P3
100 50
255
26 17 12 25 16 11 24 17 11 24 15 10 28 17 13 24 17 11 26 17 12 25 18 12 26 16 14 27 17 15 27 17 15 26 16 14 25 17 14 25 17 14 25 17 14 25 17 14 27 17 15 24 14 12 25 15 13 25 15 13 26 16 14 26 16 14 27 17 15 24 14 12 23 15 12 24 16 13 24 16 13 24 16 13 23 15 12 23 15 12 25 17 14 25 17 14 25 17 14 23 15 12 24 16 13 24 16 13 25 17 14 25 17 14 24 16 13 22 14 11 23 15 12 26 18 15 25 17 14 24 16 13 24 16 13 22 14 11 22 14 11 23 15 12 21 16 13 21 16 13 23 15 13 23 15 13 23 15 13 22 17 14 22 17 14 22 17 14 21 16 13 20 15 12 19 14 11 20 15 12 21 16 13 20 15 12 20 15 12 19 14 11 20 15 12 20 15 12 20 15 12 21 16 13 20 15 12 21 16 13 21 16 13 19 14 11 18 14 11 19 15 12 19 15 12 17 16 12 17 16 12 19 14 11 19 14 11 19 14 11 18 14 11 18 14 11 19 15 12 18 14 11 18 14 15 19 15 12 17 13 10 17 13 12 17 13 10 18 14 11 18 14 11 17 13 10 17 13 10 17 13 10 16 12 9 17 13 10 16 15 13 18 14 13 17 13 12 15 14 12 
28 19 14 26 17 12 26 17 12 25 16 11 26 17 12 26 19 13 25 18 12 25 18 12 26 16 14 26 16 14 26 16 14 26 16 14 25 17 14 25 17 14 24 16 13 24 16 13 25 17 14 24 16 13 24 16 13 23 15 12 23 15 12 25 17 14 26 18 15 24 16 13 24 16 13 24 16 13 24 16 13 24 16 13 24 16 13 24 16 13 25 17 14 25 17 14 24 16 13 26 16 14 26 18 15 25 17 14 25 17 14 24 16 13 23 15 12 24 16 13 24 16 13 25 17 14 24 16 13 24 16 13 23 15 12 23 15 12 22 17 13 21 18 13 23 18 15 22 14 11 21 13 11 24 16 14 23 15 12 21 16 13 21 16 13 20 15 12 21 16 13 21 16 13 20 15 12 21 16 13 20 15 12 20 15 12 21 16 13 20 15 12 21 16 13 20 15 12 21 16 13 21 16 13 19 14 11 20 15 12 21 16 13 20 15 12 19 15 12 19 15 12 19 15 12 18 14 11 19 14 11 20 15 12 20 15 12 20 15 12 18 14 11 18 14 11 19 15 12 18 14 11 18 14 13 18 14 11 17 13 10 18 14 13 18 14 11 18 14 11 18 14 11 17 13 10 18 14 11 18 14 11 17 13 10 17 13 10 18 14 13 17 13 12 17 13 12 17 13 12 
28 19 14 26 17 12 25 16 11 25 16 11 26 17 12 26 17 12 26 19 13 27 16 12 26 17 12 26 17 12 25 16 11 26 17 12 25 18 12 24 17 11 24 17 11 25 18 12 25 17 14 25 17 14 24 16 13 23 15 12 24 16 13 25 17 14 25 17 14 24 16 13 25 16 11 25 16 11 25 16 11 25 15 13 26 16 14 25 15 13 25 15 13 26 16 14 25 17 14 26 16 14 26 18 15 26 18 15 24 16 13 24 16 13 24 16 13 24 16 13 24 16 13 25 17 14 24 16 13 24 16 13 23 15 12 24 16 13 22 17 13 24 16 13 24 16 13 23 15 13 22 14 11 24 16 13 23 15 13 23 15 13 20 15 12 20 15 12 21 16 13 21 16 13 21 16 13 21 16 13 21 16 13 21 16 13 21 16 13 20 15 12 20 15 12 20 15 12 20 15 12 20 15 12 19 14 11 19 14 11 20 15 12 20 15 12 19 15 12 18 14 11 19 15 12 19 14 11 19 14 11 21 16 13 19 14 11 19 14 11 18 14 11 18 14 11 18 14 11 17 13 10 18 15 10 18 14 11 18 15 10 18 14 11 18 14 11 18 14 11 17 13 10 18 14 11 18 14 11 19 15 12 18 14 11 17 13 10 17 13 10 16 12 9 16 12 9 16 12 9 
27 18 13 26 17 12 25 16 11 26 17 12 26 17 12 25 18 12 27 18 13 27 20 14 27 18 13 27 18 13 26 17 12 26 17 12 26 19 13 26 19 13 24 17 11 25 18 12 26 17 12 26 17 12 26 17 12 26 17 12 26 17 12 25 16 11 25 16 11 26 17 12 26 17 12 26 17 12 26 17 12 25 16 11 26 16 14 26 16 14 26 16 14 26 16 14 25 15 13 25 15 13 25 17 14 25 17 14 24 16 13 24 16 13 26 16 14 25 17 14 24 16 13 24 16 13 25 17 14 25 17 14 24 16 13 24 16 13 23 18 14 21 16 12 24 16 13 23 15 13 23 15 12 23 15 12 24 16 14 22 14 12 21 16 13 21 16 13 20 15 12 20 15 12 21 16 13 21 16 13 21 16 13 21 16 13 21 16 13 20 15 12 20 15 12 19 14 11 19 14 11 19 14 11 20 15 12 19 14 11 19 14 11 19 14 11 19 14 11 19 14 11 19 14 11 19 14 11 20 15 12 20 15 12 18 13 10 18 13 10 18 14 11 19 15 14 18 14 11 17 13 10 17 13 10 17 13 10 18 15 10 19 15 12 18 14 11 19 15 12 17 13 10 18 14 11 18 14 11 18 14 11 19 15 12 18 14 11 16 12 9 17 13 10 17 13 10 17 13 10 
27 18 13 26 17 12 26 17 12 26 17 12 26 17 12 26 17 12 27 18 13 28 19 14 27 18 13 26 18 15 25 17 14 26 19 13 26 17 12 27 17 15 24 16 13 25 18 12 25 17 14 25 18 12 25 18 12 27 19 16 24 16 13 25 18 12 24 17 11 25 18 12 25 15 13 26 16 14 25 15 13 26 16 14 26 16 14 26 16 14 26 16 14 26 16 14 25 17 14 25 15 13 24 14 12 24 14 12 24 16 13 25 17 14 25 17 14 27 17 15 25 17 14 25 17 14 25 17 14 24 16 13 24 16 13 22 14 11 21 13 10 23 15 12 23 15 13 24 16 14 24 16 14 21 13 11 21 16 13 20 15 12 21 16 13 22 17 14 22 17 14 21 16 12 21 16 13 22 17 14 21 16 13 21 16 13 20 15 12 20 15 12 19 14 11 20 15 12 20 15 12 20 15 12 19 14 11 20 15 12 20 15 12 20 15 12 19 14 11 20 15 12 20 15 12 20 15 12 19 14 11 19 14 11 17 13 10 16 12 9 17 13 10 19 15 12 18 14 11 18 14 11 18 14 11 17 13 10 18 14 11 19 15 12 18 14 11 19 15 12 18 14 11 18 14 11 18 14 11 18 14 13 18 14 13 18 14 13 18 14 13 17 13 12 17 13 12 16 12 11 
25 16 11 25 16 11 25 16 11 27 18 13 27 18 13 27 18 13 27 18 13 27 18 13 28 19 14 26 17 12 25 16 11 26 17 12 27 18 13 27 18 13 27 18 13 27 18 13 25 18 12 27 18 13 25 18 12 26 17 12 26 17 12 25 17 14 25 15 13 24 16 13 26 16 14 25 15 13 25 15 13 26 16 14 27 17 15 26 16 14 25 15 13 26 16 14 25 18 12 26 17 12 25 15 13 25 15 13 24 16 13 26 18 15 25 17 14 26 16 14 24 16 13 23 15 12 24 16 13 24 16 13 24 16 13 23 15 12 22 14 11 22 14 11 23 15 12 24 16 14 23 15 13 23 15 13 20 15 12 21 16 13 21 16 13 21 16 13 19 14 11 22 17 13 21 16 13 21 16 13 20 15 12 19 14 11 21 16 13 21 16 13 21 16 13 19 14 11 19 14 11 20 15 12 20 15 12 19 14 11 19 14 11 20 15 12 20 15 12 19 14 11 19 14 11 19 14 11 18 13 10 20 15 12 17 13 10 18 14 11 18 14 11 19 14 11 19 14 11 19 14 11 19 15 12 20 15 12 18 14 11 18 14 11 18 15 10 19 15 14 19 15 12 19 15 12 19 15 14 18 14 11 18 14 13 17 13 10 18 14 13 18 14 13 18 14 13 17 13 12 
26 17 12 26 17 12 27 18 13 26 17 12 28 19 14 27 18 13 27 18 13 26 17 12 26 17 12 26 16 14 26 16 14 27 18 13 27 18 13 28 18 16 28 18 16 27 18 13 26 17 12 26 19 13 26 17 12 25 18 12 26 19 13 26 16 14 26 18 15 26 17 12 26 16 14 26 16 14 27 17 15 27 17 15 28 18 16 27 17 15 26 16 14 25 15 13 25 18 12 26 17 12 26 16 14 27 17 15 25 17 14 26 18 15 24 16 13 25 15 13 22 14 11 23 15 12 24 16 13 25 17 14 26 18 15 24 16 13 23 15 12 23 15 12 22 14 11 23 15 12 23 15 12 23 15 13 21 16 13 21 16 13 20 15 12 21 16 13 21 16 13 20 15 12 20 15 12 20 15 12 20 15 12 20 15 12 20 15 12 21 16 13 21 16 13 20 15 12 19 14 11 20 15 12 20 15 12 18 13 10 18 13 10 19 14 11 20 15 12 20 15 12 18 13 10 17 12 9 18 13 10 19 14 11 19 15 12 19 15 12 19 15 12 18 14 11 18 14 11 19 15 12 20 15 12 19 15 12 19 15 12 18 14 11 18 14 11 19 15 16 18 14 11 19 15 12 19 15 14 19 15 12 18 14 13 17 13 10 18 14 13 17 13 12 16 12 11 17 13 12 
26 17 12 27 18 13 27 18 13 26 17 12 28 19 14 27 18 13 28 19 14 27 18 13 26 17 12 26 17 12 27 18 13 27 18 13 27 18 13 27 18 13 28 19 14 27 18 13 26 19 13 26 16 14 25 17 14 27 18 13 27 18 13 26 19 13 29 20 15 26 19 13 27 17 15 27 17 15 26 16 14 27 17 15 27 17 15 27 17 15 26 16 14 25 15 13 25 17 14 26 16 14 26 16 14 27 17 15 25 17 14 26 18 15 25 17 14 25 15 13 24 16 13 24 16 13 24 16 13 25 17 14 26 18 15 24 16 13 23 15 12 24 16 13 24 16 13 24 16 13 23 15 12 23 15 12 21 16 13 21 16 13 20 15 12 20 15 11 21 16 13 20 15 12 21 16 13 21 16 13 21 16 13 21 16 13 20 15 12 22 17 14 21 16 13 20 15 12 20 15 12 19 14 11 21 16 13 20 15 12 19 14 11 19 14 11 21 16 13 20 15 12 20 15 12 20 15 12 19 14 11 19 14 11 18 14 11 18 14 11 18 14 11 18 14 11 18 14 11 19 15 12 19 15 12 18 14 11 19 15 12 19 15 12 18 14 11 19 15 14 18 14 11 19 15 12 19 15 12 18 14 11 18 14 11 18 14 11 18 14 13 18 14 13 17 13 12 17 13 12 
28 19 14 28 19 14 27 18 13 26 17 12 26 17 12 28 19 14 28 19 14 27 18 13 27 18 13 26 17 12 27 18 13 27 18 13 27 18 13 26 17 12 27 18 13 27 18 13 27 18 13 26 19 13 27 18 13 26 19 13 26 19 13 27 18 13 26 18 15 27 18 13 27 18 13 27 18 13 27 18 13 27 18 13 27 17 15 26 16 14 26 16 14 26 16 14 26 16 14 26 16 14 27 17 15 27 17 15 27 17 15 27 17 15 27 17 15 26 16 14 25 17 14 24 16 13 25 17 14 25 17 14 25 17 14 25 17 14 24 16 13 24 16 13 23 15 13 24 16 13 23 15 12 23 15 12 23 15 13 23 15 13 22 14 12 21 13 11 20 15 12 22 17 14 22 17 14 20 15 12 21 16 13 21 16 13 22 17 14 22 17 14 21 16 13 20 15 12 20 15 12 19 14 11 20 15 12 20 15 12 21 16 13 20 15 12 20 15 12 19 14 11 20 15 12 18 13 10 20 15 12 19 14 11 18 14 11 17 13 10 18 14 11 19 14 11 19 15 12 21 16 13 19 15 12 19 14 11 19 15 12 19 15 12 17 13 10 19 15 12 19 15 12 18 14 11 18 15 10 18 14 11 18 15 10 18 15 10 19 15 14 18 14 13 17 13 12 17 13 12 
26 17 12 26 17 12 27 18 13 28 19 14 27 18 13 27 18 13 28 19 14 27 18 13 27 18 13 26 17 12 26 19 13 26 19 13 26 17 12 27 18 13 27 18 13 27 20 14 27 18 11 27 18 13 28 19 14 27 18 13 27 18 13 28 19 14 27 18 13 27 17 15 28 19 14 27 18 13 26 17 12 26 17 12 27 17 15 26 16 14 27 17 15 27 17 15 27 18 13 27 18 13 26 16 14 26 16 14 26 16 14 26 16 14 26 16 14 27 17 15 27 17 15 25 17 14 25 15 13 24 16 13 24 16 13 25 17 14 24 16 13 24 16 13 25 17 14 25 17 14 24 16 13 23 15 12 23 15 12 22 14 12 22 14 12 22 14 12 20 15 12 22 17 14 21 16 13 21 16 13 20 15 12 21 16 13 22 17 14 21 16 13 21 16 13 19 14 11 20 15 12 20 15 12 20 15 12 20 15 12 20 15 12 20 15 12 20 15 12 21 16 13 19 14 11 20 15 12 20 15 12 19 14 11 18 14 11 18 14 11 18 14 11 16 15 11 18 14 11 19 15 12 20 15 12 17 16 12 19 15 12 19 15 12 19 15 12 19 14 10 17 13 10 19 14 11 18 14 11 18 14 11 17 13 12 18 14 11 18 14 13 18 14 13 17 13 12 19 15 14 
26 17 12 25 16 11 27 18 13 27 18 13 29 20 15 28 19 14 28 19 14 27 18 13 27 18 13 27 18 13 27 18 13 26 17 12 26 17 12 27 18 13 28 19 14 28 19 14 27 18 11 26 17 12 28 19 14 28 19 14 27 18 13 28 19 14 28 19 14 27 18 13 26 17 12 27 18 13 25 16 11 26 17 12 26 16 14 26 16 14 26 16 14 26 16 14 27 18 13 27 18 13 26 16 14 26 16 14 26 16 14 25 15 13 25 15 13 25 15 13 26 16 14 24 16 13 24 14 12 24 16 13 25 15 13 24 16 13 23 15 12 24 16 13 24 16 13 23 15 12 24 16 13 23 15 12 24 16 13 22 14 11 23 15 12 21 13 11 20 15 11 21 16 13 20 15 11 22 17 14 21 16 13 21 16 13 20 15 12 20 15 12 20 15 12 20 15 12 20 15 12 21 16 13 20 15 12 18 13 10 20 15 12 20 15 12 20 15 12 18 13 10 18 13 10 19 14 11 20 15 12 21 16 13 19 15 12 18 14 11 20 15 12 21 13 11 18 13 10 19 14 11 18 14 11 19 14 11 19 14 11 19 14 11 20 15 12 18 14 11 19 14 11 17 13 10 20 15 12 18 14 11 18 14 15 17 13 12 18 14 13 18 14 13 18 14 13 18 14 13 
26 17 12 26 17 12 27 18 13 28 19 14 29 20 15 28 19 14 27 18 13 27 18 13 27 18 13 27 18 13 26 17 12 26 17 12 27 18 13 28 19 14 28 19 14 27 18 13 27 18 13 26 17 12 28 19 14 28 19 14 28 19 14 27 18 13 27 18 13 27 17 15 27 18 13 27 18 13 27 18 13 25 16 11 26 16 14 27 17 15 26 16 14 25 15 13 26 16 14 26 16 14 25 15 13 27 17 15 26 16 14 25 15 13 25 15 13 25 15 13 26 16 14 24 16 13 26 15 13 24 16 13 25 15 13 25 17 14 24 16 13 23 15 12 24 16 13 24 16 13 23 15 12 24 16 13 23 15 12 23 15 12 22 14 11 23 15 12 21 16 12 19 14 11 21 16 12 20 15 12 21 16 13 21 16 13 21 16 13 20 15 12 21 16 13 21 16 13 21 16 13 20 15 12 20 15 12 19 14 11 18 13 10 20 15 12 19 14 11 19 14 11 18 13 10 19 14 11 20 15 12 19 14 11 19 15 12 19 15 12 18 14 11 19 15 12 19 14 11 18 14 11 22 14 12 18 14 11 19 14 11 18 14 11 19 14 11 19 14 11 18 13 10 20 15 12 20 16 13 18 14 11 18 14 11 17 13 10 19 15 14 18 14 13 18 14 13 18 14 13 
26 17 12 27 18 13 27 18 13 28 19 14 28 19 14 28 19 14 28 19 14 27 18 13 27 18 13 27 18 13 29 20 15 27 18 13 28 19 14 28 19 14 28 19 14 28 19 14 28 19 14 27 18 13 27 18 13 27 18 13 27 18 13 27 18 13 28 19 14 27 18 13 27 18 13 27 18 13 27 18 13 25 16 11 27 18 13 27 18 13 27 18 13 27 18 13 26 17 12 26 17 12 27 17 15 26 16 14 26 16 14 26 16 14 27 17 15 27 17 15 24 16 13 24 16 13 23 15 12 24 16 13 24 16 13 24 16 13 24 16 13 24 16 13 24 16 13 23 15 12 23 15 12 23 15 12 23 15 13 23 15 13 23 15 13 22 14 12 23 15 13 22 14 12 20 15 12 21 16 13 21 16 13 21 16 13 21 16 13 19 14 11 21 16 13 21 16 12 20 15 12 20 15 12 21 16 13 19 14 11 19 14 10 19 14 11 21 16 13 20 15 12 19 14 11 19 14 11 19 14 11 19 14 11 20 15 12 20 15 12 20 15 12 19 14 11 19 14 11 19 14 11 20 15 12 19 15 12 18 14 11 18 14 11 19 14 11 18 14 11 18 14 11 20 16 13 19 15 12 20 16 13 19 15 12 18 14 11 18 14 11 18 14 11 18 14 11 18 14 11 
27 18 13 27 18 13 28 19 14 27 18 13 28 19 14 30 21 16 29 20 15 27 18 13 27 18 13 27 18 13 28 19 14 28 19 14 28 19 14 28 19 14 28 19 14 28 19 14 28 19 14 27 18 13 27 18 13 27 18 13 27 18 13 27 18 13 27 18 13 27 18 13 27 18 13 28 19 14 28 19 14 28 19 14 30 21 16 29 20 15 27 18 13 27 18 13 28 19 14 27 18 13 26 16 14 26 16 14 26 16 14 27 17 15 28 18 16 28 18 16 25 17 14 24 16 13 25 17 14 24 16 13 24 16 13 24 16 13 24 16 13 24 16 13 24 16 13 23 15 12 23 15 12 23 15 12 23 15 13 21 16 13 20 15 12 21 16 13 22 14 12 22 14 12 19 14 11 19 14 11 20 15 12 20 15 12 20 15 12 19 14 11 21 16 13 21 16 13 21 16 13 20 15 11 22 17 14 20 15 12 18 13 10 19 14 11 20 15 12 22 17 14 20 15 12 19 14 11 18 13 10 18 13 10 20 15 12 20 15 12 19 14 11 19 14 11 18 13 10 19 14 11 20 15 12 20 15 12 19 15 12 19 15 12 18 14 11 19 14 11 20 15 12 19 15 12 19 15 12 19 15 12 19 15 12 17 13 10 18 14 11 18 14 11 18 14 11 18 14 11 
27 18 13 28 19 14 29 20 15 28 19 14 28 19 14 29 20 15 29 20 15 28 19 14 27 18 13 28 19 14 28 19 14 28 19 14 28 19 14 29 20 15 28 19 14 27 18 13 27 18 13 27 18 13 27 18 13 28 19 14 27 18 13 28 19 14 28 19 14 28 19 14 27 18 13 29 20 15 29 20 15 29 20 15 28 19 14 27 18 13 26 17 12 26 17 12 26 17 12 27 18 13 26 16 14 26 16 14 26 16 14 28 18 16 27 17 15 26 16 14 24 16 13 24 16 13 24 16 13 24 16 13 24 16 13 23 15 12 23 15 12 23 15 12 24 16 13 24 16 13 23 15 12 23 15 12 21 16 13 20 15 12 20 15 12 21 16 13 23 15 13 23 15 13 21 16 13 20 15 12 20 15 12 20 15 12 21 16 13 21 16 13 20 15 12 20 15 12 21 16 13 21 16 13 22 17 14 20 15 12 20 15 12 20 15 12 20 15 12 21 16 13 21 16 13 19 14 11 18 13 10 19 14 11 20 15 12 20 15 12 20 15 12 19 14 11 20 15 12 20 15 12 21 16 13 19 15 12 20 15 12 19 15 12 20 15 12 19 15 12 18 14 11 20 15 12 20 15 12 19 15 12 18 14 11 17 13 10 18 14 11 19 15 12 19 15 12 18 14 11 
27 18 13 28 19 14 29 20 15 29 20 15 27 18 13 28 19 14 28 19 14 29 20 15 29 20 15 28 19 14 28 19 14 28 19 14 28 19 14 28 19 14 28 19 14 27 18 13 26 17 12 26 17 12 26 17 12 26 17 12 27 18 13 27 18 13 27 18 13 27 18 13 27 18 13 28 19 14 28 19 14 27 18 13 27 18 13 26 17 12 25 16 11 25 16 11 26 17 12 26 17 12 26 16 14 26 16 14 26 16 14 26 16 14 26 16 14 25 15 13 25 17 14 25 17 14 24 16 13 25 17 14 25 17 14 25 17 14 24 16 13 24 16 13 24 16 13 24 16 13 23 15 12 24 16 13 23 15 13 22 14 12 20 15 12 20 15 12 23 15 13 23 15 13 22 17 14 21 16 13 19 14 11 20 15 12 22 17 14 22 17 14 19 14 11 20 15 12 20 15 12 20 15 12 20 15 12 20 15 12 21 16 13 20 15 12 20 15 12 21 16 13 20 15 12 19 14 11 20 15 12 19 14 11 20 15 12 21 16 13 19 14 11 18 13 10 19 14 11 19 14 11 19 14 11 19 14 11 18 14 11 20 15 12 19 15 12 20 15 12 18 13 10 19 15 12 19 15 12 20 15 12 19 14 11 18 14 11 19 15 12 19 15 12 20 16 13 19 15 12 
28 19 14 29 20 15 28 19 14 29 20 15 27 18 13 26 17 12 28 19 14 28 19 14 29 20 15 28 19 14 27 18 13 28 19 14 28 19 14 29 20 15 29 20 15 28 19 14 28 19 14 27 18 13 28 19 14 27 18 13 27 18 13 27 18 13 28 19 14 28 19 14 27 18 13 27 18 13 27 18 13 27 18 13 28 19 14 26 17 12 26 17 12 26 17 12 27 18 13 26 17 12 26 16 14 26 16 14 25 17 14 24 16 13 25 17 14 25 17 14 25 17 14 24 16 13 24 16 13 24 16 13 25 17 14 25 17 14 23 15 12 24 16 13 24 16 13 24 16 13 23 15 12 23 15 12 23 15 12 23 15 12 22 14 11 22 14 11 24 16 14 23 15 13 21 16 13 20 15 12 19 14 11 20 15 12 21 16 13 21 16 13 20 15 12 19 14 11 21 16 13 20 15 12 20 15 12 20 15 12 20 15 12 22 17 14 20 15 12 19 14 11 19 14 11 20 15 12 20 15 12 20 15 12 20 15 12 20 15 12 19 14 11 19 14 11 19 14 11 19 14 11 19 14 11 18 14 11 22 17 14 17 13 10 20 15 12 18 14 11 17 13 10 19 14 11 19 14 11 19 15 12 19 15 12 19 14 11 19 15 12 18 14 11 19 15 12 19 15 12 
27 18 13 28 19 14 28 19 14 29 20 15 27 18 13 27 18 13 28 19 14 28 19 14 28 19 14 28 19 14 27 18 13 27 18 13 26 17 12 27 18 13 28 19 14 27 18 13 26 17 12 27 18 13 27 18 13 27 18 13 27 18 13 27 18 13 27 18 13 28 19 14 29 20 15 28 19 14 27 18 13 27 18 13 27 18 13 27 18 13 27 18 13 27 18 13 27 18 13 26 17 12 26 16 14 25 15 13 24 16 13 24 16 13 25 17 14 26 18 15 25 17 14 24 16 13 24 16 13 24 16 13 25 17 14 24 16 13 22 14 11 23 15 12 23 15 12 23 15 12 23 15 12 23 15 12 23 15 12 24 16 13 22 14 11 20 15 11 23 15 13 24 16 14 22 17 14 20 15 12 20 15 12 20 15 12 21 16 13 22 17 14 20 15 12 20 15 12 19 14 11 19 14 11 21 16 13 19 14 11 20 15 12 21 16 13 20 15 12 20 15 12 19 14 11 20 15 12 20 15 12 20 15 12 20 15 12 20 15 12 19 14 11 20 15 12 19 14 11 19 14 11 20 15 12 21 16 13 18 14 11 19 14 11 20 15 12 19 14 11 18 13 10 18 14 11 19 15 12 20 15 12 20 15 12 18 14 11 17 13 10 17 13 10 18 14 11 19 15 12 
27 18 13 28 19 14 28 19 14 29 20 15 27 18 13 27 18 13 27 18 13 27 18 13 27 18 13 29 20 15 30 21 16 28 19 14 26 17 12 27 18 13 29 20 15 28 19 14 27 18 13 26 17 12 27 18 13 27 18 13 28 19 14 28 19 14 28 19 14 27 18 13 26 17 12 27 18 13 27 18 13 28 19 14 27 18 13 27 18 13 26 17 12 26 17 12 26 17 12 26 17 12 26 16 14 27 17 15 25 17 14 24 16 13 25 17 14 26 18 15 26 18 15 25 17 14 24 16 13 24 16 13 25 17 14 24 16 13 23 15 12 24 16 13 25 17 14 24 16 13 23 15 12 23 15 12 23 15 12 22 17 13 21 16 12 22 17 13 23 15 12 24 16 13 22 17 13 21 16 12 20 15 11 19 14 10 20 15 11 21 16 12 20 15 12 21 16 13 21 16 13 21 16 13 19 14 10 20 15 12 20 15 12 20 15 12 21 16 13 20 15 12 20 15 12 20 15 12 19 14 11 20 15 12 21 16 13 22 17 14 21 16 13 19 14 11 18 13 10 19 14 11 20 15 12 22 17 14 20 15 12 19 14 11 20 15 12 20 15 12 18 13 10 20 15 12 20 15 12 19 15 12 18 14 11 20 15 12 20 16 13 19 15 12 18 14 11 18 14 11 
28 19 14 27 18 13 29 20 15 28 19 14 26 17 12 27 18 13 26 17 12 27 18 13 27 18 13 28 19 14 28 19 14 28 19 14 27 18 13 28 19 14 29 20 15 27 18 13 25 16 11 25 16 11 27 18 13 28 19 14 26 17 12 27 18 13 27 18 13 27 18 13 27 18 13 26 17 12 26 17 12 27 18 13 26 17 12 26 17 12 26 17 12 26 17 12 27 18 13 26 17 12 26 16 14 26 16 14 24 16 13 25 17 14 25 17 14 25 17 14 26 18 15 24 16 13 24 16 13 24 16 13 25 17 14 25 17 14 23 15 12 25 17 14 24 16 13 25 17 14 22 14 11 22 14 11 22 14 11 22 14 11 19 14 10 21 16 12 23 15 12 22 14 11 21 16 12 21 16 12 21 16 12 21 16 12 22 17 13 21 16 12 21 16 13 20 15 11 20 15 12 20 15 12 20 15 12 20 15 12 21 16 12 20 15 12 20 15 12 19 14 11 20 15 12 20 15 12 20 15 12 20 15 12 21 16 13 21 16 13 20 15 12 21 16 13 19 14 11 20 15 12 20 15 12 20 15 12 19 14 11 19 14 11 20 15 12 20 15 12 19 14 11 20 15 12 20 15 12 19 14 11 19 14 11 18 14 11 18 14 11 19 15 12 19 15 12 20 16 13 
32 18 15 29 18 14 28 19 14 28 19 14 27 18 13 28 19 14 27 18 13 27 18 13 28 19 14 28 19 14 29 20 15 28 19 14 27 18 13 27 18 13 27 18 13 27 18 13 26 17 12 27 18 13 26 17 12 28 19 14 29 20 15 27 18 13 26 17 12 27 18 13 26 17 12 26 17 12 26 17 12 27 18 13 26 17 12 27 18 13 26 16 14 26 16 14 26 16 14 27 17 15 26 16 14 26 16 14 25 17 14 25 17 14 25 17 14 26 18 15 24 16 13 26 16 14 26 16 14 26 16 14 23 15 12 24 16 13 24 16 13 24 16 13 25 17 14 25 17 14 23 15 12 23 15 12 23 15 12 23 15 12 20 15 11 20 15 11 20 15 11 21 16 12 21 16 12 21 16 12 21 16 12 21 16 12 21 16 13 21 16 13 20 15 11 20 15 11 20 15 11 21 16 12 20 15 12 21 16 13 21 16 13 20 15 12 20 15 12 20 15 12 20 15 12 21 16 13 20 15 12 20 15 12 21 16 13 21 16 13 19 14 11 20 15 12 20 15 12 21 16 13 20 15 12 20 15 12 19 14 10 18 13 9 20 15 11 20 15 11 20 15 11 20 15 12 20 15 12 19 14 11 19 14 11 19 14 11 19 14 11 20 15 12 20 15 12 20 16 13 
29 18 12 28 17 13 28 19 14 28 19 14 29 20 15 28 19 14 29 20 15 28 19 14 28 19 14 28 19 14 29 20 15 28 19 14 27 18 13 27 18 13 27 18 13 27 18 13 27 18 13 28 19 14 27 18 13 28 19 14 28 19 14 29 20 15 27 18 13 27 18 13 27 18 13 27 18 13 27 18 13 27 18 13 26 17 12 27 18 13 26 16 14 27 17 15 26 16 14 26 16 14 26 16 14 24 14 12 24 16 13 25 17 14 26 18 15 26 18 15 25 17 14 27 17 15 25 17 14 25 17 14 24 16 13 24 16 13 23 15 12 24 16 13 24 16 13 24 16 13 23 15 12 24 16 13 23 15 12 23 15 12 19 14 10 22 14 11 20 15 11 21 16 12 21 16 12 21 16 12 22 17 13 22 17 13 21 16 13 20 15 12 20 15 11 20 15 11 21 16 12 21 16 12 21 16 13 21 16 13 21 16 13 20 15 12 20 15 12 20 15 12 20 15 12 20 15 12 20 15 12 20 15 12 21 16 13 22 17 14 20 15 12 20 15 12 20 15 12 19 14 11 20 15 12 21 16 13 19 14 11 19 14 11 21 16 12 21 16 13 21 16 13 20 15 12 20 15 12 20 15 12 21 16 13 19 14 11 19 14 11 19 14 11 20 15 12 19 15 12 
28 17 13 28 17 13 27 18 11 28 19 14 28 19 14 30 21 16 29 20 15 28 19 14 28 19 14 29 20 15 29 20 15 28 19 14 27 18 13 28 19 14 28 19 14 28 19 14 28 19 14 28 19 14 27 18 13 27 18 13 28 19 14 29 20 15 27 18 13 27 18 13 27 18 13 27 18 13 27 18 13 28 19 14 26 17 12 26 17 12 27 17 15 28 18 16 27 17 15 27 17 15 27 17 15 26 16 14 24 16 13 25 17 14 25 17 14 25 17 14 23 15 12 26 18 15 26 18 15 24 16 13 23 15 12 24 16 13 25 17 14 23 15 12 23 15 12 24 16 13 23 15 12 24 16 13 22 17 13 23 18 14 23 15 12 23 15 12 21 16 12 22 17 13 21 16 12 20 15 11 19 14 10 22 17 13 20 15 12 20 15 12 20 15 11 20 15 11 21 16 12 21 16 12 22 17 14 21 16 13 21 16 13 20 15 12 20 15 12 20 15 12 21 16 13 20 15 12 19 14 11 20 15 12 23 15 13 23 15 13 21 16 13 21 16 13 20 15 12 19 14 11 19 14 11 20 15 12 20 15 11 19 14 10 20 15 12 20 15 12 21 16 13 19 14 11 21 16 13 20 15 12 21 16 13 20 15 11 19 14 11 19 14 11 20 15 12 19 15 12 
29 18 12 28 19 14 27 18 13 28 19 14 28 19 14 28 19 14 28 19 14 28 19 14 28 19 14 27 18 13 28 19 14 27 18 13 27 18 13 27 18 13 27 18 13 27 18 13 28 19 14 28 19 14 27 18 13 28 19 14 27 18 13 27 18 13 25 16 11 27 18 13 27 18 13 26 17 12 25 16 11 26 17 12 26 17 12 27 18 13 28 18 16 29 19 17 27 17 15 26 16 14 27 17 15 26 16 14 25 17 14 26 18 15 26 18 15 24 16 13 25 17 14 25 17 14 25 17 14 25 17 14 25 17 14 25 17 14 24 16 13 23 15 12 23 15 12 23 18 14 25 17 14 25 17 14 23 15 12 22 17 13 24 14 12 20 15 11 22 17 13 21 16 12 22 17 13 21 16 12 20 15 11 22 17 13 22 17 14 22 17 14 20 15 11 20 15 11 22 17 13 21 16 12 22 17 14 21 16 13 21 16 13 20 15 12 21 16 13 21 16 13 21 16 13 20 15 12 20 15 12 20 15 12 20 15 12 20 15 12 20 15 11 20 15 11 20 15 11 21 16 12 21 16 13 21 16 13 20 15 12 19 14 11 19 14 10 21 16 13 20 15 12 20 15 12 21 16 13 21 16 13 21 16 13 19 14 11 19 14 11 20 15 12 21 16 13 20 15 12 
28 19 14 29 20 15 29 20 15 28 19 14 28 19 14 27 18 13 28 19 14 28 19 12 29 20 15 27 18 13 27 18 13 28 19 14 27 18 13 26 17 12 27 18 13 27 18 13 27 18 13 28 19 14 27 18 13 26 17 12 26 17 12 27 18 13 27 18 13 26 17 12 26 17 12 26 17 12 26 17 12 28 19 14 27 18 13 27 18 13 27 17 15 27 17 15 26 16 14 26 16 14 26 16 14 25 15 13 25 17 14 26 18 15 25 17 14 24 16 13 24 16 13 25 17 14 26 18 15 25 17 14 25 17 14 25 17 14 23 15 12 24 16 13 23 15 12 23 15 12 25 17 14 25 17 14 24 16 13 23 15 12 21 16 12 20 15 11 20 15 11 21 16 12 21 16 12 22 17 13 20 15 11 22 17 13 23 18 15 22 17 14 20 15 11 21 16 12 22 17 13 22 17 13 22 17 14 21 16 13 21 16 13 21 16 13 22 17 13 20 15 11 20 15 11 21 16 12 21 16 12 21 16 12 21 16 12 20 15 11 22 17 13 20 15 11 20 15 11 20 15 11 20 15 11 21 16 12 20 15 11 20 15 11 20 15 11 20 15 11 21 16 12 20 15 12 20 15 12 20 15 12 20 15 12 19 14 11 20 15 12 21 16 13 21 16 13 21 16 13 
27 18 13 28 19 14 29 20 15 28 19 14 28 19 14 27 18 11 27 18 13 28 19 14 30 21 16 27 18 13 27 18 13 26 17 12 27 18 13 27 18 13 29 20 15 28 19 14 28 19 14 28 19 14 28 19 14 26 17 12 26 17 12 27 18 13 26 17 12 27 18 13 26 17 12 27 18 13 27 18 13 27 18 13 27 18 13 27 18 13 28 18 16 27 17 15 26 16 14 26 16 14 26 16 14 27 17 15 25 17 14 25 17 14 25 17 14 25 17 14 25 17 14 26 18 15 27 19 16 26 18 15 26 18 15 25 17 14 25 17 14 24 16 13 24 16 13 24 16 13 25 17 14 24 16 13 23 15 12 23 15 12 22 17 13 21 16 12 21 16 12 22 17 13 21 16 12 21 16 12 21 16 12 22 17 13 22 17 14 21 16 13 21 16 12 21 16 12 22 17 13 22 17 13 21 16 13 21 16 13 21 16 13 21 16 13 20 15 11 20 15 11 20 15 11 22 14 11 23 15 12 24 16 13 21 16 12 21 16 12 20 15 11 20 15 11 20 15 11 21 16 12 20 15 12 21 16 13 22 17 14 21 16 13 21 16 12 21 16 12 21 16 12 20 15 12 20 15 12 21 16 13 21 16 13 19 14 11 21 16 13 20 15 12 21 16 13 22 17 14 
27 18 13 28 19 14 27 18 13 28 19 14 27 18 13 28 19 14 27 18 13 28 19 12 27 18 13 28 19 14 29 18 14 27 18 13 28 17 13 27 18 13 30 19 15 29 20 15 28 19 14 28 19 14 28 19 14 26 17 12 28 19 14 27 18 13 28 19 14 26 17 12 26 17 12 27 18 13 29 20 15 28 19 14 27 18 13 27 18 13 27 17 15 27 17 15 27 17 15 27 17 15 28 18 16 27 17 15 25 17 14 25 17 14 25 17 14 24 16 13 25 15 13 25 17 14 25 17 14 26 18 15 25 17 14 26 18 15 26 18 15 25 17 14 25 17 14 24 16 13 24 16 13 23 15 12 23 15 12 21 16 12 24 16 13 21 16 12 21 16 12 21 16 12 21 16 12 21 16 12 21 16 12 22 17 13 21 16 13 21 16 13 22 17 13 21 16 12 21 16 12 21 16 12 21 16 13 21 16 13 21 16 13 21 16 13 19 14 10 19 14 10 20 15 11 21 16 12 20 15 11 21 16 12 21 16 12 21 16 12 22 14 12 23 15 12 22 14 11 22 14 11 22 14 11 23 15 12 23 15 12 23 15 12 21 16 12 20 15 11 20 15 12 21 16 13 20 15 12 21 16 13 20 15 12 20 15 12 20 15 12 20 15 12 20 15 12 19 14 11 
29 20 15 28 19 14 28 19 14 27 18 13 28 19 14 28 19 14 27 18 13 27 18 13 28 19 14 29 18 14 28 19 14 28 17 13 28 19 14 28 17 13 28 19 14 29 18 14 27 18 13 28 19 14 29 20 15 28 19 14 28 19 14 27 18 13 28 19 14 26 17 12 26 17 12 27 18 13 29 20 15 28 19 14 27 18 13 27 18 13 27 17 15 26 16 14 26 16 14 26 16 14 26 16 14 26 16 14 24 16 13 25 17 14 27 19 16 25 17 14 26 16 14 25 17 14 24 16 13 25 17 14 26 16 14 26 18 15 24 16 13 25 17 14 23 15 12 24 16 13 24 16 13 24 16 13 22 17 13 23 15 12 21 16 12 23 15 12 21 16 12 21 16 12 21 16 12 21 16 12 21 16 12 21 16 12 21 16 13 22 17 14 23 18 14 21 16 12 21 16 12 21 16 12 21 16 13 21 16 13 22 17 14 21 16 13 20 15 11 20 15 11 20 15 11 23 18 14 23 18 14 23 15 12 23 15 12 23 15 12 21 16 12 21 16 12 20 15 11 21 16 12 22 17 13 22 17 13 20 15 11 20 15 11 22 17 14 21 16 13 21 16 13 21 16 13 21 16 13 20 15 12 22 17 14 19 14 11 19 14 11 19 14 11 19 14 11 19 14 11 
29 20 15 29 20 15 29 20 15 29 20 15 28 19 14 28 19 14 27 18 13 27 18 13 29 20 15 27 18 13 28 19 14 28 19 14 28 19 14 28 19 14 27 18 13 27 18 13 27 18 13 27 18 13 27 18 13 28 19 14 28 19 14 27 18 13 27 18 13 26 17 12 27 18 13 26 17 12 27 18 13 28 19 14 28 19 14 27 18 13 27 18 13 26 17 12 26 17 12 27 17 15 28 19 14 27 17 15 26 16 14 25 18 12 24 16 13 23 18 12 25 17 14 25 17 14 26 18 15 25 17 14 25 17 14 25 17 14 24 16 13 25 17 14 24 16 13 24 16 13 24 16 13 25 17 14 24 16 13 23 15 12 23 15 12 23 15 12 22 17 13 23 15 12 24 16 14 23 15 12 21 16 12 21 16 12 21 16 12 23 15 12 24 16 13 24 16 13 23 15 12 21 16 12 21 16 12 20 15 11 20 15 11 20 15 11 24 16 13 23 15 12 24 16 13 24 16 13 24 16 13 22 14 11 23 15 12 24 16 13 23 15 13 21 16 13 22 17 14 22 17 13 22 17 13 22 14 12 20 15 12 20 15 12 22 14 11 22 14 11 20 15 11 20 15 11 21 16 13 20 15 12 21 16 13 21 16 13 21 16 13 21 16 13 20 15 12 19 14 11 
29 20 15 28 19 14 29 20 15 28 19 14 28 19 14 28 19 14 27 18 13 28 19 14 29 20 15 27 18 13 26 17 12 27 18 13 27 18 13 29 20 15 26 17 12 27 18 13 27 18 13 27 18 13 27 18 13 28 19 14 28 19 14 27 18 13 28 19 14 27 18 13 27 18 13 27 18 13 27 18 13 27 18 13 28 19 14 27 18 13 25 16 11 26 17 12 26 17 12 26 16 14 26 16 14 27 17 15 27 17 15 26 16 14 24 16 13 25 18 12 26 16 14 25 17 14 25 17 14 25 17 14 25 17 14 25 17 14 24 16 13 24 16 13 24 16 13 23 15 12 24 16 13 25 17 14 25 17 14 24 16 13 24 16 13 24 16 13 21 16 12 24 16 13 24 16 13 22 14 11 20 15 11 21 16 13 23 15 12 24 16 13 24 16 13 23 15 12 23 15 12 24 16 13 23 15 12 23 15 12 20 15 11 20 17 12 22 17 13 21 16 12 23 18 14 22 17 13 22 17 13 19 14 10 22 17 13 22 17 13 21 16 12 21 16 12 21 16 13 22 17 14 22 17 14 22 17 14 21 13 10 23 15 12 23 15 12 22 14 11 20 15 11 21 16 12 21 16 13 20 15 12 20 15 12 21 16 13 21 16 13 20 15 12 20 15 12 20 15 12 
28 19 14 29 20 15 29 20 15 29 20 15 28 19 14 29 20 15 29 20 15 29 20 15 28 19 14 27 18 13 27 18 13 27 18 13 28 19 14 29 20 15 27 18 13 28 19 14 27 18 13 27 18 13 27 18 13 27 18 13 27 18 13 28 19 14 27 18 13 28 19 14 28 19 14 26 17 12 26 17 12 27 18 13 27 18 13 26 17 12 27 18 13 27 18 13 26 17 12 26 17 12 26 16 14 25 15 13 27 17 15 26 16 14 26 17 12 24 17 11 26 16 14 26 16 14 26 16 14 26 18 15 26 18 15 25 17 14 24 16 13 23 15 12 24 16 13 23 15 12 23 15 12 25 17 14 24 16 13 23 15 12 24 16 13 23 15 12 23 15 12 24 16 13 23 15 12 23 15 12 22 14 11 23 15 12 22 14 11 25 17 14 24 16 13 23 15 12 21 16 12 21 16 12 20 15 11 21 16 12 22 17 13 21 16 12 22 17 13 24 19 15 23 18 14 22 17 13 21 16 12 21 16 12 21 16 12 21 16 12 23 18 15 22 17 13 21 16 12 21 16 12 21 16 12 22 17 13 22 17 13 22 17 14 24 16 13 23 15 12 20 15 11 21 16 12 20 15 12 19 14 11 20 15 12 20 15 12 21 16 13 20 15 12 20 15 12 19 14 11 
28 19 14 28 19 14 28 19 14 28 19 14 27 18 13 28 19 14 28 19 14 29 20 15 29 20 15 26 17 12 27 18 13 27 18 13 28 19 14 29 20 15 26 17 12 27 18 13 27 18 13 27 18 13 27 18 13 25 16 11 26 17 12 26 17 12 27 18 13 28 19 14 28 19 14 25 16 11 26 17 12 27 18 13 26 17 12 26 17 12 27 18 13 28 19 14 27 18 13 26 17 12 26 16 14 25 16 11 26 17 12 27 17 15 26 17 12 25 16 11 25 15 13 25 15 13 26 16 14 28 18 16 27 19 16 25 17 14 24 16 13 25 15 13 23 15 12 23 15 12 24 16 13 25 17 14 23 15 12 23 15 12 24 16 13 24 16 13 22 14 11 24 16 13 24 16 14 24 16 13 23 15 12 24 16 13 24 16 13 25 17 14 23 15 12 23 15 12 23 15 12 24 16 13 23 15 12 23 15 12 23 15 12 25 17 14 23 18 14 22 17 13 22 17 13 22 17 13 22 17 13 22 17 13 21 16 12 22 17 13 22 17 14 22 17 13 24 16 13 23 15 12 23 15 12 24 16 13 23 18 14 21 16 13 23 15 12 23 15 12 20 15 11 20 15 11 21 16 13 21 16 13 20 15 12 20 15 12 20 15 12 20 15 12 19 14 11 19 14 11 
28 17 13 29 18 14 29 18 14 29 18 14 28 17 13 29 18 14 29 18 14 29 18 14 30 21 16 27 18 13 27 18 13 28 19 14 29 20 15 28 19 14 27 18 13 28 19 14 28 19 14 29 20 15 27 18 13 26 17 12 27 18 13 26 17 12 27 18 13 28 19 14 28 19 14 28 19 14 27 18 13 28 19 14 28 19 14 27 18 13 27 18 13 28 19 14 27 18 13 26 17 12 26 16 14 26 17 12 27 18 13 28 18 16 26 17 12 25 16 11 23 16 10 24 15 10 25 16 11 27 18 13 26 18 15 25 17 14 24 16 13 25 17 14 24 16 13 24 16 13 24 16 13 25 17 14 25 17 14 25 17 14 26 18 15 24 16 13 25 17 14 25 17 14 25 18 12 24 16 13 24 16 13 24 16 13 24 16 13 24 16 13 24 16 13 23 15 12 23 15 12 24 16 13 22 17 13 21 16 12 21 16 12 22 17 13 23 18 14 21 16 12 21 16 12 22 17 13 24 19 15 22 17 13 22 17 13 22 17 13 24 16 13 23 15 12 22 17 13 23 18 15 22 17 14 22 17 13 23 15 12 24 16 13 23 15 12 22 14 11 20 15 11 20 15 11 21 16 13 21 16 13 22 17 14 21 16 13 22 17 14 21 16 13 20 15 12 21 16 13 
30 19 15 30 19 15 29 18 14 30 19 15 30 19 15 29 18 14 30 19 15 30 19 15 29 20 15 28 19 14 27 18 13 28 19 14 29 20 15 31 22 17 28 19 14 29 20 15 28 19 14 29 20 15 27 18 13 27 18 13 27 18 13 28 19 14 27 18 13 27 18 13 27 18 13 27 18 13 27 18 13 27 18 13 26 17 12 27 18 13 27 18 13 27 18 13 25 16 11 26 17 12 27 18 13 29 20 15 27 18 13 27 18 13 26 17 12 27 18 13 25 16 11 26 17 12 26 17 12 26 17 12 25 15 13 24 16 13 24 16 13 25 17 14 24 16 13 24 16 13 25 17 14 26 18 15 26 18 15 26 18 15 25 17 14 25 17 14 25 17 14 24 16 13 24 16 13 25 17 14 26 18 15 25 17 14 24 16 13 25 17 14 25 17 14 24 16 13 22 14 11 23 15 12 26 18 15 24 16 13 22 14 11 22 14 11 24 16 13 24 16 13 23 15 12 23 15 12 24 16 13 24 16 13 24 16 13 23 15 12 23 15 12 24 16 13 23 15 12 24 16 13 22 14 11 23 15 12 23 15 12 23 15 12 22 14 11 21 13 10 20 15 11 21 16 12 21 16 13 22 17 14 21 16 13 22 17 14 20 15 12 20 15 12 21 16 13 22 17 14 
30 19 15 29 18 14 29 18 14 29 18 14 30 19 15 29 18 14 29 18 14 29 18 14 28 19 14 29 20 15 29 20 15 28 19 14 28 19 14 29 20 15 29 20 15 29 20 15 28 19 14 29 20 15 28 19 14 27 18 13 28 19 14 29 20 15 27 18 13 27 18 13 27 18 13 27 18 13 27 18 13 27 18 13 26 17 12 26 17 12 27 18 13 26 17 12 25 16 11 26 17 12 28 19 14 28 19 12 28 19 12 27 18 13 27 18 13 26 17 12 26 17 12 27 18 13 27 18 13 27 18 13 25 15 13 26 16 14 26 16 14 25 17 14 24 16 13 25 17 14 25 17 14 26 18 15 26 18 15 25 17 14 25 17 14 24 16 13 25 17 14 25 17 14 24 16 13 25 17 14 25 17 14 25 18 12 23 15 12 24 16 13 24 16 13 24 16 13 23 15 12 24 16 13 25 17 14 25 17 14 22 14 11 23 15 12 24 16 13 23 15 12 24 16 13 23 15 12 23 15 12 24 16 13 23 15 12 22 14 11 23 15 12 24 16 13 23 15 12 24 16 13 23 15 12 23 15 12 22 17 13 21 16 12 23 15 12 23 15 12 21 16 12 22 17 13 21 16 13 22 17 14 21 16 13 21 16 13 20 15 12 20 15 12 20 15 12 22 17 14 
31 20 16 29 18 14 29 18 14 30 19 15 31 20 16 29 18 14 30 19 15 29 18 14 29 20 15 28 19 14 27 18 13 27 18 13 27 18 13 28 19 14 29 20 15 28 19 14 28 19 14 28 19 14 28 19 14 27 18 13 28 19 14 29 20 15 28 19 14 27 18 13 27 18 13 27 18 13 28 19 14 27 18 13 27 18 13 26 17 12 26 17 12 26 17 12 26 17 12 26 17 12 28 19 14 28 19 14 27 18 13 26 17 12 26 17 12 26 17 12 25 16 11 27 18 13 26 17 12 27 18 13 25 15 13 26 16 14 27 17 15 26 16 14 24 16 13 25 17 14 25 17 14 25 17 14 25 17 14 25 17 14 25 17 14 25 17 14 25 17 14 25 17 14 25 18 12 24 16 13 24 16 13 24 16 13 23 15 12 23 15 12 24 16 13 25 17 14 24 16 13 23 15 12 24 16 13 23 15 12 23 15 12 24 16 13 24 16 13 24 16 13 24 16 13 24 16 13 24 16 13 24 16 13 24 16 13 24 16 13 21 16 12 24 16 13 23 15 12 24 16 13 24 16 13 23 18 14 24 16 13 23 15 12 23 15 12 23 15 12 22 17 13 21 16 12 22 17 14 22 17 14 21 16 13 21 16 13 20 15 12 19 14 11 19 14 11 21 16 13 
31 20 16 30 19 15 29 18 14 30 19 15 31 20 16 29 20 15 29 18 14 28 19 14 29 18 14 28 17 13 29 18 14 27 18 13 27 18 13 26 17 12 28 19 14 27 18 13 27 18 13 27 18 13 28 19 14 28 19 14 28 19 14 28 19 14 27 18 13 29 20 15 29 18 14 28 19 14 27 18 13 27 18 13 26 17 12 26 17 12 27 18 13 26 17 12 26 17 12 26 17 12 26 17 12 26 17 12 27 18 13 27 18 13 27 18 13 27 18 13 27 18 13 25 16 11 26 16 14 26 16 14 25 15 13 26 16 14 27 17 15 26 17 12 25 17 14 24 16 13 26 18 15 24 16 13 25 17 14 24 16 13 26 18 15 25 17 14 24 16 13 24 16 13 24 16 13 24 17 11 24 17 11 23 15 12 22 14 11 23 15 12 25 17 14 24 16 13 24 16 13 24 16 13 25 15 13 24 16 13 25 17 14 22 17 13 22 14 11 22 14 11 24 16 13 24 16 13 25 17 14 26 18 15 24 16 13 24 16 13 24 16 13 24 16 13 25 17 14 25 17 14 24 16 13 24 16 13 21 16 12 20 15 11 23 15 12 23 15 12 20 15 11 23 15 12 22 17 13 23 15 12 21 16 13 22 17 14 19 14 11 20 15 12 19 14 11 20 15 12 
29 18 14 29 18 14 29 18 14 28 17 13 29 20 15 29 18 14 28 19 14 27 18 13 27 18 13 27 18 13 28 19 14 28 19 14 29 18 14 28 17 13 28 17 13 28 17 13 27 18 13 26 17 12 28 19 14 29 20 15 28 19 14 26 17 12 27 18 13 27 18 13 29 18 14 26 17 12 26 17 12 27 18 13 28 19 14 26 17 12 27 18 13 28 19 14 27 18 13 27 18 13 26 17 12 27 18 13 27 18 13 26 17 12 27 18 13 27 18 13 27 17 15 26 17 12 26 16 14 27 18 13 26 17 10 26 16 14 27 17 15 26 16 14 26 16 14 27 19 16 28 20 17 25 17 14 24 16 13 25 17 14 25 17 14 24 16 13 25 17 14 25 17 14 25 17 14 25 17 14 25 17 14 24 16 13 24 16 13 24 16 13 24 16 13 24 16 13 24 16 13 24 16 13 25 17 14 25 17 14 25 17 14 23 15 12 23 15 12 24 16 13 24 16 13 24 16 13 25 17 14 24 16 13 25 17 14 25 17 14 25 17 14 25 17 14 24 16 13 24 16 14 24 16 14 23 15 12 21 16 12 19 14 10 23 15 12 23 15 12 20 15 11 23 15 12 21 16 12 23 15 12 21 16 13 22 17 14 22 17 14 20 15 12 20 15 12 19 14 11 
29 18 14 29 18 14 28 17 13 29 18 14 31 20 16 29 18 14 27 18 13 28 19 14 27 18 13 27 18 13 27 18 13 30 19 15 28 17 13 29 18 14 29 18 14 30 19 15 28 19 14 28 19 14 27 18 13 28 19 14 28 19 14 27 18 13 29 20 15 28 19 14 29 18 14 28 19 14 27 18 13 26 17 12 27 18 13 27 18 13 27 18 13 28 19 14 28 19 14 27 18 13 27 18 13 27 18 13 27 18 13 26 17 12 26 17 12 27 18 13 27 18 13 26 17 12 26 16 14 26 16 14 25 15 14 25 16 11 26 16 14 27 18 13 27 17 15 27 17 15 29 19 17 25 17 14 23 15 12 24 16 13 25 17 14 25 17 14 25 17 14 25 17 14 24 17 11 25 17 14 25 17 14 25 18 12 25 17 14 24 16 13 23 15 12 24 16 13 24 16 13 24 16 13 25 17 14 26 18 15 25 17 14 23 15 12 23 15 12 25 17 14 25 17 14 24 16 13 23 15 12 24 16 13 24 16 13 25 17 14 24 16 13 25 17 14 23 15 12 24 16 13 23 15 12 24 16 13 21 16 12 21 16 12 22 14 11 24 16 13 21 16 12 20 15 11 21 16 12 22 14 11 21 16 13 21 16 13 22 17 14 20 15 12 20 15 12 20 15 12 
30 19 15 29 18 14 30 19 15 30 19 15 32 18 15 28 19 14 29 18 14 28 19 14 29 18 14 28 17 13 28 17 13 30 19 15 29 18 14 28 19 14 28 19 14 29 20 15 31 20 16 30 19 15 29 18 14 28 19 14 29 20 15 28 19 14 29 20 15 27 18 13 30 19 15 28 19 14 27 18 13 28 19 14 26 17 12 27 18 13 27 18 13 29 20 15 27 18 13 28 19 14 27 18 13 27 18 13 27 18 13 27 18 13 27 18 13 27 18 13 27 17 15 27 18 13 26 17 12 26 17 12 26 17 12 26 17 12 27 17 15 26 16 14 27 17 15 27 17 15 27 17 15 26 16 14 24 16 13 25 17 14 25 17 14 27 17 15 25 17 14 25 17 14 24 16 13 24 16 13 25 17 14 25 17 14 25 17 14 25 17 14 24 16 13 24 16 13 24 16 13 24 16 13 24 16 13 25 17 14 25 17 14 24 16 13 23 15 12 25 17 14 25 17 14 23 15 12 23 15 12 23 15 12 24 16 13 24 16 13 24 16 13 25 17 14 23 15 12 24 16 13 24 16 13 24 16 13 22 17 13 21 16 12 23 15 12 22 17 13 21 16 12 21 16 12 21 16 12 22 17 13 21 16 13 21 16 13 21 16 13 20 15 12 20 15 12 20 15 12 
29 18 12 29 18 12 29 18 12 28 17 11 30 19 15 29 18 14 28 17 13 29 18 14 30 19 15 28 17 13 28 17 13 29 18 14 31 20 16 29 18 14 29 18 14 29 20 15 30 19 15 29 18 14 29 18 14 29 18 14 28 19 14 28 19 14 27 18 13 27 18 13 29 18 14 27 18 13 27 18 13 27 18 13 27 18 13 28 19 14 28 19 14 28 19 14 27 18 13 27 18 13 27 18 13 27 18 13 27 18 13 26 17 12 27 18 13 27 18 13 27 18 13 28 19 14 26 16 14 26 17 12 27 18 13 27 18 13 27 17 15 27 17 15 26 18 15 27 17 15 26 16 14 26 16 14 25 17 14 26 18 15 26 18 15 26 18 15 26 18 15 25 17 14 24 16 13 24 16 13 25 17 14 25 17 14 24 16 13 25 17 14 25 17 14 24 16 13 24 16 13 24 16 13 24 16 13 25 17 14 25 17 14 22 17 13 25 17 14 25 17 14 24 16 13 24 16 13 24 16 13 24 16 13 24 16 13 24 16 13 25 17 14 24 16 13 24 16 13 25 17 14 25 17 14 25 17 14 21 16 12 21 16 12 21 16 12 22 17 13 20 15 11 21 16 12 22 17 13 21 16 12 21 16 13 21 16 13 21 16 13 19 14 11 20 15 12 21 16 13 
29 18 12 31 20 14 31 20 14 30 19 13 30 19 15 31 20 16 29 18 14 30 19 15 30 19 15 30 19 15 30 19 15 30 19 15 30 19 15 30 19 15 30 19 15 30 19 15 29 18 14 29 18 14 30 19 15 28 17 13 28 17 13 28 19 14 27 18 13 28 19 14 29 18 14 27 18 13 29 20 15 29 20 15 28 19 14 27 18 13 27 18 13 25 16 11 27 18 13 28 19 14 28 19 14 27 18 13 26 17 12 27 18 13 27 18 13 27 18 13 27 18 13 27 18 13 27 18 13 26 17 12 26 16 14 26 17 12 26 16 14 27 18 13 27 17 15 27 17 15 25 15 13 26 16 14 26 16 14 25 17 14 25 17 14 26 18 15 27 19 16 25 18 12 24 16 13 25 17 14 25 17 14 25 17 14 25 18 12 25 17 14 26 16 14 25 17 14 24 16 13 24 16 13 25 17 14 26 18 15 24 16 13 21 16 12 24 16 13 25 17 14 24 16 13 24 16 13 24 16 13 23 15 12 23 15 12 23 15 12 23 15 12 24 16 13 24 16 13 25 17 14 25 17 14 26 18 15 21 16 12 21 16 12 22 17 13 21 16 12 21 16 12 21 16 12 22 17 13 21 16 12 21 16 13 21 16 13 21 16 13 20 15 12 21 16 13 21 16 13 
31 20 14 31 20 14 31 20 14 31 20 14 30 19 15 30 19 15 30 19 15 29 18 14 30 19 15 31 20 16 31 20 16 30 19 15 29 18 14 30 19 15 31 20 16 31 20 16 30 19 15 31 20 16 31 20 16 29 18 14 27 16 12 28 19 14 27 18 13 28 19 14 29 18 14 28 19 14 28 19 14 28 19 14 27 18 13 27 18 13 28 19 14 27 18 13 27 18 13 28 19 14 27 18 13 27 18 13 27 18 13 26 17 12 27 18 13 27 18 13 27 18 13 27 18 13 27 18 13 27 18 13 27 18 13 26 17 12 26 17 12 26 16 14 27 18 13 27 18 13 25 16 11 26 17 12 24 15 10 26 17 12 25 16 11 25 18 12 26 18 15 25 17 14 25 17 14 26 18 15 26 18 15 26 18 15 26 18 15 25 17 14 26 16 14 25 17 14 24 16 13 24 16 13 25 17 14 25 17 14 24 16 13 24 16 13 24 16 13 26 18 15 25 17 14 25 17 14 25 17 14 23 15 12 24 16 13 23 15 12 24 17 11 24 16 13 24 16 13 24 16 13 25 17 14 24 16 13 21 16 12 21 16 10 21 16 12 21 16 12 20 15 11 22 17 13 22 17 13 21 16 12 21 16 13 21 16 13 21 16 13 21 16 13 20 15 12 21 16 13 
30 19 13 32 21 15 31 20 14 31 20 14 29 18 14 30 19 15 31 20 16 29 18 14 31 17 14 30 19 15 31 20 16 30 19 15 31 20 16 30 19 15 30 19 15 30 19 15 29 18 14 31 20 16 29 18 14 28 17 13 28 17 13 28 19 14 27 18 13 29 20 15 29 18 14 28 19 14 28 19 14 28 19 14 28 19 14 27 18 13 27 18 13 27 18 13 27 18 13 27 18 13 27 18 13 27 18 13 26 17 12 26 17 12 27 18 13 27 18 13 27 18 13 27 18 11 27 18 13 26 17 12 26 16 14 26 17 12 25 16 11 25 16 11 26 17 12 26 17 12 26 17 12 25 16 11 26 17 12 26 17 12 25 16 11 26 17 12 25 18 12 25 17 14 25 17 14 26 18 15 26 18 15 26 18 15 25 17 14 24 17 11 26 18 15 25 17 14 24 16 13 24 16 13 24 16 13 24 16 13 24 16 13 26 18 15 26 18 15 26 18 15 25 17 14 25 17 14 25 17 14 24 16 13 23 15 12 23 15 12 25 17 14 25 17 14 24 16 13 23 15 12 24 16 13 23 15 12 20 15 11 21 16 12 21 16 12 21 16 12 21 16 12 22 17 13 22 17 13 22 17 13 22 17 14 21 16 13 21 16 13 20 15 12 20 15 12 21 16 13 
29 18 14 30 19 13 30 19 13 31 20 14 30 19 13 30 19 13 32 21 15 30 19 15 29 18 12 29 18 14 30 19 13 29 18 14 31 20 16 30 19 13 30 19 15 30 19 15 29 18 14 30 19 15 30 19 15 28 17 13 29 18 14 29 18 14 28 17 13 29 18 14 28 19 14 28 19 14 27 18 13 27 18 13 27 18 13 28 19 14 28 19 14 28 19 14 26 17 12 26 17 12 26 17 12 28 19 14 28 19 14 27 18 13 26 17 12 27 18 13 27 18 13 27 18 13 26 17 12 27 18 13 26 17 12 26 17 12 25 16 11 25 16 11 25 16 11 26 17 12 25 15 13 26 17 12 26 17 12 26 16 14 25 15 13 25 15 13 25 15 13 26 16 14 27 17 15 26 18 15 25 17 14 25 17 14 25 17 14 27 17 15 24 16 13 25 17 14 25 17 14 24 16 13 24 16 13 24 16 13 24 16 13 25 17 14 24 16 13 24 16 13 25 17 14 23 15 12 24 16 13 23 15 12 24 16 13 24 16 13 24 16 13 25 17 14 25 17 14 24 16 13 23 18 14 24 16 13 22 17 13 21 16 12 23 15 12 21 16 12 21 16 12 20 17 12 22 17 13 22 17 13 21 16 12 21 16 12 22 17 14 20 15 12 20 15 12 20 15 12 
29 18 14 29 18 12 30 19 13 31 20 14 30 19 13 30 19 13 31 20 14 30 19 15 30 19 13 30 19 15 30 19 13 31 20 16 30 19 15 30 19 13 30 19 15 30 19 15 31 20 16 31 20 16 29 18 14 28 17 13 30 19 15 30 19 15 30 19 15 29 18 14 27 18 13 27 18 13 28 19 14 26 17 12 26 17 12 27 18 13 27 18 13 28 19 14 26 17 12 26 17 12 27 18 13 28 19 14 28 19 14 26 17 12 26 17 12 27 18 13 27 18 13 26 17 12 26 17 12 26 17 12 26 17 12 26 17 12 27 18 13 25 16 11 26 17 12 26 17 10 26 16 14 27 17 15 26 16 14 27 17 15 25 15 13 25 16 11 25 15 13 26 16 14 25 17 14 25 17 14 25 17 14 25 17 14 25 17 14 26 18 15 25 17 14 25 17 14 25 17 14 25 17 14 24 16 13 24 16 13 25 17 14 24 16 13 25 17 14 25 17 14 23 15 12 23 15 12 23 15 12 25 17 14 24 16 13 23 15 12 25 17 14 24 16 13 24 16 13 21 16 12 23 15 12 23 15 12 23 15 12 20 17 12 21 16 12 22 17 13 24 16 13 21 16 12 22 17 13 21 16 12 21 16 12 20 15 11 21 16 13 21 16 13 21 16 13 20 15 12 
30 19 15 30 19 13 31 20 14 31 20 14 30 19 13 30 19 13 31 20 14 31 20 16 30 19 13 31 20 16 31 20 14 29 18 14 28 17 13 29 18 12 30 19 15 30 19 15 30 19 15 30 19 15 30 19 15 30 19 15 29 18 14 30 19 15 31 20 16 29 20 15 28 19 14 27 18 13 28 19 14 28 19 14 27 18 13 27 18 13 27 18 13 27 18 13 27 18 13 27 18 13 28 19 14 27 18 13 27 18 13 27 18 13 27 18 13 27 18 13 26 17 12 26 17 12 26 17 12 26 17 12 26 17 12 26 17 12 27 18 13 27 18 13 27 18 11 25 15 13 26 17 12 27 18 13 26 16 14 27 17 15 26 17 12 25 15 13 26 16 14 27 17 15 26 18 15 27 17 15 25 17 14 25 15 13 24 16 13 25 17 14 25 17 14 24 16 13 25 17 14 25 17 14 24 16 13 24 16 13 25 17 14 22 14 11 24 16 13 25 17 14 25 17 14 23 15 12 24 16 13 26 18 15 24 16 13 24 16 13 24 16 13 22 17 13 24 16 13 24 16 13 23 15 12 19 16 11 20 15 11 23 15 12 25 17 14 22 17 13 20 15 11 20 17 12 21 16 12 21 16 12 22 17 13 21 16 12 21 16 13 21 16 13 21 16 13 21 16 13 
32 21 17 31 20 14 30 19 13 30 19 13 30 19 13 30 19 13 30 19 13 30 19 15 32 21 15 31 20 16 29 18 12 31 20 16 30 19 15 30 19 13 30 19 15 30 19 15 31 20 16 31 20 16 31 20 16 30 19 15 31 20 16 30 19 15 30 21 16 28 19 14 29 20 15 28 19 14 29 20 15 29 20 15 29 20 15 28 19 14 28 19 14 27 18 13 28 19 14 28 19 14 27 18 13 27 18 13 26 17 12 27 18 13 27 18 13 27 18 13 27 18 13 26 17 12 26 17 12 26 17 12 26 17 12 26 17 12 27 18 13 27 18 13 26 17 12 25 15 13 27 18 13 27 18 13 27 18 13 27 18 13 26 16 14 27 17 15 26 16 14 27 17 15 27 17 15 26 16 14 25 15 13 24 16 13 25 17 14 25 17 14 25 17 14 25 17 14 25 17 14 24 16 13 24 16 13 25 17 14 25 17 14 25 17 14 24 16 13 24 16 13 24 16 13 24 16 13 24 16 13 24 16 13 23 15 12 24 16 13 24 16 13 24 16 13 24 16 13 25 17 14 25 17 14 22 17 13 20 15 11 23 15 12 23 15 12 22 17 13 21 16 12 21 16 12 23 15 12 22 17 13 22 17 13 20 15 11 21 16 13 20 15 12 21 16 13 21 16 13 
31 20 16 31 20 14 30 19 13 30 19 13 31 20 14 31 20 14 30 19 13 31 20 16 31 20 14 31 20 16 30 19 13 30 19 15 30 19 15 31 20 14 30 19 15 31 20 16 30 19 13 30 19 13 32 21 15 31 20 14 29 18 14 29 18 14 28 19 14 29 20 15 29 20 15 28 19 14 28 19 14 29 20 15 28 19 14 28 19 14 28 19 14 27 18 13 27 18 13 28 19 14 28 19 14 27 18 13 26 17 12 27 18 13 27 18 13 28 19 14 27 18 13 27 18 13 26 17 12 26 17 12 26 17 12 26 17 12 26 17 12 27 18 13 27 18 13 26 17 12 26 17 12 27 17 15 26 16 14 26 17 12 25 15 13 26 17 12 26 17 12 27 18 13 26 19 13 25 18 12 24 16 13 25 17 14 25 17 14 25 17 14 25 17 14 25 17 14 25 17 14 24 16 13 24 16 13 25 17 14 25 17 14 25 17 14 24 16 13 24 16 13 24 16 13 24 16 13 24 16 13 24 16 13 23 15 12 24 16 13 24 16 13 23 15 12 23 15 12 24 16 13 22 17 13 24 16 13 22 14 11 22 14 11 23 15 12 22 14 11 24 16 13 22 17 13 22 17 13 21 16 12 21 16 12 20 15 11 20 15 12 18 13 10 20 15 12 22 17 14 
30 19 15 31 20 14 30 19 13 30 19 13 30 19 13 30 19 13 29 18 12 31 20 16 31 20 14 30 19 15 30 19 13 30 19 15 31 20 16 30 19 13 30 19 15 30 19 15 30 19 13 30 19 13 30 19 13 29 18 12 30 19 15 28 17 13 28 17 13 28 19 14 29 20 15 28 19 14 27 18 13 27 18 13 28 19 14 27 18 13 28 19 14 27 18 13 27 18 13 28 19 14 28 19 14 27 18 13 27 18 13 27 18 13 28 19 14 27 18 13 27 18 13 26 17 12 26 17 12 27 18 13 25 16 11 26 17 12 27 18 13 27 18 13 26 17 12 25 16 11 27 18 13 28 18 16 27 18 13 26 17 12 25 15 13 25 16 11 25 18 12 26 17 12 27 16 12 26 17 12 25 17 14 26 18 15 26 18 15 26 16 14 24 16 13 24 16 13 23 15 12 23 15 12 24 16 13 25 17 14 25 17 14 25 17 14 25 17 14 24 16 13 24 16 13 24 16 13 23 15 12 24 16 13 22 14 11 23 15 12 24 16 13 23 15 12 23 15 12 24 16 13 24 16 13 24 16 13 24 16 13 23 15 12 24 16 13 24 16 13 22 17 13 21 16 12 21 16 12 21 16 12 20 15 11 19 14 10 18 13 10 20 15 12 21 16 13 20 15 12 
