P3
100 50
255
56 59 66 56 59 66 55 58 65 57 60 67 56 59 66 57 60 67 58 61 68 58 61 68 59 62 69 59 62 69 59 62 69 59 62 69 58 61 68 61 64 71 60 63 70 60 63 70 60 63 70 61 64 71 61 64 71 60 63 70 61 64 71 62 65 72 62 65 72 61 64 71 61 64 71 60 63 70 60 63 70 59 62 69 61 64 71 60 63 70 60 63 70 60 63 70 59 62 69 57 60 67 58 61 68 57 60 67 57 60 67 58 61 68 57 60 67 57 60 67 57 60 67 58 61 68 59 62 69 59 62 69 58 61 68 58 61 68 58 61 68 58 61 68 57 60 67 56 59 66 58 61 68 57 60 67 57 60 67 55 58 65 56 59 66 59 62 69 57 60 67 55 58 65 56 59 66 58 61 68 58 63 69 58 61 68 57 60 67 54 57 64 57 60 67 58 61 68 59 62 69 56 61 67 56 59 66 58 61 68 57 60 67 57 60 67 56 59 66 57 60 67 55 58 65 56 59 66 55 58 65 55 58 65 55 58 65 56 59 66 56 59 66 57 60 67 57 60 67 57 60 67 55 58 65 56 59 66 55 58 65 55 58 65 55 58 65 55 58 65 55 58 65 55 58 65 56 59 66 56 59 66 56 59 66 56 59 66 56 59 66 56 59 66 57 60 67 56 59 66 
56 59 66 57 60 67 58 61 68 57 60 67 57 60 67 60 63 70 59 62 69 60 63 70 60 63 70 61 64 71 59 62 69 60 63 70 59 62 69 62 65 72 62 65 72 61 64 71 60 65 71 60 65 71 61 64 71 61 64 71 60 65 71 60 65 71 61 64 71 60 63 70 60 63 70 59 62 69 57 62 68 56 61 67 59 62 69 61 64 71 60 65 71 58 63 69 57 62 68 57 62 68 59 62 69 58 61 68 59 62 69 61 64 71 59 62 69 58 61 68 57 60 67 59 62 69 58 61 68 57 60 67 57 60 67 55 60 66 57 60 67 56 61 67 57 60 67 56 59 66 58 61 68 58 61 68 58 61 68 58 61 68 58 61 68 60 63 70 58 61 68 56 59 66 56 59 66 59 62 69 60 63 70 58 63 69 58 61 68 54 57 64 56 59 66 58 61 68 59 64 70 56 59 66 55 58 65 56 59 66 57 60 67 55 58 65 57 60 67 54 57 64 55 58 65 55 58 65 55 58 65 54 57 64 54 57 64 55 58 65 57 60 67 56 59 66 55 58 65 56 59 66 56 59 66 57 60 67 57 60 67 56 59 66 56 59 66 56 59 66 56 59 66 55 58 65 54 57 64 56 59 66 57 60 67 55 58 65 54 57 64 54 57 64 55 58 65 55 58 65 
57 60 67 57 60 67 57 60 67 58 61 68 57 60 67 60 63 70 60 63 70 60 63 70 61 64 71 61 64 71 60 63 70 60 63 70 60 63 70 61 64 71 62 65 72 62 65 72 60 65 71 60 65 71 59 64 70 61 64 71 61 64 71 61 64 71 60 63 70 60 63 70 60 63 70 58 61 68 58 61 68 57 60 67 58 61 68 59 62 69 58 63 69 57 62 68 57 62 68 57 62 68 58 61 68 59 62 69 57 60 67 59 62 69 59 62 69 58 61 68 57 60 67 59 62 69 57 60 67 57 60 67 55 60 66 56 59 66 56 61 67 57 60 67 56 61 67 55 58 65 57 60 67 57 60 67 57 60 67 57 60 67 56 59 66 58 61 68 58 61 68 57 60 67 56 59 66 60 63 70 61 64 71 59 62 69 58 61 68 54 59 65 56 61 67 57 60 67 57 60 67 56 59 66 55 58 65 54 57 64 55 58 65 55 58 65 56 59 66 55 58 65 54 57 64 54 57 64 55 58 65 53 56 63 54 57 64 55 58 65 56 59 66 57 60 67 55 58 65 55 58 65 57 60 67 58 61 68 58 61 68 56 59 66 55 58 65 56 59 66 56 59 66 54 57 64 55 58 65 56 59 66 57 60 67 55 58 65 55 58 65 54 57 64 55 58 65 54 57 64 
56 59 64 57 60 65 58 61 68 57 60 67 59 62 69 59 62 69 59 62 69 60 63 70 60 63 70 62 65 72 60 63 70 61 64 71 60 63 70 61 64 71 61 64 71 59 64 70 59 64 70 58 63 69 59 64 70 61 64 71 59 64 70 59 64 70 60 63 70 60 63 70 61 64 71 59 62 69 56 61 67 56 61 67 59 62 69 59 62 69 57 62 68 57 62 68 58 63 69 58 63 69 57 60 67 58 61 68 57 60 67 58 61 68 58 61 68 56 59 66 57 60 67 56 59 66 56 59 66 56 59 66 55 60 66 56 61 67 57 60 67 55 60 66 56 59 66 55 58 65 56 59 66 58 61 68 59 62 69 57 60 67 57 60 67 59 62 69 58 61 68 56 59 66 56 59 66 58 61 68 61 61 69 59 62 69 56 61 67 56 59 66 56 59 66 55 60 66 57 60 67 58 58 66 56 59 66 55 58 65 56 59 66 54 57 64 55 58 65 55 58 65 55 58 65 55 58 65 54 57 64 53 56 63 55 58 65 55 58 65 56 59 66 55 58 65 55 58 65 55 58 65 56 59 66 57 60 67 57 60 67 56 59 66 56 59 66 55 58 65 56 59 66 55 58 65 55 58 65 56 59 66 56 59 66 55 58 65 54 57 64 54 57 64 54 57 64 55 58 65 
56 59 66 57 60 67 58 61 68 58 61 68 57 60 67 58 61 68 58 61 68 60 63 70 61 64 71 61 64 71 61 64 71 61 64 71 60 63 70 60 63 70 60 63 70 60 63 70 59 64 70 60 65 71 59 64 70 60 65 71 61 64 71 60 65 71 60 65 71 61 64 71 60 63 70 58 63 69 58 61 68 59 62 69 59 62 69 57 62 68 57 60 67 59 62 69 60 63 70 59 62 69 56 61 67 57 60 67 59 62 69 58 61 68 57 60 67 56 59 66 56 59 66 55 58 65 53 56 63 55 58 65 56 59 66 57 60 67 55 60 66 57 60 67 55 60 66 56 59 66 57 60 67 58 61 68 58 61 68 57 60 67 57 60 67 60 63 70 57 60 67 56 59 66 58 61 66 58 63 67 58 61 66 58 61 66 57 60 67 56 59 66 57 60 67 56 61 67 56 59 66 56 59 66 57 60 67 56 59 66 55 60 66 54 59 65 54 59 65 55 58 65 57 60 67 55 58 65 54 57 64 54 57 64 55 58 65 55 60 66 55 60 66 55 58 65 56 59 66 56 59 66 56 59 66 57 57 65 60 60 68 56 59 66 55 58 65 55 58 65 55 58 65 53 56 63 55 58 65 55 58 65 55 58 65 54 57 62 55 58 65 55 58 65 55 58 65 54 57 64 
57 60 67 57 60 67 59 62 69 59 62 69 58 61 68 57 60 67 58 61 68 59 62 69 59 62 69 60 63 70 61 64 71 61 64 71 61 64 71 59 62 69 59 62 69 58 63 69 58 63 69 60 65 71 60 63 70 62 62 70 61 64 71 59 64 70 62 65 72 59 62 69 57 62 68 58 61 68 59 62 69 59 64 70 59 62 69 58 61 68 58 61 68 58 61 68 59 62 69 57 60 67 56 59 66 56 59 66 57 60 67 57 60 67 58 61 68 57 60 67 55 60 66 54 59 65 54 59 65 55 60 66 58 61 68 57 60 67 55 58 65 56 59 66 56 59 66 57 60 67 57 60 67 59 62 69 58 61 68 57 62 68 57 60 67 58 61 68 57 60 67 52 59 65 56 61 65 56 61 65 56 61 67 56 61 67 54 59 65 55 58 65 55 58 65 56 59 66 55 58 63 56 59 64 58 61 68 55 60 66 57 57 65 57 60 67 56 59 66 54 59 65 53 56 63 54 57 64 54 57 64 51 54 61 51 54 61 55 58 65 55 58 65 56 59 66 55 58 65 55 58 65 56 59 66 58 58 66 58 58 66 54 57 64 55 58 65 55 58 65 53 56 63 53 56 63 54 57 64 54 57 64 54 57 62 54 57 64 55 58 65 55 58 65 54 57 62 54 57 64 
58 61 68 59 62 69 59 62 69 61 64 71 59 62 69 57 60 67 58 61 68 59 62 69 61 64 71 60 63 70 61 64 71 59 62 69 59 62 69 58 61 68 58 61 68 58 61 68 59 62 69 60 63 70 59 62 69 59 64 70 61 64 71 60 63 70 59 64 70 58 61 68 58 61 68 56 61 67 57 60 67 59 64 70 60 63 70 59 62 69 59 62 69 58 61 68 58 61 68 57 60 67 57 60 67 56 59 66 55 58 65 57 60 67 56 59 66 55 60 66 56 59 66 55 58 65 55 60 66 57 60 67 57 60 67 54 59 65 55 58 65 54 59 65 56 59 66 57 62 68 56 59 66 56 59 66 57 60 67 56 59 66 56 59 66 55 60 66 54 59 65 54 59 65 54 59 63 51 59 62 53 58 64 52 59 65 54 59 65 53 56 63 54 59 65 55 58 65 56 59 64 55 58 63 57 62 68 56 59 66 53 58 64 54 57 64 53 58 64 54 57 64 53 58 64 53 58 64 53 56 63 53 56 63 53 58 64 54 57 64 55 58 65 54 59 65 55 58 65 55 58 65 56 59 66 56 59 66 54 57 64 53 56 63 54 57 64 54 57 64 53 56 63 55 58 65 55 58 65 53 56 63 52 55 60 54 57 64 55 58 65 55 58 65 54 57 64 53 56 63 
59 62 69 60 63 70 60 63 70 61 64 71 59 62 69 57 60 67 57 62 68 58 63 69 61 64 71 61 64 71 59 62 69 59 64 70 60 63 70 58 61 68 58 61 68 57 60 67 59 62 69 59 62 69 59 62 69 59 62 69 61 64 71 61 66 72 58 63 69 58 61 68 58 61 68 57 62 68 58 61 68 59 62 69 60 63 70 59 62 69 58 63 69 58 61 68 57 60 67 55 60 66 56 59 66 56 59 66 55 58 65 57 60 67 56 59 66 56 59 66 56 59 66 55 58 65 55 58 65 55 58 65 57 60 67 56 59 66 56 59 66 55 60 66 56 59 66 57 60 67 57 60 67 57 60 67 59 59 67 57 60 67 56 59 66 55 58 65 56 59 66 55 60 66 55 60 64 53 58 62 52 57 61 54 59 63 54 59 65 54 57 64 54 59 65 54 59 65 55 58 65 57 57 65 57 57 65 55 60 66 54 59 65 52 55 62 54 57 64 53 58 64 53 56 63 53 56 63 54 57 64 54 57 64 54 57 64 54 59 65 55 60 66 55 58 65 54 57 64 54 57 64 56 59 66 56 59 66 53 56 63 53 56 63 54 57 64 53 56 63 54 57 64 53 56 63 54 57 64 54 57 64 53 56 63 54 57 62 54 57 64 54 57 64 53 56 63 52 55 62 
59 62 69 61 64 71 60 63 70 61 64 71 60 63 70 59 62 69 59 62 69 60 63 70 62 65 72 61 64 71 60 63 70 59 62 69 60 63 70 59 62 69 58 61 68 58 61 68 57 60 67 58 61 68 59 62 69 60 63 70 59 64 70 60 63 70 59 62 69 58 63 69 59 62 69 57 60 67 56 61 67 56 59 66 57 60 67 59 62 69 58 63 69 57 60 67 56 59 66 55 60 66 56 59 66 56 59 66 54 57 64 56 59 66 56 59 66 55 58 65 55 60 66 55 60 66 54 59 65 55 60 66 55 58 65 56 59 66 57 60 67 57 60 67 56 61 67 57 60 67 57 60 67 57 60 67 57 60 67 58 61 68 57 60 67 56 59 66 54 59 65 55 60 66 55 60 64 55 60 64 55 60 64 55 58 63 53 58 64 52 57 63 55 58 65 56 59 66 56 59 66 54 59 65 54 57 64 55 58 65 54 57 64 54 57 64 54 59 65 55 58 65 54 57 64 56 56 64 53 56 63 55 58 65 55 58 65 55 58 65 54 57 64 54 57 64 54 57 64 54 57 64 53 56 63 53 56 63 55 58 65 55 58 65 56 59 66 55 58 65 55 58 65 55 58 65 53 56 63 53 56 63 53 56 63 51 54 61 54 57 64 53 56 63 54 57 64 55 58 65 
59 62 69 59 62 69 60 63 70 61 64 71 59 62 69 59 62 69 60 63 70 60 63 70 58 61 68 60 63 70 60 63 70 60 63 70 59 62 69 58 61 68 58 61 68 58 61 68 57 60 67 57 60 67 59 62 69 58 63 69 60 63 70 60 63 70 59 64 70 59 62 69 59 64 70 59 62 69 58 61 68 56 61 67 58 61 68 59 62 69 59 62 69 58 61 68 56 59 66 56 59 66 55 58 65 56 59 66 56 59 66 55 58 65 54 57 64 53 58 64 56 59 66 57 60 67 55 60 66 53 58 64 54 57 64 56 59 66 57 62 68 57 60 67 56 61 67 56 59 66 55 60 66 57 60 67 57 60 67 56 61 67 57 62 68 57 62 68 55 60 66 53 58 64 54 59 63 56 61 65 56 61 67 54 59 65 53 58 64 54 59 65 52 55 62 51 56 62 50 55 59 52 55 60 54 57 64 53 56 63 52 57 63 54 57 64 54 57 64 55 58 65 54 59 65 55 55 63 52 55 62 53 56 63 54 57 64 53 56 63 53 56 63 53 56 63 53 56 63 53 56 63 53 56 63 54 57 64 53 56 63 55 58 65 55 58 65 55 58 65 54 57 64 53 56 63 54 57 64 54 57 64 54 57 62 53 56 63 52 55 62 51 54 61 51 54 61 55 58 65 
59 64 70 58 63 69 58 63 69 60 65 71 59 64 70 59 64 70 60 65 71 59 64 70 59 64 70 58 63 69 60 65 71 58 63 69 59 64 70 57 62 68 56 61 67 59 62 69 58 61 68 59 62 69 59 62 69 57 60 67 58 61 68 59 62 69 59 64 70 60 63 70 60 63 70 57 62 68 56 61 67 58 61 68 58 61 68 58 61 68 58 61 68 57 60 67 55 58 65 56 59 66 56 59 66 56 59 66 54 57 64 53 58 64 53 56 63 54 57 64 55 60 66 57 60 67 55 60 66 55 58 65 55 58 65 56 59 66 58 61 68 59 62 69 58 61 68 56 59 66 57 60 67 56 59 66 55 58 65 56 61 67 56 61 67 55 60 66 53 58 64 53 58 64 53 58 62 53 58 62 53 58 64 53 58 64 53 58 64 53 58 64 51 56 62 51 56 62 51 56 60 52 55 60 53 56 63 53 56 63 53 56 63 52 55 62 54 57 64 57 60 67 56 59 66 54 57 64 55 58 65 52 57 63 52 55 62 53 56 63 55 58 65 53 56 63 51 56 62 54 57 64 55 58 65 53 58 64 52 57 63 53 56 63 54 57 64 54 57 64 53 56 63 52 55 62 54 57 64 53 56 63 53 56 63 55 58 65 53 56 63 52 55 62 51 54 61 54 57 62 
59 64 70 58 63 69 59 64 70 59 64 70 59 64 70 59 64 70 60 65 71 59 64 70 60 65 71 59 64 70 59 64 70 58 63 69 57 62 68 57 62 68 57 62 68 58 63 69 58 61 68 59 62 69 58 61 68 59 62 69 57 62 68 59 62 69 58 61 68 58 63 69 59 62 69 56 61 67 58 61 68 56 59 66 58 61 68 57 62 68 58 61 68 57 60 67 55 58 65 55 58 65 55 60 66 56 59 66 55 58 65 55 58 65 54 57 64 54 57 64 56 59 66 55 60 66 54 59 65 55 60 66 54 57 64 56 59 66 57 60 67 55 60 66 57 60 67 56 61 67 57 60 67 56 59 66 56 59 66 55 58 65 56 59 66 52 57 63 53 58 64 53 58 64 55 58 63 52 57 61 53 58 62 54 59 63 51 58 64 51 56 62 52 57 63 52 57 63 53 58 64 52 57 63 52 57 63 53 56 63 52 57 63 53 56 63 53 58 64 55 58 65 54 59 65 54 57 64 53 58 64 53 56 63 51 56 62 53 58 64 53 58 64 53 58 64 54 57 64 53 58 64 52 55 62 51 56 62 51 56 62 53 56 63 53 56 63 53 56 63 52 55 62 53 56 63 53 56 63 53 56 61 52 55 62 54 57 64 54 57 64 54 57 64 54 57 64 53 56 61 
59 64 70 60 65 71 59 64 70 59 64 70 59 64 70 58 63 69 59 64 70 59 64 70 61 66 72 59 64 70 59 64 70 58 63 69 57 62 68 55 60 66 57 62 68 59 62 69 60 63 70 59 62 69 58 61 68 61 61 69 60 63 70 58 61 68 58 61 68 58 61 68 59 62 69 57 62 68 58 61 68 58 61 68 56 61 67 57 60 67 55 60 66 57 60 67 56 59 66 55 60 66 56 59 66 56 61 67 56 59 66 53 58 64 55 58 65 57 57 65 55 58 65 55 60 66 55 60 66 57 60 67 55 60 66 57 60 67 57 60 67 57 60 67 56 59 66 56 61 67 56 61 67 55 58 65 55 58 65 56 59 66 55 58 65 53 58 64 53 58 64 53 58 64 53 58 62 51 56 62 52 57 63 52 57 63 52 57 63 50 55 61 52 57 63 53 58 62 53 58 64 52 57 63 54 59 63 53 58 62 54 59 63 53 58 64 54 57 62 53 56 63 53 56 61 55 58 65 54 59 65 54 57 64 53 56 63 52 57 63 51 56 62 53 56 63 54 57 64 54 57 64 52 55 62 52 55 62 51 54 61 51 56 62 52 55 62 54 57 64 51 56 62 51 54 61 52 55 62 53 56 63 53 56 63 54 57 64 54 57 64 55 58 65 55 58 65 54 57 64 
58 63 69 60 65 71 61 66 72 61 66 72 58 63 69 57 62 68 58 63 69 59 64 70 59 64 70 58 63 69 58 63 69 58 63 69 57 62 68 55 60 66 57 62 68 59 62 69 59 62 69 59 62 69 58 61 68 60 63 70 59 62 69 60 63 70 59 64 70 58 63 69 58 61 68 58 61 68 57 60 67 57 62 68 56 59 66 57 60 67 56 61 67 57 60 67 57 60 67 56 61 67 58 61 68 57 60 67 56 59 66 56 61 67 56 59 66 56 59 66 54 59 65 54 59 65 56 59 66 56 59 66 57 60 67 57 60 67 56 59 66 57 60 67 56 59 66 55 58 65 55 58 65 56 59 66 57 60 67 56 59 66 54 57 64 53 58 64 53 58 64 54 59 65 53 58 62 51 56 62 51 56 62 51 56 60 51 56 60 51 56 60 51 56 62 52 57 63 53 58 61 52 57 63 55 60 66 55 60 64 54 59 63 53 58 64 52 57 63 51 54 59 52 55 60 54 57 64 53 58 64 51 56 62 53 58 64 49 56 62 52 55 62 53 56 63 54 57 64 52 55 62 51 54 61 54 54 62 49 54 60 51 54 61 52 55 62 53 58 64 54 57 64 52 55 62 53 56 63 52 55 62 53 56 63 52 55 62 53 56 63 54 57 64 54 57 64 54 57 64 
59 64 70 60 65 71 62 67 73 60 65 71 58 63 69 58 63 69 58 63 69 58 63 69 59 64 70 58 63 69 57 62 68 57 62 68 56 61 67 55 60 66 57 62 68 58 61 68 58 61 68 57 60 67 58 61 68 59 62 69 59 62 69 58 61 68 56 59 66 58 61 68 57 60 67 58 61 68 57 60 67 58 61 68 58 61 68 60 60 68 57 60 67 56 59 66 57 60 67 57 60 67 58 58 66 56 59 66 55 60 66 56 59 66 56 59 66 56 59 66 55 60 66 56 59 66 55 58 65 55 58 65 55 58 65 56 61 67 57 62 68 54 57 64 54 57 64 54 57 64 55 58 65 54 59 65 56 59 66 56 59 66 55 58 65 54 59 65 52 57 63 53 58 64 52 57 63 51 56 62 51 56 60 52 56 65 52 57 63 52 57 63 52 57 63 52 57 61 52 57 63 52 57 63 54 59 65 52 57 61 52 57 61 52 57 63 52 57 63 51 56 60 51 56 60 52 57 63 52 57 63 52 55 62 53 56 63 53 58 64 52 57 63 55 58 65 53 56 63 51 54 61 51 54 61 51 54 61 50 53 60 50 53 60 52 55 62 53 56 63 53 58 64 52 55 62 52 57 63 52 57 63 54 57 64 54 57 64 53 56 63 54 57 64 53 56 63 54 57 64 
60 65 71 60 65 71 61 66 72 60 65 71 58 63 69 60 65 71 59 64 70 58 63 69 58 63 69 58 63 69 59 64 70 57 62 68 56 61 67 57 62 68 58 63 69 59 62 69 59 62 69 59 62 69 59 62 69 58 61 68 58 63 69 59 62 69 58 61 68 57 60 67 56 59 66 56 61 67 56 59 66 57 60 67 55 60 66 56 59 66 56 59 66 55 60 66 56 61 67 57 60 67 56 59 66 54 59 65 56 59 66 55 60 66 56 59 66 56 59 66 55 60 66 55 60 66 55 58 65 54 59 65 55 58 65 56 61 67 57 60 67 55 58 65 54 57 64 55 58 65 55 58 65 54 59 65 55 58 65 55 58 65 56 59 66 55 60 66 52 57 63 52 57 63 52 57 63 53 58 64 53 58 64 53 58 62 53 58 62 54 58 67 53 58 64 52 57 63 52 57 61 54 59 65 53 58 64 53 58 62 53 58 64 53 58 62 51 56 62 51 56 60 52 57 61 51 56 60 51 54 61 49 52 59 50 53 60 52 55 62 53 56 63 52 55 62 53 56 63 53 56 63 52 55 62 52 55 62 52 55 62 50 55 61 53 56 63 53 56 63 54 59 65 54 57 64 52 55 62 53 58 64 54 57 64 54 57 64 51 54 61 53 56 63 54 57 64 55 58 65 
60 65 71 60 65 71 59 64 70 60 65 71 60 65 71 59 64 70 59 64 70 58 63 69 57 62 68 59 64 70 58 63 69 57 62 68 57 62 68 56 61 67 56 61 67 59 62 69 59 64 70 59 62 69 59 62 69 58 61 68 59 62 69 59 62 69 57 62 68 56 59 66 56 59 66 57 60 67 57 60 67 55 60 66 56 59 66 56 61 67 56 59 66 55 58 65 57 60 67 56 59 66 56 61 67 55 58 65 59 59 67 57 60 67 56 61 67 56 59 66 57 60 67 55 60 66 54 57 64 55 58 65 55 58 65 56 61 67 55 58 65 55 58 65 54 59 65 54 59 65 55 58 65 54 57 64 54 57 64 55 58 65 56 59 66 54 59 65 52 57 63 52 57 63 52 57 63 54 59 65 53 58 64 53 58 62 54 59 63 54 58 67 53 58 64 52 57 63 52 57 61 52 57 63 52 57 63 52 57 61 52 57 63 52 57 61 51 56 62 51 56 60 51 56 60 52 57 61 52 55 62 49 52 59 51 54 61 52 55 62 53 56 63 53 56 63 54 57 64 53 56 63 52 55 62 53 56 63 53 56 63 52 55 62 52 55 62 52 57 63 57 57 65 52 57 63 53 56 63 53 56 63 53 56 63 54 57 64 53 56 63 52 55 62 53 56 63 54 57 64 
59 64 70 58 63 69 59 64 70 60 65 71 60 65 71 60 65 71 59 64 70 59 64 70 56 61 67 57 62 68 58 63 69 58 63 69 57 62 68 57 62 68 57 62 68 58 61 68 58 63 69 60 63 70 59 62 69 57 62 68 58 61 68 58 61 68 57 60 67 55 58 65 56 59 66 56 59 66 56 59 66 56 59 66 55 58 65 55 60 66 54 57 64 56 59 66 57 60 67 58 61 68 56 61 67 56 59 66 58 61 68 56 61 67 56 61 67 56 59 66 56 59 66 54 59 65 54 57 64 53 58 64 54 59 65 56 59 66 55 58 65 54 57 64 53 58 64 53 58 64 54 57 64 53 56 63 54 57 64 54 57 64 54 57 64 53 58 64 53 58 64 53 58 64 53 58 64 55 60 66 54 59 63 54 58 67 53 58 64 53 58 64 51 56 62 51 56 60 51 56 62 52 57 63 52 57 63 51 56 60 52 57 61 52 57 63 51 56 62 51 56 60 51 56 60 53 58 64 52 55 62 47 52 58 50 53 60 52 55 62 55 55 63 52 57 63 52 57 63 52 55 62 52 55 62 53 56 63 54 57 64 50 53 60 51 54 61 52 55 62 54 59 65 53 56 63 54 57 64 52 55 62 53 56 63 54 57 64 53 56 63 53 56 63 53 56 63 54 57 64 
60 65 71 59 64 70 59 64 70 59 64 70 59 64 70 57 62 68 57 62 68 58 63 69 57 62 68 56 61 67 56 61 67 56 61 67 56 61 67 56 61 67 57 62 68 58 61 68 59 64 70 59 62 69 58 61 68 56 61 67 55 60 66 57 60 67 58 61 68 56 59 66 55 60 66 56 61 67 57 60 67 56 59 66 56 59 66 55 58 65 56 59 66 55 60 66 55 60 66 56 59 66 57 60 67 57 60 67 56 59 66 55 60 66 55 60 66 55 58 65 55 58 65 54 57 64 56 59 66 56 59 66 56 59 66 55 58 65 54 57 64 55 58 65 55 58 65 55 58 65 53 56 63 54 57 64 54 57 64 55 58 65 54 57 64 52 57 63 52 57 63 52 57 63 52 57 63 52 57 61 52 57 63 53 58 62 52 57 61 50 55 59 50 55 61 50 55 61 50 55 58 50 55 61 52 57 63 51 56 60 50 55 59 50 55 61 51 56 62 51 56 60 52 57 61 51 56 62 53 56 63 50 53 60 48 53 59 52 55 62 52 55 62 53 56 63 51 56 62 50 55 61 52 55 62 52 55 62 51 54 61 50 53 60 51 54 61 53 56 63 52 57 63 52 55 62 53 56 63 55 58 65 57 60 67 58 61 68 55 58 65 54 57 64 54 57 64 54 57 64 
61 66 72 59 64 70 58 63 69 58 63 69 56 61 67 57 62 68 57 62 68 55 60 66 60 65 71 57 62 68 56 61 67 56 61 67 56 61 67 56 61 67 56 61 67 57 60 67 57 62 68 58 61 68 57 60 67 57 62 68 57 60 67 56 59 66 54 59 65 57 60 67 57 60 67 57 60 67 55 58 65 57 60 67 57 60 67 56 61 67 57 60 67 57 60 67 55 58 65 56 59 66 55 60 66 56 59 66 57 60 67 53 58 64 56 59 66 55 60 66 56 61 67 55 58 65 55 58 65 54 59 65 55 58 65 54 57 64 54 59 65 54 59 65 55 58 65 54 57 64 54 59 65 54 57 64 54 57 64 54 57 64 53 56 63 54 59 65 54 59 63 52 57 61 51 56 62 53 58 62 53 58 64 53 58 64 53 58 64 51 56 62 51 56 62 51 56 60 51 56 62 49 54 60 52 57 61 51 56 60 50 55 59 51 56 62 52 57 61 50 55 61 50 55 59 50 55 61 52 55 62 51 54 61 50 53 60 52 55 62 54 54 62 52 57 63 50 55 61 52 55 62 53 56 63 53 56 63 52 55 62 52 55 62 53 56 63 51 54 61 52 55 62 52 57 63 54 59 65 56 59 66 54 59 65 55 58 65 54 57 64 53 56 63 55 58 65 54 57 64 
59 64 70 59 64 70 58 63 69 57 62 68 56 61 67 55 60 66 55 60 66 58 63 69 60 65 71 59 64 70 57 62 68 56 61 67 56 61 67 55 60 66 57 60 67 58 61 68 57 62 68 57 60 67 60 60 68 57 62 68 57 60 67 56 59 66 56 59 66 58 61 68 58 61 68 57 60 67 56 59 66 56 59 66 57 60 67 57 60 67 57 62 68 57 62 68 56 59 66 56 59 66 56 59 66 56 59 66 57 60 67 55 58 65 54 59 65 56 59 66 57 60 67 55 58 65 54 57 64 53 58 64 54 57 64 56 59 66 54 59 65 55 58 65 54 57 64 55 58 65 55 58 65 52 57 63 54 57 64 54 57 64 53 56 63 53 58 64 53 58 64 52 57 63 53 58 64 52 57 63 52 57 63 52 57 63 52 57 63 53 58 64 50 55 61 52 57 63 51 56 62 51 56 62 50 55 59 50 55 61 50 55 61 51 56 62 51 56 62 51 56 60 51 56 60 50 55 61 51 56 62 48 55 61 49 54 60 50 55 61 52 55 62 54 57 64 52 55 62 53 56 63 53 58 64 53 56 63 53 56 63 54 57 64 54 57 64 52 55 62 53 56 63 55 58 65 56 59 66 56 59 66 55 58 63 55 60 66 54 57 64 55 58 63 55 58 65 54 57 64 
58 63 69 58 63 69 57 62 68 58 63 69 58 63 69 56 61 67 57 62 68 57 62 68 60 65 71 59 64 70 58 63 69 58 63 69 58 63 69 57 60 67 56 59 66 56 61 67 57 62 68 56 61 67 57 60 67 58 61 68 57 60 67 57 60 67 57 60 67 59 62 69 58 61 68 58 61 68 56 59 66 56 59 66 56 61 67 57 60 67 58 61 68 57 62 68 57 62 68 55 60 66 54 57 64 55 58 65 57 60 67 56 59 66 55 60 66 56 59 66 56 59 66 55 58 65 54 57 64 54 57 64 53 56 63 55 58 65 56 59 66 55 58 65 55 58 65 55 58 65 54 57 64 54 57 64 53 56 63 53 56 63 52 55 62 51 56 62 53 58 64 53 58 64 53 58 64 52 57 63 51 56 60 51 56 60 51 56 60 53 58 62 50 55 59 51 56 60 50 55 59 51 56 60 49 54 58 49 54 60 50 55 61 51 56 62 51 56 62 51 56 62 50 55 59 50 55 61 51 56 62 52 57 63 51 56 62 50 55 61 52 57 63 54 57 64 51 54 61 51 54 61 54 59 65 54 57 64 53 58 64 53 58 64 54 59 65 55 58 65 53 56 63 54 57 64 55 58 65 55 58 65 55 58 65 54 59 65 55 58 65 55 58 65 55 58 65 54 57 64 
57 62 68 57 62 68 57 62 68 57 62 68 59 64 70 56 61 67 56 61 67 57 62 68 57 62 68 58 63 69 58 63 69 58 63 69 58 63 69 56 61 67 55 58 65 56 59 66 57 60 67 56 59 66 55 58 65 55 60 66 57 60 67 56 59 66 56 59 66 57 60 67 57 60 67 56 59 66 56 59 66 55 58 65 56 61 67 56 59 66 56 59 66 54 59 65 56 61 67 55 60 66 53 58 64 52 55 62 54 57 64 55 58 65 54 57 64 55 58 65 54 57 64 54 59 65 54 57 64 53 56 63 52 57 63 55 58 65 57 60 67 55 58 65 54 59 65 55 60 66 53 56 63 52 55 62 53 56 63 53 56 63 51 54 61 50 55 61 51 56 62 52 57 63 52 57 63 51 56 62 51 56 62 51 56 62 50 55 61 51 56 62 48 53 59 49 54 60 49 54 60 50 55 61 49 54 58 48 52 61 50 55 61 50 55 59 50 55 61 50 55 59 49 54 60 50 55 61 53 58 64 53 58 64 50 55 61 51 54 61 54 57 64 53 56 63 50 53 60 53 56 63 53 58 64 55 58 65 55 58 65 53 56 63 54 57 64 55 60 66 55 58 65 55 58 65 54 57 64 55 58 63 55 58 65 56 59 66 56 59 66 55 58 65 55 58 63 54 57 64 
58 63 69 56 61 67 56 61 67 58 63 69 58 63 69 57 62 68 57 62 68 57 62 68 57 62 68 58 63 69 58 63 69 57 62 68 56 61 67 55 60 66 59 59 67 58 61 68 56 61 67 55 62 68 55 58 65 56 59 66 55 60 66 55 60 66 54 59 65 54 59 65 55 60 66 56 61 67 54 59 65 53 58 64 55 60 66 55 58 65 55 58 65 55 58 65 56 61 67 56 61 67 56 59 66 54 57 64 55 60 66 54 57 64 54 57 64 54 57 64 54 57 64 54 59 65 54 57 64 53 56 63 54 57 64 54 57 64 55 58 65 54 57 64 54 57 64 53 58 64 53 56 63 53 56 63 54 57 64 54 57 64 52 55 62 51 56 62 52 57 63 52 57 63 52 57 63 52 57 63 55 60 64 53 58 62 52 57 61 50 55 59 50 55 59 50 55 59 51 56 60 50 55 59 50 55 59 49 54 60 49 54 58 49 54 60 49 54 58 48 53 59 48 53 56 51 56 62 53 58 64 53 58 64 51 56 62 50 57 63 54 57 64 54 57 64 51 54 61 52 57 63 55 58 65 54 59 65 53 58 64 57 57 65 56 59 66 56 59 66 55 58 65 53 58 64 54 59 65 54 57 64 55 58 65 54 57 64 54 57 64 54 57 64 54 57 64 54 57 64 
57 62 68 56 61 67 57 62 68 57 62 68 58 63 69 57 62 68 58 63 69 56 61 67 56 61 67 56 61 67 56 61 67 56 61 67 55 60 66 56 61 67 58 61 68 58 61 68 57 60 67 56 61 67 56 59 66 56 59 66 56 59 66 55 58 65 56 59 66 56 59 66 56 59 66 57 60 67 55 58 65 55 58 65 56 59 66 57 60 67 56 59 66 55 58 65 58 61 68 59 62 69 57 60 67 56 59 66 54 59 65 55 58 65 54 57 64 53 56 63 54 57 64 52 57 63 54 57 64 53 56 63 53 56 63 53 56 63 50 55 61 53 56 63 55 58 65 54 57 64 54 57 64 54 57 64 54 57 64 55 58 65 55 58 65 53 58 64 54 59 65 52 57 63 52 57 63 52 57 63 53 58 64 53 58 64 53 58 64 51 56 62 49 54 60 50 55 61 50 55 61 50 55 61 50 55 61 50 55 61 50 55 61 52 57 60 51 56 62 49 54 58 50 55 61 50 55 61 52 57 63 51 56 62 50 55 61 51 54 61 53 56 63 53 56 63 53 56 63 55 58 65 56 59 66 54 57 64 54 57 64 55 58 65 55 60 66 54 59 65 53 56 63 54 57 64 52 57 63 52 55 62 52 55 62 55 58 65 54 57 64 53 56 63 52 57 63 55 58 65 
57 62 68 57 62 68 56 61 67 59 64 70 58 63 69 58 63 69 58 63 69 57 62 68 56 61 67 55 60 66 56 61 67 57 62 68 56 61 67 56 61 67 57 60 67 57 60 67 58 61 68 56 61 67 57 62 68 57 60 67 55 60 66 56 61 67 56 61 67 55 60 66 56 61 67 56 61 67 56 61 67 55 60 66 57 60 67 56 59 66 55 58 65 54 57 64 57 60 67 59 59 67 58 58 66 55 60 66 54 57 64 54 57 64 54 57 64 54 57 64 54 57 64 53 58 64 53 56 63 54 57 64 53 56 63 54 57 64 53 58 64 53 58 64 54 57 64 54 57 64 54 57 64 53 58 64 56 59 66 54 57 64 55 58 65 54 59 65 53 58 64 52 57 63 51 56 62 54 59 65 52 57 63 53 58 64 52 57 63 52 57 63 50 55 61 49 54 60 50 55 61 49 54 60 48 53 59 49 54 60 50 55 59 51 56 62 51 56 62 51 56 62 51 56 60 51 56 62 52 57 63 53 56 63 52 55 62 52 55 62 53 56 63 54 57 64 54 57 64 55 58 65 55 58 65 55 58 65 55 60 66 54 59 65 55 58 65 55 58 65 55 58 65 54 59 65 53 58 64 53 56 63 53 56 61 55 58 65 55 58 65 54 57 62 53 56 63 55 58 65 
57 62 68 58 63 69 58 63 69 57 62 68 58 63 69 59 64 70 58 63 69 57 62 68 56 61 67 55 60 66 56 61 67 57 62 68 57 62 68 56 61 67 56 61 67 56 59 66 57 60 67 56 61 67 55 60 66 56 59 66 56 59 66 55 58 65 57 60 67 56 59 66 57 60 67 58 61 68 56 59 66 56 59 66 55 60 66 55 58 65 55 58 65 55 58 65 56 59 66 55 58 65 55 58 65 55 60 66 54 57 64 54 57 64 53 58 64 54 57 64 54 57 64 53 56 63 54 57 64 54 57 64 53 56 63 53 56 63 56 59 66 56 59 66 55 58 65 55 58 65 54 57 64 54 57 64 54 57 64 54 57 64 55 58 65 54 59 65 54 59 65 54 59 65 51 56 62 51 56 62 51 56 62 51 56 62 51 56 62 51 56 62 49 54 60 49 54 60 49 54 60 50 55 61 49 54 60 48 53 59 51 56 60 51 56 60 51 56 62 52 57 63 52 57 63 52 57 63 53 58 64 53 58 64 50 57 63 52 55 62 52 55 62 55 55 63 53 58 64 53 58 64 54 59 65 55 58 65 55 60 66 54 57 64 54 57 64 54 57 64 55 60 66 54 59 65 56 59 66 55 58 65 56 59 66 57 60 67 55 58 65 54 57 64 53 56 63 55 58 65 
58 63 69 59 64 70 59 64 70 57 62 68 58 63 69 56 61 67 58 63 69 57 62 68 57 62 68 56 61 67 55 60 66 56 61 67 57 62 68 57 62 68 54 59 65 56 59 66 56 59 66 55 60 66 54 59 65 54 57 64 55 58 65 55 58 65 57 60 67 56 59 66 57 60 67 57 60 67 57 60 67 57 60 67 52 59 65 54 59 65 55 58 65 55 58 65 55 60 66 55 60 66 54 59 65 54 59 65 54 57 64 54 57 64 53 58 64 55 58 65 54 57 64 54 57 64 54 57 64 54 59 65 53 58 64 53 56 63 55 58 65 55 58 65 55 58 65 52 57 63 53 56 63 53 56 63 53 56 63 53 56 63 55 58 65 54 59 65 53 58 64 51 56 62 50 55 61 50 55 61 51 56 62 50 55 61 49 54 60 49 54 60 49 54 60 49 54 60 51 56 62 51 56 62 50 55 61 49 54 60 50 55 59 51 56 60 50 55 61 50 55 61 52 57 61 53 58 62 54 59 65 52 57 63 53 56 63 53 56 63 53 56 63 52 55 62 54 57 64 54 57 64 54 57 64 56 56 64 56 59 66 53 58 64 55 58 65 55 58 65 55 58 65 54 59 65 56 59 66 56 59 64 55 60 66 55 58 65 54 57 64 55 58 65 56 59 64 55 58 65 
58 63 69 58 63 69 57 62 68 57 62 68 55 60 66 57 62 68 57 62 68 57 62 68 56 61 67 56 61 67 55 60 66 56 61 67 55 60 66 57 62 68 56 61 67 55 60 66 55 60 66 55 60 66 55 60 66 53 58 64 54 59 65 54 59 65 55 60 66 56 61 67 56 61 67 55 60 66 55 60 66 55 60 66 54 59 65 55 60 66 54 57 64 54 59 65 56 56 64 53 58 64 55 58 65 53 58 64 53 58 64 53 58 64 53 58 64 50 55 61 51 56 62 54 59 65 53 58 64 52 57 63 53 58 64 53 56 63 52 57 63 52 57 63 52 57 63 51 54 61 53 56 65 52 56 65 51 55 64 51 56 62 53 58 64 52 57 63 52 57 63 50 55 61 50 55 61 50 55 61 51 56 62 51 56 62 51 56 62 52 57 63 51 56 62 51 56 62 53 58 64 52 57 63 52 55 62 53 56 63 53 56 63 53 56 63 53 56 63 54 57 64 53 56 63 52 55 62 53 58 64 53 58 64 53 56 63 53 56 63 53 56 63 54 57 64 56 59 66 56 59 66 57 60 67 56 59 66 56 59 66 56 59 66 55 58 65 55 58 65 54 57 64 55 58 65 55 58 65 55 58 65 56 59 66 56 59 66 54 57 64 55 58 65 56 59 64 55 58 63 
57 62 68 58 63 69 56 61 67 57 62 68 55 60 66 56 61 67 57 62 68 57 62 68 54 59 65 55 60 66 55 60 66 55 60 66 54 59 65 55 60 66 55 60 66 55 60 66 55 60 66 56 61 67 55 60 66 55 60 66 54 59 65 54 59 65 54 59 65 55 60 66 55 60 66 55 60 66 55 60 66 54 59 65 53 58 64 53 58 64 53 56 63 53 57 66 54 57 66 52 57 63 53 58 64 53 58 64 51 56 62 52 57 63 51 56 62 52 57 63 51 56 62 53 58 64 52 57 63 52 57 63 52 57 63 53 56 63 52 57 63 52 57 63 52 57 63 53 56 63 54 57 66 52 56 65 52 56 65 52 57 63 52 57 63 52 57 63 50 55 61 50 55 61 50 55 61 50 55 61 52 57 63 51 56 62 50 55 61 51 56 62 53 58 64 53 58 64 52 57 63 53 58 64 54 57 64 55 58 65 54 57 64 53 56 63 54 57 64 55 58 65 53 56 63 53 56 63 55 58 65 56 59 66 54 57 64 55 58 65 55 58 65 56 59 66 56 59 66 58 61 68 57 60 67 55 58 65 57 60 67 56 59 66 54 57 64 54 57 64 55 58 65 55 58 65 55 58 65 55 58 65 56 59 66 55 58 65 53 56 61 53 56 61 56 59 64 55 58 63 
57 62 68 57 62 68 57 62 68 56 61 67 55 60 66 57 62 68 55 60 66 56 61 67 53 58 64 55 60 66 54 59 65 54 59 65 54 59 65 54 59 65 54 59 65 55 60 66 55 60 66 56 61 67 55 60 66 54 59 65 55 60 66 54 59 65 54 59 65 54 59 65 55 60 66 55 60 66 55 60 66 54 59 65 53 58 64 53 58 64 52 57 63 52 57 63 51 54 61 52 57 63 53 58 64 53 58 64 49 56 62 51 56 62 52 57 63 51 56 62 52 57 63 51 56 62 52 57 63 52 57 63 51 56 62 52 57 63 52 55 62 51 56 62 53 58 64 53 58 64 52 56 65 53 57 66 52 56 65 52 57 63 52 57 63 51 56 62 51 56 62 51 56 62 51 56 62 51 56 62 51 56 62 51 56 62 51 56 62 52 57 63 54 59 65 53 58 64 52 57 63 54 59 65 55 58 65 55 58 65 55 58 65 54 57 64 54 57 64 54 57 64 54 57 64 53 56 63 56 59 66 58 61 68 55 58 65 55 58 65 56 59 66 55 60 66 56 61 67 55 60 66 55 58 65 55 58 65 54 57 64 54 57 64 54 57 64 54 57 64 55 58 65 54 57 64 54 57 64 54 57 64 56 59 64 55 58 63 54 57 64 54 57 64 55 58 63 55 58 63 
57 62 68 56 61 67 58 63 69 55 60 66 55 60 66 55 60 66 56 61 67 55 60 66 52 57 63 55 60 66 54 59 65 54 59 65 52 57 63 53 58 64 53 58 64 55 60 66 56 61 67 56 61 67 54 59 65 53 58 64 54 59 65 54 59 65 54 59 65 55 60 66 55 60 66 55 60 66 54 59 65 54 59 65 52 56 65 54 59 65 53 58 64 52 57 63 51 56 62 51 56 62 53 58 64 53 57 66 52 55 62 53 56 63 52 55 62 53 58 64 52 57 63 51 56 62 51 56 62 53 58 64 53 58 64 51 56 62 52 55 62 51 56 62 51 56 62 51 56 62 51 55 64 54 58 67 55 59 68 52 57 63 51 56 62 51 56 62 53 58 64 51 56 62 51 56 62 52 57 63 51 56 62 51 56 62 54 59 65 52 57 63 53 58 64 53 58 64 53 58 64 52 57 63 54 57 64 54 57 64 55 58 65 54 57 64 54 57 64 54 57 64 54 57 64 55 58 65 56 59 66 56 59 66 55 58 65 55 58 65 55 58 65 56 59 66 58 61 68 54 59 65 55 58 65 54 57 64 55 58 65 54 57 64 53 56 63 55 58 65 56 59 66 55 58 65 54 57 64 54 57 64 56 59 66 56 59 66 58 61 68 57 60 67 56 59 64 54 57 62 
57 62 68 56 61 67 55 60 66 56 61 67 54 59 65 56 61 67 54 59 65 54 59 65 55 60 66 54 59 65 55 60 66 55 60 66 55 60 66 54 59 65 53 58 64 54 59 65 53 58 64 56 61 67 54 59 65 54 59 65 54 59 65 55 60 66 56 61 67 54 59 65 54 59 65 54 59 65 54 59 65 53 58 64 54 59 65 55 60 66 53 58 64 51 55 64 51 55 64 51 56 62 51 56 62 52 57 63 53 58 64 52 57 63 53 58 64 52 57 63 52 57 63 51 56 62 52 57 63 53 58 64 53 58 64 52 57 63 52 55 62 51 56 62 52 57 63 52 57 63 53 57 66 51 55 64 52 57 63 51 56 62 52 56 65 49 54 60 49 54 60 50 55 61 51 56 62 51 56 62 51 56 62 51 56 62 52 57 63 51 56 62 50 55 61 52 57 63 53 58 64 53 58 64 54 57 64 55 58 65 56 59 66 55 58 65 55 58 65 53 56 63 54 57 64 57 60 67 55 60 66 56 59 66 55 58 65 55 58 65 55 58 65 56 59 66 57 60 67 57 60 67 56 59 66 55 58 65 55 58 65 54 57 64 55 58 65 55 58 65 55 58 65 55 58 65 56 59 66 56 59 66 56 59 66 57 60 67 59 62 69 57 60 67 55 58 63 52 55 60 
55 60 66 57 62 68 56 61 67 56 61 67 56 61 67 54 59 65 54 59 65 55 60 66 54 59 65 55 60 66 55 60 66 55 60 66 56 61 67 54 59 65 53 58 64 54 59 65 56 61 67 56 61 67 56 61 67 55 60 66 54 59 65 55 60 66 55 60 66 55 60 66 54 59 65 54 59 65 54 59 65 54 59 65 54 59 65 53 58 64 52 57 63 53 58 64 52 57 63 52 57 63 52 57 63 54 59 65 54 59 65 52 57 63 52 57 63 53 58 64 53 58 64 52 57 63 51 56 62 51 56 62 52 57 63 51 56 62 51 56 62 49 54 60 51 56 62 51 56 62 51 55 64 51 55 64 50 55 61 50 55 61 50 54 63 48 53 59 49 54 60 50 55 61 52 57 63 52 57 63 53 58 64 52 57 63 53 58 64 52 57 63 50 55 61 51 56 62 53 58 64 55 60 66 55 58 65 54 57 64 55 58 65 56 59 66 56 59 66 55 58 65 54 57 64 55 58 65 55 60 66 55 60 66 54 59 65 55 58 65 56 59 66 57 60 67 57 60 67 56 59 66 55 58 65 55 58 65 56 59 66 55 58 65 55 58 65 55 58 65 53 56 63 55 58 65 56 59 66 56 59 66 56 59 64 57 60 65 58 61 68 56 59 66 56 59 64 55 58 63 
57 62 68 56 61 67 57 62 68 56 61 67 56 61 67 55 60 66 55 60 66 54 59 65 54 59 65 55 60 66 55 60 66 55 60 66 56 61 67 55 60 66 53 58 64 55 60 66 55 60 66 56 61 67 56 61 67 55 60 66 56 61 67 56 61 67 55 60 66 54 59 65 54 59 65 53 58 64 53 58 64 54 59 65 53 57 66 53 58 64 52 57 63 52 57 63 53 58 64 52 57 63 53 58 64 53 57 66 53 56 63 50 55 61 51 56 62 52 57 63 53 58 64 53 58 64 53 56 63 52 55 62 52 57 63 50 55 61 51 56 62 50 55 61 51 56 62 51 56 62 49 53 62 50 54 63 49 54 60 50 55 61 50 54 63 49 54 60 50 55 61 49 54 60 52 57 63 54 59 65 53 58 64 52 57 63 53 58 64 54 59 65 52 57 63 52 57 63 53 58 64 54 59 65 55 58 65 55 58 65 55 58 65 56 59 66 56 59 66 56 59 66 55 58 65 55 58 65 54 57 64 55 58 65 57 60 67 56 59 66 57 60 67 57 60 67 57 60 67 56 59 66 54 57 64 55 58 65 55 58 65 55 58 65 55 58 65 55 58 65 55 58 65 56 59 66 57 60 67 56 59 66 55 58 65 56 59 66 57 60 65 57 60 65 57 60 65 57 60 65 
57 62 68 56 61 67 56 61 67 54 59 65 56 61 67 55 60 66 55 60 66 53 58 64 53 58 64 57 62 68 56 61 67 56 61 67 54 59 65 54 59 65 55 60 66 54 59 65 54 59 65 54 59 65 55 60 66 54 59 65 53 58 64 53 58 64 52 57 63 53 58 64 53 58 64 53 58 64 53 58 64 54 59 65 53 58 64 52 57 63 53 58 64 53 58 64 51 56 62 52 57 63 52 57 63 52 57 63 52 57 63 51 56 62 52 57 63 53 58 64 54 59 65 53 58 64 53 58 64 53 58 64 53 58 64 50 55 61 49 56 62 50 55 61 50 55 61 51 56 62 49 53 62 49 53 62 48 53 59 51 56 62 51 55 64 52 57 63 50 55 61 50 55 61 53 58 64 55 60 66 54 59 65 53 58 64 53 58 64 54 59 65 53 58 64 53 58 64 52 57 63 53 58 64 53 56 63 54 57 64 54 57 64 54 57 64 54 57 64 55 58 65 55 58 65 56 59 66 55 58 65 54 57 64 55 58 65 56 59 66 55 58 65 55 58 65 55 60 66 54 59 65 54 57 64 54 57 64 54 57 64 54 57 64 56 59 66 56 59 66 57 60 67 59 62 69 58 61 68 57 60 67 55 58 65 56 59 66 57 60 67 57 60 67 58 61 66 58 61 66 
57 62 68 54 59 65 53 58 64 51 56 62 55 60 66 56 61 67 55 60 66 54 59 65 53 58 64 56 61 67 55 60 66 55 60 66 53 58 64 53 58 64 55 60 66 54 59 65 55 60 66 54 59 65 54 59 65 53 58 64 52 57 63 52 57 63 52 57 63 53 58 64 53 56 63 51 56 62 52 57 63 52 57 63 52 57 63 53 58 64 54 59 65 53 58 64 52 57 63 52 57 63 51 56 62 52 57 63 54 59 65 54 59 65 53 58 64 55 60 66 56 61 67 54 59 65 53 58 64 53 58 64 53 56 63 51 56 62 50 55 61 51 56 62 50 55 61 51 56 62 51 56 62 52 55 62 51 56 62 53 58 64 52 57 63 50 55 61 51 56 62 50 55 61 51 56 62 53 58 64 52 57 63 52 57 63 53 58 64 54 59 65 56 61 67 53 58 64 53 58 64 53 58 64 54 57 64 53 56 63 52 57 63 53 58 64 53 56 63 54 57 64 56 59 66 56 59 66 55 58 65 54 57 64 54 57 64 54 59 65 53 58 64 54 57 64 55 58 65 56 59 66 55 58 65 55 58 65 54 57 64 54 57 64 55 58 65 57 60 67 59 62 69 59 62 69 58 61 68 56 59 66 54 57 62 56 59 66 58 61 66 58 61 68 56 59 64 56 59 64 
58 63 69 55 60 66 54 59 65 54 59 65 56 61 67 58 63 69 55 60 66 53 58 64 54 59 65 55 60 66 55 60 66 54 59 65 54 59 65 52 57 63 54 59 65 54 59 65 54 59 65 55 60 66 53 58 64 53 58 64 53 58 64 54 59 65 54 59 65 54 59 65 52 57 63 51 56 62 52 57 63 52 57 63 53 58 64 53 58 64 53 58 64 53 58 64 53 58 64 52 57 63 53 58 64 54 59 65 56 61 67 53 58 64 53 58 64 55 60 66 54 59 65 53 58 64 52 57 63 52 57 63 51 56 62 51 56 62 51 56 62 52 55 62 52 55 62 51 56 62 51 56 62 51 56 62 53 58 64 52 57 63 52 57 63 50 55 61 52 57 63 52 57 63 53 58 64 52 57 63 53 58 64 54 59 65 54 59 65 56 61 67 54 59 65 53 58 64 52 57 63 53 58 64 53 56 63 53 56 63 54 59 65 54 59 65 54 57 64 54 57 64 54 57 64 54 57 64 53 58 64 55 58 65 54 57 64 54 57 64 54 57 64 53 56 63 56 59 66 55 60 66 56 59 66 55 58 65 55 58 65 55 58 65 56 59 66 57 60 67 59 62 69 59 62 69 56 59 66 54 57 64 52 55 62 55 58 65 58 61 68 59 62 67 57 60 65 55 58 63 
57 62 68 55 60 66 55 60 66 55 60 66 56 61 67 56 61 67 55 60 66 53 58 64 54 59 65 54 59 65 55 60 66 55 60 66 53 58 64 53 58 64 56 61 67 55 60 66 53 58 64 54 59 65 53 58 64 54 59 65 54 59 65 54 59 65 55 58 65 53 58 64 52 57 63 52 55 62 52 55 62 52 57 63 53 58 64 53 58 64 53 58 64 53 58 64 52 57 63 52 57 63 53 58 64 54 59 65 53 58 64 52 57 63 54 59 65 53 58 64 54 59 65 52 57 63 51 56 62 52 57 63 51 56 62 51 56 62 52 57 63 52 57 63 51 56 62 52 57 63 50 55 61 52 57 63 53 58 64 53 58 64 53 58 64 52 57 63 53 58 64 54 59 65 53 58 64 52 57 63 54 59 65 56 61 67 55 60 66 55 60 66 54 59 65 54 59 65 54 59 65 55 60 66 54 57 64 54 57 64 54 59 65 56 59 66 56 59 66 55 58 65 55 58 65 52 57 63 53 58 64 54 57 64 54 57 64 54 57 64 55 58 65 54 57 64 55 58 65 55 60 66 56 59 66 55 58 65 56 59 66 54 57 64 56 59 66 58 61 68 58 61 68 57 60 67 55 58 65 55 58 65 55 58 65 56 59 64 57 60 67 59 62 69 57 60 67 56 59 64 
56 61 67 57 62 68 56 61 67 56 61 67 55 60 66 53 58 64 54 59 65 54 59 65 54 59 65 55 60 66 56 61 67 55 60 66 54 59 65 55 60 66 55 60 66 55 60 66 54 59 65 52 57 63 52 57 63 54 59 65 54 59 65 54 59 65 54 59 65 52 57 63 51 56 62 52 57 63 52 57 63 53 58 64 53 58 64 53 58 64 53 58 64 52 57 63 53 58 64 53 58 64 53 58 64 52 57 63 51 56 62 52 57 63 52 57 63 54 59 65 53 58 64 51 56 62 51 56 62 50 55 61 53 56 63 52 57 63 51 56 62 51 56 62 52 57 63 52 57 63 51 56 62 53 56 63 53 58 64 53 58 64 53 58 64 53 58 64 53 58 64 54 59 65 55 60 66 52 57 63 54 59 65 55 60 66 55 60 66 55 60 66 53 58 64 54 59 65 55 60 66 56 61 67 56 59 66 55 58 65 52 57 63 55 58 65 57 60 67 55 58 65 55 58 65 53 58 64 54 57 64 56 59 66 56 59 66 54 59 65 55 60 66 56 59 66 57 60 67 56 59 66 56 59 66 56 59 66 56 59 66 56 59 66 57 60 67 57 60 67 57 60 67 56 59 66 55 58 65 56 59 66 56 59 66 56 59 66 58 61 68 58 61 66 58 61 66 58 61 66 
57 62 68 57 62 68 57 62 68 57 62 68 53 58 64 52 57 63 54 59 65 54 59 65 55 60 66 56 61 67 56 61 67 55 60 66 54 59 65 55 60 66 57 62 68 56 61 67 53 58 64 51 56 62 52 57 63 52 57 63 53 58 64 52 57 63 52 57 63 51 56 62 51 56 62 52 57 63 51 56 62 52 57 63 55 60 66 53 58 64 53 58 64 52 57 63 51 56 62 53 58 64 53 58 64 51 56 62 50 55 61 52 57 63 52 57 63 52 57 63 51 56 62 51 56 62 50 55 61 50 55 61 50 55 61 52 57 63 53 58 64 52 57 63 50 55 61 49 54 60 50 55 61 53 58 64 54 59 65 53 58 64 52 57 63 52 57 63 53 58 64 53 58 64 53 58 64 52 57 63 53 58 64 54 59 65 53 58 64 54 59 65 54 59 65 55 60 66 55 60 66 57 62 68 55 58 65 54 57 64 52 57 63 53 56 63 54 57 64 55 58 65 54 57 64 53 58 64 55 58 65 55 58 65 56 59 66 54 59 65 55 60 66 56 59 66 57 60 67 55 58 65 56 59 66 56 59 66 57 60 67 56 59 66 56 59 66 56 59 66 57 60 67 55 58 65 56 59 66 57 60 67 56 59 66 55 58 65 56 59 64 56 59 66 56 59 64 56 59 64 
56 61 67 58 63 69 56 61 67 56 61 67 54 59 65 55 60 66 54 59 65 55 60 66 54 59 65 55 60 66 53 58 64 56 61 67 55 60 66 54 59 65 56 61 67 53 58 64 51 56 62 51 56 62 54 59 65 52 57 63 52 55 62 51 56 62 51 56 62 52 55 62 52 57 63 54 59 65 53 58 64 54 57 64 53 58 64 52 57 63 51 56 62 52 57 63 55 60 66 54 59 65 52 57 63 51 56 62 52 57 63 51 56 62 51 56 62 52 57 63 52 57 63 52 57 63 52 57 63 52 57 63 52 57 63 52 57 63 54 59 65 54 57 64 53 56 63 51 56 62 52 57 63 53 58 64 54 59 65 52 57 63 54 59 65 55 60 66 54 59 65 54 59 65 55 60 66 55 60 66 56 61 67 55 60 66 54 59 65 54 59 65 54 59 65 55 60 66 55 60 66 55 60 66 54 57 64 54 57 64 53 58 64 54 57 64 54 57 64 53 56 63 52 55 62 54 59 65 56 61 67 56 59 66 57 60 67 56 59 66 55 58 65 54 57 64 55 58 65 53 58 64 55 58 65 55 58 65 56 59 66 58 61 68 58 61 68 58 61 68 58 61 68 55 58 65 56 59 66 56 59 66 57 60 65 56 59 66 55 58 65 56 59 66 56 59 64 55 58 63 
55 60 66 56 61 67 56 61 67 57 62 68 52 57 63 52 57 63 53 58 64 54 59 65 53 58 64 53 58 64 54 59 65 53 58 64 53 58 64 52 57 63 53 58 64 53 58 64 53 58 64 53 58 64 53 58 64 52 57 63 52 57 63 51 56 62 52 57 63 52 57 63 51 56 62 51 56 62 52 57 63 52 57 63 52 57 63 53 58 64 53 58 64 51 56 62 55 60 66 53 58 64 53 58 64 51 56 62 51 56 62 51 56 62 51 56 62 51 56 62 50 55 61 52 57 63 51 56 62 52 57 63 52 57 63 52 57 63 53 58 64 53 58 64 53 58 64 52 57 63 53 58 64 53 58 64 53 58 64 53 58 64 56 61 67 56 61 67 56 61 67 54 59 65 55 60 66 57 62 68 56 61 67 57 62 68 55 60 66 55 60 66 55 60 66 56 61 67 55 60 66 55 60 66 54 57 64 55 58 65 54 59 65 55 60 66 55 58 65 53 56 63 53 56 63 55 58 65 54 59 65 54 57 64 54 57 64 55 58 65 54 57 64 54 57 64 55 58 65 54 59 65 56 59 66 57 60 67 56 59 66 56 59 66 57 60 67 58 61 68 56 59 66 56 59 66 56 59 66 56 59 66 57 60 67 56 59 66 57 60 67 57 60 67 58 61 66 56 59 64 
54 59 65 55 60 66 55 60 66 55 60 66 53 58 64 53 58 64 53 58 64 55 60 66 54 59 65 52 57 63 52 57 63 54 59 65 53 58 64 50 55 61 52 57 63 52 57 63 52 57 63 53 58 64 52 57 63 52 57 63 51 56 62 54 57 64 53 58 64 50 57 63 52 57 63 51 56 62 49 54 60 52 55 62 52 57 63 53 58 64 52 57 63 51 56 62 52 57 63 52 57 63 52 57 63 52 57 63 50 55 61 52 57 63 51 56 62 50 55 61 50 55 61 51 56 62 52 57 63 52 57 63 51 56 62 51 56 62 53 58 64 53 58 64 55 60 66 54 59 65 52 57 63 52 57 63 53 58 64 54 59 65 55 60 66 55 60 66 56 61 67 54 59 65 55 60 66 56 61 67 56 61 67 55 60 66 55 60 66 56 61 67 57 62 68 55 60 66 54 59 65 54 59 65 55 58 65 55 58 65 54 59 65 55 60 66 56 59 66 54 57 64 54 57 64 55 58 65 55 58 65 53 56 63 54 57 64 53 58 64 53 58 64 55 58 65 56 59 66 57 60 67 56 59 66 57 60 67 56 59 66 56 59 66 56 59 66 57 60 67 56 59 66 57 60 67 57 60 67 58 61 68 57 60 67 56 59 64 57 60 67 57 60 65 56 59 64 57 60 65 
55 60 66 55 60 66 55 60 66 55 60 66 53 58 64 54 59 65 54 59 65 53 58 64 54 59 65 52 57 63 52 57 63 52 57 63 51 56 62 51 56 62 51 56 62 52 57 63 51 56 62 51 56 62 51 56 62 51 56 62 53 58 64 52 57 63 52 57 63 54 59 65 52 57 63 52 55 62 51 56 62 52 57 63 52 57 63 51 56 62 51 56 62 50 55 61 51 56 62 51 54 61 51 56 62 50 55 61 52 57 63 52 57 63 51 56 62 50 55 61 51 56 62 52 57 63 51 56 62 51 56 62 51 56 62 52 57 63 53 58 64 53 58 64 54 59 65 54 59 65 53 58 64 54 59 65 55 60 66 54 59 65 55 60 66 53 58 64 54 59 65 53 58 64 55 60 66 54 59 65 54 59 65 55 60 66 55 60 66 55 60 66 54 59 65 54 59 65 54 59 65 55 60 66 55 58 65 54 57 64 55 58 65 54 59 65 56 59 66 52 59 65 54 59 65 55 58 65 55 58 65 55 58 65 55 58 65 55 58 65 56 59 66 56 59 66 56 59 66 57 60 67 56 61 67 57 62 68 56 59 66 55 58 65 55 58 65 54 57 64 55 58 65 57 60 67 56 59 66 56 59 64 56 59 66 57 60 65 57 60 67 57 60 67 57 60 67 56 59 64 
56 61 67 56 61 67 55 60 66 54 59 65 54 59 65 55 60 66 54 59 65 54 59 65 54 59 65 53 58 64 52 57 63 52 57 63 52 57 63 52 57 63 52 57 63 51 56 62 51 56 62 51 56 62 52 57 63 53 58 64 52 57 63 52 57 63 52 55 62 52 57 63 52 57 63 52 57 63 52 57 63 50 57 63 51 56 62 51 56 62 51 56 62 51 56 62 51 54 61 51 56 62 51 56 62 52 57 63 52 57 63 51 56 62 51 56 62 52 57 63 53 56 63 54 59 65 52 57 63 51 56 62 48 53 59 52 57 63 53 58 64 54 59 65 53 58 64 55 60 66 54 59 65 54 59 65 54 59 65 54 59 65 54 59 65 53 58 64 54 59 65 54 59 65 55 60 66 53 58 64 53 58 64 54 59 65 55 60 66 55 60 66 53 58 64 53 58 64 54 59 65 55 60 66 56 59 66 56 59 66 56 59 66 55 60 66 54 59 65 55 58 65 55 58 65 55 58 65 55 58 65 56 61 67 55 60 66 56 59 66 56 59 66 56 61 67 56 61 67 57 60 67 55 60 66 56 59 66 56 59 66 55 60 66 56 59 66 56 59 66 55 58 65 57 60 67 57 60 67 56 59 66 56 59 66 57 60 67 57 60 65 58 61 68 57 60 67 56 59 64 
56 61 67 55 60 66 55 60 66 53 58 64 54 59 65 54 59 65 53 58 64 54 59 65 54 59 65 53 58 64 53 58 64 54 59 65 54 59 65 52 57 63 52 57 63 51 56 62 50 55 61 50 55 61 53 58 64 53 58 64 52 59 65 53 58 64 51 56 62 50 55 61 53 58 64 54 57 64 52 57 63 52 57 63 50 55 61 50 55 61 53 56 63 52 57 63 52 57 63 53 58 64 53 58 64 53 58 64 52 57 63 51 56 62 51 56 62 51 56 62 54 59 65 55 60 66 53 56 63 50 55 61 49 54 60 52 57 63 55 60 66 54 59 65 53 58 64 52 57 63 54 59 65 54 59 65 53 58 64 52 57 63 54 59 65 53 58 64 53 58 64 53 58 64 54 59 65 53 58 64 52 57 63 54 59 65 55 60 66 54 59 65 53 58 64 52 57 63 54 59 65 55 60 66 57 60 67 56 59 66 55 60 66 53 58 64 54 57 64 54 57 64 54 57 64 54 57 64 55 58 65 56 59 66 55 58 65 56 59 66 56 59 66 57 60 67 57 60 67 57 60 67 57 60 67 55 60 66 55 58 65 55 58 65 56 59 66 56 59 66 56 59 66 57 60 67 57 60 67 56 59 66 57 60 67 57 60 67 56 59 66 56 59 66 57 60 65 54 57 64 
56 61 67 55 60 66 54 59 65 53 58 64 53 58 64 54 59 65 52 57 63 52 57 63 53 58 64 54 59 65 53 58 64 53 58 64 52 57 63 53 58 64 51 56 62 51 56 62 51 56 62 50 55 61 51 56 62 52 57 63 53 58 64 54 59 65 53 56 63 51 56 62 51 56 62 52 57 63 52 57 63 51 56 62 51 56 62 50 55 61 51 56 62 52 55 62 52 57 63 52 57 63 54 59 65 53 58 64 51 56 62 52 57 63 51 56 62 51 56 62 53 58 64 52 57 63 53 58 64 52 57 63 52 57 63 53 58 64 53 58 64 53 58 64 54 59 65 54 59 65 54 59 65 54 59 65 53 58 64 51 56 62 52 57 63 52 57 63 53 58 64 52 57 63 53 58 64 54 59 65 54 59 65 55 60 66 55 60 66 54 59 65 54 59 65 54 59 65 55 60 66 56 61 67 57 60 67 56 61 67 55 60 66 56 59 66 56 59 66 56 59 66 53 58 64 55 58 65 55 58 65 55 60 66 54 59 65 56 59 66 56 59 66 54 59 65 55 60 66 56 59 66 55 60 66 56 59 66 56 59 66 55 58 65 56 59 66 56 59 66 57 60 67 58 61 68 57 60 67 58 61 68 59 62 69 57 60 67 56 59 64 56 59 66 56 59 66 55 58 63 
55 60 66 55 60 66 53 58 64 53 58 64 52 57 63 53 58 64 52 57 63 51 56 62 53 58 64 53 58 64 52 57 63 52 57 63 51 56 62 51 56 62 52 57 63 52 57 63 49 54 60 50 55 61 51 56 62 51 56 62 54 57 64 53 58 64 52 57 63 51 56 62 51 56 62 51 56 62 52 57 63 53 58 64 52 57 63 51 56 62 50 55 61 51 54 61 51 56 62 52 57 63 53 58 64 52 57 63 50 55 61 53 58 64 52 57 63 52 57 63 52 57 63 52 57 63 51 56 62 52 57 63 53 58 64 52 57 63 53 58 64 53 58 64 55 60 66 53 58 64 55 60 66 54 59 65 53 58 64 54 59 65 52 57 63 52 57 63 53 58 64 53 58 64 53 58 64 55 60 66 55 60 66 55 60 66 55 60 66 55 60 66 53 58 64 54 59 65 55 60 66 56 61 67 55 60 66 56 59 66 56 59 66 55 60 66 55 58 65 55 58 65 54 57 64 54 59 65 54 59 65 55 58 65 56 59 66 54 59 65 54 59 65 54 57 64 55 58 65 54 59 65 55 60 66 56 59 66 56 59 66 57 60 67 57 60 67 56 59 66 57 60 67 58 61 68 58 61 68 58 61 68 58 61 68 57 60 65 57 60 65 56 59 66 56 59 64 56 59 64 
54 59 65 54 59 65 53 58 64 51 56 62 52 57 63 53 58 64 52 57 63 51 56 62 50 55 61 53 58 64 53 58 64 52 57 63 50 55 61 52 57 63 52 57 63 52 57 63 51 56 62 51 56 62 53 58 64 51 56 62 49 54 60 51 56 62 50 55 61 52 57 63 50 55 61 48 53 59 48 53 59 53 56 63 54 59 65 51 56 62 51 54 61 51 56 62 51 56 62 50 55 61 48 53 59 49 54 60 50 55 61 52 57 63 52 57 63 53 58 64 50 55 61 52 57 63 54 57 64 52 57 63 53 58 64 53 58 64 51 56 62 52 57 63 53 58 64 53 58 64 52 57 63 54 59 65 54 59 65 54 59 65 53 58 64 53 58 64 53 58 64 52 57 63 53 58 64 55 60 66 55 60 66 55 60 66 54 59 65 54 59 65 54 59 65 54 59 65 54 59 65 55 60 66 55 60 66 56 59 66 57 60 67 57 60 67 56 59 66 56 59 66 56 59 66 55 58 65 55 58 65 55 58 65 56 59 66 55 58 65 55 58 65 53 56 63 54 57 64 54 57 64 56 59 66 56 61 67 57 60 67 57 60 67 57 60 67 57 60 67 57 60 67 57 60 67 58 61 68 57 60 67 59 62 67 57 60 65 57 60 67 57 60 67 57 60 65 56 59 64 
