P3
100 50
255
48 53 59 48 53 59 46 51 57 46 51 57 45 50 56 43 48 54 41 46 52 40 45 49 39 42 49 37 40 45 36 39 44 35 38 43 36 37 42 37 40 45 38 41 48 38 41 48 39 42 49 40 43 50 41 44 51 42 45 52 41 46 50 42 47 51 43 48 52 43 48 52 44 49 53 44 49 53 45 50 54 45 50 54 45 48 53 44 47 54 44 47 54 45 48 55 46 49 56 48 51 58 48 51 58 46 51 57 47 50 57 45 50 56 47 52 58 48 53 59 46 51 57 44 49 55 45 50 56 43 50 56 46 51 57 46 51 57 43 48 54 43 46 53 42 47 53 43 48 54 43 46 53 41 46 52 43 48 54 43 48 54 45 50 56 42 47 53 42 47 53 42 47 53 45 50 54 44 49 53 43 50 58 42 49 55 44 49 53 41 46 50 39 47 50 39 44 48 38 43 49 37 41 50 39 42 47 41 44 49 44 45 50 44 45 50 44 45 50 43 44 49 42 43 48 42 43 48 43 44 49 43 42 48 39 40 45 38 39 44 37 38 42 39 40 44 45 46 50 46 47 51 46 47 51 45 46 50 44 45 49 44 43 48 44 43 48 46 46 48 46 46 48 43 43 45 44 44 46 47 47 49 51 46 50 49 47 50 51 49 52 49 47 50 53 48 52 50 48 51 
47 52 58 46 51 57 45 50 56 43 48 54 42 47 51 40 43 48 39 42 47 40 43 48 35 40 44 34 38 41 33 36 41 34 37 42 36 39 44 38 41 46 37 40 47 37 40 47 38 41 46 39 42 47 41 44 49 42 45 50 40 45 49 40 45 49 41 46 50 43 48 52 43 48 52 43 48 52 43 48 52 44 49 53 48 49 54 47 50 57 43 48 54 42 47 53 42 47 53 44 49 55 43 48 54 44 49 55 44 49 55 44 49 55 46 51 57 46 51 57 45 50 56 44 49 55 43 48 54 42 46 55 39 44 50 43 48 54 41 46 52 42 45 52 41 46 52 43 48 54 44 47 54 42 47 53 41 46 52 42 47 51 44 49 55 41 46 52 40 45 51 40 45 49 43 48 52 41 46 50 39 47 50 39 47 50 38 46 49 37 42 46 38 43 47 39 44 48 38 43 47 39 42 47 43 44 49 42 43 48 42 43 48 42 43 48 43 42 48 42 41 47 42 41 47 40 41 46 39 40 45 39 40 45 38 39 44 37 38 42 38 39 43 42 43 47 45 44 49 46 45 50 46 47 51 46 47 51 46 47 51 46 45 50 45 45 47 46 46 48 48 48 50 48 48 50 49 47 50 49 49 51 49 47 50 49 47 50 51 46 50 52 47 51 53 48 52 51 49 52 
48 53 59 44 49 55 43 48 54 40 45 51 39 44 48 37 42 45 37 42 46 37 40 45 35 40 44 33 36 41 32 35 40 35 38 43 36 39 44 37 40 45 37 40 45 38 41 46 38 41 46 39 42 47 40 43 48 40 43 48 41 46 52 40 43 48 39 44 48 42 47 51 42 47 51 42 47 51 44 47 52 44 49 53 44 49 55 43 48 52 44 49 55 43 48 54 40 45 49 41 46 52 42 46 55 42 47 53 43 46 53 42 47 51 43 48 52 44 49 55 42 47 53 41 46 52 41 46 52 39 44 50 39 44 50 43 48 54 41 46 52 42 45 52 41 46 52 42 47 53 42 45 52 41 46 52 40 45 51 41 46 52 43 48 54 41 46 52 40 45 51 39 44 48 39 44 48 39 44 48 39 44 48 38 43 47 40 45 49 38 41 46 37 42 46 38 41 46 41 42 47 42 43 48 44 45 50 43 44 49 43 42 47 42 41 46 46 41 47 42 41 46 41 40 46 39 38 44 38 39 44 37 38 43 38 39 44 38 39 43 39 40 44 41 42 46 44 45 49 46 45 50 46 45 50 46 45 50 47 46 51 46 45 50 46 46 48 47 47 49 50 48 51 51 49 52 51 49 52 49 49 51 50 48 51 51 46 50 52 47 51 52 47 51 55 50 54 54 49 53 
44 49 53 40 45 51 38 43 49 35 40 46 35 40 46 34 39 45 33 38 42 32 37 41 34 39 43 34 39 43 34 39 43 35 38 43 37 38 43 35 38 43 34 39 42 35 40 43 34 39 43 34 39 43 34 39 43 35 40 44 38 41 46 38 43 47 40 43 48 39 42 47 39 42 47 40 43 48 41 46 50 42 45 50 42 47 53 42 47 51 40 45 51 41 46 52 41 46 52 41 46 52 40 45 49 40 45 51 41 44 49 38 43 47 38 43 47 39 44 50 38 43 49 40 45 49 39 44 48 38 43 49 40 45 49 40 45 49 40 45 49 41 44 49 39 44 48 39 44 48 40 43 48 39 44 48 40 43 48 40 43 50 40 45 51 39 44 50 37 42 46 36 41 45 36 41 45 35 40 44 38 41 46 39 44 48 40 45 49 38 41 46 39 42 47 41 42 47 41 40 46 46 41 48 42 40 45 43 41 46 44 42 47 42 41 46 43 41 46 43 42 47 42 41 46 39 40 44 39 38 44 38 37 42 40 39 44 41 40 45 41 42 46 45 44 49 45 45 47 45 45 47 44 44 46 43 43 45 46 46 48 46 46 48 47 47 49 47 47 49 49 49 51 50 48 51 47 47 49 48 46 49 50 45 49 52 47 51 52 47 51 53 48 52 52 47 51 52 47 51 
39 44 48 37 42 46 36 41 45 34 39 43 32 37 41 31 36 40 30 35 39 30 33 38 31 34 39 31 36 40 33 36 41 33 36 41 32 37 41 30 35 39 30 35 39 32 35 40 33 36 41 30 35 39 30 35 39 32 37 41 33 38 42 34 39 43 31 36 40 32 37 41 36 39 44 38 41 46 38 41 46 38 41 46 39 44 48 40 43 48 40 43 48 39 44 48 39 44 48 41 46 50 40 45 49 38 43 47 38 43 47 36 41 45 36 41 45 37 40 45 36 39 44 36 41 45 36 41 45 36 41 45 36 41 45 38 41 46 39 42 47 38 41 46 36 41 45 36 41 45 38 43 47 40 43 48 38 43 49 37 42 48 39 44 48 39 44 48 37 42 46 36 41 45 37 40 45 34 37 42 37 41 44 39 43 46 39 43 46 37 41 44 39 40 44 39 40 44 40 39 44 42 40 45 43 41 46 44 42 47 45 40 44 44 42 45 43 41 44 44 42 45 44 42 45 41 40 45 40 39 44 40 39 44 42 41 46 45 43 46 44 44 46 45 45 47 48 48 50 45 45 47 45 43 46 45 43 46 48 46 49 46 46 48 46 46 48 50 48 51 53 51 54 50 48 51 47 45 48 48 43 47 46 44 47 54 49 53 54 48 52 51 46 50 49 44 48 47 42 46 
36 41 45 37 42 46 35 40 44 33 38 42 31 36 40 31 36 40 28 36 39 26 34 37 28 33 37 29 34 38 29 37 40 30 35 39 31 34 39 29 34 38 30 35 39 31 36 40 30 38 41 28 38 40 27 35 38 30 38 41 32 37 41 33 38 42 32 37 41 32 37 41 34 39 43 35 40 44 35 40 44 36 41 45 36 41 45 37 42 46 36 41 45 34 39 43 36 41 45 36 41 45 36 41 45 37 42 46 35 43 46 35 40 44 33 41 44 34 39 43 33 38 42 33 41 44 34 39 43 31 39 42 35 40 44 37 40 45 37 40 45 36 39 44 34 39 43 33 38 42 35 40 44 37 40 45 37 42 46 36 41 45 39 42 47 38 41 46 37 40 45 38 42 45 36 41 44 35 39 42 38 39 43 37 41 44 39 43 46 39 40 42 43 44 46 42 42 44 43 41 44 42 40 43 43 41 44 41 39 44 43 38 42 43 41 44 45 40 44 40 38 43 42 40 45 41 40 45 39 38 43 41 40 45 44 42 45 45 43 46 46 44 47 46 44 47 47 45 48 45 43 46 46 44 47 46 46 48 48 48 50 47 47 49 49 47 48 49 47 48 50 48 51 51 49 52 49 47 50 47 45 48 46 44 47 52 47 51 50 44 48 47 41 45 45 40 44 45 40 44 
34 39 43 32 37 41 32 37 41 31 36 40 26 34 37 30 35 39 29 34 38 28 33 37 26 31 35 27 32 36 28 33 37 28 33 37 28 33 37 27 32 36 30 35 39 31 36 40 29 37 40 28 36 39 28 33 37 31 34 39 31 36 40 32 37 41 31 36 40 33 38 42 32 37 41 33 38 42 32 37 41 35 40 44 35 40 44 36 41 45 35 40 44 35 40 44 33 38 42 33 38 42 33 38 42 32 40 43 34 39 43 31 39 42 33 38 42 31 36 40 32 37 41 32 37 41 30 38 41 32 37 41 32 37 41 33 36 41 37 40 45 36 39 44 33 38 42 32 37 41 32 37 41 36 39 44 35 40 44 34 37 42 36 39 46 35 38 43 35 38 43 36 40 43 36 37 41 37 38 40 39 40 42 42 43 45 45 45 47 42 43 45 45 45 47 45 45 47 44 42 45 45 40 44 41 39 42 43 37 41 45 41 42 45 40 44 44 42 45 42 37 41 41 39 42 42 40 45 42 40 43 41 39 42 44 42 45 47 42 46 45 43 46 48 43 47 47 42 46 48 43 47 49 44 48 49 44 48 52 47 51 51 47 48 51 47 48 51 47 48 53 49 50 51 46 50 49 44 48 48 43 47 48 43 47 48 43 49 47 42 46 47 42 46 48 43 47 48 43 47 
32 37 41 30 35 39 30 35 39 29 34 38 28 33 37 30 35 39 29 34 38 27 32 36 25 30 34 26 31 35 27 32 36 28 33 37 28 33 37 29 34 38 32 37 41 32 37 41 30 35 39 29 34 38 28 33 37 28 36 39 30 35 39 31 36 40 31 36 40 33 38 42 34 39 43 33 38 42 33 38 42 34 39 43 34 37 42 35 40 44 35 40 44 34 39 43 32 37 41 31 36 40 32 37 41 31 39 42 34 39 43 32 37 41 31 36 40 32 37 41 31 36 40 32 37 41 31 36 40 30 35 39 30 35 39 32 35 40 34 37 42 35 38 43 33 38 42 31 36 40 32 37 41 34 37 42 35 36 41 32 35 40 35 38 43 34 37 42 34 37 42 33 37 40 35 36 40 38 37 42 44 42 45 46 46 48 49 47 50 46 47 49 48 46 49 48 46 49 48 43 47 46 41 45 42 40 45 45 40 44 46 41 45 46 41 47 46 40 44 44 39 43 44 39 43 46 41 45 46 41 45 46 41 45 47 42 46 48 43 47 48 43 47 47 42 46 48 43 47 49 44 48 51 47 48 52 48 49 51 47 48 51 47 48 52 48 49 52 48 49 54 48 50 51 47 46 49 45 46 48 44 45 48 44 45 46 41 45 46 40 42 48 42 46 49 45 46 50 46 47 
32 37 41 30 35 39 29 34 38 29 34 38 27 32 36 30 35 39 28 36 39 27 35 38 26 31 35 29 34 38 28 33 37 28 33 37 25 33 36 28 36 39 32 37 41 31 36 40 31 36 40 30 35 39 30 35 39 30 35 39 30 35 39 31 36 40 31 36 40 35 40 44 33 38 42 33 38 42 32 37 41 34 39 43 33 38 42 35 40 44 34 39 43 33 38 42 31 36 40 29 34 38 30 35 39 33 36 41 31 36 40 30 35 39 30 35 39 29 34 38 31 36 40 32 37 41 31 36 40 29 34 38 25 30 34 31 34 39 33 36 41 35 38 43 34 39 43 31 36 40 32 37 41 33 36 41 31 36 40 31 34 39 33 36 41 34 35 40 34 33 38 33 34 38 35 34 39 42 42 44 50 48 51 53 48 52 53 48 52 51 46 50 51 46 50 51 46 50 50 44 48 47 41 45 45 40 44 48 42 46 49 44 48 48 43 47 46 42 43 47 41 45 47 41 45 51 45 47 51 45 49 51 45 49 50 44 48 50 44 48 51 45 49 50 44 48 52 46 50 54 48 52 56 50 54 57 51 53 54 48 50 56 50 52 55 49 51 54 48 50 51 45 47 53 47 49 50 46 47 50 46 47 51 45 47 49 43 45 46 40 42 49 43 45 51 47 48 53 47 49 
27 32 36 30 35 39 29 34 38 29 34 38 29 34 38 29 34 38 31 34 39 29 34 38 27 32 36 29 34 38 28 36 39 30 35 39 29 34 38 31 36 40 31 36 40 32 37 41 32 37 41 33 38 42 33 38 42 31 36 40 30 35 39 30 35 39 32 37 41 33 38 42 34 39 43 34 39 43 33 38 42 32 37 41 32 37 41 33 38 42 31 39 42 33 38 42 31 36 40 32 35 40 32 37 41 33 38 42 31 36 40 31 36 40 30 35 39 31 36 40 31 36 40 33 38 42 34 39 43 32 37 41 29 34 38 32 35 40 32 35 40 33 36 41 32 37 41 29 34 38 29 34 38 29 32 37 28 31 36 28 33 37 30 33 38 37 38 43 39 38 44 39 38 43 41 41 43 52 47 51 54 49 53 51 46 50 50 44 46 48 42 44 52 46 46 52 46 46 55 46 47 56 47 48 54 48 50 51 45 47 48 42 42 49 43 45 51 42 45 51 45 47 53 44 47 55 46 49 56 47 52 56 47 52 52 46 50 53 44 49 54 48 52 57 51 55 55 49 53 55 49 53 56 50 52 56 50 52 56 47 50 56 50 52 57 51 53 57 51 53 55 49 51 54 48 50 52 46 50 56 47 50 55 49 53 54 50 51 50 44 48 52 43 46 51 45 49 52 46 48 
28 33 37 28 33 37 29 34 38 27 32 36 28 33 37 28 33 37 28 33 37 28 33 37 25 33 36 28 33 37 29 34 38 30 35 39 30 35 39 30 35 39 31 34 39 31 34 39 30 35 39 31 36 40 31 36 40 30 33 38 30 35 39 30 35 39 31 36 40 32 37 41 32 35 40 34 37 42 33 36 41 32 35 40 34 37 42 33 38 42 33 38 42 31 36 40 32 37 41 32 37 41 34 39 43 35 40 44 33 38 42 33 36 41 31 36 40 30 35 39 31 36 40 32 37 41 33 36 41 32 37 41 31 36 40 34 37 42 32 35 40 34 37 42 33 38 42 30 35 39 32 37 41 32 35 40 34 35 40 31 34 39 33 36 41 38 39 43 38 39 43 42 42 44 45 43 46 51 47 48 52 47 51 52 46 48 50 44 46 50 44 46 52 43 46 53 44 45 54 45 46 57 47 48 60 50 51 58 48 49 54 45 46 51 42 45 49 43 45 55 46 49 57 48 51 56 47 50 56 47 52 54 48 52 52 46 50 52 46 50 51 45 49 54 48 52 53 47 49 52 46 48 52 46 48 56 50 52 57 51 55 57 52 58 60 54 58 61 52 57 59 50 55 55 49 51 55 49 53 56 50 52 56 50 54 53 47 47 56 47 52 56 47 50 57 48 53 55 46 51 
29 34 38 29 34 38 29 34 38 29 34 38 28 33 37 30 33 38 30 33 38 29 34 38 29 34 38 30 33 38 29 34 38 31 36 40 33 36 41 31 36 40 30 35 39 30 33 38 31 34 39 33 36 41 32 35 40 33 34 39 31 34 39 32 35 40 34 37 42 33 36 41 33 36 41 35 38 43 35 38 43 33 36 41 34 39 43 34 39 43 34 37 42 32 35 40 33 36 41 33 38 42 34 37 42 35 38 43 34 37 42 33 38 42 33 36 41 32 37 41 32 37 41 32 35 40 31 36 40 33 36 41 33 38 42 35 38 43 34 37 42 34 37 42 34 39 43 32 37 41 31 36 40 32 35 40 30 35 39 31 36 40 33 36 41 35 36 40 39 38 43 41 41 43 44 42 45 52 46 50 54 48 50 52 46 48 53 44 47 54 43 47 54 45 46 56 46 47 57 49 47 59 49 48 64 52 52 61 51 52 58 48 49 56 46 47 54 45 48 57 46 50 57 48 51 56 47 50 51 45 49 50 44 48 50 45 49 51 45 49 50 45 49 53 47 49 54 48 50 53 47 49 53 47 49 54 48 50 57 51 53 60 54 58 58 52 56 57 50 57 58 49 54 59 48 54 58 52 56 59 50 55 56 50 54 53 47 49 55 46 51 57 48 51 56 47 52 56 47 52 
31 36 40 30 35 39 29 34 38 30 35 39 30 33 38 30 33 38 32 35 40 31 34 39 32 35 40 31 34 39 31 34 39 32 35 40 33 36 41 34 37 42 30 35 39 30 35 39 31 36 40 30 35 39 33 36 41 32 35 40 32 35 40 34 37 42 31 39 42 34 39 43 34 39 43 36 39 44 36 39 44 34 39 43 34 39 43 33 38 42 33 38 42 32 37 41 33 38 42 32 37 41 31 36 40 32 37 41 35 38 43 35 38 43 33 38 42 34 37 42 35 38 43 31 34 39 32 35 40 32 37 41 33 38 42 32 37 41 32 37 41 35 38 43 36 39 44 34 37 42 33 36 41 32 35 40 32 35 40 32 35 40 34 37 42 33 34 36 36 37 41 39 37 42 46 41 45 52 46 50 55 49 53 55 46 49 54 45 48 54 45 48 57 47 48 60 50 51 62 50 50 63 51 51 64 52 52 64 52 52 62 52 53 59 49 50 56 47 50 57 48 53 57 48 53 54 45 50 46 40 44 44 39 43 48 43 47 50 45 49 49 44 48 52 47 51 55 51 52 54 48 50 54 48 50 55 49 49 57 51 53 57 51 53 57 51 55 55 49 53 54 48 52 56 50 52 58 52 56 57 51 55 56 47 52 54 45 50 55 46 51 57 48 53 58 49 54 58 49 54 
32 37 41 31 36 40 30 35 39 30 35 39 30 33 38 30 33 38 32 35 40 32 35 40 33 36 41 31 34 39 31 36 40 29 37 40 32 37 41 34 37 42 30 35 39 32 35 40 32 35 40 33 38 42 34 37 42 34 39 43 36 37 42 33 38 42 31 39 42 33 38 42 35 38 43 35 40 44 37 40 45 33 38 42 34 39 43 33 38 42 32 37 41 35 40 44 33 38 42 33 38 42 31 36 40 30 35 39 32 37 41 32 35 40 33 36 41 33 38 42 34 39 43 31 36 40 33 36 41 32 37 41 33 36 41 30 33 38 33 36 41 34 37 42 34 37 42 34 37 42 29 32 37 33 36 41 34 37 42 34 37 42 34 39 42 35 36 40 37 36 42 39 37 40 43 41 44 49 43 47 51 42 45 52 43 46 56 45 49 55 46 51 57 47 48 59 49 50 61 49 51 65 53 53 69 57 57 67 55 55 65 53 55 60 50 51 56 47 50 57 48 51 52 46 48 46 42 43 41 36 40 44 42 45 47 45 46 50 45 49 52 47 53 55 51 52 57 51 55 57 53 54 57 51 53 57 51 55 57 51 51 55 49 53 54 48 50 54 48 52 54 48 52 56 50 54 56 50 54 53 47 51 51 45 49 52 47 51 54 48 52 56 50 54 58 52 56 60 51 56 
30 35 39 30 35 39 28 33 37 28 33 37 29 34 38 30 35 39 30 35 39 31 36 40 32 37 41 31 36 40 32 35 40 35 36 41 33 38 42 34 37 42 33 38 42 34 37 42 34 37 42 35 40 44 36 39 44 35 40 44 35 38 43 35 38 43 33 38 42 36 39 44 37 40 45 37 40 45 36 41 45 34 37 42 34 39 43 32 37 41 31 36 40 34 39 43 33 38 42 33 38 42 33 38 42 32 37 41 35 38 43 30 35 39 32 37 41 33 36 41 33 36 41 32 37 41 32 37 41 33 36 41 31 34 39 32 35 40 32 35 40 32 35 40 33 36 41 33 36 41 31 34 39 33 36 41 32 35 40 32 35 40 34 37 42 36 37 41 38 37 42 37 36 41 43 38 42 46 41 45 51 42 45 52 46 50 56 47 50 58 47 51 59 49 50 61 51 52 64 54 55 67 55 55 72 60 60 71 59 59 65 55 56 61 50 54 55 46 49 57 48 51 50 44 46 46 42 43 43 43 45 47 47 49 52 50 55 53 48 52 55 50 54 56 52 53 58 52 56 58 53 57 57 53 54 58 52 54 59 53 57 57 51 55 55 49 53 54 48 52 54 47 54 59 49 57 55 50 56 54 49 55 46 44 49 51 46 52 52 47 51 55 49 53 59 53 57 59 53 57 
28 33 37 29 34 38 30 35 39 31 36 40 31 36 40 31 36 40 31 36 40 31 36 40 30 38 41 31 36 40 33 36 41 34 37 42 35 38 43 35 38 43 36 39 44 36 39 44 36 39 44 36 39 44 36 39 44 35 38 43 35 38 43 35 38 43 35 38 43 36 41 45 38 41 46 37 40 45 37 40 45 34 37 42 33 38 42 32 37 41 32 37 41 33 38 42 32 37 41 32 37 41 33 38 42 33 38 42 33 36 41 33 36 41 32 35 40 31 34 39 30 35 39 33 36 41 33 36 41 33 36 41 32 35 40 32 35 40 32 35 40 32 35 40 32 35 40 33 36 41 34 37 42 32 35 40 32 35 40 33 36 41 36 37 42 37 38 42 37 38 42 37 36 41 39 37 40 46 41 45 50 45 49 54 48 50 58 49 52 59 50 51 61 51 52 64 54 55 69 57 59 71 59 59 77 63 62 72 60 60 64 54 55 56 47 50 53 44 49 53 47 51 50 45 49 47 45 48 47 45 48 52 50 53 56 51 55 57 52 56 58 54 55 59 54 58 57 55 56 57 52 56 56 52 53 57 53 54 60 55 59 59 54 58 57 51 55 56 50 54 56 49 56 57 50 57 55 50 57 55 50 57 53 48 54 52 47 54 50 48 53 52 47 53 53 48 54 54 47 54 
29 34 38 30 33 38 30 35 39 31 36 40 31 36 40 31 36 40 32 37 41 31 36 40 33 36 41 32 35 40 34 37 42 35 38 43 36 39 44 36 39 44 35 38 43 36 39 44 35 38 43 35 38 43 35 38 43 37 40 45 36 39 44 36 39 44 38 39 44 36 41 45 37 40 45 37 40 45 36 39 44 34 37 42 34 37 42 32 35 40 33 36 41 33 36 41 33 36 41 35 38 43 36 39 44 34 37 42 34 37 42 33 36 41 32 35 40 32 35 40 31 34 39 33 36 41 33 36 41 33 36 41 35 38 43 32 35 40 33 36 41 32 35 40 32 35 40 34 37 42 35 38 43 34 37 42 33 36 41 36 37 42 37 38 43 38 39 44 38 37 42 37 38 42 38 36 39 46 41 45 52 48 49 55 49 51 57 48 51 61 51 52 64 54 55 67 57 56 69 59 58 70 59 63 75 63 63 69 59 58 62 52 53 54 45 48 52 46 50 53 48 52 50 45 49 50 45 49 52 47 51 55 50 54 57 53 54 59 53 55 59 55 56 60 56 57 57 55 58 57 52 56 55 50 54 54 49 53 59 54 58 58 53 60 56 51 55 55 50 56 56 51 58 55 50 56 55 50 56 53 47 57 53 48 55 52 49 56 50 45 52 48 45 52 47 45 50 50 47 54 
33 36 41 33 36 41 32 37 41 32 35 40 31 36 40 32 37 41 32 37 41 33 36 41 33 36 41 32 35 40 33 36 41 34 37 42 34 37 42 35 38 43 35 38 43 36 39 44 35 38 43 35 38 43 35 38 43 35 38 43 36 39 44 36 39 44 35 38 43 36 39 44 35 38 43 36 39 44 34 39 43 35 36 41 34 37 42 33 36 41 34 37 42 34 37 42 33 36 41 34 37 42 35 38 43 34 37 42 34 37 42 33 36 41 33 36 41 33 36 41 32 35 40 32 35 40 32 35 40 32 35 40 35 38 43 32 35 40 34 37 42 34 37 42 33 36 41 34 37 42 37 40 45 37 38 43 38 39 44 36 39 44 40 41 46 39 38 44 40 39 44 40 39 44 39 39 41 46 41 45 54 50 51 58 49 52 56 51 48 63 54 59 64 55 56 67 57 58 68 58 59 69 59 60 71 61 62 65 55 56 58 49 52 51 45 47 50 45 49 52 47 51 52 47 51 52 47 51 53 48 52 54 49 53 56 51 55 58 52 54 58 54 55 59 53 55 58 52 56 55 50 54 53 48 54 52 47 51 55 50 56 55 50 56 56 51 57 56 51 57 57 52 59 55 50 57 54 51 58 51 48 55 49 48 54 48 47 53 45 44 49 44 43 49 44 41 48 47 44 51 
29 32 37 29 32 37 30 35 39 32 35 40 33 38 42 33 36 41 33 36 41 33 36 41 33 36 41 32 35 40 32 35 40 32 35 40 32 35 40 34 37 42 37 40 45 36 39 44 37 40 45 37 40 45 38 41 46 37 40 45 38 41 46 36 41 45 37 40 45 36 39 44 37 40 45 37 40 45 36 39 44 35 38 43 35 38 43 36 39 44 36 39 44 37 40 45 35 38 43 35 38 43 34 37 42 34 37 42 35 38 43 35 38 43 34 37 42 35 38 43 35 38 43 36 37 42 32 35 40 31 36 40 33 36 41 30 33 38 33 36 41 37 38 43 38 39 44 36 37 42 39 40 45 39 40 45 39 40 45 40 41 46 43 44 48 41 40 46 40 39 44 40 40 42 44 42 45 49 47 50 53 49 50 56 50 52 57 48 51 62 53 56 60 51 54 60 51 54 62 53 54 62 53 54 60 51 54 56 50 52 54 48 50 51 49 52 52 47 51 53 48 52 54 49 53 54 49 53 52 47 51 57 53 54 56 51 55 56 50 52 54 50 51 54 50 51 55 51 52 53 51 54 55 50 54 55 50 54 56 50 54 54 47 54 54 49 55 54 49 55 52 47 54 50 45 52 50 47 54 49 48 54 45 46 51 44 43 49 42 43 48 42 41 47 42 41 47 41 40 48 
31 34 39 31 34 39 31 34 39 31 34 39 34 37 42 33 36 41 32 35 40 33 36 41 35 38 43 36 39 44 33 36 41 33 36 41 33 36 41 35 38 43 36 39 44 36 39 44 37 40 45 36 39 44 36 39 44 36 39 44 35 40 44 36 39 44 37 40 45 37 40 45 37 42 46 38 41 46 35 38 43 36 39 44 36 39 44 37 40 45 38 41 46 38 41 46 37 40 45 34 37 42 33 36 41 33 36 41 35 38 43 35 38 43 37 38 43 37 38 43 37 38 43 37 40 45 36 39 44 37 38 43 37 38 43 33 34 39 35 36 41 38 39 44 38 39 44 37 38 43 38 39 44 40 41 46 40 41 46 40 41 46 42 42 50 41 40 46 39 38 43 39 37 42 42 40 43 50 45 49 52 48 49 55 50 54 55 49 53 60 51 54 55 49 51 55 49 51 55 51 50 56 52 51 57 51 53 54 50 51 54 50 51 53 49 50 54 50 51 54 50 51 55 51 52 56 52 53 55 51 52 56 54 57 58 53 57 55 50 54 54 50 51 52 50 51 52 50 53 54 52 55 57 51 53 56 51 57 57 50 57 57 50 57 56 49 57 54 49 56 50 45 52 45 44 52 49 46 55 48 45 52 45 44 52 42 42 50 40 41 46 39 40 45 37 37 45 36 35 41 
32 35 40 31 34 39 33 36 41 33 36 41 35 38 43 33 36 41 32 37 41 34 37 42 36 39 44 37 40 45 35 38 43 35 38 43 35 38 43 38 41 46 37 40 45 36 39 44 38 39 44 36 39 44 37 40 45 36 39 44 37 40 45 37 40 45 37 40 45 37 40 45 38 41 46 38 41 46 36 39 44 36 39 44 37 40 45 37 40 45 37 40 45 37 40 45 37 40 45 35 38 43 33 36 41 35 38 43 37 40 45 36 39 44 38 39 44 38 39 44 38 39 44 40 41 46 36 39 44 36 39 44 37 38 43 34 35 40 36 37 41 37 38 43 38 39 44 38 39 44 38 39 44 39 40 45 40 41 46 40 41 46 42 43 48 43 42 47 41 40 46 40 39 44 44 42 45 50 45 49 52 47 51 52 47 51 54 48 52 56 50 54 54 48 52 54 48 50 55 49 51 55 49 51 57 52 56 57 53 54 55 51 52 55 51 52 56 52 53 53 48 52 53 48 52 55 50 54 55 50 56 59 54 58 58 53 57 56 51 55 53 48 54 52 47 51 52 50 53 53 51 54 56 51 55 56 51 55 57 52 58 55 50 56 54 49 55 51 46 53 49 44 51 46 43 50 47 46 54 45 44 52 39 39 47 35 38 45 34 37 44 33 36 41 31 34 39 28 32 35 
34 37 42 32 35 40 33 36 41 33 38 42 37 40 45 36 39 44 34 37 42 34 39 43 37 40 45 39 42 47 37 40 45 37 40 45 40 41 46 39 40 45 40 41 46 38 39 44 38 39 44 36 39 44 37 40 45 37 40 45 37 40 45 38 41 46 38 41 46 36 39 44 37 40 45 36 39 44 36 39 44 36 39 44 36 37 42 37 40 45 39 42 47 37 40 45 37 40 45 36 39 44 36 39 44 36 39 44 37 40 45 38 41 46 40 41 46 40 41 46 40 41 46 40 41 46 37 40 45 37 40 45 38 39 44 37 38 43 37 38 43 36 39 44 38 39 44 38 41 46 39 40 45 39 40 45 40 41 45 41 42 47 41 42 47 43 42 48 42 41 47 42 41 46 47 45 50 52 47 53 53 48 52 53 48 52 53 48 52 55 50 54 55 49 53 54 48 52 54 48 50 57 51 53 58 54 55 60 56 57 58 54 55 56 52 53 52 50 51 52 48 49 52 50 51 53 48 52 55 50 56 59 54 58 57 53 54 55 50 54 50 48 51 49 47 52 53 51 54 53 51 54 55 50 54 55 50 54 56 51 57 55 50 56 52 47 53 50 45 52 47 44 51 46 43 50 45 46 51 41 42 47 35 38 43 30 33 38 28 31 36 27 30 35 25 28 33 24 27 32 
34 37 42 32 35 40 33 36 41 36 39 44 39 42 47 38 41 46 37 40 45 37 40 45 38 41 46 39 42 47 38 41 46 39 40 45 39 40 45 40 41 46 37 40 45 39 40 45 39 40 45 40 41 46 38 41 46 38 41 46 40 43 48 40 43 48 39 42 47 36 39 44 35 38 43 36 39 44 37 40 45 36 39 44 36 39 44 39 42 47 38 41 46 36 39 44 37 40 45 37 40 45 38 41 46 38 41 46 38 39 44 39 40 45 40 41 46 41 42 47 40 41 46 41 42 47 40 41 46 40 41 46 39 42 47 37 40 45 37 40 45 38 39 44 36 39 44 43 43 51 39 40 45 41 42 47 41 42 47 41 42 47 42 41 47 42 41 47 42 41 47 43 42 48 46 44 49 53 48 54 54 49 53 55 50 54 55 50 54 57 52 58 54 49 53 50 45 49 52 47 51 54 49 53 58 52 54 59 55 56 58 54 55 54 52 53 51 49 52 51 49 52 49 47 50 50 48 51 53 51 54 56 54 57 53 51 54 49 47 50 47 45 48 48 46 49 53 51 56 53 51 54 52 50 53 50 48 53 53 51 56 50 48 53 48 45 52 46 43 50 46 43 50 42 41 47 39 40 45 35 36 41 29 32 37 25 30 34 21 26 30 21 26 30 21 26 30 18 26 29 
36 41 45 34 39 43 34 37 42 35 38 43 38 41 46 36 39 44 35 38 43 37 38 43 36 39 44 39 42 47 42 43 48 42 41 47 40 41 46 38 39 44 39 40 45 40 41 46 39 40 45 41 42 47 41 42 47 40 41 46 38 41 46 36 39 44 38 41 46 38 41 46 38 41 46 38 41 46 38 41 46 37 40 45 37 40 45 39 42 47 39 42 47 39 42 47 39 42 47 39 42 47 39 42 47 39 42 47 40 41 46 41 42 47 43 44 49 43 44 49 42 43 48 42 43 48 42 43 48 42 43 48 39 42 47 37 40 45 39 40 45 40 44 47 43 44 49 41 42 47 41 42 47 41 42 47 42 43 48 45 45 53 45 44 50 44 43 49 43 42 48 44 43 49 46 44 49 50 48 53 52 47 53 54 49 55 55 50 56 58 53 59 54 49 53 53 48 52 55 50 54 57 52 56 59 54 58 58 53 57 54 52 55 52 50 53 52 50 53 52 50 53 51 49 52 52 50 53 55 53 58 55 53 56 50 48 53 50 48 53 49 47 52 50 48 53 50 48 53 51 49 52 51 49 52 50 48 53 50 49 54 47 46 51 46 45 51 41 42 47 37 40 45 34 37 42 31 32 37 25 28 33 21 26 30 23 28 32 18 23 27 16 21 25 16 21 25 16 21 25 
38 41 46 36 39 44 37 40 45 39 42 47 40 43 48 38 41 46 37 40 45 39 42 47 41 42 47 41 42 47 40 41 46 39 40 45 39 40 45 40 41 46 40 41 46 41 42 47 43 44 49 42 43 48 39 42 47 39 42 47 38 41 46 38 41 46 40 43 48 40 41 46 40 41 46 38 41 46 37 40 45 37 40 45 39 42 47 38 41 46 39 42 47 39 42 47 41 42 47 42 43 48 42 43 48 41 42 47 42 43 48 44 45 50 43 44 49 44 45 50 44 45 50 45 46 51 45 46 51 43 44 49 42 43 48 39 40 44 42 43 48 44 45 49 43 44 49 40 41 46 40 41 46 42 43 48 43 44 49 46 47 52 44 43 48 44 43 48 45 44 50 45 44 50 46 44 49 47 45 50 52 47 53 53 48 54 56 51 57 57 52 58 54 49 55 55 50 56 56 54 57 58 56 59 61 56 60 56 54 57 55 50 56 50 48 53 51 50 55 54 52 57 51 50 55 51 48 55 50 49 54 52 51 56 51 51 53 49 48 53 48 47 52 48 47 52 49 49 51 48 47 52 47 48 52 46 47 51 44 45 49 41 44 49 42 43 48 38 39 44 33 36 41 29 32 37 25 30 34 20 25 29 17 22 26 17 22 26 17 22 26 16 19 24 14 19 23 13 21 24 
37 42 46 38 41 46 39 42 47 41 44 49 40 43 48 39 42 47 38 43 47 41 44 49 43 44 49 41 42 47 40 41 46 41 42 47 42 41 47 41 40 46 43 42 48 43 44 49 41 42 47 43 44 49 42 43 48 40 43 48 39 42 47 40 43 48 40 43 48 39 42 47 38 41 46 39 42 47 37 40 45 38 41 46 39 42 47 39 42 47 40 43 48 41 42 47 42 43 48 41 42 47 41 42 47 41 42 47 44 45 50 44 45 50 44 45 50 44 45 50 46 47 52 48 49 54 47 48 53 45 46 51 45 46 51 41 42 46 43 44 48 45 46 51 45 45 53 40 41 46 40 41 46 42 43 48 43 44 49 46 47 51 44 43 48 43 42 47 44 43 49 46 45 51 47 45 50 50 45 51 50 48 53 54 49 55 56 51 57 58 53 59 56 51 57 57 52 58 57 55 60 60 58 63 60 58 61 55 53 56 52 50 53 50 50 52 51 50 55 52 51 56 50 49 54 50 49 54 49 48 54 51 50 55 51 50 55 49 48 53 46 45 51 47 46 52 48 47 52 47 46 52 46 45 50 43 44 49 42 43 47 41 42 47 36 39 44 34 37 42 30 33 38 26 31 35 24 27 32 19 24 28 16 21 25 15 23 26 14 19 23 11 19 22 10 18 21 11 19 22 
39 42 47 39 42 47 41 44 49 43 46 51 40 43 48 41 44 49 41 44 49 43 44 49 43 44 49 42 43 48 42 43 48 43 42 48 44 45 50 45 44 50 45 44 50 45 44 50 44 45 50 43 44 49 43 44 49 43 44 49 43 44 49 43 44 49 43 44 49 41 42 47 41 42 47 41 42 47 41 42 47 42 43 48 42 45 50 41 44 49 42 43 48 40 41 46 41 42 47 41 42 47 42 43 48 43 44 49 45 46 51 44 45 50 46 45 51 46 45 51 48 47 53 51 50 56 49 50 55 48 49 54 47 48 53 43 44 49 44 45 49 46 47 52 46 47 51 45 46 51 42 43 47 44 45 50 44 45 50 46 47 52 43 44 48 43 42 47 44 43 49 47 46 52 48 45 52 51 46 53 49 47 52 54 49 55 55 50 56 58 53 59 57 55 60 57 55 60 58 56 61 59 57 62 55 53 58 52 50 55 50 49 54 50 49 54 50 51 55 49 48 53 47 48 52 44 45 49 47 48 52 48 49 53 49 48 54 45 44 50 42 41 46 45 45 47 48 47 52 46 45 50 41 42 47 39 40 44 38 39 44 38 39 44 35 38 43 34 37 42 28 31 36 26 29 34 22 30 33 22 27 31 19 24 28 16 21 25 13 18 22 12 17 21 11 19 22 10 18 21 
39 42 47 40 43 48 41 44 49 42 47 51 40 41 46 40 43 48 43 44 49 44 45 50 42 43 48 41 42 47 43 42 48 45 44 50 45 46 51 46 45 51 44 43 49 43 42 48 41 44 49 43 44 49 44 45 50 44 45 50 43 44 49 44 45 50 41 44 49 42 45 50 40 43 48 40 43 48 43 44 49 46 47 52 47 48 53 46 47 52 45 46 51 43 44 49 41 42 47 42 43 48 44 45 50 44 45 50 45 46 51 47 48 53 50 49 55 49 48 54 49 48 54 50 49 55 50 51 56 51 52 57 50 51 56 46 46 54 46 47 52 47 48 53 48 49 54 47 48 53 44 45 50 45 46 50 46 47 52 49 50 55 46 47 52 46 45 51 48 47 53 49 48 54 51 48 55 52 47 54 50 48 53 52 50 55 55 53 58 58 56 61 57 55 60 59 57 62 59 57 62 58 56 61 50 51 55 48 49 53 48 47 52 49 50 54 49 50 55 47 48 53 43 44 49 42 43 48 46 46 54 46 45 51 44 43 48 44 42 47 41 40 45 44 43 48 43 44 48 40 41 45 39 40 45 38 39 43 37 38 43 35 38 43 33 36 41 31 34 39 27 32 36 28 31 36 27 30 35 25 28 33 24 27 32 17 22 26 13 18 22 12 20 22 11 19 21 11 20 19 
38 41 46 39 42 47 40 43 48 42 45 50 39 42 47 42 45 50 44 45 50 44 45 50 43 44 49 43 44 49 45 46 51 45 46 51 47 46 52 47 46 52 45 44 50 43 44 49 43 44 49 43 44 49 46 47 52 45 46 51 46 47 52 44 45 50 41 44 49 42 45 50 42 45 50 44 45 50 42 45 50 46 47 52 46 47 52 46 47 52 44 45 50 44 45 50 44 45 50 45 46 51 46 47 52 47 48 53 46 47 52 47 48 53 49 48 54 49 48 54 48 47 53 49 48 54 51 50 56 52 51 57 51 52 57 48 49 54 47 46 51 47 48 53 48 49 54 49 50 55 47 48 53 48 49 53 48 49 54 48 49 54 48 47 53 49 48 54 51 48 55 52 49 56 53 50 57 52 49 56 51 48 55 52 49 56 54 49 55 56 54 59 56 54 59 59 54 60 56 55 60 55 54 59 52 51 56 50 49 54 50 49 55 51 50 56 49 50 55 46 47 52 43 44 49 42 43 48 42 45 50 41 44 49 40 41 46 41 42 47 40 41 46 40 41 46 37 38 43 38 39 44 37 38 43 35 39 42 36 37 42 34 37 42 33 34 39 32 33 38 29 30 34 29 30 35 31 32 37 28 31 36 25 28 33 20 24 27 16 21 24 14 19 22 11 19 21 13 21 23 
40 43 48 39 42 47 40 43 48 43 46 51 41 44 49 43 46 51 45 46 51 44 45 50 44 45 50 45 46 51 45 46 51 45 46 51 46 45 51 47 46 52 47 46 52 46 43 50 44 45 50 44 45 50 45 46 51 46 49 54 47 48 53 46 47 52 43 46 51 42 45 50 43 46 51 44 45 50 43 46 51 47 48 53 46 47 52 47 48 53 46 47 52 45 46 51 46 47 52 47 48 53 48 49 54 49 50 55 47 48 53 46 47 52 48 47 53 48 47 53 49 48 54 49 48 54 51 50 56 51 50 56 51 50 56 49 50 55 49 48 53 48 49 54 49 50 55 50 51 56 46 49 54 48 49 53 47 48 53 47 48 53 50 49 55 50 49 55 51 48 55 51 48 55 53 48 55 55 50 57 52 49 56 51 48 55 51 49 54 53 51 56 55 53 58 53 52 57 52 51 56 53 52 57 50 49 54 51 50 55 51 50 55 49 48 54 44 45 50 42 43 48 42 43 48 41 42 47 39 42 47 38 41 46 38 39 44 37 38 43 37 38 43 36 37 42 33 36 41 34 35 40 35 36 41 35 36 40 32 35 40 31 34 39 31 34 39 32 33 38 30 31 35 32 33 38 32 33 38 30 31 36 25 29 32 22 25 30 16 22 22 15 20 23 14 20 20 13 21 23 
42 45 50 40 43 48 42 45 50 44 47 52 43 46 51 43 46 51 45 46 51 45 46 51 47 48 53 47 48 53 46 47 52 45 46 51 45 44 50 46 45 51 47 46 52 47 48 53 46 47 52 45 46 51 45 46 51 47 48 53 46 49 54 48 49 54 44 47 52 44 47 52 44 47 52 46 47 52 44 47 52 47 48 53 47 48 53 48 49 54 48 49 54 46 47 52 47 48 53 48 49 54 48 49 54 49 50 55 48 49 54 49 48 54 47 48 53 49 48 54 50 49 55 53 52 58 51 50 56 51 50 56 50 49 55 49 48 54 52 51 56 50 51 56 51 52 57 50 51 56 47 50 55 47 51 54 46 49 54 47 48 53 51 50 56 49 48 54 51 48 55 51 48 55 53 48 55 54 49 56 53 51 56 52 49 56 50 47 54 53 50 57 53 54 58 53 52 57 50 49 54 49 48 53 51 50 55 49 50 54 48 49 53 46 47 52 43 44 49 38 41 46 37 40 45 37 40 45 37 40 45 35 38 43 37 38 43 33 36 41 33 36 41 31 34 39 31 34 39 30 33 38 31 34 39 31 34 39 30 33 38 31 32 37 31 34 39 33 34 39 32 33 38 31 32 37 34 31 38 32 31 37 29 28 34 26 27 31 17 20 25 15 21 21 16 21 25 14 22 24 
43 46 51 42 45 50 43 46 51 46 47 52 44 47 52 42 45 50 44 45 50 45 46 51 47 48 53 49 50 55 47 48 53 45 46 51 45 44 50 48 47 53 48 47 53 49 48 54 49 48 54 45 48 53 46 47 52 47 48 53 46 49 54 47 48 53 44 47 52 45 48 53 43 46 51 44 47 52 45 48 53 47 48 53 50 51 56 50 51 56 49 50 55 47 48 53 47 48 53 47 48 53 47 48 53 48 49 54 48 49 54 49 50 55 50 49 55 50 49 55 52 51 57 53 52 58 52 51 57 51 50 56 52 51 57 49 48 54 54 53 58 52 53 58 51 52 57 51 52 57 44 47 52 44 49 52 46 49 54 50 51 56 51 52 57 49 48 54 51 48 55 53 50 57 54 51 58 54 49 56 54 49 55 53 50 57 53 50 57 53 52 58 56 55 60 50 49 54 48 49 53 49 48 53 50 49 54 51 50 55 50 49 54 48 49 54 42 43 48 41 42 47 40 41 46 36 39 44 38 39 44 33 36 41 34 37 42 33 36 41 31 34 39 28 33 37 27 30 35 28 31 36 28 31 36 30 33 38 30 33 38 29 32 37 29 32 37 32 33 38 31 32 37 30 29 35 32 31 37 33 32 38 31 30 35 27 26 32 19 23 26 16 21 25 15 23 25 15 23 26 
42 45 50 44 45 50 43 46 51 45 48 53 43 46 51 44 47 52 46 47 52 47 48 53 48 49 54 48 49 54 46 47 52 47 48 53 48 49 54 50 49 55 48 47 53 48 47 53 48 49 54 50 49 55 48 49 54 48 49 54 46 49 54 49 50 55 47 50 55 49 52 57 45 48 53 45 48 53 45 48 53 48 49 54 48 49 54 49 50 55 49 50 55 50 51 56 50 51 56 50 51 56 50 51 56 50 51 56 49 50 55 50 51 56 51 50 56 51 50 56 49 48 54 51 50 56 52 51 57 52 51 57 52 49 56 51 52 57 54 53 58 52 53 58 50 51 56 50 51 56 47 50 55 48 52 55 48 51 56 50 51 56 49 50 55 50 49 55 53 52 58 59 54 61 56 53 60 51 48 55 55 50 57 52 51 57 52 51 57 52 51 57 51 50 56 49 50 55 48 49 53 49 48 53 49 48 53 49 48 53 51 50 56 47 48 53 45 46 51 42 43 48 41 42 47 37 40 45 40 41 46 36 37 42 32 35 40 31 34 39 30 33 38 30 33 38 26 29 34 26 29 34 24 29 33 27 30 35 33 34 39 29 32 37 29 30 35 31 32 37 29 34 38 28 29 34 29 30 35 29 30 35 30 29 35 25 26 30 20 23 28 19 24 27 18 23 27 16 24 26 
39 42 47 45 46 51 45 46 51 42 45 50 43 46 51 44 47 52 46 47 52 47 48 53 49 50 55 47 48 53 48 49 54 49 50 55 51 50 56 51 50 56 49 48 54 49 48 54 49 48 54 46 49 54 48 49 54 48 49 54 46 49 54 47 48 53 46 49 54 46 49 54 46 49 54 47 48 53 47 50 55 50 51 56 50 51 56 50 51 56 50 51 56 52 53 58 51 52 57 50 51 56 48 49 54 49 50 55 49 50 55 53 52 58 52 53 58 52 51 57 50 49 55 51 50 56 52 51 57 52 51 57 51 50 56 50 51 56 51 50 55 49 50 55 50 51 56 51 52 57 47 50 55 47 51 54 48 49 54 49 50 55 50 51 56 51 50 56 52 51 57 54 51 58 53 50 57 50 47 54 51 50 56 51 50 56 50 49 55 49 48 54 50 51 56 50 51 56 49 50 54 48 47 52 49 48 53 47 48 52 45 46 51 43 44 49 44 45 50 42 45 50 40 43 48 38 41 46 39 40 45 36 39 44 33 36 41 29 32 37 27 30 35 26 29 34 25 28 33 25 28 33 26 29 34 28 31 36 30 33 38 30 33 38 30 33 38 29 32 37 30 31 36 28 29 34 31 32 37 28 29 34 28 29 34 25 26 31 21 26 29 20 25 29 19 24 27 16 24 27 
44 45 50 45 48 53 44 47 52 45 46 51 43 46 51 44 47 52 46 47 52 46 47 52 47 48 53 48 49 54 48 49 54 49 50 55 50 51 56 51 50 56 49 48 54 49 48 54 50 49 55 49 48 54 49 50 55 49 50 55 49 50 55 49 50 55 46 49 54 46 49 54 47 50 55 48 49 54 47 50 55 52 53 58 50 51 56 51 52 57 50 51 56 51 52 57 51 52 57 50 51 56 49 50 55 48 49 54 50 51 56 51 52 57 53 52 58 52 51 57 50 49 55 52 51 57 53 52 58 52 51 57 52 51 57 52 51 57 51 50 55 50 51 56 50 51 56 50 51 56 47 48 53 46 51 54 48 49 54 49 50 55 50 51 56 50 49 55 51 50 56 52 49 56 53 50 57 50 47 54 50 51 56 51 50 56 50 47 54 50 51 56 49 50 54 50 51 56 49 50 55 49 48 56 48 47 53 46 45 51 46 45 51 44 43 49 43 44 49 44 45 50 41 42 47 39 40 45 38 39 44 35 38 43 33 36 41 29 32 37 27 30 35 24 27 32 25 28 33 25 28 33 25 28 33 26 31 35 29 32 37 29 32 37 30 33 38 28 31 36 29 30 35 26 29 34 28 29 34 26 29 34 26 29 34 25 28 33 21 26 30 19 24 28 17 25 28 19 24 28 
48 49 54 46 49 54 49 50 55 46 49 54 46 49 54 45 48 53 47 48 53 47 48 53 47 48 53 49 50 55 50 51 56 49 50 55 50 49 55 49 48 54 50 49 55 50 49 55 51 50 56 50 51 56 50 51 56 51 52 57 51 52 57 50 51 56 46 49 54 47 50 55 48 51 56 51 52 57 48 51 56 51 52 57 52 53 58 51 52 57 51 52 57 49 50 55 51 52 57 50 51 56 49 50 55 50 51 56 50 51 56 50 51 56 49 48 54 49 48 54 50 49 55 52 51 57 51 50 56 54 53 59 54 53 59 53 52 58 53 52 57 52 53 58 51 52 57 50 51 56 44 47 52 46 50 53 46 49 54 46 49 54 47 48 53 50 49 55 50 49 55 51 50 56 54 51 58 54 51 58 52 51 57 51 50 56 49 50 55 51 52 57 51 52 56 50 51 56 48 47 53 48 47 55 48 47 53 47 46 52 45 44 50 42 41 47 42 43 48 43 44 49 39 40 45 38 39 43 38 39 44 35 36 41 32 35 40 32 33 38 32 33 38 26 29 34 27 28 33 25 28 33 25 28 33 25 28 33 26 29 34 28 31 36 27 30 35 27 28 33 23 28 32 24 27 32 25 28 33 25 28 33 24 27 32 23 26 31 21 26 30 20 25 28 19 24 28 16 24 27 
48 49 54 50 51 56 51 52 57 51 52 57 48 51 56 46 49 54 47 48 53 47 48 53 48 49 54 51 52 57 50 51 56 50 51 56 50 49 55 48 47 53 49 50 55 50 49 55 51 52 57 51 52 57 51 52 57 51 52 57 50 53 58 51 52 57 48 51 56 49 52 57 49 52 57 49 52 57 51 52 57 51 52 57 54 55 60 52 53 58 51 52 57 49 50 55 50 51 56 49 50 55 50 51 56 51 52 57 52 51 57 51 50 56 50 49 55 49 48 54 49 48 54 50 49 55 50 51 56 52 53 58 56 55 61 55 54 60 54 53 59 53 54 59 51 52 57 49 50 55 43 46 51 45 48 53 45 46 51 46 47 52 47 48 53 49 50 55 54 51 58 53 52 58 53 52 58 54 53 59 54 51 58 52 51 57 49 50 55 50 51 56 50 51 56 51 50 56 49 48 54 47 46 52 47 46 51 47 46 52 44 43 51 41 40 46 41 40 46 39 39 47 39 39 47 39 40 45 38 39 44 35 36 41 31 34 39 29 32 37 27 30 35 25 28 33 25 28 33 24 27 32 24 27 32 23 26 31 24 27 32 25 28 33 24 27 32 22 25 30 22 25 30 22 26 27 23 26 31 22 27 31 22 27 31 21 26 30 19 24 28 18 23 27 19 24 28 18 23 27 
50 51 56 50 51 56 50 51 56 49 50 55 48 51 56 46 49 54 48 49 54 47 48 53 50 51 56 51 52 57 49 50 55 48 49 54 48 47 53 49 48 54 49 48 54 49 48 54 49 50 55 49 50 55 50 51 56 49 52 57 49 52 57 51 52 57 48 53 57 49 52 57 49 52 57 49 52 57 50 51 56 48 51 56 49 52 57 50 51 56 49 50 55 50 51 56 50 51 56 50 51 56 50 51 56 50 51 56 49 50 55 50 51 56 49 50 55 49 48 54 47 46 52 46 45 51 49 48 54 51 50 56 52 53 58 53 52 58 51 52 57 51 52 57 52 53 58 50 51 56 45 48 53 45 48 53 47 48 53 46 47 52 47 48 53 50 51 56 52 51 57 52 51 57 52 51 57 51 50 56 51 50 56 50 49 55 48 49 54 49 50 55 47 48 53 48 49 54 49 48 54 46 45 51 46 45 51 45 44 50 44 43 49 42 41 47 42 41 47 42 41 47 41 42 47 38 39 44 35 36 41 34 35 40 29 32 37 28 31 36 26 29 34 27 30 35 26 29 34 25 28 33 20 28 31 22 25 30 21 26 30 23 26 31 22 27 31 22 25 30 21 24 29 21 24 29 24 25 30 22 25 30 20 25 29 20 25 29 18 23 27 16 24 27 15 23 26 14 24 26 
49 50 55 48 49 54 49 50 55 49 50 55 49 52 57 47 50 55 49 50 55 48 49 54 51 52 57 51 52 57 50 51 56 50 51 56 51 50 56 52 51 57 51 52 57 51 50 56 49 50 55 49 50 55 50 51 56 52 53 58 51 52 57 51 52 57 48 51 56 48 51 56 48 51 56 47 50 55 48 49 54 47 50 55 48 51 56 49 50 55 50 51 56 50 51 56 50 51 56 50 51 56 49 50 55 49 50 55 48 49 54 49 50 55 50 51 56 49 50 55 47 48 53 45 46 51 48 49 54 50 51 56 51 52 57 49 50 55 46 49 54 49 50 55 50 51 56 50 51 56 47 48 53 47 48 53 46 47 52 47 48 52 47 48 53 46 50 53 49 50 54 50 49 55 50 49 54 48 47 53 47 48 53 47 48 53 46 47 52 46 47 52 45 46 51 46 47 52 47 46 52 47 46 52 44 43 49 43 44 49 43 42 48 42 41 47 41 40 46 40 39 45 38 39 44 37 38 43 33 34 39 32 33 38 29 32 37 27 30 35 25 28 33 25 28 33 25 28 33 24 27 32 21 24 29 21 26 30 21 24 29 21 26 30 19 24 28 21 26 30 20 25 29 20 25 29 18 26 29 20 25 29 16 24 27 17 22 26 19 24 28 17 22 26 16 24 27 16 24 27 
49 50 55 49 50 55 50 51 56 49 50 55 49 52 57 48 51 56 49 50 55 50 51 56 52 53 58 53 54 59 52 53 58 51 52 57 53 52 58 55 54 60 55 54 60 52 51 57 49 50 55 49 50 55 52 51 57 52 53 58 52 53 58 51 52 57 49 50 55 46 49 54 46 49 54 48 49 54 46 49 54 49 50 55 49 50 55 49 50 55 49 50 55 49 50 55 49 50 55 49 50 55 48 49 54 47 48 53 47 48 53 49 50 55 50 51 56 51 52 57 49 50 55 47 48 53 49 50 55 50 51 56 50 51 56 49 48 54 45 46 51 48 49 54 49 50 55 47 50 55 44 47 52 46 47 52 46 47 52 46 47 51 44 45 50 45 46 50 46 47 51 46 47 52 45 46 50 46 45 51 44 45 50 43 44 49 43 44 49 46 47 52 45 46 51 44 45 50 44 45 50 45 44 50 40 43 48 42 41 47 41 40 46 39 39 47 39 39 47 37 38 43 36 37 42 34 35 40 31 32 37 28 31 36 27 30 35 26 29 34 25 28 33 24 27 32 23 26 31 21 26 30 20 25 29 19 24 28 19 24 28 20 26 26 19 24 28 19 24 28 19 24 28 19 24 28 19 24 28 19 24 28 17 22 26 17 22 26 17 22 26 17 22 26 16 21 25 16 21 25 
50 51 56 50 51 56 51 52 57 51 52 57 50 53 58 48 51 56 49 50 55 50 51 56 50 51 56 50 51 56 50 51 56 52 53 58 53 52 58 53 52 58 53 52 58 52 51 57 49 50 55 49 50 55 52 53 58 51 54 59 51 52 57 49 50 55 48 49 54 46 49 54 46 49 54 48 49 54 46 49 54 49 50 55 51 52 57 48 51 56 49 52 57 49 50 55 49 50 55 49 50 55 47 48 53 46 47 52 49 50 55 50 51 56 51 52 57 51 52 57 51 52 57 51 52 57 50 51 56 49 50 55 49 50 55 47 48 53 45 46 51 47 48 53 48 49 54 47 48 53 43 44 49 45 46 51 45 46 51 45 44 49 44 45 50 46 47 51 45 46 50 45 46 51 44 45 49 43 44 49 45 46 50 44 45 50 42 43 48 43 44 49 44 45 50 43 44 49 43 44 49 44 45 50 40 40 48 38 39 44 37 38 43 37 37 45 36 36 44 35 35 43 35 35 43 33 33 41 28 31 36 28 31 36 29 32 37 27 30 35 25 28 33 23 26 31 20 25 29 20 25 29 17 22 26 18 21 26 17 22 26 16 24 27 15 24 23 16 21 25 14 22 25 15 23 26 15 20 24 15 20 24 15 20 24 14 22 25 15 23 26 14 22 25 14 22 25 14 22 25 
51 52 57 50 51 56 51 52 57 51 52 57 49 52 57 48 51 56 50 51 56 49 50 55 49 50 55 48 49 54 48 49 54 49 50 55 51 50 56 51 50 56 50 49 55 49 48 54 49 48 54 48 49 54 52 53 58 50 51 56 48 49 54 46 47 52 44 47 52 46 49 54 46 49 54 46 49 54 46 49 54 47 50 55 48 51 56 48 51 56 47 50 55 47 50 55 49 52 57 49 50 55 49 50 55 47 48 53 50 51 56 50 51 56 49 50 55 48 49 54 49 50 55 49 50 55 48 49 54 47 48 53 48 49 54 50 51 56 46 47 52 43 46 51 44 45 50 45 46 51 44 47 52 44 45 50 40 43 48 41 42 46 43 44 49 44 45 49 45 46 50 45 46 51 46 47 51 46 47 52 45 49 52 44 45 49 41 42 47 41 42 47 41 44 49 40 41 46 39 40 45 39 40 45 35 35 43 34 34 42 31 34 41 32 35 42 35 35 43 36 36 44 37 37 45 33 36 43 28 31 36 27 30 35 27 30 35 25 28 33 21 26 30 20 25 29 17 22 26 16 21 25 15 20 24 11 21 23 15 20 24 13 21 24 14 22 25 12 20 23 12 20 23 11 19 22 11 19 22 12 20 23 12 20 23 13 21 24 14 22 25 14 22 25 14 22 25 13 21 24 
50 51 56 50 51 56 51 52 57 51 52 57 48 51 56 47 50 55 51 52 57 51 52 57 51 52 57 49 50 55 49 50 55 50 51 56 51 50 56 50 49 55 49 48 54 48 49 54 48 49 54 48 49 54 51 50 56 49 50 55 48 49 54 47 48 53 45 48 53 45 48 53 45 48 53 45 48 53 45 48 53 46 49 54 47 50 55 48 51 56 46 49 54 46 49 54 46 49 54 46 47 52 46 47 52 43 46 51 45 46 51 47 48 53 48 49 54 48 49 54 46 47 52 45 46 51 43 46 51 43 46 51 42 45 50 48 49 54 45 46 51 41 44 49 40 43 48 39 42 47 42 45 50 40 41 46 37 40 45 37 40 45 39 42 47 37 40 45 39 42 47 43 42 48 44 45 50 40 43 48 42 43 47 41 42 46 39 40 45 35 38 43 37 40 45 35 38 43 34 37 42 32 35 40 30 33 38 28 31 38 28 31 38 28 31 38 30 33 40 30 35 41 33 36 41 31 34 39 27 30 35 26 29 34 24 27 32 22 27 31 19 24 28 19 24 28 14 19 23 14 19 23 11 19 22 13 18 22 14 19 23 11 21 23 11 19 22 11 19 22 11 19 22 9 17 20 10 18 21 10 18 21 12 20 23 14 22 25 15 23 26 15 23 26 16 21 25 15 20 24 
51 52 57 51 52 57 52 53 58 51 52 57 49 52 57 48 51 56 50 51 56 51 52 57 51 52 57 51 52 57 51 52 57 48 49 54 48 47 53 49 48 54 50 49 55 50 49 55 49 48 54 48 49 54 49 50 55 49 50 55 48 49 54 45 48 53 47 48 53 47 48 53 44 49 53 45 48 53 45 48 53 48 51 56 48 49 54 47 50 55 47 50 55 49 50 55 45 48 53 44 47 52 44 47 52 42 45 50 41 44 49 43 46 51 44 47 52 46 47 52 45 46 51 42 43 48 43 44 49 42 43 48 41 42 47 43 44 49 40 43 48 37 40 45 38 41 46 35 38 43 37 40 45 34 39 43 35 38 43 36 39 44 35 40 44 35 38 43 35 38 43 38 39 44 39 42 47 37 40 45 40 41 43 37 41 44 36 39 44 34 37 42 34 37 42 31 34 39 30 35 39 30 33 38 28 31 36 28 31 38 27 30 37 27 30 35 27 30 35 27 30 37 28 31 36 30 31 35 28 29 34 25 28 33 24 29 33 21 26 30 19 24 28 18 21 26 15 20 24 14 19 23 13 19 19 11 19 22 13 18 22 11 19 22 11 19 22 12 17 21 10 18 21 10 18 21 10 18 21 11 19 22 12 20 23 16 21 25 15 23 26 14 22 25 14 22 25 13 21 24 
49 52 57 50 53 58 50 53 58 48 51 56 48 51 56 49 52 57 50 51 56 49 50 55 50 51 56 49 50 55 49 50 55 49 50 55 51 48 55 50 49 55 50 51 56 49 50 55 49 50 55 49 50 55 48 49 54 47 47 55 47 48 53 46 47 52 46 47 52 45 48 53 44 47 52 44 47 54 45 48 53 46 49 54 46 49 54 45 48 53 45 48 53 45 48 53 44 47 52 44 47 52 42 45 50 42 45 50 40 43 48 40 43 48 41 42 47 39 42 47 41 42 47 36 39 44 37 40 45 37 40 45 36 39 46 35 38 43 35 38 43 35 38 43 35 38 43 32 35 40 31 34 39 32 35 40 32 35 40 32 35 40 32 35 40 32 33 38 31 34 39 30 33 38 34 35 40 33 36 41 34 37 42 33 36 41 35 38 43 33 36 41 32 35 40 29 32 37 27 30 35 25 30 34 24 29 33 24 29 33 24 29 33 23 28 32 22 27 31 22 27 31 23 28 32 23 28 32 23 28 32 24 29 33 23 28 32 20 25 29 19 24 28 15 23 26 12 20 23 13 18 22 11 18 24 9 19 21 10 17 23 9 17 20 9 17 20 8 18 20 9 19 21 9 17 20 9 19 21 9 19 20 11 19 22 13 21 24 15 23 25 14 22 25 14 22 25 12 20 23 
49 52 57 48 51 56 48 51 56 47 50 55 48 51 56 49 52 57 51 52 57 50 51 56 51 52 57 49 50 55 48 49 54 48 49 54 51 50 56 50 49 55 50 49 55 50 51 56 49 50 55 48 49 54 47 47 55 46 46 54 45 48 53 44 47 54 43 46 53 44 47 52 44 47 52 44 47 52 44 47 52 45 48 53 44 47 52 44 47 52 44 47 52 43 46 51 43 46 51 43 46 51 41 44 49 40 43 48 40 43 48 39 42 47 38 41 46 39 42 47 41 42 47 37 40 45 37 40 45 36 39 44 36 39 46 37 40 45 35 38 43 34 37 42 34 37 42 32 35 40 33 36 41 31 34 39 30 35 39 31 34 39 34 37 42 31 34 39 29 32 37 27 30 35 27 30 35 28 31 36 29 32 37 31 32 37 27 35 38 29 32 37 26 29 34 25 30 34 24 27 32 21 26 30 21 26 30 19 24 28 19 24 28 20 25 29 19 24 28 19 24 28 20 25 29 20 25 29 20 25 29 22 27 31 21 26 30 17 25 28 16 24 27 14 22 25 12 20 23 12 20 23 10 18 20 10 18 21 11 19 21 9 17 19 10 18 21 9 19 21 8 18 20 7 17 19 9 19 21 9 19 21 11 19 22 12 22 23 14 22 25 13 21 24 13 21 23 13 21 24 
47 50 55 48 51 56 50 51 56 48 49 54 52 53 58 52 53 58 51 52 57 50 51 56 49 50 55 49 50 55 50 51 56 49 50 55 49 48 54 50 49 55 46 45 51 48 49 54 48 49 54 47 48 53 46 46 54 44 47 54 44 47 54 44 47 54 44 47 54 43 46 53 44 47 52 44 47 52 44 47 52 43 48 52 43 48 52 42 47 51 42 47 51 41 46 50 42 47 51 42 47 51 40 45 49 37 42 46 40 43 48 40 43 48 38 41 46 38 41 46 40 43 48 37 40 45 35 38 43 35 38 43 35 38 45 36 39 44 36 39 44 34 39 43 35 38 43 34 37 42 32 35 40 30 33 38 30 33 38 29 32 37 30 35 39 29 32 37 27 30 35 28 31 36 27 30 35 27 30 35 27 30 35 28 31 36 26 31 35 26 29 34 23 26 31 21 26 30 19 24 28 19 24 28 17 22 26 15 23 26 17 22 26 17 22 26 14 22 25 17 22 26 18 23 27 16 24 27 15 23 26 19 24 28 19 24 28 18 23 27 14 22 25 14 22 25 13 21 24 13 21 24 12 20 23 11 19 22 10 18 21 9 17 20 8 16 19 9 19 21 9 19 21 7 17 19 9 19 21 10 20 22 11 19 22 10 20 21 13 21 24 12 22 24 15 20 23 12 20 23 
50 51 56 51 52 57 50 51 56 50 51 56 52 53 58 52 53 58 51 52 57 49 50 55 48 49 54 52 53 58 50 51 56 49 50 55 49 48 54 50 49 55 45 46 51 46 47 52 48 49 54 47 47 55 46 46 54 44 47 54 44 47 54 43 46 53 43 46 53 44 47 54 44 47 52 42 47 51 42 47 53 44 49 53 42 47 51 42 47 51 42 47 51 42 47 51 42 47 51 43 48 52 42 47 51 38 43 47 38 43 47 39 42 47 39 42 47 37 40 45 38 41 46 35 38 43 33 38 42 32 35 40 32 35 42 32 35 40 32 35 40 32 35 40 32 35 40 33 36 41 28 31 36 27 32 36 28 33 37 28 31 36 27 32 36 25 30 34 25 28 33 23 28 32 23 28 32 23 28 32 25 26 31 20 25 29 21 26 30 19 24 28 18 23 27 17 22 26 16 21 25 16 21 25 13 21 24 15 20 24 12 22 24 12 20 23 14 19 23 14 19 23 13 21 24 14 22 25 15 20 24 17 22 26 18 21 26 16 21 25 16 21 25 14 22 25 13 21 24 13 21 24 11 19 22 12 20 22 9 17 19 8 16 19 8 16 18 8 18 19 9 18 23 9 19 20 8 18 20 9 19 20 10 18 21 9 19 21 12 20 22 11 21 23 12 20 23 11 19 22 
50 51 56 50 51 56 51 52 57 50 51 56 50 51 56 51 52 57 50 51 55 48 49 54 48 49 54 52 53 57 50 51 56 50 51 56 49 48 54 50 51 56 44 45 50 45 46 51 46 47 52 47 47 55 44 47 54 44 47 54 43 48 54 43 46 53 43 46 53 43 46 53 43 46 53 41 44 51 42 47 53 44 47 52 42 47 51 42 47 51 42 47 51 42 47 51 43 48 52 43 48 52 41 46 50 38 43 47 38 41 46 39 44 48 37 42 46 37 40 45 38 41 46 35 38 43 32 35 40 31 36 40 31 34 41 30 35 39 30 35 39 28 33 37 30 35 39 30 35 39 27 32 36 26 31 35 27 30 35 27 32 36 25 30 34 23 28 32 22 27 31 21 26 30 21 26 30 20 25 29 20 23 28 18 23 27 18 23 27 18 23 27 16 21 25 16 21 25 14 19 23 14 19 23 12 20 23 12 20 23 13 18 22 11 19 22 11 19 22 13 21 24 12 20 23 14 19 23 15 20 24 15 20 24 14 22 25 13 21 24 14 22 25 12 22 24 13 21 24 12 20 23 11 19 22 11 19 22 10 18 21 9 17 20 9 17 20 8 18 20 9 19 21 7 17 19 9 19 21 9 19 20 10 18 21 10 18 21 11 19 21 11 19 22 11 19 22 11 19 22 
47 48 53 49 50 55 48 51 56 47 50 55 46 47 52 49 50 54 50 51 56 51 52 57 50 51 56 50 51 56 50 51 55 50 51 56 49 50 55 50 51 56 49 50 55 48 49 54 48 48 56 47 47 55 45 45 53 48 48 56 46 49 56 44 47 54 42 45 52 42 45 52 43 46 53 42 45 52 41 46 52 44 47 52 43 46 51 42 47 51 43 48 52 41 46 50 42 47 51 44 47 52 43 48 52 39 44 48 39 40 45 38 43 47 39 44 48 36 39 44 35 38 43 32 35 40 32 35 40 29 34 38 29 32 39 29 32 37 28 31 36 28 31 36 28 31 36 26 31 35 23 28 32 25 30 34 25 30 34 24 29 33 22 27 31 20 25 29 18 23 27 15 23 26 15 23 26 15 23 26 18 23 27 17 22 26 18 23 27 16 21 25 14 19 23 14 19 23 12 20 23 12 20 23 11 19 22 11 19 22 10 18 21 11 19 22 10 18 21 12 20 23 12 20 23 12 20 23 12 20 23 14 22 25 13 21 24 12 20 23 12 22 24 14 22 25 13 21 24 12 20 23 12 20 22 11 19 22 13 21 23 10 18 20 9 17 20 8 16 18 10 18 20 7 17 18 8 18 20 7 17 19 8 16 19 8 16 18 10 18 21 12 17 21 9 19 20 11 19 22 
