P3
100 50
255
81 82 84 80 81 83 80 81 83 82 83 85 80 81 83 81 82 84 82 83 85 81 82 84 80 81 83 81 82 84 81 82 84 81 82 84 82 83 85 81 82 84 81 82 84 80 81 83 82 83 85 79 80 82 81 82 84 82 83 85 82 83 85 82 83 85 80 81 83 80 81 83 82 83 85 83 84 86 81 82 84 81 82 84 82 83 85 81 82 84 82 83 85 82 83 85 81 82 84 82 83 85 82 83 85 82 83 85 82 83 87 83 84 88 82 83 85 82 83 85 81 82 84 82 83 85 82 83 85 82 83 85 82 83 85 82 83 85 83 84 86 82 83 85 82 83 85 82 83 85 82 83 85 82 83 85 81 82 84 82 83 85 81 82 84 81 82 84 83 84 86 83 84 86 81 82 84 84 85 87 82 83 85 82 83 85 82 83 85 82 83 85 82 83 85 81 82 84 81 82 84 82 83 85 81 82 84 81 82 84 82 83 85 81 82 84 82 83 85 82 83 85 83 84 86 82 83 85 83 84 86 82 83 85 82 83 85 82 83 85 83 84 86 81 82 84 82 83 85 83 84 86 82 83 85 81 82 84 82 83 85 82 83 85 82 83 85 82 83 85 81 82 84 83 84 86 82 83 85 82 83 85 81 82 84 81 82 84 81 82 84 81 82 84 81 82 84 81 82 84 
80 81 83 81 82 84 80 81 83 80 81 83 81 82 84 79 80 82 80 81 83 80 81 83 80 81 83 80 81 83 81 82 84 81 82 84 81 82 84 80 81 83 80 81 83 80 81 83 81 82 84 80 81 83 82 83 85 81 82 84 81 82 84 81 82 84 81 82 84 82 83 85 81 82 84 81 82 84 82 83 85 82 83 85 82 83 85 82 83 85 81 82 84 82 83 85 82 83 87 82 83 85 82 83 85 83 84 86 82 83 85 81 83 82 82 83 85 82 83 85 82 83 85 82 83 85 81 82 84 82 83 85 83 84 86 81 82 84 82 83 85 82 83 85 83 84 86 82 83 85 83 84 86 82 83 85 81 82 84 81 82 84 82 83 85 81 82 84 83 84 86 83 84 86 82 83 85 82 83 85 82 83 85 82 83 85 83 84 86 82 83 85 81 82 84 81 82 84 83 84 86 83 84 86 82 83 85 82 83 85 82 83 85 82 83 85 83 84 86 82 83 85 83 84 86 83 84 86 82 83 85 81 82 84 82 83 85 82 83 85 82 83 85 82 83 85 83 84 86 82 83 85 81 82 84 81 82 84 83 84 86 82 83 85 82 83 85 82 83 85 82 83 85 82 83 85 82 83 85 83 84 86 82 83 85 83 84 86 82 83 85 82 83 85 81 82 84 82 83 85 
80 81 83 80 81 83 81 82 84 81 82 84 80 81 83 80 81 83 80 81 83 80 81 83 80 81 83 81 82 84 82 83 85 80 81 83 80 81 83 80 81 83 80 81 83 81 82 84 81 82 84 82 83 87 81 82 84 81 82 86 81 82 84 80 81 85 81 82 84 81 82 84 81 82 84 81 82 84 80 81 83 82 83 85 83 84 86 82 83 85 82 83 85 81 82 84 81 82 84 81 82 84 82 83 85 81 82 84 82 83 87 82 83 87 82 83 85 81 82 84 82 83 85 82 83 85 82 83 85 82 83 85 82 83 85 83 84 86 82 83 85 82 83 85 82 83 85 83 84 86 83 84 86 82 83 85 82 83 85 82 83 85 83 84 86 82 83 85 83 84 86 83 84 86 83 84 86 82 83 85 81 82 84 83 84 86 81 82 84 80 81 83 82 83 85 83 84 86 82 83 85 82 83 85 83 84 86 82 83 85 82 83 85 82 83 85 82 83 85 82 83 85 83 84 86 82 83 85 82 83 85 81 82 84 82 83 85 83 84 86 82 83 85 82 83 85 82 83 85 83 84 86 82 83 85 81 82 84 83 84 86 83 84 86 82 83 85 83 84 86 82 83 85 83 84 86 81 82 84 82 83 85 82 83 85 82 83 85 82 83 85 82 83 85 82 83 85 82 83 85 
80 81 85 80 81 85 80 81 85 79 80 84 81 82 86 79 80 84 80 81 85 78 79 83 80 81 83 81 82 86 81 82 86 81 82 84 81 82 84 80 81 85 81 82 86 81 82 84 81 82 84 81 82 86 81 82 84 83 84 88 82 83 85 79 80 84 80 81 83 80 81 85 79 80 82 80 81 83 80 81 83 81 82 84 83 84 86 82 83 85 81 82 84 83 84 86 82 83 85 82 83 85 82 83 85 82 83 85 81 82 84 81 82 84 81 82 84 82 83 85 82 83 85 81 82 84 82 83 85 82 83 85 81 82 84 82 83 85 81 82 84 82 83 85 82 83 85 81 82 84 83 84 86 82 83 85 83 84 86 81 82 84 83 84 86 81 82 84 82 83 85 81 82 84 82 83 85 82 83 85 83 84 86 83 84 86 82 83 85 83 84 86 83 84 86 82 83 85 83 84 86 83 84 86 83 84 86 82 83 85 83 84 86 82 83 85 81 82 84 82 83 85 82 83 85 82 83 85 81 82 84 82 83 85 82 83 85 82 83 85 84 85 87 82 83 85 81 82 84 82 83 85 82 83 85 82 83 85 83 84 86 82 83 85 82 83 85 81 82 84 83 84 86 82 83 85 82 83 85 82 83 85 82 83 85 82 83 85 82 83 85 81 82 84 82 83 85 82 83 85 
79 80 82 79 80 82 79 80 82 81 82 84 79 80 82 80 81 83 79 80 82 79 80 82 79 80 84 80 81 83 81 82 84 80 81 85 80 81 83 80 81 83 81 82 86 81 82 86 81 82 86 81 82 86 80 81 85 81 82 84 81 82 84 81 82 84 81 82 84 80 81 83 80 81 85 80 81 83 80 82 81 81 82 84 83 84 86 81 82 84 81 82 84 81 83 82 82 83 85 81 82 86 81 82 84 82 83 85 81 82 84 80 81 83 81 82 84 81 83 82 81 82 84 82 83 85 82 83 85 82 83 85 81 82 84 83 84 86 82 83 85 81 82 84 81 82 84 83 84 86 82 83 85 81 82 84 81 82 84 81 82 84 82 83 85 82 83 85 81 82 84 82 83 85 81 82 84 82 83 85 82 83 85 82 83 85 81 82 84 82 83 85 82 83 85 82 83 85 81 82 84 82 83 85 82 83 85 82 83 85 82 83 85 83 84 86 81 82 84 82 83 85 83 84 86 82 83 85 82 83 85 82 83 85 81 82 84 81 82 84 82 83 85 83 84 86 82 83 85 82 83 85 81 82 84 80 81 83 82 83 85 83 84 86 82 83 85 82 83 85 81 82 84 82 83 85 82 83 85 82 83 85 82 83 85 83 84 86 82 83 85 82 83 85 81 82 84 82 83 85 
80 81 83 80 81 83 80 81 83 79 80 82 79 80 82 80 81 83 80 81 83 80 81 83 79 80 84 80 81 83 80 81 83 81 82 86 80 81 83 80 81 83 80 81 85 82 83 87 81 82 86 81 82 86 82 83 87 82 83 85 82 83 85 81 82 84 81 82 84 79 80 82 79 80 82 80 81 85 80 81 85 81 82 84 82 83 85 81 82 84 81 82 84 81 82 84 81 82 84 82 83 87 81 82 84 82 83 85 80 81 83 80 81 83 80 81 83 81 82 84 81 82 84 81 82 84 81 82 84 82 83 85 80 81 83 81 82 84 81 82 84 81 82 84 81 82 84 81 82 84 83 84 86 82 83 85 82 83 85 81 82 84 81 82 84 82 83 85 81 82 84 82 83 85 82 83 85 81 82 84 82 83 85 82 83 85 81 82 84 81 82 84 82 83 85 82 83 85 82 83 85 83 84 86 82 83 85 82 83 85 82 83 85 82 83 85 81 82 84 83 84 86 83 84 86 82 83 85 81 82 84 82 83 85 83 84 86 81 82 84 82 83 85 82 83 85 83 84 86 82 83 85 81 82 84 82 83 85 82 83 85 83 84 86 83 84 86 82 83 85 82 83 85 82 83 85 82 83 85 82 83 85 82 83 85 82 83 85 82 83 85 82 83 85 82 83 85 81 82 84 
80 81 83 81 82 84 79 80 82 79 80 82 79 80 82 80 81 83 79 80 82 79 80 82 79 80 84 80 81 83 81 82 84 80 81 85 80 81 83 81 82 84 81 82 86 79 80 84 80 81 85 80 81 85 80 81 85 80 81 83 79 80 82 80 81 83 82 83 85 80 81 83 79 80 82 78 80 79 79 80 82 79 80 82 80 81 83 79 80 82 79 80 82 81 82 84 81 82 84 81 82 86 81 82 84 80 81 83 82 83 85 81 82 84 82 83 85 81 82 84 81 82 84 82 83 85 80 81 83 81 82 84 82 83 85 81 82 84 81 82 84 81 82 84 82 83 85 81 82 84 81 82 84 81 82 84 81 82 84 81 82 84 82 83 85 82 83 85 82 83 85 82 83 85 82 83 85 82 83 85 83 84 86 82 83 85 81 82 84 81 82 84 82 83 85 81 82 84 80 81 83 81 82 84 81 82 84 83 84 86 81 82 84 82 83 85 81 82 84 83 84 86 83 84 86 81 82 84 81 82 84 81 82 84 81 82 84 82 83 85 82 83 85 81 82 84 82 83 85 81 82 84 81 82 84 81 82 84 82 83 85 82 83 85 82 83 85 81 82 84 82 83 85 82 83 85 83 84 86 82 83 85 82 83 85 83 84 86 83 84 86 82 83 85 82 83 85 82 83 85 
79 80 82 80 81 83 79 80 82 79 80 82 79 80 82 79 80 82 79 80 82 80 81 83 79 80 84 80 81 83 81 82 84 80 81 85 79 80 82 80 81 83 79 80 84 81 82 86 81 82 86 80 81 85 81 82 86 81 82 84 81 82 84 81 82 84 81 82 84 80 81 83 78 79 83 78 79 81 78 79 81 80 81 85 81 82 84 80 81 83 81 82 84 80 81 83 81 82 84 81 82 84 81 82 84 80 81 83 81 82 84 80 81 83 81 82 84 81 82 84 81 82 84 82 83 85 81 82 84 83 84 86 81 82 84 82 83 85 81 82 84 82 83 85 81 82 84 81 82 84 82 83 85 80 81 83 81 82 84 81 82 84 82 83 85 81 82 84 81 82 84 81 82 84 82 83 85 81 82 84 83 84 86 82 83 85 82 83 85 81 82 84 82 83 85 81 82 84 83 84 86 82 83 85 83 84 86 81 82 84 82 83 85 82 83 85 82 83 85 83 84 86 83 84 86 82 83 85 82 83 85 83 84 86 82 83 85 82 83 85 81 82 84 82 83 85 83 84 86 82 83 85 81 82 84 82 83 85 82 83 85 82 83 85 82 83 85 82 83 85 82 83 85 82 83 85 83 84 86 83 84 86 83 84 86 82 83 85 81 82 84 82 83 85 82 83 85 82 83 85 
80 81 83 79 80 82 80 81 83 79 80 82 78 79 81 79 80 82 79 80 82 78 79 81 79 80 84 79 80 82 80 81 83 79 80 84 80 81 83 79 80 82 80 81 85 79 80 84 80 81 85 81 82 86 81 82 86 80 81 83 79 80 82 80 81 83 81 82 84 79 80 82 79 80 82 80 81 85 79 80 84 80 81 83 81 82 84 80 81 83 80 81 83 79 80 82 82 83 85 80 82 81 79 80 82 80 81 85 81 82 84 81 82 84 81 82 84 81 82 84 82 83 85 80 81 83 81 82 84 81 82 84 81 82 84 81 82 84 82 83 85 81 82 84 80 81 83 81 82 84 81 82 84 82 83 85 80 81 83 81 82 84 80 81 83 81 82 84 81 83 82 81 82 84 81 82 84 81 82 84 82 83 85 81 82 84 82 83 85 82 83 85 82 83 85 82 83 85 80 81 83 83 84 86 81 82 84 81 82 84 81 82 84 82 83 85 82 83 85 82 83 85 82 83 85 83 84 86 82 83 85 82 83 85 83 84 86 81 82 84 82 83 85 80 81 83 80 81 83 82 83 85 82 83 85 82 83 85 81 82 84 82 83 85 82 83 85 82 83 85 82 83 85 82 83 85 82 83 85 82 83 85 82 83 85 81 82 84 81 82 84 82 83 85 81 82 84 80 81 83 
78 79 81 80 81 83 79 80 82 79 80 82 78 79 81 79 80 82 80 81 83 78 79 81 78 79 83 79 80 82 79 80 82 80 81 85 79 80 82 80 81 83 78 79 83 79 80 84 80 81 85 80 81 85 81 82 86 82 83 85 80 81 83 81 82 84 80 81 83 80 81 83 80 81 83 80 81 83 81 82 84 81 82 84 80 81 83 81 82 84 81 82 84 80 81 83 81 83 82 80 81 83 80 81 83 80 82 81 80 81 83 80 81 83 80 81 83 81 82 84 81 82 84 81 82 84 82 83 85 81 82 84 81 82 84 81 82 84 80 81 83 81 82 84 82 83 85 80 81 83 80 81 83 81 82 84 81 82 84 81 82 84 80 81 83 81 82 84 81 82 84 81 82 84 81 82 84 81 82 84 81 82 84 82 83 85 82 83 85 82 83 85 81 82 84 82 83 85 81 82 84 82 83 85 81 82 84 82 83 85 81 82 84 82 83 85 82 83 85 81 82 84 82 83 85 83 84 86 82 83 85 82 83 85 83 84 86 83 84 86 82 83 85 82 83 85 82 83 85 82 83 85 82 83 85 80 81 83 82 83 85 83 84 86 82 83 85 81 82 84 81 82 84 82 83 85 82 83 85 83 84 86 81 82 84 82 83 85 81 82 84 82 83 85 83 84 86 82 83 85 
79 80 82 78 79 81 79 80 82 78 79 81 78 79 81 79 80 82 79 80 82 78 79 81 77 78 82 78 79 81 80 81 83 80 81 85 80 81 83 79 80 82 79 80 84 78 79 83 80 81 85 79 80 84 79 80 84 79 80 82 80 81 83 80 81 83 79 80 82 78 79 81 79 80 84 79 80 82 79 80 82 81 82 86 80 81 85 80 81 83 80 81 83 80 81 85 79 80 84 79 80 82 81 82 84 79 80 84 81 82 84 79 80 82 80 81 85 81 82 86 81 82 84 82 83 85 81 82 84 80 81 83 80 81 83 81 82 84 81 82 84 81 82 84 79 80 82 82 83 85 81 82 84 82 83 85 80 81 83 80 81 83 81 82 84 81 82 84 81 82 84 81 82 84 80 81 83 81 82 84 81 82 84 81 82 84 81 82 84 81 82 84 81 82 84 82 83 85 82 83 85 82 83 85 80 81 83 82 83 85 81 82 84 81 82 84 81 82 84 81 82 84 81 82 84 81 82 84 81 82 84 82 83 85 83 84 86 82 83 85 82 83 85 82 83 85 82 83 85 82 83 85 82 83 85 82 83 85 82 83 85 81 82 84 81 82 84 81 82 84 81 82 84 82 83 85 81 82 84 82 83 85 81 82 84 82 83 85 81 82 84 82 83 85 83 84 86 82 83 85 
77 78 80 78 79 81 78 79 81 79 80 82 80 81 83 78 79 81 77 78 80 78 79 81 78 79 83 79 80 82 79 80 82 79 80 84 79 80 82 79 80 82 80 81 85 79 80 84 79 80 84 79 80 84 80 81 85 79 80 82 80 81 83 80 81 83 79 80 82 79 80 82 80 81 83 80 81 83 79 80 82 80 81 83 79 80 82 80 81 85 80 81 85 79 80 82 80 81 85 80 81 85 81 82 84 80 81 83 81 82 84 81 82 84 80 81 85 80 81 85 80 81 83 80 81 85 81 82 86 80 81 83 81 82 84 80 81 85 81 82 86 81 82 84 80 81 83 81 82 84 81 82 84 81 82 84 82 83 85 80 81 83 80 81 83 81 82 84 80 81 85 81 82 86 80 81 85 82 83 87 80 81 83 82 83 85 81 82 84 81 82 84 81 82 84 81 82 84 81 82 84 81 82 84 81 82 84 81 82 84 81 82 84 81 82 84 80 81 83 81 82 84 80 81 83 81 82 84 81 82 84 82 83 85 83 84 86 82 83 85 82 83 85 82 83 85 83 84 86 82 83 85 81 82 84 82 83 85 82 83 85 82 83 85 81 82 84 81 82 84 80 81 83 82 83 85 81 82 84 81 82 84 81 82 84 81 82 84 81 82 84 81 82 84 82 83 85 82 83 85 
77 78 80 78 79 81 78 79 81 78 79 81 78 79 81 79 80 82 78 79 81 77 78 80 78 79 83 77 78 82 78 79 81 78 79 81 78 79 81 78 79 81 78 79 83 79 80 84 79 80 84 79 80 84 79 80 84 79 80 84 80 81 85 79 80 84 79 80 84 80 81 85 81 82 84 80 81 85 80 81 83 80 81 85 80 81 83 79 80 82 80 81 85 80 81 83 79 80 82 79 80 82 79 80 84 79 80 82 80 81 83 80 81 85 81 82 84 80 81 83 80 81 83 80 81 83 80 81 83 80 81 83 80 81 83 81 82 84 79 80 82 81 82 84 81 82 84 80 81 83 80 81 83 80 81 83 82 83 87 82 83 87 82 83 87 81 82 86 81 82 86 80 81 85 81 82 86 81 82 86 81 82 86 81 82 86 82 83 87 82 83 87 81 82 84 80 81 85 80 81 85 81 82 86 81 82 84 81 82 84 82 83 85 81 82 84 81 82 84 81 82 84 81 82 84 81 82 84 81 82 84 82 83 85 82 83 85 82 83 85 82 83 85 82 83 85 82 83 85 83 84 86 82 83 85 82 83 85 81 82 84 82 83 85 81 82 84 81 82 84 81 82 84 81 82 84 82 83 85 81 82 84 81 82 84 80 81 83 81 82 84 81 82 84 80 81 83 82 83 85 
78 79 81 77 78 80 77 78 80 78 79 81 78 79 81 79 80 82 79 80 82 79 80 82 79 80 82 78 79 81 78 79 83 77 78 82 78 79 83 79 80 84 78 79 81 79 80 82 80 81 85 79 80 84 79 80 84 79 80 84 79 80 84 78 79 83 80 81 85 78 79 83 79 80 84 80 81 83 79 80 84 80 81 83 79 80 84 79 80 82 78 79 83 80 81 83 79 80 82 79 80 82 79 80 82 79 80 82 80 81 83 81 82 84 81 82 84 80 81 83 80 81 83 79 80 82 81 82 84 81 82 84 81 82 84 80 81 83 80 81 83 81 82 84 81 82 84 82 83 85 81 82 84 81 82 84 81 82 86 80 81 85 81 82 86 81 82 86 81 82 86 81 82 86 80 81 85 81 82 86 80 81 85 81 82 86 81 82 86 82 83 87 81 82 84 81 82 86 81 82 86 81 82 86 81 82 84 81 82 84 80 81 83 80 81 83 81 82 84 82 83 85 82 83 85 81 82 84 82 83 85 81 82 84 80 81 83 81 82 84 82 83 85 81 82 84 81 82 84 82 83 85 82 83 85 82 83 85 82 83 85 82 83 85 81 82 84 81 82 84 81 82 84 81 82 84 82 83 85 81 82 84 81 82 84 81 82 84 82 83 85 81 82 84 81 82 84 82 83 85 
78 79 81 76 77 79 77 78 80 77 78 80 76 77 79 77 78 80 78 79 81 78 79 81 78 79 81 78 79 81 76 77 81 78 79 83 77 78 82 77 78 82 79 80 82 79 80 82 79 80 84 79 80 84 78 79 83 79 80 84 79 80 84 78 79 83 79 80 84 79 80 84 80 81 85 79 80 82 79 80 84 78 79 83 79 80 82 78 79 83 79 80 82 80 81 85 80 81 83 79 80 84 79 80 82 78 79 81 78 79 81 79 80 82 79 80 84 80 81 83 79 80 82 80 81 83 79 80 82 80 81 83 80 81 83 81 82 84 81 82 84 81 82 84 81 82 84 80 81 83 81 82 84 80 81 83 80 81 85 80 81 85 80 81 85 80 81 85 81 82 86 81 82 86 82 83 87 81 82 86 82 83 87 82 83 87 81 82 86 80 81 85 81 82 84 81 82 86 80 81 85 81 82 86 81 82 84 82 83 85 81 82 84 81 82 84 80 81 83 81 82 84 81 82 84 81 82 84 80 81 83 80 81 83 81 82 84 81 82 84 81 82 84 82 83 85 81 82 84 82 83 85 81 82 84 82 83 85 82 83 85 81 82 84 80 81 83 82 83 85 82 83 85 82 83 85 81 82 84 81 82 84 81 82 84 81 82 84 81 82 84 80 81 83 81 82 84 82 83 85 
77 78 80 77 78 80 78 79 81 77 78 80 77 78 80 76 77 79 76 77 79 77 78 80 76 77 81 76 77 81 77 78 80 78 79 81 78 79 81 77 78 80 79 80 84 78 79 83 78 79 83 78 79 83 77 78 82 77 78 82 78 79 83 79 80 84 79 80 84 80 81 85 79 80 84 78 79 81 78 79 83 80 81 85 80 81 83 80 81 85 78 79 81 79 80 84 80 81 83 79 80 82 79 80 82 79 80 82 79 80 82 80 81 83 78 79 81 79 80 82 79 80 82 79 80 82 80 81 83 79 80 82 80 81 83 79 80 82 80 81 83 80 81 83 80 81 83 80 81 83 81 82 84 80 81 83 80 81 85 81 82 86 79 80 84 80 81 85 80 81 85 80 81 85 81 82 86 79 80 84 79 80 84 80 81 85 80 81 85 81 82 86 80 81 83 80 81 85 81 82 86 80 81 85 81 82 84 81 82 84 80 81 83 80 81 83 81 82 84 81 82 84 81 82 84 81 82 84 80 81 83 80 81 83 81 82 84 80 81 83 81 82 84 81 82 84 81 82 84 81 82 84 82 83 85 81 82 84 82 83 85 82 83 85 81 82 84 82 83 85 82 83 85 81 82 84 81 82 84 81 82 84 81 82 84 81 82 84 80 81 83 81 82 84 80 81 83 80 81 83 
77 78 82 77 78 82 77 78 82 78 79 83 75 76 80 77 78 82 76 77 81 77 78 82 78 79 83 78 79 83 77 78 80 78 79 81 77 78 80 77 78 80 78 79 83 77 78 82 77 78 82 77 78 82 78 79 83 78 79 83 79 80 84 79 80 84 79 80 84 78 79 83 79 80 84 79 80 82 78 79 83 78 79 81 79 80 84 80 81 85 79 80 82 79 80 84 78 79 81 79 80 82 78 79 81 79 80 82 79 80 82 79 80 82 79 80 82 79 80 82 79 80 82 79 80 82 78 79 81 79 80 82 80 81 83 81 82 84 80 81 83 80 81 83 80 81 83 79 80 82 81 82 84 80 81 83 80 81 85 82 83 87 80 81 85 80 81 85 79 80 82 80 81 83 81 82 84 81 82 84 80 81 83 80 81 83 81 82 84 81 82 84 80 81 83 80 81 85 80 81 85 81 82 86 80 81 83 81 82 84 81 82 84 80 81 83 80 81 83 81 82 84 81 82 84 81 82 84 81 82 84 81 82 84 82 83 85 82 83 85 82 83 85 81 82 84 81 82 84 81 82 84 81 82 84 82 83 85 80 81 83 81 82 84 81 82 84 81 82 84 80 81 83 81 82 84 82 83 85 81 82 84 81 82 84 81 82 84 81 82 84 81 82 84 82 83 85 81 82 84 
76 77 81 77 78 82 76 77 81 76 77 81 76 77 81 77 78 82 76 77 81 76 77 81 77 78 80 76 77 79 77 78 82 78 79 83 78 79 83 78 79 83 78 79 81 78 79 81 78 79 83 77 78 82 78 79 83 78 79 83 78 79 83 78 79 83 78 79 83 79 80 84 78 79 83 78 79 81 79 80 84 79 80 82 79 80 84 79 80 84 79 80 82 79 80 84 79 80 82 79 80 82 78 79 83 77 78 80 79 80 82 80 81 85 79 80 82 79 80 82 80 81 83 78 79 81 79 80 82 79 80 82 78 79 81 80 81 83 79 80 82 80 81 83 80 81 83 80 81 83 80 81 83 81 82 84 81 82 86 78 79 83 79 80 84 80 81 85 81 82 84 80 81 83 81 82 84 81 82 84 80 81 83 81 82 84 80 81 83 81 82 84 81 82 84 81 82 86 78 79 83 80 81 85 81 82 84 81 82 84 81 82 84 80 81 83 79 80 82 80 81 83 80 81 83 80 81 83 80 81 83 80 81 83 81 82 84 81 82 84 80 81 83 81 82 84 81 82 84 81 82 84 81 82 84 81 82 84 82 83 85 81 82 84 81 82 84 81 82 84 81 82 84 81 82 84 81 82 84 81 82 84 81 82 84 82 83 85 82 83 85 82 83 85 81 82 84 81 82 84 
75 79 82 74 78 81 74 78 81 75 79 82 75 79 82 75 79 82 75 79 82 75 79 82 75 79 80 75 79 80 75 79 82 75 79 82 75 79 82 76 80 83 74 78 79 75 79 80 75 79 82 77 78 82 76 80 83 78 79 83 77 78 82 77 81 84 78 79 83 77 81 84 78 79 81 78 79 83 79 80 82 78 79 83 78 79 81 78 79 83 80 81 83 79 80 84 81 82 84 80 81 83 79 80 82 80 81 83 81 82 84 79 80 82 79 80 82 80 81 83 79 80 82 79 80 82 80 81 83 79 80 82 79 80 82 81 82 84 80 81 83 80 81 83 79 80 82 80 81 83 80 81 83 81 82 84 80 81 85 81 82 86 80 81 85 80 81 85 80 81 83 81 82 84 81 82 84 80 81 83 80 81 83 80 81 83 82 83 85 80 81 83 81 82 84 81 82 86 80 81 85 81 82 86 80 81 83 82 83 85 81 82 84 81 82 84 80 81 83 81 82 84 80 81 83 80 81 83 80 81 83 80 81 83 81 82 84 81 82 84 81 82 84 80 81 83 81 82 84 80 81 83 81 82 84 81 82 84 81 82 84 81 82 84 80 81 83 81 82 84 82 83 85 82 83 85 81 82 84 81 82 84 82 83 85 82 83 85 81 82 84 81 82 84 80 81 83 82 83 85 
74 78 81 73 77 80 74 78 81 75 79 82 75 79 82 75 79 82 75 79 82 75 79 82 76 80 83 74 78 81 74 78 79 74 78 79 75 79 80 75 79 80 75 79 82 74 78 81 77 78 82 75 79 82 76 77 81 75 79 82 76 80 83 79 80 84 77 81 84 79 80 84 77 78 80 77 78 82 77 78 80 79 80 82 78 79 83 78 79 81 78 79 83 78 79 81 79 80 82 79 80 84 79 80 82 78 79 81 79 80 82 79 80 82 79 80 84 80 81 83 79 80 82 78 79 81 80 81 83 79 80 82 78 79 81 79 80 82 79 80 82 80 81 83 78 79 81 78 79 81 79 80 82 80 81 83 80 81 85 82 83 87 80 81 85 80 81 85 80 81 83 80 81 83 80 81 83 79 80 82 79 80 82 81 82 84 81 82 84 81 82 84 82 83 85 82 83 87 80 81 85 80 81 85 80 81 83 80 81 83 79 80 82 80 81 83 80 81 83 81 82 84 80 81 83 81 82 84 81 82 84 81 82 84 81 82 84 80 81 83 80 81 83 81 82 84 80 81 83 80 81 83 80 81 83 80 81 83 81 82 84 81 82 84 81 82 84 81 82 84 81 82 84 82 83 85 81 82 84 82 83 85 83 84 86 83 84 86 81 82 84 82 83 85 81 82 84 81 82 84 
76 77 81 75 76 80 74 78 81 73 77 80 75 79 82 74 78 81 77 78 82 77 78 82 76 80 83 75 79 82 74 78 81 75 76 80 76 77 81 77 78 82 76 77 81 77 78 82 77 78 82 77 78 82 77 78 82 77 78 82 76 77 81 78 79 83 79 80 84 78 79 83 77 81 84 77 81 84 79 80 84 78 79 81 78 79 83 79 80 82 77 78 82 79 80 82 79 80 82 78 79 81 78 79 81 78 79 81 79 80 82 80 81 83 79 80 82 79 80 82 79 80 82 80 81 83 79 80 82 79 80 82 80 81 83 80 81 83 79 80 82 79 80 82 79 80 84 80 81 85 79 80 84 80 81 85 80 81 85 79 80 84 79 80 84 79 80 84 79 80 82 80 81 83 80 81 83 80 81 83 80 81 83 79 80 82 81 82 84 80 81 83 81 82 84 81 82 86 81 82 86 80 81 85 81 82 84 80 81 83 80 81 83 80 81 83 80 81 83 80 81 83 81 82 84 81 82 84 81 82 84 80 81 83 79 80 82 80 81 83 81 82 84 81 82 84 81 82 84 81 82 84 80 81 83 80 81 83 81 82 84 81 82 84 81 82 84 81 82 84 81 82 84 81 82 84 82 83 85 82 83 85 81 82 84 81 82 84 82 83 85 81 82 84 81 82 84 81 82 84 
73 77 80 74 78 81 76 77 81 75 76 80 76 77 81 75 76 80 74 78 81 75 79 82 74 78 81 75 79 82 77 78 82 73 77 80 77 78 82 76 77 81 75 79 82 76 77 81 77 78 82 77 78 82 76 77 81 76 77 81 77 78 82 78 79 83 78 79 83 78 79 83 76 80 83 78 79 83 78 79 83 79 79 81 78 79 83 78 79 81 78 79 83 78 79 81 78 79 81 77 78 80 78 79 81 79 80 82 78 79 81 79 80 82 79 80 82 78 79 81 79 80 82 79 80 82 79 80 82 80 81 83 79 80 82 78 79 81 79 80 82 78 79 81 80 81 85 77 78 82 80 81 85 80 81 85 79 80 84 79 80 84 80 81 85 80 81 85 79 80 82 79 80 82 79 80 82 80 81 83 80 81 83 79 80 82 79 80 82 80 81 83 81 82 84 81 82 84 80 81 85 79 80 82 80 81 83 82 83 85 81 82 84 80 81 83 80 81 83 81 82 84 81 82 84 79 80 82 80 81 83 80 81 83 80 81 83 80 81 83 81 82 84 80 81 83 80 81 83 80 81 83 80 81 83 80 81 83 81 82 84 81 82 84 81 82 84 80 81 83 80 81 83 80 81 83 81 82 84 81 82 84 82 83 85 83 84 86 81 82 84 82 83 85 82 83 85 82 83 85 
74 78 81 74 78 81 76 77 81 76 77 81 76 77 81 76 77 81 75 79 82 75 79 82 75 79 82 74 78 81 74 78 81 76 77 81 74 78 81 74 78 81 76 77 81 75 79 82 77 78 82 78 79 83 77 78 82 76 77 81 76 77 81 77 78 82 77 78 82 78 79 83 76 80 83 75 79 82 78 79 83 77 78 80 78 79 83 77 78 80 79 80 84 78 79 81 78 79 81 78 79 81 79 80 82 78 79 81 79 80 82 79 80 82 78 79 81 78 79 81 78 79 81 79 80 82 79 80 82 78 79 81 79 80 82 79 80 82 80 81 83 80 81 83 79 80 82 79 80 82 79 80 82 79 80 82 80 81 83 80 81 83 80 81 83 79 80 82 78 79 81 79 80 82 80 81 83 80 81 83 80 81 83 79 80 82 78 79 81 80 81 83 79 80 82 79 80 84 80 81 83 81 82 86 81 82 84 79 80 82 80 81 83 81 82 84 80 81 83 80 81 83 81 82 84 80 81 83 79 80 82 79 80 82 80 81 83 80 81 83 81 82 84 80 81 83 79 80 82 81 82 84 80 81 83 80 81 83 81 82 84 81 82 84 81 82 84 80 81 83 80 81 83 81 82 84 81 82 84 81 82 84 80 81 83 81 82 84 82 83 85 81 82 84 81 82 84 81 82 84 
75 76 80 76 77 81 73 77 80 73 77 80 73 77 80 73 77 80 76 77 81 76 77 81 74 78 81 76 77 81 73 77 80 77 78 82 76 77 81 75 79 82 78 77 82 76 77 81 77 78 82 77 78 82 76 77 81 76 77 81 76 77 81 77 78 82 76 77 81 76 77 81 76 80 83 75 79 82 75 79 82 77 78 80 76 77 81 77 78 80 77 78 82 77 78 80 77 78 80 79 80 82 78 79 81 78 79 81 78 79 81 78 79 81 78 79 81 80 81 83 79 80 82 79 80 82 78 79 81 79 80 82 78 79 81 78 79 81 78 79 81 77 78 80 79 80 82 78 79 81 79 80 82 80 81 83 80 81 83 78 79 81 79 80 82 79 80 82 79 80 82 79 80 82 79 80 82 79 80 82 78 79 81 80 81 83 80 81 83 79 80 82 80 81 85 80 81 83 80 81 85 80 81 83 80 81 85 80 81 83 80 81 83 79 80 82 79 80 82 79 80 82 80 81 83 79 80 82 80 81 83 79 80 82 79 80 82 80 81 83 80 81 83 79 80 82 80 81 83 81 82 84 80 81 83 80 81 83 81 82 84 81 82 84 81 82 84 80 81 83 80 81 83 81 82 84 80 81 83 82 83 85 80 81 83 80 81 83 81 82 84 81 82 84 81 82 84 81 82 84 
75 76 80 75 76 80 72 76 79 73 77 80 74 78 81 74 78 81 76 77 81 76 77 81 76 77 81 74 78 81 75 76 80 75 79 82 75 79 82 76 77 81 72 77 80 74 75 79 75 76 80 76 77 81 75 76 80 77 78 82 76 77 81 76 77 81 77 78 82 76 77 81 73 77 80 75 76 80 76 77 81 76 77 79 76 77 81 76 77 79 76 77 81 77 78 80 78 79 81 77 78 80 78 79 81 77 78 80 78 79 81 78 79 81 78 79 81 77 78 80 77 78 80 78 79 81 78 79 81 78 79 81 79 80 82 77 78 80 78 79 81 78 79 81 77 78 80 78 79 81 79 80 82 78 79 81 79 80 82 78 79 81 78 79 81 78 79 81 79 80 82 79 80 82 80 81 83 79 80 82 79 80 82 79 80 82 78 79 81 81 82 84 79 80 82 78 79 83 79 80 82 79 80 84 81 82 84 80 81 83 80 81 83 79 80 82 79 80 82 79 80 82 80 81 83 80 81 83 79 80 82 78 79 81 79 80 82 81 82 84 80 81 83 80 81 83 81 82 84 81 82 84 80 81 83 80 81 83 81 82 84 81 82 84 80 81 83 80 81 83 80 81 83 80 81 83 80 81 83 81 82 84 81 82 84 80 81 83 80 81 83 80 81 83 81 82 84 82 83 85 
74 78 81 74 78 81 75 76 80 75 76 80 75 76 80 75 76 80 73 77 80 74 78 81 75 76 80 74 78 81 76 77 81 75 76 80 74 78 81 74 78 81 75 76 80 73 77 80 76 77 81 75 76 80 76 77 81 76 77 81 77 78 82 75 76 80 77 78 82 75 76 80 74 78 81 75 79 82 76 77 81 77 78 80 76 77 81 77 78 80 76 77 81 77 78 80 78 79 81 78 79 81 78 79 81 77 78 80 77 78 80 77 78 80 78 79 81 78 79 81 77 78 80 78 79 81 78 79 81 78 79 81 77 78 80 78 79 81 78 79 81 78 79 81 78 79 81 77 78 80 78 79 81 79 80 82 78 79 81 78 79 81 79 80 82 78 79 81 79 80 82 78 79 81 79 80 82 78 79 81 78 79 81 79 80 82 79 80 82 79 80 82 79 80 82 79 80 82 78 79 83 79 80 82 80 81 85 80 81 83 79 80 82 79 80 82 79 80 82 80 81 83 80 81 83 79 80 82 79 80 82 79 80 82 80 81 83 79 80 82 79 80 82 81 82 84 79 80 82 80 81 83 80 81 83 80 81 83 81 82 84 81 82 84 80 81 83 80 81 83 81 82 84 80 81 83 81 82 84 81 82 84 82 83 85 81 82 84 80 81 83 80 81 83 81 82 84 81 82 84 
73 77 80 73 77 80 74 75 79 75 76 80 74 75 79 75 76 80 73 77 80 73 77 80 73 77 80 76 77 81 73 77 80 73 77 80 75 76 80 72 76 79 71 76 79 73 77 80 76 77 81 75 76 80 76 77 81 75 76 80 75 76 80 76 77 81 76 77 81 76 77 81 75 79 82 74 78 81 73 77 80 75 76 78 77 78 82 77 78 80 77 78 82 76 77 79 77 78 80 77 78 80 78 79 81 76 77 79 77 78 80 78 79 81 77 78 80 78 79 81 76 77 79 76 77 79 76 77 79 78 79 81 77 78 80 76 77 79 78 79 81 77 78 80 78 79 83 78 79 83 78 79 83 78 79 83 79 80 84 79 80 84 78 79 83 78 79 83 77 78 80 78 79 81 79 80 82 79 80 82 78 79 81 78 79 81 78 79 81 79 80 82 78 79 81 79 80 84 79 80 84 78 79 83 79 80 82 79 80 82 79 80 82 79 80 82 78 79 81 79 80 82 80 81 83 79 80 82 80 81 83 79 80 82 81 82 84 80 81 83 79 80 82 79 80 82 79 80 82 79 80 82 80 81 83 80 81 83 80 81 83 81 82 84 79 80 82 80 81 83 80 81 83 80 81 83 80 81 83 80 81 83 81 82 84 81 82 84 80 81 83 81 82 84 80 81 83 81 82 84 
74 75 79 75 76 80 71 75 78 72 76 79 72 76 79 73 77 80 74 75 79 75 76 80 75 76 80 75 76 80 76 77 81 74 75 79 74 75 79 73 77 80 73 77 80 73 77 80 77 78 82 76 77 81 75 76 80 74 75 79 75 76 80 76 77 81 75 76 80 77 78 82 73 77 80 76 77 81 76 77 81 76 77 79 76 77 81 75 76 78 77 78 82 77 78 80 77 78 80 76 77 79 78 79 81 77 78 80 75 76 78 78 79 81 76 77 79 76 77 79 76 77 79 77 78 80 77 78 80 77 78 80 77 78 80 77 78 80 78 79 81 78 79 81 77 78 82 78 79 83 78 79 83 79 80 84 78 79 83 78 79 83 77 78 82 77 78 82 78 79 81 78 79 81 79 80 82 77 78 80 78 79 81 78 79 81 78 79 81 79 80 82 78 79 81 79 80 84 79 80 84 78 79 81 79 80 82 78 79 81 78 79 81 79 80 82 79 80 82 79 80 82 79 80 82 80 81 83 79 80 82 79 80 82 79 80 82 79 80 82 79 80 82 79 80 82 79 80 82 80 81 83 80 81 83 79 80 82 79 80 82 79 80 82 80 81 83 81 82 84 80 81 83 81 82 84 81 82 84 80 81 83 81 82 84 80 81 83 79 80 82 80 81 83 80 81 83 80 81 83 
71 75 78 72 76 79 72 76 79 72 76 79 74 75 79 73 74 78 72 76 79 73 77 80 73 77 80 72 76 79 74 75 79 76 77 81 74 75 79 74 75 79 72 76 79 73 77 80 76 77 81 76 77 81 75 76 80 75 76 80 74 75 79 76 77 81 76 77 81 76 77 81 75 79 82 73 77 80 74 78 81 74 78 81 78 77 82 76 77 81 78 78 80 78 78 80 77 78 80 77 78 80 76 77 79 77 78 80 76 77 79 78 79 81 77 78 80 76 77 79 77 78 80 76 77 79 77 78 80 77 78 80 77 78 80 77 78 80 78 79 81 77 78 80 77 78 80 78 79 81 76 77 79 77 78 80 79 80 82 78 79 81 77 78 80 78 79 81 78 79 81 77 78 80 77 78 80 78 79 81 78 79 81 77 78 80 78 79 81 78 79 81 79 80 82 77 78 80 77 78 80 78 79 81 79 80 82 78 79 81 80 81 83 79 80 82 78 79 81 79 80 82 79 80 82 79 80 82 78 79 81 79 80 82 78 79 81 79 80 82 79 80 82 78 79 81 80 81 83 79 80 82 80 81 83 79 80 82 79 80 82 80 81 83 80 81 83 80 81 83 79 80 82 80 81 83 80 81 83 80 81 83 80 81 83 80 81 83 80 81 83 79 80 82 80 81 83 80 81 83 
72 76 79 73 74 78 72 73 77 74 75 79 73 74 78 72 76 79 72 76 79 72 76 79 74 75 79 73 77 80 75 76 80 72 76 79 72 76 79 74 75 79 72 76 79 75 76 80 74 75 79 75 76 80 74 75 79 76 77 81 76 77 81 76 77 81 76 77 81 75 76 80 74 78 81 76 77 81 74 78 81 76 77 81 76 77 81 76 77 79 76 77 79 78 78 80 76 77 79 77 78 80 77 78 80 77 78 80 77 78 80 77 78 80 77 78 80 78 79 81 76 77 81 78 79 83 77 78 82 77 78 82 75 76 80 76 77 81 77 78 82 77 78 82 77 78 82 77 78 82 77 78 82 78 79 83 79 80 84 79 80 84 77 78 82 77 78 82 78 79 83 78 79 83 77 78 82 78 79 83 78 79 83 77 78 82 78 79 83 78 79 83 78 79 81 79 80 82 78 79 81 78 79 81 78 79 81 77 78 80 78 79 81 79 80 82 77 78 80 79 80 82 79 80 82 78 79 81 78 79 81 78 79 81 78 79 81 79 80 82 79 80 82 79 80 82 79 80 82 79 80 82 79 80 82 80 81 83 79 80 82 80 81 83 79 80 82 79 80 82 80 81 83 80 81 83 80 81 83 80 81 83 80 81 83 79 80 82 79 80 82 80 81 83 80 81 83 79 80 82 
72 76 79 70 74 77 71 75 78 72 73 77 73 74 78 73 74 78 75 74 79 74 75 79 71 75 78 71 75 78 74 75 79 73 74 78 74 75 79 74 75 79 72 76 79 73 77 80 73 77 80 73 77 80 73 77 80 74 78 81 74 78 81 73 77 80 73 77 80 72 76 79 74 78 81 72 76 79 76 77 81 77 78 82 75 76 80 75 76 81 75 76 80 76 77 81 77 78 80 77 78 80 77 78 80 78 79 81 76 77 79 77 78 80 77 78 80 77 78 80 76 77 81 76 77 81 77 78 82 77 78 82 77 78 82 76 77 81 77 78 82 78 79 83 76 77 79 75 76 78 76 77 79 77 78 80 77 78 80 78 79 81 76 77 79 77 78 80 78 79 83 77 78 82 78 79 83 78 79 83 78 79 83 77 78 82 78 79 83 79 80 84 78 79 81 78 79 81 78 79 81 78 79 81 76 77 79 80 81 83 79 80 82 78 79 81 77 78 80 78 79 81 78 79 81 79 80 82 78 79 81 78 79 81 79 80 82 78 79 81 78 79 81 78 79 81 79 80 82 79 80 82 79 80 82 79 80 82 79 80 82 79 80 82 80 81 83 78 79 81 79 80 82 79 80 82 80 81 83 79 80 82 79 80 82 80 81 83 79 80 82 79 80 82 80 81 83 80 81 83 
73 74 78 70 74 77 73 74 78 72 73 77 71 72 76 73 74 78 73 74 78 71 75 78 73 74 78 71 75 78 73 74 78 71 75 78 72 76 79 73 74 78 71 75 78 75 76 80 73 77 80 73 77 80 72 76 79 73 77 80 74 78 81 74 78 81 74 78 81 73 77 80 73 77 80 73 77 80 74 75 79 73 77 80 76 77 81 75 76 78 75 77 76 76 77 79 76 77 79 76 77 79 76 77 79 77 78 80 75 76 78 76 77 79 76 77 79 76 77 79 75 76 78 76 77 79 77 78 80 76 77 79 76 77 79 77 78 80 77 78 80 76 77 79 77 78 80 76 77 79 75 76 78 78 79 81 78 79 81 77 78 80 77 78 80 76 77 79 77 78 80 77 78 80 78 79 81 78 79 81 77 78 80 77 78 80 78 79 81 77 78 80 78 79 81 78 79 81 78 79 83 77 78 82 77 78 80 80 81 83 78 79 81 78 79 81 77 78 80 78 79 81 78 79 81 79 80 82 78 79 81 78 79 81 79 80 82 79 80 82 80 81 83 78 79 81 79 80 82 77 78 80 79 80 82 79 80 82 79 80 82 79 80 82 78 79 81 79 80 82 79 80 82 80 81 83 80 81 83 79 80 82 80 81 83 80 81 83 79 80 82 79 80 82 80 81 83 79 80 82 
73 74 78 72 73 77 72 73 77 72 73 77 70 74 77 71 75 78 71 75 78 69 73 76 72 73 77 70 74 77 73 74 78 73 77 80 71 75 78 72 73 77 71 75 78 73 74 78 72 76 79 72 76 79 71 75 78 73 77 80 72 76 79 72 76 79 73 77 80 72 76 79 74 78 81 76 75 80 72 76 79 71 75 78 73 77 80 76 77 81 76 77 81 77 77 79 76 77 81 76 77 81 76 77 81 76 77 81 75 76 80 76 77 81 76 77 81 75 76 80 76 77 79 77 78 80 76 77 79 76 77 79 76 77 79 77 78 80 77 78 80 77 78 80 77 78 80 76 77 79 76 77 79 77 78 80 76 77 79 77 78 80 76 77 79 77 78 80 76 77 79 77 78 80 76 77 79 76 77 79 78 79 81 77 78 80 76 77 79 77 78 80 77 78 82 78 79 83 77 78 82 77 78 82 77 78 80 78 79 81 78 79 81 78 79 81 77 78 80 78 79 81 78 79 81 78 79 81 79 80 82 76 77 79 79 80 82 79 80 82 79 80 82 79 80 82 79 80 82 78 79 81 78 79 81 79 80 82 79 80 82 79 80 82 79 80 82 79 80 82 78 79 81 78 79 81 78 79 81 78 79 81 78 79 81 79 80 82 80 81 83 79 80 82 80 81 83 80 81 83 
69 73 76 70 74 77 68 72 75 70 74 77 70 74 77 69 73 76 72 71 76 70 71 75 69 73 76 70 74 77 72 73 77 73 74 78 71 72 76 72 73 77 70 74 77 70 74 77 71 75 78 71 75 78 70 74 77 72 76 79 73 77 80 73 77 80 72 76 79 72 76 79 74 75 79 74 73 78 71 75 78 72 76 79 72 76 79 73 77 80 73 77 80 75 76 80 77 78 82 76 77 81 76 77 81 76 77 81 75 76 80 76 77 81 76 77 81 74 75 79 75 76 80 75 76 80 76 77 81 75 76 80 75 76 80 76 77 81 76 77 81 76 77 81 77 78 82 76 77 81 76 77 81 77 78 82 76 77 81 77 78 82 76 77 81 76 77 81 77 78 82 77 78 82 77 78 82 75 76 80 76 77 81 77 78 82 77 78 82 78 79 83 78 79 83 77 78 82 77 78 82 77 78 82 78 79 81 76 77 79 78 79 81 78 79 81 77 78 82 78 79 83 78 79 83 78 79 83 80 81 85 78 79 83 79 80 84 78 79 83 78 79 81 78 79 81 79 80 82 78 79 81 79 80 82 79 80 82 79 80 82 78 79 81 78 79 81 79 80 82 79 80 82 78 79 81 79 80 82 78 79 81 79 80 82 81 82 84 79 80 82 79 80 82 81 82 84 79 80 82 
69 73 76 68 72 75 67 72 75 69 73 76 71 72 76 71 72 76 71 72 76 70 71 75 72 73 77 70 74 77 71 72 76 70 74 77 70 74 77 73 74 78 71 75 78 73 74 78 73 74 78 72 73 77 73 74 78 73 74 78 74 75 79 75 76 80 74 75 79 74 75 79 75 76 80 71 75 78 73 74 78 73 77 80 74 75 79 73 77 80 73 77 80 74 78 81 72 76 79 73 77 80 71 75 78 73 77 80 73 77 80 73 77 80 72 76 79 73 77 80 74 75 79 75 76 80 76 77 81 76 77 81 75 76 80 74 75 79 76 77 81 75 76 80 76 77 81 75 76 80 77 78 82 76 77 81 76 77 81 77 78 82 76 77 81 77 78 82 77 78 82 78 79 83 77 78 82 75 76 80 76 77 81 76 77 81 77 78 82 78 79 83 77 78 82 77 78 82 76 77 81 76 77 81 77 78 80 78 79 81 78 79 83 77 78 82 78 79 81 76 77 79 78 79 81 78 79 81 77 78 80 79 80 82 79 80 82 79 80 82 79 80 82 78 79 81 79 80 82 78 79 81 79 80 82 77 78 80 79 80 82 79 80 82 78 79 81 78 79 81 79 80 82 78 79 81 78 79 81 79 80 82 79 80 82 78 79 81 79 80 84 78 79 83 80 81 85 80 81 85 
70 71 75 69 70 74 70 71 75 67 71 74 68 72 75 68 72 75 68 72 75 71 72 76 70 74 77 69 73 76 71 72 76 71 72 76 73 74 78 72 73 77 70 74 77 71 75 78 74 75 79 73 74 78 73 74 78 73 74 78 74 75 79 75 76 80 75 76 80 73 74 78 71 75 78 72 76 79 72 76 79 74 75 79 75 76 80 76 77 81 73 77 80 72 76 79 75 76 80 74 75 79 73 74 78 74 75 79 76 77 81 75 76 80 74 75 79 75 76 80 73 77 80 72 76 79 73 77 80 74 78 81 73 77 80 74 78 81 74 78 81 75 79 82 75 76 80 75 76 80 76 77 81 76 77 81 76 77 81 77 78 82 77 78 82 76 77 81 77 78 82 77 78 82 76 77 81 74 75 79 76 77 81 77 78 82 77 78 82 77 78 82 76 77 81 77 78 82 76 77 81 76 77 81 76 77 79 76 77 79 76 77 81 77 78 82 78 79 81 77 78 80 77 78 80 78 79 81 78 79 81 78 79 81 77 78 80 77 78 80 78 79 83 78 79 83 78 79 83 79 80 84 78 79 83 78 79 83 78 79 83 78 79 83 78 79 81 79 80 82 79 80 82 79 80 82 78 79 81 79 80 82 79 80 82 78 79 81 78 79 81 79 80 82 79 80 82 79 80 82 
70 71 75 70 71 75 68 72 75 68 72 75 68 72 75 70 71 75 71 72 76 71 72 76 71 72 76 68 72 75 69 73 76 70 74 77 70 74 77 70 74 77 71 75 78 73 74 78 73 74 78 72 73 77 72 73 77 72 76 79 74 75 79 73 74 78 72 76 79 73 74 78 73 74 78 74 75 79 74 75 79 73 77 80 72 76 79 74 75 79 74 75 79 73 74 78 73 77 80 72 76 79 74 75 79 75 76 80 73 77 80 73 77 80 73 74 78 74 75 79 72 76 79 73 77 80 73 77 80 75 76 80 75 79 82 74 78 81 72 76 79 76 77 81 74 78 81 74 78 81 73 77 80 74 78 81 74 78 81 75 79 82 75 79 82 75 79 82 75 79 82 74 78 81 77 78 82 75 76 80 77 78 82 74 78 81 76 80 83 74 78 81 76 77 81 74 78 81 75 76 80 77 78 82 77 78 82 77 78 80 78 79 81 77 78 80 77 78 80 76 77 79 77 78 80 78 79 81 78 79 81 78 79 81 77 78 80 78 79 81 78 79 81 77 78 80 78 79 81 78 79 81 78 79 81 78 79 81 78 79 81 77 78 80 78 79 81 78 79 81 78 79 81 78 79 81 79 80 82 78 79 81 78 79 81 79 80 82 78 79 83 78 79 83 77 78 82 78 79 83 
68 69 73 69 70 74 70 71 75 66 70 73 68 72 75 69 70 74 70 71 75 71 72 76 67 71 74 71 72 76 70 71 75 71 72 76 70 71 75 71 72 76 72 73 77 70 74 77 69 73 76 69 73 76 70 74 77 72 73 77 71 75 78 70 74 77 73 74 78 69 73 76 72 76 79 71 75 78 70 74 77 73 74 78 74 75 79 72 76 79 72 76 79 72 76 79 73 74 78 73 74 78 72 76 79 71 75 78 75 76 80 74 75 79 72 76 79 72 76 79 74 75 79 72 76 79 73 77 80 73 77 80 73 77 80 75 76 80 73 77 80 73 77 80 73 77 80 72 76 79 73 77 80 73 77 80 72 76 79 74 78 81 74 78 81 74 78 81 75 76 80 75 76 80 73 77 80 76 77 81 76 77 81 76 77 81 75 76 80 77 78 82 76 77 81 73 77 80 76 77 81 76 77 81 77 78 82 76 77 79 77 78 80 79 80 82 78 79 81 77 78 80 77 78 80 78 79 81 77 78 80 77 78 80 77 78 80 78 79 81 78 79 83 78 79 83 78 79 83 77 78 82 78 79 83 77 78 82 78 79 83 78 79 83 79 80 82 78 79 81 79 80 82 79 80 82 79 80 82 79 80 82 78 79 81 79 80 82 79 80 84 77 78 82 78 79 83 79 80 84 
69 70 74 69 70 74 70 71 75 69 70 74 67 71 74 68 72 75 69 70 74 68 72 75 67 71 74 69 70 74 70 71 75 70 71 75 71 72 76 70 71 75 71 72 76 69 73 76 72 73 77 71 72 76 72 73 77 69 73 76 72 73 77 72 73 77 70 74 77 72 73 77 71 75 78 70 74 77 72 76 79 73 74 78 73 74 78 72 76 79 70 74 77 71 75 78 72 76 79 70 74 77 72 76 79 72 76 79 74 75 79 74 75 79 73 74 78 74 75 79 72 76 79 75 76 80 75 76 80 73 77 80 72 76 79 71 75 78 74 75 79 73 77 80 72 76 79 73 77 80 73 77 80 72 76 79 73 77 80 73 77 80 73 77 80 73 77 80 72 76 79 73 77 80 72 76 79 74 78 81 74 78 81 75 79 82 74 78 81 76 77 81 76 77 81 76 77 81 75 76 80 76 77 81 76 77 81 77 78 80 77 78 80 77 78 80 77 78 80 77 78 80 78 79 81 78 79 81 77 78 80 77 78 80 78 79 81 78 79 81 78 79 83 77 78 82 77 78 82 77 78 82 78 79 83 77 78 82 78 79 83 77 78 82 78 79 81 79 80 82 79 80 82 79 80 82 79 80 82 79 80 82 79 80 82 80 81 83 79 80 84 77 78 82 78 79 83 78 79 83 
68 69 73 68 69 73 68 69 73 68 69 73 67 71 74 67 71 74 66 70 73 66 70 73 67 71 74 69 70 74 69 70 74 69 70 74 70 71 75 70 71 75 70 71 75 68 72 75 68 72 75 69 73 76 69 73 76 71 72 76 68 72 75 70 74 77 71 72 76 69 73 76 72 73 77 72 73 77 71 72 76 70 74 77 70 74 77 72 73 77 73 74 78 73 74 78 70 74 77 70 74 77 72 73 77 72 73 77 72 76 79 71 75 78 74 75 79 74 75 79 72 76 79 71 75 78 72 76 79 72 76 79 71 75 78 74 75 79 75 76 80 72 76 79 72 76 79 73 77 80 72 76 79 72 76 79 74 78 81 73 77 80 73 77 80 73 77 80 75 76 80 74 75 79 74 75 79 76 77 81 75 76 80 76 77 81 73 77 80 75 76 80 77 78 82 76 77 81 74 75 79 75 76 80 76 77 81 77 78 80 77 78 80 77 78 80 76 77 79 77 78 80 76 77 79 76 77 79 77 78 80 77 78 80 77 78 80 78 79 81 77 78 80 77 78 80 76 77 79 76 77 79 76 77 79 75 76 78 76 77 79 78 79 81 79 80 82 77 78 80 78 79 81 77 78 80 78 79 81 79 80 82 78 79 81 78 79 81 77 78 82 78 79 83 78 79 83 77 78 82 
68 69 73 67 68 72 68 69 73 67 68 72 65 69 72 66 70 73 68 69 73 65 70 73 69 70 74 66 70 73 66 70 73 68 72 75 67 71 74 67 71 74 67 71 74 69 70 74 67 71 74 67 71 74 69 73 76 71 72 76 68 72 75 69 73 76 71 72 76 68 72 75 69 73 76 71 72 76 69 73 76 69 73 76 70 74 77 70 74 77 72 73 77 70 74 77 72 73 77 73 74 78 72 73 77 72 73 77 72 76 79 71 75 78 71 75 78 71 75 78 73 74 78 71 75 78 72 76 79 70 74 77 73 74 78 72 76 79 70 74 77 72 76 79 74 75 79 74 75 79 73 74 78 75 76 80 77 78 82 76 77 81 75 76 80 75 76 80 75 76 80 73 74 78 71 76 79 73 77 80 72 76 79 73 74 78 72 76 79 73 77 80 77 78 82 75 76 80 75 76 80 74 75 79 76 77 81 76 77 79 76 77 79 75 76 78 78 79 81 75 76 78 75 76 78 76 77 79 77 78 80 76 77 79 77 78 80 76 77 79 77 78 80 76 77 79 77 78 80 78 79 81 77 78 80 77 78 80 77 78 80 77 78 80 76 77 79 76 77 79 78 79 81 77 78 80 77 78 80 78 79 81 78 79 81 79 80 82 78 79 83 78 79 83 78 79 83 78 79 83 
64 65 69 65 66 70 66 67 71 67 68 72 66 67 71 67 68 72 67 68 72 66 70 73 69 70 74 67 71 74 67 71 74 67 71 74 67 71 74 67 71 74 67 71 74 69 70 74 70 71 75 68 69 73 69 70 74 68 72 75 70 71 75 70 71 75 69 73 76 70 71 75 68 72 75 69 73 76 69 73 76 70 71 75 70 71 75 69 73 76 70 74 77 70 74 77 70 74 77 71 72 76 70 74 77 70 74 77 73 74 78 73 74 78 70 74 77 73 74 78 70 74 77 69 73 76 72 76 79 74 75 79 71 75 78 72 76 79 72 76 79 74 75 79 74 75 79 73 74 78 73 74 78 75 76 80 75 76 80 75 76 80 75 76 80 74 75 79 74 75 79 75 76 80 72 76 79 74 78 81 71 75 78 74 75 79 74 75 79 75 76 80 76 77 81 75 76 80 74 75 79 74 75 79 74 75 79 75 76 78 74 75 77 75 76 78 75 76 78 76 77 79 75 76 78 76 77 79 76 77 79 74 75 77 75 76 78 76 77 79 76 77 81 77 78 82 78 79 83 78 79 83 77 78 82 77 78 82 77 78 82 77 78 82 76 77 79 77 78 80 76 77 79 77 78 80 78 79 81 78 79 81 77 78 80 77 78 80 78 79 83 78 79 83 78 79 83 78 79 83 
65 66 70 64 65 69 64 65 69 66 65 70 64 65 69 66 67 71 67 68 72 66 70 73 71 72 76 66 70 73 66 70 73 68 72 75 67 71 74 67 71 74 67 71 74 69 70 74 68 72 75 68 72 75 67 71 74 70 71 75 67 71 74 68 72 75 71 72 76 69 73 76 70 71 75 67 71 74 70 71 75 70 71 75 70 71 75 70 71 75 70 74 77 72 73 77 69 73 76 68 72 75 70 74 77 69 73 76 72 73 77 72 73 77 72 73 77 71 72 76 71 72 76 69 73 76 70 74 77 71 75 78 73 74 78 71 75 78 70 74 77 70 74 77 72 73 77 72 73 77 73 74 78 73 74 78 73 74 78 74 75 79 75 76 80 73 74 78 74 75 79 72 76 79 74 75 79 72 77 80 72 76 79 73 77 80 74 75 79 75 76 80 72 76 79 75 76 80 74 75 79 74 75 79 73 74 78 75 76 78 75 76 78 75 76 78 75 76 78 76 77 79 75 76 78 75 76 78 76 77 79 75 76 78 76 77 79 77 78 80 76 77 81 76 77 81 76 77 81 76 77 81 75 76 80 76 77 81 76 77 81 75 76 80 76 77 79 77 78 80 77 78 80 77 78 80 78 79 81 79 80 82 77 78 80 78 79 81 77 78 82 77 78 82 77 78 82 78 79 83 
64 65 69 64 65 69 65 64 69 65 66 70 65 66 70 66 67 71 65 69 72 66 70 73 67 71 74 69 70 74 69 70 74 68 69 73 69 70 74 69 70 74 68 69 73 67 71 74 69 70 74 69 70 74 68 69 73 68 72 75 70 71 75 70 71 75 68 72 75 69 70 74 67 71 74 69 70 74 68 72 75 68 72 75 69 73 76 68 72 75 70 71 75 69 73 76 72 73 77 72 73 77 72 73 77 72 73 77 71 75 78 71 75 78 69 73 76 70 74 77 70 74 77 72 73 77 72 73 77 71 75 78 71 75 78 70 74 77 72 73 77 69 73 76 72 73 77 72 73 77 74 75 79 72 73 77 73 74 78 73 74 78 72 73 77 74 75 79 73 74 78 74 75 79 74 75 79 73 77 80 73 77 80 73 77 80 74 75 79 74 75 79 73 77 80 74 75 79 72 76 79 71 75 78 74 75 79 75 76 78 75 76 78 75 76 78 75 76 78 76 77 79 75 76 78 76 77 79 75 76 78 75 76 78 76 77 79 77 78 80 75 76 78 77 78 80 75 76 78 76 77 79 76 77 79 77 78 80 76 77 79 75 76 78 76 77 79 76 77 79 76 77 79 77 78 80 77 78 80 76 77 79 77 78 80 76 77 79 77 78 82 76 77 81 77 78 82 77 78 82 
64 65 69 65 66 70 65 66 70 66 67 71 64 65 69 65 66 70 66 67 71 66 67 71 67 68 72 67 68 72 68 69 73 68 69 73 68 69 73 68 69 73 68 69 73 68 69 73 68 69 73 68 69 73 68 69 73 69 70 74 69 70 74 69 70 74 69 70 74 70 71 75 69 70 74 68 69 73 69 70 74 69 70 74 68 72 75 68 72 75 68 72 75 68 72 75 69 73 76 69 73 76 68 73 76 70 71 75 67 72 75 69 73 76 70 74 77 68 72 75 68 72 75 71 72 76 70 74 77 69 73 76 72 73 77 73 74 78 70 74 77 72 73 77 70 74 77 70 74 77 71 75 78 73 74 78 73 74 78 72 76 79 71 75 78 72 76 79 71 75 78 72 76 79 71 75 78 70 74 77 71 75 78 74 75 79 75 76 80 73 74 78 72 76 79 71 75 78 74 75 79 73 74 78 74 75 77 75 76 78 75 76 78 75 76 78 75 76 78 74 75 79 75 76 78 75 76 80 76 77 79 76 77 81 76 77 79 75 76 78 75 76 78 76 77 79 76 77 79 76 77 79 76 77 79 76 77 79 75 76 78 77 78 80 76 77 79 77 78 80 76 77 79 77 78 80 78 79 81 77 78 80 77 78 80 76 77 79 77 78 80 77 78 80 77 78 80 77 78 80 
64 65 69 65 66 70 63 64 68 64 65 69 63 64 68 62 63 67 64 65 69 64 65 69 65 66 70 66 67 71 67 68 72 67 68 72 66 67 71 67 68 72 67 68 72 67 68 72 68 69 73 68 69 73 69 70 74 68 69 73 69 70 74 67 68 72 67 68 72 69 70 74 66 70 73 66 70 73 67 71 74 68 72 75 70 71 75 70 71 75 70 71 75 71 72 76 68 72 75 70 71 75 71 70 75 70 71 75 70 71 75 71 72 76 68 72 75 71 72 76 71 72 76 69 73 76 70 71 75 71 72 76 69 73 76 68 72 75 72 73 77 69 73 76 72 73 77 72 73 77 73 74 78 73 74 78 73 74 78 74 75 79 74 75 79 73 74 78 74 75 79 74 75 79 73 74 78 71 72 76 73 74 78 73 74 78 75 76 80 71 75 78 71 75 78 71 75 78 73 74 78 74 75 79 74 75 77 74 75 77 75 76 78 75 76 78 74 75 77 74 75 77 76 77 79 75 76 80 76 77 79 75 76 80 75 76 78 75 76 78 77 78 80 76 77 79 75 76 78 76 77 79 75 76 78 76 77 79 75 76 78 75 76 78 76 77 79 76 77 79 76 77 79 77 78 80 77 78 80 76 77 79 76 77 79 76 77 79 75 76 78 75 76 78 75 76 78 77 78 80 
63 64 68 64 65 69 63 64 68 64 65 69 64 65 69 62 63 67 63 64 68 63 64 68 64 65 69 65 66 70 66 67 71 66 67 71 66 67 71 66 67 71 66 67 71 67 68 72 68 69 73 67 68 72 67 68 72 68 69 73 68 69 73 68 69 73 67 68 72 68 69 73 65 69 72 64 68 71 66 70 73 67 71 74 70 71 75 69 70 74 69 70 74 69 70 74 69 73 76 68 72 75 69 73 76 66 71 74 69 73 76 69 73 76 68 72 75 70 74 77 70 74 77 71 72 76 70 74 77 70 74 77 71 72 76 70 71 75 68 72 75 72 73 77 72 73 77 73 74 78 73 74 78 74 75 79 73 74 78 73 74 78 73 74 78 73 74 78 74 75 79 72 76 79 69 73 76 69 73 76 70 74 77 72 76 79 72 76 79 71 75 78 70 74 77 71 75 78 75 76 80 73 74 78 74 75 77 74 75 77 74 75 77 73 74 76 75 76 78 75 76 78 75 76 78 74 75 79 75 76 78 76 77 79 75 76 78 74 75 77 74 75 77 75 76 78 75 76 78 75 76 78 76 77 79 75 76 78 76 77 79 76 77 79 76 77 79 76 77 79 76 77 79 77 78 80 77 78 80 76 77 79 77 78 80 76 77 79 77 78 80 77 78 80 77 78 80 78 79 81 
61 62 66 61 62 66 61 62 66 62 63 67 63 64 68 62 63 67 62 63 67 61 62 66 62 63 67 64 65 69 64 65 69 65 66 70 64 65 69 65 66 70 65 66 70 65 66 70 65 66 70 65 66 70 66 67 71 67 68 72 66 67 71 67 68 72 67 68 72 67 68 72 67 68 72 67 68 72 68 69 73 68 69 73 66 70 73 67 71 74 66 70 73 66 70 73 69 70 74 69 70 74 70 71 75 68 69 73 66 70 73 70 71 75 69 70 74 70 71 75 71 72 76 68 72 75 70 71 75 70 71 75 68 72 75 68 72 75 71 72 76 68 72 75 70 71 75 69 73 76 69 73 76 70 74 77 70 74 77 70 74 77 69 73 76 72 73 77 69 73 76 69 73 76 69 73 76 72 73 77 72 73 77 73 74 78 73 74 78 72 73 77 70 74 77 71 75 78 74 75 79 75 76 80 73 74 76 74 75 77 74 75 77 74 75 77 74 75 77 75 76 78 73 74 76 74 75 77 74 75 77 73 74 76 75 76 78 74 75 77 75 76 78 74 75 77 75 76 78 75 76 78 75 76 78 74 75 77 74 75 77 74 75 77 74 75 77 76 77 79 74 75 77 74 75 77 75 76 78 74 75 77 75 76 78 76 77 79 76 77 79 76 77 79 77 78 80 77 78 80 
59 60 64 61 62 66 61 62 66 61 62 66 62 63 67 61 62 66 61 62 66 62 63 67 62 63 67 62 63 67 63 64 68 63 64 68 63 64 68 64 65 69 65 66 70 64 65 69 64 65 69 65 66 70 66 67 71 66 67 71 67 68 72 67 68 72 67 68 72 67 68 72 66 67 71 67 68 72 67 68 72 68 69 73 67 71 74 66 70 73 66 70 73 66 70 73 66 70 73 67 71 74 67 71 74 69 70 74 66 70 73 68 72 75 68 72 75 68 72 75 70 71 75 68 72 75 70 71 75 69 70 74 68 72 75 68 72 75 69 70 74 68 72 75 71 72 76 70 74 77 69 73 76 69 73 76 69 73 76 70 74 77 68 72 75 69 70 74 69 73 76 68 72 75 69 73 76 72 73 77 73 74 78 72 73 77 73 74 78 73 74 78 70 74 77 71 75 78 74 75 79 74 75 79 73 74 76 73 74 76 73 74 76 73 74 76 73 74 76 74 75 77 73 74 76 73 74 76 74 75 77 74 75 77 74 75 77 74 75 77 74 75 77 75 76 78 74 75 77 75 76 78 74 75 77 75 76 78 75 76 78 75 76 78 75 76 78 75 76 78 74 75 77 74 75 77 75 76 78 75 76 78 76 77 79 75 76 78 76 77 79 76 77 79 76 77 79 77 78 80 
60 61 65 59 60 64 60 61 65 60 61 65 59 60 64 61 62 66 61 62 66 62 63 67 61 62 66 62 63 67 62 63 67 61 62 66 63 64 68 64 65 69 65 66 70 64 65 69 64 65 69 63 64 68 65 66 70 65 66 70 65 66 70 66 67 71 66 67 71 65 66 70 65 69 72 64 68 71 65 69 72 65 69 72 69 70 74 68 69 73 67 68 72 68 69 73 66 70 73 68 69 73 67 71 74 69 70 74 66 70 73 66 70 73 68 72 75 70 71 75 66 70 73 70 71 75 67 71 74 67 71 74 69 70 74 70 71 75 69 73 76 70 71 75 69 70 74 70 71 75 70 71 75 71 72 76 71 72 76 72 73 77 71 72 76 70 71 75 69 70 74 70 74 77 68 72 75 69 73 76 70 74 77 71 75 78 72 76 79 69 73 76 70 74 77 70 74 77 73 74 78 72 73 77 72 73 75 73 74 76 72 73 75 73 74 76 73 74 76 74 75 77 74 75 77 74 75 77 73 74 78 74 75 77 73 74 76 75 76 78 73 74 76 74 75 77 75 76 78 73 74 76 75 76 78 75 76 78 74 75 77 75 76 78 74 75 77 73 74 76 74 75 77 74 75 77 74 75 77 74 75 77 75 76 78 75 76 78 75 76 78 76 77 79 76 77 79 76 77 79 
