P3
100 50
255
49 31 21 47 30 20 41 27 16 33 22 16 26 19 13 20 16 13 15 15 15 12 14 13 9 13 14 9 13 14 7 11 12 6 10 11 7 11 12 8 12 13 6 10 11 6 10 11 6 10 13 7 11 12 7 11 14 8 12 13 10 11 13 12 12 14 12 12 12 17 13 12 30 20 18 44 31 25 55 40 33 63 50 42 64 53 47 66 57 50 67 60 52 67 60 52 67 54 45 67 53 42 67 51 38 68 50 36 67 49 35 64 45 31 63 41 27 57 35 22 51 29 15 45 23 10 45 23 10 46 24 11 50 26 16 54 32 21 54 30 18 51 27 17 49 25 13 45 21 11 44 20 10 50 26 16 56 32 22 62 38 28 66 47 33 67 53 44 66 58 47 67 58 49 69 59 49 65 52 43 59 42 34 51 32 25 42 25 15 34 21 13 31 20 16 28 18 16 25 17 14 23 15 13 18 14 11 17 13 12 16 14 15 15 14 12 13 12 10 13 12 10 14 13 11 14 13 11 19 15 12 24 16 13 34 23 17 43 30 22 48 33 26 44 31 23 33 24 17 26 19 13 23 15 12 21 16 12 18 13 9 22 14 11 19 14 11 20 15 12 21 13 11 21 13 11 22 12 11 24 13 11 31 18 12 38 21 13 42 22 13 48 24 12 49 26 12 54 31 15 
47 30 20 44 30 21 42 29 20 37 27 17 28 23 17 20 19 15 15 15 13 12 12 12 9 13 14 8 12 13 8 12 13 8 12 13 8 12 13 8 12 13 8 12 13 7 11 12 9 10 12 7 11 12 8 9 13 10 11 13 8 12 13 11 11 13 13 11 12 18 12 12 29 19 17 44 30 27 56 41 36 62 49 43 64 55 48 66 57 50 67 60 52 68 61 53 65 55 45 66 52 41 65 49 34 69 51 37 67 48 33 66 44 30 64 42 29 61 37 25 51 29 16 45 23 10 42 22 11 42 22 11 44 24 15 44 24 15 42 22 13 43 20 14 42 19 13 41 21 14 43 20 14 47 24 16 53 30 22 62 40 29 66 48 36 68 54 43 67 58 49 67 58 49 66 57 50 66 53 44 62 45 35 53 36 26 44 27 17 32 18 15 27 16 12 25 15 13 22 14 12 23 15 13 19 15 12 17 13 12 19 15 12 18 17 13 18 17 13 19 15 12 19 15 12 20 15 12 20 15 11 27 20 14 36 26 17 44 31 23 51 34 27 47 34 26 36 25 19 29 20 15 24 14 12 21 16 12 25 15 13 24 14 12 24 15 10 24 14 12 22 14 12 23 13 12 23 13 12 25 14 12 33 18 13 38 21 14 43 20 14 47 23 13 50 26 14 53 30 14 
46 29 21 44 30 19 42 29 21 38 27 21 32 24 21 23 19 16 15 15 13 12 14 13 10 12 11 8 12 13 7 11 12 8 12 13 8 12 13 6 10 11 8 12 13 8 12 13 9 10 12 10 11 13 7 11 12 7 11 12 10 11 13 11 11 13 13 11 12 20 14 14 30 19 17 45 30 27 57 39 35 63 50 44 64 53 47 67 58 51 67 60 52 68 61 53 66 56 44 66 52 39 66 50 35 67 49 35 66 47 32 65 43 29 65 43 29 61 38 24 55 31 19 46 24 13 44 22 11 43 20 12 41 21 12 39 19 12 39 19 12 38 17 12 39 18 13 40 19 14 41 20 15 47 24 18 50 30 21 59 40 26 66 46 35 66 54 42 67 57 48 67 58 49 66 59 51 67 53 44 62 45 35 53 34 27 45 28 18 33 20 14 28 17 15 24 14 12 20 15 12 22 14 12 20 15 12 18 14 13 20 14 14 23 18 14 23 18 15 24 19 15 24 19 13 25 17 14 25 18 12 29 20 15 35 25 16 45 32 23 49 35 26 49 35 26 39 26 18 28 19 12 24 14 12 24 16 13 28 17 15 27 16 14 26 15 13 26 16 14 25 15 13 23 13 12 24 14 15 27 16 14 35 20 15 37 20 13 43 20 12 44 24 13 51 27 15 55 28 17 
41 26 19 41 28 20 42 27 20 38 29 20 34 27 21 24 21 16 17 16 14 13 13 11 10 12 11 7 11 10 8 12 11 8 12 13 8 12 13 8 12 13 7 11 12 8 12 13 8 12 13 8 12 13 7 11 12 7 11 12 10 11 13 12 12 12 14 12 13 24 16 14 33 22 20 44 30 27 55 40 35 63 50 44 67 56 50 67 56 50 67 58 51 68 59 50 68 56 42 66 52 39 66 47 33 67 45 31 66 43 29 64 41 27 66 40 25 61 38 24 58 35 21 49 27 13 45 23 12 41 21 12 41 21 12 38 19 12 37 18 12 39 20 14 38 19 13 39 20 14 43 22 17 47 24 18 52 30 19 59 37 24 65 46 32 67 53 42 68 56 44 69 56 47 69 56 48 67 50 42 60 43 33 52 34 24 44 27 19 35 20 15 29 18 16 25 15 13 22 13 14 22 14 12 19 14 11 20 15 12 24 16 14 28 20 17 31 23 20 33 26 20 32 25 19 32 23 18 31 20 16 33 22 18 34 21 13 38 25 16 42 29 20 43 29 20 34 24 15 28 17 11 25 16 11 28 17 13 32 21 17 36 23 17 34 20 17 33 19 18 28 17 15 26 15 13 27 16 14 30 16 15 37 19 15 41 21 14 46 26 15 51 29 18 54 32 19 57 35 22 
37 24 18 37 26 20 37 27 18 37 28 21 33 26 20 24 21 16 17 17 15 14 14 14 10 12 11 9 11 10 7 11 10 8 12 13 9 13 14 10 11 13 10 11 13 9 13 14 10 11 13 8 12 13 10 11 13 10 11 13 12 14 13 13 13 13 15 14 12 23 18 15 34 24 22 46 33 27 56 41 34 61 48 40 63 53 44 66 56 47 67 58 49 68 58 48 68 56 44 66 50 35 63 44 29 63 40 24 66 40 23 65 39 22 65 39 24 63 40 24 61 38 22 53 31 18 50 28 17 47 24 16 46 23 15 43 23 16 44 24 17 43 22 17 44 23 18 43 22 17 45 25 18 45 25 18 49 29 20 57 35 22 66 42 30 67 47 36 67 50 40 69 52 42 68 51 41 64 46 36 58 38 27 52 32 23 45 26 19 33 20 14 29 18 16 26 16 15 24 16 13 24 14 12 23 13 12 25 15 13 30 19 15 35 24 18 40 29 23 42 32 23 44 34 25 42 32 23 36 25 19 32 21 15 34 21 13 38 23 16 40 27 19 38 25 17 33 20 14 29 15 12 26 15 11 30 19 15 40 25 20 45 28 21 46 28 24 43 28 21 39 24 17 34 19 14 32 17 12 34 17 10 37 18 11 44 24 17 54 32 19 56 38 24 61 39 26 61 42 25 
29 20 15 32 22 20 34 23 19 32 25 19 28 23 19 21 17 16 15 14 10 12 12 12 10 12 11 11 11 11 11 13 12 10 14 13 10 14 15 12 13 15 10 11 13 8 12 13 8 12 13 11 13 12 10 11 13 10 12 11 13 13 13 14 14 14 19 15 14 25 17 15 34 24 22 43 32 26 53 40 32 58 45 37 63 48 41 64 51 43 65 52 44 65 51 42 65 48 38 61 43 31 58 39 25 53 34 19 58 35 21 60 37 21 65 39 24 64 41 25 64 41 25 61 37 25 56 34 21 55 31 21 53 31 20 51 28 20 50 30 21 53 30 24 50 30 23 48 27 22 51 28 22 50 27 19 49 30 23 57 35 24 63 40 26 64 44 35 65 47 35 67 49 37 66 46 35 63 43 34 58 36 25 50 30 19 42 23 16 34 19 14 31 17 14 31 17 16 30 19 15 31 20 16 32 18 15 34 20 17 36 23 17 42 29 21 46 32 23 51 39 27 52 42 30 50 40 28 45 32 23 36 23 15 36 23 17 39 24 19 39 29 20 41 26 19 33 20 14 28 17 13 26 16 14 29 20 15 39 24 19 48 29 23 51 34 26 53 36 28 51 34 26 45 28 20 40 23 15 39 22 14 41 21 12 50 28 15 59 37 24 63 44 29 64 47 31 65 48 32 
26 18 15 27 20 14 30 21 16 29 22 16 24 19 15 19 15 12 14 13 11 11 11 11 10 12 11 10 12 11 12 12 12 10 14 13 14 16 15 14 16 15 11 13 12 11 12 14 12 14 13 13 13 13 11 13 12 11 12 14 12 12 12 13 13 13 17 15 16 22 18 15 31 21 19 39 28 24 47 34 28 52 37 32 54 41 33 56 43 35 57 42 35 55 41 32 53 36 28 51 32 25 48 30 20 47 27 16 51 29 16 55 32 18 59 36 20 61 40 23 64 43 26 61 40 23 60 37 23 59 35 23 59 35 23 58 35 27 57 37 28 57 34 26 56 36 27 55 35 26 53 33 26 55 32 24 54 32 21 57 35 24 59 37 26 63 41 28 64 45 31 64 46 32 65 46 32 61 42 28 56 34 23 49 26 18 42 22 15 36 18 14 32 17 14 35 20 17 37 22 19 40 25 20 41 26 21 41 26 19 46 29 21 49 32 25 53 36 26 54 40 27 55 41 28 53 39 28 46 33 24 38 23 16 38 23 18 38 25 17 41 28 20 44 31 23 35 22 16 28 17 11 26 17 12 30 19 15 36 23 17 45 30 23 52 35 25 57 40 30 55 41 30 52 38 29 47 33 22 47 30 20 48 28 17 54 35 21 62 40 27 66 47 32 67 48 33 67 49 35 
25 17 14 23 18 14 27 19 16 27 19 16 21 17 14 16 15 13 12 12 12 11 11 11 11 13 12 10 12 11 12 14 13 13 15 14 15 15 15 13 15 14 13 13 13 14 12 13 14 14 14 14 14 14 13 13 11 11 13 12 12 12 12 13 13 13 16 15 13 22 16 16 28 20 17 35 25 23 42 28 25 44 31 25 46 33 27 49 34 29 47 32 27 45 30 23 44 26 22 43 24 18 38 21 14 41 21 14 41 23 13 46 26 15 51 32 18 58 36 22 63 40 24 62 41 24 63 40 26 60 38 25 62 40 29 63 41 30 60 40 31 60 40 31 62 40 29 57 37 26 55 35 26 52 32 23 53 33 22 56 34 23 57 37 26 59 40 26 63 44 30 64 45 31 66 44 30 62 40 27 57 33 23 48 25 17 41 21 14 35 17 13 35 17 15 38 20 16 41 26 21 50 33 26 50 31 24 50 31 24 52 35 27 53 36 26 55 41 28 57 41 28 55 42 25 54 40 27 50 36 25 39 25 16 38 23 16 39 24 21 41 26 21 44 31 23 34 23 17 29 18 14 26 17 10 28 19 14 36 21 16 45 31 22 51 37 28 57 43 32 59 47 35 58 44 33 55 41 30 52 38 27 52 34 22 57 38 24 60 41 27 66 47 32 67 48 33 67 49 37 
22 17 14 28 18 16 26 18 16 23 18 15 21 17 14 15 14 12 12 12 14 9 11 10 11 13 12 10 12 11 11 13 12 13 13 13 13 15 14 15 15 13 16 15 13 17 16 14 16 16 14 18 17 15 14 14 12 12 12 12 12 12 14 12 12 14 13 13 13 16 14 15 22 18 15 27 19 17 29 21 19 32 23 18 33 22 18 33 22 18 34 20 17 31 17 14 31 17 14 31 16 13 30 12 10 27 12 7 30 15 10 37 18 11 41 23 13 49 29 18 54 35 20 61 39 25 62 40 26 65 43 30 64 42 29 65 45 34 65 45 34 67 45 32 63 43 34 61 41 32 56 38 24 53 33 24 55 33 22 56 34 23 60 38 24 61 42 28 62 43 29 62 43 26 66 44 30 61 39 25 54 32 21 46 26 17 41 22 15 36 18 14 38 19 15 44 26 22 50 31 25 55 36 29 59 41 31 58 40 30 58 40 30 58 41 31 59 43 28 57 41 26 55 42 26 53 40 24 51 34 26 41 27 18 37 22 15 37 24 18 40 25 18 43 30 24 35 24 18 29 20 13 27 18 13 27 16 14 32 19 13 47 30 23 52 38 29 61 47 36 64 52 40 64 52 40 64 50 39 62 48 37 59 45 32 61 42 28 62 43 29 64 45 30 65 48 32 68 50 36 
26 18 16 26 18 16 25 17 15 26 18 16 22 16 16 16 15 13 13 11 12 10 12 11 12 10 13 9 10 12 10 12 11 13 13 13 18 14 15 20 16 15 23 19 16 24 21 16 26 21 17 27 19 16 21 17 14 16 15 13 12 14 13 11 13 12 11 12 14 12 12 12 13 13 13 13 13 13 16 15 13 17 16 14 19 15 12 17 13 10 15 12 7 15 11 8 17 11 11 16 10 10 16 10 10 16 11 8 20 12 10 26 12 9 31 18 10 39 20 13 48 28 17 58 36 23 59 37 23 60 41 26 65 46 31 67 48 34 67 49 37 67 49 37 67 47 36 65 46 32 59 40 26 56 37 23 54 34 23 56 34 21 59 37 24 61 39 26 62 40 26 64 42 28 64 41 25 58 36 22 51 29 16 46 23 15 40 20 13 40 21 15 43 28 21 49 35 26 54 40 27 60 46 33 63 49 36 61 48 32 60 47 31 62 46 33 61 45 30 61 43 29 58 42 27 56 40 27 52 35 25 42 28 19 35 20 13 36 21 16 39 24 21 38 25 19 34 23 17 30 21 16 28 18 16 25 14 12 30 16 13 41 26 21 50 37 29 60 47 38 65 52 43 66 56 46 66 56 46 67 54 45 66 52 41 64 48 35 63 45 31 64 45 30 64 45 30 67 48 31 
28 18 16 26 16 14 27 17 15 25 17 14 23 15 13 19 14 11 14 13 11 14 12 13 11 12 14 9 8 13 10 11 13 11 13 12 15 14 12 22 16 16 27 22 18 32 25 19 31 26 22 28 23 19 24 19 16 17 16 14 14 14 14 12 14 13 9 13 14 10 12 11 11 12 14 12 13 15 12 14 13 10 12 11 11 11 11 10 10 10 10 10 10 11 9 10 11 11 11 11 10 8 11 11 11 12 12 10 15 11 10 20 12 9 26 15 11 34 19 12 42 23 16 50 30 21 56 37 23 59 40 25 62 43 28 66 49 33 69 51 39 68 52 37 68 50 36 66 49 33 62 43 29 60 40 29 59 37 26 57 35 22 58 34 22 59 36 20 60 37 23 60 38 24 62 39 25 57 35 21 49 27 16 44 22 11 40 20 13 41 22 16 48 31 24 56 39 31 58 44 33 61 47 34 64 51 35 64 50 37 64 48 35 62 46 31 62 44 30 62 44 30 59 43 28 56 40 25 52 34 22 44 27 19 39 22 15 36 21 16 38 25 19 37 24 18 33 22 18 30 21 14 27 18 13 25 15 13 28 17 15 37 24 18 43 32 26 54 41 33 61 51 42 64 55 46 66 56 47 66 56 47 67 54 45 65 51 40 62 45 29 61 42 27 64 42 28 65 43 29 
35 20 15 33 20 14 32 18 15 29 18 14 27 17 15 26 18 16 20 16 15 17 11 11 13 13 13 10 10 12 11 11 13 12 12 12 15 14 12 18 17 15 27 22 18 32 25 19 34 24 22 32 24 21 26 21 18 18 17 15 14 14 14 12 12 12 12 13 15 11 12 14 10 11 13 10 11 13 9 13 14 9 11 10 7 11 10 9 11 10 9 11 10 9 11 10 10 12 11 10 10 10 10 11 13 12 12 12 12 10 11 16 12 9 22 14 11 28 17 13 35 20 13 46 28 18 53 34 20 56 37 22 60 43 27 66 47 33 67 49 37 68 50 38 68 51 41 68 50 38 63 45 31 63 41 28 60 38 25 56 34 21 56 32 22 55 33 20 55 33 20 56 34 21 58 36 23 54 32 21 49 26 18 42 22 15 38 19 12 40 23 16 50 33 25 57 40 30 61 47 34 63 51 37 66 53 37 63 50 34 61 48 32 59 46 30 59 43 28 60 45 26 59 43 28 56 38 28 50 34 21 44 27 17 40 23 16 40 25 18 40 27 21 40 27 19 34 23 17 31 22 17 29 20 15 27 17 15 28 17 15 33 19 16 39 26 20 47 34 26 57 47 38 63 53 44 65 55 46 66 56 47 67 54 45 65 51 38 62 45 29 62 43 28 63 41 27 64 42 28 
41 26 19 39 21 17 36 21 16 35 20 15 33 19 16 30 19 17 26 16 15 21 12 13 13 13 11 12 10 11 10 10 10 13 11 12 15 13 14 19 15 16 27 22 19 33 23 21 33 26 20 31 23 20 25 20 16 20 16 13 14 14 12 13 13 13 13 13 13 10 11 13 7 11 12 7 11 12 7 11 14 6 10 11 6 10 11 9 10 12 7 11 12 9 10 12 10 11 13 10 11 13 11 11 13 10 12 11 12 12 14 14 13 11 19 14 11 25 15 13 34 19 16 42 23 16 49 30 16 53 34 17 61 40 23 64 44 33 66 48 36 66 50 37 68 52 39 66 52 39 66 49 33 62 44 30 60 38 25 56 34 21 55 31 21 53 31 18 53 31 20 54 32 21 56 32 22 52 29 21 49 26 20 41 21 14 39 19 12 43 23 16 51 32 25 57 40 32 63 46 36 66 50 37 64 50 39 64 47 37 62 46 33 58 42 29 58 42 27 59 43 28 57 41 26 55 39 26 48 31 21 45 28 21 43 29 20 44 29 22 44 31 23 41 31 22 36 25 19 34 25 18 32 23 16 32 21 19 30 19 15 31 17 14 37 24 18 45 32 24 56 43 34 62 52 42 64 54 45 67 57 47 67 57 47 65 51 38 64 46 32 62 43 26 61 42 27 64 42 28 
53 36 28 49 32 24 47 30 23 43 26 19 41 24 17 38 25 19 30 21 16 27 19 16 20 15 12 13 11 12 13 13 15 12 12 12 12 12 12 15 14 12 22 18 15 26 21 17 27 19 16 24 20 19 21 17 14 15 15 13 13 13 13 12 12 12 11 12 14 7 11 12 9 10 12 6 10 11 5 9 12 5 9 12 5 9 10 6 12 12 7 11 12 7 11 12 8 9 11 6 10 11 8 12 11 11 12 14 12 12 10 15 14 12 20 15 12 26 16 14 30 19 15 40 23 15 46 26 15 53 31 17 59 37 23 64 42 29 66 47 33 69 51 37 65 51 38 66 54 40 67 51 36 65 46 32 63 41 28 58 34 22 55 28 19 49 27 14 49 27 16 51 29 18 56 31 24 50 30 21 44 25 18 40 21 17 38 19 12 42 23 16 52 33 26 59 41 31 63 46 36 66 49 39 67 50 40 63 46 36 60 44 31 57 41 28 57 41 26 52 36 21 51 35 22 50 32 20 47 30 20 46 29 21 48 34 25 50 35 28 49 39 30 49 39 30 45 36 29 42 33 26 40 29 25 38 27 25 33 22 20 32 18 17 36 21 18 43 28 21 53 39 30 60 47 38 62 52 43 66 53 44 67 54 45 64 50 37 65 46 31 63 44 29 62 43 28 62 43 29 
61 48 39 57 43 34 54 40 29 49 35 26 50 33 25 47 32 25 41 30 24 34 25 18 28 18 16 18 14 13 15 14 12 12 12 12 11 11 11 12 12 14 15 13 14 19 15 14 17 16 14 17 16 14 15 14 12 14 14 12 12 12 12 10 11 13 11 12 14 9 11 10 7 11 12 6 12 12 5 10 13 8 9 13 6 10 11 5 11 11 7 11 14 7 11 12 6 10 13 6 10 11 9 11 10 11 13 12 14 14 14 18 14 13 22 17 13 28 17 15 34 20 17 41 22 15 47 27 16 51 29 16 57 35 21 63 40 26 67 45 32 67 49 35 68 52 37 66 53 37 67 51 36 65 46 32 64 40 28 58 34 22 54 30 20 50 28 17 48 25 17 48 25 17 51 28 20 47 27 20 42 23 17 40 21 15 39 20 13 42 23 16 51 33 23 56 39 29 60 46 35 65 48 38 66 49 39 64 47 37 61 43 33 56 40 27 55 35 24 48 30 20 45 27 17 46 27 20 47 28 21 49 32 25 53 38 31 56 41 34 57 47 38 55 46 37 55 46 37 53 42 36 50 39 35 42 31 27 36 22 21 33 19 16 37 22 17 42 28 19 49 35 26 60 47 38 63 51 39 64 52 40 66 54 42 66 50 37 64 45 30 63 44 29 63 44 27 62 43 28 
64 51 43 62 49 41 61 47 36 58 44 33 57 40 30 52 39 30 48 35 26 43 30 22 35 24 20 22 17 14 17 13 10 13 13 11 12 12 12 10 11 13 12 12 14 12 12 12 13 13 13 12 12 14 12 12 12 10 12 11 10 12 11 7 11 12 8 12 11 7 11 10 5 9 12 6 10 11 6 10 11 6 10 11 6 10 11 8 9 11 6 10 11 8 9 11 6 10 11 8 12 15 9 11 10 11 11 11 16 15 13 20 16 13 24 19 16 30 19 17 35 21 18 44 27 19 48 28 17 51 32 18 56 34 20 61 39 25 62 43 29 65 48 32 66 50 34 67 51 35 66 49 33 64 45 30 63 41 27 60 36 24 55 31 21 50 28 15 46 26 17 48 26 15 49 26 18 46 26 19 42 23 16 39 20 14 39 20 14 41 22 15 48 30 20 54 36 24 59 41 29 63 45 35 62 48 37 63 45 33 58 42 29 54 36 24 50 32 22 45 27 17 43 25 15 43 24 17 44 27 20 49 32 25 54 39 32 58 45 37 61 48 39 60 51 42 61 52 43 58 47 41 54 43 37 46 35 31 39 25 22 33 19 16 35 22 16 41 24 17 45 31 22 57 43 32 62 48 35 63 49 36 65 49 36 63 45 31 62 45 29 61 45 29 63 46 30 65 46 31 
65 54 48 64 54 45 64 51 42 62 48 39 58 44 31 56 42 31 54 40 31 51 37 28 42 31 25 27 19 16 18 14 11 13 12 10 12 12 12 9 10 12 9 10 12 10 11 13 10 11 13 10 11 13 10 12 11 10 11 15 7 11 12 8 12 13 7 11 12 6 10 9 6 10 11 5 11 11 7 11 12 7 11 12 6 10 11 6 10 11 9 10 12 9 10 12 7 11 10 5 11 9 9 11 10 11 11 9 15 14 12 20 16 13 27 19 17 31 20 18 36 23 17 45 26 19 48 28 17 50 31 17 55 33 19 59 37 23 62 40 26 64 45 30 64 47 29 66 49 33 67 45 31 63 44 27 63 41 27 60 38 25 56 32 22 51 29 18 47 27 18 46 26 17 47 27 20 45 26 19 40 22 12 38 19 13 38 19 15 42 23 16 46 28 18 52 34 24 56 38 26 60 42 30 63 45 33 61 45 32 59 41 29 53 35 23 47 29 19 43 25 15 42 23 16 40 21 14 44 25 21 48 31 24 55 38 31 58 45 37 60 50 40 62 53 44 62 53 44 61 51 42 58 45 39 52 39 33 41 27 24 35 19 19 33 19 16 34 21 15 43 28 21 52 38 29 57 43 30 62 44 32 62 46 31 61 42 28 62 43 28 64 45 30 65 48 32 67 49 35 
66 57 50 66 56 47 65 55 45 64 51 42 61 47 34 61 44 34 56 42 33 54 40 31 48 35 29 31 23 20 20 15 12 15 13 14 12 12 12 10 11 13 6 10 11 6 10 11 7 11 12 7 11 14 7 11 12 7 11 12 7 11 14 6 11 14 7 11 12 6 10 11 6 10 11 7 11 12 7 11 12 9 10 12 8 9 11 9 10 12 10 11 13 11 13 12 12 14 13 11 13 12 10 12 11 9 11 10 12 14 11 19 15 14 22 17 14 29 18 16 36 22 19 44 27 20 48 30 18 50 31 17 54 32 18 57 35 21 59 37 23 63 41 27 62 43 26 64 45 30 63 44 29 63 44 29 64 42 28 62 40 27 57 35 24 51 29 18 47 27 16 46 26 17 44 25 18 42 23 16 42 23 16 38 19 12 36 17 10 39 21 11 43 25 15 48 30 20 53 35 23 57 39 27 60 42 30 60 42 30 57 39 27 52 34 24 45 27 17 42 23 16 41 22 16 40 23 16 41 24 17 45 28 21 50 37 29 59 46 38 60 50 40 62 53 44 62 53 44 61 51 42 59 46 38 53 38 33 43 28 25 35 21 18 32 18 15 34 21 15 35 25 16 46 32 23 53 39 28 57 41 28 58 40 26 57 38 23 62 40 26 64 45 31 67 49 35 67 53 40 
67 60 54 66 59 51 66 57 50 64 54 45 64 50 41 60 46 37 56 42 33 54 39 32 48 35 27 34 24 22 25 17 15 17 13 14 12 12 12 7 11 12 5 11 11 6 10 13 6 10 11 6 10 11 6 10 11 6 10 11 5 11 11 6 10 13 5 10 13 6 10 13 9 8 13 10 12 11 13 13 13 14 14 14 11 13 12 14 12 13 18 14 15 17 15 16 16 14 17 14 14 14 13 11 12 9 11 10 10 12 11 13 12 8 18 14 13 22 17 14 28 18 16 36 21 16 41 24 14 46 28 16 53 31 18 60 38 24 59 37 23 59 37 23 60 37 23 61 39 25 62 43 28 68 46 32 65 46 31 67 45 31 63 41 28 57 35 21 51 31 20 49 29 22 44 25 18 42 23 16 42 23 16 43 24 17 42 23 16 43 23 14 44 26 16 49 31 21 53 33 22 57 37 26 59 41 29 57 39 27 55 37 25 49 31 21 45 26 19 42 23 16 39 22 14 39 22 14 41 24 17 42 27 20 50 35 28 56 42 33 57 47 38 62 52 43 63 53 44 62 52 42 59 46 38 52 37 30 42 27 22 37 22 17 32 18 15 30 16 13 33 20 14 36 23 15 41 27 18 47 29 17 50 30 19 53 31 17 59 37 23 62 44 30 66 50 37 65 55 43 
65 60 54 65 61 52 67 60 52 67 57 48 67 53 44 62 48 37 56 42 31 54 37 29 47 32 25 35 24 22 25 17 15 16 12 11 11 11 11 8 12 13 6 10 11 6 10 13 6 10 13 7 11 14 6 10 13 6 10 11 6 10 11 6 10 11 6 10 11 7 8 10 10 12 11 13 13 13 16 14 15 17 16 14 19 15 14 19 15 14 20 16 15 21 17 16 21 17 16 17 13 12 12 12 10 10 12 11 10 12 11 12 12 12 14 14 14 16 15 13 21 16 13 29 18 14 39 25 16 48 28 17 55 33 20 60 38 24 60 38 24 61 38 24 57 38 23 60 38 24 62 43 28 64 45 30 65 46 31 66 44 30 62 43 29 59 37 24 55 35 24 51 31 20 47 27 18 43 23 14 45 25 16 46 26 17 47 27 18 49 29 20 54 32 21 54 34 23 56 36 25 58 39 25 59 41 27 58 40 28 55 37 25 50 30 21 45 25 18 43 24 17 42 23 17 41 24 17 40 23 16 43 29 20 49 35 26 54 40 31 58 45 36 59 49 39 65 52 43 61 48 39 58 45 36 50 35 28 39 24 19 34 19 14 31 17 16 28 17 13 29 18 14 34 20 17 36 21 14 41 24 16 49 27 16 53 29 17 59 37 23 62 44 32 67 50 40 68 55 46 
64 59 53 65 61 52 64 60 51 66 55 49 65 52 43 63 46 36 55 41 30 53 36 28 45 30 23 34 23 21 24 16 14 16 12 11 9 11 10 7 11 12 5 11 11 6 10 13 7 11 14 7 12 15 6 9 14 6 10 11 6 12 12 6 10 11 6 12 12 9 10 12 11 13 12 14 14 14 18 17 15 21 17 16 19 15 14 20 15 12 22 17 14 22 18 17 22 18 15 16 15 11 13 13 11 9 11 10 9 10 12 10 11 13 10 11 13 12 12 12 15 14 12 22 14 11 35 22 14 45 25 18 53 33 22 58 36 23 60 38 25 60 38 24 60 38 24 62 40 27 65 43 30 64 45 31 64 45 31 64 45 30 61 42 27 61 39 25 59 37 26 52 33 19 49 29 22 44 24 15 45 22 14 49 26 18 52 29 21 54 34 23 58 38 27 59 37 24 59 40 26 59 41 27 61 42 28 58 40 26 55 35 24 49 31 21 44 26 16 41 22 15 39 22 15 40 23 16 41 26 19 47 33 24 51 37 26 53 39 28 58 41 31 58 46 34 62 50 38 59 47 35 55 41 30 49 32 25 35 21 18 30 19 17 28 17 15 28 17 13 28 16 16 30 19 15 34 21 13 39 22 14 47 25 14 52 30 16 60 38 24 63 45 33 66 49 39 68 55 46 
68 59 52 66 62 51 66 62 53 67 58 49 66 53 44 65 48 38 56 40 27 50 36 27 44 29 22 31 21 19 21 16 13 13 11 12 9 11 10 7 11 14 6 10 13 6 10 13 7 11 14 7 11 14 6 10 11 6 10 13 5 10 13 7 11 12 7 11 12 9 10 12 11 13 12 14 14 14 20 16 17 21 17 16 20 16 13 21 16 13 22 16 16 22 18 17 21 17 16 17 15 18 13 13 13 9 10 12 9 10 12 10 10 12 6 10 11 10 11 13 12 12 14 18 13 10 29 18 14 40 23 16 50 30 23 54 34 23 59 37 26 60 38 25 60 41 26 64 42 29 65 46 32 64 45 31 64 45 31 64 45 31 61 42 28 61 39 25 59 37 24 53 33 22 49 29 18 47 24 16 47 24 16 50 28 17 56 34 23 64 42 29 61 41 30 61 41 30 61 43 31 61 43 31 61 43 31 59 39 28 52 34 24 47 27 20 41 21 14 38 19 12 38 19 13 40 23 16 44 27 19 50 33 25 51 37 26 52 38 27 52 40 26 55 43 31 59 45 34 57 43 32 53 39 30 46 29 22 33 19 18 27 17 16 27 17 16 27 17 15 27 16 14 30 19 17 37 22 17 41 24 16 48 26 15 55 32 18 59 40 25 64 46 34 66 52 41 65 55 45 
66 57 52 66 59 51 67 60 54 66 57 50 66 53 44 63 46 36 57 39 29 50 33 25 41 26 19 28 18 16 19 13 13 12 10 11 7 11 12 6 10 11 6 10 13 6 10 13 8 9 11 7 11 12 5 11 11 4 9 12 5 9 12 6 10 13 5 11 11 9 10 12 11 13 12 13 13 13 16 14 15 19 18 16 19 15 14 21 15 15 21 15 15 23 17 19 21 17 18 13 15 14 11 11 13 10 11 13 7 11 12 9 10 12 8 9 11 8 9 13 12 12 12 13 9 8 24 15 10 34 19 16 43 26 18 52 32 23 57 38 24 59 40 26 61 42 28 63 44 30 66 47 33 66 47 33 66 47 33 62 43 28 62 40 26 58 36 22 55 33 22 52 30 17 49 27 16 45 23 12 47 24 16 52 28 18 59 37 26 63 44 30 63 44 29 62 44 30 63 45 33 64 48 35 62 45 35 58 42 29 54 36 26 47 29 19 41 22 15 38 19 13 38 19 13 39 22 15 42 25 18 49 32 24 52 35 25 53 39 26 53 39 26 53 39 26 54 40 29 55 38 28 49 32 24 38 23 18 26 17 12 25 17 15 25 17 15 22 17 14 24 16 13 32 18 15 37 24 16 46 26 19 51 31 20 54 32 21 56 38 26 63 45 31 69 53 40 68 55 46 
66 57 50 66 59 51 67 60 52 67 58 49 66 54 42 63 47 32 57 39 29 48 31 23 40 25 20 25 15 14 17 11 11 11 11 11 9 10 12 6 12 12 6 10 13 5 10 13 6 12 12 6 12 12 5 10 14 4 10 10 6 10 11 6 10 11 7 11 12 8 12 13 10 11 13 11 13 12 14 14 14 18 17 15 19 15 14 18 14 13 18 14 11 21 15 15 15 13 14 12 12 12 9 10 12 9 10 12 7 11 12 7 11 12 8 9 11 6 10 13 8 12 13 13 11 12 22 13 14 30 19 15 38 20 16 48 30 20 57 37 26 61 42 28 62 44 30 66 48 34 66 48 34 66 48 34 66 47 33 63 44 29 63 41 27 59 35 23 53 31 18 50 28 17 47 23 13 45 21 11 44 21 15 49 27 16 53 31 20 57 38 23 59 43 28 63 47 34 64 48 35 65 49 36 62 48 37 59 45 36 57 40 32 51 32 25 45 26 20 40 21 15 39 22 15 40 23 16 42 25 17 47 30 22 52 35 25 52 38 25 51 37 28 50 36 25 48 35 26 47 33 24 41 26 19 30 19 15 20 12 9 17 13 10 18 14 13 18 14 11 21 16 13 32 21 17 40 25 18 46 28 18 54 34 23 56 37 22 60 41 27 64 46 34 66 48 36 67 53 42 
65 55 46 66 57 48 66 57 48 67 57 47 67 53 40 64 48 35 56 38 28 48 29 22 36 21 18 21 13 11 13 12 10 11 11 11 7 11 12 7 11 14 5 10 13 7 11 14 7 11 12 6 12 12 7 11 14 9 10 14 7 11 14 9 10 12 11 11 13 12 13 15 13 13 13 12 12 12 13 13 13 15 15 15 14 14 14 14 12 13 13 11 12 16 14 15 12 11 16 12 12 14 9 10 12 9 8 13 7 11 14 8 12 15 6 10 13 6 10 13 8 9 13 12 12 12 17 11 13 23 13 12 32 18 15 44 25 18 55 35 26 62 40 27 62 44 30 65 47 33 65 49 34 65 47 33 65 47 33 64 45 30 64 42 28 59 37 24 54 32 19 50 28 17 44 21 13 39 18 13 43 19 15 45 22 16 49 26 18 52 33 19 58 40 26 64 46 32 66 49 39 65 51 40 66 52 43 64 50 41 60 46 37 57 38 31 52 33 26 43 26 18 42 23 17 39 20 14 41 24 17 47 28 21 50 33 23 47 33 22 47 33 22 42 30 18 40 27 19 38 25 19 31 22 17 26 16 14 17 13 10 16 12 13 13 12 8 16 12 11 19 14 11 28 19 14 40 26 17 47 30 22 57 37 28 61 42 28 62 44 30 64 48 33 65 49 34 67 51 38 
65 55 43 65 57 46 66 58 47 65 55 45 66 54 40 60 46 33 53 36 26 45 28 20 34 20 17 19 14 11 12 11 9 8 9 13 8 9 11 5 10 13 6 10 11 7 11 14 7 11 14 7 12 15 8 12 13 11 12 14 11 13 12 11 13 12 12 12 12 14 14 14 13 13 13 13 13 13 12 12 12 14 14 14 12 14 11 12 12 12 11 11 11 12 12 14 13 13 15 11 12 14 9 10 14 8 9 13 6 9 14 7 11 14 6 11 14 9 10 12 10 11 13 12 12 12 17 12 16 21 12 15 27 15 15 42 25 17 52 32 21 57 39 25 61 42 27 67 45 31 67 49 35 65 47 33 66 47 33 64 45 30 64 45 30 60 38 25 55 31 19 50 28 17 44 21 15 41 18 12 39 18 13 41 20 15 43 23 16 51 32 18 58 39 25 63 45 33 65 48 38 65 51 42 66 53 45 64 51 43 62 48 39 61 44 34 55 37 27 47 28 21 43 24 17 40 21 14 36 22 13 45 28 21 46 29 21 45 31 22 42 28 19 36 26 17 31 20 14 29 20 15 26 18 15 21 16 13 15 14 12 13 13 11 12 12 12 13 12 10 18 14 11 27 18 13 39 25 22 46 32 23 58 42 29 63 47 34 66 48 34 65 48 32 64 48 33 66 50 35 
64 52 38 62 52 40 63 53 43 64 54 42 64 50 37 59 43 30 50 33 25 40 27 19 29 18 14 17 13 12 11 11 11 9 10 12 8 9 11 6 10 13 7 11 14 9 10 12 9 13 16 9 13 14 10 14 15 12 14 13 14 14 14 15 13 14 17 16 14 20 16 15 17 16 14 16 14 15 13 12 10 13 11 12 13 11 12 11 11 11 12 12 14 12 12 14 13 13 15 12 12 14 9 10 12 9 10 14 9 10 12 5 10 14 6 10 11 7 11 12 11 12 14 14 12 13 15 14 12 22 13 14 28 17 15 39 22 15 48 30 18 54 34 23 60 41 26 63 44 29 67 49 35 66 48 34 66 47 33 65 46 31 64 45 30 61 39 26 56 34 23 50 27 19 43 23 16 37 16 11 37 16 15 38 17 12 40 19 14 51 29 18 59 37 24 63 43 32 66 48 38 66 52 43 66 56 46 65 55 45 65 51 42 64 47 37 59 41 31 49 29 20 45 25 18 42 23 16 39 22 15 44 27 19 44 27 20 39 24 17 38 25 19 30 21 16 25 15 13 25 15 14 21 17 14 18 14 11 12 12 10 12 10 11 11 11 11 12 10 11 17 13 12 26 16 14 34 23 17 43 29 20 52 38 27 60 44 31 65 47 33 64 46 32 63 47 32 65 46 31 
61 47 34 63 51 37 63 51 39 64 52 38 60 47 31 55 38 28 43 29 20 33 22 16 24 14 12 16 12 11 11 11 11 9 10 12 6 10 11 6 10 11 8 12 13 9 13 14 11 12 14 12 13 15 14 14 14 16 16 14 18 17 13 23 18 15 25 20 16 30 22 19 26 21 17 23 20 15 19 15 12 13 13 11 12 12 12 12 12 12 13 13 13 13 13 13 13 13 15 13 13 15 10 12 11 8 12 13 9 10 15 6 10 11 9 10 12 10 10 12 12 12 12 18 17 15 22 16 16 23 18 15 28 17 15 36 19 12 44 24 15 52 30 19 56 34 21 63 41 27 66 47 33 66 44 31 64 45 31 67 45 32 64 42 28 62 40 27 57 33 21 52 30 19 43 23 16 38 17 12 36 17 13 36 16 15 37 18 12 49 26 18 59 35 25 64 42 31 66 48 36 66 52 41 67 54 45 65 57 44 67 53 42 65 49 36 60 42 30 52 32 23 49 26 18 44 24 17 40 21 15 39 22 15 37 22 15 35 20 17 29 18 14 23 15 12 19 14 11 17 13 12 17 13 12 14 13 11 11 11 11 8 8 8 10 10 10 11 11 11 15 14 12 22 17 13 30 21 14 40 27 19 48 34 25 59 43 30 62 46 33 63 47 32 64 46 32 64 45 30 
61 45 32 59 45 34 59 45 32 57 43 32 55 41 30 44 31 22 35 24 18 30 21 16 21 13 11 13 11 12 10 10 10 8 9 11 7 11 12 7 11 14 7 11 12 7 11 12 12 13 15 10 14 13 15 15 13 19 18 16 22 21 16 28 23 17 34 25 18 35 28 22 36 27 20 33 26 20 26 21 15 20 16 13 16 15 13 15 14 12 15 13 14 15 13 14 12 12 14 12 12 12 12 12 14 11 12 14 10 11 13 10 11 13 10 11 13 11 11 13 14 14 14 21 17 16 26 18 16 28 18 16 29 18 16 35 17 13 42 22 15 45 27 17 53 31 20 59 37 24 63 41 28 62 40 27 62 40 27 60 41 27 60 38 24 57 35 24 55 33 22 52 30 19 46 26 17 40 19 14 38 17 12 37 16 11 37 17 10 47 24 16 57 35 24 61 41 32 64 46 34 66 49 39 66 54 42 67 54 45 67 53 42 65 49 36 61 43 29 56 34 23 51 28 20 48 25 17 43 24 17 39 22 15 37 22 17 34 20 17 28 17 15 22 14 12 16 10 10 16 12 11 16 12 11 17 13 12 10 12 9 12 10 11 11 11 11 10 10 10 15 11 10 23 15 12 29 20 15 37 27 18 47 33 24 58 41 31 64 48 35 62 49 33 64 45 31 61 42 27 
52 35 25 52 38 27 51 37 26 50 36 27 44 30 21 38 25 17 29 18 14 24 16 13 18 13 10 11 11 11 10 10 12 6 10 11 6 9 14 5 10 13 8 9 13 7 11 12 11 12 14 13 15 14 16 16 16 22 18 15 28 23 19 34 27 19 40 30 21 42 32 22 45 32 23 40 30 21 35 26 19 26 18 15 20 16 13 18 14 13 15 13 14 15 13 14 13 13 13 12 12 12 12 12 12 10 11 13 10 11 13 10 11 13 9 10 12 14 12 13 17 13 12 22 17 14 29 21 18 33 19 18 34 20 17 35 20 15 36 21 14 41 22 15 46 26 17 53 31 20 57 35 22 57 35 22 57 35 22 57 35 24 55 33 20 54 32 21 53 31 20 52 30 19 51 29 18 44 24 15 41 20 15 38 18 11 41 17 13 43 20 14 50 30 21 58 36 25 62 42 31 65 47 35 67 51 38 66 52 41 67 51 38 66 48 36 63 44 30 59 37 26 53 31 20 51 26 19 44 25 18 42 23 16 37 22 15 33 19 16 27 16 14 22 14 12 17 13 12 17 13 12 19 13 13 18 14 13 15 14 12 13 12 10 13 11 12 12 12 12 13 12 10 18 13 10 27 20 14 35 24 18 46 32 23 57 40 30 63 47 34 64 46 32 63 45 31 62 40 26 
43 30 21 43 28 21 43 28 21 41 26 19 40 23 16 33 20 14 25 18 12 20 17 12 17 13 12 10 10 10 8 9 11 8 9 11 3 8 11 6 9 14 6 10 13 6 10 13 8 12 13 11 12 14 16 16 14 24 20 17 28 23 17 37 28 21 44 34 24 51 37 28 50 38 26 47 34 25 39 29 20 30 21 16 22 17 13 19 15 12 18 14 13 18 14 13 17 16 14 14 12 13 13 13 13 12 14 13 12 12 14 14 12 15 12 12 12 13 13 13 19 15 12 27 19 16 32 23 18 35 24 18 40 25 18 37 22 17 33 18 11 37 20 13 39 20 14 44 26 16 48 30 20 49 31 19 52 30 19 50 27 19 50 28 17 49 27 16 50 28 15 51 27 15 52 30 19 50 28 17 44 24 15 43 20 12 40 20 13 41 20 15 47 27 18 53 31 18 58 36 23 63 41 28 64 48 35 66 48 36 66 50 37 67 49 35 65 46 32 61 39 26 57 35 22 52 30 17 47 27 18 41 24 16 38 23 16 33 20 14 29 18 14 24 16 13 22 12 11 17 16 12 19 15 12 19 15 12 19 15 12 17 13 10 14 13 11 16 12 11 14 12 13 16 12 9 25 17 14 33 22 16 44 31 22 56 38 28 61 45 32 63 45 31 62 44 30 58 39 25 
33 20 14 35 22 16 34 20 17 34 21 15 30 16 13 26 15 11 22 14 12 17 13 10 14 13 11 9 9 9 9 10 12 8 9 11 5 9 12 5 9 12 4 9 12 6 10 13 7 11 12 9 13 14 15 15 13 22 19 14 31 24 18 37 28 19 45 35 23 52 38 27 52 38 25 52 38 27 45 32 23 32 23 16 26 18 15 23 15 13 19 13 13 20 14 14 20 16 15 17 16 14 16 14 17 14 14 16 12 10 11 12 12 12 12 12 12 14 14 12 19 15 12 29 21 18 36 27 20 41 31 22 42 29 21 37 22 15 34 19 14 32 17 10 34 17 10 32 19 11 42 22 15 42 23 16 43 24 17 43 23 16 42 22 15 44 21 13 46 24 13 49 25 15 51 29 16 54 30 18 50 28 17 46 26 15 43 23 16 39 18 13 41 21 12 51 27 17 54 32 19 55 37 23 62 44 30 65 47 33 67 49 35 68 50 36 66 47 33 64 42 28 58 36 23 54 32 19 51 28 20 44 25 18 40 23 15 34 21 13 33 19 16 28 18 16 21 13 10 22 14 11 23 15 13 24 16 14 27 19 16 24 16 14 20 15 12 18 14 13 16 12 11 17 12 9 26 18 15 32 21 15 43 29 20 52 35 25 56 40 25 60 42 28 60 42 28 60 38 25 
21 16 12 18 14 11 19 14 11 22 14 12 22 17 14 21 17 14 20 15 12 19 15 14 15 14 12 11 11 11 9 10 12 6 10 13 4 9 12 6 10 11 5 11 11 4 8 11 8 9 11 9 10 12 15 14 12 24 21 16 33 26 18 40 31 22 46 38 25 49 39 27 52 38 25 51 34 24 46 31 24 36 25 19 32 21 17 27 20 14 25 20 16 25 20 16 27 22 19 27 22 19 26 21 18 24 20 17 20 16 13 16 15 13 13 12 10 13 12 10 17 13 12 27 19 16 35 25 16 41 28 20 47 32 25 42 29 21 31 20 14 26 15 11 26 15 11 25 16 11 33 20 14 33 20 14 33 18 13 34 16 12 34 19 12 39 20 14 43 23 14 48 26 15 52 30 17 59 36 22 57 35 21 55 33 20 49 27 16 41 21 12 41 18 10 45 20 13 48 24 12 52 28 16 59 36 22 62 43 29 65 46 31 66 49 33 66 47 32 61 42 27 57 35 21 54 32 18 49 29 18 48 30 18 45 28 20 41 27 18 38 25 17 33 23 14 27 18 11 26 17 12 27 18 13 29 20 13 36 25 19 33 24 17 30 20 18 25 17 14 21 13 11 22 14 11 29 22 16 39 26 18 46 32 23 51 35 22 54 38 25 55 39 26 54 36 24 52 32 21 
15 13 14 15 13 14 15 14 12 18 14 13 19 15 12 21 17 14 20 16 15 19 15 14 16 15 13 12 12 14 10 11 13 6 10 13 6 10 13 5 10 13 6 10 11 6 10 11 7 11 12 7 11 12 15 15 13 23 20 15 30 25 19 40 30 21 41 33 22 45 35 25 46 33 24 46 33 24 43 30 22 37 26 20 33 24 19 31 24 18 31 24 18 33 26 20 35 25 23 33 25 22 30 25 21 27 26 21 23 19 16 20 16 13 19 15 12 17 13 12 18 14 11 24 16 13 32 21 15 39 26 17 43 30 22 40 27 19 31 20 14 25 15 13 24 14 12 23 14 9 28 18 16 28 17 11 30 17 11 33 18 13 36 19 12 38 19 13 42 24 14 46 26 15 51 32 18 61 38 24 61 38 24 57 34 20 53 29 17 44 22 11 43 20 12 45 20 13 47 23 13 50 26 16 57 33 21 60 38 27 64 42 29 64 45 31 63 44 29 58 39 25 54 35 21 53 31 17 50 30 19 50 32 20 48 32 19 45 31 18 42 25 17 38 25 16 35 20 13 28 19 12 30 19 15 32 21 15 39 26 18 37 24 15 32 21 17 27 19 16 24 16 13 21 16 12 30 21 16 37 27 18 50 33 23 51 37 24 55 38 28 55 39 26 54 36 24 51 32 18 
13 13 13 13 13 13 14 14 14 15 14 12 17 16 14 18 14 13 20 16 15 17 16 14 16 15 11 12 14 13 10 11 13 6 10 11 4 8 11 6 10 13 7 11 14 7 11 12 8 12 15 6 12 12 16 14 15 20 19 15 28 25 20 33 29 20 38 31 21 42 32 23 43 33 24 43 30 22 38 27 21 35 24 20 34 23 21 34 25 18 35 26 19 37 28 21 36 31 25 37 30 24 36 31 27 33 28 24 27 24 19 23 20 15 22 18 15 20 16 13 18 14 13 21 16 12 27 17 15 32 21 15 38 27 21 37 26 20 31 20 16 23 15 12 22 14 12 20 15 12 26 16 14 26 17 12 29 18 14 33 18 13 36 21 16 38 19 13 41 23 13 44 24 13 52 33 18 62 39 25 61 38 22 58 35 21 54 31 17 47 23 11 44 21 13 44 21 13 46 21 14 48 26 15 53 29 19 55 33 20 56 37 23 59 40 25 60 41 27 56 34 21 55 33 20 53 31 18 53 31 18 51 33 21 51 33 23 47 31 18 45 31 20 43 29 18 39 26 17 37 24 16 35 22 14 37 24 15 42 28 19 40 25 18 35 24 18 31 22 17 27 19 16 22 14 11 29 20 15 38 25 19 44 31 22 53 37 22 54 38 25 55 37 25 52 34 22 51 31 22 
11 13 12 13 13 13 13 13 13 14 14 14 16 15 13 20 16 15 20 16 13 21 17 14 17 16 14 14 14 14 10 12 11 7 11 12 6 10 13 7 11 14 5 9 12 6 10 13 6 10 13 7 11 12 12 12 14 16 16 14 21 20 15 27 24 19 31 26 20 36 27 20 37 28 23 36 25 19 34 23 19 30 21 16 33 24 19 35 24 18 37 28 19 41 30 24 41 32 25 40 33 25 40 33 27 37 32 26 33 28 22 28 25 18 27 22 18 22 18 15 17 16 14 19 14 11 23 15 12 26 19 13 29 22 16 31 21 19 26 18 15 20 15 11 18 13 10 22 15 9 26 17 12 31 20 16 35 22 16 36 21 14 40 25 20 40 21 14 41 22 15 44 24 13 50 31 17 59 37 23 60 37 21 58 35 21 55 32 18 49 25 13 47 22 15 44 21 13 44 21 15 45 22 14 47 24 16 48 26 15 50 28 17 53 30 16 54 32 19 50 28 17 49 27 14 50 28 17 53 31 20 56 34 23 53 35 23 51 35 22 50 33 23 47 33 22 46 34 22 43 29 18 39 25 16 42 25 17 43 26 18 45 28 20 39 26 18 32 23 16 27 20 14 23 15 12 28 18 16 33 24 17 40 27 18 48 34 23 55 35 26 51 35 22 50 33 23 48 30 20 
9 10 12 10 11 13 11 13 12 12 13 15 15 15 13 16 16 14 17 17 15 18 17 12 18 17 15 14 16 15 11 12 14 8 12 13 7 11 10 6 10 13 5 10 13 6 10 13 6 10 13 5 9 12 11 12 14 10 12 11 14 14 14 18 17 13 24 20 17 25 20 16 26 21 17 26 21 17 27 17 15 25 15 14 28 20 17 34 25 20 41 28 22 42 32 23 42 31 25 41 32 25 40 31 24 39 32 26 35 30 24 32 29 22 28 25 20 25 21 18 19 15 14 17 13 12 18 14 11 20 16 13 21 17 14 24 19 16 23 15 13 18 13 10 18 13 10 21 13 11 30 20 18 38 24 21 40 27 21 45 30 25 47 32 25 47 30 22 47 29 19 47 29 17 50 31 16 57 36 19 60 37 21 58 35 21 55 31 19 51 27 17 48 24 14 46 24 13 44 21 13 44 19 14 42 22 15 44 21 13 42 19 11 42 19 11 42 22 13 44 21 13 44 21 13 47 24 16 51 29 18 57 35 24 55 37 23 56 38 26 57 39 27 54 38 25 54 37 27 50 33 25 45 28 18 41 24 14 41 27 18 41 28 19 36 25 19 30 21 16 25 17 14 23 15 12 25 18 12 30 19 15 36 23 15 44 27 17 47 30 20 48 31 21 48 32 19 47 30 20 
7 11 12 7 11 12 11 12 14 11 13 12 12 14 13 12 14 13 14 16 13 15 17 14 16 16 14 14 16 13 12 13 15 10 11 13 8 12 13 7 11 12 6 10 13 5 10 13 6 10 13 5 10 13 6 10 13 7 11 12 11 12 14 11 13 12 13 13 11 12 12 10 15 13 14 15 13 14 15 13 14 17 13 12 22 17 14 31 23 20 39 28 22 41 31 22 44 31 25 40 29 23 36 27 22 33 26 20 32 27 21 33 28 22 31 26 22 24 23 19 21 17 16 19 13 13 17 13 12 16 15 13 17 16 12 20 16 15 18 12 12 17 13 12 18 13 10 23 15 13 31 22 15 41 28 22 47 34 26 51 38 30 53 39 30 52 35 25 51 34 26 52 34 22 54 32 18 56 34 20 57 36 19 58 35 21 55 31 19 50 26 16 45 22 14 41 21 14 41 21 14 43 19 15 41 21 14 39 20 13 38 18 9 37 17 10 37 17 8 41 18 12 43 20 14 45 22 14 50 27 19 57 35 22 62 38 26 59 41 27 60 41 27 58 40 28 57 39 27 54 36 24 47 30 20 37 23 14 33 23 14 31 22 15 30 20 18 26 18 16 20 15 12 20 15 12 20 15 11 27 18 13 35 22 14 40 26 17 43 26 18 45 28 20 45 31 22 45 28 20 
6 10 11 7 11 12 6 10 13 8 12 13 7 13 13 11 13 12 10 14 13 13 15 14 14 14 14 12 12 12 10 11 13 9 10 12 10 11 13 9 10 14 6 10 13 3 11 13 5 10 13 5 10 13 6 10 13 6 10 13 7 11 12 8 12 13 10 11 13 11 12 14 10 11 13 11 11 11 11 11 11 13 11 12 18 14 13 25 20 17 33 24 19 38 27 21 39 28 22 38 27 23 34 25 20 29 21 18 27 22 18 30 25 21 28 23 20 24 20 17 21 17 16 15 13 14 14 14 12 14 12 13 16 15 13 15 13 14 16 12 11 16 12 11 18 12 12 24 16 14 34 20 17 44 29 22 50 35 28 53 43 33 56 42 33 57 40 30 55 39 26 54 36 22 53 34 20 58 37 20 59 37 23 57 34 20 57 33 21 47 24 16 42 22 15 40 20 13 39 18 13 38 21 14 42 23 16 40 21 14 40 20 13 38 18 9 38 18 9 43 20 14 43 20 14 46 23 15 51 29 18 56 34 23 59 40 26 60 41 27 60 40 29 59 41 29 57 39 27 54 36 24 47 30 20 39 22 14 29 18 12 28 20 17 23 18 14 21 17 14 19 13 15 19 13 13 21 16 13 26 19 13 34 24 15 42 28 19 43 29 20 42 28 19 44 27 19 41 27 18 
6 10 13 7 11 12 7 11 12 7 11 12 7 11 12 7 11 12 10 11 13 12 12 14 11 12 14 10 11 13 8 12 13 8 12 13 8 12 13 7 11 14 6 10 13 5 10 13 2 10 12 5 10 13 5 9 12 5 9 12 6 10 13 6 10 13 6 10 13 7 11 14 9 10 12 9 10 12 9 11 8 11 11 11 14 12 13 21 15 15 28 20 17 33 24 19 37 26 24 35 24 20 30 22 19 23 18 14 22 18 15 24 20 17 21 20 16 19 18 16 18 16 17 13 13 13 12 12 10 14 12 15 14 12 13 16 14 15 16 12 11 17 13 12 20 14 14 24 16 13 35 22 16 44 29 22 50 36 27 56 43 34 60 46 35 61 44 36 57 41 26 57 39 25 54 35 20 57 38 21 60 38 24 58 35 21 55 31 19 47 24 16 41 21 14 39 18 13 38 17 12 40 21 15 43 24 17 43 25 15 44 24 15 43 23 12 42 22 11 48 25 17 47 24 16 49 27 16 51 29 18 55 33 22 56 37 23 59 40 25 59 40 26 58 40 26 57 39 27 54 34 23 46 29 19 36 21 14 27 18 13 20 15 12 18 14 13 18 14 13 16 12 13 16 15 13 20 15 12 27 20 14 38 25 17 46 32 23 46 32 21 44 27 19 42 25 17 38 24 15 
6 11 14 6 11 14 7 13 13 7 11 14 5 11 11 6 10 11 6 10 11 7 11 14 7 11 12 7 11 12 6 10 11 7 11 12 6 10 11 6 12 12 5 10 13 5 10 13 5 10 13 6 10 13 6 10 13 6 10 13 6 10 13 6 10 13 5 9 12 6 10 13 6 10 13 8 9 11 6 10 11 7 11 12 12 12 12 15 14 12 21 17 14 29 21 18 34 25 20 31 24 18 26 21 17 21 17 14 16 15 11 15 16 11 15 14 12 15 13 14 17 13 14 14 13 11 12 12 12 13 13 13 13 13 13 14 14 14 19 15 14 20 14 14 22 17 14 27 19 17 37 24 18 46 31 24 49 35 26 57 45 33 61 47 36 63 47 32 60 43 33 60 41 27 57 40 22 57 38 21 58 35 19 54 32 18 51 29 16 43 23 14 38 19 13 36 19 12 37 18 12 39 21 11 46 26 15 51 29 18 53 31 18 52 30 17 53 31 17 54 32 18 54 30 18 53 29 17 51 29 16 54 32 18 55 36 22 56 37 23 57 38 23 56 37 23 55 37 25 50 33 23 41 27 18 30 19 13 21 16 12 17 13 12 15 13 14 14 12 13 15 11 12 16 15 11 20 15 11 27 18 13 39 26 18 52 35 25 50 33 23 44 27 19 37 23 14 35 21 12 
6 11 14 6 11 14 7 13 13 8 12 13 6 12 12 4 13 12 6 10 11 5 11 11 9 10 14 7 11 12 4 10 10 5 11 11 5 11 11 5 10 13 6 11 15 5 10 13 5 10 13 5 10 13 5 10 13 5 10 13 5 10 13 5 10 13 4 10 10 4 10 10 5 10 13 5 10 13 6 12 12 5 11 11 10 11 13 12 12 12 17 16 14 23 19 16 32 25 19 31 23 20 27 22 18 20 16 13 14 13 11 13 13 11 13 13 13 12 12 12 13 13 13 13 13 13 12 12 12 13 13 13 15 14 12 21 17 16 24 19 16 27 19 16 27 19 16 31 22 17 40 25 18 44 30 21 49 35 24 55 43 31 60 48 34 60 46 33 62 46 33 60 42 28 59 42 26 52 33 16 51 30 13 49 27 16 44 25 11 42 24 14 36 19 12 35 18 11 36 17 10 40 21 14 48 28 17 56 34 20 59 37 23 63 41 27 64 41 27 64 41 27 61 38 24 59 36 22 55 33 19 53 31 17 53 34 19 55 36 21 53 36 20 54 36 22 53 37 24 45 31 20 34 24 15 26 17 12 18 14 11 17 13 14 16 11 15 13 13 13 14 13 11 16 15 13 19 15 12 27 18 13 35 24 18 45 32 24 44 31 23 40 27 19 33 20 14 25 16 9 
7 12 15 6 11 14 6 11 14 7 11 14 4 9 12 7 11 12 7 11 12 4 13 12 6 10 11 7 11 12 6 11 14 5 10 13 5 10 13 3 11 13 6 11 15 6 10 13 5 10 13 5 10 13 5 10 13 5 10 13 5 10 13 4 9 12 4 9 12 4 9 12 5 10 14 5 10 13 6 10 13 6 12 12 7 11 12 10 12 11 13 13 11 23 19 16 31 24 18 32 24 21 28 23 17 22 18 15 15 14 10 13 13 15 11 13 12 11 13 12 10 11 13 11 11 11 14 14 16 16 15 13 21 17 14 26 21 18 29 24 18 34 27 21 35 26 21 36 27 20 43 29 18 45 31 22 49 35 24 56 42 29 60 46 33 62 46 33 60 44 29 59 41 27 57 40 24 53 31 18 50 28 15 44 25 11 42 22 11 36 19 11 33 19 10 33 16 8 35 16 9 36 18 8 46 27 13 53 31 18 59 37 23 64 42 28 64 44 33 65 46 31 63 46 30 61 42 27 58 36 22 55 33 19 51 32 17 51 32 17 52 33 18 55 36 22 54 36 26 47 30 22 35 22 14 26 15 11 18 13 10 16 12 13 12 12 12 13 13 13 15 13 14 16 15 13 21 16 13 26 18 15 32 21 15 38 25 17 37 24 18 32 21 17 29 18 14 25 15 13 
6 10 13 6 11 14 6 10 13 8 9 13 6 10 13 7 11 12 7 11 12 7 11 12 7 11 12 6 10 11 6 12 12 5 11 11 5 10 13 5 10 13 6 10 13 6 10 13 5 10 13 5 10 13 5 10 13 5 10 13 5 10 13 5 10 13 5 10 13 4 9 12 5 10 13 7 11 14 7 11 14 6 12 12 7 11 12 9 11 10 10 12 11 20 19 17 31 23 20 31 23 20 29 21 18 23 19 16 15 14 12 13 13 11 11 11 11 10 12 11 9 10 12 10 12 11 14 14 14 16 15 13 23 20 15 30 23 17 37 28 21 39 30 23 42 32 23 41 31 22 46 32 23 47 33 22 50 36 25 54 42 28 58 46 32 60 47 31 61 45 30 60 44 29 58 40 28 51 32 18 49 30 16 44 24 13 42 22 13 37 20 12 36 17 11 34 17 10 33 16 8 35 18 10 47 25 14 55 32 18 59 38 21 61 44 28 65 48 32 66 46 35 65 47 33 64 45 30 61 38 22 56 33 19 53 31 17 52 30 16 52 33 18 54 36 22 52 35 25 45 31 22 36 23 15 28 17 13 18 13 10 16 12 13 14 13 11 15 14 12 15 14 12 20 16 15 22 17 14 26 18 15 29 20 15 33 22 18 31 24 18 29 19 17 28 17 15 24 16 14 
6 9 14 6 11 14 6 11 14 7 11 14 6 11 14 8 12 15 10 11 13 8 12 13 8 12 13 7 11 12 6 12 12 5 11 11 5 10 13 6 11 15 7 11 12 6 10 11 5 11 11 4 10 10 5 11 11 5 11 11 5 10 13 5 10 13 5 10 13 5 10 13 5 10 13 5 10 13 5 10 13 7 11 12 7 11 14 7 11 12 12 12 12 16 16 14 25 20 17 28 20 17 26 20 20 23 19 16 16 15 13 13 13 13 11 13 12 9 10 12 8 9 11 10 12 11 15 14 12 21 17 14 27 22 16 38 29 22 45 35 26 48 38 29 52 39 30 50 37 28 50 36 25 50 36 25 52 38 25 53 41 29 58 44 31 60 44 31 58 45 29 60 44 29 61 43 29 57 35 22 53 31 20 46 26 15 44 24 13 41 23 13 38 21 11 35 18 10 35 16 9 36 17 10 45 26 12 53 31 17 58 37 20 62 43 26 65 48 32 68 50 36 68 52 39 65 47 33 63 44 27 59 38 21 53 32 15 53 30 14 53 31 17 53 34 20 52 35 25 46 32 23 39 26 18 29 18 14 17 12 9 17 13 12 16 15 13 20 16 15 19 18 16 21 17 16 22 18 15 23 18 15 28 20 17 30 20 18 27 19 16 26 18 16 26 18 16 26 18 16 
6 9 14 6 11 14 6 11 14 6 11 14 6 12 12 8 12 13 11 13 12 11 12 14 10 11 13 7 11 12 5 11 11 6 12 12 4 10 10 6 10 13 6 10 9 5 11 11 5 11 11 5 11 11 5 11 11 5 11 11 5 11 11 5 11 11 5 11 11 5 11 11 5 11 11 6 12 12 5 10 13 5 11 11 7 11 14 7 11 12 11 12 14 11 13 12 19 15 14 20 16 15 20 16 13 17 16 12 13 13 11 11 13 12 10 11 13 9 11 10 9 11 10 12 12 12 18 14 11 24 19 15 32 25 17 42 32 23 51 38 29 56 43 34 56 43 34 54 44 32 54 40 29 53 39 28 54 40 29 52 40 26 56 42 29 58 42 29 57 43 30 59 43 30 60 42 30 56 38 24 53 34 20 50 31 17 48 29 15 49 27 14 47 25 14 41 21 12 39 19 10 38 18 9 45 22 6 53 30 16 59 37 23 63 44 27 66 49 33 64 51 35 65 53 39 65 51 38 65 47 33 62 40 26 56 34 20 54 32 18 53 31 17 53 34 20 53 35 25 47 30 22 38 25 17 28 17 13 21 13 11 18 14 13 20 16 13 24 19 16 23 19 16 23 19 18 21 17 14 22 18 15 26 18 16 27 19 17 27 19 16 26 18 16 26 18 16 22 16 16 
5 10 13 7 11 12 6 12 12 6 10 13 8 12 13 8 14 14 12 13 17 12 13 15 11 12 14 7 11 12 7 11 12 7 11 12 6 10 11 6 10 11 7 11 12 7 11 12 7 11 12 7 13 13 7 11 12 4 10 10 5 11 11 5 10 13 5 11 11 4 10 10 5 11 11 5 11 11 5 11 11 5 10 13 6 12 12 6 10 11 6 10 11 10 12 11 14 14 14 15 15 13 15 14 12 15 13 14 12 12 12 11 13 12 11 11 11 11 11 11 11 11 11 14 13 9 23 18 15 29 21 18 38 28 19 46 36 26 53 40 31 58 46 34 57 47 35 56 46 36 58 44 35 56 42 31 56 42 31 55 43 31 56 42 31 55 41 30 57 41 26 56 40 25 58 40 26 55 37 25 52 34 20 53 34 20 55 33 19 55 33 19 56 34 23 53 31 20 49 27 16 42 23 9 46 23 9 53 30 16 59 37 23 63 44 29 66 49 33 66 53 37 66 54 40 66 54 40 66 50 37 64 41 27 57 35 21 54 31 17 51 29 16 50 28 15 45 27 17 42 25 17 35 22 16 27 16 14 22 14 12 20 15 12 22 17 14 24 19 16 25 20 17 21 17 14 21 17 14 19 15 14 20 16 15 19 15 12 20 16 13 23 18 14 20 16 15 16 15 11 
5 10 13 9 10 14 7 11 14 7 12 15 8 14 14 10 14 15 13 14 16 13 14 16 10 14 13 8 12 13 7 11 12 6 11 14 7 11 12 7 11 12 7 11 12 7 11 12 6 12 12 6 10 11 5 11 11 6 10 11 5 11 11 5 11 11 5 11 11 4 9 12 5 11 11 5 11 11 5 11 11 4 9 13 5 10 13 6 11 14 8 12 13 6 10 9 11 11 11 13 13 13 13 13 11 14 14 14 14 14 12 13 13 13 13 13 11 15 14 12 14 14 12 20 16 13 27 19 16 33 24 19 41 31 22 48 38 28 56 43 34 58 46 34 59 49 37 59 49 39 60 47 38 58 46 34 59 47 35 59 47 35 56 42 31 56 42 29 54 40 27 54 38 25 54 36 24 52 33 19 50 32 18 54 35 21 55 36 22 61 39 25 61 39 25 58 36 23 54 35 21 51 32 17 51 28 14 55 32 18 59 37 23 65 46 31 67 51 35 66 54 40 65 55 43 66 54 40 66 50 35 63 44 29 58 36 22 53 30 16 50 26 14 46 24 11 40 22 12 38 21 13 31 20 14 27 16 12 24 16 13 23 15 13 25 17 14 28 20 17 28 20 17 22 18 15 19 15 12 17 13 12 17 13 12 15 14 12 15 14 12 14 13 11 15 14 12 13 11 12 
6 10 13 6 11 14 7 11 14 8 12 13 9 13 14 12 13 15 13 15 14 13 15 14 13 15 14 12 12 12 10 12 11 9 10 12 6 10 11 7 11 12 7 11 14 7 11 12 9 10 12 7 11 12 6 10 11 5 11 11 4 10 10 5 9 10 5 9 12 5 10 13 5 10 13 5 10 13 5 10 13 4 9 12 4 9 12 4 9 12 5 11 11 6 10 11 10 11 13 12 12 12 14 14 14 13 13 13 14 14 12 13 13 11 14 13 11 18 14 13 20 16 13 27 19 16 32 23 18 40 27 21 45 32 24 52 39 30 55 42 33 59 46 37 59 49 37 63 50 41 61 49 37 61 49 37 60 48 36 60 48 36 58 46 34 57 43 30 57 41 28 51 37 24 52 34 22 49 31 17 49 31 17 53 34 20 57 38 24 63 41 27 63 44 29 62 43 28 59 40 25 58 36 23 55 32 16 58 32 17 59 38 21 63 44 27 65 49 33 65 53 39 64 55 40 66 52 41 68 49 35 63 44 29 59 37 23 53 31 18 51 27 15 46 24 11 37 19 9 37 20 12 31 18 12 28 17 13 25 17 15 26 16 14 27 19 16 30 20 18 29 21 18 23 18 15 19 15 14 18 14 13 16 12 13 13 12 10 12 12 12 11 11 11 11 11 11 11 11 11 
6 10 13 7 11 14 7 11 12 8 12 13 9 13 14 13 15 14 14 16 15 15 15 15 13 15 14 11 13 12 11 13 12 8 12 11 6 11 14 8 12 13 9 13 14 8 12 13 7 11 12 5 11 11 6 10 11 5 9 10 6 10 13 5 10 13 6 11 14 5 11 11 5 10 13 5 10 13 5 10 13 5 10 13 5 10 13 5 10 13 6 10 11 7 11 12 8 12 13 11 13 12 13 13 11 13 13 13 17 16 14 16 15 13 20 16 13 21 16 13 26 18 15 32 23 18 40 27 21 43 30 22 48 35 26 56 43 34 56 46 36 60 50 40 63 50 41 61 51 41 60 50 41 60 50 41 62 52 42 62 52 40 62 50 36 59 45 34 54 40 27 52 36 23 48 30 18 47 27 16 47 29 17 50 32 18 56 37 23 63 41 27 63 44 29 63 47 31 65 48 32 63 44 29 60 38 25 59 36 20 61 38 22 61 42 25 66 49 31 65 51 38 64 52 38 66 53 37 66 49 33 63 44 29 62 40 26 57 35 21 52 30 17 47 25 12 37 19 7 33 18 11 32 17 14 28 17 13 26 18 15 27 17 15 30 19 17 31 21 19 32 22 20 27 19 17 20 16 15 18 14 13 15 11 12 14 12 13 13 11 12 12 10 11 11 11 11 11 11 9 
