P3
100 50
255
43 29 20 42 28 19 43 29 20 43 29 20 44 30 21 43 29 20 43 29 20 43 29 20 41 27 18 43 29 20 43 29 20 43 29 20 43 29 18 43 29 18 43 29 20 43 29 20 43 29 20 43 29 20 44 30 21 44 30 21 42 28 19 42 28 19 41 27 18 42 28 19 43 29 20 41 27 18 42 28 19 41 27 18 41 27 18 41 27 18 42 28 19 42 28 19 42 28 19 41 27 18 42 28 19 42 28 19 41 27 18 41 27 18 41 27 18 42 28 19 42 28 19 42 28 19 42 28 19 42 28 19 42 28 19 41 27 18 41 27 18 43 29 20 41 27 18 40 26 17 41 27 18 42 28 19 42 28 19 42 28 19 40 26 17 40 26 17 42 28 19 42 28 19 41 27 18 39 25 16 39 25 16 40 26 17 42 28 19 40 26 17 40 26 17 40 26 17 40 26 17 41 27 18 41 27 18 39 25 16 39 25 16 40 26 17 41 27 18 41 27 18 40 26 17 40 26 17 40 26 17 40 26 17 40 26 17 39 25 16 40 26 17 41 27 18 40 26 17 40 26 17 40 26 17 40 26 17 39 26 17 39 26 17 37 24 15 37 24 15 39 25 16 39 25 16 38 24 15 38 24 15 39 25 16 39 25 16 39 25 16 40 26 17 39 25 16 38 24 15 
42 28 19 42 28 19 41 27 18 42 28 19 43 29 20 43 29 20 44 30 21 42 28 19 43 29 20 43 29 20 43 29 20 43 29 20 43 29 18 44 30 19 44 30 21 43 29 20 44 30 21 43 29 20 43 29 20 43 29 20 43 29 20 43 29 20 42 28 19 43 29 20 43 29 20 43 29 20 41 27 18 41 27 18 42 28 19 43 29 20 44 30 21 43 29 20 42 28 19 42 28 19 43 29 20 40 26 17 40 26 17 42 28 19 42 28 19 42 28 19 40 26 17 41 27 18 43 29 20 42 28 19 43 29 20 43 29 20 41 27 18 42 28 19 41 27 18 40 26 17 42 28 19 42 28 19 42 28 19 41 27 18 40 26 17 41 27 18 40 26 17 42 28 19 41 27 18 41 27 18 40 26 17 41 27 18 42 28 19 39 25 16 40 26 17 40 26 17 42 28 19 40 26 17 40 26 17 40 26 17 40 26 17 40 26 17 39 25 16 39 25 16 40 26 17 39 25 16 39 25 16 40 26 17 39 25 16 39 25 16 39 25 16 40 26 17 39 25 16 39 25 16 39 25 16 39 25 16 37 24 15 37 24 15 38 25 16 38 25 16 39 25 16 39 25 16 39 25 16 39 25 16 39 25 16 40 26 17 40 26 17 39 25 16 39 25 16 39 25 16 
42 28 19 42 28 19 42 28 19 42 28 19 44 30 19 43 31 19 44 30 19 43 29 18 43 29 18 43 29 18 44 30 19 42 28 17 43 29 20 44 30 21 43 29 20 44 30 21 43 29 20 42 28 19 43 29 20 43 29 20 43 29 20 43 29 20 43 29 20 43 29 20 44 30 21 43 29 20 42 28 19 41 27 18 42 28 19 43 29 20 43 29 20 43 29 20 42 28 19 42 28 19 42 28 19 41 27 18 41 27 18 42 28 19 42 28 19 42 28 19 41 27 18 42 28 19 43 29 20 42 28 19 41 27 18 41 27 18 41 27 18 41 27 18 41 27 18 41 27 18 42 28 19 41 27 18 41 27 18 41 27 18 41 27 18 42 28 19 42 28 19 41 27 18 40 26 17 41 27 18 41 27 18 41 27 18 41 27 18 40 26 17 41 27 18 40 26 17 41 27 18 39 25 16 40 26 17 39 25 16 40 26 17 40 26 17 40 26 17 40 26 17 40 26 17 40 26 17 39 25 16 40 26 17 40 26 17 39 25 16 39 25 16 40 26 17 38 25 16 39 26 17 39 26 17 39 26 17 38 25 16 40 26 17 39 25 16 40 26 17 40 26 17 40 26 17 40 26 17 40 26 17 39 25 16 38 25 16 40 26 17 39 25 16 38 25 16 39 25 16 
42 28 19 42 28 19 44 30 21 43 29 20 44 30 21 43 29 20 43 29 20 43 29 20 42 28 19 42 28 19 41 28 19 43 29 20 44 30 21 44 30 21 42 28 19 42 28 19 43 29 20 43 29 20 43 29 20 43 29 20 43 29 20 43 29 20 42 28 19 42 28 19 42 28 19 42 28 19 43 29 20 42 28 19 42 28 19 42 28 19 42 28 19 42 28 19 42 28 19 42 28 19 42 28 19 41 27 18 42 28 19 42 28 19 42 28 19 42 28 19 42 28 19 42 28 19 43 29 20 42 28 19 42 28 19 42 28 19 41 27 18 41 27 18 41 27 18 41 27 18 42 28 19 41 27 18 41 27 18 41 27 18 43 29 20 41 27 18 41 27 18 40 26 17 42 28 19 42 28 19 40 26 17 41 27 18 40 26 17 40 26 17 41 27 18 41 27 18 40 26 17 40 26 17 40 26 17 41 27 18 40 26 17 40 26 17 41 27 18 40 26 17 39 25 16 41 27 18 40 26 17 40 26 17 39 25 16 39 25 16 39 25 16 40 26 17 39 26 17 39 26 17 40 26 17 40 26 17 40 26 17 39 26 17 39 26 17 40 26 17 40 26 17 40 27 18 40 26 17 40 26 17 39 25 16 38 25 16 40 26 17 40 26 17 38 25 16 38 24 15 
43 29 20 42 28 19 42 28 19 43 29 20 44 30 21 43 29 20 43 29 20 43 29 20 43 29 20 43 29 20 42 29 20 43 29 20 43 29 20 43 29 20 42 28 19 42 28 19 43 29 20 43 29 20 43 29 20 42 28 19 42 28 19 42 28 19 42 28 19 43 29 20 42 28 19 43 29 20 43 29 20 41 27 18 42 28 19 41 27 18 42 28 19 42 28 19 42 28 19 41 27 18 41 27 18 41 27 18 42 28 19 42 28 19 42 28 19 43 29 20 42 28 19 43 29 20 41 27 18 41 27 18 42 28 19 42 28 19 42 28 19 41 27 18 41 27 18 41 27 18 41 27 18 43 29 20 41 27 18 41 27 18 42 28 19 41 27 18 41 27 18 40 26 17 41 27 18 41 27 18 41 27 18 42 28 19 41 27 18 40 26 17 40 26 17 41 27 18 40 26 17 40 26 17 41 27 18 40 26 17 40 26 17 40 26 17 40 26 17 40 26 17 41 27 18 40 26 17 40 26 17 40 26 17 40 26 17 40 26 17 39 26 17 41 27 18 40 26 17 39 26 17 40 26 17 41 27 18 41 27 18 41 27 18 40 26 17 39 26 17 39 26 17 40 26 17 39 25 16 40 26 17 40 26 17 38 25 16 38 24 15 38 24 15 37 24 15 38 24 15 
43 29 20 44 30 21 44 30 21 44 30 21 44 30 21 43 29 20 44 30 21 44 30 21 45 31 22 43 29 20 44 30 21 44 30 21 42 28 19 42 28 19 43 29 20 43 29 20 42 28 19 42 28 19 45 31 22 43 29 20 43 29 20 42 28 19 43 29 20 42 28 19 42 28 19 43 29 20 44 30 21 42 28 19 41 27 18 42 28 19 42 28 19 42 28 19 44 30 21 43 29 20 42 28 19 42 28 19 42 28 19 41 27 18 41 27 18 42 28 19 42 28 19 42 28 19 43 29 20 42 28 19 42 28 19 41 27 18 42 28 19 42 28 19 40 26 17 41 27 18 41 27 18 41 27 18 42 28 19 41 27 18 41 27 18 40 26 17 40 26 17 42 28 19 41 27 18 40 26 17 42 28 19 42 28 19 42 28 19 43 29 20 40 26 17 40 26 17 41 27 18 41 27 18 41 27 18 41 27 18 41 27 18 41 27 18 41 27 18 40 26 17 40 26 17 40 26 17 40 26 17 39 25 16 40 26 17 41 27 18 39 25 16 40 26 17 39 26 17 39 25 16 39 25 16 39 25 16 40 26 17 40 26 17 40 26 17 40 26 17 39 25 16 39 26 17 39 25 16 40 26 17 40 26 17 39 26 17 38 24 15 38 24 15 38 25 16 38 24 15 
43 29 20 44 30 21 44 30 21 44 30 21 43 29 20 44 30 21 43 29 20 44 30 21 44 30 21 44 30 21 43 29 20 43 29 20 43 29 20 43 29 20 44 30 21 44 30 21 43 29 20 40 26 17 43 29 20 44 30 21 43 29 20 43 29 20 44 30 21 43 29 20 43 29 20 42 28 19 43 29 20 41 27 18 42 28 19 41 27 18 41 27 18 42 28 19 42 28 19 42 28 19 43 29 20 43 29 20 42 28 19 42 28 19 41 27 18 41 27 18 42 28 19 42 28 19 42 28 19 41 27 18 41 27 18 41 27 18 41 27 18 41 27 18 41 27 18 41 27 18 42 28 19 42 28 19 42 28 19 41 27 18 41 27 18 41 27 18 40 26 17 40 26 17 41 27 18 40 26 17 40 26 17 41 27 18 40 26 17 42 28 19 41 27 18 41 27 18 40 26 17 41 27 18 40 26 17 41 27 18 41 27 18 42 28 19 41 27 18 40 26 17 40 26 17 39 25 16 40 26 17 40 26 17 41 27 18 39 26 17 38 25 16 39 25 16 38 24 15 41 27 18 39 26 17 39 25 16 39 25 16 41 27 18 40 26 17 40 26 17 40 26 17 40 26 17 40 26 17 40 26 17 39 25 16 38 25 16 39 25 16 39 25 16 39 26 17 39 25 16 
43 29 20 43 29 20 43 29 20 43 29 20 43 29 20 43 29 20 44 30 21 43 29 20 43 29 20 43 29 20 45 28 20 42 28 19 43 29 20 43 29 20 44 30 21 43 29 20 42 28 19 42 28 19 44 30 21 44 30 21 43 29 18 43 29 20 44 30 21 43 29 18 44 30 19 42 28 19 43 29 20 41 27 16 42 28 17 42 28 19 42 28 17 42 28 19 43 29 18 42 28 19 42 28 17 43 29 20 43 29 20 42 28 19 41 27 18 41 27 18 43 29 20 41 27 18 43 29 20 42 28 19 41 27 18 41 27 18 42 28 19 42 28 19 41 27 18 40 26 17 41 27 18 42 28 19 42 28 19 42 28 19 42 28 19 41 27 18 41 27 18 40 26 17 41 27 18 41 27 18 40 26 17 40 26 17 40 26 17 42 28 19 41 27 18 41 27 18 41 27 18 40 26 17 40 26 17 41 27 18 41 27 18 41 27 18 41 27 18 40 26 17 40 26 17 39 25 16 41 27 18 42 28 19 41 27 18 40 26 17 39 25 16 39 25 16 40 26 17 41 27 18 41 27 18 39 26 17 39 26 17 40 26 17 40 26 17 41 27 18 40 26 17 40 26 17 40 26 17 40 26 17 40 26 17 37 24 15 39 25 16 39 25 16 38 25 16 39 25 16 
42 28 19 43 29 20 43 29 20 43 29 20 43 29 20 42 28 19 42 28 19 42 28 19 44 30 21 43 29 20 43 26 18 42 28 19 42 28 19 44 30 21 43 29 20 44 30 21 43 29 20 43 29 20 44 30 21 43 29 20 44 30 21 43 29 20 44 30 21 43 29 20 44 30 21 42 28 19 42 28 19 41 27 18 41 27 18 42 28 19 43 29 20 42 28 19 42 27 20 42 28 19 43 29 20 42 28 19 43 29 20 41 27 18 42 28 19 43 29 20 42 28 19 41 27 18 42 28 19 41 27 18 41 27 18 41 27 18 42 28 19 41 27 18 41 27 18 42 28 19 41 27 18 42 28 19 42 28 19 41 27 18 41 27 18 41 27 18 41 27 18 41 27 18 40 26 17 44 30 21 42 28 19 40 26 17 39 25 16 40 26 17 42 28 19 42 28 19 40 26 17 40 26 17 41 27 18 42 28 19 41 27 18 41 27 18 40 26 17 40 26 17 41 27 18 40 26 17 40 26 17 40 26 17 40 26 17 40 26 17 40 26 17 39 25 16 39 25 16 41 27 18 40 27 18 40 26 17 40 26 17 39 26 17 39 26 17 40 26 17 41 27 18 40 26 17 41 27 18 41 27 18 42 28 19 37 24 15 39 25 16 39 25 16 38 25 16 39 25 16 
41 27 18 44 30 21 43 29 20 42 28 19 43 29 18 44 27 17 42 28 17 44 30 19 45 31 20 43 29 18 43 29 18 43 29 18 42 28 19 45 31 22 43 29 20 44 30 21 42 28 19 42 28 19 45 31 22 43 29 20 43 29 20 43 29 18 43 29 18 43 29 20 43 29 20 41 27 16 42 28 17 41 27 18 43 29 20 43 29 20 44 30 21 43 29 20 42 28 19 41 27 18 42 28 19 42 28 19 42 28 19 41 27 18 41 27 18 42 28 19 43 29 20 41 27 18 41 27 18 42 28 19 41 27 18 41 27 18 43 29 20 42 28 19 41 27 18 41 27 18 41 27 18 41 27 18 42 28 19 42 28 19 41 27 18 42 28 19 42 28 19 40 26 17 39 25 16 41 27 18 42 28 19 40 26 17 41 27 18 42 28 19 41 27 18 41 27 18 40 26 17 41 27 18 40 26 17 40 26 17 40 26 17 40 26 17 40 26 17 40 26 17 41 27 18 39 25 16 40 26 17 39 25 16 40 26 17 40 26 17 40 26 17 40 26 17 40 26 17 40 26 17 41 27 18 42 28 19 40 26 17 38 24 15 39 25 16 38 25 16 39 26 17 38 25 16 40 26 17 40 26 17 41 27 18 37 24 15 39 25 16 39 25 16 39 26 17 38 24 15 
43 29 20 44 30 21 42 28 19 43 29 20 43 29 20 44 30 21 44 30 21 44 30 21 45 31 22 44 30 21 43 29 20 44 30 21 46 29 21 42 28 19 44 30 21 42 28 19 43 29 20 43 29 20 44 30 21 41 28 19 43 29 20 43 29 20 43 29 20 44 30 21 44 30 21 43 29 20 43 29 20 42 28 19 42 28 19 42 28 19 43 29 20 42 28 19 42 28 19 42 28 19 41 27 18 41 27 18 42 28 17 41 27 16 42 28 19 41 27 18 41 27 18 41 27 18 41 27 18 40 26 17 40 26 17 41 27 18 41 27 18 41 27 18 41 27 18 42 28 19 41 27 18 41 27 18 41 27 18 41 27 18 41 27 18 42 28 19 41 27 18 40 26 17 41 27 18 40 26 17 40 26 17 40 26 17 40 26 17 42 28 19 41 27 18 40 26 17 41 27 18 41 27 18 40 26 17 41 27 18 41 27 18 42 28 19 40 26 17 41 27 18 40 26 17 40 26 17 41 27 18 41 27 18 41 27 18 40 26 17 40 26 17 39 25 16 39 25 16 39 25 16 40 26 17 40 26 17 40 26 17 39 25 16 40 26 17 39 25 16 38 24 15 39 25 16 38 24 15 38 24 15 39 25 16 39 25 16 40 26 17 39 25 16 39 25 16 38 24 15 
43 29 20 44 30 21 43 29 20 44 30 21 44 30 21 45 31 22 44 30 21 44 30 21 45 31 22 44 30 21 43 29 20 44 30 21 44 31 22 43 29 20 43 29 20 43 29 20 41 27 18 44 30 21 43 29 20 46 29 21 43 29 20 43 29 20 44 30 21 44 30 21 44 30 21 43 29 20 42 28 19 43 29 20 42 28 19 42 28 19 42 28 19 42 28 19 42 28 19 42 28 19 42 28 19 41 27 18 43 29 18 42 28 17 42 28 19 41 27 18 41 27 18 42 28 19 41 27 18 41 27 18 41 27 18 42 28 19 41 27 18 41 27 18 41 27 18 41 27 18 41 27 18 41 27 18 41 27 18 41 27 18 41 27 18 41 27 18 41 27 18 41 27 18 42 28 19 40 26 17 40 26 17 40 26 17 40 26 17 41 27 18 40 26 17 40 26 17 41 27 18 41 27 18 40 26 17 40 26 17 40 26 17 41 27 18 41 27 18 40 26 17 40 26 17 40 26 17 40 26 17 42 28 19 41 27 18 40 26 17 40 26 17 39 25 16 40 26 17 39 25 16 40 26 17 39 25 16 38 24 15 39 25 16 40 26 17 39 25 16 40 26 17 38 24 15 39 25 16 39 25 16 40 26 17 39 25 16 39 25 16 39 25 16 39 25 16 39 25 16 
43 29 20 42 28 19 43 29 20 43 29 20 44 30 21 43 29 20 44 30 21 44 30 21 44 30 21 43 29 20 44 30 21 43 29 20 43 29 20 44 30 21 42 28 19 43 29 20 43 29 20 42 28 19 42 28 19 42 28 19 42 28 17 43 29 18 43 29 18 44 30 19 44 30 19 42 28 17 42 28 17 43 29 18 42 28 19 43 29 20 44 30 21 42 28 19 43 29 20 41 27 18 42 28 19 42 28 19 42 28 17 42 28 17 42 28 19 41 27 18 40 26 17 41 27 18 42 28 19 42 28 19 42 28 19 42 28 19 41 27 18 41 27 18 41 27 18 41 27 18 42 28 19 42 28 19 41 27 18 41 27 18 42 28 19 41 27 18 41 27 18 41 27 18 41 27 18 42 28 19 40 26 17 40 26 17 40 26 17 39 25 16 41 27 18 40 26 17 41 27 18 41 27 18 40 26 17 40 26 17 40 26 17 40 26 17 40 26 17 41 27 18 40 26 17 40 26 17 39 25 16 41 27 18 40 26 17 41 27 18 40 26 17 39 25 16 40 26 17 40 26 17 40 26 17 40 26 17 38 24 15 39 25 16 40 26 17 41 27 18 40 26 17 41 27 18 39 25 16 39 25 16 40 26 17 39 25 16 40 26 17 40 26 17 40 26 17 39 25 16 
43 29 20 42 28 19 44 30 21 43 29 20 43 29 20 42 28 19 42 28 19 44 30 21 43 29 20 44 30 21 43 29 20 43 29 20 43 29 20 43 29 20 43 26 18 42 28 19 42 28 19 41 28 19 42 28 19 42 28 19 42 28 17 42 28 17 43 29 18 43 29 18 42 28 17 43 29 18 42 28 17 43 29 18 43 29 18 44 30 19 43 29 18 42 28 17 42 28 17 41 27 16 42 28 17 42 28 17 42 28 17 41 27 16 41 27 18 41 27 18 41 27 18 40 26 17 42 28 19 42 28 19 42 28 19 41 27 18 41 27 18 42 28 19 41 27 18 42 28 19 43 29 20 41 27 18 42 28 19 42 28 19 42 28 19 41 27 18 42 28 19 41 27 18 40 26 17 42 28 19 41 27 18 42 28 19 41 27 18 41 27 18 41 27 18 41 27 18 40 26 17 40 26 17 39 25 16 40 26 17 40 26 17 41 27 18 41 27 18 41 27 18 41 27 18 41 27 18 39 25 16 43 26 18 40 26 17 40 27 18 41 27 18 41 27 18 40 26 17 42 25 17 40 26 17 41 27 18 38 24 15 40 26 17 40 26 17 42 28 19 41 27 18 40 26 17 39 25 16 39 25 16 40 26 17 39 25 16 40 26 17 40 26 17 40 26 17 39 25 16 
43 29 20 44 30 21 44 30 21 43 29 20 43 29 20 44 30 21 43 29 20 43 29 20 43 29 20 43 29 20 42 28 19 42 28 19 42 29 20 44 30 21 45 28 20 43 29 20 44 30 21 43 30 21 41 27 18 44 27 19 42 28 17 42 28 17 42 28 17 42 28 17 42 28 17 43 29 18 43 29 18 43 29 18 43 29 18 42 28 17 42 28 17 43 29 18 41 27 16 42 28 17 42 28 17 41 27 16 43 29 18 43 29 18 43 29 20 42 28 19 42 28 19 43 29 20 43 29 20 42 28 19 41 27 18 41 27 18 42 28 19 42 28 19 42 28 19 42 28 19 41 27 18 41 27 18 41 27 18 43 29 20 42 28 19 41 27 18 40 26 17 42 28 19 41 27 18 41 27 18 41 27 18 41 27 18 41 27 18 41 27 18 40 26 17 40 26 17 40 26 17 40 26 17 41 27 18 42 28 19 42 28 19 42 28 19 40 26 17 39 25 16 40 26 17 40 26 17 39 25 16 43 26 18 42 28 19 40 27 18 41 27 18 40 26 17 41 27 18 43 26 18 40 26 17 40 26 17 40 26 17 40 26 17 40 26 17 40 26 17 40 26 17 40 26 17 40 26 17 40 26 17 41 27 18 39 25 16 41 27 18 40 26 17 40 26 17 38 24 15 
43 29 20 44 30 21 43 29 20 43 29 20 43 29 20 44 30 21 43 29 20 42 28 19 43 29 20 43 29 20 42 28 19 43 29 20 43 29 20 43 29 20 43 29 20 43 29 20 43 29 20 44 30 21 43 29 20 42 28 19 43 29 18 43 29 18 43 29 18 42 28 17 42 28 17 43 29 18 43 29 18 42 28 17 42 28 17 41 27 16 42 28 17 44 30 19 42 28 17 41 27 16 42 28 17 42 28 17 42 28 17 44 30 19 43 29 20 42 28 19 42 28 19 42 28 19 41 27 18 41 27 18 41 27 18 40 26 17 42 28 19 42 28 19 42 28 19 42 28 19 42 28 19 41 27 18 41 27 18 42 28 19 42 28 19 42 28 19 40 26 17 41 27 18 41 27 18 41 27 18 42 28 19 42 28 19 42 28 19 41 27 18 40 26 17 40 26 17 41 27 18 42 28 19 41 27 18 41 27 18 42 28 19 41 27 18 38 24 15 40 26 17 41 27 18 42 28 19 41 27 18 41 27 18 41 27 18 41 27 18 41 27 18 40 26 17 42 28 19 41 27 18 40 26 17 40 26 17 41 27 18 40 26 17 39 25 16 39 25 16 40 26 17 39 25 16 40 26 17 40 26 17 40 26 17 38 24 15 39 25 16 39 25 16 40 26 17 38 24 15 
43 29 20 43 29 20 44 30 21 44 30 21 43 29 20 43 29 20 42 28 19 42 28 19 44 30 21 43 29 20 43 29 20 43 29 20 44 30 21 45 31 22 44 30 21 44 30 21 43 29 20 43 29 20 43 29 20 43 29 20 43 29 20 43 29 20 43 29 20 43 29 20 43 29 20 43 29 20 43 29 20 42 28 19 43 29 18 42 28 17 42 28 17 43 29 18 41 27 16 42 28 17 42 28 17 43 29 18 44 27 17 44 30 19 42 28 19 42 28 19 43 26 18 43 26 18 41 27 18 41 27 18 43 29 20 41 27 18 42 28 19 41 27 18 42 28 19 42 28 19 42 28 19 41 27 18 42 28 19 42 28 19 42 28 19 41 27 18 42 28 19 41 27 18 42 28 19 41 27 18 40 26 17 42 28 19 42 28 19 41 27 18 41 27 18 41 27 18 41 27 18 42 28 19 41 27 18 41 27 18 41 27 18 42 28 19 40 26 17 40 26 17 41 27 18 41 27 18 41 27 18 42 28 19 41 27 18 40 26 17 40 26 17 40 26 17 39 25 16 40 26 17 40 26 17 40 26 17 40 26 17 39 25 16 40 26 17 40 26 17 39 25 16 38 24 15 40 26 17 40 26 17 40 26 17 38 24 15 40 26 17 40 26 17 40 26 17 39 25 16 
44 30 21 45 31 22 44 30 21 43 29 20 44 30 21 42 28 19 42 28 19 44 30 21 44 30 21 44 30 21 44 30 21 44 30 21 44 30 21 44 30 21 44 30 21 44 30 21 42 28 19 42 28 19 43 29 20 43 29 20 43 29 20 44 30 21 43 29 20 43 29 20 44 30 21 42 28 19 42 28 19 41 27 18 41 27 18 41 27 18 43 29 20 43 29 20 42 28 19 42 28 19 42 28 19 42 28 19 45 28 18 43 29 18 42 28 19 42 28 19 43 26 18 42 25 17 41 27 18 43 29 20 42 28 19 41 27 18 42 28 19 42 28 19 43 29 20 42 28 19 42 28 19 42 28 19 42 28 19 43 29 20 43 29 20 41 27 18 42 28 19 42 28 19 42 28 19 41 27 18 41 27 18 41 27 18 41 27 18 39 25 16 41 27 18 41 27 18 41 27 18 41 27 18 40 26 17 40 26 17 41 27 18 40 26 17 41 27 18 40 26 17 40 26 17 40 26 17 41 27 18 41 27 18 42 28 19 41 27 18 40 26 17 40 26 17 39 25 16 40 26 17 39 25 16 40 26 17 40 26 17 38 24 15 39 25 16 39 25 16 41 27 18 37 23 14 39 25 16 40 26 17 40 26 17 39 25 16 38 24 15 39 25 16 39 25 16 39 25 16 
43 29 18 43 29 18 44 30 19 45 31 20 44 30 21 43 29 20 44 30 21 43 29 20 42 28 19 42 28 19 44 30 21 44 30 21 45 31 20 42 28 19 43 29 18 44 30 19 42 28 19 43 29 18 43 29 18 42 28 17 43 29 20 42 28 19 42 28 19 44 30 21 43 29 20 42 28 19 42 28 19 42 28 19 42 28 19 41 27 18 42 28 19 42 28 19 42 28 19 42 28 19 41 27 18 41 27 18 42 28 19 43 29 20 42 28 19 41 27 18 42 28 19 41 27 18 41 27 18 40 27 18 41 27 18 42 28 19 42 28 19 42 28 19 42 28 19 43 29 18 41 27 16 41 27 18 42 28 19 42 28 19 42 28 19 44 30 21 43 29 20 41 27 18 41 27 18 42 28 19 41 27 18 41 27 18 42 28 19 42 28 19 42 28 19 42 28 19 39 25 16 40 26 17 42 28 19 42 28 19 41 27 18 40 26 17 41 27 18 41 27 18 42 28 19 41 27 18 41 27 18 40 26 17 41 27 18 40 26 17 40 26 17 40 26 17 41 27 18 40 26 17 40 26 17 40 26 17 40 26 17 40 26 17 39 25 16 40 26 17 40 26 17 39 25 16 39 25 16 39 25 16 40 26 17 40 26 17 39 25 16 39 25 16 39 25 16 39 25 16 
44 30 19 43 29 18 43 29 18 43 29 18 43 29 18 44 30 21 44 30 21 44 30 21 42 28 17 44 30 19 44 30 21 44 30 21 44 30 19 43 29 20 43 29 18 42 28 17 42 28 19 43 29 18 43 29 18 42 28 17 43 29 20 43 29 20 43 29 20 43 29 20 41 27 18 42 28 19 43 29 20 43 29 20 43 29 20 42 28 19 43 29 20 42 28 19 42 28 19 43 29 20 42 28 19 41 27 18 41 28 19 42 28 19 42 28 19 42 28 19 41 27 18 41 27 18 43 29 20 42 28 19 41 27 18 42 28 17 41 27 16 42 28 19 42 28 19 41 27 18 41 27 18 42 28 19 41 27 18 42 28 19 40 26 17 42 28 19 40 26 17 41 27 18 41 27 18 43 29 20 42 28 19 42 28 19 41 27 18 42 28 19 42 28 19 41 27 18 41 27 18 40 26 17 41 27 18 41 27 18 41 27 18 41 27 18 41 27 18 40 26 17 41 27 18 41 27 18 41 27 18 40 26 17 41 27 18 40 26 17 39 25 16 40 26 17 41 27 18 40 26 17 40 26 17 40 26 17 38 24 15 40 26 17 39 25 16 40 26 17 39 25 16 38 24 15 39 25 16 39 25 16 40 26 17 40 26 17 39 25 16 39 25 16 39 25 16 39 25 16 
44 30 19 44 30 19 44 30 19 44 30 19 43 29 20 44 30 19 45 31 20 43 29 18 43 29 18 43 29 20 44 30 19 44 30 19 44 30 19 43 29 20 43 29 18 43 29 18 42 28 19 42 28 17 43 29 18 43 29 18 43 29 18 43 29 18 43 29 18 42 28 17 42 28 17 42 28 17 42 28 17 43 29 18 42 28 19 43 29 18 42 28 17 42 28 17 42 28 19 42 28 19 43 29 18 43 29 18 41 28 19 41 27 18 42 28 19 42 28 19 39 25 16 41 27 18 43 29 20 43 29 20 41 27 16 42 28 17 42 28 17 42 28 19 41 27 18 41 27 18 42 28 19 41 26 19 41 27 18 41 27 18 40 26 17 41 27 18 41 27 18 41 27 18 42 28 19 42 28 19 41 27 18 40 26 17 41 27 18 42 28 19 41 27 18 42 28 19 41 27 18 40 26 17 41 27 18 42 28 19 41 27 18 41 27 18 41 27 18 41 27 18 41 27 18 41 27 18 41 27 18 41 27 18 40 26 17 40 26 17 40 26 17 40 26 17 40 26 17 40 26 17 41 27 18 40 26 17 40 26 17 39 25 16 40 26 17 40 26 17 39 25 16 40 26 17 38 24 15 39 25 16 40 26 17 40 26 17 39 25 16 39 25 16 39 25 16 39 25 16 
45 31 20 44 30 19 44 30 19 44 30 19 44 30 21 44 30 19 43 29 18 43 29 18 43 29 18 44 30 21 43 29 18 43 29 18 43 29 18 43 29 20 44 30 19 44 30 19 43 29 20 43 29 18 43 29 18 43 29 18 43 29 18 43 29 18 42 28 17 42 28 17 42 28 17 42 28 17 42 28 17 42 28 17 42 28 17 42 28 17 42 28 17 41 27 16 42 28 17 42 28 15 41 27 16 43 29 18 42 28 19 41 27 18 40 26 17 42 28 19 41 27 18 42 28 19 43 29 20 42 28 19 41 27 18 41 27 16 41 27 16 41 27 18 42 28 19 43 29 20 42 28 19 41 27 18 39 25 16 40 26 17 41 27 18 41 27 18 41 27 18 41 27 18 42 28 19 41 27 18 41 27 18 41 27 18 41 27 18 42 28 19 41 27 18 41 27 18 42 28 19 42 28 19 41 27 18 40 26 17 41 27 18 41 27 18 41 27 18 40 26 17 40 26 17 40 26 17 41 27 18 40 26 17 41 27 18 40 26 17 40 26 17 40 26 17 40 26 17 40 26 17 40 26 17 40 26 17 39 25 16 39 25 16 39 25 16 40 26 17 40 26 17 40 26 17 39 25 16 40 26 17 40 26 17 40 26 17 39 25 16 39 25 16 40 26 17 40 26 17 
44 30 19 43 29 18 43 29 18 45 31 20 44 30 19 44 30 19 43 29 20 43 29 18 44 30 19 44 30 19 43 29 18 43 29 20 44 30 19 43 29 20 45 31 20 45 31 20 43 29 20 43 29 18 44 30 19 42 28 17 43 29 18 43 29 18 42 28 17 42 28 17 42 28 17 43 29 18 42 28 17 42 28 17 42 28 17 42 28 17 42 28 19 41 27 16 42 28 17 42 28 17 40 26 15 41 27 18 42 28 19 41 27 18 42 28 19 42 28 19 43 29 20 42 28 19 41 27 18 41 27 18 42 28 19 43 29 20 41 27 18 41 27 18 42 28 19 42 28 17 42 28 17 40 26 17 40 26 17 41 27 18 42 28 19 41 27 18 42 28 19 41 27 18 42 28 19 42 28 19 41 27 18 41 27 18 41 27 18 42 28 19 42 28 19 42 28 19 42 28 19 43 29 20 42 28 19 42 28 19 41 27 18 42 28 19 41 27 18 41 27 18 41 27 18 41 27 18 40 26 17 39 25 16 40 26 17 40 26 17 40 26 17 41 27 18 41 27 18 41 27 18 39 25 16 41 27 18 40 26 17 39 25 16 40 26 17 40 26 17 40 26 17 40 26 17 40 26 17 41 27 18 40 26 17 40 26 17 39 25 16 39 25 16 39 25 16 40 26 17 
42 28 17 43 29 18 43 29 18 45 28 18 42 28 19 43 29 18 43 29 18 43 29 18 43 29 20 43 29 20 42 28 17 43 29 18 44 30 19 42 28 19 44 30 19 44 30 19 44 30 21 43 29 18 43 29 18 43 29 18 43 29 18 43 29 18 42 28 17 43 29 18 44 30 19 44 30 19 42 28 17 42 28 17 41 27 16 42 28 17 42 28 17 42 28 17 42 28 17 42 28 17 42 28 17 42 28 17 44 27 19 42 28 19 40 26 17 41 27 18 42 28 19 42 28 19 42 28 19 43 29 20 42 27 20 42 28 19 42 28 19 42 28 19 42 28 19 42 28 17 42 28 17 42 28 17 42 28 19 42 28 19 42 28 19 42 28 19 42 28 19 41 27 18 42 28 19 42 28 19 41 27 18 40 26 17 40 26 17 42 28 19 40 26 17 41 27 18 44 30 21 42 28 19 41 27 18 40 26 17 41 27 18 42 28 19 41 27 18 40 26 17 41 27 18 40 26 17 40 26 17 40 26 17 39 25 16 41 27 18 41 27 18 41 27 18 41 27 18 40 26 17 41 27 18 41 27 18 40 26 17 40 26 17 40 26 17 41 27 18 40 26 17 39 25 16 39 25 16 40 26 17 40 26 17 40 26 17 40 26 17 39 25 16 39 25 16 39 25 16 
44 30 19 42 28 17 42 28 17 43 29 18 43 29 18 44 30 19 44 30 21 43 29 18 44 30 19 44 30 19 44 30 19 43 29 20 44 30 19 43 29 20 43 29 18 43 29 18 43 29 20 43 29 18 43 29 18 43 29 18 43 29 18 41 27 16 42 28 17 43 29 18 44 30 19 43 29 18 42 28 17 42 28 17 42 28 19 42 28 17 43 29 18 43 29 18 42 28 17 42 28 19 42 28 17 42 28 17 44 27 19 41 27 18 42 28 19 41 27 18 41 27 18 42 28 19 43 29 20 43 29 20 41 27 18 41 27 18 41 27 18 42 28 19 42 28 19 42 28 17 41 27 16 42 28 19 42 28 19 41 27 18 40 26 17 42 28 19 41 27 18 41 27 18 41 27 18 41 27 18 41 27 18 41 27 18 41 27 18 42 28 19 42 28 19 41 27 18 42 28 19 41 27 18 41 27 18 40 26 17 41 27 18 41 27 18 40 26 17 43 29 20 42 28 19 41 27 18 40 26 17 40 26 17 41 27 18 42 28 19 41 27 18 41 27 18 40 26 17 40 26 17 40 26 17 40 26 17 40 26 17 40 26 17 41 27 18 41 27 18 41 27 18 40 26 17 39 25 16 40 26 17 39 25 16 40 26 17 40 26 17 40 26 17 40 26 17 40 26 17 
43 29 18 43 29 18 43 29 18 43 29 18 44 30 19 44 30 19 43 29 18 43 29 18 43 29 18 43 29 18 43 29 18 43 29 18 43 29 18 44 30 21 43 29 18 42 28 17 44 30 21 44 30 19 43 29 18 43 29 18 42 28 17 42 28 17 42 28 17 42 28 17 43 29 18 42 28 17 43 29 18 42 28 17 43 29 18 42 28 17 43 29 20 43 29 20 43 29 18 43 29 18 42 28 17 41 27 18 41 27 18 42 28 19 42 28 19 41 27 18 41 27 18 43 29 20 42 28 19 44 27 19 43 29 20 41 27 16 41 27 16 42 28 19 41 27 18 42 28 19 42 28 19 41 27 18 41 27 16 42 28 17 42 28 17 41 27 16 41 27 16 40 26 15 41 27 16 41 27 16 42 28 19 41 27 18 42 28 19 42 28 19 41 27 18 42 28 19 41 27 18 43 29 20 41 27 18 41 27 18 41 27 18 41 27 18 40 26 17 40 26 17 41 27 18 41 27 18 41 27 18 41 27 18 41 27 18 41 27 18 41 27 18 40 26 17 40 26 17 41 27 18 40 26 17 39 25 16 40 26 17 41 27 18 40 26 17 41 27 18 39 25 16 39 25 16 39 25 16 40 26 17 39 25 16 40 26 17 41 27 18 40 26 17 40 26 17 40 26 17 
44 30 19 43 29 18 44 30 19 42 28 17 42 28 17 44 30 19 44 30 19 43 29 18 43 29 18 43 29 18 43 29 18 44 30 19 43 29 18 44 30 21 42 28 17 43 29 18 43 29 20 44 30 19 42 28 17 43 29 18 42 28 17 42 28 17 43 29 18 42 28 17 42 28 19 41 27 16 42 28 19 42 28 17 42 28 17 42 28 17 43 29 18 43 29 18 42 28 17 43 29 18 42 28 17 42 28 17 42 28 17 42 28 17 41 27 16 41 27 16 41 27 16 42 28 17 42 28 17 43 29 18 42 28 19 42 28 19 42 28 19 42 28 19 42 28 19 41 27 18 41 27 18 43 29 20 41 27 18 41 28 19 43 29 20 41 27 18 40 27 18 40 26 17 42 28 19 41 27 18 41 27 18 43 29 20 43 29 20 41 27 18 41 27 18 41 27 18 42 28 19 42 28 19 42 28 19 44 30 19 42 28 19 42 28 19 42 28 19 40 26 17 41 27 16 41 27 18 41 27 18 40 26 17 40 26 17 40 26 17 40 26 17 41 27 18 41 27 18 40 26 17 39 25 16 39 25 16 41 27 18 40 26 17 38 24 15 39 25 16 40 26 17 39 25 16 39 25 16 39 25 16 39 25 16 40 26 17 39 25 16 40 26 17 40 26 17 39 25 16 
43 29 18 43 29 18 43 29 18 43 29 18 44 30 19 44 30 19 43 29 18 42 28 17 43 29 18 43 29 18 43 29 18 43 29 18 43 29 18 44 30 21 43 29 18 43 29 18 44 30 21 43 29 18 42 28 17 44 30 19 43 29 18 43 29 18 43 29 18 42 28 17 42 28 19 42 28 17 42 28 19 41 27 16 43 29 18 42 28 17 43 29 18 43 29 18 43 29 18 43 29 18 42 28 17 42 28 17 41 27 18 42 28 17 41 27 16 40 26 15 40 26 15 42 28 19 42 28 19 42 28 19 43 29 18 43 29 18 42 28 17 43 29 18 42 28 19 42 28 19 41 27 18 42 28 19 42 28 19 42 28 17 42 28 19 43 29 20 42 28 19 42 28 19 41 27 16 41 27 18 42 28 19 42 28 19 43 29 20 41 27 18 41 27 18 41 27 18 42 28 19 42 28 19 42 28 19 43 29 20 42 28 19 42 28 19 41 27 18 40 26 17 40 26 17 40 26 17 40 26 15 42 28 17 41 27 18 41 27 18 40 26 17 40 26 17 42 28 19 41 27 18 40 26 17 39 25 16 40 26 17 39 25 16 39 25 16 40 26 17 40 26 17 39 25 16 40 26 17 39 25 16 40 26 17 40 26 17 39 25 16 39 25 16 40 26 17 39 25 16 
44 30 19 44 30 19 44 30 19 43 29 18 44 30 19 44 30 19 44 30 19 43 29 18 43 29 18 43 29 18 43 29 18 43 29 18 44 30 19 44 30 21 44 30 19 44 30 19 43 29 20 43 29 18 43 29 18 43 29 18 42 28 17 42 28 17 43 29 18 42 28 17 43 29 18 42 28 17 42 28 17 41 27 16 42 28 17 43 29 18 43 29 18 42 28 17 42 28 17 41 27 16 42 28 17 41 27 16 41 27 16 40 26 15 41 27 16 41 27 18 41 27 18 41 27 18 42 28 19 42 28 19 42 28 19 41 27 18 41 27 18 41 27 18 41 27 18 41 27 18 42 28 19 43 29 20 42 28 19 41 27 18 41 27 18 43 29 20 41 27 18 42 28 19 41 27 18 43 29 20 42 28 19 43 29 20 43 29 20 41 27 18 41 27 18 42 28 19 41 27 18 41 27 18 40 26 17 40 26 17 41 27 18 41 27 18 41 27 18 41 27 18 40 26 17 39 25 16 40 26 17 40 26 17 40 26 17 41 27 18 40 26 17 39 25 16 41 27 18 41 27 18 41 27 18 41 27 18 39 25 16 40 26 17 40 26 17 39 25 16 39 25 16 40 26 17 40 26 17 40 26 17 40 26 17 40 26 17 40 26 17 40 26 17 40 26 17 39 25 16 
44 30 19 43 29 18 44 30 19 44 30 19 43 29 18 44 30 19 43 29 18 43 29 18 43 29 18 43 29 18 44 30 19 43 29 18 43 29 18 43 29 20 45 31 20 45 31 20 44 30 21 43 29 18 43 29 18 42 28 17 43 29 18 43 29 18 43 29 18 42 28 17 43 29 18 43 29 18 43 29 18 42 28 17 42 28 17 42 28 17 42 28 17 42 28 17 42 28 17 42 28 17 42 28 17 41 27 16 40 26 15 41 27 16 41 27 16 41 27 16 42 28 17 41 27 16 42 28 19 42 28 19 43 29 18 41 27 16 42 28 17 42 28 17 42 28 17 42 28 19 43 29 20 42 28 19 42 28 17 41 27 18 41 27 16 42 28 19 41 27 18 42 28 17 42 28 19 42 28 17 43 29 20 43 29 20 43 29 20 41 27 18 41 27 18 42 28 19 41 27 18 40 26 17 41 27 18 41 27 18 40 26 17 41 27 18 41 27 18 40 26 17 40 26 17 39 25 16 39 25 12 41 27 16 41 27 18 41 27 18 40 26 17 39 25 16 41 27 18 40 26 17 41 27 18 41 27 18 40 26 17 40 26 17 40 26 17 40 26 17 39 25 16 40 26 17 40 26 17 40 26 17 40 26 17 40 26 17 41 27 18 40 26 17 40 26 17 40 26 17 
43 29 18 45 31 20 45 31 20 44 30 19 44 30 19 43 29 18 44 30 19 43 29 18 43 29 18 43 29 18 44 30 19 45 31 20 45 31 20 44 30 21 44 30 19 44 30 19 43 29 20 43 29 18 43 29 18 42 28 17 43 29 18 43 29 18 44 30 19 44 30 19 44 30 19 42 28 17 42 28 17 42 28 17 42 28 17 42 28 17 41 27 16 43 29 18 43 29 18 43 29 18 41 27 16 42 28 17 41 27 16 42 28 17 42 28 17 41 27 16 41 27 16 41 27 16 42 28 17 42 28 17 42 28 17 42 28 17 41 27 16 42 28 17 42 28 17 42 28 19 43 29 20 43 29 20 42 28 19 42 28 17 41 27 18 43 29 18 40 26 15 41 27 18 41 27 16 42 28 19 42 28 19 42 28 19 42 28 19 41 27 18 41 27 18 41 27 18 41 27 18 40 26 17 40 26 17 40 26 17 40 26 17 41 27 18 42 28 19 41 27 18 41 27 18 41 27 18 41 27 18 40 26 17 40 26 17 40 26 17 40 26 17 41 27 18 40 26 17 41 27 18 41 27 18 41 27 18 41 27 18 40 26 17 41 27 18 39 25 16 39 25 16 40 26 17 40 26 17 39 25 16 39 25 16 40 26 17 40 26 17 40 26 17 40 26 17 39 25 16 
43 29 18 44 30 19 44 30 19 44 30 19 44 30 19 44 30 19 44 30 19 45 31 20 43 29 18 44 30 19 44 30 19 45 31 20 44 30 19 43 29 20 44 30 19 42 28 17 43 29 20 42 28 17 43 29 18 43 29 18 44 30 19 43 29 18 43 29 18 42 28 17 43 29 18 42 28 17 41 27 16 40 26 15 42 28 17 42 28 17 41 27 16 42 28 17 43 29 18 42 28 17 41 27 16 41 27 16 42 28 19 41 27 16 42 28 17 41 27 16 41 27 16 40 26 15 41 27 16 42 28 17 42 28 17 42 28 17 42 28 17 43 29 20 42 28 19 42 28 19 42 28 19 41 27 18 41 27 16 42 28 17 41 27 16 41 27 16 41 27 16 41 27 16 41 27 16 41 27 16 41 27 18 42 28 19 41 27 18 39 25 16 40 26 17 41 27 18 41 27 18 41 27 18 40 26 15 40 26 17 41 27 18 41 27 18 41 27 18 41 27 18 41 27 18 41 27 16 41 27 16 40 26 15 41 27 18 42 28 19 40 26 17 41 27 18 41 27 18 41 27 18 40 26 17 40 26 17 41 27 18 40 26 17 41 27 18 39 25 16 41 27 18 40 26 17 39 25 16 39 25 16 39 25 16 39 25 16 39 25 16 40 26 17 40 26 17 39 25 16 
43 29 18 44 30 19 44 30 19 44 30 19 43 29 18 43 29 18 43 29 18 44 30 19 43 29 18 44 30 19 43 29 18 43 29 18 44 30 19 44 30 21 45 31 20 44 30 19 42 28 19 41 27 16 43 29 18 44 30 19 45 31 20 44 30 19 42 28 19 43 29 18 42 28 17 42 28 17 41 27 16 41 27 16 41 27 16 42 28 17 43 29 18 42 28 17 42 28 17 42 28 17 42 28 17 42 28 17 41 27 18 42 28 19 41 27 16 41 27 16 41 27 16 41 27 16 40 26 15 41 27 16 42 28 17 42 28 17 42 28 17 42 28 17 41 27 16 42 28 17 40 26 15 40 26 13 40 26 15 40 26 17 41 27 16 41 27 16 42 28 17 40 26 15 41 27 18 41 27 16 40 26 17 41 27 18 42 28 19 41 27 18 41 27 18 41 27 18 41 27 18 40 26 17 41 27 16 41 27 18 41 27 18 43 29 20 42 28 19 40 26 17 41 27 18 40 26 15 40 26 17 40 26 17 41 27 18 40 26 17 40 26 17 40 26 17 40 26 17 41 27 18 41 27 18 40 26 17 40 26 17 40 26 17 41 27 18 40 26 17 40 26 17 40 26 17 40 26 17 38 24 15 39 25 16 39 25 16 40 26 17 39 25 16 40 26 17 40 26 17 
45 31 20 44 30 19 43 29 18 44 30 19 42 28 17 42 28 17 43 29 18 43 29 18 44 30 19 42 28 17 43 29 18 43 29 18 43 29 18 44 30 21 44 30 19 43 29 18 43 29 20 42 28 17 42 28 17 44 30 19 43 29 18 43 29 18 42 28 19 43 29 18 42 28 17 43 29 18 42 28 17 42 28 17 41 27 16 42 28 17 42 28 17 43 29 18 42 28 17 42 28 17 44 30 19 42 28 17 42 28 19 42 28 19 40 26 17 41 27 16 41 27 16 41 27 16 41 27 16 41 27 16 42 28 17 42 28 17 43 29 18 41 27 16 42 28 17 41 27 18 41 27 18 41 27 18 42 28 17 42 25 15 41 27 16 41 27 16 43 26 16 42 28 17 42 28 17 41 27 16 41 27 18 42 28 19 43 29 20 41 27 18 40 26 17 41 27 18 40 26 17 41 27 18 42 28 17 41 27 16 40 26 17 41 27 18 41 27 18 40 26 17 41 27 16 40 26 15 42 28 17 41 27 18 40 26 17 41 27 18 40 26 17 40 26 17 40 26 17 39 25 16 41 27 18 41 27 18 40 26 17 40 26 17 40 26 17 39 25 16 40 26 17 40 26 17 40 26 17 39 25 16 39 25 16 40 26 17 37 23 14 39 25 16 39 25 16 39 25 16 
44 30 19 44 30 19 44 30 19 44 30 19 43 29 18 43 29 18 43 29 18 44 30 19 44 30 19 43 29 18 43 29 18 43 29 18 43 29 18 44 30 19 44 30 19 44 30 19 43 29 18 43 29 18 42 28 19 43 29 18 43 29 18 43 29 18 43 29 18 43 29 18 43 29 20 43 29 20 43 29 20 42 28 19 41 27 18 42 28 17 42 28 17 43 29 18 42 28 17 43 29 18 44 30 19 43 29 18 42 28 17 42 28 17 42 28 17 42 28 17 42 28 17 41 27 16 43 29 18 41 27 16 42 28 19 42 28 19 42 28 17 41 27 16 41 27 16 42 28 17 42 28 17 42 28 17 42 28 17 41 27 16 42 28 17 42 28 17 42 28 17 42 28 17 42 28 19 42 28 19 42 28 19 43 29 18 43 29 20 41 27 16 41 27 16 41 27 18 41 27 16 41 27 18 40 26 17 41 27 18 40 27 18 41 27 18 42 28 19 40 26 17 40 26 17 41 27 18 41 27 16 40 26 15 40 26 15 40 26 17 39 25 16 40 26 17 39 25 16 39 25 16 40 26 17 40 26 17 40 26 17 40 26 17 39 25 16 40 26 17 40 26 17 41 27 18 39 25 16 39 25 16 40 26 17 40 26 17 39 25 16 39 25 16 40 26 17 39 25 16 
44 30 19 44 30 19 44 30 19 44 30 19 44 30 19 43 29 18 43 29 18 43 29 18 44 30 19 43 29 18 44 30 19 43 29 18 44 30 19 43 29 20 42 28 15 44 30 19 44 30 21 44 30 19 42 28 17 43 29 20 43 29 20 43 29 18 43 29 18 43 29 18 43 29 18 43 29 18 43 29 20 42 28 19 43 29 18 42 28 17 42 28 17 41 27 18 42 28 17 42 28 19 42 28 17 43 29 18 42 28 17 43 29 18 43 29 18 42 28 17 42 28 17 40 26 15 41 27 16 41 27 16 42 28 17 42 28 17 41 27 18 41 27 16 42 28 17 42 28 19 42 28 17 42 28 19 43 29 18 42 28 17 42 28 17 42 28 17 42 28 17 42 28 17 42 28 19 42 28 19 41 27 16 42 28 19 41 27 16 41 27 18 41 27 18 41 27 16 42 28 19 42 28 17 41 27 18 40 26 17 40 27 18 41 27 18 43 29 20 43 26 18 41 27 18 41 27 18 41 27 16 40 26 15 42 28 19 41 27 18 40 26 17 40 26 17 40 26 17 41 27 18 40 26 17 41 27 18 40 26 17 39 25 16 40 26 17 39 25 16 40 26 17 40 26 17 40 26 17 39 25 16 39 25 16 40 26 17 39 25 16 40 26 17 39 25 16 38 24 15 
44 30 19 43 29 18 43 29 18 44 30 21 43 29 18 43 29 18 44 30 19 43 29 18 43 29 18 44 30 19 43 29 18 43 29 18 44 30 19 43 29 18 43 29 18 43 29 18 44 30 19 45 31 20 43 29 18 43 29 18 42 28 19 42 28 19 43 29 20 43 29 18 43 29 18 43 29 18 43 29 18 43 29 18 43 29 18 42 28 17 41 27 16 40 26 15 41 27 18 42 28 17 42 28 19 42 28 19 43 29 18 42 28 17 43 29 18 43 29 18 40 26 15 41 27 16 41 27 16 41 27 16 41 27 16 41 27 16 41 27 16 41 27 16 42 28 17 42 28 17 42 28 19 42 28 19 43 29 18 42 28 17 42 28 17 42 28 17 42 28 17 41 27 16 42 28 19 42 28 19 41 27 18 41 27 16 41 27 18 41 27 16 42 28 17 41 27 18 42 28 17 42 28 19 41 27 18 40 26 17 43 26 18 42 28 19 41 27 18 43 26 18 41 27 18 41 27 18 40 26 15 40 26 17 41 27 18 41 27 18 41 27 18 40 26 17 41 27 18 40 26 17 40 26 17 40 26 17 39 25 16 39 25 16 40 26 17 40 26 17 40 26 17 41 27 18 40 26 17 39 25 16 39 25 16 39 25 16 41 27 18 40 26 17 40 26 17 39 25 16 
43 29 20 43 29 18 45 31 20 45 31 20 43 29 18 44 30 19 44 30 19 44 30 19 43 29 18 43 29 18 43 29 18 43 29 18 43 29 18 42 28 17 43 29 18 43 29 20 44 30 19 45 31 20 43 29 20 43 29 18 43 29 18 43 29 20 43 29 20 43 29 20 43 29 20 43 29 18 43 29 18 42 28 17 42 28 17 42 28 17 41 27 16 42 28 17 43 29 18 42 28 19 41 27 16 42 28 19 42 28 17 44 30 19 43 29 18 42 28 17 41 27 16 43 29 18 41 27 16 41 27 16 42 28 17 41 27 16 41 27 16 42 28 17 43 29 18 42 28 17 41 27 18 41 27 16 42 28 17 42 28 17 42 28 17 41 27 16 41 27 16 42 28 17 42 28 19 41 27 18 41 27 16 41 27 18 40 26 15 42 28 19 42 28 19 41 27 16 42 28 19 42 28 17 40 26 17 40 26 17 42 28 19 42 28 19 42 28 19 43 26 18 41 27 18 40 26 17 41 27 18 41 27 18 39 25 16 40 26 17 40 26 17 40 26 17 42 28 19 41 27 18 41 27 18 40 26 17 40 26 17 40 26 17 41 27 18 40 26 17 40 26 17 39 25 16 40 26 17 41 27 18 41 27 18 40 26 17 38 24 15 40 26 17 40 26 17 39 25 16 
44 30 19 43 29 18 45 31 20 44 30 21 44 30 19 44 30 19 44 30 19 45 31 20 44 30 19 44 30 19 43 29 18 43 29 18 43 29 18 42 28 19 43 29 18 43 29 18 43 29 20 43 29 18 43 29 18 44 30 19 44 29 22 43 29 20 42 28 17 43 29 18 43 29 18 44 30 19 43 29 18 42 28 17 42 28 17 41 27 18 42 28 17 42 28 17 42 28 17 43 29 18 43 29 18 42 28 17 42 28 17 43 29 18 43 29 18 42 28 17 41 27 16 43 29 18 43 29 18 42 28 17 42 28 19 41 27 16 42 28 19 43 29 18 42 28 17 41 27 18 41 27 16 42 28 17 42 28 17 41 27 16 41 27 16 42 28 17 42 28 17 41 27 16 42 28 19 41 27 18 43 29 18 41 27 18 42 28 17 41 27 18 42 28 19 41 27 16 41 27 18 42 28 17 40 26 17 40 26 17 41 27 18 41 27 18 42 28 19 41 27 18 41 27 18 41 27 18 41 27 18 41 27 18 41 27 18 41 27 18 41 27 18 41 27 18 41 27 18 41 27 18 41 27 18 40 26 17 40 26 17 39 25 16 40 26 17 40 26 17 40 26 17 40 26 17 41 27 18 41 27 18 40 26 17 39 25 16 39 25 16 39 25 16 40 26 17 39 25 16 
44 30 21 44 30 19 44 30 19 45 31 20 44 30 19 44 30 19 42 28 17 44 30 19 44 30 19 44 30 19 44 30 19 44 30 19 43 29 18 44 30 19 43 29 18 44 30 19 43 29 18 43 29 18 43 29 18 42 28 17 43 29 18 43 29 18 43 29 18 43 29 18 43 29 16 44 30 19 44 30 21 43 29 20 42 28 19 43 29 18 43 29 20 43 29 18 42 28 19 43 29 18 43 29 18 43 29 18 43 29 18 44 30 19 43 29 18 42 28 17 42 28 17 41 27 16 42 28 17 43 29 18 43 29 20 42 28 17 42 28 19 42 28 17 41 27 16 41 27 16 42 28 17 42 28 17 42 28 17 41 27 16 42 28 17 42 28 17 41 27 16 41 27 16 41 27 18 41 27 18 41 27 18 41 27 16 41 27 18 41 27 16 40 26 15 41 27 18 41 27 16 41 27 18 41 27 18 41 27 18 41 27 18 41 27 18 41 27 18 40 27 18 41 27 18 41 27 18 41 27 18 41 27 18 41 27 18 41 27 18 41 27 18 41 27 18 41 27 18 42 28 17 41 27 18 41 27 18 39 25 16 39 25 16 40 26 17 39 25 16 40 26 17 40 26 17 40 26 17 40 26 17 40 26 17 38 24 15 39 25 16 40 26 17 38 24 15 39 25 16 
45 31 20 44 30 19 44 30 19 44 30 19 43 29 18 43 29 18 43 29 18 43 29 18 43 29 18 44 30 19 44 30 19 45 31 20 44 30 21 44 30 19 44 30 19 44 30 21 43 29 18 42 28 15 43 29 20 43 29 18 44 30 19 44 30 19 44 30 19 44 30 21 43 29 20 43 29 20 43 29 18 43 29 18 43 29 18 44 30 21 44 30 19 44 30 21 42 28 17 42 28 19 43 29 18 44 30 19 43 29 18 43 29 18 43 29 18 43 29 18 43 29 18 41 27 16 42 28 17 43 29 18 43 29 18 42 28 19 42 28 17 42 28 17 41 27 16 41 27 16 42 28 17 43 29 18 41 27 16 41 27 16 41 27 16 42 28 17 41 27 16 40 26 15 40 26 17 41 27 18 41 27 16 41 27 18 42 28 17 41 27 18 40 26 17 41 27 16 41 27 18 41 27 16 42 28 19 42 28 19 42 28 19 41 27 18 42 28 19 42 28 19 41 27 18 40 26 17 40 26 17 41 27 18 41 27 18 42 28 19 42 28 19 42 28 19 41 27 16 41 27 16 41 27 18 41 27 18 39 25 16 40 26 17 39 25 16 39 25 16 39 25 16 41 27 18 40 26 17 40 26 17 38 24 15 40 26 17 40 26 17 39 25 16 39 25 16 38 24 15 
45 31 20 43 29 18 44 30 19 44 30 19 44 30 19 44 30 19 44 30 19 42 28 17 43 29 18 43 29 18 44 30 19 44 30 19 45 31 20 43 29 20 44 30 19 43 29 18 44 30 19 43 29 18 44 30 19 43 29 18 44 30 19 44 30 19 44 30 19 44 30 19 43 29 16 43 29 18 43 29 18 43 29 20 43 29 18 43 29 16 43 29 18 42 28 17 43 29 18 42 28 17 41 27 18 41 27 18 42 28 17 42 28 17 43 29 18 43 29 18 44 30 19 42 28 17 42 28 17 43 29 18 43 29 18 42 28 17 42 28 17 42 28 17 42 28 17 42 28 19 42 28 17 42 28 19 42 28 17 42 28 17 41 27 16 41 27 16 41 27 16 42 28 17 41 27 18 41 27 18 41 27 18 41 27 16 41 27 18 41 27 16 40 26 15 41 27 18 41 27 16 41 27 18 41 27 18 41 27 18 43 26 18 41 27 18 40 26 17 40 26 17 41 27 18 41 27 18 40 26 17 41 27 18 41 27 18 41 27 18 42 28 19 41 27 16 41 27 16 41 27 16 41 27 18 41 27 18 40 26 17 40 26 17 39 25 16 39 25 16 40 26 17 41 27 18 39 25 16 39 25 16 41 27 18 40 26 17 40 26 17 40 26 17 39 25 16 39 25 16 
45 31 20 44 30 19 44 30 19 43 29 18 42 28 17 44 30 19 44 30 19 44 30 19 43 29 18 43 29 18 43 29 18 44 30 19 44 30 19 43 29 18 43 29 18 43 29 18 44 30 19 44 30 19 45 31 20 44 30 19 44 30 19 44 30 19 45 31 20 44 30 19 43 29 20 43 29 18 43 29 18 43 28 21 43 29 18 43 29 18 42 28 17 41 27 16 43 29 18 42 28 17 41 27 16 41 27 16 43 29 18 42 28 17 43 29 18 43 29 18 42 28 17 41 27 16 43 29 18 42 28 17 41 27 16 41 27 16 41 27 16 42 28 17 43 29 18 42 28 17 43 29 18 43 29 18 43 29 18 42 28 17 41 27 16 41 27 16 42 28 17 43 29 18 42 28 17 41 27 16 41 27 18 42 28 17 41 27 16 41 27 18 40 26 17 40 26 15 41 27 16 42 28 19 42 28 19 41 27 16 41 27 16 41 27 18 39 25 16 40 26 15 40 26 15 42 28 19 41 27 16 42 28 17 40 26 15 40 26 15 40 26 17 41 27 18 42 28 19 41 27 18 40 26 17 40 26 17 41 27 18 39 25 16 39 25 16 40 26 17 39 25 16 40 26 17 39 25 16 39 25 16 39 25 16 40 26 17 40 26 17 40 26 17 40 26 17 39 25 16 
43 29 18 43 29 18 43 29 18 43 29 20 43 29 20 43 29 20 43 29 20 44 30 21 43 29 20 42 28 17 43 29 18 43 29 18 44 30 19 44 30 19 42 28 19 42 28 17 43 29 20 44 30 19 44 30 19 44 30 19 43 29 18 44 30 17 44 29 22 43 29 20 42 28 17 43 29 18 43 29 20 43 29 16 43 29 18 43 29 18 43 29 18 43 29 20 42 28 17 42 28 17 41 27 18 42 28 17 43 29 18 43 29 18 43 29 18 44 30 19 43 29 18 42 28 17 42 28 17 42 28 17 42 28 17 42 28 17 42 28 17 43 29 18 41 27 16 43 29 18 43 29 18 42 28 17 42 28 17 42 28 17 42 28 17 41 27 16 42 28 17 42 28 17 42 28 17 42 28 17 41 27 18 41 27 16 42 28 17 41 27 18 41 27 18 39 25 14 41 27 16 41 27 18 42 28 19 41 27 16 41 27 16 40 26 17 39 25 16 41 27 16 42 28 17 41 27 18 41 27 16 42 28 17 40 26 15 41 27 16 39 25 16 40 26 17 41 27 18 41 27 18 41 27 18 42 28 19 41 27 18 40 26 17 38 24 15 40 26 17 39 25 16 39 25 16 39 25 16 40 26 17 39 25 16 40 26 17 40 26 17 40 26 17 40 26 17 39 25 16 
43 29 18 43 29 18 43 29 18 44 30 19 43 29 18 43 29 18 43 29 18 44 30 19 45 31 20 43 29 18 43 29 20 43 29 20 43 29 18 44 30 19 43 29 20 42 28 17 42 28 19 42 28 17 43 29 18 45 31 20 44 30 21 43 29 20 43 29 20 43 29 18 43 29 16 43 29 18 44 30 19 43 29 18 43 29 18 42 28 19 43 29 18 43 29 18 44 30 21 43 29 18 43 29 18 43 29 18 42 28 17 43 29 18 43 29 18 43 29 18 43 29 18 42 28 17 43 29 18 43 29 18 43 29 18 42 28 17 43 29 18 42 28 17 43 29 18 42 28 17 41 27 16 42 28 17 42 28 17 42 28 17 41 27 16 42 28 17 42 28 17 41 27 16 42 28 17 42 28 17 41 27 18 42 28 17 41 27 16 41 27 18 41 27 18 41 27 16 41 27 16 41 27 18 41 27 18 41 27 16 41 27 16 41 27 18 41 27 18 41 27 16 40 26 15 40 26 17 41 27 16 40 26 15 41 27 16 41 27 16 39 25 16 38 24 15 40 26 17 40 26 17 41 27 18 40 26 17 41 27 18 39 25 16 39 25 16 39 25 16 39 25 16 38 24 15 41 27 18 40 26 17 40 26 17 39 25 16 39 25 16 39 25 16 39 25 16 37 23 14 
43 29 18 44 30 19 43 29 18 43 29 18 44 30 19 43 29 18 43 29 18 43 29 18 44 30 19 44 30 19 43 29 18 43 29 18 43 29 18 43 29 18 43 29 18 43 29 18 43 29 18 42 28 17 43 29 18 44 30 19 43 29 18 44 30 21 42 28 17 42 28 17 42 28 19 43 29 18 43 29 16 42 28 19 43 29 18 42 28 17 43 29 18 44 30 19 43 29 18 43 29 18 43 29 18 43 29 18 42 28 17 43 29 18 43 29 18 43 29 18 43 29 18 43 29 18 41 27 16 43 29 18 44 30 19 43 29 18 43 29 18 43 29 18 43 29 18 42 28 17 42 28 17 41 27 16 42 28 17 42 28 17 42 28 17 42 28 17 42 28 17 41 27 16 41 27 16 41 27 16 41 27 18 41 27 16 41 27 16 41 27 18 40 26 17 40 26 15 41 27 16 41 27 18 41 27 18 41 27 16 41 27 16 41 27 18 41 27 18 43 29 18 41 27 16 40 26 17 40 26 15 41 27 16 40 26 15 41 27 16 41 27 18 40 26 17 41 27 18 41 27 18 40 26 17 39 25 16 41 27 18 40 26 17 40 26 17 40 26 17 39 25 16 39 25 16 40 26 17 41 27 18 41 27 18 40 26 17 39 25 16 39 25 16 39 25 16 38 24 15 
43 29 18 43 29 18 43 29 18 43 29 18 44 30 19 43 29 18 43 29 18 43 29 18 43 29 18 43 29 20 43 29 20 43 29 20 43 29 18 43 29 18 44 30 19 45 31 20 43 29 18 42 28 17 44 30 19 43 29 18 42 28 17 43 29 18 44 30 19 42 28 19 43 29 18 44 30 19 43 29 18 44 30 21 43 29 18 42 28 17 42 28 17 43 29 18 43 29 18 42 28 17 42 28 17 42 28 17 42 28 17 42 28 17 42 28 17 43 29 18 42 28 17 42 28 17 42 28 17 43 29 18 42 28 17 43 29 18 42 28 17 42 28 17 43 29 18 43 29 18 42 28 17 42 28 17 42 28 17 42 28 17 43 29 18 41 27 16 41 27 16 42 28 17 42 28 17 40 26 15 41 27 18 41 27 16 41 27 16 41 27 18 42 28 19 41 27 16 41 27 16 41 27 18 42 28 17 41 27 18 41 27 18 41 27 16 42 28 17 42 28 19 41 27 18 41 27 16 41 27 16 41 27 16 40 26 15 39 25 14 40 26 17 40 26 17 41 27 18 40 26 17 40 26 17 40 26 17 41 27 18 40 26 17 39 25 16 40 26 17 39 25 16 40 26 17 41 27 18 40 26 17 38 24 15 38 24 15 39 25 16 40 26 17 40 26 17 39 25 16 
43 29 18 43 29 18 43 29 18 43 29 18 44 30 21 43 29 20 43 29 20 43 29 18 43 29 18 43 29 18 43 29 18 43 29 20 43 29 18 44 30 19 43 29 20 44 30 19 44 30 21 44 30 19 43 29 18 43 29 18 43 29 18 43 29 18 43 29 20 43 29 18 43 29 18 44 30 19 42 28 19 43 29 18 43 29 18 42 28 19 41 27 16 42 28 17 43 29 20 43 29 18 43 29 18 43 29 18 42 28 17 42 28 17 42 28 17 43 29 18 44 30 19 44 30 19 43 29 18 42 28 17 42 28 17 41 27 16 42 28 17 41 27 16 42 28 17 42 28 17 41 27 16 42 28 17 43 29 18 43 29 18 44 30 19 41 27 16 42 28 17 42 28 17 44 30 19 42 28 17 42 28 19 42 28 17 42 28 17 42 28 19 41 27 18 42 28 17 42 28 17 41 27 18 42 28 17 40 26 17 41 27 18 42 28 17 41 27 16 41 27 18 41 27 18 40 26 15 41 27 16 41 27 16 41 27 16 40 26 15 41 27 18 41 27 18 40 26 17 39 25 16 40 26 17 41 27 18 41 27 18 39 25 16 39 25 16 40 26 17 40 26 17 40 26 17 41 27 18 40 26 17 39 25 16 39 25 16 40 26 17 40 26 17 41 27 18 39 25 16 
43 29 18 43 29 18 43 29 18 43 29 20 44 30 19 44 30 19 44 30 19 43 29 18 43 29 18 43 29 18 43 29 18 44 30 21 44 30 19 44 30 19 43 29 20 43 29 18 43 29 20 44 30 19 44 30 19 43 29 18 43 29 18 44 30 21 43 29 20 43 29 18 44 30 19 43 29 18 43 29 18 42 28 19 43 29 18 43 29 18 43 29 18 43 29 20 43 29 18 43 29 18 43 29 20 43 29 18 43 29 18 43 29 18 42 28 17 43 29 18 43 29 18 42 28 17 43 29 18 42 28 17 42 28 17 42 28 17 42 28 17 42 28 17 41 27 16 42 28 17 43 29 18 42 28 17 43 29 18 42 28 17 43 29 18 42 28 17 42 28 17 42 28 17 42 28 17 42 28 17 42 28 19 42 28 17 41 27 16 41 27 18 41 27 18 41 27 16 41 27 16 41 27 18 42 28 17 41 27 18 41 27 18 42 28 17 42 28 17 41 27 18 41 27 18 41 27 16 40 26 15 41 27 16 40 26 15 40 26 15 40 26 17 41 27 18 40 26 17 41 27 18 40 26 17 40 26 17 40 26 17 40 26 17 40 26 17 39 25 16 40 26 17 40 26 17 40 26 17 40 26 17 40 26 17 40 26 17 39 25 16 40 26 17 39 25 16 40 26 17 
44 30 19 44 30 19 44 30 19 44 30 19 44 30 21 43 29 20 43 29 18 44 30 19 43 29 18 43 29 18 42 28 17 43 29 18 44 30 19 44 30 19 43 29 18 42 28 17 43 29 18 43 29 18 44 30 19 44 30 19 43 29 18 42 28 17 43 29 18 44 30 21 43 29 18 43 29 18 43 29 18 42 28 19 43 29 18 43 29 18 43 29 18 43 29 18 43 29 18 43 29 18 42 28 17 42 28 17 42 28 17 43 29 18 43 29 18 42 28 17 43 29 18 42 28 17 43 29 18 43 29 18 42 28 17 43 29 18 42 28 17 42 28 17 41 27 16 41 27 16 42 28 17 42 28 17 42 28 17 43 29 18 42 28 17 43 29 18 43 29 18 42 28 17 41 27 16 41 27 16 41 27 18 41 27 16 41 27 16 42 28 19 41 27 18 41 27 16 41 27 16 41 27 18 41 27 16 41 27 18 41 27 18 41 27 16 42 28 17 40 26 17 40 26 17 40 26 15 40 26 15 41 27 16 41 27 16 42 28 17 41 27 18 41 27 18 40 26 17 40 26 17 41 27 18 40 26 17 40 26 17 41 27 18 40 26 17 40 26 17 40 26 17 40 26 17 39 25 16 40 26 17 41 27 18 41 27 18 40 26 17 39 25 16 40 26 17 39 25 16 
