P3
100 50
255
50 25 20 50 25 18 49 26 20 49 26 20 46 26 19 46 23 17 45 25 18 47 24 18 42 22 15 48 24 20 48 25 19 49 26 20 49 26 20 44 24 17 42 23 16 42 23 17 43 24 18 45 25 18 44 24 15 44 25 11 54 32 18 69 50 33 84 67 49 92 73 56 92 76 60 93 77 62 92 75 57 93 72 51 86 61 39 74 49 27 61 34 15 56 27 11 54 24 13 58 28 17 59 31 20 60 30 20 60 30 19 58 32 19 58 32 17 63 36 19 75 46 28 84 53 33 84 56 35 85 57 36 84 55 37 71 42 26 54 26 12 55 26 12 53 25 14 54 26 15 53 25 14 55 27 16 56 28 17 57 29 18 58 28 17 61 29 18 61 29 18 60 28 15 57 24 15 55 25 15 53 24 16 53 24 16 53 22 17 52 23 15 56 26 16 56 26 16 57 28 20 55 26 18 49 25 15 48 23 16 51 27 17 53 26 15 57 27 16 63 31 20 66 32 20 61 32 18 57 27 17 54 24 13 55 27 15 56 28 17 54 27 16 55 26 18 56 28 17 53 25 14 55 25 15 59 30 16 64 31 12 73 38 18 79 45 20 85 49 23 88 54 27 87 57 29 90 60 34 90 63 36 90 64 39 94 68 45 91 69 45 92 72 48 91 73 51 93 75 55 
49 24 19 49 24 17 50 25 18 48 25 17 49 26 18 48 25 17 49 26 20 48 25 19 45 22 16 46 23 17 48 25 19 48 25 19 48 25 19 47 24 18 43 23 16 41 22 16 42 23 17 46 23 17 46 26 17 43 23 12 48 26 13 55 34 17 71 54 36 86 67 50 91 75 59 93 77 61 93 76 60 92 74 54 90 68 47 82 57 35 71 44 23 60 31 13 60 28 15 62 30 17 64 32 21 62 30 19 64 32 21 61 31 20 62 33 19 68 39 25 78 51 34 86 55 37 84 57 36 86 58 37 84 55 39 70 41 25 54 26 12 55 26 12 57 27 16 57 27 16 59 27 14 58 28 17 58 28 17 60 28 17 63 31 18 67 31 19 63 29 17 62 29 14 61 27 18 60 27 18 57 27 17 56 26 18 56 26 18 52 22 14 52 22 14 54 24 16 55 27 16 55 25 17 48 23 16 50 23 16 52 25 16 54 26 15 59 29 18 63 31 18 63 31 18 64 30 18 60 31 17 58 29 13 55 27 15 53 25 14 52 24 13 51 22 14 52 25 14 53 23 13 53 25 14 55 25 14 63 30 13 70 35 15 74 39 17 80 44 18 84 50 23 87 56 28 90 58 33 90 60 34 90 63 36 92 66 41 91 69 45 91 70 49 91 73 51 92 73 56 
50 25 18 49 24 17 48 25 17 49 24 17 49 26 18 49 26 18 49 26 20 49 26 20 47 24 16 50 26 16 49 24 17 47 24 16 47 24 18 46 23 17 44 24 17 44 24 17 45 22 16 45 25 18 48 25 17 46 23 15 44 25 11 50 28 14 65 42 28 80 61 46 88 71 55 92 76 60 93 77 61 93 74 59 90 71 54 88 63 43 79 53 30 69 38 18 62 30 17 64 32 19 64 32 21 65 31 19 65 33 20 65 31 21 65 33 18 70 41 23 81 52 34 85 56 38 86 57 39 86 57 39 86 57 39 69 40 24 55 27 13 58 29 15 58 28 17 61 29 18 62 28 18 61 29 16 62 30 17 62 30 17 65 31 19 66 33 16 65 32 17 66 30 16 64 30 18 63 29 19 59 27 16 59 26 17 58 25 18 55 22 15 55 22 15 52 22 14 54 24 14 53 25 14 50 23 16 48 23 16 49 25 15 56 28 17 59 29 18 62 30 17 62 30 17 62 30 15 65 31 19 60 31 17 56 28 16 53 25 14 52 24 13 49 22 15 50 23 14 52 25 14 51 24 13 55 27 15 61 29 14 67 32 13 71 36 14 76 40 18 82 48 21 87 53 26 89 58 30 91 60 32 91 61 35 90 64 37 92 68 44 92 70 47 92 72 48 93 72 51 
52 28 18 51 27 17 49 24 17 49 24 17 50 25 18 52 28 18 51 27 17 51 27 17 51 27 17 53 29 19 51 26 19 48 25 17 48 23 16 49 26 18 50 27 21 49 26 20 49 24 19 49 24 17 50 25 18 48 25 17 48 26 15 48 26 13 51 30 13 71 49 35 84 65 50 91 74 56 93 77 61 93 78 59 93 76 58 92 71 52 86 64 43 76 47 29 67 35 20 65 33 20 66 32 20 65 33 20 68 35 20 68 35 18 71 38 21 76 45 27 83 54 36 86 57 39 88 59 41 88 59 41 88 56 43 67 38 22 59 30 14 62 30 17 63 31 16 64 32 17 67 31 17 66 30 16 66 30 14 64 31 16 67 31 15 67 31 15 70 31 16 69 32 16 70 33 17 66 30 16 61 27 15 60 26 16 58 25 16 57 24 15 53 23 13 53 23 13 55 25 15 55 25 17 52 25 16 52 23 15 55 25 15 58 28 17 61 29 16 62 30 17 63 31 18 63 31 18 66 33 18 62 30 17 58 28 17 56 28 17 55 26 18 52 25 16 49 22 11 52 25 14 53 25 14 55 27 15 61 29 14 64 33 13 69 34 14 72 37 15 77 41 17 84 50 25 90 56 29 89 58 30 91 60 32 92 62 36 92 66 41 93 69 45 92 70 47 92 71 50 
56 29 20 57 30 21 56 29 20 52 25 16 53 26 17 55 28 19 55 28 19 53 26 17 53 26 17 56 29 20 50 26 16 50 25 20 49 24 17 52 27 20 54 29 22 52 27 22 52 27 20 53 25 21 53 26 19 51 26 19 52 27 20 51 27 17 51 27 15 58 35 19 73 52 35 85 66 49 93 76 58 91 78 62 93 77 61 92 73 56 91 70 51 88 63 43 70 41 25 66 35 15 65 32 17 68 35 20 72 36 20 69 36 19 74 41 24 81 48 31 85 56 38 89 58 40 91 60 42 90 61 43 82 54 33 69 36 19 61 29 14 64 31 16 65 32 17 68 30 17 68 31 15 67 30 14 68 31 15 66 30 14 66 31 12 69 32 14 71 34 16 74 35 18 69 32 16 67 28 13 66 30 16 64 28 16 62 28 16 59 27 16 57 25 12 59 27 16 57 27 17 57 27 17 54 26 15 54 26 15 55 25 15 57 27 16 60 28 15 61 29 14 63 31 16 65 33 20 65 33 18 63 30 15 59 27 14 57 27 16 57 29 18 55 27 16 58 30 18 56 28 16 56 28 16 57 28 14 57 28 12 64 31 16 67 34 15 70 35 15 73 37 13 80 42 19 85 51 24 88 54 27 89 58 30 92 62 34 91 64 37 90 64 41 91 67 43 93 68 46 
58 31 22 57 30 19 58 30 19 58 30 19 60 31 23 59 31 20 57 30 19 55 28 17 54 27 16 55 28 19 55 28 19 54 25 19 50 26 16 52 27 20 51 26 19 53 26 19 51 26 19 54 27 18 55 26 18 55 28 19 56 29 20 56 29 20 55 27 15 57 29 15 64 38 23 75 54 35 89 71 51 94 77 59 91 78 61 93 76 58 93 74 57 91 70 53 84 59 39 75 46 28 70 39 21 69 33 17 69 36 19 68 35 18 75 42 25 85 52 35 89 57 42 89 58 40 90 62 41 89 58 38 83 52 32 66 35 15 67 34 17 67 31 15 68 33 14 67 31 15 69 32 14 68 33 14 69 32 14 68 33 14 70 33 15 71 32 15 69 32 14 70 33 15 69 32 16 68 31 15 67 30 14 67 30 14 66 30 16 62 28 16 61 27 15 60 28 17 60 28 17 61 29 16 60 26 16 57 27 16 57 24 15 59 27 14 60 28 15 62 29 14 65 32 17 66 34 19 64 32 19 61 29 16 61 29 16 59 29 18 58 28 17 58 28 17 59 31 19 58 30 18 57 29 17 58 29 15 60 28 13 63 30 13 66 33 14 69 37 16 73 38 16 79 43 19 82 46 20 83 49 22 89 55 28 91 60 32 92 62 36 91 65 40 90 66 42 89 67 44 
59 31 20 59 31 20 60 30 20 59 31 20 61 31 23 60 32 21 60 32 21 57 30 19 57 29 18 57 30 19 57 30 19 55 28 19 55 28 19 53 26 15 51 24 15 53 26 19 54 27 18 53 26 17 55 25 17 56 28 17 58 30 19 59 31 20 61 29 18 57 28 14 61 34 17 67 45 22 79 58 37 92 75 57 92 77 58 90 77 60 92 76 61 91 73 59 90 67 49 84 57 38 75 46 28 69 38 18 67 34 15 70 37 20 77 44 27 83 50 31 87 58 42 89 58 40 92 61 41 87 59 38 82 51 30 70 38 17 71 35 19 72 35 19 72 35 17 72 33 16 71 34 15 72 33 16 71 34 15 71 34 15 72 34 15 69 30 13 70 31 14 72 30 14 70 31 16 70 31 14 71 34 16 71 34 16 68 32 16 65 32 17 63 30 15 63 30 15 64 31 16 66 30 18 61 29 16 60 26 16 59 27 14 59 27 14 62 29 14 63 30 15 66 33 18 65 32 17 63 31 18 59 27 16 61 29 18 59 29 18 59 29 18 57 27 16 55 27 16 56 28 16 59 29 18 60 31 17 64 32 17 65 34 16 70 33 15 72 35 16 74 38 16 78 42 18 80 44 18 81 47 19 87 53 26 89 58 30 91 61 35 92 64 40 91 65 42 93 68 46 
58 30 19 59 29 19 59 29 19 61 31 21 61 31 21 59 31 19 60 32 20 60 32 20 59 31 20 58 30 19 58 30 19 56 29 18 55 26 18 53 26 17 54 27 18 54 25 17 54 27 18 54 27 18 56 27 19 57 29 18 58 28 18 58 30 18 60 30 19 59 30 16 59 32 15 65 38 19 73 50 32 87 69 49 89 74 55 92 76 60 92 76 61 93 77 62 92 71 54 87 65 44 83 54 36 75 44 26 68 37 17 72 39 20 77 44 25 85 52 35 86 57 39 89 58 40 90 62 40 89 58 37 81 50 30 70 37 18 73 38 19 72 35 17 73 36 18 74 36 17 72 34 15 74 36 17 73 35 16 73 35 16 73 35 16 70 31 14 68 31 13 68 31 13 69 30 15 71 32 15 71 32 15 72 33 16 72 33 16 69 34 15 65 32 15 64 31 14 67 31 17 64 31 16 63 29 17 61 27 15 60 28 13 61 29 14 64 31 16 65 32 17 65 34 16 64 31 16 63 29 17 58 26 15 60 28 17 58 28 17 58 28 18 56 26 15 53 25 14 56 26 15 58 28 17 61 32 18 64 32 17 66 35 17 68 35 16 71 36 16 75 39 17 77 41 15 78 42 16 81 45 19 85 51 24 89 55 27 90 58 33 91 64 37 90 64 39 90 68 44 
60 30 19 62 32 21 61 31 20 60 32 20 58 30 18 59 29 18 59 29 18 60 32 20 59 31 19 58 30 19 58 30 19 58 30 19 58 30 19 57 29 18 56 28 17 55 27 16 57 27 17 58 28 18 57 27 17 59 29 19 60 30 19 59 31 19 61 32 18 61 32 18 60 31 17 61 33 19 65 39 22 82 60 37 89 68 47 92 75 59 91 78 62 91 78 62 91 74 58 91 70 53 89 64 44 81 56 34 68 40 18 74 41 22 78 47 29 83 52 32 88 57 39 89 58 38 90 59 39 87 56 35 79 46 27 70 35 16 73 36 18 74 37 19 75 38 20 76 38 19 76 38 19 74 37 18 73 36 17 73 35 16 71 33 14 69 32 14 69 30 13 68 29 12 67 28 11 69 30 15 73 31 15 71 32 15 71 32 15 71 32 15 70 35 16 70 35 16 69 33 17 67 34 19 64 30 18 61 29 16 62 29 14 65 32 15 67 34 17 69 33 17 67 31 15 65 32 17 59 27 14 55 25 15 56 26 15 57 26 21 55 26 18 54 24 16 54 25 17 54 26 15 56 28 16 60 31 17 65 34 16 67 36 18 69 36 17 74 39 17 76 42 17 77 41 15 78 42 16 80 45 17 83 48 20 87 52 24 89 57 32 89 62 35 89 63 38 91 67 43 
60 30 19 62 32 21 62 32 21 62 32 21 62 32 21 62 32 21 60 30 19 61 31 20 60 30 19 59 29 19 61 31 21 59 31 19 60 32 21 58 30 19 56 28 17 57 29 18 56 29 18 58 30 19 59 29 19 60 30 20 61 31 20 61 31 20 60 31 17 64 35 21 63 34 20 64 32 19 62 33 17 70 43 26 80 58 37 90 69 52 92 75 59 92 76 61 92 74 60 93 74 60 93 72 55 88 66 45 82 55 34 78 50 29 82 50 35 84 53 33 87 56 35 90 60 36 89 58 38 83 52 31 77 44 25 72 37 18 74 37 19 76 39 20 77 40 21 79 42 23 79 43 21 77 39 18 76 38 17 73 35 14 70 32 13 67 28 11 68 29 12 67 30 12 66 27 12 69 30 15 70 33 14 73 36 17 75 37 18 72 35 16 73 36 17 72 35 16 72 35 16 71 36 17 65 29 13 61 28 13 65 32 17 68 32 18 69 32 16 71 35 19 70 34 18 64 31 16 59 27 16 53 25 14 52 23 15 52 23 17 51 22 16 50 21 15 51 22 16 51 22 16 55 25 15 59 29 18 64 32 19 68 35 18 72 39 20 76 41 19 78 44 17 81 45 21 82 47 19 84 47 20 83 46 17 86 49 22 87 53 26 89 59 33 90 62 38 91 65 40 
63 31 20 62 32 21 63 33 22 65 33 22 67 35 24 67 35 24 64 35 21 63 33 22 62 32 21 60 30 19 60 30 20 60 30 20 59 31 20 58 30 19 56 28 17 56 28 17 57 29 18 58 30 19 60 30 19 60 30 20 59 29 18 61 31 20 63 34 20 66 34 21 67 33 21 70 37 22 66 34 19 67 38 22 78 49 31 86 60 43 89 70 53 93 77 61 92 76 63 93 75 63 91 73 59 91 70 53 87 65 44 80 53 32 81 53 32 85 54 34 88 57 36 90 59 38 89 57 36 84 52 31 75 43 22 71 36 16 78 41 22 77 40 21 79 43 21 80 44 22 77 39 18 75 37 16 74 36 15 73 35 16 71 33 14 70 32 13 68 31 13 68 29 12 67 28 11 69 32 14 72 35 16 73 35 16 73 35 16 75 37 16 75 37 16 75 37 16 73 37 15 75 38 19 71 34 16 70 33 15 69 34 15 69 34 15 69 34 15 73 36 18 69 34 15 65 32 13 59 27 14 57 25 14 54 25 17 52 23 17 51 22 18 47 22 17 51 22 18 52 23 17 53 23 13 57 27 16 62 30 17 68 37 19 71 38 19 75 40 18 78 44 19 82 45 19 84 49 21 85 48 21 86 47 18 86 49 20 87 52 24 88 57 29 89 59 33 89 61 37 
64 32 21 65 32 23 64 32 21 64 32 21 67 35 22 68 36 23 67 35 24 66 34 21 63 34 20 62 32 21 61 31 20 61 31 20 62 32 21 58 30 19 56 28 17 57 29 18 58 28 18 59 29 19 59 29 19 60 30 20 60 30 19 61 31 20 64 32 21 66 34 21 67 35 20 68 36 21 67 36 18 70 37 20 73 41 26 78 53 33 87 64 46 93 72 55 92 74 62 92 76 63 90 74 59 92 73 58 91 70 51 84 59 39 84 58 35 85 58 37 86 58 36 90 59 38 89 57 36 83 51 30 78 43 23 75 40 20 77 40 21 79 42 23 80 44 22 82 44 23 77 39 18 73 35 14 75 37 16 74 36 15 73 35 16 71 32 15 74 32 16 70 31 14 70 31 14 71 33 14 73 37 15 74 36 15 77 36 16 77 39 16 77 39 18 76 38 17 76 38 17 77 39 18 77 39 20 73 36 17 71 34 15 72 35 16 74 37 18 74 37 19 72 35 17 67 31 15 60 31 17 57 27 16 54 26 15 52 23 15 49 22 15 48 20 16 48 23 18 50 23 16 54 24 14 54 26 15 57 28 14 66 34 19 69 36 17 74 39 17 76 42 17 81 45 19 83 48 20 86 49 20 85 48 19 85 48 19 87 52 24 88 54 27 88 57 29 90 60 34 
65 32 23 66 34 21 65 33 22 65 33 22 66 34 21 68 34 22 67 35 22 67 35 22 67 35 22 65 33 22 61 31 20 61 31 20 63 33 22 60 30 20 57 29 18 58 30 19 59 31 20 61 31 20 63 33 22 63 33 22 62 32 21 62 33 19 65 33 20 65 33 20 64 32 17 67 36 16 68 36 21 71 38 21 70 37 20 74 45 27 83 56 37 90 67 49 91 73 59 91 75 62 92 76 63 91 75 60 92 73 58 88 65 47 86 61 41 87 60 39 86 59 38 89 58 37 89 57 36 84 52 31 79 44 24 78 42 20 77 41 19 80 44 22 80 44 22 82 44 23 77 39 18 76 38 17 76 38 17 76 38 17 73 35 16 73 35 16 72 34 15 73 35 16 72 34 15 73 35 16 73 37 15 78 37 17 79 36 17 81 40 18 79 41 18 79 38 16 79 38 16 82 39 20 79 41 20 76 38 17 75 37 16 75 37 16 76 38 17 75 37 18 73 36 18 71 36 17 65 32 17 62 30 19 55 27 16 54 26 15 52 23 17 49 22 15 49 22 15 52 23 17 53 24 16 54 26 15 54 24 13 61 29 16 64 33 13 72 37 17 77 43 18 83 48 20 85 48 19 86 49 20 86 49 20 84 49 19 87 52 24 84 53 24 85 54 26 87 55 30 
66 34 21 65 33 22 65 33 20 68 34 22 68 34 22 69 35 23 67 35 22 66 34 21 66 34 21 65 33 22 64 32 21 62 32 21 62 32 21 60 30 19 59 29 19 61 31 21 62 32 21 63 34 20 65 33 22 65 33 20 66 34 21 65 33 20 64 32 19 66 34 19 66 33 18 69 33 19 67 34 17 70 38 23 69 36 19 71 40 20 78 47 27 86 59 40 94 71 57 92 76 61 92 78 65 91 77 66 93 75 61 91 72 57 90 69 52 90 65 45 88 61 42 86 58 37 86 55 34 85 53 30 83 47 25 80 44 22 77 42 20 78 42 20 80 42 19 80 42 19 77 39 18 75 37 18 76 38 17 76 38 17 74 36 15 73 34 17 73 35 16 73 37 15 74 36 17 74 36 17 75 37 16 76 38 17 81 40 18 82 42 17 83 43 18 83 43 18 84 42 18 82 41 19 82 41 19 81 40 18 82 41 19 80 39 17 81 40 18 75 37 14 74 36 15 74 36 17 70 34 18 64 31 16 58 28 17 52 24 13 51 22 16 52 23 17 53 24 18 54 25 17 55 27 16 56 28 17 55 25 14 59 27 14 62 31 13 69 37 16 77 43 18 84 49 21 87 48 19 87 50 21 86 51 21 87 52 24 86 52 24 85 54 26 87 53 26 87 53 26 
67 35 22 66 34 23 66 34 21 69 35 23 70 38 27 70 36 24 68 36 23 67 35 24 65 33 18 65 33 22 66 34 23 65 33 18 64 35 21 62 32 21 59 29 18 61 29 18 63 31 20 65 33 20 66 34 21 65 33 20 66 34 21 65 33 20 63 31 18 70 37 22 67 34 19 65 32 17 67 31 15 72 36 22 72 39 22 73 40 21 76 43 24 80 51 33 90 67 53 90 71 56 93 77 62 92 78 69 93 77 62 93 75 61 90 73 57 92 69 53 91 65 48 88 61 40 88 57 36 84 52 29 80 48 25 82 46 22 79 43 19 80 44 22 81 43 20 81 43 20 78 40 17 78 40 17 77 39 16 77 39 18 74 36 15 73 34 17 72 34 13 73 35 14 74 36 17 76 38 17 77 39 16 79 38 16 80 39 17 83 43 18 83 43 18 83 43 18 84 42 18 84 42 18 85 45 20 83 43 18 83 43 18 82 42 17 82 42 17 82 40 18 80 37 18 76 38 19 71 34 16 64 31 16 59 27 16 54 24 13 53 23 15 52 23 15 56 26 18 54 24 14 57 27 16 60 28 17 61 29 16 61 29 14 64 31 14 67 34 15 74 42 19 82 46 20 86 51 23 87 52 22 87 52 24 88 53 25 90 56 28 88 57 29 87 56 28 85 54 26 
67 35 24 66 34 21 66 34 23 68 36 25 70 38 25 69 35 25 67 35 24 68 36 23 66 34 21 66 34 23 65 33 22 65 33 20 65 33 20 61 31 20 61 31 20 60 32 20 61 31 20 62 33 19 65 33 20 67 35 22 66 34 21 67 33 21 66 32 20 68 35 20 69 36 21 68 35 18 71 35 19 71 38 19 75 39 23 78 45 28 78 45 26 79 48 28 86 61 41 90 67 51 91 74 58 91 75 62 92 76 63 93 77 62 91 75 60 90 71 56 93 67 50 91 64 45 88 57 37 86 54 33 81 51 25 82 48 23 82 46 20 83 45 22 82 46 20 83 45 22 81 43 20 80 42 19 78 40 17 80 40 15 79 38 16 77 39 16 78 37 17 78 37 17 79 38 18 80 39 17 81 41 16 85 44 22 84 43 21 84 44 18 83 43 18 83 43 18 84 44 19 84 44 19 85 45 20 86 46 21 87 47 22 87 47 22 86 46 21 82 42 17 80 39 17 78 37 17 75 34 14 69 32 16 61 28 13 58 26 15 56 26 15 58 26 13 59 27 14 60 28 15 64 31 16 66 33 16 65 32 17 64 31 14 63 30 13 64 31 12 69 37 16 77 41 17 84 48 22 87 53 26 88 54 26 88 57 28 91 57 29 88 57 29 88 57 29 88 57 29 
66 34 21 67 35 22 64 36 22 70 36 24 70 36 24 69 35 23 68 36 23 70 36 24 67 35 22 64 35 21 65 33 20 63 34 20 66 34 23 64 34 23 63 33 22 64 32 21 63 34 20 65 33 18 65 33 20 67 35 22 67 33 21 67 34 19 67 34 17 68 35 20 70 34 20 70 36 24 74 38 22 77 42 23 80 45 25 81 46 27 80 47 28 79 48 28 82 55 34 89 62 43 89 70 53 91 73 59 92 76 63 91 77 64 92 76 61 90 72 58 92 69 53 89 62 43 90 59 38 88 57 36 83 51 28 84 48 24 83 47 21 84 46 23 82 44 21 83 45 22 80 42 19 81 43 20 80 42 19 79 41 18 80 39 17 81 40 18 79 42 16 81 41 16 79 42 16 81 41 16 85 43 19 86 46 21 87 47 22 85 45 20 84 44 19 84 44 19 84 44 19 85 45 20 87 45 21 87 46 24 89 47 23 87 47 21 87 47 21 82 42 17 82 40 16 79 38 16 75 37 18 70 33 17 64 31 14 60 28 13 61 27 15 57 28 14 61 28 13 65 32 15 71 34 16 72 37 17 70 35 16 67 34 15 66 30 14 64 31 12 67 34 15 73 41 18 82 48 23 86 52 25 89 55 28 89 58 29 89 58 30 89 58 30 89 57 32 87 60 33 
69 37 24 68 36 23 69 37 24 70 38 25 69 40 26 69 35 23 67 35 22 67 38 24 69 37 24 66 34 21 61 32 18 65 33 22 65 36 22 67 35 24 64 32 19 65 33 20 66 34 21 66 34 21 67 35 22 68 36 21 70 37 22 70 37 22 70 37 22 68 35 20 69 36 21 71 35 21 76 40 24 80 45 26 82 47 28 82 47 28 82 50 29 81 50 29 80 52 31 85 58 39 88 67 46 90 71 56 92 74 60 91 78 62 93 77 62 90 72 58 90 68 54 90 65 45 90 62 41 88 57 36 85 53 30 85 49 25 84 48 22 84 47 21 85 48 22 86 48 25 84 47 21 84 47 21 84 47 21 80 43 16 80 43 17 83 43 18 83 43 18 82 42 17 82 42 17 84 44 19 84 44 19 87 47 22 86 46 21 85 45 20 84 44 18 84 44 18 86 46 20 83 46 19 86 46 20 87 47 21 86 49 22 88 49 20 88 48 22 84 44 19 83 41 17 80 39 17 77 36 18 70 33 15 68 33 14 64 31 14 63 30 13 60 28 13 63 30 13 69 34 15 74 37 18 78 40 19 75 39 17 72 37 15 69 34 15 65 32 15 69 34 15 74 38 16 81 47 22 86 52 25 88 57 29 91 60 32 93 61 36 91 61 35 90 60 34 89 59 33 
70 38 25 69 37 24 68 39 25 73 39 27 71 39 26 70 38 25 68 36 23 68 36 23 66 37 23 65 33 22 62 32 21 66 34 21 66 36 25 67 35 22 65 33 20 65 36 22 67 35 22 68 36 23 66 34 21 67 35 20 70 37 22 71 38 23 71 35 21 72 36 22 73 37 21 75 38 22 77 41 25 80 45 26 83 48 29 84 49 29 85 50 30 84 52 31 83 52 31 85 54 34 85 60 40 90 67 49 91 72 57 92 75 59 92 74 60 91 72 58 92 73 58 92 69 53 92 65 46 90 62 38 86 54 31 87 51 25 86 50 24 86 49 23 87 50 24 89 52 26 88 51 25 86 49 23 85 48 22 82 45 19 85 45 19 85 45 19 86 46 20 86 44 19 85 45 19 87 45 20 88 46 21 87 47 21 88 46 21 87 47 21 87 47 21 87 47 21 87 47 21 88 48 22 87 47 21 89 49 23 89 49 23 89 49 23 88 48 22 87 46 18 86 44 19 83 43 17 79 39 14 73 35 12 70 34 12 68 33 13 65 33 12 66 34 13 69 34 12 74 40 15 78 42 16 81 46 18 81 46 18 78 44 17 75 41 16 72 38 13 69 34 12 76 40 16 80 46 21 86 52 25 90 56 29 90 59 31 90 63 36 94 64 40 92 62 38 89 61 37 
68 39 25 69 37 24 70 38 25 69 37 24 69 37 24 69 35 23 68 36 23 67 35 22 65 35 24 66 34 21 66 34 23 65 35 24 68 36 23 68 36 23 67 35 22 68 36 23 68 36 23 69 37 24 68 36 21 71 38 23 71 38 23 73 37 21 71 38 23 73 37 21 74 38 22 76 40 24 78 43 24 79 44 25 81 46 26 83 48 28 85 50 30 85 53 32 85 53 30 84 53 32 85 58 37 87 60 41 89 66 50 89 70 55 90 71 56 91 73 61 91 73 59 92 70 56 92 67 47 91 63 42 89 57 34 87 53 28 89 52 26 88 52 26 88 51 24 89 52 25 89 52 25 87 50 23 86 49 22 88 48 22 87 47 21 88 46 21 88 49 20 85 48 19 85 48 19 88 48 22 89 49 23 88 48 22 89 49 23 88 48 22 89 49 23 90 48 23 89 49 23 89 49 23 87 50 23 89 49 23 90 50 24 90 50 24 90 49 21 87 47 21 89 45 18 84 44 18 80 40 15 74 36 13 72 36 10 71 35 13 70 35 13 72 36 14 74 36 13 78 42 16 81 45 19 85 50 22 86 49 20 83 48 20 81 46 18 74 40 13 72 38 13 74 40 15 80 46 19 85 51 24 87 56 28 90 59 31 92 62 38 90 62 38 91 63 39 91 63 41 
70 38 25 69 37 24 70 38 25 70 38 25 70 38 25 69 37 24 67 38 24 66 37 23 68 36 25 65 35 24 68 36 23 68 36 21 68 36 23 69 37 24 70 38 23 70 38 25 69 37 22 69 37 22 71 38 23 72 39 24 72 39 24 73 40 23 76 39 23 75 39 23 75 39 23 74 41 22 76 43 24 79 44 24 80 48 27 83 51 30 86 51 31 84 52 31 85 53 30 84 53 32 85 54 34 83 55 34 86 59 40 88 65 49 90 68 54 92 75 59 92 74 60 91 72 57 92 69 51 92 66 43 90 59 38 87 55 30 90 53 27 89 53 27 88 53 25 88 53 25 91 51 25 90 53 26 91 51 25 90 50 24 88 51 24 89 49 23 89 50 21 89 50 21 90 51 22 91 50 22 89 49 23 87 52 24 88 51 24 88 51 24 90 50 24 90 53 26 91 51 25 89 52 25 89 49 23 87 50 21 90 51 22 90 51 22 89 50 21 86 47 18 87 48 19 84 45 16 83 43 17 76 39 13 74 37 10 72 36 12 74 38 14 74 38 14 76 40 14 80 45 15 83 48 20 86 51 21 89 53 21 85 50 20 83 48 20 78 42 16 75 39 15 74 40 13 80 46 19 84 50 22 87 56 28 92 61 33 95 60 38 90 62 38 92 64 42 92 64 40 
71 39 26 71 39 26 71 39 26 73 41 28 71 39 26 70 38 25 70 38 25 67 38 24 66 37 23 65 36 22 69 37 24 69 37 26 69 37 24 69 37 24 72 40 27 71 39 24 71 38 23 71 38 23 72 39 24 72 40 25 72 39 24 74 38 22 74 41 24 77 42 23 77 41 25 73 42 22 75 42 23 80 45 25 80 48 27 83 51 30 86 51 31 84 52 31 83 53 29 86 51 29 83 51 28 82 50 27 81 53 32 89 64 44 89 66 50 90 71 56 91 73 59 91 72 57 92 69 51 91 65 48 91 60 39 89 57 32 90 56 29 91 55 29 91 55 29 88 53 25 89 54 26 90 55 27 91 56 28 90 55 27 90 53 26 89 52 25 89 52 25 89 52 25 89 52 25 90 53 26 90 53 26 90 53 26 89 52 25 89 54 26 90 53 26 90 53 26 91 54 27 89 52 25 88 51 24 89 52 23 90 51 22 90 51 22 87 51 19 86 47 16 86 47 16 85 46 15 83 44 15 82 43 14 76 39 12 76 39 13 77 40 13 78 42 16 79 43 17 82 47 19 86 51 21 87 52 22 90 54 22 88 53 21 84 49 19 81 46 18 76 41 13 77 41 15 81 44 18 82 48 21 88 54 26 90 59 31 92 62 34 91 63 39 92 64 42 90 66 42 
70 38 25 69 40 26 73 41 28 73 41 28 73 41 28 71 39 26 71 39 26 70 38 25 68 36 23 67 35 22 69 37 26 70 38 25 69 37 26 69 37 24 71 37 25 72 38 26 71 38 23 72 39 24 72 39 24 72 39 22 70 39 21 72 39 22 74 38 22 78 42 26 78 42 26 74 41 24 75 40 21 79 42 26 80 45 25 84 49 29 86 51 31 83 51 30 84 52 29 83 51 30 82 50 27 81 49 26 81 50 29 86 59 40 90 64 47 91 70 53 90 71 56 92 70 56 92 69 51 91 66 46 91 63 41 90 60 36 90 58 33 92 58 31 91 57 30 91 54 27 90 56 29 92 56 30 91 57 29 92 57 29 91 56 28 91 54 27 90 55 27 90 55 27 91 54 27 91 56 28 90 55 27 91 54 27 91 56 28 90 55 27 91 54 25 90 55 27 92 55 28 89 54 26 89 54 26 89 52 23 91 52 23 88 51 22 90 51 20 85 48 19 87 48 19 86 45 17 86 45 17 82 42 16 81 42 13 80 40 15 83 43 17 79 44 16 82 47 19 86 51 21 87 52 22 89 54 24 91 55 23 90 54 22 86 51 19 82 47 17 80 43 16 75 39 13 78 42 16 81 45 19 86 52 25 88 57 29 91 61 35 90 64 39 91 65 42 91 65 42 
70 38 25 71 39 26 72 40 27 72 40 27 71 39 26 69 40 26 69 40 26 69 40 26 67 38 24 67 35 22 68 36 23 69 37 24 70 38 25 70 38 25 71 39 26 71 39 26 72 39 24 73 40 25 73 40 25 72 39 22 73 40 23 74 41 24 74 41 24 79 43 27 79 43 27 77 45 24 76 41 22 75 40 21 78 43 24 81 46 26 82 47 27 80 48 27 82 50 27 84 49 27 83 51 28 85 50 28 83 51 30 85 56 40 89 62 45 90 67 51 91 69 55 92 69 53 92 69 53 93 68 48 92 65 44 92 61 40 89 61 37 91 59 34 90 59 31 89 58 30 92 58 31 93 59 32 93 59 32 94 60 33 91 57 30 91 57 30 92 58 31 91 57 30 92 56 30 91 57 30 91 57 30 92 56 30 89 58 30 91 57 30 91 56 28 92 57 29 92 58 30 91 56 28 90 55 25 90 55 25 91 54 25 89 52 23 91 52 21 89 50 21 89 48 18 88 47 17 87 46 16 85 44 16 82 43 14 82 42 16 85 45 19 83 46 17 85 48 19 89 52 23 89 56 25 91 56 24 92 57 25 92 56 24 89 52 23 87 50 21 82 45 16 80 40 15 75 41 13 79 45 17 86 51 21 90 57 26 93 61 36 92 64 40 91 65 42 91 65 42 
71 39 26 71 37 25 71 39 26 71 37 25 71 39 24 70 38 25 71 41 30 72 40 27 71 39 26 68 36 25 69 37 26 69 37 24 70 38 25 72 38 26 73 40 25 72 39 24 71 38 23 73 40 25 71 38 21 72 39 22 75 39 23 77 41 25 76 43 26 78 42 26 76 43 26 76 43 24 75 42 23 78 43 24 78 43 24 79 46 27 81 46 26 82 47 27 83 48 28 84 49 27 82 50 27 83 51 28 83 52 31 86 55 35 86 59 40 90 64 49 91 68 50 93 67 52 92 69 51 91 69 48 92 67 45 92 65 44 90 64 41 88 60 38 89 59 35 89 59 35 92 60 35 91 59 34 92 60 35 91 61 35 91 61 33 90 60 34 92 60 35 92 62 36 93 62 34 91 60 32 90 58 33 89 58 30 90 58 33 89 58 30 91 57 32 90 57 26 90 56 28 91 57 30 92 57 27 91 56 26 92 57 27 90 55 23 90 54 22 91 50 20 86 50 18 86 47 16 85 44 16 85 44 14 85 46 17 85 46 17 85 48 19 86 49 20 86 49 20 89 54 24 92 57 27 92 59 28 91 58 27 92 57 27 91 54 25 88 51 22 85 48 19 80 43 17 77 41 15 78 43 15 82 47 17 82 51 22 90 59 31 92 62 38 92 64 42 93 66 39 
71 39 26 70 38 25 71 39 26 73 39 27 71 39 26 70 38 25 72 40 27 72 40 27 72 40 27 70 38 25 70 38 25 70 38 27 70 38 25 71 39 24 72 39 24 72 39 24 71 39 24 72 39 24 73 40 23 73 40 23 74 41 24 76 40 24 77 44 27 77 44 27 80 45 25 78 43 24 78 43 24 79 42 24 78 43 24 79 44 25 84 47 28 82 48 23 81 49 28 81 49 26 85 50 28 82 52 28 85 53 32 86 55 35 88 57 37 88 61 42 92 67 47 90 67 49 91 68 50 91 69 48 93 66 47 92 65 44 92 65 44 90 62 40 90 60 36 90 60 36 91 61 37 91 61 37 91 61 35 91 61 33 92 62 36 91 61 35 91 61 35 92 62 38 92 62 36 91 61 35 92 62 36 90 58 33 89 59 33 90 59 31 91 57 30 91 57 30 92 58 30 92 58 30 92 59 28 91 57 29 91 56 26 91 55 23 90 54 22 91 52 21 92 48 19 88 47 17 86 45 15 87 46 16 86 47 16 88 49 20 86 50 18 86 49 20 87 52 22 90 57 26 91 58 27 92 59 28 91 58 25 92 57 25 90 55 25 91 55 23 87 50 21 82 45 18 78 43 15 79 42 13 82 45 16 85 50 20 88 57 29 90 60 32 90 63 36 91 65 40 
71 42 28 73 41 28 72 40 27 73 41 28 72 40 27 73 41 28 73 41 28 72 40 27 72 40 27 71 39 26 71 39 26 71 39 24 70 38 25 71 39 26 72 39 24 72 39 24 71 39 24 72 39 24 73 40 23 76 40 24 77 41 25 77 41 25 76 43 24 75 44 26 79 44 25 80 45 26 80 45 26 79 44 25 78 42 26 80 45 26 81 44 25 83 48 28 84 49 27 84 49 27 84 49 29 83 51 30 87 54 35 88 57 36 89 58 37 88 61 40 91 64 43 91 66 46 92 67 47 92 67 47 93 68 48 93 68 46 92 67 47 91 64 43 90 65 43 90 62 40 90 62 38 89 61 37 89 61 37 90 62 38 93 63 39 91 63 39 91 63 39 92 64 42 91 65 40 91 63 39 91 63 39 92 62 38 90 62 38 93 61 36 91 61 33 92 61 33 93 59 32 92 58 30 91 57 29 92 59 28 91 56 26 93 56 27 91 55 23 92 53 22 90 49 17 88 47 15 90 47 15 88 47 15 87 48 15 85 49 15 89 53 21 89 54 24 89 56 25 90 57 26 92 59 28 92 61 30 91 60 29 93 58 28 91 56 26 91 55 23 90 53 24 85 48 21 80 43 16 80 43 14 83 47 15 84 49 19 91 57 29 89 59 31 91 61 35 92 64 40 
71 42 28 72 40 27 71 39 26 71 42 28 73 41 28 73 41 28 72 40 27 72 40 27 71 39 26 71 39 26 71 39 26 70 38 25 70 38 25 71 39 24 71 39 24 71 38 23 72 39 24 72 39 24 73 40 23 77 41 25 78 42 26 77 44 27 78 43 24 75 42 25 78 42 26 81 46 27 80 45 26 79 44 25 77 42 23 77 42 23 80 45 26 81 46 26 85 50 30 84 49 29 84 49 29 85 48 29 84 52 31 89 54 35 87 56 35 88 60 38 88 60 39 91 64 45 92 67 47 92 67 47 93 68 46 91 69 48 90 68 47 91 69 48 91 66 46 91 64 43 90 62 40 90 62 40 90 62 40 91 63 41 93 65 43 89 64 42 91 64 43 91 66 44 92 66 43 92 66 43 91 65 42 91 63 39 91 63 39 90 63 36 91 61 35 91 61 33 90 59 31 89 58 30 91 57 29 91 58 27 91 56 26 91 56 26 90 57 24 92 53 22 93 55 19 92 51 19 90 49 17 90 51 18 90 51 18 89 53 21 90 55 27 91 58 27 91 58 27 93 60 29 92 61 32 93 62 33 91 60 32 91 57 29 92 57 27 91 54 25 89 52 23 85 50 20 84 49 19 82 49 18 83 50 19 83 50 19 86 52 24 88 54 27 88 58 32 91 63 39 
73 41 28 72 40 29 73 41 28 72 43 29 75 43 30 74 42 29 71 42 28 69 40 26 71 39 24 70 38 25 70 38 25 70 38 25 71 39 24 71 39 24 71 39 24 72 39 24 72 39 24 73 40 23 75 42 25 75 42 25 77 44 27 77 44 25 79 43 27 79 44 25 79 44 24 78 45 26 81 46 27 79 44 25 78 43 24 79 44 25 82 45 26 83 48 28 85 50 30 86 51 31 85 50 30 85 50 28 84 52 31 85 53 32 87 56 35 89 58 37 88 60 38 90 63 42 90 65 43 91 66 44 92 67 47 91 70 51 92 71 52 91 70 51 92 70 49 93 68 46 91 64 43 90 63 42 90 64 41 91 65 42 92 65 44 92 67 45 92 68 44 91 66 44 91 66 44 90 68 45 93 66 45 92 66 43 91 65 42 91 63 39 92 62 36 91 62 32 90 60 32 92 61 32 93 59 32 91 57 29 92 57 29 91 56 24 90 55 25 91 55 23 90 54 22 89 54 22 92 53 22 90 54 22 90 53 24 90 55 25 91 58 27 92 59 28 91 60 31 89 59 31 92 62 34 91 61 33 91 62 32 90 59 30 90 56 28 90 55 25 90 55 25 89 54 24 86 52 24 86 53 22 85 52 21 85 52 21 85 51 23 85 54 26 87 55 30 92 62 38 
75 43 30 75 41 29 74 42 29 73 44 30 74 42 29 73 44 30 71 42 28 69 40 26 71 39 26 71 39 24 70 41 27 70 38 23 71 39 24 71 39 24 71 39 24 71 38 23 72 39 24 74 41 24 76 43 26 78 45 28 77 44 27 78 45 26 79 43 27 80 45 26 79 44 25 78 45 26 80 45 26 79 44 25 80 45 26 80 45 26 83 48 29 84 49 29 87 52 32 84 52 31 84 52 31 85 53 30 87 51 29 85 53 32 87 56 35 87 59 38 89 61 39 90 62 40 90 63 42 91 64 43 91 66 46 91 70 51 91 72 55 91 73 53 91 72 55 92 71 52 91 66 46 90 65 45 90 65 43 92 65 46 91 66 44 93 68 46 91 69 46 93 68 48 90 68 47 91 69 48 92 67 45 91 66 44 90 66 42 91 63 39 91 61 35 91 61 33 92 61 33 91 60 32 89 58 29 93 57 31 92 58 30 91 56 26 91 56 26 91 56 26 92 57 27 90 55 25 90 55 25 91 56 24 91 56 26 91 57 29 90 59 28 90 61 31 91 62 32 90 60 32 89 62 33 91 61 33 92 61 33 92 61 33 91 60 31 91 60 31 90 57 26 89 56 25 90 57 26 89 56 25 89 56 25 88 54 26 86 53 22 87 53 26 88 56 31 89 62 35 
73 44 30 77 44 29 74 45 31 75 46 32 74 42 27 72 44 30 71 42 28 73 41 26 71 39 24 71 39 28 70 41 25 69 40 24 71 39 24 71 39 24 71 39 24 72 39 24 74 38 24 74 41 24 76 43 26 77 44 27 78 45 28 79 44 25 78 43 24 80 45 26 81 46 27 80 45 26 80 45 26 80 44 28 78 42 26 82 47 28 84 49 30 85 50 31 86 54 33 86 54 33 87 52 32 85 53 30 84 52 31 85 54 33 85 57 35 88 57 36 90 59 38 88 60 38 89 61 40 90 63 42 91 66 46 91 70 51 90 71 56 91 76 55 91 72 55 94 73 56 91 68 50 90 68 45 92 67 47 93 68 48 92 70 47 91 69 46 90 69 48 91 69 48 91 69 48 93 71 50 91 69 48 90 68 47 88 66 43 91 65 40 91 63 39 92 62 36 92 62 36 92 60 35 92 61 32 90 59 30 92 58 30 92 59 28 92 57 27 92 57 27 92 57 27 91 56 26 90 57 26 90 57 26 91 57 29 90 59 30 90 60 34 91 62 32 90 63 34 89 62 33 89 62 35 90 63 36 90 63 36 89 62 32 91 62 32 91 60 32 91 57 29 88 57 26 93 60 29 90 59 30 89 58 29 89 55 27 88 54 26 87 56 28 88 57 29 90 60 34 
74 45 29 74 45 29 74 45 31 73 44 28 72 40 25 74 42 29 73 44 30 75 43 28 76 42 30 72 40 25 69 40 24 69 40 24 72 39 24 70 38 23 69 37 22 71 38 23 72 39 24 74 41 24 78 45 28 78 45 28 78 42 26 77 42 23 77 44 25 79 46 27 80 47 28 80 47 28 82 47 28 79 46 27 80 47 28 80 47 28 83 50 31 85 53 32 84 56 34 86 54 33 85 53 32 84 52 31 86 54 33 86 54 33 86 55 34 87 56 35 87 56 35 88 60 39 91 60 39 90 62 41 90 65 43 92 69 51 91 72 55 90 73 55 92 73 58 93 71 57 92 71 54 90 69 50 92 69 51 90 69 50 91 68 50 91 69 48 91 70 49 92 70 49 92 69 51 92 71 52 91 70 51 91 70 49 91 69 46 91 65 42 91 63 39 91 64 37 92 62 36 91 61 35 91 61 33 91 60 32 89 58 30 92 58 30 92 58 30 92 57 29 92 57 27 91 56 28 90 56 28 91 57 29 92 58 30 91 60 31 92 62 34 91 64 35 90 64 37 92 64 40 91 65 40 90 64 39 90 63 36 92 62 36 91 61 33 91 60 31 89 58 29 88 57 28 89 58 29 90 59 30 89 59 31 90 59 31 88 57 29 88 57 29 88 58 32 87 60 33 
81 49 34 76 47 33 73 46 27 73 44 30 76 44 29 74 42 27 72 43 27 74 42 27 72 43 27 70 41 25 72 40 25 69 40 24 71 40 22 72 40 25 75 42 27 74 41 24 74 41 26 73 42 24 76 43 26 78 45 28 78 45 26 81 45 29 79 46 29 81 48 31 82 50 29 81 48 29 79 48 30 80 49 31 83 52 34 83 52 34 85 54 34 87 59 37 88 57 36 88 57 36 88 56 35 88 57 36 87 55 34 87 56 35 89 57 36 88 57 36 87 56 36 89 61 40 92 61 40 89 61 39 91 64 43 91 68 50 92 71 54 90 73 57 91 74 58 92 75 59 92 73 58 92 71 54 92 71 54 88 70 50 91 70 49 92 71 50 92 71 52 90 71 54 91 73 53 90 72 52 91 70 51 92 71 52 92 70 49 91 67 43 91 65 40 91 63 39 90 63 36 90 63 34 91 61 33 91 61 33 91 60 32 93 59 32 92 58 30 91 57 29 93 58 28 92 57 29 91 58 27 93 59 32 92 61 33 92 62 36 91 66 36 92 66 41 91 67 39 92 68 44 92 68 42 91 67 41 92 66 43 92 64 40 92 62 36 91 61 35 91 61 33 90 59 30 92 61 32 91 60 32 90 60 32 90 60 36 90 63 36 91 61 35 88 61 34 87 59 37 
80 51 37 78 49 35 75 46 32 74 44 33 74 45 31 72 43 27 72 43 29 73 44 30 71 42 26 72 43 27 74 42 27 72 40 25 70 38 23 73 41 26 76 43 28 76 43 26 76 43 26 77 44 27 77 44 27 79 46 29 80 47 30 83 50 33 82 49 32 85 52 35 85 52 33 83 50 31 81 50 30 82 51 31 85 54 34 85 54 34 87 56 36 88 57 36 87 56 35 88 57 36 89 58 37 90 59 38 86 55 34 88 56 35 87 59 37 88 60 38 86 58 36 89 61 39 89 61 39 89 63 40 90 63 42 92 67 47 92 71 54 90 72 58 91 75 59 89 76 59 91 74 58 91 72 57 91 73 53 92 71 52 91 70 49 91 70 51 92 71 52 90 72 52 91 73 53 89 71 51 92 71 52 92 71 50 91 71 47 91 67 43 92 66 41 90 64 39 91 63 39 91 64 37 93 63 35 92 62 34 92 61 33 90 59 31 92 58 30 93 59 31 92 58 31 91 60 31 93 59 31 92 61 32 92 62 36 91 64 37 91 65 38 92 66 39 90 69 42 91 69 45 91 69 45 93 69 45 93 67 42 90 64 39 91 63 39 92 62 36 91 61 35 91 60 31 92 62 34 91 61 33 91 61 35 90 62 38 91 63 39 90 64 39 89 63 38 90 62 38 
80 51 37 78 49 35 78 49 35 76 47 33 77 45 32 73 44 30 71 43 29 74 42 29 72 43 29 72 43 29 73 44 30 74 45 29 72 43 27 75 46 30 77 45 30 77 44 29 77 44 27 77 44 27 80 45 26 81 45 29 81 48 31 82 51 33 85 52 35 86 53 36 86 53 36 85 52 35 83 52 32 83 52 34 84 53 35 86 55 35 89 56 37 89 58 38 84 56 32 87 59 37 88 60 38 90 62 40 87 59 37 87 59 37 87 59 38 88 60 39 86 59 38 88 61 40 89 63 40 89 63 40 90 65 45 90 68 47 90 71 54 91 74 58 92 76 61 92 76 61 91 75 60 92 73 58 91 72 55 91 73 53 91 70 49 90 69 48 92 71 52 89 71 51 91 73 53 92 71 50 92 71 50 93 72 51 91 71 47 91 67 43 91 65 40 90 64 39 91 63 39 91 63 39 91 64 37 91 61 33 92 61 33 91 60 32 92 58 31 90 59 30 92 61 32 91 60 31 91 60 32 92 62 34 90 63 36 91 65 38 91 67 41 90 69 42 91 69 45 91 71 46 92 72 48 91 69 46 92 68 44 92 66 43 91 65 42 91 63 39 92 62 36 92 62 34 91 61 33 91 61 35 89 62 35 90 62 38 91 65 42 91 65 42 91 65 42 91 65 42 
75 49 34 78 50 38 78 50 38 78 49 35 74 45 31 72 44 30 74 45 31 74 45 31 74 45 29 77 48 34 78 49 35 77 49 35 79 51 37 81 53 39 78 49 35 75 46 32 74 42 27 76 44 29 78 46 31 80 49 31 82 51 33 83 51 36 84 55 39 85 56 40 87 56 38 85 56 38 85 56 38 82 54 33 82 54 33 84 55 37 86 58 37 87 59 38 87 59 38 90 59 39 89 62 41 89 62 41 88 61 40 87 62 42 89 60 42 88 61 40 89 62 43 88 63 43 89 62 41 90 63 42 91 64 45 90 69 52 89 70 53 92 74 60 90 77 61 91 78 62 92 76 63 92 75 59 89 72 56 90 72 52 91 70 51 91 70 51 93 72 53 93 72 53 90 72 52 90 72 52 91 70 49 92 71 50 91 71 47 91 67 43 91 67 43 91 65 40 89 63 38 90 64 39 91 61 35 90 63 36 90 60 32 91 60 32 91 60 31 91 60 32 91 60 32 90 60 32 92 62 34 90 63 36 90 64 37 89 68 41 91 67 41 91 69 45 90 70 46 92 72 48 92 72 48 92 70 47 91 69 48 92 67 45 91 67 43 91 65 40 92 64 40 90 63 36 88 61 34 89 62 35 89 63 38 90 66 42 89 67 44 91 69 46 91 69 46 90 68 45 
68 46 35 74 47 38 75 48 37 76 48 37 75 45 34 76 47 33 75 46 32 75 46 32 76 47 33 79 53 40 79 53 40 82 58 46 87 63 51 84 62 49 82 59 45 77 51 38 75 47 33 73 46 29 79 50 34 81 52 36 82 53 37 85 56 40 86 59 42 86 59 42 87 60 43 89 60 42 90 61 43 85 56 38 83 54 36 84 55 37 86 57 41 85 58 39 89 62 41 89 62 43 89 63 46 89 66 48 90 64 47 88 65 49 87 64 48 87 64 48 89 66 48 90 67 51 92 66 49 92 66 49 91 68 50 89 70 53 91 74 58 92 76 61 90 78 64 92 80 68 91 77 64 90 76 63 91 75 59 90 73 57 91 73 53 90 72 52 89 71 51 93 72 53 89 71 51 88 70 50 92 69 51 92 71 50 91 71 46 91 67 43 92 68 44 92 66 43 89 65 39 92 66 41 90 63 36 90 63 36 89 62 35 92 62 34 92 61 33 90 59 31 89 58 30 91 61 35 92 62 36 91 65 38 92 66 41 93 67 44 90 68 44 91 71 47 92 72 48 89 71 49 89 71 49 92 71 50 90 72 50 87 69 47 91 66 44 90 66 42 91 65 40 93 67 42 90 64 39 89 63 38 90 66 40 91 67 43 91 69 46 92 70 47 91 70 49 92 71 50 
46 31 24 50 35 28 57 39 29 63 40 34 70 46 36 72 45 36 73 46 35 72 45 34 72 45 34 77 53 41 81 59 48 83 63 54 87 67 58 86 68 58 87 67 56 82 63 49 81 58 44 77 55 41 80 54 39 82 56 41 84 58 43 86 60 45 86 63 49 86 63 47 87 61 46 86 60 45 86 59 42 84 57 36 83 55 34 85 56 38 84 58 41 85 58 39 89 62 45 88 62 45 88 65 49 89 68 51 91 69 55 89 72 56 89 72 56 90 73 57 91 71 62 90 72 58 91 72 58 92 73 58 90 71 57 91 73 59 93 77 64 91 79 65 92 80 68 90 80 70 91 78 69 90 78 66 90 78 64 90 74 59 90 73 57 89 72 54 93 72 55 90 72 52 91 73 53 92 71 50 92 71 50 90 72 50 90 70 46 90 66 42 91 67 43 89 65 41 90 64 41 91 65 40 91 64 37 89 62 35 89 62 35 90 63 36 90 63 34 91 61 33 93 62 34 90 63 36 90 64 39 91 67 43 91 67 43 92 68 42 90 70 46 91 71 47 91 73 53 92 74 54 90 72 52 91 72 55 90 72 50 87 69 47 89 67 44 90 66 42 90 66 42 90 66 42 90 66 42 88 66 42 88 66 42 90 68 45 91 71 47 90 72 50 90 73 53 90 73 53 
30 23 17 35 26 21 42 29 23 48 33 26 58 39 32 64 41 33 66 43 35 67 42 35 65 42 34 72 52 43 79 60 53 84 67 59 87 70 63 86 72 63 89 72 64 86 68 58 83 65 53 83 61 48 82 59 45 84 61 47 86 63 49 87 65 51 86 67 53 90 68 55 87 65 51 87 64 50 85 59 42 82 56 39 80 53 36 85 56 40 85 58 41 86 59 42 88 60 46 88 62 47 88 65 49 90 68 55 90 71 57 92 74 62 91 75 62 92 72 63 91 74 64 90 76 65 89 75 62 91 75 62 92 76 63 92 76 63 91 77 66 89 79 69 91 81 71 91 82 73 91 82 73 91 81 71 91 78 69 88 76 64 91 75 62 90 74 58 91 74 56 89 72 54 89 72 52 89 71 49 91 70 49 89 71 49 91 71 47 89 65 41 91 67 41 91 67 43 91 67 43 92 66 41 90 64 37 89 62 33 89 63 36 91 65 38 90 64 37 91 63 39 91 63 39 90 64 41 92 66 43 92 68 44 91 69 45 90 68 45 90 70 46 90 74 51 91 76 57 92 75 55 91 74 56 90 73 57 91 74 54 88 70 48 89 67 46 88 66 43 90 66 42 89 67 43 89 67 44 90 68 45 90 70 46 92 72 48 90 72 48 90 73 53 90 75 54 92 75 57 
13 13 15 20 19 17 25 21 18 33 25 22 38 27 23 48 33 28 54 37 30 57 38 34 57 38 32 67 49 47 75 60 57 81 67 64 85 74 70 86 75 69 88 75 66 88 73 68 86 69 61 84 66 56 84 64 53 85 66 52 87 67 56 87 69 57 90 72 60 91 73 61 89 70 56 85 66 51 83 61 47 78 55 39 79 53 38 82 54 40 84 56 42 87 59 45 86 62 52 86 64 51 86 67 53 87 69 57 90 72 62 90 76 65 90 77 68 92 77 70 90 77 69 91 78 70 90 77 68 89 79 67 91 77 66 90 76 67 92 79 70 89 80 71 92 82 73 90 83 75 91 84 76 91 82 73 90 81 72 91 81 71 91 79 67 90 77 61 91 74 58 90 73 55 88 71 51 89 71 49 90 72 50 89 71 49 90 69 48 89 67 44 89 67 44 92 67 45 90 68 45 92 68 44 90 64 41 91 65 40 90 66 40 90 66 42 92 66 43 92 68 44 92 67 45 92 67 45 90 68 47 90 68 47 90 68 47 91 71 47 91 70 51 91 74 56 90 77 61 92 76 60 92 76 60 91 76 57 90 73 55 88 70 50 89 68 47 88 66 43 89 67 44 90 68 45 90 68 45 90 68 45 90 70 46 89 73 50 90 73 53 91 74 54 91 76 57 91 76 57 
9 14 18 9 15 11 14 16 15 17 16 14 22 18 15 31 23 20 40 26 25 42 28 25 47 29 27 55 41 40 67 56 54 76 66 64 84 74 72 86 76 74 86 77 72 85 74 70 85 72 64 83 70 61 84 68 55 86 69 59 88 70 60 89 72 62 89 75 66 91 77 68 90 74 61 88 70 56 85 66 52 82 60 46 80 58 44 80 57 43 83 57 44 86 60 45 85 63 50 86 64 51 85 65 54 85 68 58 88 71 63 91 76 69 90 77 69 92 79 71 91 78 72 90 77 71 90 77 69 89 76 67 90 77 68 87 76 70 88 77 71 88 79 72 88 81 75 90 83 75 90 83 75 91 84 76 91 84 76 92 83 76 90 80 71 91 78 69 93 77 64 91 75 60 89 72 56 89 71 51 90 72 50 89 71 49 91 70 49 89 68 49 91 70 49 91 70 49 90 70 46 93 68 48 89 67 44 89 67 43 89 67 43 91 69 46 92 67 47 91 68 50 91 70 51 91 70 53 91 70 51 92 71 52 89 71 49 90 72 52 91 73 53 90 74 58 92 76 61 92 76 60 91 75 60 89 76 59 91 74 56 89 71 51 89 68 47 89 68 49 91 69 46 90 68 44 90 69 50 88 70 48 91 70 49 90 72 52 91 74 56 92 75 59 91 75 59 92 76 63 
9 14 17 12 16 19 11 15 18 12 16 19 12 16 17 14 19 13 18 18 16 21 20 16 23 19 18 38 32 32 55 49 49 70 64 64 79 73 73 84 76 74 85 77 74 85 77 74 83 74 69 81 70 66 79 69 60 84 69 62 88 71 64 89 74 67 89 76 68 89 78 72 89 79 70 90 77 68 89 75 64 87 70 60 88 70 58 84 64 53 82 62 51 81 59 48 84 64 55 85 65 56 83 65 55 82 63 56 82 67 60 84 71 63 85 74 68 87 78 71 88 78 69 90 79 73 89 80 73 90 79 73 88 79 72 87 78 71 87 78 71 87 80 72 88 81 75 88 83 79 91 83 80 93 84 79 92 84 81 91 83 80 92 83 78 92 81 75 89 79 69 91 79 67 91 78 62 91 74 58 88 71 55 89 72 56 90 73 55 91 74 58 90 74 58 91 75 59 91 75 60 90 74 58 89 72 56 90 71 54 89 72 54 90 73 55 91 72 55 91 74 58 91 75 60 91 75 60 90 74 59 90 74 58 90 74 58 91 75 60 91 75 59 90 74 58 91 75 60 91 78 62 92 76 61 92 76 60 91 74 56 89 71 51 91 70 51 88 70 48 91 70 49 90 69 48 90 72 52 90 72 52 91 73 53 89 72 54 91 75 59 92 76 61 91 77 64 91 79 65 
8 12 13 8 12 13 10 14 17 12 13 15 10 14 15 12 16 15 18 18 16 18 18 16 22 18 17 37 32 29 57 49 47 68 63 60 77 72 69 80 75 72 80 75 72 83 76 70 82 72 70 80 69 67 79 66 60 81 67 64 84 71 63 86 73 67 88 77 71 89 82 76 90 79 73 89 78 74 90 77 69 90 77 68 89 75 66 87 70 60 85 68 58 83 65 55 79 61 51 79 61 51 82 63 56 81 64 56 76 62 53 76 66 56 81 68 60 85 76 69 88 79 72 86 77 70 87 78 71 86 77 70 86 77 70 85 76 71 85 78 72 86 78 75 87 82 76 88 83 77 91 86 82 90 85 81 91 86 83 91 86 82 91 84 78 91 84 78 91 81 72 91 78 69 91 77 66 92 76 61 90 74 61 90 74 59 92 76 63 89 75 62 90 78 64 90 78 64 92 80 68 91 79 67 90 76 63 92 76 63 90 77 61 90 77 61 90 77 61 91 77 64 91 77 66 91 79 67 91 78 69 92 78 67 91 77 64 91 77 64 91 78 62 87 78 61 90 76 63 90 76 63 91 77 64 90 77 61 90 74 58 88 73 54 88 71 51 90 72 52 89 71 51 89 71 51 89 71 51 91 72 55 90 73 55 92 76 60 90 77 61 90 78 62 90 78 64 91 79 67 
14 14 12 12 14 13 12 13 15 12 13 15 14 15 17 15 19 18 22 22 22 25 24 22 29 25 22 43 35 33 58 50 48 70 62 60 79 71 69 81 72 73 81 73 71 80 72 69 77 67 65 75 66 61 75 61 58 78 65 59 83 68 63 82 71 65 85 76 71 89 80 75 89 80 75 89 80 73 90 79 73 90 77 69 90 77 69 90 76 67 87 72 65 87 70 62 78 59 52 79 59 52 79 60 53 79 60 53 70 56 47 65 55 45 68 59 50 77 68 59 85 76 67 87 78 69 87 78 69 83 76 68 85 76 69 85 76 71 85 78 72 87 80 74 86 81 75 88 83 77 91 86 82 91 86 83 91 86 83 91 86 82 90 85 81 91 84 78 91 82 75 90 80 71 90 78 66 90 76 63 90 76 63 90 76 63 88 76 62 91 79 67 89 79 69 89 81 70 91 81 72 91 81 72 90 80 71 91 78 69 90 77 68 90 78 66 90 78 66 90 80 70 90 80 71 91 80 74 90 80 71 91 81 72 92 79 71 91 79 67 91 79 67 89 77 65 90 78 66 91 79 67 91 79 65 91 78 62 91 75 60 89 73 57 88 73 54 90 71 54 89 71 51 90 71 54 90 71 54 90 73 55 91 74 58 92 76 61 90 78 64 90 78 64 91 79 67 91 79 67 
26 26 18 24 23 19 22 21 19 20 20 20 22 22 22 28 26 27 36 32 31 40 36 33 43 38 35 54 44 42 65 54 52 74 64 62 79 69 68 81 71 70 78 70 67 74 64 62 69 59 57 67 56 52 66 55 51 73 59 56 76 62 59 79 68 64 83 73 71 87 79 76 87 79 76 88 80 77 89 81 78 88 79 74 89 80 75 89 78 72 91 78 70 90 75 68 83 64 58 78 59 52 75 57 47 75 58 48 67 50 40 50 38 26 51 43 32 63 55 44 80 70 58 85 77 66 86 78 67 85 76 67 84 77 69 84 77 69 84 77 71 86 78 75 84 79 73 86 81 77 88 83 79 90 85 82 90 85 82 91 86 83 91 83 80 91 84 78 90 83 75 90 81 74 91 81 71 90 78 66 90 78 66 90 78 66 90 77 68 90 81 72 91 82 75 90 83 75 91 84 76 91 84 78 91 84 78 91 84 78 90 81 74 90 81 72 90 81 72 91 82 73 91 82 75 92 85 79 91 84 78 91 82 75 90 81 72 91 82 73 91 83 72 90 82 71 89 80 71 91 81 71 90 80 70 90 80 68 89 77 63 89 76 60 90 74 58 90 73 57 92 75 59 89 73 57 90 74 58 91 75 60 92 76 61 92 78 65 91 79 65 92 80 68 90 80 70 91 81 71 
63 56 48 51 48 43 48 44 41 45 41 40 46 42 43 52 46 46 58 53 50 62 57 54 65 57 54 69 57 57 73 63 61 78 67 65 81 70 68 83 73 71 76 66 64 68 58 56 59 49 47 54 43 39 56 42 39 64 50 47 69 55 52 73 62 60 77 67 65 82 74 72 84 76 73 84 79 75 88 80 78 89 79 77 88 79 74 89 80 75 93 79 76 90 77 69 82 65 58 73 56 48 68 51 43 66 49 39 67 50 40 54 38 25 38 26 14 38 26 14 67 57 47 84 78 66 86 77 68 87 78 71 87 80 70 85 78 72 84 79 73 83 78 72 87 79 76 83 78 74 85 80 76 87 82 79 88 83 80 91 83 81 91 83 80 91 83 80 91 84 78 91 82 77 89 80 73 90 77 69 91 79 67 88 78 68 88 77 71 91 82 75 90 83 77 91 84 78 90 85 81 89 86 81 89 85 82 90 86 83 90 85 81 91 84 78 90 81 74 89 82 76 90 82 79 91 83 80 91 83 80 91 84 76 91 84 76 90 83 77 91 84 78 88 84 75 91 84 78 92 83 74 91 82 73 92 82 73 91 81 71 89 77 63 90 76 63 90 74 59 90 72 58 91 75 60 90 77 61 90 76 63 91 77 64 91 77 66 90 80 70 92 79 70 91 81 71 90 80 70 
80 76 65 76 71 65 72 67 64 72 64 62 70 65 62 74 66 63 73 68 64 77 69 67 77 70 64 77 67 65 78 69 64 78 71 65 80 73 67 82 74 71 78 69 64 69 60 55 59 48 44 49 38 34 50 35 32 51 38 32 58 44 41 64 53 49 71 62 57 77 69 67 80 73 67 82 75 69 85 77 74 87 78 73 89 78 76 89 78 74 91 77 74 91 76 73 79 64 57 67 52 45 62 45 37 61 44 36 70 53 43 64 47 37 54 40 29 49 35 22 62 48 39 84 71 63 87 77 68 88 79 72 87 78 73 86 78 75 88 80 77 87 79 76 83 78 74 82 77 73 84 79 75 85 80 77 86 83 78 87 82 78 90 82 79 89 84 80 88 83 77 88 83 79 89 82 74 86 77 70 86 77 70 86 77 70 86 77 70 85 80 74 90 83 77 91 84 76 90 85 81 88 85 80 89 85 82 90 87 82 90 85 81 90 85 79 89 84 78 89 84 78 90 85 81 90 85 81 90 85 81 90 85 81 89 86 81 88 85 78 90 85 79 89 84 78 92 85 79 91 84 78 91 84 78 90 81 74 91 81 72 89 79 67 90 77 68 91 77 66 90 76 63 89 75 62 90 76 63 90 78 66 88 78 68 90 80 70 89 80 75 90 81 72 90 81 72 90 82 71 
86 79 73 83 78 72 82 77 73 81 73 70 79 74 68 81 74 68 81 73 70 83 73 72 83 75 73 79 72 66 78 70 67 80 71 66 78 71 65 80 73 67 78 69 64 74 63 59 66 55 53 60 49 45 53 42 40 50 36 33 52 38 35 56 45 39 64 55 50 68 60 57 73 66 60 75 67 64 79 69 67 80 69 67 81 70 68 82 71 67 83 74 69 86 72 69 76 61 56 61 48 42 50 37 29 49 36 28 62 48 37 67 50 42 63 46 36 60 43 35 66 52 43 83 68 61 89 76 70 89 78 74 90 81 76 88 78 76 88 80 77 86 78 75 84 79 75 82 77 73 82 77 73 83 78 74 84 79 73 84 79 73 86 81 75 86 81 75 89 84 80 87 83 80 88 83 79 86 81 75 84 77 71 83 76 68 83 76 70 86 79 71 89 82 76 87 82 76 89 84 80 88 84 81 89 85 82 89 86 81 90 87 82 90 87 82 88 83 79 88 83 80 89 84 78 90 85 81 90 85 82 91 86 83 90 87 82 90 86 83 91 86 82 91 86 82 90 85 81 89 86 81 90 85 81 90 85 79 91 82 73 90 81 72 89 79 70 91 77 68 87 77 65 91 79 67 91 78 69 90 80 70 89 80 71 91 82 75 89 85 76 90 83 75 91 84 76 91 84 74 
89 80 75 88 81 75 88 80 77 86 79 73 86 79 73 86 79 71 87 79 76 84 79 75 85 77 74 78 73 69 77 72 66 78 70 67 79 71 68 79 72 66 80 71 66 79 65 64 72 61 59 68 57 53 62 48 45 52 41 37 48 37 31 48 39 34 55 47 44 61 54 48 64 56 53 68 58 56 67 59 57 69 59 57 70 60 58 72 63 58 73 64 59 75 66 61 66 55 51 51 42 37 40 29 23 39 30 23 56 43 35 67 50 40 67 49 39 68 49 42 74 55 48 83 66 58 87 74 66 90 77 71 89 80 75 90 79 75 87 80 74 86 79 73 85 80 74 82 77 73 81 76 72 83 75 72 82 77 71 86 79 73 86 78 75 87 82 76 88 83 79 89 84 78 90 85 79 90 83 77 86 79 71 82 77 73 83 76 70 85 77 74 84 79 75 86 81 77 87 84 79 86 83 78 88 85 80 88 85 80 89 86 81 89 85 82 89 84 81 89 86 81 88 85 80 89 84 81 89 85 82 89 85 82 89 85 84 89 85 82 90 86 83 91 86 83 90 85 81 90 85 81 90 85 81 91 86 80 91 84 76 91 82 75 89 80 71 88 78 69 87 79 68 88 78 68 90 80 71 88 81 71 89 80 73 91 84 76 89 86 79 90 87 80 89 85 76 90 86 77 
89 82 76 89 82 76 89 82 76 90 83 77 88 83 79 89 81 78 87 82 78 88 80 77 85 77 74 79 71 68 78 71 65 76 68 65 79 72 66 80 72 69 81 71 69 81 70 68 79 68 66 77 66 64 74 60 57 58 47 43 46 35 33 40 30 28 41 36 32 51 41 39 54 46 44 55 47 45 55 47 45 57 47 45 54 46 43 52 45 39 51 46 42 55 50 46 45 41 38 34 31 26 26 21 18 27 22 18 43 34 29 63 48 41 69 51 41 73 55 45 77 57 46 85 68 58 87 74 65 91 78 69 90 80 70 88 78 69 87 78 69 87 78 71 86 79 73 84 77 71 81 74 68 81 74 68 83 76 70 84 77 69 86 79 73 87 80 74 86 81 75 91 84 78 88 85 78 87 84 79 88 83 77 84 79 73 84 77 71 83 76 70 83 76 70 85 78 72 85 80 76 87 82 78 87 82 78 88 85 80 88 85 80 88 85 80 88 85 80 87 84 79 89 84 80 89 86 79 89 85 82 90 85 82 89 85 82 89 85 82 91 87 84 90 86 83 89 85 82 90 87 82 90 85 81 91 86 82 90 85 79 90 83 77 90 81 72 88 79 72 86 77 70 88 79 72 89 80 73 91 82 75 89 82 76 90 85 79 90 87 82 91 88 83 91 88 83 89 86 79 
