P3
100 50
255
35 25 24 25 20 17 21 16 13 14 13 11 13 11 12 11 13 12 11 13 12 10 12 11 11 13 12 11 11 13 12 12 12 12 12 12 14 14 14 16 16 16 17 15 16 15 13 14 12 12 14 8 12 13 8 14 14 7 13 13 8 13 16 7 12 15 7 12 15 7 11 12 6 12 12 10 14 15 14 14 16 16 16 16 137 135 136 255 255 255 255 255 255 255 255 255 255 255 255 255 255 255 255 255 255 255 255 255 255 255 255 255 255 255 255 255 255 255 255 255 255 255 255 255 255 255 255 255 255 255 255 255 255 255 255 255 255 255 255 255 255 255 255 255 255 255 255 255 255 255 255 255 255 255 255 255 255 255 255 255 255 255 255 255 255 255 255 255 255 255 255 255 255 255 255 255 255 255 255 255 255 255 255 255 255 255 255 255 255 255 255 255 255 255 255 255 255 255 255 255 255 255 255 255 255 255 255 255 255 255 255 255 255 255 255 255 255 255 255 255 255 255 255 255 255 255 255 255 255 255 255 255 255 255 255 255 255 255 255 255 255 255 255 255 255 255 255 255 255 255 255 255 255 255 255 255 255 255 255 255 255 255 255 255 255 255 255 255 255 255 255 255 255 255 255 255 255 255 255 255 255 255 255 255 255 255 255 255 254 255 255 254 255 255 255 255 255 255 255 255 
31 23 20 24 18 18 19 15 16 14 12 15 12 12 12 11 11 11 10 12 11 9 10 12 10 11 13 13 13 13 14 12 13 16 14 15 15 13 14 14 14 12 16 14 15 15 13 18 13 13 15 8 12 13 7 13 13 7 12 15 7 13 13 7 12 15 7 12 15 8 12 15 8 14 14 13 14 16 17 17 17 19 18 16 21 17 18 138 136 137 255 255 255 255 255 255 255 255 255 255 255 255 255 255 255 255 255 255 255 255 255 255 255 255 255 255 255 255 255 255 255 255 255 255 255 255 255 255 255 255 255 255 255 255 255 255 255 255 255 255 255 255 255 255 255 255 255 255 255 255 255 255 255 255 255 255 255 255 255 255 255 255 255 255 255 255 255 255 255 255 255 255 255 255 255 255 255 255 255 255 255 255 255 255 255 255 255 255 255 255 255 255 255 255 255 255 255 255 255 255 255 255 255 255 255 255 255 255 255 255 255 255 255 255 255 255 255 255 255 255 255 255 255 255 255 255 255 255 255 255 255 255 255 255 255 255 255 255 255 255 255 255 255 255 255 255 255 255 255 255 255 255 255 255 255 255 255 255 255 255 255 255 255 255 255 255 255 255 255 255 255 255 255 255 255 255 255 255 255 255 255 255 255 255 255 255 255 255 255 255 255 255 255 255 255 255 255 255 255 255 
26 20 20 18 17 15 17 13 12 13 11 12 12 12 14 12 12 14 10 11 13 8 12 13 11 11 13 15 13 14 19 15 14 19 15 14 21 17 16 15 14 12 15 13 14 14 14 16 12 12 14 8 12 13 6 12 12 5 10 13 6 12 12 6 11 14 7 12 15 8 12 15 9 13 14 14 16 15 18 18 18 20 18 19 21 17 16 21 17 16 138 136 139 255 255 253 255 255 255 254 254 254 255 255 255 255 255 255 255 255 255 255 255 255 255 255 255 255 255 255 255 255 255 255 255 255 255 255 255 255 255 255 255 255 255 255 255 255 255 255 255 255 255 255 255 255 255 255 255 255 255 255 255 255 255 255 255 255 255 255 255 255 255 255 255 255 255 255 255 255 255 255 255 255 255 255 255 255 255 255 255 255 255 255 255 255 255 255 255 255 255 255 255 255 255 255 255 255 255 255 255 255 255 255 255 255 255 255 255 255 255 255 255 255 255 255 255 255 255 255 255 255 255 255 255 255 255 255 255 255 255 255 255 255 255 255 255 255 255 255 255 255 255 255 255 255 255 255 255 255 255 255 255 255 255 255 255 255 255 255 255 255 255 255 255 255 255 255 255 255 255 255 255 255 255 255 255 255 255 255 255 255 255 255 255 255 255 255 255 255 255 255 255 255 255 255 255 255 255 255 
19 15 12 12 12 10 11 11 9 13 11 14 12 14 13 13 13 15 11 12 14 11 12 16 12 12 14 20 16 15 22 16 18 23 17 17 21 15 15 18 14 13 15 13 14 14 14 16 12 13 17 8 12 13 8 12 13 7 11 12 7 11 14 7 11 14 7 12 15 8 12 13 12 13 15 14 14 14 18 18 18 19 17 18 17 15 16 18 14 15 15 13 14 122 121 119 241 239 240 255 255 255 255 255 255 255 255 255 255 255 255 255 255 255 255 255 255 255 255 255 255 255 255 255 255 255 255 255 255 255 255 255 255 255 255 255 255 255 255 255 255 255 255 255 255 255 255 255 255 255 255 255 255 255 255 255 255 255 255 255 255 255 255 255 255 255 255 255 255 255 255 255 255 255 255 255 255 255 255 255 255 255 255 255 255 255 255 255 255 255 255 255 255 255 255 255 255 255 255 255 255 255 255 255 255 255 255 255 255 255 255 255 255 255 255 255 255 255 255 255 255 255 255 255 255 255 255 255 255 255 255 255 255 255 255 255 255 255 255 255 255 255 255 255 255 255 255 255 255 255 255 255 255 255 255 255 255 255 255 255 255 255 255 255 255 255 255 255 255 255 255 255 255 255 255 255 255 255 255 255 255 255 255 255 255 255 255 255 255 255 255 255 255 255 255 255 255 255 255 255 
15 13 14 11 13 12 10 12 11 14 14 16 15 15 17 13 13 15 13 13 15 12 11 16 14 12 15 22 16 16 28 20 18 27 19 17 25 20 17 21 17 16 15 13 14 13 13 15 11 12 16 8 12 13 8 12 15 8 12 15 8 12 15 7 11 14 6 10 13 7 11 10 9 13 14 13 14 16 16 16 16 15 15 15 13 13 13 15 13 14 15 11 12 14 10 9 44 42 43 226 224 225 255 255 255 255 255 255 255 255 255 255 255 255 255 255 255 255 255 255 255 255 255 255 255 255 255 255 255 255 255 255 255 255 255 255 255 255 255 255 255 255 255 255 255 255 255 255 255 255 255 255 255 255 255 255 255 255 255 255 255 255 255 255 255 255 255 255 255 255 255 255 255 255 255 255 255 255 255 255 255 255 255 255 255 255 255 255 255 255 255 255 255 255 255 255 255 255 255 255 255 255 255 255 255 255 255 255 255 255 255 255 255 255 255 255 255 255 255 255 255 255 255 255 255 255 255 255 255 255 255 255 255 255 255 255 255 255 255 255 255 255 255 255 255 255 255 255 255 255 255 255 255 255 255 255 255 255 255 255 255 255 255 255 255 255 255 255 255 255 255 255 255 255 255 255 255 255 255 255 255 255 255 255 255 255 255 255 255 255 253 255 255 255 255 255 255 254 254 254 
15 13 14 11 12 14 10 14 15 12 13 17 10 14 15 11 11 13 12 10 13 12 11 16 16 14 17 23 17 17 26 18 16 26 18 16 24 19 16 20 16 15 15 13 16 11 12 14 8 12 15 6 12 12 8 14 14 8 13 16 9 13 16 9 13 16 8 12 15 9 13 16 9 13 14 11 12 14 13 13 15 14 14 14 20 18 19 25 21 20 27 21 23 20 16 17 17 13 14 47 45 46 196 194 195 255 255 255 255 255 255 255 255 255 255 255 255 255 255 255 255 255 255 255 255 255 255 255 255 255 255 255 255 255 255 255 255 255 255 255 255 255 255 255 255 255 255 255 255 255 255 255 255 255 255 255 255 255 255 255 255 255 255 255 255 255 255 255 255 255 255 255 255 255 255 255 255 255 255 255 255 255 255 255 255 255 255 255 255 255 255 255 255 255 255 255 255 255 255 255 255 255 255 255 255 255 255 255 255 255 255 255 255 255 255 255 255 255 255 255 255 255 255 255 255 255 255 255 255 255 255 255 255 255 255 255 255 255 255 255 255 255 255 255 255 255 255 255 255 255 255 255 255 255 255 255 255 255 255 255 255 255 255 255 255 255 255 255 255 255 255 255 255 255 255 255 255 255 255 255 255 255 255 255 255 255 255 255 255 255 255 255 255 255 255 255 255 255 255 255 
11 12 14 8 12 13 8 12 13 9 13 14 11 12 14 10 11 15 12 12 14 12 12 14 16 14 17 21 17 18 22 16 16 21 17 16 20 16 13 17 13 14 12 12 14 10 12 11 7 11 14 6 11 15 9 13 16 12 13 17 13 14 18 8 12 13 7 11 12 7 13 13 7 11 14 12 12 14 15 15 17 29 23 23 39 33 33 43 34 35 40 34 36 29 23 25 13 13 15 13 13 15 15 15 15 134 134 134 255 255 255 255 255 255 255 253 254 255 255 255 255 255 255 255 255 255 255 255 255 255 255 255 255 255 255 255 255 255 255 255 255 254 254 254 255 255 255 255 255 255 255 255 255 255 255 255 255 255 255 255 255 255 255 255 255 255 255 255 255 255 255 255 255 255 255 255 255 255 255 255 255 255 255 255 255 255 255 255 255 255 255 255 255 255 255 255 255 255 255 255 255 255 255 255 255 255 255 255 255 255 255 255 255 255 255 255 255 255 255 255 255 255 255 255 255 255 255 255 255 255 255 255 255 255 255 255 255 255 255 255 255 255 255 255 255 255 255 255 255 255 255 255 255 255 255 255 255 255 255 255 255 255 255 255 255 255 255 255 255 255 255 255 255 255 255 255 255 255 255 255 255 255 255 255 255 255 255 255 255 255 255 255 255 255 255 255 255 255 255 255 
8 12 13 7 13 13 7 11 12 9 13 14 11 12 14 11 12 14 11 12 14 12 12 14 15 13 14 20 16 17 19 15 14 17 16 14 19 15 14 15 13 14 11 11 13 8 9 11 7 11 14 6 10 13 9 13 14 9 13 14 11 12 14 8 12 13 7 11 12 7 11 14 7 11 12 13 14 16 22 20 21 42 32 33 50 41 42 53 43 44 46 37 40 31 25 27 11 11 11 12 12 14 12 13 17 12 13 15 54 58 59 224 224 224 255 255 255 255 255 255 254 254 254 255 255 255 255 255 255 255 255 255 254 254 254 255 255 255 255 255 255 255 255 255 255 255 255 255 255 255 255 255 255 255 255 255 255 255 255 255 255 255 255 255 255 255 255 255 255 255 255 255 255 255 255 255 255 255 255 255 255 255 255 255 255 255 255 255 255 255 255 255 255 255 255 255 255 255 255 255 255 255 255 255 255 255 255 255 255 255 255 255 255 255 255 255 255 255 255 255 255 255 255 255 255 255 255 255 255 255 255 255 255 255 255 255 255 255 255 255 255 255 255 255 255 255 255 255 255 255 255 255 255 255 255 255 255 255 255 255 255 255 255 255 255 255 255 255 255 255 255 255 255 255 255 255 255 255 255 255 255 255 255 255 255 255 255 255 255 255 255 255 255 255 255 255 255 255 255 255 
8 12 11 7 13 13 8 12 13 8 12 13 12 13 15 12 14 13 12 13 15 11 12 14 12 14 13 14 14 14 14 12 13 15 13 14 14 14 14 12 12 12 11 12 14 8 12 13 7 11 12 7 11 12 8 12 13 9 13 14 10 11 13 8 12 13 8 12 13 8 12 15 12 13 15 18 19 21 30 28 29 52 42 41 58 49 50 56 45 49 42 36 38 21 19 20 9 10 12 7 11 12 9 15 15 8 12 13 6 10 11 23 25 24 163 163 163 255 255 255 255 255 255 255 255 255 255 255 255 255 255 255 255 255 255 255 255 255 255 255 255 255 255 255 255 255 255 255 255 255 255 255 255 255 255 255 255 255 255 255 255 255 255 255 255 255 255 255 255 255 255 255 255 255 255 255 255 255 255 255 255 255 255 255 255 255 255 255 255 255 255 255 255 255 255 255 255 255 255 255 255 255 255 255 255 255 255 255 255 255 255 255 255 255 255 255 255 255 255 255 255 255 255 255 255 255 255 255 255 255 255 255 255 255 255 255 255 255 255 255 255 255 255 255 255 255 255 255 255 255 255 255 255 255 255 255 255 255 255 255 255 255 255 255 255 255 255 255 255 255 255 255 255 255 255 255 255 255 255 255 255 255 255 255 255 255 255 255 255 255 255 255 255 255 255 255 255 255 255 255 
8 12 13 7 13 13 8 12 13 9 13 14 11 12 14 12 13 15 11 12 14 10 12 11 10 11 13 10 12 11 10 12 11 11 13 12 10 12 11 10 12 11 13 11 14 12 12 14 10 11 13 9 13 14 11 12 16 10 14 15 9 13 14 8 12 13 7 11 12 7 11 12 10 14 15 17 18 20 22 22 24 35 31 32 33 35 34 26 26 28 13 13 15 6 7 9 7 11 12 5 10 13 6 11 14 7 11 12 12 14 11 26 25 23 26 25 23 79 78 76 224 226 225 255 255 255 255 255 255 255 255 255 255 255 255 255 255 255 255 255 255 255 255 255 255 255 255 255 255 255 255 255 255 255 255 255 255 255 255 255 255 255 255 255 255 255 255 255 255 255 255 255 255 255 255 255 255 255 255 255 255 255 255 255 255 255 255 255 255 255 255 255 255 255 255 255 255 255 255 255 255 255 255 255 255 255 255 255 255 255 255 255 255 255 255 255 255 255 255 255 255 255 255 255 255 255 255 255 255 255 255 255 255 255 255 255 255 255 255 255 255 255 255 255 255 255 255 255 255 255 255 255 255 255 255 255 255 255 255 255 255 255 255 255 255 255 255 255 255 255 255 255 255 255 255 255 255 255 255 255 255 255 255 255 255 255 255 255 255 255 255 255 255 255 255 255 255 255 255 255 
8 12 15 8 12 13 8 12 15 8 12 15 11 12 14 10 11 13 9 10 12 8 12 13 8 12 13 8 12 11 10 12 11 10 12 11 7 11 10 11 12 14 12 13 15 10 14 15 12 13 15 13 14 16 12 13 15 9 13 14 8 12 13 7 12 15 7 11 14 7 12 15 13 14 18 15 16 18 16 18 17 14 14 16 10 11 13 9 10 12 9 10 14 6 10 13 5 11 11 7 13 13 6 12 12 6 10 11 19 20 22 33 32 30 28 27 25 16 16 14 4 8 9 132 134 133 254 255 255 255 255 255 254 254 254 255 255 255 255 255 255 255 255 255 255 255 255 255 255 255 255 255 255 255 255 255 255 255 255 255 255 255 255 255 255 255 255 255 255 255 255 255 255 255 255 255 255 255 255 255 255 255 255 255 255 255 255 255 255 255 255 255 255 255 255 255 255 255 255 255 255 255 255 255 255 255 255 255 255 255 255 255 255 255 255 255 255 255 255 255 255 255 255 255 255 255 255 255 255 255 255 255 255 255 255 255 255 255 255 255 255 255 255 255 255 255 255 255 255 255 255 255 255 255 255 255 255 255 255 255 255 255 255 255 255 255 255 255 255 255 255 255 255 255 255 255 255 255 255 255 255 255 255 255 255 255 255 255 255 255 255 255 255 255 255 255 255 255 255 255 
8 12 15 8 12 15 8 11 16 8 12 15 12 12 14 14 14 16 13 14 16 12 13 15 10 12 11 8 12 13 7 11 10 7 11 10 7 11 12 9 13 16 14 14 14 14 14 14 14 14 16 15 15 17 12 13 15 8 12 13 7 13 13 6 11 14 7 10 15 7 12 15 10 14 17 12 16 19 9 13 14 7 8 12 4 8 11 5 9 12 7 11 12 6 11 14 6 10 11 6 11 14 7 12 15 7 11 12 18 19 21 25 27 26 21 21 21 12 14 13 5 9 10 7 12 15 38 42 45 162 163 165 255 255 255 255 253 254 255 255 255 255 255 255 255 255 255 255 255 255 255 255 255 255 255 255 255 255 255 255 255 255 255 255 255 255 255 255 255 255 255 255 255 255 255 255 255 255 255 255 255 255 255 255 255 255 255 255 255 255 255 255 255 255 255 255 255 255 255 255 255 255 255 255 255 255 255 255 255 255 255 255 255 255 255 255 255 255 255 255 255 255 255 255 255 255 255 255 255 255 255 255 255 255 255 255 255 255 255 255 255 255 255 255 255 255 255 255 255 255 255 255 255 255 255 255 255 255 255 255 255 255 255 255 255 255 255 255 255 255 255 255 255 255 255 255 255 255 255 255 255 255 255 255 255 255 255 255 255 255 255 255 255 255 255 255 255 255 255 255 
8 12 15 8 11 16 7 10 15 6 10 13 11 12 14 17 17 19 17 18 20 15 16 18 13 14 16 8 12 13 7 11 12 8 12 13 9 13 14 11 12 14 14 14 14 15 15 15 17 15 18 15 15 17 12 12 14 7 11 12 6 12 12 5 11 11 6 11 14 7 12 15 10 15 18 9 14 17 8 13 16 6 10 13 5 11 11 4 12 14 7 12 15 6 11 15 5 10 13 6 11 14 7 13 13 8 14 14 11 17 17 17 18 20 10 14 15 7 11 14 5 10 13 8 12 15 7 12 15 6 11 14 68 72 73 223 225 224 255 255 255 254 255 255 255 255 255 255 255 255 255 255 255 255 255 255 255 255 255 255 255 255 255 255 255 255 255 255 255 255 255 255 255 255 255 255 255 255 255 255 255 255 255 255 255 255 255 255 255 255 255 255 255 255 255 255 255 255 255 255 255 255 255 255 255 255 255 255 255 255 255 255 255 255 255 255 255 255 255 255 255 255 255 255 255 255 255 255 255 255 255 255 255 255 255 255 255 255 255 255 255 255 255 255 255 255 255 255 255 255 255 255 255 255 255 255 255 255 255 255 255 255 255 255 255 255 255 255 255 255 255 255 255 255 255 255 255 255 255 255 255 255 255 255 255 255 255 255 255 255 255 255 255 255 255 255 255 255 255 255 
9 13 16 7 12 16 7 11 14 7 11 14 14 15 19 23 23 25 25 25 27 22 23 25 19 19 21 9 13 14 7 11 12 7 11 12 9 13 16 11 12 14 13 13 15 15 13 16 16 14 15 16 15 13 10 10 8 8 12 13 6 12 12 3 11 13 7 12 15 6 11 14 8 13 16 7 12 15 7 12 15 5 10 14 3 11 13 6 11 14 6 10 13 7 11 14 5 10 13 5 10 13 6 11 14 8 12 13 4 9 12 5 9 10 6 10 11 8 12 13 7 11 14 6 11 14 6 11 14 6 11 14 4 12 14 6 11 14 99 103 104 223 225 224 255 255 255 255 255 255 255 255 255 255 255 255 255 255 255 255 255 255 255 255 255 255 255 255 255 255 255 255 255 255 255 255 255 255 255 255 255 255 255 255 255 255 255 255 255 255 255 255 255 255 255 255 255 255 255 255 255 255 255 255 255 255 255 255 255 255 255 255 255 255 255 255 255 255 255 255 255 255 255 255 255 255 255 255 255 255 255 255 255 255 255 255 255 255 255 255 255 255 255 255 255 255 255 255 255 255 255 255 255 255 255 255 255 255 255 255 255 255 255 255 255 255 255 255 255 255 255 255 255 255 255 255 255 255 255 255 255 255 255 255 255 255 255 255 255 255 255 255 255 255 255 255 255 255 255 255 
8 12 15 8 11 16 7 12 15 8 13 16 15 19 20 27 27 27 26 26 28 24 24 26 18 17 22 11 15 18 6 11 14 6 10 13 8 11 16 8 12 15 9 10 12 16 16 18 20 18 19 23 21 22 13 11 12 7 11 12 4 13 12 4 14 13 4 12 14 7 12 15 6 11 14 7 12 15 5 10 13 6 11 14 5 10 13 5 10 13 6 11 14 7 12 15 4 9 12 5 10 13 5 10 13 6 11 14 6 10 13 7 11 12 7 11 12 8 12 11 9 13 16 6 11 14 5 10 13 5 10 13 7 13 13 5 10 13 3 11 13 6 11 14 99 103 104 224 224 224 255 255 255 255 255 255 255 255 255 255 255 255 255 255 255 255 255 253 255 255 255 255 255 255 255 255 255 255 255 255 255 255 255 255 255 255 255 255 255 255 255 255 255 255 255 255 255 255 255 255 255 255 255 255 255 255 255 255 255 255 254 254 254 255 255 255 255 255 255 255 255 255 255 255 255 255 255 255 255 255 255 255 255 255 255 255 255 255 255 255 255 255 255 255 255 255 255 255 255 255 255 255 255 255 255 255 255 255 255 255 255 255 255 255 255 255 255 255 255 255 255 255 255 255 255 255 255 255 255 255 255 255 255 255 255 255 255 255 255 255 255 255 255 255 255 255 255 255 255 255 
8 12 15 9 14 18 9 14 17 10 14 17 16 16 18 23 23 23 21 21 23 19 19 21 14 15 17 11 15 18 7 12 15 6 11 14 7 12 15 5 9 12 11 12 14 22 23 25 31 29 32 32 30 31 13 13 13 7 11 12 3 12 11 4 12 14 5 13 15 6 11 14 6 11 14 7 12 15 3 11 13 5 10 13 5 10 13 6 11 14 4 12 14 7 12 15 6 11 14 4 9 12 5 10 13 6 11 14 8 12 15 9 13 16 10 14 15 8 12 13 6 11 14 6 11 14 6 11 14 7 12 15 6 11 14 4 12 14 5 10 13 3 11 13 5 11 11 9 13 16 76 77 79 194 194 196 255 255 255 255 255 255 255 255 253 255 255 255 255 255 255 255 255 255 255 255 255 255 255 255 255 255 255 255 255 255 255 255 255 255 255 255 255 255 255 255 255 255 255 255 255 254 254 254 255 255 255 254 254 254 255 255 255 255 255 255 255 255 255 255 255 255 255 255 255 255 255 255 255 255 255 255 255 255 255 255 255 255 255 255 255 255 255 255 255 255 255 255 255 255 255 255 255 255 255 255 255 255 255 255 255 255 255 255 255 255 255 255 255 255 255 255 255 255 255 255 255 255 255 255 255 255 255 255 255 255 255 255 255 255 255 255 255 255 255 255 255 255 255 255 
6 11 14 9 14 17 9 14 17 11 15 18 14 15 19 17 18 20 19 19 21 17 17 19 13 14 16 10 14 15 8 13 16 7 12 15 7 12 15 4 8 11 14 15 17 26 30 31 35 35 37 34 34 34 14 14 14 6 10 11 6 12 12 7 12 15 8 13 16 6 11 14 7 12 15 9 13 14 8 13 16 6 11 14 5 10 13 5 10 13 4 12 15 6 11 14 6 11 14 5 10 13 6 11 14 6 11 14 10 14 17 10 14 17 9 13 16 8 12 13 6 11 14 6 11 14 6 11 14 7 12 15 6 11 14 4 12 14 5 10 13 4 9 12 7 11 14 11 15 18 22 23 25 16 17 19 43 44 46 161 162 164 255 255 255 255 255 255 255 255 255 255 255 255 254 254 254 255 255 255 255 255 255 255 255 255 255 255 255 254 254 254 254 254 254 255 255 255 255 255 255 255 255 255 255 255 255 255 255 255 255 255 255 255 255 255 255 255 255 255 255 255 255 255 255 255 255 255 255 255 255 255 255 255 255 255 255 255 255 255 255 255 255 255 255 255 255 255 255 255 255 255 255 255 255 255 255 255 255 255 255 255 255 255 255 255 255 255 255 255 255 255 255 255 255 255 255 255 255 255 255 255 255 255 255 255 255 255 255 255 255 255 255 255 255 255 255 255 255 255 
9 13 14 11 16 19 11 17 17 11 16 19 12 16 17 13 17 18 14 15 17 14 15 17 13 17 18 10 16 16 8 13 16 9 13 16 8 12 15 4 8 11 13 17 18 29 30 32 34 35 37 31 32 34 10 14 15 5 10 13 5 11 11 7 12 15 7 12 15 7 12 15 11 12 14 11 15 16 12 16 17 10 11 15 5 10 13 4 9 12 6 11 14 6 11 14 5 10 13 6 11 14 5 10 13 6 11 14 11 15 18 12 16 19 10 14 17 8 12 15 6 10 13 6 11 14 6 11 14 7 12 15 7 12 16 6 11 14 4 12 14 4 9 12 4 9 12 13 17 18 29 29 31 22 22 24 13 14 16 5 9 12 39 43 46 99 103 104 223 225 224 255 255 255 255 255 255 255 255 255 255 255 255 255 255 255 255 255 253 254 254 254 255 255 255 255 255 255 255 255 255 255 255 255 255 255 255 255 255 255 255 255 255 255 255 255 255 255 255 255 255 255 255 255 255 255 255 255 255 255 255 255 255 255 255 255 255 255 255 255 255 255 255 255 255 255 255 255 255 255 255 255 255 255 255 255 255 255 255 255 255 255 255 255 255 255 255 255 255 255 255 255 255 255 255 255 255 255 255 255 255 255 255 255 255 255 255 255 255 255 255 255 255 255 255 255 255 255 255 255 
10 14 15 9 13 16 8 14 14 8 12 15 6 11 14 8 12 15 9 13 16 10 14 15 11 15 16 7 13 13 7 12 15 9 13 16 8 12 15 6 10 13 7 11 14 11 15 16 17 18 20 14 18 19 7 12 15 6 11 14 7 11 12 8 12 15 9 13 16 9 12 17 22 22 24 30 30 30 32 32 32 14 15 17 6 11 14 4 9 12 7 11 14 6 11 14 5 10 13 5 10 13 5 10 13 6 11 14 14 18 21 15 19 22 13 17 20 8 12 15 6 11 14 7 12 15 5 10 13 6 11 14 6 11 15 6 11 14 6 11 14 5 10 13 6 11 14 7 11 12 18 16 19 18 16 19 14 15 17 6 10 13 6 11 14 8 12 15 5 10 13 68 72 75 162 163 165 224 224 224 255 255 255 255 255 255 255 255 255 255 255 253 255 255 255 255 255 255 255 255 255 255 255 255 255 255 255 255 255 255 255 255 255 255 255 255 255 255 255 255 255 255 255 255 255 255 255 255 255 255 255 255 255 255 255 255 255 255 255 255 255 255 255 255 255 255 255 255 255 255 255 255 255 255 255 255 255 255 255 255 255 255 255 255 255 255 255 255 255 255 255 255 255 255 255 255 255 255 255 255 255 255 255 255 255 255 255 255 255 255 255 255 255 255 255 255 255 255 255 255 
8 14 14 8 12 13 8 12 13 8 12 13 6 11 14 7 11 12 7 11 14 8 12 15 9 13 14 7 11 12 7 11 14 7 12 15 8 13 16 7 11 14 6 10 13 7 11 14 6 11 14 7 11 12 8 12 13 8 12 13 9 13 16 7 11 14 4 8 11 18 20 19 35 33 34 45 41 40 39 37 38 18 19 21 8 12 15 6 11 14 7 12 15 5 10 13 6 11 14 7 12 15 6 11 14 6 11 14 13 17 20 14 18 21 11 15 18 9 13 16 6 11 14 6 11 14 6 11 14 7 12 15 6 11 15 3 11 13 5 10 13 6 11 14 7 11 14 7 12 15 10 14 15 9 13 14 8 12 15 7 11 14 6 11 14 6 11 14 4 9 13 5 9 12 4 8 9 10 14 15 86 90 91 178 180 179 255 255 255 255 255 255 255 255 255 255 255 255 254 254 254 255 255 255 255 255 255 255 255 255 255 255 255 255 255 255 255 255 255 255 255 255 255 255 255 255 255 255 255 255 255 255 255 255 255 255 255 255 255 255 255 255 255 255 255 255 255 255 255 255 255 255 255 255 255 255 255 255 255 255 255 255 255 255 255 255 255 255 255 255 255 255 255 255 255 255 255 255 255 255 255 255 255 255 255 255 255 255 255 255 255 255 255 255 255 255 255 255 255 255 
9 13 14 5 10 13 9 13 14 8 13 16 7 11 14 5 11 11 6 10 13 6 10 13 6 10 11 6 10 11 8 12 15 6 11 14 6 11 14 7 11 14 7 11 14 6 10 13 6 10 13 5 9 12 9 13 16 8 12 15 9 13 16 6 11 14 4 8 11 25 25 27 43 39 40 49 43 43 43 37 37 20 21 23 9 13 16 6 11 14 7 12 15 6 11 14 6 11 14 6 11 14 4 9 12 5 10 13 12 16 19 14 18 21 11 15 18 9 13 16 7 11 14 6 11 14 6 11 15 5 10 13 6 11 15 4 12 14 4 12 15 4 12 14 5 10 13 7 11 14 8 12 13 6 11 14 6 11 14 5 10 14 6 11 14 5 10 13 6 11 14 10 14 15 16 17 21 24 25 27 19 20 22 12 16 19 21 25 26 100 104 105 164 166 165 239 241 240 255 255 255 255 255 255 255 255 255 254 254 254 254 254 254 255 255 255 255 255 255 255 255 255 255 255 255 255 255 255 255 255 255 255 255 255 255 255 255 255 255 255 255 255 255 255 255 255 255 255 255 255 255 255 255 255 255 255 255 255 255 255 255 255 255 255 255 255 255 255 255 255 255 255 255 255 255 255 255 255 255 255 255 255 255 255 255 255 255 255 255 255 255 255 255 255 255 255 255 255 255 255 
7 11 12 9 13 16 9 13 14 10 14 15 9 15 15 6 12 12 5 10 13 6 10 13 8 9 11 7 11 12 8 12 13 7 11 12 6 10 13 7 11 14 7 11 14 7 11 14 6 10 13 8 9 13 7 12 15 6 11 14 8 12 13 5 10 13 3 7 8 27 28 30 45 39 41 49 43 43 41 35 35 21 21 23 9 13 16 7 12 15 6 11 14 5 10 13 7 12 15 7 12 15 6 11 14 6 11 14 10 14 17 10 14 17 10 14 17 9 13 16 6 11 14 7 11 14 6 11 15 6 11 14 6 11 14 5 10 13 4 12 15 6 11 14 5 10 13 7 11 14 6 11 15 6 11 15 5 10 13 5 10 13 5 10 13 5 10 13 10 14 17 18 22 25 34 36 35 39 41 40 25 29 30 14 18 19 6 10 13 10 14 17 10 18 20 11 16 19 70 74 77 162 163 165 209 209 211 255 255 255 255 255 255 255 255 255 255 255 255 255 255 255 255 255 255 255 255 255 255 255 255 255 255 255 255 255 255 255 255 255 255 255 255 255 255 255 255 255 255 255 255 255 255 255 255 255 255 255 255 255 255 255 255 255 255 255 255 255 255 255 255 255 255 255 255 255 255 255 255 255 255 255 255 255 255 255 255 255 255 255 255 255 255 255 255 255 255 255 255 255 
5 10 13 9 14 17 10 15 18 11 16 19 8 13 16 6 11 14 6 11 14 5 10 13 4 9 12 6 10 13 7 12 15 7 11 14 6 10 13 5 10 13 8 12 15 7 12 15 6 10 13 6 11 14 6 11 14 5 10 13 5 11 11 7 11 12 4 8 9 28 28 30 39 37 38 42 36 38 34 32 33 15 16 18 7 11 14 7 12 15 7 12 15 6 11 14 6 11 14 6 11 14 5 13 15 6 11 14 6 11 14 10 15 18 10 14 17 10 14 17 7 12 15 6 11 14 6 11 14 6 11 14 5 10 13 6 11 14 3 11 13 3 11 13 6 11 14 5 10 13 6 11 14 6 11 15 5 10 14 5 10 14 10 14 17 6 7 12 15 19 20 31 33 32 51 51 49 49 49 47 32 34 33 13 17 18 8 12 15 10 14 17 13 17 20 12 17 20 9 14 17 5 10 13 6 11 14 38 42 43 100 104 105 178 179 181 225 225 225 255 255 255 255 255 255 255 255 253 255 255 255 255 255 253 254 254 254 253 254 255 255 255 255 255 255 255 255 255 255 255 255 255 255 255 255 255 255 255 255 255 255 255 255 255 255 255 255 255 255 255 255 255 255 255 255 255 255 255 253 255 255 255 255 255 255 255 255 253 255 255 255 255 255 255 255 255 255 255 255 255 
6 11 14 7 12 15 9 14 17 10 15 18 8 13 16 7 12 15 6 11 14 6 11 14 6 10 13 7 12 15 7 11 14 6 11 14 6 11 14 6 10 13 6 11 14 6 10 13 6 10 13 6 11 14 5 10 13 5 10 13 8 12 15 8 12 13 6 10 11 16 17 19 24 24 26 26 24 27 23 23 25 12 13 15 7 12 15 7 13 13 7 12 15 5 10 13 7 11 14 7 11 14 5 10 13 5 10 13 6 11 14 9 14 17 10 14 17 9 13 16 7 12 15 5 10 13 4 9 12 5 10 13 6 11 14 6 11 14 3 11 13 3 11 13 5 10 13 6 11 14 5 10 13 6 11 15 5 10 16 5 10 14 8 12 15 4 8 11 15 19 20 29 31 30 45 45 45 41 41 39 27 28 30 14 18 19 9 13 16 10 14 17 13 17 18 12 16 19 9 14 17 8 13 16 7 12 15 7 12 15 9 13 16 9 13 16 10 15 18 53 58 61 101 102 104 177 178 180 225 225 225 255 255 255 255 255 255 255 255 255 255 255 255 255 255 255 255 255 255 255 255 255 255 255 255 255 255 255 255 255 255 255 255 255 255 255 255 255 255 255 255 255 255 255 255 255 255 255 255 255 255 255 255 255 255 255 255 255 255 255 255 255 255 255 255 255 255 255 255 255 
5 10 13 5 10 13 7 12 15 8 13 16 7 12 15 7 12 15 6 11 14 7 12 15 6 11 14 6 11 14 5 10 13 4 9 12 6 11 14 6 11 14 6 11 14 6 11 14 7 11 14 10 11 15 5 10 13 6 11 14 7 12 15 7 12 15 7 11 14 7 11 14 11 12 14 10 14 15 12 13 15 8 12 13 7 12 15 5 10 13 5 9 12 4 9 12 11 12 16 12 16 19 13 14 18 7 12 15 6 11 14 8 13 16 8 13 16 8 13 16 8 13 16 7 12 15 6 11 14 6 11 14 7 12 15 6 11 14 6 11 14 6 11 14 6 11 14 6 11 14 6 11 14 6 11 14 7 12 16 6 11 14 9 13 16 7 11 14 12 16 19 20 21 23 27 28 30 25 27 26 17 18 22 11 15 16 10 14 17 10 14 17 12 16 17 11 15 18 7 12 15 8 13 16 9 14 17 9 14 17 10 15 18 10 15 18 9 14 17 7 12 15 10 11 15 9 10 15 8 12 15 23 27 30 84 88 89 129 135 135 194 196 195 239 241 240 255 255 255 255 255 255 255 255 255 255 255 255 255 254 255 255 255 255 255 255 255 255 255 255 255 255 255 255 255 255 255 255 255 255 255 255 255 255 255 255 255 255 255 255 255 255 255 255 254 254 254 255 255 255 
6 11 14 5 10 13 6 11 14 8 13 16 7 12 15 6 11 14 6 11 14 8 13 16 7 12 15 6 11 14 6 11 14 6 11 14 7 12 15 5 10 13 5 10 13 6 11 14 6 11 14 7 12 15 7 11 14 5 10 13 6 11 14 6 11 14 6 11 14 5 10 13 3 9 9 4 10 10 3 9 9 5 11 11 4 12 14 5 10 13 3 8 11 3 8 11 15 16 20 16 17 21 14 18 21 10 14 17 6 11 14 7 12 15 8 13 16 5 15 16 9 14 17 7 12 15 6 11 14 6 11 14 7 12 15 6 11 14 6 11 14 5 10 13 6 11 14 6 11 14 6 11 14 7 12 15 6 11 14 7 12 15 7 12 15 8 12 15 9 13 16 12 16 17 11 15 18 11 15 16 9 13 16 9 13 14 10 14 17 10 14 17 10 15 18 9 14 17 9 13 16 9 13 16 9 14 17 9 14 17 11 16 19 10 15 18 8 13 16 7 13 13 7 12 15 7 12 15 7 13 13 8 13 17 8 11 16 9 13 16 7 12 15 7 12 15 37 41 44 69 73 74 116 117 119 178 179 181 209 209 211 255 255 255 255 255 255 253 255 254 255 255 255 255 255 255 255 255 255 255 255 255 255 255 255 255 255 255 255 255 255 255 255 255 255 255 255 255 255 255 
7 12 15 7 12 15 7 12 15 8 13 16 6 11 14 5 10 13 5 10 13 6 11 14 5 10 13 6 11 14 7 12 15 6 11 14 6 11 14 5 10 13 4 9 12 5 10 13 7 11 14 6 11 14 5 10 13 5 10 13 6 11 14 6 11 14 5 10 13 5 10 13 5 10 13 5 10 13 4 9 12 4 9 12 5 10 13 6 10 13 3 8 11 5 10 13 12 16 19 14 18 21 13 17 20 8 13 16 6 11 14 6 11 14 7 12 15 7 12 15 9 14 17 8 13 16 6 11 14 7 12 15 7 12 15 6 11 14 6 11 14 6 11 14 6 11 14 6 11 14 6 11 14 7 12 15 6 11 15 6 11 14 5 10 14 6 11 14 8 12 15 8 12 15 7 11 14 7 11 14 8 12 15 7 11 14 8 12 15 10 14 17 9 14 17 8 13 16 8 12 15 7 11 14 9 13 16 13 17 18 11 15 18 8 13 16 7 12 15 7 12 15 8 12 15 8 12 15 9 13 16 8 12 15 8 12 15 7 12 15 8 12 15 8 12 15 8 12 15 6 11 14 8 12 13 8 12 13 10 11 13 11 12 14 57 58 60 70 74 75 117 118 120 148 149 151 194 194 194 210 210 210 254 255 255 255 255 255 255 255 255 255 255 255 255 255 255 255 255 255 
6 11 14 6 11 14 7 12 15 8 13 16 7 12 15 5 10 13 5 10 13 6 11 14 6 11 14 7 12 15 7 12 15 7 12 15 7 12 15 5 10 13 4 9 12 5 10 13 6 11 14 7 11 14 5 10 13 6 11 14 6 11 14 6 11 14 6 10 13 5 10 13 5 10 13 3 11 13 4 9 12 3 11 13 6 11 14 6 11 15 4 9 12 5 10 13 6 11 14 6 10 13 4 12 14 6 11 14 6 11 14 6 11 14 7 12 15 6 11 14 8 13 16 7 12 15 6 11 14 7 12 15 6 11 14 6 11 14 6 11 14 6 11 14 6 11 14 6 11 14 6 11 14 6 11 14 7 12 15 6 11 14 6 11 14 6 12 12 7 12 15 7 11 14 8 12 15 9 13 16 7 11 14 7 11 14 6 10 13 7 11 14 8 12 15 8 12 15 9 13 16 6 10 11 10 14 15 13 19 19 11 15 16 8 12 13 5 9 10 7 11 12 7 11 14 6 11 14 7 11 14 7 11 14 7 11 14 7 12 15 9 13 16 9 13 14 8 12 13 9 13 14 12 13 15 12 13 15 14 14 14 15 15 15 12 13 15 9 13 14 8 12 13 9 13 14 11 12 14 13 15 14 15 17 16 33 33 35 75 75 75 92 92 92 123 123 123 150 150 150 
5 10 13 6 11 14 7 12 15 8 13 16 7 12 15 6 11 14 6 11 14 7 12 15 6 11 14 6 11 14 7 12 15 5 10 13 5 10 13 5 10 13 5 10 13 6 11 14 5 10 13 7 11 14 7 11 14 5 10 13 5 10 13 5 10 13 7 11 14 6 11 14 5 10 13 5 10 13 5 10 13 6 11 14 5 10 13 6 11 14 5 10 13 6 11 14 5 10 13 5 10 13 6 11 14 5 10 13 5 10 13 5 10 13 3 11 13 6 11 14 7 12 15 6 11 14 7 12 15 7 12 15 6 11 14 6 11 14 6 11 14 6 11 14 6 11 15 7 12 16 6 11 15 7 12 15 6 11 14 7 12 15 6 11 14 6 11 14 6 11 14 6 11 14 6 10 13 8 12 15 7 11 14 7 11 14 7 11 14 8 12 15 9 13 16 10 14 17 9 13 16 8 14 14 12 16 17 10 14 15 9 13 14 8 12 13 7 11 14 7 11 14 8 12 13 9 13 14 9 13 14 8 12 13 9 10 12 7 11 14 9 13 14 8 12 13 8 9 11 11 12 14 16 16 16 21 19 20 23 21 22 18 16 17 15 15 17 10 11 13 9 13 14 12 13 15 12 13 15 14 16 15 18 18 18 18 18 20 18 18 20 17 17 19 17 17 19 15 15 17 
7 12 15 7 12 15 7 12 15 8 13 16 6 11 14 5 10 13 5 10 13 6 11 14 6 11 14 6 11 14 7 12 15 5 10 13 5 10 13 6 11 14 6 11 14 6 11 14 6 10 13 5 10 13 6 11 14 5 10 13 5 10 13 3 11 13 5 10 13 6 11 14 6 11 14 5 10 13 5 10 13 6 11 14 6 11 14 5 10 14 3 11 13 5 10 13 4 9 12 3 11 13 6 11 14 5 10 13 6 11 14 6 11 14 6 11 14 6 11 14 7 11 14 5 10 13 7 12 15 7 12 15 7 12 15 6 11 14 7 12 15 7 12 15 7 12 15 6 11 14 7 12 15 6 11 14 6 11 14 7 12 16 7 12 15 5 10 13 5 10 13 5 10 13 4 12 14 8 13 16 10 14 17 8 12 15 8 12 15 7 12 15 9 13 14 9 13 14 10 14 15 11 15 16 12 16 17 9 13 14 8 12 13 8 12 15 10 11 13 11 12 14 12 13 15 13 14 16 12 13 15 12 13 15 13 13 15 12 14 13 13 14 16 14 14 16 11 11 13 15 13 14 20 19 17 26 22 21 27 23 22 21 17 14 15 13 14 12 12 12 13 14 16 16 16 18 16 16 16 17 17 17 20 20 22 18 18 20 17 17 17 17 17 17 17 17 17 12 13 15 
8 13 16 8 13 16 8 13 16 7 12 15 6 11 14 6 11 14 7 12 15 7 12 15 7 12 15 6 11 14 5 10 13 5 10 13 5 10 13 6 11 14 6 12 12 6 12 12 5 10 13 4 9 12 6 10 13 5 10 13 5 10 13 7 11 14 4 12 14 4 12 14 6 11 14 5 10 13 5 10 13 6 11 14 7 12 15 7 12 15 6 11 14 5 10 13 6 11 14 4 10 10 5 10 13 5 10 13 5 10 13 5 10 13 5 10 13 4 9 12 5 10 13 5 10 13 5 10 13 5 10 13 7 12 15 6 11 14 7 12 15 7 12 15 8 13 16 6 11 14 7 12 16 7 12 15 5 13 15 6 11 14 7 12 16 5 10 13 5 11 11 5 10 13 8 12 13 12 15 20 12 16 19 9 13 16 7 12 15 7 12 15 8 12 13 7 11 12 10 14 15 14 15 19 13 14 16 10 14 15 8 12 13 8 12 11 9 13 14 16 16 18 17 15 18 18 16 19 16 16 18 17 17 19 17 17 19 17 17 19 16 16 18 18 18 20 14 14 14 18 17 15 23 17 17 28 22 22 28 24 21 22 18 15 16 15 13 12 14 13 13 14 16 17 15 16 16 16 18 17 17 19 19 19 19 16 18 17 16 18 17 16 17 19 15 16 18 9 13 16 
7 12 15 8 13 16 8 13 16 8 13 16 6 11 14 6 11 14 7 12 15 7 12 15 7 12 15 6 11 14 6 11 14 6 11 14 6 11 14 6 11 14 6 11 14 6 11 14 6 11 14 6 10 13 5 10 13 6 11 14 6 11 14 6 11 14 6 11 14 4 12 14 6 11 14 6 11 14 5 10 13 5 10 13 6 11 14 6 11 14 6 11 14 6 11 14 5 10 13 3 8 11 4 9 12 5 10 13 5 10 13 5 10 13 7 12 15 7 13 13 6 11 14 6 11 14 6 11 14 6 11 14 7 12 15 7 12 15 7 12 15 8 12 15 7 12 15 6 11 14 6 11 14 7 12 15 6 11 14 5 10 13 7 12 15 6 10 13 5 10 13 6 11 14 8 12 15 15 19 22 16 17 21 11 15 18 8 12 15 7 11 14 9 10 12 11 15 16 13 17 18 14 18 19 8 12 15 8 12 13 9 13 14 10 14 15 11 12 14 22 20 23 26 22 23 26 22 23 20 20 20 18 16 17 19 17 20 20 18 21 21 21 23 21 21 23 17 15 16 20 16 15 22 18 15 30 22 20 31 23 21 26 20 20 18 16 17 14 14 14 14 15 17 16 16 18 15 15 15 14 14 16 14 14 16 15 15 15 14 16 15 13 14 16 12 13 15 10 14 17 
6 11 14 5 10 13 6 11 14 5 10 13 5 10 13 6 11 14 6 11 14 7 12 15 7 13 13 6 12 12 5 10 13 5 10 13 5 10 13 5 10 13 5 10 13 5 10 13 6 11 14 5 10 13 5 10 13 6 11 14 6 11 14 4 12 14 6 11 14 6 11 14 6 11 14 6 11 14 6 11 14 6 11 14 7 12 15 6 11 14 5 10 13 6 11 14 5 11 11 5 10 13 5 10 13 6 11 14 6 11 14 7 12 15 7 12 15 7 12 15 7 12 15 6 11 14 7 12 15 6 11 14 8 13 16 6 11 14 7 12 15 6 11 14 4 12 14 5 10 13 3 8 11 8 12 15 8 13 16 7 12 15 4 9 12 7 11 14 5 11 11 5 10 13 4 8 11 11 15 18 14 15 19 12 16 17 13 14 18 14 15 17 16 17 19 17 18 20 14 18 19 12 13 15 9 13 14 10 14 17 10 14 13 14 15 17 13 15 14 25 21 22 32 26 28 32 28 29 27 23 24 17 15 16 19 17 20 21 19 22 21 21 23 16 16 18 15 13 14 19 15 14 24 18 18 28 23 20 29 21 19 26 22 21 20 18 19 15 15 15 13 14 16 9 13 14 11 13 12 11 12 14 8 14 14 12 13 15 13 14 16 12 13 15 12 13 15 10 14 15 
6 11 14 7 12 15 6 11 14 6 11 14 7 12 15 6 11 14 6 11 14 6 11 14 7 13 13 6 11 14 4 9 12 5 10 13 5 10 13 5 10 13 4 9 12 5 10 13 5 10 13 4 9 12 4 9 12 5 10 13 6 11 14 7 12 15 6 11 14 6 11 14 5 10 13 6 11 14 5 10 13 6 11 14 6 11 14 6 11 14 5 10 13 6 11 14 6 12 12 5 10 14 6 11 14 7 12 15 6 11 14 7 12 15 7 12 15 7 12 15 7 12 15 8 13 16 7 12 15 6 11 14 7 12 15 6 11 14 6 11 14 6 11 14 5 10 13 5 9 12 11 12 16 10 14 17 10 14 17 8 12 13 8 12 13 8 12 15 8 12 15 9 10 12 11 15 18 21 22 24 18 19 23 15 16 18 15 16 18 18 18 20 19 19 21 15 16 18 14 15 17 13 14 16 12 13 15 12 13 15 11 15 16 13 15 14 14 14 12 26 22 23 34 28 30 33 29 30 27 23 24 18 16 17 20 18 19 19 17 18 16 16 18 13 13 15 17 17 17 20 16 15 22 18 17 25 21 20 24 19 16 20 19 17 19 15 16 15 13 16 9 13 14 8 14 14 10 14 15 10 14 15 11 15 16 13 14 16 14 15 17 14 15 17 10 14 15 9 13 16 
5 10 13 7 12 15 6 11 14 7 12 15 7 12 15 7 12 15 6 11 14 5 10 13 6 11 14 6 11 14 5 10 13 5 10 13 7 12 15 7 12 15 6 11 14 6 12 12 4 12 14 5 10 13 5 10 13 6 11 14 6 11 14 6 11 14 6 11 14 5 10 13 6 11 14 6 11 14 6 11 14 5 10 13 6 11 14 6 11 14 6 11 14 6 11 14 5 10 13 6 11 14 6 11 14 7 12 15 6 11 14 6 11 14 7 13 13 7 12 15 7 12 15 7 12 15 8 13 16 8 12 15 7 12 15 5 10 13 7 12 15 6 11 14 3 12 11 6 10 11 15 16 18 15 15 17 13 14 18 12 13 15 10 14 15 11 12 16 12 13 15 17 18 20 23 23 25 33 33 35 30 30 32 22 22 24 19 14 18 18 18 20 17 17 19 12 12 14 9 10 12 11 12 14 14 15 17 11 15 16 13 14 16 12 14 13 13 13 15 20 18 19 29 25 26 30 24 26 25 21 22 21 17 18 21 17 18 18 16 17 14 12 13 12 12 14 16 16 16 17 15 16 18 16 17 21 20 18 22 18 17 18 18 16 16 14 15 12 13 15 10 14 15 8 12 13 8 12 13 12 13 15 13 14 16 15 16 18 15 16 18 11 15 16 14 15 17 12 13 15 
6 11 14 5 10 13 7 12 15 6 11 14 5 10 13 7 12 15 6 11 14 5 10 13 6 11 14 6 11 14 5 10 13 5 10 13 6 11 14 7 12 15 6 12 12 6 12 12 5 10 13 4 12 14 7 12 15 5 10 13 5 10 13 7 12 15 5 10 13 6 11 14 5 10 13 5 10 13 5 10 13 5 10 13 5 10 13 6 11 14 6 11 14 6 11 14 6 11 14 6 11 14 7 12 15 7 12 15 6 11 14 6 11 14 7 12 15 6 11 14 7 12 15 7 12 15 8 13 16 9 13 16 8 12 15 5 10 13 5 10 13 7 11 14 8 12 11 14 15 17 18 18 20 18 18 20 17 17 19 16 16 18 14 14 16 14 14 16 19 19 19 25 23 26 32 30 31 48 46 49 47 42 46 34 30 31 18 16 19 15 15 15 11 11 11 8 9 11 9 9 9 10 10 12 15 15 17 12 16 17 13 14 16 14 14 16 15 15 17 17 17 19 19 17 18 21 17 18 20 16 17 23 19 20 23 19 20 21 17 18 17 15 16 17 17 19 14 14 16 14 14 16 16 14 17 16 16 16 17 17 17 15 17 16 11 15 14 9 13 14 7 13 13 8 12 13 10 14 15 12 16 17 19 19 21 18 18 18 15 16 20 14 15 19 13 14 16 12 13 15 
6 11 14 5 10 13 4 9 12 3 8 11 5 10 13 6 11 14 7 12 15 6 11 14 5 10 13 6 11 14 5 10 13 5 10 13 5 10 13 7 12 15 6 11 14 6 11 14 6 11 14 6 11 14 7 12 15 4 12 14 5 10 13 5 10 13 4 12 14 5 10 13 5 10 13 5 10 13 5 10 13 5 10 13 6 11 14 6 11 14 5 10 13 5 10 13 7 12 15 6 12 12 6 11 14 6 11 14 7 12 15 7 12 15 7 12 15 7 12 15 7 12 15 8 14 14 10 13 18 9 13 14 8 12 13 5 10 14 7 11 12 11 12 16 13 14 16 19 19 21 19 17 20 18 16 19 17 17 17 18 16 17 17 15 16 20 18 19 24 22 23 29 27 30 38 34 35 57 53 54 58 54 55 46 42 43 31 27 28 11 9 10 28 26 27 34 33 31 31 29 30 24 22 23 17 15 18 16 16 18 16 16 18 17 17 19 16 16 16 15 15 15 16 14 15 15 13 14 15 11 12 31 29 30 32 30 31 25 23 24 20 18 19 22 20 23 16 16 16 15 15 17 14 14 16 11 13 12 12 13 15 11 12 14 9 10 12 8 12 13 7 11 12 8 12 13 9 13 14 14 16 15 21 21 21 21 19 20 16 16 16 14 16 15 12 13 15 12 13 15 
5 10 13 6 11 14 4 9 12 4 9 12 6 11 14 6 11 14 5 10 13 6 11 14 5 11 11 6 12 12 5 10 13 6 11 14 6 11 14 7 12 15 6 11 14 7 12 15 7 11 14 6 11 14 4 12 14 5 10 13 5 10 13 4 12 14 6 11 14 5 10 13 5 10 13 6 11 14 5 10 13 4 9 12 5 10 13 5 10 13 5 10 13 6 11 14 6 11 14 6 11 14 6 11 14 6 11 14 7 12 15 7 12 15 7 12 16 6 12 12 7 11 12 10 14 15 9 13 14 11 12 14 9 13 14 7 11 12 8 12 13 15 15 17 20 16 17 21 19 20 15 13 14 20 18 19 21 21 21 22 20 21 17 15 18 20 18 19 26 24 25 31 29 30 49 45 46 62 58 59 61 57 58 53 49 48 42 38 37 25 19 19 45 36 37 50 45 42 46 40 40 36 30 32 17 15 16 16 16 16 17 17 17 23 19 20 22 20 21 26 22 23 26 22 23 22 18 19 17 15 16 27 25 26 29 27 28 24 22 23 18 17 15 22 20 21 25 21 20 19 17 18 15 15 15 15 15 15 15 15 15 11 13 12 9 13 14 8 12 13 7 11 12 9 13 14 11 12 14 14 14 12 20 20 20 20 18 19 15 13 14 12 14 13 15 15 15 15 15 17 
7 11 14 5 10 13 4 9 12 5 10 13 6 11 14 5 10 13 6 11 14 5 10 13 6 11 14 6 11 14 5 10 13 5 10 13 5 10 13 6 11 14 5 10 13 5 11 11 6 11 14 6 11 14 6 11 14 6 11 14 6 11 14 7 12 15 6 11 14 6 11 14 5 10 13 5 10 13 6 11 14 6 11 14 5 10 13 5 10 13 5 10 13 7 11 14 6 11 15 5 10 13 5 10 13 5 10 13 6 11 14 7 12 15 6 11 14 7 13 13 10 14 17 14 15 17 12 13 15 12 14 13 11 13 12 11 12 16 14 14 14 20 16 17 20 18 19 22 18 17 14 14 14 21 19 20 21 21 21 19 17 20 16 14 17 20 16 17 26 22 21 35 33 36 55 49 51 61 57 56 56 52 51 48 44 43 39 35 34 27 21 21 42 36 38 48 39 40 45 37 35 35 29 29 17 15 16 16 16 16 19 19 19 22 20 23 26 22 23 27 23 22 27 23 22 24 20 21 20 16 17 21 19 20 22 21 19 20 18 19 18 17 15 24 23 21 23 22 20 21 20 18 19 18 16 17 17 17 14 15 17 10 12 11 12 13 15 12 13 15 8 12 13 10 11 13 13 14 16 19 19 19 26 24 25 25 23 24 15 15 15 13 14 16 14 15 17 16 16 18 
7 12 15 6 11 14 6 11 14 6 11 14 6 11 14 5 10 13 6 11 14 6 11 14 6 11 14 5 10 13 5 10 13 5 10 13 6 11 14 6 11 14 5 10 13 4 9 12 6 11 14 6 11 14 4 12 14 7 12 15 7 12 15 7 12 15 6 11 14 6 11 14 6 11 14 6 11 14 7 12 15 7 12 15 6 10 13 7 11 14 7 11 14 7 13 13 5 10 14 5 10 13 5 10 13 6 11 14 7 12 15 7 11 12 10 11 13 12 13 15 15 17 16 15 17 16 15 15 17 15 15 17 15 15 17 16 14 15 19 17 18 25 19 19 24 18 20 23 17 19 17 15 16 21 19 20 20 18 19 18 16 17 15 13 16 17 15 16 26 24 25 35 33 36 53 49 50 52 48 47 45 41 40 38 34 33 34 28 28 26 20 20 33 29 30 36 30 30 34 28 28 30 24 26 18 16 17 17 15 16 20 18 19 26 22 23 28 24 25 26 22 21 25 21 20 22 20 21 19 17 18 13 13 15 13 13 13 16 16 16 21 19 20 28 24 23 28 24 23 21 21 19 20 20 18 15 17 16 14 15 17 9 13 12 12 13 15 9 13 14 9 13 14 7 11 12 15 16 18 23 23 23 31 31 31 25 27 26 17 17 17 15 15 17 13 15 14 17 17 17 
6 11 14 7 12 15 7 11 14 7 12 15 5 10 13 6 11 14 6 11 14 4 12 14 7 12 15 5 10 13 5 10 13 5 10 13 6 11 14 6 11 14 6 11 14 6 11 14 7 11 14 6 11 14 6 11 14 6 11 14 7 12 15 6 11 14 7 11 12 7 11 14 7 11 14 7 12 15 6 11 14 6 11 14 5 10 13 7 12 15 8 13 16 7 12 15 5 10 13 5 10 13 6 11 14 7 11 12 8 12 13 10 11 13 12 13 15 15 15 17 19 17 20 18 18 18 17 15 16 18 16 17 21 20 18 21 15 15 27 18 19 31 20 24 29 20 21 23 17 19 17 15 16 16 16 16 16 16 16 16 14 15 18 14 15 16 14 15 27 22 26 32 30 33 46 37 40 33 31 32 30 24 26 30 24 24 32 26 28 23 19 20 16 14 15 20 18 19 23 21 22 23 21 22 19 17 20 18 18 20 21 19 20 24 22 23 27 23 24 21 17 18 20 16 17 17 17 17 16 16 18 12 12 14 13 13 15 17 15 16 23 21 22 32 28 27 29 25 24 23 22 20 18 18 18 13 14 16 11 12 14 12 13 15 12 13 15 10 14 15 12 16 17 8 12 11 16 18 17 19 21 20 25 25 25 23 23 25 16 17 19 15 15 17 13 13 13 15 15 15 
5 10 13 6 11 14 6 11 14 6 11 14 6 11 14 6 11 14 6 11 14 6 11 14 6 11 14 5 10 13 7 12 15 7 12 15 8 13 16 6 11 14 6 11 14 6 11 14 6 11 14 6 11 14 5 10 13 5 10 13 5 10 13 4 9 12 4 9 12 5 9 10 7 11 12 8 12 15 7 11 14 7 11 14 7 12 15 7 12 16 7 11 14 6 10 13 8 11 16 7 11 14 10 11 15 9 10 12 10 10 12 13 13 15 14 14 16 14 14 16 15 15 17 15 13 16 13 11 12 16 14 15 26 20 20 37 28 29 33 24 25 33 24 25 33 24 25 30 24 24 18 16 17 17 15 16 16 14 15 20 18 19 26 20 22 23 19 20 25 20 26 26 21 25 25 19 21 15 11 12 21 15 17 27 21 23 31 25 27 22 20 21 11 11 13 11 11 11 13 13 15 18 18 20 19 19 21 18 18 20 20 18 21 22 20 21 22 20 21 15 15 15 15 15 15 12 13 15 13 14 16 12 13 15 12 13 15 16 17 21 22 20 21 29 28 26 26 25 23 20 19 17 13 15 12 8 10 9 11 13 12 13 14 16 11 15 16 11 15 16 13 14 16 10 14 15 11 13 12 10 11 13 5 6 8 8 9 11 9 10 12 6 7 9 8 8 10 16 14 15 
5 10 13 5 10 13 3 11 13 4 12 14 6 11 14 4 12 14 5 10 13 5 13 15 7 12 15 6 11 14 7 12 15 7 12 15 8 13 16 6 11 14 6 11 14 6 11 14 6 11 14 6 11 14 6 11 14 7 11 14 6 11 14 5 11 11 5 11 11 5 9 10 6 12 12 7 13 13 6 11 14 5 10 13 7 12 15 5 10 13 6 11 14 7 8 10 9 10 14 11 12 14 10 11 13 12 12 14 14 14 16 15 15 17 14 14 16 12 13 15 12 13 15 10 10 12 13 11 14 21 20 18 40 35 32 45 40 37 33 24 25 30 21 22 26 20 20 25 21 22 18 16 17 15 11 10 18 14 15 25 19 21 34 25 28 27 21 23 27 23 24 25 21 22 25 21 22 21 17 18 24 18 18 24 20 19 21 17 18 17 17 19 13 13 15 12 12 14 13 13 15 15 16 18 15 16 18 16 16 18 17 17 19 18 18 20 20 18 21 15 15 17 14 14 16 11 12 16 12 13 15 9 13 14 9 10 12 12 13 15 17 18 20 23 23 23 21 19 20 16 16 16 13 15 14 12 12 12 17 15 16 16 18 17 17 18 20 12 13 17 11 12 14 10 11 13 13 14 16 12 13 15 8 9 11 7 11 14 10 14 17 8 10 9 11 11 13 28 26 27 
6 11 14 3 11 13 4 12 14 4 12 14 6 11 14 6 10 13 6 10 13 6 11 14 6 11 14 5 10 13 6 11 14 6 11 14 7 12 15 6 11 14 6 11 14 6 11 14 6 11 14 6 11 14 6 11 14 7 11 14 6 10 11 5 11 11 6 12 12 8 10 9 7 11 12 7 11 14 6 11 14 5 10 13 6 11 14 6 11 14 7 11 12 8 9 11 10 11 13 12 13 15 13 13 15 14 14 16 18 17 15 18 16 17 16 14 17 12 12 12 10 11 13 5 9 10 19 17 18 32 28 27 47 42 39 46 38 36 29 20 21 22 18 17 23 19 20 24 20 21 18 16 17 17 13 14 20 16 17 32 23 24 38 28 29 29 23 25 25 19 21 23 19 18 22 18 19 24 20 21 24 18 20 22 18 19 19 15 16 14 14 16 13 13 15 11 12 14 10 11 13 13 14 16 15 15 17 15 15 17 15 15 17 15 15 17 15 16 18 16 16 18 13 14 18 11 12 14 11 12 16 7 11 14 5 10 13 8 12 13 11 15 16 17 18 20 15 16 18 14 16 15 13 15 14 14 16 15 16 18 17 17 17 19 14 15 17 13 14 16 8 12 13 8 12 13 12 13 15 9 15 15 8 12 15 8 12 15 9 13 16 5 9 12 13 13 15 31 29 30 
7 12 15 5 13 15 4 12 14 4 12 14 3 11 13 6 11 14 3 11 13 4 12 14 5 10 14 5 10 14 6 11 14 6 11 14 6 11 14 6 11 14 6 11 14 6 11 14 6 11 14 6 11 14 6 11 14 6 10 13 5 10 13 5 11 11 8 14 14 7 11 12 7 11 14 7 11 14 7 11 14 9 14 17 10 14 15 10 11 13 11 12 14 13 13 13 13 13 15 13 13 15 15 15 17 16 16 18 20 18 19 21 19 20 17 17 17 13 13 13 11 12 14 7 11 10 26 26 24 38 36 37 48 42 42 37 31 31 21 15 15 18 14 15 20 14 16 21 16 20 16 14 15 21 15 17 26 20 22 35 26 27 37 28 29 29 23 25 22 18 19 18 14 15 17 15 18 22 17 21 23 19 20 18 13 17 15 10 14 12 12 14 13 13 15 13 13 15 11 12 14 12 13 15 10 14 15 11 12 14 11 12 14 12 13 15 14 14 16 14 15 17 13 14 16 10 14 17 10 11 15 7 11 14 8 12 15 7 12 15 9 13 14 10 11 15 11 12 14 12 13 15 11 15 18 14 15 17 14 16 15 13 14 16 9 15 15 9 13 16 11 12 16 9 13 16 9 13 16 9 13 16 9 13 16 9 13 16 9 13 16 8 9 13 12 12 14 29 29 31 
9 13 16 7 12 15 3 11 13 5 10 13 5 10 13 4 12 14 3 11 13 3 13 14 5 10 14 6 11 15 7 12 15 7 12 15 6 11 14 6 11 14 6 11 14 6 11 14 6 11 14 7 11 14 7 11 14 5 10 13 5 10 13 5 10 13 9 13 16 6 10 13 8 12 13 7 12 15 11 15 16 25 23 24 25 21 22 22 18 19 20 16 17 26 22 23 20 15 19 14 12 15 12 12 14 17 17 19 17 17 17 16 16 16 15 15 15 10 12 11 7 11 10 9 13 12 28 28 28 33 31 32 31 27 28 12 10 11 17 13 14 16 14 15 15 15 17 14 12 13 16 14 15 27 21 23 30 24 24 34 25 26 31 25 27 24 22 23 17 15 16 14 12 13 14 14 16 17 15 18 17 15 18 16 14 17 15 13 16 12 13 15 16 14 17 16 16 18 14 15 17 13 14 16 12 13 15 11 12 14 11 12 14 12 13 17 12 13 15 13 14 16 13 14 16 10 14 17 7 11 14 5 9 10 8 12 15 10 14 17 10 14 15 7 11 14 8 12 13 9 13 14 11 15 16 12 16 17 9 13 14 9 13 12 8 12 13 7 11 12 9 14 17 10 14 17 7 12 15 8 12 15 6 11 14 9 13 16 7 12 15 6 11 14 6 10 13 7 11 12 
6 11 14 7 12 15 7 12 15 5 10 13 3 11 13 3 11 13 4 12 14 3 11 13 2 12 13 3 13 14 5 13 15 5 13 15 5 13 15 5 13 15 7 12 15 7 12 15 6 11 14 6 11 14 7 12 15 7 11 14 6 10 13 5 10 13 6 11 14 7 11 14 6 10 13 7 11 14 12 13 17 27 25 26 32 26 26 29 23 23 25 19 19 27 23 24 19 15 16 15 13 14 15 13 14 18 14 15 14 12 13 13 13 15 12 13 15 11 13 12 8 12 11 9 13 12 15 17 16 17 17 17 14 12 13 13 13 15 15 15 17 15 15 17 13 13 15 9 9 11 15 13 16 21 16 20 24 20 21 23 19 20 20 18 19 16 16 16 15 15 17 15 15 17 14 14 16 16 14 17 16 14 17 16 14 17 14 12 15 14 14 16 18 18 20 16 17 19 12 13 15 12 13 15 11 12 14 11 10 15 7 11 14 9 10 14 8 12 15 10 14 17 9 13 16 9 13 16 9 13 16 8 12 15 7 12 15 9 13 16 8 13 16 7 12 15 6 11 14 7 12 15 8 14 14 9 15 15 8 14 14 6 12 12 7 11 14 7 11 14 7 12 15 8 13 16 8 12 15 8 12 15 5 10 13 6 11 14 4 12 14 6 11 14 7 12 15 6 11 14 
6 11 14 7 12 15 6 11 14 5 10 13 5 10 13 3 11 13 3 11 13 3 11 13 2 10 12 4 12 14 4 12 14 3 11 13 4 12 14 7 12 15 8 13 16 7 12 15 7 12 15 7 12 15 6 11 14 7 11 14 6 11 14 5 10 13 6 11 14 6 11 14 9 13 14 10 11 13 12 12 12 22 20 21 27 23 24 26 22 21 23 19 18 24 20 21 21 15 17 21 17 18 21 15 17 20 14 16 13 11 12 13 13 13 13 13 13 12 14 13 10 14 15 9 13 14 11 12 14 12 13 15 12 13 15 14 13 18 11 12 14 13 13 15 11 12 14 9 10 12 12 10 13 14 12 15 15 15 17 17 15 16 15 15 15 13 14 16 13 13 15 13 13 15 12 12 14 13 13 15 13 13 15 15 15 17 14 14 16 15 16 18 12 16 17 11 15 16 12 13 15 8 12 13 7 11 14 6 10 13 5 9 12 6 10 13 8 12 15 10 14 17 11 15 18 12 13 17 10 14 17 6 11 14 6 10 13 6 11 14 6 11 14 5 10 13 6 11 14 6 11 14 7 12 15 7 12 15 6 11 14 6 11 14 6 11 14 6 11 14 6 11 14 6 11 14 6 11 14 6 11 14 6 11 14 6 11 14 6 11 14 6 11 14 7 12 15 7 12 15 
6 11 14 6 11 14 5 10 13 5 10 13 5 10 13 5 10 13 5 10 13 6 11 14 4 12 14 5 10 13 4 12 14 4 12 14 6 14 16 4 12 14 5 13 15 5 13 15 5 13 15 8 13 16 6 11 14 6 11 15 6 11 14 5 10 13 6 12 12 7 13 13 7 13 13 11 12 14 13 13 13 17 17 17 20 18 19 22 18 19 21 17 18 21 15 15 24 15 16 26 17 18 24 18 18 20 14 14 14 12 13 14 14 14 13 15 14 10 14 15 11 15 16 9 13 14 7 11 12 8 12 13 12 13 15 12 13 15 12 13 15 10 12 11 9 13 14 11 12 14 9 10 12 10 11 13 12 13 15 14 15 17 15 15 17 12 13 15 13 13 15 12 13 15 12 13 15 12 13 15 12 13 15 12 13 15 13 14 16 11 15 16 10 15 18 10 14 17 8 12 15 6 11 14 5 10 13 5 10 13 5 10 13 5 10 13 7 11 14 8 12 15 10 14 17 10 14 17 9 13 16 7 12 15 6 11 14 6 11 14 6 11 14 6 11 14 5 10 13 7 12 15 6 11 14 7 12 15 6 11 14 6 11 14 7 12 15 6 11 14 7 12 15 7 12 15 6 11 14 6 11 14 6 11 14 6 11 14 5 10 13 5 10 13 5 10 13 5 10 13 
6 11 14 6 11 14 5 10 13 5 10 13 5 10 13 5 10 13 6 11 14 6 11 14 4 12 14 4 12 14 3 11 13 3 11 13 3 11 13 4 12 14 4 12 14 5 13 15 8 13 16 6 11 14 6 11 14 6 11 14 6 12 12 5 11 11 4 8 9 7 11 12 11 12 14 12 14 13 15 15 15 14 14 16 15 15 17 17 15 18 15 13 14 16 15 13 29 19 20 28 19 20 27 21 21 19 18 16 16 14 15 14 14 14 13 15 14 12 14 13 10 14 13 9 13 14 9 13 14 8 12 13 8 12 13 11 12 16 9 10 12 10 11 13 11 12 14 13 14 16 8 12 13 12 13 17 11 12 14 12 13 15 11 12 14 11 12 16 11 12 14 11 12 14 11 12 14 10 11 13 11 12 14 11 12 14 9 13 14 11 15 16 7 12 15 6 11 14 5 10 13 4 9 12 6 11 14 6 10 13 5 10 13 5 10 13 7 11 14 6 11 14 8 12 15 9 13 16 7 12 15 8 12 15 5 10 13 7 12 15 7 12 15 6 11 14 5 10 13 6 11 14 6 11 14 8 13 16 7 12 15 5 10 13 6 11 14 9 14 17 9 14 17 10 15 18 7 12 15 7 12 15 5 10 13 5 10 13 5 10 13 6 11 14 5 10 13 6 11 14 
