P3
100 50
255
73 63 54 77 68 59 79 70 61 82 74 61 74 55 41 43 26 10 49 30 16 57 39 27 66 48 36 75 57 45 74 56 42 74 55 40 73 52 35 58 39 24 43 25 13 43 26 18 52 38 29 66 56 47 84 77 67 82 78 69 79 72 62 72 59 50 59 43 30 69 53 40 76 64 52 80 71 64 81 74 66 82 75 69 84 77 71 81 70 64 71 57 48 43 30 21 16 11 8 17 16 12 29 26 19 49 45 36 72 63 54 78 71 63 79 72 64 80 73 65 77 70 62 77 70 62 77 72 66 79 76 71 83 78 75 82 78 75 83 82 78 81 80 76 83 79 76 82 78 75 82 79 74 81 78 73 82 77 73 82 77 73 81 76 70 79 74 68 80 75 69 82 75 69 81 74 68 78 73 69 79 76 71 80 76 73 78 74 71 82 78 75 81 80 75 82 79 74 80 77 72 81 78 73 81 77 68 82 77 71 81 76 72 81 76 70 83 76 70 82 75 69 82 75 69 82 73 68 82 73 66 81 72 65 81 71 62 82 69 60 81 67 54 81 64 48 70 52 38 62 44 34 48 35 27 39 28 24 37 29 26 35 27 25 40 30 28 48 37 35 52 36 36 52 37 32 56 41 38 53 39 36 44 36 34 28 24 23 15 17 16 15 19 18 17 21 22 19 23 22 
70 57 41 74 60 49 77 65 53 80 67 51 71 52 37 54 32 18 54 34 23 53 33 24 54 36 26 63 46 36 71 55 42 77 59 45 77 58 43 62 43 28 41 22 15 42 25 17 50 35 28 65 52 44 83 74 65 83 76 66 78 68 58 71 57 46 60 42 30 62 44 30 68 54 43 75 62 53 80 70 60 81 70 64 83 73 64 80 67 59 71 54 46 44 27 20 25 16 9 27 22 18 39 34 28 59 52 44 78 69 60 82 75 67 82 75 67 83 76 70 79 75 66 79 74 68 79 76 69 81 78 73 82 77 74 82 78 75 81 80 75 83 79 76 82 78 75 83 79 76 83 80 75 81 78 71 80 75 71 80 75 71 82 75 69 82 75 67 79 74 68 82 75 69 81 73 70 80 75 71 79 76 71 79 75 72 79 75 72 82 78 77 79 78 74 79 78 74 81 78 73 82 74 71 79 76 69 80 75 69 83 76 70 83 76 68 82 75 69 81 74 68 82 75 69 83 74 69 83 74 67 83 74 67 80 70 61 82 69 60 82 68 57 82 64 52 72 54 40 61 44 34 48 35 27 39 28 22 36 28 25 34 24 23 39 27 27 48 34 33 53 38 35 57 42 37 59 45 42 53 42 40 45 37 35 24 24 22 15 19 18 15 19 20 17 21 20 21 23 22 
71 55 39 71 57 44 75 58 48 75 62 46 70 46 34 56 37 23 51 31 22 48 30 20 45 26 19 50 33 23 67 51 38 76 58 44 80 63 47 67 49 35 44 26 16 39 22 14 48 33 26 64 51 43 84 74 64 83 75 64 81 68 59 73 56 46 60 40 29 57 39 25 62 46 33 69 55 44 75 62 53 77 67 58 82 68 59 78 61 53 64 46 36 40 23 15 30 19 13 39 28 22 52 43 34 66 57 48 79 72 64 83 76 70 81 76 70 82 75 69 79 76 69 81 76 70 81 76 72 82 79 74 82 78 75 83 80 75 83 79 76 81 80 76 83 79 76 83 80 75 82 79 74 80 77 72 80 75 69 79 74 68 80 73 67 82 75 67 80 75 69 81 74 68 81 74 68 81 76 72 79 76 71 80 76 73 82 78 75 83 79 76 80 79 75 81 78 73 81 78 71 81 76 72 79 74 68 82 75 69 81 74 68 83 76 68 83 76 68 81 74 68 81 74 66 82 73 66 82 73 66 83 74 67 81 71 61 83 70 61 82 68 55 80 64 49 73 55 41 63 46 36 48 35 27 37 26 20 35 25 23 34 24 23 38 26 26 41 30 28 48 34 31 57 42 37 57 43 40 51 40 38 40 35 32 23 22 20 18 20 19 16 20 21 18 22 21 20 24 23 
69 56 40 70 54 39 69 55 42 68 52 39 66 47 33 58 38 27 51 31 22 44 25 18 38 20 16 39 24 19 61 44 34 76 60 47 83 65 51 75 57 43 50 32 22 42 25 17 49 35 26 67 55 43 83 71 59 82 72 60 79 66 57 73 55 43 56 36 25 54 35 21 59 41 27 64 48 35 67 53 42 73 59 48 80 62 52 73 53 44 58 38 29 35 17 7 36 23 17 51 38 30 63 53 44 73 64 55 80 73 65 84 77 71 81 78 73 80 75 71 81 76 70 80 77 70 82 77 73 81 77 74 82 77 73 81 80 76 83 79 76 81 80 76 81 77 74 82 79 72 82 77 73 81 76 73 80 75 71 79 74 68 80 73 65 81 74 66 81 74 66 82 75 69 81 74 68 79 74 70 79 76 71 80 77 72 80 76 73 82 78 75 82 78 75 81 78 73 79 76 71 80 75 71 81 74 68 81 72 65 81 74 66 81 74 66 83 74 67 81 72 65 82 73 66 82 73 66 83 74 67 82 73 66 82 72 63 83 70 61 80 68 56 82 66 51 73 57 44 63 46 36 48 35 26 40 27 21 33 24 19 32 22 20 35 24 22 38 27 25 43 29 28 51 37 34 47 36 32 42 32 30 29 25 22 18 18 16 20 22 21 17 21 20 21 22 24 24 26 25 
77 65 51 72 60 46 71 59 47 72 60 46 71 59 47 65 51 40 54 37 29 40 25 18 30 15 10 29 18 14 49 38 32 69 57 45 79 67 53 79 63 48 67 49 37 57 41 28 59 43 30 70 53 43 84 68 55 83 69 58 79 62 52 71 51 40 61 41 30 63 44 30 66 49 33 67 50 34 68 50 36 69 49 38 69 51 39 64 46 32 54 34 23 42 22 11 51 37 28 66 53 44 74 64 54 79 70 63 81 74 66 84 77 71 81 76 70 81 76 70 80 77 72 79 76 71 80 77 72 81 78 73 82 79 74 83 80 75 83 80 73 82 79 74 82 79 74 80 77 72 81 76 72 80 75 69 80 75 69 78 73 67 80 73 65 79 72 64 79 72 64 79 72 64 80 73 67 81 74 68 80 77 72 80 77 72 81 77 74 81 77 74 82 78 75 82 79 74 81 76 72 80 75 71 81 74 68 82 75 69 80 73 67 80 71 64 81 72 65 82 73 66 82 71 65 83 72 66 83 74 67 82 73 66 82 73 64 83 73 63 83 71 59 80 67 51 69 55 42 59 45 36 48 35 27 40 27 21 34 25 20 33 23 21 33 23 21 34 24 22 34 24 23 34 24 22 33 25 22 30 25 22 24 23 21 18 18 18 18 19 21 17 21 22 20 21 23 22 22 24 
78 69 60 78 68 56 82 68 59 79 69 57 81 73 60 79 66 58 64 50 41 49 35 26 31 16 9 23 12 8 38 29 24 58 48 39 71 59 45 77 61 46 70 52 40 68 50 38 70 54 41 73 56 46 80 64 51 79 63 50 77 61 48 75 57 45 70 52 40 73 56 40 75 56 41 74 56 46 74 56 42 66 47 32 61 43 29 62 43 28 63 44 30 59 41 27 67 50 40 72 62 52 79 70 61 78 73 67 81 76 70 83 78 74 82 77 71 81 78 73 80 77 72 80 77 72 82 79 74 81 78 73 80 79 75 81 80 76 82 78 75 83 79 76 81 77 74 81 78 73 82 77 73 81 76 70 81 76 70 81 76 70 81 72 65 81 72 65 78 71 61 78 69 60 77 70 62 79 72 66 81 74 68 81 76 72 79 76 71 81 77 74 81 77 74 81 78 73 80 75 71 80 75 69 83 74 69 79 74 68 83 74 69 81 72 65 80 71 64 81 72 65 82 73 66 82 73 66 82 75 67 82 73 66 81 72 63 82 72 62 82 70 58 80 66 55 69 55 42 59 45 34 49 36 28 41 28 20 36 27 22 34 24 22 36 25 23 33 23 21 34 22 22 32 24 22 32 27 24 31 27 26 26 25 23 20 20 22 18 19 21 20 21 25 21 22 24 22 22 24 
84 75 68 82 73 64 81 74 66 84 76 65 82 75 67 82 72 63 72 60 48 62 45 35 40 23 15 16 7 2 30 21 16 52 39 30 68 54 43 74 58 42 63 45 31 65 47 35 69 53 40 74 58 43 71 55 42 69 51 41 68 51 43 72 54 44 75 57 45 75 57 43 74 58 45 75 59 46 75 59 46 66 50 35 58 39 25 58 41 25 64 45 31 68 50 38 73 61 49 76 66 56 82 73 66 81 76 70 82 77 73 81 76 72 83 78 74 82 79 74 80 77 72 81 78 73 83 79 76 83 80 75 83 79 76 83 79 76 82 78 75 81 78 73 81 78 73 80 75 69 82 74 71 80 75 69 80 77 70 83 76 70 82 75 69 80 71 64 77 69 58 75 68 58 75 66 59 78 71 63 78 73 67 80 75 71 80 77 72 81 76 72 81 76 72 81 76 72 79 74 70 81 74 68 81 74 68 80 71 66 81 72 67 81 72 65 81 72 65 81 74 68 80 73 65 83 74 67 84 73 67 82 73 66 80 71 64 82 72 63 80 70 60 77 65 53 69 55 44 60 46 35 50 36 27 41 28 20 37 26 22 36 25 21 38 27 25 38 28 26 37 25 25 32 24 21 33 27 27 33 29 28 29 28 26 22 22 22 19 20 22 19 20 22 20 20 22 21 21 21 
82 77 71 84 77 69 82 75 69 82 75 67 82 75 67 82 73 64 79 67 53 71 53 41 50 30 19 24 10 7 31 20 14 51 38 29 65 53 39 69 53 37 56 38 24 59 41 29 66 46 35 70 54 39 57 43 30 56 38 28 60 42 32 65 48 40 68 54 43 71 57 46 70 56 43 75 59 46 77 61 48 68 55 39 59 43 28 59 43 28 65 47 33 72 54 42 73 63 51 79 71 60 82 75 67 82 77 71 82 79 74 80 79 74 81 78 73 82 77 73 82 79 74 82 78 75 82 78 75 83 79 76 83 79 76 83 79 76 81 77 74 81 76 72 82 77 74 80 75 71 80 75 71 80 75 69 80 75 69 82 75 69 82 75 67 79 70 61 78 70 59 75 66 57 75 66 57 76 67 60 79 72 64 79 74 68 80 75 71 81 76 72 81 76 72 82 77 73 81 76 72 81 73 70 80 73 65 81 72 65 81 72 65 82 73 66 82 73 68 79 72 66 80 73 65 81 74 66 81 74 66 81 72 65 82 73 66 81 72 63 80 70 60 78 66 54 70 56 45 61 47 36 50 35 28 41 28 20 36 25 21 36 25 21 40 29 27 42 28 25 37 26 24 34 24 23 33 28 25 34 28 28 29 28 26 22 22 22 19 19 21 19 19 21 21 21 23 22 22 22 
82 78 75 83 76 70 83 75 72 81 72 65 81 74 68 84 77 69 82 69 60 76 58 46 57 39 27 45 30 23 45 30 23 53 39 26 61 47 36 61 48 31 47 29 17 50 32 20 52 35 25 54 40 27 38 26 14 37 24 15 40 27 18 47 34 26 57 44 35 64 50 39 64 50 39 71 55 42 79 63 50 76 63 47 65 52 36 65 49 34 67 51 36 70 54 41 75 63 51 79 70 61 80 76 67 82 77 73 81 77 74 82 79 74 80 79 74 82 79 74 81 77 74 84 79 76 82 81 77 83 79 76 83 79 76 81 77 74 82 77 73 81 78 73 81 76 70 80 75 71 80 75 69 80 75 69 82 75 69 81 74 68 81 74 66 75 71 60 78 69 60 76 68 57 73 64 57 78 68 59 80 71 64 80 73 67 80 73 67 81 76 72 81 76 72 80 75 71 83 76 70 82 75 69 80 73 65 80 71 64 80 71 64 82 73 66 82 73 68 81 74 68 81 74 68 81 74 66 80 73 65 80 73 65 83 76 68 82 73 64 82 72 62 80 68 56 73 59 48 64 50 39 53 39 30 40 27 19 39 26 20 39 25 22 41 27 24 43 28 25 41 26 23 37 26 24 35 27 25 32 26 26 28 24 25 22 20 21 19 19 21 18 17 22 19 19 21 21 21 23 
83 80 75 83 78 72 82 75 69 75 66 59 79 70 63 81 74 66 82 68 59 80 62 50 72 53 38 74 56 44 69 51 37 68 49 35 66 48 34 65 47 33 47 31 18 38 21 13 29 19 10 25 16 9 25 18 10 27 20 12 21 14 8 21 14 8 30 21 16 49 36 30 57 43 34 68 51 41 75 59 46 77 64 48 75 63 47 77 61 46 73 57 42 70 54 41 70 60 50 78 70 59 80 75 69 81 76 72 80 75 72 82 77 73 81 78 73 83 79 76 82 78 75 82 78 75 83 79 76 85 81 78 83 79 76 82 78 75 82 79 72 81 76 72 79 74 70 81 74 68 81 74 66 79 74 68 82 75 69 81 74 68 80 73 67 78 71 63 77 68 59 76 68 57 73 63 53 77 67 57 79 70 63 80 71 66 82 73 68 80 76 67 82 77 73 82 77 71 84 77 71 82 75 69 80 73 67 81 72 65 82 73 66 82 73 66 82 71 69 80 73 67 81 74 68 80 73 67 80 73 65 80 73 67 81 74 66 81 74 64 81 72 63 80 67 58 78 61 51 67 53 42 58 44 35 47 32 25 45 32 26 46 31 28 46 31 26 46 31 26 44 29 26 41 27 24 38 28 26 33 28 25 26 22 21 23 21 22 23 23 25 21 20 25 20 20 22 21 21 23 
83 80 75 83 78 74 81 73 70 75 66 59 77 67 58 80 70 61 82 65 55 80 60 49 76 56 45 77 58 44 71 52 37 68 49 32 68 49 34 66 50 34 51 35 22 41 24 16 33 18 13 30 21 14 30 22 19 26 21 17 24 16 13 21 16 12 26 17 12 40 27 18 50 37 28 64 47 37 72 56 43 76 62 49 76 62 49 78 62 49 76 60 47 73 55 43 73 61 49 77 67 58 81 74 66 82 77 73 80 75 71 83 78 74 83 78 74 85 77 74 82 78 75 83 79 76 82 81 77 84 80 77 83 79 76 83 78 74 82 77 73 80 75 71 79 72 66 80 73 67 81 74 68 82 75 69 83 74 69 83 76 70 81 74 68 79 70 61 78 69 60 76 67 58 76 66 56 78 68 58 79 70 61 80 71 64 81 74 68 80 75 69 80 75 71 84 77 71 82 75 69 81 74 68 80 73 67 81 70 64 82 73 66 82 73 66 82 75 69 81 74 68 81 74 68 82 75 67 83 76 70 81 74 68 81 74 66 81 74 66 81 72 63 81 68 59 75 61 52 69 52 44 57 43 34 47 34 25 43 32 28 41 30 28 44 30 27 44 30 29 41 30 26 40 29 27 38 30 28 34 29 26 25 24 22 24 24 26 25 23 26 23 21 24 22 22 24 24 24 24 
82 79 74 82 77 71 80 71 64 77 64 55 76 62 51 78 62 49 77 58 44 74 55 41 73 51 38 71 49 36 66 47 33 67 45 31 65 46 31 69 50 35 57 37 26 46 27 20 41 24 14 39 24 19 35 25 23 26 21 18 22 18 15 23 18 15 30 21 16 37 22 15 47 33 24 59 42 32 70 52 40 72 58 47 76 59 49 77 63 50 78 61 51 77 61 48 72 59 50 76 66 57 80 71 64 82 75 69 82 77 73 81 78 73 80 77 72 83 78 75 83 79 76 83 79 76 82 78 75 83 79 76 83 79 78 83 78 74 81 76 72 82 74 71 80 73 67 81 74 68 80 73 65 82 75 67 82 75 69 82 75 69 81 74 66 81 72 65 79 70 63 79 70 61 78 68 59 80 70 61 82 74 63 83 74 67 81 74 66 81 76 72 81 76 70 82 75 69 83 76 70 81 74 68 80 73 67 82 73 68 81 74 66 82 75 67 82 75 69 82 75 69 80 75 69 83 76 70 84 77 71 80 75 69 81 74 66 78 74 65 80 71 62 81 68 59 75 61 52 68 51 43 57 40 32 44 31 23 38 27 25 34 26 24 38 28 27 38 28 26 38 28 26 37 29 27 34 29 26 32 26 26 26 24 25 23 23 23 25 25 25 24 24 24 24 24 24 25 25 23 
83 79 76 82 75 69 80 70 61 76 63 54 76 58 44 73 55 41 73 54 39 69 50 35 68 45 31 58 39 24 62 40 26 63 41 27 63 44 29 70 51 36 62 43 29 53 33 22 47 29 19 46 28 24 39 24 21 28 20 18 21 16 12 24 19 15 38 24 23 40 23 16 46 29 21 55 39 26 65 49 36 70 56 45 74 60 51 77 63 52 81 64 56 79 62 52 74 60 51 77 64 56 80 70 61 81 74 68 81 76 72 80 77 72 81 78 73 82 78 75 83 78 75 82 78 75 82 78 75 81 77 74 83 79 76 83 78 74 81 76 72 82 75 69 81 74 68 81 72 67 79 72 66 81 74 68 80 73 65 81 74 68 82 75 67 80 73 65 81 72 67 80 71 62 80 70 61 81 71 62 82 73 64 81 74 66 83 76 66 82 75 67 82 75 67 82 75 69 81 74 68 80 73 67 81 72 67 82 71 67 79 72 64 82 75 69 80 75 69 82 75 69 81 76 70 80 75 69 83 76 70 82 75 69 82 75 69 80 73 65 81 72 65 80 67 58 77 60 50 66 52 41 54 40 31 43 28 25 30 22 20 28 22 22 29 23 23 31 25 25 35 26 27 33 27 27 30 26 25 26 25 23 24 22 23 22 22 22 25 25 25 26 24 25 27 25 26 28 27 25 
83 79 76 82 77 73 80 71 64 77 64 55 74 58 42 69 50 35 68 46 32 65 46 31 60 38 24 50 29 12 56 37 22 64 42 28 68 46 32 75 56 41 69 47 33 61 39 26 56 34 23 53 33 26 39 24 21 26 16 14 17 14 9 22 14 11 37 23 20 48 31 24 50 33 25 57 39 27 63 49 38 72 58 47 74 64 54 77 64 55 78 65 56 79 65 56 77 60 52 76 61 54 77 64 56 80 71 64 82 77 71 81 78 73 81 78 73 81 77 74 81 77 74 81 77 74 83 79 76 83 79 76 81 78 73 83 78 74 84 77 71 81 74 68 82 73 66 81 72 65 78 71 63 77 68 63 78 71 63 79 74 68 83 74 67 83 74 67 82 73 66 81 72 65 80 69 63 81 72 65 83 74 67 82 73 64 83 76 68 83 74 67 81 74 68 81 74 68 81 74 68 80 73 65 81 72 67 81 72 67 81 74 68 83 76 70 83 76 70 80 75 69 79 74 68 83 76 70 82 75 69 82 75 69 82 75 69 82 73 66 80 70 61 81 68 60 75 61 52 71 54 44 56 42 33 40 30 21 27 19 17 22 18 19 22 18 19 24 20 21 25 21 20 25 21 22 23 21 22 21 21 19 20 20 18 22 22 22 25 24 22 26 24 25 27 26 24 29 28 26 
81 80 76 82 78 75 80 77 70 81 72 65 81 68 59 72 56 43 66 50 37 65 46 32 65 46 31 59 40 23 60 41 26 62 43 29 66 44 30 75 53 40 72 50 36 62 40 26 58 36 23 55 36 29 43 28 23 25 15 14 19 15 12 25 17 14 38 24 21 48 31 24 52 35 25 60 42 32 66 49 39 73 63 53 78 68 58 77 67 57 81 68 59 83 69 60 80 63 55 74 60 51 76 63 55 80 71 64 83 78 74 83 78 74 82 77 73 82 77 73 79 76 71 83 79 76 83 79 76 82 78 75 82 79 74 81 76 70 83 76 70 81 74 68 80 73 65 81 72 65 77 70 62 77 70 62 79 70 63 81 74 66 82 75 67 81 74 66 82 73 66 82 71 65 80 69 65 81 70 66 82 73 66 81 74 66 83 76 68 81 74 66 79 72 66 80 73 67 80 73 67 81 74 68 79 72 66 79 72 66 79 72 66 82 75 69 83 76 70 83 76 70 82 75 69 82 75 69 81 74 68 82 75 69 82 75 67 81 72 65 82 72 63 83 70 61 77 63 52 72 55 45 60 46 37 45 32 24 28 20 18 23 19 20 22 18 19 24 20 21 24 22 23 24 22 23 23 23 23 23 21 22 20 20 20 21 21 21 25 24 22 27 26 24 29 28 26 29 28 26 
81 80 76 84 81 76 83 78 74 82 74 71 82 73 64 78 65 56 73 59 46 72 56 41 70 54 38 66 47 30 63 44 27 61 42 27 62 43 28 72 53 39 73 54 39 62 43 29 57 37 26 55 37 27 46 31 26 27 18 13 25 17 14 29 19 17 39 26 20 50 33 25 56 39 29 63 46 36 70 53 45 77 64 55 79 69 59 81 71 61 81 71 62 80 70 60 78 64 53 74 60 49 76 63 54 77 70 62 82 77 71 82 77 71 82 77 73 82 77 74 81 78 73 82 78 77 83 79 76 82 79 74 82 79 74 81 76 72 82 75 69 81 74 66 80 73 65 82 73 66 80 73 65 81 70 64 79 72 64 81 72 65 82 73 66 81 72 65 81 72 65 81 72 65 81 71 62 79 70 61 80 71 64 81 72 65 81 74 66 80 73 65 81 74 68 81 74 68 82 75 69 81 74 68 80 73 67 80 73 67 80 73 67 84 77 71 83 76 70 83 76 70 82 75 69 81 74 68 80 73 67 82 75 69 82 73 68 82 73 66 81 71 62 83 70 62 78 64 53 75 58 48 64 47 39 48 35 27 30 21 22 25 21 20 24 20 21 23 19 20 23 21 22 23 21 22 24 22 23 23 21 22 21 19 20 21 21 21 26 25 23 28 27 25 29 28 26 28 27 25 
84 80 77 83 80 75 83 78 75 81 76 72 84 76 73 80 73 65 78 68 56 78 64 51 75 62 46 70 53 35 68 49 32 64 45 30 63 46 30 74 57 41 72 53 38 61 43 29 53 35 23 50 31 24 45 31 22 32 21 17 30 21 16 35 26 19 45 32 24 56 39 29 62 44 32 65 49 36 70 53 43 80 68 56 78 68 58 81 72 63 83 73 64 81 71 61 78 64 55 73 61 49 72 62 53 79 70 61 80 76 67 82 77 71 81 76 72 82 78 75 82 79 74 82 78 75 83 79 76 82 78 75 80 76 73 81 76 72 81 74 68 81 74 64 81 72 65 81 74 66 81 72 65 80 71 64 80 71 64 81 72 65 82 73 66 81 72 65 81 70 64 81 72 63 81 71 62 80 71 64 79 70 63 79 70 61 79 72 64 80 73 67 79 72 66 80 73 67 82 75 69 82 75 69 80 73 67 79 72 66 81 74 68 82 75 69 81 76 70 82 75 69 83 76 70 81 74 68 81 74 68 81 72 67 81 72 65 81 72 65 81 71 62 81 68 59 79 62 52 75 57 47 64 47 39 49 34 27 32 23 24 27 23 22 24 22 23 23 21 22 23 21 22 22 22 22 24 22 23 23 21 22 22 20 21 24 22 23 28 24 23 29 25 24 30 26 25 29 25 24 
83 79 76 84 79 76 81 78 73 79 78 73 82 77 73 82 75 69 81 74 64 81 71 61 80 68 56 72 55 39 70 51 34 69 50 35 71 54 38 77 59 45 72 54 40 57 41 26 47 31 18 42 25 17 40 25 20 35 24 20 36 25 21 42 29 21 54 37 27 66 48 36 68 50 38 68 52 39 65 53 41 76 64 52 78 68 59 80 72 61 82 73 64 82 72 62 79 65 54 74 60 49 72 62 52 79 70 61 80 73 65 79 74 68 80 75 71 86 78 75 81 77 76 84 79 76 82 78 75 82 78 75 81 78 73 81 76 70 80 75 71 82 75 69 81 74 66 80 73 65 82 73 66 81 72 65 81 72 65 81 72 65 80 71 64 79 70 63 81 70 64 80 70 61 80 69 63 80 71 64 80 71 64 80 73 65 80 71 64 80 73 67 80 73 67 81 74 68 82 75 69 83 76 70 82 75 69 80 73 67 81 74 68 83 76 70 82 75 69 80 73 67 82 73 66 81 72 65 82 75 67 82 73 66 82 73 66 80 71 62 84 71 63 83 69 60 80 63 53 74 55 48 61 44 34 45 30 23 38 27 25 31 25 25 28 24 23 24 24 22 25 23 24 24 22 23 25 23 24 24 22 23 26 22 21 27 23 22 29 25 24 29 25 26 29 25 26 27 25 26 
84 80 77 81 77 74 82 77 74 82 77 73 82 77 74 81 76 70 83 76 68 83 74 65 80 70 60 78 62 47 74 55 40 74 57 41 73 55 41 69 51 37 63 47 31 52 36 23 44 28 15 39 22 12 38 23 16 37 24 18 37 24 18 42 28 19 53 36 26 69 49 38 71 52 38 68 52 36 68 52 39 68 54 41 74 57 47 78 66 54 79 69 59 85 72 63 79 65 52 74 60 47 73 61 49 75 65 53 78 69 60 76 71 65 79 74 70 81 76 72 80 76 73 81 77 74 81 77 74 82 78 75 81 77 74 83 78 74 83 75 72 82 75 69 81 74 68 80 73 67 81 74 68 82 73 68 82 73 66 81 72 65 81 72 65 80 71 64 81 70 64 81 70 64 80 70 61 79 70 61 79 70 63 79 72 64 80 71 66 80 73 67 79 72 66 79 72 66 82 75 69 82 73 68 83 74 69 82 73 68 83 74 69 83 74 69 82 73 68 81 72 65 81 72 65 81 72 65 81 72 65 82 73 66 83 73 64 82 71 65 82 69 61 82 68 57 78 60 48 73 55 45 61 43 33 46 31 24 33 23 21 27 21 21 23 22 20 24 23 21 26 24 25 26 24 25 29 25 26 27 25 26 29 25 24 30 26 25 31 27 26 30 26 27 30 26 27 28 24 25 
81 80 76 82 78 75 81 78 73 81 76 72 81 76 72 82 77 71 80 75 69 83 76 68 81 72 63 81 67 54 78 60 46 72 55 39 64 47 31 44 26 12 53 37 22 55 37 25 56 40 27 56 39 29 47 31 18 39 24 17 38 23 16 42 25 17 43 25 15 55 39 24 65 47 35 68 52 37 67 49 35 66 48 34 68 50 38 72 58 45 78 64 53 82 70 56 79 66 50 76 60 47 70 58 46 74 64 54 77 68 59 77 70 62 80 73 67 80 75 71 81 78 73 83 78 75 82 78 75 80 76 73 81 77 74 81 76 72 82 77 73 81 74 68 81 72 67 79 72 66 81 74 68 81 74 68 82 73 66 82 73 66 83 72 66 82 73 66 82 71 65 79 70 63 78 67 61 78 69 62 79 70 63 80 71 64 78 71 65 81 74 68 80 73 67 80 73 67 81 74 68 83 74 69 82 73 68 82 73 68 83 74 69 83 74 69 81 72 67 81 72 67 80 71 64 81 72 65 80 71 64 81 72 65 82 71 65 84 71 63 81 68 60 81 67 58 76 60 47 72 54 42 61 44 34 45 32 23 32 22 20 25 20 17 24 20 19 24 23 21 25 25 23 25 24 22 26 26 24 28 27 25 30 26 25 33 27 27 31 25 25 32 26 26 32 26 26 28 24 25 
80 81 76 80 79 74 80 76 73 80 77 72 81 76 72 80 77 70 80 77 72 81 76 70 83 76 68 80 71 56 81 65 50 74 57 41 63 45 31 42 24 12 48 30 18 57 39 27 63 46 36 69 53 40 58 42 29 55 41 28 55 38 30 53 36 28 46 32 21 52 35 25 59 46 30 65 47 33 62 44 30 63 44 29 64 47 31 68 52 37 75 59 44 80 67 51 78 65 49 75 59 46 71 57 44 74 62 50 79 69 59 79 70 61 80 73 67 80 75 71 80 75 69 81 76 73 82 78 75 81 77 74 80 76 73 82 77 74 82 77 73 79 74 68 79 72 66 79 72 66 81 74 68 82 75 69 82 75 69 82 75 69 83 74 69 81 72 67 81 72 65 80 71 64 78 67 61 78 69 62 79 70 65 80 71 66 79 72 64 80 73 67 79 72 66 80 73 67 82 75 69 81 72 67 83 74 69 83 74 69 82 73 68 82 73 68 81 72 67 81 72 65 81 72 65 80 71 64 79 70 63 81 70 64 80 70 61 80 70 61 81 68 59 81 67 56 77 60 52 75 57 45 62 48 37 49 34 27 33 24 19 28 23 20 25 21 20 24 23 21 25 24 22 26 25 23 29 25 24 30 26 25 31 27 26 33 27 27 34 28 28 33 27 27 31 25 25 27 23 24 
81 77 74 82 79 74 80 76 73 81 78 73 83 75 72 80 75 71 82 77 71 82 77 71 82 77 71 81 72 63 82 69 60 77 61 48 67 49 37 50 30 19 45 27 17 56 38 28 67 49 39 73 56 46 70 52 40 72 55 45 71 57 46 71 54 44 63 49 38 58 46 34 63 47 34 62 44 30 56 37 22 60 41 26 65 44 27 67 50 34 72 54 40 79 63 47 78 65 48 73 57 42 69 56 40 73 59 46 80 68 54 80 71 62 81 72 67 80 73 67 77 72 69 80 75 72 81 78 73 82 78 75 82 78 75 82 77 74 81 76 72 78 73 69 80 73 67 79 74 68 82 75 69 83 76 70 80 75 69 80 75 69 83 74 69 80 73 67 81 72 67 81 70 64 79 68 62 79 68 64 80 71 66 81 74 66 80 73 67 80 73 67 80 73 67 81 74 68 82 75 69 82 73 68 82 73 68 83 74 69 82 73 68 82 73 68 81 72 65 81 70 64 81 70 64 80 69 63 80 69 63 81 71 62 80 70 61 79 69 60 82 67 60 83 66 58 78 62 49 76 60 47 66 49 39 51 37 28 36 26 24 32 24 22 29 25 24 26 25 23 24 24 22 24 23 21 26 25 23 30 26 25 31 27 26 34 28 28 36 31 27 33 28 25 30 26 25 28 24 23 
81 78 73 81 78 73 82 79 74 82 77 74 83 78 75 79 74 70 81 76 72 83 78 74 81 80 75 82 77 71 83 74 67 80 67 58 76 58 46 62 42 31 47 29 19 51 32 25 60 43 33 69 52 42 74 60 49 81 64 54 81 67 56 80 67 58 80 67 58 76 62 53 70 52 42 58 40 30 49 30 15 55 36 22 64 47 31 66 49 33 67 50 34 72 57 38 77 62 43 73 57 41 70 54 39 73 59 46 81 69 57 81 70 64 83 72 66 81 74 68 81 74 68 77 74 69 80 75 72 80 76 73 83 75 72 82 77 74 80 75 71 80 75 71 79 74 70 79 74 70 80 75 69 82 74 71 82 74 71 82 74 71 83 76 70 82 73 68 81 72 67 81 72 67 79 70 65 79 70 65 81 74 68 82 73 68 82 73 68 81 74 68 81 74 68 81 74 68 82 75 69 82 75 69 83 74 69 81 72 67 81 72 67 81 72 65 83 72 66 82 71 65 82 72 63 83 70 62 79 69 60 80 70 61 81 68 60 82 69 61 81 69 57 82 68 57 80 64 51 75 59 46 68 51 41 54 40 31 39 28 24 36 26 25 32 26 26 27 23 22 24 20 19 25 24 22 28 24 23 30 24 24 30 26 25 32 28 25 34 30 27 31 27 26 29 25 26 28 24 23 
82 78 75 81 78 73 82 77 73 81 76 72 80 75 71 82 75 69 79 74 70 80 77 72 83 80 75 82 79 74 81 76 73 81 72 65 80 67 58 74 56 46 52 33 26 44 25 18 48 30 20 56 39 29 69 55 46 78 64 53 81 68 59 81 71 59 81 71 61 81 71 62 78 64 53 74 58 45 64 46 34 62 44 32 72 54 40 71 55 40 66 50 34 62 49 32 76 61 42 71 55 39 70 54 38 70 54 39 80 64 51 81 69 57 81 71 62 80 71 64 78 70 67 80 72 69 80 75 71 81 76 72 81 75 75 81 76 72 81 76 73 80 75 71 80 75 71 81 76 70 81 76 70 82 75 69 80 75 69 82 75 69 83 76 70 82 73 68 82 73 68 83 74 69 80 69 65 81 72 67 82 73 68 80 73 67 80 73 67 81 74 68 83 76 70 82 75 69 82 75 69 83 76 70 83 74 69 82 73 68 79 70 65 80 71 64 80 71 64 80 71 64 81 70 64 79 69 60 78 68 58 80 70 61 81 71 62 80 70 61 83 66 58 80 68 56 77 63 52 74 60 47 67 50 40 55 41 32 40 29 25 38 28 27 34 26 23 30 25 22 25 21 20 25 24 22 29 25 24 29 25 24 31 27 26 32 28 25 33 30 25 31 27 24 29 25 24 29 25 24 
81 80 76 81 77 74 80 75 71 79 76 71 80 75 71 83 75 72 79 76 71 79 75 72 82 78 75 82 78 75 82 77 71 82 75 69 81 72 63 80 63 55 63 43 34 47 28 21 41 22 15 44 27 19 60 46 37 73 60 51 78 68 58 81 71 62 80 73 63 83 74 65 81 71 61 78 64 55 71 57 46 67 50 40 75 59 46 76 64 50 72 59 43 63 51 35 73 61 45 74 61 44 72 59 43 72 56 40 75 62 46 80 66 55 80 67 58 80 70 61 78 69 60 79 72 66 81 76 72 81 76 72 84 76 73 81 78 73 82 77 73 82 77 73 80 77 70 81 78 73 82 77 73 80 75 69 80 75 69 80 75 69 82 75 69 82 75 69 81 74 68 81 72 67 82 73 68 82 75 69 81 74 68 82 75 69 80 75 69 79 74 68 81 73 70 82 75 69 81 74 68 80 72 69 83 72 68 81 72 67 80 71 66 81 70 66 82 71 65 82 72 63 79 68 62 79 69 60 79 69 60 83 70 62 80 70 61 84 69 62 82 69 60 82 68 57 79 65 54 74 58 45 64 50 39 54 40 31 42 31 25 37 27 25 35 27 24 32 27 24 30 24 24 30 26 25 29 25 24 29 25 24 31 25 25 31 27 24 33 29 26 31 27 24 29 28 26 26 24 25 
81 77 74 81 78 73 81 76 72 80 75 71 80 75 71 81 76 72 80 77 72 80 76 73 82 78 75 80 79 77 81 76 73 79 76 69 82 75 69 80 70 61 71 53 43 51 31 22 41 20 15 40 21 14 58 44 35 73 60 52 78 67 61 80 69 63 80 71 64 83 76 68 82 75 65 81 70 64 76 66 56 69 57 45 78 64 53 77 67 55 78 68 56 71 59 47 76 66 54 78 66 52 77 64 48 74 58 42 76 60 44 76 62 51 79 66 57 79 69 60 78 69 62 79 71 68 80 75 69 81 76 72 81 76 72 82 77 74 83 78 75 81 78 73 82 77 73 81 78 73 81 76 72 81 76 70 81 76 70 79 75 66 82 75 69 81 74 68 81 72 67 81 72 67 81 74 68 79 74 68 81 74 68 83 76 70 80 75 69 80 75 69 81 73 70 80 73 67 80 72 69 80 72 69 82 73 68 81 72 67 80 71 66 80 69 63 81 72 65 79 70 61 79 69 60 77 68 59 81 71 62 81 71 62 80 70 61 80 70 61 81 68 60 81 68 59 80 63 53 73 56 46 62 45 35 54 37 29 42 31 25 36 26 24 34 26 23 32 27 24 31 25 25 31 27 26 28 24 23 28 24 23 28 24 23 30 26 23 31 27 24 31 27 24 27 26 24 25 23 24 
83 79 76 79 78 73 81 77 74 81 76 72 81 76 72 80 76 73 81 77 74 83 79 76 79 78 74 82 78 77 81 76 73 81 76 73 82 77 73 82 75 69 77 58 51 57 37 26 42 22 13 40 23 15 65 52 44 75 65 56 79 69 60 78 69 60 79 72 64 81 74 66 80 76 67 81 74 66 80 71 62 72 62 52 75 65 53 80 72 61 81 72 63 79 70 63 81 71 61 81 69 57 78 66 50 77 61 45 72 56 40 74 60 47 75 65 55 78 68 59 79 70 61 79 72 64 80 72 69 80 75 71 80 77 70 81 76 72 81 78 73 83 79 76 83 78 75 81 78 73 82 77 73 81 76 72 79 74 70 79 74 68 80 73 67 79 74 68 79 72 66 80 73 65 80 73 67 81 76 70 80 75 69 82 77 71 80 75 69 81 76 70 80 75 71 81 74 68 79 71 68 79 72 66 82 72 70 82 73 68 79 70 63 81 70 64 81 72 63 79 70 63 78 69 60 82 69 61 81 71 62 81 71 62 80 70 61 81 71 62 83 70 62 80 67 58 77 60 50 71 54 44 63 46 36 52 38 27 42 29 21 33 24 19 30 25 21 31 26 23 31 25 25 29 28 26 26 25 23 22 21 19 23 22 20 25 24 22 24 23 19 27 26 22 28 28 26 23 23 23 
82 78 75 81 77 74 81 77 74 80 76 73 80 76 73 80 76 73 81 77 74 81 77 74 82 78 77 80 79 75 82 78 75 81 77 74 81 77 74 80 75 71 80 63 55 56 36 27 40 22 12 40 23 15 72 62 53 80 69 63 79 70 63 74 70 61 76 69 61 78 73 67 79 74 68 83 76 70 81 74 66 78 69 60 77 69 58 80 71 62 83 76 68 82 75 69 82 73 66 82 72 62 80 68 54 75 62 46 68 52 36 73 59 46 77 65 51 82 69 61 79 70 63 79 72 64 81 72 67 80 75 71 80 76 73 82 78 75 81 80 76 82 79 74 81 77 74 81 78 73 80 75 71 80 75 71 78 73 69 77 72 66 79 72 66 79 72 64 79 72 66 79 72 64 79 72 66 84 77 71 80 75 69 80 75 71 81 77 68 81 76 72 80 75 71 82 74 71 79 72 66 79 72 66 80 73 65 80 71 66 81 72 65 81 72 65 81 72 63 79 70 63 78 68 59 80 70 61 81 71 62 79 69 60 81 68 60 80 70 61 82 69 61 82 69 61 78 61 51 74 57 47 65 48 38 55 38 28 38 28 19 33 26 20 31 23 20 29 24 21 26 22 21 27 26 24 22 21 19 18 20 19 18 18 18 21 21 21 22 22 20 21 23 22 21 23 22 20 22 21 
81 77 74 81 77 74 82 78 75 83 79 76 82 78 75 80 76 73 81 77 76 80 77 72 83 79 76 83 79 76 81 77 74 83 79 76 82 79 74 83 78 72 83 66 56 61 43 33 47 29 19 48 31 23 78 65 57 81 72 65 80 71 66 76 69 63 75 68 62 77 73 64 80 75 69 82 77 74 83 76 70 81 72 63 79 72 62 80 71 62 81 74 66 81 77 68 82 75 69 81 74 64 79 69 57 78 62 47 70 54 38 71 57 44 76 64 52 81 71 62 82 73 66 80 73 67 79 74 70 79 74 70 80 77 72 84 79 76 82 78 75 79 80 75 82 78 75 81 77 74 80 77 72 80 75 71 79 74 70 79 74 70 78 71 65 78 69 64 78 71 65 79 72 64 80 73 67 80 75 69 82 77 71 81 76 72 81 76 70 81 78 73 81 76 72 80 75 69 79 74 68 81 74 68 79 72 64 81 72 65 80 71 64 82 73 64 80 71 62 81 72 63 80 71 62 80 70 61 80 70 61 79 69 60 80 70 61 81 71 62 80 70 61 82 69 60 80 63 53 76 59 49 70 52 40 58 44 33 39 29 19 34 27 19 31 23 20 27 22 19 26 22 21 25 24 22 22 21 19 20 20 20 20 20 20 21 21 21 20 22 21 19 21 20 20 22 21 20 22 21 
82 78 75 82 78 75 82 78 75 82 78 75 82 78 75 81 77 76 81 80 78 82 78 77 80 79 77 83 79 78 82 78 79 80 80 78 82 79 74 82 79 74 81 67 58 67 50 40 57 41 28 57 44 35 79 68 62 82 75 69 81 74 68 78 71 63 74 67 59 79 72 64 80 75 69 82 77 73 82 77 73 82 75 67 79 72 64 79 70 61 81 72 65 81 74 68 83 76 68 84 75 66 83 71 59 79 63 48 70 52 38 70 56 45 75 62 53 81 71 62 79 75 66 81 74 68 80 75 69 82 74 71 80 76 73 79 78 74 82 78 75 80 79 75 82 78 75 82 78 75 80 77 72 80 75 71 79 74 68 79 74 68 77 72 66 79 72 64 79 70 65 80 71 64 80 73 65 79 74 68 81 76 70 82 77 71 83 78 72 81 76 72 81 76 70 81 76 70 79 74 68 80 73 67 80 73 65 81 72 65 81 72 65 80 72 61 81 72 63 80 71 62 80 69 63 80 70 61 83 70 62 82 69 61 80 70 61 81 71 62 81 71 62 83 69 60 82 65 55 78 61 51 73 56 46 64 47 37 42 32 22 37 28 21 30 25 21 26 25 21 24 20 19 23 22 20 20 20 18 21 21 21 21 21 21 21 21 21 19 21 20 20 22 21 21 23 22 21 23 22 
82 78 75 82 78 75 82 78 75 81 77 74 81 80 76 81 80 76 80 79 75 80 79 77 79 77 78 79 78 76 83 78 75 83 79 78 83 80 75 83 78 72 79 69 60 72 58 45 67 53 44 67 53 44 81 72 63 82 75 67 82 75 69 78 71 65 74 67 59 79 72 64 80 75 71 81 77 74 82 79 74 82 77 71 78 71 63 77 68 59 77 68 61 79 68 62 80 73 65 83 72 66 80 67 58 76 60 47 68 50 36 69 55 44 75 62 53 79 70 61 81 74 66 81 74 68 82 74 71 81 78 73 80 76 73 79 78 74 82 78 75 81 77 74 82 78 75 82 78 75 82 77 74 81 76 72 80 75 71 81 73 70 79 72 66 80 73 67 79 72 64 79 72 66 79 72 66 81 74 66 80 75 71 81 78 73 82 79 72 81 78 71 80 75 71 79 74 68 80 77 70 78 73 67 81 74 66 80 73 65 81 72 65 80 73 63 81 72 63 81 72 63 79 70 61 79 70 61 80 71 62 81 71 62 81 72 65 81 72 63 82 71 65 80 69 63 81 67 58 81 64 54 75 59 46 65 51 38 50 37 28 39 30 23 36 26 25 27 23 24 22 21 19 20 20 18 20 20 18 20 20 20 20 21 16 20 20 18 20 22 21 19 21 20 19 21 20 21 21 21 
82 78 75 81 77 74 82 78 75 80 79 75 80 79 75 80 79 75 81 80 76 80 79 75 80 76 77 82 76 76 82 78 77 83 79 78 82 78 75 82 79 72 80 71 64 75 65 53 74 61 52 73 63 54 80 71 64 81 72 65 81 73 70 80 71 66 75 64 58 79 70 63 82 75 69 81 77 74 82 78 75 82 77 73 79 72 66 77 68 61 75 66 57 73 63 53 79 66 57 78 65 56 74 60 49 68 52 39 62 44 30 71 55 42 75 61 50 79 69 59 83 74 67 84 75 70 81 76 72 82 79 74 81 77 74 81 77 74 82 78 75 79 78 74 82 78 75 80 79 77 81 77 74 81 76 73 80 75 71 80 75 69 82 73 68 79 72 66 80 73 65 79 72 66 78 70 67 79 74 68 80 75 69 81 78 71 80 77 70 81 76 70 80 75 69 80 75 71 81 76 72 82 75 67 80 73 67 80 71 66 81 72 65 81 72 65 81 72 63 81 72 63 82 72 63 79 70 61 81 71 62 81 70 64 82 73 66 82 73 66 82 73 66 81 71 62 81 68 59 79 65 52 78 60 50 68 54 43 56 44 32 41 31 22 35 26 21 27 22 19 19 18 16 17 17 15 18 18 16 20 20 20 20 22 21 17 17 17 18 20 17 20 20 18 22 22 20 23 23 21 
83 79 76 82 78 75 82 78 75 79 78 74 79 78 74 82 78 75 80 79 77 81 80 78 79 78 76 82 78 75 80 79 75 81 80 76 80 79 75 83 79 76 81 76 72 82 73 68 80 73 67 78 73 67 81 74 66 82 74 71 79 75 66 80 73 67 75 62 53 77 67 58 79 70 65 81 76 72 82 78 75 81 77 74 79 74 68 79 72 64 76 67 58 72 60 48 63 47 34 64 48 33 59 41 27 50 34 19 54 35 21 61 43 29 69 53 40 77 63 54 78 69 60 81 74 68 82 77 73 82 78 75 82 78 75 80 76 73 80 76 73 81 77 74 82 81 77 81 80 76 81 80 78 80 76 73 81 76 72 81 76 72 80 72 70 81 74 68 80 73 67 78 70 67 79 72 66 79 72 66 80 75 69 81 76 70 81 76 70 81 76 70 81 74 68 80 75 69 81 76 70 84 75 68 79 72 66 81 74 68 80 71 66 80 71 64 81 72 65 81 71 62 81 72 63 80 71 62 81 71 62 82 73 64 82 73 66 82 73 66 82 73 66 81 71 62 81 68 59 80 66 55 77 63 52 74 57 47 60 46 37 42 32 23 36 29 19 30 25 21 26 25 21 23 22 20 22 21 19 21 19 20 23 21 22 23 23 23 23 23 21 25 24 22 28 24 23 29 25 24 
82 78 75 82 78 75 79 78 74 81 77 74 79 75 72 79 78 74 80 79 75 80 79 75 80 79 77 81 80 76 80 79 77 82 81 77 81 80 76 83 79 76 82 79 74 79 76 69 79 74 70 79 74 68 79 74 70 81 74 68 79 74 68 80 71 62 75 62 54 76 63 55 80 69 65 81 76 72 82 78 75 80 76 73 80 77 72 79 74 68 79 70 61 78 65 56 65 49 36 61 43 29 57 39 25 55 38 22 60 42 28 64 46 32 68 52 37 74 60 47 78 69 60 81 76 72 82 78 75 80 79 75 82 78 75 82 78 75 79 75 72 80 76 73 81 77 74 79 80 75 81 80 76 81 77 74 81 77 74 82 77 74 80 75 71 83 75 72 81 73 70 77 72 69 78 73 67 79 74 68 82 75 69 79 76 69 81 76 70 80 75 69 81 74 68 81 73 70 81 74 68 82 75 69 81 74 68 81 74 68 82 73 66 82 73 66 80 71 64 81 71 62 79 70 61 80 72 61 79 72 62 81 72 63 81 74 66 81 72 65 81 72 65 81 72 63 80 70 60 83 66 56 78 64 51 75 59 44 63 46 38 43 30 22 38 29 22 33 28 22 30 26 23 27 23 20 25 21 20 25 21 20 23 23 21 23 21 22 24 24 24 26 24 25 29 25 26 32 26 28 
80 76 73 82 78 75 79 78 74 80 76 73 80 76 73 79 78 74 80 79 75 81 80 76 81 77 74 80 79 75 82 81 77 82 81 77 80 79 75 83 79 76 81 77 74 80 76 73 79 74 71 80 75 72 81 76 72 80 75 71 82 75 69 80 71 64 76 63 54 77 64 55 80 71 66 81 76 72 82 78 75 82 78 75 81 78 73 81 76 72 80 73 67 81 71 62 71 55 42 59 43 28 58 40 26 61 43 29 67 51 36 69 51 37 69 53 40 71 58 49 76 67 60 82 77 73 83 79 76 80 79 75 82 78 75 79 78 76 80 76 73 80 77 72 81 78 73 82 78 77 80 79 75 82 78 75 83 79 76 81 77 74 81 76 72 82 77 73 78 75 70 78 73 69 78 73 67 79 74 68 81 76 70 82 75 69 81 76 70 80 75 69 80 75 69 79 74 68 79 74 68 80 75 71 81 74 68 81 74 68 80 73 67 80 73 65 81 72 65 80 71 62 81 71 62 80 71 62 82 73 64 81 74 66 81 74 66 81 74 66 79 75 66 81 72 63 80 71 64 80 67 58 80 63 53 74 58 45 62 45 35 45 31 22 39 29 20 36 29 23 30 27 22 28 24 21 27 23 22 27 23 22 24 23 21 24 23 21 25 24 22 27 26 24 31 27 26 32 26 26 
81 77 74 82 78 75 83 79 76 80 79 75 81 80 76 82 78 75 79 78 76 80 79 77 81 77 74 81 80 76 81 80 76 81 80 76 80 79 75 83 79 76 82 78 75 79 78 74 80 76 73 81 77 74 80 76 73 80 75 71 79 74 68 78 71 63 76 66 57 78 67 61 80 73 67 81 76 72 82 78 75 81 78 73 81 77 74 82 77 74 81 76 70 83 74 67 75 61 50 66 48 36 60 44 31 64 51 35 75 56 42 76 60 47 73 59 48 72 59 50 77 68 61 82 77 73 81 80 76 80 79 77 82 78 75 81 77 74 81 77 74 80 77 72 81 76 72 81 77 74 82 78 77 81 77 74 82 78 75 82 78 75 81 77 74 82 77 73 81 76 72 80 75 71 82 75 69 79 74 68 79 74 68 80 75 69 79 75 66 79 76 69 79 74 68 81 74 68 81 74 68 79 74 68 79 74 68 81 74 68 82 75 69 81 74 66 81 72 67 81 72 63 81 72 63 80 71 64 81 72 65 81 74 66 81 74 66 81 74 66 80 73 65 83 74 65 80 72 61 81 69 57 80 63 53 73 56 46 59 45 34 47 30 22 43 28 21 38 27 23 37 27 25 30 25 22 29 24 20 28 22 22 24 23 21 22 21 19 27 23 22 26 25 23 27 26 24 30 26 25 
82 78 75 82 78 75 82 78 75 80 79 75 81 80 76 80 79 75 80 79 75 79 78 74 79 78 76 81 80 78 81 80 78 81 80 75 80 79 75 82 79 74 81 77 74 80 76 73 80 76 73 82 78 75 79 75 72 80 77 72 81 76 70 81 73 70 81 72 67 79 72 66 80 75 71 81 78 73 82 78 75 81 77 74 79 78 74 80 76 73 81 76 72 83 76 70 82 69 61 72 60 48 67 53 40 67 53 40 70 56 43 74 60 49 75 63 51 74 64 55 76 67 60 81 76 72 82 79 74 81 80 76 81 77 74 82 79 72 80 76 73 79 75 72 79 76 71 80 77 72 82 78 75 82 78 75 83 79 78 82 78 75 80 76 73 82 78 75 81 78 73 81 73 70 81 76 72 80 75 69 79 74 68 81 74 66 80 73 65 81 74 68 80 73 63 80 73 67 81 74 68 79 75 66 79 74 68 82 75 69 79 74 68 81 74 66 81 72 65 81 72 63 81 72 63 80 71 62 80 71 64 82 73 66 81 74 66 81 74 66 82 75 67 82 73 66 81 73 60 81 68 59 77 63 52 71 54 44 61 43 33 47 30 22 41 28 20 41 28 22 38 27 25 34 26 24 29 24 21 28 22 22 26 22 21 22 21 19 25 21 20 25 21 20 26 22 21 27 23 22 
82 78 75 82 78 75 82 78 75 82 78 75 80 79 75 81 80 76 81 80 76 80 79 77 78 77 73 79 78 76 83 78 75 80 79 77 82 78 75 83 79 76 81 80 76 80 79 75 81 77 74 81 77 74 79 75 72 81 76 73 82 77 74 81 76 72 82 75 69 80 75 72 79 76 71 81 78 73 81 77 74 81 77 74 80 79 75 81 76 73 81 78 73 82 77 71 81 71 62 77 67 57 74 62 50 73 61 49 72 58 45 76 62 51 72 62 50 72 62 53 75 66 59 83 76 70 82 77 73 81 78 73 82 78 75 79 78 74 81 77 74 80 77 72 77 76 71 80 76 73 80 76 73 83 79 78 82 78 75 81 77 76 82 78 75 82 79 74 81 77 74 81 78 71 80 75 71 80 75 69 79 74 68 79 75 66 80 73 65 80 71 62 78 71 63 78 71 65 80 71 64 80 73 67 82 75 69 80 73 67 80 73 67 81 72 65 79 72 64 80 71 62 79 71 60 80 70 61 80 70 61 79 70 61 81 74 64 82 75 65 81 74 66 80 73 65 81 72 63 79 69 59 79 65 52 72 56 43 61 43 31 48 31 23 42 27 20 40 27 21 39 28 22 33 25 23 25 21 18 22 22 20 22 21 19 20 18 19 19 19 17 23 22 20 27 23 22 27 23 22 
82 79 74 79 78 74 80 79 75 81 77 74 83 79 76 83 79 78 80 79 75 80 79 75 80 76 73 80 76 73 82 78 75 81 77 74 79 78 74 80 79 75 81 80 76 80 79 75 81 77 74 82 78 75 81 77 74 80 76 73 82 78 75 81 78 73 81 76 73 80 75 72 79 76 71 81 78 73 83 79 76 81 77 74 80 79 75 81 78 73 81 76 72 83 76 70 81 74 66 79 70 61 77 68 59 76 66 54 77 63 52 76 66 56 74 64 54 72 62 52 73 64 57 80 73 67 81 76 70 80 79 74 81 78 71 80 77 72 80 77 72 80 77 72 78 74 71 79 76 71 80 76 73 81 77 74 82 78 75 82 78 75 81 77 74 82 78 75 81 78 73 80 77 72 81 76 72 80 75 71 79 74 68 81 74 68 80 73 65 78 71 61 77 68 59 78 69 62 79 72 66 80 73 65 81 74 66 80 73 67 82 75 69 81 74 66 81 72 65 80 70 61 80 70 60 80 70 60 81 68 59 79 71 60 80 71 64 80 73 65 81 74 66 81 74 66 80 73 63 79 69 59 79 65 54 74 57 47 60 44 31 50 33 23 46 29 22 40 26 23 36 27 22 32 24 21 26 20 20 21 20 18 21 20 18 19 19 17 25 21 20 29 25 24 31 25 25 30 24 24 
81 78 73 80 79 75 81 80 76 82 78 75 82 78 75 81 77 76 80 79 75 79 78 74 78 77 73 79 78 74 79 78 74 80 79 75 83 79 76 83 79 76 83 79 76 82 78 75 82 79 74 82 78 75 79 78 74 81 77 76 82 78 77 81 77 76 81 77 74 80 75 72 80 75 71 78 73 69 80 75 71 82 78 75 81 77 74 81 78 73 80 75 69 81 74 68 82 75 69 80 76 67 81 72 65 78 71 63 77 68 59 79 69 60 75 66 57 74 63 57 72 63 56 78 71 63 80 75 69 81 78 73 81 78 73 79 78 73 81 78 73 81 78 73 79 75 72 80 76 73 80 76 73 80 76 73 82 78 75 79 78 74 82 78 75 79 78 73 80 79 75 82 78 75 82 77 73 80 75 69 79 74 68 80 73 65 80 71 64 78 70 59 76 66 57 74 70 59 76 72 63 79 72 64 81 74 68 80 73 67 81 74 68 82 73 66 81 72 65 81 71 62 80 70 60 80 67 58 78 68 56 80 70 60 80 71 62 81 74 66 79 75 66 79 75 66 83 73 64 81 71 61 81 67 56 76 60 47 64 48 35 53 36 28 45 30 23 40 27 21 36 26 24 26 22 19 24 20 17 20 20 18 22 21 17 23 19 18 28 24 23 33 29 26 34 29 26 32 27 24 
81 78 73 82 78 75 82 78 75 82 78 75 82 78 75 82 78 77 81 80 76 79 80 75 81 80 76 79 78 74 80 79 75 80 79 75 83 79 76 81 77 74 81 77 74 82 78 75 82 78 75 83 79 76 82 78 75 78 77 73 82 78 75 83 79 76 80 79 75 79 75 72 78 73 69 76 71 65 79 74 68 83 78 74 82 79 74 81 76 70 80 73 65 81 74 68 82 75 69 80 75 69 81 74 68 79 74 68 79 72 66 80 73 65 79 72 64 76 67 60 74 65 58 75 68 60 79 74 68 80 75 71 79 74 70 82 79 74 81 78 73 81 77 74 80 76 73 78 74 71 78 74 71 80 76 73 81 76 73 83 79 76 82 78 77 80 79 75 80 79 75 81 77 74 81 78 73 80 75 71 79 74 68 80 73 67 79 70 63 76 67 58 75 67 56 78 69 60 77 70 62 79 72 64 81 74 66 81 74 66 79 75 66 81 74 66 82 73 66 80 70 60 81 69 57 80 68 56 80 66 55 81 67 56 84 71 63 81 72 65 82 75 67 81 74 68 81 72 63 81 71 61 81 68 59 78 62 49 68 51 41 55 38 28 44 31 22 34 25 20 29 24 21 19 18 14 21 20 16 22 23 18 27 24 19 26 22 21 30 22 19 34 26 23 37 27 25 38 28 26 
81 78 73 81 77 74 81 77 74 82 78 75 81 77 74 81 77 76 79 78 74 80 79 75 81 80 76 80 79 75 81 80 76 81 80 76 81 77 74 82 78 75 81 77 74 80 76 73 81 77 74 81 77 74 81 77 74 80 77 72 81 77 74 82 78 75 82 81 77 79 76 71 78 71 65 78 69 62 79 70 63 81 74 68 81 72 65 80 71 64 80 70 61 81 71 62 80 75 69 83 76 70 81 77 68 80 75 71 79 74 70 80 75 69 79 74 68 77 73 64 77 70 62 79 72 64 80 73 67 78 73 69 80 75 71 80 77 72 82 78 75 80 79 77 82 78 75 77 76 72 79 76 71 81 77 74 80 76 73 80 76 73 80 79 77 79 78 76 82 78 75 83 79 76 81 77 74 80 75 71 79 74 68 80 73 67 80 71 64 77 68 59 78 68 59 77 68 59 79 70 63 78 71 63 78 73 67 77 73 64 79 72 64 80 73 65 79 70 61 82 70 58 79 67 53 80 66 53 79 63 50 79 65 54 80 70 60 82 73 66 81 74 66 81 74 68 83 73 64 80 71 62 81 69 57 76 64 50 68 54 41 54 37 27 40 30 21 30 22 19 26 21 17 25 22 17 33 30 25 38 35 28 44 39 33 48 43 37 52 43 38 49 40 35 48 39 34 48 39 32 
79 76 71 81 77 74 81 77 74 82 78 75 79 75 72 79 75 74 80 76 73 79 78 74 80 79 75 81 80 76 81 80 76 79 78 74 83 79 76 81 77 74 81 77 74 81 77 74 80 76 73 80 76 73 81 76 72 81 76 72 81 76 72 82 77 73 82 79 74 82 75 69 80 73 65 78 71 61 77 68 59 77 67 57 76 63 54 73 59 48 73 56 46 77 63 52 81 72 63 82 75 67 82 75 69 81 76 70 81 76 70 80 77 70 80 75 69 78 73 67 78 71 65 80 73 67 82 73 68 82 74 71 81 76 72 82 77 74 81 77 74 81 77 74 81 77 74 80 76 73 80 77 72 80 76 73 81 77 74 79 78 74 79 78 76 80 79 77 80 79 77 81 80 76 83 79 76 82 77 73 80 75 71 80 73 67 79 70 63 78 67 61 76 65 59 77 66 60 77 70 62 77 70 64 79 72 66 78 75 68 80 73 65 80 71 62 80 70 61 80 68 56 79 66 50 78 62 47 79 63 48 80 66 53 81 71 61 81 72 65 81 72 67 80 73 65 83 74 67 80 72 61 79 69 59 76 64 52 68 54 41 52 38 29 38 28 18 29 20 15 28 23 19 40 33 25 48 44 35 55 48 38 60 54 42 66 57 50 66 59 51 63 56 48 61 54 44 60 51 42 
78 75 70 81 77 74 81 77 74 81 77 74 80 76 73 78 74 73 79 75 72 81 77 74 82 78 75 82 78 75 81 77 74 81 77 74 79 78 74 80 79 75 79 78 74 79 78 74 80 77 72 80 77 72 81 76 70 80 75 69 82 75 69 82 75 69 82 77 71 81 74 68 80 73 67 78 71 63 78 69 60 76 66 54 76 59 49 71 53 41 67 47 36 70 52 40 78 65 57 78 67 61 79 72 66 80 76 67 80 75 69 83 75 72 80 75 69 79 75 66 79 72 66 81 74 68 79 74 68 83 75 72 80 75 71 81 76 73 79 75 74 80 76 75 80 77 72 79 75 72 80 76 73 80 76 73 82 78 75 80 79 75 80 79 77 79 78 76 80 79 77 79 79 77 80 79 75 81 77 74 80 75 72 80 72 69 80 71 66 78 67 61 78 67 61 76 69 61 79 70 63 78 71 65 78 73 67 78 73 67 81 74 64 81 72 63 83 70 61 79 67 53 79 63 48 77 59 45 78 62 47 78 64 51 82 69 60 82 73 66 81 74 68 79 75 66 82 73 66 81 73 62 81 68 59 76 64 52 69 55 42 50 38 26 37 27 18 28 21 15 32 27 21 50 41 32 58 50 39 64 56 45 70 61 52 73 66 56 72 65 55 71 64 54 69 62 52 68 59 50 
80 77 72 80 76 73 82 78 75 82 78 75 80 76 73 79 75 74 79 75 72 80 76 73 81 80 76 80 79 75 79 78 74 78 77 73 79 75 72 82 78 75 80 76 73 80 76 73 79 76 71 80 75 71 80 73 67 78 71 65 78 71 63 80 71 64 79 72 64 82 73 66 82 73 66 81 74 66 82 75 65 81 68 59 75 61 48 69 50 36 60 41 26 57 38 23 69 52 42 72 59 50 74 67 57 79 72 62 79 72 64 82 75 69 80 75 69 80 75 69 81 74 68 80 73 67 79 74 70 82 74 71 80 75 71 81 76 72 80 75 72 81 76 73 79 76 69 78 77 72 78 77 73 82 78 75 80 79 75 81 80 78 79 79 77 80 79 77 81 80 78 80 79 77 80 79 77 81 77 74 80 76 75 79 74 70 78 71 65 78 69 62 78 69 62 77 70 62 77 73 64 78 73 67 79 74 68 80 75 71 80 73 65 82 69 61 81 69 57 81 68 52 80 63 47 78 60 46 77 61 46 79 65 52 80 70 60 81 72 65 81 74 66 81 73 70 82 75 67 80 71 62 80 68 56 78 64 53 67 53 40 46 32 21 35 26 17 30 23 15 39 32 24 58 48 38 67 57 45 70 62 49 74 66 55 77 70 60 77 70 60 77 70 60 75 68 58 75 67 56 
80 77 72 81 77 74 83 79 76 83 79 76 82 78 75 82 78 77 81 77 74 82 78 75 80 79 75 81 80 76 80 79 75 78 77 73 81 77 74 81 77 74 80 76 73 80 76 73 80 77 72 81 73 70 81 70 64 78 69 60 77 68 59 78 68 58 78 68 59 79 69 60 80 73 65 81 76 70 80 76 67 81 71 62 80 64 51 74 55 41 65 43 29 56 34 20 56 38 26 58 44 35 66 52 43 74 61 52 77 68 59 78 71 63 79 72 64 80 73 65 83 76 70 78 73 69 79 74 71 79 74 70 79 74 70 82 74 71 79 74 70 80 75 69 80 75 71 79 76 71 77 78 73 81 77 74 80 79 75 81 80 76 80 81 76 81 80 78 81 80 76 80 78 79 81 79 80 82 78 75 80 76 73 79 75 72 79 74 70 81 74 68 81 72 67 81 72 67 80 73 67 80 73 67 78 73 67 79 75 66 81 72 63 82 69 60 79 67 55 81 65 50 81 62 47 77 61 45 79 61 47 80 66 53 79 69 59 82 71 65 82 73 68 81 74 68 82 73 64 82 72 62 81 68 59 76 62 49 64 50 37 42 28 17 35 25 13 35 27 16 47 41 29 66 54 40 69 61 48 73 63 51 76 68 57 77 69 58 79 72 62 80 73 63 80 73 63 80 74 62 
78 74 71 80 76 73 80 76 73 82 78 77 81 80 78 79 78 74 81 77 74 80 79 75 80 79 75 82 81 77 80 79 75 81 77 74 80 76 73 82 78 75 82 78 75 82 78 75 81 78 73 80 75 71 79 72 64 79 70 61 78 68 59 77 67 57 78 68 59 80 71 62 78 73 67 79 74 68 81 76 70 81 73 62 78 64 51 72 53 39 64 42 28 59 37 23 58 39 25 49 32 22 45 31 22 48 35 27 55 46 39 66 57 50 72 65 59 78 71 65 79 75 66 78 73 69 78 73 69 79 74 70 78 75 70 79 74 68 81 74 68 80 75 71 79 74 70 79 76 71 80 76 73 78 77 73 80 79 77 79 79 77 79 78 76 80 79 77 79 78 76 80 79 77 80 79 75 79 78 74 80 76 73 80 77 72 80 76 73 79 74 70 79 74 71 78 73 69 80 72 69 79 72 66 79 72 64 78 71 63 78 69 60 81 68 59 80 67 58 81 64 46 79 60 45 77 60 44 78 61 45 80 64 51 81 68 59 81 72 65 81 72 67 81 72 65 79 72 62 80 71 62 79 69 57 76 64 52 69 53 40 55 39 26 45 35 23 44 36 23 55 48 32 66 58 45 71 61 49 74 66 53 76 70 58 79 72 62 81 74 66 81 74 66 81 74 64 80 73 63 
78 74 71 79 75 72 77 73 70 80 76 73 79 78 74 79 78 74 81 77 74 79 78 74 79 78 74 80 79 75 81 77 74 80 76 73 80 76 73 81 77 74 80 79 75 80 79 75 82 77 74 81 76 72 81 74 68 80 71 62 81 71 61 80 70 60 79 70 61 80 73 65 79 75 66 81 76 72 82 77 71 80 73 63 78 61 51 68 50 36 62 43 29 63 44 29 71 49 38 58 41 31 43 30 21 30 21 14 27 20 14 45 38 32 60 51 44 72 63 58 80 71 66 79 74 68 78 73 69 78 73 69 79 74 70 81 72 65 78 71 63 77 72 66 79 74 68 80 75 69 80 77 72 81 78 73 79 78 74 80 79 77 80 79 75 81 77 74 81 77 74 80 79 77 80 79 75 80 76 75 82 78 75 82 78 75 82 78 75 82 77 74 80 75 71 82 74 71 80 73 67 76 71 65 79 72 64 79 70 63 79 70 61 81 68 59 81 67 56 80 63 45 79 58 41 77 58 43 77 60 44 79 63 50 80 67 58 80 71 64 81 72 67 80 73 65 82 73 66 81 71 62 82 70 58 76 62 51 74 58 45 64 50 37 58 46 32 54 47 31 61 54 38 70 63 45 73 66 50 76 69 53 78 72 60 81 74 66 80 76 67 80 76 67 80 76 67 79 75 66 
76 72 69 78 74 71 78 74 71 79 75 72 79 78 74 79 78 74 82 78 75 81 77 74 79 78 74 82 78 75 80 79 75 78 77 73 78 77 73 78 77 73 80 79 75 80 79 75 82 78 75 80 77 72 81 74 68 80 71 64 81 71 62 80 71 62 78 71 63 81 72 67 80 75 71 80 77 72 81 76 70 82 72 63 74 60 49 68 50 38 63 44 30 68 49 35 75 55 44 64 47 37 48 35 27 25 18 12 12 7 4 29 21 18 43 36 30 62 53 48 79 70 65 80 73 67 80 72 69 79 74 70 79 74 68 80 71 64 75 68 60 77 70 62 79 72 66 82 74 71 79 75 72 80 76 73 79 78 74 79 78 74 79 78 74 81 77 74 81 77 74 78 77 75 82 78 75 79 78 76 82 78 75 81 77 74 81 77 74 81 77 74 79 75 72 80 75 72 79 74 70 78 73 67 79 72 66 79 70 63 80 70 61 81 69 57 80 67 51 77 58 41 77 56 37 73 54 37 76 59 43 79 63 50 80 67 58 82 71 65 80 71 64 78 71 63 80 71 62 81 71 62 78 68 58 78 64 53 75 61 48 70 56 43 68 56 42 64 55 38 66 57 40 72 63 46 76 69 53 77 71 57 77 73 62 81 77 68 80 75 69 80 75 69 82 75 67 81 74 66 
75 71 68 77 73 70 79 74 71 80 76 73 78 77 73 81 77 74 81 77 74 83 79 76 80 79 75 80 79 75 80 79 75 81 77 74 80 76 73 79 75 72 83 79 76 80 79 75 82 78 75 80 75 71 81 74 68 81 72 65 78 69 62 79 70 65 81 74 68 81 76 70 82 79 74 81 78 71 80 75 69 81 73 62 72 60 46 67 49 37 64 46 32 73 55 41 76 56 45 71 53 43 55 42 34 35 27 24 11 10 6 11 6 3 27 17 15 48 41 35 73 62 56 80 73 65 78 73 67 79 74 68 79 74 68 81 72 63 75 66 57 75 68 58 78 69 62 81 74 68 82 77 71 81 77 74 81 77 74 79 78 74 79 78 76 79 78 74 79 78 74 78 77 75 79 78 74 79 78 76 81 80 78 82 78 77 80 79 77 81 77 76 81 77 74 80 76 73 79 74 70 79 74 70 78 73 67 79 70 63 80 70 60 80 68 54 79 63 47 77 55 34 75 53 32 73 52 33 76 60 45 78 64 53 78 68 59 81 70 64 81 72 67 79 72 64 80 71 62 79 71 60 77 67 55 78 66 54 77 63 54 75 63 49 75 62 46 71 64 46 71 62 45 73 66 48 77 69 56 79 71 60 80 73 63 80 76 67 81 76 70 80 75 69 80 75 69 79 74 68 
