P3
100 50
255
96 99 104 96 99 104 96 101 105 93 101 104 97 100 105 98 101 106 96 99 104 97 100 105 98 101 106 96 99 104 96 99 104 97 100 105 95 98 103 96 99 104 96 99 104 96 99 104 96 99 104 98 101 106 95 98 103 95 98 103 95 98 103 96 99 104 96 99 104 96 99 104 97 100 105 97 100 105 98 101 106 97 100 105 97 100 105 96 99 104 95 100 104 96 99 104 95 98 103 96 101 105 97 100 105 97 100 105 97 100 105 95 98 103 97 100 105 98 101 106 96 99 104 97 100 105 96 99 104 97 100 105 96 99 104 95 100 104 97 100 105 96 99 104 96 99 104 95 98 103 96 101 105 96 99 104 95 98 103 95 98 103 95 98 103 95 98 103 96 99 104 96 99 104 94 97 102 96 99 104 96 99 104 95 98 103 97 100 105 96 99 104 94 97 102 96 99 104 96 99 104 99 100 105 96 99 104 96 99 104 95 98 103 95 98 103 95 98 103 95 98 103 95 98 103 96 99 104 95 98 103 95 98 103 95 98 103 95 98 103 95 98 103 95 98 103 95 98 103 94 97 102 95 98 103 94 97 102 96 99 104 97 100 105 96 99 104 96 99 104 96 99 104 96 99 104 96 99 104 96 99 104 95 98 103 94 99 103 94 97 102 95 98 103 94 97 102 93 96 101 
98 101 106 96 99 104 95 100 104 95 100 104 96 99 104 98 101 106 97 100 105 97 100 105 96 99 104 95 100 104 94 97 102 95 100 104 95 98 103 96 99 104 96 99 104 97 100 105 97 100 105 97 100 105 96 99 104 95 98 103 96 99 104 96 99 104 95 98 103 96 99 104 96 99 104 97 100 105 96 99 104 96 99 104 97 100 105 96 99 104 94 99 103 94 97 102 95 98 103 95 100 104 96 99 104 97 100 105 95 98 103 96 99 104 96 99 104 96 99 104 96 99 104 95 98 103 96 99 104 96 101 105 96 99 104 95 98 103 95 98 103 95 98 103 97 100 105 97 100 105 96 99 104 95 98 103 96 99 104 95 98 103 95 98 103 96 99 104 95 98 103 95 98 103 96 99 104 95 98 103 94 97 102 96 99 104 96 99 104 96 99 104 95 98 103 96 99 104 95 98 103 97 98 103 95 98 103 96 99 104 96 99 104 96 99 104 95 98 103 95 98 103 94 97 102 95 98 103 97 100 105 95 98 103 94 97 102 95 98 103 94 97 102 95 98 103 95 98 103 93 96 101 95 98 103 95 98 103 95 98 103 96 99 104 96 99 104 95 98 103 96 99 104 96 99 104 96 99 104 94 99 103 95 98 103 94 97 102 94 99 103 93 96 101 92 95 100 92 97 101 
97 100 105 97 100 105 96 99 104 95 100 104 95 98 103 96 99 104 97 100 105 97 100 105 95 98 103 95 98 103 97 100 105 96 99 104 96 99 104 95 98 103 96 99 104 97 100 105 97 100 105 96 99 104 96 99 104 95 98 103 96 99 104 96 99 104 95 98 103 96 99 104 96 99 104 97 100 105 97 100 105 97 100 105 96 99 104 96 99 104 96 99 104 95 98 103 97 100 105 97 100 105 97 100 105 96 99 104 95 100 104 97 100 105 97 100 105 96 99 104 96 99 104 95 98 103 95 100 104 95 98 103 96 99 104 96 99 104 94 99 103 95 100 104 94 99 103 95 100 104 97 100 105 95 98 103 97 100 105 96 99 104 96 99 104 96 99 104 94 97 102 95 98 103 95 98 103 94 97 102 94 97 102 96 99 104 96 99 104 96 99 104 96 99 104 95 98 103 94 97 102 96 99 104 96 99 104 96 99 104 95 98 103 94 97 102 94 97 102 94 97 102 95 98 103 96 99 104 95 98 103 95 98 103 94 97 102 94 97 102 94 97 102 94 97 102 95 98 103 95 98 103 95 98 103 96 99 104 95 98 103 95 98 103 96 99 104 96 99 104 96 99 104 96 99 104 95 98 103 93 98 102 94 97 102 94 97 102 94 97 102 93 96 101 93 96 101 92 97 101 
97 100 105 97 100 105 96 99 104 97 100 105 96 99 104 97 100 105 95 98 103 95 98 103 97 100 105 95 98 103 95 100 104 95 98 103 97 100 105 95 98 103 97 100 105 98 101 106 96 99 104 97 100 105 97 100 105 95 98 103 95 98 103 95 98 103 97 100 105 96 99 104 96 99 104 96 99 104 97 100 105 96 99 104 96 99 104 95 100 104 96 99 104 96 99 104 97 100 105 97 100 105 95 100 104 96 99 104 97 100 105 96 101 105 95 100 104 95 98 103 95 98 103 95 98 103 95 98 103 95 98 103 96 99 104 95 98 103 97 100 105 97 98 103 97 98 103 96 99 104 95 98 103 96 99 104 96 99 104 96 99 104 96 99 104 95 98 103 96 99 104 95 98 103 94 97 102 96 99 104 95 98 103 95 98 103 95 98 103 95 98 103 95 98 103 96 99 104 95 98 103 95 98 103 94 97 102 95 98 103 96 99 104 95 98 103 96 99 104 95 98 103 95 98 103 95 98 103 95 98 103 94 97 102 94 97 102 95 98 103 94 97 102 94 97 102 96 99 104 95 98 103 94 97 102 95 98 103 95 98 103 95 98 103 95 98 103 95 98 103 95 98 103 95 98 103 96 99 104 95 98 103 94 97 102 93 96 101 94 97 102 93 96 101 93 96 101 93 96 101 
97 100 105 97 100 105 97 100 105 95 98 103 95 98 103 97 100 105 98 101 106 97 100 105 96 99 104 95 100 104 96 99 104 95 100 104 96 99 104 96 99 104 96 99 104 95 98 103 96 99 104 95 98 103 96 99 104 95 98 103 95 98 103 96 99 104 96 99 104 96 99 104 96 99 104 96 99 104 96 99 104 96 99 104 96 99 104 96 99 104 95 100 104 95 98 103 97 100 105 96 101 105 96 99 104 95 98 103 97 100 105 96 99 104 96 99 104 94 99 103 95 98 103 95 98 103 96 99 104 96 99 104 96 99 104 96 99 104 96 99 104 95 98 103 95 98 103 95 98 103 97 100 105 95 98 103 96 99 104 95 98 103 95 98 103 97 100 105 95 98 103 95 98 103 95 98 103 94 97 102 94 97 102 95 98 103 95 98 103 96 99 104 95 98 103 96 99 104 95 98 103 95 98 103 96 99 104 96 99 104 96 99 104 96 99 104 96 99 104 96 99 104 95 98 103 95 98 103 95 98 103 94 97 102 94 97 102 96 99 104 95 98 103 95 98 103 94 97 102 95 98 103 95 98 103 95 98 103 95 98 103 95 98 103 96 99 104 96 99 104 95 98 103 94 97 102 93 96 101 94 97 102 93 96 101 94 97 102 94 97 102 94 97 102 92 95 100 93 96 101 
98 101 106 97 100 105 97 100 105 97 100 105 97 100 105 96 99 104 97 100 105 97 100 105 96 99 104 96 99 104 95 98 103 96 99 104 97 100 105 96 99 104 96 99 104 96 99 104 96 99 104 96 99 104 96 99 104 96 99 104 95 98 103 94 97 102 96 99 104 96 99 104 95 98 103 96 99 104 96 99 104 97 100 105 95 98 103 96 99 104 96 101 105 97 100 105 97 100 105 95 100 104 95 98 103 97 100 105 96 99 104 95 98 103 97 100 105 96 99 104 95 100 104 95 100 104 97 100 105 96 99 104 94 97 102 96 99 104 95 98 103 96 99 104 94 97 102 96 99 104 95 98 103 95 98 103 94 97 102 95 98 103 95 98 103 96 99 104 95 98 103 95 98 103 96 99 104 95 98 103 95 98 103 95 98 103 95 98 103 95 98 103 95 98 103 95 98 103 95 98 103 96 99 104 96 99 104 96 99 104 95 98 103 96 99 104 96 99 104 96 99 104 95 98 103 94 97 102 94 97 102 96 99 104 94 97 102 96 99 104 94 97 102 94 97 102 94 97 102 95 98 103 94 97 102 94 97 102 95 98 103 95 98 103 95 98 103 95 98 103 94 97 102 94 97 102 95 98 103 94 97 102 95 98 103 94 97 102 92 97 101 93 96 101 93 96 101 92 95 100 
96 99 104 97 100 105 96 99 104 97 100 105 97 100 105 96 99 104 97 100 105 97 100 105 96 99 104 95 98 103 95 100 104 96 99 104 96 99 104 95 98 103 96 99 104 95 98 103 95 98 103 95 98 103 95 98 103 95 98 103 95 98 103 95 98 103 95 98 103 95 98 103 95 98 103 95 98 103 95 98 103 96 99 104 96 99 104 96 99 104 96 99 104 95 98 103 96 99 104 96 99 104 95 98 103 96 99 104 94 97 102 95 98 103 96 99 104 95 98 103 96 99 104 95 98 103 95 98 103 95 98 103 96 99 104 95 98 103 95 98 103 95 98 103 95 98 103 94 97 102 97 100 105 96 99 104 95 98 103 95 98 103 95 98 103 96 99 104 95 98 103 95 98 103 94 97 102 95 98 103 94 99 103 95 98 103 96 99 104 95 98 103 95 98 103 95 98 103 95 98 103 95 98 103 95 98 103 95 98 103 95 98 103 95 98 103 95 98 103 95 98 103 95 98 103 95 98 103 96 99 104 95 98 103 95 98 103 95 98 103 94 97 102 93 96 101 93 96 101 95 98 103 94 97 102 93 96 101 94 97 102 95 98 103 94 97 102 93 96 101 94 97 102 93 96 101 93 96 101 92 97 101 93 96 101 94 95 100 91 96 100 93 96 101 93 96 101 91 94 99 
97 100 105 97 100 105 96 99 104 95 98 103 96 99 104 96 99 104 97 100 105 97 100 105 97 100 105 96 99 104 98 101 106 96 99 104 95 98 103 96 99 104 95 98 103 96 99 104 96 99 104 95 98 103 95 98 103 95 98 103 96 99 104 95 98 103 95 98 103 95 98 103 96 99 104 96 99 104 95 98 103 95 98 103 94 99 103 95 98 103 95 98 103 96 101 105 95 100 104 96 99 104 94 97 102 94 99 103 94 97 102 95 98 103 95 98 103 95 98 103 96 99 104 96 99 104 95 98 103 95 98 103 95 98 103 95 98 103 96 99 104 93 96 101 94 97 102 96 99 104 97 100 105 97 100 105 95 98 103 96 99 104 95 98 103 96 99 104 95 98 103 94 97 102 94 97 102 95 98 103 94 99 103 96 99 104 94 97 102 96 99 104 94 97 102 94 97 102 95 98 103 94 97 102 95 98 103 95 98 103 96 99 104 94 97 102 96 99 104 95 98 103 96 99 104 95 98 103 94 97 102 94 97 102 95 98 103 94 97 102 95 98 103 93 96 101 95 98 103 95 98 103 94 97 102 94 97 102 94 97 102 94 97 102 94 97 102 93 96 101 93 96 101 94 97 102 93 98 102 93 96 101 92 95 100 91 94 99 94 97 102 94 97 102 91 96 100 92 95 100 
96 99 104 96 99 104 97 100 105 96 99 104 96 99 104 96 99 104 96 99 104 97 100 105 97 100 105 96 99 104 96 99 104 96 99 104 96 99 104 96 99 104 95 98 103 94 97 102 96 99 104 95 98 103 95 98 103 95 98 103 96 99 104 95 98 103 95 98 103 96 99 104 95 98 103 94 97 102 95 98 103 95 98 103 95 98 103 96 99 104 96 99 104 96 99 104 95 98 103 96 99 104 95 98 103 95 98 103 95 98 103 94 97 102 96 99 104 95 98 103 97 100 105 96 99 104 96 99 104 96 99 104 95 98 103 95 98 103 95 98 103 95 98 103 95 98 103 95 98 103 96 99 104 96 99 104 96 99 104 95 98 103 96 99 104 94 97 102 94 97 102 94 97 102 94 97 102 94 97 102 95 98 103 94 97 102 94 97 102 96 99 104 94 97 102 94 97 102 94 97 102 98 99 104 95 98 103 94 97 102 94 97 102 93 96 101 94 97 102 95 98 103 95 98 103 94 97 102 95 98 103 94 97 102 94 97 102 93 96 101 93 96 101 94 97 102 95 98 103 94 97 102 95 96 101 93 96 101 94 97 102 95 96 101 94 97 102 93 98 102 94 97 102 93 96 101 93 96 101 92 95 100 92 95 100 92 95 100 94 97 102 94 97 102 93 96 101 93 96 101 
96 99 104 97 100 105 96 99 104 96 99 104 97 100 105 96 99 104 96 99 104 97 100 105 96 99 104 96 99 104 96 99 104 96 99 104 96 99 104 95 98 103 95 98 103 95 98 103 96 99 104 96 99 104 94 97 102 95 98 103 96 99 104 98 99 104 95 98 103 95 98 103 96 99 104 94 97 102 94 99 103 96 99 104 95 98 103 96 99 104 95 98 103 96 99 104 96 99 104 96 99 104 96 99 104 95 98 103 96 99 104 94 99 103 94 99 103 95 98 103 95 98 103 94 99 103 94 99 103 94 97 102 94 97 102 95 98 103 94 97 102 95 98 103 96 99 104 94 97 102 96 99 104 95 98 103 95 98 103 94 97 102 94 97 102 95 98 103 96 99 104 95 98 103 94 99 103 95 98 103 95 98 103 95 98 103 96 99 104 93 98 102 94 99 103 95 98 103 96 97 102 96 97 102 93 96 101 95 98 103 95 98 103 94 97 102 94 97 102 95 98 103 95 98 103 95 98 103 95 98 103 94 97 102 95 98 103 96 99 104 95 98 103 95 98 103 94 97 102 94 97 102 96 97 102 96 97 102 93 96 101 93 96 101 94 97 102 93 96 101 92 95 100 93 96 101 92 95 100 93 96 101 92 95 100 93 96 101 93 96 101 92 97 101 92 97 101 91 94 99 
95 98 103 96 99 104 96 99 104 96 99 104 95 98 103 95 98 103 96 99 104 96 99 104 96 99 104 95 98 103 96 99 104 97 100 105 95 98 103 96 99 104 97 100 105 95 98 103 95 98 103 94 97 102 96 99 104 95 98 103 95 98 103 96 99 104 99 100 105 96 99 104 95 98 103 95 98 103 94 99 103 95 98 103 94 97 102 95 98 103 96 99 104 94 97 102 94 97 102 95 98 103 95 98 103 95 98 103 95 98 103 95 98 103 95 98 103 95 98 103 95 98 103 94 97 102 95 98 103 95 98 103 94 99 103 96 99 104 96 99 104 96 99 104 95 98 103 96 99 104 95 98 103 93 98 102 94 97 102 93 98 102 95 98 103 96 99 104 96 99 104 95 98 103 96 99 104 96 99 104 95 98 103 95 98 103 95 98 103 95 98 103 95 98 103 94 97 102 95 98 103 96 99 104 95 98 103 96 99 104 96 99 104 95 98 103 95 98 103 96 99 104 95 98 103 95 98 103 95 98 103 94 97 102 95 98 103 94 97 102 94 97 102 93 96 101 92 95 100 93 96 101 95 98 103 94 97 102 94 97 102 94 99 103 93 96 101 93 96 101 92 97 101 93 96 101 92 95 100 93 96 101 93 96 101 92 95 100 93 96 101 92 95 100 94 97 102 91 94 99 
97 100 105 97 100 105 95 98 103 96 99 104 96 99 104 95 98 103 95 98 103 96 99 104 96 99 104 96 99 104 96 99 104 95 98 103 96 99 104 96 99 104 96 99 104 95 98 103 96 99 104 96 99 104 96 99 104 95 98 103 96 99 104 94 99 103 96 99 104 95 98 103 95 98 103 96 99 104 96 99 104 95 98 103 95 98 103 95 98 103 94 97 102 95 98 103 95 98 103 96 99 104 96 99 104 95 98 103 95 98 103 96 99 104 95 98 103 96 99 104 95 98 103 94 97 102 95 98 103 94 97 102 95 98 103 96 99 104 96 99 104 94 99 103 95 100 104 95 98 103 95 98 103 94 97 102 94 97 102 95 98 103 95 98 103 95 98 103 95 98 103 96 99 104 94 99 103 96 99 104 96 99 104 96 99 104 95 98 103 95 98 103 94 97 102 95 98 103 95 98 103 95 98 103 95 98 103 95 98 103 95 98 103 95 98 103 95 98 103 95 98 103 96 99 104 95 98 103 95 98 103 95 98 103 94 97 102 95 98 103 95 98 103 91 94 99 94 97 102 94 97 102 94 97 102 94 97 102 93 96 101 94 97 102 94 97 102 93 96 101 93 98 102 93 96 101 93 96 101 94 97 102 94 97 102 92 95 100 91 94 99 91 96 100 91 96 100 91 94 99 
95 98 103 96 99 104 96 99 104 96 99 104 95 98 103 95 98 103 95 98 103 96 99 104 96 99 104 96 99 104 95 98 103 96 99 104 96 99 104 96 99 104 96 99 104 96 99 104 95 98 103 94 97 102 97 100 105 96 99 104 96 99 104 95 98 103 95 98 103 95 98 103 95 98 103 97 100 105 95 98 103 96 99 104 93 96 101 95 98 103 96 99 104 95 98 103 95 98 103 94 97 102 96 99 104 94 97 102 93 96 101 94 99 103 95 98 103 96 99 104 95 98 103 95 100 104 95 98 103 96 99 104 95 100 104 96 99 104 95 98 103 97 100 105 95 98 103 96 99 104 94 97 102 93 98 102 93 98 102 94 97 102 94 97 102 94 97 102 94 97 102 95 98 103 95 98 103 95 98 103 97 98 103 97 98 103 96 99 104 95 98 103 93 98 102 95 98 103 94 97 102 95 98 103 94 97 102 94 97 102 95 98 103 95 98 103 95 98 103 96 99 104 96 99 104 96 99 104 94 97 102 95 98 103 95 98 103 95 98 103 94 97 102 92 95 100 94 97 102 93 96 101 93 96 101 92 95 100 93 96 101 93 96 101 93 96 101 92 95 100 93 96 101 93 96 101 93 96 101 93 96 101 93 96 101 91 94 99 91 94 99 91 96 100 90 95 99 91 94 99 
96 99 104 95 98 103 95 98 103 95 98 103 95 98 103 94 97 102 95 98 103 96 99 104 95 98 103 95 98 103 96 99 104 96 99 104 96 99 104 95 98 103 94 97 102 95 98 103 96 99 104 95 98 103 96 99 104 95 98 103 95 98 103 96 99 104 96 99 104 95 98 103 95 98 103 95 98 103 95 98 103 96 99 104 96 99 104 96 99 104 97 100 105 95 98 103 95 98 103 94 97 102 95 98 103 96 99 104 95 98 103 95 98 103 94 97 102 94 97 102 95 98 103 96 99 104 95 98 103 97 100 105 96 99 104 97 100 105 96 99 104 94 99 103 94 99 103 95 98 103 95 98 103 94 97 102 94 97 102 94 97 102 94 97 102 93 96 101 95 98 103 95 98 103 96 97 102 94 99 103 96 99 104 95 98 103 95 98 103 95 98 103 95 98 103 95 98 103 94 97 102 96 99 104 94 97 102 95 98 103 95 98 103 95 98 103 95 98 103 94 97 102 94 97 102 94 97 102 93 96 101 94 97 102 94 97 102 94 97 102 94 97 102 93 96 101 94 97 102 94 97 102 93 96 101 91 94 99 93 96 101 92 95 100 93 96 101 92 95 100 91 94 99 92 95 100 93 96 101 93 96 101 92 95 100 91 94 99 92 95 100 92 95 100 90 93 98 89 92 97 
95 98 103 95 98 103 96 99 104 96 99 104 95 98 103 97 100 105 95 98 103 95 98 103 96 99 104 96 99 104 95 98 103 96 99 104 96 99 104 95 98 103 95 98 103 96 99 104 95 98 103 94 97 102 93 96 101 94 97 102 96 99 104 95 98 103 96 99 104 94 97 102 95 98 103 95 98 103 96 99 104 95 98 103 95 98 103 95 98 103 95 98 103 94 97 102 94 97 102 96 99 104 95 98 103 95 98 103 95 98 103 95 98 103 95 98 103 95 98 103 95 98 103 95 98 103 96 99 104 95 98 103 96 99 104 96 99 104 96 99 104 96 99 104 95 98 103 97 100 105 95 98 103 95 98 103 93 98 102 96 97 102 95 98 103 94 97 102 94 97 102 95 98 103 95 98 103 96 99 104 95 98 103 96 99 104 96 99 104 95 98 103 94 97 102 94 97 102 94 97 102 95 98 103 95 98 103 95 98 103 94 97 102 94 97 102 95 98 103 95 98 103 94 97 102 93 96 101 92 95 100 94 97 102 93 96 101 93 96 101 93 96 101 94 97 102 92 95 100 93 96 101 93 96 101 92 95 100 92 95 100 92 95 100 92 95 100 90 93 98 91 94 99 92 95 100 92 95 100 90 95 99 91 96 100 90 95 99 92 95 100 91 94 99 89 94 98 88 93 97 
95 98 103 95 98 103 96 99 104 96 99 104 95 98 103 95 98 103 95 98 103 96 99 104 96 99 104 96 99 104 95 98 103 96 99 104 95 98 103 95 98 103 95 98 103 94 97 102 94 97 102 96 99 104 95 98 103 95 98 103 95 98 103 94 99 103 95 98 103 95 98 103 95 98 103 99 100 105 95 98 103 95 98 103 95 98 103 95 98 103 96 99 104 95 98 103 95 98 103 95 98 103 95 98 103 95 98 103 96 99 104 95 98 103 95 100 104 95 98 103 95 98 103 95 98 103 94 99 103 95 98 103 95 98 103 95 98 103 94 97 102 95 98 103 95 98 103 95 98 103 94 97 102 94 97 102 94 97 102 95 98 103 93 96 101 94 97 102 94 97 102 96 99 104 96 99 104 95 100 104 94 97 102 94 97 102 95 98 103 94 97 102 94 97 102 94 97 102 94 97 102 93 96 101 93 96 101 95 98 103 95 98 103 94 97 102 93 96 101 93 96 101 95 98 103 94 97 102 93 96 101 93 96 101 91 94 99 93 96 101 93 96 101 92 95 100 93 96 101 93 96 101 92 97 101 93 96 101 92 95 100 91 96 100 91 96 100 91 94 99 92 95 100 93 96 101 90 95 99 90 95 99 90 95 99 89 94 98 90 93 98 90 93 98 90 93 98 89 92 97 
96 99 104 96 99 104 95 100 104 94 97 102 95 98 103 96 99 104 95 98 103 96 99 104 95 98 103 96 99 104 95 98 103 95 98 103 95 98 103 95 98 103 96 99 104 95 98 103 95 98 103 96 99 104 94 97 102 95 98 103 95 98 103 95 98 103 96 99 104 95 98 103 95 98 103 95 98 103 95 98 103 95 98 103 97 100 105 95 100 104 95 100 104 94 97 102 96 99 104 95 98 103 95 98 103 95 98 103 95 98 103 95 98 103 95 98 103 95 98 103 95 98 103 95 98 103 94 97 102 93 96 101 95 98 103 94 97 102 94 97 102 95 98 103 94 99 103 95 98 103 94 97 102 94 97 102 94 97 102 95 98 103 95 98 103 94 97 102 94 97 102 94 97 102 95 98 103 96 99 104 94 99 103 95 98 103 95 98 103 94 97 102 94 97 102 94 97 102 93 96 101 93 96 101 92 95 100 95 98 103 94 97 102 94 97 102 93 96 101 93 96 101 94 97 102 94 97 102 93 96 101 93 96 101 93 96 101 93 96 101 93 96 101 93 96 101 93 96 101 93 96 101 93 96 101 92 95 100 92 95 100 93 96 101 92 95 100 92 95 100 92 95 100 92 95 100 92 95 100 90 95 99 94 95 100 90 93 98 91 94 99 90 93 100 89 92 99 90 93 98 
96 99 104 95 98 103 94 99 103 95 98 103 95 98 103 95 98 103 95 98 103 96 99 104 95 98 103 95 98 103 96 99 104 95 98 103 95 98 103 95 98 103 95 98 103 95 98 103 96 99 104 94 97 102 95 98 103 95 98 103 94 97 102 96 99 104 95 98 103 96 99 104 95 98 103 95 98 103 96 99 104 95 98 103 95 98 103 96 99 104 96 99 104 96 99 104 94 97 102 95 98 103 95 98 103 96 99 104 95 98 103 95 98 103 94 97 102 95 98 103 95 98 103 95 98 103 95 98 103 95 98 103 95 100 104 94 97 102 93 96 101 94 97 102 96 99 104 95 98 103 95 98 103 94 97 102 95 98 103 95 98 103 95 98 103 94 97 102 94 97 102 95 98 103 96 99 104 96 99 104 95 98 103 95 98 103 93 96 101 94 97 102 93 96 101 93 96 101 93 96 101 92 95 100 93 96 101 94 97 102 92 95 100 93 96 101 93 96 101 92 95 100 94 97 102 93 96 101 92 95 100 92 95 100 94 97 102 94 97 102 94 97 102 94 97 102 93 96 101 94 97 102 92 95 100 92 95 100 91 94 99 91 96 100 93 96 101 92 95 100 91 94 99 90 95 99 92 95 100 92 95 100 91 94 99 91 94 101 90 93 100 91 94 99 89 94 98 89 92 99 
94 97 102 95 98 103 95 98 103 96 99 104 96 99 104 95 98 103 95 98 103 95 98 103 96 99 104 95 98 103 95 98 103 95 98 103 95 98 103 96 99 104 94 97 102 95 98 103 94 97 102 95 98 103 94 97 102 94 97 102 95 98 103 95 98 103 95 98 103 95 98 103 94 97 102 94 97 102 94 97 102 94 97 102 96 99 104 96 99 104 96 99 104 96 99 104 95 98 103 95 98 103 95 98 103 95 98 103 95 98 103 94 97 102 95 98 103 95 98 103 96 99 104 95 98 103 95 98 103 95 98 103 94 97 102 94 97 102 94 97 102 95 98 103 95 98 103 91 99 102 93 96 101 95 98 103 94 97 102 95 98 103 96 99 104 95 98 103 94 97 102 95 98 103 95 98 103 94 97 102 93 96 101 95 98 103 96 99 104 94 97 102 93 96 101 93 96 101 94 97 102 94 97 102 93 96 101 94 97 102 94 97 102 93 96 101 93 96 101 92 95 100 92 95 100 93 96 101 95 96 101 93 96 101 95 98 103 94 97 102 95 98 103 93 96 101 93 96 101 93 98 102 93 96 101 93 96 101 92 95 100 92 95 100 92 95 100 90 93 98 89 92 97 90 93 98 92 95 100 91 94 101 91 94 99 91 94 99 89 92 97 89 92 97 88 93 97 88 91 96 
96 99 104 95 98 103 94 99 103 94 97 102 95 98 103 94 97 102 94 97 102 96 99 104 95 98 103 94 97 102 95 98 103 96 99 104 95 98 103 94 97 102 96 99 104 96 99 104 95 98 103 94 97 102 96 99 104 95 98 103 95 98 103 95 98 103 95 98 103 95 98 103 95 98 103 95 98 103 95 98 103 95 98 103 92 100 103 94 97 102 97 100 105 94 99 103 94 99 103 94 97 102 95 98 103 97 98 103 95 98 103 94 97 102 95 98 103 94 97 102 95 98 103 94 97 102 96 99 104 94 97 102 94 99 103 93 96 101 95 98 103 95 98 103 95 98 103 93 98 102 93 96 101 93 96 101 94 97 102 94 97 102 94 97 102 94 97 102 94 97 102 94 97 102 93 96 101 93 96 101 92 97 101 92 97 101 93 96 101 94 97 102 95 98 103 94 97 102 94 97 102 93 96 101 94 97 102 94 97 102 94 97 102 94 97 102 94 97 102 93 96 101 92 95 100 92 95 100 93 96 101 92 95 100 93 96 101 92 95 100 93 96 101 93 96 101 92 95 100 93 96 101 93 98 102 91 94 99 92 95 100 92 95 100 89 94 98 90 93 98 90 93 100 91 94 101 90 93 100 91 94 101 88 93 99 89 92 97 89 92 97 89 92 99 89 92 97 87 92 96 
95 98 103 96 99 104 95 98 103 95 98 103 95 98 103 95 98 103 95 98 103 96 99 104 95 98 103 96 99 104 96 99 104 94 97 102 95 98 103 95 98 103 95 98 103 96 99 104 95 98 103 96 99 104 95 98 103 95 98 103 95 98 103 95 98 103 95 98 103 95 98 103 95 98 103 95 98 103 95 98 103 95 98 103 97 98 103 95 98 103 96 99 104 96 99 104 95 98 103 94 97 102 94 97 102 96 99 104 94 97 102 94 97 102 95 98 103 93 96 101 94 97 102 95 98 103 95 98 103 95 98 103 93 98 102 94 97 102 95 98 103 95 98 103 94 97 102 94 97 102 94 97 102 94 97 102 95 98 103 95 98 103 95 98 103 94 97 102 94 97 102 93 96 101 93 96 101 94 97 102 93 96 101 94 97 102 93 96 101 96 99 104 93 96 101 93 96 101 94 97 102 93 96 101 94 97 102 94 97 102 94 97 102 93 96 101 93 96 101 94 97 102 94 97 102 93 96 101 93 96 101 93 96 101 91 96 100 93 96 101 91 96 100 92 95 100 91 96 100 91 96 100 92 95 100 92 97 101 91 96 100 92 95 100 90 93 98 90 93 100 90 95 101 91 94 101 90 93 100 89 92 99 90 93 98 88 91 98 89 92 99 86 94 97 89 92 97 86 91 95 
93 96 101 95 98 103 95 100 104 95 98 103 95 98 103 95 98 103 94 97 102 94 97 102 95 98 103 95 98 103 95 98 103 95 98 103 95 98 103 94 97 102 96 99 104 95 98 103 95 98 103 94 97 102 94 97 102 94 97 102 94 97 102 93 96 101 95 98 103 94 97 102 95 98 103 95 98 103 94 97 102 94 97 102 94 99 103 95 98 103 95 98 103 94 99 103 94 97 102 95 98 103 95 98 103 93 96 101 95 98 103 94 97 102 94 97 102 95 98 103 94 97 102 93 96 101 95 98 103 95 98 103 94 97 102 95 98 103 95 98 103 94 97 102 93 98 102 94 97 102 93 96 101 94 97 102 94 97 102 95 98 103 95 98 103 94 97 102 93 96 101 94 97 102 93 96 101 93 96 101 93 96 101 93 96 101 93 96 101 93 96 101 95 98 103 93 96 101 93 96 101 93 96 101 93 96 101 94 97 102 93 96 101 93 96 101 92 95 100 93 96 101 93 96 101 93 96 101 93 96 101 93 96 101 92 95 100 93 96 101 92 95 100 93 96 101 92 95 100 92 95 100 91 94 99 91 94 99 92 95 100 91 94 99 91 94 99 91 94 101 91 94 101 89 92 99 90 93 100 89 92 99 88 91 98 89 92 99 88 93 99 87 92 98 87 92 96 87 92 98 
95 98 103 94 97 102 95 98 103 94 97 102 94 97 102 96 99 104 96 99 104 96 99 104 95 98 103 94 97 102 95 98 103 95 98 103 94 97 102 96 99 104 95 98 103 95 98 103 95 98 103 95 98 103 95 98 103 95 98 103 94 97 102 95 98 103 95 98 103 94 97 102 94 97 102 96 99 104 95 98 103 94 97 102 93 96 101 93 98 102 94 99 103 95 98 103 95 98 103 95 98 103 95 98 103 95 98 103 94 97 102 95 98 103 95 98 103 94 97 102 95 98 103 95 98 103 94 97 102 94 97 102 93 98 102 94 97 102 93 96 101 94 97 102 94 97 102 94 97 102 94 97 102 93 96 101 94 97 102 94 97 102 94 97 102 94 97 102 94 97 102 94 97 102 94 97 102 94 97 102 91 99 102 92 97 101 92 97 101 94 97 102 94 97 102 94 97 102 94 97 102 93 96 101 93 96 101 92 95 100 93 96 101 92 95 100 92 95 100 93 96 101 93 96 101 92 95 100 93 96 101 92 95 100 90 95 99 92 95 100 92 97 101 93 96 101 92 97 101 91 96 100 92 95 100 91 94 99 91 94 99 90 93 98 91 94 99 89 94 98 89 94 98 90 93 98 90 95 99 89 92 99 89 92 99 89 92 97 88 93 97 88 93 99 87 92 98 86 91 97 
94 97 102 96 99 104 93 98 102 94 97 102 95 98 103 96 99 104 94 97 102 95 98 103 95 98 103 97 100 105 94 97 102 95 98 103 95 98 103 95 98 103 95 98 103 95 98 103 95 98 103 95 98 103 95 98 103 95 98 103 95 98 103 96 99 104 95 98 103 93 96 101 93 96 101 95 98 103 95 98 103 94 97 102 92 95 100 94 97 102 94 97 102 95 98 103 95 98 103 95 98 103 93 96 101 95 98 103 95 98 103 95 98 103 93 96 101 94 97 102 94 97 102 95 98 103 94 97 102 94 97 102 93 96 101 93 96 101 93 96 101 94 97 102 93 96 101 90 98 101 93 96 101 94 97 102 94 97 102 93 96 101 94 97 102 94 97 102 94 97 102 94 97 102 94 97 102 94 97 102 95 98 103 94 97 102 92 95 100 92 95 100 93 96 101 94 97 102 93 96 101 93 96 101 92 95 100 93 96 101 93 96 101 93 96 101 93 96 101 92 95 100 93 96 101 93 96 101 91 94 99 91 94 99 91 94 99 91 94 99 91 94 99 91 94 99 90 93 98 91 94 99 91 94 99 92 95 100 91 94 99 91 94 99 91 94 99 91 94 99 90 93 98 90 93 98 88 93 99 89 94 98 88 93 97 87 92 98 89 92 99 89 92 99 88 91 98 86 91 97 
94 97 102 95 98 103 95 98 103 94 97 102 94 99 103 94 97 102 94 97 102 94 99 103 94 97 102 94 97 102 95 100 104 95 98 103 94 97 102 95 98 103 95 98 103 94 97 102 94 97 102 95 98 103 94 97 102 95 98 103 95 98 103 95 98 103 95 98 103 95 98 103 93 98 102 95 98 103 94 97 102 94 97 102 94 97 102 94 97 102 94 97 102 95 98 103 94 97 102 95 98 103 94 97 102 96 99 104 94 97 102 93 96 101 94 97 102 94 97 102 95 98 103 95 98 103 94 97 102 93 96 101 94 97 102 94 97 102 94 97 102 93 98 102 95 98 103 94 97 102 94 97 102 94 97 102 93 98 102 93 96 101 93 96 101 93 96 101 92 97 101 93 96 101 92 95 100 92 95 100 94 97 102 94 97 102 94 97 102 93 96 101 93 96 101 93 96 101 94 97 102 93 96 101 92 97 101 92 95 100 93 96 101 93 96 101 94 97 102 91 96 100 93 96 101 93 96 101 92 95 100 90 93 98 91 94 99 88 96 99 90 93 98 88 91 98 89 92 97 89 94 98 88 92 101 90 93 100 89 92 99 90 93 102 91 94 101 90 93 98 90 93 98 88 93 97 88 93 99 88 93 99 88 93 97 88 93 99 86 91 97 85 90 96 86 90 99 87 92 98 
93 96 101 94 97 102 95 98 103 94 97 102 94 97 102 95 98 103 94 97 102 94 97 102 95 98 103 94 97 102 95 98 103 95 98 103 95 98 103 95 98 103 95 98 103 95 98 103 96 99 104 95 98 103 94 97 102 94 97 102 97 100 105 93 98 102 95 98 103 93 98 102 93 98 102 96 99 104 94 97 102 94 97 102 94 97 102 93 96 101 94 97 102 95 98 103 94 97 102 94 97 102 95 98 103 94 97 102 95 98 103 95 98 103 94 97 102 94 97 102 94 97 102 94 97 102 94 97 102 94 97 102 93 96 101 94 97 102 94 97 102 94 97 102 95 100 104 94 97 102 94 97 102 93 96 101 93 96 101 93 98 102 93 96 101 93 96 101 93 96 101 94 97 102 93 96 101 93 96 101 93 96 101 93 96 101 93 96 101 93 96 101 93 96 101 93 96 101 93 96 101 93 96 101 93 96 101 92 95 100 93 96 101 92 97 101 92 95 100 92 95 100 92 95 100 93 96 101 92 95 100 92 95 100 91 94 99 90 93 98 88 91 96 89 92 99 88 93 97 89 92 97 89 92 99 90 93 100 89 92 99 90 93 100 89 92 97 89 94 98 89 92 97 87 92 96 89 94 100 87 92 98 87 92 96 87 92 98 87 92 98 86 91 97 85 89 98 87 92 98 
95 98 103 94 97 102 93 96 101 94 97 102 94 97 102 94 97 102 93 96 101 94 97 102 94 97 102 94 97 102 94 97 102 95 98 103 95 98 103 94 97 102 94 97 102 95 98 103 95 98 103 95 98 103 94 97 102 96 99 104 95 98 103 94 97 102 95 98 103 94 97 102 95 98 103 94 99 103 95 98 103 95 98 103 93 96 101 94 97 102 94 97 102 93 96 101 94 97 102 92 95 100 94 97 102 94 97 102 95 98 103 94 97 102 94 97 102 93 96 101 94 97 102 94 97 102 93 96 101 94 97 102 93 96 101 94 97 102 94 97 102 93 96 101 93 96 101 94 97 102 94 97 102 92 97 101 93 96 101 91 96 100 94 97 102 93 96 101 92 95 100 92 95 100 93 96 101 94 97 102 94 97 102 93 96 101 93 96 101 93 96 101 94 97 102 95 98 103 93 96 101 93 96 101 91 96 100 92 95 100 92 95 100 93 96 101 93 96 101 90 95 99 91 94 99 91 94 99 90 93 98 90 93 98 90 93 98 92 93 98 89 92 97 90 93 100 90 95 99 89 92 97 89 92 101 86 93 99 90 93 98 88 92 95 89 92 97 88 93 99 88 93 99 87 92 96 87 92 96 87 92 98 87 92 98 87 92 98 86 91 97 87 92 98 86 91 97 88 93 99 
95 98 103 95 98 103 95 98 103 95 98 103 97 98 103 92 97 101 94 99 103 94 97 102 94 97 102 94 97 102 95 98 103 94 99 103 94 97 102 95 98 103 95 98 103 94 97 102 95 98 103 95 98 103 95 98 103 95 98 103 94 99 103 94 97 102 97 98 103 93 96 101 95 100 104 94 97 102 95 98 103 94 97 102 94 97 102 94 97 102 93 96 101 93 96 101 93 96 101 95 98 103 94 97 102 94 97 102 94 97 102 93 96 101 93 96 101 93 96 101 92 95 100 93 96 101 93 96 101 93 96 101 94 99 103 94 97 102 95 98 103 94 97 102 94 97 102 94 97 102 93 96 101 93 96 101 93 98 102 93 96 101 93 96 101 93 96 101 94 97 102 93 96 101 93 96 101 93 96 101 93 96 101 93 96 101 93 96 101 95 98 103 96 99 104 93 96 101 93 96 101 92 95 100 93 96 101 91 94 99 92 95 100 90 95 99 92 95 100 91 94 99 91 94 99 90 95 99 91 94 99 90 93 98 90 93 98 89 92 97 90 93 98 88 93 99 89 94 98 89 92 97 91 91 101 89 92 99 89 92 97 89 92 97 88 91 96 88 93 99 87 92 98 87 92 96 87 92 98 87 92 98 87 92 98 88 93 99 87 92 98 87 92 98 87 92 98 88 93 99 
95 98 103 94 97 102 94 97 102 95 98 103 95 98 103 93 98 102 94 97 102 96 97 102 92 97 101 94 99 103 95 98 103 94 97 102 95 98 103 95 98 103 96 99 104 95 98 103 95 98 103 94 97 102 94 97 102 95 98 103 95 98 103 94 97 102 93 98 102 97 98 103 94 97 102 94 97 102 95 98 103 94 97 102 92 95 100 94 97 102 93 96 101 93 96 101 92 95 100 93 96 101 95 98 103 94 97 102 94 97 102 95 98 103 94 97 102 94 97 102 93 96 101 94 97 102 93 96 101 95 98 103 94 97 102 94 97 102 95 98 103 93 98 102 94 97 102 94 97 102 93 96 101 93 96 101 93 98 102 93 96 101 94 97 102 95 98 103 94 97 102 93 96 101 93 96 101 93 96 101 94 97 102 93 96 101 94 97 102 92 95 100 94 97 102 94 97 102 94 97 102 93 96 101 91 96 100 91 94 99 91 94 99 91 94 99 90 95 99 90 93 98 90 93 98 91 94 99 91 94 99 90 93 98 90 93 98 91 94 99 89 92 97 89 94 100 89 92 97 88 91 96 88 91 100 89 92 97 89 92 97 88 93 97 87 92 96 88 93 97 87 91 100 87 92 98 87 92 96 87 92 98 86 90 99 88 92 101 87 92 98 86 91 97 85 90 96 86 91 97 
95 98 103 95 98 103 96 99 104 95 98 103 95 98 103 95 98 103 95 98 103 94 97 102 94 97 102 95 98 103 95 98 103 95 98 103 95 98 103 95 98 103 94 97 102 94 97 102 95 98 103 94 97 102 95 98 103 94 97 102 94 97 102 95 98 103 93 96 101 94 97 102 94 97 102 95 98 103 94 97 102 93 98 102 94 97 102 92 95 100 93 96 101 93 96 101 94 97 102 94 97 102 94 97 102 94 97 102 94 97 102 94 97 102 94 97 102 94 97 102 93 96 101 93 96 101 94 97 102 93 96 101 94 97 102 93 96 101 93 96 101 94 97 102 92 97 101 93 96 101 93 96 101 93 96 101 94 97 102 93 96 101 92 97 101 93 96 101 94 97 102 93 96 101 93 96 101 93 96 101 92 95 100 93 96 101 94 97 102 94 97 102 94 97 102 94 97 102 94 97 102 93 96 101 92 95 100 91 94 99 90 95 99 91 94 99 91 94 99 90 93 98 90 93 98 89 94 98 90 93 98 90 93 98 90 93 98 90 93 98 89 92 97 90 93 100 89 92 97 87 92 96 87 92 98 88 91 96 89 92 97 87 92 98 87 92 96 88 91 96 88 93 97 86 91 97 86 91 97 87 92 98 88 93 99 87 92 98 86 91 97 85 90 96 86 91 97 85 90 96 
94 97 102 94 97 102 95 98 103 94 97 102 95 98 103 94 97 102 94 97 102 94 97 102 95 98 103 94 97 102 94 97 102 95 98 103 95 98 103 94 97 102 94 97 102 96 99 104 94 97 102 94 97 102 94 97 102 94 97 102 94 99 103 95 98 103 95 98 103 93 96 101 94 97 102 91 96 100 93 96 101 94 97 102 93 96 101 94 97 102 93 96 101 94 97 102 94 97 102 94 97 102 94 97 102 94 97 102 95 98 103 94 97 102 94 97 102 93 96 101 94 97 102 93 96 101 94 97 102 93 96 101 93 96 101 93 96 101 93 96 101 93 96 101 94 97 102 94 97 102 94 97 102 92 97 101 94 97 102 93 96 101 91 96 100 94 97 102 94 97 102 93 96 101 93 96 101 92 95 100 92 95 100 93 96 101 92 95 100 93 96 101 93 96 101 93 96 101 93 96 101 92 95 100 93 96 101 91 94 99 90 93 98 89 92 97 89 94 98 89 92 97 89 92 97 90 93 98 91 94 99 89 92 97 90 93 98 89 92 97 89 92 97 88 91 98 89 92 97 87 92 96 88 91 98 90 91 96 87 92 96 86 91 95 86 91 95 87 92 98 86 91 97 85 90 96 85 90 96 86 91 97 87 92 98 86 91 97 85 90 96 85 90 96 86 91 97 86 91 97 
93 96 101 95 98 103 95 98 103 95 98 103 94 99 103 94 97 102 94 97 102 94 99 103 94 97 102 94 97 102 93 98 102 95 98 103 96 99 104 94 97 102 94 97 102 95 98 103 94 97 102 93 96 101 95 98 103 94 97 102 94 97 102 95 98 103 94 97 102 96 97 102 94 97 102 92 95 100 94 97 102 92 95 100 95 98 103 93 96 101 94 97 102 94 97 102 95 98 103 95 98 103 94 97 102 95 98 103 93 96 101 95 98 103 93 96 101 94 97 102 94 97 102 93 96 101 93 96 101 93 96 101 93 98 102 93 96 101 93 96 101 93 96 101 93 96 101 94 97 102 94 97 102 92 95 100 92 97 101 94 97 102 93 96 101 91 96 100 94 95 100 93 96 101 93 96 101 93 96 101 93 96 101 92 95 100 92 95 100 93 96 101 94 97 102 92 95 100 91 94 99 92 95 100 92 95 100 91 94 99 89 94 98 89 92 97 90 93 98 88 91 96 88 91 96 88 93 97 90 93 98 90 93 98 88 93 97 89 92 97 87 92 96 87 92 98 89 92 97 87 92 96 88 91 98 88 91 98 86 91 97 86 89 94 86 91 95 87 90 97 84 89 95 86 89 96 85 90 96 86 91 97 86 91 97 85 90 96 87 92 98 86 91 97 87 92 98 87 92 98 
92 95 100 95 98 103 95 98 103 94 97 102 96 99 104 95 98 103 95 98 103 93 96 101 94 97 102 95 98 103 95 98 103 94 97 102 95 98 103 94 97 102 93 98 102 94 97 102 94 97 102 95 98 103 94 97 102 94 97 102 94 97 102 94 97 102 92 95 100 94 97 102 93 96 101 94 97 102 94 97 102 95 98 103 94 97 102 93 96 101 94 97 102 93 96 101 93 96 101 94 97 102 93 96 101 94 97 102 94 97 102 92 97 101 92 97 101 94 97 102 94 97 102 93 96 101 94 97 102 94 97 102 94 97 102 92 95 100 93 96 101 94 97 102 93 96 101 92 95 100 93 96 101 92 95 100 92 95 100 93 96 101 92 95 100 92 95 100 92 95 100 92 95 100 92 95 100 93 96 101 93 96 101 94 97 102 93 96 101 92 95 100 92 95 100 92 95 100 91 94 99 91 94 99 92 95 100 90 95 99 90 93 98 90 93 98 91 94 99 89 92 97 88 91 96 90 93 98 91 92 97 89 92 97 91 94 99 89 92 97 89 92 97 89 89 97 88 91 98 87 90 95 87 90 97 86 89 96 89 92 97 87 90 97 87 90 97 88 91 98 87 90 97 88 91 98 86 91 97 87 92 98 86 91 97 86 91 97 84 89 95 85 90 96 83 88 94 84 89 95 
94 97 102 95 98 103 95 98 103 95 98 103 96 99 104 94 97 102 94 97 102 95 98 103 94 97 102 94 97 102 94 97 102 94 97 102 94 97 102 94 97 102 94 97 102 96 99 104 95 98 103 94 97 102 94 97 102 94 97 102 94 97 102 94 97 102 93 96 101 94 97 102 93 96 101 93 96 101 94 97 102 95 98 103 93 96 101 95 98 103 93 96 101 94 97 102 93 96 101 94 97 102 94 97 102 92 95 100 93 96 101 93 96 101 92 97 101 94 97 102 95 98 103 93 96 101 93 96 101 93 96 101 94 97 102 93 96 101 93 96 101 93 96 101 92 95 100 92 95 100 93 96 101 92 95 100 94 97 102 92 95 100 92 95 100 93 96 101 93 96 101 93 96 101 92 95 100 92 95 100 91 94 99 92 95 100 92 95 100 92 95 100 92 95 100 92 95 100 93 96 101 92 95 100 89 92 97 90 93 98 89 92 97 90 93 98 90 93 98 89 92 97 89 92 97 89 92 97 89 92 97 88 93 97 87 92 96 88 91 96 87 90 95 88 91 98 86 91 97 87 92 96 87 90 95 86 89 94 87 90 95 87 90 95 86 89 96 87 90 97 87 90 97 88 91 98 85 90 96 86 91 97 85 90 96 85 90 96 86 91 97 85 90 96 84 89 95 84 89 95 
94 97 102 94 97 102 94 97 102 95 98 103 95 98 103 94 97 102 95 98 103 94 97 102 93 96 101 94 97 102 94 97 102 95 98 103 94 97 102 95 98 103 95 98 103 95 98 103 93 98 102 93 98 102 93 96 101 93 96 101 94 97 102 95 98 103 93 96 101 94 97 102 94 97 102 93 96 101 94 97 102 94 97 102 94 97 102 93 96 101 95 98 103 93 96 101 93 96 101 94 97 102 92 95 100 93 96 101 92 95 100 94 97 102 93 96 101 94 97 102 94 97 102 93 96 101 94 97 102 92 95 100 94 97 102 93 96 101 92 95 100 92 95 100 92 95 100 92 95 100 92 95 100 92 95 100 93 96 101 93 96 101 93 96 101 93 96 101 92 95 100 92 95 100 93 96 101 92 95 100 92 95 100 91 94 99 94 97 102 92 95 100 91 94 99 92 95 100 92 95 100 91 94 99 90 93 98 90 93 98 90 93 98 91 94 99 90 93 98 90 93 98 90 93 98 88 91 96 90 93 98 89 92 97 88 91 96 88 91 96 88 91 96 91 91 99 87 90 97 87 90 95 87 90 95 87 90 95 86 89 96 87 90 95 88 91 98 87 90 97 86 89 96 86 89 96 85 90 94 85 90 96 85 90 96 84 88 97 86 91 97 86 91 97 84 89 95 83 88 94 
95 98 103 95 98 103 94 97 102 94 97 102 95 98 103 94 97 102 95 98 103 94 97 102 94 97 102 94 97 102 95 98 103 94 97 102 93 98 102 94 97 102 93 96 101 94 97 102 94 97 102 94 97 102 94 97 102 95 98 103 94 97 102 94 97 102 93 96 101 94 97 102 93 96 101 93 96 101 93 96 101 94 97 102 94 97 102 94 97 102 94 97 102 93 96 101 93 96 101 95 98 103 94 97 102 92 95 100 93 96 101 93 96 101 92 95 100 94 97 102 93 96 101 93 96 101 93 96 101 93 96 101 93 96 101 92 95 100 92 95 100 92 95 100 92 95 100 92 95 100 91 94 99 93 96 101 93 96 101 92 95 100 92 95 100 92 95 100 93 96 101 93 96 101 92 95 100 91 94 99 92 95 100 91 94 99 92 95 100 92 95 100 92 95 100 91 94 99 91 94 99 93 96 101 90 95 99 90 93 98 88 93 97 90 93 98 89 92 97 89 92 97 89 92 97 88 91 96 88 91 96 88 91 96 88 91 96 87 90 95 87 90 95 87 90 97 88 91 98 87 90 95 89 92 99 87 90 97 86 89 96 87 90 97 87 90 97 86 89 96 87 90 97 88 91 100 85 89 98 86 91 97 85 90 96 84 89 95 84 88 97 85 90 96 84 89 95 84 89 95 
95 98 103 94 97 102 94 97 102 94 97 102 94 97 102 94 97 102 96 99 104 95 98 103 92 95 100 93 96 101 95 98 103 94 97 102 94 97 102 93 96 101 94 97 102 95 98 103 93 96 101 93 96 101 94 97 102 94 97 102 93 96 101 94 97 102 94 97 102 93 96 101 91 94 99 93 96 101 93 96 101 94 97 102 94 97 102 94 97 102 93 96 101 94 97 102 93 96 101 94 97 102 94 97 102 93 96 101 94 97 102 93 96 101 93 96 101 94 97 102 93 96 101 91 94 99 92 95 100 93 96 101 93 96 101 93 96 101 92 95 100 91 94 99 92 95 100 93 96 101 92 95 100 92 95 100 92 95 100 92 95 100 92 95 100 92 95 100 93 96 101 92 95 100 91 94 99 91 94 99 92 95 100 91 94 99 91 94 99 92 95 100 91 94 99 91 94 99 91 94 99 91 94 99 91 96 100 92 95 100 89 94 98 89 92 97 88 91 96 88 91 96 89 92 97 88 91 96 88 91 96 88 93 97 87 92 96 86 89 94 87 90 97 87 90 97 88 91 98 87 92 98 88 91 98 87 90 97 87 90 95 87 90 97 88 91 98 87 90 97 86 89 96 88 91 100 87 92 98 86 91 97 85 90 96 84 89 95 83 87 96 84 89 95 84 88 97 84 88 97 
93 96 101 95 98 103 94 97 102 94 97 102 94 97 102 94 97 102 94 97 102 94 97 102 94 97 102 93 96 101 95 98 103 94 97 102 94 97 102 94 97 102 94 97 102 93 96 101 94 97 102 94 97 102 93 96 101 94 97 102 93 96 101 94 97 102 94 97 102 93 96 101 93 96 101 93 96 101 92 95 100 94 97 102 93 96 101 94 97 102 94 97 102 94 97 102 94 97 102 93 96 101 92 95 100 94 97 102 94 97 102 94 97 102 94 97 102 93 96 101 92 95 100 92 95 100 91 94 99 92 95 100 91 94 99 93 96 101 92 95 100 92 95 100 93 96 101 93 96 101 93 96 101 92 95 100 91 94 99 91 94 99 91 94 99 92 95 100 94 97 102 93 96 101 92 95 100 91 94 99 92 95 100 91 94 99 91 94 99 92 95 100 91 94 99 90 93 98 89 92 97 89 92 97 90 93 98 90 93 98 91 94 99 89 92 97 89 92 97 90 93 98 89 92 97 88 91 96 86 91 95 86 89 94 88 91 96 88 91 96 87 90 97 86 89 96 88 91 98 87 92 98 88 91 96 87 90 97 87 90 97 87 90 97 87 90 97 87 90 97 87 90 97 87 90 97 86 90 99 86 91 97 86 91 97 85 89 98 84 89 95 84 89 95 83 88 94 82 87 93 
94 97 102 93 96 101 94 97 102 96 99 104 94 97 102 94 97 102 94 97 102 95 98 103 94 97 102 94 97 102 93 96 101 94 97 102 96 99 104 94 97 102 93 96 101 93 96 101 94 97 102 93 96 101 94 97 102 94 97 102 94 97 102 94 97 102 95 98 103 93 96 101 94 97 102 94 97 102 93 96 101 93 96 101 93 96 101 94 97 102 94 97 102 93 96 101 92 95 100 94 97 102 93 96 101 92 95 100 94 97 102 93 96 101 93 96 101 92 97 101 93 96 101 92 95 100 91 94 99 91 96 100 92 95 100 93 96 101 92 95 100 93 96 101 94 97 102 92 95 100 91 94 99 91 94 99 92 95 100 91 94 99 92 95 100 92 95 100 92 95 100 90 93 98 91 94 99 92 95 100 90 93 98 91 94 99 91 94 99 91 94 99 90 93 98 90 93 98 90 93 98 89 92 97 89 92 97 91 94 99 90 93 98 89 92 97 90 93 98 89 92 97 88 91 96 86 89 94 86 91 95 86 89 94 87 90 95 87 90 95 87 90 97 85 90 96 87 90 97 88 91 98 87 90 95 87 90 97 86 89 96 88 91 98 88 91 98 87 90 97 86 89 96 85 88 95 85 90 96 86 90 99 86 91 97 84 89 95 84 88 97 83 88 94 84 89 95 82 86 97 
92 97 101 94 97 102 90 98 101 94 97 102 94 97 102 94 97 102 95 98 103 94 97 102 94 97 102 94 97 102 96 99 104 94 97 102 94 97 102 93 96 101 94 97 102 94 97 102 94 97 102 93 96 101 94 97 102 93 96 101 95 98 103 94 97 102 94 97 102 92 95 100 94 97 102 92 95 100 93 96 101 93 96 101 94 97 102 94 97 102 93 96 101 93 96 101 92 95 100 93 96 101 93 96 101 92 95 100 93 96 101 92 95 100 92 95 100 91 96 100 93 96 101 92 95 100 93 96 101 91 96 100 93 96 101 92 95 100 92 95 100 92 95 100 93 96 101 92 95 100 91 94 99 92 95 100 90 93 98 91 94 99 92 95 100 91 94 99 91 94 99 91 94 99 92 95 100 91 94 99 90 93 98 91 94 99 92 95 100 90 93 98 90 93 98 90 93 98 89 92 97 90 93 98 89 92 97 89 94 98 89 92 97 89 92 97 88 91 96 88 91 96 87 90 95 86 89 94 85 90 94 87 90 95 86 89 94 87 90 95 87 90 97 86 89 96 87 90 97 87 92 98 87 90 97 87 90 97 88 91 98 87 90 97 86 89 96 86 89 96 86 89 96 86 89 98 85 89 98 85 90 96 85 90 96 84 88 97 85 89 98 84 89 95 83 88 94 81 86 92 
94 97 102 93 96 101 94 97 102 94 97 102 94 97 102 95 98 103 94 97 102 94 97 102 95 98 103 94 97 102 94 97 102 94 97 102 94 97 102 93 96 101 93 96 101 94 97 102 94 97 102 95 98 103 93 96 101 93 96 101 94 99 103 94 97 102 93 96 101 93 96 101 92 97 101 93 96 101 94 97 102 94 97 102 92 97 101 93 96 101 92 95 100 93 96 101 94 97 102 94 97 102 93 96 101 93 98 102 93 96 101 92 95 100 92 95 100 92 95 100 92 95 100 93 96 101 93 96 101 93 96 101 92 95 100 92 95 100 93 96 101 92 95 100 92 95 100 92 95 100 92 95 100 92 95 100 91 94 99 91 94 99 91 94 99 90 93 98 91 94 99 91 94 99 92 95 100 90 93 98 91 96 102 91 94 99 91 94 99 91 94 99 90 93 98 90 93 98 89 92 97 89 94 98 89 92 99 90 93 100 89 92 99 88 91 98 88 91 98 86 89 96 88 91 98 86 89 96 86 89 96 86 89 96 85 88 95 86 89 96 86 89 96 85 88 95 88 91 98 88 91 98 85 90 96 87 92 98 85 90 96 86 91 97 86 91 95 86 91 97 85 90 96 86 90 99 85 89 98 85 89 98 85 90 94 83 88 94 85 89 98 85 89 98 83 87 96 82 86 95 
92 95 102 93 96 103 92 97 103 93 98 104 93 96 101 93 96 101 93 96 101 95 98 103 94 97 102 94 97 102 94 97 102 95 98 103 93 96 101 93 96 101 94 97 102 94 97 102 93 96 101 94 97 102 93 96 101 92 95 100 92 95 100 94 97 102 95 98 103 94 97 102 92 97 101 93 96 101 93 96 101 92 95 100 94 97 102 93 96 101 94 97 102 92 97 101 91 96 100 93 96 101 92 95 100 92 95 100 93 96 101 92 95 100 93 96 101 93 96 101 93 96 101 93 96 101 94 97 102 94 97 102 94 97 102 94 97 102 93 96 101 92 95 100 93 96 101 92 95 100 92 95 100 91 94 99 92 95 100 91 94 99 91 94 99 91 96 100 92 95 100 92 95 100 90 93 98 90 93 98 90 93 98 91 96 100 89 94 98 89 92 97 88 93 97 89 92 97 88 93 97 89 92 97 88 93 97 88 93 97 88 93 97 87 92 96 87 92 96 86 91 95 86 91 95 86 91 95 86 91 95 87 92 96 88 93 97 88 93 99 87 92 98 87 92 98 87 92 98 88 93 99 87 92 98 85 90 96 86 91 97 85 90 96 86 91 97 84 89 95 84 88 97 84 88 97 86 91 97 85 89 98 85 89 98 84 88 97 83 87 96 83 88 94 82 87 93 80 84 93 
93 96 103 92 95 102 94 97 104 93 96 103 93 96 101 93 96 101 94 97 102 94 97 102 93 96 101 93 96 101 94 97 102 92 95 100 92 95 100 91 94 99 93 96 101 93 96 101 92 95 100 92 95 100 93 96 101 93 96 101 93 96 101 92 95 100 94 97 102 94 97 102 93 96 101 92 95 100 93 96 101 94 97 102 93 96 101 93 96 101 93 96 101 93 96 101 93 96 101 92 95 100 92 95 100 92 95 100 92 95 100 92 95 100 92 95 100 91 94 99 93 96 101 91 94 99 92 95 100 92 95 100 92 95 100 92 95 100 92 95 100 91 94 99 90 93 98 91 94 99 90 93 98 91 94 99 90 93 98 91 94 99 91 96 100 90 93 98 91 94 99 90 93 98 89 94 98 88 91 96 88 93 96 89 92 97 89 94 98 89 92 97 89 92 97 88 91 96 88 91 96 88 93 97 87 92 96 87 92 96 87 92 96 87 92 96 86 91 95 85 90 94 87 92 96 87 92 96 86 91 95 85 90 94 86 91 97 85 90 96 85 90 96 84 89 95 85 90 96 86 91 97 85 90 96 85 90 96 85 90 96 85 90 96 85 89 98 85 90 96 83 87 96 82 86 95 84 89 95 85 89 98 85 89 98 85 89 98 82 86 95 82 86 95 82 86 95 80 84 93 
92 95 100 93 96 101 94 97 102 93 96 101 94 97 102 93 96 101 93 96 101 94 97 102 93 96 101 92 95 100 91 94 99 93 96 101 92 95 100 92 95 100 92 95 100 92 95 100 93 96 101 93 96 101 91 94 99 92 95 100 93 96 101 91 96 100 91 96 100 93 98 102 93 96 101 93 96 101 93 96 101 92 95 100 93 96 101 92 95 100 93 96 101 92 95 100 92 95 100 92 95 100 91 94 99 91 94 99 92 95 100 92 95 100 91 94 99 92 95 100 91 94 99 92 95 100 92 95 100 91 94 99 91 94 99 91 94 99 90 93 98 90 93 98 89 92 97 90 93 98 90 93 98 90 93 98 90 93 98 90 95 99 90 93 98 90 93 98 90 93 98 89 94 98 90 93 98 89 92 97 89 92 97 89 92 97 88 91 96 88 93 97 87 90 95 87 90 95 87 90 95 87 92 96 86 91 97 86 91 97 87 92 98 87 92 98 86 91 97 85 90 96 86 91 97 85 90 96 87 90 97 85 88 95 85 88 95 85 88 95 85 88 95 86 89 96 86 89 96 84 87 96 86 90 99 86 91 97 86 91 97 85 90 96 85 89 98 83 87 96 84 88 97 83 87 96 84 89 95 84 88 97 84 89 95 83 88 94 81 85 94 81 85 94 82 86 95 80 84 93 
93 96 103 94 97 104 93 96 103 93 96 103 93 96 101 93 96 101 93 96 101 92 95 100 93 96 101 92 95 100 93 96 101 93 96 101 92 95 100 92 95 100 92 95 100 93 96 101 92 95 100 93 96 101 93 96 101 92 95 100 93 96 101 91 96 100 92 95 100 95 96 101 92 95 100 93 96 101 94 97 102 92 95 100 93 96 101 92 95 100 92 95 100 92 95 100 92 95 100 91 94 99 91 94 99 91 94 99 91 94 99 91 94 99 91 94 99 90 93 98 90 93 98 90 93 98 90 93 98 91 94 99 90 93 98 90 93 98 90 93 98 89 92 97 89 92 97 89 92 97 90 93 98 90 93 98 91 94 99 91 94 99 90 93 98 91 94 99 89 94 98 90 93 98 90 93 98 89 94 98 89 92 97 87 92 96 87 92 96 88 91 96 87 90 95 87 90 95 86 91 95 86 91 95 87 90 97 86 89 96 86 89 96 88 91 98 87 90 97 88 91 98 88 91 98 87 90 97 87 90 97 85 88 95 86 89 96 86 89 96 87 90 97 87 90 97 85 88 97 85 88 97 85 89 98 86 91 97 84 89 95 83 88 92 84 89 95 83 87 96 84 89 95 83 88 94 83 88 92 82 86 95 82 87 93 83 88 94 82 86 95 81 85 94 82 86 95 81 85 94 
93 96 103 92 95 102 91 96 102 93 98 104 92 95 100 92 95 100 92 95 100 92 95 100 91 94 99 92 95 100 93 96 101 92 95 100 92 95 100 92 95 100 91 94 99 92 95 100 91 94 99 92 95 100 92 95 100 92 95 100 92 93 98 92 95 100 93 96 101 93 96 101 92 95 100 94 97 102 93 96 101 92 95 100 92 95 100 93 96 101 93 96 101 91 94 99 92 95 100 91 94 99 90 93 98 90 93 98 90 93 98 91 94 99 91 94 99 90 93 98 90 93 98 90 93 98 89 92 97 91 94 99 90 93 98 89 92 97 89 92 97 88 91 96 89 92 97 89 92 97 89 92 97 89 92 97 90 95 99 90 93 98 90 93 98 90 95 99 91 94 99 90 93 98 90 93 98 89 92 97 90 93 98 88 93 97 88 91 96 89 92 97 88 91 98 87 90 97 85 90 96 86 91 97 84 89 95 84 89 95 84 89 95 86 91 97 87 92 98 87 92 98 87 92 98 87 92 98 88 91 100 86 89 96 85 88 95 87 90 97 88 91 98 90 93 100 86 89 96 84 87 96 84 89 95 85 90 96 83 87 96 82 87 93 83 88 94 83 88 94 83 88 94 83 88 94 82 87 93 82 86 95 83 87 96 84 88 97 80 84 93 79 83 92 78 82 91 78 82 91 
93 96 101 93 96 101 92 95 100 92 95 100 93 96 101 91 94 99 92 95 100 93 96 101 92 95 100 93 96 101 92 95 100 94 97 102 92 95 100 92 95 100 92 95 100 93 96 101 92 95 100 92 95 100 92 95 100 92 95 100 90 95 99 90 95 99 90 95 99 93 96 101 91 96 100 92 95 100 92 95 100 91 94 99 90 95 99 91 94 99 91 94 99 92 95 100 90 93 98 91 94 99 90 93 98 90 95 99 91 94 99 90 93 98 91 94 99 91 94 99 91 94 99 91 94 99 91 94 99 90 93 98 90 93 98 89 92 97 88 91 96 89 92 97 89 92 97 89 92 97 89 92 97 90 93 98 90 93 98 91 94 99 92 95 100 90 93 98 89 92 97 90 93 98 89 92 97 89 92 97 89 92 97 90 93 98 89 92 97 87 92 98 88 91 98 86 91 97 87 90 97 86 91 97 87 92 98 86 91 97 86 91 97 86 91 97 85 90 96 86 91 97 85 90 96 85 90 96 87 90 99 87 90 97 86 89 96 87 90 97 87 90 97 87 90 97 85 88 95 86 89 98 85 90 96 85 90 96 85 90 96 82 87 93 82 87 93 83 88 94 83 88 94 81 86 92 83 87 96 83 87 96 83 87 96 82 86 95 80 84 93 80 84 93 80 84 93 80 84 95 
92 95 100 92 95 100 93 96 101 91 94 99 92 95 100 94 97 102 93 96 101 92 95 100 93 96 101 92 95 100 92 95 100 93 96 101 94 97 102 93 96 101 92 95 100 92 95 100 93 96 101 93 96 101 93 96 101 92 95 100 92 95 100 92 95 100 91 94 99 94 95 100 91 96 100 93 96 101 93 96 101 93 96 101 92 95 100 91 94 99 91 94 99 89 94 98 89 94 98 90 93 98 91 94 99 91 94 99 90 93 98 92 95 100 90 93 98 91 94 99 91 94 99 91 94 99 90 93 98 90 93 98 90 93 98 89 92 97 89 92 97 89 92 97 89 92 97 89 92 97 89 92 97 90 93 98 90 93 98 90 93 98 89 92 97 89 92 97 88 91 96 89 92 97 88 91 96 89 92 97 88 91 96 89 92 97 89 92 99 88 91 98 86 89 96 86 91 97 85 90 96 85 90 96 87 92 98 87 92 98 85 90 96 85 90 96 84 89 95 85 90 96 84 89 95 83 88 94 86 91 97 84 89 95 85 90 96 84 88 97 83 87 96 83 87 96 84 88 97 85 89 98 83 88 94 83 88 94 84 89 95 81 85 94 82 87 93 81 86 92 80 85 91 79 83 92 82 87 91 82 86 95 81 86 92 78 83 89 77 81 90 76 81 87 77 81 90 78 82 93 
91 94 101 92 95 102 91 96 102 92 97 103 92 95 102 93 96 101 94 95 100 92 95 100 91 96 100 92 97 101 94 97 102 93 96 101 92 95 100 93 96 101 92 95 100 93 96 101 93 96 101 92 95 100 92 95 100 93 96 101 91 96 100 92 97 101 91 96 100 91 94 99 91 94 99 92 95 100 92 95 100 91 94 99 90 95 99 90 93 98 90 93 98 89 94 98 90 95 99 91 94 99 90 93 98 89 94 98 90 93 98 90 93 98 91 94 99 91 94 99 91 94 99 91 94 99 90 93 98 91 94 99 90 93 98 89 92 97 89 92 97 89 92 97 88 91 96 88 91 96 89 92 97 90 93 98 90 93 98 90 93 98 90 93 98 90 93 98 88 91 96 88 91 96 88 91 96 88 91 96 88 91 96 88 91 96 88 91 96 88 91 98 87 90 97 87 90 97 86 91 97 85 90 96 86 91 97 87 92 98 86 91 97 85 90 96 84 89 95 85 90 96 85 90 96 83 88 94 84 89 95 84 89 95 85 90 96 84 89 95 83 88 94 83 88 94 84 89 95 85 90 96 84 88 97 84 88 97 83 87 96 81 85 94 80 85 91 81 86 92 80 85 91 81 86 92 82 87 93 82 86 95 81 85 96 78 82 91 78 82 91 74 78 87 75 79 90 76 80 91 
90 93 100 92 95 102 92 95 102 90 95 101 88 96 99 91 96 102 91 95 104 92 97 103 91 96 100 91 96 100 91 96 102 92 95 102 91 96 102 91 96 102 90 95 101 89 94 100 91 96 102 90 95 101 90 95 101 90 95 101 89 94 100 91 96 100 91 96 100 90 94 103 90 95 99 90 95 99 90 94 103 91 94 99 89 92 97 89 94 98 89 94 98 89 92 97 88 91 96 88 93 97 89 94 98 90 93 98 91 94 99 89 92 97 89 92 97 91 94 101 90 93 98 91 94 99 89 92 99 89 92 97 88 91 96 89 92 97 90 93 98 89 92 97 89 92 97 88 91 96 89 92 97 89 92 97 90 93 98 89 92 97 89 92 97 89 92 97 87 90 95 88 91 96 87 90 95 88 91 96 88 91 96 87 90 95 88 91 96 87 90 97 87 90 97 86 89 96 85 90 96 85 90 96 85 90 96 86 91 97 85 90 96 84 89 95 83 88 94 84 89 95 83 88 94 83 88 94 82 86 95 84 88 97 85 89 98 84 88 97 83 87 96 82 86 95 85 89 98 84 88 97 84 88 97 83 87 96 83 87 96 80 84 93 79 83 92 78 83 89 80 85 91 81 86 92 81 85 94 81 85 94 79 83 92 78 82 91 78 82 91 77 81 90 75 79 90 73 77 88 
