P3
100 50
255
52 47 43 54 46 43 53 45 42 52 47 43 53 45 43 53 45 43 52 44 42 52 44 42 52 44 42 53 45 43 53 45 43 52 44 42 52 44 42 52 44 41 51 43 41 53 43 41 52 44 41 53 41 41 53 43 41 52 42 41 51 41 40 52 42 41 51 41 40 52 42 41 50 42 40 51 43 41 51 43 41 52 44 42 51 43 40 51 43 40 51 43 40 51 43 40 51 43 40 51 43 40 50 42 39 52 42 40 51 43 41 52 42 41 52 42 40 52 44 41 51 43 40 51 43 40 52 44 41 52 44 41 51 43 40 51 43 40 51 43 40 51 43 40 52 44 41 51 43 40 51 43 41 52 44 42 52 44 42 51 43 41 50 42 40 50 42 40 51 43 41 52 44 42 52 44 42 52 44 42 51 43 41 52 44 42 52 44 42 53 45 43 51 43 41 52 44 42 52 44 42 52 44 42 53 43 42 52 44 42 52 44 42 51 43 41 51 43 41 52 44 42 52 44 42 52 44 42 51 46 43 52 44 42 51 43 41 52 44 42 50 45 42 51 46 43 51 46 43 51 46 43 51 45 45 51 46 43 51 46 43 50 45 42 51 45 45 53 47 47 52 46 46 53 47 47 52 46 46 54 48 48 52 48 47 52 48 47 52 48 47 52 48 47 53 49 48 56 47 48 
54 44 42 54 46 43 53 45 42 53 45 42 53 45 43 52 44 42 53 45 43 53 45 43 52 44 42 52 44 42 52 44 42 53 45 43 52 44 41 52 44 42 52 44 41 51 43 41 52 42 41 53 43 41 51 43 41 50 42 39 51 41 40 52 42 41 51 41 40 51 41 40 51 43 41 51 43 41 51 43 41 52 44 42 51 43 40 51 43 40 51 43 40 52 42 40 51 43 40 51 41 39 50 42 39 51 41 39 52 42 40 51 43 40 49 44 40 51 43 40 51 43 40 50 42 39 50 45 41 50 45 41 52 44 41 52 44 41 50 42 40 51 43 41 51 43 40 51 43 40 51 43 41 51 43 41 50 42 40 50 42 40 51 43 41 53 45 43 51 43 41 51 43 41 51 43 41 51 43 41 50 42 40 52 44 42 51 43 41 52 44 42 51 43 41 52 44 42 52 44 42 53 45 43 52 44 42 51 43 41 51 43 41 51 43 41 52 44 42 53 45 43 52 44 42 51 43 41 52 44 42 52 44 42 52 44 42 51 43 41 52 44 42 50 45 42 51 46 43 51 46 43 51 46 43 51 46 43 52 47 44 51 46 43 51 46 43 53 47 47 53 47 47 52 46 46 51 47 46 51 45 45 50 46 45 51 45 45 53 47 47 53 49 48 52 48 47 52 48 47 
53 45 43 53 45 42 53 45 42 52 44 42 52 44 42 53 45 43 54 46 44 53 45 43 53 45 43 52 44 42 52 44 42 52 44 42 53 45 42 53 45 43 53 43 41 52 42 41 51 43 41 51 43 40 53 43 42 51 43 40 52 42 41 52 42 41 51 41 40 51 41 40 51 43 41 50 42 40 51 43 41 51 43 41 51 43 40 51 43 40 50 42 39 52 42 40 52 42 40 52 42 40 51 43 40 50 42 39 51 43 40 52 42 40 52 42 40 51 43 40 51 43 40 52 44 41 52 44 41 50 42 39 51 43 40 50 42 40 51 43 41 51 43 41 51 43 40 51 43 41 51 43 41 51 43 41 51 43 41 52 44 42 52 44 42 51 43 41 51 43 41 51 43 41 51 43 41 51 43 41 51 43 41 51 43 41 51 43 41 53 45 43 52 44 42 52 44 42 52 44 42 52 44 42 51 43 41 52 44 42 51 43 41 51 43 41 53 43 42 52 44 42 51 43 41 52 44 42 51 43 41 51 43 41 51 43 41 52 44 42 52 44 42 53 45 43 53 45 43 51 46 43 51 46 43 51 46 43 52 47 44 52 47 44 51 46 43 53 48 45 52 47 44 51 45 45 51 45 45 51 45 45 51 47 46 52 46 46 56 47 48 53 47 47 52 46 46 53 47 47 
53 45 43 53 45 42 53 45 42 52 42 41 53 45 43 52 44 42 53 45 43 53 45 43 53 45 43 52 44 42 52 44 42 52 44 42 53 45 43 54 44 42 53 43 42 53 43 41 51 43 40 52 42 41 51 41 39 50 42 40 51 41 40 51 41 40 51 41 40 52 42 41 51 43 41 51 43 41 51 43 41 50 42 40 51 41 39 50 42 39 52 42 40 50 42 39 51 43 40 51 43 40 51 43 40 50 42 39 50 42 39 51 43 40 52 44 41 51 43 40 50 42 39 50 42 39 52 44 42 51 43 41 51 43 40 51 43 40 50 42 39 51 43 40 51 43 41 51 43 41 53 45 43 52 44 41 52 44 42 51 43 41 51 43 41 51 43 41 51 43 41 51 43 41 51 43 41 50 42 40 52 44 42 51 43 41 52 44 42 51 43 41 51 43 41 52 44 42 50 42 40 50 42 40 51 43 41 52 44 42 51 43 41 52 42 41 52 44 42 51 43 41 50 42 40 51 43 41 51 43 41 51 43 41 52 44 42 52 44 42 52 44 42 52 44 42 53 45 43 52 44 42 51 46 43 51 46 43 50 45 42 51 46 43 51 46 43 52 47 44 52 47 44 53 48 45 50 44 44 51 45 45 49 48 46 54 48 48 53 47 47 52 46 46 50 46 45 51 47 46 
54 46 44 53 45 43 53 45 43 52 44 42 54 46 44 53 45 43 53 45 43 53 45 43 52 44 42 53 45 43 53 45 43 53 45 43 53 45 43 52 44 42 52 44 42 51 43 41 52 42 41 53 43 42 51 41 40 50 40 39 51 43 40 50 42 39 51 41 39 49 44 40 52 42 40 50 42 39 51 41 39 50 42 39 50 42 39 51 43 40 51 43 40 52 44 41 51 43 40 51 43 40 51 43 40 51 43 40 51 43 40 52 44 41 53 45 42 51 43 40 51 43 40 50 42 39 52 44 41 51 43 40 51 43 40 51 43 40 50 42 39 51 43 40 50 42 40 52 44 41 52 44 41 52 44 41 52 44 41 53 45 42 52 44 41 51 43 40 50 42 40 50 42 40 50 42 40 50 42 40 51 43 40 51 43 40 51 43 40 50 42 39 49 41 38 49 41 38 51 41 39 52 42 40 51 43 41 50 42 40 51 43 41 51 43 41 50 42 40 50 42 40 50 42 40 49 44 41 50 42 40 50 42 40 52 44 42 52 44 42 52 44 42 53 45 43 52 44 42 52 44 42 53 45 43 50 45 42 51 46 43 51 46 43 51 45 45 51 45 45 51 45 45 52 46 46 50 44 44 51 45 45 52 46 46 52 46 46 51 45 45 52 46 46 51 45 45 53 47 47 
54 46 44 53 45 43 53 45 43 53 45 43 53 45 43 53 45 43 52 44 42 52 44 42 52 44 42 53 45 43 53 45 43 52 44 42 52 44 42 50 42 40 51 43 41 50 42 40 52 44 42 52 42 41 52 42 41 51 41 40 51 43 40 51 43 40 51 41 39 49 41 38 51 41 39 50 42 39 51 41 39 51 43 40 51 43 40 51 43 40 51 43 40 52 44 41 49 41 38 51 43 40 50 42 39 50 42 39 51 43 40 51 43 40 51 43 40 51 43 40 51 43 40 50 42 39 51 43 40 51 43 40 51 44 38 50 42 40 51 43 40 50 42 40 51 43 40 51 41 40 51 43 40 51 43 40 52 44 42 51 43 41 50 42 40 50 42 40 51 43 40 52 44 41 52 44 41 52 44 41 51 43 40 51 43 40 52 44 41 51 43 40 49 41 38 50 42 39 51 41 39 51 41 39 52 42 41 50 42 40 50 42 40 50 40 39 51 43 41 50 42 40 51 43 41 49 41 39 51 43 41 50 42 40 50 42 40 51 43 41 52 44 42 53 45 43 52 44 42 52 44 42 53 45 43 52 44 42 52 47 44 51 46 43 50 44 44 52 46 46 52 46 46 53 47 47 52 46 46 53 47 47 52 46 46 53 47 47 52 46 46 51 45 45 53 47 47 52 46 46 
54 46 44 53 45 43 53 45 43 52 44 42 52 44 42 53 45 43 53 45 43 52 44 42 52 44 42 52 44 42 53 45 43 52 44 42 52 44 42 52 44 42 51 43 41 51 43 41 50 42 40 52 42 41 52 42 41 51 41 40 51 43 40 51 43 40 52 42 40 51 41 39 51 41 39 50 42 39 53 43 41 51 43 40 51 43 40 51 43 40 51 43 40 51 43 40 50 42 39 50 42 39 50 42 39 51 43 40 51 43 40 50 42 39 50 42 39 50 42 39 51 43 40 51 43 40 52 44 41 52 44 41 52 44 41 51 43 40 51 41 39 52 42 40 52 42 40 53 43 41 51 43 40 50 42 39 51 43 41 50 42 40 50 42 40 51 43 41 51 43 40 51 43 40 51 43 40 51 43 40 50 42 39 52 44 41 50 42 39 51 43 40 51 43 40 50 42 39 51 43 40 52 42 40 51 43 41 51 43 41 51 41 40 51 43 41 51 41 40 52 44 42 51 43 41 51 43 41 51 43 41 52 44 42 51 43 41 51 43 41 51 43 41 52 44 42 52 44 42 52 44 42 52 44 42 52 44 42 52 47 44 51 46 43 52 46 46 50 44 44 52 46 46 53 47 47 51 45 45 52 46 46 52 46 46 51 45 45 53 47 47 52 46 46 52 46 46 53 47 47 
53 45 43 53 45 43 54 46 44 53 45 43 54 46 44 53 45 43 53 45 43 52 44 42 52 44 42 52 44 42 52 44 42 52 44 42 53 45 43 53 45 43 52 44 42 53 45 43 51 43 41 51 43 41 52 42 41 51 41 40 51 43 40 51 43 40 52 42 40 51 41 39 51 41 39 52 42 40 51 43 40 51 43 40 50 42 39 50 42 39 51 43 40 52 44 41 52 44 41 51 43 40 50 42 39 50 42 39 50 42 39 50 42 39 50 42 39 51 43 40 51 43 40 51 43 40 51 43 40 52 44 41 52 42 40 51 41 39 52 42 41 51 43 40 51 43 41 50 42 39 51 43 40 51 43 40 51 43 40 51 43 40 51 43 40 51 43 40 51 43 41 51 43 41 51 43 41 50 42 40 51 43 40 50 42 39 51 43 40 51 43 40 51 43 40 51 43 40 51 43 40 51 43 40 51 43 41 50 42 40 51 43 41 50 42 40 51 43 41 51 43 41 52 42 41 51 43 41 51 43 41 52 44 42 51 43 41 51 43 41 51 43 41 52 44 42 52 44 42 52 44 42 52 44 42 52 44 42 54 46 44 51 46 43 52 46 46 51 45 45 51 45 45 52 46 46 52 46 46 52 46 46 51 45 45 51 45 45 52 46 46 53 47 47 52 46 46 52 46 46 
53 45 43 54 46 44 53 45 43 53 45 43 54 46 44 53 45 43 53 45 43 52 44 42 52 44 42 52 44 42 52 44 42 52 44 42 52 44 42 52 44 42 52 44 42 52 44 42 52 44 42 51 43 41 53 43 42 51 41 40 51 43 40 52 44 41 52 42 40 52 42 40 52 42 40 52 42 40 51 43 40 51 43 40 51 43 40 51 43 40 51 43 40 51 43 40 50 42 39 51 43 40 51 43 40 50 42 39 50 42 39 50 42 39 50 42 39 51 43 40 51 43 40 51 43 40 51 43 40 51 43 40 53 43 41 51 41 39 51 43 40 51 43 41 51 43 40 50 42 40 51 43 40 51 43 40 51 43 40 51 43 40 50 42 39 50 42 39 51 43 41 52 44 42 51 43 41 50 42 40 51 43 40 51 43 40 51 43 40 51 43 40 52 44 41 51 43 40 51 43 40 51 43 40 51 43 41 51 43 41 51 41 40 51 43 41 52 42 41 52 44 42 52 42 41 51 43 41 51 43 41 51 43 41 51 43 41 51 43 41 51 43 41 51 43 41 51 43 41 52 44 42 52 44 42 52 44 42 54 46 44 52 47 44 51 46 43 51 46 43 52 47 44 52 47 44 52 46 46 53 47 47 51 45 45 53 47 47 51 45 45 51 45 45 53 47 47 52 46 46 
53 45 43 54 46 44 54 46 44 54 46 44 54 46 44 53 45 43 54 46 44 53 45 43 52 44 42 53 45 43 53 45 43 53 45 43 52 44 42 52 44 42 52 44 42 52 44 42 52 44 42 51 43 41 52 44 42 52 42 41 53 45 42 52 42 40 51 43 40 51 41 39 51 41 39 51 41 39 51 43 40 51 43 40 51 43 40 51 43 40 50 42 39 51 43 40 51 43 40 50 42 39 51 43 40 51 43 40 50 42 39 51 43 40 51 43 40 51 43 40 50 42 39 51 43 40 51 43 40 51 43 40 51 43 40 52 42 40 51 43 40 50 42 39 50 42 39 49 41 38 52 42 40 51 43 40 51 43 41 51 43 41 50 42 40 50 42 40 51 43 40 51 43 40 52 44 41 53 45 42 52 44 41 51 43 40 53 45 42 52 44 41 52 44 41 51 43 40 51 43 40 50 42 39 51 43 41 50 45 42 52 44 42 51 41 40 51 43 41 50 42 40 51 41 40 50 42 40 51 43 41 51 43 41 51 43 41 49 41 39 51 43 41 52 44 42 52 44 42 52 44 42 52 44 42 53 45 43 52 44 42 53 45 43 51 46 43 51 46 43 51 46 43 53 48 45 52 46 46 52 46 46 53 47 47 53 47 47 52 46 46 53 47 47 52 46 46 53 47 47 
54 46 44 55 47 45 53 45 43 53 45 43 54 46 44 54 46 44 53 45 43 53 45 43 53 45 43 54 46 44 54 46 44 53 45 43 52 44 42 54 46 44 53 45 43 53 45 43 51 43 41 54 46 44 52 44 42 51 43 41 52 44 41 52 42 40 50 42 39 51 41 39 51 43 40 52 42 40 51 43 40 51 43 40 51 43 40 50 42 39 51 43 40 50 42 39 51 43 40 52 44 41 51 43 40 50 42 39 51 43 40 51 43 40 51 43 40 51 43 40 51 43 40 51 43 40 51 43 40 51 43 40 51 43 40 51 41 39 50 42 40 51 43 40 50 42 40 51 43 40 52 42 41 53 46 40 52 44 42 51 43 41 50 42 40 50 42 40 51 43 40 51 43 40 51 43 40 50 42 39 50 42 39 51 43 40 52 42 40 51 41 39 50 42 39 50 42 39 48 40 37 48 40 37 50 42 40 51 43 41 53 45 43 51 43 41 52 42 41 50 42 40 50 42 40 53 43 42 51 43 41 51 43 41 51 43 41 51 43 41 51 43 41 50 42 40 52 44 42 52 44 42 52 44 42 52 44 42 53 45 43 52 44 42 50 45 42 50 45 42 51 46 43 52 47 44 52 46 46 53 47 47 53 47 47 53 47 47 52 46 46 51 45 45 52 46 46 52 46 46 
55 47 45 54 46 44 53 45 43 54 46 44 54 46 44 54 46 44 52 44 42 53 45 43 53 45 43 53 45 43 53 45 43 53 45 43 53 45 43 53 45 43 53 45 43 52 44 42 52 44 42 54 46 44 52 44 42 52 44 42 51 43 40 51 41 39 51 43 40 51 41 39 50 45 41 52 42 40 51 43 40 50 42 39 52 44 41 51 43 40 51 43 40 51 43 40 51 43 40 51 43 40 51 43 40 50 42 39 51 43 40 51 43 40 51 43 40 50 42 39 50 42 39 50 42 39 51 43 40 51 43 40 51 43 40 51 41 39 51 41 39 51 41 40 51 41 39 51 41 39 52 42 40 51 43 40 51 43 40 51 43 40 51 43 40 51 43 40 51 43 41 51 43 41 52 44 42 52 44 42 50 42 39 50 42 39 51 41 39 52 42 40 50 42 39 50 42 39 50 42 39 50 42 39 50 42 40 51 41 40 52 42 41 51 41 40 52 44 42 51 41 40 51 41 40 51 43 41 51 43 41 51 43 41 50 42 40 51 43 41 50 42 40 50 42 40 52 44 42 51 43 41 52 44 42 53 45 43 52 44 42 53 45 43 53 45 43 51 46 43 50 45 42 51 46 43 52 46 46 52 46 46 53 47 47 52 46 46 52 46 46 53 47 47 52 46 46 53 47 47 
54 46 44 52 44 42 53 45 43 54 46 44 54 46 43 54 46 43 54 46 43 53 45 42 53 45 42 53 45 42 52 44 41 53 45 42 53 45 43 54 46 44 51 43 41 52 44 42 52 44 42 53 43 42 52 44 42 54 44 43 51 43 41 51 43 40 51 43 40 51 43 40 51 43 40 52 44 41 50 42 39 51 43 40 51 43 40 51 43 40 51 43 40 51 43 40 51 43 40 51 43 40 50 42 39 50 42 39 52 44 41 51 43 40 52 44 41 51 43 40 50 42 39 50 42 39 51 43 40 50 42 39 50 42 39 50 42 40 51 41 39 50 42 40 52 42 40 50 42 40 51 43 40 51 43 41 51 43 40 51 43 40 50 42 39 52 44 41 51 43 40 51 43 40 51 43 40 51 41 39 51 43 40 51 43 41 51 43 40 50 42 40 50 42 39 50 42 40 50 42 39 50 42 40 49 41 38 50 42 40 49 41 38 50 42 39 50 42 39 50 42 39 51 43 40 50 42 39 50 42 40 50 42 40 50 42 40 50 42 40 52 44 42 52 44 42 51 43 41 52 44 42 50 45 42 52 44 42 52 44 42 52 44 42 51 46 43 52 47 44 53 43 42 51 45 45 50 45 42 52 47 44 51 45 45 51 45 45 52 46 46 52 46 46 51 45 45 50 46 45 
54 46 44 53 45 43 53 45 43 53 45 43 54 46 43 54 46 43 53 45 42 54 46 43 53 45 42 53 45 42 53 45 42 53 45 42 53 45 42 53 45 42 53 45 42 53 45 42 52 44 41 52 44 41 52 44 41 52 44 41 52 44 42 52 44 41 53 45 42 52 44 41 52 44 41 52 44 41 51 43 40 51 43 40 51 43 40 50 42 39 51 43 40 51 43 40 51 43 40 51 43 40 50 42 39 50 42 39 50 42 39 52 44 41 50 42 39 51 43 40 51 43 40 50 42 39 51 43 40 51 43 40 49 41 38 51 43 41 52 42 40 50 42 40 52 42 40 51 43 41 51 43 40 51 43 41 52 42 40 52 42 40 51 43 40 51 43 40 51 43 40 51 43 40 51 43 40 51 43 40 50 42 39 50 42 39 51 43 40 50 42 40 49 41 39 51 42 43 50 42 39 50 42 39 49 41 39 50 42 39 49 41 39 49 41 39 48 40 37 51 43 41 51 43 41 50 42 39 49 41 39 50 42 40 50 42 40 51 43 41 50 42 40 50 42 40 51 43 41 51 43 41 52 44 42 52 44 42 52 44 42 52 44 42 53 45 43 51 46 43 53 45 43 51 45 45 51 46 43 52 47 44 52 46 46 52 46 46 52 46 46 52 46 46 53 47 47 52 46 46 
55 47 45 53 45 43 54 46 44 53 45 43 55 47 45 54 46 44 55 47 45 54 46 44 54 46 44 55 47 45 53 45 43 53 45 43 52 44 41 53 45 42 53 45 42 52 44 41 53 45 42 52 44 41 53 45 42 52 44 41 52 44 42 51 43 40 52 44 41 52 44 41 52 44 41 52 44 41 52 44 41 52 44 41 51 43 40 51 43 40 51 43 40 51 43 40 51 43 40 51 43 40 50 42 39 50 42 39 50 42 39 51 43 40 51 43 40 50 42 39 50 42 39 50 42 39 50 42 39 51 43 40 51 43 40 50 42 40 52 42 40 51 43 41 51 43 40 50 42 40 52 42 40 51 43 41 51 43 40 52 44 42 50 42 40 51 43 40 51 41 39 52 42 41 53 43 42 51 43 40 50 42 40 52 42 41 50 42 39 51 43 40 51 43 40 50 42 39 51 41 40 50 42 40 52 42 41 50 40 39 51 41 40 51 41 40 51 41 40 51 41 40 51 41 40 52 42 41 50 40 39 49 41 39 49 41 39 51 41 40 52 44 42 51 43 41 51 43 41 51 43 41 52 44 42 53 45 43 54 44 43 52 44 42 53 45 43 51 46 43 52 47 44 51 45 45 51 46 43 52 47 44 53 47 47 52 46 46 51 45 45 50 44 44 51 45 45 53 47 47 
55 47 45 54 46 44 55 47 45 54 46 44 55 47 45 54 46 44 54 46 44 54 46 44 53 45 43 54 46 44 55 47 45 54 46 44 52 42 41 53 45 43 55 45 44 53 45 43 52 44 42 52 44 42 54 46 44 53 45 43 52 44 42 51 43 40 52 44 41 52 44 41 52 44 41 52 44 41 52 44 41 52 44 41 51 43 40 51 43 40 52 44 41 51 43 40 51 43 40 51 43 40 50 42 39 51 43 40 51 43 40 51 43 40 51 43 40 50 42 39 51 43 40 51 43 40 50 42 39 51 43 40 51 41 39 51 43 41 51 43 40 53 43 42 51 43 40 51 43 41 52 42 40 51 43 41 51 43 41 51 43 40 52 42 40 50 42 40 50 42 40 51 43 40 51 43 40 51 43 41 50 42 39 50 42 39 52 42 41 50 42 40 50 42 40 52 42 40 50 42 40 50 42 39 50 42 39 50 42 40 51 43 40 51 43 40 51 43 41 50 42 39 51 43 40 50 42 39 51 41 40 50 40 39 49 41 39 50 42 40 52 42 41 52 44 42 49 44 41 51 43 41 52 44 42 54 44 43 52 44 42 51 46 43 51 46 43 51 46 43 53 45 43 54 45 46 53 45 43 52 47 44 53 47 47 51 45 45 52 46 46 52 46 46 52 46 46 51 45 45 
55 47 45 53 45 43 54 46 44 53 45 43 54 46 44 54 46 44 55 47 45 54 46 44 54 46 44 54 46 44 54 46 44 53 45 43 53 45 43 53 45 43 55 47 45 53 45 43 51 46 43 52 44 42 51 46 43 52 44 42 52 44 42 52 44 41 51 43 40 51 43 40 52 44 41 52 44 41 51 43 40 51 43 40 52 44 41 51 43 40 53 45 42 51 43 40 50 42 39 51 43 40 50 42 39 52 44 41 51 43 40 51 43 40 51 43 40 50 42 39 50 42 39 51 43 40 50 42 39 50 42 39 50 42 39 51 43 41 51 43 40 52 42 41 51 43 40 50 42 40 51 41 39 51 43 41 51 43 40 51 43 41 51 41 40 51 43 40 50 42 39 50 42 40 51 43 41 51 43 40 51 43 41 52 42 40 50 42 40 51 43 40 51 43 40 51 43 40 52 42 41 50 42 40 50 42 39 51 43 40 51 43 40 50 42 40 50 42 39 50 42 39 52 44 42 50 42 39 50 40 39 49 41 39 50 42 40 51 41 40 51 43 41 51 43 41 51 43 41 51 43 41 52 44 42 52 44 42 51 46 43 52 44 42 53 45 43 50 45 42 53 45 43 53 44 45 54 46 44 54 46 44 52 46 46 52 46 46 51 45 45 52 46 46 52 46 46 52 46 46 
54 46 44 54 46 44 54 46 44 52 44 42 54 46 44 54 46 44 55 47 45 53 45 43 54 46 44 53 45 43 54 46 44 54 46 44 53 45 43 53 45 43 53 45 43 54 46 44 53 45 43 53 45 43 54 46 44 53 45 43 53 45 43 53 45 42 52 44 41 52 44 41 52 44 41 53 45 42 52 44 41 52 44 41 51 43 40 51 43 40 52 44 41 52 44 41 51 43 40 51 43 40 51 43 40 51 43 40 52 44 41 51 43 40 51 43 40 51 43 40 50 42 39 50 42 39 50 42 39 53 45 42 51 43 40 50 42 40 52 44 41 53 41 41 53 43 41 50 42 40 51 43 40 51 43 41 51 43 41 52 44 41 51 43 40 50 42 40 52 42 41 52 42 40 52 42 40 51 43 41 50 42 39 51 43 40 52 42 41 50 42 40 50 42 40 52 42 41 51 43 40 51 43 40 52 42 41 51 41 40 51 41 40 50 40 39 50 40 39 50 40 39 51 41 40 51 41 40 50 42 40 49 41 39 50 42 40 51 43 41 52 42 41 50 42 40 52 44 42 53 43 42 49 44 41 53 45 43 53 45 43 52 44 42 53 43 42 51 46 43 51 46 43 51 45 45 53 45 43 53 45 43 51 45 45 52 46 46 51 45 45 53 47 47 52 46 46 53 47 47 
54 46 44 54 46 44 54 46 44 53 45 43 54 46 44 55 47 45 54 46 44 53 45 43 53 45 43 54 46 44 53 45 43 53 45 43 54 46 44 54 46 44 53 45 43 52 44 42 54 46 44 53 45 43 53 45 43 52 44 42 53 45 43 53 45 42 52 44 41 52 44 41 52 44 41 52 44 41 52 44 41 52 44 41 52 44 41 52 44 41 51 43 40 51 43 40 52 44 41 52 44 41 52 44 41 52 44 41 51 43 40 51 43 40 51 43 40 51 43 40 52 44 41 51 43 40 51 43 40 52 44 41 51 43 40 51 43 41 51 43 40 52 42 41 51 43 40 52 42 41 51 43 40 51 43 41 53 43 41 53 43 41 51 43 40 51 43 40 51 43 40 51 43 40 51 43 40 51 43 40 51 43 41 50 42 40 50 43 37 51 43 40 51 43 40 51 43 41 51 43 41 51 43 41 50 42 39 50 42 40 50 42 40 50 42 39 49 41 39 50 42 40 50 42 39 51 43 41 51 43 41 51 43 41 51 43 41 51 43 41 52 44 42 51 43 41 52 44 42 51 43 41 50 45 42 52 44 42 54 46 44 52 44 42 54 46 44 49 45 42 53 45 43 51 45 45 53 45 43 54 46 44 52 46 46 51 45 45 52 46 46 52 46 46 54 48 48 53 47 47 
54 46 44 54 46 44 54 46 44 54 46 44 55 47 45 55 47 45 55 47 45 55 47 45 54 46 44 55 47 45 54 46 44 53 45 43 53 45 43 52 47 44 55 47 45 52 47 44 54 46 44 52 44 42 53 45 43 53 45 43 52 44 42 52 44 41 52 44 41 52 44 41 52 44 41 52 44 41 53 45 42 53 45 42 53 45 42 52 44 41 52 44 41 52 44 41 52 44 41 53 45 42 53 45 42 53 45 42 52 44 41 52 44 41 53 45 42 53 45 42 52 44 41 53 45 42 52 44 41 52 44 41 52 44 41 51 41 40 51 43 40 52 44 42 51 43 40 52 42 41 51 43 40 53 43 42 52 44 41 53 45 42 52 44 41 51 43 40 51 43 40 51 43 40 52 44 41 52 42 40 51 43 40 50 42 40 50 42 39 51 43 41 51 43 40 50 42 40 50 42 39 51 43 41 50 42 39 51 43 40 52 44 41 49 41 38 49 41 38 50 42 39 51 43 41 51 43 40 50 42 40 50 42 40 52 44 42 51 43 41 51 43 41 50 42 40 51 43 41 52 44 42 52 44 42 52 44 42 51 46 43 51 46 43 51 46 43 51 46 43 51 46 43 52 43 44 53 45 43 53 45 43 52 46 46 52 46 46 50 44 44 51 45 45 53 47 47 52 46 46 
54 46 44 54 46 44 54 46 44 54 46 44 55 47 45 55 47 45 55 47 45 55 47 45 55 47 45 55 47 45 54 46 44 54 46 44 54 46 44 54 46 44 53 45 43 53 45 43 54 46 44 54 46 44 53 45 43 53 45 43 52 44 42 52 44 42 53 45 43 53 45 43 52 44 42 52 44 42 53 45 42 53 45 42 52 44 41 52 44 41 51 43 40 52 44 41 52 44 41 52 44 41 52 44 41 54 46 43 52 44 41 51 43 40 53 45 42 52 44 41 52 44 41 52 44 41 53 45 42 52 44 41 52 44 42 51 43 40 51 43 41 50 42 39 50 42 40 52 44 41 51 43 41 53 45 43 52 44 42 52 44 41 52 44 41 51 43 40 53 45 43 51 43 41 51 43 41 51 43 40 51 43 40 50 42 39 50 42 39 51 43 40 52 44 41 52 44 41 51 43 40 50 42 39 50 42 39 51 43 40 51 43 40 50 42 39 50 42 39 50 42 39 51 43 40 51 43 41 50 42 39 49 41 38 50 42 40 51 43 41 51 43 41 52 44 42 52 44 42 51 43 41 52 44 41 52 44 42 52 44 42 51 46 43 53 45 43 51 45 45 53 44 45 51 45 45 53 45 43 51 46 43 52 47 44 50 46 43 52 46 46 52 46 46 52 46 46 52 46 46 
54 46 44 54 46 44 54 46 44 54 46 44 55 47 45 55 47 45 55 47 45 54 46 44 54 46 44 54 46 44 55 47 45 54 46 44 54 46 44 54 46 44 54 46 44 54 46 44 53 45 43 53 45 43 53 45 43 55 47 45 55 47 45 53 45 43 51 46 43 53 45 43 51 46 43 53 45 43 53 45 42 53 45 42 52 44 41 52 44 41 53 45 42 51 43 40 52 44 41 51 43 40 52 44 41 51 43 40 52 44 41 52 44 41 51 43 40 52 44 41 52 44 41 53 45 42 52 44 41 53 45 42 52 44 41 51 43 40 51 43 41 51 43 41 51 43 41 52 44 42 51 43 40 51 43 40 52 44 42 52 44 41 52 44 41 51 43 40 51 43 41 52 44 42 53 45 43 49 41 38 50 42 39 50 42 39 50 42 39 51 43 40 51 43 40 51 43 40 51 43 40 50 42 39 51 43 41 51 43 40 50 42 39 51 43 40 50 42 39 50 42 40 50 42 40 51 43 41 49 41 38 49 41 38 51 43 41 51 43 41 51 43 41 50 42 40 52 44 42 52 44 42 52 44 42 53 45 43 52 44 42 51 46 43 53 44 45 51 46 43 53 45 43 51 45 45 52 47 44 54 49 46 52 47 44 52 47 44 50 44 44 52 46 46 52 46 46 52 46 46 
55 47 45 55 47 45 54 46 44 54 46 44 55 47 45 54 46 44 54 46 44 54 46 44 54 46 44 54 46 44 54 46 44 53 45 43 54 46 44 54 46 44 54 46 44 55 47 45 54 46 44 53 45 43 54 46 44 55 47 45 55 47 45 53 45 43 53 45 43 53 45 43 52 44 42 53 45 43 53 45 42 52 44 41 52 44 41 53 45 42 52 44 41 51 43 40 52 44 41 52 44 41 53 45 42 52 44 41 52 44 42 52 44 42 52 44 42 53 45 43 52 44 42 52 44 42 52 44 42 52 44 42 53 45 43 51 43 41 51 43 40 51 43 40 52 44 41 51 43 40 51 43 41 52 44 42 52 44 41 51 43 41 52 44 42 52 44 42 51 43 40 50 42 39 50 42 39 49 41 39 50 42 39 50 42 39 51 43 40 51 43 40 51 43 40 51 43 40 52 44 41 50 42 39 51 43 40 51 43 40 51 43 40 51 43 40 51 43 40 50 42 39 50 42 40 50 42 40 50 42 40 49 41 39 51 43 40 51 43 41 51 42 43 50 42 40 51 43 41 53 45 43 53 45 43 52 44 42 53 45 43 51 46 43 53 45 43 53 45 43 53 45 43 51 46 43 52 47 44 53 48 45 51 46 43 51 46 43 51 45 45 52 46 46 52 46 46 52 46 46 
55 47 45 54 46 44 54 46 44 54 46 44 55 47 45 54 46 44 54 46 44 54 46 44 54 46 44 55 47 45 54 46 44 54 46 44 54 46 44 55 45 44 55 47 45 55 47 45 55 47 45 53 45 43 55 45 44 54 46 44 54 46 44 54 46 44 53 45 43 51 46 43 54 46 44 52 47 44 54 46 43 52 44 41 53 45 42 53 45 42 53 45 42 54 46 43 52 44 41 52 44 41 52 44 41 53 45 42 52 44 42 53 45 43 52 44 42 52 44 42 52 44 42 52 44 42 53 45 43 53 45 43 53 45 42 52 44 42 53 45 42 53 45 43 54 46 43 53 45 43 52 44 41 52 44 41 53 45 42 53 45 43 53 45 43 53 45 43 52 44 41 52 44 41 50 42 39 51 43 41 51 43 40 51 43 40 52 44 41 52 44 41 51 43 40 52 44 41 51 43 40 51 43 40 52 44 41 51 43 40 51 43 40 51 43 40 51 43 40 51 43 40 50 42 39 51 43 41 50 42 40 50 42 40 51 43 40 51 43 40 51 43 40 50 42 40 51 43 41 51 43 41 52 44 42 52 44 42 51 43 41 53 45 43 53 45 42 51 43 41 52 44 42 51 46 42 51 46 43 51 46 43 52 47 44 52 47 44 51 45 45 52 46 46 52 46 46 51 45 45 
55 47 45 55 47 45 55 47 45 55 47 45 55 47 45 54 46 44 54 46 44 55 47 45 55 47 45 54 46 44 55 47 45 55 47 45 55 47 45 53 45 43 54 46 44 54 46 44 54 46 44 54 46 44 54 46 44 53 45 43 53 45 43 53 45 43 53 45 43 54 46 44 53 45 43 53 45 43 55 47 44 53 45 42 53 45 43 52 44 42 53 45 43 53 45 43 55 47 45 53 45 43 52 44 42 53 45 43 52 44 42 54 46 44 53 45 43 52 44 42 53 45 43 52 44 42 52 44 42 52 44 42 53 45 42 53 45 43 52 44 41 53 45 43 52 44 41 53 45 43 54 46 43 53 45 42 52 44 41 53 45 43 53 45 43 53 45 43 53 45 42 53 45 42 52 44 41 52 44 42 52 44 41 52 44 41 54 46 43 53 45 42 53 45 42 52 44 41 51 43 40 52 44 41 52 44 42 52 44 41 52 44 41 50 42 39 51 43 40 52 44 42 52 44 42 51 43 41 53 45 43 51 43 41 52 44 41 52 44 41 52 44 41 52 44 42 52 44 42 51 43 41 52 44 42 52 44 42 53 45 43 54 46 44 53 45 43 53 45 43 52 47 43 50 45 42 52 44 42 51 46 43 53 48 45 51 47 44 52 46 46 52 46 46 53 47 47 54 48 48 
55 47 45 54 46 44 55 47 45 55 47 45 55 47 45 53 45 43 54 46 44 56 48 46 55 47 45 54 46 44 54 46 44 54 46 44 54 46 44 53 48 45 54 46 44 52 47 44 52 47 44 54 46 44 52 47 44 54 46 44 54 46 44 54 46 44 52 47 44 54 46 44 52 47 44 54 46 44 54 46 43 54 46 43 52 44 42 53 45 43 53 45 43 54 46 44 53 45 43 53 45 43 52 44 42 52 44 42 54 46 44 53 45 43 53 45 43 52 44 42 52 44 42 51 43 41 52 44 42 52 44 42 52 44 42 53 45 43 53 45 42 53 45 42 54 46 43 53 45 42 53 45 43 53 45 43 53 45 42 52 44 42 53 45 43 54 46 44 53 45 42 53 45 42 52 44 41 52 44 42 52 44 41 53 45 42 53 45 42 54 46 43 53 45 42 52 44 41 51 43 40 52 44 41 51 43 40 51 43 40 50 42 39 51 43 40 51 43 40 51 43 40 51 43 41 51 43 41 51 43 41 52 44 42 51 43 40 52 44 42 52 43 44 54 46 44 50 42 40 51 43 41 51 43 41 51 43 41 53 45 43 52 44 42 51 46 43 53 45 43 50 45 42 50 45 42 53 45 43 51 46 43 52 47 44 51 47 44 52 46 46 51 45 45 52 46 46 52 46 46 
54 46 44 54 46 44 54 46 44 54 46 44 53 48 45 52 47 44 53 48 45 53 48 45 51 46 43 52 47 44 52 47 44 53 48 45 55 47 45 52 47 44 54 46 44 52 47 44 51 46 43 54 46 44 52 47 44 54 46 44 55 47 45 54 46 44 55 47 45 54 46 44 54 46 44 54 46 44 53 45 42 54 46 43 53 45 43 54 46 44 53 45 43 53 45 43 53 45 43 52 44 42 53 45 43 53 45 43 53 45 43 53 45 43 53 45 43 53 45 43 52 44 42 53 45 43 53 45 43 55 47 45 53 45 42 52 44 41 53 45 43 53 45 43 53 45 43 53 45 43 54 46 43 52 44 41 54 46 44 53 45 42 54 46 43 53 45 42 52 44 42 53 45 43 52 44 42 52 44 41 53 45 42 53 45 42 53 45 42 53 45 42 53 45 42 52 44 41 52 44 41 51 43 40 52 44 41 51 43 40 52 44 41 51 43 40 51 43 40 52 44 41 51 43 40 52 44 42 52 44 41 51 43 40 51 43 41 52 44 42 52 44 42 52 44 42 52 44 42 52 44 42 52 44 42 52 44 41 53 45 43 53 45 43 51 46 43 53 45 43 50 45 42 52 44 42 53 45 43 50 45 42 49 44 41 50 46 43 51 45 45 51 45 45 51 45 45 52 46 46 
54 46 44 54 46 44 53 45 43 54 46 44 52 47 44 52 47 44 51 46 43 51 46 43 53 48 45 52 47 44 52 47 44 52 47 44 54 46 44 52 47 44 53 45 43 51 46 43 51 46 43 52 44 42 51 46 43 55 47 45 55 47 45 55 47 45 54 46 44 52 47 44 55 47 45 54 46 44 53 45 42 53 45 42 53 45 43 53 45 43 53 45 43 54 46 44 53 45 43 54 46 44 53 45 43 54 46 44 54 46 44 53 45 43 53 45 43 52 44 42 51 43 41 52 44 42 53 45 43 53 45 43 54 46 44 54 46 43 51 43 41 53 45 42 52 44 42 52 44 41 53 45 43 53 45 43 54 46 44 53 45 42 53 45 42 53 45 42 54 46 44 53 45 43 51 43 41 52 44 41 53 45 42 53 45 42 53 45 42 53 45 42 52 44 41 52 44 41 52 44 41 51 43 40 52 44 42 52 44 41 52 44 41 52 44 41 52 44 41 51 43 40 51 43 41 51 43 41 52 44 41 51 43 40 51 43 41 52 44 42 52 44 42 53 45 43 52 44 42 53 45 43 53 45 43 52 44 42 53 45 43 53 45 43 52 47 44 53 45 43 50 45 42 53 45 43 51 46 43 50 45 42 50 45 42 50 45 42 51 45 45 50 44 44 51 45 45 52 46 46 
52 47 44 52 47 44 52 47 44 53 48 45 55 47 45 55 47 45 54 46 44 54 46 44 54 46 44 54 46 44 54 46 44 54 46 44 54 46 44 54 46 44 54 46 44 54 46 44 54 46 44 53 45 43 54 46 44 54 46 44 53 48 44 53 48 44 55 47 44 53 45 42 55 47 45 54 46 44 54 46 44 54 46 44 54 46 44 55 47 45 54 46 44 54 46 44 54 46 44 54 46 44 54 46 44 55 47 45 55 47 45 55 47 45 54 46 44 54 46 44 54 46 44 54 46 44 53 45 43 54 46 44 54 46 44 53 45 42 53 45 42 53 45 42 53 46 40 53 45 43 53 45 43 54 46 43 53 45 43 52 44 41 53 45 42 54 46 44 54 46 44 52 44 41 53 45 42 51 43 41 53 45 42 53 45 42 53 45 42 52 44 41 51 43 40 52 44 41 50 42 39 52 44 41 52 44 41 53 45 42 52 44 41 52 44 41 52 44 41 52 44 41 52 44 41 52 44 41 51 43 41 51 43 40 52 44 41 53 45 42 52 44 42 53 45 43 52 44 42 53 45 43 51 46 42 53 45 42 53 45 43 54 46 44 51 46 43 51 46 43 50 45 42 50 45 42 53 45 43 51 46 43 50 46 43 51 47 44 50 46 43 52 47 44 51 45 45 50 44 44 
55 47 45 55 47 45 55 47 45 55 47 45 55 47 45 55 47 45 54 46 44 53 45 43 55 47 45 54 46 44 54 46 44 54 46 44 54 46 44 55 47 45 54 46 44 55 47 45 54 46 44 54 46 44 54 46 44 55 47 45 53 48 44 53 48 44 54 46 43 55 47 45 54 46 44 54 46 44 53 45 43 54 46 44 53 45 43 53 45 43 54 46 44 54 46 44 54 46 44 54 46 44 55 47 45 54 46 44 54 46 44 55 47 45 53 45 43 53 45 43 54 46 44 53 45 43 53 45 43 54 46 44 53 45 43 52 44 42 53 45 42 53 45 42 54 46 43 53 45 43 53 45 43 54 46 43 53 45 42 52 44 41 53 45 42 55 47 44 53 45 42 53 45 42 52 44 41 52 44 41 54 46 44 54 46 43 52 44 41 52 44 41 52 44 41 52 44 41 52 44 41 52 44 41 51 43 40 51 43 40 52 44 41 52 44 41 51 43 40 52 44 41 52 44 41 52 44 41 51 43 41 52 44 41 51 43 40 52 44 41 52 44 42 52 44 42 52 44 42 52 44 42 50 45 41 51 46 42 53 45 43 51 46 43 52 47 44 51 46 43 50 45 42 51 46 43 51 46 43 52 47 44 49 44 41 51 46 43 50 46 43 51 46 43 53 47 47 52 43 44 
53 48 45 54 49 46 53 48 45 53 48 45 56 48 46 54 46 44 54 46 44 54 46 44 55 47 45 53 45 43 54 46 44 54 46 44 52 47 44 52 47 44 52 47 44 53 48 45 53 48 45 53 48 45 53 48 45 52 47 44 52 47 44 52 47 44 54 46 44 55 47 45 53 45 43 54 46 44 53 45 43 54 46 44 54 46 44 55 47 45 55 47 45 54 46 44 53 45 43 55 47 45 54 46 44 54 46 44 55 47 45 53 45 43 54 46 44 53 45 43 54 46 44 54 46 44 54 46 44 54 46 44 50 45 42 54 46 44 54 46 43 54 46 43 52 47 44 52 47 44 52 44 42 54 46 44 54 46 44 53 45 43 54 46 44 54 46 44 55 47 45 54 46 44 53 45 43 53 45 43 54 46 44 53 45 43 54 46 44 53 45 42 52 44 41 53 45 42 53 45 42 52 44 41 53 45 42 53 45 42 53 45 42 53 45 42 52 44 41 52 44 41 52 44 41 52 44 41 52 44 41 53 45 42 52 44 41 52 44 42 52 44 42 53 45 43 53 45 43 53 45 43 53 45 43 53 45 43 51 46 43 51 46 43 52 47 44 51 46 43 51 46 43 52 47 44 51 46 43 50 45 42 52 47 44 51 46 43 50 46 43 52 48 45 51 45 45 51 45 45 
53 48 45 53 48 45 54 49 46 53 48 45 55 47 45 54 46 44 54 46 44 54 46 44 55 47 45 54 46 44 54 46 44 54 46 44 52 47 44 52 47 44 52 47 44 53 48 45 53 48 45 53 48 45 52 47 44 53 48 45 53 48 45 53 48 45 53 48 45 53 45 43 54 46 44 55 47 45 55 47 45 54 46 44 54 46 44 54 46 44 53 45 43 53 45 43 55 47 45 54 46 44 55 47 45 54 46 44 54 46 44 52 44 42 54 46 44 53 45 43 53 45 43 54 46 44 54 46 44 54 46 44 51 46 43 53 45 43 54 46 44 54 46 43 52 47 44 51 46 43 52 47 44 55 47 45 54 46 44 53 45 43 54 46 44 53 45 43 53 45 43 54 46 44 54 46 44 53 45 43 53 45 43 54 46 44 54 46 44 53 45 43 53 45 43 52 44 41 53 45 42 53 45 42 53 45 42 53 45 42 52 44 41 51 43 40 51 43 40 52 44 41 52 44 41 52 44 41 53 45 42 52 44 41 52 44 41 52 44 42 52 44 42 51 43 41 52 44 42 53 45 43 51 46 43 51 46 43 51 46 43 51 46 43 51 46 43 53 45 43 52 47 44 51 46 43 51 46 43 51 46 43 52 47 44 52 47 44 52 47 44 51 46 43 51 47 46 51 47 46 
54 46 44 55 47 45 55 47 45 55 47 45 53 48 45 52 47 44 52 47 44 52 47 44 54 49 46 53 48 45 53 48 45 52 47 44 52 47 44 51 46 43 52 47 44 52 47 44 53 48 45 52 47 44 52 47 44 51 46 43 53 48 45 54 49 46 54 49 46 51 46 43 52 47 44 54 46 44 54 46 44 54 46 44 54 46 44 54 46 44 54 46 44 54 46 44 54 46 44 55 47 45 54 46 44 54 46 44 54 46 44 55 47 45 54 46 44 54 46 44 55 47 45 54 46 44 55 47 45 55 47 45 55 47 45 55 47 45 54 46 44 54 46 44 54 46 44 54 46 44 54 46 44 54 46 44 53 45 43 53 45 43 52 44 42 53 45 43 55 47 45 53 45 43 53 45 43 53 45 43 54 46 44 53 45 43 54 46 44 53 45 43 53 45 43 53 45 43 53 45 43 53 45 43 53 45 42 53 45 42 53 45 42 52 44 41 52 44 41 52 44 41 53 45 42 52 44 41 54 46 43 51 43 40 52 44 42 51 43 41 53 45 43 54 46 44 53 45 43 54 46 44 53 45 43 52 44 42 50 45 42 50 45 42 51 46 43 51 46 43 53 45 43 51 46 43 52 47 44 51 46 43 52 44 42 53 45 43 52 47 44 52 47 44 52 46 46 51 47 46 
56 48 46 55 47 45 55 47 45 55 47 45 53 48 45 54 49 46 53 48 45 54 49 46 52 47 44 54 49 46 53 48 45 52 47 44 52 47 44 52 47 44 53 48 45 51 46 43 53 48 45 51 46 43 52 47 44 52 47 44 52 47 44 53 48 45 53 48 45 52 47 44 53 48 45 54 49 46 55 47 45 55 47 45 55 47 45 54 46 44 54 46 44 55 47 45 56 48 46 55 47 45 54 46 44 54 46 44 53 45 43 54 46 44 53 45 43 54 46 44 54 46 44 55 47 45 55 47 45 55 47 45 55 47 45 54 46 44 53 45 43 54 46 44 54 46 44 54 46 44 54 46 44 53 45 43 53 45 43 54 46 44 54 46 44 54 46 44 54 46 44 53 45 43 54 46 44 54 46 44 53 45 43 54 46 44 53 45 43 53 45 43 54 46 44 53 45 43 53 45 43 53 45 43 52 44 41 53 45 42 52 44 41 53 45 42 53 45 42 53 45 42 54 46 43 54 46 43 54 46 43 54 46 44 52 44 42 53 45 43 53 45 43 53 45 43 54 46 44 54 46 44 52 47 44 49 45 42 50 45 42 50 45 42 51 46 43 50 45 42 50 45 42 52 47 44 51 46 43 51 46 43 50 45 42 52 47 44 53 45 43 52 47 44 51 45 45 51 47 46 
53 48 45 53 48 45 53 48 45 54 49 46 53 48 45 54 49 46 54 49 46 54 49 46 53 48 45 53 48 45 53 48 45 53 48 45 53 48 45 52 47 44 52 47 44 53 48 45 52 47 44 52 47 44 51 46 43 52 47 44 52 47 44 53 48 45 53 48 45 53 48 45 53 48 45 53 48 45 54 46 44 55 47 45 55 47 45 52 47 44 54 46 44 54 46 44 52 47 44 54 46 44 55 47 45 52 47 44 52 47 44 51 46 43 52 47 44 52 47 44 51 46 43 53 48 45 52 47 44 52 47 44 52 47 44 53 48 45 54 46 44 54 46 44 52 47 44 52 47 44 52 47 44 53 45 43 52 47 44 51 46 43 52 47 44 53 48 45 52 47 44 53 48 45 52 47 44 52 47 44 53 45 43 54 46 44 54 46 44 54 46 44 54 46 44 53 45 43 54 46 44 53 45 43 51 46 42 51 46 42 51 46 42 50 45 41 51 46 42 51 46 42 51 46 42 52 47 43 53 45 42 55 47 45 53 45 43 53 45 43 52 44 42 54 46 44 54 46 44 54 46 44 52 47 44 51 46 43 52 47 44 52 47 44 51 46 43 51 46 43 51 46 43 51 46 43 51 46 43 51 47 44 51 46 43 52 47 44 51 46 43 51 46 43 51 45 45 51 47 46 
55 47 45 55 47 45 55 47 45 55 47 45 52 47 44 53 48 45 53 48 45 54 49 46 52 47 44 54 49 46 54 49 46 53 48 45 53 48 45 53 48 45 53 48 45 53 48 45 52 47 44 53 48 45 52 47 44 53 48 45 54 49 46 53 48 45 53 48 45 53 48 45 53 48 45 53 48 45 55 47 45 55 47 45 54 46 44 52 47 44 54 46 44 54 46 44 53 48 45 53 48 45 53 45 43 52 47 44 52 47 44 52 47 44 52 47 44 52 47 44 52 47 44 53 48 45 53 48 45 52 47 44 52 47 44 53 48 45 51 46 43 52 47 44 53 48 45 53 48 45 52 47 44 52 47 44 52 47 44 51 46 43 51 46 43 52 47 44 54 49 46 52 47 44 52 47 44 52 47 44 51 46 43 52 47 44 52 47 44 52 47 44 51 46 43 52 47 44 52 47 44 52 47 44 51 46 42 51 46 42 52 47 43 52 47 43 51 46 42 52 47 43 52 47 43 51 46 42 51 46 42 51 46 43 52 46 46 51 46 43 50 45 42 51 46 42 51 46 43 51 46 43 51 46 43 52 47 44 51 46 43 52 47 44 52 44 42 51 46 43 52 47 44 52 46 46 52 47 44 52 47 44 52 47 44 51 46 43 52 47 44 51 47 44 52 46 46 52 46 46 
52 47 44 53 48 45 54 46 44 52 47 44 53 48 45 54 49 46 53 48 45 52 47 44 54 49 45 54 49 45 53 48 45 54 49 46 53 48 45 53 48 45 53 48 45 52 47 44 52 47 44 54 46 44 53 48 45 53 48 45 53 48 45 53 48 45 52 47 44 52 47 44 53 48 45 53 48 45 53 48 45 52 47 44 53 48 45 52 47 44 51 46 43 52 47 44 51 46 43 52 47 44 52 47 44 52 47 44 52 47 44 51 46 43 51 46 43 53 48 45 52 47 44 52 47 44 52 47 44 53 48 45 53 47 47 52 46 46 53 47 47 51 45 45 53 47 47 53 47 47 53 47 47 52 46 46 53 48 45 52 47 44 52 47 44 52 47 44 53 48 45 52 47 44 52 47 44 51 46 43 51 46 43 52 47 44 52 47 44 51 46 43 53 48 45 51 46 43 52 47 44 52 47 44 51 46 42 52 47 44 52 47 44 52 47 44 51 46 42 51 46 42 52 47 43 51 46 43 51 46 43 52 47 44 53 48 45 52 47 41 51 46 40 50 45 42 51 46 43 51 46 43 52 47 44 52 47 44 52 47 44 52 47 44 51 46 43 52 47 44 51 45 45 52 46 46 53 48 45 52 47 44 51 46 43 52 47 44 52 47 44 52 47 44 53 49 46 51 47 44 
53 45 43 55 47 45 52 47 44 55 47 45 52 47 44 53 48 44 53 48 44 52 47 44 53 48 45 54 49 46 53 48 45 53 48 44 53 48 45 54 49 46 53 48 45 54 49 46 54 49 46 56 48 46 53 48 45 53 48 45 53 48 45 52 47 44 53 48 45 53 48 45 54 49 46 53 48 45 53 48 45 53 48 45 53 48 45 54 49 46 53 48 45 52 47 44 53 48 45 52 47 44 52 47 44 52 47 44 52 47 44 53 48 45 52 47 44 53 48 45 52 47 44 54 49 46 54 49 46 53 48 45 53 48 45 53 48 45 53 48 45 53 48 45 53 48 45 53 48 45 52 47 44 53 48 45 54 49 46 53 48 45 52 47 44 52 47 44 52 47 44 52 47 44 52 47 44 53 48 45 51 46 43 52 47 44 51 46 43 52 47 44 52 47 44 52 47 44 53 48 45 52 47 44 52 47 44 51 46 43 51 46 42 52 47 43 52 47 44 50 44 44 51 46 43 51 46 42 51 46 43 52 47 44 53 48 45 52 47 43 51 46 42 52 47 44 51 46 43 52 47 44 51 46 43 52 47 44 52 47 44 52 47 44 53 48 45 52 47 44 52 47 44 52 47 44 52 47 44 51 46 43 52 47 44 53 48 45 53 48 45 53 48 45 53 49 46 51 47 44 
52 47 43 53 48 45 55 47 45 52 47 44 53 48 45 53 48 45 52 47 44 53 48 45 54 49 46 53 48 45 53 48 45 53 48 45 52 47 44 55 47 45 53 48 45 53 48 45 55 50 47 54 49 46 52 47 44 53 48 45 53 48 45 54 49 46 53 48 45 54 49 46 52 47 44 53 48 45 53 48 45 53 48 45 53 48 45 53 48 45 53 48 45 52 47 44 53 48 45 52 47 44 53 48 45 52 47 44 52 47 44 52 47 44 52 47 44 53 48 45 54 49 46 52 47 44 54 49 46 54 49 46 53 48 45 53 48 45 53 48 45 54 49 46 53 48 45 53 48 45 53 48 45 53 48 45 53 48 45 53 48 45 53 48 45 53 48 45 53 48 45 53 48 45 51 46 43 52 47 44 52 47 44 53 48 45 53 48 45 53 48 45 51 46 43 53 48 45 52 47 44 52 47 44 52 47 44 52 47 44 52 47 44 52 47 44 52 47 44 52 47 44 52 47 44 50 45 42 49 44 41 52 47 44 53 48 45 51 46 42 51 46 42 52 47 44 53 48 45 52 47 44 51 46 43 51 46 43 51 46 43 51 46 43 52 47 44 52 47 44 52 47 44 54 49 46 52 47 44 52 47 44 51 46 43 54 49 46 53 48 45 53 48 45 52 48 45 52 48 45 
53 48 44 53 48 44 55 47 45 54 49 46 53 48 45 52 47 44 54 49 45 53 48 44 53 48 45 54 48 48 52 47 44 54 49 46 54 49 46 55 47 45 54 49 46 53 48 45 52 47 44 53 48 45 53 48 45 52 47 44 53 48 45 53 48 45 51 46 43 53 48 45 53 48 45 53 48 45 54 49 46 53 48 45 53 48 45 53 48 45 53 48 45 53 48 45 53 48 45 53 48 45 53 48 45 53 48 45 53 48 45 53 48 45 53 48 45 53 48 45 53 48 45 54 49 46 54 49 46 54 49 46 54 48 48 54 48 48 55 49 49 53 47 47 53 47 47 53 47 47 53 47 47 53 47 47 54 49 46 55 50 47 53 48 45 52 47 44 52 47 44 52 47 44 52 47 44 53 48 45 53 48 45 53 48 45 53 48 45 54 49 46 53 48 45 53 48 45 53 48 45 51 46 43 53 48 45 52 47 44 53 48 45 52 47 44 52 47 44 52 47 44 52 47 44 52 47 44 51 46 43 52 47 44 52 47 44 51 46 43 51 46 43 51 46 43 52 47 44 51 46 43 52 47 44 51 46 43 51 46 43 51 45 45 52 46 46 53 47 47 52 47 44 52 47 44 51 46 43 52 47 44 51 46 43 52 47 44 53 48 45 52 47 44 51 47 44 51 47 44 
55 47 44 56 48 45 54 49 46 56 48 46 53 48 44 53 48 45 53 48 45 54 49 46 54 49 46 53 48 45 54 49 46 53 48 45 53 48 45 56 48 46 53 48 45 53 48 45 53 48 45 52 47 44 53 48 45 52 47 44 53 48 45 54 49 46 53 48 45 52 47 44 52 47 44 53 48 45 53 48 45 53 48 45 54 49 46 53 48 45 54 49 46 52 47 44 52 47 44 53 48 45 53 48 45 52 47 44 52 47 44 52 47 44 53 48 45 52 47 44 53 48 45 53 48 45 53 48 45 52 47 44 54 48 48 53 47 47 53 47 47 53 47 47 53 47 47 53 47 47 53 47 47 53 47 47 54 49 46 54 49 46 54 49 46 53 48 45 53 48 45 52 47 44 52 47 44 53 48 45 54 49 46 51 46 43 53 48 45 54 49 46 52 47 44 52 47 44 52 47 44 52 47 44 52 47 44 52 47 44 51 46 43 53 48 45 52 47 44 51 46 43 52 47 44 52 47 44 52 47 44 53 48 45 52 47 44 52 47 44 51 46 43 52 47 44 54 49 46 53 48 45 52 47 44 52 47 44 52 47 44 52 47 44 51 46 43 51 46 43 51 46 43 51 46 43 52 46 46 51 45 45 52 46 46 53 47 47 53 47 47 52 46 46 52 48 47 50 46 45 
55 47 44 55 47 45 53 48 45 55 47 45 53 48 45 53 48 45 54 49 46 55 50 47 54 49 46 54 49 46 53 48 45 53 47 47 53 48 45 54 46 44 54 49 46 53 48 45 53 48 45 52 47 44 54 49 46 53 48 45 53 48 45 53 48 45 54 49 46 53 48 45 54 49 46 52 47 44 53 48 45 54 49 46 54 49 46 53 48 45 53 48 45 53 48 45 53 48 45 54 49 46 52 47 44 51 46 43 53 48 45 54 49 46 53 48 45 54 49 46 54 49 46 53 48 45 55 50 47 54 49 46 53 48 45 54 49 46 54 49 46 54 49 46 53 48 45 52 47 44 53 48 45 54 49 46 54 49 46 55 50 47 53 48 45 54 49 46 53 48 45 53 48 45 53 48 45 53 48 45 53 48 45 52 47 44 53 48 45 53 48 45 54 49 46 53 48 45 52 47 44 52 47 44 51 46 43 52 47 44 52 47 44 53 48 45 52 47 44 53 48 45 52 47 44 52 47 44 53 48 45 54 49 46 51 46 43 52 47 44 52 47 44 51 46 43 53 48 45 52 47 44 52 47 44 52 47 44 52 47 44 52 47 44 52 47 44 52 47 44 53 48 45 50 45 42 52 46 46 52 46 46 52 46 46 53 47 47 52 46 46 53 47 47 52 48 47 51 47 46 
52 47 44 53 48 45 54 46 44 53 48 45 52 47 44 53 48 45 54 49 45 53 48 44 53 48 45 54 49 46 53 48 45 52 46 46 53 48 45 52 47 44 54 49 46 53 48 45 54 49 46 56 48 46 52 47 44 53 48 45 52 47 44 54 49 46 54 49 46 52 47 44 53 48 45 54 49 46 54 49 46 53 48 45 54 49 46 53 48 45 54 49 46 54 49 46 54 49 46 53 48 45 54 49 46 53 48 45 53 48 45 53 48 45 53 48 45 53 48 45 54 49 46 53 48 45 53 48 45 53 48 45 53 48 45 53 48 45 54 49 46 53 48 45 52 47 44 54 49 46 53 48 45 53 48 45 53 48 45 53 48 45 53 48 45 52 47 44 52 47 44 53 48 45 53 48 45 53 48 45 53 48 45 54 49 46 53 48 45 53 48 45 53 48 45 54 49 46 53 48 45 54 49 46 53 48 45 52 47 44 52 47 44 53 48 45 53 48 45 52 47 44 52 47 44 53 48 45 52 47 44 53 48 45 53 48 45 51 46 43 52 47 44 52 47 44 52 47 44 52 47 44 53 48 45 52 47 44 52 47 44 52 47 44 52 47 44 52 46 46 53 47 47 53 47 47 53 47 47 51 45 45 53 47 47 52 46 46 53 47 47 53 47 47 52 48 47 53 49 48 
55 47 45 56 48 46 53 48 45 55 47 45 52 47 44 54 49 46 54 49 46 52 47 44 52 47 44 53 47 47 53 47 47 53 48 45 53 48 45 53 48 45 53 48 45 53 48 45 53 48 45 55 47 45 54 49 46 52 47 44 53 48 45 53 48 45 54 49 46 54 49 46 52 47 44 54 49 46 52 47 44 53 48 45 53 48 45 54 49 46 53 48 45 54 49 46 54 49 46 54 49 46 54 49 46 54 49 46 54 49 46 54 49 46 54 49 46 53 48 45 54 49 46 53 48 45 53 48 45 53 48 45 54 48 48 54 48 48 53 47 47 53 47 47 53 47 47 54 48 48 53 47 47 54 48 48 53 48 45 53 48 45 54 49 46 53 48 45 54 49 46 54 49 46 54 49 46 54 49 46 54 49 46 53 48 45 53 48 45 53 48 45 54 49 46 53 48 45 53 48 45 53 48 45 52 47 44 52 47 44 51 46 43 52 47 44 52 47 44 52 47 44 52 47 44 52 47 44 51 46 43 53 48 45 52 47 44 51 46 43 52 47 44 53 48 45 52 47 44 52 47 44 53 48 45 52 47 44 53 48 45 53 48 45 53 48 45 54 49 46 52 47 44 53 47 47 51 45 45 52 46 46 52 46 46 53 47 47 53 47 47 53 47 47 51 47 46 53 49 48 
55 47 44 52 47 44 53 48 45 53 48 44 53 48 45 53 48 45 54 49 46 54 49 46 52 47 44 52 47 44 53 48 45 53 48 45 53 48 45 53 48 45 53 48 45 53 48 45 53 48 45 53 48 45 53 48 45 53 48 45 53 48 45 54 49 46 54 49 46 53 48 45 53 48 45 53 48 45 53 48 45 52 47 44 53 47 47 54 48 48 54 48 48 54 48 48 55 49 49 54 48 48 54 48 48 55 49 49 54 48 48 54 48 48 54 48 48 53 47 47 54 48 48 53 47 47 54 48 48 55 49 49 54 48 48 55 50 47 53 48 45 54 48 48 54 48 48 54 49 46 53 48 45 54 48 48 54 49 46 54 49 46 54 49 46 53 48 45 53 48 45 54 49 46 53 48 45 53 48 45 52 47 44 53 48 45 53 47 47 53 47 47 54 48 48 54 49 46 53 48 45 54 49 46 52 47 44 53 48 45 52 47 44 52 47 44 53 48 45 53 48 45 52 47 44 52 47 44 52 46 46 52 47 44 53 48 45 52 46 46 53 48 45 52 47 44 53 47 47 53 47 47 54 49 46 53 47 47 52 46 46 53 48 45 53 48 45 54 48 48 53 47 47 52 47 44 54 49 46 53 48 45 53 48 45 53 48 45 52 48 45 52 48 45 52 48 45 52 48 45 
53 48 42 54 49 46 56 48 46 53 48 45 53 48 45 53 48 45 54 49 46 53 48 45 52 47 44 53 48 45 53 48 45 53 48 45 54 49 46 54 49 46 54 49 46 54 49 46 54 49 46 54 49 46 53 48 45 53 48 45 53 48 45 53 48 45 54 49 46 54 49 46 53 48 45 53 48 45 53 48 45 53 48 45 54 48 48 52 46 46 53 47 47 54 48 48 53 47 47 52 46 46 54 48 48 53 47 47 54 48 48 53 47 47 54 48 48 54 48 48 53 47 47 54 48 48 54 48 48 54 48 48 54 48 48 54 49 46 54 49 46 54 48 48 55 49 49 53 48 45 53 48 45 53 47 47 53 48 45 53 47 47 53 48 45 54 49 46 54 49 46 54 49 46 55 49 49 54 49 46 53 48 45 53 48 45 53 47 47 53 47 47 52 46 46 54 49 46 53 48 45 53 48 45 52 47 44 52 47 44 52 47 44 52 47 44 53 48 45 53 48 45 51 46 43 53 48 45 52 47 44 53 48 45 53 47 47 53 47 47 52 47 44 54 49 46 54 48 48 53 47 47 54 49 46 52 46 46 52 46 46 52 47 44 53 48 45 52 46 46 52 46 46 52 47 44 53 48 45 52 47 44 52 47 44 53 48 45 52 48 45 52 48 45 52 48 45 53 49 46 
56 49 43 52 47 44 53 48 45 54 49 46 54 49 46 54 49 46 53 48 45 53 48 45 52 47 44 54 49 46 53 48 45 54 49 46 52 47 44 53 48 45 53 48 45 53 48 45 54 49 46 53 48 45 53 48 45 54 49 46 54 49 46 53 48 45 54 49 46 53 48 45 53 48 45 53 48 45 54 49 46 55 50 47 53 47 47 54 48 48 54 48 48 54 48 48 54 48 48 54 48 48 54 48 48 54 48 48 53 47 47 53 47 47 53 47 47 55 49 49 53 47 47 54 48 48 53 47 47 55 49 49 53 47 47 54 49 46 54 49 46 53 47 47 54 48 48 54 49 46 54 49 46 52 48 47 54 49 46 53 49 46 53 48 45 54 49 46 53 49 46 53 49 46 53 48 45 54 50 47 53 48 45 54 49 46 52 46 46 53 47 47 53 47 47 52 47 44 52 47 44 52 47 44 52 47 44 54 49 46 52 47 44 54 49 46 53 48 45 53 48 45 53 48 45 53 48 45 53 48 45 53 48 45 53 48 45 53 47 47 54 49 46 52 47 43 52 46 46 54 48 48 53 48 45 56 47 48 56 47 48 52 47 44 53 48 45 53 47 47 52 48 47 53 49 46 52 46 46 52 46 46 52 46 46 53 47 47 52 48 47 52 48 47 52 48 47 52 48 47 
56 48 45 54 49 46 53 48 45 53 48 45 53 48 45 54 49 46 54 49 46 53 48 45 54 49 46 53 48 45 54 49 46 53 48 45 55 50 47 53 48 45 53 48 45 53 48 45 55 50 47 55 50 47 54 49 46 54 49 46 54 49 46 53 48 45 53 48 45 54 49 46 53 48 45 53 48 45 56 51 48 53 48 45 53 47 47 55 49 49 54 48 48 54 48 48 54 48 48 54 48 48 53 47 47 53 47 47 54 48 48 55 49 49 54 48 48 53 47 47 55 49 49 54 48 48 54 48 48 54 48 48 53 47 47 54 49 46 53 48 45 54 48 48 54 48 48 54 49 46 52 48 45 53 49 48 52 48 45 54 49 46 53 49 48 53 49 46 54 49 46 55 49 49 53 49 46 55 50 47 54 48 48 54 48 48 53 49 46 52 48 45 53 48 45 53 48 45 53 48 45 53 48 45 53 48 45 53 48 45 52 47 44 54 49 46 54 49 46 52 47 44 52 47 44 53 48 45 53 48 45 54 49 46 53 48 45 53 48 45 53 48 45 53 48 45 53 47 47 52 46 46 51 47 44 51 47 46 51 45 45 52 47 44 53 48 45 53 47 47 53 47 47 52 47 44 52 46 46 53 47 47 52 46 46 53 47 47 51 47 46 52 48 47 52 48 47 54 50 49 
53 48 45 53 48 45 53 48 45 53 48 45 54 49 46 53 48 45 53 48 45 54 49 46 53 48 45 53 48 45 52 47 44 53 48 45 54 49 46 53 48 45 53 48 45 54 49 46 54 49 46 53 48 45 54 49 46 54 49 46 54 49 46 53 49 46 54 49 46 54 49 46 54 49 46 54 49 46 52 48 45 53 48 45 53 49 48 54 48 48 52 48 47 54 48 48 52 48 47 54 48 48 54 50 49 52 46 46 53 47 47 54 48 48 54 48 48 54 48 48 54 48 48 55 49 49 54 48 48 55 49 49 55 49 49 54 49 46 53 48 45 54 48 48 54 50 49 54 50 47 53 49 46 53 49 48 54 49 46 54 50 49 54 49 46 55 50 47 53 49 46 53 49 46 54 48 48 53 49 46 53 47 47 53 47 47 53 49 46 53 49 46 52 48 45 53 48 45 54 49 46 53 48 45 53 48 45 53 48 45 53 48 45 53 48 45 53 48 45 53 48 45 52 47 44 52 47 44 54 49 46 52 47 44 53 48 45 53 48 45 52 47 44 52 46 46 54 48 48 53 47 47 53 48 45 53 47 47 53 47 47 53 48 45 53 48 45 53 47 47 52 48 47 53 49 46 53 47 47 53 47 47 54 48 48 53 47 47 52 48 47 53 49 48 53 49 48 53 49 48 
54 49 46 54 49 46 53 48 45 54 49 46 54 49 46 53 48 45 55 50 47 54 49 46 54 49 46 55 50 47 53 48 45 53 48 45 53 48 45 53 48 45 53 48 45 54 49 46 54 49 46 53 48 45 54 49 46 54 49 46 54 49 46 52 48 45 55 50 47 53 48 45 55 50 47 54 49 46 53 49 46 54 49 46 53 49 48 54 48 48 53 49 48 54 48 48 53 49 48 55 49 49 53 49 48 53 47 47 53 47 47 54 48 48 54 48 48 55 49 49 54 48 48 54 48 48 54 48 48 55 49 49 54 48 48 54 49 46 55 50 47 53 49 48 54 50 49 55 51 48 54 50 47 52 48 47 52 48 45 54 49 46 53 49 46 53 49 46 54 49 46 55 50 47 54 50 47 56 51 48 53 47 47 52 48 47 53 49 46 53 49 46 53 49 46 54 49 46 53 48 45 55 50 47 54 49 46 52 47 44 53 48 45 53 48 45 54 49 46 53 48 45 52 47 44 53 48 45 53 48 45 53 48 45 52 47 44 52 47 44 51 46 43 53 47 47 53 48 45 52 46 46 53 48 45 53 47 47 53 47 47 54 49 46 54 49 46 53 47 47 52 46 46 52 48 45 52 46 46 54 48 48 54 48 48 53 47 47 52 48 47 53 49 48 52 48 47 52 48 47 
