P3
100 50
255
83 84 86 82 83 85 84 85 87 83 84 86 85 86 88 82 83 85 83 84 86 82 83 85 81 82 84 81 82 84 83 84 86 81 82 84 84 85 87 83 84 86 83 84 86 83 84 86 84 85 87 83 84 86 84 85 87 85 86 88 84 85 87 83 84 86 84 85 87 84 85 87 84 85 87 83 84 86 83 84 86 84 85 87 83 84 86 82 83 85 84 85 87 82 83 85 85 86 88 84 85 87 83 84 86 85 86 88 83 84 86 83 84 86 85 86 88 83 84 86 84 85 87 83 84 86 83 84 86 83 84 86 83 84 86 86 87 89 84 85 87 83 84 86 84 85 87 84 85 87 84 85 87 83 84 86 84 85 87 84 85 87 84 85 87 85 86 88 84 85 87 83 84 86 83 84 86 84 85 87 84 85 87 84 85 87 84 85 87 84 85 87 84 85 87 85 86 88 84 85 87 83 84 86 85 86 88 85 86 88 83 84 86 83 84 86 84 85 87 84 85 87 84 85 87 83 84 86 83 84 86 84 85 87 84 85 87 85 86 88 84 85 87 84 85 87 84 85 87 85 86 88 84 85 87 84 85 87 83 84 86 84 85 87 84 85 87 84 85 87 84 85 87 84 85 87 84 85 87 84 85 87 85 86 88 84 85 87 84 85 87 85 86 88 84 85 87 85 86 88 
84 85 87 85 86 88 84 85 87 83 84 86 84 85 87 84 85 87 83 84 86 83 84 86 82 83 85 82 83 85 82 83 85 84 85 87 83 84 86 83 84 86 82 83 85 82 83 85 83 84 86 81 82 84 84 85 87 83 84 86 84 85 87 82 83 85 82 83 85 83 84 86 82 83 85 84 85 87 83 84 86 84 85 87 83 84 86 83 84 86 83 84 86 84 85 87 85 86 88 85 86 88 84 85 87 83 84 86 84 85 87 85 86 88 85 86 88 84 85 87 84 85 87 83 84 86 84 85 87 83 84 86 84 85 87 84 85 87 84 85 87 83 84 86 84 85 87 83 84 86 82 83 85 83 84 86 84 85 87 84 85 87 84 85 87 84 85 87 84 85 87 84 85 87 83 84 86 83 84 86 84 85 87 84 85 87 85 86 88 86 87 89 85 86 88 84 85 87 84 85 87 83 84 86 84 85 87 85 86 88 84 85 87 83 84 86 84 85 87 84 85 87 84 85 87 84 85 87 83 84 86 84 85 87 84 85 87 84 85 87 84 85 87 84 85 87 84 85 87 84 85 87 83 84 86 84 85 87 84 85 87 84 85 87 84 85 87 84 85 87 86 87 89 85 86 88 85 86 88 85 86 88 85 86 88 85 86 88 84 85 87 84 85 87 85 86 88 85 86 88 
83 84 86 81 82 84 84 85 87 82 83 85 83 84 86 83 84 86 82 83 85 84 85 87 84 85 87 83 84 86 84 85 87 82 83 85 82 83 85 83 84 86 82 83 85 83 84 86 83 84 86 83 84 86 84 85 87 83 84 86 84 85 87 84 85 87 83 84 86 83 84 86 83 84 86 83 84 86 83 84 86 82 83 85 83 84 86 82 83 85 84 85 87 84 85 87 83 84 86 83 84 86 84 85 87 84 85 87 84 85 87 84 85 87 85 86 88 83 84 86 84 85 87 84 85 87 83 84 86 84 85 87 83 84 86 83 84 86 84 85 87 83 84 86 84 85 87 83 84 86 83 84 86 84 85 87 84 85 87 84 85 87 85 86 88 84 85 87 85 86 88 84 85 87 83 84 86 83 84 86 84 85 87 84 85 87 84 85 87 85 86 88 84 85 87 84 85 87 83 84 86 84 85 87 84 85 87 83 84 86 84 85 87 84 85 87 83 84 86 84 85 87 84 85 87 84 85 87 84 85 87 84 85 87 84 85 87 84 85 87 84 85 87 83 84 86 84 85 87 85 86 88 84 85 87 84 85 87 84 85 87 85 86 88 85 86 88 85 86 88 85 86 88 84 85 87 85 86 88 85 86 88 85 86 88 84 85 87 84 85 87 84 85 87 85 86 88 86 87 89 
82 83 85 81 82 84 83 84 86 82 83 85 83 84 86 82 83 85 83 84 86 83 84 86 83 84 86 83 84 86 83 84 86 82 83 85 82 83 85 83 84 86 81 82 84 83 84 86 84 85 87 82 83 85 83 84 86 83 84 86 83 84 86 83 84 86 82 83 85 83 84 86 83 84 86 83 84 86 84 85 87 83 84 86 84 85 87 83 84 86 84 85 87 83 84 86 84 85 87 83 84 86 84 85 87 84 85 87 83 84 86 83 84 86 84 85 87 84 85 87 83 84 86 84 85 87 85 86 88 84 85 87 84 85 87 84 85 87 82 83 85 83 84 86 84 85 87 83 84 86 84 85 87 84 85 87 83 84 86 83 84 86 84 85 87 82 83 85 83 84 86 84 85 87 83 84 86 83 84 86 83 84 86 84 85 87 84 85 87 84 85 87 84 85 87 83 84 86 83 84 86 82 83 85 84 85 87 84 85 87 83 84 86 84 85 87 83 84 86 84 85 87 84 85 87 84 85 87 83 84 86 83 84 86 84 85 87 84 85 87 84 85 87 83 84 86 85 86 88 84 85 87 84 85 87 84 85 87 84 85 87 85 86 88 84 85 87 85 86 88 85 86 88 84 85 87 84 85 87 84 85 87 85 86 88 84 85 87 84 85 87 84 85 87 84 85 87 85 86 88 
83 84 86 82 83 85 83 84 86 82 83 85 82 83 85 84 85 87 83 84 86 85 86 88 84 85 87 83 84 86 82 83 85 83 84 86 82 83 85 84 85 87 81 82 84 83 84 86 82 83 85 84 85 87 83 84 86 81 82 84 82 83 85 82 83 85 83 84 86 83 84 86 83 84 86 84 85 87 84 85 87 83 84 86 84 85 87 83 84 86 83 84 86 82 83 85 84 85 87 84 85 87 84 85 87 83 84 86 83 84 86 83 84 86 83 84 86 83 84 86 84 85 87 83 84 86 83 84 86 84 85 87 83 84 86 83 84 86 83 84 86 82 83 85 85 86 88 83 84 86 84 85 87 84 85 87 84 85 87 84 85 87 83 84 86 83 84 86 83 84 86 84 85 87 85 86 88 84 85 87 85 86 88 85 86 88 83 84 86 84 85 87 84 85 87 84 85 87 83 84 86 84 85 87 84 85 87 83 84 86 83 84 86 83 84 86 84 85 87 84 85 87 84 85 87 84 85 87 84 85 87 84 85 87 84 85 87 84 85 87 83 84 86 85 86 88 85 86 88 86 87 89 85 86 88 85 86 88 85 86 88 84 85 87 84 85 87 84 85 87 84 85 87 83 84 86 84 85 87 84 85 87 85 86 88 84 85 87 84 85 87 85 86 88 84 85 87 84 85 87 
84 85 87 81 82 84 83 84 86 81 82 84 83 84 86 82 83 85 83 84 86 84 85 87 83 84 86 83 84 86 84 85 87 83 84 86 83 84 86 84 85 87 84 85 87 84 85 87 83 84 86 82 83 85 83 84 86 83 84 86 84 85 87 84 85 87 83 84 86 83 84 86 82 83 85 83 84 86 84 85 87 83 84 86 84 85 87 83 84 86 83 84 86 83 84 86 83 84 86 84 85 87 84 85 87 83 84 86 83 84 86 84 85 87 84 85 87 84 85 87 84 85 87 82 83 85 83 84 86 84 85 87 83 84 86 83 84 86 83 84 86 83 84 86 83 84 86 82 83 85 83 84 86 84 85 87 84 85 87 85 86 88 84 85 87 84 85 87 83 84 86 84 85 87 84 85 87 83 84 86 83 84 86 84 85 87 83 84 86 83 84 86 85 86 88 84 85 87 83 84 86 84 85 87 84 85 87 84 85 87 84 85 87 83 84 86 83 84 86 84 85 87 83 84 86 84 85 87 84 85 87 85 86 88 84 85 87 83 84 86 84 85 87 84 85 87 84 85 87 84 85 87 84 85 87 84 85 87 84 85 87 84 85 87 83 84 86 83 84 86 84 85 87 83 84 86 85 86 88 85 86 88 84 85 87 83 84 86 84 85 87 84 85 87 84 85 87 84 85 87 
83 84 86 82 83 85 82 83 85 83 84 86 82 83 85 83 84 86 82 83 85 82 83 85 81 82 84 82 83 85 84 85 87 84 85 87 84 85 87 84 85 87 82 83 85 83 84 86 83 84 86 83 84 86 83 84 86 83 84 86 82 83 85 83 84 86 82 83 85 82 83 85 83 84 86 83 84 86 84 85 87 84 85 87 83 84 86 83 84 86 83 84 86 84 85 87 84 85 87 84 85 87 85 86 88 84 85 87 84 85 87 84 85 87 83 84 86 84 85 87 84 85 87 83 84 86 83 84 86 84 85 87 84 85 87 83 84 86 85 86 88 84 85 87 83 84 86 83 84 86 83 84 86 84 85 87 83 84 86 84 85 87 84 85 87 84 85 87 83 84 86 83 84 86 84 85 87 84 85 87 82 83 85 84 85 87 83 84 86 84 85 87 84 85 87 84 85 87 84 85 87 83 84 86 83 84 86 85 86 88 84 85 87 84 85 87 84 85 87 83 84 86 85 86 88 84 85 87 84 85 87 83 84 86 85 86 88 83 84 86 84 85 87 84 85 87 84 85 87 85 86 88 84 85 87 85 86 88 84 85 87 83 84 86 84 85 87 84 85 87 85 86 88 84 85 87 85 86 88 85 86 88 84 85 87 83 84 86 84 85 87 84 85 87 84 85 87 85 86 88 
81 82 84 82 83 85 82 83 85 83 84 86 82 83 85 82 83 85 82 83 85 82 83 85 83 84 86 83 84 86 83 84 86 82 83 85 84 85 87 83 84 86 83 84 86 83 84 86 83 84 86 83 84 86 84 85 87 84 85 87 83 84 86 82 83 85 81 82 84 82 83 85 84 85 87 83 84 86 83 84 86 83 84 86 83 84 86 83 84 86 83 84 86 84 85 87 84 85 87 84 85 87 83 84 86 82 83 85 83 84 86 83 84 86 84 85 87 84 85 87 82 83 85 84 85 87 83 84 86 84 85 87 84 85 87 84 85 87 84 85 87 84 85 87 83 84 86 83 84 86 83 84 86 84 85 87 83 84 86 83 84 86 84 85 87 84 85 87 85 86 88 84 85 87 84 85 87 84 85 87 83 84 86 84 85 87 83 84 86 84 85 87 84 85 87 84 85 87 83 84 86 83 84 86 83 84 86 83 84 86 84 85 87 84 85 87 84 85 87 83 84 86 84 85 87 84 85 87 83 84 86 84 85 87 85 86 88 84 85 87 84 85 87 84 85 87 84 85 87 85 86 88 84 85 87 86 87 89 84 85 87 83 84 86 84 85 87 84 85 87 84 85 87 84 85 87 85 86 88 84 85 87 84 85 87 83 84 86 83 84 86 84 85 87 84 85 87 84 85 87 
82 83 85 83 85 84 82 83 87 83 84 86 82 83 85 83 84 86 83 84 86 82 83 85 83 84 88 82 83 87 81 82 84 83 84 86 82 83 85 82 83 85 83 84 86 83 84 86 83 84 86 83 84 86 82 83 85 82 83 85 82 83 85 82 83 85 83 84 86 83 84 86 83 84 86 83 84 86 82 83 85 83 84 86 83 84 86 83 84 86 83 84 86 84 85 87 84 85 87 84 85 87 84 85 87 83 84 86 84 85 87 83 84 86 82 83 85 83 84 86 84 85 89 84 85 87 84 85 87 83 84 86 83 84 86 84 85 87 84 85 87 84 85 89 82 83 85 84 85 87 82 83 85 82 83 85 83 84 86 82 83 85 83 84 86 84 85 87 83 84 86 83 84 86 83 84 86 84 85 87 84 85 87 84 85 87 84 85 87 84 85 87 83 84 86 84 85 87 83 84 86 82 83 85 83 84 86 84 85 87 83 84 86 83 84 86 83 84 86 83 84 86 83 84 86 83 84 86 85 86 88 83 84 86 84 85 87 84 85 87 83 84 86 83 84 86 84 85 87 82 83 85 84 85 87 84 85 87 84 85 87 83 84 86 84 85 87 83 84 86 84 85 87 85 86 88 85 86 88 84 85 87 84 85 87 84 85 87 84 85 87 84 85 87 84 85 87 84 85 87 
82 83 85 81 82 84 82 83 85 81 82 84 83 84 86 82 83 85 83 84 88 82 83 85 83 84 86 83 84 86 84 85 87 84 86 85 84 85 87 83 84 86 83 84 86 83 84 86 83 84 86 83 84 86 82 83 85 83 84 86 84 85 87 84 85 87 85 86 88 83 84 86 83 84 86 83 84 86 83 84 86 82 83 85 82 83 85 83 84 86 82 83 85 83 84 86 83 84 86 83 84 86 84 85 87 84 85 87 83 84 86 84 85 87 83 84 86 82 83 85 83 84 88 84 85 87 85 86 88 84 85 87 83 84 86 83 84 86 83 84 86 82 83 87 83 84 86 84 85 87 83 84 86 84 85 87 84 85 87 84 85 87 83 84 86 84 85 87 83 84 86 84 85 87 83 84 86 83 84 86 84 85 87 84 85 87 84 85 87 84 85 87 84 85 87 83 84 86 86 87 89 83 84 86 84 85 87 84 85 87 83 84 86 83 84 86 83 84 86 84 85 87 85 86 88 84 85 87 83 84 86 82 83 85 83 84 86 83 84 86 83 84 86 84 85 87 84 85 87 82 83 85 84 85 87 84 85 87 84 85 87 84 85 87 85 86 88 84 85 87 84 85 87 83 84 86 83 84 86 84 85 87 84 85 87 84 85 87 84 85 87 85 86 88 84 85 87 83 84 86 
83 84 86 82 83 87 82 83 85 83 84 86 83 84 88 84 85 87 84 85 87 84 85 87 83 84 88 83 84 88 84 85 89 84 85 89 84 85 87 83 84 89 83 84 88 83 84 88 83 84 86 83 84 86 83 84 86 82 83 85 83 84 86 84 85 87 83 84 86 82 83 85 83 84 86 84 85 87 84 85 87 84 85 87 83 84 86 83 84 86 83 84 86 84 85 87 83 84 86 84 85 87 83 84 86 84 85 87 84 85 87 84 85 87 83 84 86 82 83 85 82 83 87 82 83 85 84 85 87 83 84 86 85 86 88 83 84 86 83 84 86 83 84 88 83 84 86 82 83 85 84 85 87 84 85 87 84 85 87 83 84 86 83 84 86 85 86 88 83 84 86 83 84 86 85 86 88 85 86 88 85 86 88 84 85 87 83 84 86 84 85 87 83 84 86 84 85 87 84 85 87 84 85 87 84 85 87 83 84 86 83 84 86 83 84 86 84 85 87 83 84 86 84 85 87 84 85 87 83 84 86 84 85 87 82 83 85 83 84 86 83 84 86 84 85 87 83 84 86 84 85 87 83 84 86 84 85 87 83 84 86 83 84 86 84 85 87 84 85 87 83 84 86 83 84 86 82 83 85 83 84 86 84 85 87 83 84 86 83 84 86 83 84 86 83 84 86 84 85 87 
83 84 88 83 84 86 83 84 88 82 83 87 82 83 85 84 85 87 82 83 87 83 84 86 83 84 86 84 85 87 83 84 86 82 83 87 84 85 87 82 83 87 84 85 89 83 84 88 84 85 89 82 83 87 84 85 89 83 84 88 83 84 86 84 85 87 83 84 86 83 84 86 83 84 86 82 83 85 84 85 87 83 84 86 83 84 86 82 83 85 82 83 85 82 83 85 83 84 86 84 85 87 83 84 86 83 84 86 83 84 86 83 84 86 83 84 86 83 84 86 82 83 87 82 83 85 82 83 85 83 84 86 84 85 87 83 84 86 82 83 85 83 84 88 84 85 87 84 85 87 83 84 86 84 85 87 84 85 87 84 85 87 84 85 87 84 85 87 84 85 87 85 86 88 84 85 87 84 85 87 84 85 87 84 85 87 84 85 87 83 84 86 84 85 87 84 85 87 84 85 87 84 85 87 84 85 87 83 84 86 83 84 86 83 84 86 83 84 86 82 83 85 85 86 88 84 85 87 85 86 88 84 85 87 83 84 86 83 84 86 83 84 86 84 85 87 83 84 86 84 85 87 83 84 86 84 85 87 84 85 87 84 85 87 84 85 87 84 85 87 83 84 86 82 83 85 84 85 87 84 85 87 83 84 86 84 85 87 85 86 88 84 85 87 84 85 87 84 85 87 
83 84 88 84 85 87 83 84 88 82 83 87 83 84 88 82 83 87 84 85 90 83 84 88 83 84 86 82 83 85 82 83 85 83 84 86 82 83 85 83 84 86 83 84 86 83 84 86 83 84 88 84 85 89 83 84 88 83 84 88 83 84 86 83 84 86 83 84 86 83 84 86 83 84 86 83 84 86 83 84 86 83 84 86 84 85 87 84 85 87 83 84 86 85 86 88 83 84 86 84 85 87 85 86 88 84 85 87 84 85 87 81 82 84 82 83 85 84 85 87 83 84 86 83 84 86 82 83 85 85 86 88 83 84 86 83 84 86 83 84 86 84 85 87 83 84 86 82 83 85 84 85 87 84 85 87 83 84 86 83 84 86 84 85 87 83 84 86 85 86 88 83 84 86 83 84 86 84 85 87 83 84 86 83 84 86 84 85 87 84 85 87 83 84 86 83 84 86 84 85 87 85 86 88 83 84 86 83 84 86 84 85 87 84 85 87 84 85 87 84 85 87 84 85 87 85 86 88 83 84 86 84 85 87 82 83 85 82 83 85 84 85 87 84 85 87 84 85 87 84 85 87 84 85 87 84 85 87 85 86 88 83 84 86 83 84 86 82 83 85 83 84 86 83 84 86 83 84 86 84 85 87 84 85 87 83 84 86 83 84 86 84 85 87 84 85 87 84 85 87 
83 84 86 82 83 87 81 82 84 82 83 85 82 83 87 83 84 88 82 83 85 82 83 87 82 83 85 82 83 85 82 83 85 82 83 87 82 83 85 82 83 87 82 83 87 83 84 86 82 83 85 81 82 84 80 81 83 82 83 85 83 84 86 83 84 86 83 84 86 82 83 85 82 83 85 82 83 85 82 83 85 82 83 85 83 84 86 82 83 85 83 84 86 83 84 86 84 85 87 83 84 86 85 86 88 83 84 86 83 84 86 83 84 86 82 83 85 82 83 85 84 85 87 83 84 86 84 85 87 83 84 86 83 84 86 83 84 86 83 84 86 84 85 87 83 84 86 83 84 86 83 84 86 84 85 87 84 85 87 82 83 85 83 84 86 83 84 86 84 85 87 84 85 87 84 85 87 84 85 87 83 84 86 83 84 86 84 85 87 83 84 86 83 84 86 83 84 86 83 84 86 84 85 87 83 84 86 83 84 86 83 84 86 83 84 86 84 85 87 83 84 86 85 86 88 84 85 87 85 86 88 83 84 86 83 84 86 83 84 86 83 84 86 82 83 85 83 84 86 83 84 86 83 84 86 83 84 86 84 85 87 82 83 85 82 83 85 84 85 87 83 84 86 83 84 86 83 84 86 83 84 86 83 84 86 84 85 87 84 85 87 82 83 85 84 85 87 84 85 87 
82 83 87 83 84 86 83 84 88 83 84 88 82 83 85 83 84 86 83 84 88 83 84 86 82 83 85 84 85 89 82 83 85 82 83 87 82 83 85 81 82 86 83 84 86 82 83 85 82 83 85 82 83 85 83 84 86 82 83 85 82 83 85 83 84 86 83 84 86 83 84 86 82 83 85 83 84 86 83 84 86 83 84 86 82 83 85 84 85 87 85 86 88 83 84 86 83 84 86 84 85 87 83 84 86 84 85 87 84 85 87 82 83 85 83 84 86 83 84 86 83 84 86 83 84 86 83 84 86 83 84 86 84 85 87 83 84 86 84 85 87 84 85 87 83 84 86 83 84 86 84 85 87 83 84 86 83 84 86 83 84 86 85 86 88 83 84 86 83 84 86 84 85 87 83 84 86 83 84 86 84 85 87 83 84 86 82 83 85 83 84 86 84 85 87 82 83 85 84 85 87 83 84 86 84 85 87 84 85 87 83 84 86 84 85 87 85 86 88 84 85 87 83 84 86 83 84 86 85 86 88 83 84 86 83 84 86 83 84 86 84 85 87 83 84 86 83 84 86 83 84 86 84 85 87 83 84 86 83 84 86 84 85 87 83 84 86 83 84 86 83 84 86 83 84 86 84 85 87 84 85 87 83 84 86 84 85 87 83 84 86 84 85 87 83 84 86 83 84 86 
83 84 86 82 83 85 83 84 86 82 83 85 83 84 86 83 84 86 83 84 86 82 83 85 83 84 88 82 83 87 82 83 87 81 82 84 84 85 90 81 82 86 81 82 86 82 83 85 82 83 85 82 83 85 81 82 84 81 82 84 82 83 85 83 84 86 84 85 87 83 84 86 83 84 86 83 84 86 82 83 85 83 84 86 81 82 84 81 82 84 83 84 86 83 84 86 84 85 87 85 86 88 83 84 86 83 84 86 82 83 85 83 84 86 83 84 86 84 85 87 83 84 86 82 83 85 84 85 87 84 85 87 84 85 87 82 83 85 82 83 85 82 83 85 83 84 86 84 85 87 84 85 87 83 84 86 83 84 86 83 84 86 84 85 87 83 84 86 83 84 86 83 84 86 84 85 87 84 85 87 84 85 87 84 85 87 83 84 86 83 84 86 84 85 87 84 85 87 83 84 86 84 85 87 83 84 86 84 85 87 83 84 86 84 85 87 83 84 86 83 84 86 84 85 87 83 84 86 83 84 86 83 84 86 83 84 86 83 84 86 83 84 86 83 84 86 82 83 85 84 85 87 82 83 85 84 85 87 82 83 85 84 85 87 84 85 87 84 85 87 83 84 86 83 84 86 84 85 87 84 85 87 84 85 87 84 85 87 83 84 86 84 85 87 84 85 87 83 84 86 
83 84 86 82 83 85 83 84 88 82 83 87 83 84 88 81 82 86 83 84 86 83 84 86 83 84 88 82 83 87 82 83 85 82 83 85 83 84 86 82 83 85 82 83 87 82 83 87 81 82 84 81 82 86 82 83 85 82 83 87 81 82 84 83 84 86 83 84 86 82 83 85 83 84 86 83 84 86 82 83 85 83 84 86 83 84 86 81 82 84 83 84 86 83 84 86 83 84 86 84 85 87 84 85 87 83 84 86 83 84 86 84 85 87 82 83 85 82 83 85 84 85 87 82 83 85 84 85 87 84 85 87 83 84 86 83 84 86 84 85 87 83 84 86 82 83 85 82 83 85 83 84 86 83 84 86 82 83 85 84 85 87 84 85 87 85 86 88 84 85 87 84 85 87 84 85 87 84 85 87 83 84 86 83 84 86 84 85 87 83 84 86 84 85 87 83 84 86 84 85 87 83 84 86 83 84 86 84 85 87 84 85 87 83 84 86 83 84 86 83 84 86 83 84 86 83 84 86 82 83 85 84 85 87 83 84 86 83 84 86 84 85 87 83 84 86 83 84 86 83 84 86 83 84 86 83 84 86 84 85 87 83 84 86 83 84 86 84 85 87 83 84 86 83 84 86 83 84 86 84 85 87 83 84 86 84 85 87 83 84 86 84 85 87 83 84 86 82 83 85 
82 83 87 82 83 87 82 83 85 83 84 86 82 83 85 82 83 85 82 83 87 82 83 87 83 84 86 83 84 86 82 83 87 81 82 86 82 83 87 82 83 87 82 83 85 83 84 86 81 82 84 83 84 88 82 83 85 83 84 88 81 82 84 82 83 85 82 83 85 83 84 86 82 83 85 83 84 86 83 84 86 83 84 86 83 84 86 83 84 86 81 82 84 84 85 87 82 83 85 83 84 86 84 85 87 83 84 86 82 83 85 83 84 86 83 84 86 83 84 86 82 83 85 83 84 86 84 85 87 83 84 86 82 83 85 84 85 87 83 84 86 83 84 86 83 84 86 83 84 86 82 83 85 84 85 87 84 85 87 84 85 87 84 85 87 84 85 87 83 84 86 83 84 86 84 85 87 83 84 86 84 85 87 83 84 86 84 85 87 84 85 87 84 85 87 84 85 87 84 85 87 83 84 86 84 85 87 84 85 87 84 85 87 83 84 86 84 85 87 82 83 85 82 83 85 84 85 87 83 84 86 82 83 85 84 85 87 84 85 87 84 85 87 83 84 86 82 83 85 83 84 86 82 83 85 83 84 86 84 85 87 83 84 86 83 84 86 84 85 87 84 85 87 83 84 86 83 84 86 84 85 87 84 85 87 83 84 86 82 83 85 84 85 87 83 84 86 83 84 86 
82 83 85 82 83 85 83 84 88 82 83 87 82 83 87 81 82 86 82 83 85 83 84 86 82 83 87 83 84 88 82 83 85 83 84 86 83 84 86 82 83 85 82 83 87 82 83 87 82 83 85 83 84 88 83 84 86 82 83 87 83 84 86 82 83 85 83 84 86 84 85 87 83 84 86 82 83 85 83 84 86 82 83 85 83 84 86 82 83 85 84 85 87 83 84 86 82 84 83 83 84 88 84 85 89 83 84 86 83 85 84 83 84 86 82 83 85 81 82 84 82 83 85 84 85 87 83 84 86 83 84 86 83 84 86 84 85 87 82 83 85 83 84 86 83 84 86 83 84 86 83 84 86 83 84 86 82 83 85 84 85 87 84 85 87 85 86 88 85 86 88 84 85 87 83 84 86 84 85 87 84 85 87 84 85 87 84 85 87 83 84 86 83 84 86 82 83 85 82 83 85 82 83 85 84 85 87 84 85 87 82 83 85 83 84 86 84 85 87 84 85 87 83 84 86 84 85 87 83 84 86 84 85 87 84 85 87 84 85 87 84 85 87 83 84 86 82 83 85 83 84 86 83 84 86 82 83 85 84 85 87 83 84 86 84 85 87 83 84 86 82 83 85 82 83 85 83 84 86 84 85 87 84 85 87 85 86 88 83 84 86 83 84 86 82 83 85 83 84 86 
82 83 85 82 83 85 82 83 87 82 83 87 82 83 87 82 83 87 82 83 85 82 83 85 82 83 85 80 81 83 81 82 86 81 82 86 80 81 85 81 82 86 81 82 84 81 82 84 82 83 85 82 83 87 82 83 85 82 83 87 83 84 86 82 83 85 82 83 85 83 84 86 82 83 85 82 83 85 82 83 85 82 83 85 82 83 85 82 83 85 83 84 86 83 84 86 84 85 87 84 85 87 82 83 85 84 85 87 81 82 84 83 84 86 82 83 85 83 84 86 82 83 85 82 83 85 82 83 85 83 84 86 83 84 86 83 84 86 83 84 86 83 84 86 83 84 86 83 84 86 83 84 86 84 85 87 84 85 87 83 84 86 83 84 86 84 85 87 83 84 86 84 85 87 83 84 86 84 85 87 83 84 86 84 85 87 84 85 87 84 85 87 83 84 86 83 84 86 83 84 86 83 84 86 83 84 86 84 85 87 85 86 88 84 85 87 84 85 87 83 84 86 83 84 86 83 84 86 82 83 85 84 85 87 84 85 87 84 85 87 84 85 87 83 84 86 83 84 86 83 84 86 83 84 86 84 85 87 83 84 86 83 84 86 83 84 86 83 84 86 83 84 86 83 84 86 81 82 84 82 83 85 84 85 87 83 84 86 82 83 85 83 84 86 83 84 86 83 84 86 
81 82 86 82 83 87 81 82 84 82 83 85 81 82 84 82 83 85 81 82 86 81 82 86 81 82 86 81 82 86 82 83 85 82 83 85 82 83 85 81 82 84 81 82 86 82 83 87 82 83 85 82 83 87 83 84 86 83 84 88 82 83 85 83 84 86 82 83 85 82 83 85 82 83 85 82 83 85 83 84 86 82 83 85 83 84 86 82 83 85 82 83 85 83 84 86 83 84 86 84 85 87 82 83 85 83 84 88 82 83 85 82 84 83 81 83 82 82 83 87 83 84 86 82 83 85 83 84 86 84 85 87 82 83 85 83 84 86 83 84 86 84 85 87 83 84 86 83 84 86 84 85 87 84 85 87 84 85 87 82 83 85 83 84 86 83 84 86 84 85 87 84 85 87 84 85 87 84 85 87 84 85 87 83 84 86 83 84 86 84 85 87 83 84 86 84 85 87 83 84 86 83 84 86 83 84 86 84 85 87 83 84 86 84 85 87 83 84 86 83 84 86 84 85 87 83 84 86 83 84 86 83 84 86 84 85 87 83 84 86 84 85 87 83 84 86 83 84 86 84 85 87 84 85 87 83 84 86 83 84 86 83 84 86 82 83 85 82 83 85 84 85 87 82 83 85 83 84 86 83 84 86 83 84 86 84 85 87 84 85 87 83 84 86 83 84 86 83 84 86 
81 82 86 82 83 87 82 83 85 82 83 85 82 83 85 82 83 85 82 83 87 83 84 88 81 82 84 82 83 85 81 82 86 81 82 86 82 83 87 81 82 86 82 83 85 83 84 86 82 83 85 82 83 87 82 83 85 83 84 88 83 84 86 82 83 85 83 84 86 80 81 83 83 84 86 83 84 86 82 83 85 83 84 86 82 83 85 83 84 86 82 83 85 83 84 86 83 84 86 84 85 87 84 85 87 83 84 86 82 83 85 82 83 85 82 83 85 82 83 85 83 84 86 82 83 85 84 85 87 83 84 86 84 85 87 82 83 85 83 84 86 83 84 86 83 84 86 82 83 85 83 84 86 82 83 85 83 84 86 82 83 85 83 84 86 84 85 87 83 84 86 83 84 86 83 84 86 83 84 86 83 84 86 83 84 86 83 84 86 83 84 86 83 84 86 84 85 87 83 84 86 84 85 87 83 84 86 84 85 87 84 85 87 83 84 86 84 85 87 83 84 86 83 84 86 83 84 86 83 84 86 83 84 86 83 84 86 84 85 87 84 85 87 83 84 86 83 84 86 83 84 86 83 84 86 83 84 86 83 84 86 83 84 86 84 85 87 83 84 86 84 85 87 83 84 86 83 84 86 84 85 87 85 86 88 83 84 86 83 84 86 83 84 86 84 85 87 83 84 86 
81 82 84 82 83 85 81 82 86 81 82 86 80 81 85 81 82 86 80 81 83 81 82 84 80 81 85 81 82 86 82 83 85 82 83 85 82 83 85 82 83 85 81 82 86 82 83 87 82 83 85 82 83 87 83 84 86 83 84 88 83 84 86 82 83 85 82 83 85 82 83 85 83 84 86 82 83 85 83 84 86 82 83 85 82 83 85 82 83 85 82 83 85 84 85 87 82 83 85 82 83 85 83 84 86 82 83 85 83 84 86 83 84 86 82 83 85 82 83 85 82 83 85 83 84 86 83 84 86 83 84 86 84 85 87 84 85 87 83 84 86 83 84 86 83 84 86 83 84 86 83 84 86 83 84 86 84 85 87 83 84 86 83 84 86 82 83 85 82 83 85 83 84 86 82 83 85 84 85 87 84 85 87 83 84 86 83 84 86 85 86 88 84 85 87 84 85 87 83 84 86 84 85 87 84 85 87 85 86 88 84 85 87 83 84 86 83 84 86 82 83 85 83 84 86 83 84 86 83 84 86 84 85 87 83 84 86 83 84 86 84 85 87 84 85 87 83 84 86 83 84 86 84 85 87 83 84 86 83 84 86 83 84 86 84 85 87 84 85 87 84 85 87 84 85 87 84 85 87 84 85 87 83 84 86 84 85 87 84 85 87 83 84 86 84 85 87 84 85 87 
81 82 86 82 83 87 81 82 84 82 83 85 80 81 83 82 83 85 81 82 86 82 83 87 82 83 85 82 83 85 81 82 86 82 83 87 82 83 87 82 83 87 81 82 84 82 83 85 83 84 86 82 83 87 82 83 85 82 83 87 83 84 86 82 83 85 81 82 84 82 83 85 84 85 87 84 85 87 82 83 85 84 85 87 83 84 86 84 85 87 83 84 86 84 85 87 83 84 86 83 84 86 83 84 86 84 85 87 82 83 85 84 85 87 82 83 85 83 84 86 83 84 86 82 83 85 84 85 87 83 84 86 82 83 85 82 83 85 83 84 86 83 84 86 82 83 85 83 84 86 83 84 86 83 84 86 83 84 86 83 84 86 82 83 85 83 84 86 83 84 86 83 84 86 82 83 85 84 85 87 83 84 86 85 86 88 84 85 87 85 86 88 84 85 87 85 86 88 84 85 87 84 85 87 83 84 86 82 83 85 83 84 86 83 84 86 82 83 85 84 85 87 84 85 87 83 84 86 84 85 87 83 84 86 84 85 87 83 84 86 84 85 87 84 85 87 84 85 87 84 85 87 84 85 87 84 85 87 83 84 86 83 84 86 83 84 86 84 85 87 85 86 88 84 85 87 84 85 87 84 85 87 83 84 86 82 83 85 83 84 86 83 84 86 84 85 87 85 86 88 
81 82 84 81 82 86 81 82 86 81 82 84 79 80 82 80 81 85 81 82 86 81 82 84 80 81 83 81 82 84 80 81 83 81 82 84 81 82 84 81 82 84 82 83 85 81 82 84 81 82 86 81 82 86 81 82 86 81 82 84 82 83 85 81 82 84 81 82 84 82 83 85 81 82 84 82 84 83 83 84 86 82 83 85 83 84 86 83 84 86 82 83 87 83 84 86 81 82 84 81 82 84 83 84 86 84 85 87 83 84 86 83 84 86 83 84 86 82 83 85 83 84 86 82 83 85 83 84 86 83 84 86 84 85 87 83 84 86 83 84 86 83 84 86 83 84 86 83 84 86 84 85 87 83 84 86 84 85 87 83 84 86 83 84 86 83 84 86 82 83 85 83 84 86 83 84 86 83 84 86 84 85 87 84 85 87 82 83 85 83 84 86 83 84 86 83 84 86 83 84 86 83 84 86 83 84 86 84 85 87 83 84 86 83 84 86 84 85 87 83 84 86 84 85 87 84 85 87 83 84 86 83 84 86 84 85 87 83 84 86 83 84 86 84 85 87 84 85 87 84 85 87 84 85 87 84 85 87 84 85 87 83 84 86 84 85 87 85 85 87 84 85 87 84 85 87 83 84 86 82 83 85 84 84 86 84 85 87 83 84 86 83 84 86 85 86 88 84 85 87 
81 82 86 80 81 83 81 82 84 81 82 86 80 81 85 80 81 83 81 82 84 79 80 84 81 82 84 81 82 84 80 81 83 81 82 84 81 82 84 81 82 84 81 82 84 82 83 85 81 82 86 82 83 87 81 82 86 81 82 84 81 82 84 81 82 84 80 81 83 82 83 85 81 82 84 82 83 85 81 82 84 83 84 86 82 83 85 83 84 86 82 83 85 83 84 88 83 84 86 83 84 86 83 84 86 83 84 86 82 83 85 82 83 85 82 83 85 82 83 85 82 83 85 83 84 86 83 84 86 83 84 86 83 84 86 83 84 86 83 84 86 83 84 86 83 84 86 84 85 87 82 83 85 82 83 85 83 84 86 83 84 86 83 84 86 82 83 85 82 83 85 82 83 85 83 84 86 83 84 86 84 85 87 84 85 87 83 84 86 83 84 86 83 84 86 83 84 86 84 85 87 83 84 86 84 85 87 83 84 86 84 85 87 84 85 87 84 85 87 84 85 87 84 85 87 84 85 87 83 84 86 84 85 87 84 85 87 85 86 88 83 84 86 84 85 87 84 85 87 83 84 86 84 85 87 83 84 86 83 84 86 83 84 86 84 85 87 85 85 87 83 84 86 83 84 86 83 84 86 84 85 87 84 84 86 84 85 87 83 84 86 83 84 86 83 84 86 85 85 87 
80 81 85 81 82 84 81 82 84 80 81 85 80 81 85 80 81 83 81 82 84 80 81 85 79 80 82 79 80 82 80 81 83 81 82 84 79 80 82 80 81 83 81 82 84 81 82 84 81 82 84 81 82 84 81 82 84 80 81 83 81 82 84 81 82 84 81 82 84 81 82 84 80 81 83 81 82 84 83 84 86 82 83 85 81 82 86 82 83 85 81 82 84 81 82 84 83 84 86 82 83 85 82 83 85 82 83 85 82 83 85 81 82 84 82 83 85 82 83 85 81 82 84 83 84 86 83 84 86 82 83 85 84 85 87 83 84 86 83 84 86 83 84 86 83 84 86 83 84 86 84 85 87 82 83 85 84 85 87 84 85 87 83 84 86 83 84 86 83 84 86 82 83 85 82 83 85 84 85 87 83 84 86 83 84 86 84 85 87 82 83 85 84 85 87 83 84 86 83 84 86 83 84 86 83 84 86 83 84 86 83 84 86 83 84 86 84 85 87 83 84 86 84 85 87 83 84 86 83 84 86 84 85 87 84 85 87 83 84 86 84 85 87 84 85 87 83 84 86 83 84 86 83 84 86 83 84 86 83 84 86 83 84 86 83 84 86 83 84 86 83 84 86 84 85 87 83 84 86 83 84 86 83 84 86 84 85 87 82 83 85 84 85 87 85 85 87 83 84 86 
80 81 85 80 81 83 81 82 84 80 81 85 80 81 85 79 80 82 80 81 83 80 81 85 79 80 82 81 82 84 80 81 83 80 81 83 80 81 83 80 81 83 80 81 83 80 81 83 81 82 84 80 81 83 80 81 83 81 82 84 81 82 84 81 82 84 80 81 83 81 82 84 81 82 84 83 84 86 82 83 87 82 83 85 82 83 85 82 83 85 82 83 85 83 84 86 83 84 86 82 83 85 82 83 85 83 84 88 83 84 88 83 84 86 81 82 84 82 83 85 82 83 85 82 83 85 83 84 86 83 84 86 83 84 86 84 85 87 83 84 86 83 84 86 82 83 85 84 85 87 83 84 86 83 84 86 84 85 87 83 84 86 83 84 86 83 84 86 83 84 86 82 83 85 83 84 86 82 83 85 84 85 87 83 84 86 84 85 87 83 84 86 83 84 86 83 84 86 83 84 86 82 83 85 85 86 88 83 84 86 84 85 87 84 85 87 83 84 86 84 85 87 84 85 87 84 85 87 83 84 86 83 84 86 83 84 86 84 85 87 84 85 87 84 85 87 83 84 86 83 84 86 83 84 86 83 84 86 83 84 86 83 84 86 83 84 86 83 84 86 83 84 86 83 84 86 83 84 86 83 84 86 84 85 87 84 85 87 83 84 86 85 85 87 84 85 87 84 85 87 
80 81 83 80 81 85 80 81 85 81 82 84 80 81 83 80 81 85 79 80 84 79 80 82 80 81 83 80 81 83 80 81 83 80 81 83 81 82 84 80 81 83 81 82 84 81 82 84 79 80 82 81 82 84 81 82 84 82 83 85 80 81 83 80 81 83 80 81 83 83 84 86 82 83 85 81 82 84 82 83 87 82 83 85 82 83 85 82 83 85 82 83 85 82 83 85 83 84 86 81 82 86 83 84 86 82 83 85 82 83 85 83 84 86 83 84 88 83 84 86 82 83 85 83 84 86 82 83 85 83 84 86 83 84 86 82 83 85 83 84 86 83 84 86 82 83 85 82 83 85 83 84 86 83 84 86 84 85 87 83 84 86 83 84 86 84 85 87 83 84 86 84 85 87 82 83 85 83 84 86 84 85 87 83 84 86 83 84 86 83 84 86 84 85 87 83 84 86 85 86 88 84 85 87 84 85 87 84 85 87 84 85 87 84 85 87 84 85 87 82 83 85 83 84 86 83 84 86 83 84 86 82 83 85 84 85 87 83 84 86 83 84 86 84 85 87 83 84 86 83 84 86 83 84 86 83 84 86 83 84 86 83 84 86 84 85 87 84 85 87 85 86 88 84 85 87 84 85 87 84 85 87 84 85 87 85 86 88 84 85 87 83 84 86 84 85 87 85 86 88 
80 81 83 80 81 85 80 81 85 80 81 83 80 81 83 79 80 84 79 80 84 80 81 83 80 81 83 80 81 83 81 82 84 79 80 82 81 82 84 81 82 84 80 81 83 80 81 83 81 82 84 81 82 84 81 82 84 80 81 83 82 83 85 80 81 83 80 81 83 82 83 85 83 84 86 83 84 86 82 83 85 82 83 85 82 83 87 83 84 86 83 84 86 82 83 85 82 83 87 82 83 85 82 83 85 82 83 85 83 84 86 81 82 84 83 84 86 82 83 87 83 84 86 81 82 84 83 84 86 83 84 86 81 82 84 81 82 84 82 83 85 82 83 85 81 82 84 82 83 85 83 84 86 82 83 85 83 84 86 82 83 85 83 84 86 84 85 87 83 84 86 83 84 86 83 84 86 83 84 86 84 85 87 83 84 86 84 85 87 83 84 86 83 84 86 83 84 86 84 85 87 83 84 86 84 85 87 83 84 86 83 84 86 84 85 87 84 85 87 83 84 86 83 84 86 83 84 86 83 84 86 84 85 87 83 84 86 84 85 87 83 84 86 84 85 87 82 83 85 83 84 86 83 84 86 84 85 87 83 84 86 82 83 85 84 85 87 84 85 87 83 84 86 84 85 87 83 84 86 83 84 86 83 84 86 84 85 87 83 84 86 84 85 87 84 85 87 84 85 87 
81 82 84 80 81 85 80 81 85 80 81 83 79 80 82 79 80 84 80 81 85 81 82 84 80 81 83 79 80 82 81 82 84 81 82 84 81 82 84 80 81 83 80 81 83 81 82 84 81 82 86 82 83 87 80 81 85 80 81 83 81 82 84 82 83 85 81 82 84 82 83 85 82 83 85 81 82 84 82 83 85 82 83 85 82 83 85 81 82 84 83 84 86 81 82 86 83 84 86 82 83 85 81 82 84 83 84 86 83 84 86 83 84 86 83 84 86 82 83 85 82 83 85 82 83 85 82 83 85 83 84 86 81 82 84 82 83 85 82 83 85 82 83 85 81 82 84 82 83 85 83 84 86 83 84 86 82 83 85 83 84 86 84 85 87 84 85 87 83 84 86 84 85 87 83 84 86 84 85 87 83 84 86 83 84 86 83 84 86 83 84 86 84 85 87 82 83 85 83 84 86 83 84 86 83 84 86 82 83 85 83 84 86 84 85 87 84 85 87 83 84 86 83 84 86 84 85 87 83 84 86 84 85 87 83 84 86 83 84 86 83 84 86 84 85 87 86 87 89 82 83 85 83 84 86 82 83 85 84 85 87 83 84 86 85 85 87 84 85 87 83 84 86 84 85 87 83 84 86 84 85 87 84 85 87 84 84 86 83 84 86 83 84 86 83 84 86 84 85 87 
80 81 85 79 80 82 80 81 83 79 80 84 80 81 85 80 81 83 81 82 84 81 82 86 80 81 83 80 81 83 81 82 84 81 82 84 80 81 83 81 82 84 81 82 84 80 81 83 81 82 86 80 81 85 82 83 87 81 82 84 82 83 85 81 82 84 82 83 85 82 83 85 82 83 85 82 84 83 82 83 85 81 82 84 82 83 85 81 82 84 82 83 87 81 82 84 81 82 84 82 83 85 82 83 85 81 82 84 83 84 86 82 83 85 83 84 86 82 83 85 81 82 84 81 82 84 81 82 84 81 82 84 82 83 85 83 84 86 83 84 86 82 83 85 82 83 85 81 82 84 82 83 85 83 84 86 83 84 86 82 83 85 83 84 86 83 84 86 85 86 88 84 85 87 83 84 86 84 85 87 81 82 84 83 84 86 83 84 86 83 84 86 83 84 86 83 84 86 83 84 86 82 83 85 82 83 85 82 83 85 83 84 86 84 85 87 83 84 86 83 84 86 83 84 86 82 83 85 83 84 86 83 84 86 83 84 86 83 84 86 82 83 85 85 86 88 84 85 87 83 84 86 82 83 85 83 84 86 83 84 86 83 84 86 84 84 86 83 84 86 83 84 86 83 84 86 83 84 86 83 84 86 83 84 86 85 85 87 84 85 87 83 84 86 84 85 87 83 84 86 
79 80 82 79 80 82 80 81 83 80 81 83 80 81 83 80 81 83 80 81 83 81 82 84 82 83 87 80 81 85 80 81 85 79 80 84 80 81 85 80 81 85 81 82 86 81 82 86 80 81 85 81 82 86 81 82 86 81 82 84 80 81 83 81 82 84 81 82 84 81 82 84 82 83 85 81 82 84 81 82 87 80 81 83 80 81 83 81 82 84 81 82 84 80 81 83 81 82 84 82 83 85 82 83 85 83 84 86 81 82 84 83 84 86 82 83 85 82 83 85 81 82 84 82 83 85 82 83 85 82 83 85 83 84 86 82 83 85 82 83 85 82 83 85 82 83 85 82 83 85 83 84 86 83 84 86 83 84 86 83 84 86 84 85 87 84 85 87 83 84 86 83 84 86 83 84 86 82 83 85 82 83 85 83 84 86 83 84 86 82 83 85 82 83 85 83 84 86 82 83 85 83 84 86 83 84 86 83 84 86 83 84 86 83 84 86 83 84 86 84 85 87 82 83 85 84 85 87 84 85 87 83 84 86 82 83 85 83 84 86 83 84 86 84 85 87 83 84 86 83 84 86 83 84 86 83 84 86 82 83 85 83 84 86 82 83 85 83 84 86 84 85 87 83 84 86 83 84 86 82 83 85 82 83 85 84 85 87 84 85 87 84 85 87 84 85 87 84 85 87 
80 81 85 79 80 84 79 80 84 81 82 86 79 80 84 79 80 84 78 79 83 80 81 85 79 80 84 80 81 85 79 80 84 80 81 85 80 81 85 80 81 85 79 80 84 79 80 84 80 81 83 81 82 84 81 82 84 80 81 85 80 81 85 82 83 85 82 83 85 81 82 84 79 80 82 80 81 83 80 81 85 80 81 83 81 82 84 81 82 84 81 82 84 81 82 84 81 82 84 82 83 85 81 82 84 82 83 85 82 83 85 82 83 85 82 83 85 81 82 84 81 82 84 81 82 84 83 84 86 82 83 85 83 84 86 81 82 84 83 84 86 83 84 86 82 83 85 83 84 86 82 83 85 82 83 85 83 84 86 83 84 86 84 85 87 84 85 87 82 83 85 82 83 85 84 85 87 83 84 86 84 85 87 84 85 87 84 85 87 81 82 84 82 83 85 83 84 86 82 83 85 83 84 86 82 83 85 82 83 85 82 83 85 83 84 86 83 84 86 83 84 86 83 84 86 83 84 86 84 85 87 82 83 85 82 83 85 82 83 85 83 84 86 83 84 86 84 85 87 83 84 86 83 84 86 81 82 84 83 84 86 83 84 86 82 83 85 84 85 87 83 84 86 83 84 86 83 84 86 83 84 86 83 84 86 83 84 86 83 84 86 84 85 87 84 85 87 84 85 87 
79 80 82 80 81 83 80 81 83 79 80 82 79 80 82 80 81 83 80 81 83 80 81 83 79 80 84 79 80 84 80 81 85 79 80 84 80 81 85 79 80 84 80 81 85 79 80 84 79 80 82 80 81 85 80 81 85 79 80 84 81 82 86 80 81 85 80 81 83 81 82 84 81 82 84 81 82 84 82 83 87 81 82 84 81 82 84 80 81 83 81 82 84 81 82 84 81 82 84 82 83 85 82 83 85 82 83 85 82 83 85 82 83 85 81 82 84 80 81 83 81 82 84 81 82 84 82 83 85 82 83 85 83 84 86 82 83 85 81 82 84 82 83 85 82 83 85 82 83 85 81 82 84 83 84 86 83 84 86 83 84 86 83 84 86 82 83 85 83 84 86 84 85 87 83 84 86 83 84 86 82 83 85 83 84 88 83 84 86 83 84 88 82 83 85 82 83 85 82 83 85 83 84 86 83 84 86 83 84 86 82 83 85 83 84 86 82 83 85 83 84 86 83 84 86 83 84 86 83 84 86 82 83 85 81 82 84 82 83 85 83 84 86 82 83 85 83 84 86 82 83 85 83 84 86 82 83 85 83 84 86 83 84 86 83 84 86 84 85 87 84 85 87 83 84 86 83 84 86 82 83 85 82 83 85 84 85 87 84 85 87 82 83 85 85 86 88 83 84 86 
79 80 82 80 81 83 80 81 83 80 81 83 79 80 82 79 80 82 79 80 82 78 79 81 79 80 84 78 79 83 79 80 84 79 80 84 78 79 83 78 79 83 80 81 85 79 80 84 79 80 82 79 80 82 78 79 81 79 80 82 79 80 82 81 82 84 79 80 82 79 80 82 79 80 82 80 81 83 80 81 83 81 82 84 81 82 84 80 81 83 80 81 83 80 81 83 80 81 83 81 82 84 81 82 84 81 82 84 81 82 84 82 83 85 82 83 85 83 84 86 82 83 85 82 83 85 82 83 85 81 82 84 81 82 84 82 83 85 82 83 85 82 83 85 82 83 85 81 82 84 82 83 85 82 83 85 82 83 85 83 84 86 83 84 86 81 82 84 82 83 85 83 84 86 84 85 87 83 84 88 83 84 86 82 83 85 83 84 88 82 83 85 83 84 86 83 84 86 82 83 85 83 84 86 82 83 85 82 83 85 82 83 85 83 84 86 84 85 87 83 84 86 82 83 85 83 84 86 82 83 85 84 85 87 83 84 86 83 84 86 83 84 86 82 83 85 83 84 86 83 84 86 82 83 85 82 83 85 84 85 87 83 84 86 83 84 86 84 85 87 83 84 86 83 84 86 83 84 86 83 84 86 84 85 87 83 84 86 83 84 86 84 85 87 84 85 87 84 85 87 
80 81 85 78 79 83 78 79 83 80 81 85 80 81 85 79 80 84 78 79 83 80 81 85 79 80 84 79 80 84 78 79 83 78 79 83 78 79 83 78 79 83 79 80 84 80 81 85 79 80 82 79 80 82 79 80 82 79 80 82 80 81 83 79 80 82 80 81 83 80 81 83 80 81 83 79 80 82 80 81 83 79 80 82 80 81 83 81 82 84 80 81 83 81 82 84 81 82 84 82 83 85 81 82 84 82 83 85 82 83 85 82 83 85 81 82 84 81 82 84 81 82 84 82 83 85 82 83 85 81 82 84 83 84 86 81 82 84 82 83 85 81 82 84 82 83 85 82 83 85 81 82 84 81 82 84 82 83 85 82 83 85 81 82 84 82 83 85 84 85 87 82 83 87 83 84 86 82 83 85 82 83 87 82 83 85 83 84 86 83 84 86 82 83 85 82 83 85 82 83 85 83 84 86 83 84 86 82 83 85 82 83 85 83 84 86 83 84 86 83 84 86 82 83 85 83 84 86 82 83 85 83 84 86 83 84 86 83 84 86 83 84 86 83 84 86 83 84 86 83 84 86 82 83 85 83 84 86 83 84 86 83 84 86 83 84 86 82 83 85 84 85 87 82 83 85 83 84 86 83 84 86 83 84 86 83 84 86 83 84 86 83 84 86 83 84 86 83 84 86 
79 80 84 79 80 84 80 81 85 79 80 84 77 78 82 79 80 84 78 79 83 79 80 84 79 80 84 79 80 84 78 79 83 79 80 84 80 81 85 79 80 84 78 79 83 79 80 84 79 80 82 77 78 82 79 80 84 79 80 84 79 80 84 78 79 83 80 81 83 79 80 82 79 80 82 82 83 85 80 81 83 80 81 83 80 81 83 80 81 85 81 82 84 82 83 85 80 81 83 81 82 84 80 81 83 81 82 84 80 81 83 81 82 84 81 82 84 81 82 84 82 83 85 79 80 82 82 83 85 81 82 84 81 82 84 81 82 84 81 82 84 81 82 84 81 82 84 81 82 84 81 82 84 81 82 84 83 84 86 82 83 85 83 84 86 82 83 85 82 83 87 82 83 85 82 83 87 82 83 85 82 83 85 82 83 85 82 83 85 83 84 86 82 83 85 81 82 84 82 83 85 82 83 85 82 83 85 82 83 85 82 83 85 83 84 86 83 84 86 83 84 86 82 83 85 82 83 85 83 84 86 83 84 86 82 83 85 82 83 85 83 84 86 83 84 86 83 84 86 83 84 86 82 83 85 83 84 86 84 85 87 84 85 87 84 85 87 82 83 85 83 84 86 83 84 86 81 82 84 83 84 86 82 83 85 83 84 86 84 85 87 84 85 87 84 85 87 83 84 86 
80 81 83 79 80 82 80 81 83 79 80 82 80 81 83 79 80 82 78 79 81 78 79 81 79 80 84 78 79 83 79 80 84 77 78 82 79 80 84 78 79 83 78 79 83 78 79 83 79 80 82 78 79 81 79 80 82 80 81 85 78 79 83 78 79 81 79 80 82 79 80 82 80 81 83 80 81 83 79 80 82 79 80 82 79 80 82 80 81 85 80 81 83 80 81 83 80 81 83 81 82 84 80 81 83 80 81 83 80 81 83 79 80 82 81 82 84 80 81 83 80 81 83 81 82 84 81 82 84 81 82 84 80 81 83 81 82 84 82 83 85 82 83 85 82 83 85 82 83 85 81 82 84 81 82 84 80 81 83 81 82 84 83 84 86 81 82 84 81 82 84 81 82 84 82 83 85 80 81 83 83 84 86 81 82 84 83 84 86 83 84 86 81 82 84 81 82 84 82 83 85 82 83 85 82 83 85 82 83 85 82 83 85 83 84 86 82 83 85 83 84 86 83 84 86 83 84 86 83 84 86 83 84 86 82 83 85 83 84 86 83 84 86 81 82 84 82 83 85 80 81 83 83 84 86 82 83 85 83 84 86 83 84 86 82 83 85 83 84 86 84 85 87 83 84 86 82 83 85 82 83 85 82 83 85 82 83 85 84 85 87 84 85 87 84 85 87 84 85 87 
79 80 84 79 80 84 78 79 83 79 80 84 78 79 83 78 79 83 78 79 83 78 79 83 79 80 84 79 80 84 78 79 83 78 79 83 78 79 83 78 79 83 78 79 83 78 79 83 78 79 83 76 77 81 77 78 82 79 80 82 78 79 81 79 80 82 79 80 82 79 80 82 79 80 82 79 80 82 79 80 82 80 81 83 81 82 84 81 82 87 79 80 82 81 82 84 80 81 83 80 81 83 80 81 83 80 81 83 80 81 83 80 81 83 81 82 84 80 81 83 80 81 83 80 81 83 81 82 84 80 81 83 81 82 84 80 81 83 82 83 85 80 81 83 80 81 83 81 82 84 81 82 84 82 83 85 82 83 85 82 83 85 81 82 84 82 83 85 82 83 85 80 81 83 82 83 85 82 83 85 83 84 86 82 83 85 83 84 86 82 83 85 82 83 85 82 83 85 82 83 85 82 83 85 82 83 85 82 83 85 82 83 85 82 83 85 82 83 85 82 83 85 83 84 86 82 83 85 82 83 85 83 84 86 82 83 85 83 84 86 83 84 86 83 84 86 82 83 85 82 83 85 82 83 85 82 83 85 82 83 85 83 84 86 82 83 85 82 83 85 83 84 86 82 83 85 83 84 86 83 84 86 82 83 85 83 84 86 83 84 86 83 84 86 84 85 87 85 86 88 
79 80 82 78 79 83 78 79 83 79 80 84 79 80 82 77 78 80 77 78 80 78 79 83 78 79 83 77 78 80 79 80 84 79 80 84 79 80 82 79 80 82 77 78 82 78 79 81 77 78 82 78 79 83 77 78 80 78 79 81 78 79 81 79 80 82 79 80 82 79 80 82 79 80 82 81 82 84 79 80 82 80 81 83 80 81 83 79 80 82 80 81 83 80 81 83 79 80 82 81 82 84 81 82 84 80 81 83 81 82 84 81 82 84 80 81 83 80 81 83 80 81 83 80 81 83 80 81 83 81 82 84 81 82 84 81 82 84 81 82 84 80 81 83 80 81 83 81 82 84 81 82 84 81 82 84 80 81 83 80 81 83 82 83 87 82 83 85 81 82 84 81 82 84 80 81 83 82 83 85 82 83 85 82 83 85 83 84 86 82 83 85 82 83 85 81 82 84 82 83 85 81 82 84 82 83 85 82 83 85 83 84 86 82 83 85 84 85 87 83 84 86 82 83 85 83 84 86 83 84 86 83 84 86 82 83 85 81 82 84 83 84 86 82 83 85 83 84 86 82 83 85 83 84 86 82 83 85 82 83 85 81 82 84 83 84 86 83 84 86 83 84 86 82 83 85 83 84 86 83 84 86 82 83 85 83 84 86 84 85 87 84 85 87 83 84 86 83 84 86 
80 81 83 78 79 81 78 79 81 78 79 81 79 80 84 78 79 83 77 78 82 77 78 82 77 78 80 78 79 81 78 79 83 78 79 83 78 79 83 78 79 83 77 78 82 78 79 81 78 79 83 76 77 81 76 77 79 79 80 82 78 79 81 78 79 81 78 79 81 80 81 83 79 80 82 77 78 80 79 80 82 79 80 82 79 80 82 80 81 83 80 81 83 80 81 83 79 80 82 79 80 82 80 81 83 79 80 82 80 81 83 79 80 82 80 81 83 79 80 82 80 81 83 80 81 83 81 82 84 81 82 84 81 82 84 82 83 85 81 82 86 81 82 84 81 82 84 82 83 85 81 82 84 81 82 84 81 82 84 81 82 84 82 83 85 81 82 84 80 81 83 82 83 85 81 82 84 82 83 85 81 82 84 82 83 85 83 84 86 83 84 86 82 83 85 82 83 85 82 83 85 82 83 85 83 84 86 82 83 85 82 83 85 82 83 85 83 84 86 83 84 86 82 83 85 82 83 85 83 84 86 82 83 85 82 83 85 82 83 85 83 84 86 82 83 85 82 83 85 83 84 86 82 83 85 82 83 85 83 84 86 82 83 85 83 84 86 83 84 86 83 84 86 83 84 86 83 84 86 83 84 86 83 84 86 83 84 86 84 85 87 84 85 87 83 84 86 83 84 86 
78 79 83 78 79 83 78 79 81 79 80 82 78 79 83 77 78 82 77 78 80 77 78 80 78 79 81 77 78 80 77 78 80 77 78 80 77 78 80 78 79 83 76 77 81 78 79 83 77 78 80 77 78 80 78 79 83 78 79 81 77 79 78 78 79 81 78 79 81 77 78 80 77 78 80 79 80 82 79 80 82 79 80 82 79 80 82 80 81 83 78 79 81 78 79 81 80 81 83 79 80 82 80 81 83 78 79 81 79 80 82 80 81 83 80 81 83 79 80 82 80 81 83 80 81 83 80 81 83 79 80 82 80 81 83 81 82 84 80 81 83 80 81 83 81 82 84 81 82 86 80 81 83 81 82 84 81 82 86 80 81 83 80 81 83 80 81 83 81 82 84 82 83 85 82 83 85 82 83 85 82 83 85 82 83 85 83 84 86 82 83 85 81 82 84 81 82 84 82 83 85 81 82 84 82 83 85 82 83 85 83 84 86 82 83 85 82 83 85 83 84 86 82 83 85 82 83 85 83 84 86 82 83 85 83 84 86 83 84 86 82 83 85 82 83 85 83 84 86 83 84 86 83 84 86 82 83 85 84 85 87 83 84 86 81 82 84 83 84 86 84 85 87 83 84 86 82 83 85 83 84 86 83 84 86 83 84 86 82 83 85 83 84 86 83 84 86 83 84 86 
79 80 82 78 79 81 78 79 81 78 79 81 77 78 82 77 78 82 76 77 81 77 78 82 78 79 81 77 78 80 78 79 81 76 77 81 78 79 83 77 78 82 77 78 82 78 79 83 78 79 81 78 79 81 77 78 82 78 79 83 76 77 81 77 78 80 76 77 79 79 80 82 79 80 82 78 79 81 79 80 82 78 79 81 79 80 82 79 80 82 79 80 82 79 80 82 80 81 83 78 79 81 80 81 83 79 80 82 79 80 82 80 81 83 80 81 83 80 81 83 79 80 82 81 82 84 81 82 84 80 81 83 79 80 84 81 82 84 80 81 83 82 83 87 81 82 84 82 83 85 80 81 83 81 82 84 80 81 83 82 83 85 81 82 84 82 83 85 81 82 84 81 82 84 82 83 85 82 83 85 81 82 84 83 84 86 81 82 84 82 83 85 82 83 85 82 83 85 82 83 85 82 83 85 81 82 84 82 83 85 83 84 86 82 83 85 82 83 85 83 84 86 82 83 85 82 83 85 83 84 86 82 83 85 82 83 85 82 83 85 82 83 85 82 83 85 82 83 85 82 83 85 82 83 85 82 83 85 83 84 86 82 83 85 82 83 85 83 84 86 82 83 85 82 83 85 82 83 85 83 84 86 83 84 86 84 85 87 83 84 86 84 85 87 83 84 86 83 84 86 
78 79 83 77 78 82 76 77 81 76 77 81 76 77 79 77 78 80 77 78 80 78 79 81 78 79 83 76 77 81 78 79 83 76 77 81 77 78 82 78 79 81 78 79 81 77 78 80 78 79 81 77 78 80 76 77 81 77 78 82 78 79 83 77 78 80 78 79 81 77 78 80 77 78 80 78 79 81 78 79 81 78 79 81 77 78 80 79 80 82 78 79 81 78 79 81 78 79 81 78 79 81 79 80 82 78 79 81 79 80 82 79 80 82 78 79 81 79 80 82 80 81 85 81 82 84 80 81 83 80 81 85 80 81 83 81 82 84 81 82 84 80 81 83 82 83 85 80 81 83 80 81 83 81 82 84 80 81 83 81 82 84 80 81 83 82 83 85 80 81 83 81 82 84 81 82 84 81 82 84 82 83 85 82 83 85 81 82 84 82 83 85 83 84 86 82 83 85 82 83 85 81 82 84 82 83 85 82 83 85 83 84 86 81 82 84 83 84 86 81 82 84 81 82 84 82 83 85 83 84 86 82 83 85 81 82 84 82 83 85 82 83 85 82 83 85 81 82 84 81 82 84 82 83 85 82 83 85 81 82 84 82 83 85 82 83 85 82 83 85 82 83 85 82 83 85 81 82 84 83 84 86 83 84 86 84 85 87 83 84 86 83 84 86 83 84 86 83 84 86 
78 79 81 77 78 80 77 78 82 77 78 82 76 77 79 77 78 80 78 79 83 77 78 82 76 77 81 77 78 82 76 77 81 77 78 80 76 77 79 77 78 80 78 79 81 78 79 81 78 79 81 76 77 79 77 78 82 78 79 81 77 79 78 76 77 79 77 78 80 76 77 79 77 78 80 79 80 82 78 79 81 78 79 81 79 80 82 78 79 81 79 80 82 78 79 81 77 78 80 78 79 81 79 80 82 79 80 82 79 80 82 80 81 83 79 80 82 80 81 83 79 80 82 80 81 83 80 81 83 80 81 83 80 81 83 80 81 83 81 82 84 81 82 84 79 80 82 80 81 83 81 82 84 80 81 85 80 81 83 81 82 84 80 81 85 80 81 83 80 81 83 81 82 84 81 82 84 81 82 84 81 82 84 82 83 85 81 82 84 81 82 84 81 82 84 81 82 84 82 83 85 82 83 85 81 82 84 82 83 85 82 83 85 81 82 84 82 83 85 82 83 85 81 82 84 82 83 85 81 82 84 82 83 85 83 84 86 81 82 84 83 84 86 82 83 85 82 83 85 81 82 84 82 83 85 82 83 85 82 83 85 83 84 86 82 83 85 82 83 85 80 81 83 82 83 85 82 83 85 82 83 85 83 84 86 82 83 85 82 83 85 83 84 86 83 84 86 83 84 86 
78 79 83 76 77 81 78 79 83 77 78 82 75 76 78 77 78 80 77 78 80 76 77 79 76 77 79 76 77 81 76 77 81 77 78 82 76 77 81 77 78 82 78 79 81 77 78 80 76 77 81 76 77 81 77 78 80 77 78 80 77 78 80 77 78 80 78 79 81 77 78 80 77 78 80 78 79 81 77 78 80 77 78 80 78 79 81 80 81 83 79 80 82 78 79 81 78 79 81 78 79 81 79 80 82 79 80 82 79 80 82 80 81 83 78 79 81 80 81 83 80 81 83 79 80 84 79 80 82 79 80 82 79 80 82 80 81 83 81 82 84 80 81 83 80 81 83 80 81 83 80 81 83 81 82 84 79 80 82 80 81 83 80 81 83 81 82 84 81 82 84 80 81 83 80 81 83 81 82 84 81 82 84 81 82 84 81 82 84 80 81 83 82 83 85 81 82 84 81 82 84 82 83 85 82 83 85 82 83 85 82 83 85 81 82 84 81 82 84 82 83 85 81 82 84 82 83 85 82 83 85 82 83 85 83 84 86 82 83 85 82 83 85 83 84 86 82 83 85 81 82 84 81 82 84 82 83 85 82 83 85 82 83 85 82 83 85 82 83 85 82 83 85 82 83 85 82 83 85 83 84 86 84 85 87 82 83 85 83 84 86 83 84 86 82 83 85 82 83 85 
78 79 83 77 78 80 77 78 80 76 77 79 77 78 82 77 78 82 77 78 82 77 78 80 76 77 79 77 78 82 77 78 80 77 78 80 77 78 82 77 78 82 77 78 80 76 77 81 76 77 81 77 78 82 77 78 80 78 79 81 78 79 81 78 79 81 76 77 79 78 79 81 78 79 81 78 79 81 78 79 81 77 78 80 76 77 79 77 78 80 78 79 81 78 79 81 78 79 81 78 79 81 79 80 82 79 80 82 80 81 83 80 81 83 80 81 83 80 81 83 79 80 82 78 79 81 79 80 82 80 81 83 79 80 82 81 82 84 80 81 83 80 81 83 79 80 82 80 81 85 80 81 83 79 80 82 80 81 83 80 81 83 81 82 84 81 82 84 80 81 83 79 80 82 81 82 84 81 82 84 80 81 83 80 81 83 79 80 82 81 82 84 80 81 83 81 82 84 81 82 84 80 81 83 81 82 84 82 83 85 82 83 85 82 83 85 81 82 84 80 81 83 82 83 85 82 83 85 82 83 85 81 82 84 82 83 85 82 83 85 82 83 85 82 83 85 80 81 83 82 83 85 83 84 86 83 84 86 82 83 85 81 82 84 82 83 85 82 83 85 82 83 85 82 83 85 82 83 85 83 84 86 83 84 86 82 83 85 82 83 85 83 84 86 83 84 86 82 83 85 
77 78 80 78 79 83 77 78 80 76 77 81 77 78 82 77 78 80 76 77 81 76 77 79 77 78 80 75 76 78 75 76 78 76 77 79 77 78 82 77 78 82 76 77 81 76 77 81 77 78 82 76 77 81 76 77 82 77 78 82 75 76 80 78 79 81 77 78 80 77 78 82 78 79 81 78 79 81 78 79 81 79 80 82 77 78 80 78 79 81 78 79 81 77 78 80 77 78 80 79 80 82 77 78 80 79 80 82 78 79 81 78 79 81 79 80 82 79 80 82 80 81 83 79 80 82 79 80 82 79 80 82 79 80 82 80 81 83 79 80 82 80 81 83 79 80 82 79 80 82 80 81 83 80 81 83 80 81 83 80 81 83 81 82 84 81 82 84 80 81 83 80 81 83 81 82 84 81 82 84 80 81 83 81 82 84 80 81 83 80 81 83 81 82 84 81 82 84 81 82 84 83 84 86 82 83 85 82 83 85 82 83 85 81 82 84 81 82 84 81 82 84 83 84 86 82 83 85 83 84 86 82 83 85 82 83 85 82 83 85 83 84 86 83 84 86 81 82 84 81 82 84 83 84 86 83 84 86 82 83 85 82 83 85 84 85 87 82 83 85 82 83 85 82 83 85 81 82 84 83 84 86 83 84 86 82 83 85 83 83 85 83 83 85 84 84 86 84 84 86 
78 79 83 77 78 80 77 78 82 77 78 80 76 77 79 76 77 81 77 78 80 77 78 82 77 78 80 76 77 79 76 77 79 76 77 79 77 78 82 76 77 81 76 77 81 76 77 81 77 78 82 77 78 82 76 77 81 78 79 83 77 78 80 77 78 80 78 79 81 77 78 80 77 78 80 77 78 80 78 79 81 77 78 80 77 78 80 78 79 81 77 78 80 77 78 80 77 78 80 79 80 82 78 79 81 79 80 82 79 80 82 78 79 81 79 80 82 78 79 81 78 79 81 79 80 82 79 80 82 80 81 83 79 80 82 79 80 82 80 81 83 78 79 81 79 80 82 79 80 82 80 81 83 79 80 82 80 81 83 79 80 82 80 81 83 80 81 83 80 81 83 79 80 82 81 82 84 81 82 84 81 82 84 80 81 83 80 81 83 81 82 84 82 83 85 81 82 84 81 82 84 82 83 85 82 83 85 82 83 85 81 82 84 81 82 84 81 82 84 81 82 84 82 83 85 82 83 85 82 83 85 81 82 84 81 82 84 81 82 84 83 83 85 83 83 85 84 84 86 84 84 86 84 84 86 83 83 85 83 83 85 82 82 84 82 83 85 83 84 86 83 84 86 82 83 85 83 84 86 82 83 85 83 84 86 81 82 84 82 83 85 82 83 85 82 83 85 82 83 85 
