P3
100 50
255
96 80 64 96 80 64 96 80 65 97 79 67 97 79 67 96 78 66 96 78 66 94 76 64 92 73 59 93 70 56 89 66 52 84 61 47 79 57 44 70 51 37 64 42 31 58 38 31 53 34 27 48 31 24 38 24 21 34 23 19 30 23 17 29 21 18 29 24 21 26 22 21 30 22 20 33 22 20 40 27 21 47 30 23 51 32 25 51 33 23 51 31 22 48 28 19 51 33 21 57 35 24 61 37 27 64 37 26 66 39 28 63 39 29 61 39 26 54 36 24 50 32 22 45 31 22 46 29 22 43 28 23 42 27 22 39 25 22 34 23 19 33 22 18 33 22 20 34 23 21 31 21 19 31 22 17 34 23 19 41 26 19 49 32 24 56 33 25 60 36 24 63 39 27 65 38 27 62 36 23 57 34 18 61 40 23 69 48 31 90 67 51 99 76 58 101 76 56 101 73 52 103 72 52 92 60 45 71 45 28 57 34 20 50 28 15 46 26 17 46 27 20 45 28 21 43 26 19 42 24 20 40 25 20 44 27 20 45 26 19 48 28 19 52 30 19 56 34 21 56 34 23 59 35 23 63 35 23 69 37 24 70 38 23 73 41 26 75 42 25 75 42 23 74 41 24 71 40 22 71 40 22 69 38 20 66 34 19 63 34 18 67 35 20 66 34 19 64 32 17 
96 79 63 97 80 64 97 81 66 98 80 66 96 80 65 95 79 66 96 80 67 97 79 67 93 77 64 94 75 61 92 73 59 91 69 56 85 66 52 79 60 46 74 52 41 70 47 41 64 45 38 57 38 31 46 29 22 40 27 21 35 24 20 31 21 19 27 22 19 25 21 18 28 19 20 30 20 19 32 23 18 43 28 21 50 33 25 53 35 25 56 34 23 56 34 23 54 34 23 55 33 22 56 36 25 56 37 23 60 38 27 63 39 29 60 36 26 56 36 25 52 35 27 46 29 21 46 29 22 44 26 22 42 27 22 37 23 20 33 22 18 35 21 18 35 24 20 37 23 20 36 22 19 39 24 19 42 27 22 50 31 24 52 34 24 60 36 26 63 39 27 64 40 28 65 38 27 64 38 25 60 37 23 59 36 22 60 37 23 68 49 34 85 64 47 95 70 50 100 73 52 101 73 52 92 61 41 80 49 31 68 39 25 56 32 20 48 28 17 45 27 17 43 26 18 40 25 20 38 23 16 39 25 22 39 24 19 41 24 17 44 25 18 46 27 20 50 30 21 55 33 22 55 33 22 57 33 21 62 36 23 66 38 24 68 40 26 72 40 25 74 41 24 78 43 24 80 45 26 79 44 25 75 43 22 72 40 19 70 37 20 72 39 20 71 38 21 69 36 19 
95 78 62 96 78 64 95 77 63 96 78 64 96 80 67 97 81 68 96 80 67 96 80 67 95 77 67 94 76 64 93 75 63 92 73 59 90 71 54 84 65 50 80 61 47 76 57 43 71 52 38 65 47 35 54 37 29 47 32 25 39 26 20 32 23 18 25 20 17 25 19 19 25 19 19 26 21 18 30 20 18 41 26 21 49 30 23 55 35 26 58 36 25 60 36 24 57 33 23 55 33 22 53 33 22 53 33 24 58 35 27 56 36 27 56 36 27 53 35 25 53 35 25 45 31 22 44 29 22 45 26 20 40 27 21 36 22 19 33 22 20 37 23 20 39 24 21 40 25 20 39 24 19 45 26 20 48 29 22 52 32 23 57 35 24 61 39 26 62 38 26 62 39 25 64 41 27 63 40 26 63 40 26 59 36 22 54 35 20 58 39 24 74 53 36 87 64 46 97 70 49 98 70 49 91 58 39 81 50 32 71 43 29 64 37 26 52 30 19 46 28 18 42 25 17 40 23 16 37 24 18 36 22 19 38 23 18 39 24 19 42 25 18 45 26 19 48 29 22 48 29 22 52 32 21 53 31 20 56 32 22 62 35 24 64 36 24 67 38 24 69 40 22 79 44 25 82 47 27 80 48 27 77 46 25 76 44 23 74 42 21 76 41 22 75 40 21 72 39 20 
96 77 60 94 77 61 94 77 59 95 77 63 96 78 64 96 80 65 96 80 65 94 78 65 94 77 67 96 78 66 95 77 63 93 75 61 92 75 59 90 71 56 87 68 54 84 65 51 79 60 45 75 55 44 65 48 38 60 40 33 47 32 25 37 23 20 27 19 16 25 19 19 24 20 17 25 20 17 28 20 17 38 24 21 48 31 23 55 35 26 59 37 26 63 39 27 58 34 24 56 34 23 50 30 19 49 29 20 50 32 22 50 32 22 51 33 23 49 32 22 49 32 24 42 27 20 41 26 21 40 25 18 38 25 19 34 23 19 35 24 20 40 25 20 42 27 22 44 26 22 46 29 22 49 30 23 52 32 23 56 34 23 60 36 24 62 39 25 60 37 23 62 36 23 62 39 25 63 40 26 65 39 26 64 38 25 61 37 25 54 32 18 60 41 24 75 54 35 85 63 42 93 66 45 89 56 37 82 49 32 74 45 29 69 41 29 60 37 23 50 30 21 47 27 20 41 24 17 36 23 15 36 21 18 39 24 21 39 24 19 41 23 19 42 24 20 44 27 20 46 27 21 45 27 17 48 28 21 48 28 19 53 30 22 56 32 20 60 33 22 65 37 23 73 42 24 78 45 26 79 47 26 80 48 25 81 46 24 79 44 22 80 45 23 79 44 24 78 43 24 
91 72 55 94 75 58 94 75 58 93 76 60 94 77 61 97 79 65 95 79 64 94 78 63 94 78 65 94 78 63 94 76 62 95 76 62 93 76 60 92 75 59 92 75 59 91 72 58 90 68 55 84 65 51 78 58 47 71 48 40 59 40 33 46 31 24 35 24 20 29 21 18 28 20 18 28 20 18 27 19 16 37 27 18 44 29 22 52 33 26 59 37 26 62 38 26 64 37 26 60 36 24 55 33 22 48 30 18 47 30 22 43 28 21 40 27 19 41 28 20 41 28 20 39 26 20 38 25 19 38 25 19 37 23 20 36 22 19 39 26 20 40 25 20 45 27 23 46 27 21 48 29 22 53 33 26 57 34 26 62 35 26 63 36 25 62 38 26 62 39 25 62 39 25 62 39 23 68 42 29 70 42 30 69 41 29 67 41 28 59 38 21 56 34 20 60 39 22 67 46 27 74 52 31 83 54 38 80 48 33 73 44 30 67 41 28 65 39 26 59 35 23 56 34 23 51 31 20 46 28 18 42 25 18 42 24 20 42 25 18 39 24 19 40 22 20 39 24 19 42 24 20 41 23 19 42 24 20 42 25 18 43 24 18 45 26 20 49 29 20 54 30 20 65 37 23 71 42 24 75 44 24 78 46 25 81 46 24 82 47 25 81 46 24 82 46 24 82 46 24 
89 68 51 89 70 53 92 73 56 94 75 58 94 77 59 94 78 62 96 78 64 96 80 65 96 80 65 94 78 63 94 76 62 92 76 61 93 77 62 92 75 59 92 75 59 91 74 58 93 71 57 92 70 56 85 63 50 79 55 43 67 47 38 58 39 32 48 33 28 37 26 22 36 22 21 32 22 20 35 24 20 40 27 21 44 27 19 48 29 22 52 32 23 58 34 24 69 41 29 66 39 28 60 38 25 52 34 24 44 31 22 37 27 18 35 26 19 32 23 16 35 26 21 35 26 19 36 25 19 35 24 20 37 23 20 38 25 19 41 26 21 41 26 19 44 27 20 48 28 21 49 30 23 53 30 22 57 33 23 61 34 23 63 36 25 66 40 27 65 42 28 64 41 27 64 41 27 66 43 29 67 41 26 68 40 28 67 41 26 61 40 23 59 37 23 55 36 21 55 36 19 57 36 17 66 40 25 68 40 26 67 39 27 64 41 27 63 39 27 63 37 24 60 36 24 56 34 21 51 31 20 46 28 18 44 27 20 41 26 19 39 24 19 35 21 18 38 24 21 39 24 19 39 24 21 39 24 21 38 23 18 38 23 18 38 23 16 42 23 17 45 26 19 54 32 21 61 35 22 66 38 24 71 42 24 78 46 25 80 48 25 83 49 24 84 50 25 85 47 26 
87 66 49 87 69 49 89 71 51 93 72 53 92 75 57 95 78 62 95 78 62 95 78 62 94 78 63 94 78 63 93 77 62 92 76 61 92 76 61 91 75 60 93 75 61 92 75 59 92 73 58 92 71 54 87 65 51 81 58 44 75 53 42 65 42 34 55 38 31 42 27 22 38 24 21 39 25 22 41 28 22 43 28 21 46 27 20 49 29 20 53 31 20 56 34 23 67 40 29 65 41 29 62 38 28 55 35 26 48 31 23 38 27 21 34 25 18 29 24 18 32 25 19 34 25 18 36 25 21 39 25 22 38 25 19 40 25 20 44 27 20 46 29 22 47 28 21 49 30 23 52 32 23 54 31 23 57 33 23 62 35 26 62 35 24 62 38 26 63 40 26 64 41 27 68 42 29 66 40 27 66 38 26 67 39 27 67 41 26 64 41 25 60 38 24 57 35 21 58 35 21 56 35 18 58 34 22 59 35 23 57 35 24 59 37 26 60 38 27 59 35 25 61 35 22 55 33 20 52 32 21 48 28 21 45 28 20 43 23 22 39 25 22 39 25 22 38 24 21 39 25 22 38 24 21 41 23 21 38 25 19 37 24 18 38 23 20 38 23 18 38 23 18 46 28 18 50 30 19 57 34 20 63 37 22 69 42 21 75 44 23 80 48 27 83 48 26 85 49 27 
87 66 47 89 68 49 87 69 49 88 70 50 93 75 55 94 77 61 94 77 61 95 78 62 96 80 65 95 79 63 95 79 64 93 77 61 92 76 60 90 74 59 93 75 61 93 76 60 91 74 58 89 70 55 87 65 51 81 59 45 75 51 39 67 44 36 57 38 31 47 30 23 43 28 23 44 29 22 47 33 24 50 31 24 50 30 21 52 32 23 54 32 21 54 32 21 64 37 26 65 38 27 61 39 28 58 35 27 48 31 23 41 28 22 35 26 21 32 25 19 29 24 18 33 26 20 35 26 19 40 27 21 39 25 22 44 26 24 48 29 23 48 29 23 49 30 23 50 30 23 53 33 24 57 33 23 57 35 24 60 36 24 62 35 24 62 39 25 62 39 25 64 37 26 66 40 27 66 40 27 65 39 26 64 38 25 66 40 27 64 41 25 60 38 24 59 37 23 58 35 21 57 35 21 54 32 19 55 33 22 54 34 23 54 34 23 57 37 26 58 36 23 59 36 20 56 34 23 51 31 22 46 27 20 41 26 19 42 24 20 39 25 22 39 26 20 38 24 21 38 24 21 38 24 21 39 25 22 39 24 21 39 24 19 39 24 19 38 23 20 39 24 19 38 23 18 43 26 18 48 28 17 53 34 20 63 37 20 68 41 22 74 43 25 78 46 25 82 47 25 
94 71 55 87 69 49 87 66 47 87 69 49 93 72 55 92 75 59 93 76 58 93 76 60 91 73 59 95 77 63 95 79 63 91 78 61 93 77 62 91 75 62 93 75 61 91 74 58 88 71 55 87 68 53 86 65 48 82 60 47 74 52 39 67 44 36 59 39 32 49 32 25 49 32 24 50 33 26 55 36 29 57 37 28 59 36 28 59 37 26 55 37 25 55 33 22 59 35 25 60 36 24 59 37 26 53 33 24 48 31 23 42 29 21 37 28 21 33 26 20 32 25 19 31 24 18 34 25 20 37 26 22 41 26 21 45 28 21 50 29 24 51 32 26 52 33 26 55 32 26 58 35 27 58 35 27 59 37 26 61 34 25 59 35 25 59 35 23 60 38 25 61 37 25 60 37 23 65 39 26 66 38 27 64 38 25 65 39 26 65 39 26 62 39 25 62 39 25 60 36 24 58 36 23 56 37 22 54 34 23 52 32 21 51 33 23 54 35 21 57 35 22 57 35 22 56 34 23 51 31 22 46 28 18 41 24 16 38 23 18 39 26 20 38 25 19 37 23 20 37 24 18 40 24 24 38 24 21 41 26 23 40 27 21 41 26 19 40 25 20 38 22 22 36 21 18 37 22 19 40 23 16 45 27 15 52 30 17 56 33 17 65 37 23 71 40 22 79 44 25 
93 70 54 94 71 53 94 73 54 92 71 52 91 72 55 90 71 54 92 75 55 93 76 58 92 75 59 93 76 60 94 75 60 92 76 60 92 76 61 91 75 60 91 75 59 91 74 58 87 70 54 85 66 51 82 60 46 78 54 42 72 50 37 65 42 34 57 37 30 48 34 25 53 36 28 57 40 33 62 43 36 66 46 37 67 47 38 66 46 37 64 44 33 61 41 30 57 37 28 54 34 25 53 33 24 52 33 26 47 30 23 41 28 22 35 26 21 30 23 17 29 22 16 33 24 19 36 25 21 39 25 22 43 25 21 45 27 23 50 31 25 51 34 26 55 35 28 60 37 29 62 40 29 62 38 28 61 37 27 59 37 24 60 36 24 64 37 26 60 36 26 58 34 22 60 36 24 62 39 25 65 38 27 65 39 26 62 39 23 66 40 27 63 40 26 66 40 27 65 39 26 62 38 26 65 42 26 63 40 26 61 37 25 58 36 23 56 34 23 52 32 21 51 31 22 50 30 21 50 32 20 47 30 22 44 29 22 41 26 19 40 27 21 36 25 19 37 24 18 34 23 17 34 23 17 33 22 18 37 23 20 40 27 21 42 27 20 42 27 22 41 26 19 38 23 18 37 22 17 38 20 16 38 23 16 42 25 17 45 27 17 54 32 19 62 36 21 67 40 21 
92 69 51 93 70 52 92 71 52 91 70 53 91 72 55 90 71 54 91 72 55 89 72 56 90 73 55 91 74 58 92 74 60 93 76 60 93 76 60 90 74 58 89 73 57 89 72 56 86 69 53 85 66 51 81 59 45 74 55 41 66 46 37 58 40 30 50 33 25 49 32 25 54 37 29 61 42 35 66 46 37 72 52 41 74 54 43 75 55 44 73 53 42 69 49 38 63 43 34 59 39 30 56 36 27 53 32 27 50 31 25 43 28 23 35 26 21 32 23 18 31 24 18 37 26 22 37 26 22 40 27 21 41 26 21 44 26 22 47 29 25 51 32 26 54 34 27 58 38 29 64 42 31 63 41 28 62 40 29 61 39 26 61 39 26 63 41 28 61 37 25 62 38 26 63 39 27 62 38 26 62 39 25 63 40 26 63 40 26 63 40 26 63 39 27 62 40 26 64 41 27 65 42 28 67 40 29 67 41 28 65 39 26 65 39 26 62 40 27 58 36 25 51 31 20 49 31 19 49 30 23 47 28 22 44 29 22 42 29 21 41 26 19 38 25 19 34 23 19 35 24 20 34 23 19 32 22 20 34 23 17 39 26 20 40 27 21 42 29 23 43 28 23 40 27 21 38 25 19 37 24 18 37 24 18 37 21 21 41 22 15 48 29 22 55 33 20 62 36 21 
92 69 51 92 71 52 92 71 52 92 71 54 92 70 56 89 72 54 90 71 54 91 72 55 93 72 55 91 74 58 90 73 57 93 76 60 92 75 59 92 75 59 89 72 56 88 71 55 87 68 53 86 64 50 80 58 45 69 49 38 60 42 32 52 33 27 48 29 22 48 31 24 55 38 30 61 43 33 66 46 37 76 56 47 81 61 50 81 61 50 78 58 49 76 57 43 68 50 38 62 42 33 56 38 28 54 34 27 49 32 25 43 30 24 40 26 23 35 24 20 36 25 21 40 26 23 41 26 23 40 25 22 39 24 19 40 25 20 43 28 23 48 31 24 52 33 26 57 39 27 65 43 32 67 43 33 64 42 31 65 41 29 63 41 27 65 41 29 65 42 28 65 41 29 64 41 27 61 38 24 60 37 23 61 37 25 61 39 25 59 35 23 59 35 23 61 38 24 63 40 26 67 41 28 66 39 28 68 40 28 68 40 28 64 41 27 67 44 30 62 40 27 58 36 25 53 35 23 51 33 23 47 30 20 47 30 22 43 28 21 40 27 19 36 25 19 34 23 19 35 24 20 32 23 18 30 20 19 31 22 17 33 24 19 37 26 20 40 27 21 40 29 23 39 28 22 37 26 22 36 23 17 37 24 18 37 22 17 39 24 17 44 27 19 48 30 18 56 32 20 
92 66 49 91 68 50 93 67 50 93 70 54 91 68 52 93 70 52 90 71 54 90 71 56 91 74 56 89 72 54 91 74 58 92 75 59 91 74 58 92 75 59 90 73 57 88 71 55 87 68 53 84 65 50 75 56 41 64 44 35 54 36 26 46 29 21 43 26 19 49 32 24 55 38 30 60 42 32 66 46 37 77 57 48 84 64 53 85 65 54 83 63 52 81 62 48 72 54 42 63 45 35 57 39 29 53 34 27 49 32 25 47 29 25 43 28 23 41 28 22 41 28 22 43 28 23 42 27 22 41 26 21 41 23 21 37 24 18 38 27 21 44 29 24 49 32 25 54 37 29 63 43 32 67 45 34 67 43 31 66 43 29 65 42 28 65 42 28 64 42 28 65 42 28 65 42 28 61 39 26 60 36 24 59 35 23 60 38 25 57 35 22 56 32 20 59 35 23 60 36 24 66 40 27 66 40 27 67 41 28 67 41 28 67 41 26 68 42 27 67 41 28 62 40 26 62 40 27 57 37 26 50 30 21 49 32 24 43 29 20 40 27 21 39 24 19 35 24 20 34 25 20 31 23 20 30 20 19 31 21 19 33 23 21 35 24 20 37 26 22 41 28 22 39 28 22 39 26 20 37 22 17 37 24 18 37 24 18 40 25 18 43 26 18 45 26 19 50 30 21 
87 61 44 88 62 45 88 65 47 88 65 49 87 64 48 91 68 52 89 68 51 90 69 52 92 71 54 90 71 56 89 72 56 90 73 57 91 74 58 90 74 58 90 71 54 89 70 55 85 66 51 81 62 47 67 47 36 56 38 28 49 32 24 46 29 21 43 26 18 47 33 24 56 39 29 61 43 33 71 51 40 81 61 50 86 66 55 87 67 56 87 67 56 86 66 55 77 59 45 70 51 37 63 43 32 54 35 28 50 31 25 46 28 24 43 30 24 45 30 25 49 32 25 47 30 23 48 31 24 46 28 24 42 27 22 35 24 20 33 22 16 38 25 19 42 29 21 49 35 26 58 40 30 65 43 32 66 44 31 69 45 33 69 43 28 67 41 28 65 42 28 65 42 28 65 42 28 63 41 28 61 37 25 62 38 26 60 38 25 60 36 26 55 33 20 54 35 21 59 35 23 62 36 23 63 37 24 67 39 27 69 43 30 69 43 28 66 40 27 66 40 27 64 41 27 67 44 30 66 44 30 61 40 23 56 36 25 50 31 24 45 28 20 40 25 18 33 20 14 31 20 14 30 18 18 28 20 17 29 21 19 30 22 19 30 22 19 31 21 19 33 23 21 35 26 21 32 25 19 35 24 18 40 27 21 42 27 22 44 26 22 43 26 19 42 25 18 42 23 16 
81 55 38 82 56 39 82 59 41 84 61 43 86 63 45 88 67 48 89 66 50 85 66 49 90 69 52 91 69 55 90 71 56 90 71 56 89 72 56 91 72 57 88 69 52 86 64 50 82 60 46 74 55 41 61 43 31 50 33 23 43 29 20 42 28 19 43 26 18 50 32 22 57 39 29 65 47 35 75 55 44 84 64 53 86 66 55 87 67 56 86 66 55 85 65 54 80 61 46 74 56 42 68 48 37 60 40 33 50 31 25 47 30 23 46 29 22 51 34 27 54 35 28 55 36 29 56 37 30 54 35 29 47 32 25 36 25 19 34 23 17 34 23 17 36 25 19 41 31 22 52 33 26 57 37 26 61 41 30 65 43 29 69 46 32 67 44 30 65 42 28 65 42 28 65 42 28 65 43 29 64 42 28 65 42 28 64 41 27 63 40 26 61 38 24 61 38 24 63 37 24 61 35 22 63 37 24 64 38 25 67 41 28 66 43 29 66 40 27 66 40 27 67 41 26 64 41 27 65 43 29 68 42 29 67 44 30 65 42 26 58 39 25 51 33 23 44 27 19 41 26 19 36 25 19 31 22 17 31 24 18 26 21 17 26 21 18 24 19 16 26 21 18 28 23 20 32 25 19 36 27 22 39 26 20 43 30 24 42 27 20 41 28 22 41 26 19 39 24 17 
79 52 33 77 51 34 78 52 35 80 57 39 81 58 40 86 63 45 87 64 48 89 66 50 88 67 50 88 67 50 89 68 51 88 71 55 90 68 54 88 66 52 86 64 50 80 61 46 73 54 40 69 51 39 55 38 28 45 31 22 40 27 19 40 27 19 47 30 20 54 35 28 62 44 34 71 51 40 79 59 48 87 67 56 87 67 56 87 67 56 86 66 55 83 64 50 79 58 41 74 55 41 69 49 38 62 42 33 53 33 26 52 33 27 52 35 27 55 36 29 59 41 31 61 41 32 61 41 32 57 39 29 53 36 28 42 27 20 37 24 18 36 23 17 34 23 17 37 26 20 44 29 22 51 34 26 57 37 28 62 40 27 67 44 30 65 42 28 67 41 28 66 43 29 66 43 29 66 43 29 67 44 30 69 43 30 69 43 30 65 39 26 65 39 26 64 38 25 65 39 26 62 39 25 62 36 23 61 38 24 63 37 24 64 38 25 65 39 26 66 40 27 64 41 27 65 42 28 65 42 28 70 44 29 71 45 30 71 45 30 67 44 30 63 41 28 54 36 24 49 32 22 41 28 20 37 26 20 33 24 17 28 21 15 25 20 17 24 19 16 23 17 17 23 18 15 26 21 18 31 21 19 37 23 20 41 28 22 40 27 18 41 26 21 40 27 19 41 26 21 
77 52 32 77 50 33 76 49 32 75 49 32 77 54 36 81 58 40 83 60 44 85 62 46 87 64 48 88 65 49 85 66 49 89 68 51 87 65 51 85 63 49 80 58 44 77 55 42 71 51 40 66 48 36 49 35 24 40 27 18 37 27 18 40 30 18 47 33 24 61 43 33 67 49 37 75 55 44 80 60 49 87 67 56 87 67 56 86 66 55 84 64 53 80 60 49 74 55 41 71 51 40 66 46 37 61 41 32 53 33 26 54 35 28 57 39 29 63 43 34 63 43 32 66 47 33 66 47 33 64 44 33 60 42 30 51 34 26 44 31 23 40 27 21 35 24 18 37 24 18 38 28 19 47 33 24 54 36 26 57 37 26 64 42 29 65 41 29 63 41 28 65 42 28 65 42 28 67 43 31 68 45 31 70 44 31 69 43 30 65 39 26 66 38 26 66 40 27 66 40 27 66 40 27 61 38 24 61 38 24 61 38 24 61 38 24 61 38 24 62 39 25 63 40 26 64 41 27 65 42 26 68 45 29 71 43 29 71 45 28 72 46 31 69 42 31 62 40 27 56 38 26 50 32 20 45 31 18 39 26 18 30 21 14 25 20 16 24 20 17 21 20 18 18 17 13 23 19 16 27 19 16 35 21 18 38 24 21 43 25 21 41 26 21 41 26 21 42 29 23 
76 51 31 75 48 31 73 46 29 71 45 28 74 48 31 75 52 34 78 55 39 81 58 44 82 59 43 85 62 46 87 64 48 86 65 48 85 63 49 82 59 43 78 55 41 74 52 39 68 48 37 62 44 32 45 31 20 38 28 19 37 29 18 42 32 22 51 37 26 63 43 34 70 52 40 79 59 48 82 62 51 86 66 55 84 64 53 84 64 53 79 59 48 77 57 46 70 50 41 67 47 36 62 42 33 57 37 30 54 34 27 56 37 30 62 42 33 65 47 37 70 48 37 74 52 38 75 53 39 72 50 36 65 46 32 60 42 30 53 36 28 47 32 25 42 29 23 37 26 20 38 28 19 45 32 24 52 33 26 57 35 24 59 37 23 60 38 25 61 39 26 63 39 27 64 41 27 67 44 30 70 44 31 71 45 32 70 44 29 68 42 29 66 40 27 65 39 26 65 39 26 67 41 28 64 38 25 65 39 26 66 40 27 65 39 26 61 35 20 61 38 24 60 37 23 61 39 25 63 42 25 69 46 30 70 44 29 71 45 30 71 45 28 72 46 31 66 43 27 63 40 26 58 39 24 53 35 21 44 30 19 34 24 15 28 21 13 24 19 16 24 20 17 21 17 16 23 19 16 28 20 17 32 21 17 37 23 20 41 26 21 42 27 20 41 28 22 42 27 22 
78 51 34 77 50 33 76 50 33 73 47 32 74 48 33 72 49 31 76 50 33 77 51 34 76 53 37 80 57 41 84 58 43 81 58 40 80 57 41 79 56 42 74 50 38 67 45 34 60 42 28 56 39 29 42 29 20 40 30 20 41 31 21 47 34 25 57 40 30 65 45 34 73 55 43 81 63 53 86 66 55 89 69 58 82 64 52 79 61 49 77 57 46 72 54 42 64 44 35 58 39 32 55 36 29 51 32 25 55 35 28 58 38 29 63 43 34 69 49 38 77 55 42 81 62 47 82 61 44 81 59 45 78 57 40 72 50 37 63 43 34 56 38 28 49 32 25 43 29 20 42 28 19 45 31 20 49 33 20 53 35 23 55 36 22 59 37 26 59 37 24 60 38 25 63 40 26 66 43 29 69 46 32 67 44 30 67 41 28 67 41 28 66 40 25 66 40 27 65 39 26 62 36 23 69 40 26 70 42 28 69 43 30 66 40 27 65 39 24 60 37 23 58 34 22 55 33 19 58 36 22 62 39 25 65 42 28 67 44 30 71 43 29 70 43 26 72 46 33 70 43 26 67 41 24 65 43 29 58 40 26 49 32 22 43 29 20 39 26 20 35 26 19 27 22 18 27 22 18 31 22 17 31 20 16 35 24 20 41 26 21 43 28 23 45 28 20 44 27 20 
73 50 32 72 49 33 75 49 32 73 50 32 73 47 30 75 49 32 76 50 33 78 52 35 79 53 36 79 53 36 79 53 38 79 53 38 78 55 39 71 49 35 65 43 30 59 39 30 54 37 27 47 33 24 40 27 19 43 30 21 47 34 25 54 37 27 61 43 33 68 48 37 75 57 45 81 63 49 85 67 55 85 67 55 79 63 50 77 59 47 73 55 43 66 48 38 53 40 31 50 35 28 49 32 25 49 32 25 54 35 29 61 41 32 67 47 40 72 52 41 78 59 45 82 63 49 87 65 51 86 64 50 82 63 48 79 57 44 73 54 40 67 47 36 61 43 31 57 39 27 53 35 23 53 37 24 53 35 23 52 33 19 54 32 19 56 34 21 57 35 22 58 36 23 59 37 24 63 36 25 64 40 28 65 42 28 67 44 30 71 45 32 68 42 29 68 42 29 68 42 29 66 40 27 67 41 28 70 44 29 71 45 32 67 41 28 64 41 27 65 42 28 62 39 25 59 37 23 56 34 23 57 35 22 56 34 20 58 36 22 65 38 27 68 45 31 72 46 33 71 43 29 70 41 27 69 43 30 66 43 29 61 39 26 56 36 25 53 35 23 48 31 23 38 28 19 34 23 17 32 21 17 33 22 18 35 24 18 40 25 20 44 27 20 46 29 22 47 30 23 
68 47 30 68 47 30 69 46 30 71 45 30 70 47 31 74 47 30 73 50 32 75 52 34 75 52 36 75 52 34 73 50 34 72 50 36 70 48 35 67 45 34 60 40 33 53 36 28 48 34 25 45 31 22 42 27 20 47 33 24 54 37 30 60 42 32 66 46 37 72 52 41 78 60 46 82 64 50 84 66 52 80 64 51 77 61 48 73 57 44 68 50 40 61 44 34 49 34 27 43 30 24 45 27 23 46 28 24 54 35 31 64 44 37 69 50 43 76 56 45 82 63 49 87 68 53 90 68 55 89 67 53 88 66 52 85 63 49 81 59 46 76 54 41 71 52 38 66 47 33 62 43 29 59 40 26 57 38 24 56 34 20 55 33 20 54 35 21 56 34 21 58 36 23 55 36 22 55 33 20 60 36 24 62 38 26 65 41 29 68 44 32 70 44 31 69 43 30 68 42 29 69 43 30 69 43 30 71 45 32 71 45 32 70 44 29 67 44 30 67 44 30 66 43 29 63 40 26 60 38 25 54 35 21 53 33 22 52 33 19 57 35 22 63 39 27 66 43 27 68 42 27 69 41 29 69 41 29 69 43 30 68 42 29 65 42 28 63 41 28 57 37 26 52 34 24 43 29 20 39 24 17 37 24 16 38 23 18 40 25 18 44 27 20 45 28 20 49 30 24 
59 40 26 59 40 26 59 40 26 63 41 28 65 43 30 68 46 32 69 48 31 70 49 32 72 51 34 72 51 34 70 48 34 68 46 33 66 44 33 61 41 30 55 37 27 51 34 26 45 30 23 43 28 21 43 28 21 52 35 27 59 41 31 65 45 34 70 50 39 77 59 47 83 65 51 84 65 51 83 64 50 78 60 46 75 59 46 72 54 42 62 48 37 54 40 31 39 29 20 39 26 20 38 25 19 45 27 23 55 34 29 64 44 37 73 50 42 80 58 47 85 66 52 90 71 57 92 70 57 93 71 58 90 68 54 86 67 52 86 64 50 82 60 46 79 57 43 76 54 40 70 48 35 68 46 33 65 43 30 62 40 27 59 37 24 57 34 26 56 34 23 56 34 23 56 34 21 51 32 18 56 34 21 58 36 23 60 38 25 67 43 31 67 43 33 67 43 31 66 43 29 68 42 29 70 44 31 70 47 33 73 47 34 74 48 35 73 47 34 71 45 32 68 44 32 67 44 28 64 41 27 59 37 24 53 33 22 52 32 21 51 32 18 56 34 21 62 36 23 63 39 27 67 39 27 68 40 29 71 43 31 71 43 29 71 45 32 67 44 30 66 42 30 62 40 27 53 35 23 48 31 21 45 28 18 42 25 18 42 25 17 44 25 18 47 27 20 48 29 22 
49 32 24 49 32 24 51 34 24 54 34 25 56 38 26 58 40 28 61 41 30 60 42 28 63 45 31 64 45 30 62 45 29 61 44 28 59 41 29 58 40 30 52 35 27 43 29 20 42 27 20 41 26 19 49 32 24 58 40 30 64 44 33 68 48 37 73 55 43 81 63 49 84 66 52 84 65 51 80 61 47 77 57 46 74 54 43 68 50 40 61 43 33 50 36 27 38 28 19 39 26 20 40 25 20 47 30 23 55 36 29 66 46 37 73 51 40 81 59 48 84 65 51 90 71 57 92 72 61 92 73 56 90 71 56 90 68 54 89 67 53 85 66 52 85 63 49 83 61 47 78 56 43 75 53 40 72 50 37 68 46 33 66 42 30 63 39 27 57 35 22 54 35 21 53 34 20 53 31 18 55 33 20 57 35 22 57 35 22 61 39 26 60 41 27 63 39 27 63 40 26 63 40 26 67 44 30 65 42 28 71 45 32 73 45 33 73 47 34 70 44 29 71 45 32 69 43 28 65 42 28 60 38 25 57 35 22 54 34 23 53 33 22 52 32 21 55 36 22 59 35 25 62 38 26 67 39 27 71 43 31 74 45 31 72 44 30 71 42 28 73 45 31 70 47 31 64 42 28 61 39 26 54 34 23 48 28 17 46 26 17 46 26 17 46 28 18 46 28 18 
34 25 18 35 24 18 35 24 18 38 25 17 41 28 20 46 32 23 47 33 24 48 34 25 51 37 26 51 37 26 50 36 25 53 36 26 51 37 28 55 41 32 51 37 28 51 34 27 47 32 25 48 31 24 52 33 26 60 40 29 68 46 33 73 54 40 74 56 42 81 62 48 82 63 49 82 63 49 78 59 45 75 55 44 69 51 39 61 43 33 53 36 29 46 31 24 39 26 18 40 25 20 44 29 22 52 33 26 60 40 31 70 50 39 75 55 44 83 64 50 86 67 53 88 69 54 91 72 58 92 73 59 92 73 58 91 72 57 90 71 56 88 69 54 88 70 56 87 68 53 84 65 50 80 61 47 79 57 44 75 53 40 70 48 35 64 42 29 62 40 27 61 39 26 58 36 23 55 33 20 55 36 22 55 36 22 57 35 22 60 38 25 62 40 27 64 40 28 64 40 28 63 39 27 65 41 29 65 41 29 67 44 30 67 41 28 67 44 30 70 44 29 70 44 31 70 44 29 66 43 25 63 39 27 60 37 23 58 36 23 55 36 22 52 32 21 55 33 22 55 33 22 56 32 20 59 32 21 64 38 25 69 43 30 72 46 31 74 46 32 77 48 32 78 49 33 76 49 32 74 46 32 67 44 28 62 40 26 57 35 22 55 33 20 53 31 18 49 27 14 
26 21 18 26 21 15 29 19 18 31 23 20 32 22 20 34 25 18 37 26 20 38 27 21 41 28 22 42 29 21 42 29 21 43 30 22 45 32 24 49 36 28 49 34 27 53 36 29 57 38 31 57 38 31 59 39 30 64 42 31 70 48 35 76 54 41 80 58 45 80 61 47 81 59 46 79 57 44 75 56 42 70 50 43 62 44 34 55 38 30 46 33 24 42 29 21 41 24 17 42 27 20 49 32 24 56 38 28 66 46 37 74 54 43 79 59 48 83 64 50 86 67 52 86 69 53 89 72 56 90 73 57 91 72 57 92 75 59 92 73 59 91 72 57 91 72 57 93 71 57 91 70 53 87 65 51 84 62 48 80 58 44 79 56 42 72 49 35 67 45 34 64 42 29 63 41 28 57 38 24 56 37 23 56 36 25 59 37 24 60 38 25 61 39 26 62 40 27 61 39 26 62 38 26 64 40 28 63 39 27 60 38 24 62 40 26 66 43 29 66 43 29 69 43 30 69 43 28 68 45 29 65 42 28 65 42 28 62 39 25 60 38 24 57 35 22 57 35 22 56 34 21 54 32 21 57 30 19 58 34 24 60 36 26 65 39 26 67 44 30 73 45 31 80 51 37 81 52 36 78 51 32 74 48 31 71 45 28 68 40 26 63 37 24 59 36 22 57 34 20 
19 17 18 20 19 17 22 18 17 24 20 19 26 22 19 27 23 20 27 24 19 31 23 20 31 23 20 32 25 19 32 25 19 34 25 20 36 27 22 41 31 22 43 30 22 53 36 29 59 39 30 63 43 34 65 43 32 69 47 36 73 51 37 78 54 42 82 58 46 79 57 46 79 57 44 77 55 44 73 53 42 66 46 37 59 39 30 51 34 27 44 31 22 42 29 21 42 27 20 48 31 23 53 36 26 60 42 32 70 50 39 78 58 49 83 61 48 84 65 50 84 67 51 86 69 53 88 71 55 89 71 57 90 73 57 92 75 59 92 73 58 91 72 55 91 72 57 90 71 56 91 69 56 90 68 55 88 66 52 86 64 50 83 61 47 78 56 43 75 54 37 70 48 34 66 44 31 62 40 27 58 39 25 58 39 25 58 39 24 62 39 25 58 36 23 58 36 23 62 38 26 62 38 26 61 39 26 62 38 26 61 38 24 61 38 24 65 42 28 65 42 28 68 42 29 69 43 30 70 44 31 69 43 28 67 44 30 67 41 24 66 40 27 62 40 26 61 38 24 61 37 25 58 34 22 58 31 20 56 32 22 54 32 19 57 33 21 61 38 24 64 41 27 75 47 33 79 50 34 78 51 34 76 51 31 76 49 30 74 47 28 69 46 28 68 42 25 66 38 24 
15 17 16 15 17 16 16 17 19 17 18 20 18 18 18 20 19 17 20 19 17 22 20 21 24 20 19 23 19 18 24 20 17 26 21 18 27 22 18 33 26 20 39 26 20 46 31 24 56 38 28 62 42 31 69 45 33 73 50 36 77 54 40 79 55 43 80 58 45 79 57 44 77 55 44 74 52 41 70 47 39 62 42 33 56 36 29 48 31 24 43 28 23 43 31 19 52 33 26 54 36 26 59 41 29 65 47 35 72 54 40 78 62 47 83 64 49 84 67 51 85 66 51 84 67 51 87 70 54 87 70 54 86 70 54 89 72 56 90 73 57 88 72 56 89 72 56 89 72 56 91 72 57 89 70 55 89 70 55 90 68 54 84 67 51 86 64 50 81 59 45 78 56 42 71 52 38 64 45 31 62 43 29 63 39 27 61 39 26 59 37 24 58 34 22 61 37 25 65 39 26 63 40 26 59 37 23 57 35 21 58 36 23 59 37 24 60 37 23 62 40 26 64 41 27 65 42 26 66 43 27 69 43 28 72 44 30 70 44 29 72 45 28 70 44 29 69 43 30 67 40 29 67 39 27 60 36 24 54 30 18 52 30 19 51 31 20 55 33 20 58 34 22 66 40 25 73 47 32 77 50 33 78 53 33 77 52 30 80 53 34 76 49 30 77 48 30 73 46 27 
11 17 17 12 16 17 13 17 18 12 18 18 16 17 19 16 17 19 17 18 20 19 19 21 19 19 21 22 20 21 23 22 20 22 21 19 21 20 16 25 22 15 34 25 18 44 31 23 54 37 29 61 41 32 69 47 36 72 50 37 74 52 39 76 52 40 73 51 40 73 53 42 72 52 41 74 51 43 67 47 38 60 41 34 53 34 27 49 30 23 46 29 21 48 31 23 59 41 31 62 44 34 68 48 37 73 54 40 78 61 45 79 63 47 83 66 50 85 68 50 85 68 52 87 70 52 87 70 54 87 70 54 87 70 52 88 71 55 89 72 56 89 72 56 90 73 57 89 73 57 91 72 57 89 72 56 88 72 56 90 71 56 89 70 55 88 69 54 89 67 53 86 64 50 82 60 46 75 53 39 69 50 35 69 46 32 68 46 32 64 41 27 66 40 27 64 41 27 65 42 28 66 43 29 60 38 25 57 35 22 56 34 21 56 34 21 56 34 21 59 37 23 61 39 25 63 40 26 65 42 28 69 43 26 71 45 30 71 45 30 72 46 31 73 45 31 72 44 30 71 43 29 71 42 28 67 39 27 61 34 23 57 35 24 55 35 24 51 31 22 48 30 20 54 32 19 64 42 28 68 45 29 71 48 30 75 50 30 79 52 33 79 52 31 79 51 29 79 51 30 
12 17 20 11 16 19 12 16 19 14 15 19 12 17 20 12 18 18 13 17 18 14 18 19 14 18 21 18 19 21 18 20 19 19 19 19 20 19 17 22 21 17 28 23 19 39 25 22 47 34 26 56 39 31 63 43 34 66 47 33 71 49 36 69 49 38 65 49 36 67 49 39 65 47 37 64 44 33 61 41 34 55 36 29 51 32 25 49 30 23 49 30 23 55 37 27 61 41 32 68 48 37 75 56 42 78 59 45 81 64 48 84 67 49 85 68 50 86 69 51 88 69 52 86 69 53 86 69 51 85 68 52 85 68 52 86 69 53 87 70 54 88 71 55 89 72 56 89 72 56 90 73 57 90 73 57 90 73 57 91 72 57 89 72 56 90 71 56 89 70 55 88 69 54 84 65 50 83 60 46 79 57 43 77 55 41 74 52 38 70 47 31 72 46 33 72 46 33 69 46 32 66 44 31 62 40 27 60 38 25 59 37 24 56 34 21 51 31 20 55 33 20 54 36 22 58 36 23 62 39 25 69 41 29 67 44 30 72 46 31 73 46 29 75 46 30 75 46 30 75 46 30 73 44 30 71 42 28 67 39 25 65 39 26 59 35 23 55 33 22 50 32 18 51 31 20 55 36 22 62 40 26 65 44 27 69 46 28 79 54 32 82 55 34 85 57 36 85 57 36 
12 17 20 12 17 20 11 16 19 11 16 19 11 16 19 12 17 20 12 18 18 12 17 20 12 16 19 12 16 19 15 19 20 16 18 17 17 19 18 20 20 18 21 20 16 28 25 20 37 28 23 46 33 27 53 39 30 58 41 33 59 42 32 57 43 34 54 40 31 57 40 32 58 41 33 57 40 32 53 36 29 49 32 25 48 31 24 48 31 23 54 35 28 61 41 32 72 50 39 76 54 40 77 58 44 81 62 47 83 64 47 85 66 49 86 67 52 85 68 50 87 70 54 87 70 54 87 70 54 86 69 53 86 69 53 85 68 52 86 69 53 86 69 53 88 71 55 88 71 55 90 73 57 89 72 56 89 72 56 90 73 57 89 72 56 90 71 56 91 72 58 90 71 57 87 68 54 86 64 51 85 63 50 83 61 48 81 59 45 77 54 40 75 52 38 74 51 37 72 49 35 71 45 32 65 42 28 62 40 26 59 37 24 56 34 21 48 30 18 51 31 20 51 33 21 53 35 23 58 36 23 61 39 26 65 41 29 66 43 29 72 44 30 73 44 30 74 45 29 78 46 33 77 45 32 77 45 32 72 42 31 69 41 27 66 40 27 62 38 26 58 36 23 55 33 20 56 34 20 57 35 21 61 38 22 66 43 25 76 51 31 82 55 34 86 58 37 87 59 38 
8 16 19 11 16 20 11 16 19 11 16 19 10 15 18 10 15 18 8 16 18 7 17 18 11 16 20 12 18 18 12 18 18 14 18 19 16 18 17 17 19 16 18 20 17 21 20 16 27 23 20 31 26 20 39 30 25 41 34 26 45 32 26 43 32 26 43 33 24 50 35 28 49 34 27 49 32 25 49 32 25 44 30 21 47 30 23 51 34 27 56 38 26 62 42 31 77 55 44 82 58 46 85 63 50 87 65 51 85 66 49 83 66 48 85 68 50 86 69 51 87 70 50 86 69 51 87 70 52 86 69 51 86 69 53 84 67 49 86 67 52 86 67 52 87 68 51 87 68 53 90 71 56 87 70 54 88 71 55 91 72 57 90 71 56 90 71 56 89 70 55 89 70 55 89 70 55 89 67 53 88 66 52 87 65 51 86 64 50 83 61 47 80 58 44 78 56 42 74 52 38 73 51 37 70 48 34 65 43 29 60 38 25 56 34 21 50 31 17 50 32 20 50 32 20 51 33 21 52 34 22 56 34 23 61 37 27 64 40 28 68 40 28 71 42 28 72 43 29 77 48 32 77 48 32 78 49 35 77 45 32 75 46 32 73 45 31 70 44 31 67 40 29 60 37 23 57 34 20 55 33 19 57 34 18 62 39 21 72 47 27 78 51 30 82 55 34 86 58 37 
9 14 18 8 16 18 9 17 19 9 17 19 11 16 19 10 15 18 8 16 19 8 16 18 11 16 19 11 16 19 13 17 18 13 17 18 12 18 18 14 20 20 15 19 18 14 18 17 16 18 15 19 18 16 23 19 16 25 20 16 26 21 17 32 23 18 38 29 24 41 32 27 42 31 25 44 29 24 43 28 23 44 29 24 45 30 23 51 34 26 56 38 28 61 41 32 79 55 43 83 61 48 86 64 50 89 68 49 87 68 51 85 66 49 85 68 50 88 69 52 87 70 54 86 69 53 86 69 53 87 68 51 86 67 52 85 66 49 88 69 52 87 68 51 87 68 51 87 68 51 88 71 55 88 69 54 88 71 55 90 71 56 88 69 54 88 69 54 88 69 54 91 72 57 91 72 57 91 72 57 90 71 56 88 69 54 88 69 54 87 65 51 85 66 51 83 61 47 81 59 45 77 55 41 73 50 36 70 47 33 66 44 31 62 40 27 56 37 23 50 32 20 49 31 19 49 33 20 50 32 20 52 32 23 55 35 24 61 37 27 65 38 27 64 36 24 70 41 27 73 45 31 77 48 34 77 48 32 76 47 31 76 48 34 76 49 32 77 50 33 74 46 32 64 41 25 58 35 21 57 36 19 56 33 17 58 35 17 64 39 19 73 46 27 76 49 30 82 54 33 
6 14 17 8 17 16 9 17 19 11 16 19 11 16 19 9 17 19 10 19 18 9 17 19 8 16 18 11 16 19 12 17 20 13 19 19 14 18 19 16 20 21 13 17 20 11 15 14 11 15 16 11 15 16 15 17 16 16 18 17 18 18 16 21 20 16 28 25 20 34 26 23 40 29 23 42 29 23 43 30 24 45 30 23 47 30 23 52 33 26 55 35 26 62 40 29 79 52 43 79 55 43 83 60 46 86 64 50 86 67 50 86 67 50 84 67 49 87 68 53 88 69 54 85 66 51 85 66 49 86 67 52 88 69 52 88 69 52 87 68 53 88 67 50 89 68 51 86 67 50 88 67 50 87 65 51 88 66 52 88 69 54 87 65 51 87 68 54 88 71 55 90 71 56 90 72 58 92 74 60 90 72 58 92 74 60 92 73 59 89 71 57 89 70 55 89 70 55 86 67 52 86 64 50 82 59 45 79 56 42 74 52 38 71 49 35 69 47 33 60 41 27 55 36 22 53 31 18 48 30 18 52 33 19 57 35 24 57 33 23 57 30 21 56 29 20 65 39 26 67 41 28 71 43 29 73 45 31 76 47 31 81 49 34 77 50 33 76 49 30 77 50 33 73 46 29 72 44 30 69 43 28 67 41 24 65 38 19 66 41 21 69 43 26 73 46 29 77 48 30 
7 17 18 9 17 19 9 18 17 9 18 17 8 16 18 8 16 18 11 16 19 9 17 19 8 16 18 11 16 19 8 17 16 11 17 17 13 17 18 15 19 20 14 18 19 13 19 17 11 15 16 11 17 17 10 16 16 12 16 19 15 16 18 20 20 18 26 22 19 35 28 22 43 30 24 46 31 28 49 32 25 50 33 26 50 31 24 53 34 27 56 36 27 62 40 29 73 51 40 76 52 40 80 57 43 83 61 47 85 66 49 87 68 53 86 69 53 85 68 50 86 69 51 87 68 53 86 67 50 86 69 53 87 68 51 87 68 51 87 68 51 89 68 51 88 67 50 90 67 49 85 64 45 84 63 44 85 64 47 88 67 50 87 65 51 88 66 53 88 69 55 89 70 56 90 72 58 91 73 59 93 75 61 93 75 61 92 74 60 91 73 59 89 71 57 90 71 57 89 70 55 87 68 53 85 63 49 83 61 47 80 58 44 77 55 41 74 52 38 67 45 32 60 41 27 56 37 22 53 34 20 52 32 21 53 31 20 52 30 19 52 28 18 53 29 19 56 34 21 60 36 24 64 41 25 69 43 28 73 46 29 76 47 31 76 49 30 77 50 33 78 51 32 78 49 35 77 50 31 74 47 30 71 44 27 67 39 25 69 42 25 71 44 27 73 44 28 77 48 30 
7 15 17 8 16 18 8 16 18 8 16 18 8 16 18 8 16 18 8 16 18 8 16 18 8 16 18 8 16 18 10 16 16 11 17 17 12 18 18 11 20 19 12 18 18 12 16 19 13 19 19 12 18 18 10 16 16 11 17 17 13 17 18 16 18 17 21 21 19 30 25 22 41 30 26 47 32 27 51 34 26 51 32 25 54 35 28 54 36 26 55 36 29 60 40 29 67 47 36 71 49 38 76 52 40 80 58 45 85 63 49 84 65 50 86 67 50 87 68 51 87 68 51 87 68 51 86 67 50 87 68 53 88 66 52 90 67 53 90 67 51 89 66 50 88 67 50 87 66 49 85 64 45 83 62 45 83 62 45 87 64 50 86 65 48 86 67 50 89 67 53 88 69 55 90 71 57 89 73 58 91 73 59 91 75 60 93 75 61 91 73 59 91 73 59 90 72 58 90 72 58 89 70 56 88 66 52 89 67 53 86 64 50 84 62 48 81 58 44 74 52 38 70 48 34 64 45 30 60 38 24 58 36 23 56 34 21 54 30 20 52 28 18 50 28 17 52 30 19 55 33 22 59 36 22 64 38 25 70 42 28 72 45 26 75 48 31 78 49 31 80 51 33 80 53 34 79 52 33 78 51 32 74 47 28 71 42 24 70 43 24 71 42 24 74 45 27 75 48 27 
7 15 18 7 15 17 8 16 18 8 16 18 8 16 18 8 16 18 9 17 19 9 17 19 8 16 18 8 16 18 10 15 18 10 15 18 10 15 18 11 17 17 11 17 17 12 17 20 11 17 17 12 18 18 10 16 16 11 17 17 12 16 15 15 17 16 18 18 16 27 22 19 37 28 23 47 32 25 54 35 28 53 36 28 53 35 25 54 36 26 55 37 27 54 38 25 60 42 30 65 45 36 72 50 37 77 55 42 81 59 45 83 61 47 84 62 48 86 64 50 87 66 49 86 67 50 87 66 49 88 67 50 89 66 50 88 67 50 88 67 50 87 66 45 90 64 47 87 64 46 88 65 49 84 61 43 84 61 43 84 61 45 85 62 46 86 63 49 85 66 51 89 67 53 89 70 55 90 71 57 90 72 58 92 74 60 93 75 63 92 74 62 91 75 60 91 73 59 92 74 60 92 73 59 90 71 57 91 72 57 89 70 55 88 69 55 88 65 51 83 61 47 80 58 44 75 54 37 70 49 32 65 43 29 60 38 25 58 34 24 51 31 22 49 29 18 48 28 17 49 30 16 54 32 19 58 36 23 63 40 26 68 42 25 71 44 27 75 48 29 79 50 32 81 53 32 82 53 35 80 53 32 77 50 31 75 46 28 74 45 27 73 44 26 73 44 26 75 47 26 
6 14 16 7 15 18 8 16 18 8 17 16 8 16 18 8 16 18 9 17 19 9 17 19 8 16 18 8 16 19 10 15 18 10 15 18 10 15 18 10 15 18 9 15 15 8 16 18 10 16 16 11 17 17 11 17 17 12 18 18 14 18 21 13 17 18 15 17 16 24 20 17 35 26 21 46 31 24 53 34 27 52 33 26 51 32 25 52 33 26 49 32 24 46 32 23 50 33 25 56 38 28 62 42 33 66 46 35 72 50 37 77 55 41 81 59 45 84 62 48 85 63 49 86 64 50 85 64 47 88 67 48 90 67 49 86 63 45 85 64 47 87 64 48 87 64 48 86 64 43 89 66 48 86 63 45 85 62 44 85 62 44 82 59 41 82 59 45 84 61 45 86 65 48 89 67 53 92 70 56 90 71 56 90 71 57 90 72 58 90 73 57 92 74 60 94 76 62 95 77 63 94 76 62 92 72 61 92 74 60 92 73 59 94 72 58 91 69 55 90 68 54 86 67 52 84 62 48 78 56 42 74 52 38 68 46 32 63 41 27 56 37 23 53 34 20 50 31 17 52 30 17 51 32 18 55 33 20 59 36 22 65 39 22 68 40 26 73 44 26 76 47 29 82 54 33 85 54 36 84 56 35 85 54 36 82 53 35 78 51 32 77 50 31 78 49 31 77 48 30 
7 15 17 7 15 17 7 15 18 10 15 19 11 16 19 9 17 19 8 16 18 8 16 18 8 16 18 7 15 17 6 14 16 9 14 17 8 13 17 9 14 17 11 16 19 11 16 19 11 16 19 11 17 17 14 18 19 13 17 18 15 19 20 14 18 21 17 19 18 25 21 20 35 25 23 44 30 27 51 34 27 50 31 25 46 29 22 45 30 23 40 30 21 39 29 20 40 30 21 45 32 24 50 36 27 54 37 27 62 42 31 71 49 38 76 53 39 81 58 42 83 60 46 88 61 44 87 64 46 87 64 46 88 65 47 85 59 42 83 62 45 87 61 46 88 65 47 88 65 49 89 66 48 88 65 47 87 64 46 85 62 46 83 60 44 83 60 44 84 61 45 85 62 48 87 66 49 88 67 50 88 66 52 89 67 53 86 67 52 89 70 56 90 72 58 93 75 61 94 76 62 95 76 62 92 74 60 93 74 60 92 73 59 91 72 57 89 70 55 90 71 56 89 72 56 88 69 54 87 65 51 81 59 45 78 56 42 73 51 37 68 46 32 61 40 23 57 35 24 55 33 20 56 33 19 53 31 17 56 32 20 61 35 22 65 37 25 68 40 26 72 43 27 81 50 32 85 52 33 86 55 37 84 55 37 83 56 37 83 56 35 82 55 34 83 56 35 82 55 34 
8 16 19 8 16 18 8 16 19 9 14 18 10 15 18 8 16 18 8 16 18 8 16 18 8 16 18 8 16 19 7 15 18 7 15 18 10 15 21 10 15 19 11 16 19 10 15 18 10 16 16 11 16 20 14 18 19 14 18 17 14 18 19 16 18 17 17 17 15 22 21 17 31 23 20 36 27 22 46 31 26 45 30 25 44 29 24 38 27 21 35 28 22 33 24 17 37 26 20 38 27 21 43 30 21 49 34 27 58 40 30 64 44 33 70 48 35 75 52 38 79 56 40 83 57 42 86 60 43 87 61 44 88 62 45 86 60 43 83 60 42 85 62 48 88 62 45 89 63 48 89 66 48 87 64 48 86 63 45 87 64 46 85 62 44 86 60 45 84 61 45 85 62 46 85 64 47 84 63 46 85 64 47 86 65 48 86 64 50 88 66 52 89 70 55 92 73 59 94 75 61 92 74 60 93 74 60 92 74 60 94 75 61 96 74 61 91 74 58 92 74 60 89 73 58 89 71 57 89 70 55 84 65 50 84 63 46 81 60 43 77 56 39 71 49 35 64 43 26 61 39 25 59 36 22 57 34 20 56 33 19 60 33 22 64 36 25 67 39 27 72 43 27 79 47 32 83 50 33 84 53 35 85 56 38 84 57 38 84 57 36 85 58 37 84 57 36 86 58 37 
8 16 18 8 16 19 9 14 17 9 14 17 11 16 19 10 15 18 7 16 15 8 16 18 7 15 17 7 15 18 8 16 19 8 16 19 8 16 19 10 15 19 10 15 18 10 15 18 10 15 18 10 15 18 14 18 21 13 17 18 13 17 18 15 16 18 16 18 17 18 18 16 25 21 18 30 22 19 34 23 21 37 27 25 36 27 22 33 25 22 30 25 21 27 22 18 29 24 18 31 24 18 36 27 20 44 31 23 53 36 26 58 40 28 61 42 28 67 43 31 75 49 36 80 54 39 83 57 40 83 60 44 86 60 45 82 59 41 83 60 42 84 58 41 85 62 44 87 61 46 90 64 49 87 64 46 86 63 45 87 64 48 86 63 45 86 63 45 86 63 47 85 64 47 84 61 45 83 60 44 84 61 45 84 61 47 84 63 46 85 64 47 88 67 48 92 70 56 94 72 58 93 71 57 91 72 57 93 74 60 94 75 61 94 76 62 94 75 61 93 75 61 91 73 59 92 75 59 92 73 58 90 71 56 89 67 53 88 66 52 88 67 50 84 63 46 76 55 36 71 48 32 65 42 28 62 39 25 60 37 21 61 35 22 60 37 23 64 38 25 70 41 27 77 45 32 81 50 32 82 50 35 83 54 36 85 58 37 86 58 37 85 58 37 84 59 37 87 60 39 
7 15 17 8 16 19 10 15 19 11 16 19 10 15 18 10 15 18 8 16 18 7 16 15 7 15 17 7 15 18 8 16 19 7 15 17 8 16 19 7 15 18 6 14 16 7 15 17 10 15 18 11 16 19 13 17 18 13 17 18 12 16 17 16 17 19 16 17 19 16 17 19 16 18 17 19 18 16 19 18 16 21 20 18 22 21 19 24 20 19 24 20 17 23 19 18 24 19 16 29 21 19 33 23 21 38 27 23 48 31 24 50 33 25 55 37 25 63 41 30 69 45 33 74 51 37 81 55 40 82 56 41 82 56 41 82 56 39 81 55 38 80 57 41 83 57 42 85 59 44 87 61 44 88 62 45 89 63 48 85 62 46 88 65 49 88 65 49 88 62 47 87 61 44 83 60 42 82 59 41 83 60 42 82 59 41 84 58 41 84 61 43 86 63 47 88 65 47 90 67 49 92 71 54 92 73 56 94 75 60 92 74 60 92 74 60 94 75 61 93 75 61 94 76 62 93 76 60 94 75 60 93 74 59 93 74 59 91 72 57 92 71 54 91 68 52 86 63 45 80 59 40 77 51 38 67 44 28 63 40 22 61 35 20 61 35 20 61 35 20 65 37 23 73 44 30 78 49 33 80 51 35 82 54 33 84 56 35 85 58 39 86 59 38 87 60 39 89 62 41 
8 16 18 8 16 18 10 15 19 10 15 19 10 15 18 10 16 16 8 17 16 7 15 17 7 15 17 6 14 17 6 14 17 6 14 17 6 14 17 5 13 16 6 14 16 7 15 17 9 14 17 10 15 18 11 16 19 10 14 17 11 15 16 12 16 17 14 18 21 14 18 19 14 18 19 12 16 15 12 16 15 15 16 18 17 17 17 18 18 18 20 20 20 23 21 22 24 18 18 28 19 20 30 22 20 34 24 22 38 27 23 43 30 22 47 33 24 53 35 25 57 39 27 63 41 28 68 46 33 71 49 35 78 52 39 76 53 37 76 53 37 79 53 38 79 53 36 80 54 39 81 56 36 82 56 39 85 59 42 84 61 43 86 63 45 89 66 50 88 65 49 87 64 48 84 61 45 83 60 42 82 59 41 79 56 38 79 54 34 81 54 35 81 56 36 84 59 39 86 64 43 89 66 48 90 71 54 94 71 55 91 72 57 91 73 59 92 73 59 93 74 60 95 76 62 96 77 63 97 78 63 93 74 59 94 75 60 96 74 60 94 75 60 96 75 58 90 69 52 89 68 51 87 66 49 84 61 43 75 52 34 71 45 30 69 43 26 68 42 27 66 40 25 68 40 26 72 44 30 76 47 31 78 49 31 81 55 32 84 57 36 88 60 39 89 62 41 91 63 41 
10 18 20 9 17 19 9 17 20 8 16 18 7 15 17 8 16 18 8 16 18 7 15 17 6 14 16 6 14 16 6 14 17 6 14 17 6 14 17 6 15 20 7 15 17 7 15 17 7 15 17 9 14 17 10 15 18 10 15 18 10 15 18 11 16 19 12 17 20 14 18 19 12 16 17 12 16 17 12 16 17 14 15 17 16 16 16 17 17 17 17 17 17 20 18 19 25 19 19 26 21 18 30 22 20 33 23 21 35 26 21 41 28 22 44 31 23 46 33 25 49 32 25 54 34 25 57 37 26 64 42 31 71 49 35 76 53 37 78 52 39 76 50 33 78 52 37 78 52 35 77 51 34 79 53 36 81 55 38 81 59 38 84 61 43 86 63 45 90 64 47 88 65 49 87 64 48 86 63 47 85 62 44 82 59 41 81 56 36 78 51 32 76 51 29 79 52 31 84 57 38 85 60 38 93 68 48 92 69 51 91 70 53 94 72 58 93 71 57 92 73 58 93 76 60 94 76 62 94 77 61 93 76 60 94 77 61 94 75 61 96 77 62 96 77 62 92 73 56 94 73 56 92 71 52 91 68 52 85 62 44 81 55 38 78 52 37 77 51 36 72 44 30 69 42 25 72 43 27 74 45 27 76 49 28 79 51 30 82 55 36 86 59 38 88 60 39 89 61 40 
9 17 19 9 17 20 8 16 18 8 16 18 7 15 17 8 16 18 8 16 18 7 15 17 7 15 17 6 14 16 7 15 17 7 15 18 7 15 18 9 14 18 7 15 17 9 14 17 7 15 17 8 16 18 10 15 18 7 15 17 9 14 17 10 15 18 13 17 20 11 17 17 11 16 19 11 15 18 14 15 17 14 15 17 16 18 17 16 16 18 17 17 17 19 17 18 23 19 18 29 20 21 31 23 21 33 23 21 36 25 21 40 29 23 42 29 23 43 30 22 42 29 23 44 30 21 50 33 25 56 38 26 65 46 32 73 51 37 75 52 36 75 52 34 75 48 31 75 49 32 72 50 27 77 51 34 80 54 37 80 53 34 82 59 41 85 62 44 87 64 48 88 65 49 87 66 49 87 64 48 86 65 46 86 60 43 85 60 40 79 54 32 76 51 29 77 51 28 78 51 30 82 55 34 87 62 42 88 65 47 91 68 50 92 71 54 94 72 58 93 74 59 93 76 58 94 77 61 94 77 61 94 77 61 95 78 62 95 76 61 96 79 63 98 79 64 95 76 61 98 76 62 95 76 61 95 74 57 91 68 52 86 63 45 84 61 43 82 56 39 77 51 34 73 47 30 74 47 28 74 47 28 77 48 30 78 50 29 80 53 32 84 56 35 89 58 38 87 59 38 
9 17 19 8 16 18 7 15 18 8 16 18 8 16 19 10 18 20 9 17 19 10 15 18 10 15 18 7 15 17 8 16 18 8 16 19 8 16 19 8 16 18 8 16 18 7 15 17 7 15 17 7 15 17 7 15 17 7 15 17 7 15 17 7 15 18 8 16 18 8 16 18 8 13 16 12 16 19 12 16 17 14 18 19 16 15 20 15 16 20 16 16 18 18 16 17 25 19 19 28 22 22 33 25 23 34 26 23 35 26 21 39 28 22 39 28 22 38 27 21 34 25 20 37 26 20 44 31 23 50 33 25 56 39 29 65 46 32 70 48 34 75 49 34 75 52 36 74 47 30 68 45 27 73 47 30 75 50 30 77 51 34 77 56 37 83 60 42 85 62 44 85 62 44 89 66 48 92 66 49 90 67 51 89 66 50 89 63 46 82 57 37 78 52 29 76 48 26 73 46 25 74 48 25 80 58 35 85 60 40 87 65 44 91 68 50 91 70 53 94 73 56 93 74 57 93 76 60 94 76 62 94 77 61 95 78 62 96 78 64 95 77 63 96 78 64 95 78 62 97 78 63 96 77 62 96 77 62 94 75 58 95 72 56 92 69 51 91 65 48 84 61 43 82 56 39 80 53 34 79 52 33 81 52 34 80 51 33 81 53 32 84 56 35 84 56 35 84 56 34 
7 17 18 7 17 18 8 16 19 9 17 20 8 16 19 9 17 19 11 16 19 11 16 19 11 16 19 9 14 18 8 16 18 9 17 20 11 16 20 8 16 18 10 15 18 9 14 17 6 14 16 6 14 16 6 16 17 8 16 18 8 16 18 8 16 19 6 16 18 6 14 17 8 13 17 8 16 19 8 16 18 11 15 18 15 16 18 17 17 19 16 17 19 18 18 18 23 17 19 26 20 20 31 22 23 31 26 23 35 25 23 39 28 26 37 26 22 34 24 22 32 22 20 32 22 20 37 26 20 41 28 22 46 32 23 56 38 28 62 43 29 69 46 32 71 48 34 71 48 30 69 43 26 69 43 26 72 47 27 76 51 31 77 51 34 80 55 35 82 59 41 84 61 43 87 64 46 89 66 48 91 68 52 91 68 52 89 66 48 85 60 40 80 56 32 78 52 29 74 48 25 72 46 23 74 48 25 79 52 31 83 56 37 87 60 41 89 66 48 92 71 52 93 74 57 94 75 60 93 76 58 94 77 61 95 78 62 96 77 63 95 79 64 95 77 63 93 77 61 95 78 62 95 76 62 96 77 62 97 78 63 98 77 60 96 73 57 95 72 56 93 70 54 88 65 47 87 61 44 86 59 40 84 57 38 84 55 37 82 54 33 82 54 33 83 55 34 84 53 32 
5 17 17 6 16 17 7 15 18 9 17 19 9 17 20 9 17 19 12 17 20 11 16 20 9 17 19 8 16 19 10 18 20 12 17 21 12 17 21 11 16 19 11 16 19 9 14 17 9 14 17 6 14 16 6 14 16 8 16 18 8 16 18 8 15 21 6 14 17 6 14 17 8 13 17 10 15 19 10 15 19 11 15 18 14 15 17 16 17 19 19 17 20 20 20 20 22 18 19 26 20 20 28 22 22 32 24 22 34 24 22 35 27 24 34 26 23 34 24 22 31 23 20 31 23 20 35 25 23 36 27 22 37 26 20 44 31 23 52 35 25 55 37 25 61 39 26 65 42 28 65 42 26 71 45 28 74 48 31 74 47 30 73 47 30 77 52 32 77 54 36 82 56 39 83 62 43 87 64 46 87 66 49 90 67 51 90 67 49 86 64 43 85 60 38 84 57 36 79 53 30 75 49 26 74 48 25 76 48 26 78 51 30 82 54 33 86 59 42 91 66 46 94 72 51 95 74 55 96 78 58 94 77 59 93 77 61 93 77 62 95 79 64 95 79 64 95 78 62 95 77 63 95 78 62 96 77 62 98 76 62 97 78 63 99 77 63 98 76 62 96 75 58 93 72 55 92 69 51 91 65 48 87 64 46 85 58 39 84 57 38 85 57 36 86 58 37 84 56 34 
5 15 16 8 16 18 9 17 20 10 18 21 8 16 19 8 16 19 10 18 20 12 17 21 13 17 20 11 16 20 13 18 21 14 19 22 15 19 22 14 18 21 12 16 19 13 14 18 7 12 15 8 13 16 8 13 16 8 16 18 8 16 18 8 16 19 7 15 18 6 14 17 6 14 17 7 15 18 9 14 18 12 16 17 13 17 20 16 17 19 16 17 19 18 18 18 23 19 20 25 19 21 28 19 20 28 23 20 29 24 21 33 25 22 33 23 21 33 23 21 32 24 21 34 26 23 33 25 23 32 24 21 32 24 21 37 26 22 42 29 21 49 32 25 52 34 24 57 38 24 61 39 25 67 44 28 69 43 26 73 46 27 72 45 26 74 49 29 77 51 34 80 54 37 84 58 41 84 61 43 87 64 48 87 64 48 88 65 47 90 68 47 89 67 44 86 61 39 83 57 34 79 53 30 79 51 29 78 50 28 76 48 26 79 51 30 82 54 32 86 61 39 89 67 44 93 71 50 94 73 54 94 77 59 95 78 62 97 78 63 96 80 64 95 79 63 98 80 68 95 77 63 96 78 64 96 79 63 94 75 60 97 78 63 97 78 63 100 78 64 99 77 63 97 76 59 97 74 58 95 72 54 91 70 51 90 67 49 90 63 44 89 62 43 88 61 40 87 60 39 
6 16 17 8 16 18 9 17 20 10 18 21 8 15 21 10 18 20 12 17 21 13 17 20 12 17 20 12 17 20 13 18 21 15 19 22 17 18 22 15 19 22 14 18 19 11 16 19 9 14 17 8 13 16 6 14 16 8 16 18 8 16 19 8 16 19 8 16 19 8 16 19 7 14 20 7 14 20 10 15 19 12 16 19 16 17 21 16 17 19 18 18 18 18 18 18 21 19 20 23 19 20 26 20 20 27 21 21 28 23 20 32 22 20 32 24 21 33 25 22 34 24 22 33 25 23 33 25 23 30 25 22 30 22 19 32 24 21 38 25 19 43 28 21 47 30 22 53 35 25 57 37 26 62 40 26 67 41 24 71 44 25 71 44 23 74 47 28 76 51 31 79 53 36 81 55 38 86 60 43 86 63 47 87 66 49 88 67 48 92 69 51 90 69 48 90 65 45 85 63 40 83 56 35 80 54 29 79 51 27 80 50 26 78 48 24 80 49 28 83 57 34 87 63 39 91 66 44 93 72 51 93 75 55 95 78 62 96 79 63 96 80 64 97 81 65 99 82 66 96 80 64 96 79 63 96 79 63 97 78 63 97 78 63 97 78 63 98 77 60 98 76 62 96 77 62 97 76 59 95 74 57 95 74 57 93 72 53 93 70 52 90 67 49 90 65 45 89 62 41 
7 15 17 9 17 19 9 17 20 9 17 20 8 16 19 8 16 19 14 18 21 15 16 21 13 18 22 13 18 21 13 18 21 15 19 22 17 18 22 18 19 23 16 17 19 14 18 21 14 15 17 10 15 18 10 15 18 9 14 17 8 16 19 8 18 20 9 19 21 9 17 20 7 14 20 9 14 18 9 14 18 10 14 17 15 16 20 16 17 19 16 17 19 20 18 19 24 20 21 23 19 20 23 19 20 23 17 17 25 20 17 29 21 19 31 23 20 33 25 22 34 24 22 33 25 23 30 25 22 29 23 23 29 24 21 30 25 21 32 22 20 37 24 18 40 27 19 47 30 22 52 34 22 58 36 22 62 39 23 67 40 21 69 42 21 73 46 27 76 51 31 79 52 35 80 54 39 81 55 40 83 60 42 85 62 44 84 66 46 88 67 48 91 70 49 92 70 49 93 69 45 88 64 40 83 57 32 86 56 32 78 50 26 81 49 26 81 49 26 81 53 29 83 57 32 86 62 38 88 67 46 91 72 55 94 77 59 96 79 61 96 80 65 97 81 65 100 83 67 97 81 65 97 79 65 97 79 67 97 78 63 94 75 60 95 76 59 96 77 62 96 77 62 96 77 62 98 76 62 96 77 60 96 77 60 95 76 59 95 74 57 94 73 56 93 71 50 92 67 45 
