P3
100 50
255
70 60 50 71 61 51 70 60 50 69 59 49 71 61 51 71 61 51 69 59 49 70 60 50 69 60 51 71 61 52 73 60 52 71 61 52 71 61 51 71 61 51 71 61 51 71 61 51 71 61 51 71 61 51 70 60 50 70 60 50 73 60 52 71 61 52 71 58 50 73 60 51 71 58 49 72 57 50 72 59 51 73 58 51 71 58 50 71 58 50 71 58 50 71 58 50 71 58 50 70 57 49 71 58 50 70 57 49 69 59 50 68 57 51 67 56 50 67 56 50 67 56 50 67 56 50 66 57 50 66 57 52 66 57 52 64 55 50 65 56 51 63 54 49 64 55 50 64 55 50 63 54 49 64 54 52 64 54 52 63 53 51 64 54 52 62 54 51 61 53 50 62 52 50 59 51 49 61 53 50 60 52 50 60 52 50 59 51 49 59 51 49 59 50 51 56 50 50 57 51 51 55 51 50 57 51 51 57 51 51 55 51 50 56 52 51 56 52 51 55 51 50 56 52 51 56 52 51 55 51 52 56 52 53 54 52 53 53 51 52 53 51 52 53 51 52 53 51 52 53 51 52 54 52 55 53 51 54 53 51 54 51 49 52 52 50 53 53 51 54 53 51 54 52 50 53 52 50 51 53 51 52 52 50 51 55 51 52 52 50 51 54 52 53 54 52 53 54 52 53 
71 61 51 73 60 51 70 60 50 71 61 51 71 61 51 70 60 50 70 60 50 71 61 51 70 60 50 70 60 50 70 60 50 70 60 50 70 60 50 70 60 50 71 61 51 70 60 50 71 61 51 72 62 52 71 61 51 70 60 50 72 59 51 70 60 51 72 59 50 72 59 50 72 59 50 70 57 48 72 59 51 73 58 51 71 58 50 70 57 49 70 57 49 71 58 50 71 58 50 71 58 50 71 58 50 69 56 48 68 57 51 68 58 49 67 56 50 68 57 51 69 58 52 66 57 50 66 57 52 64 57 49 65 56 51 65 56 51 64 55 50 65 56 51 64 55 50 64 55 50 64 55 50 63 54 49 65 55 53 64 54 52 63 53 51 61 53 50 61 53 50 62 52 51 60 52 50 60 52 49 59 51 49 59 51 49 59 51 49 59 50 51 58 49 50 56 50 50 57 51 51 56 50 50 57 51 51 56 50 50 55 51 50 55 51 50 55 51 50 56 52 51 56 52 51 56 52 51 57 51 53 56 52 53 55 53 54 53 51 52 52 50 51 53 51 52 53 51 52 54 52 53 54 52 53 54 52 53 53 51 52 53 51 52 53 51 52 54 52 53 52 50 51 53 51 52 53 51 52 53 51 52 53 51 52 55 53 54 55 51 52 54 52 53 55 53 54 54 52 53 
70 60 48 70 60 50 70 60 50 72 59 50 71 61 51 70 60 50 72 59 51 70 60 50 70 60 50 71 61 51 71 61 51 71 61 51 71 61 49 71 61 51 70 60 50 71 61 51 70 60 50 73 60 51 72 59 50 72 59 51 70 60 50 69 59 49 69 59 50 69 59 50 71 58 50 71 58 50 71 58 50 71 58 49 71 58 50 71 58 50 71 58 49 71 58 49 70 57 48 70 57 49 68 58 49 69 59 50 69 56 48 70 57 51 67 56 50 68 57 51 68 57 51 68 57 51 67 58 53 65 58 52 66 55 51 67 56 52 65 56 51 64 55 50 64 55 50 64 55 50 65 56 51 64 55 50 64 55 50 63 53 51 63 53 51 62 52 50 61 53 50 61 53 50 62 52 50 60 52 49 59 51 49 60 50 49 59 51 49 57 52 49 57 52 49 57 51 51 57 51 51 56 50 50 57 51 51 57 51 51 57 51 51 57 51 51 56 52 51 55 51 50 56 52 51 56 52 51 56 52 51 56 52 53 56 52 53 55 51 52 53 51 52 54 50 51 54 52 53 54 52 53 54 52 53 55 53 54 54 52 53 54 52 53 54 52 53 54 52 53 54 52 53 55 53 54 55 53 54 53 51 52 54 52 53 54 52 53 53 51 52 54 52 53 55 53 54 54 52 53 
72 60 48 71 59 47 72 60 48 72 60 48 70 60 48 70 60 50 70 60 50 70 60 50 70 60 50 70 60 50 70 60 50 70 60 50 71 61 51 71 61 51 71 61 51 70 60 50 70 60 50 70 60 50 72 59 50 73 59 50 71 58 49 72 59 50 71 58 50 72 59 51 70 57 49 70 57 49 71 58 50 71 58 49 71 58 50 72 59 51 72 59 50 70 57 48 70 57 48 69 56 48 70 57 49 69 59 50 69 59 50 68 57 51 68 57 51 68 57 51 68 57 51 68 57 51 65 56 49 64 57 51 67 56 52 65 56 51 66 57 52 66 57 52 65 56 51 65 56 51 65 56 51 65 56 51 65 56 51 65 55 53 63 53 51 62 54 51 62 54 51 63 53 51 59 54 50 61 53 50 59 51 49 59 51 49 59 51 49 57 52 49 58 53 50 58 53 50 58 52 52 58 52 52 58 52 52 57 51 51 58 52 52 58 52 52 56 52 51 56 52 51 57 53 52 56 52 51 55 53 54 57 53 54 55 53 54 56 52 53 56 52 53 55 53 54 56 52 53 56 52 53 55 53 54 55 53 54 54 52 53 55 53 54 53 51 52 55 53 54 54 52 53 54 52 53 53 51 52 54 52 53 53 51 52 55 53 54 54 52 53 54 52 53 54 52 53 55 53 54 
71 59 45 71 59 47 71 59 47 71 59 47 69 59 47 71 59 47 70 60 48 70 60 48 70 60 48 69 59 47 70 60 48 70 60 50 69 59 49 69 59 49 70 60 50 70 60 50 70 60 50 72 59 50 70 60 50 72 59 50 70 60 50 71 58 49 72 59 50 71 58 50 71 58 49 71 58 50 71 58 49 71 58 49 71 58 50 71 58 50 70 57 49 71 58 49 71 58 49 71 58 50 71 58 50 68 58 49 68 58 49 67 56 50 68 57 51 68 57 51 67 56 50 67 56 50 66 57 52 65 58 52 66 57 52 65 56 51 66 57 52 66 57 52 65 56 51 65 56 51 65 56 51 64 55 50 66 57 52 63 56 50 63 53 51 63 55 52 62 54 51 63 53 51 62 54 51 61 53 50 61 53 51 61 53 51 61 53 51 61 53 51 59 54 51 59 54 51 59 53 53 58 52 52 57 51 51 58 52 52 59 53 53 60 54 54 57 53 52 56 52 51 56 52 51 56 52 51 56 52 53 56 52 53 57 53 54 57 53 54 58 54 55 57 53 54 58 54 55 57 53 54 56 52 53 56 52 53 54 52 53 55 53 54 55 53 54 54 52 53 56 52 53 57 53 54 56 52 53 56 52 53 55 51 52 56 52 53 57 53 54 57 53 54 56 52 53 56 52 53 
71 59 45 71 59 47 71 59 47 72 60 48 72 60 48 71 59 47 72 60 48 72 60 48 71 59 47 72 60 48 73 61 49 70 60 50 70 60 50 71 58 49 69 59 49 71 58 49 70 60 50 71 58 49 72 59 50 73 60 51 72 59 50 69 59 49 69 59 49 71 58 49 71 58 50 71 58 49 71 58 49 71 58 49 71 58 50 70 57 49 70 57 49 70 57 49 68 55 46 70 57 48 70 57 49 71 58 50 67 57 48 68 58 49 68 57 51 68 57 51 67 56 50 69 58 52 67 58 51 67 58 51 66 57 52 67 58 53 65 56 51 65 56 51 66 57 52 65 56 51 66 57 52 66 57 52 66 56 54 66 57 52 65 56 51 63 55 52 64 54 52 63 55 52 62 54 51 62 54 51 63 55 52 63 55 52 62 54 52 61 53 51 58 53 50 58 53 50 58 53 50 58 53 50 58 53 50 58 52 52 59 53 53 58 52 52 57 53 52 58 54 53 57 53 52 58 54 53 57 53 54 57 53 52 58 54 53 58 54 53 58 54 55 57 53 54 57 53 54 58 54 55 57 53 54 56 52 53 57 53 54 58 54 55 57 53 54 57 53 54 57 53 54 55 51 52 57 53 54 57 53 54 56 52 53 56 52 53 58 54 55 58 54 55 58 54 55 58 54 55 
73 59 46 71 59 45 71 59 45 71 59 47 72 60 48 71 59 47 71 59 47 70 58 46 70 58 46 71 59 47 71 59 47 70 60 50 71 59 47 71 58 49 71 58 49 71 58 49 72 59 50 72 58 47 71 58 49 69 56 47 71 58 49 70 57 48 71 58 49 71 58 49 71 58 49 71 57 48 71 57 46 70 57 48 70 57 48 70 57 49 70 57 49 69 56 48 69 56 47 69 56 47 70 57 49 69 56 48 68 58 49 67 56 50 67 56 50 67 56 50 68 57 51 67 56 50 67 56 50 67 56 52 67 58 51 66 57 52 66 57 52 66 56 54 66 57 52 66 57 52 64 55 50 65 56 51 65 56 51 64 55 50 64 55 50 64 55 50 63 55 52 63 55 52 62 54 51 62 54 51 63 55 52 62 54 51 62 54 52 62 54 52 61 53 51 60 52 50 58 53 50 58 53 50 59 54 51 59 54 51 60 54 54 61 55 55 58 52 52 57 53 52 58 54 53 58 54 53 59 55 54 58 54 53 58 54 53 57 53 52 58 54 55 57 53 54 56 52 53 57 53 52 57 53 54 57 53 54 58 54 55 57 53 54 56 52 53 56 52 53 56 52 53 57 53 54 57 53 54 57 53 54 56 52 53 57 53 54 57 53 52 58 54 53 59 55 54 58 54 53 
72 58 45 71 59 45 71 59 45 71 59 47 70 58 46 72 58 47 71 59 47 72 60 48 71 59 47 71 59 47 71 59 47 71 59 47 71 59 47 71 59 47 71 59 45 71 59 47 70 57 48 69 59 49 71 58 49 71 59 47 70 57 48 71 58 49 71 58 49 71 58 49 71 58 49 71 58 49 69 56 47 71 57 48 72 58 49 70 57 48 70 57 49 68 55 47 69 56 47 69 56 48 70 57 49 70 57 49 67 57 47 68 58 49 66 55 49 67 56 50 68 57 51 67 56 50 66 55 49 67 56 50 65 56 49 65 56 51 65 56 51 65 55 53 66 57 52 65 56 51 65 56 51 64 55 50 64 55 50 64 57 51 65 56 51 64 55 50 63 55 52 62 54 51 62 54 51 62 54 51 61 56 52 62 54 51 61 53 50 61 53 51 61 53 51 60 52 50 60 52 50 62 52 51 58 53 50 59 54 51 60 54 54 60 54 54 59 53 53 59 53 53 58 52 52 60 54 54 59 53 53 58 52 52 57 53 52 58 52 52 57 53 52 59 53 53 58 54 53 58 54 53 57 53 54 57 53 54 58 54 55 56 52 53 56 52 53 56 52 53 55 51 52 56 52 51 57 53 54 56 52 53 56 52 53 56 52 53 58 54 53 58 54 53 58 54 53 57 53 52 
70 58 44 71 59 47 71 59 45 71 59 45 70 58 46 71 59 47 70 58 46 70 58 46 69 59 47 71 59 47 71 59 47 71 59 47 70 58 46 70 58 46 72 60 48 71 59 47 70 58 46 71 59 47 69 59 47 70 58 46 70 57 48 72 59 50 70 57 48 71 58 49 71 58 49 71 58 49 70 57 48 70 57 48 72 58 49 70 57 48 69 56 47 70 57 48 70 57 49 70 57 49 69 56 48 69 56 48 66 56 47 66 56 47 67 56 50 67 56 50 66 55 49 68 57 51 67 56 50 66 55 49 66 57 50 66 57 52 65 56 51 66 56 54 65 56 51 66 57 52 66 55 51 65 54 50 64 55 50 64 55 50 64 55 50 64 55 50 65 56 51 62 54 51 62 54 51 62 54 51 62 54 51 62 54 51 62 54 51 61 53 50 61 53 51 62 52 51 61 53 51 61 53 51 59 54 51 59 54 51 58 53 50 59 53 53 58 52 52 59 53 53 60 54 54 60 54 54 60 54 54 60 54 54 59 53 53 58 52 52 58 54 53 58 52 52 56 55 53 57 53 52 56 52 51 57 53 52 57 53 52 57 53 54 56 52 53 56 52 53 56 52 51 57 53 50 55 51 50 55 51 50 55 51 50 56 52 51 57 53 52 57 53 52 57 53 52 56 52 51 
70 57 41 70 56 43 70 58 44 70 58 44 72 60 46 70 58 44 71 57 46 70 58 46 70 58 46 71 59 47 71 59 47 70 58 46 73 59 48 71 57 46 70 58 46 73 59 48 71 59 47 71 57 46 71 59 47 70 58 46 71 58 49 70 57 48 70 57 48 70 57 48 71 57 48 70 56 47 71 57 48 71 57 48 71 57 48 71 57 48 69 57 45 69 56 47 69 56 48 69 56 48 68 55 47 68 55 46 67 57 47 66 56 47 67 56 50 67 56 50 67 56 50 67 56 50 66 56 47 67 56 50 66 55 49 67 56 52 66 55 51 65 54 52 67 56 52 66 55 51 65 54 50 67 53 50 65 54 50 65 56 51 64 55 50 64 55 50 63 54 49 64 54 52 61 53 51 62 52 50 61 53 50 62 53 48 62 52 50 61 51 49 60 52 50 60 52 50 61 53 51 59 54 50 60 52 50 60 52 50 58 53 50 60 54 54 60 54 54 61 55 55 60 54 54 59 53 53 60 54 54 59 53 53 58 52 52 57 53 52 59 53 53 58 54 53 58 52 52 56 52 53 57 51 51 56 50 50 57 53 52 55 51 50 56 52 53 55 51 52 56 50 50 57 52 49 55 51 50 55 51 50 56 52 51 56 52 51 57 53 52 57 53 52 58 54 53 56 52 51 
70 57 41 70 56 43 70 56 43 72 58 45 70 56 43 71 57 44 72 58 45 71 57 44 72 58 45 70 56 43 72 58 45 72 58 45 71 57 44 71 57 44 70 56 45 70 58 46 71 57 46 71 57 46 71 57 46 70 58 46 70 56 45 71 57 46 71 57 46 70 56 45 70 56 47 70 56 47 70 56 47 71 57 48 70 57 48 69 56 47 69 56 47 69 56 47 68 55 46 69 56 47 68 55 47 65 55 46 68 55 47 68 55 46 68 55 47 68 55 47 69 56 50 65 54 48 66 56 47 66 55 49 66 55 49 70 57 51 68 55 49 66 55 49 66 55 49 64 53 49 65 54 48 65 54 50 65 54 50 65 54 50 64 55 50 63 54 49 65 54 50 63 54 49 62 52 50 62 52 50 61 51 49 60 52 49 59 51 48 60 52 50 60 52 50 60 52 50 58 53 50 60 52 50 60 52 50 60 52 50 60 52 50 62 54 52 62 52 51 61 53 51 60 55 52 59 54 51 57 52 49 59 54 51 58 53 50 58 53 50 58 52 52 58 52 52 57 51 51 58 52 52 56 50 50 58 49 50 57 51 51 57 51 51 57 51 51 57 51 51 56 50 50 56 50 50 55 51 50 57 51 51 57 51 51 55 51 50 56 52 51 55 51 50 56 52 51 57 53 52 
72 56 41 69 56 40 70 57 41 70 57 41 70 58 44 70 56 43 70 58 44 70 56 43 69 57 43 71 57 44 70 56 43 70 56 43 71 57 44 71 57 44 71 57 44 71 57 44 70 58 44 70 58 44 70 58 44 71 57 46 71 57 46 71 57 46 70 58 46 70 56 47 70 56 47 71 57 48 70 56 47 69 55 46 71 57 48 70 56 47 70 56 47 70 56 47 70 56 47 70 56 47 69 55 46 70 56 47 68 55 47 68 55 46 68 55 47 67 57 48 65 54 48 68 55 49 67 54 48 66 55 49 65 54 48 65 54 48 65 54 48 66 55 49 66 55 49 64 53 49 64 53 49 65 54 50 65 54 50 65 54 50 64 53 49 64 53 49 62 53 48 62 53 48 63 54 49 62 52 50 61 51 49 60 52 49 58 53 49 60 50 48 61 51 50 59 51 49 60 52 50 60 52 50 60 52 50 62 54 52 61 53 51 62 52 51 62 54 52 62 54 52 62 54 52 59 54 51 62 54 52 61 53 51 60 52 50 61 53 51 58 52 52 59 53 53 58 52 52 58 52 52 59 53 53 57 51 51 57 51 51 58 52 52 57 51 51 57 51 51 57 51 51 54 50 49 58 49 50 56 50 50 57 51 51 60 51 52 55 51 50 56 52 51 54 53 49 56 52 49 
71 55 40 70 54 39 72 56 41 72 56 41 71 55 40 70 57 41 68 55 39 71 58 42 70 57 41 69 56 40 70 58 42 70 57 41 71 58 42 71 57 44 70 56 43 70 56 45 70 56 43 70 56 43 70 56 43 71 57 44 70 56 45 70 56 45 70 56 45 70 56 47 70 56 45 70 56 47 69 55 46 70 56 47 69 55 46 70 56 47 69 55 46 69 55 46 69 55 46 69 55 46 68 55 46 68 55 46 69 55 46 67 54 45 67 54 46 67 54 46 66 53 45 67 54 46 67 54 46 67 54 48 65 54 48 64 53 47 65 54 48 65 54 48 65 54 48 65 54 48 65 54 48 65 54 48 65 54 50 64 53 49 64 53 49 64 53 49 64 53 49 62 53 48 62 53 48 62 51 47 61 51 49 61 51 49 61 51 49 60 50 48 61 51 50 59 51 49 60 52 50 59 51 49 59 51 49 59 54 51 61 53 51 61 53 51 61 53 51 62 54 52 60 52 50 60 52 50 60 52 50 60 52 50 60 52 50 60 52 50 60 52 50 60 52 50 60 52 50 60 50 49 58 52 52 57 51 51 59 50 51 58 49 50 57 51 51 57 51 51 57 51 51 56 50 50 57 51 51 56 50 50 56 52 51 56 52 51 58 53 50 57 52 49 56 51 48 56 51 48 
71 55 39 71 55 40 71 53 39 71 55 40 70 54 39 71 55 40 71 55 40 72 56 41 71 55 40 72 56 41 72 56 41 72 56 41 69 56 40 72 56 43 73 57 44 71 57 46 73 55 43 71 57 44 70 56 43 70 56 43 70 56 45 70 56 43 73 56 46 72 55 45 69 55 44 70 56 43 70 56 45 69 55 46 69 55 46 69 55 46 69 55 46 70 56 47 69 55 46 69 55 46 68 54 45 69 55 46 67 54 45 68 54 45 68 54 45 67 53 44 67 54 46 66 53 45 66 53 45 67 52 45 66 53 47 66 52 49 66 53 47 67 54 48 65 52 46 65 54 48 64 53 49 66 52 49 66 52 49 65 54 50 65 54 50 63 52 48 63 52 48 63 52 48 63 52 48 61 52 47 62 51 49 61 51 49 60 50 48 60 50 48 60 50 48 60 50 49 60 50 49 59 49 48 61 51 50 61 51 50 61 53 51 61 53 51 62 52 51 62 52 51 60 52 50 60 52 50 60 52 50 60 52 50 59 51 49 60 52 50 60 52 50 60 52 50 59 51 49 59 51 49 59 51 49 58 50 48 58 49 50 58 49 50 58 49 50 59 50 51 57 48 49 56 50 50 56 50 52 56 50 50 58 49 50 57 52 49 56 51 48 57 52 49 56 51 48 56 51 48 
71 54 38 71 54 38 71 54 38 71 54 38 70 54 39 72 54 40 71 55 40 72 54 40 70 54 39 71 55 40 70 54 39 71 55 40 71 55 40 71 55 40 72 56 41 72 56 41 71 55 40 72 56 41 71 55 42 72 56 43 72 56 43 71 55 42 71 54 44 71 55 42 72 55 45 72 55 45 69 55 44 69 55 44 71 54 46 71 54 46 70 53 43 69 53 40 67 53 42 69 55 46 68 53 46 67 52 45 67 53 44 67 53 44 67 53 44 67 53 44 66 51 44 67 52 45 65 50 43 66 53 45 65 52 44 65 52 46 66 53 47 65 52 46 65 52 46 62 52 43 63 52 46 65 52 46 63 52 46 66 52 49 64 53 49 62 51 47 64 50 47 62 51 47 62 51 47 61 50 46 61 50 46 61 50 48 59 49 47 60 49 47 60 49 47 59 49 47 59 49 47 58 48 46 60 50 49 60 50 49 60 50 49 61 51 50 60 50 49 61 51 50 62 52 51 61 51 50 61 51 52 61 51 52 60 50 51 60 50 49 60 52 50 59 51 49 59 51 49 59 51 49 58 50 47 59 51 48 59 51 49 58 50 48 58 50 48 58 50 48 58 50 48 58 50 48 60 51 52 57 48 49 58 50 48 58 50 48 58 50 48 59 49 48 57 52 49 56 51 48 
71 54 38 71 54 38 70 54 38 71 54 38 71 54 38 71 55 39 71 54 38 72 55 39 72 54 40 71 53 39 70 54 39 71 55 40 72 54 40 71 55 40 71 55 40 71 55 40 70 54 39 71 55 40 71 55 42 70 54 41 70 54 41 71 53 41 71 55 42 70 54 41 70 53 45 69 55 44 71 54 44 69 52 42 71 54 44 70 53 43 69 52 42 71 54 44 69 52 42 70 53 43 68 51 41 69 52 42 68 54 45 67 53 44 66 52 43 67 53 44 66 52 43 67 52 45 66 51 44 66 51 44 65 52 46 65 52 46 65 52 46 65 52 46 65 52 44 64 51 43 64 51 45 64 51 45 64 51 45 62 51 45 64 51 45 64 50 47 62 51 47 61 50 46 60 49 45 60 49 45 62 48 45 60 49 45 60 49 47 59 48 46 60 49 47 59 48 46 59 49 47 58 50 47 60 49 47 58 48 46 60 50 48 60 50 48 60 50 48 61 51 49 61 51 49 60 52 49 60 50 48 60 50 48 59 49 47 60 50 49 60 50 49 60 50 49 59 49 48 59 49 48 59 49 48 60 50 49 59 51 49 59 51 49 58 50 48 58 48 47 57 49 47 58 50 48 58 50 48 58 50 48 58 50 48 57 49 47 57 49 47 57 49 47 58 50 48 58 50 48 
71 54 38 70 53 37 72 55 39 71 54 38 68 55 38 70 54 38 71 54 38 70 54 38 72 54 40 71 55 40 72 54 40 70 54 39 71 55 40 72 54 40 71 53 39 71 55 39 71 53 39 70 54 39 70 54 39 72 54 42 71 53 39 72 54 42 69 55 42 71 55 42 70 54 41 69 52 42 69 52 42 68 54 45 70 53 43 69 52 42 71 54 44 69 52 42 67 53 42 67 53 42 66 52 41 69 52 42 66 52 43 66 52 43 66 52 41 67 53 44 66 52 43 65 50 43 65 50 43 65 50 43 64 51 43 64 51 43 64 51 45 64 51 43 65 52 44 64 51 43 64 51 45 64 51 45 63 50 44 64 51 45 65 52 46 64 50 47 64 50 47 61 50 46 60 49 45 62 48 45 59 48 44 60 49 45 59 48 46 58 48 46 58 48 47 59 48 46 60 49 47 60 49 47 60 49 47 61 50 48 58 48 46 61 50 48 62 51 49 61 50 48 61 50 48 60 49 47 60 50 48 58 48 46 59 49 47 60 50 48 60 50 48 59 49 47 59 49 47 58 48 46 59 49 48 59 49 48 60 50 49 58 50 48 57 49 47 57 49 47 57 47 46 57 47 46 58 48 47 56 48 46 58 50 48 55 50 47 57 49 47 58 50 48 57 49 47 59 51 49 
70 53 35 71 54 38 71 54 38 71 54 38 72 55 39 71 54 38 71 54 38 71 54 38 71 54 38 70 53 37 71 54 38 70 53 37 71 54 38 71 54 38 70 52 38 70 54 39 71 54 38 71 53 39 71 54 38 70 54 39 70 54 39 71 55 40 72 54 42 70 54 41 70 54 41 70 53 43 67 53 42 69 52 42 69 52 42 69 52 42 68 51 41 68 51 41 69 52 42 68 51 41 69 52 42 68 51 41 66 52 43 66 52 43 65 51 42 66 52 43 65 51 42 65 50 43 64 49 42 65 50 43 63 50 42 64 49 42 64 49 44 65 50 43 64 51 43 64 51 43 64 51 43 65 52 46 63 50 44 63 50 44 64 51 45 64 51 45 64 50 47 62 48 45 62 48 45 59 48 44 58 47 43 58 47 43 58 47 43 58 47 45 59 48 46 59 48 46 59 48 46 58 48 46 60 49 47 61 50 48 59 48 46 60 49 47 61 50 48 61 50 48 61 50 48 60 49 47 60 49 47 59 48 46 60 49 47 61 50 48 58 48 46 58 48 46 58 48 46 58 48 46 58 48 46 57 47 45 58 48 46 59 49 47 56 48 46 56 48 46 58 48 47 57 47 46 56 48 46 58 48 47 58 48 47 59 49 48 57 49 47 56 48 46 57 49 47 58 50 48 
70 51 36 70 51 34 68 51 35 69 52 34 69 50 35 71 52 37 70 53 37 69 52 36 70 53 37 70 53 37 70 53 37 71 54 38 70 53 37 71 54 38 70 53 37 71 54 38 70 52 38 70 52 38 71 53 39 71 53 39 71 53 39 71 53 39 71 53 41 69 53 40 69 53 40 69 53 40 69 53 40 68 52 39 68 51 41 68 51 41 69 52 44 66 49 39 68 51 41 69 52 42 67 50 40 69 52 42 68 51 43 68 51 43 67 50 42 64 51 42 64 50 41 64 50 41 63 50 41 65 50 43 65 51 42 65 50 43 63 50 42 64 49 42 66 48 44 65 50 43 65 52 46 63 50 44 63 49 46 63 50 44 62 49 43 63 50 42 62 49 43 62 48 45 62 48 45 60 46 43 60 46 43 60 46 43 58 47 43 57 46 44 57 46 44 58 47 43 59 48 46 60 49 47 60 48 48 59 48 46 60 49 47 60 49 47 60 49 47 60 49 47 60 49 47 60 49 47 59 48 46 60 49 47 60 49 47 59 48 46 60 49 47 60 49 47 58 48 46 58 48 46 58 48 46 58 48 46 58 48 46 57 47 45 58 48 46 58 48 47 58 48 47 57 47 46 57 47 46 57 47 46 57 47 46 57 47 46 57 47 46 57 47 46 57 47 46 58 48 47 
70 51 34 70 51 36 70 51 34 69 52 34 70 51 34 70 51 36 68 50 36 69 52 36 69 52 36 69 52 36 69 52 36 71 52 37 70 53 37 71 54 38 70 53 37 71 52 37 70 51 37 70 53 37 70 52 38 70 52 38 70 52 38 69 51 37 71 53 41 70 52 40 69 51 39 69 51 39 69 51 39 68 50 38 68 52 39 68 52 39 67 51 38 66 50 37 67 50 40 67 50 40 67 50 40 66 49 39 67 50 42 68 51 43 67 50 42 67 50 42 64 50 41 66 49 41 65 51 42 62 48 39 64 49 42 65 51 42 66 51 44 65 50 43 64 49 42 63 48 41 63 48 41 62 49 43 62 49 43 63 50 44 61 48 42 63 50 44 61 48 42 62 49 43 60 46 43 61 47 44 62 48 45 61 47 44 60 46 43 60 46 43 59 45 44 57 46 42 58 47 45 58 47 45 58 47 45 59 48 46 59 48 46 62 48 47 62 48 47 61 50 48 61 47 46 59 48 46 57 46 42 58 47 43 59 48 46 59 48 46 60 49 47 59 48 46 59 48 44 58 47 45 56 46 44 57 47 45 57 47 45 57 47 45 56 46 44 57 47 45 56 46 44 57 47 45 56 46 44 56 46 44 56 46 44 57 47 45 56 46 44 56 46 44 57 47 45 57 47 45 
69 51 31 70 51 34 70 51 34 70 51 34 71 52 35 70 51 36 70 51 36 70 51 36 69 52 34 69 52 36 69 52 34 69 52 36 70 53 37 70 53 37 71 52 38 69 52 36 70 53 37 70 53 37 69 51 37 69 52 36 70 53 37 69 51 37 69 51 37 69 51 37 69 51 37 68 50 38 70 52 42 68 50 38 69 51 39 68 50 38 69 53 38 67 51 38 66 50 37 66 49 39 66 49 39 67 50 40 67 50 40 67 50 40 66 49 41 67 50 42 66 49 41 63 49 40 63 49 40 66 49 41 63 49 40 66 49 41 65 50 43 63 48 41 63 49 40 63 48 41 62 47 40 63 48 41 62 47 40 60 47 41 62 49 43 62 49 43 61 48 42 60 47 41 60 47 41 62 49 43 62 49 43 61 48 42 60 47 41 58 44 41 59 45 42 59 45 42 60 46 43 60 46 43 58 47 45 61 47 46 60 46 43 61 47 44 61 47 44 61 47 44 60 46 43 60 46 43 59 45 42 60 46 43 58 47 43 58 47 43 59 48 44 58 47 43 58 47 45 57 45 45 57 46 44 56 45 43 56 45 43 56 45 43 57 46 44 57 46 44 57 46 44 56 45 43 56 45 43 55 44 42 56 45 43 55 44 42 56 45 43 55 44 42 57 46 44 57 46 44 
71 50 31 72 51 32 71 49 35 69 50 33 70 51 34 69 50 33 70 51 34 70 51 34 70 51 34 70 51 34 70 51 36 70 51 34 71 52 37 71 52 37 70 51 36 70 51 36 70 51 36 70 51 36 71 52 38 70 51 36 70 51 36 69 50 36 69 50 36 70 51 37 68 50 36 68 50 38 68 50 38 69 51 39 68 50 38 68 50 36 68 50 38 67 49 37 66 48 36 67 51 38 66 49 41 65 48 38 66 48 38 65 48 38 67 49 39 66 48 38 65 48 40 65 48 40 65 48 40 66 49 41 65 48 40 65 48 40 65 48 40 63 49 40 63 49 40 63 49 40 63 48 41 62 47 40 62 47 40 62 47 40 62 47 40 61 46 41 60 45 40 61 46 41 60 47 41 60 47 41 61 46 41 60 47 41 60 47 41 59 44 41 60 45 42 59 45 42 57 46 42 59 45 42 59 46 40 59 45 42 60 46 43 60 46 43 60 45 42 61 46 43 61 46 43 58 44 41 58 44 41 60 46 43 60 46 43 60 46 43 60 46 43 60 46 43 59 45 42 58 44 41 58 44 43 56 42 41 58 44 41 58 44 41 58 44 41 58 44 41 58 44 41 58 44 41 59 45 42 57 43 42 57 43 40 55 44 40 55 44 42 54 43 39 55 44 40 57 46 44 
70 49 28 69 51 31 69 51 31 70 49 32 71 50 29 70 49 32 70 49 32 71 50 33 71 50 33 72 51 32 71 50 33 72 51 34 68 49 35 71 52 35 70 51 34 69 50 35 69 50 35 70 51 36 69 50 35 69 50 35 69 50 36 69 49 38 68 49 35 70 51 37 68 51 35 67 49 35 68 50 38 68 50 36 68 49 35 69 50 36 68 49 35 67 49 37 67 49 35 66 48 36 67 49 39 66 48 38 66 48 38 66 49 39 66 48 38 67 49 39 63 49 38 65 48 38 65 48 38 65 48 38 65 48 40 63 49 40 64 47 39 65 48 40 65 48 40 65 48 40 66 49 41 64 47 40 64 47 40 64 47 40 62 47 40 62 47 42 61 46 39 61 46 39 61 46 39 61 46 41 60 45 38 61 46 39 59 44 39 59 44 39 59 44 39 59 44 39 58 43 38 58 43 38 58 43 40 60 45 42 60 45 40 61 46 41 61 46 41 61 46 41 61 46 41 59 44 39 60 42 38 60 45 40 60 46 43 60 46 43 58 44 41 58 44 41 58 43 38 58 43 38 56 42 39 57 43 40 58 44 41 57 43 40 56 42 39 57 43 40 57 44 38 58 45 39 56 42 39 57 43 40 56 42 39 56 42 39 55 41 38 56 42 39 56 42 39 56 42 39 
70 47 29 70 47 29 70 49 30 73 47 30 70 47 29 71 48 32 71 48 30 70 47 31 71 48 30 72 49 31 71 50 33 71 50 33 70 49 32 71 50 33 71 49 35 70 48 35 66 47 30 70 49 32 71 49 35 69 47 33 69 50 35 67 48 33 68 49 35 68 49 35 67 48 34 68 49 35 67 48 34 68 49 35 68 49 35 69 50 36 68 49 35 68 49 35 67 47 36 69 49 38 67 49 37 66 48 36 66 48 36 66 48 38 66 48 38 66 48 38 66 48 38 65 48 38 65 47 37 64 46 36 64 46 36 64 47 39 64 47 39 65 48 40 65 48 40 65 48 40 64 47 39 63 46 38 64 47 39 63 46 38 64 47 39 62 45 38 61 44 37 61 44 37 62 45 38 59 44 37 62 43 37 61 44 37 58 43 36 61 43 39 60 42 38 58 43 38 57 42 37 59 41 37 60 42 38 61 43 39 61 43 39 61 43 39 60 45 40 62 47 42 62 44 40 63 44 40 60 45 40 59 44 39 59 44 39 59 44 39 59 44 39 58 43 38 57 42 37 57 42 37 57 42 37 58 43 38 58 43 38 57 42 37 57 42 37 58 43 38 59 44 39 58 43 38 56 41 36 56 41 38 56 41 36 56 41 36 56 41 38 56 41 38 57 42 37 57 42 39 
71 46 26 71 46 26 70 48 27 69 46 28 69 46 28 70 47 29 70 47 29 69 46 28 70 47 29 69 46 28 70 47 29 71 48 32 71 48 32 69 46 32 68 49 32 69 48 31 69 48 31 69 47 33 69 48 31 69 48 31 68 49 32 67 48 33 68 49 34 68 49 34 68 49 34 67 48 34 68 49 35 67 48 34 67 48 34 67 48 34 69 50 36 67 48 34 67 48 34 66 46 35 67 47 36 67 47 36 64 46 34 64 46 34 65 47 35 65 47 35 65 47 37 66 48 38 62 44 34 64 46 36 64 46 36 65 46 39 65 47 37 64 47 39 64 47 39 63 46 36 62 45 37 62 43 36 63 46 38 63 46 38 62 45 37 62 45 38 62 45 38 62 45 38 60 43 36 61 44 36 59 42 35 59 42 34 60 43 36 60 43 36 60 43 36 60 43 36 59 42 35 58 40 36 59 41 37 60 43 36 60 43 36 62 43 37 61 44 37 63 46 39 64 45 39 62 45 38 62 45 38 60 43 36 59 42 35 60 43 36 61 44 37 60 43 36 58 40 36 58 40 36 59 40 36 58 40 36 57 39 35 57 39 35 57 40 33 56 41 34 57 42 35 56 41 34 55 40 35 54 39 34 54 39 34 54 39 34 53 38 33 54 39 34 54 39 34 55 40 35 
71 46 24 72 45 26 71 45 28 71 46 26 69 46 28 70 48 27 70 47 29 69 46 28 69 46 28 70 47 29 69 46 28 69 46 30 70 47 31 70 47 31 70 47 31 69 46 30 70 49 32 69 48 31 69 48 31 69 48 31 69 48 31 69 48 31 67 45 31 69 47 33 68 46 32 67 48 33 68 49 34 68 49 34 67 48 33 67 48 33 66 47 33 67 48 34 66 47 33 67 47 36 66 46 35 65 45 34 64 46 34 66 46 35 66 46 35 65 47 35 65 45 34 65 45 36 64 46 36 64 46 36 64 46 36 65 47 37 65 46 39 64 47 39 61 47 36 62 45 35 63 45 35 63 45 35 63 46 38 64 47 39 61 44 37 61 44 36 62 45 37 62 45 37 61 44 37 60 43 36 59 42 35 59 42 34 58 41 33 58 41 34 58 41 34 59 42 35 58 41 34 57 39 35 58 41 34 60 41 35 60 43 36 60 43 36 61 42 36 63 44 38 62 43 37 62 43 37 62 45 38 60 43 36 59 42 35 61 44 37 60 43 36 59 42 35 57 40 33 56 39 32 55 40 33 56 41 34 54 39 32 53 38 31 56 39 32 57 40 33 58 41 34 57 40 33 56 38 34 56 38 34 54 36 32 55 37 33 52 37 32 53 38 33 53 38 33 54 39 34 
68 43 23 70 45 25 71 46 26 71 46 26 68 46 25 71 46 26 69 47 26 71 46 26 71 45 28 71 46 26 72 46 29 69 46 28 69 46 30 70 47 31 70 47 31 68 47 30 68 47 30 68 47 30 67 45 31 68 46 32 68 46 32 69 48 31 69 48 31 69 47 33 66 47 32 67 48 33 66 47 32 65 46 31 68 46 32 68 46 32 67 45 31 66 47 33 69 47 34 66 46 35 66 46 35 65 46 32 65 45 34 65 45 34 65 45 34 65 45 34 64 44 33 65 45 34 64 46 34 63 45 33 63 45 35 63 45 35 63 45 35 66 47 40 64 46 36 63 45 35 63 44 37 63 44 37 63 44 37 63 44 37 62 43 36 62 43 36 62 43 36 62 43 36 60 41 34 60 41 34 60 41 35 57 40 33 57 40 32 57 40 33 58 39 33 58 39 33 57 38 32 57 40 33 57 38 34 58 39 33 59 40 33 59 40 34 60 41 35 62 43 37 61 42 35 61 42 35 61 44 37 60 41 34 60 41 35 61 42 36 63 44 38 60 39 34 58 39 33 57 38 32 56 39 32 56 39 32 54 37 30 53 36 29 54 37 30 54 37 30 55 37 33 55 36 30 53 36 29 54 37 30 53 36 29 52 35 28 53 35 31 50 35 28 52 35 28 53 36 29 
68 43 23 68 43 21 70 45 25 69 44 22 69 44 24 70 45 25 70 45 25 69 43 26 70 44 27 69 43 26 70 44 27 68 45 29 70 44 29 68 45 29 67 44 28 66 45 28 67 44 28 67 46 29 67 46 29 68 47 30 67 45 31 68 47 30 69 47 33 67 45 31 68 46 32 68 46 32 65 46 31 66 47 32 67 46 29 67 45 31 67 45 31 68 46 33 64 45 31 65 45 34 64 44 33 65 45 34 65 45 34 65 45 34 65 45 34 64 44 33 64 44 33 66 46 35 63 45 33 63 45 33 63 43 32 62 44 34 65 47 37 64 46 36 63 45 35 63 45 35 64 46 36 64 44 37 63 44 37 63 44 37 61 42 35 62 43 36 60 41 34 60 41 34 58 39 32 59 40 33 58 39 32 58 39 32 58 39 33 56 37 31 57 38 31 57 38 31 56 37 31 56 37 31 56 37 30 55 36 30 57 38 34 59 40 33 59 40 33 58 39 32 59 40 33 59 40 33 58 39 32 59 41 31 57 40 33 59 40 33 58 39 32 57 38 31 55 36 29 54 35 28 54 35 29 54 37 30 53 36 28 52 35 27 54 37 29 55 38 30 53 36 29 51 36 29 52 35 28 53 36 29 53 36 29 52 35 28 51 34 27 51 34 27 51 34 27 52 35 28 
69 42 23 67 42 22 68 43 23 67 42 22 69 43 26 67 41 24 68 42 25 69 43 26 70 43 26 67 41 24 68 42 25 68 45 29 67 44 28 67 44 28 67 44 28 67 44 28 67 44 28 67 44 28 67 44 28 67 46 29 66 45 28 67 45 31 66 44 30 66 44 30 67 45 31 66 44 30 66 44 30 66 44 30 67 46 29 65 43 29 65 46 31 67 45 32 65 46 32 67 45 32 63 43 32 63 43 32 64 44 33 64 44 33 63 43 32 63 43 32 62 42 31 64 44 33 63 43 32 61 43 31 62 44 30 63 43 32 63 45 35 63 45 33 61 43 31 61 43 33 64 44 35 61 43 33 61 42 35 60 41 34 59 40 33 60 41 34 59 40 33 59 40 33 58 39 32 58 39 32 58 39 32 57 38 31 57 38 31 56 37 30 57 38 31 56 37 30 56 37 30 55 36 30 54 35 28 54 35 28 55 36 29 56 37 31 58 39 32 55 37 27 55 37 27 58 39 32 58 38 31 57 38 31 57 38 31 58 38 29 58 38 31 57 37 30 54 35 28 53 34 27 54 35 29 53 34 28 52 33 26 52 33 26 52 33 26 53 34 27 52 33 26 51 32 25 50 31 25 51 32 26 49 32 24 50 33 26 50 33 26 49 32 25 49 32 25 48 33 26 
67 40 21 67 40 21 66 41 21 67 42 22 67 40 23 68 42 25 66 41 21 66 40 23 67 42 22 68 41 24 68 43 23 69 43 26 66 43 25 66 43 25 66 43 25 66 43 25 66 43 25 66 43 25 65 42 26 65 44 27 65 44 27 66 45 28 65 43 29 66 44 30 66 44 30 66 44 30 66 44 30 66 44 30 66 44 30 67 45 31 66 44 30 66 44 31 66 44 31 64 45 31 63 44 30 63 44 30 64 44 33 63 43 32 63 43 32 63 43 32 62 42 31 63 43 32 63 43 32 64 44 33 63 43 32 61 43 31 61 43 31 62 44 32 61 43 31 62 44 34 63 45 33 62 42 33 61 43 33 60 42 32 57 39 29 59 41 31 57 39 29 57 39 29 57 39 29 56 38 28 56 37 30 57 38 31 57 39 29 55 36 29 56 37 30 55 36 29 55 36 29 55 36 29 53 34 27 51 32 25 53 34 27 56 37 30 55 36 29 55 36 29 55 37 27 56 38 28 57 37 28 57 37 28 57 37 30 55 35 26 54 34 27 57 34 28 53 33 26 52 33 26 51 32 25 51 32 25 50 31 24 49 30 23 50 31 24 51 32 25 48 29 22 50 31 24 48 29 22 49 30 23 48 31 23 47 30 22 46 29 22 45 28 21 44 29 22 45 30 23 
66 39 20 66 39 20 67 40 21 67 40 21 66 39 22 67 38 20 66 41 21 66 41 21 66 40 23 67 41 24 67 41 24 67 41 24 65 42 24 64 41 23 63 42 25 65 42 26 65 42 26 64 41 25 64 41 25 64 41 25 65 42 26 63 42 25 63 41 27 65 43 29 65 43 29 66 44 30 67 45 31 66 44 30 66 44 30 66 44 30 66 44 30 66 44 31 65 43 30 62 43 29 66 44 31 63 44 30 64 44 33 63 43 32 64 44 33 63 43 32 62 42 31 61 41 30 62 42 31 62 42 31 62 42 33 61 43 31 61 43 29 60 42 30 60 42 30 62 44 34 62 44 34 62 42 33 61 41 32 60 40 31 59 39 30 59 39 30 57 37 28 57 37 28 56 36 27 56 36 27 56 36 27 55 37 27 56 38 28 57 39 29 56 36 27 55 35 28 55 35 26 54 36 26 52 33 26 52 33 26 52 33 26 52 33 26 55 35 28 54 34 27 55 35 28 56 36 27 57 37 28 56 36 27 54 34 25 53 33 26 52 32 23 52 32 25 50 30 23 52 31 26 50 30 23 49 30 23 49 30 23 48 29 22 48 29 22 47 28 21 46 27 21 46 29 22 47 28 21 47 28 21 46 29 21 45 28 20 44 27 20 41 26 19 41 26 19 40 25 18 
64 37 20 64 37 20 64 37 20 65 38 19 65 38 21 64 38 21 65 38 21 64 37 20 65 38 21 64 38 21 65 39 22 63 40 22 66 40 25 66 40 25 65 39 24 65 39 24 64 38 23 61 38 22 63 40 24 61 38 22 62 39 23 63 40 24 63 40 26 63 41 27 64 42 28 65 43 29 65 43 29 65 42 28 65 43 29 64 42 28 63 41 27 65 43 30 65 43 30 64 42 29 64 42 29 63 43 32 63 43 32 63 43 32 63 43 32 63 43 32 59 39 28 62 42 31 62 42 31 61 41 30 60 42 32 61 41 30 59 41 27 59 41 29 59 41 29 59 41 29 61 41 32 59 41 29 59 39 28 59 39 28 59 39 28 59 39 28 59 39 28 57 37 26 57 37 26 55 35 24 54 34 23 56 36 27 56 36 27 55 35 26 54 34 25 54 34 25 53 33 24 53 33 24 52 34 24 51 33 23 50 32 22 51 33 23 50 31 24 50 32 22 51 33 23 53 35 25 54 34 25 55 35 26 55 33 22 52 32 25 51 31 24 51 31 24 50 30 23 49 29 22 49 29 22 47 28 21 47 28 21 45 26 19 46 27 20 45 26 19 44 25 19 45 26 19 45 26 19 46 27 20 44 27 20 42 25 18 39 24 17 37 24 16 35 22 16 36 23 17 
62 34 20 61 33 19 62 34 20 63 36 19 64 37 20 63 36 19 64 37 20 62 36 19 63 36 19 64 37 18 64 38 21 63 37 20 63 40 24 64 38 23 63 37 22 64 38 23 61 38 22 61 38 22 63 40 24 61 38 22 61 38 24 61 38 24 64 41 27 63 40 26 63 40 26 62 40 26 62 40 26 63 41 27 63 41 27 64 40 28 62 40 26 63 41 28 63 41 28 63 41 28 63 41 28 64 42 31 62 42 31 62 42 31 62 42 31 63 41 30 60 40 29 60 40 29 61 41 30 59 39 28 60 40 29 58 40 28 58 39 25 59 39 28 60 40 29 60 40 29 58 40 26 59 39 28 58 38 27 58 38 27 57 37 26 58 38 27 57 37 26 56 36 25 54 34 23 53 33 22 53 33 22 53 33 22 53 33 24 53 33 24 51 31 20 50 30 19 52 32 23 52 32 23 51 33 21 51 33 23 50 32 22 49 31 21 47 29 17 47 28 21 47 29 19 48 30 20 47 29 19 49 31 21 49 29 20 50 30 23 48 28 17 47 28 21 46 27 20 45 26 19 46 27 20 44 25 18 42 25 17 42 25 18 43 26 19 43 26 19 41 24 17 41 24 17 41 24 17 42 25 18 41 23 19 37 22 17 35 22 16 33 22 16 31 20 16 30 19 15 
60 32 18 59 31 17 60 32 18 63 35 21 63 34 18 61 34 17 62 35 18 63 36 19 63 36 19 63 36 19 60 37 19 62 36 21 62 36 19 62 36 19 63 37 22 63 37 22 60 39 22 61 38 22 61 38 22 62 36 21 61 38 24 60 37 23 60 37 23 62 39 25 61 38 24 62 38 26 61 39 26 62 40 26 62 40 27 62 40 27 63 41 27 62 40 27 62 40 29 62 40 27 62 40 27 62 40 27 61 41 30 59 39 28 62 40 29 63 41 30 60 40 29 60 40 29 59 39 28 60 40 29 60 41 27 59 39 28 58 38 27 59 39 28 60 40 29 59 39 28 58 38 27 57 37 26 57 37 26 57 37 26 57 37 26 57 37 26 57 37 26 55 35 24 53 33 22 53 33 22 52 32 21 51 31 20 51 31 20 51 31 20 51 31 20 50 30 21 51 31 20 51 31 20 52 32 23 52 32 23 48 30 20 47 28 21 44 27 19 44 27 17 44 27 19 44 27 19 43 26 18 45 26 19 46 27 20 44 27 19 43 26 18 43 26 18 42 25 18 42 25 17 43 24 18 41 24 17 38 23 16 39 24 17 39 24 17 41 24 17 39 22 15 37 22 15 38 23 20 37 22 17 37 22 17 34 20 17 29 20 15 29 19 17 28 18 16 25 17 14 
59 31 17 58 30 16 59 31 17 60 32 18 62 35 18 61 34 17 62 35 18 62 35 18 63 36 19 62 34 20 63 35 21 63 35 21 61 35 20 61 35 20 62 36 21 62 36 21 63 37 22 63 37 22 62 36 21 60 37 21 60 37 23 59 36 22 59 36 22 61 38 24 60 37 23 61 38 24 61 37 25 63 39 27 62 38 26 62 38 26 61 39 26 64 37 26 62 40 27 59 39 28 60 40 29 62 40 29 62 40 29 61 39 28 62 40 29 62 40 29 62 40 29 59 39 28 60 40 29 58 40 28 59 39 28 60 40 29 58 40 28 57 39 27 59 39 28 58 38 27 57 37 26 58 38 27 56 36 25 56 36 25 56 36 25 56 36 25 55 35 24 54 34 23 53 33 22 53 33 22 52 32 21 50 30 19 49 29 18 50 30 19 51 31 22 50 30 21 49 29 18 50 30 21 50 30 23 49 29 20 47 29 19 44 28 15 44 26 16 42 25 17 42 25 17 42 25 15 43 26 18 40 26 17 39 26 17 40 25 18 40 26 15 42 25 17 38 23 16 38 23 18 38 23 16 38 23 16 36 21 16 37 24 16 37 22 17 37 24 18 35 22 16 34 20 17 33 19 16 33 19 16 31 20 16 29 19 17 28 18 16 26 18 15 25 17 14 25 17 14 
58 30 16 58 30 16 58 30 16 60 32 18 60 34 19 60 32 18 59 31 17 60 32 18 60 34 19 59 33 18 58 32 17 59 33 18 59 33 16 60 34 19 61 35 20 60 34 21 60 34 21 60 34 21 59 33 20 58 35 21 58 35 21 59 36 22 58 34 22 58 34 22 58 34 22 59 35 23 59 35 23 59 36 22 59 37 24 60 36 24 60 36 24 59 37 24 59 37 24 59 37 26 60 38 27 58 38 27 60 38 27 61 39 28 61 39 28 62 40 29 62 40 29 61 39 28 58 38 27 58 38 27 58 38 27 60 38 27 60 38 27 58 38 27 58 38 27 57 37 26 58 38 27 58 36 25 56 36 25 56 36 25 54 34 23 53 33 22 53 33 22 52 32 21 52 32 21 53 33 22 52 32 21 49 29 20 47 27 18 48 28 19 49 29 20 48 28 19 47 27 18 45 28 20 47 27 20 46 26 19 44 25 18 42 25 17 42 24 14 42 23 16 40 23 15 37 23 14 38 23 16 38 21 14 34 21 13 34 21 13 35 22 14 34 21 13 34 21 13 34 21 15 34 21 15 31 20 14 31 20 14 31 20 14 32 21 17 32 21 15 30 19 15 28 17 15 27 17 15 26 16 14 25 15 13 24 16 13 22 17 14 22 17 14 21 16 13 23 15 13 
56 28 16 57 29 17 58 30 18 60 32 20 59 31 17 60 32 18 59 31 17 57 29 15 58 30 16 59 31 17 58 32 17 58 30 16 58 32 19 59 33 20 60 33 22 60 34 21 59 33 20 59 33 18 59 33 20 57 33 21 57 33 21 59 32 21 56 32 20 57 33 21 57 33 21 58 34 22 55 33 20 56 32 20 57 33 21 58 34 22 57 35 22 58 34 22 57 35 22 58 36 25 57 37 26 59 37 26 60 38 27 60 38 27 60 38 27 60 38 27 59 37 26 59 37 26 58 36 25 57 37 26 57 37 26 56 36 25 55 35 24 56 36 25 55 35 24 55 35 24 56 34 23 57 35 24 54 34 23 53 33 22 53 33 22 51 31 20 52 32 21 53 33 22 52 32 21 51 31 20 50 30 19 48 28 19 46 26 17 46 26 17 46 27 20 46 27 20 44 25 18 41 22 15 44 25 18 41 24 16 41 22 16 39 22 15 40 23 16 37 22 15 35 22 16 33 20 14 30 19 13 29 18 12 29 18 12 29 18 12 30 19 15 27 20 12 28 19 12 29 18 14 29 20 15 28 19 14 25 18 12 26 19 13 26 18 15 26 19 13 25 17 14 24 16 14 22 14 12 19 14 11 20 15 12 18 14 13 18 14 13 18 14 13 15 14 12 15 14 12 
56 28 16 57 29 17 57 29 17 58 30 18 58 30 18 58 30 18 58 30 16 58 30 16 56 28 14 56 28 14 56 30 17 57 31 18 57 31 18 57 31 18 59 33 18 59 32 21 59 33 20 60 34 21 58 32 19 56 33 19 55 31 19 56 32 20 58 31 20 57 33 21 57 33 21 56 34 21 57 33 21 56 32 20 57 33 21 56 32 20 57 33 21 56 34 23 56 34 23 56 34 23 57 35 24 57 35 24 57 35 24 57 35 24 57 35 24 58 36 25 58 36 25 58 36 25 57 35 24 57 35 24 55 35 24 55 35 24 54 34 23 54 34 23 54 34 23 53 33 22 52 33 19 51 31 20 51 31 20 50 30 19 50 30 19 49 29 18 50 30 19 49 29 18 50 30 19 49 29 18 48 28 19 46 26 17 45 25 16 44 26 16 43 26 18 42 25 17 41 24 16 40 23 16 38 23 16 37 20 13 35 20 13 34 21 15 33 20 14 29 18 14 28 19 14 27 16 12 25 18 12 24 17 11 24 17 11 22 17 11 21 16 12 24 14 12 23 15 12 22 17 13 22 17 13 21 16 12 22 17 13 22 17 13 22 17 14 22 17 14 20 16 13 19 15 14 16 15 13 18 14 13 18 14 13 15 13 14 13 11 12 13 11 12 11 11 11 12 12 12 
54 26 12 55 27 15 56 28 17 57 29 18 55 29 16 56 28 16 58 30 18 58 30 18 56 28 16 56 28 16 59 29 18 59 31 19 58 32 19 58 32 19 58 31 20 58 32 19 58 31 20 58 31 22 60 33 22 56 32 20 58 31 20 56 32 20 56 32 20 56 32 20 56 32 20 57 33 21 57 33 21 55 33 20 56 32 20 56 32 20 57 33 21 55 33 22 55 33 22 56 34 23 56 34 23 57 35 24 55 33 22 55 33 22 56 34 23 57 35 24 57 35 24 56 34 23 56 34 23 55 33 22 56 34 23 52 32 21 53 33 24 52 33 19 52 32 21 52 32 21 50 30 19 48 30 18 49 29 20 49 29 20 49 29 20 47 27 18 48 28 19 47 27 18 46 26 17 44 26 16 46 26 17 44 25 18 43 24 17 42 23 16 40 23 16 39 22 15 39 20 14 38 20 16 39 21 17 33 20 14 31 17 14 29 18 14 29 18 14 27 16 14 25 15 13 23 15 12 21 16 13 22 14 11 19 14 10 18 14 11 18 14 11 18 14 11 18 14 11 19 15 12 19 15 12 19 15 12 17 16 12 19 15 12 17 16 14 18 14 13 16 15 13 15 14 12 14 12 13 14 12 13 14 14 14 14 12 13 12 12 12 12 12 12 10 10 10 11 11 11 
54 26 15 54 26 15 54 26 14 56 28 16 55 27 15 55 27 15 57 29 17 57 29 17 56 28 16 54 28 15 58 30 18 57 31 18 58 32 17 56 29 18 57 30 19 58 31 20 57 31 18 57 31 18 59 32 21 56 32 20 56 32 20 58 31 20 56 32 20 56 32 20 55 31 19 55 31 19 54 32 19 57 33 21 56 32 20 54 32 19 55 33 20 56 34 23 55 33 22 56 34 23 53 33 22 57 35 24 56 34 23 54 32 21 54 32 21 55 33 22 54 32 21 55 33 22 55 33 22 54 32 21 53 33 22 54 32 21 55 33 22 53 30 22 51 32 18 51 31 22 50 30 19 48 28 17 48 28 19 47 27 18 47 27 18 45 25 16 44 26 16 44 26 16 43 25 15 42 24 14 40 23 15 39 22 15 39 22 15 39 22 15 37 22 17 35 22 16 33 20 14 32 18 15 33 19 16 30 16 13 28 17 15 26 16 14 25 15 13 21 16 13 23 15 13 23 13 12 20 15 12 19 13 13 18 14 13 19 13 15 17 13 12 14 13 11 13 13 11 15 14 12 16 15 13 16 15 13 15 14 12 15 14 12 14 12 13 15 13 14 13 13 11 13 13 13 12 12 12 11 11 11 12 12 12 11 11 11 11 12 14 11 12 14 12 12 14 12 13 15 
53 26 15 55 27 16 54 27 16 55 27 16 55 27 16 55 27 16 56 28 16 57 29 17 55 27 13 56 28 16 57 29 17 57 31 18 56 29 18 57 30 19 56 29 20 57 30 19 57 30 19 57 31 18 58 32 19 57 34 20 55 31 19 55 31 19 55 31 19 55 31 19 55 31 19 55 31 19 55 31 19 56 32 20 53 31 18 54 32 19 53 31 18 52 32 21 54 32 21 55 33 22 55 33 22 54 34 23 55 33 22 54 32 21 54 32 21 56 34 23 52 30 19 53 31 20 54 32 21 53 31 20 52 29 21 50 28 17 53 28 21 52 29 21 49 29 20 50 30 21 47 27 18 48 28 19 47 27 20 46 26 19 46 26 19 46 26 19 43 26 18 43 24 17 43 24 17 40 23 16 34 19 12 36 18 14 34 19 14 35 20 15 34 19 16 32 18 15 29 18 14 29 18 14 27 17 15 25 15 13 25 15 14 22 14 12 24 16 14 20 14 14 20 14 14 18 14 13 17 13 14 18 14 15 19 15 16 15 13 14 13 13 13 14 12 13 14 12 13 14 12 15 12 12 12 11 11 11 12 12 12 14 14 14 12 12 14 11 13 12 12 12 12 10 11 13 12 12 14 11 12 14 11 12 14 11 12 14 11 12 14 11 12 14 11 12 14 11 12 14 
52 25 14 52 25 14 54 27 16 54 27 16 53 26 15 54 27 16 54 27 16 54 27 16 53 26 15 56 28 17 53 29 17 54 27 16 54 27 16 57 30 19 56 29 18 56 29 18 57 30 19 58 31 20 58 31 20 56 32 20 56 32 20 56 32 20 55 31 19 55 31 19 54 30 18 53 29 17 55 31 21 55 31 21 54 32 21 55 33 20 53 31 18 53 31 20 53 31 20 53 31 20 55 33 22 53 33 22 54 32 21 52 30 19 52 30 19 54 32 21 53 31 20 55 33 22 54 32 21 53 31 20 53 30 22 52 29 21 52 29 21 50 27 19 49 26 18 49 26 20 48 25 17 47 27 20 46 27 20 44 25 18 44 24 17 46 22 18 42 23 17 42 23 17 39 22 15 36 21 16 33 18 13 34 19 16 32 18 15 31 17 14 30 16 15 26 15 13 23 15 12 23 15 12 24 16 14 23 15 13 22 16 16 21 15 15 21 15 15 16 15 13 18 14 13 16 15 13 15 13 14 15 13 14 15 13 16 15 13 16 14 12 17 12 12 14 12 12 14 13 11 14 12 12 14 12 12 14 12 14 13 9 13 12 10 11 13 10 11 13 10 11 13 10 11 13 12 12 14 11 12 14 12 12 14 11 12 14 11 12 14 11 12 14 12 12 14 12 12 14 
52 25 16 52 25 16 53 26 17 51 27 17 53 26 19 52 25 14 53 26 15 52 25 14 53 26 15 53 26 15 53 26 15 54 27 16 54 27 16 56 29 18 57 30 19 57 30 19 56 29 18 57 30 19 57 30 19 58 31 20 56 32 20 56 32 20 55 31 19 54 30 18 54 30 18 54 32 19 54 32 21 55 31 21 54 32 21 54 32 21 53 31 20 53 31 20 51 31 20 53 31 20 54 32 21 55 33 22 54 31 23 49 29 18 52 30 19 54 31 23 55 32 24 54 31 25 53 33 24 54 31 23 53 31 20 52 30 19 52 29 21 49 29 20 49 29 20 48 28 19 47 27 18 48 28 21 47 27 20 45 26 19 43 24 17 43 22 17 42 23 19 40 23 16 40 21 15 38 21 14 35 20 15 35 20 17 33 18 15 33 19 16 29 18 16 26 16 14 24 16 13 21 16 13 23 15 13 20 16 13 22 17 14 20 16 15 20 14 14 17 13 12 18 14 15 18 14 15 16 14 15 14 14 14 15 13 16 14 12 15 11 12 14 12 12 14 13 13 15 12 12 14 13 13 15 11 11 13 11 11 13 11 12 14 10 11 13 11 12 14 10 11 13 9 10 12 10 11 13 10 11 13 10 11 13 10 11 13 10 11 13 10 11 13 10 11 13 10 11 13 
50 23 14 50 26 14 50 26 16 54 27 18 50 26 16 49 25 15 48 25 17 49 25 15 51 27 17 51 27 15 51 27 17 52 25 18 53 26 15 55 28 17 57 30 19 56 29 18 55 28 17 56 29 18 56 29 18 57 30 19 56 32 20 56 32 20 55 31 19 54 30 18 54 32 21 55 31 21 55 33 22 55 31 21 54 32 21 54 32 21 54 32 21 54 32 21 52 32 21 54 32 21 54 32 21 54 32 21 52 30 19 53 31 20 54 32 21 54 32 19 55 32 24 55 32 24 54 31 23 54 32 21 53 30 22 53 30 22 52 29 21 50 30 21 50 30 21 50 30 21 47 27 20 47 27 20 47 27 20 45 26 19 43 24 17 43 24 18 41 22 16 40 23 16 39 22 15 38 21 14 36 21 16 34 19 16 33 19 16 32 18 15 28 17 15 26 16 14 23 15 12 20 15 12 23 15 13 23 15 13 21 15 15 20 16 15 17 13 12 17 13 14 17 13 14 15 13 14 18 14 15 14 14 14 13 13 13 12 12 12 12 12 12 12 12 14 12 12 14 12 12 14 10 10 12 12 12 14 11 12 14 10 11 13 9 10 12 10 11 13 10 11 13 9 10 12 10 11 13 10 11 13 10 11 13 10 11 13 10 11 13 10 11 13 10 11 13 10 11 13 
49 25 15 48 24 14 49 25 15 50 26 16 50 25 18 50 25 18 50 26 16 50 26 14 51 27 17 51 27 17 51 27 17 50 25 18 49 25 15 51 27 17 54 30 20 53 29 19 53 29 19 53 29 19 53 29 19 55 31 21 55 31 19 55 31 19 55 31 19 54 32 21 55 31 21 55 33 22 53 31 20 53 31 20 53 31 20 53 31 20 53 31 20 53 31 20 51 31 20 54 32 21 54 32 21 53 31 20 54 31 23 54 32 21 54 32 21 54 31 23 54 31 23 54 31 25 55 32 24 55 32 24 55 32 24 53 30 22 50 30 21 51 31 22 52 29 21 50 30 23 47 27 20 45 25 18 46 26 19 46 27 20 45 26 19 42 25 18 41 24 17 41 24 17 38 21 14 38 20 16 35 20 15 34 19 16 32 18 15 31 17 14 28 17 15 27 17 15 24 16 13 23 15 13 21 16 13 20 15 12 21 13 11 19 15 12 18 14 13 17 13 12 14 13 11 14 14 14 14 12 13 14 14 14 13 13 15 14 12 15 11 11 13 11 11 13 12 12 14 12 12 14 11 11 13 10 11 13 10 11 13 10 11 13 9 10 12 9 10 12 9 10 12 9 10 12 10 11 13 10 11 13 10 11 13 11 12 14 9 10 12 10 11 13 10 11 13 10 11 13 
47 22 15 47 22 15 48 23 16 48 23 16 49 24 19 50 25 18 50 26 16 49 27 16 49 27 16 50 26 16 50 26 16 49 25 15 49 25 15 49 25 15 52 28 18 52 28 18 52 28 18 52 28 18 53 29 19 53 29 19 54 32 19 55 31 19 55 31 21 54 32 21 55 33 22 53 31 20 55 31 21 53 31 20 53 31 20 53 31 20 54 32 21 53 31 20 53 31 20 53 31 20 53 31 20 50 30 19 53 30 22 56 33 25 52 32 23 53 30 22 53 31 20 51 31 22 54 31 23 56 33 25 55 32 24 51 31 24 52 29 21 50 30 21 50 30 23 51 28 22 48 28 21 46 26 19 47 27 20 46 27 20 44 25 19 41 24 17 40 23 16 39 22 15 39 21 17 38 20 16 34 19 14 33 18 15 32 17 14 30 16 13 28 16 16 28 18 16 24 16 13 24 16 13 21 16 13 19 14 11 19 13 13 19 13 13 18 14 13 17 13 14 15 13 14 14 12 13 14 12 13 13 13 13 13 13 15 13 13 15 11 11 13 12 10 13 11 11 13 10 11 13 11 12 14 11 12 14 11 12 14 10 11 13 9 10 12 9 10 12 10 11 13 9 10 12 10 11 13 10 11 13 10 11 13 10 11 13 10 11 13 10 11 13 10 11 13 10 11 13 
46 21 14 46 23 15 47 22 15 48 23 16 48 25 17 48 25 17 48 25 17 48 25 17 49 27 16 50 26 16 50 26 16 50 26 16 49 25 15 50 26 16 51 27 17 51 27 17 53 29 19 53 29 19 53 29 19 53 29 19 54 30 20 54 30 20 53 31 20 55 33 22 55 33 22 55 31 21 53 31 20 53 31 20 52 30 19 53 31 20 53 31 20 52 30 19 52 30 19 52 30 19 52 30 19 50 30 19 52 29 21 54 32 21 51 31 20 54 32 21 54 31 25 51 31 22 54 31 23 54 31 23 55 32 24 54 31 23 50 30 23 54 31 25 52 29 21 51 31 24 51 28 22 48 28 21 47 27 20 46 26 17 44 25 19 42 23 17 41 24 17 39 22 15 39 21 17 38 20 16 38 20 16 34 19 16 33 19 16 32 18 15 29 18 14 27 17 15 24 16 13 24 16 14 22 17 14 21 17 14 21 16 13 18 14 13 19 13 13 15 14 12 14 12 13 13 13 13 12 12 12 13 13 13 13 13 15 12 12 14 11 11 13 11 11 13 10 10 12 10 11 13 11 12 14 12 13 15 11 12 14 9 10 12 10 11 13 9 10 12 9 10 12 10 11 13 10 11 13 10 11 13 10 11 13 10 11 13 10 11 13 10 11 13 10 11 13 10 11 13 
45 20 13 46 22 12 48 23 16 48 23 16 50 23 16 47 22 15 46 23 15 47 24 16 48 25 17 49 26 18 50 25 18 50 26 16 50 26 16 50 26 16 50 26 16 51 27 17 52 28 18 52 28 18 53 29 19 52 28 18 53 31 20 51 29 18 54 30 20 53 31 20 54 32 21 52 30 19 54 30 20 54 32 21 53 31 20 53 31 20 53 31 20 51 29 18 52 30 19 52 30 19 53 31 20 52 32 21 55 32 24 54 31 25 54 31 23 54 31 23 55 32 24 55 32 24 53 30 22 52 29 21 54 31 23 52 32 25 53 30 22 54 31 23 54 31 23 53 30 22 50 30 23 51 28 22 48 28 19 46 26 19 44 25 18 43 24 18 41 24 17 40 23 16 38 20 16 40 22 18 39 21 17 36 21 18 34 19 12 33 19 16 29 18 16 26 16 15 23 15 12 24 16 13 24 16 14 21 15 15 20 14 14 18 14 13 15 11 12 16 12 13 15 13 14 15 13 14 12 12 12 12 12 12 11 11 13 13 11 14 12 12 14 11 12 14 10 11 13 10 11 13 11 12 14 11 12 14 11 12 14 9 10 12 10 11 13 10 11 13 10 11 13 9 13 14 10 11 13 10 11 13 10 11 13 11 12 14 9 10 12 10 11 13 10 11 13 10 11 13 
44 21 13 45 20 15 47 22 17 47 24 16 46 23 15 46 23 15 46 23 15 47 24 16 48 24 14 48 25 17 49 24 17 49 24 17 50 26 16 50 26 16 50 26 16 50 26 16 51 27 17 51 27 17 52 28 18 53 29 19 52 28 18 52 30 19 50 30 19 53 31 20 53 31 20 52 30 19 53 31 20 54 32 21 53 31 20 53 31 20 53 31 20 52 30 19 52 30 19 52 30 19 53 31 20 51 31 20 54 31 23 54 31 23 54 31 23 53 30 22 54 31 23 54 31 23 53 30 22 53 30 22 54 31 23 54 31 23 54 31 23 55 32 24 54 31 23 53 30 22 53 30 22 52 29 23 51 28 20 47 26 21 44 26 16 44 25 18 41 24 17 40 23 16 39 21 17 40 22 18 40 22 18 39 21 17 37 19 17 32 19 13 30 19 17 26 16 14 24 16 13 24 16 14 24 16 14 22 17 14 20 15 12 18 14 13 15 11 10 15 14 12 15 13 14 14 14 14 12 12 12 12 12 12 11 13 12 12 12 12 11 11 11 11 12 14 10 11 13 10 11 13 10 11 13 10 11 13 12 13 15 10 11 13 10 11 13 9 10 12 8 12 13 10 14 15 10 11 13 10 11 13 10 11 13 10 11 13 10 11 13 10 11 13 10 11 13 10 11 13 
45 22 14 45 22 14 46 23 15 46 23 15 47 24 16 47 24 18 46 23 15 47 24 16 47 24 16 47 24 16 47 24 16 47 24 16 48 24 14 49 25 15 49 25 15 49 25 15 49 25 15 50 26 16 52 28 18 53 29 19 51 29 18 49 29 18 52 30 19 51 29 18 52 30 19 51 29 18 53 31 20 54 32 21 53 31 20 53 31 20 53 31 20 52 30 19 52 30 19 52 30 19 54 32 21 52 32 21 54 31 23 52 32 23 55 32 24 54 31 23 55 32 24 54 31 23 51 31 22 54 31 23 55 32 24 56 33 25 54 31 23 55 30 23 54 31 23 52 29 21 52 29 21 53 30 22 52 29 21 49 29 22 44 26 16 44 27 19 44 25 19 42 25 18 37 22 19 41 22 18 41 22 18 40 21 17 35 20 15 32 18 15 28 17 15 27 17 15 25 15 13 24 16 14 23 15 13 20 15 12 19 13 13 17 13 12 17 13 12 16 12 13 14 12 13 13 11 12 12 12 12 13 13 13 10 11 13 11 12 14 10 11 13 10 11 13 10 11 13 11 12 14 10 11 13 10 11 13 13 14 16 10 11 13 10 11 13 8 12 13 8 12 13 9 13 14 10 11 13 10 11 13 10 11 13 10 11 13 10 11 13 10 11 13 10 11 13 10 11 13 
