P3
100 50
255
75 82 92 75 82 92 76 82 94 74 80 92 78 84 96 79 85 97 79 85 97 78 84 96 78 85 95 78 85 95 80 84 93 81 85 96 82 86 97 83 87 98 82 86 97 83 87 96 86 90 99 88 92 101 86 90 99 86 90 99 87 91 100 87 91 100 87 91 100 88 92 101 87 91 100 87 91 100 86 90 99 88 92 101 87 91 100 89 93 102 88 92 101 87 91 100 86 90 99 86 90 99 86 90 99 86 90 99 86 90 99 85 89 98 85 89 98 86 90 99 86 91 97 84 91 97 85 90 96 84 91 97 83 90 98 84 88 97 82 89 97 83 87 96 80 87 95 78 85 93 74 81 89 78 82 93 78 82 91 77 84 94 73 79 91 69 76 86 67 74 84 66 73 83 71 78 88 67 74 84 66 72 84 66 72 84 64 70 82 62 68 80 56 64 75 54 60 72 53 59 71 52 58 70 47 54 64 43 50 60 38 47 56 36 45 54 34 43 52 32 41 50 27 36 45 23 32 41 22 31 40 21 31 40 25 34 41 24 35 41 21 32 38 20 33 39 19 34 39 19 34 39 22 33 39 22 33 39 21 32 38 22 35 41 24 35 41 25 36 42 26 37 43 26 37 43 26 37 43 25 36 42 24 35 41 26 37 43 27 38 44 25 36 42 25 36 42 25 36 42 
77 84 94 74 81 91 75 82 92 75 81 93 78 84 96 80 87 97 79 86 96 78 85 95 78 85 95 78 85 95 82 86 97 82 86 97 82 86 95 83 87 96 83 87 96 83 87 96 85 89 98 87 91 100 87 91 100 86 90 99 86 90 99 86 90 99 87 91 100 88 92 101 88 92 101 87 91 100 87 91 100 89 93 102 87 91 100 88 92 101 87 91 100 88 92 101 87 91 100 87 91 100 86 90 99 86 90 99 86 90 99 85 89 98 84 88 97 84 88 97 81 88 98 84 88 97 83 90 96 85 90 96 84 89 95 81 88 96 81 85 94 79 86 96 81 85 94 77 84 92 75 82 92 78 82 93 78 85 95 78 85 95 76 80 91 72 79 89 70 77 87 69 76 86 69 76 86 68 75 85 66 73 83 65 71 83 64 70 82 62 68 82 58 66 77 55 61 73 53 59 71 52 58 70 45 52 62 40 47 57 37 46 55 36 45 54 32 41 48 30 38 49 26 35 44 23 32 41 23 32 41 24 33 42 22 33 39 20 31 37 21 32 38 23 34 40 23 34 40 20 33 41 19 32 40 20 33 39 21 32 38 22 33 39 23 34 40 24 35 41 25 36 42 26 37 43 24 35 41 24 35 41 23 34 40 24 35 41 27 38 44 27 38 44 26 37 43 26 37 43 
78 82 94 77 81 92 77 81 92 76 80 91 79 83 94 83 87 98 82 86 95 79 83 92 78 85 95 78 85 95 80 84 95 82 86 97 82 86 95 82 86 95 84 88 97 84 88 97 85 89 98 85 89 98 87 91 100 86 90 99 85 89 98 87 91 100 87 91 100 88 92 101 89 93 102 87 91 100 87 91 100 89 93 102 88 92 101 88 92 101 87 91 100 88 92 101 88 92 101 86 90 99 86 90 99 87 91 100 85 89 98 86 90 99 85 89 98 84 88 97 84 88 97 83 90 98 86 90 99 83 90 98 83 90 98 83 87 96 79 86 94 81 85 94 79 86 94 76 83 91 75 84 91 79 83 94 79 86 96 77 83 95 75 81 93 73 79 91 71 78 88 71 78 88 70 76 88 68 75 85 66 72 84 64 70 82 65 71 83 62 69 79 59 65 77 56 62 74 53 59 71 51 57 69 44 51 61 38 47 56 37 46 55 35 44 53 31 40 49 29 38 47 24 33 40 23 32 39 23 32 41 25 34 41 21 31 40 21 30 39 21 32 38 23 34 40 23 34 40 22 32 41 21 31 40 20 33 39 20 33 39 21 32 38 22 33 39 23 34 40 25 36 42 25 36 42 24 35 41 23 34 40 24 35 41 24 35 41 25 36 42 26 37 43 27 38 44 26 36 45 
78 82 93 79 83 94 79 83 94 78 82 93 80 84 95 82 86 97 82 86 97 81 85 96 79 86 94 80 87 95 81 85 94 83 87 96 82 86 95 84 88 97 84 88 97 84 88 97 85 89 98 85 89 98 85 89 98 86 90 99 87 91 100 86 90 99 87 91 100 89 93 102 89 93 102 89 93 102 89 93 102 89 93 102 88 92 101 88 92 101 89 93 102 89 93 102 88 92 101 87 91 100 87 91 100 85 89 98 87 91 100 87 91 100 86 90 99 86 90 99 86 90 99 84 91 99 86 90 99 82 89 97 83 90 98 83 87 96 80 87 95 82 86 95 79 86 92 78 82 93 76 83 93 79 83 94 78 82 94 76 83 93 75 81 93 72 78 90 71 77 89 70 76 88 70 77 87 68 75 85 66 73 83 64 70 82 62 68 80 60 66 78 59 65 77 56 62 74 54 60 72 51 57 69 47 54 64 40 49 58 38 47 56 35 44 53 31 40 49 28 37 44 24 35 41 24 33 40 25 36 42 24 35 39 22 32 41 20 30 39 20 30 39 21 31 40 23 34 40 21 34 40 21 34 40 23 34 40 23 33 42 20 33 41 22 33 39 23 34 40 25 36 42 24 35 41 23 34 40 24 35 41 25 36 42 25 36 42 27 38 44 27 37 46 28 38 47 27 37 46 
78 82 93 80 84 95 80 84 95 79 83 94 81 85 96 82 86 97 82 86 97 81 85 96 81 88 96 80 87 95 83 87 96 83 87 96 83 87 96 84 88 97 84 88 97 84 88 97 85 89 98 87 91 100 88 92 101 86 90 99 87 91 100 88 92 101 88 92 101 89 93 102 89 93 102 90 94 103 89 93 102 89 93 102 88 92 101 88 92 101 89 93 102 88 92 101 89 93 102 87 91 100 87 91 100 87 91 100 87 91 100 88 92 101 87 91 100 86 90 99 84 91 99 87 91 100 85 92 100 86 90 99 86 90 99 82 89 97 82 86 95 81 88 96 82 86 97 78 85 95 78 85 95 80 84 96 76 82 94 76 82 94 76 80 91 73 79 91 73 80 90 71 77 89 72 78 92 68 74 86 65 71 83 61 67 79 59 65 77 57 64 74 55 61 73 55 61 73 53 59 71 53 59 71 51 60 69 45 54 63 39 48 57 37 44 54 31 40 45 30 39 46 27 36 43 27 36 43 28 37 44 23 34 40 22 31 38 20 30 39 18 28 37 19 30 36 21 34 40 24 35 41 25 36 42 23 36 42 22 35 41 22 32 41 24 35 41 25 36 42 26 37 43 25 36 42 24 35 41 25 36 42 25 36 42 27 38 44 26 37 43 27 37 46 27 37 46 28 38 47 
79 83 94 79 83 94 80 84 95 79 83 94 81 85 96 83 87 96 83 87 96 83 87 98 82 89 97 82 89 97 84 88 97 85 89 98 84 88 97 85 89 98 85 89 98 86 90 99 85 89 98 84 88 97 87 91 100 87 91 100 87 91 100 87 91 100 88 92 101 90 94 103 90 94 103 89 93 102 88 92 101 89 93 102 90 94 103 89 93 102 89 93 102 89 93 102 88 92 101 87 91 100 87 91 100 87 91 100 88 92 101 89 93 102 89 93 102 89 93 102 86 93 101 87 91 100 84 91 99 85 89 98 84 88 97 81 88 96 83 87 96 81 88 96 82 89 97 80 87 97 79 87 98 79 83 92 74 80 92 74 80 92 74 80 92 72 78 90 72 78 90 70 76 88 68 74 86 68 74 86 65 72 82 63 69 81 60 66 78 57 63 75 56 62 74 54 60 72 52 58 70 50 56 68 50 59 68 45 54 63 41 50 59 38 47 54 34 43 50 31 42 46 27 38 44 26 37 43 26 37 41 21 32 38 20 31 37 19 30 36 19 30 36 19 30 36 22 33 39 22 35 41 22 35 41 25 34 41 23 34 40 24 35 41 24 35 41 24 35 41 24 35 41 24 35 41 23 34 40 24 35 41 23 34 40 26 37 43 28 39 45 28 39 45 28 38 47 28 38 47 
78 85 95 78 85 95 78 85 95 78 85 95 79 86 96 82 89 97 84 91 99 83 90 98 82 89 97 83 90 98 85 89 98 85 89 98 85 89 98 86 90 99 85 89 98 85 89 98 87 91 100 87 91 100 88 92 101 88 92 101 89 93 102 88 92 101 89 93 102 90 94 103 89 94 100 89 94 100 89 94 100 90 95 101 90 95 101 89 94 100 90 95 101 90 95 101 88 93 99 89 94 100 88 93 99 89 93 102 89 93 102 89 93 102 88 92 101 89 93 102 89 93 102 85 92 100 85 89 98 82 89 97 81 88 96 83 87 96 82 89 97 83 87 98 81 88 98 84 88 99 79 86 96 78 82 94 78 82 94 73 79 91 71 77 89 71 77 89 70 76 88 69 75 87 66 72 84 66 72 84 65 71 83 63 69 81 62 68 80 59 66 76 56 62 74 53 59 71 51 57 69 48 56 67 47 56 65 44 53 62 40 49 56 38 49 53 34 43 50 30 39 46 27 36 41 25 36 42 25 36 40 22 33 39 20 31 37 19 30 36 20 31 37 21 32 38 22 35 41 25 36 42 24 35 41 22 33 39 22 33 39 23 34 40 22 33 39 22 33 39 22 33 39 23 34 40 22 33 39 23 34 40 23 34 40 25 36 42 26 37 43 26 36 45 27 37 47 26 36 45 
79 86 96 79 86 96 79 86 96 80 87 97 79 86 96 81 88 98 83 90 98 82 89 97 83 90 98 83 90 98 85 89 98 86 90 99 86 90 99 86 90 99 87 91 100 86 90 99 86 90 99 87 91 100 88 92 101 88 92 101 89 93 102 88 92 101 90 94 103 90 94 103 90 95 101 90 95 101 89 94 100 91 96 102 91 96 102 90 95 101 91 96 102 90 95 101 89 94 100 88 93 99 89 94 100 90 95 101 90 94 103 89 93 102 90 94 103 89 93 102 86 93 101 87 91 100 83 90 98 84 88 97 83 87 96 82 89 97 82 86 97 81 87 99 82 88 100 82 88 100 79 85 97 78 82 94 76 82 94 75 81 93 74 78 90 72 78 90 71 77 89 70 76 88 67 73 85 66 72 84 66 72 84 64 70 82 63 69 81 59 65 77 55 61 73 54 60 72 52 58 70 49 57 68 45 54 63 43 52 61 41 50 57 34 48 51 32 43 49 30 39 46 27 38 44 25 36 40 24 35 41 21 32 36 19 29 38 18 29 33 20 31 37 22 33 39 22 35 41 22 35 41 23 36 42 24 35 41 24 35 41 23 34 40 22 33 39 22 33 39 23 34 40 23 34 40 23 34 40 23 34 40 25 36 42 24 35 41 25 36 40 25 36 42 24 34 43 25 35 44 
78 85 95 80 87 95 80 87 97 79 86 94 80 87 95 81 88 96 82 89 97 84 91 99 83 90 98 84 91 99 85 92 100 84 91 99 86 91 97 87 92 98 87 92 98 87 92 98 88 92 101 87 92 98 88 93 99 88 92 101 89 93 102 90 95 101 89 94 100 91 95 106 90 95 101 88 93 99 89 94 100 91 96 102 91 96 102 91 95 104 89 93 102 90 95 101 94 94 102 91 96 102 89 93 102 90 95 101 90 94 103 90 94 103 89 93 102 88 92 101 86 93 101 85 92 100 83 90 98 83 90 98 81 88 96 81 88 96 80 87 95 82 89 97 81 88 98 81 88 98 79 86 96 77 83 95 78 85 95 76 82 94 74 80 92 73 79 91 72 80 91 73 79 91 70 77 87 67 73 85 66 72 84 61 70 79 60 68 79 58 64 76 55 62 72 54 60 74 53 60 70 53 59 73 43 50 60 42 51 60 40 49 58 37 44 54 33 42 49 28 39 45 28 39 45 27 38 42 24 35 41 20 31 33 20 31 35 17 30 36 18 31 37 19 32 38 21 34 40 21 34 40 21 34 40 22 35 41 23 36 42 22 35 41 24 34 43 24 35 41 27 38 44 26 36 45 25 35 44 24 35 41 25 36 42 23 33 42 25 36 42 25 36 42 25 35 44 23 33 42 
81 85 94 83 87 96 83 87 96 83 87 96 81 85 94 80 84 93 84 88 97 87 91 100 86 90 99 87 91 100 86 90 99 86 90 99 87 91 100 87 91 100 87 91 100 88 92 101 88 93 99 87 92 98 88 93 99 87 91 100 87 92 98 88 93 99 88 93 99 90 94 103 89 94 100 88 92 101 89 93 102 91 95 104 91 95 104 91 95 104 89 93 102 89 93 102 91 94 103 91 96 102 89 93 102 89 94 100 89 93 102 88 92 101 88 92 101 89 93 102 86 93 101 85 92 100 84 91 99 82 89 97 82 89 97 82 89 97 82 89 97 81 88 96 81 88 96 78 85 95 77 84 94 77 84 94 77 84 94 77 83 95 74 80 92 71 77 89 72 80 91 75 81 93 72 78 90 67 73 85 64 70 82 62 68 80 61 70 79 59 65 77 57 64 74 55 61 73 54 61 71 53 59 71 44 51 61 42 51 60 41 50 59 37 44 54 34 45 51 31 42 48 29 40 46 26 37 41 23 36 42 21 32 38 21 32 38 17 30 36 19 30 36 20 31 37 21 32 38 22 33 39 24 35 41 25 36 42 26 37 43 23 34 40 23 34 40 25 35 44 26 36 45 25 36 42 24 35 41 23 33 42 24 34 43 23 36 42 25 36 42 27 38 44 27 37 46 22 32 41 
82 86 95 83 87 96 85 89 98 85 89 98 84 88 97 83 87 96 84 88 97 86 90 99 86 90 99 87 91 100 87 91 100 87 91 100 86 90 99 87 91 100 87 91 100 89 92 101 89 93 102 89 94 100 89 94 100 90 95 101 88 92 101 89 94 100 91 96 102 92 97 103 92 97 103 90 94 103 91 96 102 94 99 105 93 98 104 92 97 103 90 95 101 91 96 102 92 96 105 93 98 104 91 96 102 90 95 101 90 95 101 88 92 101 87 91 100 88 92 101 88 92 101 86 90 99 86 90 99 84 88 97 85 89 98 84 88 97 83 87 98 83 87 98 80 87 95 80 87 97 78 85 95 78 85 95 78 85 95 77 83 95 74 80 92 73 79 91 73 79 91 73 79 91 70 76 88 67 73 85 64 70 82 63 70 80 61 67 79 60 66 78 58 64 76 56 62 76 53 60 70 52 58 70 45 52 62 43 52 61 44 53 60 40 49 56 36 47 53 30 41 47 26 37 43 23 34 40 23 34 40 21 32 38 19 30 36 18 31 37 20 31 37 19 30 36 22 33 39 23 34 40 23 34 40 24 35 41 24 35 41 23 34 40 21 34 40 22 35 43 25 35 44 23 34 40 23 34 40 23 33 42 24 34 43 24 35 41 24 35 41 25 36 42 26 36 45 25 35 44 
84 88 97 84 88 97 85 89 98 86 90 99 86 90 99 85 89 98 86 90 99 85 89 98 86 90 99 87 91 100 86 90 99 86 90 99 88 92 101 88 92 101 88 91 100 89 92 101 89 94 100 89 94 100 91 96 102 90 95 101 90 95 101 91 96 102 91 96 102 92 97 103 92 97 103 91 96 102 91 96 102 93 98 104 92 97 103 91 96 102 91 96 102 92 97 103 92 96 105 92 97 103 90 95 101 91 96 102 90 95 101 89 93 102 88 92 101 87 91 100 88 92 101 85 89 98 86 90 99 85 89 98 85 89 98 86 90 99 82 86 95 83 87 96 80 87 97 81 88 98 78 85 95 78 85 95 79 86 94 78 85 95 74 80 92 73 79 91 75 79 91 74 78 90 70 76 88 66 72 84 65 71 83 63 69 81 63 70 80 62 68 80 58 64 76 57 63 75 53 60 70 53 59 71 46 53 63 42 50 61 41 50 59 40 49 56 36 47 53 29 40 46 26 37 43 22 35 41 22 33 39 20 31 37 19 30 36 20 31 37 20 31 37 20 31 37 21 32 38 22 33 39 22 33 39 22 33 39 23 34 40 24 35 41 25 35 44 25 36 42 24 35 41 24 34 43 24 34 43 22 35 41 22 35 41 22 35 43 24 35 41 25 36 42 26 36 45 25 35 44 
85 89 98 83 87 96 84 88 97 85 89 98 88 92 101 86 90 99 87 91 100 87 91 100 87 91 100 85 89 98 85 89 98 88 92 101 89 93 102 89 93 102 89 93 102 88 92 101 87 90 97 88 93 99 88 93 99 90 95 101 89 94 100 89 94 100 90 95 101 91 96 102 91 96 102 91 96 100 92 97 103 93 98 104 92 97 103 92 97 103 91 96 102 91 96 102 91 96 102 90 95 99 89 94 100 91 94 101 89 94 100 89 93 102 89 93 102 88 92 101 86 90 99 86 90 99 86 90 99 85 89 98 84 88 97 84 88 97 83 87 96 83 87 96 80 87 95 80 87 97 80 87 97 79 85 97 76 82 94 77 83 95 74 81 91 73 79 91 73 77 89 72 76 88 70 77 87 68 74 86 66 72 84 65 72 82 65 71 83 62 69 79 59 65 79 56 62 74 55 62 72 55 61 73 47 54 64 42 51 60 39 48 55 37 48 54 36 47 53 28 39 45 26 37 43 24 35 41 22 33 39 19 30 36 17 30 36 18 31 37 20 31 37 21 32 38 21 32 38 22 33 39 23 34 40 23 34 40 24 35 41 26 37 43 24 37 45 24 37 43 23 36 42 26 36 45 26 36 45 26 37 43 25 36 42 25 35 44 25 36 42 26 37 43 26 36 45 25 35 44 
85 89 98 85 89 98 83 87 96 85 89 98 87 91 100 86 90 99 87 91 100 89 93 102 87 91 100 84 88 97 86 90 99 88 92 101 89 93 102 92 96 105 88 92 101 86 93 101 87 90 99 88 91 98 88 93 99 90 95 101 90 94 103 90 95 101 90 95 101 92 97 103 91 96 100 91 96 99 91 96 100 93 98 102 92 97 101 91 96 100 92 97 103 91 96 100 91 96 100 90 95 99 91 94 101 92 92 100 90 93 100 87 91 100 87 91 100 86 90 99 87 91 100 86 90 99 84 88 99 84 88 99 85 89 100 83 87 98 84 88 99 82 86 97 80 87 95 81 88 98 79 86 96 76 82 94 76 83 93 76 82 94 73 79 91 73 79 91 72 76 88 69 75 87 70 76 88 68 75 85 66 72 84 65 71 83 64 71 81 61 67 79 57 64 74 56 62 74 56 62 74 56 62 74 51 58 68 42 51 60 36 45 54 32 42 51 34 43 50 30 41 47 27 40 46 24 39 44 22 35 41 19 30 36 21 32 38 20 30 39 17 30 36 18 31 37 18 31 37 19 32 38 20 33 39 21 34 40 22 35 41 23 36 42 25 36 42 26 36 45 27 37 46 26 37 43 25 36 42 25 35 44 25 38 46 25 38 44 27 38 44 26 37 43 25 35 44 25 35 44 
85 89 98 85 89 98 85 89 98 86 90 99 86 90 99 87 91 100 86 90 99 87 91 100 86 90 99 86 90 99 88 92 101 88 92 101 89 93 102 90 94 103 89 93 102 89 93 102 88 91 98 90 93 100 88 93 99 90 95 101 90 95 99 91 96 100 91 96 100 90 95 101 92 97 101 91 96 100 91 96 100 92 97 101 91 96 100 91 96 102 91 96 102 90 95 101 91 96 102 90 95 99 91 96 102 91 94 99 91 96 102 89 93 102 89 94 100 88 92 101 87 91 100 86 90 99 84 88 97 84 88 97 84 88 97 83 87 96 83 87 96 82 86 95 81 88 96 81 88 98 80 87 97 78 85 95 78 85 95 76 82 94 74 80 92 73 79 91 72 79 89 72 78 90 70 77 87 68 74 86 66 72 84 64 71 81 62 68 80 60 66 78 56 62 74 56 62 74 55 61 73 55 61 73 52 59 69 45 54 63 40 49 58 34 47 55 34 45 51 31 42 48 29 40 46 25 38 44 25 36 42 21 32 38 21 32 38 19 32 40 21 32 38 22 33 39 19 30 36 20 31 37 22 33 39 23 34 40 25 36 42 25 36 42 22 35 41 25 35 44 27 37 46 27 38 44 25 36 42 24 34 43 23 33 42 21 32 38 23 34 40 25 36 42 26 36 45 27 37 46 
84 89 95 86 90 99 86 91 97 86 90 99 87 91 100 87 91 100 88 92 101 88 92 101 89 93 102 88 92 101 88 92 101 88 92 101 89 94 100 89 94 100 90 95 101 91 94 101 92 92 100 90 93 100 91 96 102 92 97 103 91 96 102 92 97 101 91 96 100 92 97 103 93 98 102 92 97 103 91 96 102 92 97 101 91 96 100 91 96 100 92 97 101 91 96 100 93 96 105 91 96 100 92 97 103 91 96 100 89 96 102 90 94 103 89 94 100 89 93 102 87 91 100 88 92 101 85 89 98 86 90 99 84 88 97 83 87 96 84 88 97 84 88 97 83 90 98 80 87 97 79 86 96 77 84 94 78 85 95 77 84 94 74 81 91 73 79 91 74 81 91 72 78 90 69 76 86 67 73 85 65 71 83 63 70 80 62 68 80 59 67 78 59 65 77 58 64 76 56 62 74 54 60 72 50 56 68 45 53 64 41 50 59 34 47 55 34 44 53 29 39 49 25 38 44 24 37 43 22 35 41 22 32 41 21 32 38 22 33 39 23 34 40 25 36 42 22 33 39 21 32 38 21 32 38 22 33 39 24 35 41 23 34 40 23 33 42 24 35 41 27 38 44 27 37 46 28 38 47 27 38 44 25 36 42 21 31 40 22 33 39 26 37 43 27 37 46 28 38 47 
85 89 98 86 90 99 87 91 100 88 92 101 87 91 100 87 91 100 88 92 101 88 92 101 88 92 101 87 91 100 89 93 102 88 93 99 91 95 104 88 93 99 89 94 100 90 95 101 89 94 100 91 96 102 92 95 102 91 96 102 93 96 101 92 97 101 91 96 100 93 98 102 93 98 102 91 96 100 93 98 104 93 98 104 92 97 103 92 97 101 92 95 100 93 96 101 93 98 102 92 97 101 91 96 102 92 97 101 91 96 102 91 96 102 89 93 102 88 92 101 88 92 101 87 91 100 87 91 100 86 90 99 86 90 99 83 87 96 83 87 96 84 88 97 82 89 97 80 87 95 81 85 96 80 84 95 80 82 94 78 82 94 73 80 90 73 81 92 76 80 92 73 79 91 72 78 90 67 73 85 66 72 84 63 70 80 60 66 78 62 66 78 60 66 78 57 63 75 56 63 73 53 59 71 47 56 65 43 52 61 40 49 58 36 46 55 34 44 53 27 40 46 26 39 47 23 36 42 25 34 41 23 34 40 20 33 41 20 33 41 23 34 40 22 33 39 21 34 40 22 33 39 22 33 39 22 35 41 24 35 41 23 34 40 24 35 41 25 36 42 25 35 44 26 37 43 27 38 44 27 38 44 28 39 45 24 35 41 23 34 40 24 35 41 27 38 44 26 39 45 
85 89 98 87 91 100 87 91 100 88 92 101 87 91 100 86 90 99 87 91 100 87 91 100 87 91 100 87 91 100 89 93 102 88 92 101 90 95 101 90 94 103 90 95 99 89 94 100 91 96 102 91 96 102 92 95 100 93 98 102 93 96 101 91 96 102 92 97 103 93 98 104 93 98 102 93 98 102 94 99 103 93 98 102 92 97 103 92 97 103 93 96 103 94 97 102 94 99 103 92 97 101 92 97 103 92 97 103 91 96 102 90 95 101 91 95 104 89 93 102 88 92 101 86 90 99 87 91 100 85 89 98 86 90 99 84 88 97 84 88 97 84 88 97 81 88 96 79 86 94 77 84 94 77 84 94 75 82 92 76 82 94 73 79 91 73 80 88 74 80 92 72 78 90 69 75 87 67 73 85 66 72 84 63 70 80 60 66 78 58 64 76 61 67 79 57 63 75 55 62 72 52 58 70 48 55 65 44 51 61 38 45 55 36 46 55 33 43 52 29 39 48 28 38 47 23 36 42 24 35 41 21 32 38 21 34 40 21 34 42 23 34 40 19 30 36 19 32 38 21 32 38 24 35 41 22 35 41 23 34 40 23 34 40 25 39 42 27 40 46 24 37 45 21 34 40 24 37 43 25 38 44 25 38 44 28 41 47 26 37 43 24 35 41 25 36 42 26 37 43 
86 90 99 87 91 100 87 91 100 86 90 99 86 90 99 86 90 99 88 92 101 88 92 101 89 93 102 88 92 101 88 92 103 90 94 103 90 95 101 91 95 104 91 96 102 90 94 103 91 96 102 91 96 102 93 96 103 92 97 103 94 97 102 92 97 101 91 96 100 94 99 103 93 98 102 94 99 103 94 99 103 95 100 106 95 100 106 93 98 102 93 96 101 93 96 101 94 99 103 93 98 102 91 96 102 91 96 102 91 96 102 89 94 100 89 93 102 89 93 102 87 91 100 86 90 99 86 90 99 85 89 98 85 89 98 83 87 96 82 86 95 82 86 95 79 86 94 78 85 93 79 86 96 78 85 95 78 85 95 76 83 93 73 80 90 73 79 91 72 79 89 71 77 89 67 73 85 68 74 86 67 73 85 64 71 81 62 68 80 60 66 78 58 64 76 57 63 75 55 61 73 54 60 72 49 58 67 47 53 65 42 49 59 37 47 56 35 45 54 33 43 52 31 41 50 24 39 44 22 35 41 22 33 39 20 31 37 19 30 36 20 31 37 21 32 38 20 33 39 22 33 39 22 33 39 22 35 41 26 37 43 25 36 42 26 37 43 26 37 43 24 34 43 24 35 41 26 37 43 26 37 43 25 36 42 25 36 42 23 36 42 23 36 42 27 37 46 28 38 47 
87 91 100 86 90 99 87 91 100 88 92 101 87 91 100 88 92 101 90 94 103 89 93 102 89 93 102 89 93 102 89 93 102 90 94 103 90 94 103 91 95 104 91 95 104 90 94 103 90 95 101 90 94 103 91 94 101 93 98 104 94 97 102 92 97 101 92 97 101 94 99 105 93 98 102 93 98 102 93 98 104 96 101 107 95 100 104 94 99 103 95 98 103 94 97 102 92 97 101 93 98 102 91 96 102 92 97 103 89 94 100 89 94 100 89 94 100 88 92 101 88 92 101 85 89 98 85 89 98 84 88 97 84 88 97 82 86 95 83 87 96 84 88 97 79 86 96 79 86 94 77 86 95 79 86 96 79 86 96 76 83 93 76 83 93 75 81 93 73 80 90 71 78 88 69 75 87 69 75 87 68 74 86 65 71 83 64 70 82 61 67 79 60 66 78 57 63 75 56 62 74 53 59 71 48 57 66 47 55 66 42 51 60 38 48 57 35 45 54 33 43 52 30 40 49 25 38 44 23 36 42 22 33 39 21 32 38 20 31 37 21 32 38 23 34 40 20 33 39 23 34 40 23 34 40 23 36 42 25 36 42 23 34 40 23 34 40 22 33 39 24 35 41 25 36 42 26 36 45 27 37 46 27 38 44 24 35 41 26 37 43 27 38 44 28 38 47 28 38 47 
87 91 100 87 91 100 88 92 101 88 92 101 88 92 101 89 93 102 89 93 102 89 93 102 90 94 103 91 96 102 89 93 104 91 96 102 91 95 104 91 95 104 91 95 104 91 95 104 91 95 104 91 96 102 92 95 102 93 98 104 93 96 101 93 98 102 93 98 102 93 98 102 94 99 103 93 98 102 93 98 102 95 100 104 94 99 105 95 100 106 94 97 102 94 97 102 93 98 102 94 99 103 91 96 102 91 96 102 90 95 101 90 95 101 89 94 100 88 92 101 87 91 100 87 91 100 85 89 98 85 89 98 85 89 100 84 88 99 83 87 98 83 87 98 83 86 95 83 87 98 79 86 96 78 85 95 78 85 95 75 82 92 74 80 92 75 82 92 73 80 90 70 77 87 71 77 89 70 76 88 67 73 85 65 71 83 66 72 84 62 68 80 60 66 78 57 63 75 56 62 74 53 59 71 48 57 66 46 54 65 43 52 61 38 48 57 34 44 53 33 43 52 29 40 46 25 38 44 23 36 42 21 34 40 22 33 39 21 32 38 20 31 37 23 34 40 20 33 39 22 33 39 25 36 42 23 36 42 24 35 41 22 33 39 22 33 39 22 33 39 25 36 42 26 37 43 26 36 45 25 35 44 27 37 46 24 35 41 26 36 46 28 38 47 30 40 49 29 40 46 
87 91 100 88 92 101 90 94 103 89 93 102 87 91 100 90 94 103 89 93 102 89 93 102 90 94 103 91 95 104 91 96 102 91 95 104 91 96 102 91 95 104 92 96 105 92 97 103 92 97 103 92 96 105 93 96 103 92 97 101 95 98 103 94 99 105 93 98 104 94 99 105 94 99 103 92 97 101 94 99 103 95 100 106 93 98 104 93 98 102 94 97 102 94 97 102 93 98 102 92 97 101 91 96 102 90 95 101 90 95 101 89 94 100 89 94 100 89 94 100 89 93 102 86 90 99 86 90 99 85 89 98 84 88 99 83 87 98 82 86 97 83 87 98 81 88 98 81 88 98 79 86 96 78 85 95 78 85 95 76 83 93 75 82 92 75 82 92 74 81 91 72 79 89 70 76 88 70 76 88 67 73 85 66 72 84 66 72 84 61 67 79 59 65 77 56 64 75 56 64 75 52 60 71 49 58 67 47 55 66 43 52 61 37 47 56 34 44 53 33 43 52 30 41 47 26 37 43 23 34 40 20 33 39 22 33 39 22 33 39 21 32 38 23 34 40 20 33 39 22 33 39 24 35 41 22 35 41 23 34 40 22 33 39 22 33 39 22 33 39 25 36 42 24 34 43 25 35 44 25 35 44 26 36 45 24 34 43 24 37 45 27 40 48 27 40 48 25 38 46 
87 91 100 88 93 99 89 93 102 89 94 100 88 92 101 89 94 100 88 92 101 90 94 103 90 94 103 90 94 103 91 96 102 92 96 105 91 96 102 91 96 102 91 96 102 91 96 102 92 97 103 93 98 104 93 96 103 92 97 103 94 97 102 93 98 102 93 98 102 93 98 102 93 98 102 93 98 104 93 98 104 95 100 106 94 99 103 92 97 101 92 95 100 92 95 100 91 96 100 90 95 99 90 95 101 89 94 98 89 94 98 90 95 99 90 95 101 89 94 100 86 90 99 86 90 99 85 89 98 85 89 98 84 88 99 82 89 99 80 87 97 80 87 97 79 86 96 80 87 97 79 86 96 79 86 96 79 86 96 78 85 93 74 81 89 72 78 92 72 79 89 71 78 88 69 75 87 68 74 86 66 72 84 64 70 82 63 69 81 59 65 77 58 64 76 56 64 77 55 63 74 52 60 71 51 60 69 48 56 67 43 51 62 38 48 57 35 45 54 32 42 51 27 38 44 26 37 43 23 34 40 21 34 40 21 32 38 21 32 38 20 31 37 20 31 37 19 32 38 22 33 39 23 34 40 22 35 41 23 34 40 22 33 39 22 33 39 24 35 41 25 36 42 24 34 43 25 35 44 26 36 45 25 35 44 24 34 43 22 32 41 25 35 44 27 37 46 27 37 46 
88 92 101 88 93 99 89 93 102 90 95 101 88 92 101 89 94 100 87 91 100 89 94 100 90 94 103 92 97 103 93 97 106 91 96 102 91 96 102 92 97 103 90 95 101 91 96 102 92 96 105 93 98 104 94 97 104 93 98 104 94 97 102 93 98 102 92 97 101 93 98 102 93 98 102 93 98 102 93 98 102 93 98 104 93 98 104 92 97 103 91 94 99 92 95 100 91 96 100 90 95 98 90 95 101 90 95 99 88 93 97 90 95 99 89 94 100 88 93 99 89 93 102 87 91 100 85 89 98 86 90 99 83 90 100 82 89 99 80 87 97 80 87 97 82 84 96 81 85 96 81 88 98 80 87 97 80 87 97 77 84 94 76 83 93 73 80 90 70 79 88 71 78 88 69 75 87 69 75 87 66 72 84 65 71 83 63 69 81 59 67 78 59 65 77 57 63 77 56 62 74 53 61 72 51 61 70 50 58 69 45 53 64 40 50 59 35 45 54 31 41 50 27 38 42 24 35 41 21 32 38 19 32 38 21 32 38 21 32 38 20 31 37 20 31 37 18 31 37 22 33 39 22 33 39 21 34 40 23 34 40 23 34 40 21 34 40 22 35 41 23 37 40 24 37 45 23 36 44 22 35 43 21 34 42 23 36 44 25 35 44 24 34 43 24 34 43 25 35 44 
89 94 100 89 94 100 90 94 103 89 94 100 89 94 100 90 94 103 89 93 102 90 94 103 91 95 104 92 96 105 91 96 102 92 97 103 93 98 102 90 95 99 91 96 102 92 97 103 92 97 103 92 97 103 92 97 103 94 99 103 94 99 105 93 98 102 92 97 101 94 99 103 93 98 104 93 98 102 94 99 105 93 98 102 92 97 103 94 99 103 92 97 103 92 97 101 92 95 100 91 96 100 90 95 99 90 95 99 89 94 98 89 92 99 89 94 100 89 94 100 87 91 100 86 90 99 85 89 98 84 88 97 83 87 96 84 88 99 83 87 98 84 88 99 82 86 97 78 85 95 82 89 99 78 85 95 78 85 95 76 83 93 75 81 93 74 81 91 73 80 90 69 76 86 68 74 86 69 75 87 66 72 84 66 72 84 64 70 82 61 67 79 59 65 77 57 63 75 54 62 73 52 60 71 51 60 69 49 58 67 44 54 63 39 49 58 35 45 55 32 41 50 29 38 45 26 35 42 23 34 40 20 31 37 22 32 41 22 33 39 21 32 38 18 29 35 20 31 37 19 32 38 20 33 39 21 32 38 22 33 39 24 35 41 22 35 43 25 36 42 22 35 41 23 33 42 23 36 44 22 35 43 24 34 43 22 35 43 23 36 44 22 35 43 22 35 43 22 35 43 
89 94 100 89 93 102 91 96 102 90 95 101 90 95 101 89 94 100 90 95 101 91 96 102 90 95 101 92 97 103 92 97 103 91 96 102 92 97 103 91 96 102 92 97 103 91 96 102 94 97 104 93 96 103 93 96 103 94 97 104 95 98 103 95 98 103 95 98 103 94 97 102 94 99 103 93 98 104 93 98 102 93 98 104 94 99 103 94 99 105 93 98 102 91 96 102 93 96 103 91 96 100 90 95 99 90 95 99 88 93 99 89 92 99 89 94 100 88 92 101 88 92 101 87 91 100 85 89 98 85 89 98 84 88 97 82 86 97 83 87 98 83 87 98 83 87 96 78 85 95 80 87 97 79 86 96 76 83 93 74 81 91 76 83 93 75 82 92 73 80 90 71 78 88 69 75 87 68 74 86 66 72 84 65 71 83 64 70 82 63 69 81 60 66 78 57 63 75 54 62 73 53 59 71 51 60 69 50 57 67 45 54 63 39 49 58 34 44 53 32 42 51 29 38 45 26 37 43 24 33 40 20 31 37 22 33 39 22 33 37 21 32 38 20 31 37 21 32 38 21 32 38 19 32 38 22 33 39 19 32 38 21 34 40 25 35 44 22 35 41 21 34 42 21 34 42 24 34 43 24 34 43 23 36 42 25 35 44 23 36 44 24 37 45 22 35 43 21 34 42 
89 94 100 91 96 102 92 97 103 92 97 103 90 95 101 90 95 101 90 95 101 91 96 102 90 95 101 92 97 103 92 97 103 91 96 102 92 97 103 92 97 103 93 98 104 91 96 102 93 98 104 93 98 102 92 97 103 93 98 104 93 98 102 94 99 103 93 98 104 94 99 103 93 98 104 93 98 102 93 98 104 93 98 102 95 100 106 94 99 103 92 97 103 93 98 102 93 96 103 91 96 102 90 95 101 90 95 101 89 93 102 89 92 97 89 93 102 90 95 101 87 91 100 86 90 99 86 90 99 84 88 97 85 89 98 83 87 98 82 86 97 83 87 98 83 87 96 79 86 96 80 87 97 78 85 95 77 84 94 73 80 90 75 82 92 74 81 91 73 80 90 72 79 89 70 76 88 68 74 86 65 71 83 65 71 83 66 72 84 63 69 81 62 66 78 60 66 78 59 63 75 52 58 70 50 56 68 47 56 65 43 52 61 38 48 57 36 44 55 31 41 50 30 39 48 26 37 43 24 35 39 21 30 37 21 32 36 22 33 39 22 33 39 22 33 39 20 31 37 22 33 39 20 33 39 22 33 39 19 32 38 22 33 39 20 33 41 23 34 40 24 35 41 22 35 43 21 34 42 24 34 43 25 38 46 27 37 46 24 37 45 23 36 44 22 35 43 22 35 43 
91 96 102 91 96 102 93 98 104 92 97 103 92 97 103 91 96 102 90 95 101 90 95 101 91 96 102 92 97 103 92 97 103 92 97 103 92 97 103 93 98 104 93 98 104 92 97 103 93 98 104 92 97 103 94 99 105 92 97 103 93 98 102 92 97 101 94 99 103 93 98 102 92 97 103 93 98 102 93 98 104 94 99 103 94 99 105 93 98 102 92 97 103 93 98 102 93 96 103 92 97 103 91 96 100 90 95 99 90 94 103 90 93 100 89 94 100 88 92 101 87 91 100 86 90 99 86 90 99 85 89 98 84 88 97 83 87 98 84 88 99 83 87 98 83 87 96 77 84 94 79 86 96 79 86 96 77 84 94 75 82 92 73 80 90 73 80 90 73 80 90 73 80 90 71 77 89 68 74 86 68 74 86 66 72 84 66 72 84 64 70 82 61 67 79 60 66 78 58 64 76 53 59 71 50 56 68 48 55 65 43 52 61 38 47 56 35 43 54 34 41 51 28 38 47 28 35 43 24 35 39 20 31 37 20 31 35 22 33 39 22 33 39 22 33 39 21 32 38 21 34 40 20 33 39 22 33 39 21 32 38 22 33 39 21 32 38 23 34 40 22 35 41 25 34 43 24 34 43 23 36 44 26 36 45 24 37 45 23 36 44 22 35 43 22 35 43 22 35 43 
91 96 102 91 96 102 91 96 102 91 96 102 92 97 103 92 97 103 90 95 101 91 96 102 92 97 103 92 97 103 92 97 103 92 97 103 94 99 105 92 97 103 92 97 103 93 98 104 93 96 103 95 98 105 94 97 104 94 97 102 94 97 104 95 98 103 93 96 101 93 96 101 92 97 101 92 97 103 92 97 101 93 98 104 93 98 102 93 98 104 92 97 101 92 97 103 92 95 100 91 96 100 91 96 100 91 96 100 89 94 98 90 93 100 89 94 100 88 92 101 87 91 100 87 91 100 85 89 98 85 89 98 82 86 95 84 88 99 81 85 96 82 86 97 82 86 97 79 86 96 78 85 95 79 86 96 78 85 95 76 83 93 73 79 91 73 80 90 71 78 88 72 79 89 69 75 87 69 75 87 64 70 82 64 70 82 64 70 82 61 67 79 59 65 77 61 65 77 57 63 75 53 59 71 49 55 67 47 54 64 40 50 59 38 48 57 35 45 54 34 41 51 29 38 45 26 35 42 23 34 40 21 32 38 21 32 36 22 33 37 22 33 39 20 33 39 22 33 39 22 33 39 22 33 39 23 34 40 19 32 38 23 34 40 24 34 43 24 35 41 22 35 43 24 33 42 25 35 44 25 38 46 28 39 45 22 35 43 20 33 41 22 35 43 23 36 44 23 36 44 
90 95 101 92 97 103 90 95 101 92 97 103 90 95 101 92 97 103 91 96 102 92 97 103 93 98 104 92 97 103 93 98 104 93 98 104 94 99 105 92 97 103 93 98 104 93 98 104 94 99 105 94 99 105 93 98 104 93 98 102 94 99 105 93 98 102 92 97 101 92 97 101 92 97 101 92 97 103 92 97 101 92 97 103 93 98 102 93 98 104 93 98 102 91 96 102 93 96 101 91 96 100 90 95 99 90 95 99 90 95 99 90 93 102 89 94 100 88 93 97 87 91 100 87 91 100 86 90 99 85 89 98 84 88 97 83 87 98 82 86 97 82 86 97 82 86 97 80 87 97 79 86 96 78 85 95 78 85 95 76 83 93 76 82 94 73 80 90 73 80 90 71 78 88 69 75 87 69 75 87 66 72 84 64 70 82 63 69 81 61 67 79 59 65 77 58 64 76 57 63 75 53 59 71 49 55 67 44 53 62 41 50 59 38 47 56 36 46 55 34 43 52 29 38 43 24 35 41 24 35 41 22 33 39 22 33 39 22 33 37 22 33 39 22 33 39 21 32 38 21 32 38 22 33 39 22 33 39 20 33 39 22 35 41 22 35 43 25 36 42 24 35 41 21 34 42 23 36 44 26 36 45 24 37 45 25 35 44 21 34 42 22 35 43 24 37 45 24 37 45 
91 96 102 91 96 102 91 96 102 92 97 103 91 96 102 91 96 102 92 97 101 93 98 104 94 99 105 94 99 105 94 99 105 94 99 105 94 99 105 93 98 104 92 97 103 93 98 104 93 98 104 93 98 104 94 99 105 94 99 103 95 100 106 93 98 102 92 97 101 92 97 101 92 97 103 91 96 100 93 98 104 93 98 102 93 98 104 93 98 102 93 98 104 91 96 100 92 95 102 91 96 100 90 95 99 89 94 98 89 94 98 90 93 100 89 94 100 88 92 101 86 90 99 86 90 99 85 89 98 85 89 98 85 89 98 83 87 98 83 87 98 83 87 98 82 86 97 82 89 99 79 86 96 77 84 94 77 84 94 77 84 94 75 81 93 75 82 92 73 80 90 71 78 88 68 74 86 69 75 87 67 73 85 65 71 83 64 70 82 60 66 78 59 65 77 58 64 76 54 62 73 54 60 72 48 56 67 46 52 64 41 50 59 39 48 57 37 47 56 31 44 52 30 39 46 27 37 46 25 36 42 24 34 43 19 32 38 21 32 38 23 34 40 21 32 38 20 31 37 20 31 37 18 31 37 21 32 38 21 34 40 23 34 40 24 35 41 22 35 41 21 34 40 22 35 43 24 34 43 24 34 43 22 35 43 25 35 44 24 37 43 23 36 42 24 37 43 25 38 44 
91 96 100 91 96 100 93 98 102 93 98 104 91 96 102 92 97 101 93 98 104 94 99 105 94 99 105 93 98 104 94 99 103 95 100 104 93 98 102 93 98 102 92 97 101 93 98 102 93 98 104 92 97 101 93 98 104 94 99 105 95 100 104 94 99 103 94 99 105 94 99 103 93 98 102 93 98 104 92 97 101 93 98 104 93 98 102 93 98 104 93 98 102 92 97 103 91 94 101 90 94 103 89 94 98 89 94 98 88 93 99 89 92 99 89 94 100 88 92 101 87 91 100 86 90 99 86 90 99 84 88 97 84 88 97 84 88 99 84 88 99 84 88 99 84 88 97 85 92 102 80 87 97 77 84 94 77 84 94 77 84 94 79 86 96 76 83 93 72 79 89 70 77 87 68 74 86 69 75 87 68 74 86 66 72 84 64 70 82 61 67 79 58 64 76 57 63 75 55 61 73 54 60 72 52 58 70 49 57 68 46 55 64 42 51 60 36 47 53 34 43 52 31 42 48 29 39 48 26 37 43 20 33 39 22 31 38 19 32 38 22 33 39 20 33 39 19 30 36 19 30 36 20 31 37 22 33 39 20 33 39 21 32 38 20 33 41 24 35 41 20 33 39 23 33 42 20 33 41 21 34 42 23 34 40 23 36 44 24 37 45 24 37 45 23 36 44 23 36 44 
92 97 103 93 96 103 91 96 100 92 97 101 91 96 100 92 97 101 92 97 101 94 97 102 94 97 102 94 97 102 97 98 103 94 99 103 94 99 103 93 98 102 92 97 101 90 98 101 93 96 103 92 97 101 92 97 103 93 96 103 95 98 103 93 98 104 93 98 104 93 96 101 92 97 101 91 96 102 92 97 103 94 99 103 94 99 103 95 100 106 94 99 105 92 97 101 92 97 101 91 96 100 90 95 99 90 95 101 88 93 97 90 93 100 89 92 99 89 92 99 86 90 99 87 91 100 88 92 101 86 90 99 84 88 97 86 90 99 84 88 97 82 86 95 79 86 94 79 86 94 80 84 95 78 85 95 79 83 95 76 83 93 74 80 92 74 80 92 74 81 91 71 77 89 70 76 88 70 76 88 68 74 86 67 73 85 66 72 84 62 68 80 60 67 77 58 64 76 57 63 75 55 61 73 52 59 69 50 57 67 44 53 62 37 50 58 37 44 54 30 43 51 30 40 49 27 38 44 25 36 42 23 34 40 20 31 37 20 31 37 21 34 40 22 33 39 21 32 38 21 32 38 22 33 39 23 34 40 22 33 39 23 34 40 23 34 40 23 34 40 24 34 43 25 35 44 24 34 43 25 35 44 24 34 43 25 35 44 25 35 44 25 35 44 25 35 44 24 34 43 
92 97 103 93 96 103 92 97 101 93 98 102 94 99 103 93 98 102 92 97 101 93 96 101 93 96 101 93 98 102 94 97 102 93 96 101 90 98 101 94 97 102 93 98 102 91 99 102 93 96 101 95 100 106 92 97 101 94 97 102 94 97 104 93 98 102 92 97 101 93 96 103 91 96 100 91 96 100 92 97 101 93 98 102 93 98 102 93 98 102 92 97 101 91 96 100 91 96 102 90 95 101 90 95 99 90 95 101 89 94 98 88 93 99 88 93 99 89 92 99 86 91 97 88 92 101 86 90 99 87 91 100 86 90 99 87 91 100 84 88 97 83 87 96 82 86 95 83 87 96 81 88 98 80 87 97 79 86 96 78 85 95 75 82 92 73 80 90 73 79 91 73 80 90 71 78 88 72 79 89 69 75 87 67 73 85 65 71 83 62 68 80 60 66 78 58 64 76 57 64 74 55 61 73 51 57 69 50 57 67 45 52 62 40 49 58 37 46 55 31 41 50 28 38 47 26 35 44 23 34 40 22 35 41 20 33 39 21 32 38 19 32 38 21 32 38 22 33 39 22 33 39 23 34 40 22 33 39 22 33 39 23 34 40 24 35 41 23 34 40 25 36 42 25 35 44 25 35 44 26 37 43 25 35 44 24 35 41 23 33 42 24 34 43 23 33 42 22 32 41 
92 97 103 94 97 104 93 98 102 93 98 102 92 97 101 93 98 102 92 97 101 92 97 101 93 98 102 93 96 101 93 98 102 93 98 102 93 96 101 92 97 101 94 97 102 93 98 102 93 96 101 92 97 101 93 98 102 94 97 102 94 97 102 92 97 101 93 98 104 93 96 101 92 97 103 92 97 101 92 97 101 93 98 104 92 97 103 92 97 101 92 97 101 91 96 102 90 95 101 90 95 101 90 95 99 90 95 101 91 94 99 90 93 100 91 94 101 88 93 99 88 93 99 87 92 98 86 90 99 85 89 98 86 90 99 86 90 99 83 87 96 83 87 96 82 86 95 83 87 96 83 87 98 79 86 96 79 86 96 80 84 95 76 83 93 76 80 91 77 81 92 74 78 89 73 77 88 75 79 90 72 76 87 68 72 83 66 70 81 65 69 80 59 67 78 57 63 75 55 61 73 55 61 73 51 57 69 48 55 65 44 51 61 41 48 58 36 46 55 31 41 50 26 39 47 26 36 45 23 33 42 24 35 41 22 33 39 19 32 38 18 31 37 21 32 38 24 35 41 22 33 39 22 33 39 21 32 38 21 32 38 22 33 39 24 34 43 25 36 42 25 36 42 25 35 44 26 36 45 27 37 46 26 36 45 23 33 42 23 36 44 21 34 42 21 34 42 22 35 43 
93 98 104 93 98 104 94 99 103 93 98 102 93 98 102 93 98 102 94 99 103 93 98 102 92 97 101 92 97 101 92 97 101 91 96 100 91 96 100 93 96 101 93 98 102 93 98 102 93 96 101 93 98 102 94 99 103 93 96 101 93 96 101 91 96 100 92 97 101 92 95 100 92 97 101 93 98 102 92 97 101 92 97 101 92 97 101 92 97 101 91 96 100 92 97 101 91 96 102 90 95 101 91 94 99 91 96 102 90 95 99 86 93 99 88 93 99 90 93 100 88 93 99 87 91 100 85 89 98 87 91 100 87 91 100 84 88 97 83 87 96 83 87 96 84 88 97 84 88 97 81 85 96 80 84 95 78 85 95 80 84 95 77 84 94 78 82 93 73 80 90 72 79 89 70 77 87 71 78 88 69 76 86 66 72 84 65 71 83 65 71 83 60 67 77 57 64 74 55 61 73 55 61 73 51 58 68 48 57 66 43 52 61 41 50 59 37 46 55 34 44 53 30 40 49 27 37 46 21 34 42 18 33 38 20 33 39 22 33 39 19 32 38 20 31 37 19 30 36 20 31 37 20 31 37 20 31 37 20 31 37 20 31 37 22 33 39 24 35 41 26 36 45 23 33 42 23 33 42 24 34 43 26 36 45 23 33 42 20 33 41 22 35 43 22 35 43 22 35 43 
93 98 104 93 98 104 92 97 101 93 98 102 93 98 102 92 97 101 93 98 102 93 98 102 91 96 100 92 97 101 91 96 100 92 97 101 92 97 101 93 96 101 92 97 101 92 97 101 92 95 100 93 98 102 93 98 102 93 96 101 93 96 101 92 97 101 93 98 102 93 96 101 92 97 101 92 97 101 93 98 102 91 96 100 92 97 101 91 96 100 92 97 101 92 97 101 91 96 100 91 96 100 91 96 100 91 96 102 91 94 99 90 93 100 89 92 99 89 94 100 88 92 101 85 89 98 86 90 99 86 90 99 86 90 99 85 89 100 84 88 99 84 88 97 83 87 96 84 88 99 79 86 96 81 85 96 80 84 95 77 84 94 76 83 93 72 81 90 74 81 91 72 79 89 68 75 85 68 74 86 69 75 87 69 75 87 69 75 87 67 73 85 62 68 80 59 63 75 56 60 71 53 59 71 51 57 69 51 58 68 46 53 63 39 49 58 37 46 55 35 45 54 32 42 51 28 39 45 23 34 40 18 31 37 20 33 39 21 34 40 19 32 38 20 31 37 19 30 36 19 30 36 19 30 36 19 30 36 20 31 37 18 29 35 20 31 37 24 35 41 24 35 41 23 33 42 22 32 41 22 33 39 26 36 45 24 34 43 20 33 41 22 35 43 23 36 44 22 35 43 
90 95 101 92 97 103 94 99 103 93 96 101 93 98 102 93 98 102 94 97 102 92 97 101 92 97 101 92 97 101 93 98 102 92 97 101 93 96 101 93 98 102 93 96 101 92 97 101 93 96 101 92 97 101 93 98 102 94 97 102 93 96 101 92 97 101 93 98 104 94 97 102 93 98 102 93 98 104 92 97 103 91 96 100 93 98 102 92 97 103 92 97 103 92 97 101 92 97 101 92 97 101 91 96 100 89 94 100 88 93 97 88 93 99 87 92 98 89 92 99 86 90 99 85 89 98 87 92 98 88 93 97 86 91 97 83 87 96 85 89 98 85 89 98 84 88 97 84 88 99 83 87 98 81 85 96 81 85 96 80 86 98 77 81 92 72 81 90 73 79 91 71 77 89 70 76 88 70 76 88 68 74 86 67 73 85 66 72 84 66 72 84 62 68 80 62 66 78 61 65 77 59 63 75 53 57 69 51 55 66 48 55 65 44 53 62 39 48 57 33 42 51 30 40 49 28 39 45 26 37 43 21 34 40 19 32 38 21 32 38 20 33 39 20 31 37 21 32 38 18 29 35 20 31 37 21 32 38 23 34 40 21 32 38 21 32 38 24 35 41 26 37 43 23 33 42 22 32 41 22 32 41 25 35 44 27 38 44 22 35 43 22 35 43 22 35 43 22 35 43 
92 97 103 93 98 104 94 97 102 94 97 102 93 98 102 92 97 101 94 97 102 93 98 102 93 98 102 93 98 102 93 98 102 93 98 102 94 99 103 93 96 101 90 98 101 94 97 102 92 95 100 92 97 103 92 97 101 93 96 101 94 97 104 94 99 103 93 98 102 96 99 106 94 99 103 93 98 102 92 97 101 92 97 101 92 97 101 93 98 102 92 97 101 92 97 101 90 95 99 92 97 101 91 96 100 89 94 100 89 94 98 90 93 100 89 92 99 88 91 98 87 92 96 85 90 96 87 92 98 86 91 97 86 91 97 84 88 97 85 89 98 84 89 95 84 88 97 84 88 99 81 85 96 79 83 94 80 84 95 81 85 97 79 83 95 77 81 93 76 80 91 76 80 91 73 77 88 73 77 88 69 73 85 68 72 84 66 70 82 66 70 81 61 68 78 61 68 78 60 66 78 59 65 77 53 60 70 49 56 66 47 54 64 43 52 61 40 49 58 34 41 51 31 40 49 28 38 47 26 37 43 23 34 40 19 32 38 20 33 39 19 32 38 22 33 39 22 33 39 20 31 37 21 32 38 22 33 39 24 35 41 21 32 38 22 32 41 23 34 40 25 36 42 24 34 43 23 33 42 24 34 43 25 35 44 25 35 44 21 34 42 23 36 44 23 36 44 21 34 42 
93 98 104 93 98 104 94 97 102 94 97 102 93 98 102 93 98 102 94 97 102 94 99 103 94 99 103 93 98 102 94 99 103 93 98 102 93 96 101 92 97 101 92 95 100 93 96 101 93 96 103 92 97 101 92 97 103 93 96 103 94 97 102 93 98 104 93 98 104 94 97 102 92 97 103 92 97 101 92 97 101 92 97 103 91 96 102 91 96 100 91 96 100 92 97 103 91 96 102 91 96 102 90 95 99 89 94 100 90 95 99 88 93 99 89 92 99 89 92 99 86 91 95 88 93 99 87 92 98 88 93 99 86 91 97 86 90 99 85 89 98 84 88 97 85 89 100 82 86 97 81 85 96 81 85 96 81 85 94 81 85 97 81 83 96 76 80 92 77 81 92 76 80 91 75 79 90 72 76 87 69 73 84 68 72 83 67 71 82 66 70 82 61 67 79 61 67 79 60 66 78 57 63 75 53 59 71 49 56 66 44 53 62 43 52 61 43 47 58 34 43 52 32 41 50 28 38 47 25 35 44 23 34 40 19 32 38 21 32 38 19 32 38 22 33 39 22 33 39 21 32 38 21 32 38 20 31 37 22 33 39 23 34 40 23 34 40 24 35 41 25 36 42 24 34 43 24 34 43 25 36 42 26 36 45 24 34 43 21 34 42 22 35 43 23 36 44 22 35 43 
93 98 102 94 97 102 93 98 102 93 96 101 93 98 102 93 96 101 94 99 103 95 98 103 95 98 103 93 98 102 94 99 103 93 98 102 95 98 103 93 98 102 92 95 100 92 97 101 92 97 103 93 96 103 94 97 104 92 95 102 92 97 101 92 97 101 92 97 101 95 98 103 92 97 101 92 97 101 91 96 102 92 95 100 91 96 102 91 96 100 95 95 103 91 96 100 91 94 99 91 94 101 92 95 102 91 94 101 91 94 101 89 92 99 89 92 99 89 92 99 87 92 98 88 92 101 88 92 101 86 90 99 87 91 100 87 91 100 86 90 99 84 88 97 84 87 96 83 86 95 81 85 94 79 86 96 77 86 95 81 85 96 77 81 93 75 79 91 76 78 90 75 79 90 75 79 91 71 75 87 69 73 84 68 72 83 66 72 84 62 68 80 61 65 76 58 65 75 59 65 77 56 62 74 50 57 67 50 57 67 45 54 61 43 52 61 40 49 58 37 46 55 32 42 51 28 39 45 21 34 40 22 33 39 21 32 38 21 32 38 20 31 37 21 32 38 19 32 38 20 31 37 19 30 36 19 32 38 22 33 39 23 34 40 23 34 40 23 34 40 24 35 41 24 35 41 25 36 42 25 36 42 27 38 44 23 34 40 21 34 42 22 35 43 22 35 43 24 37 45 
92 97 101 93 98 102 92 97 101 92 97 101 93 98 102 93 98 102 93 98 102 93 98 102 95 98 103 94 99 103 93 98 102 92 97 101 93 96 101 94 99 103 93 96 101 92 97 101 93 98 102 92 95 100 93 96 101 94 97 102 91 96 102 93 98 104 91 96 102 94 97 104 92 97 101 92 97 101 93 98 104 94 97 102 91 96 102 91 96 100 92 95 100 91 96 100 91 94 101 92 95 100 92 95 102 92 95 102 92 95 102 92 95 102 89 92 99 89 92 99 89 94 100 87 91 100 87 91 100 87 91 100 87 91 100 84 88 97 84 88 97 83 87 96 83 86 95 82 86 95 81 85 94 78 85 95 78 87 96 80 84 95 78 82 94 78 82 94 77 81 92 75 82 92 76 80 92 72 76 88 69 73 84 68 72 83 65 71 83 63 71 82 65 69 81 63 67 79 59 65 77 57 63 75 53 59 71 50 56 68 46 53 63 41 50 59 39 48 57 37 48 54 34 43 52 30 39 48 25 36 42 23 34 40 19 32 38 20 31 37 21 32 38 21 32 38 19 32 38 20 31 37 23 34 40 22 35 41 26 37 43 24 35 41 22 33 39 23 34 40 26 37 43 25 36 42 24 35 41 25 36 42 25 36 42 22 33 39 24 35 41 24 34 43 24 34 43 23 33 42 
93 98 102 92 97 101 93 98 102 93 98 102 92 97 101 93 98 102 92 97 101 92 97 101 93 96 101 93 98 102 92 97 101 92 97 101 93 96 101 92 97 101 93 98 102 91 96 100 91 96 100 92 97 101 93 98 102 92 97 101 92 97 103 92 97 103 92 97 103 92 97 103 93 98 102 92 97 101 93 98 102 94 97 102 91 96 102 91 96 100 93 96 101 92 97 101 93 96 101 92 95 102 92 95 102 93 96 103 92 95 102 90 93 100 91 94 101 89 92 99 87 92 98 87 91 100 88 92 101 88 92 101 87 91 100 86 90 99 84 88 97 84 88 97 83 87 96 81 85 94 80 84 93 78 85 95 80 84 95 77 84 94 79 83 95 75 81 93 75 82 92 74 81 91 74 80 92 71 77 89 69 76 86 67 74 84 68 72 84 66 70 82 63 67 79 60 66 78 58 64 76 56 62 74 50 56 68 48 56 67 46 55 64 41 50 59 38 48 57 35 45 54 33 42 49 31 40 47 27 38 42 24 35 41 21 34 42 22 33 39 21 32 38 21 32 38 21 32 38 21 32 38 21 32 38 23 34 40 24 35 41 25 36 42 24 35 41 24 35 41 26 37 43 26 37 43 27 38 44 27 38 44 26 37 43 23 34 40 24 34 43 26 36 45 25 35 44 24 34 43 
93 96 101 93 98 102 95 98 103 93 98 102 94 97 102 92 97 101 93 96 101 92 97 101 92 97 101 93 98 102 93 98 102 93 98 102 93 98 102 93 98 102 92 97 101 92 97 101 93 98 102 92 97 101 93 98 102 93 98 102 93 98 104 92 97 103 92 97 103 93 98 104 93 98 102 92 97 101 92 97 101 93 98 102 92 97 101 92 97 101 93 96 101 91 96 100 93 96 103 91 94 101 92 95 102 91 94 101 91 94 101 89 92 99 88 91 98 88 91 98 87 92 98 85 89 98 87 91 100 87 91 100 88 92 101 87 91 100 85 89 98 84 88 97 82 86 95 81 85 94 80 84 93 77 84 94 78 85 95 80 84 95 77 84 94 76 83 93 75 82 92 74 81 91 73 79 91 71 77 89 68 77 86 67 74 84 66 72 84 66 70 82 62 68 80 62 66 78 57 63 75 56 62 74 49 57 68 48 56 67 44 53 62 40 50 59 37 47 56 36 45 54 33 42 49 30 39 46 28 39 45 22 35 41 23 34 40 22 33 39 20 30 39 21 32 38 20 30 39 21 32 38 21 31 40 22 33 39 23 33 42 24 35 41 24 35 41 23 34 40 25 36 42 25 36 42 26 37 43 28 39 45 26 37 43 23 34 40 25 36 42 26 37 43 27 38 44 26 36 45 
92 97 101 93 96 101 92 97 101 93 96 101 94 99 103 94 97 102 92 97 101 94 97 102 92 97 101 92 97 101 93 98 102 92 97 101 93 98 102 91 96 100 92 97 101 92 97 101 92 97 103 92 97 103 92 97 103 93 98 104 92 97 101 92 97 101 93 98 102 93 98 102 93 98 102 94 99 103 94 99 103 93 98 102 91 96 100 92 97 101 92 97 101 92 97 101 93 96 103 93 96 103 93 96 103 92 95 102 90 93 100 92 95 102 90 93 100 86 89 96 86 91 97 85 89 98 87 91 100 87 91 100 88 92 101 85 89 98 86 90 99 85 89 98 82 86 95 82 86 95 79 86 94 80 84 95 79 83 94 78 85 95 77 84 94 75 82 92 76 83 93 73 80 90 71 77 89 69 75 87 69 76 86 67 74 84 69 73 85 66 70 82 65 69 81 61 67 79 59 65 77 58 66 77 51 57 69 48 56 67 44 52 63 40 50 60 38 48 57 37 46 51 32 42 51 29 39 48 26 37 41 22 33 39 23 32 39 22 33 39 21 31 40 21 32 38 22 32 41 20 31 37 20 30 39 22 33 39 23 33 42 22 33 39 21 32 38 22 33 39 22 33 39 24 35 41 25 36 42 24 35 41 26 37 43 25 36 42 26 37 43 27 38 44 27 37 46 25 35 44 
93 98 102 93 98 102 91 96 100 93 98 102 92 97 101 92 97 101 93 98 102 92 97 101 92 97 101 93 98 102 91 96 100 93 96 101 92 97 101 92 97 101 92 97 101 93 96 101 92 97 103 92 97 103 92 97 103 92 97 103 92 97 101 92 97 101 93 98 102 93 98 102 93 98 102 93 98 102 93 98 102 93 98 104 92 97 101 93 98 102 92 97 101 93 98 102 92 95 102 92 95 102 93 96 103 93 96 103 90 93 100 91 94 101 89 92 101 89 92 99 87 92 98 88 92 101 87 91 100 87 91 100 87 91 100 86 90 99 85 89 98 85 89 98 84 88 97 81 85 94 80 84 93 77 84 94 79 86 96 80 84 95 77 84 94 75 82 92 75 82 92 72 79 89 68 74 86 69 75 87 68 75 85 67 74 84 68 72 84 66 68 81 62 68 80 62 66 78 60 66 78 59 65 77 51 59 70 48 57 66 45 54 63 42 52 61 41 49 60 38 48 57 34 43 52 29 40 46 25 36 38 24 33 40 22 33 37 21 32 38 21 32 38 22 33 39 21 32 38 20 31 37 21 32 38 22 33 39 21 32 38 19 30 36 19 30 36 21 32 38 21 32 38 21 32 38 22 33 39 23 34 40 23 34 40 24 35 41 26 37 43 28 39 45 27 38 44 25 36 42 
92 97 101 93 98 102 92 97 101 93 98 102 91 96 100 92 97 101 92 97 101 93 98 102 92 97 101 93 96 101 92 97 101 92 95 100 93 98 102 94 99 103 91 96 100 93 96 101 92 97 103 92 95 102 94 97 104 93 96 103 91 96 100 92 97 101 91 96 100 94 97 102 92 97 101 92 97 101 91 96 100 93 98 104 92 97 101 92 97 103 91 96 100 92 97 101 92 95 102 92 95 102 92 95 102 91 94 101 91 94 101 93 96 103 91 94 101 89 92 101 87 92 98 86 90 99 87 91 100 86 90 99 86 90 99 85 89 98 84 88 97 86 90 99 85 89 98 82 86 95 79 86 94 81 85 96 81 85 96 79 86 96 77 84 94 77 84 94 76 83 93 74 78 89 68 74 86 69 75 87 68 75 85 67 74 84 68 72 84 64 68 80 62 66 78 60 66 80 59 65 77 57 63 75 53 60 70 50 57 67 46 55 64 45 54 63 43 51 62 37 47 56 34 41 49 30 41 47 26 37 43 26 37 43 25 36 42 23 30 40 21 32 38 20 33 39 24 35 41 21 32 38 19 30 36 19 30 36 17 30 36 21 32 38 20 31 37 19 30 36 21 32 38 21 32 38 21 32 38 23 34 40 23 34 40 24 35 41 22 35 41 23 36 42 25 38 46 22 35 43 
93 96 101 93 98 102 93 96 101 91 96 100 93 96 101 92 97 101 93 96 101 91 96 100 93 98 102 94 97 102 92 97 101 94 97 102 92 97 101 92 97 101 93 98 102 92 95 100 92 97 101 94 97 102 93 96 101 93 96 101 93 98 104 92 97 103 92 97 103 94 97 104 92 97 101 93 98 104 92 97 101 93 98 104 92 97 101 93 98 104 92 97 101 91 96 100 91 94 101 91 94 101 92 95 102 92 95 102 91 94 101 92 95 102 91 94 103 89 92 101 88 93 99 85 89 98 87 91 100 85 89 98 85 89 98 84 88 97 85 89 98 84 88 97 84 88 97 85 89 98 82 86 95 79 86 96 81 85 96 79 86 96 78 85 95 76 83 91 73 82 91 73 80 90 71 77 89 70 76 88 69 76 86 68 75 85 69 73 85 67 71 83 62 68 80 61 67 79 57 63 75 59 65 77 54 62 73 47 55 66 43 53 63 43 51 62 41 51 61 38 48 57 35 44 53 32 41 48 29 38 45 25 36 42 23 34 40 21 32 38 20 31 37 19 32 38 21 32 38 20 31 37 20 31 37 21 32 38 19 32 38 21 32 38 23 34 40 21 32 38 21 32 38 23 34 40 23 34 40 24 35 41 24 35 41 22 33 39 25 36 42 25 36 42 27 38 44 26 36 45 
91 96 100 94 97 102 94 97 102 93 96 103 92 97 103 92 97 101 93 98 102 92 97 101 93 98 102 92 97 101 92 97 101 93 98 102 92 97 101 92 97 101 92 97 101 93 98 102 92 97 101 92 97 101 92 97 101 92 97 101 92 97 101 94 97 102 93 96 101 93 98 102 94 97 102 93 96 101 92 97 101 93 98 102 92 97 101 92 97 101 92 97 101 92 97 101 92 95 102 93 96 103 91 96 102 91 96 102 91 96 102 91 94 103 90 95 101 89 94 100 88 93 99 87 92 98 87 91 100 87 91 100 87 92 98 84 88 97 84 88 97 83 87 96 85 88 97 84 88 97 83 87 96 79 86 94 78 85 93 79 83 94 76 83 93 75 82 92 74 81 91 73 80 90 70 78 89 71 77 89 72 76 87 68 75 85 67 73 85 68 72 84 66 69 84 62 68 80 59 65 77 59 67 78 55 63 74 47 55 66 44 52 63 41 50 59 42 51 60 38 47 54 36 45 52 32 43 49 28 38 47 23 34 40 22 33 39 21 32 36 20 31 37 20 33 39 21 32 38 20 31 37 21 32 38 22 33 39 22 33 39 23 34 40 23 34 40 20 33 39 23 34 40 24 35 41 24 35 41 24 35 41 25 36 42 24 35 41 24 34 43 25 35 44 25 35 44 25 35 44 
92 97 101 93 98 102 93 96 101 93 96 101 92 97 101 92 97 101 92 97 101 92 97 101 93 98 102 92 97 101 92 97 101 92 97 101 92 97 101 93 98 102 92 97 101 91 96 100 91 96 100 91 96 100 92 97 101 94 97 102 93 98 102 93 98 102 93 98 102 94 97 102 92 97 101 93 98 102 93 98 102 92 97 101 92 97 101 92 97 101 91 96 100 91 96 100 91 94 101 93 96 103 88 95 101 92 95 102 91 96 102 89 93 102 91 94 101 87 92 98 87 92 98 88 93 99 87 91 100 87 91 100 86 91 97 86 90 99 84 88 97 84 88 97 84 88 97 83 87 96 82 86 95 80 87 97 80 84 95 79 83 94 74 81 91 74 81 91 74 81 91 73 80 90 72 78 90 74 78 90 71 78 88 69 76 86 69 75 87 70 74 86 66 72 84 63 69 81 60 66 78 59 67 78 53 61 72 47 55 66 45 53 64 42 50 61 42 50 61 37 46 55 35 44 51 31 40 47 28 39 43 23 34 40 23 32 39 22 31 38 20 31 37 20 31 37 19 30 36 19 30 36 21 32 38 23 34 40 23 34 40 23 34 40 23 34 40 21 34 40 26 37 43 24 35 41 25 36 42 26 37 43 28 39 45 23 34 40 23 36 42 23 36 42 24 37 43 24 37 43 
