P3
100 50
255
36 32 29 35 31 28 35 30 27 35 30 27 34 29 26 33 28 25 34 29 26 34 29 26 35 30 27 34 29 26 35 30 27 35 30 27 35 30 27 36 31 28 35 30 27 35 30 27 35 30 27 36 31 28 35 30 27 34 29 26 33 28 25 34 29 26 34 29 26 32 27 24 33 28 25 33 28 25 31 26 23 31 25 25 30 24 24 29 23 23 29 23 23 28 19 20 25 19 19 23 17 17 21 17 18 20 16 17 20 16 17 16 14 15 19 15 16 18 14 15 15 13 14 13 11 12 14 12 13 15 13 14 16 14 15 15 13 14 15 13 14 14 12 13 17 13 14 18 14 15 20 16 17 22 16 18 25 16 19 23 17 17 26 20 20 28 19 20 27 21 21 29 23 23 30 24 24 30 24 24 32 26 26 31 25 25 31 25 25 31 25 25 32 27 24 32 26 26 33 28 25 34 29 26 33 28 25 33 28 25 32 27 24 32 27 24 32 27 24 32 27 24 32 27 24 32 27 24 31 26 23 32 27 24 32 26 26 31 25 25 31 26 23 31 26 23 30 25 22 30 25 22 31 26 23 31 26 23 32 24 22 32 24 22 32 24 22 33 25 23 32 24 22 32 24 22 32 24 22 32 24 22 34 26 24 32 27 24 31 25 25 32 26 26 31 25 25 32 26 26 
35 31 28 35 30 27 34 29 26 33 28 25 34 29 26 34 29 26 34 29 26 34 29 26 33 28 25 33 28 25 35 30 27 34 29 26 35 30 27 35 30 27 35 30 27 35 30 27 35 30 27 34 29 26 34 29 26 35 30 27 34 29 26 34 29 26 32 27 24 34 29 26 34 29 26 33 28 25 32 27 24 32 27 24 31 25 25 30 24 24 30 21 24 28 19 20 28 19 20 24 18 18 23 17 19 22 18 19 19 15 16 19 15 16 16 14 15 16 14 15 16 14 15 15 13 14 16 14 15 15 13 14 15 13 14 15 13 14 14 12 13 14 12 13 14 14 14 15 13 14 18 14 15 18 16 17 19 15 16 21 17 16 23 19 18 26 20 20 26 20 20 27 21 21 29 23 23 30 24 24 31 25 25 30 24 24 31 25 25 31 25 25 32 26 26 33 28 25 32 27 24 32 27 24 33 28 25 33 28 25 32 27 24 33 28 25 32 27 24 32 27 24 33 28 24 32 26 26 33 27 27 32 27 24 31 26 23 32 26 26 32 27 24 32 27 24 31 26 23 31 26 23 31 26 23 30 25 22 32 24 22 32 24 22 32 24 22 33 25 23 30 25 22 30 25 22 32 24 22 32 24 22 31 26 23 31 26 23 30 24 24 32 26 26 32 26 26 32 26 26 
35 30 27 34 29 26 35 30 27 34 29 26 33 28 25 33 28 25 34 29 26 33 28 25 34 29 26 34 29 26 34 29 26 34 29 26 34 29 26 35 30 27 35 30 27 34 29 26 35 30 27 35 30 27 34 29 26 34 29 26 35 30 27 35 30 27 34 29 26 33 28 25 33 28 25 33 28 25 33 28 25 31 25 25 31 25 25 30 24 24 29 23 23 26 20 20 26 20 20 24 18 18 23 17 17 21 15 17 19 15 16 19 15 16 19 15 16 18 14 15 17 13 14 17 13 14 17 13 14 16 12 13 15 13 14 15 13 14 15 13 14 14 12 13 17 13 14 17 13 14 18 14 15 19 15 16 18 16 17 22 16 18 22 16 18 25 19 21 25 19 19 27 21 21 30 21 22 29 23 23 32 23 24 32 23 24 33 25 23 31 26 22 32 27 24 31 26 23 33 28 25 33 28 25 32 27 24 34 29 26 34 29 26 34 29 26 33 28 25 33 28 25 33 28 25 32 27 24 32 26 26 32 26 26 31 25 25 32 26 26 31 26 23 32 27 24 31 26 23 33 28 25 31 26 23 29 24 21 30 25 22 30 25 22 31 26 23 30 25 22 30 25 22 31 26 23 30 25 22 30 25 22 31 26 23 31 26 23 30 24 24 32 26 26 33 27 27 33 28 25 
35 30 27 33 28 25 34 29 26 34 29 26 32 27 24 32 27 24 33 28 25 34 29 26 33 28 25 33 28 25 34 29 26 34 29 26 33 28 25 35 30 27 34 29 26 33 28 25 35 30 27 35 30 27 34 29 26 34 29 26 34 29 26 34 29 26 33 28 25 34 29 26 33 28 25 33 28 25 32 27 24 32 26 26 32 26 26 30 24 24 29 23 23 27 21 21 25 19 19 25 19 19 23 17 17 20 14 16 18 14 15 20 16 17 19 15 16 16 12 13 17 13 14 17 13 14 15 13 14 15 13 14 14 12 13 13 11 12 14 12 13 13 13 13 17 13 14 17 13 14 17 13 14 18 14 15 19 15 16 21 15 17 22 16 18 24 18 20 25 19 19 26 20 20 27 21 21 29 23 23 30 24 24 31 25 25 30 25 22 30 25 22 30 25 22 33 28 25 33 28 25 33 28 25 33 28 25 33 27 27 32 27 24 34 29 26 33 28 25 33 28 25 33 28 25 32 27 24 32 26 26 32 26 26 32 26 26 32 26 26 32 27 24 32 27 24 31 26 23 32 27 24 32 27 24 30 25 22 31 26 23 30 25 22 31 26 23 31 26 23 31 26 23 31 26 23 31 26 23 31 26 23 31 26 23 31 26 23 30 24 24 31 25 25 32 27 24 33 28 25 
35 30 27 35 30 27 34 29 26 35 30 27 33 28 25 33 28 25 33 28 25 33 28 25 32 27 24 33 28 25 35 30 27 33 28 25 33 28 25 33 28 25 34 29 26 34 29 26 34 29 26 34 29 26 34 29 26 33 28 25 33 28 25 33 28 25 35 30 27 34 29 26 33 28 25 33 28 25 31 26 23 31 25 25 32 26 26 30 24 24 28 22 22 27 21 21 25 19 19 24 18 18 23 17 17 20 14 16 19 15 16 19 15 16 18 14 15 17 13 14 16 12 13 16 12 13 14 12 13 14 12 13 14 12 13 14 12 13 14 12 13 14 12 13 17 13 14 17 13 14 17 13 14 18 14 15 19 15 16 20 14 16 21 15 17 22 18 19 25 19 19 26 20 20 26 20 20 27 21 21 29 23 23 30 24 24 30 25 22 30 25 22 31 26 23 32 27 24 33 27 27 32 27 24 33 28 25 33 28 25 33 28 25 33 27 27 34 29 26 33 28 25 33 28 25 33 28 25 32 26 26 31 25 25 32 26 26 32 26 26 31 26 23 31 26 23 32 27 24 32 27 24 32 27 24 31 26 23 30 25 22 31 26 23 31 26 23 29 24 21 30 25 22 31 26 23 30 25 22 31 26 23 32 27 24 31 26 23 31 25 25 31 26 23 32 27 24 33 28 25 
35 30 27 34 29 26 34 29 26 34 29 26 33 28 25 32 27 24 32 27 24 31 26 23 32 27 24 33 28 25 33 28 25 33 28 25 34 29 26 34 29 26 34 29 26 33 28 25 34 29 26 33 28 25 33 28 25 34 29 26 34 29 26 34 29 26 33 28 25 33 28 25 33 28 25 32 27 24 31 26 23 30 25 22 30 24 24 30 24 24 29 23 23 27 21 21 26 20 20 25 19 19 23 17 17 21 15 15 20 16 17 19 15 16 19 15 16 18 14 15 18 14 15 16 12 13 14 12 13 14 12 13 14 12 13 14 12 13 15 13 14 15 13 14 15 13 14 15 13 14 17 13 14 19 15 16 19 15 16 20 14 16 20 14 16 22 16 18 24 18 18 26 17 18 25 19 19 25 19 19 27 21 21 29 23 23 30 24 24 28 23 20 29 23 23 31 26 22 32 27 24 32 27 24 33 27 27 33 27 27 34 29 26 33 28 25 33 27 27 33 27 27 33 27 27 33 27 27 33 28 25 33 28 25 33 28 25 32 27 24 32 26 26 31 25 25 32 27 24 32 27 24 31 26 23 32 27 24 30 25 22 31 26 23 31 26 23 31 26 23 32 27 24 31 26 23 32 27 24 31 26 23 31 26 23 32 27 24 32 27 24 31 26 23 32 27 24 32 27 24 
34 29 26 34 29 26 33 28 25 33 28 25 33 28 25 32 27 24 33 28 25 32 27 24 33 28 25 33 28 25 34 29 26 33 28 25 33 28 25 35 30 27 34 29 26 34 29 26 34 29 26 34 29 26 33 28 25 33 28 25 35 30 27 35 30 27 33 28 25 32 27 24 32 27 24 32 27 24 32 27 24 32 27 24 32 26 26 31 25 25 29 23 23 28 22 22 27 21 21 26 20 20 24 18 18 22 16 16 21 15 17 20 16 17 18 14 15 18 14 15 18 14 15 17 13 14 15 13 14 14 12 13 15 13 14 14 12 13 13 11 12 14 12 13 14 12 13 14 12 13 18 14 15 17 13 14 18 14 15 18 14 15 19 13 15 20 14 16 21 15 15 22 16 16 22 16 16 24 18 18 27 21 21 26 20 20 28 22 22 29 23 23 31 26 23 31 26 23 32 26 26 33 27 27 35 30 27 35 30 27 35 30 26 34 28 28 34 29 26 34 29 26 34 29 26 34 29 26 32 26 26 32 26 26 33 27 27 32 26 26 33 27 27 33 27 27 31 26 23 32 27 24 31 26 23 31 26 23 32 27 24 32 27 24 32 27 24 32 27 24 32 27 24 31 26 23 31 26 23 32 27 24 32 27 24 32 27 24 32 27 24 33 28 25 32 27 24 33 28 25 
33 28 25 32 27 24 33 28 25 33 28 25 33 28 25 30 25 22 32 27 24 33 28 25 33 28 25 32 27 24 34 29 26 34 29 26 34 29 26 33 28 25 34 29 26 34 29 26 33 28 25 34 29 26 34 29 26 33 28 25 34 29 26 34 29 26 34 29 26 34 29 26 33 28 25 33 28 25 33 28 25 33 28 25 31 26 23 31 25 25 30 24 24 28 22 22 26 20 20 27 21 21 27 18 19 23 17 17 22 16 16 20 16 17 19 15 16 18 14 15 18 14 15 17 13 14 17 13 14 17 13 14 15 13 14 15 13 14 14 12 13 16 12 13 15 13 14 15 13 14 18 14 15 17 13 14 16 12 13 18 14 15 19 13 15 20 14 16 20 14 14 21 15 15 22 16 16 24 18 18 25 19 19 27 21 21 28 22 22 29 23 23 31 25 25 31 26 23 33 28 25 33 28 25 34 29 26 35 29 29 35 30 27 35 30 27 34 29 26 34 29 26 33 28 25 33 28 25 33 27 27 33 27 27 33 27 27 32 26 26 33 27 27 32 26 26 32 26 26 31 25 25 31 26 23 32 27 24 32 27 24 33 28 25 32 27 24 31 26 23 32 27 24 32 27 24 33 28 25 32 27 24 32 27 24 33 28 25 34 29 26 32 27 24 33 28 25 33 28 25 
33 28 25 31 26 23 32 27 24 32 27 24 33 28 25 33 28 25 32 27 24 34 29 26 34 29 26 32 27 24 32 27 24 33 28 25 34 29 26 33 28 25 33 28 25 33 28 25 34 29 26 33 28 25 33 28 25 34 29 26 33 28 25 34 29 26 34 29 26 33 28 25 33 28 25 34 29 26 33 28 25 33 28 24 32 27 24 32 27 24 30 25 22 29 24 21 26 20 20 26 20 20 27 18 19 24 18 18 22 16 16 21 17 18 21 17 18 18 14 15 18 14 15 17 13 14 17 13 14 18 14 15 19 15 16 18 14 15 17 13 14 17 13 14 17 13 14 18 14 15 17 13 14 16 12 13 17 13 14 17 13 14 17 13 14 20 16 17 20 16 15 21 15 15 21 15 15 24 18 18 26 20 20 28 19 20 29 20 21 29 23 23 31 26 23 31 26 23 33 27 27 34 29 26 33 28 25 35 30 27 35 30 27 33 28 25 33 29 28 33 27 27 33 27 27 34 28 28 34 29 26 33 28 25 32 27 24 31 27 24 34 29 25 32 27 24 31 26 23 32 27 24 32 26 26 32 26 26 32 26 26 32 26 26 32 27 24 32 27 24 31 26 23 32 27 24 31 26 23 32 27 24 32 27 24 32 27 24 32 27 24 33 28 25 32 27 24 32 27 24 
34 29 26 34 29 26 33 28 25 34 29 26 33 28 25 32 27 24 32 27 24 34 29 26 33 28 25 33 28 25 35 30 27 33 28 25 34 29 26 33 28 25 33 28 25 34 29 26 35 30 27 33 28 25 33 28 25 33 28 25 33 28 25 33 28 25 34 29 26 33 28 25 33 28 25 33 28 25 33 28 25 33 28 24 33 28 25 33 28 25 31 26 23 31 26 23 27 21 21 27 21 21 27 18 19 25 19 19 23 17 17 21 17 18 20 16 17 20 16 17 19 15 16 19 15 16 19 15 16 19 15 16 20 16 17 18 14 15 19 15 16 18 14 15 17 13 14 16 12 13 16 12 13 18 14 15 18 12 14 16 12 13 17 13 14 17 15 16 19 15 14 20 16 15 21 15 15 22 16 16 24 18 18 26 20 20 28 22 22 29 23 23 30 25 22 31 26 23 32 27 24 32 27 24 33 28 25 34 29 26 33 28 25 34 29 26 33 29 26 33 29 26 34 29 26 33 28 25 33 27 27 33 27 27 31 27 26 31 27 26 34 29 26 33 28 25 32 27 24 33 27 27 32 26 26 32 26 26 31 25 25 33 27 27 33 28 25 33 28 25 32 27 24 33 28 25 33 28 25 32 27 24 32 27 24 34 29 26 33 28 25 33 28 25 33 28 25 33 28 24 
33 28 25 34 29 26 34 29 26 35 30 27 34 29 26 34 29 26 33 28 25 34 29 26 33 28 25 33 28 25 34 29 26 34 29 26 35 30 27 34 29 26 35 30 27 34 29 26 33 28 25 33 28 25 33 28 25 34 29 26 33 28 25 33 28 25 34 29 26 34 29 26 34 29 26 33 28 25 34 29 26 33 27 27 32 27 24 32 27 24 31 25 25 31 26 23 30 24 24 28 22 22 27 21 21 26 20 20 27 18 19 24 18 20 23 19 20 22 18 19 20 16 17 20 16 17 21 17 18 19 15 16 19 15 16 17 13 14 19 15 16 18 14 15 18 14 15 18 14 15 17 13 14 14 12 13 15 13 14 15 11 12 17 11 13 18 14 15 19 15 16 21 15 15 19 15 14 22 16 16 23 17 17 25 19 19 27 21 21 28 22 22 29 25 24 30 24 24 31 27 26 33 27 27 34 29 26 32 28 25 34 29 26 33 29 26 33 28 25 33 28 25 34 29 26 33 28 25 33 28 25 33 28 25 33 28 25 33 28 25 32 26 26 33 28 25 32 27 24 32 26 26 31 25 25 32 26 26 31 25 25 32 26 26 33 28 25 32 27 24 32 27 24 33 28 25 33 28 25 32 27 24 33 28 25 35 30 27 32 27 24 33 28 25 34 29 26 33 28 25 
34 29 26 34 29 26 34 29 26 33 28 25 34 29 26 34 29 26 35 30 27 34 29 26 35 30 27 35 30 27 34 29 26 35 30 27 36 31 28 35 30 27 34 29 26 35 30 27 33 28 25 33 28 25 33 28 25 33 28 25 34 29 26 34 29 26 34 29 26 34 29 26 34 29 26 33 28 25 33 28 25 33 27 27 32 27 24 32 27 24 31 25 25 31 26 23 30 24 24 29 23 23 28 23 20 28 22 22 26 20 22 26 20 20 24 20 19 24 20 21 22 18 19 24 18 20 21 17 16 21 17 18 20 16 17 20 16 17 19 15 16 18 14 15 18 14 15 18 14 15 17 13 14 16 14 15 15 13 14 15 11 12 15 11 12 18 14 15 18 14 15 18 14 15 19 15 14 22 16 16 23 17 17 25 19 19 26 20 20 28 22 22 29 23 23 30 24 24 31 25 25 32 26 26 34 29 26 33 28 25 33 28 25 34 29 26 35 31 28 34 29 26 33 28 25 33 28 25 33 28 25 33 28 25 33 28 25 32 28 25 32 26 26 32 26 26 33 27 27 33 27 27 32 27 24 33 28 25 33 28 25 32 27 24 33 28 25 32 27 24 31 26 23 32 27 24 33 28 25 33 28 25 33 27 27 33 27 27 34 29 26 34 29 25 33 27 27 33 27 27 
33 28 25 33 28 25 34 29 26 34 29 26 36 31 28 35 30 27 34 29 26 35 30 27 36 31 28 34 29 26 35 30 27 35 30 27 35 30 27 36 31 28 34 29 26 34 29 26 34 29 26 35 30 27 33 28 25 34 29 26 34 29 26 34 29 26 34 29 26 33 28 25 34 29 26 34 29 26 34 29 26 34 28 28 32 27 24 32 27 24 33 27 27 31 26 23 30 24 24 30 25 22 29 23 23 29 23 23 27 21 21 27 21 21 25 21 22 25 21 20 24 20 19 23 19 20 22 18 19 21 17 18 22 18 19 22 18 17 19 15 16 19 15 16 19 15 16 18 14 15 17 13 14 15 13 14 14 12 13 16 12 13 15 11 12 16 12 13 17 13 14 17 13 14 19 15 16 21 15 15 22 16 16 26 17 18 25 19 19 27 21 21 29 23 23 28 24 23 31 25 25 32 28 27 31 27 24 33 28 25 33 29 26 34 29 26 33 29 26 35 30 27 33 28 25 34 29 26 33 28 25 33 28 25 33 28 25 31 27 24 34 29 26 33 28 25 32 27 24 33 27 27 33 27 27 33 27 27 31 25 25 32 26 26 32 26 26 32 26 26 32 27 24 33 28 25 32 27 24 32 27 24 32 27 24 32 27 24 33 27 27 32 27 24 33 28 25 34 29 26 
35 30 27 34 29 26 34 29 26 34 29 26 35 30 27 35 30 27 34 29 26 36 31 28 35 30 27 35 30 27 36 31 28 36 31 28 35 30 27 36 31 28 34 29 26 34 29 26 34 29 26 34 29 26 33 28 25 33 28 25 34 29 26 34 29 26 34 29 26 33 28 25 34 29 26 34 29 26 34 29 26 33 27 27 33 28 25 33 28 25 32 26 26 31 26 23 30 25 21 30 24 24 29 23 23 30 24 24 28 22 22 28 22 22 27 21 21 28 22 22 24 20 19 26 20 20 23 19 18 23 19 20 22 18 17 23 19 20 21 17 18 19 15 16 20 16 17 18 14 15 17 13 14 14 12 13 14 12 13 13 11 12 15 11 12 16 12 13 16 12 13 17 13 14 17 13 14 19 15 16 21 15 15 23 17 17 25 19 19 26 20 20 27 21 21 28 22 22 29 23 23 30 24 24 32 27 24 32 27 24 32 27 24 33 28 25 32 28 25 32 28 25 32 28 25 33 28 25 33 28 25 33 29 26 33 29 26 32 28 25 33 28 25 32 26 26 32 26 28 33 27 27 32 27 24 32 27 24 31 26 23 32 26 26 32 27 24 32 27 24 32 27 24 33 28 25 33 28 25 32 27 24 33 28 25 32 27 24 34 29 26 33 28 25 34 28 28 33 27 27 
36 31 28 34 29 26 35 30 27 35 30 27 35 30 27 35 30 27 36 31 28 35 30 27 36 31 28 36 31 28 34 29 26 36 31 28 35 30 27 36 31 28 34 29 26 34 29 26 34 29 26 35 30 27 33 28 25 33 28 25 34 29 26 34 29 26 35 30 27 35 30 27 34 29 26 35 30 27 34 29 26 34 28 28 34 29 26 33 28 25 32 26 26 33 28 25 32 27 24 32 27 24 31 26 23 31 27 26 29 23 23 29 23 25 28 22 22 28 22 22 27 21 21 24 20 19 26 20 22 26 20 20 25 21 20 23 19 18 23 19 18 21 17 18 20 16 17 19 15 16 17 13 14 16 12 13 13 11 12 13 11 12 15 11 12 14 12 13 16 12 13 17 13 14 16 12 13 19 15 16 20 16 15 23 19 18 24 18 18 25 19 19 26 20 20 27 21 21 29 23 23 30 24 24 31 25 25 32 26 26 33 27 27 33 27 27 33 28 25 32 28 25 32 28 25 31 27 24 32 28 25 32 28 25 33 29 26 33 28 25 33 27 27 33 28 25 33 28 25 32 27 24 32 26 26 32 27 24 32 27 24 32 27 24 31 26 23 31 26 23 32 27 24 33 28 25 32 27 24 31 26 23 32 27 24 32 27 24 33 27 27 33 28 25 33 28 25 32 27 24 
36 32 29 35 30 27 34 30 27 36 31 28 35 31 28 35 30 27 35 31 28 34 30 27 35 31 28 35 31 28 35 31 28 33 29 26 33 29 26 34 30 27 33 29 26 33 29 26 33 29 26 33 29 26 32 28 25 32 28 25 32 28 25 33 29 26 33 29 26 33 29 26 35 30 27 34 29 26 35 30 27 33 29 28 34 29 26 34 29 26 32 28 27 33 28 25 34 29 26 32 28 25 33 28 25 31 27 26 31 25 27 29 25 24 30 24 24 29 23 23 28 24 23 29 23 23 26 20 20 26 20 20 24 20 19 24 20 21 23 19 18 20 18 19 20 16 17 19 15 16 18 14 15 17 13 14 15 13 14 13 11 12 13 11 12 14 12 13 14 12 13 16 12 13 16 12 13 18 14 15 20 16 17 21 17 16 22 16 16 23 17 17 25 19 19 26 20 20 28 22 22 28 22 22 31 25 25 31 25 25 32 26 26 32 26 26 33 28 25 32 27 24 34 29 26 31 27 24 31 27 24 32 27 24 32 27 24 32 27 24 32 27 24 32 27 24 32 27 24 31 25 25 32 27 24 32 27 24 32 27 24 32 26 26 32 26 26 31 25 25 33 28 25 32 27 24 32 27 24 32 27 24 32 27 24 33 28 25 33 28 25 33 27 27 33 27 27 34 29 26 
35 31 28 35 31 28 34 30 27 35 30 27 35 31 28 36 31 28 35 31 28 35 31 28 35 31 30 36 32 31 34 30 29 35 31 30 34 30 29 34 30 29 33 29 28 35 31 30 33 29 26 33 29 26 33 29 26 33 29 26 34 30 27 33 29 26 34 30 27 33 29 26 34 29 26 34 30 27 35 30 27 34 28 28 33 29 26 34 29 26 34 28 28 33 28 25 34 29 26 32 28 25 32 27 24 32 28 27 30 26 25 30 26 27 30 24 24 30 24 24 29 23 23 29 23 23 28 22 22 25 19 19 24 20 19 24 20 19 23 19 18 22 18 17 22 18 19 20 16 17 17 13 14 17 13 14 14 12 13 15 13 14 14 12 13 14 12 13 14 12 13 15 11 12 17 13 14 17 13 14 20 16 17 21 17 18 22 16 16 23 19 18 25 19 19 26 20 20 27 21 21 28 22 22 30 24 24 30 24 24 30 24 24 32 26 26 32 27 24 31 26 23 31 26 23 31 27 24 31 27 24 32 27 24 32 27 24 33 28 25 32 26 26 32 27 24 32 27 24 33 28 25 31 25 25 31 26 23 33 28 25 33 28 25 33 28 25 32 27 24 32 27 24 31 26 23 30 25 22 32 27 24 32 26 26 33 27 27 32 27 24 33 28 25 33 28 25 34 28 28 
35 31 28 34 30 27 34 30 27 35 30 27 36 32 29 38 33 30 35 31 28 35 31 28 33 29 26 35 31 28 34 30 27 35 31 28 34 30 27 33 29 26 35 31 28 33 29 26 34 30 27 33 29 26 33 29 26 34 30 27 33 29 26 33 29 26 33 29 26 33 29 26 35 30 27 35 30 27 35 30 27 34 30 29 34 29 26 34 29 26 34 30 29 33 28 25 33 28 25 33 28 25 32 26 26 31 27 26 31 27 26 31 27 24 30 26 25 31 25 25 29 23 23 32 23 24 27 21 21 27 23 22 26 22 21 23 19 20 23 19 18 22 16 16 22 18 19 20 16 17 18 14 15 17 13 14 14 12 13 13 13 13 14 12 13 13 11 12 16 12 13 16 12 13 16 12 13 14 12 13 18 14 15 19 15 16 22 16 18 23 17 17 25 19 19 27 21 21 28 22 22 27 21 21 29 23 23 30 24 24 31 25 25 31 25 25 32 27 24 31 26 23 31 26 23 31 26 23 31 26 23 33 28 25 32 27 24 32 27 24 30 25 22 32 27 24 32 27 24 32 27 24 32 27 24 31 26 23 32 27 24 32 27 24 32 27 24 33 28 25 32 27 24 32 27 24 30 25 22 32 27 24 32 27 24 32 27 24 33 28 25 33 28 25 34 29 26 34 29 26 
35 31 28 35 31 28 35 31 28 36 32 29 35 31 28 35 31 28 35 31 28 35 31 28 35 31 28 35 31 28 36 30 30 35 31 28 36 30 30 35 31 28 33 29 26 34 30 27 34 29 26 33 29 26 34 30 27 33 29 26 34 29 26 34 29 26 35 30 27 33 29 26 33 29 26 34 30 27 33 29 26 34 30 27 33 29 26 33 29 26 33 29 26 33 29 26 32 28 25 33 29 26 34 29 26 33 29 26 32 28 25 29 28 24 32 28 25 32 27 24 29 25 24 29 23 23 29 23 23 28 22 22 28 22 22 27 21 21 26 20 20 23 19 18 22 16 18 20 16 17 19 15 16 17 13 14 17 13 14 14 12 13 14 12 13 13 11 12 13 11 12 13 11 12 14 12 13 15 13 14 18 14 15 18 14 15 19 15 16 22 18 19 24 18 20 24 18 18 24 20 19 26 20 20 28 22 22 29 23 23 29 23 23 30 24 24 32 27 24 33 28 25 31 26 23 31 26 23 32 27 24 32 26 26 32 26 26 33 28 25 32 27 24 33 28 25 32 27 24 31 26 23 31 26 23 31 26 23 32 27 24 31 26 23 32 27 24 32 27 24 32 27 24 31 26 23 32 27 24 32 27 24 32 27 24 32 27 24 33 29 26 34 28 28 32 26 26 32 28 27 
35 31 28 34 30 27 35 31 28 35 31 28 35 31 28 35 31 28 35 31 28 35 31 28 34 30 27 34 30 27 36 31 28 35 31 28 36 31 28 34 30 27 35 31 28 34 30 27 34 30 27 35 29 29 34 29 26 34 29 26 33 29 28 34 30 27 33 29 26 35 30 27 33 29 26 33 29 26 34 30 27 33 29 26 33 29 26 33 29 26 33 29 26 32 28 25 33 29 26 33 29 26 33 29 26 33 29 26 32 28 25 32 28 25 32 28 25 34 29 26 31 27 26 31 25 25 29 23 23 29 23 23 28 22 22 26 20 20 24 18 20 23 19 20 22 18 19 20 16 17 19 15 16 17 13 14 15 11 12 13 11 12 14 12 13 12 10 11 13 11 12 14 12 13 12 10 11 14 12 13 15 13 14 17 13 14 17 13 14 19 15 16 23 17 17 23 17 19 24 18 18 24 18 18 27 21 21 28 22 22 28 22 24 29 24 21 29 24 21 30 24 24 29 23 23 30 25 22 31 26 23 32 27 24 31 26 23 31 26 22 31 26 23 32 27 24 31 26 23 32 27 24 32 27 24 32 27 24 32 27 24 31 26 23 33 28 25 32 27 24 31 26 23 31 26 23 32 27 24 32 27 24 32 27 24 33 28 25 34 26 24 31 25 25 33 28 25 32 27 24 
35 31 28 35 31 28 35 31 28 36 32 29 35 31 28 35 31 28 34 30 27 34 30 27 34 31 26 34 30 29 35 30 27 34 30 29 35 30 27 34 30 29 34 30 27 34 30 27 34 29 26 32 28 25 33 29 26 34 30 29 35 30 27 34 29 26 35 29 29 34 30 27 34 30 27 34 30 27 34 30 27 34 30 27 34 30 27 34 30 27 33 29 26 33 29 26 33 29 26 33 29 26 33 29 26 34 30 27 34 30 27 33 29 26 32 28 25 33 28 25 31 27 26 31 25 25 30 24 24 29 23 23 28 22 22 27 21 21 25 19 19 23 19 18 21 17 18 20 16 17 18 14 15 16 12 13 16 12 13 13 11 12 13 11 12 13 11 12 13 11 12 14 12 13 13 11 12 13 11 12 15 13 14 15 13 14 16 12 13 17 13 14 19 15 16 21 15 15 22 16 16 23 17 17 24 18 18 26 20 20 26 21 18 28 22 22 28 23 20 29 23 23 29 23 23 30 25 22 31 26 22 30 25 22 31 26 23 32 27 23 31 26 23 31 26 23 32 27 24 32 27 24 32 27 24 32 27 24 32 27 24 31 26 23 31 26 23 32 27 24 32 27 24 31 26 23 31 26 23 32 27 24 33 28 25 32 27 24 33 28 25 33 29 28 33 29 26 33 28 25 
35 31 28 36 32 29 35 31 28 35 31 28 34 30 27 35 31 28 35 31 28 35 31 28 34 30 27 34 30 27 35 30 27 34 30 29 34 29 26 34 30 27 34 30 27 34 30 27 33 29 26 34 29 26 34 29 26 34 29 26 33 29 26 35 31 28 34 30 27 36 31 28 34 30 27 35 31 28 34 30 27 34 30 27 35 31 28 33 29 26 34 30 27 33 29 26 33 29 26 35 31 28 34 30 27 34 30 27 33 29 26 33 29 26 34 29 26 33 28 25 32 28 27 31 25 25 30 24 24 28 22 22 28 22 22 26 20 20 25 19 19 22 18 19 21 17 18 20 16 17 19 15 16 18 14 15 14 12 13 12 10 11 13 11 12 11 9 10 14 12 15 13 11 12 13 11 12 13 11 12 14 12 13 14 12 13 13 11 12 15 11 10 18 14 15 20 16 17 21 15 15 22 16 16 23 17 17 24 19 16 26 20 20 26 20 20 27 21 21 28 22 22 28 22 22 29 24 21 29 24 21 30 25 22 30 25 22 31 26 22 30 25 22 31 26 23 31 26 23 31 26 23 32 27 24 34 26 24 34 26 24 33 25 23 32 27 24 31 26 23 31 26 23 31 26 23 33 28 25 33 28 25 32 27 24 33 28 25 33 28 25 32 26 26 33 27 27 32 26 26 
35 31 28 35 31 28 35 31 28 35 31 28 35 31 28 35 31 28 34 30 27 34 30 27 35 31 28 35 31 28 34 29 26 34 29 26 36 30 30 34 29 26 34 29 26 34 29 26 34 30 27 34 29 26 36 31 28 34 29 26 33 29 26 34 30 27 34 30 27 34 29 26 34 30 29 34 30 29 34 30 29 35 31 30 34 30 29 34 30 29 34 30 29 34 30 29 34 30 29 34 30 29 34 30 29 35 31 30 34 30 29 34 28 28 34 28 28 33 27 27 32 28 27 31 25 25 30 24 24 28 22 22 28 22 22 26 20 20 25 19 19 23 19 20 21 17 18 18 14 15 18 14 15 18 14 15 13 11 12 13 11 12 13 11 12 13 11 12 13 11 14 13 11 14 12 10 13 14 12 15 13 11 12 13 11 12 14 12 13 15 11 12 16 12 13 17 13 14 18 14 15 19 15 14 21 15 15 23 17 17 24 18 18 25 19 19 25 19 19 28 22 22 28 22 22 29 23 23 30 25 22 31 26 23 30 25 22 30 24 24 28 27 23 29 25 22 31 26 23 33 25 23 31 26 23 32 27 24 31 26 23 34 26 24 32 27 24 31 26 23 32 27 24 32 27 24 32 27 24 33 28 25 33 28 25 33 28 25 32 26 26 32 26 26 32 26 26 31 27 24 
35 31 28 35 31 28 35 31 28 34 30 27 34 30 27 35 31 28 35 31 28 35 31 28 34 30 27 33 29 26 34 28 28 34 29 26 35 29 29 34 29 26 35 29 29 34 29 25 36 31 28 32 28 25 33 29 26 33 29 28 36 31 28 36 31 28 35 29 29 35 31 28 35 31 30 34 30 29 36 32 31 34 30 29 35 31 30 34 30 29 34 30 29 34 30 29 33 29 28 34 30 29 34 30 29 33 29 28 33 29 28 33 27 27 33 27 27 34 28 28 31 27 26 31 25 25 30 24 24 29 23 23 28 22 22 26 20 20 25 19 19 23 19 18 20 16 17 18 14 15 17 13 14 15 13 14 13 11 12 13 11 12 14 12 13 13 11 12 13 11 14 13 11 14 14 12 15 13 11 14 11 11 13 13 11 14 13 11 14 13 11 14 15 11 12 17 13 14 15 13 14 18 14 15 19 15 16 22 16 16 23 17 17 24 18 18 25 19 21 25 20 17 27 22 19 28 23 20 28 22 22 30 24 24 30 24 24 29 23 23 30 25 22 32 24 22 30 25 22 30 25 22 31 26 23 33 25 23 35 25 24 35 27 25 31 26 23 32 27 24 31 26 23 32 27 24 32 27 24 33 28 25 33 28 25 32 27 24 33 28 25 34 29 26 33 27 27 32 28 25 
35 31 28 36 32 29 35 31 28 35 31 28 35 31 28 34 30 27 34 30 27 35 31 28 34 30 27 33 29 26 34 29 26 33 28 25 34 29 26 34 29 26 34 29 26 34 29 26 33 29 26 34 28 28 34 29 26 34 29 26 33 29 28 34 30 27 34 30 27 35 30 27 34 30 29 34 30 29 34 30 29 34 30 29 36 32 31 34 30 29 35 31 30 35 31 30 33 29 28 33 29 28 34 30 29 34 30 29 35 29 29 33 27 27 33 27 27 31 27 26 32 28 27 32 26 26 30 24 24 29 23 23 28 22 22 26 20 20 24 18 20 23 19 20 20 16 17 19 15 16 18 14 15 15 13 14 14 12 13 13 11 12 12 10 11 11 9 10 12 10 13 12 10 13 11 11 13 12 10 13 11 11 13 12 10 13 13 11 14 12 10 13 13 11 12 13 11 12 16 12 13 16 12 13 18 14 15 19 15 16 20 14 16 22 16 16 23 17 17 25 19 19 26 20 20 25 19 19 27 21 21 28 23 20 29 24 21 30 24 24 29 24 21 29 24 21 32 24 22 32 24 22 31 23 21 31 26 23 31 26 23 34 26 24 32 27 24 32 27 24 31 26 23 32 27 24 31 26 23 33 28 25 33 28 25 33 28 25 33 28 25 33 28 25 33 27 27 33 28 25 
36 32 29 35 31 28 35 31 28 34 30 27 35 31 28 34 30 27 34 30 27 34 30 27 33 29 26 33 29 26 34 29 26 33 27 27 34 29 26 34 28 28 34 29 26 33 28 25 33 28 25 34 30 27 34 30 27 34 30 27 34 29 26 35 30 27 36 31 28 35 31 28 35 31 30 34 30 29 34 30 29 35 31 30 35 31 30 34 30 29 35 31 30 34 30 29 34 30 29 35 31 30 34 30 29 33 29 28 34 28 28 33 27 27 34 28 28 32 28 27 32 28 27 31 25 25 30 24 24 29 23 23 29 23 23 27 21 21 26 20 20 23 19 18 20 16 17 20 16 17 18 14 15 15 13 14 13 11 12 14 12 13 13 11 12 11 11 11 12 10 13 14 9 13 10 10 12 10 10 12 11 11 13 12 10 13 11 9 12 13 11 14 12 10 13 12 10 11 13 11 12 16 12 11 17 13 14 18 14 15 19 15 16 22 16 18 23 17 17 23 17 17 24 18 18 26 20 20 27 21 21 30 25 22 29 24 21 29 24 21 32 24 22 30 25 22 31 26 23 30 26 23 31 26 23 31 26 23 32 27 24 32 28 25 31 26 23 32 27 24 32 27 24 32 27 24 32 27 24 33 28 25 33 28 25 32 27 24 34 28 28 33 27 27 34 28 28 35 27 25 
35 31 28 35 31 28 35 31 28 36 32 29 35 31 28 35 31 28 34 30 27 34 30 27 34 29 26 34 29 26 33 28 25 33 28 25 34 29 26 34 29 26 34 29 26 34 29 26 36 28 26 33 28 25 34 29 26 33 29 26 34 30 29 34 30 29 35 31 30 35 31 30 35 31 30 34 30 29 34 30 29 34 30 29 33 29 28 34 30 29 34 30 29 34 30 29 34 30 27 34 30 27 33 29 26 33 29 26 34 30 27 32 28 25 32 28 25 32 28 25 32 28 27 32 26 26 30 24 24 31 25 25 29 23 23 25 21 20 25 19 19 22 18 17 22 18 19 20 16 17 17 15 16 17 13 12 16 12 13 14 12 13 13 11 14 13 11 16 13 11 16 12 10 13 10 10 12 10 10 12 9 10 12 8 9 11 10 10 12 13 8 12 12 10 13 13 11 14 13 11 14 13 11 14 15 11 12 16 12 13 17 13 14 21 15 17 22 16 16 24 18 18 24 18 18 25 19 19 25 19 19 27 23 22 29 23 23 30 24 24 30 25 22 30 25 22 31 25 25 30 25 22 31 26 23 31 26 23 31 26 23 32 27 24 32 27 24 32 27 24 33 28 25 32 27 24 32 27 24 32 27 24 32 27 24 33 27 27 33 27 27 34 28 28 33 27 27 32 28 27 
36 32 29 34 30 27 35 31 28 35 31 28 35 31 28 34 30 27 34 30 27 34 30 27 34 29 26 34 29 26 35 30 27 33 28 25 33 28 25 35 30 27 33 28 25 34 29 26 34 29 26 35 30 27 33 29 26 35 31 28 34 30 29 35 31 30 34 30 29 35 31 30 34 30 29 36 32 31 35 31 30 35 31 30 36 32 31 34 30 29 36 32 31 35 31 30 34 30 29 34 30 29 34 30 29 34 30 29 34 30 29 33 29 28 33 29 28 32 28 27 31 27 26 32 28 27 31 25 25 29 23 23 28 22 22 26 20 20 23 19 18 22 18 17 21 17 18 20 16 17 18 14 15 18 14 15 17 13 14 15 13 16 14 12 13 13 11 14 13 11 14 12 10 13 10 10 12 11 11 13 10 10 12 9 9 11 10 10 12 10 8 11 12 10 13 11 9 12 13 11 14 13 11 14 12 10 11 17 13 14 18 14 15 19 15 16 20 16 15 21 17 16 24 18 18 25 19 19 24 18 18 28 19 20 28 22 22 31 22 23 30 24 24 30 25 22 30 25 22 30 25 22 30 25 22 31 26 23 31 26 23 33 28 25 33 28 25 32 27 24 32 27 24 33 28 25 33 28 25 33 28 25 33 28 25 32 27 24 33 27 27 33 27 27 33 27 27 32 28 27 
35 31 28 34 30 27 35 31 28 35 31 28 34 30 27 34 30 27 34 30 27 33 29 26 34 29 26 34 28 28 33 27 27 33 28 25 33 28 25 33 27 27 34 28 28 33 28 25 34 29 26 33 29 26 33 29 26 34 30 27 34 30 29 34 30 29 34 30 29 34 30 29 35 31 30 35 31 30 35 31 30 34 30 29 35 31 30 34 30 29 34 30 29 34 30 29 33 29 28 33 29 28 34 30 29 34 30 29 33 29 28 33 29 28 33 29 28 32 28 27 31 27 26 31 27 26 31 25 25 30 24 24 30 24 24 29 20 21 23 19 18 23 19 18 20 16 17 19 15 16 19 15 16 18 14 15 16 14 15 15 13 14 14 12 13 13 11 12 14 12 13 13 11 12 12 10 13 12 10 13 11 11 13 9 9 11 11 12 14 10 10 12 13 11 12 11 11 9 11 11 13 12 10 13 12 10 13 14 12 13 15 13 14 18 14 15 20 16 17 20 16 15 23 17 17 23 17 17 23 17 17 25 19 19 27 21 21 28 22 22 29 23 23 30 25 22 29 24 21 31 26 23 31 26 23 31 26 23 31 26 23 32 27 24 31 26 23 32 27 24 32 27 24 32 27 24 33 28 25 33 28 25 32 27 24 33 28 25 32 26 26 33 27 27 33 27 27 33 27 27 
35 31 28 34 30 27 35 31 28 35 31 28 34 30 27 34 30 27 34 30 27 34 30 27 34 29 26 34 28 28 34 28 28 34 29 26 33 28 25 33 27 27 33 27 27 34 29 26 32 28 25 33 29 26 33 29 26 33 29 26 34 30 29 35 31 30 34 30 29 35 31 30 35 31 30 34 30 29 34 30 29 35 31 30 34 30 29 35 31 30 34 30 29 34 30 29 34 30 29 35 31 30 35 31 30 34 30 29 33 29 28 33 29 28 33 29 28 32 28 27 32 28 27 31 27 26 29 23 23 29 23 23 30 24 24 28 22 22 26 20 20 23 19 18 21 17 18 20 16 17 19 15 16 18 14 15 16 14 15 16 14 15 14 12 13 14 12 13 14 12 13 14 12 13 13 11 12 13 11 14 11 9 12 15 10 14 11 11 13 12 12 14 12 10 11 12 10 11 12 10 13 11 9 12 13 11 12 15 11 12 17 13 14 17 13 14 18 14 15 20 14 16 20 16 15 22 16 16 22 16 16 24 18 18 28 22 22 28 22 22 29 24 21 29 24 21 29 23 23 30 25 22 32 27 24 31 26 23 31 26 23 32 27 24 32 27 24 32 27 24 34 29 26 32 27 24 32 27 24 32 27 24 33 28 25 33 27 27 33 27 27 32 26 26 33 27 27 33 27 27 
35 31 30 34 30 29 34 30 29 34 30 29 34 30 29 34 30 29 33 29 28 33 29 28 34 29 26 34 28 28 34 28 28 34 29 26 34 29 26 33 27 27 34 28 28 34 29 26 33 29 28 34 30 29 34 30 29 34 30 29 34 30 29 35 31 30 34 30 29 34 30 29 34 30 29 35 31 30 36 32 31 36 32 31 35 31 30 35 31 30 35 31 30 35 31 30 34 30 29 34 30 29 34 30 29 34 30 29 33 29 28 32 28 27 32 28 27 32 28 27 32 28 27 31 25 25 31 25 25 30 24 24 29 23 23 27 21 21 25 19 19 25 19 19 22 18 19 21 17 16 20 16 17 20 16 17 19 15 16 19 15 16 16 14 15 15 13 14 14 12 13 14 12 13 13 11 12 13 11 12 12 10 13 12 10 13 11 11 13 11 11 13 12 10 13 8 9 11 11 11 13 12 10 13 12 10 11 13 11 12 16 12 13 16 12 13 18 14 15 17 13 14 20 14 14 22 16 16 22 16 16 25 19 19 27 21 21 27 21 21 28 23 20 28 23 20 31 25 25 30 25 22 30 25 22 31 26 23 31 26 23 31 26 23 32 27 24 32 27 24 31 26 23 32 27 24 32 27 24 32 27 24 31 26 23 33 27 27 33 27 27 33 27 27 33 27 27 32 26 26 
34 30 29 34 30 29 34 30 29 35 31 30 34 30 29 34 30 29 33 29 28 35 31 30 34 29 26 34 28 28 35 29 29 34 29 26 33 28 25 34 28 28 33 27 27 34 29 26 32 28 27 34 30 29 34 30 29 34 30 29 35 31 30 34 30 29 34 30 29 33 29 28 35 31 30 35 31 30 35 31 30 35 31 30 35 31 30 36 32 31 34 30 29 34 30 29 33 29 28 33 29 28 33 29 28 34 30 29 33 29 28 33 29 28 33 29 28 33 29 28 32 28 27 32 26 26 31 25 25 29 23 23 29 23 23 27 21 21 27 21 21 26 20 20 24 18 18 23 17 17 21 17 16 20 16 17 20 16 17 20 16 17 19 15 16 19 15 16 16 14 15 15 13 14 13 11 12 13 11 12 13 11 12 15 10 14 12 10 13 11 9 12 11 9 10 10 8 11 10 8 11 11 9 12 10 10 10 12 10 13 13 11 12 14 12 13 17 13 14 18 14 15 19 15 16 22 16 16 21 15 15 26 17 18 26 20 20 27 21 21 27 21 21 27 22 19 30 25 22 31 26 23 30 25 22 30 25 22 30 25 22 31 26 23 32 27 24 32 27 24 32 27 24 31 26 23 32 27 24 32 27 24 33 28 25 33 28 25 33 27 27 33 27 27 33 27 27 32 26 26 
35 31 30 34 30 29 34 30 29 34 30 29 34 30 29 35 31 30 34 30 29 34 30 29 34 30 29 34 30 29 33 29 28 33 29 28 33 29 28 33 29 28 34 30 29 33 29 28 33 29 28 34 30 29 34 30 29 34 30 29 34 30 29 35 31 30 35 31 30 34 30 29 35 31 30 35 31 30 35 31 30 35 31 30 35 31 30 35 31 30 35 31 30 35 31 30 34 30 29 34 30 29 33 29 28 34 30 29 33 29 28 33 29 28 33 29 28 33 29 28 31 27 26 31 27 26 30 24 24 28 24 23 30 24 24 28 22 22 27 21 21 26 20 20 25 19 19 23 17 19 23 17 17 21 17 18 20 16 17 22 16 18 19 15 16 19 15 16 16 14 15 18 14 15 15 13 14 14 12 13 14 12 13 13 11 14 13 11 14 12 10 13 13 11 14 13 11 14 12 10 13 11 9 12 12 10 11 12 10 11 13 11 12 16 12 13 17 13 14 18 14 15 19 15 16 20 16 17 21 15 15 23 17 17 26 17 18 28 19 20 27 21 21 28 23 20 27 22 19 29 24 21 31 26 23 30 25 22 30 25 22 31 26 23 32 27 24 31 26 23 32 27 24 31 26 23 31 26 23 31 26 23 32 27 24 32 27 24 33 27 27 33 27 27 32 26 26 32 26 26 
35 31 30 34 30 29 35 31 30 35 31 30 35 31 30 34 30 29 35 31 30 35 31 30 34 30 29 33 29 28 32 28 27 34 30 29 34 30 29 33 29 28 34 30 29 33 29 28 34 30 29 34 30 29 34 30 29 34 30 29 33 29 28 35 31 30 35 31 30 35 31 30 35 31 30 35 31 30 35 31 30 36 32 31 34 30 29 36 32 31 34 30 29 35 31 30 34 30 29 35 31 30 33 29 28 33 29 28 33 29 28 33 29 28 33 29 28 33 29 28 33 29 28 32 28 27 27 26 24 30 26 25 27 26 24 29 23 23 28 22 22 27 21 21 26 20 20 25 19 19 23 17 17 21 17 16 21 17 18 20 16 17 20 16 17 19 15 16 18 14 15 18 12 14 16 14 15 15 13 14 14 12 13 14 12 15 14 12 15 13 11 14 12 12 12 13 11 12 13 11 14 13 11 14 12 10 13 13 11 12 13 11 12 15 11 12 16 12 13 18 14 15 19 15 16 20 16 17 21 15 15 22 16 16 24 18 18 25 19 19 26 21 18 27 22 19 28 22 22 29 24 21 30 25 22 30 25 22 30 25 22 31 26 23 33 28 25 31 26 23 31 26 23 31 26 23 32 27 24 32 27 24 32 27 24 31 25 25 33 27 27 32 26 26 32 26 26 33 27 27 
34 30 29 34 30 29 34 30 29 33 29 28 35 31 30 34 30 29 34 30 29 34 30 29 34 30 29 34 30 29 33 29 28 35 31 30 34 30 29 33 29 28 33 29 28 33 29 28 34 30 29 35 31 30 35 31 30 34 30 29 34 30 29 35 31 30 33 32 30 33 32 30 35 31 30 33 32 30 35 31 30 35 31 30 35 31 30 35 31 30 33 32 30 35 31 30 35 31 30 34 30 29 34 30 29 35 31 30 33 29 28 33 29 28 33 29 28 33 29 28 32 28 27 31 30 28 32 28 27 31 27 26 31 25 25 29 23 23 28 22 22 27 21 21 26 20 20 25 19 19 24 18 18 23 17 17 23 17 19 22 18 19 21 17 18 18 16 17 19 15 16 19 15 16 19 15 16 15 13 14 14 12 13 15 13 14 14 12 13 13 11 12 13 11 14 13 11 14 13 11 14 13 11 14 13 11 12 13 11 12 14 12 13 14 12 13 16 12 13 17 13 14 18 14 15 21 15 15 20 14 16 21 15 15 24 18 18 25 19 19 26 20 20 26 20 20 28 22 22 29 23 23 32 24 22 30 25 22 30 25 22 32 24 22 31 25 25 31 25 25 32 26 26 31 25 25 31 25 25 32 26 26 32 26 26 32 26 26 33 28 25 32 27 24 32 27 24 32 27 24 
34 30 29 35 31 30 35 31 30 36 32 31 35 31 30 35 31 30 35 31 30 35 31 30 34 30 29 34 30 29 35 31 30 34 30 29 34 30 29 33 29 28 34 30 29 34 30 29 34 30 29 33 29 28 35 31 30 35 31 30 34 30 29 35 31 30 33 32 30 33 32 30 36 32 31 35 31 30 35 31 30 35 31 30 34 30 29 36 32 31 34 30 29 35 31 30 35 31 30 35 31 30 34 30 29 35 31 30 33 29 28 34 30 29 35 31 30 34 30 29 33 29 28 32 28 27 32 28 27 32 28 27 31 27 26 29 25 24 29 23 23 28 22 22 28 22 22 27 21 21 26 20 20 24 18 18 23 17 17 23 19 20 22 18 19 20 16 17 21 17 18 21 17 18 18 16 17 17 15 16 15 13 14 14 12 13 15 13 14 15 13 14 14 12 15 14 12 15 13 11 14 13 11 12 13 11 12 13 11 12 14 12 13 13 11 12 15 11 12 16 12 13 17 13 14 19 13 15 17 11 13 20 14 14 22 16 16 24 18 18 25 19 19 25 19 19 26 20 20 28 22 22 29 24 21 31 23 21 29 24 21 32 24 22 31 26 23 31 26 23 31 26 23 31 26 23 32 27 24 32 27 24 30 25 22 32 27 24 32 27 24 32 27 24 32 27 24 33 28 25 
33 29 28 34 30 29 34 30 29 37 33 32 35 31 30 35 31 30 35 31 30 35 31 30 35 31 30 35 31 30 34 30 29 33 29 28 35 31 30 33 29 28 34 30 29 33 29 28 35 31 30 34 30 29 35 31 30 34 30 29 34 30 29 33 32 30 33 32 30 32 31 29 36 32 31 34 30 29 33 32 30 35 31 30 35 31 30 33 32 30 35 31 30 35 31 30 35 31 30 34 30 29 33 29 28 34 30 29 34 30 29 34 30 29 34 30 29 33 29 28 32 28 27 33 27 27 33 27 27 32 28 27 32 28 27 30 26 25 30 24 24 28 22 22 28 22 22 27 21 21 26 20 20 25 19 19 24 18 18 24 20 21 22 18 19 22 18 19 22 18 19 21 17 18 19 17 18 16 14 15 16 14 15 15 13 14 16 14 15 15 13 14 15 13 14 14 12 13 13 11 12 13 11 12 14 12 13 14 12 13 14 12 13 13 11 12 15 11 10 16 12 13 17 13 14 17 13 14 18 12 14 20 14 14 21 15 17 22 16 18 23 17 17 25 19 19 26 20 20 27 21 21 28 23 20 29 24 21 29 24 21 29 24 21 30 25 22 31 26 23 30 25 22 30 25 22 33 28 25 31 26 23 31 26 23 32 27 24 31 25 25 32 26 26 31 25 25 32 26 26 
36 32 31 35 31 30 34 30 29 35 31 30 35 31 30 34 30 29 35 31 30 34 30 29 35 31 30 34 30 29 34 30 29 34 30 29 34 30 29 33 29 28 33 29 28 34 30 29 36 32 31 35 31 30 35 31 30 33 32 30 33 32 30 32 31 29 33 32 30 33 32 30 36 32 31 34 30 29 35 31 30 34 30 29 35 31 30 35 31 30 34 30 29 34 30 29 35 31 30 35 31 30 34 30 29 34 30 29 34 30 29 35 31 30 35 31 30 33 29 28 35 29 29 34 30 29 34 28 28 33 27 27 32 26 26 32 26 26 31 25 25 30 24 24 29 23 23 29 23 23 28 22 22 26 20 20 25 19 19 23 19 18 22 18 19 23 19 20 23 19 20 22 18 19 20 16 17 18 16 17 18 16 17 17 15 16 17 15 16 15 13 14 13 11 12 13 11 12 13 11 12 13 11 12 13 11 12 13 11 12 14 12 13 14 12 13 14 12 13 15 11 12 15 11 12 17 13 14 19 15 16 19 15 16 21 15 17 22 16 18 23 17 17 25 19 19 26 20 20 26 20 20 28 22 22 28 23 20 30 22 20 30 25 22 29 24 21 30 25 22 29 24 21 30 25 22 31 26 23 31 26 23 31 26 23 32 27 24 31 25 25 31 25 25 32 26 26 32 26 26 
34 30 29 34 30 29 34 30 29 34 30 29 36 32 31 34 30 29 36 32 31 34 30 29 35 31 30 33 29 28 33 29 28 34 30 29 34 30 29 33 29 28 35 31 30 34 30 29 35 31 30 34 30 29 34 30 29 33 32 30 34 33 31 33 32 30 33 32 30 33 32 30 35 31 30 35 31 30 35 31 30 34 30 29 35 31 30 35 31 30 35 31 30 34 30 29 34 30 29 34 30 29 34 30 29 35 31 30 35 31 30 34 30 29 34 30 29 34 30 29 34 30 29 33 29 28 33 29 28 33 29 28 33 27 27 33 27 27 31 27 26 30 24 24 29 23 23 29 23 23 28 22 22 27 21 21 27 21 21 25 19 19 23 19 20 24 20 21 24 18 20 23 19 18 19 17 18 21 17 18 20 16 17 17 15 16 17 15 16 17 13 14 15 13 14 14 12 13 13 11 12 13 11 12 14 12 13 14 12 13 14 12 13 14 12 13 14 12 13 13 9 10 15 10 14 17 13 14 16 12 13 19 15 16 19 15 14 22 16 16 22 16 16 24 18 18 25 19 19 25 19 19 26 22 21 29 21 19 28 23 20 29 24 21 29 24 21 29 24 21 29 24 21 30 25 22 30 25 22 31 26 23 31 26 23 32 27 24 32 26 26 32 26 26 31 25 25 31 25 25 
35 31 30 33 29 28 35 31 30 35 31 30 36 32 31 35 31 30 35 31 30 35 31 30 35 31 30 35 31 30 34 30 29 34 30 29 34 30 29 34 30 29 34 30 29 34 30 29 34 30 29 35 31 30 35 31 30 34 30 29 35 31 30 35 31 30 35 31 30 35 31 30 35 31 30 32 31 29 35 31 30 34 30 29 33 29 28 35 31 30 33 32 30 34 30 29 35 31 30 34 30 29 34 30 29 34 30 29 34 30 29 34 30 29 34 30 29 34 30 29 34 30 29 34 30 29 34 30 29 34 30 29 31 30 28 32 28 27 32 26 26 32 26 26 31 25 25 29 23 23 29 23 23 28 22 22 28 22 22 27 21 21 25 21 20 24 20 21 25 19 19 24 18 20 22 18 17 21 17 18 20 16 17 19 15 14 19 15 16 18 14 15 15 13 14 15 13 14 14 12 13 14 12 13 13 11 12 13 11 12 13 11 12 13 11 12 13 11 14 15 11 12 16 12 13 17 13 14 16 12 13 17 13 14 19 15 14 20 14 14 23 17 17 22 16 16 23 17 17 23 17 17 26 20 20 26 20 20 28 23 20 29 24 21 29 24 21 29 24 21 29 24 21 30 25 22 31 26 23 31 26 23 31 26 23 31 26 23 32 26 26 31 25 25 32 26 26 32 26 26 
35 31 30 33 29 28 35 31 30 35 31 30 35 31 30 34 30 29 33 29 28 34 30 29 34 30 29 35 31 30 34 30 29 34 30 29 34 30 29 34 30 29 34 30 29 35 31 30 34 30 29 36 32 31 35 31 30 34 30 29 35 31 30 35 31 30 35 31 30 35 31 30 35 31 30 35 31 30 34 30 29 36 32 31 34 30 29 34 30 29 35 31 30 34 30 29 35 31 30 35 31 30 35 31 30 35 31 30 36 32 31 35 31 30 35 31 30 35 31 30 35 31 30 36 30 30 34 30 29 34 30 29 34 30 29 33 29 28 31 27 26 32 26 26 32 26 26 29 23 23 29 23 23 28 22 22 27 23 22 28 22 22 26 20 20 24 20 19 25 20 17 25 19 19 23 17 19 21 17 16 20 16 15 19 15 16 19 15 14 17 13 14 18 14 15 18 14 15 17 13 14 15 13 14 14 12 13 13 11 12 13 11 12 12 10 11 12 10 11 14 10 11 16 12 13 18 14 15 18 14 15 17 13 14 18 14 15 22 13 16 21 15 15 21 15 15 23 17 17 23 17 17 27 18 19 26 20 20 30 22 20 29 21 19 30 22 20 31 23 21 31 23 21 29 24 21 30 25 22 30 25 22 32 27 24 30 25 22 31 26 23 31 26 23 32 27 24 31 26 23 
34 30 29 35 31 30 35 31 30 35 31 30 35 31 30 34 30 29 34 30 29 35 31 30 35 31 30 34 30 29 34 30 29 34 30 29 34 30 29 33 29 28 34 30 29 34 30 29 33 29 28 34 30 29 34 30 29 35 31 30 34 30 29 34 30 29 34 30 29 34 30 29 34 30 29 34 30 29 33 32 30 36 32 31 35 31 30 32 31 29 34 30 29 34 30 29 34 30 29 35 31 30 35 31 30 35 31 30 36 32 31 35 31 30 36 32 31 35 31 30 35 31 30 34 30 29 34 30 29 35 31 30 35 31 30 33 29 28 32 28 27 34 30 29 32 26 26 32 26 26 30 24 24 29 23 23 28 24 23 30 24 24 28 22 22 26 20 20 27 21 21 25 19 19 24 20 19 22 18 19 21 17 16 19 15 14 18 14 15 18 14 15 17 13 14 17 13 14 16 12 13 16 12 13 14 12 13 13 11 12 13 11 12 12 10 11 11 9 10 14 9 13 15 11 12 16 11 15 16 12 13 15 13 14 18 14 15 21 12 15 20 14 14 21 15 15 22 16 16 23 17 17 25 19 19 27 18 19 25 20 17 28 20 18 29 20 21 31 22 23 30 21 22 31 22 23 28 22 22 29 23 23 32 26 26 30 24 24 31 26 23 31 26 23 32 27 24 32 27 24 
35 31 30 35 31 30 35 31 30 35 31 30 35 31 30 35 31 30 34 30 27 34 30 27 35 31 28 35 31 30 35 29 29 34 30 29 34 30 29 34 30 29 33 29 28 34 30 29 33 29 28 34 30 29 34 30 29 35 31 30 34 30 29 35 31 30 34 30 29 33 32 30 34 30 29 35 31 30 36 32 31 34 30 29 34 30 29 31 30 28 33 32 30 35 31 30 34 30 29 35 31 30 35 31 30 36 32 31 36 32 31 36 32 31 34 33 31 35 34 32 32 31 29 33 32 30 33 32 30 34 30 29 35 31 30 34 30 29 34 30 29 32 28 27 33 27 27 32 26 26 31 25 25 30 24 24 30 21 22 29 23 23 30 24 24 28 22 22 26 20 20 26 20 20 25 21 20 23 17 17 22 16 16 20 16 17 19 15 16 18 14 15 18 14 15 14 14 14 14 12 13 14 12 13 13 11 12 13 11 12 13 11 12 12 10 11 12 10 11 14 10 11 15 11 12 16 12 13 15 11 12 16 12 13 17 13 14 19 13 15 20 14 16 20 14 16 20 14 16 24 15 16 22 18 17 26 16 17 27 18 19 28 19 20 28 19 20 28 19 20 29 20 21 29 20 21 29 23 23 29 23 23 29 23 23 30 24 24 31 25 25 31 25 25 31 25 25 31 25 25 
35 31 30 35 31 30 35 31 30 34 30 29 34 30 29 34 30 29 34 30 27 34 30 27 34 30 29 35 31 28 34 30 29 35 29 31 33 29 28 33 29 28 33 29 28 33 29 28 34 30 29 34 30 29 35 31 30 34 30 29 34 30 29 34 30 29 34 30 29 35 31 30 34 30 29 35 31 30 34 30 29 35 31 30 35 31 30 35 31 30 35 31 30 32 31 29 34 30 29 34 30 29 36 32 31 36 32 31 35 31 30 36 32 31 35 34 32 34 33 31 33 32 30 33 32 30 33 32 30 35 31 30 34 30 29 34 30 29 33 29 28 32 28 27 32 26 26 33 27 27 31 25 25 31 25 25 30 24 24 30 24 24 30 24 24 28 22 22 27 21 21 27 21 21 25 21 20 24 18 18 23 17 17 21 17 16 20 16 17 18 14 15 17 13 14 14 14 14 15 13 14 13 11 14 13 11 12 13 11 12 13 11 12 12 11 9 12 10 11 14 10 11 14 10 11 16 12 13 16 12 13 15 11 12 17 13 14 19 13 15 18 14 15 20 14 16 21 15 15 22 16 16 23 17 17 26 16 17 24 18 18 27 18 19 27 18 19 28 19 20 30 21 22 28 22 22 28 22 22 29 23 23 29 23 23 29 23 23 30 24 24 31 25 25 30 24 24 31 25 25 
34 30 29 35 31 30 35 31 30 34 30 29 33 29 28 34 30 29 34 30 27 34 30 27 34 30 27 34 30 29 33 29 26 34 28 28 34 30 29 34 30 27 34 30 29 33 29 28 33 29 28 34 30 29 34 30 29 35 31 30 35 31 30 34 30 29 33 32 30 33 32 30 35 29 29 33 29 28 34 30 29 33 32 30 33 32 30 35 31 30 36 32 31 33 32 30 33 32 30 34 30 29 35 31 30 35 31 30 34 33 31 35 34 32 34 33 31 34 33 31 34 33 31 34 33 31 33 32 30 32 31 29 36 32 31 34 30 29 34 30 29 33 29 28 34 28 28 33 29 28 31 27 26 32 26 26 31 25 25 31 25 25 30 24 24 31 22 23 28 22 22 27 21 21 26 20 20 25 19 19 24 18 18 22 16 16 20 16 15 19 15 16 17 13 14 15 13 14 15 13 14 13 11 12 13 11 16 13 11 14 13 11 12 12 10 11 12 10 11 14 9 15 13 9 10 14 10 11 15 11 12 16 12 13 16 12 13 18 12 14 17 13 14 19 13 15 18 14 15 20 14 16 21 15 15 22 16 16 23 17 17 26 17 18 25 19 19 26 20 20 26 20 20 27 21 21 29 23 23 28 22 22 28 22 22 28 22 22 30 24 24 30 24 24 30 24 24 29 23 23 
35 31 30 36 32 31 35 31 30 34 30 29 34 30 29 34 30 29 33 29 26 34 30 27 33 29 26 34 30 27 34 28 28 33 29 26 33 29 26 33 29 28 34 30 27 35 31 30 34 30 29 34 30 29 34 30 29 34 30 29 34 30 29 35 31 30 34 30 29 35 31 30 34 30 29 35 31 30 35 31 30 33 32 30 33 32 30 35 31 30 33 32 30 34 33 31 33 32 30 33 32 30 36 32 31 36 32 31 34 33 31 34 33 31 34 33 31 34 33 31 33 32 30 33 32 30 33 32 30 33 32 30 34 30 29 33 29 28 33 29 28 33 29 28 33 27 27 32 28 27 31 27 26 32 26 26 32 26 26 30 24 24 31 25 25 30 24 24 29 23 23 28 22 22 27 21 21 26 20 20 24 18 18 23 17 17 21 17 16 19 15 14 18 14 15 15 13 14 14 12 13 13 11 14 13 11 12 13 11 12 13 11 12 12 11 9 12 10 13 15 11 12 15 11 12 15 11 12 15 11 12 15 11 12 15 11 12 17 11 13 20 11 14 17 13 14 18 14 15 19 13 15 21 15 17 21 17 18 22 16 20 24 18 18 25 19 19 25 19 19 26 20 20 26 20 20 27 21 21 27 21 21 28 22 22 28 22 22 28 22 22 30 24 24 30 24 24 31 25 25 
34 30 29 35 31 30 35 31 30 35 31 30 34 30 29 34 30 29 34 30 27 34 30 27 34 30 27 34 30 29 34 29 26 32 28 27 33 29 28 34 30 27 34 30 29 34 30 29 34 30 29 34 30 29 34 30 29 34 30 29 34 30 29 34 30 29 32 31 29 32 31 29 34 30 29 35 31 30 32 31 29 34 30 29 34 30 29 32 31 29 33 32 30 33 32 30 34 33 31 33 32 30 35 34 32 34 33 31 33 32 30 33 32 30 34 33 31 34 33 31 33 31 32 33 32 30 33 32 30 33 32 30 35 31 30 34 30 29 33 29 28 33 29 28 33 29 28 32 28 27 31 27 26 31 25 25 31 25 25 31 25 25 31 25 25 30 24 24 29 23 23 28 22 22 27 21 21 25 19 19 24 18 18 23 17 17 21 17 16 19 15 14 19 15 16 17 13 14 14 12 13 13 11 12 13 11 16 12 10 15 12 10 11 11 9 10 12 10 13 14 10 11 14 10 11 15 11 12 15 11 12 15 11 12 15 11 12 17 11 13 17 11 13 15 14 12 19 13 15 20 14 16 21 15 15 20 14 14 22 16 16 23 17 17 24 18 20 24 18 20 23 17 19 25 19 21 26 20 20 27 21 21 27 21 21 27 21 21 29 23 23 29 23 23 30 24 24 30 24 24 
33 29 28 33 29 28 34 30 29 33 29 28 33 29 28 32 28 27 33 29 26 33 29 26 32 28 25 33 29 26 34 30 29 34 29 26 33 29 26 33 29 28 33 29 26 33 29 28 34 30 29 34 30 29 34 30 29 34 30 29 34 30 29 34 30 29 34 30 29 34 30 29 33 29 28 33 32 30 33 32 30 34 30 29 35 31 30 33 32 30 33 32 30 32 32 30 34 33 31 34 33 31 35 34 32 34 33 31 34 33 31 34 33 31 33 32 30 34 32 33 34 32 33 33 31 32 35 34 32 33 32 30 35 31 30 34 30 29 33 29 28 33 29 28 32 28 27 31 30 28 32 28 27 33 27 27 32 26 26 31 25 25 31 25 25 31 25 25 29 24 21 28 22 22 28 22 22 26 20 20 25 19 19 23 17 17 22 16 16 20 16 15 18 14 15 17 13 14 14 12 13 13 11 14 13 11 12 11 9 10 11 9 10 12 11 9 12 10 11 15 10 16 15 11 12 15 11 12 15 11 12 15 11 12 15 11 12 17 11 13 17 13 14 18 12 14 20 14 14 18 14 15 20 14 16 20 14 16 22 16 18 23 17 17 23 17 19 23 17 19 23 17 19 25 19 21 26 20 20 26 20 20 26 20 20 27 21 21 28 22 22 29 23 23 29 23 23 29 23 23 
32 28 27 34 30 29 33 29 28 33 29 28 33 29 28 33 29 28 32 28 25 33 29 26 33 29 26 33 29 26 33 29 26 33 28 25 33 30 25 33 29 26 33 29 28 33 29 26 32 31 29 34 30 29 34 28 28 34 28 28 33 29 28 32 31 29 32 31 29 34 30 29 34 30 29 33 32 30 33 32 30 33 32 30 32 31 29 33 32 30 33 32 30 33 32 30 34 33 31 34 33 31 34 32 33 34 32 33 34 33 31 34 33 31 33 31 32 34 32 33 34 32 33 34 32 33 33 32 30 33 32 30 33 32 30 34 30 29 33 29 28 33 29 28 32 28 27 32 28 27 31 27 26 32 26 26 32 26 26 31 27 26 30 26 25 31 25 25 31 26 23 29 24 21 28 22 22 26 20 20 25 19 19 24 18 18 23 17 17 19 15 14 18 14 15 19 13 15 14 12 13 13 11 12 12 10 13 11 9 12 11 9 10 12 10 11 12 10 11 14 10 11 14 10 11 14 10 11 14 10 11 16 12 13 16 12 13 17 11 13 16 12 13 18 12 14 18 13 17 17 13 14 19 13 15 19 13 15 21 15 17 22 16 18 23 17 19 23 17 19 24 18 20 25 19 21 26 20 20 26 20 20 26 20 20 27 21 21 27 21 21 28 22 22 29 23 23 28 22 22 
33 29 28 33 29 28 33 29 28 32 28 27 32 28 27 32 28 27 32 28 25 31 27 24 33 29 26 34 30 27 34 29 26 32 28 25 33 29 26 33 29 26 33 29 26 32 28 27 33 29 28 33 29 28 33 29 28 33 29 28 35 31 30 33 29 28 35 31 30 34 30 29 33 32 30 35 31 30 35 31 30 34 33 31 33 32 30 33 32 30 34 33 31 33 32 30 35 34 32 33 32 30 33 31 32 34 32 33 34 33 31 35 34 32 35 33 34 33 31 32 34 32 35 34 32 33 33 32 30 32 31 29 33 32 30 34 30 29 33 29 28 33 29 28 31 27 26 33 29 28 32 28 27 32 26 26 32 26 26 30 26 25 31 27 26 33 24 25 31 26 23 29 24 21 27 22 19 28 22 22 26 20 20 24 18 18 23 17 17 20 16 15 18 14 15 18 12 14 14 12 13 13 11 12 12 10 11 11 9 10 11 9 10 12 10 11 13 11 12 15 11 12 14 10 11 14 10 11 14 10 11 15 11 12 16 12 13 17 11 13 16 10 12 16 12 13 19 13 15 18 12 14 18 14 15 19 13 15 20 16 17 24 18 20 24 18 20 23 17 19 22 16 18 24 18 20 25 19 19 26 20 20 25 19 19 26 20 20 27 21 21 28 22 22 29 23 23 27 21 21 
