P3
100 50
255
255 255 255 255 255 255 255 255 255 255 255 255 255 255 255 255 255 255 255 255 255 255 255 255 255 255 255 255 255 255 255 255 255 255 255 255 255 255 255 255 255 255 255 255 255 255 255 255 255 255 255 255 255 255 255 255 255 255 255 255 255 255 255 255 255 255 255 255 255 255 255 255 255 255 255 255 255 255 255 255 255 255 255 255 255 255 255 255 255 255 255 255 255 255 255 255 255 255 255 255 255 255 255 255 255 255 255 255 255 255 255 255 255 255 255 255 255 255 255 255 255 255 255 255 255 255 255 255 255 255 255 255 165 165 165 51 51 53 52 52 54 52 52 54 51 51 53 51 51 53 53 51 54 51 51 53 52 52 54 52 53 55 51 51 53 53 53 55 51 51 53 52 52 54 52 52 54 52 52 54 52 52 54 51 51 53 52 52 54 52 52 54 52 52 54 51 52 54 51 52 56 52 53 55 54 54 56 54 54 56 53 53 55 52 53 55 54 54 56 53 53 55 55 55 57 54 54 56 53 53 55 53 53 55 54 54 56 53 53 55 54 54 56 55 55 57 54 54 56 54 54 56 54 54 56 53 53 55 53 53 55 53 53 55 54 54 56 53 53 55 55 55 57 54 54 56 53 53 55 54 54 56 55 55 57 53 53 55 55 55 57 54 54 56 54 54 56 54 54 56 
255 255 255 255 255 255 255 255 255 255 255 255 255 255 255 255 255 255 255 255 255 255 255 255 255 255 255 255 255 255 255 255 255 255 255 255 255 255 255 255 255 255 255 255 255 255 255 255 255 255 255 255 255 255 255 255 255 255 255 255 255 255 255 255 255 255 255 255 255 255 255 255 255 255 255 255 255 255 255 255 255 255 255 255 255 255 255 255 255 255 255 255 255 255 255 255 255 255 255 255 255 255 255 255 255 255 255 255 255 255 255 255 255 255 255 255 255 255 255 255 255 255 255 255 255 255 230 230 230 102 102 102 51 51 53 51 51 53 52 52 54 52 52 54 52 52 54 51 51 53 52 50 53 52 52 54 52 52 54 52 53 55 52 52 52 53 53 53 52 52 54 50 50 52 52 52 54 52 52 54 52 52 54 51 51 53 52 52 54 53 53 55 52 52 54 53 53 55 53 53 55 52 52 54 53 53 55 53 53 55 53 53 55 53 53 55 53 53 55 54 54 56 54 54 56 54 54 56 54 54 56 53 53 55 53 53 55 54 54 56 55 55 57 54 54 56 54 54 54 54 54 54 55 55 55 56 56 56 54 54 56 54 54 56 54 54 56 55 55 57 54 54 56 55 55 57 55 55 57 54 54 56 54 54 56 53 53 55 52 52 54 53 53 55 55 55 57 55 55 57 
255 255 255 255 255 255 255 255 255 255 255 255 255 255 255 255 255 255 255 255 255 255 255 255 255 255 255 255 255 255 255 255 255 255 255 255 255 255 255 255 255 255 255 255 255 255 255 255 255 255 255 255 255 255 255 255 255 255 255 255 255 255 255 255 255 255 255 255 255 255 255 255 255 255 255 255 255 255 255 255 255 255 255 255 255 255 255 255 255 255 255 255 255 255 255 255 255 255 255 255 255 255 254 254 254 255 255 255 255 255 255 255 255 255 255 255 255 255 255 255 255 255 255 166 166 168 63 63 65 50 50 52 50 50 52 51 51 53 52 52 54 52 52 52 52 52 54 51 51 53 52 52 52 52 52 54 52 52 54 52 52 54 52 52 54 52 52 54 52 52 54 51 51 53 52 52 54 52 52 54 51 51 53 51 51 53 51 51 53 53 53 55 53 53 55 53 53 55 52 52 54 52 52 54 54 54 56 54 54 56 54 54 56 54 54 56 53 53 55 54 54 56 55 55 57 55 55 57 54 54 56 54 54 56 53 53 55 54 54 56 55 55 57 55 55 57 54 54 56 51 55 56 54 54 56 54 54 56 54 54 56 54 54 56 54 54 56 54 54 56 54 54 56 54 54 56 55 55 57 54 54 56 54 54 56 54 54 56 53 53 55 54 54 56 54 54 56 55 55 57 
255 255 255 255 255 255 255 255 255 255 255 255 255 255 255 255 255 255 255 255 255 255 255 255 255 255 255 255 255 255 255 255 255 255 255 255 255 255 255 255 255 255 255 255 255 255 255 255 255 255 255 255 255 255 255 255 255 255 255 255 255 255 255 255 255 255 255 255 255 255 255 255 255 255 255 255 255 255 255 255 255 255 255 255 255 255 255 255 255 255 254 254 254 255 255 255 255 255 255 255 255 255 255 255 255 254 254 254 255 255 255 255 255 255 255 255 255 230 230 230 101 101 103 51 51 53 52 52 54 51 51 53 51 51 53 51 51 53 52 52 54 51 51 53 51 51 53 52 52 54 52 52 54 52 52 54 52 52 54 52 52 54 52 52 54 53 53 55 52 52 54 52 52 54 53 53 55 53 53 55 52 52 54 52 52 54 52 52 54 54 54 56 53 53 55 53 53 55 53 53 55 53 53 55 55 55 57 54 54 56 55 55 57 55 55 57 54 54 56 54 54 56 55 55 57 54 54 56 54 54 56 54 54 56 52 52 54 55 55 57 55 55 57 54 54 56 54 54 56 54 54 56 55 55 57 55 55 57 54 54 56 55 55 57 54 54 56 55 55 57 54 54 56 54 54 56 55 55 57 54 54 56 55 55 57 54 54 56 54 54 56 54 54 56 54 54 56 54 54 56 
255 255 255 255 255 255 255 255 255 255 255 255 255 255 255 255 255 255 255 255 255 255 255 255 255 255 255 255 255 255 255 255 255 255 255 255 255 255 255 255 255 255 255 255 255 255 255 255 255 255 255 255 255 255 255 255 255 255 255 255 255 255 255 255 255 255 255 255 255 255 255 255 255 255 255 254 254 254 255 255 255 255 255 255 255 255 255 255 255 255 255 255 255 255 255 255 255 255 255 255 255 255 255 255 255 255 255 255 255 255 255 255 255 255 166 166 166 64 64 66 51 51 53 51 51 53 51 51 53 53 53 55 51 51 53 52 52 54 51 51 53 51 51 53 51 51 53 51 51 53 52 52 54 52 52 54 53 53 53 52 52 54 53 53 55 52 52 54 52 52 54 53 53 55 52 52 54 52 52 54 52 52 54 53 53 55 53 53 55 54 54 56 53 53 55 53 53 55 53 53 55 53 53 55 54 54 56 54 54 56 55 55 57 55 55 57 54 54 56 55 55 57 54 54 56 53 53 55 53 53 55 53 53 55 53 53 55 54 54 56 55 55 57 54 54 56 53 54 56 54 54 56 55 55 57 55 55 57 55 56 58 56 56 58 54 54 56 53 53 55 54 54 56 54 54 56 54 54 56 55 55 57 56 56 58 55 55 57 54 54 56 55 55 57 54 54 56 54 54 56 
255 255 255 255 255 255 255 255 255 255 255 255 255 255 255 255 255 255 255 255 255 255 255 255 255 255 255 255 255 255 255 255 255 255 255 255 255 255 255 255 255 255 255 255 255 255 255 255 255 255 255 255 255 255 255 255 255 255 255 255 255 255 255 255 255 255 255 255 255 255 255 255 255 255 255 255 255 255 255 255 255 255 255 255 255 255 255 255 255 255 255 255 255 255 255 255 255 255 255 255 255 255 255 255 255 255 255 255 205 205 207 90 90 92 52 52 54 52 52 54 51 51 53 52 52 52 53 53 55 53 53 55 53 53 55 52 52 54 54 54 54 52 52 54 53 53 55 52 52 54 52 52 54 53 53 55 53 53 53 53 53 55 53 53 55 52 52 54 53 53 55 53 53 55 54 54 56 54 54 56 53 53 55 54 54 56 56 56 58 55 55 57 53 53 55 53 53 55 53 53 55 54 54 56 55 55 57 54 54 56 53 53 55 54 54 56 54 54 56 55 55 57 54 54 56 53 53 55 54 54 56 51 51 53 54 54 56 55 55 57 54 54 56 54 54 56 54 54 56 54 54 56 55 55 57 55 55 57 55 55 57 54 54 56 54 54 56 54 54 56 54 54 56 55 55 57 54 54 56 55 55 57 54 54 56 56 56 58 55 55 57 55 55 57 54 54 56 54 54 56 
255 255 255 255 255 255 255 255 255 255 255 255 255 255 255 255 255 255 255 255 255 255 255 255 255 255 255 255 255 255 255 255 255 255 255 255 255 255 255 255 255 255 255 255 255 255 255 255 255 255 255 255 255 255 255 255 255 255 255 255 255 255 255 255 255 255 255 255 255 255 255 255 255 255 255 255 255 255 255 255 255 255 255 255 255 255 255 255 255 255 255 255 255 255 255 255 255 255 255 255 255 255 230 230 230 116 116 116 54 54 56 53 53 55 53 53 55 52 52 54 52 52 54 52 52 54 51 51 51 52 52 54 52 52 54 53 53 53 52 52 54 53 53 55 53 53 55 53 53 55 55 55 57 54 54 56 54 54 56 53 53 53 54 54 56 53 53 55 53 53 55 53 53 55 53 53 55 54 54 56 53 53 55 55 55 57 55 55 57 55 55 57 55 55 57 54 54 56 54 54 56 54 54 56 54 54 56 55 55 57 55 55 57 54 54 56 55 55 57 56 56 58 55 55 57 55 55 57 54 54 56 54 54 56 55 55 57 55 55 57 55 55 57 55 55 57 54 54 56 55 56 58 55 55 57 55 55 57 54 54 56 54 54 56 55 55 57 55 55 57 54 54 56 53 53 55 54 54 56 54 54 56 54 54 56 53 53 55 55 55 57 55 55 57 55 55 57 55 55 57 
255 255 255 255 255 255 255 255 255 255 255 255 255 255 255 255 255 255 255 255 255 255 255 255 255 255 255 255 255 255 255 255 255 255 255 255 255 255 255 255 255 255 255 255 255 255 255 255 255 255 255 255 255 255 255 255 255 255 255 255 255 255 255 255 255 255 255 255 255 255 255 255 255 255 255 255 255 255 255 255 255 255 255 255 255 255 255 255 255 255 255 255 255 255 255 255 242 242 242 153 153 155 65 65 67 52 52 54 52 52 54 52 52 52 53 53 55 52 52 54 52 52 54 52 52 54 52 52 54 51 51 53 53 53 55 53 53 55 53 53 55 53 53 55 53 53 55 53 53 55 54 54 56 54 54 56 53 53 55 54 54 54 55 55 57 53 53 55 53 53 55 53 53 55 54 54 56 54 54 56 54 54 56 54 54 56 55 55 57 56 56 58 54 54 56 54 54 56 54 54 56 53 53 55 54 54 56 55 55 57 55 55 57 54 54 56 54 54 56 55 55 57 55 55 57 53 53 55 55 55 57 57 57 59 57 57 59 55 55 57 55 55 57 55 55 57 55 55 57 54 54 56 51 55 56 55 55 57 55 55 57 55 55 57 55 55 57 54 54 56 54 54 56 54 54 56 55 55 57 54 54 56 54 54 56 54 54 56 55 55 57 55 55 57 56 56 58 55 55 57 
255 255 255 255 255 255 255 255 255 255 255 255 255 255 255 255 255 255 255 255 255 255 255 255 255 255 255 255 255 255 255 255 255 255 255 255 255 255 255 255 255 255 255 255 255 255 255 255 255 255 255 255 255 255 255 255 255 255 255 255 255 255 255 255 255 255 255 255 255 255 255 255 255 255 255 255 255 255 255 255 255 255 255 255 255 255 255 255 255 255 242 242 242 153 153 153 64 64 66 52 52 54 52 52 54 52 52 54 52 52 54 51 51 53 53 53 55 52 52 54 52 52 54 52 52 54 52 52 54 52 52 54 52 52 54 52 52 54 52 52 54 53 53 55 53 53 55 53 53 55 53 53 55 53 53 53 54 54 56 54 54 56 54 54 56 53 53 55 53 53 55 53 53 55 53 53 55 55 55 57 54 54 56 54 54 56 55 55 57 54 54 56 54 54 56 54 54 56 55 55 57 53 53 55 53 53 55 56 56 58 56 56 58 55 55 57 54 54 56 56 56 58 55 55 57 54 54 56 55 55 57 55 55 57 54 54 56 55 55 57 55 55 57 56 56 58 55 55 57 55 55 57 55 55 57 56 56 58 54 54 56 56 56 58 56 56 58 55 55 57 55 55 57 55 55 57 56 56 58 56 56 58 54 54 56 55 55 57 54 54 56 55 55 57 57 57 59 56 56 58 
255 255 255 255 255 255 255 255 255 255 255 255 255 255 255 255 255 255 255 255 255 255 255 255 255 255 255 255 255 255 255 255 255 255 255 255 255 255 255 255 255 255 255 255 255 255 255 255 255 255 255 255 255 255 255 255 255 255 255 255 255 255 255 255 255 255 255 255 255 255 255 255 254 254 254 255 255 255 255 255 255 255 255 255 242 242 242 153 153 153 65 65 65 51 51 51 53 53 55 52 52 54 52 52 54 52 52 54 51 51 53 52 52 54 52 52 54 52 52 54 52 52 54 53 53 55 52 52 54 52 52 52 52 52 52 53 53 55 54 54 56 53 53 55 54 54 56 53 53 55 54 54 56 54 54 54 54 54 56 54 54 56 53 53 55 55 55 57 52 52 54 54 54 56 53 53 55 53 53 55 54 54 56 54 54 56 54 54 56 54 54 56 53 53 55 54 54 56 55 55 57 55 55 57 54 54 56 55 55 57 55 55 57 55 55 57 55 55 57 55 55 57 56 56 58 55 55 57 54 54 56 55 55 57 54 54 56 54 54 56 55 55 57 55 56 58 56 56 58 54 54 56 55 55 57 53 54 56 55 55 57 55 55 57 55 55 57 55 55 57 55 55 57 56 56 58 54 54 56 55 55 57 54 54 56 54 54 56 55 55 57 54 54 56 55 55 57 54 54 56 
255 255 255 254 254 254 254 254 254 255 255 255 255 255 255 255 255 255 255 255 255 255 255 255 255 255 255 255 255 255 255 255 255 255 255 255 255 255 255 255 255 255 255 255 255 255 255 255 255 255 255 255 255 255 255 255 255 255 255 255 255 255 255 255 255 255 255 255 255 255 255 255 255 255 255 255 255 255 204 204 204 140 140 140 65 65 67 52 52 54 53 53 55 53 53 55 53 53 55 53 53 55 53 53 55 53 53 55 53 53 55 52 52 54 52 52 54 52 52 54 52 52 54 52 52 54 52 52 54 52 52 54 53 53 55 53 53 55 54 54 56 54 54 56 54 54 56 54 54 56 54 54 56 53 53 55 54 54 56 55 55 57 54 54 56 54 54 56 54 54 56 53 53 55 53 53 55 54 54 56 54 54 56 54 54 56 54 54 56 54 54 56 55 55 57 55 55 57 55 55 57 55 55 57 54 54 56 55 55 57 55 55 57 55 55 57 55 55 57 55 55 57 56 56 58 56 56 58 57 57 59 55 55 57 55 55 57 55 55 57 54 54 56 55 55 57 56 56 58 56 56 58 55 55 57 56 56 58 55 55 57 55 55 57 55 55 57 55 55 57 55 55 57 56 56 58 55 55 57 55 55 55 54 54 56 55 55 55 54 54 56 55 55 57 55 55 57 55 55 55 
255 255 255 255 255 255 255 255 255 255 255 255 255 255 255 255 255 255 255 255 255 255 255 255 255 255 255 255 255 255 255 255 255 255 255 255 255 255 255 254 254 254 255 255 255 255 255 255 255 255 255 255 255 255 255 255 255 255 255 255 255 255 255 255 255 255 255 255 255 255 255 255 205 205 205 103 103 103 52 52 52 52 52 54 53 53 55 52 52 54 52 52 54 52 52 54 53 53 55 54 54 56 52 52 54 53 53 55 52 52 54 53 53 55 53 53 55 53 53 55 53 53 55 53 53 55 53 53 55 54 54 56 52 52 54 54 54 56 55 55 57 56 56 58 53 53 55 53 53 55 54 54 56 54 54 56 53 54 56 54 54 56 54 54 56 55 55 57 55 55 57 53 53 55 54 54 56 54 54 56 54 54 56 54 54 56 54 54 56 54 54 56 55 55 57 55 55 57 55 55 57 55 55 57 55 55 57 55 55 57 55 55 57 55 55 57 55 55 55 55 55 57 55 55 57 55 55 57 55 55 57 54 54 56 54 54 56 55 55 55 55 55 57 55 55 57 56 56 58 55 55 57 55 55 57 54 54 56 55 55 57 56 56 58 56 56 58 56 56 58 55 55 57 55 55 57 57 57 59 56 56 58 56 56 58 55 55 57 53 53 55 54 54 56 55 55 57 55 55 57 
255 255 255 255 255 255 255 255 255 255 255 255 255 255 255 255 255 255 255 255 255 255 255 255 255 255 255 255 255 255 255 255 255 255 255 255 255 255 255 255 255 255 255 255 255 255 255 255 255 255 255 255 255 255 255 255 255 255 255 255 255 255 255 204 204 206 155 155 157 65 65 67 52 52 54 52 52 54 52 52 54 52 52 54 54 54 56 54 54 56 53 53 55 54 54 56 52 52 54 54 54 56 53 53 55 53 53 55 51 51 53 52 52 54 53 53 55 54 54 56 53 53 55 53 53 55 54 54 56 53 53 55 54 54 56 53 53 55 53 53 55 55 55 57 55 55 57 53 53 55 55 55 57 54 54 56 54 54 56 54 55 57 55 55 57 55 55 57 54 54 56 54 55 57 54 54 56 54 54 56 54 55 57 54 54 56 55 55 57 55 55 57 55 55 57 54 54 56 55 55 57 55 55 57 54 54 56 54 54 56 55 55 57 55 55 57 56 56 56 55 55 57 56 56 56 57 56 61 57 57 59 56 56 58 56 56 56 55 55 55 56 56 58 55 55 57 56 56 58 55 55 57 55 55 57 55 55 57 55 55 57 56 56 58 56 56 58 56 56 58 55 55 55 55 55 57 56 56 58 55 55 57 56 56 58 55 55 57 56 56 58 55 55 57 55 55 57 55 55 55 
255 255 255 255 255 255 255 255 255 255 255 255 255 255 255 255 255 255 255 255 255 255 255 255 255 255 255 255 255 255 255 255 255 255 255 255 255 255 255 255 255 255 255 255 255 255 255 255 254 254 254 255 255 255 229 229 229 154 154 154 103 103 105 51 51 53 52 52 54 51 51 53 52 52 54 53 53 55 52 52 54 54 54 56 53 53 55 54 54 56 53 53 55 52 52 54 53 53 55 53 53 55 53 53 55 53 53 55 53 53 55 52 52 54 52 52 54 53 53 55 54 54 56 53 53 55 53 53 55 54 54 56 54 54 56 54 54 56 54 54 56 54 54 56 54 54 56 54 54 56 55 55 57 55 55 57 55 55 57 54 54 56 55 55 57 55 55 57 55 55 57 56 56 58 55 55 57 53 53 55 55 55 57 53 54 56 55 55 57 53 54 56 54 54 56 54 54 56 55 55 57 56 56 58 55 55 57 54 54 56 56 56 58 56 56 58 56 56 58 55 55 57 54 54 56 56 56 58 56 56 58 56 56 58 55 55 57 56 56 58 55 55 57 56 56 58 56 56 58 56 56 58 56 56 58 56 56 58 55 55 57 55 55 57 55 55 57 54 54 56 55 55 57 56 56 58 56 56 58 55 55 57 55 55 57 57 57 59 57 57 59 55 55 57 55 55 57 56 56 58 
255 255 255 255 255 255 255 255 255 255 255 255 255 255 255 255 255 255 255 255 255 255 255 255 255 255 255 255 255 255 255 255 255 255 255 255 255 255 255 255 255 255 255 255 255 204 204 204 154 154 156 103 103 105 52 52 54 52 52 54 51 51 53 51 51 53 52 52 54 52 52 54 52 52 54 52 52 54 52 52 54 54 54 56 55 55 57 54 54 56 53 53 55 54 54 56 54 54 56 54 54 56 54 54 56 53 53 55 53 53 55 53 53 55 53 53 55 53 53 55 53 53 55 53 53 55 51 51 53 53 53 55 54 54 56 54 54 56 55 55 57 54 54 56 56 56 58 55 55 57 54 54 56 55 55 57 55 55 57 55 55 57 54 54 56 55 55 57 55 55 57 54 55 57 55 55 57 55 55 57 54 55 57 55 55 57 55 55 57 55 55 57 55 55 57 56 56 58 55 55 57 55 55 57 55 55 57 55 55 57 55 55 57 56 56 58 56 56 58 57 57 59 57 57 59 56 56 56 55 55 57 56 56 56 56 56 58 55 55 57 56 56 58 56 56 58 55 55 57 56 56 58 56 56 58 55 55 57 56 56 58 56 56 58 55 55 57 56 56 58 55 55 57 56 56 58 55 55 57 55 55 57 55 55 57 56 56 58 56 56 58 56 56 58 55 55 57 55 55 57 
255 255 255 255 255 255 255 255 255 255 255 255 255 255 255 255 255 255 255 255 255 255 255 255 254 254 254 255 255 255 255 255 255 242 242 242 179 179 179 128 128 130 64 64 66 50 50 52 52 52 54 52 52 54 52 52 54 53 53 55 52 52 54 52 52 54 51 51 53 52 52 54 53 53 55 52 52 54 54 54 56 54 54 56 53 53 55 54 54 56 54 54 56 54 54 56 54 54 56 54 54 56 53 53 55 52 52 54 53 53 55 53 53 55 54 54 56 53 53 55 53 53 55 53 53 55 55 55 57 54 54 56 54 54 56 54 54 56 55 55 57 56 56 58 56 56 58 56 56 58 55 55 57 55 55 57 56 56 58 54 55 57 55 55 57 55 55 57 56 56 58 55 55 57 55 55 57 54 54 56 55 55 57 52 53 55 55 55 57 54 55 57 55 55 57 57 57 59 55 55 57 55 55 57 56 56 58 56 56 58 55 55 57 54 54 56 54 54 56 55 55 57 55 55 57 56 56 58 55 55 57 57 57 59 56 56 58 55 55 57 56 56 58 56 56 58 55 55 57 57 57 59 56 56 58 55 55 57 56 56 58 56 56 58 56 56 58 55 55 57 55 55 57 56 56 58 56 56 58 55 55 55 54 54 56 56 56 58 56 56 58 55 55 57 54 54 56 55 55 57 
255 255 255 255 255 255 255 255 255 255 255 255 255 255 255 255 255 255 242 242 242 217 217 217 166 166 166 128 128 128 77 77 77 53 53 55 52 52 54 52 52 54 51 51 53 52 52 54 53 53 55 53 53 55 53 53 55 52 52 54 52 52 54 53 53 55 53 53 55 52 52 54 52 52 54 53 53 55 53 53 55 53 53 55 54 54 56 53 53 55 53 53 55 53 53 55 55 55 57 54 54 56 53 53 55 53 53 55 55 55 57 54 54 56 55 55 57 54 54 56 53 53 55 54 54 56 54 54 56 55 55 57 54 54 56 55 55 57 55 55 57 55 55 57 56 56 58 56 56 58 57 57 59 54 54 56 54 55 57 55 55 57 55 55 57 55 55 57 55 55 57 54 55 57 55 55 57 55 55 57 56 56 58 56 56 58 55 55 57 55 55 57 55 55 57 55 55 57 55 55 57 55 55 57 56 56 58 57 57 59 57 57 59 55 55 57 55 55 57 56 56 58 56 56 58 56 56 58 57 57 59 57 57 59 56 56 58 55 55 57 56 56 58 56 56 58 56 56 58 56 56 58 55 55 57 56 56 58 56 56 58 56 56 58 56 56 58 56 56 58 56 56 58 56 56 58 56 56 58 55 55 57 55 55 57 56 56 58 56 56 58 55 55 55 54 54 56 54 54 56 
217 217 219 178 178 180 153 153 155 129 129 131 88 88 90 64 64 66 50 50 52 51 51 53 52 52 52 51 51 51 51 51 53 53 53 55 52 52 54 51 51 53 53 53 55 52 52 54 52 52 54 52 52 54 54 54 56 53 53 55 52 52 54 52 52 54 52 52 54 52 52 54 54 54 56 53 53 55 54 54 56 52 52 54 53 53 55 52 52 54 55 55 57 55 55 57 54 54 56 54 54 56 54 54 56 54 54 56 54 54 56 55 55 57 54 54 56 53 53 55 53 53 55 53 53 55 55 55 57 53 53 55 54 54 56 55 55 57 55 55 57 55 55 57 56 56 58 56 56 58 56 56 58 56 56 58 55 55 57 55 55 57 56 56 58 55 55 57 55 55 57 55 55 57 56 56 58 55 55 57 55 55 57 56 56 58 56 56 58 55 55 57 55 55 57 55 55 57 56 56 58 55 55 57 56 56 58 57 57 59 56 56 58 56 56 58 56 56 58 57 57 59 57 57 57 56 56 58 55 55 55 56 56 58 56 56 58 57 57 59 56 56 58 56 56 58 56 56 58 55 55 57 56 56 58 56 56 58 57 57 59 56 56 58 56 56 56 55 55 57 56 56 56 54 54 56 55 55 57 57 57 59 55 55 57 56 56 58 56 56 58 55 55 57 55 55 57 55 55 57 
51 51 53 52 52 54 52 52 54 52 52 54 51 51 53 50 50 52 51 51 53 52 52 54 52 52 54 53 53 55 52 52 54 51 51 53 52 52 54 53 53 55 52 52 54 53 53 55 53 53 55 54 54 56 54 54 56 53 53 55 53 53 55 53 53 55 52 52 54 53 53 55 54 52 55 54 54 56 53 53 55 53 51 54 53 51 54 53 53 55 55 55 57 55 53 56 53 53 55 53 53 55 54 54 56 55 55 57 56 56 58 55 55 57 54 54 56 55 55 57 55 55 57 54 54 56 54 54 56 55 55 57 54 54 56 55 55 57 54 54 56 55 55 57 56 56 58 56 56 58 56 56 58 56 56 58 55 55 57 55 55 57 57 57 59 56 56 58 57 57 59 56 56 58 55 55 57 55 55 57 57 57 59 55 55 57 57 57 59 54 54 56 55 55 55 55 55 57 56 56 58 56 56 58 55 55 57 56 56 58 56 56 58 56 56 58 57 57 59 57 57 59 56 56 58 56 56 58 56 56 58 56 56 58 56 56 58 56 56 58 56 56 58 55 56 58 57 57 59 56 57 59 56 56 58 56 56 58 56 56 56 56 56 56 56 57 59 56 56 58 57 57 59 56 56 58 57 57 59 56 56 58 56 56 58 56 56 58 55 55 57 56 56 58 55 55 57 56 56 58 
52 52 54 52 52 54 51 51 53 52 52 54 52 52 54 52 52 54 52 52 54 52 52 54 52 52 54 52 52 54 53 53 55 52 52 54 52 52 54 53 53 55 52 52 54 53 53 55 52 52 54 52 52 54 54 54 56 53 53 55 53 53 55 54 54 56 53 53 55 56 55 60 54 54 56 55 55 57 53 53 55 53 53 55 53 53 55 54 54 56 55 55 57 54 54 56 54 54 56 54 54 56 54 54 56 54 54 56 53 54 56 54 55 57 55 56 58 54 55 57 54 54 56 54 54 56 55 55 57 56 56 58 55 55 57 55 55 57 55 55 57 55 55 57 56 56 58 55 55 57 57 57 59 55 55 57 56 56 58 56 56 58 57 57 59 56 56 58 56 56 58 55 55 57 56 56 58 56 56 58 56 56 58 56 56 58 54 54 56 57 57 59 56 56 58 56 56 56 56 56 58 56 56 58 57 57 57 56 56 58 56 56 58 57 57 59 55 55 57 56 56 58 57 57 59 57 57 59 56 56 58 56 56 58 56 56 58 56 56 58 56 56 56 55 55 55 57 57 59 58 58 60 56 56 58 56 56 58 56 56 58 56 56 58 57 57 59 54 54 56 56 56 58 57 57 59 56 56 58 55 55 57 55 55 57 56 56 58 55 55 57 55 55 57 55 55 57 56 56 58 
52 52 54 53 53 55 51 51 53 51 51 53 52 52 54 52 52 54 52 52 54 53 53 55 53 53 55 53 53 55 52 52 54 52 52 54 53 53 55 53 53 55 53 53 55 53 53 55 53 53 55 53 53 55 53 53 55 54 54 56 54 54 54 53 53 53 53 53 53 54 54 54 55 55 57 54 54 56 54 54 56 54 54 56 54 54 56 54 54 56 55 55 57 55 55 57 54 54 56 55 55 57 54 54 56 54 54 56 54 54 56 56 56 58 55 55 57 55 55 57 54 54 56 55 55 57 55 55 57 55 55 57 56 56 58 55 55 57 56 56 58 55 55 57 55 55 57 56 56 58 56 56 58 56 56 58 56 56 58 56 56 58 56 56 58 56 56 58 57 57 59 56 56 58 56 56 58 55 55 57 56 56 58 56 56 58 56 56 58 56 56 58 56 56 58 56 56 58 56 56 56 56 56 58 56 56 58 56 56 56 56 56 58 56 56 58 57 57 59 57 57 59 57 57 57 57 57 59 57 57 59 57 57 57 57 57 59 56 56 58 56 56 58 56 56 58 56 56 58 57 57 59 56 56 58 55 55 57 56 56 58 57 57 59 55 55 57 55 55 57 55 55 57 56 56 58 56 56 58 57 57 59 56 56 58 56 56 58 55 55 57 56 56 58 55 55 57 55 55 57 
52 52 54 51 51 53 51 51 53 51 51 53 52 52 54 52 52 54 51 51 53 52 52 54 53 53 55 53 53 55 53 53 55 52 52 54 53 53 55 53 53 55 53 53 55 54 54 56 54 54 56 54 54 56 54 54 56 54 54 56 54 54 56 54 54 56 53 53 55 54 54 56 54 54 56 54 54 56 54 54 56 55 55 57 54 54 56 54 54 56 55 55 57 54 54 56 55 55 57 56 56 58 55 55 57 55 55 57 56 56 58 55 55 57 57 57 59 55 55 57 56 56 58 55 55 57 56 56 58 56 56 58 56 56 58 56 56 58 55 55 57 56 56 58 56 56 58 55 55 57 57 57 59 56 56 58 56 56 58 56 56 58 56 56 58 56 56 58 57 57 59 56 56 58 56 56 58 56 56 58 56 56 58 57 57 59 57 57 59 56 56 58 56 56 58 56 56 58 57 57 59 55 55 57 56 56 58 56 56 58 57 57 57 56 56 58 57 57 59 56 56 56 56 56 58 56 56 58 56 56 58 56 56 58 56 56 56 57 57 59 56 56 58 56 56 58 56 57 59 56 56 58 56 56 58 55 55 57 56 56 58 56 56 58 55 56 58 55 55 57 56 56 58 56 56 58 56 56 58 57 57 59 57 57 59 57 57 59 56 56 58 56 56 58 56 56 58 55 55 57 
52 52 54 52 52 54 52 52 54 52 52 54 52 52 54 52 52 54 53 53 55 52 52 54 52 52 54 52 52 54 53 53 55 53 53 55 53 53 55 54 54 56 54 54 56 54 54 56 53 53 55 54 54 56 54 54 56 54 54 56 54 54 56 53 53 55 53 53 55 54 54 56 54 54 56 55 55 57 54 54 56 55 55 57 54 54 56 54 54 56 56 56 58 54 54 56 55 55 57 55 55 57 55 55 57 55 55 57 55 55 57 56 56 58 55 55 57 55 55 57 55 55 57 55 55 57 55 55 57 56 56 58 56 56 58 55 55 57 55 55 57 55 55 57 55 55 57 56 56 58 55 55 57 56 56 58 56 56 58 57 57 59 55 55 57 56 56 58 57 57 59 57 57 59 57 57 59 58 58 60 56 56 58 57 57 59 57 57 59 56 56 58 55 55 57 56 56 58 56 56 58 56 56 58 56 56 58 57 57 59 56 56 58 57 57 57 57 57 59 55 55 57 55 55 55 55 55 57 56 56 58 57 57 57 55 55 57 56 56 58 56 56 58 56 56 58 55 56 58 57 57 59 56 56 58 54 54 56 56 56 58 56 56 58 54 55 57 56 56 58 56 56 58 56 56 58 57 57 59 57 57 59 56 56 58 57 57 59 56 56 58 56 56 58 56 56 58 55 55 57 
51 51 53 52 52 54 53 53 55 53 53 55 52 52 54 53 53 55 53 53 55 54 54 56 53 53 55 53 53 55 53 53 55 53 53 55 54 54 56 54 54 56 55 55 57 55 55 57 55 55 57 54 54 56 53 53 55 54 54 56 54 54 56 54 54 56 55 55 57 55 55 57 55 55 57 55 55 57 55 55 57 54 54 56 55 55 57 55 55 57 55 55 57 56 56 58 56 56 58 56 56 58 56 56 58 55 55 57 55 55 57 56 56 58 56 56 58 56 56 58 56 56 58 55 55 57 56 56 58 57 57 59 55 55 57 56 56 58 56 56 58 55 55 57 55 55 57 56 56 58 56 56 58 57 57 59 55 55 57 55 55 57 56 56 58 57 57 59 56 56 58 56 56 58 56 56 58 57 57 59 57 57 59 57 57 59 57 57 59 56 56 58 56 56 58 56 56 58 56 56 58 56 56 58 56 56 56 57 57 59 57 57 59 58 58 60 56 56 58 56 56 56 56 56 58 56 56 58 56 56 58 57 57 59 57 57 57 57 57 59 57 57 59 56 56 58 57 57 59 57 57 59 56 56 58 55 55 57 55 55 57 57 57 59 56 56 58 57 57 59 56 56 58 57 57 59 56 56 58 57 57 59 56 56 58 55 55 57 55 55 57 56 56 58 56 56 58 54 54 56 
52 52 54 53 53 55 52 52 54 52 52 54 53 53 55 54 54 56 53 53 55 54 54 56 54 54 56 54 54 56 54 54 56 54 54 56 54 54 56 54 54 56 54 54 56 56 56 58 54 54 56 55 55 57 54 54 56 54 54 56 54 54 56 54 54 56 54 54 56 54 54 56 54 54 56 55 55 57 54 54 56 55 55 57 54 54 56 54 54 56 55 55 57 56 56 58 55 56 58 54 55 57 55 56 58 55 56 58 55 55 57 57 57 59 56 56 58 55 55 57 56 56 58 56 56 58 55 55 57 56 56 58 55 55 57 55 55 57 56 56 58 56 56 58 56 56 58 56 56 58 56 56 58 57 57 59 56 56 58 56 56 58 56 56 58 56 56 58 56 56 58 56 56 58 56 56 58 56 56 58 57 57 59 57 57 59 56 56 58 56 56 58 56 56 58 56 56 58 55 55 57 55 55 57 55 55 57 57 57 59 58 58 60 57 57 59 56 56 58 58 58 60 57 57 59 57 57 59 57 57 59 56 56 58 57 57 59 56 56 58 57 57 59 58 58 60 59 59 61 57 57 59 58 58 60 56 56 58 57 57 57 56 56 56 55 55 57 56 56 58 58 58 60 57 57 59 56 56 58 56 56 58 56 56 58 55 55 57 55 55 57 55 55 57 56 56 58 55 55 57 
54 54 56 53 53 55 53 53 55 52 52 54 54 54 56 55 55 57 54 54 56 54 54 56 54 54 56 53 53 55 53 53 55 54 54 56 54 54 56 54 54 56 54 54 56 54 54 56 54 54 56 54 54 56 53 53 55 55 55 57 55 55 57 54 54 56 55 55 57 54 54 56 54 54 56 55 55 57 55 55 57 56 56 58 55 55 57 55 55 57 56 56 58 55 55 57 56 56 58 56 56 58 55 55 57 55 55 57 56 56 58 55 55 57 56 56 58 55 55 57 57 57 59 56 56 58 56 56 58 56 56 58 56 56 58 56 56 58 55 55 57 56 56 58 56 56 58 56 56 58 56 56 58 58 58 60 57 57 59 56 56 58 57 57 59 56 56 58 57 57 59 57 57 59 56 56 58 56 56 58 57 57 59 58 58 60 57 57 59 56 56 58 56 56 58 56 56 56 56 56 58 55 55 57 57 57 59 57 57 59 57 57 59 56 56 58 56 56 58 56 56 58 57 57 59 57 57 59 57 57 59 57 57 59 57 57 59 57 57 59 58 58 58 56 58 57 57 57 59 56 57 59 57 57 59 57 57 59 56 56 58 55 55 57 54 55 57 57 57 59 57 57 59 56 56 58 57 57 59 56 56 58 56 56 58 56 56 58 55 55 57 56 56 58 56 56 58 55 55 57 
54 54 56 54 54 56 54 54 56 53 53 55 53 53 55 54 54 56 54 54 56 53 53 55 54 54 56 55 55 57 55 55 57 55 55 57 54 54 56 55 55 57 56 56 58 55 55 57 53 53 55 54 54 56 55 55 57 55 55 57 55 55 57 55 55 57 55 55 57 54 54 56 54 54 56 54 54 56 54 54 56 55 55 57 55 55 57 56 56 58 56 56 58 56 56 58 56 56 58 57 57 59 56 56 58 56 56 58 56 56 58 56 56 58 57 57 59 56 56 58 57 57 59 56 56 58 56 56 58 56 56 58 57 57 59 57 57 59 56 56 58 55 55 57 56 56 58 57 57 59 56 56 58 57 57 59 57 57 59 56 56 58 56 56 58 57 57 59 56 56 58 57 57 59 57 57 59 57 57 59 57 57 59 57 57 59 57 57 59 56 56 58 56 56 58 56 56 58 56 56 58 58 58 60 57 57 59 58 58 60 56 56 58 57 57 59 57 57 59 57 57 59 56 56 58 56 56 58 56 56 58 56 56 58 56 56 58 56 56 58 56 56 58 57 57 59 56 56 58 56 56 58 56 56 58 57 57 59 56 56 58 55 55 57 55 56 58 56 56 58 55 55 57 56 56 58 56 57 59 56 56 58 57 57 59 57 57 59 56 56 58 57 57 59 56 56 58 55 55 57 
55 55 57 53 53 55 54 54 56 52 52 54 53 53 55 53 53 55 53 53 55 54 54 56 54 54 56 54 54 56 54 54 56 54 54 56 55 55 57 55 55 57 55 55 57 56 56 58 55 55 57 55 55 57 54 54 56 55 55 57 56 56 58 55 55 57 55 55 57 55 55 57 55 55 57 56 56 58 54 54 56 55 55 57 55 55 57 55 55 57 56 56 58 57 57 59 56 56 58 57 58 60 56 56 58 56 54 57 55 55 57 57 57 59 56 56 58 56 57 59 56 56 56 56 56 56 57 57 57 57 57 57 55 55 55 57 57 57 57 57 57 57 57 57 57 57 57 56 56 56 56 56 56 57 57 57 57 57 59 56 56 58 56 56 58 56 56 58 56 56 58 56 56 58 56 56 58 56 56 58 56 56 58 56 56 58 57 57 59 56 56 58 56 56 58 56 56 58 57 57 59 58 58 58 58 58 58 57 57 59 56 56 58 56 56 58 56 56 58 56 56 58 56 56 58 55 55 57 57 57 59 57 57 59 56 56 58 57 57 59 57 57 59 57 57 59 56 56 58 57 57 59 55 55 57 56 56 58 56 56 58 56 56 58 55 55 57 57 57 59 56 56 58 56 56 58 56 56 58 55 56 58 56 56 58 56 56 58 55 55 57 56 56 58 56 56 58 55 55 57 
53 53 55 54 54 56 54 54 56 54 54 56 55 55 57 54 54 56 54 54 56 55 55 57 54 54 56 54 54 56 55 55 57 55 55 57 56 56 56 56 56 58 55 55 57 55 55 57 56 56 58 56 56 58 56 56 58 56 56 58 56 56 58 55 55 57 54 54 56 55 55 57 55 55 57 56 56 58 56 56 58 56 56 58 56 56 58 55 55 57 55 55 57 56 56 58 56 56 58 56 56 58 54 55 57 56 56 58 55 55 57 56 56 58 55 56 58 56 56 58 56 56 58 57 57 59 57 57 57 56 56 58 57 57 57 57 57 59 56 56 58 57 57 59 57 57 59 57 57 59 57 57 59 57 57 59 57 57 59 57 57 59 57 57 59 57 57 59 57 57 59 57 57 59 58 58 60 58 58 60 56 56 58 57 57 59 56 56 58 57 57 59 57 57 59 57 57 59 57 57 59 58 58 60 57 57 59 58 58 60 56 56 58 56 56 58 56 56 58 57 57 59 57 57 59 57 57 59 57 57 59 57 57 59 57 57 59 56 56 58 57 57 59 57 57 59 58 58 60 57 57 59 57 57 59 58 58 60 57 57 59 56 56 58 57 57 59 57 57 59 55 55 57 56 56 58 56 56 58 55 56 58 56 56 58 55 55 57 54 54 56 55 55 57 56 56 58 56 56 58 
53 53 55 54 54 56 55 55 57 54 54 56 53 53 55 54 54 56 56 56 58 55 55 57 55 55 57 55 55 57 55 55 57 54 54 56 55 55 55 56 56 58 56 56 58 55 55 57 56 56 58 56 56 58 56 56 58 56 56 58 56 56 58 55 55 57 55 55 57 56 56 58 55 55 57 55 55 57 56 56 58 56 56 58 56 56 58 56 56 58 56 56 58 57 57 59 55 55 57 55 56 58 56 56 58 56 56 58 56 56 58 57 57 59 57 57 59 56 57 59 56 56 58 57 57 59 57 57 59 55 55 57 56 56 58 56 56 58 58 58 60 57 57 59 57 57 59 57 57 59 56 56 58 57 57 59 57 57 59 56 56 58 56 56 58 56 56 58 57 57 59 57 57 59 57 57 59 57 57 59 58 58 60 56 56 58 56 56 58 57 57 59 56 56 56 57 57 59 57 57 59 57 57 59 57 57 59 57 57 59 57 57 59 57 57 57 57 57 59 56 56 58 57 57 59 57 57 59 58 58 60 56 56 58 57 57 59 57 57 59 56 56 58 56 56 58 58 58 60 56 56 58 58 58 60 57 57 59 57 57 59 56 56 58 57 57 59 56 56 58 56 56 58 58 58 60 57 57 59 56 56 58 56 56 58 56 56 58 55 55 57 55 55 57 55 55 57 55 55 57 
53 53 55 54 54 56 54 54 56 55 55 57 55 55 57 54 54 56 55 55 57 56 56 58 54 54 56 55 55 57 54 54 56 55 55 57 55 55 55 56 56 58 55 55 57 55 55 57 56 56 58 56 56 58 57 57 59 55 55 57 56 56 58 57 57 59 55 55 57 56 56 58 55 55 57 54 54 56 56 56 58 56 56 58 55 55 57 57 57 59 56 56 58 57 57 59 56 56 58 57 57 59 56 56 58 56 56 58 54 55 57 56 56 58 56 56 58 57 57 59 56 56 56 57 57 57 56 56 58 57 57 57 57 57 59 56 56 56 56 56 56 57 57 57 57 57 59 57 57 59 57 57 59 57 57 59 57 57 59 56 56 58 57 57 59 57 57 59 57 57 59 58 58 60 58 58 60 57 57 59 55 55 57 57 57 59 56 56 58 57 57 59 56 56 58 56 56 58 56 56 58 57 57 57 57 57 57 56 56 58 56 56 58 56 56 58 56 56 58 56 56 58 56 56 58 57 57 59 56 56 58 57 57 59 56 56 58 56 56 58 57 57 59 58 58 60 57 57 59 57 57 59 58 58 60 57 57 59 57 57 59 55 55 57 56 56 58 56 56 58 56 56 58 57 57 59 56 56 58 55 55 57 55 55 57 56 56 58 56 56 58 55 55 57 54 54 56 55 55 57 
54 54 56 54 54 56 56 56 58 54 54 56 54 54 56 55 55 57 55 55 57 55 55 57 55 55 57 55 55 57 55 55 57 54 54 56 55 55 57 54 54 56 56 56 58 56 56 58 56 56 58 56 56 58 56 56 58 56 56 58 56 56 58 56 56 58 55 55 57 56 56 58 56 56 58 55 55 57 56 56 58 55 55 57 54 54 56 55 55 57 56 56 58 57 57 59 56 57 59 56 56 58 56 56 58 56 56 58 56 57 59 57 57 59 57 57 59 57 57 59 56 56 58 57 57 57 57 57 59 56 56 56 56 56 58 56 56 56 56 56 58 57 57 59 57 57 59 57 57 59 58 58 60 57 57 59 56 56 58 56 56 58 56 56 58 57 57 59 57 57 59 58 58 60 59 59 61 57 57 59 56 56 58 56 56 58 58 58 60 56 56 58 56 56 58 56 56 58 57 57 59 57 57 59 56 56 58 56 56 58 56 56 58 57 57 59 57 57 59 57 57 59 56 56 58 56 56 58 56 56 58 57 57 59 57 57 59 57 57 59 57 57 59 57 57 59 55 55 57 57 57 59 58 58 60 58 58 60 57 57 59 56 56 58 55 55 57 56 56 58 55 56 58 56 56 58 55 55 57 55 55 57 55 55 57 56 56 58 55 55 57 56 56 58 55 55 57 56 56 58 
53 53 55 55 55 57 54 54 56 55 55 57 54 54 56 56 56 58 56 56 58 56 56 58 55 55 55 55 55 57 55 55 57 56 56 58 55 55 57 56 56 58 56 56 56 55 55 57 58 58 60 56 56 58 56 56 58 56 56 58 55 55 57 56 56 58 55 55 57 55 55 57 55 55 57 56 56 58 56 56 58 56 56 58 56 56 58 55 55 57 58 58 60 56 56 58 56 56 58 56 56 58 56 56 58 56 56 58 55 56 58 58 58 60 56 56 58 56 56 58 57 57 59 56 56 58 56 56 58 56 56 58 57 57 59 57 57 59 57 57 59 56 56 58 58 58 60 56 56 58 57 57 59 58 58 60 56 56 58 56 56 58 56 56 58 57 57 59 57 57 59 57 57 59 56 56 58 57 57 59 57 57 59 57 57 59 56 56 58 57 57 59 57 57 57 58 58 60 57 57 59 56 56 58 56 56 58 56 56 58 57 57 59 56 56 56 56 56 58 55 55 57 55 55 57 55 55 57 58 58 60 57 57 59 56 56 58 57 57 59 57 57 59 57 57 59 56 56 58 56 56 58 56 56 58 58 58 60 57 57 59 57 57 59 57 57 59 56 56 58 55 56 58 56 56 58 56 56 58 56 56 58 56 56 58 55 55 57 54 54 56 55 55 57 56 56 58 56 56 58 
53 53 55 53 53 55 52 52 54 54 54 56 54 54 56 54 54 56 55 55 57 54 54 56 54 54 54 54 54 56 55 55 57 55 55 57 55 55 57 56 56 58 56 56 56 56 56 58 56 56 58 56 56 58 56 56 58 56 56 58 56 56 58 55 55 57 56 56 58 56 56 58 56 56 58 56 56 58 56 56 58 56 56 58 56 56 58 56 56 58 56 56 58 56 56 58 56 56 58 57 57 59 57 57 59 57 57 59 56 56 58 56 56 58 56 56 58 57 57 59 57 57 57 58 58 60 56 56 56 56 56 58 56 56 56 57 57 59 58 58 58 57 57 59 57 57 59 57 57 59 57 57 59 56 56 58 56 56 56 56 56 56 56 56 56 56 56 56 56 56 58 56 56 58 56 56 58 56 56 58 56 56 58 56 56 58 57 57 59 57 57 59 56 56 58 57 57 59 57 57 59 57 57 59 56 56 58 56 56 58 56 56 58 56 56 58 56 56 58 57 57 59 57 57 59 56 56 58 56 56 58 57 57 59 57 57 59 57 57 59 57 57 59 56 56 58 56 56 58 57 57 59 56 56 58 57 57 59 57 57 59 56 56 58 57 57 59 56 56 58 56 56 58 54 55 57 57 57 59 56 56 58 56 56 58 55 56 58 55 55 57 55 55 57 56 56 58 56 56 58 
53 53 55 53 53 55 53 53 55 54 54 56 54 54 56 55 55 57 55 55 57 54 54 56 55 55 57 54 54 56 55 55 57 56 56 58 54 54 56 55 55 57 56 56 58 56 56 58 56 56 58 56 56 58 57 57 59 57 57 59 57 57 59 56 56 58 56 56 58 56 56 58 55 55 57 56 56 58 56 56 58 56 56 58 56 56 58 56 56 58 56 56 58 57 57 59 58 58 60 56 57 59 57 57 59 57 57 59 55 56 58 56 56 58 58 58 60 55 56 58 56 57 59 56 56 58 54 58 59 56 56 58 57 57 59 53 57 58 56 56 58 56 57 59 57 57 59 57 57 59 57 57 59 56 56 58 57 57 59 57 57 59 56 56 58 57 57 59 57 57 59 57 57 59 56 56 58 56 56 58 56 56 58 56 56 58 57 57 59 57 57 59 56 56 58 57 57 59 57 57 59 57 57 59 56 56 58 56 56 58 57 57 59 57 57 59 56 56 58 56 56 58 56 56 58 55 55 57 56 56 58 57 57 59 56 56 58 56 56 58 56 56 58 55 56 58 56 56 58 56 56 58 56 56 58 57 57 59 57 57 59 56 56 58 56 56 58 56 56 58 56 56 58 57 57 59 57 57 59 56 56 58 56 56 58 56 56 58 55 55 57 56 56 58 55 55 57 56 56 58 
54 54 56 54 54 56 54 54 56 55 55 57 55 55 57 56 56 58 55 55 57 55 55 57 56 56 58 55 55 57 55 55 57 56 56 58 55 55 57 57 57 59 57 57 59 56 56 58 56 56 58 57 57 59 56 56 58 57 57 59 57 57 59 56 56 58 56 56 58 55 55 57 56 56 58 56 56 58 56 56 58 55 55 57 55 55 57 57 57 59 56 56 58 57 57 59 57 58 60 56 56 58 57 57 59 56 57 59 57 57 59 56 56 58 56 57 59 57 57 59 57 57 59 56 56 58 57 57 59 57 57 59 56 56 58 57 57 59 56 56 58 57 57 59 56 56 58 57 57 59 57 57 59 57 57 59 56 56 58 58 58 60 57 57 59 57 57 59 57 57 59 58 58 60 58 58 60 57 57 59 57 57 59 57 57 59 58 58 60 56 56 58 55 55 57 56 56 58 56 56 58 57 57 59 57 57 59 57 57 59 57 57 59 58 58 60 57 57 59 57 57 59 57 57 59 55 55 57 56 56 58 57 57 59 56 56 58 56 56 58 56 56 58 56 56 58 56 56 58 55 55 57 56 56 58 57 57 59 56 56 58 55 56 58 56 56 58 55 55 57 56 56 58 56 56 58 55 55 57 55 55 57 55 55 57 56 56 58 56 56 58 56 56 58 55 55 57 56 56 58 
54 54 56 53 53 55 54 54 56 54 54 56 56 56 58 55 55 57 55 55 57 56 56 58 54 54 56 55 55 57 56 56 58 55 55 57 55 55 57 56 56 58 57 57 59 56 56 58 56 56 58 57 57 59 58 58 60 57 57 59 57 57 59 56 56 58 57 57 59 56 56 58 57 57 59 57 57 59 55 55 57 57 57 59 56 56 58 55 55 57 57 57 59 56 56 58 58 58 60 56 56 58 57 57 59 57 57 59 56 56 58 56 56 58 55 56 58 57 57 59 58 58 60 56 56 58 58 58 60 56 56 58 56 56 58 57 57 59 57 57 59 57 57 59 57 57 59 57 57 59 57 57 59 57 57 59 56 56 58 58 58 60 57 57 59 57 57 59 57 57 59 58 58 60 57 57 59 56 56 58 56 56 58 56 56 58 56 56 58 58 58 60 56 56 58 56 56 58 56 56 58 57 57 59 57 57 59 55 55 57 58 58 60 55 55 57 57 57 59 57 57 59 57 57 59 56 56 58 55 55 57 57 57 59 56 56 58 56 56 58 56 56 58 56 56 58 56 56 58 55 55 57 55 55 57 56 56 58 57 57 59 54 55 57 56 56 58 55 55 57 55 55 57 55 55 57 55 55 57 56 56 58 56 56 58 56 56 58 55 55 57 55 55 57 55 55 57 56 56 58 
53 53 55 53 53 55 53 53 55 54 54 56 53 53 55 55 55 57 54 54 56 55 55 57 56 56 58 55 55 57 56 56 58 55 55 57 56 56 58 56 56 58 57 57 59 57 57 59 55 55 57 57 57 59 56 56 58 57 57 59 56 56 58 55 55 57 55 55 57 55 55 57 55 55 57 57 57 59 56 56 58 56 56 58 56 56 58 56 56 58 56 56 58 54 54 56 55 55 57 56 56 58 56 56 58 55 55 57 57 57 59 56 56 58 56 56 58 57 57 59 57 57 59 56 56 58 56 56 58 57 57 59 56 56 58 56 56 58 56 56 58 57 57 59 58 58 60 58 58 60 58 58 60 58 58 60 58 58 60 59 59 61 58 58 60 56 56 58 56 56 58 56 56 58 57 57 59 57 57 59 56 56 58 57 57 59 57 57 59 57 57 59 57 57 59 56 56 58 57 57 59 57 57 59 57 57 59 56 56 58 56 56 58 56 56 58 57 57 59 56 56 58 57 57 59 57 57 59 57 57 59 56 56 58 56 56 58 56 56 58 56 56 58 56 57 59 57 57 59 56 56 58 57 57 59 56 56 58 56 56 58 55 55 57 56 56 58 56 56 58 55 55 57 55 55 57 57 57 59 56 56 58 56 56 58 56 56 58 56 56 58 56 56 58 56 56 58 55 55 57 
53 53 55 53 53 55 53 53 55 54 54 56 54 54 56 55 55 57 55 55 57 55 55 57 56 56 58 55 55 57 55 55 57 55 55 57 55 55 57 55 55 57 56 56 58 55 55 57 56 56 58 56 56 58 56 56 58 57 57 59 55 55 57 56 56 58 56 56 58 56 56 58 55 55 57 56 56 58 56 56 58 56 56 58 56 56 58 56 56 58 56 56 58 57 57 59 57 57 59 57 57 59 56 56 58 57 57 59 56 56 58 58 58 60 57 57 59 56 56 58 56 56 58 57 57 59 57 57 59 56 56 58 56 56 58 56 56 58 57 57 59 57 57 59 57 57 59 57 57 59 56 56 58 56 56 58 57 57 59 58 58 60 57 57 59 56 56 58 56 56 58 56 56 58 57 57 59 57 57 59 57 57 59 56 56 58 56 56 58 57 57 59 57 57 59 56 56 58 56 56 58 57 57 59 56 56 58 55 55 57 57 57 59 55 55 57 57 57 59 57 57 59 56 56 58 56 56 58 56 56 58 57 57 59 56 56 58 57 57 59 57 57 59 55 56 58 56 56 58 55 55 57 56 56 58 55 55 57 55 55 57 56 56 58 55 55 57 55 55 57 56 56 58 56 56 58 55 55 57 55 55 57 56 56 58 55 55 57 54 54 56 55 55 57 55 55 57 55 55 57 
54 54 56 55 55 57 54 54 56 55 55 57 55 55 57 54 54 56 55 55 57 55 55 57 55 55 57 55 55 57 55 55 57 55 55 57 55 55 57 55 55 57 56 56 58 56 56 58 56 56 58 56 56 58 55 55 57 57 57 59 56 56 58 56 56 58 56 56 58 56 56 58 57 57 59 56 56 58 55 55 57 55 55 57 55 55 57 55 55 57 56 56 58 56 56 58 56 56 58 56 56 58 56 56 58 57 57 59 56 56 58 57 57 59 58 58 60 57 57 59 57 57 59 57 57 59 57 57 59 56 56 58 56 56 58 57 57 59 57 57 59 58 58 60 57 57 59 57 57 59 57 57 59 57 57 59 57 57 59 57 57 59 57 57 59 56 56 58 57 57 59 57 57 59 57 57 59 57 57 59 57 57 59 57 57 59 57 57 59 56 56 58 57 57 57 57 57 57 57 57 59 57 57 59 57 57 59 56 56 58 56 56 58 56 56 58 56 56 58 56 56 58 57 57 59 57 57 59 57 57 59 57 57 59 57 57 59 56 56 58 56 56 58 55 55 57 55 55 57 54 54 56 55 55 57 56 56 58 56 56 58 54 55 57 55 55 57 55 55 57 56 56 58 55 55 57 56 56 58 55 55 57 56 56 58 56 56 58 55 55 57 55 55 57 55 55 57 56 56 58 
55 55 57 56 56 58 56 56 58 56 56 58 56 56 58 56 56 58 56 56 58 56 56 58 55 55 57 56 56 58 56 56 58 55 55 57 55 55 57 56 56 58 56 56 58 55 55 57 57 57 59 56 56 58 56 56 58 56 56 58 55 55 57 56 56 58 56 56 58 55 55 57 56 56 58 55 55 57 55 55 57 55 55 57 56 56 58 57 57 59 55 55 57 57 57 59 56 56 58 57 57 59 57 57 59 57 57 59 55 55 57 56 56 58 56 56 58 57 57 59 56 56 58 57 57 59 56 56 58 57 57 59 55 55 57 57 57 59 57 57 59 57 57 59 57 57 59 58 58 60 57 57 59 56 56 58 56 56 58 57 57 59 57 57 59 56 56 58 56 56 58 56 56 58 56 56 58 56 56 58 56 56 58 57 57 59 57 57 59 57 57 59 57 57 59 56 56 58 56 56 58 57 57 59 56 56 58 57 57 59 56 56 56 57 57 57 56 56 58 56 56 58 56 56 58 57 57 59 57 57 59 56 56 58 56 56 58 57 57 59 55 55 57 56 56 58 56 56 58 55 55 57 56 56 58 56 56 58 56 56 58 54 55 57 55 55 57 55 55 57 55 55 57 54 54 56 55 55 57 55 55 57 56 56 58 55 55 57 55 55 57 55 55 57 55 55 57 55 55 57 
55 55 57 55 55 57 55 55 57 56 56 58 55 55 57 55 55 57 55 55 57 55 55 57 55 55 57 56 56 58 55 55 57 56 56 58 56 56 58 56 56 58 56 56 58 56 56 58 54 54 56 55 55 57 57 57 59 56 56 58 56 56 58 55 55 57 57 57 59 56 56 58 55 55 57 57 57 59 55 55 57 56 56 58 57 57 59 55 55 57 55 55 57 56 56 58 56 56 58 57 57 59 56 56 58 57 57 59 55 55 57 57 57 59 56 56 58 57 57 59 56 56 58 56 56 58 56 56 58 56 56 58 56 56 58 56 56 58 58 58 60 58 58 60 57 57 59 59 59 61 57 57 59 57 57 59 57 57 59 58 58 60 57 57 59 56 56 58 57 57 59 56 56 58 56 56 58 56 56 58 57 57 59 57 57 59 56 56 58 57 57 59 57 57 57 57 57 57 56 56 58 56 56 58 56 56 58 58 58 60 57 57 59 57 57 59 56 56 58 56 56 58 57 57 59 57 57 59 56 56 58 56 56 58 57 57 59 56 56 58 56 56 58 55 56 58 56 56 58 56 56 58 55 55 57 54 54 56 55 55 57 56 56 58 56 56 58 55 55 57 56 56 58 55 55 57 56 56 58 56 56 58 57 57 59 57 57 59 56 56 58 55 55 57 55 55 57 55 55 57 
55 55 57 55 55 57 55 55 57 55 55 57 55 55 57 55 55 57 55 55 57 55 55 57 55 55 57 55 55 57 56 56 58 55 55 57 55 55 57 56 56 58 56 56 58 58 58 60 56 56 58 55 55 57 56 56 58 58 56 59 56 56 58 56 56 58 57 57 59 57 55 58 56 56 58 57 55 58 56 56 58 57 55 58 56 56 58 57 55 58 56 56 58 57 55 58 57 57 59 56 56 58 57 57 59 57 57 59 57 57 59 56 56 58 57 57 59 57 57 59 58 58 60 57 57 59 56 56 58 56 56 58 54 54 56 56 56 58 57 57 59 57 57 59 58 58 60 57 57 59 56 56 56 58 58 60 57 57 59 57 57 57 55 55 57 57 57 59 57 57 59 56 56 58 54 54 56 56 56 58 56 56 58 56 56 58 57 57 59 56 56 58 56 55 60 56 56 58 56 56 58 57 57 57 56 56 58 57 57 59 56 56 56 57 57 59 57 57 59 57 57 59 57 57 59 56 56 58 56 56 58 57 57 59 56 56 58 56 56 58 56 56 58 55 55 57 57 57 59 56 56 58 56 56 58 55 55 57 56 56 58 58 58 60 56 56 58 55 55 57 55 55 57 56 56 58 56 56 58 57 57 59 56 56 58 57 57 57 57 57 59 56 56 58 56 56 58 55 55 57 
56 56 58 55 55 57 55 55 57 55 55 57 54 54 56 55 55 57 56 56 58 55 55 57 55 55 53 54 54 56 55 55 57 56 56 58 55 55 57 55 55 57 57 57 59 56 56 58 56 54 57 54 54 56 55 55 57 55 55 57 57 55 58 55 55 57 57 55 58 55 55 57 56 56 58 56 56 58 56 56 58 56 56 58 56 56 58 55 55 57 56 56 58 57 57 59 56 56 58 56 56 58 56 56 58 56 56 58 56 56 58 55 55 57 56 56 58 56 56 58 56 56 58 56 56 58 56 56 58 57 57 59 55 55 57 56 56 58 56 56 58 56 56 58 57 57 59 56 56 58 56 56 58 57 57 59 57 57 59 57 57 57 56 56 58 57 57 59 58 58 60 57 57 59 57 57 59 56 56 58 56 56 58 57 57 59 56 56 58 57 57 59 56 56 56 56 56 58 56 56 58 56 56 58 56 56 58 56 56 56 56 56 56 56 56 58 57 57 59 57 57 59 57 57 59 57 57 59 57 57 59 56 56 58 54 54 56 55 55 57 55 55 57 56 56 58 57 57 59 57 57 59 56 56 58 55 56 58 57 57 59 56 56 58 57 57 57 55 55 57 55 55 57 55 55 57 56 56 58 56 56 58 56 56 58 55 54 59 55 55 57 56 56 58 56 56 58 55 55 57 
54 54 56 56 56 58 55 55 57 54 54 56 54 54 56 54 54 56 54 54 56 55 55 57 56 56 58 54 54 56 55 55 57 56 56 58 55 55 57 54 54 56 55 55 57 56 56 58 57 55 58 54 54 56 56 56 58 55 55 57 56 56 58 56 54 57 55 55 57 55 55 57 55 53 56 56 56 58 56 54 57 57 57 59 57 55 58 56 56 58 58 56 59 57 57 59 56 56 58 56 56 58 56 56 58 55 55 57 56 56 58 56 56 58 57 57 59 57 57 59 58 58 60 56 56 58 55 55 57 55 55 57 56 56 58 56 56 58 56 56 58 57 57 59 56 56 58 56 56 58 56 56 58 56 56 58 57 57 59 56 56 58 57 57 57 57 57 59 57 57 59 58 58 60 56 56 58 58 58 60 56 56 58 56 56 58 57 57 59 56 56 58 56 56 58 56 56 56 56 56 56 55 55 55 56 56 58 56 56 58 56 56 56 57 57 59 56 56 58 57 57 59 57 57 59 57 57 59 56 56 58 56 56 58 54 54 56 56 56 58 55 55 57 57 57 59 56 56 58 56 56 58 55 56 58 56 56 58 56 57 59 57 57 59 56 56 58 55 55 57 54 54 56 55 55 55 56 56 58 57 57 59 55 55 57 55 55 57 56 56 58 56 56 58 55 55 57 55 55 57 
55 55 57 55 55 57 54 54 56 54 54 56 53 53 55 54 54 56 53 53 55 55 55 57 55 55 55 55 55 57 55 55 57 55 55 57 56 56 58 54 54 56 55 55 57 56 56 58 55 55 57 56 54 57 55 55 57 55 55 57 57 57 59 55 55 57 57 57 59 54 54 56 54 54 56 54 54 56 55 55 57 56 56 58 56 56 58 56 56 58 56 56 58 57 57 59 57 57 59 56 56 58 56 56 58 56 56 58 56 56 58 57 57 59 56 56 58 57 57 59 58 58 60 56 56 58 56 56 58 55 55 57 56 56 58 55 55 57 56 56 58 56 56 58 57 57 59 55 55 53 57 57 59 56 56 58 57 57 59 57 57 59 58 58 60 58 58 60 57 57 59 56 56 58 57 57 59 56 56 58 56 56 58 56 56 58 57 57 59 58 58 60 56 56 56 56 56 58 55 55 57 56 56 58 56 56 58 55 55 57 57 57 57 56 56 58 56 56 58 56 56 58 56 56 58 56 56 58 56 56 58 56 56 58 56 56 58 56 56 58 56 56 58 57 57 59 55 55 57 55 55 57 55 55 57 53 54 56 55 55 57 56 56 58 56 56 58 55 55 57 55 55 57 56 56 58 55 55 57 56 56 58 56 56 58 56 56 56 55 55 57 56 56 58 54 54 56 54 54 56 
55 55 57 55 55 57 54 54 56 55 55 57 54 54 56 55 55 57 55 55 57 54 54 56 55 55 55 55 55 57 54 54 56 54 54 56 55 55 57 53 53 55 54 54 56 55 55 57 56 56 58 57 57 59 56 54 57 55 55 57 55 55 57 56 56 58 56 56 58 56 56 58 56 56 58 54 54 56 55 55 57 55 55 57 56 56 58 56 56 58 56 56 58 57 57 59 55 55 57 55 55 57 56 56 58 56 56 58 57 57 59 57 57 59 56 56 58 57 57 59 57 57 59 54 54 56 54 54 56 55 55 57 56 56 58 56 56 58 56 56 58 56 56 58 56 56 58 55 55 57 56 56 58 56 56 58 56 56 58 55 55 57 56 56 54 56 56 58 56 56 58 57 57 59 55 56 58 56 56 58 56 56 58 55 55 57 57 57 59 55 56 58 57 57 57 56 56 58 56 56 58 56 56 58 55 55 57 56 56 58 56 56 56 56 56 58 56 56 58 57 57 59 57 57 59 57 57 59 59 59 61 57 57 59 56 56 58 57 57 59 57 57 59 57 57 59 55 56 58 56 56 58 56 56 58 56 56 58 56 56 58 55 55 57 55 55 57 56 56 58 56 56 58 56 56 58 55 55 55 54 54 56 55 55 57 55 55 57 55 55 57 56 56 58 56 56 58 56 56 58 
54 54 56 55 55 57 54 54 56 54 54 56 54 54 56 55 55 57 55 55 57 54 54 56 55 55 57 54 54 56 56 56 58 54 54 56 54 54 56 55 55 57 55 55 57 56 56 58 57 57 59 57 57 59 56 56 56 57 57 59 56 56 58 57 57 57 56 56 58 56 56 58 57 57 59 56 56 58 56 56 58 56 56 58 56 56 58 56 56 58 55 55 57 55 55 57 55 55 57 55 55 57 56 56 58 55 55 57 56 56 58 55 55 57 57 57 59 56 56 58 56 56 58 55 55 57 56 56 58 54 54 56 56 56 58 55 55 57 56 56 58 55 55 57 55 55 57 54 54 54 55 55 57 56 56 58 55 55 57 55 55 57 57 57 59 56 56 58 55 56 58 56 56 58 55 56 58 54 54 56 56 56 58 54 55 57 55 55 57 55 55 57 56 56 58 57 57 57 56 56 56 56 56 56 56 56 58 56 56 58 56 56 56 56 56 58 57 57 59 56 56 58 56 56 58 56 56 58 56 56 58 56 56 58 56 56 58 57 57 59 56 56 58 55 56 58 56 56 58 55 56 58 56 56 58 56 56 58 55 55 57 54 54 56 56 56 56 55 55 57 55 55 57 55 55 57 54 54 56 55 55 57 55 55 57 54 54 56 55 55 57 56 56 58 56 56 58 55 55 57 
54 54 56 54 54 56 56 56 58 56 56 58 54 54 56 55 55 57 55 55 57 55 55 57 55 55 53 54 54 56 56 56 58 54 54 56 54 54 56 55 55 57 55 55 57 56 56 58 57 57 59 56 56 58 56 56 56 57 57 59 57 57 59 56 56 56 57 57 59 56 56 58 55 55 57 54 54 56 55 55 57 55 55 57 56 56 58 56 56 58 55 55 57 55 55 57 55 55 57 55 55 57 55 55 57 55 55 57 55 55 57 55 55 57 56 56 58 56 56 58 56 56 58 55 55 57 54 54 56 55 55 57 55 55 57 56 56 58 55 55 57 55 55 57 55 55 57 56 56 58 55 55 55 56 56 58 55 55 57 55 55 57 56 56 58 55 55 57 55 55 57 56 56 58 54 55 57 55 55 57 56 56 58 56 56 58 56 56 58 56 57 59 56 56 56 56 56 58 56 56 58 55 55 57 55 55 57 56 56 56 56 56 56 56 56 58 57 57 59 56 56 58 56 56 58 55 55 57 56 56 58 56 56 58 57 57 59 56 56 58 56 56 58 56 56 58 55 56 58 56 56 58 56 56 58 55 55 57 54 54 56 54 54 56 54 54 56 55 55 57 55 55 57 55 55 55 55 55 57 54 54 56 55 55 57 54 54 56 55 55 57 56 56 58 55 55 57 55 55 57 
53 53 55 54 54 56 55 55 57 55 55 57 53 53 55 53 53 55 56 56 58 55 55 57 54 54 56 55 55 57 55 55 57 54 54 56 55 55 57 55 55 57 55 55 57 56 56 58 56 56 56 57 57 59 57 57 57 57 57 59 57 57 59 56 56 56 56 56 58 55 55 55 55 55 57 56 56 58 56 56 58 56 56 58 55 55 57 56 56 58 55 55 57 55 55 57 57 57 59 55 55 57 55 55 57 56 56 58 56 56 58 56 56 58 56 56 58 56 56 58 55 55 57 55 55 57 54 54 56 54 54 56 55 55 57 55 55 57 55 55 57 55 55 57 55 55 57 56 56 58 56 56 56 56 56 58 55 55 57 56 56 56 55 55 57 55 55 57 55 55 57 56 56 58 55 55 57 56 56 58 55 55 57 56 56 58 56 56 58 56 56 58 56 55 60 56 56 58 56 56 58 56 56 56 55 55 57 56 56 58 55 55 55 55 55 57 57 57 59 57 57 59 57 57 59 56 56 58 55 55 57 56 56 58 57 57 59 57 57 59 57 57 59 56 56 58 57 57 59 56 56 58 56 56 58 54 54 56 55 55 57 54 54 56 54 54 56 55 55 57 55 55 57 56 56 58 54 54 56 55 55 57 55 55 57 55 55 57 54 54 56 56 56 58 56 56 58 55 55 57 
