P3
100 50
255
54 44 42 53 45 42 54 46 43 53 45 42 54 46 43 54 46 43 54 46 43 54 46 43 54 46 43 52 47 43 56 48 45 54 49 45 53 48 44 55 47 44 54 46 43 53 48 44 54 49 45 55 47 44 55 47 44 52 47 43 53 48 45 54 49 46 55 47 45 52 47 44 53 48 45 54 46 44 53 48 45 54 49 46 54 49 46 54 49 46 55 47 45 54 49 46 55 47 45 53 48 45 52 47 44 52 47 44 52 47 44 54 49 46 53 48 45 52 47 44 53 48 45 53 48 45 53 48 45 53 48 45 52 47 44 53 48 45 53 48 45 53 48 45 54 49 46 53 48 45 52 47 44 53 48 45 53 48 45 53 48 45 53 48 45 53 48 45 54 49 46 53 48 45 52 47 44 54 49 46 53 48 45 53 48 45 53 48 45 53 48 45 53 48 45 53 48 45 53 48 45 53 48 45 53 48 45 54 49 46 53 48 45 53 48 45 54 49 46 54 49 46 54 49 46 54 49 46 54 49 46 54 49 46 53 48 45 53 48 45 54 49 46 54 49 46 53 48 45 53 48 45 54 49 46 53 48 45 53 49 46 54 49 46 52 48 45 54 49 46 54 49 46 54 49 46 53 48 45 53 48 45 53 48 45 53 48 45 53 48 45 53 48 45 54 49 46 53 48 45 
54 44 42 53 45 42 54 46 43 53 45 42 54 46 43 54 46 43 53 45 42 53 45 42 53 45 42 52 47 43 55 47 44 52 47 43 55 47 44 54 46 43 54 46 43 54 46 43 55 47 44 55 47 44 54 46 43 54 46 43 53 48 45 53 48 45 52 47 44 52 47 44 52 47 44 54 49 46 52 47 44 54 49 46 52 47 44 52 47 44 55 47 45 53 48 45 55 47 45 53 48 45 52 47 44 53 48 45 53 48 45 53 48 45 53 48 45 53 48 45 54 49 46 53 48 45 54 49 46 53 48 45 51 46 43 53 48 45 53 48 45 53 48 45 53 48 45 53 48 45 53 48 45 53 48 45 53 48 45 53 48 45 51 46 43 53 48 45 53 48 45 53 48 45 54 49 46 53 48 45 53 48 45 52 47 44 54 49 46 53 48 45 52 47 44 52 47 44 54 49 46 54 49 46 53 48 45 54 49 46 53 48 45 54 49 46 53 48 45 53 48 45 53 48 45 53 48 45 53 48 45 53 48 45 53 48 45 53 48 45 54 49 46 53 48 45 53 48 45 54 49 46 54 49 46 54 49 46 54 49 46 53 48 45 54 49 46 54 49 46 53 48 45 54 49 46 54 49 46 55 50 47 53 48 45 54 49 46 52 47 44 54 49 46 53 48 45 54 49 46 
54 45 40 52 45 39 53 46 40 53 46 40 53 45 42 54 46 43 53 45 42 53 45 42 54 46 43 53 45 42 54 46 43 54 46 43 55 47 44 55 47 44 54 46 43 55 47 44 55 47 44 55 47 44 56 48 45 55 47 44 52 47 44 53 45 43 53 48 45 52 47 44 53 48 45 53 48 45 55 47 45 53 48 45 52 47 44 53 48 45 55 47 45 53 48 45 55 47 45 53 48 45 53 48 45 53 48 45 54 49 46 54 49 46 53 48 45 53 48 45 53 48 45 53 48 45 53 48 45 53 48 45 53 48 45 53 48 45 53 48 45 53 48 45 53 48 45 52 47 44 52 47 44 54 49 46 53 48 45 53 48 45 52 47 44 53 48 45 53 48 45 53 48 45 52 47 44 53 48 45 53 48 45 53 48 44 53 48 45 53 48 45 55 50 46 53 48 45 53 48 45 54 49 46 53 48 45 54 49 46 53 48 45 53 48 45 53 48 45 54 49 46 53 48 45 53 48 45 54 49 46 54 49 46 53 48 45 54 49 46 53 48 45 52 47 44 53 48 45 54 49 46 54 49 46 54 49 46 55 50 47 54 49 46 53 48 45 53 48 45 53 48 45 53 48 45 53 48 45 53 48 45 53 48 45 54 49 46 54 49 46 53 48 45 54 49 46 53 48 45 
54 45 40 55 46 41 53 46 40 54 45 40 53 45 42 54 46 43 53 45 42 54 46 43 54 46 43 54 46 43 55 47 44 55 47 44 54 46 43 54 46 43 54 46 43 55 47 44 54 46 43 54 46 43 54 46 43 55 47 44 52 47 44 54 46 44 53 48 45 55 47 45 55 47 45 54 49 46 55 47 45 53 48 45 52 47 44 52 47 44 55 47 45 52 47 44 55 47 45 53 48 45 53 48 45 54 49 46 53 48 45 52 47 44 54 49 46 53 48 45 53 48 45 53 48 45 54 49 46 53 48 45 52 47 44 54 49 46 53 48 45 53 48 45 53 48 45 52 47 44 53 48 45 53 48 45 53 48 45 53 48 45 52 47 44 52 47 44 53 48 45 53 48 45 53 48 45 53 48 45 53 48 45 53 48 44 53 48 45 53 48 44 53 48 45 53 48 45 52 47 43 53 48 45 52 47 44 52 47 44 53 48 45 54 49 46 52 47 44 54 49 46 53 48 45 53 48 45 54 49 46 54 49 46 53 48 45 54 49 46 53 48 45 53 48 45 53 48 45 52 47 44 54 49 46 54 49 46 54 49 46 52 48 45 54 49 46 53 49 46 51 46 43 53 48 45 55 50 47 55 50 47 54 49 46 54 49 46 54 49 46 54 49 46 53 48 45 55 50 47 
54 45 40 54 45 40 53 46 40 54 45 40 54 46 43 54 46 43 53 45 42 55 47 44 54 46 43 56 48 45 55 47 44 55 47 44 55 47 44 54 46 43 55 47 44 55 47 44 54 46 43 54 46 43 54 46 43 55 47 44 54 46 44 55 47 45 52 47 44 55 47 45 55 47 45 52 47 44 55 47 45 55 47 45 53 48 45 52 47 44 54 46 44 52 47 44 54 46 44 53 48 45 53 48 45 56 51 48 53 48 44 52 47 43 53 48 44 53 48 44 52 47 44 53 48 45 52 47 44 53 48 45 52 47 44 53 48 45 52 47 44 53 48 45 53 48 45 53 48 45 53 48 45 54 49 46 53 48 45 52 47 44 52 47 44 52 47 44 53 48 45 53 48 45 53 48 45 53 48 45 53 48 45 52 47 43 53 48 45 52 47 44 53 48 44 53 48 45 52 47 44 51 46 43 54 49 46 53 48 45 53 48 45 53 48 45 53 48 45 52 47 44 53 48 45 53 48 45 53 48 45 53 48 45 54 49 46 53 48 45 54 49 46 53 48 45 54 49 46 53 48 45 53 48 45 54 49 46 52 47 44 54 49 46 54 49 46 53 48 45 53 48 45 53 48 45 54 49 46 54 49 46 55 50 47 53 48 45 53 48 45 53 48 45 54 49 46 53 48 45 
54 45 40 53 44 39 54 45 40 54 45 40 54 46 43 53 45 42 54 46 43 54 46 43 54 46 43 55 47 44 54 46 43 55 47 44 54 46 43 55 47 44 55 47 44 55 47 44 54 46 43 54 46 43 55 47 44 54 46 43 55 47 45 52 47 44 55 47 45 53 48 45 52 47 44 55 47 45 52 47 44 54 46 44 53 48 45 52 47 44 55 47 45 53 48 45 55 47 45 51 46 43 52 47 44 55 50 47 53 48 44 52 47 43 52 47 43 53 48 44 53 48 45 53 48 45 52 47 44 53 48 45 54 49 46 52 47 44 52 47 44 52 47 44 52 47 44 51 46 43 52 47 44 52 47 44 53 48 45 53 48 45 53 48 45 52 47 44 52 47 44 52 47 44 52 47 44 53 48 45 54 49 46 52 47 44 53 48 45 52 47 44 52 47 44 53 48 45 53 48 45 53 48 45 53 48 45 53 48 45 53 48 45 53 48 45 53 48 45 53 48 45 53 48 45 54 49 46 54 49 46 54 49 46 53 48 45 53 48 45 54 49 46 54 49 46 53 48 45 53 48 45 54 49 46 54 49 46 54 49 46 53 48 45 53 49 46 52 47 44 52 47 44 53 48 45 54 49 46 53 48 45 54 49 46 53 48 45 54 49 46 53 48 45 53 48 45 53 48 45 
53 46 40 53 46 40 55 48 42 53 46 40 54 46 43 54 46 43 54 46 43 54 46 43 53 45 42 54 46 43 54 46 43 54 46 43 54 46 43 55 47 44 54 46 43 54 46 43 53 45 42 54 46 43 54 46 43 54 46 43 53 45 42 54 46 43 53 48 44 55 47 44 54 46 43 54 46 43 52 47 43 53 45 42 52 47 43 53 48 44 52 47 43 52 47 43 52 47 43 53 48 45 52 47 44 52 46 46 52 47 44 52 47 44 53 48 45 52 47 44 53 48 45 54 49 46 52 47 44 52 48 45 53 48 45 53 48 45 52 47 44 52 47 44 53 48 45 52 47 44 52 47 44 53 48 45 53 48 45 52 47 44 53 48 45 53 48 45 52 47 44 52 47 44 52 47 43 52 47 43 53 48 45 53 48 45 53 48 45 52 47 44 53 48 45 53 48 45 52 47 44 52 47 44 53 48 45 52 47 44 54 49 46 53 48 44 54 49 45 53 48 44 55 50 46 53 48 44 53 48 45 52 47 44 53 48 45 53 48 45 53 48 45 53 48 45 54 49 46 53 48 45 53 48 45 54 49 46 53 48 45 53 48 45 54 49 46 54 49 46 53 48 45 53 49 46 54 49 46 54 49 46 53 48 45 53 48 45 53 48 45 54 49 46 54 49 46 53 48 45 
53 46 40 53 46 40 53 46 40 54 47 41 54 45 40 53 46 40 54 47 41 53 46 40 53 45 42 55 47 44 54 46 43 55 47 44 54 46 43 54 46 43 55 47 44 55 47 44 54 46 43 54 46 43 54 46 43 55 47 44 52 47 43 54 46 43 54 46 43 52 47 43 54 46 43 52 47 43 51 46 42 54 46 43 53 48 44 52 47 43 52 47 43 53 48 44 52 47 43 53 48 44 52 47 44 53 48 45 52 47 44 52 47 44 52 47 44 55 47 45 53 48 45 53 48 45 54 46 44 53 48 45 52 47 43 53 48 45 52 47 44 52 47 44 53 48 45 54 49 45 53 48 45 52 47 44 54 45 46 52 47 44 52 47 44 54 49 46 52 47 43 52 47 43 52 47 43 54 46 44 53 48 45 53 48 45 53 48 45 53 48 45 52 47 44 52 47 44 53 48 45 54 49 46 53 48 45 52 47 44 53 48 45 52 47 44 54 49 46 53 48 45 54 49 46 52 47 43 53 48 45 52 47 44 53 48 45 54 49 46 53 48 45 53 48 45 53 48 45 52 47 44 52 48 45 53 48 45 53 48 45 53 48 45 53 48 45 52 47 44 53 48 45 53 48 45 54 49 46 53 48 45 53 48 45 53 48 45 54 49 46 53 48 45 53 48 45 53 48 45 
55 46 41 54 45 40 55 46 41 55 46 41 55 45 43 54 46 43 54 46 43 54 46 43 53 45 42 55 47 44 54 46 43 54 46 43 54 46 43 52 44 41 55 47 44 55 47 44 53 45 42 54 46 43 54 46 43 54 46 43 52 47 43 55 47 44 53 45 42 53 45 42 51 46 42 52 47 43 53 48 44 54 46 43 55 47 44 54 46 43 55 47 44 54 46 43 54 46 43 54 46 43 54 46 43 55 47 45 53 48 44 54 46 43 51 46 42 52 47 43 55 47 44 54 49 45 53 48 44 54 46 43 51 46 43 52 47 44 53 48 45 52 47 44 52 47 44 52 47 44 51 46 43 52 47 44 52 47 44 53 48 45 53 48 44 53 48 44 53 48 45 53 48 45 52 47 44 53 48 44 52 47 44 53 48 45 52 47 44 53 48 45 54 49 46 54 49 46 53 48 45 53 48 45 53 48 45 52 47 44 53 48 45 53 48 45 53 48 45 53 48 45 52 47 44 53 48 45 53 48 44 53 47 47 53 48 44 52 47 44 53 48 45 53 48 45 53 48 45 53 48 45 52 48 45 54 49 46 54 49 46 53 48 45 53 48 45 54 49 46 54 49 46 53 48 45 54 49 46 53 48 45 53 48 45 54 49 46 53 48 45 52 47 44 52 47 44 53 48 45 
54 45 40 55 46 41 54 45 40 54 45 40 53 46 40 53 46 40 54 47 41 53 46 40 53 45 42 54 46 43 54 46 43 54 46 43 55 47 44 54 46 43 54 46 43 54 46 43 53 45 42 55 47 44 54 46 43 54 46 43 53 48 44 55 47 44 54 46 43 55 47 44 53 48 44 55 47 44 53 45 42 54 46 43 54 46 43 54 46 43 55 47 44 54 46 43 54 46 43 54 46 43 54 46 43 55 47 44 53 45 42 52 47 43 53 48 44 55 47 44 52 47 43 51 46 42 54 46 43 52 47 43 52 47 44 53 48 44 53 48 44 52 47 43 52 47 44 53 48 45 51 46 43 52 47 43 52 47 44 53 48 45 52 47 44 54 46 44 54 46 43 52 47 43 52 47 43 52 47 44 52 47 44 53 48 45 52 47 44 52 47 44 53 48 45 53 48 45 53 48 45 51 46 43 53 48 45 53 48 45 53 48 45 54 49 46 54 49 46 54 49 46 53 48 45 52 47 44 52 47 44 53 48 45 53 48 45 53 48 45 53 48 45 53 48 44 53 48 45 53 48 44 54 49 46 52 47 44 53 48 45 53 48 45 54 49 46 52 47 44 53 48 45 53 48 45 52 47 44 53 48 45 53 48 45 53 48 45 52 47 44 54 49 46 53 48 45 52 47 44 
53 44 39 54 45 40 52 45 39 53 46 40 53 45 42 53 45 42 53 45 42 53 45 42 54 46 43 54 46 43 55 47 44 54 46 43 54 46 43 53 45 42 54 46 43 55 47 44 54 46 43 54 46 43 54 46 43 54 46 43 54 46 43 54 46 43 54 46 43 51 46 42 54 46 43 55 47 44 54 46 43 52 47 43 54 46 43 54 46 43 54 46 43 53 45 42 53 45 42 54 46 43 55 47 44 54 46 43 55 47 44 52 47 43 54 46 43 54 46 43 52 47 43 55 47 44 55 47 44 53 48 44 52 47 43 51 46 43 53 48 45 52 47 44 52 47 43 52 47 43 52 47 43 53 48 45 55 47 44 52 47 44 52 47 44 52 47 44 52 47 43 52 47 43 52 47 43 54 46 44 51 46 42 52 47 43 53 48 44 52 47 43 52 47 43 53 48 44 52 47 43 52 47 43 52 47 44 52 47 44 52 47 44 52 47 44 54 49 46 53 48 45 52 47 44 52 47 44 53 48 45 54 49 45 54 49 46 53 48 44 55 50 47 52 47 44 53 48 45 51 46 43 53 48 45 53 48 45 53 48 45 53 48 45 53 48 45 53 48 45 53 48 45 53 48 45 53 48 45 54 49 46 54 49 46 54 49 46 53 48 45 53 48 45 53 48 45 53 48 45 
54 45 40 54 45 40 54 45 40 53 44 39 54 45 40 54 47 41 54 47 41 54 47 41 54 46 43 54 46 43 54 46 43 54 46 43 56 48 45 54 46 43 54 46 43 55 47 44 53 45 42 53 45 42 54 46 43 54 46 43 55 47 44 52 47 43 51 46 42 52 47 43 54 46 43 53 45 42 54 46 43 52 47 43 54 46 43 54 46 43 54 46 43 54 46 43 54 46 43 52 44 41 54 46 43 54 46 43 52 47 43 54 46 43 54 46 43 52 47 43 53 45 42 55 47 44 52 47 43 54 46 43 53 48 44 52 47 43 52 47 43 52 47 43 52 47 43 53 48 44 52 47 43 53 48 44 53 48 42 53 48 44 52 47 43 53 48 44 52 47 44 52 47 44 52 47 44 52 47 43 51 46 42 53 48 44 53 48 44 53 48 44 53 48 44 53 48 44 52 47 43 52 47 43 51 46 43 51 46 43 53 48 45 53 48 45 53 48 45 53 48 45 53 48 45 51 46 43 52 47 44 53 48 45 54 49 46 52 47 44 53 48 45 52 46 46 53 48 44 54 49 46 53 48 45 53 48 45 54 49 46 53 48 45 52 47 44 52 47 44 53 48 45 54 46 44 53 48 45 52 47 44 52 47 44 53 48 45 53 48 45 53 48 45 53 48 45 54 49 46 
53 44 39 54 45 40 52 45 39 54 47 41 54 44 42 52 44 41 53 45 42 53 45 42 54 46 43 53 45 42 54 46 43 53 45 42 53 45 42 53 45 42 53 45 42 54 46 43 52 44 41 53 45 42 53 45 42 54 46 43 54 46 43 52 47 43 52 47 43 54 46 43 50 45 41 54 46 43 53 45 42 52 47 43 54 46 43 54 46 43 53 45 42 53 45 42 54 46 43 54 46 43 54 46 43 54 46 43 54 46 43 52 47 43 53 45 42 55 47 44 53 48 44 55 47 44 55 47 44 54 46 43 54 46 44 54 46 43 54 46 43 55 47 44 56 48 45 53 45 43 52 44 41 54 46 43 52 47 43 52 47 43 52 47 43 54 46 43 53 45 42 52 47 44 51 46 42 52 47 44 53 45 42 53 45 42 54 46 43 55 47 44 54 46 43 54 46 43 54 46 43 55 47 44 52 47 43 51 46 42 52 47 43 52 47 43 52 47 43 54 49 45 52 47 43 53 48 45 53 48 45 52 47 44 54 49 46 51 46 43 52 47 44 52 47 44 53 48 45 53 48 45 52 47 44 52 47 44 52 47 44 53 48 45 53 48 45 53 48 45 53 48 45 56 48 46 53 48 45 53 48 45 54 49 46 53 48 45 54 49 46 53 48 45 53 48 45 52 47 44 
54 45 40 54 45 40 54 45 40 55 46 41 53 46 40 52 45 39 53 46 40 53 46 40 53 45 42 53 45 42 53 45 42 53 45 42 54 46 43 53 45 42 53 45 42 54 46 43 54 46 43 54 46 43 53 45 42 53 45 42 54 46 43 51 46 42 54 46 43 55 47 44 53 45 42 51 46 42 54 46 43 54 46 43 54 46 43 54 46 43 54 46 43 54 46 43 54 46 43 54 46 43 54 46 43 54 46 43 54 44 42 54 46 43 54 46 43 55 47 44 55 47 44 54 46 43 55 47 44 54 46 43 54 46 43 54 46 43 53 45 42 54 46 43 55 47 44 54 46 43 54 46 43 54 46 43 52 47 43 52 47 43 51 46 42 51 46 42 51 46 42 52 47 44 52 47 44 51 46 42 53 45 42 54 46 43 53 45 42 53 45 42 54 46 43 54 46 43 54 46 43 54 46 43 52 47 43 51 46 42 52 47 43 53 48 45 51 46 43 52 47 44 53 48 45 53 48 45 52 47 44 53 48 45 53 48 45 52 47 44 52 47 44 52 47 44 53 48 45 53 48 45 55 47 45 53 48 45 52 47 44 52 47 44 53 48 45 53 48 45 52 47 44 52 47 44 53 48 45 53 48 45 53 48 45 53 48 45 54 49 46 53 48 45 53 48 45 52 47 44 
53 44 39 53 44 39 54 45 40 53 44 39 54 44 42 54 44 42 53 44 39 54 45 40 53 45 42 53 45 42 53 45 42 53 45 42 54 46 43 53 45 42 53 45 42 54 46 43 53 45 42 53 45 42 54 46 43 53 45 42 54 46 43 54 46 43 54 46 43 55 47 44 54 46 43 54 46 43 54 46 43 55 47 44 53 45 42 54 46 43 54 46 43 53 45 42 54 46 43 54 46 43 54 46 43 54 46 43 54 46 43 54 46 43 55 47 44 54 46 43 52 47 43 51 46 42 55 47 44 54 46 43 52 47 43 53 45 42 54 46 43 52 47 43 54 46 43 54 46 43 52 47 43 52 47 43 54 46 43 55 47 44 54 46 43 54 46 43 52 44 41 53 45 42 54 46 43 54 46 43 54 46 44 53 45 43 54 45 46 53 45 43 53 45 42 54 46 43 54 46 43 54 46 43 55 47 45 52 47 44 51 46 43 52 47 44 53 45 43 55 47 45 54 46 44 52 47 44 51 46 43 53 48 45 54 46 44 52 47 44 52 47 44 53 45 43 54 46 44 53 48 45 53 48 45 52 47 44 54 46 44 53 45 42 53 48 44 53 48 44 55 47 45 52 47 43 52 47 44 52 47 44 53 48 45 53 48 45 52 47 44 54 49 46 52 47 44 52 47 44 
53 44 39 53 44 39 53 44 39 53 44 39 53 43 41 54 45 40 54 45 40 54 45 40 52 44 41 53 45 42 53 45 42 53 45 42 53 45 42 54 46 43 53 45 42 54 46 43 54 46 43 53 45 42 53 45 42 54 46 43 54 46 43 54 46 43 53 45 42 54 46 43 54 46 43 53 45 42 54 46 43 54 46 43 53 45 42 53 45 42 53 45 42 53 45 42 54 46 43 53 45 42 54 46 43 54 46 43 53 45 42 51 46 42 53 48 44 55 47 44 55 47 44 54 46 43 54 46 43 50 47 42 52 47 43 54 46 43 53 45 42 54 46 43 52 44 41 52 47 43 53 45 42 51 46 42 51 46 42 51 46 42 54 46 43 53 45 42 53 45 42 54 46 43 53 45 42 54 46 43 54 46 44 54 46 43 53 45 43 53 45 42 53 45 42 54 46 44 55 47 44 54 46 43 54 46 44 51 46 43 51 46 43 51 46 43 54 46 44 54 46 44 54 46 44 52 47 44 51 48 43 55 47 44 54 46 43 53 48 44 52 47 44 54 46 44 53 48 45 53 48 45 52 47 44 53 48 45 52 47 43 52 47 43 52 47 44 54 46 44 54 46 44 52 47 44 52 47 44 52 47 44 52 47 44 52 47 44 53 48 45 53 48 45 53 48 45 52 47 44 
53 44 39 54 45 40 53 44 39 54 45 40 53 44 39 54 45 40 54 45 40 54 45 40 53 46 40 54 46 43 54 46 43 53 45 42 52 44 41 52 44 41 53 45 42 53 45 42 53 45 42 53 45 42 53 45 42 53 45 42 53 45 42 53 45 42 53 45 42 54 46 43 54 46 43 53 45 42 53 45 42 53 45 42 53 45 42 53 45 42 53 45 42 53 45 42 54 46 43 53 45 42 54 46 43 54 46 43 54 46 43 52 47 43 52 47 43 54 46 43 54 46 43 54 46 43 53 45 42 50 47 42 54 46 43 52 47 43 54 46 43 54 46 43 51 46 42 53 45 42 51 46 42 51 46 42 53 45 42 52 44 41 54 46 43 51 46 42 51 46 42 52 47 43 51 46 42 52 47 43 54 46 43 53 45 43 52 44 41 52 44 42 53 45 43 53 45 42 54 46 44 53 45 43 53 45 43 52 47 44 51 46 43 52 47 44 54 46 44 55 47 45 54 46 44 52 47 44 51 46 43 54 46 44 51 46 43 52 47 44 53 45 43 56 48 46 52 47 44 52 47 44 52 47 43 51 46 43 52 47 44 52 47 44 52 47 43 54 46 44 55 46 47 52 47 44 52 47 44 52 47 44 53 48 45 52 47 44 53 48 45 52 47 44 53 48 45 52 47 44 
53 44 39 53 44 39 53 44 39 54 45 40 53 44 39 53 44 39 54 45 40 54 45 40 53 46 40 54 47 41 53 45 42 53 45 42 53 45 42 53 45 42 53 45 42 52 44 41 53 45 42 54 46 43 54 46 43 54 46 43 53 45 42 53 45 42 53 45 42 52 44 41 53 45 42 52 44 41 53 45 42 53 45 42 54 46 43 53 45 42 53 45 42 54 46 43 53 45 42 52 44 41 53 45 42 53 45 42 53 46 40 52 44 41 52 44 41 53 46 40 53 46 40 54 46 43 54 46 43 54 47 41 54 46 43 52 47 43 51 46 42 54 46 43 52 47 43 51 46 42 54 46 43 52 47 43 53 45 42 54 46 43 53 45 42 53 45 42 54 46 43 53 45 42 53 45 42 55 47 44 55 47 44 53 45 42 53 45 43 53 45 42 53 45 42 53 45 43 53 45 42 52 44 42 54 46 44 51 46 43 51 46 43 52 47 44 54 46 44 54 46 44 54 46 44 52 47 44 52 47 43 55 47 44 53 48 44 53 48 44 51 47 44 52 47 44 52 47 44 52 47 44 52 47 43 53 48 45 53 45 43 54 46 44 52 47 43 53 48 44 53 45 43 53 48 45 52 47 44 50 45 42 54 49 46 52 47 44 53 48 45 52 47 44 53 48 45 52 47 44 
53 44 39 53 44 39 53 44 39 53 44 39 53 44 39 53 44 39 53 44 39 54 45 40 53 46 40 53 46 40 53 46 40 53 46 40 53 45 42 54 46 43 52 44 41 52 44 41 53 45 42 53 45 42 53 45 42 54 46 43 54 46 43 53 45 42 54 46 43 53 45 42 53 45 42 53 45 42 53 45 42 55 47 44 52 44 41 53 45 42 54 46 43 54 46 43 54 46 43 54 46 43 54 46 43 52 44 41 54 46 43 54 46 43 53 45 42 54 46 43 54 46 43 53 45 42 53 45 42 53 45 42 53 45 42 52 47 43 53 45 42 54 46 43 53 48 44 53 45 42 54 46 43 52 44 41 52 47 43 52 47 43 51 46 42 53 45 42 54 46 43 53 45 42 53 45 42 54 46 43 54 46 43 53 45 43 54 46 43 53 45 43 52 44 42 55 47 44 53 45 43 54 46 44 53 45 43 53 45 43 54 46 44 53 45 43 54 46 44 54 46 44 55 47 45 54 46 44 51 46 42 51 46 42 51 48 43 54 46 43 52 47 44 54 49 46 51 47 44 53 48 45 50 45 42 52 47 44 54 46 43 54 46 44 51 46 43 51 46 43 54 46 44 52 47 43 51 46 43 53 48 45 52 47 44 53 48 45 53 48 45 52 47 44 52 47 44 52 47 44 
54 45 40 53 44 39 53 44 39 54 45 40 53 44 39 53 44 39 53 44 39 53 44 39 52 45 39 53 46 40 52 45 39 53 46 40 52 44 41 53 45 42 52 44 41 52 44 41 52 44 41 51 43 40 53 45 42 53 45 42 53 45 42 54 46 43 53 45 42 53 45 42 54 46 43 54 46 43 55 47 44 53 45 42 53 45 42 53 45 42 53 45 42 52 44 41 54 46 43 53 45 42 53 45 42 53 45 42 53 45 42 51 46 42 54 46 43 54 46 43 54 46 43 54 46 43 54 46 43 54 46 43 54 46 43 54 46 43 54 46 43 53 45 42 53 45 42 53 45 42 53 45 42 53 45 42 53 45 42 52 44 41 54 46 43 54 46 43 52 44 41 52 44 41 53 45 42 53 45 42 53 45 42 53 45 42 53 45 43 53 45 42 54 46 43 53 45 43 52 44 41 55 47 45 53 45 43 53 45 43 53 45 43 53 45 43 54 46 44 54 46 44 53 45 43 54 46 44 54 46 44 53 48 45 53 48 45 53 45 43 54 49 46 52 47 44 54 46 44 52 47 44 52 47 44 52 47 44 51 46 43 52 47 44 51 46 43 54 46 44 55 47 45 53 48 44 52 47 44 52 47 44 53 48 45 53 48 45 52 47 44 51 46 43 52 47 44 52 47 44 
53 44 39 52 43 38 53 44 39 53 44 39 53 44 39 54 45 40 53 44 39 53 44 39 52 45 39 52 45 39 53 46 40 53 46 40 52 44 41 53 45 42 53 45 42 53 45 42 52 44 41 52 44 41 53 45 42 53 45 42 53 45 42 54 46 43 53 45 42 54 46 43 54 46 43 54 46 43 54 46 43 53 45 42 53 45 42 53 45 42 53 45 42 53 45 42 53 45 42 54 46 43 53 45 42 53 45 42 54 47 41 54 46 43 54 46 43 53 46 40 53 46 40 54 46 43 53 45 42 54 47 41 53 45 42 54 46 43 51 46 42 53 45 42 53 45 42 53 45 42 54 46 43 54 46 43 54 44 42 53 45 42 53 45 42 53 45 42 53 45 42 53 45 42 53 45 42 52 44 41 53 45 43 54 46 44 54 46 43 52 44 42 53 45 43 52 44 41 53 45 43 54 46 43 54 46 44 54 46 44 54 46 44 54 46 44 54 46 44 54 46 44 54 46 44 54 46 44 55 47 44 51 46 42 52 47 43 54 46 43 53 48 45 52 47 44 52 47 44 55 47 45 54 49 45 52 47 44 51 46 43 52 47 44 52 46 46 54 46 43 54 46 43 52 47 44 52 47 44 52 47 44 52 47 44 53 48 45 52 47 44 52 47 44 52 47 44 52 47 44 
53 44 39 52 43 38 53 44 39 53 44 37 54 45 40 54 45 40 53 44 39 53 44 39 52 45 39 53 46 40 53 46 40 53 46 40 52 44 41 52 44 41 53 45 42 53 45 42 52 44 41 52 44 41 52 44 41 53 45 42 52 44 41 53 45 42 53 45 42 52 44 41 52 44 41 53 45 42 53 45 42 52 44 41 53 45 42 52 44 41 53 45 42 53 45 42 54 46 43 53 45 42 52 44 41 52 44 41 53 45 42 54 46 43 53 45 42 53 45 42 54 44 42 54 44 42 53 45 42 53 45 42 53 45 42 53 45 42 54 46 43 52 44 41 54 46 43 54 46 43 54 44 42 54 44 42 52 44 41 54 46 43 52 44 41 53 45 42 53 45 42 53 45 42 54 46 43 53 45 42 52 44 42 52 44 42 52 44 42 54 46 44 53 45 42 53 46 40 54 46 43 55 47 44 54 46 44 53 45 43 53 45 43 53 45 43 53 45 43 53 45 43 54 46 44 54 46 44 53 45 43 51 46 43 52 47 44 51 46 43 54 46 44 50 45 42 52 47 44 54 46 44 51 46 42 52 47 43 54 46 44 55 47 45 52 47 44 51 46 42 54 46 44 52 47 43 52 47 44 52 47 44 53 48 45 53 48 45 53 48 45 51 46 43 52 47 44 51 46 43 
52 43 38 53 44 39 53 44 39 52 43 38 54 45 40 53 44 39 54 45 40 53 44 39 52 45 39 53 44 39 53 44 39 53 46 40 51 43 41 53 45 42 53 46 40 53 46 40 52 44 41 52 44 41 51 43 41 53 45 42 53 45 42 54 44 42 54 44 42 52 44 41 53 45 42 53 45 42 53 45 42 53 45 42 52 45 39 52 45 39 52 44 41 52 44 41 53 45 42 53 45 42 51 43 40 52 44 41 52 44 41 54 46 43 52 44 41 52 44 41 52 44 41 54 46 43 54 46 43 53 45 42 53 45 42 52 44 41 53 45 42 52 44 41 53 45 42 53 45 42 53 45 42 53 45 42 53 45 42 53 45 42 52 44 41 52 44 41 54 46 43 53 45 42 54 46 43 53 45 42 53 45 42 54 46 43 52 44 41 52 44 41 53 45 42 53 45 42 53 45 42 54 46 43 54 46 43 52 44 41 54 46 44 54 46 44 53 45 43 53 45 43 55 47 44 54 46 43 54 46 44 54 46 44 54 46 44 54 46 44 55 47 45 53 45 42 53 45 42 53 45 42 52 47 44 53 45 43 53 45 43 51 46 42 51 46 42 51 46 43 51 46 43 52 47 44 52 47 43 53 48 44 53 48 44 54 49 45 52 47 43 52 47 43 52 47 43 53 48 44 
52 43 38 52 43 38 52 43 38 52 43 38 54 45 40 53 44 39 54 45 40 53 44 39 54 45 40 51 44 38 52 45 39 53 44 39 52 44 41 54 44 42 52 45 39 52 44 41 52 45 39 52 44 41 54 44 42 53 46 40 53 45 42 54 44 42 52 44 41 53 43 41 52 44 41 53 45 42 53 45 42 52 44 41 52 45 39 52 45 39 53 45 42 53 45 42 52 44 41 52 44 41 52 44 41 52 44 41 53 45 42 53 45 42 53 45 42 53 45 42 53 45 42 53 45 42 54 46 43 53 45 42 53 45 42 53 45 42 53 45 42 53 45 42 52 44 41 52 44 41 52 44 41 53 45 42 53 45 42 52 44 41 52 44 41 52 44 41 53 45 42 53 45 42 52 44 41 52 44 41 52 44 41 52 44 41 52 44 41 54 46 43 52 44 41 53 45 42 53 45 42 52 44 41 53 45 43 53 45 43 53 45 42 53 45 42 53 45 42 53 45 42 54 46 44 53 45 43 52 47 44 53 45 43 53 45 43 53 45 43 54 46 43 54 46 43 54 46 43 54 47 41 54 46 44 52 47 44 52 47 44 51 46 42 53 45 42 49 44 41 53 45 43 52 47 44 52 47 44 53 48 45 53 48 45 52 47 44 51 46 43 52 47 44 52 47 44 52 47 44 
52 43 38 52 43 38 52 43 38 52 43 38 52 43 38 53 44 39 54 45 40 53 44 39 52 45 39 53 44 39 53 44 39 53 46 40 53 46 40 53 45 42 53 46 40 51 43 40 52 45 39 52 45 39 52 45 39 53 45 42 54 44 42 52 44 41 53 45 42 53 45 42 53 43 41 53 45 42 53 45 42 54 44 42 53 46 40 53 46 40 51 43 40 51 43 40 53 45 42 52 44 41 53 45 42 53 45 42 52 44 41 53 45 42 53 45 42 53 45 42 53 45 42 53 45 42 53 45 42 53 45 42 52 44 41 52 44 41 53 45 42 52 44 41 52 44 41 52 44 41 53 45 42 53 45 42 53 45 42 52 44 41 53 45 42 52 44 41 52 44 41 52 44 41 52 44 41 52 44 41 52 44 41 52 44 41 52 44 41 53 45 42 52 44 41 53 45 42 52 44 41 52 44 41 53 45 42 54 46 43 53 45 42 53 45 42 53 45 42 53 45 42 54 46 43 54 46 43 53 45 42 53 45 42 54 46 43 54 46 43 54 46 44 54 46 44 52 47 44 51 46 43 54 46 43 54 46 44 52 47 43 54 46 43 51 46 43 51 46 43 51 46 43 52 47 44 53 48 45 53 48 45 52 47 44 52 47 44 51 46 43 51 46 43 52 47 44 52 47 44 
52 43 38 52 43 38 52 43 38 53 44 39 52 43 38 52 43 38 53 44 39 53 44 39 53 44 39 51 44 38 53 46 40 54 45 40 54 45 40 52 45 39 53 43 41 52 45 39 52 45 39 53 44 39 53 46 40 53 43 41 52 44 41 52 44 41 53 45 42 53 43 41 52 42 40 53 43 41 53 43 41 53 43 41 53 44 39 51 46 40 52 44 41 53 45 42 52 44 41 52 44 41 51 46 42 54 44 42 52 44 41 52 44 41 53 45 42 52 44 41 53 45 42 52 44 41 53 45 42 53 45 42 53 45 42 52 44 41 53 45 42 53 45 42 53 45 42 53 45 42 53 45 42 53 45 42 53 45 42 52 44 41 52 44 41 52 44 41 52 44 41 53 45 42 52 44 41 52 44 41 52 44 41 53 45 42 52 44 41 53 45 42 52 44 41 53 43 41 52 44 41 52 44 41 54 46 43 54 46 43 53 45 42 53 45 42 53 45 42 52 44 41 53 45 42 54 46 43 52 47 43 51 46 42 51 46 42 53 45 42 53 45 42 54 46 43 54 46 44 53 45 43 53 45 42 54 46 44 54 46 43 51 46 42 54 46 44 51 46 43 53 45 43 52 47 44 53 45 43 51 46 43 52 47 44 53 48 45 52 47 44 52 47 44 51 46 43 52 47 44 
53 44 37 53 44 39 52 43 38 53 44 37 52 43 38 53 44 39 52 43 38 53 44 39 53 44 39 52 43 38 53 44 39 53 44 39 53 46 40 53 44 39 53 45 42 54 45 40 54 45 40 53 46 40 55 46 41 53 45 42 52 44 41 52 44 41 53 45 42 52 44 41 53 45 42 55 45 43 51 41 39 54 44 42 54 45 40 53 46 40 53 45 42 52 44 41 53 45 42 52 44 41 52 44 41 53 43 41 53 45 42 52 44 41 52 44 41 52 44 41 52 44 41 53 45 42 53 45 42 53 45 42 53 45 42 53 45 42 52 44 41 52 44 41 52 44 41 52 44 41 52 44 41 53 45 42 52 44 41 52 44 41 52 44 41 52 44 41 52 44 41 52 44 41 52 44 41 52 44 41 52 44 41 54 44 42 52 44 41 53 45 42 53 45 42 53 43 41 53 45 42 52 44 41 54 46 43 53 45 42 53 45 42 53 45 42 53 45 42 53 45 42 53 45 42 53 45 42 54 46 43 53 45 42 54 46 43 54 46 43 53 45 42 51 46 42 50 45 42 52 47 44 54 46 43 54 46 43 53 45 42 53 45 43 52 47 43 54 46 43 51 46 43 51 46 42 53 45 43 52 47 44 53 48 45 53 48 45 52 47 44 52 47 44 51 46 43 51 46 43 
52 43 36 53 44 39 52 43 38 52 43 36 53 44 39 53 44 39 54 45 40 53 44 39 53 44 39 52 43 38 53 44 39 53 44 39 53 44 39 53 44 39 54 45 40 53 43 42 53 44 39 54 45 40 54 45 40 53 44 39 52 44 41 53 43 41 53 43 41 52 44 41 53 43 41 54 44 42 55 45 43 53 45 42 54 45 40 54 45 40 52 44 41 52 44 41 52 44 41 53 45 42 53 43 41 53 43 41 52 44 41 51 43 40 52 42 40 53 45 42 54 44 42 52 44 41 53 43 41 54 46 43 53 45 42 52 44 41 53 45 42 52 44 41 52 44 41 52 44 41 52 44 41 50 42 39 51 43 40 52 44 41 53 45 42 52 44 41 52 44 41 52 44 41 52 44 41 53 45 42 52 44 41 52 44 41 54 44 42 52 44 41 53 45 42 53 45 42 53 43 41 53 45 42 52 44 41 53 45 42 53 45 42 53 45 42 52 44 41 53 45 42 53 45 42 53 45 42 51 46 42 50 45 41 52 44 41 54 46 43 54 46 43 54 46 43 53 45 42 54 46 43 54 46 43 52 47 43 55 45 43 54 46 44 53 45 43 52 47 43 51 46 43 53 45 42 53 45 42 55 47 44 53 48 44 53 48 44 52 47 43 51 46 42 52 47 43 51 46 42 
51 42 35 51 42 37 51 42 37 52 43 36 52 43 38 52 43 38 50 41 36 52 43 38 52 43 38 52 43 38 52 43 38 52 43 38 52 43 38 52 45 39 52 43 38 52 42 40 53 44 39 54 44 42 53 46 40 53 44 37 53 43 41 53 43 41 54 44 42 53 43 41 52 44 41 53 43 41 52 44 41 53 43 41 52 43 38 52 43 38 52 44 41 52 44 41 53 45 42 53 45 42 53 43 41 52 42 40 53 43 41 53 43 41 51 43 40 54 44 42 53 45 42 54 44 42 52 44 41 53 43 41 54 44 42 49 44 40 51 43 40 52 42 40 52 44 41 52 44 41 53 43 41 52 44 41 53 43 41 53 43 41 53 43 41 53 43 41 53 43 41 54 44 42 53 43 41 54 44 42 52 44 41 52 44 41 53 43 41 52 44 41 53 45 42 52 44 41 54 44 42 52 44 41 53 45 42 53 45 42 52 44 41 53 45 42 52 44 41 53 45 42 53 45 42 53 45 42 53 45 42 53 45 42 52 44 41 53 45 42 53 45 42 53 45 42 54 46 43 52 47 43 53 45 42 53 45 42 53 45 42 53 45 43 53 45 43 53 45 42 52 47 43 53 45 42 53 45 43 54 46 44 54 46 44 51 46 43 51 46 43 51 46 43 52 47 44 52 47 44 
51 42 35 52 43 38 53 44 39 52 43 36 51 42 37 51 42 37 51 42 37 52 43 38 53 44 39 52 43 38 52 43 38 52 43 38 53 44 39 52 43 38 52 43 38 53 44 39 53 43 41 54 45 40 53 44 39 52 43 38 54 44 42 53 43 41 53 43 41 52 42 40 52 42 40 52 44 41 52 44 41 52 42 40 52 43 38 52 43 38 51 43 40 52 44 41 53 45 42 53 45 42 53 43 41 52 42 40 53 43 41 54 44 42 54 44 42 53 45 42 54 44 42 53 43 41 54 44 42 54 44 42 52 44 41 51 41 39 52 44 41 52 44 41 52 42 40 53 43 41 53 45 42 53 43 41 53 43 41 52 42 40 53 43 41 53 43 41 53 43 41 54 44 42 53 43 41 53 43 41 52 44 41 53 43 41 52 44 41 52 44 41 52 44 41 54 43 41 52 44 41 51 43 40 51 43 40 52 44 41 52 44 41 53 45 42 53 45 42 52 44 41 52 44 41 53 45 42 53 45 42 53 45 42 52 44 41 53 45 42 53 45 42 54 46 43 53 45 42 53 45 42 53 45 42 53 45 42 53 45 42 53 45 43 52 44 42 54 46 43 54 46 43 52 47 43 51 46 43 54 46 44 54 46 44 53 45 43 51 46 43 52 47 44 51 46 43 50 45 42 
52 41 37 52 43 38 52 43 38 51 44 38 56 42 39 52 43 38 51 42 37 52 43 38 51 44 38 51 44 38 52 43 38 54 45 40 52 43 38 53 44 39 53 44 39 53 44 39 52 43 38 52 43 38 53 44 39 53 44 39 52 44 41 53 44 39 53 43 41 52 45 39 51 43 40 53 44 39 52 42 40 51 44 38 51 43 40 53 45 42 53 43 41 52 44 41 53 43 41 53 45 42 52 42 40 51 43 40 51 43 40 53 43 41 52 42 40 52 44 41 52 44 41 52 42 40 52 42 40 52 44 41 53 43 41 52 42 40 52 42 40 53 43 41 52 42 40 52 42 40 52 42 40 52 42 40 52 44 41 51 43 40 52 44 41 52 44 41 52 44 41 52 42 40 52 42 40 52 42 40 52 44 41 52 42 40 53 42 40 52 42 40 52 42 40 51 43 40 51 43 40 52 42 40 51 43 40 51 43 40 53 45 42 52 44 41 52 44 41 52 44 41 52 44 41 53 46 40 52 44 41 52 44 41 53 45 42 54 46 43 53 45 42 53 45 42 54 46 43 54 46 43 53 45 42 53 45 42 54 46 43 53 45 42 53 45 42 53 45 43 53 45 43 53 44 45 53 45 43 54 46 43 54 46 43 54 46 43 52 47 44 51 46 43 51 46 43 51 46 42 
51 40 36 52 41 37 52 43 38 51 42 37 52 43 38 51 42 37 52 41 37 53 44 39 52 45 39 53 44 39 54 43 39 53 44 39 53 44 39 53 44 39 52 43 38 53 44 39 52 43 38 53 44 39 54 45 40 54 45 40 53 44 39 53 44 39 52 42 40 52 43 38 53 43 41 53 44 39 52 42 40 52 43 38 51 41 39 52 44 41 52 42 40 51 43 40 52 42 40 51 43 40 48 45 40 52 42 40 53 43 41 52 42 40 51 41 39 53 43 41 54 44 42 52 44 41 51 43 40 52 44 41 53 43 41 52 42 40 52 42 40 52 43 38 53 44 39 52 42 40 51 41 39 53 43 41 52 42 40 52 42 40 52 42 40 54 44 42 52 44 41 52 44 41 52 44 41 51 43 40 52 42 40 53 43 41 54 43 41 52 42 40 51 43 40 51 43 40 52 44 41 52 44 41 51 43 40 53 45 42 52 44 41 52 44 41 52 44 41 53 45 42 52 44 41 53 45 42 53 45 42 52 44 41 52 44 41 54 46 43 52 44 41 53 45 42 54 46 43 53 45 42 53 45 42 53 45 42 54 46 43 53 45 42 53 45 42 53 45 42 53 45 43 53 45 43 54 46 44 54 46 43 54 46 43 53 45 42 49 44 41 51 46 43 51 46 43 51 46 42 
51 40 36 52 41 37 52 41 37 51 42 37 55 41 38 52 41 37 53 42 38 51 42 37 52 43 38 53 44 39 52 43 38 53 44 39 52 43 38 52 43 38 52 43 38 52 43 38 52 43 38 53 44 39 52 43 38 53 44 39 52 43 38 52 45 39 50 43 37 52 43 38 53 44 39 51 44 38 51 44 38 52 43 38 51 43 40 52 42 40 52 44 41 51 43 40 52 42 40 53 43 41 52 41 39 51 43 40 53 43 41 51 43 40 51 43 40 52 42 40 53 43 41 52 42 40 52 42 40 53 42 40 52 44 41 52 44 41 51 43 40 52 45 39 52 45 39 50 42 39 50 42 39 52 44 41 52 43 38 52 43 38 52 43 38 52 43 38 53 44 39 50 43 37 52 45 39 52 45 39 51 43 40 52 42 40 52 42 40 51 43 40 51 43 40 51 43 40 52 44 41 51 43 40 50 42 39 53 45 42 53 43 41 52 44 41 52 44 41 53 45 42 51 46 42 52 44 41 53 45 42 53 45 42 53 45 42 53 45 42 52 44 41 52 44 41 54 46 43 53 45 42 53 45 42 53 45 42 54 46 43 53 45 42 53 45 42 53 45 42 53 45 42 53 45 43 54 46 44 53 45 42 54 46 43 53 45 42 51 46 43 52 47 44 51 46 43 52 47 43 
52 41 37 52 41 37 53 42 38 52 41 37 52 41 37 52 41 37 50 41 36 51 42 37 52 41 37 51 42 37 52 43 38 52 41 37 52 43 38 51 42 37 52 43 38 52 43 38 52 43 38 51 42 37 53 44 39 52 43 38 53 44 39 54 45 40 53 44 39 53 44 39 53 44 39 53 44 39 54 45 40 53 44 39 53 42 40 50 45 41 55 44 42 53 43 41 53 43 41 53 43 41 52 42 40 52 42 40 52 42 40 52 42 40 53 43 41 52 42 40 52 42 40 53 43 41 53 43 41 53 43 41 51 44 38 52 45 39 52 44 41 53 45 42 50 42 39 51 43 40 51 44 38 51 44 38 52 45 39 52 45 39 52 45 39 52 43 38 52 43 38 53 44 39 53 44 39 52 43 38 50 42 39 51 43 40 51 43 40 51 43 40 51 43 40 50 42 39 51 43 40 52 44 41 52 44 41 52 44 41 50 45 41 52 44 41 53 45 42 52 44 41 53 45 42 50 45 41 53 45 42 52 44 41 53 45 42 54 46 43 53 45 42 53 45 42 53 45 42 53 45 42 53 45 42 53 45 42 53 45 42 53 45 42 52 44 41 53 45 42 54 46 43 53 45 42 53 45 43 53 45 42 54 46 43 52 44 41 50 45 42 50 45 42 52 47 44 52 47 43 
51 40 34 52 41 35 52 41 35 52 41 35 52 41 37 51 40 36 52 41 37 53 42 38 52 43 38 54 43 39 53 42 38 52 43 38 52 43 38 51 42 37 51 42 37 51 42 37 52 43 38 51 42 37 54 45 40 53 44 39 52 43 38 53 44 39 52 43 38 53 44 39 53 44 39 52 43 38 52 43 38 53 44 39 52 43 38 52 43 38 54 45 40 52 43 38 53 44 39 53 44 39 54 43 39 54 45 40 53 43 41 52 42 40 53 43 41 52 42 40 52 42 40 53 43 41 52 42 40 52 42 40 52 43 38 53 44 39 53 43 41 53 43 41 53 43 41 52 42 40 52 43 38 51 42 37 52 45 39 53 44 39 53 44 39 52 43 38 53 44 39 52 43 38 53 44 39 52 43 38 52 42 40 52 42 40 51 43 40 51 43 40 51 43 40 51 43 40 52 44 41 51 43 40 54 44 42 52 44 41 51 43 40 52 44 41 52 44 41 52 44 41 52 44 41 52 44 41 52 44 41 53 45 42 52 44 41 51 43 40 52 44 41 53 45 42 52 44 41 53 45 42 53 45 42 53 45 42 53 45 42 52 44 41 53 45 42 53 45 42 54 46 43 53 45 42 53 45 43 55 47 44 54 46 43 53 45 42 51 46 43 50 45 42 50 45 42 51 46 42 
51 40 34 51 40 34 52 41 35 51 40 34 51 40 34 52 41 37 51 40 36 53 42 38 51 42 37 52 41 37 53 42 38 51 42 37 51 42 37 51 42 37 51 42 37 52 43 38 52 43 38 52 43 38 53 44 39 52 43 38 52 43 38 52 43 38 52 43 38 52 43 38 52 43 38 52 43 38 53 44 39 52 43 38 53 44 39 53 44 39 52 45 39 52 43 38 52 43 38 52 43 38 51 42 37 52 43 38 53 42 38 52 43 38 53 44 39 53 44 39 52 43 38 51 42 37 53 44 39 54 45 40 53 43 41 53 44 39 52 43 38 52 43 38 52 43 38 53 44 39 52 43 38 51 41 39 51 41 39 52 42 40 52 42 40 52 42 40 52 42 40 53 43 41 52 42 40 52 42 40 51 41 39 52 42 40 51 43 40 51 43 40 52 42 40 51 43 40 51 43 40 51 43 40 52 43 38 53 44 39 53 45 42 51 43 40 51 43 40 52 44 41 52 44 41 52 44 41 53 45 42 51 43 40 51 43 40 51 43 40 53 45 42 53 45 42 53 45 42 52 44 41 53 45 42 53 45 42 53 45 42 52 44 41 53 45 42 53 45 42 53 45 42 53 45 42 54 46 44 53 45 42 53 45 42 53 45 42 50 45 42 50 45 42 51 46 43 50 45 41 
51 40 34 52 41 35 51 40 34 52 41 35 51 40 34 52 41 35 52 41 37 52 41 37 51 42 37 52 43 38 50 41 36 51 40 36 52 43 38 52 43 38 51 42 37 52 43 38 52 43 38 52 43 38 53 44 39 52 43 38 52 43 38 51 42 37 52 43 38 52 43 38 52 43 38 52 43 38 53 44 39 52 43 38 52 43 38 52 43 38 52 43 38 52 43 38 51 44 38 52 43 38 51 44 38 52 43 38 52 42 40 52 42 40 51 41 39 52 42 40 52 42 40 51 41 39 53 43 41 52 42 40 53 43 41 51 42 37 51 42 37 51 42 37 52 43 38 50 41 36 53 44 39 51 41 39 52 43 38 51 42 37 52 43 38 50 41 36 53 44 39 52 43 38 52 43 38 52 43 38 51 42 37 51 42 37 51 42 37 52 43 38 52 43 38 52 43 38 52 43 38 51 44 38 51 44 38 51 44 38 52 44 41 51 43 40 52 44 41 52 44 41 52 44 41 51 43 40 53 45 42 51 43 40 52 44 41 51 43 40 51 43 40 53 45 42 53 45 42 52 44 41 53 45 42 53 45 42 53 45 42 53 45 42 53 45 42 53 45 42 53 45 42 53 45 42 52 44 42 53 45 42 54 46 43 53 45 42 51 46 43 51 46 43 51 46 43 51 46 42 
50 39 33 51 40 34 51 40 34 51 40 34 51 41 32 52 41 35 53 42 36 52 41 37 52 41 37 53 42 38 52 41 37 51 42 37 50 41 36 51 42 37 52 43 38 51 42 37 52 43 38 52 43 38 52 43 38 52 43 38 51 42 37 51 42 37 52 43 38 52 43 38 52 43 38 51 42 37 52 43 38 52 43 38 52 43 38 52 43 38 52 43 38 52 43 38 52 43 38 52 43 38 52 43 38 52 43 38 51 42 37 50 41 36 51 42 37 52 43 38 53 44 39 53 44 39 52 43 38 51 42 37 51 42 37 52 43 38 51 42 37 51 42 37 52 43 38 51 42 37 51 42 37 51 42 37 51 42 37 52 43 38 51 42 37 52 43 38 52 43 38 51 42 37 51 42 37 51 40 36 51 42 37 52 41 37 52 43 38 52 43 38 52 43 38 52 43 38 52 43 38 51 44 38 52 43 38 51 44 38 51 43 40 53 43 41 51 41 39 52 42 40 53 44 39 53 46 40 52 44 41 52 44 41 51 43 40 51 43 40 52 44 41 51 43 40 53 45 42 51 43 40 52 44 41 53 45 42 54 46 43 54 46 43 53 45 42 51 43 40 54 46 43 52 44 41 53 45 43 54 46 43 53 45 42 53 45 42 50 45 42 50 45 42 50 45 42 51 46 42 
51 40 34 50 39 33 51 40 34 52 41 35 52 41 35 52 41 35 52 41 35 51 40 34 51 40 34 52 41 37 52 43 38 52 41 39 52 43 38 51 42 37 52 43 38 51 42 37 51 42 37 51 42 37 53 44 39 51 41 39 52 43 38 51 42 37 52 43 38 51 42 37 51 42 37 52 43 38 51 42 37 52 43 38 52 43 38 52 43 38 52 43 38 52 43 38 51 42 37 51 42 37 52 43 38 52 43 38 52 43 38 52 43 38 52 43 38 52 43 38 51 42 37 52 43 38 52 43 38 52 43 38 51 42 37 52 43 38 53 44 39 52 43 38 52 43 38 52 43 38 51 42 37 51 42 37 51 42 37 51 42 37 51 42 35 52 43 38 52 43 38 52 43 36 51 42 37 51 42 37 50 41 36 51 42 37 51 42 37 51 42 37 51 42 37 52 43 38 51 42 37 51 42 37 52 41 39 51 43 40 53 42 40 51 43 40 51 43 40 51 43 40 52 44 41 52 44 41 52 45 39 52 45 39 52 44 41 51 43 40 52 44 41 52 44 41 53 45 42 52 44 41 53 45 42 52 44 41 53 45 42 52 44 41 53 45 42 51 43 40 52 44 41 53 45 43 53 45 42 51 46 42 51 46 42 52 47 43 52 44 41 51 46 42 52 47 43 53 45 42 
50 39 33 51 40 34 51 40 34 51 40 34 52 41 35 51 40 34 51 40 34 52 41 35 51 40 34 51 40 34 51 42 37 52 41 37 52 41 37 50 41 36 51 42 37 51 42 37 50 41 36 51 42 37 51 42 37 52 43 38 52 43 38 51 42 37 51 42 37 51 42 37 51 42 37 51 42 37 51 42 37 52 43 38 52 43 38 52 43 38 52 43 38 52 43 38 52 43 38 52 43 38 52 43 38 52 43 38 50 40 38 51 41 39 53 43 41 53 43 41 51 41 39 51 41 39 51 41 39 51 41 39 51 42 37 51 42 37 52 43 38 52 43 38 51 42 37 51 42 37 51 42 37 49 40 35 51 42 37 51 42 37 52 43 38 52 43 38 52 43 38 52 43 38 52 43 38 51 42 37 51 42 37 51 42 37 51 42 37 51 42 37 51 42 37 52 43 38 51 42 37 51 42 37 53 43 41 52 42 40 51 41 39 51 43 40 52 42 40 52 44 41 52 44 41 52 44 41 51 44 38 51 44 38 52 42 40 52 44 41 52 44 41 53 43 41 52 44 41 52 44 41 52 44 41 52 44 41 53 45 42 52 44 41 53 45 42 51 43 40 53 45 42 53 45 42 53 45 42 54 44 42 52 44 41 51 46 42 52 47 43 53 45 42 53 45 42 51 46 42 
51 40 34 52 41 35 52 41 35 52 41 35 52 41 35 52 41 35 52 41 35 52 41 35 52 41 35 50 39 33 51 40 34 52 41 37 52 41 37 52 41 37 52 41 35 52 43 38 51 42 37 50 41 36 51 42 37 51 42 37 51 42 37 51 42 37 51 42 37 51 42 37 51 42 37 51 42 37 52 43 38 52 43 38 51 42 37 51 42 37 52 43 38 52 43 38 51 42 37 52 43 38 51 42 37 52 43 38 52 43 38 52 43 38 52 43 38 51 42 37 52 43 38 52 43 38 51 42 37 52 43 38 51 42 37 51 42 37 51 42 37 51 42 37 52 43 38 52 43 38 50 41 36 51 42 37 51 42 37 52 43 38 52 43 38 52 43 36 52 43 36 52 43 38 51 42 37 51 42 37 52 43 38 51 42 37 51 42 37 51 42 37 51 42 37 51 42 37 52 43 38 51 42 37 52 42 40 53 43 41 52 42 40 51 43 40 53 43 41 52 44 41 51 43 40 52 44 41 51 44 38 52 45 39 52 44 41 51 43 40 52 44 41 52 44 41 52 44 41 52 44 41 51 44 38 51 44 38 52 44 41 53 45 42 52 44 41 52 44 41 53 45 42 53 45 42 53 45 42 52 44 41 51 46 42 53 45 42 51 46 42 53 45 42 52 47 43 52 47 43 
51 40 34 51 40 34 52 41 35 51 40 34 51 40 34 51 40 34 50 39 33 51 40 34 53 42 36 51 40 34 50 39 33 52 41 35 52 41 37 53 42 36 52 41 37 53 42 38 51 42 37 52 43 38 51 42 37 53 42 38 51 42 37 51 42 37 51 42 37 51 42 37 52 43 38 52 43 38 51 42 37 52 43 38 51 42 37 51 42 37 51 42 37 51 42 37 51 42 37 51 42 37 51 42 37 51 42 37 51 42 37 50 41 36 51 42 37 50 41 36 51 42 37 51 42 37 52 43 38 51 42 37 52 43 38 51 42 37 50 41 36 50 41 36 50 41 36 51 42 37 51 42 37 50 41 36 50 41 36 51 42 37 51 42 37 50 41 36 51 42 37 50 41 36 50 41 36 50 41 36 51 42 37 51 42 37 51 42 37 51 42 37 51 42 37 52 43 38 50 41 36 52 43 38 51 42 37 52 43 38 52 43 38 53 44 39 51 42 37 51 44 38 53 44 39 51 44 38 51 44 38 51 44 38 51 43 40 52 44 41 51 43 40 52 44 41 51 43 40 52 44 41 52 45 39 51 44 38 52 44 41 52 44 41 52 44 41 52 44 41 52 44 41 53 45 43 52 44 41 52 44 41 52 44 41 51 46 42 50 45 41 52 44 41 54 46 43 50 45 41 
49 38 32 51 40 34 51 40 34 50 39 33 51 40 34 50 39 33 51 40 34 52 41 35 51 40 34 52 41 35 53 42 36 51 40 34 50 41 34 52 41 35 52 41 37 52 41 35 52 43 38 52 43 38 52 43 38 51 42 37 51 42 37 51 42 37 51 42 37 51 42 37 51 42 37 51 42 37 51 42 37 52 43 38 52 43 38 51 42 37 51 42 37 52 43 38 51 42 37 51 42 37 52 43 38 51 42 37 50 41 36 51 42 37 50 41 36 50 41 36 51 42 37 51 42 37 51 42 37 51 42 37 51 42 37 50 41 36 50 41 36 50 41 36 51 42 37 51 42 37 49 40 35 50 41 36 51 42 37 51 42 37 51 42 37 51 42 37 50 41 36 51 42 37 51 42 37 51 42 37 51 42 37 51 42 37 51 42 37 52 43 38 51 42 37 51 42 37 51 42 37 51 42 37 51 42 37 51 42 37 52 43 38 51 42 37 51 42 37 52 45 39 52 43 38 51 44 38 50 43 37 51 44 38 51 43 40 50 42 39 51 43 40 51 43 40 50 42 39 52 44 41 51 43 40 52 44 41 51 43 40 52 44 41 52 44 41 52 44 41 52 44 41 53 45 42 54 44 42 53 45 42 53 45 42 52 44 41 52 44 41 51 46 42 51 46 42 53 45 42 
51 40 34 51 40 34 51 40 34 51 40 34 52 41 35 50 39 33 50 39 33 51 40 34 51 40 34 51 40 34 52 41 35 51 40 34 52 42 33 53 42 38 51 40 34 52 41 37 52 41 35 52 43 38 50 41 36 51 42 37 52 43 38 51 42 37 51 42 37 52 43 38 51 42 37 51 42 37 52 43 38 51 42 37 52 43 38 52 43 38 51 42 37 51 42 37 51 42 37 51 42 37 51 42 37 51 42 37 52 43 38 50 41 36 51 42 37 50 41 36 49 40 35 51 42 37 50 41 36 50 41 36 50 41 36 51 42 37 50 41 36 50 41 36 51 42 37 50 41 36 50 41 36 51 42 37 50 41 36 50 41 36 51 42 37 52 43 36 51 42 35 51 42 37 51 42 37 50 41 36 51 42 37 51 42 37 51 42 37 51 42 37 51 42 37 51 42 37 50 41 36 51 42 37 51 42 37 51 42 37 51 42 37 51 42 37 52 43 38 52 43 38 52 43 38 52 43 38 50 43 37 52 43 38 51 43 40 52 42 40 51 41 39 51 43 40 52 42 40 51 43 40 52 44 41 51 43 40 52 44 41 52 44 41 52 44 41 52 44 41 51 43 40 52 44 41 52 44 41 53 45 42 52 44 41 51 46 42 52 44 41 50 45 41 53 45 42 52 44 41 
53 40 34 50 39 33 53 40 34 52 41 35 51 40 34 53 40 34 51 40 34 51 40 34 51 40 34 51 40 34 52 41 35 52 41 35 52 41 37 52 41 35 52 41 37 52 41 35 52 41 37 53 42 36 51 40 36 51 42 37 50 41 36 51 42 37 51 42 37 51 42 37 51 42 37 50 41 36 51 42 37 50 41 36 50 41 36 51 42 37 51 42 37 51 42 37 51 42 37 49 40 35 52 43 38 51 42 37 50 41 36 50 41 36 51 42 37 50 41 36 50 41 36 49 40 35 50 41 36 50 41 36 50 41 36 50 41 36 50 41 36 50 41 36 50 41 36 50 41 36 49 40 35 50 41 36 50 41 36 50 41 36 50 41 36 50 41 36 50 41 36 50 41 36 50 41 36 50 41 36 50 41 36 50 41 36 49 40 35 52 43 38 50 41 36 51 42 37 51 42 37 51 42 37 50 41 36 51 42 37 51 42 37 52 43 38 52 43 38 52 43 38 52 43 38 52 43 38 52 43 38 51 44 38 52 42 40 51 41 39 51 41 39 52 42 40 52 44 41 54 44 42 51 44 38 52 44 41 51 43 40 52 44 41 52 44 41 52 44 41 52 44 41 52 44 42 53 45 42 51 43 40 52 44 41 52 44 41 51 43 40 52 44 41 53 45 42 53 43 41 
53 40 34 50 39 33 53 40 34 51 40 34 51 40 34 53 40 34 51 40 34 51 40 34 51 40 34 51 40 34 52 41 35 52 41 35 51 40 34 52 41 35 51 40 34 51 40 34 52 41 35 52 41 39 52 41 37 52 41 37 51 42 37 51 42 37 50 41 36 51 42 37 51 42 37 50 41 36 50 41 36 50 41 36 50 41 36 50 41 36 51 42 37 51 42 37 51 42 37 50 41 36 51 42 37 51 42 37 50 41 34 50 41 34 50 41 34 51 42 35 50 41 34 51 42 35 50 41 34 49 40 33 50 41 36 50 41 36 50 41 36 50 41 36 51 42 37 51 42 37 50 41 36 50 41 36 51 42 37 50 41 36 50 41 34 50 41 36 51 42 37 50 41 34 50 41 36 50 41 36 49 40 35 50 41 36 51 42 37 51 42 37 51 42 37 50 41 36 50 41 36 50 41 36 51 42 37 51 42 37 51 42 37 52 43 38 51 42 37 52 43 38 52 43 38 52 43 38 51 44 38 53 44 39 51 43 40 51 41 39 51 41 39 51 43 40 53 43 41 51 43 40 52 45 39 51 44 38 52 44 41 52 44 41 52 44 41 52 44 41 52 44 41 52 44 41 52 44 41 51 43 40 53 45 42 51 43 40 50 45 41 53 45 42 53 45 42 53 45 42 
50 39 35 50 39 33 50 39 33 51 40 34 51 40 34 50 39 33 51 40 34 51 40 34 51 40 34 51 40 34 51 40 34 51 40 34 51 40 34 53 40 34 50 39 33 51 40 34 49 40 33 51 42 35 51 40 36 52 41 39 51 42 37 51 42 37 50 41 36 50 41 36 50 41 36 51 42 37 50 41 36 52 43 38 51 42 33 51 42 35 50 41 36 51 42 35 50 41 36 50 41 34 53 44 39 51 42 37 50 41 34 50 41 36 49 40 35 50 41 36 50 41 36 51 42 37 51 42 37 50 41 36 50 41 36 50 41 34 49 40 35 50 41 34 50 41 36 49 40 33 49 40 35 50 41 34 50 41 36 49 40 35 48 39 34 50 41 36 49 40 35 50 41 36 50 41 36 51 42 37 49 40 35 52 43 38 50 41 36 51 42 37 51 42 37 51 42 37 51 42 37 50 41 36 50 41 36 50 41 36 51 42 37 52 43 38 51 42 37 52 43 38 53 44 39 53 44 39 53 44 39 52 43 38 52 43 38 51 42 37 50 43 37 51 44 38 53 44 39 49 44 38 53 45 42 52 44 41 51 43 40 52 44 41 53 45 42 51 43 40 51 43 40 52 44 41 52 44 41 54 44 42 51 43 40 52 44 41 51 43 40 52 44 41 52 44 41 53 45 42 
50 39 33 50 39 33 51 41 32 50 39 35 50 39 33 50 39 33 50 39 33 51 40 34 51 40 34 51 40 34 50 39 33 50 39 33 51 40 34 52 39 33 51 40 34 50 39 33 51 40 34 52 43 36 52 41 37 51 42 37 51 42 37 50 41 34 50 41 36 51 42 37 50 41 34 51 42 37 50 41 36 50 41 36 50 41 36 49 40 33 50 41 34 51 42 35 51 42 35 50 39 35 51 42 35 50 41 34 50 41 34 51 42 35 49 40 33 50 41 36 50 41 36 50 41 34 51 42 35 50 41 34 52 43 36 50 41 34 49 40 35 50 41 34 49 40 35 50 41 34 51 42 37 48 39 32 50 41 36 49 40 35 49 40 35 49 40 35 49 40 35 50 41 36 50 41 36 50 41 36 51 42 35 51 40 36 51 42 37 51 40 36 50 41 36 51 40 36 51 42 37 52 41 37 50 41 36 50 41 36 51 42 37 51 42 37 51 42 37 50 41 36 51 42 37 52 43 38 51 42 37 51 42 37 51 42 37 51 42 37 51 42 37 51 42 37 52 43 38 52 43 38 52 42 40 52 42 40 53 43 41 50 42 39 51 43 40 52 44 41 52 44 41 52 44 41 51 43 40 53 43 41 52 44 41 52 44 41 53 45 42 53 45 42 51 43 40 52 44 41 
50 40 31 51 40 34 50 40 31 50 39 33 50 39 33 49 38 32 50 39 33 50 39 33 51 40 34 51 40 34 50 39 33 50 39 33 52 41 35 49 38 32 50 39 33 51 40 34 52 41 35 52 41 35 52 41 37 51 40 36 51 42 35 51 42 37 50 41 34 50 41 34 51 42 37 50 41 36 50 41 34 50 41 36 51 42 35 51 40 34 51 41 32 51 42 35 50 41 34 51 42 37 50 39 35 50 41 34 50 39 33 51 40 34 51 40 34 51 40 36 51 40 36 51 40 36 51 40 34 52 42 33 51 42 35 50 41 34 49 40 33 50 41 34 49 40 33 49 40 33 48 39 32 49 40 33 49 40 33 49 40 33 49 40 33 50 41 34 49 40 33 50 41 34 50 41 34 50 41 34 49 40 33 50 41 34 51 42 35 53 39 36 50 41 36 53 42 38 50 41 36 50 41 36 51 42 37 50 41 36 50 41 36 51 42 37 51 42 37 50 41 36 51 42 37 51 42 37 51 42 37 51 42 37 52 43 38 51 44 38 51 42 37 51 42 37 51 44 38 51 42 37 52 42 40 52 42 40 52 42 40 52 42 40 52 42 40 52 42 40 52 42 40 52 42 40 53 43 41 53 45 42 52 44 41 52 44 41 52 44 41 52 44 41 52 44 41 52 44 41 
49 39 30 50 39 33 51 41 32 50 39 33 51 40 34 50 39 33 50 39 33 50 39 33 50 39 33 51 40 34 50 39 33 51 40 34 51 40 34 50 39 33 50 39 33 51 40 34 52 41 35 52 41 35 50 41 34 50 41 36 52 41 37 52 41 35 51 40 34 51 40 36 51 40 34 52 41 35 51 40 36 51 40 34 52 41 35 49 40 33 50 41 34 52 41 35 50 39 33 50 39 33 49 40 33 51 40 36 48 39 32 49 40 35 49 40 33 50 41 36 50 41 34 51 42 37 49 40 33 50 41 34 50 39 33 51 40 34 52 41 35 51 40 34 50 39 33 51 40 34 50 39 33 51 40 34 51 40 34 51 40 34 51 40 34 49 38 32 51 40 34 51 40 34 51 40 34 50 39 33 50 41 34 50 41 34 49 40 33 50 41 34 50 41 36 50 41 36 50 41 36 50 41 34 50 41 36 49 40 35 50 41 36 50 41 36 50 41 36 50 41 36 50 41 36 51 42 37 51 42 37 50 41 36 51 42 37 51 44 38 52 43 38 50 43 37 50 43 37 50 43 37 52 42 40 52 42 40 51 41 39 51 41 39 52 42 40 53 43 41 54 44 42 52 42 40 51 43 40 53 43 41 52 44 41 52 44 41 51 43 40 52 44 41 52 44 41 54 46 43 
