P3
100 50
255
46 36 27 44 35 26 46 36 27 47 34 26 47 34 25 47 34 25 46 33 24 47 34 25 48 35 26 47 34 25 47 34 25 47 34 25 47 34 25 47 34 25 46 33 24 47 34 25 47 34 25 46 33 24 46 33 24 46 33 24 46 33 24 47 35 23 46 34 22 47 35 23 47 34 25 46 33 24 47 34 25 46 34 22 46 33 24 46 33 24 46 34 22 47 35 23 46 34 22 47 35 23 46 32 23 47 33 24 46 34 22 46 32 23 46 34 22 44 31 22 46 32 23 46 32 21 46 33 24 46 34 22 46 34 22 47 34 25 46 33 24 46 33 24 46 34 22 45 33 21 46 34 22 45 32 23 45 33 21 46 34 22 46 33 24 46 33 24 46 33 24 46 33 24 46 33 24 46 33 24 46 33 24 45 32 23 46 33 24 46 33 24 46 33 24 46 33 24 46 33 24 47 34 25 45 32 23 46 33 24 46 33 24 47 34 25 46 33 24 47 34 25 47 34 25 47 34 25 47 34 25 47 34 25 46 33 24 47 34 25 47 34 25 47 34 25 46 33 25 45 35 25 47 34 25 47 34 25 47 34 25 46 33 24 46 33 24 48 35 26 49 36 27 48 35 26 46 33 24 46 33 24 47 34 25 46 33 24 46 33 24 46 33 24 47 34 25 46 33 24 
47 37 28 45 36 27 46 36 27 48 38 29 47 34 25 48 35 26 48 35 26 47 34 25 47 34 25 46 33 24 46 33 24 45 35 25 46 33 24 47 34 25 47 34 25 46 33 24 47 34 25 47 34 25 47 34 25 47 34 25 47 34 25 46 34 22 46 34 22 46 34 22 47 34 25 45 32 23 47 34 25 48 36 24 45 32 23 46 33 24 46 34 22 47 35 23 46 34 22 47 35 23 46 32 23 47 33 24 46 33 24 46 32 21 45 32 23 46 34 22 46 32 21 46 32 23 46 34 22 45 32 23 46 33 24 47 35 23 46 34 22 46 34 22 46 33 24 45 32 23 45 32 23 45 33 21 46 34 22 47 35 23 45 32 23 45 32 23 46 33 24 45 32 23 46 33 24 46 33 24 45 32 23 44 31 22 47 34 25 45 32 23 45 32 23 46 33 24 46 33 24 47 34 25 46 33 24 46 33 24 46 33 24 46 33 24 48 35 26 47 34 25 47 34 25 47 34 25 47 34 25 47 34 25 47 34 25 46 33 24 48 35 26 47 34 25 46 33 24 47 34 25 48 35 26 46 33 24 46 33 24 47 34 25 47 34 25 47 34 25 48 35 26 47 34 25 47 34 25 45 32 23 47 34 25 46 33 24 46 33 24 45 32 23 47 34 25 46 33 24 
47 37 28 46 36 27 46 36 27 47 37 28 47 34 26 47 34 26 48 35 27 47 34 25 46 33 24 46 33 24 47 34 25 48 35 26 47 34 25 47 34 25 46 33 24 47 34 25 47 34 25 47 35 23 47 35 23 47 34 25 48 35 26 47 34 25 47 34 25 47 34 25 46 33 24 46 33 24 47 34 25 47 34 25 46 34 22 46 33 24 45 32 23 45 33 21 46 34 22 46 33 24 45 32 23 46 34 22 47 33 22 47 33 24 47 33 24 47 33 24 46 32 21 46 32 21 46 32 21 47 33 24 47 33 22 46 33 24 46 34 22 46 34 20 45 33 21 45 33 21 45 32 23 43 33 21 45 33 21 46 33 24 46 33 24 45 32 23 46 33 24 46 33 24 46 33 24 46 33 24 45 32 23 45 32 23 45 32 23 46 33 24 45 32 23 46 33 24 46 33 24 46 33 24 47 33 24 46 32 23 48 34 25 47 34 25 47 34 25 45 35 25 45 35 25 44 34 24 46 33 24 47 34 25 47 34 25 48 35 26 47 34 25 47 34 25 47 34 25 48 35 26 47 34 25 46 33 24 47 34 25 45 32 23 45 32 23 47 34 25 47 34 26 47 34 26 47 34 28 47 34 26 47 34 26 46 33 24 46 33 24 45 32 23 46 33 24 46 33 24 
46 36 27 48 38 29 46 36 27 45 35 26 47 34 26 48 35 27 48 35 27 47 34 25 46 33 24 47 34 25 47 34 25 47 34 25 47 34 25 47 34 25 47 34 25 47 35 23 47 34 25 46 33 24 46 33 24 46 34 22 46 33 24 46 33 24 46 33 24 46 33 24 47 34 25 47 35 23 46 34 22 47 35 23 46 34 22 46 33 24 46 33 24 46 34 22 46 34 22 45 32 23 45 32 23 45 33 21 46 32 21 47 33 24 47 33 24 47 33 24 46 32 21 46 32 21 46 32 21 46 32 23 44 31 22 45 33 21 46 34 22 45 32 23 45 33 21 45 32 23 45 33 21 45 32 23 45 33 21 45 33 21 46 34 22 46 33 24 46 33 24 46 33 24 46 33 24 45 32 23 45 32 23 46 33 24 47 34 25 46 34 22 45 32 23 46 33 24 46 33 24 46 34 22 46 33 24 47 34 25 46 33 24 47 34 25 47 34 25 47 34 25 46 33 24 47 34 25 47 34 25 47 34 25 48 35 26 46 33 24 46 33 24 47 34 25 44 34 24 45 35 25 47 34 25 47 34 25 46 33 24 46 33 24 47 34 25 47 34 25 47 34 25 46 33 24 46 33 25 47 34 26 47 34 25 47 34 25 47 34 25 47 34 25 47 34 25 46 33 24 
48 38 29 45 35 26 45 35 26 46 36 27 47 34 26 46 33 25 47 34 26 47 34 25 47 34 25 47 34 25 47 34 25 47 34 25 47 34 25 48 35 26 46 33 24 47 34 25 46 33 24 46 33 24 47 34 25 46 33 24 47 34 25 47 34 25 46 33 24 45 32 23 45 32 23 46 34 22 47 35 23 46 34 22 45 33 21 45 32 23 46 33 24 46 34 22 46 34 22 45 32 23 46 33 24 46 34 22 45 33 21 46 33 24 46 33 24 46 33 24 46 34 22 46 34 22 45 33 21 45 32 23 46 32 23 46 32 21 45 32 23 44 32 20 44 31 22 46 34 22 44 34 22 43 33 23 45 33 21 44 32 20 46 34 22 45 32 23 46 33 24 45 32 23 46 33 24 44 31 22 47 34 25 45 32 23 46 33 24 46 33 24 46 33 24 46 33 24 47 34 25 46 33 24 45 32 23 47 34 25 46 33 24 47 34 25 47 34 25 47 34 25 47 34 25 46 33 24 47 34 25 48 35 26 46 33 24 47 34 25 47 34 25 46 33 24 44 34 24 44 34 24 46 33 24 47 34 25 47 34 25 47 34 25 46 33 24 47 34 25 46 33 24 46 33 24 47 34 26 47 34 25 48 35 26 47 34 25 47 34 25 46 33 24 46 33 24 46 33 24 
46 36 27 46 36 27 48 38 29 46 36 27 47 34 26 47 34 26 46 33 25 48 35 27 47 34 25 46 33 24 47 34 25 47 34 25 46 33 24 46 33 24 48 35 26 46 33 24 46 33 24 46 33 24 46 33 24 47 34 25 47 34 25 47 34 25 46 33 24 46 33 24 46 33 24 47 34 25 46 33 24 47 34 25 46 34 22 46 33 24 46 33 24 45 33 21 46 34 22 45 32 23 45 32 23 46 34 22 45 32 23 46 34 22 47 35 23 46 34 22 46 33 24 45 32 23 45 32 23 44 32 20 45 33 21 45 32 23 45 33 21 45 32 23 46 34 22 46 33 24 45 32 23 45 33 21 46 33 24 45 32 23 45 32 23 46 33 24 45 32 23 45 32 23 45 32 23 45 32 23 46 33 24 46 33 24 45 32 23 46 33 24 45 32 23 45 32 23 46 33 24 47 34 25 46 33 24 46 33 24 46 33 24 46 33 24 46 33 24 45 32 23 47 34 25 47 34 25 47 34 25 47 34 25 47 34 25 46 33 24 47 34 25 46 33 24 46 33 24 46 33 24 47 34 26 47 34 26 45 32 23 46 33 24 48 35 26 47 34 25 47 34 25 46 33 24 46 33 24 46 33 24 46 33 24 45 32 23 45 32 23 46 33 24 46 33 24 46 33 24 
46 35 29 46 35 29 45 35 26 46 36 27 45 35 26 44 34 25 45 35 26 45 35 26 48 35 26 47 34 25 48 35 26 48 35 26 47 34 25 47 34 25 47 34 25 47 34 25 46 33 24 47 34 25 46 33 24 46 33 24 45 32 23 46 33 24 45 32 23 46 33 24 46 33 24 47 34 25 46 33 24 46 33 24 46 34 22 46 33 24 46 33 24 47 35 23 47 35 23 47 34 25 46 33 24 46 34 22 45 33 21 45 32 23 45 32 23 45 32 23 47 35 23 46 34 22 46 34 22 47 34 25 46 34 22 45 32 23 46 33 24 46 34 22 45 32 23 45 33 21 45 32 23 46 34 22 46 33 24 46 33 24 46 33 24 44 31 22 45 32 23 45 32 23 46 33 24 46 33 24 46 33 24 47 34 25 46 33 24 46 33 24 46 33 24 46 33 24 46 33 24 47 34 25 46 33 24 46 33 24 46 33 24 46 33 24 47 34 25 47 34 25 46 33 24 47 34 25 47 34 25 47 34 25 47 34 25 47 34 25 46 33 24 46 33 24 47 34 25 46 33 24 47 34 26 47 34 26 46 33 24 47 34 25 46 33 24 46 33 24 47 34 25 47 34 25 48 35 26 47 34 25 48 35 26 47 34 25 47 34 25 46 33 24 46 33 24 46 33 24 
46 35 29 44 35 28 46 36 27 45 35 26 45 35 26 45 35 26 45 35 26 46 36 27 48 35 27 48 35 26 48 35 26 47 34 25 47 34 25 47 34 25 46 33 24 46 33 24 47 34 25 47 34 25 47 34 25 46 33 24 46 33 24 45 32 23 47 34 25 45 32 23 46 33 24 46 34 22 47 35 23 46 34 22 47 35 23 46 33 24 46 33 24 46 34 22 46 34 22 46 33 24 46 33 24 45 33 21 46 33 24 46 34 22 46 34 22 46 34 22 45 32 23 46 33 24 46 33 24 47 35 23 44 31 22 46 34 22 45 33 21 45 32 23 45 33 21 45 32 23 45 33 21 45 32 23 46 33 24 46 33 24 45 32 23 45 32 23 44 31 22 46 33 24 46 33 24 46 33 24 46 33 24 47 34 25 46 33 24 46 33 24 45 32 23 47 34 25 46 33 24 47 34 25 46 33 24 46 33 24 47 34 25 46 33 24 46 33 24 47 34 25 47 34 25 47 34 25 47 34 25 46 33 24 47 34 25 47 34 25 47 34 25 46 33 24 45 35 25 45 35 25 48 35 26 46 33 24 47 34 25 46 33 24 47 34 25 47 34 25 47 34 25 46 33 24 47 34 25 47 34 25 47 34 25 47 34 25 47 34 25 48 35 26 46 33 24 45 32 23 
46 35 29 46 35 29 47 36 30 45 34 28 45 35 26 45 35 26 46 36 27 45 35 26 47 34 26 48 35 26 48 35 26 47 34 25 47 34 26 46 33 24 45 32 23 47 34 25 47 34 26 47 34 25 46 33 24 46 33 24 46 33 24 47 34 25 46 33 24 47 34 25 46 33 24 45 33 21 45 33 21 46 34 22 47 35 23 45 32 23 47 34 25 46 34 22 47 35 23 45 32 23 46 33 24 45 33 21 45 32 23 45 33 21 46 34 22 46 34 22 46 33 24 45 32 23 45 32 23 45 33 21 46 33 24 46 34 22 46 33 24 45 33 21 46 33 24 47 35 23 47 35 23 45 32 23 47 34 25 45 32 23 45 32 23 45 32 23 46 33 24 45 32 23 46 33 24 47 34 25 47 35 23 47 34 25 47 34 25 46 33 24 46 34 22 46 33 24 45 32 23 46 33 24 47 34 25 46 33 24 46 33 24 47 34 25 46 33 24 47 34 25 47 34 25 47 34 25 44 31 22 47 34 25 46 33 24 46 33 24 47 34 25 47 34 25 44 34 24 45 35 25 47 34 25 46 33 24 47 34 25 47 34 25 47 34 25 47 34 25 46 33 24 47 34 25 47 34 25 46 33 24 48 35 26 47 34 25 47 34 25 46 33 24 46 33 24 47 34 25 
45 36 29 46 35 29 46 35 29 49 36 30 46 36 27 46 36 27 46 36 27 46 36 27 47 34 26 48 35 26 48 35 26 48 35 26 47 34 25 47 34 26 46 33 25 47 34 25 47 34 25 47 34 25 47 34 25 47 34 25 46 33 24 46 33 24 46 33 24 48 35 26 46 33 24 46 33 24 46 33 24 47 34 25 45 33 21 46 33 24 46 33 24 47 35 23 46 34 22 46 33 24 46 33 24 46 34 22 45 32 23 46 34 22 46 34 22 47 35 23 44 31 22 45 32 23 45 32 23 45 33 21 46 34 22 46 33 24 45 33 21 46 34 22 46 34 20 45 33 21 46 33 24 45 33 21 45 32 23 45 32 23 45 32 23 45 32 23 46 33 24 45 32 23 46 33 24 46 34 22 46 33 24 45 32 23 46 33 24 47 34 25 46 33 24 45 32 23 46 33 24 46 33 24 46 33 24 47 34 25 46 33 24 46 33 24 48 35 26 46 33 24 47 34 25 47 34 25 46 33 24 46 33 24 46 33 24 46 33 24 46 33 24 47 34 25 46 33 24 47 34 25 47 34 25 47 34 25 46 33 24 46 33 24 47 34 25 47 34 25 47 34 26 47 34 26 46 33 24 45 32 23 46 33 24 46 33 24 47 34 25 47 34 25 46 33 24 46 33 24 
46 35 29 46 37 30 47 36 30 47 36 30 46 36 27 46 36 27 45 35 26 45 35 26 45 35 25 48 35 26 47 34 25 46 33 24 47 34 26 47 34 25 48 35 26 46 33 24 46 33 24 48 35 26 47 34 25 46 33 24 46 33 24 45 32 23 46 33 24 46 33 24 46 33 24 46 33 24 46 33 24 47 34 25 46 33 24 46 33 24 45 32 23 46 33 24 45 32 23 46 33 24 46 33 24 46 33 24 46 32 21 46 32 21 45 33 21 46 32 21 45 33 21 46 32 21 45 33 21 47 33 22 47 34 25 45 32 23 46 33 24 46 33 24 46 33 24 46 33 24 45 32 23 46 33 24 45 32 23 45 32 23 45 32 23 45 32 23 46 33 24 46 33 24 46 33 24 46 33 24 45 32 23 46 33 24 46 33 24 46 33 24 47 34 25 47 34 25 46 33 24 47 34 25 46 33 24 44 31 22 46 33 24 47 34 25 47 34 25 46 33 24 47 34 25 46 33 24 46 33 24 47 34 25 46 33 24 47 34 25 44 34 24 45 35 25 44 34 24 46 33 24 45 35 25 45 37 26 44 34 24 44 34 24 45 35 25 45 35 25 45 35 25 43 33 23 44 34 24 47 34 25 47 34 25 44 34 24 45 35 25 47 34 25 46 33 24 47 34 25 
47 36 30 47 36 30 47 36 30 47 36 30 47 37 28 46 36 26 45 35 26 47 34 26 45 35 26 46 36 26 45 35 25 46 33 24 47 34 25 47 34 25 47 34 25 46 33 24 47 34 25 47 34 25 46 33 24 46 33 24 47 34 25 46 33 24 47 34 25 46 33 24 46 33 24 46 33 24 46 33 24 46 33 24 47 34 25 46 33 24 45 32 23 46 33 24 46 33 24 46 33 24 46 33 24 46 33 24 46 34 22 45 33 21 46 34 22 47 35 23 46 34 22 45 33 21 46 34 22 47 35 23 46 33 24 46 33 24 45 32 23 46 33 24 45 32 23 46 33 24 46 33 24 47 34 25 46 33 24 46 33 24 45 32 23 46 33 24 45 32 23 46 33 24 45 32 23 45 32 23 46 33 24 47 34 25 45 32 23 47 34 25 46 33 24 46 33 24 46 33 24 47 34 25 47 34 25 45 32 23 46 33 24 46 33 24 47 34 25 46 33 24 46 33 24 45 32 23 47 34 25 45 32 23 47 34 25 47 34 25 44 34 24 45 35 25 44 34 24 46 33 24 44 34 24 47 34 25 46 33 24 46 33 24 45 35 25 44 34 24 48 35 26 46 33 24 47 34 25 44 34 24 44 34 24 46 33 24 47 34 25 47 34 25 45 32 23 46 33 24 
46 35 29 46 35 29 46 35 29 46 35 29 44 33 27 45 35 26 46 36 26 46 36 27 46 35 29 48 35 27 46 36 26 45 35 25 48 35 26 48 35 27 47 34 25 47 34 25 46 33 24 48 35 26 47 34 25 47 34 25 46 33 24 47 34 25 46 33 24 47 34 25 46 33 24 46 33 24 46 33 24 46 33 24 47 34 25 46 33 24 45 32 23 46 33 24 47 34 25 45 32 23 45 32 23 46 33 24 46 33 24 46 33 24 46 33 24 47 33 24 45 32 23 47 33 24 45 32 23 45 32 23 46 33 24 45 32 23 46 33 24 45 32 23 46 33 24 45 32 23 46 33 24 45 32 23 46 33 24 45 32 23 46 33 24 46 33 24 46 33 24 46 33 24 46 33 24 45 32 23 46 33 24 47 34 25 45 32 23 47 34 25 45 32 23 46 33 24 47 34 25 46 33 24 46 33 24 46 33 24 47 34 25 47 34 25 46 33 24 47 34 25 46 33 24 47 34 25 46 33 24 47 34 25 46 33 24 45 32 23 44 34 24 44 34 24 44 34 24 47 34 25 47 34 25 47 34 25 44 34 24 43 33 23 48 35 26 47 34 25 46 33 24 44 34 24 47 34 25 44 34 24 43 33 23 46 33 24 46 33 24 46 33 24 46 33 24 45 32 23 
46 37 30 45 36 29 46 37 30 45 36 29 45 35 26 45 35 26 45 35 26 46 36 27 45 35 26 46 36 27 48 35 26 48 35 26 47 34 25 47 34 25 46 33 24 47 34 25 47 34 25 46 33 24 47 34 25 46 33 24 46 33 24 47 34 25 46 33 24 46 33 24 46 33 24 46 33 24 46 33 24 46 33 24 46 33 24 47 34 25 46 33 24 46 33 24 46 33 24 46 33 24 46 33 24 46 33 24 45 32 23 46 33 24 47 33 24 45 32 23 47 33 24 45 32 23 46 32 23 45 32 23 46 33 24 45 32 23 46 33 24 45 32 23 45 32 23 45 32 23 45 32 23 44 31 22 46 33 24 46 33 24 45 32 23 46 33 24 45 32 23 47 34 25 45 32 23 45 32 23 46 33 24 46 33 24 46 33 24 47 34 25 46 33 24 47 34 25 47 34 25 46 33 24 46 33 24 47 34 25 47 34 25 47 34 25 47 34 25 46 33 24 46 33 24 46 33 24 46 33 24 47 34 25 47 34 25 47 34 25 44 34 24 45 35 25 45 35 25 47 34 25 44 34 24 46 36 26 46 33 24 45 32 23 45 35 25 44 34 24 44 34 24 46 33 24 44 34 24 47 34 25 45 32 23 46 33 24 47 34 25 47 34 25 46 33 24 46 33 24 
46 35 29 45 34 28 46 35 29 46 35 29 46 36 27 45 35 26 46 36 27 46 36 27 46 36 27 45 35 25 46 36 26 47 34 25 45 35 25 47 34 25 48 35 26 46 33 24 47 34 25 47 34 25 46 33 24 46 33 24 47 34 25 47 34 25 47 34 25 46 33 24 46 33 24 46 33 24 46 33 24 46 33 24 47 34 25 47 34 25 46 33 24 46 33 24 45 32 23 45 32 23 46 33 24 46 33 24 45 32 23 46 33 24 46 33 24 46 33 24 45 32 23 45 32 23 45 32 23 44 31 22 46 33 24 45 32 23 46 33 24 45 32 23 45 32 23 45 32 23 45 32 23 46 33 24 45 32 23 45 32 23 46 33 24 45 32 23 45 32 23 46 33 24 45 32 23 46 33 24 46 33 24 46 33 24 46 33 24 46 33 24 46 33 24 46 33 24 46 33 24 46 33 24 45 32 23 47 34 25 46 33 24 46 33 24 46 33 24 47 34 25 47 34 25 47 34 25 47 34 25 46 33 24 48 35 26 45 32 23 44 34 24 45 35 25 44 34 24 48 35 26 47 34 25 46 33 24 46 33 24 46 33 24 46 33 24 46 33 24 46 33 24 47 34 25 43 33 23 47 34 25 46 33 24 46 33 24 46 33 24 46 33 24 46 33 24 46 33 24 
45 36 29 46 35 29 45 36 29 47 36 30 46 36 26 46 36 27 45 36 29 46 36 27 45 35 26 47 34 25 45 35 25 45 35 26 46 36 27 44 34 24 47 34 26 48 35 27 47 34 25 46 33 24 46 33 24 47 34 25 44 31 22 45 32 23 46 33 24 46 33 24 47 34 25 46 33 24 46 33 24 45 32 23 45 32 23 46 33 24 45 32 23 45 32 23 46 33 24 46 33 24 46 33 24 46 33 24 46 33 24 45 32 23 46 33 24 46 33 24 46 33 24 45 32 23 45 32 23 46 33 24 45 32 23 46 33 24 45 32 23 45 32 23 45 32 23 46 33 24 45 32 23 46 33 24 45 32 23 45 32 23 45 32 23 46 33 24 45 32 23 48 35 26 46 33 24 46 33 24 46 33 24 46 33 24 46 33 24 47 34 25 46 33 24 46 33 24 46 33 24 46 33 24 45 32 23 46 33 24 46 33 24 45 32 23 46 33 24 45 32 23 45 32 23 46 33 25 46 33 24 44 31 22 47 34 25 46 33 24 44 34 24 44 34 24 45 35 25 46 33 24 47 34 25 46 33 24 46 33 24 47 34 25 46 33 24 46 33 24 48 35 26 46 33 24 46 33 24 47 34 25 46 33 24 46 33 24 46 33 24 46 33 24 45 32 23 47 34 25 
45 36 29 45 36 29 45 36 29 46 37 30 45 36 29 46 36 27 45 35 26 47 34 28 46 36 27 45 35 26 45 35 26 47 34 26 44 34 24 45 35 25 49 36 27 46 33 24 46 33 24 47 34 25 46 33 24 46 33 24 47 34 25 47 34 25 46 33 24 47 34 25 46 33 24 46 33 24 46 33 24 46 33 24 45 32 23 47 34 25 47 34 25 45 32 23 46 33 24 46 33 24 45 32 23 45 32 23 46 33 24 46 33 24 45 32 23 46 33 24 46 33 24 46 33 24 46 33 24 46 33 24 45 32 23 45 32 23 45 32 23 44 31 22 46 33 24 46 33 24 46 33 24 45 32 23 46 33 24 46 33 24 46 33 24 45 32 23 46 33 24 46 33 24 47 34 25 45 32 23 46 33 24 46 33 24 45 32 23 47 34 25 46 33 24 46 33 24 46 33 24 46 33 24 46 33 24 47 34 25 46 33 24 46 33 24 46 33 24 46 33 24 45 32 24 45 32 24 45 32 23 47 34 25 46 33 24 45 32 23 45 35 25 44 34 24 45 35 25 46 33 24 44 34 24 46 33 24 47 34 25 47 34 25 44 34 24 44 34 24 48 35 26 47 34 25 46 33 24 46 33 24 45 32 23 47 34 25 46 33 24 45 32 23 45 32 23 46 33 24 
45 36 29 46 35 29 45 36 29 47 36 30 45 35 26 45 35 26 45 35 26 45 35 26 47 37 28 45 35 26 45 35 26 45 35 25 44 36 25 45 35 26 47 34 25 47 34 25 46 33 24 46 33 24 46 33 24 47 34 25 47 34 25 46 33 24 47 34 25 47 34 25 46 33 24 46 33 24 45 32 23 45 32 23 46 33 24 44 31 22 46 33 24 46 33 24 44 31 22 45 32 23 46 33 24 46 33 24 45 32 23 45 32 23 45 32 23 45 32 23 45 32 23 45 32 23 46 33 24 46 33 24 46 33 24 45 32 23 45 32 23 45 32 23 45 32 23 47 34 25 46 33 24 45 32 23 45 32 23 47 34 25 45 32 23 45 32 23 46 33 24 45 32 23 46 33 24 45 32 23 45 32 23 47 34 25 45 32 23 45 32 23 46 33 24 47 34 25 46 33 24 47 34 25 46 33 24 47 34 25 45 32 23 46 33 24 46 33 24 46 33 25 46 33 25 46 33 27 46 33 24 45 32 23 46 33 24 45 32 23 45 35 25 44 34 24 45 35 25 46 33 24 46 33 24 46 33 24 46 33 24 46 33 24 46 33 24 45 32 23 47 34 25 45 32 23 46 33 24 47 34 25 46 33 24 46 33 24 46 33 24 48 35 26 46 33 24 46 33 24 
44 35 28 45 36 29 47 38 31 46 37 30 47 36 30 46 36 27 46 36 27 45 35 26 47 37 28 46 36 27 46 36 27 45 35 26 45 35 25 44 34 25 45 35 25 44 34 24 47 34 26 46 33 24 47 34 25 47 34 25 47 34 25 47 34 25 46 33 24 47 34 25 46 33 24 47 34 25 46 33 24 47 34 25 46 33 24 46 33 24 46 33 24 45 32 23 46 33 24 46 33 24 46 33 24 46 33 24 47 34 25 44 31 22 45 32 23 45 32 23 46 33 24 45 32 23 45 32 23 45 32 23 46 33 24 45 32 23 46 33 24 45 32 23 46 33 24 45 32 23 45 32 23 45 32 23 45 32 23 45 32 23 45 32 23 46 33 24 46 33 24 46 33 24 45 32 23 48 35 26 46 33 24 46 33 24 45 32 23 46 33 24 47 34 25 47 34 25 46 33 24 46 33 24 46 33 24 47 34 25 47 34 25 47 34 25 45 32 23 45 32 23 47 34 25 47 34 25 47 34 25 47 34 25 47 34 25 46 33 24 46 33 24 46 33 24 47 34 25 48 35 26 46 33 24 45 32 23 47 34 25 45 32 23 45 32 23 47 34 25 46 33 24 46 33 24 46 33 24 47 34 25 45 32 23 45 32 23 47 34 25 46 33 24 46 33 24 45 32 23 
45 36 31 46 37 30 46 37 30 46 35 29 46 35 29 46 35 29 46 36 27 46 36 27 45 35 26 46 36 27 47 37 28 46 36 26 45 35 26 45 35 25 44 34 24 45 35 25 46 33 24 47 34 25 47 34 25 47 34 25 47 34 25 46 33 24 46 33 24 46 33 24 46 33 24 47 34 25 46 33 24 46 33 24 45 32 23 46 33 24 45 32 23 45 32 23 44 31 22 45 32 23 46 33 24 46 33 24 47 34 25 46 33 24 45 32 23 45 32 23 45 32 23 44 31 22 45 32 23 45 32 23 46 33 24 46 33 24 45 32 23 45 32 23 46 33 24 46 33 24 46 33 24 45 32 23 44 31 22 45 32 23 46 33 24 46 33 24 46 33 24 45 32 23 46 33 24 46 33 24 46 33 24 46 33 24 46 33 24 48 35 26 47 34 25 46 33 24 46 33 24 45 32 23 46 33 24 46 33 24 46 33 24 46 33 24 45 32 23 48 35 26 47 34 25 47 34 25 47 34 25 47 34 25 46 33 24 46 33 24 46 33 24 46 33 24 47 34 25 47 34 25 47 34 25 46 33 24 45 32 23 47 34 25 46 33 24 45 32 23 47 34 25 46 33 24 46 33 24 47 34 25 47 34 25 44 31 22 46 33 24 46 33 24 45 32 23 46 33 24 
45 36 31 46 37 32 46 35 29 48 35 29 46 35 29 45 34 28 45 35 26 46 36 27 46 36 27 46 36 26 45 35 26 46 36 26 46 36 27 45 35 25 45 35 26 46 36 26 46 33 24 47 34 25 47 34 25 47 35 23 47 34 25 47 34 25 47 34 25 46 33 24 47 34 25 46 33 24 47 34 25 46 33 24 46 33 24 46 33 24 46 33 24 45 32 23 46 33 24 46 33 24 46 33 24 46 33 24 45 32 23 46 33 24 45 32 23 45 32 23 46 33 24 45 32 23 45 32 23 45 32 23 46 33 24 45 32 23 45 32 23 46 33 24 46 33 24 46 33 24 46 33 24 45 32 23 45 32 23 46 33 24 47 34 25 46 33 24 45 32 23 45 32 23 46 33 24 46 33 24 45 32 23 46 33 24 46 33 24 46 33 24 46 33 24 46 33 24 47 34 25 47 34 25 47 34 25 47 34 25 46 33 24 46 33 24 46 33 24 47 34 25 47 34 25 47 34 25 46 33 24 46 33 24 45 32 23 45 32 23 46 33 24 46 33 24 47 34 25 46 33 24 47 34 25 47 34 25 47 34 25 46 33 24 47 34 25 48 35 26 46 33 24 46 33 24 45 32 23 47 34 25 46 33 24 45 32 23 46 33 24 46 33 24 45 32 23 47 34 25 
46 37 32 44 35 28 46 35 29 46 36 27 47 36 30 46 35 29 46 36 27 46 36 27 45 35 26 45 35 26 47 37 28 46 36 26 45 35 26 45 35 25 44 34 22 44 34 25 47 34 25 46 33 24 47 34 25 48 35 26 47 34 25 46 33 24 46 33 24 47 34 25 46 33 24 47 34 25 46 33 24 45 32 23 45 32 23 46 33 24 46 33 24 46 33 24 46 33 24 46 33 24 45 32 23 45 32 23 46 33 24 45 32 23 45 32 23 45 32 23 46 33 24 46 33 24 46 33 24 45 32 23 46 33 24 46 33 24 46 33 24 45 32 23 45 32 23 46 33 24 46 33 24 46 33 24 46 33 24 45 32 23 46 33 24 47 34 25 45 32 23 46 33 24 46 33 24 44 31 22 46 33 24 46 33 24 45 32 23 46 33 24 47 34 25 46 33 24 47 34 25 46 33 24 46 33 24 46 33 24 46 33 24 46 33 24 46 33 24 45 32 23 47 34 25 46 33 24 46 33 24 45 32 23 46 33 24 46 33 24 46 33 24 47 34 25 46 33 24 47 34 25 47 34 25 46 33 24 47 34 25 46 33 24 47 34 25 47 34 25 46 33 24 45 32 23 47 34 25 46 33 24 46 33 24 46 33 24 45 32 23 46 33 24 46 33 24 47 34 25 
45 36 29 45 36 29 45 36 29 47 38 31 47 36 30 46 35 29 46 36 27 46 36 27 46 36 27 47 37 28 46 36 27 45 35 26 45 34 28 44 34 25 44 34 24 44 34 24 46 33 24 46 33 24 48 35 26 46 34 22 47 34 25 46 33 24 46 33 24 47 34 25 46 33 24 46 33 24 47 34 25 45 32 23 45 32 23 46 33 24 46 33 24 46 33 24 47 34 25 46 33 24 46 33 24 46 33 24 45 32 23 45 32 23 44 31 22 45 32 23 47 34 25 46 33 24 45 32 23 45 32 23 46 33 24 45 32 23 44 31 22 45 32 23 44 31 22 44 31 22 45 32 23 45 32 23 45 32 23 45 32 23 45 32 23 46 33 24 46 33 24 46 33 24 47 34 25 46 33 24 46 33 24 47 34 25 46 33 24 45 32 23 46 33 24 46 33 24 47 34 25 47 34 25 47 34 25 47 34 25 45 32 23 47 34 25 47 34 25 45 32 23 47 34 25 46 33 24 46 33 24 46 33 24 47 34 25 46 33 24 46 33 24 46 33 24 46 33 24 46 33 24 46 33 24 48 35 26 45 32 23 46 33 24 47 34 25 46 33 24 46 33 24 45 32 23 47 34 25 45 32 23 46 33 24 47 34 25 46 33 24 45 32 23 47 34 25 46 33 24 
46 37 30 45 36 29 45 36 27 45 36 29 46 35 29 47 36 30 46 36 27 45 34 28 45 34 28 45 35 26 45 35 26 45 35 26 44 34 25 45 35 26 45 35 25 45 35 26 47 34 25 47 34 26 46 33 24 45 32 24 47 34 25 45 32 23 46 33 24 47 34 25 45 32 23 46 33 24 46 33 24 46 33 24 46 33 24 45 32 23 46 33 24 45 32 23 47 34 25 45 32 23 46 33 24 46 33 24 46 33 24 45 32 23 44 31 22 45 32 23 45 32 23 45 32 23 46 33 24 46 33 24 46 33 24 46 33 24 45 32 23 45 32 23 46 33 24 46 33 24 45 32 23 45 32 23 45 32 23 46 33 24 46 33 24 46 33 24 46 33 24 46 33 24 46 33 24 46 33 24 46 33 24 45 32 23 47 34 25 47 34 25 46 33 24 46 33 24 46 33 24 46 33 24 46 33 24 46 33 24 46 33 24 45 32 23 46 33 24 47 34 25 46 33 24 46 33 24 46 33 24 46 33 24 46 33 24 46 33 24 45 32 23 45 32 23 45 32 23 46 33 24 45 32 23 45 32 23 44 31 22 45 32 23 46 33 24 46 33 24 46 33 24 46 33 24 46 33 24 45 32 23 46 33 24 46 33 24 46 33 24 46 33 24 46 33 24 45 32 23 
45 36 29 45 36 29 46 37 30 45 36 29 46 35 29 46 35 29 46 35 29 46 36 27 46 36 27 45 35 26 44 33 27 45 35 26 44 34 25 44 34 25 45 34 28 46 36 26 47 34 25 47 34 25 48 35 26 44 31 23 47 34 25 46 33 24 46 33 24 46 33 24 47 34 25 47 34 25 46 33 24 46 33 24 46 33 24 46 33 24 46 33 24 46 33 24 46 33 24 45 32 23 45 32 23 46 33 24 46 33 24 46 33 24 46 33 24 46 33 24 45 32 23 45 32 23 45 32 23 45 32 23 47 34 25 45 32 23 45 32 23 46 33 24 46 33 24 46 33 24 45 32 23 46 33 24 45 32 23 46 33 24 46 33 24 45 32 23 45 32 23 46 33 24 45 32 23 47 34 25 45 32 23 46 33 24 47 34 25 47 34 25 46 33 24 46 33 24 46 33 24 46 33 24 46 33 24 47 34 25 47 34 25 46 33 24 47 34 25 47 34 25 46 33 24 46 33 24 46 33 24 46 33 24 46 33 24 46 33 24 46 33 24 46 33 24 47 34 25 47 34 25 46 33 24 45 32 23 46 33 24 45 32 23 46 33 24 46 33 24 46 33 24 45 32 23 47 34 25 46 33 24 44 31 22 46 33 24 45 32 23 45 32 23 46 33 24 45 32 23 
45 36 29 45 36 29 46 35 29 46 35 29 45 34 28 46 35 29 46 35 29 45 35 26 47 37 28 45 35 26 45 35 26 45 35 26 46 36 27 46 36 27 45 35 26 45 35 25 47 34 26 48 35 26 47 34 26 47 34 26 46 33 24 46 33 24 46 33 24 45 32 23 45 32 23 47 34 25 45 32 23 47 34 25 46 33 24 46 33 24 46 33 24 46 33 24 47 34 25 46 33 24 46 33 24 46 33 24 46 33 24 47 34 25 46 33 24 46 33 24 45 32 23 44 31 22 46 33 24 45 32 23 46 33 24 45 32 23 45 32 23 46 33 24 46 33 24 45 32 23 46 33 24 46 33 24 46 33 24 46 33 24 46 33 24 46 33 24 47 34 25 46 33 24 45 32 23 44 31 22 46 33 24 47 34 25 46 33 24 47 34 25 47 34 25 47 34 25 46 33 24 45 32 23 47 34 25 47 34 25 47 34 25 46 33 24 47 34 25 46 33 24 47 34 25 46 33 24 46 33 24 46 33 24 46 33 24 47 34 25 47 34 25 47 34 25 47 34 25 46 33 24 46 33 24 46 33 24 45 32 23 46 33 24 45 32 23 46 33 24 47 34 25 46 33 24 47 34 25 45 32 23 46 33 24 46 33 24 45 32 23 45 32 23 45 32 23 46 33 24 
45 36 29 45 36 29 46 37 30 45 36 29 45 34 28 46 35 29 45 35 26 46 36 27 46 36 27 46 36 27 46 36 26 46 36 27 45 34 28 45 35 26 46 36 26 46 36 27 44 34 24 46 33 24 44 34 24 45 32 23 46 33 24 46 33 24 47 34 25 46 33 24 45 32 23 46 33 24 46 33 24 46 33 24 46 33 24 46 33 24 46 33 24 47 34 25 46 33 24 45 32 23 46 33 24 46 33 24 46 33 24 46 33 24 46 33 24 45 32 23 46 33 24 45 32 23 45 32 23 46 33 24 45 32 23 46 33 24 45 32 23 47 34 25 45 32 23 47 34 25 45 32 23 45 32 23 45 32 23 45 32 23 45 32 23 47 34 25 45 32 23 45 32 23 45 32 23 45 32 23 46 33 24 45 32 23 46 33 24 47 34 25 46 33 24 46 33 24 46 33 24 45 32 23 46 33 24 46 33 24 46 33 24 47 34 25 46 33 24 46 33 24 47 34 25 47 34 25 46 33 25 47 34 25 47 34 26 45 32 24 48 35 26 46 33 24 46 33 25 47 34 25 44 34 24 44 34 24 46 33 24 47 34 25 45 32 23 46 33 24 45 32 23 45 32 23 46 33 24 45 32 23 46 33 24 45 32 23 45 32 23 45 32 23 45 32 23 44 31 22 
45 36 29 46 37 30 44 35 28 45 36 29 46 36 26 45 34 28 47 36 30 46 35 29 47 36 30 47 37 28 46 36 27 45 35 26 46 33 27 45 35 26 47 34 26 45 35 26 46 33 24 47 34 25 46 33 24 46 33 24 47 34 25 47 34 25 47 34 25 46 33 24 46 33 24 45 32 23 46 33 24 45 32 23 45 32 23 46 33 24 46 33 24 46 33 24 46 33 24 46 33 24 46 33 24 46 33 24 45 32 23 46 33 24 46 33 24 45 32 23 45 32 23 46 33 24 46 33 24 46 33 24 45 32 23 46 33 24 46 33 24 45 32 23 46 33 24 45 32 23 46 33 24 46 33 24 45 32 23 46 33 24 45 32 23 46 33 24 46 33 24 45 32 23 45 32 23 45 32 23 46 33 24 45 32 23 46 33 24 47 34 25 45 32 23 46 33 24 46 33 24 46 33 24 46 33 24 46 33 24 46 33 24 45 32 23 46 33 24 46 33 24 47 34 25 47 34 25 47 34 26 47 34 25 45 32 23 46 33 25 46 33 24 45 32 23 46 33 25 45 32 23 45 32 23 46 33 24 45 32 23 46 33 24 47 34 25 45 32 23 45 32 23 46 33 24 46 33 24 46 33 24 47 34 25 45 32 23 46 33 24 44 31 22 46 33 24 44 31 22 
45 36 29 45 36 29 45 36 29 46 37 30 47 36 30 46 35 29 47 36 30 47 37 28 44 34 25 47 37 28 46 36 27 44 34 25 43 33 24 45 35 26 47 34 26 47 34 26 46 33 24 47 34 25 46 33 24 46 33 24 46 33 24 47 34 25 45 32 23 46 33 24 47 34 25 46 33 24 46 33 24 46 33 24 45 32 23 46 33 24 46 33 24 45 32 23 44 31 22 46 33 24 45 32 23 45 32 23 46 33 24 45 32 23 46 33 24 45 32 23 46 33 24 46 33 24 47 34 25 45 32 23 45 32 23 45 32 23 46 33 24 46 33 24 45 32 23 45 32 23 45 32 23 45 32 23 46 33 24 45 32 23 45 32 23 46 33 24 45 32 23 46 33 24 46 33 24 45 32 23 46 33 24 47 34 25 46 33 24 45 32 23 46 33 24 45 32 23 46 33 24 46 33 24 46 33 24 46 33 24 46 33 24 46 33 24 46 33 24 47 34 25 47 34 25 45 32 23 46 33 24 46 33 24 46 33 24 45 32 23 46 33 24 46 33 24 46 33 24 45 32 23 44 31 22 46 33 24 45 32 23 46 33 24 44 31 22 46 33 24 47 34 25 45 32 23 46 33 24 46 33 24 46 33 24 46 33 24 46 33 24 46 33 24 46 33 24 46 33 24 
46 37 30 46 37 30 45 36 29 46 37 30 46 35 29 46 35 29 47 36 30 45 35 26 47 37 28 46 36 27 45 35 26 43 33 24 44 34 25 45 35 26 47 34 26 45 35 26 47 34 25 46 33 25 44 34 24 44 34 24 47 34 25 45 32 23 46 33 24 46 33 24 45 32 23 46 33 24 45 32 23 46 33 24 46 33 24 46 33 24 45 32 23 46 33 24 46 33 24 45 32 23 46 33 24 46 33 24 45 32 23 44 31 22 44 31 22 46 33 24 45 32 23 45 32 23 45 32 23 45 32 23 45 32 23 46 33 24 46 33 24 45 32 23 45 32 23 46 33 24 46 33 24 45 32 23 45 32 23 46 33 24 46 33 24 45 32 23 46 33 24 45 32 23 45 32 23 46 33 24 47 34 25 45 32 23 45 32 23 45 32 23 45 32 23 47 34 25 47 34 25 47 34 25 46 33 24 46 33 24 46 33 24 46 33 24 44 31 22 46 33 24 46 33 24 46 33 24 45 32 23 46 33 24 46 33 24 46 33 24 47 34 25 46 33 24 47 34 25 45 32 23 45 32 23 46 33 24 44 31 22 45 32 23 46 33 24 46 33 24 46 33 24 45 32 23 46 33 24 45 32 23 46 33 24 46 33 24 46 33 24 46 33 24 45 32 23 45 32 23 
45 36 29 46 37 30 46 37 30 45 36 29 46 37 30 46 35 29 45 34 28 47 34 28 46 35 29 47 37 28 46 36 27 45 35 26 46 36 27 44 34 25 47 34 26 46 36 27 47 34 25 46 33 25 44 34 24 42 32 22 47 34 25 46 33 24 46 33 24 47 34 25 46 33 24 46 33 24 46 33 24 45 32 23 46 33 24 45 32 23 46 33 24 46 33 24 45 32 23 45 32 23 46 33 24 45 32 23 45 32 23 45 32 23 46 33 24 46 33 24 47 34 25 44 31 22 45 32 23 46 33 24 44 31 22 46 33 24 46 33 24 44 31 22 45 32 23 44 31 22 44 31 22 44 31 22 46 33 24 45 32 23 46 33 24 44 31 22 47 34 25 45 32 23 46 33 24 45 32 23 47 34 25 45 32 23 45 32 23 46 33 24 46 33 24 46 33 24 46 33 24 44 31 22 47 34 25 46 33 24 47 34 25 46 33 24 46 33 24 47 34 25 46 33 24 46 33 24 46 33 24 46 33 24 44 31 22 45 32 23 46 33 24 47 34 25 45 32 23 47 34 25 43 33 23 43 33 23 45 32 23 45 32 23 45 32 23 46 33 24 45 32 23 45 32 23 44 31 22 46 33 24 46 33 24 45 32 23 46 33 24 45 32 23 45 32 23 45 32 23 
45 36 29 46 37 30 47 38 31 46 37 30 45 36 29 46 35 29 46 35 29 47 34 28 45 34 28 45 35 26 45 35 26 44 34 25 44 34 25 44 34 25 47 34 26 47 34 26 46 33 25 46 33 25 47 34 25 46 33 24 46 33 24 46 33 24 46 33 24 46 33 24 47 34 25 45 32 23 46 33 24 46 33 24 46 33 24 45 32 23 46 33 24 46 33 24 46 33 24 44 31 22 45 32 23 44 31 22 46 33 24 46 33 24 45 32 23 45 32 23 45 32 23 45 32 23 45 32 23 44 31 22 45 32 23 44 31 22 45 32 23 45 32 23 46 33 24 45 32 23 45 32 23 44 31 22 45 32 23 45 32 23 45 32 23 45 32 23 45 32 23 46 33 24 45 32 23 45 32 23 46 33 24 46 33 24 44 31 22 46 33 24 46 33 24 46 33 24 46 33 24 46 33 24 47 34 25 46 33 24 46 33 24 46 33 24 46 33 24 46 33 24 46 33 24 46 33 24 46 33 24 46 33 24 45 32 23 47 34 25 47 34 25 46 33 24 47 34 25 46 33 24 43 35 24 43 33 23 45 32 23 45 32 23 46 33 24 45 32 23 45 32 23 45 32 23 45 32 23 46 33 24 46 33 24 45 32 23 45 32 23 46 33 24 44 31 22 45 32 23 
45 36 29 44 35 28 45 36 29 45 36 29 44 35 28 46 35 29 46 35 29 48 35 27 45 35 26 45 35 26 46 36 27 46 35 31 48 35 27 44 34 25 46 33 25 44 34 25 46 33 25 46 33 25 47 34 25 46 33 25 46 33 24 47 34 25 45 32 23 46 33 24 45 32 23 46 33 24 46 33 24 46 33 24 45 32 23 46 33 24 46 33 24 45 32 23 46 33 24 46 33 24 44 31 22 45 32 23 45 32 23 46 33 24 46 33 24 45 32 23 45 32 23 44 31 22 46 33 24 45 32 23 45 32 23 44 31 22 45 32 23 44 31 22 46 33 24 45 32 23 47 34 25 45 32 23 45 32 23 45 32 23 45 32 23 45 32 23 46 33 24 45 32 23 46 33 24 45 32 23 45 32 23 45 32 23 47 34 25 45 32 23 45 32 23 47 34 25 47 34 25 46 33 24 46 33 24 46 33 24 45 32 23 46 33 24 45 32 23 45 32 23 46 33 24 45 32 23 45 32 23 46 33 24 45 32 23 46 33 24 45 32 23 46 33 24 45 32 23 45 32 23 43 33 23 46 33 24 45 32 23 46 33 24 45 32 23 45 32 23 46 33 24 45 32 23 46 33 24 45 32 23 45 32 23 47 34 25 46 33 24 45 32 23 47 34 25 45 32 23 
46 37 30 45 36 29 45 36 29 45 36 29 45 36 29 46 35 31 47 36 30 48 35 29 45 34 28 46 35 29 45 35 26 45 35 26 45 35 26 44 34 25 44 34 25 44 34 25 46 36 27 46 33 25 44 34 24 47 34 26 46 33 24 46 33 24 47 34 25 46 33 24 46 33 24 46 33 24 46 33 24 46 33 24 46 33 24 46 33 24 46 33 24 46 33 24 47 34 25 46 33 24 45 32 23 44 31 22 46 33 24 46 33 24 45 32 23 45 32 23 46 33 24 45 32 23 45 32 23 45 32 23 45 32 23 45 32 23 46 33 24 44 31 22 46 33 24 45 32 23 45 32 23 45 32 23 44 31 22 44 31 22 46 33 24 45 32 23 44 31 22 45 32 23 45 32 23 45 32 23 46 33 24 46 33 24 45 32 23 46 33 24 46 33 24 45 32 23 46 33 24 47 34 25 46 33 24 47 34 25 47 34 25 46 33 24 45 32 23 46 33 24 46 33 24 46 33 24 46 33 24 46 33 24 45 32 23 46 33 24 45 32 23 46 33 24 46 33 24 46 33 24 46 33 24 45 32 23 45 32 23 45 32 23 46 33 24 45 32 23 46 33 24 45 32 23 47 34 25 45 32 23 46 33 24 46 33 24 45 32 23 45 32 23 45 32 23 45 32 23 
45 36 31 45 36 29 45 36 29 46 37 30 45 34 28 47 36 30 47 36 30 46 35 29 46 36 27 45 35 26 44 34 25 47 37 28 46 36 27 46 36 27 45 35 26 44 34 25 46 33 25 46 33 24 46 33 24 46 33 25 46 33 25 46 33 24 45 32 24 44 31 23 46 33 24 47 34 25 46 33 24 46 33 24 45 32 23 46 33 24 45 32 23 46 33 24 46 33 24 45 32 23 45 32 23 44 31 22 45 32 23 45 32 23 46 33 24 45 32 23 45 32 23 44 31 22 46 33 24 44 31 22 45 32 23 45 32 23 44 31 22 46 33 24 46 33 24 44 31 22 45 32 23 45 32 23 46 33 24 45 32 23 45 32 23 45 32 23 47 34 25 45 32 23 45 32 23 45 32 23 45 32 23 44 31 22 46 33 24 46 33 24 45 32 23 45 32 23 46 33 24 46 33 24 45 32 23 45 32 23 45 32 23 46 33 24 46 33 24 45 32 23 45 32 23 44 31 22 45 32 23 45 32 23 46 33 24 46 33 24 46 33 24 46 33 24 46 33 24 47 34 25 45 32 23 45 32 23 45 32 23 45 32 23 45 32 23 46 33 24 45 32 23 45 32 23 45 32 23 45 32 23 45 32 23 45 32 23 46 33 24 45 32 23 44 31 22 45 32 23 
45 36 29 46 37 30 45 36 29 45 36 29 46 35 29 47 36 30 47 36 30 46 35 29 45 35 26 46 36 27 45 35 26 46 36 27 45 35 26 45 35 26 45 35 26 44 34 25 46 33 25 47 34 25 47 34 25 45 32 23 47 34 26 46 33 24 46 33 24 46 33 24 45 32 23 46 33 24 46 33 24 45 32 23 46 33 24 45 32 23 45 32 23 45 32 23 46 33 24 46 33 24 45 32 23 45 32 23 46 33 24 46 33 24 45 32 23 44 31 22 44 31 22 45 32 23 44 31 22 46 33 24 45 32 23 46 33 24 45 32 23 45 32 23 45 32 23 45 32 23 44 31 22 45 32 23 45 32 23 46 33 24 45 32 23 45 32 23 46 33 24 46 33 24 45 32 23 45 32 23 46 33 24 46 33 24 45 32 23 45 32 23 44 31 22 45 32 23 46 33 24 47 34 25 46 33 24 46 33 24 46 33 24 46 33 24 46 33 24 47 34 25 45 32 23 47 34 25 45 32 23 46 33 24 45 32 23 45 32 23 46 33 24 46 33 24 45 32 23 45 32 23 45 32 23 45 32 23 45 32 23 46 33 24 45 32 23 46 33 24 45 32 23 45 32 23 45 32 23 46 33 24 46 33 24 46 33 24 45 32 23 45 32 23 45 32 23 45 32 23 
45 36 29 46 37 30 45 36 29 46 37 30 46 35 29 46 35 29 47 36 30 45 34 28 45 35 26 44 34 25 45 35 26 45 35 26 45 35 26 44 34 25 46 36 27 45 35 26 46 33 25 47 34 26 47 34 25 46 33 24 46 33 24 46 33 24 46 33 24 45 32 23 46 33 24 45 32 23 46 33 24 46 33 24 47 34 25 46 33 24 45 32 23 45 32 23 46 33 24 46 33 24 44 31 22 45 32 23 45 32 23 45 32 23 45 32 23 44 31 22 45 32 23 45 32 23 45 32 23 45 32 23 46 33 24 45 32 23 46 33 24 44 31 22 45 32 23 44 31 22 45 32 23 45 32 23 45 32 23 46 33 24 45 32 23 46 33 24 46 33 24 46 33 24 44 31 22 45 32 23 45 32 23 47 34 25 46 33 24 45 32 23 45 32 23 45 32 23 47 34 25 46 33 24 46 33 24 46 33 24 46 33 24 45 32 23 46 33 24 44 31 22 46 33 24 46 33 24 45 32 23 46 33 24 46 33 24 46 33 24 45 32 23 45 32 23 44 31 22 45 32 23 46 33 24 46 33 24 44 31 22 45 32 23 46 33 24 46 33 24 44 31 22 46 33 24 46 33 24 46 33 24 46 33 24 45 32 23 46 33 24 46 33 24 45 32 23 45 32 23 
45 36 29 45 36 29 45 36 29 46 37 30 46 35 29 47 36 30 46 35 29 46 35 29 45 35 26 46 36 27 45 35 26 45 35 26 46 36 27 43 33 24 45 35 26 45 35 26 46 33 25 47 34 26 46 33 24 46 33 24 46 33 24 46 33 24 46 33 24 44 31 22 46 33 24 45 32 23 46 33 24 46 33 24 46 33 24 46 33 24 45 32 23 45 32 23 46 33 24 45 32 23 45 32 23 45 32 23 45 32 23 45 32 23 45 32 23 45 32 23 46 33 24 44 31 22 46 33 24 44 31 22 44 31 22 45 32 23 45 32 23 45 32 23 45 32 23 45 32 23 45 32 23 45 32 23 45 32 23 45 32 23 46 33 24 45 32 23 45 32 23 46 33 24 44 31 22 46 33 24 47 34 25 45 32 23 46 33 24 45 32 23 45 32 23 45 32 23 45 32 23 47 34 25 46 33 24 45 32 23 45 32 23 45 32 23 46 33 24 45 32 23 44 31 22 45 32 23 45 32 23 46 33 24 46 33 24 45 32 23 46 33 24 45 32 23 45 32 23 46 33 24 46 33 24 45 32 23 44 31 22 44 31 22 46 33 24 45 32 23 45 32 23 45 32 23 45 32 23 45 32 23 45 32 23 46 33 24 46 33 24 45 32 23 46 33 24 44 31 22 
44 35 28 44 35 28 45 36 29 45 36 29 46 35 29 46 35 29 46 35 29 45 34 28 46 36 27 45 35 26 45 35 26 45 35 26 46 36 27 45 35 26 45 35 26 45 35 26 47 34 26 47 34 26 47 34 25 46 33 24 46 33 24 46 33 24 46 33 24 45 32 23 45 32 23 46 33 24 45 32 23 46 33 24 45 32 23 46 33 24 44 31 22 45 32 23 46 33 24 46 33 24 46 33 24 45 32 23 45 32 23 45 32 23 45 32 23 45 32 23 46 33 24 46 33 24 45 32 23 45 32 23 44 31 22 46 33 24 44 31 22 45 32 23 45 32 23 47 34 25 45 32 23 44 31 22 45 32 23 45 32 23 45 32 23 45 32 23 45 32 23 46 33 24 45 32 23 46 33 24 46 33 24 45 32 23 46 33 24 46 33 24 45 32 23 46 33 24 45 32 23 46 33 24 46 33 24 45 32 23 45 32 23 46 33 24 46 33 24 45 32 23 45 32 23 45 32 23 45 32 23 45 32 23 45 32 23 45 32 23 46 33 24 45 32 23 46 33 24 46 33 24 45 32 23 45 32 23 45 32 23 44 31 22 45 32 23 45 32 23 45 32 23 44 31 22 45 32 23 47 34 25 45 32 23 46 33 24 46 33 24 45 32 23 45 32 23 45 32 23 
45 36 29 46 37 30 45 36 29 45 36 29 46 35 29 46 35 29 46 35 29 47 36 30 45 35 26 45 35 26 45 35 26 45 35 26 45 35 26 45 35 26 44 34 25 45 35 26 47 34 26 46 33 25 47 34 25 46 33 24 45 32 23 46 33 24 47 34 25 47 34 25 45 32 23 46 33 24 46 33 24 47 34 25 45 32 23 46 33 24 46 33 24 45 32 23 45 32 23 44 31 22 46 33 24 46 33 24 46 33 24 45 32 23 46 33 24 45 32 23 45 32 23 45 32 23 45 32 23 45 32 23 46 33 24 45 32 23 45 32 23 44 31 22 45 32 23 46 33 24 46 33 24 45 32 23 45 32 23 45 32 23 45 32 23 46 33 24 45 32 23 46 33 24 45 32 23 45 32 23 45 32 23 46 33 24 45 32 23 47 34 25 46 33 24 45 32 23 46 33 24 46 33 24 46 33 24 46 33 24 46 33 24 47 34 25 47 34 25 46 33 24 46 33 24 48 35 26 45 32 23 45 32 23 45 32 23 46 33 24 45 32 23 45 32 23 48 35 26 46 33 24 45 32 23 46 33 24 45 32 23 44 31 22 45 32 23 45 32 23 44 31 22 44 31 22 45 32 23 45 32 23 45 32 23 45 32 23 44 31 22 45 32 23 44 31 22 44 31 22 
44 35 30 45 36 29 45 36 29 44 35 28 46 35 29 46 35 29 46 35 29 46 35 29 45 35 26 45 35 26 46 36 27 44 34 25 45 35 26 45 35 26 45 35 26 45 35 26 46 33 25 46 33 24 47 34 25 47 34 25 46 33 24 46 33 25 46 33 24 46 33 24 46 33 24 46 33 24 45 32 23 47 34 25 45 32 23 45 32 23 45 32 23 45 32 23 45 32 23 46 33 24 46 33 24 46 33 24 46 33 24 45 32 23 46 33 24 44 31 22 45 32 23 44 31 22 46 33 24 46 33 24 44 31 22 45 32 23 43 30 21 44 31 22 46 33 24 45 32 23 46 33 24 44 31 22 44 31 22 46 33 24 45 32 23 46 33 24 45 32 23 46 33 24 45 32 23 44 31 22 45 32 23 46 33 24 45 32 23 45 32 23 46 33 24 46 33 24 46 33 24 45 32 23 47 34 25 45 32 23 46 33 24 45 32 23 47 34 25 45 32 23 47 34 25 46 33 24 47 34 25 46 33 24 46 33 24 45 32 23 46 33 24 45 32 23 46 33 24 45 32 23 45 32 23 44 31 22 45 32 23 45 32 23 44 31 22 45 32 23 45 32 23 45 32 23 45 32 23 45 32 23 44 31 22 45 32 23 44 31 22 45 32 23 44 31 22 44 31 22 
45 36 29 44 35 28 44 35 28 44 35 28 46 35 29 46 35 29 46 35 29 46 35 29 44 34 25 44 34 25 45 35 26 44 34 25 46 36 27 45 35 26 45 35 26 43 33 24 45 32 24 48 35 26 47 34 25 46 33 25 46 33 24 46 33 25 45 32 23 46 33 24 45 32 23 45 32 23 45 32 23 46 33 24 45 32 23 46 33 24 46 33 24 46 33 24 45 32 23 44 31 22 45 32 23 45 32 23 45 32 23 46 33 24 46 33 24 45 32 23 45 32 23 45 32 23 45 32 23 45 32 23 45 32 23 45 32 23 45 32 23 45 32 23 45 32 23 46 33 24 45 32 23 45 32 23 45 32 23 45 32 23 44 31 22 45 32 23 45 32 23 46 33 24 45 32 23 46 33 24 46 33 24 46 33 24 46 33 24 45 32 23 46 33 24 46 33 24 46 33 24 47 34 25 46 33 24 45 32 23 46 33 24 45 32 23 45 32 23 45 32 23 46 33 24 45 32 23 46 33 24 45 32 23 46 33 24 44 31 22 46 33 24 46 33 24 45 32 23 46 33 24 44 31 22 44 31 22 46 33 24 46 33 24 46 33 24 45 32 23 45 32 23 46 33 24 46 33 24 44 31 22 46 33 24 45 32 23 45 32 23 43 30 21 45 32 23 45 32 23 
46 37 30 46 37 30 46 37 30 45 36 29 46 35 29 46 35 29 45 34 28 45 35 26 45 35 26 45 35 26 45 35 26 45 35 26 45 35 26 45 35 25 44 34 25 45 35 26 44 34 25 47 34 25 46 33 24 46 33 25 46 33 24 47 34 25 45 32 23 45 32 23 45 32 23 46 33 24 46 33 24 46 33 24 45 32 23 46 33 24 45 32 23 47 34 25 46 33 24 47 34 25 44 31 22 44 31 22 45 32 23 44 31 22 45 32 23 45 32 23 44 31 22 45 32 23 45 32 23 45 32 23 45 32 23 45 32 23 45 32 23 46 33 24 44 31 22 46 33 24 45 32 23 45 32 23 45 32 23 46 33 24 45 32 23 45 32 23 44 31 22 44 31 22 46 33 24 46 33 24 46 33 24 46 33 24 46 33 24 44 31 23 47 35 23 45 32 23 46 33 24 46 33 24 47 34 25 47 34 25 46 33 24 45 32 23 44 34 24 44 34 24 45 32 23 45 32 23 46 33 24 45 32 23 45 32 23 43 33 23 45 32 23 45 35 25 47 34 25 46 33 24 43 33 23 46 33 24 46 33 24 46 33 24 46 33 24 45 32 23 45 32 23 45 32 23 46 33 24 46 33 24 45 32 23 45 32 23 45 32 23 46 33 24 45 32 23 45 32 23 
45 36 29 45 36 29 45 36 29 44 35 28 45 34 28 46 35 29 46 35 29 46 36 27 46 36 27 45 35 26 44 34 25 45 35 26 45 35 26 45 35 26 44 34 25 44 34 25 44 34 25 46 33 24 45 32 23 47 34 25 47 34 25 45 32 23 46 33 24 45 32 23 46 33 24 45 32 23 45 32 23 47 34 25 46 33 24 46 33 24 47 34 25 45 32 23 45 32 23 43 30 21 44 31 22 45 32 23 45 32 23 44 31 22 45 32 23 45 32 23 46 33 24 45 32 23 45 32 23 45 32 23 44 31 22 46 33 24 45 32 23 45 32 23 45 32 23 45 32 23 44 31 22 46 33 24 46 33 24 45 32 23 46 33 24 45 32 23 45 32 23 46 33 24 45 32 23 47 34 25 46 33 24 46 33 24 45 32 23 45 32 23 45 32 23 45 32 23 46 33 25 46 33 24 46 33 24 46 33 24 43 33 23 44 34 24 44 31 22 46 33 24 45 32 23 45 32 23 44 34 24 43 33 23 45 32 23 45 32 23 46 33 24 45 32 23 46 33 24 43 33 23 43 33 23 44 31 22 46 33 24 45 32 23 46 33 24 45 32 23 45 32 23 43 30 21 45 32 23 45 32 23 45 32 23 47 34 25 45 32 23 44 31 22 45 32 23 45 32 23 
45 36 29 45 36 29 46 37 30 45 36 29 45 34 28 46 35 29 45 34 28 45 35 26 45 35 26 45 35 26 44 34 25 45 35 26 45 35 26 45 35 26 44 34 25 45 35 26 44 34 25 45 32 23 46 33 24 47 34 25 46 33 24 46 33 24 45 32 23 46 33 24 45 32 23 45 32 23 46 33 24 47 34 25 45 32 23 46 33 24 46 33 24 45 32 23 45 32 23 45 32 23 44 31 22 45 32 23 44 31 22 45 32 23 45 32 23 46 33 24 46 33 24 44 31 22 44 31 22 44 31 22 44 31 22 45 32 23 44 31 22 45 32 23 46 33 24 45 32 23 45 32 23 46 33 24 45 32 23 45 32 23 45 32 23 45 32 23 44 31 22 45 32 23 46 33 24 45 32 23 45 32 23 46 34 22 45 32 23 45 32 23 46 33 25 45 32 23 45 32 23 46 33 24 46 33 24 46 33 24 44 31 22 43 33 23 44 34 24 45 32 23 45 32 23 46 33 24 45 32 23 45 32 23 45 32 23 43 33 23 46 33 24 44 34 24 46 33 24 46 33 24 43 33 23 44 31 22 45 32 23 45 32 23 45 32 23 45 32 23 44 31 22 45 32 23 44 31 22 46 33 24 44 31 22 45 32 23 44 31 22 45 32 23 46 33 24 44 31 22 
45 36 29 45 36 29 44 35 30 45 36 29 46 35 29 46 35 29 45 34 28 45 35 26 45 35 26 46 36 27 45 35 26 46 36 27 44 34 25 45 35 26 45 35 26 44 34 25 45 35 26 46 33 24 46 33 24 45 32 23 46 33 24 46 33 24 46 33 24 45 32 23 45 32 23 46 33 24 46 33 24 45 32 23 46 33 24 45 32 23 45 32 23 44 31 22 44 31 22 45 32 23 45 32 23 45 32 23 46 33 24 45 32 23 45 32 23 44 31 22 44 31 22 44 31 22 45 32 23 44 31 22 45 32 23 44 31 22 44 31 22 45 32 23 46 33 24 45 32 23 46 33 24 46 33 24 45 32 23 45 32 23 45 32 23 45 32 23 45 32 23 45 32 23 45 32 23 45 32 23 45 32 23 45 32 23 45 32 23 45 33 21 46 33 24 45 32 23 45 32 23 46 33 24 46 33 24 45 32 23 46 33 24 46 33 24 44 34 24 43 33 23 45 32 23 46 33 24 43 33 23 43 33 23 45 32 23 46 33 24 45 32 23 45 32 23 46 33 24 43 33 23 43 33 23 47 34 25 46 33 24 45 32 23 46 33 24 45 32 23 44 31 22 45 32 23 44 31 22 44 31 22 46 33 24 45 32 23 45 32 23 45 32 23 45 32 23 45 32 23 
45 36 29 45 36 29 46 37 30 45 36 29 46 35 29 47 36 30 46 35 29 45 35 26 46 36 27 45 35 26 44 34 25 45 35 26 45 35 26 44 34 25 44 34 25 45 35 26 44 34 25 46 33 24 46 33 24 46 33 24 46 33 24 46 33 24 45 32 23 45 32 23 45 32 23 45 32 23 45 32 23 45 32 23 47 34 25 45 32 23 46 33 24 45 32 23 46 33 24 45 32 23 44 31 22 45 32 23 45 32 23 44 31 22 45 32 23 45 32 23 46 33 24 45 32 23 45 32 23 45 32 23 45 32 23 44 31 22 45 32 23 45 32 23 46 33 24 44 31 22 45 32 23 45 32 23 44 31 22 44 31 22 45 32 23 45 32 23 45 32 23 46 33 24 46 33 24 46 33 24 46 34 22 45 32 23 45 32 23 45 32 23 45 32 23 45 32 24 45 32 23 45 32 23 46 33 24 46 33 24 43 33 23 44 34 24 45 32 23 46 33 24 45 32 23 46 33 24 45 32 23 46 33 24 45 32 23 43 33 23 46 33 24 43 33 23 46 33 24 45 32 23 43 33 23 46 33 24 44 31 22 45 32 23 45 32 23 44 31 22 45 32 23 44 31 22 46 33 24 45 32 23 46 33 24 45 32 23 44 31 22 46 33 24 46 33 24 45 32 23 
45 36 29 45 36 29 45 36 29 46 37 30 46 35 29 45 34 28 46 35 29 45 35 26 45 35 26 44 34 25 45 35 26 44 34 25 44 34 25 45 35 26 43 33 24 44 34 25 44 34 25 46 33 25 46 33 25 46 33 24 46 33 24 46 33 24 47 34 25 46 33 24 46 33 24 45 32 23 45 32 23 46 33 24 46 33 24 44 31 22 45 32 23 45 32 23 46 33 24 45 32 23 44 31 22 45 32 23 45 32 23 45 32 23 46 33 24 44 31 22 44 31 22 46 33 24 44 31 22 46 33 24 45 32 23 45 32 23 43 30 21 44 31 22 45 32 23 45 32 23 44 31 22 45 32 23 44 31 22 45 32 23 45 32 23 45 32 23 44 31 22 44 31 22 46 33 24 44 31 22 44 31 22 45 32 23 45 32 23 44 31 22 45 32 23 45 32 23 45 32 23 45 32 24 45 32 23 45 32 23 45 32 23 44 34 24 43 33 23 45 32 23 45 32 23 44 31 22 43 33 23 43 33 23 45 32 23 45 32 23 44 31 22 44 31 22 45 32 23 42 32 22 43 33 23 46 33 24 45 32 23 45 32 23 45 32 23 46 33 24 46 33 24 46 33 24 45 32 23 44 31 22 44 31 22 44 31 22 45 32 23 45 32 23 42 29 20 45 32 23 
45 36 27 46 37 30 44 35 30 45 36 29 45 34 28 46 35 29 46 35 29 45 35 26 46 36 27 44 34 25 44 34 25 45 35 26 44 34 25 44 34 25 45 35 26 44 34 25 45 35 26 46 33 25 47 34 26 45 32 23 46 33 24 47 34 25 46 33 24 47 34 25 45 32 23 46 33 24 46 33 24 45 32 23 45 32 23 45 32 23 45 32 23 44 31 22 46 33 24 46 33 24 45 32 23 46 33 24 45 32 23 45 32 23 46 33 24 44 31 22 45 32 23 46 33 24 43 30 21 44 31 22 43 30 21 45 32 23 45 32 23 44 31 22 45 32 23 44 31 22 45 32 23 45 32 23 44 31 22 45 32 23 45 32 23 45 32 23 45 32 23 45 32 23 44 31 22 45 32 23 44 31 22 44 31 22 44 31 22 45 32 23 45 32 23 46 33 24 45 32 23 45 32 23 45 32 23 44 31 22 45 32 23 45 32 23 43 33 23 43 33 23 46 33 24 44 31 22 45 32 23 45 32 23 45 32 23 44 34 24 45 32 23 43 33 23 46 33 24 45 32 23 43 33 23 44 31 22 45 32 23 44 31 22 44 31 22 45 32 23 45 32 23 46 33 24 45 32 23 45 32 23 45 32 23 44 31 22 45 32 23 43 30 21 45 32 23 44 31 22 
44 35 28 44 35 28 45 36 29 45 36 29 46 35 29 46 35 29 45 34 28 45 35 26 45 35 26 45 35 26 44 34 25 44 34 25 45 35 26 46 36 27 46 36 27 45 35 26 44 33 27 46 33 25 47 34 26 45 32 24 46 33 24 45 32 23 46 33 24 46 33 24 46 33 24 46 33 24 46 33 24 45 32 23 45 32 23 45 32 23 44 31 22 45 32 23 45 32 23 45 32 23 45 32 23 45 32 23 45 32 23 45 32 23 46 33 24 45 32 23 46 33 24 44 31 22 45 32 23 44 31 22 45 32 23 45 32 23 44 31 22 45 32 23 45 32 23 45 32 23 46 33 24 44 31 22 44 31 22 45 32 23 45 32 23 44 31 22 45 32 23 45 32 23 44 31 22 45 32 23 46 33 24 44 31 22 46 34 22 45 32 23 46 33 24 45 32 23 45 32 23 46 33 24 44 31 22 45 32 23 43 33 23 44 34 24 45 32 23 45 32 23 45 32 23 46 33 24 44 31 22 45 32 23 46 33 24 43 33 23 45 32 23 42 32 22 44 31 22 45 32 23 42 32 22 44 31 22 44 31 22 46 33 24 45 32 23 46 33 24 44 31 22 45 32 23 45 32 23 44 31 22 44 31 22 45 32 23 44 31 22 43 30 21 44 31 22 43 30 21 
