P3
100 50
255
57 58 62 58 59 63 59 60 64 59 60 64 59 60 64 61 62 66 60 61 65 61 62 66 61 62 66 62 63 67 61 62 66 62 63 67 63 64 68 64 65 69 63 64 68 65 66 70 63 64 68 63 64 68 64 65 69 65 66 70 64 65 69 65 66 70 64 65 69 64 65 69 63 67 70 64 68 71 64 68 71 64 68 71 66 67 71 66 67 71 66 67 71 65 66 70 66 70 73 68 69 73 68 69 73 68 69 73 65 69 72 65 69 72 66 70 73 70 69 74 70 71 75 67 71 74 68 69 73 67 68 72 66 70 73 68 72 75 69 70 74 68 72 75 69 70 74 69 70 74 69 70 74 71 72 76 71 72 76 71 72 76 71 72 76 70 71 75 69 70 74 70 71 75 70 71 75 70 71 75 70 71 75 71 72 76 72 73 77 69 73 76 69 73 76 70 74 77 72 73 77 71 72 76 70 71 73 72 73 75 72 73 75 70 71 73 74 75 77 72 73 75 73 74 78 73 74 76 72 73 77 74 75 77 73 74 76 73 74 76 74 75 77 72 73 75 73 74 76 74 75 77 73 74 76 73 74 76 74 75 77 73 74 76 74 75 77 75 76 78 74 75 77 73 74 76 75 76 78 75 76 78 74 75 77 76 77 79 76 77 79 74 75 77 75 76 78 76 77 79 
56 57 61 57 58 62 57 58 62 57 58 62 57 58 62 60 61 65 60 61 65 58 59 63 59 60 64 59 60 64 60 61 65 61 62 66 62 63 67 62 63 67 63 64 68 63 64 68 63 64 68 62 63 67 63 64 68 64 65 69 64 65 69 63 64 68 62 63 67 62 63 67 65 66 70 63 64 68 64 65 69 64 65 69 63 67 70 63 67 70 64 68 71 64 68 71 64 68 71 68 69 73 68 69 73 67 68 72 65 69 72 65 69 72 68 69 73 69 70 74 66 70 73 68 69 73 65 69 72 67 71 74 68 69 73 68 69 73 66 70 73 68 69 73 67 71 74 67 71 74 67 71 74 71 72 76 72 73 77 68 72 75 68 72 75 68 72 75 68 72 75 68 72 75 68 72 75 69 73 76 68 72 75 70 71 75 70 71 75 70 71 75 70 74 77 69 73 76 71 72 76 71 72 76 72 73 75 71 72 74 71 72 74 71 72 74 72 73 75 72 73 75 71 72 76 73 74 76 73 74 78 74 75 77 74 75 79 73 74 76 73 74 76 73 74 76 74 75 77 73 74 76 73 74 76 73 74 76 75 76 78 74 75 77 73 74 76 73 74 76 73 74 76 74 75 77 74 75 77 76 77 79 74 75 77 73 74 76 75 76 78 74 75 77 74 75 77 74 75 77 
55 56 60 56 57 61 56 57 61 56 57 61 57 58 62 58 59 63 58 59 63 58 59 63 58 59 63 59 60 64 59 60 64 60 61 65 60 61 65 60 61 65 62 63 67 62 63 67 62 63 67 62 63 67 63 64 68 63 64 68 63 64 68 63 64 68 62 63 67 62 63 67 62 63 67 63 64 68 63 64 68 61 65 68 65 66 70 62 66 69 65 66 70 63 67 70 67 68 72 67 68 72 66 67 71 66 67 71 67 68 72 67 68 72 67 68 72 68 69 73 68 69 73 68 69 73 68 69 73 67 68 72 68 69 73 69 70 74 68 69 73 68 69 73 66 70 73 66 70 73 67 71 74 68 72 75 69 70 74 70 71 75 67 71 74 70 71 75 67 72 75 69 70 74 70 71 75 68 72 75 67 71 74 70 71 75 70 71 75 72 73 77 71 72 76 69 73 76 69 73 76 69 73 76 70 71 75 71 72 76 71 72 76 70 74 77 71 72 74 73 74 76 72 73 75 73 74 76 74 75 77 73 74 76 73 74 76 74 75 77 73 74 78 73 74 78 73 74 78 73 74 78 73 74 78 73 74 78 74 75 79 73 74 78 73 74 76 74 75 77 74 75 77 73 74 76 74 75 77 75 76 78 75 76 78 74 75 77 74 75 77 74 75 77 73 74 78 74 75 79 
54 55 59 53 54 58 54 55 59 55 56 60 57 58 62 55 56 60 56 57 61 56 57 61 56 57 61 57 58 62 58 59 63 58 59 63 57 58 62 58 59 63 59 60 64 58 59 63 60 61 65 60 61 65 62 63 67 63 64 68 62 63 67 61 62 66 60 61 65 61 62 66 61 62 66 62 63 67 61 62 66 62 63 67 63 64 68 64 65 69 64 65 69 65 66 70 66 67 71 66 67 71 67 68 72 67 68 72 65 66 70 66 67 71 67 68 72 67 68 72 68 69 73 67 68 72 67 68 72 67 68 72 67 68 72 67 68 72 69 70 74 68 69 73 69 70 74 68 69 73 69 70 74 69 70 74 69 70 74 69 70 74 68 69 73 69 70 74 66 71 74 70 71 75 70 71 75 68 72 75 70 71 75 70 71 75 70 71 75 70 71 75 70 71 75 70 71 75 70 71 75 70 71 75 70 71 75 71 72 76 71 72 76 71 72 76 72 73 77 71 72 76 72 73 77 72 73 77 72 73 77 72 73 77 73 74 78 73 74 78 73 74 78 73 74 78 73 74 78 73 74 78 73 74 78 73 74 78 73 74 78 73 74 78 73 74 78 73 74 78 74 75 79 73 74 78 74 75 79 74 75 79 74 75 79 74 75 79 74 75 79 74 75 77 73 74 76 74 75 77 
54 55 59 53 54 58 53 54 58 53 54 58 54 55 59 52 53 57 53 54 58 55 56 60 56 57 61 57 58 62 57 58 62 57 58 62 57 58 62 58 59 63 58 59 63 58 59 63 59 60 64 59 60 64 60 61 65 61 62 66 61 62 66 61 62 66 61 62 66 60 61 65 61 62 66 61 62 66 61 62 66 61 62 66 63 64 68 63 64 68 64 65 69 65 66 70 65 66 70 65 66 70 66 67 71 66 67 71 65 66 70 66 67 71 67 68 72 68 69 73 68 69 73 68 69 73 67 68 72 67 68 72 68 69 73 69 70 74 68 69 73 70 71 75 69 70 74 68 69 73 67 68 72 68 69 73 69 70 74 69 70 74 68 69 73 69 70 74 68 72 75 70 71 75 69 70 74 71 72 76 70 71 75 70 71 75 69 70 74 70 71 75 69 70 74 70 71 75 68 69 73 69 70 74 70 71 75 69 70 74 71 72 76 71 72 76 71 72 76 73 74 78 71 72 76 73 74 78 71 72 76 72 73 77 72 73 77 73 74 78 72 73 77 72 73 77 72 73 77 72 73 77 72 73 77 73 74 78 71 72 76 73 74 78 74 75 79 73 74 78 73 74 78 73 74 78 73 74 78 73 74 78 73 74 78 73 74 78 73 74 78 74 75 79 73 74 78 72 73 77 
52 53 57 51 52 56 51 52 56 51 52 56 53 54 58 51 52 56 52 53 57 51 52 56 54 55 59 55 56 60 56 57 61 55 56 60 54 55 59 56 57 61 57 58 62 57 58 62 58 59 63 58 59 63 59 60 64 59 60 64 60 61 65 60 61 65 60 61 65 59 60 64 60 61 65 60 61 65 59 60 64 60 61 65 60 61 65 62 63 67 62 63 67 63 64 68 63 64 68 64 65 69 64 65 69 64 65 69 64 65 69 66 67 71 66 67 71 66 67 71 65 66 70 65 66 70 65 66 70 65 66 70 66 67 71 67 68 72 68 69 73 68 69 73 68 69 73 67 68 72 67 68 72 68 69 73 69 70 74 68 69 73 68 69 73 68 69 73 69 70 74 69 70 74 69 70 74 70 71 75 69 70 74 70 71 75 69 70 74 69 70 74 67 71 74 70 71 75 71 72 76 70 71 75 68 72 75 68 72 75 68 72 75 71 72 76 71 72 76 72 73 77 72 73 77 71 72 76 71 72 76 72 73 77 72 73 77 71 72 76 72 73 77 71 72 76 72 73 77 72 73 77 73 74 78 71 72 76 73 74 78 72 73 77 72 73 77 72 73 77 74 75 79 73 74 78 73 74 78 72 73 77 72 73 77 72 73 77 72 73 77 74 75 79 75 76 80 75 76 80 
48 49 53 49 50 54 48 49 53 49 50 54 50 51 55 50 51 55 51 52 56 51 52 56 52 53 57 53 54 58 53 54 58 53 54 58 52 53 57 53 54 58 54 55 59 55 56 60 56 57 61 56 57 61 57 58 62 56 57 61 58 59 63 57 58 62 59 60 64 59 60 64 58 59 63 58 59 63 58 59 63 58 59 63 60 61 65 61 62 66 62 63 67 63 64 68 62 63 67 62 63 67 62 63 67 63 64 68 63 64 68 64 65 69 64 65 69 65 66 70 65 66 70 66 67 71 64 65 69 65 66 70 64 65 69 65 66 70 66 67 71 65 66 70 66 67 71 65 66 70 66 67 71 67 68 72 68 69 73 68 69 73 67 68 72 67 68 72 68 69 73 68 69 73 68 69 73 67 68 72 69 70 74 68 69 73 68 69 73 70 71 75 68 69 73 69 70 74 68 69 73 68 69 73 69 70 74 68 69 73 70 71 75 70 71 75 72 73 77 71 72 76 71 72 76 71 72 76 71 72 76 72 73 77 72 73 77 72 73 77 71 72 76 71 72 76 71 72 76 71 72 76 71 72 76 71 72 76 71 72 76 71 72 76 72 73 77 72 73 77 73 74 78 72 73 77 71 72 76 72 73 77 72 73 77 72 73 77 73 74 78 72 73 77 72 73 77 74 75 79 
48 49 53 48 49 53 48 49 53 48 49 53 49 50 54 48 49 53 51 52 56 50 51 55 51 52 56 52 53 57 52 53 57 52 53 57 53 54 58 53 54 58 53 54 58 53 54 58 55 56 60 55 56 60 57 58 62 57 58 62 57 58 62 57 58 62 58 59 63 58 59 63 58 59 63 58 59 63 58 59 63 59 60 64 60 61 65 60 61 65 61 62 66 61 62 66 61 62 66 62 63 67 63 64 68 63 64 68 63 64 68 62 63 67 62 63 67 62 63 67 63 64 68 64 65 69 64 65 69 64 65 69 64 65 69 65 66 70 66 67 71 65 66 70 64 65 69 65 64 69 65 66 70 67 68 72 67 68 72 68 69 73 67 68 72 66 67 71 67 68 72 66 67 71 68 69 73 68 69 73 68 69 73 68 69 73 68 69 73 68 69 73 68 69 73 68 69 73 68 69 73 68 69 73 69 70 74 69 70 74 69 70 74 69 70 74 70 71 75 71 72 76 71 72 76 71 72 76 70 71 75 71 72 76 72 73 77 71 72 76 70 71 75 72 73 77 71 72 76 71 72 76 70 71 75 71 72 76 71 72 76 71 72 76 71 72 76 71 72 76 72 73 77 71 72 76 71 72 76 72 73 77 73 74 78 72 73 77 72 73 77 73 74 78 72 73 77 73 74 78 
45 46 50 47 48 52 47 48 52 47 48 52 46 47 51 46 47 51 47 48 52 49 50 54 49 50 54 48 49 53 50 51 55 52 53 57 54 55 59 53 54 58 52 53 57 52 53 57 53 54 58 54 55 59 56 57 61 57 58 62 56 57 61 57 58 62 57 58 62 56 57 61 58 59 63 58 59 63 58 59 63 59 60 64 60 61 65 61 62 66 61 62 66 60 61 65 61 62 66 61 62 66 62 63 67 61 62 66 62 63 67 61 62 66 61 62 66 62 63 67 62 63 67 65 66 70 64 65 69 64 65 69 64 65 69 65 66 70 63 64 68 64 65 69 64 65 69 63 64 68 64 65 69 66 67 71 67 68 72 67 68 72 66 67 71 67 68 72 67 68 72 67 68 72 66 67 71 68 69 73 68 69 73 67 68 72 67 68 72 68 69 73 67 68 72 66 67 71 68 69 73 68 69 73 67 68 72 68 69 73 68 69 73 69 70 74 69 70 74 70 71 75 70 71 75 70 71 75 70 71 75 71 72 76 69 70 74 70 71 75 69 70 74 70 71 75 71 72 76 70 71 75 70 71 75 71 72 76 70 71 75 71 72 76 70 71 75 70 71 75 71 72 76 71 72 76 71 72 76 72 73 77 73 74 78 73 74 78 72 73 77 73 74 78 71 72 76 71 72 76 
41 42 46 43 44 48 44 45 49 45 46 50 44 45 49 46 47 51 45 46 50 46 47 51 47 48 52 46 47 51 48 49 53 49 50 54 51 52 56 49 50 54 49 50 54 51 52 56 51 52 56 51 52 56 52 53 57 52 53 57 54 55 59 55 56 60 55 56 60 56 57 61 56 57 61 56 57 61 56 57 61 58 57 62 58 59 63 60 59 64 61 62 66 62 61 66 61 62 66 60 61 65 60 61 65 59 60 64 61 62 66 61 62 66 61 62 66 60 61 65 60 61 65 63 64 68 64 65 69 63 64 68 63 64 68 64 65 69 62 63 67 64 65 69 65 66 70 62 66 69 64 65 69 65 66 70 63 67 70 66 67 71 64 65 69 65 66 70 66 67 71 66 67 71 66 67 71 67 68 72 66 67 71 67 68 72 66 67 71 66 67 71 67 68 72 67 68 72 67 68 72 68 69 73 67 68 72 67 68 72 68 69 73 67 68 72 67 68 72 69 70 74 69 70 74 68 69 73 69 70 74 68 69 73 67 68 72 69 70 74 69 70 74 68 69 73 69 70 74 69 70 74 69 70 74 68 69 73 69 70 74 69 70 74 71 72 76 70 71 75 71 72 76 72 73 77 72 73 77 71 72 76 71 72 76 71 72 76 72 73 77 72 73 77 72 73 77 72 73 77 
39 40 44 41 42 46 42 43 47 44 45 49 42 46 49 44 45 49 45 46 50 46 47 51 46 47 51 47 48 52 47 48 52 48 49 53 48 49 53 48 49 53 47 48 52 48 49 53 48 49 53 50 51 55 51 52 56 50 51 55 51 52 56 51 52 56 51 52 56 53 54 58 54 58 61 55 56 60 54 55 59 55 56 60 58 59 63 57 58 62 59 60 64 59 60 64 59 60 64 58 59 63 59 60 64 58 59 63 59 60 64 59 60 64 60 61 65 60 61 65 59 60 64 61 62 66 62 63 67 60 61 65 62 63 67 64 65 69 61 62 66 65 66 70 64 65 69 64 65 69 63 64 68 64 65 69 63 64 68 64 65 69 63 64 68 64 65 67 65 66 70 66 67 71 66 67 71 65 66 70 67 68 72 66 67 71 66 67 71 66 67 71 66 67 71 66 67 71 66 67 71 67 68 72 67 68 72 67 68 72 67 68 72 67 68 72 68 69 73 69 70 74 69 70 74 69 70 74 70 71 75 68 69 73 69 70 74 68 69 73 69 70 74 69 70 74 70 71 75 69 70 74 69 70 74 69 70 74 69 70 74 69 70 74 69 70 74 70 71 75 69 70 74 71 72 76 71 72 76 71 72 76 71 72 76 71 72 76 70 71 75 70 71 75 70 71 75 71 72 76 
38 39 43 39 40 44 41 42 46 41 42 46 41 42 46 42 43 47 42 43 45 44 45 49 44 45 49 47 48 52 46 47 51 46 47 51 46 47 51 46 47 51 48 49 53 47 48 52 47 48 52 48 49 53 52 51 56 50 51 55 50 51 55 47 48 52 50 51 55 53 52 57 53 54 58 54 55 59 54 55 59 54 55 59 57 58 62 58 59 63 57 58 62 57 58 62 57 58 62 56 57 61 56 57 61 56 57 61 57 58 62 59 60 64 59 60 64 60 61 65 59 60 64 60 61 65 60 61 65 60 61 65 60 61 65 62 63 67 61 62 66 61 62 66 63 64 68 62 63 67 62 63 67 64 65 69 63 64 68 63 64 68 62 63 67 63 64 68 65 66 70 65 66 70 65 66 70 64 65 69 65 66 70 65 66 70 65 66 70 66 67 71 66 67 71 66 67 71 67 68 72 67 68 72 66 67 71 67 68 72 67 68 72 67 68 72 68 69 73 68 69 73 69 70 74 69 70 74 68 69 73 68 69 73 68 69 73 69 70 74 70 71 75 68 69 73 68 69 73 69 70 74 68 69 73 70 71 75 69 70 74 69 70 74 69 70 74 69 70 74 69 70 74 70 71 75 71 72 76 71 72 76 71 72 76 72 73 77 70 71 75 70 71 75 70 71 75 71 72 76 
34 38 41 35 39 40 37 41 44 39 40 42 39 40 44 40 41 45 40 41 45 41 42 46 44 45 49 44 45 49 44 45 49 43 44 48 45 46 50 46 47 51 46 47 51 44 45 49 45 46 50 46 47 51 50 51 55 50 51 55 48 49 53 48 49 53 48 49 53 52 53 57 52 53 57 52 53 57 52 53 57 54 55 59 56 57 61 56 57 61 56 57 61 57 58 62 55 56 60 54 55 59 55 56 60 55 56 60 57 58 62 58 59 63 58 59 63 58 59 63 59 60 64 61 62 66 59 60 64 59 60 64 59 60 64 61 62 66 61 62 66 61 62 66 61 62 66 60 61 63 61 62 66 62 63 67 63 64 68 61 62 66 63 64 68 63 64 68 62 63 67 64 65 69 64 65 69 64 65 69 64 65 69 65 66 70 64 65 69 64 65 69 65 66 70 65 66 70 65 66 70 65 66 70 65 66 70 66 67 71 65 66 70 67 68 72 67 68 72 68 69 73 67 68 72 67 68 72 68 69 73 68 69 73 69 70 74 68 69 73 67 68 72 67 68 72 68 69 73 68 69 73 69 70 74 69 70 74 68 69 73 69 70 74 69 70 74 69 70 74 68 69 73 69 70 74 70 71 75 71 72 76 71 72 76 71 72 76 70 71 75 69 70 74 69 70 74 70 71 75 
34 38 39 34 38 41 35 39 40 38 39 43 38 39 43 39 40 44 39 40 45 39 40 44 39 40 44 41 42 46 42 43 47 43 44 48 44 45 49 44 45 49 45 46 50 43 44 48 45 46 50 44 45 49 50 51 55 51 52 56 49 50 54 47 48 52 46 47 51 50 51 55 49 50 54 51 52 56 51 52 56 55 56 60 55 56 60 55 56 60 54 55 59 52 53 57 52 53 57 52 53 57 54 55 59 55 56 60 57 58 62 57 58 62 57 58 62 57 58 62 58 59 63 60 61 65 59 60 64 58 59 63 57 58 62 59 60 64 60 61 65 60 61 65 59 60 64 59 60 64 60 61 65 61 62 66 62 63 67 63 64 68 62 63 67 62 63 67 62 63 67 63 64 68 64 65 69 63 64 68 64 65 69 64 65 69 64 65 69 64 65 69 64 65 69 64 65 69 64 65 69 64 65 69 64 65 69 65 66 70 66 67 71 67 68 72 66 67 71 66 67 71 67 68 72 67 68 72 67 68 72 67 68 72 68 69 73 68 69 73 67 68 72 66 67 71 67 68 72 68 69 73 67 68 72 69 70 74 68 69 73 67 68 72 68 69 73 69 70 74 69 70 74 70 71 75 70 71 75 69 70 74 70 71 75 70 71 75 70 71 75 69 70 74 70 71 75 70 71 75 
31 36 39 31 35 38 32 36 39 33 37 40 34 38 41 35 39 42 36 40 43 37 41 44 38 39 43 39 40 44 40 41 45 42 43 47 43 44 48 42 43 47 42 43 47 41 42 46 43 44 48 46 47 51 43 47 50 45 49 52 47 48 52 46 47 51 46 47 51 45 49 52 48 49 53 49 50 54 50 51 55 51 52 56 53 54 58 53 54 58 52 53 57 51 52 56 51 52 56 52 53 57 53 54 58 54 55 59 56 57 61 56 57 61 56 57 61 56 57 61 56 57 61 57 58 62 57 58 62 56 57 61 58 59 63 60 61 65 59 60 64 59 60 64 60 61 65 61 62 66 60 61 65 60 61 65 61 62 66 61 62 64 62 63 67 61 62 66 62 63 67 62 63 67 62 63 67 62 63 67 62 63 67 62 63 67 63 64 68 64 65 69 65 66 70 63 64 68 63 64 68 64 65 69 63 64 68 63 64 68 64 65 69 65 66 70 66 67 71 65 66 70 65 66 70 65 66 70 66 67 71 68 69 73 67 68 72 67 68 72 65 66 70 67 68 72 68 69 73 68 69 73 68 69 73 67 68 72 68 69 73 68 69 73 68 69 73 69 70 74 67 68 72 69 70 74 69 70 74 69 70 74 69 70 74 69 70 74 69 70 74 69 70 74 69 70 74 69 70 74 
29 33 36 29 33 36 30 34 37 31 35 38 31 35 38 31 35 38 32 36 39 33 37 40 36 37 41 37 38 42 38 39 43 39 40 44 39 40 44 40 41 45 40 41 45 40 41 45 41 42 46 44 45 49 40 44 47 45 46 50 45 46 50 46 47 51 46 47 51 46 47 51 46 47 51 45 49 52 47 48 52 49 50 54 49 50 54 50 51 55 50 51 55 49 50 54 51 52 56 51 52 56 50 51 55 51 52 56 53 54 58 54 55 59 54 55 59 54 55 59 55 56 60 56 57 61 55 56 60 56 57 61 57 58 62 57 58 62 58 59 63 58 59 63 57 58 62 58 59 63 59 60 64 59 60 64 58 59 63 60 61 63 59 60 64 59 60 64 59 60 64 60 61 65 61 62 66 62 63 67 62 63 67 61 62 66 61 62 66 62 63 67 63 64 68 63 64 68 62 63 67 64 65 69 64 65 69 63 64 68 63 64 68 63 64 68 65 66 70 65 66 70 64 65 69 64 65 69 65 66 70 66 67 71 66 67 71 66 67 71 67 68 72 67 68 72 66 67 71 67 68 72 67 68 72 67 68 72 67 68 72 67 68 72 68 69 73 68 69 73 68 69 73 67 68 72 67 68 72 68 69 73 68 69 73 69 70 74 69 70 74 68 69 73 68 69 73 68 69 73 
28 32 33 29 33 34 30 34 37 30 34 35 31 35 38 30 34 37 31 35 38 31 35 38 33 37 40 33 37 40 33 37 40 37 38 42 38 39 43 39 40 44 40 41 45 40 41 45 38 42 45 42 43 47 40 44 47 41 45 48 44 45 49 42 46 49 45 46 50 44 48 51 42 46 49 41 45 48 46 47 51 45 49 52 48 49 53 49 50 54 49 50 54 48 49 53 50 51 55 50 51 55 49 50 54 49 50 54 52 53 57 52 53 57 53 54 58 53 54 58 54 55 59 54 55 59 54 55 59 54 55 59 56 57 61 57 58 62 56 57 61 58 59 63 57 58 62 57 58 62 58 59 63 58 59 63 59 60 64 59 60 64 60 61 65 59 60 64 59 60 64 60 61 65 60 61 65 62 63 67 61 62 66 61 62 66 60 61 65 62 63 67 61 62 66 62 63 67 62 63 67 63 64 68 63 64 68 62 63 67 62 63 67 64 65 69 64 65 69 64 65 69 64 65 69 63 64 68 63 64 68 65 66 70 65 66 70 65 66 70 65 66 70 66 67 71 66 67 71 67 68 72 66 67 71 66 67 71 67 68 72 67 68 72 67 68 72 67 68 72 68 69 73 67 68 72 68 69 73 68 69 73 67 68 72 68 69 73 69 70 74 68 69 73 68 69 73 68 69 73 
27 31 32 27 31 32 29 33 34 28 32 35 29 33 34 30 34 37 30 34 37 32 33 37 31 35 38 30 34 37 32 36 39 33 37 40 36 37 41 38 39 43 37 38 42 38 39 43 37 41 44 40 41 45 40 41 45 41 42 46 42 43 47 41 45 48 45 46 50 42 43 47 40 44 47 41 45 48 43 44 48 43 47 50 46 47 51 46 47 51 47 48 52 45 46 50 48 49 53 49 50 54 48 49 53 49 50 54 51 52 56 51 52 56 51 52 56 51 52 56 51 52 56 51 52 56 52 53 57 52 53 57 53 54 58 55 56 60 55 56 60 55 56 60 55 56 60 55 56 60 56 57 61 56 57 61 57 58 62 56 57 61 57 58 62 59 60 64 59 60 64 59 60 64 60 61 65 60 61 65 59 60 64 60 61 65 61 62 66 61 62 66 60 61 65 60 61 65 61 62 66 62 63 67 61 62 66 62 63 67 63 64 68 63 64 68 64 65 69 63 64 68 63 64 68 64 65 69 64 65 69 64 65 69 63 64 68 65 66 70 65 66 70 66 67 71 66 67 71 66 67 71 66 67 71 66 67 71 67 68 72 67 68 72 67 68 72 66 67 71 66 67 71 64 65 69 67 68 72 67 68 72 67 68 72 66 67 71 67 68 72 66 67 71 67 68 72 67 68 72 
25 29 30 25 29 32 26 30 31 26 30 33 27 31 32 28 32 35 27 31 32 27 31 34 26 30 33 27 31 34 30 34 37 31 35 38 32 36 39 29 33 36 29 33 36 35 36 40 39 40 44 38 39 43 35 39 42 38 39 43 38 41 46 40 41 45 41 42 46 39 40 44 38 42 45 39 43 46 42 43 47 39 43 46 42 46 49 44 45 49 42 46 49 45 46 50 46 47 51 47 48 52 48 49 53 49 50 54 50 51 55 51 52 56 51 52 56 50 51 55 49 50 54 48 49 53 50 51 55 49 53 56 52 51 56 53 54 58 52 53 57 51 52 56 53 54 58 53 54 58 52 53 57 54 55 59 54 55 59 54 55 59 55 56 60 57 58 62 58 59 63 57 58 62 57 58 62 58 59 63 59 60 64 60 61 65 61 62 66 60 61 65 60 61 65 58 59 63 59 60 64 60 61 65 59 60 64 61 62 66 62 63 67 62 63 67 61 62 66 63 64 68 62 63 67 63 64 68 63 64 68 62 63 67 62 63 67 63 64 68 65 66 70 63 64 68 63 64 68 64 65 69 65 66 70 65 66 70 67 68 72 67 68 72 67 68 72 65 66 70 64 65 69 64 65 69 67 68 72 66 67 71 67 68 72 65 66 70 65 66 70 65 66 70 66 67 71 67 68 72 
22 26 29 24 28 29 24 28 31 25 29 30 26 30 33 27 31 32 27 31 34 26 30 31 27 31 32 27 31 32 28 32 33 29 33 34 30 34 37 29 33 36 29 33 36 33 34 38 34 35 37 34 38 41 35 36 40 33 37 40 37 38 42 36 40 43 37 38 40 36 40 43 40 41 45 38 42 45 39 40 44 38 42 45 39 43 46 42 43 47 41 45 48 42 46 49 46 47 51 46 47 51 46 47 51 46 47 51 47 48 52 47 48 52 45 49 52 49 50 54 48 49 53 48 49 53 49 50 54 50 51 55 51 52 56 52 53 57 51 52 56 50 54 57 52 53 57 52 53 57 52 53 57 53 54 58 54 55 59 53 54 58 54 55 59 55 56 60 55 56 60 56 57 61 55 56 60 57 58 62 58 59 63 59 60 64 59 60 64 57 58 62 57 58 62 58 59 63 59 60 64 58 59 63 59 60 64 60 61 65 60 61 65 59 60 64 60 61 65 61 62 66 62 63 67 61 62 66 62 63 67 63 64 68 62 63 67 62 63 67 64 65 69 63 64 68 62 63 67 63 64 68 63 64 68 62 63 67 65 66 70 64 65 69 64 65 69 64 65 69 64 65 69 64 65 69 66 67 71 66 67 71 66 67 71 67 68 72 68 69 73 66 67 71 66 67 71 67 68 72 
21 25 26 21 25 28 22 26 27 22 26 29 25 29 30 26 30 33 24 28 29 24 28 31 25 31 31 25 29 30 25 29 32 26 30 33 26 30 33 29 33 36 30 34 37 30 34 37 30 34 37 31 35 38 32 36 39 32 36 39 33 37 40 34 38 41 34 38 41 35 39 42 38 39 43 38 39 43 36 40 43 39 40 44 42 41 46 39 43 46 39 43 46 44 43 48 44 45 49 44 45 49 45 46 50 44 45 49 45 46 50 44 48 51 45 46 50 46 47 51 47 48 52 47 48 52 48 49 53 49 48 53 49 50 54 51 52 56 50 51 55 50 51 55 52 53 57 51 52 56 52 53 57 52 53 57 52 53 57 52 53 57 54 55 59 53 54 58 53 54 58 53 54 58 52 53 57 56 57 61 57 58 62 56 57 61 56 57 61 57 58 62 57 58 62 57 58 62 57 58 62 56 57 61 57 58 62 59 60 64 59 60 64 59 60 64 58 59 63 59 60 64 60 61 65 62 63 67 60 61 65 60 61 65 61 62 66 62 63 67 61 62 66 61 62 66 61 62 66 62 63 67 62 63 67 62 63 67 64 65 69 63 64 68 63 64 68 63 64 68 64 65 69 62 63 67 63 64 68 64 65 69 64 65 69 66 67 71 67 68 72 65 66 70 64 65 69 66 67 71 
19 24 27 20 26 26 20 25 28 21 27 27 21 26 29 21 27 27 22 27 30 20 26 26 21 26 29 25 29 32 23 27 28 23 27 28 24 28 31 28 32 35 30 34 37 28 32 35 29 33 36 28 32 35 31 35 38 32 33 37 31 35 38 32 36 39 33 37 40 33 37 40 36 37 41 37 38 42 35 39 42 38 39 43 38 39 43 38 42 45 39 40 44 41 42 46 42 43 47 41 42 46 39 43 46 43 44 48 44 45 49 42 43 47 44 45 49 44 43 48 44 45 49 46 47 51 46 47 51 46 47 51 45 49 52 48 52 55 49 50 54 49 50 54 50 51 55 50 51 55 51 52 56 53 54 58 52 53 57 52 53 57 53 54 58 52 53 57 51 52 56 50 51 55 51 52 56 54 55 59 55 56 60 55 56 60 53 54 58 55 56 60 56 57 61 57 58 62 56 57 61 55 56 60 55 56 60 58 59 63 57 58 62 57 58 62 57 58 62 57 58 62 58 59 63 60 61 65 60 61 65 59 60 64 60 61 65 60 61 65 61 62 66 60 61 65 60 61 65 60 61 65 61 62 66 61 62 66 62 63 67 62 63 67 62 63 67 64 65 69 63 64 68 62 63 67 62 63 67 63 64 68 64 65 69 65 66 70 65 66 70 64 65 69 63 64 68 64 65 69 
17 22 25 19 25 25 18 23 26 19 25 25 20 25 28 19 25 25 18 23 26 18 24 24 19 25 25 22 26 27 24 28 29 22 26 27 23 27 28 26 30 31 28 32 33 28 32 35 29 33 36 27 31 34 29 33 36 28 32 35 29 33 36 29 33 36 31 35 36 30 34 37 34 35 39 35 36 40 36 37 41 37 38 42 35 39 42 33 38 41 35 39 42 36 40 43 37 41 44 36 40 43 40 41 45 41 42 46 41 42 46 41 40 45 38 42 45 41 42 46 44 45 49 43 44 48 41 45 48 41 45 48 42 46 49 44 48 51 46 50 53 46 50 53 48 49 53 47 48 52 49 50 54 51 52 56 50 51 55 52 53 57 51 52 56 51 52 56 50 51 55 50 51 55 50 51 55 53 54 58 54 55 59 53 54 58 52 53 57 53 54 58 54 55 59 54 55 59 54 55 59 55 56 60 56 57 61 57 58 62 56 57 61 55 56 60 56 57 61 57 58 62 57 58 62 57 58 62 57 58 62 57 58 62 58 59 63 59 60 64 59 60 64 58 59 63 59 60 64 60 61 65 61 62 66 61 62 66 61 62 66 59 60 64 59 60 64 62 63 67 62 63 67 60 61 65 62 63 67 64 65 69 64 65 69 64 65 69 65 66 70 64 65 69 63 64 68 64 65 69 
17 23 23 16 21 24 17 23 23 17 22 25 17 23 23 17 22 25 17 23 23 18 23 26 19 24 27 22 26 27 23 27 28 22 26 27 23 27 28 24 28 31 25 29 32 27 31 34 28 32 35 28 32 35 27 31 34 26 30 33 27 30 35 28 32 35 29 32 37 28 31 36 32 33 37 32 36 39 34 38 41 34 38 41 34 38 41 34 38 41 34 38 41 35 39 42 35 39 42 36 40 43 36 40 43 38 39 43 38 39 43 36 40 43 37 38 42 36 40 43 41 42 46 43 44 48 41 45 48 41 45 48 41 45 48 44 48 51 44 48 51 46 47 51 46 47 51 46 47 51 47 48 52 48 49 53 48 49 53 50 51 55 51 52 56 49 50 54 49 50 54 50 51 55 50 51 55 50 51 55 52 53 57 51 52 56 53 54 58 52 53 57 53 54 58 52 53 57 54 55 59 56 57 61 55 56 60 55 56 60 55 56 60 55 56 60 55 56 60 56 57 61 56 57 61 57 58 62 57 58 62 57 58 62 57 58 62 58 59 63 58 59 63 57 58 62 59 60 64 59 60 64 59 60 64 60 61 65 60 61 65 58 59 63 60 61 65 59 60 64 61 62 66 59 60 64 62 63 67 64 65 69 62 63 67 63 64 68 63 64 68 63 64 68 63 64 68 63 64 68 
17 22 25 18 24 24 16 21 24 16 22 22 16 21 24 17 23 23 18 23 26 18 24 24 20 24 25 20 24 25 19 23 26 21 25 28 21 25 28 22 26 29 24 28 31 25 26 30 24 28 31 25 29 32 24 28 29 24 28 31 26 30 31 27 31 32 28 32 35 29 33 34 29 33 36 30 34 37 31 35 38 31 35 38 31 35 38 31 35 38 33 34 38 34 38 41 32 36 39 31 35 38 32 36 39 34 38 41 35 39 42 37 38 42 33 38 41 37 38 42 36 40 43 39 40 44 40 41 45 41 42 46 42 43 47 43 44 48 43 44 48 43 44 48 43 44 48 43 44 48 45 46 50 46 47 51 47 48 52 47 48 52 46 47 51 47 48 52 47 48 52 48 49 53 46 47 51 47 48 52 49 50 54 49 50 54 51 52 56 51 52 56 50 51 55 50 51 55 51 52 56 52 53 57 54 55 59 54 55 59 53 54 58 53 54 58 53 54 58 54 55 59 55 56 60 55 56 60 56 57 61 57 58 62 56 57 61 56 57 61 57 58 62 57 58 62 58 59 63 57 58 62 58 59 63 59 60 64 59 60 64 59 60 64 59 60 64 59 60 64 60 61 65 60 61 65 60 61 65 61 62 66 60 61 65 60 61 65 60 61 65 61 62 66 62 63 67 61 62 66 
16 22 22 16 21 24 16 22 22 15 20 23 16 22 22 18 23 26 18 24 24 18 23 26 20 26 26 19 25 25 19 25 25 20 26 26 19 24 27 20 25 28 22 28 28 22 26 27 22 26 29 22 26 27 23 27 30 24 28 29 23 29 29 26 30 33 28 32 33 28 32 35 29 33 36 29 33 36 30 34 37 30 34 37 29 33 36 29 33 36 30 34 37 33 34 38 30 34 37 30 34 37 32 36 39 33 37 40 33 37 40 32 36 39 37 38 42 36 37 41 36 37 41 37 41 44 39 40 44 40 41 45 42 41 46 42 43 47 41 42 46 39 43 46 39 43 46 41 45 48 43 47 50 44 48 51 44 48 51 43 47 50 43 47 50 43 47 50 46 47 51 46 47 51 46 47 51 44 45 49 47 48 52 48 49 53 48 49 53 50 51 55 49 50 54 49 50 54 50 51 55 50 51 55 54 55 59 53 54 58 52 53 57 52 53 57 51 52 56 53 54 58 53 54 58 54 55 59 55 56 60 56 57 61 56 57 61 55 56 60 56 57 61 56 57 61 57 58 62 57 58 62 57 58 62 58 59 63 60 61 65 58 59 63 60 61 65 59 60 64 58 59 63 60 61 65 60 61 65 59 60 64 59 60 64 61 62 66 60 61 65 60 61 65 61 62 66 61 62 66 
14 19 22 14 19 22 15 20 23 14 19 22 17 22 25 16 21 24 17 22 25 18 23 26 18 24 24 19 25 25 18 24 24 19 25 25 19 25 25 19 25 25 21 27 27 20 26 26 21 25 26 21 25 26 22 26 29 23 27 28 23 27 30 24 28 29 25 29 32 26 30 31 25 31 31 26 32 32 27 31 32 24 29 32 26 30 33 27 31 34 28 32 35 28 32 35 27 31 34 30 34 37 31 35 36 32 36 37 32 36 39 31 35 38 34 35 39 32 36 39 33 37 40 34 38 41 34 38 41 35 39 42 37 41 44 37 41 44 39 43 46 38 42 45 39 43 46 42 43 47 40 44 47 40 44 47 41 45 48 40 44 47 40 44 47 42 43 47 44 43 48 42 43 47 43 44 48 44 45 49 45 46 50 46 47 51 45 46 50 47 48 52 49 50 54 48 49 53 47 48 52 47 48 52 50 51 55 50 51 55 49 50 54 49 50 54 48 49 53 49 50 54 49 50 54 51 52 56 52 53 57 53 54 58 53 54 58 53 54 58 54 55 59 54 55 59 53 54 58 55 56 60 56 57 61 55 56 60 55 56 60 56 57 61 56 57 61 57 58 62 57 58 62 59 60 64 59 60 64 60 61 65 59 60 64 60 61 65 58 59 63 60 61 65 59 60 64 60 61 65 
14 19 22 14 19 22 13 18 21 13 18 21 16 21 24 16 21 24 16 21 24 17 22 25 16 22 22 17 23 23 17 23 23 17 23 23 17 23 23 17 23 23 17 23 23 18 24 24 19 23 24 19 23 24 20 24 27 21 25 26 22 26 29 22 26 27 23 27 28 23 27 28 22 28 28 23 29 29 23 29 29 23 28 31 24 28 31 25 29 32 26 30 33 27 31 34 26 30 33 27 31 34 28 32 35 29 33 36 30 34 37 31 35 38 31 35 38 31 35 38 31 35 38 32 36 39 32 36 39 34 38 41 34 38 41 36 40 43 37 41 44 36 40 43 36 40 43 39 40 44 38 42 45 39 43 46 38 42 45 37 41 44 37 41 44 41 42 46 41 42 46 42 43 47 43 44 48 42 43 47 42 43 47 43 44 48 43 44 48 46 47 51 47 48 52 47 48 52 46 47 51 46 47 51 47 48 52 48 49 53 48 49 53 48 49 53 48 49 53 48 49 53 50 51 55 50 51 55 51 52 56 51 52 56 51 52 56 52 53 57 54 55 59 54 55 59 53 54 58 53 54 58 52 53 57 52 53 57 54 55 59 57 58 62 57 58 62 56 57 61 56 57 61 56 57 61 56 57 61 58 59 63 61 60 65 61 60 65 58 59 63 58 59 63 58 59 63 58 59 63 
13 18 21 15 20 23 15 20 23 15 20 23 16 21 24 14 19 22 16 21 24 18 22 25 16 22 22 15 21 21 14 20 20 15 21 21 16 22 22 16 22 22 16 22 22 16 22 22 18 24 24 18 24 24 17 23 23 18 24 24 18 23 26 21 27 27 21 27 27 22 28 28 21 27 27 22 28 28 21 27 27 24 29 32 23 28 31 23 27 30 23 27 30 25 29 32 26 30 33 25 29 32 25 29 32 27 31 34 28 32 35 29 33 36 30 34 37 29 33 36 29 33 36 30 34 37 31 35 38 31 35 38 33 37 40 33 37 40 34 38 41 34 38 41 36 37 41 36 37 41 38 39 43 37 41 44 38 39 43 39 40 44 40 41 45 40 41 45 39 43 46 38 42 45 38 42 45 40 41 45 41 42 46 42 43 47 41 42 46 42 43 47 44 45 49 44 45 49 44 45 49 44 45 49 45 46 50 45 46 50 47 48 52 47 48 52 48 49 53 48 49 53 48 49 53 48 49 53 48 49 53 49 50 54 49 50 54 51 52 56 51 52 56 53 54 58 52 53 57 51 52 56 51 52 56 52 53 57 54 55 59 56 57 61 56 57 61 55 56 60 56 57 61 56 57 61 54 55 59 56 57 61 57 58 62 57 58 62 56 57 61 57 58 62 57 58 62 58 59 63 
14 19 22 15 20 23 14 19 22 16 21 24 14 19 22 15 20 23 15 20 23 15 19 22 15 21 21 14 20 20 14 20 20 16 22 22 16 22 22 16 22 22 15 21 21 15 21 21 16 22 22 18 24 24 17 23 23 16 22 22 19 25 25 20 26 26 19 25 25 20 26 26 21 27 27 20 26 26 21 27 27 22 28 28 21 26 29 22 26 29 22 26 29 23 27 30 25 29 32 24 29 32 25 29 32 26 30 33 28 32 35 28 32 35 27 31 34 29 33 36 26 30 33 28 32 35 29 33 36 30 34 37 31 35 38 32 36 39 31 35 38 31 35 38 32 36 39 32 36 39 33 37 40 34 38 41 35 39 42 36 40 43 36 40 43 39 43 46 37 41 44 37 41 44 37 41 44 40 41 45 41 42 46 41 42 46 40 41 45 41 42 46 43 44 48 43 44 48 43 44 48 44 45 49 44 45 49 44 45 49 44 45 49 45 46 50 45 46 50 47 48 52 47 48 52 46 47 51 46 47 51 46 47 51 49 50 54 49 50 54 49 50 54 49 50 54 49 50 54 49 50 54 49 50 54 51 52 56 53 54 58 53 54 58 53 54 58 53 54 58 54 55 59 55 56 60 54 55 59 55 56 60 55 56 60 56 57 61 53 54 58 55 56 60 56 57 61 57 58 62 
13 18 21 16 21 24 14 19 22 15 20 23 14 19 22 14 19 22 15 20 23 16 21 24 15 21 21 15 21 21 15 21 21 16 22 22 15 21 21 14 20 20 14 20 20 15 21 21 16 22 22 16 22 22 16 22 22 16 22 22 17 23 23 18 24 24 17 23 23 19 25 25 19 23 24 19 25 25 18 24 24 20 26 26 21 27 27 20 25 28 22 26 29 22 26 29 22 27 30 22 27 30 24 28 31 25 29 32 25 29 32 26 30 33 27 31 34 27 31 34 26 30 33 27 31 34 27 31 34 29 33 36 30 34 37 30 34 37 30 34 37 31 35 38 32 36 39 31 35 38 33 37 40 33 37 40 34 38 41 33 37 40 34 38 41 34 38 41 35 39 42 36 40 43 36 40 43 38 39 43 39 40 44 40 41 45 39 40 44 39 40 44 41 42 46 42 43 47 42 43 47 42 43 47 42 43 47 43 44 48 42 43 47 42 43 47 42 43 47 45 46 50 46 47 51 45 46 50 44 45 49 45 46 50 47 48 52 47 48 52 47 48 52 46 47 51 47 48 52 47 48 52 48 49 53 49 50 54 51 52 56 51 52 56 51 52 56 51 52 56 53 54 58 53 54 58 53 54 58 53 54 58 54 55 59 54 55 59 53 54 58 53 54 58 54 55 59 55 56 60 
15 20 23 15 20 23 15 20 23 14 19 22 16 20 23 15 20 23 15 20 23 14 19 22 16 22 22 16 22 22 15 21 21 16 22 22 16 22 22 15 21 21 15 21 21 15 21 21 16 22 22 16 22 22 16 22 22 16 21 24 17 23 23 16 22 22 15 21 21 17 23 23 19 23 24 18 24 24 17 23 23 18 24 24 19 25 25 20 26 26 21 25 28 21 25 28 20 25 28 22 27 30 22 27 30 22 27 30 24 28 31 25 29 32 26 30 33 25 29 32 25 29 32 23 27 30 25 29 32 26 30 33 27 31 34 28 32 35 30 34 37 30 34 37 32 33 37 34 35 39 33 34 38 31 35 38 33 34 38 33 34 38 32 33 37 34 35 39 35 39 42 34 38 41 33 37 40 36 37 41 37 38 42 38 39 43 37 38 42 37 38 42 40 41 45 39 40 44 40 41 45 40 41 45 41 42 46 42 43 47 42 43 47 41 42 46 42 43 47 44 45 49 44 45 49 44 45 49 43 44 48 45 46 50 47 48 52 47 48 52 46 47 51 44 45 49 44 45 49 45 46 50 47 48 52 47 48 52 48 49 53 51 52 56 49 50 54 50 51 55 51 52 56 52 53 57 51 52 56 52 53 57 55 56 60 54 55 59 53 54 58 54 55 59 54 55 59 55 56 60 
14 19 22 15 20 23 14 19 22 16 21 24 15 20 23 16 21 24 15 20 23 15 20 23 17 23 23 17 23 23 14 20 20 14 20 20 15 21 21 15 21 21 16 22 22 16 22 22 15 21 21 14 20 20 14 20 20 17 22 25 17 23 23 14 19 22 17 23 23 17 23 23 19 23 24 18 24 24 18 24 24 17 23 23 19 25 25 17 23 23 18 22 23 16 22 22 20 26 26 21 27 27 21 26 29 20 25 28 22 26 29 25 29 32 24 28 31 24 28 31 23 27 30 22 26 29 21 25 28 23 27 30 24 28 31 26 30 33 26 30 33 28 32 35 29 33 36 31 32 36 27 31 34 27 31 34 27 31 34 28 32 35 30 34 37 33 34 38 32 36 39 33 37 40 33 37 40 31 35 38 32 36 39 36 37 41 35 36 40 36 37 41 37 38 42 36 37 41 37 38 42 39 40 44 39 40 44 40 41 45 40 41 45 38 39 43 40 41 45 41 42 46 40 41 45 40 41 45 40 41 45 43 44 48 45 46 50 45 46 50 45 46 50 44 45 49 44 45 49 45 46 50 46 47 51 46 47 51 46 47 51 47 48 52 47 48 52 48 49 53 48 49 53 50 51 55 49 50 54 51 52 56 50 54 57 49 53 56 53 54 58 53 54 58 54 55 59 53 54 58 
15 20 23 14 19 22 15 20 23 15 20 23 15 20 23 13 18 21 14 19 22 15 19 22 15 21 21 14 20 20 14 20 20 13 19 19 14 20 20 15 21 21 15 21 21 14 20 20 14 20 20 13 18 21 14 20 20 14 19 22 15 21 21 15 20 23 16 22 22 17 23 23 17 21 22 17 23 23 16 22 22 19 23 24 18 24 24 17 23 23 16 22 22 16 22 20 18 24 24 18 24 24 19 24 27 19 24 27 20 24 27 21 26 29 22 26 29 22 26 29 21 26 29 20 25 28 21 26 29 21 26 29 23 28 31 25 30 33 24 29 32 25 30 33 27 31 34 30 31 35 27 31 34 26 30 33 26 30 33 26 30 33 29 33 36 31 32 36 29 33 36 30 34 37 31 35 38 30 34 37 30 34 37 31 35 38 30 34 37 34 35 39 35 36 40 35 36 40 36 37 41 36 37 41 37 38 42 37 38 42 38 39 43 38 39 43 38 39 43 38 39 43 38 39 43 39 40 44 39 40 44 43 44 48 42 43 47 42 43 47 42 43 47 43 44 48 43 44 48 44 45 49 44 45 49 45 46 50 44 45 49 45 46 50 43 47 50 44 48 51 45 49 52 45 49 52 45 49 52 46 50 53 46 50 53 47 51 54 52 53 57 53 54 58 53 54 58 53 54 58 
15 21 21 15 20 23 15 21 21 15 21 21 15 21 21 15 21 21 16 20 21 15 21 21 13 19 19 15 21 21 15 21 21 14 20 20 14 20 20 15 21 21 14 20 20 15 21 21 15 21 21 14 20 20 14 20 20 14 20 20 15 21 21 16 22 22 15 21 21 16 22 22 16 21 24 16 21 24 17 22 25 17 22 25 16 21 24 17 22 25 15 20 23 16 21 24 18 24 24 18 24 24 18 23 26 20 25 28 19 24 27 20 24 27 21 25 28 21 25 28 21 25 28 21 25 28 22 26 29 22 26 29 23 27 30 24 28 31 25 29 32 25 29 32 26 30 33 26 30 33 24 28 31 25 29 32 25 29 32 26 30 33 28 32 35 27 31 34 27 31 34 28 32 35 30 34 37 28 32 35 28 32 35 30 34 37 29 33 36 31 35 38 34 35 39 34 35 39 35 36 40 36 37 41 33 37 40 34 38 41 36 37 41 37 36 41 36 37 41 37 38 42 37 38 42 37 38 42 38 39 43 40 41 45 40 41 45 40 41 45 40 41 45 42 43 47 43 44 48 42 43 47 43 44 48 43 44 48 44 43 48 44 45 49 44 45 49 46 47 51 46 47 51 45 46 50 46 47 51 44 48 51 45 49 52 45 49 52 48 52 55 51 52 56 51 52 56 51 52 56 
14 19 22 14 20 20 16 22 22 16 21 24 15 21 21 15 21 21 15 20 23 16 22 22 15 21 21 15 21 21 16 22 22 16 22 22 15 21 21 15 21 21 15 21 21 15 21 21 15 21 21 15 21 21 15 21 21 15 21 21 15 21 21 15 21 21 14 20 20 15 21 21 15 20 23 15 19 22 15 20 23 15 20 23 14 22 24 15 20 23 15 20 23 13 21 23 16 22 22 16 22 22 16 21 24 14 19 22 16 21 24 18 23 26 18 23 26 19 24 27 19 24 27 20 25 28 20 25 28 20 25 28 22 26 29 22 26 29 24 28 31 24 28 31 24 28 31 24 29 32 21 26 29 24 28 31 23 27 30 25 29 32 25 29 32 25 29 32 25 29 32 25 29 32 27 31 34 28 32 35 27 31 34 28 32 35 28 32 35 30 34 37 29 33 36 31 35 38 32 36 39 34 38 41 33 37 40 34 35 39 34 35 39 35 36 40 35 34 39 34 35 39 35 36 40 36 37 41 38 39 43 36 37 41 36 37 41 38 37 42 39 40 44 39 40 44 39 40 44 40 41 45 40 41 45 40 41 45 39 40 44 42 43 47 40 44 47 41 45 48 45 44 49 46 47 51 47 48 52 44 48 51 45 49 52 45 46 50 43 48 51 45 49 52 48 49 53 48 49 53 
14 20 20 17 21 22 17 23 23 16 22 22 16 20 21 17 21 22 16 22 22 16 22 22 16 22 22 17 23 23 17 23 23 16 22 22 16 22 22 15 21 21 15 21 21 15 21 21 15 21 21 14 20 20 14 20 20 14 20 20 15 21 21 15 21 21 14 20 20 14 20 20 15 19 22 15 19 22 17 21 24 15 20 23 13 21 23 15 20 23 15 20 23 13 21 23 15 21 21 14 20 20 15 20 23 15 20 23 15 20 23 16 21 24 17 22 25 18 23 26 18 23 26 18 23 26 18 23 26 19 24 27 19 24 27 20 25 28 20 25 28 20 25 28 21 25 28 19 27 29 21 26 29 21 25 28 22 26 29 22 26 29 25 29 32 26 30 33 25 29 32 24 28 31 25 29 32 27 31 34 26 30 33 27 31 34 26 30 33 27 31 34 28 32 35 29 33 36 29 33 36 29 33 36 29 33 36 29 33 36 29 33 36 30 34 37 31 32 36 33 34 38 34 35 39 36 37 41 35 36 40 33 34 38 35 36 40 37 38 42 39 40 44 39 40 44 40 39 44 39 40 44 38 39 43 38 39 43 36 40 43 42 43 47 39 43 46 41 45 48 42 46 49 42 46 49 42 46 49 42 46 49 43 47 50 40 44 47 41 42 46 43 44 48 43 47 50 44 48 51 
16 20 21 16 20 23 17 21 22 17 21 22 18 19 23 20 21 23 18 22 23 16 22 22 17 23 23 17 23 23 16 22 22 15 21 21 15 21 21 15 21 21 16 22 22 16 22 22 14 20 20 15 21 21 16 22 22 15 21 21 15 21 21 15 21 21 14 20 20 13 19 19 15 19 22 15 20 23 16 20 23 14 19 22 14 19 22 13 21 23 12 20 22 14 19 22 15 21 21 15 21 21 15 20 23 14 19 22 14 19 22 15 20 23 17 22 25 16 21 24 16 21 24 16 21 24 17 22 25 16 21 24 18 23 26 18 23 26 18 23 26 18 23 26 18 22 25 19 24 27 19 24 27 19 23 26 20 24 27 20 24 27 23 27 30 24 28 31 22 27 30 21 26 29 22 27 30 24 29 32 25 29 32 26 30 33 25 29 32 27 28 32 26 30 33 27 31 34 28 32 35 28 32 35 28 32 35 28 32 35 28 32 35 29 33 36 30 31 35 29 33 36 33 34 38 33 34 38 34 35 39 32 33 37 33 37 40 36 37 41 34 35 39 36 37 41 37 38 42 38 39 43 36 37 41 37 38 42 34 38 41 35 39 42 37 41 44 39 43 46 41 42 46 39 43 46 39 43 46 39 43 46 41 45 48 40 44 47 41 45 48 41 45 48 44 43 48 43 44 48 
17 21 22 17 21 22 16 20 21 16 20 23 16 20 21 18 22 23 19 23 26 16 22 22 17 23 23 15 21 21 14 20 20 16 22 22 16 22 22 16 22 22 16 22 22 15 21 21 15 21 21 14 20 20 16 22 22 15 21 21 14 20 20 14 20 20 15 21 21 16 22 22 14 19 22 14 19 22 14 19 22 16 21 24 14 19 22 14 19 22 14 19 22 14 19 22 15 21 21 14 20 20 15 20 23 14 19 22 16 21 24 15 20 23 15 20 23 16 21 24 15 20 23 16 21 24 16 21 24 17 22 25 17 22 25 17 22 25 17 22 25 17 22 25 17 22 25 18 23 26 19 24 27 17 22 25 18 23 26 17 22 25 21 26 29 21 26 29 20 25 28 19 24 27 22 27 30 22 27 30 22 27 30 22 27 30 22 27 30 22 27 30 25 29 32 26 30 33 27 31 34 26 30 33 26 30 33 27 31 34 27 31 34 26 30 33 25 29 32 28 32 35 28 32 35 31 32 36 32 33 37 30 34 37 31 35 38 31 35 38 32 33 37 31 32 36 33 37 40 33 37 40 33 37 40 33 37 40 36 37 41 36 37 41 35 39 42 39 40 44 38 42 45 38 42 45 37 41 44 37 41 44 39 43 46 38 42 45 42 46 49 40 44 47 40 44 47 42 43 47 
16 20 21 20 24 25 18 22 23 17 21 22 16 20 21 17 21 22 18 22 23 17 23 23 17 23 23 16 22 22 15 21 21 16 22 22 16 22 22 15 21 21 14 20 20 15 21 21 15 21 21 15 21 21 16 22 22 15 21 21 14 20 20 15 21 21 15 21 21 15 21 21 14 19 22 14 19 22 13 18 21 14 19 22 15 20 23 14 19 22 14 19 22 15 20 23 12 21 20 11 20 19 12 20 22 12 20 22 12 20 22 13 21 23 13 21 23 14 22 24 13 21 23 15 20 23 15 20 23 15 20 23 15 20 23 15 20 23 16 21 24 17 22 25 15 20 23 17 22 25 18 23 26 18 23 26 18 23 26 18 23 26 19 24 27 19 24 27 17 25 27 19 24 27 21 26 29 19 24 27 22 26 29 21 26 29 21 26 29 22 26 29 23 28 31 25 29 32 25 29 32 25 29 32 24 29 32 25 30 33 26 30 33 25 29 32 24 28 31 26 30 33 27 31 34 27 31 34 28 32 35 29 33 36 28 32 35 28 32 35 28 32 35 29 30 34 31 35 38 32 36 39 32 36 39 32 36 39 35 36 40 33 34 38 32 36 39 34 38 41 37 38 42 35 39 42 35 39 42 35 39 42 37 41 44 37 41 44 38 42 45 39 43 46 39 43 46 40 44 47 
18 22 23 18 22 25 18 22 23 18 22 23 16 20 23 17 21 22 18 22 23 18 23 26 17 23 23 17 23 23 17 23 23 16 22 22 16 22 22 14 20 20 14 20 20 14 20 20 15 21 21 15 21 21 16 22 22 15 21 21 14 20 20 14 20 20 14 20 20 15 21 21 13 18 21 13 18 21 14 18 21 13 18 21 14 19 22 14 19 22 14 19 22 14 19 22 12 21 20 11 20 19 12 20 22 12 20 22 13 18 21 14 19 22 15 20 23 15 20 23 13 21 23 13 21 23 15 20 23 15 20 23 15 20 23 15 20 23 15 20 23 16 21 24 16 21 24 17 22 25 16 21 24 17 22 25 17 22 25 19 24 27 18 23 26 17 22 25 17 22 25 16 24 26 17 25 27 17 22 25 18 26 28 21 26 29 22 27 30 19 27 29 21 26 29 22 27 30 22 27 30 21 26 29 22 27 30 22 27 30 24 28 31 23 27 30 23 27 30 24 28 31 24 29 32 24 28 31 25 29 32 26 31 34 28 32 35 27 31 34 26 30 33 26 30 33 29 33 36 29 33 36 29 33 36 29 33 36 32 33 37 29 30 34 30 31 35 32 33 37 33 37 40 33 37 40 34 38 41 36 40 43 36 40 43 35 39 42 36 40 43 37 41 44 37 41 44 40 41 45 
17 23 23 18 22 23 18 22 23 18 22 23 15 19 20 16 20 21 16 21 24 16 22 22 17 23 23 17 23 23 17 23 23 16 22 22 16 22 22 15 21 21 14 20 20 14 20 20 14 20 20 15 21 21 16 22 22 16 22 22 15 21 21 14 20 20 12 18 18 14 20 20 14 19 22 15 19 22 13 18 21 14 19 22 14 19 22 14 19 22 15 20 23 11 19 21 12 21 20 12 21 20 12 20 22 12 20 22 12 20 22 13 21 23 12 20 22 12 20 22 13 21 23 12 20 22 13 18 21 14 19 22 14 19 22 14 19 22 14 19 22 14 19 22 15 20 23 13 21 23 12 20 22 15 20 23 16 21 24 18 23 26 17 22 25 16 21 24 17 22 25 17 22 25 18 23 26 17 22 25 17 22 25 18 23 26 20 25 28 19 24 27 19 23 26 18 23 26 18 23 26 18 23 26 21 26 29 21 26 29 21 26 29 21 26 29 24 28 31 25 29 32 25 29 32 22 26 29 22 26 29 21 25 28 23 27 30 25 29 32 26 30 33 27 31 34 28 32 35 28 32 35 26 30 33 27 31 34 28 32 35 28 32 35 28 32 35 27 31 34 28 32 35 30 34 37 31 35 38 33 37 40 34 38 41 34 35 39 34 38 41 34 38 41 36 40 43 35 39 42 
17 21 24 18 22 25 17 21 22 18 22 23 16 20 21 16 20 21 16 22 22 16 22 22 17 23 23 18 23 26 17 23 23 16 22 22 16 22 22 15 21 21 14 20 20 16 22 22 16 22 22 14 20 20 16 22 22 16 21 24 14 19 22 15 21 21 14 20 20 13 19 19 13 22 21 12 21 20 14 20 20 14 20 20 15 21 21 15 21 21 14 20 20 15 21 21 15 20 23 14 19 22 12 20 22 13 21 23 14 19 22 12 20 22 12 20 22 14 19 22 15 20 23 14 19 22 12 20 22 14 19 22 14 19 22 12 20 22 15 20 23 15 20 24 14 19 22 14 19 22 14 19 22 16 21 24 16 21 24 16 21 24 15 20 23 15 20 23 13 21 23 17 22 25 15 23 25 16 21 24 16 21 24 17 22 25 17 22 25 18 23 26 18 23 26 17 22 25 14 22 24 18 23 26 19 24 27 19 24 27 20 24 27 20 25 28 22 26 29 24 28 31 23 27 30 25 29 32 22 26 29 21 25 28 20 24 27 22 26 29 24 28 31 26 30 33 26 30 33 25 29 32 25 29 32 25 29 32 26 30 33 27 31 34 28 32 35 28 32 35 28 32 35 29 33 36 30 34 37 30 34 37 32 36 39 30 34 37 33 37 40 33 37 40 33 37 40 33 37 40 
17 21 22 18 22 23 18 22 25 19 23 26 16 20 21 17 21 22 16 22 22 15 21 21 17 22 26 17 23 23 16 22 22 15 20 23 15 21 21 16 22 22 15 21 21 16 22 22 16 21 24 16 22 22 15 21 21 16 22 22 16 22 22 15 21 21 15 21 21 15 20 23 14 20 20 15 21 21 16 22 22 15 21 21 14 20 20 14 20 20 15 21 21 14 20 20 14 20 20 14 19 22 12 20 22 16 21 24 14 19 22 14 19 22 12 20 22 15 20 23 13 18 21 14 19 22 12 20 22 15 20 23 13 18 21 12 20 22 14 19 22 14 19 22 15 20 23 15 20 23 15 20 23 15 20 23 15 20 23 16 21 24 15 20 23 15 20 23 14 19 22 16 21 24 14 22 24 14 22 24 16 21 24 17 22 25 16 21 24 18 23 26 17 22 25 17 22 25 17 22 25 15 23 25 19 24 27 17 22 25 18 23 26 18 23 26 20 25 28 21 26 29 23 27 30 22 26 29 23 27 30 21 25 28 18 23 26 20 25 28 23 27 30 25 29 32 23 27 30 23 27 30 23 27 30 23 27 30 26 30 33 27 31 34 26 30 33 28 32 35 28 32 35 29 33 36 28 32 35 29 33 36 30 34 37 29 33 36 33 34 38 32 36 39 32 36 39 31 35 38 
18 22 21 19 23 24 20 24 27 19 23 26 18 22 23 18 22 23 18 22 23 18 22 25 18 22 25 17 21 24 18 22 23 17 21 22 17 21 24 16 20 21 15 19 20 16 20 21 17 21 24 17 21 22 16 20 21 17 21 22 16 20 21 15 19 20 16 20 21 16 20 23 16 22 22 16 22 22 16 22 22 15 21 21 16 22 22 14 20 20 15 21 21 14 20 20 15 21 21 13 22 21 15 21 21 15 20 23 14 19 22 12 20 22 13 18 21 13 18 21 13 18 21 14 20 20 15 21 21 14 20 20 14 19 22 13 18 21 14 19 22 14 19 22 14 19 22 15 20 23 15 20 23 15 20 23 16 21 24 16 21 24 14 19 22 13 18 21 13 18 21 14 19 22 14 19 22 15 20 23 15 20 23 16 21 24 16 21 24 18 23 26 17 22 25 15 23 25 17 22 25 16 21 24 17 22 25 17 21 24 15 20 23 17 22 25 19 24 27 18 23 26 18 23 26 19 24 27 20 25 28 21 26 29 17 22 25 18 23 26 22 26 29 23 27 30 21 25 28 21 25 28 21 25 28 21 25 28 23 27 30 24 28 31 24 28 31 24 28 31 27 31 34 29 33 36 27 31 34 26 30 33 26 30 33 28 32 35 29 33 36 29 33 36 28 32 35 28 32 35 
18 22 23 19 23 24 19 23 24 20 24 25 18 22 23 20 24 25 19 23 24 18 22 23 17 21 22 18 22 23 17 21 24 18 22 23 18 22 23 15 19 20 15 19 22 16 20 21 19 23 24 17 21 22 16 20 21 17 21 24 16 20 23 17 21 22 16 20 21 16 20 21 17 21 22 15 19 20 15 21 21 16 22 22 16 22 22 16 22 22 15 21 21 15 21 21 15 21 21 15 21 21 15 21 21 14 20 20 15 20 23 14 19 22 13 18 21 13 19 19 13 19 19 14 20 20 14 20 20 14 20 20 13 19 19 13 19 19 13 18 21 14 19 22 14 19 22 15 20 23 14 19 22 15 20 23 15 20 23 16 21 24 15 20 23 12 17 20 14 19 22 14 19 22 14 19 22 14 19 22 14 18 21 15 19 22 14 19 22 15 20 23 16 21 24 16 21 24 15 20 23 14 19 22 16 21 24 16 21 24 16 21 24 15 20 23 16 20 23 18 22 25 17 22 25 18 23 26 19 24 27 18 23 26 19 23 26 19 23 26 20 24 27 21 25 28 21 25 28 21 25 28 21 25 28 21 25 28 22 26 29 23 27 30 23 27 30 25 29 32 27 31 34 27 31 34 26 30 33 24 28 31 22 26 29 25 29 32 29 33 36 27 31 34 28 32 35 28 32 35 
20 24 25 20 24 25 22 26 27 21 25 26 20 24 25 18 22 23 18 22 23 18 22 23 19 23 24 18 22 23 18 22 23 17 21 22 18 22 25 17 21 22 17 21 22 17 21 24 17 21 22 18 22 23 17 21 22 17 21 24 17 21 24 16 20 21 16 20 21 17 21 22 17 21 22 17 21 22 17 23 23 17 23 23 16 22 22 16 22 22 16 22 22 16 22 22 16 21 24 15 21 21 16 22 22 16 20 21 15 20 23 14 19 22 14 19 22 13 18 21 14 20 20 14 20 20 14 20 20 13 19 19 13 19 19 13 19 19 13 19 19 14 20 20 14 19 22 15 20 23 15 20 23 13 18 21 14 19 22 14 19 22 16 21 24 13 18 21 13 18 21 13 18 21 14 18 21 14 18 21 15 20 23 16 21 24 14 19 22 13 18 21 13 18 21 14 19 22 13 21 23 16 21 24 13 21 23 15 19 22 14 19 22 16 20 23 15 20 23 16 21 24 17 21 24 18 22 25 17 21 24 18 22 25 17 22 25 17 22 25 19 24 27 19 24 27 20 25 28 19 24 27 20 24 27 20 24 27 20 24 27 22 26 29 23 27 30 23 27 30 23 27 30 22 26 29 24 28 31 24 28 31 24 28 31 25 29 32 27 31 34 28 32 35 28 32 35 27 31 34 
20 24 25 21 25 26 21 25 26 22 26 27 20 24 25 19 23 24 18 22 23 19 23 24 19 23 26 17 21 22 17 21 22 17 21 24 17 21 22 18 22 23 17 21 24 17 21 22 16 20 23 17 21 22 17 21 22 16 20 21 16 20 21 15 19 20 16 20 21 17 21 24 17 21 22 18 22 23 16 22 22 17 23 23 15 21 21 16 22 22 15 21 21 15 21 21 15 21 21 15 21 21 15 21 21 15 21 21 16 20 21 15 20 23 15 20 23 15 20 23 15 21 21 15 21 21 13 19 19 12 17 20 13 19 19 13 19 19 14 20 20 14 19 22 15 20 23 13 18 21 14 19 22 14 19 22 13 18 21 14 19 22 14 19 22 13 18 21 15 19 22 15 19 22 15 20 23 13 18 21 14 19 22 15 20 23 15 20 23 12 20 22 13 18 21 14 19 22 16 20 23 15 20 23 13 18 21 15 20 23 13 18 21 13 18 21 13 18 21 16 21 24 16 21 24 16 21 24 16 21 24 15 20 23 15 20 23 16 21 24 18 23 26 18 23 26 19 24 27 18 23 26 19 23 26 19 23 26 19 23 26 20 24 27 20 25 28 20 25 28 21 26 29 21 25 28 22 26 29 21 25 28 23 27 30 22 26 29 23 27 30 26 30 33 26 30 33 26 30 33 
20 24 23 20 24 25 21 25 26 21 25 26 20 24 25 18 22 23 19 23 24 19 23 24 19 23 24 18 22 25 17 21 24 18 22 23 18 22 25 18 22 25 18 22 23 17 21 22 17 21 24 17 21 22 17 21 22 16 20 21 16 20 21 17 21 22 17 21 22 17 21 24 17 21 22 17 21 22 15 21 21 16 22 22 16 22 22 16 22 22 16 22 22 15 21 21 14 20 20 14 20 20 14 20 20 15 21 21 15 21 21 15 21 21 15 21 21 15 20 23 15 21 21 13 22 21 14 20 20 14 20 20 14 20 20 14 19 22 12 20 22 14 19 22 13 18 21 14 19 22 15 20 23 14 19 22 13 18 21 13 18 21 13 18 21 13 18 21 15 19 22 14 19 22 15 20 23 13 18 21 13 18 21 14 19 22 15 20 23 14 19 22 14 19 22 15 19 22 14 19 22 14 19 22 14 19 22 13 18 21 14 19 22 15 19 22 13 18 21 15 20 23 15 20 23 14 19 22 15 20 23 15 20 23 16 21 24 16 21 24 17 22 25 18 23 26 18 23 26 18 23 26 17 22 25 17 22 25 18 23 26 18 23 26 17 22 25 19 24 27 21 26 29 19 24 27 21 25 28 22 26 29 22 26 29 20 24 27 20 25 28 24 29 32 24 29 32 23 28 31 
24 25 27 22 26 27 20 24 25 20 24 25 19 23 24 18 22 23 19 23 24 19 23 26 19 23 24 18 22 23 18 22 23 18 22 25 18 22 23 20 24 25 19 23 24 18 22 23 18 22 23 19 23 24 17 21 22 17 21 24 16 20 23 18 22 23 18 22 23 18 22 23 17 21 22 16 22 22 16 22 22 15 21 21 15 21 21 15 21 21 14 20 20 15 21 21 14 20 20 13 19 19 14 20 20 15 21 21 13 22 21 14 20 20 15 21 21 14 20 20 16 20 21 14 20 20 15 19 20 15 19 20 15 19 22 15 19 22 14 19 22 15 19 22 14 19 22 13 18 21 14 19 22 14 19 22 13 18 21 12 17 20 13 18 21 14 19 22 14 19 22 12 20 22 14 19 22 13 18 21 13 18 21 15 19 22 15 20 23 15 20 23 14 19 22 15 19 22 14 19 22 15 19 22 14 19 22 14 19 22 13 18 21 13 18 21 13 18 21 14 19 22 14 19 22 14 19 22 14 19 22 15 20 23 16 21 24 16 21 24 17 22 25 17 22 25 17 22 25 17 22 25 16 21 24 17 22 25 17 22 25 16 21 24 17 22 25 17 22 25 18 23 26 19 24 27 20 25 28 20 24 27 19 23 26 19 23 26 20 24 27 21 25 28 21 25 28 22 26 29 
