P3
100 50
255
22 14 12 22 14 11 21 16 12 23 15 12 21 16 13 20 15 12 20 15 12 21 16 13 19 14 11 20 15 12 20 15 12 20 15 12 18 14 11 19 14 11 19 14 11 20 15 12 20 15 12 20 15 12 20 15 12 23 15 13 21 16 12 23 15 12 24 16 13 23 15 12 22 14 11 24 16 13 24 16 13 24 16 13 23 15 12 24 16 13 25 17 14 25 17 14 25 17 14 25 17 14 26 16 14 26 16 14 26 18 15 25 17 14 25 17 14 25 17 14 25 17 14 26 18 15 26 18 15 26 18 15 27 19 16 25 17 14 26 18 15 26 18 15 25 17 15 25 16 17 22 14 12 23 15 12 23 15 12 24 16 13 23 15 13 21 16 13 20 15 12 19 14 11 20 15 12 19 14 11 19 14 11 18 13 10 19 14 11 20 15 12 21 16 13 21 16 13 21 16 13 28 20 18 34 28 28 40 34 34 41 37 38 40 36 37 38 33 37 32 27 31 28 26 29 27 23 24 26 21 25 28 23 27 30 25 29 34 29 33 37 32 36 39 34 38 40 35 39 39 37 40 36 34 37 34 28 32 27 25 28 23 21 24 21 19 22 20 18 21 25 20 24 34 29 33 37 32 36 38 34 35 39 37 38 43 38 42 43 39 40 42 36 38 36 34 35 29 27 28 
19 14 11 19 14 10 22 14 11 21 16 12 20 15 11 20 15 12 21 16 13 19 14 11 18 13 10 18 13 10 19 14 11 19 14 11 20 15 12 19 14 11 18 13 10 20 15 12 21 16 13 21 16 13 20 15 12 22 17 14 22 17 13 24 16 13 23 15 12 22 14 11 23 15 12 24 16 13 24 16 13 25 15 13 24 16 13 25 17 14 25 17 14 26 18 15 26 18 15 26 18 15 26 16 14 26 16 14 26 18 15 26 18 15 26 18 15 26 18 15 26 18 15 25 17 14 24 16 13 26 18 15 26 18 15 26 18 15 26 18 15 26 18 15 25 17 14 24 16 14 23 15 13 23 15 12 23 15 12 23 15 12 23 15 13 20 15 12 21 16 13 20 15 12 20 15 12 18 13 10 18 13 10 20 15 12 19 14 11 19 14 11 19 14 11 20 15 12 25 20 17 28 22 22 36 30 32 38 36 37 43 39 40 42 38 39 37 35 38 30 28 31 28 23 27 23 21 22 25 20 24 29 24 28 34 29 33 37 32 36 38 33 37 37 35 38 37 35 38 35 33 36 32 30 33 30 28 31 27 25 28 28 23 27 25 23 26 27 25 28 33 28 32 37 35 38 41 35 37 39 37 38 40 38 39 43 39 40 42 38 39 39 35 36 31 29 30 23 21 22 
22 14 12 21 13 10 21 16 12 21 16 12 20 15 11 20 15 12 19 14 11 19 14 11 19 14 11 18 13 10 19 14 11 19 14 11 18 13 10 18 14 11 20 15 12 20 15 12 21 16 13 21 16 13 21 16 13 22 17 13 24 16 13 24 16 13 24 16 13 23 15 12 24 16 13 24 16 13 24 16 13 25 17 14 26 18 15 25 17 14 26 16 14 26 16 14 26 16 14 26 16 14 26 16 14 26 16 14 26 18 15 26 18 15 26 18 15 26 18 15 26 18 15 25 17 14 25 17 14 25 17 14 26 18 15 26 18 15 26 18 15 26 18 15 24 16 13 25 17 15 24 16 14 24 16 13 23 15 12 24 16 14 22 14 12 20 15 12 21 16 13 20 15 12 20 15 12 19 14 11 19 14 11 20 15 12 20 15 12 20 15 12 20 15 12 19 14 11 24 19 16 28 22 22 37 33 34 41 37 38 44 40 41 43 39 40 41 36 40 33 28 32 26 24 27 26 22 23 29 24 28 34 29 33 38 33 37 39 37 40 39 37 40 38 36 39 36 34 37 34 32 35 34 29 33 30 28 31 31 29 32 31 29 32 31 29 32 34 32 35 37 35 38 40 38 41 42 38 39 40 38 39 40 40 40 44 40 41 41 37 38 35 31 32 28 24 25 18 16 17 
22 14 12 20 15 11 21 16 12 23 13 11 20 15 12 20 15 12 20 15 12 18 13 10 19 14 11 18 13 10 19 14 11 18 13 10 18 14 11 20 15 12 20 15 12 21 16 13 21 16 13 21 16 13 23 15 12 23 15 12 22 17 13 24 16 13 24 16 13 24 16 13 22 17 13 24 16 13 25 15 13 26 16 14 27 17 15 27 17 15 27 17 15 28 18 16 28 18 16 26 16 14 27 17 15 26 16 14 26 18 15 27 19 16 27 19 16 27 19 16 26 18 15 25 17 14 26 18 15 26 18 15 26 18 15 26 18 15 25 17 14 25 17 14 24 16 13 24 16 13 25 17 14 24 16 13 23 15 13 23 15 13 23 15 13 21 16 13 20 15 12 21 16 13 21 16 13 19 14 11 19 14 11 21 16 13 20 15 12 20 15 12 19 14 11 21 16 13 24 18 18 28 24 23 37 33 34 41 37 38 45 39 41 42 40 41 41 36 40 35 30 34 30 26 27 32 26 28 35 30 34 40 38 41 41 39 42 43 41 44 44 42 45 42 40 43 37 35 38 35 33 36 34 32 35 34 32 35 40 34 38 42 36 40 42 37 41 41 39 42 43 41 44 39 37 40 40 38 39 41 39 42 41 39 42 42 40 41 38 34 35 27 25 26 21 19 20 13 13 13 
20 15 12 22 14 11 23 15 12 20 15 11 19 14 11 19 14 11 19 14 11 19 14 11 18 13 10 18 13 10 17 12 9 18 13 10 17 13 10 20 15 12 20 15 12 20 15 12 20 15 12 20 15 11 23 15 12 23 15 12 24 16 13 25 17 14 24 16 13 24 16 13 24 16 13 24 16 13 25 17 14 26 16 14 27 17 15 27 17 15 27 17 15 27 17 15 27 17 15 27 17 15 26 16 14 26 16 14 27 17 15 27 17 15 27 17 15 28 18 16 27 19 16 26 18 15 26 18 15 27 19 16 28 20 17 26 18 15 25 17 14 24 16 13 24 16 13 24 16 13 24 16 13 23 15 12 24 16 14 23 15 13 22 14 12 21 16 13 20 15 12 21 16 13 21 16 13 19 14 11 21 16 13 20 15 12 20 15 12 21 16 13 19 14 11 20 15 12 25 19 19 30 26 25 41 37 38 44 40 41 47 43 44 48 42 44 42 40 43 39 34 38 39 33 35 39 35 36 45 40 44 45 43 46 46 44 47 47 45 48 45 43 46 45 43 46 41 39 42 40 38 41 41 39 42 43 38 42 43 41 44 44 42 45 44 42 45 43 41 44 41 39 42 36 34 37 38 36 37 40 38 41 44 39 43 39 37 38 30 28 29 21 19 20 15 15 15 12 12 12 
23 15 13 21 16 12 21 16 12 23 15 12 20 15 11 20 15 12 20 15 12 20 15 12 20 15 12 19 14 11 19 14 11 20 15 12 19 14 11 20 15 12 21 16 13 21 16 13 23 18 14 22 17 13 21 16 12 23 15 12 24 16 13 25 17 14 25 17 14 25 17 14 25 17 14 26 16 14 26 16 14 27 17 15 27 17 15 26 16 14 27 17 15 27 17 15 28 18 16 29 19 17 27 17 15 27 17 15 28 18 16 28 18 16 28 18 16 28 18 16 27 19 16 26 18 15 27 19 16 28 20 17 28 20 17 25 17 14 25 17 14 24 16 13 24 16 13 25 17 14 23 15 12 23 15 12 23 15 12 23 15 13 22 14 12 20 15 12 20 15 12 20 15 12 20 15 12 19 14 11 19 14 11 19 14 11 18 13 10 20 15 12 20 15 12 24 18 18 28 24 23 34 30 31 42 37 41 44 39 43 45 41 42 44 39 43 43 38 42 39 35 36 40 36 37 39 35 36 43 38 42 46 41 45 46 41 45 44 42 45 44 42 45 44 42 45 42 40 43 41 39 42 42 40 43 44 39 43 42 40 43 44 39 43 41 41 43 39 37 40 39 34 38 36 34 37 40 38 39 39 39 39 40 36 37 31 29 30 22 20 21 16 16 16 13 13 13 12 12 12 
21 16 13 22 14 11 22 14 11 21 16 12 20 15 11 20 15 12 20 15 12 20 15 12 18 13 10 19 14 11 19 14 11 20 15 12 22 14 12 20 15 12 21 16 13 21 16 12 21 16 12 22 17 13 22 17 13 25 17 14 24 16 13 25 17 14 26 16 14 27 17 15 27 19 16 26 18 15 27 17 15 27 17 15 28 18 16 27 17 15 27 17 15 27 17 15 28 18 16 28 18 16 28 18 16 27 17 15 28 18 16 28 18 16 28 18 16 28 18 16 27 19 16 27 19 16 28 20 17 27 19 16 27 19 16 26 18 15 25 17 14 24 16 13 25 17 14 25 17 14 24 16 13 23 15 12 23 15 12 23 15 12 22 14 12 21 16 13 19 14 11 18 13 10 20 15 12 20 15 12 19 14 11 18 13 10 18 13 10 19 14 11 22 17 14 26 22 21 33 29 28 39 35 36 46 41 45 45 40 44 42 37 41 37 35 38 37 33 34 32 28 29 30 28 29 35 31 32 38 33 37 42 37 41 41 36 40 43 38 42 43 38 42 39 37 40 39 37 40 38 36 39 38 36 39 40 38 41 38 36 39 38 36 39 38 36 39 38 36 39 36 34 37 37 35 38 39 37 38 38 36 37 34 32 33 24 22 23 15 15 15 12 14 13 11 11 11 10 10 10 
23 15 13 20 15 11 20 15 11 23 15 12 21 16 13 20 15 12 19 14 11 19 14 11 19 14 11 20 15 12 21 16 13 20 15 12 20 15 12 20 15 12 22 17 13 22 17 13 21 16 12 21 16 12 25 17 14 24 16 13 24 16 13 24 16 13 25 15 13 27 17 15 27 17 15 26 16 14 27 17 15 27 17 15 27 17 15 28 18 16 27 17 15 27 17 15 28 18 16 28 18 16 28 20 17 27 19 16 28 18 16 28 18 16 28 18 16 28 18 16 28 20 17 28 20 17 27 19 16 28 20 17 27 19 16 26 18 15 26 18 15 24 16 13 24 16 13 25 17 14 24 16 13 23 15 12 23 15 12 22 14 11 23 15 13 21 16 13 19 14 11 20 15 12 19 14 11 20 15 12 19 14 11 20 15 12 20 15 12 19 14 11 22 17 14 27 23 22 36 32 33 40 36 37 47 42 46 42 40 43 39 37 40 33 31 36 30 28 29 27 25 26 25 23 24 27 25 26 33 28 32 39 34 38 41 36 40 41 36 40 41 36 40 39 34 38 40 35 39 36 34 37 37 35 38 37 35 38 38 33 37 35 33 36 38 33 37 36 34 37 36 34 37 40 35 39 40 38 41 38 36 37 29 29 29 18 18 20 12 12 12 11 11 11 10 10 10 11 11 11 
22 14 12 20 15 12 22 14 12 22 14 12 20 15 12 19 14 11 20 15 12 17 12 9 18 13 10 20 15 12 20 15 12 20 15 12 23 15 13 21 16 13 24 16 14 24 16 14 22 17 13 24 16 14 24 16 13 24 16 13 24 16 13 25 17 14 27 17 15 27 17 15 28 18 16 27 17 15 26 16 14 26 16 14 28 18 16 28 18 16 29 19 17 28 18 16 28 18 16 27 19 16 27 19 16 28 18 16 30 20 18 27 19 16 28 20 17 29 19 17 30 20 18 28 20 17 28 20 17 28 18 16 29 19 17 26 18 15 26 18 15 26 18 15 24 16 13 24 16 13 24 16 13 23 15 12 24 16 14 23 15 13 21 16 12 20 15 12 20 15 12 20 15 12 19 14 11 18 14 11 19 14 11 19 14 11 19 14 11 18 13 10 23 17 17 31 27 28 39 35 36 43 41 42 45 43 46 43 41 44 37 35 38 31 29 32 28 23 27 23 19 20 22 18 19 21 17 18 26 22 23 35 31 32 38 34 35 37 35 36 40 36 37 39 35 36 40 35 39 39 34 38 37 35 38 35 33 36 33 31 34 31 29 32 33 31 34 34 32 35 38 36 39 40 38 41 43 39 40 36 35 33 27 25 26 14 14 14 11 11 11 10 10 10 9 10 12 11 11 11 
20 15 12 20 15 12 19 15 12 19 14 11 19 14 11 20 15 12 20 15 12 19 14 11 19 14 11 21 16 13 21 16 13 21 16 13 21 16 13 22 17 14 23 15 13 23 15 12 21 16 13 24 16 13 24 16 13 24 16 13 24 16 13 26 18 15 28 18 16 26 16 14 26 16 14 27 17 15 27 17 15 29 19 17 29 19 17 29 19 17 29 19 17 30 20 18 29 19 17 27 19 16 27 19 16 29 19 17 30 20 18 28 20 17 28 20 17 30 20 18 29 19 17 28 20 17 29 21 18 28 18 16 27 17 15 26 18 15 25 17 14 25 17 14 26 16 14 25 17 14 25 15 13 24 16 13 21 16 12 23 15 13 23 15 12 22 14 12 23 15 13 21 16 12 20 15 12 20 15 12 19 14 11 20 15 12 21 16 13 22 13 14 28 22 22 36 30 32 39 37 38 44 42 45 45 43 44 40 38 39 35 33 34 29 27 28 26 22 23 23 19 20 20 16 17 20 16 17 23 19 20 28 26 27 36 31 35 37 35 40 39 37 42 39 37 40 41 39 42 42 40 43 41 39 42 41 39 42 36 34 37 33 33 35 35 35 37 38 36 39 39 37 40 40 38 41 40 36 37 34 32 33 24 22 23 14 14 14 11 11 11 11 11 11 12 14 13 11 13 12 
20 15 12 22 14 12 20 15 12 20 12 10 19 14 11 20 15 12 19 14 11 20 15 12 20 15 12 20 15 12 20 15 12 21 16 13 21 16 13 21 16 13 23 15 13 23 15 12 23 15 13 23 15 12 24 16 13 24 16 13 25 17 14 25 17 14 26 16 14 26 16 14 26 16 14 27 17 15 27 17 15 28 18 16 28 18 16 28 18 16 28 18 16 29 19 17 29 19 17 30 20 18 29 19 17 30 20 18 28 18 16 27 19 16 28 20 17 29 19 17 29 19 17 28 20 17 26 21 17 28 20 17 28 20 17 27 17 15 25 17 14 25 17 14 24 16 13 24 16 13 25 17 14 24 16 13 23 15 13 23 15 13 24 16 13 23 15 13 23 15 13 21 16 13 21 16 13 21 16 13 21 15 15 20 15 12 21 16 13 24 20 19 34 30 31 44 38 42 44 42 45 45 43 46 44 42 43 41 39 40 37 35 36 34 32 33 30 26 27 24 20 21 23 19 20 22 18 19 24 19 23 31 26 30 35 30 34 38 33 37 38 36 39 38 36 39 40 38 41 41 39 44 41 41 43 43 38 42 39 37 40 37 35 38 36 36 38 39 37 40 38 36 39 40 35 39 35 33 34 31 29 30 24 24 24 15 15 15 12 12 12 13 13 13 13 13 13 14 14 14 
20 15 12 22 14 12 22 14 12 22 14 12 20 15 12 20 15 12 20 15 12 20 15 12 19 14 11 20 15 12 21 16 13 21 16 13 23 15 13 23 15 12 24 16 13 24 16 14 23 15 12 23 15 12 24 16 13 26 16 14 25 17 14 24 16 13 26 16 14 27 17 15 27 17 15 28 18 16 28 18 16 29 19 17 30 20 18 29 19 17 29 19 17 29 19 17 30 20 18 29 19 17 29 19 17 29 19 17 29 19 17 28 20 17 29 19 17 29 19 17 29 19 17 28 20 17 29 21 18 28 20 17 29 19 17 26 18 15 25 17 14 25 17 14 25 17 14 25 17 14 25 17 14 22 17 13 22 14 12 23 15 13 21 16 13 21 16 13 20 15 12 20 15 12 19 15 12 21 16 13 21 16 13 21 16 13 23 17 17 27 23 24 38 34 35 43 41 44 44 42 45 46 44 47 43 41 42 41 39 40 40 38 39 41 37 38 36 32 33 32 28 29 27 23 24 26 22 23 28 23 27 33 27 31 37 33 34 39 33 35 40 35 39 38 36 39 40 38 41 41 39 42 42 40 43 43 41 44 41 39 42 40 38 41 39 37 40 39 39 41 39 37 40 37 35 38 35 33 36 32 30 33 25 25 25 17 17 19 16 14 15 14 14 14 14 14 14 14 14 14 
20 15 12 23 15 13 21 16 13 20 15 12 21 16 12 20 15 11 19 14 10 19 14 10 20 15 11 20 15 11 21 16 12 23 18 14 23 15 12 24 16 14 24 16 13 23 15 12 24 16 13 24 16 14 24 16 13 26 16 14 25 17 14 25 17 14 27 17 15 28 18 16 27 17 15 28 18 16 29 19 17 29 19 17 30 20 18 30 20 18 29 19 17 31 21 19 31 21 19 29 19 17 28 18 16 29 19 17 29 19 17 29 19 17 30 20 18 29 19 17 28 18 16 28 18 16 27 19 16 27 19 16 27 19 16 26 18 15 27 17 15 25 17 14 26 18 15 25 17 14 23 18 14 24 16 13 24 16 14 22 17 13 21 16 13 21 16 13 20 15 12 21 16 13 21 16 13 21 16 13 22 17 14 22 17 14 24 20 19 30 26 27 40 36 37 43 41 46 44 42 45 44 42 45 42 40 41 41 39 40 40 38 39 43 39 40 42 38 39 37 33 34 32 28 29 31 27 28 31 27 28 36 31 35 37 32 36 39 34 38 38 36 39 37 35 38 39 39 41 41 39 42 43 43 45 43 43 45 42 40 43 39 39 41 41 36 40 41 39 42 38 36 39 38 36 39 39 34 38 35 30 34 30 28 29 22 20 23 18 16 17 17 17 17 16 16 16 15 15 15 
21 16 13 21 13 11 19 14 11 20 15 12 21 16 12 20 15 11 20 15 11 19 14 10 20 15 11 20 15 11 19 14 10 21 16 12 21 16 12 24 16 13 24 16 13 23 15 12 24 16 13 24 16 13 24 16 13 25 17 14 25 17 14 26 18 15 27 17 15 27 17 15 28 18 16 30 20 18 28 18 16 30 20 18 29 19 17 30 20 18 30 20 18 30 20 18 30 20 18 28 18 16 29 19 17 29 19 17 29 19 17 30 20 18 31 20 18 30 20 18 29 19 17 28 18 16 27 17 15 26 18 15 27 19 16 26 18 15 27 17 15 23 18 14 25 17 14 25 17 14 26 18 15 23 18 14 22 17 13 22 17 13 23 15 13 23 15 13 20 15 11 21 16 12 21 16 13 22 17 14 20 16 13 23 18 15 27 23 22 34 30 31 39 37 38 40 38 41 39 37 40 37 35 38 34 32 33 36 34 35 39 35 36 41 37 38 42 38 39 39 34 38 32 27 31 30 25 29 31 26 30 35 30 34 37 32 36 40 35 39 38 36 39 38 36 39 40 38 41 41 39 42 43 41 44 43 41 44 43 41 44 43 41 44 40 41 43 42 40 43 42 40 43 42 40 43 39 37 40 41 35 39 37 35 38 33 33 33 27 25 28 22 20 21 18 18 18 16 16 16 
22 14 12 21 13 11 21 13 11 21 13 11 19 14 10 20 15 11 20 15 11 20 15 11 21 16 12 20 15 11 20 15 11 22 17 13 21 16 12 24 16 13 24 16 13 24 16 13 24 16 13 24 16 13 24 16 13 25 17 14 24 16 13 27 19 16 26 16 14 28 18 16 29 19 17 28 18 16 28 18 16 28 18 16 30 19 17 29 19 17 30 20 18 30 20 18 30 20 18 29 19 17 30 20 18 31 21 19 30 20 18 30 20 18 30 20 18 30 20 18 28 18 16 28 18 16 27 17 15 28 18 16 27 19 16 29 19 17 26 18 15 27 17 15 24 16 13 23 18 14 24 16 13 24 16 13 25 17 14 23 15 12 22 14 12 23 15 13 22 14 11 24 16 13 21 16 13 21 16 13 22 18 15 25 21 20 30 26 25 36 32 33 40 35 39 36 34 37 34 32 35 32 30 33 29 27 28 29 27 28 31 27 28 32 27 31 35 30 34 32 27 31 28 23 27 26 21 25 26 21 25 31 26 30 34 29 33 36 34 37 40 38 41 39 39 41 42 40 43 41 41 43 41 41 43 42 40 43 43 43 45 42 42 44 41 41 43 43 41 44 42 40 43 41 39 42 39 37 40 39 37 40 38 36 39 36 34 35 29 27 30 23 21 22 19 17 18 15 15 15 
21 13 11 19 14 11 22 14 12 21 16 13 19 14 10 20 15 11 21 16 12 21 16 12 20 15 11 20 15 11 20 15 11 22 17 13 23 15 12 24 16 13 24 16 13 24 16 13 25 17 14 25 17 14 24 16 13 25 15 13 24 16 13 25 17 14 26 16 14 28 18 16 28 18 16 29 19 17 29 19 17 29 19 17 30 19 17 29 19 17 29 19 17 30 20 18 31 20 18 30 20 18 31 21 19 31 21 19 31 21 19 31 21 19 30 20 18 30 20 18 29 19 17 28 18 16 27 17 15 28 18 16 26 16 14 27 17 15 28 17 15 25 17 14 25 17 14 25 17 14 25 17 14 24 16 13 24 16 13 23 15 12 23 14 15 21 16 13 20 15 11 23 15 12 22 14 12 24 16 14 24 20 17 30 26 27 35 31 30 41 36 40 39 37 40 38 36 39 36 34 37 33 31 34 25 23 24 25 21 22 25 21 22 26 22 23 28 23 27 28 23 27 27 22 26 26 21 25 27 22 26 31 26 30 34 29 33 36 34 37 39 37 40 43 41 44 43 41 44 42 40 43 41 41 43 43 41 44 43 41 44 43 43 45 43 41 44 43 43 45 41 39 42 40 38 41 39 37 40 38 36 39 37 35 38 33 31 34 26 24 25 22 20 23 19 17 18 13 13 13 
21 13 10 20 15 11 20 15 11 20 15 11 20 15 12 21 13 11 21 16 12 21 16 12 21 16 12 23 15 12 22 14 11 21 16 12 22 17 13 22 17 13 25 17 15 25 17 14 25 17 14 24 16 13 25 18 12 26 16 14 27 18 13 27 17 15 27 18 13 27 17 15 28 19 14 29 19 17 30 19 15 30 19 15 30 20 18 30 20 18 29 19 17 29 19 17 30 20 18 30 20 18 31 21 19 30 20 18 32 22 20 29 19 17 29 19 17 30 20 18 30 20 18 29 19 17 27 17 15 28 18 16 26 16 14 25 17 14 27 17 15 27 17 15 25 17 14 26 18 16 25 17 15 25 17 15 24 16 13 24 17 11 24 16 13 22 14 12 23 14 15 24 16 13 21 16 12 24 19 16 29 24 21 35 29 29 39 35 36 44 39 43 41 39 42 39 37 40 37 35 38 33 33 35 25 23 26 19 17 20 19 17 20 21 16 20 25 20 24 26 21 25 28 23 27 30 25 29 34 28 32 32 30 33 35 35 37 37 35 38 40 38 41 42 40 43 41 41 43 42 42 44 41 41 43 40 40 42 42 42 44 41 41 43 43 41 44 41 41 43 41 39 42 39 37 40 39 37 38 37 35 38 36 34 37 36 31 35 27 25 26 24 22 23 20 18 19 14 12 15 
21 13 10 21 16 12 21 16 12 21 16 12 19 14 11 19 14 11 21 16 12 21 16 12 21 16 12 23 15 12 22 14 11 24 16 13 22 17 13 24 16 13 25 17 14 25 17 14 25 17 14 25 17 14 25 17 14 25 17 14 24 19 15 27 17 15 27 17 15 28 18 16 29 19 17 29 19 17 29 19 17 30 19 17 30 20 18 29 19 17 29 19 17 29 19 17 30 20 18 30 20 18 30 20 18 30 20 18 30 20 18 29 19 17 28 18 16 29 19 17 29 19 17 28 18 16 28 18 16 26 16 14 27 16 14 26 18 15 26 18 15 26 18 15 26 18 15 26 18 16 27 19 17 26 18 16 25 17 15 24 16 14 24 16 14 23 15 13 22 14 12 24 16 13 20 15 11 26 21 18 32 27 24 39 35 34 44 40 41 46 41 45 43 41 44 40 38 41 37 35 38 34 32 35 24 22 23 15 13 14 15 13 14 19 15 16 21 16 20 27 22 26 31 26 30 33 28 32 37 32 36 38 36 39 39 37 40 40 38 41 42 40 43 41 41 43 41 41 43 41 41 43 40 40 42 40 40 42 42 40 43 41 41 43 42 42 44 40 40 42 40 38 41 38 36 39 37 37 39 36 34 35 39 35 36 36 32 33 34 29 33 28 23 27 22 20 23 14 14 14 
19 14 10 21 13 10 23 15 12 22 14 11 20 15 12 21 16 13 21 16 12 22 17 13 22 17 13 23 15 12 23 15 12 24 16 13 24 16 13 23 18 14 25 17 15 25 17 14 26 18 15 26 18 15 26 17 12 26 18 15 24 19 15 29 19 17 29 19 17 29 19 17 29 19 17 29 19 17 29 19 17 31 20 18 31 21 19 31 21 19 31 21 19 31 21 19 32 22 20 32 22 20 32 22 20 32 22 20 29 19 17 29 19 17 28 18 16 28 18 16 28 18 16 28 18 16 28 18 16 28 18 16 27 17 15 29 19 17 28 20 17 29 21 18 30 22 19 31 23 21 32 24 22 30 22 20 28 20 18 26 18 16 21 18 13 22 17 13 21 16 12 20 17 12 24 19 15 32 27 24 37 33 32 42 38 39 45 41 42 44 39 43 41 39 42 40 38 41 39 37 40 36 34 37 29 27 30 24 22 25 18 16 19 19 14 18 20 15 19 26 21 25 31 29 32 38 33 37 40 38 41 41 39 42 41 39 42 40 38 41 40 40 42 39 40 42 41 41 43 40 40 42 41 39 42 41 39 42 42 40 43 42 40 43 41 41 43 39 39 41 40 38 41 40 35 39 37 35 38 37 35 36 40 36 37 39 35 36 36 31 35 29 27 30 26 24 27 21 19 20 
20 15 11 22 14 11 22 14 11 21 13 10 21 16 13 21 16 13 21 16 12 20 15 11 21 16 12 23 15 12 23 15 12 24 16 13 24 16 13 26 16 14 25 17 14 26 16 14 27 17 15 26 18 15 23 18 14 26 18 15 28 18 16 30 20 18 28 18 16 28 18 16 28 18 16 28 18 16 29 19 17 31 21 19 32 22 20 32 22 20 32 22 20 32 22 20 32 22 20 31 21 19 30 20 18 29 19 17 29 19 17 29 19 17 29 19 17 29 19 17 28 18 16 28 18 16 27 17 15 28 18 16 27 19 16 28 18 16 29 21 18 29 21 18 31 23 20 32 24 22 34 26 24 33 25 23 31 23 21 26 18 16 21 16 12 22 17 13 22 17 13 23 18 14 25 20 17 34 28 30 39 35 34 42 38 39 45 40 44 42 40 43 44 42 45 44 42 45 43 41 44 41 39 42 38 36 39 32 30 33 24 22 25 18 16 19 17 15 18 25 20 24 32 27 31 35 33 36 38 36 39 40 38 41 40 38 41 39 37 40 36 37 39 39 39 41 41 39 42 40 38 41 41 39 42 41 39 42 41 39 42 43 41 44 41 39 42 37 35 38 38 36 39 37 35 38 38 36 39 40 36 37 38 36 37 35 33 34 34 29 33 27 25 28 22 20 23 18 18 18 
20 15 11 22 14 11 22 14 11 22 14 11 20 15 12 21 16 13 21 16 12 21 16 12 20 15 11 22 14 11 24 16 13 24 16 13 23 15 12 24 16 13 25 17 15 25 17 14 27 17 15 26 18 15 25 18 12 26 16 14 28 18 16 28 18 16 28 18 16 27 17 15 28 18 16 29 19 17 28 18 16 31 21 19 32 22 20 30 20 18 32 22 20 31 21 19 31 21 19 31 21 19 30 20 18 30 20 18 30 20 18 29 19 17 29 19 17 29 19 17 29 19 17 29 19 17 27 17 15 28 18 16 26 18 15 27 17 15 27 19 16 28 20 17 32 24 21 35 27 25 40 32 30 38 30 28 35 27 25 30 22 20 24 16 14 25 17 14 25 17 15 27 19 17 28 22 22 37 31 31 42 38 39 44 39 43 42 40 43 41 39 42 43 41 44 41 39 42 42 40 43 41 39 42 39 37 40 35 33 36 29 27 30 26 21 25 24 19 23 26 24 27 31 29 32 36 34 37 39 37 40 40 38 41 39 37 40 37 35 38 36 36 38 39 37 40 41 39 42 39 37 40 38 36 39 40 38 41 42 37 41 39 37 40 38 36 39 36 34 37 37 35 38 36 34 37 35 33 34 38 33 37 37 32 36 32 27 31 30 26 27 23 21 22 20 18 19 16 16 18 
21 16 12 23 15 12 22 14 11 22 14 11 21 16 13 21 16 13 23 15 12 20 15 11 20 15 11 23 15 12 24 16 13 25 17 14 24 16 13 25 17 14 25 17 14 27 17 15 26 18 15 27 17 15 26 16 14 25 17 14 27 17 15 28 18 16 28 18 16 28 18 16 29 20 15 30 20 18 30 20 18 31 21 19 30 20 18 30 20 18 30 20 18 30 20 18 30 20 18 30 20 18 30 20 18 30 20 18 31 21 19 29 19 17 29 19 17 28 18 16 29 19 17 29 19 17 27 17 15 28 18 16 26 18 15 26 18 15 25 17 14 28 20 17 31 23 20 35 27 25 42 34 32 41 33 31 37 32 29 35 27 25 28 20 18 26 18 16 26 18 16 28 20 18 32 26 26 40 36 37 44 40 41 46 41 45 43 41 44 40 38 41 40 38 41 39 37 40 40 38 41 37 35 38 36 34 37 35 33 36 31 29 32 29 27 30 27 25 28 30 28 31 34 32 35 38 36 39 40 38 41 40 38 41 37 35 38 35 33 36 35 33 36 38 36 39 39 37 40 38 38 40 38 36 39 38 36 39 40 35 39 39 34 38 38 33 37 33 31 34 33 31 34 35 33 36 37 33 34 34 32 35 31 29 32 25 23 26 21 19 20 19 17 18 15 15 15 12 12 14 
23 15 12 19 14 10 20 15 11 20 15 11 20 15 12 19 14 11 22 14 11 21 16 12 21 16 12 21 16 12 24 16 13 24 16 13 24 16 13 24 16 13 24 16 14 25 17 14 26 16 14 27 17 15 26 17 12 26 16 14 29 18 16 28 18 16 27 17 15 28 19 14 29 19 17 31 20 16 30 20 18 31 21 19 30 20 18 31 21 19 30 20 18 30 20 18 30 20 18 30 20 18 30 20 18 30 20 18 32 22 20 29 19 17 28 18 16 28 18 16 28 18 16 27 17 15 27 17 15 26 16 14 25 17 14 25 17 14 26 18 15 26 18 15 29 21 18 33 25 23 41 33 31 43 35 33 41 36 33 38 33 30 33 25 22 28 19 20 28 20 18 32 23 24 35 31 28 41 39 40 45 43 46 45 40 44 42 40 43 39 37 40 38 36 39 36 34 37 33 31 36 33 31 36 30 28 31 29 27 30 28 26 29 29 27 30 30 28 31 35 33 36 39 37 40 41 39 42 40 38 41 38 36 39 33 31 34 33 31 34 35 33 36 38 36 39 39 37 40 37 37 39 37 35 38 38 33 37 37 32 36 36 31 35 34 32 35 32 30 33 32 30 33 34 32 35 34 30 31 31 29 32 28 23 27 19 19 21 17 15 16 15 13 14 12 12 12 11 11 13 
23 15 12 20 15 11 21 16 12 20 15 11 20 15 12 20 15 12 21 16 12 22 17 13 24 16 13 21 16 12 23 15 12 26 16 14 24 16 13 25 17 14 24 16 13 26 16 14 26 16 14 27 17 15 27 17 15 27 17 15 31 17 16 30 19 17 29 19 17 28 21 15 30 19 17 31 20 16 31 21 19 32 22 20 30 20 18 30 20 18 31 21 19 31 21 19 31 21 19 30 20 18 30 20 18 30 20 18 30 20 18 29 19 17 30 20 18 28 18 16 28 18 16 28 18 16 27 17 15 26 16 14 22 17 13 23 18 14 24 16 13 25 17 14 27 19 16 31 21 20 36 28 26 37 32 29 42 34 32 43 34 35 36 30 30 31 26 23 31 25 25 33 29 28 38 34 33 44 40 41 43 41 44 43 41 44 43 41 44 41 39 42 39 37 40 37 35 38 34 32 35 33 28 34 29 27 30 27 25 28 28 26 29 31 29 32 35 33 38 38 36 41 39 37 42 39 37 42 38 33 37 32 30 33 31 29 32 33 31 34 36 34 37 42 37 41 41 36 40 39 34 38 37 32 36 36 31 35 33 31 34 34 29 33 31 29 32 31 29 32 32 30 33 32 30 33 31 25 29 25 23 24 21 19 20 14 14 14 15 13 16 13 13 15 11 11 13 10 10 10 
20 15 11 22 14 11 24 16 13 20 15 11 19 14 10 20 15 11 21 16 12 20 15 11 21 16 12 24 16 13 24 16 13 24 16 13 24 16 13 24 16 13 26 16 14 26 16 14 27 17 15 27 17 15 26 16 14 28 18 16 28 18 16 29 19 17 29 19 17 31 20 18 30 20 18 31 20 18 30 20 18 31 21 19 31 22 17 30 21 16 29 19 17 29 20 15 30 20 18 30 20 18 31 21 19 30 20 18 30 20 18 28 18 16 29 19 17 29 19 17 25 17 14 26 16 14 28 18 16 26 18 15 26 16 14 25 17 14 26 18 15 25 17 14 25 17 14 27 19 16 31 23 20 35 27 24 38 30 28 41 33 31 39 33 33 36 32 31 36 32 31 36 32 33 41 37 38 46 40 44 45 43 46 44 42 45 44 42 45 42 40 43 40 38 41 40 38 41 36 34 37 33 31 34 29 27 32 30 28 31 32 30 33 33 31 36 37 35 40 38 36 39 39 37 40 40 38 43 38 36 39 34 32 35 34 32 35 37 35 38 40 38 41 40 38 41 40 35 39 38 33 37 35 30 34 33 28 32 30 25 29 28 24 25 28 24 25 32 28 29 34 30 31 32 27 31 25 23 24 21 19 20 16 16 16 11 11 11 12 12 12 11 11 11 10 10 10 11 11 11 
22 14 11 22 14 11 22 14 11 20 15 11 19 14 10 20 15 11 21 16 12 21 16 12 20 15 11 23 15 12 24 16 13 24 16 13 24 16 13 24 16 13 26 16 14 27 17 15 27 17 15 27 17 15 27 17 15 29 18 16 28 18 16 29 19 17 30 20 18 30 20 18 31 21 19 30 20 18 28 18 16 29 19 17 32 23 18 30 21 16 29 19 17 30 21 16 30 20 18 31 21 19 31 21 19 29 19 17 29 19 17 29 19 17 28 18 16 28 18 16 27 17 15 25 17 14 26 18 15 27 17 15 26 16 14 25 17 14 25 17 14 25 17 14 25 17 14 26 18 15 29 21 18 30 22 19 33 25 23 39 31 29 41 35 35 40 36 35 41 35 37 41 37 38 42 38 39 46 41 45 44 42 45 45 43 46 45 43 46 44 42 45 42 40 43 41 39 42 38 36 39 33 31 34 33 31 34 33 31 34 36 34 37 37 35 38 39 37 40 39 37 40 38 36 39 41 39 42 39 37 40 37 35 38 36 34 37 38 36 39 40 38 41 40 38 41 39 34 38 36 31 35 34 29 33 28 26 29 27 23 24 24 20 21 27 23 24 29 25 26 33 29 30 28 26 27 23 21 22 19 17 18 14 12 13 11 9 10 12 10 11 12 10 11 12 10 13 12 12 12 
19 14 10 23 15 12 22 14 11 21 13 10 20 15 11 19 14 10 21 16 12 20 15 11 20 15 11 24 16 13 23 15 12 22 14 11 24 14 12 24 14 12 26 16 14 27 17 15 27 17 15 27 17 15 28 18 16 28 18 16 28 18 16 29 19 17 29 19 17 30 20 18 30 20 18 30 20 18 30 20 18 32 22 20 30 21 16 30 21 16 31 21 19 32 23 18 32 22 20 30 20 18 30 20 18 31 21 19 29 19 17 29 19 17 28 18 16 28 18 16 28 18 16 27 17 15 26 16 14 25 17 14 24 16 13 25 17 14 26 18 15 26 18 15 25 17 14 25 17 14 27 17 15 26 18 15 29 21 19 32 27 24 38 32 32 42 36 36 42 38 39 45 41 42 44 42 45 45 43 46 45 43 46 45 43 46 44 42 45 44 42 45 42 40 43 40 38 41 38 36 39 36 34 37 37 35 38 38 36 39 39 37 40 40 38 41 40 38 41 38 36 39 38 36 39 39 37 40 40 38 41 37 35 38 36 34 37 35 33 36 36 34 37 37 35 38 35 33 36 35 30 34 30 28 31 24 24 26 20 18 19 21 17 18 23 19 20 27 23 24 30 26 27 28 26 27 23 19 20 19 14 18 13 11 12 11 9 10 13 11 14 15 13 14 15 13 14 15 13 14 
21 13 10 20 15 11 22 14 11 22 14 11 20 15 11 20 15 11 20 15 11 21 16 12 23 15 12 23 15 12 24 16 13 23 15 12 27 16 14 24 14 12 26 16 14 26 16 14 28 17 15 29 15 14 29 18 16 27 16 14 27 17 15 27 17 15 30 19 17 31 21 19 31 20 18 30 20 18 30 20 18 31 21 19 30 21 16 30 21 16 31 21 19 32 23 18 31 21 19 31 21 19 30 20 18 30 20 18 30 20 18 28 18 16 29 19 17 28 18 16 27 19 16 29 19 17 26 16 14 25 17 14 24 16 13 26 18 15 26 18 15 25 17 14 26 18 15 26 18 15 28 18 16 25 17 14 27 17 15 30 22 20 32 26 26 36 32 31 42 38 39 44 40 39 46 41 45 44 42 45 43 41 44 43 41 44 42 40 43 41 39 42 42 40 45 41 39 44 40 38 43 39 37 42 39 37 42 40 38 41 39 37 40 39 37 42 38 36 41 35 33 36 35 33 36 34 32 37 35 33 36 34 32 35 31 29 32 30 28 31 33 31 34 35 33 36 36 31 35 33 28 32 29 27 30 23 21 22 18 16 17 16 14 15 19 17 18 25 21 22 29 25 26 31 27 28 24 19 23 21 17 18 16 14 15 17 15 18 19 17 18 21 19 20 18 16 19 16 16 16 
19 14 10 21 13 10 19 14 10 21 13 10 19 14 10 19 14 10 21 16 12 21 16 12 23 15 12 24 16 13 24 16 13 24 16 13 26 16 14 24 14 12 25 15 13 26 16 14 28 19 14 28 19 14 29 20 15 28 19 14 28 18 16 27 17 15 29 18 16 30 20 18 31 20 18 30 20 18 30 20 18 30 20 18 29 20 15 31 22 17 32 22 20 31 22 17 31 21 19 29 19 17 30 20 18 31 21 19 29 19 17 28 18 16 27 17 15 28 18 16 28 18 16 27 19 16 27 19 16 27 17 15 25 17 14 25 17 14 26 18 15 25 17 14 25 17 14 24 16 13 25 15 13 26 18 15 27 17 15 28 20 18 31 25 25 36 32 31 42 38 39 42 41 39 45 43 46 45 40 44 42 40 43 41 39 42 41 39 42 40 38 41 41 39 44 40 38 43 42 40 45 43 41 46 41 39 42 40 38 41 37 35 38 35 33 36 33 31 34 30 28 31 31 29 32 32 30 33 35 33 36 36 34 37 34 32 35 35 33 36 37 32 36 38 33 37 37 32 36 33 28 32 28 23 27 21 19 20 17 15 16 16 14 15 18 16 17 24 20 21 29 25 26 32 26 28 26 24 25 27 22 26 23 21 22 26 22 23 25 20 24 20 18 19 18 16 17 14 14 16 
21 13 10 19 14 10 22 14 11 22 14 11 19 14 10 20 15 11 20 15 11 23 15 12 25 17 14 24 16 13 26 18 15 25 17 14 25 15 13 25 15 13 25 15 13 26 16 14 27 18 13 29 18 14 28 19 14 28 19 14 29 19 17 29 19 17 28 18 16 29 19 17 29 19 17 29 19 17 30 20 18 30 20 18 32 23 18 32 23 18 31 21 19 31 22 17 30 20 18 30 20 18 30 20 18 30 20 18 29 19 17 28 18 16 28 18 16 28 18 16 28 18 16 29 19 17 27 19 16 27 19 16 26 18 15 26 18 15 26 18 15 25 17 14 26 18 15 24 16 13 26 16 14 25 17 14 27 17 15 30 22 20 32 27 24 37 33 32 41 39 40 45 41 42 46 44 47 45 43 44 43 41 44 40 38 41 40 38 41 38 36 39 39 37 40 40 38 41 39 37 40 41 39 42 42 40 43 40 38 41 38 36 39 35 33 36 32 30 33 29 27 30 30 28 31 31 29 32 33 31 34 37 35 38 37 35 38 37 35 38 40 35 39 41 36 40 37 31 35 30 25 29 25 20 24 20 18 21 17 15 16 17 15 16 18 16 17 25 21 22 32 26 28 33 29 30 32 28 29 32 28 29 29 25 26 28 23 27 26 22 23 24 20 21 19 17 20 16 14 15 
21 13 10 21 13 10 20 15 11 22 14 11 21 16 13 21 16 13 22 17 14 24 16 13 24 16 13 24 16 13 25 17 14 25 17 14 24 14 12 25 15 13 27 16 14 27 16 14 28 17 13 30 19 15 29 18 14 30 19 15 28 19 14 29 20 15 29 20 15 29 20 15 29 20 15 30 21 16 29 20 15 30 21 16 31 22 17 32 23 18 31 21 19 31 22 17 31 21 19 30 20 18 30 20 18 30 20 18 28 18 16 28 18 16 28 18 16 27 19 16 27 19 16 28 18 16 27 17 15 26 18 15 28 18 16 26 18 15 27 19 16 26 18 15 25 17 14 24 16 13 24 16 13 25 17 14 27 17 15 30 22 20 34 29 26 40 36 35 46 42 43 46 44 45 47 45 48 46 44 47 43 41 44 42 40 43 40 38 41 38 36 39 37 35 38 37 35 38 37 35 38 40 38 41 42 40 43 40 38 41 40 38 41 36 34 37 32 30 33 30 28 31 29 27 30 30 28 31 33 31 34 35 33 36 36 34 37 37 35 38 41 36 40 41 36 40 35 30 34 28 23 27 23 18 22 17 15 18 17 15 16 16 14 15 20 18 19 27 23 24 35 31 32 36 32 33 35 31 32 34 28 32 32 28 29 30 24 26 29 23 25 23 21 22 22 18 19 17 15 16 
22 14 11 21 16 12 20 15 11 23 15 12 20 15 12 20 15 12 21 16 13 23 15 13 24 16 13 23 15 12 25 17 14 25 17 14 25 17 14 24 16 13 27 17 15 27 17 15 28 19 14 28 19 14 28 19 14 27 18 13 29 20 15 29 20 15 30 21 16 31 20 16 30 21 16 31 20 16 30 21 16 29 20 15 31 22 17 31 22 17 30 20 18 31 22 17 31 21 19 29 19 17 30 20 18 30 20 18 29 19 17 29 19 17 28 18 16 29 19 17 28 18 16 26 18 15 27 19 16 27 17 15 28 18 16 25 17 14 26 18 15 26 18 15 24 16 13 25 17 14 25 17 14 26 18 15 27 17 15 28 20 18 36 30 30 42 38 39 44 42 43 46 44 45 46 44 47 45 43 46 42 40 43 43 41 44 42 40 43 38 36 39 34 32 35 36 34 37 36 34 37 37 35 38 40 38 41 40 38 41 39 37 40 37 35 38 32 30 33 29 27 30 26 24 27 26 24 27 27 25 28 30 28 31 34 32 35 37 35 38 40 35 39 40 35 39 32 27 31 27 22 26 23 18 22 18 16 19 16 14 17 19 17 18 23 21 22 33 29 30 40 36 37 40 34 38 38 34 35 37 31 33 34 30 31 31 25 27 31 25 27 27 23 24 24 20 21 18 16 17 
21 16 12 23 15 12 21 16 13 20 15 12 20 15 11 20 15 11 19 14 10 20 15 11 22 14 11 24 16 13 24 16 13 25 15 13 25 16 11 25 16 11 25 16 11 26 17 12 26 17 12 27 18 13 28 19 14 30 20 18 29 20 15 31 22 17 30 21 16 30 21 16 31 22 17 30 21 16 31 22 17 30 21 16 31 22 17 32 21 17 31 21 19 32 22 20 32 21 19 31 21 19 30 20 18 29 19 17 30 20 18 28 18 16 29 19 17 28 18 16 25 15 13 26 16 14 28 18 16 26 18 15 25 17 14 23 15 12 25 15 13 25 17 14 25 17 14 23 15 12 24 16 13 25 17 15 27 19 17 30 25 22 39 35 32 43 41 42 44 42 43 43 41 42 43 41 44 40 38 41 42 40 41 40 38 41 42 37 41 38 36 39 34 34 36 35 33 36 38 33 37 37 35 38 43 38 42 43 41 44 43 41 44 39 37 40 33 31 34 26 24 27 26 24 27 24 22 25 23 21 24 26 24 27 32 30 33 35 33 36 37 35 38 33 31 34 29 27 30 26 24 27 25 23 26 22 20 23 23 18 22 26 21 25 30 26 27 36 32 33 39 35 36 39 35 36 40 35 39 38 34 35 36 32 33 31 26 30 29 23 25 23 19 20 20 16 17 16 12 13 
21 16 12 22 14 11 20 15 11 22 14 11 21 16 12 20 15 11 20 15 11 20 15 11 22 14 11 23 15 12 25 17 14 25 15 13 26 17 12 26 17 12 27 18 13 26 17 12 29 18 14 29 18 14 30 19 15 29 20 15 29 20 15 29 20 15 28 19 14 29 20 15 31 22 17 31 22 17 30 21 16 30 21 16 31 20 16 30 21 16 32 22 20 32 22 20 31 21 19 31 21 19 29 19 17 29 19 17 28 18 16 28 18 16 27 17 15 26 18 15 26 16 14 27 17 15 27 17 15 26 16 14 25 15 13 26 16 14 26 18 15 26 18 15 26 16 14 25 15 13 25 17 14 24 19 16 29 21 19 34 28 28 41 37 34 45 43 44 46 44 45 44 42 43 43 41 42 40 38 41 39 37 38 37 35 38 36 34 37 33 33 35 35 33 36 38 33 37 39 34 38 37 35 38 41 39 42 44 39 43 42 40 43 39 37 40 31 29 32 25 23 26 23 21 24 21 19 22 20 18 21 22 20 23 27 25 28 30 28 31 32 30 33 32 30 33 31 29 32 28 26 29 25 23 26 24 22 25 27 22 26 31 26 30 34 29 33 36 31 35 38 33 37 38 33 37 39 34 38 38 33 37 34 30 31 28 24 25 23 19 20 19 15 16 16 12 13 14 10 11 
20 15 11 22 14 11 21 13 10 22 14 11 21 16 12 20 15 11 22 14 11 21 16 12 23 15 12 23 15 12 23 15 12 26 16 14 26 17 12 26 17 12 26 17 12 27 18 13 27 18 13 29 20 15 29 20 15 31 20 16 30 21 16 29 20 15 30 21 16 31 22 17 30 21 16 31 22 17 29 20 15 31 22 17 32 21 17 31 22 17 31 21 19 32 22 20 31 21 19 31 21 19 29 19 17 28 18 16 28 18 16 26 16 14 26 16 14 27 17 15 27 17 15 27 17 15 26 16 14 25 15 13 26 16 14 25 17 14 26 18 15 26 18 15 26 18 15 25 17 14 25 17 15 25 20 17 27 22 19 33 29 28 41 40 38 45 43 44 45 43 44 42 40 41 42 40 41 40 38 41 37 33 34 34 32 35 33 31 34 34 29 33 35 30 34 37 32 36 38 33 37 40 35 39 42 37 41 43 38 42 44 39 43 40 35 39 30 28 31 23 21 24 22 20 23 20 18 21 18 16 19 20 18 21 27 22 26 31 26 30 32 27 31 36 31 35 31 29 32 30 28 31 28 26 29 28 26 29 30 25 29 35 30 34 35 30 34 38 33 37 37 32 36 38 33 37 39 33 35 35 30 34 31 26 30 25 21 22 19 15 16 14 12 13 12 10 11 11 9 10 
20 15 11 20 15 11 21 16 13 20 15 12 23 15 12 21 16 12 22 14 11 23 15 12 23 15 12 23 15 12 24 16 13 26 16 14 26 17 12 26 17 12 26 17 12 27 18 13 28 19 14 28 19 14 29 20 15 30 21 16 29 20 15 30 21 16 30 21 16 31 22 17 30 21 16 30 21 16 29 20 15 30 21 16 34 20 17 32 23 18 32 22 20 30 22 19 29 19 17 30 19 17 29 19 17 29 19 17 28 18 16 27 17 15 27 17 15 26 16 14 26 16 14 26 18 15 26 16 14 26 16 14 25 17 14 26 16 14 27 17 15 25 17 14 23 18 14 26 18 15 25 17 15 27 19 17 28 22 22 35 31 30 41 39 40 44 42 43 44 42 43 42 40 41 39 37 38 35 33 34 35 29 31 29 27 28 29 27 30 32 27 31 34 29 33 36 31 35 38 33 37 37 35 38 43 38 42 44 39 43 42 37 41 35 33 36 28 26 29 22 20 23 22 17 21 19 17 20 21 19 22 25 23 26 27 25 28 33 28 32 36 31 35 37 35 38 34 32 35 32 30 33 32 30 33 31 29 32 37 32 36 38 33 37 38 33 37 37 32 36 37 32 36 37 32 36 36 31 35 33 28 32 29 25 26 23 19 20 18 14 15 14 12 13 13 11 12 13 11 12 
20 15 11 19 14 10 19 14 11 20 15 12 24 16 13 19 14 10 23 15 12 23 15 12 23 15 12 24 16 13 25 17 14 26 16 14 26 17 12 25 16 11 27 18 13 27 18 13 29 20 15 30 19 15 30 19 15 32 21 17 29 20 15 29 20 15 30 21 16 31 22 17 30 21 16 31 22 17 30 21 16 31 22 17 31 20 16 29 20 15 30 20 18 29 19 17 28 18 16 29 19 17 30 19 17 29 19 17 28 18 16 27 17 15 28 17 15 26 16 14 27 17 15 27 19 16 25 17 14 26 16 14 27 17 15 26 16 14 24 16 13 26 18 15 26 18 15 26 18 15 25 17 15 25 20 17 30 24 24 35 31 30 41 39 40 44 42 43 43 41 42 41 39 40 36 34 35 32 30 31 31 27 28 31 25 27 31 26 30 32 27 31 32 27 31 34 28 32 34 29 33 38 33 37 44 39 43 43 41 44 39 37 40 34 32 35 32 27 31 28 26 29 29 27 30 32 27 31 34 32 35 36 34 37 35 33 36 36 34 37 37 35 38 38 36 39 33 31 34 32 30 33 33 31 34 36 34 37 41 36 40 42 37 41 40 35 39 39 34 38 37 32 36 36 31 35 34 29 33 33 29 30 30 26 27 22 18 19 18 14 15 14 12 13 15 13 14 14 12 13 
22 14 11 20 15 11 22 14 11 23 13 11 23 15 12 22 14 11 23 15 12 23 15 12 24 16 13 24 16 13 25 17 14 26 16 14 24 14 12 25 15 13 26 17 12 27 18 13 27 18 13 27 18 13 29 18 14 31 20 16 29 20 15 29 20 15 28 19 14 29 20 15 29 20 15 29 20 15 29 20 15 30 21 16 30 19 15 30 21 16 31 21 19 30 20 18 30 20 18 31 20 18 30 20 18 29 19 17 28 18 16 28 18 16 28 17 15 26 16 14 26 16 14 26 18 15 25 17 14 24 16 13 27 17 15 25 17 14 25 17 14 25 17 14 25 17 14 25 17 14 27 19 17 31 26 23 35 29 29 40 36 35 43 41 42 45 43 44 42 40 41 38 36 37 35 33 34 30 28 31 29 27 28 30 26 27 31 26 30 27 25 28 29 24 28 29 24 28 33 28 32 37 33 34 43 38 42 43 38 42 38 36 39 35 33 36 33 31 34 36 31 35 36 31 35 35 30 34 36 31 35 37 32 36 33 28 32 34 29 33 32 27 31 32 27 31 32 27 31 34 29 33 34 32 35 37 35 38 40 35 39 42 37 41 40 35 39 39 34 38 36 31 35 37 32 36 36 31 35 35 31 32 29 25 26 23 18 22 18 14 15 16 14 15 16 14 15 13 11 12 
22 14 11 19 14 10 23 15 12 22 14 11 23 15 12 23 15 12 23 15 12 23 15 12 23 15 12 24 16 13 25 17 14 26 16 14 24 16 14 25 15 13 26 17 12 26 17 12 27 18 13 28 19 14 28 19 14 29 20 15 31 22 17 30 21 16 30 21 16 29 20 15 29 20 15 29 20 15 29 20 15 31 22 17 29 20 15 32 21 17 31 21 19 30 20 18 30 20 18 29 19 17 29 19 17 28 18 16 27 17 15 28 18 16 27 17 15 26 18 15 26 18 15 26 18 15 25 17 14 25 17 14 25 17 14 25 17 14 26 16 14 23 15 12 24 16 13 24 16 14 28 20 18 34 25 26 39 30 31 43 39 38 44 42 43 44 42 43 42 40 41 40 38 39 35 33 34 31 29 32 30 28 29 31 27 28 30 26 27 27 22 26 27 22 26 28 23 27 32 27 31 37 33 34 41 36 40 42 37 41 39 34 38 37 32 36 33 31 34 37 31 35 34 28 32 33 28 32 29 27 30 27 25 28 25 23 26 25 23 26 26 24 27 26 24 27 30 28 31 33 31 34 36 34 37 37 35 38 40 35 39 41 36 40 41 36 40 40 35 39 38 33 37 37 32 36 36 31 35 33 28 32 27 23 24 25 21 22 20 16 17 15 13 14 13 11 12 14 12 13 
23 15 12 20 15 11 21 13 11 20 15 12 23 15 12 23 15 12 23 15 12 23 15 12 24 16 13 22 14 11 25 17 14 26 16 14 25 15 14 25 15 13 26 17 12 26 17 12 27 18 13 28 19 14 28 17 13 29 18 14 29 20 15 30 21 16 31 22 17 30 21 16 31 22 17 31 22 17 30 21 16 30 21 16 31 22 17 31 20 16 31 21 19 30 20 18 29 19 17 29 19 17 29 19 17 28 18 16 28 20 17 28 18 16 27 17 15 26 18 15 26 18 15 26 18 15 25 17 14 24 16 13 24 16 13 25 17 14 24 16 13 24 16 13 25 17 14 25 17 15 29 21 19 34 28 28 41 32 33 44 40 37 46 44 45 45 43 44 42 40 41 39 37 38 36 34 37 37 32 36 34 32 33 31 27 28 26 24 25 23 21 24 25 20 24 29 24 28 33 28 32 35 33 34 42 37 41 41 36 40 38 33 37 34 29 33 33 28 32 29 27 30 27 25 28 28 23 27 22 20 23 22 20 23 22 17 21 22 17 21 24 19 23 26 21 25 31 29 32 35 33 36 38 36 39 39 37 40 41 36 40 43 38 42 42 38 39 41 37 38 39 35 36 37 33 34 34 28 30 29 24 28 26 21 25 23 19 20 20 16 17 16 14 15 14 12 13 13 11 12 
23 15 12 22 14 11 23 15 12 22 14 11 23 15 12 23 15 12 22 14 11 23 15 12 21 16 12 23 15 12 24 16 13 25 15 13 26 16 14 25 15 13 27 18 13 26 17 12 27 18 13 27 18 13 28 19 14 28 19 14 30 19 15 29 20 15 30 21 16 30 20 18 31 21 19 32 21 15 31 22 17 30 21 16 29 20 15 32 23 18 32 23 18 28 18 16 27 17 15 29 19 17 30 20 18 29 19 17 29 18 16 28 18 16 27 19 16 28 17 15 27 19 16 25 17 14 24 16 13 24 16 13 25 15 13 23 18 14 24 16 13 24 16 13 23 18 14 23 18 14 28 23 20 35 31 30 39 35 36 45 41 42 46 44 45 45 43 44 44 42 43 41 41 41 38 36 37 39 35 36 38 34 35 36 32 33 29 25 26 23 18 22 25 20 24 29 24 28 32 28 29 37 33 34 41 36 40 40 36 37 37 32 36 34 29 33 30 25 29 30 26 27 29 24 28 29 24 28 29 24 28 26 21 25 29 24 28 26 24 27 26 24 27 27 25 28 32 30 33 35 33 36 39 37 42 41 39 42 41 39 40 44 40 41 42 38 39 41 37 38 40 36 37 31 29 30 30 24 26 26 22 23 23 19 20 22 18 19 19 15 16 15 13 14 13 11 12 12 10 11 
21 13 10 22 14 11 23 15 12 23 15 12 24 16 13 25 17 14 24 16 13 24 16 13 24 16 13 24 16 13 26 18 15 27 17 15 27 17 15 26 17 12 27 18 13 27 18 13 27 18 13 27 18 13 28 19 14 29 20 15 29 20 15 29 20 15 31 20 16 30 20 19 31 21 19 31 22 17 31 21 19 30 21 16 29 20 15 29 20 15 31 22 17 31 21 19 29 19 17 30 20 18 30 20 18 29 19 17 28 18 16 28 18 16 25 17 14 27 16 14 26 18 15 25 17 14 24 16 13 24 16 13 25 17 15 24 16 13 24 16 13 23 18 14 23 18 14 24 19 15 28 24 23 36 32 31 42 38 39 45 43 44 45 43 44 43 41 42 43 41 42 42 40 41 42 40 41 43 39 40 39 37 38 36 32 33 33 29 30 27 23 24 25 20 24 29 25 26 33 29 30 37 33 34 39 34 38 41 36 40 38 33 37 34 29 33 32 27 31 32 27 31 33 28 32 35 30 36 36 31 35 36 31 35 36 31 35 36 31 35 33 31 34 32 30 33 36 34 37 39 37 40 41 39 42 42 40 43 43 41 42 44 40 41 42 38 39 41 37 38 36 32 33 30 24 26 25 21 22 24 20 21 23 19 20 21 17 18 14 12 13 13 11 12 12 10 11 11 11 11 
23 15 12 22 14 11 22 14 11 22 14 11 23 15 12 24 16 13 24 16 13 24 16 13 24 16 13 24 16 13 25 17 14 26 16 14 26 17 12 26 17 12 28 19 14 28 19 14 28 19 14 28 19 14 29 20 15 30 21 16 30 19 15 30 21 16 31 20 14 31 21 19 31 20 18 31 20 18 31 21 19 32 22 20 31 20 16 29 20 15 30 21 16 31 21 19 29 19 17 29 19 17 30 20 18 29 19 17 27 17 15 27 17 15 26 18 15 25 15 13 24 16 13 25 17 14 25 17 14 25 17 14 24 16 14 22 14 11 23 15 12 26 16 14 25 17 14 25 20 17 30 24 26 37 35 36 43 39 40 45 43 44 45 43 44 43 41 42 41 39 40 40 38 39 38 36 37 40 38 39 40 36 37 36 32 33 31 29 30 24 20 21 24 20 21 28 24 25 33 29 30 40 36 37 40 36 37 39 34 38 37 32 36 34 30 31 31 26 30 32 27 31 34 29 33 37 32 38 39 34 38 39 34 38 38 33 37 37 32 36 36 34 37 36 34 37 39 37 40 41 39 42 41 39 42 42 40 43 42 40 41 42 40 41 40 38 39 39 35 36 32 26 28 26 20 22 25 19 21 24 20 21 23 19 20 19 15 16 14 12 13 11 9 10 11 9 10 12 10 11 
22 14 11 23 15 12 22 14 11 22 14 12 22 14 11 24 16 13 24 16 13 24 16 13 25 17 14 25 17 14 25 15 13 26 16 14 25 16 11 27 18 13 28 19 14 28 19 14 28 19 14 29 20 15 29 20 15 30 21 16 30 21 16 31 22 17 32 21 17 32 21 17 31 21 20 30 20 18 30 20 18 32 20 20 30 21 16 30 21 16 30 20 18 30 20 18 30 20 18 28 18 16 28 20 17 28 20 17 28 20 17 26 18 15 25 17 14 24 16 13 24 16 13 25 17 14 24 16 13 24 16 13 24 16 14 23 15 12 23 15 12 23 15 12 25 17 14 25 20 17 30 26 27 39 35 36 44 40 41 45 43 44 44 44 44 43 41 42 40 38 39 38 36 37 38 36 37 38 36 37 37 35 36 35 31 32 32 28 29 22 18 19 22 18 19 28 24 25 34 30 31 39 35 36 40 36 37 40 35 39 37 32 36 33 28 32 31 26 30 33 28 32 35 31 32 38 33 37 38 33 37 40 35 39 40 35 39 37 32 36 39 34 38 38 36 39 41 39 42 43 41 44 42 40 43 42 40 41 42 40 41 40 38 39 41 37 38 35 31 32 30 26 27 24 20 21 23 19 20 23 19 20 22 18 19 15 13 14 13 11 12 10 10 10 10 10 10 12 12 12 
22 14 11 23 15 12 22 14 11 21 13 10 22 14 11 22 14 11 23 15 12 25 17 14 25 17 14 24 16 13 26 16 14 25 15 13 25 16 11 28 19 14 29 20 15 28 19 14 29 20 15 30 21 16 29 20 15 29 20 15 30 21 16 30 21 16 29 20 15 32 23 18 31 22 17 29 20 15 29 20 15 31 21 19 30 21 16 30 20 18 29 19 17 30 20 18 28 18 16 28 18 16 27 19 16 27 19 16 26 18 15 26 18 15 25 17 14 25 17 14 23 15 12 23 15 12 24 16 13 24 16 13 22 17 13 23 15 12 24 16 13 25 17 14 25 17 14 23 18 15 32 28 27 39 37 38 44 42 43 46 44 45 43 43 43 41 39 40 38 36 37 36 34 35 35 33 34 35 33 34 36 32 33 32 28 29 27 25 26 21 17 18 23 19 20 28 24 25 35 31 32 39 35 36 41 37 38 39 35 36 35 30 34 33 28 32 34 29 33 36 31 35 39 34 38 39 34 38 39 34 38 39 34 38 41 36 40 39 34 38 40 35 39 42 40 43 43 41 44 43 41 44 41 39 40 41 39 40 41 39 40 40 36 37 36 32 33 32 28 29 25 21 22 24 20 21 22 18 19 21 17 18 17 15 16 13 11 12 11 9 10 9 11 10 10 10 10 10 10 10 
22 14 12 22 14 11 22 14 11 22 14 11 22 14 11 23 15 12 22 14 11 23 15 12 24 16 13 24 16 13 25 15 13 26 16 14 25 16 11 28 19 14 28 19 14 28 19 14 28 19 14 30 21 16 28 19 14 28 19 14 28 19 14 29 20 15 31 20 18 32 23 18 31 22 17 29 20 15 29 20 15 30 19 17 31 22 17 30 20 18 30 20 18 29 19 17 27 19 16 26 18 15 27 19 16 27 17 15 27 19 16 26 18 15 25 17 14 25 17 14 24 16 13 23 15 12 23 15 12 22 14 11 24 16 13 23 15 12 20 15 11 24 16 13 25 17 14 25 21 18 34 33 31 43 39 40 44 42 43 47 45 46 43 41 42 42 40 41 37 35 36 35 33 34 33 31 32 36 32 33 35 31 32 32 28 29 27 23 24 20 16 17 24 20 21 30 26 27 37 33 34 40 36 37 41 36 40 38 34 35 34 30 31 33 28 32 36 32 33 39 34 38 39 34 38 37 32 36 35 30 34 36 31 35 39 34 38 41 36 40 43 38 42 45 40 44 44 42 45 42 40 43 40 38 39 39 37 38 40 36 37 36 32 33 32 28 29 28 24 25 23 19 20 24 20 21 19 15 16 16 14 15 15 13 14 11 11 11 9 11 10 12 10 11 11 11 11 9 9 9 
21 13 11 21 13 11 22 14 12 23 15 12 23 15 12 23 15 12 24 16 13 24 16 13 23 15 12 26 16 14 28 18 16 27 17 15 27 17 15 28 19 14 29 20 15 27 18 13 29 20 15 29 20 15 29 20 15 29 20 15 31 20 16 32 21 17 30 21 16 32 23 18 32 21 17 31 20 18 31 20 16 29 19 17 31 20 18 31 20 18 30 20 18 29 19 17 27 19 16 27 19 16 28 18 16 28 17 15 26 18 15 25 17 14 25 17 14 25 17 14 24 16 13 24 16 13 21 16 12 24 16 13 21 16 12 21 16 12 23 15 12 23 18 14 25 20 16 28 23 20 37 33 32 42 40 41 46 42 43 45 43 44 45 43 44 42 40 41 37 35 36 35 33 34 35 33 34 39 35 36 37 31 33 32 28 29 26 22 23 22 18 17 28 24 25 33 29 30 38 34 35 41 37 38 38 34 35 32 28 29 31 27 28 33 29 30 37 33 34 40 35 39 37 32 36 35 30 34 34 29 33 35 30 34 39 34 38 41 36 40 42 37 41 44 40 41 42 40 41 41 39 40 39 37 38 37 35 36 38 34 35 33 29 30 29 25 26 25 21 22 24 20 21 21 17 18 16 14 15 14 12 13 12 12 12 14 14 14 10 10 10 11 11 11 11 11 11 12 12 12 
22 14 12 21 13 11 22 14 12 22 14 12 23 15 12 24 16 13 24 16 13 23 15 12 23 15 12 26 16 14 28 18 16 27 17 15 27 17 15 27 17 15 27 18 13 28 19 14 28 19 14 29 20 15 29 20 15 30 21 16 30 20 18 32 23 18 31 21 19 31 22 17 32 23 18 32 22 20 32 22 20 31 21 19 33 22 20 31 20 18 30 20 18 29 19 17 27 17 15 27 17 15 27 17 15 28 19 14 25 17 14 25 17 14 25 17 14 24 16 13 24 16 13 24 16 13 22 17 13 23 15 12 25 17 15 24 16 13 24 16 13 24 16 13 28 20 17 31 26 23 40 36 37 44 40 41 46 42 43 46 44 45 45 43 44 42 40 41 41 39 40 39 37 38 41 37 38 42 38 39 39 33 35 34 28 30 27 23 22 24 20 19 30 26 25 37 33 34 40 36 37 39 35 36 38 34 35 35 30 34 35 31 32 36 32 33 41 36 40 41 36 42 36 31 35 34 29 33 34 29 33 36 31 35 39 34 38 39 34 38 41 37 38 42 38 39 42 38 39 39 37 38 40 36 37 38 34 35 34 30 31 29 25 26 26 22 23 22 18 19 22 18 19 16 14 15 14 12 13 15 11 12 11 9 10 12 12 12 11 11 11 11 13 12 12 12 12 15 13 14 
23 15 13 23 15 12 20 15 12 24 16 13 24 16 13 24 16 13 23 15 12 24 16 13 22 14 11 25 17 14 27 19 16 27 17 15 27 18 13 28 19 14 28 19 14 28 19 14 29 20 15 30 19 15 31 20 16 33 19 16 31 22 17 31 22 17 31 21 19 31 21 19 31 20 16 34 21 15 32 21 19 32 21 19 32 22 20 31 21 19 30 20 18 30 20 18 29 19 17 28 18 16 28 18 16 28 18 16 26 18 15 25 17 14 25 17 14 22 17 13 24 16 13 22 17 13 24 16 14 22 17 14 24 16 13 24 16 13 23 15 12 25 17 14 28 20 17 31 26 23 39 35 34 45 41 42 45 43 44 46 44 45 45 43 44 43 41 42 41 39 40 43 41 42 43 39 40 43 39 40 41 35 35 35 29 29 31 25 25 27 21 21 34 28 28 37 33 34 41 37 38 41 37 38 40 36 37 38 34 35 40 34 36 39 37 38 43 39 40 40 35 39 36 31 35 34 29 35 33 28 32 36 31 35 39 34 38 40 35 39 42 38 39 40 38 39 38 36 37 40 36 37 35 31 32 35 29 31 33 27 29 27 23 24 26 20 22 21 15 17 19 15 16 15 13 14 14 12 13 13 11 12 11 11 11 11 11 11 12 12 12 11 11 11 12 12 12 13 13 13 
23 15 13 22 14 12 22 14 11 23 15 12 23 15 12 23 15 12 24 16 13 24 16 13 23 15 12 25 17 14 25 17 14 27 17 15 27 18 13 28 19 14 29 20 15 29 20 15 29 20 15 29 20 15 29 18 14 30 19 15 33 22 18 31 24 18 30 20 18 31 20 18 30 21 16 32 21 17 32 21 19 32 22 20 31 21 19 30 22 19 29 19 17 30 20 18 29 19 17 29 19 17 27 19 16 25 17 14 27 19 16 24 16 13 24 16 13 21 16 12 22 17 13 23 18 14 24 16 14 22 17 14 23 15 12 25 17 14 24 16 13 25 17 14 26 18 15 30 25 22 39 35 34 44 40 41 47 43 44 47 43 44 46 44 45 43 41 42 41 39 40 42 40 41 44 38 40 46 40 42 42 36 36 38 32 32 35 29 29 30 24 24 34 28 28 39 33 35 42 38 39 44 40 41 44 40 41 45 41 42 43 41 42 43 41 42 44 40 41 40 36 37 37 32 36 35 30 34 36 30 34 37 32 36 38 33 37 40 36 37 40 36 37 40 36 37 37 33 34 36 32 33 33 29 30 32 26 28 29 23 25 25 19 21 22 16 18 19 15 16 17 13 14 13 11 12 11 9 10 12 10 11 12 10 11 12 12 12 12 12 12 12 12 12 12 12 12 14 12 13 
