P3
100 50
255
255 255 255 255 255 255 255 255 255 255 255 255 255 255 255 255 255 255 255 255 255 255 255 255 255 255 255 255 255 255 255 255 255 255 255 255 255 255 255 255 255 255 255 255 255 255 255 255 255 255 255 255 255 255 255 255 255 255 255 255 255 255 255 255 255 255 255 255 255 255 255 255 255 255 255 255 255 255 255 255 255 255 255 255 255 255 255 255 255 255 255 255 255 255 255 255 255 255 255 255 255 255 255 255 255 255 255 255 255 255 255 255 255 255 255 255 255 255 255 255 255 255 255 255 255 255 255 255 255 255 255 255 255 255 255 255 255 255 255 255 255 255 255 255 255 255 255 255 255 255 255 255 255 255 255 255 255 255 255 255 255 255 255 255 255 255 255 255 255 255 255 255 255 255 255 255 255 255 255 255 14 12 17 15 13 18 14 12 17 15 13 18 15 13 18 16 14 19 15 13 18 15 13 18 15 12 19 15 13 18 15 13 18 16 14 19 14 12 17 15 13 18 15 13 18 14 11 18 15 10 16 14 12 17 15 10 16 15 13 18 16 11 17 14 12 17 13 11 16 13 11 16 13 11 16 15 12 19 16 13 20 17 14 21 17 14 21 14 12 17 15 13 18 15 13 18 16 14 19 15 13 18 15 13 18 14 12 17 14 12 17 14 12 17 15 13 18 16 14 19 
255 255 255 255 255 255 255 255 255 255 255 255 255 255 255 255 255 255 255 255 255 255 255 255 255 255 255 255 255 255 255 255 255 255 255 255 255 255 255 255 255 255 255 255 255 255 255 255 255 255 255 255 255 255 255 255 255 255 255 255 255 255 255 255 255 255 255 255 255 255 255 255 255 255 255 255 255 255 255 255 255 255 255 255 255 255 255 255 255 255 255 255 255 255 255 255 255 255 255 255 255 255 255 255 255 255 255 255 255 255 255 255 255 255 255 255 255 255 255 255 255 255 255 255 255 255 255 255 255 255 255 255 255 255 255 255 255 255 255 255 255 255 255 255 255 255 255 255 255 255 255 255 255 255 255 255 255 255 255 255 255 255 255 255 255 255 255 255 255 255 255 255 255 255 255 255 255 255 255 255 14 12 17 15 13 18 14 12 17 15 13 18 15 13 18 16 14 19 16 14 19 15 13 18 15 13 18 17 12 18 15 13 18 14 12 17 17 12 18 16 14 19 16 14 19 17 12 18 14 12 17 16 11 17 15 13 18 14 12 17 16 14 19 14 12 17 13 12 17 14 12 17 14 12 17 15 13 18 17 15 20 16 14 19 16 14 19 17 12 18 17 12 18 17 12 18 15 13 18 16 14 19 15 13 18 15 13 18 15 13 18 14 12 17 16 14 19 16 14 19 
255 255 255 255 255 255 255 255 255 255 255 255 255 255 255 255 255 255 255 255 255 255 255 255 255 255 255 255 255 255 255 255 255 255 255 255 255 255 255 255 255 255 255 255 255 255 255 255 255 255 255 255 255 255 255 255 255 255 255 255 255 255 255 255 255 255 255 255 255 255 255 255 255 255 255 255 255 255 255 255 255 255 255 255 255 255 255 255 255 255 255 255 255 255 255 255 255 255 255 255 255 255 255 255 255 255 255 255 255 255 255 255 255 255 255 255 255 255 255 255 255 255 255 255 255 255 255 255 255 255 255 255 255 255 255 255 255 255 255 255 255 255 255 255 255 255 255 255 255 255 255 255 255 255 255 255 255 255 255 255 255 255 255 255 255 255 255 255 255 255 255 255 255 255 255 255 255 255 255 255 18 13 19 18 13 19 17 12 18 17 12 18 17 12 18 18 13 19 18 13 19 18 13 19 17 12 18 17 12 18 17 12 18 17 12 18 19 14 20 19 14 20 18 13 19 18 13 19 20 13 20 19 14 20 18 11 18 17 12 18 17 12 18 18 11 18 15 10 16 17 12 18 17 12 18 18 13 19 18 13 19 17 12 18 18 13 19 18 13 17 17 12 16 17 12 16 17 12 16 18 13 17 18 13 17 17 12 16 18 13 17 18 13 17 18 13 17 17 12 16 
255 255 255 255 255 255 255 255 255 255 255 255 255 255 255 255 255 255 255 255 255 255 255 255 255 255 255 255 255 255 255 255 255 255 255 255 255 255 255 255 255 255 255 255 255 255 255 255 255 255 255 255 255 255 255 255 255 255 255 255 255 255 255 255 255 255 255 255 255 255 255 255 255 255 255 255 255 255 255 255 255 255 255 255 255 255 255 255 255 255 255 255 255 255 255 255 255 255 255 255 255 255 255 255 255 255 255 255 255 255 255 255 255 255 255 255 255 255 255 255 255 255 255 255 255 255 255 255 255 255 255 255 255 255 255 255 255 255 255 255 255 255 255 255 255 255 255 255 255 255 255 255 255 255 255 255 255 255 255 255 255 255 255 255 255 255 255 255 255 255 255 255 255 255 255 255 255 255 255 255 18 13 19 18 13 19 18 13 19 17 12 18 19 14 20 19 14 20 18 13 19 18 13 19 18 13 19 17 12 16 17 12 16 18 13 17 18 13 17 19 14 18 18 13 17 19 14 20 19 14 18 17 15 18 18 13 17 18 13 17 19 14 18 17 12 16 17 12 16 16 11 15 18 14 15 19 14 18 19 14 20 17 12 18 18 13 19 18 13 17 18 13 17 18 13 17 18 13 17 18 13 17 17 12 16 18 13 17 18 13 17 18 13 17 17 12 16 19 14 18 
255 255 255 255 255 255 255 255 255 255 255 255 255 255 255 255 255 255 255 255 255 255 255 255 255 255 255 255 255 255 255 255 255 255 255 255 255 255 255 255 255 255 255 255 255 255 255 255 255 255 255 255 255 255 255 255 255 255 255 255 255 255 255 255 255 255 255 255 255 255 255 255 255 255 255 255 255 255 255 255 255 255 255 255 255 255 255 255 255 255 255 255 255 255 255 255 255 255 255 255 255 255 255 255 255 255 255 255 255 255 255 255 255 255 255 255 255 255 255 255 255 255 255 255 255 255 255 255 255 255 255 255 255 255 255 255 255 255 255 255 255 255 255 255 255 255 255 255 255 255 255 255 255 255 255 255 255 255 255 255 255 255 255 255 255 255 255 255 255 255 255 255 255 255 255 255 255 255 255 255 21 15 19 20 15 19 20 15 19 19 14 18 20 14 18 20 15 19 20 15 19 21 16 20 20 15 21 20 15 19 19 14 18 18 13 17 18 13 17 18 13 17 17 12 16 18 13 19 19 14 18 19 14 18 20 14 18 19 14 18 20 15 19 21 15 19 19 14 18 19 14 18 19 14 20 20 15 21 21 16 22 19 14 20 20 15 21 19 14 20 20 15 19 20 15 19 20 14 18 21 15 19 19 13 17 19 13 17 19 13 17 20 14 18 20 14 18 21 15 19 
255 255 255 255 255 255 255 255 255 255 255 255 255 255 255 255 255 255 255 255 255 255 255 255 255 255 255 255 255 255 255 255 255 255 255 255 255 255 255 255 255 255 255 255 255 255 255 255 255 255 255 255 255 255 255 255 255 255 255 255 255 255 255 255 255 255 255 255 255 255 255 255 255 255 255 255 255 255 255 255 255 255 255 255 255 255 255 255 255 255 255 255 255 255 255 255 255 255 255 255 255 255 255 255 255 255 255 255 255 255 255 255 255 255 255 255 255 255 255 255 255 255 255 255 255 255 255 255 255 255 255 255 255 255 255 255 255 255 255 255 255 255 255 255 255 255 255 255 255 255 255 255 255 255 255 255 255 255 255 255 255 255 255 255 255 255 255 255 255 255 255 255 255 255 255 255 255 255 255 255 20 13 20 20 15 21 20 15 21 20 15 21 20 13 20 20 15 21 20 15 21 21 16 22 21 16 22 21 16 22 21 16 20 21 16 20 19 14 18 20 15 19 19 14 20 19 14 20 19 14 20 20 15 21 19 14 20 20 15 21 21 16 22 21 16 22 20 15 21 19 14 20 19 14 18 22 17 21 21 16 22 20 15 21 20 15 21 19 14 18 20 15 19 20 15 19 20 15 19 21 16 20 19 14 18 19 14 18 20 15 19 20 15 19 20 15 19 21 16 20 
255 255 255 255 255 255 255 255 255 255 255 255 255 255 255 255 255 255 255 255 255 255 255 255 255 255 255 255 255 255 255 255 255 255 255 255 255 255 255 255 255 255 255 255 255 255 255 255 255 255 255 255 255 255 255 255 255 255 255 255 255 255 255 255 255 255 255 255 255 255 255 255 255 255 255 254 254 254 255 255 255 255 255 255 255 255 255 255 255 255 255 255 255 255 255 255 255 255 255 255 255 255 255 255 255 255 255 255 255 255 255 255 255 255 255 255 255 255 255 255 255 255 255 255 255 255 254 254 254 255 255 255 255 255 255 255 255 255 255 255 255 255 255 255 255 255 255 255 255 255 255 255 255 255 255 255 255 255 255 255 255 255 255 255 255 255 255 255 255 255 255 255 255 255 255 255 255 255 255 255 21 14 21 21 14 21 21 14 21 20 15 21 20 15 21 20 15 21 21 16 22 23 16 23 22 17 23 23 18 22 23 18 22 22 17 21 21 16 20 20 15 19 20 15 19 20 15 21 19 14 18 19 14 18 20 15 19 21 16 20 20 15 19 20 15 19 20 15 19 20 15 19 19 14 18 21 17 18 20 15 19 20 15 21 20 15 21 20 15 19 20 15 19 24 19 23 23 17 21 23 17 21 21 15 19 20 14 18 21 15 19 21 15 19 22 16 20 22 16 20 
255 255 255 255 255 255 255 255 255 255 255 255 255 255 255 255 255 255 255 255 255 255 255 255 255 255 255 255 255 255 255 255 255 255 255 255 255 253 254 255 255 255 255 255 255 255 255 255 255 255 255 255 255 255 255 255 255 255 255 255 255 255 255 255 255 255 255 255 255 255 255 255 255 255 255 255 255 255 255 255 255 255 255 255 255 255 255 255 255 255 255 255 255 255 255 255 255 255 255 255 255 255 255 255 255 255 255 255 254 254 254 255 255 255 255 255 255 255 255 255 255 255 255 255 255 255 255 255 255 255 255 255 255 255 255 255 255 255 255 255 255 255 255 255 255 255 255 255 255 255 255 255 255 254 254 254 255 255 255 255 255 255 254 254 254 255 255 255 255 255 255 255 255 255 255 255 255 255 255 255 22 16 20 22 16 20 22 16 20 22 16 20 21 16 20 21 16 20 21 16 20 22 16 20 24 18 22 25 19 23 25 19 23 24 18 22 24 18 22 22 17 21 23 18 22 23 18 22 22 16 20 21 15 19 21 15 19 22 16 20 21 15 19 22 16 20 21 15 19 20 14 18 20 15 19 19 14 18 20 15 19 19 14 18 20 15 19 18 13 17 19 14 20 22 17 21 22 16 20 22 16 20 22 16 20 22 16 20 23 17 21 22 16 20 23 17 21 23 17 21 
255 255 255 255 255 255 255 255 255 255 255 255 255 255 255 255 255 255 255 255 255 255 255 255 255 255 255 255 255 255 255 255 255 255 255 255 255 255 255 255 255 255 255 255 255 255 255 255 255 255 255 255 255 255 255 255 255 255 255 255 255 255 255 255 255 255 255 255 255 254 254 254 255 255 255 255 255 255 255 255 255 254 254 254 255 255 255 255 255 255 255 255 255 255 255 255 255 255 255 255 255 255 255 255 255 255 255 255 255 255 255 255 255 255 254 254 254 255 255 255 255 255 255 255 255 255 255 255 255 255 255 255 255 255 255 254 254 254 254 254 254 255 255 255 255 255 255 255 255 255 255 255 255 255 255 255 255 255 255 255 255 255 254 254 254 254 254 254 255 255 255 255 255 255 255 255 255 255 255 255 21 15 19 22 16 20 22 16 20 22 16 20 21 16 20 21 16 20 23 17 21 23 17 21 23 18 22 24 19 23 24 19 23 24 18 22 24 18 22 23 17 21 25 19 23 26 20 24 22 16 20 22 16 20 20 14 18 20 14 18 22 16 20 21 15 19 21 15 19 21 15 19 21 15 19 20 14 18 21 15 19 21 15 19 21 15 19 21 15 19 21 15 19 21 15 19 21 15 19 22 16 18 22 16 18 21 15 19 23 17 21 23 17 19 23 17 19 23 17 21 
141 137 138 142 138 139 141 137 138 141 137 138 140 138 139 139 137 138 139 137 138 140 138 139 140 138 139 139 137 138 139 137 138 139 137 138 139 137 138 139 137 138 139 137 138 139 137 138 141 137 138 141 137 138 141 137 138 140 136 137 141 137 138 141 137 138 141 137 138 142 138 139 142 138 139 142 138 139 142 138 139 142 138 139 141 137 138 141 137 138 142 138 139 141 137 138 140 136 137 140 136 137 140 136 137 141 137 138 141 137 138 142 138 139 141 137 138 141 137 138 140 136 137 140 136 137 140 136 137 141 137 138 141 135 139 141 136 140 140 136 137 140 136 137 139 137 138 139 137 138 138 136 139 138 136 139 139 135 136 140 136 137 140 136 137 140 136 137 140 136 137 140 136 137 140 136 137 140 136 137 23 17 21 24 18 22 24 18 22 25 19 23 24 18 22 23 17 21 24 18 22 23 17 21 23 18 22 23 18 22 25 20 24 24 18 22 23 17 21 24 18 22 26 20 24 26 20 24 23 17 21 24 18 22 22 16 20 22 16 20 22 16 20 22 16 20 23 17 21 22 16 20 24 18 22 21 15 19 21 15 19 20 14 18 21 15 19 21 15 19 21 15 19 22 16 18 23 17 21 23 17 21 24 18 22 24 18 22 24 18 22 24 18 22 22 16 20 24 18 22 
26 20 24 26 20 24 26 20 24 26 20 24 27 21 25 26 20 24 25 19 23 25 19 23 25 19 23 25 19 23 25 19 23 26 20 24 25 19 23 25 19 23 25 19 23 25 19 23 25 19 23 25 19 23 27 18 23 27 18 23 27 18 23 27 18 23 28 19 24 28 19 24 28 19 24 27 18 23 28 19 24 28 19 24 28 19 22 28 19 22 28 19 22 27 18 21 27 18 21 28 19 22 27 18 21 28 19 22 24 18 20 26 20 22 28 19 22 24 18 20 27 18 21 25 19 21 27 18 21 25 19 21 24 18 22 24 18 22 24 18 22 24 18 22 23 17 21 23 17 21 24 18 22 23 17 21 23 17 21 23 17 21 23 17 21 24 18 22 24 18 22 24 18 22 23 17 21 23 17 21 22 16 20 24 18 22 25 19 23 25 19 23 25 19 23 24 18 22 24 18 22 24 18 22 25 19 23 25 19 23 25 19 23 23 17 21 24 18 22 23 17 21 24 18 22 25 19 23 24 18 22 24 18 22 22 16 20 22 16 20 21 15 19 22 16 20 24 18 22 24 18 22 23 17 21 22 16 20 24 18 22 21 15 19 21 15 19 22 16 20 23 17 21 23 17 21 23 17 21 23 17 21 24 18 22 25 19 23 24 18 22 24 18 22 23 17 21 23 17 21 
25 19 23 27 21 25 25 19 23 26 20 24 29 18 24 28 19 24 26 20 24 26 20 24 26 20 24 26 20 24 28 19 24 29 18 24 26 20 24 25 19 23 25 19 23 25 19 23 28 19 24 27 18 23 27 18 23 27 18 23 26 17 22 27 18 23 27 18 23 27 18 23 27 18 23 27 18 23 27 18 23 26 17 22 27 18 23 27 18 23 27 18 23 28 19 24 28 19 24 28 19 24 28 19 24 28 19 24 28 19 24 28 19 24 28 19 24 26 17 22 28 19 24 28 19 24 28 19 24 28 19 24 25 19 21 25 19 23 23 17 21 24 18 22 24 18 22 24 18 22 25 19 23 26 20 22 24 18 22 24 18 22 24 18 22 25 19 23 25 19 23 25 19 23 24 18 22 23 17 21 24 18 22 24 18 22 24 18 22 25 19 23 25 19 23 25 19 23 26 20 24 24 18 22 25 19 23 25 19 23 24 18 22 23 17 21 22 16 20 23 17 21 25 19 23 24 18 22 24 18 22 24 18 22 22 16 20 21 15 19 21 15 19 21 15 19 21 15 19 22 16 20 22 16 20 21 15 19 21 15 19 24 18 22 21 15 19 22 16 18 23 17 19 23 17 21 23 17 19 23 17 19 24 18 20 23 17 19 24 18 20 25 19 21 24 18 20 23 17 19 
26 20 24 26 20 24 25 19 23 25 19 23 26 20 24 27 21 25 27 21 25 26 20 24 26 20 24 26 20 24 26 20 24 26 20 24 26 20 24 25 19 23 25 19 23 26 20 24 27 21 25 28 19 24 27 18 23 26 17 22 25 19 21 25 19 21 25 19 21 25 19 21 26 20 22 25 19 21 25 19 21 24 18 20 24 18 22 24 18 22 24 18 22 25 19 23 26 20 24 27 21 25 26 20 24 26 20 24 27 18 23 27 18 23 25 19 23 27 18 23 25 19 23 27 18 23 25 19 23 28 19 24 26 20 22 26 20 22 25 19 23 25 19 23 25 19 23 24 18 22 24 18 20 23 17 19 24 18 20 24 18 20 25 19 21 24 18 20 24 18 20 24 18 20 24 18 20 24 18 20 23 17 21 24 18 22 24 18 22 25 19 23 26 20 24 25 19 23 25 19 23 25 19 23 25 19 23 25 19 23 24 18 22 24 18 22 23 17 21 24 18 22 23 17 21 24 18 22 25 19 23 25 19 23 22 16 20 21 15 19 19 13 17 21 15 19 21 15 19 22 16 20 22 16 20 21 14 21 21 15 19 23 17 19 23 17 21 25 19 23 23 17 19 22 16 18 23 17 19 22 16 18 24 18 20 23 17 19 24 18 20 24 18 20 24 18 20 25 19 21 
24 18 22 24 18 22 24 18 22 24 18 22 26 20 22 27 21 23 28 22 24 26 20 22 25 19 21 25 19 21 25 19 21 24 18 20 24 18 20 25 19 21 24 18 20 24 18 20 25 19 21 26 20 22 26 20 22 25 19 21 25 19 21 26 20 22 26 20 22 26 20 22 26 20 22 25 19 21 25 19 21 25 19 21 25 19 21 25 19 21 24 18 20 25 19 21 26 20 22 26 20 22 27 21 23 27 21 23 25 19 23 26 20 24 26 20 24 29 23 27 27 21 25 27 21 25 26 20 24 26 20 24 25 19 23 25 19 23 25 19 21 26 20 22 26 20 22 25 19 21 25 19 23 24 18 22 25 19 23 24 18 22 24 18 22 24 18 22 24 18 22 24 18 22 23 17 21 23 17 21 24 18 20 23 17 19 23 17 19 24 18 20 24 18 20 25 19 21 25 19 21 26 20 22 24 18 20 24 18 22 25 19 23 24 18 22 25 19 23 26 20 24 23 17 21 24 18 20 23 17 21 23 17 21 23 17 21 22 16 20 20 14 18 20 14 18 20 14 18 19 13 17 20 14 16 22 16 20 22 16 20 24 18 22 24 18 22 24 18 22 24 18 20 23 17 19 23 17 19 24 18 20 25 19 21 24 18 20 25 19 21 24 18 20 23 17 19 25 19 21 
25 19 23 24 18 22 24 18 20 24 18 20 27 21 23 27 21 25 27 21 25 26 20 22 25 19 21 25 19 23 25 19 23 24 18 20 25 19 21 24 18 20 24 18 22 24 18 22 25 19 21 26 20 22 25 19 21 25 19 21 25 19 21 24 18 20 25 19 21 25 19 21 25 19 21 26 20 22 25 19 21 26 20 22 27 18 21 25 19 21 25 19 21 25 19 21 24 18 22 26 20 24 27 21 25 26 20 24 27 21 25 26 20 24 27 21 25 27 21 25 27 21 25 27 21 25 26 20 24 24 18 22 25 19 21 24 18 22 25 19 23 24 18 22 24 18 22 24 18 22 24 18 20 25 19 21 24 18 22 24 18 22 23 17 21 24 18 22 24 18 22 23 17 19 24 18 20 22 16 18 24 18 22 24 18 20 24 18 22 25 19 23 25 19 21 25 19 21 25 19 23 25 19 21 24 18 20 24 18 20 25 19 23 26 20 22 24 18 20 25 19 21 23 17 19 23 17 21 23 17 19 23 17 21 24 18 20 23 17 19 21 15 19 21 15 19 21 15 17 20 14 18 21 15 19 21 15 19 22 16 20 24 18 22 24 18 22 23 17 21 24 18 22 23 17 21 23 17 19 23 17 19 26 17 18 23 17 19 25 19 21 24 18 20 26 20 22 27 18 21 
25 19 21 26 20 24 24 18 22 25 19 21 26 20 24 25 19 23 26 20 24 25 19 23 24 18 22 24 18 22 24 18 22 25 19 23 25 19 21 25 19 23 23 17 21 25 19 23 23 17 21 23 17 19 24 18 20 23 17 19 24 18 20 24 18 20 25 19 21 25 19 21 25 19 21 26 20 22 26 20 22 26 20 22 25 19 21 26 20 22 28 19 22 25 19 23 25 19 23 25 19 23 26 20 24 24 18 22 24 18 22 24 18 22 23 17 21 27 21 25 27 21 25 27 21 25 26 20 24 24 18 22 25 19 23 25 19 23 25 19 23 25 19 23 24 18 20 24 18 22 24 18 20 25 19 23 24 18 22 24 18 22 24 18 20 23 17 19 23 17 19 24 18 20 23 17 19 23 17 17 24 18 20 24 18 22 25 19 21 24 18 20 24 18 22 24 18 22 24 18 20 25 19 23 24 18 22 23 17 21 24 18 20 26 20 24 26 20 24 26 20 24 23 17 21 23 17 19 22 16 20 23 17 19 25 19 23 24 18 22 24 18 20 23 17 19 23 17 21 23 17 19 22 16 20 22 16 20 23 17 21 24 18 22 24 18 22 22 16 20 22 16 20 21 15 19 24 15 18 22 16 18 23 17 19 23 17 19 24 18 20 26 17 20 26 20 22 25 19 19 
26 20 22 27 21 25 24 18 22 25 19 21 26 20 24 25 19 23 25 19 23 25 19 23 25 19 23 25 19 23 25 19 23 25 19 23 24 18 22 24 18 22 24 18 22 25 19 23 24 18 22 25 19 23 22 16 18 23 17 19 24 18 22 23 17 21 25 19 23 24 18 22 26 20 24 25 19 23 26 20 24 25 19 23 25 19 23 25 19 23 25 19 23 24 18 22 24 18 22 25 19 23 26 20 24 25 19 23 24 18 22 25 19 23 24 18 22 27 21 25 25 19 23 26 20 24 26 20 24 25 19 23 25 18 25 25 19 23 25 19 23 25 19 21 24 18 22 25 19 21 23 17 19 24 18 22 24 18 22 24 18 22 24 18 22 24 18 22 24 18 22 23 17 21 24 18 22 23 17 21 23 17 19 23 17 21 25 19 21 25 19 21 25 19 23 25 19 23 25 19 21 25 19 23 26 20 22 24 18 20 24 18 22 25 19 21 27 21 23 25 19 21 24 18 20 23 17 21 22 16 20 23 17 19 24 18 22 24 18 22 24 18 20 23 17 19 24 18 22 23 17 19 23 17 21 21 15 19 23 17 21 25 19 23 24 18 22 23 17 21 22 16 20 23 17 21 25 16 19 23 17 19 23 17 19 24 18 20 26 20 22 25 16 19 27 21 23 25 19 21 
28 22 24 26 20 24 25 18 25 24 18 20 23 17 21 25 19 21 25 19 21 26 20 24 26 20 24 25 19 21 26 20 22 24 18 22 24 18 22 23 17 21 23 17 21 23 17 21 25 19 23 24 18 22 24 18 22 23 17 21 23 17 21 23 17 21 24 18 22 24 18 22 26 20 24 24 18 22 26 20 24 26 20 24 27 18 23 26 20 24 26 20 24 26 20 24 24 18 22 25 19 23 23 17 21 25 19 23 24 18 20 25 19 21 25 19 21 25 19 23 26 20 24 25 19 23 27 21 25 26 20 24 26 20 24 26 20 22 26 20 24 26 20 24 25 19 21 25 19 21 24 18 22 24 18 20 23 17 21 23 17 21 24 18 22 23 17 21 24 18 22 23 17 21 23 17 21 22 16 20 23 17 21 23 17 19 24 18 22 24 18 22 24 18 20 24 18 20 24 18 22 25 19 21 25 19 23 24 18 22 24 18 20 25 19 23 24 18 22 24 18 22 24 18 22 25 19 21 23 17 21 24 18 20 24 18 22 25 19 23 24 18 20 24 18 20 25 19 23 24 18 20 23 17 21 22 16 20 22 16 20 22 16 20 23 17 21 23 17 21 23 17 21 21 15 19 23 17 21 25 19 21 26 17 22 24 18 20 25 19 23 27 21 25 27 21 25 28 19 22 
27 21 25 27 21 25 25 19 23 25 19 21 24 18 22 24 18 20 25 19 21 25 19 23 26 20 24 28 22 24 26 20 22 24 18 22 25 19 23 24 18 22 23 17 21 24 18 22 24 18 22 24 18 22 24 17 24 23 16 23 24 18 22 24 18 22 25 19 23 23 17 21 26 20 24 24 18 22 26 20 24 25 19 23 24 18 22 26 20 24 25 19 23 26 20 24 25 19 23 28 19 24 24 18 22 25 19 23 24 18 22 25 19 23 25 19 23 26 20 24 25 19 23 25 19 23 26 20 24 26 20 24 30 21 24 26 20 22 26 20 24 25 19 23 25 19 23 25 19 23 25 19 23 24 18 20 25 19 23 25 19 23 25 19 23 24 18 22 25 19 23 25 19 23 23 17 21 24 18 20 23 17 21 24 18 20 24 18 22 24 18 22 24 18 20 24 18 20 23 17 21 25 19 21 24 18 22 24 18 22 24 18 20 24 18 22 24 18 22 23 17 21 24 18 22 24 18 20 24 18 20 24 18 22 24 18 20 25 19 21 24 18 22 24 18 22 24 18 20 24 18 22 24 18 22 23 17 21 23 17 21 22 16 20 22 16 20 24 18 22 23 17 21 22 16 20 24 18 22 23 17 21 26 17 22 25 19 23 25 19 23 25 19 23 26 20 24 28 19 24 
26 20 24 26 19 26 26 20 20 25 19 21 24 18 22 24 18 22 25 19 23 25 19 23 25 19 23 26 20 24 25 19 23 24 18 22 22 16 20 23 17 21 23 17 21 25 19 23 25 19 23 24 18 22 25 19 23 24 18 22 24 18 22 24 18 22 24 18 22 23 17 21 25 19 23 24 18 22 26 20 24 26 20 24 25 19 23 25 19 23 26 20 24 25 19 23 24 18 22 27 18 23 25 19 23 25 19 23 25 19 23 25 19 23 24 18 22 26 20 24 26 20 24 25 19 23 26 20 24 25 19 23 28 19 22 28 19 24 25 19 23 25 19 21 25 19 23 24 18 22 24 18 22 24 18 22 24 18 22 24 18 22 25 19 23 25 19 23 25 19 23 24 18 22 23 17 19 24 18 18 24 18 20 25 19 23 25 19 21 25 19 21 25 19 23 25 19 23 24 18 20 24 18 22 24 18 20 25 19 21 24 18 22 24 18 20 24 18 20 23 17 19 24 18 20 23 17 21 24 18 20 23 17 21 25 19 21 24 18 20 24 18 22 25 19 23 24 18 20 25 19 23 22 16 20 23 17 21 23 17 21 23 17 21 22 16 20 24 18 22 23 17 21 23 17 21 25 16 21 24 18 22 24 18 18 24 18 22 24 18 20 27 18 23 26 20 24 25 19 23 
27 21 25 26 20 24 26 19 26 26 20 22 26 20 24 25 19 23 25 19 23 25 19 23 25 19 23 26 20 24 25 19 23 25 19 23 23 17 21 24 18 22 24 18 22 25 19 21 25 19 23 25 19 23 24 18 22 25 19 23 25 19 23 24 18 22 24 18 22 23 17 21 25 19 23 24 18 22 26 20 24 27 21 25 26 20 24 25 19 23 25 19 23 25 19 23 25 19 23 24 18 22 26 20 24 25 16 21 25 19 21 26 20 22 25 19 21 27 21 23 27 21 25 26 20 24 26 20 24 26 20 24 27 18 23 28 18 26 25 19 21 24 18 22 24 18 20 23 17 21 24 18 22 26 20 24 25 19 23 24 18 22 25 19 23 24 18 22 24 18 22 25 19 23 25 19 23 26 20 24 27 21 23 27 21 25 25 19 21 25 19 21 26 20 24 26 20 24 25 19 21 25 19 23 25 19 23 23 17 21 24 18 20 24 18 22 23 17 21 24 18 22 25 19 23 23 17 19 26 20 22 25 19 23 25 19 21 24 18 20 24 18 22 24 18 22 24 18 20 25 19 23 25 19 23 23 17 21 24 18 22 24 18 22 24 18 22 24 18 22 24 18 22 25 19 23 26 17 20 25 19 23 24 18 20 25 19 23 24 18 22 26 17 20 24 18 22 24 18 20 
26 20 22 28 22 26 26 20 24 27 21 23 25 19 21 25 19 23 25 19 23 26 20 22 25 19 21 25 19 23 25 19 23 24 18 20 25 19 23 24 18 20 23 17 19 24 18 20 24 18 20 25 19 23 24 17 24 24 18 22 25 19 23 24 18 22 24 18 22 23 17 21 24 18 22 25 19 23 27 21 25 27 21 25 26 20 24 26 20 24 26 20 24 26 20 24 25 19 23 27 18 23 25 19 23 25 19 23 24 18 22 25 19 23 26 20 24 27 21 25 27 21 25 27 21 25 25 19 23 24 18 22 28 17 21 26 17 20 24 18 20 24 18 22 24 18 22 23 17 21 25 19 23 24 18 22 25 19 23 24 18 22 24 18 20 24 18 20 24 18 20 26 20 22 25 19 21 27 21 23 26 20 24 26 20 22 25 19 23 26 20 24 27 21 23 26 20 22 26 20 24 25 19 21 24 18 20 24 18 20 24 18 22 24 18 20 23 17 19 23 17 19 24 18 20 23 17 21 26 20 24 26 20 22 24 18 22 25 19 23 24 18 20 24 18 20 25 19 23 25 19 21 25 19 23 24 18 22 23 17 21 24 18 22 23 17 21 24 18 22 25 19 23 26 20 24 24 18 20 25 19 23 26 17 20 25 19 21 24 18 22 24 18 20 25 19 23 26 17 20 
27 21 25 27 21 25 26 20 24 27 21 25 25 19 23 26 20 24 26 20 24 26 20 24 26 20 24 25 19 23 25 19 23 24 18 22 25 19 23 25 19 23 26 20 24 25 19 23 25 19 23 24 18 22 25 19 23 24 18 22 24 18 22 24 18 22 25 19 23 24 18 22 24 18 22 24 18 22 26 20 24 26 20 24 26 20 24 26 20 24 26 20 24 25 19 23 24 18 22 25 19 23 25 19 21 24 18 22 25 19 23 25 19 21 26 20 24 26 20 24 27 21 25 26 20 24 25 19 21 23 17 21 24 18 22 24 18 20 24 18 22 24 18 20 24 18 22 24 18 20 24 18 22 25 19 23 23 17 21 24 18 22 22 16 18 24 18 22 24 18 22 24 18 22 26 20 24 27 21 23 27 21 23 26 20 22 27 21 25 27 21 25 27 21 25 27 21 25 26 20 24 26 20 24 25 19 21 25 19 21 24 18 22 25 19 23 25 19 23 24 18 22 25 19 21 25 19 21 26 20 24 26 20 24 25 19 23 25 19 23 25 19 23 25 19 23 25 19 23 26 20 24 25 19 23 25 19 21 25 19 23 25 19 21 24 18 22 24 18 22 24 18 20 25 19 23 23 17 21 24 18 22 24 18 22 24 18 22 23 17 21 24 18 22 24 18 22 24 18 22 
27 21 25 26 20 24 26 20 24 27 21 25 26 20 24 26 20 24 26 20 24 26 20 24 26 20 24 25 19 23 25 19 23 24 18 22 24 19 23 24 18 22 25 19 23 27 18 23 26 20 24 24 18 22 24 18 22 23 17 21 24 18 22 25 19 23 24 18 22 25 19 23 25 19 23 24 18 22 26 20 24 26 20 24 26 20 24 26 20 24 25 19 23 25 19 23 25 19 23 24 18 22 25 19 21 24 18 22 24 18 22 25 19 21 26 20 24 27 21 25 27 21 25 26 20 24 25 19 21 23 17 21 24 18 18 24 18 20 24 18 20 24 18 22 23 17 21 23 17 21 23 17 21 23 17 21 24 18 22 24 18 22 23 17 21 24 18 22 25 19 23 26 20 24 25 19 23 26 20 24 27 21 25 26 20 24 27 21 23 27 21 23 27 21 23 26 20 22 26 20 22 25 19 21 25 19 21 26 20 22 24 18 22 25 19 23 24 18 22 25 19 23 25 19 21 25 19 21 25 19 23 26 20 24 26 20 24 26 20 24 24 18 22 25 19 23 26 20 24 25 19 23 25 19 21 25 19 23 25 19 21 24 18 22 24 18 20 25 19 21 25 19 23 24 18 20 23 17 21 24 18 20 24 18 20 24 18 22 23 17 21 25 19 21 25 19 21 24 18 22 
25 19 23 24 18 22 27 21 23 26 20 22 25 19 23 25 19 23 25 19 23 25 19 23 25 19 23 25 19 23 25 19 23 24 18 22 26 20 24 25 19 23 25 19 23 25 19 23 25 19 23 25 19 23 25 19 23 24 18 22 24 18 22 26 20 24 26 20 24 25 19 23 26 20 24 24 18 22 24 18 22 25 19 23 25 19 23 24 18 22 25 19 23 24 18 22 25 19 23 24 18 22 24 18 20 24 18 22 25 19 23 24 18 22 24 18 22 26 20 24 26 20 24 25 19 23 24 18 22 24 18 22 24 18 22 25 19 21 25 19 23 25 19 21 24 18 22 24 18 20 24 18 22 24 18 22 24 18 22 23 17 21 25 19 23 24 18 22 24 18 22 26 20 24 26 20 24 26 20 24 25 19 23 27 21 25 26 20 22 26 20 22 27 21 23 27 21 23 26 20 22 26 20 22 25 19 21 27 21 23 25 19 23 26 20 24 26 20 24 26 20 24 25 19 21 26 20 22 25 19 23 25 19 23 25 19 23 26 20 24 24 18 22 24 18 22 25 19 23 25 19 23 26 20 24 26 20 22 23 17 21 26 20 22 24 18 22 24 18 22 24 18 20 23 17 21 23 17 19 23 17 21 24 18 22 24 18 20 22 16 18 23 17 21 25 19 23 24 18 20 
27 21 25 26 20 24 26 20 24 24 18 22 25 19 23 25 19 23 25 19 23 25 19 23 25 19 23 25 19 23 24 18 22 24 18 22 25 19 23 25 19 23 24 18 22 25 19 23 25 19 23 26 20 24 25 19 23 24 18 22 25 19 23 25 19 23 25 19 23 25 19 23 26 20 24 25 19 23 25 19 23 25 19 23 23 17 21 24 18 22 24 18 22 25 19 23 24 18 22 25 19 23 24 18 20 23 17 21 24 18 22 24 18 22 24 18 22 24 18 22 25 19 23 24 18 22 25 19 23 24 18 22 24 18 22 25 19 23 25 19 21 26 20 22 25 19 21 25 19 21 25 19 23 25 19 23 25 19 21 25 19 23 25 19 23 24 18 22 25 19 23 26 20 22 25 19 23 24 18 22 25 19 21 26 20 22 25 19 23 25 19 23 26 20 24 26 20 24 26 20 24 26 20 24 25 19 21 26 20 22 26 20 24 24 18 22 25 19 23 25 19 23 25 19 21 25 19 21 26 20 24 25 19 23 24 18 22 25 19 23 24 18 22 24 18 22 25 19 23 24 18 22 26 20 22 24 18 22 26 20 22 24 18 22 24 18 20 24 18 22 24 18 20 23 17 21 24 18 22 24 18 22 24 18 22 24 18 22 22 16 20 24 18 22 24 18 22 24 18 22 
25 19 23 25 19 23 25 19 23 24 18 22 24 18 22 25 19 23 24 18 22 24 18 22 25 19 23 25 19 23 24 18 22 25 19 23 24 18 22 24 18 22 24 18 22 25 19 23 27 18 23 25 19 23 24 18 22 23 18 22 23 17 21 24 18 22 25 19 23 26 20 24 25 19 23 25 19 23 24 18 22 23 17 21 22 16 20 23 17 21 24 18 22 24 18 22 24 18 22 25 19 23 24 18 20 23 17 21 24 18 22 23 17 21 23 17 21 23 17 21 23 17 21 23 17 21 24 18 22 24 18 22 25 19 21 26 20 22 26 20 24 25 19 23 25 19 23 24 18 22 24 18 20 25 19 21 25 19 21 25 19 23 26 20 24 27 21 25 27 21 25 27 21 23 26 20 24 24 18 22 24 18 20 25 19 21 24 18 22 25 19 23 26 20 24 25 19 23 25 19 23 25 19 23 25 19 23 24 18 22 25 19 21 24 18 20 25 19 21 24 18 20 24 18 22 25 19 23 24 18 22 25 19 23 25 19 23 24 18 22 24 18 22 24 18 22 24 18 22 24 18 22 24 18 22 25 19 21 24 18 22 26 20 22 25 19 23 24 18 20 23 17 21 25 19 21 24 18 22 24 18 22 25 19 23 24 18 22 24 18 22 24 18 22 23 17 21 24 18 22 
26 20 24 27 21 25 24 18 20 24 18 20 25 19 23 24 18 22 24 18 22 25 19 23 24 18 22 25 19 23 25 19 23 24 18 22 24 19 23 25 19 23 25 19 23 25 19 23 25 19 23 25 19 23 24 18 22 26 17 22 25 19 23 25 19 23 25 19 23 25 19 23 24 18 22 25 19 23 24 18 22 23 17 21 22 16 20 23 17 21 23 17 21 24 18 22 25 19 23 25 19 23 24 18 20 24 18 22 24 18 22 24 18 22 23 17 21 22 16 20 21 15 19 24 18 22 25 19 23 25 19 23 26 20 24 25 19 23 26 20 24 26 20 22 24 18 22 25 19 21 24 18 22 25 19 21 24 18 22 25 19 23 27 21 25 26 20 24 27 21 25 27 21 25 26 20 24 25 19 23 25 19 23 24 18 22 25 19 21 25 19 21 25 19 21 25 19 21 25 19 21 25 19 21 25 19 23 24 18 22 25 19 21 25 19 21 24 18 20 25 19 21 24 18 22 24 18 22 24 18 22 24 18 22 25 19 23 25 19 23 25 19 23 24 18 22 24 18 22 24 18 22 24 18 22 25 19 21 25 19 23 24 18 22 24 18 20 23 17 21 25 19 21 25 19 23 25 19 21 25 19 23 25 19 23 26 20 22 24 18 20 24 18 22 23 17 21 23 17 19 
26 20 24 27 21 25 25 19 23 24 18 22 24 18 22 24 18 22 23 17 21 24 18 22 24 18 22 25 19 23 24 18 22 25 19 23 24 18 22 24 18 22 25 19 23 24 18 22 24 18 22 24 18 22 23 17 21 23 17 21 24 18 22 24 18 22 24 18 22 25 19 23 24 18 22 24 18 22 24 18 22 24 18 22 24 18 22 23 17 21 24 18 22 24 18 22 26 20 24 23 17 21 23 17 19 22 16 20 23 17 21 24 18 22 23 17 19 23 17 21 23 17 21 24 18 20 24 18 22 25 19 23 25 19 23 25 19 23 25 19 21 25 19 23 24 18 20 24 18 22 24 18 20 24 18 22 26 20 24 27 21 25 27 21 25 26 20 24 26 20 24 27 21 25 25 19 23 24 18 22 25 19 23 25 19 23 24 18 20 25 19 21 24 18 20 24 18 20 24 18 20 24 18 20 25 19 23 24 18 22 24 18 20 24 18 20 23 17 19 24 18 20 24 18 22 24 18 22 23 17 21 24 18 22 24 18 22 24 18 22 25 19 23 24 18 22 24 18 22 24 18 22 24 18 20 25 19 23 24 18 20 25 19 21 25 19 23 24 18 20 23 17 21 25 19 21 24 18 22 26 20 22 25 19 21 25 19 23 23 17 21 22 16 18 23 17 19 23 17 21 
27 21 25 27 21 25 25 19 23 24 18 22 25 19 23 24 18 22 24 18 22 25 19 23 24 18 22 25 19 23 24 18 22 25 19 23 25 19 23 25 19 23 25 19 23 25 19 23 25 19 23 25 19 23 24 18 22 23 18 22 24 18 22 26 20 24 23 17 21 25 19 23 24 18 22 24 18 22 24 18 22 24 18 22 24 18 22 22 16 20 24 18 22 25 19 23 26 20 24 24 18 22 23 17 19 23 17 21 23 17 21 24 18 22 24 18 20 23 17 21 24 18 22 25 19 21 24 18 22 25 19 23 25 19 23 25 19 23 24 18 22 25 19 23 24 18 22 24 18 20 24 18 20 24 18 20 25 19 23 25 19 23 26 20 22 26 20 24 27 21 25 26 20 24 26 20 24 26 20 22 26 20 22 24 18 20 26 20 24 25 19 23 24 18 22 25 19 23 26 20 24 24 18 22 24 18 22 24 18 22 24 18 20 23 17 19 24 18 20 23 17 19 24 18 22 23 17 21 24 18 22 25 19 23 25 19 23 25 19 23 26 20 24 25 19 23 25 19 23 25 19 23 25 19 23 24 18 20 24 18 22 24 18 22 24 18 20 24 18 22 24 18 20 25 19 23 26 20 24 25 19 23 24 18 22 24 18 22 23 17 21 23 17 21 23 17 21 24 18 22 
25 19 23 26 20 24 27 21 25 25 19 23 26 20 24 26 20 24 25 19 23 25 19 23 24 18 22 24 18 22 25 19 23 26 20 24 25 19 23 25 19 23 25 19 23 25 19 23 25 19 23 25 19 23 25 19 23 25 19 23 26 20 24 26 20 24 24 18 22 24 18 22 23 17 21 23 17 21 25 19 23 24 18 22 22 16 20 23 17 21 23 17 21 24 18 22 25 19 23 24 18 22 22 16 20 23 17 21 24 18 22 26 20 22 25 19 21 23 17 21 24 18 22 26 20 22 25 19 21 25 19 23 24 18 18 24 18 20 24 18 22 24 18 22 24 18 22 23 17 21 24 18 22 24 18 22 24 18 22 25 19 21 26 20 22 26 20 24 26 20 24 26 20 22 26 20 22 25 19 23 26 20 24 24 18 22 25 19 21 23 17 21 25 19 23 24 18 22 25 19 23 24 18 20 23 17 21 23 17 21 24 18 22 23 17 21 23 17 21 24 18 22 24 18 22 25 19 23 25 19 23 26 20 24 25 19 23 25 19 23 26 20 24 25 19 23 25 19 23 25 19 23 25 19 23 25 19 23 24 18 20 24 18 22 24 18 22 24 18 20 23 17 21 24 18 22 24 18 22 25 19 23 24 18 22 23 17 21 24 18 22 24 18 22 24 18 22 24 18 22 
26 20 24 26 20 24 26 20 24 26 20 24 25 19 23 24 18 22 25 19 23 25 19 23 25 19 23 24 18 22 25 19 23 25 19 23 25 19 23 25 19 23 25 19 23 25 19 23 25 19 23 26 20 24 25 19 23 25 19 23 25 19 23 26 20 24 24 18 22 25 19 23 24 18 22 24 18 22 24 18 22 23 17 21 24 18 22 24 18 20 24 18 20 24 18 22 25 19 23 24 18 20 23 17 19 23 17 21 24 18 22 24 18 22 24 18 22 25 19 23 24 18 22 24 18 22 23 17 21 26 20 24 24 18 22 24 18 22 24 18 22 24 18 22 25 19 23 24 18 22 24 18 22 24 18 22 24 18 22 25 19 23 25 19 23 24 18 22 25 19 23 26 20 24 25 19 23 25 19 23 26 20 24 25 19 23 26 20 24 25 19 23 26 20 24 25 19 23 25 19 23 24 18 22 23 17 21 23 17 21 23 17 21 24 18 22 23 17 21 24 18 22 24 18 22 24 18 22 25 19 23 25 19 23 25 19 23 24 18 22 25 19 23 25 19 23 24 18 22 24 18 22 25 19 23 24 18 22 25 19 21 25 19 23 25 19 23 24 18 20 24 18 22 24 18 22 23 17 21 24 18 22 24 18 22 23 17 21 24 18 22 24 18 22 24 18 22 24 18 22 
25 19 23 24 18 22 26 20 24 26 20 24 24 18 22 24 18 22 25 19 23 25 19 23 25 19 23 24 18 22 24 18 22 23 17 21 24 18 22 24 18 22 25 19 23 24 18 22 25 19 23 26 20 24 26 20 24 26 20 24 26 20 24 26 20 24 25 19 23 26 20 24 25 19 23 24 18 22 23 17 21 23 17 21 23 17 21 25 19 23 26 20 24 24 18 22 24 18 22 25 19 23 24 18 22 24 18 22 24 18 22 24 18 22 24 18 22 25 19 23 24 18 22 24 18 22 25 19 23 25 19 23 24 18 22 24 18 22 23 17 21 25 19 23 25 19 23 25 19 23 25 19 21 25 19 21 25 19 23 23 17 21 23 17 21 25 19 23 24 18 22 26 20 24 25 19 23 26 20 24 26 20 24 25 19 23 25 19 23 25 19 23 26 20 24 25 19 23 25 19 23 24 18 22 25 19 23 24 18 22 24 18 22 25 19 23 23 17 21 22 16 20 23 17 21 23 17 21 25 19 23 25 19 23 25 19 23 23 17 21 23 17 21 23 17 21 23 17 21 25 19 23 25 19 23 25 19 23 24 18 20 24 18 22 25 19 23 25 19 21 24 18 22 24 18 22 23 17 21 23 17 21 23 17 21 23 17 21 23 17 21 23 17 21 24 18 22 24 18 22 
25 19 23 25 19 23 25 19 23 25 19 23 23 17 21 23 17 21 23 17 21 24 18 22 25 19 23 25 19 23 24 18 22 24 18 22 25 19 23 25 19 23 25 19 23 25 19 23 24 18 22 24 18 22 24 18 22 24 18 22 25 19 23 25 19 21 26 20 22 26 20 24 26 20 24 25 19 21 24 18 20 24 18 22 24 18 22 25 19 23 25 19 23 25 19 23 24 18 22 23 17 21 24 18 22 24 18 22 25 19 23 23 17 21 22 16 20 25 19 23 25 19 23 23 17 21 24 18 22 25 19 23 24 18 22 23 17 21 23 17 19 23 17 21 24 18 22 24 18 22 25 19 23 24 18 20 25 19 23 26 20 24 24 18 22 25 19 23 24 18 22 24 18 22 25 19 23 27 21 25 26 20 22 25 19 23 26 20 24 25 19 23 25 19 23 25 19 21 23 17 21 24 18 22 23 17 21 23 17 21 23 17 21 22 16 20 23 17 21 23 17 21 23 17 21 23 17 21 24 18 22 24 18 22 24 18 22 23 17 21 24 18 22 24 18 22 23 17 21 22 16 20 23 17 21 23 17 21 24 18 20 23 17 21 24 18 22 24 18 20 24 18 22 24 18 22 25 19 23 23 17 21 24 18 22 24 18 22 23 17 21 23 17 21 23 17 21 23 17 21 
25 19 23 25 19 23 25 19 23 24 18 22 23 17 21 23 17 21 23 17 21 24 18 22 24 18 22 24 18 22 24 18 22 25 19 23 25 19 23 25 19 23 26 20 24 25 19 23 24 18 22 23 17 21 24 18 22 24 18 22 25 19 21 26 20 24 26 20 24 26 20 22 26 20 22 26 20 24 24 18 22 24 18 20 24 18 22 24 18 22 25 19 23 25 19 23 25 19 23 24 18 22 24 18 22 24 18 22 24 18 22 24 18 22 24 18 22 25 19 23 25 19 23 22 16 20 24 18 22 25 19 23 23 17 21 22 16 18 23 17 19 24 18 20 24 18 22 24 17 24 25 19 23 24 18 22 26 20 24 26 20 22 26 20 22 24 18 22 23 17 21 25 19 21 25 19 21 26 20 24 26 20 22 26 20 24 25 19 23 25 19 23 25 19 23 24 18 20 24 18 22 23 17 21 25 16 21 23 17 21 22 16 20 22 16 20 24 18 22 23 17 21 23 17 21 24 18 22 24 18 22 24 18 22 25 19 23 24 18 22 25 19 23 24 18 22 23 17 21 23 17 21 23 17 21 23 17 21 23 17 19 23 17 21 24 18 22 24 18 20 24 18 22 25 19 23 24 18 22 23 17 21 23 17 21 23 17 21 22 16 20 23 17 21 22 16 20 22 16 20 
24 18 22 24 18 22 25 19 23 24 18 22 23 17 21 23 17 21 24 18 22 24 18 22 24 18 22 24 18 22 25 19 23 24 18 22 23 17 21 25 19 23 25 19 23 23 17 21 24 18 22 25 19 23 23 17 21 25 19 23 25 19 23 25 19 23 26 20 24 26 20 24 25 19 23 26 20 24 24 18 22 25 19 23 24 18 22 26 20 24 26 20 24 25 19 23 23 17 21 23 17 21 23 17 21 24 18 22 23 17 21 23 17 21 24 18 22 24 18 22 25 19 23 22 16 20 25 19 23 24 18 22 24 18 20 23 17 19 23 17 19 23 17 21 24 18 22 23 17 21 25 19 23 25 19 23 27 21 25 26 20 22 26 20 22 25 19 23 23 17 21 25 19 21 24 18 20 25 19 23 26 20 24 25 19 23 25 19 23 24 18 22 24 18 22 24 18 22 24 18 22 25 19 23 23 17 21 24 18 22 24 18 22 24 18 22 25 19 23 24 18 22 24 18 22 24 18 22 24 18 22 24 18 22 25 19 23 25 19 23 25 19 23 24 18 22 23 17 21 23 17 21 23 17 21 23 17 21 22 16 18 22 16 20 23 17 21 24 18 20 23 17 21 23 17 21 23 17 21 23 17 21 24 18 22 24 18 22 25 19 23 24 18 22 24 18 22 24 18 22 
25 19 23 24 18 22 25 19 23 24 18 22 24 18 22 23 17 21 24 18 22 25 19 23 24 18 22 23 17 21 24 18 22 24 18 22 24 18 22 24 18 22 25 19 23 23 17 21 24 18 22 25 19 23 24 18 22 24 18 22 25 19 23 24 18 20 25 19 21 25 19 23 24 18 22 25 19 21 25 19 21 24 18 22 25 19 23 24 18 22 25 19 23 25 19 23 24 18 22 23 17 21 22 16 20 23 17 21 24 18 22 22 16 20 24 18 22 24 18 22 25 19 23 24 18 22 24 18 22 24 18 22 24 18 22 23 17 21 23 17 21 23 17 21 24 18 22 24 18 22 24 18 22 24 17 24 26 20 24 25 19 21 26 20 22 24 18 22 24 18 22 24 18 20 24 18 20 26 20 24 26 20 24 25 19 23 25 19 23 24 18 22 24 18 22 24 18 22 24 18 22 24 18 22 25 19 23 23 17 21 25 19 23 24 18 22 24 18 22 25 19 23 23 17 21 24 18 22 23 17 21 24 18 22 25 19 23 24 18 22 24 18 22 24 18 22 23 17 21 22 16 20 22 16 20 23 17 21 24 18 20 24 18 22 23 17 21 24 18 20 23 17 21 22 16 20 23 17 21 23 17 21 24 18 22 24 18 22 25 19 23 24 18 22 24 18 22 25 19 23 
26 20 24 25 19 23 24 18 22 23 17 21 23 17 21 23 17 21 23 17 21 24 18 22 24 18 22 24 18 22 24 18 22 25 19 23 25 19 23 26 20 24 26 20 24 25 19 23 24 18 22 23 17 21 23 17 21 24 18 22 24 18 22 24 18 22 25 19 23 26 20 24 26 20 24 26 20 24 25 19 23 25 19 23 25 19 23 25 19 21 23 17 19 24 18 22 25 19 23 26 20 22 25 19 21 25 19 23 25 19 23 24 18 20 26 20 22 24 18 22 24 18 22 23 17 19 23 17 19 24 18 22 23 17 21 22 16 20 23 17 21 25 19 23 26 20 22 26 20 22 27 21 23 25 19 23 25 19 23 25 19 23 22 16 20 24 18 22 24 18 22 23 17 21 24 18 22 24 18 22 24 18 22 23 17 21 24 18 20 23 17 21 23 17 21 23 17 21 24 18 22 24 18 20 23 18 22 24 19 23 24 19 23 24 19 23 23 17 21 25 19 23 24 18 22 24 18 22 23 17 21 22 16 20 25 19 23 25 19 23 25 19 23 25 19 23 23 17 21 23 17 21 22 16 20 24 18 22 23 17 19 24 18 22 24 18 22 25 19 21 23 17 21 24 18 22 23 17 21 23 17 21 23 17 21 24 18 22 23 17 21 24 18 22 25 19 23 24 18 22 
26 20 24 26 20 24 24 18 22 24 18 22 23 17 21 23 17 21 24 18 22 24 18 22 25 19 23 25 19 23 23 17 21 25 19 23 25 19 23 26 20 24 26 20 24 24 18 22 24 18 22 23 17 21 25 19 23 24 18 22 24 18 22 24 18 22 25 19 23 25 19 23 25 19 23 25 19 23 25 19 23 24 18 22 24 18 22 24 18 20 24 18 20 24 18 22 27 21 25 26 20 22 26 20 22 25 19 21 25 19 23 26 20 22 24 18 20 26 20 24 24 18 22 23 17 19 24 18 20 23 17 21 23 17 19 23 17 21 24 18 22 23 17 21 26 20 24 25 19 23 26 20 24 26 20 22 24 18 22 25 19 21 24 18 20 24 18 20 25 19 21 25 19 21 24 18 22 23 17 21 25 19 23 24 18 22 23 17 21 23 17 21 23 17 21 23 17 21 24 18 22 24 18 22 25 19 23 25 19 23 24 18 22 25 19 23 24 18 22 23 17 21 23 17 21 23 17 21 23 17 21 24 18 22 23 17 21 24 18 22 24 18 22 23 17 21 23 17 21 22 16 20 22 16 20 23 17 21 23 17 21 23 17 21 23 17 21 24 18 22 23 17 21 25 19 23 23 17 21 22 16 20 24 18 22 23 17 21 24 18 22 23 17 21 25 19 23 24 18 22 
26 20 24 25 19 23 24 18 22 23 17 21 23 17 21 24 18 22 26 20 24 24 18 22 26 20 24 26 20 24 25 19 23 25 19 23 24 18 22 24 18 22 24 18 22 24 18 22 25 19 23 25 19 23 25 19 23 25 19 23 24 18 22 23 17 21 24 18 22 23 17 21 23 17 21 24 18 22 25 19 23 26 20 24 26 20 24 26 20 22 26 20 22 27 21 25 26 20 22 26 20 22 25 19 21 26 20 22 25 19 23 25 19 21 25 19 21 24 18 22 26 20 24 23 17 19 25 19 21 25 19 23 23 17 19 22 16 20 23 17 21 22 16 20 23 17 21 24 18 22 24 18 22 24 18 20 24 18 22 24 18 22 24 18 20 24 18 22 25 19 21 25 19 23 25 19 21 25 19 23 26 20 24 24 18 22 24 18 22 24 18 22 23 17 21 24 18 22 24 18 22 23 17 21 23 17 21 24 18 22 23 17 21 23 17 21 22 16 20 22 16 20 22 16 20 22 16 20 23 17 21 24 18 22 23 17 21 23 17 21 23 17 21 23 17 21 21 15 19 23 17 21 22 16 20 24 18 22 23 17 21 24 18 22 24 18 22 24 18 22 24 18 22 24 18 22 23 17 21 23 17 21 23 17 21 23 17 21 24 18 22 23 17 21 25 19 23 24 18 22 
25 19 23 25 19 23 25 19 23 24 18 22 23 17 21 24 18 22 24 18 22 25 19 23 25 19 23 26 20 24 25 19 23 25 19 23 24 18 22 24 18 22 25 19 23 24 18 22 24 18 22 25 19 23 25 19 23 25 19 23 24 18 22 24 18 22 24 18 22 23 17 21 24 18 22 24 18 22 24 18 22 24 18 22 25 19 23 25 19 21 26 20 22 26 20 24 26 20 22 25 19 21 25 19 21 26 20 22 26 20 22 23 17 21 25 19 23 24 18 20 25 19 21 24 18 22 24 18 22 25 19 21 23 17 19 23 17 21 23 17 21 23 17 21 23 17 21 23 17 21 25 19 23 25 19 21 24 18 22 25 19 23 24 18 22 25 19 23 25 19 21 25 19 21 26 20 24 25 19 23 26 20 24 25 19 23 25 19 23 24 18 22 25 19 23 23 17 21 23 17 21 23 17 21 24 18 22 23 17 21 23 17 21 22 16 20 23 17 21 23 17 21 23 17 21 22 16 20 23 17 21 23 17 21 23 17 21 23 17 21 22 16 20 22 16 20 22 16 20 22 16 20 21 15 19 23 17 21 23 17 21 24 18 22 24 18 22 23 17 21 23 17 21 23 17 21 24 18 22 23 17 21 24 18 22 24 18 22 24 18 22 25 19 23 25 19 23 25 19 23 
23 17 21 24 18 22 26 20 24 24 18 22 25 19 23 24 18 22 25 19 23 25 19 23 25 19 23 24 18 22 25 19 23 24 18 22 23 17 21 23 17 21 23 17 21 21 15 19 23 17 21 24 18 22 26 20 24 25 19 23 25 19 23 24 18 22 25 19 23 25 19 23 24 18 22 24 18 22 24 18 22 23 17 21 23 17 21 23 17 19 23 17 21 24 18 22 24 18 20 25 19 21 24 18 22 24 18 20 24 18 20 24 18 22 24 18 22 26 20 22 25 19 21 24 18 22 24 18 22 27 21 23 25 19 21 24 18 22 24 18 22 24 18 22 24 18 22 24 18 22 25 19 23 25 19 21 26 20 24 25 19 21 25 19 23 24 18 22 24 18 22 24 18 20 23 17 21 24 18 22 25 19 23 25 19 23 25 19 23 24 18 22 24 18 22 23 17 21 23 17 21 23 17 21 23 17 21 23 17 21 23 17 21 22 16 20 23 17 21 23 17 21 23 17 21 23 17 21 25 19 23 23 17 21 22 16 20 22 16 20 21 15 19 22 16 20 21 15 19 22 16 20 22 16 20 23 17 21 24 18 22 23 17 21 23 17 21 23 17 21 23 17 21 23 17 21 22 16 20 21 15 19 23 17 21 23 17 21 24 18 22 24 18 22 25 19 23 24 18 22 
24 18 22 24 18 22 25 19 23 26 20 24 24 18 22 25 19 23 24 18 22 25 19 23 24 18 22 25 19 23 25 19 23 24 18 22 25 19 23 24 18 22 24 18 22 23 17 21 24 18 22 25 19 23 25 19 23 24 18 22 24 18 22 24 18 22 24 18 22 24 18 22 23 17 21 23 17 21 25 19 23 24 18 22 23 17 21 23 17 21 23 17 21 24 18 22 25 19 21 25 19 21 25 19 23 24 18 20 24 18 20 24 18 22 23 17 21 25 19 21 26 20 22 24 18 22 25 19 23 25 19 21 24 18 20 24 18 22 23 17 21 25 19 23 24 18 22 24 18 22 24 18 22 24 18 20 25 19 21 25 19 23 26 20 22 24 18 22 23 17 21 24 17 24 23 17 19 22 16 20 25 19 23 24 18 22 25 19 23 23 17 21 24 18 22 23 17 21 24 18 22 23 17 21 24 18 22 22 16 20 23 17 21 23 17 21 24 18 22 23 17 21 25 19 23 23 17 21 22 16 20 23 17 21 22 16 20 21 15 19 21 15 19 21 15 19 21 15 19 22 16 20 22 16 20 22 16 20 23 17 21 23 17 21 23 17 21 23 17 21 23 17 21 25 19 23 24 18 22 24 18 22 23 17 21 22 16 20 22 16 20 23 17 21 24 18 22 26 20 24 
24 18 22 24 18 22 24 18 22 24 18 22 24 18 22 23 17 21 24 18 22 24 18 22 25 19 23 23 17 21 24 18 22 24 18 22 24 18 22 24 18 22 24 18 22 24 18 22 24 18 22 25 19 23 25 19 23 26 20 24 24 18 22 24 18 22 22 16 20 22 16 20 22 16 20 21 15 19 23 17 21 22 16 20 22 16 20 22 16 20 22 16 20 24 18 22 25 19 21 25 19 21 25 19 23 25 19 21 24 18 20 23 17 19 23 17 19 25 19 21 25 19 21 22 16 18 25 19 21 24 18 20 24 18 20 23 17 21 25 19 23 25 19 23 24 18 22 23 17 21 24 18 22 24 18 20 25 19 23 25 19 23 24 18 20 24 18 22 23 17 21 24 18 22 25 19 21 24 18 20 24 18 22 24 18 22 24 18 22 23 17 21 23 17 21 23 17 21 23 17 21 23 17 21 24 18 22 23 17 21 22 16 20 23 17 21 23 17 21 22 16 20 24 18 22 24 18 22 24 18 22 23 17 21 22 16 20 21 15 19 20 14 18 21 15 19 20 14 18 22 16 20 22 16 20 22 16 20 22 16 20 22 16 20 22 16 20 23 17 21 25 19 23 25 19 23 24 18 22 23 17 21 23 17 21 21 15 19 22 16 20 22 16 20 22 16 20 22 16 20 
24 18 22 23 17 21 23 17 21 24 18 22 22 16 20 23 17 21 23 17 21 24 18 22 24 18 22 25 19 23 26 20 24 24 18 22 24 18 22 24 18 22 24 18 22 24 18 22 24 18 22 24 18 22 24 18 22 25 19 23 25 19 23 24 18 22 23 17 21 23 17 21 23 17 21 23 17 21 25 19 23 24 18 22 24 18 20 23 17 21 23 17 21 25 19 23 24 18 20 25 19 21 24 18 22 24 18 20 24 18 20 24 18 20 23 17 19 24 18 20 25 19 21 21 15 17 23 17 19 24 18 20 24 18 20 23 17 21 24 18 22 25 19 23 24 18 22 24 18 22 25 19 23 25 19 21 24 18 22 24 18 20 24 18 22 23 17 21 24 18 22 24 18 20 24 18 22 23 17 19 24 18 22 23 17 21 23 17 21 22 16 20 22 16 20 22 16 20 23 17 21 23 17 21 23 17 21 24 18 22 22 16 20 20 14 18 22 16 20 21 15 19 22 16 20 23 17 21 23 17 21 23 17 21 22 16 20 21 15 19 21 15 19 21 15 19 22 16 20 23 17 21 22 16 20 22 16 20 21 15 19 23 17 21 22 16 20 23 17 21 24 18 22 24 18 22 24 18 22 23 17 21 24 18 22 23 17 21 22 16 20 23 17 21 22 16 20 23 17 21 
24 18 22 23 17 21 22 16 20 23 17 21 23 17 21 22 16 20 22 16 20 23 17 21 24 18 22 22 16 20 23 17 21 24 18 22 24 18 22 24 18 22 24 18 22 24 18 22 24 18 22 23 17 21 25 19 23 25 19 23 25 19 23 25 19 23 24 18 22 25 19 23 25 19 23 24 18 22 27 21 25 26 20 24 26 20 22 25 19 23 24 18 22 25 19 23 24 18 20 26 20 22 24 18 22 23 17 19 23 17 19 22 16 18 22 16 18 23 17 19 23 17 19 23 17 19 23 17 19 24 18 20 24 18 20 23 17 21 24 18 22 24 18 22 24 18 22 24 18 22 24 18 22 25 19 21 23 17 19 23 17 21 23 17 19 24 18 22 24 18 22 24 18 22 25 19 21 24 18 22 24 18 22 22 16 20 21 15 19 21 15 19 21 15 19 22 16 20 23 17 21 23 17 21 22 16 20 22 16 20 22 16 20 21 15 19 20 14 18 20 14 18 21 15 19 21 15 19 23 17 21 23 17 21 21 15 19 21 15 19 21 15 19 21 15 19 22 16 20 22 16 20 22 16 20 21 15 19 21 15 19 22 16 20 22 16 20 24 18 22 24 18 22 24 18 22 24 18 22 24 18 22 23 17 21 23 17 21 22 16 20 23 17 21 21 15 19 22 16 20 
22 16 20 21 15 19 25 19 23 24 18 22 23 17 21 25 19 23 24 18 22 25 19 23 23 17 21 23 17 21 23 17 21 24 18 22 24 18 22 25 19 23 25 19 23 26 20 24 24 18 22 24 18 22 24 18 22 23 17 21 24 18 22 23 17 21 24 18 22 24 18 22 24 18 22 26 20 22 25 19 23 24 18 22 24 18 22 24 18 22 24 18 22 24 18 22 24 18 22 23 17 21 24 18 22 24 18 22 25 19 21 24 18 22 24 18 22 25 19 23 25 19 23 25 19 23 25 19 23 26 20 22 25 19 21 24 18 20 26 20 22 26 20 22 25 19 23 24 18 22 23 17 21 24 18 22 24 18 22 24 18 22 24 18 22 25 19 23 24 18 22 24 18 22 23 17 21 23 17 21 24 18 22 23 17 21 23 17 21 23 17 21 24 18 22 23 17 21 23 17 21 23 17 21 23 17 21 24 18 22 23 17 21 21 15 19 22 16 20 21 15 19 23 17 19 24 18 20 21 15 19 21 15 19 20 14 18 20 14 18 21 15 19 21 15 19 21 15 19 22 16 20 22 16 20 22 16 18 22 16 18 21 15 19 22 16 20 22 16 18 22 16 18 22 16 20 23 17 21 21 15 19 22 16 20 22 16 20 23 17 19 23 17 19 21 15 19 23 17 21 
21 15 19 20 14 18 24 18 22 24 18 22 25 19 23 25 19 23 25 19 23 24 18 22 23 17 21 23 17 21 22 16 20 23 17 21 24 18 22 24 18 22 26 20 24 26 20 24 24 18 22 23 17 21 24 18 22 24 18 22 23 17 21 23 17 21 24 18 22 26 20 24 24 18 22 24 18 20 24 18 22 24 18 22 23 17 21 24 18 22 24 18 22 24 18 22 23 17 21 25 19 23 23 17 21 23 17 21 24 18 22 23 17 21 25 19 23 25 19 21 26 20 22 26 20 24 26 20 24 27 21 25 25 19 23 25 19 23 26 20 24 25 19 23 25 19 21 24 18 20 24 18 20 23 17 19 24 18 22 23 17 21 24 18 22 24 18 22 24 18 22 23 17 21 22 16 20 22 16 20 23 17 21 26 20 24 24 18 22 24 18 22 24 18 22 23 17 21 23 17 21 23 17 21 24 18 20 23 17 19 23 17 21 22 16 20 21 15 19 20 14 18 23 17 21 23 17 21 20 14 18 21 15 19 20 14 18 20 14 18 21 15 19 21 15 19 22 16 20 22 16 20 22 16 20 22 16 20 22 16 20 21 15 19 21 15 19 21 15 19 20 14 18 21 15 19 22 16 20 21 15 17 21 15 19 21 15 19 22 15 22 22 16 20 22 16 18 23 17 19 
23 17 21 23 17 21 24 18 22 25 19 23 24 18 22 24 18 22 24 18 22 24 18 22 23 17 21 23 17 21 23 17 21 24 18 22 24 18 22 24 18 22 24 18 22 24 18 22 24 18 22 23 17 21 23 17 21 23 17 21 21 15 19 22 16 20 24 18 22 24 18 22 24 18 22 23 17 21 23 17 21 23 17 21 23 17 21 22 16 20 22 16 20 24 18 22 24 18 22 24 18 22 26 20 24 24 18 22 24 18 20 24 18 22 24 18 22 25 19 23 25 19 23 25 19 23 24 18 22 24 18 20 24 18 20 24 18 20 24 18 20 23 17 19 24 18 22 23 17 21 23 17 21 23 17 21 22 16 20 23 17 21 24 18 22 24 18 22 23 17 21 22 16 20 21 15 19 21 15 19 21 15 19 23 17 21 23 17 21 23 17 21 23 17 21 22 16 20 21 15 19 23 17 21 23 17 19 23 17 19 23 17 21 22 16 20 21 15 19 20 14 18 24 18 22 23 17 21 22 16 18 22 16 18 22 16 20 21 15 19 21 15 19 21 15 19 20 14 18 21 15 19 21 15 19 22 16 20 21 15 19 22 16 20 22 16 20 22 16 20 22 16 20 22 16 20 21 15 19 22 16 20 22 16 18 23 17 21 23 17 21 23 17 21 22 16 20 22 16 18 
23 17 21 24 18 22 24 18 22 23 17 21 24 18 22 24 18 22 24 18 22 23 17 21 23 17 21 23 17 21 23 17 21 24 18 22 24 18 22 24 18 22 24 18 22 23 17 21 23 17 21 23 17 21 24 18 22 22 16 20 23 17 21 22 16 20 23 17 21 23 17 21 23 17 21 23 17 21 22 16 20 22 16 20 22 16 20 22 16 20 23 17 21 24 18 22 25 19 23 25 19 23 24 18 22 25 19 23 23 17 21 23 17 21 23 17 21 24 18 20 25 19 21 25 19 23 25 19 23 24 18 22 24 18 20 25 19 21 22 16 18 23 17 19 24 18 22 23 17 21 21 15 19 23 17 21 23 17 21 23 17 21 23 17 21 23 17 21 23 17 21 22 16 20 22 16 20 22 16 20 21 15 19 22 16 20 22 16 20 21 15 19 22 16 20 22 16 20 22 16 20 22 16 20 23 17 21 22 16 20 23 17 21 22 16 20 22 16 20 21 15 19 22 16 18 23 17 19 23 17 21 23 17 21 22 16 20 22 16 20 21 15 19 20 14 18 20 14 18 20 14 18 21 15 17 21 15 19 21 15 19 22 16 18 22 16 18 22 16 20 22 16 20 22 16 18 21 14 21 21 15 19 23 17 21 22 16 18 23 17 17 22 16 18 22 16 20 23 17 21 
