P3
100 50
255
65 56 51 66 57 50 66 56 47 67 56 50 65 54 48 67 54 46 66 53 45 68 54 45 69 56 47 70 56 45 69 55 44 67 53 40 63 51 37 63 47 34 64 48 33 64 46 32 62 46 30 61 44 28 58 41 25 55 38 20 55 39 24 56 40 27 56 39 31 57 39 29 57 40 32 58 40 30 58 41 33 58 41 31 60 43 33 61 44 34 87 73 64 232 228 225 255 255 255 254 254 254 255 255 255 254 254 254 255 255 255 255 255 255 255 255 255 255 255 255 255 255 255 255 255 255 255 255 255 255 255 255 255 255 255 255 255 255 255 255 255 255 255 255 255 255 255 255 255 255 255 255 255 255 255 255 255 255 255 255 255 255 255 255 255 255 255 255 255 255 255 255 255 255 255 255 255 255 255 255 255 255 255 255 255 255 255 255 255 255 255 255 254 254 254 255 255 253 255 255 253 255 255 255 255 255 255 255 255 255 255 255 255 255 255 255 255 255 255 255 255 255 174 165 158 66 51 32 61 48 29 61 48 29 62 49 32 61 48 31 65 50 31 64 49 30 63 48 29 64 47 27 63 46 26 63 46 26 62 45 25 60 43 25 60 43 25 61 44 28 61 43 29 60 43 33 60 44 31 59 42 32 59 41 29 58 41 25 58 41 25 58 41 25 55 38 20 56 39 19 
66 57 52 66 57 50 67 56 52 66 55 49 66 56 47 65 55 46 66 53 45 67 54 45 69 56 47 70 56 47 69 55 44 67 53 40 65 51 38 64 48 33 64 48 33 64 46 32 63 45 31 60 43 27 58 41 23 56 39 23 56 40 25 56 40 27 56 39 29 56 39 31 58 41 31 58 41 31 58 41 33 58 41 33 61 43 33 62 44 34 62 45 35 84 70 59 180 175 169 254 254 254 255 255 255 255 255 255 255 254 255 255 255 253 255 255 253 255 255 253 255 255 253 255 255 255 255 255 255 254 254 254 255 255 255 255 255 255 254 254 254 255 255 255 255 255 255 255 255 255 255 255 255 255 255 255 255 255 255 255 255 255 255 255 255 255 255 255 255 255 255 255 255 255 255 255 255 255 255 255 255 255 255 255 255 255 255 255 255 255 255 255 255 255 255 255 255 255 255 255 255 255 255 255 254 255 255 254 255 255 255 255 255 255 255 255 231 230 226 110 101 86 64 51 32 66 51 30 62 49 30 63 48 29 61 48 29 63 51 27 66 51 32 62 49 30 65 50 31 64 47 27 63 48 27 63 46 26 63 45 25 59 42 24 61 42 25 61 43 29 62 43 29 61 44 34 60 43 33 58 41 33 57 41 28 56 40 25 58 40 26 57 40 24 56 39 21 55 38 20 
68 57 61 70 58 60 67 55 55 70 56 56 70 56 55 68 54 51 66 53 47 65 52 44 65 51 42 68 51 43 69 51 41 70 52 40 70 52 40 68 50 36 68 50 36 64 46 32 64 46 32 61 43 29 61 43 29 59 41 27 58 42 27 58 42 27 58 42 27 58 42 29 57 40 30 56 42 31 59 42 32 61 42 35 61 42 35 60 42 32 60 42 30 60 42 28 58 40 26 121 107 98 232 228 227 255 255 255 255 255 255 254 255 255 255 255 255 254 255 255 255 255 255 254 254 254 255 255 255 254 254 254 254 255 255 254 255 255 255 255 255 255 255 255 255 255 255 255 255 255 255 255 255 255 255 255 255 255 255 255 255 255 255 255 255 255 255 255 255 255 255 255 255 255 255 255 255 255 255 255 255 255 255 255 255 255 255 255 255 255 255 255 255 255 255 254 254 254 255 255 253 255 255 255 255 255 255 255 255 255 255 255 255 169 165 156 74 63 43 62 49 30 62 49 30 63 50 31 65 53 31 62 51 29 65 50 31 65 50 31 62 49 30 63 50 31 65 50 31 66 51 32 65 48 32 65 46 31 64 45 30 60 41 27 62 40 27 63 43 32 62 44 32 63 45 35 60 43 33 55 41 30 57 41 28 56 40 25 55 39 24 55 39 24 54 37 21 54 38 22 
69 57 61 69 57 61 69 54 57 70 56 56 70 56 55 68 54 51 67 54 46 66 53 45 66 52 43 67 50 42 67 50 42 69 51 39 69 51 39 67 49 35 68 50 36 64 46 32 63 46 30 60 42 28 60 42 28 59 41 29 58 42 27 58 42 27 58 42 27 57 41 28 59 41 31 58 41 31 60 42 32 60 42 32 60 43 33 60 43 33 61 43 29 58 42 29 59 41 27 58 40 26 58 41 25 128 120 109 229 229 227 255 255 255 255 255 255 254 254 254 254 255 255 255 255 255 255 255 255 255 255 255 255 255 255 254 255 255 255 255 255 255 255 255 255 255 255 255 255 255 255 255 255 255 255 255 255 255 255 255 255 255 255 255 255 255 255 255 255 255 255 255 255 255 255 255 255 255 255 255 255 255 255 255 255 255 255 255 255 255 255 255 255 255 255 255 255 253 255 255 255 255 255 255 255 255 255 209 204 200 96 87 72 60 49 29 62 49 30 63 50 31 62 50 28 62 49 30 64 51 32 64 52 30 64 51 32 62 51 29 62 51 29 63 50 31 65 50 31 65 50 31 66 49 33 65 46 31 67 45 31 61 42 28 63 41 28 64 44 35 62 44 32 61 45 32 60 44 31 56 42 31 55 41 28 56 40 25 55 39 24 56 40 24 54 38 22 55 39 23 
70 57 66 69 57 61 70 55 58 69 54 57 68 54 53 68 53 50 67 54 48 68 53 46 69 52 44 68 51 43 66 49 39 67 49 37 68 48 37 66 48 34 66 48 36 64 46 32 63 44 30 62 44 30 61 43 29 58 42 27 56 40 27 55 39 26 56 40 27 57 41 28 58 41 31 59 41 31 61 42 35 61 42 35 60 42 32 61 43 31 60 42 28 58 40 26 58 42 27 57 39 25 55 39 24 55 39 23 53 40 24 128 119 110 230 229 227 255 255 255 255 255 253 255 255 255 255 255 255 255 255 255 255 255 255 255 255 255 254 254 254 255 255 255 255 255 255 255 255 255 255 255 255 255 255 255 255 255 255 255 255 255 255 255 255 255 255 255 255 255 255 255 255 255 255 255 255 255 255 255 255 255 255 255 255 255 255 255 255 255 255 255 255 255 255 255 255 255 255 255 255 195 190 184 110 101 86 60 49 29 62 49 32 61 48 29 63 50 33 64 51 34 63 50 33 63 50 31 64 51 32 63 50 31 63 51 29 64 51 32 63 52 32 64 51 32 66 51 32 66 51 32 66 49 33 66 47 32 67 45 31 65 43 30 66 44 31 64 44 33 65 45 34 63 47 34 61 43 31 57 40 30 57 41 28 54 41 25 56 40 24 55 39 24 55 39 23 55 39 23 
70 57 66 70 57 66 70 55 60 69 54 57 70 56 56 70 55 52 68 53 46 70 52 48 69 52 45 68 51 43 66 49 41 68 50 38 68 50 38 66 47 33 66 48 34 63 45 31 62 44 30 60 44 31 59 41 29 58 42 27 57 41 26 54 38 25 56 38 28 58 40 30 57 40 32 60 42 32 60 42 32 59 42 32 59 43 30 59 41 29 58 42 29 59 41 29 58 40 26 59 40 25 56 39 23 54 38 22 53 40 23 53 40 23 52 39 23 104 92 80 177 172 166 245 241 240 255 255 255 254 255 255 255 255 253 255 255 255 255 255 255 255 255 253 255 255 255 255 255 255 255 255 255 255 255 255 255 255 255 255 255 255 255 255 255 255 255 255 255 255 255 255 255 255 255 255 255 255 255 255 255 255 255 255 255 255 255 255 255 255 255 255 205 201 200 157 150 140 72 60 44 62 51 31 62 49 32 61 48 29 61 50 30 63 50 31 62 51 31 63 50 31 65 50 31 63 51 29 64 52 30 64 52 30 67 52 31 65 52 33 64 53 33 65 52 33 67 52 33 67 52 31 69 50 35 67 48 33 69 47 33 68 46 33 68 46 33 65 45 34 63 45 33 61 45 32 60 44 29 56 42 29 56 42 29 57 41 25 56 40 24 55 39 23 55 40 21 54 41 24 
71 58 67 71 58 67 70 55 60 71 56 61 71 55 56 69 54 51 68 53 46 67 52 45 70 51 44 68 51 43 67 50 40 67 49 39 66 48 36 65 47 35 65 47 35 64 44 33 62 44 30 60 42 30 59 41 29 57 41 28 56 40 27 55 38 28 55 39 26 56 39 29 58 41 33 58 41 31 58 41 31 58 41 31 58 41 31 59 42 32 60 44 29 59 41 27 59 41 27 58 41 25 56 39 23 54 38 22 52 39 22 52 39 23 54 38 23 51 38 22 51 38 21 50 36 23 100 90 80 166 159 153 216 215 211 255 255 255 255 255 255 255 255 255 255 255 255 255 255 255 255 255 255 254 255 255 254 255 255 255 255 255 255 255 255 255 255 255 254 254 254 255 255 255 255 255 255 255 255 255 242 242 240 191 187 184 142 135 127 81 67 56 54 42 28 57 45 29 58 46 30 61 50 30 60 49 29 61 50 32 62 51 31 63 50 31 64 51 32 65 52 33 64 51 32 64 51 32 64 51 32 65 52 33 65 53 31 66 54 32 65 52 33 66 53 34 65 54 34 68 51 33 67 49 35 70 48 34 68 49 35 67 48 33 68 49 35 65 45 34 63 45 33 60 44 31 59 43 30 58 42 29 56 43 27 53 40 23 55 39 23 54 38 22 55 40 21 56 41 22 
71 58 68 72 59 68 71 56 61 71 56 61 73 57 58 70 55 52 67 52 45 69 52 45 69 52 44 68 49 42 68 50 40 67 49 39 66 50 37 65 47 35 66 48 36 63 45 33 62 44 32 59 41 31 56 39 29 54 38 25 56 39 29 56 39 29 56 39 29 57 40 30 57 40 30 57 40 30 56 39 29 56 39 29 57 41 26 57 41 28 60 44 29 61 44 28 60 42 28 57 40 24 56 39 23 51 38 21 51 38 21 51 38 22 51 38 22 51 37 24 50 37 21 51 38 22 50 37 21 50 37 21 53 37 21 50 37 21 105 93 79 117 107 97 155 148 140 181 174 168 191 188 181 204 201 196 207 202 198 207 202 196 196 189 183 182 175 167 170 163 155 144 135 128 118 108 99 82 68 57 58 42 29 52 43 28 55 41 28 55 43 27 55 43 29 56 44 28 57 46 28 62 51 33 60 49 31 60 49 31 61 50 30 64 51 34 64 51 32 62 49 30 64 51 32 64 51 32 65 53 31 66 54 32 66 54 32 66 53 34 64 53 33 67 54 35 68 55 36 70 53 35 69 52 36 72 50 36 69 50 35 71 49 35 68 49 35 64 45 31 64 45 31 60 40 29 58 42 27 58 42 27 55 42 25 55 42 25 55 40 21 54 39 20 55 40 21 54 39 20 
72 59 69 70 58 68 72 57 64 72 57 62 70 56 56 69 54 51 68 51 43 69 52 42 69 52 44 70 50 43 68 50 40 67 49 39 67 49 37 66 46 35 67 47 36 62 46 33 62 44 32 58 40 28 57 40 32 55 39 26 56 39 29 57 40 30 57 40 30 55 41 30 57 40 30 57 40 30 56 40 27 56 40 27 57 40 30 57 41 28 60 44 29 60 43 27 60 43 27 57 40 24 56 39 23 53 37 21 51 38 22 50 37 21 52 36 20 50 37 21 50 37 21 52 36 21 49 35 22 52 36 23 53 37 22 51 38 21 52 39 22 53 40 21 56 40 24 55 42 23 56 40 17 56 40 17 59 42 22 60 43 23 60 44 28 59 43 27 59 44 25 58 42 27 55 41 28 56 42 29 57 41 28 55 43 29 54 42 28 55 43 27 55 43 27 57 45 29 58 47 29 62 51 33 60 49 31 61 50 32 61 50 30 62 49 30 64 51 32 65 52 33 63 50 31 63 50 31 65 53 31 65 53 31 67 55 33 66 53 34 65 52 33 66 53 34 68 55 36 68 53 34 69 52 36 72 50 36 73 50 36 71 49 35 68 49 35 64 45 31 62 44 30 58 42 27 58 42 27 57 41 26 55 42 25 58 43 24 55 40 21 53 38 19 54 39 18 55 40 19 
71 57 70 71 57 70 71 56 63 72 55 61 72 56 57 71 53 51 72 53 47 71 54 47 71 52 45 72 52 43 72 49 41 66 48 38 66 48 36 65 47 35 67 47 36 63 45 33 62 44 32 58 41 31 57 40 30 56 39 29 58 39 32 58 41 33 59 42 34 57 40 32 57 40 32 56 39 29 57 41 28 56 40 25 57 41 28 58 42 26 61 45 29 61 43 29 61 44 28 57 40 24 55 38 22 52 36 20 50 37 20 49 36 20 52 36 21 50 37 21 51 37 24 50 37 21 50 37 21 52 36 21 53 37 22 52 39 23 52 39 22 55 40 21 55 42 23 54 41 22 59 43 20 58 41 21 60 44 21 59 44 23 59 43 27 59 44 25 59 43 27 56 43 27 55 42 26 55 41 28 54 40 27 54 42 28 54 42 28 56 44 30 56 44 30 58 46 32 60 48 32 62 50 34 62 50 34 61 49 33 61 50 32 63 50 31 64 51 32 64 51 32 63 50 31 62 49 30 65 53 31 65 53 31 67 55 33 67 55 33 64 51 32 66 53 34 68 55 36 68 55 36 72 53 36 70 51 36 72 51 34 70 48 34 68 49 32 62 45 29 61 44 28 57 41 26 57 41 25 56 40 25 55 42 25 56 43 24 54 39 20 52 36 20 54 39 20 54 39 18 
71 57 70 72 58 71 72 57 64 72 55 61 72 56 57 73 55 53 70 53 46 71 54 46 70 51 44 68 50 40 68 50 40 66 48 38 68 48 37 65 47 35 68 46 35 62 44 32 61 43 31 58 41 31 58 41 31 54 40 31 58 41 33 59 42 35 58 41 33 57 40 32 57 40 32 56 39 29 57 41 28 56 40 25 57 41 25 58 42 27 61 45 30 62 45 29 61 44 28 57 40 24 54 37 21 49 36 19 49 36 19 49 36 20 49 36 20 50 37 21 54 38 23 50 37 21 52 36 21 51 38 21 52 36 21 53 37 21 52 39 22 53 40 21 54 41 22 55 43 21 59 43 18 58 43 20 60 43 25 59 44 23 60 45 26 58 45 28 58 42 27 57 41 26 58 42 27 54 41 25 55 41 28 54 42 28 54 42 28 56 44 30 56 44 30 57 45 29 59 47 31 62 50 34 60 48 32 61 49 33 62 51 33 62 51 33 63 50 31 65 52 33 62 49 30 62 49 30 66 54 32 66 54 32 68 56 34 67 55 33 63 52 32 66 53 34 70 55 36 70 53 35 71 54 36 70 51 36 73 52 35 68 49 32 67 48 33 62 43 28 61 44 28 57 39 25 57 41 26 56 40 24 55 42 23 58 43 24 54 39 20 53 38 19 55 40 21 54 39 20 
71 57 70 71 57 70 71 56 61 71 55 58 71 55 55 74 54 53 74 55 51 73 52 47 71 52 45 68 50 40 67 49 39 66 46 37 66 46 37 63 45 33 62 44 34 61 43 33 61 43 33 59 42 34 59 42 34 58 41 33 59 42 35 59 41 37 58 41 34 58 41 33 58 41 31 58 41 31 59 43 30 58 42 29 59 43 28 60 44 29 62 46 31 62 45 29 60 42 28 56 39 23 54 37 21 52 36 20 50 37 18 52 39 22 53 37 22 52 39 23 52 39 22 51 38 22 51 38 22 50 37 21 51 38 22 50 37 20 52 39 22 52 39 22 56 41 22 54 41 22 61 43 21 59 44 21 58 43 22 58 43 22 58 42 26 60 44 28 57 44 28 56 42 29 55 41 28 54 40 27 51 39 25 55 43 29 55 43 29 58 46 32 58 46 32 60 48 34 61 49 35 63 51 35 63 51 37 63 51 35 65 52 35 64 53 35 65 52 33 65 52 33 63 50 31 64 51 32 65 53 31 67 55 33 69 57 33 69 57 35 65 54 34 67 54 35 71 56 37 71 54 36 72 53 36 71 52 35 71 52 35 67 48 31 66 47 32 61 42 28 60 43 27 55 39 23 56 40 24 56 40 24 54 41 22 57 41 25 54 39 20 53 38 19 55 39 23 55 40 21 
70 58 70 71 58 68 72 57 60 71 56 59 69 54 51 74 55 49 74 55 49 73 53 46 70 51 44 68 50 40 67 49 39 66 46 37 65 45 36 65 45 34 63 45 35 61 43 33 61 44 34 59 42 32 59 42 34 60 43 35 59 42 35 59 41 37 57 40 33 57 40 32 58 41 33 59 42 32 59 43 28 59 43 30 59 43 28 60 44 28 61 45 29 61 44 28 61 44 28 56 39 23 53 36 20 52 36 20 50 37 20 51 38 21 53 37 21 53 40 24 52 39 23 53 37 22 52 39 23 50 37 21 51 38 22 51 38 22 53 40 23 52 39 22 53 41 19 56 41 22 60 44 21 60 44 21 58 43 20 57 42 23 58 42 26 59 43 28 57 44 28 54 42 28 54 40 27 54 40 27 53 39 26 58 42 29 55 43 29 59 47 33 59 47 33 60 48 36 61 49 35 65 53 37 64 52 36 63 51 35 64 51 34 64 53 35 66 53 34 65 52 33 63 50 31 63 50 31 66 54 32 67 55 33 69 57 33 68 56 34 66 53 34 67 54 35 69 54 35 71 56 37 71 54 36 71 52 35 71 50 33 67 48 31 66 47 30 60 43 25 61 44 26 55 40 21 56 41 22 56 41 22 54 41 24 55 42 26 54 38 22 53 37 21 56 41 22 54 39 20 
70 56 69 71 58 68 71 56 59 74 55 57 73 55 51 74 55 49 75 56 50 72 53 46 69 49 42 68 48 39 66 46 37 64 44 35 66 46 39 65 45 36 64 44 35 62 43 36 61 44 36 61 44 36 63 44 37 62 47 40 60 42 38 57 39 37 56 38 34 55 38 31 58 41 31 59 42 32 62 46 31 61 45 30 59 43 27 58 42 27 59 43 27 60 43 27 59 42 26 57 39 25 54 36 22 51 38 21 51 38 21 52 39 22 54 41 24 53 40 23 53 40 24 52 39 23 54 38 23 51 38 22 51 38 21 53 40 23 53 40 23 54 38 22 57 42 23 55 42 23 60 43 23 59 43 20 58 43 22 59 42 24 59 43 27 57 41 26 58 42 29 54 42 28 55 41 28 52 40 26 53 39 28 56 42 29 56 44 30 59 49 37 61 49 37 62 50 36 64 52 40 66 54 40 66 54 38 65 53 37 68 55 38 66 54 38 67 54 37 67 54 35 65 52 33 65 53 31 66 54 32 67 54 35 69 57 33 70 58 36 68 57 37 70 57 38 72 57 38 71 56 37 72 55 37 70 51 34 72 51 34 67 46 29 65 46 29 63 44 27 62 45 27 60 43 27 57 42 23 53 38 19 54 41 24 56 40 25 57 41 25 57 41 25 59 43 27 58 42 26 
71 57 70 71 57 70 73 57 60 72 56 56 70 55 48 74 55 49 74 55 51 70 51 44 68 49 42 65 47 37 66 46 37 67 47 38 66 46 37 64 44 35 62 45 35 63 45 35 62 44 34 61 44 36 62 45 38 61 47 38 59 41 37 57 39 35 58 37 34 57 38 32 58 41 31 60 43 33 61 45 32 60 44 29 57 41 25 58 42 27 58 42 26 58 42 26 60 43 25 56 39 23 56 39 23 52 39 22 53 38 19 53 40 23 54 41 24 54 41 25 53 40 24 52 39 23 52 39 23 52 39 23 51 38 21 52 39 22 53 40 23 53 40 21 56 43 24 56 43 24 60 43 23 59 42 22 57 40 22 57 42 21 59 44 25 58 42 26 57 44 28 57 43 30 55 42 26 54 40 27 53 39 28 56 44 30 56 44 32 61 51 39 62 50 38 62 50 38 63 51 37 67 55 41 67 55 41 67 55 39 67 55 39 68 56 40 68 55 36 70 54 38 64 52 30 65 53 31 68 56 34 68 56 34 70 58 36 70 58 36 70 59 41 70 57 40 70 57 40 73 56 40 72 55 37 72 50 36 72 51 34 69 46 30 66 45 28 64 45 28 62 45 27 60 43 25 57 42 23 53 38 19 56 40 24 57 41 26 56 43 26 57 41 25 59 43 27 60 44 28 
71 57 70 71 58 68 72 58 58 73 58 55 71 56 49 73 56 49 72 53 47 69 50 43 68 48 41 66 46 37 65 45 36 69 47 36 68 45 37 67 47 38 67 47 38 66 43 35 63 45 35 62 45 37 63 46 38 62 48 39 59 41 37 56 38 36 56 38 34 55 37 33 58 41 33 60 43 33 61 45 30 60 44 29 57 41 25 57 41 25 56 40 24 58 42 26 59 42 26 57 41 26 57 40 24 53 40 23 54 39 20 53 40 23 54 41 24 53 40 23 54 41 25 52 39 23 52 39 23 52 39 23 52 39 22 52 39 22 56 43 26 55 42 23 57 44 25 60 45 24 58 43 20 58 43 20 56 41 20 57 42 21 58 41 23 58 42 26 56 43 27 56 43 27 56 42 29 54 42 28 53 41 27 56 44 30 58 44 33 60 50 38 63 51 37 63 51 39 64 52 40 67 55 41 67 55 41 68 56 42 69 57 41 70 58 42 69 56 39 69 56 39 66 53 34 65 52 33 67 55 33 68 56 34 70 58 36 71 59 35 71 60 40 72 59 40 71 58 41 73 56 38 71 54 36 72 50 36 69 50 33 67 46 29 67 46 27 65 46 29 64 47 27 61 46 25 58 43 24 53 38 19 53 40 21 57 41 26 55 42 26 60 44 29 61 45 29 62 46 30 
73 57 68 73 57 67 74 58 58 75 57 55 74 55 49 73 56 49 73 53 46 70 50 41 68 49 42 65 47 37 66 46 37 66 46 37 67 47 38 66 47 40 66 48 38 64 45 38 64 45 38 62 45 38 64 45 39 62 47 40 62 42 41 58 40 38 57 40 33 57 40 33 59 42 32 59 42 32 60 44 31 59 43 28 57 41 25 56 40 25 56 40 24 57 41 25 58 43 24 57 41 25 58 41 25 53 40 23 54 38 22 53 40 24 53 40 24 54 41 25 54 41 25 53 40 24 53 40 24 52 39 22 51 38 21 52 39 22 54 41 24 54 41 24 57 44 25 57 44 25 57 42 19 59 44 21 58 43 24 57 42 23 58 42 26 57 44 28 56 43 27 55 41 28 55 41 30 55 43 31 52 42 30 55 43 31 57 45 31 60 50 38 60 50 38 61 51 39 64 54 42 68 56 42 67 55 43 67 55 43 69 57 43 68 56 42 68 56 40 67 56 38 66 53 34 66 53 34 67 55 33 68 56 34 71 59 35 72 60 38 73 60 41 72 59 40 73 58 39 73 58 39 72 55 37 71 52 35 70 51 34 69 48 31 67 48 33 65 46 29 63 46 28 61 44 26 59 42 22 54 39 18 56 40 24 58 42 27 59 43 28 58 42 26 63 46 30 62 44 30 
72 57 64 71 56 63 75 55 56 72 52 51 73 53 46 73 53 46 72 52 43 71 51 42 70 50 43 67 49 39 66 48 38 64 47 39 66 47 40 67 48 42 66 47 40 66 49 42 65 47 43 64 46 42 63 45 41 62 44 40 61 43 39 61 43 39 59 42 35 59 42 35 58 41 33 58 41 31 56 40 27 57 41 28 55 39 24 55 39 24 55 39 23 56 40 24 55 39 23 56 40 24 56 40 24 52 39 23 53 40 24 53 40 24 53 40 24 54 41 25 54 41 25 54 41 25 52 39 23 52 39 22 51 38 21 50 37 20 52 39 22 53 40 23 57 41 25 55 44 26 54 42 20 55 40 19 58 43 24 57 44 27 59 46 30 57 43 30 55 41 30 55 41 30 53 40 31 56 43 35 59 45 36 53 43 34 54 42 30 61 51 41 61 51 39 64 55 38 65 56 39 66 57 42 66 56 44 65 55 45 67 55 43 67 54 45 65 52 43 65 53 41 68 55 39 69 56 40 70 58 36 74 59 36 72 60 34 73 61 35 73 61 39 74 59 38 73 58 37 73 58 37 75 58 38 73 54 37 74 55 38 71 52 35 70 51 34 65 46 29 63 46 26 60 43 23 59 42 22 58 41 21 59 42 26 62 44 30 59 43 28 58 42 27 57 41 26 58 42 27 
73 56 64 72 57 64 75 55 56 77 56 55 77 54 48 74 54 47 73 53 44 71 51 42 69 49 42 68 48 37 69 46 38 66 47 40 66 47 41 67 48 42 66 47 40 65 47 43 64 46 42 64 46 42 62 44 40 61 43 39 61 44 37 60 43 36 59 42 34 58 41 33 55 38 30 55 38 28 55 39 26 55 39 24 55 39 23 55 39 24 56 40 25 55 39 23 55 39 23 56 40 24 56 40 24 53 40 24 52 39 23 52 39 23 53 40 24 53 40 24 53 40 24 54 41 25 53 40 23 52 39 22 52 39 22 51 38 21 53 40 23 53 40 23 55 42 25 56 43 26 56 44 22 55 43 21 57 44 25 57 44 27 59 46 30 55 43 29 56 42 31 53 41 29 53 40 31 54 41 32 56 43 34 52 42 32 52 44 31 61 51 39 60 51 36 64 56 37 64 55 40 66 57 42 67 57 45 67 57 47 68 55 46 67 54 45 67 54 45 68 56 44 70 57 41 70 57 41 74 59 36 74 59 38 73 61 37 73 61 37 73 61 39 75 60 39 72 60 38 73 58 37 74 57 37 71 54 34 73 56 36 70 52 32 70 52 32 66 48 28 64 45 28 61 42 25 60 42 22 59 41 21 60 43 27 63 45 31 60 44 28 60 42 28 60 42 28 59 43 28 
73 57 67 73 58 65 76 56 57 75 55 54 76 55 50 73 52 47 72 52 43 71 51 44 71 51 42 71 48 40 68 48 41 66 47 40 66 47 40 65 48 41 66 47 41 62 47 42 64 45 41 61 43 39 62 43 39 62 43 39 60 42 38 60 41 37 58 41 33 57 40 32 54 37 27 54 38 25 53 37 24 54 38 23 54 38 22 56 40 24 56 40 24 56 40 24 57 41 25 56 40 24 56 40 24 52 39 23 52 39 23 51 38 22 51 38 22 52 39 23 51 38 22 52 39 23 52 39 20 53 40 23 53 40 23 53 40 23 53 40 23 54 41 24 53 40 23 55 42 25 57 45 23 56 44 22 57 44 25 57 44 27 57 44 28 55 43 29 54 40 27 52 40 28 51 38 29 53 43 33 57 44 35 52 42 32 51 41 29 60 50 38 60 51 36 63 54 37 64 55 38 67 58 43 67 57 45 67 57 48 69 56 47 68 55 47 69 57 45 69 57 45 71 58 42 72 58 45 75 59 43 76 61 42 73 61 39 74 62 40 76 61 40 75 60 39 74 59 38 74 59 38 73 56 36 72 55 35 73 55 35 70 52 32 70 52 32 66 48 28 64 46 26 61 43 23 60 43 23 59 42 22 61 44 28 62 46 31 61 43 31 61 43 31 61 43 29 60 44 29 
74 58 68 74 57 65 77 57 58 75 55 54 76 55 50 73 53 46 73 50 42 70 50 43 69 49 40 68 48 41 67 47 40 66 47 40 66 47 40 66 49 42 65 46 40 62 45 38 63 45 41 62 45 38 62 43 39 59 42 34 60 43 36 60 43 35 58 41 31 58 41 31 56 40 27 55 39 26 55 39 24 55 39 23 56 40 24 57 41 25 58 42 26 57 42 23 58 42 26 57 41 25 57 41 25 54 41 25 54 41 25 53 40 24 53 40 24 52 39 22 53 40 24 54 41 24 54 41 22 55 42 25 53 40 23 54 41 24 54 41 24 54 41 24 58 42 27 55 42 25 56 44 22 57 45 23 54 43 23 57 44 27 56 43 27 55 41 28 54 40 31 55 38 30 50 37 29 55 42 34 56 43 34 53 43 33 55 42 33 60 50 40 61 51 39 64 55 38 65 56 39 65 56 41 66 56 44 67 57 45 68 58 46 71 59 47 71 58 49 72 59 50 74 60 49 74 60 47 78 62 47 75 62 46 75 62 43 75 62 43 76 63 44 76 61 42 75 60 41 76 59 39 74 58 35 74 56 36 73 55 33 70 52 30 70 52 30 66 48 28 64 46 26 64 43 24 62 44 24 61 44 26 62 44 30 59 45 36 62 45 35 63 47 34 64 46 34 63 47 34 
74 58 68 73 58 65 77 57 58 76 57 53 76 55 50 72 52 45 69 49 40 69 49 40 71 48 42 66 47 40 65 46 40 66 47 41 67 46 41 65 46 39 65 46 40 63 46 39 62 45 38 62 45 38 61 43 39 57 42 35 60 43 36 60 43 35 59 42 34 59 41 31 55 39 26 55 39 26 55 39 24 56 40 24 56 40 24 57 41 25 59 43 27 58 42 26 59 44 25 58 43 24 57 41 25 54 41 25 55 41 28 53 40 24 53 40 24 53 40 24 53 40 24 54 41 24 55 42 25 55 42 25 55 42 25 55 42 25 54 41 24 54 41 24 55 42 25 55 42 25 55 42 23 57 42 23 56 43 26 55 42 25 55 42 26 55 41 30 54 40 31 52 39 30 49 36 28 52 42 32 55 42 33 53 43 31 54 45 30 61 52 37 62 53 38 63 54 37 65 56 39 65 56 41 67 58 43 68 58 46 71 58 49 71 57 48 72 59 50 72 59 50 75 60 53 76 62 51 76 62 49 75 63 49 76 63 47 76 63 47 75 62 45 75 62 43 76 61 42 75 58 38 75 59 36 73 55 33 73 55 33 70 52 30 70 52 30 66 48 28 66 48 26 63 45 25 63 45 25 63 44 27 62 44 30 61 44 34 63 45 33 64 46 34 65 47 33 64 48 33 
72 59 69 74 58 68 77 57 58 76 56 57 77 53 51 74 54 47 70 51 44 70 50 43 68 49 42 68 48 41 68 48 41 66 47 41 65 46 40 64 47 39 64 47 40 61 44 37 62 45 38 59 41 37 59 41 37 54 39 34 57 40 32 58 41 31 58 41 31 58 41 31 57 41 26 57 41 26 57 41 26 57 41 25 57 42 23 56 40 24 56 40 25 57 41 25 56 40 24 55 40 21 56 41 20 54 41 24 55 42 26 54 41 25 55 42 25 54 41 24 56 40 24 57 41 25 57 41 25 58 42 26 57 41 25 56 40 24 56 40 24 57 42 23 58 43 24 59 44 25 54 43 21 53 40 21 55 42 25 57 44 27 55 43 29 55 43 29 56 42 33 51 38 29 46 36 27 51 41 31 51 41 31 53 43 31 54 44 32 63 54 39 63 54 39 62 54 35 64 56 37 65 57 38 66 57 42 65 55 43 69 56 47 69 56 47 73 58 51 74 59 52 76 62 53 76 62 53 77 63 52 77 63 54 77 63 52 78 64 51 76 63 47 79 61 47 76 60 44 77 60 40 76 59 39 74 56 34 75 57 35 71 53 29 70 52 28 69 48 29 65 47 27 63 46 28 65 46 29 63 46 30 64 46 32 62 45 37 63 46 36 64 47 37 65 49 36 65 49 36 
74 58 69 74 58 68 77 57 59 76 56 57 76 52 50 74 54 47 71 52 45 70 51 44 68 49 43 67 48 41 66 47 40 65 46 40 66 47 41 65 48 40 66 47 41 62 45 38 61 44 37 58 41 34 58 41 34 56 38 34 57 40 33 56 39 29 57 41 28 57 41 28 58 42 27 58 42 27 58 42 26 57 41 26 56 41 20 56 40 24 55 40 21 54 39 20 55 39 23 55 40 21 53 38 19 55 42 25 54 41 25 54 41 24 54 41 24 54 41 24 56 43 26 55 42 25 56 43 26 55 42 25 54 41 24 53 40 23 54 41 24 55 42 23 57 42 23 58 43 24 53 42 22 53 40 21 55 44 26 56 43 26 57 45 31 55 43 29 55 41 32 50 37 28 46 36 27 50 40 30 51 41 31 54 44 32 53 43 31 64 55 40 63 54 39 63 55 36 62 54 35 63 54 37 65 56 41 66 57 42 69 57 45 70 57 48 73 58 51 74 59 52 76 61 54 77 62 55 78 63 56 79 64 57 78 64 55 76 62 51 76 62 49 78 62 47 77 61 45 78 61 41 77 60 40 75 57 35 76 58 34 71 53 29 71 53 29 67 49 27 67 49 29 63 46 28 64 45 28 64 47 31 63 45 33 62 45 37 64 47 37 64 47 39 64 47 37 64 48 35 
71 58 68 73 57 67 77 57 59 76 56 57 76 52 50 73 52 47 71 52 45 70 51 44 68 49 45 66 47 40 65 46 39 64 45 39 64 45 39 65 48 40 65 46 40 62 45 38 62 45 38 58 41 34 54 39 32 52 37 30 56 39 31 58 41 31 58 42 29 59 43 28 59 43 28 59 43 28 59 43 27 58 42 26 57 42 23 56 40 24 56 41 22 55 40 21 54 38 22 54 38 22 53 37 21 53 40 23 53 40 23 54 38 22 53 37 21 53 40 23 54 41 24 54 41 24 54 41 24 54 41 24 54 41 24 54 41 24 53 40 23 54 41 22 56 41 22 57 42 23 56 45 25 55 42 23 56 45 27 57 44 28 56 43 34 56 44 32 56 42 33 52 39 31 47 37 27 48 38 28 49 39 29 52 42 30 53 43 31 62 53 38 61 52 37 61 53 34 62 54 35 63 54 37 65 56 41 65 56 41 68 56 44 68 55 46 72 59 50 72 59 50 76 62 53 77 62 55 78 64 55 79 64 57 81 64 57 81 64 56 78 64 53 80 64 51 78 62 47 79 62 44 78 61 43 77 59 39 76 58 38 73 55 33 75 54 35 70 52 32 68 51 33 66 47 32 67 48 31 65 48 32 67 49 39 67 49 39 65 49 36 65 48 38 63 47 34 63 47 34 
71 58 68 71 58 67 76 55 60 76 56 57 76 52 52 75 54 49 73 53 46 70 50 43 68 49 43 66 47 40 65 46 39 63 44 38 64 45 39 63 46 38 64 47 40 63 46 39 62 45 38 58 41 34 56 39 32 54 37 30 57 40 30 57 41 28 57 41 28 58 42 29 57 41 26 59 43 28 58 42 26 58 42 26 58 42 26 57 41 25 55 39 23 56 40 24 54 39 20 55 39 23 56 40 24 52 39 22 52 39 20 53 37 21 54 38 22 55 39 23 54 39 20 55 40 19 56 41 22 56 40 24 56 40 24 56 40 24 56 40 24 56 40 24 57 42 23 56 41 22 56 45 27 55 44 26 56 44 28 56 44 28 56 44 32 56 44 32 56 43 34 52 39 31 48 38 28 49 39 29 48 38 28 52 42 30 53 43 31 61 52 37 60 50 38 61 53 34 62 53 36 64 52 36 62 53 38 63 54 39 67 55 43 69 56 47 72 59 50 73 60 51 75 62 54 76 61 54 79 64 59 81 63 59 84 65 61 82 65 58 79 65 54 80 64 51 80 64 51 80 63 47 78 61 43 78 60 40 77 59 39 74 56 34 76 55 36 69 51 31 69 50 33 68 49 32 67 48 33 67 48 34 67 49 37 68 50 40 65 48 38 66 49 39 62 46 33 61 45 32 
72 56 69 72 56 67 76 55 60 75 55 57 76 52 52 74 53 52 73 54 48 70 51 45 68 49 43 65 46 40 64 45 39 62 43 37 63 44 38 62 45 38 63 46 38 59 44 37 61 44 37 57 40 33 53 39 30 51 36 29 57 40 30 60 43 33 58 42 29 59 43 30 58 42 27 57 41 26 58 42 26 58 42 26 57 41 25 58 42 26 59 43 27 58 42 26 57 41 26 57 41 26 56 40 25 55 39 23 54 38 22 53 37 21 53 37 21 52 36 20 54 39 20 55 40 21 56 41 22 57 42 23 58 43 24 59 44 25 58 43 24 57 41 25 57 42 23 58 43 24 56 45 27 57 46 28 55 43 27 54 42 28 54 42 30 55 42 33 54 44 34 51 41 32 50 40 30 52 42 32 52 42 32 55 45 33 55 45 33 59 50 35 59 50 33 63 55 36 61 53 34 62 54 35 62 53 36 62 53 38 67 55 41 68 56 44 71 58 49 72 59 50 77 62 55 79 62 55 81 66 61 83 65 61 84 66 62 84 66 62 83 66 58 82 65 57 81 64 54 81 63 51 79 61 47 79 60 45 78 59 44 75 56 39 79 57 43 72 53 38 71 52 37 69 50 35 69 50 36 67 49 35 69 51 39 69 53 40 66 50 37 66 50 37 61 45 30 61 45 30 
72 56 67 72 56 67 75 54 59 76 56 57 76 52 52 75 54 51 73 54 48 70 51 45 70 51 44 66 47 41 65 46 40 63 44 38 62 43 37 62 45 38 62 45 37 58 43 36 56 41 34 55 41 32 53 39 30 51 36 29 57 40 32 59 42 32 58 42 29 57 41 28 57 41 26 57 41 26 57 41 25 57 41 26 58 42 26 57 41 26 57 41 25 58 42 27 56 40 25 56 40 25 55 39 24 56 40 24 55 39 23 53 37 21 53 37 21 54 38 22 54 39 20 55 39 23 57 42 23 57 42 23 58 43 24 58 43 24 57 42 23 57 41 25 59 44 25 58 43 24 56 44 28 55 43 29 54 42 26 53 41 27 53 41 27 55 42 33 54 44 34 51 41 32 50 40 30 51 41 31 53 43 33 55 45 33 56 46 34 60 51 36 60 51 36 61 53 34 61 53 34 61 52 35 62 53 36 62 53 36 67 55 41 68 56 42 70 57 48 72 59 50 77 63 54 77 63 54 83 66 59 83 65 61 85 67 63 84 66 62 84 67 60 83 66 58 81 64 56 82 64 50 81 61 50 80 61 47 81 59 45 79 57 43 79 57 43 74 55 40 72 53 38 71 52 37 70 51 37 69 50 36 70 52 38 68 52 39 66 50 37 65 49 36 62 46 31 62 46 31 
68 56 68 70 57 67 75 54 59 75 55 57 76 52 52 75 54 51 76 55 50 73 52 47 71 52 46 68 49 43 66 47 41 62 43 37 62 43 37 59 42 35 59 42 34 55 40 33 56 39 31 54 37 29 50 36 27 50 36 27 55 38 30 57 40 30 56 39 29 55 39 26 55 39 26 56 40 25 56 40 25 58 42 27 57 41 26 57 41 26 56 40 25 56 40 27 56 40 27 56 40 27 56 40 27 56 40 25 57 41 25 55 39 23 55 39 23 55 39 23 55 39 23 55 39 24 56 40 24 57 42 23 57 42 23 59 44 25 58 43 24 58 43 24 58 43 24 59 44 25 56 44 28 56 44 28 52 40 24 53 41 27 51 39 27 54 41 32 53 43 33 53 43 34 51 41 32 53 43 33 54 44 34 56 46 34 57 48 33 60 53 37 61 54 36 60 52 33 60 52 33 61 53 34 61 52 35 62 53 36 65 56 39 68 56 42 69 60 45 72 58 47 76 62 53 77 63 54 82 65 58 83 66 59 85 68 61 86 69 62 87 68 62 84 67 60 82 65 57 82 64 54 81 61 52 80 60 51 82 59 51 80 58 47 81 59 48 77 55 42 75 56 42 71 52 38 73 51 38 70 51 37 70 51 37 68 52 37 67 51 36 65 49 34 62 46 30 62 46 30 
71 55 68 71 55 68 74 53 58 75 55 57 76 52 52 74 53 50 73 54 48 69 50 44 69 50 46 65 46 40 65 46 40 60 43 36 61 42 36 59 42 35 58 41 33 57 40 33 54 40 31 51 37 28 51 37 26 50 36 27 54 37 27 57 40 30 57 40 30 57 40 30 56 40 27 56 40 27 58 42 27 57 41 28 57 41 26 57 41 26 57 41 26 56 40 27 56 40 27 55 39 26 55 39 26 56 40 25 56 40 24 56 40 24 56 40 24 55 39 23 55 39 23 56 40 24 57 41 25 57 42 23 58 43 24 57 42 23 57 42 23 57 42 23 58 43 24 60 45 26 58 44 31 56 44 28 54 42 26 53 41 27 52 40 28 53 40 31 54 44 34 52 42 33 51 41 32 52 42 32 54 44 35 56 46 34 56 49 33 61 54 38 61 54 36 60 52 33 60 51 34 59 51 32 60 52 33 61 52 35 64 55 38 68 56 40 70 58 44 73 59 48 76 62 51 77 63 54 81 64 57 83 66 59 83 68 61 86 69 62 87 68 62 85 68 60 83 66 59 82 63 56 82 62 55 82 62 53 81 58 50 81 59 48 81 59 48 78 56 43 75 56 42 72 53 39 74 52 39 71 52 38 71 52 37 70 52 38 67 51 35 66 50 34 63 47 31 62 46 30 
69 55 68 68 56 66 74 53 60 73 52 57 76 51 54 72 51 50 69 50 44 68 49 43 66 47 41 64 45 38 63 44 38 60 43 36 59 42 35 57 40 33 58 41 33 57 40 32 55 41 32 54 40 31 55 41 32 54 40 31 54 40 29 55 38 28 57 40 30 59 41 31 59 43 30 60 43 33 61 45 32 59 43 28 58 42 27 57 41 26 56 40 27 55 41 28 55 38 28 56 39 29 55 38 30 57 41 26 56 40 24 56 40 24 56 39 23 56 39 23 56 40 24 55 39 23 56 40 24 55 40 21 54 39 20 54 39 20 55 40 21 55 40 21 57 42 23 59 42 24 57 45 29 57 45 29 54 42 28 53 41 27 53 41 27 54 41 32 55 45 36 51 41 32 49 39 30 51 41 29 53 43 33 56 48 35 57 49 38 61 54 38 60 53 35 56 51 32 58 49 32 58 49 32 60 52 33 62 50 34 63 54 37 66 54 38 70 58 42 72 58 45 76 62 51 75 61 50 80 65 58 80 66 57 83 68 61 86 69 61 88 69 63 86 67 61 85 66 60 83 62 57 82 61 56 83 60 54 81 61 54 78 58 51 81 58 52 77 57 48 79 57 46 73 54 40 72 53 39 72 53 39 71 54 38 71 55 39 69 53 37 66 50 34 64 47 31 64 47 29 
70 56 69 69 56 66 72 53 57 74 53 58 74 53 52 70 51 47 68 51 44 67 50 43 66 49 42 62 45 38 61 44 37 60 43 36 59 42 35 59 42 35 59 42 35 59 42 35 56 42 33 59 44 37 55 41 32 55 41 32 55 41 30 54 40 31 57 40 30 57 40 30 59 43 30 57 41 28 58 42 29 58 42 29 58 42 29 57 41 28 56 40 27 53 39 26 53 39 28 52 38 27 52 38 27 53 40 24 54 41 24 53 40 23 53 40 23 54 41 24 53 42 22 54 41 22 53 40 21 54 41 22 55 42 23 55 42 23 57 42 23 57 42 23 57 42 21 58 43 22 56 44 30 55 43 31 53 41 29 53 41 29 52 39 30 54 41 32 54 44 35 52 42 33 52 42 33 52 42 32 52 42 32 55 48 32 56 49 33 61 54 35 60 53 34 58 50 31 58 50 31 59 51 32 62 54 35 62 54 35 64 56 37 65 57 38 69 57 41 70 58 42 71 62 47 76 62 51 81 67 58 83 66 58 85 68 61 85 71 62 89 70 63 88 69 63 89 69 62 84 65 58 84 64 57 81 61 54 82 62 55 80 60 51 80 60 51 77 57 46 77 57 46 76 54 43 73 53 44 73 54 40 71 54 36 70 55 34 68 53 32 67 52 31 63 48 29 64 49 28 
70 56 69 70 57 67 74 55 59 74 54 56 74 53 52 71 52 48 67 50 43 67 50 43 64 47 40 63 46 39 61 44 37 60 43 36 60 43 36 60 43 36 59 44 37 58 43 36 58 43 36 58 43 36 57 42 35 56 41 34 56 42 33 55 41 32 55 41 32 57 40 32 57 40 30 57 41 28 58 42 29 58 42 29 57 41 28 57 41 28 54 40 27 54 40 29 52 40 28 51 39 27 50 38 26 52 40 24 52 41 23 51 39 23 52 40 24 52 41 23 52 41 23 54 41 24 54 41 24 57 44 27 57 44 25 57 44 25 58 43 24 58 43 22 56 41 20 57 42 21 54 42 30 55 41 30 53 39 30 53 40 31 52 39 31 54 41 35 54 43 37 53 42 36 52 42 33 52 42 32 51 41 29 55 48 30 56 49 30 60 54 32 59 53 31 57 49 28 58 50 29 61 53 32 63 55 36 63 55 36 64 56 37 64 56 37 67 59 40 66 57 40 73 61 47 75 63 51 80 66 57 81 67 58 85 68 61 87 70 62 90 71 65 89 70 64 89 70 63 87 67 60 85 65 58 82 64 54 82 62 53 81 63 51 81 61 52 78 58 47 78 58 47 75 55 44 75 55 44 73 55 43 71 54 36 67 52 29 66 51 28 66 51 28 64 49 26 63 48 27 
71 57 70 71 57 70 74 55 61 73 54 56 73 51 53 70 50 49 68 50 46 67 50 43 66 48 44 64 45 41 63 46 39 62 45 38 59 44 37 60 43 36 57 42 35 58 43 36 58 43 36 58 43 36 58 43 36 58 43 36 57 43 34 57 43 34 57 43 32 56 42 31 57 40 30 59 42 32 60 44 31 58 42 29 58 42 29 58 42 29 56 42 29 55 41 28 52 40 28 52 40 28 50 38 26 52 40 24 53 41 25 52 40 24 53 41 25 53 42 24 53 40 21 55 42 23 56 43 24 59 44 25 59 44 25 59 44 23 59 44 23 59 44 23 59 44 21 58 43 22 56 42 31 54 42 28 53 41 29 54 40 31 53 40 32 54 41 33 53 42 36 53 42 36 52 42 33 53 43 33 53 43 31 57 50 32 58 51 33 59 52 33 59 53 31 57 49 28 61 50 30 60 52 31 62 54 33 63 55 34 63 57 35 65 58 39 67 59 40 67 58 41 73 61 47 75 61 48 80 66 57 80 66 57 86 69 62 86 69 61 90 70 63 89 70 63 90 71 64 88 69 62 88 68 59 84 66 56 84 66 54 83 65 55 83 63 52 81 61 50 79 59 50 75 56 42 75 55 44 74 55 41 70 55 36 67 52 29 67 52 29 64 52 28 64 49 26 62 47 26 
70 56 69 70 56 69 74 55 61 73 54 58 72 51 50 70 50 49 67 49 45 66 49 42 65 47 43 64 46 42 63 46 39 62 45 38 60 45 38 60 43 36 59 44 37 57 42 35 57 42 37 58 43 38 58 43 36 59 44 37 57 43 34 56 42 33 56 42 31 55 41 28 59 42 32 58 41 31 58 42 29 59 43 30 58 42 29 58 42 29 55 41 28 54 41 25 50 40 28 51 39 27 50 38 26 52 40 24 53 41 25 52 41 23 52 41 23 53 42 24 54 41 24 56 43 26 56 43 24 56 43 24 59 44 25 59 44 23 60 45 22 59 44 23 58 43 22 56 44 22 55 41 28 55 41 28 55 41 28 54 40 31 50 40 31 53 40 34 52 41 37 52 41 35 51 40 34 53 43 33 53 43 33 57 50 34 58 51 33 59 53 31 59 52 33 57 49 28 59 51 28 60 52 31 62 54 33 63 55 34 65 57 36 65 57 38 67 59 40 69 57 41 73 61 47 74 62 48 82 65 57 83 66 58 86 69 61 86 69 62 89 70 63 90 70 63 90 69 64 89 69 62 86 67 60 86 66 57 86 68 58 84 66 56 85 65 54 81 63 51 81 62 48 75 56 42 75 56 42 73 55 43 71 54 36 69 54 31 67 52 29 66 51 28 63 48 27 63 48 27 
70 56 71 71 57 70 73 54 60 72 53 57 72 51 50 68 48 47 67 48 44 65 47 43 65 47 43 63 45 41 64 46 42 62 44 40 60 45 40 60 42 38 57 42 37 56 41 36 56 41 36 56 41 36 58 43 38 59 44 39 58 43 36 57 43 34 57 43 34 57 43 34 59 42 32 60 43 33 60 44 31 59 43 30 60 44 31 59 43 28 56 42 29 55 41 28 51 42 27 52 40 28 52 38 27 53 41 25 53 42 24 54 41 24 54 41 24 54 41 24 55 42 23 55 42 25 56 43 24 59 44 23 60 45 24 59 44 23 61 44 24 60 43 23 59 44 21 62 46 23 56 43 27 56 43 27 56 42 29 57 43 32 54 39 32 54 41 33 51 40 34 51 40 34 52 41 35 54 44 34 55 45 35 59 52 36 59 52 36 59 52 33 59 52 33 59 51 30 60 52 29 60 52 29 62 54 31 63 55 34 63 55 34 65 57 36 69 58 40 70 59 41 74 60 47 76 62 49 82 65 55 83 66 58 87 68 62 86 69 62 90 70 63 90 70 63 91 71 64 90 70 63 88 68 59 87 67 58 87 67 56 83 67 54 84 66 54 80 62 48 79 63 48 75 56 41 73 55 41 71 55 40 71 56 37 70 55 32 70 55 32 68 53 30 64 49 28 63 48 27 
71 57 72 72 56 69 74 55 61 73 54 56 72 50 52 68 50 48 66 47 43 65 47 43 64 46 42 64 46 42 63 45 41 62 44 40 60 45 40 57 42 37 57 42 37 57 42 37 57 42 35 58 43 40 58 43 38 58 43 40 58 43 36 58 43 36 57 43 34 57 42 35 59 42 32 60 43 33 60 44 31 60 44 31 59 43 30 58 44 31 56 42 29 54 42 28 53 41 27 53 41 29 52 40 28 52 40 24 54 41 24 54 41 25 55 42 25 55 42 25 56 43 24 55 42 23 56 44 22 59 44 23 59 44 23 57 45 23 61 44 24 61 44 24 59 44 23 60 44 21 55 42 25 56 43 26 57 43 30 56 42 29 52 39 30 53 40 32 51 40 34 51 40 34 52 41 35 54 44 35 55 45 35 60 53 37 60 53 37 60 53 35 58 51 32 61 50 28 59 51 28 59 53 31 61 53 30 63 55 32 65 57 36 65 57 38 69 58 40 71 60 42 75 62 46 78 60 46 82 65 55 83 66 59 86 67 61 89 69 62 90 70 63 90 70 63 90 70 63 89 69 60 89 69 60 86 66 57 87 69 59 85 65 54 83 65 51 81 62 48 78 60 46 75 55 44 74 55 41 72 55 39 72 57 38 71 56 35 70 54 31 68 56 32 64 49 28 64 49 28 
70 56 71 73 56 72 73 53 62 73 54 60 71 51 52 69 49 50 66 48 46 64 49 44 66 48 46 64 46 44 62 44 42 59 44 41 59 44 41 59 44 41 59 44 39 59 44 39 59 43 43 59 44 41 59 44 41 58 43 40 59 44 39 59 44 37 58 44 35 58 44 35 61 44 34 60 43 33 61 44 34 61 45 32 61 45 30 58 44 31 57 43 30 55 43 29 55 41 28 54 42 28 53 41 27 54 41 24 55 39 23 57 41 25 54 41 24 55 42 25 58 43 24 60 45 26 59 44 25 60 43 25 60 43 23 62 45 25 62 45 25 62 46 23 63 46 26 63 47 24 57 44 27 57 44 25 58 45 29 55 43 27 52 40 28 52 39 30 51 40 34 51 40 34 53 43 34 55 45 36 56 46 37 61 53 40 62 54 41 61 54 38 61 54 36 65 54 34 63 55 34 61 55 33 63 55 34 63 55 32 65 57 36 66 58 35 72 61 43 68 60 41 75 61 48 78 62 47 82 65 55 83 65 55 88 68 61 88 71 63 90 69 64 89 69 62 89 69 62 88 68 61 88 68 59 84 64 53 85 66 52 82 64 52 82 64 52 81 63 49 78 60 46 75 58 42 75 56 41 74 57 41 72 57 38 72 57 36 66 54 32 67 52 31 63 48 27 59 47 25 
68 56 70 68 54 67 72 52 61 73 53 62 72 52 54 70 50 51 68 48 47 67 49 47 66 48 46 64 46 42 63 45 41 60 45 42 60 45 42 60 45 40 60 45 40 60 45 42 59 44 41 59 44 41 60 45 42 60 45 42 59 45 36 60 45 38 60 46 37 59 45 36 61 44 34 61 44 34 61 45 32 60 44 31 60 44 31 60 44 31 57 44 28 56 43 27 55 43 29 54 42 26 55 43 29 53 40 24 54 41 24 55 42 25 55 42 25 57 41 25 58 43 24 56 43 24 58 43 24 59 44 25 61 44 24 60 43 23 62 46 23 62 46 23 63 46 26 63 46 26 57 46 26 58 45 26 55 43 27 55 41 28 55 38 28 53 40 32 52 42 33 53 42 36 53 42 36 56 46 37 57 47 38 62 54 41 63 55 42 62 55 37 62 55 36 65 57 34 63 55 34 63 56 30 64 56 33 64 56 33 64 56 35 66 58 37 70 59 41 69 61 42 75 63 47 77 63 50 84 66 56 85 67 57 89 68 63 91 70 65 93 69 65 92 69 63 92 69 63 87 68 61 87 67 60 86 66 57 85 65 56 84 65 51 82 64 52 80 62 48 79 62 46 76 58 44 76 59 43 74 57 39 74 57 39 73 58 37 68 53 32 66 51 28 62 47 28 61 46 27 
68 55 72 68 56 70 72 52 61 74 55 61 73 53 55 72 52 53 70 52 50 68 50 50 68 50 48 67 49 47 65 47 45 64 46 44 65 47 45 65 47 45 64 46 44 62 47 44 62 47 44 63 48 45 63 48 45 63 48 45 61 46 41 60 45 38 59 44 37 59 45 36 62 45 35 62 45 35 61 45 32 60 44 31 60 44 31 60 44 31 58 44 31 57 43 30 55 43 29 55 43 29 53 41 27 54 41 25 54 41 24 55 42 25 54 41 22 56 43 26 58 42 26 57 44 27 57 44 25 57 44 25 60 45 24 59 44 23 61 46 25 62 45 25 63 47 24 64 48 25 59 48 28 59 46 27 56 43 26 55 42 26 52 38 27 54 41 32 52 42 33 54 44 35 54 44 35 56 46 37 57 47 37 62 54 41 63 56 40 64 57 39 64 57 41 67 59 38 66 58 37 66 58 35 65 57 36 66 58 35 67 59 38 69 61 42 73 60 43 74 61 45 78 62 47 80 64 51 85 67 57 87 67 58 91 67 63 90 69 64 93 69 67 92 68 64 92 68 64 91 67 63 88 68 61 86 67 60 86 65 60 85 65 54 83 65 51 82 64 50 81 63 49 79 62 46 77 61 45 77 60 44 74 59 40 71 59 35 68 53 32 66 51 30 62 47 28 60 47 28 
69 56 73 68 56 70 72 55 65 74 55 61 73 52 57 71 53 53 69 51 51 68 50 50 69 51 49 66 48 48 66 48 48 65 47 45 65 47 45 65 47 47 64 46 46 63 48 45 64 48 48 63 47 47 62 46 46 64 48 48 62 47 42 60 45 38 60 45 38 60 46 37 61 44 34 60 43 33 60 44 31 61 44 34 60 44 31 60 44 31 58 44 31 58 44 31 56 44 30 55 43 29 55 43 31 55 41 28 54 41 25 55 42 25 55 42 25 56 43 26 56 43 26 57 44 27 59 44 25 59 44 25 59 44 23 58 43 22 62 47 26 63 48 27 62 45 25 63 46 26 59 46 29 58 45 28 55 42 26 55 41 28 52 39 30 54 41 32 53 43 34 54 44 35 54 44 35 57 47 37 58 48 38 63 56 40 64 57 41 65 58 40 65 58 39 69 61 40 68 60 39 67 59 36 67 59 38 67 59 38 67 59 38 69 61 42 73 60 43 74 61 45 79 63 50 81 63 53 85 65 58 86 66 59 92 68 64 92 68 64 94 70 68 92 68 64 92 68 64 91 67 63 90 66 62 87 67 58 86 66 57 84 66 54 84 66 52 82 64 50 81 63 51 78 63 44 78 62 46 74 61 44 75 60 41 72 60 38 67 55 33 65 53 31 61 48 29 60 47 28 
69 56 73 69 57 71 72 55 65 74 54 63 74 53 58 71 52 54 69 51 51 69 51 51 69 51 51 68 50 50 67 49 49 64 48 48 64 48 48 63 47 47 63 47 47 63 47 47 63 47 47 64 48 48 65 49 49 66 50 50 64 49 44 61 46 41 60 45 38 61 46 39 61 44 36 61 44 36 61 45 32 61 45 32 59 43 28 61 45 30 57 43 30 58 44 31 58 44 33 56 44 30 57 45 31 55 43 29 54 42 26 55 43 27 56 44 28 56 44 28 57 44 27 57 44 27 59 43 27 60 44 28 60 45 26 59 44 25 61 46 25 61 46 25 61 46 25 61 46 25 59 46 29 58 45 28 55 43 27 55 43 29 52 39 30 54 41 32 53 43 34 54 44 35 55 45 36 58 48 38 58 48 38 64 57 39 65 58 42 67 60 41 67 60 41 70 62 43 70 62 43 69 61 42 70 62 43 70 62 43 72 61 43 73 62 44 76 63 47 76 63 47 81 64 54 82 64 54 87 67 60 88 67 62 92 68 66 92 68 66 93 67 68 91 66 69 90 66 64 91 67 67 91 67 65 88 68 61 87 68 61 86 68 58 86 68 58 83 65 53 83 65 53 81 65 50 78 62 47 76 60 44 75 60 41 73 60 41 68 56 34 65 52 33 63 50 31 63 50 31 
68 55 72 69 56 73 71 54 64 73 53 62 74 53 58 71 52 54 70 51 53 68 49 51 68 50 50 67 48 50 67 48 50 64 48 48 65 49 49 63 47 48 63 47 48 63 47 47 65 49 50 64 48 48 65 49 50 65 49 49 65 50 45 62 47 42 60 45 38 61 46 39 61 44 36 62 45 37 60 44 31 61 45 32 61 45 30 61 45 29 59 46 30 60 47 31 57 45 29 58 46 30 57 45 29 56 44 30 55 43 29 56 44 28 56 44 28 56 44 28 58 45 29 57 44 27 57 44 27 57 44 27 58 46 24 58 45 26 59 46 27 61 46 27 61 46 27 59 46 27 60 47 30 58 45 28 55 43 27 54 42 28 52 39 30 54 41 32 54 44 35 54 44 35 55 45 36 59 49 39 59 49 37 65 58 42 67 60 42 67 61 39 68 62 40 69 61 42 71 63 44 71 63 44 71 63 42 71 63 44 74 63 45 73 62 44 76 62 49 77 63 50 82 65 55 84 65 58 87 67 60 88 67 62 92 68 66 92 68 68 91 67 67 91 67 67 90 66 66 90 66 62 91 67 63 90 70 63 89 69 62 88 68 59 86 66 57 84 66 54 82 66 53 80 64 49 79 63 48 76 60 44 75 59 43 73 61 39 67 55 33 66 53 34 63 50 31 63 50 31 
69 56 73 69 56 73 73 56 66 75 55 64 74 53 58 73 53 55 70 51 53 69 50 52 69 50 52 67 48 50 68 49 51 66 47 49 66 47 49 66 47 49 65 46 48 63 47 48 64 48 49 64 48 49 65 49 50 66 50 51 64 49 46 63 48 43 61 46 41 61 46 39 61 44 36 61 44 36 61 45 32 61 45 32 60 44 29 62 46 31 60 47 31 60 47 31 59 47 31 59 47 31 59 47 31 58 46 32 56 47 32 55 46 31 56 47 32 56 46 34 58 44 31 58 45 29 58 45 29 56 43 27 58 45 28 58 45 28 57 46 28 58 45 26 58 45 26 58 45 28 58 45 29 57 44 27 55 43 29 54 42 30 53 40 31 54 41 33 52 42 33 53 42 36 54 44 35 58 48 38 62 52 40 66 59 41 67 60 41 67 61 39 68 61 42 71 63 44 72 64 45 72 63 46 73 64 47 74 66 47 76 64 48 76 64 50 79 65 52 79 65 54 86 67 60 86 66 59 91 67 63 90 66 64 94 68 69 92 66 67 92 67 70 90 65 68 90 66 66 90 66 66 91 67 65 90 69 64 90 66 62 87 68 61 87 68 61 81 67 54 84 66 54 81 65 52 82 64 50 75 62 46 73 60 43 69 56 37 67 54 35 66 53 34 65 52 35 65 52 35 
67 54 71 68 55 72 73 53 64 73 53 64 74 53 58 72 51 56 70 51 53 70 51 53 69 50 52 68 49 51 67 48 50 66 47 49 67 48 50 67 48 50 67 48 50 66 50 51 65 49 50 65 49 50 65 49 50 67 51 52 64 49 46 63 48 43 62 47 42 62 47 40 62 45 37 61 44 36 61 44 34 62 45 35 61 45 30 62 46 31 60 47 31 60 47 31 60 48 32 59 47 31 60 48 32 57 47 35 58 48 36 57 47 35 57 47 35 57 47 35 59 45 32 57 45 31 57 45 29 57 44 28 57 45 29 58 45 28 58 45 28 58 45 28 58 45 28 58 45 28 57 43 30 57 44 28 57 43 32 55 43 31 54 41 32 54 41 33 53 42 36 54 44 35 56 46 37 59 49 39 61 51 41 67 60 41 68 61 42 68 62 38 68 62 40 72 63 46 72 63 46 72 63 46 74 65 48 74 66 47 77 65 49 78 66 50 80 66 55 83 66 56 87 67 60 88 68 61 93 69 67 93 67 66 94 68 69 93 67 70 93 67 70 92 66 69 90 65 68 90 66 66 91 67 67 89 70 66 89 68 63 86 67 60 88 69 62 84 68 55 85 67 55 83 67 52 81 65 50 77 64 48 73 60 43 70 57 38 69 56 37 67 54 35 67 54 37 66 53 34 
68 55 72 67 54 71 71 54 64 73 53 64 73 52 57 72 53 57 73 54 56 69 53 54 69 50 52 68 49 51 67 48 50 65 49 50 64 48 49 66 50 51 66 50 51 67 51 52 67 51 52 66 50 51 66 50 51 66 50 51 65 50 45 63 48 43 63 48 41 62 47 40 63 46 39 62 45 37 61 44 34 61 45 32 62 46 31 62 46 31 60 47 31 60 47 31 60 47 31 62 49 33 60 48 32 58 48 36 58 48 36 59 49 37 57 47 35 57 47 35 56 47 32 55 46 31 56 47 32 58 46 30 57 45 29 57 44 28 57 46 28 58 45 28 58 45 28 58 45 28 56 42 29 57 43 30 57 43 32 55 43 31 55 42 33 54 41 33 52 42 33 54 43 37 55 45 36 61 51 39 62 53 38 68 61 42 69 63 41 67 61 35 68 62 38 70 61 46 72 63 48 74 65 48 75 66 51 75 66 51 79 67 53 80 67 51 81 67 56 81 67 56 87 68 62 89 68 63 94 70 68 93 69 69 94 68 69 94 68 71 94 69 73 93 67 70 90 65 68 92 67 70 92 68 68 90 69 66 90 69 66 87 68 62 89 69 62 87 69 59 86 69 59 85 69 54 83 67 54 78 64 51 76 60 44 69 57 35 70 57 38 70 57 38 69 56 40 69 56 39 
70 56 69 72 56 67 73 56 64 74 54 63 75 54 59 75 53 56 73 53 55 72 54 54 72 54 54 70 50 51 68 50 50 68 50 50 66 50 50 71 53 53 69 53 53 68 52 52 68 52 52 69 51 51 66 50 50 66 48 48 66 51 46 67 50 43 65 48 41 64 47 39 63 46 36 62 45 35 61 45 30 61 45 30 61 45 30 61 45 30 58 45 29 60 47 30 63 47 31 61 48 31 61 49 33 61 47 34 60 48 34 61 49 35 61 49 35 62 50 36 60 48 34 60 48 32 60 48 32 58 47 29 59 47 31 58 46 30 58 46 30 56 47 30 56 44 30 57 45 31 55 45 36 54 44 35 53 42 36 52 41 35 53 42 38 54 43 39 56 42 41 56 42 39 58 44 41 63 53 44 64 54 44 71 62 47 70 61 46 70 62 41 69 62 43 72 64 43 74 66 47 76 65 47 78 67 49 80 67 50 81 68 52 84 68 53 87 71 58 88 70 60 91 71 64 91 70 65 92 71 70 91 70 69 93 68 71 92 67 71 93 68 74 93 67 76 92 67 73 93 68 74 93 67 76 93 68 71 93 68 71 93 69 67 90 69 66 90 70 63 89 69 62 89 67 56 85 65 54 83 64 50 77 61 45 71 60 38 73 61 39 72 60 38 68 57 37 68 57 37 
72 56 67 70 57 67 72 55 61 74 54 63 75 55 57 75 55 57 73 54 56 74 54 55 72 54 54 69 51 51 69 51 51 68 50 50 68 50 50 69 55 54 73 55 55 71 55 55 69 53 53 68 50 50 66 50 50 68 50 48 65 50 45 67 50 43 65 48 40 64 47 39 63 46 38 62 45 35 61 45 30 60 44 29 59 43 27 60 44 29 58 45 29 59 46 30 61 48 31 62 49 33 63 50 34 61 47 34 60 46 33 63 49 36 62 48 35 61 49 33 62 50 34 60 48 32 60 48 32 59 47 31 59 47 31 59 47 31 59 47 33 55 46 31 56 44 30 56 44 32 54 43 37 53 42 36 52 41 37 53 42 38 54 43 41 53 41 41 54 43 41 54 43 41 55 44 40 62 52 43 64 54 44 71 62 47 71 61 49 71 60 42 72 61 43 73 65 44 75 64 44 76 65 47 79 66 49 80 67 50 83 67 52 86 68 54 89 69 58 90 70 59 91 71 64 91 71 64 91 70 69 90 69 68 91 69 71 90 68 71 93 67 76 93 67 78 93 67 76 94 68 77 94 68 77 94 69 73 94 69 73 93 69 69 94 70 68 93 70 64 92 69 63 89 67 56 88 66 55 85 63 50 79 62 46 73 61 39 73 60 41 73 60 41 69 56 37 68 57 37 
75 57 69 74 58 68 76 56 65 76 57 63 77 56 61 75 56 58 73 54 56 73 55 55 72 53 55 71 52 54 70 51 53 70 52 52 69 51 51 73 55 55 72 54 54 68 54 53 68 52 52 66 50 50 67 52 49 66 51 48 68 51 44 66 49 42 66 49 41 64 47 39 62 45 37 62 46 33 62 46 31 61 45 32 61 45 30 60 44 29 60 44 28 59 46 29 62 46 31 65 49 34 65 49 34 62 48 35 62 48 35 63 50 33 63 50 34 63 51 35 62 50 34 61 49 33 61 49 33 60 48 32 60 48 32 59 47 31 59 47 33 57 48 33 58 46 34 58 46 34 53 42 36 53 42 36 51 40 36 53 42 38 56 45 43 56 45 43 57 45 45 61 47 46 61 47 46 66 56 47 67 57 48 74 62 50 75 63 49 72 64 45 72 64 45 74 66 45 75 67 46 77 66 48 80 67 50 81 68 51 85 69 54 86 70 55 89 71 61 91 71 62 90 69 64 91 70 65 92 71 70 92 71 70 92 70 72 95 70 74 91 68 76 92 69 77 93 70 78 93 70 78 92 70 73 92 70 73 91 69 72 91 70 69 92 71 68 91 71 64 93 70 64 89 69 58 87 67 56 85 66 52 78 62 46 73 62 42 75 62 43 74 61 42 72 59 40 69 58 38 
76 59 69 76 59 69 77 58 64 77 56 63 78 55 61 75 56 58 72 56 57 73 55 55 72 54 54 71 53 53 70 52 52 70 52 52 70 52 52 72 54 54 71 55 55 69 53 53 67 51 51 66 50 50 69 51 51 67 52 49 69 51 47 66 49 41 66 49 41 64 47 39 63 46 36 63 46 36 62 46 30 62 46 31 61 45 29 61 45 29 60 42 28 59 46 29 63 47 31 64 48 32 65 49 33 63 49 36 63 49 36 63 50 34 63 50 34 62 50 34 61 49 33 62 50 34 61 49 33 60 48 32 60 48 32 60 48 32 60 48 34 57 48 33 57 48 33 56 46 34 53 42 36 53 42 36 52 41 37 52 43 38 55 44 42 56 44 44 57 45 45 57 45 45 59 48 46 66 55 49 67 57 48 73 63 51 73 64 49 73 62 44 73 62 44 74 66 47 75 67 46 77 66 46 79 66 49 84 68 52 84 68 53 88 69 55 89 71 61 91 71 62 94 70 66 91 70 65 92 71 70 93 72 71 93 71 73 92 70 73 91 68 76 92 69 77 92 69 77 93 70 76 92 69 75 91 68 74 91 69 72 91 70 69 92 71 68 91 71 64 91 68 62 88 68 57 87 67 56 85 66 52 80 64 48 75 62 43 75 62 43 74 61 42 70 59 39 69 58 38 
