P3
100 50
255
38 45 74 38 45 74 37 44 73 35 44 73 38 45 74 39 44 76 37 44 73 36 41 71 33 39 71 34 38 67 33 37 66 30 35 64 31 36 65 31 36 66 30 35 64 28 34 66 27 33 65 27 34 63 27 34 63 26 33 62 28 33 63 29 34 63 32 36 65 33 36 67 32 36 61 32 37 59 32 36 61 33 37 62 35 40 62 35 39 64 35 39 64 35 39 64 33 37 62 35 39 64 35 39 64 34 38 63 35 39 64 32 38 60 32 36 61 31 35 60 31 35 60 29 35 61 29 33 60 26 33 59 29 34 63 27 32 61 26 33 61 26 33 62 27 34 63 25 34 63 28 37 68 28 37 68 29 38 71 28 37 70 25 36 68 27 33 67 25 34 67 24 33 64 25 34 67 25 34 63 28 33 63 25 32 60 26 33 61 25 32 60 25 32 58 26 33 61 27 34 62 28 35 63 28 35 63 27 34 62 27 34 62 27 34 60 27 34 62 26 33 61 26 33 59 26 33 61 26 33 61 25 32 60 25 32 60 25 32 60 25 32 60 25 32 60 24 31 59 26 33 61 27 32 61 26 33 61 27 34 62 27 32 61 26 33 62 25 34 63 26 33 61 27 34 63 26 33 62 26 33 62 23 34 64 24 33 64 26 35 64 29 34 64 28 35 64 28 35 64 
38 44 76 37 44 73 36 43 72 37 43 75 38 43 75 38 43 73 38 43 75 35 41 73 33 39 71 33 38 70 33 37 64 32 36 65 31 36 66 31 36 66 30 35 65 29 36 65 28 35 64 28 34 66 28 35 64 26 33 62 28 33 62 30 35 64 32 37 66 32 37 66 32 36 61 32 36 61 33 37 62 33 38 60 35 40 62 35 39 64 35 40 62 34 38 63 34 38 63 34 38 63 35 39 66 33 38 60 34 38 63 31 37 59 31 37 61 31 37 63 30 36 60 30 35 64 31 35 64 28 34 60 27 32 61 26 33 61 26 33 62 26 33 62 25 34 65 26 35 66 27 36 69 26 37 69 28 37 70 28 37 70 25 35 70 27 36 69 26 35 66 25 34 65 27 34 63 27 34 63 26 33 62 26 33 59 26 33 61 25 32 58 25 33 56 28 35 63 28 35 63 29 36 64 27 34 62 26 33 61 27 34 62 27 34 62 27 34 62 26 33 61 26 33 61 26 33 61 25 32 60 25 32 60 25 32 60 24 31 59 24 31 59 24 31 59 24 31 59 25 32 60 26 33 61 27 32 61 27 32 61 26 33 61 27 32 61 27 34 63 27 34 63 26 32 64 27 34 63 26 33 62 27 34 63 25 34 63 28 34 66 30 36 68 29 35 67 28 35 64 
38 42 77 38 42 77 37 41 76 36 40 75 35 41 75 36 41 73 36 40 75 35 39 74 34 40 74 33 37 66 33 37 66 32 37 67 33 38 67 32 39 67 31 38 67 30 37 66 30 37 66 26 35 64 27 36 65 29 34 64 28 35 63 29 36 64 31 38 66 32 39 65 33 39 63 33 38 60 33 37 62 35 39 64 35 39 64 35 40 62 35 39 64 35 39 64 33 38 60 34 39 61 34 38 63 34 39 61 34 39 61 32 36 61 31 36 58 31 37 63 28 39 61 28 34 60 26 33 59 26 32 58 25 32 60 25 32 61 27 34 63 25 34 63 26 37 67 25 36 66 27 38 70 27 38 70 26 37 69 27 38 70 27 38 70 27 35 71 27 36 69 25 34 65 25 34 65 26 33 61 25 32 60 25 30 59 24 31 57 24 31 59 25 30 59 25 32 60 27 34 62 28 35 63 27 34 62 26 33 61 26 33 61 26 33 61 26 33 61 25 32 60 24 31 59 25 32 60 24 31 59 24 31 59 23 30 58 24 31 59 24 31 59 25 32 60 25 32 60 25 32 60 27 32 61 26 31 60 25 30 59 26 33 61 26 33 61 26 33 62 26 33 62 26 33 62 26 33 62 27 34 63 27 33 65 25 34 63 27 36 67 28 37 66 27 34 63 28 35 64 
38 43 75 36 42 74 36 41 73 36 42 74 35 41 73 36 41 73 36 40 75 35 39 74 34 38 73 33 37 66 33 37 64 32 37 66 32 37 66 31 38 66 31 38 67 29 39 66 30 37 66 27 36 65 27 37 64 29 36 64 29 36 64 31 38 66 30 37 65 31 38 64 32 38 62 33 38 60 34 38 63 34 38 63 34 38 63 35 40 62 35 39 64 36 40 65 33 39 61 33 39 63 34 40 64 33 39 61 33 38 60 32 36 61 32 37 59 30 36 62 29 36 62 29 35 61 26 33 59 26 33 61 26 33 61 25 32 61 25 34 63 26 35 66 26 37 67 27 36 67 27 38 70 24 37 69 26 37 69 27 38 70 27 38 70 28 37 70 29 38 71 26 35 66 26 35 66 27 34 63 26 33 62 25 32 60 25 32 60 26 31 60 26 31 60 25 32 60 26 33 61 27 34 62 26 33 61 25 32 60 25 32 60 25 32 60 25 32 60 25 32 60 24 31 59 23 30 58 23 30 58 22 29 57 24 31 59 24 31 59 24 31 59 25 32 60 25 32 60 25 32 60 25 32 60 26 31 60 25 32 60 25 32 60 25 32 60 27 34 63 27 34 63 26 33 62 26 33 62 27 34 63 27 33 65 27 36 65 28 37 68 29 36 65 26 33 62 26 33 62 
36 41 73 36 41 73 36 41 73 37 42 74 35 39 74 35 40 70 36 39 70 33 37 72 32 37 69 32 37 66 32 38 64 32 38 64 33 37 64 31 38 66 33 40 68 31 38 66 29 38 67 30 39 68 31 38 66 29 39 66 31 38 66 30 37 63 28 35 61 27 34 60 32 38 62 32 38 60 34 38 63 35 39 64 34 40 64 34 40 64 34 40 64 34 40 64 33 39 63 33 39 63 33 39 63 33 39 63 34 38 63 32 36 61 31 37 59 30 36 62 29 36 64 27 34 62 27 34 62 26 33 61 27 34 63 24 33 62 27 36 65 28 37 68 27 38 70 28 39 69 27 38 70 27 37 72 26 36 71 27 38 70 27 38 70 29 38 71 29 38 69 29 38 69 28 37 68 28 35 64 27 34 62 26 33 61 26 33 59 26 31 60 26 31 60 25 32 60 25 32 60 25 32 60 24 31 59 23 30 58 24 31 59 24 31 59 24 31 59 24 31 59 25 32 60 24 31 59 24 31 59 24 31 59 24 31 59 24 31 59 25 32 60 26 33 61 26 33 61 25 32 60 24 31 59 23 30 58 24 29 58 26 33 61 25 32 60 27 34 63 26 33 62 26 33 62 27 34 63 26 33 62 28 34 66 26 35 64 28 34 66 26 35 64 27 34 63 27 34 63 
36 41 70 37 42 71 38 42 71 37 41 70 36 41 71 36 40 69 36 40 69 35 38 69 33 38 67 33 39 65 32 38 64 31 38 64 32 38 64 30 37 66 30 37 63 27 37 64 28 38 65 28 37 66 29 39 66 29 39 66 33 40 68 31 38 64 30 37 63 30 36 62 32 38 62 32 38 60 36 38 63 35 39 64 35 41 65 34 40 64 36 42 66 35 39 64 35 39 64 35 39 64 35 39 64 34 38 63 34 38 63 32 36 61 31 38 64 30 35 64 28 35 63 27 34 62 28 35 64 27 34 63 27 34 63 27 34 63 27 36 67 29 35 67 26 37 69 27 36 69 24 37 71 27 37 72 27 37 72 26 37 69 26 37 69 29 38 71 29 38 69 30 39 70 28 37 68 29 36 65 27 34 63 27 32 62 26 33 59 26 33 61 27 32 61 25 32 60 25 32 60 24 31 59 24 31 59 24 31 59 24 31 59 25 32 60 24 31 59 25 32 60 24 31 59 24 31 59 24 31 59 24 31 59 25 32 60 25 32 60 26 33 61 26 33 61 26 33 61 25 32 60 25 32 60 24 31 59 25 30 59 26 33 61 26 33 61 27 34 63 28 33 63 27 34 63 26 33 62 27 34 63 27 33 65 26 35 64 27 33 65 25 34 63 26 33 62 26 33 62 
35 40 69 36 41 70 39 43 72 38 42 71 38 42 69 37 41 68 36 40 67 32 37 66 32 38 64 34 38 63 34 38 63 32 38 64 32 38 64 29 36 64 27 34 60 25 35 62 28 35 61 29 36 64 31 38 66 30 40 67 32 39 65 33 40 66 32 38 64 31 37 61 31 37 61 32 38 62 36 40 65 34 40 64 35 39 64 35 39 64 35 39 64 35 39 64 35 41 65 35 41 65 35 41 65 32 40 63 33 39 63 32 38 62 32 38 62 29 35 61 28 35 63 27 34 62 28 35 64 27 34 62 26 35 64 26 35 66 26 35 64 27 36 69 27 38 70 26 37 69 27 37 72 28 36 72 28 38 73 26 37 69 26 37 69 28 37 70 29 38 69 29 38 69 28 37 68 29 36 65 28 35 64 28 34 60 27 34 62 26 33 61 28 33 62 25 32 60 25 32 60 23 30 58 24 31 59 24 31 59 24 31 59 24 31 59 25 32 60 25 32 60 25 32 60 26 33 61 25 32 60 24 31 59 24 31 59 25 32 60 26 33 61 26 33 61 26 33 61 26 33 61 24 31 59 26 31 60 25 32 60 27 34 62 27 32 61 28 35 64 27 34 63 27 32 62 26 33 62 26 33 62 26 33 62 25 34 65 26 33 62 24 33 64 27 34 63 27 34 63 
37 41 66 36 42 66 39 43 68 38 42 67 38 42 67 36 40 65 36 40 65 34 38 65 34 38 63 35 39 64 34 38 63 32 38 62 32 38 62 31 39 62 29 36 62 29 36 64 29 36 62 28 35 63 31 38 64 31 38 64 30 37 63 32 40 63 32 38 64 32 38 62 33 37 62 33 39 63 35 41 65 34 40 64 34 40 64 34 40 64 33 39 63 34 40 64 34 40 64 34 40 64 34 40 64 33 39 63 32 38 62 30 36 60 31 37 61 29 35 61 28 35 63 28 35 63 28 35 63 28 35 63 29 34 64 27 33 65 25 36 66 26 35 66 26 37 67 26 35 68 27 37 72 26 37 69 28 38 73 28 39 71 27 38 70 28 37 70 27 36 67 27 36 67 27 36 67 28 35 64 27 34 63 26 33 61 26 33 59 27 33 59 27 32 61 25 32 60 25 32 58 23 30 59 24 31 59 26 33 61 26 33 61 26 33 61 26 33 61 26 33 61 26 33 61 26 33 61 25 32 60 26 33 61 25 32 60 26 33 61 26 33 61 26 33 61 25 32 60 26 33 61 26 33 61 26 33 61 27 32 61 27 34 62 27 34 62 27 34 63 28 35 64 27 34 63 27 34 63 27 34 63 27 34 63 25 34 65 25 32 61 24 33 64 26 33 62 27 34 63 
37 41 66 37 41 66 38 42 67 39 43 68 40 42 67 36 40 65 36 40 65 36 38 63 34 38 63 35 39 64 32 38 62 34 38 65 34 38 63 32 38 64 32 38 64 29 36 62 30 36 62 28 35 63 30 37 63 32 38 64 32 38 64 32 38 62 33 37 62 34 38 63 35 37 62 33 39 63 34 40 64 35 41 65 34 40 64 34 40 64 34 40 64 34 40 64 34 40 64 34 40 64 33 39 63 31 37 61 32 38 64 30 36 60 31 37 61 30 36 62 28 35 63 28 35 63 29 34 63 28 35 63 27 34 63 27 34 63 26 35 66 26 35 66 26 37 67 25 36 66 28 39 71 25 38 70 27 37 72 27 38 70 25 36 68 27 36 69 27 36 67 27 36 67 26 35 66 27 34 63 27 33 65 26 33 61 25 32 60 27 32 61 27 32 61 25 32 60 25 32 60 24 31 59 25 32 60 26 33 61 25 32 60 25 32 60 25 32 60 26 33 61 26 33 61 25 32 60 26 33 61 26 33 61 26 33 61 25 32 60 25 32 60 25 32 60 24 31 59 24 31 59 24 34 61 27 34 62 28 33 62 28 33 62 28 33 62 28 35 64 27 34 63 25 34 63 27 34 63 28 35 64 27 34 63 25 34 65 24 33 62 26 32 64 27 34 63 26 33 62 
36 40 65 37 41 66 38 42 67 39 41 66 39 41 66 35 39 64 37 39 64 37 39 64 36 38 63 33 39 63 32 36 61 35 39 64 36 38 63 33 39 65 33 39 65 31 37 63 31 37 63 30 37 65 30 37 63 31 37 63 30 36 62 31 37 59 31 35 60 31 35 60 35 39 64 33 39 63 35 41 65 34 40 64 33 39 63 34 40 64 33 39 63 33 39 63 34 40 64 32 38 62 33 39 63 31 37 61 31 39 62 31 37 61 31 37 61 30 36 62 30 36 62 30 35 64 30 34 63 28 35 63 29 36 65 28 35 64 29 36 65 27 36 67 27 38 68 27 38 68 28 39 71 29 40 72 28 38 73 28 39 71 27 38 70 28 37 70 27 36 67 26 35 66 25 34 65 27 34 63 26 33 62 26 31 60 24 31 59 25 32 58 26 31 60 24 31 59 24 31 59 22 29 57 25 32 61 26 33 62 26 33 62 26 33 62 25 32 61 25 32 61 26 33 62 25 32 61 25 32 60 26 33 61 26 33 61 25 32 60 25 32 60 24 31 59 24 31 59 24 31 59 27 32 61 27 32 61 28 33 62 26 33 61 27 34 62 27 34 63 27 34 63 27 34 63 27 34 63 29 36 65 28 35 64 26 35 66 26 35 64 26 35 66 27 34 63 27 34 63 
36 40 65 36 40 65 39 41 66 37 41 66 38 40 63 35 39 64 36 38 63 36 38 63 33 37 62 35 37 62 34 36 59 33 39 63 34 39 61 35 39 64 36 40 67 34 40 66 32 38 64 31 37 63 31 37 63 30 36 62 30 34 61 32 36 61 30 34 59 31 35 60 32 38 62 34 40 64 34 40 64 34 40 64 34 40 66 33 39 63 30 36 60 33 39 63 33 39 61 33 39 63 34 40 64 31 37 61 31 37 61 31 37 61 31 37 61 31 37 63 30 35 65 30 36 62 29 36 64 28 35 63 28 35 63 29 36 64 27 36 67 30 37 66 29 38 71 27 38 68 28 39 71 28 37 70 29 39 74 28 38 73 27 38 70 27 38 70 27 36 67 26 35 64 27 33 65 26 33 62 25 32 60 25 32 60 26 31 60 25 32 60 25 32 60 25 32 60 25 30 59 23 30 58 25 32 60 26 33 61 26 33 62 26 31 60 26 31 60 25 32 60 26 33 61 25 32 61 26 33 62 27 34 63 26 33 62 25 32 61 25 32 61 24 31 60 24 31 59 24 31 59 25 32 60 28 35 61 27 34 62 26 33 61 27 34 62 26 33 61 27 34 63 25 34 63 26 35 64 28 35 64 27 36 67 26 35 64 27 36 65 27 36 67 27 34 63 27 33 65 
36 40 65 38 39 67 37 39 64 37 39 64 36 38 63 35 36 64 34 36 61 35 37 62 35 39 64 35 37 62 34 36 59 33 37 62 33 37 62 34 38 63 34 38 65 34 38 65 33 39 65 31 37 63 31 37 63 31 37 61 32 36 61 32 36 61 32 36 61 32 36 61 32 38 62 32 38 62 34 40 64 34 40 64 31 37 61 31 37 61 31 37 61 31 37 61 32 38 62 32 38 62 33 39 63 31 37 61 31 37 61 32 38 62 31 37 59 32 38 62 31 37 61 31 37 61 31 37 63 31 36 65 29 36 64 30 37 65 31 37 69 32 39 68 32 38 72 30 39 70 29 38 71 30 39 72 29 38 67 29 38 71 27 36 69 26 37 69 26 35 66 25 34 65 26 33 62 25 32 61 26 33 62 27 32 61 27 32 61 26 31 60 26 32 58 25 31 57 26 32 58 25 32 61 25 32 60 23 32 61 25 32 61 24 31 60 25 32 60 23 30 58 24 31 59 22 31 60 25 32 60 25 31 63 26 33 62 27 34 62 26 33 61 25 32 60 24 31 59 26 33 61 26 33 61 29 35 61 28 34 60 26 33 61 26 33 61 26 31 60 25 32 61 24 33 62 27 34 63 26 33 62 26 33 62 28 35 64 27 34 63 25 34 65 27 34 63 27 34 63 
36 40 65 35 39 66 38 40 65 37 39 64 35 37 62 33 37 62 35 37 62 36 38 61 37 39 62 35 37 62 36 36 62 33 37 62 33 37 62 33 37 62 32 38 62 34 38 63 33 37 64 31 37 63 31 37 63 31 35 62 32 36 61 30 34 59 32 36 61 32 36 61 32 38 62 33 37 62 34 40 64 33 39 63 32 36 61 31 35 60 30 36 60 31 37 61 31 37 61 32 38 64 32 38 62 31 37 61 31 37 63 32 38 62 32 38 60 32 38 64 32 38 64 31 37 61 31 37 63 30 35 64 30 37 65 30 37 65 32 39 68 32 39 68 32 38 70 31 40 71 29 38 69 30 39 70 27 37 72 28 39 71 27 38 70 26 37 69 26 35 68 25 34 65 26 33 62 25 32 61 25 32 61 26 33 61 25 32 60 27 32 61 26 31 60 25 32 60 24 31 59 23 30 58 24 31 59 26 33 61 25 32 60 24 31 59 21 30 59 24 31 59 24 31 59 23 30 58 25 32 60 26 33 61 27 32 61 27 32 61 25 32 61 25 32 61 24 31 59 25 32 61 27 32 61 28 34 60 27 34 62 27 34 62 26 33 61 23 30 58 25 32 61 25 32 61 26 33 62 26 33 62 26 32 64 26 32 64 25 34 65 25 34 67 27 34 63 28 33 63 
34 39 68 34 39 68 34 39 68 32 37 66 32 37 66 32 37 66 32 37 66 33 38 67 34 40 66 34 38 67 34 38 67 32 37 66 33 37 64 32 38 64 32 36 63 31 35 62 31 35 64 30 34 63 30 34 63 30 34 63 30 35 64 31 36 65 33 38 67 33 38 67 28 33 62 27 32 61 30 35 64 31 37 63 32 38 64 31 38 64 33 38 67 32 38 64 31 37 63 30 35 64 31 36 66 30 37 65 30 37 65 30 37 65 30 37 66 29 36 65 30 37 66 31 38 67 30 37 65 29 39 66 31 38 64 32 39 65 35 41 67 34 40 66 33 39 63 33 39 63 31 37 61 33 37 62 31 37 61 30 36 60 30 35 64 32 38 64 31 37 63 29 35 61 28 34 60 26 32 58 26 32 56 26 34 57 27 33 57 26 32 56 28 32 57 25 31 55 25 33 56 26 32 56 27 32 54 26 32 54 27 32 54 27 32 54 27 32 54 27 32 54 27 32 54 28 33 55 26 31 53 26 31 53 25 30 52 25 30 52 28 30 53 26 31 51 27 32 54 25 32 58 23 33 60 26 33 61 26 33 61 24 34 61 24 33 62 26 33 62 26 33 62 24 33 62 25 32 61 25 32 61 23 32 61 23 32 63 25 31 63 25 31 63 24 31 60 24 31 60 
34 39 68 34 39 68 33 38 67 33 38 67 31 36 65 32 38 64 30 35 64 32 37 66 33 38 67 33 37 66 33 37 66 33 37 66 32 36 65 33 37 66 33 37 66 31 35 64 31 35 64 30 34 63 28 33 62 29 34 63 30 35 64 30 35 64 32 37 66 33 38 67 28 33 62 28 34 60 29 35 61 30 36 62 32 37 66 32 37 66 32 37 66 31 36 65 31 36 65 31 34 65 30 35 65 30 35 65 29 36 64 30 37 65 30 37 65 29 35 67 29 36 65 30 37 66 30 37 65 31 38 66 31 38 64 32 39 65 33 39 65 34 40 66 33 39 63 33 39 63 31 37 61 31 37 61 29 35 59 31 37 61 31 37 63 32 38 64 31 37 63 29 35 61 28 34 60 28 32 59 25 31 57 27 33 59 27 33 57 27 35 58 27 33 57 26 32 56 26 32 56 26 32 56 27 32 54 28 33 55 27 32 54 27 32 54 28 33 55 28 33 55 27 33 55 28 33 55 27 32 54 26 31 53 26 31 53 26 31 53 25 30 52 25 30 52 26 32 56 26 32 56 24 31 59 25 32 60 26 33 61 27 34 62 26 33 59 26 33 61 26 33 62 25 32 61 25 32 61 23 32 61 25 32 61 25 32 61 25 32 61 25 31 63 24 31 60 24 31 60 
31 36 66 31 36 65 32 36 65 30 37 65 30 35 64 30 35 64 30 35 64 30 35 65 31 35 64 32 35 66 31 35 64 31 35 64 30 34 63 31 35 64 31 35 64 30 34 63 27 32 61 27 32 61 28 33 62 27 32 61 28 33 62 28 33 62 30 35 64 30 35 64 28 33 62 29 35 61 29 35 61 31 37 63 31 36 65 31 36 65 30 35 64 30 35 64 31 35 64 30 35 64 29 34 63 29 36 65 30 35 64 31 36 66 29 36 65 28 35 64 28 35 64 28 35 64 29 36 65 29 36 64 29 36 64 30 37 65 31 37 63 32 38 64 32 38 64 31 37 63 30 36 62 30 36 62 30 36 60 30 36 60 30 36 60 31 37 61 31 37 61 30 36 60 28 34 58 26 32 56 25 31 55 26 32 56 26 32 54 25 31 53 26 32 54 25 31 53 26 32 54 26 32 54 27 33 57 28 33 55 28 33 55 27 31 56 28 32 57 28 32 57 27 33 55 27 33 55 28 33 55 27 32 52 26 32 56 26 32 56 25 29 54 27 31 56 27 31 56 26 32 54 26 32 56 26 32 56 27 33 57 27 33 57 27 33 57 26 32 56 26 32 56 26 32 58 25 31 57 25 30 59 25 31 57 25 30 59 26 31 60 25 30 59 25 32 60 25 32 60 
32 35 66 31 36 65 31 36 65 31 36 65 30 35 65 30 35 64 30 35 64 30 35 64 30 35 64 31 35 64 32 36 65 30 34 63 29 34 64 30 33 66 30 35 65 30 35 64 29 34 63 27 32 61 28 33 62 27 32 61 27 32 62 28 33 63 29 34 64 29 34 63 30 34 63 30 34 63 30 35 64 30 35 64 31 36 65 31 36 65 31 36 65 30 35 64 30 35 65 30 35 65 29 34 64 28 33 65 29 34 64 29 34 64 29 36 65 29 36 65 29 36 65 28 35 64 29 36 65 28 35 64 30 35 64 31 36 65 31 37 63 31 37 63 32 38 64 30 37 63 30 36 62 29 35 61 29 35 59 29 35 61 30 36 62 32 38 62 30 36 60 30 36 58 29 35 57 25 31 53 26 32 54 27 33 55 26 32 54 26 32 54 25 31 53 25 32 51 25 32 51 26 32 54 26 32 54 28 33 55 27 31 56 27 33 57 28 32 57 28 33 55 29 34 56 29 34 56 27 31 56 27 31 56 26 30 55 26 30 55 25 29 54 27 32 54 27 31 56 27 32 54 27 31 56 27 33 55 27 33 55 28 32 57 27 31 56 27 33 57 27 33 57 28 32 57 27 33 59 26 32 58 27 31 56 27 33 59 26 32 58 26 32 58 25 32 60 25 32 61 
29 34 64 29 34 64 30 35 65 30 35 65 30 35 64 30 35 64 31 36 65 29 34 63 29 33 62 29 32 63 29 32 63 30 33 64 30 34 63 29 34 63 29 34 64 29 34 64 29 34 64 28 33 63 27 34 63 28 33 62 28 33 63 25 30 60 28 33 63 28 35 64 31 35 64 30 35 64 30 35 65 29 34 64 28 33 63 29 34 64 27 34 63 28 35 64 28 35 64 27 34 63 27 34 63 28 35 64 28 35 63 27 33 67 29 36 64 28 34 66 27 34 63 27 33 65 27 34 63 28 35 64 27 34 63 29 34 64 30 35 64 30 35 64 30 36 62 30 36 62 29 35 61 30 36 62 29 35 61 29 35 61 28 34 58 29 35 59 30 36 58 30 36 58 27 33 55 27 33 55 26 32 54 25 31 53 27 32 54 26 32 54 26 33 52 26 33 52 27 34 53 27 34 53 27 31 56 28 32 57 28 32 57 27 31 58 28 32 57 26 30 55 28 32 57 28 32 57 27 31 56 27 31 56 26 30 57 26 31 53 26 30 55 27 31 56 27 31 56 26 32 54 30 32 53 29 34 54 28 33 53 29 31 52 27 32 52 28 33 53 28 33 53 31 31 55 31 33 56 29 33 58 31 33 56 30 32 55 30 32 55 30 32 55 26 32 58 26 31 60 
29 34 64 29 34 64 31 35 64 30 35 65 33 36 67 32 36 65 32 35 66 31 34 65 30 35 64 29 34 63 30 35 65 29 36 64 30 35 65 30 35 65 30 35 65 30 35 65 30 35 65 29 34 64 29 34 64 28 33 63 27 34 63 28 33 63 27 34 63 28 35 64 31 36 66 30 35 65 29 34 64 28 33 63 29 34 64 28 33 63 28 33 63 28 33 63 27 32 62 28 33 63 29 34 64 27 32 62 29 34 64 28 35 64 28 35 64 27 34 63 28 35 64 28 33 65 29 34 64 29 34 63 26 33 62 29 34 64 28 33 62 30 35 64 30 35 64 30 35 64 29 35 61 28 35 63 29 34 63 29 34 63 27 33 57 29 33 58 29 33 58 30 35 57 29 33 58 27 33 55 28 32 57 28 33 55 28 33 55 27 33 57 27 33 55 27 34 53 27 33 57 29 35 57 28 33 55 27 31 56 27 31 56 27 31 56 27 31 56 26 30 57 28 32 57 28 32 57 27 31 58 26 30 55 26 30 55 27 31 56 25 29 54 27 31 56 28 32 57 28 33 55 28 33 53 27 32 52 26 31 51 27 32 52 28 33 53 28 33 55 28 33 55 28 33 55 31 33 56 28 33 55 27 32 54 27 32 52 27 32 52 26 31 53 26 32 56 25 32 58 
30 35 65 29 34 64 32 35 66 32 35 66 32 37 67 33 36 67 35 36 67 33 36 67 33 36 67 32 35 66 30 35 65 31 36 66 30 35 65 31 36 66 30 35 65 32 37 67 30 35 65 30 35 65 30 35 65 29 34 64 28 35 63 29 34 64 27 34 63 28 35 64 30 35 65 30 35 64 29 34 63 29 34 64 28 33 65 28 33 65 27 32 64 27 32 64 28 33 65 28 33 65 28 33 65 28 33 65 28 35 64 27 33 65 27 32 64 29 34 66 29 34 66 29 34 66 28 33 63 30 35 65 28 33 63 29 34 64 29 34 64 29 34 64 30 35 64 30 35 65 28 33 62 29 34 63 29 34 63 29 34 63 26 32 58 28 32 57 29 33 58 28 32 57 28 32 59 27 33 57 28 32 57 28 32 57 28 32 57 29 33 58 27 33 57 27 33 57 28 34 58 29 35 57 28 32 57 27 31 56 26 30 55 26 30 57 26 30 57 26 30 55 27 32 54 28 32 57 27 31 58 27 31 58 27 31 58 27 31 56 26 30 55 28 32 59 28 32 57 26 31 53 29 31 52 29 31 52 29 31 52 29 31 52 29 31 52 30 32 53 30 32 55 30 32 57 28 33 53 27 32 54 27 32 52 27 32 52 28 30 51 29 31 54 27 31 56 25 31 55 
31 36 66 31 36 66 32 35 66 31 36 66 35 38 69 33 36 67 34 37 68 34 37 68 34 37 68 33 36 67 35 36 67 33 36 67 31 36 66 32 37 67 32 37 67 33 38 68 32 37 67 32 37 67 32 37 67 32 37 67 30 35 64 32 35 66 31 36 66 31 36 66 29 34 64 29 34 64 28 33 63 27 32 62 27 32 64 26 31 63 26 31 63 27 32 64 28 33 65 28 33 65 29 34 66 28 33 65 27 33 65 27 32 64 27 32 64 28 33 65 28 33 65 28 33 65 28 33 63 28 33 63 28 33 63 28 33 63 29 32 63 29 34 64 28 33 62 29 34 64 28 33 63 28 34 60 28 33 62 28 33 62 26 30 59 28 32 59 29 33 62 28 32 61 28 32 61 28 33 62 28 31 62 30 34 63 29 33 60 28 32 61 28 32 61 28 32 59 28 34 60 29 34 63 29 33 60 29 33 62 27 31 58 27 31 58 27 31 60 27 31 58 29 33 58 28 32 59 29 33 60 28 32 59 27 31 58 27 31 58 27 31 56 27 31 58 29 33 60 28 32 57 26 32 56 27 33 57 26 32 56 27 33 57 26 32 56 27 33 57 27 33 57 28 34 58 28 33 55 28 34 58 27 33 55 26 32 56 27 31 56 26 32 56 27 31 58 27 31 56 
32 35 66 34 37 68 35 36 67 33 36 67 34 38 67 34 37 68 34 38 67 32 37 66 34 37 68 34 37 68 33 37 66 34 37 68 32 37 67 32 37 67 32 37 67 32 37 67 32 37 67 32 37 67 32 37 67 32 37 67 32 37 67 32 37 67 30 35 65 32 37 67 29 34 66 29 34 66 27 32 64 28 33 65 27 32 64 28 31 64 27 32 64 27 32 64 28 33 65 28 33 65 27 33 65 28 33 65 27 32 64 27 32 64 28 33 65 28 33 65 28 33 65 28 33 65 29 34 66 28 33 63 28 33 63 28 33 63 28 33 63 28 33 63 28 33 63 28 33 63 28 33 63 28 33 63 27 32 61 28 33 62 26 30 59 27 31 60 28 32 61 28 32 61 28 31 62 28 32 61 27 31 60 30 33 64 30 34 63 28 32 61 27 31 60 27 31 60 28 31 62 29 33 62 29 33 62 29 33 60 28 32 59 27 31 60 27 31 58 27 31 58 29 33 60 27 31 58 29 33 60 28 32 59 28 32 59 28 32 59 28 32 59 29 33 60 28 32 59 28 32 59 25 31 55 28 32 57 27 33 57 27 33 57 28 32 57 27 33 57 28 34 58 29 33 58 28 34 58 29 33 58 27 33 57 27 31 56 26 32 56 27 31 56 26 30 55 28 32 57 
33 37 66 34 38 67 33 37 66 33 37 66 35 36 66 33 37 66 34 38 67 34 38 67 34 38 67 34 39 68 34 38 67 34 38 67 33 37 66 33 37 66 34 38 67 35 39 68 33 37 66 33 37 66 34 38 67 34 38 67 33 36 67 33 37 66 33 37 64 33 37 66 30 35 65 30 35 65 28 33 62 28 33 63 28 33 63 28 33 63 28 33 63 29 34 64 28 33 63 28 33 65 29 34 66 28 32 67 28 33 65 28 33 65 28 33 65 28 33 63 28 33 63 28 33 63 27 32 62 28 33 63 28 33 63 28 33 63 28 34 60 28 33 63 29 32 63 28 33 63 28 32 61 28 31 62 27 32 61 28 33 62 27 31 60 28 32 61 28 31 62 29 32 63 29 32 63 28 31 62 28 31 62 30 33 64 29 32 65 27 30 63 27 30 61 26 29 62 27 30 63 28 31 62 29 32 63 30 34 61 28 32 59 28 32 61 28 32 61 27 31 58 29 33 60 28 32 59 28 32 61 28 32 61 27 31 60 26 30 59 26 30 59 26 30 57 27 31 58 27 31 60 26 31 60 26 31 60 27 32 61 29 32 63 28 33 62 28 34 60 29 33 60 29 35 61 28 34 60 27 33 59 27 32 61 27 33 59 26 32 58 26 32 58 27 31 56 27 31 56 
33 37 66 33 36 67 33 37 66 32 36 65 36 35 66 36 37 67 34 38 67 33 38 67 34 38 67 35 39 68 34 38 67 35 36 66 34 38 67 34 38 67 34 38 67 34 38 67 34 38 67 34 38 67 34 38 67 34 38 67 33 37 66 33 37 66 32 36 65 33 37 66 29 34 64 30 35 65 28 33 63 28 33 63 28 33 63 27 32 62 27 32 62 28 33 65 28 33 65 28 33 65 28 33 65 28 33 65 29 34 63 27 32 62 27 32 64 26 31 61 27 32 62 28 33 63 27 32 62 29 34 64 28 33 63 29 34 66 28 33 63 28 33 63 28 32 61 28 33 63 27 30 61 28 31 62 28 33 65 28 32 61 27 30 61 29 32 63 29 32 63 28 31 62 29 33 62 29 32 63 28 31 64 28 31 62 29 32 63 27 30 63 27 30 61 27 30 61 27 30 63 28 31 64 29 32 63 29 33 62 28 32 61 28 32 61 28 32 59 27 31 60 28 32 61 28 32 59 28 32 61 27 31 60 27 31 60 27 31 60 27 31 60 27 31 60 26 30 59 27 31 60 27 32 62 27 32 61 27 32 61 28 33 62 27 32 61 28 33 62 28 33 62 28 33 62 27 33 59 28 34 60 28 32 61 26 32 58 27 33 59 28 29 57 27 31 56 30 32 57 
31 36 65 33 34 64 34 35 63 31 36 65 34 35 63 35 36 64 35 36 64 33 37 64 34 38 65 36 40 67 37 38 66 36 37 65 37 38 66 36 37 65 36 37 65 35 36 64 36 37 65 37 38 66 36 37 65 38 39 67 36 37 65 33 37 66 34 35 65 31 35 64 31 36 65 32 37 67 30 35 65 29 34 64 30 33 64 29 34 64 28 33 63 28 33 63 28 33 63 28 33 63 28 33 63 27 34 63 28 33 63 27 32 62 28 33 63 28 33 62 28 33 62 29 34 63 28 33 62 28 34 60 29 34 63 28 33 62 28 33 63 28 33 62 28 32 61 27 32 62 29 32 63 28 31 62 29 34 63 30 34 63 30 33 64 31 35 64 30 34 63 30 34 63 29 33 62 29 32 63 29 33 62 30 33 64 29 32 63 27 30 61 29 32 63 27 30 61 28 31 64 29 32 63 28 31 62 29 33 62 28 32 61 28 32 61 28 32 61 27 31 60 28 32 61 28 32 59 29 33 60 28 32 61 27 31 60 27 31 60 27 31 60 27 31 60 28 32 61 28 31 62 28 31 62 28 31 62 28 31 62 28 32 61 28 32 59 28 32 61 28 32 61 29 33 62 28 32 59 28 32 59 28 32 61 27 31 60 28 29 59 27 31 58 30 32 57 31 33 58 
31 35 62 33 34 62 32 36 63 35 36 64 33 37 64 35 36 64 35 36 64 34 38 65 35 39 66 38 39 67 38 39 67 38 39 67 38 39 67 36 37 65 37 38 66 36 37 65 37 38 66 36 37 65 37 38 66 35 36 64 36 37 65 32 36 63 33 34 62 31 35 62 31 36 65 31 36 65 30 35 64 30 35 67 28 33 63 29 34 64 28 33 63 28 33 63 27 32 62 28 33 63 28 33 63 28 33 63 28 33 63 28 33 63 29 34 64 28 33 62 29 34 63 29 35 61 29 34 63 29 34 63 30 34 63 29 34 63 29 33 62 29 34 64 29 33 62 28 33 62 30 34 63 30 33 64 29 34 63 30 34 63 33 36 67 32 36 65 32 36 65 30 34 61 30 34 63 29 32 63 30 33 64 30 33 64 30 33 64 29 32 63 29 32 63 27 30 61 28 31 62 30 33 64 29 32 65 30 34 63 29 33 62 28 32 61 28 32 61 28 32 61 29 32 63 29 33 62 30 34 63 29 33 62 28 32 61 29 33 62 28 31 62 28 32 61 28 32 61 28 31 62 29 30 61 30 31 62 31 32 62 31 32 62 31 32 62 31 32 62 31 32 62 31 32 62 31 32 60 28 32 59 30 32 57 30 31 59 27 31 58 31 31 59 30 34 59 32 34 59 
32 36 63 31 35 62 34 38 65 35 36 64 36 37 65 36 37 65 34 38 65 38 40 65 37 39 64 38 40 65 40 40 68 39 39 67 38 39 67 37 38 66 37 38 66 36 37 65 37 38 66 38 39 67 37 38 66 37 38 66 35 36 64 34 35 63 32 33 61 31 32 60 32 36 65 31 35 64 31 36 65 31 36 65 31 36 66 29 34 64 28 33 63 28 33 63 28 33 63 28 33 63 27 32 62 28 33 63 25 35 62 29 34 64 30 33 64 29 34 63 28 34 60 29 34 63 29 34 63 28 35 61 27 34 62 29 34 63 28 33 62 29 33 62 30 34 63 30 34 63 31 35 64 30 34 61 32 36 65 31 36 65 35 39 66 34 38 63 33 37 62 32 36 63 30 34 61 30 34 61 30 34 61 32 36 65 32 36 65 30 34 63 31 35 64 28 32 61 30 33 64 31 34 67 31 35 64 31 35 64 30 34 63 31 32 62 28 33 62 30 34 63 30 34 63 31 35 64 31 36 65 33 37 66 31 35 64 31 34 65 32 36 65 31 34 65 32 36 65 34 35 66 37 36 68 35 34 66 35 34 66 36 33 64 35 35 63 36 33 62 34 34 62 33 32 63 34 34 62 34 34 62 34 34 62 32 34 59 34 34 60 36 33 60 32 34 59 32 34 59 
31 35 64 33 34 64 35 36 66 33 37 66 34 35 65 33 37 66 33 37 64 34 38 65 37 38 66 38 39 67 38 39 67 39 39 67 39 39 67 38 38 66 39 39 67 38 38 66 38 38 66 37 37 65 38 38 66 38 38 66 35 36 64 35 36 64 32 33 61 32 33 61 31 36 65 31 36 65 30 35 64 31 36 65 29 34 64 29 34 64 29 34 64 28 33 63 26 31 61 28 33 63 28 33 63 28 33 63 28 35 64 27 32 62 28 33 63 30 35 65 30 35 64 30 35 64 29 34 63 29 34 63 29 34 63 28 33 62 29 34 63 29 34 63 31 35 64 31 35 64 32 36 65 31 35 62 32 36 65 34 38 65 37 38 66 36 37 65 33 37 64 31 37 63 32 36 63 31 35 62 31 35 62 33 37 64 32 36 65 32 36 65 31 35 64 30 34 63 31 35 64 32 36 65 30 34 63 31 35 64 31 35 64 31 35 64 30 34 61 31 35 64 33 34 62 30 34 63 32 36 65 35 36 66 35 36 64 35 36 66 36 37 67 33 37 66 35 36 66 36 35 66 35 34 65 36 35 66 39 36 65 39 34 64 38 35 64 36 36 64 38 35 64 37 34 61 38 35 62 34 34 62 36 33 60 38 35 62 38 35 62 36 36 60 33 35 58 34 36 61 
30 37 65 31 36 65 32 36 65 31 36 65 32 35 66 32 35 66 32 36 65 32 36 65 33 37 66 35 36 66 36 35 66 36 37 67 37 38 68 36 37 67 37 38 68 37 38 68 38 39 69 38 39 69 36 37 67 35 36 66 33 34 64 32 33 63 33 34 64 33 34 64 29 34 64 29 34 64 30 35 65 30 35 65 30 35 65 29 34 64 28 33 63 28 33 63 28 33 63 29 34 64 28 33 63 28 33 63 27 34 63 29 34 64 27 34 63 31 36 65 31 36 65 32 36 65 30 34 63 29 33 62 29 33 62 28 32 61 30 34 63 31 35 64 31 35 64 31 35 64 33 37 66 32 36 63 34 35 63 35 36 64 36 36 64 35 35 63 35 34 65 34 35 63 35 35 63 36 36 64 36 36 64 36 36 64 36 36 64 36 36 64 36 36 64 34 34 62 34 34 62 32 32 60 33 34 62 32 36 63 32 36 63 35 36 64 32 36 63 32 36 63 34 35 63 35 35 63 36 36 64 39 36 65 41 38 67 42 39 68 42 39 68 44 40 67 44 39 69 42 39 66 40 38 62 41 39 63 40 38 62 42 38 63 43 41 65 45 43 67 42 40 62 42 38 63 42 36 62 40 38 62 42 37 60 41 37 60 43 38 61 44 40 63 42 38 61 39 37 61 
30 35 64 29 34 63 30 35 64 30 35 64 29 36 64 32 36 65 32 37 66 33 37 66 32 36 65 31 36 65 35 36 66 34 35 65 33 37 66 34 38 67 34 38 67 35 39 68 35 39 68 36 40 69 34 38 67 33 37 66 34 35 65 30 34 63 33 34 64 34 35 65 30 35 65 29 34 64 30 33 64 29 34 64 29 34 64 29 34 64 28 33 63 28 33 63 28 33 63 28 33 63 28 33 63 28 33 63 28 33 63 28 33 63 28 33 63 31 36 65 31 35 64 31 35 62 30 34 63 29 34 63 30 34 63 29 33 62 30 34 63 30 34 63 31 35 64 32 36 65 34 35 65 34 35 63 35 36 64 35 36 64 36 36 62 38 35 66 36 35 66 36 36 64 35 35 63 36 36 64 37 37 65 37 37 65 37 37 65 37 37 65 38 38 66 36 36 64 35 35 63 33 33 61 34 35 63 32 36 63 33 37 64 35 36 64 34 36 61 33 34 64 35 35 61 35 35 63 38 35 64 39 36 65 41 38 67 42 39 68 41 38 67 42 38 65 42 37 67 43 39 66 40 36 61 42 40 64 43 39 64 44 40 65 44 40 65 45 41 66 44 40 65 44 40 63 44 40 63 43 39 62 43 39 62 42 38 63 44 40 63 45 40 63 43 39 62 41 39 61 
25 30 59 26 31 60 27 31 60 26 31 60 28 32 61 29 34 63 30 34 63 31 35 64 31 35 64 30 34 63 29 33 62 32 33 63 30 34 63 30 34 63 30 34 63 33 37 66 33 37 66 34 38 67 34 38 67 34 38 67 32 36 65 33 37 66 33 37 66 33 37 66 29 34 64 29 34 64 27 32 62 28 31 62 27 32 62 27 32 62 27 32 62 27 32 62 27 32 62 27 32 62 27 32 62 26 31 61 27 32 62 27 34 63 27 32 62 29 34 63 30 34 63 30 34 63 30 34 63 29 34 63 30 34 63 31 35 64 30 34 63 30 34 63 31 35 64 30 34 61 32 36 65 33 37 66 33 37 64 35 39 66 37 38 66 37 37 65 37 37 65 37 36 67 36 36 64 36 36 64 37 37 65 37 37 65 37 37 65 38 38 66 37 37 65 37 37 65 36 36 64 36 36 64 36 37 65 35 39 66 36 37 65 35 36 64 35 36 64 34 35 63 36 36 64 36 36 64 35 35 63 35 35 61 39 35 62 38 35 62 38 35 62 40 36 63 39 35 62 43 39 64 44 40 65 43 39 64 42 40 64 44 40 65 44 40 65 45 41 66 46 42 67 47 43 66 47 43 68 47 43 68 47 43 68 47 43 68 47 43 66 46 42 65 44 40 65 46 41 64 
26 31 61 27 32 62 26 31 61 27 32 62 28 31 62 29 32 63 30 33 64 30 33 64 30 33 64 31 35 64 30 34 63 31 32 62 30 34 63 29 33 62 29 33 62 30 34 63 32 36 65 33 37 66 32 36 65 31 35 64 31 35 64 29 33 62 31 35 64 31 35 64 28 33 63 29 34 64 26 31 61 26 31 61 26 31 61 26 31 61 28 33 63 28 33 63 28 33 63 26 31 61 27 32 62 27 32 62 27 32 62 28 33 63 29 34 64 28 33 62 28 33 62 28 33 62 29 34 63 29 34 63 30 34 63 30 34 63 30 34 63 30 34 63 30 34 63 30 34 61 32 36 65 32 36 65 35 36 64 35 36 64 36 37 65 36 36 64 36 36 64 37 37 65 34 35 63 35 36 64 36 37 65 35 36 64 36 37 65 36 37 65 36 37 65 36 37 65 36 37 65 36 37 65 37 38 66 35 39 66 34 38 65 35 36 64 35 36 64 35 36 64 37 37 65 37 37 65 40 37 66 39 35 62 38 35 62 39 36 63 39 36 63 40 37 64 42 38 65 42 40 64 43 39 64 44 38 64 43 41 65 44 40 65 43 41 65 46 42 67 46 42 65 47 42 65 46 42 65 46 42 65 45 41 64 47 42 65 47 41 67 47 42 65 45 41 64 46 41 63 
26 31 61 27 30 61 27 32 62 27 30 61 28 32 61 28 32 61 27 34 63 30 33 64 30 33 64 29 36 64 29 33 62 28 33 62 29 33 62 29 33 62 28 32 61 28 32 61 29 33 62 30 34 63 30 34 63 29 33 62 29 33 62 27 31 60 26 31 60 27 31 60 27 32 62 28 31 62 26 31 61 26 31 61 25 30 60 26 31 61 28 33 63 28 33 63 28 33 63 27 32 62 26 31 61 26 31 61 26 31 60 27 32 62 29 34 64 27 32 61 27 32 61 28 33 62 29 34 63 30 34 63 30 34 63 30 34 63 30 34 63 31 35 64 30 34 63 30 34 61 32 36 65 31 35 64 33 37 64 33 37 64 35 36 64 36 36 64 35 36 64 35 36 64 34 35 63 35 37 62 35 36 64 36 37 65 36 37 65 36 37 65 37 38 66 37 39 64 36 38 63 37 39 64 37 39 64 35 39 64 36 38 63 35 37 62 35 36 64 36 36 62 38 38 66 39 39 65 38 38 64 41 38 65 39 36 63 40 37 64 42 38 65 41 38 65 42 39 66 43 39 64 43 39 62 43 39 64 44 40 67 43 41 65 44 40 63 45 41 64 44 40 63 46 41 64 45 40 63 45 40 63 46 41 64 44 39 62 44 39 62 46 41 64 47 42 65 48 43 66 
28 33 63 27 32 62 31 32 63 28 35 64 29 32 63 29 32 63 29 32 63 29 32 63 28 31 62 29 32 63 28 33 62 27 32 61 28 33 65 26 31 61 26 31 60 26 31 60 27 32 64 28 33 65 27 32 62 27 32 61 26 31 60 25 30 59 25 32 60 25 32 60 28 33 63 30 35 65 27 32 62 28 31 62 26 31 61 26 31 61 28 33 63 28 33 63 28 33 63 28 33 63 26 31 61 25 30 60 25 30 60 27 32 62 27 30 61 28 33 63 28 33 63 27 32 61 29 33 62 28 31 62 28 33 62 28 33 62 30 34 63 30 34 63 32 36 65 32 36 63 32 36 65 31 35 64 32 36 63 32 36 63 33 34 62 34 34 62 32 33 61 33 34 62 34 36 61 35 37 62 35 37 62 35 37 62 35 37 62 35 37 62 34 36 61 35 37 62 35 36 64 35 36 64 34 36 61 35 37 62 35 37 62 35 35 61 35 35 63 35 35 61 38 38 66 38 38 66 39 39 65 41 38 65 39 37 61 40 38 62 39 36 63 42 40 64 43 40 67 42 38 63 43 37 63 42 38 63 41 39 63 42 40 64 44 40 65 46 42 67 44 40 63 46 41 64 44 40 65 46 41 64 46 41 64 47 41 67 48 43 66 48 43 66 50 42 65 50 42 65 
29 34 64 29 34 64 30 35 65 28 33 63 28 33 63 28 33 63 28 33 63 27 32 62 27 30 61 27 32 61 26 33 61 27 32 61 27 32 61 27 32 61 26 31 60 26 31 60 26 31 60 27 32 61 27 32 61 26 31 60 25 30 59 24 29 59 25 32 60 25 32 60 29 34 64 29 36 65 28 33 63 27 32 62 26 31 61 28 33 63 28 33 63 28 33 63 28 33 63 27 32 62 27 32 62 25 30 60 26 31 61 26 31 61 25 30 60 28 33 63 27 32 62 27 32 62 27 32 62 27 32 62 27 32 61 27 32 61 29 34 63 29 33 62 31 35 64 32 36 65 32 36 65 32 36 65 31 35 62 31 35 62 31 33 58 32 34 59 32 34 59 32 36 61 34 36 61 35 37 60 35 37 62 35 36 64 36 38 63 35 37 62 35 36 64 32 34 59 34 36 61 34 36 61 33 34 62 36 36 62 34 36 61 34 35 63 37 34 63 35 35 61 37 39 64 38 38 64 40 37 64 40 37 64 40 37 64 39 36 63 39 36 63 41 38 65 43 41 65 41 39 63 40 36 61 43 39 64 43 39 64 44 40 65 44 40 65 46 40 66 46 40 66 44 40 65 47 42 65 46 40 68 46 41 64 47 42 65 49 43 69 48 43 66 50 42 65 48 40 63 
28 33 63 28 33 63 28 33 63 28 33 63 28 33 63 27 32 62 25 30 60 26 31 60 26 30 59 27 32 62 26 33 62 29 34 64 27 34 63 25 32 61 26 33 62 26 33 62 26 33 62 26 33 62 27 34 63 26 33 62 26 33 61 26 33 62 27 34 62 27 34 62 29 34 64 29 34 64 27 30 61 28 31 62 27 32 62 27 32 62 27 32 62 27 32 62 28 33 63 28 33 63 28 33 63 27 32 62 27 32 62 27 32 62 26 31 61 27 32 62 27 32 62 26 31 61 26 31 61 26 31 61 26 31 60 26 31 60 27 32 61 29 33 62 29 33 62 30 34 63 30 34 63 30 34 63 29 34 63 30 34 61 32 33 61 32 34 59 32 34 59 30 36 62 34 35 63 35 36 66 36 37 65 34 36 61 34 36 61 34 35 63 34 36 61 33 35 60 32 33 61 33 35 60 32 33 61 33 35 60 33 34 62 33 34 62 34 35 63 34 36 61 36 38 63 35 37 62 36 36 62 39 36 63 38 35 62 38 35 62 38 35 62 39 36 63 39 36 63 39 37 61 39 36 63 40 36 63 40 36 61 40 36 61 40 36 61 41 37 62 42 38 63 43 39 64 43 39 64 44 40 65 46 40 66 44 40 65 43 39 64 43 39 62 45 40 63 48 40 63 
28 33 63 28 33 63 28 33 63 28 33 63 27 32 62 27 32 62 25 30 60 25 30 60 24 29 59 26 33 62 24 33 62 27 34 63 28 33 63 28 33 63 28 33 63 27 32 62 27 32 62 29 34 64 28 33 63 28 33 63 27 32 61 28 35 64 29 34 64 29 36 64 29 34 64 29 32 63 27 32 62 28 31 62 27 32 62 27 32 62 27 32 62 28 33 63 28 33 63 28 33 63 28 33 63 27 32 62 27 32 62 28 33 62 28 33 62 27 32 62 27 32 62 26 31 60 26 31 60 26 31 61 26 31 61 27 32 61 27 32 61 28 32 61 29 33 62 29 33 62 29 33 62 29 33 62 28 34 60 29 33 60 30 34 61 32 33 61 31 35 60 30 34 61 30 34 61 35 36 64 35 36 64 35 37 62 34 35 63 33 34 62 33 35 60 32 34 59 31 32 60 33 35 60 33 34 62 33 34 62 33 34 62 33 34 62 34 35 63 34 36 61 36 36 62 35 34 65 36 36 62 35 35 61 36 36 62 35 35 61 36 36 62 36 36 62 36 36 62 39 37 61 39 35 62 39 35 62 39 35 62 39 35 60 38 36 60 40 37 64 41 37 64 43 39 62 45 41 66 44 40 65 44 40 65 43 39 64 43 39 64 41 37 62 44 39 62 46 38 62 
26 31 61 26 31 61 26 31 61 25 30 60 25 30 60 25 30 60 26 31 60 26 31 61 26 31 61 27 32 61 26 33 61 30 35 64 30 35 65 30 35 65 29 34 64 28 33 63 29 34 64 27 32 62 26 31 61 27 32 62 27 32 62 28 33 63 30 35 65 30 35 65 25 30 60 25 30 60 25 30 60 25 30 60 25 30 60 26 31 61 26 31 61 27 32 62 27 32 62 28 33 63 29 34 64 30 35 65 29 34 63 28 33 63 27 32 62 26 31 60 26 31 60 26 31 61 27 32 62 27 32 61 26 31 61 25 30 60 25 30 59 25 30 59 26 30 59 25 29 58 27 31 60 27 31 60 27 32 62 27 32 61 28 32 59 28 32 59 27 31 58 28 32 61 27 31 58 29 33 60 29 33 60 29 33 62 29 33 62 29 33 60 29 33 62 28 32 61 30 34 61 30 34 63 30 34 61 29 33 60 29 33 60 29 33 62 32 33 63 32 33 61 32 33 61 31 32 60 32 33 61 31 32 60 33 34 62 33 34 62 33 34 62 34 34 62 33 33 61 35 35 63 35 35 61 36 36 64 36 36 64 36 36 62 37 37 63 38 38 64 36 36 62 39 36 63 38 38 64 38 38 64 40 37 64 39 36 63 38 35 62 38 35 62 39 37 61 40 36 63 
25 32 61 25 30 60 26 31 61 27 30 61 26 31 61 26 31 61 27 32 62 27 32 62 27 32 62 27 32 62 28 33 62 30 35 64 31 36 66 30 35 65 30 35 65 26 31 61 26 31 61 27 32 62 27 32 62 27 32 62 27 32 62 27 32 62 29 34 64 29 34 64 26 31 61 26 31 61 26 31 61 26 31 61 26 31 61 26 31 61 26 31 61 26 31 61 26 31 61 27 32 62 27 32 62 28 33 63 28 33 63 29 34 63 28 33 62 26 31 61 24 29 59 26 31 60 27 32 61 27 32 62 26 31 61 27 32 62 25 30 59 25 30 59 26 30 59 26 30 59 26 30 59 27 31 60 27 32 61 28 32 61 28 32 61 28 32 59 27 31 58 26 32 56 26 30 59 27 31 60 28 32 61 29 33 62 29 33 62 28 32 61 29 33 62 29 33 62 29 33 62 30 34 63 31 32 62 29 30 58 28 32 59 29 35 61 32 33 61 32 33 61 29 33 60 31 32 60 28 32 59 30 34 61 30 34 61 32 33 61 33 34 62 32 33 61 31 32 60 33 34 62 36 36 64 35 35 63 35 35 63 35 35 63 37 34 61 36 36 62 36 36 62 36 36 62 36 36 62 38 38 64 36 38 63 39 36 63 38 35 64 37 34 61 39 36 63 40 37 64 
26 29 60 26 31 61 26 31 61 25 30 60 25 30 60 26 31 61 27 32 62 28 33 62 28 33 62 26 31 61 25 30 60 28 33 63 28 33 63 26 31 61 27 32 62 25 30 60 25 30 60 26 31 61 26 31 61 27 32 62 27 32 62 27 32 62 28 35 64 28 33 63 29 34 63 29 34 64 29 32 63 27 32 61 27 32 62 27 32 62 27 32 62 27 32 62 26 31 61 26 31 61 25 30 60 25 30 60 25 30 59 25 30 60 25 30 60 26 31 60 26 31 60 26 31 61 26 31 61 28 33 62 27 32 62 26 31 61 25 30 60 26 31 60 25 30 59 26 30 59 27 31 60 27 31 60 27 32 61 28 32 61 27 31 60 26 30 59 25 29 58 24 28 57 24 28 57 26 30 59 27 31 60 29 33 62 27 31 60 28 32 61 27 31 60 29 33 62 29 33 62 30 34 63 28 32 61 26 30 57 25 29 58 27 30 61 26 30 59 26 30 59 26 30 59 26 30 59 26 30 59 26 30 59 28 32 61 30 34 61 28 32 59 27 31 60 26 30 59 25 29 56 24 28 57 26 30 59 26 30 59 30 31 59 30 31 61 30 31 61 30 31 59 30 31 59 28 32 59 28 32 61 31 32 60 31 32 60 32 32 60 31 33 58 34 35 63 35 36 64 
24 31 60 26 31 61 26 31 61 26 31 61 27 32 62 27 32 62 26 31 61 27 32 64 26 31 63 27 32 62 26 31 63 29 34 64 28 33 63 26 31 61 27 32 62 25 30 60 26 31 61 25 30 60 26 31 61 27 32 62 27 32 62 25 32 61 27 32 62 27 32 62 29 34 63 30 34 63 26 31 61 28 32 61 26 31 61 26 31 61 27 32 62 27 32 62 27 32 62 26 31 61 26 31 61 26 31 61 25 30 60 27 32 62 26 31 61 27 32 62 26 31 61 26 31 61 27 32 62 27 32 62 27 32 62 27 32 62 27 32 62 25 30 60 26 31 60 27 31 60 28 32 61 28 32 61 27 31 60 27 31 60 28 32 61 25 30 59 25 29 58 25 29 58 25 29 58 27 31 60 28 32 61 29 33 62 29 33 62 28 32 61 27 31 60 29 33 62 28 32 61 31 35 64 28 32 61 27 31 60 26 30 59 27 31 60 26 30 59 26 30 59 26 30 59 27 31 60 25 29 58 26 30 59 28 32 61 28 32 59 28 32 59 26 31 60 26 31 60 25 31 57 25 29 58 26 30 57 27 31 60 28 32 61 27 31 60 27 31 60 28 32 61 29 30 58 28 32 59 31 32 62 27 33 59 31 32 60 27 31 58 30 31 59 31 35 62 31 35 62 
26 31 61 27 32 62 26 31 61 27 32 62 26 31 61 27 32 62 25 30 60 25 30 60 24 31 60 27 32 62 27 32 62 29 34 64 28 33 63 26 31 61 27 32 62 24 29 59 24 29 59 26 31 61 26 31 61 26 31 61 28 31 62 27 30 61 26 31 61 26 31 61 29 34 63 30 35 64 28 33 63 27 32 61 27 32 62 26 31 61 28 33 63 28 33 63 28 33 63 26 31 61 25 30 60 25 30 60 26 31 61 28 33 63 28 33 63 28 33 63 27 32 62 27 32 62 27 32 62 26 31 61 27 32 62 27 32 62 28 33 63 28 33 63 28 33 62 29 33 62 29 33 62 28 32 61 27 32 62 28 31 62 29 32 63 28 33 63 27 31 60 26 31 60 26 29 60 29 32 63 26 31 61 28 33 63 28 33 63 26 31 61 26 31 61 25 30 60 26 31 61 25 30 60 28 31 62 28 31 64 27 30 61 28 31 62 28 31 62 27 31 60 25 30 59 25 30 59 26 31 61 26 31 61 26 31 60 27 32 61 27 32 61 26 31 60 25 30 59 26 31 60 25 30 59 27 32 62 25 30 60 24 29 58 24 29 58 25 30 59 25 30 59 26 31 60 26 31 60 27 32 61 27 31 60 26 30 59 25 29 56 24 28 55 25 30 59 26 32 58 
27 34 63 26 33 62 25 32 61 27 32 62 26 31 63 27 32 62 26 31 61 26 31 61 26 31 61 28 33 63 27 32 62 28 33 62 28 33 63 26 31 61 26 31 61 25 30 60 25 30 60 26 31 60 26 31 60 26 31 60 27 30 61 26 31 61 26 31 61 27 32 62 28 33 63 27 34 63 27 32 62 27 30 61 26 31 61 26 31 61 27 32 62 27 32 61 28 33 63 27 32 62 26 31 60 26 31 61 26 31 61 29 34 64 28 33 63 26 33 62 28 33 63 27 32 62 27 32 61 27 32 61 27 32 62 27 33 59 28 33 62 29 34 63 27 32 61 28 33 63 28 33 62 27 33 59 28 33 62 27 32 61 29 33 62 29 32 63 27 30 61 27 31 60 27 30 61 28 31 62 28 31 62 28 31 62 29 32 63 27 30 61 29 32 63 27 30 61 28 31 62 27 30 61 27 30 61 27 30 61 28 31 62 28 31 62 28 32 61 27 31 60 27 31 60 27 31 60 26 31 60 26 31 60 27 32 61 27 32 61 27 32 61 26 31 60 27 32 61 25 30 59 26 31 60 27 32 61 26 31 60 26 31 60 25 30 59 24 29 58 24 29 58 25 30 59 26 31 60 26 31 60 28 29 59 25 30 59 25 29 58 23 28 57 26 30 59 26 31 60 
26 31 60 26 31 61 25 30 60 25 30 60 26 31 61 27 32 62 26 31 61 27 32 62 26 31 61 26 31 61 26 31 61 28 33 63 28 33 63 25 30 60 25 30 60 25 30 60 25 30 60 26 31 61 26 31 60 25 30 59 26 31 61 26 31 61 26 33 62 28 33 63 27 32 62 25 32 61 24 29 59 24 29 59 24 29 59 25 30 59 26 31 61 27 32 62 28 33 62 28 33 63 28 33 63 28 33 63 28 33 63 28 33 63 28 33 63 26 33 62 26 31 61 27 32 62 26 31 61 27 32 62 28 33 62 26 31 60 26 31 60 26 31 60 27 32 61 27 32 61 28 34 60 28 33 62 28 33 62 28 33 62 27 31 60 27 30 61 26 29 60 27 31 60 26 29 60 27 30 61 26 29 60 27 30 61 27 30 61 27 30 61 27 30 61 26 31 61 26 31 61 28 31 62 26 30 59 26 30 59 27 31 60 27 31 60 27 31 60 28 32 61 28 32 61 28 32 61 27 31 60 26 30 59 26 30 59 26 30 59 27 31 60 27 31 60 28 32 61 27 31 60 27 31 60 29 33 62 30 34 63 30 34 63 29 33 62 27 31 60 27 31 60 25 29 58 25 29 58 25 29 58 26 30 59 25 29 58 24 28 57 24 28 57 28 29 59 26 30 59 
27 32 62 26 31 60 25 30 60 27 32 62 28 33 63 27 32 62 29 34 64 28 33 62 28 33 62 27 32 62 25 30 60 28 33 63 28 33 63 26 31 61 26 31 61 26 31 61 26 31 61 26 31 61 25 30 60 25 30 59 26 31 61 26 31 61 27 32 62 27 32 62 28 31 62 27 32 62 26 31 61 25 30 60 25 30 60 26 31 60 26 31 61 27 32 62 28 33 62 28 33 63 28 33 63 27 32 62 27 32 62 27 32 62 27 32 61 27 32 61 26 31 60 26 31 60 27 31 60 28 33 62 28 33 62 27 32 61 26 31 60 25 30 59 27 32 61 26 31 60 28 34 60 28 33 62 26 33 61 27 32 61 28 32 61 27 30 61 29 30 61 27 31 60 27 30 61 27 32 62 27 31 60 27 30 61 27 30 61 27 31 60 27 31 60 27 30 61 27 30 61 27 31 60 27 31 60 27 31 60 27 31 60 28 32 61 28 32 61 28 32 61 28 32 61 28 32 61 27 31 60 26 30 59 26 30 59 26 30 59 28 32 61 28 32 61 28 32 61 27 31 60 27 31 60 29 33 62 28 32 61 28 32 61 28 32 61 26 30 59 26 30 59 27 31 60 25 30 59 27 31 60 27 31 60 26 30 59 26 30 59 28 29 59 27 31 60 28 29 59 
27 32 62 26 31 61 27 32 62 28 33 63 28 35 63 28 35 64 29 36 65 29 36 64 28 35 63 25 32 61 26 33 62 27 34 63 26 33 62 24 31 60 24 31 60 25 32 61 25 32 61 25 32 61 25 32 61 24 31 60 26 33 61 26 31 60 26 33 61 26 33 61 27 32 61 27 32 61 26 31 60 26 31 60 26 31 61 26 31 61 26 31 61 27 32 61 27 32 62 28 33 63 28 33 62 27 32 62 26 31 60 25 30 59 24 29 58 27 32 61 27 32 61 26 31 60 27 32 61 27 32 61 27 32 62 26 31 60 24 29 58 25 30 59 26 31 60 24 29 58 26 31 60 27 32 61 27 32 61 25 32 60 28 32 61 27 30 61 29 32 63 28 32 61 27 30 61 27 32 62 26 31 61 26 31 60 26 31 60 26 31 61 27 30 61 27 31 60 27 31 60 26 29 60 26 30 59 27 31 60 27 31 60 28 32 61 29 33 62 28 32 61 29 33 62 28 32 61 27 31 60 27 31 60 27 31 60 27 31 60 28 32 61 28 32 61 28 32 61 28 32 61 27 31 60 27 31 60 27 31 60 27 31 60 26 30 59 26 30 59 25 29 58 26 30 59 26 30 59 28 32 61 27 31 60 28 32 61 27 32 61 27 31 60 27 28 58 26 30 59 
26 33 61 25 32 61 27 34 62 28 35 64 28 35 63 29 36 65 27 34 63 27 34 62 26 33 62 26 33 62 24 31 60 27 34 63 27 34 63 25 32 61 25 32 61 26 33 62 26 33 62 26 33 62 25 32 61 24 31 60 25 32 60 26 31 60 26 33 61 26 33 61 26 31 60 26 31 60 27 32 61 28 33 62 28 33 63 27 32 62 27 32 62 27 32 61 26 31 61 27 32 62 27 32 61 26 31 61 26 31 61 24 29 59 24 29 59 26 31 61 25 30 60 27 32 62 27 32 62 26 31 61 28 33 63 27 32 61 25 30 60 25 30 59 26 31 60 26 31 60 27 33 59 27 32 62 24 29 58 24 29 58 26 30 59 28 31 62 29 32 63 28 32 61 27 30 61 25 30 60 27 30 61 26 30 59 25 29 58 26 29 60 26 29 60 26 30 59 24 29 58 24 29 59 26 30 59 26 30 59 26 30 59 26 30 59 27 31 60 27 31 60 27 31 60 27 31 60 27 31 60 28 32 61 27 31 60 27 31 60 27 31 60 27 31 60 27 31 60 27 31 60 27 31 60 25 29 58 26 30 59 25 29 58 25 29 58 26 30 59 26 30 59 28 32 61 27 32 61 29 33 62 28 32 61 28 32 61 27 31 60 27 31 60 25 29 58 25 29 58 
26 33 62 25 32 61 27 33 65 27 33 65 29 34 63 30 35 65 29 34 64 28 33 63 26 31 61 26 31 61 26 31 61 28 33 63 26 33 62 25 32 61 25 32 61 26 33 62 26 33 62 26 33 62 25 32 61 25 32 61 25 32 61 27 32 62 26 33 62 25 32 61 25 30 60 25 30 60 28 33 63 27 34 63 28 33 63 28 33 62 27 32 62 27 32 62 26 31 60 26 31 61 27 32 62 26 31 61 26 31 61 24 29 59 24 29 59 26 31 61 26 31 61 26 31 61 26 31 61 26 31 61 26 31 61 26 31 60 24 29 58 24 29 58 25 30 59 25 30 59 26 31 60 26 31 60 25 30 59 26 30 59 27 31 60 27 32 62 26 31 61 26 31 60 28 31 62 26 29 60 26 30 59 25 28 59 26 29 60 26 30 59 26 30 59 25 28 59 25 28 59 25 29 58 26 30 59 26 30 59 25 30 59 26 31 60 27 32 61 27 32 61 27 31 60 27 31 60 26 30 59 27 31 60 26 30 59 27 31 60 27 31 60 27 31 60 27 31 60 27 31 60 28 32 61 25 29 58 26 30 59 26 30 59 25 29 58 26 30 59 27 31 60 29 33 62 29 33 62 28 32 61 28 32 61 27 31 60 25 30 59 26 30 59 24 28 57 23 27 56 
26 33 62 26 33 62 27 34 63 27 34 63 27 34 63 27 34 63 27 34 63 25 32 61 25 32 61 24 31 60 25 32 61 26 33 62 26 33 62 26 33 62 26 33 62 27 34 63 26 33 62 25 32 61 27 34 63 25 32 61 25 32 61 25 32 61 24 31 60 25 32 61 24 29 59 25 28 59 27 32 62 27 32 62 28 35 64 28 33 62 26 33 62 27 32 62 26 33 61 26 31 61 25 32 61 26 31 61 24 31 59 25 32 60 25 32 60 25 30 59 26 31 61 25 30 60 26 31 61 26 31 61 26 31 61 26 31 60 25 30 59 25 30 59 27 32 61 27 32 61 27 32 61 28 33 62 24 29 58 26 30 59 26 30 59 25 30 60 26 31 61 26 31 60 26 31 61 25 30 60 24 29 59 24 29 59 25 30 60 25 30 60 26 31 61 26 31 61 26 31 61 26 29 60 25 30 60 26 31 61 25 30 60 25 30 60 25 30 59 26 31 60 26 31 60 26 31 60 26 31 60 26 31 60 25 30 59 26 31 60 26 31 60 26 31 60 26 31 60 27 32 61 27 31 60 27 31 60 27 31 60 26 30 59 26 30 59 28 32 61 28 32 61 30 34 63 28 33 62 27 31 60 27 31 60 26 30 59 25 29 58 24 28 57 24 28 57 25 29 58 
24 31 60 24 33 62 25 34 65 25 34 63 27 33 65 27 34 63 26 33 62 24 31 60 24 31 60 25 32 61 25 32 61 26 33 62 26 33 62 25 32 61 26 33 62 26 33 62 26 33 62 26 33 62 26 33 62 25 32 61 24 31 60 26 33 62 22 33 61 23 32 61 23 30 59 22 29 58 26 33 62 26 33 62 28 35 64 29 34 64 28 35 64 27 32 61 26 33 62 26 31 61 24 31 59 25 32 61 26 33 61 25 32 60 25 32 60 26 31 61 26 31 61 25 30 60 26 31 61 26 31 61 25 30 59 25 30 60 24 29 59 24 29 59 27 32 62 28 34 60 27 32 61 28 33 62 26 31 60 27 31 60 27 28 58 25 30 60 26 31 61 27 32 61 26 31 61 25 30 60 26 29 60 25 28 59 25 28 59 27 30 61 27 30 61 27 30 61 26 29 60 25 30 60 26 30 59 26 30 59 27 32 61 26 31 60 25 30 59 25 30 59 26 30 59 26 30 59 26 31 60 25 30 59 24 29 58 26 31 60 26 31 60 26 31 60 25 30 59 28 33 62 28 32 61 27 31 60 27 31 60 26 30 59 26 30 59 28 32 61 29 33 62 29 33 62 27 32 61 26 31 60 27 31 60 25 29 58 25 29 58 25 29 58 24 28 57 23 27 56 
