P3
100 50
255
44 33 41 46 33 42 58 43 50 61 46 53 71 54 62 78 58 67 85 64 73 89 67 79 92 68 81 95 69 82 93 70 80 91 67 80 93 66 81 91 71 82 92 70 82 93 71 84 94 72 85 94 72 85 94 70 84 93 71 84 92 70 82 93 69 82 92 70 82 91 69 81 91 69 82 91 69 81 89 67 79 89 67 79 87 60 75 80 56 70 71 51 63 64 42 55 54 36 48 47 31 41 42 29 38 40 27 36 39 28 36 38 26 36 40 28 38 39 25 38 38 26 38 39 25 38 38 26 38 39 27 37 37 25 35 35 25 36 34 24 33 34 24 33 36 26 34 37 27 35 38 28 37 39 28 36 39 28 36 40 27 34 41 29 33 46 31 36 48 31 37 51 35 36 57 37 38 61 39 41 63 41 43 71 46 49 73 48 51 80 54 55 83 54 56 90 60 60 92 61 59 96 65 63 95 64 61 95 64 61 96 62 60 95 61 59 82 48 47 78 44 45 72 38 39 70 36 37 69 35 36 70 36 37 74 39 43 71 39 44 70 38 43 69 37 40 66 37 41 63 34 39 61 34 39 56 34 37 55 32 38 50 34 35 53 34 36 49 34 39 49 36 43 56 46 54 60 50 59 64 56 69 65 59 73 65 61 75 68 62 76 66 62 77 64 60 74 64 60 74 
45 33 43 46 35 43 59 44 51 59 46 55 72 55 63 79 59 70 86 65 74 90 67 77 92 69 79 95 69 82 94 71 81 92 68 81 94 68 81 91 69 81 92 70 83 93 71 83 94 72 84 94 72 84 94 72 84 93 71 83 92 70 82 92 70 82 93 71 83 91 69 81 91 69 81 91 70 79 89 68 77 88 64 77 85 59 72 79 55 71 71 49 62 64 42 54 54 37 47 47 31 41 41 28 35 38 27 35 38 27 35 38 26 36 40 27 36 39 27 39 39 26 36 39 25 38 39 25 38 38 26 38 37 25 37 36 24 36 34 24 33 35 25 34 37 27 36 38 28 36 38 28 36 40 29 37 39 28 34 41 28 35 43 28 35 45 30 35 47 30 38 52 33 37 56 36 38 59 39 41 62 40 42 69 47 49 71 46 49 79 53 54 83 54 58 89 59 59 92 62 60 94 64 62 95 64 61 97 66 63 94 63 60 93 62 57 84 50 49 79 45 46 72 38 39 71 37 38 69 35 36 69 35 36 70 38 41 71 39 44 70 38 43 67 36 44 65 36 41 64 35 40 60 33 40 54 33 38 55 32 38 50 34 35 52 33 37 50 35 40 51 38 45 59 48 56 60 50 59 65 57 70 66 58 73 65 63 76 69 63 77 67 61 75 66 60 74 66 59 75 
48 38 46 48 38 46 61 48 57 65 52 59 75 60 67 80 63 69 87 67 76 91 70 79 92 70 82 92 70 82 93 71 83 92 68 81 94 68 81 92 68 81 94 68 81 93 69 82 94 70 83 94 70 83 94 70 83 92 68 81 92 68 81 93 70 80 91 68 78 92 69 79 93 67 80 93 67 80 93 67 78 89 63 74 85 59 70 81 55 66 72 49 59 63 42 51 53 36 44 45 30 37 41 28 35 37 26 32 37 26 34 38 27 35 37 27 35 40 27 36 39 26 36 37 23 36 38 26 38 38 24 37 38 24 37 36 24 34 36 24 34 37 25 37 39 28 36 38 28 37 39 28 36 38 28 37 41 28 37 41 28 37 45 28 38 45 28 38 46 29 37 47 30 38 46 31 36 51 35 38 53 34 40 60 38 41 61 39 41 70 46 46 72 47 50 83 55 52 85 57 56 91 61 59 98 64 62 98 67 64 98 69 63 99 68 63 93 63 61 93 62 60 76 44 45 75 43 46 67 35 36 68 36 37 69 39 41 69 37 38 67 36 44 66 37 42 61 34 39 59 34 38 57 34 40 54 32 35 52 32 34 47 32 37 48 31 37 49 36 43 52 39 48 57 49 62 62 52 63 65 59 73 66 60 74 64 60 74 69 63 73 67 61 71 66 59 67 66 59 66 
48 38 47 51 40 48 63 50 59 69 54 61 78 61 69 83 63 72 88 67 76 92 69 79 92 68 81 93 69 82 95 69 82 95 69 82 96 70 83 94 68 81 93 69 82 95 69 82 96 70 83 96 70 83 96 70 83 96 70 83 94 68 81 94 68 81 93 67 78 93 67 78 94 68 81 93 67 80 92 66 77 91 63 75 85 59 70 81 55 66 71 48 58 63 42 51 53 36 44 44 31 38 40 28 32 37 28 33 38 27 33 37 27 35 35 28 35 39 28 36 38 26 36 38 25 35 39 25 38 39 25 38 37 25 37 36 24 36 38 26 36 38 26 36 40 29 37 40 28 38 39 27 37 39 27 37 40 27 36 41 28 37 44 28 38 45 28 38 45 28 38 47 30 38 45 33 37 50 34 37 52 33 37 59 39 41 58 38 40 69 44 47 69 45 45 81 53 52 84 56 55 90 60 58 93 64 60 96 66 64 98 69 63 99 68 63 95 64 62 95 65 63 79 47 48 74 44 44 68 36 37 68 38 40 69 38 43 68 37 42 68 37 42 65 36 41 61 35 38 59 34 38 58 33 39 52 31 36 53 30 36 47 32 39 48 33 40 49 36 45 52 39 48 59 49 60 62 52 63 65 59 73 66 60 72 67 61 75 67 61 71 68 62 72 66 59 67 67 58 63 
55 39 52 56 40 51 72 52 64 76 54 66 87 61 74 90 62 76 95 64 79 96 65 80 99 67 82 98 66 81 99 67 82 98 66 81 98 66 81 97 69 83 95 67 81 100 69 84 99 68 83 99 68 83 100 69 84 98 68 80 98 68 80 97 67 79 97 67 79 98 68 80 95 67 79 97 67 79 95 68 77 93 66 75 83 60 68 79 58 65 71 52 58 62 45 51 51 39 43 42 33 36 36 32 31 34 30 31 34 30 31 35 30 34 35 30 34 36 31 37 38 28 37 37 27 36 38 26 36 39 25 38 37 25 37 37 25 35 38 28 39 39 29 38 40 30 39 41 31 40 38 28 37 38 28 37 39 27 37 39 28 36 42 29 38 42 29 38 42 26 36 44 28 38 47 30 38 47 30 38 47 30 38 52 33 39 51 32 36 61 39 42 63 38 41 73 47 48 76 50 49 85 57 54 89 61 57 94 67 60 99 70 62 100 71 63 101 76 72 101 77 75 85 53 54 80 48 49 68 38 38 69 39 41 70 40 42 68 37 42 65 36 40 61 34 39 60 35 39 56 34 36 54 33 38 51 32 36 49 30 36 46 30 40 49 32 40 49 36 45 52 40 50 60 50 59 61 53 66 65 59 73 65 59 73 64 60 75 67 61 71 67 60 68 68 59 64 69 58 62 
60 42 54 61 43 55 76 54 66 77 55 67 87 61 74 90 62 76 92 66 79 94 66 78 95 67 81 95 67 81 98 67 82 95 67 81 95 69 80 95 69 80 96 70 81 100 70 82 97 69 83 98 70 84 97 69 81 96 68 80 95 67 79 96 68 80 94 66 78 94 66 78 95 67 81 94 66 78 95 67 79 93 65 77 87 61 72 81 58 68 74 53 62 65 45 54 55 40 47 47 34 41 41 30 34 38 29 34 36 30 34 35 28 35 37 30 37 34 27 35 38 28 37 38 28 37 38 28 37 40 28 38 39 27 37 39 27 37 38 28 37 38 28 37 39 29 38 38 28 37 39 29 38 38 28 37 39 27 37 40 29 37 41 30 38 41 30 38 41 28 37 44 29 36 45 28 36 46 29 37 45 28 36 48 31 37 48 31 37 55 34 39 56 35 40 65 43 45 68 47 46 77 51 50 81 57 53 87 62 58 94 69 64 99 74 67 100 77 71 101 77 73 89 60 56 86 56 54 75 43 44 73 41 42 68 36 39 68 37 42 65 36 40 60 35 39 58 36 39 54 34 36 54 34 36 52 31 36 48 29 31 45 32 41 45 32 41 49 37 47 52 40 50 61 49 59 63 53 62 67 57 66 68 58 66 68 58 66 69 60 63 70 59 63 67 57 55 66 56 54 
66 46 57 66 46 57 79 57 69 80 58 70 86 63 73 89 66 76 91 68 78 91 68 78 93 67 80 94 68 81 93 69 82 92 68 81 94 68 79 97 71 82 99 69 81 96 70 81 98 70 82 97 69 81 97 69 81 96 68 80 95 67 79 94 66 78 95 67 79 93 65 77 95 67 79 95 67 79 94 68 79 94 66 78 90 62 74 85 59 70 78 52 63 68 48 57 62 42 53 50 34 44 46 30 40 39 28 36 38 28 37 38 31 39 39 29 38 37 27 38 36 29 37 38 28 37 38 28 37 39 29 38 38 28 37 38 28 37 38 27 33 38 26 36 38 26 36 38 26 36 39 27 37 39 27 37 40 28 38 40 29 37 40 29 37 40 29 37 41 28 35 43 28 35 45 28 34 45 28 34 45 28 38 47 27 36 46 29 37 49 29 40 50 30 39 56 37 39 62 42 44 70 48 50 77 53 51 82 58 54 93 68 61 99 74 67 100 77 71 98 78 69 93 65 62 88 63 58 84 50 51 80 46 47 66 34 37 65 34 39 64 37 42 61 36 40 57 37 39 53 34 36 53 33 35 49 30 32 48 29 31 42 32 40 45 34 42 49 38 46 52 41 49 62 49 58 64 53 61 68 55 62 69 57 61 71 59 61 70 59 57 69 58 54 65 55 46 64 54 45 
69 49 60 70 50 61 79 57 69 81 59 71 88 64 77 90 66 79 94 68 81 94 68 81 94 68 81 95 69 82 93 67 80 95 69 82 94 68 79 95 67 79 94 66 78 95 69 80 96 68 80 96 68 80 95 67 79 96 68 82 94 66 80 94 66 80 94 66 80 94 66 80 93 67 78 94 68 79 95 69 80 95 67 79 92 64 76 87 61 72 82 56 67 73 52 61 66 46 55 53 37 47 46 33 42 40 29 37 37 27 36 38 28 37 39 29 38 36 29 37 36 29 37 38 28 39 38 28 37 39 29 38 39 29 38 39 29 37 39 28 36 39 27 37 37 27 36 39 29 38 38 26 36 39 27 37 39 27 37 39 28 36 40 29 37 39 28 36 38 27 33 42 27 34 43 28 33 44 29 36 43 28 35 43 28 35 44 27 35 44 29 36 44 29 36 52 33 37 57 38 42 64 42 44 70 49 48 77 53 51 87 64 58 94 69 64 98 79 72 99 82 74 96 71 66 95 66 62 87 53 52 82 48 49 68 36 39 66 35 40 60 34 37 58 33 36 56 34 37 53 33 35 51 30 35 49 29 31 49 29 31 45 34 40 47 34 41 52 41 47 54 43 49 63 50 57 64 53 57 67 55 59 68 56 58 66 56 55 67 56 52 69 56 50 64 54 44 62 53 38 
70 50 61 70 50 61 80 58 70 82 60 72 89 65 78 90 66 79 92 68 81 93 67 80 94 68 81 94 68 81 95 69 82 91 67 80 94 68 79 93 67 78 94 68 79 93 70 80 95 67 79 95 67 79 95 67 79 96 68 80 95 67 79 94 66 78 94 66 78 94 66 78 95 67 79 95 67 79 95 69 80 95 67 79 92 64 76 90 62 74 85 59 70 75 54 63 69 48 57 56 39 49 49 33 43 39 28 36 39 28 36 40 27 37 38 28 37 38 28 37 38 28 37 39 29 40 39 29 38 39 29 38 39 29 38 39 29 37 39 28 36 39 27 39 38 27 35 38 26 36 38 26 36 39 27 37 38 27 35 37 27 35 39 28 36 37 26 34 38 27 35 42 26 36 44 27 33 42 27 34 42 27 34 43 28 35 43 28 33 44 27 35 44 29 36 52 33 39 56 35 40 61 39 42 68 44 42 73 49 45 83 60 52 89 66 60 98 78 71 99 80 73 99 74 69 100 71 67 89 58 56 83 51 52 69 37 40 66 36 38 57 31 34 57 32 35 55 33 36 53 33 35 50 31 35 49 28 33 47 28 32 45 34 38 46 35 39 53 40 47 56 43 50 63 51 55 65 53 55 69 54 57 67 55 55 66 55 53 66 55 51 68 55 49 62 52 40 61 53 40 
70 52 64 71 53 65 81 59 71 83 61 73 90 66 79 91 67 80 94 68 79 94 68 79 94 68 79 95 69 80 94 68 79 96 70 81 94 68 79 92 66 77 92 66 77 94 66 78 95 67 79 95 67 79 94 66 78 95 67 79 94 66 78 94 66 78 95 68 77 94 67 76 95 67 79 95 67 79 97 69 81 96 68 80 94 68 79 92 64 76 88 65 75 81 60 69 75 54 63 64 44 55 58 38 49 41 28 37 39 28 36 35 25 34 37 27 36 37 27 36 35 28 36 38 28 37 38 28 37 39 29 38 37 30 38 39 29 38 40 30 38 39 29 38 39 28 36 39 27 37 38 28 36 38 26 36 37 27 35 39 26 35 38 27 35 38 27 35 37 27 36 40 27 36 40 27 34 42 26 36 41 25 35 39 28 36 42 26 36 43 27 37 43 28 33 47 30 36 47 30 36 53 32 37 57 37 38 63 42 41 74 53 50 79 58 53 93 72 67 97 77 70 101 77 73 100 77 71 94 64 64 88 58 56 74 46 45 68 40 39 58 32 35 56 31 35 52 29 35 51 30 35 50 29 36 49 30 34 50 29 36 48 36 36 49 38 36 57 43 43 58 46 46 64 53 51 64 53 51 67 53 52 65 51 48 62 51 45 63 50 41 64 52 40 61 49 35 61 49 33 
73 53 64 71 54 64 82 61 70 84 63 72 89 66 76 92 69 79 93 70 80 94 68 79 90 67 77 94 68 79 94 68 79 93 67 78 95 69 80 93 65 77 93 65 77 92 66 77 94 66 78 94 68 79 95 67 79 95 67 79 94 68 79 94 68 79 95 67 79 93 67 78 95 69 82 95 68 77 97 69 81 97 69 81 97 67 77 93 67 76 91 65 76 84 61 71 78 56 68 62 45 55 56 39 49 40 29 37 39 26 35 36 26 35 37 26 32 37 27 36 38 28 37 35 28 36 39 29 40 39 29 40 39 29 38 39 29 38 39 27 37 39 27 37 38 26 36 39 28 36 38 27 35 38 26 36 39 28 36 38 27 35 39 28 36 38 27 35 38 27 33 39 28 34 40 27 34 40 27 36 42 26 36 40 27 36 40 27 36 40 27 36 42 26 36 43 28 35 47 30 36 50 31 33 55 35 36 61 40 39 70 49 46 75 54 51 94 71 63 97 77 68 99 79 70 101 78 72 96 66 64 92 62 60 76 46 46 68 39 41 56 30 31 54 32 34 52 31 36 51 30 37 49 30 36 49 30 36 48 29 35 50 36 36 51 37 37 58 44 43 60 46 45 67 53 52 66 52 51 66 52 49 66 53 47 63 50 42 63 49 40 63 49 38 61 49 35 60 48 32 
72 52 63 74 54 65 82 60 72 85 61 74 89 65 78 91 67 80 93 67 80 93 67 80 92 69 79 94 68 79 94 68 79 92 69 79 94 68 79 93 65 77 92 64 76 93 67 78 94 68 79 95 67 79 95 69 80 95 69 80 96 68 80 95 67 79 95 69 80 95 67 79 95 69 80 97 69 81 98 68 80 96 70 81 96 69 78 95 68 77 93 67 78 87 64 74 83 63 72 73 53 62 66 46 57 48 32 42 43 30 39 35 25 33 36 24 34 36 26 35 37 27 36 36 29 36 39 29 38 39 29 37 39 29 38 39 29 38 39 27 37 39 28 36 39 27 37 38 26 36 37 26 34 37 27 35 38 27 35 39 28 36 38 27 33 39 26 33 39 28 34 40 29 35 40 27 36 39 26 35 40 27 36 38 26 36 39 26 35 40 27 36 39 28 36 41 28 37 41 29 33 45 29 32 50 31 35 53 34 36 61 41 43 65 45 46 81 61 54 85 65 58 97 77 70 100 76 72 100 75 71 96 71 67 86 60 59 78 50 49 61 35 36 57 35 37 54 33 38 52 31 36 50 31 35 50 31 37 50 31 37 53 39 36 54 41 35 61 48 42 63 48 43 67 52 45 65 50 43 63 50 41 64 50 39 63 47 34 62 48 35 62 49 33 61 48 32 61 48 31 
72 52 63 74 54 65 81 59 71 84 62 74 89 65 78 91 67 80 95 69 82 93 67 80 93 67 78 95 67 79 94 68 79 94 68 79 94 68 79 91 65 76 93 65 77 94 66 78 94 68 79 96 68 80 94 68 79 94 68 79 96 68 80 96 68 80 94 68 79 96 68 80 94 68 79 96 68 80 98 68 80 96 68 80 95 68 77 95 68 77 93 67 78 89 66 76 85 62 72 73 53 62 64 47 55 47 31 41 46 30 40 36 25 33 35 23 35 36 26 35 36 26 34 36 29 37 38 28 36 39 29 37 38 28 36 39 29 38 40 29 37 39 28 36 39 28 36 38 26 36 38 27 35 39 28 36 37 26 34 38 27 35 40 29 35 39 28 36 42 29 38 41 28 35 39 26 35 38 27 35 39 26 35 38 26 36 38 27 35 38 27 35 38 27 35 41 28 35 43 28 31 44 28 31 47 31 34 51 32 36 58 39 41 62 44 44 78 58 49 86 63 55 100 75 68 100 77 71 101 76 72 96 72 68 86 60 59 77 53 51 63 39 39 58 36 38 56 34 36 52 31 36 49 30 34 52 33 39 52 33 37 53 39 36 58 40 36 63 48 41 63 48 41 67 52 45 65 51 42 64 50 39 63 49 38 61 47 34 61 48 32 60 47 31 60 47 30 61 48 31 
73 53 62 72 55 63 84 61 71 85 62 72 90 67 77 93 67 78 95 69 80 92 66 77 93 67 78 94 68 79 93 67 78 93 65 77 93 67 78 92 66 77 92 66 77 94 66 78 93 67 78 94 66 78 94 68 79 94 68 79 95 67 79 96 68 80 92 66 77 93 65 77 93 67 78 94 66 78 94 66 78 94 67 76 92 65 74 94 67 76 94 68 77 92 66 77 89 66 76 81 60 69 75 55 64 56 39 49 53 38 45 38 25 35 38 25 34 37 25 35 37 28 33 36 29 37 39 29 38 38 28 36 38 28 36 38 28 36 37 26 34 37 26 34 37 26 34 36 25 33 36 25 31 35 25 33 36 25 33 36 25 33 37 26 32 39 26 35 38 27 35 38 27 35 38 27 35 38 27 35 37 26 34 36 25 33 36 25 33 36 26 34 38 27 35 39 28 32 42 27 32 40 28 32 43 31 35 45 30 35 49 33 36 51 35 38 65 44 41 71 47 43 91 71 64 95 75 68 100 81 75 99 80 74 96 77 71 86 65 60 70 49 46 65 45 44 62 40 42 55 35 36 51 32 36 52 33 37 53 34 40 59 45 34 60 46 35 66 52 41 67 53 42 65 51 38 64 50 37 62 49 33 62 49 32 60 47 30 64 49 30 65 50 31 65 50 29 65 50 29 
72 52 63 75 55 66 83 62 71 83 62 71 90 67 77 90 67 77 94 68 79 93 67 78 92 66 77 94 66 78 93 67 78 91 65 76 92 66 77 90 67 77 93 65 77 94 66 78 94 66 78 93 67 78 94 66 78 96 68 80 93 67 78 93 67 78 94 66 78 91 65 76 92 66 77 93 65 77 93 65 77 93 66 75 94 67 76 93 66 75 92 66 75 92 66 77 89 66 76 81 60 69 78 57 66 58 41 51 54 38 48 39 26 36 38 26 36 37 27 35 37 27 35 38 28 37 38 28 37 37 27 36 38 28 36 37 27 35 36 26 35 37 26 34 35 24 32 36 25 33 35 24 32 35 24 32 36 25 31 35 24 32 36 25 33 35 24 30 36 26 34 37 26 34 39 26 35 38 27 35 37 26 34 35 25 33 36 25 33 38 27 35 38 27 35 39 28 36 39 26 33 42 27 32 43 28 33 46 29 35 48 31 37 50 34 37 64 44 43 70 46 44 92 68 64 95 71 67 100 83 76 98 79 73 98 79 73 87 68 62 74 53 50 66 47 43 62 42 43 55 36 38 51 32 36 53 34 38 55 36 40 59 45 32 61 47 36 67 50 40 64 50 39 65 51 38 65 52 36 65 49 33 64 48 32 64 51 34 64 49 30 65 50 31 66 51 32 64 49 30 
76 54 66 77 57 68 86 63 73 86 63 73 92 66 77 91 68 78 96 66 78 92 66 77 90 66 79 93 65 77 93 65 77 91 65 76 92 66 77 93 66 75 93 66 75 91 65 74 93 65 77 92 66 77 93 65 77 93 65 77 92 66 77 92 66 77 92 64 76 92 66 77 92 66 77 92 64 76 91 64 73 92 65 74 94 67 76 93 66 75 93 66 75 93 67 76 93 67 76 86 63 73 85 62 72 65 45 56 64 44 55 43 27 37 42 29 39 38 26 36 38 28 37 39 29 38 39 29 38 36 26 34 36 26 35 36 26 35 35 25 34 35 24 32 33 22 30 34 23 31 33 22 30 31 21 29 32 21 27 33 22 30 33 22 30 35 22 29 36 23 30 34 23 31 35 24 30 36 25 33 35 24 32 35 24 30 34 23 31 36 25 31 36 25 31 37 26 32 38 27 33 39 26 33 42 27 34 42 27 32 44 27 35 43 26 34 58 36 38 64 40 40 85 66 62 90 71 67 99 84 79 98 85 77 100 87 79 92 77 70 83 62 57 75 56 52 67 48 44 58 40 40 54 36 34 52 36 37 52 36 37 59 47 33 59 47 33 64 52 38 64 50 37 62 49 33 62 49 32 60 49 27 62 49 30 65 50 31 62 49 30 61 48 29 64 51 32 65 50 31 
77 55 67 77 57 66 85 62 72 86 63 73 89 66 76 92 66 77 94 66 78 93 65 77 92 66 77 92 64 76 92 66 77 91 65 76 90 64 73 92 65 74 92 65 74 92 66 75 93 65 77 92 66 77 93 65 77 93 65 77 93 67 78 91 65 76 92 64 76 91 65 76 91 65 76 92 64 76 90 63 72 91 65 74 94 67 76 93 66 75 93 66 75 92 66 75 92 66 77 87 64 74 85 62 72 67 46 55 64 44 55 45 29 40 45 28 38 39 27 39 38 28 37 37 27 36 36 26 34 36 26 34 35 25 33 34 24 33 35 25 33 35 24 32 34 23 29 35 24 32 33 22 30 33 22 30 33 22 28 33 22 28 33 22 30 34 23 31 33 24 29 34 23 29 34 23 29 35 24 30 35 24 30 34 23 29 33 24 29 36 25 31 36 25 31 37 26 30 37 26 32 38 25 32 38 25 32 42 27 34 42 27 34 42 25 33 55 35 36 59 38 37 83 63 62 88 70 66 100 85 80 100 87 79 100 90 81 94 81 73 86 67 61 77 58 52 71 50 47 62 43 39 56 38 36 52 37 34 52 36 37 58 46 32 60 46 33 64 50 37 64 50 37 62 49 32 63 50 33 61 48 29 62 49 30 63 50 31 62 49 30 61 50 30 64 51 34 67 51 35 
78 58 67 79 59 68 86 63 73 86 63 73 89 66 76 91 65 76 92 64 76 91 65 76 91 64 73 91 65 74 91 65 74 91 64 73 93 63 73 91 65 74 91 65 74 92 65 74 90 64 75 92 64 76 91 65 76 91 65 76 92 64 76 91 63 75 90 64 75 91 63 75 90 64 75 91 65 74 91 64 73 90 64 73 92 65 74 93 66 75 93 66 75 94 67 76 92 66 77 88 65 75 86 63 73 70 48 60 66 46 57 47 31 42 43 32 40 41 30 38 39 29 37 37 28 33 36 26 35 34 24 33 34 24 32 34 24 32 33 23 31 34 23 31 33 22 28 33 22 30 33 22 30 32 23 28 33 22 28 32 21 29 33 22 28 33 20 27 33 22 28 32 21 27 32 19 26 35 22 29 35 22 29 33 22 28 33 22 28 32 21 27 32 23 26 34 23 29 37 24 31 37 24 31 38 25 32 42 27 34 41 24 32 39 22 30 50 29 34 57 32 36 79 61 61 85 67 65 98 87 81 98 89 80 101 94 84 97 87 78 93 76 68 84 65 59 76 55 50 64 45 41 61 42 38 53 38 35 53 38 33 58 46 32 58 46 32 63 51 35 63 51 35 61 50 32 59 48 30 61 48 29 62 49 30 63 52 32 62 49 30 61 50 30 64 51 34 65 52 33 
77 57 66 79 58 67 85 62 72 86 63 73 91 65 76 90 64 75 92 66 77 92 64 76 91 64 73 90 64 73 90 64 73 89 63 72 92 66 75 90 64 73 91 65 74 90 64 73 92 64 76 91 65 76 92 65 74 91 65 74 90 64 73 92 65 74 91 65 76 92 66 77 91 65 74 91 64 73 91 63 75 91 64 73 91 64 73 92 65 74 93 66 75 92 64 76 94 67 76 89 63 74 87 61 72 69 47 59 66 46 57 47 31 41 48 31 41 40 28 38 40 28 38 35 25 34 34 24 32 34 24 32 33 23 31 34 23 31 34 23 31 32 22 30 34 23 31 34 23 29 34 23 31 33 22 30 34 23 29 33 22 28 33 22 28 33 22 28 33 22 28 33 22 28 33 20 27 34 23 29 38 23 30 34 23 27 33 22 26 32 23 26 33 22 28 32 21 25 33 21 25 35 22 29 37 24 31 40 25 32 40 23 31 39 22 30 49 26 32 52 30 33 76 58 58 82 64 64 98 87 81 100 89 83 99 95 86 99 89 80 97 80 72 89 70 63 78 59 53 69 50 46 63 44 40 54 39 36 53 38 33 58 48 36 60 48 34 65 53 41 64 52 36 62 51 33 62 51 33 62 51 31 63 52 32 65 54 34 64 51 32 64 51 32 65 52 35 67 54 37 
76 56 65 79 59 68 86 63 73 85 62 72 88 65 75 91 65 76 90 64 75 90 62 74 89 61 73 89 63 72 91 63 75 90 64 73 91 65 76 89 62 71 90 64 75 93 63 73 93 63 75 90 64 75 91 63 75 91 63 75 91 65 74 92 65 74 91 65 74 91 65 74 92 66 75 92 65 74 92 65 74 92 65 74 92 65 74 92 65 74 92 65 74 92 64 76 92 64 76 89 62 71 87 61 72 68 46 58 65 45 54 49 32 42 48 32 43 42 30 40 40 28 38 31 24 31 34 24 32 33 23 31 33 23 31 34 24 32 33 23 31 33 24 29 34 23 31 34 23 29 34 22 32 34 23 29 35 24 30 34 23 29 33 22 26 33 22 28 33 22 28 33 20 27 33 20 27 35 22 29 36 24 28 34 23 27 35 24 28 33 22 26 33 23 24 32 21 25 34 22 26 35 22 29 39 24 31 41 26 33 40 23 31 38 21 29 44 25 31 49 24 30 74 54 55 81 63 63 98 87 81 100 89 83 99 96 87 99 91 80 101 82 75 93 75 65 83 63 56 71 54 47 65 47 45 55 40 35 53 38 35 60 48 34 61 49 35 66 54 40 67 55 39 64 53 35 63 52 34 64 53 33 64 53 33 67 56 36 65 52 33 66 53 34 68 55 38 66 55 35 
75 55 64 77 57 66 85 64 73 83 62 71 88 65 75 90 64 75 89 63 74 91 63 75 91 65 76 90 64 75 91 65 76 89 63 74 89 63 74 90 64 75 89 63 74 90 64 75 90 64 75 90 64 75 90 64 75 90 64 75 90 64 75 90 64 75 90 64 73 90 64 73 90 64 73 90 64 73 91 64 73 91 64 73 91 64 73 91 64 73 91 64 73 90 63 72 90 63 72 86 60 69 83 60 70 70 49 58 68 48 59 52 35 45 50 33 43 38 26 36 38 27 35 32 22 30 33 23 31 32 25 32 32 25 32 33 24 29 35 24 30 36 25 31 37 22 29 36 24 28 37 22 29 37 22 25 38 23 26 35 23 27 33 22 26 35 23 27 36 24 28 35 23 27 35 23 27 35 23 25 36 24 26 35 23 25 35 23 25 35 23 25 35 23 25 35 23 27 37 22 27 37 22 27 38 23 26 39 24 29 38 21 27 37 20 26 40 25 32 42 25 33 73 51 53 83 59 57 99 86 78 98 89 80 92 98 86 98 95 88 99 92 86 96 78 74 91 67 63 77 58 52 69 50 43 56 41 38 56 41 36 61 50 32 62 49 32 66 53 36 67 54 35 64 51 32 66 53 34 66 54 32 67 55 33 69 57 35 68 55 36 67 55 33 71 55 39 72 59 42 
75 55 64 76 56 65 84 63 72 84 63 72 87 64 74 87 64 74 89 63 74 90 64 75 91 65 76 90 64 75 90 64 75 89 63 74 86 63 73 89 63 74 88 62 73 90 62 74 91 63 75 90 64 75 93 63 75 91 63 75 90 64 75 91 63 75 90 63 72 89 63 72 89 63 72 91 64 73 91 64 73 90 63 72 90 63 72 92 62 72 90 63 72 89 62 71 89 61 73 85 59 70 81 58 66 70 49 58 68 48 57 51 35 45 51 36 43 38 27 35 37 26 34 32 22 30 32 22 30 31 24 32 32 25 32 34 24 32 34 23 29 34 23 27 37 22 27 36 21 28 39 23 26 38 22 25 39 23 26 38 22 25 37 22 25 37 22 27 36 24 28 36 24 26 36 24 26 35 23 25 35 23 25 34 22 24 35 23 25 35 23 25 37 22 25 37 22 25 39 24 27 39 23 26 38 22 25 38 22 25 38 22 25 38 22 25 37 24 33 36 27 32 74 48 49 83 55 54 100 87 78 97 90 80 95 98 89 95 96 90 100 95 92 100 82 82 98 70 67 81 57 53 73 50 44 57 44 38 56 41 36 62 49 32 62 49 32 67 54 37 66 53 34 66 53 34 66 53 34 67 55 33 68 56 34 69 57 35 68 55 36 67 54 35 73 58 37 71 58 39 
76 56 65 77 57 66 85 64 73 87 66 75 87 64 74 89 66 76 87 64 74 90 64 75 89 63 74 88 64 77 87 64 74 86 64 76 86 63 73 89 61 75 88 62 73 89 63 76 88 62 75 89 63 76 89 63 74 87 64 74 88 62 73 89 63 74 88 62 73 86 63 73 88 62 71 88 62 73 89 63 74 89 63 72 90 63 72 90 63 72 91 64 73 90 63 72 90 64 75 87 61 70 86 60 71 75 53 65 73 52 61 57 40 48 55 38 48 41 28 35 39 26 33 34 24 32 34 23 31 33 26 33 35 25 33 35 26 31 36 25 29 37 25 29 38 23 28 37 22 27 38 23 26 39 25 25 39 24 27 39 24 27 36 24 28 35 23 27 35 23 27 36 24 28 35 23 25 36 24 24 36 24 26 36 24 26 36 24 26 35 23 25 36 24 26 36 21 24 37 22 27 38 23 28 35 23 27 38 23 28 38 21 27 39 22 28 32 21 27 30 19 25 61 37 37 69 45 43 99 80 73 97 84 75 97 97 89 97 97 89 100 96 93 98 87 83 97 76 73 86 66 59 78 58 49 63 48 43 62 47 42 63 50 33 63 50 33 67 54 37 66 53 36 66 53 34 66 53 34 66 53 34 68 55 36 69 56 37 68 55 36 69 56 37 71 58 41 72 59 42 
77 57 68 76 56 67 86 64 76 85 63 75 88 64 77 87 63 76 87 63 76 88 64 77 89 63 76 90 64 75 86 62 75 86 63 73 86 62 75 88 62 73 88 62 75 86 63 73 88 62 75 88 62 75 87 64 74 89 63 74 88 62 73 88 62 73 88 62 73 88 62 73 86 63 73 88 62 73 89 63 74 88 62 73 88 62 73 90 63 72 90 63 72 90 62 74 90 62 74 88 62 75 87 61 70 77 54 64 74 53 62 58 41 49 57 40 46 43 30 37 41 28 37 33 22 30 32 25 32 36 26 34 33 28 34 34 24 32 36 25 31 37 25 29 39 24 29 39 24 27 39 24 27 40 24 27 39 23 26 39 24 27 37 23 23 37 22 27 35 23 27 36 24 28 36 24 26 36 24 26 37 25 27 35 23 25 37 25 27 35 23 27 38 23 26 36 21 24 37 22 27 37 22 27 37 22 27 37 22 27 39 22 28 39 22 28 28 19 24 26 17 22 57 33 33 65 41 39 97 78 72 96 83 75 96 96 88 97 97 89 98 97 92 98 89 84 100 81 77 86 66 59 82 59 53 65 50 45 66 48 44 62 49 32 62 49 32 66 53 36 66 53 36 66 53 34 66 53 34 67 54 35 67 54 35 68 56 34 68 55 36 69 56 39 72 59 42 71 58 39 
78 58 69 79 59 70 86 64 76 86 64 76 87 63 76 88 64 77 87 63 76 88 64 77 88 64 77 88 64 78 88 66 78 86 66 78 86 65 74 86 62 76 86 62 75 87 63 76 86 63 73 86 62 75 85 63 75 86 62 75 86 62 75 85 63 75 85 61 74 84 62 75 84 61 71 84 60 73 85 62 72 83 60 70 84 61 71 85 62 70 87 61 72 88 62 73 89 61 73 89 61 73 88 60 72 84 56 70 82 54 66 66 45 54 64 44 53 49 32 40 46 31 38 35 24 30 36 23 30 34 25 30 33 24 29 34 23 29 37 25 29 36 25 29 40 25 28 40 25 28 42 26 29 41 25 28 40 24 27 39 22 28 38 23 26 36 21 26 33 21 25 34 22 24 34 22 24 34 22 24 33 23 24 35 23 25 34 22 26 38 23 26 37 22 25 37 22 25 36 21 24 37 22 25 38 23 26 38 24 24 39 24 27 40 24 27 29 20 25 27 16 22 47 25 28 52 32 33 90 66 62 92 73 67 98 93 87 99 92 86 97 98 92 99 92 84 99 86 78 92 71 68 88 63 59 71 53 49 68 51 44 62 49 33 62 50 34 64 52 36 65 53 37 64 53 35 66 55 37 66 55 37 67 56 38 67 56 38 68 57 39 67 56 38 70 58 42 69 60 43 
79 59 71 78 60 72 86 64 77 87 65 78 88 64 78 90 63 78 88 64 78 88 64 78 89 65 79 88 66 79 87 65 78 86 66 78 87 67 79 86 64 77 86 64 77 85 63 76 85 63 75 85 63 75 84 62 75 85 63 76 84 62 75 84 62 75 84 60 73 83 61 73 83 61 73 82 60 72 82 61 70 81 60 69 82 61 70 84 61 71 85 59 70 87 61 72 88 60 72 88 60 72 87 59 71 83 57 68 83 57 68 67 46 55 64 44 53 50 35 42 48 31 39 38 25 32 36 23 30 36 25 31 34 23 29 34 23 29 40 25 30 38 26 30 41 26 29 39 27 29 41 26 29 41 26 29 39 24 27 40 25 30 36 24 26 36 21 24 34 19 24 32 20 24 31 21 22 33 21 23 32 21 25 36 21 26 35 20 25 36 21 24 35 23 25 36 21 24 36 21 24 37 22 25 37 22 27 39 22 28 40 25 30 39 23 26 31 19 23 28 19 24 41 23 23 48 30 28 88 62 61 91 70 67 99 90 85 97 92 88 98 99 91 98 95 88 98 89 84 93 74 68 89 65 61 73 54 48 71 52 48 62 50 34 62 50 36 65 53 37 64 52 36 65 54 36 65 54 36 65 54 36 67 56 38 67 56 38 66 58 39 69 57 41 68 59 42 71 59 43 
82 59 75 83 60 76 88 65 81 89 66 82 90 66 82 90 66 82 89 66 82 89 65 81 90 67 83 89 66 82 89 67 80 87 67 79 87 64 80 85 67 83 87 66 81 85 65 77 85 65 76 84 64 76 83 63 75 82 62 74 83 63 75 82 62 74 82 62 74 82 62 73 78 60 72 81 61 73 79 59 71 80 60 71 81 61 70 80 60 69 79 59 68 82 61 70 85 59 70 86 60 69 88 60 72 84 58 67 88 58 70 74 51 59 71 50 57 56 39 45 54 37 43 44 29 34 40 27 34 34 23 29 34 23 31 36 23 30 38 26 30 36 24 28 41 26 29 42 27 30 39 24 27 40 25 28 38 23 26 38 23 26 36 21 26 33 18 23 30 15 22 31 16 21 28 16 20 28 16 18 28 16 18 30 18 22 29 18 22 32 21 25 32 20 22 37 22 25 36 21 24 37 22 25 37 22 25 38 23 26 38 23 26 40 24 27 32 23 28 31 22 27 34 20 20 38 22 23 76 48 45 81 55 54 99 81 77 99 88 84 98 99 91 99 96 89 96 96 86 94 79 72 97 73 69 81 60 55 79 59 52 63 51 37 63 51 37 65 53 39 65 53 39 65 53 37 65 53 37 65 53 37 66 54 38 63 56 37 66 57 40 66 57 40 66 57 42 68 59 44 
83 60 76 83 60 76 88 65 81 89 66 82 89 66 82 89 66 82 89 65 81 88 65 81 89 66 82 86 65 80 87 66 81 87 66 81 86 65 80 83 62 77 81 63 77 80 62 74 81 63 75 79 61 73 78 60 72 79 61 73 78 60 72 77 59 71 77 59 71 77 59 71 76 58 70 75 57 69 77 57 69 76 56 67 78 58 67 78 58 67 77 57 66 80 59 68 81 58 68 83 57 68 86 58 70 84 58 69 86 59 66 75 52 60 73 50 58 58 41 47 57 38 44 47 32 37 42 27 32 34 23 29 34 23 27 37 22 27 36 24 26 36 24 28 41 26 29 41 26 29 40 25 28 40 25 28 40 25 28 39 24 27 39 24 29 36 21 26 31 19 23 29 18 22 28 17 21 28 16 20 28 17 21 29 18 22 30 18 20 31 19 21 33 21 23 35 20 23 35 23 25 37 22 25 37 22 25 38 22 25 38 23 26 39 24 27 32 21 27 31 21 29 31 19 21 37 21 22 70 42 41 77 51 50 98 79 73 98 85 79 97 98 90 97 96 91 96 96 86 95 84 78 94 77 70 86 63 57 84 61 55 62 53 38 63 51 39 65 53 39 65 53 37 64 52 38 62 53 36 63 54 37 64 56 37 63 55 36 68 56 40 66 57 42 66 57 42 66 57 42 
87 64 80 88 65 81 92 69 85 91 68 84 91 68 84 91 68 84 90 67 83 89 68 83 88 67 82 84 66 80 84 66 80 80 64 77 80 62 76 73 57 70 73 57 70 72 56 69 70 54 67 69 53 66 68 52 63 67 51 62 67 51 62 67 51 62 67 51 62 67 51 62 67 49 61 67 51 62 66 50 61 69 52 62 68 53 60 69 52 58 72 52 61 73 52 61 74 53 62 77 54 62 79 53 62 81 55 64 83 56 65 77 54 60 76 53 59 64 43 48 62 41 46 53 34 38 45 28 34 36 21 26 36 19 25 34 19 24 35 20 25 36 21 24 39 24 27 40 25 28 41 26 29 40 25 28 44 29 32 44 29 34 47 32 37 44 29 34 42 25 33 34 19 24 29 17 21 28 16 18 27 15 19 26 14 18 24 13 17 27 15 19 28 16 20 32 20 22 32 20 22 33 21 23 36 21 24 35 20 23 36 21 24 37 22 25 34 22 26 33 22 28 30 20 21 33 19 19 57 28 30 65 39 40 95 69 68 98 80 76 98 98 90 98 99 91 96 99 90 99 90 83 99 84 77 92 69 61 93 66 59 64 52 38 65 53 39 64 52 38 65 53 39 64 52 36 65 53 37 63 54 37 62 55 36 64 56 37 63 56 38 63 56 38 65 58 40 63 56 38 
89 66 82 88 65 81 91 68 84 91 68 84 91 68 84 90 67 83 87 66 81 87 66 81 84 66 80 81 63 77 81 63 77 74 56 70 74 58 71 64 50 65 67 51 64 65 49 60 65 49 62 63 47 60 63 47 60 62 46 57 61 45 56 61 45 56 60 44 55 60 44 55 61 45 56 58 45 55 61 45 56 58 45 54 62 46 56 62 46 56 64 47 57 67 47 56 68 48 57 73 50 60 73 50 58 79 54 60 79 53 62 76 53 59 75 52 58 65 44 49 63 42 47 56 35 40 50 31 35 38 23 28 37 22 25 36 21 24 36 21 24 36 21 24 39 24 27 39 24 27 40 25 28 40 25 28 45 30 33 46 31 38 51 36 41 46 33 40 45 30 37 34 22 26 29 18 24 28 16 20 24 15 18 24 13 17 25 13 17 26 15 19 26 14 16 31 19 21 31 19 21 35 20 23 35 20 23 36 20 23 36 21 24 34 22 22 33 22 26 34 23 29 31 20 24 32 20 22 50 25 28 61 35 36 91 66 62 94 77 70 99 96 89 98 98 90 97 98 92 99 92 86 98 87 81 92 72 63 96 69 62 67 53 40 67 55 41 64 52 38 63 51 37 64 52 36 66 53 37 65 54 36 63 54 37 63 55 36 64 55 38 64 56 37 63 56 38 64 57 39 
92 70 83 93 71 84 95 73 86 94 72 85 92 70 83 89 69 81 87 67 79 82 64 76 81 63 77 74 58 71 73 57 68 64 51 61 64 51 61 52 40 52 53 39 52 52 39 49 52 38 51 51 37 50 50 37 47 50 37 47 49 36 46 47 34 44 48 35 45 48 35 45 48 35 45 49 36 45 48 35 45 49 36 45 50 37 46 53 37 47 53 37 47 56 39 47 58 41 49 62 43 49 64 45 51 71 48 58 72 49 57 74 51 57 74 51 59 69 46 54 67 45 48 61 39 42 56 35 40 45 29 32 42 25 31 41 25 28 38 23 26 35 23 25 39 25 25 36 24 24 37 25 25 38 26 28 46 31 34 49 34 39 57 41 44 56 36 45 55 35 44 40 25 30 32 21 25 27 16 20 27 15 19 23 11 15 22 11 15 26 11 14 24 12 14 28 16 18 29 17 19 30 18 20 33 18 21 34 20 20 35 21 21 36 22 22 36 24 28 37 24 31 36 21 26 34 22 26 41 19 22 51 30 29 87 59 56 90 71 65 99 92 84 98 95 90 98 99 93 97 94 87 98 91 83 99 77 66 96 74 63 68 54 41 68 54 41 64 50 37 63 51 35 62 50 34 64 53 35 65 53 37 65 54 36 62 54 35 62 55 37 62 55 37 62 55 39 62 55 39 
94 72 85 94 72 85 94 72 85 95 73 86 92 70 83 88 68 80 87 67 79 79 61 73 78 60 72 69 53 64 65 52 62 57 44 54 58 45 55 47 34 44 47 35 45 46 34 44 45 33 43 44 32 42 44 32 42 42 30 40 44 32 42 43 31 41 44 32 42 43 31 41 42 30 40 44 33 41 44 32 42 43 32 40 45 34 42 46 33 42 47 34 43 49 34 41 51 36 43 54 37 45 56 39 45 63 44 46 64 45 49 71 50 55 71 50 55 70 48 51 72 47 51 67 42 48 61 39 42 51 35 38 46 30 33 44 28 31 40 25 28 37 22 25 39 25 25 37 25 25 37 25 25 37 25 27 45 30 33 48 33 38 58 41 47 54 37 45 51 34 42 41 26 33 32 21 27 29 18 24 26 15 21 24 13 17 23 12 16 25 13 17 24 14 15 30 15 18 29 17 19 32 18 18 33 19 19 33 19 19 33 21 21 35 21 21 35 23 27 35 23 25 35 20 27 33 20 27 37 18 20 48 28 29 78 53 48 88 64 60 98 85 77 96 91 85 97 98 92 96 96 88 97 94 85 98 78 67 97 77 66 73 57 44 70 57 41 65 51 38 65 52 36 65 52 35 65 54 36 65 54 36 65 54 36 63 55 36 62 53 36 62 53 36 60 53 37 62 55 39 
96 74 87 96 74 87 95 73 86 95 73 86 92 70 83 88 66 79 83 65 77 77 59 71 74 56 68 62 49 59 57 45 55 48 36 46 47 35 45 39 27 37 41 29 39 39 29 38 39 27 37 39 27 37 39 27 37 39 27 37 38 26 36 38 26 36 37 26 34 38 27 35 38 27 35 39 28 36 39 28 36 40 27 36 39 26 35 42 29 38 41 29 39 42 31 37 42 31 39 45 32 39 48 33 38 57 41 44 57 41 44 68 49 53 70 50 52 74 49 52 74 49 52 72 46 49 67 42 46 57 38 42 52 36 39 50 31 35 42 27 30 40 25 28 39 25 25 37 25 25 35 23 23 36 24 26 45 29 32 47 32 37 58 41 49 54 37 45 51 34 42 39 26 33 32 21 25 29 18 22 28 17 21 26 14 18 25 13 17 26 14 16 26 14 18 29 17 19 29 17 19 30 18 18 33 19 19 34 20 19 34 20 20 35 21 21 37 22 27 39 22 30 34 21 28 34 19 26 34 18 21 41 25 25 73 48 43 80 59 54 98 79 73 97 88 83 98 99 94 97 98 90 97 97 89 98 80 70 99 79 68 74 57 47 71 59 43 64 51 34 65 52 36 64 51 34 66 53 36 66 53 34 64 53 35 64 53 35 61 53 34 61 53 34 61 52 35 60 53 35 
97 75 88 97 73 87 95 73 86 95 73 86 91 69 82 86 66 78 81 63 75 74 56 68 69 53 64 57 44 54 52 40 50 43 31 41 41 29 39 32 22 31 33 23 32 33 23 32 33 23 34 34 24 33 33 23 32 33 23 32 33 23 31 33 23 31 32 23 28 33 23 31 34 23 31 34 24 32 35 24 32 36 25 33 36 23 33 36 25 33 36 24 36 36 25 31 35 25 33 37 26 32 38 25 32 48 33 36 49 34 37 64 45 49 67 46 51 75 50 54 75 49 52 76 47 51 70 48 51 65 44 49 60 41 45 56 37 41 45 29 32 44 28 29 40 26 26 38 26 26 33 21 21 32 20 22 41 25 28 43 28 33 52 35 43 47 30 38 46 26 35 38 23 30 31 20 26 30 17 24 28 17 23 26 15 19 26 15 19 28 18 19 29 17 21 31 19 21 31 19 21 33 19 19 33 19 19 34 20 20 35 21 21 35 21 21 38 23 28 38 23 30 35 22 29 34 21 28 31 19 19 40 24 25 65 42 36 77 53 49 90 71 65 95 84 80 98 99 94 97 100 91 95 98 89 98 81 71 97 80 64 79 61 49 76 60 44 68 52 37 67 54 37 65 52 33 67 54 35 69 56 39 65 54 36 64 53 35 61 53 34 61 53 34 60 51 34 58 51 33 
96 74 87 96 74 86 96 74 87 93 71 84 88 70 82 85 65 77 80 62 74 72 56 67 67 51 62 53 40 50 50 38 48 38 28 37 36 26 35 29 19 28 29 19 28 30 20 29 30 20 29 31 21 30 31 21 30 30 20 29 31 21 30 29 22 30 29 22 30 28 21 29 32 22 31 32 21 29 32 22 30 32 22 30 33 21 31 33 21 31 32 22 31 32 22 30 32 22 30 33 22 28 33 22 26 42 30 30 43 31 33 62 43 45 63 44 46 74 49 52 74 49 52 78 49 51 75 48 53 68 47 52 63 44 48 58 39 43 47 32 35 45 29 32 40 26 26 38 27 25 30 18 18 31 19 21 34 22 24 39 24 29 47 32 39 44 27 35 40 23 31 36 21 28 30 19 25 28 19 24 28 17 23 26 15 21 27 16 20 30 17 24 30 18 20 32 20 22 32 20 20 31 19 21 33 19 19 32 20 20 34 20 20 35 21 21 39 22 28 40 23 29 39 24 31 34 21 31 31 19 21 40 24 25 61 40 35 73 50 44 89 65 61 95 82 76 98 99 94 96 99 92 92 98 88 98 82 69 100 80 69 78 61 45 76 58 44 68 52 37 69 51 37 65 52 35 68 52 36 66 53 36 67 54 37 64 53 33 62 50 34 60 52 33 59 52 33 58 51 33 
95 73 86 96 73 89 93 71 84 91 68 84 88 67 82 84 64 76 78 57 72 70 52 64 65 49 62 52 39 49 47 35 45 37 25 37 35 23 33 28 18 29 28 18 26 30 20 29 30 20 29 32 22 31 33 23 32 34 24 33 33 23 32 32 22 31 32 22 30 33 22 30 34 23 29 35 22 29 33 22 26 34 23 27 36 23 32 34 23 31 32 21 29 31 20 26 29 18 24 29 17 21 27 15 19 41 25 26 42 28 28 62 42 43 63 43 44 77 48 52 76 50 51 80 52 51 77 51 52 76 51 54 73 47 50 69 47 49 59 39 41 56 36 38 44 28 29 42 26 27 32 17 20 30 18 20 29 17 21 28 17 21 29 20 25 32 21 27 32 21 27 32 21 25 31 21 22 32 20 22 33 19 19 35 19 22 36 20 21 36 18 18 34 18 19 34 18 19 34 18 19 33 17 18 34 18 21 34 18 19 34 19 22 34 19 22 37 22 25 38 23 26 38 23 26 41 22 26 36 20 21 39 25 24 52 34 32 58 40 38 64 49 46 81 70 66 97 92 86 99 92 84 99 92 82 94 86 75 96 86 76 85 63 49 84 62 49 69 52 36 65 52 35 64 53 35 62 54 35 65 54 34 64 53 33 62 51 31 61 53 34 63 52 34 64 51 34 64 51 34 
95 72 88 96 73 89 92 71 88 91 68 84 87 66 81 82 61 78 77 56 71 68 52 65 64 48 61 52 39 49 47 35 47 36 24 36 34 22 34 28 18 29 27 17 26 29 19 28 30 20 29 31 24 32 32 25 33 33 26 34 34 24 32 32 22 30 33 23 31 33 24 29 35 22 29 36 24 28 33 21 25 34 22 26 36 23 32 34 21 31 32 19 26 30 19 25 30 19 25 27 15 19 25 13 15 41 27 27 42 28 28 61 41 40 62 41 40 75 49 50 77 48 50 80 52 51 78 52 53 78 52 55 74 49 52 71 46 49 60 40 42 57 37 39 44 28 29 43 27 28 32 17 20 31 19 21 27 15 19 28 16 20 30 19 25 30 19 25 30 21 26 31 21 22 31 19 19 34 20 20 34 20 20 36 20 21 38 19 21 33 17 17 37 19 19 36 18 18 34 18 19 38 18 20 34 18 19 33 18 21 34 19 24 35 20 25 37 22 25 35 23 25 39 25 25 40 26 26 38 22 22 39 25 25 49 33 33 54 38 38 64 46 44 80 69 65 96 91 85 98 91 81 98 91 81 94 88 76 94 86 75 86 64 50 84 61 47 69 52 36 65 52 35 60 52 31 61 53 32 63 55 34 63 52 32 62 51 31 64 51 34 66 51 32 67 51 35 65 52 35 
94 71 87 94 70 86 91 68 84 88 65 81 85 62 78 81 60 75 78 57 72 71 53 67 68 48 60 57 41 52 51 38 48 41 29 41 40 28 38 30 18 28 30 20 29 29 19 28 29 19 28 32 22 31 32 22 31 33 26 34 34 24 32 34 24 32 35 25 33 37 28 33 38 25 32 37 25 29 36 24 26 35 23 27 36 23 30 35 24 30 33 20 27 35 22 29 32 20 24 30 20 21 33 18 21 47 28 30 46 30 31 62 42 43 65 43 45 74 48 51 74 48 49 81 52 54 83 53 55 82 53 57 79 53 56 77 52 55 69 47 50 65 45 47 54 38 39 51 35 36 38 24 24 36 21 24 26 14 18 26 14 18 23 12 16 25 16 21 25 16 21 29 18 22 31 21 20 33 21 21 35 21 21 40 24 27 41 25 25 43 25 25 43 25 25 39 20 22 40 22 22 37 21 22 36 20 21 36 20 23 36 20 23 36 21 24 39 24 27 39 25 25 40 26 26 40 25 28 40 24 24 44 25 27 50 30 31 47 31 31 47 32 29 73 60 54 98 85 79 98 87 81 98 89 80 95 85 75 94 84 75 89 67 54 87 65 52 68 52 36 66 53 36 62 51 33 60 52 31 61 53 32 63 52 32 62 49 30 64 49 30 63 48 29 63 50 33 62 51 33 
93 69 85 92 71 86 90 67 83 89 66 82 85 62 78 81 58 74 78 56 69 70 52 64 67 49 61 58 42 53 54 38 51 42 30 40 41 29 39 30 20 28 30 20 29 30 20 29 30 20 29 32 22 31 32 22 31 35 25 34 34 24 32 34 24 32 36 25 33 36 25 31 37 26 32 37 26 30 37 25 29 37 24 31 36 25 29 37 22 29 33 22 28 33 21 25 36 21 24 34 19 24 33 18 21 47 28 30 47 31 32 63 41 44 64 42 45 74 48 51 77 49 48 81 51 53 82 53 55 80 54 57 80 54 57 77 52 55 70 48 50 67 45 47 56 37 39 53 37 38 40 25 28 38 23 26 27 15 19 26 14 18 24 13 17 25 14 18 27 16 20 30 18 20 31 19 19 33 21 21 36 22 22 42 26 27 41 25 26 44 26 26 43 25 25 42 23 25 40 21 23 39 23 24 36 20 21 36 20 21 37 21 24 36 21 24 37 25 27 41 25 26 42 26 29 41 26 29 40 24 25 44 25 29 47 31 32 46 30 30 45 29 29 71 58 52 99 86 80 99 86 78 99 89 80 94 84 74 94 83 77 90 66 54 87 65 52 70 53 37 69 53 37 61 50 32 63 52 32 61 53 32 62 51 31 64 49 30 64 49 30 63 48 29 65 49 33 64 48 32 
91 68 84 91 67 83 88 65 81 85 62 78 84 61 77 81 59 72 77 57 69 73 53 65 68 50 64 61 45 56 57 44 54 49 36 46 48 35 45 36 24 34 35 24 32 32 22 30 31 21 30 32 22 31 33 23 32 33 23 32 34 24 33 34 24 32 36 25 33 36 25 31 38 25 32 37 26 30 36 24 26 36 24 28 36 24 26 34 24 25 38 23 28 38 23 26 38 23 26 40 25 28 41 25 26 54 34 36 54 35 37 64 43 48 66 44 47 74 47 52 75 49 52 80 51 55 83 52 57 83 54 58 84 55 59 81 55 58 79 53 56 78 51 56 68 46 49 66 46 48 50 34 37 47 32 35 34 19 24 31 19 23 23 12 16 27 15 19 26 17 20 30 18 20 33 18 21 36 21 26 38 24 24 47 31 32 47 31 32 48 32 33 47 31 32 44 28 28 43 28 25 40 24 25 38 22 23 36 22 22 37 22 25 38 23 26 44 25 29 42 28 28 45 26 28 42 26 27 44 25 27 45 26 28 46 28 28 40 22 22 30 12 12 63 45 43 93 78 73 96 83 77 97 87 77 96 82 73 95 81 72 92 70 57 91 67 55 71 55 39 69 53 37 61 50 32 61 50 30 60 54 32 62 51 31 59 48 28 61 48 29 61 48 29 64 49 30 63 47 31 
91 67 83 91 67 83 87 64 80 87 63 79 83 60 76 80 58 71 78 56 69 71 53 65 69 51 65 62 46 57 60 44 57 50 37 47 52 36 47 37 26 34 37 26 34 33 23 31 33 21 31 32 20 30 33 21 31 33 23 32 34 24 33 34 24 32 35 24 30 36 25 31 38 25 32 40 25 30 36 24 28 36 24 28 36 24 26 38 23 26 38 23 26 39 24 27 39 24 27 42 26 29 42 26 26 54 35 39 55 36 40 66 46 48 68 43 47 75 48 53 75 48 53 81 52 57 81 52 57 83 52 57 81 54 59 84 57 62 83 54 58 78 53 57 69 47 50 69 47 50 55 36 40 53 34 38 38 23 28 35 20 23 26 17 20 27 16 20 27 18 21 30 18 20 32 17 20 36 21 24 37 23 23 45 31 31 46 32 32 49 33 33 47 31 31 43 27 28 42 26 26 39 23 24 39 23 24 37 21 22 38 24 24 38 23 26 42 26 27 44 28 29 43 27 28 45 26 28 46 26 28 45 26 30 46 26 27 39 21 21 29 11 11 61 43 41 94 76 72 96 81 76 97 84 76 94 81 72 95 81 72 92 70 57 91 69 58 71 55 39 69 53 37 61 50 32 62 51 31 60 52 31 60 49 27 62 49 30 62 47 28 63 48 29 62 49 32 64 48 32 
89 66 82 90 65 84 86 63 81 86 62 78 83 60 76 81 58 74 79 57 70 76 56 68 72 52 64 67 50 60 65 47 59 57 41 52 56 40 51 43 30 39 42 29 38 37 26 34 36 23 33 32 20 30 32 20 30 29 19 28 31 21 30 33 22 30 35 24 30 35 24 30 39 24 29 38 26 30 38 23 28 37 25 27 38 26 26 39 24 27 38 26 28 41 26 29 44 28 29 49 30 34 50 31 33 60 37 43 60 39 44 71 46 52 71 44 51 77 47 55 77 48 53 77 50 57 79 50 55 83 52 57 85 54 60 86 57 62 85 56 60 83 56 61 75 53 56 75 50 54 64 43 48 63 40 46 46 31 34 45 29 32 33 22 26 31 21 22 29 18 22 31 19 21 31 16 19 35 20 23 34 22 22 45 29 30 46 30 31 47 31 32 46 30 30 43 27 27 41 25 26 40 24 24 40 24 25 39 23 24 40 24 27 41 25 26 44 28 28 46 28 28 44 25 27 44 25 27 49 27 30 45 26 30 45 25 27 37 17 18 23 3 4 56 36 37 88 70 66 95 76 70 99 80 74 98 78 69 97 79 69 94 70 58 92 70 57 72 55 39 69 53 37 60 49 31 61 50 28 60 52 31 60 49 29 61 48 29 63 48 29 64 49 28 62 46 30 62 46 30 
88 65 81 88 65 81 86 62 78 88 61 78 83 59 73 81 57 71 78 56 69 77 55 68 73 53 65 68 50 62 65 47 59 59 43 53 59 41 53 45 32 41 44 31 40 38 25 34 35 23 33 32 20 30 32 20 30 31 21 30 33 20 29 32 21 29 34 23 29 36 23 30 37 25 29 37 24 31 37 25 29 37 25 27 40 25 28 40 26 26 40 26 26 43 27 30 44 28 29 52 32 34 54 34 36 65 40 44 63 40 46 71 46 52 71 46 52 75 48 55 76 49 56 79 49 57 80 50 58 83 52 58 85 54 59 86 55 61 85 56 60 85 56 61 81 52 56 77 52 56 68 45 51 66 45 50 54 35 39 48 32 33 37 22 25 33 21 23 29 19 20 32 17 22 31 19 21 34 19 22 36 21 24 43 29 29 46 30 33 48 32 32 47 31 31 44 28 29 42 26 27 39 23 23 40 24 25 39 23 23 40 24 27 42 26 27 45 26 28 46 27 29 45 26 28 46 26 27 47 24 30 46 26 28 45 24 31 37 17 19 24 4 6 57 36 35 86 66 65 92 73 67 97 77 70 98 79 72 101 78 70 94 72 59 92 70 57 69 56 39 69 53 37 60 49 29 59 51 28 59 51 30 61 50 30 62 51 29 63 48 29 65 48 28 61 48 29 63 47 31 
87 64 80 88 64 80 86 62 76 86 62 78 83 59 73 82 58 72 80 58 71 78 56 69 76 54 67 72 52 64 70 50 62 63 46 56 63 43 55 52 36 46 52 36 46 41 28 37 39 26 36 34 21 31 33 20 30 31 19 29 31 20 28 31 20 28 33 20 27 33 22 28 36 24 28 36 24 28 37 25 27 39 24 27 40 26 26 41 27 27 44 28 29 46 30 31 49 30 32 55 35 37 59 36 42 65 42 48 68 43 49 71 46 52 72 47 53 74 47 54 75 48 57 80 51 56 82 52 60 84 51 58 85 54 59 88 57 62 85 56 60 87 58 62 81 55 58 83 54 59 75 50 56 71 48 54 61 41 43 57 38 42 43 27 30 37 22 25 29 17 19 33 18 23 35 18 24 36 21 24 36 21 24 44 30 30 44 30 30 46 32 32 46 32 31 43 27 28 43 27 28 44 26 26 42 26 27 42 26 27 42 26 29 44 28 31 45 26 28 46 28 28 45 26 28 46 26 27 46 25 32 46 25 30 46 25 30 39 18 23 26 6 8 54 34 33 81 61 60 89 68 63 92 72 65 96 76 69 97 77 68 95 71 59 92 70 57 72 55 39 68 52 36 60 49 29 60 49 29 61 50 30 62 51 29 62 50 28 64 49 28 65 48 32 63 48 29 61 48 29 
87 63 77 87 63 79 85 61 75 87 60 75 83 59 73 81 57 71 80 56 70 78 56 69 78 56 69 73 53 64 73 51 63 65 48 58 64 46 58 56 40 50 55 39 49 47 31 41 45 29 40 38 25 35 36 23 32 33 20 29 31 20 28 31 20 28 33 20 27 33 22 28 35 22 29 35 23 27 37 25 27 39 24 27 43 27 28 43 27 27 47 31 32 51 32 34 53 33 35 58 35 41 61 40 45 69 44 50 71 46 52 74 47 54 75 48 55 75 48 55 76 49 58 78 51 58 79 52 57 81 52 57 85 54 60 87 56 62 86 57 61 86 57 62 86 55 61 84 55 60 80 53 58 78 51 56 69 47 50 67 45 48 51 32 34 42 26 29 37 21 24 33 21 25 35 20 25 34 19 22 35 18 24 41 25 28 41 27 27 42 30 30 44 30 27 42 28 28 39 27 27 41 25 25 43 27 28 42 26 27 43 27 28 43 27 30 45 26 28 46 28 26 43 27 28 45 26 28 45 26 30 45 26 30 45 26 30 39 20 22 32 10 13 53 33 34 76 55 54 85 64 59 91 68 62 96 76 67 96 76 65 94 72 58 92 70 57 72 55 39 67 51 35 60 49 29 58 47 25 60 52 31 62 51 29 63 51 29 64 49 28 65 50 29 64 49 28 63 48 29 
87 63 77 87 63 79 85 61 75 85 61 75 85 58 73 82 58 72 81 57 71 79 55 69 78 54 68 75 53 65 73 51 63 69 49 60 67 47 59 61 44 54 60 43 53 51 35 45 48 32 43 41 28 37 38 25 34 36 23 32 34 21 30 32 19 28 32 19 26 34 19 26 34 22 26 34 22 26 35 23 25 38 23 26 42 26 29 44 28 29 50 31 35 53 34 38 56 33 39 61 38 44 66 41 47 71 44 51 71 46 52 75 48 55 75 48 55 78 48 56 78 48 56 78 53 59 81 51 59 82 53 58 83 54 59 85 56 61 87 56 61 89 58 64 87 56 62 87 56 61 86 57 62 84 55 60 77 52 58 72 50 53 58 37 42 49 30 34 43 24 26 37 20 26 35 18 26 33 16 22 31 16 21 36 21 24 38 23 26 41 27 27 41 27 26 41 27 27 42 28 28 44 28 28 44 28 29 43 27 28 46 27 29 47 26 31 45 27 27 45 27 27 45 26 28 45 26 28 43 27 30 45 26 30 45 26 30 42 22 24 35 15 17 52 32 33 71 50 49 84 60 56 88 65 59 96 73 65 98 76 65 96 72 60 93 69 57 70 52 38 68 52 36 59 48 28 60 49 29 58 52 30 60 52 29 63 52 30 64 49 28 65 50 29 64 49 28 64 49 30 
88 61 76 85 61 75 84 60 74 84 60 74 84 57 72 80 58 71 81 57 71 80 56 70 80 56 70 77 53 66 76 54 66 71 51 62 71 49 62 68 48 59 63 47 57 57 40 50 52 36 46 49 32 42 43 30 39 41 28 37 37 24 33 35 22 31 33 20 27 32 19 26 34 22 26 34 22 26 38 23 26 39 24 27 44 28 31 48 29 33 54 35 39 56 35 40 59 36 42 65 40 46 68 43 49 73 46 53 73 46 53 77 50 57 76 49 56 78 51 58 80 51 56 79 52 57 81 52 57 80 53 58 83 54 58 83 54 59 85 56 61 86 57 62 90 57 64 88 57 63 89 56 65 88 57 63 86 57 62 84 55 60 74 49 53 67 45 48 57 37 39 47 28 34 40 20 29 33 16 22 30 15 20 34 19 22 34 18 21 38 24 24 37 23 22 38 24 24 38 26 26 43 29 29 45 29 30 45 29 30 48 29 31 49 29 31 46 28 28 43 28 25 44 28 28 44 28 29 43 27 30 42 26 27 42 25 31 42 23 27 40 19 24 50 30 32 62 41 40 77 53 49 84 61 55 96 72 62 96 74 63 97 75 62 95 71 59 74 55 41 69 53 38 60 49 29 60 49 29 62 51 31 62 51 29 63 51 29 64 49 26 64 49 28 64 49 28 64 49 28 
87 63 77 87 63 77 85 58 73 84 60 74 83 56 71 81 57 71 81 54 69 80 56 70 80 56 70 79 55 68 77 55 67 74 50 63 71 51 63 69 49 60 68 48 59 58 41 51 57 41 51 49 33 43 45 32 41 41 28 37 39 26 35 36 23 32 34 21 28 32 19 26 35 23 25 37 22 25 39 25 25 39 24 27 44 28 31 49 30 34 56 35 40 57 36 41 59 36 42 65 42 48 70 43 50 73 46 53 74 47 54 78 51 58 78 51 58 79 52 57 81 52 56 79 52 57 79 52 57 81 55 58 80 53 58 81 52 57 86 55 61 86 55 63 89 56 63 90 57 64 90 57 64 89 56 63 89 58 64 84 57 62 78 53 57 70 48 51 63 41 44 48 29 35 40 23 31 33 16 24 31 14 22 33 16 22 31 17 17 33 21 21 34 22 22 37 25 25 40 26 26 43 29 29 45 29 30 45 29 30 48 29 31 48 29 31 46 28 28 45 27 25 44 28 28 44 28 28 43 27 30 42 26 29 44 25 31 42 26 29 39 20 26 49 29 31 62 38 38 75 51 47 85 60 55 96 72 62 97 73 63 97 75 64 95 73 62 73 54 40 70 54 39 60 49 31 61 50 30 62 51 31 63 51 29 62 50 28 64 49 26 65 50 27 64 49 26 65 50 29 
86 62 76 86 62 76 86 59 74 83 59 73 83 56 71 82 55 70 82 55 70 82 55 70 80 56 70 78 56 69 78 56 69 74 52 64 73 53 65 70 48 60 67 47 58 60 43 53 59 42 52 54 37 47 50 34 44 48 32 42 42 29 38 40 27 36 37 24 31 36 23 30 37 25 27 40 25 28 41 26 29 43 28 31 46 29 35 52 33 37 58 37 42 58 37 42 63 38 44 68 43 49 71 46 52 77 47 55 75 48 55 80 50 58 80 51 56 79 52 57 80 53 58 80 53 58 79 54 58 77 55 58 78 53 57 81 52 57 84 53 59 86 55 61 86 55 63 88 55 62 89 56 63 89 56 63 90 59 65 90 59 65 86 60 63 83 56 61 78 53 57 68 47 54 62 42 51 53 34 40 46 31 36 42 27 30 38 26 28 38 26 28 40 29 27 39 28 26 43 29 29 44 30 30 46 30 31 48 29 31 48 29 31 47 29 29 43 27 27 42 27 24 45 29 29 45 29 29 43 28 31 42 27 30 40 25 30 41 25 28 40 24 27 48 28 30 51 30 27 73 48 44 83 58 53 96 69 60 97 70 61 98 76 65 94 74 63 74 56 42 70 54 39 61 50 32 61 48 29 61 53 32 62 50 28 64 49 26 66 49 29 63 48 25 64 49 26 64 49 28 
85 61 75 86 62 78 86 59 74 85 58 73 84 57 72 82 55 70 81 54 69 82 55 70 79 55 69 78 54 68 79 55 69 75 53 65 73 51 64 70 48 60 68 48 59 62 42 53 58 41 51 54 37 47 51 35 45 47 34 43 43 30 39 40 27 36 38 25 32 37 24 31 40 25 30 39 24 27 41 26 29 43 28 35 48 31 37 52 33 39 58 39 45 60 37 43 63 38 44 68 43 49 72 45 52 74 47 54 77 48 53 81 52 57 82 51 57 82 53 58 79 52 57 80 54 57 79 54 57 76 54 57 78 53 57 78 51 56 84 53 59 84 53 59 86 53 60 87 54 61 89 56 63 90 55 61 89 58 63 90 59 64 88 59 64 84 57 62 81 54 59 71 48 56 67 47 56 53 36 44 50 33 39 44 29 32 42 27 32 39 27 27 39 27 27 39 28 26 43 27 30 45 31 31 46 30 31 49 30 32 48 29 31 46 27 29 44 29 26 42 27 24 44 30 29 44 28 28 43 28 31 43 28 31 41 26 31 41 26 31 40 24 27 46 28 28 50 29 28 71 47 43 82 57 52 96 69 60 96 69 58 98 76 65 94 74 63 75 56 42 71 53 39 60 49 31 61 50 30 62 51 31 62 50 28 64 49 26 65 50 27 64 49 26 64 49 26 64 49 26 
