P3
100 50
255
25 19 31 26 20 32 23 17 29 24 18 30 24 18 30 23 17 27 23 17 27 23 17 27 22 16 26 21 15 25 21 15 29 24 18 30 23 17 29 23 17 29 23 17 29 20 14 26 21 15 27 21 15 27 22 16 28 23 17 29 23 17 29 24 18 30 25 19 31 26 20 32 22 16 28 21 15 27 19 16 27 19 16 27 21 15 29 21 15 29 22 16 28 20 17 28 20 17 28 22 19 30 21 18 29 22 19 30 22 18 32 24 18 32 23 17 29 20 14 26 22 16 28 21 15 25 23 17 27 23 17 27 23 17 27 23 17 27 23 17 27 23 17 27 23 17 27 22 16 26 22 16 26 23 17 27 23 17 29 22 16 28 18 16 29 17 15 28 19 15 29 18 16 29 19 16 27 20 16 30 19 16 27 20 17 28 20 17 28 22 19 30 22 19 30 19 16 27 20 16 30 20 17 28 20 17 28 21 15 27 23 17 29 21 18 29 23 15 26 23 15 26 22 14 25 23 15 26 25 17 28 25 17 28 25 17 28 27 20 28 30 20 29 30 20 29 32 22 31 36 24 34 38 25 35 39 25 38 40 27 37 40 27 36 40 27 36 43 30 39 46 30 40 48 32 42 49 32 40 48 33 40 49 34 41 49 34 41 53 36 44 51 36 43 53 36 46 52 35 45 
25 19 31 26 20 32 24 18 30 25 19 31 24 18 30 24 18 28 24 18 28 23 17 27 21 15 25 22 16 26 21 15 27 23 17 29 24 18 30 23 17 29 23 17 29 22 16 28 22 16 28 22 16 28 22 16 28 23 17 29 23 17 29 23 17 29 23 17 29 24 18 30 22 16 28 22 16 28 20 17 28 19 16 27 20 16 30 20 16 30 20 16 30 20 16 30 21 17 31 21 17 31 21 17 31 22 18 32 21 18 29 21 17 31 23 17 29 21 15 25 21 15 27 22 16 26 22 16 26 23 17 27 23 17 29 23 17 29 24 18 30 22 16 28 22 16 28 22 16 26 22 16 26 22 16 26 22 16 28 23 17 29 20 16 30 19 16 27 19 16 27 19 15 29 20 17 28 20 16 30 20 16 30 20 16 30 21 17 31 21 18 29 21 18 29 20 17 28 20 17 28 20 17 26 20 17 28 23 15 28 22 16 28 21 18 29 22 16 26 23 15 26 23 15 28 22 14 25 24 16 27 25 17 28 25 17 28 27 19 30 28 18 27 30 20 29 29 21 32 35 23 35 38 25 35 38 25 35 38 25 35 39 26 35 40 27 36 42 29 38 43 30 39 45 32 41 45 32 39 47 32 39 48 33 38 48 33 38 49 37 41 51 36 41 50 35 42 49 34 41 
26 20 32 26 20 32 24 18 30 26 20 34 25 19 29 25 19 29 23 17 27 23 18 25 21 15 25 22 16 28 22 16 30 23 17 29 22 16 28 23 17 29 23 17 29 22 16 28 22 16 28 23 17 29 22 16 28 23 17 29 23 17 31 23 17 31 23 17 31 23 17 31 20 16 30 21 17 31 19 17 30 20 16 30 20 16 30 20 16 30 20 16 30 20 16 30 21 17 31 21 17 31 21 17 31 20 16 30 20 18 31 21 17 31 23 17 31 25 19 31 24 18 30 23 17 29 23 17 29 20 17 28 19 16 27 18 15 26 18 15 26 17 14 25 17 14 25 17 14 25 18 15 26 19 16 27 19 16 27 20 17 28 19 16 27 20 16 30 19 16 27 20 17 28 22 18 32 20 16 30 22 16 28 23 17 29 20 16 30 20 17 28 21 17 31 19 15 29 20 16 30 20 16 30 20 16 30 20 17 28 21 18 29 23 17 29 20 17 28 22 16 28 19 16 27 19 16 27 23 17 29 23 17 29 23 17 29 22 16 28 23 17 29 24 18 30 26 18 31 24 16 29 23 15 26 25 17 28 26 18 31 27 17 28 28 18 29 30 22 33 29 21 32 35 25 34 37 26 34 38 27 35 38 27 35 40 29 37 42 31 39 42 31 37 43 30 39 43 30 39 
24 18 30 25 19 31 24 18 28 25 19 31 25 19 31 24 18 30 23 17 29 22 16 26 21 15 25 22 16 28 22 16 28 22 16 28 22 16 30 22 16 28 22 16 30 22 16 28 22 16 30 22 16 28 23 17 31 22 16 28 21 15 29 23 15 30 22 16 30 22 14 29 21 17 31 20 16 30 20 16 30 20 16 30 19 15 29 20 16 30 20 16 30 20 16 30 21 17 31 21 17 31 21 17 31 21 17 31 21 17 31 21 17 31 21 18 29 24 18 30 24 18 30 24 18 30 20 18 29 21 18 27 20 16 30 19 16 27 18 14 28 18 15 26 18 14 28 17 13 27 19 15 29 19 15 29 19 15 29 20 17 28 21 15 27 21 15 27 20 17 28 20 17 28 22 18 32 21 18 29 21 18 29 20 16 30 20 16 30 22 16 30 22 16 30 20 16 30 20 16 30 20 16 30 21 18 29 20 17 28 20 17 28 21 18 29 21 18 29 20 17 28 20 17 28 20 17 28 21 17 31 23 17 29 22 16 28 22 16 28 22 16 28 23 17 31 24 18 30 22 16 28 22 16 28 24 18 30 25 17 30 26 18 31 26 18 29 28 20 31 28 21 29 32 25 33 33 26 34 35 25 34 36 26 34 36 26 34 38 28 36 40 29 37 40 29 37 40 27 36 
21 15 27 21 15 27 21 15 27 22 16 28 23 17 27 23 17 29 23 17 29 23 17 27 21 15 25 22 16 28 22 16 30 22 16 28 22 16 30 23 17 29 22 16 30 22 16 28 22 16 30 22 16 28 22 16 30 22 16 28 22 16 30 21 15 29 22 16 30 21 15 29 21 17 31 21 17 31 20 16 30 20 16 30 20 16 30 20 16 30 21 17 31 21 17 31 21 17 31 21 17 31 21 17 31 20 16 30 20 16 31 19 15 29 18 14 28 21 18 29 22 18 32 21 17 31 21 17 31 19 17 30 19 17 30 18 16 29 18 16 29 18 16 29 17 15 29 17 15 29 17 15 29 17 15 29 17 15 28 18 16 29 21 15 27 22 16 28 22 16 28 22 19 30 23 17 31 23 17 29 20 17 28 19 15 29 19 15 29 20 16 30 19 15 29 20 16 30 21 17 31 23 19 33 22 20 31 20 18 29 20 18 29 21 19 30 21 18 29 20 18 29 20 17 28 20 18 29 21 18 29 21 18 29 20 17 28 19 15 29 18 14 28 18 14 28 18 14 29 18 14 28 18 16 29 19 17 30 20 16 30 21 18 29 20 17 28 21 18 27 23 17 27 24 18 28 25 20 27 24 19 26 26 19 27 27 20 28 29 22 29 29 22 29 30 20 28 31 21 29 
22 16 28 22 16 28 21 15 27 21 15 27 22 16 28 22 16 28 22 16 28 19 16 27 19 16 27 21 15 25 22 16 28 21 15 27 21 15 27 23 17 29 22 16 28 21 15 27 21 15 27 21 15 27 23 17 29 21 15 27 21 15 29 21 15 29 20 14 28 21 15 29 24 18 32 22 18 32 23 17 31 21 17 31 21 17 31 21 17 31 21 17 31 21 17 31 21 17 31 21 17 31 20 16 30 20 16 30 21 15 29 18 14 28 18 15 26 20 17 28 21 18 29 20 17 28 20 17 28 21 18 29 20 16 30 20 17 28 18 16 29 18 16 27 19 17 30 18 16 29 20 16 30 20 16 30 20 16 30 21 18 29 22 16 28 22 16 28 19 16 27 19 16 27 19 16 27 19 16 27 22 16 28 21 15 29 20 14 28 20 16 30 20 16 30 21 17 31 22 18 32 21 17 31 20 17 28 20 17 28 20 18 29 20 18 29 20 17 28 21 18 29 21 18 29 19 17 28 20 16 30 19 15 29 19 16 27 19 16 27 18 14 28 19 15 29 19 16 27 19 16 27 21 17 31 21 17 31 21 17 31 20 17 28 20 17 28 20 17 28 21 18 29 24 18 30 24 18 28 25 19 31 23 17 31 23 17 29 25 19 31 26 20 30 27 19 30 27 19 30 
21 15 29 22 16 30 20 14 26 21 15 27 17 13 27 21 15 29 22 16 30 21 15 27 19 13 25 20 14 26 20 14 26 17 14 25 20 14 26 23 17 29 22 16 28 19 13 25 20 14 26 20 14 26 21 15 27 21 15 27 23 17 31 21 15 29 22 16 30 22 16 30 22 18 32 23 17 31 21 17 31 23 17 31 21 18 29 21 18 29 21 18 29 21 18 29 21 18 29 21 18 29 20 17 28 19 16 27 21 14 30 19 15 29 18 15 26 19 16 25 21 15 27 20 17 28 20 17 28 20 17 26 23 17 29 22 16 28 19 16 27 20 17 28 20 17 28 20 17 28 23 17 29 23 17 29 23 17 29 22 16 28 24 18 30 22 16 28 19 16 27 19 16 27 18 15 26 18 15 26 18 15 26 19 16 27 19 16 27 21 18 29 20 17 28 21 17 31 21 17 31 21 17 31 20 17 28 22 16 28 21 18 29 23 17 29 21 18 29 22 19 30 22 16 28 22 16 28 18 16 27 19 16 27 18 14 28 19 15 29 19 15 29 19 15 29 19 15 29 19 15 29 21 17 31 21 17 31 21 17 31 20 16 30 22 16 30 20 16 30 21 17 32 23 17 31 21 17 31 20 16 30 19 15 30 18 14 28 20 17 28 20 17 28 22 19 30 24 18 32 
20 16 30 20 17 28 19 16 27 19 16 27 19 16 27 21 15 29 22 16 30 21 15 27 21 15 29 21 15 29 21 15 29 19 15 29 21 15 27 24 18 32 23 17 29 19 13 27 19 13 25 20 14 28 20 14 26 21 15 29 20 14 28 20 14 28 19 15 29 21 15 29 22 16 30 22 16 30 22 16 30 20 16 30 19 16 27 19 16 27 20 17 28 20 17 28 19 16 27 20 17 28 21 18 29 20 17 28 20 16 30 20 16 30 19 15 29 23 20 31 22 16 28 20 17 28 22 16 28 22 16 28 20 17 28 20 17 28 20 17 28 20 17 28 20 17 28 19 16 27 20 17 26 20 17 28 20 17 26 20 17 26 21 18 29 22 16 28 20 17 28 21 15 27 21 15 27 21 15 27 20 14 26 20 17 28 19 16 25 20 17 28 20 17 28 21 17 32 20 16 30 20 16 30 19 15 29 20 17 28 20 17 28 20 16 30 21 18 29 23 17 29 20 17 28 20 17 28 19 15 29 19 15 29 20 17 28 20 17 28 19 16 27 19 16 27 19 16 27 19 16 27 21 17 31 21 17 31 23 17 31 23 17 31 21 18 29 21 17 31 21 17 32 21 17 31 20 16 30 19 15 29 19 15 29 18 14 28 20 17 28 19 16 27 21 15 27 21 15 27 
21 15 27 23 17 29 21 15 27 21 15 27 20 14 28 21 14 30 20 16 30 20 17 28 19 15 29 21 18 29 22 16 28 21 15 27 19 16 27 21 17 31 21 18 29 17 13 27 18 15 26 18 14 28 18 15 26 18 14 28 20 14 28 21 15 29 21 15 29 21 15 29 21 15 29 23 17 31 22 16 30 22 16 30 21 15 27 22 16 28 22 16 28 22 16 28 22 16 28 23 17 29 23 17 29 23 17 29 23 17 31 21 17 31 20 17 28 23 17 29 19 16 27 20 17 28 18 16 27 22 16 26 19 16 27 20 17 26 18 15 26 18 15 24 20 17 28 19 16 25 19 16 27 20 17 26 18 15 26 19 16 27 22 16 28 22 16 28 20 17 26 22 16 28 20 14 26 21 15 27 20 14 26 21 15 27 20 17 28 20 18 29 19 17 28 19 17 30 20 16 30 20 16 30 20 16 30 20 17 28 20 17 28 20 16 30 21 18 29 20 17 28 21 15 27 22 16 28 21 15 29 19 16 27 20 17 28 19 16 27 19 15 29 20 16 31 21 15 29 22 16 28 21 17 31 21 17 31 20 16 30 21 17 31 21 17 31 20 16 30 20 16 30 21 17 31 21 17 31 20 16 30 19 15 29 19 15 29 20 16 30 20 16 30 20 14 28 21 15 29 
21 15 29 21 15 29 21 15 29 21 15 29 20 17 28 20 17 28 20 17 28 22 16 28 22 16 30 20 16 30 20 17 28 19 15 29 19 16 27 19 16 27 21 18 29 18 15 26 19 16 27 20 17 28 19 16 27 19 16 27 21 15 29 21 15 29 19 15 29 20 14 28 22 16 30 22 14 29 20 14 28 20 14 28 21 15 27 20 14 26 21 15 27 21 15 27 21 15 27 22 16 28 23 17 29 22 16 28 20 17 28 21 18 29 21 17 31 23 17 29 20 17 28 20 17 28 20 17 28 21 15 27 20 17 28 20 17 28 20 17 28 20 17 28 20 17 28 19 16 27 20 17 26 20 17 28 16 14 27 18 15 26 21 15 27 21 15 27 21 15 27 19 16 27 21 15 27 22 16 28 20 17 28 20 17 28 19 15 29 20 17 28 20 16 30 19 15 29 19 15 30 19 15 29 19 15 30 18 15 26 21 15 27 20 16 31 20 17 28 20 17 28 20 17 28 22 16 28 20 16 30 20 16 30 20 16 30 18 16 29 19 16 27 19 16 27 21 15 27 21 15 27 19 15 29 20 17 28 19 16 27 20 16 30 21 17 31 20 17 28 21 18 29 23 15 30 19 16 27 19 16 27 18 15 26 18 15 26 19 16 27 20 17 28 20 16 30 22 16 30 
21 15 29 20 14 28 21 15 29 21 15 29 21 15 29 22 16 28 22 16 28 22 16 28 21 15 27 23 17 29 23 17 29 21 15 29 21 15 27 22 16 28 22 16 28 21 15 27 21 15 27 22 16 28 22 16 28 21 15 27 21 15 27 21 15 27 21 15 27 21 15 27 21 15 27 21 15 27 21 15 27 21 15 27 20 14 26 20 14 26 18 14 28 19 16 27 21 15 27 22 16 30 20 17 28 21 18 29 21 18 29 21 18 29 21 18 29 21 18 29 20 17 28 19 16 27 19 16 27 19 16 27 19 16 27 20 17 28 20 17 28 19 16 27 20 17 28 20 17 28 19 16 27 20 17 28 18 15 26 18 15 26 21 15 27 22 16 28 22 16 28 19 16 27 19 16 27 19 16 27 19 16 27 20 17 28 19 16 27 20 17 28 20 17 28 21 17 31 20 16 30 20 16 30 20 17 28 18 15 26 20 17 28 19 16 27 20 17 28 20 17 28 20 17 28 20 17 28 18 14 28 19 16 27 20 17 28 20 17 28 19 16 27 19 15 29 19 16 27 19 16 27 19 16 27 20 17 28 19 16 27 19 16 27 20 17 28 20 17 28 20 17 28 19 16 27 19 15 29 18 15 26 18 14 28 18 14 28 19 16 27 20 17 28 20 17 28 24 16 29 
20 14 28 19 13 27 21 15 27 21 15 29 22 16 28 22 16 28 21 15 27 22 16 30 20 14 28 22 16 28 22 16 28 19 13 25 20 14 26 21 15 27 22 16 28 21 15 27 22 16 28 23 17 29 23 17 29 22 16 28 22 16 28 21 15 27 20 14 26 20 14 26 22 16 28 22 16 28 21 15 27 21 15 27 20 14 26 20 14 28 18 15 26 18 15 26 20 14 26 21 15 27 19 15 29 19 16 27 19 16 27 20 17 28 20 17 28 20 17 28 20 17 28 18 15 26 20 17 28 20 17 28 20 17 28 20 17 28 19 16 27 20 17 28 20 17 28 19 16 27 20 17 28 20 17 28 17 14 25 18 15 26 21 15 27 22 16 28 22 16 28 20 17 28 20 17 28 19 16 27 20 17 28 19 16 27 19 16 27 19 16 27 19 16 27 19 15 29 20 16 30 21 17 31 17 14 25 18 15 26 19 16 27 20 17 28 20 17 28 20 17 28 20 17 28 20 17 28 19 15 29 21 18 29 21 18 29 20 17 28 20 17 28 19 15 29 19 16 27 19 16 27 19 16 27 20 17 28 20 16 30 19 15 29 19 15 29 19 15 29 20 17 28 19 16 27 19 15 29 19 16 27 18 15 26 17 14 25 19 15 29 19 15 29 20 17 28 22 16 28 
20 14 28 20 14 28 21 15 27 22 16 30 22 16 28 22 16 28 21 15 27 21 15 29 20 14 28 22 16 28 22 16 28 20 14 26 20 14 26 21 15 27 21 15 27 22 16 28 22 16 28 25 19 31 23 17 29 22 16 28 21 15 29 23 17 31 20 14 28 20 14 28 22 16 30 21 15 29 22 16 30 21 15 29 21 15 27 19 15 29 18 15 26 18 15 26 20 14 26 21 15 27 21 15 29 19 16 27 19 16 27 20 17 28 20 17 28 20 17 28 19 16 27 20 17 28 19 16 27 19 16 27 20 17 28 20 17 28 20 17 28 21 18 29 21 18 29 20 17 28 20 17 28 20 17 28 18 15 26 18 15 26 21 15 27 21 15 27 22 16 28 20 17 28 20 17 28 20 17 28 19 16 27 20 17 28 19 16 27 19 16 27 19 16 27 19 15 29 20 16 30 21 17 31 21 15 27 18 15 26 19 16 27 21 15 27 20 17 28 19 16 27 22 16 28 20 17 28 20 16 30 20 17 28 20 17 28 19 16 27 19 16 27 19 15 29 20 17 28 19 16 27 20 16 30 20 16 30 21 18 29 20 17 28 21 18 29 19 16 27 20 16 30 20 16 30 20 17 28 18 15 26 18 15 26 18 15 24 19 16 27 19 15 29 19 16 27 22 16 28 
22 16 30 21 15 27 22 16 30 21 15 27 24 18 30 22 16 28 21 15 27 21 15 29 21 15 29 22 16 28 22 16 28 20 14 26 20 14 26 20 14 26 20 14 26 21 15 27 22 16 28 24 18 30 23 17 29 21 15 27 22 16 30 22 16 28 22 16 30 22 16 28 23 17 29 23 17 31 21 15 27 22 16 30 22 16 28 20 14 26 20 14 28 18 15 26 20 14 26 18 14 28 18 15 26 19 16 27 19 16 27 20 17 28 19 16 27 19 16 27 19 16 27 19 16 27 20 17 28 20 17 28 21 18 29 21 18 29 19 16 27 19 16 27 19 16 27 19 16 27 20 17 28 20 17 28 20 17 28 19 16 27 21 15 27 22 16 28 21 15 27 20 17 28 20 17 28 20 17 28 20 17 28 19 16 27 20 17 28 19 16 27 19 16 27 19 15 29 20 16 30 20 16 30 19 16 27 21 15 27 17 14 25 20 17 28 22 16 28 20 17 28 22 19 30 21 18 29 21 17 31 21 18 29 20 17 28 20 17 28 20 17 28 20 16 30 20 17 28 20 17 28 20 17 28 20 17 28 19 16 27 18 15 26 19 16 27 19 16 27 19 16 27 19 16 27 19 16 27 20 17 28 18 15 26 17 14 25 19 16 27 20 17 28 19 16 27 20 16 30 
22 16 30 22 16 28 22 16 30 22 16 28 21 15 29 21 15 27 21 15 27 22 16 28 22 16 28 22 16 28 22 16 28 20 14 28 21 15 29 21 15 29 21 15 29 21 15 29 22 16 30 24 18 32 23 17 31 21 15 29 22 16 28 23 17 29 23 17 29 23 17 29 22 16 28 22 16 28 22 16 28 22 16 28 21 15 27 19 16 27 19 15 29 18 15 26 20 14 26 21 15 29 20 14 26 18 15 26 21 15 27 20 17 28 20 17 28 19 16 27 20 17 28 19 16 27 21 18 29 23 17 29 20 17 28 20 17 28 19 16 27 19 16 27 19 16 27 18 15 26 19 16 27 19 16 27 21 18 29 19 16 27 22 16 28 22 16 28 23 17 29 21 18 29 20 17 28 20 17 28 19 16 27 20 17 28 18 15 26 18 15 26 18 15 26 19 15 29 18 14 28 18 14 28 20 17 28 19 16 27 20 17 28 19 16 27 20 18 29 20 17 28 23 17 29 20 17 28 20 16 30 20 17 28 20 17 28 20 17 28 19 16 27 20 16 30 20 17 28 20 17 28 19 16 27 19 16 27 20 17 28 18 15 26 17 14 25 18 15 26 19 16 27 19 16 27 19 16 27 18 15 26 19 16 27 18 15 26 20 17 28 20 17 28 19 15 29 19 15 29 
24 18 30 23 17 31 22 16 28 21 15 27 21 15 29 21 15 27 21 15 27 23 17 29 23 17 29 24 18 30 23 17 29 21 15 29 22 16 30 21 15 29 21 15 29 20 14 28 21 15 29 22 16 30 21 15 29 20 14 28 22 16 28 23 17 29 23 17 29 23 17 29 21 15 27 21 15 27 21 15 27 22 16 28 21 15 27 21 15 29 21 15 27 18 15 26 20 14 26 18 15 26 19 15 29 19 16 27 21 15 27 20 17 28 20 17 28 20 17 28 20 17 28 20 16 30 20 16 30 22 16 30 21 18 29 21 18 29 18 15 26 18 15 26 18 15 26 18 15 26 18 15 26 20 17 28 19 16 27 19 16 27 22 16 28 23 17 29 22 16 28 21 18 29 21 18 29 21 18 29 21 18 29 19 16 27 19 16 27 18 15 26 19 16 27 18 14 28 19 15 29 19 15 29 18 15 26 21 15 27 21 15 27 19 16 27 21 18 29 21 18 29 22 19 30 21 18 29 20 16 30 20 17 28 20 17 28 19 16 27 20 17 28 20 16 30 20 17 28 20 17 28 20 17 28 19 16 27 19 16 27 17 14 25 18 15 26 18 15 26 19 16 27 19 16 27 21 15 27 19 16 27 18 15 26 18 15 26 20 17 28 20 17 28 20 16 30 20 16 30 
23 17 29 23 17 31 22 16 28 22 16 28 21 15 29 21 15 27 21 15 27 22 16 28 22 16 28 22 16 28 22 16 28 21 15 29 22 16 30 21 15 29 21 15 29 20 14 28 21 15 29 21 15 29 21 15 29 20 14 28 22 16 28 23 17 29 23 17 29 23 17 29 21 15 27 21 15 27 21 15 27 20 14 26 22 16 28 19 15 29 19 16 27 19 16 27 21 15 27 20 14 26 21 15 29 21 18 29 19 16 27 20 17 28 19 16 27 20 17 28 21 17 31 20 16 30 20 16 30 21 17 31 20 17 28 19 16 27 19 16 27 19 16 27 19 16 27 18 15 26 19 16 27 19 16 27 19 16 27 19 16 27 22 16 28 21 15 27 22 16 28 21 18 29 20 17 28 20 17 28 20 17 28 20 17 28 19 16 27 19 16 27 19 16 27 19 15 29 19 15 29 19 15 29 19 16 27 20 17 28 20 17 28 21 15 27 20 17 28 20 17 28 23 17 29 21 18 29 21 17 31 20 17 28 20 17 28 19 16 27 19 16 27 19 15 29 20 17 28 19 16 27 19 16 27 20 17 28 19 16 27 17 14 25 18 15 26 19 16 27 19 16 27 20 17 28 21 15 27 18 15 26 18 15 26 18 15 26 19 16 27 20 17 28 20 16 30 19 15 29 
22 16 28 22 16 28 22 16 28 22 16 28 21 15 27 21 15 27 21 15 27 21 15 29 22 16 30 21 15 27 22 16 28 21 15 27 22 16 30 21 15 29 22 16 30 20 14 28 21 15 29 21 15 29 21 15 29 20 14 28 22 16 28 24 18 32 23 17 29 22 16 30 19 13 27 20 14 26 21 15 29 21 15 27 21 15 27 21 15 27 20 16 30 19 16 27 21 15 27 21 15 29 19 16 27 19 16 27 19 16 27 20 17 28 20 17 28 22 16 30 22 16 30 19 15 29 19 15 29 20 16 30 20 16 30 20 16 30 19 15 29 19 15 29 19 15 29 19 15 29 19 15 29 20 16 30 19 16 27 20 17 28 23 17 29 22 16 28 21 15 27 20 17 28 20 17 28 20 17 28 20 17 28 20 17 28 19 16 27 19 16 27 18 15 26 19 15 29 20 16 30 20 16 30 22 16 28 22 16 28 19 16 27 22 16 28 22 16 28 20 17 28 23 17 29 21 18 29 20 16 30 20 17 28 19 16 27 19 16 27 18 15 26 19 15 29 19 16 27 20 17 28 19 16 27 20 17 28 19 16 27 17 14 25 18 15 26 18 15 26 18 15 26 21 18 29 23 15 28 18 14 28 18 15 26 17 14 25 19 16 27 20 17 28 20 16 30 20 16 30 
20 14 26 20 14 26 22 16 28 20 17 28 22 16 28 21 15 27 20 14 26 18 15 26 19 16 27 19 16 27 18 15 26 20 17 28 20 17 28 20 17 28 20 17 28 19 16 27 19 16 27 20 17 28 19 16 27 18 15 26 22 16 30 21 17 31 21 17 31 20 17 28 19 13 25 20 14 26 21 15 27 21 15 27 21 15 27 21 15 27 22 16 28 22 16 28 21 15 27 22 16 28 21 15 27 21 15 27 19 16 27 20 17 28 22 16 28 20 17 28 21 15 29 20 14 28 22 16 30 18 16 29 20 16 30 19 15 29 19 15 29 18 14 28 19 15 29 18 14 28 21 17 31 20 16 30 18 15 26 19 16 27 19 16 27 19 18 26 21 15 25 22 16 28 20 17 28 19 16 27 21 18 29 20 17 28 19 16 27 20 17 28 19 16 27 20 16 30 20 16 30 20 16 30 20 17 28 20 17 28 19 16 27 21 15 27 23 17 29 22 16 28 21 15 27 22 16 28 20 17 28 19 16 27 19 16 27 18 15 26 20 14 26 18 15 26 21 15 27 20 17 28 18 15 24 19 16 25 19 16 25 17 14 23 17 14 23 19 16 25 19 16 25 20 17 26 19 16 27 20 17 28 19 16 27 18 15 26 18 15 24 18 15 26 21 18 29 20 17 28 
19 13 25 20 14 26 23 17 29 20 17 28 20 17 28 20 17 28 17 14 25 18 15 26 19 13 25 19 13 25 20 14 26 22 16 28 20 17 28 21 18 29 21 18 29 19 16 27 20 17 28 20 17 28 19 16 27 18 15 26 22 16 30 20 16 30 20 16 30 19 16 27 19 13 25 20 14 26 20 14 26 21 15 27 22 16 28 22 16 28 22 16 28 22 16 28 22 16 28 22 16 28 22 16 28 21 15 27 19 16 27 20 17 28 22 16 28 20 17 28 21 15 27 18 14 28 20 14 26 18 14 28 18 14 28 18 14 28 19 15 29 19 15 29 21 17 31 23 15 30 21 17 31 21 17 31 19 16 27 20 14 26 21 15 27 21 15 27 21 15 27 22 16 28 18 15 26 19 16 27 18 15 26 20 17 28 22 16 28 21 18 29 20 17 28 21 17 31 19 15 29 20 16 30 21 18 29 20 17 28 22 16 28 21 15 27 22 16 28 22 16 28 20 17 28 20 17 28 19 16 27 18 15 26 17 14 25 17 14 25 18 15 26 18 15 26 18 15 26 19 16 27 19 16 27 18 15 26 19 16 27 18 15 26 17 14 25 19 16 27 19 16 27 20 17 28 20 17 28 20 17 28 19 16 27 18 15 26 18 15 24 19 16 27 22 19 30 22 18 32 
19 16 27 20 14 26 20 17 28 19 16 27 22 14 27 19 16 27 18 15 26 19 16 27 19 16 27 17 14 25 21 15 27 20 17 28 20 17 28 21 18 29 20 17 28 18 15 26 18 15 26 18 15 26 18 15 26 17 14 25 19 16 27 19 16 27 21 18 29 19 16 27 21 15 27 20 14 26 20 14 26 19 16 27 22 16 28 22 16 28 22 16 28 21 15 27 21 15 27 21 15 27 19 13 25 20 14 26 19 16 27 21 15 27 23 15 28 21 18 29 20 17 28 19 16 27 21 15 29 19 16 27 20 17 28 20 17 28 19 16 27 19 16 27 20 17 28 20 17 28 21 18 29 21 18 29 19 17 30 20 17 28 22 16 28 22 16 28 23 17 29 20 17 28 18 15 26 18 14 28 18 15 26 22 16 28 19 16 27 21 15 27 18 15 26 20 16 30 20 16 30 20 16 30 21 15 27 21 15 27 19 16 27 20 17 28 18 16 27 19 16 27 19 16 27 18 15 26 20 17 28 20 17 28 20 17 28 20 17 28 19 16 27 18 15 26 18 15 26 18 15 26 19 16 27 19 16 27 21 15 27 18 15 26 18 15 26 21 15 27 19 16 27 21 18 29 19 16 27 19 16 27 19 16 27 18 15 26 18 15 26 19 16 27 21 17 31 21 17 31 
19 16 27 19 16 27 20 17 28 20 17 28 20 17 28 21 15 27 18 15 26 19 16 27 21 15 27 20 17 28 19 16 27 20 17 28 20 17 28 20 17 28 20 17 28 19 16 27 18 15 26 17 14 25 17 14 25 17 14 25 18 15 26 18 15 26 21 18 29 21 18 29 20 14 26 19 13 25 20 14 26 19 16 27 22 16 28 23 17 29 22 16 28 22 16 28 21 15 27 19 13 25 20 14 26 20 14 26 20 14 26 21 15 25 20 17 28 21 18 29 20 17 28 21 15 27 19 15 29 18 15 26 21 15 27 19 16 27 19 16 27 20 17 28 22 16 28 20 17 28 20 17 28 21 18 29 18 15 26 20 17 28 20 17 28 21 17 31 23 17 31 19 16 27 18 15 26 19 16 27 18 15 26 20 17 28 19 16 27 18 15 26 19 16 27 20 17 28 20 16 30 19 15 29 19 16 27 19 16 27 20 17 28 18 15 26 19 16 27 18 15 26 18 15 26 18 15 26 19 16 27 22 16 28 19 16 27 21 15 27 18 15 26 18 15 26 18 15 26 19 16 27 19 16 27 21 15 27 19 16 27 20 14 26 20 14 26 19 16 27 22 16 28 22 19 30 20 17 28 19 16 27 19 16 27 18 15 26 18 15 26 18 15 26 20 16 30 20 16 30 
20 17 28 21 18 29 19 16 27 19 16 27 18 15 26 19 16 27 20 17 28 18 16 27 21 18 29 20 17 28 23 15 28 21 15 27 18 15 26 19 16 27 19 16 27 18 15 26 20 17 28 18 15 26 18 15 26 18 15 26 18 15 26 18 15 26 18 15 26 18 15 26 19 16 27 20 14 26 19 16 27 20 17 28 23 17 29 23 17 29 24 18 30 23 17 29 22 16 28 21 15 27 21 15 27 22 16 28 21 15 27 24 18 30 21 18 29 20 17 28 20 17 28 22 16 28 20 17 28 20 17 28 20 17 28 20 17 28 18 15 26 19 16 27 19 16 27 21 15 27 19 16 27 20 17 28 20 14 26 21 15 29 20 16 30 22 16 28 22 16 28 20 14 28 16 12 26 18 15 26 18 15 26 21 18 29 21 18 29 19 16 27 20 17 28 19 16 27 18 15 26 18 14 28 17 14 25 19 16 27 19 16 27 21 18 29 20 17 28 21 18 29 20 17 28 20 17 28 21 18 29 23 17 29 20 17 28 22 16 28 20 17 28 20 17 28 20 17 28 19 16 27 21 15 27 19 16 27 21 15 27 17 14 25 17 14 25 21 15 27 20 17 28 23 17 29 21 18 29 21 18 29 20 17 28 19 16 27 19 16 27 19 16 27 20 16 30 20 16 30 
20 17 28 22 19 30 19 16 27 19 16 27 20 14 26 19 16 27 18 15 26 20 17 28 23 17 29 19 16 27 20 17 28 19 16 27 19 16 27 18 15 26 18 15 26 19 16 27 19 16 27 20 17 28 20 17 28 18 15 26 18 15 26 17 14 25 18 15 26 18 15 26 19 16 27 20 14 26 20 17 28 20 17 28 23 17 29 23 17 29 22 16 28 23 17 29 22 16 28 21 15 27 22 16 28 22 16 28 20 17 28 23 17 29 23 17 29 20 17 28 19 16 27 19 16 27 19 16 27 19 16 27 20 17 28 20 17 28 19 16 27 19 16 27 18 15 26 18 15 26 18 15 26 19 16 27 17 14 25 18 15 26 22 14 29 21 15 29 19 15 29 19 15 29 17 14 25 20 14 26 17 14 25 22 16 28 21 18 29 22 16 28 20 17 28 18 15 26 17 14 25 17 13 27 17 14 25 18 15 26 20 17 28 21 18 29 22 19 30 21 18 29 20 17 28 20 17 28 21 18 29 20 17 28 20 17 28 20 17 28 19 16 27 19 16 27 20 17 28 20 17 28 20 17 28 21 15 27 19 16 27 18 15 26 17 14 25 19 16 27 22 16 28 21 18 29 21 18 29 21 17 31 20 16 30 19 15 29 20 17 28 20 17 28 20 16 30 20 16 31 
19 16 27 19 16 27 20 17 28 19 16 27 21 15 27 19 16 27 17 14 25 18 15 26 18 15 26 19 16 27 19 16 27 16 13 24 15 12 23 16 13 24 16 13 24 19 16 27 20 17 28 21 18 29 20 17 28 19 16 27 18 14 28 18 14 28 19 15 29 19 15 29 19 15 29 19 16 27 19 16 27 18 15 26 22 16 30 22 16 28 22 16 28 21 15 29 21 15 29 21 15 27 21 15 27 21 15 29 21 15 27 23 17 29 22 16 30 19 16 27 21 15 27 20 17 28 18 15 26 23 17 29 23 17 29 21 18 29 19 16 27 19 16 27 20 14 26 18 15 26 18 15 26 18 15 26 18 15 26 17 15 26 19 16 25 18 15 26 18 15 26 18 15 24 20 14 26 18 15 26 19 16 27 20 17 28 22 16 28 20 17 28 20 17 28 17 14 25 17 14 25 17 14 25 18 15 26 18 15 26 18 15 26 20 17 28 19 16 27 20 17 28 20 17 28 19 16 27 18 15 26 19 16 27 19 16 27 18 15 26 17 14 25 17 14 25 17 14 25 18 15 26 17 14 25 17 14 25 17 14 25 16 13 24 16 13 24 17 14 25 18 15 26 20 17 28 20 17 28 19 16 27 18 15 26 17 14 25 18 15 26 18 15 26 18 15 26 18 15 26 
19 16 27 18 15 26 20 17 28 21 15 27 20 17 28 18 15 26 19 13 25 19 16 27 17 14 25 19 16 27 19 16 27 16 13 24 16 13 24 16 13 24 16 13 24 20 17 28 19 16 27 20 17 28 20 17 28 19 16 27 18 15 26 18 15 24 19 17 28 20 17 28 20 17 28 20 17 28 19 16 27 19 16 27 21 15 27 21 15 27 21 15 27 20 14 26 21 15 27 21 15 27 21 15 27 21 15 27 18 15 26 22 16 30 21 15 27 18 15 26 18 15 26 19 16 27 19 16 27 22 16 28 21 18 29 21 18 29 19 16 27 19 16 27 17 14 25 20 14 26 19 16 27 19 16 27 20 14 26 20 14 26 19 16 27 19 16 27 19 16 27 21 15 27 21 15 27 18 15 26 19 15 29 20 17 28 20 17 28 20 17 28 21 18 29 17 14 25 17 14 25 18 15 26 18 15 26 18 15 26 19 16 27 20 17 28 19 16 27 19 16 27 18 15 26 17 14 25 18 15 26 18 15 26 18 15 26 17 14 25 19 13 25 17 14 25 19 13 25 17 14 25 19 16 27 17 14 25 18 15 26 17 14 25 16 13 24 17 14 25 18 15 26 19 16 27 20 17 28 19 16 27 19 15 30 18 14 28 19 15 29 19 16 25 18 15 26 18 15 26 
18 15 26 18 15 26 19 16 27 19 16 27 20 17 28 19 16 27 18 15 26 17 14 25 16 13 24 19 16 27 21 18 29 20 14 26 17 14 25 17 14 25 16 13 24 19 16 27 19 16 27 20 17 28 18 15 26 18 15 26 17 13 27 18 15 26 20 17 28 21 18 29 20 17 28 20 17 28 20 14 26 20 14 26 19 13 25 20 14 26 19 13 25 20 14 26 20 14 26 20 14 26 21 15 27 21 15 27 21 15 27 20 14 26 20 14 26 19 16 27 19 16 27 18 15 26 19 16 27 22 16 30 23 17 29 20 17 28 20 14 26 18 15 26 21 15 27 19 16 27 22 16 28 19 16 27 18 15 26 18 16 27 20 17 28 22 16 28 18 16 27 19 16 27 23 17 29 20 17 28 19 16 27 18 15 26 21 15 27 20 17 28 19 16 27 18 15 26 19 16 27 20 17 28 19 16 27 19 16 27 19 16 27 19 16 27 18 15 26 18 15 26 18 15 26 18 15 26 19 16 27 20 17 28 21 18 29 20 17 28 20 17 28 19 16 27 18 15 26 17 14 25 17 14 25 18 15 26 18 15 26 17 14 25 17 14 25 18 15 26 19 16 27 20 17 28 20 17 28 20 17 28 22 16 28 18 15 26 20 17 28 19 16 27 19 13 25 16 13 24 
18 15 26 18 15 26 19 16 27 19 16 27 20 17 28 18 15 26 19 16 27 17 14 25 17 14 25 19 16 27 23 17 29 19 16 27 18 15 26 17 14 25 18 15 26 20 17 28 19 16 27 20 17 28 19 16 27 18 15 26 18 15 26 18 15 26 21 15 27 22 16 28 22 16 28 23 17 29 20 14 26 21 15 27 18 14 28 18 15 26 18 15 26 18 14 28 18 14 28 18 15 26 19 16 27 18 14 28 22 16 28 18 15 26 21 15 27 19 16 27 20 14 26 18 15 26 19 16 27 19 16 27 20 17 28 20 17 28 19 16 27 19 16 27 20 17 28 19 16 27 19 16 27 19 16 27 18 15 26 18 15 26 20 17 28 20 17 28 20 17 28 19 16 27 21 18 29 20 17 28 20 17 28 19 16 27 19 16 27 19 16 27 19 16 27 16 14 25 21 15 27 20 17 28 20 17 28 20 17 28 19 16 27 21 15 27 20 14 26 18 15 26 18 15 26 18 15 26 20 17 28 20 17 28 22 19 30 21 18 29 20 17 28 19 16 27 19 16 27 18 15 26 17 14 25 18 15 26 18 15 26 18 15 26 17 14 25 18 15 26 18 15 26 19 16 27 19 17 28 21 15 27 19 16 27 18 15 26 19 16 27 19 16 27 17 14 25 18 12 24 
20 17 28 20 17 28 19 16 27 18 15 26 17 14 25 19 16 27 19 16 27 21 15 27 19 16 27 19 17 28 21 18 29 20 17 28 19 16 27 19 16 27 18 15 26 19 16 27 19 16 27 19 16 27 19 16 27 19 16 27 19 16 27 19 16 27 21 15 27 23 17 29 23 17 29 23 17 29 21 18 29 20 16 30 20 16 30 20 16 30 19 15 29 19 15 29 19 15 29 19 15 29 19 15 29 19 15 29 21 15 29 22 16 28 20 17 28 19 16 27 17 15 26 20 14 26 18 15 26 18 15 26 18 15 26 19 16 27 18 15 26 18 15 26 18 15 26 19 16 27 20 17 28 20 17 28 18 15 26 19 16 27 21 15 27 20 17 28 21 18 29 23 17 29 21 18 29 20 17 28 18 15 26 19 16 27 18 15 26 19 16 27 21 15 27 17 14 25 19 16 27 20 17 28 23 17 29 21 18 29 20 17 28 20 17 28 19 16 27 19 16 27 20 14 26 19 16 27 20 17 28 22 19 30 22 19 30 22 19 30 21 18 29 20 17 28 20 17 28 19 16 27 20 14 26 19 16 27 20 17 28 20 17 28 19 16 27 19 16 27 19 16 27 21 15 27 18 15 26 19 16 27 17 15 26 18 15 26 19 16 27 20 17 28 18 15 26 17 14 25 
19 16 27 20 17 28 19 16 27 19 16 27 19 16 27 19 16 27 21 15 27 19 16 27 19 16 27 22 16 28 21 18 29 20 17 28 19 16 27 19 16 27 20 17 28 20 17 28 20 17 28 20 17 28 20 17 28 19 16 27 19 16 27 19 16 27 19 16 27 19 16 27 20 17 28 20 17 28 21 18 29 22 18 32 21 18 29 20 16 30 20 16 30 18 15 26 19 16 27 18 14 28 18 14 28 19 16 27 21 15 29 20 17 28 20 17 28 20 14 26 18 15 26 18 15 26 18 15 26 19 16 27 19 16 27 19 16 27 18 15 26 18 15 26 19 16 27 19 16 27 19 16 27 21 18 29 19 16 27 18 15 26 22 16 28 21 18 29 20 17 28 22 16 28 22 19 30 20 17 28 18 15 26 19 16 27 21 15 27 22 16 28 19 17 28 20 14 26 19 16 27 19 17 28 20 17 28 21 18 29 20 17 28 22 16 28 19 16 27 20 17 28 18 15 26 19 16 27 19 16 27 20 17 28 22 19 30 21 18 29 21 18 29 21 18 29 19 16 27 18 15 26 19 16 27 19 16 27 21 15 27 21 15 27 20 14 26 17 14 25 18 15 26 18 15 26 17 15 26 18 16 27 20 14 26 18 15 26 18 15 26 20 17 28 20 14 26 18 15 26 
18 15 26 20 17 28 18 15 26 19 16 27 19 16 27 17 14 25 19 16 27 18 15 26 20 14 26 19 16 27 19 16 27 18 15 26 19 16 27 19 16 27 18 15 26 19 16 27 20 17 28 20 17 28 20 17 28 20 17 28 20 17 28 20 17 28 19 16 27 18 15 26 19 16 27 18 15 26 21 17 31 21 17 31 22 18 32 21 18 29 20 17 28 19 15 29 17 13 27 18 15 26 18 15 26 19 15 29 18 14 28 21 17 31 22 16 28 20 17 28 20 17 28 18 15 26 21 15 27 19 16 27 19 16 27 19 16 27 19 16 27 18 15 26 19 16 27 20 17 28 20 17 28 20 17 28 18 15 26 21 15 27 17 14 25 19 16 27 19 16 27 19 16 27 17 14 25 19 16 27 20 14 26 20 17 28 20 17 28 19 17 28 22 16 28 17 14 25 18 15 26 19 16 27 19 16 27 21 18 29 20 17 28 22 16 28 20 17 28 20 17 28 19 16 27 19 16 27 17 14 25 18 15 26 18 15 26 17 14 25 18 15 26 18 15 26 18 15 26 17 14 25 17 14 25 19 16 27 20 17 28 20 17 28 20 17 28 18 15 26 18 15 26 17 14 25 18 15 26 19 13 25 18 15 26 18 15 26 19 16 27 19 16 27 19 16 27 19 16 27 
19 16 27 19 16 27 20 17 28 20 17 28 19 16 27 21 15 27 17 15 26 18 15 26 20 14 26 19 16 27 20 17 28 19 16 27 19 16 27 20 17 28 19 16 27 18 15 26 19 16 27 19 16 27 19 16 27 20 17 28 22 14 27 21 13 26 18 15 26 18 15 26 18 15 26 18 14 28 20 16 30 20 16 30 21 18 29 20 17 28 20 17 28 18 15 26 16 13 24 17 14 25 17 14 25 18 15 26 19 15 29 19 15 29 20 16 30 23 17 29 19 16 27 18 15 26 19 16 27 20 14 26 19 16 27 19 16 27 18 15 26 18 15 26 19 16 27 19 16 27 19 16 27 20 17 28 19 16 27 20 14 26 17 14 25 19 16 27 19 16 27 18 15 26 19 16 27 18 15 26 19 16 27 20 17 28 20 17 28 20 17 28 20 17 28 18 15 26 19 13 25 17 14 25 19 13 25 19 16 27 19 16 27 19 16 27 20 17 28 20 17 28 21 15 27 19 16 27 17 14 25 18 15 26 18 15 26 19 16 27 19 16 27 19 16 27 17 14 25 18 15 26 19 16 27 20 17 28 20 17 28 19 16 27 19 16 27 18 15 26 18 15 26 18 15 26 21 15 27 18 15 26 19 16 27 19 16 27 22 16 28 19 16 27 19 16 27 19 16 27 
18 15 26 18 15 26 20 17 28 20 17 28 20 17 28 18 15 26 18 15 26 18 15 26 17 15 26 19 16 27 18 16 27 20 17 28 20 17 28 20 17 28 20 17 28 19 16 27 18 15 26 18 15 26 18 15 26 18 15 26 20 14 26 20 14 26 17 14 25 17 14 25 15 12 23 16 12 26 18 14 28 19 15 29 20 17 28 20 16 30 19 15 29 18 15 26 17 14 25 16 12 26 16 12 26 17 14 25 18 16 29 19 15 29 21 15 29 21 18 29 20 17 28 20 14 26 19 16 27 18 15 26 19 16 27 19 16 27 17 14 25 17 14 25 17 14 25 18 15 26 19 16 27 19 16 27 18 15 26 18 15 26 18 15 26 19 16 27 19 16 27 19 16 27 18 15 26 19 16 27 19 16 27 19 16 27 20 17 28 19 16 27 21 15 27 19 16 27 16 13 24 16 13 24 17 14 25 18 15 26 18 15 26 20 14 26 21 15 27 19 16 27 19 16 27 19 16 27 16 13 24 18 15 26 18 15 26 19 16 27 20 17 28 19 16 27 19 16 27 20 17 28 20 17 28 20 17 28 21 18 29 20 17 28 20 17 28 18 15 26 19 16 27 21 15 27 21 15 27 19 16 27 20 17 28 20 14 26 18 16 27 19 16 27 19 16 27 20 17 28 
20 17 28 20 17 28 20 17 28 20 17 28 20 14 26 19 16 27 18 15 26 19 16 27 19 16 27 17 14 25 19 13 25 18 15 26 18 15 26 19 16 27 19 16 27 18 15 26 17 14 25 17 14 25 16 13 24 16 13 24 19 13 25 18 15 26 21 18 29 20 17 28 17 14 25 15 11 25 16 14 27 16 14 27 17 13 27 17 13 27 18 14 28 18 14 28 18 14 28 18 14 28 19 15 29 19 15 29 17 13 27 17 13 27 17 13 27 17 15 26 20 14 26 17 14 25 17 14 25 18 15 26 20 14 26 18 15 26 18 12 24 16 13 24 18 12 24 16 13 24 19 13 25 17 14 25 17 14 25 17 14 25 17 14 25 19 16 27 19 16 27 18 15 26 18 15 26 19 16 27 18 15 26 19 16 27 21 15 27 17 14 25 18 15 26 17 14 25 18 15 26 18 15 26 18 15 26 18 15 26 18 15 26 17 14 25 18 15 26 18 15 26 18 15 26 17 14 25 17 14 25 18 15 26 18 15 26 19 16 27 18 15 26 18 15 26 17 14 25 18 15 26 19 16 27 19 16 27 21 18 29 20 14 26 20 14 26 16 13 24 18 15 26 17 14 25 19 16 27 19 16 27 20 17 28 19 16 27 20 14 26 18 15 26 19 16 27 19 16 27 
20 17 28 21 18 29 20 17 28 19 16 27 18 15 26 18 15 26 18 15 26 20 17 28 20 17 28 17 14 25 16 13 24 18 15 26 19 13 25 18 15 26 17 14 25 18 15 26 18 12 24 19 11 24 16 13 24 17 14 25 18 15 26 19 16 27 20 16 30 22 19 30 18 14 28 15 11 25 17 13 27 16 12 26 17 14 25 17 14 25 17 13 27 17 13 27 19 15 29 19 15 29 18 14 28 18 14 28 19 16 27 18 14 28 16 13 24 17 14 25 17 13 27 17 11 25 19 13 25 19 11 26 19 13 25 17 14 25 18 12 24 18 12 24 15 12 23 15 12 23 18 12 24 16 13 24 17 14 25 17 14 25 17 14 25 18 15 26 20 17 28 19 16 27 19 16 27 18 15 26 19 16 27 19 16 27 19 16 27 17 14 25 18 15 24 18 15 24 18 15 26 18 15 26 19 16 27 18 15 26 18 15 26 17 14 25 18 15 26 17 14 25 17 14 25 17 14 25 17 14 25 17 14 25 18 15 26 19 16 27 18 15 26 18 15 24 17 14 25 17 14 25 19 16 27 20 17 28 19 16 27 17 14 25 17 14 25 16 13 24 17 14 25 19 16 27 20 17 28 20 17 28 21 15 27 20 14 26 18 15 26 17 14 25 18 15 26 19 16 27 
20 17 28 21 18 29 19 16 27 19 16 27 18 15 26 18 15 26 18 15 26 17 14 25 18 15 26 19 16 27 19 16 27 20 16 30 23 17 29 20 17 28 20 17 28 19 16 27 18 15 26 19 13 25 17 14 25 19 16 27 19 15 29 19 15 29 19 16 27 19 15 29 19 16 27 19 15 29 20 17 28 19 15 29 17 13 27 18 14 28 18 14 28 18 14 28 19 15 29 19 15 29 20 17 28 20 17 28 19 16 27 20 16 30 20 17 28 20 17 28 20 16 30 18 14 28 21 15 27 19 13 27 18 15 26 18 15 26 18 14 28 17 13 27 18 14 28 18 14 28 19 16 27 19 16 27 20 17 28 20 17 28 18 15 26 18 15 26 19 16 27 19 16 27 19 16 27 19 16 27 19 16 27 20 17 28 20 16 30 20 16 30 21 18 29 19 16 27 20 17 28 19 16 27 20 17 28 21 18 29 19 16 27 19 16 27 18 15 26 19 16 27 19 16 27 18 15 26 17 13 27 18 14 28 19 16 27 17 14 25 17 14 25 16 13 24 15 12 23 16 13 24 18 15 26 18 15 26 18 15 26 19 16 27 19 16 27 19 16 27 21 15 27 22 16 28 19 16 27 19 16 27 21 15 27 19 16 27 19 16 27 19 16 27 21 18 29 20 17 28 
23 17 29 21 15 27 20 16 30 21 15 29 18 15 26 18 15 26 18 15 26 17 14 25 17 14 25 18 14 28 19 15 29 22 18 32 22 18 32 21 17 31 21 17 31 20 16 30 18 14 28 19 13 27 17 13 27 20 16 30 20 16 30 19 15 29 18 14 28 18 14 28 20 16 30 19 16 27 19 16 27 20 17 28 18 14 28 18 14 28 18 14 28 18 14 28 19 15 29 19 15 29 19 16 27 20 17 28 20 17 28 21 17 31 21 18 29 20 17 28 20 16 30 18 14 28 18 15 26 19 13 27 18 14 28 19 15 29 19 15 29 19 15 29 19 15 29 19 15 29 20 16 30 20 16 30 21 17 31 21 17 31 19 16 27 19 16 27 18 14 28 19 15 29 18 14 28 20 17 28 20 17 28 20 16 30 20 16 30 20 16 30 21 17 31 20 17 28 20 16 30 21 18 29 19 15 29 20 16 30 19 15 29 19 15 29 18 14 28 18 14 28 18 14 28 17 13 27 19 16 27 18 15 26 18 15 26 18 15 26 17 14 25 16 12 26 16 12 26 16 12 26 19 13 27 20 14 28 20 14 28 20 14 28 21 15 29 20 16 30 20 16 30 20 16 30 19 15 29 19 15 29 19 15 29 19 15 29 20 16 30 20 16 30 21 17 31 21 17 31 
21 15 27 19 13 25 18 15 26 20 14 26 18 14 28 18 15 26 17 14 25 19 16 27 20 16 30 18 14 28 18 14 28 20 16 30 20 16 30 18 14 28 18 14 28 19 15 29 19 15 29 18 14 28 19 15 29 20 16 30 19 15 29 18 14 28 20 16 30 19 16 27 19 15 29 19 16 27 20 16 30 18 15 26 18 15 26 18 15 26 18 14 28 19 15 29 19 15 29 19 15 29 19 15 29 19 15 29 18 15 26 20 16 30 20 17 28 21 18 29 20 16 30 18 14 28 18 15 26 18 14 28 19 15 29 20 16 30 18 14 28 17 14 25 18 15 26 18 14 28 18 16 29 18 14 28 18 14 28 18 14 28 17 13 27 18 14 28 18 14 28 18 14 28 17 13 27 17 13 27 18 14 28 19 15 30 19 15 29 19 15 29 19 16 27 20 16 30 19 15 29 19 15 29 20 16 30 22 18 32 21 17 31 19 15 29 19 15 29 18 14 28 19 15 29 18 14 28 18 14 28 18 14 28 19 15 29 19 16 27 19 16 27 18 15 26 18 15 26 20 17 28 20 16 30 20 16 30 20 16 30 19 15 29 21 15 29 20 14 28 20 14 28 21 15 29 19 15 29 20 16 30 21 17 31 19 15 29 20 14 28 19 15 29 21 17 31 20 16 30 
18 15 26 18 15 26 19 16 27 18 15 26 17 14 25 17 14 25 18 15 26 19 16 27 20 16 30 19 15 29 18 14 28 20 17 28 19 15 29 18 14 28 17 13 27 20 16 30 19 15 29 19 15 29 19 15 29 20 16 30 19 16 27 17 13 27 19 16 27 20 16 30 18 15 26 17 13 27 19 15 29 18 14 28 18 15 26 18 15 26 18 14 28 19 15 29 19 15 29 19 15 29 19 15 29 19 15 29 19 15 29 19 16 27 20 16 30 21 17 31 20 17 28 18 15 26 18 14 28 19 16 27 18 15 26 18 15 26 18 15 26 19 15 29 18 14 28 18 15 26 17 14 25 19 16 27 18 14 28 18 14 28 19 15 29 18 14 28 18 14 28 17 13 27 18 14 28 18 14 28 18 14 28 19 15 29 17 13 27 20 17 28 18 14 28 19 15 29 19 15 30 19 15 29 20 16 30 21 17 31 22 18 32 20 16 30 18 14 28 19 15 29 19 15 29 18 14 28 19 15 29 19 15 29 19 15 29 19 15 29 18 14 28 19 16 27 18 15 26 19 16 27 22 16 30 22 16 30 20 16 30 19 15 29 18 14 28 18 14 28 19 15 29 19 15 29 19 15 29 20 16 30 21 17 31 19 15 29 20 14 28 18 14 28 20 16 30 20 16 30 
18 15 26 19 16 27 18 15 26 18 15 26 17 14 25 18 15 26 18 15 26 20 16 30 21 17 31 18 14 28 19 15 29 17 13 27 18 14 28 16 12 26 15 11 25 18 14 28 19 15 29 19 15 29 20 16 30 19 15 29 19 16 27 18 15 26 20 17 28 19 15 29 18 14 28 17 13 27 17 13 27 18 14 28 18 14 28 18 14 28 18 14 28 18 14 28 18 14 28 18 14 28 18 15 26 18 15 26 18 14 28 19 16 27 18 14 28 20 16 30 20 17 28 18 15 26 19 15 29 19 16 27 19 16 27 19 16 27 17 14 25 18 15 26 17 14 25 18 15 26 18 15 26 18 15 26 18 14 28 18 14 28 18 14 28 17 13 27 19 15 29 17 13 27 18 14 28 18 14 28 18 15 26 18 14 28 18 15 26 19 15 29 17 13 27 19 15 29 18 14 28 18 15 26 20 16 30 20 16 30 20 16 30 19 15 29 18 14 28 19 15 29 20 16 30 20 16 30 20 17 28 20 17 28 20 17 28 19 15 29 21 17 31 19 15 29 18 14 28 19 15 29 21 17 31 20 16 30 19 15 29 19 15 29 20 16 30 18 14 28 19 15 29 19 15 29 20 16 30 21 17 31 21 17 31 20 16 30 19 15 29 18 14 28 18 14 28 19 15 29 
19 15 29 19 15 29 19 16 27 18 15 26 17 14 25 17 13 27 17 13 27 19 15 29 20 16 30 19 15 29 20 16 30 17 13 27 18 15 26 16 13 24 16 13 24 18 15 26 19 16 27 20 17 28 20 17 28 19 16 27 17 13 27 17 14 25 18 14 28 19 16 27 17 13 27 17 14 25 18 14 28 17 13 27 18 14 28 18 14 28 19 15 29 19 15 29 18 14 28 18 14 28 18 15 26 18 15 26 18 14 28 18 15 26 19 15 29 21 17 31 20 17 28 19 16 27 18 14 28 17 14 25 18 14 28 19 15 29 18 15 26 17 14 25 18 15 26 18 15 26 19 15 29 20 16 30 18 14 28 18 14 28 17 13 27 17 13 27 18 14 28 17 13 27 18 14 28 19 15 29 19 16 27 19 16 27 18 15 26 17 14 25 19 15 29 17 13 27 18 15 26 19 16 27 19 16 27 20 17 28 20 17 28 18 15 26 19 16 27 20 17 28 19 16 27 20 17 28 21 17 31 20 16 30 20 16 30 19 15 29 18 14 28 18 14 28 18 15 26 19 16 27 19 16 27 20 17 28 19 16 27 19 16 27 20 17 28 18 15 26 18 15 26 18 15 26 19 16 27 20 17 28 22 16 28 19 16 27 18 15 26 18 15 26 19 16 27 18 15 26 
19 15 29 19 15 29 18 14 28 18 14 28 17 13 27 17 13 27 17 13 27 19 15 29 19 15 29 20 16 30 19 15 29 18 14 28 18 15 26 15 12 23 16 13 24 17 14 25 19 16 27 20 17 28 19 16 27 18 15 26 18 14 28 17 13 27 17 13 27 18 14 28 16 13 24 17 13 27 19 16 27 17 14 25 17 14 25 18 15 26 19 15 29 19 15 29 19 15 29 19 15 29 19 15 29 18 14 28 19 15 29 19 16 27 18 14 28 21 17 31 20 17 28 18 15 26 19 15 29 17 14 25 17 13 27 18 14 28 17 13 27 16 12 26 18 14 28 18 14 28 19 15 29 19 15 29 19 15 29 19 15 29 17 14 25 18 14 28 18 14 28 18 14 28 19 15 29 19 16 27 19 15 29 20 16 30 19 16 27 18 15 26 19 15 29 18 14 28 18 14 28 18 14 28 19 16 27 18 15 26 19 16 27 19 16 27 19 16 27 19 16 27 19 16 27 19 16 27 19 15 29 20 16 30 20 16 31 19 15 29 20 16 30 20 16 30 18 14 28 18 14 28 16 13 24 20 17 28 20 17 28 22 19 30 21 18 29 20 17 28 20 17 28 19 16 27 20 17 28 21 18 29 22 16 28 21 15 27 19 16 27 17 14 25 18 15 26 19 16 27 
18 14 28 18 14 28 19 15 29 18 14 28 18 14 28 18 14 28 17 15 28 17 15 28 18 14 28 21 17 31 20 17 28 18 15 26 19 15 29 16 12 26 17 13 27 17 13 27 18 14 28 19 15 29 18 14 28 18 14 28 17 14 25 17 14 25 17 13 27 17 13 27 18 15 26 17 14 25 17 13 27 18 14 28 19 15 29 18 14 28 20 16 30 19 15 29 19 15 29 19 15 29 19 15 29 19 15 29 19 16 27 19 15 29 19 16 27 20 16 30 19 15 29 18 15 26 18 14 28 19 16 27 18 14 28 18 14 28 16 12 26 16 12 26 17 13 27 17 13 27 19 15 29 19 15 29 19 15 29 18 14 28 18 14 28 18 14 28 18 14 28 17 13 27 19 15 29 19 15 29 19 15 29 20 16 30 19 15 29 18 14 28 18 14 28 18 14 28 18 14 28 17 13 27 18 14 28 19 16 27 18 15 26 18 15 26 19 15 29 19 15 29 19 15 29 20 17 28 20 16 30 19 15 29 20 16 30 19 15 29 19 15 29 20 16 30 19 15 29 18 14 28 17 13 27 20 16 30 20 16 30 22 18 32 22 18 32 20 16 30 19 15 29 19 15 29 19 15 29 20 16 30 20 16 30 19 15 29 19 15 29 17 13 27 19 15 29 18 16 29 
18 14 28 19 15 29 18 14 28 19 15 29 19 15 29 19 15 29 19 15 29 18 14 28 16 12 26 19 15 29 19 16 27 19 16 27 19 15 29 17 13 27 17 13 27 17 13 27 18 14 28 20 16 30 19 15 29 18 14 28 17 13 27 17 13 27 16 13 24 17 14 25 18 14 28 18 14 28 19 16 27 19 16 27 19 15 29 19 15 29 20 16 30 19 15 29 21 17 31 20 16 30 20 16 30 20 16 30 21 17 31 20 17 28 20 16 30 20 17 28 19 16 27 18 14 28 18 15 26 18 14 28 18 14 28 18 14 28 17 13 27 16 12 26 18 14 28 18 14 28 19 15 29 20 16 30 20 16 30 19 15 29 18 14 28 18 14 28 18 14 28 19 15 29 19 15 29 18 14 28 18 15 26 19 16 27 18 14 28 18 14 28 18 14 28 18 14 28 19 15 29 18 14 28 17 13 27 17 14 25 17 14 25 18 15 26 18 14 28 18 14 28 19 15 29 20 17 28 20 16 30 19 15 29 20 16 30 20 16 30 19 15 29 18 14 28 18 14 28 18 14 28 16 12 26 20 16 30 21 17 31 21 17 31 22 18 32 21 17 31 20 16 30 20 16 30 18 14 28 19 15 29 19 15 29 18 14 28 16 12 26 17 13 27 19 15 29 18 16 29 
19 15 29 19 15 29 19 15 29 18 14 28 19 15 29 20 16 30 19 15 29 19 16 27 18 15 26 19 16 27 19 15 29 19 15 29 19 15 29 18 14 28 18 14 28 17 13 27 18 14 28 18 14 28 19 15 29 18 14 28 18 14 28 17 14 25 17 14 25 17 13 27 18 15 26 18 14 28 18 14 28 19 16 27 19 15 29 19 15 29 20 16 30 19 15 29 19 15 29 19 15 29 19 15 29 20 16 30 21 18 29 20 16 30 20 17 28 19 15 29 17 13 27 19 16 27 19 15 29 19 16 27 19 15 29 18 14 28 18 14 28 17 13 27 18 14 28 19 15 29 19 15 29 19 15 29 18 14 28 18 14 28 17 13 27 19 15 29 18 14 28 18 14 28 18 14 28 18 14 28 18 14 28 18 14 28 18 14 28 18 15 26 19 16 27 18 14 28 18 14 28 19 15 29 19 15 29 18 15 26 18 15 26 18 15 26 18 14 28 18 14 28 18 14 28 17 14 25 19 15 29 20 16 30 19 15 29 19 15 29 19 15 29 19 15 29 19 15 29 18 14 28 16 12 26 19 15 29 20 16 30 22 18 32 21 17 31 20 16 30 19 15 29 18 14 28 18 14 28 18 14 28 18 14 28 21 15 29 18 14 28 18 14 28 21 17 31 20 16 30 
18 14 28 18 14 28 18 14 28 19 15 29 19 15 29 20 16 30 20 16 30 20 16 30 19 15 29 19 15 29 18 15 26 19 16 27 20 16 30 19 15 29 19 15 29 17 13 27 18 14 28 20 16 30 19 15 29 19 15 29 18 15 26 18 14 28 17 13 27 17 14 25 17 13 27 18 15 26 18 15 26 18 14 28 18 14 28 18 14 28 19 15 29 19 15 29 18 14 28 18 14 28 19 15 29 19 15 29 19 15 29 20 17 28 19 15 29 19 16 27 19 16 27 18 14 28 20 17 28 21 17 31 19 15 29 19 15 29 18 14 28 18 14 28 18 14 28 18 14 28 19 15 29 19 15 29 17 14 25 18 15 26 18 15 26 18 15 26 18 15 26 18 15 26 18 15 26 16 13 24 17 13 28 16 12 26 17 13 27 16 12 26 16 12 26 18 14 28 19 16 27 19 16 25 18 14 28 18 15 26 18 15 26 18 15 26 17 13 27 18 14 28 18 14 28 18 15 26 17 13 27 19 15 29 19 15 29 19 15 29 18 14 28 19 15 29 19 15 29 17 13 27 18 14 28 20 16 30 21 17 31 20 16 30 20 16 30 19 15 29 18 14 28 18 14 28 18 14 28 18 14 28 18 14 28 18 14 28 18 14 28 18 14 28 20 16 30 20 16 30 
18 14 28 18 14 28 18 14 28 18 14 28 19 15 29 20 16 30 19 17 30 19 17 28 19 16 27 19 16 27 18 14 28 19 15 29 20 16 30 20 16 30 20 16 30 17 13 27 18 14 28 19 15 29 19 15 29 18 14 28 17 13 27 18 15 26 18 14 28 18 14 28 18 15 26 17 14 25 17 13 27 17 14 25 18 14 28 19 15 29 19 15 29 18 14 28 17 13 27 17 13 27 17 13 27 18 14 28 19 16 27 19 15 29 19 16 27 18 14 28 19 15 29 18 15 26 19 15 29 19 17 28 19 15 29 19 15 29 18 14 28 18 14 28 18 14 28 17 13 27 18 14 28 17 13 27 15 12 23 16 13 24 18 15 26 18 15 26 18 15 26 17 14 25 18 15 26 17 14 25 17 13 27 16 12 26 16 13 24 16 13 24 16 13 24 17 13 27 19 15 29 19 15 29 19 16 27 18 14 28 18 14 28 18 14 28 18 15 26 17 14 25 17 14 25 17 13 27 17 13 27 19 15 29 19 15 29 19 15 29 19 15 29 20 16 30 20 16 30 20 16 30 19 15 29 19 15 29 21 15 29 18 14 28 18 14 28 17 13 27 17 13 27 18 14 28 18 14 28 19 15 29 19 15 29 19 15 29 18 14 28 18 14 28 19 15 29 20 16 30 
18 14 28 18 14 28 18 14 28 19 15 29 21 15 29 20 16 30 18 16 29 19 17 30 19 15 29 19 15 29 20 17 28 20 17 28 20 16 30 19 15 29 19 15 29 18 14 28 18 14 28 20 16 30 18 14 28 18 14 28 19 15 29 19 15 29 18 15 26 17 14 25 16 12 26 17 13 27 17 14 25 18 15 26 18 14 28 19 15 29 19 15 29 18 14 28 17 13 27 17 13 27 17 13 27 19 15 29 19 15 29 19 16 27 19 15 29 18 15 26 17 14 25 18 14 28 19 17 28 18 16 29 19 15 29 19 15 29 17 13 27 17 13 27 17 13 27 17 13 27 17 13 27 17 13 27 16 12 26 16 12 26 17 13 27 17 13 27 17 13 27 17 13 27 18 14 28 17 13 27 17 14 25 17 13 27 17 13 27 17 13 27 17 13 27 18 14 28 18 14 28 19 16 27 19 16 27 19 15 29 18 14 28 18 14 28 18 15 26 18 15 26 18 15 26 18 14 28 17 13 27 17 13 27 18 14 28 19 15 29 19 15 29 20 16 30 20 16 30 20 16 30 20 16 30 19 15 29 19 15 29 18 14 28 17 13 27 18 14 28 18 14 28 17 13 27 19 15 29 19 15 29 19 15 29 20 16 30 19 15 29 18 14 28 19 15 29 19 15 29 
18 14 28 19 15 29 18 14 28 18 16 29 17 13 27 19 15 29 17 15 28 18 16 29 19 15 29 19 16 27 20 16 30 20 16 30 20 16 30 21 17 31 21 17 31 19 15 29 19 15 29 20 16 30 19 15 29 18 14 28 17 13 27 17 14 25 18 15 26 18 14 28 19 16 27 18 14 28 18 14 28 19 16 27 20 16 30 20 16 30 19 15 29 20 16 30 18 14 28 18 14 28 19 15 29 19 15 29 19 16 27 18 14 28 19 16 27 17 13 27 18 14 28 18 15 26 18 16 29 18 16 27 18 14 28 17 13 27 17 13 27 17 13 27 17 13 27 18 14 28 18 14 28 18 14 28 16 12 26 16 12 26 16 12 26 17 13 27 17 13 27 18 14 28 19 15 29 19 15 29 19 15 29 18 14 28 16 12 26 18 14 28 17 14 25 16 13 24 18 15 26 18 15 26 17 14 25 18 14 28 19 15 29 18 14 28 18 15 26 19 16 27 19 16 27 19 15 29 19 15 29 20 16 30 20 16 30 19 15 29 20 16 30 20 16 30 20 16 30 21 17 31 22 18 32 19 15 29 20 16 30 18 14 28 19 15 29 18 14 28 17 13 27 18 14 28 18 14 28 16 14 27 16 14 27 16 14 27 15 13 26 18 14 28 17 13 27 18 14 28 
19 15 29 19 15 29 17 15 28 17 15 28 19 15 29 19 15 29 18 14 28 18 14 28 18 14 28 20 16 30 20 17 28 20 17 28 20 16 30 20 16 30 20 16 30 18 14 28 20 16 30 19 15 29 18 14 28 16 12 26 18 15 26 18 14 28 18 14 28 19 15 29 19 16 27 19 16 27 19 16 27 19 15 29 20 16 30 20 16 30 21 17 31 19 15 29 20 16 30 18 14 28 20 16 30 20 16 30 20 16 30 19 16 27 17 13 27 17 14 25 18 15 26 18 14 28 18 16 27 17 17 29 19 15 29 18 14 28 17 13 27 17 13 27 17 13 27 17 13 27 18 14 28 18 14 28 16 12 26 16 12 26 16 12 26 17 13 27 17 13 27 17 13 27 18 14 28 19 15 29 19 16 27 18 15 26 18 14 28 18 14 28 17 13 27 18 14 28 18 14 28 18 14 28 18 15 26 18 14 28 18 14 28 18 14 28 18 15 26 19 16 27 19 16 27 19 15 29 20 16 30 20 16 30 19 15 29 19 15 29 20 16 30 20 16 30 20 16 30 20 16 30 22 18 32 18 16 29 18 16 29 17 15 28 18 14 28 17 13 27 17 13 27 16 14 27 17 13 27 16 14 27 15 13 26 15 13 26 16 14 27 17 13 27 16 12 26 17 13 27 
