P3
100 50
255
89 59 57 89 59 57 91 57 56 90 56 55 87 56 54 86 56 54 85 55 53 86 55 53 85 54 52 85 54 52 83 53 51 84 54 52 85 54 52 83 52 50 84 53 51 84 53 51 82 52 50 83 53 51 82 52 50 80 50 48 79 49 47 78 48 46 78 48 46 80 50 48 78 48 46 77 47 45 78 48 46 78 48 46 76 48 47 76 48 47 78 48 46 77 47 45 77 46 44 75 47 44 76 45 43 72 42 40 73 43 41 72 42 40 72 42 40 71 41 39 71 41 39 71 41 39 72 42 40 70 40 38 70 42 39 70 40 38 69 39 39 69 39 39 67 39 38 67 39 38 65 37 36 66 36 36 67 37 37 67 37 37 65 37 36 67 37 37 67 37 37 67 37 37 67 37 37 66 38 37 66 38 37 66 36 36 65 37 36 66 36 36 65 37 36 66 36 36 65 37 36 66 36 38 65 36 38 66 38 37 66 38 37 65 39 40 65 39 40 65 39 40 68 42 43 68 42 43 71 47 47 71 47 47 71 47 47 72 46 47 71 47 47 73 47 48 72 48 48 70 46 46 71 47 47 71 47 47 70 46 46 70 46 46 69 45 45 69 45 45 70 46 46 70 46 46 70 46 46 69 45 45 69 45 45 69 45 45 67 43 43 67 43 43 65 41 41 66 42 42 
88 58 56 89 59 57 88 58 56 88 57 55 87 57 55 86 56 54 85 55 53 85 54 52 85 54 52 86 55 53 84 54 52 84 54 52 85 54 52 83 53 51 83 53 51 83 53 51 83 53 51 82 52 50 82 52 50 80 50 48 80 50 48 79 49 47 78 48 46 79 49 47 79 49 47 79 49 47 77 47 45 78 48 46 77 49 48 76 48 47 77 47 47 77 47 45 76 45 43 75 45 43 75 45 43 73 43 41 73 43 43 73 43 43 71 41 41 72 42 40 72 42 40 71 41 39 70 40 38 70 40 38 70 40 40 70 40 40 69 39 39 70 40 40 66 38 37 65 39 38 67 37 37 65 36 38 66 37 39 65 39 40 66 37 39 66 38 37 66 38 37 67 37 37 67 37 37 68 38 38 67 39 36 65 37 36 64 36 35 65 37 36 66 36 36 65 37 36 65 37 36 65 35 37 65 36 38 65 37 36 66 38 37 66 37 39 67 38 40 65 39 40 68 42 43 68 42 43 71 47 47 71 47 47 71 45 46 71 47 47 72 46 47 72 48 48 71 47 47 71 47 47 71 47 47 71 47 47 70 46 46 70 46 46 70 46 46 69 45 45 70 46 46 70 46 46 70 46 46 69 45 45 68 44 44 67 43 43 67 43 43 67 43 43 66 42 42 66 42 42 
88 58 56 87 57 55 89 58 56 87 57 55 87 57 55 86 56 54 86 55 53 86 55 53 86 55 53 84 54 52 84 54 52 84 54 52 85 54 52 83 53 51 83 53 51 82 52 50 83 53 51 81 53 50 81 51 49 81 51 49 80 50 48 80 50 48 79 49 47 78 48 46 78 48 46 78 48 46 76 46 44 76 46 44 77 47 45 75 47 44 76 48 45 75 47 46 74 46 45 75 45 45 75 45 45 73 43 43 72 42 42 72 42 42 73 43 43 72 42 42 72 42 42 71 41 39 71 41 39 70 40 38 71 40 38 71 40 38 68 40 39 69 41 40 67 37 37 68 38 38 66 38 37 65 37 36 66 38 37 66 38 37 67 37 37 66 38 37 66 38 37 63 37 36 66 38 37 66 38 37 68 40 39 65 37 36 63 35 34 65 37 36 64 36 35 65 37 36 65 37 36 65 36 38 65 36 38 65 37 36 64 36 35 63 37 38 63 37 38 63 37 38 64 38 39 64 40 40 68 44 44 67 43 43 70 44 45 70 46 46 71 45 46 70 46 46 71 47 47 71 47 47 71 47 47 70 46 46 69 45 45 69 45 45 69 45 45 69 45 45 70 46 46 69 45 45 69 45 45 68 44 44 67 43 43 67 43 43 67 43 43 67 43 43 67 43 43 66 42 42 
87 57 55 87 57 55 88 57 55 88 57 55 86 56 54 86 56 54 86 55 53 85 54 52 86 55 53 84 54 52 84 54 52 85 54 52 84 54 52 82 52 50 82 52 50 83 52 50 82 52 50 82 52 50 81 51 49 82 51 49 81 51 49 79 49 47 79 49 47 78 48 46 78 48 46 78 48 46 77 47 45 76 46 44 75 47 44 76 46 44 75 47 46 75 47 46 74 46 45 74 46 45 74 46 45 74 44 44 74 44 44 71 43 42 73 45 44 72 42 42 71 41 41 70 42 41 69 41 40 70 40 40 69 41 38 68 40 37 68 40 39 68 40 39 67 39 38 67 39 38 65 37 36 65 37 36 65 37 36 66 38 37 66 38 37 66 38 37 66 36 36 65 37 36 67 37 37 67 39 38 67 39 38 64 36 35 64 36 35 65 37 36 63 37 36 65 35 35 65 37 36 65 36 38 64 35 37 64 36 35 65 37 36 65 35 37 67 37 39 65 36 38 66 37 39 67 38 40 66 42 42 67 43 43 69 45 45 70 44 45 71 47 47 71 45 46 71 47 47 70 46 46 70 45 48 69 44 47 69 44 47 70 45 48 69 45 45 68 44 44 69 45 45 69 45 45 68 44 44 68 44 44 68 44 44 67 43 43 67 43 43 67 43 43 66 42 42 65 41 41 
86 58 55 87 57 55 88 57 55 87 57 55 88 58 56 86 56 54 85 54 52 86 55 53 86 55 53 85 54 52 84 54 52 83 53 51 84 53 51 82 52 50 82 52 50 82 52 50 82 52 50 82 52 50 82 52 50 82 52 50 80 50 48 79 49 47 78 48 46 79 49 47 79 49 47 79 49 47 76 46 46 76 46 44 74 46 43 75 45 43 74 46 45 74 44 44 74 46 45 73 45 44 74 46 45 73 45 44 72 44 43 73 45 44 73 45 44 71 43 42 72 44 43 71 43 42 68 40 39 69 41 40 70 40 40 69 39 39 68 40 39 68 40 39 68 38 38 68 38 38 67 37 37 67 37 39 66 37 39 67 38 40 67 38 40 64 35 37 66 37 39 64 35 37 66 36 38 66 37 39 68 38 40 63 37 38 65 37 36 66 38 37 65 37 36 62 36 35 64 36 35 64 35 37 63 34 36 63 34 36 63 34 36 63 34 36 65 36 38 65 36 38 66 37 39 66 37 39 64 40 40 65 39 40 66 42 42 68 42 43 69 45 45 70 46 46 72 46 47 70 46 46 69 44 47 68 43 46 68 43 46 69 44 47 69 45 45 69 45 45 69 45 45 68 44 44 69 45 45 68 44 44 68 44 44 67 43 43 67 43 43 66 42 42 66 42 42 66 42 42 
86 56 54 88 58 56 88 57 55 86 56 54 87 56 54 85 55 53 85 55 53 87 56 54 85 54 52 84 53 51 84 54 52 83 53 51 84 53 51 83 52 50 83 52 50 83 52 50 81 51 49 82 52 50 81 51 49 81 51 49 80 50 48 79 49 47 79 49 47 78 48 46 79 49 47 79 49 47 75 45 45 75 45 43 74 44 42 74 44 42 74 46 45 73 45 44 72 46 45 74 46 45 73 45 44 74 44 44 73 45 44 74 46 45 73 45 44 72 44 43 71 43 42 69 41 40 69 41 40 69 41 40 68 40 39 69 41 40 69 39 41 68 39 41 67 38 40 66 37 39 65 36 38 65 35 37 65 36 38 66 37 39 66 37 39 66 37 39 64 35 37 64 35 37 65 36 38 66 37 39 67 38 40 65 36 38 63 37 36 65 37 36 63 37 36 62 36 35 62 36 35 64 35 37 64 35 37 63 34 36 63 34 36 64 35 37 65 36 38 65 36 38 66 37 39 65 36 38 62 36 37 63 37 38 66 40 41 65 41 41 70 44 45 69 45 45 71 47 47 69 45 45 69 45 45 68 44 44 68 44 44 68 44 44 68 44 44 69 45 45 69 45 45 68 44 44 69 45 45 68 44 44 67 43 43 67 43 43 67 43 43 67 43 43 66 42 42 66 42 42 
86 56 54 85 57 54 89 55 54 87 56 54 86 56 54 85 55 53 85 55 53 84 56 53 84 54 52 84 54 52 84 54 52 82 53 49 82 53 49 81 51 49 83 53 53 82 52 50 82 52 50 81 51 49 82 52 50 82 52 52 81 51 49 80 50 48 78 48 46 78 48 46 78 48 46 78 48 46 77 47 45 75 45 43 74 44 42 74 46 43 75 47 46 74 46 45 75 47 46 72 44 43 73 45 44 73 45 44 74 46 45 73 45 44 73 45 44 71 43 42 71 43 42 69 41 40 68 40 39 68 40 39 66 40 39 69 41 40 68 40 39 68 39 41 67 38 40 68 39 41 65 36 38 65 36 38 65 36 38 68 39 41 67 38 40 64 35 37 63 34 36 64 35 37 63 34 36 66 37 39 67 38 40 63 37 36 63 37 36 64 36 35 64 36 35 62 33 35 61 35 36 63 34 36 64 35 37 63 34 36 64 35 37 63 34 36 64 35 37 65 36 38 65 36 38 64 35 37 61 35 36 62 36 37 64 38 39 64 40 40 67 43 43 69 45 45 69 45 45 69 45 45 69 45 45 68 44 44 68 44 44 68 44 44 68 44 44 69 45 45 66 45 44 65 44 43 67 42 45 65 43 45 65 43 45 65 43 45 66 41 44 66 41 44 63 41 43 63 41 43 
85 57 53 85 55 53 86 55 53 85 54 52 84 53 51 84 54 52 86 55 53 85 55 53 84 53 51 83 54 50 84 53 51 82 52 50 85 51 50 82 52 50 83 53 51 82 52 50 82 51 48 80 50 48 81 52 48 80 50 48 79 49 47 78 48 46 78 48 46 79 49 47 78 48 46 79 49 47 77 47 47 76 46 46 75 45 43 75 47 46 76 48 45 76 48 47 74 46 45 73 45 44 74 46 45 73 45 44 73 45 44 73 45 44 73 45 44 72 44 43 71 43 42 69 41 40 68 40 39 68 40 39 67 39 38 67 41 40 68 40 39 67 38 40 66 37 39 67 38 40 62 36 37 64 35 37 66 37 39 65 36 38 66 38 37 64 35 37 63 35 34 62 33 35 62 34 33 65 36 38 63 37 38 64 36 35 62 36 35 62 34 33 63 35 34 63 34 36 64 35 37 62 36 37 64 36 35 65 37 36 64 35 37 65 36 38 65 36 38 64 35 37 64 35 37 63 34 36 59 33 34 60 34 35 62 36 37 64 40 40 67 43 43 67 43 43 69 45 45 68 44 44 69 45 45 68 44 44 69 45 45 67 43 43 68 44 44 68 44 44 68 44 44 67 43 43 65 44 43 65 44 43 66 42 42 64 43 42 63 42 41 67 43 43 64 43 42 63 42 41 
83 58 54 84 54 52 84 54 52 84 54 52 85 54 52 85 55 53 86 55 53 85 55 53 85 54 52 83 53 51 84 53 51 82 52 50 82 53 49 82 52 50 83 52 49 83 53 51 81 51 49 81 51 49 82 51 49 81 51 49 79 49 47 79 49 47 78 48 46 78 48 46 79 49 47 78 48 46 77 47 45 76 46 44 76 46 46 76 48 45 76 48 47 76 48 45 75 47 46 72 47 43 71 45 44 73 45 44 73 45 44 73 45 44 72 44 43 72 44 43 70 42 41 69 41 40 68 40 39 68 40 39 66 40 39 69 41 40 66 40 39 67 38 40 66 37 39 64 38 39 65 36 38 65 36 38 65 37 36 65 37 36 66 38 37 64 35 37 63 35 34 63 34 36 63 35 34 64 36 35 66 36 36 62 36 35 61 35 34 61 35 34 64 36 35 63 35 34 64 35 37 63 34 36 64 36 35 64 36 35 65 36 38 64 35 37 64 35 37 64 35 37 63 34 36 62 33 35 58 32 33 60 34 35 63 37 38 63 39 39 66 42 42 67 43 43 69 45 45 69 45 45 68 44 44 68 44 44 68 44 44 69 45 45 68 44 44 68 44 44 68 44 44 67 43 43 65 45 44 67 43 43 67 43 43 66 45 44 63 42 41 65 41 41 65 41 41 64 43 42 
85 57 54 85 57 56 84 54 54 84 54 54 83 53 53 84 54 52 85 55 55 84 55 51 84 52 53 83 53 51 82 52 50 83 53 51 83 52 50 82 52 50 83 53 53 82 52 50 81 50 47 79 51 48 81 52 48 81 51 49 81 51 49 80 50 48 78 48 46 78 48 46 77 47 45 77 47 45 78 48 48 78 48 50 78 48 46 76 46 46 75 47 44 76 48 47 75 47 44 75 47 46 74 46 43 70 44 43 74 44 44 71 43 42 72 42 42 70 42 41 70 42 41 70 42 41 67 41 40 69 41 40 69 41 40 70 42 41 70 40 40 68 40 39 69 40 42 69 39 41 67 38 40 68 38 40 65 37 36 66 38 37 66 38 37 65 37 36 64 36 35 64 36 35 64 36 35 65 37 36 65 37 36 65 37 36 64 35 37 63 34 36 64 36 35 63 35 34 63 34 36 63 34 36 63 34 36 64 35 37 63 34 36 63 34 36 64 35 37 63 34 36 64 35 37 63 34 36 59 33 34 60 34 35 63 37 38 64 38 39 64 40 40 63 39 39 63 39 39 63 39 39 64 40 40 65 41 41 66 42 42 67 43 43 67 43 43 68 44 44 68 44 44 66 42 42 64 43 42 67 43 43 67 43 43 65 44 43 65 44 43 64 43 42 65 44 43 65 44 43 
86 56 54 86 56 54 82 54 51 84 54 52 83 55 52 84 56 55 83 55 52 84 54 54 83 55 52 83 53 53 82 54 51 82 54 53 83 53 51 82 52 52 82 52 50 82 52 50 81 51 49 78 49 45 81 51 49 81 51 49 80 50 48 80 50 48 78 48 46 77 47 45 77 47 45 77 47 45 77 47 45 78 48 46 78 48 48 75 47 44 75 47 46 75 45 43 76 46 46 75 47 44 74 46 45 73 43 41 72 44 43 70 42 41 70 42 41 69 41 40 69 41 40 69 41 40 69 41 40 69 41 40 68 42 41 69 41 40 68 40 39 68 40 39 68 40 39 67 39 38 68 38 40 67 38 40 65 37 36 67 39 38 65 37 36 65 37 36 64 36 35 64 36 35 65 37 36 67 39 38 67 37 37 66 36 36 65 36 38 64 35 37 64 36 35 64 34 34 63 33 35 63 34 36 63 34 36 63 34 36 62 33 35 63 34 36 63 34 36 63 34 36 64 35 37 63 34 36 59 33 34 61 35 36 62 36 37 62 36 37 62 36 37 61 37 37 62 38 38 62 38 38 63 39 39 65 41 41 65 41 41 67 43 43 67 43 43 67 43 43 67 43 43 65 41 41 65 41 41 68 44 44 68 44 44 67 43 43 67 43 43 64 43 42 66 45 44 64 43 42 
84 56 55 86 54 55 85 55 55 84 54 52 84 54 52 83 55 52 84 54 52 82 54 51 83 53 53 81 53 49 81 51 51 81 53 50 82 54 51 82 52 50 82 52 50 81 51 49 80 50 48 79 49 49 81 52 48 80 50 48 80 50 48 79 49 47 77 47 45 76 46 44 77 47 45 76 46 44 77 47 47 77 47 47 76 46 44 74 46 45 74 46 43 75 45 45 74 44 42 74 44 44 73 43 41 73 43 41 72 44 43 71 43 42 71 43 42 70 42 41 70 42 41 69 41 40 70 42 41 69 41 40 68 42 41 67 41 40 69 41 40 68 40 39 67 39 38 67 39 38 68 40 39 68 38 38 65 37 36 64 36 35 65 37 36 65 37 36 65 37 36 65 37 36 64 36 35 65 37 36 66 38 37 67 39 38 66 37 39 65 36 38 65 36 38 66 36 38 65 36 38 66 36 38 65 37 34 66 38 37 64 35 37 64 35 37 63 34 36 64 35 37 63 34 36 62 33 37 61 35 36 61 35 36 61 35 36 61 35 36 60 34 35 60 34 35 60 34 35 62 36 37 61 37 37 63 39 39 64 40 40 67 43 43 67 43 43 67 43 43 66 42 42 65 41 41 66 42 42 67 43 43 65 44 43 66 42 42 66 42 42 64 43 42 64 43 42 65 44 43 
85 57 56 84 56 55 85 55 55 83 55 52 85 55 53 83 55 52 83 53 51 82 54 51 82 54 51 81 53 50 82 52 52 81 53 50 84 54 52 81 51 51 82 53 49 81 51 49 81 51 49 80 50 48 80 50 48 80 50 48 81 51 49 80 50 48 78 48 46 77 47 45 75 45 43 75 45 43 78 48 46 78 48 46 77 47 47 75 47 44 74 46 45 76 45 43 74 44 42 73 45 42 74 44 42 74 44 42 72 42 42 71 43 42 72 42 42 70 42 41 69 41 40 69 41 40 67 41 40 67 41 40 68 42 41 67 41 40 67 41 40 69 41 40 68 40 39 68 40 39 67 39 38 67 39 38 66 38 37 66 38 37 65 37 36 64 36 35 65 37 36 65 37 36 65 37 36 63 35 34 65 37 36 68 38 38 66 38 37 65 36 38 66 36 38 65 35 37 66 36 38 66 38 37 66 38 35 65 37 36 65 36 38 65 36 38 63 34 36 63 35 34 62 33 35 62 33 35 62 36 37 61 35 36 61 35 36 60 34 35 59 33 34 59 33 34 59 33 34 61 35 36 60 36 36 63 39 39 66 42 42 67 43 43 66 42 42 66 42 42 67 43 43 66 42 42 66 42 42 67 43 43 67 43 43 66 42 42 66 42 42 66 42 42 65 44 43 66 45 44 
84 56 55 85 55 55 85 55 53 86 56 54 85 55 55 84 54 54 82 54 53 82 52 50 80 52 49 80 50 48 80 52 48 82 52 50 80 52 51 79 51 50 80 50 50 80 52 51 79 51 50 79 51 48 80 50 48 81 51 49 80 50 48 79 49 47 78 48 46 76 46 44 76 46 44 76 46 44 77 47 45 76 46 46 76 46 46 75 47 46 75 47 44 76 45 43 73 43 41 72 44 41 73 43 41 73 45 42 72 44 43 73 45 44 72 44 43 70 42 41 70 42 41 70 42 41 69 41 40 69 41 40 69 43 44 70 42 41 69 41 40 69 41 40 69 41 40 69 41 40 68 40 39 69 41 40 67 39 38 66 38 37 67 39 38 68 40 39 68 39 41 66 38 37 66 38 37 66 38 37 65 37 36 66 38 37 66 38 37 65 36 38 65 36 38 65 36 38 64 35 37 63 37 36 65 36 38 66 37 39 66 37 39 65 36 38 65 37 36 65 37 36 65 37 36 65 37 36 61 35 36 61 35 36 60 34 35 59 33 34 58 32 33 57 31 32 58 32 33 59 33 34 60 34 35 62 36 37 61 37 37 63 39 39 63 39 39 65 41 41 65 41 41 65 41 41 63 42 41 66 42 42 65 41 41 63 42 41 66 42 42 64 40 40 67 43 43 65 44 43 
84 56 55 85 57 56 86 57 53 85 55 53 84 54 52 84 54 52 82 52 52 82 52 50 81 51 49 80 50 48 80 50 50 81 51 51 81 51 49 80 50 48 80 52 49 79 51 48 79 51 48 81 51 49 80 50 48 81 51 49 80 50 48 79 49 47 77 47 45 78 47 45 76 46 44 75 47 44 76 46 46 76 46 46 77 47 47 75 47 46 75 47 44 73 45 44 74 44 44 74 44 42 74 44 42 73 45 42 73 45 44 72 44 43 73 43 43 71 43 42 71 43 42 71 43 42 70 42 41 67 41 40 68 42 41 68 42 41 68 42 41 70 42 41 69 41 40 69 41 40 68 40 39 68 40 39 67 39 38 67 39 38 67 39 38 67 39 38 68 40 39 67 39 38 67 39 38 68 40 39 66 37 39 66 38 37 65 37 36 65 36 38 64 35 37 64 35 37 64 35 37 64 35 37 65 37 36 65 36 38 65 36 38 64 35 37 64 36 35 64 36 35 64 35 37 65 36 38 63 34 36 61 35 36 59 33 34 59 33 34 59 33 34 59 33 34 59 33 34 57 33 33 58 34 34 60 36 36 59 35 35 62 38 38 62 38 38 64 40 40 63 39 39 65 41 41 65 41 41 65 41 41 65 41 41 63 42 41 66 42 42 65 41 41 65 44 43 66 45 44 
85 57 56 85 57 56 84 54 52 85 55 53 84 54 52 83 53 53 82 52 50 81 51 51 81 51 49 80 50 48 80 50 48 81 51 49 79 51 48 78 50 47 79 49 49 79 49 47 80 50 48 80 50 48 80 50 48 80 50 48 79 49 47 79 49 47 78 48 46 77 47 45 77 46 44 77 47 45 77 47 45 78 47 44 77 47 45 75 47 46 75 47 46 74 46 43 74 44 42 74 44 44 75 45 45 73 45 42 74 46 45 73 45 44 73 45 44 71 43 42 71 43 42 70 42 41 70 42 41 70 42 41 69 43 42 71 43 42 71 43 42 69 43 42 67 41 40 71 39 40 68 40 39 68 40 39 68 40 39 66 38 37 67 39 38 68 40 39 68 40 39 68 40 39 67 39 38 67 39 38 66 38 37 66 37 39 65 36 38 63 35 34 63 35 34 63 34 36 63 34 36 63 34 36 64 35 37 64 35 37 64 35 37 64 35 37 64 35 37 64 35 39 64 35 37 65 36 38 60 34 35 59 33 34 58 32 33 60 34 35 61 35 36 60 34 35 60 34 35 59 33 34 59 33 34 58 32 33 57 33 33 57 33 33 59 33 34 61 37 37 61 37 37 64 40 40 63 39 39 63 39 39 63 39 39 63 39 39 63 42 41 62 41 40 66 42 42 67 43 43 
85 57 56 86 58 57 84 54 52 84 54 52 84 54 52 81 51 51 82 52 50 81 51 51 81 51 49 81 51 49 81 51 49 80 50 48 79 51 48 79 51 48 79 49 49 80 50 48 79 49 47 81 51 49 80 50 48 81 51 49 79 49 47 80 49 47 78 48 46 78 48 46 75 47 44 76 46 44 74 48 47 77 47 45 76 46 44 75 47 46 75 47 46 74 46 43 74 44 42 74 44 44 74 44 44 73 45 42 73 45 44 73 45 44 72 44 43 71 43 42 72 44 43 70 42 41 70 42 41 70 42 41 70 42 41 71 43 42 70 42 41 70 42 41 69 41 40 69 41 40 68 40 39 67 39 38 67 39 38 67 39 38 67 39 38 68 40 39 67 39 38 67 39 38 67 39 38 68 40 39 68 40 39 65 37 36 65 36 38 64 35 37 65 36 38 63 34 36 64 35 37 63 34 36 64 35 37 64 35 37 64 36 35 65 37 36 64 35 37 65 36 38 64 35 37 64 36 35 59 33 34 59 33 34 58 32 33 60 34 35 61 35 36 60 34 35 60 34 35 59 33 34 58 32 33 55 31 31 58 32 33 58 32 33 60 34 35 62 36 37 62 36 37 63 39 39 62 38 38 62 38 38 63 39 39 63 39 39 64 40 40 65 41 41 67 43 43 67 43 43 
86 58 55 86 58 55 84 54 52 83 53 51 83 53 51 82 52 50 82 52 52 81 51 49 81 51 49 81 51 49 80 50 50 80 50 50 79 51 48 78 50 47 80 50 48 79 49 47 80 50 48 80 50 48 81 51 49 81 51 49 81 51 49 79 49 47 78 48 46 77 47 45 76 46 44 76 48 45 77 45 46 77 47 47 77 47 45 75 47 44 75 47 44 74 46 45 74 44 44 73 43 41 75 45 45 72 44 43 73 45 44 72 44 43 73 43 43 70 42 41 70 42 41 70 42 41 69 41 40 67 41 40 70 42 41 68 42 41 71 43 42 70 42 41 66 40 39 69 41 40 66 38 37 67 39 38 66 38 37 66 38 37 67 39 38 66 38 37 66 38 37 66 38 37 67 39 38 66 38 37 66 37 39 63 37 36 63 37 36 65 36 38 65 36 38 63 37 38 64 38 39 65 36 38 64 36 35 64 35 37 64 35 37 63 34 36 62 34 33 61 33 32 61 33 32 60 31 33 59 33 34 58 32 33 59 33 34 59 33 34 60 34 35 60 34 35 60 34 35 60 34 35 58 32 33 58 29 31 56 30 31 55 31 31 57 31 32 58 34 34 59 35 35 60 36 36 60 36 36 61 37 37 61 37 37 62 38 38 63 39 39 65 41 41 67 43 43 67 43 43 
86 58 55 86 58 55 83 53 51 83 53 51 83 53 51 82 52 50 80 50 50 81 51 49 79 49 47 81 51 49 80 50 50 79 49 49 80 50 48 79 49 47 78 50 47 78 50 47 78 50 47 79 49 47 80 50 48 82 52 50 79 49 47 79 49 47 77 49 46 77 47 45 75 47 44 76 48 45 76 46 44 75 47 44 75 45 43 74 46 43 73 45 42 74 46 45 73 43 43 73 43 41 74 44 44 71 43 42 72 44 43 71 43 42 72 42 42 70 42 41 69 41 40 70 42 41 69 41 40 67 41 40 67 41 40 67 41 40 68 42 41 71 43 42 66 40 39 67 41 40 67 39 38 65 39 38 66 38 37 66 38 37 66 38 37 65 37 36 66 38 37 66 38 37 66 38 37 66 38 37 66 38 37 63 37 38 64 38 39 65 37 36 67 38 40 62 36 37 62 36 37 64 35 37 65 36 38 64 35 37 64 35 37 63 34 36 62 33 35 61 32 34 61 32 34 60 31 33 60 34 35 59 33 34 61 32 34 59 33 34 59 33 34 58 32 33 59 33 34 59 33 34 59 33 34 56 32 32 57 31 32 57 33 33 57 33 33 58 34 34 59 33 34 58 34 34 60 36 36 60 36 36 60 36 36 61 37 37 62 38 38 63 39 39 65 41 41 66 42 42 
88 60 57 87 59 56 84 54 54 84 54 54 83 53 51 82 52 52 81 51 49 80 50 50 81 51 49 80 50 48 81 51 49 80 50 48 80 50 48 79 49 47 78 50 49 77 49 46 79 51 48 80 50 48 80 50 48 79 49 47 81 51 49 79 49 47 79 49 47 77 49 46 75 47 44 77 47 45 75 47 46 76 46 44 76 46 44 73 45 44 74 46 45 73 45 42 73 43 41 72 42 42 73 43 43 70 42 39 70 42 41 70 42 41 70 42 41 69 41 40 70 42 41 67 39 38 68 40 39 68 40 39 66 40 39 68 40 39 68 42 41 68 42 41 69 43 42 67 41 40 66 40 39 66 40 39 66 38 37 67 39 38 65 37 36 66 38 37 66 38 37 66 38 37 64 36 35 65 37 36 65 37 36 65 39 40 64 38 39 65 36 38 65 36 38 64 38 39 62 36 37 63 34 36 63 34 36 63 34 36 63 35 34 63 34 36 62 33 35 62 33 35 61 32 34 61 32 34 59 33 34 61 32 34 60 31 33 58 32 33 58 32 33 58 32 33 58 32 33 58 32 33 58 34 34 58 32 33 58 32 33 57 33 33 58 32 33 57 33 33 57 33 33 57 33 33 58 34 34 60 36 36 60 36 36 60 36 36 61 37 37 62 38 38 65 41 41 64 40 40 
89 61 58 88 60 57 86 56 56 83 53 53 83 53 51 81 51 51 80 50 48 80 50 50 79 49 47 80 50 48 80 50 48 79 49 47 79 51 48 78 50 47 78 48 48 78 48 46 80 50 48 78 48 46 79 49 47 79 49 47 78 50 47 78 48 46 77 47 45 76 48 45 75 47 44 75 47 44 73 45 44 74 44 44 73 43 41 72 44 43 73 45 44 72 44 41 73 43 41 73 43 43 72 42 42 71 43 40 71 43 42 70 42 41 71 43 42 70 42 41 69 41 40 69 41 40 69 41 40 69 41 40 65 41 39 68 40 39 67 41 40 68 42 41 66 40 39 66 40 39 67 41 40 66 40 39 66 40 39 65 39 38 65 39 38 65 39 38 64 38 37 64 38 37 64 38 37 65 39 38 66 37 39 64 38 37 64 38 37 66 37 39 65 36 38 62 36 37 61 35 36 62 33 35 60 34 35 60 34 33 61 35 34 61 35 34 62 36 37 62 36 37 61 35 34 61 35 34 60 34 35 62 33 35 61 32 34 58 32 33 58 32 33 57 31 32 58 32 33 58 32 33 58 32 33 59 33 34 59 33 34 59 33 34 58 34 34 56 32 32 57 31 32 57 31 32 57 33 33 59 35 35 60 34 35 60 34 35 59 35 35 59 35 35 61 37 37 61 37 37 
87 59 56 88 60 57 84 54 54 84 54 54 82 52 50 81 51 49 82 52 52 81 51 49 80 50 48 80 50 48 80 50 50 78 48 48 78 50 47 77 49 46 78 48 46 78 48 46 79 49 47 80 50 48 79 49 47 79 49 47 78 48 46 78 48 46 78 48 46 77 49 46 75 47 44 75 47 44 75 45 45 74 46 43 73 43 43 72 44 43 73 45 42 72 44 43 73 43 43 72 42 40 73 43 41 71 43 40 70 42 41 70 42 41 72 42 42 70 42 41 70 42 41 70 42 41 69 41 40 67 41 40 67 39 38 67 39 38 69 41 40 69 41 40 67 41 40 67 41 40 67 41 40 66 40 39 66 40 39 65 39 38 65 39 38 65 39 38 65 39 38 64 38 37 64 38 37 64 38 37 67 39 38 66 37 39 66 37 39 65 37 36 65 36 38 63 34 36 62 33 35 61 32 34 60 34 35 60 34 35 61 35 36 61 35 36 62 36 37 62 36 37 61 35 36 61 35 36 62 33 35 61 32 34 61 32 34 58 32 33 57 31 32 57 31 32 57 31 32 58 34 34 57 31 32 59 33 34 59 33 34 59 33 34 59 33 34 57 31 32 57 31 32 57 31 32 57 31 32 61 35 36 59 35 35 59 35 35 59 33 34 59 35 35 61 37 37 60 36 36 
86 61 57 89 61 58 86 56 56 85 57 54 84 54 52 81 53 50 80 52 49 81 51 49 79 49 47 78 50 47 79 51 48 79 49 47 77 49 46 76 48 45 76 48 45 77 49 46 76 48 45 77 49 46 78 48 46 78 48 46 78 48 46 73 48 44 77 47 47 76 46 44 75 47 44 76 46 44 74 44 44 73 45 42 72 44 41 72 44 43 72 44 41 72 42 40 73 43 43 72 44 41 71 43 40 71 43 40 71 43 42 72 44 43 71 43 42 72 44 43 72 44 43 71 43 42 70 42 41 70 42 41 69 41 40 66 40 39 65 39 38 64 39 35 64 38 37 64 38 37 65 39 38 65 39 38 65 39 38 66 40 39 65 39 40 65 39 40 65 39 40 64 38 39 64 38 37 66 40 39 65 39 38 62 36 35 62 36 37 63 37 38 62 36 35 61 35 34 60 34 35 59 33 34 58 32 33 59 33 34 60 34 35 61 35 36 60 34 33 61 35 36 60 34 35 60 34 33 59 33 34 60 34 35 60 34 35 60 34 35 60 34 35 59 33 34 59 33 34 59 33 34 58 32 33 58 32 33 58 32 33 58 32 31 58 32 31 56 30 31 56 30 31 57 31 32 57 31 32 60 34 35 59 33 34 58 34 34 57 33 33 56 32 32 57 33 33 58 34 34 
88 60 59 88 60 59 87 57 57 86 56 54 83 53 51 82 52 50 80 52 49 80 50 48 80 50 48 78 50 47 78 50 47 78 50 47 78 48 46 77 47 45 77 49 46 78 48 46 78 48 46 78 48 46 77 47 45 77 47 45 76 48 45 77 47 45 76 48 47 76 48 45 76 46 44 74 46 43 72 44 43 73 45 42 71 43 40 72 44 43 71 43 42 73 43 41 72 42 40 72 44 41 71 43 40 71 43 40 71 43 42 72 44 43 73 45 44 74 46 45 72 44 43 72 44 43 72 44 43 67 41 40 69 41 40 68 40 39 65 39 38 64 39 35 64 38 37 64 38 37 65 39 38 65 39 38 65 39 38 64 38 37 65 39 40 65 39 40 64 38 39 64 38 39 65 39 38 65 39 38 65 39 38 61 35 36 62 36 37 62 36 37 62 36 37 61 35 36 61 35 36 60 34 35 59 33 34 60 34 35 60 34 35 60 34 35 60 34 35 60 34 35 58 32 33 58 32 33 59 33 34 59 33 34 60 34 35 60 34 35 60 34 35 59 33 34 59 33 34 58 32 33 58 32 33 57 31 32 58 32 33 58 32 33 57 31 32 56 30 31 57 31 32 57 31 32 58 32 33 61 35 36 60 34 35 60 34 35 57 33 33 56 32 32 57 33 33 57 33 33 
92 62 60 91 61 61 86 56 56 84 56 53 82 52 52 80 50 50 79 49 49 79 51 50 79 51 50 78 50 49 78 50 49 78 50 49 78 50 49 77 49 48 77 49 48 76 48 47 76 48 45 76 48 45 76 48 45 76 48 45 77 49 48 77 47 45 75 47 44 75 47 44 75 45 45 74 46 43 73 45 44 73 45 42 72 44 43 72 44 41 73 45 42 72 44 41 74 44 42 73 45 42 73 45 42 72 44 41 72 44 41 70 42 41 70 42 41 71 43 42 71 43 42 70 42 41 68 42 41 66 42 40 69 41 40 69 41 40 67 39 38 64 38 37 66 40 39 66 40 41 66 40 41 69 40 42 67 41 40 64 38 37 63 37 38 63 37 38 62 36 37 63 37 38 63 37 36 64 38 37 64 38 39 61 35 36 61 35 36 61 35 38 62 36 37 61 35 36 62 36 37 61 35 38 61 35 36 61 35 38 61 35 38 62 36 37 61 35 36 60 34 35 59 33 34 58 32 33 59 33 34 58 32 33 59 33 34 59 33 34 58 32 33 58 32 33 59 33 34 57 31 32 59 33 32 59 33 34 59 33 34 58 32 33 58 32 33 58 32 33 57 31 32 56 30 29 57 31 32 59 33 34 58 32 33 57 31 32 57 31 32 56 30 31 56 32 32 56 32 32 
93 62 60 90 60 58 86 56 56 85 55 53 82 52 52 82 52 52 80 50 50 79 51 50 78 50 49 77 49 48 78 50 49 77 49 48 78 50 49 75 49 48 75 49 48 73 47 46 75 47 46 77 47 47 76 48 47 76 48 47 76 48 47 75 47 44 75 47 44 75 47 46 77 49 48 75 47 44 73 45 42 73 45 44 73 45 44 73 45 42 72 44 43 74 44 44 74 46 43 73 45 42 73 45 42 72 44 41 71 43 40 71 43 42 71 43 40 70 42 39 69 41 40 70 42 41 68 42 41 68 42 41 69 41 40 69 41 40 65 39 38 65 39 38 66 40 41 68 39 41 69 40 42 67 41 42 65 39 40 65 39 40 64 38 39 63 37 38 63 37 38 61 35 36 62 36 37 64 38 39 63 37 38 62 36 37 61 35 36 62 36 39 61 35 38 62 36 37 62 36 35 61 35 38 61 34 39 62 36 37 61 35 36 61 35 38 60 34 35 59 33 34 59 33 34 58 32 31 59 33 34 59 33 34 58 32 33 57 33 33 57 31 32 56 32 32 58 32 33 58 32 33 58 32 33 58 32 33 58 32 33 57 31 32 58 32 33 57 31 32 56 30 31 56 30 31 58 32 31 58 32 31 56 30 29 56 30 29 55 29 28 56 30 29 57 31 30 57 31 30 
92 61 59 90 60 58 87 57 57 86 56 56 82 52 52 81 51 51 80 50 50 78 50 49 77 49 48 77 49 48 77 49 48 77 49 48 77 49 48 76 48 47 76 48 47 75 47 46 75 47 46 75 47 46 75 47 46 76 46 46 75 47 46 74 46 43 75 47 44 75 47 46 73 45 44 73 45 42 73 45 42 73 45 44 73 45 44 73 45 42 73 45 44 73 45 44 74 44 42 73 45 42 73 45 42 71 43 40 71 43 40 70 42 41 70 42 39 70 42 39 70 42 41 70 42 41 70 42 41 70 42 41 70 42 41 71 43 42 68 40 39 67 39 38 66 40 41 65 39 40 64 38 39 67 38 40 65 39 40 65 39 40 64 38 39 63 37 38 63 37 38 63 37 38 63 37 38 64 38 39 63 37 38 63 37 38 63 37 38 62 36 37 62 36 39 61 35 36 61 35 36 61 32 34 59 33 36 59 33 34 59 33 34 59 33 36 59 33 34 59 33 34 59 33 34 59 33 34 59 33 34 57 33 33 58 32 33 56 32 32 57 31 32 56 32 32 57 31 32 57 31 32 58 32 33 58 32 31 58 32 31 56 30 29 56 30 29 56 30 29 56 30 29 55 29 30 56 30 31 56 30 31 56 30 31 56 30 31 55 29 30 54 28 29 56 30 31 56 30 31 
93 62 60 91 60 58 87 57 59 86 56 56 83 53 53 81 51 51 78 48 48 79 51 50 78 50 49 78 50 49 77 49 48 77 49 48 76 48 47 76 48 47 76 48 47 75 47 46 75 47 46 75 47 46 75 47 46 74 46 45 74 46 45 74 46 45 75 47 44 73 45 44 73 45 44 73 45 44 73 45 44 74 46 43 74 46 45 73 45 42 73 45 42 75 45 43 73 45 42 73 45 42 72 44 41 71 43 40 71 43 40 71 43 42 69 41 40 70 42 41 70 42 41 70 42 41 70 42 41 70 42 41 69 41 40 69 41 40 66 40 39 65 41 41 65 39 40 65 39 40 65 39 40 65 39 40 64 38 39 65 39 40 65 39 40 64 38 39 63 37 38 63 37 38 64 38 39 62 36 37 62 36 37 63 37 38 63 37 38 62 36 37 62 36 37 61 35 36 60 34 35 59 33 34 59 33 34 58 32 35 57 32 35 58 32 33 58 32 33 58 32 33 59 33 34 59 33 34 58 32 33 58 34 34 58 32 33 57 33 33 58 32 33 56 32 32 57 31 32 57 33 33 57 31 30 58 32 31 57 31 30 57 31 30 57 31 30 55 29 28 56 30 29 56 30 29 56 30 29 56 30 29 56 30 29 56 30 29 55 29 28 54 28 27 55 29 28 56 30 29 
92 61 59 93 61 62 88 58 56 86 56 54 82 52 52 82 52 52 79 51 50 79 49 49 79 49 49 76 48 47 76 48 47 75 47 46 75 47 46 76 48 47 76 48 47 75 47 46 75 47 46 76 48 47 74 46 45 73 45 44 74 46 45 73 45 44 72 44 43 73 45 44 72 44 41 73 45 44 73 45 44 73 45 44 74 46 43 73 45 44 73 45 44 73 45 42 73 45 42 72 44 41 73 45 42 70 42 39 70 42 41 70 42 41 70 42 41 69 41 40 70 42 41 70 42 41 70 42 41 69 41 40 70 40 40 68 40 39 66 40 39 66 40 41 65 39 40 67 38 40 64 38 39 64 38 39 64 38 39 65 39 40 65 39 40 65 39 40 65 39 40 65 39 40 64 38 39 63 37 38 63 37 38 64 38 39 64 38 39 62 36 37 62 36 39 60 34 35 59 33 34 58 32 33 57 30 35 57 31 32 56 32 32 56 30 33 57 31 34 57 31 30 58 32 33 57 33 33 58 32 33 58 32 33 58 32 33 58 32 33 56 30 31 58 32 33 57 31 32 58 32 33 57 31 32 57 31 32 58 32 31 56 30 29 56 30 29 55 29 28 53 27 28 55 29 30 55 29 28 55 29 28 55 29 28 54 28 27 54 28 27 54 28 27 56 30 29 56 30 29 
92 62 60 90 60 60 86 58 57 85 57 56 81 51 51 79 51 50 79 51 50 79 49 49 79 49 49 77 49 48 77 49 48 77 47 47 76 48 47 77 49 48 74 48 47 73 47 46 75 47 46 75 47 44 74 46 43 74 46 43 74 46 45 74 46 45 72 44 43 71 42 44 73 45 42 73 45 44 73 45 44 72 44 43 73 45 42 73 45 44 73 45 42 74 46 43 72 44 43 72 44 41 72 44 41 70 42 39 71 43 42 69 41 40 70 42 41 70 42 41 69 41 40 70 42 41 67 41 40 67 41 40 68 40 39 65 39 38 65 41 39 66 40 41 64 38 39 65 39 40 63 37 38 64 38 39 64 38 39 64 38 39 65 39 40 65 39 40 65 39 40 65 39 40 64 38 39 63 37 38 63 37 38 63 37 38 63 37 38 62 36 39 61 37 37 60 36 36 58 34 34 58 34 34 58 32 35 57 31 34 55 33 35 56 31 34 57 31 32 57 31 34 57 31 34 56 32 32 58 34 34 57 33 33 57 33 33 58 32 33 56 32 32 58 32 33 57 33 33 57 33 33 59 33 34 59 33 32 58 32 31 56 30 29 56 30 29 55 29 28 55 29 28 55 29 30 54 28 29 55 29 30 56 30 31 55 29 30 54 28 29 55 29 30 56 30 31 55 29 30 
93 61 62 92 61 59 86 56 56 85 55 55 82 52 52 81 51 51 81 51 51 80 50 50 79 51 50 76 48 47 77 49 48 75 47 46 75 47 46 75 47 46 75 47 46 74 46 45 75 47 46 75 47 46 75 47 46 74 46 43 74 46 45 73 45 44 70 42 39 72 44 41 73 45 42 72 44 41 72 44 43 71 43 42 71 43 40 72 44 41 71 43 40 72 44 41 72 44 43 72 44 43 71 43 42 70 42 41 69 41 38 70 42 41 69 41 40 70 42 41 69 41 40 69 41 40 68 40 39 67 39 38 65 39 38 66 38 37 66 37 39 67 38 40 65 39 40 66 37 39 63 37 38 63 37 38 63 37 38 64 38 39 65 39 40 65 39 40 65 39 40 65 39 40 64 38 39 63 37 38 65 36 38 59 35 35 61 37 37 61 35 36 60 34 35 60 34 35 60 34 37 58 34 34 59 33 34 58 32 33 58 32 33 57 31 32 57 31 32 57 31 32 57 31 32 57 31 32 59 35 35 57 33 33 57 33 33 57 33 33 57 33 33 57 33 33 57 33 33 57 33 33 58 32 31 57 33 33 58 32 31 56 30 29 57 31 30 54 30 28 54 30 30 54 28 27 55 29 28 55 29 28 54 28 27 55 29 28 56 30 29 56 30 29 55 29 28 55 29 28 
93 61 62 92 60 61 86 56 56 85 55 55 82 52 52 80 50 50 79 49 49 80 50 50 80 52 51 77 49 48 77 49 48 74 46 45 77 47 47 75 47 46 75 47 46 72 46 45 74 46 45 76 48 47 76 48 47 75 47 44 74 46 43 73 45 42 73 45 44 72 44 43 72 44 43 72 44 43 71 43 40 72 44 41 72 44 41 69 44 40 70 42 39 72 42 40 73 43 41 72 44 41 71 43 40 70 42 39 70 42 41 70 42 41 70 42 41 69 41 40 69 41 40 67 41 40 68 40 39 65 39 40 65 39 38 64 38 37 67 39 38 65 39 38 67 39 38 64 38 39 66 37 39 66 37 41 64 38 39 64 38 39 63 37 38 64 38 39 64 38 39 64 38 39 63 37 38 63 37 38 64 38 39 59 35 35 60 36 36 61 35 38 60 34 35 61 35 36 60 33 38 60 34 35 58 34 34 58 34 34 57 33 33 56 32 32 56 32 32 56 32 32 56 32 32 56 32 32 58 34 34 57 33 33 58 34 34 57 33 33 56 32 32 58 34 34 58 34 34 58 34 34 57 33 31 57 33 33 57 31 30 56 30 29 56 30 29 55 31 29 54 30 30 54 28 27 55 29 28 55 29 28 54 28 27 55 29 28 55 29 28 55 29 28 55 29 28 55 29 28 
93 61 62 92 62 60 85 57 56 85 57 56 82 52 52 80 50 50 81 51 51 80 50 50 78 50 49 77 49 48 75 47 46 75 47 46 75 47 46 75 47 46 73 47 46 74 46 45 74 46 45 77 47 47 76 48 47 74 46 43 74 46 43 73 45 42 72 44 43 72 44 43 72 44 43 71 43 42 72 44 41 71 43 40 71 43 42 70 42 41 70 42 41 70 42 41 71 43 42 71 43 42 70 42 41 69 41 38 69 41 40 70 42 41 70 42 41 70 42 41 67 41 40 67 41 40 66 40 39 63 39 37 64 38 39 63 37 38 64 38 39 65 39 40 67 38 42 65 39 42 66 37 39 66 37 39 62 36 37 64 38 39 64 38 39 64 38 39 63 37 38 64 38 39 64 38 39 62 36 37 64 38 39 60 36 36 59 35 35 59 34 37 60 36 36 59 35 35 60 36 36 59 35 35 59 35 35 59 35 35 58 34 34 58 34 34 57 33 33 57 33 33 57 33 33 56 32 32 57 33 33 57 33 33 58 34 34 57 33 33 56 32 32 57 33 33 58 34 34 57 33 33 58 32 31 56 32 32 56 32 30 56 31 27 56 32 28 54 30 28 54 30 30 54 28 27 54 28 27 55 29 28 55 29 28 56 30 29 56 30 29 56 30 29 55 29 28 55 29 28 
94 62 63 92 61 59 86 56 56 85 55 55 81 51 51 81 51 51 80 50 50 79 49 49 76 48 47 77 49 48 75 47 46 74 46 45 75 47 46 73 45 44 74 46 45 72 44 43 73 45 44 74 46 45 74 46 45 73 45 42 72 44 41 71 43 40 72 44 43 71 43 42 72 44 43 72 44 43 71 43 40 72 44 41 72 42 40 71 43 40 70 42 39 70 42 39 73 45 42 72 44 43 71 43 42 71 43 42 71 43 42 69 43 42 71 43 42 68 42 41 67 41 40 67 41 42 65 39 40 63 39 39 64 38 39 64 38 39 65 39 40 67 38 40 64 38 39 64 38 39 63 39 39 66 37 39 64 38 39 63 37 38 61 35 36 63 37 38 63 37 38 62 36 37 62 36 37 63 37 38 63 39 39 60 36 36 60 36 36 59 35 35 58 33 36 59 35 35 59 35 35 59 34 37 60 36 36 60 36 36 60 36 36 59 35 35 59 35 35 58 34 34 59 35 35 58 34 34 56 32 32 58 34 34 56 32 32 56 32 32 56 32 32 56 32 32 56 32 32 56 32 32 57 33 33 55 31 29 55 31 29 55 31 29 55 31 29 54 30 28 55 31 29 55 31 31 57 31 30 56 30 29 56 30 29 56 30 29 56 30 29 56 30 29 54 28 27 54 28 27 
93 61 62 93 62 60 85 57 56 84 54 54 81 53 52 79 51 50 78 50 49 77 49 48 78 50 49 76 48 47 75 47 46 74 46 45 74 46 45 74 46 45 74 46 45 73 45 44 74 46 45 74 46 45 74 46 45 72 44 41 72 44 43 71 43 42 72 44 41 72 44 41 71 43 40 71 43 40 71 43 42 71 43 42 71 43 40 71 43 40 71 43 40 72 44 43 72 44 43 72 44 43 73 45 44 69 43 42 71 43 42 68 42 41 71 43 42 69 43 42 68 42 41 67 41 40 66 40 39 65 39 40 65 39 40 64 38 39 64 38 37 67 39 38 67 39 38 66 40 39 65 39 38 64 38 37 64 38 39 63 37 38 64 38 39 62 36 37 62 36 37 63 37 38 62 36 37 63 37 38 62 36 37 60 36 36 60 36 36 58 33 36 60 36 36 58 34 34 59 34 37 59 35 35 59 35 35 59 35 35 59 35 35 60 36 36 59 35 35 59 35 35 58 34 34 59 35 35 56 32 32 56 32 32 56 32 32 56 32 32 55 31 31 56 32 32 55 31 31 56 32 32 56 32 32 56 32 30 55 31 29 55 31 29 53 32 29 55 31 29 55 31 29 56 30 31 57 31 30 55 29 28 55 29 28 55 29 28 55 29 28 55 29 28 55 29 28 55 29 28 
93 61 62 93 61 62 87 57 57 85 55 55 80 52 51 79 51 50 77 49 48 77 49 48 76 48 47 75 47 46 74 46 45 74 46 45 75 47 46 73 45 44 72 46 45 74 46 45 73 45 44 74 44 44 72 44 43 72 44 41 71 43 42 71 43 42 70 42 39 72 44 41 72 44 41 72 44 41 73 45 44 71 43 42 70 42 41 72 44 43 72 44 43 69 43 42 70 44 43 71 43 42 71 43 42 68 42 41 71 43 42 69 43 42 68 42 41 68 42 43 68 42 43 67 41 42 67 41 42 68 39 41 65 41 41 65 39 40 67 38 40 65 39 40 65 39 40 65 39 40 65 39 38 64 38 37 63 37 38 62 36 37 62 36 37 62 36 37 62 36 37 62 36 37 62 36 37 61 35 36 62 36 37 61 37 37 61 37 37 61 36 39 60 36 36 60 36 36 59 35 35 60 36 36 61 37 37 60 36 36 61 37 37 60 36 36 60 36 36 59 35 35 58 34 34 58 34 34 55 31 31 55 31 31 56 32 32 56 32 32 55 31 31 55 31 31 55 31 31 56 32 32 55 31 31 54 33 30 55 31 29 54 30 28 56 32 30 55 31 29 55 31 29 57 31 32 57 31 30 56 30 29 57 31 30 55 29 28 56 30 29 56 30 29 54 28 27 55 29 28 
92 62 62 93 61 62 87 57 57 85 55 55 79 51 50 79 51 50 76 48 47 75 47 46 74 46 45 75 47 46 74 46 45 74 46 45 75 45 45 74 46 45 74 46 45 72 46 45 73 45 44 73 45 44 73 45 44 72 44 41 71 43 42 70 42 41 71 43 40 71 43 40 71 43 40 72 44 41 72 44 43 72 44 43 73 43 41 72 44 41 71 43 40 69 43 42 70 44 43 69 43 42 69 43 42 69 43 42 71 43 42 68 42 41 71 43 42 68 42 41 68 42 41 67 41 42 68 42 43 66 40 41 65 41 41 65 39 40 65 39 40 65 39 40 65 39 40 65 39 40 64 38 39 63 37 38 61 35 36 63 37 38 62 36 37 62 36 37 62 36 37 62 36 37 62 36 37 61 35 36 61 35 36 61 37 35 61 37 37 60 36 36 61 36 40 60 36 36 60 34 35 61 35 38 60 36 36 60 36 36 60 36 36 60 36 36 60 36 36 59 35 35 58 34 34 57 33 33 55 31 31 57 33 33 55 31 31 56 32 32 56 32 32 54 30 30 55 31 31 56 32 32 54 30 30 55 31 29 54 30 30 52 31 28 53 32 29 55 31 31 56 30 29 58 32 33 57 31 30 55 29 28 57 31 30 56 30 29 56 30 29 55 29 28 55 29 28 54 28 27 
90 60 60 91 61 59 87 57 57 85 57 56 79 51 50 77 49 48 75 47 46 75 47 46 74 46 45 74 46 45 72 44 43 74 46 45 73 45 44 73 45 44 75 47 46 74 46 45 74 46 45 74 46 45 73 45 44 72 44 41 70 42 39 72 44 41 70 42 41 70 42 41 71 43 42 71 43 42 71 43 40 72 44 41 73 43 43 72 44 43 71 43 42 71 43 42 69 43 42 69 43 42 68 42 41 67 43 41 71 43 42 67 41 40 69 41 40 66 40 41 64 40 40 66 40 41 65 41 41 65 41 41 66 42 42 66 40 41 67 41 42 66 40 41 65 39 38 64 38 37 64 38 37 64 38 39 62 36 37 62 36 37 61 35 36 62 36 37 61 35 36 62 36 37 61 35 36 60 34 35 60 34 35 61 37 37 61 37 37 60 35 38 59 38 37 58 37 36 59 38 37 60 36 36 61 37 37 62 38 38 61 37 37 61 37 37 60 36 36 58 34 34 57 33 33 55 31 31 57 33 33 56 32 32 57 33 33 56 32 32 57 33 33 55 31 31 56 32 32 56 32 32 56 32 32 54 33 30 56 32 32 56 32 30 55 31 29 54 33 32 56 32 30 56 30 31 56 30 29 55 29 28 57 31 30 57 31 30 59 33 32 57 31 30 56 30 29 55 29 28 
91 63 60 92 60 61 87 57 57 86 56 54 79 51 50 77 49 48 75 47 46 74 46 45 74 46 45 72 44 43 71 43 42 72 44 43 73 45 44 74 46 45 74 46 45 74 46 45 74 44 44 74 44 44 74 46 45 72 44 43 71 43 42 69 41 40 70 42 41 70 42 41 71 41 41 70 42 41 71 43 42 71 43 42 71 43 42 71 43 42 71 43 42 72 42 42 68 42 41 68 42 41 68 42 41 68 42 41 67 41 40 67 41 40 67 41 40 67 41 40 66 40 39 66 40 39 65 39 38 67 41 40 67 41 42 69 39 41 64 40 40 66 40 41 64 38 39 66 40 41 62 36 37 65 36 38 61 35 34 62 36 35 62 38 38 62 36 37 61 37 37 61 37 37 60 36 36 59 35 35 60 36 36 61 37 37 62 37 40 59 35 35 60 36 36 61 35 36 60 36 36 58 37 36 61 37 37 61 37 37 61 37 37 60 36 36 57 36 35 58 34 34 55 34 33 55 34 33 57 33 33 57 33 33 57 33 33 57 33 33 57 33 33 57 33 33 57 33 33 57 33 33 57 33 33 56 32 30 57 33 31 56 32 32 56 32 30 55 31 29 55 31 29 57 33 31 56 30 31 56 32 32 57 31 32 56 32 32 57 33 33 57 31 32 55 31 31 56 30 31 
89 64 60 91 63 62 84 56 55 82 54 53 78 50 49 76 48 47 73 45 44 75 47 46 73 45 44 72 44 43 72 44 43 72 44 43 72 44 43 71 45 44 73 45 44 73 45 44 73 45 44 73 45 44 73 45 44 71 43 42 73 45 44 70 42 41 71 41 41 69 41 40 70 42 41 71 43 42 71 43 42 71 43 42 71 43 42 70 42 41 70 42 41 70 42 41 69 41 40 68 42 41 67 41 40 69 41 40 70 42 41 66 40 39 65 39 38 65 39 38 64 38 37 64 38 37 65 39 38 67 39 38 66 40 41 67 39 38 66 40 39 64 40 38 64 38 37 65 39 38 61 35 34 62 36 37 61 35 34 61 37 35 64 38 39 62 38 38 62 38 38 61 37 37 61 37 37 60 36 36 60 36 36 62 37 40 62 37 40 59 34 37 60 35 38 59 34 37 57 35 37 58 36 38 58 36 38 59 37 39 58 36 38 56 34 36 55 33 35 55 33 35 55 33 35 55 33 35 58 34 34 58 34 34 59 35 35 58 34 34 58 34 34 59 35 35 58 34 34 59 35 35 60 36 36 58 34 34 58 33 36 56 32 32 56 31 34 56 32 32 56 32 32 57 33 33 57 33 33 59 35 35 60 34 35 59 35 35 57 33 33 56 32 32 55 31 31 57 31 32 
91 63 60 89 63 62 84 56 55 84 54 56 78 50 49 76 48 47 74 46 45 74 46 45 74 46 45 73 45 44 73 45 44 72 44 43 71 43 42 71 45 44 73 45 44 73 45 44 73 45 44 72 44 43 71 43 42 72 44 43 70 42 41 70 42 41 70 42 41 70 40 40 70 42 41 69 41 40 71 43 42 71 43 42 72 44 43 71 43 42 70 42 41 70 42 41 69 41 40 68 42 41 68 42 41 70 42 41 70 42 41 66 40 39 65 39 38 65 39 38 65 39 38 65 39 38 65 39 38 67 39 38 66 40 41 66 41 37 66 40 39 67 41 40 64 38 37 64 40 38 62 37 33 62 36 37 62 38 36 61 37 35 63 39 39 62 38 38 62 38 38 62 38 38 61 37 37 61 37 37 60 36 36 60 38 40 62 37 40 59 34 37 59 34 37 55 35 36 56 34 36 58 36 38 58 36 38 59 37 39 58 36 38 56 34 36 55 33 35 55 33 35 56 34 36 56 34 36 59 35 35 59 35 35 59 35 35 59 35 35 59 35 35 59 35 35 59 35 35 59 35 35 59 35 35 57 36 35 56 34 36 55 33 35 57 32 35 56 32 32 57 32 35 57 32 35 58 34 34 60 34 35 59 35 35 59 35 35 57 33 33 56 32 32 56 32 32 56 32 32 
91 63 60 89 61 58 85 55 57 82 53 55 77 49 48 77 49 48 75 47 46 74 46 45 74 46 45 73 45 44 72 44 43 73 45 44 72 44 43 70 44 43 72 44 43 71 45 44 72 44 43 72 44 43 71 43 42 70 42 41 70 42 41 69 41 40 69 41 40 70 42 41 71 43 42 70 42 41 70 42 41 70 42 41 71 43 42 70 42 41 70 42 41 69 41 40 70 42 41 67 41 40 68 42 41 69 41 40 67 41 42 66 40 41 66 40 41 65 39 40 65 39 40 64 38 39 65 39 40 66 40 41 66 40 41 66 40 39 66 40 39 66 40 39 65 39 38 64 38 37 62 36 35 62 36 37 62 36 35 64 38 37 63 39 39 62 36 37 63 39 39 62 38 38 62 38 38 60 36 36 60 35 38 60 36 36 56 34 36 55 33 35 56 35 34 54 32 34 56 34 36 57 36 35 58 36 38 58 36 38 57 35 37 56 34 36 56 34 36 56 34 36 57 35 37 56 34 36 59 35 35 59 35 35 59 35 35 59 35 35 58 34 34 59 35 35 58 34 34 59 35 35 56 35 34 57 36 35 57 36 35 54 34 35 55 34 33 55 34 33 58 34 34 59 35 35 57 36 35 59 35 35 59 35 35 59 35 35 58 34 34 58 34 34 57 33 33 57 33 33 
91 63 60 90 60 58 83 55 54 81 52 54 77 49 48 75 47 46 73 45 44 73 45 44 73 45 44 73 45 44 72 44 43 72 44 43 70 44 43 70 44 43 72 44 43 69 43 42 71 43 42 71 43 42 71 43 42 70 42 41 69 41 40 69 41 40 69 41 40 67 41 40 70 42 41 69 41 40 70 42 41 70 42 41 71 43 42 70 42 41 70 42 41 71 41 41 67 41 40 69 43 42 67 41 40 69 41 40 67 41 40 67 41 40 67 41 40 66 40 39 66 40 39 65 39 38 65 39 38 66 40 39 66 40 39 66 40 39 68 40 39 66 40 39 64 38 37 64 38 37 63 37 36 63 37 36 64 38 37 63 37 36 64 38 39 65 39 40 64 38 39 62 38 38 61 37 37 61 37 37 60 36 36 59 34 37 56 34 36 55 33 35 53 33 34 57 32 35 58 33 36 57 35 37 58 36 38 58 36 38 57 35 37 56 34 36 56 34 36 56 34 36 57 35 37 57 35 37 59 34 37 59 34 37 59 34 37 59 34 37 59 34 37 59 34 37 59 34 37 59 34 37 56 35 34 57 36 35 57 35 37 57 36 35 56 35 34 55 34 33 57 33 33 60 36 36 59 35 35 59 35 35 58 34 34 58 34 34 57 33 33 58 34 34 57 33 33 55 34 33 
90 62 59 90 62 59 81 53 52 80 51 53 76 48 47 75 47 46 74 46 45 73 45 44 73 45 44 72 44 43 73 45 44 71 43 42 71 43 42 68 42 41 69 43 42 67 43 41 70 42 41 70 42 41 70 42 41 69 41 40 68 39 41 67 38 40 68 39 41 68 39 41 71 41 43 67 41 42 71 42 44 71 42 44 72 44 43 70 42 41 70 42 41 70 40 40 67 41 40 67 41 40 67 41 40 67 41 40 67 41 40 67 41 40 66 40 39 66 40 39 66 40 39 65 39 38 65 39 38 65 39 38 67 39 38 69 41 40 67 39 38 66 38 37 66 38 37 66 38 37 64 38 37 64 38 37 63 37 36 64 38 39 64 38 39 63 37 38 64 38 39 64 38 39 63 37 38 63 37 38 61 37 37 57 32 35 56 34 36 55 33 35 56 31 34 57 32 35 58 33 36 57 35 37 58 36 38 58 36 38 57 35 37 56 34 36 56 34 36 56 34 36 58 36 38 58 36 38 59 35 35 60 36 36 59 35 35 60 36 36 59 35 35 59 35 35 59 35 35 59 35 35 57 35 37 57 36 35 57 36 35 57 36 35 58 37 36 56 35 34 58 34 34 59 35 33 59 35 35 58 34 34 56 35 34 57 33 33 57 33 33 57 33 33 57 33 33 55 34 33 
92 61 59 90 60 58 81 53 52 79 50 52 76 47 49 75 46 48 73 44 46 73 44 46 74 45 47 72 43 45 72 43 45 71 42 44 69 43 42 69 43 42 71 43 42 68 42 41 68 42 41 70 42 41 70 42 41 71 43 42 69 41 40 68 40 39 69 41 40 66 40 39 67 41 40 70 42 41 70 42 41 70 42 41 70 41 43 70 41 43 70 41 43 70 41 43 68 42 43 67 41 42 67 41 42 66 40 41 66 40 41 67 41 42 66 40 41 66 40 41 66 40 41 66 40 41 67 41 42 67 41 42 65 39 38 65 39 38 67 39 38 66 38 37 64 38 37 66 38 37 64 38 37 64 38 37 64 38 39 65 36 38 64 38 39 65 39 40 63 37 38 65 39 40 62 36 37 62 36 37 62 36 37 59 35 35 59 34 37 60 34 37 57 33 33 58 33 36 59 34 37 60 35 38 59 34 37 60 35 38 57 35 37 58 33 36 56 34 36 58 33 36 58 36 38 58 36 38 60 36 36 60 36 36 59 35 35 60 36 36 59 35 35 59 35 35 58 34 34 59 35 35 57 37 38 57 36 35 58 37 36 57 35 37 59 38 37 57 36 33 59 35 35 60 36 36 59 35 35 56 35 34 58 34 34 57 33 33 57 33 33 57 33 33 55 34 33 57 33 33 
90 60 58 89 59 57 81 52 54 81 52 54 74 45 47 73 44 46 73 44 46 73 44 46 73 44 46 72 43 45 71 42 44 71 42 44 69 43 44 68 42 43 68 42 43 68 42 43 68 42 43 70 41 43 69 40 42 70 41 43 70 42 41 68 40 39 67 41 40 68 40 39 67 41 40 68 40 39 69 41 40 69 41 40 67 41 42 69 40 42 70 41 43 67 41 42 67 41 42 67 41 42 66 40 41 66 40 41 66 40 41 66 40 41 66 40 41 67 41 42 65 39 40 66 40 41 66 40 41 64 38 39 65 39 40 64 40 40 66 37 39 67 39 38 67 39 38 66 37 39 68 38 40 67 38 40 66 37 39 65 39 40 64 38 39 65 39 40 64 38 39 64 38 39 63 37 38 63 37 38 61 35 36 61 35 38 60 34 37 59 34 37 59 34 37 59 34 37 59 34 37 60 35 38 58 36 38 58 36 38 57 35 37 55 33 35 56 34 36 56 34 36 59 37 39 58 36 38 60 36 36 60 36 36 59 35 35 60 36 36 59 35 35 59 35 35 59 35 35 59 35 35 57 36 35 58 37 36 58 36 38 58 36 38 59 34 37 59 35 35 60 36 36 59 34 37 59 35 35 59 35 35 57 36 35 60 36 36 57 33 33 56 35 34 57 33 33 57 33 33 
93 59 58 90 59 57 80 51 55 78 49 51 74 45 47 74 45 47 72 43 45 71 43 42 71 45 46 68 42 41 68 42 43 68 42 43 66 42 42 67 43 41 67 41 42 67 41 42 67 42 38 68 42 41 68 42 43 69 41 40 68 42 41 67 41 40 67 41 40 66 40 39 66 40 39 67 41 40 67 41 40 67 41 40 66 40 39 67 41 42 66 40 39 67 41 42 67 41 42 67 41 42 66 40 39 65 39 38 66 40 41 66 40 41 66 40 41 66 40 41 66 40 41 66 40 41 65 39 40 64 38 39 65 39 40 64 38 39 66 37 39 66 37 39 67 38 40 67 38 40 66 37 39 67 38 40 64 38 39 65 39 42 64 38 39 64 38 39 63 37 38 63 37 38 63 37 38 61 37 37 63 37 40 61 36 39 61 37 37 61 35 36 59 35 35 60 36 36 58 37 36 58 37 36 58 37 36 57 36 35 59 35 35 56 35 34 57 36 35 57 36 35 58 37 36 56 36 35 58 37 36 58 37 36 57 36 35 57 36 35 57 35 37 57 36 35 57 36 35 57 36 35 59 35 35 59 35 35 58 37 36 58 37 36 57 36 35 58 37 36 58 37 36 59 38 37 61 37 37 61 37 37 61 37 37 60 36 36 60 36 36 60 36 36 58 34 34 58 34 34 
91 60 58 90 59 57 80 51 55 78 49 51 73 44 46 72 43 45 72 43 45 71 42 44 70 44 45 68 42 43 68 42 43 67 41 42 67 41 42 66 42 40 66 40 41 67 41 42 68 43 39 69 43 42 71 42 44 67 41 40 67 41 40 67 41 40 67 41 40 67 41 40 66 40 39 67 41 42 67 41 40 67 41 40 67 41 40 67 41 40 67 41 40 67 41 42 67 41 42 67 41 42 66 40 41 66 40 39 67 41 42 66 40 41 66 40 41 66 40 41 65 39 40 64 38 39 65 39 40 64 38 39 65 39 40 64 38 39 67 38 40 67 38 40 67 38 40 67 38 40 66 37 39 66 37 39 64 38 39 64 38 39 63 37 38 64 38 39 63 37 38 64 38 39 62 36 37 62 36 37 61 37 37 60 36 36 61 37 37 63 34 36 60 36 36 61 37 37 59 38 37 59 38 37 60 36 36 57 36 35 59 35 35 56 35 34 56 35 34 56 35 34 57 36 35 57 36 35 58 37 36 58 37 36 57 36 35 57 36 35 57 36 35 56 35 34 57 36 35 57 35 37 59 35 35 60 36 34 58 37 36 58 37 36 58 37 36 58 37 36 58 36 38 59 37 39 61 37 37 62 38 38 61 37 37 62 38 38 60 36 36 60 36 36 58 34 34 58 34 34 
93 59 58 90 59 57 79 50 52 75 49 50 72 43 45 71 42 44 70 41 43 68 42 43 68 42 43 67 41 42 66 40 41 66 40 41 67 41 42 68 42 43 66 42 42 66 42 42 68 42 41 67 43 41 68 42 43 68 42 41 68 42 41 67 41 40 67 41 40 67 41 40 66 40 39 67 41 42 66 40 39 66 40 39 66 40 39 66 40 39 67 41 40 67 41 42 65 39 40 66 40 41 65 39 40 65 39 40 65 39 40 64 38 39 65 39 40 66 40 41 65 39 40 65 39 40 65 39 40 65 39 40 65 39 40 64 38 39 64 38 39 64 38 39 64 38 39 64 38 39 63 37 38 63 37 38 64 38 39 64 38 39 63 37 38 63 37 38 63 37 38 61 36 39 61 36 39 61 36 39 61 36 39 60 35 38 59 35 35 60 34 35 60 36 36 60 36 36 58 34 34 59 35 33 59 34 37 58 33 36 58 33 36 55 33 35 57 35 37 58 33 36 58 36 38 60 35 38 58 37 36 58 37 36 57 36 35 57 36 35 57 36 35 56 35 34 57 36 35 57 36 35 59 35 35 60 35 38 58 37 36 58 37 36 58 37 36 58 37 36 58 37 36 59 37 39 59 38 37 61 40 39 59 38 37 61 40 39 59 38 37 58 37 36 57 36 35 57 36 35 
90 59 57 88 58 58 78 49 51 76 50 51 73 44 46 71 42 44 68 42 43 69 43 44 68 42 43 67 41 42 67 41 42 65 39 40 68 39 41 67 41 42 67 41 42 67 41 42 67 41 42 68 42 43 70 41 43 68 42 41 67 41 40 67 41 40 66 40 39 66 40 39 67 41 40 67 41 40 66 40 39 66 40 39 67 41 40 67 41 40 66 40 39 66 40 41 66 40 41 65 41 41 65 41 41 64 40 40 65 39 40 65 39 40 64 38 39 64 38 39 64 38 39 64 38 39 65 39 40 64 38 39 64 38 39 64 38 39 66 40 41 64 38 39 64 38 39 63 37 38 65 39 40 65 39 40 64 38 39 63 37 38 64 38 39 63 37 40 62 38 38 62 37 40 60 35 38 60 35 38 61 36 40 58 33 36 58 34 34 60 34 35 57 33 33 59 35 35 60 36 36 59 35 35 61 35 36 58 34 34 59 35 35 59 35 35 59 35 35 59 35 35 58 37 36 60 36 36 58 37 36 58 37 36 58 37 36 57 35 37 57 36 35 57 36 35 57 36 35 57 36 35 59 35 35 60 35 38 58 37 36 58 37 36 58 37 36 58 36 38 58 37 36 58 37 36 59 38 37 60 39 38 60 39 38 60 38 40 59 38 37 57 35 37 57 36 35 57 36 35 
