P3
100 50
255
47 34 43 46 33 42 47 34 43 46 33 42 47 34 43 49 36 45 47 36 44 47 34 43 46 35 43 48 35 44 49 36 45 50 37 46 51 38 47 47 36 44 45 34 42 40 30 38 37 27 35 33 23 31 29 19 27 23 16 23 23 16 23 21 14 21 23 18 24 22 17 23 23 16 23 23 16 23 22 15 22 23 16 23 22 15 22 24 17 24 24 17 24 24 17 24 24 17 24 24 17 24 27 17 25 25 18 25 28 18 26 28 18 26 25 18 25 27 17 25 26 16 24 28 18 26 28 18 26 29 19 27 29 20 25 29 19 27 30 21 26 30 20 28 27 21 25 28 22 26 24 17 24 23 16 23 18 13 19 17 12 16 18 11 18 25 19 21 34 25 30 42 31 37 48 35 44 54 41 48 54 41 48 55 40 47 55 40 47 50 37 44 50 37 44 51 38 45 51 40 46 51 40 46 51 40 46 51 38 47 54 38 48 54 39 46 54 37 43 56 37 43 66 46 47 70 50 49 86 66 59 87 69 59 91 77 64 90 78 64 89 80 65 92 80 66 91 79 65 91 77 64 91 74 64 90 73 65 87 72 65 83 65 61 79 66 60 74 58 58 70 56 56 65 49 52 60 47 54 55 42 51 51 40 46 47 37 46 43 33 42 40 33 41 45 35 46 44 34 43 
47 34 43 47 34 43 47 34 43 47 34 43 47 34 43 47 34 43 46 35 43 48 35 44 47 36 44 48 35 44 47 34 43 49 36 45 51 38 47 46 35 43 45 34 42 39 28 36 37 26 34 31 21 29 29 19 27 23 16 23 23 16 23 21 14 21 21 16 22 22 17 23 23 16 23 23 16 23 24 17 24 23 16 23 23 16 23 23 16 23 24 17 24 24 17 24 23 16 23 25 18 25 24 17 24 28 18 26 27 17 25 25 18 25 27 17 25 27 17 25 29 18 26 29 19 27 29 19 27 29 19 27 30 20 28 28 21 28 28 21 28 28 21 28 28 21 28 27 20 27 23 16 23 22 15 22 17 10 17 19 12 19 21 12 17 28 19 24 33 27 31 43 32 38 48 35 44 53 40 47 56 41 48 55 40 47 55 40 47 50 37 44 50 38 42 51 39 43 51 40 44 50 39 43 50 39 45 50 39 47 51 38 47 53 38 45 54 37 45 57 38 44 67 47 48 71 50 49 87 67 60 88 68 59 91 78 62 93 77 62 91 79 63 91 79 65 88 78 66 88 76 64 91 75 62 89 72 64 85 71 62 78 63 56 76 63 57 70 56 55 66 54 54 63 48 53 56 45 51 53 40 49 49 39 48 46 36 45 44 34 43 41 33 44 43 36 44 43 35 46 
47 34 41 48 35 42 46 33 40 47 34 41 47 34 43 47 34 43 47 36 44 48 35 44 47 36 44 49 36 45 49 36 45 49 36 45 49 36 45 46 35 43 45 34 42 38 28 36 35 25 33 31 21 29 28 18 26 23 16 23 22 15 22 21 14 21 21 16 22 21 16 22 23 16 23 23 16 23 22 15 22 23 16 23 25 15 23 24 17 24 27 16 24 24 17 24 24 17 24 26 19 26 25 18 25 27 17 25 25 18 25 27 17 25 26 19 26 28 17 25 29 18 26 29 19 27 31 21 29 31 21 29 30 20 28 30 20 28 29 19 28 30 20 28 26 19 26 26 19 26 20 13 20 20 13 20 12 7 13 17 10 17 30 19 25 39 28 34 49 36 43 51 38 45 53 40 47 53 38 45 53 38 45 55 40 47 56 41 48 50 37 44 50 38 42 48 37 41 48 39 42 49 40 43 48 39 44 46 36 44 47 34 43 50 35 42 54 37 45 58 39 45 71 50 49 75 54 53 87 67 58 88 68 59 91 73 59 91 73 59 88 72 57 87 71 58 86 69 59 85 65 54 85 63 52 77 58 52 77 58 52 66 52 49 62 51 49 50 44 46 49 43 47 44 39 45 41 38 47 41 38 49 41 38 49 41 37 51 43 37 51 40 36 50 50 40 51 51 41 50 
48 35 42 48 35 42 48 35 42 48 35 42 47 34 43 48 35 44 46 35 43 47 34 43 46 35 43 48 35 44 48 35 44 50 37 46 50 37 46 46 35 43 45 34 42 37 26 34 36 25 33 30 20 28 28 18 26 23 16 23 22 15 22 20 13 20 21 16 22 21 16 22 23 16 23 23 16 23 23 16 23 23 16 23 23 16 23 23 16 23 24 17 24 24 17 24 24 17 24 24 17 24 27 17 25 25 18 25 28 18 26 28 18 26 26 19 26 28 18 26 29 18 26 30 20 28 31 21 29 32 21 29 30 20 29 29 19 27 28 18 26 29 19 27 26 16 24 26 16 25 20 13 20 19 12 19 18 11 18 20 13 20 34 23 29 40 31 36 49 36 43 51 38 45 52 39 46 51 38 45 51 38 45 52 39 46 54 39 46 50 37 44 52 37 44 48 37 43 49 38 44 51 40 46 50 37 44 46 36 44 49 37 41 51 36 41 56 39 45 59 40 46 70 50 49 74 55 51 84 65 58 85 66 59 87 71 58 88 72 59 84 70 59 81 67 56 82 68 59 79 62 54 78 59 55 70 54 54 69 55 52 57 47 46 56 46 45 49 43 47 47 41 43 44 39 46 42 39 46 41 38 49 42 39 50 43 37 49 44 38 50 44 38 50 49 39 48 50 40 49 
48 35 44 47 34 43 48 35 44 48 35 44 48 35 42 46 35 41 46 33 42 47 34 43 47 34 43 48 35 44 48 35 44 49 36 45 49 36 45 45 34 42 44 33 41 36 26 34 31 24 31 26 19 26 25 18 25 23 16 24 24 14 22 24 14 22 22 12 20 23 13 22 21 14 21 22 15 22 22 15 22 22 15 22 24 17 24 23 16 23 22 15 22 24 17 24 24 17 24 24 17 24 25 18 25 27 20 27 28 18 26 28 18 26 26 19 27 27 20 28 27 20 28 29 22 30 32 22 30 32 22 30 30 23 31 28 21 29 27 17 26 26 16 25 22 12 20 20 10 18 22 12 20 23 13 21 28 18 26 34 24 32 46 35 43 48 35 44 49 36 45 50 37 46 51 38 45 51 38 45 50 39 45 50 37 44 53 38 45 50 37 46 50 37 46 49 36 43 52 37 44 50 37 44 52 37 44 52 40 42 53 38 41 52 37 40 57 43 43 59 45 45 67 53 50 70 56 53 76 61 56 75 61 58 76 62 59 73 62 58 71 62 57 70 59 55 69 57 57 61 55 59 58 53 60 50 45 52 48 43 50 39 34 41 40 35 42 41 36 43 42 35 43 45 38 46 47 39 50 48 41 49 49 39 48 46 39 47 46 39 47 48 38 47 49 39 48 49 39 47 
47 36 44 48 37 45 47 36 44 48 37 45 48 37 43 47 36 42 48 35 44 48 35 44 48 35 44 49 36 45 51 35 45 49 36 45 50 37 46 45 34 42 43 32 40 35 25 33 30 23 31 25 18 25 24 17 24 22 15 23 24 14 23 25 15 23 24 14 22 25 15 23 22 15 22 22 15 22 22 15 22 22 15 22 23 16 23 23 16 23 23 16 23 23 16 23 23 16 23 24 17 24 27 17 25 26 19 26 28 18 26 28 18 26 29 19 28 27 20 28 28 21 29 31 21 30 31 21 29 31 21 29 28 21 29 29 19 28 27 17 25 26 16 24 24 14 22 23 13 21 27 17 25 29 18 26 34 24 32 37 26 34 47 36 44 49 36 45 49 36 45 49 36 45 50 37 44 51 38 45 51 38 47 50 37 44 50 37 44 49 36 43 50 37 44 50 37 44 51 38 45 50 37 46 52 37 44 53 38 43 53 38 43 52 37 42 55 40 43 57 42 45 64 50 50 63 51 51 68 54 53 67 56 54 67 55 55 66 54 56 63 53 52 64 52 54 62 50 52 57 48 53 52 47 54 48 43 50 47 42 49 42 37 44 43 36 44 45 38 46 45 38 46 45 40 47 46 38 49 46 39 47 48 38 47 46 39 47 49 42 50 50 40 49 48 38 47 47 37 45 
49 36 45 49 36 45 48 37 45 49 36 45 49 36 43 49 36 43 48 37 45 49 36 45 48 35 44 51 35 45 51 35 45 49 36 45 50 37 46 44 33 41 42 31 39 34 24 32 29 22 30 24 17 24 23 16 23 22 15 22 22 15 22 25 15 23 25 15 23 25 15 24 22 15 22 22 15 22 23 16 23 23 16 23 23 16 23 23 16 23 23 16 23 23 16 23 25 15 23 24 17 24 27 17 25 28 18 26 28 18 26 28 18 26 29 19 28 29 19 28 30 20 29 33 23 32 31 21 29 32 22 30 28 21 29 28 18 26 25 15 23 24 14 22 25 15 23 24 14 22 31 21 29 31 21 29 40 30 38 43 32 40 47 36 44 47 36 44 48 35 44 50 37 46 50 37 44 51 38 45 51 38 47 50 37 44 50 37 44 50 37 44 50 37 44 49 36 43 50 37 44 50 39 47 52 39 46 53 38 45 53 38 45 52 37 44 56 41 46 57 42 47 62 46 49 62 47 50 61 49 51 63 48 51 60 48 50 58 46 48 55 44 48 55 43 47 53 41 45 49 39 47 46 39 47 45 40 47 45 40 47 45 40 47 46 39 47 49 39 48 47 40 48 45 40 47 45 37 48 45 38 46 46 39 47 47 40 48 49 42 50 52 42 51 47 37 46 46 36 44 
47 36 44 48 35 44 49 36 45 51 38 47 50 37 44 50 37 44 52 36 46 50 37 46 50 37 46 52 36 46 52 36 46 48 37 45 49 36 45 43 32 38 42 31 39 33 23 31 28 21 28 24 17 24 22 15 22 21 14 21 21 14 22 24 14 22 25 15 23 25 15 23 22 15 22 22 15 22 23 16 23 24 17 24 24 17 24 24 17 24 25 15 23 23 16 23 22 15 22 25 15 23 25 15 23 27 17 25 28 18 26 29 19 27 30 20 28 30 20 29 31 21 30 32 22 30 31 21 29 30 20 28 28 18 26 26 15 23 28 17 25 27 17 25 30 20 28 31 21 29 38 28 36 40 29 37 44 34 42 46 35 43 49 38 46 49 38 46 51 38 47 50 37 44 50 37 44 50 37 44 50 39 45 50 37 44 52 37 44 51 38 47 51 38 47 51 38 45 51 38 45 52 39 46 53 37 47 51 35 46 53 37 48 53 37 47 54 41 50 55 42 51 58 45 52 59 46 53 56 47 52 58 46 50 57 46 52 55 44 50 54 43 51 53 42 50 52 41 49 48 41 49 50 40 49 44 39 46 45 40 47 45 38 46 45 38 46 45 38 46 45 38 46 44 37 45 45 38 46 43 36 44 43 36 44 44 37 45 46 39 47 48 38 47 47 37 46 46 36 45 
48 35 44 46 35 43 47 37 45 48 37 45 50 37 44 52 37 44 51 38 47 50 37 46 48 37 45 51 35 45 49 36 45 49 36 45 49 36 45 42 31 39 41 30 38 33 23 31 28 21 28 24 17 24 22 15 23 21 14 22 21 14 21 24 14 22 24 14 22 24 14 23 23 16 23 22 15 22 24 17 24 23 16 23 23 16 23 23 16 23 25 15 23 23 16 23 23 16 23 26 16 24 26 16 24 28 18 26 27 17 25 29 19 27 29 19 27 30 20 29 30 20 29 32 22 30 31 21 29 29 19 27 28 18 26 26 16 24 27 17 25 28 18 26 33 23 31 33 23 31 42 32 40 42 32 40 49 38 44 49 38 44 50 39 45 50 39 45 50 39 45 50 37 46 50 37 46 51 38 47 50 37 44 50 37 44 49 38 44 50 37 46 50 37 46 53 38 45 51 38 45 51 38 45 50 37 46 50 37 47 51 38 48 52 39 49 55 42 52 55 42 51 58 45 52 58 45 54 56 45 53 57 44 53 55 44 52 54 42 52 53 41 51 52 42 50 51 41 50 48 41 48 49 42 50 46 39 47 46 39 47 45 38 46 46 39 47 44 37 45 44 37 45 43 36 44 42 35 43 43 36 44 43 36 44 42 35 43 45 38 46 47 37 46 47 37 46 46 36 45 
47 36 44 48 35 44 49 36 45 49 36 45 49 36 43 48 37 43 49 36 45 50 37 46 49 36 45 49 36 45 49 36 45 48 35 44 47 34 43 41 30 38 40 29 37 32 22 30 28 21 28 24 17 24 23 16 23 21 14 22 21 14 22 21 14 21 24 14 22 23 13 21 22 15 22 22 15 22 23 16 23 24 17 24 24 17 24 24 17 24 24 17 24 23 16 23 25 15 23 24 17 24 26 16 24 28 18 26 28 18 26 31 21 29 29 19 27 28 18 26 30 20 28 30 20 28 30 20 28 28 18 26 27 17 25 27 17 25 33 22 30 34 23 31 39 29 37 40 30 38 46 35 43 47 36 42 50 39 45 49 38 44 50 39 45 49 38 44 50 39 45 50 37 44 51 38 47 49 38 46 48 37 45 50 37 44 50 37 44 50 37 44 50 37 44 50 37 44 50 37 44 50 37 46 52 36 46 52 36 47 53 37 48 52 39 49 55 42 52 56 43 53 55 43 53 56 44 54 54 44 53 54 44 53 53 43 52 52 42 51 52 42 51 51 41 50 51 41 50 51 44 52 49 44 51 46 39 47 48 38 47 44 37 45 45 38 46 45 38 46 46 39 47 46 39 47 46 39 47 46 39 47 45 38 46 45 38 46 45 35 44 46 36 45 47 37 46 46 36 45 
49 36 45 48 35 44 49 36 45 48 35 44 48 35 42 48 35 42 49 36 45 48 35 44 49 36 45 49 36 45 49 36 45 48 35 44 48 35 44 41 30 38 40 29 37 33 23 31 28 21 28 24 17 24 23 16 23 21 14 21 21 14 21 21 14 21 23 13 21 23 13 22 22 17 23 22 15 22 26 16 24 24 17 24 24 17 24 24 17 24 24 17 24 23 16 23 23 16 23 24 17 24 26 16 24 26 19 26 29 19 27 31 21 29 30 20 28 30 20 28 29 19 27 30 20 28 29 19 27 28 18 26 28 18 26 29 19 27 35 24 32 36 25 33 42 31 39 43 32 40 47 36 42 47 36 42 50 39 45 50 39 45 49 38 44 49 38 44 50 39 45 51 38 45 51 38 47 50 39 47 49 38 46 50 37 44 52 37 44 50 37 44 51 38 45 50 37 44 50 37 44 50 37 46 52 36 46 52 36 46 53 38 45 54 41 51 55 42 52 55 42 52 55 43 53 55 43 53 52 45 53 52 42 51 51 41 50 51 41 52 52 42 53 51 41 52 50 39 53 49 41 52 49 44 51 48 41 49 46 39 47 44 37 45 44 37 45 45 38 46 46 39 47 47 40 48 47 40 48 47 40 48 48 38 47 46 36 45 45 35 44 46 36 45 47 37 46 47 37 46 
47 36 44 50 34 44 48 35 44 49 36 45 48 35 42 48 35 42 48 35 44 47 36 44 48 35 44 49 36 45 49 36 45 46 35 43 47 34 43 39 28 36 38 27 35 31 21 29 27 20 28 23 16 23 22 15 22 20 13 20 22 15 23 21 14 21 22 15 22 24 14 22 23 18 24 22 15 22 26 16 24 24 17 24 24 17 24 24 17 24 24 17 24 24 17 24 24 17 24 24 17 24 24 17 24 28 21 28 29 19 27 31 21 29 31 21 29 30 20 28 30 20 28 30 20 28 30 20 28 31 21 29 34 24 32 36 25 33 41 30 38 42 31 39 47 36 42 46 35 41 48 37 43 49 36 43 49 38 44 49 38 44 51 40 46 51 40 46 49 38 44 50 37 44 50 37 46 48 38 46 51 38 45 50 37 44 50 37 44 49 36 45 50 37 46 49 36 43 49 36 43 49 36 43 53 38 45 52 37 44 52 40 44 53 40 49 54 41 48 54 43 49 52 42 50 51 41 49 48 41 48 48 41 49 47 40 47 48 41 49 47 40 48 48 41 49 49 39 48 49 39 47 47 40 48 45 40 47 45 40 47 45 38 46 45 38 46 46 39 47 46 39 47 48 41 49 47 40 48 45 38 46 48 38 47 46 36 45 47 37 46 46 36 45 45 35 44 45 35 44 
48 35 44 48 35 44 47 34 43 48 35 44 46 35 43 46 36 44 49 36 43 49 36 45 47 36 42 48 35 44 50 35 42 47 36 44 45 34 42 37 27 35 36 26 34 28 21 28 27 20 28 24 17 24 22 15 22 21 14 22 20 13 20 23 13 21 24 14 22 24 14 22 23 16 23 23 16 23 23 16 23 24 17 24 24 17 24 24 17 24 24 17 24 24 17 24 23 16 23 26 16 24 24 17 24 27 20 27 27 20 27 29 22 29 31 21 29 31 20 28 30 20 28 31 21 29 31 20 28 32 22 30 35 24 32 37 26 34 43 32 40 44 33 41 47 36 44 48 37 45 47 36 44 48 35 44 49 36 43 51 40 46 49 38 46 50 39 47 51 40 48 50 39 47 49 40 45 49 38 44 50 39 47 50 37 46 51 38 47 49 36 45 50 37 44 49 36 43 48 35 42 48 35 42 51 36 43 53 36 42 54 39 44 53 40 47 53 42 50 53 42 48 52 41 49 51 41 49 48 41 48 48 41 49 47 40 47 48 41 49 46 39 46 46 39 47 48 38 47 47 40 48 45 40 47 45 38 46 47 40 47 44 39 46 45 40 46 46 39 47 47 39 50 46 39 47 46 39 46 47 37 46 45 38 46 45 38 46 45 38 46 45 38 45 43 36 43 44 34 42 
47 34 43 47 34 43 47 34 43 48 35 44 47 36 42 47 36 42 48 37 43 50 34 44 49 36 43 49 36 45 49 36 45 45 34 42 45 32 41 34 24 32 33 23 31 24 17 24 22 15 22 19 14 20 20 15 21 20 13 20 20 15 19 21 14 21 22 15 22 23 16 23 23 16 23 23 16 23 23 16 23 24 17 24 24 17 24 24 17 24 25 18 25 24 17 24 27 17 25 27 17 25 28 18 26 30 20 28 28 21 28 32 22 30 31 21 29 34 24 32 34 23 31 36 25 33 37 26 34 40 29 37 42 31 39 45 34 42 48 37 45 49 38 46 48 35 44 49 38 44 49 36 43 48 35 42 49 38 44 50 39 45 50 39 47 48 37 45 50 37 46 51 38 47 50 37 44 50 37 44 49 38 46 50 37 46 49 36 45 49 36 45 49 36 43 49 36 43 50 37 44 49 36 43 53 38 43 56 40 41 57 42 45 58 43 46 55 45 46 55 44 48 50 41 46 50 40 48 47 42 48 48 41 48 46 41 47 47 40 47 46 39 46 46 39 46 44 37 44 44 37 44 45 38 45 45 40 47 45 40 46 46 39 47 46 39 46 46 38 49 45 38 45 42 35 43 44 34 42 43 33 42 41 34 41 42 35 42 44 34 43 46 36 45 45 35 44 46 35 43 
47 34 43 47 34 43 47 34 43 46 35 43 48 35 44 47 36 40 48 35 42 49 36 45 49 36 43 50 37 46 49 38 46 45 34 40 43 32 40 34 24 32 32 22 30 23 16 23 23 16 23 19 14 20 20 13 20 20 15 21 20 15 21 22 15 22 23 16 23 23 16 23 23 16 23 23 16 23 24 17 24 24 17 24 24 17 24 25 18 25 25 18 25 25 18 25 27 17 25 29 19 27 25 18 25 30 20 28 31 21 29 32 22 30 31 21 29 34 24 32 36 25 33 38 27 35 39 28 36 42 29 38 43 32 40 44 33 41 47 36 44 49 38 44 49 36 43 49 38 44 49 36 43 48 35 42 49 38 44 49 38 44 50 39 45 49 38 44 50 37 44 51 38 45 50 37 44 50 37 44 49 38 46 50 37 46 49 36 45 49 36 45 49 36 43 50 37 44 50 37 44 50 37 44 55 40 43 56 40 41 57 43 43 59 45 45 56 44 46 54 43 47 49 43 47 49 39 47 47 40 47 48 41 48 47 40 47 46 39 46 45 38 45 44 37 44 47 37 45 44 37 44 43 36 43 44 39 46 45 38 45 48 38 46 46 39 46 46 39 46 46 39 46 44 37 44 45 35 44 43 33 42 42 35 42 42 35 42 44 34 42 44 34 42 46 36 45 45 35 44 
46 35 43 46 35 43 46 35 43 48 35 44 49 36 43 49 36 43 48 37 43 48 35 44 49 36 45 49 36 46 50 37 46 42 31 39 40 30 38 31 21 29 29 19 27 24 14 22 21 14 21 20 13 20 19 14 20 20 15 21 20 15 19 22 15 22 25 15 23 24 14 22 23 16 23 22 15 22 23 16 24 24 16 27 24 17 24 25 18 25 25 18 25 25 18 25 28 18 26 28 18 26 27 20 27 30 20 28 31 21 29 32 22 30 33 23 31 37 26 34 39 26 35 42 31 39 43 32 40 46 35 43 47 34 41 47 36 42 49 38 44 48 37 43 48 37 43 49 36 43 48 37 43 49 36 43 50 37 44 52 37 44 50 37 44 48 37 43 50 37 44 50 37 44 50 37 44 50 37 44 49 38 46 49 36 45 48 35 44 49 36 45 49 36 43 50 37 44 50 37 44 52 39 46 55 39 42 60 42 42 59 43 44 62 46 47 57 45 47 57 45 49 47 41 45 49 39 47 46 39 46 45 38 45 44 39 45 44 37 45 45 35 43 44 34 42 44 34 42 45 36 41 42 35 42 44 39 46 44 37 44 45 38 45 47 37 45 46 41 47 46 39 46 47 40 47 48 38 46 47 37 45 45 35 44 45 35 44 44 34 42 43 33 41 46 36 44 46 36 44 
47 34 43 48 35 44 49 36 45 47 36 44 49 36 43 48 35 44 49 36 43 48 37 45 49 36 43 49 36 45 49 36 43 42 31 39 42 31 39 31 21 29 30 20 28 25 15 23 22 15 22 20 15 21 19 14 20 19 14 20 20 15 21 21 14 21 22 15 22 21 14 21 23 16 23 23 16 23 23 16 23 25 16 21 24 17 24 25 18 25 25 18 25 26 19 26 28 18 26 29 19 27 28 21 28 32 21 29 30 20 28 31 21 29 33 23 31 38 27 35 40 29 37 43 32 40 45 34 42 47 36 44 48 35 42 48 35 42 49 38 44 49 36 43 50 37 44 50 37 44 50 37 44 49 36 43 50 37 44 51 38 45 49 38 44 48 37 43 49 38 44 50 37 44 50 37 44 49 36 43 48 37 43 48 35 42 49 36 43 49 36 43 49 36 43 51 38 45 51 38 45 51 38 45 56 40 43 60 40 41 59 43 44 61 45 46 57 45 47 56 45 49 49 43 47 47 40 47 44 39 46 45 38 46 43 38 45 44 37 45 46 36 45 45 35 44 45 35 43 45 35 43 43 36 44 45 35 44 43 36 44 45 37 48 45 38 45 47 37 46 45 38 45 49 40 45 45 38 45 47 40 47 47 37 45 46 35 43 43 33 42 44 34 43 46 36 44 44 37 44 
46 35 43 45 34 42 46 35 43 47 34 43 49 36 43 48 35 45 50 37 44 51 35 45 49 36 43 49 36 43 47 36 40 41 30 36 40 29 37 28 21 28 29 19 27 22 15 22 22 15 22 21 16 22 21 16 22 21 14 21 21 16 22 21 14 21 21 14 21 22 15 22 23 16 23 23 16 23 23 16 23 25 15 23 24 17 24 24 17 24 26 19 26 26 19 26 29 19 27 29 19 27 29 22 29 31 21 29 31 21 29 30 23 30 32 22 30 40 29 37 41 30 38 46 35 43 47 36 44 48 37 45 48 35 42 49 36 43 48 35 42 47 36 42 51 38 45 51 40 46 49 36 43 49 36 43 49 36 43 49 36 43 48 37 43 49 38 44 48 37 43 49 36 43 50 37 44 47 34 41 49 38 44 48 35 42 48 35 42 48 35 42 49 36 43 51 38 45 52 39 46 56 41 48 55 39 42 57 37 39 59 40 42 62 43 47 60 45 50 57 45 49 51 42 47 47 40 47 43 37 47 43 37 47 45 37 48 44 37 45 46 36 47 46 36 45 47 35 45 47 37 46 47 37 46 44 34 42 45 35 44 41 33 44 42 35 42 45 35 43 45 33 45 46 40 44 48 38 46 49 39 47 47 37 45 46 36 44 44 34 43 44 34 42 43 33 41 44 34 42 
48 37 45 47 36 44 47 36 44 47 36 44 51 35 45 48 35 44 48 37 43 47 36 44 48 37 45 47 36 44 46 35 43 39 28 36 38 28 36 26 19 27 26 19 27 22 15 22 22 15 22 21 16 23 21 16 23 21 14 21 21 14 22 22 15 22 22 16 20 24 14 22 24 14 22 25 15 23 26 16 24 26 16 24 30 20 28 32 22 30 33 23 31 34 24 32 32 22 30 31 21 29 30 20 28 31 21 29 32 22 30 38 28 36 38 28 36 44 33 41 44 33 41 46 35 43 48 35 44 47 34 43 49 36 43 48 35 42 48 35 42 49 38 44 49 36 43 48 37 43 49 36 43 49 36 43 48 35 42 48 37 43 48 37 45 49 38 46 47 37 45 48 37 45 50 37 44 49 36 43 47 36 42 49 36 43 51 36 43 53 38 45 54 39 46 54 39 46 54 39 46 54 39 46 53 37 40 52 33 35 58 39 43 61 42 48 57 42 47 55 42 49 49 39 47 46 39 46 45 38 46 44 37 45 43 38 45 44 37 45 46 36 47 45 35 43 46 36 45 47 37 46 47 37 46 43 36 43 45 35 44 45 35 43 42 35 42 42 35 42 45 35 43 44 37 44 47 36 44 47 36 44 44 34 43 43 36 44 41 34 42 42 36 40 44 34 42 46 35 43 
48 37 45 47 36 44 47 36 44 47 36 44 47 36 44 47 36 44 47 36 44 47 36 44 47 36 44 45 33 43 45 34 42 37 27 36 36 26 34 23 15 26 25 18 26 22 17 23 21 16 22 21 16 23 20 15 22 20 15 19 21 14 22 22 15 22 23 16 23 25 15 23 26 15 23 25 14 22 26 17 22 29 18 24 36 25 31 37 26 32 41 30 36 39 28 34 37 26 32 32 21 27 30 19 25 32 21 27 31 22 27 43 32 38 44 33 39 47 36 42 48 35 42 49 36 43 49 38 44 50 37 44 49 36 45 49 36 45 49 36 43 49 36 43 48 35 42 47 34 41 50 37 44 50 35 42 47 34 41 46 37 42 50 39 47 49 38 46 48 37 45 49 38 46 48 35 42 48 35 42 48 35 42 52 37 44 53 38 45 55 40 47 55 40 47 56 41 48 56 39 47 54 37 45 50 33 39 46 30 33 53 37 40 59 42 48 55 40 47 52 39 46 48 38 47 48 38 49 42 36 46 44 37 45 43 38 45 43 36 44 43 36 44 44 37 45 46 36 45 44 37 45 45 35 43 45 35 43 46 36 44 44 34 42 45 34 42 44 34 42 43 36 43 45 35 43 42 35 42 42 36 40 44 34 43 44 34 42 40 34 44 39 34 41 45 35 43 45 35 43 
47 36 44 47 36 44 48 35 44 48 35 44 47 36 44 50 34 44 48 35 44 48 35 44 46 35 43 44 34 42 44 33 41 36 26 35 34 24 32 24 17 25 23 16 23 19 14 21 20 15 21 22 17 24 22 15 22 24 14 22 21 16 22 21 14 21 23 16 24 23 16 23 28 17 25 28 17 23 33 22 30 35 24 32 41 30 36 41 30 36 41 30 36 39 28 34 36 25 31 35 24 30 35 24 30 36 25 31 37 26 32 44 35 40 45 34 40 48 35 42 49 36 43 49 36 43 49 36 45 47 36 44 49 36 45 48 35 44 49 36 45 49 36 45 49 36 45 49 36 45 49 36 45 47 34 43 48 37 43 47 36 44 48 37 45 48 37 45 48 37 45 48 37 45 49 36 45 49 36 43 49 36 43 50 37 44 51 38 45 55 40 47 55 40 47 53 38 45 54 37 45 52 32 41 47 31 34 44 28 29 52 36 39 55 40 45 52 39 46 50 39 45 47 37 46 48 38 47 44 36 47 43 37 47 42 36 46 43 36 43 43 36 43 44 37 44 44 37 44 46 36 45 46 36 45 46 36 44 46 36 44 46 36 44 47 37 45 44 37 44 43 36 43 44 37 44 43 36 43 43 36 43 44 34 43 45 35 44 42 34 45 41 33 44 44 32 42 44 34 42 
49 36 45 48 35 44 47 36 44 47 36 44 47 34 43 48 35 44 48 35 44 47 36 44 48 35 44 45 34 42 42 31 39 34 24 33 33 23 31 22 15 22 22 15 23 21 14 21 21 16 23 22 15 22 21 14 22 20 13 20 22 15 22 24 14 22 23 16 23 23 16 23 29 18 24 31 20 26 36 27 32 39 28 34 44 33 39 43 32 38 42 31 37 39 28 34 36 25 31 36 25 31 36 25 31 39 28 34 39 28 34 45 34 40 45 34 40 48 35 42 49 36 43 49 36 43 48 35 44 49 38 46 48 35 44 48 37 45 48 37 45 49 36 45 48 35 44 47 36 44 48 37 45 48 35 44 48 35 42 47 36 44 48 37 45 49 38 46 48 37 45 48 37 45 49 36 45 48 35 42 49 36 43 52 39 46 51 38 45 55 40 47 55 40 47 53 38 45 50 35 42 49 32 40 46 29 35 45 26 30 51 36 39 55 41 41 52 39 46 50 39 47 47 37 46 46 39 47 43 35 48 42 36 46 41 35 45 43 36 44 43 36 43 44 37 44 44 37 44 44 37 45 46 36 45 47 37 45 47 37 45 47 37 45 47 37 45 44 37 44 45 38 45 44 37 44 44 37 44 43 36 43 42 35 43 45 35 44 42 34 45 42 34 45 43 33 42 43 33 41 
47 36 44 47 36 44 48 35 44 48 35 44 48 35 44 48 35 44 46 35 43 46 35 43 47 34 43 44 31 40 41 30 38 33 23 32 32 22 30 23 16 23 23 16 23 21 14 21 21 14 22 21 14 21 21 14 21 22 15 22 22 17 23 26 16 24 28 18 26 26 19 26 36 25 31 39 28 34 44 33 39 46 35 41 48 37 43 46 35 41 41 30 36 40 29 35 38 27 33 38 27 33 40 29 35 44 33 39 43 32 38 49 36 43 47 36 42 49 36 43 49 36 43 48 35 42 49 36 45 48 37 45 49 36 45 47 36 44 47 36 44 48 35 44 47 34 43 47 36 44 49 38 46 49 36 45 48 35 42 47 36 44 46 35 43 47 36 44 48 37 45 48 37 45 49 36 45 49 36 43 49 36 43 51 38 45 50 37 44 55 40 47 54 39 46 50 35 42 47 32 39 44 29 36 44 28 31 42 26 29 52 36 39 54 39 44 50 39 45 49 38 44 44 37 45 44 37 45 42 36 46 42 36 46 42 36 46 42 37 44 45 35 43 44 37 44 43 36 43 45 35 44 45 35 44 47 37 45 48 38 46 49 39 47 50 40 48 47 40 47 46 39 46 45 38 45 44 37 44 42 35 43 42 35 43 45 35 44 42 34 45 41 34 42 42 32 41 43 33 41 
48 37 45 48 37 45 48 35 44 48 35 44 47 36 44 48 35 44 47 36 44 47 36 44 48 35 44 43 32 40 41 30 38 33 23 32 32 22 30 23 16 23 23 16 23 21 14 21 21 14 21 23 16 23 22 15 22 22 15 22 26 16 24 26 16 24 28 18 27 29 19 27 39 28 36 41 30 36 46 35 43 47 36 44 49 38 44 46 35 41 42 31 37 40 29 35 38 27 33 40 29 35 41 30 36 44 33 39 45 34 40 48 35 42 47 36 42 49 36 43 48 35 42 48 35 42 50 37 46 48 37 45 49 36 45 49 36 45 49 36 45 48 35 44 48 35 44 49 36 45 49 36 45 48 35 44 49 36 43 47 36 44 46 35 43 47 36 44 47 36 44 48 37 45 50 37 46 49 36 43 49 36 43 51 38 45 50 37 44 54 41 48 53 38 45 49 34 41 47 32 39 42 27 34 43 26 32 44 25 29 50 35 40 54 39 44 50 37 44 49 38 44 45 35 44 45 38 46 42 36 46 42 36 46 41 35 45 42 37 44 43 36 44 43 36 44 44 37 44 46 36 44 45 35 44 48 38 46 48 38 46 50 40 48 50 40 48 47 40 47 47 40 47 45 38 45 44 37 44 42 35 43 42 35 43 42 35 43 42 34 45 42 35 43 44 34 43 44 34 42 
49 36 45 48 35 44 48 37 45 48 37 45 48 37 45 50 37 46 48 35 44 46 35 43 46 35 43 41 31 39 40 30 38 32 22 31 31 21 29 25 15 23 24 17 24 21 14 21 21 14 21 22 15 22 23 16 23 26 16 24 30 20 28 31 21 29 36 26 35 39 26 35 46 35 43 48 37 43 48 37 45 47 36 44 48 37 43 46 35 41 43 32 38 42 31 37 40 29 35 43 32 38 44 33 39 46 35 41 46 35 41 47 36 42 48 37 43 48 35 42 47 36 42 49 36 43 49 36 45 48 35 44 48 37 45 49 36 45 48 35 44 47 36 44 47 36 44 48 35 44 49 36 45 48 37 45 48 35 42 48 35 44 48 37 45 48 37 45 48 37 45 50 37 46 48 35 44 50 37 44 49 36 43 51 38 45 49 36 43 49 36 43 48 35 42 45 30 37 43 28 35 39 24 31 40 23 29 42 26 29 49 34 37 51 39 43 49 38 46 49 36 45 44 37 45 44 37 45 41 35 45 41 35 45 42 36 46 43 38 45 43 36 43 44 37 44 43 37 41 45 35 44 44 34 43 47 37 45 46 36 44 48 38 46 48 38 46 46 39 46 46 39 46 45 38 45 44 37 44 42 35 43 42 35 43 42 35 43 41 33 44 42 35 43 46 36 45 45 35 43 
49 36 45 49 36 45 48 37 45 48 37 45 48 37 45 48 37 45 49 36 45 47 36 44 46 35 43 41 31 39 38 31 38 33 23 32 30 20 28 26 16 24 24 17 24 22 15 22 23 16 23 23 16 23 24 17 24 28 18 26 31 21 29 34 24 32 39 28 36 41 30 38 47 36 42 48 37 43 48 35 42 49 36 43 48 35 42 48 35 42 45 32 39 45 32 39 43 30 37 44 31 38 46 33 40 47 34 41 46 35 41 47 36 42 48 37 43 49 36 43 47 36 42 48 35 42 49 36 45 49 36 45 49 36 45 49 36 45 49 36 45 48 35 44 47 34 43 48 35 44 48 35 44 48 35 44 48 35 42 48 35 44 49 36 45 49 38 46 48 37 45 49 36 45 50 37 46 50 37 44 50 37 44 50 37 44 50 37 44 47 34 41 47 34 41 41 28 35 39 26 33 36 23 30 40 25 30 42 26 29 49 34 41 53 38 43 48 37 43 48 37 45 46 36 45 44 37 45 42 36 48 42 36 46 41 35 45 42 37 44 42 35 43 43 36 44 43 36 43 44 34 43 44 34 43 47 37 45 46 36 44 47 37 45 48 38 46 47 40 47 45 38 45 45 38 45 44 37 44 42 35 43 40 35 42 43 36 44 41 33 44 41 34 42 46 36 45 48 38 46 
48 37 45 49 38 46 51 38 47 50 37 46 49 38 46 48 37 45 47 36 44 47 36 44 47 36 44 42 32 40 40 30 38 30 20 29 29 19 27 24 14 22 22 15 22 22 15 22 25 15 23 25 18 25 30 20 28 33 23 31 38 27 35 41 30 38 46 35 43 47 37 45 52 37 44 50 39 45 47 36 42 48 35 42 46 35 41 46 35 41 45 34 40 44 33 39 44 33 39 45 34 40 46 35 41 46 35 41 46 35 41 47 36 42 47 36 42 48 35 42 47 36 42 49 36 43 49 36 45 48 35 44 49 36 45 50 37 46 48 35 44 49 36 45 49 36 45 48 35 44 49 36 45 49 36 45 49 36 43 50 37 46 49 36 45 49 36 45 48 35 44 49 36 45 50 37 46 50 37 44 52 39 46 49 36 43 49 36 43 44 31 38 42 29 36 37 24 31 36 23 30 35 22 29 39 24 29 43 27 30 48 36 40 52 40 44 49 38 44 48 37 45 44 38 48 44 36 47 42 36 46 41 35 45 41 35 45 42 37 44 41 36 43 43 36 44 43 36 43 42 35 42 45 35 44 46 36 44 45 35 43 47 37 45 46 36 44 43 36 43 44 37 44 44 37 44 44 37 44 43 36 43 41 36 43 42 35 43 42 34 45 42 34 45 45 35 44 47 37 45 
50 37 46 50 37 46 50 39 47 49 38 46 49 38 46 49 38 46 50 37 46 47 36 44 46 35 43 42 32 40 41 31 39 30 20 29 28 18 26 23 13 21 22 15 22 22 15 22 24 17 24 26 19 26 32 22 30 36 26 34 40 29 37 42 31 39 48 35 45 49 36 45 49 38 46 49 38 44 46 35 43 47 36 44 47 36 42 46 35 41 44 33 39 44 33 39 45 34 40 45 34 40 46 35 41 46 35 41 46 35 41 49 36 43 48 37 43 48 35 42 47 36 42 48 37 43 48 35 44 49 36 45 48 37 45 49 36 45 49 36 45 49 38 46 49 38 46 49 36 45 49 36 45 48 37 45 49 36 43 49 36 45 49 36 45 52 36 46 48 35 44 49 36 45 50 37 46 50 37 44 50 39 45 49 36 43 49 36 43 42 29 36 41 28 35 36 23 30 36 23 30 34 21 28 40 23 29 44 28 31 50 35 40 55 40 45 49 38 46 47 37 45 44 37 45 44 36 47 42 36 48 42 36 46 42 36 46 42 37 44 41 36 43 43 36 44 43 36 43 42 35 43 45 35 44 45 35 43 45 35 43 45 35 43 46 36 44 44 37 44 44 37 44 44 37 44 44 37 44 43 36 43 44 37 45 42 35 43 44 36 47 42 34 45 45 35 44 46 36 44 
50 37 46 50 37 46 51 38 47 51 38 47 50 37 46 49 36 45 49 36 45 48 37 45 48 35 44 42 31 39 40 30 38 27 17 25 26 16 24 21 14 21 21 14 21 24 17 24 28 18 26 33 23 31 37 27 35 40 33 40 47 34 43 48 35 44 50 37 46 51 38 47 48 35 42 48 37 43 47 34 41 47 36 42 48 37 43 47 36 42 45 34 40 45 34 40 44 33 39 46 35 41 47 36 42 46 35 41 48 35 44 49 36 45 48 35 44 48 35 44 49 36 45 48 35 44 49 36 45 48 35 44 48 37 45 49 38 46 49 38 46 49 36 45 50 37 46 49 36 45 49 36 45 48 35 44 47 36 42 47 37 45 49 36 45 48 37 45 47 37 45 49 37 41 49 38 46 51 38 48 51 40 48 46 35 43 47 34 41 37 26 32 35 24 30 32 19 26 31 18 25 31 20 26 37 25 29 44 28 31 48 36 40 55 40 47 49 38 46 49 38 46 43 35 46 44 37 45 42 36 46 41 35 45 42 36 46 42 37 44 41 36 43 42 37 43 43 36 43 43 36 44 45 35 44 46 36 45 45 35 43 44 38 42 44 38 42 44 38 42 44 37 44 45 38 45 44 37 44 44 37 44 43 36 44 44 36 47 42 37 44 42 37 44 43 33 42 44 34 42 
49 36 45 50 37 46 51 38 47 50 37 46 50 37 46 50 37 46 47 36 44 47 36 44 47 36 44 41 31 39 39 29 37 29 19 27 25 18 25 24 17 24 25 18 25 27 20 27 32 22 30 36 26 34 40 30 38 43 33 41 46 33 42 49 36 45 50 37 46 50 37 46 49 36 43 49 36 43 48 35 42 47 36 42 47 36 42 47 36 42 45 34 40 46 35 41 45 34 40 47 36 42 46 35 41 48 37 43 48 37 45 49 36 45 50 37 46 49 36 45 48 35 44 48 37 45 47 36 44 49 36 45 48 37 45 48 37 45 49 36 45 50 37 46 48 37 45 50 37 46 49 36 45 49 36 45 49 36 43 49 36 43 50 37 46 47 36 44 48 35 44 50 37 44 50 37 44 51 38 45 50 37 44 44 33 39 44 31 38 35 24 30 34 23 29 32 19 26 32 19 26 32 21 27 39 24 29 44 28 31 50 38 42 56 41 46 48 38 46 49 36 45 43 35 46 42 36 46 39 33 43 42 36 46 39 36 45 41 35 45 41 36 43 42 37 44 43 36 44 43 36 44 45 35 44 46 36 44 46 36 44 47 37 45 44 37 44 44 37 44 44 37 44 43 36 43 44 37 44 43 36 43 43 36 44 42 34 45 44 37 45 43 36 44 43 33 42 43 33 41 
50 37 46 51 38 47 50 37 46 50 37 46 49 36 45 50 37 46 47 36 44 48 35 44 46 36 44 41 30 38 38 28 36 28 18 26 27 17 25 29 19 27 31 21 29 34 24 32 36 26 34 40 30 38 45 34 42 50 37 46 49 36 45 50 37 46 49 36 45 51 35 45 49 36 43 49 36 43 47 34 41 46 35 41 49 36 43 48 35 42 47 34 41 47 34 41 47 34 41 47 34 41 49 36 43 48 35 42 47 36 44 50 37 46 49 36 45 47 36 44 47 36 44 49 36 45 49 36 45 49 38 46 48 37 43 48 37 43 49 36 43 50 37 44 48 37 43 48 37 43 50 37 44 50 37 44 51 36 43 50 37 44 49 36 45 50 37 46 51 38 45 52 37 44 51 38 45 48 35 42 48 35 44 40 29 37 40 27 34 32 21 27 31 20 26 31 18 25 31 18 25 32 21 27 38 26 30 44 28 31 51 36 41 54 39 44 48 37 45 47 37 45 43 36 44 42 36 46 41 35 45 39 36 45 41 35 45 41 35 45 42 37 44 42 36 46 43 38 45 42 35 43 44 34 42 45 35 43 46 36 44 46 36 44 44 37 44 44 37 44 44 37 44 44 37 44 43 36 43 42 35 42 42 35 43 44 34 43 43 35 46 44 37 45 42 32 41 42 32 40 
49 38 46 48 37 45 49 38 46 49 38 46 48 37 45 49 38 46 49 36 45 48 37 45 48 35 44 40 29 37 38 28 36 30 20 28 29 19 27 33 23 31 35 25 33 39 29 37 41 31 39 44 34 42 47 36 44 49 38 46 48 37 45 47 34 43 49 36 45 50 34 44 50 37 44 50 37 44 46 35 41 47 34 41 48 35 42 47 34 41 47 34 41 47 34 41 48 35 42 48 35 42 49 36 43 48 35 42 46 35 43 50 37 46 50 37 46 49 36 45 49 36 45 47 36 44 48 37 45 49 36 45 49 38 44 49 36 43 48 35 42 49 36 43 49 38 44 49 38 44 50 39 45 49 36 43 51 36 43 49 37 41 51 38 47 49 36 46 51 38 47 51 38 47 51 38 45 46 35 41 45 32 39 37 26 32 38 25 32 29 18 24 29 18 24 30 19 25 30 19 25 32 23 28 37 25 29 44 28 31 51 36 41 52 40 42 47 37 45 47 36 44 43 36 44 43 35 46 38 35 44 39 36 47 40 37 46 42 36 46 42 34 45 41 36 43 43 38 45 42 35 43 43 33 42 45 35 44 45 35 43 47 37 46 47 37 45 45 39 43 43 36 43 43 36 43 43 36 43 41 34 41 41 34 42 41 34 42 42 34 45 43 36 44 43 33 42 43 33 41 
48 37 45 47 36 44 50 39 47 50 39 47 50 39 47 49 36 45 48 37 45 46 35 43 46 33 42 39 28 36 37 27 35 31 21 29 31 21 29 37 27 35 39 29 37 43 33 41 44 34 42 46 36 44 49 38 46 50 39 47 49 36 45 46 35 43 50 34 44 50 34 44 51 38 45 49 38 44 47 34 41 46 33 40 45 32 39 47 34 41 48 35 42 48 35 42 50 37 44 48 35 42 48 35 42 47 34 41 47 36 44 49 36 45 50 37 46 47 36 44 47 36 44 48 37 45 48 37 45 49 36 45 48 37 45 51 38 47 50 37 46 49 36 45 49 36 45 48 37 45 48 37 45 50 37 46 50 37 44 50 37 44 52 37 44 51 38 47 51 40 48 50 37 46 50 39 45 46 33 40 44 31 38 35 24 30 34 21 28 27 16 22 28 17 23 29 18 24 30 19 25 35 22 29 38 26 30 45 29 32 51 36 41 53 41 45 48 37 43 46 36 44 45 35 46 42 34 45 41 35 47 40 37 46 39 36 45 43 36 44 42 37 44 41 36 43 43 36 44 42 35 43 43 33 42 45 35 44 45 35 43 47 37 45 48 38 46 45 38 45 44 37 45 42 35 42 41 34 41 40 33 40 40 33 41 40 33 41 42 34 45 42 35 43 44 34 43 44 34 43 
49 36 45 49 36 45 50 37 46 50 37 46 51 38 47 48 35 44 49 36 45 48 37 45 48 35 44 40 29 37 40 29 37 40 29 37 38 27 35 44 33 41 43 32 40 48 37 45 48 37 45 49 38 46 50 37 46 50 37 46 49 36 45 48 35 44 48 35 44 47 34 43 50 37 44 50 37 44 47 34 41 47 36 42 46 35 41 48 37 43 48 37 43 48 37 43 48 37 43 48 37 43 48 37 43 46 35 41 47 34 43 47 36 44 48 37 45 49 36 45 48 35 44 48 37 45 48 37 45 49 36 45 49 38 46 50 37 46 49 36 45 51 35 45 48 35 44 49 36 45 49 36 45 49 36 45 51 38 45 52 36 46 53 38 45 54 39 46 52 39 46 50 37 44 48 35 42 40 27 34 37 24 31 27 17 25 26 15 21 28 18 26 27 18 23 29 20 25 30 21 24 33 24 27 39 27 31 44 29 32 49 34 39 50 37 44 46 36 44 46 36 44 43 35 46 41 36 43 40 34 44 41 35 45 42 36 46 42 36 46 43 35 46 43 36 44 44 37 45 45 35 43 43 33 41 44 34 42 44 34 42 46 36 44 46 36 44 47 37 45 44 37 44 43 36 43 42 35 42 43 36 44 43 36 44 43 36 44 44 36 47 44 37 45 44 34 43 41 34 42 
49 36 45 49 36 45 50 37 46 50 37 46 49 36 45 49 36 45 48 35 44 48 35 44 48 35 44 44 28 38 40 27 36 45 29 39 43 30 39 47 34 43 48 35 44 50 37 46 51 38 47 51 38 47 51 38 47 50 37 46 50 34 44 48 35 44 48 35 44 46 33 42 48 37 43 49 36 43 48 35 42 47 36 42 46 35 41 47 36 42 48 37 43 47 36 42 49 38 44 48 37 43 47 36 42 46 35 41 47 36 44 49 36 45 48 35 44 47 36 44 47 36 44 48 37 45 47 36 44 49 36 45 48 37 45 50 37 46 49 36 45 49 36 45 49 36 45 48 35 44 49 36 45 48 35 44 49 36 43 51 36 43 54 37 45 53 38 45 54 39 46 50 35 42 47 34 41 35 22 29 32 21 29 20 13 20 22 13 18 28 19 24 28 19 22 29 20 23 32 23 26 34 25 28 37 26 30 44 29 34 46 34 38 49 36 45 44 37 45 44 37 44 42 34 45 42 35 43 41 35 47 41 35 45 41 35 45 42 37 44 43 36 44 43 36 44 42 35 43 44 34 42 44 35 40 44 35 40 45 35 43 45 35 43 46 36 44 47 37 45 44 37 44 43 36 43 42 35 43 44 37 45 43 36 44 44 37 45 43 36 44 45 38 46 41 34 42 41 34 42 
49 36 45 49 36 45 51 38 47 49 36 45 50 37 46 49 36 45 49 36 45 48 35 44 48 35 44 47 34 43 47 34 43 47 34 43 48 35 42 49 36 43 48 35 42 50 37 44 51 38 45 50 37 44 49 36 43 49 36 43 50 34 44 48 35 44 47 34 43 47 34 43 47 36 42 47 36 42 47 36 42 46 35 41 46 35 41 48 37 43 47 36 42 48 37 43 48 37 43 48 37 43 48 37 43 48 37 43 47 36 44 48 37 45 48 37 45 48 37 45 49 38 46 48 37 45 49 38 46 48 37 45 49 38 46 49 36 45 49 36 45 49 36 45 49 36 45 49 36 45 49 36 45 50 34 44 48 35 44 50 37 44 54 37 45 53 38 45 52 37 44 45 28 36 38 25 34 30 19 27 29 18 26 20 13 20 21 11 19 27 18 23 25 19 23 28 22 24 32 23 26 34 25 26 38 27 31 43 28 33 46 34 36 48 35 42 47 36 44 46 36 44 42 34 47 41 33 44 40 34 46 38 35 46 40 34 44 42 36 46 43 38 45 44 37 45 43 36 43 45 35 43 45 35 43 46 36 44 45 35 43 46 36 44 47 37 45 47 37 45 47 37 45 43 36 43 43 36 44 42 35 43 42 35 43 42 35 43 42 35 43 43 36 44 40 33 41 39 34 41 
50 37 46 50 37 46 50 37 46 49 36 45 49 36 45 49 36 45 48 35 44 48 35 44 48 35 44 47 34 43 48 35 42 49 36 43 49 36 43 49 36 43 50 37 44 52 39 46 50 37 44 50 37 44 50 37 44 49 36 43 48 35 42 46 33 40 47 34 43 48 35 44 47 36 42 47 36 42 46 35 41 46 35 41 47 36 44 47 36 42 47 36 42 48 37 43 48 37 43 48 37 43 47 36 42 48 37 45 48 37 43 48 37 43 49 38 44 48 37 45 49 38 46 48 36 46 49 38 46 48 37 45 49 38 46 49 36 45 48 37 45 48 37 45 49 36 45 47 36 44 49 36 45 48 35 44 51 38 47 50 37 44 53 38 45 52 37 44 52 37 44 44 29 36 37 24 33 29 18 26 27 16 24 23 13 21 21 11 19 27 18 23 25 19 23 30 21 24 31 22 25 34 25 28 39 27 31 43 28 33 45 32 39 46 35 41 46 36 44 45 35 44 43 35 46 41 35 45 40 34 46 41 35 45 42 34 45 42 36 46 44 37 45 43 36 44 44 34 42 43 36 43 46 36 44 45 35 43 45 35 43 46 36 44 48 38 46 45 38 45 45 38 45 43 36 43 42 35 43 42 35 43 42 35 43 42 35 43 41 34 42 41 34 42 40 33 41 40 33 41 
50 37 46 49 36 45 49 36 45 50 37 46 49 36 45 49 36 45 49 36 45 48 35 44 49 36 45 51 38 47 51 38 45 50 37 44 50 37 44 49 36 43 50 37 44 48 35 42 49 36 43 49 36 43 50 37 44 49 36 43 50 37 46 49 36 45 50 37 44 49 36 43 45 34 42 45 34 42 46 35 41 47 36 42 46 35 41 49 38 44 48 37 45 47 36 44 48 37 45 48 37 45 50 39 45 49 38 44 50 39 47 49 38 46 48 37 45 48 37 45 48 37 45 48 37 45 48 37 43 48 37 43 48 37 45 46 35 43 48 37 45 48 35 44 49 38 46 48 37 45 50 37 46 50 37 46 51 38 47 50 37 44 52 37 44 49 34 41 44 31 38 34 21 28 26 15 23 25 14 22 23 13 21 23 13 21 21 11 19 26 17 22 24 18 22 30 21 24 32 23 26 35 24 28 40 28 32 44 29 34 46 33 40 47 36 42 46 36 44 46 36 45 43 35 46 41 35 45 40 37 48 41 35 45 41 35 45 42 36 46 42 37 44 42 35 43 42 35 42 45 35 43 45 35 43 46 36 44 44 34 42 47 37 45 46 36 44 47 37 45 45 38 45 43 36 43 43 36 44 42 35 43 41 34 42 41 34 42 39 32 40 38 33 40 41 34 42 44 34 43 
49 36 45 50 37 46 50 37 46 50 37 46 49 36 45 49 36 45 50 37 46 49 36 45 50 37 46 51 38 47 51 38 45 49 36 43 51 38 45 49 36 43 49 36 43 50 37 44 48 35 42 49 36 43 49 36 43 49 36 43 50 37 46 50 37 44 50 37 44 49 36 43 45 34 42 45 34 42 47 36 44 47 36 42 48 37 45 48 37 45 48 37 45 49 38 46 48 37 45 49 38 46 49 38 46 49 38 46 49 38 44 48 37 43 48 37 45 49 38 46 50 39 47 49 38 46 49 38 46 50 39 47 48 37 45 49 36 45 47 36 44 48 37 45 49 36 45 47 36 44 50 37 46 50 37 46 50 37 46 50 37 44 49 36 43 45 32 39 41 28 35 32 19 26 25 14 22 25 14 22 23 13 21 22 12 20 22 12 20 26 17 22 26 17 22 31 22 25 32 23 26 35 24 28 39 27 31 45 30 35 46 33 40 48 37 43 45 35 43 45 35 44 42 34 45 41 35 45 41 35 47 40 34 44 40 34 44 41 35 45 43 36 44 42 35 43 41 34 41 44 34 42 45 35 43 45 35 43 45 35 43 46 36 44 46 36 44 47 37 45 44 37 44 43 36 43 44 37 45 42 35 43 42 35 43 41 34 42 39 34 41 39 34 41 41 34 42 44 34 43 
49 36 45 50 37 46 48 35 44 49 36 45 50 37 46 49 36 45 49 36 45 50 37 46 50 37 46 50 37 46 51 38 45 49 36 43 50 37 44 48 35 42 47 34 41 48 35 42 48 35 42 48 35 42 48 35 42 50 37 44 49 37 41 50 37 44 50 37 46 51 38 47 46 35 41 44 33 39 47 36 44 47 36 44 48 37 45 48 37 45 47 36 44 47 36 44 49 38 46 49 38 46 49 38 46 49 38 46 50 39 45 49 38 44 49 38 46 49 38 46 48 37 45 49 38 46 48 37 45 49 38 46 48 37 45 49 36 45 48 37 45 48 35 44 49 38 46 48 37 45 51 38 47 51 38 47 51 38 47 49 38 44 48 35 42 40 29 35 33 22 28 25 16 21 22 11 19 21 14 21 21 14 21 25 15 23 22 15 22 27 18 23 28 19 24 32 21 25 34 23 27 36 25 29 41 29 33 47 32 37 47 36 42 49 38 44 46 36 44 44 34 43 42 34 45 40 34 44 40 34 46 37 34 43 37 34 43 40 34 44 41 34 42 40 33 41 40 33 40 41 34 41 44 34 42 44 34 42 43 33 41 43 36 43 43 36 43 44 37 44 44 37 44 43 36 43 43 36 44 42 35 43 42 35 43 41 36 43 40 35 42 39 34 41 41 36 43 42 35 43 
50 37 46 50 37 46 48 35 44 50 37 46 49 36 45 50 37 46 50 37 46 50 37 46 49 36 45 50 37 46 50 37 44 50 37 44 49 36 43 47 34 41 49 36 43 48 35 42 48 35 42 49 36 43 50 37 44 49 36 43 49 36 43 49 36 45 50 37 46 49 36 45 46 35 43 46 35 43 47 36 44 46 35 43 48 37 45 48 37 45 47 36 44 48 37 45 47 36 44 49 38 46 49 38 46 49 38 46 50 39 47 49 38 46 48 37 45 48 37 45 48 37 45 49 38 46 49 38 46 49 38 46 48 37 45 50 37 46 50 39 47 49 36 45 49 38 46 50 39 47 51 38 47 51 38 47 49 36 45 49 36 43 46 35 41 39 26 33 31 22 27 25 14 22 22 12 20 23 13 21 24 14 22 23 13 21 24 14 22 28 19 24 28 19 24 31 22 27 33 22 28 36 25 29 41 29 33 45 33 37 47 34 41 48 37 43 46 36 45 43 36 44 40 34 44 40 34 44 38 35 46 37 34 45 37 34 43 41 33 44 40 35 42 41 34 42 40 33 41 43 33 41 43 33 41 44 34 42 43 33 41 43 36 43 43 36 44 43 36 44 43 36 44 42 35 43 43 36 44 42 35 43 41 35 45 41 35 45 40 34 44 39 33 43 41 36 43 41 36 43 
49 36 45 49 36 45 49 36 45 50 37 46 50 37 46 50 37 46 50 37 46 50 37 46 51 38 47 51 38 47 50 37 44 50 37 44 49 36 43 48 35 42 48 35 42 48 35 42 47 34 41 49 36 43 49 36 43 49 36 43 48 35 44 48 35 42 48 35 42 48 35 44 46 35 43 46 35 43 48 37 45 48 37 45 49 38 46 48 37 45 47 36 44 48 37 45 48 37 45 47 36 44 48 37 45 49 38 46 49 38 46 48 37 45 49 38 46 48 37 45 49 38 46 49 38 46 49 38 46 49 38 46 49 38 46 49 36 45 49 38 46 50 39 47 52 39 48 50 39 47 51 38 47 51 38 47 50 37 46 46 35 43 42 33 38 32 23 28 24 15 20 23 13 21 21 11 19 22 15 22 23 16 23 21 14 21 20 13 20 30 19 25 30 21 26 31 20 26 33 22 28 36 25 29 42 30 34 46 33 40 47 36 42 48 37 45 46 36 45 42 35 43 40 34 44 40 34 46 37 34 45 37 34 45 38 32 42 39 33 43 40 35 42 40 35 42 40 33 41 43 33 41 43 33 41 43 33 41 43 33 41 44 34 42 42 35 43 42 35 43 42 35 43 43 36 44 45 35 44 42 35 43 42 36 46 41 35 45 40 34 44 40 34 44 40 35 42 41 36 43 
49 36 45 49 36 45 49 36 45 49 36 45 50 37 46 50 37 46 50 37 46 50 37 46 49 36 45 50 37 46 50 37 44 49 36 43 49 36 43 50 37 44 49 36 43 48 35 42 49 36 43 50 37 44 49 36 43 48 35 42 48 35 44 48 35 42 47 34 41 47 34 43 46 35 43 46 35 43 48 37 45 48 37 45 49 38 46 47 36 44 48 37 45 47 36 44 47 36 44 47 36 44 48 37 45 49 38 46 49 38 46 49 38 46 49 38 46 49 38 46 49 38 46 49 38 46 49 38 46 49 38 46 49 38 46 49 38 46 50 39 47 50 37 46 50 39 47 51 40 48 51 38 47 50 37 46 50 37 46 45 32 41 39 30 35 29 23 27 23 14 19 21 14 21 20 13 20 21 14 21 22 15 22 20 13 20 20 13 20 30 21 26 29 20 25 32 21 27 33 22 28 36 25 29 42 29 36 46 33 40 46 35 41 48 37 45 45 35 44 42 35 43 40 34 44 40 34 46 37 34 45 37 34 45 37 34 43 37 34 43 39 34 41 39 34 41 41 34 42 41 34 41 43 33 41 45 35 43 44 34 42 45 35 43 42 35 43 42 35 43 42 35 43 42 35 43 43 36 44 41 35 45 40 34 44 41 35 45 41 35 45 41 35 45 40 34 44 40 35 42 
50 37 46 49 36 45 50 37 46 50 37 46 50 37 46 50 37 46 50 37 46 50 37 46 50 37 46 50 37 46 50 37 44 49 36 43 49 36 43 50 37 44 49 36 43 49 36 43 50 37 44 50 37 44 48 35 42 48 35 42 49 36 43 48 35 44 47 34 44 48 35 44 48 37 45 47 36 44 48 37 45 48 37 45 48 37 45 48 37 45 48 37 45 48 37 45 47 36 44 47 36 44 47 36 44 47 36 44 48 37 45 47 36 44 47 36 44 48 37 45 49 38 46 48 37 45 49 38 46 49 38 46 49 38 46 50 37 46 50 39 47 51 40 48 52 39 48 52 41 49 50 37 46 49 36 45 46 33 42 42 31 39 33 27 31 25 19 23 17 11 15 19 12 19 20 13 20 22 15 22 21 16 22 19 12 19 20 10 18 30 21 26 31 22 27 32 21 27 34 23 29 38 26 30 42 29 36 46 33 40 46 35 41 48 37 45 44 34 45 42 35 43 40 34 44 40 34 46 35 33 44 37 34 45 37 34 43 37 34 43 40 35 42 41 34 42 43 33 42 41 34 41 45 34 42 43 36 43 43 36 43 42 35 42 43 36 44 41 34 42 42 35 43 42 35 43 41 35 45 41 35 45 40 34 44 41 35 45 41 35 45 40 34 44 38 32 42 39 33 43 
50 37 46 50 37 46 51 38 47 50 37 46 50 37 46 50 37 46 50 37 46 49 36 45 49 36 43 49 36 43 50 37 44 49 36 43 49 36 45 49 36 45 48 35 44 49 36 45 49 36 45 48 35 44 49 36 45 50 37 46 49 36 45 48 35 44 48 35 44 48 35 44 48 37 45 49 38 46 48 37 45 48 37 45 47 36 44 48 37 45 48 37 45 48 37 45 48 37 45 48 37 45 48 37 45 48 37 45 48 36 46 47 36 44 48 37 45 48 37 45 49 38 44 49 38 44 49 38 44 49 38 44 49 38 46 50 37 46 51 40 48 51 40 48 52 39 48 52 39 48 51 35 45 47 34 43 45 29 40 40 29 37 29 23 27 24 18 22 18 12 16 19 14 20 21 14 21 19 17 22 20 15 21 19 12 19 20 10 18 31 20 28 32 21 29 32 21 27 34 21 28 39 26 33 41 29 33 45 32 39 46 35 43 48 37 45 45 35 44 43 36 44 40 34 44 37 34 45 38 35 46 38 35 46 35 34 42 37 34 43 39 34 41 41 35 45 41 34 42 41 34 41 41 34 41 43 36 44 44 37 45 43 36 44 43 36 43 42 35 43 42 35 43 42 35 43 40 34 44 40 34 44 40 34 44 39 33 43 40 34 44 40 34 44 39 33 43 40 34 44 
50 37 46 50 37 46 51 38 47 51 38 47 50 37 46 50 37 46 49 36 45 49 36 45 48 35 44 47 34 41 47 34 41 49 36 43 48 35 42 49 36 45 49 36 45 49 36 43 49 36 43 49 36 45 48 35 44 49 36 43 49 36 43 48 35 42 49 36 43 47 34 43 50 39 47 48 37 45 48 37 45 47 36 44 48 37 45 48 37 45 48 37 45 48 37 45 49 38 46 48 37 45 49 38 46 47 36 44 49 38 46 47 36 44 47 36 44 48 37 45 49 38 46 50 39 45 49 38 44 49 38 44 50 39 47 50 39 47 50 39 47 51 40 48 52 39 48 52 39 48 48 32 42 46 33 42 41 28 37 37 26 34 25 20 24 22 16 18 17 10 17 19 14 20 21 14 21 19 14 20 20 15 21 20 13 20 20 13 20 29 19 27 32 21 29 32 21 27 34 21 28 39 27 31 41 28 35 46 33 40 46 35 43 48 37 45 45 35 44 42 35 43 41 33 44 38 35 44 39 35 49 37 34 45 37 34 45 37 34 43 38 35 44 40 34 44 43 33 42 42 35 42 43 36 43 44 37 45 45 38 45 44 37 45 44 37 45 42 35 43 42 35 43 42 35 43 40 35 42 39 33 43 39 33 43 39 34 41 41 35 45 40 34 44 38 32 42 39 33 43 
52 39 48 50 37 46 51 38 47 51 38 47 51 38 47 50 37 46 48 35 44 48 35 44 47 34 43 48 35 44 48 35 44 48 35 44 49 36 45 49 36 45 49 36 45 48 35 44 48 35 44 48 35 44 48 35 44 47 34 43 47 34 41 47 34 41 47 34 43 48 35 44 49 38 46 48 37 45 48 37 45 48 37 45 47 36 44 48 37 45 48 37 45 49 38 46 50 39 47 49 38 46 47 36 44 47 36 44 46 34 44 47 35 45 46 35 43 48 37 45 49 38 46 49 38 46 49 38 46 49 38 46 51 38 47 50 39 47 51 40 48 52 41 49 50 39 47 51 38 47 45 32 41 44 31 40 38 25 34 34 23 31 22 17 21 22 15 22 20 15 19 20 15 21 19 14 20 20 15 21 21 16 23 23 16 23 22 15 22 31 21 29 33 22 30 33 22 28 35 22 29 37 25 29 41 28 35 47 34 41 47 36 44 47 37 45 45 35 44 42 35 43 40 34 44 37 34 43 38 34 49 37 34 45 35 32 43 36 33 42 39 33 43 39 33 43 40 33 41 40 33 41 45 35 43 47 37 45 44 37 44 45 38 46 44 37 45 42 35 43 42 35 43 42 35 43 41 34 42 40 34 44 39 33 43 39 33 43 40 35 42 40 34 44 38 32 44 38 32 42 
50 37 46 52 39 48 51 38 47 50 37 46 51 38 47 50 37 46 49 36 45 49 36 45 48 35 44 48 35 44 48 35 44 48 35 44 48 35 44 49 36 43 48 35 42 48 35 44 48 35 44 48 35 42 48 35 42 48 35 44 47 34 41 47 34 41 48 35 44 48 35 44 48 37 45 49 38 46 48 37 45 47 36 44 47 36 44 48 37 45 49 38 46 50 39 47 50 39 47 48 37 45 48 37 45 46 35 43 47 36 44 47 36 44 48 37 45 48 37 45 49 38 46 49 38 46 49 38 46 49 38 46 51 38 47 49 38 46 50 39 47 51 40 48 49 38 46 50 39 47 45 32 41 43 30 39 36 25 33 34 23 31 21 16 22 21 16 20 21 16 22 20 15 21 19 14 20 20 15 21 21 16 22 22 15 22 23 16 23 32 22 31 33 22 30 33 22 28 34 23 29 37 24 31 42 29 36 47 34 43 48 35 44 47 37 45 45 35 44 41 33 44 40 34 44 37 34 43 37 33 47 37 34 45 35 32 43 38 32 42 38 32 42 39 34 41 39 34 41 42 35 42 45 35 43 44 37 44 45 38 45 44 37 44 44 37 45 42 35 43 42 35 43 42 35 43 40 35 42 40 35 42 38 32 42 37 34 43 37 34 43 40 34 44 38 32 42 38 32 42 
49 36 45 50 37 46 48 35 44 49 36 45 48 35 44 49 36 45 48 35 44 47 34 43 46 33 42 47 34 43 48 35 44 48 35 44 47 36 44 48 37 45 48 37 45 48 37 45 49 38 46 47 36 44 47 36 44 46 35 43 46 35 43 46 35 43 46 35 43 47 34 43 47 36 44 47 36 44 47 36 44 47 36 44 47 36 44 47 36 44 48 37 45 47 36 44 48 37 45 48 37 45 47 36 44 47 36 44 47 36 44 48 37 45 47 36 44 47 36 44 47 36 44 48 37 45 48 37 45 50 37 46 50 37 46 50 37 46 50 37 46 50 37 46 47 36 44 46 35 43 40 29 37 41 30 38 36 26 34 33 23 31 22 17 23 22 17 23 20 15 21 20 15 21 18 16 21 21 14 21 22 15 22 24 17 24 25 18 25 31 22 27 32 21 27 34 23 27 36 25 31 38 25 32 43 31 35 47 35 39 45 34 40 45 35 43 41 34 42 40 32 43 38 35 44 38 35 46 38 36 49 36 34 45 38 35 44 38 37 45 37 36 42 38 35 42 40 35 42 40 35 42 43 33 42 44 34 43 44 34 43 44 34 42 42 35 42 42 35 42 41 34 42 43 33 42 41 34 42 39 33 43 37 34 43 40 34 44 41 33 44 42 34 45 38 32 42 40 32 43 
50 37 46 50 37 46 48 35 44 48 35 44 48 35 44 48 35 44 46 33 42 47 34 43 47 34 43 48 35 44 48 35 44 48 37 45 47 36 44 48 37 45 48 37 45 48 37 45 47 36 44 48 37 45 47 36 44 46 35 43 46 34 44 45 33 43 46 35 43 45 34 42 47 36 44 47 36 44 47 36 44 48 37 45 47 36 44 49 38 46 47 35 45 47 36 44 48 37 45 48 37 45 47 36 44 48 37 45 47 35 45 48 36 46 47 36 44 46 35 43 47 36 44 47 36 44 50 37 46 50 37 46 51 38 47 50 37 46 49 36 45 48 35 44 47 34 43 44 33 41 41 30 38 39 29 37 35 25 33 33 23 31 22 17 23 21 16 22 20 15 21 20 15 21 20 15 21 21 14 21 21 14 21 24 18 22 24 18 22 30 21 26 32 21 29 33 22 28 36 23 30 40 25 32 42 30 34 47 35 39 44 35 40 44 33 41 41 34 42 41 33 44 38 35 46 37 34 45 38 36 47 38 37 45 38 35 44 38 35 44 39 36 43 41 36 43 41 36 43 40 35 42 41 34 42 43 33 42 44 34 43 43 33 41 42 35 42 42 35 42 41 34 41 41 34 41 41 34 42 43 31 43 43 33 42 43 33 42 42 34 45 42 34 47 40 32 43 41 31 40 
