P3
100 50
255
30 35 64 30 34 63 29 36 65 30 37 66 30 35 65 29 36 65 29 34 64 31 36 66 31 36 65 31 37 63 32 37 66 31 38 66 30 40 65 35 41 67 34 40 66 42 48 70 44 52 73 49 58 75 55 65 77 58 71 77 65 80 83 68 84 84 65 84 80 65 84 80 64 83 79 64 83 81 61 79 81 61 76 81 55 69 80 50 64 77 43 55 69 38 49 67 33 44 64 32 42 67 33 40 68 30 37 65 29 34 63 32 37 66 31 36 65 32 37 66 30 35 64 30 35 64 28 33 62 30 35 64 28 33 62 30 35 64 30 35 64 30 35 64 31 36 65 31 36 65 29 34 63 30 35 64 29 34 63 30 35 64 30 37 65 31 36 65 29 36 64 30 35 64 30 37 65 32 37 66 31 38 66 32 39 68 31 38 67 31 38 67 31 38 67 29 36 65 28 35 64 30 37 66 30 35 67 31 37 69 30 36 68 30 36 68 30 36 68 29 35 67 30 36 68 30 36 68 28 37 68 28 37 68 28 37 70 29 38 71 29 38 71 30 39 72 33 42 75 31 40 71 32 41 70 32 38 70 32 37 69 32 36 71 32 36 71 30 38 74 29 40 72 27 40 72 27 41 70 32 38 70 37 38 69 45 38 71 53 39 72 54 37 69 57 41 70 60 41 71 
29 34 63 28 35 63 29 36 65 29 36 65 30 35 65 31 36 66 30 35 67 31 36 66 32 36 65 32 38 64 31 38 64 31 38 64 30 37 63 34 40 64 35 41 65 43 49 73 45 53 74 51 60 77 56 66 76 59 72 78 66 80 83 69 85 84 68 85 77 68 85 79 66 82 79 65 81 78 63 79 79 59 77 79 56 69 78 52 64 76 42 54 70 39 47 66 36 44 65 34 41 67 33 40 66 31 37 63 29 36 64 33 38 67 32 37 66 31 36 65 31 36 65 31 36 65 30 35 64 30 35 64 30 35 64 30 35 64 30 35 64 31 36 65 32 37 66 30 35 64 30 35 64 31 36 65 28 33 62 29 36 64 31 36 65 30 37 65 31 36 65 29 36 64 29 36 64 31 38 67 31 38 67 32 39 68 32 39 68 31 38 67 30 37 66 30 37 66 30 37 66 30 37 66 28 34 66 31 37 69 30 36 68 30 36 68 28 34 66 29 35 67 30 36 68 30 36 68 27 36 67 29 38 69 28 37 70 29 38 71 29 38 69 29 40 72 32 41 74 31 40 71 31 40 71 32 38 70 32 36 71 31 35 72 31 35 70 29 37 73 30 38 74 27 40 72 29 38 69 33 40 69 38 39 69 44 39 69 53 38 71 55 38 72 58 42 71 60 41 69 
30 35 64 29 36 65 29 36 65 29 36 65 28 35 64 31 36 66 30 35 67 32 37 66 33 37 66 30 37 66 27 37 62 28 35 61 25 35 60 35 41 67 37 43 67 50 55 77 53 58 77 60 63 80 64 68 79 68 71 76 74 80 80 78 84 80 80 87 79 81 88 80 77 84 77 75 82 75 72 78 76 72 78 78 63 70 78 58 65 75 47 54 70 42 49 67 37 43 65 34 41 67 33 40 66 30 37 63 29 36 64 30 40 67 32 39 67 33 38 67 33 38 67 31 38 66 30 37 65 30 35 64 29 34 63 30 35 64 31 36 65 30 35 64 31 36 65 31 36 65 30 35 64 30 35 64 29 34 63 30 35 64 32 37 66 30 37 65 29 36 64 28 35 63 29 36 65 30 37 66 31 38 67 32 39 68 32 39 68 30 37 66 30 37 66 29 36 65 29 36 65 29 35 67 31 37 69 32 38 70 31 37 69 30 36 68 28 34 66 27 33 65 27 36 67 28 34 66 27 36 69 28 37 70 28 37 70 28 37 70 29 38 69 29 38 71 29 38 71 30 39 70 29 40 70 31 37 69 31 35 70 30 34 71 31 35 72 29 37 73 29 37 73 29 40 72 30 39 72 34 39 71 39 38 69 47 38 69 57 38 70 62 38 72 62 42 70 63 43 71 
29 34 63 29 34 64 31 36 66 29 34 64 29 36 64 31 37 63 31 34 65 32 36 65 32 37 66 31 38 67 28 38 63 30 37 63 30 37 63 36 40 67 37 43 67 51 53 76 53 58 77 61 62 80 65 67 79 69 72 79 74 80 80 79 85 83 82 89 82 82 89 81 77 84 77 76 82 78 71 80 79 69 78 77 63 70 76 58 65 75 48 56 69 43 50 68 39 46 65 37 43 67 34 40 66 30 37 63 31 36 65 32 39 67 32 39 67 33 38 67 33 38 67 31 36 65 31 36 65 29 34 63 30 35 64 30 35 64 31 36 65 30 35 64 30 35 64 32 37 66 31 36 65 30 35 64 28 33 62 28 33 62 33 38 67 29 36 64 29 36 64 29 36 65 29 36 65 30 36 68 31 38 67 31 38 67 32 38 70 30 37 66 30 37 66 29 36 65 30 37 66 31 37 69 31 37 69 31 37 69 31 37 69 29 35 67 30 36 68 26 35 66 27 36 67 28 37 68 28 37 70 28 37 70 29 38 71 28 37 70 29 38 69 29 38 71 29 38 71 29 40 70 30 41 71 32 37 69 32 36 71 31 35 72 32 38 74 29 37 73 29 37 73 30 39 72 29 40 72 33 38 70 41 38 69 49 38 68 60 39 70 65 40 72 67 42 71 67 41 70 
29 35 61 29 34 63 31 37 63 30 35 64 29 34 63 28 35 63 27 34 62 29 34 63 29 34 63 31 36 65 33 38 67 32 37 66 33 37 66 38 42 71 41 42 70 55 53 77 58 56 78 60 61 79 68 67 81 73 73 81 77 81 84 81 87 87 85 90 86 85 92 85 81 87 83 81 87 85 72 81 80 72 77 80 65 70 76 62 66 75 53 59 71 51 54 71 45 48 67 39 44 66 36 38 63 33 37 64 33 37 66 34 37 68 34 37 68 30 37 65 31 36 65 30 35 64 28 35 63 31 35 64 30 35 64 30 35 64 32 37 66 31 36 65 31 36 65 30 35 64 28 33 62 29 34 63 28 33 62 28 33 62 30 35 65 30 35 65 31 38 67 32 37 67 31 38 67 30 36 68 30 36 68 30 36 68 31 37 69 29 38 69 29 38 69 28 37 68 28 37 70 26 35 68 29 38 69 32 38 70 32 38 70 30 39 70 30 36 68 30 36 68 28 37 68 30 36 68 31 37 69 31 37 69 32 38 70 32 38 70 32 38 70 29 38 69 30 36 68 28 37 70 30 38 74 33 39 73 32 41 74 34 43 76 33 42 75 30 40 75 28 41 75 27 40 74 28 39 71 29 34 66 42 37 67 50 40 67 65 42 70 66 42 68 84 38 74 85 39 75 
30 36 62 30 36 62 32 37 66 32 38 64 30 35 64 31 36 68 28 35 63 29 34 63 30 35 64 31 36 65 30 35 64 33 38 67 32 37 66 39 40 70 40 41 71 50 50 76 53 53 77 61 59 80 66 65 81 72 70 83 79 79 87 83 84 88 86 87 89 85 87 84 83 84 89 82 83 87 72 77 81 71 74 81 64 66 78 61 63 75 55 56 74 49 52 71 44 46 67 37 41 66 33 37 64 32 36 65 32 36 65 32 37 67 32 37 67 30 37 65 30 35 64 30 35 64 28 35 63 27 32 61 29 34 63 28 33 62 31 36 65 32 37 66 32 37 66 32 37 66 30 35 64 30 35 64 29 34 63 30 35 64 31 36 66 32 37 67 32 37 67 31 38 67 32 39 68 30 37 66 30 36 68 31 37 69 30 36 68 29 38 69 30 39 70 29 38 69 28 37 70 28 37 70 29 38 69 31 37 69 32 38 70 31 37 69 31 37 69 31 37 69 31 37 69 31 37 69 32 38 70 31 37 69 30 39 70 31 37 69 29 38 69 31 37 69 31 37 69 30 39 72 28 37 70 31 40 73 33 39 75 31 40 71 31 40 73 29 40 72 27 40 72 27 40 72 29 40 70 31 36 66 43 38 68 54 41 69 66 43 71 69 44 66 85 41 74 84 40 73 
30 36 62 30 36 62 31 36 65 32 37 66 32 37 66 31 36 65 31 38 66 29 36 65 30 35 65 30 35 64 29 34 63 32 37 66 34 38 67 38 39 69 38 42 71 46 46 72 51 49 73 57 55 77 64 63 81 71 68 85 83 77 89 84 81 90 85 82 89 86 84 89 84 81 90 84 78 88 74 72 83 72 70 83 65 64 78 61 60 74 54 55 75 51 49 71 43 45 66 38 40 65 33 37 64 30 34 63 29 34 63 30 35 64 30 35 64 28 35 63 28 33 62 28 33 62 27 34 62 29 34 63 30 35 64 30 35 64 31 36 65 32 37 66 32 37 66 32 37 66 31 36 65 31 36 65 30 35 64 30 35 64 31 36 66 30 35 65 32 37 67 31 38 67 31 38 67 31 37 69 31 37 69 31 37 69 29 38 69 29 38 69 29 38 69 29 38 69 29 38 71 28 37 70 29 38 69 32 38 70 32 38 70 32 38 70 30 39 70 32 38 70 33 38 70 30 39 70 32 38 70 32 38 70 32 38 70 32 38 70 31 37 69 32 38 70 31 37 69 29 38 71 28 36 72 29 38 71 32 36 71 32 39 68 32 36 71 27 38 70 28 38 73 27 40 72 29 37 73 33 36 67 45 40 70 56 43 71 67 44 72 69 43 70 83 42 74 85 41 76 
31 37 63 31 36 65 33 38 67 31 36 65 33 38 67 31 36 65 31 36 66 30 37 65 29 34 64 31 36 65 32 37 66 34 39 68 33 38 68 36 39 70 38 42 71 42 42 70 48 45 74 52 49 76 59 55 80 64 61 82 73 64 85 77 68 87 78 70 85 76 70 84 76 67 84 74 65 84 67 60 78 65 57 78 57 54 75 53 51 73 50 48 72 45 45 71 43 40 69 36 37 65 33 36 67 30 35 64 28 35 63 28 38 65 30 37 65 30 37 65 31 36 65 30 35 64 30 35 64 30 35 64 31 36 65 32 37 66 31 36 65 31 36 65 30 35 64 29 34 63 29 34 63 30 35 64 28 33 62 28 33 62 30 35 65 29 34 64 30 35 65 29 36 65 30 37 66 30 36 68 30 36 68 32 38 70 29 38 69 31 40 71 31 40 71 31 40 71 31 40 73 31 40 73 30 39 70 32 38 70 32 38 70 31 37 69 32 38 70 32 38 70 32 38 70 33 39 71 31 37 69 32 38 70 32 37 69 30 36 68 31 37 69 32 38 70 33 39 71 31 40 73 30 38 74 32 38 72 30 38 74 30 39 72 31 40 73 27 38 70 28 39 71 28 41 73 30 39 72 34 37 68 44 39 69 53 40 68 64 39 68 68 39 67 79 40 69 79 38 68 
31 37 63 31 36 65 33 38 67 32 37 67 33 38 67 33 38 67 31 36 66 29 36 64 29 36 65 31 36 65 32 37 66 33 40 68 34 39 68 36 39 70 36 40 69 39 43 72 41 42 70 49 46 75 54 50 77 62 53 80 68 58 83 71 61 85 73 61 83 75 62 82 69 59 83 68 56 80 61 51 75 60 52 76 53 48 71 51 46 69 45 45 71 45 42 69 40 40 68 34 38 65 32 38 64 29 36 64 29 36 64 31 38 66 31 38 66 31 38 66 32 37 66 31 36 65 32 37 66 29 36 64 31 36 65 31 36 65 31 36 65 31 36 65 30 35 64 29 34 63 28 33 62 28 33 62 27 32 61 28 33 62 29 34 64 30 35 65 30 35 65 29 36 65 29 36 65 29 36 65 29 35 67 31 37 69 30 39 70 32 41 72 32 41 72 32 41 72 32 41 74 32 41 74 30 39 70 31 37 69 31 37 69 31 37 69 31 37 69 32 38 70 31 40 71 33 39 71 32 38 70 32 38 70 29 38 69 29 38 69 29 38 69 31 37 69 33 39 71 30 41 73 31 39 75 33 39 73 31 40 73 31 40 73 29 38 71 27 38 70 29 40 72 30 41 73 29 40 70 34 37 68 44 39 69 54 41 69 63 39 65 66 38 63 73 37 65 75 36 63 
30 35 64 30 36 62 31 36 65 32 37 66 31 36 66 30 35 65 31 36 65 30 37 66 29 36 65 31 38 66 32 37 66 31 38 66 31 38 66 33 38 68 34 39 69 37 40 73 41 41 75 45 44 76 46 45 77 53 48 80 57 50 83 60 51 82 62 51 83 63 50 80 62 53 84 60 51 80 52 45 76 50 45 77 46 43 74 45 42 73 41 40 71 40 39 70 37 38 69 32 37 66 30 35 65 28 35 63 28 35 63 26 38 64 27 37 64 30 35 64 30 35 64 29 36 64 30 35 64 30 35 64 29 34 63 29 34 63 29 34 63 29 34 63 29 34 63 28 33 62 28 33 62 28 33 62 28 33 62 28 33 62 30 35 65 31 36 66 31 36 66 29 36 65 29 36 65 29 35 67 28 34 66 31 37 69 29 38 69 31 40 71 32 41 72 31 40 71 31 40 73 31 40 73 29 38 71 30 36 70 31 37 71 28 37 70 32 38 72 32 38 72 32 41 74 34 40 74 31 37 69 30 36 68 26 35 66 30 36 68 29 35 67 30 39 70 33 39 71 31 40 73 27 37 72 32 38 72 29 38 71 32 38 70 31 37 71 27 38 70 27 38 70 28 41 73 31 40 71 37 38 69 46 40 68 55 40 69 64 38 65 67 37 65 76 37 64 77 37 61 
29 35 61 29 35 61 30 35 64 30 35 65 31 36 65 31 36 66 31 36 65 29 36 65 29 36 65 30 37 65 31 36 65 30 37 65 30 37 65 32 37 67 34 39 69 35 39 74 38 41 74 41 44 77 46 45 79 50 46 81 54 47 81 54 46 83 57 47 81 61 47 82 57 50 84 57 47 81 50 43 76 49 43 77 44 40 73 44 40 73 41 40 72 38 39 70 37 38 69 31 36 65 30 35 65 28 35 63 26 33 61 27 37 62 26 36 61 31 36 65 30 35 64 28 35 63 30 35 64 30 35 64 30 35 64 30 35 64 29 34 63 28 33 62 28 33 62 27 32 61 28 33 62 29 34 63 29 34 63 29 34 63 30 35 65 30 35 65 32 37 67 30 37 66 28 35 64 28 34 66 28 34 66 31 37 69 31 37 69 32 41 72 31 40 71 31 40 71 31 40 73 31 40 73 30 39 70 30 36 68 31 37 69 31 37 69 31 37 69 31 37 69 33 39 71 33 39 71 32 38 70 31 37 69 28 34 66 30 35 67 30 36 68 29 38 69 32 38 70 30 39 72 29 40 72 31 37 71 29 38 71 32 38 70 31 37 73 25 38 70 29 38 71 29 42 74 32 41 74 37 38 69 46 39 70 54 40 66 65 39 66 67 37 65 77 37 64 77 37 63 
29 35 61 28 33 62 30 35 64 30 35 64 30 35 65 30 35 64 30 35 64 29 36 65 28 35 64 29 36 64 29 36 64 29 36 65 30 35 67 30 36 68 30 36 68 29 40 72 34 40 74 36 42 76 38 42 77 37 43 77 43 43 79 42 42 78 43 43 79 44 42 79 42 42 78 41 41 77 36 39 74 36 38 76 34 37 72 33 37 72 33 37 72 33 38 70 33 37 72 32 37 67 30 37 66 29 36 64 29 36 64 26 38 62 27 37 62 29 34 63 29 34 63 26 36 63 30 35 64 29 34 63 31 36 65 29 34 63 30 35 64 29 34 63 29 34 63 29 34 63 30 35 64 30 35 64 30 35 64 30 35 64 30 35 65 32 37 67 32 39 68 32 37 67 29 36 65 28 35 64 29 35 67 32 38 70 31 37 69 30 39 70 30 39 70 29 38 69 29 38 71 30 39 72 29 38 71 31 37 71 31 37 71 31 37 71 31 40 73 32 38 72 34 38 73 32 41 74 30 36 68 31 37 69 27 33 65 27 36 67 28 37 68 30 36 68 31 37 69 30 39 72 29 37 73 31 37 69 30 39 70 30 36 68 29 35 69 25 36 68 27 36 69 28 39 71 31 37 69 37 36 67 49 40 69 56 41 70 67 41 68 71 41 69 81 38 65 82 38 63 
28 33 62 28 33 62 27 34 62 28 35 61 28 35 64 28 35 64 29 35 67 29 36 65 28 35 63 29 36 64 29 36 64 28 35 64 28 35 64 28 37 68 27 36 67 28 39 71 30 39 72 35 41 75 36 42 76 37 41 78 38 41 76 40 40 76 42 41 75 43 41 78 39 42 77 39 42 77 35 38 71 35 38 73 32 36 73 32 36 71 32 36 71 32 36 71 31 37 69 30 36 68 31 36 66 29 36 64 27 37 64 27 37 62 31 38 64 28 35 63 29 34 63 29 34 64 28 34 60 28 33 62 29 34 63 28 33 62 29 34 63 30 35 64 29 34 63 29 34 63 31 36 65 30 35 64 31 36 65 31 36 65 32 37 66 32 37 67 32 37 67 30 37 66 29 36 65 28 35 64 28 35 64 31 37 69 30 39 70 30 39 70 30 39 72 30 39 72 30 39 72 30 39 72 32 38 70 31 37 71 31 38 67 31 37 69 32 38 70 32 38 70 32 38 70 32 39 68 30 36 68 31 37 71 29 33 68 29 35 67 30 36 68 31 37 69 31 37 71 29 38 71 29 37 73 31 37 69 29 38 69 29 35 67 29 35 67 25 34 65 26 35 68 28 39 71 31 38 67 38 37 69 48 39 70 58 42 71 70 41 69 75 41 68 79 39 63 82 38 65 
29 34 63 29 36 64 28 35 63 28 35 63 28 35 64 28 35 64 28 35 64 28 35 64 27 34 63 30 37 66 31 38 67 31 38 67 30 37 65 28 37 66 27 36 67 24 33 64 24 35 65 26 37 67 27 38 70 29 38 71 28 37 70 26 34 70 26 34 70 27 35 71 28 37 70 28 37 70 27 36 69 26 35 68 26 35 68 25 34 67 25 34 67 28 34 68 28 34 66 28 34 66 27 36 65 30 35 64 29 34 63 30 36 62 30 36 62 33 38 67 32 37 66 32 37 67 31 36 65 31 36 65 30 35 64 28 33 62 29 34 63 29 34 63 30 35 64 28 33 62 30 35 64 29 34 63 30 35 64 29 34 64 29 34 64 29 34 64 31 36 66 31 36 66 29 36 65 28 34 66 29 35 67 31 38 66 32 38 70 31 40 71 31 40 71 30 39 72 30 39 70 30 39 72 30 39 70 30 39 70 31 37 69 33 39 71 33 39 73 32 38 72 34 40 74 33 39 73 29 38 71 31 37 71 29 35 69 30 36 70 30 36 72 31 37 71 31 37 71 29 40 72 29 38 71 31 37 69 31 37 69 31 37 71 31 37 69 29 35 67 27 36 67 29 38 71 32 38 70 36 37 68 47 38 69 58 39 67 66 40 67 72 39 66 81 38 65 82 38 65 
29 36 64 29 36 64 29 36 64 28 35 64 28 35 63 29 36 65 27 34 63 28 35 64 28 35 64 29 36 64 30 37 66 31 37 69 28 37 68 26 35 64 27 36 67 25 34 63 25 34 65 29 38 69 29 38 71 29 38 71 28 37 70 26 37 69 26 36 71 26 36 71 27 38 70 27 36 67 28 37 70 26 37 69 27 36 69 27 36 69 29 35 69 29 35 67 29 35 67 29 36 65 32 35 66 30 35 64 30 35 64 30 36 62 31 37 63 31 36 66 31 36 65 31 36 66 30 35 64 30 35 64 30 35 64 29 34 63 28 33 62 28 33 62 29 34 63 29 34 63 30 35 64 29 34 63 30 37 65 30 35 64 29 34 64 29 36 65 32 37 67 31 36 66 31 36 66 29 36 65 29 35 67 32 38 70 32 38 70 33 39 73 31 40 71 29 38 69 29 38 69 30 39 70 29 38 71 30 39 70 29 38 71 30 39 72 31 40 73 32 38 72 34 40 74 33 39 73 33 39 71 32 38 74 28 37 70 31 37 71 31 37 71 31 37 71 31 37 73 29 38 71 30 39 72 32 38 72 31 37 69 31 37 69 32 37 67 27 36 69 27 36 67 28 37 68 33 38 70 37 36 68 49 40 69 59 40 68 68 39 67 72 38 65 79 39 65 80 40 66 
30 37 65 30 37 65 29 36 64 29 36 65 29 36 65 28 35 64 28 35 64 28 35 64 28 35 64 30 37 66 31 38 67 30 37 66 30 37 66 30 37 65 30 37 66 27 34 62 28 35 64 30 37 66 31 37 69 29 38 67 29 38 67 27 36 67 27 36 69 26 37 67 28 34 66 25 34 65 27 36 67 28 37 68 28 37 70 30 36 68 29 35 69 29 35 67 30 37 66 30 37 66 30 37 66 33 38 67 34 38 67 34 38 65 32 38 64 29 34 64 29 36 64 29 34 63 29 34 63 27 34 62 29 34 63 29 34 63 28 33 62 29 34 63 29 34 63 30 35 64 29 34 63 29 34 63 30 35 64 30 37 65 29 34 63 32 37 67 32 37 67 31 38 67 31 38 67 32 37 67 30 36 68 30 39 70 31 40 71 30 39 70 31 40 71 27 38 68 27 36 67 29 38 69 29 37 73 30 39 72 29 38 71 29 38 69 30 39 72 32 38 72 33 39 71 33 39 73 30 39 70 32 38 72 31 37 71 32 38 72 32 38 72 33 37 72 32 38 72 29 38 69 29 35 69 29 38 69 31 37 69 31 37 69 31 38 67 27 36 69 27 38 70 31 40 71 35 40 72 40 39 70 49 40 69 59 40 68 67 37 65 71 37 64 78 42 68 79 44 68 
31 36 65 32 37 66 32 37 66 30 35 65 29 36 65 28 35 64 28 35 64 29 36 65 29 36 65 31 38 67 32 39 68 30 37 66 29 35 67 29 36 65 29 36 65 28 33 62 30 35 64 30 37 65 31 38 67 28 37 66 26 35 64 27 34 63 28 37 68 28 37 68 28 35 64 27 34 63 28 37 68 30 36 68 30 37 66 30 37 66 30 35 65 30 35 65 31 36 66 30 35 65 30 35 64 33 37 64 32 38 64 31 37 63 31 37 63 29 36 65 28 35 63 30 35 64 28 33 62 27 34 62 29 34 63 29 34 63 28 33 62 28 33 62 28 33 62 29 34 63 29 34 63 30 35 64 31 36 65 30 35 64 29 34 64 31 36 66 33 38 68 31 38 67 30 37 66 30 37 66 30 37 66 33 40 69 31 40 71 31 40 71 31 40 71 29 38 71 30 39 70 30 39 72 29 38 71 29 38 71 29 38 71 31 37 71 31 37 69 30 36 70 32 38 72 33 39 73 32 38 72 30 39 72 30 39 72 32 38 72 29 38 71 31 37 71 31 37 71 28 37 70 27 38 70 31 37 69 28 37 68 30 36 68 30 37 66 27 36 67 28 37 70 31 40 73 35 40 72 40 39 70 49 40 69 60 41 69 68 38 64 71 37 64 74 42 66 74 42 66 
32 39 67 31 38 66 32 37 66 30 35 64 28 34 66 28 35 64 28 35 64 28 35 64 28 34 66 32 38 70 31 38 67 28 35 64 27 34 63 28 33 62 28 33 62 29 32 63 31 35 64 33 37 64 31 36 65 30 35 65 27 34 62 24 31 60 28 35 64 27 37 64 29 34 63 28 33 62 31 36 65 31 36 65 31 36 66 31 36 66 30 35 65 28 33 63 29 32 63 29 34 64 30 35 64 34 35 63 32 36 63 31 35 62 30 34 61 30 35 65 28 33 62 27 32 61 28 33 62 25 32 60 26 31 60 27 32 61 28 33 62 28 33 62 28 33 62 28 33 62 28 33 62 28 33 62 30 35 64 28 35 63 27 32 62 29 36 65 32 37 67 31 38 67 30 37 66 31 38 67 31 38 67 34 40 72 34 40 72 32 41 72 32 41 74 29 38 71 30 39 72 30 41 73 30 39 68 28 37 70 28 37 70 30 36 72 31 37 71 31 37 71 30 36 70 31 37 71 30 39 72 32 38 72 30 39 72 30 39 72 32 38 72 31 37 71 31 37 71 29 38 69 28 39 71 31 37 69 31 37 69 29 35 67 30 35 67 25 34 65 28 37 68 31 40 71 35 40 72 40 39 70 50 39 69 59 40 68 68 38 66 70 36 63 67 37 61 64 36 61 
30 37 66 30 37 66 30 37 66 29 36 65 28 35 64 28 35 64 28 35 64 29 36 65 29 36 65 31 38 67 31 38 67 29 36 65 28 35 64 29 36 65 29 34 63 30 36 62 27 34 62 30 35 64 29 34 63 29 36 64 28 35 64 27 34 62 28 38 65 29 36 65 27 34 62 28 33 62 31 38 66 32 37 66 30 35 65 31 34 65 30 35 65 29 34 64 29 34 64 29 34 64 29 34 64 30 35 64 31 37 63 30 35 64 30 36 62 30 35 64 29 35 61 28 33 62 29 34 63 27 32 61 27 32 61 28 33 62 28 33 62 28 33 62 29 34 63 30 35 64 29 34 63 30 35 64 28 35 63 27 34 63 26 33 62 27 34 63 30 37 66 29 36 65 29 36 65 28 37 68 28 37 68 30 39 72 30 39 70 30 39 70 30 39 72 30 39 72 30 39 72 31 40 73 30 39 72 29 38 71 29 38 71 28 37 70 28 37 70 28 37 70 30 36 70 31 37 71 32 38 72 30 39 72 31 40 73 33 39 71 33 39 71 32 38 70 32 37 69 29 38 69 28 39 71 31 37 69 32 37 69 31 37 69 29 35 67 24 37 69 28 37 68 32 39 68 36 39 70 45 38 69 54 38 67 62 39 68 69 39 67 71 38 67 68 38 62 67 37 61 
28 35 64 28 35 64 29 36 65 28 35 64 28 35 64 28 35 64 28 35 63 30 37 65 31 38 67 30 37 66 30 37 66 30 37 65 30 35 65 29 36 65 30 37 65 26 36 63 27 34 63 26 33 62 28 35 64 30 35 65 29 36 64 30 37 66 29 36 65 28 35 64 26 33 62 28 33 62 31 37 63 29 36 65 28 33 62 28 35 63 30 35 65 29 34 64 29 36 65 28 35 64 29 34 64 29 36 64 30 37 65 28 35 64 28 35 63 31 36 65 32 38 64 31 36 65 29 34 63 28 33 62 28 33 62 29 34 63 29 34 63 29 34 63 31 36 65 31 36 65 29 34 63 29 34 63 27 34 63 24 33 62 26 33 62 27 33 65 29 35 67 26 35 66 26 35 66 29 38 69 26 37 67 26 37 67 27 38 68 25 36 68 26 37 69 30 41 73 30 39 72 30 39 72 30 39 72 30 39 72 29 38 71 28 37 70 27 36 69 26 35 66 29 38 71 29 37 73 30 36 70 30 39 72 32 41 72 32 41 72 34 40 72 33 39 71 31 37 69 29 38 67 25 38 70 29 35 67 29 35 69 28 37 70 27 38 68 27 38 68 27 38 66 33 38 67 41 38 69 50 37 65 57 36 67 64 37 68 71 38 69 73 40 67 71 39 63 69 40 62 
29 36 64 29 36 65 30 37 66 29 36 65 30 35 65 30 35 65 28 35 64 29 36 65 31 38 67 30 37 66 30 37 66 29 36 65 28 35 64 29 36 65 29 36 65 29 36 65 29 36 65 28 35 64 29 36 65 29 36 65 30 36 68 30 37 66 29 36 64 29 36 64 28 35 64 27 34 63 30 37 66 30 37 65 28 35 64 28 35 64 27 34 63 29 36 65 29 36 65 28 35 64 27 34 63 30 37 66 27 36 65 28 35 63 30 35 65 32 37 66 33 38 67 31 36 66 32 38 64 31 37 61 29 36 64 28 35 63 28 33 62 28 33 62 27 34 63 29 34 63 27 34 62 27 34 63 26 33 62 28 35 64 27 34 63 26 35 64 27 36 65 27 36 67 26 35 66 27 38 68 29 38 71 28 39 69 28 39 69 28 37 68 29 38 71 31 40 73 30 39 72 31 40 73 32 41 74 31 39 75 30 38 74 29 37 73 29 37 73 29 38 71 33 39 73 29 40 72 30 38 74 31 40 73 31 40 73 32 41 74 33 39 71 30 39 70 30 36 68 32 37 67 29 38 69 30 36 70 30 36 70 28 37 70 28 37 70 24 38 67 28 39 69 34 38 67 41 38 67 53 38 69 58 38 66 65 36 66 71 38 67 71 38 65 69 39 63 69 40 62 
30 37 66 30 37 66 30 37 65 29 36 65 29 34 64 28 35 64 29 36 65 31 36 66 31 38 67 30 37 66 30 37 66 27 36 65 29 36 65 29 36 65 30 37 66 30 37 66 30 37 66 28 35 64 28 35 64 29 36 65 28 35 63 29 36 64 29 36 64 30 37 65 28 35 64 27 34 63 31 36 66 30 35 64 27 34 63 28 35 64 28 35 64 28 35 64 29 36 65 27 34 63 27 34 63 29 36 65 30 37 66 29 36 65 30 35 64 32 37 66 32 37 66 32 38 64 32 37 66 30 36 62 30 37 65 30 35 64 29 34 63 28 33 62 27 32 62 27 32 61 25 35 62 27 34 63 26 33 62 27 34 63 28 35 64 28 34 66 27 36 67 27 36 67 27 36 67 28 37 68 29 38 69 29 38 69 29 38 69 28 37 70 29 38 71 31 42 74 31 40 73 34 40 76 31 39 75 32 40 76 31 39 75 29 37 73 27 37 72 27 40 74 30 39 72 29 39 74 31 40 73 31 40 73 31 40 73 30 41 73 31 39 75 29 38 71 28 37 68 29 38 67 28 37 68 30 36 70 30 36 70 28 37 70 28 37 70 24 38 67 26 37 67 32 37 66 42 37 69 52 37 68 58 37 68 64 38 67 71 38 67 71 36 66 68 38 62 69 40 62 
30 37 66 30 37 66 29 36 65 28 35 64 28 35 64 28 35 64 28 35 64 29 36 65 29 36 65 30 37 66 30 37 66 27 36 65 30 37 66 30 37 65 29 36 64 30 37 66 30 37 66 30 37 65 29 36 64 28 35 64 30 37 65 28 35 63 30 37 65 29 36 64 27 34 63 26 33 62 30 37 66 29 36 64 30 35 64 30 35 64 31 36 65 32 37 66 31 36 65 32 37 66 30 35 64 30 35 64 27 34 62 28 35 63 29 34 63 30 35 64 29 34 63 30 36 62 30 35 64 30 35 64 28 35 63 29 34 63 28 33 62 26 33 61 26 33 61 26 31 60 25 34 63 26 33 62 29 36 65 28 33 63 27 36 67 27 36 67 28 37 68 28 37 68 27 38 70 29 38 69 30 39 72 32 41 74 31 40 73 30 39 72 30 39 72 34 40 74 33 42 75 34 40 74 32 40 76 31 41 76 29 39 75 29 39 74 30 38 74 29 39 74 31 40 73 30 40 75 31 40 73 32 41 74 31 40 73 32 41 74 33 39 73 30 39 72 29 38 71 30 39 72 30 39 70 29 38 71 29 38 71 29 38 71 28 39 71 25 39 68 28 37 68 37 38 68 43 38 68 55 40 69 61 37 69 64 38 65 70 40 68 72 39 68 70 40 64 70 40 64 
31 38 66 30 37 66 30 37 66 30 37 65 28 35 64 29 36 65 29 36 65 30 37 66 30 35 65 31 36 66 30 37 66 30 37 66 29 36 65 29 36 64 29 36 64 31 38 67 31 38 67 30 37 65 29 36 64 28 35 64 28 33 63 29 34 64 31 36 66 31 36 65 29 34 63 27 34 62 29 36 64 29 36 64 29 34 63 31 36 65 31 36 65 32 37 66 32 37 66 30 35 64 28 33 62 28 33 62 27 34 62 29 34 64 28 33 62 28 33 62 30 35 64 30 36 62 30 35 64 29 34 63 29 34 63 29 34 63 28 33 62 27 32 61 27 34 62 25 32 60 27 34 63 27 34 63 28 35 64 26 35 64 26 35 66 27 36 69 28 37 70 27 38 70 29 38 71 29 38 71 29 38 71 32 41 74 32 41 74 30 39 72 31 40 73 33 41 77 33 41 77 33 42 75 31 41 76 31 41 77 30 40 76 29 39 75 30 38 75 29 39 74 30 40 75 30 40 75 32 40 76 31 39 75 34 40 74 31 40 73 31 40 73 29 38 71 28 37 70 28 37 70 29 40 72 28 37 70 29 38 71 29 38 71 28 39 71 27 38 68 28 37 66 36 37 67 44 39 69 57 41 70 63 38 68 67 38 68 70 40 66 72 39 66 73 41 65 72 40 64 
28 35 64 30 37 66 30 37 65 29 36 64 28 35 64 29 36 65 29 34 64 30 35 65 29 34 64 30 35 65 29 34 64 30 37 66 30 35 65 30 35 64 30 35 64 29 34 64 30 35 65 30 35 64 30 35 64 29 34 64 29 34 64 29 34 64 31 36 66 30 35 64 28 33 62 28 33 62 28 33 62 29 34 63 30 35 64 30 35 64 31 36 65 32 37 66 31 36 65 31 36 65 30 35 64 27 32 61 27 32 61 28 33 63 28 33 62 27 33 59 27 32 61 28 34 60 28 33 62 29 34 63 28 33 62 29 34 63 29 34 63 26 31 60 27 34 62 27 34 62 29 36 65 29 36 65 30 37 65 30 37 66 26 35 68 27 36 69 28 39 71 28 37 70 28 37 70 30 39 72 33 39 75 34 42 78 36 42 78 33 41 77 35 41 77 35 43 79 36 42 78 34 42 79 33 41 77 32 42 78 29 42 77 28 41 76 29 39 75 30 40 75 31 41 76 30 40 75 30 40 75 30 40 75 29 39 74 31 39 75 31 39 75 31 39 75 31 40 73 32 38 72 30 36 70 28 37 70 29 40 72 29 40 72 28 39 71 26 37 67 29 38 67 39 38 69 49 40 69 61 42 72 66 41 70 70 40 68 73 40 69 72 42 68 73 41 65 73 40 67 
29 36 65 29 36 64 30 37 65 31 36 65 29 34 64 30 35 65 29 34 64 30 35 65 30 35 65 29 34 64 28 33 63 30 37 66 32 37 67 30 35 64 29 34 63 29 34 64 30 35 65 30 35 64 30 35 64 29 34 64 29 34 63 29 34 63 30 35 65 31 36 65 28 33 62 29 34 63 30 35 64 30 35 64 30 35 64 31 36 65 31 36 65 31 36 65 31 36 65 31 36 65 28 33 62 28 33 62 27 32 61 29 34 63 28 33 62 28 34 58 27 32 61 29 34 63 29 34 63 29 34 63 29 36 64 29 34 63 29 34 63 27 34 62 28 35 63 28 33 62 27 36 65 29 36 65 30 37 66 28 37 66 26 35 68 25 36 68 27 36 69 29 38 71 30 36 70 33 39 75 33 39 75 37 43 79 38 44 80 37 41 78 37 41 78 39 43 80 36 41 79 37 42 80 34 42 79 31 44 79 30 40 76 30 40 76 30 40 76 30 40 76 30 40 75 30 40 75 30 40 75 30 40 75 31 41 76 31 39 75 32 41 74 31 40 73 30 39 72 29 38 71 30 39 72 29 38 71 29 38 71 28 39 71 29 40 72 27 36 67 31 38 67 41 38 69 49 40 71 63 43 71 66 41 71 73 40 69 74 41 70 72 42 66 73 40 67 74 40 65 
29 36 65 29 36 64 30 35 64 30 35 64 30 34 63 29 34 63 28 33 62 29 34 63 29 34 63 29 34 63 27 34 62 31 35 64 31 36 65 30 35 64 31 36 65 29 34 63 29 34 63 30 35 64 29 34 63 30 35 64 29 34 63 29 34 63 29 34 64 30 35 64 29 34 63 30 35 64 28 33 62 28 33 62 28 33 62 26 31 60 27 32 61 29 34 63 29 34 63 28 33 62 27 32 61 26 31 60 27 32 61 28 33 62 30 35 64 30 36 62 30 35 64 31 36 65 29 35 61 30 35 64 28 35 63 28 33 62 28 33 62 29 34 63 29 34 63 29 34 63 27 36 65 29 36 64 30 37 65 27 36 65 24 35 67 26 34 70 26 37 69 30 36 72 30 36 70 33 39 75 34 38 75 43 45 83 43 45 83 40 42 80 40 44 81 40 44 81 40 44 81 40 44 81 36 44 81 32 45 80 33 43 79 31 41 76 30 40 76 30 40 76 30 40 75 30 40 75 30 40 75 30 40 75 30 40 75 31 39 75 30 40 75 31 39 75 31 40 73 30 39 72 28 37 70 29 38 71 31 37 71 29 38 71 28 39 71 27 36 67 30 37 66 43 38 70 50 39 69 66 42 74 71 42 73 75 42 71 71 41 67 71 41 65 71 38 65 70 37 64 
30 35 67 29 34 63 31 36 65 30 35 64 29 34 63 29 34 63 29 34 63 29 34 63 28 33 62 29 34 63 29 34 63 30 37 65 31 36 65 30 35 64 30 35 64 27 32 61 29 34 63 28 33 62 30 35 64 29 34 63 28 35 64 29 36 65 29 34 64 30 35 64 29 34 63 30 35 64 29 34 63 29 34 63 28 33 62 28 33 62 27 32 61 29 34 63 29 34 63 29 34 63 28 33 62 28 33 62 26 31 61 29 34 63 30 35 64 30 36 62 29 34 63 30 35 64 30 36 62 29 34 63 27 34 62 28 35 63 29 34 64 29 34 63 28 35 63 29 34 63 29 36 65 29 36 64 29 36 64 26 35 64 24 35 67 26 36 71 29 35 69 30 36 72 31 37 71 34 38 75 36 38 76 43 45 83 45 47 85 41 45 82 41 43 81 43 45 83 42 44 82 40 44 82 40 44 81 33 46 81 33 43 79 31 41 77 30 40 76 30 40 75 31 41 76 30 40 75 31 41 76 30 38 74 30 38 74 30 38 74 30 41 73 31 40 73 30 39 72 28 39 71 31 37 71 28 37 70 30 36 70 28 39 71 25 38 70 28 37 68 31 38 67 43 38 70 52 39 69 64 40 72 70 41 71 74 41 68 71 41 67 71 41 65 70 37 64 71 39 63 
30 35 64 32 37 66 30 35 64 30 35 64 30 35 64 31 36 65 29 34 63 28 33 62 28 33 62 29 34 64 29 34 64 30 37 65 30 35 64 30 35 64 30 35 64 26 31 61 28 33 63 29 34 64 30 35 65 31 36 66 29 34 64 29 34 63 28 33 62 28 33 62 28 34 60 30 35 64 29 35 59 28 33 62 28 33 62 28 33 62 27 32 61 27 32 61 28 33 62 28 33 62 29 34 63 26 31 60 28 33 62 29 34 63 29 34 63 31 36 65 30 35 65 28 33 62 28 34 60 27 33 59 27 32 61 27 32 61 27 34 62 28 33 62 28 33 63 29 34 63 28 33 62 28 35 63 28 35 61 25 34 63 24 35 67 26 37 69 28 37 70 33 37 72 33 37 72 39 39 77 40 40 76 50 48 85 51 49 88 46 44 84 46 44 84 45 45 81 47 47 85 46 45 85 41 46 84 38 46 83 34 42 79 33 41 78 32 40 76 32 40 76 33 41 77 31 39 75 31 39 75 30 39 72 29 38 71 29 38 71 31 40 73 31 37 71 32 36 71 30 39 72 29 38 71 28 37 70 28 36 72 27 38 70 28 39 71 28 37 68 33 38 68 44 37 68 51 38 68 65 40 70 70 41 71 72 39 66 71 38 65 69 39 63 70 37 64 70 37 64 
31 36 65 30 35 64 31 36 65 30 35 64 29 34 63 29 34 63 29 34 63 30 35 64 28 33 62 29 34 64 30 35 65 29 36 64 30 35 64 29 34 63 30 35 64 29 34 63 28 33 62 29 34 64 30 35 65 31 34 65 29 34 64 29 34 63 28 33 62 28 33 62 29 35 61 29 34 63 28 34 60 28 33 62 29 34 63 28 33 62 28 33 62 28 33 62 29 34 63 29 34 63 30 35 64 28 33 62 27 33 59 29 35 61 29 34 63 31 36 65 30 35 64 28 33 62 28 33 62 28 33 62 26 33 61 26 33 61 26 33 61 27 32 61 25 35 62 28 35 63 27 34 62 27 34 63 27 34 62 25 34 63 25 36 68 27 38 70 28 37 70 33 37 72 35 38 73 42 40 77 42 42 78 54 50 87 53 49 86 49 44 84 48 46 85 48 46 85 48 46 85 48 46 85 42 46 83 37 45 81 34 44 79 33 41 77 32 40 76 31 41 76 31 41 76 33 39 75 31 37 71 29 38 71 29 38 71 30 39 72 30 39 72 31 37 71 30 36 70 31 37 71 30 39 72 29 38 71 28 36 72 28 39 71 29 40 70 30 36 68 34 38 67 44 37 68 53 38 67 65 40 70 70 39 70 74 40 67 72 40 64 70 40 64 68 38 62 69 36 65 
30 35 64 29 34 63 31 36 65 30 35 64 31 36 65 30 35 64 29 34 63 29 34 63 28 33 62 30 35 64 31 36 65 28 35 63 29 34 64 30 35 65 30 35 65 30 35 64 30 35 64 28 33 62 30 35 64 29 34 63 29 34 64 30 35 64 29 34 63 28 33 62 28 34 60 28 33 62 28 33 62 29 35 61 29 34 63 29 34 63 28 33 62 29 34 63 30 35 64 31 36 65 31 36 65 28 33 62 28 34 60 28 34 60 29 34 63 30 34 63 29 33 62 28 33 62 27 32 61 27 32 61 27 31 60 26 31 60 26 33 61 26 33 61 27 32 62 28 31 62 27 34 62 27 34 63 27 34 62 25 34 63 27 36 67 28 37 68 32 38 72 36 39 72 37 40 73 45 43 80 47 43 80 57 51 89 58 52 90 52 46 84 52 45 86 52 47 87 52 47 87 51 46 86 43 47 84 38 46 82 34 42 78 33 41 77 31 40 73 30 39 72 34 40 74 33 39 73 32 38 72 32 38 72 31 37 71 31 37 71 31 37 71 30 36 68 30 36 68 29 37 73 29 38 71 29 38 71 28 37 70 28 39 71 29 40 70 30 37 66 33 36 67 47 38 69 52 39 67 65 38 69 70 39 70 73 39 66 72 40 64 69 40 62 71 38 65 69 39 67 
28 33 62 28 33 62 30 35 64 30 35 64 31 36 65 30 35 64 30 35 64 29 34 63 28 33 62 30 35 64 30 35 64 29 34 63 25 35 62 28 35 63 28 33 62 29 34 64 30 35 65 30 35 65 29 34 64 30 33 64 31 36 66 28 33 62 28 33 62 28 33 62 29 35 61 29 34 63 30 35 64 29 35 61 30 36 62 29 35 61 27 33 59 28 34 60 29 35 61 30 36 62 32 38 64 29 35 61 28 34 60 29 34 63 30 35 64 29 36 64 30 37 66 30 35 64 28 34 60 28 34 60 28 33 62 27 32 61 27 34 62 27 34 62 27 34 62 28 33 62 27 34 62 28 35 63 28 34 66 27 36 65 27 36 67 29 38 69 33 39 71 38 41 74 40 43 78 45 43 80 48 44 79 58 52 88 59 53 89 54 46 85 54 48 86 53 48 88 53 49 86 51 47 84 45 48 83 39 45 79 36 42 76 31 40 73 31 42 74 34 38 73 33 39 73 33 39 73 32 38 70 32 38 72 32 36 71 32 37 69 32 37 69 32 37 69 30 36 68 30 36 70 30 39 72 28 37 70 29 40 72 26 39 71 29 40 72 32 39 68 36 39 70 48 39 70 55 39 68 69 40 71 72 39 68 75 41 66 70 40 64 71 42 62 68 40 65 68 39 67 
28 33 62 27 32 61 29 34 63 30 35 64 31 36 65 30 35 64 30 35 64 29 34 63 29 34 63 31 36 65 30 35 64 29 34 63 29 33 62 28 33 62 29 34 63 31 36 65 31 36 65 31 36 65 30 35 64 29 34 63 31 36 66 29 34 63 28 33 62 26 31 61 30 35 64 30 35 64 30 35 64 29 35 61 30 35 64 29 34 63 26 31 61 27 33 59 28 34 60 30 35 65 32 37 66 29 34 63 29 35 61 30 36 62 31 36 65 31 36 65 31 36 65 31 36 65 30 36 62 29 35 61 29 34 63 28 33 62 28 35 63 27 34 62 28 33 62 27 34 62 28 35 61 27 34 63 29 36 65 29 36 65 27 36 67 31 38 67 33 39 71 39 42 75 44 44 78 48 44 81 49 45 82 61 53 90 61 53 90 56 48 87 56 48 85 55 48 89 55 48 89 54 48 86 45 48 83 40 46 80 36 42 76 32 41 74 33 39 73 32 38 72 33 39 73 33 39 73 33 39 73 33 39 73 32 38 70 32 38 70 31 37 69 31 37 69 30 36 68 30 36 70 30 38 74 29 38 71 28 37 70 27 40 72 29 40 72 32 38 70 36 40 69 49 40 69 55 38 70 69 40 71 73 40 69 76 40 68 74 42 65 71 42 64 68 39 67 69 40 68 
28 33 62 30 35 64 31 36 65 31 36 65 30 35 64 32 37 66 32 37 66 31 36 65 31 36 65 30 35 64 30 35 64 30 34 63 27 32 61 27 32 61 27 32 61 29 34 63 29 34 63 30 35 65 30 35 65 29 34 66 27 36 65 28 35 63 28 35 63 28 35 64 30 37 65 30 35 64 30 35 64 31 37 63 30 36 62 29 35 61 28 34 58 28 34 58 29 35 59 29 35 59 30 36 62 31 37 63 30 36 62 31 37 63 31 37 63 31 35 62 31 35 64 30 35 64 31 36 65 31 36 65 30 35 65 31 36 66 28 35 63 30 35 65 26 33 62 27 34 62 28 35 64 28 35 64 32 39 68 30 36 68 31 37 71 35 39 74 39 41 79 45 43 82 46 44 83 49 42 83 53 45 86 62 52 89 63 53 90 60 50 87 60 49 89 57 46 88 55 44 86 53 45 86 45 45 83 38 44 80 34 42 78 32 40 76 30 38 74 28 36 72 30 36 72 29 35 71 29 38 71 31 37 73 29 38 71 29 38 69 29 38 71 29 38 71 31 37 71 32 38 72 32 38 72 30 39 72 30 39 72 27 37 72 29 38 71 34 37 70 39 38 70 54 41 71 60 41 69 68 39 69 70 40 68 73 40 67 71 41 67 70 42 67 69 39 65 68 38 66 
30 35 64 30 35 64 30 35 64 31 36 65 31 36 65 32 37 66 31 36 65 31 36 65 32 37 66 31 37 63 30 36 62 30 34 63 28 33 62 27 32 61 26 31 60 27 32 61 29 34 63 30 34 63 28 33 63 27 34 63 27 34 63 27 34 62 28 35 64 29 36 65 31 36 65 32 36 65 32 36 65 31 37 63 31 35 62 31 35 60 29 33 58 28 34 58 28 34 58 29 35 59 29 35 59 31 37 63 32 38 64 31 37 63 32 36 63 32 36 61 31 35 64 31 34 65 31 36 65 30 35 64 32 37 66 31 36 65 29 36 64 29 36 64 27 34 63 26 32 64 28 35 64 28 35 64 32 39 68 31 37 69 34 38 75 38 40 78 42 41 81 47 42 83 49 44 85 52 43 86 52 43 86 62 50 90 64 52 90 62 50 90 61 50 90 57 46 88 57 47 84 55 44 84 44 44 82 35 43 79 36 42 78 32 40 76 29 37 73 28 36 72 27 35 71 26 36 71 27 36 69 28 37 70 29 38 71 30 39 72 30 39 72 30 39 72 30 39 72 32 38 72 32 38 72 30 40 75 31 40 73 28 36 72 28 36 72 36 36 70 43 37 71 57 40 72 61 41 69 69 40 68 70 39 70 69 39 67 69 40 68 71 42 70 69 39 67 68 38 66 
32 37 66 30 35 64 31 36 65 32 37 66 31 36 65 30 35 64 31 36 65 31 36 65 31 36 65 30 36 62 30 36 62 28 32 61 30 34 63 29 33 62 28 33 62 29 34 63 29 34 63 29 34 63 29 34 63 29 36 65 28 35 63 27 34 62 27 34 63 26 33 62 29 34 63 30 34 63 31 35 64 30 36 62 29 33 60 30 34 61 29 33 58 29 33 58 28 34 58 29 35 59 30 36 62 31 37 63 33 37 66 32 36 63 31 37 63 31 37 63 31 36 65 31 36 65 32 36 63 31 35 62 30 35 64 29 34 63 29 34 63 27 34 63 24 33 62 26 33 62 29 36 65 29 35 69 30 39 68 30 39 70 33 39 75 37 41 78 40 44 82 42 44 83 42 44 83 44 43 85 45 42 85 53 46 87 53 46 88 53 48 89 53 48 88 49 44 85 48 43 83 44 42 79 39 43 78 34 43 76 31 42 74 31 40 73 31 37 71 28 37 70 28 34 68 26 35 68 28 37 70 28 37 70 29 37 73 29 38 71 30 39 72 29 38 71 30 39 72 32 38 72 32 38 72 30 40 75 30 38 74 27 37 72 29 37 73 37 37 71 42 38 71 55 40 71 58 39 67 65 39 68 65 39 68 67 38 68 65 39 64 64 40 66 60 36 62 59 35 61 
29 36 64 30 35 64 30 35 64 30 35 64 31 36 65 30 35 64 31 36 65 30 35 64 30 35 64 29 33 62 31 35 64 30 34 63 30 34 63 30 34 63 29 33 62 28 33 62 28 33 62 29 34 63 30 35 65 28 35 63 29 34 64 28 35 64 27 34 63 26 33 61 29 33 62 29 33 62 29 32 63 30 34 61 29 33 60 29 35 61 28 34 58 28 34 58 28 34 58 29 35 59 31 37 63 32 36 63 32 38 62 33 37 64 32 36 65 32 36 65 33 37 66 32 36 63 31 37 63 30 35 64 29 34 63 29 34 63 27 34 63 27 34 63 27 34 63 27 34 63 27 36 65 28 35 64 29 38 67 30 39 70 31 41 76 36 42 78 38 44 80 41 43 82 44 44 82 44 42 82 47 42 83 51 46 87 52 47 88 51 46 86 50 45 85 47 45 82 45 43 80 43 41 78 38 42 77 33 41 77 31 41 76 31 40 73 29 38 71 27 36 67 26 35 68 26 35 68 28 37 70 28 37 70 29 38 71 30 39 72 30 39 72 30 39 72 30 39 72 29 38 71 32 38 72 28 41 73 30 40 75 29 37 73 31 37 73 37 37 71 42 38 71 56 41 74 59 40 68 64 39 68 64 38 65 63 37 64 64 38 65 62 38 64 59 33 62 59 33 60 
32 36 65 32 37 66 33 38 67 33 38 67 33 38 67 32 37 66 31 36 65 31 36 65 30 35 64 31 35 64 32 36 65 32 36 65 32 36 65 32 36 65 31 35 64 29 34 63 30 35 64 30 35 64 31 36 66 31 38 66 29 38 69 29 36 65 29 36 65 27 34 63 28 33 62 30 34 63 29 32 63 30 34 61 28 34 60 30 34 61 30 34 61 31 35 64 31 35 62 33 37 64 33 37 64 34 40 66 34 40 66 34 38 65 34 38 67 37 41 70 35 40 69 34 39 68 32 38 64 30 35 64 29 34 63 30 35 64 26 33 61 28 33 62 26 33 62 27 34 63 29 36 65 29 36 65 30 36 68 29 38 69 28 41 75 32 42 77 34 44 80 35 43 80 37 45 82 38 43 83 37 42 82 41 45 83 42 46 84 40 44 82 38 43 81 34 40 76 32 40 76 30 38 74 32 38 72 31 39 75 31 39 75 30 39 72 28 37 70 29 38 71 28 37 70 28 37 70 28 36 72 28 36 72 29 37 73 30 38 74 29 38 71 29 38 71 29 38 71 30 39 72 31 37 69 28 39 71 28 38 73 28 38 73 29 39 74 36 39 72 37 38 69 49 40 69 52 39 69 58 39 67 56 38 64 57 37 64 55 37 63 57 37 64 53 34 62 54 35 63 
32 37 66 32 37 66 33 38 67 33 38 67 33 38 67 32 37 66 32 37 66 31 36 65 30 35 64 30 35 64 31 35 64 32 36 65 31 35 64 31 34 65 31 35 64 29 34 63 29 34 66 30 35 64 30 35 64 30 37 66 30 37 66 29 36 65 30 37 66 28 35 64 30 33 64 29 32 63 30 34 63 30 34 63 29 35 61 30 34 61 31 35 62 31 35 60 32 36 63 33 37 64 34 38 65 34 40 66 34 40 66 35 39 68 35 39 68 36 40 69 36 41 70 34 39 68 32 37 66 31 36 65 31 36 65 30 35 64 27 34 62 27 34 62 28 35 64 26 33 62 29 36 65 29 36 65 30 36 68 28 37 68 27 40 74 29 42 76 33 43 78 36 44 81 37 45 82 39 44 84 38 43 83 40 45 83 41 45 83 38 43 81 39 43 81 32 40 76 32 40 76 30 38 74 30 39 72 30 39 72 29 38 71 31 37 71 32 38 74 29 37 73 28 37 70 28 39 71 28 37 70 28 37 70 28 37 70 28 37 70 29 38 71 30 39 72 28 37 68 29 38 69 31 37 71 28 39 71 28 39 71 29 37 73 30 38 74 36 39 72 39 40 71 49 38 70 52 39 69 57 38 66 57 38 66 57 37 64 55 36 64 51 35 62 51 35 62 51 35 61 
33 38 67 34 39 68 35 42 70 36 41 70 35 40 69 35 40 69 32 37 67 33 38 68 33 38 68 31 36 65 32 36 65 29 34 63 31 35 64 29 33 62 30 34 63 27 32 61 28 33 62 28 33 62 28 33 63 29 36 64 30 35 64 29 36 65 28 35 63 27 34 63 29 32 63 31 34 65 30 34 63 31 35 64 31 35 64 31 35 64 31 35 62 32 36 63 33 37 64 34 38 65 35 39 66 36 40 69 36 40 67 35 39 68 35 39 68 36 41 70 37 42 71 35 40 69 34 39 68 32 37 66 31 38 67 30 37 66 28 35 64 29 36 65 29 36 65 29 36 65 27 38 68 27 36 67 31 37 69 29 38 69 25 38 72 27 40 74 30 43 78 33 42 81 34 44 80 35 43 82 35 43 82 36 44 81 38 43 81 32 42 77 32 42 77 26 39 73 26 39 73 23 38 69 27 37 72 29 38 71 30 39 72 31 37 71 31 37 71 30 39 72 28 37 70 32 38 72 27 36 67 27 36 67 27 36 67 28 37 68 27 36 67 27 36 67 28 37 68 28 37 68 29 35 67 25 36 68 25 36 68 27 37 72 27 37 72 34 39 71 35 38 71 43 38 68 46 37 68 48 38 65 50 37 65 51 38 64 49 36 62 46 36 63 46 37 66 47 38 65 
35 40 69 34 39 68 36 41 70 36 41 70 37 42 71 35 40 69 35 40 70 33 38 68 33 38 68 31 36 65 31 35 64 29 34 63 30 34 63 29 33 62 29 33 62 28 33 62 28 33 62 28 33 62 30 35 65 28 35 63 28 35 64 28 35 64 28 35 64 28 35 64 29 34 64 29 32 63 30 34 61 31 35 64 31 35 64 31 35 62 31 35 62 32 36 63 33 37 64 34 38 65 35 39 68 36 40 69 36 40 69 36 40 67 36 40 69 37 42 72 36 41 70 35 40 69 34 39 68 32 37 67 30 37 66 30 37 66 29 36 65 28 35 64 29 36 65 29 36 65 28 37 68 26 35 66 28 37 68 27 38 68 25 38 72 29 39 74 32 42 78 33 43 79 34 44 80 35 43 82 37 42 80 35 43 80 35 43 80 31 41 76 31 41 76 26 39 71 25 38 70 24 37 69 27 37 72 31 37 71 29 38 71 29 38 71 31 37 71 30 39 70 28 37 70 28 37 70 27 36 67 27 36 67 26 35 66 27 36 67 27 36 67 27 36 67 27 36 67 28 37 68 29 35 67 26 37 69 26 37 69 27 37 72 27 37 72 33 39 73 33 38 70 41 38 69 42 37 67 46 37 64 47 38 65 48 38 65 46 36 63 45 36 63 44 38 66 45 39 67 
35 40 69 35 40 69 38 43 72 38 43 72 37 42 71 36 41 70 35 40 69 34 39 68 34 39 68 31 36 65 32 36 65 30 34 63 30 33 64 28 32 61 29 33 62 29 34 64 30 35 64 29 34 63 30 35 67 28 35 64 28 35 64 28 35 64 28 35 64 28 35 64 29 32 63 30 33 64 30 34 63 30 34 63 30 34 61 31 35 62 31 35 62 33 37 64 33 37 62 35 39 66 36 40 67 37 41 68 37 41 68 36 40 69 37 41 70 36 41 70 36 41 70 36 41 70 35 40 69 32 37 66 32 37 67 31 36 66 29 36 65 30 37 66 30 37 66 29 36 65 28 34 66 30 36 68 26 35 64 27 36 67 28 37 70 30 38 74 32 40 76 33 41 77 33 41 77 36 41 79 32 40 77 31 39 76 31 39 76 29 39 74 28 38 74 27 38 70 27 38 70 27 37 72 27 38 70 30 36 70 29 37 73 28 37 70 29 38 71 29 38 69 28 37 68 30 36 68 27 36 67 28 34 66 28 34 66 28 34 66 26 35 66 27 36 67 26 35 64 29 36 65 28 35 64 26 37 67 25 36 66 25 36 68 25 36 68 27 36 67 28 37 68 36 37 67 35 36 64 39 36 63 41 38 65 42 38 65 41 37 64 40 36 63 38 35 64 39 34 64 
36 41 70 35 42 70 37 42 71 36 43 71 37 42 71 36 41 70 36 41 70 35 40 69 34 39 68 33 37 66 32 36 65 31 35 64 30 34 63 29 33 62 29 33 62 30 35 64 30 35 64 30 35 64 30 35 65 28 35 63 29 34 64 28 35 64 28 35 64 28 35 63 29 32 63 28 31 62 30 34 63 29 33 62 30 34 61 31 35 62 31 35 62 33 37 64 33 37 66 35 39 66 36 40 67 36 40 67 36 40 67 36 40 67 36 40 67 36 41 70 36 41 71 35 40 69 33 38 67 32 39 67 30 37 66 31 36 66 29 36 65 29 36 65 29 36 65 29 38 67 27 36 67 30 36 68 26 35 66 27 36 67 28 37 70 31 39 75 31 39 75 32 40 76 33 41 77 32 40 77 31 39 76 29 39 74 31 39 75 28 38 73 28 38 73 24 37 69 26 37 69 26 37 69 27 36 67 27 36 69 27 36 69 28 37 68 31 37 69 28 37 68 28 37 68 28 37 68 27 36 67 27 36 67 26 35 66 26 35 66 26 35 64 26 35 64 26 35 64 26 35 64 27 37 64 25 36 66 24 35 65 25 35 70 26 35 68 29 35 69 29 35 67 33 37 66 36 37 65 37 37 63 37 37 63 37 37 63 39 36 63 38 35 64 35 34 66 34 33 64 
36 41 70 36 41 70 37 44 72 38 43 72 38 43 72 36 41 70 36 41 70 35 40 69 35 40 69 33 37 66 33 37 66 31 35 64 30 34 63 30 34 63 30 34 63 32 37 66 33 38 68 32 37 66 32 37 66 30 37 65 29 36 65 29 36 65 29 36 65 28 35 63 28 33 62 29 33 62 28 32 61 29 33 60 30 34 61 30 34 61 31 35 60 31 35 60 33 37 62 35 39 64 36 40 67 37 41 68 37 41 68 35 41 67 36 40 69 36 41 71 35 40 69 33 38 68 32 37 67 31 38 66 29 38 69 26 35 64 28 35 64 28 35 64 28 37 68 26 37 69 25 36 66 27 36 67 27 33 65 29 35 67 27 36 69 28 37 70 32 38 72 31 40 73 31 39 75 33 38 76 31 39 75 29 37 73 28 36 72 26 35 68 26 35 68 25 34 65 26 35 66 26 35 66 26 35 66 24 35 67 26 35 66 28 34 66 30 36 68 27 36 67 27 38 68 28 37 68 30 36 68 27 36 67 26 35 66 27 36 67 28 35 64 28 35 64 28 35 64 25 34 63 29 36 65 27 36 67 27 33 65 25 33 69 28 34 68 26 35 68 26 35 66 29 36 65 31 35 64 35 35 63 34 35 63 31 35 64 34 35 65 34 35 65 29 32 63 27 30 61 
37 42 71 36 41 70 37 42 71 35 40 69 37 42 72 37 42 71 36 41 71 35 40 69 34 39 68 32 36 65 32 36 61 30 34 63 30 34 63 27 32 61 28 33 62 31 36 65 31 36 65 32 37 67 31 38 66 31 36 65 30 35 64 29 34 64 27 34 63 27 34 63 28 32 61 28 32 59 28 32 59 30 34 61 30 34 59 30 34 61 31 35 60 32 36 61 33 37 62 35 39 64 36 40 65 37 41 66 37 41 66 38 39 67 35 39 68 36 41 70 34 39 68 33 38 67 31 38 67 31 36 66 30 37 66 28 35 64 27 36 65 28 35 64 26 35 64 27 36 65 26 37 67 27 36 65 27 36 67 27 36 67 28 37 68 29 38 69 30 39 72 30 39 72 29 39 74 30 38 74 30 39 72 28 36 72 29 35 69 28 34 66 29 35 69 27 34 63 27 36 67 27 36 67 28 34 66 28 34 66 28 34 66 28 34 66 30 36 68 29 35 67 29 36 65 29 36 65 28 34 66 29 35 67 29 36 65 28 35 64 28 35 64 28 35 64 27 34 63 28 35 64 28 35 63 28 34 66 28 35 64 26 35 68 26 34 70 24 33 66 27 33 65 29 36 64 29 34 64 29 35 61 30 35 64 32 33 63 31 35 64 32 35 66 28 31 62 28 31 64 
33 40 69 35 42 71 36 41 71 36 41 71 37 43 69 36 41 71 34 39 69 35 40 70 34 39 71 32 37 66 32 36 65 30 34 63 29 33 62 28 33 62 29 33 62 29 34 63 29 34 63 30 35 64 29 36 64 31 36 65 28 35 63 28 35 61 27 34 62 25 32 61 28 32 61 28 32 59 29 33 60 30 34 61 30 34 59 30 34 59 30 34 59 32 37 59 33 37 62 35 39 64 36 41 63 37 41 66 38 42 67 36 40 65 38 42 67 35 40 69 35 40 70 32 37 66 32 36 63 29 36 65 29 34 64 28 35 64 27 34 63 27 34 63 28 34 66 29 36 65 28 37 68 27 36 67 26 37 69 27 36 67 27 36 67 28 37 68 31 37 69 31 37 71 28 39 71 28 37 70 29 38 71 26 35 68 25 34 67 28 34 66 25 34 65 28 35 64 28 35 64 27 34 63 29 35 67 28 34 66 28 34 66 28 34 66 28 34 66 28 34 66 28 35 64 29 35 67 29 35 67 28 34 66 28 35 64 29 36 65 28 35 64 27 34 63 27 34 63 27 34 63 28 33 62 29 34 64 28 35 64 27 33 67 27 33 69 23 32 65 24 33 64 28 35 64 28 35 63 27 34 62 25 35 62 28 33 62 30 35 64 30 33 64 27 30 61 27 30 63 
34 39 69 35 40 70 35 40 70 36 41 71 36 41 71 35 40 70 35 40 69 35 40 70 35 40 72 33 38 67 33 37 62 30 35 64 31 34 65 27 32 61 28 32 59 27 31 60 27 32 61 29 34 63 26 36 63 30 37 65 30 37 66 30 37 66 28 35 64 27 33 65 31 35 62 31 35 62 32 36 61 32 36 61 31 35 60 33 37 62 31 36 58 33 38 60 34 39 61 36 41 63 36 41 63 37 41 66 35 39 64 38 40 65 36 40 65 35 40 70 34 39 69 32 37 67 33 38 67 28 35 64 28 35 64 27 34 63 26 33 62 27 34 63 27 36 67 27 36 67 29 38 69 29 38 69 28 37 68 27 38 68 28 37 66 27 38 66 28 37 68 27 38 68 27 38 70 27 38 70 27 38 70 23 32 65 23 34 66 27 33 65 26 35 66 29 34 64 30 37 66 32 37 67 30 37 66 29 36 65 29 36 65 28 34 66 28 34 66 27 33 65 28 34 66 27 33 65 28 35 64 28 35 64 28 35 64 28 35 64 27 34 63 26 33 62 26 33 62 26 33 61 27 32 61 29 34 64 28 33 63 29 32 67 26 32 66 25 31 65 26 32 66 27 36 65 27 34 63 25 35 62 26 33 61 25 32 61 27 34 63 28 33 65 26 31 63 27 30 65 
34 39 68 34 39 69 35 40 70 36 41 70 35 40 70 35 40 69 36 39 70 35 40 70 34 39 69 33 38 67 33 37 64 32 36 65 31 35 64 28 33 62 28 32 61 26 31 60 27 32 61 29 34 63 29 36 64 32 37 66 31 36 65 30 37 65 28 35 63 28 35 63 30 34 61 30 34 61 31 35 60 32 36 61 31 35 60 33 38 60 33 38 60 33 38 58 34 39 59 35 40 62 37 42 64 37 41 66 36 40 65 39 40 68 36 40 65 36 41 70 35 40 69 33 38 67 32 37 66 30 35 64 27 34 62 24 33 62 27 34 63 26 33 62 27 36 65 27 36 65 31 38 67 29 38 69 29 38 69 28 37 68 29 38 69 28 39 69 29 38 69 27 38 68 26 37 67 27 36 67 25 36 68 23 34 64 22 33 63 24 35 63 26 35 64 29 36 64 32 37 67 33 38 68 30 37 66 29 35 67 28 34 66 28 35 64 28 35 64 28 34 66 29 35 67 28 34 66 28 34 66 29 35 67 29 36 65 28 35 64 28 35 64 26 33 62 25 32 61 27 34 63 27 32 61 29 34 64 29 34 64 28 32 67 27 33 67 25 31 65 27 33 65 27 36 65 25 34 63 26 36 63 24 33 64 26 33 62 28 35 64 29 34 66 27 32 64 27 30 63 
38 45 71 38 45 73 38 45 73 38 45 71 40 46 72 39 45 71 37 44 72 36 42 68 34 41 69 34 37 68 33 37 66 31 34 65 31 35 64 29 34 64 29 34 64 31 36 66 30 37 66 32 37 69 29 36 65 30 35 65 27 32 62 26 31 61 26 31 61 24 29 58 29 33 58 30 34 59 31 35 60 31 35 60 34 38 63 34 39 61 35 40 62 34 39 61 35 40 62 35 40 62 36 41 63 37 41 66 37 42 64 35 41 65 35 39 64 33 37 62 32 36 61 33 37 64 31 35 64 32 38 64 30 35 64 28 35 63 27 34 62 28 33 62 28 34 66 28 35 64 29 38 69 28 37 68 29 38 69 28 37 68 29 38 67 28 37 68 28 37 66 27 36 67 28 37 66 28 37 66 30 37 66 29 36 64 28 35 63 27 34 62 26 33 61 25 32 60 25 32 61 26 33 62 27 34 63 27 34 62 28 35 63 27 34 62 28 35 63 28 35 63 29 36 62 29 36 65 27 34 63 28 35 63 27 34 62 27 34 62 27 34 62 26 33 61 26 33 61 25 32 60 26 31 60 27 32 61 28 33 62 26 31 61 25 32 60 25 32 61 26 33 62 26 35 64 27 33 65 26 33 62 22 31 60 23 32 63 28 34 66 29 35 67 26 31 63 25 30 60 
39 46 72 40 47 75 39 46 74 39 46 72 40 47 75 40 45 74 38 45 71 36 42 68 34 41 69 34 38 67 33 37 66 30 33 64 31 34 65 29 34 64 29 34 64 31 37 69 31 37 71 31 37 69 30 35 67 29 32 63 27 32 64 25 30 59 25 29 58 26 30 57 28 32 57 30 35 57 30 34 59 31 36 58 34 38 63 35 39 64 35 40 62 35 40 62 34 38 63 35 39 64 35 39 64 37 41 66 38 42 67 33 41 62 35 39 64 31 35 60 34 36 61 32 36 61 33 37 62 32 38 64 30 36 62 30 35 64 28 35 63 28 33 62 27 34 63 27 34 63 29 38 69 30 36 68 30 39 70 29 38 71 29 39 74 27 35 71 27 36 69 26 35 66 26 35 64 28 37 68 30 37 66 30 35 64 32 37 66 27 32 61 27 33 59 25 30 59 25 32 60 25 32 58 26 33 61 26 33 61 26 33 61 27 34 62 28 35 63 28 35 63 28 35 63 28 35 63 28 35 63 28 35 63 27 34 62 27 34 62 26 33 61 26 33 61 26 33 61 25 32 58 22 32 59 26 33 61 25 32 60 26 33 62 25 32 60 26 33 62 26 33 62 27 34 62 26 33 62 25 32 61 23 34 62 23 32 61 25 34 63 28 34 66 24 31 60 23 30 59 
