P3
100 50
255
39 27 41 38 27 41 37 26 40 36 25 39 34 23 37 34 23 37 33 22 36 35 24 38 36 25 39 38 27 41 40 29 45 38 27 41 38 27 41 38 27 41 38 27 41 37 26 40 36 25 39 31 23 38 29 21 36 27 19 34 28 20 35 28 20 35 33 22 38 33 25 40 34 26 41 36 25 41 35 24 38 34 26 39 36 25 39 38 25 42 39 27 41 38 25 42 39 28 44 38 27 43 37 26 42 36 25 41 36 25 41 35 24 40 35 24 40 33 22 38 34 23 37 36 25 39 35 24 40 38 24 39 38 26 40 40 27 44 39 27 41 39 27 41 40 29 43 40 29 43 38 27 41 38 27 41 39 28 42 38 27 41 38 26 40 38 26 40 38 26 40 39 27 41 40 26 41 39 28 42 40 28 42 41 29 43 40 28 42 38 27 41 38 27 41 39 27 41 38 27 41 37 26 40 38 27 41 38 27 43 38 27 43 37 25 39 33 25 40 32 23 40 32 26 40 33 25 40 33 25 40 31 23 38 35 22 39 34 23 39 34 23 37 36 25 39 38 27 41 37 26 40 37 26 40 36 24 38 36 25 39 35 24 40 35 24 40 37 26 42 36 25 41 41 30 46 42 31 47 42 31 47 43 32 48 43 32 48 42 31 47 39 28 42 37 26 42 36 25 41 
40 28 42 39 27 41 38 27 41 37 26 40 35 24 38 34 23 37 33 22 36 35 24 40 37 26 40 37 26 40 38 27 43 38 27 41 38 27 41 38 27 41 37 26 40 36 25 39 36 25 39 31 23 38 28 20 35 26 18 33 27 19 34 27 19 34 30 22 35 32 24 39 34 26 39 34 26 39 35 24 38 36 25 39 37 26 40 38 27 43 39 28 42 39 28 44 39 28 44 38 27 43 37 26 42 37 26 42 37 26 42 36 25 41 35 24 40 33 22 38 34 23 39 35 24 38 36 25 41 37 25 39 38 26 40 38 25 42 38 26 40 38 25 42 36 28 41 39 28 42 38 27 41 37 26 40 39 28 42 38 27 41 37 26 40 37 26 40 38 26 40 38 26 40 39 25 40 39 27 41 39 27 41 40 28 42 41 29 43 39 27 41 39 28 42 38 27 41 38 27 41 38 27 41 38 27 41 38 27 43 37 26 42 36 25 39 33 24 41 33 25 40 33 24 41 33 24 41 33 25 40 33 25 40 35 24 40 32 24 39 35 24 38 36 25 39 38 27 41 38 27 41 38 26 40 37 25 37 37 25 37 35 24 40 36 25 41 36 25 41 36 25 41 40 29 45 41 30 46 42 31 47 42 31 47 41 30 46 39 28 44 38 27 43 37 24 41 37 24 41 
39 28 42 40 29 43 39 28 42 39 28 42 36 25 39 37 26 42 36 25 41 37 26 42 38 27 41 37 26 40 38 27 43 37 26 40 38 27 41 39 28 42 38 27 41 38 27 41 34 26 39 31 23 38 28 22 36 27 21 35 26 20 34 26 18 33 29 21 34 30 22 37 32 24 37 33 25 38 35 24 38 36 25 39 38 27 41 38 27 43 39 28 42 39 28 44 39 28 44 38 27 43 37 26 42 37 26 42 37 26 42 38 27 43 38 27 43 34 23 39 36 25 41 36 25 39 35 24 40 34 23 37 35 24 38 35 24 40 36 25 39 36 25 41 38 27 43 40 27 44 37 26 42 39 25 42 37 26 42 37 26 42 35 24 40 36 25 41 33 25 38 35 24 38 38 26 40 37 26 40 37 26 40 38 27 41 39 28 42 38 27 41 38 27 43 39 28 42 38 27 41 38 27 43 38 27 43 38 27 43 37 26 42 36 25 41 33 24 41 32 26 40 34 27 43 33 24 41 34 26 41 34 26 41 38 27 43 39 26 43 37 26 40 37 26 40 37 26 40 37 26 40 37 25 39 38 26 38 38 26 38 36 25 41 37 26 42 36 25 41 36 25 41 38 27 43 38 27 43 39 28 44 38 27 43 37 26 42 38 27 43 38 27 43 38 27 43 38 27 43 
39 28 44 39 28 44 39 28 44 38 27 41 37 26 40 37 26 40 37 26 40 37 26 40 36 25 39 37 26 40 37 26 42 37 26 40 37 26 40 38 27 41 39 28 42 38 27 41 34 26 39 32 24 39 29 23 37 26 20 34 26 20 34 27 19 34 30 22 37 31 23 38 35 24 38 36 25 39 36 25 39 37 26 40 39 28 44 37 29 44 36 28 43 38 27 43 39 28 44 37 26 42 36 25 41 37 26 42 37 26 42 39 28 44 39 28 44 35 24 40 35 24 40 35 24 38 36 25 41 36 25 41 36 25 41 37 26 42 37 26 40 37 26 42 40 27 44 41 28 45 38 27 43 37 26 42 37 26 42 36 25 41 35 24 40 33 25 40 34 23 37 36 25 39 37 26 40 38 27 41 39 27 41 37 26 40 38 27 41 37 26 40 38 27 43 38 27 41 39 28 42 38 27 43 38 27 43 36 25 41 36 25 41 36 25 41 34 25 42 33 24 41 33 25 40 33 25 40 35 27 42 33 27 41 34 26 41 34 26 39 38 26 40 38 26 40 36 25 39 37 26 40 37 26 40 38 26 40 37 25 39 37 24 41 37 26 42 35 24 40 36 25 41 37 26 42 38 27 43 38 27 43 38 27 43 38 27 43 38 27 43 35 27 42 38 27 41 38 27 43 
41 27 44 40 27 44 39 28 44 39 28 44 38 27 41 38 27 41 37 26 40 36 25 39 35 24 38 34 23 37 35 24 40 35 24 38 35 24 38 36 25 39 35 24 38 36 25 39 36 25 41 34 26 41 30 24 38 29 21 36 29 21 34 28 20 35 30 22 37 31 23 38 38 27 41 38 27 41 40 29 43 38 27 41 40 29 45 38 27 43 37 26 42 37 26 42 38 27 43 36 25 41 36 25 41 36 25 41 37 26 42 39 28 44 39 28 44 36 25 41 38 27 43 36 25 39 37 26 42 38 27 43 38 27 43 38 27 43 38 27 41 39 28 44 41 28 45 43 30 47 39 26 43 38 27 43 36 25 41 36 25 41 32 24 39 32 24 39 31 23 36 35 24 38 39 27 41 38 27 41 38 27 41 38 27 41 38 27 41 37 26 40 36 25 41 36 28 41 37 29 42 37 26 42 36 28 43 36 25 41 37 26 42 35 27 42 37 26 42 35 27 42 33 25 40 32 26 40 34 26 41 34 26 41 33 25 40 34 23 37 35 24 38 35 24 38 34 23 39 36 25 39 37 26 40 39 28 42 39 28 42 36 25 41 36 25 41 35 24 40 34 23 39 35 24 40 36 25 41 36 25 41 36 25 41 35 24 40 36 25 41 36 25 41 38 27 43 37 26 42 
39 28 42 38 27 41 38 27 41 39 28 44 38 27 43 37 26 42 37 26 42 35 24 40 36 25 39 35 24 38 34 23 39 36 25 39 35 24 38 36 25 39 36 25 39 36 25 39 35 24 40 35 24 40 34 23 39 31 22 39 31 23 38 32 21 37 36 23 40 36 25 39 38 27 41 39 28 42 40 29 43 41 30 44 39 28 44 41 28 45 36 25 41 35 27 42 37 26 42 37 26 42 36 25 41 37 26 42 37 26 42 39 28 44 37 26 42 36 25 41 36 25 41 36 25 41 35 27 42 39 28 44 36 28 43 39 28 44 38 27 43 38 27 43 41 28 45 41 28 45 37 26 42 38 25 42 36 25 41 32 24 39 32 24 39 30 24 38 31 23 36 36 25 39 37 25 39 37 26 40 38 27 41 38 27 41 37 26 40 37 26 40 37 26 42 38 27 41 38 27 41 38 27 43 38 27 43 37 26 42 36 25 41 37 26 42 36 25 41 37 26 42 33 24 41 34 26 39 34 26 41 34 26 39 34 26 39 36 25 41 34 23 39 33 25 38 32 24 39 33 25 40 34 26 39 35 27 42 35 27 40 36 25 39 37 26 42 35 24 40 36 25 41 35 24 40 36 25 41 37 26 42 37 26 42 36 25 41 37 26 42 37 26 42 38 27 43 39 28 44 
37 26 40 37 26 42 38 27 43 38 27 43 39 28 42 36 25 39 35 24 38 35 24 40 32 24 39 34 23 37 34 23 37 34 23 37 34 23 37 37 25 39 36 24 38 36 25 39 36 25 41 35 24 40 35 24 40 32 24 39 33 25 40 35 24 40 37 26 42 38 27 41 40 29 43 41 29 43 42 31 45 39 31 44 38 27 43 37 26 42 36 25 41 38 25 42 38 27 43 36 25 41 36 25 41 37 26 42 37 26 42 36 28 43 36 28 43 35 24 40 36 25 41 34 26 41 35 27 42 37 29 44 37 29 42 37 29 42 38 27 41 37 26 40 41 28 45 41 28 45 38 27 43 37 24 41 36 25 41 35 24 40 31 23 36 31 25 37 32 24 37 35 24 38 35 24 38 37 24 41 38 27 41 35 27 40 36 28 43 36 25 39 36 25 41 36 25 41 37 26 42 37 26 42 38 25 42 34 26 41 38 27 43 36 28 43 37 26 40 34 26 39 34 23 37 35 24 38 36 28 41 34 26 39 34 26 39 35 27 40 34 23 37 32 24 39 32 23 40 32 24 39 33 25 40 35 27 42 37 26 42 36 25 41 34 26 41 34 26 41 36 25 41 37 26 42 37 26 42 35 27 42 36 28 43 34 26 41 36 25 42 36 28 43 36 28 43 36 28 43 
36 25 41 36 25 39 39 28 42 40 29 43 39 28 44 37 26 42 34 23 39 34 23 37 31 23 38 36 25 41 35 24 40 36 25 39 37 26 40 38 26 40 39 27 41 37 25 39 36 25 41 35 24 40 36 25 41 35 24 40 36 25 41 37 26 43 38 27 43 39 28 44 39 28 42 41 29 43 42 30 44 40 28 42 37 26 42 36 25 41 34 23 39 35 24 40 37 26 42 37 26 42 36 25 41 33 25 40 35 24 40 34 23 39 34 23 39 29 21 36 31 23 38 32 26 40 35 27 42 35 27 42 38 27 41 37 26 40 37 25 39 37 26 40 38 27 43 39 27 41 36 23 40 36 23 40 35 24 40 35 23 37 33 25 38 32 24 39 33 27 41 34 26 39 37 26 42 38 27 41 39 28 42 38 27 43 39 28 42 37 26 42 37 26 42 36 25 41 35 24 40 33 25 40 35 24 40 31 23 38 34 26 41 35 27 42 35 24 38 34 23 37 35 24 38 35 24 38 38 27 41 38 27 41 37 26 40 36 25 39 31 23 38 30 22 37 30 24 38 31 23 38 32 24 39 32 26 40 33 25 40 33 25 40 34 26 41 34 26 41 33 25 40 35 27 42 34 26 41 34 26 41 33 25 40 32 26 40 33 25 38 33 25 38 33 25 40 34 26 41 
36 25 39 36 25 41 38 27 43 38 27 43 39 28 42 37 26 40 35 24 38 34 23 39 34 23 37 36 25 41 35 24 40 36 25 41 37 26 40 39 27 41 39 27 41 38 26 40 38 25 42 35 24 40 36 25 41 36 25 41 37 26 42 38 27 43 39 28 44 40 28 42 40 29 43 40 28 42 41 29 43 39 27 41 36 25 41 35 24 40 33 22 38 36 25 41 37 26 42 37 26 42 37 26 42 35 24 40 35 24 40 32 21 37 32 21 37 31 20 36 29 21 36 33 25 40 33 25 40 35 27 42 33 25 38 36 25 39 33 22 36 33 25 38 39 26 43 38 25 42 37 24 41 36 23 40 35 24 40 33 25 40 32 24 39 33 27 41 33 27 41 34 26 41 37 26 40 39 28 42 39 28 44 40 29 43 40 29 43 35 27 42 38 27 43 35 24 40 37 26 42 34 23 39 34 23 39 32 24 39 35 24 40 34 26 41 34 23 37 34 23 37 35 24 38 36 24 38 37 26 40 38 27 41 38 27 41 36 25 39 31 23 38 31 23 38 30 22 37 31 23 38 31 22 39 31 25 39 32 24 39 33 25 40 33 25 40 33 25 40 33 25 40 34 26 41 34 26 41 34 26 41 33 25 40 32 24 39 32 24 39 32 24 39 34 26 41 33 25 40 
37 24 41 38 26 40 39 27 41 38 26 40 38 25 42 37 24 41 37 24 41 36 24 38 35 24 40 36 23 40 35 24 40 38 26 40 36 25 39 37 25 39 37 25 39 36 24 38 38 26 40 39 28 42 38 27 41 39 28 42 37 26 42 35 24 40 35 24 38 36 24 38 36 25 39 38 26 40 39 27 41 38 27 41 34 26 41 34 23 39 33 22 38 33 22 38 32 24 37 31 23 36 33 25 38 37 26 40 34 26 39 30 22 35 32 24 37 31 20 34 29 21 36 31 23 38 31 23 38 31 23 38 32 24 37 34 23 37 34 23 37 34 23 37 36 25 41 35 24 40 36 25 41 36 25 41 37 24 41 36 25 41 36 25 41 38 27 43 39 28 42 40 29 45 41 29 43 39 27 41 38 27 43 37 26 40 38 27 41 38 27 41 37 26 40 33 25 38 35 24 38 31 23 36 33 22 36 32 21 35 34 23 37 35 24 38 35 24 38 36 25 39 35 24 38 36 24 38 35 24 38 35 24 38 38 27 41 36 28 41 36 25 41 33 25 40 33 22 38 32 24 39 32 24 39 34 26 41 33 27 41 35 29 43 34 28 42 31 25 39 32 26 40 31 25 39 32 26 40 31 25 39 31 23 38 32 24 39 32 24 39 29 21 36 32 24 39 31 25 39 
37 24 41 37 25 39 38 26 40 38 26 40 38 25 42 38 25 42 38 25 42 37 25 39 35 22 39 35 23 37 36 24 38 37 25 39 37 26 40 36 24 38 35 24 38 36 25 39 38 26 40 40 29 43 40 29 43 41 30 44 36 25 41 34 23 39 32 21 35 34 22 36 36 25 39 37 26 40 40 28 42 38 26 40 35 24 38 31 25 37 30 24 36 33 22 36 30 22 35 32 24 37 33 25 38 34 26 39 34 26 39 34 23 37 31 23 36 29 21 34 30 22 35 31 23 36 31 23 36 31 23 36 32 24 37 32 24 37 33 25 38 32 24 37 35 24 38 35 24 38 37 26 40 34 26 41 37 26 42 36 25 41 37 26 42 39 28 44 40 28 42 42 31 45 43 30 47 41 29 43 38 27 41 36 25 41 36 25 39 36 26 37 35 27 40 33 25 38 35 24 38 33 22 36 34 22 36 32 21 35 35 23 37 35 24 38 36 25 41 37 26 42 35 24 40 35 22 39 34 23 39 36 25 41 39 28 44 36 28 43 37 26 42 33 25 40 32 24 39 32 24 39 34 23 39 33 25 40 33 27 41 36 30 44 35 29 43 31 25 39 31 25 39 30 24 38 31 25 39 31 25 39 31 25 39 31 23 38 29 23 37 29 23 37 31 23 36 32 24 37 
38 27 41 39 28 44 39 28 44 40 27 44 40 28 42 39 27 41 39 27 41 38 25 42 38 25 42 37 25 39 36 26 37 38 26 40 36 25 39 34 23 39 34 23 37 34 23 37 35 24 40 37 26 40 38 27 41 39 29 40 39 28 42 36 25 39 38 27 41 38 27 41 40 29 43 40 29 43 40 29 43 40 29 43 34 26 39 34 26 39 33 25 38 35 24 38 32 24 37 34 26 39 34 26 39 36 28 41 36 28 41 35 27 40 36 28 41 35 27 40 37 26 40 39 28 42 36 28 41 33 25 38 34 26 39 34 26 39 35 27 40 34 26 39 37 26 40 38 27 41 40 29 43 39 28 44 40 29 45 39 28 44 39 26 43 41 28 45 39 28 44 40 29 43 42 30 44 40 29 45 39 28 42 37 26 40 38 27 43 36 28 41 36 28 41 37 26 40 37 26 40 37 26 40 37 26 40 36 25 39 38 27 41 39 27 41 40 29 45 40 29 45 38 27 43 38 25 42 35 24 40 35 24 40 36 25 41 36 25 41 34 26 41 33 25 40 31 23 38 31 23 36 30 22 37 30 22 37 29 21 36 27 21 35 26 20 34 25 19 33 26 20 34 27 21 35 27 21 35 31 23 38 31 23 38 32 24 39 32 24 39 32 24 39 33 25 40 32 24 39 
37 29 44 40 29 43 40 29 43 40 29 43 40 29 45 41 28 45 40 27 44 39 27 41 39 28 44 36 25 41 36 25 39 37 25 39 37 26 40 33 22 36 34 23 37 33 22 36 34 23 37 37 26 40 37 26 40 39 28 42 39 28 42 38 27 41 38 27 41 39 28 42 42 31 45 41 30 44 41 30 44 40 29 43 36 25 39 37 26 40 35 24 38 35 24 38 33 25 38 34 26 39 37 26 40 39 28 42 39 28 42 36 28 41 38 27 41 39 28 42 38 27 41 39 28 42 36 30 42 35 27 40 35 27 40 37 26 40 35 27 40 37 26 40 39 28 42 38 27 43 41 30 46 41 30 46 40 29 45 41 30 44 39 28 44 40 27 44 38 27 43 41 28 45 41 29 43 39 28 44 39 28 44 38 27 41 38 27 43 37 29 44 36 28 43 36 28 43 37 26 42 37 26 42 36 28 43 38 27 43 39 28 44 39 28 44 41 30 46 40 29 45 39 28 44 38 27 43 35 24 40 35 24 40 35 24 40 36 25 41 36 25 41 35 24 40 33 22 38 30 22 37 29 21 36 29 21 36 28 20 35 26 20 34 26 20 34 25 19 33 25 19 33 26 20 34 26 20 34 29 21 36 30 22 37 32 24 39 34 23 37 34 23 37 33 25 38 34 26 39 
35 24 38 34 23 39 38 27 43 37 26 42 35 24 38 35 24 38 35 24 38 36 25 41 37 26 40 35 24 40 34 23 39 33 22 38 33 22 36 36 25 39 36 25 39 37 25 39 36 25 39 36 25 39 38 27 43 39 28 44 40 29 45 40 29 43 40 29 43 40 29 43 38 27 41 38 27 41 39 27 41 40 26 41 38 27 41 38 27 41 38 27 41 38 27 41 38 27 41 39 28 42 39 28 42 38 27 41 37 26 40 37 26 40 37 26 40 37 26 40 37 26 40 34 23 37 37 26 40 39 28 42 39 28 42 38 27 41 35 27 40 37 26 40 37 26 40 37 26 40 36 25 39 38 27 43 36 25 41 35 24 40 34 23 39 31 23 38 31 23 36 32 21 37 30 22 37 29 21 36 29 21 36 30 22 37 31 23 38 31 25 39 33 22 38 30 22 37 31 23 38 33 25 40 37 26 42 38 27 43 38 27 43 39 28 44 37 26 42 36 28 43 37 26 42 36 25 41 32 24 39 33 25 40 34 26 41 36 28 43 40 29 45 40 29 45 36 28 43 36 28 43 37 26 42 34 23 37 35 24 40 33 24 41 33 25 40 32 24 39 32 24 39 31 23 38 32 24 39 33 25 40 34 26 41 34 26 41 36 28 41 35 27 40 38 27 43 35 27 42 
35 24 38 36 25 39 37 26 40 38 27 41 36 25 39 35 24 38 34 23 37 36 25 39 35 27 40 33 25 38 33 25 38 31 23 36 34 23 37 36 25 39 37 26 40 37 25 39 36 25 39 37 26 40 39 28 42 39 28 42 39 28 42 40 29 43 39 28 42 39 28 42 38 27 41 37 26 42 37 26 40 37 26 42 39 27 41 39 27 41 39 27 41 39 27 41 40 29 43 38 27 41 39 28 42 37 26 40 38 27 41 37 26 40 37 26 40 36 25 39 37 25 39 36 24 38 37 26 40 36 28 41 36 28 41 38 27 41 36 25 39 36 25 39 37 26 42 37 26 40 38 27 41 37 26 40 37 27 38 36 25 41 34 23 39 34 23 39 34 23 39 33 22 38 33 22 38 30 22 37 30 22 37 32 24 39 31 23 38 30 24 38 31 23 38 31 23 38 32 24 39 32 24 39 33 27 41 35 27 42 38 27 43 39 26 43 35 27 42 35 27 40 36 25 41 34 26 39 32 24 37 32 24 39 34 26 39 35 27 42 38 27 41 38 27 41 37 26 42 38 27 43 37 26 42 35 24 40 35 24 40 34 26 41 35 27 42 34 26 41 32 26 40 32 26 40 33 25 38 33 25 38 33 27 41 35 26 43 38 27 43 37 26 40 38 26 40 36 25 41 
31 23 36 32 24 37 35 27 40 35 27 40 33 25 38 33 25 38 32 24 37 34 26 39 35 27 40 35 27 40 36 28 41 36 28 41 37 26 40 37 26 40 37 26 40 38 26 40 38 27 41 37 26 40 37 26 40 38 27 41 38 27 41 40 29 43 38 27 41 37 26 40 35 24 38 34 23 37 36 25 39 36 25 39 37 26 40 38 26 38 38 26 40 38 26 40 40 28 42 39 27 41 38 26 40 37 25 39 37 25 39 37 25 39 36 24 38 36 24 38 36 24 38 33 21 35 35 23 37 35 24 38 35 24 38 35 24 38 35 24 38 34 23 37 34 23 39 34 23 37 36 25 39 35 24 38 34 23 37 35 24 40 36 25 41 36 25 41 37 26 42 36 25 41 33 25 40 32 24 39 31 23 38 35 24 40 33 25 40 30 24 38 31 23 38 28 20 35 29 21 36 31 23 38 34 26 41 34 26 41 34 26 41 34 26 41 33 25 40 32 24 37 33 25 40 33 25 38 33 25 38 35 24 40 35 27 40 35 27 42 38 27 41 37 26 40 38 27 43 38 27 43 38 27 41 37 24 41 36 25 39 40 32 47 42 31 47 40 29 45 40 29 45 38 27 43 35 27 42 36 28 41 37 26 42 36 25 41 37 26 40 37 26 40 36 25 39 37 26 42 
34 26 39 33 25 38 34 26 39 32 24 37 32 24 37 33 25 38 33 25 38 34 26 39 34 26 39 34 26 39 34 26 39 35 27 40 37 26 40 37 26 40 37 26 40 37 26 40 37 26 40 37 26 40 38 27 41 38 27 41 38 27 41 38 27 41 38 27 41 36 25 39 35 24 38 35 24 40 35 24 38 36 25 41 37 26 40 37 26 40 37 26 40 39 28 42 39 27 41 40 28 42 40 28 42 35 23 37 36 24 38 38 26 40 37 25 39 37 25 39 37 25 39 35 23 37 35 24 38 36 25 39 35 24 38 36 25 39 35 24 38 34 23 37 34 23 39 35 24 38 35 24 38 35 24 38 34 23 39 35 24 40 36 25 41 37 26 42 37 26 42 36 25 41 34 26 41 33 25 40 33 25 40 33 25 40 33 25 40 30 24 38 30 24 38 27 21 35 28 22 36 31 23 38 33 25 40 34 26 41 34 26 41 35 27 42 33 25 40 32 24 37 33 25 40 33 25 38 33 25 38 35 24 40 37 26 40 38 25 42 37 26 40 38 27 41 38 25 42 38 26 40 39 27 41 38 26 40 38 26 40 40 29 45 41 30 46 40 29 45 38 27 44 38 27 43 38 27 43 37 26 40 36 25 41 38 27 41 36 25 39 37 26 40 37 25 39 37 26 40 
33 25 38 34 26 39 33 25 38 32 24 37 31 23 36 30 22 35 30 22 35 31 23 36 33 25 38 33 25 38 33 25 38 35 27 40 36 28 41 36 25 39 37 26 40 38 27 41 38 27 41 37 26 40 37 26 40 37 26 40 37 26 40 37 26 40 36 25 39 35 24 38 34 23 37 34 23 37 36 25 39 37 26 40 38 27 41 38 27 41 38 27 41 38 27 41 40 28 42 39 27 41 39 27 41 37 25 39 37 25 39 38 26 40 38 26 40 39 27 41 39 27 41 37 26 40 38 27 41 39 28 42 38 27 41 35 24 38 34 23 37 35 24 38 34 23 39 34 23 37 34 23 37 34 23 37 34 23 39 35 24 40 36 25 41 37 26 42 37 26 42 36 25 41 34 23 39 33 25 40 36 25 41 34 26 41 34 26 41 29 23 37 30 24 38 27 21 35 27 21 35 29 23 37 32 24 39 33 25 40 32 24 39 33 25 40 34 26 39 34 26 39 36 28 41 37 29 42 36 28 41 36 28 41 36 28 41 38 27 41 38 27 41 37 26 40 37 26 40 38 26 40 39 27 41 39 26 43 38 26 40 39 28 44 39 28 44 37 26 42 37 26 42 37 26 42 37 26 42 38 27 41 38 27 43 37 26 40 36 25 41 35 24 38 34 23 37 34 23 37 
34 26 39 34 26 39 34 26 39 33 25 38 31 23 36 31 23 36 30 22 35 31 23 36 33 25 38 33 25 38 33 25 38 35 27 40 36 28 41 38 27 41 38 27 41 37 26 40 38 27 41 37 26 40 37 26 40 37 26 40 37 26 40 37 26 40 36 25 39 36 25 39 35 24 38 34 23 37 36 25 39 36 25 39 39 28 42 38 27 41 38 27 41 39 28 42 40 28 42 39 27 41 39 27 41 37 25 39 38 26 40 38 26 40 38 26 40 39 27 41 37 26 40 37 26 40 38 27 41 39 28 42 37 26 40 36 25 39 36 25 39 34 23 37 35 24 38 35 24 38 34 23 37 34 23 37 35 24 40 35 24 40 35 24 40 34 26 39 33 25 40 35 24 40 36 25 41 36 25 41 33 25 40 34 26 41 34 26 41 32 24 39 32 23 40 31 22 39 32 23 40 32 23 40 31 22 39 33 24 41 34 25 42 36 25 42 36 28 41 36 28 41 37 29 42 39 28 42 37 26 40 38 27 41 38 27 41 38 27 41 38 27 41 38 27 41 38 27 41 38 27 41 40 29 43 39 28 44 40 29 43 39 28 44 39 28 44 37 26 42 37 26 42 37 26 42 36 25 39 37 26 42 38 27 41 37 26 40 36 25 41 35 24 38 32 24 37 35 24 38 
36 28 41 36 28 41 33 25 38 33 25 38 31 23 36 31 23 36 31 23 36 31 23 36 35 24 38 35 24 38 31 23 36 35 27 40 36 28 41 39 28 42 39 28 42 38 27 41 37 26 40 36 25 39 36 25 39 35 24 38 37 26 40 36 25 39 36 25 39 35 24 38 34 23 37 35 24 38 36 25 39 36 25 41 38 27 41 38 27 43 39 28 42 39 28 42 38 27 41 38 27 41 38 27 41 35 24 38 36 25 39 37 26 40 37 26 40 38 27 41 38 27 41 37 26 40 37 26 40 40 29 43 38 27 41 36 25 39 35 24 38 35 24 38 35 24 38 34 23 37 35 24 38 35 24 38 34 23 39 35 24 40 33 25 40 33 25 38 32 24 39 35 24 40 34 23 39 36 25 41 34 26 41 35 27 42 34 26 41 33 25 40 34 26 41 33 25 40 34 26 41 34 26 41 34 26 41 34 26 41 37 26 42 39 26 43 38 27 41 38 27 41 39 28 42 39 28 42 37 26 40 38 27 41 37 26 40 37 26 40 38 27 41 39 28 42 39 28 42 40 29 43 39 31 44 39 31 46 41 30 44 38 27 43 38 27 43 37 26 42 35 24 40 36 25 41 37 26 40 38 27 44 37 26 40 39 28 42 37 26 40 36 25 39 32 24 37 32 24 37 
36 25 39 37 26 40 36 25 39 36 25 39 34 23 37 33 22 36 34 23 37 35 24 38 34 23 37 35 24 38 35 24 38 35 27 40 36 25 39 37 26 40 37 26 40 37 26 40 36 25 39 35 24 38 35 24 38 35 24 38 36 25 39 36 25 39 37 26 40 37 26 40 36 25 39 36 25 39 38 27 41 37 27 38 36 25 39 37 26 40 37 26 40 37 26 40 36 25 39 36 25 39 35 24 38 37 26 40 37 26 40 37 26 40 36 25 39 36 25 39 37 26 40 37 26 40 38 27 41 39 28 42 38 27 41 36 25 39 35 24 38 36 25 39 35 24 38 36 25 39 36 25 39 36 25 41 36 25 41 35 24 40 34 26 41 34 26 39 34 26 39 36 25 39 36 25 39 36 25 39 36 25 41 33 27 41 33 25 40 35 27 42 35 27 42 35 27 42 35 27 42 34 26 41 34 26 41 33 25 40 36 25 41 38 25 42 37 29 42 40 29 43 38 27 41 38 27 41 35 24 38 36 25 39 36 25 39 36 25 39 37 25 39 37 26 40 37 26 40 38 27 43 38 27 41 39 28 44 38 27 41 37 26 42 37 24 41 34 23 37 37 24 41 36 24 38 35 24 38 36 25 42 36 25 39 36 25 39 36 25 39 36 25 39 33 27 39 33 25 38 
38 27 41 36 25 39 36 25 39 35 24 38 34 23 37 33 22 36 33 22 36 35 24 38 36 25 39 35 24 38 34 23 37 37 26 40 38 26 40 37 26 40 37 26 40 36 25 39 36 25 39 34 23 37 36 25 39 35 24 38 36 25 39 36 25 39 37 26 40 37 26 40 37 26 40 37 26 40 38 27 41 37 26 40 36 25 39 37 26 42 37 26 40 36 25 39 37 26 40 36 25 39 36 25 39 37 26 40 37 26 40 37 26 40 37 26 40 37 26 40 37 26 40 37 26 40 38 27 41 41 29 43 39 27 41 37 26 40 35 24 38 36 25 39 36 25 39 36 25 39 35 24 38 36 25 42 36 25 41 34 26 41 34 26 41 35 27 40 35 27 40 36 25 39 37 26 40 36 25 39 36 25 39 33 25 40 33 25 40 35 27 42 34 26 41 35 27 42 35 27 42 36 25 41 35 24 40 33 22 38 35 24 40 36 25 41 38 27 41 40 28 42 37 26 40 38 27 41 33 22 36 36 24 38 36 24 38 36 25 39 37 26 40 36 25 39 37 26 40 39 26 43 38 27 41 38 27 43 38 27 41 36 25 39 36 25 41 35 24 38 34 23 39 35 24 38 35 24 38 35 24 41 34 26 39 34 26 39 34 26 41 36 25 39 32 26 38 33 25 38 
35 24 40 35 24 40 36 25 41 36 25 41 34 23 39 36 25 41 35 24 40 36 25 41 37 26 42 36 25 41 36 25 41 38 27 43 37 26 40 36 25 39 36 25 39 35 24 38 34 23 37 34 23 37 35 24 38 35 24 38 35 24 38 36 25 39 36 25 39 36 25 39 37 26 40 36 25 39 37 26 40 38 27 41 37 26 40 37 26 40 37 26 40 36 25 39 37 26 40 36 25 39 35 24 38 36 25 39 37 26 40 37 26 40 36 25 39 37 26 40 37 26 40 39 28 42 38 27 41 39 27 41 38 26 40 35 24 38 37 26 40 35 24 40 35 24 40 35 24 40 34 23 39 34 23 39 33 25 40 33 25 40 34 26 41 35 27 42 34 28 40 37 26 42 37 24 41 35 24 38 36 25 41 32 21 37 34 23 37 34 26 41 34 26 39 38 27 41 37 26 40 36 25 39 35 24 38 34 23 37 37 25 39 39 27 41 39 27 41 40 28 42 38 26 40 38 26 40 35 23 37 37 25 39 36 25 39 36 25 39 35 24 38 33 25 38 33 25 38 33 25 38 35 27 40 34 26 39 34 26 39 35 24 38 34 23 39 36 25 41 36 25 41 37 26 42 37 26 42 33 25 40 32 24 39 32 24 39 32 24 37 32 24 37 33 25 38 32 24 37 
34 23 37 34 23 37 35 24 38 35 24 38 35 24 38 36 25 39 36 25 39 36 25 39 38 27 41 37 26 40 36 25 39 36 25 39 37 26 40 37 26 40 36 25 39 36 25 39 35 24 38 34 23 37 36 25 39 36 25 39 35 24 38 35 24 38 36 25 39 36 25 39 36 25 39 36 25 39 38 27 41 38 27 41 38 27 41 39 28 42 38 27 41 37 26 40 37 26 40 36 25 39 34 23 37 37 26 40 37 26 40 37 26 40 36 25 39 37 26 40 38 26 40 39 28 42 38 27 41 38 26 40 37 25 39 35 24 38 35 24 38 34 23 39 35 24 40 35 24 40 34 23 39 33 22 38 31 23 38 32 24 39 35 27 42 35 27 42 36 28 41 37 26 40 37 25 39 36 25 39 36 25 39 33 22 36 33 22 36 33 25 38 36 25 39 39 28 42 38 27 41 35 24 38 34 23 37 34 23 37 37 26 40 39 27 41 39 27 41 40 28 42 39 27 41 38 26 40 37 25 39 37 25 39 36 25 39 36 25 39 37 26 40 35 24 38 32 24 37 34 26 39 33 25 38 34 26 39 35 24 38 34 23 37 35 24 38 37 26 40 37 26 40 39 27 41 34 26 39 34 26 39 31 25 37 31 23 36 32 24 37 32 24 37 32 26 38 32 24 37 
36 24 38 35 24 38 34 23 37 35 24 38 36 25 39 37 26 40 38 27 41 39 28 42 39 28 42 38 27 41 38 27 41 37 26 40 35 24 38 35 24 38 37 26 40 35 24 38 34 23 37 34 23 37 34 23 37 34 23 37 34 23 37 34 23 37 36 25 39 37 26 40 36 25 39 35 24 38 37 26 40 36 25 39 37 26 40 37 26 40 37 26 40 36 25 39 35 24 38 36 25 39 34 23 37 36 25 39 36 25 39 38 27 41 38 27 41 37 26 40 37 26 40 36 25 39 36 25 39 35 24 38 35 24 38 33 25 38 34 26 39 36 25 41 36 25 39 36 25 39 35 24 38 35 24 38 36 25 39 36 25 39 37 26 40 38 27 41 37 26 40 38 27 41 38 26 40 36 25 39 36 25 39 34 23 37 35 24 38 37 26 40 37 26 40 37 26 40 35 24 38 35 24 38 36 25 39 35 24 38 37 26 40 38 27 41 39 27 41 40 28 42 37 26 40 37 26 40 34 23 37 34 23 37 35 24 38 34 23 37 37 26 40 34 23 37 32 21 35 34 23 37 34 23 37 37 26 40 37 26 40 37 26 40 36 25 39 37 26 40 38 27 41 39 27 41 39 27 41 38 26 40 35 24 38 33 22 36 30 22 35 31 23 36 31 23 36 31 25 37 
36 24 38 36 25 39 36 24 38 35 24 38 37 26 40 38 27 41 39 28 42 38 27 41 40 30 41 39 28 42 38 27 41 36 25 39 35 24 38 36 25 39 35 24 38 35 24 38 34 23 37 34 23 37 34 23 37 33 22 36 35 24 38 35 24 38 37 26 40 37 26 40 37 26 40 38 27 41 36 25 39 36 25 39 36 25 39 38 27 41 37 26 40 37 26 40 36 25 39 36 25 39 35 24 38 36 25 39 37 26 40 37 26 40 38 27 41 37 26 40 37 26 40 35 24 38 32 24 37 33 25 38 32 24 37 33 25 38 34 26 39 33 25 40 35 24 38 34 23 37 35 24 38 35 24 38 37 26 40 37 26 40 38 27 41 39 27 41 39 28 42 39 27 41 38 27 41 36 25 39 35 24 38 36 25 39 37 26 40 36 25 39 37 26 40 36 25 39 35 24 38 35 24 38 35 24 38 36 25 39 35 24 38 37 26 40 38 27 41 40 29 43 37 26 40 37 26 40 35 24 38 35 24 38 35 24 38 36 25 39 36 25 39 33 22 36 32 21 35 33 22 36 35 24 38 37 26 40 37 26 40 37 26 40 36 25 39 38 27 41 39 28 42 40 28 42 40 28 42 39 27 41 37 25 39 35 23 37 33 22 36 31 23 36 32 24 37 34 26 39 
38 26 40 37 26 40 35 24 38 37 26 40 37 26 40 38 27 41 38 27 41 38 27 41 37 26 40 37 26 40 36 25 39 34 23 37 33 22 36 36 25 39 37 26 40 34 23 37 35 24 38 35 24 38 35 24 38 35 24 38 36 25 39 37 26 40 39 28 42 38 27 41 38 27 41 38 27 41 36 25 39 37 26 40 38 27 41 38 27 41 38 27 41 39 28 42 39 28 42 37 26 40 37 26 40 36 25 39 37 26 40 36 25 39 36 25 39 36 25 39 35 24 38 33 22 36 33 22 36 29 21 34 30 22 35 33 22 36 34 22 36 33 22 38 34 23 37 34 23 37 35 24 38 35 24 38 36 25 39 37 26 40 40 28 42 40 28 42 41 29 43 39 27 41 37 26 40 37 26 40 36 25 39 35 24 38 36 25 39 34 23 37 35 24 38 34 23 37 32 21 35 34 23 37 33 22 36 34 23 37 34 23 37 37 26 40 40 29 43 41 30 44 38 27 41 38 27 41 37 26 40 37 26 40 37 26 40 37 26 40 36 25 39 35 24 38 34 23 37 35 24 38 36 25 39 37 26 40 37 26 40 37 26 40 37 26 40 38 27 41 36 28 41 41 29 43 41 29 43 40 28 42 37 26 40 34 26 39 36 25 39 36 25 39 35 27 40 34 26 39 
38 26 40 38 26 40 37 26 40 38 26 40 38 27 41 38 27 41 38 27 41 38 27 41 38 27 41 36 25 39 36 25 39 34 23 37 34 23 37 36 25 39 36 25 39 35 24 38 36 25 39 36 25 39 35 24 38 35 24 38 37 26 40 37 26 40 38 27 41 39 28 42 37 26 40 38 27 41 36 25 39 36 25 39 37 26 40 37 26 40 39 28 42 39 28 42 39 28 42 38 27 41 38 27 41 36 25 39 37 26 40 37 26 40 37 26 40 36 25 39 33 25 38 34 23 37 33 22 36 30 22 35 30 22 35 32 21 35 33 22 36 34 21 38 34 23 37 34 23 37 36 25 39 36 25 39 38 27 41 38 27 41 42 30 44 41 29 43 41 29 43 40 28 42 35 27 40 37 26 40 37 26 40 35 24 38 37 25 39 36 25 39 36 25 39 35 24 38 35 24 38 34 23 37 35 24 38 35 24 38 36 25 39 36 25 39 39 28 42 40 29 43 38 27 41 37 26 40 37 26 40 36 25 39 37 26 40 37 26 40 37 26 40 35 24 38 34 23 37 35 24 38 37 26 40 37 26 40 38 27 41 37 26 40 36 25 39 36 28 41 38 27 41 39 28 42 40 28 42 40 28 42 39 27 41 38 26 40 36 25 39 37 26 40 38 27 41 35 27 40 
38 26 40 38 26 40 37 26 40 39 27 41 39 28 42 39 28 42 37 26 40 38 27 41 37 26 40 36 25 39 35 24 38 33 22 36 34 23 37 37 26 40 38 27 41 36 25 39 36 25 39 35 24 38 36 25 39 36 25 39 38 27 41 37 26 40 39 28 42 39 28 42 37 26 40 38 27 41 35 24 38 35 24 38 36 25 39 36 25 39 38 27 41 39 28 42 40 29 43 39 28 42 38 27 41 37 26 40 37 26 40 36 25 41 37 26 42 36 25 41 34 26 39 32 26 38 33 25 38 30 22 35 30 22 35 33 22 36 34 23 37 32 24 39 34 23 37 33 22 36 35 24 38 36 25 39 39 28 42 39 28 42 41 29 43 42 30 44 42 30 44 38 27 41 37 26 40 36 25 39 36 25 39 37 25 39 36 25 39 35 24 38 36 25 39 37 26 40 36 25 39 37 26 40 37 26 40 38 27 41 39 28 42 38 27 41 40 29 43 39 28 42 38 27 41 38 27 41 39 28 42 39 28 42 39 28 42 38 27 41 39 27 41 36 25 39 36 25 39 38 27 41 40 29 43 38 27 41 38 27 41 37 25 39 37 26 40 38 27 41 38 27 41 39 27 41 41 27 42 40 26 41 38 26 40 38 26 40 39 25 40 39 27 41 38 27 41 39 27 41 
38 26 40 36 25 39 39 27 41 38 27 41 38 27 41 38 27 41 37 26 40 36 25 39 36 25 39 35 24 38 36 25 39 35 24 38 34 23 37 37 26 40 37 26 40 37 26 40 37 26 40 37 26 40 36 25 39 36 25 39 36 25 39 38 27 41 38 27 41 39 28 42 37 26 40 38 27 41 35 24 38 35 24 38 35 24 38 37 26 40 38 27 41 39 28 42 39 28 42 39 28 42 37 26 40 37 26 40 38 27 43 36 25 41 37 26 42 37 26 42 36 25 39 33 25 38 33 25 38 31 23 36 33 22 36 35 23 37 33 22 36 32 24 39 35 24 38 34 23 37 38 27 41 37 26 40 38 27 41 39 28 42 41 29 43 41 29 43 42 30 44 40 29 43 38 27 41 38 27 41 35 27 40 38 26 40 37 26 40 37 26 40 37 26 40 37 26 40 37 26 40 37 26 40 39 27 41 40 28 42 40 28 42 40 28 42 38 27 41 39 28 42 37 26 40 38 27 41 39 28 42 39 28 42 38 26 40 39 27 41 37 26 40 36 25 39 36 25 39 40 28 42 41 29 43 38 27 41 39 28 42 38 27 41 37 26 40 38 27 41 36 28 41 39 27 41 38 26 40 38 26 40 38 26 40 37 25 39 37 25 39 38 26 40 38 27 41 39 28 42 
36 25 39 37 26 40 38 27 41 38 27 41 40 29 43 38 27 41 37 26 40 36 25 39 36 25 39 36 25 39 36 25 39 36 25 39 35 24 38 38 27 41 38 27 41 38 27 41 38 27 41 37 26 40 36 25 39 36 25 39 36 25 39 36 25 39 37 26 40 37 26 40 37 26 40 37 26 40 34 23 37 35 24 38 35 24 38 36 25 39 36 25 39 37 26 40 38 27 41 37 26 40 36 25 39 35 24 38 36 25 39 36 25 39 37 26 40 36 25 39 37 26 42 37 26 42 36 25 41 36 25 41 34 26 39 34 26 39 34 26 39 34 26 39 36 25 39 37 26 40 38 27 41 38 27 41 38 27 41 39 28 42 41 29 43 41 29 43 40 29 43 40 29 43 41 29 43 41 27 42 38 27 41 38 27 41 40 28 42 39 27 41 39 28 42 40 28 42 39 28 42 40 28 42 40 28 42 39 28 42 40 28 42 38 27 41 38 27 41 37 26 40 36 25 39 36 25 39 38 27 41 38 27 41 38 27 41 38 27 41 38 27 41 38 26 40 38 26 40 40 29 43 43 32 46 40 29 43 40 29 43 39 28 42 39 27 41 39 27 41 39 27 41 38 26 40 38 26 40 37 25 39 38 26 40 38 26 40 38 26 40 38 27 41 39 27 41 39 28 42 
37 26 40 37 26 40 38 27 41 38 27 41 38 27 41 37 26 40 36 25 39 36 25 39 36 25 39 36 25 39 35 24 38 35 24 38 37 26 40 38 27 41 38 27 41 39 28 42 37 26 40 38 27 41 37 26 40 35 24 38 36 25 39 36 25 39 36 25 39 35 24 38 36 25 39 36 25 39 36 25 39 35 24 38 37 26 40 37 26 40 37 26 40 36 25 39 37 26 42 37 26 40 36 25 39 35 24 38 35 24 38 36 25 39 36 25 39 36 25 39 36 25 41 36 25 41 36 25 41 37 26 42 34 26 39 35 27 40 35 27 40 35 27 40 38 27 41 37 26 40 38 27 41 38 27 41 38 27 41 39 28 42 39 27 41 40 28 42 39 27 41 38 27 41 40 28 42 40 28 42 41 29 43 39 28 42 40 29 43 39 27 41 39 28 42 40 28 42 39 28 42 38 27 41 39 28 42 39 28 42 39 27 41 37 26 40 36 25 39 37 26 40 35 24 38 35 24 38 37 26 40 37 26 40 38 27 41 38 27 41 37 26 40 37 26 40 36 25 39 40 29 43 42 31 45 40 29 43 39 28 42 40 28 42 40 28 42 39 28 42 41 27 42 38 26 40 38 26 40 38 26 40 37 26 40 38 26 40 39 27 41 38 27 41 40 28 42 40 28 42 
37 26 40 37 26 40 38 27 41 37 26 40 37 26 40 36 25 39 36 25 39 34 23 37 34 23 37 35 24 38 35 24 38 37 26 40 35 24 38 36 25 39 39 28 42 40 29 43 38 27 41 38 27 41 38 27 41 36 25 39 36 25 39 36 25 39 34 23 37 35 24 38 34 23 37 35 24 38 35 24 38 35 24 38 36 25 39 36 25 39 36 25 39 36 25 39 36 25 39 35 24 38 36 25 39 34 23 37 37 26 40 35 24 40 35 24 38 35 25 36 35 24 40 35 24 40 36 25 41 38 27 43 35 27 40 37 29 42 36 28 41 36 28 41 38 27 41 38 27 41 38 27 41 38 27 41 38 27 41 38 27 41 38 26 40 38 26 40 38 26 40 38 26 40 38 26 40 40 28 42 40 28 42 38 27 41 39 28 42 40 28 42 40 28 42 39 27 41 39 27 41 38 26 40 39 27 41 38 26 40 38 26 40 38 26 40 37 26 40 36 25 39 35 24 38 34 23 37 35 24 38 36 25 39 37 26 40 37 26 40 37 26 40 36 25 39 35 24 38 39 28 42 41 30 44 40 29 43 39 28 42 40 28 42 42 28 43 41 29 43 40 28 42 38 26 40 39 27 41 37 25 39 38 27 41 39 27 41 39 27 41 40 28 42 41 29 43 40 28 42 
36 25 39 36 25 39 36 25 39 37 26 40 36 25 39 35 24 38 33 22 36 34 23 37 35 24 38 35 24 38 34 23 37 36 25 39 34 26 39 37 26 40 36 25 39 37 26 40 38 27 41 39 28 42 39 28 42 38 27 41 37 26 40 36 25 39 35 24 38 35 24 38 35 24 38 35 24 38 34 23 37 36 25 39 37 26 40 36 25 39 36 25 39 36 25 39 36 25 39 34 23 37 35 24 38 35 25 36 35 24 38 34 23 39 35 24 40 33 22 36 33 22 38 33 22 38 34 23 39 36 25 41 34 26 39 34 26 39 34 26 39 34 26 39 38 27 41 38 27 41 37 26 40 38 27 41 37 26 40 36 25 39 37 25 39 37 25 39 35 24 38 37 25 39 36 25 39 37 26 40 37 26 40 38 27 41 38 27 41 39 28 42 39 28 42 36 25 39 36 25 39 35 24 38 36 25 39 36 25 39 37 26 40 38 27 41 36 25 39 37 26 40 35 24 38 35 24 38 36 25 39 36 25 39 36 25 39 36 25 39 37 25 39 35 24 38 34 23 37 37 26 40 39 28 42 38 27 41 38 27 41 39 27 41 38 27 41 39 27 41 38 27 41 37 25 39 37 26 40 35 24 38 37 26 40 37 26 40 41 29 43 40 28 42 39 27 41 40 28 42 
35 24 38 36 25 39 36 25 39 36 25 39 36 25 39 35 24 38 34 23 37 34 23 37 31 23 36 35 24 38 33 25 38 33 25 38 37 26 40 36 25 39 36 25 39 38 27 41 38 27 41 39 28 42 40 29 43 40 29 43 38 27 41 36 25 39 36 25 39 35 24 38 36 25 39 35 24 38 34 23 37 36 25 39 36 25 39 36 25 39 36 25 39 36 25 39 36 25 39 35 24 38 34 23 37 36 25 39 32 24 37 32 24 39 33 25 40 32 24 39 30 22 37 30 22 37 30 22 37 34 26 41 35 24 38 36 25 39 36 25 39 37 26 40 39 28 42 39 28 42 37 26 40 38 27 41 36 25 39 36 25 39 36 24 38 37 25 39 36 24 38 35 24 38 34 23 37 35 24 38 37 26 40 38 27 41 36 28 41 38 27 41 39 28 42 36 25 39 35 24 38 34 23 37 35 24 38 36 25 39 37 26 40 38 27 41 37 26 40 36 25 39 35 24 38 35 24 38 35 24 38 35 24 38 36 25 39 35 24 38 36 24 38 35 24 38 34 23 37 37 26 40 37 26 40 37 26 40 37 26 40 39 27 41 40 28 42 39 27 41 38 27 41 37 26 40 36 25 39 36 25 39 36 25 39 38 27 41 40 28 42 39 28 42 40 28 42 40 28 42 
33 22 36 35 24 38 36 25 39 34 23 37 35 24 38 33 22 36 34 23 37 35 24 38 34 23 37 33 25 38 36 25 39 34 26 39 35 27 40 35 24 38 36 25 39 37 26 40 38 27 41 38 27 41 38 27 41 37 26 40 37 26 40 37 26 40 37 26 40 37 26 40 36 25 39 36 25 39 34 23 37 35 24 38 34 23 37 34 23 37 35 24 38 34 23 37 36 25 39 35 24 38 35 24 38 35 24 40 32 24 39 31 23 36 31 23 36 30 22 37 29 21 36 28 20 35 28 20 35 30 22 37 33 22 36 32 21 35 34 23 37 35 24 38 35 24 38 35 24 38 36 25 39 35 24 38 35 24 38 36 25 39 37 25 39 38 26 40 37 25 39 36 25 39 35 24 38 34 23 37 36 25 39 38 27 41 37 26 40 36 25 39 36 25 39 32 24 37 33 22 36 30 22 35 31 23 36 34 23 37 33 25 38 37 26 40 37 26 40 37 26 40 37 26 40 37 26 40 36 25 39 36 25 39 35 24 38 36 25 39 36 24 38 35 24 38 35 24 38 37 26 40 38 27 41 37 26 40 36 25 39 37 26 40 34 26 39 37 26 40 37 26 40 33 25 38 34 26 39 32 24 37 34 26 39 33 25 38 38 27 41 38 27 41 38 26 40 39 27 41 
34 23 37 34 23 37 33 22 36 34 23 37 34 23 37 35 24 38 34 23 37 35 24 38 33 25 38 35 24 38 34 26 39 35 27 40 34 26 39 32 24 37 36 24 38 37 26 40 38 27 41 38 27 41 37 26 40 38 27 41 38 27 41 37 26 40 36 25 39 36 25 39 36 25 39 35 24 38 35 24 38 33 22 36 35 24 38 35 24 38 34 23 37 34 23 37 35 24 40 34 23 37 35 24 38 35 24 38 32 24 39 32 24 37 31 23 36 30 22 37 29 21 36 28 20 35 28 20 35 29 21 36 32 21 35 32 21 35 33 22 36 34 23 37 36 25 39 36 25 39 38 27 41 36 25 39 36 25 39 35 24 38 37 25 39 37 25 39 37 25 39 36 25 39 34 26 39 34 26 39 35 27 40 35 27 40 37 26 40 35 27 40 34 26 39 34 23 37 31 23 36 30 22 35 30 22 35 31 23 36 35 24 38 36 28 41 37 26 40 37 26 40 37 26 40 37 26 40 36 25 39 36 25 39 36 25 39 36 25 39 36 24 38 35 24 38 35 24 38 36 25 39 38 27 41 36 25 39 35 24 38 35 24 38 36 25 39 36 25 39 34 26 39 33 25 38 32 24 37 33 25 38 33 25 38 35 27 40 36 28 41 38 27 41 37 25 39 38 26 40 
33 22 36 33 22 36 35 24 38 33 22 36 34 23 37 33 22 36 35 24 38 35 24 38 33 25 38 33 25 38 35 24 38 32 24 37 34 26 39 37 26 40 36 25 39 36 25 39 37 26 40 35 24 38 35 24 38 35 24 38 36 25 39 36 25 39 36 25 39 37 26 40 35 24 38 36 25 39 34 23 37 34 23 37 36 25 39 36 25 39 37 26 40 38 27 41 37 26 40 36 25 39 36 25 39 34 23 37 31 23 38 30 22 37 29 21 34 29 21 36 28 20 35 27 19 34 27 19 34 27 19 34 30 19 33 30 19 33 31 20 34 32 21 35 35 24 38 34 23 37 35 24 38 36 25 39 36 25 39 35 24 38 36 24 38 38 26 40 39 27 41 36 25 39 33 25 38 31 23 36 31 23 36 30 22 35 30 22 35 31 23 36 31 23 36 30 22 35 30 22 35 29 21 34 30 22 35 31 23 36 33 25 38 34 26 39 35 24 38 35 24 38 37 26 40 37 26 40 36 25 39 37 26 40 35 24 38 35 24 38 37 26 40 37 26 40 37 26 40 39 28 42 39 28 42 39 27 41 38 26 40 37 26 40 38 27 41 38 27 41 35 27 40 33 25 38 32 24 37 30 24 36 32 24 37 33 25 38 34 26 39 35 27 40 38 26 40 39 25 40 
34 23 37 34 23 37 33 22 36 34 23 37 33 22 36 34 23 39 34 23 39 35 24 38 35 24 40 34 23 39 35 24 40 33 25 40 33 25 40 36 25 39 36 25 39 36 25 39 36 25 39 36 25 39 36 25 39 36 25 39 37 26 40 37 26 40 36 25 39 35 24 38 35 24 38 35 24 38 34 23 37 34 23 37 35 24 38 37 25 39 36 25 39 34 26 39 34 26 39 36 25 39 35 24 41 33 25 38 33 25 38 30 22 35 30 22 35 29 21 36 27 20 36 28 20 35 27 19 34 26 18 33 30 17 34 27 19 34 32 21 37 30 22 37 33 22 36 34 23 37 35 24 38 34 23 37 35 24 38 36 25 39 36 25 39 37 26 40 36 25 39 34 26 39 33 25 38 32 24 37 31 23 36 30 22 35 30 22 35 31 23 36 32 24 37 31 23 36 30 22 35 30 22 35 31 23 36 32 24 37 32 24 37 34 26 39 35 24 40 36 25 39 37 26 42 37 26 40 36 25 39 37 26 40 36 26 37 36 25 39 37 26 40 37 26 40 38 27 41 40 29 43 40 29 43 39 26 43 37 26 40 37 26 40 37 27 38 38 28 39 35 27 40 34 26 39 33 25 38 32 24 37 33 25 38 34 26 39 35 27 40 38 27 41 37 26 40 37 26 40 
34 23 37 35 24 38 35 24 38 36 25 39 36 25 39 33 22 38 32 21 37 35 24 38 36 25 41 34 23 39 34 23 39 35 24 40 35 24 40 34 23 39 35 24 38 35 24 40 35 24 38 36 25 39 36 25 39 37 26 40 37 26 40 36 25 39 35 24 38 35 24 38 34 23 37 33 22 36 35 24 38 36 25 39 37 26 40 37 26 40 37 26 40 35 24 38 34 26 39 35 24 38 33 25 40 32 26 40 32 26 38 31 23 36 31 25 37 29 23 37 30 24 38 28 22 36 27 21 35 26 18 33 26 18 33 25 19 33 27 21 35 28 20 35 29 21 34 31 20 34 34 23 37 32 24 37 34 23 37 35 24 38 37 26 40 35 24 38 34 23 37 32 24 37 32 24 37 32 21 35 32 21 35 31 20 34 28 20 33 31 23 36 34 23 37 33 22 36 34 23 37 34 23 37 35 24 38 36 25 39 36 25 39 34 23 37 33 25 40 32 24 39 34 26 41 36 25 41 36 25 41 37 24 41 35 24 40 35 24 40 36 26 37 38 27 41 38 27 41 38 27 41 39 27 41 38 26 40 37 26 40 36 26 37 36 26 37 37 27 38 37 26 40 37 27 36 35 27 40 35 27 40 35 27 40 35 27 40 34 26 39 35 27 42 37 29 42 36 28 41 
35 24 38 35 24 38 36 25 39 36 25 39 37 26 40 33 22 38 32 21 37 34 23 39 36 25 41 34 23 39 35 24 40 35 24 40 35 24 40 35 24 38 34 23 37 35 24 38 35 24 38 35 24 38 36 25 39 37 26 40 37 26 40 36 25 39 35 24 38 35 24 38 35 24 38 35 24 38 35 24 38 35 24 38 36 25 41 36 25 41 36 25 41 36 25 41 36 25 39 35 24 40 34 26 41 32 25 41 33 25 38 31 23 34 32 24 39 29 23 37 30 22 35 27 21 33 26 20 34 26 18 33 26 18 33 27 19 34 29 21 36 29 21 36 29 21 34 29 21 34 32 24 37 32 24 37 31 23 36 32 24 37 34 26 39 32 24 37 34 23 37 34 23 37 31 23 36 31 23 36 30 22 35 31 20 34 31 20 34 34 23 37 34 23 37 35 24 38 34 23 37 35 24 38 36 25 39 36 25 39 37 26 40 35 24 38 33 25 40 33 25 40 34 26 41 34 26 41 33 25 40 34 25 42 36 25 41 36 25 41 37 26 42 38 27 41 39 29 40 39 28 42 38 27 41 37 26 40 38 26 40 36 26 37 36 26 37 38 26 38 38 28 39 38 27 41 37 26 40 38 27 41 36 25 39 37 26 40 35 27 42 36 28 41 36 28 41 36 28 41 
35 24 38 36 25 39 36 25 39 37 26 40 35 24 38 33 22 38 33 22 38 33 22 38 35 24 40 33 22 38 34 23 39 36 25 41 35 24 40 35 24 40 35 24 38 33 22 38 34 23 37 35 24 38 36 25 39 36 25 39 35 24 38 35 24 38 35 24 38 34 23 37 36 25 39 36 25 39 37 26 40 37 26 40 34 23 39 35 24 40 36 25 41 36 25 41 35 24 40 35 24 40 34 23 39 31 23 38 31 23 38 30 22 37 30 24 38 27 23 37 29 23 35 29 21 34 27 19 32 25 19 33 25 19 33 27 19 34 30 22 37 30 24 38 31 23 36 30 22 35 31 23 36 34 23 37 30 22 35 31 23 36 32 24 37 31 23 36 30 22 35 32 21 35 30 22 35 31 23 36 29 21 34 32 21 35 33 22 36 36 25 39 35 24 38 38 27 41 37 26 40 38 27 41 39 28 42 39 28 42 37 26 40 35 24 38 32 24 39 30 22 37 32 24 39 32 24 39 31 23 38 32 21 37 34 23 37 36 25 39 39 28 44 40 29 43 40 29 45 39 28 42 39 27 41 38 27 41 39 28 42 37 25 39 38 24 37 37 27 38 38 26 38 39 25 40 37 26 40 38 27 41 37 26 40 37 26 40 36 25 39 37 26 40 35 25 36 34 26 39 
35 24 38 35 24 38 36 25 39 36 25 39 37 26 40 35 24 38 31 20 36 33 22 36 34 23 40 33 22 38 34 23 39 35 24 40 36 25 42 34 23 37 35 24 40 36 25 39 35 24 38 36 25 39 36 25 39 36 25 39 36 25 39 36 25 39 36 25 39 36 25 39 35 24 38 37 26 40 38 27 41 37 26 40 35 24 40 35 24 40 35 24 40 36 25 41 36 25 41 36 25 41 35 24 40 34 23 39 32 24 39 31 23 38 30 24 38 29 23 37 30 22 35 28 20 33 28 20 33 27 19 32 27 19 34 29 21 36 30 22 37 30 22 37 30 22 35 31 23 36 32 24 37 31 25 37 29 21 34 30 22 35 31 23 36 30 22 35 31 23 36 31 23 36 29 23 35 32 21 35 33 22 36 33 22 36 33 22 36 34 26 39 37 26 40 37 26 40 39 28 42 39 28 42 40 29 43 39 28 42 36 25 39 35 24 38 32 24 39 32 24 39 33 25 40 34 26 41 33 22 38 33 22 36 34 23 37 36 25 39 39 28 42 39 28 42 40 29 45 39 28 42 38 27 41 40 28 42 39 27 41 37 27 38 36 26 37 38 26 38 37 27 38 37 26 40 37 25 35 39 27 41 37 26 40 37 26 40 34 26 39 36 25 39 36 25 39 36 25 39 
34 23 37 34 23 37 35 24 38 38 27 41 37 26 40 35 24 38 32 21 35 34 23 37 34 23 37 33 22 36 32 24 39 36 25 42 36 25 39 34 26 39 36 25 39 35 24 40 36 25 39 36 25 39 36 25 39 36 25 39 37 26 40 37 26 40 36 25 39 36 25 39 36 25 39 36 25 39 36 25 39 37 25 39 35 24 40 35 24 40 35 24 40 36 25 41 38 25 42 37 26 42 38 28 39 34 23 37 34 23 40 31 23 38 32 24 39 33 22 36 31 23 36 29 21 34 28 20 33 27 19 32 28 20 33 28 22 36 29 23 37 31 23 38 29 23 35 28 22 34 29 23 35 30 22 35 28 20 33 28 20 33 29 21 34 29 21 34 28 20 33 30 22 35 30 22 35 34 23 37 35 24 38 36 25 39 37 26 40 40 29 43 41 30 44 40 29 43 41 30 44 40 29 43 40 29 43 39 28 42 35 24 38 33 22 36 33 25 40 32 24 39 33 25 40 33 25 40 29 23 37 30 22 35 30 22 35 36 25 39 39 28 42 39 28 42 39 28 42 37 26 40 35 24 38 37 26 40 36 28 41 40 26 39 38 26 38 38 27 41 38 26 40 39 27 39 37 26 40 37 26 40 37 26 40 36 25 39 36 25 39 35 24 38 36 25 39 36 25 39 
33 22 38 33 22 36 35 24 38 35 24 38 39 28 42 36 25 39 34 23 37 35 24 38 35 24 40 35 24 40 32 24 39 35 24 40 35 24 40 34 26 39 37 26 40 35 24 38 35 24 38 35 24 38 36 25 39 37 26 40 37 26 40 37 26 40 38 27 41 38 27 41 37 26 40 37 26 40 35 24 38 37 25 39 36 24 38 36 25 39 36 25 39 37 26 40 39 26 43 38 27 41 38 27 41 36 25 39 34 23 39 31 23 38 33 25 38 36 25 39 35 24 38 31 23 36 30 22 35 28 20 33 29 21 34 28 20 35 30 22 37 31 23 38 30 22 35 29 23 35 28 22 34 28 20 33 26 20 32 26 20 32 29 21 34 30 22 35 30 22 35 31 23 36 35 24 38 35 24 38 35 24 38 36 25 39 35 24 38 37 26 40 38 27 41 38 27 41 37 26 40 38 27 41 38 27 41 37 26 40 35 24 38 35 24 38 32 26 38 32 26 40 35 27 42 34 26 41 33 25 38 33 25 36 31 23 36 32 24 37 39 28 42 36 25 39 37 26 40 36 25 39 33 22 36 36 25 39 35 24 38 37 26 40 38 26 40 38 26 40 38 26 40 38 25 42 38 25 42 38 26 40 38 26 40 37 25 39 37 26 40 36 25 41 38 26 40 37 25 39 
31 23 38 30 22 35 33 25 38 32 24 37 37 29 42 35 27 40 35 27 40 35 27 38 34 26 39 33 25 38 35 24 40 36 25 41 37 26 40 36 26 37 34 26 39 32 24 37 35 24 38 35 24 38 36 25 39 37 26 40 38 27 41 39 28 42 40 29 43 40 29 43 36 25 39 38 27 41 36 25 39 37 25 39 36 24 38 37 25 39 36 25 39 38 27 41 40 29 45 41 30 44 40 29 43 37 26 40 36 25 39 36 25 42 35 27 40 36 25 39 34 26 39 31 23 36 31 23 36 28 22 34 26 24 35 30 22 37 30 24 38 30 24 38 29 21 34 30 22 35 29 21 34 29 21 34 27 19 32 28 20 33 30 22 35 31 23 36 31 23 36 33 25 38 37 26 40 37 26 40 37 26 40 36 25 39 35 24 38 36 25 39 35 24 38 36 25 39 35 24 38 34 23 37 35 24 38 35 24 38 35 24 38 35 24 38 36 25 39 36 25 41 38 27 43 36 25 41 34 26 39 35 27 40 32 24 37 33 25 38 35 24 38 34 23 37 34 23 37 33 22 36 32 21 35 34 26 41 35 24 38 38 26 38 38 26 40 38 26 40 39 27 41 39 27 41 38 26 40 38 26 40 38 26 40 38 26 40 38 26 40 38 26 40 37 26 40 38 27 41 
30 19 35 29 21 36 31 23 36 35 24 38 40 29 43 35 27 40 36 28 41 37 26 40 35 27 40 37 26 40 35 24 38 35 24 38 32 24 39 32 24 37 33 25 38 34 23 39 31 23 36 31 23 36 35 24 38 36 25 39 37 26 40 38 27 41 38 27 41 39 28 42 37 26 40 36 25 39 36 25 39 34 23 37 36 25 39 37 26 40 37 26 40 39 27 41 40 29 43 40 29 43 41 30 44 37 26 40 37 26 40 36 25 39 35 24 38 37 26 40 36 25 39 33 22 36 32 21 35 27 23 37 30 24 38 30 22 37 31 23 36 32 24 37 31 23 36 31 23 36 31 23 36 31 23 36 30 22 35 31 23 36 32 24 37 32 24 37 34 26 39 34 26 39 37 26 40 36 25 39 35 24 38 34 23 37 34 23 37 34 23 37 34 23 37 33 22 36 34 23 37 33 22 36 34 23 37 34 23 37 36 25 39 36 25 39 37 26 40 37 26 40 38 26 40 36 28 39 35 27 40 35 27 42 34 26 41 32 24 37 34 23 39 31 23 38 31 23 38 33 25 40 34 23 39 33 25 40 36 23 40 35 24 40 36 25 39 35 25 36 38 26 40 39 27 41 39 27 41 39 26 43 40 28 42 40 28 42 39 27 41 39 27 41 39 27 41 38 26 40 
29 21 36 30 19 35 33 22 36 32 24 37 36 28 41 38 27 41 37 26 40 36 28 41 35 27 40 33 25 38 32 24 37 32 24 37 32 24 39 33 25 38 33 25 38 31 23 38 31 23 36 31 23 36 33 22 36 36 25 39 36 25 39 38 27 41 37 26 40 37 26 40 37 26 40 37 26 40 36 25 39 35 24 38 36 25 39 36 25 39 37 25 39 38 27 41 39 28 42 40 29 43 40 29 43 37 26 40 36 25 39 36 25 39 35 24 38 37 26 40 36 25 39 33 22 36 30 22 35 30 22 37 29 23 37 30 22 37 31 23 36 32 24 37 30 22 35 31 23 36 32 24 37 32 24 37 30 22 35 31 23 36 33 25 38 34 26 39 34 26 39 36 25 39 37 26 40 37 26 40 36 25 39 35 24 38 35 24 38 34 23 37 33 22 36 33 22 36 33 22 36 33 22 36 32 24 37 34 23 37 37 26 40 38 27 41 37 26 40 37 26 40 39 28 42 38 27 41 37 26 40 36 28 41 33 25 40 32 24 39 30 22 37 32 24 39 31 23 38 34 23 39 33 25 40 34 26 41 35 24 40 33 22 38 33 22 36 35 24 38 36 25 39 39 27 41 39 27 41 40 28 42 40 28 42 40 28 42 39 27 41 39 27 41 39 27 41 38 26 40 
28 20 35 27 19 34 30 22 37 30 22 35 34 26 39 34 26 39 34 26 39 32 24 37 32 24 37 30 22 35 30 22 35 29 21 34 30 22 35 31 23 36 32 24 37 32 24 39 32 24 37 32 24 37 34 23 37 35 24 38 35 24 38 36 25 39 35 24 38 34 23 37 31 23 36 32 24 37 31 25 37 34 23 37 34 23 37 34 23 37 34 23 37 35 27 40 37 26 40 37 26 40 38 27 41 34 23 37 36 25 39 36 25 39 35 24 38 35 24 38 33 22 36 32 21 35 32 21 35 30 22 37 32 21 37 30 24 38 31 23 36 30 22 35 30 22 35 30 22 35 33 25 38 32 24 37 33 25 38 33 25 38 35 27 40 36 28 41 37 26 40 37 26 40 36 25 39 35 24 38 35 24 38 36 25 39 35 24 38 35 24 38 36 25 39 36 25 39 36 25 39 35 24 38 35 24 38 35 24 38 37 26 40 39 28 42 37 26 40 37 26 40 36 25 39 36 25 39 37 26 40 33 25 38 34 23 37 31 23 38 31 23 36 33 25 38 32 24 37 36 25 41 34 26 41 33 25 40 33 25 40 32 21 37 32 21 37 34 23 39 35 24 40 37 26 42 38 25 42 39 26 43 39 26 43 38 25 42 38 26 40 38 26 40 38 26 40 38 26 40 
28 20 35 27 19 34 29 21 34 30 22 37 34 26 41 34 26 39 32 24 37 31 23 36 30 22 35 29 21 34 30 22 35 28 20 33 28 20 33 30 22 35 31 23 36 31 23 38 33 22 36 32 24 37 33 25 38 33 25 38 33 25 38 34 23 37 33 22 36 32 21 35 32 21 35 33 22 36 32 21 35 32 21 35 34 23 37 34 22 36 34 23 37 36 25 39 36 25 39 37 26 40 39 28 42 35 24 38 36 25 39 33 22 36 34 23 37 34 23 37 33 22 36 33 21 35 32 21 35 31 20 36 30 22 37 32 21 37 31 23 36 31 23 36 30 19 33 31 20 34 34 23 37 34 23 37 35 24 38 35 24 38 38 27 41 38 27 41 38 27 41 37 26 40 36 25 39 34 23 37 35 24 38 36 25 39 36 25 39 38 27 41 37 26 40 38 27 41 36 25 39 36 25 39 36 24 38 35 24 38 39 28 42 41 29 43 39 28 42 38 27 41 37 26 40 37 26 40 36 25 39 37 26 40 35 24 38 32 24 37 30 22 35 31 23 36 32 24 37 34 26 41 34 26 41 33 25 40 33 25 40 29 21 36 32 21 37 33 22 38 34 23 37 36 25 41 37 26 40 38 25 42 38 26 40 38 27 41 38 26 40 38 26 40 38 26 40 38 26 40 
