P3
100 50
255
60 26 25 60 26 25 58 27 24 57 26 24 55 24 22 54 26 23 55 27 24 54 28 27 55 29 28 57 27 25 56 26 26 58 27 25 57 26 24 60 26 24 60 26 24 59 24 22 59 24 22 59 25 23 59 25 23 58 24 23 55 24 21 54 23 21 53 21 22 50 20 20 49 20 22 48 19 23 47 22 26 46 21 27 46 21 27 43 20 26 39 20 24 40 21 23 37 19 19 36 18 18 33 15 15 31 15 16 35 15 16 38 18 19 39 19 20 43 23 24 44 24 25 49 24 27 50 25 28 53 27 30 53 28 31 55 29 32 52 32 34 51 32 34 48 32 33 51 32 34 49 33 33 47 33 32 44 30 27 43 27 27 37 23 20 37 22 17 36 21 16 40 20 21 40 22 18 41 22 18 43 22 17 45 26 19 45 25 16 45 25 16 46 23 17 45 23 12 47 22 15 47 22 17 50 22 18 51 23 20 54 23 21 55 24 22 58 24 23 60 24 26 62 23 26 61 22 25 61 26 30 61 26 30 60 25 29 62 23 28 61 22 27 65 24 28 64 25 28 67 25 29 68 26 30 66 25 29 66 26 27 66 26 27 65 25 26 65 24 28 65 26 31 66 26 27 67 27 28 66 30 32 67 33 34 66 36 36 66 37 42 63 36 41 64 36 48 64 36 50 
61 27 26 61 25 27 58 27 24 58 27 24 54 24 24 53 25 22 54 26 23 55 27 26 54 28 27 57 27 29 56 26 26 57 27 25 57 26 24 61 27 25 61 27 25 59 25 23 59 24 22 56 25 22 57 26 23 58 24 22 56 25 22 54 23 21 52 22 22 50 20 20 50 22 21 50 21 23 49 23 26 47 22 26 45 22 28 44 21 29 41 20 25 40 20 22 38 18 19 34 16 16 34 16 16 35 17 17 36 16 17 38 18 19 39 19 20 43 23 24 45 23 25 50 25 28 50 25 28 52 27 30 54 28 31 56 30 33 51 31 33 50 31 33 48 32 33 50 31 33 48 32 32 46 32 31 41 30 26 43 27 27 38 24 21 38 23 20 37 22 17 40 22 18 41 23 19 43 24 20 44 25 18 44 25 18 46 26 17 46 26 17 45 25 16 47 24 16 46 23 15 48 23 18 50 22 18 52 24 20 54 25 21 56 25 23 58 24 25 60 24 28 60 24 26 60 24 26 62 26 28 60 26 27 60 24 24 60 24 26 60 24 26 64 25 28 66 25 29 61 25 25 67 25 29 65 24 28 66 26 27 65 24 28 66 26 27 66 26 27 65 26 27 68 27 31 67 27 28 67 28 29 66 32 33 65 35 35 66 37 42 64 37 42 63 35 47 63 37 50 
66 30 30 66 30 30 59 28 26 55 27 24 52 24 21 48 22 21 47 23 19 49 25 23 49 25 23 54 24 26 55 25 25 61 27 26 62 28 27 64 30 28 63 29 27 61 27 25 60 27 22 54 23 20 55 24 19 58 25 20 59 26 21 61 26 22 64 26 25 61 26 24 62 28 27 64 28 28 61 29 32 58 28 30 52 25 30 50 23 28 46 21 25 45 20 23 43 21 23 39 19 20 38 18 19 37 17 18 36 16 17 37 17 18 38 18 19 42 22 23 46 21 24 49 24 27 50 25 28 50 28 30 55 28 33 56 30 33 52 32 34 50 30 32 49 30 32 50 31 33 44 28 28 44 30 29 39 28 24 40 26 23 39 26 20 40 25 20 42 25 18 44 27 20 46 27 21 50 29 24 51 31 24 49 29 22 47 28 21 45 26 19 45 25 18 48 25 17 49 24 17 53 26 19 53 26 19 54 26 22 56 25 20 59 25 24 59 25 26 60 24 26 60 24 28 59 24 28 54 24 24 55 23 26 56 24 25 59 24 28 59 24 28 61 26 30 63 27 31 62 26 28 62 26 28 60 24 26 62 23 26 60 24 24 60 24 26 62 26 26 65 26 27 68 26 27 69 27 29 69 30 31 69 33 33 69 35 36 68 37 42 69 38 44 66 36 46 64 38 49 
67 31 31 64 30 29 58 28 26 55 26 22 49 24 20 47 23 21 44 23 20 48 24 24 49 25 23 53 25 24 54 24 26 60 28 29 62 28 27 64 30 28 64 30 29 62 28 26 61 26 24 55 24 19 56 25 22 59 26 21 59 26 21 61 26 22 64 26 23 64 26 25 65 30 28 66 30 30 61 29 30 60 28 31 53 24 28 52 23 27 47 21 24 44 19 23 42 21 20 40 18 20 39 17 19 37 17 18 38 16 18 37 17 18 39 19 20 42 22 23 44 22 24 49 24 27 50 25 28 52 27 30 53 28 31 55 31 31 51 29 32 50 30 32 49 30 32 49 30 32 44 30 29 42 28 27 39 28 24 41 27 24 40 27 21 42 27 22 42 27 20 44 27 20 46 27 20 48 28 21 49 28 23 47 28 21 45 28 18 45 26 20 45 26 19 47 24 16 48 26 15 52 25 18 54 27 20 55 26 22 56 25 23 57 26 24 58 24 25 60 24 26 60 24 28 60 25 29 55 23 28 55 23 26 55 23 26 60 25 29 61 26 30 63 27 31 65 26 31 62 26 30 62 26 28 60 24 26 62 23 26 63 24 27 62 23 26 62 26 28 66 27 28 69 24 27 67 27 28 69 29 29 68 32 32 68 34 33 68 37 42 69 38 44 64 36 48 64 36 48 
68 32 34 67 31 33 55 25 25 53 23 23 46 22 20 42 21 18 41 22 18 42 24 22 42 23 19 50 24 23 54 26 25 60 28 29 62 30 31 64 33 31 65 31 30 60 26 24 60 26 24 56 25 22 59 26 21 61 26 24 63 25 22 65 26 21 67 27 25 69 28 24 71 31 29 72 32 30 68 30 29 66 27 28 55 23 24 53 21 22 48 18 20 47 18 20 44 18 19 43 17 20 41 15 18 41 16 19 41 16 19 37 15 17 37 15 17 40 18 20 42 20 22 49 24 27 50 25 28 52 27 30 55 29 32 56 30 33 52 27 33 48 28 30 48 28 29 47 29 29 43 25 25 40 26 25 39 25 22 40 26 23 43 30 24 44 29 24 45 30 23 47 29 19 48 28 21 49 29 22 50 30 23 49 30 23 47 30 22 48 28 19 50 30 23 47 27 18 50 27 19 54 27 20 55 26 20 56 27 23 57 26 23 59 25 24 57 23 24 58 22 26 58 21 28 59 22 29 55 23 26 54 22 25 57 25 30 59 24 28 62 26 30 63 27 31 63 27 29 63 24 27 63 24 27 62 21 25 61 22 23 63 24 27 61 25 29 62 26 28 65 26 27 66 21 26 65 23 24 65 25 25 65 29 29 67 33 32 68 36 39 69 37 42 65 35 45 65 35 45 
63 27 27 64 25 26 55 25 25 52 24 23 45 21 19 43 22 19 41 23 19 43 25 25 44 24 23 50 26 26 51 25 26 58 26 27 61 29 30 64 30 29 64 30 29 59 25 23 56 25 22 56 27 23 57 26 23 59 26 21 62 24 21 62 23 18 65 24 20 67 26 22 72 31 27 72 31 29 70 30 28 69 29 29 61 25 27 60 24 28 54 22 23 52 22 24 50 20 22 50 21 23 45 19 20 45 21 21 44 20 20 40 19 18 40 19 18 41 21 20 44 23 22 48 27 26 51 27 27 52 28 28 54 28 29 55 29 30 51 29 32 50 30 32 48 30 30 49 29 30 43 27 27 43 27 27 42 28 25 43 29 26 48 35 29 49 34 27 50 35 28 49 30 23 49 29 22 50 27 21 51 28 20 48 31 23 48 31 23 47 30 22 48 30 20 48 28 19 51 28 20 55 28 19 55 28 21 56 27 23 58 27 22 59 25 26 58 23 27 56 21 25 56 21 27 56 21 27 56 24 27 58 23 27 59 24 28 61 25 29 60 25 29 63 24 29 63 24 29 64 23 29 63 22 26 63 22 26 63 22 28 64 25 28 64 25 28 65 26 29 66 26 27 67 23 24 69 23 26 67 25 27 70 31 32 70 34 34 69 39 41 69 40 44 67 37 47 67 37 47 
58 22 22 57 23 24 53 23 25 52 24 23 44 23 20 40 25 22 40 25 20 43 25 23 44 24 23 49 25 25 50 24 25 61 26 30 60 28 29 64 30 29 63 29 28 57 23 22 55 24 21 55 24 22 57 23 21 57 24 19 61 22 17 60 21 16 65 21 18 66 23 17 73 29 26 74 30 27 70 30 28 70 30 30 66 28 27 66 28 27 60 26 25 56 24 25 54 24 26 52 23 25 51 22 24 48 22 25 47 23 23 41 21 20 42 21 20 42 22 21 45 24 23 48 27 26 51 27 27 51 27 27 53 29 29 53 29 27 51 31 32 53 31 34 51 32 34 52 32 34 43 28 25 44 29 26 43 32 26 47 34 28 54 41 35 53 40 32 53 39 30 51 32 26 50 30 23 50 27 19 49 26 20 48 29 22 48 31 23 49 31 21 49 31 21 50 30 21 52 29 23 54 30 20 55 28 21 56 27 21 56 26 24 57 26 24 55 23 26 56 20 24 56 19 26 55 20 27 58 23 27 58 23 27 59 24 28 61 25 29 62 23 28 63 22 28 62 21 25 62 21 25 61 20 26 64 23 27 64 23 27 66 25 29 66 25 29 64 28 30 66 26 27 70 24 26 70 24 27 69 27 28 71 32 33 74 36 35 72 40 43 74 42 45 71 38 47 69 39 49 
56 26 26 55 27 26 52 22 22 52 24 23 50 24 23 47 26 23 45 27 25 45 25 24 43 23 22 45 24 23 44 24 25 54 26 25 53 27 26 57 27 27 57 27 27 55 23 24 53 25 22 53 23 21 53 24 20 54 23 20 57 22 20 58 20 19 61 23 20 63 24 19 68 28 26 69 28 26 69 31 30 66 31 29 62 28 27 63 29 28 59 29 29 57 28 30 53 27 28 53 24 28 52 23 27 48 22 25 51 22 26 47 22 25 47 22 25 48 23 26 47 22 25 49 24 27 51 25 28 50 24 27 53 27 30 54 28 29 55 29 32 57 31 34 53 29 29 51 29 32 48 30 30 49 31 31 49 35 34 50 34 34 53 37 37 55 40 37 59 40 36 56 38 34 57 36 35 56 30 29 55 31 29 51 32 25 52 32 21 54 34 25 55 35 26 54 31 25 55 30 25 54 29 24 58 28 26 58 28 26 58 28 26 59 27 28 56 24 25 57 23 24 57 23 24 58 24 25 59 24 30 58 22 26 56 20 24 57 21 23 59 20 23 62 23 26 64 25 26 65 25 26 66 26 27 66 24 25 65 25 25 67 25 26 67 25 26 69 27 28 67 27 28 67 25 29 68 26 28 70 28 30 70 31 32 69 33 33 70 35 39 69 37 40 66 37 42 64 37 46 
53 27 26 55 27 26 52 23 25 52 23 25 51 25 26 48 28 27 48 28 27 45 25 24 43 23 22 42 22 21 42 22 21 47 26 25 48 26 28 52 26 29 54 25 27 55 25 25 53 23 25 50 22 18 53 24 20 53 24 20 56 22 20 57 22 20 59 24 20 61 23 20 65 27 26 66 28 27 64 28 28 65 29 29 60 28 29 60 28 29 60 30 30 58 28 30 53 27 30 52 26 29 51 25 28 49 23 26 48 23 26 47 21 24 48 22 25 49 23 26 49 23 26 49 23 26 50 24 27 49 24 27 52 26 27 54 28 29 56 30 33 56 30 33 50 28 30 51 26 29 50 30 31 51 31 32 53 34 36 54 35 37 55 36 38 56 37 39 58 40 40 60 40 41 61 40 39 58 37 36 55 34 33 57 34 26 57 34 26 58 34 24 58 35 29 57 32 28 56 31 27 57 29 26 59 29 27 59 29 29 58 28 30 59 27 28 60 26 27 57 23 22 61 25 25 60 25 23 61 25 27 59 23 25 54 18 20 57 18 21 59 18 22 63 21 23 65 25 26 65 25 25 66 26 26 68 24 25 69 25 24 69 25 24 68 24 23 70 26 25 70 26 25 66 25 29 66 25 31 73 28 33 70 30 31 70 31 32 68 34 35 66 34 37 64 37 44 63 38 44 
56 28 27 53 27 26 56 26 28 55 25 27 51 25 26 49 25 25 47 26 25 43 23 22 41 23 21 41 21 20 40 22 20 45 24 23 45 24 23 51 22 24 51 22 24 53 25 24 54 24 24 54 26 23 53 24 20 54 24 22 55 24 21 56 22 20 58 23 21 59 24 22 62 27 25 63 28 26 63 29 28 64 30 29 57 25 26 59 29 29 58 29 31 54 28 29 53 27 30 53 27 30 51 25 28 50 24 27 50 24 27 50 25 28 51 25 28 51 25 28 51 25 28 52 26 29 53 27 30 54 28 31 54 28 29 55 29 30 56 30 31 56 31 34 52 27 30 51 26 29 49 29 30 50 30 31 50 34 35 50 34 35 52 36 37 54 38 39 55 39 40 58 40 38 59 39 40 56 34 36 55 33 35 56 33 27 56 33 27 56 33 25 54 33 28 55 31 29 55 31 29 55 29 28 56 31 27 58 29 31 59 29 31 57 27 29 57 25 26 58 24 25 60 24 24 60 24 26 63 27 29 62 26 28 61 22 25 62 23 26 63 24 27 64 25 28 67 28 29 67 27 28 68 28 29 67 25 27 67 25 27 68 26 27 68 26 27 70 28 29 68 26 27 64 23 29 66 23 30 67 25 29 67 27 28 68 28 29 68 34 35 66 34 37 64 37 44 62 37 43 
52 26 25 54 28 27 57 28 30 54 25 27 50 24 25 49 25 25 46 25 24 43 23 22 40 22 20 40 20 19 41 21 20 44 23 22 45 24 23 48 22 23 50 22 21 51 22 24 53 25 24 54 26 23 55 25 23 55 25 23 57 26 23 57 23 21 58 23 21 59 24 22 63 24 25 62 27 25 62 28 27 60 29 27 57 27 29 57 27 29 57 28 30 57 28 30 57 27 29 53 27 30 54 25 29 50 24 27 50 24 27 51 25 28 51 25 28 54 25 29 51 25 28 52 26 29 54 28 31 55 29 32 57 28 30 55 31 31 56 30 31 55 31 31 49 27 29 51 26 29 49 29 31 50 28 30 50 34 35 50 34 35 50 34 37 51 37 37 54 38 39 55 39 40 57 39 39 54 36 36 53 33 35 55 31 27 56 33 27 55 32 26 55 31 27 54 30 28 52 31 30 55 31 29 54 30 30 58 29 31 58 29 31 57 27 29 57 25 26 58 24 25 60 24 26 60 24 26 66 27 32 65 26 31 63 24 27 63 24 27 64 25 28 66 25 29 68 29 32 67 28 29 68 27 31 66 26 27 66 26 27 67 27 27 69 27 29 69 27 29 68 26 28 64 21 28 65 24 30 66 26 27 66 26 27 66 27 28 66 32 33 66 34 37 64 37 44 62 37 43 
53 27 26 53 27 26 55 26 28 55 26 28 50 24 25 46 25 24 45 24 23 42 22 21 40 20 19 39 19 18 38 18 17 41 20 19 42 21 20 45 21 21 46 20 21 49 23 24 51 25 24 54 28 27 57 29 28 57 27 25 56 26 24 56 25 23 58 24 23 58 24 23 60 26 25 58 27 25 58 26 27 56 26 26 53 24 26 53 24 28 52 26 29 55 26 30 55 26 30 54 25 29 54 25 29 54 25 29 54 25 29 55 26 30 56 27 31 55 26 30 55 26 30 56 30 33 58 29 33 60 31 35 59 30 34 56 30 33 55 29 30 55 29 30 50 26 26 50 26 26 47 28 30 47 28 30 46 31 34 44 32 34 45 33 35 48 36 38 51 36 39 52 37 42 54 38 41 53 34 38 52 33 37 53 32 29 53 32 27 51 30 27 50 31 27 49 30 26 51 30 29 51 31 32 52 30 32 52 30 32 53 28 31 54 28 29 57 27 29 56 24 25 59 25 26 60 24 28 65 26 31 64 25 30 61 22 27 63 24 27 64 25 28 65 26 29 66 27 30 66 27 30 65 26 27 65 24 28 65 24 28 65 26 29 65 26 29 65 24 28 65 24 28 61 22 27 63 22 26 65 23 25 65 25 26 65 26 27 67 33 34 69 34 38 65 38 45 66 41 47 
55 27 26 52 26 25 56 28 27 54 28 27 49 23 24 46 25 24 44 23 22 42 22 21 40 20 19 39 19 18 39 19 18 41 20 19 41 20 19 45 21 21 46 22 22 51 25 26 53 24 26 53 27 26 57 29 28 58 28 28 57 27 27 57 25 26 58 24 25 55 24 22 59 25 24 59 25 24 55 25 27 55 25 27 53 24 26 51 25 28 51 25 28 54 25 29 55 26 28 54 25 27 51 25 28 55 26 30 55 26 30 56 27 31 56 27 31 55 26 30 55 26 30 57 28 32 56 30 33 60 31 35 60 31 35 57 31 34 57 28 30 56 27 29 50 26 26 48 27 26 47 28 30 46 27 29 46 31 34 45 30 33 45 33 35 47 35 39 48 36 40 52 37 40 53 38 41 50 34 37 49 33 36 53 32 29 54 33 28 49 30 26 49 30 26 49 30 26 50 30 29 51 31 32 51 29 31 52 30 32 53 28 31 53 27 28 58 26 29 56 26 28 60 24 28 60 24 28 65 24 30 64 25 30 62 23 26 63 24 27 64 25 28 66 27 30 66 27 30 65 26 29 65 26 29 63 24 29 63 24 27 64 25 28 64 25 28 63 24 27 64 23 29 62 21 27 63 22 26 63 23 24 64 24 25 65 26 27 68 34 35 66 34 37 67 40 47 65 40 46 
51 25 24 53 25 24 53 25 24 53 25 24 49 23 24 48 24 24 47 26 25 43 23 22 41 21 20 40 19 18 38 18 17 41 20 19 41 20 19 43 21 23 45 21 21 50 26 26 51 25 26 53 27 28 56 27 29 57 27 27 56 27 29 58 26 29 56 26 26 56 26 26 57 25 28 56 26 28 53 22 27 49 23 26 48 22 25 48 21 26 48 23 27 52 23 28 54 23 28 54 23 28 55 24 29 57 28 32 58 29 33 57 28 32 56 27 31 50 24 27 53 24 28 55 26 30 54 28 31 60 31 35 57 31 34 55 29 30 54 28 29 55 27 26 51 25 26 49 25 25 45 26 28 45 26 28 43 28 31 42 30 32 42 31 35 45 33 37 47 35 39 48 35 42 50 38 42 49 34 39 48 33 40 52 32 33 53 32 31 46 26 25 45 27 27 43 27 27 42 28 27 44 30 30 45 29 30 44 28 29 47 27 29 49 27 29 56 27 31 58 27 32 60 25 31 62 26 30 61 20 24 61 20 24 60 21 24 61 22 23 61 25 27 62 23 28 62 23 28 61 22 27 60 21 26 60 20 28 61 21 29 62 22 30 62 22 30 61 21 29 62 22 30 64 23 29 64 23 27 65 23 25 64 24 25 66 24 26 67 33 34 67 35 38 66 39 46 67 40 47 
54 26 25 53 24 26 53 24 26 52 23 25 50 24 25 50 24 25 49 25 25 44 23 22 43 22 21 42 18 18 40 19 18 41 20 19 41 20 19 46 22 22 46 22 22 50 26 26 53 24 26 55 26 30 55 26 28 57 27 29 56 26 28 55 26 28 56 24 27 57 25 26 55 25 27 56 26 28 52 23 27 52 23 27 48 22 25 49 22 27 48 23 29 51 22 27 54 23 28 53 24 26 55 24 29 57 28 32 59 28 33 57 26 31 56 27 31 51 22 26 52 23 27 54 25 29 57 28 32 58 29 33 55 29 32 55 29 30 53 27 26 55 27 26 50 26 26 49 25 25 45 26 28 45 26 28 43 28 31 42 30 32 42 30 34 44 33 37 46 35 39 48 35 44 50 38 42 48 36 40 47 34 41 53 31 33 54 33 32 46 28 26 45 27 27 43 27 27 43 29 26 44 30 30 43 29 29 44 28 31 47 27 29 48 26 29 55 26 30 56 27 31 59 24 28 60 25 29 60 21 24 61 22 25 61 22 25 61 22 25 63 24 27 60 24 28 62 23 28 61 22 27 61 22 27 59 22 29 61 21 29 63 23 31 63 23 31 61 21 29 62 22 30 65 22 29 65 24 28 66 24 26 65 25 26 65 25 26 66 32 33 65 33 36 65 38 45 66 39 46 
53 25 24 55 25 27 52 22 22 52 24 23 52 26 27 53 27 28 54 28 29 49 25 25 48 24 24 44 20 20 41 20 19 43 22 21 43 22 19 46 24 26 46 25 22 49 25 25 51 25 26 53 24 28 55 26 28 54 25 27 55 26 30 55 25 27 53 25 24 54 26 25 53 24 26 53 24 26 49 23 26 49 23 26 47 21 24 47 22 28 48 21 28 51 22 27 54 23 28 54 24 26 54 25 30 58 29 31 59 28 33 55 26 30 55 26 30 45 19 22 46 20 23 48 19 23 48 22 25 52 26 29 53 27 30 52 28 28 51 25 26 50 26 24 49 25 25 49 25 25 44 26 26 45 26 28 42 27 30 41 29 31 41 30 34 44 33 37 46 35 43 47 36 42 50 37 44 48 37 43 47 36 42 52 32 34 52 32 33 45 27 25 42 26 26 39 27 27 41 27 26 41 29 29 41 29 29 44 30 30 45 26 28 46 26 28 52 25 30 55 26 30 57 25 30 56 26 28 59 23 25 60 24 26 60 24 26 63 24 27 64 25 28 63 24 29 62 23 28 59 23 27 59 20 25 61 21 29 61 21 29 63 23 31 63 23 31 62 22 30 64 23 31 66 24 28 66 24 28 66 24 26 65 26 27 65 25 26 64 30 31 65 30 34 61 34 41 62 35 40 
54 26 25 52 26 25 51 22 24 52 23 25 54 26 25 57 28 30 55 29 28 52 26 25 49 23 24 43 22 21 42 21 18 46 22 22 46 22 22 47 23 23 45 24 23 47 26 25 51 25 26 54 25 29 55 24 29 56 26 28 55 25 27 55 25 27 54 24 26 54 24 24 51 25 24 54 25 27 50 24 27 48 21 26 48 23 27 46 21 27 47 22 28 50 23 28 52 23 27 54 23 29 54 23 28 57 28 32 59 30 34 54 25 29 54 25 29 44 19 22 45 19 22 45 20 23 46 21 24 50 25 28 50 25 29 51 26 29 51 25 24 51 25 24 50 26 26 46 25 24 46 28 28 45 27 27 42 27 30 42 27 30 42 30 34 44 33 37 46 35 41 48 36 40 49 37 41 48 36 40 48 36 38 51 32 34 50 32 32 43 27 28 43 27 27 41 26 29 40 28 28 41 29 29 44 29 32 44 30 30 45 29 30 48 28 29 48 26 29 52 26 29 55 25 27 55 25 27 60 24 28 59 23 25 60 24 28 61 25 29 61 25 29 61 25 27 61 25 29 59 23 25 60 21 26 61 22 27 61 22 27 63 23 31 63 23 31 63 23 31 64 23 31 66 23 30 65 24 28 66 26 27 66 26 27 65 26 27 64 28 30 63 31 34 63 34 39 62 35 42 
56 28 27 57 27 27 53 23 25 54 24 26 57 27 29 59 30 32 62 33 35 56 27 29 53 24 26 48 22 23 47 23 23 47 23 23 48 22 23 48 22 23 47 23 23 49 25 25 51 25 26 55 25 27 56 24 27 56 26 28 55 25 27 54 24 26 53 23 25 51 23 22 50 24 23 49 23 24 48 23 26 49 23 24 48 22 25 48 23 29 48 23 27 49 22 27 52 23 27 53 24 28 53 24 28 57 28 32 55 29 32 51 25 28 50 24 27 42 17 20 43 17 20 41 16 19 40 18 20 45 20 23 45 23 25 46 24 27 47 23 21 49 23 24 48 24 24 46 24 26 45 26 28 46 27 29 41 29 31 43 28 31 42 30 32 45 33 35 47 35 35 48 36 38 52 37 40 51 36 39 50 35 38 48 32 32 48 30 30 43 27 28 43 27 28 40 28 28 40 28 28 41 29 31 45 31 31 46 30 30 45 29 30 47 27 28 49 24 27 49 24 27 52 21 26 53 23 25 59 24 28 57 25 28 56 24 27 59 24 28 61 26 30 61 26 30 63 24 29 60 24 26 59 23 25 62 23 26 62 23 28 65 24 30 64 25 28 64 23 29 65 24 30 68 26 30 69 27 31 69 27 29 68 26 28 67 27 28 63 29 30 63 28 32 62 33 37 61 34 39 
54 28 29 56 28 27 56 24 27 58 26 29 60 28 31 59 29 31 61 31 33 57 27 29 55 25 27 51 22 24 48 22 23 48 24 24 49 25 25 49 23 24 48 22 23 50 24 25 52 26 27 58 26 29 57 25 28 57 25 28 56 26 26 54 24 24 53 23 23 50 22 21 51 22 24 51 22 24 47 21 22 48 22 25 48 22 25 48 21 26 48 23 27 51 22 26 53 24 28 53 24 28 54 25 29 53 27 30 54 28 31 50 24 27 50 24 27 42 17 20 42 17 20 38 16 18 39 17 19 42 20 22 44 22 24 44 24 25 47 26 25 48 24 24 47 26 25 48 27 26 46 28 28 46 28 28 43 28 31 44 29 32 45 31 31 45 33 35 49 35 35 52 36 37 51 37 37 51 35 36 53 34 36 48 32 32 47 31 31 43 29 28 43 29 29 40 28 28 43 29 29 43 29 29 44 29 32 45 29 30 47 28 30 47 27 28 49 24 27 49 24 27 51 22 24 51 22 24 56 24 27 56 24 27 55 23 26 56 24 27 57 25 28 58 26 29 61 25 29 60 24 28 63 24 27 62 23 26 62 23 26 65 24 28 65 26 29 65 24 28 65 24 28 68 26 30 69 27 31 70 28 30 67 27 27 67 27 27 65 29 31 64 30 31 63 34 39 63 33 41 
56 27 29 57 27 29 59 27 30 61 26 30 60 28 31 60 28 31 61 29 32 59 27 30 55 25 27 53 23 25 51 22 24 50 24 25 50 24 27 48 24 24 48 22 23 49 25 25 54 25 27 61 27 28 61 27 28 58 26 29 57 25 26 54 24 24 52 22 24 52 22 22 52 22 22 52 22 24 48 22 25 49 23 24 48 22 25 49 23 26 48 23 27 52 23 27 53 24 28 53 24 28 52 26 29 51 26 29 52 26 29 49 24 27 48 23 26 43 18 21 40 18 20 37 17 18 39 19 20 41 19 21 41 21 22 43 23 24 46 25 24 46 24 26 48 27 26 48 28 29 44 28 28 44 28 28 42 28 28 44 30 30 45 31 31 47 33 33 49 35 35 51 37 36 52 36 36 52 34 34 52 33 35 46 32 32 46 30 30 45 29 29 44 30 30 42 28 28 42 28 28 42 28 28 44 28 29 46 27 29 47 27 29 47 27 28 48 23 26 47 22 25 48 22 23 50 21 23 53 24 26 54 24 24 52 21 26 53 23 25 55 25 27 58 26 27 60 26 27 61 25 27 59 23 25 62 23 24 63 23 24 65 23 25 65 23 25 65 23 25 66 24 25 69 27 31 68 26 28 69 27 28 68 26 28 67 27 27 66 30 30 63 31 32 64 35 40 60 33 38 
56 26 28 57 27 29 62 27 31 62 27 31 60 25 29 60 28 31 59 27 30 58 26 29 56 26 28 54 24 26 53 23 25 52 23 25 54 24 26 49 23 24 48 22 23 50 24 25 54 25 27 62 26 30 61 26 30 60 25 29 57 25 26 55 25 25 54 24 24 52 24 23 50 24 25 52 24 23 50 24 25 48 22 25 47 21 24 48 22 25 47 22 26 50 24 27 51 25 28 51 25 28 50 25 28 50 25 28 50 25 28 48 23 26 48 23 26 42 20 22 43 21 23 39 19 20 38 20 20 38 20 20 40 22 20 42 22 23 44 23 22 47 23 23 48 26 28 48 26 28 46 27 29 47 29 27 44 30 30 45 30 33 45 31 31 47 33 33 50 34 34 53 35 35 53 35 33 55 34 33 53 34 30 47 33 32 47 33 32 46 32 31 46 32 32 42 27 30 42 26 27 41 25 26 45 26 28 47 27 28 46 26 27 48 26 28 48 24 24 47 23 23 49 23 22 49 23 22 51 22 26 48 22 25 51 20 25 52 21 26 53 23 23 56 24 25 60 25 29 61 25 27 63 24 27 64 24 25 64 24 24 66 24 26 67 25 27 68 26 27 69 24 29 67 25 29 68 26 28 70 26 27 66 26 26 66 26 26 65 29 31 65 31 32 64 35 40 61 34 39 
57 27 29 54 28 27 63 28 32 64 29 33 62 26 30 61 26 30 58 26 29 58 26 29 56 24 27 54 22 25 55 23 26 54 24 26 53 23 25 49 23 24 49 23 24 51 25 24 56 26 28 62 26 30 60 25 29 62 28 29 58 26 27 55 25 25 54 24 24 53 22 20 52 24 23 53 24 26 49 23 26 49 23 24 47 21 24 48 21 26 47 22 26 49 23 26 51 25 28 52 26 27 51 25 28 48 23 26 49 24 27 48 23 26 46 24 26 44 22 24 40 22 22 38 18 19 36 20 20 38 20 20 39 21 21 41 23 23 45 23 25 45 23 25 48 26 28 49 27 29 47 29 29 46 28 26 43 29 29 44 30 30 45 31 31 47 33 33 50 34 34 53 35 35 53 35 33 53 33 32 54 35 31 50 34 34 48 34 34 45 34 32 46 32 32 42 28 28 42 26 27 41 25 26 44 25 27 46 26 27 46 26 27 48 26 28 48 24 24 48 24 24 50 24 23 49 23 22 50 21 25 50 21 23 49 20 24 51 20 25 53 23 25 56 24 27 59 24 28 61 25 27 60 24 26 63 23 24 64 24 24 68 24 25 68 23 26 69 25 26 69 24 27 67 25 29 69 24 29 67 25 27 67 25 27 66 26 26 65 31 29 65 33 34 64 35 40 63 34 38 
68 29 32 66 30 32 64 29 33 60 28 31 57 27 29 57 27 29 55 25 27 56 26 26 56 26 26 55 25 25 53 25 24 54 26 25 55 27 23 55 25 23 57 26 24 60 26 25 60 26 25 66 27 30 62 26 28 65 26 27 63 24 25 62 27 25 59 24 20 58 25 20 54 23 20 55 24 21 51 21 19 52 22 22 48 22 23 50 24 27 51 22 26 48 22 25 48 22 25 51 22 26 49 23 26 48 21 26 48 22 25 50 25 28 51 25 28 44 22 24 45 20 23 42 17 20 44 18 21 44 22 24 46 21 25 44 22 24 50 25 29 51 26 30 49 27 30 50 28 31 47 28 30 48 28 30 45 31 31 47 31 31 48 34 34 50 36 36 50 36 36 50 36 35 49 35 34 47 31 31 47 31 32 46 30 30 46 30 30 43 32 28 46 32 29 41 27 24 39 25 22 37 23 22 38 24 23 38 24 23 40 24 24 42 24 24 41 21 22 41 19 21 41 20 19 40 18 20 48 22 23 50 22 21 51 23 22 52 23 25 56 24 25 59 25 26 61 25 27 63 24 25 63 24 27 64 22 26 64 24 25 66 24 26 66 24 26 67 25 26 66 24 26 65 22 29 65 24 30 63 24 29 62 26 30 60 28 31 61 30 35 63 32 37 59 32 39 59 32 39 
70 30 31 71 30 34 61 29 32 60 28 31 56 26 28 56 26 26 56 26 26 54 26 25 55 27 24 54 26 23 53 25 22 56 27 23 55 26 22 60 26 25 61 26 24 63 25 24 64 24 25 65 26 31 64 25 28 64 26 25 62 27 25 61 26 22 62 24 21 62 25 19 58 23 19 56 22 20 52 22 20 52 22 22 51 22 24 49 23 26 50 24 27 48 22 25 48 22 25 48 22 25 49 23 26 49 20 25 47 21 24 51 25 28 51 25 28 47 22 25 46 20 23 44 15 19 44 18 21 47 22 25 50 21 26 45 20 24 52 25 30 52 25 32 51 24 29 51 26 30 48 28 30 50 28 31 48 29 31 49 30 32 48 34 34 50 36 35 51 37 36 50 36 35 49 35 34 46 32 31 43 32 30 46 31 28 46 31 28 45 32 26 45 31 28 39 28 26 38 27 23 34 23 19 34 23 19 34 23 21 37 23 22 38 22 22 39 19 18 39 19 20 41 16 19 39 17 19 48 22 21 49 23 22 50 24 23 51 25 26 56 26 26 59 24 28 60 26 27 62 23 26 63 24 27 63 22 26 65 24 28 67 25 27 66 24 25 66 24 26 66 24 26 66 25 29 65 24 28 62 23 28 61 26 30 61 29 34 59 32 37 60 33 38 57 32 38 58 31 36 
69 30 33 68 29 32 62 30 33 61 29 32 56 26 28 56 28 27 55 26 28 53 28 24 51 25 24 53 25 24 54 26 25 54 26 25 56 26 26 62 28 27 60 29 27 62 26 26 63 27 27 64 28 30 66 27 28 66 27 28 67 27 27 63 28 24 61 26 22 63 26 20 56 23 16 54 23 18 53 22 19 53 22 20 53 23 23 53 25 24 54 25 27 50 24 27 49 23 26 52 23 27 51 24 29 48 22 25 48 22 23 51 24 29 52 25 30 49 24 27 49 24 27 49 23 26 50 25 28 53 28 31 53 28 31 52 27 30 55 28 33 56 29 36 54 29 33 54 29 33 50 30 32 51 29 32 48 29 33 47 31 32 47 33 33 46 35 33 47 36 34 46 32 31 45 31 30 44 30 29 43 29 28 42 27 24 42 27 24 43 28 25 43 28 25 39 25 22 36 25 21 33 22 20 33 22 20 33 22 20 35 21 20 36 20 20 38 20 20 40 20 21 40 20 21 42 20 22 41 19 21 43 18 21 47 21 24 50 21 25 53 24 28 56 24 29 59 24 30 63 23 31 63 23 31 62 23 28 63 24 29 64 25 28 62 23 26 64 25 28 63 24 27 64 23 29 64 23 29 60 24 28 61 26 32 61 30 35 61 34 39 61 34 39 61 34 39 61 34 39 
68 29 32 66 30 32 62 30 33 61 31 33 57 27 27 56 27 29 53 27 26 52 26 25 52 26 25 51 25 24 51 25 24 55 25 25 56 26 26 61 29 30 60 28 29 62 28 27 62 28 27 64 28 30 64 30 31 64 29 27 66 28 25 65 27 24 64 27 21 61 26 20 58 25 18 56 23 18 56 22 20 54 23 20 53 23 23 51 25 24 55 24 29 54 23 28 49 23 26 51 25 28 50 24 27 49 23 26 48 22 25 51 24 29 51 24 29 51 25 28 49 24 27 50 25 28 51 26 29 55 30 33 53 28 31 53 28 31 56 29 34 57 30 35 54 29 33 54 29 33 49 29 31 49 29 31 47 28 30 46 30 31 45 31 30 46 32 31 46 32 31 42 31 29 43 29 28 42 28 27 41 27 27 40 25 22 43 24 26 41 27 26 42 27 24 39 25 22 34 23 19 33 23 21 34 23 21 34 23 21 35 21 20 34 20 20 36 20 20 39 21 21 42 22 23 42 22 23 41 19 21 41 19 21 46 21 25 47 21 24 53 24 28 54 23 28 57 25 30 59 24 30 60 23 30 60 23 30 60 23 30 60 23 30 60 23 30 61 25 29 63 24 29 64 23 27 63 24 29 60 24 28 61 26 32 60 29 34 63 34 39 62 35 40 61 34 39 61 34 39 
69 30 33 71 32 35 64 30 31 62 30 31 58 30 29 54 28 29 51 25 24 49 25 25 50 26 24 50 24 25 50 24 23 52 26 25 54 25 27 59 29 31 59 29 31 62 30 33 63 29 30 61 27 26 62 26 26 64 29 27 63 28 22 65 27 24 65 27 24 63 28 22 62 27 21 61 26 22 59 26 21 58 24 23 58 24 25 54 22 23 54 22 25 50 24 25 50 24 25 50 24 25 50 24 27 49 23 26 49 23 26 50 25 28 50 25 28 52 26 29 51 25 28 50 24 27 51 26 29 55 29 32 56 30 33 54 29 33 55 30 34 57 30 35 54 27 32 55 28 33 48 28 30 46 26 28 44 25 27 42 26 26 40 26 25 38 24 23 39 25 24 38 24 23 37 23 22 34 23 21 34 23 21 40 25 22 41 25 25 44 29 26 42 28 25 38 27 23 38 27 23 37 27 25 36 24 24 35 24 22 35 24 22 35 21 20 37 21 21 37 21 21 40 24 24 42 22 23 43 20 26 44 21 27 47 22 28 49 24 30 52 26 29 54 25 30 57 26 32 58 25 32 57 24 31 58 23 30 59 24 30 58 23 29 58 23 30 59 24 30 60 24 28 62 23 26 62 23 28 61 25 29 59 27 32 60 29 35 61 34 39 62 35 40 62 35 40 62 36 39 
66 30 30 67 31 31 65 31 32 63 31 32 57 27 29 54 26 25 51 25 24 49 23 24 49 25 25 49 23 24 50 24 23 52 26 25 54 25 27 58 29 31 59 29 31 60 30 32 60 28 31 62 28 27 62 28 27 63 27 27 63 28 26 62 27 23 62 27 23 64 27 21 63 25 22 61 26 22 60 25 23 61 26 24 57 23 22 57 23 24 55 21 22 52 22 24 51 22 24 49 23 24 50 24 27 49 23 26 49 23 26 52 26 29 51 26 29 51 25 28 50 24 27 51 22 26 52 26 29 53 28 32 54 28 31 54 29 33 55 30 34 56 31 35 55 28 33 55 28 33 46 26 28 45 26 28 44 26 26 41 25 25 40 24 24 39 25 24 37 23 22 36 22 21 34 23 21 35 24 22 34 23 21 41 26 23 41 25 25 42 27 24 41 27 24 39 28 26 38 27 25 38 28 26 38 27 25 37 26 24 36 24 24 34 22 22 38 22 23 38 22 22 42 23 25 44 24 25 46 23 29 48 23 29 51 24 29 52 25 30 52 25 30 56 25 31 56 25 30 57 25 30 59 24 30 59 24 30 59 24 30 59 22 29 59 22 29 59 24 30 60 23 30 63 22 28 63 24 29 61 25 29 60 28 33 60 29 34 63 34 39 63 36 41 62 35 40 62 35 40 
64 28 30 64 28 28 62 30 31 61 29 30 58 28 28 52 26 25 49 25 25 50 26 26 48 24 24 48 24 22 48 24 22 52 26 27 53 24 26 58 27 32 58 27 32 60 29 34 60 28 31 59 28 25 59 25 24 59 25 23 60 25 23 59 23 23 61 26 22 63 25 22 66 28 25 67 29 26 66 28 27 65 26 27 63 24 25 59 23 23 59 20 21 53 21 22 48 22 23 48 22 23 52 23 25 52 23 25 49 23 26 52 26 29 52 26 29 50 24 27 49 23 26 46 20 23 47 20 25 50 25 29 52 25 30 53 28 32 56 29 34 59 30 35 54 27 32 52 27 31 45 25 27 45 25 27 42 24 24 39 23 23 39 23 23 37 21 21 35 21 20 33 22 20 34 23 21 33 22 20 35 23 23 40 25 22 43 25 25 41 27 26 41 27 26 41 30 28 41 30 28 41 31 29 41 31 30 43 33 31 41 30 28 40 29 27 43 27 27 42 26 26 44 25 27 46 26 28 53 26 31 55 28 33 56 25 31 56 27 32 57 26 31 56 24 27 59 24 30 58 23 29 59 23 27 59 22 29 59 23 27 60 23 30 59 22 30 61 24 31 61 24 31 63 24 29 61 25 29 60 25 29 60 28 31 60 29 34 60 34 37 59 32 37 60 33 38 59 32 37 
63 29 30 61 27 26 63 28 32 59 29 29 57 27 27 54 26 25 49 25 25 48 24 22 48 24 24 50 24 25 50 24 25 55 25 27 55 25 27 59 27 30 57 26 31 58 28 30 58 28 28 59 27 28 59 28 26 59 25 23 61 25 25 58 24 22 60 25 23 63 25 22 66 28 25 66 28 25 67 29 28 66 28 27 60 24 24 62 23 24 58 22 22 52 22 22 48 22 23 49 23 24 49 23 24 49 23 26 49 23 24 52 26 29 52 26 29 50 24 27 50 24 27 46 20 23 47 20 25 49 22 27 53 26 31 54 27 32 57 28 33 58 29 34 53 26 31 53 26 31 47 25 28 47 25 28 41 23 23 41 23 23 38 22 22 35 21 20 35 21 20 32 21 19 33 22 20 34 23 21 33 22 20 42 26 26 42 27 24 41 27 26 40 26 26 40 29 25 42 31 29 41 31 29 42 32 30 43 33 31 42 30 30 43 29 29 43 27 28 45 26 28 46 26 28 46 26 28 56 27 32 56 27 32 56 27 31 57 26 31 58 26 31 60 25 31 58 23 27 59 23 27 60 21 26 60 21 26 60 21 26 62 22 30 61 21 29 62 25 32 61 24 31 64 25 28 62 26 28 62 26 30 62 30 33 63 31 36 60 34 37 60 33 38 59 32 37 61 32 37 
59 25 26 59 25 26 59 25 26 57 25 26 54 26 25 50 26 24 47 26 25 46 25 22 46 25 22 51 25 26 52 23 25 56 24 27 56 24 27 59 24 28 59 24 28 57 27 29 59 29 27 61 30 28 60 29 27 57 26 23 58 24 23 57 23 22 58 23 21 61 23 22 64 26 25 66 27 28 68 30 29 68 30 29 64 29 27 65 27 26 62 27 25 56 24 25 52 23 25 51 22 24 51 22 24 49 23 24 51 22 24 55 26 28 51 25 28 51 25 28 50 24 27 45 18 23 47 20 27 48 23 27 52 25 30 56 29 34 55 28 33 57 28 33 56 27 32 53 26 31 46 24 26 49 24 27 40 22 22 41 23 23 36 20 20 35 21 20 33 22 20 34 23 21 35 21 20 34 23 21 35 24 22 41 26 23 41 27 26 41 27 26 41 27 26 42 31 29 43 32 30 44 33 31 43 33 32 44 32 32 46 32 31 45 31 31 47 29 29 48 28 30 52 27 31 50 28 31 58 26 31 59 27 30 62 27 31 62 26 28 64 25 28 62 23 24 62 23 24 62 24 23 62 22 22 63 21 23 63 21 23 63 22 26 63 22 26 64 23 27 64 25 28 64 25 30 63 29 30 64 29 33 63 31 34 64 33 38 61 35 38 61 35 38 59 32 37 58 31 36 
57 25 26 57 26 24 58 26 29 56 24 27 51 25 26 47 26 25 45 26 22 45 24 23 46 25 22 53 25 24 54 24 24 60 24 26 60 26 27 60 26 27 60 26 27 57 27 25 60 29 27 61 29 30 61 27 26 60 26 25 58 27 25 59 25 24 60 24 24 63 24 25 64 25 28 66 27 28 68 29 30 68 30 29 64 29 25 66 28 27 63 28 26 58 26 27 52 26 27 54 25 27 52 23 25 49 23 26 50 21 23 55 26 28 52 26 29 53 24 28 50 24 27 45 18 23 48 21 26 48 21 26 51 24 31 55 28 35 58 27 33 59 28 34 56 27 32 55 28 33 49 27 29 47 25 27 43 23 24 41 23 23 36 20 20 34 23 21 33 22 20 33 22 20 33 22 20 34 23 21 33 22 20 40 26 25 41 27 26 38 28 26 42 28 27 42 30 30 42 32 31 44 33 31 44 32 32 47 31 32 47 31 32 46 30 31 50 30 32 50 28 31 55 30 34 55 30 34 63 28 32 62 27 31 64 28 30 64 28 30 65 26 27 65 26 27 65 25 25 64 24 24 63 23 23 64 22 23 64 22 23 63 21 25 64 22 26 65 23 27 64 23 27 64 25 28 63 27 29 64 29 33 63 33 35 64 33 38 62 36 39 64 35 39 60 34 37 59 33 36 
56 26 24 55 25 23 56 24 27 54 24 26 49 25 25 46 25 22 43 25 23 44 25 21 44 25 21 53 25 24 57 26 24 61 25 25 63 24 25 63 24 25 61 25 27 59 28 25 61 27 26 60 28 29 61 27 28 61 27 28 60 26 27 62 26 28 62 26 28 64 25 28 64 28 28 66 27 28 68 28 29 66 30 30 65 30 28 65 29 29 64 28 28 59 27 28 56 27 29 52 26 27 50 24 25 50 21 23 49 20 22 50 24 27 52 26 29 50 24 27 50 23 28 47 20 25 50 21 26 48 21 28 50 23 30 53 28 34 58 27 33 58 27 33 57 28 33 56 27 31 51 26 30 48 26 28 42 24 24 41 23 23 40 22 22 35 21 18 34 23 19 34 23 19 34 23 21 33 22 20 33 22 20 38 26 26 39 27 27 41 30 28 42 28 28 43 31 31 44 32 32 43 33 34 46 32 32 45 31 31 46 30 31 48 29 31 52 30 33 55 30 34 57 30 35 60 31 36 63 28 32 65 29 33 67 28 31 68 29 32 68 28 28 66 26 27 67 27 25 66 24 25 66 25 23 67 23 24 67 23 24 66 21 24 67 21 24 63 21 25 65 23 27 63 27 29 64 28 30 64 32 37 66 34 37 63 34 36 62 36 39 62 36 39 60 35 38 58 32 35 
54 24 24 54 26 25 55 23 26 54 24 26 49 25 25 44 23 20 41 23 21 44 23 20 44 23 20 55 25 23 61 27 26 66 26 26 67 27 27 67 25 26 65 25 25 63 28 24 62 28 26 59 27 30 60 28 31 60 28 31 61 27 28 61 26 30 63 27 31 63 27 29 65 29 31 64 28 30 64 28 30 63 27 27 61 27 25 61 27 26 58 27 25 57 27 27 55 27 26 54 25 27 53 25 24 52 23 25 49 23 24 51 22 26 50 24 27 54 25 29 51 25 28 52 22 30 49 22 27 51 21 31 50 23 30 52 25 32 59 28 34 61 28 35 57 30 35 60 31 35 54 29 33 53 28 31 44 26 26 42 24 24 38 24 23 39 25 24 37 26 24 36 25 23 36 25 23 34 24 22 34 24 22 34 22 22 36 24 24 36 24 24 36 26 25 39 27 27 40 28 28 43 31 31 44 30 30 47 28 32 49 29 31 52 29 35 58 31 36 61 32 37 64 33 39 66 33 40 68 31 38 66 31 37 67 31 35 69 30 35 68 29 32 67 28 29 68 26 27 66 25 21 65 23 24 63 21 25 63 21 23 63 22 28 64 22 26 63 22 30 63 22 28 64 28 30 63 29 30 64 32 35 63 33 35 63 35 34 61 35 38 61 35 38 59 33 36 59 33 36 
54 24 24 53 25 24 55 23 28 53 23 23 48 24 24 43 23 22 41 23 19 44 23 20 44 23 18 56 25 22 60 26 24 68 27 25 69 28 26 71 27 24 69 28 26 67 30 24 64 29 27 59 27 30 59 27 30 58 28 30 62 27 31 62 27 31 64 29 33 62 28 29 66 27 32 64 28 32 62 28 29 62 28 29 58 27 25 56 25 23 56 25 23 57 27 27 55 26 28 54 26 25 53 25 24 52 24 23 52 23 25 53 23 25 53 24 26 55 26 31 52 25 30 51 24 29 50 23 30 49 22 29 50 23 30 51 24 31 60 29 35 62 29 36 60 31 36 61 32 36 56 31 34 54 29 32 45 25 26 45 27 27 39 25 24 38 27 25 38 27 25 36 27 22 37 26 24 34 24 22 34 24 22 33 21 21 33 21 23 35 23 23 33 23 22 39 27 27 40 28 28 40 28 28 42 28 28 44 28 31 51 28 34 56 31 37 62 32 40 65 34 40 68 32 42 67 34 41 67 31 41 67 32 39 67 32 38 66 31 37 67 31 33 65 29 29 66 28 27 66 27 22 64 24 24 63 21 25 63 23 24 61 22 27 62 22 30 63 22 30 66 25 33 64 30 31 65 29 31 64 32 37 63 33 35 63 34 36 63 34 38 60 34 37 59 33 36 60 34 37 
57 29 26 55 27 26 54 24 26 51 22 26 45 24 23 41 23 21 38 23 18 42 23 19 44 23 18 57 26 23 64 26 25 72 28 27 73 29 28 74 29 26 74 29 26 71 32 25 70 30 28 62 30 35 63 28 34 61 26 32 62 25 32 60 25 31 62 25 32 61 25 29 62 26 30 61 26 30 59 27 28 58 26 27 56 26 26 55 25 23 53 25 22 51 23 20 51 21 23 52 22 24 54 24 24 53 25 22 54 26 25 55 26 30 52 26 29 56 27 31 55 28 35 55 28 35 54 27 32 52 25 32 52 25 34 55 25 33 58 25 32 60 28 33 60 29 34 60 31 35 55 29 32 52 27 30 45 25 26 43 25 25 38 24 23 37 26 24 38 27 25 37 26 24 36 25 23 33 23 21 33 22 18 29 19 17 29 19 18 30 20 19 29 19 18 33 23 22 34 22 22 39 25 25 42 26 29 45 26 28 51 28 34 56 29 34 63 32 40 65 32 41 66 29 37 67 27 36 63 31 42 63 30 39 63 30 37 64 29 33 63 28 32 64 25 28 61 25 25 61 22 23 61 22 23 60 21 26 62 21 25 60 23 30 62 22 33 64 24 35 65 25 34 63 29 30 65 31 32 61 29 32 61 31 33 60 31 33 58 32 35 58 32 35 59 33 36 58 32 35 
57 29 28 58 28 28 52 21 26 53 22 27 48 24 24 42 24 22 41 23 19 42 23 19 45 24 19 57 26 23 62 27 25 72 28 27 74 29 26 74 29 24 74 29 24 72 33 26 68 30 27 63 31 34 62 30 33 61 29 34 60 25 31 60 25 32 61 24 31 61 24 31 61 26 30 60 25 29 58 26 29 58 26 27 56 25 23 55 24 22 52 22 20 50 20 18 46 20 19 51 21 21 52 24 23 55 27 26 52 28 28 55 26 30 55 26 30 57 28 32 55 29 32 58 29 34 55 28 33 56 25 33 53 26 33 55 28 35 57 26 32 58 27 33 61 30 36 60 29 34 54 29 32 53 28 31 42 24 24 42 24 24 39 23 23 38 24 23 37 26 24 37 26 24 37 26 24 33 23 21 32 21 19 28 18 17 28 18 17 28 18 17 29 18 16 32 20 20 33 21 21 36 24 24 41 25 26 46 25 30 53 28 34 56 29 36 63 30 39 64 32 37 65 29 39 67 27 38 63 30 41 62 30 41 63 30 37 64 29 36 62 28 29 60 25 29 61 25 27 62 23 26 58 22 22 61 22 27 60 21 26 61 24 31 61 24 32 62 24 35 63 26 33 63 29 30 64 28 30 62 30 33 61 31 33 59 30 32 58 32 35 58 32 35 57 31 34 58 32 35 
60 25 32 60 25 32 53 27 30 52 27 30 49 23 22 49 23 22 46 22 18 50 27 21 53 28 23 54 27 20 53 26 19 56 23 16 54 23 18 63 28 22 67 29 26 69 32 26 70 30 28 70 30 30 69 30 31 64 30 31 61 29 32 59 27 32 58 29 33 58 29 34 58 27 32 60 28 33 57 24 31 57 25 30 52 24 23 53 23 23 48 23 19 44 23 20 43 23 22 44 24 23 44 23 22 49 25 25 52 26 27 55 29 32 56 27 31 52 23 27 53 24 29 55 26 28 55 26 31 57 26 32 58 27 33 58 29 34 55 25 33 53 26 33 52 27 33 53 28 32 49 29 30 52 28 28 48 28 27 48 28 27 44 29 26 44 30 27 45 31 30 40 29 27 37 25 25 32 23 24 33 22 20 33 19 19 34 18 19 28 16 16 26 14 14 18 10 8 21 11 9 21 11 9 31 17 16 41 21 23 50 25 29 54 27 34 58 28 36 60 28 39 63 31 42 64 32 45 71 35 45 69 33 43 60 29 37 57 26 34 54 25 30 54 25 30 54 25 29 56 25 30 59 24 30 60 25 31 62 25 32 60 25 29 60 25 29 54 24 26 57 25 28 61 29 32 61 31 33 65 34 39 65 36 38 63 37 40 61 35 38 57 32 35 54 25 29 52 23 27 
62 27 34 62 25 33 56 27 31 54 28 31 51 25 26 49 23 22 48 22 21 49 25 21 52 27 22 53 26 19 52 25 18 58 23 17 55 22 15 66 28 25 66 29 23 68 31 25 68 31 25 70 30 30 67 28 29 66 30 30 61 29 32 59 30 34 59 28 34 60 29 35 59 28 33 61 26 33 57 25 30 55 25 27 54 24 24 52 24 21 48 24 20 45 24 19 43 23 22 44 22 24 44 23 20 48 27 26 51 25 26 52 27 30 56 27 31 52 23 27 53 24 28 56 25 31 56 26 28 56 25 31 56 27 32 56 27 32 53 26 31 53 26 31 54 27 32 54 27 32 53 27 30 50 28 30 48 28 27 47 27 26 46 28 26 45 30 27 41 30 28 39 28 26 37 26 24 35 24 22 33 23 21 35 21 21 34 18 19 28 18 17 27 15 15 20 12 10 22 12 11 23 13 12 32 18 17 42 22 24 51 26 30 55 28 35 59 29 37 60 28 39 64 32 43 64 32 43 72 36 46 68 33 40 59 28 36 56 26 34 50 23 28 54 25 30 55 24 29 55 24 29 57 25 30 60 23 30 60 23 30 59 24 28 59 24 28 56 25 30 57 25 28 60 30 32 63 31 36 66 35 40 64 38 41 66 37 41 60 33 38 58 32 35 54 25 30 53 24 29 
61 28 37 63 27 37 57 26 31 54 28 29 50 24 25 51 23 22 49 21 20 47 22 17 50 22 18 49 22 15 48 19 13 52 19 12 52 19 12 62 25 19 61 22 17 63 23 21 64 24 24 69 29 29 66 27 28 62 26 26 57 27 27 57 27 29 59 28 33 58 29 33 61 30 38 61 28 35 60 29 34 58 26 29 55 27 26 53 25 24 49 25 21 48 24 24 42 22 21 44 23 22 45 24 23 49 24 27 53 24 26 52 26 29 53 24 26 49 20 24 50 21 25 53 24 28 52 23 27 52 23 28 52 23 28 51 24 29 52 25 30 53 26 31 56 27 32 55 28 33 52 27 30 49 27 29 46 25 24 45 25 24 42 24 22 40 25 22 40 24 24 39 25 24 36 25 23 35 24 22 35 24 22 36 20 21 37 21 22 34 23 21 32 22 20 28 20 17 30 22 19 33 21 21 41 25 25 50 28 31 56 29 34 60 29 37 61 30 38 63 30 39 67 34 45 69 36 47 72 34 49 66 32 46 56 24 35 53 23 31 48 21 28 50 23 28 53 24 29 55 24 29 56 23 30 57 21 25 57 21 25 57 21 25 59 20 25 56 24 27 58 26 29 64 34 36 66 34 39 66 37 41 64 38 41 65 39 42 59 33 36 59 33 36 55 26 30 54 25 29 
65 29 39 65 30 37 56 26 28 56 25 30 52 23 25 49 23 22 50 22 19 51 23 22 51 24 17 50 23 16 50 21 17 53 20 15 54 21 14 62 22 20 60 22 19 64 23 21 66 26 24 68 28 26 63 27 27 61 27 26 56 26 26 54 26 25 56 27 31 57 28 32 60 29 34 60 29 35 59 27 32 58 28 30 54 25 27 53 25 24 49 26 20 47 23 21 45 20 23 47 23 23 48 24 24 51 26 29 51 25 28 52 23 27 52 23 27 49 20 24 50 19 24 52 23 27 52 23 28 49 22 27 49 22 29 50 23 28 54 25 30 53 26 31 55 28 35 56 27 32 53 27 30 51 26 29 46 25 22 44 24 23 42 24 20 39 24 21 39 24 21 38 24 23 39 23 23 35 24 22 35 24 22 37 23 22 38 22 23 35 23 23 33 23 21 28 23 19 33 23 21 37 23 22 43 27 27 53 28 32 55 30 34 60 29 35 62 29 36 62 29 38 67 34 45 67 35 46 68 34 48 63 31 46 55 23 36 52 22 32 46 19 26 52 22 30 54 23 29 55 23 28 56 24 29 57 21 25 57 21 25 60 21 26 57 22 26 58 26 29 59 27 30 63 33 35 63 33 33 67 38 40 66 37 41 64 38 41 61 32 36 57 31 34 55 26 30 54 23 28 
64 31 38 63 30 37 53 23 25 54 22 25 52 22 22 53 23 23 54 24 22 54 25 21 55 26 20 56 25 20 60 26 24 62 27 21 62 27 21 66 26 24 65 25 23 67 26 24 66 28 25 67 29 28 62 26 26 58 24 23 53 23 23 50 24 23 52 26 29 54 28 31 58 29 33 59 30 35 57 26 31 56 26 28 51 22 24 51 23 22 48 22 21 47 21 22 47 21 24 51 25 26 54 25 27 55 26 30 54 25 29 51 22 26 51 22 26 48 19 23 48 19 23 52 23 27 48 21 26 48 21 26 49 24 28 47 25 28 55 26 31 56 25 31 58 27 33 56 27 32 51 26 29 52 27 30 44 23 22 44 23 22 41 21 20 40 22 20 39 23 23 38 24 23 39 25 24 39 25 25 37 26 24 37 23 22 37 21 21 35 24 22 36 25 23 35 25 23 38 27 23 44 29 26 50 30 31 58 32 35 62 31 36 63 30 37 65 30 37 63 30 39 67 31 41 66 33 44 61 28 45 59 26 43 51 20 35 50 19 34 45 18 27 50 20 28 53 22 28 56 23 30 59 24 28 61 21 29 61 22 27 63 24 29 63 27 31 63 28 32 64 29 33 62 31 36 62 32 34 64 35 39 64 35 39 61 35 38 60 31 35 57 28 32 54 25 29 53 24 28 
65 30 37 65 30 37 56 24 25 55 23 26 53 23 23 54 23 21 55 26 22 55 24 21 55 24 19 56 25 20 59 24 20 62 27 21 63 28 22 66 26 24 65 25 23 67 26 24 67 27 25 66 28 27 61 25 25 57 23 22 52 24 23 49 23 24 52 26 29 54 28 31 58 29 33 60 29 34 58 26 31 57 27 29 53 24 26 50 24 25 47 23 21 48 22 23 48 22 25 51 25 26 54 25 27 54 25 27 54 25 29 52 21 26 51 22 26 47 18 22 47 21 24 51 25 28 50 23 28 47 22 26 49 24 28 50 25 29 55 26 31 56 25 33 57 26 32 56 27 32 53 27 30 51 26 29 46 25 24 45 24 23 41 21 22 41 23 21 41 23 23 39 25 24 39 25 24 37 26 24 39 25 24 36 22 21 37 21 21 34 24 22 34 23 21 35 24 22 39 25 22 44 29 26 52 32 33 60 34 37 64 31 38 65 30 37 65 30 37 66 29 37 65 32 41 67 31 43 61 28 45 58 27 45 50 22 37 49 21 35 46 20 29 48 21 28 53 22 28 56 24 29 60 24 28 62 23 26 62 23 26 64 25 30 65 26 31 63 28 32 62 30 33 61 30 35 60 31 35 63 34 38 63 34 38 60 34 37 59 30 34 56 30 33 55 26 30 54 23 28 
61 28 35 62 29 36 58 26 27 59 25 26 56 24 25 58 24 23 58 24 23 57 22 18 57 22 18 59 24 20 61 23 22 65 28 22 67 29 26 67 27 25 66 26 24 68 27 25 66 26 26 64 26 25 58 24 23 53 23 23 49 23 22 48 22 23 54 25 27 53 27 30 59 30 34 60 29 34 59 28 33 56 27 29 53 25 24 54 26 25 51 25 24 52 23 25 51 22 24 54 25 27 55 26 28 54 25 29 56 25 30 51 20 25 51 22 26 48 19 23 50 21 25 49 24 27 46 24 27 47 22 26 47 25 28 50 28 31 56 26 34 57 26 34 57 28 33 58 27 33 55 26 30 56 27 31 49 24 27 48 24 24 45 24 23 44 24 23 45 25 24 45 27 27 41 27 27 40 26 26 40 26 26 37 23 23 35 21 20 33 22 20 34 23 21 36 22 19 40 25 22 48 28 27 55 30 33 64 33 38 66 34 39 70 33 40 67 30 38 69 29 38 65 29 39 65 29 39 58 26 47 54 25 43 52 25 42 51 23 38 48 22 33 52 22 32 52 21 27 58 23 29 61 22 27 64 23 29 64 23 29 66 27 32 66 27 30 63 27 31 62 27 31 57 28 30 58 29 33 59 33 36 58 32 35 59 33 36 57 28 33 54 27 32 53 24 29 54 23 28 
61 28 35 61 29 34 59 27 28 60 26 27 59 25 24 61 27 26 58 24 23 57 22 18 59 21 18 60 22 19 61 23 20 66 29 23 67 27 25 65 25 23 66 26 24 67 27 25 64 26 25 59 25 24 55 24 22 52 22 22 49 23 24 47 23 23 49 25 25 51 26 29 54 28 31 57 28 32 56 26 28 54 26 25 51 25 26 52 26 25 50 26 24 50 24 25 51 22 24 52 23 25 55 25 27 54 23 28 55 24 29 54 23 28 54 23 28 50 21 25 50 21 25 49 24 27 48 23 27 43 21 24 48 23 27 49 27 30 54 24 34 57 24 33 58 27 33 57 28 33 54 27 32 54 28 31 51 25 28 50 25 28 46 25 24 46 26 25 43 28 25 43 27 27 43 27 27 40 26 26 39 25 25 36 22 22 36 22 22 35 24 22 35 24 22 41 23 23 43 25 25 49 27 29 59 30 34 64 33 38 70 33 40 71 34 42 68 31 39 67 29 40 65 29 39 62 29 38 55 23 44 53 24 44 52 24 39 51 23 38 49 21 33 52 22 30 55 22 29 58 21 28 60 21 26 63 22 28 63 22 28 65 26 31 66 25 29 61 26 30 59 27 30 57 31 32 59 30 34 61 32 36 61 32 37 59 32 37 57 28 33 57 28 33 55 24 29 54 23 28 
61 28 35 60 28 33 61 27 28 61 27 26 59 25 24 60 24 24 60 25 23 58 23 19 58 20 17 62 22 20 61 22 17 66 28 25 67 29 26 66 26 24 66 26 24 66 26 24 64 24 24 58 24 23 53 23 23 50 22 21 50 21 23 46 22 20 48 24 24 49 25 25 52 26 27 53 27 30 54 24 26 53 24 26 51 25 26 50 24 25 51 25 26 52 23 25 53 23 25 55 23 26 55 23 28 54 23 28 55 24 29 56 25 30 56 25 30 52 23 27 52 23 27 48 23 26 48 23 27 42 20 23 45 23 26 50 28 31 53 23 33 55 24 32 57 26 32 56 27 32 57 28 33 55 29 32 52 27 30 52 27 30 46 26 27 46 28 28 45 27 27 43 27 27 41 25 25 39 25 24 36 24 24 35 24 22 35 24 22 38 24 23 39 25 22 41 26 23 44 26 24 53 27 28 60 31 33 68 33 39 71 34 42 76 34 44 71 34 42 69 31 42 63 27 39 60 27 38 52 20 41 51 22 42 51 24 39 50 22 36 48 21 30 52 22 30 55 22 29 58 21 28 61 20 26 62 20 24 62 20 22 64 25 30 63 24 29 59 24 30 61 26 30 58 31 36 60 34 37 61 35 38 60 34 37 59 32 37 57 28 33 54 27 32 53 24 29 54 23 29 
59 28 34 60 29 34 60 26 25 61 25 25 60 24 24 60 25 23 62 22 22 61 23 20 60 22 19 65 25 23 66 26 24 71 30 26 70 29 27 67 27 25 67 27 25 65 25 23 61 26 24 54 22 23 51 23 22 48 22 21 45 21 21 43 22 19 43 22 21 44 23 22 48 22 23 48 22 25 49 20 22 49 20 22 47 21 22 47 23 23 47 25 27 49 23 24 52 23 25 53 24 28 54 23 28 56 26 28 57 26 31 58 27 32 59 28 33 54 25 29 55 24 29 49 23 26 47 22 26 44 19 23 46 21 25 48 23 27 51 21 29 52 22 30 56 27 32 57 28 33 57 30 35 56 31 34 51 29 31 50 29 28 45 27 27 43 25 25 40 24 24 40 24 24 37 23 23 35 23 23 37 23 22 37 23 23 37 23 22 40 26 25 43 27 27 47 29 29 50 30 31 55 29 32 61 30 35 68 31 38 70 33 41 73 33 42 69 33 43 69 31 42 59 29 39 59 27 38 53 24 44 52 23 41 52 24 38 51 23 35 51 21 29 54 23 28 59 24 28 60 24 28 64 23 27 61 19 23 61 19 23 62 23 28 62 23 26 59 27 32 60 28 31 61 34 39 61 34 41 60 35 39 60 33 38 59 32 37 57 26 32 55 26 31 52 23 27 52 21 26 
61 28 35 61 29 34 60 26 25 59 25 24 61 25 25 62 24 23 62 22 20 63 23 21 62 22 20 65 25 25 68 27 23 71 30 28 71 30 28 67 27 25 69 29 27 66 26 24 61 26 24 54 22 23 52 24 23 48 22 21 44 23 22 43 22 21 41 21 20 41 21 20 46 20 21 46 20 21 46 20 21 49 20 22 46 20 21 46 22 20 44 23 22 49 23 24 53 24 26 53 24 26 54 24 26 56 26 28 56 25 30 59 28 33 59 28 33 54 25 29 54 25 29 51 25 28 49 22 27 43 18 22 45 20 24 45 23 26 48 21 28 51 20 26 55 24 29 56 27 32 57 32 36 56 31 34 51 29 31 49 27 29 45 25 26 42 24 24 39 23 23 38 22 22 37 23 22 37 21 21 36 22 22 35 23 23 36 24 24 41 27 26 45 27 27 48 30 30 51 29 31 58 29 34 61 30 36 67 32 39 70 33 41 71 33 44 69 31 42 68 32 42 59 29 37 57 27 37 54 22 43 54 23 41 55 24 39 54 24 36 50 20 28 55 23 28 60 25 29 63 24 27 63 23 24 60 20 21 62 17 20 58 22 24 60 24 26 58 26 31 60 28 31 62 35 40 60 33 38 61 34 39 60 33 38 59 32 37 56 27 32 55 26 30 53 22 27 53 21 26 
59 28 33 58 29 33 62 28 26 62 28 27 62 28 26 62 24 23 59 21 20 60 22 19 61 21 19 66 25 23 65 26 21 68 27 25 69 29 27 66 26 24 64 26 23 63 25 22 60 25 23 51 23 22 51 22 24 47 23 23 44 23 20 42 23 19 40 21 17 40 21 17 45 21 19 46 22 22 48 22 23 49 23 24 51 25 26 50 25 28 48 26 28 51 25 28 54 25 27 53 27 28 54 25 27 57 27 27 57 26 31 60 29 34 58 29 33 54 25 29 54 25 29 51 25 28 50 23 28 44 19 23 47 20 25 46 21 25 48 21 28 50 20 28 53 24 29 55 26 31 54 29 33 53 28 32 47 25 27 46 24 26 38 22 22 38 20 20 35 19 19 34 20 20 33 21 21 33 21 21 35 20 23 38 23 26 37 22 25 42 26 27 43 27 28 50 30 32 52 30 32 60 31 36 64 31 38 67 31 41 68 30 41 68 32 42 62 30 41 62 29 40 53 27 36 54 26 38 52 21 37 53 22 38 55 25 37 55 24 32 53 22 27 56 24 29 61 25 27 64 25 26 66 26 27 64 22 24 63 21 25 63 27 31 64 29 35 63 34 39 62 33 37 59 34 37 58 33 36 60 34 37 57 32 36 59 30 35 55 24 30 55 24 32 50 19 25 49 20 24 
58 27 32 60 29 34 63 29 28 64 30 29 62 28 26 61 26 22 59 21 18 60 20 18 61 21 19 64 25 20 67 26 22 67 27 25 68 27 25 67 27 25 65 27 24 61 26 24 56 25 23 51 22 24 49 23 24 47 23 21 41 24 17 42 23 19 41 22 18 42 21 18 45 21 21 45 21 21 49 23 24 52 23 25 50 26 26 51 26 29 51 26 29 53 27 30 55 26 28 55 26 28 55 26 28 56 27 29 58 27 32 61 30 35 60 29 34 53 24 28 53 24 28 53 24 28 51 22 27 45 18 25 46 20 23 46 21 25 47 20 27 50 20 28 51 24 31 54 24 32 53 28 32 52 27 31 47 25 27 43 25 25 38 20 20 35 19 19 33 19 18 33 19 18 32 21 19 32 20 20 33 21 21 37 22 25 37 22 25 42 26 27 43 27 28 50 32 32 54 32 35 61 32 37 64 31 38 67 32 39 68 30 41 69 32 40 62 30 41 60 28 39 50 27 37 52 26 37 52 19 36 53 22 37 53 23 33 54 23 31 52 21 26 57 25 28 62 26 26 65 26 27 66 26 27 64 22 26 63 21 25 63 28 32 65 30 36 63 34 39 63 34 39 58 33 36 58 33 36 59 34 37 58 32 35 56 29 34 55 24 32 53 22 30 50 19 25 50 19 25 
