P3
100 50
255
129 71 51 129 72 52 131 76 55 131 76 55 131 76 56 128 73 52 126 70 47 126 71 50 128 71 51 129 74 53 130 75 54 126 71 50 125 70 49 121 64 44 122 65 45 124 61 43 124 58 44 121 54 38 121 51 39 123 51 37 123 47 33 121 42 27 119 42 26 119 41 28 113 36 26 110 36 25 105 30 25 101 31 23 97 30 22 96 29 21 90 26 17 88 25 16 88 25 18 87 24 15 86 26 16 82 23 17 82 21 16 82 23 17 83 24 18 79 21 17 80 22 18 82 24 20 80 25 20 81 28 24 78 25 21 75 22 18 71 20 16 73 20 16 70 21 16 73 20 16 74 24 15 77 25 14 86 23 14 86 26 16 95 27 18 103 32 26 108 37 31 111 38 31 109 39 31 109 38 32 108 40 31 106 36 28 105 35 27 111 38 31 109 41 32 103 44 36 104 45 37 106 49 38 106 52 42 107 55 44 110 58 47 110 60 49 110 62 50 111 61 52 107 59 49 105 58 48 104 54 45 103 55 45 102 54 44 103 55 45 102 53 46 104 56 46 106 56 47 106 56 47 110 56 46 111 59 46 113 59 47 115 62 48 114 62 48 115 63 49 115 62 48 113 61 48 115 61 49 112 63 49 112 60 49 114 57 50 111 56 49 109 56 48 104 54 45 103 55 45 
126 71 50 129 71 51 130 75 54 129 74 53 130 75 54 126 74 52 127 70 50 127 70 50 127 72 51 128 73 52 129 74 53 125 70 49 124 69 48 122 65 46 121 64 45 122 61 43 122 59 44 122 55 39 121 54 38 121 52 37 121 48 33 122 43 26 121 42 29 122 40 28 114 38 25 111 34 24 105 32 25 103 33 25 99 30 23 96 29 21 92 27 21 91 26 20 89 26 19 89 26 17 87 27 17 82 23 15 82 21 16 84 25 19 82 23 17 79 21 17 79 21 17 79 24 19 80 25 20 77 26 22 77 24 20 75 22 18 72 21 18 72 21 18 72 21 17 72 21 18 77 25 14 79 27 14 87 27 19 91 28 19 99 29 21 106 33 26 111 38 31 111 36 30 109 39 31 109 39 31 107 39 28 106 36 28 105 36 29 109 39 31 107 40 31 104 45 37 106 46 36 106 48 37 108 51 42 109 52 43 109 56 48 111 58 50 109 61 49 108 60 50 106 58 48 104 57 49 98 54 45 104 54 45 102 54 44 100 53 43 101 52 47 103 55 45 105 55 46 106 56 45 109 57 46 110 58 45 112 58 46 115 62 48 115 62 48 113 61 47 114 60 48 111 59 46 112 60 46 111 61 50 113 59 47 114 57 50 110 55 48 109 54 47 104 56 46 104 56 46 
127 72 51 126 71 51 124 72 51 123 71 49 123 68 48 124 69 48 123 69 45 124 70 46 124 70 46 126 71 50 126 71 50 123 68 47 122 70 48 120 65 45 120 65 45 122 63 47 120 61 45 118 56 41 117 55 40 120 54 42 124 48 34 129 46 32 124 45 30 122 43 30 119 39 28 118 38 31 114 35 28 112 35 27 107 32 27 105 32 26 105 30 25 99 30 25 97 30 24 93 29 20 91 27 18 85 22 15 81 20 15 86 27 21 87 26 21 80 21 15 78 20 16 75 17 13 76 18 14 75 20 17 75 22 18 76 21 18 79 26 22 79 26 22 80 27 23 78 27 24 91 33 22 95 32 23 107 34 25 111 34 28 124 36 34 124 36 32 127 37 36 117 34 28 110 31 24 105 35 25 104 36 23 105 39 27 103 39 29 108 40 31 108 41 33 111 48 39 109 49 39 105 46 38 106 49 40 106 54 43 108 55 47 109 59 50 107 60 50 106 59 51 101 57 48 99 55 46 99 54 48 100 55 49 102 57 51 101 56 50 99 52 44 104 55 48 104 55 48 105 55 46 107 55 42 109 56 42 110 54 41 114 58 43 115 59 46 110 57 43 111 58 44 104 55 41 105 56 42 104 54 43 107 54 46 110 52 48 105 52 46 102 52 45 100 52 42 99 52 42 
126 71 51 126 71 51 126 71 50 123 71 50 123 68 48 122 70 48 124 70 46 124 70 46 125 70 49 126 71 51 126 71 50 123 68 47 121 69 47 122 67 47 121 65 48 124 65 51 121 62 46 120 58 43 118 56 41 118 54 42 123 51 36 127 50 34 123 44 31 122 43 30 117 39 27 116 38 28 112 33 26 113 34 27 107 32 27 104 31 25 101 30 26 98 29 24 95 28 22 92 28 19 92 28 19 82 23 17 81 22 16 85 26 18 83 26 19 79 22 15 79 22 15 77 20 13 78 20 16 78 20 16 79 21 17 81 22 18 84 25 19 84 26 22 86 28 24 86 28 24 96 34 23 98 34 22 107 34 25 111 34 26 120 37 31 120 37 31 122 39 33 114 34 27 109 32 24 105 35 27 104 36 25 105 38 29 102 38 29 107 38 31 107 40 31 108 48 38 106 48 37 103 46 37 104 50 40 106 52 42 108 55 47 108 58 49 107 59 49 106 59 49 103 56 46 101 57 46 100 56 47 102 55 47 104 57 49 100 56 47 100 53 47 103 53 44 104 54 45 105 55 46 108 56 43 113 57 44 111 58 44 115 59 46 114 58 45 109 57 43 109 57 44 106 57 43 105 56 42 103 55 43 103 53 44 103 52 48 102 51 47 101 51 44 101 52 45 101 52 45 
124 68 51 124 68 53 127 71 54 127 72 52 124 69 49 125 70 50 123 71 50 124 72 50 126 69 50 126 69 50 127 70 51 124 67 48 122 65 46 123 66 47 125 66 48 129 70 52 127 69 49 125 64 46 122 61 43 117 56 38 123 56 39 124 55 40 120 48 34 119 45 32 110 38 24 109 35 24 110 32 22 106 32 23 101 31 21 100 30 22 96 27 20 92 28 19 89 26 19 87 26 21 86 27 21 84 25 17 81 24 15 82 25 14 81 24 13 78 24 14 80 23 12 79 22 11 80 23 12 83 23 13 87 24 17 92 25 19 97 26 20 99 28 22 104 29 24 106 29 23 106 38 25 106 38 25 104 36 23 107 38 23 111 41 31 112 39 30 114 37 29 108 35 28 107 34 28 104 33 27 105 34 28 100 33 27 100 33 27 103 38 34 103 40 35 101 47 37 103 44 36 100 43 36 102 47 40 105 52 44 108 55 47 107 57 50 106 56 45 105 57 47 103 56 46 105 57 47 100 54 39 104 58 43 105 59 43 106 57 42 110 53 42 109 52 41 106 52 42 110 56 44 111 57 45 114 62 49 115 63 50 109 57 44 109 56 48 104 56 42 106 57 43 108 60 46 106 58 46 101 53 39 97 50 40 91 47 38 97 53 44 100 53 45 106 56 47 106 56 47 
125 69 52 123 67 50 127 71 54 127 72 52 125 70 50 125 70 50 125 70 50 123 71 49 125 70 50 125 70 50 126 71 51 123 66 47 124 65 47 125 68 49 125 68 49 130 71 53 128 69 51 124 65 47 123 62 44 118 57 39 123 56 40 124 55 40 122 50 36 121 49 35 116 42 31 115 38 28 112 35 27 107 33 24 103 30 23 99 29 21 96 27 20 93 26 18 88 25 18 86 26 18 85 24 19 82 24 13 83 24 16 82 23 17 82 25 14 79 25 15 82 25 16 82 25 16 83 25 14 86 26 16 90 27 18 95 28 20 102 29 23 101 31 23 108 33 27 108 33 27 108 40 27 108 40 27 107 37 27 111 38 29 113 40 31 111 38 29 113 39 28 107 36 30 107 34 28 104 33 27 103 34 27 98 33 27 97 32 26 100 36 34 100 37 32 97 42 35 97 42 35 97 42 35 101 48 40 104 54 45 106 56 47 110 57 49 107 57 48 106 58 48 106 58 48 105 57 47 104 56 44 105 57 45 105 59 44 107 57 46 110 57 43 110 57 43 109 55 43 110 58 45 110 58 45 114 60 48 112 60 47 106 56 45 107 55 42 105 55 44 107 55 44 107 57 48 104 56 46 102 52 43 98 51 41 94 50 41 101 54 46 103 54 47 107 57 48 110 57 49 
123 68 48 124 68 51 128 72 55 126 71 51 126 71 51 125 70 50 124 69 49 124 69 48 123 71 49 124 69 49 124 69 49 122 65 45 123 65 45 126 67 49 126 67 49 130 73 53 128 69 51 124 65 47 123 62 44 119 58 37 122 56 40 123 56 40 122 53 38 121 54 38 119 45 34 120 43 33 112 35 27 109 34 28 102 29 22 101 28 21 96 25 19 92 25 17 86 23 14 84 24 16 83 23 15 82 23 15 82 23 15 82 25 16 82 23 15 84 25 17 82 25 16 85 26 18 88 28 17 89 29 19 92 29 20 97 30 21 101 33 24 103 33 25 112 35 29 113 36 30 109 41 28 109 41 28 108 38 28 111 38 29 114 41 34 114 39 33 111 38 31 108 37 31 106 35 29 103 34 27 100 33 27 95 32 25 94 31 24 94 33 28 94 33 28 93 38 31 95 40 33 94 44 35 101 49 38 105 55 44 108 58 47 109 59 50 107 57 50 105 57 47 107 59 49 106 58 48 105 57 45 107 59 47 107 61 48 109 61 47 114 62 48 112 60 46 108 59 45 112 60 47 112 60 47 111 59 46 108 58 47 104 54 43 104 54 45 104 56 46 104 56 46 105 55 46 105 55 48 103 52 48 101 52 45 97 53 42 103 56 46 105 57 47 108 58 49 110 57 49 
125 70 50 125 70 50 127 72 52 127 72 52 128 73 53 127 72 52 127 72 52 126 71 51 124 72 51 124 69 49 124 67 48 120 63 44 119 62 43 125 66 48 128 69 51 131 74 55 128 71 51 125 66 48 125 63 48 121 63 43 124 58 42 124 57 41 125 56 41 126 56 44 122 50 38 121 47 34 113 39 28 109 36 27 104 31 22 102 29 22 100 30 22 95 28 19 92 27 21 88 25 16 87 24 15 84 24 16 83 22 17 84 23 18 85 22 15 85 24 19 86 26 18 90 30 19 92 29 20 94 31 22 97 33 24 101 34 25 103 36 27 107 37 27 111 38 29 112 39 30 108 38 28 108 38 28 107 37 29 107 37 29 112 39 32 110 37 30 109 39 31 105 36 29 102 35 27 97 34 27 95 32 25 88 29 23 87 28 22 88 31 24 87 32 25 88 35 27 90 37 29 93 40 32 97 47 38 104 54 45 107 57 50 109 56 50 109 56 48 108 58 47 109 59 48 109 59 50 109 59 50 109 59 48 112 62 51 111 61 50 112 65 49 111 62 48 108 59 44 107 59 45 107 59 45 106 56 45 105 55 46 106 56 47 106 56 47 108 57 53 110 60 53 107 57 50 105 55 48 104 53 49 104 54 47 104 56 44 107 59 47 108 58 47 112 60 49 112 60 49 
127 72 52 125 70 50 126 71 51 127 72 52 128 73 53 127 72 52 128 73 53 126 71 51 126 71 51 124 67 48 124 67 48 118 63 43 117 62 42 125 68 49 125 68 49 130 73 54 128 71 51 126 68 48 125 66 48 124 65 47 123 60 42 124 57 40 126 57 42 127 58 43 125 53 41 124 50 39 114 40 31 113 39 28 105 31 22 105 32 25 100 30 22 97 29 20 93 29 20 89 27 16 88 24 14 84 24 16 84 23 18 83 22 17 85 22 15 88 25 18 89 26 19 91 31 21 95 32 23 99 35 26 100 36 26 104 36 27 108 38 28 108 38 28 113 40 31 113 41 29 107 37 25 108 38 28 108 35 28 108 35 28 109 38 32 107 36 30 107 36 30 102 35 27 101 34 28 95 32 25 92 31 26 86 29 22 85 26 20 83 28 21 84 29 24 83 33 26 86 36 29 94 41 35 97 47 38 105 55 46 107 57 48 109 56 48 110 57 49 110 57 49 109 59 50 109 59 48 110 60 51 109 59 48 113 61 50 113 63 52 112 66 50 111 64 48 108 62 46 107 59 45 107 59 47 103 55 43 102 54 44 106 56 47 107 59 49 112 62 55 109 60 56 109 56 52 107 54 48 107 54 50 106 56 47 107 58 44 109 59 48 112 60 49 112 60 49 112 60 49 
127 72 52 127 72 52 127 72 52 126 71 51 126 71 51 127 72 52 128 73 53 128 73 53 129 72 53 125 68 49 123 66 47 117 62 42 117 62 42 124 69 49 125 68 49 130 73 54 127 70 50 124 67 48 124 67 48 126 67 49 122 64 44 124 59 41 124 57 41 124 57 41 123 51 39 121 49 37 114 40 29 113 39 30 108 34 25 108 34 25 104 34 26 102 34 25 100 30 22 96 29 20 94 27 18 90 25 19 90 25 19 88 23 19 88 23 17 91 26 20 94 27 21 97 33 24 101 34 26 105 38 29 106 39 30 108 40 29 108 38 28 108 40 29 109 39 27 110 40 28 105 35 27 109 36 29 104 33 27 104 33 27 103 34 29 102 35 29 99 34 28 94 33 28 92 31 26 88 29 25 88 29 25 80 25 22 80 25 20 79 26 22 77 28 21 79 30 23 83 34 27 90 40 31 95 45 36 100 50 39 105 55 46 106 56 47 107 57 46 107 58 44 112 60 47 112 60 49 111 58 50 113 59 49 112 60 49 109 59 48 106 59 49 103 59 46 103 57 44 103 57 44 103 55 45 99 51 41 99 51 41 105 57 47 106 58 48 113 63 56 111 61 52 109 54 47 107 54 48 105 55 48 107 57 46 112 60 46 111 59 46 112 60 47 111 59 46 110 58 47 
126 71 51 126 71 51 126 71 51 126 71 51 126 71 51 128 73 53 129 74 54 128 71 52 128 71 52 124 69 49 122 65 46 118 61 42 116 61 41 124 69 49 125 70 50 130 71 53 128 71 54 124 66 52 124 67 48 126 67 49 123 62 44 124 58 42 126 56 44 125 58 42 121 51 39 118 48 36 115 41 30 113 39 30 108 35 26 109 35 26 107 34 25 103 35 26 101 33 24 98 29 22 97 29 18 93 26 20 92 25 19 90 23 17 91 24 18 90 26 17 93 29 20 98 34 25 102 35 26 104 40 30 107 40 31 108 40 29 109 41 30 108 40 29 109 39 27 109 39 27 105 34 28 105 34 28 103 32 26 102 33 26 101 32 27 101 34 28 100 32 31 95 32 27 91 30 25 88 29 25 86 28 26 78 25 21 76 26 19 75 26 19 77 26 23 78 27 23 82 35 25 89 39 30 94 46 36 100 50 41 104 54 43 107 55 44 109 57 46 109 57 46 113 61 50 112 60 49 112 59 51 113 58 51 115 58 51 108 58 49 103 59 48 102 58 47 101 54 44 102 55 45 103 56 46 98 51 43 97 49 39 104 56 46 105 56 49 114 64 55 114 61 53 108 56 45 110 52 48 107 54 46 109 57 46 112 60 47 113 59 47 113 59 47 110 58 45 110 58 45 
127 72 52 126 71 51 124 69 49 125 70 50 126 71 51 125 70 50 127 70 51 127 70 51 126 71 51 125 70 50 125 68 49 123 66 47 121 66 46 127 72 52 126 71 51 129 72 53 124 69 49 120 64 47 120 65 45 121 66 46 120 61 43 119 58 40 118 55 38 117 54 37 119 50 35 117 47 35 117 40 30 117 40 30 113 36 26 113 35 25 108 34 25 107 33 24 104 31 22 102 32 22 100 30 20 101 30 24 99 28 22 102 29 23 101 31 23 103 33 25 104 34 26 108 37 31 108 38 30 110 40 32 109 41 32 109 41 32 106 38 27 105 37 26 105 37 26 104 38 26 106 37 32 104 35 30 100 32 29 97 32 28 95 32 27 92 31 28 89 30 26 86 28 24 83 28 23 80 24 23 75 26 22 73 24 20 72 23 19 70 22 18 74 25 20 78 28 21 84 36 26 92 42 33 98 48 39 104 54 43 107 59 45 111 59 46 113 60 46 113 60 46 114 60 48 113 61 48 111 57 45 112 58 48 112 55 48 105 55 46 99 54 48 99 54 48 101 54 48 102 55 49 105 58 52 97 50 42 100 50 43 103 54 47 104 56 46 113 63 52 112 60 47 108 56 43 110 56 44 111 59 46 113 61 48 115 63 50 111 59 46 111 59 46 108 56 43 108 56 43 
127 72 52 128 73 53 125 70 50 126 71 51 126 71 51 125 70 50 126 71 51 128 71 54 128 71 52 125 70 50 124 69 49 122 65 46 122 65 46 126 74 53 127 72 52 129 72 53 126 69 49 119 64 44 120 63 44 122 67 47 119 60 42 118 59 41 118 55 38 118 55 40 118 48 36 119 47 33 116 42 31 113 39 28 113 36 26 113 36 28 110 33 25 109 32 24 104 31 22 104 31 22 100 30 20 101 31 23 101 30 24 102 29 23 101 30 24 106 33 26 104 34 24 108 38 30 109 39 31 112 41 35 111 41 33 108 40 29 108 38 28 107 39 28 104 37 28 104 38 24 104 34 32 104 36 33 99 34 28 97 32 30 93 29 29 91 30 27 87 29 27 86 28 26 83 28 25 79 26 22 74 23 19 73 22 19 73 22 18 72 23 19 72 23 19 77 28 21 84 34 25 93 43 34 98 50 38 105 55 44 109 57 44 110 61 46 114 61 47 114 61 45 113 59 47 113 59 47 111 58 50 111 57 47 110 53 46 105 54 50 98 53 48 99 54 49 100 52 50 102 55 49 104 57 51 98 51 43 97 50 42 103 53 44 105 55 44 111 61 50 113 61 48 106 57 43 110 58 44 113 62 45 115 61 49 117 64 50 112 60 47 109 57 44 108 56 43 107 55 42 
126 71 51 125 70 50 127 70 51 126 71 51 128 73 53 128 71 52 128 71 54 128 71 54 126 69 52 126 69 52 123 67 50 124 67 50 123 67 50 125 69 52 126 70 53 126 70 53 121 68 50 116 63 45 117 64 46 118 65 47 118 61 42 116 59 42 118 56 41 117 56 38 119 52 36 119 49 37 122 46 33 120 43 33 115 37 27 114 36 24 107 28 21 106 29 19 106 30 16 105 31 22 105 31 20 110 33 23 109 35 26 116 38 28 115 38 28 118 41 33 116 42 31 116 42 33 116 42 33 112 39 32 111 38 32 107 36 30 104 35 28 103 36 28 101 37 28 100 36 27 100 35 33 99 34 32 93 32 29 91 30 29 84 24 24 82 24 22 79 24 21 73 22 19 71 20 17 66 18 16 64 16 14 66 18 16 64 16 16 65 15 16 67 19 19 80 30 21 91 39 28 104 52 41 109 60 46 118 67 50 123 70 52 125 74 55 123 72 53 123 72 53 117 66 49 118 65 49 114 60 48 113 61 47 110 58 45 108 58 47 106 57 52 105 56 51 104 54 47 103 55 45 103 53 46 101 51 42 100 50 41 107 57 46 111 59 48 116 64 51 116 64 50 112 60 46 113 62 45 114 63 46 113 59 47 111 57 45 105 55 44 104 54 43 102 52 41 102 52 41 
126 70 55 126 70 53 126 71 51 127 71 54 127 71 54 128 71 52 128 71 54 126 69 52 127 70 53 126 69 52 124 68 51 122 66 49 122 66 49 125 69 52 125 69 52 124 71 53 122 69 51 116 64 43 118 65 47 119 66 48 119 62 43 117 60 41 118 56 41 119 58 40 121 54 38 120 50 38 121 47 34 118 44 33 116 38 28 113 35 25 108 30 20 109 29 20 106 29 19 105 31 20 106 32 21 109 35 24 112 35 25 115 38 28 115 39 26 117 40 30 119 41 31 117 40 32 115 41 32 113 40 33 111 38 31 107 37 29 105 38 30 104 37 29 103 36 28 102 35 29 98 32 33 98 32 33 92 31 30 92 33 29 83 25 23 79 24 21 75 24 21 73 22 19 69 20 16 66 18 18 64 16 14 67 17 18 65 17 17 66 16 17 68 18 19 85 32 24 91 38 30 102 52 41 114 61 45 120 69 50 125 72 54 126 75 56 124 73 52 125 72 54 118 67 48 117 66 49 115 63 49 113 61 48 114 62 51 112 59 51 109 60 53 107 57 50 105 55 46 104 56 44 103 55 45 101 51 40 102 50 39 110 58 47 111 59 46 117 65 52 116 65 48 112 60 46 113 62 45 114 61 47 112 60 47 110 58 47 107 55 44 106 54 43 102 52 41 102 52 41 
127 71 54 126 70 53 126 71 51 126 70 53 128 73 53 128 71 54 127 70 53 126 69 52 124 67 50 123 66 49 123 66 49 122 66 49 121 65 48 122 66 49 122 66 49 121 68 50 120 67 49 119 66 48 121 68 50 121 68 50 123 68 48 121 66 46 121 62 44 120 61 43 122 54 41 120 53 37 123 46 36 120 44 30 118 40 28 115 37 25 112 32 21 112 32 23 111 33 21 113 35 23 113 36 26 117 41 27 119 42 26 121 42 29 121 42 29 120 40 29 119 41 29 117 39 29 116 37 30 111 36 30 111 36 31 108 37 33 104 36 33 104 36 33 98 35 30 98 35 30 90 30 30 90 30 29 86 28 27 82 27 24 76 23 19 72 21 18 69 21 17 67 19 17 67 19 19 62 14 14 63 14 17 65 15 18 69 17 21 69 18 23 72 20 24 91 37 25 99 45 33 113 60 46 121 68 52 129 76 58 134 83 62 138 88 65 134 87 61 136 84 62 126 78 56 124 76 54 123 74 57 123 75 55 120 72 58 123 71 58 121 68 54 117 65 51 116 63 49 112 59 45 112 55 44 108 54 42 107 55 42 113 61 48 112 60 46 116 64 51 115 63 52 112 60 47 110 58 47 108 55 47 107 57 48 105 57 47 103 55 45 102 54 44 100 53 43 101 54 44 
126 70 53 127 71 54 126 70 53 124 72 51 127 71 54 127 70 53 127 70 53 124 67 50 124 67 50 124 67 50 123 66 49 122 66 49 122 66 49 123 67 50 122 66 49 123 67 50 120 67 49 118 67 48 121 68 50 121 70 51 121 69 48 121 69 48 121 64 45 119 62 43 121 55 39 122 55 39 122 45 35 119 45 32 118 40 28 116 38 26 114 36 24 114 36 24 116 36 25 116 38 26 118 40 28 119 42 26 123 41 27 121 44 28 121 42 27 118 39 26 117 37 26 116 36 27 114 35 28 113 36 30 111 38 32 108 37 33 105 37 34 103 38 34 98 34 34 97 34 29 87 29 25 87 28 30 85 27 25 81 28 24 73 23 16 72 22 21 71 21 20 68 20 18 67 19 19 66 18 18 64 15 18 71 21 24 71 21 24 73 23 26 76 24 26 97 39 28 103 46 35 117 61 48 122 69 51 131 79 58 134 86 63 138 88 65 135 89 65 135 89 65 130 82 59 129 81 59 128 81 63 126 79 63 127 79 65 125 78 62 127 74 56 126 73 55 123 70 54 120 67 51 117 66 49 115 62 48 114 62 48 116 62 50 115 63 50 116 64 53 112 62 51 110 60 49 110 57 49 106 56 49 107 57 48 106 58 48 104 56 46 102 54 44 102 55 45 102 55 45 
128 73 53 128 73 53 126 71 51 125 70 50 125 69 52 126 68 54 124 67 50 123 65 51 122 65 48 123 66 49 123 66 49 123 67 50 124 68 51 121 68 50 121 68 50 121 68 50 119 68 49 118 67 48 120 69 50 121 70 51 125 72 54 127 74 56 123 66 49 122 65 48 121 55 41 120 53 37 120 47 30 119 45 32 120 42 30 119 41 31 120 40 29 121 42 29 122 43 30 122 42 31 123 45 33 122 45 27 122 45 25 124 42 28 122 40 26 118 36 24 115 36 23 112 32 23 113 33 26 113 34 29 112 37 32 110 39 35 106 38 35 105 37 34 96 32 30 93 29 27 83 27 26 83 27 26 81 26 23 78 27 24 71 22 18 71 23 19 69 23 23 68 22 22 68 22 22 67 21 23 69 20 23 75 25 28 77 26 31 79 26 32 81 29 33 102 44 33 109 51 39 121 63 49 128 72 55 132 80 58 134 88 62 137 93 66 138 94 69 138 94 67 136 90 66 134 88 62 134 87 67 134 89 70 132 86 70 135 87 67 137 83 59 138 83 62 136 81 61 135 80 60 132 80 59 130 74 59 126 73 57 120 66 54 119 65 53 111 58 50 112 59 53 110 60 53 110 57 53 110 56 54 108 57 53 110 60 53 106 59 51 103 56 48 106 59 51 105 58 50 
126 74 52 125 73 52 127 72 52 125 70 50 123 68 48 123 67 50 123 67 50 123 67 50 123 67 50 125 69 52 124 68 51 123 70 52 124 71 53 123 70 52 122 69 51 119 66 48 119 66 50 119 66 48 121 68 50 122 69 51 126 71 51 126 71 50 126 67 49 126 68 48 125 59 43 124 57 41 119 47 35 120 46 35 117 43 32 116 42 31 116 42 31 116 42 31 114 42 30 116 43 34 118 45 36 119 43 30 118 45 30 119 43 30 119 41 29 115 38 28 115 37 27 112 33 26 112 35 29 111 36 30 112 38 35 111 40 38 105 37 38 104 36 37 93 29 30 89 27 28 78 25 31 78 25 31 77 25 29 76 25 30 73 23 26 72 22 23 71 23 23 74 23 22 76 25 24 78 22 21 78 22 21 87 26 25 87 27 27 90 29 28 92 31 28 108 44 34 113 51 40 121 59 46 128 71 52 135 80 60 135 89 65 137 93 68 136 96 70 134 97 68 132 97 67 133 96 67 133 93 67 134 94 69 134 92 68 135 91 64 135 89 63 135 89 63 136 89 63 134 87 61 134 86 63 130 77 59 128 77 58 123 70 54 123 70 54 119 66 52 118 66 53 118 66 53 118 64 54 117 65 54 116 62 52 114 62 51 110 60 51 108 58 49 112 59 51 112 59 51 
126 71 51 127 70 51 127 70 51 127 70 51 122 67 47 122 67 47 121 68 50 122 69 51 123 70 52 124 71 53 123 72 53 126 73 55 125 74 55 126 70 53 124 71 53 119 66 48 118 65 47 116 63 45 120 67 49 122 69 51 124 69 49 124 67 48 127 68 50 129 68 50 126 63 46 127 61 45 118 50 37 118 49 34 114 44 32 113 43 33 113 43 33 111 43 34 108 41 32 112 45 37 112 48 39 114 44 34 113 43 33 114 44 36 113 43 35 116 39 31 114 40 29 110 35 29 111 36 31 112 39 33 113 39 36 112 41 39 102 38 39 101 35 39 90 25 29 87 25 28 73 25 37 75 25 37 70 23 33 73 23 34 73 24 30 73 22 27 76 21 24 80 24 25 83 25 24 87 23 21 88 23 19 98 27 23 99 28 22 106 33 27 106 31 26 110 44 32 115 49 37 122 56 44 129 67 52 136 79 60 137 90 64 136 94 69 133 100 67 131 102 68 130 104 69 128 102 67 127 98 64 130 97 64 136 95 67 135 96 67 132 96 62 133 97 65 136 97 66 137 92 63 137 92 63 129 83 59 130 82 59 125 73 52 125 73 52 125 72 54 125 72 54 126 73 57 127 74 56 125 72 56 120 68 54 116 62 50 116 62 50 115 61 49 118 61 50 118 61 50 
125 70 50 126 71 50 126 71 51 126 71 51 125 70 50 124 69 49 121 68 50 121 68 50 122 69 51 123 70 52 122 69 51 123 70 52 123 70 52 121 68 50 121 68 50 117 64 46 116 63 45 116 65 46 117 64 46 121 68 50 122 67 47 121 64 45 126 67 49 126 67 49 127 64 47 125 62 47 120 54 40 118 50 39 114 46 35 112 44 33 111 43 34 110 42 33 108 39 32 109 40 33 110 42 33 113 45 36 112 45 36 115 45 37 114 44 36 113 40 33 114 40 31 112 37 31 112 39 32 111 40 34 114 40 37 112 42 40 104 39 37 103 37 38 94 28 30 92 28 29 78 26 38 79 26 36 76 23 33 74 23 30 76 25 32 79 23 26 79 23 26 85 27 26 89 29 29 90 29 24 93 28 24 102 33 28 104 33 29 109 36 30 111 36 31 111 41 31 114 48 36 121 55 43 127 68 52 135 78 59 136 88 65 137 95 70 135 102 69 133 104 70 132 106 71 131 105 72 135 99 67 135 100 68 136 99 70 136 99 70 137 98 69 136 97 68 136 97 66 135 94 64 137 93 66 134 87 61 133 85 62 132 82 59 133 83 60 132 84 62 133 82 63 133 82 63 131 80 61 130 79 60 127 76 59 123 72 55 122 69 55 123 67 54 123 67 54 122 66 53 
126 72 48 125 70 50 126 71 51 126 71 51 124 69 49 123 67 50 121 68 50 123 70 52 122 69 51 121 68 50 121 68 50 121 68 50 122 69 51 121 68 50 120 67 49 116 63 45 116 63 45 114 61 43 117 64 46 121 68 50 121 64 45 121 64 45 124 65 47 123 64 46 127 64 49 126 63 48 119 53 39 118 52 40 115 47 36 114 46 35 112 44 35 110 40 32 108 37 31 108 39 32 107 39 30 110 43 34 113 46 37 115 45 37 113 45 36 113 40 33 114 39 33 113 39 30 115 38 32 113 40 34 114 40 37 112 41 39 107 39 38 105 37 36 95 29 30 94 30 30 80 27 37 83 27 36 78 23 29 77 25 29 79 24 30 81 25 28 83 24 28 87 27 27 91 31 31 95 30 28 96 31 27 104 35 30 106 35 29 110 37 31 111 38 32 111 41 31 113 47 35 121 55 43 128 66 51 135 78 59 137 89 66 136 94 69 136 103 70 134 105 71 134 108 73 133 107 72 136 103 70 135 102 69 137 100 71 135 98 69 134 97 68 136 97 68 136 97 68 137 96 68 138 94 67 135 89 65 135 87 64 135 87 64 135 87 64 135 89 66 136 88 68 137 89 67 135 87 67 131 83 63 131 80 61 127 74 56 127 74 58 126 73 57 126 70 57 125 69 56 
126 71 50 126 71 51 128 73 53 128 73 53 127 72 52 126 71 51 123 70 52 123 70 52 123 70 52 122 69 51 122 69 51 121 68 50 121 68 50 120 67 49 119 66 48 116 63 45 116 63 45 117 64 46 121 65 48 122 69 51 120 65 45 121 64 45 122 65 46 125 66 48 123 64 46 122 63 47 115 56 42 114 52 39 111 47 35 110 46 36 111 43 34 109 39 31 107 36 30 110 37 30 111 38 31 106 42 33 105 41 32 108 41 32 108 41 33 109 41 32 110 40 32 112 37 31 112 39 32 113 40 34 114 41 35 114 40 37 108 38 36 107 37 37 101 33 32 101 33 32 88 26 31 87 24 32 84 24 26 84 24 26 85 25 27 87 26 25 90 25 29 95 31 29 98 34 32 102 34 31 100 35 31 108 37 31 108 37 31 112 37 34 112 37 32 112 39 30 114 44 34 119 53 41 127 64 49 134 77 58 136 88 65 136 96 70 135 104 73 136 107 75 135 109 74 134 108 73 136 103 70 135 102 71 136 99 72 137 97 71 136 96 70 136 96 70 136 96 70 135 93 68 136 92 67 135 91 66 135 89 65 137 91 67 137 89 66 137 92 69 138 93 70 136 91 68 135 90 67 133 88 65 133 87 64 133 85 63 133 82 61 133 82 61 130 78 57 128 76 55 
126 71 51 126 71 51 126 74 53 128 73 53 127 72 52 127 72 52 124 71 53 124 71 53 124 71 53 123 70 52 122 69 51 120 67 49 121 68 50 120 67 49 119 66 48 116 63 45 119 63 46 117 64 46 119 66 48 125 69 52 122 67 47 121 64 45 122 65 48 121 64 45 123 66 49 121 62 46 114 55 39 112 53 39 110 48 35 110 46 34 110 42 33 109 39 31 109 36 30 106 35 29 111 38 32 105 41 32 104 41 34 105 41 32 105 41 32 109 38 32 109 39 31 111 38 31 112 39 32 115 40 35 115 40 35 115 40 37 109 38 34 109 38 36 104 34 32 103 33 31 90 25 29 90 25 29 86 24 27 86 24 27 87 25 26 88 26 27 91 27 28 97 32 30 100 35 33 104 34 32 103 35 32 110 36 33 111 37 34 112 37 34 111 38 32 113 39 30 116 44 32 119 51 38 127 64 49 133 76 57 134 88 64 137 96 68 137 104 73 136 107 73 134 110 74 134 110 74 138 103 71 137 102 70 136 99 72 135 98 71 134 97 70 136 96 70 136 96 70 135 93 68 134 90 65 134 90 65 134 88 64 135 89 65 136 92 67 136 94 69 135 93 69 136 94 69 135 93 68 131 91 65 134 90 65 136 90 66 133 85 62 135 85 62 130 79 58 129 77 56 
122 67 47 122 67 47 123 68 48 123 68 48 124 68 51 124 71 53 125 72 56 124 71 53 125 72 54 123 70 52 122 69 51 122 69 51 121 68 50 121 68 50 121 68 50 118 65 47 118 65 47 118 65 47 121 68 50 126 70 53 124 69 49 120 68 47 121 65 48 121 64 47 120 64 47 117 64 46 114 58 43 113 57 42 109 51 37 111 49 38 107 45 34 107 40 32 108 38 30 112 39 33 113 40 34 99 38 33 99 40 34 104 39 35 104 39 37 108 39 32 108 39 32 115 38 32 115 40 34 118 40 36 117 42 36 116 41 36 114 39 34 111 40 34 108 39 34 108 37 33 102 30 31 102 31 29 100 30 28 101 31 29 102 34 31 105 35 35 105 37 34 108 39 34 110 41 36 111 40 36 111 40 36 113 39 36 113 39 36 113 38 35 113 38 33 114 37 29 115 41 32 120 47 38 125 62 47 132 73 55 135 87 64 136 94 69 135 105 71 135 106 72 136 107 73 134 105 71 135 100 68 134 99 67 137 96 68 137 95 70 137 97 72 137 97 72 134 97 70 136 94 69 137 95 70 137 93 68 136 92 67 137 93 66 135 94 66 134 97 68 136 97 68 135 100 70 134 99 67 135 99 67 135 96 67 137 93 64 136 91 62 137 90 62 133 86 60 134 84 59 
123 68 48 123 67 50 121 68 50 123 68 48 123 67 50 124 68 51 123 70 52 124 71 53 124 71 53 123 70 52 122 69 51 121 68 50 121 68 50 122 69 51 120 67 49 119 66 48 119 66 48 119 66 48 120 67 49 122 71 52 122 70 49 123 68 48 119 66 48 119 66 48 119 66 48 119 63 46 116 60 45 116 57 43 109 53 40 109 49 38 109 45 35 109 42 34 108 37 31 110 39 33 111 40 36 101 40 37 100 39 38 100 39 34 101 38 31 106 39 31 107 38 31 114 39 33 114 41 34 117 40 34 116 41 35 115 40 34 114 41 35 112 39 33 111 38 32 110 37 31 105 31 28 104 30 29 107 33 32 105 34 32 105 35 33 106 36 34 108 39 34 109 38 34 111 42 37 111 40 34 111 40 36 113 39 36 112 38 37 113 38 35 112 37 32 113 34 27 114 40 29 118 46 34 126 60 46 133 72 54 135 87 64 135 96 67 136 103 70 135 105 71 135 104 73 133 104 70 134 100 65 135 98 69 136 95 67 134 97 70 134 97 71 135 98 72 135 98 71 135 98 71 136 96 70 137 93 68 135 93 68 135 93 68 138 94 67 136 97 68 136 97 68 137 101 69 136 101 71 136 100 68 136 97 66 136 95 65 137 92 63 137 92 63 135 88 60 134 87 59 
125 70 50 124 68 53 122 69 51 125 70 50 126 71 51 122 69 51 120 67 49 121 68 50 121 68 50 121 68 50 122 69 51 121 68 50 120 67 49 122 69 51 122 69 51 120 67 49 119 66 48 118 65 47 120 67 49 122 69 51 121 69 48 122 67 47 119 68 49 119 66 48 121 70 51 120 67 51 115 62 46 114 61 45 111 55 40 108 55 41 108 48 38 108 45 36 109 41 38 109 40 33 110 39 33 99 41 37 99 40 36 100 40 32 103 40 35 107 38 33 108 39 32 113 40 33 113 40 33 116 39 33 116 38 34 113 39 30 112 37 31 110 37 30 108 37 31 108 38 30 110 33 27 109 34 29 111 36 31 111 36 30 112 39 33 112 39 32 111 40 34 110 39 33 110 39 33 110 37 31 110 37 31 108 34 31 109 35 32 109 34 29 110 35 30 111 32 25 113 36 28 115 42 33 123 55 42 132 69 52 135 85 62 136 94 69 136 101 69 136 103 70 135 102 69 133 103 69 132 97 65 133 97 65 135 93 68 135 96 67 136 99 73 135 98 72 136 99 72 135 98 71 135 98 71 137 95 70 136 97 68 135 96 67 136 97 68 136 99 70 136 100 68 136 103 70 137 104 71 137 104 71 136 100 68 136 95 65 138 95 63 137 93 64 137 92 63 136 91 62 
125 69 52 126 71 51 124 72 51 125 70 50 126 70 53 123 70 52 120 67 49 120 67 49 122 69 51 122 69 51 121 68 50 122 69 51 122 69 51 122 69 51 122 69 51 120 67 49 119 66 48 118 65 47 121 70 51 122 69 51 121 69 48 120 68 47 120 67 49 119 68 49 121 68 50 119 68 49 115 62 46 113 60 44 110 54 41 110 52 40 110 51 37 110 46 37 110 43 35 108 41 33 108 41 33 101 42 38 101 42 36 102 41 36 103 40 35 109 40 33 109 40 33 114 41 32 114 39 33 117 40 34 114 39 33 114 40 31 111 38 31 112 39 32 111 38 32 109 38 32 112 35 29 110 35 30 113 38 33 113 38 32 112 39 32 110 41 34 112 41 35 109 38 32 108 37 31 108 37 31 108 37 31 110 36 33 110 35 32 112 37 32 110 37 31 111 32 25 112 35 27 114 41 32 123 53 41 131 68 51 134 84 61 134 92 67 136 99 70 135 102 69 132 101 70 132 102 68 133 98 66 132 97 67 135 96 67 136 96 70 134 97 70 137 97 71 135 98 71 136 99 72 135 98 71 135 95 69 136 95 67 136 97 68 135 96 67 134 99 69 134 99 69 136 101 69 134 101 68 135 102 69 136 100 68 136 95 65 135 94 64 137 93 64 136 92 63 135 91 62 
126 70 53 128 71 54 127 71 54 127 71 54 127 71 54 123 70 52 119 66 50 120 67 49 123 67 50 122 69 51 122 69 51 122 69 51 123 70 52 124 71 53 122 69 51 121 68 50 121 68 50 120 67 49 120 67 49 124 68 51 121 68 50 120 69 50 121 68 50 122 69 51 123 72 55 121 70 53 112 59 43 110 59 42 107 51 38 110 54 41 111 54 43 110 52 41 109 49 38 105 45 37 103 44 36 105 45 37 105 44 39 107 44 37 109 44 38 112 43 36 112 43 36 116 43 36 117 42 36 116 42 31 118 43 37 116 43 34 116 43 37 115 42 36 116 43 37 116 42 39 117 40 34 116 39 33 118 43 37 117 42 36 115 42 35 113 42 36 112 41 35 109 38 32 107 36 30 108 37 31 108 37 31 112 37 32 111 38 32 114 39 34 113 40 34 109 32 24 110 33 25 112 35 25 119 49 37 129 62 46 132 77 56 136 88 65 134 98 66 135 100 70 134 104 70 134 104 70 135 101 66 136 102 67 135 100 72 135 98 69 133 98 70 135 98 71 137 98 69 135 98 69 137 98 67 136 97 68 137 96 68 137 98 67 135 96 65 135 96 65 135 96 65 136 97 66 133 97 65 131 94 65 135 96 65 135 96 65 136 95 65 136 95 65 136 92 63 135 91 62 
125 69 52 125 69 52 122 69 51 124 68 51 125 69 52 121 68 50 119 66 48 121 68 50 121 68 50 122 69 51 122 69 53 121 68 50 121 68 50 123 70 54 123 70 54 122 69 51 123 67 50 120 67 49 120 69 50 124 68 51 121 68 50 120 69 50 121 68 50 120 69 50 122 69 51 122 69 53 115 59 44 114 58 45 110 52 38 109 53 40 113 55 44 111 54 43 110 53 42 108 49 41 106 47 39 105 46 38 106 46 38 107 44 39 108 43 37 110 43 35 111 40 34 114 41 34 115 40 34 115 40 35 115 40 34 116 41 35 116 43 37 116 43 37 113 42 36 113 42 36 113 38 32 114 39 34 117 42 36 116 41 36 113 42 36 111 40 34 112 41 35 107 38 31 106 35 29 107 36 30 109 38 32 111 38 31 111 38 31 113 38 32 112 37 32 108 29 24 109 32 24 108 34 25 117 45 33 124 57 41 132 74 54 136 84 62 134 95 66 136 99 70 136 103 72 134 104 70 135 102 69 136 101 73 137 102 72 133 100 69 134 99 69 135 100 68 136 100 68 136 100 68 135 99 67 136 97 66 136 97 68 137 96 66 136 95 67 135 94 64 135 96 65 134 95 66 134 95 64 131 96 64 136 97 68 138 97 69 134 95 66 134 95 66 135 91 64 135 91 64 
122 66 49 124 68 51 119 63 46 117 64 46 120 64 47 119 66 48 118 67 48 123 67 50 123 70 52 125 69 52 122 69 51 122 69 51 121 68 50 123 72 53 123 70 52 122 69 51 121 68 50 122 66 49 121 68 50 122 69 51 121 68 50 119 68 49 118 67 48 121 68 50 121 68 52 121 68 52 114 58 45 113 57 44 110 54 41 111 54 43 112 58 46 112 58 46 112 60 49 111 59 48 108 56 43 106 47 39 106 46 36 107 43 34 108 44 35 109 39 31 109 39 31 111 38 31 112 37 31 113 39 30 111 38 29 112 39 32 111 38 32 110 39 33 108 39 34 109 38 34 112 39 33 112 39 33 115 42 35 113 43 35 109 40 33 108 39 32 107 38 31 104 35 28 102 33 26 106 35 29 106 35 29 108 35 28 108 35 28 109 35 26 109 34 29 106 29 23 105 28 20 102 28 17 109 39 27 117 48 33 128 67 48 134 78 55 136 90 64 137 93 64 136 103 72 136 106 72 135 105 71 137 104 73 138 101 72 136 103 68 134 101 66 136 103 68 135 102 67 135 101 66 135 100 68 133 97 63 136 97 66 137 93 64 134 93 63 134 90 63 135 91 64 135 91 64 136 92 63 135 93 68 133 96 69 134 97 71 135 95 69 135 95 69 133 91 66 132 91 63 
125 69 52 124 68 51 122 66 49 122 66 49 124 68 51 122 66 49 120 67 49 121 68 50 122 69 51 120 69 50 121 68 50 120 67 49 119 68 49 121 68 50 122 69 51 120 67 49 119 66 48 119 66 48 123 66 49 121 68 50 120 69 50 118 67 48 116 65 46 117 64 46 121 65 50 121 65 50 119 63 50 119 61 49 114 58 45 113 60 46 114 60 48 112 60 49 112 60 49 112 62 51 111 61 50 117 54 45 116 52 43 114 50 41 113 49 40 114 44 36 113 45 36 113 40 31 112 37 31 112 38 29 114 40 31 111 41 33 109 40 35 111 42 35 108 40 37 108 40 37 111 40 36 111 40 34 114 43 37 113 42 36 109 40 33 109 38 32 108 39 34 105 38 30 104 35 28 107 38 31 107 36 30 107 34 27 107 34 27 107 32 26 107 34 28 104 31 22 103 29 20 100 26 15 108 34 21 117 45 30 126 63 46 131 73 51 134 89 60 136 92 63 136 103 70 137 104 71 137 104 71 135 104 73 136 103 72 133 103 69 133 101 63 133 103 65 137 103 66 133 103 67 136 102 67 135 96 65 136 95 63 134 90 61 134 90 61 133 87 61 133 89 62 135 91 66 134 92 67 136 96 70 134 97 71 135 98 72 136 96 71 136 96 71 135 93 68 134 92 67 
125 72 54 128 72 55 124 71 53 126 70 53 127 70 53 124 68 51 118 65 47 120 67 49 120 67 49 121 68 50 119 66 48 119 66 48 118 65 47 119 66 48 120 67 49 119 66 48 119 66 48 119 66 48 121 65 48 120 67 49 120 67 49 119 66 48 115 62 44 113 60 42 119 63 48 120 64 49 122 66 53 123 65 53 119 63 50 117 64 50 116 62 50 115 63 52 111 63 51 113 65 53 111 67 54 120 60 50 120 60 50 120 56 46 120 56 44 119 51 40 117 47 39 114 41 32 114 41 32 114 39 33 115 40 34 111 40 34 110 41 36 112 41 37 108 40 37 108 40 37 110 41 36 110 41 36 112 42 40 110 43 37 107 38 31 107 40 32 107 40 32 105 38 30 103 36 28 106 38 29 107 39 30 105 35 27 104 34 26 103 30 23 105 32 25 104 31 22 102 29 20 98 24 15 105 31 18 112 40 26 124 59 39 130 69 50 133 86 60 136 91 62 135 102 71 137 104 71 135 105 71 135 105 71 133 104 72 134 101 68 129 100 60 133 101 63 135 101 64 135 101 64 136 102 67 136 95 63 135 94 64 131 87 58 132 87 58 130 84 58 131 85 59 135 90 67 135 93 69 135 97 74 135 98 72 134 97 71 135 97 74 135 97 74 136 96 71 136 94 70 
123 70 52 123 70 52 122 69 51 123 70 52 123 70 52 121 70 49 123 68 47 124 69 49 124 69 49 123 68 48 119 68 47 120 67 49 120 67 49 121 68 50 123 70 52 120 67 51 116 65 48 116 63 45 116 63 47 117 66 49 122 66 49 123 67 50 123 67 52 122 66 49 120 67 53 118 66 52 120 68 55 118 66 53 117 65 52 116 64 51 114 62 48 117 64 50 118 67 50 119 66 50 118 65 47 122 59 44 124 58 44 120 52 41 120 50 40 114 46 35 114 44 36 109 38 32 110 39 33 108 37 33 109 40 33 110 39 37 111 40 38 111 39 40 110 41 36 108 41 35 111 41 33 111 41 33 109 39 31 109 39 31 108 38 30 109 39 31 108 38 30 107 37 29 106 36 28 107 34 27 107 34 27 107 32 26 108 33 27 106 32 23 105 30 24 103 30 21 102 31 25 103 30 21 102 32 22 102 32 20 119 56 39 129 71 51 133 83 56 136 89 61 135 100 68 134 101 68 137 104 73 134 103 74 133 102 74 135 100 72 133 99 62 135 99 65 137 98 65 135 96 63 135 96 65 134 93 65 133 92 62 134 90 63 132 91 63 134 90 65 135 91 66 135 93 68 135 93 69 135 95 70 134 99 71 132 102 68 134 101 70 135 100 70 136 97 68 135 96 67 
122 69 51 120 69 50 121 70 51 120 69 50 120 69 50 123 68 48 123 68 47 124 69 48 125 68 48 122 67 47 122 67 47 123 68 48 118 65 47 122 69 51 122 69 51 118 67 50 117 66 49 115 64 45 115 64 47 116 63 47 122 66 49 124 66 52 128 70 58 128 72 55 121 68 54 118 66 53 119 70 56 118 68 57 116 67 53 116 64 50 115 62 46 119 63 48 123 67 50 122 65 46 122 65 45 123 58 40 123 58 40 119 52 36 118 50 37 111 43 34 111 43 34 107 38 31 107 38 33 106 36 34 108 37 35 109 37 38 109 39 37 110 39 35 110 39 37 111 40 36 114 41 32 113 40 31 110 37 28 108 38 30 109 36 29 109 39 31 110 37 28 109 36 29 108 35 28 107 33 24 107 34 25 107 32 26 107 32 26 105 31 22 106 31 25 102 29 20 105 30 24 105 35 27 102 34 25 96 29 20 118 56 41 128 71 51 135 84 57 135 88 60 135 99 67 135 100 68 134 100 72 135 101 73 134 102 77 134 100 73 136 97 66 134 98 66 136 97 66 135 96 65 134 93 63 133 92 62 133 92 64 133 92 64 136 92 67 135 93 68 132 95 68 135 93 68 135 93 68 134 94 69 134 99 69 133 104 70 131 102 68 134 101 68 134 98 66 135 96 65 
119 68 49 120 69 50 121 68 50 121 68 50 119 68 49 124 69 49 126 69 49 123 71 49 125 70 50 123 68 48 123 68 48 121 68 50 121 68 50 122 69 51 122 69 51 123 67 52 120 67 51 119 66 50 118 67 50 122 69 53 122 66 51 122 63 49 122 66 51 123 67 52 118 62 49 116 63 49 119 66 52 118 66 52 118 64 52 117 64 50 113 60 42 119 61 47 121 64 47 120 61 43 121 59 44 123 56 40 122 56 40 118 51 35 117 49 38 112 43 36 110 43 34 108 39 34 108 39 34 109 38 36 109 38 36 109 39 39 110 41 36 112 41 37 111 40 36 114 40 37 112 39 32 111 38 31 108 35 28 108 35 28 108 35 28 108 35 28 109 36 27 109 34 28 107 32 26 106 32 23 105 31 22 106 31 25 105 30 24 105 31 22 104 29 23 106 32 23 107 33 24 103 33 25 97 28 21 91 24 15 111 48 33 121 62 44 134 78 51 133 86 58 138 97 65 135 99 67 136 101 71 135 100 70 132 100 75 133 99 71 134 98 66 135 96 65 136 95 65 135 94 64 136 95 65 134 95 64 134 93 63 135 94 66 135 94 66 135 95 69 135 95 69 135 95 69 136 96 70 134 97 70 134 99 67 133 105 68 133 103 69 134 101 68 136 97 66 136 95 65 
121 68 50 120 67 49 120 69 50 117 69 49 121 68 50 122 70 49 126 69 49 126 71 51 125 70 50 122 70 48 122 67 47 120 67 49 122 66 49 121 70 49 122 71 52 121 69 48 119 66 50 117 66 49 120 69 52 122 69 53 123 65 51 120 64 49 122 66 51 122 66 51 115 62 48 115 62 48 119 66 50 117 66 49 118 65 51 118 62 47 114 58 43 118 61 44 120 61 43 120 61 43 121 60 42 123 57 41 123 56 40 120 52 41 117 49 38 111 43 34 111 43 34 106 37 32 108 38 36 107 37 35 108 37 35 110 39 37 113 39 36 114 41 35 112 41 35 112 41 35 112 39 32 112 39 32 108 35 28 108 35 28 107 34 27 108 35 28 109 36 27 108 33 27 108 33 27 104 29 23 106 32 23 106 32 23 106 32 23 103 30 23 103 30 23 106 33 24 107 32 26 104 33 27 97 29 20 91 23 14 109 47 34 120 61 43 132 77 56 132 82 55 136 97 64 134 99 67 135 102 69 136 101 73 133 101 76 134 100 72 135 96 65 136 95 65 136 95 67 135 94 64 135 94 66 133 92 62 134 93 65 135 96 67 133 94 65 135 96 67 134 97 70 135 95 69 136 96 70 136 96 70 135 100 70 134 104 68 134 101 68 135 100 68 136 97 66 136 95 65 
122 69 51 122 69 51 122 71 52 121 70 51 121 68 50 123 71 50 126 71 51 122 70 49 123 67 50 121 66 46 121 65 48 120 67 49 119 66 48 120 67 49 122 66 49 115 64 47 117 64 48 116 63 47 119 66 50 121 70 53 123 67 52 121 65 50 121 65 50 120 64 47 115 62 44 116 63 45 123 67 50 124 69 49 125 70 50 122 67 47 119 60 44 121 60 42 122 59 44 120 56 44 121 55 43 120 52 41 120 50 42 117 47 39 115 45 37 111 42 35 111 40 34 109 38 34 107 38 33 108 37 33 109 38 34 107 38 31 110 39 33 111 41 33 113 40 33 112 39 32 110 35 29 110 35 29 106 31 25 107 32 26 107 32 26 107 33 24 107 33 24 108 31 25 108 31 25 105 30 24 105 31 22 108 31 23 108 31 23 105 30 24 105 31 22 108 34 25 107 32 26 102 28 25 95 25 17 89 18 12 103 39 27 112 50 37 126 70 47 131 77 51 133 92 60 134 95 64 136 97 68 134 99 69 133 99 74 133 99 71 134 95 66 133 94 65 132 95 68 132 95 68 133 96 69 134 95 66 135 96 67 137 98 67 136 97 66 135 99 67 135 99 67 134 98 66 135 98 69 137 100 71 133 100 69 134 99 67 134 98 66 136 100 68 135 96 65 137 96 66 
123 70 52 122 69 51 121 70 51 122 71 52 123 70 52 122 70 49 125 70 50 122 70 49 122 66 49 121 66 46 120 64 47 120 67 49 119 66 50 121 68 50 120 67 51 117 66 49 118 65 49 119 66 48 121 68 50 123 70 54 121 68 52 118 67 50 119 66 48 119 66 48 117 64 46 117 64 46 124 69 48 124 69 49 126 70 47 122 63 45 121 59 44 121 58 43 123 57 43 121 55 43 121 55 43 119 51 42 119 51 42 115 45 37 116 46 38 112 41 35 110 41 34 108 37 31 109 38 32 108 37 33 108 37 33 108 37 31 110 37 28 110 40 32 112 39 30 112 39 32 110 35 29 110 35 29 107 32 26 107 32 26 106 32 23 106 32 23 107 32 26 107 33 24 107 33 24 105 31 22 105 30 24 106 31 25 106 31 25 106 32 23 105 31 22 107 34 25 107 32 26 103 30 24 96 25 19 88 19 12 104 37 28 113 49 37 126 69 49 130 76 52 135 91 62 137 93 64 134 97 68 134 99 69 133 99 72 133 98 70 132 96 64 133 96 67 132 95 68 134 94 68 135 95 69 135 96 67 133 96 67 134 97 68 134 99 67 134 99 67 135 99 67 135 100 68 134 99 67 135 99 67 135 100 68 134 98 66 134 99 67 135 99 67 135 96 65 135 94 64 
125 72 54 124 71 53 125 74 55 123 72 53 122 71 52 121 68 50 120 67 49 119 66 48 117 66 49 118 65 47 118 65 47 122 69 51 123 70 52 124 71 53 124 71 55 124 68 53 122 69 51 125 69 52 125 69 52 126 73 55 123 67 52 120 67 51 120 67 49 123 67 50 121 66 46 123 66 46 128 70 48 128 70 48 130 69 50 127 64 46 123 60 42 123 56 40 124 54 44 120 50 42 118 50 41 114 45 38 116 43 37 115 42 36 113 42 36 110 39 35 110 39 35 108 37 31 108 37 31 108 38 30 109 36 29 107 37 29 111 37 28 111 37 28 110 37 30 110 37 28 109 35 26 111 34 28 106 31 25 107 30 24 105 30 24 107 32 26 109 32 26 109 32 24 107 33 24 106 32 23 106 31 25 107 32 26 106 31 25 107 33 24 108 33 27 105 32 23 104 31 24 104 31 25 98 27 21 91 20 16 103 36 27 107 44 29 123 65 45 127 71 48 134 87 59 135 90 59 136 95 65 135 96 65 133 99 71 133 98 70 132 95 68 133 96 69 133 96 70 132 97 69 133 96 69 135 98 69 135 99 67 134 99 67 135 99 67 135 98 69 136 100 68 135 99 65 136 100 66 135 99 63 134 98 66 136 97 66 135 96 65 135 96 65 135 96 65 134 95 64 
125 72 54 126 73 55 123 72 53 123 72 53 121 70 51 122 71 52 120 67 49 119 66 48 119 66 48 118 65 47 118 65 47 124 68 53 123 70 54 123 70 54 124 71 55 123 67 54 121 68 50 122 69 51 126 70 53 127 71 56 124 68 53 121 65 50 122 66 51 122 66 49 123 66 47 123 66 47 126 68 48 128 67 46 128 66 45 124 61 44 122 56 40 123 55 42 122 52 42 119 49 41 119 48 42 114 43 39 113 44 39 113 42 38 112 41 37 110 39 35 109 38 34 110 39 33 110 37 30 108 38 30 110 37 30 107 37 27 109 36 27 109 36 27 111 37 28 109 36 27 109 35 26 108 35 28 107 32 27 107 32 26 108 31 23 109 32 24 108 31 25 109 32 24 110 33 25 108 34 25 107 32 26 108 33 27 107 32 26 108 34 25 107 34 27 104 31 22 104 31 24 104 31 25 98 27 21 94 23 19 103 35 26 107 41 29 124 63 44 127 69 49 134 85 55 133 88 57 135 96 67 133 96 67 134 100 72 134 99 71 135 95 69 133 96 69 132 96 70 133 97 71 134 97 71 134 97 68 134 97 68 135 99 67 135 99 67 135 99 67 135 99 65 135 99 65 134 98 66 134 98 64 135 96 65 133 94 65 136 97 68 135 96 67 135 96 67 134 95 66 
125 72 54 124 71 53 123 70 52 121 70 51 121 70 51 121 70 53 121 70 53 120 69 52 119 67 53 120 67 53 120 67 49 122 69 53 124 71 55 124 68 53 125 69 52 121 68 52 123 67 52 123 67 50 124 68 51 124 68 53 122 64 50 120 64 49 123 67 50 124 67 50 127 66 48 126 65 46 125 62 44 123 60 42 123 58 40 122 55 38 119 52 36 118 48 38 120 50 40 118 45 39 116 43 37 112 41 39 109 41 38 110 39 35 110 39 35 112 39 33 110 39 33 111 38 31 111 38 31 111 38 31 110 38 26 109 36 27 109 35 24 109 35 24 108 34 21 108 34 23 111 34 26 111 32 25 107 33 24 109 32 24 106 31 25 107 32 26 107 32 26 108 34 25 109 35 26 109 35 26 109 34 28 108 35 28 107 34 27 109 36 27 110 37 28 101 33 22 102 32 24 103 32 26 99 28 24 96 25 21 100 29 23 99 35 25 119 58 40 125 64 45 135 84 55 134 84 57 133 94 61 133 97 63 135 100 70 135 100 72 133 98 70 133 98 70 133 97 71 134 99 71 135 98 71 135 98 69 135 98 69 135 98 69 134 99 67 135 99 67 134 98 66 134 98 66 134 98 66 134 95 62 133 92 62 133 92 64 134 95 66 134 95 66 133 96 67 133 96 67 
123 70 52 124 71 53 122 69 51 120 69 50 120 69 50 120 69 52 121 70 53 120 69 52 118 67 50 119 68 51 119 66 50 121 68 52 122 69 53 124 68 53 121 69 48 120 67 51 120 67 49 122 66 49 123 67 50 123 68 48 121 65 48 121 64 47 123 66 47 125 68 49 126 65 47 125 64 45 124 57 41 124 57 40 119 54 36 119 52 36 118 48 36 118 48 38 118 48 40 114 45 38 117 42 37 112 41 39 111 40 38 110 39 35 112 38 35 112 39 32 112 39 33 112 39 30 111 38 31 113 39 30 111 38 29 110 37 28 108 35 26 109 34 28 106 34 22 107 34 25 109 35 26 110 33 25 108 34 25 109 32 24 106 32 23 107 33 24 108 34 25 107 34 27 109 36 29 107 34 27 108 35 26 105 35 25 105 35 25 107 37 29 106 36 26 101 33 22 101 33 24 103 32 26 99 30 25 96 25 23 95 26 19 96 29 21 116 54 39 125 64 46 132 82 55 134 87 59 134 96 60 134 98 64 135 100 68 135 100 72 133 99 71 132 98 70 133 99 71 135 98 69 134 97 70 135 98 69 135 98 69 134 97 68 137 98 67 135 96 65 136 97 68 136 97 64 135 97 61 134 95 62 134 93 63 134 90 63 137 93 66 136 95 67 135 96 67 135 96 67 
121 68 50 120 67 49 119 66 48 119 68 49 117 66 47 121 70 53 122 70 56 120 69 52 118 67 50 118 67 50 117 66 47 119 66 50 119 66 50 120 67 49 121 65 48 122 65 48 121 65 48 121 64 47 121 64 47 121 64 47 121 64 47 123 64 48 123 64 48 123 64 48 125 62 47 123 60 43 118 52 38 118 50 37 114 44 32 115 45 35 115 45 35 117 44 37 116 43 37 114 43 37 112 41 35 110 39 37 111 40 36 110 39 35 109 40 35 112 37 31 112 39 32 112 39 30 112 39 30 112 39 30 110 38 26 111 39 27 110 36 25 111 34 26 109 32 22 107 33 24 108 33 27 108 33 27 107 32 26 108 31 25 106 31 25 106 33 26 108 35 26 105 35 27 107 37 29 105 35 27 106 36 26 103 35 24 103 35 24 104 36 27 105 35 27 102 35 26 101 34 26 102 33 28 97 28 23 93 23 21 91 22 17 87 20 12 110 51 35 119 60 42 133 82 55 134 87 59 134 98 64 135 99 65 135 102 69 135 102 69 134 99 69 134 99 69 135 100 72 135 100 72 135 98 71 134 97 68 136 97 68 136 97 68 135 96 65 135 96 63 135 94 64 134 93 63 135 91 62 134 93 63 134 93 65 131 89 64 135 94 66 133 94 65 134 97 68 133 96 69 
121 68 50 120 69 50 118 67 48 118 67 46 117 66 47 117 69 49 120 69 52 120 68 54 116 67 52 118 67 50 119 68 51 120 67 51 120 67 51 121 68 52 120 67 51 123 67 52 123 67 50 124 67 50 123 65 51 120 64 47 120 63 46 124 62 47 126 62 50 124 62 47 123 57 45 122 56 42 118 48 38 117 47 39 116 43 36 116 43 36 113 43 35 114 44 36 115 44 38 112 43 36 111 42 35 114 40 37 111 40 36 112 39 33 113 40 34 111 38 31 110 37 28 111 38 29 112 40 28 112 38 27 112 38 29 112 38 29 110 36 27 109 34 28 107 32 26 107 32 26 106 33 26 107 33 24 107 33 24 106 33 26 105 32 25 106 33 26 106 33 26 105 35 27 105 35 27 103 35 26 104 34 26 101 33 24 101 33 24 102 35 26 101 34 25 98 36 23 98 34 25 99 32 26 96 29 23 91 21 21 85 18 12 82 15 7 109 47 32 120 59 41 133 83 58 135 88 58 135 101 66 134 100 65 133 103 69 133 102 71 135 100 68 135 100 68 135 99 67 135 98 69 134 99 67 136 97 68 134 98 66 135 96 65 136 95 65 133 92 64 135 91 62 136 92 63 136 92 67 135 91 64 134 92 67 134 92 67 135 93 68 135 95 69 134 97 70 135 98 71 
120 67 49 120 67 51 119 66 48 120 67 49 119 66 48 117 68 51 117 68 54 116 67 52 115 66 51 118 66 52 119 68 51 118 66 52 120 67 53 124 68 53 122 69 53 125 69 52 125 69 52 127 70 53 125 68 49 121 64 45 121 62 44 123 60 43 125 59 45 124 58 44 122 54 43 121 51 41 118 45 38 118 43 37 115 42 36 116 41 36 114 41 35 113 42 36 112 41 35 112 43 36 111 44 36 114 41 35 113 39 36 112 39 33 112 39 32 111 38 29 110 37 30 110 38 26 111 37 26 111 37 26 112 38 29 111 37 28 110 35 29 108 33 27 106 33 26 106 33 26 106 33 26 108 34 25 106 33 24 104 34 26 102 32 24 102 32 24 103 33 25 103 35 26 104 36 27 100 33 24 101 33 24 98 31 22 98 31 22 97 33 23 98 34 24 95 35 24 96 33 24 95 32 27 93 25 22 89 19 19 81 13 10 76 9 3 104 45 31 114 55 39 133 83 58 135 90 61 136 102 67 134 101 68 134 104 70 135 102 67 134 99 67 134 100 65 134 99 67 135 100 68 134 99 69 135 96 67 136 95 67 135 94 64 134 93 63 135 91 66 135 91 62 136 90 66 135 91 66 136 90 66 133 91 67 134 92 67 135 95 69 133 96 69 133 98 70 134 99 71 
121 68 50 122 69 51 120 69 50 121 70 51 123 70 52 118 69 52 118 69 55 117 68 53 116 67 52 121 68 54 121 68 54 122 69 55 123 70 54 120 67 51 123 67 52 124 68 51 123 66 49 121 64 47 117 60 43 114 55 39 119 56 39 123 57 41 120 54 40 119 51 38 120 47 38 119 46 39 119 41 37 116 42 39 115 41 38 116 40 40 112 41 37 112 41 37 109 40 35 109 40 35 107 40 32 111 40 34 113 39 36 111 38 31 112 37 31 109 36 27 110 36 23 110 36 23 110 36 23 110 36 25 110 36 25 111 37 28 108 33 27 108 33 28 105 30 25 106 31 26 105 32 25 105 32 25 107 33 24 103 33 25 101 31 21 100 32 21 102 34 25 101 33 24 102 35 26 98 31 22 99 31 22 92 28 18 93 29 19 92 30 19 91 31 20 91 31 20 93 31 20 94 29 23 92 24 21 86 21 19 76 11 9 71 6 2 104 40 28 112 55 38 132 82 57 136 91 60 134 101 66 135 102 67 132 104 67 131 101 65 135 99 65 134 100 65 135 99 65 134 98 66 136 97 66 135 94 64 135 96 67 133 92 64 134 93 65 134 90 65 136 92 67 136 90 66 134 89 66 133 91 67 133 91 67 133 96 70 136 96 70 134 97 70 133 98 70 134 99 71 
122 69 51 121 68 50 122 71 54 122 71 52 124 73 54 119 70 53 117 68 54 117 68 53 119 67 53 120 68 55 120 68 54 120 68 54 121 68 54 123 67 52 120 67 49 123 67 50 122 65 48 119 62 45 114 58 41 112 53 35 116 53 36 123 56 40 120 52 39 118 50 37 118 45 38 119 46 40 118 43 40 118 40 38 116 40 40 115 39 39 112 41 39 111 40 36 108 39 34 108 41 33 106 39 31 112 41 35 112 43 38 111 38 31 111 38 31 110 36 27 110 36 27 109 35 24 109 35 24 109 35 24 110 36 25 109 35 26 109 34 28 107 32 27 106 31 26 106 31 26 104 31 24 105 32 25 103 33 25 102 32 24 101 31 23 100 32 21 100 32 23 101 33 24 99 35 25 96 32 22 95 31 21 92 28 18 92 28 18 92 28 18 91 29 18 90 30 19 90 30 19 92 29 22 89 23 24 88 20 21 75 10 8 68 5 0 100 43 26 111 55 38 132 82 55 134 89 60 134 101 66 133 103 67 132 104 65 131 103 66 133 98 66 134 99 67 133 98 66 134 98 66 136 97 64 135 94 66 135 94 66 133 91 66 133 92 64 133 89 64 133 88 65 135 91 66 135 90 67 135 90 67 135 93 69 135 95 70 135 98 71 135 98 71 134 99 71 134 99 71 
120 67 53 121 68 52 120 69 52 118 70 50 119 70 53 119 72 56 118 70 56 118 69 54 117 68 51 122 66 51 121 65 48 123 66 49 123 66 49 121 62 44 124 62 47 125 59 45 123 57 45 122 55 46 122 54 45 119 53 41 118 54 45 116 53 44 114 49 43 112 47 41 112 43 38 111 44 38 111 42 37 110 41 36 113 42 36 111 42 35 112 42 34 109 39 29 109 39 29 108 38 28 107 37 27 107 37 27 106 38 27 106 36 26 108 35 26 108 35 26 109 35 26 109 35 26 107 33 24 107 33 24 107 33 24 106 31 25 104 31 24 104 31 24 105 32 25 105 32 25 107 36 30 105 36 29 104 31 24 104 31 25 103 30 21 101 30 24 99 28 22 99 30 23 96 32 23 89 29 19 86 29 18 83 29 17 84 30 18 81 32 18 80 31 17 80 31 14 79 30 15 77 28 14 79 26 18 78 25 21 67 12 9 61 3 1 96 38 24 107 50 31 131 82 49 133 87 51 134 101 60 134 98 64 131 102 72 134 100 73 135 98 72 134 97 71 135 95 69 133 96 69 134 93 65 134 95 66 135 96 67 135 94 66 133 96 67 134 95 64 134 95 66 132 93 64 134 93 63 133 92 64 134 95 66 135 95 69 134 97 70 135 98 71 135 100 72 136 101 73 
120 67 53 121 68 54 119 70 53 117 70 54 119 72 56 119 72 54 119 72 56 118 69 54 117 68 51 119 66 50 121 65 48 122 65 48 123 64 48 127 61 45 127 61 45 125 57 44 124 56 43 123 55 44 121 53 44 121 52 45 116 51 45 117 52 46 113 48 42 112 47 41 109 44 38 110 43 35 110 43 35 110 42 33 112 44 35 112 42 34 110 42 33 109 39 29 111 38 29 110 37 28 109 36 27 106 36 26 105 35 25 107 34 25 106 36 26 110 33 27 108 34 25 108 33 27 108 33 27 106 32 23 105 30 24 103 30 23 101 31 23 101 31 23 103 33 25 104 34 24 107 36 30 106 35 29 101 32 25 103 32 26 103 32 26 99 30 25 98 27 21 98 29 22 95 31 22 89 29 19 87 29 18 83 31 18 83 31 18 80 32 18 78 32 17 80 31 14 78 30 16 77 28 14 76 28 18 78 25 21 67 12 9 61 3 1 95 36 22 109 48 30 132 82 47 135 87 49 135 100 60 133 99 62 132 101 72 134 100 73 135 97 74 133 96 70 132 95 69 133 93 68 133 93 67 133 96 69 133 96 67 134 97 70 134 97 68 133 97 65 132 96 64 132 93 64 133 94 63 132 91 61 135 94 66 134 94 68 134 97 68 134 99 69 134 99 69 134 99 69 
