P3
100 50
255
120 58 43 120 58 43 123 57 43 122 56 42 122 54 41 120 52 39 119 51 40 118 50 37 119 49 39 117 47 37 115 47 38 109 42 34 107 40 32 100 40 32 98 40 29 94 40 30 99 40 32 100 43 34 100 46 34 104 47 36 107 51 38 109 53 36 111 55 38 114 59 39 118 63 43 120 65 44 123 66 47 122 67 47 123 67 52 123 67 50 124 68 53 121 68 52 120 67 51 120 67 49 120 68 47 121 69 47 122 70 48 122 72 47 122 70 48 123 66 47 122 69 51 128 77 58 123 75 55 112 67 46 111 69 47 109 68 46 103 62 44 101 60 42 98 55 38 97 54 37 99 53 38 99 53 38 101 53 43 104 56 46 109 67 55 110 68 54 111 67 54 112 68 57 113 69 56 115 69 56 111 67 54 112 66 51 112 66 53 110 67 51 109 67 51 110 71 56 112 73 56 114 75 58 113 78 56 109 82 53 111 93 57 111 97 58 115 114 60 117 118 61 117 126 61 118 128 59 117 127 56 118 126 53 116 122 50 115 120 53 118 121 54 115 120 53 118 120 55 116 121 54 115 120 53 110 120 51 108 117 50 111 131 60 112 132 61 110 137 68 110 137 68 106 137 69 108 138 68 107 136 70 106 137 70 107 136 70 106 135 69 109 135 70 106 138 62 106 138 62 
120 58 45 120 58 45 119 56 41 119 56 41 120 52 39 120 50 38 119 49 41 118 48 38 118 47 41 117 49 40 116 48 37 106 42 33 106 42 33 100 42 31 101 41 33 99 41 30 100 43 34 98 44 34 102 48 36 105 49 36 109 53 38 110 54 37 113 56 39 115 58 39 120 63 44 120 65 44 123 66 47 120 68 47 122 69 51 121 68 50 120 67 49 119 66 48 119 66 52 119 66 48 118 65 47 120 68 47 118 67 46 120 70 47 120 68 46 119 63 46 120 68 47 128 75 57 120 72 52 112 67 46 110 65 46 106 65 47 100 62 43 98 60 41 96 54 40 95 53 39 98 54 43 97 55 43 103 55 45 103 56 46 110 66 53 110 68 54 111 67 54 113 69 56 114 68 55 114 68 55 114 68 53 113 67 54 113 67 54 110 67 51 110 67 51 112 70 54 113 71 57 114 75 58 113 78 56 110 80 52 111 91 56 111 96 57 114 111 60 115 116 59 115 124 57 116 125 58 116 123 53 117 123 49 116 119 50 118 121 54 118 119 53 116 118 53 117 119 56 117 119 54 116 119 52 108 118 49 107 116 49 110 130 61 109 131 59 113 139 68 111 136 68 109 138 71 107 138 70 109 138 71 108 137 71 107 136 70 108 134 69 108 134 69 109 137 63 109 137 62 
119 55 43 119 55 43 116 53 38 115 51 39 112 48 36 112 48 36 111 47 38 113 49 40 115 48 40 114 50 40 117 49 36 106 42 32 106 42 32 110 52 41 111 51 41 115 57 46 112 59 45 112 59 43 114 61 43 116 64 43 120 66 42 120 66 38 118 65 34 118 64 36 122 68 42 121 67 41 122 68 44 120 66 42 118 66 45 118 66 45 117 65 44 117 65 44 117 65 43 115 63 42 114 62 40 110 58 36 111 59 37 107 57 32 106 56 33 101 49 35 101 52 37 105 57 43 100 54 38 88 46 30 86 47 30 85 47 34 84 48 36 84 48 34 86 49 41 87 50 42 95 56 51 96 55 51 104 60 57 107 62 57 114 68 55 115 69 56 115 67 55 115 67 55 117 67 56 118 69 54 119 70 56 117 68 54 117 68 54 113 66 48 114 67 51 113 68 49 114 68 52 114 71 52 113 75 52 112 77 55 110 85 55 109 89 56 110 99 54 110 102 53 111 106 50 111 109 50 115 107 44 114 106 43 117 101 42 116 104 44 116 101 46 116 101 46 113 102 46 115 103 45 115 106 41 107 106 39 106 105 40 112 125 55 114 127 57 115 138 68 112 138 67 110 137 68 110 137 68 107 136 69 112 134 69 110 135 70 114 136 72 115 135 72 113 134 59 112 133 56 
120 56 44 120 56 44 114 50 38 116 52 40 113 49 37 114 50 38 116 50 38 115 51 41 114 50 40 116 52 40 116 53 36 109 45 33 109 46 31 112 53 39 113 54 40 115 59 46 114 61 45 114 61 45 114 63 42 115 64 45 117 65 43 116 64 40 117 65 41 116 64 40 119 67 43 119 67 43 117 65 43 115 64 43 115 64 45 113 62 43 114 63 44 112 61 42 110 59 42 110 59 42 107 56 39 105 54 35 103 55 35 102 54 32 100 51 34 98 49 35 100 51 37 104 56 42 96 53 37 90 48 32 87 48 33 86 49 33 82 46 32 82 46 32 86 48 39 87 50 41 96 55 51 99 56 50 105 60 57 106 61 56 111 65 52 113 66 56 114 66 54 116 68 56 117 67 56 117 68 54 116 67 53 115 67 53 115 67 53 114 67 51 113 66 50 113 67 51 112 69 52 114 71 52 112 76 54 112 77 55 109 82 53 109 86 54 110 95 54 110 97 53 114 102 52 114 102 50 115 102 47 114 101 48 115 100 45 116 99 45 115 99 48 115 99 48 116 100 49 117 100 46 118 103 44 111 106 42 110 104 42 113 124 56 112 125 55 113 136 64 111 137 64 107 137 65 107 137 67 110 137 70 111 136 70 110 135 69 111 136 71 111 135 73 113 135 60 112 135 57 
125 59 47 122 56 44 114 48 36 113 49 37 114 52 37 118 57 39 120 59 41 116 57 39 114 55 37 118 60 40 119 63 36 116 60 35 116 60 35 113 59 35 112 60 36 118 66 44 118 66 42 118 67 46 114 66 44 112 65 45 111 66 45 113 66 48 114 67 49 113 66 48 108 65 46 107 64 45 105 59 43 103 60 43 100 57 41 100 56 43 99 55 44 98 54 43 96 52 43 90 47 40 88 43 37 87 42 37 87 42 37 86 42 41 88 43 40 92 45 35 91 47 36 96 52 43 93 50 41 92 52 42 88 50 41 86 47 40 81 42 35 78 39 32 86 45 39 88 47 41 98 53 47 97 54 47 106 57 53 105 58 50 105 61 50 107 63 52 111 64 54 112 65 55 114 67 57 112 65 55 111 64 54 111 64 54 111 63 51 114 68 55 114 70 57 113 69 56 112 71 53 110 68 52 110 73 54 112 76 54 113 77 55 113 77 53 114 80 55 115 81 56 119 88 59 119 88 59 120 90 56 118 90 53 114 89 49 115 90 50 116 91 50 117 94 52 118 95 53 121 96 55 121 96 55 120 102 52 120 104 55 112 118 54 110 121 55 106 137 61 107 138 62 106 137 61 110 138 63 114 137 67 111 134 66 110 132 67 106 137 70 107 137 73 113 137 63 113 135 62 
123 60 43 124 58 44 117 54 37 117 56 37 119 57 42 120 59 40 120 61 43 121 60 41 118 59 41 117 63 39 117 63 37 119 63 38 118 62 39 115 60 39 114 62 40 117 66 45 117 66 45 114 66 46 112 64 44 110 61 44 109 62 44 109 62 46 107 61 45 106 60 44 102 59 43 101 58 42 98 55 39 97 54 38 95 53 39 94 52 38 95 51 40 92 49 40 89 46 39 86 43 37 85 42 36 86 41 38 85 40 35 87 43 40 88 43 40 92 45 35 92 48 37 94 50 39 93 50 41 91 51 41 88 50 41 86 47 40 81 42 35 79 40 33 86 46 38 88 47 41 97 52 46 98 53 47 106 57 52 106 59 51 106 64 52 110 64 51 110 66 53 113 66 56 114 67 57 112 66 53 113 65 55 112 64 52 112 64 52 114 68 55 111 68 52 113 70 54 111 69 53 110 71 54 112 73 56 113 75 56 114 76 57 113 75 54 114 78 54 114 79 57 117 83 56 116 85 56 118 87 56 117 87 53 115 87 50 114 88 51 115 90 50 118 93 52 119 96 55 119 94 53 122 94 54 119 101 53 119 101 53 108 117 54 110 119 54 105 136 60 105 137 61 106 137 61 110 136 63 114 137 67 112 135 67 111 134 66 106 137 70 106 136 72 110 136 63 110 136 62 
124 61 43 123 62 41 122 61 42 120 59 40 119 60 42 120 62 42 119 62 42 121 64 44 120 63 43 118 63 42 118 63 42 119 64 43 120 65 44 116 64 42 117 65 44 117 66 47 116 65 46 115 64 45 111 62 45 108 59 44 106 59 43 105 59 43 103 57 41 102 56 41 94 52 36 92 50 34 92 49 33 93 49 36 92 48 37 90 46 35 90 46 37 87 43 34 86 41 35 81 38 31 80 35 30 83 38 33 83 38 33 87 42 39 89 44 39 92 44 34 93 46 36 94 50 41 93 50 41 91 51 41 89 49 41 87 48 41 82 43 36 80 41 34 87 47 39 87 46 40 97 53 44 97 52 46 104 57 49 105 58 48 108 64 53 110 64 51 112 65 55 111 64 54 112 65 57 114 64 55 113 65 53 112 64 52 113 65 53 113 67 54 110 68 54 113 71 57 112 70 54 111 72 55 112 73 56 113 75 54 113 75 56 113 75 54 113 77 53 114 78 54 117 83 56 117 83 55 115 84 53 116 85 54 115 86 52 115 87 50 117 87 49 116 91 51 119 94 54 120 92 52 121 93 53 116 98 50 116 100 51 108 114 52 107 118 52 106 137 61 106 137 61 106 137 61 108 136 62 113 136 66 110 135 67 109 134 68 107 136 70 106 136 72 110 138 64 110 138 63 
125 65 41 124 66 42 125 67 45 124 66 44 122 64 44 118 64 40 115 60 39 116 61 40 114 62 38 113 61 40 113 60 42 114 61 43 115 62 46 111 59 45 109 60 43 109 60 45 107 58 43 104 56 44 102 54 40 97 51 36 96 50 37 93 49 36 90 46 33 89 45 36 85 41 32 84 41 32 84 42 30 84 41 32 83 40 31 84 41 32 83 40 33 82 39 32 81 38 32 79 36 30 78 35 29 81 37 34 81 36 31 86 42 39 87 42 37 92 44 34 93 46 36 96 49 41 95 51 42 92 52 42 91 51 43 88 49 42 84 45 38 82 43 36 86 46 38 86 45 39 96 52 43 96 51 45 104 57 51 104 60 51 108 64 53 108 64 53 111 63 53 112 64 52 112 65 55 113 66 56 114 66 56 112 64 52 114 66 56 112 66 53 111 67 54 112 68 55 112 70 58 111 72 57 113 71 55 115 72 55 114 73 55 114 73 55 113 75 56 112 74 53 115 79 55 115 79 55 116 82 54 115 80 50 113 82 51 113 82 51 115 85 51 117 88 54 118 89 55 119 89 53 117 92 51 116 95 50 114 96 50 107 111 50 109 115 51 107 135 61 107 135 61 105 137 61 109 137 63 114 137 67 115 136 69 111 136 70 107 138 71 105 137 70 105 137 62 106 137 61 
124 66 42 124 68 43 128 71 51 127 73 49 121 67 43 115 63 39 111 59 37 112 60 38 112 62 39 110 59 40 111 59 45 112 60 46 114 62 48 107 58 44 107 58 44 102 54 40 101 53 41 97 51 38 94 48 35 90 43 33 88 44 33 87 43 34 84 40 31 83 39 30 81 36 30 80 37 30 79 36 29 79 36 29 80 37 30 81 38 32 82 39 33 79 36 30 80 37 31 77 34 28 77 34 28 80 37 31 82 37 32 86 43 37 86 41 36 92 44 32 91 44 34 96 49 41 94 49 43 91 51 39 91 51 43 89 50 43 85 46 39 83 44 37 86 46 38 86 45 39 96 51 45 97 52 46 104 57 49 106 59 51 110 63 53 109 65 54 110 63 53 112 64 54 109 65 54 113 66 56 114 68 55 114 67 57 113 65 55 113 67 54 110 66 55 110 66 53 111 69 55 111 72 57 114 71 55 114 71 55 113 71 55 112 71 53 115 72 55 114 73 55 115 77 56 114 78 54 115 80 52 115 81 53 111 80 49 113 82 51 116 83 52 115 86 52 115 89 54 116 90 53 117 92 52 114 93 50 114 96 50 109 110 50 106 115 52 108 134 61 107 133 60 105 137 61 109 137 62 114 137 67 111 136 68 111 136 70 107 136 70 106 137 70 105 137 62 104 136 60 
122 68 44 123 69 43 126 74 52 124 72 50 119 68 47 114 63 42 110 59 40 108 60 40 108 60 40 102 53 39 101 51 42 102 52 43 100 52 42 96 48 38 95 47 37 91 44 36 91 43 39 85 40 34 84 39 33 81 38 31 81 37 28 80 37 31 78 34 31 77 33 30 78 33 30 79 34 29 78 33 30 78 33 30 79 34 31 79 34 31 82 37 34 83 38 35 82 37 32 82 37 32 82 37 32 83 38 33 85 37 33 86 38 34 84 39 33 93 45 35 91 43 33 95 48 40 92 48 39 91 51 41 91 51 43 90 51 44 86 47 40 84 45 38 86 45 39 85 46 39 93 50 43 96 53 46 104 57 49 103 59 50 105 61 50 108 61 51 107 63 52 111 64 56 112 65 55 113 66 56 113 67 54 113 66 56 114 66 54 112 66 53 111 67 54 110 66 53 109 67 53 110 68 54 112 70 56 112 68 55 115 69 56 112 69 53 113 70 54 115 72 55 115 77 58 115 77 56 114 78 54 114 78 54 113 79 54 112 78 51 111 82 52 113 82 53 115 84 55 116 87 53 115 89 52 114 93 50 114 93 48 107 107 47 109 110 52 110 132 60 109 132 60 106 137 61 109 137 63 113 139 68 112 138 65 112 139 72 107 136 70 106 137 70 103 137 61 103 137 61 
122 68 42 122 68 40 126 74 53 124 71 53 119 68 47 114 63 44 107 59 39 107 58 41 107 58 41 100 50 39 98 49 42 97 48 41 97 49 39 91 44 36 91 44 36 88 41 35 87 40 32 82 37 32 80 35 29 78 33 27 77 34 28 77 33 30 76 32 29 74 33 29 77 32 29 77 32 29 77 32 29 80 32 32 78 33 30 79 34 31 81 37 34 83 38 35 84 39 34 84 39 34 83 38 33 81 36 31 81 36 30 83 38 33 82 39 33 92 44 34 93 45 35 94 47 37 95 48 40 91 51 43 90 50 42 88 49 42 86 47 40 85 46 39 85 45 37 84 45 38 94 51 44 95 52 45 103 56 48 102 58 49 104 60 47 106 62 49 107 63 52 111 65 52 112 65 55 113 66 56 113 67 54 114 67 57 114 66 56 111 64 54 110 66 53 110 66 53 110 68 54 108 69 54 110 68 54 113 67 52 111 68 52 112 68 55 114 71 55 116 73 56 114 76 57 113 76 57 114 78 56 114 78 56 112 78 53 113 79 54 113 79 52 113 82 54 117 84 53 116 87 53 113 87 50 112 91 48 114 93 48 107 105 48 107 108 50 110 132 60 109 132 60 105 135 61 109 137 63 111 137 66 111 136 68 112 137 71 107 136 70 106 137 70 102 136 62 99 136 59 
107 54 38 107 54 38 107 58 44 109 57 44 101 53 43 98 51 41 99 51 41 96 48 38 95 47 37 91 44 38 87 42 37 86 38 34 86 38 34 81 33 29 81 33 29 82 37 32 81 35 35 81 37 34 81 36 33 80 35 32 82 36 36 81 37 36 82 38 37 81 37 36 80 34 34 78 32 34 79 33 33 79 33 33 80 34 34 82 36 36 84 38 38 85 40 37 86 41 38 87 39 35 84 39 36 82 37 32 82 37 31 84 36 32 82 39 32 92 42 31 93 45 35 94 47 39 97 48 41 92 52 42 90 50 42 89 50 43 85 46 39 84 45 38 84 44 36 83 44 37 91 51 41 93 53 45 101 57 48 100 58 46 103 59 48 104 60 49 107 63 54 111 62 55 111 64 54 110 63 53 111 63 53 111 62 55 111 63 53 112 65 55 110 66 53 110 68 54 108 66 54 106 67 52 109 67 53 112 66 53 113 67 54 114 70 57 114 71 55 115 72 56 115 73 57 116 75 57 115 77 56 115 77 56 111 76 54 113 78 56 112 78 53 112 80 55 113 81 56 114 85 55 113 87 52 113 89 51 114 91 49 110 100 47 110 105 50 111 128 60 110 130 61 108 136 62 108 136 62 110 136 65 112 137 69 112 137 72 107 136 70 105 136 69 103 137 63 101 137 63 
103 54 39 104 53 36 105 56 42 103 54 40 99 51 41 99 49 40 98 50 38 96 47 42 95 48 42 89 41 37 86 38 34 84 36 32 84 36 32 79 31 27 79 31 29 80 35 32 81 36 33 83 37 37 82 36 36 79 35 32 81 37 36 82 38 37 83 39 36 83 39 38 80 34 34 79 33 35 80 34 34 80 34 34 81 35 37 82 36 36 85 39 39 86 40 40 87 42 39 86 41 38 85 40 37 83 38 35 83 38 32 82 37 32 84 37 29 92 42 33 92 44 32 94 47 39 95 48 40 93 50 43 91 51 43 88 49 42 85 48 40 85 48 40 85 47 38 84 43 37 91 51 43 93 53 43 100 57 48 100 57 48 102 58 49 104 60 51 109 62 54 110 63 55 112 65 57 110 63 53 112 64 54 111 63 53 111 63 53 113 66 56 113 66 56 110 68 54 108 66 54 107 65 51 108 66 54 114 67 57 113 66 56 114 68 55 114 70 57 116 73 57 115 73 57 116 74 58 114 76 57 114 76 57 112 76 54 113 77 53 112 78 53 113 78 56 115 81 54 114 85 53 112 88 52 113 90 49 113 92 49 110 100 47 109 104 49 111 128 60 111 131 62 106 136 62 108 136 62 110 136 65 111 136 70 114 136 71 107 136 70 106 137 70 103 136 67 101 137 63 
89 39 32 89 39 32 85 38 32 86 37 32 82 34 30 84 36 34 85 37 35 83 35 35 80 32 32 81 35 35 82 36 36 79 34 31 78 32 32 75 29 29 76 30 32 83 37 37 83 37 37 84 38 40 83 37 37 81 35 35 82 38 37 83 37 37 83 40 34 83 37 37 81 35 35 80 34 36 82 37 34 82 36 36 85 37 37 86 38 36 86 38 36 84 36 34 84 36 34 83 35 33 82 34 30 81 34 28 83 36 30 82 37 32 85 38 32 94 41 33 93 43 34 95 46 39 92 48 39 95 50 44 92 49 43 87 46 40 84 45 38 83 46 38 83 45 36 83 44 37 90 50 42 90 50 42 96 52 43 97 54 45 102 58 49 105 61 52 110 63 55 110 63 55 110 63 53 108 61 51 107 59 49 108 60 50 107 59 49 110 63 53 108 64 53 111 67 56 109 67 55 108 66 54 110 66 53 115 69 56 115 69 56 116 70 57 113 69 56 113 72 54 113 71 55 112 71 53 112 73 56 111 72 55 110 73 54 111 75 53 110 78 55 114 79 59 111 79 56 113 84 54 112 85 55 115 89 52 115 90 50 109 95 46 108 96 46 111 121 58 109 126 58 109 137 63 109 137 63 110 135 67 110 135 69 112 137 71 108 137 71 108 137 71 105 136 68 105 136 68 
90 39 35 89 39 32 85 36 32 85 36 32 82 34 30 84 36 34 85 37 37 82 34 34 81 33 33 80 34 34 81 37 36 79 34 31 79 33 33 77 31 31 77 31 31 84 39 36 83 38 35 86 40 40 83 37 37 81 35 35 82 36 36 85 37 37 83 37 37 85 39 39 84 36 34 83 35 33 84 36 34 83 35 33 85 37 35 84 36 34 85 37 35 84 36 34 83 35 33 82 34 32 83 35 31 83 35 31 82 34 30 83 38 33 84 36 32 93 40 32 92 42 33 94 45 38 95 48 40 95 50 44 92 49 42 86 47 40 84 45 38 83 46 38 83 44 37 82 43 36 89 49 41 90 50 42 96 52 43 98 54 45 103 59 50 107 60 52 110 63 55 109 62 52 110 63 53 109 60 53 107 60 50 107 60 50 108 60 50 111 64 54 108 64 53 110 66 55 110 68 56 106 66 54 112 68 55 114 68 55 114 68 55 115 69 56 114 71 55 113 69 56 112 70 54 113 71 55 111 72 55 109 72 54 110 73 54 110 75 53 112 77 55 113 78 58 116 80 58 111 84 55 112 86 53 116 88 51 116 91 51 108 94 45 111 99 49 111 121 58 111 126 59 109 135 62 110 136 63 110 135 67 111 136 68 111 136 70 108 137 73 107 136 72 106 137 69 106 137 69 
92 39 35 89 40 35 85 36 32 86 36 35 82 34 32 83 37 37 90 42 42 85 37 37 82 36 36 79 35 34 81 35 35 81 35 35 81 35 35 80 34 34 80 34 34 83 38 35 83 38 35 83 37 37 81 35 35 78 32 32 79 33 33 80 34 34 80 35 32 79 35 34 83 35 33 83 35 33 83 38 33 85 37 35 82 37 32 82 37 32 81 36 31 81 36 31 81 36 31 80 35 30 79 34 29 82 37 32 81 36 33 85 37 33 85 37 33 90 40 31 91 41 32 94 46 36 95 46 39 97 52 46 90 50 42 86 47 40 84 45 38 83 46 38 83 44 37 82 43 36 90 47 40 88 48 40 92 49 42 95 52 43 101 58 49 105 61 52 106 62 53 106 62 53 110 63 55 109 62 54 108 61 51 109 61 51 109 61 51 109 62 52 111 64 54 109 65 54 110 66 55 106 66 54 109 67 55 114 66 52 113 69 56 112 69 53 112 70 54 112 70 54 111 70 52 110 68 52 107 70 51 107 70 51 109 74 52 109 74 52 109 77 54 109 77 54 111 79 56 109 82 53 106 83 51 116 87 53 117 88 54 109 91 43 110 93 47 109 118 55 110 122 56 109 135 62 110 136 63 109 136 65 110 137 68 112 137 71 110 136 71 107 136 72 105 136 69 105 136 69 
92 41 37 90 39 36 85 36 32 84 36 32 82 34 32 85 37 35 86 40 40 82 36 36 80 34 34 80 34 34 79 34 31 82 37 34 81 35 35 80 34 34 81 35 35 83 38 35 83 38 35 82 36 36 80 35 32 78 33 30 80 35 32 81 35 35 81 35 35 80 36 33 84 36 32 83 35 31 83 38 33 84 36 32 85 37 33 84 36 32 83 35 31 83 35 31 83 35 31 83 35 31 83 35 31 85 37 35 84 36 32 84 36 34 85 37 33 92 39 31 92 39 31 93 44 37 96 47 40 96 53 46 91 50 44 86 48 39 84 45 38 84 47 39 82 45 37 82 43 36 88 48 40 88 48 40 92 49 40 94 51 42 102 57 51 103 60 53 108 61 53 109 62 54 110 63 55 109 62 54 109 62 54 111 63 51 111 62 55 110 63 53 109 62 52 109 65 54 107 65 53 105 65 53 109 65 52 113 67 54 111 67 54 113 70 54 112 69 53 111 69 53 110 71 54 108 69 52 109 71 52 107 70 51 109 73 51 106 74 51 109 77 54 113 78 56 110 78 55 107 81 54 106 83 51 116 88 51 118 89 55 108 90 40 110 94 45 109 118 55 110 121 55 109 132 60 110 136 63 109 136 65 109 136 67 111 136 70 109 135 70 108 137 73 104 135 68 105 136 69 
92 41 38 91 40 36 84 36 32 83 35 31 80 32 28 85 36 32 87 39 37 83 38 35 80 34 34 78 32 32 77 32 29 84 36 34 84 36 34 85 37 35 86 38 36 85 37 35 84 36 34 81 33 31 81 33 29 79 31 27 81 33 29 83 35 31 80 35 30 80 35 30 85 38 32 85 38 32 84 37 31 83 36 30 82 34 30 82 34 30 83 35 31 83 35 31 85 37 33 85 37 33 86 38 34 86 38 34 85 37 35 84 36 34 84 36 32 90 37 29 92 39 33 95 45 38 95 48 40 96 53 46 90 50 42 85 47 38 84 45 38 80 47 38 81 44 36 78 44 34 87 47 39 87 49 38 88 48 38 93 50 41 103 56 48 102 58 49 107 60 52 109 62 54 110 63 55 112 65 55 112 65 57 111 64 54 112 63 56 109 62 52 109 62 52 107 63 52 104 64 52 105 65 53 107 65 49 108 65 49 106 67 50 110 68 52 110 68 52 108 69 52 111 70 52 110 71 54 108 71 52 108 71 52 107 72 50 105 73 52 105 73 50 107 75 52 104 76 52 106 79 52 106 81 50 116 87 53 120 87 52 109 86 42 108 92 43 108 114 54 109 119 56 111 134 64 109 135 64 109 136 65 110 137 68 109 136 67 110 136 73 108 137 73 105 134 70 105 134 70 
84 34 33 85 36 32 81 33 29 81 33 31 83 35 35 80 35 32 83 38 35 81 36 33 78 34 31 79 34 31 79 34 31 82 37 34 82 37 34 81 36 33 81 36 33 82 37 34 80 35 32 80 35 32 79 34 31 79 34 31 83 35 31 84 36 34 83 38 35 82 37 32 84 36 32 84 36 32 83 35 31 83 35 31 82 34 30 83 35 31 84 36 32 84 36 32 85 37 33 86 38 34 86 38 34 86 38 34 86 38 36 83 38 33 83 38 33 88 37 34 88 39 34 92 45 39 93 48 42 97 54 45 91 51 41 88 48 38 81 42 35 78 41 32 78 44 35 81 44 36 84 47 38 85 48 39 90 52 41 92 54 43 98 54 45 101 57 46 103 59 48 108 61 51 108 61 51 110 63 53 111 64 54 110 62 52 111 63 53 110 62 52 108 61 51 106 62 49 107 63 52 107 65 51 106 67 50 109 66 50 110 67 51 110 67 51 110 68 52 111 68 52 111 69 53 110 68 52 107 69 50 109 71 52 108 73 51 108 71 52 108 72 50 109 73 51 107 72 50 108 76 51 109 79 51 113 82 53 117 82 52 110 87 45 108 90 44 108 109 49 109 118 53 110 134 60 107 135 60 104 136 61 106 136 66 109 136 69 110 136 75 110 134 74 108 134 71 108 134 71 
79 31 31 78 32 32 77 31 31 76 31 28 80 34 34 79 35 32 80 35 32 79 35 34 77 33 30 79 35 32 78 37 31 82 37 34 81 37 34 77 33 30 77 33 30 80 35 32 79 34 31 80 35 32 80 35 32 82 34 32 85 37 35 86 38 36 84 39 36 84 39 36 83 35 33 83 35 33 81 33 31 81 33 31 82 35 29 83 35 31 86 38 34 85 37 33 86 38 34 86 38 34 87 39 35 86 38 34 86 38 34 88 41 35 87 39 35 87 38 41 86 40 42 90 45 39 93 49 40 97 55 43 94 52 38 91 47 36 78 40 31 75 37 26 78 44 35 81 44 36 79 46 37 80 48 37 90 58 45 92 56 44 94 52 40 98 56 44 103 59 48 104 60 49 106 62 51 108 60 50 107 59 47 108 60 48 109 59 48 107 59 47 108 60 48 107 61 48 109 63 50 108 64 51 108 65 49 109 65 52 110 67 51 110 66 53 111 68 52 110 67 51 109 67 51 109 67 51 110 69 49 111 70 52 109 73 51 111 68 52 111 70 50 111 70 50 110 69 47 110 72 49 112 75 49 113 78 48 113 78 50 109 86 45 109 88 41 107 107 47 107 113 49 110 134 58 105 133 56 102 136 59 105 137 64 110 136 71 112 133 74 111 132 75 109 135 72 109 135 72 
80 32 30 80 32 32 78 30 30 77 31 31 78 32 32 77 33 32 76 32 31 74 33 31 73 32 30 78 34 31 79 34 31 81 37 34 82 37 34 80 35 32 78 34 31 82 37 34 81 36 33 81 36 33 81 36 33 80 35 32 82 37 34 83 38 35 84 36 34 83 35 33 84 36 34 84 36 34 83 35 33 83 35 33 83 35 31 84 36 32 86 38 34 86 38 34 86 38 34 85 37 33 84 36 32 84 36 32 84 36 32 85 37 33 84 36 32 81 32 35 84 36 36 89 42 36 91 47 38 99 55 44 96 54 42 95 53 41 82 44 35 80 42 33 82 45 39 82 45 39 79 45 36 81 47 38 87 53 43 88 54 42 96 52 41 98 55 46 103 59 48 107 60 50 108 61 51 108 60 48 108 60 50 108 60 48 107 59 47 107 60 50 107 61 48 107 61 48 108 62 49 108 64 51 110 67 51 110 66 53 110 67 51 110 66 53 111 68 52 110 67 51 111 68 52 110 69 51 107 68 51 110 69 51 110 69 51 112 71 53 113 72 52 113 72 54 113 72 52 111 75 51 110 74 50 114 79 51 112 78 50 111 85 48 111 88 47 107 106 49 108 113 49 109 133 57 107 135 58 99 136 58 103 137 63 107 136 70 110 134 76 110 133 77 113 135 73 109 135 74 
80 32 32 78 32 32 77 31 31 77 32 29 76 32 31 76 32 31 76 32 31 75 31 30 71 30 28 77 33 30 79 35 32 82 38 35 80 36 33 79 35 32 79 35 32 82 37 34 82 37 34 82 37 34 81 36 33 82 34 32 80 35 32 84 36 34 83 35 33 83 35 33 84 36 34 84 36 34 83 35 33 84 36 34 84 36 32 85 37 33 85 37 33 86 38 34 86 38 34 84 36 32 84 36 32 83 35 31 82 34 30 84 37 31 81 33 29 78 29 32 81 33 33 87 39 35 92 45 37 99 55 44 99 55 44 97 55 43 86 46 38 81 43 34 83 45 42 84 45 40 80 43 35 81 47 37 85 51 41 88 52 40 96 54 40 99 57 45 103 59 48 107 60 50 108 61 51 108 60 48 108 60 50 108 60 46 107 59 49 107 60 50 107 59 47 107 61 48 107 61 48 110 64 51 109 66 50 110 66 53 110 66 53 111 67 54 111 68 52 110 67 51 110 67 51 110 68 52 111 70 52 112 69 52 108 70 51 111 70 52 114 73 55 112 74 55 115 74 56 111 75 53 108 76 51 112 78 51 113 79 51 111 86 46 111 90 47 107 106 49 107 113 49 110 134 58 107 135 58 99 136 58 104 138 64 105 136 69 110 134 74 110 134 76 110 134 74 108 134 73 
80 36 33 79 35 34 78 37 35 77 36 34 77 33 32 78 34 31 75 34 32 75 34 32 74 33 29 77 33 30 80 35 32 80 36 33 80 36 33 80 36 33 80 36 33 83 38 35 83 38 35 82 37 34 82 37 34 83 35 33 84 36 34 85 37 35 83 35 33 82 34 32 84 36 34 84 36 34 83 35 33 83 35 33 83 35 31 84 36 32 85 37 33 85 37 33 86 38 34 85 37 33 85 37 33 84 36 32 84 36 32 82 37 31 84 36 32 80 31 34 81 33 33 87 38 34 90 43 35 99 52 42 97 53 42 97 55 43 86 46 38 83 43 35 85 46 39 85 46 41 83 46 38 84 47 39 87 51 39 90 52 41 95 53 41 99 57 45 103 59 48 107 60 50 107 60 50 108 60 50 107 59 45 106 57 50 107 59 49 106 60 47 105 59 46 106 60 47 107 61 48 107 63 50 108 64 51 109 65 52 109 65 52 109 65 52 110 66 53 110 66 53 112 69 53 111 70 52 108 66 50 110 68 52 109 68 50 109 68 50 111 70 50 113 72 54 115 74 54 112 74 53 107 75 50 112 78 51 110 79 51 111 85 48 112 89 48 110 105 47 108 112 51 110 134 58 105 132 55 100 137 59 104 138 64 103 136 67 110 136 75 110 135 77 109 133 73 109 135 74 
80 36 35 79 35 34 78 37 35 79 38 36 77 36 34 75 35 33 76 35 31 76 35 33 76 35 31 77 36 32 79 36 30 81 36 33 81 36 33 80 35 32 79 35 32 82 37 34 83 38 35 82 37 34 82 37 34 81 36 33 85 37 35 85 37 35 83 35 33 82 34 32 84 36 34 84 36 34 82 34 32 81 33 31 82 34 30 83 35 31 85 37 33 84 36 32 85 37 33 85 37 33 84 36 32 83 35 31 84 36 32 84 37 31 84 36 32 81 32 35 82 34 34 84 36 32 90 43 35 96 52 41 97 53 42 97 55 43 86 46 38 85 42 35 85 44 40 86 45 41 85 46 39 86 45 39 89 51 40 90 52 41 96 54 42 98 56 44 104 60 49 106 59 49 106 59 49 106 59 49 107 59 47 107 59 49 107 58 51 105 59 46 107 59 47 105 59 46 105 61 48 108 62 49 108 64 51 108 64 51 108 64 53 108 64 51 110 66 53 110 66 53 112 69 53 111 69 55 109 67 51 109 67 51 108 67 49 108 67 49 110 69 51 115 72 53 112 74 55 110 75 53 107 75 50 110 79 51 109 78 49 111 85 48 112 89 48 110 105 49 109 110 50 110 132 57 106 134 57 100 137 57 103 137 63 103 137 63 106 134 73 109 135 74 109 135 74 109 135 74 
78 37 35 77 36 34 78 37 35 79 38 36 78 37 35 76 36 34 77 36 32 75 37 34 76 37 32 80 36 33 81 36 33 80 36 33 81 36 33 80 35 32 79 35 32 81 36 33 81 36 33 81 36 33 81 36 33 82 37 34 84 36 34 84 36 34 84 36 34 84 36 34 84 36 34 84 36 34 83 35 33 83 35 33 81 33 29 83 35 31 83 35 31 84 36 32 84 36 32 86 38 34 85 37 33 85 37 33 85 36 32 84 39 33 86 38 34 84 34 37 85 35 36 83 35 31 85 42 33 94 50 39 96 52 39 98 54 43 89 46 39 87 44 38 87 46 42 88 47 43 87 46 40 87 46 40 86 48 37 87 49 38 97 55 43 101 59 47 104 60 49 108 61 51 109 62 52 109 62 52 108 61 51 110 62 52 110 62 52 108 61 51 108 62 49 107 61 48 108 62 49 107 63 50 106 62 49 107 63 50 107 63 50 107 64 48 108 64 51 109 65 52 111 68 52 111 69 53 110 69 51 110 67 51 104 66 47 106 65 47 106 65 47 107 69 50 110 69 51 108 73 51 107 75 50 108 77 49 110 79 51 109 83 48 110 86 48 105 98 44 105 106 48 111 128 57 108 132 58 103 135 59 103 137 61 103 136 65 107 136 72 109 137 76 109 135 74 110 135 77 
77 36 34 77 36 34 78 38 36 77 37 35 76 38 35 77 37 35 76 36 34 76 35 33 74 34 32 78 37 33 82 38 35 80 36 33 80 36 33 78 34 31 79 35 32 80 35 32 80 35 32 81 36 33 81 36 33 85 37 35 86 38 36 85 37 35 85 37 35 85 37 35 85 37 35 85 37 35 84 36 34 83 35 33 82 34 30 83 35 31 83 35 31 84 36 32 84 36 32 85 37 33 85 37 33 85 37 33 85 37 33 84 39 33 84 39 34 87 37 40 86 36 37 85 36 32 87 40 32 94 47 37 96 52 41 99 55 44 90 47 40 87 44 37 88 47 43 88 47 43 87 48 41 87 46 40 86 48 37 87 47 37 96 53 44 99 56 47 102 60 48 107 61 48 106 62 51 109 62 52 108 61 51 110 62 52 109 62 52 109 63 50 109 61 51 106 62 49 106 62 51 107 63 50 107 63 50 108 64 51 106 62 49 106 62 49 108 64 51 109 65 52 112 69 53 111 69 53 110 67 51 110 67 51 104 66 47 105 64 46 105 64 44 106 65 47 109 68 48 107 72 50 107 77 51 107 76 47 108 77 49 108 82 47 109 85 51 105 95 44 105 104 47 107 127 55 107 131 57 103 135 59 102 136 60 102 136 62 107 136 72 109 138 74 110 134 74 109 134 76 
72 32 30 73 33 31 73 33 31 74 34 32 75 35 33 74 34 32 74 34 32 73 33 31 71 31 29 78 37 33 82 38 37 80 36 33 80 36 33 79 35 32 79 35 32 79 34 31 80 35 32 81 36 33 81 36 33 84 36 34 81 36 33 84 36 34 85 37 35 85 37 35 85 37 35 85 37 35 85 37 35 83 35 33 84 36 32 84 36 32 83 35 31 82 34 30 83 35 31 84 36 32 85 37 33 85 37 33 85 37 33 81 38 31 82 37 32 88 39 42 87 37 38 85 36 32 88 41 33 94 47 37 97 50 40 98 54 43 90 47 40 87 44 37 89 46 40 89 45 42 87 46 40 87 46 42 87 49 38 88 48 40 92 52 42 97 54 45 101 58 49 107 60 50 105 61 50 110 62 52 109 62 52 108 61 51 108 60 50 106 59 49 107 60 50 106 59 49 103 59 46 103 59 48 106 62 51 107 63 52 107 63 50 106 62 51 106 62 49 106 62 49 109 65 52 109 67 53 111 68 52 109 67 51 106 65 47 105 63 47 103 65 46 105 64 44 104 65 48 104 72 49 102 76 49 107 73 46 104 73 45 109 78 47 107 78 44 102 88 41 103 96 42 106 118 52 105 125 54 104 135 59 104 136 61 103 137 63 106 137 70 107 136 72 106 136 74 109 134 76 
72 32 30 71 31 29 73 33 31 74 34 32 74 34 32 74 34 32 75 34 32 73 33 31 71 31 29 78 37 35 81 37 34 80 36 33 81 36 33 81 36 33 80 36 33 80 35 32 81 36 33 81 36 33 82 37 34 82 37 34 82 37 34 82 37 34 83 35 33 84 36 34 85 37 35 85 37 35 85 37 35 84 36 34 84 36 32 84 36 32 83 35 31 84 36 32 85 37 33 86 38 34 85 37 33 86 38 34 86 38 34 81 36 31 82 37 32 84 38 40 86 38 38 85 38 32 88 41 33 92 48 37 94 52 38 99 55 44 90 45 39 87 44 38 84 45 40 85 44 40 87 46 40 87 46 40 87 49 38 88 48 40 90 50 40 98 55 46 101 58 49 104 60 49 106 62 49 108 61 51 107 60 50 107 60 52 107 60 50 107 60 50 107 60 50 104 60 49 105 61 50 104 62 50 106 62 51 108 64 53 107 63 50 106 62 51 106 62 49 106 62 49 109 65 52 108 66 52 111 68 51 110 68 52 105 66 49 106 64 50 106 64 48 107 65 49 107 66 48 105 73 48 103 76 49 104 73 45 106 72 47 111 78 47 110 80 46 100 86 39 102 95 41 105 117 51 104 124 53 103 133 61 104 134 60 103 137 63 106 135 69 106 136 72 108 134 73 109 134 76 
71 31 31 69 31 30 73 33 33 73 33 31 76 36 34 76 34 35 75 35 35 75 33 34 73 31 32 80 36 35 81 37 34 79 35 32 81 36 33 82 37 34 82 37 34 80 36 33 81 36 33 81 37 34 83 38 35 83 38 35 81 36 33 80 35 32 80 32 30 80 32 30 84 36 34 80 35 32 84 36 34 83 35 33 86 38 34 84 36 34 84 36 32 85 37 33 85 37 33 85 37 33 86 38 34 85 37 33 84 36 34 84 36 32 83 35 31 83 37 39 83 37 37 83 38 32 87 42 36 90 48 36 94 52 40 97 55 43 89 46 39 83 43 35 84 40 37 85 41 40 85 44 38 87 46 40 90 50 40 89 49 39 89 46 37 93 50 43 98 55 46 102 59 50 105 61 52 105 61 50 107 61 48 107 60 50 107 60 50 106 59 49 106 59 49 103 61 49 104 62 50 103 61 49 107 63 52 109 65 54 107 63 52 106 62 51 105 61 48 105 61 48 107 64 48 107 63 50 108 66 50 108 66 50 107 65 49 107 65 49 106 67 50 107 69 50 108 70 51 106 74 51 103 76 49 104 69 47 105 69 45 110 75 47 111 76 46 98 80 34 100 86 39 101 108 41 105 118 49 105 133 58 103 133 59 103 137 61 106 135 68 106 135 69 106 135 71 106 135 71 
71 31 31 72 32 30 74 32 33 75 33 34 76 34 35 76 34 35 76 34 35 76 34 35 74 32 33 80 36 35 80 36 33 80 35 32 79 35 32 81 37 34 81 37 34 82 37 34 82 37 34 83 38 35 85 37 35 85 37 35 80 36 33 79 34 31 80 32 30 81 33 31 81 36 33 83 35 33 84 36 34 84 36 34 84 36 32 83 35 33 83 35 31 84 36 32 85 37 33 85 37 33 86 38 34 86 39 33 85 38 32 85 38 32 84 36 32 79 35 36 80 36 35 81 36 30 83 40 33 89 47 35 93 51 39 98 56 42 91 48 41 85 44 38 84 43 39 83 42 38 85 44 38 85 46 39 87 49 38 87 47 39 87 47 37 94 51 42 99 56 47 102 59 50 105 61 52 107 61 48 108 61 51 108 61 51 108 61 51 107 60 50 107 60 50 103 61 49 103 61 49 104 62 50 106 62 49 109 65 54 107 65 53 106 62 51 106 62 51 105 61 48 107 64 48 107 65 51 108 66 50 108 66 50 105 66 49 107 65 49 106 67 50 109 68 50 110 69 51 107 73 48 102 75 48 105 71 46 105 69 45 114 77 50 113 76 47 101 80 35 102 85 39 103 105 42 102 115 46 104 130 57 104 132 58 104 134 62 106 135 68 106 135 69 106 135 71 106 134 73 
74 33 31 75 34 32 77 36 34 79 35 34 78 37 35 77 35 36 76 35 33 78 34 35 78 34 33 79 35 36 79 35 32 78 33 30 76 32 29 82 37 34 82 38 35 82 37 34 83 38 35 83 38 35 83 39 36 84 39 36 83 35 33 81 33 31 77 32 29 80 32 30 81 33 31 83 33 32 83 35 33 83 35 33 84 36 34 82 34 32 82 34 32 83 35 31 84 35 31 84 37 31 86 38 34 85 38 32 85 37 33 85 37 33 81 36 31 73 32 30 73 32 30 75 34 28 78 38 30 84 44 32 90 50 38 96 56 44 90 50 42 89 48 42 87 46 42 86 45 41 82 43 36 82 43 36 84 46 35 84 46 35 89 49 39 94 54 42 99 56 49 105 62 53 107 63 54 109 62 54 110 63 53 110 63 53 108 64 53 106 62 51 108 61 51 105 63 51 106 64 52 109 67 55 109 67 55 105 65 53 107 63 52 107 63 52 106 62 51 106 62 49 105 63 49 106 62 49 107 65 51 105 63 47 104 65 48 107 65 49 106 67 50 109 67 51 110 68 52 105 70 48 103 73 47 105 69 45 107 69 48 120 78 54 118 78 52 102 77 36 101 83 37 99 99 39 102 108 44 105 127 55 104 130 57 104 134 62 106 136 66 107 136 69 106 135 69 106 135 69 
75 34 32 76 35 33 77 36 34 76 35 33 78 34 35 77 33 34 76 32 33 76 32 33 76 31 34 79 33 33 78 34 31 76 33 27 77 32 29 81 36 33 80 36 33 82 37 34 82 37 34 83 38 35 83 38 35 87 39 37 83 35 33 80 35 32 79 34 31 80 35 32 83 38 35 84 39 36 84 36 34 84 36 34 82 34 30 81 33 29 80 32 28 81 33 29 80 32 28 82 34 30 84 36 32 85 37 33 85 37 33 84 36 32 81 36 31 73 32 30 74 33 29 74 34 26 75 37 26 79 40 25 86 47 32 92 52 40 89 51 42 90 49 43 86 47 42 88 47 43 83 44 39 83 44 39 84 46 35 84 46 35 86 46 36 91 51 41 98 55 46 102 59 50 106 62 53 108 61 53 109 62 54 108 61 51 106 62 51 108 61 51 107 60 50 104 62 50 105 63 51 109 65 54 106 64 52 106 62 51 106 64 52 107 63 52 107 63 52 107 63 52 109 63 50 106 64 52 106 62 49 105 63 47 105 63 49 105 63 47 106 65 47 108 67 49 106 67 50 105 70 48 102 72 48 105 67 46 105 67 46 121 79 55 121 80 52 104 76 37 103 82 37 98 96 37 100 106 42 104 126 53 104 130 56 104 134 60 106 136 64 108 135 68 108 139 71 105 136 69 
75 34 32 77 33 32 77 36 34 77 36 34 76 31 34 74 30 31 73 29 28 73 27 27 74 28 28 77 32 29 77 33 30 75 31 28 75 31 28 79 35 32 79 35 32 80 35 32 83 35 33 83 38 35 84 39 36 86 41 38 85 37 35 81 36 33 81 36 33 81 36 33 84 39 36 87 39 37 86 38 36 85 37 35 82 34 30 81 33 31 78 30 26 78 30 26 77 29 25 80 32 28 82 34 30 83 35 31 84 36 32 84 37 31 83 35 31 76 32 31 72 32 30 73 33 25 74 34 24 75 35 23 82 42 30 89 51 40 88 52 40 88 50 41 86 49 43 87 48 43 83 44 37 84 45 38 85 47 36 84 46 35 83 43 33 88 50 39 95 52 43 100 57 48 104 60 49 104 57 49 107 60 50 106 59 49 103 59 48 105 58 48 105 58 48 102 58 49 104 60 51 105 62 53 107 63 52 105 61 50 105 61 50 107 63 50 108 64 53 109 65 54 107 64 48 107 65 53 105 61 48 103 61 47 103 61 45 103 61 45 104 62 46 105 63 47 104 66 47 104 70 45 101 71 45 107 69 46 106 68 47 128 82 59 123 81 56 106 77 37 104 81 39 96 94 35 98 104 42 104 124 52 105 129 55 106 134 60 106 135 68 108 135 68 106 135 69 106 135 68 
77 36 34 78 37 35 76 35 33 76 35 33 75 34 32 76 32 29 78 34 33 77 33 30 78 34 33 81 36 33 84 36 34 82 34 32 83 35 33 86 36 35 86 36 35 84 34 33 86 35 34 83 35 33 83 35 33 85 37 35 81 36 33 81 36 33 79 35 32 81 36 33 81 40 36 82 38 35 81 37 34 82 38 37 80 36 33 80 36 35 81 37 34 81 37 34 80 36 33 80 36 33 82 37 34 82 37 34 82 38 35 81 36 33 80 36 33 75 34 32 76 32 31 75 30 27 79 34 29 88 41 33 93 46 38 95 51 40 90 50 38 88 48 38 84 47 38 84 47 38 83 46 38 83 46 38 85 46 39 85 47 38 83 45 36 87 47 39 91 51 43 98 55 48 100 58 46 102 58 49 102 58 47 104 57 47 104 57 47 105 58 48 106 59 49 104 60 51 104 60 51 105 61 52 106 59 51 103 59 48 104 60 49 104 60 47 104 60 49 104 60 49 104 62 48 105 61 50 106 62 49 106 64 50 107 65 51 107 65 49 106 64 50 106 64 48 104 62 46 103 65 46 103 65 46 107 66 46 105 67 46 115 77 54 113 77 51 106 80 45 103 81 44 97 89 42 99 100 43 102 117 50 104 125 56 106 133 62 103 135 60 101 135 59 109 135 72 109 135 74 
78 37 35 79 38 36 76 35 33 77 36 34 77 33 32 77 33 32 76 35 33 77 36 34 78 37 35 84 39 36 86 38 36 86 36 37 86 36 35 89 38 37 90 36 36 87 33 33 87 33 33 84 33 32 83 33 32 82 34 32 81 36 33 80 35 32 80 36 33 78 37 33 81 40 36 79 40 35 77 36 34 76 38 35 78 37 33 79 38 36 81 40 36 83 39 38 81 40 38 83 39 38 82 38 37 82 38 37 79 38 36 80 36 37 81 37 36 74 33 31 76 32 29 77 29 27 83 35 31 94 43 39 97 48 44 98 51 41 89 50 35 86 48 35 81 47 35 80 46 34 81 47 37 81 47 38 85 46 41 84 47 41 83 44 37 88 47 41 90 50 42 97 54 47 99 56 47 101 57 46 101 57 46 104 57 47 104 57 47 105 58 48 107 59 49 106 59 51 103 59 50 104 59 53 104 60 51 103 59 46 103 59 46 103 60 44 102 58 45 105 59 46 103 59 46 103 60 44 106 62 49 107 63 50 110 67 51 109 66 50 108 65 49 108 65 49 106 63 47 103 62 44 103 60 44 106 65 47 107 66 48 111 75 51 109 78 50 106 80 47 104 82 45 98 87 42 99 96 45 103 113 53 104 123 57 108 134 63 101 135 61 99 136 58 109 134 76 109 134 77 
77 36 32 76 35 33 75 34 32 75 34 32 74 33 31 75 34 32 77 36 34 79 35 34 79 35 34 81 36 33 80 35 32 82 34 34 81 33 31 86 35 34 86 35 34 84 33 32 85 34 33 84 33 32 85 35 34 84 36 34 81 36 33 78 34 31 80 36 33 78 37 33 80 39 35 79 38 36 76 35 33 76 34 35 75 34 32 75 34 32 79 35 34 79 35 34 78 34 33 79 35 32 80 34 34 79 35 32 79 35 36 78 34 33 77 33 32 75 34 32 75 34 32 77 32 29 84 35 31 93 44 39 97 48 41 100 52 42 92 50 38 90 50 38 85 49 37 84 48 36 82 45 36 79 45 36 84 45 40 83 46 38 83 44 37 87 46 40 89 49 41 97 53 44 99 56 47 101 57 46 101 57 46 105 58 48 105 57 47 106 58 48 105 58 50 106 57 50 104 60 51 103 58 52 104 60 51 105 61 48 106 62 49 106 62 49 107 63 50 107 63 50 106 62 49 105 62 46 106 62 49 104 62 48 109 63 48 107 64 48 109 63 50 107 64 48 106 63 47 107 64 48 104 65 48 105 67 48 105 66 49 107 71 47 106 70 44 100 73 43 100 76 42 94 86 40 95 91 43 102 112 51 104 121 53 106 132 59 102 134 58 98 135 55 109 135 72 111 135 75 
76 35 33 76 35 33 75 34 32 74 33 31 76 32 31 77 33 32 78 34 33 76 35 33 80 36 33 80 35 32 80 35 32 82 34 32 81 33 31 85 35 34 86 35 34 83 33 32 83 33 32 82 32 31 83 35 33 84 36 34 80 36 33 79 35 32 81 37 34 79 38 34 79 38 36 79 38 36 74 33 31 74 33 31 74 33 31 75 34 32 76 35 33 76 35 33 77 33 32 78 32 32 78 34 33 78 34 33 78 34 33 77 33 32 77 33 32 76 35 33 77 33 32 79 31 29 85 36 32 95 42 38 96 47 40 100 53 43 94 52 40 91 51 39 85 49 37 84 48 36 81 44 36 81 44 36 83 44 39 83 44 39 82 43 36 87 47 39 91 51 43 94 54 44 99 56 47 103 56 48 102 58 47 104 57 47 104 57 47 105 58 48 105 58 48 105 58 50 104 60 51 104 60 51 104 60 49 105 61 48 106 62 49 107 63 50 108 64 51 108 64 51 106 63 47 106 62 49 107 61 46 107 61 46 107 61 48 106 63 47 108 62 49 106 62 49 108 62 47 107 66 48 105 66 49 106 68 49 107 65 49 105 69 45 105 69 45 101 72 42 99 76 42 96 85 40 97 94 41 100 110 49 102 121 55 105 133 58 101 136 56 99 136 58 111 135 73 110 134 72 
75 34 32 75 34 32 77 33 32 77 33 32 77 33 32 78 34 33 79 35 34 80 36 33 81 37 34 81 36 33 80 36 33 79 33 33 79 33 33 81 35 35 83 35 35 83 35 35 82 34 34 83 35 35 82 36 36 80 36 35 77 36 34 75 34 32 76 35 31 76 37 32 77 36 30 77 36 32 74 33 29 74 33 31 75 34 32 76 35 33 81 37 36 80 36 35 79 35 34 79 35 34 80 34 34 78 34 33 77 33 32 76 30 30 75 31 30 76 35 33 79 35 34 81 33 31 84 36 32 92 41 37 93 44 37 96 49 39 94 52 40 92 52 40 84 50 38 83 49 37 81 44 36 80 43 35 82 41 37 83 42 38 86 45 39 88 48 38 91 51 43 97 54 45 99 55 46 103 56 46 104 57 47 104 57 47 103 56 46 103 56 46 103 56 46 102 55 47 103 56 48 100 56 45 101 57 46 101 57 44 105 61 48 104 60 47 107 63 50 107 63 50 106 63 47 106 62 49 105 62 46 106 63 46 108 62 47 106 65 47 106 63 47 109 63 48 109 63 48 107 65 49 105 68 50 104 65 48 106 64 48 104 66 43 103 65 42 103 70 39 101 72 38 95 81 36 98 90 41 100 104 45 103 115 51 105 129 55 101 133 57 103 135 59 105 137 64 106 136 64 
75 34 32 74 34 32 77 33 32 77 33 32 77 33 32 78 34 33 79 35 34 79 35 32 80 36 33 81 37 34 81 37 36 80 34 34 81 36 33 82 37 34 81 36 33 81 36 33 81 36 33 80 35 32 80 36 33 81 37 34 76 35 33 75 34 32 76 35 33 76 35 31 77 36 32 77 36 32 76 32 31 74 33 31 77 33 32 79 35 34 79 38 36 82 36 36 81 37 36 81 37 36 80 36 35 79 33 33 79 35 34 76 31 28 76 31 28 78 37 35 79 35 34 83 35 33 86 37 33 91 40 36 94 45 38 96 48 38 94 52 40 93 53 41 86 50 38 86 50 38 81 44 36 80 43 35 84 43 39 84 43 39 85 44 38 88 48 40 91 51 43 96 53 44 99 55 46 102 58 47 104 57 47 104 58 45 104 56 44 103 56 46 103 56 46 101 57 46 103 56 48 101 56 50 101 57 46 102 58 45 102 58 45 105 61 48 106 62 49 107 63 50 106 63 47 104 60 47 104 60 47 105 62 46 105 62 46 107 61 46 108 62 47 105 62 45 106 63 47 104 65 50 103 66 48 104 66 47 104 66 47 103 65 44 104 66 43 103 69 41 101 72 40 96 79 36 96 88 41 99 103 44 103 115 51 104 127 55 102 134 58 102 134 58 103 135 62 102 134 61 
76 35 33 75 34 32 76 35 33 78 34 33 79 35 36 78 34 33 79 34 31 80 35 32 80 35 32 81 37 36 81 40 38 80 36 35 80 36 35 81 37 36 78 37 35 80 36 35 78 37 35 77 36 34 78 37 35 78 37 35 79 35 34 75 34 32 76 36 34 76 35 33 79 35 34 79 35 34 76 30 30 75 34 32 78 34 33 81 35 35 83 39 38 83 39 38 83 39 38 84 38 38 82 36 36 82 36 36 81 36 33 80 32 30 79 34 31 81 40 38 81 40 38 86 38 36 88 40 36 91 42 37 94 45 38 97 49 39 98 54 43 97 55 43 91 53 42 90 52 41 84 45 38 84 45 38 88 47 43 87 46 42 86 46 38 87 47 39 90 50 42 95 52 43 98 54 43 102 55 45 103 56 46 104 58 45 104 58 45 102 55 45 102 55 45 102 55 45 100 56 47 99 54 48 100 56 45 103 59 46 104 60 47 104 60 47 105 61 48 104 60 47 103 60 44 103 59 46 104 60 47 104 61 45 107 61 46 106 60 47 106 60 47 104 58 43 103 60 44 100 61 44 100 61 44 102 64 45 103 61 45 108 67 45 108 67 47 108 73 45 107 74 43 100 78 39 99 84 41 98 95 42 101 107 47 104 121 53 105 128 56 105 133 56 102 134 58 101 135 59 
76 35 33 75 34 32 76 35 33 78 34 33 79 33 33 79 33 33 79 34 31 79 34 31 80 34 34 80 39 37 81 40 38 78 37 35 77 36 34 80 36 35 78 37 35 80 36 35 78 37 35 78 37 35 79 38 36 78 37 35 76 35 33 75 34 32 76 35 33 77 36 34 79 35 34 78 34 33 75 34 32 75 34 32 80 35 32 79 35 32 82 38 35 83 38 35 83 38 35 83 38 35 82 37 34 84 36 34 82 37 34 79 34 31 80 35 32 78 38 36 79 38 36 83 38 35 87 39 35 88 41 35 92 43 36 95 47 37 96 52 41 96 54 42 90 52 41 91 51 41 84 43 37 85 44 38 88 44 41 85 44 40 84 45 38 86 46 38 89 49 41 95 52 43 97 53 42 102 55 45 101 57 46 105 59 46 105 57 45 104 57 49 103 56 46 103 56 46 103 56 46 101 57 48 102 58 47 103 59 46 104 60 47 104 60 47 104 60 47 106 60 47 105 59 44 105 59 46 104 61 45 106 60 44 105 62 45 106 60 47 105 59 46 105 59 44 103 57 42 101 59 43 99 62 46 101 62 45 103 61 45 108 67 49 109 68 48 108 71 45 107 73 45 101 77 41 102 83 40 99 93 41 100 104 45 104 114 51 104 127 57 105 128 56 102 132 58 103 134 58 
76 35 33 75 35 33 77 36 34 80 36 35 79 35 34 79 33 33 78 32 32 80 32 32 78 32 32 81 37 36 80 39 37 76 35 33 76 35 33 77 36 34 76 36 34 76 36 34 76 36 34 76 36 34 78 37 35 78 37 35 77 36 34 76 35 33 78 37 35 78 37 35 81 37 34 82 37 34 77 33 30 78 32 32 76 32 29 78 33 30 79 34 31 79 34 31 80 35 32 80 35 32 83 35 33 83 35 33 82 37 34 84 36 34 81 36 33 73 33 31 74 33 31 79 34 31 79 34 29 83 34 29 87 38 31 90 42 32 92 48 37 94 52 40 87 49 38 87 49 38 80 41 34 81 44 36 84 39 36 83 39 36 81 41 31 86 43 36 89 46 37 93 49 40 95 51 40 101 55 42 103 55 45 104 58 45 105 57 45 105 57 47 105 57 47 104 57 47 104 57 47 101 57 48 102 58 47 102 58 45 103 59 46 103 59 46 105 59 46 105 59 46 105 59 44 105 59 46 106 60 47 105 59 44 107 61 45 106 60 45 105 59 44 103 60 44 102 59 43 100 58 42 97 60 42 99 62 44 103 62 44 108 70 51 111 68 49 112 72 47 109 72 45 103 74 40 101 77 39 98 83 40 98 95 42 102 103 46 104 114 53 106 116 53 105 128 58 106 128 56 
75 35 33 75 35 33 78 37 35 78 34 33 79 33 33 79 33 33 77 31 31 81 33 33 80 34 34 80 36 35 79 38 36 76 35 33 75 34 32 77 37 35 77 36 34 77 36 34 77 36 34 77 36 34 77 36 34 78 37 35 76 35 33 75 34 32 76 34 35 81 35 35 81 37 34 81 38 32 77 33 30 77 33 30 78 33 30 80 35 32 81 36 33 80 35 32 83 33 32 79 35 32 82 34 32 83 35 33 84 36 34 82 34 32 81 36 33 73 33 31 75 34 32 79 34 31 82 34 30 84 35 30 88 39 32 91 44 34 95 51 40 94 52 40 87 51 39 87 49 38 83 42 36 82 41 35 84 38 38 85 42 36 83 43 35 84 44 36 87 47 39 92 50 38 95 51 40 99 52 42 102 54 42 104 56 44 104 56 44 105 57 45 104 58 45 104 57 47 102 55 47 101 57 48 104 57 47 104 58 45 104 58 45 105 59 46 106 60 47 106 60 47 105 59 44 106 60 47 106 60 47 106 60 47 106 60 45 107 61 46 107 61 46 104 61 45 106 60 45 99 60 43 99 60 43 102 63 46 102 64 45 110 67 51 110 67 48 110 69 47 107 70 44 103 72 41 101 75 40 98 80 40 100 87 42 102 96 46 103 103 49 106 107 50 104 116 52 107 118 52 
76 35 33 76 35 33 80 39 37 80 36 35 79 33 33 78 32 32 76 30 30 80 32 32 82 34 34 80 36 35 78 37 35 76 35 33 74 34 32 74 34 32 74 34 32 75 35 33 75 35 33 74 34 32 75 35 33 76 35 33 76 32 29 75 31 30 77 33 32 80 34 34 81 36 33 82 37 34 78 33 30 79 34 31 80 32 30 80 35 32 81 36 33 82 34 32 82 34 32 82 34 32 83 35 33 81 36 33 83 35 33 82 34 32 79 34 31 74 34 32 75 35 33 81 36 33 84 36 32 85 36 31 90 41 34 93 46 36 96 52 41 99 55 44 91 51 41 90 50 40 85 44 38 85 44 38 84 39 36 84 41 35 84 44 34 85 45 37 89 46 37 93 49 40 94 50 39 101 55 42 101 55 42 103 57 44 103 55 43 100 56 43 103 55 43 102 55 45 102 55 47 103 56 48 102 55 45 101 55 42 103 57 44 105 59 46 106 60 47 107 61 48 106 60 45 106 60 47 106 60 45 108 62 49 107 61 46 109 63 48 109 63 48 108 65 49 108 65 49 105 63 47 101 64 45 102 64 45 105 64 46 107 64 47 107 64 47 108 65 46 108 67 47 101 70 42 101 70 41 102 73 41 101 79 42 101 83 43 103 90 46 103 92 46 106 96 43 107 95 43 
75 34 32 75 34 32 81 37 36 80 36 35 80 34 34 78 32 32 76 30 30 80 34 34 84 36 36 80 39 37 78 37 33 76 35 33 74 33 31 75 35 33 75 35 33 75 35 33 74 34 32 75 35 33 75 34 32 75 34 32 76 32 31 75 31 30 78 32 32 80 34 34 81 36 33 82 37 34 78 33 30 79 34 31 80 35 30 80 35 32 83 38 33 82 37 34 85 37 35 84 36 34 83 35 33 83 35 33 83 35 31 81 33 31 80 32 32 75 35 33 75 35 33 81 36 33 81 36 31 85 36 29 89 40 33 94 44 35 95 51 40 95 53 41 90 50 38 89 49 39 87 44 38 86 43 37 84 39 36 84 41 35 85 45 37 87 44 37 89 46 37 92 48 37 94 50 39 99 53 40 100 54 41 104 56 44 102 54 42 102 54 44 102 54 42 102 55 45 102 55 45 101 57 46 101 57 46 104 58 45 104 58 45 107 61 48 107 61 48 108 62 49 107 60 50 107 61 48 107 61 48 107 61 48 107 61 46 108 62 47 108 62 47 109 63 48 109 63 48 106 65 47 105 64 46 102 64 45 103 65 46 104 63 45 104 63 45 105 64 46 106 63 44 103 65 42 102 68 43 100 69 41 102 73 43 101 77 41 103 81 44 101 81 44 106 83 41 105 82 38 
74 33 31 77 33 32 79 35 34 78 34 33 78 32 32 79 31 29 78 30 30 84 35 38 85 37 37 82 36 36 78 37 35 75 34 32 75 34 32 74 36 33 75 35 33 75 37 34 74 36 33 74 34 32 75 34 32 74 33 31 77 31 31 75 29 29 80 32 32 82 34 34 83 35 31 82 37 34 80 32 30 81 33 31 80 35 32 82 37 32 86 38 34 86 38 34 86 38 34 85 37 35 85 37 35 83 35 31 85 36 32 80 32 30 80 32 30 72 35 29 76 37 32 80 36 33 83 35 31 84 37 31 89 40 33 93 45 35 92 48 37 94 52 40 88 48 36 88 48 38 87 44 38 87 44 38 84 39 36 85 40 35 85 45 37 88 45 36 89 46 37 92 48 37 95 48 38 100 52 40 97 53 40 103 55 43 103 55 41 103 55 43 102 54 42 102 54 44 102 55 45 102 55 45 103 56 46 105 58 48 106 60 47 108 62 49 108 62 47 108 62 47 107 61 48 107 61 48 104 58 45 105 59 46 107 61 46 107 61 46 107 61 46 107 61 46 106 60 45 106 63 46 104 66 45 103 65 46 104 63 45 102 61 43 102 61 43 104 63 45 103 62 44 102 64 45 103 65 44 103 67 43 104 68 42 103 69 41 104 70 42 102 71 43 104 69 37 104 70 35 
72 31 29 73 32 30 80 34 34 79 33 33 77 31 31 78 30 30 78 30 30 85 35 34 87 39 39 80 34 34 79 33 33 73 32 30 74 30 29 76 35 33 76 35 33 76 38 35 77 37 35 77 37 35 79 35 34 79 35 34 78 32 32 79 31 31 84 34 35 85 35 36 83 35 31 81 36 31 77 32 27 79 34 29 79 34 29 80 35 30 84 36 34 85 37 35 85 37 35 84 36 34 84 36 32 84 36 32 85 37 35 83 34 30 82 34 32 75 37 34 77 37 35 81 37 34 83 35 31 84 35 30 87 38 31 91 42 35 90 46 35 89 47 35 88 45 36 86 46 38 89 46 40 87 44 38 87 39 39 86 38 36 83 40 31 85 42 33 86 43 34 89 45 34 91 47 36 99 53 40 100 52 42 101 53 41 104 54 43 103 55 45 102 55 45 104 57 47 103 59 46 102 60 48 104 60 49 106 59 49 105 59 46 106 60 45 105 58 48 106 58 46 105 59 46 105 59 46 108 62 49 107 61 48 109 63 48 109 63 48 108 62 47 107 61 46 105 59 44 106 63 46 105 64 46 104 63 45 105 64 46 101 62 45 101 62 45 104 62 46 103 61 45 105 63 47 105 63 47 106 65 47 107 64 47 105 64 44 105 64 44 105 64 42 110 66 41 111 67 38 
72 31 29 73 32 30 80 34 34 78 32 32 78 30 28 78 30 30 79 31 31 85 37 37 88 40 38 80 34 34 77 33 32 76 30 30 72 31 29 76 35 33 75 35 33 77 37 35 77 37 35 77 37 35 80 36 35 79 35 34 81 33 33 81 33 33 85 35 36 86 36 37 83 35 33 80 35 30 78 33 28 77 33 30 81 33 31 81 33 31 83 35 33 84 36 34 83 35 33 84 36 34 84 36 34 84 36 34 85 35 34 84 35 31 83 35 33 76 38 35 77 38 33 82 37 34 82 37 34 85 34 30 88 39 34 90 41 34 91 44 34 89 45 34 87 45 33 87 44 35 88 45 38 87 44 37 86 41 38 85 40 35 80 42 31 81 41 31 83 40 33 89 45 34 92 45 35 98 50 38 99 51 39 101 53 41 105 55 44 104 56 44 103 57 44 105 58 48 106 59 49 106 59 49 105 58 48 105 58 48 105 58 48 105 59 46 104 57 47 104 58 45 105 59 46 105 59 46 108 60 48 108 62 49 109 63 48 109 63 48 109 63 48 107 61 46 105 59 44 105 62 45 106 63 44 105 62 43 104 63 45 101 63 42 101 63 44 101 62 47 104 62 46 105 63 47 105 63 47 106 64 48 106 63 46 107 61 46 107 61 45 106 61 42 111 65 41 112 66 40 
75 35 35 74 34 34 75 35 35 75 35 35 73 35 34 76 34 35 77 35 36 78 36 37 81 37 38 72 31 29 71 30 28 71 31 29 75 34 32 79 35 34 77 36 34 77 36 34 80 34 34 78 34 33 79 35 34 82 36 36 85 37 35 85 37 35 85 37 35 86 36 37 84 37 31 85 35 34 83 35 33 83 35 33 83 35 33 83 35 33 82 34 32 83 35 33 84 36 34 85 37 35 85 37 35 84 36 34 82 37 34 83 35 31 79 34 31 81 35 35 81 35 35 81 35 35 82 34 34 79 34 31 80 34 34 80 34 34 87 39 39 87 42 39 92 44 42 93 45 41 92 43 38 93 42 38 92 41 37 90 41 36 84 42 30 83 43 31 85 43 29 90 44 31 91 45 30 98 49 34 99 50 36 105 53 39 105 53 39 105 56 42 104 55 41 104 56 42 106 56 45 106 56 45 106 56 45 107 57 46 107 58 44 108 59 45 107 59 45 107 59 45 107 59 45 108 59 45 108 60 48 109 61 47 111 63 49 112 63 49 112 63 49 112 63 49 111 62 48 108 62 46 105 62 45 103 60 43 103 60 43 101 58 42 100 57 41 104 63 45 105 63 47 106 63 46 109 63 48 106 63 47 104 63 45 105 63 47 103 62 44 104 61 45 107 62 43 107 62 41 
77 35 36 76 36 36 76 34 35 76 36 36 75 33 34 76 35 33 76 35 33 77 35 36 78 36 37 72 31 29 70 29 27 73 32 30 74 33 31 77 36 34 77 36 34 77 33 32 78 34 33 79 33 33 82 36 36 85 37 37 85 37 35 86 38 36 85 37 35 86 36 35 86 36 35 85 36 32 86 36 35 84 36 34 84 36 32 83 35 31 83 35 33 83 35 33 83 35 33 85 37 35 84 39 34 83 38 33 82 37 32 80 32 28 78 33 30 82 34 34 81 35 37 80 34 34 79 33 33 78 32 32 78 34 35 78 34 33 86 40 40 85 39 39 92 44 42 91 46 43 94 43 40 93 42 38 93 43 34 89 41 31 85 43 31 85 43 31 86 42 31 90 44 31 92 44 32 98 49 34 98 49 35 105 53 39 105 53 39 106 54 41 104 55 41 104 55 41 105 56 42 105 56 42 106 57 43 107 58 44 108 59 44 108 59 45 108 59 45 110 58 45 108 59 45 109 60 46 110 61 47 110 61 47 112 63 49 112 63 49 113 64 50 114 65 51 113 64 50 109 64 45 104 61 44 103 60 43 103 60 43 101 58 41 101 58 42 103 61 45 105 64 46 108 62 46 106 63 46 105 64 46 105 64 46 106 65 45 105 64 46 103 61 45 105 59 43 105 60 41 
