P3
100 50
255
51 43 54 51 41 52 51 40 56 49 38 54 46 33 51 51 34 53 50 32 54 52 30 53 52 30 53 45 30 51 43 30 48 41 28 48 41 30 47 41 28 46 40 29 46 41 28 46 43 30 48 41 30 47 43 30 48 42 31 48 41 28 46 40 27 47 38 25 45 38 25 43 40 27 45 41 28 46 42 29 47 42 29 47 41 28 46 41 28 46 38 25 43 38 25 43 38 25 43 38 25 43 40 27 45 40 27 45 40 27 45 38 25 43 38 25 43 38 25 42 38 25 43 40 27 45 40 27 44 39 26 43 40 26 43 38 24 41 42 28 45 42 28 45 46 32 47 47 33 48 49 32 48 49 32 48 47 30 46 47 30 46 46 29 45 49 32 48 50 33 49 52 35 51 54 36 52 52 34 50 52 34 48 49 31 47 49 31 45 50 32 46 50 32 46 51 33 47 52 34 48 51 33 47 55 32 50 59 32 51 49 33 46 46 34 44 29 27 30 24 26 25 72 66 66 87 78 79 137 110 117 145 114 122 165 126 144 166 127 146 167 129 152 162 130 151 159 131 153 154 123 139 148 118 128 129 98 113 128 97 112 118 88 100 121 91 103 141 111 123 144 113 129 155 125 137 144 114 126 126 98 112 118 88 98 108 76 89 113 81 92 115 85 95 138 102 112 144 107 115 
51 39 51 51 40 54 47 39 54 49 38 52 48 34 49 50 33 51 50 31 53 50 31 53 53 31 54 45 30 51 44 31 51 41 27 50 41 28 48 40 28 48 40 27 47 40 28 48 41 29 49 42 29 49 42 30 50 43 30 50 42 29 49 40 27 47 39 26 46 38 25 43 40 27 45 41 28 46 42 29 47 42 29 47 42 29 47 41 28 46 39 26 44 38 25 43 39 26 44 40 27 45 42 29 47 40 27 45 41 28 46 38 25 42 38 25 43 38 25 43 39 26 43 40 27 45 41 28 46 40 27 44 40 26 43 40 26 43 42 28 45 43 29 46 45 31 46 46 32 47 46 32 47 48 31 47 47 30 46 48 31 47 48 31 47 50 33 49 51 34 50 52 35 51 53 35 51 52 34 50 51 33 47 51 33 49 51 33 47 51 33 47 51 33 47 52 34 48 52 34 48 52 34 48 55 32 50 58 31 50 50 34 47 46 34 44 29 27 32 23 25 24 68 62 62 82 72 73 135 108 115 145 114 122 165 126 144 167 128 147 164 129 151 162 130 153 159 131 154 154 123 139 149 118 133 132 101 116 129 98 113 118 88 100 122 91 106 139 109 121 144 114 126 154 124 136 146 116 128 131 101 111 120 90 100 109 79 87 114 84 94 116 86 96 139 103 113 140 105 112 
30 20 31 32 22 33 44 33 49 45 34 51 50 37 55 48 33 52 45 30 49 47 29 51 48 29 51 44 31 51 43 30 50 43 30 48 42 29 49 41 28 48 41 29 49 42 29 49 42 29 49 42 30 50 43 30 50 43 30 50 44 31 51 41 28 48 41 28 48 41 28 48 42 29 47 41 28 46 42 29 47 42 29 47 42 29 47 41 28 46 39 26 44 40 27 45 40 27 45 41 28 46 43 30 48 43 30 48 43 30 48 44 31 49 44 31 49 40 27 44 41 28 46 41 28 46 41 28 45 39 26 43 40 27 44 41 27 44 42 28 45 43 29 46 44 30 45 46 32 47 47 30 46 48 31 47 46 29 45 47 30 46 50 33 49 50 33 49 51 34 50 52 35 51 53 35 51 52 34 50 52 34 48 53 35 51 52 34 48 54 36 50 55 37 51 54 36 50 52 34 48 50 32 46 53 30 46 57 30 49 51 33 45 47 35 45 30 28 31 23 23 25 38 32 32 53 43 44 131 105 114 140 110 120 161 124 141 163 126 143 165 130 150 164 129 153 160 131 153 157 126 144 155 124 142 144 113 128 142 111 126 124 93 108 124 93 108 129 99 111 134 104 116 150 120 132 149 119 131 149 119 131 139 109 121 130 100 112 129 99 111 129 99 109 134 100 114 136 100 110 
30 18 30 32 20 30 44 33 47 45 34 50 49 38 55 48 33 52 43 30 48 48 30 52 48 30 52 45 30 51 44 31 51 42 29 49 44 31 51 42 29 49 42 29 49 41 28 48 42 29 49 42 29 49 44 31 51 43 30 50 43 30 50 42 29 49 42 29 49 43 30 50 42 29 47 42 29 47 42 29 47 42 29 47 42 29 47 41 28 46 41 28 46 41 28 46 41 28 46 42 29 47 42 29 47 43 30 48 42 29 47 43 30 48 43 30 48 42 29 46 41 28 46 41 28 46 41 28 45 41 28 45 41 27 44 42 28 45 42 28 45 43 29 46 45 31 46 44 30 45 44 30 45 44 30 45 45 28 44 46 29 45 50 33 49 49 32 48 51 34 50 51 34 50 52 34 50 52 34 50 52 34 48 53 35 51 53 35 49 55 37 51 54 36 50 54 36 50 54 36 50 50 32 46 55 31 45 58 31 48 52 34 46 49 37 47 33 28 32 28 26 27 35 26 27 44 34 35 123 100 108 133 106 113 162 123 141 164 127 144 165 130 150 162 128 152 160 128 151 157 126 144 157 126 141 148 117 132 145 114 129 127 96 111 127 96 111 125 95 107 131 100 115 148 118 130 150 120 132 153 123 135 144 114 126 135 105 117 133 103 115 130 100 112 133 101 112 134 101 112 
27 11 24 28 14 27 41 31 42 43 32 46 50 37 55 46 33 51 41 28 48 44 31 51 46 33 53 46 31 52 43 31 51 44 31 51 43 30 50 43 30 50 43 30 50 42 29 49 42 29 49 44 31 51 43 30 50 43 30 50 44 31 51 44 31 51 45 32 52 45 32 50 43 30 48 43 30 48 41 28 46 41 28 46 41 28 46 41 28 46 42 29 47 42 29 47 44 31 49 41 28 46 41 28 46 42 29 47 43 30 48 45 32 49 45 32 50 44 31 49 44 31 48 42 29 47 42 29 47 41 28 45 40 29 45 42 28 45 43 29 46 43 29 46 43 29 44 42 28 43 44 27 43 43 26 42 44 27 43 44 27 43 50 33 49 48 31 47 48 31 47 48 31 47 50 32 48 50 32 48 51 33 47 53 35 51 54 36 50 57 39 53 56 38 52 54 36 50 53 35 49 49 31 45 54 31 47 56 32 48 59 38 53 59 43 54 44 35 40 38 32 34 11 5 5 21 12 13 107 86 93 117 94 102 153 119 133 159 125 141 165 130 150 161 128 149 159 125 149 160 127 146 160 129 145 156 125 141 156 125 141 134 104 116 131 100 115 114 83 98 120 89 104 139 108 123 150 118 131 165 133 148 157 127 139 152 122 134 141 111 123 137 107 119 132 102 114 132 100 113 
32 18 31 34 18 31 40 28 42 42 31 47 50 37 55 45 32 50 40 28 48 42 30 50 45 32 52 43 31 51 43 30 48 43 30 48 42 29 49 43 30 50 42 30 50 42 29 49 43 30 50 41 29 49 43 30 50 43 30 50 44 31 49 44 31 51 45 32 52 46 33 51 43 30 48 43 30 48 41 28 46 41 28 46 40 27 45 41 28 46 43 30 48 41 28 46 43 30 48 42 29 47 41 28 46 42 29 47 42 29 47 45 32 50 44 31 49 45 32 50 44 31 49 42 29 47 42 29 46 42 29 46 43 29 46 43 29 46 44 30 47 44 30 47 42 28 43 42 28 43 41 27 42 41 27 42 43 26 42 44 27 43 47 30 46 46 29 45 47 30 46 48 31 47 49 31 47 50 32 48 49 31 45 54 36 52 54 36 50 55 37 51 56 38 52 53 35 49 50 32 46 46 28 42 56 33 49 64 37 56 69 49 61 73 55 67 56 47 52 52 42 50 13 4 5 18 9 10 85 64 73 99 78 87 145 114 129 152 121 136 165 130 150 162 129 150 158 125 146 159 128 146 160 129 147 158 127 145 158 127 145 141 108 125 138 105 122 117 86 102 122 91 106 134 104 116 146 114 129 162 129 146 159 127 142 153 122 137 142 111 126 139 107 122 135 104 119 133 102 117 
42 24 36 40 24 37 39 27 41 41 28 45 47 36 52 43 32 49 37 28 47 39 30 49 41 32 51 44 31 49 42 31 48 42 29 47 42 29 49 42 30 50 44 31 51 42 30 50 42 30 50 42 29 49 42 30 50 43 30 50 44 31 51 44 31 51 46 33 53 46 33 51 44 31 49 43 30 48 41 28 46 40 27 45 40 27 45 41 28 46 42 29 47 41 28 46 41 28 46 41 28 46 40 27 45 41 28 46 41 28 46 43 30 48 44 31 49 45 32 49 44 31 49 41 28 46 42 29 46 41 28 45 42 29 46 44 30 47 44 30 47 44 30 47 42 28 43 41 27 42 41 24 40 41 24 40 42 25 41 43 26 42 45 28 44 46 29 45 46 29 45 46 29 45 47 29 45 49 31 47 49 31 45 53 35 51 54 36 50 55 37 51 54 36 50 49 31 45 48 30 44 44 26 40 57 34 50 68 41 58 79 57 69 86 66 78 71 58 67 68 55 64 18 7 11 16 5 9 61 44 50 78 61 69 133 109 122 144 117 134 161 128 147 160 127 146 159 124 148 161 128 145 161 128 147 162 129 146 162 129 148 146 115 131 143 112 128 122 89 106 123 90 107 131 99 114 141 109 124 160 128 143 158 126 141 155 124 139 145 114 129 143 111 126 136 108 122 134 106 118 
53 35 47 51 33 47 37 23 38 39 25 40 43 32 46 42 31 48 40 31 48 39 30 49 40 28 48 41 28 46 41 28 46 42 27 46 41 30 47 43 30 48 42 31 48 43 30 48 42 29 47 40 29 46 42 29 47 40 29 46 44 31 51 43 30 50 45 32 52 45 32 52 44 31 49 43 30 48 41 28 46 41 28 46 41 28 46 41 28 46 43 30 48 42 29 47 43 30 48 42 29 47 41 28 46 41 28 46 41 28 46 42 29 47 43 30 48 43 30 48 43 30 47 40 27 45 41 28 45 41 28 45 43 29 46 44 30 47 44 30 47 44 30 47 42 28 43 42 28 43 42 25 41 42 25 41 42 25 41 43 26 42 45 28 44 47 30 46 47 30 46 48 31 47 50 32 48 51 33 49 52 34 48 53 35 51 53 35 49 53 35 49 52 34 48 47 29 43 45 27 41 40 22 36 62 38 52 80 53 68 96 72 85 104 82 94 94 77 85 90 74 84 42 27 34 34 21 28 34 19 26 55 40 47 121 101 112 132 110 123 156 125 143 158 125 144 163 126 144 163 128 148 163 130 149 162 129 150 162 129 150 156 121 141 154 119 139 132 99 118 133 100 119 130 97 116 140 106 123 152 119 136 153 120 137 155 122 139 150 119 134 149 117 132 141 112 130 141 113 128 
61 41 52 58 37 52 36 19 35 37 23 38 43 30 47 42 31 48 41 32 49 38 29 46 37 28 47 40 27 47 40 27 47 40 29 46 41 28 48 43 30 50 42 29 49 43 30 50 43 30 50 42 29 49 42 29 49 42 29 49 42 30 50 43 30 50 44 31 51 44 33 50 43 32 49 43 32 49 41 28 46 41 28 48 41 28 46 42 29 47 43 30 48 43 30 48 42 31 48 42 29 47 42 29 47 40 29 46 41 28 46 43 30 48 43 30 48 43 30 47 42 29 47 41 28 46 41 28 46 41 28 45 43 29 46 45 31 48 44 30 47 46 32 49 43 29 44 43 29 44 40 26 41 40 26 41 42 28 43 44 27 43 45 28 44 47 30 46 48 31 47 50 31 50 51 33 49 52 34 48 52 34 50 53 35 51 54 36 50 51 33 47 51 33 47 46 28 42 44 26 40 39 21 35 64 40 56 86 60 73 106 80 93 116 92 105 105 88 98 104 84 93 55 39 49 43 30 39 15 2 9 39 26 35 110 94 104 126 104 117 151 123 138 157 124 143 162 124 145 163 128 150 165 130 152 162 129 148 162 129 148 159 126 147 157 124 143 142 109 128 137 105 126 130 98 119 136 105 121 147 113 130 149 118 133 153 122 138 154 121 140 152 121 137 146 117 135 145 116 134 
76 56 68 72 52 64 37 21 34 40 23 39 44 27 45 43 30 48 44 33 50 40 31 50 39 30 49 39 27 47 40 27 47 40 29 45 41 28 48 42 29 49 41 28 48 42 29 49 42 29 49 42 29 49 41 28 48 41 28 48 41 30 47 41 29 49 43 30 50 43 30 48 44 31 49 43 30 47 42 29 46 42 29 47 43 30 48 44 31 49 44 31 49 44 31 49 45 32 50 43 30 48 43 30 48 41 28 46 43 30 48 45 32 50 44 31 49 41 28 46 41 28 46 40 27 45 40 27 45 40 27 44 42 28 45 43 29 46 44 30 47 44 30 47 44 30 45 44 30 45 44 27 43 41 27 42 43 29 44 44 28 41 41 27 42 45 28 44 47 30 46 50 33 49 52 34 50 52 34 48 52 34 50 54 36 52 53 35 49 52 34 48 52 34 48 48 30 44 46 28 42 43 25 39 69 45 58 93 67 78 114 88 101 126 100 113 128 100 114 124 101 111 81 65 75 68 55 64 7 1 5 28 21 28 91 80 88 110 92 104 142 115 130 153 120 139 166 124 144 165 127 148 162 130 153 160 127 148 161 126 148 162 129 148 160 127 148 152 119 140 148 115 136 135 102 121 138 105 124 138 105 122 145 114 132 152 121 137 158 127 143 160 129 147 151 122 142 150 121 141 
82 62 73 77 57 69 39 21 35 41 24 40 43 26 44 44 30 47 46 33 51 42 30 50 40 31 50 37 28 45 38 27 44 40 28 48 41 28 48 41 28 48 41 28 48 42 29 49 41 28 48 41 28 48 41 28 48 42 29 49 41 30 47 40 28 48 43 30 50 43 30 50 43 30 50 43 30 48 42 29 47 43 28 47 42 29 47 44 31 49 45 32 50 45 32 50 46 31 50 44 31 49 44 31 49 45 30 49 44 31 49 46 33 51 45 32 50 41 28 46 40 27 45 40 27 45 40 27 44 40 27 44 42 28 45 43 29 46 45 31 48 44 30 47 44 30 45 44 30 45 42 28 43 44 30 45 45 28 44 45 28 44 42 25 41 44 27 43 46 29 47 49 32 48 50 33 49 52 34 50 52 34 48 55 37 51 54 36 50 53 35 49 52 34 48 49 31 45 47 29 43 45 27 41 70 48 61 100 70 82 118 92 103 130 104 117 132 106 119 132 106 117 92 76 86 79 62 72 5 0 6 26 19 26 85 75 83 105 89 100 138 111 126 152 119 136 165 126 145 164 129 149 163 129 153 160 127 148 159 127 148 162 129 150 160 127 148 155 123 144 150 118 139 136 105 123 136 103 124 136 103 122 144 111 130 152 119 138 159 126 145 162 129 148 153 124 146 153 124 146 
80 60 71 76 56 68 41 23 37 43 25 41 45 28 46 45 31 48 47 32 53 44 31 49 44 31 49 42 29 49 40 26 49 41 28 48 41 28 46 40 29 46 39 28 45 41 28 46 40 27 45 40 29 46 39 28 45 41 28 46 41 29 49 41 29 49 42 30 50 41 29 49 42 29 49 40 27 47 42 31 48 43 30 48 44 31 49 44 31 49 45 32 50 45 32 50 45 32 50 45 32 50 45 32 50 44 31 49 44 31 49 43 30 48 42 29 47 41 28 46 41 28 46 41 28 46 39 26 43 39 26 43 42 28 45 42 28 45 41 27 44 42 28 45 43 31 45 44 30 45 46 29 45 44 30 45 46 29 45 46 29 45 42 25 41 43 26 42 45 28 46 46 29 45 48 30 46 48 31 47 50 32 46 50 32 46 53 35 49 54 36 50 54 36 50 50 32 46 51 33 47 48 30 44 70 48 61 90 64 75 112 84 96 126 96 108 137 109 123 142 111 126 110 94 105 95 83 93 21 20 26 31 28 35 66 61 68 88 75 85 125 101 114 141 108 125 160 117 137 161 123 146 162 126 152 161 126 150 161 126 148 160 126 150 160 126 150 161 126 150 158 123 145 147 112 134 144 109 131 135 102 123 143 110 131 149 116 135 159 126 145 162 127 149 158 126 149 156 124 147 
81 59 71 75 55 67 47 24 42 44 23 38 46 27 46 46 29 47 48 31 49 45 32 49 44 31 49 41 29 49 39 27 47 40 28 48 39 27 47 40 27 47 41 28 48 40 28 48 39 27 47 40 27 47 40 27 47 39 27 47 42 29 49 42 29 47 42 30 50 43 30 50 41 28 46 41 28 46 43 30 48 44 31 49 46 33 51 44 33 50 44 31 49 45 32 50 45 32 50 45 32 50 46 33 51 44 31 49 44 31 49 42 29 47 42 29 47 40 27 44 41 28 46 40 27 45 40 27 45 40 27 44 40 26 43 40 26 43 42 28 45 44 27 45 44 30 45 45 31 46 48 31 47 47 30 46 45 31 46 46 29 45 42 25 41 42 25 41 45 28 44 45 28 44 47 29 45 48 30 46 48 30 44 51 33 47 52 34 48 55 37 51 54 36 50 52 34 48 52 34 48 48 30 44 70 46 59 91 65 74 114 84 96 125 95 107 137 109 121 140 112 126 114 96 108 100 87 97 25 22 31 34 31 38 64 58 68 85 72 81 123 99 113 142 108 124 160 115 138 160 122 147 160 125 149 162 127 151 161 125 151 159 125 149 159 125 149 162 127 151 159 124 148 149 114 136 142 108 132 135 102 123 143 110 131 150 115 135 158 123 143 162 127 149 159 127 151 156 126 150 
59 37 49 57 35 48 45 22 40 46 24 37 52 31 48 48 29 48 45 28 47 42 29 47 42 28 45 42 29 47 43 30 50 42 29 47 41 28 48 39 27 47 38 26 46 39 26 46 39 26 46 39 27 47 39 27 47 41 28 48 42 29 47 43 30 48 44 31 49 44 31 49 40 29 46 39 26 44 45 30 49 45 32 50 45 32 50 43 32 49 44 31 49 44 31 49 43 30 48 43 30 48 43 30 48 41 28 46 40 27 45 37 24 42 38 25 43 41 28 45 42 29 47 42 29 47 41 28 46 40 27 44 38 25 42 36 22 39 39 25 42 38 24 41 43 29 44 45 31 46 49 32 48 49 32 48 46 32 47 46 32 47 46 29 45 45 28 44 45 28 44 44 27 43 44 26 42 44 26 42 45 27 41 48 30 44 48 30 44 51 33 47 52 34 48 50 32 46 48 30 44 45 27 41 61 39 51 79 51 63 100 70 82 113 79 93 135 104 119 144 113 128 122 104 118 112 96 107 57 56 64 56 55 63 51 50 58 74 64 73 110 88 100 133 96 113 152 107 127 157 119 142 158 122 148 164 129 153 164 130 154 158 123 147 162 127 151 163 129 153 163 129 153 159 124 146 154 119 143 143 108 130 146 111 133 150 115 137 157 122 144 158 123 145 160 126 153 161 127 154 
57 37 49 56 34 47 44 23 38 47 24 40 48 30 46 47 28 47 45 28 47 43 29 46 43 29 46 41 28 46 40 28 48 40 27 45 40 29 46 40 27 45 41 28 46 38 27 44 37 26 43 40 27 45 40 27 45 39 28 45 40 28 48 40 29 46 42 31 48 44 31 49 41 30 47 42 29 47 44 31 49 43 32 48 45 32 50 44 31 49 44 31 49 44 31 49 44 31 49 44 31 49 43 30 48 41 28 46 40 27 45 38 25 43 38 25 43 43 30 47 43 30 48 43 30 48 41 28 46 40 27 44 40 26 43 38 24 41 38 24 41 41 24 42 43 29 44 43 29 44 48 31 47 48 31 47 49 32 48 48 31 47 47 31 44 46 29 45 46 28 44 44 27 43 45 27 41 45 27 41 45 27 41 48 30 44 49 31 45 52 34 48 51 33 47 50 32 46 48 30 44 45 27 41 61 39 51 75 52 62 95 69 80 110 80 92 136 104 119 144 112 127 126 103 119 111 98 108 61 58 65 58 56 61 51 50 56 76 64 74 109 89 100 130 98 113 152 109 128 155 117 140 156 122 149 163 127 153 166 127 154 160 124 150 160 125 149 164 129 153 163 128 152 160 126 150 154 119 143 143 109 133 147 112 134 149 114 136 156 123 144 158 123 145 159 127 151 159 127 151 
41 31 42 41 31 42 40 28 40 42 30 44 43 29 44 42 28 41 44 27 43 42 28 41 44 28 41 38 25 43 37 26 43 41 30 46 41 30 47 38 27 44 38 27 44 35 24 41 37 26 43 39 28 45 39 28 45 39 28 45 39 28 45 38 27 44 40 29 46 41 30 47 44 33 50 45 32 50 44 33 50 45 32 50 43 32 49 44 31 49 44 31 49 44 31 49 44 31 49 44 29 48 43 28 47 41 26 45 41 26 45 46 31 50 45 30 49 45 30 49 45 30 49 45 30 49 44 30 47 43 29 46 42 28 45 44 27 45 45 28 46 45 28 46 43 26 42 44 27 43 45 27 43 46 28 44 53 34 53 51 33 47 49 32 42 49 31 43 47 30 40 46 30 41 46 28 40 47 29 43 46 28 40 48 30 42 47 29 41 51 33 47 52 34 48 50 32 46 48 30 44 42 24 38 48 34 47 56 46 55 72 58 71 82 66 79 124 97 114 137 109 124 140 107 126 135 102 121 91 71 83 83 67 77 55 52 59 72 67 71 102 89 98 120 99 108 138 106 121 149 114 134 155 117 138 160 122 143 159 124 146 164 129 151 164 129 151 161 128 149 160 128 152 160 128 152 155 123 146 146 117 139 141 112 132 136 109 128 151 124 143 158 130 145 152 127 148 152 127 148 
41 31 42 40 30 41 41 29 41 41 29 41 42 28 41 43 27 40 43 26 42 42 26 39 43 26 42 39 26 44 35 26 43 38 27 44 40 29 46 38 27 44 38 27 44 36 25 42 37 26 43 37 26 43 39 28 45 39 28 45 41 30 47 39 28 45 40 29 46 39 28 45 42 31 48 45 32 50 44 33 50 44 31 49 43 30 48 43 30 48 43 30 48 44 31 49 43 30 48 45 30 49 41 26 45 41 26 45 41 27 44 46 31 50 45 30 49 45 31 46 45 30 49 47 32 51 46 31 50 43 29 46 43 29 46 45 28 46 45 28 46 46 29 47 43 26 42 43 26 42 44 26 42 45 27 43 51 33 49 50 32 46 49 31 43 48 30 42 47 31 42 47 29 41 46 28 40 45 27 41 44 28 41 45 29 42 48 30 42 52 34 48 53 33 45 53 37 48 50 34 45 44 28 39 47 34 44 48 42 52 67 55 67 76 62 75 119 95 111 136 108 123 144 109 129 138 105 122 95 75 87 88 71 81 63 56 63 78 68 76 102 89 98 121 97 110 140 106 122 150 113 131 153 118 138 160 122 143 159 124 146 164 129 153 164 129 153 162 128 153 161 127 152 161 127 152 156 127 149 149 120 140 147 115 136 142 111 129 151 122 140 156 127 145 152 124 147 154 125 147 
40 26 39 40 26 39 41 27 40 39 25 42 40 26 41 40 26 41 40 26 41 41 27 42 41 27 42 36 25 42 35 26 43 37 26 43 38 27 44 38 27 44 39 28 45 36 27 44 37 26 43 36 27 44 38 27 44 39 28 45 39 28 45 42 31 48 41 30 47 40 29 46 43 30 48 40 27 45 43 30 48 42 29 47 43 30 48 43 30 48 43 30 48 43 30 48 44 31 49 43 28 47 42 27 46 41 26 45 39 25 42 44 29 48 45 30 49 47 33 50 47 32 51 46 31 50 46 32 49 45 31 48 46 29 47 46 29 47 44 27 45 45 28 46 42 25 41 42 25 41 42 24 40 44 26 42 47 30 46 46 29 45 46 29 45 48 32 45 50 32 48 48 32 45 46 30 43 44 28 41 41 28 38 44 28 39 45 29 40 52 36 49 52 36 47 58 42 53 54 38 49 48 32 42 43 33 42 36 33 42 58 48 57 68 56 66 115 91 105 128 101 116 148 114 131 145 111 128 106 82 96 98 78 89 70 61 66 82 71 79 102 89 98 121 95 106 136 104 119 145 110 130 150 115 135 159 121 142 158 123 143 163 128 152 161 126 150 161 127 151 163 129 154 163 131 154 160 128 149 154 125 147 149 120 140 147 116 134 152 123 141 153 124 142 152 123 143 155 122 143 
42 28 41 42 28 41 40 26 41 42 25 41 39 25 38 40 26 41 38 26 40 39 27 41 40 26 41 39 26 43 38 27 44 35 24 41 37 26 43 37 26 43 37 26 43 35 26 43 36 25 42 34 25 42 37 26 43 39 28 45 40 29 46 43 32 49 41 30 47 38 27 44 39 26 44 40 27 45 42 29 47 42 29 47 42 29 47 42 29 47 42 29 47 43 30 48 44 31 49 43 28 47 42 27 46 40 25 44 41 26 45 44 29 48 44 29 48 47 33 50 47 32 51 48 33 52 47 33 50 46 32 49 44 31 48 47 30 48 46 29 47 46 29 47 44 27 43 43 26 42 42 24 40 42 24 40 44 28 41 45 28 44 47 30 46 49 32 48 50 33 49 47 33 48 47 31 44 42 30 42 40 26 39 45 29 40 45 29 40 52 36 47 52 36 47 57 41 51 54 39 46 49 34 41 42 32 41 36 33 44 53 46 54 62 55 63 106 85 100 120 96 110 148 115 132 147 114 131 117 89 104 106 84 96 77 67 75 85 72 81 101 81 92 114 90 104 130 98 113 142 108 125 146 111 131 154 119 139 156 121 141 163 128 152 163 128 152 161 127 151 161 129 153 162 130 153 163 129 154 159 127 150 153 124 144 150 119 137 151 123 138 152 123 141 152 119 138 152 117 137 
45 28 44 44 28 41 43 26 44 41 27 42 40 26 41 38 25 42 38 26 40 38 24 41 38 25 42 37 26 43 39 28 45 36 25 42 37 26 43 37 26 43 37 26 43 36 25 42 36 25 42 33 22 39 36 25 42 39 28 45 41 30 47 42 31 48 40 29 46 39 28 45 38 25 43 36 23 41 39 26 44 40 27 45 41 28 46 41 28 46 42 29 47 43 30 48 43 30 48 43 28 47 42 27 46 40 25 44 41 26 45 43 28 47 44 29 48 48 33 52 48 33 52 49 34 53 48 34 51 48 34 51 49 32 50 48 31 49 47 30 48 47 30 48 45 28 44 43 26 42 43 25 41 43 25 41 44 26 42 45 27 43 46 29 47 49 32 48 51 34 50 49 35 50 49 32 48 44 30 43 44 28 41 45 29 40 45 29 40 51 35 45 51 35 45 57 44 51 54 39 46 48 33 38 40 33 40 34 31 40 46 43 50 56 51 58 96 80 91 112 88 102 150 118 133 149 116 133 124 96 111 116 89 104 87 71 82 90 72 84 94 76 88 109 85 98 126 92 109 137 103 120 143 110 129 152 117 137 153 118 140 163 128 152 161 127 151 161 127 152 161 129 153 162 130 154 162 130 154 161 129 152 156 127 147 152 123 141 150 121 139 150 121 139 152 115 133 152 115 132 
47 30 46 47 30 46 44 30 45 43 29 46 42 29 46 41 28 45 39 28 44 39 28 44 38 27 44 38 27 44 38 26 46 36 25 42 36 25 42 36 25 42 36 25 42 35 24 41 35 24 41 33 22 39 35 24 41 37 26 43 40 29 46 41 30 47 38 27 44 37 26 43 36 25 42 37 24 42 38 27 44 41 28 46 41 28 46 40 27 45 41 28 46 42 29 47 43 30 48 45 30 49 44 29 48 43 28 47 41 26 45 45 30 49 46 31 50 47 32 51 49 34 53 49 34 53 49 35 52 49 35 52 50 33 51 51 34 52 50 33 51 50 33 51 47 30 46 47 30 46 47 29 45 47 29 45 47 29 45 45 28 44 41 26 45 44 29 48 45 32 49 45 31 48 45 31 48 43 29 42 43 29 42 45 32 42 45 32 41 46 33 40 48 35 44 55 44 48 52 39 46 46 34 38 39 34 38 36 35 41 42 41 47 46 43 50 79 66 76 91 74 84 142 111 126 146 114 129 133 102 118 125 97 112 97 77 89 98 77 92 99 77 90 113 86 101 127 94 111 134 101 120 138 105 124 149 114 134 149 114 136 160 126 150 160 126 150 160 126 151 160 128 152 157 127 151 161 127 152 162 129 150 158 126 147 156 125 143 152 121 139 150 119 137 152 111 129 149 110 128 
51 32 51 50 31 50 46 29 47 46 29 47 43 30 47 41 30 46 40 29 45 38 27 44 39 28 45 38 27 44 38 27 44 36 25 42 36 25 42 36 25 42 36 25 42 33 24 41 34 23 40 31 22 39 35 24 41 37 26 43 39 28 45 40 29 46 38 27 44 37 26 43 35 24 41 37 24 42 38 27 44 42 29 47 41 28 46 41 28 46 41 28 46 42 29 47 42 29 47 44 29 48 43 28 47 42 27 46 43 28 47 45 30 49 46 31 50 47 32 51 48 33 52 48 33 52 49 35 52 50 36 53 49 36 53 53 36 54 51 34 52 51 34 52 49 32 48 48 31 47 47 29 45 48 30 46 47 29 45 45 28 46 40 25 44 42 27 46 43 30 47 44 30 47 44 30 47 42 28 43 43 29 42 45 31 44 46 33 42 45 32 41 47 34 43 57 45 49 51 39 41 44 32 34 39 34 38 36 36 38 39 38 44 42 41 46 70 59 67 81 65 75 137 106 121 144 112 127 139 105 122 132 100 115 106 82 96 103 81 94 97 76 91 113 84 102 126 93 112 131 100 118 136 103 122 146 113 132 148 115 134 159 125 149 160 126 150 160 126 150 159 127 151 158 126 149 159 127 150 159 127 150 158 126 149 156 125 143 153 122 140 151 120 138 150 109 127 148 107 123 
51 32 51 51 32 51 47 32 51 46 32 49 44 31 49 44 31 49 43 30 48 43 32 49 43 32 49 40 29 46 38 27 44 38 27 44 38 27 44 35 24 41 35 24 41 31 22 39 33 22 39 32 23 40 35 24 41 36 25 42 36 25 42 35 24 41 36 25 42 36 25 42 37 24 42 38 25 43 40 29 46 41 28 46 41 28 46 41 28 46 42 29 47 42 29 47 45 32 50 45 30 49 45 30 49 44 29 48 44 29 48 46 31 50 47 32 51 47 32 51 45 30 49 47 32 51 48 34 51 48 34 49 52 35 53 53 36 54 52 35 53 52 35 53 51 34 50 51 34 50 50 32 48 50 32 48 48 30 46 49 31 47 46 31 50 44 29 48 44 30 47 43 29 44 43 29 46 44 30 45 44 30 43 47 34 44 48 35 45 43 30 37 45 32 39 54 42 46 52 40 44 50 35 38 44 38 42 41 39 44 38 37 42 35 36 40 55 48 55 61 51 59 125 98 113 134 106 121 145 111 127 138 105 122 118 87 105 110 83 100 102 75 92 112 83 101 125 94 112 131 100 118 136 105 123 145 112 131 145 114 132 157 123 147 158 124 148 159 127 150 159 125 150 158 124 148 159 125 149 158 126 149 159 126 147 158 125 144 153 122 140 151 120 138 150 109 125 151 108 125 
50 31 51 49 32 51 49 32 51 46 31 50 45 32 50 46 31 50 45 32 50 44 33 50 44 33 50 38 29 46 36 27 44 38 29 48 39 28 45 35 24 41 36 25 42 31 20 37 33 22 39 34 23 40 35 24 41 35 24 41 35 24 41 35 24 41 36 25 42 36 25 42 37 24 42 37 24 42 41 28 46 41 28 46 41 28 46 41 28 46 41 28 46 42 29 47 44 31 49 45 30 49 45 30 49 45 30 49 44 29 48 48 33 52 48 33 52 47 32 51 47 32 51 47 32 51 48 34 51 49 35 50 51 37 54 53 36 54 52 35 53 53 36 54 51 34 50 51 34 50 51 33 49 51 33 49 48 30 46 48 31 47 46 31 50 45 30 51 45 31 48 44 30 47 44 27 45 44 30 43 46 30 43 49 33 44 50 34 45 42 29 36 44 31 38 54 42 46 55 41 41 51 36 41 47 38 41 43 41 44 37 36 41 33 34 38 50 45 49 55 48 55 119 95 108 132 104 119 150 112 133 141 106 126 118 89 107 113 84 102 105 76 94 114 85 103 127 94 113 133 100 119 136 105 123 145 112 131 145 113 134 154 122 145 157 123 147 160 126 151 160 124 150 158 124 149 159 125 149 157 125 148 158 125 146 158 125 146 153 122 140 153 122 140 151 110 126 152 108 123 
46 31 50 44 31 49 43 30 48 43 30 48 43 28 47 39 30 49 39 30 49 42 31 48 42 30 50 40 28 48 37 28 45 41 30 47 38 29 46 36 25 42 35 24 41 32 21 38 33 22 39 35 24 41 36 25 42 36 25 42 35 24 41 31 24 40 35 24 41 32 23 40 37 26 43 39 28 45 39 30 47 41 30 47 41 28 45 41 28 46 40 27 45 42 29 47 43 30 48 46 31 50 46 32 49 45 31 48 45 31 48 48 33 52 48 34 51 44 29 48 44 29 48 46 31 52 49 32 50 50 33 51 51 34 50 49 35 52 52 35 53 51 34 52 51 34 50 51 34 50 51 33 49 48 31 47 47 29 45 50 32 48 51 37 54 51 34 52 50 33 51 45 31 46 44 28 41 45 29 42 45 29 42 50 34 45 50 34 45 43 30 39 47 31 41 63 50 59 66 51 58 67 52 57 61 48 57 57 44 51 45 40 44 37 37 39 40 40 42 44 42 47 102 85 95 116 92 106 149 114 134 145 112 129 129 98 116 122 91 109 107 78 98 114 85 105 123 91 112 131 102 120 139 108 124 143 114 132 147 116 134 152 118 142 153 121 144 157 125 149 158 126 149 160 128 152 160 126 151 159 126 147 159 126 147 159 126 145 154 121 140 152 119 136 155 114 128 155 113 125 
45 30 51 44 31 49 43 30 50 42 29 49 41 28 48 40 28 50 40 28 48 40 28 48 39 27 47 40 28 48 37 28 45 41 30 47 41 30 47 34 25 42 35 24 41 33 22 39 31 22 39 34 25 42 36 25 42 36 27 44 34 23 40 34 23 40 32 23 40 34 23 40 37 26 43 38 25 43 42 29 47 43 30 48 42 29 47 41 28 46 40 27 45 41 30 47 43 30 48 45 30 49 45 30 49 47 30 49 44 29 48 47 34 52 50 32 54 44 29 48 45 30 49 47 30 49 47 33 50 50 33 51 52 35 53 49 35 52 51 34 52 50 33 49 51 34 50 52 35 51 52 34 50 50 33 49 48 30 46 48 30 46 53 36 54 52 35 53 50 31 50 47 30 46 46 28 42 45 29 42 46 30 41 50 34 45 52 34 46 46 29 39 48 32 42 69 53 63 71 56 63 72 57 64 68 53 58 63 48 53 48 43 47 40 39 44 41 41 43 40 39 44 96 78 90 110 88 101 151 114 131 144 113 129 133 100 119 125 94 112 110 81 99 114 85 103 120 91 111 131 102 120 139 108 124 144 115 133 145 116 134 151 119 142 152 120 143 157 125 149 158 126 149 160 128 152 161 127 151 162 127 149 161 126 150 160 125 147 155 120 140 153 120 139 154 116 129 156 116 127 
43 30 50 43 31 51 39 27 47 39 27 47 37 25 45 38 24 47 37 25 47 38 26 48 38 24 47 41 29 49 41 30 47 40 29 46 41 30 47 38 27 44 37 26 43 35 24 41 35 24 41 36 25 42 37 26 43 37 26 43 37 26 43 36 25 42 35 24 41 35 22 40 37 26 43 38 25 43 41 28 46 42 29 47 42 29 47 40 27 45 40 27 45 41 28 46 42 29 47 43 30 48 44 29 48 43 28 47 43 28 47 45 30 49 45 30 49 44 29 48 44 29 48 45 30 49 45 30 49 49 32 50 48 34 51 48 34 51 49 32 50 49 32 48 52 35 51 53 36 52 53 35 51 52 34 50 47 30 46 48 30 44 50 32 46 48 30 44 50 32 46 48 30 44 46 28 42 45 27 41 47 26 41 52 31 46 51 33 47 53 33 45 56 38 50 89 69 81 90 73 83 96 79 89 92 70 82 85 59 68 64 52 56 51 46 50 34 38 39 28 33 36 69 59 67 83 70 80 143 112 128 143 112 128 143 110 129 136 105 123 121 92 112 119 90 110 119 87 108 128 99 117 134 105 123 144 115 133 145 116 136 148 119 141 152 120 143 157 125 149 158 126 149 161 127 152 162 128 152 161 127 151 162 129 150 159 125 142 154 119 139 154 116 137 156 120 130 157 122 129 
43 31 51 43 31 53 40 28 50 39 27 49 37 25 47 38 24 47 38 26 50 39 26 46 39 25 48 39 27 47 42 31 48 41 30 47 40 29 46 38 27 44 38 27 44 35 24 41 36 25 42 36 25 42 37 26 43 38 27 44 35 26 43 37 26 43 36 25 42 34 23 40 37 24 42 38 25 43 40 29 46 41 28 46 42 29 47 41 28 46 39 26 44 41 28 46 42 29 47 43 28 47 44 29 48 43 30 48 42 27 46 44 30 47 44 29 48 45 31 48 44 30 47 44 29 48 45 32 49 47 33 48 48 34 51 49 35 52 50 33 51 49 32 48 52 35 51 52 35 51 53 35 51 53 35 51 50 32 48 49 31 47 52 31 46 53 32 47 50 32 46 52 32 44 48 30 42 47 29 41 46 28 40 52 32 44 53 33 45 50 32 44 57 37 49 89 69 81 92 74 86 99 79 91 95 71 84 91 65 76 71 56 61 55 50 54 33 37 38 27 33 33 65 55 63 77 64 73 138 111 126 140 112 127 145 112 131 137 104 123 125 96 114 119 90 108 115 86 106 126 97 117 133 104 122 144 115 133 146 117 137 149 120 142 153 121 144 156 124 148 157 125 149 161 129 153 161 127 151 162 127 151 163 125 148 159 124 144 154 119 139 152 117 137 154 121 130 155 122 129 
42 33 52 42 33 52 41 29 51 40 28 50 39 27 49 41 27 50 39 25 48 41 27 50 42 28 51 42 30 50 42 31 47 39 28 45 37 28 45 40 29 46 37 28 45 37 28 45 38 27 44 36 25 42 37 28 45 39 28 45 40 29 46 40 29 46 37 26 43 34 23 40 36 23 41 36 23 41 41 28 46 41 28 46 41 28 48 40 27 45 39 26 44 40 27 45 41 28 46 42 27 46 44 29 50 44 27 46 42 27 46 42 27 46 41 28 46 45 31 48 44 29 48 44 29 48 45 31 48 46 32 49 49 35 52 48 34 51 50 33 51 50 33 49 53 36 52 53 36 52 56 38 54 56 37 56 50 32 48 51 33 47 54 32 44 57 35 47 59 37 49 58 36 48 55 35 47 50 30 42 48 27 42 51 31 43 51 31 43 52 29 45 56 33 49 92 69 85 97 74 90 103 80 96 110 84 97 116 83 92 86 69 75 67 62 66 36 37 39 24 29 32 48 41 49 62 50 62 133 106 121 137 109 124 148 117 135 140 109 127 126 97 117 118 89 109 109 80 100 120 91 109 126 97 115 143 114 132 144 115 133 151 122 142 153 121 144 156 124 147 157 125 148 158 126 150 160 124 150 158 124 148 158 123 145 158 123 143 152 117 137 150 115 135 153 122 130 152 123 128 
41 32 51 43 31 51 40 28 50 41 29 51 40 28 50 41 27 50 40 27 47 41 27 50 43 29 52 41 30 47 42 31 48 38 26 46 38 27 44 38 29 46 40 29 46 38 27 44 38 27 44 37 26 43 38 27 44 39 28 45 40 29 46 40 27 45 36 25 42 37 26 43 37 24 42 36 25 42 39 28 45 40 27 45 39 28 45 40 27 45 39 26 44 40 27 45 40 27 44 42 29 46 43 28 47 43 28 47 43 29 46 42 29 46 43 30 47 45 31 48 46 32 49 48 31 49 47 33 50 50 33 51 50 33 51 50 33 51 50 33 51 49 32 50 52 35 51 53 36 52 55 38 56 54 37 55 50 33 49 52 34 48 56 32 45 54 34 46 51 33 45 53 35 47 56 36 48 50 28 40 49 27 40 55 35 47 58 38 50 48 35 45 53 40 50 87 71 84 97 76 91 111 87 101 117 86 101 120 86 100 96 75 84 80 64 74 44 43 48 34 35 39 40 39 44 52 47 53 122 104 116 129 107 120 147 116 134 142 111 129 132 99 120 122 90 111 114 81 102 120 91 109 126 97 117 141 112 132 143 114 134 151 122 144 150 121 143 157 125 148 157 125 148 161 127 151 159 126 147 157 124 145 158 123 143 158 121 139 155 117 138 155 116 135 153 121 134 155 121 137 
41 29 49 42 30 52 41 29 51 40 28 50 39 27 47 41 28 48 41 28 48 42 29 49 43 29 54 40 28 48 39 27 47 38 26 48 39 27 49 39 27 49 39 27 49 34 22 44 36 23 43 38 25 45 41 28 48 43 30 50 39 26 44 37 24 42 40 27 45 43 30 48 37 28 45 37 28 45 39 28 45 38 27 44 37 26 43 36 25 41 36 25 41 37 26 42 39 26 43 42 29 46 44 31 48 45 34 50 46 33 50 45 32 49 45 32 49 49 32 50 50 33 49 50 33 51 50 33 49 50 33 51 48 31 49 48 31 49 50 33 51 50 33 51 51 34 52 51 34 52 51 34 52 52 35 53 50 33 51 54 33 50 62 36 49 53 33 44 45 29 39 51 35 45 55 39 50 49 29 41 46 24 37 63 45 57 65 49 59 45 44 50 48 47 53 79 69 77 96 80 90 130 93 110 125 92 109 127 90 108 110 79 95 100 72 86 63 50 59 50 43 50 27 28 30 32 37 41 106 101 105 114 104 112 147 119 134 147 114 133 142 103 124 131 93 114 119 84 106 123 90 109 126 94 117 137 108 128 140 111 131 151 122 142 151 122 142 155 126 146 157 126 144 160 127 146 161 128 147 159 124 144 158 121 139 156 117 135 157 116 132 156 117 135 158 119 146 157 118 147 
42 30 50 42 30 50 40 28 48 38 29 48 40 28 48 41 27 50 41 29 49 43 31 51 43 30 50 40 28 50 39 27 47 40 28 50 41 29 51 41 29 51 41 29 51 37 25 47 40 27 47 41 28 48 42 29 49 44 31 51 39 26 44 37 24 42 39 26 44 39 26 44 40 29 46 40 29 46 39 28 45 36 27 44 36 27 44 38 27 43 36 25 42 38 27 44 38 27 43 40 29 45 43 30 47 45 33 47 46 33 50 44 32 46 45 33 47 48 31 49 49 32 50 50 33 51 50 33 51 50 31 50 49 32 50 48 31 49 49 32 50 48 31 49 51 34 52 51 34 52 52 35 53 51 34 52 48 34 51 53 32 49 57 35 47 53 33 45 46 33 43 52 36 47 56 40 53 45 25 37 43 19 32 66 48 60 69 53 64 46 43 50 48 45 52 71 64 72 92 74 86 123 95 110 127 94 111 129 96 113 115 84 100 104 76 91 66 53 63 56 45 53 21 25 28 28 32 35 94 89 93 107 96 102 146 118 132 145 114 130 145 108 126 134 96 117 123 88 110 125 92 113 125 93 114 137 108 128 140 108 129 152 120 141 151 122 142 155 126 146 158 126 147 159 127 148 158 127 145 157 123 140 157 119 140 156 117 135 157 118 136 158 117 135 158 120 145 157 121 147 
41 29 49 41 29 49 39 27 47 41 29 49 40 28 50 41 29 49 42 30 50 42 30 50 45 32 52 41 27 52 39 26 46 41 29 51 41 29 49 44 32 52 44 32 54 42 29 49 41 29 49 44 33 50 44 31 51 44 31 51 40 27 45 36 23 41 37 24 42 38 25 43 40 29 46 41 30 47 40 29 46 40 29 46 38 27 44 38 27 44 37 26 42 39 28 44 40 27 44 41 28 45 42 29 46 45 32 49 44 31 48 45 33 47 46 34 48 47 30 48 48 31 49 49 32 50 49 32 50 48 31 49 48 31 49 47 30 48 47 30 48 48 31 49 50 33 51 50 33 51 51 34 52 50 33 51 49 32 50 50 32 48 56 34 46 53 35 47 47 34 44 54 38 49 55 39 50 44 22 35 42 15 30 68 52 63 74 58 69 49 44 51 50 45 52 65 55 64 84 71 81 123 95 110 129 98 114 136 102 119 121 90 105 110 82 97 72 56 66 59 46 55 20 21 26 23 24 28 84 78 82 98 87 93 144 116 131 146 113 130 147 109 132 136 101 121 124 91 112 127 92 112 124 92 113 135 106 126 137 108 128 152 123 143 152 123 143 155 126 148 156 127 149 157 125 146 156 124 145 155 120 140 156 118 139 158 116 136 158 117 135 159 118 136 160 122 147 162 124 149 
43 30 50 44 31 51 41 28 48 42 29 49 41 29 49 41 29 49 43 30 50 43 30 50 42 30 50 38 29 48 37 28 49 39 30 51 41 29 49 42 30 50 43 31 53 42 29 49 42 30 50 43 32 49 44 31 51 45 32 52 41 28 46 39 26 44 39 26 44 39 26 44 38 25 43 36 27 44 35 26 43 36 25 42 35 24 41 36 25 41 38 25 42 37 26 42 39 26 43 40 27 44 41 28 45 44 31 48 44 31 48 46 34 48 46 34 48 49 32 50 48 31 49 49 32 50 49 32 50 49 32 50 49 32 50 48 31 49 48 31 49 48 31 49 49 32 50 49 32 50 50 33 51 48 31 49 49 32 50 50 33 49 53 37 50 53 36 52 52 38 51 53 37 50 56 38 52 43 21 34 42 15 32 85 64 79 89 71 85 60 54 64 59 53 63 58 48 59 80 66 79 121 97 113 129 102 117 139 106 125 126 95 111 118 90 104 80 60 71 66 53 62 19 20 22 20 21 25 67 60 67 86 75 83 140 112 127 144 113 129 151 114 132 140 105 127 131 98 119 127 92 114 122 91 107 133 104 124 134 105 125 151 122 142 151 122 144 157 127 151 156 127 149 155 123 144 155 121 145 153 118 142 155 117 140 154 116 141 159 117 139 159 120 141 161 124 142 162 125 143 
43 31 51 43 31 51 42 30 50 41 29 49 42 30 50 41 29 49 43 30 50 43 30 50 42 29 49 40 28 48 40 28 50 41 29 51 42 30 50 42 30 50 43 31 53 42 29 49 42 30 50 42 31 48 45 32 52 45 32 52 42 27 46 40 27 45 40 27 45 40 27 45 36 25 42 36 25 42 35 24 41 35 24 41 35 24 41 36 25 42 37 26 42 37 26 42 39 26 43 40 27 44 41 28 45 43 30 47 43 30 47 47 33 48 47 33 48 47 30 48 48 31 49 49 32 50 49 32 50 49 32 50 49 32 50 48 31 49 48 31 49 48 31 49 50 33 51 48 31 49 48 31 49 48 31 49 49 32 50 50 33 49 50 36 49 51 37 50 51 39 51 54 38 51 58 37 52 46 19 38 41 14 31 92 71 88 100 79 94 66 60 70 65 57 68 53 43 54 78 64 79 121 98 114 129 102 117 142 109 126 130 99 115 122 94 109 84 64 75 70 54 64 21 19 22 20 18 21 59 53 57 79 68 76 137 110 125 143 112 127 151 116 136 143 108 128 135 102 123 127 94 113 122 91 109 131 102 120 133 104 122 150 121 143 151 122 144 157 127 151 156 126 150 155 123 147 153 120 147 151 117 141 154 116 141 154 119 139 157 117 141 158 118 142 163 124 142 163 126 143 
41 29 49 41 29 49 39 27 47 38 26 46 37 25 45 37 25 45 35 23 43 35 23 43 35 23 43 37 25 47 39 27 47 38 26 48 37 25 45 39 27 47 38 26 48 39 26 46 38 26 46 41 30 47 43 30 50 43 30 50 42 29 47 42 29 47 42 29 47 42 29 47 40 29 46 39 28 45 38 27 44 40 27 45 39 28 44 40 29 45 41 30 46 42 29 46 42 29 46 42 29 46 42 29 46 46 32 49 44 31 48 48 34 49 48 34 49 50 33 51 50 33 51 49 32 50 51 34 52 50 33 51 50 33 51 50 33 51 50 33 51 49 32 50 49 32 50 49 32 50 50 33 51 49 32 50 47 33 50 47 33 50 48 36 50 50 36 49 50 33 49 55 32 50 55 32 50 48 23 42 46 19 38 110 89 106 122 99 117 93 81 95 89 77 91 55 44 58 77 65 79 113 95 111 124 99 118 136 105 123 134 103 121 130 99 115 93 71 83 82 62 73 37 30 37 35 28 35 56 46 54 72 59 68 126 99 114 136 105 123 154 116 137 147 112 134 140 107 128 128 95 114 121 90 106 127 98 116 129 100 118 149 120 142 149 119 143 159 129 155 157 127 153 154 121 148 154 122 146 153 117 145 156 118 143 159 119 145 161 119 143 161 119 141 158 122 134 159 123 133 
40 28 48 40 28 48 39 27 47 37 25 45 36 24 44 36 24 44 34 22 42 34 22 42 35 23 43 36 24 46 36 24 44 37 25 47 37 25 45 38 26 46 37 25 47 39 26 46 39 27 47 40 29 46 42 29 49 44 31 51 43 30 48 42 29 47 43 30 48 42 29 47 41 30 47 41 30 47 40 29 46 40 27 45 40 29 45 41 30 46 43 32 48 43 30 47 43 30 47 42 29 46 42 29 46 45 31 48 45 32 49 50 36 51 50 36 51 50 33 51 51 34 52 52 35 53 52 35 53 51 34 52 51 34 52 50 33 51 50 33 51 50 33 51 49 32 50 49 32 50 49 32 50 49 32 50 49 32 50 50 33 51 48 36 50 48 34 51 50 33 49 55 32 50 55 30 49 48 23 42 46 21 40 114 93 110 123 102 119 97 85 99 93 81 95 58 46 60 78 64 79 112 94 110 123 99 115 134 103 121 133 102 118 131 100 116 94 72 84 83 63 74 39 32 39 35 30 36 55 45 53 72 59 68 121 97 111 136 104 125 153 118 140 147 112 134 141 108 129 130 97 114 121 90 106 127 98 116 127 98 116 147 118 140 149 119 143 159 129 155 157 127 153 154 121 148 153 120 147 154 118 146 157 119 144 159 119 145 160 120 146 162 119 146 158 122 132 158 122 132 
40 28 48 40 28 48 40 28 48 39 27 47 39 27 47 38 26 46 38 26 46 37 25 47 37 25 47 34 22 42 32 20 42 34 22 42 35 23 43 37 25 45 38 26 48 41 28 48 40 28 48 41 30 47 42 29 49 41 28 48 43 28 47 43 30 48 43 30 48 42 29 47 45 34 51 45 34 51 45 32 50 43 32 49 43 32 48 45 32 50 45 32 50 43 30 47 43 30 47 42 28 45 42 28 45 42 28 45 41 27 44 44 30 45 45 31 46 52 35 53 51 34 52 50 33 51 50 33 51 50 33 51 51 34 52 51 34 52 50 33 51 50 33 51 48 31 49 48 31 49 47 30 48 47 30 48 47 30 46 46 29 47 42 30 42 48 32 45 53 32 47 60 33 50 66 33 54 56 27 45 53 26 43 113 90 108 123 100 116 119 105 118 112 98 111 74 60 73 85 68 84 99 85 98 115 92 108 130 98 119 137 106 122 142 109 126 115 84 99 101 77 90 69 56 65 64 53 61 65 55 64 74 63 71 110 86 100 126 97 115 149 114 134 149 114 136 147 113 137 136 103 122 129 98 113 127 99 114 127 98 116 142 112 136 144 114 138 157 127 155 157 127 155 155 122 151 157 123 150 155 120 144 156 121 143 159 120 141 160 118 138 160 118 138 152 115 122 151 112 117 
40 28 50 39 27 49 41 29 51 41 29 51 41 30 47 39 27 47 38 26 46 39 27 49 38 26 48 34 22 42 34 22 44 35 23 43 34 22 42 37 25 45 37 25 47 40 27 47 40 28 48 41 30 47 41 28 48 41 28 48 42 29 47 43 30 48 43 30 48 43 30 48 46 33 51 45 34 51 44 33 50 43 32 49 43 32 48 45 33 47 45 32 49 43 30 48 42 29 46 42 28 45 41 27 44 42 28 45 42 28 45 44 30 45 45 31 46 50 33 51 50 33 51 50 33 51 50 33 51 50 33 51 50 33 51 50 33 51 50 33 51 50 33 51 48 31 49 48 31 49 47 30 48 47 30 48 44 31 48 47 30 48 41 29 41 49 33 46 57 33 49 62 35 54 67 36 54 59 30 48 55 28 45 109 88 103 117 99 113 122 106 119 115 99 112 79 61 75 87 69 83 100 84 97 114 91 107 127 98 116 136 105 121 142 109 126 117 86 101 105 79 92 71 58 67 65 55 63 65 55 63 76 65 73 108 86 99 125 97 112 149 114 134 148 113 135 147 113 137 135 104 120 130 99 114 127 98 116 126 97 115 142 113 135 144 114 138 157 127 155 157 127 155 157 124 153 157 123 150 156 120 146 157 119 142 158 120 141 158 119 138 159 118 136 151 115 119 149 113 115 
40 31 50 41 32 51 42 33 52 42 33 52 41 34 50 42 33 52 41 32 53 41 32 53 40 31 52 37 28 49 39 27 47 37 25 45 39 27 47 38 26 46 39 27 49 42 29 49 40 28 48 38 27 44 38 25 45 37 24 44 41 28 46 43 32 49 43 32 49 44 31 49 42 29 47 42 29 47 42 29 47 41 30 47 40 29 45 42 29 46 42 29 46 41 28 46 41 27 44 40 26 43 39 25 42 42 25 43 40 26 43 41 27 42 42 28 43 49 32 50 48 31 49 47 30 48 47 30 48 47 30 48 48 31 49 48 31 49 48 31 49 48 31 49 47 30 48 47 30 48 45 28 46 45 28 46 44 27 45 45 28 44 46 30 43 59 37 50 75 44 60 83 50 69 87 52 72 75 48 63 71 44 59 94 78 89 98 82 93 130 108 121 128 104 118 103 79 93 103 79 93 100 78 91 112 88 104 126 97 115 140 107 126 149 114 134 129 96 113 123 90 107 89 72 82 86 70 80 77 66 74 83 70 80 102 79 95 119 90 108 143 108 130 146 111 135 149 115 140 142 111 127 138 107 122 131 102 120 130 101 119 139 109 133 140 110 134 155 125 153 155 125 153 159 126 153 158 126 150 155 120 142 156 119 137 156 117 135 155 115 126 153 113 124 147 111 115 147 111 113 
41 32 51 40 31 50 41 32 51 41 32 51 41 32 53 41 31 55 40 31 50 40 31 50 42 30 50 41 29 49 40 29 46 40 28 50 40 29 46 39 27 47 39 27 47 40 28 48 40 29 46 39 26 46 38 25 45 37 24 44 41 28 46 44 31 49 44 31 49 45 32 50 42 29 47 42 29 47 41 28 46 42 29 47 42 29 46 42 29 46 42 29 46 41 28 45 42 28 45 42 28 45 40 26 43 44 27 45 44 27 43 44 27 43 45 28 44 48 31 49 49 32 48 45 31 48 47 30 48 47 30 46 49 31 47 48 31 47 47 33 50 47 33 50 48 31 49 48 31 49 44 27 45 45 28 46 45 28 46 46 29 45 49 33 44 64 42 55 79 48 64 90 56 73 96 59 77 82 54 69 76 52 66 94 76 88 96 78 90 129 107 120 125 103 116 110 83 98 106 82 95 101 79 92 114 87 102 125 96 116 142 107 127 151 114 132 131 97 114 126 93 110 94 74 85 84 71 80 79 69 77 84 71 81 101 79 92 117 90 107 140 107 128 144 111 130 149 114 138 143 109 126 141 109 124 131 102 122 129 100 118 138 108 132 141 111 137 155 125 153 156 126 154 159 126 153 158 124 149 157 119 142 157 118 136 155 117 132 154 114 123 153 113 122 147 112 116 146 112 113 
38 29 48 39 27 47 39 30 49 39 30 49 39 30 49 38 29 48 38 29 50 37 28 47 38 26 48 41 29 49 44 32 52 42 30 50 43 31 51 40 28 48 39 27 47 42 30 50 39 27 47 37 24 44 35 22 42 34 21 41 39 26 44 43 30 48 45 32 50 45 32 50 41 28 46 41 28 46 42 29 47 42 29 47 43 30 47 42 29 46 43 30 47 45 31 48 45 31 48 46 32 49 49 32 50 50 33 51 48 34 49 47 33 48 46 32 47 46 29 47 46 29 47 44 27 45 44 27 45 44 27 45 46 29 47 47 30 48 48 31 49 49 32 50 48 31 49 48 31 49 46 29 47 46 29 45 43 29 46 50 32 48 60 39 48 80 50 62 97 60 77 108 69 87 117 76 92 101 75 86 96 74 86 85 69 79 81 68 77 129 101 113 127 101 114 127 95 110 118 90 104 109 82 97 116 88 103 123 94 114 140 107 126 151 113 134 138 103 123 137 103 120 97 75 87 91 71 82 82 70 80 87 74 84 102 80 93 113 89 105 132 100 123 141 107 131 147 113 138 146 115 133 145 114 129 133 105 120 132 103 121 136 108 133 139 109 133 154 121 150 155 122 151 159 125 150 158 124 148 154 119 139 154 118 132 152 115 123 152 113 118 150 111 114 149 113 115 149 113 115 
36 27 46 37 28 47 38 29 48 38 29 48 39 30 49 39 30 49 39 30 49 38 29 50 40 28 48 41 29 51 42 30 50 42 30 50 42 30 52 40 28 48 41 29 51 42 30 50 40 28 48 36 23 41 36 23 43 33 20 40 39 26 44 42 29 47 43 30 48 44 31 49 40 27 45 40 27 45 43 30 48 41 28 46 43 30 47 42 29 46 43 29 46 44 30 47 45 31 48 46 32 49 50 33 51 48 34 51 48 34 51 46 32 47 46 32 47 47 30 48 47 30 48 44 27 45 43 26 44 42 28 45 46 29 47 48 31 49 49 32 50 50 33 51 49 32 50 48 31 49 47 30 48 46 29 47 45 28 46 51 33 49 66 42 55 83 52 67 101 62 80 115 74 88 122 79 96 106 82 96 104 83 92 85 70 77 82 66 76 125 99 112 126 98 112 128 96 111 123 91 106 110 84 95 115 87 102 119 92 109 138 105 124 150 112 133 142 104 127 137 102 122 94 72 85 90 70 81 83 71 81 88 75 85 102 81 96 115 88 105 130 98 119 142 104 127 149 114 138 147 114 133 143 115 127 133 104 122 132 103 123 139 107 131 138 108 132 152 122 150 153 123 151 159 126 153 157 124 145 155 121 138 153 117 129 150 115 122 152 113 114 151 113 112 151 115 115 153 114 117 
38 26 46 36 27 46 38 29 48 38 29 48 39 30 49 39 30 49 38 29 48 38 29 48 40 28 48 40 28 50 40 28 50 42 30 50 40 28 50 41 29 49 41 29 49 45 33 53 42 30 50 39 26 44 36 23 43 34 21 41 39 24 43 41 28 46 40 27 45 42 29 47 39 26 44 40 27 45 41 28 46 42 29 47 42 29 46 42 29 46 43 29 46 44 30 47 45 31 48 47 33 50 50 33 51 49 35 52 49 35 52 47 30 46 47 30 46 47 30 48 47 30 46 44 27 45 43 26 44 43 26 44 46 29 47 48 31 49 50 33 51 49 35 50 52 35 53 51 34 52 49 32 50 48 31 49 48 29 48 52 34 50 73 47 60 89 57 70 108 67 85 122 79 98 128 87 105 120 94 105 116 96 105 82 69 78 77 64 73 120 92 106 123 92 107 135 96 114 127 93 107 115 87 99 116 88 103 113 89 105 136 101 121 147 109 130 145 106 127 143 106 124 91 69 82 86 66 78 82 70 80 90 74 85 106 83 99 112 88 104 127 94 115 135 102 123 145 111 135 145 113 134 148 114 131 134 105 125 132 103 123 136 104 128 136 106 134 151 121 147 152 122 148 158 126 150 157 124 143 154 120 134 153 117 127 149 114 118 152 114 111 151 114 108 154 118 118 156 117 120 
38 29 48 39 27 47 38 26 46 39 27 47 38 26 48 38 26 46 39 27 47 39 27 47 40 28 48 39 27 49 39 27 49 40 28 50 40 28 50 41 29 49 41 29 49 44 32 52 43 31 51 41 28 48 38 25 45 36 23 43 39 26 44 40 27 45 39 26 44 40 27 45 39 26 44 38 25 43 42 27 46 42 27 46 42 29 46 43 29 46 44 30 47 43 30 47 47 30 48 47 33 50 47 33 50 48 34 51 50 33 51 47 30 46 48 31 47 44 30 47 44 30 47 44 30 47 43 29 46 41 29 43 43 29 44 44 30 45 49 32 48 49 32 48 51 34 50 51 34 50 49 32 50 50 31 50 50 31 50 57 36 51 77 51 60 92 62 72 106 73 84 120 84 98 128 92 106 127 96 111 124 98 111 96 74 87 93 69 82 110 82 96 115 84 100 134 102 117 128 96 111 115 87 102 114 87 104 113 89 103 131 100 116 138 105 122 142 108 125 147 110 128 100 73 88 92 68 82 86 68 82 89 73 86 104 83 98 109 86 102 118 91 110 129 100 120 142 110 131 143 114 132 142 115 132 136 107 127 135 106 128 136 102 129 138 104 131 151 117 142 154 120 145 160 127 146 158 124 140 154 118 128 154 114 123 151 110 118 153 114 117 152 113 116 155 117 128 155 119 129 
39 27 47 41 29 49 36 25 42 36 24 44 35 23 43 36 24 44 36 25 42 38 27 44 39 28 45 39 27 47 38 26 48 40 28 50 41 29 49 39 27 47 39 27 47 44 32 54 43 31 51 42 30 50 37 25 45 37 25 45 37 26 43 37 26 43 37 26 43 37 26 43 37 24 42 38 25 43 40 25 44 41 26 45 43 29 46 42 28 45 44 30 47 44 30 47 47 30 48 47 33 50 47 33 50 49 32 50 50 33 51 48 31 49 48 31 49 45 30 49 44 31 49 44 31 48 42 30 44 43 31 45 42 30 44 42 28 41 45 31 44 47 31 44 50 33 49 52 34 50 51 32 51 52 33 52 54 35 54 61 40 55 81 54 59 93 66 73 105 78 85 120 90 100 127 97 107 129 98 114 131 98 115 109 78 94 107 74 91 100 71 89 107 76 94 135 107 122 127 98 116 115 88 103 112 88 102 113 89 105 123 96 111 130 102 116 143 113 125 147 114 131 110 79 95 100 73 88 89 67 80 93 71 84 102 86 99 106 85 100 110 87 103 123 99 115 139 112 129 140 113 130 139 115 131 138 110 132 138 108 132 134 100 127 137 101 127 156 116 142 157 117 141 164 127 144 160 122 135 157 115 125 153 110 119 149 107 117 154 112 122 155 115 126 152 118 135 156 118 139 
42 29 49 41 29 49 39 26 46 40 27 47 38 25 45 38 25 45 39 26 46 40 27 47 41 28 46 41 27 50 41 27 52 41 27 52 41 29 49 38 26 46 39 27 47 40 28 48 41 29 49 40 28 50 38 26 46 36 25 42 38 27 44 38 27 44 39 28 45 39 28 45 37 24 42 37 24 42 41 26 45 41 26 45 42 28 45 42 28 45 43 29 46 44 30 47 46 29 47 45 31 48 45 31 48 48 31 49 48 31 49 48 31 47 47 30 46 50 33 52 48 33 52 50 33 52 47 33 50 43 29 44 42 28 43 41 27 42 43 31 45 45 31 44 50 34 47 52 34 48 54 36 52 54 36 52 56 38 54 64 42 55 86 57 61 96 66 74 106 76 86 118 86 97 123 93 103 131 100 115 136 104 119 114 81 98 110 79 95 99 68 86 102 73 91 129 101 116 123 96 111 118 92 105 114 88 101 109 85 98 118 91 106 123 95 110 142 110 125 146 114 129 115 84 100 109 80 100 95 73 86 97 74 90 105 84 99 106 83 99 107 83 99 119 92 109 129 100 118 136 109 128 142 115 134 141 112 134 139 109 133 138 102 130 139 103 131 152 112 138 155 113 135 164 123 139 160 120 131 155 114 122 154 112 122 151 109 121 155 114 130 158 116 130 156 118 139 156 118 139 
42 30 50 43 31 51 39 27 47 39 27 47 39 26 44 39 26 44 39 26 46 39 25 48 40 27 45 41 27 50 41 27 52 41 27 50 40 28 48 38 26 46 38 26 46 40 28 48 41 29 49 40 27 47 39 26 46 38 25 43 40 27 45 40 27 45 40 27 45 40 27 45 38 25 43 38 25 43 41 26 45 41 26 45 42 28 45 42 28 45 42 28 45 43 29 46 43 30 47 44 30 47 46 29 47 46 32 49 48 31 49 45 31 48 48 31 47 51 34 52 51 34 52 50 33 52 46 32 49 44 30 45 42 28 43 41 27 40 44 30 43 46 32 45 50 33 49 50 33 49 54 36 52 54 36 52 57 38 57 66 44 57 88 58 66 98 68 76 106 76 84 116 86 96 123 91 104 133 102 117 137 105 120 115 82 101 110 79 95 99 68 86 100 71 89 128 100 115 125 97 112 118 92 105 112 88 101 109 85 98 117 89 104 121 93 108 138 107 123 145 111 128 118 87 103 111 82 100 97 75 88 98 76 89 105 82 98 106 83 99 107 83 99 117 90 107 127 98 116 135 108 127 142 114 136 140 110 134 139 109 133 139 103 129 140 104 130 150 112 133 153 114 135 161 123 138 158 118 129 154 113 119 153 113 121 153 111 121 156 115 129 159 117 131 156 118 139 156 118 139 
44 32 52 44 32 52 41 29 49 41 29 49 39 27 47 40 28 50 40 27 45 39 26 44 40 27 47 41 28 48 42 29 49 42 30 52 43 30 50 39 26 44 39 26 46 40 27 47 40 27 45 39 26 46 39 26 46 39 26 43 43 28 47 40 29 46 42 27 46 41 28 46 39 26 44 38 25 43 41 26 45 41 26 45 41 26 45 42 28 45 40 25 44 40 26 43 41 27 44 42 28 45 45 31 48 47 30 48 49 32 48 49 32 48 49 32 50 55 36 55 53 36 54 51 34 52 50 33 51 47 30 48 44 30 45 43 29 42 44 30 43 46 32 45 47 33 46 49 33 46 53 35 49 54 36 50 60 40 52 69 46 56 90 59 65 98 65 74 103 73 81 111 79 90 114 84 96 132 101 116 137 105 120 124 93 109 123 92 108 98 69 87 101 72 90 119 91 106 118 90 105 118 92 105 113 86 101 105 81 94 110 83 98 112 84 99 134 101 118 141 106 126 123 92 108 119 88 104 107 83 99 107 84 100 111 90 105 112 89 105 111 87 103 119 90 110 126 93 112 135 105 129 141 112 134 145 111 136 144 111 138 141 106 130 142 107 131 148 109 127 148 109 127 154 114 125 154 114 123 153 111 121 157 113 126 156 114 128 158 116 136 160 118 140 157 118 145 158 119 146 
44 32 52 44 32 52 42 30 50 42 30 50 40 28 48 41 28 48 40 27 47 40 29 45 40 27 45 42 29 49 42 29 49 43 30 50 42 30 50 37 26 43 38 26 46 38 26 46 38 26 46 38 27 44 37 26 43 38 27 44 41 30 47 43 30 48 41 28 48 40 27 45 37 26 43 37 26 43 40 25 44 41 26 45 42 27 46 41 27 44 39 24 43 39 25 42 42 25 43 42 28 45 43 29 46 48 31 49 48 31 49 50 33 49 50 31 51 54 36 52 54 36 52 52 33 52 51 34 52 45 31 48 46 29 47 44 30 45 45 31 46 45 31 44 47 33 46 49 33 46 53 35 47 53 35 49 62 42 54 68 44 57 92 61 67 99 66 75 103 72 80 110 78 91 113 81 94 131 99 114 137 106 121 126 95 111 125 92 109 99 70 88 101 72 90 116 88 103 118 90 105 120 92 106 110 86 100 104 80 94 109 83 96 111 83 97 132 99 116 139 104 124 123 92 108 120 89 105 105 81 97 109 85 101 113 90 106 114 91 107 113 86 103 118 90 105 125 92 111 133 104 126 141 112 134 145 115 139 146 114 138 143 109 133 143 108 132 146 107 125 148 110 125 154 114 125 154 112 122 153 112 120 155 113 125 155 115 126 160 117 136 161 119 141 159 121 146 158 119 146 
