P3
100 50
255
107 79 42 106 78 41 107 79 42 108 80 43 107 79 42 107 79 42 108 80 43 107 79 42 107 79 42 107 79 42 108 80 43 108 80 43 107 79 42 107 79 42 107 79 42 108 80 43 108 80 43 108 80 43 107 79 42 108 80 43 107 79 42 107 79 42 107 79 42 108 80 43 107 79 42 107 79 42 107 79 42 107 79 42 108 80 43 107 79 42 107 79 42 107 79 42 107 79 42 107 79 42 107 79 42 108 80 43 107 79 42 107 79 42 107 79 42 109 81 44 107 79 42 108 80 41 107 79 42 109 81 42 107 79 42 109 81 42 107 79 42 107 79 40 107 79 42 107 79 42 108 80 43 107 79 42 107 79 42 108 80 43 106 78 41 108 80 43 107 79 42 108 80 43 106 78 41 106 78 41 108 80 43 108 80 43 107 79 42 107 79 42 108 80 43 109 81 44 107 79 42 107 79 42 107 79 42 108 80 43 107 79 42 107 79 42 107 79 42 108 80 43 107 79 42 108 80 43 107 79 42 107 79 42 107 79 42 108 80 43 107 79 42 107 79 42 108 80 43 108 80 43 107 79 42 107 79 42 108 80 43 107 79 42 107 79 42 107 79 42 108 80 43 107 79 42 108 80 43 108 80 43 108 80 43 108 80 43 107 79 42 107 79 42 108 80 43 108 80 43 
107 79 42 107 79 42 108 80 43 107 79 42 107 79 42 107 79 42 107 79 42 108 80 43 108 80 43 107 79 42 107 79 42 107 79 42 108 80 43 108 80 43 108 80 43 107 79 42 107 79 42 108 80 43 107 79 42 107 79 42 107 79 42 107 79 42 107 79 42 107 79 42 107 79 42 108 80 43 107 79 42 107 79 42 107 79 42 107 79 42 107 79 42 108 80 43 107 79 42 107 79 42 108 80 43 108 80 43 107 79 42 107 79 42 108 80 43 108 80 43 112 79 44 108 80 41 108 80 43 108 78 40 108 80 43 107 79 40 108 80 43 108 80 43 108 80 43 107 79 42 109 81 44 108 80 43 107 79 42 107 79 42 107 79 42 108 80 43 108 80 43 107 79 42 108 80 43 107 79 42 107 79 42 108 80 43 107 79 42 107 79 42 108 80 43 108 80 43 108 80 43 107 79 42 107 79 42 107 79 42 107 79 42 107 79 42 107 79 42 107 79 42 108 80 43 106 78 41 108 80 43 107 79 42 107 79 42 108 80 43 108 80 43 107 79 42 107 79 42 107 79 42 108 80 43 108 80 43 107 79 42 107 79 42 107 79 42 107 79 42 108 80 43 107 79 42 108 80 43 108 80 43 107 79 42 108 80 43 107 79 42 107 79 42 108 80 43 108 80 43 
108 80 43 107 79 42 108 80 43 108 80 43 108 80 43 107 79 42 108 80 43 107 79 42 109 79 43 108 78 42 108 78 42 107 79 42 107 79 42 107 79 42 108 80 43 107 79 42 107 79 42 107 79 42 107 79 42 107 79 42 107 79 42 107 79 42 107 79 42 107 79 42 108 80 43 107 79 42 107 79 42 108 80 43 107 79 42 108 80 43 107 79 42 107 79 42 108 80 43 107 79 42 107 79 42 108 80 43 108 80 43 107 79 42 109 81 44 108 80 43 108 80 43 107 79 42 108 80 43 107 79 42 107 79 42 107 79 42 106 78 41 108 80 43 108 80 43 107 79 42 106 78 41 108 80 43 108 80 43 108 80 43 108 80 43 107 79 42 107 79 42 108 80 43 108 80 43 107 79 42 107 79 42 108 80 43 107 79 42 108 80 43 107 79 42 108 80 43 107 79 42 107 79 42 108 80 43 108 80 43 107 79 42 107 79 42 107 79 42 108 80 43 108 80 43 108 80 43 108 80 43 107 79 42 108 80 43 107 79 42 107 79 42 107 79 42 107 79 42 108 80 43 107 79 42 107 79 42 108 80 43 107 79 42 107 79 42 107 79 42 107 79 42 106 78 41 108 80 43 108 80 43 107 79 42 107 79 42 107 79 42 107 79 42 107 79 42 108 80 43 
107 79 42 107 79 42 108 80 43 108 80 43 108 80 43 107 79 42 108 80 43 107 79 42 108 80 43 108 80 43 107 79 42 107 79 42 108 80 43 108 80 43 107 79 42 107 79 42 107 79 42 107 79 42 107 79 42 107 79 42 107 79 42 108 80 43 107 79 42 107 79 42 107 79 42 108 80 43 107 79 42 107 79 42 108 80 43 108 80 43 107 79 42 107 79 42 107 79 42 107 79 42 108 80 43 108 80 43 107 79 42 108 80 43 107 79 42 108 80 43 108 80 43 108 80 43 108 80 43 107 79 42 107 79 42 109 79 43 108 78 42 108 80 43 107 79 42 107 79 42 107 79 42 107 79 42 107 79 42 107 79 42 107 79 42 107 79 42 107 79 42 107 79 42 107 79 42 107 79 42 108 80 43 107 79 42 108 80 43 108 80 43 107 79 42 107 79 42 108 80 43 108 80 43 107 79 42 108 80 43 107 79 42 107 79 42 107 79 42 107 79 42 107 79 42 107 79 42 106 78 41 108 80 43 107 79 42 107 79 42 107 79 42 107 79 42 108 80 43 107 79 42 107 79 42 107 79 42 107 79 42 108 80 43 106 78 41 107 79 42 107 79 42 107 79 42 107 79 42 107 79 42 108 80 43 107 79 42 108 80 43 108 80 43 108 80 43 107 79 42 
107 79 42 107 79 42 108 80 43 108 80 43 107 79 42 107 79 42 108 80 43 108 80 43 105 79 42 107 79 42 107 79 42 107 79 42 107 79 42 107 79 42 107 79 42 107 79 42 107 79 42 107 79 42 107 79 42 107 79 42 107 79 42 108 80 43 107 79 42 108 80 43 107 79 42 107 79 42 108 80 43 107 79 42 107 79 42 107 79 42 107 79 42 108 80 43 107 79 42 107 79 42 107 79 42 107 79 42 108 80 43 107 79 42 107 79 42 108 80 43 109 79 43 108 80 43 107 79 42 107 79 42 107 79 42 107 79 42 107 79 42 107 79 42 106 78 41 107 79 42 107 79 42 107 79 42 107 79 42 107 79 42 107 79 42 108 80 43 107 79 42 108 80 43 108 80 43 106 78 41 108 80 43 108 80 43 108 80 43 107 79 42 108 80 43 108 80 43 107 79 42 107 79 42 107 79 42 107 79 42 107 79 42 107 79 42 108 80 43 107 79 42 107 79 42 107 79 42 107 79 42 107 79 42 108 80 43 107 79 42 107 79 42 107 79 42 107 79 42 107 79 42 107 79 42 107 79 42 108 80 43 107 79 42 107 79 42 107 79 42 108 80 43 107 79 42 107 79 42 108 80 43 107 79 42 108 80 43 107 79 42 108 80 43 107 79 42 108 80 43 
107 79 42 107 79 42 107 79 42 107 79 42 107 79 42 107 79 42 107 79 42 107 79 42 107 79 42 108 80 43 107 79 42 107 79 42 109 81 44 108 80 43 107 79 42 108 80 43 108 80 43 107 79 42 107 79 42 107 79 42 108 80 43 107 79 42 107 79 42 108 80 43 107 79 42 107 79 42 108 80 43 108 80 43 107 79 42 107 79 42 108 80 43 107 79 42 106 78 41 107 79 42 107 79 42 107 79 42 107 79 42 107 79 42 107 79 42 108 80 43 108 80 43 107 79 42 107 79 42 107 79 42 107 79 42 107 79 42 107 79 42 107 79 42 107 79 42 107 79 42 107 79 42 107 79 42 107 79 42 108 80 43 107 79 42 107 79 42 107 79 42 107 79 42 107 79 42 107 79 42 107 79 42 107 79 42 107 79 42 107 79 42 107 79 42 107 79 42 108 80 43 107 79 42 107 79 42 107 79 42 107 79 42 107 79 42 107 79 42 107 79 42 107 79 42 107 79 42 108 80 43 107 79 42 107 79 42 107 79 42 107 79 42 107 79 42 107 79 42 107 79 42 107 79 42 107 79 42 107 79 42 107 79 42 108 80 43 108 80 43 107 79 42 107 79 42 108 80 43 108 80 43 107 79 42 107 79 42 108 80 43 107 79 42 107 79 42 107 79 42 
107 79 42 106 78 41 108 80 43 108 80 43 107 79 42 107 79 42 107 79 42 107 79 42 104 78 41 104 78 41 105 79 42 107 79 42 106 78 41 106 78 41 107 79 42 107 79 42 107 79 42 107 79 42 107 79 42 106 78 41 108 80 43 107 79 42 107 79 42 106 78 41 107 79 42 107 79 42 107 79 42 107 79 42 107 79 42 108 80 43 107 79 42 107 79 42 107 79 42 107 79 42 107 79 42 107 79 42 108 80 43 107 79 42 108 80 43 107 79 42 108 80 43 107 79 42 107 79 42 107 79 42 107 79 42 107 77 41 109 79 43 107 79 42 107 79 42 107 79 42 107 79 42 108 80 43 106 78 41 107 79 42 107 79 42 107 79 42 107 79 42 107 79 42 107 79 42 107 79 42 107 79 42 108 80 43 107 79 42 107 79 42 107 79 42 107 79 42 107 79 42 107 79 42 107 79 42 107 79 42 108 80 43 107 79 42 107 79 42 107 79 42 107 79 42 107 79 42 107 79 42 107 79 42 107 79 42 107 79 42 107 79 42 107 79 42 107 79 42 107 79 42 107 79 42 107 79 42 107 79 42 107 79 42 107 79 42 108 80 43 107 79 42 107 79 42 107 79 42 108 80 43 106 78 41 107 79 42 107 79 42 107 79 42 107 79 42 107 79 42 
107 79 42 107 79 42 107 79 42 107 79 42 107 79 42 106 78 41 108 80 43 107 79 42 108 80 43 108 80 43 107 79 42 107 79 42 107 79 42 108 80 43 107 79 42 107 79 42 107 79 42 107 79 42 107 79 42 107 79 42 108 80 43 107 79 42 107 79 42 106 78 41 107 79 42 107 79 42 107 79 42 107 79 42 107 79 42 107 79 42 108 80 43 107 79 42 107 79 42 107 79 42 107 79 42 107 79 42 107 79 42 108 80 43 107 79 42 108 80 43 107 79 42 106 78 41 108 80 43 107 79 42 107 79 42 107 79 42 107 79 42 107 79 42 108 80 43 107 79 42 106 78 41 107 79 42 107 79 42 107 79 42 106 78 41 106 78 41 107 79 42 107 79 42 107 79 42 106 78 41 107 79 42 108 80 43 106 78 41 107 79 42 107 79 42 107 79 42 108 80 43 108 80 43 107 79 42 107 79 42 107 79 42 106 78 41 107 79 42 107 79 42 107 79 42 107 79 42 107 79 42 107 79 42 107 79 42 107 79 42 107 79 42 107 79 42 107 79 42 107 79 42 107 79 42 107 79 42 107 79 42 107 79 42 107 79 42 107 79 42 107 79 42 107 79 42 107 79 42 108 80 43 107 79 42 107 79 42 107 79 42 107 79 42 108 80 43 107 79 42 
107 79 42 107 79 42 107 79 42 107 79 42 106 78 41 107 79 42 107 79 42 105 77 40 107 79 42 107 79 42 107 79 42 107 79 42 107 79 42 108 80 43 107 79 42 107 79 42 108 80 43 106 78 41 107 79 42 107 79 42 107 79 42 107 79 42 108 80 43 107 79 42 108 80 43 107 79 42 108 80 43 108 80 43 107 79 42 107 79 42 107 79 42 107 79 42 107 79 42 107 79 42 107 79 42 106 78 41 107 79 42 107 79 42 107 79 42 107 79 42 107 79 42 107 79 42 107 79 42 107 79 42 107 79 42 107 79 42 107 79 42 107 79 42 108 80 43 107 79 42 107 79 42 107 79 42 108 80 43 108 80 43 106 78 41 107 79 42 106 78 41 107 79 42 107 79 42 107 79 42 107 79 42 107 79 42 106 78 41 107 79 42 107 79 42 107 79 42 107 79 42 107 79 42 107 79 42 107 79 42 107 79 42 107 79 42 107 79 42 106 78 41 107 79 42 107 79 42 107 79 42 107 79 42 107 79 42 107 79 42 107 79 42 107 79 42 107 79 42 107 79 42 106 78 41 107 79 42 107 79 42 106 78 41 106 78 41 107 79 42 107 79 42 107 79 42 107 79 42 107 79 42 107 79 42 107 79 42 107 79 42 107 77 41 107 79 42 108 78 42 
107 79 40 107 79 42 106 78 41 107 79 42 108 80 43 107 79 42 107 79 42 108 80 41 107 79 42 107 79 42 107 79 42 108 80 43 107 79 42 107 79 42 107 79 42 107 79 42 107 79 42 107 79 42 106 78 41 107 79 42 107 79 42 106 78 41 106 78 41 107 79 42 106 78 41 106 78 41 107 79 42 107 79 42 107 79 42 107 79 42 107 79 42 107 79 42 107 79 42 108 80 43 106 78 41 107 79 42 108 80 43 108 80 43 106 78 41 108 80 43 107 79 42 107 79 42 107 79 42 107 79 42 107 79 42 106 78 41 106 78 41 107 79 42 107 79 42 107 79 42 108 80 43 107 79 42 108 80 43 107 79 42 107 79 42 107 79 42 107 79 42 107 79 42 107 79 42 107 79 42 107 79 42 107 79 42 108 80 43 107 79 42 107 79 42 107 79 42 107 79 42 106 78 41 106 78 41 108 80 43 107 79 42 107 79 42 106 78 41 107 79 42 108 80 43 107 79 42 107 79 42 107 79 42 107 79 42 107 79 42 108 80 43 107 79 42 107 79 42 107 79 42 106 78 41 106 78 41 107 79 42 107 79 42 107 79 42 108 80 43 106 78 41 106 78 41 107 79 42 106 78 41 107 79 42 106 78 41 107 79 40 107 78 44 108 78 42 107 79 42 
107 79 42 107 79 42 107 79 42 107 79 42 107 79 42 107 79 42 106 78 41 106 78 41 108 80 43 108 80 43 108 80 43 107 79 42 108 80 43 108 80 43 107 79 42 106 78 41 107 79 42 106 78 41 107 79 42 106 78 41 106 78 41 106 78 41 107 79 42 106 78 41 108 80 43 106 77 43 107 79 40 108 80 41 106 77 43 107 79 42 108 80 43 107 79 42 108 80 43 107 79 42 107 79 42 108 80 43 107 79 42 107 79 42 107 79 42 107 79 42 107 79 42 106 78 41 107 79 42 107 79 42 107 79 42 107 79 42 107 79 42 107 79 42 107 79 42 106 78 41 107 79 42 108 80 43 107 79 42 106 78 41 107 79 42 107 79 42 107 79 42 107 79 42 106 78 41 107 79 42 107 79 42 107 79 42 107 79 42 106 78 41 107 79 42 107 79 42 107 79 42 107 79 42 106 78 41 107 79 42 106 78 41 107 79 42 107 79 42 107 79 42 106 78 41 106 78 41 107 79 42 107 79 42 106 78 41 107 79 42 107 79 42 107 79 42 106 78 41 105 77 40 107 79 42 107 79 42 106 78 41 107 79 42 107 79 42 107 79 42 107 79 42 107 79 42 107 79 42 108 80 43 107 79 42 107 79 42 107 79 42 105 79 42 107 79 40 107 77 41 
107 79 39 106 78 41 107 79 42 106 78 41 107 79 42 107 79 42 107 79 42 107 79 39 107 79 42 106 78 41 107 79 42 107 79 42 108 80 43 106 78 41 107 79 42 106 78 41 107 79 42 107 79 42 106 78 41 108 80 43 107 79 42 107 79 42 108 80 43 107 79 42 107 79 42 107 79 42 107 79 42 107 79 42 107 79 42 107 79 42 106 78 41 106 78 41 108 80 43 107 79 42 106 78 41 108 80 43 106 78 41 107 79 42 107 79 42 106 78 41 106 78 41 107 79 42 106 78 41 107 79 42 107 79 42 108 80 43 107 79 42 108 80 43 107 79 42 107 79 42 107 79 42 107 79 42 107 79 42 106 78 41 107 79 42 106 78 41 106 78 41 106 78 41 107 79 42 107 79 42 107 79 42 105 77 40 106 78 41 107 79 42 107 79 42 106 78 41 106 78 41 108 80 43 107 79 42 107 79 42 107 79 42 108 80 43 107 79 42 107 79 42 107 79 42 107 79 42 107 79 42 107 79 42 107 79 42 107 79 42 107 79 42 107 79 42 107 79 42 107 79 42 106 78 41 108 80 43 107 79 42 107 79 42 106 78 41 105 77 40 107 79 42 107 79 42 106 78 41 106 78 41 107 79 42 107 79 42 108 80 43 107 79 40 107 79 42 107 79 42 
106 78 41 106 78 41 107 79 42 107 79 42 107 79 42 108 80 43 106 78 41 107 79 42 107 79 42 107 79 42 107 79 42 107 79 42 108 80 43 107 79 42 106 78 41 107 79 42 106 78 41 108 80 43 106 78 41 107 79 42 107 79 42 106 78 41 106 78 41 107 79 42 107 79 42 108 80 43 106 78 41 106 78 41 107 79 42 107 79 42 108 80 43 106 78 41 107 79 42 106 78 41 108 80 43 107 79 42 107 79 42 107 79 42 107 79 42 108 80 43 107 79 42 106 78 41 105 77 40 107 79 42 107 79 42 107 79 42 107 79 42 107 79 42 106 78 41 106 78 41 107 79 42 107 79 42 105 77 40 107 79 42 107 79 42 107 79 42 108 80 43 107 79 42 107 79 42 105 77 40 107 79 42 106 78 41 108 80 43 106 78 41 107 79 42 107 79 42 107 79 42 107 79 42 107 79 42 107 79 42 107 79 42 107 79 42 106 78 41 107 79 42 106 78 41 106 78 41 107 79 42 107 79 42 106 78 41 107 79 42 107 79 42 106 78 41 106 78 41 106 78 41 107 79 42 106 78 41 108 80 43 107 79 42 107 79 42 107 79 42 106 78 41 107 79 42 106 78 41 106 78 41 107 79 42 106 78 41 107 79 42 107 79 42 107 79 42 106 77 45 
107 79 40 107 79 42 107 79 42 107 79 42 107 79 42 107 79 42 107 79 42 107 79 40 108 80 43 107 79 42 106 78 41 108 80 43 107 79 42 107 79 42 106 78 41 106 78 41 107 79 42 107 79 42 107 79 42 107 79 42 107 79 42 107 79 42 107 79 42 107 79 42 106 78 41 107 79 42 107 79 42 106 78 39 107 78 44 107 78 44 106 78 39 106 78 41 106 78 41 107 79 42 107 79 42 106 78 41 107 79 42 108 80 43 107 79 42 106 78 41 107 79 42 106 78 41 106 78 41 106 78 41 108 80 43 108 80 43 107 79 42 107 79 42 106 78 41 107 79 42 107 79 42 107 79 42 107 79 42 107 79 42 106 78 41 106 78 41 106 78 41 107 79 42 106 78 41 106 78 41 107 79 42 106 78 41 108 80 43 107 79 42 107 79 42 106 78 41 107 79 42 107 79 42 107 79 42 108 80 43 107 79 42 107 79 42 107 79 42 107 79 42 106 78 41 107 79 42 106 78 41 108 80 43 107 79 42 107 79 42 106 78 41 107 79 42 107 79 42 108 80 43 107 79 42 106 78 41 107 79 42 107 79 42 108 80 43 107 79 42 107 79 42 107 79 42 108 80 43 107 79 42 107 79 42 107 79 42 107 79 42 107 79 42 107 79 42 106 78 41 
107 79 42 106 78 41 106 78 41 108 80 43 107 79 42 106 78 41 106 78 41 106 78 41 107 79 42 107 79 42 108 80 43 106 78 41 107 79 42 107 79 42 107 79 42 107 79 42 107 79 42 107 79 42 106 78 41 108 80 43 107 79 42 107 79 42 106 78 41 107 79 42 107 79 42 108 80 43 107 79 42 107 79 42 107 79 42 106 78 41 106 78 41 108 80 43 107 79 42 106 78 41 107 79 42 107 79 42 107 79 42 106 78 41 107 79 42 106 78 41 107 79 42 107 79 42 107 79 42 107 79 42 107 79 42 107 79 42 108 80 43 107 79 42 105 77 40 106 78 41 107 79 42 106 78 41 107 79 42 108 80 43 107 79 42 106 78 41 106 78 41 108 80 43 107 79 42 106 78 41 108 80 43 107 79 42 108 80 43 106 78 41 107 79 42 106 78 41 108 80 43 108 80 43 107 79 42 107 79 42 106 78 41 107 79 42 107 79 42 106 78 41 106 78 41 107 79 42 106 78 41 106 78 41 107 79 42 108 80 43 107 79 42 107 79 42 107 79 42 106 78 41 106 78 41 107 79 42 107 79 42 107 79 42 106 78 41 107 79 42 107 79 42 107 79 42 107 79 42 107 79 42 107 79 42 107 79 42 106 78 41 106 78 41 104 78 41 106 78 39 
107 79 42 107 79 42 107 79 42 107 79 42 108 80 43 107 79 42 106 78 41 107 79 42 107 79 42 107 79 42 106 78 41 106 78 41 106 78 41 107 79 42 107 79 42 107 79 42 106 78 41 107 79 42 107 79 42 107 79 42 107 79 42 107 79 42 106 78 41 107 79 42 107 79 42 106 78 41 107 79 42 107 79 42 107 79 42 107 79 42 106 78 41 107 79 42 107 79 42 108 80 43 107 79 42 106 78 41 108 80 43 107 79 42 107 79 42 107 79 42 108 80 43 107 79 42 107 79 42 107 79 42 107 79 42 106 78 41 106 78 41 107 79 42 107 79 42 107 79 42 107 79 42 106 78 41 107 79 42 106 78 41 107 79 42 107 79 42 107 79 42 106 78 41 106 78 41 108 80 43 107 79 42 106 78 41 107 79 42 107 79 42 107 79 42 107 79 42 107 79 42 107 79 42 106 78 41 107 79 42 107 79 42 106 78 41 106 78 41 106 78 41 107 79 42 108 80 43 106 78 41 107 79 42 107 79 42 106 78 41 107 79 42 107 79 42 106 78 41 106 78 41 108 80 43 107 79 42 106 78 41 107 79 42 108 80 43 107 79 42 107 79 42 107 79 42 107 79 42 107 79 42 107 79 42 107 79 42 105 79 42 106 78 41 107 79 40 107 79 42 
107 79 42 106 78 41 106 78 41 106 78 41 107 79 42 107 79 42 109 81 44 106 78 41 107 79 42 107 79 42 108 80 43 108 80 43 106 78 41 107 79 42 108 80 43 107 79 42 108 80 43 107 79 42 107 79 42 107 79 42 106 78 41 107 79 42 107 79 42 107 79 42 106 78 41 107 79 42 106 78 41 107 79 42 107 79 42 106 78 41 107 79 42 107 79 42 106 78 41 108 80 43 107 79 42 106 78 41 107 79 42 107 79 42 107 79 42 107 79 42 107 79 42 107 79 42 107 79 42 107 79 42 107 79 42 106 78 41 107 79 42 107 79 42 107 79 42 106 78 41 107 79 42 106 78 41 106 78 41 107 79 42 106 78 41 106 78 41 107 79 42 107 79 42 107 79 42 107 79 42 106 78 41 106 78 41 107 79 42 107 79 42 107 79 42 107 79 42 106 78 41 107 79 42 107 79 42 108 80 43 106 78 41 105 77 40 107 79 42 107 79 42 107 79 42 107 79 42 107 79 42 107 79 42 107 79 42 108 80 43 107 79 42 107 79 42 106 78 41 108 80 43 106 78 41 107 79 42 106 78 41 107 79 42 107 79 42 107 79 42 107 79 42 107 79 42 106 78 41 107 79 42 107 79 42 106 78 41 108 78 40 106 78 41 106 78 41 107 79 42 
108 80 43 107 79 42 105 77 40 106 78 41 106 78 41 108 80 43 107 79 42 108 80 43 107 79 42 106 78 41 106 78 41 107 79 42 106 78 41 107 79 42 108 80 43 107 79 42 106 78 41 108 80 43 107 79 42 107 79 42 107 79 42 107 79 42 107 79 42 107 79 42 106 78 41 108 80 43 107 79 42 107 79 42 107 79 42 106 78 41 106 78 41 106 78 41 106 78 41 107 79 42 107 79 42 107 79 42 106 78 41 107 79 42 107 79 42 106 78 41 107 79 42 107 79 42 107 79 42 106 78 41 106 78 41 107 79 42 107 79 42 107 79 42 107 79 42 107 79 42 106 78 41 107 79 42 107 79 42 107 79 42 107 79 42 106 78 41 106 77 43 107 78 44 107 79 42 107 78 44 107 79 42 107 79 42 107 79 42 107 79 42 107 79 42 107 79 42 107 79 40 107 79 42 107 79 42 106 78 41 106 78 41 107 79 42 107 79 42 106 78 41 108 80 43 107 79 42 106 78 41 107 79 42 106 78 41 107 79 42 106 78 41 107 79 42 107 79 42 108 80 43 106 78 41 107 79 42 106 78 41 107 79 42 106 78 41 106 78 41 106 78 41 107 79 42 106 78 41 107 79 42 106 78 41 106 78 41 107 79 42 107 79 40 107 79 42 107 79 40 
106 78 41 107 79 42 107 79 42 107 79 42 106 78 41 107 79 42 107 79 42 107 79 42 106 78 41 107 79 42 107 79 42 108 80 43 107 79 42 108 80 43 107 79 42 107 79 42 106 78 41 107 79 42 106 78 41 105 77 40 107 79 42 107 79 42 106 78 41 107 79 42 106 78 41 106 78 41 106 78 41 107 79 42 106 78 41 108 80 43 107 79 42 107 79 42 106 78 41 107 79 42 106 78 41 106 78 41 107 79 42 106 78 41 107 79 42 107 79 42 107 79 42 105 77 40 107 79 42 106 78 41 107 79 42 107 79 42 107 79 42 106 78 41 107 79 42 108 80 43 107 79 42 106 78 41 107 79 42 107 79 42 106 78 41 107 79 42 107 79 42 107 79 42 106 78 41 107 79 42 106 78 41 106 78 41 107 79 42 107 79 42 106 78 41 106 78 41 108 80 43 107 79 42 107 79 42 108 80 41 108 80 43 107 79 42 107 79 42 106 78 41 107 79 42 107 79 42 106 78 41 107 79 42 106 78 41 106 78 41 107 79 42 107 79 42 107 79 42 106 78 41 108 80 43 105 77 40 107 79 42 107 79 42 106 78 41 108 80 43 108 80 43 106 78 41 107 79 42 106 78 41 106 78 41 107 79 42 108 78 42 108 80 43 107 79 42 107 79 42 
107 79 42 108 80 43 106 78 41 106 78 41 109 81 44 107 79 42 106 78 41 107 79 42 106 78 41 107 79 42 106 78 41 106 78 41 107 79 42 108 80 43 107 79 42 107 79 42 106 78 41 107 79 42 106 78 41 106 78 41 107 79 42 107 79 42 107 79 42 106 78 41 107 79 42 107 79 42 106 78 41 106 78 41 106 78 41 106 78 41 107 79 42 107 79 42 106 78 41 106 78 41 107 79 42 106 78 41 107 79 42 108 80 43 108 80 43 107 79 42 106 78 41 107 79 42 107 79 42 107 79 42 107 79 42 107 79 42 106 78 41 107 79 42 106 78 41 106 78 41 107 79 42 106 78 41 106 78 41 107 79 42 106 78 41 107 79 42 107 79 42 107 79 42 106 78 41 108 80 43 107 79 42 107 79 42 106 78 41 107 79 42 107 79 42 106 78 41 108 80 43 107 79 42 107 79 42 106 78 41 107 79 42 107 79 42 106 78 41 107 79 42 107 79 42 106 78 41 106 78 41 106 78 41 106 78 41 107 79 42 107 79 42 106 78 41 107 79 42 107 79 42 106 78 41 108 80 43 106 78 41 106 78 41 107 79 42 106 78 41 107 79 42 108 80 43 107 79 42 107 79 42 106 78 41 107 79 42 107 79 42 105 79 42 107 79 42 107 79 42 
106 78 41 106 78 41 108 80 43 108 80 43 106 78 41 106 78 41 107 79 42 107 79 42 108 80 43 107 79 42 107 79 42 106 78 41 107 79 42 107 79 42 107 79 42 107 79 42 107 79 42 106 78 41 108 80 43 106 78 41 107 79 42 106 78 41 107 79 42 106 78 41 106 78 41 107 79 42 106 78 41 107 79 42 107 79 42 107 79 42 106 78 41 106 78 41 107 79 42 106 78 41 107 79 42 106 78 41 106 78 41 108 80 43 106 78 41 107 79 42 107 79 42 106 78 41 107 79 42 107 79 42 108 80 43 107 79 42 107 79 42 106 78 41 107 79 42 107 79 42 107 79 42 107 79 42 106 78 41 107 79 42 106 78 41 107 79 42 106 78 41 106 78 41 107 79 42 106 78 41 107 79 42 107 79 42 107 79 42 107 79 42 106 78 41 107 79 42 106 78 41 107 79 42 107 79 42 108 80 43 108 80 43 108 80 43 107 79 42 106 78 41 107 79 42 105 77 40 107 79 42 106 78 41 107 79 42 107 79 42 107 79 42 107 79 42 107 79 42 107 79 42 106 78 41 107 79 42 107 79 42 107 79 42 107 79 42 106 78 41 105 77 40 106 78 41 107 79 42 106 78 41 107 79 42 107 79 42 107 79 42 107 79 42 107 79 42 106 78 41 
106 78 41 106 78 41 107 79 42 108 80 43 107 79 42 107 79 42 107 79 42 106 78 41 106 78 41 107 79 42 106 78 41 106 78 41 106 78 41 106 78 41 107 79 42 106 78 41 107 79 42 107 79 42 107 79 42 106 78 41 106 78 41 106 78 41 107 79 42 106 78 41 107 79 42 105 77 40 106 78 41 107 79 42 107 79 42 106 78 41 106 78 41 106 78 41 107 79 42 106 78 41 108 80 43 107 79 42 106 78 41 107 79 42 107 79 42 106 78 41 106 78 41 107 79 42 107 79 42 107 79 42 107 79 42 108 80 43 107 79 42 107 79 42 107 79 42 106 78 41 107 79 42 106 78 41 107 79 42 107 79 42 107 79 42 107 79 42 107 79 42 106 78 41 108 80 43 106 78 41 107 79 42 107 79 42 107 79 40 107 79 42 107 79 42 106 78 41 107 79 42 107 79 42 107 79 42 107 79 40 107 79 42 106 78 41 107 79 42 106 78 41 107 79 42 107 79 42 106 78 41 107 79 42 107 79 42 108 80 43 106 78 41 107 79 42 106 78 41 106 78 41 107 79 42 106 78 41 106 78 41 106 78 41 107 79 42 106 78 41 106 78 41 106 78 41 107 79 42 107 79 42 106 78 41 107 79 42 105 79 42 106 78 41 107 77 39 89 66 34 
106 78 41 106 78 41 107 79 42 106 78 41 107 79 42 107 79 42 105 77 40 108 80 43 106 78 41 106 78 41 107 79 42 107 79 42 107 79 42 107 79 42 105 77 40 106 78 41 106 78 41 107 79 42 107 79 42 107 79 42 106 78 41 108 80 43 107 79 42 106 78 41 108 80 43 107 79 42 106 78 41 108 80 43 107 79 42 105 77 40 106 78 41 106 78 41 107 79 42 105 77 40 107 79 42 107 79 42 106 78 41 106 78 41 107 79 42 106 78 41 107 79 42 107 79 42 107 79 42 108 80 43 107 79 42 107 79 42 106 78 41 105 77 40 106 78 41 106 78 41 106 78 41 107 79 42 106 78 41 106 78 41 106 78 41 106 78 41 106 78 41 107 79 40 107 79 42 107 79 42 106 78 41 107 79 42 106 77 43 106 77 43 107 79 42 107 79 42 108 80 41 106 78 41 107 79 42 107 79 42 106 78 41 108 80 43 106 78 41 106 78 41 107 79 42 106 78 41 107 79 42 107 79 42 106 78 41 107 79 42 107 79 42 107 79 42 107 79 42 106 78 41 107 79 42 107 79 42 107 79 42 106 78 41 107 79 42 108 80 43 107 79 42 106 78 41 107 79 42 107 79 42 107 79 42 107 79 42 106 78 39 106 76 40 106 78 41 49 36 19 
106 78 41 106 78 41 106 78 41 107 79 42 106 78 41 106 78 41 107 79 42 107 79 42 107 79 42 106 78 41 107 79 42 106 78 41 106 78 41 106 78 41 108 80 43 107 79 42 106 78 41 106 78 41 106 78 41 108 80 43 106 78 41 106 78 41 106 78 41 107 79 42 107 79 42 106 78 41 106 78 41 106 78 41 106 78 41 108 80 43 107 79 42 107 79 42 107 79 42 106 78 41 107 79 42 107 79 42 106 78 41 107 79 42 107 79 42 107 79 42 106 78 41 108 80 43 106 78 41 107 79 42 106 78 41 106 78 41 107 79 42 107 79 42 106 78 41 107 79 42 107 79 42 107 79 42 107 79 42 106 78 41 107 79 42 108 80 43 107 79 42 106 78 41 107 79 42 107 79 42 107 79 42 106 78 41 106 78 41 107 79 42 107 79 42 108 80 43 106 78 41 107 79 42 107 79 42 107 79 42 106 78 41 106 78 41 106 78 41 107 79 42 107 79 42 108 80 43 106 78 41 107 79 42 106 78 41 106 78 41 107 79 42 106 78 41 107 79 42 106 78 41 107 79 42 106 78 41 107 79 42 106 78 41 105 77 40 106 78 41 107 79 42 106 78 41 107 79 42 106 78 41 106 78 41 108 80 43 106 78 41 107 79 42 106 77 43 26 19 11 
107 79 42 106 78 41 107 79 42 106 78 41 106 78 41 107 79 42 106 78 41 106 78 41 107 79 42 108 80 43 106 78 41 107 79 42 107 79 42 106 78 41 106 78 41 107 79 42 107 79 42 106 78 41 107 79 42 107 79 42 107 79 42 106 78 41 106 78 41 107 79 42 108 80 43 106 78 41 106 78 41 107 79 42 106 78 41 105 77 40 107 79 42 106 78 41 106 78 41 107 79 42 107 79 42 106 78 41 106 78 41 106 78 41 107 79 42 107 79 42 106 78 41 108 80 43 106 78 41 106 78 41 106 78 41 107 79 42 107 79 42 106 78 41 106 78 41 106 78 41 107 79 42 106 78 41 106 78 41 107 79 42 106 78 41 106 78 41 106 78 41 106 78 41 106 78 41 106 78 41 107 79 42 107 79 42 106 78 41 107 79 42 107 79 42 108 80 43 106 78 41 106 78 41 106 78 41 107 79 42 106 78 41 106 78 41 107 79 42 107 79 42 107 79 42 107 79 42 107 79 42 107 79 42 106 78 41 106 78 41 106 78 41 106 78 41 107 79 42 106 78 41 106 78 41 107 79 42 106 78 41 107 79 42 107 79 42 107 79 42 106 78 41 105 77 40 107 79 42 107 79 42 107 79 42 106 78 41 107 78 44 106 78 41 84 63 32 3 3 1 
106 78 41 106 78 41 107 79 42 106 78 41 106 78 41 107 79 42 107 79 42 107 79 42 106 78 41 106 78 41 107 79 42 106 78 41 106 78 41 106 78 41 107 79 42 106 78 41 106 78 41 107 79 42 106 78 41 107 79 42 107 79 42 107 78 44 107 79 42 108 79 45 107 79 42 106 78 41 106 78 41 105 77 40 105 77 40 106 78 41 107 79 42 107 79 42 107 79 42 106 78 41 107 79 42 107 79 42 106 78 41 108 80 43 107 79 42 106 78 41 106 78 41 106 78 41 107 79 42 106 78 41 106 78 41 107 79 42 106 78 41 106 78 41 107 79 42 107 79 42 107 79 42 106 78 41 106 78 41 107 79 42 106 78 41 106 78 41 107 79 42 107 79 42 107 79 42 106 78 41 106 78 41 106 78 41 106 78 41 107 79 42 107 79 42 106 78 41 106 78 41 108 80 43 107 79 42 107 79 42 106 78 41 106 78 41 107 79 42 106 78 41 106 78 41 106 78 41 106 78 41 107 79 42 107 79 42 107 79 42 106 78 41 106 78 41 106 78 41 105 77 40 106 78 41 107 79 42 106 78 41 107 79 42 107 79 42 106 78 41 106 78 41 107 79 42 107 79 42 106 78 41 106 78 41 106 78 41 108 78 42 107 79 42 58 41 23 2 2 2 
106 78 41 107 79 42 107 79 42 106 78 41 108 80 43 106 78 41 107 79 42 107 79 42 106 78 41 106 78 41 107 79 42 106 78 41 106 78 41 106 78 41 107 79 42 107 79 42 106 78 41 107 79 42 106 78 41 107 79 42 106 78 41 107 79 42 106 78 41 107 79 42 107 79 42 106 78 41 107 79 42 106 78 41 107 79 42 106 78 41 107 79 42 106 78 41 106 78 41 106 78 41 107 79 42 106 78 41 106 78 41 106 78 41 106 78 41 106 78 41 107 79 42 106 78 41 107 79 42 106 78 41 106 78 41 107 79 42 106 78 41 105 77 40 106 78 41 106 78 41 106 78 41 106 78 41 106 78 41 107 79 42 107 79 42 106 78 41 106 78 41 107 79 42 107 79 42 107 79 42 106 78 41 106 78 41 106 78 41 106 78 41 107 79 42 107 79 42 106 78 41 107 79 42 107 79 42 106 78 41 106 78 41 106 78 41 107 79 42 106 78 41 106 78 41 107 79 42 106 78 41 107 79 42 107 79 42 108 80 43 107 79 42 107 79 42 107 79 42 106 78 41 106 78 41 106 78 41 107 79 42 107 79 42 107 79 42 106 78 41 106 78 41 107 79 42 107 79 42 106 78 41 106 78 41 106 78 41 106 78 41 92 67 36 12 8 7 1 1 1 
107 79 42 106 78 41 106 78 41 106 78 41 107 79 42 106 78 41 107 79 42 106 78 41 106 78 41 106 78 41 107 79 42 107 79 42 106 78 41 107 79 42 106 78 41 107 79 42 107 79 42 107 79 42 107 79 42 107 79 42 106 78 41 107 79 42 106 78 41 106 78 41 107 79 42 107 79 42 107 79 42 106 78 41 106 78 41 106 78 41 106 78 41 106 78 41 107 79 42 108 80 43 106 78 41 106 78 41 107 79 42 106 78 41 106 78 41 107 79 42 106 78 41 106 78 41 107 79 42 107 79 42 107 79 42 107 79 42 107 79 42 107 79 42 106 78 41 106 78 41 106 78 41 107 79 42 107 79 42 106 78 41 107 79 42 107 79 42 106 78 41 107 79 42 106 78 41 106 78 41 107 79 42 106 78 41 107 79 42 106 78 41 107 79 42 107 79 42 106 78 41 107 79 42 107 79 42 107 79 42 107 79 42 107 79 42 106 78 41 107 79 42 107 79 42 106 78 41 106 78 41 107 79 42 107 79 42 107 79 42 107 79 42 106 78 41 107 79 42 107 79 42 106 78 41 107 79 42 106 78 41 106 78 41 107 79 42 107 79 42 106 78 41 107 79 42 107 79 42 108 80 43 106 78 41 106 78 41 107 79 42 64 48 25 0 0 0 2 2 2 
106 78 41 107 79 42 107 79 42 107 79 42 107 79 42 106 78 41 107 79 42 106 78 41 106 78 41 105 77 40 108 80 43 106 78 41 106 78 41 106 78 41 106 78 41 106 78 41 106 78 41 106 78 41 106 78 41 106 78 41 107 79 42 106 78 41 107 79 42 106 78 41 106 78 41 107 79 42 106 78 41 106 78 41 107 79 42 106 78 41 106 78 41 107 79 42 106 78 41 107 79 42 106 78 41 107 79 42 107 79 42 106 78 41 106 78 41 107 79 42 107 79 42 106 78 41 108 80 43 107 79 42 107 79 42 106 78 41 107 79 42 107 79 42 106 78 41 105 77 40 107 79 42 107 79 42 107 79 42 106 78 41 107 79 42 106 78 41 107 79 42 108 80 43 106 78 41 107 79 42 107 79 42 107 79 42 107 79 42 107 79 42 108 80 43 106 78 41 107 79 42 106 78 41 107 79 42 105 77 40 108 80 43 107 79 42 107 79 42 106 78 41 106 78 41 107 79 42 106 78 41 107 79 42 106 78 41 105 77 40 107 79 42 106 78 41 107 79 42 106 78 41 106 78 41 106 78 41 106 78 41 107 79 42 107 79 42 106 78 41 105 77 40 106 78 41 106 78 41 106 78 41 106 78 41 107 79 42 101 75 40 18 13 7 1 1 1 1 1 1 
106 78 41 106 78 41 106 78 41 106 78 41 107 79 42 106 78 41 108 80 43 107 79 42 107 79 42 106 78 41 107 79 42 107 79 42 106 78 41 106 78 41 106 78 41 106 78 41 108 80 43 107 79 42 107 79 42 106 78 41 107 79 42 106 78 41 106 78 41 106 78 41 105 77 40 108 80 43 106 78 41 107 79 42 106 78 41 108 80 43 106 78 41 106 78 41 107 79 42 106 78 41 106 78 41 106 78 41 106 78 41 106 78 41 107 79 42 108 80 43 106 78 41 107 79 42 106 78 41 107 79 42 107 79 42 107 79 42 107 79 42 106 78 41 107 79 42 105 77 40 106 78 41 107 79 42 106 78 41 106 78 41 106 78 41 107 79 42 107 79 42 106 78 41 106 78 41 106 78 41 106 78 41 107 79 42 107 79 42 106 78 41 106 78 41 106 78 41 106 78 41 107 79 42 107 79 42 107 79 42 107 79 42 106 78 41 107 79 42 106 78 41 106 78 41 107 79 42 107 79 42 106 78 41 106 78 41 106 78 41 106 78 41 107 79 42 106 78 41 107 79 42 107 79 42 106 78 41 106 78 41 106 78 41 106 78 41 108 80 43 107 79 42 107 79 42 106 78 41 107 79 42 107 79 42 106 78 41 96 72 38 4 4 2 0 0 0 1 1 1 
107 79 42 107 79 42 106 78 41 106 78 41 106 78 41 106 78 41 106 78 41 109 81 44 106 78 41 106 78 41 106 78 41 107 79 42 107 79 42 106 78 41 106 78 41 105 77 40 107 79 42 106 78 41 107 79 42 106 78 41 107 79 42 106 78 39 106 78 41 106 78 39 106 78 41 107 79 42 106 78 41 107 79 42 106 78 41 107 79 42 106 78 41 106 78 41 106 78 41 106 78 41 107 79 42 107 79 42 106 78 41 106 78 41 106 78 41 107 79 42 107 79 42 106 78 41 107 79 42 106 78 41 107 79 42 106 78 41 106 78 41 106 78 41 106 78 41 106 78 41 107 79 42 107 79 42 106 78 41 107 79 42 106 78 41 107 79 42 106 78 41 106 78 41 107 79 42 108 80 43 107 79 42 107 79 42 107 79 42 107 79 42 107 79 42 107 79 42 107 79 42 107 79 42 106 78 41 107 79 42 107 79 42 105 77 40 106 78 41 107 79 42 106 78 41 107 79 42 107 79 42 106 78 41 106 78 41 107 79 42 106 78 41 106 78 41 106 78 41 106 78 41 107 79 42 106 78 41 105 77 40 105 77 40 106 78 41 107 79 42 107 79 42 107 79 42 107 79 42 106 78 41 107 79 42 106 78 41 78 59 29 0 0 0 9 7 8 49 31 29 
107 79 42 106 78 41 106 78 41 106 78 41 106 78 41 107 79 42 107 79 42 107 79 42 106 78 41 107 79 42 107 79 42 106 78 41 108 80 43 107 79 42 108 80 43 106 78 41 107 79 42 106 78 41 106 78 41 107 79 42 106 78 41 106 78 41 106 78 41 106 78 41 107 79 42 107 79 42 106 78 41 106 78 41 106 78 41 107 79 42 106 78 41 107 79 42 107 79 42 106 78 41 106 78 41 106 78 41 106 78 41 106 78 41 106 78 41 105 77 40 105 77 40 107 79 42 106 78 41 106 78 41 107 79 42 106 78 41 107 79 42 106 78 41 106 78 41 107 79 42 107 79 42 106 78 41 107 79 42 106 78 41 106 78 41 106 78 41 107 79 42 106 78 41 106 78 41 106 78 41 106 78 41 106 78 41 106 78 41 106 78 41 107 79 42 106 78 41 106 78 41 106 78 41 106 78 41 106 78 41 107 79 42 106 78 41 105 77 40 107 79 42 107 79 42 107 79 42 106 78 41 106 78 41 107 79 42 106 78 41 107 79 42 106 78 41 106 78 41 107 79 42 107 79 42 107 79 42 107 79 42 106 78 41 106 78 41 107 79 42 106 78 41 106 78 41 107 79 42 106 78 41 107 79 42 106 78 41 45 33 19 2 0 1 42 22 23 68 39 41 
106 78 41 106 78 41 107 79 42 106 78 41 106 78 41 106 78 41 107 79 42 107 79 42 106 78 41 106 78 41 106 78 41 106 78 41 106 78 41 106 78 41 108 80 43 106 78 41 106 78 41 106 78 41 106 78 41 106 78 41 107 79 42 106 78 41 107 79 42 106 78 41 107 79 42 106 78 41 107 79 42 106 78 41 106 78 41 106 78 41 106 78 41 106 78 41 106 78 41 106 78 41 106 78 41 106 78 41 106 78 41 106 78 41 107 79 42 107 79 42 107 79 42 107 79 42 107 79 42 106 78 41 107 79 42 106 78 41 107 79 42 106 78 41 107 79 42 106 78 39 107 79 42 106 78 41 106 78 41 107 79 42 106 78 41 107 79 42 106 78 41 106 78 41 106 78 41 107 79 42 106 78 41 108 80 43 107 79 42 106 78 41 106 78 41 106 78 41 107 79 42 106 78 41 106 78 41 106 78 41 107 79 42 106 78 41 107 79 42 106 78 41 106 78 41 108 80 43 108 80 43 106 78 41 104 78 41 105 77 40 106 78 41 106 78 41 106 78 41 106 78 41 107 79 42 105 77 40 107 79 42 106 78 41 104 78 41 104 78 43 106 78 41 104 78 41 106 78 41 105 79 42 106 78 41 90 67 35 8 7 3 4 2 3 56 32 32 65 37 36 
107 79 42 106 78 41 106 78 41 106 78 41 103 77 40 106 78 41 106 78 41 104 78 41 106 78 41 107 79 42 106 78 41 107 79 42 107 79 42 107 79 42 105 79 42 107 79 42 106 78 41 106 78 41 106 78 41 106 78 41 106 78 41 106 78 41 106 78 41 107 79 42 107 79 42 106 78 41 106 78 41 106 78 41 106 78 41 106 78 41 106 78 41 106 78 41 106 78 41 105 77 40 106 78 41 106 78 41 106 78 41 106 78 41 106 78 41 106 78 41 106 78 41 106 78 41 106 78 41 107 79 42 106 78 41 106 78 41 107 79 42 106 78 41 106 78 41 106 78 41 107 79 42 104 78 41 106 78 41 105 79 42 106 78 41 106 78 41 106 78 41 106 78 41 106 78 41 106 78 41 107 79 42 106 78 41 106 78 41 106 78 41 105 79 42 106 78 41 106 78 41 104 78 41 106 78 41 107 79 42 108 80 43 107 79 42 107 79 42 106 78 41 106 78 41 105 77 40 105 79 42 106 78 41 106 78 41 106 78 41 107 79 42 106 78 41 105 77 40 106 78 41 106 78 41 106 78 41 107 79 42 106 78 41 105 77 40 106 78 41 105 79 42 104 79 39 106 78 41 106 78 41 104 78 43 66 50 27 0 0 0 21 13 11 35 21 21 19 10 11 
106 78 41 106 78 41 106 78 41 107 79 42 106 78 41 107 79 42 106 78 41 106 78 41 104 78 41 105 77 40 106 78 41 106 78 41 107 79 42 106 78 41 106 78 41 106 78 41 106 78 41 106 78 41 107 79 42 106 78 41 106 78 41 105 77 40 106 78 41 106 78 41 106 78 41 106 78 41 106 78 41 106 78 41 106 78 41 107 79 42 107 79 42 107 79 42 106 78 41 106 78 41 105 77 40 106 78 41 106 78 41 106 78 41 107 79 42 107 79 42 106 78 41 106 78 41 106 78 41 107 79 42 106 78 41 107 79 42 106 78 41 108 80 43 106 78 41 106 78 41 106 78 41 106 78 41 106 78 41 106 78 41 106 77 43 106 78 41 107 79 42 106 78 41 106 78 41 105 77 40 107 79 42 106 78 41 106 78 41 106 78 41 106 78 41 104 78 41 106 78 41 106 78 41 107 77 41 104 78 41 106 78 41 108 78 42 106 78 41 105 79 42 106 78 41 106 78 41 107 79 42 107 79 42 106 78 41 106 78 41 106 78 41 106 78 41 106 78 41 107 79 42 106 78 41 106 78 41 106 78 41 106 78 41 106 78 39 104 78 41 106 78 41 106 78 41 106 78 41 106 78 41 107 79 42 51 38 21 1 1 1 36 20 20 12 8 7 20 14 14 
106 78 41 106 78 41 106 78 41 106 78 41 106 78 41 104 78 41 104 78 41 107 79 42 107 79 42 107 79 42 106 78 41 107 79 42 106 78 41 106 78 41 105 79 42 107 79 42 106 78 41 107 79 42 106 78 41 107 79 42 106 78 41 106 78 41 106 78 41 106 78 41 106 78 41 106 78 41 106 78 41 106 78 41 106 78 41 106 78 41 106 78 41 107 79 42 107 79 42 107 79 42 106 78 41 106 78 41 106 78 41 106 78 41 106 78 41 106 78 41 107 79 42 107 79 42 106 78 41 107 79 42 107 79 42 106 78 41 107 79 42 107 79 42 106 78 41 106 77 43 106 78 41 106 78 41 106 78 41 106 78 41 106 78 41 106 78 41 106 78 41 107 79 42 106 78 41 107 79 42 107 79 42 106 78 41 107 79 42 106 78 41 106 78 41 106 78 41 107 79 42 104 78 41 107 79 42 106 78 41 106 78 41 106 78 41 104 78 41 107 79 42 106 78 41 107 79 42 107 79 42 107 79 42 107 79 42 106 78 41 106 78 41 106 78 41 106 78 41 106 78 41 107 79 42 106 78 41 106 78 41 106 78 41 106 78 41 104 78 41 107 79 42 107 79 42 107 79 42 106 78 39 103 77 42 29 20 13 5 3 4 47 29 29 3 3 3 43 25 25 
107 79 42 107 79 42 107 79 42 106 78 41 106 78 41 106 78 41 106 78 41 105 79 42 107 79 42 104 78 41 106 78 41 106 78 41 107 79 42 106 78 41 107 79 42 105 77 40 107 79 42 107 79 42 106 78 41 106 78 41 106 78 41 106 78 41 106 78 41 106 78 41 106 78 41 105 77 40 106 78 41 106 78 41 106 78 41 106 78 41 107 79 42 107 79 42 105 77 40 106 78 41 106 78 41 106 78 41 106 78 41 106 78 41 106 78 41 107 79 42 107 79 42 106 78 41 107 79 42 106 78 41 106 78 41 107 79 42 106 78 41 106 78 41 106 78 41 106 78 39 106 78 41 106 78 41 106 78 41 106 78 41 106 78 41 106 78 41 107 79 42 107 79 42 106 78 41 106 78 41 107 79 42 106 78 41 106 78 41 106 78 41 106 78 41 106 78 41 106 78 41 106 78 41 108 80 43 107 79 42 107 79 42 107 79 42 104 78 41 106 78 41 107 79 42 106 78 41 107 79 42 107 79 42 106 78 41 106 78 41 107 79 42 106 78 41 106 78 41 106 78 41 106 78 41 106 78 41 106 78 41 106 78 41 106 78 41 105 77 40 106 78 41 106 78 41 106 78 41 106 78 41 95 71 37 5 4 0 10 6 5 53 33 34 4 4 2 56 35 34 
106 78 41 106 78 41 106 78 41 106 78 41 106 78 41 106 78 41 106 78 41 106 78 41 106 78 41 106 78 41 107 79 42 107 79 42 106 78 41 106 78 41 106 78 41 105 79 42 106 78 41 106 78 41 106 78 41 106 78 41 106 78 41 107 79 42 106 78 41 106 78 41 107 79 42 106 78 41 107 79 42 106 78 41 106 78 41 106 78 41 107 79 42 106 78 41 107 79 42 106 78 41 106 78 41 105 77 40 106 78 41 107 79 42 105 77 40 106 78 41 106 78 41 107 79 42 106 78 41 106 78 41 106 78 41 106 78 41 106 78 41 106 78 41 106 78 41 106 78 41 106 78 41 106 78 41 106 78 41 106 78 41 106 78 39 106 78 41 107 79 42 107 79 42 106 78 41 106 78 41 106 78 41 106 78 41 107 79 42 106 78 41 106 78 41 104 78 41 104 78 41 106 78 41 104 78 41 104 78 41 106 78 41 107 79 42 107 79 42 105 79 42 106 78 41 106 78 41 106 78 41 107 79 42 106 78 41 107 79 42 106 78 41 107 79 42 106 78 41 106 78 41 106 78 41 106 78 41 106 78 41 107 79 42 104 78 43 107 79 42 107 77 41 106 78 41 106 78 41 106 78 41 84 63 34 2 2 2 28 16 16 68 40 39 59 35 35 68 40 39 
106 78 41 106 78 41 106 78 41 106 78 41 106 78 41 104 78 41 105 79 42 107 79 42 107 79 42 103 77 40 106 78 41 107 79 42 107 79 42 107 79 42 107 79 42 106 78 41 106 78 41 106 78 41 106 78 41 106 78 41 106 78 41 107 79 42 106 78 41 106 78 41 106 78 41 106 78 41 106 78 41 106 78 41 106 78 41 106 78 41 107 79 42 106 78 41 104 78 41 107 77 41 106 78 41 104 78 41 106 78 41 106 78 41 105 79 42 108 80 43 106 78 41 106 78 41 107 79 42 106 78 41 106 78 41 106 78 41 106 78 41 107 79 42 106 78 41 106 78 41 104 78 41 106 78 41 104 78 41 106 78 41 106 78 41 106 78 41 106 78 41 106 78 41 107 79 42 107 79 42 106 78 41 107 79 42 107 79 42 106 78 41 105 79 42 106 78 41 106 78 41 104 78 41 106 78 41 106 78 41 106 78 41 107 79 42 106 78 41 107 79 42 106 78 41 106 78 41 104 78 41 106 78 41 106 78 41 106 78 41 106 78 41 106 78 41 106 78 41 107 79 42 106 78 41 106 78 41 106 78 41 106 78 41 105 79 42 107 78 44 106 77 43 104 79 39 104 78 41 107 78 44 40 31 16 1 1 1 38 22 22 70 40 38 68 38 38 40 24 24 
106 78 41 107 79 42 107 79 42 106 78 41 107 79 42 106 78 41 106 78 41 106 78 41 106 78 41 106 78 41 106 78 41 106 78 41 107 79 42 106 78 41 106 78 41 108 80 43 106 78 41 106 78 41 106 78 41 106 78 41 106 78 41 106 78 41 107 79 42 107 79 42 106 78 41 106 78 41 106 78 41 106 78 41 106 78 41 106 78 41 107 79 42 107 79 42 106 78 41 104 78 41 106 78 41 106 78 41 104 78 41 104 78 41 107 79 42 104 78 41 106 78 41 106 78 41 106 78 41 105 77 40 107 79 42 106 78 41 106 78 41 106 78 41 106 78 41 106 77 43 106 78 41 106 78 41 106 78 41 106 78 41 106 78 41 106 78 41 107 79 42 106 78 41 106 78 41 106 78 41 106 78 41 106 78 41 106 78 41 107 79 42 107 79 42 104 78 41 106 78 41 106 78 41 107 79 42 104 78 41 107 79 42 107 79 42 107 79 42 107 79 42 107 79 42 107 79 42 106 78 41 107 79 42 104 78 41 106 78 41 105 77 40 107 79 42 106 78 41 106 78 41 107 79 42 106 78 41 106 78 41 107 79 42 106 78 41 106 78 41 106 78 39 106 78 41 106 78 41 102 76 39 16 13 8 1 1 1 59 35 33 57 32 35 17 11 11 1 1 0 
106 78 41 106 78 41 106 78 41 106 78 41 107 79 42 106 78 41 106 78 41 106 78 41 107 79 42 106 78 41 105 77 40 106 78 41 106 78 41 107 79 42 106 78 41 106 78 41 106 78 41 106 78 41 106 78 41 107 79 42 106 78 41 106 78 41 106 78 41 106 78 41 106 78 41 106 78 41 106 78 41 106 78 41 106 78 41 106 78 41 106 78 41 106 78 41 106 78 41 106 78 41 106 78 41 108 80 43 106 78 41 106 78 41 106 78 39 106 78 41 106 78 41 107 79 42 106 78 41 106 78 41 106 78 41 107 79 42 106 78 41 106 78 41 106 78 41 106 78 41 106 78 41 107 79 42 105 77 40 105 77 40 106 78 41 106 78 41 106 78 41 106 78 41 106 78 41 106 78 41 106 78 41 106 78 41 106 78 41 106 78 41 107 79 42 106 78 41 106 78 41 107 79 42 107 79 42 105 77 40 106 78 41 107 79 42 106 78 41 107 79 42 106 78 41 106 78 41 107 79 42 106 78 41 106 78 41 107 79 42 106 78 41 106 78 41 106 78 41 106 78 41 106 78 41 107 79 42 106 78 41 106 78 41 106 78 41 106 78 41 104 78 41 106 78 41 104 79 39 92 69 35 2 2 2 14 8 8 38 19 21 6 5 3 0 0 0 1 1 3 
106 78 41 106 78 41 106 78 41 106 78 41 106 78 41 106 78 41 107 79 42 106 78 41 107 79 42 106 78 41 106 78 41 106 78 41 106 78 41 106 78 41 106 78 41 106 78 41 106 78 41 106 78 41 106 78 41 106 78 41 106 78 41 106 78 41 106 78 41 105 77 40 106 78 41 106 78 41 106 78 41 106 78 41 107 79 42 106 78 41 105 77 40 106 78 41 106 78 41 106 78 41 106 78 41 106 78 41 106 78 41 106 78 41 107 79 42 104 76 39 106 78 41 106 78 41 106 78 41 106 78 41 106 78 41 106 78 41 107 79 42 106 78 41 106 78 41 106 78 41 105 77 40 106 78 41 106 78 41 106 78 41 107 79 42 106 78 41 106 78 41 106 78 41 107 79 42 107 79 42 106 78 41 106 78 41 106 78 41 107 79 42 107 79 42 106 78 41 106 78 41 107 79 42 106 78 41 106 78 41 106 78 41 106 78 41 106 78 41 106 78 41 106 78 41 105 77 40 107 79 42 106 78 41 106 78 41 106 78 41 106 78 41 106 78 41 106 78 41 106 78 41 106 78 41 106 78 41 106 78 41 106 78 41 106 78 39 104 78 41 105 77 40 107 79 42 104 78 41 80 61 31 0 0 0 1 1 3 0 0 0 1 1 1 0 0 0 1 1 1 
105 77 40 106 78 41 106 78 41 107 79 42 107 79 42 106 78 41 106 78 41 106 78 41 106 78 41 107 79 42 107 79 42 106 78 41 105 77 40 106 78 41 107 79 42 106 78 41 106 78 41 106 78 41 106 78 41 106 78 41 105 77 40 106 78 41 106 78 41 107 79 42 106 78 41 106 78 41 106 78 41 106 78 41 106 78 41 106 78 41 105 77 40 106 78 41 106 78 41 106 78 41 105 80 40 106 78 41 104 78 41 106 78 39 104 78 43 106 78 41 106 78 41 106 78 41 106 78 41 106 78 41 106 78 41 106 78 41 106 78 41 106 78 41 106 78 41 106 78 41 107 79 42 106 78 41 107 79 42 107 79 42 106 78 41 106 78 41 106 78 41 106 78 41 106 78 41 105 77 40 107 79 42 106 78 41 106 78 41 106 78 41 107 79 42 106 78 41 106 78 41 106 78 41 106 78 41 107 79 42 106 78 41 106 78 41 106 78 41 106 78 41 106 78 41 106 78 41 106 78 41 106 78 41 106 78 41 106 78 41 106 78 41 106 78 41 106 78 41 107 79 42 105 77 40 106 78 41 106 78 41 106 78 41 106 78 41 107 79 42 105 77 40 107 79 42 105 77 40 52 39 22 0 0 0 0 0 0 0 0 2 1 1 1 2 2 2 3 3 3 
105 77 40 106 78 41 107 79 42 106 78 41 107 79 42 106 78 41 105 77 40 105 77 40 106 78 41 106 78 41 106 78 41 107 79 42 106 78 41 106 78 41 105 77 40 106 78 41 107 79 42 106 78 41 107 79 42 107 79 42 105 77 40 105 77 40 106 78 41 106 78 41 106 78 41 105 77 40 107 79 42 106 78 41 105 77 40 106 78 41 106 78 41 106 78 41 107 79 42 105 77 40 106 78 41 107 79 42 106 78 39 106 77 43 106 78 41 106 77 43 106 78 41 106 78 41 107 79 42 106 78 41 106 78 41 105 77 40 106 78 41 106 78 41 106 78 41 106 78 41 106 78 41 105 77 40 106 78 41 106 78 41 105 77 40 105 77 40 106 78 41 106 78 41 107 79 42 106 78 41 105 77 40 106 78 41 106 78 41 106 78 41 106 78 41 107 79 42 106 78 41 106 78 41 107 79 42 106 78 41 106 78 41 106 78 41 106 78 41 105 77 40 106 78 41 106 78 41 106 78 41 105 77 40 106 78 41 106 78 41 105 77 40 106 78 41 106 78 41 106 78 41 106 78 41 106 78 41 106 78 41 106 78 41 104 78 41 104 78 41 107 77 39 107 77 41 102 76 41 16 11 7 1 1 1 1 1 1 2 2 2 3 3 3 2 2 2 2 4 3 
106 78 41 107 79 42 106 78 41 106 78 41 106 78 41 106 78 41 106 78 41 106 78 41 106 78 41 106 78 41 106 78 41 106 78 41 105 77 40 105 77 40 106 78 41 105 77 40 106 78 41 107 79 42 106 78 41 106 78 41 104 76 39 106 78 41 106 78 41 105 77 40 106 78 41 107 79 42 105 77 40 106 78 41 106 78 41 106 78 41 106 78 41 107 79 42 105 79 42 106 78 41 105 79 42 107 79 42 104 78 43 106 78 41 104 78 41 105 77 40 107 79 42 105 77 40 106 78 41 106 78 41 106 78 41 106 78 41 107 79 42 106 78 41 106 78 41 105 77 40 107 79 42 106 78 41 107 79 42 106 78 41 106 78 41 106 78 41 107 79 42 106 78 41 106 78 41 107 79 42 106 78 41 106 78 41 106 78 41 106 78 41 106 78 41 106 78 41 105 77 40 106 78 41 106 78 41 106 78 41 105 77 40 106 78 41 107 79 42 106 78 41 106 78 41 106 78 41 107 79 42 106 78 41 106 78 41 106 78 41 106 78 41 106 78 41 106 78 41 105 77 40 107 79 42 106 78 41 106 78 41 106 78 41 106 77 43 106 78 39 106 78 41 107 77 41 101 75 40 15 12 5 1 1 1 0 0 0 3 3 3 3 3 3 3 3 3 3 3 3 
106 78 41 106 78 41 106 78 41 106 78 41 106 78 41 107 79 42 105 77 40 107 79 42 108 80 43 106 78 41 106 78 41 107 79 42 106 78 41 106 78 41 105 77 40 105 77 40 107 79 42 106 78 41 106 78 41 107 79 42 106 78 41 105 77 40 105 77 40 105 77 40 107 79 42 106 78 41 105 77 40 106 78 41 107 79 42 106 78 41 107 79 42 106 78 41 105 77 40 106 78 41 106 78 41 106 78 41 105 76 42 105 77 40 106 78 41 106 78 41 106 78 41 106 78 41 106 78 41 106 78 41 106 78 41 106 78 41 106 78 41 106 78 41 106 78 41 105 77 40 107 79 42 106 78 41 106 78 41 106 78 41 106 78 41 107 79 42 106 78 41 106 78 41 106 78 41 105 77 40 106 78 41 106 78 41 105 77 40 106 78 41 106 78 41 106 78 41 106 78 41 107 79 42 106 78 41 106 78 41 106 78 41 107 79 42 106 78 41 106 78 41 106 78 41 106 78 41 106 78 41 106 78 41 106 78 41 106 78 41 106 78 41 105 77 40 106 78 41 105 77 40 106 78 41 105 77 40 106 78 41 105 77 40 105 77 40 105 79 42 106 78 41 108 78 42 90 67 35 3 3 3 0 0 0 1 1 0 3 3 3 3 1 2 3 3 3 2 2 2 
105 77 40 105 77 40 105 77 40 105 77 40 106 78 41 106 78 41 106 78 41 106 78 41 106 78 41 108 80 43 105 77 40 106 78 41 106 78 41 106 78 41 107 79 42 106 78 41 106 78 41 107 79 42 106 78 41 105 77 40 106 78 41 106 78 41 106 78 41 106 78 41 106 78 41 106 78 41 106 78 41 106 78 41 106 78 41 107 79 42 106 78 41 106 78 41 107 79 42 105 76 42 106 78 41 106 78 41 105 77 38 106 77 43 106 78 41 105 77 40 106 78 41 107 79 42 106 78 41 105 77 40 106 78 41 106 78 41 106 78 41 105 77 40 106 78 41 106 78 41 106 78 41 106 78 41 107 79 42 106 78 41 106 78 41 106 78 41 105 77 40 106 78 41 106 78 41 106 78 41 105 77 40 106 78 41 106 78 41 106 78 41 106 78 41 105 77 40 105 77 40 107 79 42 105 77 40 106 78 41 105 77 40 106 78 41 106 78 41 106 78 41 107 79 42 106 78 41 106 78 41 106 78 41 107 79 42 106 78 41 106 78 41 107 79 42 106 78 41 106 78 41 106 78 41 106 78 41 106 78 41 106 78 41 106 78 39 104 78 41 105 76 42 105 77 38 87 64 33 2 2 2 1 1 1 2 0 1 3 3 3 2 2 2 3 3 3 2 2 2 
106 78 41 105 77 40 105 77 40 107 79 42 105 77 40 106 78 41 106 78 41 107 79 42 107 79 42 106 78 41 106 78 41 106 78 41 105 77 40 106 78 41 105 77 40 105 77 40 106 78 41 105 77 40 106 78 41 105 77 40 107 79 42 106 78 41 106 78 41 105 77 40 105 77 40 105 77 40 106 78 41 107 79 42 106 78 41 105 77 40 106 78 41 106 78 41 106 77 43 106 78 41 106 78 41 106 78 41 106 78 41 105 77 40 107 79 42 106 78 41 105 77 40 106 78 41 106 78 41 106 78 41 105 77 40 106 78 41 106 78 41 106 78 41 106 78 41 106 78 41 106 78 41 105 77 40 106 78 41 106 78 41 106 78 41 106 78 41 106 78 41 105 77 40 106 78 41 106 78 41 106 78 41 106 78 41 106 78 41 106 78 41 106 78 41 106 78 41 105 77 40 106 78 41 106 78 41 106 78 41 106 78 41 106 78 41 106 78 41 106 78 41 106 78 41 106 78 41 106 78 41 106 78 41 106 78 41 106 78 41 104 76 39 107 79 42 106 78 41 105 77 40 105 77 40 106 78 41 106 78 41 105 77 40 106 78 41 105 77 40 104 78 41 106 78 41 66 50 25 0 0 0 2 2 0 1 1 1 3 3 3 2 4 3 2 2 2 4 4 4 
107 79 42 107 79 42 106 78 41 106 78 41 106 78 41 106 78 41 106 78 41 105 77 40 106 78 41 106 78 41 105 77 40 107 79 42 105 77 40 106 78 41 106 78 41 106 78 41 106 78 41 106 78 41 105 77 40 106 78 41 105 77 40 106 78 41 106 78 41 107 79 42 106 78 41 106 78 41 106 78 41 106 78 41 105 77 40 106 78 41 106 78 41 105 77 40 105 77 40 105 77 40 105 77 40 107 79 42 105 77 40 105 77 40 106 78 41 107 79 42 106 78 41 106 78 41 107 79 42 106 78 41 106 78 41 106 78 41 105 77 40 106 78 41 107 79 42 107 79 42 105 77 40 106 78 41 105 77 40 105 77 40 105 77 40 106 78 41 106 78 41 106 78 41 105 77 40 105 77 40 105 77 40 106 78 41 105 77 40 106 78 41 105 77 40 107 79 42 105 77 40 106 78 41 106 78 41 106 78 41 106 78 41 106 78 41 107 79 42 106 78 41 106 78 41 107 79 42 105 77 40 105 77 40 106 78 41 105 77 40 106 78 41 107 79 42 105 77 40 106 78 41 105 77 40 106 78 41 106 78 41 106 78 41 107 77 41 106 77 43 106 78 41 107 77 41 51 38 21 1 1 1 0 0 0 1 3 2 3 3 3 2 2 2 3 3 3 3 3 3 
105 77 40 106 78 41 106 78 41 106 78 41 105 77 40 105 77 40 105 77 40 105 77 40 106 78 41 105 77 40 106 78 41 106 78 41 105 77 40 105 77 40 106 78 41 106 78 41 107 79 42 106 78 41 106 78 41 106 78 41 106 78 41 105 77 40 106 78 41 106 78 41 106 78 41 105 77 40 105 77 40 105 77 40 106 78 41 105 77 40 105 77 40 106 78 41 106 78 41 107 79 42 106 78 41 106 78 41 106 78 41 107 79 42 106 78 41 107 79 42 107 79 42 106 78 41 108 80 43 107 79 42 106 78 41 106 78 41 106 78 41 106 78 41 106 78 41 107 79 42 106 78 41 105 77 40 105 77 40 106 78 41 106 78 41 105 77 40 106 78 41 106 78 41 106 78 41 106 78 41 105 77 40 106 78 41 105 77 40 106 78 41 106 78 41 106 78 41 106 78 41 106 78 41 106 78 41 106 78 41 106 78 41 106 78 41 106 78 41 106 78 41 106 78 41 106 78 41 105 77 40 106 78 41 105 77 40 106 78 41 106 78 41 105 77 40 105 77 40 106 78 41 105 77 40 105 77 40 104 76 39 106 78 41 107 77 41 104 78 41 105 76 42 106 78 41 26 19 9 0 0 0 1 1 1 2 2 2 3 3 3 2 4 3 3 3 3 3 3 3 
