P3
100 50
255
52 102 75 54 102 78 53 101 77 54 99 76 70 75 94 78 62 101 75 61 96 12 11 16 13 28 21 30 56 43 1 1 0 10 5 9 81 34 68 92 29 100 90 30 94 92 53 58 101 62 63 84 39 62 92 29 100 88 27 94 77 26 82 84 38 67 96 54 55 92 50 62 92 29 99 89 31 92 95 56 61 97 55 56 97 59 58 87 44 64 92 29 99 89 28 97 70 24 71 35 17 29 0 0 0 8 3 9 75 24 83 93 30 101 39 13 42 46 14 51 88 29 95 95 29 103 75 24 83 86 27 93 92 29 100 30 11 33 3 3 3 3 3 3 3 3 3 40 13 44 52 15 56 35 14 33 67 23 72 86 30 95 93 69 43 101 75 40 101 75 40 101 75 40 101 75 42 101 75 42 101 75 40 101 75 40 101 75 40 101 75 40 101 75 40 101 75 40 101 75 40 101 75 40 101 75 40 100 74 39 101 75 40 101 75 40 101 75 40 101 75 40 101 75 40 102 76 41 101 75 40 101 75 40 101 75 40 101 75 40 101 75 40 101 75 40 101 75 40 101 75 40 101 75 40 101 75 38 101 75 40 103 75 38 103 74 40 101 75 40 101 75 40 103 74 40 79 59 32 5 6 1 1 1 1 2 2 2 2 2 2 2 2 4 3 3 5 2 2 2 
54 102 78 53 101 77 53 101 77 63 89 86 79 63 102 79 65 101 42 65 59 1 1 1 26 50 37 28 54 41 1 1 1 11 4 11 90 27 97 92 29 100 86 32 82 95 53 54 96 56 56 89 40 69 92 29 100 80 24 85 89 28 95 93 30 101 85 38 70 88 37 80 92 28 102 91 40 81 97 57 58 100 58 59 79 43 43 61 33 45 92 29 99 80 26 88 85 26 92 88 27 96 35 10 39 48 17 49 95 29 103 81 25 88 10 5 11 3 3 3 28 11 30 73 22 79 92 28 102 95 29 103 76 25 84 7 5 8 3 3 3 4 2 3 4 2 3 8 3 9 2 0 1 0 0 0 2 2 2 15 5 16 66 49 33 100 76 42 101 75 40 101 75 38 101 75 40 101 75 40 101 75 40 101 75 40 101 75 40 101 75 40 101 75 40 101 75 40 101 75 40 101 75 40 101 75 40 101 75 40 101 75 40 101 75 40 100 74 39 101 75 40 101 75 40 101 75 40 101 75 40 100 74 39 101 75 40 100 74 39 101 75 40 101 75 40 100 74 39 101 75 40 101 75 40 101 75 40 103 74 40 100 74 39 100 74 41 102 76 41 101 75 42 101 75 40 101 75 40 57 42 23 3 3 1 1 1 1 2 2 4 3 3 1 3 3 3 3 3 3 
54 102 78 52 102 77 55 98 81 75 68 99 78 63 104 68 83 90 35 66 51 6 8 7 31 59 45 21 38 30 2 0 1 39 14 44 94 28 102 94 28 100 86 41 70 99 57 59 93 52 60 91 31 95 95 29 101 87 38 70 86 41 74 93 30 101 93 30 101 95 29 101 94 28 100 54 25 43 32 18 17 18 9 10 3 1 2 69 22 76 93 29 103 69 22 74 65 21 72 93 30 101 95 29 101 95 29 103 92 28 102 48 16 55 2 2 2 4 2 3 3 3 3 20 8 20 92 29 100 96 30 102 92 28 102 44 14 48 9 4 8 1 1 1 0 0 0 0 0 0 19 16 27 20 17 28 1 1 1 0 0 0 18 13 7 98 72 37 101 75 42 100 74 39 102 76 41 101 75 42 101 75 40 101 75 40 101 75 40 100 74 39 100 74 39 101 75 40 101 75 40 102 76 41 100 74 39 100 76 40 100 74 39 103 77 42 102 76 41 101 75 40 101 75 40 102 76 41 100 74 39 101 75 40 103 74 40 101 75 40 101 75 40 101 75 40 101 75 40 101 75 40 101 75 40 101 75 40 102 76 41 100 74 39 100 74 39 99 73 38 102 76 41 101 75 40 101 75 40 101 75 40 66 48 26 1 3 0 1 1 1 3 1 2 4 4 2 3 3 3 
53 103 78 52 100 76 67 79 91 78 62 101 74 70 97 52 100 78 49 95 69 33 64 49 38 69 54 10 21 15 1 1 1 36 11 40 90 27 98 95 29 101 91 28 99 87 45 67 84 37 73 95 29 103 89 31 92 95 55 56 88 48 48 64 28 54 88 27 94 92 28 102 73 24 80 30 8 29 2 2 2 1 1 1 3 3 5 79 25 87 92 28 102 26 9 27 6 4 7 44 13 45 90 27 98 92 29 100 89 28 97 27 13 30 2 2 2 2 2 4 3 3 3 55 18 61 95 29 101 91 28 98 79 25 87 34 10 34 6 1 5 0 0 0 5 5 7 42 34 55 75 57 97 39 31 52 1 1 1 1 1 3 5 5 3 93 66 36 101 75 40 101 75 40 101 75 40 101 75 40 101 75 40 102 76 41 100 74 39 102 76 41 101 75 40 101 75 40 101 75 40 100 74 39 101 75 40 101 75 40 101 75 40 101 75 40 100 74 39 100 74 39 101 75 40 101 75 40 101 75 40 101 75 40 100 74 39 101 75 40 102 73 39 101 75 40 101 75 40 101 75 40 100 74 39 101 75 40 101 75 40 101 75 40 100 74 39 101 75 40 101 75 40 101 75 40 101 75 40 100 76 38 100 74 39 52 39 22 2 2 2 0 0 2 2 2 2 2 2 2 
53 101 77 53 101 79 76 66 100 80 62 100 67 81 90 53 98 77 39 73 56 36 69 52 36 64 49 4 9 5 0 0 0 56 17 61 78 24 84 91 30 97 95 29 103 90 29 98 92 29 100 93 30 101 49 21 46 17 11 11 8 4 5 5 3 6 86 27 93 87 26 95 74 23 82 87 26 93 19 7 21 2 2 2 29 10 32 92 29 100 87 28 94 10 5 11 4 2 3 2 2 2 72 23 79 95 28 105 75 24 81 81 25 88 24 9 28 3 3 5 4 2 3 73 22 79 89 28 98 32 12 37 4 2 5 0 0 0 2 2 2 29 23 37 58 45 73 46 36 60 10 8 13 1 1 1 1 1 1 1 1 1 0 0 0 74 54 30 101 75 40 101 75 40 102 73 41 101 75 40 101 75 40 101 75 40 102 76 41 101 75 40 101 75 40 101 75 40 101 75 40 101 75 40 101 75 40 101 75 40 100 74 39 101 75 40 101 75 40 101 75 40 100 74 39 100 74 39 101 75 40 100 74 39 103 74 40 100 74 39 100 74 39 101 75 40 101 75 40 100 74 39 99 73 38 101 75 40 101 75 40 101 75 40 101 75 40 101 75 40 101 75 40 101 75 40 104 75 41 101 75 40 103 74 40 101 75 40 52 39 22 1 1 1 2 0 1 3 3 3 
53 101 75 55 100 77 77 68 99 79 63 102 78 63 102 45 56 60 3 4 6 30 58 46 29 55 44 1 3 2 7 2 8 83 27 90 87 34 80 83 47 61 84 28 91 93 29 103 93 30 100 72 23 79 4 2 3 3 3 3 3 3 5 18 6 18 90 29 99 81 25 86 70 21 76 93 29 103 81 25 88 37 13 39 50 18 55 94 28 100 57 18 62 2 2 2 2 2 2 9 4 10 88 28 98 89 28 98 75 24 81 95 29 103 88 27 97 46 15 49 16 6 17 51 17 54 21 7 24 1 1 1 1 0 0 1 1 1 4 4 6 23 17 27 5 4 9 2 2 2 2 2 2 8 13 9 26 48 36 2 4 3 1 1 1 67 49 25 101 75 38 102 73 39 100 74 39 103 74 40 101 75 40 100 74 39 100 74 39 101 75 40 101 75 40 101 75 40 100 74 39 101 75 40 100 74 39 100 74 39 101 75 40 100 74 39 104 75 41 101 75 40 100 74 39 102 73 39 101 75 40 100 74 39 101 75 40 101 75 40 100 74 39 100 74 39 101 75 40 100 74 39 101 75 40 99 73 38 101 75 40 101 75 40 101 75 40 100 74 39 101 75 40 101 75 40 100 76 42 104 75 41 101 75 40 101 75 40 98 72 39 35 26 17 0 0 0 0 0 0 
53 101 75 52 102 75 55 96 80 69 76 92 78 61 103 72 63 94 29 49 40 37 68 53 27 51 38 1 1 1 17 5 17 86 27 93 31 15 28 11 7 6 22 8 23 91 28 99 93 29 103 83 27 92 40 14 43 4 4 6 4 4 4 68 20 72 94 28 100 61 19 65 5 3 6 65 21 72 92 28 102 92 29 100 92 29 100 92 28 102 38 14 40 3 3 3 2 4 3 41 14 45 93 29 103 67 23 76 17 5 17 64 20 69 88 27 96 66 19 71 11 3 14 1 1 1 1 1 1 18 13 20 41 32 53 11 8 15 0 0 0 2 0 1 5 4 2 9 10 5 32 53 36 50 90 66 53 102 73 16 29 22 1 1 1 50 37 20 101 75 42 100 74 41 102 73 41 100 74 37 100 74 39 100 74 39 101 75 40 101 75 40 101 75 40 101 75 40 100 74 39 100 74 39 101 75 40 102 73 39 102 73 39 101 75 40 101 75 40 100 74 39 101 75 40 100 74 39 101 75 40 100 74 39 102 76 41 101 75 40 100 74 39 101 75 40 100 74 39 101 75 40 101 75 40 100 74 39 101 75 40 100 74 39 100 74 39 101 75 40 101 75 40 102 76 41 101 75 40 101 75 40 101 75 40 100 74 39 103 74 40 99 73 40 37 27 17 1 1 1 
53 103 78 54 102 78 53 101 77 57 95 80 79 63 102 73 59 92 39 65 56 36 68 53 19 36 28 0 0 0 34 10 36 38 13 42 2 4 3 2 2 2 67 20 72 95 29 101 91 28 99 94 28 100 91 30 100 37 12 41 35 12 38 93 30 101 84 25 89 12 5 13 3 3 3 10 5 11 57 20 63 94 28 100 92 28 102 79 25 85 8 6 9 3 3 3 17 7 18 87 28 94 93 30 101 29 10 30 2 2 2 5 3 4 10 3 10 0 0 0 2 2 2 23 17 27 40 31 50 74 58 97 63 49 82 11 9 14 1 1 1 7 6 4 23 26 17 52 74 51 69 100 68 66 101 69 57 100 72 16 27 19 1 1 1 36 26 16 103 74 40 100 74 39 100 74 41 101 75 40 102 76 41 100 74 39 101 75 40 100 74 39 101 75 40 101 75 40 100 74 39 101 75 40 101 75 40 100 74 39 100 74 39 101 75 40 102 76 41 101 75 40 101 75 40 101 75 40 100 74 39 101 75 40 101 75 40 101 75 40 101 75 40 103 74 40 101 75 40 100 74 39 101 75 40 100 74 39 101 75 40 100 74 39 101 75 40 100 74 39 102 76 41 101 75 40 100 74 41 101 75 40 101 75 40 100 74 39 103 74 40 100 74 41 96 72 36 39 29 17 
53 101 77 53 103 78 53 101 77 66 80 91 78 62 101 62 65 82 37 70 53 36 67 51 12 23 17 0 0 0 39 13 42 20 8 22 3 3 3 20 8 22 86 27 93 86 27 95 34 11 37 57 20 63 93 30 101 92 28 102 86 27 95 94 28 100 50 16 53 3 3 3 3 3 1 3 3 5 19 7 19 84 28 91 92 29 100 96 28 103 73 22 78 17 5 17 60 21 66 92 28 102 71 22 77 4 4 6 1 1 1 1 1 1 0 0 0 9 7 12 47 37 62 76 60 99 53 43 70 28 24 38 6 5 10 1 1 1 15 25 17 43 72 52 63 97 64 78 102 68 96 102 88 82 102 74 65 100 67 26 42 29 3 1 2 32 24 13 100 74 39 101 75 40 101 75 40 101 75 40 100 74 39 101 75 40 101 75 40 101 75 40 100 74 39 100 74 39 101 75 40 101 75 40 100 74 39 101 75 40 100 74 39 100 74 39 101 75 40 100 74 39 101 75 40 101 75 40 101 75 40 100 74 39 100 74 39 103 74 40 100 74 39 101 75 40 101 75 40 101 75 40 100 74 39 102 76 41 100 74 39 101 75 40 101 75 40 101 75 40 101 75 40 101 75 40 101 75 40 101 75 40 101 75 40 103 74 40 101 75 40 100 74 39 101 75 42 97 71 38 
54 102 78 52 102 77 55 100 79 74 69 99 78 61 103 52 72 73 35 67 52 32 63 48 5 7 6 0 0 0 47 16 50 85 26 94 31 11 36 79 25 85 92 28 102 53 16 57 3 3 1 8 3 7 61 19 65 90 29 99 95 29 101 88 28 98 20 8 20 2 2 2 3 3 3 2 2 2 33 10 36 79 24 89 73 24 80 88 27 94 92 29 100 86 27 93 85 26 94 56 17 61 11 4 11 1 1 1 1 1 1 14 11 18 11 9 14 10 9 15 48 38 65 34 25 42 5 4 9 1 1 0 2 2 4 19 25 23 49 87 64 61 102 72 72 102 68 92 101 82 103 103 103 89 101 81 71 101 67 35 56 39 4 2 3 26 19 11 102 73 39 101 75 40 101 75 40 101 75 40 100 74 39 101 75 40 100 74 39 100 74 39 101 75 40 100 74 39 102 76 41 100 74 39 101 75 40 101 75 40 101 75 40 101 75 40 101 75 40 101 75 40 100 74 39 100 74 39 100 74 39 101 75 40 101 75 40 100 74 39 101 75 40 102 73 39 101 75 40 101 75 40 101 75 40 100 74 39 100 74 39 102 76 41 100 74 39 101 75 40 100 74 39 101 75 40 102 73 39 100 74 39 102 76 41 101 75 38 100 74 39 100 74 39 101 75 42 102 73 39 
53 103 76 53 101 79 66 80 89 77 61 100 73 70 97 43 77 61 36 68 53 28 54 41 1 3 2 4 2 5 70 21 76 95 29 103 91 28 99 78 24 84 86 27 93 19 7 19 1 3 2 2 2 4 7 2 8 79 25 85 93 29 103 92 29 100 76 25 84 16 6 15 2 2 2 3 3 3 58 19 64 92 29 100 47 15 52 26 9 28 81 25 88 64 20 69 23 6 24 1 1 3 1 1 1 9 7 12 35 28 44 72 56 93 16 13 22 1 1 1 1 1 1 0 0 0 2 2 2 14 13 19 44 34 58 70 71 92 53 101 77 62 101 72 75 102 69 96 102 90 101 102 97 87 101 75 70 101 67 47 79 56 4 3 1 8 4 3 94 70 36 101 75 42 103 74 40 100 74 39 101 75 40 100 74 39 100 74 39 100 74 39 101 75 40 101 75 40 101 75 40 100 74 39 100 74 39 100 74 39 101 75 40 100 74 39 101 75 40 100 74 39 101 75 40 101 75 40 101 75 40 101 75 40 101 75 40 100 74 39 100 74 39 101 75 40 101 75 40 100 74 39 100 74 39 100 74 41 100 74 39 100 74 41 101 75 40 100 74 39 101 75 40 101 75 40 101 75 40 100 74 41 101 75 42 100 74 39 100 74 39 101 75 42 99 73 40 100 74 39 
54 102 78 57 93 83 77 62 101 79 65 101 60 87 82 37 70 53 37 70 53 24 45 36 0 0 0 0 0 0 9 4 10 70 23 78 95 29 101 79 25 85 58 19 63 4 2 3 3 3 3 3 3 3 22 8 25 89 28 97 89 28 98 92 29 100 92 29 100 82 28 88 28 11 30 16 5 19 84 27 95 92 29 100 23 9 26 3 3 3 9 4 10 2 2 4 1 1 1 10 8 13 38 29 48 70 54 91 72 58 93 31 24 40 3 3 5 0 0 0 0 0 0 16 31 24 41 75 58 61 78 85 78 62 101 74 67 98 54 99 76 59 102 74 67 101 68 78 102 70 81 102 71 76 101 69 67 100 71 45 74 54 0 3 2 6 7 2 98 72 39 101 75 38 101 75 40 100 74 39 101 75 40 100 74 39 100 74 39 101 75 40 100 74 39 101 75 40 100 74 39 100 74 39 101 75 40 101 75 40 102 76 41 100 74 39 101 75 40 101 75 40 101 75 40 100 74 39 101 75 40 101 75 40 101 75 40 100 74 39 101 75 40 101 75 40 101 75 40 100 74 39 100 74 39 100 74 39 101 75 40 101 75 40 100 74 39 100 74 41 100 74 39 101 75 42 101 75 40 100 74 39 101 75 40 101 75 40 100 74 39 100 74 39 100 74 39 101 75 40 
55 100 77 71 73 96 78 60 102 76 64 100 49 91 71 36 69 52 35 69 53 12 23 17 1 1 1 1 1 1 3 3 1 43 14 45 86 27 93 92 29 100 93 32 102 43 13 47 3 3 3 3 3 5 65 21 70 93 29 103 54 17 58 22 8 25 84 25 91 94 28 100 92 29 100 74 23 80 92 28 102 78 24 82 7 2 6 0 0 0 1 1 3 9 7 12 3 3 3 29 23 37 77 59 99 52 42 67 6 6 8 1 1 1 1 1 3 5 7 4 38 75 58 53 101 77 54 102 78 56 94 79 77 60 102 79 63 102 55 98 78 55 101 75 59 99 73 65 100 70 65 100 70 63 102 71 57 101 74 30 54 40 1 1 1 14 9 3 98 74 38 100 74 39 100 74 39 100 74 41 101 75 40 101 75 40 101 75 40 100 74 39 101 75 40 100 74 39 101 75 40 101 75 40 101 75 40 101 75 40 100 74 39 101 75 40 100 74 39 101 75 40 101 75 40 100 74 39 100 74 39 100 74 39 101 75 40 101 75 40 100 74 39 101 75 40 101 75 40 101 75 40 100 74 39 100 74 39 100 74 39 101 75 40 100 74 39 101 75 40 100 74 39 101 75 40 101 75 40 100 74 39 101 75 40 101 75 40 101 75 40 101 75 40 100 74 39 100 74 39 
58 94 80 78 63 102 78 62 101 64 83 87 48 92 69 36 69 52 37 68 52 9 18 15 1 1 1 1 1 0 5 3 4 79 25 87 74 23 79 68 21 73 91 28 99 88 27 97 63 19 68 29 10 32 92 29 100 90 29 98 14 6 17 2 2 2 14 4 13 58 19 64 93 30 101 93 30 101 51 14 55 5 3 6 0 0 0 0 0 0 12 9 16 63 49 84 7 5 10 1 1 1 18 15 24 4 4 6 0 0 0 3 5 4 26 52 39 48 93 72 52 102 77 52 100 76 52 101 79 54 97 78 78 61 103 77 61 100 62 88 85 68 78 90 74 68 94 77 66 96 66 84 84 56 102 74 53 101 75 34 65 50 1 1 1 18 13 7 100 74 39 101 75 40 100 74 39 100 76 40 100 74 39 100 74 39 99 73 38 100 74 39 100 74 39 100 74 39 101 75 40 100 74 39 101 75 40 100 74 39 100 74 39 100 74 39 101 75 40 100 74 39 100 74 39 101 75 40 100 74 39 100 74 39 100 74 39 102 76 41 101 75 40 100 74 39 100 74 39 102 76 41 100 74 41 100 74 41 100 74 39 101 75 40 100 74 41 101 75 40 100 74 39 101 75 40 101 75 40 101 75 40 101 75 40 100 74 39 101 75 40 101 75 40 100 74 39 100 74 39 
53 101 77 73 69 96 79 63 102 78 64 100 50 75 71 36 66 54 35 66 48 6 8 7 0 0 0 2 2 2 64 20 69 92 29 100 86 27 93 18 8 19 52 17 57 93 30 101 93 30 101 76 25 84 92 28 102 68 21 75 2 2 4 1 1 1 1 1 1 33 17 18 69 27 63 32 10 33 2 2 4 0 0 0 6 6 8 46 38 61 76 60 99 75 59 98 29 23 37 1 1 1 1 1 1 2 2 2 30 24 38 71 62 91 55 96 82 52 100 76 51 101 76 55 100 77 52 100 76 54 99 78 78 64 100 78 61 103 78 62 101 77 61 100 80 62 102 78 62 101 71 71 95 53 101 77 53 101 77 41 80 61 2 0 1 13 9 6 99 73 38 100 74 41 100 74 39 102 73 39 100 74 39 101 75 40 100 74 39 100 74 39 100 74 39 100 74 39 101 75 40 101 75 40 100 74 39 101 75 40 101 75 40 99 73 38 100 74 39 101 75 40 100 74 39 100 74 39 102 76 41 100 74 39 100 74 39 100 74 39 100 74 39 100 74 39 100 74 39 100 74 39 100 74 39 101 75 40 100 74 41 100 74 39 100 74 39 100 74 39 100 74 39 101 75 42 100 74 41 100 74 39 100 74 41 100 74 39 100 74 39 100 74 41 101 75 40 101 75 42 
53 101 77 61 90 86 79 65 100 78 61 103 58 48 75 50 45 65 26 49 39 0 0 0 3 1 4 57 18 63 93 29 103 91 28 98 38 13 43 2 2 2 3 3 5 37 12 41 82 26 89 74 23 80 92 28 102 40 15 47 2 0 1 0 0 0 1 1 1 24 14 13 6 1 5 0 0 0 1 1 1 30 23 39 74 58 95 75 59 98 40 32 55 8 7 12 1 1 1 0 0 2 20 37 29 44 81 64 74 70 97 78 61 103 64 83 87 52 102 77 52 100 74 52 102 77 56 101 78 53 101 77 69 76 92 78 62 101 76 65 99 73 70 97 68 75 91 78 62 101 76 66 100 53 98 78 55 100 77 43 85 63 0 0 0 3 3 3 86 65 36 103 74 42 101 75 42 99 73 38 101 75 40 101 75 40 101 75 40 100 74 39 101 75 40 100 74 39 100 74 39 100 74 39 101 75 40 100 74 39 100 74 39 101 75 40 100 74 39 101 75 40 101 75 40 100 74 39 99 73 38 99 73 38 99 73 38 100 74 39 101 75 40 100 74 39 100 74 39 100 74 39 100 74 39 100 74 39 100 74 39 101 75 40 101 75 40 100 74 39 101 75 40 100 74 39 101 75 40 101 75 40 101 75 40 101 75 40 101 75 40 100 74 39 99 73 38 101 75 40 
54 102 78 54 102 78 56 99 79 71 71 95 55 45 72 54 44 69 31 31 41 1 1 1 20 6 23 91 28 99 92 29 100 54 16 57 3 3 3 3 3 3 2 2 2 8 3 7 74 25 81 89 29 99 91 30 100 80 24 85 13 3 12 1 1 1 0 0 0 0 0 0 1 1 3 2 2 2 8 6 9 60 49 81 54 41 67 11 10 16 0 0 2 1 0 0 11 22 16 35 66 51 52 97 74 53 101 77 72 72 96 78 62 101 64 83 89 52 102 75 52 100 76 52 102 77 53 101 77 53 101 77 54 99 78 60 92 81 54 99 78 53 101 77 55 98 78 75 65 99 79 63 102 58 96 81 53 101 77 45 87 65 1 1 1 1 1 1 81 60 33 103 74 42 101 75 40 101 75 42 101 75 40 101 75 40 101 75 40 101 75 40 100 74 39 101 75 40 100 74 39 101 75 40 101 75 40 100 74 39 101 75 40 100 74 39 101 75 40 101 75 40 100 74 39 100 74 39 100 74 39 100 74 39 101 75 40 101 75 40 100 74 39 100 74 39 100 74 39 100 74 39 101 75 40 100 74 41 99 73 38 100 74 39 101 75 40 101 75 40 101 75 40 101 75 40 101 75 40 98 72 39 100 74 39 100 74 39 100 74 39 101 75 40 100 74 41 100 74 39 
53 101 75 54 102 78 53 101 75 52 97 76 42 65 59 51 50 64 21 26 29 1 1 1 29 10 32 93 30 101 92 28 102 82 26 89 24 10 27 4 2 3 2 2 2 61 19 65 94 28 100 89 28 97 72 23 78 40 13 44 11 4 12 0 0 0 2 2 0 20 17 26 67 53 88 32 24 39 1 1 1 6 4 7 0 0 2 3 1 2 10 19 16 29 57 43 52 97 76 53 103 76 53 103 78 53 101 79 71 73 94 78 62 101 66 80 89 53 101 75 52 102 77 53 101 79 52 102 77 53 101 77 52 100 78 52 102 77 53 103 78 51 101 76 54 102 78 74 68 96 78 62 101 62 88 85 53 103 78 48 96 72 2 4 3 0 2 1 77 57 30 100 74 39 100 74 39 101 75 40 100 74 39 100 74 39 100 74 39 100 74 39 101 75 40 101 75 40 101 75 40 101 75 40 100 74 39 99 73 38 100 74 39 99 73 38 101 75 40 101 75 40 101 75 40 100 74 39 101 75 40 101 75 40 100 74 39 100 74 39 100 74 39 100 74 39 100 74 39 100 74 39 101 75 40 100 74 39 100 74 39 100 74 39 101 75 40 101 75 42 100 74 39 100 74 39 100 74 39 100 74 39 101 75 40 100 74 39 100 74 39 100 74 39 99 73 38 100 74 39 
39 76 58 51 96 73 52 102 77 48 92 69 35 68 51 34 66 51 7 13 11 0 0 0 41 12 42 75 24 81 89 26 97 93 30 101 86 27 93 26 9 28 4 2 5 73 24 79 79 25 87 34 10 36 4 4 6 1 1 1 1 1 1 18 15 24 52 42 69 71 55 92 42 34 55 13 10 17 1 1 1 0 2 1 6 12 8 22 39 29 45 87 67 55 100 77 56 101 78 53 101 77 52 102 77 51 101 76 68 75 93 79 61 101 71 73 94 51 101 76 51 101 76 53 101 77 53 101 77 53 101 75 53 101 77 54 102 78 52 100 76 53 101 77 53 101 77 73 71 95 78 62 101 62 89 84 52 100 76 46 88 68 5 11 9 1 1 1 74 57 31 103 74 40 100 74 39 100 74 37 100 74 39 101 75 40 101 75 40 100 74 39 99 73 38 101 75 40 101 75 40 100 74 39 100 74 39 100 74 39 100 74 39 101 75 40 100 74 41 100 74 41 99 73 38 101 75 40 100 74 39 100 74 39 100 74 39 100 74 39 100 74 39 101 75 40 100 74 39 100 74 39 101 75 40 100 74 39 100 74 39 100 74 39 100 74 39 100 74 39 101 75 40 100 74 39 100 74 39 101 75 40 100 74 39 99 73 38 100 74 39 101 75 40 101 75 40 101 75 40 
1 3 2 6 10 9 28 52 39 44 86 66 35 68 51 30 58 43 3 5 4 1 1 3 69 22 76 60 19 63 16 5 19 77 23 83 92 28 102 92 29 100 51 16 56 51 16 56 10 3 11 1 1 1 1 1 1 7 5 8 42 34 55 73 57 94 54 44 71 17 15 28 1 1 1 1 1 1 5 7 6 17 32 25 45 87 67 53 101 75 61 98 80 85 89 90 82 88 88 59 101 79 53 101 77 53 103 76 62 88 89 77 60 102 72 69 96 53 101 79 53 101 77 53 101 75 53 101 77 53 101 77 53 101 75 53 101 79 53 101 79 52 100 76 53 101 77 71 74 93 77 61 100 63 84 85 44 86 64 32 65 48 3 5 4 1 1 1 67 49 27 98 73 42 101 75 40 100 74 39 100 74 39 100 74 39 100 74 39 100 74 39 101 75 40 100 74 39 101 75 40 100 74 39 100 74 39 100 74 39 100 74 39 100 74 39 100 74 39 100 74 39 101 75 40 99 73 38 100 74 39 99 73 38 100 74 39 100 74 39 100 74 39 100 74 39 100 74 39 100 74 39 101 75 40 100 74 39 101 75 40 100 74 39 101 75 40 99 73 38 100 74 39 100 74 39 101 75 40 100 74 39 100 74 39 101 75 40 101 75 40 100 74 39 99 73 38 100 74 39 
5 4 2 0 0 0 1 1 1 25 49 36 36 69 52 24 47 37 1 1 1 5 5 7 77 26 85 17 7 18 3 3 3 9 4 10 47 15 52 40 13 44 15 5 16 2 0 1 1 1 1 7 5 8 2 2 4 12 11 17 54 41 69 26 20 32 3 1 4 1 1 1 5 5 5 29 26 37 63 49 82 61 85 85 53 101 77 54 102 78 72 93 86 99 81 95 102 82 94 72 93 86 53 101 77 53 101 77 65 83 87 77 61 100 71 72 93 53 101 77 53 101 75 51 101 76 53 101 77 68 94 83 85 89 92 76 93 87 55 100 79 53 101 77 52 102 77 73 71 95 73 59 95 51 64 72 36 68 53 33 61 47 1 1 1 1 1 1 82 61 34 98 74 40 100 74 37 99 73 36 100 74 39 101 75 40 101 75 40 101 75 40 101 75 40 101 75 40 100 74 39 100 74 39 100 74 39 101 75 40 100 74 39 100 74 39 100 74 39 101 75 40 100 74 39 100 74 41 100 74 39 100 74 39 100 74 39 100 74 39 100 74 39 100 74 39 100 74 39 100 74 39 101 75 40 100 74 39 100 74 39 100 74 39 101 75 40 100 74 39 100 74 39 100 74 39 100 74 39 101 75 40 100 74 39 101 75 40 100 74 39 99 73 38 100 74 39 99 73 38 
90 78 38 33 30 13 1 1 1 8 17 12 36 69 52 18 38 29 0 0 0 15 5 14 56 17 61 4 4 4 2 2 2 0 0 0 1 1 1 0 0 0 2 2 2 6 5 10 35 26 45 71 57 92 33 26 44 6 4 7 3 3 5 1 1 0 3 1 2 18 31 24 52 72 71 76 61 100 78 62 99 59 91 80 53 103 78 53 101 77 67 95 81 98 82 93 95 83 93 65 95 85 53 101 77 51 101 76 59 90 82 79 62 106 73 71 95 53 101 79 51 101 76 52 102 77 60 99 80 96 82 95 100 82 96 102 81 96 72 93 84 52 100 76 51 100 78 60 68 79 54 44 69 42 56 59 35 68 51 27 51 38 2 0 1 2 2 2 89 63 36 102 73 41 102 73 41 100 74 41 100 74 39 100 74 39 100 74 39 101 75 40 99 73 38 101 75 40 100 74 39 101 75 40 101 75 40 101 75 40 100 74 39 100 74 39 100 74 39 100 74 39 100 74 39 101 75 40 100 74 39 100 74 39 100 74 39 100 74 39 100 74 39 101 75 40 100 74 39 100 74 39 100 74 39 100 74 39 100 74 39 101 75 40 100 74 39 101 75 40 100 74 39 100 74 39 101 75 40 101 75 40 100 74 39 100 74 39 100 74 39 101 75 40 101 75 40 100 74 39 
101 91 42 55 48 22 1 1 1 8 14 12 34 67 50 8 14 12 0 0 0 23 8 27 16 6 15 1 1 1 1 1 1 0 0 0 0 0 0 2 0 3 3 3 3 58 45 73 70 56 92 29 23 37 2 2 4 0 0 0 3 3 1 29 57 43 40 82 62 51 94 74 72 70 94 76 59 101 67 79 91 52 100 76 52 100 76 53 101 77 52 100 76 60 97 80 62 96 79 52 102 77 54 102 78 53 101 77 58 94 82 76 61 100 76 64 100 55 98 79 53 102 73 51 100 78 65 98 79 99 81 97 102 81 96 102 81 98 76 91 84 51 95 70 41 80 59 45 54 63 55 40 69 41 50 57 15 30 23 4 6 5 1 1 1 26 19 11 97 70 40 100 74 39 100 74 39 100 74 39 101 75 40 99 73 38 100 74 39 100 74 39 100 74 39 99 73 38 101 75 40 99 73 38 101 75 40 99 73 38 101 75 40 99 73 38 101 75 40 100 74 39 101 75 40 101 75 40 100 74 39 100 74 39 100 74 39 100 74 39 100 74 39 100 74 39 100 74 39 100 74 39 100 74 39 100 74 39 100 74 39 100 74 39 101 75 40 101 75 40 100 74 39 100 74 39 100 74 39 100 74 39 99 73 38 100 74 39 101 75 40 101 75 40 101 75 40 100 74 39 
100 88 38 22 22 12 2 2 2 16 27 21 31 58 43 1 3 0 0 0 0 7 2 8 0 0 0 1 1 1 3 1 4 32 25 43 58 47 77 25 19 31 1 1 3 5 3 6 2 2 2 0 0 0 0 0 0 14 29 22 40 78 57 53 101 77 51 99 75 63 82 86 78 62 101 73 66 99 54 99 78 53 101 77 52 100 76 53 101 79 53 103 76 52 100 74 55 100 77 52 102 77 53 101 77 53 101 77 55 98 79 77 63 99 80 64 101 56 97 81 53 101 77 54 102 78 61 98 80 100 82 98 99 81 95 102 81 98 73 82 81 38 71 54 35 67 52 45 54 61 48 38 63 17 16 22 1 1 1 2 0 1 17 11 15 89 64 34 102 73 41 99 73 38 98 74 38 100 74 39 101 75 40 100 74 39 100 74 39 101 75 40 100 74 39 100 74 39 101 75 40 100 74 39 100 74 39 101 75 40 100 74 39 101 75 40 100 74 41 100 74 41 100 74 39 100 74 39 100 74 39 101 75 40 100 74 39 100 74 39 101 75 40 100 74 39 100 74 39 100 74 39 101 75 40 100 74 39 100 74 39 101 75 40 100 74 39 100 74 39 100 74 39 100 74 39 101 75 40 101 75 40 101 75 40 102 73 39 99 75 39 100 74 39 99 73 38 100 74 39 
62 57 25 0 0 0 2 2 2 22 42 31 20 37 27 0 0 0 2 0 1 1 1 1 1 1 0 0 0 0 46 36 61 76 59 101 63 48 81 30 24 38 3 1 2 1 1 0 3 3 1 13 26 19 43 82 63 51 99 75 52 100 74 52 102 77 55 96 78 75 66 97 77 61 100 67 82 89 52 100 76 51 101 76 53 101 77 53 101 77 54 99 78 60 93 84 61 87 86 54 97 78 55 100 79 53 101 77 57 95 80 77 62 101 76 66 100 53 98 77 53 101 75 53 101 75 54 99 76 79 89 88 99 81 95 89 75 88 45 67 55 34 68 52 36 69 52 29 53 40 3 3 5 1 1 1 7 2 8 54 17 60 82 43 72 100 74 39 102 73 39 100 76 40 99 73 38 101 75 40 100 74 39 100 74 39 100 74 39 101 75 40 100 74 39 100 74 39 100 74 39 101 75 40 100 74 39 100 74 39 101 75 40 100 74 39 101 75 40 99 73 38 100 74 39 100 74 39 101 75 40 100 74 39 100 74 39 101 75 40 100 74 39 100 74 39 100 74 39 100 74 39 101 75 40 100 74 39 100 74 39 100 74 39 101 75 40 100 74 39 100 74 39 100 74 39 100 74 39 100 74 39 100 74 39 103 74 40 100 76 40 100 74 39 100 74 39 99 73 38 
8 7 3 1 1 1 12 25 18 35 66 50 9 18 13 0 0 0 11 10 15 42 34 57 11 9 14 1 1 0 33 24 41 16 10 20 1 1 1 1 1 1 3 5 4 30 56 43 46 89 69 52 100 74 53 101 77 52 101 79 52 102 75 52 102 77 68 81 90 77 61 100 77 63 99 67 81 90 63 84 87 60 86 83 65 82 90 69 75 91 74 67 98 77 61 98 78 61 103 71 74 93 51 99 75 53 101 77 57 93 83 77 61 100 73 66 99 55 100 79 53 101 77 53 101 77 53 101 77 55 101 75 56 90 74 41 69 55 36 68 53 37 68 52 27 51 38 5 9 8 0 0 0 1 1 0 54 19 59 92 28 102 89 57 58 100 74 37 101 75 40 100 74 41 100 74 41 100 74 39 100 74 39 100 74 39 100 74 39 100 74 39 100 74 39 100 74 39 101 75 40 99 73 38 100 74 39 100 74 39 100 74 39 100 74 39 100 74 39 101 75 40 100 74 39 100 74 41 100 74 39 101 75 40 100 74 39 100 74 39 100 74 39 100 74 39 100 74 39 100 74 39 100 74 39 101 75 40 100 74 39 100 74 39 100 74 39 100 74 39 100 74 39 101 75 40 101 75 40 101 75 40 100 74 39 102 73 39 99 75 39 100 74 39 101 75 40 100 74 39 
1 1 1 11 22 16 33 64 48 35 69 52 18 31 22 1 1 1 44 34 58 78 62 101 35 28 46 0 0 0 1 1 0 1 1 0 3 3 3 16 29 22 39 76 58 52 102 77 53 101 77 52 100 74 53 101 77 52 100 76 51 99 75 52 100 76 69 76 92 78 60 100 77 62 101 78 62 101 78 62 101 77 62 101 77 61 100 78 62 101 78 62 101 77 63 99 78 61 103 72 69 96 53 101 77 53 101 77 60 91 85 78 64 100 75 63 99 55 96 80 51 101 76 53 101 77 52 100 76 44 83 64 36 68 53 36 67 51 35 67 52 28 56 42 5 9 8 0 0 0 9 4 10 28 9 29 72 28 81 92 29 99 86 49 67 99 73 38 100 74 39 101 75 40 100 74 39 100 76 40 99 73 38 100 74 39 100 74 39 100 74 39 100 74 39 100 74 39 100 74 39 99 73 38 100 74 39 99 73 38 100 74 39 100 74 39 100 74 39 100 74 39 101 75 40 101 75 40 100 74 39 100 74 39 101 75 40 99 73 38 100 74 39 100 74 39 101 75 40 100 74 39 100 74 39 100 74 39 100 74 39 100 74 39 99 73 38 101 75 40 99 73 38 100 74 39 98 72 37 100 74 39 100 74 39 100 74 39 100 74 39 100 74 39 100 74 39 100 74 39 
37 71 55 41 78 60 37 68 53 34 65 49 5 11 7 1 1 1 34 25 42 21 15 25 0 0 0 1 1 1 4 6 5 27 21 33 62 49 79 58 91 82 53 101 79 51 99 75 51 101 76 52 100 76 51 100 78 53 101 79 53 101 77 53 101 77 58 94 82 69 75 91 70 75 94 67 72 92 70 73 92 66 78 90 66 78 90 66 80 89 60 89 84 65 82 89 77 61 100 74 72 96 55 98 78 54 97 78 68 78 90 77 61 100 73 71 95 53 101 79 51 101 76 49 93 70 40 74 57 36 68 53 36 69 52 34 65 49 16 27 21 1 3 2 2 0 1 16 6 17 81 25 88 91 28 99 92 29 100 92 29 100 90 58 59 100 74 39 100 74 39 100 74 41 100 74 39 101 72 38 100 74 39 100 74 39 99 73 38 98 72 37 99 73 38 100 74 39 101 75 40 100 74 39 100 74 39 100 74 39 100 74 39 100 74 39 101 75 40 100 74 39 101 75 40 101 75 40 100 74 39 100 74 39 100 74 39 100 74 39 100 74 39 100 74 39 100 74 39 100 74 39 100 74 39 99 73 38 100 74 39 100 74 39 100 74 39 100 74 39 100 74 39 100 74 39 99 73 38 99 73 38 99 73 38 100 74 39 100 74 39 100 74 39 99 73 38 100 74 39 
52 100 76 37 71 54 35 68 51 31 62 47 3 5 4 1 1 1 0 2 1 0 0 0 2 2 2 13 19 15 42 63 58 77 61 100 76 60 99 58 91 80 52 100 76 52 100 76 51 101 76 52 100 76 52 100 76 51 99 75 52 100 76 54 99 76 58 100 80 52 100 76 53 101 79 52 100 76 53 101 77 52 101 79 52 100 76 51 101 76 52 100 76 59 88 84 77 61 98 77 63 99 73 68 98 72 65 96 78 61 103 78 62 101 60 89 85 51 99 75 41 78 60 37 70 53 36 67 51 36 70 53 33 64 49 13 26 19 1 2 4 0 0 0 2 2 2 11 4 12 72 23 78 93 30 101 92 29 100 92 29 100 87 47 71 101 72 38 100 74 39 100 74 39 100 74 39 103 73 39 100 74 39 100 74 39 101 75 40 100 74 39 100 74 39 101 75 40 100 74 39 100 74 39 100 74 39 100 74 39 101 75 40 100 74 39 100 74 39 100 74 39 100 74 39 101 75 40 101 75 40 99 73 38 100 74 39 101 75 40 100 74 39 101 75 40 101 75 40 100 74 39 100 74 39 100 74 39 100 74 39 100 74 39 100 74 39 100 74 39 100 74 39 100 74 39 100 74 39 100 74 39 101 75 40 101 75 40 102 76 41 102 76 41 101 75 40 100 74 39 
47 95 69 35 68 51 35 68 51 16 31 24 1 1 1 1 1 1 1 1 3 6 8 7 36 68 53 51 96 73 61 87 86 78 61 103 76 65 99 55 96 80 53 101 77 52 102 77 52 100 76 52 102 77 53 101 77 53 101 77 57 99 79 78 90 86 93 83 92 78 90 86 52 101 79 52 100 76 52 100 76 52 102 77 51 100 78 54 102 78 53 101 77 59 92 81 77 61 100 79 61 101 78 62 101 78 62 99 73 69 96 63 84 85 51 95 70 40 77 60 35 68 51 35 69 52 36 67 52 24 44 33 4 8 7 1 1 1 3 1 2 5 3 6 2 2 4 5 3 6 61 19 67 94 31 102 91 30 100 93 30 101 87 40 84 102 73 39 100 74 39 100 74 39 102 73 39 100 74 39 100 74 39 100 74 39 102 76 41 100 74 39 100 74 39 101 75 40 100 74 39 101 75 40 100 74 39 100 74 39 100 74 39 100 74 39 100 74 39 99 73 38 100 74 39 100 74 39 99 73 38 100 74 39 99 73 38 101 75 40 100 74 39 101 75 40 100 74 39 101 75 40 100 74 39 100 74 39 99 73 38 100 74 39 100 74 39 99 73 38 100 74 39 100 74 39 100 74 39 101 75 40 100 74 39 98 72 37 100 74 39 99 73 38 100 74 39 100 74 39 
45 87 67 35 68 51 36 67 52 7 12 8 1 1 1 4 6 3 20 41 32 44 86 66 52 100 76 52 100 78 61 87 84 78 62 101 74 70 97 52 100 76 53 101 77 53 101 79 53 101 77 52 100 76 53 101 77 59 98 79 88 86 91 99 81 95 102 81 98 96 84 94 56 97 79 53 101 77 52 100 76 52 100 76 52 100 76 53 101 77 52 100 76 53 101 77 64 81 88 63 80 87 62 87 84 59 92 83 51 96 76 42 84 62 36 69 52 36 69 52 35 67 52 33 64 48 18 34 24 2 2 2 0 0 2 21 7 24 54 16 57 69 22 74 16 6 17 12 5 12 89 28 95 91 28 98 56 19 62 89 30 96 90 36 88 101 75 40 100 74 39 100 74 37 99 73 38 100 74 39 99 73 38 100 74 39 100 74 39 100 74 39 100 74 39 100 74 39 100 74 39 100 74 39 101 75 40 100 74 39 100 74 39 100 74 39 100 74 39 100 74 39 100 74 39 100 74 39 100 74 39 100 74 39 100 74 39 100 74 39 100 74 39 100 74 39 100 74 39 100 74 39 100 74 39 100 74 39 100 74 39 100 74 39 100 74 39 100 74 39 100 74 39 101 75 40 99 73 38 100 74 39 100 74 39 100 74 39 101 75 40 100 74 39 100 74 39 100 74 39 
41 78 60 36 68 53 29 55 42 3 5 2 3 3 3 25 47 35 38 71 52 54 100 74 55 101 75 55 101 75 67 79 91 77 61 100 73 71 95 52 100 78 59 92 83 69 74 93 61 85 85 52 100 76 52 100 76 70 93 83 99 81 95 101 80 95 100 82 96 86 87 91 55 100 77 52 100 76 53 101 77 52 102 73 52 100 74 53 101 77 53 101 77 52 100 76 52 100 76 52 102 77 49 97 75 46 89 69 38 71 54 35 68 51 35 67 52 36 68 53 32 60 45 9 14 10 0 0 0 1 1 3 37 12 41 38 13 42 86 27 91 92 29 100 74 23 79 61 19 65 91 30 100 74 25 81 7 5 8 86 32 92 92 29 100 93 66 45 100 74 39 99 75 37 101 75 40 102 73 39 100 74 39 100 74 39 100 74 39 100 74 39 100 74 39 100 74 39 100 74 39 100 74 39 101 75 40 100 74 39 100 74 39 100 74 39 100 74 39 100 74 39 100 74 39 100 74 39 100 74 39 101 75 40 101 75 40 100 74 39 100 74 39 100 74 39 100 74 39 101 75 40 100 74 39 99 73 38 100 74 39 100 74 39 100 74 39 100 74 39 99 73 38 100 74 39 100 74 39 100 74 39 100 74 39 100 74 39 99 73 38 100 74 39 100 74 39 100 74 39 
38 75 57 35 68 51 22 44 32 0 0 0 6 10 9 36 67 51 46 79 58 59 100 70 61 100 73 57 99 75 74 70 95 78 62 101 74 67 98 69 74 93 76 62 98 78 62 101 75 64 98 55 98 79 53 101 77 59 98 79 92 85 93 98 82 95 91 84 92 61 98 81 54 99 78 53 101 75 51 101 76 52 100 74 52 100 76 56 94 81 63 84 85 52 97 76 50 98 74 51 96 73 38 75 57 37 68 53 36 69 52 35 68 49 35 66 51 25 52 37 6 12 8 1 1 1 11 4 12 50 15 55 30 11 33 1 1 1 37 13 39 92 29 100 90 28 101 90 29 98 91 27 101 38 12 41 5 5 5 84 33 92 93 30 101 91 62 56 100 74 39 99 75 39 100 74 41 100 74 39 100 74 39 100 74 39 100 74 39 100 74 39 100 74 39 100 74 39 100 74 39 101 75 40 101 75 40 100 74 39 99 73 38 100 74 39 100 74 39 100 74 39 100 74 39 99 73 38 100 74 39 100 74 39 100 74 39 99 73 38 100 74 39 100 74 39 100 74 39 100 74 39 100 74 39 100 74 39 100 74 39 100 74 39 101 75 40 99 73 38 101 75 40 100 74 39 99 73 38 100 74 39 100 74 39 100 74 39 100 74 39 101 75 40 100 74 39 100 74 39 
38 69 53 35 68 51 13 24 18 1 1 1 15 25 17 41 69 47 60 89 59 73 100 67 72 99 64 65 100 68 75 72 91 79 63 100 77 61 100 77 61 100 77 63 99 79 61 101 77 66 100 54 99 78 53 101 77 53 101 77 55 98 78 57 99 79 56 102 76 51 101 74 53 101 77 52 100 76 54 99 78 61 85 87 74 67 98 78 62 101 74 58 95 51 54 69 34 69 49 34 68 51 35 69 52 36 67 51 36 69 52 25 46 37 5 7 4 1 1 1 1 1 3 35 10 39 87 26 93 78 24 82 5 3 4 2 2 2 4 2 3 41 15 44 89 28 98 92 29 100 86 27 93 32 13 35 3 3 3 76 29 81 92 31 100 92 65 44 100 74 39 100 74 39 100 74 39 100 74 39 100 74 39 100 74 39 100 74 39 100 74 39 100 74 39 100 74 39 100 74 39 100 74 39 100 74 39 100 74 39 100 74 39 100 74 39 100 74 39 100 74 39 99 73 38 100 74 39 101 75 40 100 74 39 100 74 39 101 75 40 101 75 40 100 74 39 99 73 38 100 74 39 100 74 39 100 74 39 100 74 39 100 74 39 100 74 39 99 73 38 100 74 39 100 74 39 100 74 39 100 74 39 99 73 38 99 73 38 100 74 39 100 74 39 100 74 39 100 74 39 
36 69 52 35 66 50 5 7 6 1 1 1 23 39 28 47 71 49 80 101 70 98 101 92 95 101 89 74 101 68 67 91 77 74 70 95 69 76 92 61 88 83 59 92 83 77 60 102 75 63 99 54 97 77 51 99 75 53 101 77 52 100 74 51 101 76 52 100 76 53 103 78 52 100 76 53 101 77 68 73 93 77 61 100 75 59 96 65 51 84 53 43 70 51 41 68 37 63 54 36 69 52 35 68 51 32 60 46 17 30 23 2 4 3 1 1 1 3 1 2 22 8 25 88 29 97 93 29 103 89 28 98 42 15 48 7 5 8 2 2 2 26 9 27 92 29 100 92 29 100 93 30 101 90 27 97 41 16 46 85 31 93 92 31 100 93 69 41 99 73 40 102 73 39 101 75 40 100 74 39 99 73 38 99 73 38 100 74 39 99 73 38 100 74 39 100 74 39 99 73 38 100 74 39 99 73 38 100 74 39 100 74 39 100 74 39 100 74 39 100 74 39 100 74 39 99 73 38 100 74 39 100 74 39 100 74 39 100 74 39 100 74 39 100 74 39 100 74 39 100 74 39 100 74 39 99 73 38 100 74 39 99 73 38 100 74 39 100 74 39 100 74 39 99 73 38 101 75 40 100 74 39 100 74 39 101 75 40 100 74 39 99 73 38 101 75 40 100 74 39 
36 69 52 31 59 45 2 0 1 2 2 2 33 56 40 53 79 52 92 99 83 100 100 100 98 101 92 76 99 70 62 98 70 55 99 76 53 101 75 51 101 76 60 89 84 78 62 101 72 69 96 51 99 77 52 100 76 52 100 76 52 102 77 51 101 76 52 102 77 51 99 75 53 101 77 54 99 78 74 65 96 61 47 80 44 55 59 40 63 55 45 52 62 51 41 68 49 48 64 35 61 48 19 34 27 4 6 5 1 1 0 1 1 1 6 5 3 2 1 0 45 15 51 92 29 100 89 28 95 93 27 99 91 30 100 68 21 73 11 6 13 46 16 50 91 28 99 78 24 86 46 16 54 89 26 96 91 30 99 90 29 98 91 30 100 91 66 46 99 74 34 100 74 41 99 73 38 100 74 39 100 74 39 100 74 39 101 75 40 99 73 38 99 73 38 100 74 39 99 73 38 98 72 37 100 74 39 100 74 39 100 74 39 100 74 39 100 74 39 100 74 39 100 74 39 100 74 39 101 75 40 100 74 39 100 74 39 100 74 39 99 73 38 101 75 40 100 74 39 99 73 38 100 74 39 99 73 38 99 73 38 100 74 39 100 74 39 99 73 38 100 74 39 100 74 39 100 74 39 100 74 39 100 74 39 100 74 39 100 74 39 99 73 38 100 74 39 100 74 39 
36 68 53 24 48 35 2 2 2 8 14 10 38 65 48 59 85 58 84 100 74 94 100 88 88 100 76 72 102 68 59 102 74 52 102 77 52 100 76 52 100 76 59 90 84 78 62 101 74 67 98 54 99 78 54 98 75 54 99 76 52 100 76 53 101 75 52 100 76 52 100 76 50 95 74 40 79 61 49 46 67 51 41 68 44 55 57 37 70 53 39 62 56 49 41 65 28 22 34 5 5 7 1 1 1 1 1 1 4 2 3 13 7 7 2 0 1 22 8 25 90 27 98 91 28 99 38 12 41 31 12 34 86 27 93 93 30 101 69 22 76 83 27 92 92 29 100 42 16 45 2 2 2 41 14 49 82 27 92 93 30 101 92 31 100 92 68 42 100 74 39 99 73 38 101 75 42 101 72 38 100 74 39 99 73 38 101 75 40 99 73 38 99 73 38 100 74 39 99 73 38 100 74 39 100 74 39 100 74 39 100 74 39 99 73 38 99 73 38 100 74 39 100 74 39 100 74 39 100 74 39 99 73 38 99 73 38 100 74 39 100 74 39 100 74 39 100 74 39 100 74 39 100 74 39 100 74 39 100 74 39 100 74 39 100 74 39 100 74 39 100 74 39 100 74 39 100 74 39 99 73 38 100 74 39 100 74 39 100 74 39 99 73 38 100 74 39 100 74 39 
34 67 50 9 18 15 2 0 1 16 27 21 39 68 50 59 95 67 69 100 68 72 99 66 70 99 68 63 100 69 57 100 73 54 99 76 52 102 77 52 100 74 65 77 89 78 62 101 76 65 99 70 71 92 77 62 101 73 66 97 54 95 79 51 101 76 49 94 71 38 76 55 36 70 53 35 68 51 47 51 63 52 42 69 50 47 66 34 66 51 26 49 39 4 8 7 0 0 0 1 1 0 7 2 6 48 16 55 64 20 69 19 7 19 4 2 5 70 21 76 93 30 101 58 19 66 4 2 3 1 1 1 21 9 23 84 28 93 73 24 80 87 28 96 93 27 99 22 8 23 4 2 5 2 2 2 29 16 33 92 29 100 86 39 83 99 73 40 100 74 39 101 72 38 101 75 40 102 73 39 99 73 38 99 73 38 100 74 39 99 73 38 99 73 38 101 75 40 99 73 38 99 73 38 100 74 39 100 74 39 99 73 38 100 74 39 100 74 39 99 73 38 100 74 39 100 74 39 100 74 39 100 74 39 100 74 39 100 74 39 100 74 39 101 75 40 100 74 39 100 74 39 100 74 39 100 74 39 100 74 39 99 73 38 98 72 37 99 73 38 100 74 39 100 74 39 100 74 39 100 74 39 100 74 39 99 73 38 100 74 39 100 74 39 100 74 39 101 75 40 
32 63 48 4 6 5 1 1 1 29 55 42 38 72 55 52 94 72 56 91 69 60 99 72 60 100 74 56 100 73 53 101 77 52 102 75 52 102 77 52 100 76 68 75 91 78 62 101 78 62 101 77 62 101 72 58 94 72 56 93 57 75 79 37 74 56 36 69 52 36 69 52 34 68 51 35 68 51 42 58 58 51 39 63 33 29 43 11 20 15 1 1 1 1 1 1 12 4 15 37 12 41 33 10 36 74 23 82 91 30 100 86 27 95 50 18 57 90 29 99 81 25 88 15 5 16 3 3 3 3 3 3 3 3 3 7 5 8 81 25 88 92 29 100 90 29 99 57 18 63 9 4 8 3 3 3 64 27 71 92 29 99 85 51 65 100 74 39 99 73 40 100 74 39 100 74 39 100 74 39 100 74 39 100 74 39 100 74 39 100 74 39 100 74 39 99 73 38 100 74 39 99 73 38 100 74 39 99 73 38 100 74 39 100 74 39 100 74 39 100 74 39 99 73 38 100 74 39 99 73 38 100 74 39 99 73 38 100 74 39 100 74 39 100 74 39 100 74 39 100 74 39 99 73 38 99 73 38 99 73 38 100 74 39 100 74 39 99 73 38 99 73 38 100 74 39 100 74 39 100 74 39 100 74 39 100 74 39 99 73 38 100 74 39 100 74 39 99 73 38 
30 58 44 1 1 1 1 1 1 29 57 43 39 64 58 46 55 62 52 44 67 63 67 78 49 91 71 51 96 73 48 96 72 51 99 75 52 100 76 51 95 72 52 83 75 65 77 89 63 68 87 52 67 72 50 49 65 52 42 69 42 58 58 35 68 51 35 68 51 35 68 51 34 68 51 32 63 47 30 53 43 8 9 11 1 1 1 0 0 0 1 1 3 30 11 33 81 25 90 70 23 77 4 2 5 11 6 13 69 22 74 92 29 100 92 28 102 92 29 100 53 18 58 3 3 3 3 3 3 3 3 3 3 3 3 35 11 37 89 28 97 86 27 95 87 26 95 92 29 100 62 20 68 15 7 18 70 26 75 92 29 100 87 51 63 101 72 42 99 73 38 100 74 39 99 73 38 99 75 41 100 74 39 100 74 39 99 73 38 100 74 39 100 74 39 99 73 38 100 74 39 101 75 40 99 73 38 100 74 39 99 73 38 100 74 39 100 74 39 99 73 38 100 74 39 99 73 38 100 74 39 100 74 39 100 74 39 100 74 39 100 74 39 100 74 39 100 74 39 100 74 39 99 73 38 99 73 38 99 73 38 100 74 39 100 74 39 100 74 39 100 74 39 101 75 40 100 74 41 100 74 39 100 74 39 100 74 41 99 73 40 100 74 39 99 73 38 99 73 40 
29 53 40 0 0 0 2 4 3 42 46 57 53 43 68 54 41 67 53 40 68 52 42 67 40 63 55 37 70 53 36 68 53 38 72 55 38 72 55 38 71 54 35 68 51 38 71 54 36 69 52 37 68 53 44 55 59 50 40 67 44 55 59 37 68 52 36 69 52 33 64 49 28 54 41 6 11 7 2 0 1 0 0 0 3 1 2 33 11 34 60 18 64 88 27 96 89 28 97 43 13 47 3 3 3 2 2 2 8 6 9 85 26 90 93 29 103 91 28 99 83 24 88 38 12 41 3 3 3 3 3 3 11 6 13 86 27 93 91 28 99 44 14 48 37 12 41 89 28 97 92 29 100 83 27 92 86 27 95 92 29 100 87 55 60 99 73 38 99 73 38 99 73 40 100 74 39 100 74 41 99 73 38 99 73 38 99 73 38 99 73 38 100 74 39 100 74 39 100 74 39 100 74 39 99 73 38 100 74 39 100 74 39 100 74 39 100 74 39 100 74 39 100 74 39 99 73 38 100 74 39 99 73 38 99 73 38 100 74 39 101 75 40 99 73 38 100 74 39 100 74 39 99 73 38 99 73 38 99 73 38 99 73 38 99 73 38 100 74 39 100 74 39 100 74 39 100 74 39 99 73 40 99 73 40 99 73 38 99 73 38 100 74 41 100 74 41 101 75 40 
17 32 25 0 0 0 13 10 17 50 40 67 51 41 68 49 48 64 52 44 65 51 40 70 41 60 58 35 68 51 35 68 51 35 67 52 36 69 52 35 68 51 35 68 51 36 68 53 35 66 50 36 67 51 41 57 57 51 41 66 43 49 61 33 64 48 18 35 25 6 10 9 0 0 2 2 0 1 0 0 0 1 1 0 3 3 3 30 13 32 83 27 90 92 29 100 89 28 98 27 10 28 4 2 3 3 3 3 26 9 28 93 27 99 89 28 98 86 27 95 92 29 100 92 29 100 56 18 59 9 4 8 34 11 37 94 28 100 82 26 91 9 4 10 5 3 4 34 11 37 69 22 76 92 29 100 92 29 100 92 29 100 89 50 68 100 74 39 102 73 39 100 74 41 97 73 39 98 74 38 100 74 39 100 74 39 100 74 39 100 74 39 100 74 39 99 73 38 100 74 39 100 74 39 100 74 39 100 74 39 100 74 39 99 73 38 99 73 38 100 74 39 100 74 39 100 74 39 99 73 38 101 75 40 100 74 39 100 74 39 99 73 38 100 74 39 99 73 38 100 74 39 100 74 39 100 74 39 98 72 37 100 74 39 100 74 39 99 73 38 99 73 38 100 74 39 99 73 38 100 74 39 100 74 39 99 73 38 100 74 39 101 75 40 100 74 39 99 73 38 
5 11 9 1 1 1 21 20 26 45 52 60 43 57 58 36 67 52 42 58 58 54 41 69 50 45 65 36 67 52 35 68 51 35 68 51 36 69 52 35 68 49 35 67 54 35 67 52 35 68 51 35 68 51 45 54 59 46 36 61 26 29 36 5 11 7 1 1 1 0 0 0 1 1 3 16 6 17 2 2 2 2 2 2 2 2 4 39 15 41 73 24 80 86 27 95 92 29 100 91 28 99 56 18 59 17 7 16 75 24 83 93 30 101 60 18 66 17 7 18 54 17 58 91 28 99 93 30 101 68 21 73 81 25 86 90 29 99 41 14 45 3 1 2 3 3 5 2 2 2 10 5 11 81 25 88 92 29 99 92 29 100 85 38 82 98 73 42 98 74 38 100 74 41 99 73 40 98 72 39 100 74 39 99 73 38 99 73 38 100 74 39 100 74 39 100 74 39 100 74 39 100 74 39 99 73 38 101 75 40 99 73 38 101 75 40 99 73 38 99 73 38 100 74 39 99 73 38 100 74 39 99 73 38 100 74 39 99 73 40 100 74 39 100 74 41 100 74 39 100 74 39 100 74 39 100 74 39 99 73 38 100 74 39 100 74 39 99 73 38 99 73 38 98 72 37 100 74 39 99 73 36 99 73 38 101 75 40 99 73 38 99 73 40 100 74 39 100 73 43 
1 3 2 2 4 3 30 56 43 35 68 49 36 69 52 36 69 52 36 67 52 52 44 68 52 44 68 41 60 58 35 68 51 35 68 51 37 68 52 36 69 52 35 68 51 34 68 51 34 66 51 29 55 42 11 17 15 4 4 4 1 1 1 1 1 1 4 2 5 22 8 25 69 22 76 85 26 94 55 18 62 13 6 14 16 6 15 81 26 91 90 30 100 51 16 56 54 17 58 88 27 97 91 27 101 86 27 93 91 30 100 88 27 96 17 7 18 2 2 2 4 2 3 48 16 53 87 28 96 70 23 78 90 27 98 87 26 95 8 6 11 3 3 3 4 3 1 3 3 3 23 8 27 90 27 97 88 29 97 92 29 100 88 34 92 97 72 41 100 74 41 100 74 41 99 73 40 100 74 39 99 73 38 99 73 38 100 74 39 99 73 40 99 73 38 99 73 38 99 73 38 99 73 38 100 74 41 99 73 40 100 74 41 100 74 41 100 74 41 99 73 40 99 73 40 98 72 39 100 74 41 100 74 39 100 74 41 100 74 39 99 73 38 99 73 38 99 73 38 99 73 38 100 74 39 100 74 39 100 74 39 100 74 39 100 74 39 99 73 38 100 74 39 99 73 38 99 73 40 100 74 39 99 73 40 99 73 38 100 74 39 100 74 39 101 75 40 100 74 39 
0 2 1 4 8 7 34 67 50 35 68 51 36 69 52 36 68 53 34 66 51 46 53 63 51 41 66 45 54 61 36 69 52 35 67 52 35 68 51 35 67 52 34 62 47 19 39 30 9 15 11 1 1 1 2 0 3 1 1 3 9 4 11 48 16 55 41 14 45 4 2 5 41 14 45 89 28 98 92 29 100 72 23 79 67 23 76 93 29 103 72 23 78 6 4 7 3 3 3 26 9 27 79 25 87 91 27 101 91 30 100 78 24 84 17 7 18 3 3 3 3 1 2 3 3 3 16 6 17 80 26 88 91 28 99 91 30 100 68 21 73 10 5 12 3 3 3 7 2 6 75 24 83 92 29 100 62 20 68 83 32 91 91 30 99 91 66 46 99 73 38 99 73 38 100 74 39 99 73 38 100 74 39 100 74 39 100 74 41 99 73 38 99 73 40 99 73 38 100 74 39 100 74 39 99 73 40 99 73 40 100 74 41 100 74 41 99 73 40 99 73 40 98 72 39 100 74 41 100 74 39 99 73 38 100 74 39 100 74 39 100 74 41 99 73 38 99 73 40 98 72 39 100 74 41 100 74 41 99 73 40 100 74 41 99 73 40 99 73 40 99 73 40 100 74 41 99 73 40 100 74 39 99 73 40 100 74 39 99 73 38 100 74 39 99 73 38 100 74 39 
0 0 0 10 21 15 35 66 51 35 67 52 35 68 51 34 68 51 36 69 52 44 55 57 53 40 66 48 47 63 35 69 52 35 67 52 32 60 45 19 35 24 3 4 6 1 1 1 0 0 0 2 2 2 18 6 20 65 21 72 86 27 91 86 25 92 8 3 7 3 3 5 3 3 1 29 10 32 81 27 89 93 30 101 91 27 101 90 29 99 30 11 33 3 3 3 2 2 2 10 5 11 72 23 79 71 24 79 90 29 99 91 30 100 79 23 86 20 8 20 3 3 3 3 3 3 48 17 51 92 29 100 88 27 96 90 26 100 91 28 99 77 26 85 47 15 52 28 11 30 90 30 100 85 26 92 12 5 12 81 30 87 94 28 100 87 57 59 99 73 40 99 73 38 99 73 40 99 73 40 100 74 39 99 73 40 100 74 39 98 72 39 99 73 38 99 73 40 100 74 39 99 73 38 99 73 38 100 74 39 100 74 39 100 74 39 99 73 38 100 74 39 99 73 38 99 73 38 99 73 40 100 74 41 101 75 40 99 73 40 99 73 38 100 74 39 100 74 39 98 72 37 100 74 39 100 74 39 99 73 38 100 74 39 100 74 39 100 74 39 100 74 39 99 73 38 100 74 39 99 73 40 99 73 38 100 74 39 100 74 41 99 73 38 100 74 39 100 74 39 
0 0 0 17 30 21 35 68 51 35 68 51 34 68 51 35 68 51 35 67 52 38 66 54 51 43 66 50 42 66 26 47 38 11 21 13 1 1 1 0 2 1 0 0 0 4 2 3 30 15 18 51 16 56 89 28 97 92 29 100 92 29 99 66 22 73 10 5 9 4 2 3 3 3 3 2 2 2 17 7 18 81 25 88 90 29 99 91 27 101 68 21 75 12 5 12 3 3 3 49 15 52 92 29 100 85 26 92 46 16 50 80 24 87 91 30 100 82 26 89 34 14 41 13 6 13 69 22 76 92 29 100 60 18 66 23 9 26 75 24 83 91 30 100 88 27 96 71 24 76 91 30 100 54 17 60 1 1 1 68 29 73 92 29 100 87 55 60 98 72 39 99 75 41 98 74 40 99 73 38 100 74 39 99 73 38 100 74 41 100 74 39 99 73 40 100 74 39 100 74 41 100 74 39 100 74 39 100 74 39 99 73 38 100 74 39 100 74 39 100 74 39 100 74 39 99 73 38 99 73 38 100 74 39 101 75 40 99 73 38 99 73 38 100 74 41 100 74 39 99 73 40 100 74 39 99 73 38 99 73 38 99 73 38 100 74 39 99 73 38 99 73 38 100 74 39 100 74 39 99 73 40 100 74 39 99 73 38 99 73 40 99 73 38 99 73 38 100 74 39 
1 1 1 28 51 41 35 68 51 35 68 51 35 68 51 35 68 51 34 67 50 25 49 36 27 32 36 17 16 22 0 0 0 0 1 3 1 1 1 7 5 6 53 32 31 85 49 49 33 18 21 5 3 6 69 22 74 82 26 89 91 28 99 92 29 100 77 23 83 19 7 19 3 3 3 3 3 3 34 11 37 88 27 96 93 27 99 90 29 99 91 30 100 83 27 92 47 15 54 86 27 95 90 29 99 35 12 38 3 3 3 23 9 26 80 24 87 91 29 102 89 29 99 81 25 88 93 29 103 89 28 97 26 9 28 2 2 2 7 5 8 47 15 52 71 22 77 80 24 87 91 30 100 50 15 55 1 1 1 73 29 78 91 30 100 89 59 57 100 74 39 99 73 36 99 73 38 99 73 40 101 75 40 99 73 38 99 73 38 100 74 41 98 72 37 100 74 41 100 74 39 100 74 39 100 74 41 100 74 41 99 73 40 100 74 41 100 74 41 99 73 40 99 73 40 100 74 41 99 73 40 99 73 38 100 74 41 100 74 39 100 74 39 100 74 39 99 73 38 99 73 38 100 74 39 100 74 39 100 74 39 99 73 38 99 73 38 100 74 39 100 74 39 100 74 39 100 74 39 100 74 39 100 74 39 99 73 40 100 74 39 99 73 38 99 73 40 98 72 37 
4 6 3 36 63 48 35 68 51 34 67 50 30 61 45 28 51 41 11 17 13 2 0 1 1 1 1 1 1 1 4 2 5 20 6 21 55 17 58 81 26 84 88 46 68 92 50 52 17 12 9 44 14 48 86 25 94 65 21 72 56 17 61 85 26 94 91 28 99 88 27 97 56 19 62 19 7 19 87 28 96 92 29 100 65 21 72 35 10 39 74 23 80 91 30 100 91 30 100 92 28 102 78 24 84 7 5 10 3 3 3 3 3 3 10 5 12 47 15 52 84 25 91 91 28 99 92 28 102 61 19 65 4 2 3 2 2 2 2 4 3 11 4 11 73 24 80 91 30 100 91 28 99 89 28 98 53 18 58 83 29 91 92 31 101 91 63 49 100 74 39 100 74 41 98 74 38 99 73 38 99 73 38 99 73 38 100 74 39 100 74 39 99 73 40 99 73 38 99 73 38 100 74 39 99 73 40 99 73 40 100 74 41 99 73 40 100 74 41 99 73 40 100 74 41 99 73 40 99 73 38 100 74 39 100 74 39 100 74 39 99 73 40 99 73 38 99 73 40 100 74 39 99 73 40 100 74 39 99 73 38 99 73 40 100 74 41 99 73 38 100 74 39 99 73 40 100 74 39 100 74 37 99 73 38 99 73 40 98 72 37 100 74 39 99 73 40 100 74 39 
15 28 21 30 61 46 21 41 30 14 20 16 5 7 6 2 2 2 0 0 0 5 3 4 10 6 7 42 16 45 77 23 83 89 28 95 84 31 87 91 30 100 92 29 100 84 32 81 44 18 43 84 27 95 90 27 98 26 9 28 4 2 5 12 4 15 58 19 64 90 29 99 89 29 99 87 28 96 91 30 100 73 24 80 11 6 12 3 3 3 3 3 5 71 22 77 91 29 102 92 28 102 91 28 99 52 17 57 5 5 7 3 3 3 2 2 2 3 1 2 58 19 64 85 26 90 91 28 99 89 28 97 38 13 42 4 4 2 3 3 5 44 14 48 92 29 100 76 25 84 44 14 48 88 29 95 90 29 99 91 29 102 88 34 96 94 69 39 100 74 39 100 74 39 100 74 41 99 73 40 100 74 39 99 73 38 100 74 39 98 72 37 100 74 39 99 73 38 99 73 38 99 73 38 99 73 38 100 74 39 100 74 39 100 74 39 99 73 38 99 73 38 99 73 38 100 74 39 100 74 39 98 72 39 100 74 39 99 73 40 100 74 39 99 73 38 100 74 39 100 74 39 99 73 40 99 73 38 99 73 38 99 73 40 99 73 40 100 74 39 99 73 38 98 72 39 99 73 38 101 75 42 100 74 39 99 73 38 99 73 40 100 74 39 99 73 38 99 73 38 
