P3
100 50
255
87 63 63 88 64 64 87 63 63 88 64 64 86 65 64 89 63 62 89 63 62 88 62 65 88 63 66 71 51 52 2 2 2 4 4 4 33 48 41 38 55 45 41 57 47 38 54 44 40 56 45 39 59 47 56 80 66 29 40 34 1 2 4 13 19 15 60 80 69 58 85 70 58 82 68 63 87 74 52 81 63 64 86 74 61 83 70 63 85 73 60 82 69 58 82 66 61 83 70 61 85 71 55 82 65 60 84 70 69 86 76 59 83 69 59 83 69 58 82 69 36 53 43 0 0 0 36 26 27 88 64 64 89 65 65 88 64 64 88 63 66 87 63 63 87 62 65 88 63 66 88 63 66 88 63 66 88 64 64 89 65 65 88 64 64 89 64 67 89 65 65 88 64 64 88 63 66 88 64 64 88 64 64 89 64 67 87 62 65 88 63 66 89 65 65 89 65 65 87 63 63 88 63 66 88 64 64 88 63 66 89 65 65 88 64 64 89 65 65 87 62 65 87 62 65 88 64 64 88 63 66 88 64 64 88 64 64 88 64 64 88 64 64 88 63 66 88 64 64 88 64 64 88 63 66 88 63 66 88 63 66 89 64 67 88 63 66 87 62 65 88 63 66 88 63 66 88 62 63 90 66 66 87 62 65 88 63 66 88 63 66 89 63 64 37 27 26 0 0 2 
88 63 66 88 63 66 88 63 66 88 63 66 89 63 66 88 64 64 89 65 65 89 63 64 89 65 65 34 25 26 1 1 1 14 19 15 40 56 46 40 55 48 42 55 46 38 55 45 41 56 49 55 75 63 57 83 70 52 76 63 34 50 40 47 67 55 61 85 71 55 79 63 62 86 73 63 85 73 60 84 70 60 82 70 63 87 74 63 85 72 61 83 71 60 84 70 61 85 72 62 84 72 59 83 69 59 83 69 60 84 70 59 83 70 62 82 71 58 80 67 33 48 41 0 0 0 51 37 37 88 63 66 88 63 66 87 62 66 87 62 65 87 63 63 89 65 65 87 63 63 88 64 64 89 65 65 89 63 64 88 62 65 90 64 65 90 64 65 89 63 66 90 64 65 89 63 64 89 63 64 86 61 64 88 64 64 87 63 63 88 64 64 88 63 66 87 62 65 87 62 65 88 64 64 87 62 65 88 64 64 87 63 63 87 63 63 87 63 63 88 63 66 88 64 64 88 64 64 88 64 64 87 63 63 89 65 65 88 64 64 88 64 64 88 64 64 88 64 64 89 65 65 88 64 64 86 61 64 88 63 66 88 64 64 89 65 65 88 63 66 88 63 66 88 64 64 88 64 64 88 64 64 89 65 65 87 62 65 88 63 66 74 54 55 4 2 5 1 1 1 
88 64 64 87 63 63 89 65 65 88 64 64 88 63 66 89 63 64 88 64 64 88 64 64 82 60 62 13 9 8 1 1 0 25 36 30 42 58 48 43 58 51 37 54 44 39 55 45 41 57 47 56 78 65 66 83 77 59 83 69 61 83 71 61 85 71 56 80 64 58 82 68 58 80 67 64 86 74 57 81 65 58 82 68 59 83 69 59 86 71 58 82 68 57 81 67 57 84 67 56 83 66 63 85 73 60 84 70 63 85 73 60 84 70 59 81 69 63 83 72 32 43 37 1 1 1 51 37 37 89 63 64 88 64 64 87 63 63 88 63 66 89 64 67 88 63 66 88 64 64 88 63 66 89 65 65 88 64 64 88 63 66 86 62 62 88 64 64 88 63 66 87 63 63 88 64 64 88 64 64 87 63 63 89 65 65 88 64 64 87 62 65 88 64 64 88 63 66 87 62 65 88 63 66 87 62 65 89 65 65 87 63 63 89 64 67 89 64 67 89 65 65 87 63 63 88 63 66 87 63 63 88 64 64 89 65 65 88 64 64 88 64 64 88 64 64 88 64 64 90 66 66 87 63 63 87 62 65 87 62 65 88 64 64 89 65 65 88 63 66 87 62 65 88 64 64 88 64 64 87 62 65 79 57 59 66 47 49 64 46 46 16 12 11 1 1 1 16 21 17 
88 63 66 87 62 65 87 62 65 88 63 66 88 63 66 89 63 64 88 62 63 88 64 62 45 33 33 1 1 0 14 19 15 37 55 43 38 55 45 39 56 46 39 55 45 37 54 44 44 62 50 58 82 68 58 82 68 58 82 69 60 84 70 63 87 74 61 83 70 60 84 70 58 85 70 60 84 70 58 82 68 60 84 70 61 83 70 62 86 73 60 84 68 59 81 69 63 85 73 55 82 65 56 82 69 57 81 67 59 81 69 54 81 66 60 84 70 61 83 71 33 42 39 1 1 1 55 39 40 88 63 66 88 63 66 87 63 63 88 63 66 88 64 64 88 63 66 87 63 63 88 63 66 88 63 66 89 65 65 88 64 64 88 64 64 88 63 66 88 64 64 87 63 63 87 62 65 88 64 64 88 63 66 88 63 66 88 63 66 87 62 65 88 64 64 87 63 63 88 64 64 87 63 63 88 64 64 87 62 65 88 63 66 87 63 63 88 64 64 87 63 63 88 64 64 87 63 63 88 64 64 88 64 64 89 64 67 88 64 64 89 65 65 87 63 63 88 64 64 87 62 65 88 63 66 88 63 66 88 63 66 88 63 66 88 63 66 88 63 66 88 63 66 88 63 66 85 61 61 29 20 21 5 3 4 1 1 1 1 1 1 1 1 0 14 18 17 37 50 41 
87 63 63 88 64 64 88 63 66 88 63 66 88 63 66 89 64 67 86 65 64 80 58 60 12 8 7 2 4 1 35 46 38 39 56 46 39 55 45 41 56 49 39 55 45 46 62 52 56 78 66 60 82 70 55 82 65 59 83 69 59 83 69 59 81 68 62 84 72 59 81 68 60 84 70 60 84 70 59 81 68 57 81 68 58 82 68 53 80 65 61 85 72 62 86 72 58 80 68 60 84 70 56 80 66 56 80 66 60 82 69 63 83 72 60 84 70 56 80 66 31 40 35 1 1 1 43 31 33 89 65 65 88 63 66 87 62 65 88 63 66 88 63 66 88 63 66 88 63 66 88 63 66 88 63 66 88 63 66 87 63 63 89 64 67 88 64 64 88 64 64 86 61 64 89 65 65 88 63 66 87 62 65 88 63 66 89 64 67 88 63 66 89 64 67 88 63 66 87 62 65 88 63 66 88 63 66 89 64 67 88 63 66 87 62 65 87 62 65 88 63 66 87 62 65 89 64 67 87 62 65 88 63 66 89 64 67 88 63 66 89 63 66 88 63 66 88 63 66 87 62 65 88 64 64 88 64 64 87 62 65 88 63 66 87 63 63 90 64 65 89 63 64 87 63 63 77 55 57 4 4 4 1 1 3 0 0 2 1 1 1 5 5 3 37 50 43 44 56 52 
88 63 66 87 62 65 88 64 64 87 63 63 89 65 65 87 66 65 88 63 66 37 25 27 1 1 1 13 17 16 39 55 45 38 53 46 39 55 45 39 55 45 38 54 44 49 71 58 65 87 74 65 84 78 57 79 66 58 82 68 53 80 65 64 84 73 59 83 69 67 86 80 60 82 69 58 82 69 62 86 72 58 82 68 54 81 66 63 83 74 58 82 66 61 83 71 64 84 73 61 82 73 58 81 71 59 81 68 56 83 66 65 85 74 63 85 73 60 84 70 26 37 31 0 0 0 41 31 30 87 62 66 88 64 64 88 64 64 88 64 64 88 64 64 88 64 64 88 64 64 87 63 63 87 63 63 88 63 66 88 64 64 88 63 66 88 64 64 87 63 63 87 62 65 88 64 64 88 63 66 87 62 65 88 63 66 88 63 66 87 62 65 88 63 66 89 64 67 88 63 66 88 63 66 88 63 66 88 63 66 88 63 66 87 62 65 87 62 65 88 63 66 88 63 66 87 62 65 88 63 66 88 63 66 87 62 65 87 62 65 88 62 65 87 62 65 87 62 65 89 64 67 88 64 64 89 63 66 90 64 65 88 63 66 89 63 64 89 63 64 88 63 66 58 42 43 18 12 12 1 1 1 2 2 4 2 2 2 0 2 1 3 7 6 26 39 30 41 57 47 
88 64 64 87 63 63 87 62 65 88 63 66 88 64 64 89 63 66 73 53 54 3 2 0 1 1 3 30 43 36 39 55 45 38 55 45 40 56 46 45 58 49 39 56 46 60 82 69 58 85 70 59 83 70 59 83 69 58 85 70 61 85 71 58 82 66 63 85 73 58 82 68 60 84 70 59 81 68 55 79 63 58 82 68 56 80 66 58 82 68 63 83 72 60 84 70 54 81 64 59 83 70 56 80 66 60 82 70 63 83 72 60 84 71 55 82 65 57 84 67 32 45 38 0 0 2 41 31 30 87 62 65 87 62 65 88 63 66 86 61 64 88 63 66 88 63 66 88 63 66 87 62 65 87 62 65 88 64 64 88 63 66 88 64 64 88 63 66 88 63 66 87 63 63 87 62 65 88 64 64 88 63 66 88 63 66 88 63 66 88 63 66 87 62 65 89 64 67 88 63 66 88 63 66 88 63 66 88 63 66 89 64 67 88 63 66 87 62 65 88 63 66 89 64 67 88 63 66 87 62 65 88 63 66 88 63 66 87 62 65 88 63 66 88 63 66 88 63 66 88 63 66 88 64 64 87 63 63 89 63 66 89 63 64 87 63 63 89 65 63 63 47 48 3 3 3 0 0 0 2 0 1 14 18 27 11 14 23 2 2 4 1 0 0 0 2 1 12 16 15 
88 63 66 88 63 66 88 64 64 88 64 64 87 63 63 88 62 61 37 27 26 0 2 1 16 22 20 38 51 42 25 34 29 35 55 44 40 55 48 42 58 48 49 69 58 55 80 61 59 83 69 64 86 74 61 81 70 62 82 71 64 84 73 54 81 66 59 83 69 62 84 71 59 83 69 62 82 71 61 83 71 58 82 69 58 82 68 57 84 69 60 82 70 64 86 74 61 85 72 51 80 62 59 83 69 59 83 69 61 85 71 61 85 72 66 86 75 54 81 64 38 55 45 0 0 0 33 25 23 89 63 66 87 62 65 88 63 66 88 63 66 87 62 65 88 63 66 88 63 66 88 63 66 88 63 66 88 64 64 88 63 66 89 65 65 88 63 66 88 63 66 87 63 63 87 62 65 88 64 64 89 64 67 88 63 66 88 63 66 87 62 65 87 62 65 88 63 66 88 63 66 88 63 66 87 62 65 87 62 65 88 63 66 88 63 66 87 62 65 87 62 65 87 62 65 89 64 67 87 62 65 88 63 66 88 63 66 88 63 66 87 62 65 86 61 64 87 62 65 88 63 66 89 63 64 89 63 64 88 63 66 87 62 65 87 63 63 81 61 60 7 5 6 1 1 1 4 3 8 10 12 24 13 15 27 18 21 38 13 17 29 6 7 11 1 1 0 1 1 1 
89 63 66 87 62 65 87 63 63 87 63 63 89 63 64 75 55 56 3 3 3 2 2 2 35 48 41 39 50 42 19 25 21 38 51 42 37 55 43 43 61 49 56 78 66 59 83 69 60 84 70 59 83 70 55 82 67 58 80 67 56 83 68 59 82 66 62 84 71 63 86 70 61 85 72 62 84 71 61 84 74 62 85 69 65 85 74 57 83 70 54 81 64 59 81 68 55 79 66 54 81 64 57 81 67 60 82 70 60 82 70 59 81 68 63 83 72 61 83 71 41 56 49 1 1 1 33 24 25 88 64 64 86 62 62 87 63 63 86 62 62 88 64 64 87 63 63 87 63 63 87 63 63 88 64 64 88 64 64 87 62 65 88 64 64 87 62 65 88 63 66 88 64 64 88 63 66 88 64 64 88 63 66 87 62 65 87 62 65 88 63 66 87 62 65 88 63 66 89 64 67 88 63 66 88 63 66 88 63 66 88 63 66 87 62 65 88 63 66 89 64 67 88 63 66 88 63 66 87 62 65 87 62 65 88 63 66 88 63 66 88 63 66 86 61 64 87 62 65 88 63 66 88 64 64 87 63 63 88 63 66 88 62 63 84 59 62 19 15 14 1 1 1 3 3 5 16 19 34 13 15 27 4 3 8 17 20 35 18 21 36 17 20 37 12 16 27 3 3 5 
89 63 64 88 64 64 87 62 65 88 63 66 88 62 65 35 25 26 1 1 1 19 28 23 39 55 45 39 55 45 38 56 44 44 57 48 38 55 45 47 69 56 60 84 71 61 83 71 62 84 71 55 79 65 51 73 61 61 83 70 58 82 68 58 85 70 57 81 65 60 84 70 61 83 70 57 81 68 57 81 68 62 85 69 53 80 63 57 84 67 54 80 67 62 84 72 59 83 70 59 83 67 59 83 69 63 85 72 59 83 69 64 84 72 53 80 65 55 79 66 36 49 42 1 1 1 29 20 21 87 62 65 88 64 64 88 64 64 88 64 64 88 64 64 89 65 65 89 65 65 88 64 64 88 64 64 88 64 64 87 62 65 89 65 65 88 63 66 88 63 66 87 63 63 88 63 66 88 64 64 88 63 66 88 63 66 89 64 67 87 62 65 88 63 66 88 63 66 87 62 65 87 62 65 87 62 65 87 62 65 87 62 65 87 62 65 88 63 66 88 63 66 88 63 66 88 63 66 88 63 66 88 63 66 87 62 65 88 63 66 86 61 64 88 63 66 88 63 66 88 63 66 89 65 65 87 62 65 88 63 66 86 61 64 33 24 25 0 0 0 1 0 5 15 19 31 16 19 34 2 3 7 12 12 22 17 20 35 15 17 29 18 21 36 18 21 36 14 18 30 
89 63 66 87 62 65 88 64 64 88 64 64 74 54 55 3 3 3 3 5 2 35 51 41 40 56 46 39 55 45 43 56 47 39 55 45 45 60 53 55 77 64 64 86 74 60 84 70 57 79 67 13 17 16 6 8 7 38 54 44 60 82 69 65 87 75 58 82 68 60 82 69 62 84 71 57 81 67 62 84 71 61 83 71 58 82 68 51 80 62 62 82 71 62 82 71 61 83 71 56 80 66 62 84 72 60 82 70 56 80 64 55 82 67 64 86 74 55 81 68 37 50 41 0 2 1 30 21 22 87 63 63 88 63 66 89 64 67 88 63 66 89 64 67 88 63 66 87 62 65 87 62 65 87 62 65 89 64 67 87 63 63 89 64 67 87 63 63 88 64 64 88 63 66 88 64 64 87 62 65 87 62 65 89 64 67 88 63 66 86 61 64 87 62 65 88 63 66 88 63 66 87 62 65 89 64 67 88 63 66 88 63 66 88 63 66 88 63 66 88 63 66 88 63 66 87 62 65 90 64 67 88 63 66 88 63 66 87 62 65 86 61 64 87 62 65 89 63 66 88 63 66 88 64 64 88 63 66 84 62 64 33 23 24 1 1 1 3 3 5 14 16 29 14 20 34 7 8 13 6 7 12 18 19 37 16 19 34 3 3 3 14 16 29 18 21 36 19 22 39 
90 61 63 87 63 63 88 63 66 87 62 65 37 27 26 1 1 1 15 21 19 38 53 46 12 17 13 29 40 34 35 52 42 39 56 46 46 66 55 55 79 65 57 81 67 61 83 70 55 77 65 4 8 7 1 1 1 33 44 36 64 84 73 61 83 71 66 86 75 60 84 70 64 84 73 61 83 70 58 82 68 57 79 67 59 83 69 55 84 66 63 85 72 54 81 64 59 83 69 56 80 66 57 81 67 62 86 73 64 84 75 60 84 70 60 84 70 61 82 67 42 58 48 1 1 1 17 11 11 86 61 64 87 63 63 88 64 64 87 63 63 88 64 64 87 63 63 87 63 63 88 64 64 88 64 64 89 64 67 87 63 63 88 63 66 88 64 64 88 64 64 88 63 66 87 63 63 88 63 66 89 64 67 87 62 65 88 63 66 88 63 66 87 62 65 87 62 65 87 62 65 88 63 66 88 63 66 88 63 66 88 63 66 88 63 66 87 62 65 88 63 66 87 62 65 88 63 66 88 62 65 88 63 66 88 63 66 88 63 66 88 63 66 88 63 66 89 63 66 88 63 66 86 62 62 87 63 63 70 50 51 0 2 1 1 1 3 14 16 28 18 21 38 9 12 21 4 4 6 16 19 34 16 22 36 9 12 21 4 5 9 17 20 35 15 21 35 17 20 35 
87 63 61 89 63 64 88 63 66 65 46 48 8 4 3 4 4 6 29 42 33 27 36 31 1 3 2 22 35 25 37 53 42 40 56 46 53 73 64 59 83 69 56 83 66 61 83 71 53 80 65 35 51 41 23 36 27 51 73 61 55 79 63 58 82 68 64 84 75 60 84 70 57 81 68 57 83 70 60 84 68 58 85 68 61 85 72 60 84 70 59 83 69 59 83 67 57 81 65 54 81 64 61 83 71 64 84 75 55 82 67 60 82 69 61 83 70 60 84 70 52 69 59 0 0 0 18 12 12 88 62 63 88 63 66 88 63 66 87 62 65 88 63 66 89 64 67 88 63 66 87 62 65 89 64 67 88 63 66 89 64 67 87 62 65 88 63 66 88 63 66 88 63 66 87 62 65 89 64 67 87 63 63 89 65 65 88 64 64 88 64 64 87 63 63 87 62 65 88 63 66 87 63 63 88 64 64 87 62 65 88 64 64 89 65 65 88 63 66 88 63 66 88 64 64 88 63 66 88 64 64 88 63 66 88 63 66 87 62 65 88 63 66 88 62 65 87 63 63 87 62 65 89 63 64 85 61 61 20 14 14 1 1 1 8 9 14 17 21 33 14 18 30 3 3 5 14 16 28 20 23 40 22 25 44 7 7 15 12 14 26 16 22 38 16 22 36 13 15 28 
87 63 63 87 63 63 88 64 64 36 28 26 1 1 1 16 20 19 33 49 38 7 7 7 15 21 19 39 55 44 38 58 46 38 56 44 62 82 71 57 81 67 58 82 66 63 84 75 61 82 73 56 78 65 55 79 65 63 85 73 65 87 75 59 81 69 60 84 70 60 82 70 61 83 70 59 83 69 61 83 70 56 80 64 57 81 67 62 84 71 59 81 69 57 84 67 58 82 68 57 81 65 62 86 72 57 81 67 58 82 68 58 82 69 57 81 68 55 79 63 50 72 59 5 5 5 9 5 4 80 58 60 88 63 66 87 62 65 87 62 65 87 62 65 88 63 66 88 63 66 87 62 65 88 63 66 87 62 65 87 62 65 87 62 65 87 62 65 87 62 65 88 63 66 88 63 66 88 63 66 87 62 65 88 63 66 88 63 66 88 63 66 87 62 65 88 64 64 88 64 64 88 63 66 87 62 65 86 62 62 88 63 66 87 62 65 89 65 65 87 63 63 88 63 66 88 64 64 89 63 64 88 63 66 88 64 64 88 63 66 91 62 64 86 65 64 87 62 65 89 63 64 89 63 66 57 43 42 1 1 1 2 2 2 12 14 27 18 21 38 17 20 37 15 18 33 19 22 39 23 29 51 26 32 54 20 25 45 17 20 35 18 21 38 17 20 35 11 15 26 
88 63 66 88 64 64 75 53 55 11 9 10 2 4 3 36 47 41 21 30 25 5 5 3 33 46 37 39 55 45 44 57 50 55 75 64 62 84 71 60 84 71 57 83 70 53 80 65 55 79 65 61 85 71 55 79 65 56 80 66 50 78 63 59 83 69 62 83 74 58 82 69 59 83 67 57 81 68 52 81 63 61 83 71 55 82 67 64 86 73 57 81 67 62 84 72 60 82 70 58 82 69 58 82 68 56 80 67 57 81 67 58 82 69 58 82 68 58 82 69 57 75 63 6 8 7 7 7 7 82 57 60 88 63 66 87 62 65 87 62 65 87 62 65 87 62 65 88 63 66 87 62 65 88 63 66 88 63 66 87 62 65 88 63 66 87 62 65 87 62 65 88 63 66 87 62 65 88 63 66 87 62 65 87 63 63 88 64 64 88 63 66 88 63 66 87 63 63 87 63 63 87 63 63 87 62 65 88 64 64 87 62 65 87 62 65 87 63 63 88 64 64 87 62 65 88 64 64 88 63 66 89 63 64 88 63 66 88 62 65 85 64 63 88 62 63 87 62 65 87 63 63 75 55 54 10 6 5 2 2 2 10 10 20 17 20 35 18 21 38 15 21 35 16 19 36 20 25 45 26 32 56 25 31 55 25 31 55 21 28 47 17 23 39 18 21 38 18 21 36 
87 62 65 87 63 63 36 26 25 0 0 0 14 16 15 38 51 44 7 9 8 23 28 24 45 58 51 45 58 49 46 63 55 61 83 70 61 81 70 58 82 68 57 81 67 61 85 72 63 83 72 55 82 67 57 81 67 53 80 65 61 83 71 61 85 72 59 81 68 56 83 68 57 81 67 54 82 67 58 82 68 57 81 67 67 84 76 60 84 71 56 80 64 62 84 72 58 82 66 61 83 70 61 83 70 61 85 71 64 86 73 60 84 70 59 81 68 58 80 67 53 73 62 4 6 5 5 3 4 77 55 57 87 62 65 87 62 65 86 61 64 87 62 65 87 62 65 88 63 66 88 63 66 88 63 66 88 63 66 88 63 66 87 62 65 88 63 66 88 63 66 87 62 65 87 62 65 87 62 65 88 64 64 88 64 64 88 64 64 88 64 64 87 63 63 87 62 65 87 62 65 87 63 63 88 64 64 88 63 66 88 64 64 88 64 64 87 62 65 88 63 66 89 65 65 87 62 65 87 63 63 88 63 66 88 63 66 87 63 63 88 62 63 87 63 63 88 62 63 72 52 54 11 10 8 1 1 1 7 8 13 16 19 34 17 20 37 18 21 36 18 21 36 20 25 44 25 30 52 26 32 56 25 31 53 26 32 56 25 31 55 25 29 54 20 25 44 18 21 36 
88 62 63 86 62 62 12 10 11 1 1 1 30 43 36 16 20 19 4 4 4 32 48 38 46 57 51 39 56 46 53 69 59 57 84 67 62 84 72 57 84 69 59 83 69 58 80 68 58 82 68 57 81 67 59 81 68 63 85 73 60 84 70 60 82 70 60 82 70 61 85 71 55 81 68 57 84 69 63 87 74 54 81 66 57 81 67 62 84 72 59 81 69 57 81 67 59 83 70 61 83 71 57 81 67 56 80 66 58 82 68 59 83 69 59 81 68 60 82 69 61 83 70 18 23 19 1 1 1 71 51 52 87 62 65 87 62 65 87 62 65 87 62 65 87 62 65 87 62 65 87 62 65 87 62 65 88 63 66 87 62 65 87 62 65 87 62 65 87 62 65 88 63 66 87 62 65 88 63 66 88 64 64 88 63 66 88 63 66 87 63 63 87 62 65 87 62 65 87 62 65 87 62 65 87 63 63 88 63 66 87 63 63 87 63 63 88 63 66 86 61 64 87 63 63 87 62 65 87 62 65 87 61 64 88 64 64 87 62 65 87 63 63 88 64 64 66 47 51 9 5 6 1 1 1 9 10 15 17 20 35 18 21 38 16 19 34 13 15 27 14 14 26 18 24 40 19 22 37 22 27 47 24 30 52 25 31 55 26 32 56 25 31 55 25 31 55 21 28 47 
88 64 64 54 40 39 1 1 1 6 10 9 36 53 43 4 6 5 16 22 20 39 55 45 40 57 47 40 56 46 46 68 56 60 82 70 60 84 70 54 81 64 59 83 69 59 83 69 60 84 70 61 83 71 50 74 60 48 68 59 60 82 70 62 84 71 57 81 67 64 84 75 55 84 66 57 81 65 61 85 71 59 83 69 60 82 70 62 86 72 58 82 66 62 86 72 54 78 64 61 83 71 58 82 68 55 79 63 58 82 68 58 80 67 54 81 64 57 79 66 57 81 67 21 27 23 1 1 1 45 33 33 87 62 65 87 62 65 88 63 66 88 63 66 87 62 65 88 63 66 87 62 65 88 63 66 87 62 65 87 62 65 87 62 65 87 62 65 88 63 66 88 63 66 87 62 65 87 62 65 87 62 65 88 63 66 87 62 65 87 62 65 88 63 66 87 63 63 88 64 64 87 63 63 87 62 65 88 64 64 87 62 65 88 63 66 88 64 64 88 64 64 88 63 66 88 64 64 89 63 66 88 63 66 88 63 66 87 63 63 84 59 62 41 31 32 1 1 1 1 1 1 6 6 8 18 21 36 17 20 37 18 19 37 8 6 11 0 0 0 0 0 0 2 0 1 0 0 0 1 1 0 8 8 16 18 21 36 25 29 54 25 31 53 26 32 58 26 31 53 
87 62 65 22 18 17 0 0 0 30 41 35 38 55 45 9 9 9 30 43 36 39 56 46 40 55 48 41 57 47 57 79 67 54 81 66 60 84 70 59 81 69 62 84 71 54 81 66 61 85 71 49 71 58 7 12 6 7 7 7 41 59 47 57 81 67 58 82 68 60 82 69 55 82 67 56 81 62 58 82 68 59 81 68 54 80 67 63 85 72 60 82 69 62 84 72 63 85 73 56 80 66 61 83 71 65 85 74 59 83 69 58 82 66 59 83 67 56 80 66 63 83 72 33 49 39 0 0 0 33 24 25 87 62 65 87 62 65 88 63 66 87 62 65 87 62 65 88 63 66 88 63 66 88 63 66 87 62 65 88 63 66 86 61 64 87 62 65 88 63 66 87 62 65 87 62 65 87 62 65 88 63 66 88 64 64 88 64 64 87 63 63 88 64 64 88 64 64 87 63 63 89 65 65 88 63 66 87 63 63 88 63 66 87 62 65 88 64 64 87 63 63 88 63 66 88 64 64 88 62 63 88 62 63 87 63 61 68 48 49 15 11 10 1 1 1 0 0 0 6 10 13 17 20 39 17 20 37 17 20 35 9 12 19 1 1 1 34 31 16 70 61 30 57 51 25 46 40 18 39 34 15 3 3 1 2 2 2 5 6 10 23 30 49 26 32 56 26 32 56 
69 49 50 3 1 2 6 6 4 36 53 45 39 56 46 37 53 43 41 57 47 41 57 47 42 57 50 44 62 50 60 80 69 62 84 72 58 82 68 61 83 70 58 82 68 56 83 68 62 83 74 39 54 47 2 2 2 0 2 1 38 51 42 63 83 74 55 82 67 57 84 69 62 82 71 59 81 68 57 85 70 66 83 73 60 84 70 59 83 69 61 83 70 54 81 62 57 81 67 59 79 68 57 81 68 56 85 67 58 82 68 57 81 67 61 83 70 59 83 69 62 84 72 38 58 46 2 2 2 16 12 13 87 62 65 87 62 65 87 62 65 87 62 65 85 60 63 87 62 65 88 63 66 87 62 65 87 62 65 87 62 65 88 63 66 87 62 65 87 62 65 90 65 68 88 63 66 87 62 65 88 64 64 88 63 66 88 63 66 87 63 63 89 64 67 87 62 65 86 61 64 88 63 66 88 64 64 86 61 64 87 63 63 87 63 63 87 62 65 87 62 65 87 63 63 88 63 66 88 63 66 88 64 64 58 42 43 5 3 4 0 0 0 1 2 4 10 13 22 17 20 35 17 21 33 18 21 36 15 21 35 2 2 4 14 14 6 83 74 35 90 78 38 87 78 35 88 79 38 87 78 35 79 69 33 43 38 18 0 0 0 12 14 26 25 31 55 25 31 55 
38 28 29 1 1 1 18 24 20 37 54 44 39 56 46 39 55 44 38 56 44 37 54 44 39 54 47 48 68 57 58 82 68 62 84 71 59 81 68 54 81 66 60 82 69 57 81 67 57 81 67 33 44 38 0 2 1 6 8 7 54 74 63 54 78 64 56 78 66 61 85 71 62 84 72 62 84 71 59 83 70 55 79 65 61 83 71 53 80 65 57 81 67 60 80 69 60 82 70 59 83 70 59 81 68 65 85 74 59 81 68 58 82 68 59 81 69 54 81 64 56 80 66 54 76 63 8 10 7 8 8 8 85 61 61 88 62 65 85 63 65 88 62 65 87 63 63 89 63 66 89 63 66 87 62 65 87 62 65 88 63 66 87 62 65 87 62 65 87 62 65 88 63 66 88 63 66 88 63 66 89 63 66 89 63 64 87 62 65 85 63 65 88 62 63 87 61 64 87 62 65 87 62 65 87 63 63 87 63 63 88 64 64 88 64 64 88 63 66 87 62 65 88 62 65 87 62 65 87 63 63 60 44 45 5 5 5 1 1 1 4 8 11 15 18 33 17 21 33 18 21 38 18 21 36 15 21 35 17 20 35 2 3 5 10 9 4 24 22 9 20 18 6 23 21 9 57 50 24 89 77 35 87 78 37 86 77 36 26 24 11 2 0 1 13 15 27 26 30 55 
3 3 3 5 6 8 35 50 45 39 55 45 39 56 48 41 57 47 36 53 43 39 56 46 37 53 43 51 71 59 58 80 68 58 82 66 61 82 73 52 79 62 59 83 69 56 80 66 57 81 67 49 69 58 27 38 30 40 56 46 57 81 67 58 82 68 59 81 68 51 73 60 28 39 31 31 44 35 59 79 67 56 83 66 58 81 65 60 84 71 64 84 75 55 82 65 60 82 69 65 82 76 58 82 69 59 83 69 64 84 73 61 85 72 59 81 69 61 83 70 55 82 67 52 76 62 24 33 28 2 2 2 74 54 55 89 63 64 89 63 64 88 63 66 87 62 65 88 62 65 86 61 64 87 62 65 88 63 66 87 62 65 87 62 65 87 62 65 87 62 65 88 63 66 87 62 65 88 63 66 87 62 65 86 61 64 88 64 64 89 63 64 85 63 65 87 63 63 87 62 65 88 63 66 88 64 64 88 63 66 87 63 63 87 63 63 89 63 66 86 62 62 87 63 63 79 54 57 38 28 27 3 3 3 1 1 1 8 9 14 19 20 38 18 21 38 18 21 36 15 21 35 17 20 35 17 20 35 21 24 41 18 21 38 7 8 13 7 8 13 8 7 12 1 1 1 7 9 4 76 66 31 87 78 37 86 77 36 85 76 35 29 25 14 2 0 1 16 22 36 
1 1 1 15 20 16 37 55 43 40 56 46 45 58 51 37 53 43 37 53 43 36 48 44 16 21 17 16 25 20 45 67 54 64 86 74 59 81 68 57 81 67 56 80 67 60 82 70 58 82 68 59 79 68 56 80 66 62 82 73 58 80 68 57 81 67 56 83 68 45 60 53 3 3 3 3 5 2 48 68 57 56 83 68 55 79 65 54 78 62 55 79 65 61 85 72 57 79 66 55 82 65 56 80 66 59 83 69 61 82 73 55 82 67 54 81 64 57 81 65 61 83 70 58 82 68 30 41 35 0 0 0 42 32 31 87 62 65 86 62 62 88 63 66 84 62 65 89 63 66 88 63 66 89 63 66 87 62 65 88 63 66 88 63 66 87 62 65 87 62 65 87 62 65 87 62 65 88 63 66 88 62 65 88 64 64 87 62 65 85 64 63 89 63 64 86 61 64 87 62 65 88 62 65 87 62 65 85 63 65 87 62 65 87 62 65 87 63 63 88 62 65 67 49 49 11 7 8 0 0 0 1 1 3 8 11 20 16 19 34 17 20 37 18 21 36 18 21 36 17 20 35 17 20 37 18 21 36 21 26 46 26 30 55 27 32 54 25 31 55 24 30 52 17 20 35 0 1 0 55 49 23 87 78 37 88 76 34 89 77 37 83 74 35 3 3 1 5 6 10 
0 0 0 26 37 31 40 56 46 39 55 45 42 55 48 40 55 48 42 55 46 14 20 16 1 1 1 0 0 2 25 36 30 61 83 71 62 84 72 58 80 67 60 82 70 59 81 68 59 83 69 60 82 70 63 84 75 59 83 69 60 84 70 63 85 72 60 82 69 54 76 63 20 29 24 25 34 29 58 78 69 58 82 68 59 83 70 54 81 64 58 81 63 56 83 68 52 79 62 63 83 72 56 83 66 57 81 67 61 85 71 53 80 63 55 82 67 58 82 68 54 81 64 62 82 71 37 53 43 0 0 0 19 13 13 86 61 64 87 62 65 87 63 63 88 64 64 87 63 63 88 63 66 86 62 62 87 63 63 87 63 63 87 63 63 87 63 63 88 64 64 86 62 62 87 63 63 87 63 63 88 62 65 91 62 66 87 62 65 89 63 66 88 62 63 88 62 63 87 62 65 89 63 66 88 63 66 87 62 65 87 63 63 88 63 66 86 61 64 60 41 43 16 12 13 0 0 0 3 3 5 12 14 26 16 22 38 17 20 35 19 20 40 17 20 35 18 21 36 18 20 35 20 23 40 22 27 49 24 30 54 25 31 55 24 30 54 26 30 57 26 32 56 22 28 50 3 3 3 17 17 9 83 74 35 88 76 36 86 77 34 89 77 37 45 37 16 0 0 0 
4 2 3 35 51 41 37 54 44 43 56 47 40 56 46 33 53 41 41 57 47 18 24 22 3 1 2 1 1 1 30 39 36 63 83 72 59 83 70 57 81 67 55 79 65 54 81 64 54 81 66 58 85 70 62 84 72 61 83 71 62 84 72 56 85 65 62 86 72 57 79 67 61 81 70 58 80 67 61 81 70 60 84 71 59 81 69 58 80 68 64 84 73 52 79 64 60 84 70 58 80 67 63 85 73 59 81 69 59 81 69 62 82 73 53 79 66 64 86 74 59 81 68 63 85 73 57 77 65 7 9 8 4 2 3 70 50 51 86 61 64 88 63 67 89 63 66 85 64 61 87 62 65 87 63 63 87 62 65 87 62 65 88 63 66 87 62 65 87 62 65 87 62 65 88 63 66 87 62 65 87 61 64 88 62 65 89 63 64 87 63 63 89 63 66 88 62 65 87 62 65 88 63 66 88 62 65 85 64 63 88 62 63 63 45 43 20 14 14 0 0 0 1 1 1 3 3 5 11 14 23 17 20 35 16 18 33 16 19 34 17 20 35 17 20 35 18 21 38 19 22 39 24 29 51 25 31 55 25 31 55 25 31 57 26 32 56 25 31 55 25 31 57 27 31 56 16 19 36 0 0 2 55 49 23 89 77 37 90 78 36 89 77 35 81 72 33 3 3 3 
18 24 20 37 55 43 42 55 48 39 56 46 39 57 45 42 58 48 41 56 49 45 58 51 30 43 36 25 34 29 50 72 59 60 84 70 56 80 66 60 82 69 61 81 70 67 84 74 60 84 70 62 86 72 56 83 68 57 79 67 56 80 64 57 84 67 66 86 77 62 84 71 58 82 68 62 84 72 58 82 68 60 84 70 58 82 68 56 82 69 58 80 68 63 85 72 55 82 65 58 82 68 60 84 70 60 84 70 60 82 70 57 81 67 58 82 68 59 81 68 51 78 63 57 79 66 60 80 69 19 25 23 1 1 1 46 32 32 86 61 65 88 62 63 90 61 63 87 62 66 88 63 66 90 61 63 87 62 65 87 62 65 86 61 64 86 61 64 87 62 65 89 64 67 87 62 65 87 62 65 88 62 65 88 63 66 87 62 65 88 64 64 87 63 63 88 63 66 88 62 63 87 62 65 87 63 63 75 53 56 26 20 20 3 3 3 0 0 0 3 3 3 10 12 24 15 18 33 19 22 37 16 20 32 3 2 7 8 11 18 18 21 36 17 20 35 18 23 42 24 28 53 25 31 55 25 31 55 25 31 55 25 31 55 25 31 55 26 32 56 25 31 55 25 31 55 19 24 43 1 1 1 42 37 17 87 78 35 87 78 37 87 78 35 88 76 36 12 11 6 
33 44 36 40 56 46 40 56 46 37 54 46 38 55 45 39 55 45 31 51 39 45 62 52 49 76 59 58 85 70 57 81 67 58 82 68 62 84 72 58 80 67 53 80 65 55 82 65 56 80 66 61 83 71 65 82 74 60 82 70 57 81 67 55 82 65 58 80 67 57 81 67 57 84 67 58 82 68 54 81 64 57 81 67 57 79 66 58 82 68 58 80 68 57 79 67 54 81 66 61 83 70 62 84 72 61 81 69 58 82 69 57 81 67 64 84 75 56 80 66 57 81 67 58 82 68 55 82 67 35 50 43 1 1 3 26 21 18 88 63 66 88 62 65 88 63 66 87 62 65 87 62 65 86 61 64 87 63 63 89 65 65 86 62 62 87 63 63 87 63 63 88 64 64 87 63 63 88 64 64 89 63 66 88 63 66 87 63 63 88 63 66 88 64 64 88 64 64 87 62 65 86 61 64 72 50 52 14 10 9 0 0 0 0 0 2 7 8 13 14 18 29 18 21 36 19 21 36 46 42 30 40 39 21 13 13 21 17 20 35 18 21 40 20 25 44 25 29 54 25 31 55 25 31 55 25 31 53 25 31 55 26 30 55 25 31 55 25 31 55 26 30 55 26 32 56 22 28 50 2 2 4 30 27 12 87 78 37 86 77 36 88 79 36 88 76 36 22 19 10 
38 54 44 38 55 45 37 54 44 39 55 44 40 56 46 39 55 45 39 55 44 45 67 54 61 85 69 61 83 70 62 84 71 57 81 67 61 81 70 59 81 69 61 85 71 55 82 67 59 83 67 58 82 68 60 82 69 61 83 71 61 81 70 56 80 66 56 80 66 62 84 72 61 81 70 53 80 63 60 84 68 60 82 70 55 82 67 58 82 68 63 85 72 60 82 70 55 79 65 63 83 71 61 83 70 59 83 67 58 82 69 53 80 65 59 83 69 60 82 70 55 79 63 57 81 68 58 80 67 56 78 65 7 9 8 3 3 1 74 52 54 86 61 64 89 63 64 87 63 63 87 62 65 88 64 64 87 62 65 88 63 66 87 62 65 88 63 66 86 61 64 87 62 65 87 62 65 88 63 66 87 62 65 87 62 65 87 62 65 88 64 64 87 62 65 89 63 66 86 62 62 56 40 40 3 3 1 1 1 1 5 5 7 11 13 25 15 21 35 17 20 37 15 19 31 28 29 34 58 51 25 59 55 28 30 32 45 23 29 55 24 30 52 26 30 57 26 32 56 26 30 55 25 31 53 26 32 56 25 31 55 25 33 56 25 31 55 25 31 55 25 31 57 26 30 55 22 27 47 2 2 2 47 42 20 86 77 34 87 78 37 89 77 37 89 77 37 15 12 5 
43 56 49 42 58 48 35 53 41 37 54 44 36 53 43 40 56 46 43 56 49 51 73 60 61 83 70 61 83 71 56 80 66 56 78 65 59 81 69 54 81 64 59 83 69 54 81 66 53 80 65 58 80 67 62 84 71 65 87 74 59 83 69 59 83 69 60 84 71 58 82 69 58 82 69 57 81 65 58 82 69 57 81 67 61 83 71 58 82 66 59 83 67 63 83 72 58 82 68 62 82 71 58 80 67 57 81 67 61 85 72 58 82 69 61 85 71 59 83 67 59 83 69 61 81 72 65 85 76 56 80 66 32 45 36 1 1 1 40 30 29 88 62 65 89 63 66 87 62 65 87 62 65 87 63 63 87 62 66 87 63 63 87 63 63 88 62 65 87 62 65 87 62 65 88 62 61 88 62 65 86 61 64 87 62 65 87 62 65 88 63 66 87 62 65 87 62 65 39 28 26 1 1 1 1 1 1 6 7 11 16 19 34 18 21 36 13 17 28 4 4 6 6 7 12 29 30 34 70 64 32 76 70 38 28 33 53 25 31 55 25 31 55 25 31 55 25 31 55 24 31 57 25 31 55 26 32 58 24 30 54 25 31 55 26 32 56 25 31 55 25 31 55 25 31 55 19 22 39 0 2 1 54 44 19 89 77 37 63 56 27 33 30 15 83 74 35 8 7 5 
41 56 49 37 54 46 39 55 45 38 54 44 45 58 51 41 57 47 39 55 45 54 72 60 54 78 64 60 82 69 61 85 71 61 83 71 56 83 68 60 80 68 60 82 70 60 84 71 60 82 69 49 71 59 58 80 68 60 80 68 62 82 71 63 82 76 62 84 72 62 84 72 57 79 66 58 82 69 63 83 72 57 81 65 61 81 70 58 84 71 58 82 68 62 82 71 63 85 73 58 78 66 62 84 71 54 81 64 62 84 71 58 82 69 58 80 67 59 81 68 56 80 66 60 82 69 60 82 69 67 87 76 41 61 50 0 0 0 4 4 4 71 51 52 87 62 65 88 62 63 88 63 66 88 63 66 87 62 66 86 62 62 88 63 66 86 62 62 87 63 61 89 63 66 87 63 63 87 62 65 87 63 63 88 62 63 87 63 63 88 62 63 87 63 63 40 28 28 1 1 1 1 1 1 7 8 13 16 19 34 16 19 34 8 8 16 1 3 2 13 13 23 17 20 35 33 35 47 87 77 41 81 75 43 30 33 52 25 31 55 26 30 55 25 31 55 26 32 56 25 31 57 25 31 55 25 31 57 25 31 55 26 30 55 25 31 55 25 31 55 25 31 55 25 31 53 10 10 18 5 6 1 77 67 31 87 78 37 78 68 32 61 54 26 73 64 31 0 0 0 
42 55 48 36 53 43 39 56 46 42 58 48 38 53 46 35 53 41 40 57 47 59 79 68 61 82 73 59 83 69 60 82 70 55 79 65 60 82 70 55 82 65 49 78 56 60 84 70 31 42 36 5 7 6 27 37 29 61 81 70 56 80 67 58 82 66 56 80 64 62 82 71 56 78 65 60 84 70 55 82 67 58 80 68 54 81 66 57 81 67 58 82 69 60 84 68 57 81 68 57 81 67 58 80 68 59 83 69 58 80 67 53 80 65 59 81 69 60 83 67 56 83 68 60 82 70 58 80 67 56 80 66 61 83 71 18 27 22 0 0 0 38 28 29 88 62 65 87 62 65 87 62 65 88 64 64 86 61 64 87 62 65 83 63 64 88 62 65 87 62 65 88 62 63 87 62 65 86 61 64 88 64 64 85 63 65 88 62 65 88 64 64 66 47 49 2 2 2 1 1 1 11 14 23 18 21 40 14 16 29 2 2 2 4 3 8 13 17 29 19 22 37 21 26 48 31 37 53 86 76 41 87 77 42 33 36 55 26 32 56 25 31 55 26 30 55 25 31 55 26 30 55 24 30 54 25 31 55 25 31 53 25 31 57 25 31 55 26 32 56 25 31 55 11 11 23 1 1 1 38 33 14 88 76 36 65 56 25 66 57 28 87 78 37 43 38 19 1 1 1 
42 55 46 38 54 44 40 56 46 38 54 44 40 57 47 39 55 45 52 67 60 59 83 69 58 82 68 58 80 67 29 38 33 9 14 10 47 64 54 61 83 71 59 81 68 57 79 67 14 20 16 1 1 1 13 17 16 62 82 71 60 84 71 57 81 67 63 87 74 59 83 69 57 81 67 62 84 71 58 82 68 54 78 64 60 84 71 60 84 70 54 81 66 56 83 68 56 80 66 56 80 64 53 81 66 64 85 76 56 80 66 56 80 66 55 82 67 54 81 64 58 82 69 57 81 68 57 81 67 62 82 71 58 80 68 45 60 53 1 1 1 18 12 14 85 60 63 87 63 63 87 63 63 87 61 62 87 62 65 87 62 65 86 61 64 86 61 64 87 62 66 88 62 63 87 63 63 86 64 66 87 63 63 86 61 64 87 62 65 80 58 60 7 5 6 1 1 3 4 7 12 18 19 37 15 17 30 4 4 6 8 11 20 18 21 36 18 24 40 23 28 50 25 31 55 26 32 56 54 53 48 63 59 47 28 33 53 25 31 55 25 31 55 25 31 55 25 31 55 25 31 55 25 31 55 25 31 55 25 31 55 25 31 55 25 31 55 24 29 51 12 15 24 2 2 2 26 22 11 85 76 37 86 77 36 22 19 10 54 47 21 85 73 35 11 10 5 3 3 5 
36 53 43 38 56 44 40 56 46 38 54 44 39 55 44 38 55 45 43 65 53 54 81 66 65 82 74 48 77 57 15 21 17 2 2 2 37 50 43 63 87 74 58 82 68 61 83 70 43 60 50 22 32 24 47 60 51 67 84 76 60 82 69 62 84 72 62 84 72 55 79 65 62 84 72 58 82 68 58 82 69 62 85 69 56 83 66 52 79 64 59 83 70 52 79 62 57 81 67 63 84 75 61 83 71 60 84 70 58 82 68 61 83 71 56 80 66 60 84 71 57 84 69 56 83 68 57 81 65 61 83 71 57 81 67 56 78 65 12 16 15 1 1 1 55 39 40 87 63 63 86 62 62 86 61 64 88 63 66 88 62 63 88 63 66 87 61 64 88 62 65 88 64 64 85 64 61 87 63 63 86 64 67 85 60 63 63 45 45 18 14 13 1 1 1 2 3 5 13 19 31 12 15 24 1 2 4 9 13 22 17 20 35 20 25 44 24 30 56 27 31 56 25 31 55 25 31 55 24 30 54 25 31 55 26 32 54 25 31 55 25 31 55 25 31 55 25 31 55 25 31 55 26 30 57 21 26 46 21 26 46 21 26 45 19 24 44 7 8 13 0 0 0 33 27 13 82 73 34 86 77 36 88 76 38 73 65 29 87 78 37 53 47 21 1 1 1 13 13 25 
39 55 45 37 53 43 37 54 46 40 55 48 40 55 48 40 56 46 47 67 55 58 82 66 57 81 68 59 81 68 50 65 58 37 50 43 55 77 64 57 81 67 61 83 71 56 80 67 60 82 70 61 83 70 60 84 70 55 82 65 57 84 67 59 81 69 57 81 67 56 80 67 57 81 65 56 83 68 58 82 68 56 80 66 61 83 71 62 83 74 60 84 71 63 85 73 59 81 68 62 86 72 55 79 65 58 82 68 57 81 67 61 83 70 58 81 65 57 81 67 56 83 68 57 81 68 54 78 62 58 82 69 60 82 70 55 82 67 46 62 52 0 0 0 24 15 16 82 60 62 88 63 66 86 62 62 86 61 64 86 61 64 86 62 62 87 62 65 84 62 64 88 62 63 85 64 63 85 60 63 61 43 43 24 15 16 3 1 2 1 1 1 3 2 7 11 15 26 13 15 27 3 4 6 12 16 27 18 20 35 20 27 46 25 31 53 24 30 56 25 31 57 27 31 56 25 31 57 26 30 55 25 33 56 26 30 55 25 31 55 25 31 55 25 31 55 27 31 56 25 31 53 17 20 37 1 1 3 1 1 1 0 1 3 2 0 1 6 5 3 46 41 19 85 73 35 48 41 22 60 53 25 90 78 36 86 77 36 69 60 27 11 10 6 5 6 8 24 29 51 
43 56 49 42 57 50 39 56 46 40 53 44 42 55 46 34 54 42 55 75 64 60 82 70 62 84 72 53 80 65 61 83 71 57 81 67 60 84 70 61 83 71 58 80 68 60 82 69 61 83 70 62 82 71 62 83 74 53 77 64 60 82 70 55 82 65 58 85 70 55 82 67 55 82 67 59 83 69 58 82 68 53 80 65 49 78 60 54 78 64 60 84 70 52 79 62 59 83 69 61 85 71 62 86 73 62 84 71 60 82 70 55 82 67 52 76 60 57 81 68 58 82 68 57 81 65 61 85 71 62 82 73 59 83 69 57 81 68 54 78 64 11 17 13 2 2 2 42 30 32 88 62 65 87 62 65 88 62 63 88 62 65 86 61 64 88 63 66 88 62 65 85 63 65 83 61 63 48 36 36 2 0 3 2 2 2 1 1 3 2 3 5 13 17 28 17 20 37 12 15 24 11 13 25 16 22 36 22 24 45 25 31 55 26 32 56 26 30 55 25 31 55 25 31 55 25 31 53 25 31 55 27 31 56 24 30 54 25 31 55 26 32 56 26 30 55 27 31 56 25 31 55 22 27 47 2 3 5 1 1 1 1 1 1 18 17 13 73 65 28 89 77 37 86 77 36 73 65 29 81 72 33 90 78 38 66 60 28 9 8 3 1 1 1 18 21 38 25 31 55 
39 55 45 34 55 40 42 58 48 39 56 46 38 54 44 41 57 47 52 76 62 63 83 72 60 82 69 64 86 73 55 79 65 59 81 69 64 86 74 54 81 64 57 81 67 65 85 74 57 84 69 58 82 68 58 82 68 62 84 72 60 82 70 54 81 66 61 83 70 61 81 69 54 81 66 60 84 70 56 80 66 59 83 69 57 81 68 60 82 69 65 85 74 58 82 68 63 83 74 58 82 68 56 80 66 60 84 70 60 82 69 60 84 70 57 81 68 65 82 72 57 79 67 67 84 76 55 82 67 57 84 69 59 81 68 58 82 66 65 87 75 53 70 60 4 4 4 3 3 3 64 46 46 88 62 65 87 62 65 86 61 64 85 64 63 86 61 64 85 64 63 86 60 61 39 29 30 1 1 1 0 0 0 13 5 3 12 7 4 3 3 5 17 20 37 17 20 37 18 21 38 19 22 39 23 25 46 24 30 54 25 31 53 24 30 52 25 31 55 24 30 54 26 32 56 25 31 55 26 32 56 26 32 54 26 32 58 25 31 55 25 31 55 25 31 53 24 30 54 25 31 55 25 31 57 23 25 48 6 9 16 1 1 1 1 1 1 22 19 10 64 57 28 78 68 32 78 68 32 67 58 29 57 50 24 16 13 6 2 2 4 17 23 39 25 31 55 25 31 55 
38 55 45 39 54 47 39 57 45 38 55 45 39 55 45 40 57 49 58 80 67 58 85 68 58 85 70 60 84 70 54 81 64 60 80 69 60 84 71 57 81 67 62 82 70 57 81 67 64 81 75 64 84 73 55 79 65 52 79 64 59 83 67 54 81 64 55 79 65 61 81 72 55 79 65 52 81 63 62 84 72 58 82 66 61 82 67 58 82 68 55 82 65 62 84 71 63 85 72 58 82 68 62 86 72 54 80 67 57 81 67 55 79 65 61 83 70 52 79 64 53 80 63 53 80 65 59 83 69 59 81 68 57 81 67 61 83 70 59 81 68 57 81 65 30 43 36 1 1 1 22 16 16 81 56 59 88 62 63 86 62 62 84 63 62 87 63 63 87 63 63 51 37 37 2 0 1 3 3 3 23 9 9 52 20 21 32 12 13 1 1 1 12 18 30 17 20 37 18 21 38 21 26 48 25 31 55 25 31 55 25 31 55 25 31 55 25 31 55 25 31 55 26 32 56 25 31 55 25 31 55 25 31 55 25 31 55 25 31 55 25 31 55 25 31 55 25 31 55 25 31 55 25 31 55 25 31 55 25 31 53 19 25 41 8 10 22 1 1 3 0 2 0 4 4 2 3 3 1 1 1 3 1 1 1 3 4 6 19 22 39 25 31 57 25 31 55 25 31 53 
38 55 45 43 56 49 37 54 44 41 54 47 40 56 46 43 59 49 60 80 68 56 80 64 53 79 66 58 82 69 61 83 70 56 83 68 53 80 65 61 83 71 54 81 62 54 81 66 58 82 68 59 81 69 61 85 71 60 82 70 54 81 66 58 84 71 58 82 68 57 81 65 61 81 70 60 82 69 61 83 71 55 82 67 60 82 70 59 83 70 61 83 70 59 83 67 58 82 69 58 82 66 60 82 70 58 82 66 57 81 68 58 80 67 52 79 62 61 83 70 64 84 75 57 84 69 57 81 67 55 79 65 56 80 66 56 80 66 61 83 70 57 81 67 54 78 64 17 21 20 1 1 1 37 27 28 85 61 61 86 62 62 87 62 65 84 60 60 41 29 31 0 0 0 1 1 1 39 15 13 58 22 22 58 22 22 45 17 16 2 0 1 10 13 22 18 21 38 23 28 50 26 31 53 25 31 55 25 31 55 25 31 55 25 31 55 25 31 55 25 31 55 26 32 56 25 31 55 25 31 55 25 31 55 25 31 55 25 31 55 25 31 55 25 31 55 25 31 55 25 31 55 25 31 55 27 31 56 26 30 55 25 31 55 25 31 55 22 27 47 16 19 34 13 15 28 16 18 31 15 21 37 22 28 50 25 31 53 25 31 55 25 31 55 26 32 56 26 32 56 
44 55 49 43 56 49 40 55 48 37 54 44 36 53 43 44 59 52 54 78 65 61 83 71 63 85 72 60 84 71 53 77 61 59 81 69 61 83 70 57 81 67 55 79 65 62 82 73 62 84 72 59 81 68 61 83 70 58 80 68 60 82 70 60 82 69 59 83 69 59 81 69 60 82 70 58 82 66 60 82 69 62 82 73 60 82 70 61 85 71 57 79 66 58 85 70 57 81 67 57 79 66 59 83 69 63 83 72 60 84 70 58 82 66 57 81 67 62 83 74 56 78 65 56 83 68 62 84 72 55 79 63 57 79 67 59 81 68 61 85 71 57 81 68 54 78 62 48 65 55 4 6 5 4 2 3 52 38 38 86 62 62 70 50 52 18 14 13 2 2 2 0 0 0 28 9 11 57 23 21 57 21 21 56 22 21 56 22 21 11 5 5 9 8 14 23 28 50 27 31 58 25 31 55 25 31 55 25 31 55 26 32 56 25 31 55 25 31 55 24 30 54 25 31 55 25 31 55 25 31 55 25 31 55 25 31 55 25 31 55 25 31 55 25 31 55 25 31 55 25 31 55 26 30 57 25 31 55 24 32 53 24 32 55 25 31 55 24 30 56 25 31 55 26 30 55 25 31 55 25 31 55 25 31 55 26 30 55 25 31 55 25 31 55 25 31 55 25 31 55 
40 55 48 38 54 44 38 54 44 37 54 44 36 53 43 43 60 50 61 81 70 59 81 68 55 79 65 61 83 71 56 80 67 60 82 70 53 77 63 56 83 68 62 84 72 61 81 70 58 80 68 63 85 72 55 79 65 63 84 75 60 82 70 61 81 70 58 80 67 59 81 69 51 78 61 59 83 70 59 83 70 57 81 68 57 81 65 54 81 66 54 81 66 57 81 67 56 80 66 62 83 74 56 80 66 58 85 70 57 81 68 61 83 71 63 83 74 59 79 68 60 82 69 63 84 75 63 83 72 57 81 68 61 83 70 57 79 67 60 82 70 52 79 62 58 80 67 58 81 65 29 42 33 1 1 0 7 5 6 13 9 8 1 1 1 1 1 1 2 2 2 1 1 1 40 16 16 57 23 22 57 21 21 58 22 22 57 21 21 16 6 7 2 4 3 25 30 52 24 30 54 25 31 53 25 31 53 25 31 55 25 31 55 25 31 55 25 31 55 24 30 54 25 31 55 25 31 53 25 31 55 25 31 55 25 31 55 25 31 55 25 31 55 25 31 55 25 31 55 25 31 55 26 32 56 27 31 56 25 31 55 25 31 55 25 31 55 25 31 55 24 30 54 25 31 55 24 32 55 26 32 56 26 30 55 26 30 55 25 31 55 25 31 55 25 31 55 25 31 55 
40 56 46 39 55 45 40 53 46 39 55 45 42 57 50 49 66 56 59 81 69 61 85 71 58 82 68 58 82 68 55 79 65 58 80 68 57 81 67 52 79 62 64 84 73 61 83 71 59 81 69 52 79 62 60 82 69 55 79 65 58 82 68 60 84 71 59 81 68 55 82 65 51 78 63 56 80 66 58 82 68 69 86 76 56 80 67 59 83 69 60 84 71 58 82 69 56 80 66 55 79 66 56 80 66 64 84 72 58 82 68 61 83 71 59 81 69 59 81 69 54 81 66 62 82 73 58 82 68 58 80 67 61 83 71 60 82 69 59 83 69 59 81 69 55 79 65 62 84 72 45 60 53 4 4 2 0 0 0 0 0 0 0 2 1 8 9 14 11 15 26 3 3 5 3 2 0 36 15 14 56 22 21 58 22 22 59 23 23 36 11 14 3 3 3 24 30 54 25 31 55 25 31 57 25 31 55 25 31 55 24 30 54 25 31 55 25 31 55 25 31 55 25 31 55 25 31 55 25 31 55 25 31 55 25 31 55 25 31 55 25 31 55 25 31 55 25 31 55 25 31 55 25 31 55 26 30 55 24 30 54 25 31 55 25 31 55 25 31 55 25 31 55 25 31 55 24 32 55 25 31 55 25 31 55 25 31 55 25 31 57 25 31 55 25 31 55 26 32 56 
40 55 48 40 57 47 38 54 44 40 53 44 40 56 46 53 74 65 54 74 63 57 74 64 55 79 65 68 85 77 60 80 69 58 82 68 59 83 69 56 78 65 57 79 66 54 80 67 61 83 70 59 81 69 55 79 65 59 81 69 56 80 66 55 77 64 61 85 71 56 83 66 57 81 68 58 82 69 57 79 67 61 83 71 59 83 70 58 85 70 58 80 67 60 82 70 55 79 65 62 84 72 58 80 67 52 79 64 59 83 69 57 81 67 60 80 69 53 80 63 60 82 70 56 80 66 60 84 70 58 82 68 57 84 67 62 83 74 64 84 73 58 84 71 56 80 67 39 52 43 1 1 1 0 2 1 1 1 1 6 7 11 14 16 29 14 20 36 17 20 35 14 18 30 3 4 6 1 1 1 36 15 14 66 26 24 82 31 30 55 21 20 1 1 1 22 27 47 25 31 55 25 31 55 25 31 55 25 31 55 24 30 54 25 31 55 25 31 55 26 32 56 25 31 55 25 31 55 25 31 55 25 31 55 25 31 55 25 31 55 25 31 55 25 31 55 25 31 55 25 31 55 25 31 55 25 31 55 26 31 53 25 31 55 26 32 56 25 31 55 26 30 55 25 31 55 25 31 53 24 30 52 25 31 55 25 31 55 25 31 55 25 31 53 25 31 55 26 32 54 
39 55 45 37 55 41 38 53 46 39 52 45 45 62 54 47 64 54 7 9 8 4 5 7 42 62 50 55 82 67 60 82 70 58 82 68 63 83 72 62 84 71 60 84 70 62 86 73 61 83 70 61 81 70 55 79 65 59 81 69 61 82 73 61 83 71 56 80 66 60 82 70 59 81 68 59 81 69 60 84 70 54 78 62 60 82 69 66 86 77 61 83 71 57 79 67 63 80 70 58 80 67 58 81 71 61 81 72 56 80 66 60 82 69 58 82 68 56 80 66 62 82 71 55 79 65 55 79 65 61 85 69 59 83 69 60 84 70 60 84 70 60 82 70 20 29 24 2 2 2 1 1 3 6 10 13 16 19 36 17 20 35 17 20 35 17 20 35 17 20 37 17 20 37 15 17 32 5 6 11 0 2 1 30 12 10 81 31 32 78 30 30 1 1 1 14 18 30 26 30 55 24 30 54 25 31 55 26 32 56 25 31 55 25 31 53 25 31 53 25 31 55 25 31 55 25 31 55 25 31 55 25 31 55 25 31 55 25 31 55 25 31 55 25 31 55 25 31 55 25 31 55 24 30 54 25 31 55 30 32 57 46 37 66 42 36 64 31 33 58 24 30 54 26 30 55 26 30 55 26 30 57 25 31 55 25 31 55 26 32 56 26 32 56 25 31 55 25 31 55 
34 54 43 42 57 50 36 52 42 44 57 48 46 62 52 36 53 43 1 1 0 2 0 1 36 52 42 52 79 62 54 78 62 60 82 70 52 79 62 57 79 67 52 79 62 60 82 70 57 81 67 60 80 69 60 84 70 58 82 68 61 83 71 61 85 71 55 82 65 60 82 70 55 79 65 55 82 65 53 80 63 60 82 70 57 81 67 60 84 70 62 82 71 56 80 67 60 82 70 50 78 63 57 81 68 60 82 69 57 79 67 55 79 65 58 82 68 59 81 68 60 82 70 51 78 61 61 83 70 59 81 69 55 82 67 63 83 72 40 57 47 20 29 24 1 3 2 0 0 0 8 11 18 17 20 35 17 21 33 17 20 35 17 20 37 18 19 37 16 19 36 16 22 36 18 23 42 22 27 49 12 12 22 0 1 3 26 10 10 65 25 25 0 0 0 12 14 27 25 31 55 26 32 54 25 31 55 26 32 56 25 31 55 25 31 55 25 31 55 25 31 55 25 31 55 25 31 55 25 31 55 25 31 55 25 31 55 25 31 55 25 31 55 25 31 55 25 31 55 25 31 55 26 31 53 25 31 55 45 36 65 87 47 81 86 46 81 75 44 76 25 30 52 25 31 53 25 31 55 26 30 55 26 30 55 25 31 55 25 31 55 25 31 53 25 31 55 25 31 55 
38 54 44 40 56 46 39 56 48 37 54 44 46 59 50 55 75 63 20 27 20 21 30 25 51 73 61 59 83 69 54 76 63 62 84 71 61 83 71 63 85 73 59 81 68 57 84 69 58 82 68 61 85 72 61 81 70 54 78 64 61 83 71 53 80 65 56 80 66 53 80 65 60 82 69 60 82 70 65 82 72 57 80 64 52 76 62 53 77 63 56 78 65 59 83 69 53 77 63 59 81 68 56 80 64 58 82 68 62 84 72 61 83 71 57 83 70 54 81 66 55 79 65 55 79 65 54 81 64 64 79 72 48 65 57 12 21 16 2 2 2 1 1 1 1 1 3 9 12 21 16 22 38 18 21 36 16 22 38 17 21 33 18 21 36 18 21 36 17 20 35 20 25 44 22 28 52 25 31 53 25 29 54 13 17 28 0 2 1 5 3 4 2 2 2 6 5 10 25 31 55 25 31 55 26 32 56 25 31 55 25 31 55 25 31 55 25 31 55 25 31 55 25 31 55 25 31 55 26 30 55 26 32 54 48 48 48 70 62 41 47 47 49 26 30 55 25 31 53 26 30 55 25 31 55 32 32 58 54 38 67 83 46 80 84 47 81 83 46 80 26 30 55 25 31 55 26 30 57 24 30 52 25 31 55 25 31 55 25 31 55 25 31 53 25 31 55 25 31 57 
38 54 44 38 54 44 43 56 49 40 56 46 39 56 46 58 80 68 54 78 64 57 81 65 64 86 74 63 83 72 60 80 69 59 79 68 54 81 66 57 81 67 57 79 66 59 81 68 55 82 67 58 82 68 64 83 77 56 78 65 58 82 68 60 82 69 60 82 70 55 82 65 58 82 68 55 79 65 57 79 67 59 81 68 56 78 65 59 81 68 63 85 73 60 82 70 59 83 70 54 78 64 61 81 70 56 84 72 57 81 68 61 81 70 58 80 68 60 80 69 57 79 67 53 77 63 28 37 32 9 14 10 3 3 3 1 1 1 1 1 1 5 4 9 14 16 29 17 20 37 17 20 35 16 22 36 18 20 35 17 20 35 16 22 36 19 22 39 22 27 49 26 30 55 26 32 54 25 31 53 25 31 53 25 31 55 18 21 36 1 2 4 0 0 0 2 3 5 24 30 54 25 31 55 24 30 54 26 32 56 25 31 53 25 31 53 25 31 53 25 31 53 25 31 55 25 31 55 25 31 55 30 33 52 80 71 38 88 76 36 73 68 39 28 33 53 26 30 55 25 31 53 25 31 55 31 33 58 70 43 76 85 48 82 87 47 82 72 43 74 25 31 57 25 31 55 26 30 55 25 31 55 25 31 57 25 31 53 25 31 55 25 31 55 25 31 55 24 30 52 
40 55 48 34 54 43 42 57 50 46 57 53 37 55 43 52 79 64 61 81 69 59 83 69 55 79 63 63 85 73 50 77 60 61 82 73 59 83 69 59 83 70 58 80 67 58 80 67 61 83 71 61 83 70 68 85 77 62 82 71 58 80 68 56 78 66 57 79 66 61 82 73 54 78 64 60 82 70 56 80 64 61 85 72 56 78 65 58 82 68 56 80 66 57 79 67 61 82 73 61 83 70 55 79 65 67 84 76 57 81 67 55 79 65 59 83 69 54 78 62 49 76 59 15 24 19 1 1 1 0 0 0 3 3 3 14 13 9 28 27 25 16 19 36 14 16 29 13 13 23 17 20 37 17 20 35 16 19 36 19 22 39 22 27 47 24 30 56 25 31 55 25 31 55 25 31 55 25 31 55 26 30 57 24 30 54 25 31 55 21 23 44 5 6 10 10 10 20 25 31 55 25 31 57 25 31 57 25 31 57 25 31 55 25 31 55 25 31 55 25 31 55 25 31 57 25 31 57 25 31 55 25 31 53 65 59 43 80 71 38 52 51 46 27 33 55 25 31 53 25 31 55 25 31 53 25 30 52 50 37 65 80 45 78 80 46 79 72 43 74 33 33 57 25 31 55 24 32 53 25 31 55 25 31 55 25 31 55 25 31 55 25 31 55 25 31 55 26 32 56 
27 38 30 37 54 44 39 55 45 41 54 47 45 62 52 53 80 63 64 84 75 57 81 67 55 79 65 57 79 66 59 81 69 59 81 68 58 80 68 55 82 65 63 86 70 60 81 72 59 81 68 53 77 63 57 81 67 54 81 66 58 82 68 53 80 63 58 82 66 57 79 66 63 85 72 55 79 65 60 82 69 59 81 69 57 81 65 58 80 68 58 82 68 61 82 73 56 80 66 56 78 66 56 80 66 60 84 71 58 82 68 56 83 66 61 85 72 54 76 63 19 25 21 1 1 1 1 1 1 10 12 24 35 35 27 56 50 26 39 36 31 15 18 33 5 5 7 12 16 27 18 22 34 18 21 38 18 24 40 24 29 51 25 30 52 25 31 53 27 31 56 25 31 53 25 31 53 25 31 55 25 31 55 26 32 56 25 31 53 25 31 57 24 30 54 24 30 52 25 31 55 25 31 55 24 30 54 24 30 54 25 31 55 25 31 55 26 32 56 25 31 55 25 31 55 26 32 56 25 31 57 25 31 53 25 32 51 31 34 51 26 32 56 24 32 53 25 33 56 26 31 53 25 31 57 24 32 55 25 31 55 32 34 57 49 39 64 25 31 53 26 32 56 25 31 53 25 31 55 25 30 52 24 30 52 25 31 55 26 30 55 26 30 55 26 32 54 25 30 52 
23 34 28 37 53 43 38 54 44 39 55 45 48 65 55 57 81 67 63 83 72 60 82 69 63 84 75 55 79 65 62 82 73 53 80 65 57 81 67 61 83 71 57 81 67 63 83 72 57 81 67 53 77 61 62 82 71 59 81 69 58 82 68 55 79 65 62 79 69 60 82 69 60 82 70 59 81 69 58 80 68 58 82 68 42 57 50 17 23 21 38 54 44 58 80 67 57 81 67 59 81 68 58 82 69 59 83 69 63 85 73 59 81 68 57 79 67 26 36 28 0 0 0 2 2 2 11 14 23 17 20 35 33 30 21 41 35 19 46 42 30 17 20 37 17 20 35 18 21 36 18 21 38 20 25 44 25 30 52 26 30 55 25 31 55 26 32 56 25 31 55 26 31 53 27 31 56 27 31 56 25 31 53 25 31 55 25 31 55 25 31 55 25 31 55 25 31 55 26 30 55 27 31 56 25 31 55 25 31 55 25 31 55 25 31 55 24 30 54 24 30 54 25 31 55 25 31 55 25 31 53 24 30 52 25 31 53 26 32 56 26 32 54 25 31 55 26 32 56 26 32 56 25 32 51 24 30 54 25 31 55 25 31 53 25 31 55 25 33 56 26 30 55 25 31 57 26 30 55 25 31 55 25 31 55 24 30 54 20 25 44 15 18 27 10 10 20 14 18 30 
34 46 42 40 56 46 37 55 43 40 55 48 49 67 55 57 81 67 60 84 71 59 81 69 58 80 68 59 79 68 58 82 68 59 80 71 59 81 68 53 80 65 56 80 66 52 79 64 60 80 68 59 81 69 59 83 69 53 82 64 61 81 72 53 80 65 57 81 67 55 79 65 57 81 67 59 81 69 55 79 65 56 79 63 18 27 22 1 1 1 17 26 23 61 81 70 57 81 67 56 83 68 53 80 65 61 81 70 53 80 63 54 81 66 28 43 36 0 0 0 0 0 0 10 12 24 17 20 37 12 14 26 2 2 2 37 34 17 49 43 29 17 20 37 17 20 37 17 20 37 22 29 48 25 31 53 24 32 55 24 30 52 26 32 56 25 31 55 26 31 53 39 35 58 72 42 76 26 30 55 25 31 57 25 31 53 23 31 54 27 32 54 25 31 55 25 31 55 26 31 53 25 31 53 25 31 55 25 31 55 25 31 55 25 31 55 25 31 55 25 31 55 25 31 55 25 31 55 25 31 55 26 30 55 25 31 53 25 30 52 25 31 55 25 31 55 25 31 55 25 31 55 25 31 53 24 30 52 24 30 54 24 30 54 25 31 55 25 31 53 25 31 53 26 32 56 25 31 55 18 23 42 13 15 27 2 2 4 1 1 1 0 0 0 1 1 3 1 1 1 
