P3
100 50
255
42 61 67 41 60 66 42 61 67 42 61 67 42 61 67 41 60 66 41 60 66 43 62 68 42 61 67 42 61 67 42 61 67 42 61 67 41 60 66 42 61 67 42 61 67 41 60 66 41 60 66 41 60 66 43 62 68 41 60 66 41 60 66 42 61 67 43 62 68 41 60 66 42 61 67 41 60 66 42 61 67 42 61 67 42 61 67 42 61 67 43 62 68 42 61 67 42 61 67 41 60 66 42 61 67 41 60 66 41 60 66 42 61 67 42 61 67 41 60 66 42 61 67 42 61 67 42 61 67 42 61 67 42 61 67 42 61 67 41 60 66 42 61 67 42 61 67 42 61 67 42 61 67 41 60 66 42 61 67 41 60 66 42 61 67 42 61 67 42 61 67 42 61 67 42 61 67 41 60 66 41 60 66 41 60 66 42 61 67 42 61 67 41 60 66 43 62 68 42 61 67 41 60 66 40 59 65 42 61 67 42 61 67 42 61 67 40 59 65 41 60 66 41 60 66 41 60 66 41 60 66 43 62 68 40 59 65 41 60 66 41 60 66 43 62 68 41 60 66 41 60 66 43 62 68 41 60 66 42 61 67 42 61 67 42 61 67 42 61 67 42 61 67 42 61 67 42 61 67 41 60 66 42 61 67 42 61 67 42 61 67 42 61 67 42 61 67 41 60 66 
41 60 66 41 60 66 42 61 67 42 61 67 42 61 67 42 61 67 41 60 66 41 60 66 41 60 66 42 61 67 42 61 67 41 60 66 42 61 67 41 60 66 41 60 66 42 61 67 42 61 67 41 60 66 43 62 68 42 61 67 41 60 66 41 60 66 42 61 67 42 61 67 43 62 68 42 61 67 42 61 67 41 60 66 42 61 67 43 62 68 41 60 66 42 61 67 41 60 66 40 59 65 41 60 66 42 61 67 42 61 67 42 61 67 42 61 67 41 60 66 42 61 67 42 61 67 42 61 67 41 60 66 42 61 67 41 60 66 41 60 66 42 61 67 42 61 67 41 60 66 42 61 67 41 60 66 41 60 66 42 61 67 42 61 67 42 61 67 42 61 67 42 61 67 41 60 66 41 60 66 42 61 67 41 60 66 42 61 67 42 61 67 42 61 67 41 60 66 42 61 67 41 60 66 42 61 67 42 61 67 42 61 67 41 60 66 42 61 67 42 61 67 41 60 66 42 61 67 42 61 67 42 61 67 42 61 67 41 60 66 41 60 66 42 61 67 40 59 65 41 60 66 41 60 66 42 61 67 42 61 67 41 60 66 42 61 67 42 61 67 40 59 65 41 60 66 41 60 66 41 60 66 41 60 66 43 62 68 42 61 67 42 61 67 42 61 67 42 61 67 
42 61 67 41 60 66 42 61 67 42 61 67 43 62 68 41 60 66 42 61 67 42 61 67 42 61 67 42 61 67 42 61 67 42 61 67 42 61 67 41 60 66 41 60 66 42 61 67 41 60 66 42 61 67 41 60 66 41 60 66 42 61 67 41 60 66 42 61 67 41 60 66 42 61 67 42 61 67 41 60 66 41 60 66 41 60 66 42 61 67 42 61 67 41 60 66 42 61 67 40 59 65 42 61 67 42 61 67 41 60 66 40 59 65 41 60 66 42 61 67 42 61 67 42 61 67 42 61 67 41 60 66 41 60 66 43 62 68 41 60 66 40 59 65 41 60 66 41 60 66 42 61 67 41 60 66 42 61 67 41 60 66 41 60 66 42 61 67 42 61 67 42 61 67 41 60 66 42 61 67 41 60 66 41 60 66 42 61 67 42 61 67 42 61 67 40 59 65 42 61 67 43 62 68 41 60 66 42 61 67 42 61 67 42 61 67 42 61 67 42 61 67 41 60 66 40 59 65 42 61 67 41 60 66 41 60 66 41 60 66 41 60 66 41 60 66 41 60 66 41 60 66 42 61 67 41 60 66 41 60 66 42 61 67 41 60 66 41 60 66 42 61 67 42 61 67 41 60 66 43 62 68 42 61 67 42 61 67 42 61 67 42 61 67 41 60 66 41 60 66 
41 60 66 41 60 66 43 62 68 42 61 67 42 61 67 43 62 68 41 60 66 41 60 66 41 60 66 41 60 66 42 61 67 42 61 67 42 61 67 41 60 66 41 60 66 42 61 67 41 60 66 42 61 67 41 60 66 41 60 66 41 60 66 42 61 67 42 61 67 41 60 66 42 61 67 41 60 66 41 60 66 43 62 68 42 61 67 42 61 67 41 60 66 41 60 66 42 61 67 41 60 66 41 60 66 41 60 66 41 60 66 41 60 66 42 61 67 41 60 66 42 61 67 41 60 66 42 61 67 41 60 66 42 61 67 40 59 65 40 59 65 41 60 66 41 60 66 40 59 65 41 60 66 41 60 66 41 60 66 42 61 67 42 61 67 41 60 66 42 61 67 42 61 67 41 60 66 41 60 66 41 60 66 42 61 67 42 61 67 41 60 66 41 60 66 42 61 67 42 61 67 41 60 66 43 62 68 43 62 68 42 61 67 41 60 66 42 61 67 41 60 66 41 60 66 42 61 67 43 62 68 42 61 67 41 60 66 41 60 66 43 62 68 42 61 67 41 60 66 41 60 66 42 61 67 43 62 68 42 61 67 42 61 67 42 61 67 41 60 66 42 61 67 41 60 66 40 59 65 41 60 66 41 60 66 41 60 66 41 60 66 41 60 66 42 61 67 41 60 66 
42 61 67 41 60 66 42 61 67 41 60 66 42 61 67 41 60 66 41 60 66 42 61 67 42 61 67 41 60 66 41 60 66 42 61 67 41 60 66 42 61 67 41 60 66 41 60 66 41 60 66 41 60 66 41 60 66 41 60 66 41 60 66 41 60 66 41 60 66 41 60 66 43 62 68 41 60 66 41 60 66 41 60 66 42 61 67 41 60 66 42 61 67 41 60 66 41 60 66 42 61 67 42 61 67 41 60 66 41 60 66 41 60 66 42 61 67 42 61 67 42 61 67 42 61 67 42 61 67 42 61 67 41 60 66 41 60 66 42 61 67 42 61 67 42 61 67 42 61 67 42 61 67 41 60 66 41 60 66 41 60 66 41 60 66 42 61 67 42 61 67 40 59 65 41 60 66 41 60 66 42 61 67 42 61 67 42 61 67 42 61 67 41 60 66 42 61 67 41 60 66 42 61 67 41 60 66 41 60 66 41 60 66 42 61 67 41 60 66 41 60 66 41 60 66 42 61 67 41 60 66 41 60 66 42 61 67 41 60 66 41 60 66 41 60 66 42 61 67 42 61 67 41 60 66 41 60 66 41 60 66 42 61 67 42 61 67 41 60 66 41 60 66 42 61 67 42 61 67 42 61 67 41 60 66 42 61 67 42 61 67 42 61 67 42 61 67 42 61 67 
42 61 67 41 60 66 41 60 66 41 60 66 42 61 67 42 61 67 41 60 66 41 60 66 42 61 67 41 60 66 42 61 67 41 60 66 41 60 66 41 60 66 42 61 67 42 61 67 41 60 66 42 61 67 41 60 66 42 61 67 42 61 67 41 60 66 41 60 66 42 61 67 41 60 66 41 60 66 42 61 67 42 61 67 40 59 65 42 61 67 42 61 67 41 60 66 43 62 68 42 61 67 42 61 67 41 60 66 42 61 67 42 61 67 42 61 67 42 61 67 42 61 67 42 61 67 43 62 68 41 60 66 41 60 66 41 60 66 40 59 65 41 60 66 41 60 66 41 60 66 41 60 66 41 60 66 42 61 67 41 60 66 41 60 66 41 60 66 42 61 67 42 61 67 42 61 67 42 61 67 41 60 66 41 60 66 42 61 67 41 60 66 42 61 67 42 61 67 42 61 67 42 61 67 42 61 67 41 60 66 43 62 68 42 61 67 41 60 66 42 61 67 41 60 66 42 61 67 41 60 66 41 60 66 41 60 66 41 60 66 41 60 66 41 60 66 41 60 66 41 60 66 41 60 66 42 61 67 41 60 66 42 61 67 41 60 66 42 61 67 42 61 67 42 61 67 41 60 66 42 61 67 40 59 65 43 62 68 41 60 66 42 61 67 41 60 66 41 60 66 
41 60 66 42 61 67 42 61 67 42 61 67 42 61 67 41 60 66 42 61 67 42 61 67 41 60 66 42 61 67 41 60 66 41 60 66 41 60 66 41 60 66 41 60 66 41 60 66 41 60 66 42 61 67 42 61 67 42 61 67 41 60 66 41 60 66 42 61 67 42 61 67 42 61 67 41 60 66 42 61 67 41 60 66 42 61 67 42 61 67 42 61 67 42 61 67 42 61 67 43 62 68 42 61 67 43 62 68 42 61 67 41 60 66 42 61 67 42 61 67 41 60 66 41 60 66 42 61 67 42 61 67 41 60 66 41 60 66 42 61 67 42 61 67 42 61 67 42 61 67 42 61 67 41 60 66 40 59 65 42 61 67 42 61 67 42 61 67 41 60 66 42 61 67 41 60 66 42 61 67 42 61 67 42 61 67 42 61 67 42 61 67 41 60 66 42 61 67 41 60 66 41 60 66 42 61 67 41 60 66 41 60 66 42 61 67 42 61 67 42 61 67 42 61 67 40 59 65 41 60 66 41 60 66 41 60 66 41 60 66 41 60 66 41 60 66 43 62 68 42 61 67 42 61 67 42 61 67 42 61 67 42 61 67 42 61 67 40 59 65 41 60 66 41 60 66 41 60 66 42 61 67 41 60 66 42 61 67 42 61 67 41 60 66 41 60 66 41 60 66 
42 61 67 42 61 67 41 60 66 41 60 66 42 61 67 42 61 67 42 61 67 41 60 66 41 60 66 42 61 67 42 61 67 42 61 67 41 60 66 41 60 66 41 60 66 41 60 66 41 60 66 42 61 67 41 60 66 42 61 67 42 61 67 41 60 66 42 61 67 41 60 66 41 60 66 42 61 67 42 61 67 42 61 67 41 60 66 41 60 66 41 60 66 42 61 67 43 62 68 42 61 67 42 61 67 41 60 66 41 60 66 41 60 66 42 61 67 42 61 67 42 61 67 41 60 66 42 61 67 41 60 66 41 60 66 41 60 66 41 60 66 41 60 66 42 61 67 41 60 66 41 60 66 41 60 66 41 60 66 41 60 66 41 60 66 42 61 67 41 60 66 43 62 68 41 60 66 42 61 67 42 61 67 41 60 66 41 60 66 42 61 67 42 61 67 42 61 67 42 61 67 42 61 67 41 60 66 42 61 67 42 61 67 40 59 65 42 61 67 42 61 67 42 61 67 40 59 65 42 61 67 41 60 66 41 60 66 42 61 67 41 60 66 41 60 66 42 61 67 42 61 67 41 60 66 42 61 67 41 60 66 41 60 66 41 60 66 41 60 66 42 61 67 42 61 67 41 60 66 41 60 66 41 60 66 41 60 66 41 60 66 42 61 67 42 61 67 42 61 67 
42 61 67 42 61 67 41 60 66 42 61 67 41 60 66 42 61 67 41 60 66 41 60 66 42 61 67 41 60 66 42 61 67 42 61 67 41 60 66 41 60 66 41 60 66 41 60 66 41 60 66 41 60 66 42 61 67 41 60 66 41 60 66 41 60 66 41 60 66 41 60 66 42 61 67 42 61 67 41 60 66 42 61 67 41 60 66 42 61 67 42 61 67 41 60 66 41 60 66 41 60 66 41 60 66 41 60 66 41 60 66 41 60 67 41 60 66 42 61 67 42 61 67 41 60 66 42 61 67 41 60 66 41 60 66 41 60 66 41 60 66 42 61 67 41 60 66 41 60 66 42 61 67 42 61 67 40 59 65 42 61 67 41 60 66 41 60 66 42 61 67 41 60 66 42 61 67 41 60 66 41 60 66 42 61 67 42 61 67 42 61 67 42 61 67 42 61 67 41 60 66 41 60 66 43 62 68 42 61 67 41 60 66 42 61 67 42 61 67 42 61 67 42 61 67 41 60 66 42 61 67 41 60 66 42 61 67 41 60 66 41 60 66 42 61 67 41 60 66 41 60 66 43 62 68 42 61 67 42 61 67 42 61 67 43 62 68 41 60 66 42 61 67 41 60 66 43 62 68 40 59 65 41 60 66 42 61 67 42 61 67 41 60 66 42 61 67 43 62 68 
41 60 66 41 60 66 41 60 66 42 61 67 41 60 66 42 61 67 42 61 67 41 60 66 42 61 67 41 60 66 42 61 67 41 60 66 41 60 66 41 60 66 41 60 66 41 60 66 41 60 66 41 60 66 41 60 66 41 60 66 41 60 66 41 60 66 43 62 68 42 61 67 41 60 66 42 61 67 41 60 66 41 60 66 43 62 68 42 61 67 41 60 66 42 61 67 41 60 66 42 61 67 41 60 66 41 60 66 42 61 67 41 60 66 41 60 66 40 59 65 41 60 66 42 61 67 41 60 66 43 62 68 42 61 67 41 60 66 41 60 66 41 60 66 41 60 66 40 59 65 42 61 67 41 60 66 41 60 66 41 60 66 42 61 67 41 60 66 42 61 67 42 61 67 41 60 66 41 60 66 42 61 67 41 60 66 42 61 67 40 59 65 41 60 66 41 60 66 42 61 67 42 61 67 41 60 66 41 60 66 41 60 66 40 59 65 41 60 66 41 60 66 41 60 66 41 60 66 42 61 67 42 61 67 41 60 66 42 61 67 41 60 66 42 61 67 42 61 67 41 60 66 41 60 66 42 61 67 41 60 66 41 60 66 42 61 67 41 60 66 41 60 66 41 60 66 42 61 67 41 60 66 41 60 66 42 61 67 40 59 65 42 61 67 42 61 67 41 60 66 
42 61 67 41 60 66 41 60 66 42 61 67 41 60 66 42 61 67 42 61 67 41 60 66 42 61 67 41 60 66 41 60 66 41 60 66 42 61 67 41 60 66 41 60 66 41 60 66 42 61 67 41 60 66 42 61 67 41 60 66 41 60 66 41 60 66 42 61 67 41 60 66 41 60 66 42 61 67 41 60 66 41 60 66 41 60 66 41 60 66 41 60 66 41 60 66 41 60 66 41 60 66 41 60 66 42 61 67 41 60 66 42 61 65 42 61 67 43 62 68 41 60 66 41 60 66 42 61 67 42 61 67 42 61 67 41 60 66 42 61 67 41 60 66 41 60 66 41 60 66 42 61 67 41 60 66 41 60 66 41 60 66 42 61 67 41 60 66 41 60 66 41 60 66 41 60 66 41 60 66 41 60 66 41 60 66 41 60 66 42 61 67 42 61 67 41 60 66 41 60 66 41 60 66 41 60 66 41 60 66 42 61 67 41 60 66 42 61 67 42 61 67 41 60 66 41 60 66 40 59 65 42 61 67 41 60 66 42 61 67 42 61 67 41 60 66 42 61 67 41 60 66 41 60 66 41 60 66 41 60 66 41 60 66 41 60 66 42 61 67 42 61 67 42 61 67 41 60 66 41 60 66 40 59 65 42 61 67 41 60 66 41 60 66 41 60 66 41 60 66 
41 60 66 42 61 67 40 59 65 42 61 67 41 60 66 41 60 66 42 61 67 42 61 67 40 59 65 42 61 67 41 60 66 42 61 67 41 60 66 41 60 66 41 60 66 41 60 66 42 61 67 41 60 66 41 60 66 42 61 67 41 60 66 41 60 66 41 60 66 40 59 65 42 61 67 42 61 67 41 60 66 42 61 67 41 60 66 42 61 67 42 61 67 41 60 66 42 61 68 42 61 65 42 61 67 42 61 67 42 61 67 41 60 66 42 61 67 42 61 67 41 60 66 42 61 67 42 61 67 41 60 66 41 60 66 42 61 67 41 60 66 43 62 68 41 60 66 41 60 66 42 61 67 41 60 66 42 61 67 41 60 66 42 61 67 41 60 66 42 61 67 41 60 66 42 61 67 42 61 67 41 60 66 41 60 66 41 60 66 41 60 66 42 61 67 42 61 67 42 61 67 43 62 68 42 61 67 41 60 66 42 61 67 43 62 68 42 61 67 42 61 67 41 60 66 41 60 66 41 60 66 40 59 65 42 61 67 42 61 67 41 60 66 42 61 67 41 60 66 41 60 66 41 60 66 41 60 66 42 61 67 40 59 65 41 60 66 41 60 66 41 60 66 41 60 66 42 61 67 41 60 66 41 60 66 40 59 65 42 61 67 41 60 66 41 60 66 41 60 66 
41 60 66 42 61 67 40 59 65 41 60 66 42 61 67 42 61 67 41 60 66 40 59 65 41 60 66 41 60 66 40 59 65 42 61 67 41 60 66 41 60 66 41 60 66 41 60 66 42 61 67 41 60 66 42 61 67 41 60 66 41 60 66 43 62 68 41 60 66 41 60 66 41 60 66 41 60 66 41 60 66 41 60 66 42 61 67 41 60 66 42 61 67 42 61 67 41 60 67 42 61 65 42 61 67 41 60 67 41 60 66 42 61 67 40 59 65 42 61 67 41 60 66 42 61 67 42 61 67 41 60 66 42 61 67 41 60 66 41 60 66 42 61 67 41 60 66 41 60 66 42 61 67 41 60 66 41 60 66 41 60 66 42 61 67 41 60 66 41 60 66 40 59 65 41 60 66 40 59 65 42 61 67 41 60 66 41 60 66 41 60 66 42 61 67 41 60 66 41 60 66 41 60 66 41 60 66 42 61 67 41 60 66 40 59 65 42 61 67 42 61 67 41 60 66 42 61 67 43 62 68 42 61 67 41 60 66 41 60 66 42 61 67 41 60 66 41 60 66 42 61 67 42 61 67 41 60 66 41 60 66 43 62 68 41 60 66 41 60 66 41 60 66 41 60 66 41 60 66 40 59 65 42 61 67 41 60 66 42 61 67 41 60 66 42 61 67 41 60 66 
42 61 67 42 61 67 42 61 67 41 60 66 42 61 67 41 60 66 41 60 66 41 60 66 41 60 66 41 60 66 42 61 67 41 60 66 41 60 66 41 60 66 41 60 66 42 61 67 42 61 67 41 60 66 41 60 66 41 60 66 41 60 66 41 60 66 41 60 66 42 61 67 41 60 66 41 60 66 41 60 66 41 60 66 41 60 66 41 60 66 42 61 67 43 62 68 41 60 66 42 61 67 42 61 67 41 60 67 42 61 67 41 60 66 41 60 66 41 60 66 41 60 66 41 60 66 41 60 66 42 61 67 41 60 66 41 60 66 42 61 67 41 60 66 41 60 66 41 60 66 41 60 66 41 60 66 40 59 65 41 60 66 41 60 66 41 60 66 41 60 66 41 60 66 41 60 66 41 60 66 41 60 66 41 60 66 42 61 67 41 60 66 42 61 67 41 60 66 41 60 66 42 61 67 42 61 67 41 60 66 41 60 66 41 60 66 41 60 66 41 60 66 41 60 66 41 60 66 41 60 66 42 61 67 40 59 65 41 60 66 41 60 66 41 60 66 41 60 66 41 60 66 41 60 66 41 60 66 41 60 66 41 60 66 41 60 66 41 60 66 41 60 66 42 61 67 41 60 66 41 60 66 42 61 67 41 60 66 41 60 66 42 61 67 41 60 66 42 61 67 
42 61 67 42 61 67 41 60 66 41 60 66 42 61 67 41 60 66 42 61 67 42 61 67 41 60 66 41 60 66 41 60 66 41 60 66 42 61 67 41 60 66 41 60 66 42 61 67 41 60 66 41 60 66 41 60 66 41 60 66 41 60 66 41 60 66 41 60 66 42 61 67 41 60 66 42 61 67 42 61 67 42 61 67 41 60 66 41 60 66 42 61 67 42 61 67 42 61 67 41 60 66 41 60 66 41 60 66 41 60 66 42 61 67 41 60 66 42 61 67 41 60 66 41 60 66 41 60 66 41 60 66 41 60 66 41 60 66 41 60 66 42 61 67 42 61 67 41 60 66 42 61 67 40 59 65 41 60 66 40 59 65 42 61 67 41 60 66 41 60 66 41 60 66 42 61 67 42 61 67 41 60 66 41 60 66 41 60 66 41 60 66 42 61 67 41 60 66 42 61 67 40 59 65 41 60 66 43 62 68 41 60 66 42 61 67 41 60 66 41 60 66 42 61 67 41 60 66 42 61 67 40 59 65 42 61 67 42 61 67 41 60 66 41 60 66 41 60 66 42 61 67 41 60 66 40 59 65 40 59 65 42 61 67 41 60 66 41 60 66 41 60 66 41 60 66 41 60 66 41 60 66 41 60 66 41 60 66 41 60 66 41 60 66 41 60 66 42 61 67 
41 60 66 41 60 66 41 60 66 41 60 66 42 61 67 42 61 67 41 60 66 41 60 66 41 60 66 42 61 67 40 59 65 41 60 66 42 61 67 41 60 66 42 61 67 42 61 67 41 60 66 42 61 67 41 60 66 42 61 67 41 60 66 41 60 66 42 61 67 41 60 66 41 60 66 41 60 66 41 60 66 40 59 65 41 60 66 40 59 65 41 60 66 42 61 67 41 60 66 41 60 64 42 61 67 41 60 64 41 60 66 41 60 66 41 60 66 42 61 67 41 60 66 41 60 66 42 61 67 42 61 67 41 60 66 40 59 65 41 60 66 41 60 66 41 60 66 42 61 67 41 60 66 42 61 67 41 60 66 41 60 66 42 61 67 41 60 66 41 60 66 41 60 66 42 61 67 41 60 66 41 60 66 41 60 66 41 60 66 41 60 66 41 60 66 42 61 67 41 60 66 42 61 67 42 61 67 40 59 65 41 60 66 41 60 66 41 60 66 42 61 67 42 61 67 41 60 66 40 59 65 41 60 66 41 60 66 42 61 67 41 60 66 41 60 66 41 60 66 41 60 66 41 60 66 41 60 66 41 60 66 41 60 66 41 60 66 41 60 66 41 60 66 41 60 66 41 60 66 42 61 67 41 60 66 42 61 67 41 60 66 42 61 67 41 60 66 41 60 66 
41 60 66 41 60 66 40 59 65 41 60 66 41 60 66 41 60 66 40 59 65 41 60 66 41 60 66 41 60 66 41 60 64 41 60 66 42 61 67 41 60 66 42 61 67 40 59 65 41 60 66 42 61 67 41 60 66 39 58 64 41 60 66 41 60 66 41 60 66 42 61 67 41 60 66 41 60 66 42 61 67 42 61 67 41 60 66 41 60 66 42 61 67 42 61 67 41 60 66 41 60 66 42 61 67 41 60 66 42 61 67 41 60 66 41 60 66 41 60 66 42 61 67 42 61 67 42 61 67 41 60 66 42 61 67 41 60 66 41 60 66 41 60 66 41 60 66 41 60 66 41 60 66 41 60 66 41 60 66 41 60 66 41 60 66 41 60 66 42 61 67 41 60 66 42 61 67 41 60 66 41 60 66 42 61 67 41 60 66 41 60 66 41 60 66 42 61 67 42 61 67 41 60 66 41 60 66 42 61 67 41 60 66 41 60 66 41 60 66 41 60 66 41 60 66 41 60 66 41 60 66 42 61 67 41 60 66 41 60 66 42 61 67 40 59 65 40 59 65 42 61 67 41 60 66 41 60 66 41 60 66 41 60 66 40 59 65 41 60 66 41 60 66 41 60 66 41 60 66 41 60 66 41 60 66 41 60 66 41 60 66 41 60 66 42 61 67 40 59 65 
41 60 66 42 61 67 42 61 67 41 60 66 42 61 67 41 60 66 41 60 66 42 61 67 41 60 66 41 60 66 41 60 66 41 60 64 41 60 66 41 60 66 41 60 66 41 60 66 42 61 67 41 60 66 41 60 66 42 61 67 41 60 66 41 60 66 43 62 68 42 61 67 41 60 66 41 60 66 41 60 66 41 60 66 41 60 66 41 60 66 42 61 67 41 60 66 41 60 66 41 60 66 41 60 66 41 60 66 42 61 67 41 60 66 41 60 66 41 60 66 41 60 66 41 60 66 42 61 67 40 59 65 41 60 66 41 60 66 41 60 66 41 60 66 41 60 66 41 60 66 41 60 66 41 60 66 41 60 66 41 60 66 41 60 66 41 60 66 41 60 66 41 60 66 41 60 66 41 60 66 41 60 66 41 60 66 41 60 66 41 60 66 42 61 67 42 61 67 41 60 66 41 60 66 41 60 66 41 60 66 41 60 66 41 60 66 41 60 66 42 61 67 42 61 67 41 60 66 41 60 66 41 60 66 40 59 65 41 60 66 42 61 67 41 60 66 42 61 67 41 60 66 41 60 66 42 61 67 41 60 66 42 61 67 41 60 66 41 60 66 42 61 67 41 60 66 41 60 66 41 60 66 41 60 66 41 60 66 42 61 67 41 60 66 42 61 67 41 60 66 
41 60 66 41 60 66 42 61 67 41 60 66 41 60 66 41 60 66 42 61 67 41 60 66 41 60 66 41 60 66 41 60 66 41 60 67 41 60 66 40 59 65 41 60 66 41 60 67 42 61 67 41 60 66 41 60 66 42 61 67 41 60 66 41 60 66 42 61 67 42 61 67 41 60 66 42 61 67 41 60 66 41 60 66 41 60 66 41 60 66 41 60 66 41 60 66 41 60 66 41 60 66 42 61 67 42 61 67 42 61 67 41 60 66 42 61 67 41 60 66 42 61 67 42 61 67 41 60 66 42 61 67 41 60 66 41 60 66 41 60 66 41 60 66 41 60 66 41 60 66 41 60 66 41 60 66 41 60 66 41 60 66 41 60 66 41 60 66 41 60 66 41 60 66 40 59 65 41 60 66 41 60 66 41 60 66 41 60 66 41 60 66 41 60 66 41 60 66 42 61 67 41 60 66 42 61 67 41 60 66 42 61 67 41 60 66 43 62 68 42 61 67 42 61 67 41 60 66 42 61 67 41 60 66 41 60 66 41 60 66 41 60 66 42 61 67 41 60 66 41 60 66 42 61 67 41 60 66 41 60 66 42 61 67 41 60 66 41 60 66 41 60 66 41 60 66 41 60 66 41 60 66 41 60 66 41 60 66 41 60 66 41 60 66 41 60 66 41 60 66 
43 62 68 42 61 67 42 61 67 42 61 67 42 61 67 42 61 67 41 60 66 40 59 65 41 60 66 41 60 66 41 60 66 41 60 66 41 60 66 41 60 66 41 60 67 41 60 66 41 60 66 42 61 67 41 60 66 41 60 66 41 60 66 41 60 66 40 59 65 41 60 66 40 59 65 41 60 66 41 60 66 41 60 66 41 60 66 41 60 66 42 61 67 42 61 67 41 60 66 41 60 66 42 61 67 41 60 66 42 61 67 41 60 66 42 61 67 40 59 65 41 60 66 41 60 66 41 60 66 41 60 66 41 60 66 41 60 66 41 60 66 41 60 66 41 60 66 41 60 66 41 60 66 41 60 66 41 60 66 41 60 66 41 60 66 41 60 66 41 60 66 41 60 66 41 60 66 41 60 66 41 60 66 41 60 66 40 59 65 42 61 67 41 60 66 41 60 66 41 60 66 41 60 66 40 59 65 41 60 66 41 60 66 41 60 66 41 60 66 40 59 65 41 60 66 41 60 66 42 61 67 41 60 66 41 60 66 41 60 66 41 60 66 41 60 66 41 60 66 41 60 66 42 61 67 41 60 66 41 60 66 41 60 66 42 61 67 43 62 68 42 61 67 40 59 65 42 61 67 40 59 65 42 61 67 42 61 67 41 60 66 41 60 66 42 61 67 40 59 65 
43 62 68 41 60 66 41 60 66 41 60 66 41 60 66 41 60 66 41 60 66 42 61 67 41 60 66 41 60 66 41 60 66 41 60 66 41 60 67 41 60 66 41 60 66 41 60 66 41 60 66 42 61 67 41 60 66 41 60 66 41 60 66 41 60 66 41 60 66 41 60 66 41 60 66 41 60 66 41 60 66 41 60 66 41 60 66 41 60 66 42 61 67 41 60 66 41 60 66 41 60 66 41 60 66 42 61 67 41 60 66 41 60 66 41 60 66 41 60 66 41 60 66 41 60 66 41 60 66 41 60 66 41 60 66 41 60 66 41 60 66 41 60 66 41 60 66 41 60 66 41 60 66 41 60 66 41 60 66 41 60 66 41 60 66 41 60 66 42 61 67 41 60 66 42 61 67 41 60 66 41 60 66 41 60 66 42 61 67 41 60 66 41 60 66 41 60 66 41 60 66 42 61 67 41 60 66 42 61 67 41 60 66 41 60 66 42 61 67 42 61 67 41 60 66 40 59 65 41 60 66 41 60 66 41 60 66 42 61 67 41 60 66 41 60 66 41 60 66 40 59 65 41 60 66 41 60 66 41 60 66 41 60 66 41 60 66 41 60 66 41 60 66 41 60 66 41 60 66 41 60 66 41 60 66 43 62 68 41 60 66 41 60 66 42 61 67 41 60 66 
42 61 67 41 60 66 41 60 66 42 61 67 41 60 66 41 60 66 41 60 66 41 60 66 41 60 66 41 60 66 41 60 66 41 60 66 41 60 66 41 60 67 41 60 66 42 61 67 41 60 66 41 60 66 41 60 66 41 60 66 41 60 66 41 60 66 41 60 66 41 60 66 41 60 66 41 60 66 41 60 66 42 61 67 41 60 66 41 60 66 41 60 66 41 60 66 41 60 66 40 59 65 41 60 66 41 60 66 41 60 66 41 60 66 42 61 67 40 59 65 41 60 66 42 61 67 41 60 66 42 61 67 41 60 66 41 60 66 41 60 66 41 60 66 41 60 66 41 60 66 41 60 66 41 60 66 41 60 66 41 60 66 41 60 66 41 60 66 41 60 66 42 61 67 41 60 66 42 61 67 41 60 66 41 60 66 41 60 66 41 60 66 41 60 66 41 60 66 42 61 67 40 59 65 41 60 66 40 59 65 41 60 66 41 60 66 41 60 66 41 60 66 41 60 66 42 61 67 40 59 65 41 60 66 41 60 66 41 60 66 41 60 66 41 60 66 41 60 66 41 60 66 41 60 66 40 59 65 41 60 66 41 60 66 41 60 66 41 60 66 41 60 66 41 60 66 41 60 66 41 60 66 41 60 66 41 60 66 40 59 65 41 60 66 41 60 66 42 61 67 
41 60 66 41 60 66 41 60 66 41 60 66 41 60 66 42 61 67 41 60 66 41 60 66 41 60 66 41 60 64 41 60 66 41 60 66 40 59 65 41 60 66 41 60 66 42 61 67 41 60 66 40 59 65 41 60 66 41 60 66 41 60 66 41 60 66 41 60 66 41 60 66 43 62 68 41 60 66 41 60 66 41 60 66 42 61 67 41 60 66 41 60 66 40 59 65 41 60 66 41 60 66 41 60 66 41 60 66 41 60 66 41 60 66 41 60 66 41 60 66 41 60 66 41 60 66 41 60 66 40 59 65 41 60 66 41 60 66 41 60 66 42 61 67 41 60 66 41 60 66 41 60 66 41 60 66 41 60 66 41 60 66 41 60 66 41 60 66 41 60 66 41 60 66 41 60 66 41 60 66 42 61 67 41 60 66 42 61 67 40 59 65 41 60 66 41 60 66 41 60 66 41 60 66 42 61 67 41 60 66 41 60 66 41 60 66 42 61 67 41 60 66 40 59 65 41 60 66 41 60 66 41 60 66 41 60 66 41 60 66 41 60 66 41 60 66 41 60 66 42 61 67 42 61 67 41 60 66 41 60 66 41 60 66 41 60 66 41 60 66 40 59 65 41 60 66 40 59 65 40 59 65 41 60 66 42 61 67 41 60 66 41 60 66 41 60 66 41 60 66 
41 60 66 41 60 66 42 61 67 40 59 65 41 60 66 42 61 67 42 61 67 39 58 64 42 61 65 41 60 66 41 60 66 41 60 66 41 60 66 42 61 67 41 60 66 41 60 66 41 60 66 41 60 66 41 60 66 41 60 66 41 60 66 41 60 66 41 60 66 41 60 66 41 60 66 41 60 66 40 59 65 41 60 66 41 60 66 40 59 65 40 59 65 41 60 66 42 61 67 41 60 66 41 60 66 41 60 66 40 59 65 41 60 66 41 60 66 41 60 66 42 61 67 42 61 67 41 60 66 40 59 65 41 60 66 41 60 66 41 60 66 42 61 67 41 60 66 41 60 66 41 60 66 41 60 66 41 60 66 41 60 66 41 60 66 41 60 66 41 60 66 41 60 66 40 59 65 41 60 66 41 60 66 41 60 66 41 60 66 42 61 67 41 60 66 42 61 67 41 60 66 41 60 66 40 59 65 41 60 66 41 60 66 40 59 65 41 60 66 41 60 66 41 60 66 40 59 65 40 59 65 40 59 65 42 61 67 40 59 65 41 60 66 41 60 66 40 59 65 41 60 66 41 60 66 41 60 66 41 60 66 41 60 66 42 61 67 41 60 66 42 61 67 41 60 66 42 61 67 41 60 66 41 60 66 41 60 66 41 60 66 41 60 66 41 60 66 41 60 66 
41 60 66 41 60 66 40 59 65 41 60 66 40 59 65 42 61 67 41 60 66 41 60 66 41 60 66 41 60 66 41 60 66 41 60 66 41 60 66 41 60 66 41 60 66 41 60 66 41 60 66 40 59 65 40 59 65 40 59 65 41 60 66 40 59 65 41 60 66 41 60 66 40 59 65 40 59 65 41 60 66 41 60 66 41 60 66 41 60 66 41 60 66 41 60 66 42 61 67 41 60 66 40 59 65 42 61 67 41 60 66 41 60 66 42 61 67 41 60 66 40 59 65 41 60 66 41 60 66 41 60 66 42 61 67 41 60 66 40 59 65 40 59 65 41 60 66 41 60 66 41 60 66 41 60 66 41 60 66 41 60 66 41 60 66 41 60 66 41 60 66 41 60 66 41 60 66 42 61 67 41 60 66 41 60 66 41 60 66 40 59 65 41 60 66 41 60 66 41 60 66 41 60 66 41 60 66 40 59 65 41 60 66 42 61 67 42 59 66 41 60 66 42 61 67 41 60 66 41 60 66 41 60 66 41 60 66 42 59 66 41 60 66 42 61 67 40 59 65 43 62 68 41 60 66 41 60 66 41 60 66 41 60 66 41 60 66 40 59 65 41 60 66 41 60 66 41 60 66 41 60 66 41 60 66 40 59 65 41 60 66 41 60 66 41 60 66 42 61 67 
41 60 66 42 61 67 41 60 66 41 60 66 41 60 66 41 60 66 40 59 65 42 61 67 40 59 65 41 60 66 41 60 66 43 62 68 40 59 65 41 60 66 40 59 65 41 60 66 41 58 65 41 60 66 42 61 67 41 60 66 41 60 66 40 59 65 41 60 66 42 61 67 40 59 65 40 59 65 41 60 66 41 60 66 40 59 65 41 60 66 41 60 66 41 60 66 42 61 67 41 60 66 40 59 65 42 61 67 41 60 66 41 60 66 41 60 66 41 60 66 40 59 65 41 60 66 41 60 66 41 60 66 40 59 65 41 60 66 41 60 66 40 59 65 41 60 66 40 59 65 41 60 66 41 60 66 41 60 66 41 60 66 41 60 66 41 60 66 41 60 66 41 60 66 41 60 66 41 60 66 40 59 65 40 59 65 41 60 66 41 60 66 41 60 66 41 60 66 41 60 66 41 60 66 41 60 66 40 59 65 41 60 66 42 61 67 42 59 66 41 60 66 41 60 66 41 60 66 41 60 66 41 60 66 41 60 66 41 58 65 41 60 66 41 60 66 41 60 66 41 60 66 41 60 66 41 60 66 41 60 66 41 60 66 41 60 66 41 60 66 41 58 65 42 61 67 41 58 65 41 60 66 40 59 65 41 60 66 41 60 66 40 59 65 41 60 66 41 60 66 
41 60 66 42 61 67 40 59 65 41 60 66 41 60 66 41 60 66 40 59 65 42 61 67 41 60 66 41 60 66 40 59 65 41 60 66 40 59 65 41 60 66 41 60 66 41 60 66 40 59 65 41 60 66 41 60 66 40 59 65 41 60 66 41 60 66 40 59 65 40 59 65 40 59 65 42 61 67 41 60 66 41 60 66 41 60 66 43 62 68 41 60 66 41 60 66 40 59 65 41 60 66 41 60 66 41 60 66 41 60 66 41 60 66 41 60 66 41 60 66 40 59 65 41 60 66 41 60 66 41 60 66 41 60 66 40 59 65 41 60 66 41 60 66 41 60 66 40 59 65 41 60 66 40 59 65 41 60 66 41 60 66 40 59 65 41 60 66 41 60 66 41 60 66 41 60 66 41 60 66 41 60 66 41 60 66 41 60 66 41 60 66 41 60 66 41 60 66 40 59 65 42 61 67 41 60 66 41 60 66 41 60 66 41 60 66 41 60 66 41 60 66 41 60 66 41 60 66 41 60 66 41 60 66 41 60 66 40 59 65 40 59 65 40 59 65 40 59 65 41 60 66 41 60 66 41 60 66 41 60 66 41 60 66 41 60 66 40 59 65 42 61 67 42 59 66 40 59 65 43 60 67 41 60 66 40 59 65 41 60 66 40 59 65 41 60 67 41 60 66 
41 60 66 41 60 66 40 59 65 41 60 66 41 60 66 40 59 65 41 60 66 41 60 66 41 60 66 41 60 66 40 59 65 40 59 65 41 60 66 41 60 66 41 60 66 40 59 65 42 61 67 41 60 66 42 59 66 41 58 65 41 60 66 42 61 67 41 60 66 42 61 67 40 59 65 41 60 66 41 60 66 41 60 66 40 59 65 41 60 66 41 60 66 41 60 66 40 59 65 42 61 67 41 60 66 41 60 66 41 60 66 41 60 66 41 60 66 40 59 65 41 60 66 41 60 66 42 61 67 40 59 65 41 60 66 40 59 65 41 60 66 41 60 66 40 59 65 41 58 65 41 60 66 41 58 65 42 59 66 41 60 66 42 59 66 41 60 66 42 61 67 41 60 66 41 60 66 41 60 66 41 60 66 41 60 66 41 60 66 40 59 65 40 59 65 40 59 65 42 61 67 41 60 66 41 60 66 40 59 65 41 60 66 42 61 67 41 60 66 42 61 67 41 60 66 41 60 66 41 60 66 41 60 66 40 59 65 41 60 66 40 59 65 41 60 66 42 61 67 40 59 65 40 59 65 42 61 67 40 59 65 40 59 65 40 59 65 41 60 66 40 59 65 40 59 65 42 61 67 41 60 66 40 59 65 41 60 66 40 59 65 41 60 66 40 59 65 41 60 66 
41 60 66 41 60 66 41 60 66 42 61 67 41 60 66 41 60 66 42 61 67 41 60 66 41 60 66 41 60 66 41 60 66 40 59 65 42 61 67 40 59 65 41 60 66 41 60 66 43 60 67 40 59 65 41 60 66 41 60 66 40 59 65 41 60 66 40 59 65 40 59 65 40 59 65 42 61 67 41 60 66 40 59 65 41 60 66 41 60 66 41 60 66 40 59 65 40 59 65 41 60 66 41 60 66 41 60 66 41 60 66 40 59 65 41 60 66 41 60 66 41 60 66 41 60 66 41 60 66 41 60 66 41 60 66 40 59 65 42 61 67 40 59 65 41 60 66 42 61 67 41 60 66 41 60 66 41 60 66 41 60 66 41 60 66 41 60 66 41 60 66 41 60 66 40 59 65 40 59 65 41 60 66 41 60 66 40 59 65 40 59 65 41 60 66 41 60 66 41 60 66 41 60 66 41 60 66 41 60 66 41 60 66 41 60 66 40 59 65 41 60 66 41 60 66 41 60 66 41 60 66 40 59 65 40 59 65 40 59 65 41 60 66 40 59 65 41 60 66 41 60 66 41 60 66 40 59 65 41 60 66 41 60 66 41 60 66 41 60 66 41 60 66 41 60 66 40 59 65 40 59 65 40 59 65 41 60 66 41 60 66 41 60 66 41 60 66 41 60 66 
41 60 66 41 60 66 40 59 65 41 60 66 41 60 66 41 60 66 41 60 66 40 59 65 41 60 66 41 60 66 41 60 66 41 60 66 41 60 66 41 60 66 41 60 66 41 60 66 40 59 65 40 59 65 41 60 66 41 60 66 41 60 66 41 60 66 40 59 65 41 60 66 41 60 66 41 60 66 41 60 66 40 59 65 42 61 67 41 60 66 41 60 66 39 58 64 41 60 66 41 60 66 40 59 65 40 59 65 41 60 66 41 60 66 41 60 66 41 60 66 42 61 67 40 59 65 41 60 66 41 60 66 40 59 65 41 60 66 41 60 66 42 61 67 42 59 66 42 61 67 42 59 66 41 60 66 40 59 65 42 59 66 41 60 66 41 58 65 40 59 65 41 60 66 41 60 66 40 59 65 41 60 66 41 60 66 40 59 65 41 60 66 40 59 65 41 60 66 41 60 66 41 60 66 40 59 65 41 60 66 41 60 66 42 61 67 41 60 66 43 62 68 41 60 66 41 60 66 41 60 66 40 59 65 41 60 66 42 61 67 41 60 66 40 59 65 41 60 66 41 60 66 41 60 66 40 59 65 40 59 65 41 60 66 41 60 66 41 60 66 40 59 65 42 59 66 41 60 66 41 58 65 41 60 66 41 60 66 40 59 65 41 60 66 40 59 66 40 59 65 
41 60 66 41 60 66 41 60 66 41 60 66 41 60 66 41 60 66 41 60 66 41 60 66 41 60 66 41 60 66 41 60 66 40 59 65 41 60 66 41 60 66 41 60 66 41 60 66 41 60 66 40 59 65 41 58 65 42 59 66 40 59 65 41 60 66 42 61 67 41 60 66 41 60 66 41 60 66 41 60 66 41 60 66 41 60 66 40 59 65 41 60 66 40 59 65 41 60 66 41 60 66 41 60 66 40 59 65 41 60 66 41 60 66 41 60 66 40 59 65 41 60 66 40 59 65 41 60 66 41 60 66 41 60 66 41 60 66 41 60 66 42 61 67 41 60 66 41 60 66 41 60 66 41 60 66 41 60 66 42 61 67 41 60 66 42 61 67 40 59 65 40 59 65 41 60 66 41 60 66 41 60 66 41 60 66 41 60 66 41 60 66 40 59 65 41 60 66 42 61 67 41 60 66 40 59 65 41 60 66 40 59 65 41 60 66 40 59 65 40 59 65 42 59 66 41 60 66 40 59 65 40 57 64 40 59 65 40 59 65 40 59 65 40 59 65 41 60 66 40 59 65 41 60 66 40 59 65 41 60 66 40 59 65 40 59 65 42 61 67 41 58 65 40 59 65 42 59 66 41 60 66 40 59 65 41 60 66 41 60 66 42 61 67 42 61 67 41 60 66 
40 59 65 40 59 65 40 59 65 41 60 66 40 59 65 40 59 65 40 59 65 41 60 66 40 59 65 41 60 66 41 60 66 41 60 66 41 60 66 41 60 66 40 59 65 41 60 66 40 59 65 41 60 66 41 60 66 41 60 66 40 59 65 41 60 66 41 60 66 41 60 66 41 60 66 41 60 66 41 60 66 43 62 68 41 60 66 40 59 65 40 59 65 41 60 66 41 60 66 41 60 66 40 59 65 41 60 66 42 61 67 41 60 66 41 60 66 40 59 65 41 60 66 41 60 66 41 60 66 42 61 67 41 60 66 40 59 65 42 61 67 41 60 66 41 60 66 39 58 64 41 60 66 41 60 66 40 59 65 41 60 66 40 59 65 41 60 66 41 60 66 40 59 65 40 59 65 40 59 65 40 59 65 41 60 66 41 60 66 41 60 66 40 59 65 41 60 66 41 60 66 41 60 66 41 60 66 41 60 66 41 60 66 40 59 65 42 61 67 40 59 65 42 59 66 41 60 66 40 59 65 42 59 66 40 59 65 41 60 66 40 59 65 41 60 66 41 60 66 40 59 65 40 59 65 41 60 66 40 59 65 39 58 64 41 60 66 41 60 66 41 60 66 41 60 66 40 59 65 40 59 65 41 60 66 41 60 66 42 61 67 41 60 66 41 60 66 41 60 66 
40 59 65 41 60 66 41 60 66 41 60 66 41 60 66 42 61 67 41 60 66 41 60 66 41 60 66 41 60 66 41 60 66 41 60 66 41 60 66 41 60 66 40 59 65 41 60 66 41 60 66 40 59 65 40 59 65 40 59 65 41 60 66 41 60 66 41 60 66 40 59 65 41 60 66 40 59 65 41 60 66 40 59 65 41 60 66 41 60 66 41 60 66 40 59 65 41 60 66 42 61 67 41 60 66 42 61 67 41 60 66 41 60 66 41 60 66 41 60 66 41 60 66 40 59 65 41 60 66 41 60 66 40 59 65 40 59 65 41 60 66 41 60 66 41 60 66 41 60 66 41 60 66 41 60 66 40 59 65 41 60 66 41 60 66 40 59 65 41 60 66 40 59 65 41 60 66 40 59 63 41 60 64 41 60 66 40 59 65 41 60 66 41 60 66 41 60 66 41 60 66 41 60 66 41 60 66 41 60 66 41 60 66 40 59 65 41 60 66 41 60 66 41 60 66 40 59 65 41 60 66 40 59 65 41 60 66 40 59 65 41 60 66 40 59 65 41 60 66 40 59 65 40 59 65 41 60 66 41 60 66 41 60 66 41 60 66 41 60 66 42 61 67 41 60 66 40 59 65 40 59 65 41 60 66 41 60 66 41 60 66 41 60 66 40 59 65 41 60 66 
41 60 66 41 60 66 41 60 66 40 59 65 42 61 67 41 60 66 40 59 65 41 60 66 41 60 66 40 59 65 41 60 66 41 60 66 40 59 65 41 60 66 41 60 66 40 59 65 40 59 65 41 60 66 41 60 66 41 60 66 40 59 65 41 60 66 41 60 66 40 59 65 40 59 65 40 59 65 41 60 66 41 60 66 41 60 66 41 60 66 41 60 66 41 60 66 40 59 65 41 60 66 41 60 66 41 60 66 41 60 66 41 60 66 41 60 66 41 60 66 40 59 65 40 59 65 41 60 66 41 60 66 41 60 66 41 60 66 39 58 64 41 60 66 41 60 66 41 60 66 40 59 65 41 60 66 41 60 66 41 60 66 41 60 66 40 59 65 41 60 66 40 59 65 40 59 65 40 59 65 41 60 66 41 60 66 41 60 66 41 60 66 42 61 67 41 60 66 41 60 66 41 60 66 42 61 67 41 60 66 41 60 66 41 60 66 40 59 65 41 60 66 41 60 66 41 60 66 42 61 67 41 60 66 41 60 66 41 60 66 40 59 65 41 60 66 40 59 65 41 60 66 40 59 65 39 58 64 40 59 65 41 60 66 40 59 65 41 60 66 41 60 66 40 59 65 41 60 66 41 60 66 40 59 65 41 60 66 40 59 65 41 60 66 41 60 66 41 60 66 
40 59 65 41 60 66 42 61 67 42 61 67 41 60 66 41 60 66 40 59 65 41 60 66 40 59 65 41 60 66 41 60 66 41 60 66 41 60 66 40 59 65 41 60 66 41 60 66 41 60 66 40 59 65 41 60 66 41 60 66 41 60 66 40 59 65 41 60 66 40 59 65 40 59 65 40 59 65 40 59 65 41 60 66 40 59 65 41 60 66 40 59 65 41 60 66 40 59 65 41 60 66 41 60 66 40 59 65 41 60 66 41 60 66 41 60 66 41 60 66 41 60 66 41 60 66 40 59 65 41 60 66 40 59 65 41 60 66 40 59 65 41 60 66 40 59 65 40 59 65 40 59 65 40 59 65 40 59 65 41 60 66 41 60 66 41 60 66 40 59 65 40 59 65 40 59 65 40 59 65 40 59 65 42 61 67 40 59 65 40 59 65 40 59 65 40 59 65 41 60 66 40 59 65 41 60 66 41 60 66 40 59 65 40 59 65 41 60 66 41 60 66 41 60 66 41 60 66 41 60 66 42 61 67 40 59 65 40 59 65 40 59 65 40 59 65 41 60 66 40 59 65 40 59 65 41 60 66 41 60 66 41 60 66 41 60 66 40 59 65 41 60 66 41 60 66 40 59 65 41 60 66 40 59 65 41 60 66 41 60 66 40 59 65 41 60 66 41 60 66 
42 61 67 41 60 66 40 59 65 40 59 65 40 59 65 41 60 66 41 60 66 41 60 66 40 59 65 41 60 66 41 60 66 40 59 65 41 60 66 40 59 65 40 59 65 42 61 67 40 59 65 41 60 66 40 59 65 40 59 65 41 60 66 42 61 67 41 60 66 41 60 66 40 59 65 40 59 65 42 61 67 42 61 67 40 59 65 41 60 66 41 60 66 40 59 65 40 59 65 41 60 66 41 60 66 41 60 66 41 60 66 41 60 66 40 59 65 41 60 66 41 60 66 41 60 66 41 60 66 41 60 66 40 59 65 41 60 66 40 59 65 41 60 66 41 60 66 40 59 65 40 59 65 41 60 66 40 59 65 41 60 66 41 60 66 40 59 65 40 59 65 41 60 66 41 60 66 40 59 65 41 60 66 42 61 67 40 59 65 40 59 65 41 60 66 39 58 64 41 60 66 40 59 65 40 59 65 41 60 66 41 60 66 41 60 66 41 60 66 40 59 65 41 60 66 41 60 66 41 60 66 40 59 65 41 60 66 40 59 65 41 60 66 41 60 66 40 59 65 41 60 66 41 60 66 41 60 66 41 60 66 40 59 65 41 60 66 40 59 65 41 60 66 41 60 66 40 59 65 40 59 65 39 58 64 40 59 65 41 60 66 40 59 65 40 59 65 41 60 66 
41 60 66 41 60 66 41 60 66 40 59 65 41 60 66 41 60 66 41 60 66 41 60 66 41 60 66 40 59 65 41 60 66 40 59 65 40 59 65 40 59 65 41 60 66 41 60 66 41 60 66 41 60 66 41 60 66 40 59 65 40 59 65 40 59 65 41 60 66 41 60 66 40 59 65 40 59 65 41 60 66 40 59 65 40 59 65 41 60 66 41 60 66 40 59 65 40 59 65 41 60 66 40 59 65 40 59 65 40 59 65 40 59 65 40 59 65 41 60 66 40 59 65 42 61 67 39 58 64 41 60 66 41 60 66 40 59 65 41 60 66 40 59 65 41 60 66 41 60 66 41 60 66 40 59 65 40 59 65 42 61 67 41 60 66 41 60 66 40 59 65 40 59 65 41 60 66 40 59 65 40 59 65 42 61 67 41 60 66 41 60 66 40 59 65 40 59 65 41 60 66 41 60 66 41 60 66 40 59 65 40 59 65 41 60 66 41 60 66 40 59 65 41 60 66 41 60 66 40 59 65 40 59 65 39 58 64 40 59 65 40 59 65 40 59 65 40 59 65 41 60 66 41 60 66 40 59 65 40 59 65 41 60 66 40 59 65 41 60 66 40 59 65 40 59 65 41 60 66 41 60 66 41 60 66 40 59 65 41 60 66 40 59 65 40 59 65 41 60 66 
40 59 65 40 59 65 41 60 66 40 59 65 40 59 65 41 60 66 41 60 66 41 60 66 41 60 66 40 59 65 42 61 67 41 60 66 41 60 66 40 59 65 40 59 65 40 59 65 41 60 66 41 60 66 41 60 66 41 60 66 40 59 65 40 59 65 40 59 65 41 60 66 41 60 66 40 59 65 40 59 65 40 59 65 41 60 66 41 60 66 41 60 66 41 60 66 40 59 65 41 60 66 41 60 66 40 59 65 41 60 66 41 60 66 41 60 66 41 60 66 41 60 66 40 59 65 41 60 66 41 60 66 40 59 65 41 60 66 41 60 66 40 59 65 41 60 66 42 61 67 41 60 66 41 60 66 40 59 65 40 59 65 41 60 66 40 59 65 41 60 66 40 59 65 41 60 66 40 59 65 40 59 65 40 59 65 41 60 66 41 60 66 41 60 66 40 59 65 41 60 66 40 59 65 41 60 66 41 60 66 40 59 65 41 60 66 41 60 66 40 59 65 40 59 65 42 61 67 41 60 66 41 60 66 40 59 65 40 59 65 40 59 65 40 59 65 41 60 66 40 59 65 41 60 66 41 60 66 40 59 65 41 60 66 40 59 65 40 59 65 41 60 66 40 59 65 40 59 65 41 60 66 40 59 65 40 59 65 40 59 65 40 59 65 40 59 65 40 59 65 
41 60 66 40 59 65 41 60 66 41 60 66 40 59 65 41 60 66 41 60 66 41 60 66 41 60 66 41 60 66 40 59 65 39 58 64 40 59 65 41 60 66 40 59 65 40 59 65 40 59 65 40 59 65 40 59 65 41 60 66 40 59 65 41 60 66 41 60 66 41 60 66 39 58 64 41 60 66 40 59 65 40 59 65 41 60 66 40 59 65 40 59 65 41 60 66 41 60 66 41 60 66 41 60 66 40 59 65 40 59 65 41 60 66 41 60 66 41 60 66 41 60 66 41 60 66 40 59 65 41 60 66 41 60 66 41 60 66 41 60 66 41 60 66 41 60 66 40 59 65 40 59 65 41 60 66 40 59 65 40 59 65 41 60 66 41 60 66 40 59 65 42 61 67 41 60 66 40 59 65 40 59 65 41 60 66 41 60 66 40 59 65 41 60 66 40 59 65 40 59 65 41 60 66 41 60 66 40 59 65 41 60 66 40 59 65 40 59 65 41 60 66 41 60 66 40 59 65 41 60 66 41 60 66 40 59 65 41 60 66 41 60 66 41 60 66 39 58 64 41 60 66 41 60 66 41 60 66 42 61 67 40 59 65 41 60 66 42 61 67 41 60 66 41 60 66 40 59 65 39 58 64 40 59 65 41 60 66 40 59 65 40 59 65 41 60 66 40 59 65 
40 59 65 41 60 66 41 60 66 40 59 65 40 59 65 41 60 66 41 60 66 40 59 65 41 60 66 40 59 65 39 58 64 40 59 65 40 59 65 41 60 66 41 60 66 41 60 66 40 59 65 40 59 65 40 59 65 41 60 66 41 60 66 40 59 65 39 58 64 40 59 65 41 60 66 40 59 65 40 59 65 41 60 66 39 58 64 40 59 65 42 61 67 40 59 65 41 60 66 41 60 66 41 60 66 41 60 66 40 59 65 41 60 66 40 59 65 41 60 66 41 60 66 40 59 65 40 59 65 41 60 66 41 60 66 41 60 66 40 59 65 41 60 66 40 59 65 41 60 66 41 60 66 40 59 65 39 58 64 41 60 66 41 60 66 41 60 66 40 59 63 39 58 64 40 59 65 41 60 66 40 59 65 41 60 66 40 59 65 40 59 63 41 60 66 41 60 66 41 60 66 41 60 66 41 60 66 40 59 65 40 59 65 41 60 66 41 60 66 41 60 66 40 59 65 40 59 65 40 59 65 41 60 66 41 60 66 40 59 65 40 59 65 41 60 66 40 59 65 40 59 65 41 60 66 40 59 65 40 59 65 41 60 66 40 59 65 40 59 65 41 60 66 41 60 66 40 59 65 41 60 66 40 59 65 41 60 66 41 60 66 41 60 66 41 60 66 40 59 65 
40 59 65 41 60 66 40 59 65 41 60 66 40 59 65 41 60 66 40 59 65 40 59 65 41 60 66 41 60 66 42 61 67 41 60 66 39 58 64 39 58 64 40 59 65 40 59 65 40 59 65 41 60 66 39 58 64 41 60 66 40 59 65 40 59 65 41 60 66 40 59 65 41 60 66 39 58 64 40 59 65 40 59 65 39 58 64 41 60 66 41 60 66 41 60 66 40 59 65 40 59 65 41 60 66 40 59 65 40 59 65 41 60 66 41 60 66 41 60 66 41 60 66 41 60 66 40 59 65 41 60 66 40 59 65 40 59 65 40 59 65 40 59 65 40 59 65 40 59 65 40 59 65 39 58 64 40 59 65 41 60 66 40 59 65 41 60 66 39 58 64 40 59 65 41 60 66 41 60 66 40 59 65 41 60 66 41 60 66 41 60 66 40 59 65 40 59 63 40 59 65 40 59 65 41 60 64 42 61 67 41 60 66 40 59 65 41 60 66 41 60 66 40 59 65 41 60 66 40 59 65 41 60 66 42 61 67 40 59 65 40 59 65 41 60 66 41 60 66 41 60 66 40 59 65 41 60 66 40 59 65 40 59 65 41 60 66 41 60 66 40 59 65 40 59 65 40 59 65 40 59 65 41 60 66 40 59 65 40 59 65 41 58 65 40 59 65 40 59 65 
40 59 65 40 59 65 41 60 66 41 60 66 40 59 65 41 60 66 41 60 66 41 60 66 41 60 66 39 58 64 41 60 66 41 60 66 41 60 66 41 60 66 41 60 66 40 59 65 41 60 66 39 58 64 41 60 66 41 60 66 40 59 65 41 60 66 40 59 65 41 60 66 40 59 65 40 59 65 41 60 66 41 60 66 40 59 65 40 59 65 40 59 65 40 59 65 40 59 65 40 59 65 40 59 65 41 60 66 40 59 65 39 58 64 41 60 66 39 58 64 40 59 65 40 59 65 40 59 65 40 59 65 40 59 65 41 60 66 41 60 66 41 60 66 40 59 65 41 60 66 39 58 64 40 59 65 41 60 66 41 60 66 40 59 65 41 60 66 41 60 66 40 59 65 41 60 66 40 59 65 40 59 65 41 60 66 41 60 66 40 59 65 40 59 65 40 59 65 40 59 65 41 60 66 40 59 65 40 59 65 41 60 66 41 60 66 41 60 66 40 59 65 40 59 65 40 59 65 40 59 65 41 60 66 41 60 66 41 60 66 40 59 65 40 59 65 40 59 65 41 60 66 41 60 66 40 59 65 40 59 65 41 60 66 41 60 66 40 59 65 41 60 66 40 59 65 40 59 65 40 59 65 40 59 65 40 59 65 40 59 65 41 60 66 40 61 66 41 60 66 
40 59 65 41 60 66 41 60 66 41 60 66 40 59 65 40 59 65 40 59 65 40 59 65 40 59 65 40 59 65 41 60 66 41 60 66 40 59 65 39 58 64 40 59 65 40 59 65 40 59 65 40 59 65 41 60 66 41 60 66 40 59 65 41 60 66 41 60 66 40 59 65 40 59 65 40 59 65 40 59 65 41 60 66 41 60 66 39 58 64 41 60 66 40 59 65 40 59 65 39 58 64 41 60 66 41 60 66 40 59 65 40 59 65 41 60 66 40 59 65 40 59 65 40 59 65 40 59 65 41 60 66 41 60 66 40 59 65 40 59 65 40 59 65 40 59 65 41 60 66 40 59 65 40 59 65 40 59 65 40 59 65 40 59 65 41 60 66 40 59 65 40 59 65 40 59 65 41 60 66 40 59 65 40 59 65 41 60 66 40 59 65 40 59 65 41 60 66 40 59 65 41 60 66 41 60 66 40 59 65 40 59 65 42 61 67 40 59 65 40 59 65 41 60 66 41 60 66 40 59 65 41 60 66 40 59 65 41 60 66 40 59 65 41 60 66 40 59 65 39 58 64 41 60 66 40 59 65 40 59 65 42 61 67 40 59 65 40 59 65 40 59 65 39 58 64 40 59 65 41 60 66 39 58 64 40 59 65 40 59 65 40 59 65 40 59 65 40 59 65 
39 58 64 40 59 65 41 60 66 40 59 65 41 60 66 41 60 66 41 60 66 41 60 66 41 60 66 40 59 65 41 60 66 40 59 65 41 60 66 41 60 66 40 59 65 40 59 65 40 59 65 41 60 66 40 59 65 40 59 65 40 59 65 41 60 66 40 59 65 41 60 66 40 59 65 40 59 65 41 60 66 40 59 65 40 59 65 40 59 65 40 59 65 41 60 66 40 59 65 39 58 64 41 60 66 40 59 65 41 60 66 40 59 65 40 59 65 40 59 65 42 61 67 40 59 65 40 59 65 41 60 66 41 60 66 39 58 64 41 60 66 40 59 65 40 59 65 41 60 66 40 59 65 41 60 66 40 59 65 40 59 65 41 60 66 41 60 66 40 59 65 41 60 66 40 59 65 40 59 65 40 59 65 40 59 65 40 59 65 39 58 64 41 60 66 40 59 65 39 58 64 39 58 64 41 60 66 41 60 66 40 59 65 40 59 65 39 58 64 41 60 66 40 59 65 40 59 65 41 60 66 41 60 66 41 60 66 41 60 66 41 60 66 40 59 65 40 59 65 40 59 65 41 60 66 40 59 65 40 59 65 41 60 66 40 59 65 40 59 65 40 59 65 40 59 65 41 60 66 40 59 65 41 60 66 41 60 66 40 59 65 40 59 65 40 59 65 40 59 65 
40 59 65 41 60 66 40 59 65 40 59 65 40 59 65 40 59 65 40 59 65 40 59 65 40 59 65 39 58 64 40 59 65 41 60 66 41 60 66 40 59 65 40 59 65 40 59 65 40 59 65 39 58 64 40 59 65 41 60 66 41 60 66 40 59 65 40 59 65 40 59 65 39 58 64 40 59 65 41 60 66 41 60 66 40 59 65 41 60 66 40 59 65 40 59 65 40 59 65 40 59 65 40 59 65 40 59 65 40 59 65 40 59 65 41 60 66 41 60 66 41 60 66 41 60 66 41 60 66 41 60 66 41 60 66 41 60 66 41 60 66 40 59 65 41 60 66 40 59 65 41 60 66 40 59 65 41 60 66 41 60 66 40 59 65 41 60 66 41 60 66 39 58 64 40 59 65 41 60 66 40 59 65 40 59 65 40 59 65 40 59 65 40 59 65 40 59 65 41 60 66 41 60 66 40 59 65 40 59 65 41 60 66 40 59 65 41 60 66 41 60 66 41 60 66 41 60 66 41 60 66 41 60 66 41 60 66 40 59 65 41 60 66 40 59 65 41 60 66 40 59 65 40 59 65 40 59 65 41 60 66 39 58 64 41 60 66 41 60 66 40 59 65 41 60 66 40 59 65 40 59 65 40 59 65 40 59 65 40 59 65 40 59 65 40 59 65 40 59 65 
41 60 66 40 59 65 41 60 66 41 60 66 40 59 65 41 60 66 41 60 66 40 59 65 40 59 65 40 59 65 41 60 66 40 59 65 40 59 65 41 60 66 40 59 65 40 59 65 40 59 65 40 59 65 40 59 65 40 59 65 40 59 65 40 59 65 40 59 65 40 59 65 40 59 65 41 60 66 39 58 64 40 59 65 40 59 65 41 60 66 39 58 64 40 59 65 40 59 65 41 60 66 41 60 66 41 60 66 40 59 65 41 60 66 40 59 65 40 59 65 41 60 66 41 60 66 41 60 66 39 58 64 40 59 65 41 60 66 40 59 65 40 59 65 41 60 66 40 59 65 40 59 65 41 60 66 40 59 65 40 59 65 40 59 65 41 60 66 40 59 65 40 59 65 40 59 65 41 60 66 41 60 66 40 59 65 40 59 65 40 59 65 39 58 64 40 59 65 40 59 65 41 60 66 40 59 65 40 59 65 40 59 65 40 59 65 40 59 65 40 59 65 40 59 65 40 59 65 40 59 65 39 58 64 41 60 66 40 59 65 41 60 66 40 59 65 40 59 65 40 59 65 40 59 65 40 59 65 40 59 65 40 59 65 41 60 66 40 59 65 40 59 65 41 60 66 41 60 66 40 59 65 41 60 66 40 59 65 41 60 66 39 58 64 41 60 66 41 60 66 
40 59 65 41 60 66 41 60 66 40 59 65 41 60 66 40 59 65 40 59 65 40 59 65 40 59 65 40 59 65 41 60 66 40 59 65 40 59 65 39 58 64 40 59 65 41 60 66 39 58 64 40 59 65 40 59 65 41 60 66 40 59 65 41 60 66 40 59 65 40 59 65 40 59 65 41 60 66 41 60 66 40 59 65 40 59 65 40 59 65 39 58 64 40 59 65 40 59 65 40 59 65 40 59 65 39 58 64 41 60 66 39 58 64 40 59 65 41 60 66 40 59 65 39 58 64 40 59 65 40 59 65 40 59 65 41 60 66 40 59 65 40 59 65 40 59 65 41 60 66 40 59 65 41 60 66 40 59 65 41 60 66 39 58 64 41 60 66 41 60 66 40 59 65 40 59 65 40 59 65 41 60 66 39 58 64 40 59 65 40 59 65 40 59 65 39 58 64 40 59 65 40 59 65 40 59 65 41 60 66 40 59 65 41 60 66 40 59 65 41 60 66 41 60 66 40 59 65 41 60 66 41 60 66 40 59 65 40 59 65 40 59 65 40 59 65 40 59 65 41 60 66 40 59 65 40 59 65 40 59 65 40 59 65 40 59 65 39 58 64 40 59 65 41 60 66 40 59 65 40 59 65 40 59 65 40 59 65 40 59 65 40 59 65 40 59 65 41 60 66 
40 59 65 40 59 65 41 60 66 40 59 65 40 59 65 40 59 65 41 60 66 41 60 66 40 59 65 40 59 65 41 60 66 40 59 65 40 59 65 40 59 65 40 59 65 40 59 65 40 59 65 40 59 65 40 59 65 41 60 66 40 59 65 41 60 66 40 59 65 40 59 65 40 59 65 40 59 65 40 59 65 39 58 64 41 60 66 39 58 64 40 59 65 41 60 66 40 59 65 39 58 64 40 59 65 41 60 66 41 60 66 40 59 65 40 59 65 40 59 65 40 59 65 41 60 66 40 59 65 40 59 65 41 60 66 41 60 66 40 59 65 41 60 66 40 59 65 40 59 65 40 59 65 39 58 64 40 59 65 41 60 66 42 61 67 40 59 65 40 59 65 41 60 66 42 61 67 41 60 66 40 59 65 41 60 66 40 59 65 41 60 66 39 58 64 40 59 65 40 59 65 40 59 63 41 60 66 39 58 64 41 60 64 41 60 66 40 59 65 40 59 65 41 60 66 40 59 65 40 59 65 40 59 65 41 60 66 41 60 66 40 59 65 40 59 65 40 59 65 41 60 66 39 58 64 40 59 65 40 59 65 40 59 65 40 59 65 40 59 65 40 59 65 40 59 65 41 60 66 40 59 65 40 59 65 41 60 66 42 59 66 40 59 65 40 59 65 41 58 65 
39 58 64 41 60 66 40 59 65 41 60 66 40 59 65 39 58 64 39 58 64 40 59 65 40 59 65 41 60 66 40 59 65 42 61 67 40 59 65 40 59 65 40 59 65 40 59 65 40 59 65 41 60 66 40 59 65 41 60 66 40 59 65 40 59 65 40 59 65 40 59 65 40 59 65 40 59 65 40 59 65 40 59 65 40 59 65 40 59 65 40 59 65 40 59 65 41 60 66 41 60 66 40 59 65 40 59 65 40 59 65 40 59 65 40 59 65 40 59 65 40 59 65 40 59 65 40 59 65 39 58 64 40 59 65 40 59 65 40 59 65 40 59 65 40 59 65 40 59 65 40 59 65 39 58 64 40 59 65 41 60 66 40 59 65 40 59 65 41 60 66 40 59 65 40 59 65 40 59 65 40 59 65 41 60 66 39 58 64 40 59 65 41 60 66 40 59 65 41 60 66 40 59 65 39 58 64 42 61 67 40 59 65 41 60 66 41 60 66 41 60 66 40 59 65 40 59 65 41 60 66 40 59 65 40 59 65 41 60 66 40 59 65 40 59 65 40 59 65 40 59 65 40 59 65 39 58 64 39 58 64 42 61 67 40 59 65 40 59 65 39 58 64 40 59 65 41 60 66 40 59 65 40 59 65 39 58 64 40 59 65 41 60 66 40 59 65 40 59 65 
40 59 65 40 59 65 40 59 65 41 60 66 40 59 65 40 59 65 40 59 65 41 60 66 40 59 65 41 60 66 40 59 65 40 59 65 40 59 65 39 58 64 40 59 65 40 59 65 40 59 65 42 61 67 40 59 65 40 59 65 40 59 65 41 60 66 40 59 65 40 59 65 40 59 65 40 59 65 40 59 65 40 59 65 40 59 65 40 59 65 40 59 65 40 59 65 40 59 65 39 58 64 40 59 65 41 60 66 43 62 68 40 59 65 40 59 65 40 59 65 40 59 65 40 59 65 40 59 65 40 59 65 39 58 64 41 60 66 42 61 67 39 58 64 40 59 65 41 60 66 40 59 65 40 59 65 39 58 64 40 59 65 40 59 65 40 59 65 41 60 66 40 59 65 40 59 65 40 59 65 40 59 65 40 59 65 40 59 65 40 59 65 40 59 65 40 59 65 41 60 66 40 59 65 41 60 66 40 59 65 40 59 65 40 59 65 40 59 65 39 58 64 41 60 66 39 58 64 40 59 65 40 59 65 41 60 66 40 59 65 40 59 65 40 59 65 40 59 65 40 59 65 40 59 65 40 59 65 40 59 65 42 61 67 41 60 66 40 59 65 40 59 65 40 59 65 40 59 65 40 59 65 41 60 66 41 60 66 41 60 66 41 60 66 40 59 63 40 59 65 
