P3
100 50
255
54 34 33 54 34 33 54 34 33 53 33 32 54 34 33 53 33 32 53 33 32 53 33 32 54 34 33 53 33 32 53 33 32 54 34 33 54 34 33 54 34 33 52 32 31 53 33 32 53 33 32 54 34 33 53 33 32 54 34 33 53 33 32 55 35 34 53 33 32 53 33 32 54 34 33 54 34 33 52 32 31 54 34 33 54 34 33 54 34 33 54 34 33 54 34 33 54 34 33 54 34 33 53 33 32 54 34 33 54 34 33 54 34 33 53 33 32 54 34 33 54 34 33 54 34 33 54 34 33 54 34 33 53 33 32 54 34 33 53 33 32 54 34 33 54 34 33 54 34 33 53 33 32 54 34 33 54 34 33 53 33 32 52 32 31 54 34 33 54 34 33 54 34 33 54 34 33 54 34 33 53 33 32 53 33 32 54 34 33 54 34 33 54 34 33 54 34 33 53 33 32 53 33 32 53 33 32 53 33 32 55 35 34 53 33 32 54 34 33 52 32 31 55 35 34 54 34 33 54 34 33 54 34 33 53 33 32 54 34 33 54 34 33 55 35 34 54 34 33 54 34 33 54 34 33 54 34 33 54 34 33 53 33 32 54 34 33 54 34 33 54 34 33 54 34 33 54 34 33 53 33 32 54 34 33 54 34 33 53 33 32 54 34 33 53 33 32 53 33 32 
53 33 32 53 33 32 53 33 32 54 34 33 54 34 33 54 34 33 53 33 32 53 33 32 53 33 32 53 33 32 53 33 32 54 34 33 54 34 33 54 34 33 54 34 33 54 34 33 55 35 34 54 34 33 53 33 32 54 34 33 54 34 33 54 34 33 54 34 33 54 34 33 54 34 33 54 34 33 54 34 33 54 34 33 54 34 33 54 34 33 54 34 33 54 34 33 54 34 33 54 34 33 53 33 32 54 34 33 53 33 32 53 33 32 53 33 32 54 34 33 54 34 33 54 34 33 53 33 32 54 34 33 53 33 32 54 34 33 53 33 32 54 34 33 53 33 32 54 34 33 53 33 32 54 34 33 54 34 33 53 33 32 54 34 33 53 33 32 53 33 32 53 33 32 53 33 32 53 33 32 54 34 33 54 34 33 54 34 33 54 34 33 54 34 33 54 34 33 54 34 33 54 34 33 54 34 33 54 34 33 53 33 32 53 33 32 53 33 32 54 34 33 53 33 32 53 33 32 54 34 33 53 33 32 53 33 32 54 34 33 54 34 33 54 34 33 54 34 33 54 34 33 53 33 32 54 34 33 54 34 33 54 34 33 53 33 32 54 34 33 53 33 32 54 34 33 54 34 33 54 34 33 54 34 33 54 34 33 54 34 33 54 34 33 54 34 33 54 34 33 
54 34 33 55 35 34 54 34 33 54 34 33 54 34 33 54 34 33 53 33 32 54 34 33 54 34 33 54 34 33 53 33 32 54 34 33 54 34 33 54 34 33 53 33 32 53 33 32 53 33 32 54 34 33 54 34 33 53 33 32 54 34 33 53 33 32 54 34 33 54 34 33 54 34 33 54 34 33 54 34 33 54 34 33 53 33 32 54 34 33 52 32 31 54 34 33 54 34 33 54 34 33 53 33 32 53 33 32 54 34 33 54 34 33 53 33 32 54 34 33 54 34 33 54 34 33 54 34 33 53 33 32 55 35 34 54 34 33 54 34 33 54 34 33 55 35 34 54 34 33 54 34 33 54 34 33 54 34 33 54 34 33 53 33 32 53 33 32 54 34 33 53 33 32 53 33 32 54 34 33 54 34 33 53 33 32 54 34 33 54 34 33 54 34 33 54 34 33 54 34 33 53 33 32 54 34 33 54 34 33 53 33 32 54 34 33 54 34 33 54 34 33 53 33 32 54 34 33 54 34 33 55 35 34 54 34 33 54 34 33 53 33 32 54 34 33 55 35 34 54 34 33 54 34 33 54 34 33 54 34 33 54 34 33 55 35 34 54 34 33 54 34 33 54 34 33 53 33 32 54 34 33 53 33 32 54 34 33 54 34 33 54 34 33 54 34 33 54 34 33 
52 32 31 53 33 32 52 32 31 52 32 31 54 34 33 54 34 33 54 34 33 53 33 32 54 34 33 53 33 32 54 34 33 54 34 33 53 33 32 53 33 32 54 34 33 54 34 33 54 34 33 54 34 33 52 32 31 54 34 33 54 34 33 53 33 32 53 33 32 53 33 32 54 34 33 54 34 33 54 34 33 54 34 33 55 35 34 53 33 32 53 33 32 53 33 32 52 32 31 53 33 32 54 34 33 54 34 33 54 34 33 54 34 33 54 34 33 54 34 33 54 34 33 54 34 33 53 33 32 55 35 34 54 34 33 54 34 33 54 34 33 54 34 33 54 34 33 53 33 32 52 32 31 54 34 33 53 33 32 54 34 33 54 34 33 53 33 32 54 34 33 53 33 32 53 33 32 53 33 32 54 34 33 54 34 33 53 33 32 53 33 32 53 33 32 53 33 32 54 34 33 54 34 33 53 33 32 53 33 32 54 34 33 53 33 32 54 34 33 54 34 33 54 34 33 53 33 32 55 35 34 53 33 32 54 34 33 55 35 34 53 33 32 54 34 33 53 33 32 54 34 33 53 33 32 54 34 33 54 34 33 54 34 33 54 34 33 52 32 31 54 34 33 54 34 33 53 33 32 54 34 33 53 33 32 54 34 33 54 34 33 54 34 33 54 34 33 54 34 33 
54 34 33 54 34 33 54 34 33 54 34 33 53 33 32 53 33 32 54 34 33 54 34 33 54 34 33 54 34 33 54 34 33 53 33 32 54 34 33 53 33 32 54 34 33 54 34 33 54 34 33 54 34 33 54 34 33 54 34 33 55 35 34 53 33 32 54 34 33 54 34 33 53 33 32 53 33 32 54 34 33 53 33 32 53 33 32 53 33 32 54 34 33 54 34 33 54 34 33 54 34 33 53 33 32 54 34 33 53 33 32 54 34 33 53 33 32 54 34 33 54 34 33 54 34 33 54 34 33 53 33 32 54 34 33 54 34 33 54 34 33 53 33 32 53 33 32 54 34 33 54 34 33 53 33 32 54 34 33 54 34 33 53 33 32 54 34 33 54 34 33 52 32 31 53 33 32 56 36 35 54 34 33 54 34 33 54 34 33 54 34 33 54 34 33 54 34 33 54 34 33 54 34 33 53 33 32 53 33 32 54 34 33 54 34 33 53 33 32 53 33 32 54 34 33 54 34 33 53 33 32 54 34 33 53 33 32 53 33 32 54 34 33 54 34 33 54 34 33 54 34 33 54 34 33 54 34 33 53 33 32 54 34 33 54 34 33 54 34 33 54 34 33 54 34 33 54 34 33 54 34 33 54 34 33 54 34 33 54 34 33 53 33 32 53 33 32 53 33 32 
54 34 33 54 34 33 53 33 32 53 33 32 54 34 33 55 35 34 53 33 32 53 33 32 53 33 32 54 34 33 53 33 32 53 33 32 53 33 32 54 34 33 53 33 32 54 34 33 54 34 33 54 34 33 54 34 33 52 32 31 53 33 32 54 34 33 54 34 33 52 32 31 54 34 33 54 34 33 54 34 33 53 33 32 54 34 33 54 34 33 54 34 33 53 33 32 54 34 33 52 32 31 53 33 32 54 34 33 54 34 33 54 34 33 54 34 33 54 34 33 54 34 33 54 34 33 53 33 32 54 34 33 54 34 33 53 33 32 53 33 32 54 34 33 53 33 32 54 34 33 53 33 32 54 34 33 51 31 30 54 34 33 53 33 32 54 34 33 53 33 32 54 34 33 54 34 33 54 34 33 54 34 33 53 33 32 54 34 33 54 34 33 54 34 33 54 34 33 54 34 33 53 33 32 54 34 33 54 34 33 54 34 33 53 33 32 53 33 32 54 34 33 54 34 33 53 33 32 54 34 33 53 33 32 53 33 32 54 34 33 54 34 33 54 34 33 54 34 33 54 34 33 53 33 32 53 33 32 54 34 33 54 34 33 53 33 32 54 34 33 53 33 32 54 34 33 53 33 32 53 33 32 54 34 33 53 33 32 54 34 33 53 33 32 53 33 32 53 33 32 
53 33 32 53 33 32 54 34 33 53 33 32 52 32 31 54 34 33 54 34 33 53 33 32 54 34 33 54 34 33 54 34 33 54 34 33 53 33 32 53 33 32 55 35 34 54 34 33 54 34 33 52 32 31 54 34 33 54 34 33 54 34 33 53 33 32 54 34 33 53 33 32 54 34 33 52 32 31 53 33 32 53 33 32 54 34 33 53 33 32 54 34 33 54 34 33 53 33 32 53 33 32 53 33 32 53 33 32 54 34 33 54 34 33 53 33 32 53 33 32 53 33 32 53 33 32 53 33 32 53 33 32 54 34 33 53 33 32 54 34 33 53 33 32 54 34 33 52 32 31 53 33 32 54 34 33 54 34 33 53 33 32 55 35 34 54 34 33 53 33 32 54 34 33 54 34 33 53 33 32 54 34 33 54 34 33 53 33 32 53 33 32 53 33 32 53 33 32 53 33 32 54 34 33 54 34 33 54 34 33 53 33 32 53 33 32 53 33 32 53 33 32 53 33 32 54 34 33 53 33 32 54 34 33 53 33 32 53 33 32 53 33 32 54 34 33 54 34 33 53 33 32 54 34 33 53 33 32 54 34 33 53 33 32 54 34 33 54 34 33 54 34 33 53 33 32 53 33 32 54 34 33 53 33 32 53 33 32 53 33 32 54 34 33 53 33 32 54 34 33 
53 33 32 54 34 33 53 33 32 54 34 33 54 34 33 54 34 33 55 35 34 54 34 33 54 34 33 54 34 33 54 34 33 53 33 32 53 33 32 53 33 32 54 34 33 55 35 34 54 34 33 54 34 33 53 33 32 53 33 32 54 34 33 53 33 32 54 34 33 53 33 32 54 34 33 53 33 32 54 34 33 54 34 33 53 33 32 54 34 33 53 33 32 53 33 32 55 35 34 54 34 33 54 34 33 54 34 33 54 34 33 54 34 33 54 34 33 54 34 33 54 34 33 54 34 33 53 33 32 54 34 33 55 35 34 54 34 33 54 34 33 53 33 32 53 33 32 53 33 32 54 34 33 53 33 32 54 34 33 52 32 31 54 34 33 54 34 33 53 33 32 53 33 32 53 33 32 53 33 32 54 34 33 54 34 33 54 34 33 54 34 33 54 34 33 54 34 33 54 34 33 54 34 33 54 34 33 54 34 33 52 32 31 54 34 33 53 33 32 54 34 33 53 33 32 54 34 33 54 34 33 54 34 33 53 33 32 53 33 32 54 34 33 54 34 33 53 33 32 55 35 34 54 34 33 54 34 33 53 33 32 53 33 32 53 33 32 54 34 33 54 34 33 53 33 32 53 33 32 54 34 33 53 33 32 54 34 33 54 34 33 54 34 33 53 33 32 54 34 33 
53 34 30 53 33 32 55 34 31 54 35 31 53 35 31 53 35 33 53 33 32 54 34 33 54 34 33 53 33 32 53 33 32 54 33 32 54 34 33 53 33 32 54 34 33 54 34 33 53 33 32 54 34 33 53 33 32 53 33 32 53 33 32 54 34 33 53 33 32 54 34 33 54 34 33 54 34 33 54 34 33 54 34 33 53 33 32 53 33 32 53 33 32 53 33 32 54 34 33 53 33 32 53 33 32 54 34 33 53 33 32 53 33 32 53 33 32 53 33 32 54 34 33 53 33 32 53 33 32 53 33 32 53 33 32 53 33 32 54 34 33 54 34 33 54 34 33 54 34 33 53 33 32 54 34 33 54 34 33 52 32 31 54 34 33 54 34 33 53 33 32 53 33 32 53 33 32 54 34 33 53 33 32 53 33 32 53 33 32 53 33 32 53 33 32 53 33 32 53 33 32 54 34 33 53 33 32 54 34 33 54 34 33 54 34 33 53 33 32 53 33 32 54 34 33 54 34 33 53 33 32 54 34 33 52 32 31 52 32 31 53 33 32 53 33 32 54 34 33 54 34 33 54 34 33 54 34 33 53 33 32 54 34 33 53 33 32 54 34 33 53 33 32 52 32 31 53 33 32 54 34 33 54 34 33 53 33 32 53 33 32 54 34 33 54 34 33 54 34 33 
54 34 33 53 32 31 55 34 33 54 35 31 53 33 32 53 33 32 55 34 33 53 35 33 54 34 33 54 34 33 53 33 32 53 33 32 54 34 33 53 33 32 53 33 32 54 34 33 54 34 33 54 34 33 53 33 32 54 34 33 54 34 33 53 33 32 53 33 32 53 33 32 54 34 33 54 34 33 54 34 33 52 32 31 54 34 33 54 34 33 53 33 32 54 34 33 54 34 33 53 33 32 54 34 33 53 33 32 53 33 32 54 34 33 54 34 33 53 33 32 52 32 31 54 34 33 54 34 33 53 33 32 54 34 33 53 33 32 54 34 33 54 34 33 54 34 33 53 33 32 54 34 33 54 34 33 54 34 33 54 34 33 53 33 32 54 34 33 53 33 32 54 34 33 53 33 32 53 33 32 53 33 32 53 33 32 54 34 33 53 33 32 54 34 33 53 33 32 55 35 34 52 32 31 55 35 34 53 33 32 53 33 32 54 34 33 54 34 33 54 34 33 54 34 33 53 33 32 54 34 33 54 34 33 54 34 33 54 34 33 54 34 33 52 32 31 54 34 33 54 34 33 54 34 33 53 33 32 54 34 33 53 33 32 52 32 31 54 34 33 53 33 32 53 33 32 54 34 33 54 34 33 52 32 31 54 34 33 54 34 33 55 35 34 53 33 32 54 34 33 
54 34 33 53 33 32 54 34 33 53 34 30 53 34 30 53 32 29 55 34 33 54 34 33 54 35 31 53 33 32 54 34 33 55 34 31 53 33 32 54 34 33 54 34 33 55 35 34 54 34 33 53 33 32 54 34 33 54 34 33 54 34 33 54 34 33 53 33 32 54 34 33 52 32 31 52 32 31 53 33 32 54 34 33 53 33 32 53 33 32 53 33 32 53 33 32 53 33 32 52 32 31 53 33 32 54 34 33 53 33 32 53 33 32 54 34 33 53 33 32 54 34 33 54 34 33 53 33 32 54 34 33 54 34 33 54 34 33 54 34 33 54 34 33 54 34 33 53 33 32 53 33 32 55 35 34 53 33 32 53 33 32 54 34 33 53 33 32 53 33 32 54 34 33 53 33 32 54 34 33 54 34 33 53 33 32 54 34 33 53 33 32 54 34 33 54 34 33 54 34 33 54 34 33 53 33 32 53 33 32 53 33 32 54 34 33 53 33 32 55 35 34 54 34 33 54 34 33 52 32 31 54 34 33 53 33 32 53 33 32 52 32 31 53 33 32 54 34 33 54 34 33 54 34 33 53 33 32 54 34 33 53 33 32 53 33 32 53 33 32 52 32 31 54 34 33 54 34 33 54 34 33 54 34 33 53 33 32 52 32 31 54 34 33 53 33 32 53 33 32 
17 11 11 41 25 25 53 34 30 52 33 29 54 34 33 53 33 32 53 33 32 53 33 32 54 34 33 53 33 32 54 33 30 53 33 32 53 33 32 53 33 32 53 33 32 53 33 32 54 34 33 54 34 33 54 34 33 53 33 32 53 33 32 54 34 33 53 33 32 53 33 32 53 33 32 52 32 31 53 33 32 53 33 32 51 31 30 53 33 32 53 33 32 53 33 32 54 34 33 53 33 32 52 32 31 53 33 32 53 33 32 54 34 33 53 33 32 54 34 33 52 32 31 54 34 33 54 34 33 53 33 32 53 33 32 54 34 33 53 33 32 53 33 32 53 33 32 53 33 32 54 34 33 53 33 32 53 33 32 53 33 32 53 33 32 53 33 32 54 34 33 54 34 33 52 32 31 53 33 32 54 34 33 54 34 33 54 34 33 54 34 33 54 34 33 53 33 32 53 33 32 53 33 32 53 33 32 52 32 31 52 32 31 54 34 33 54 34 33 53 33 32 54 34 33 54 34 33 54 34 33 54 34 33 53 33 32 53 33 32 54 34 33 54 34 33 54 34 33 54 34 33 53 33 32 53 33 32 54 34 33 54 34 33 53 33 32 52 32 31 53 33 32 53 33 32 52 32 31 54 34 33 53 33 32 54 34 33 53 33 32 54 34 33 53 33 32 53 33 32 
1 1 1 1 1 3 21 12 13 48 30 28 53 34 30 54 34 33 54 34 33 53 34 30 57 33 33 54 33 32 53 33 32 52 32 31 54 34 33 54 34 33 53 33 32 54 34 33 54 34 33 54 34 33 52 32 31 53 33 32 53 33 32 54 34 33 55 35 34 53 33 32 54 34 33 54 34 33 54 34 33 53 33 32 54 34 33 53 33 32 54 34 33 53 33 32 53 33 32 52 32 31 53 33 32 53 33 32 53 33 32 54 34 33 53 33 32 54 34 33 52 32 31 53 33 32 54 34 33 53 33 32 53 33 32 53 33 32 53 33 32 53 33 32 52 32 31 53 33 32 54 34 33 54 34 33 54 34 33 52 32 31 54 34 33 54 34 33 53 33 32 52 32 31 54 34 33 54 34 33 54 34 33 54 34 33 53 33 32 53 33 32 52 32 31 53 33 32 52 32 31 53 33 32 53 33 32 54 34 33 54 34 33 53 33 32 52 32 31 53 33 32 54 34 33 54 34 33 54 34 33 54 34 33 53 33 32 53 33 32 54 34 33 53 33 32 53 33 32 53 33 32 53 33 32 53 33 32 53 33 32 54 34 33 54 34 33 53 33 32 52 32 31 53 33 32 53 33 32 52 32 31 53 33 32 53 33 32 53 33 32 53 33 32 54 34 33 54 34 33 
35 19 20 7 3 4 1 1 1 3 2 0 24 14 13 47 29 29 52 33 29 54 34 33 55 34 31 54 35 29 53 33 32 54 35 31 53 33 32 53 33 32 53 33 32 54 34 33 53 33 32 53 33 32 52 32 31 53 33 32 51 31 30 51 31 30 52 32 31 54 34 33 52 32 31 52 32 31 53 33 32 54 34 33 52 32 31 53 33 32 54 34 33 53 33 32 53 33 32 54 34 33 53 33 32 54 34 33 52 32 31 55 35 34 54 34 33 54 34 33 53 33 32 54 34 33 54 34 33 54 34 33 53 33 32 54 34 33 52 32 31 54 34 33 53 33 32 53 33 32 52 32 31 53 33 32 53 33 32 54 34 33 52 32 31 53 33 32 53 33 32 53 33 32 54 34 33 55 35 34 52 32 31 53 33 32 54 34 33 52 32 31 54 34 33 53 33 32 54 34 33 52 32 31 53 33 32 53 33 32 54 34 33 53 33 32 54 34 33 53 33 32 53 33 32 53 33 32 53 33 32 54 34 33 54 34 33 54 34 33 53 33 32 54 34 33 54 34 33 54 34 33 52 32 31 54 34 33 54 34 33 53 33 32 52 32 31 52 32 31 54 34 33 54 34 33 53 33 32 54 34 33 54 34 33 53 33 32 54 34 33 53 33 32 54 34 33 53 33 32 
52 31 30 40 24 24 22 14 12 3 1 2 2 2 2 2 2 2 12 7 4 40 24 24 55 34 33 53 34 30 55 34 31 52 34 30 54 34 33 53 33 32 53 33 32 53 33 32 53 33 32 54 34 33 53 33 32 52 32 31 53 33 32 53 33 32 53 33 32 54 34 33 54 34 33 53 33 32 53 33 32 52 32 31 53 33 32 54 34 33 53 33 32 53 33 32 54 34 33 54 34 33 53 33 32 53 33 32 54 34 33 53 33 32 53 33 32 54 34 33 53 33 32 53 33 32 52 32 31 54 34 33 52 32 31 53 33 32 53 33 32 52 32 31 52 32 31 54 34 33 53 33 32 54 34 33 54 34 33 53 33 32 54 34 33 53 33 32 53 33 32 53 33 32 53 33 32 53 33 32 54 34 33 53 33 32 54 34 33 53 33 32 53 33 32 53 33 32 53 33 32 53 33 32 52 32 31 53 33 32 54 34 33 53 33 32 53 33 32 53 33 32 53 33 32 54 34 33 54 34 33 53 33 32 53 33 32 53 33 32 53 33 32 53 33 32 53 33 32 53 33 32 54 34 33 54 34 33 53 33 32 52 32 31 53 33 32 53 33 32 54 34 33 54 34 33 53 33 32 52 32 31 53 33 32 53 33 32 53 33 32 53 33 32 53 33 32 52 32 31 
51 30 29 50 28 30 53 31 33 46 26 25 24 14 15 2 2 0 1 1 3 5 3 4 22 14 12 49 31 29 53 34 28 52 33 29 53 33 32 53 33 32 52 32 31 54 34 33 54 34 33 53 33 32 54 34 33 53 33 32 54 34 33 54 34 33 53 33 32 53 33 32 54 34 33 54 34 33 53 33 32 52 32 31 53 33 32 54 34 33 53 33 32 53 33 32 52 32 31 54 34 33 53 33 32 54 34 33 53 33 32 53 33 32 53 33 32 53 33 32 53 33 32 54 34 33 53 33 32 53 33 32 53 33 32 53 33 32 54 34 33 55 35 34 53 33 32 55 35 34 54 34 33 54 34 33 54 34 33 54 34 33 53 33 32 52 32 31 54 34 33 53 33 32 53 33 32 54 34 33 53 33 32 54 34 33 53 33 32 53 33 32 52 32 31 53 33 32 52 32 31 53 33 32 53 33 32 54 34 33 53 33 32 53 33 32 54 34 33 53 33 32 53 33 32 54 34 33 54 34 33 54 34 33 53 33 32 53 33 32 54 34 33 54 34 33 53 33 32 53 33 32 54 34 33 53 33 32 54 34 33 53 33 32 54 34 33 53 33 32 53 33 32 54 34 33 53 33 32 54 34 33 54 34 33 54 34 33 53 33 32 53 33 32 54 34 33 54 34 33 
52 31 30 54 33 32 51 31 30 52 30 32 51 31 30 35 19 19 2 0 1 1 1 1 1 1 1 6 5 3 30 19 17 50 32 30 52 33 29 54 35 31 52 32 31 53 34 30 54 35 31 55 34 33 53 34 30 53 33 32 53 33 32 54 34 33 53 33 32 53 33 32 53 33 32 53 33 32 54 35 31 55 34 31 52 32 31 54 34 33 54 34 33 52 32 31 53 33 32 53 33 32 52 32 31 54 34 33 52 33 29 52 33 29 54 35 31 54 35 31 53 34 30 53 34 30 53 34 30 52 33 29 54 34 33 54 34 33 54 34 33 54 34 33 53 33 32 54 34 33 53 33 32 53 33 32 54 34 33 54 34 33 53 33 32 53 33 32 53 33 32 53 33 32 53 33 32 54 34 33 53 33 32 53 33 32 52 32 31 54 34 33 52 32 31 54 34 33 53 33 32 55 35 34 53 33 32 54 34 33 53 33 32 54 34 33 54 34 33 54 34 33 54 34 33 53 33 32 53 33 32 52 32 31 53 33 32 54 34 33 53 33 32 54 34 33 54 34 33 51 31 30 54 34 33 55 35 34 53 33 32 54 34 33 54 34 33 53 33 32 54 34 33 53 33 32 53 33 32 53 33 32 54 34 33 53 33 32 53 33 32 53 33 32 54 34 33 53 33 32 
46 25 24 50 30 29 50 29 28 50 30 29 49 29 30 10 6 5 1 1 1 1 1 1 1 1 1 0 0 0 0 2 1 10 6 5 41 25 25 53 33 32 54 34 33 53 34 30 53 33 32 54 34 33 54 35 31 53 33 32 54 33 30 55 34 31 54 35 31 53 34 30 53 33 32 53 33 32 53 33 32 54 33 32 53 33 32 53 33 32 53 33 32 53 33 32 53 33 32 53 33 32 52 32 31 53 33 32 53 34 30 54 35 31 53 34 30 54 35 31 53 34 30 53 34 30 54 35 31 54 35 31 54 34 33 53 33 32 53 33 32 52 32 31 54 34 33 54 34 33 53 33 32 53 33 32 54 34 33 53 33 32 53 33 32 54 34 33 52 32 31 53 33 32 53 33 32 52 32 31 54 34 33 53 33 32 52 32 31 54 34 33 53 33 32 53 33 32 53 33 32 53 33 32 53 33 32 53 33 32 53 33 32 53 33 32 54 34 33 53 33 32 54 34 33 52 32 31 54 34 33 54 34 33 54 34 33 53 33 32 53 33 32 52 32 31 53 33 32 53 33 32 53 33 32 55 35 34 52 32 31 53 33 32 52 32 31 54 34 33 54 34 33 53 33 32 54 34 33 53 33 32 54 34 33 52 32 31 54 34 33 53 33 32 54 34 33 53 33 32 
35 21 21 41 25 25 46 25 24 53 32 31 51 31 30 14 8 8 0 0 0 0 0 0 0 0 0 0 0 0 5 4 2 1 1 1 1 1 1 26 16 15 41 25 25 53 33 32 53 33 32 53 33 32 53 33 32 54 35 31 54 35 31 53 34 30 52 32 31 53 33 32 53 34 30 54 35 31 52 32 31 54 34 33 53 33 32 53 33 32 52 32 31 52 32 31 53 33 32 53 33 32 53 33 32 53 33 32 52 32 31 53 33 32 53 33 32 53 33 32 53 33 32 53 33 32 54 34 33 53 33 32 52 32 31 54 34 33 53 33 32 53 33 32 52 32 31 53 33 32 53 33 32 54 34 33 53 33 32 53 33 32 53 33 32 53 33 32 53 33 32 54 34 33 53 33 32 53 33 32 53 33 32 53 33 32 53 33 32 54 34 33 54 34 33 53 33 32 54 34 33 53 33 32 53 33 32 53 33 32 53 33 32 53 33 32 52 32 31 54 34 33 53 33 32 53 33 32 54 34 33 54 34 33 53 33 32 54 34 33 53 33 32 54 34 33 53 33 32 53 33 32 54 34 33 54 34 33 53 33 32 54 34 33 53 33 32 54 34 33 53 33 32 53 33 32 53 33 32 54 34 33 53 33 32 53 33 32 53 33 32 53 33 32 53 33 32 53 33 32 
31 19 19 37 18 20 36 22 22 46 28 28 51 30 29 14 9 6 1 1 1 0 0 0 1 1 1 0 2 1 26 16 15 28 16 16 2 2 2 1 1 1 1 3 2 32 21 19 52 32 31 53 33 32 54 35 31 53 33 32 54 33 30 55 34 31 53 34 28 53 34 30 53 32 31 53 33 32 54 34 33 53 34 30 54 34 33 54 34 33 53 33 32 53 33 32 53 33 32 53 33 32 53 33 32 54 34 33 53 33 32 52 32 31 52 32 31 54 34 33 53 33 32 53 33 32 52 32 31 54 34 33 53 33 32 53 33 32 54 34 33 53 33 32 53 33 32 53 33 32 53 33 32 53 33 32 53 33 32 54 34 33 54 34 33 53 33 32 53 33 32 53 33 32 52 32 31 54 34 33 54 34 33 54 34 33 53 33 32 54 34 33 53 33 32 53 33 32 53 33 32 53 33 32 53 33 32 53 33 32 54 34 33 54 34 33 53 33 32 52 32 31 53 33 32 54 34 33 53 33 32 53 33 32 53 33 32 54 34 33 53 33 32 53 33 32 53 33 32 53 33 32 53 33 32 53 33 32 53 33 32 53 33 32 53 33 32 53 33 32 53 33 32 53 33 32 52 32 31 53 33 32 53 33 32 54 34 33 53 33 32 54 34 33 52 32 31 54 34 33 
36 22 22 35 19 19 35 19 20 34 20 19 45 27 27 30 19 17 11 5 5 12 8 7 12 6 6 19 14 11 45 29 29 51 30 29 43 27 27 17 11 11 1 3 2 1 1 1 14 10 9 50 30 29 54 33 32 54 34 33 52 34 30 53 34 30 53 34 30 53 33 32 54 34 33 53 33 32 52 32 31 54 35 31 53 33 32 53 33 32 54 34 33 52 32 31 54 34 33 53 33 32 54 34 33 52 32 31 53 33 32 53 33 32 54 34 33 52 32 31 53 33 32 53 33 32 53 33 32 54 34 33 53 33 32 53 33 32 54 34 33 53 33 32 53 33 32 53 33 32 53 33 32 53 33 32 54 34 33 52 32 31 53 33 32 53 33 32 53 33 32 53 33 32 53 33 32 53 33 32 53 33 32 53 33 32 53 33 32 54 34 33 53 33 32 53 33 32 52 32 31 52 32 31 52 32 31 54 34 33 53 33 32 54 34 33 53 33 32 54 34 33 53 33 32 53 33 32 54 34 33 53 33 32 53 33 32 53 33 32 53 33 32 53 33 32 54 34 33 53 33 32 52 32 31 53 33 32 54 34 33 54 34 33 53 33 32 53 33 32 52 32 31 54 34 33 53 33 32 53 33 32 53 33 32 54 34 33 52 32 31 55 35 34 53 33 32 52 32 31 
33 19 19 33 19 19 34 20 20 33 19 18 36 20 20 47 29 29 49 27 29 49 31 31 50 30 31 52 32 31 52 28 26 50 30 29 50 29 26 51 30 29 35 19 19 5 4 2 1 1 3 8 7 5 41 25 25 53 33 32 53 33 32 52 34 32 53 33 32 53 32 31 53 33 32 54 34 33 54 33 32 53 34 30 52 32 31 52 32 31 53 33 32 53 33 32 54 34 33 54 34 33 53 33 32 52 32 31 53 33 32 53 33 32 53 33 32 52 32 31 52 32 31 53 33 32 53 33 32 52 32 31 53 33 32 53 33 32 52 32 31 53 33 32 53 33 32 54 34 33 53 33 32 53 33 32 53 33 32 52 32 31 53 33 32 52 32 31 52 32 31 53 33 32 53 33 32 53 33 32 53 33 32 53 33 32 53 33 32 53 33 32 53 33 32 53 33 32 53 33 32 52 32 31 52 32 31 53 33 32 53 33 32 54 34 33 53 33 32 53 33 32 52 32 31 53 33 32 54 34 33 54 34 33 53 33 32 53 33 32 53 33 32 52 32 31 52 32 31 53 33 32 53 33 32 53 33 32 52 32 31 53 33 32 52 32 31 53 33 32 53 33 32 54 34 33 54 34 33 53 33 32 52 32 31 53 33 32 54 34 33 53 33 32 53 33 32 52 32 31 
8 4 3 28 16 16 34 20 20 34 22 22 34 18 19 34 18 18 46 28 26 50 29 28 52 31 30 50 30 29 51 31 30 51 31 30 51 30 29 50 30 31 49 29 28 45 27 25 16 10 10 1 1 1 7 3 4 31 21 19 52 32 31 53 33 32 52 34 30 53 34 30 54 33 32 53 33 32 53 33 32 53 33 32 53 33 32 52 32 31 53 33 32 53 33 32 52 32 31 54 34 33 53 33 32 52 32 31 52 32 31 53 33 32 53 33 32 53 33 32 53 33 32 52 32 31 53 33 32 54 34 33 52 32 31 52 32 31 54 34 33 53 33 32 53 33 32 53 33 32 53 33 32 53 33 32 53 33 32 54 34 33 53 33 32 52 32 31 52 32 31 53 33 32 52 32 31 53 33 32 53 33 32 53 33 32 53 33 32 53 33 32 53 33 32 52 32 31 54 34 33 54 34 33 53 33 32 52 32 31 53 33 32 54 34 33 53 33 32 53 33 32 53 33 32 52 32 31 53 33 32 52 32 31 53 33 32 53 33 32 53 33 32 53 33 32 54 34 33 54 34 33 54 34 33 54 34 33 53 33 32 53 33 32 53 33 32 54 34 33 53 33 32 53 33 32 53 33 32 52 32 31 52 32 31 54 34 33 53 33 32 53 33 32 53 33 32 53 33 32 
2 2 2 4 3 1 31 17 17 33 19 19 34 23 21 34 18 19 36 20 21 41 23 21 49 29 30 50 30 31 50 30 29 50 30 31 49 29 28 30 18 18 30 18 18 48 28 29 50 30 29 31 17 16 2 2 2 1 1 1 19 11 9 49 31 31 53 33 32 53 34 30 53 33 32 54 34 33 52 33 29 53 34 30 53 33 32 53 33 32 53 33 32 53 33 32 52 32 31 54 34 33 52 32 31 54 34 33 52 32 31 54 34 33 52 32 31 52 32 31 54 34 33 53 33 32 52 32 31 54 34 33 54 34 33 53 33 32 52 32 31 53 33 32 52 32 31 54 34 33 54 34 33 53 33 32 53 33 32 53 33 32 52 32 31 53 33 32 53 33 32 53 33 32 52 32 31 53 33 32 53 33 32 53 33 32 53 33 32 52 32 31 53 33 32 53 33 32 54 34 33 53 33 32 53 33 32 53 33 32 55 35 34 53 33 32 54 34 33 53 33 32 52 32 31 54 34 33 53 33 32 53 33 32 52 32 31 52 32 31 53 33 32 54 34 33 52 32 31 52 32 31 53 33 32 53 33 32 52 32 31 54 34 33 53 33 32 53 33 32 53 33 32 54 34 33 53 33 32 53 33 32 53 33 32 53 33 32 54 34 33 53 33 32 52 32 31 52 32 31 
24 14 13 0 0 2 4 2 3 20 12 10 35 21 21 35 21 21 35 19 19 32 21 19 40 22 22 50 30 29 52 31 30 52 31 30 35 20 23 2 2 0 1 1 1 34 20 19 51 31 30 50 29 28 37 21 21 8 4 5 1 1 1 6 4 5 35 21 20 54 34 33 52 33 29 53 32 31 53 34 30 53 34 30 52 32 31 54 35 31 52 34 32 53 33 32 54 33 32 54 34 33 52 33 29 53 34 30 52 32 31 53 33 32 52 32 31 54 34 33 52 32 31 53 33 32 52 32 31 53 33 32 53 33 32 53 33 32 53 33 32 53 33 32 53 33 32 53 33 32 52 32 31 52 32 31 54 34 33 53 33 32 53 33 32 53 33 32 52 32 31 53 33 32 54 34 33 53 33 32 52 32 31 52 32 31 53 33 32 53 33 32 54 34 33 53 33 32 53 33 32 53 33 32 54 34 33 53 33 32 52 32 31 53 33 32 53 33 32 54 34 33 53 33 32 52 32 31 53 33 32 53 33 32 53 33 32 53 33 32 53 33 32 53 33 32 53 33 32 54 33 32 53 33 32 53 33 32 52 32 31 53 33 32 54 34 33 52 32 31 53 33 32 54 34 33 52 34 32 53 33 32 53 33 32 53 33 32 53 33 32 53 33 32 52 32 31 52 34 32 
49 31 29 22 14 12 1 1 1 1 1 1 20 14 14 34 22 22 33 22 20 35 19 19 34 20 19 40 24 24 47 27 26 48 27 26 12 8 9 1 1 1 5 3 4 42 24 22 52 31 30 50 29 28 49 31 31 44 25 27 13 7 7 1 1 1 2 2 2 36 22 21 52 34 30 53 34 30 53 33 32 53 34 30 54 34 33 52 33 29 54 35 31 53 33 32 53 33 32 54 34 33 53 33 32 52 34 32 53 33 32 54 34 33 53 33 32 54 34 33 53 33 32 53 33 32 52 32 31 52 32 31 53 33 32 53 33 32 53 33 32 52 32 31 53 33 32 53 33 32 52 32 31 53 33 32 53 33 32 54 34 33 52 32 31 53 33 32 53 33 32 54 34 33 52 32 31 52 32 31 54 34 33 53 33 32 53 33 32 52 32 31 54 34 33 53 33 32 53 33 32 53 33 32 53 33 32 54 34 33 52 32 31 52 32 31 53 33 32 52 32 31 53 33 32 52 32 31 55 34 33 52 32 31 53 33 32 54 34 33 53 33 32 53 33 32 52 32 31 53 33 32 53 33 32 53 33 32 53 33 32 54 34 33 53 33 32 54 34 33 52 32 31 53 33 32 53 33 32 52 32 31 53 33 32 52 32 31 53 33 32 53 33 32 53 33 32 52 32 31 
53 34 30 51 33 31 21 13 11 1 1 1 0 2 1 13 9 8 29 17 17 33 19 18 19 10 11 3 2 0 5 4 2 26 16 15 9 5 4 1 1 1 3 3 3 43 25 23 50 29 26 49 29 28 52 31 30 51 30 29 47 29 27 21 13 11 2 2 2 3 1 2 35 24 22 53 33 32 53 33 32 53 33 32 52 32 31 52 34 30 51 33 31 53 33 32 53 33 32 53 33 32 54 34 33 53 33 32 52 32 31 52 32 31 52 32 31 54 34 33 54 34 33 54 34 33 53 33 32 54 34 33 53 33 32 54 34 33 53 33 32 54 34 33 53 33 32 53 33 32 54 34 33 53 33 32 53 33 32 53 33 32 53 33 32 53 33 32 53 33 32 53 33 32 52 32 31 53 33 32 53 33 32 54 34 33 53 33 32 54 34 33 54 34 33 53 33 32 53 33 32 53 33 32 53 33 32 53 33 32 53 33 32 54 34 33 53 33 32 53 33 32 54 34 33 53 33 32 52 32 31 53 33 32 54 34 33 53 33 32 54 34 33 52 32 31 53 33 32 53 33 32 53 33 32 54 34 33 53 33 32 53 33 32 53 33 32 52 32 31 52 32 31 53 33 32 53 33 32 53 33 32 53 33 32 53 33 32 53 33 32 53 33 32 54 34 33 52 32 31 
53 33 32 54 33 32 51 31 30 35 24 22 5 4 2 2 2 2 7 3 2 23 13 12 5 4 2 1 1 1 1 1 1 5 4 2 20 10 9 0 0 0 4 2 3 43 25 25 50 30 29 52 30 32 50 30 29 51 29 31 51 31 30 51 30 29 21 12 13 0 0 0 4 2 3 25 17 15 52 32 31 52 32 31 52 32 31 52 32 31 53 33 32 53 33 32 53 33 32 53 33 32 54 33 32 54 34 33 54 34 33 53 33 32 52 32 31 53 33 32 53 33 32 53 33 32 52 32 31 53 33 32 52 32 31 54 34 33 52 32 31 53 33 32 54 34 33 51 31 30 53 33 32 54 34 33 53 33 32 54 34 33 53 33 32 53 33 32 54 34 33 53 33 32 53 33 32 53 33 32 53 33 32 52 32 31 53 33 32 52 32 31 52 32 31 53 33 32 53 33 32 52 32 31 53 33 32 53 33 32 53 33 32 52 32 31 54 34 33 53 33 32 53 33 32 53 33 32 53 33 32 52 32 31 54 34 33 53 33 32 53 33 32 53 33 32 53 33 32 52 34 32 53 33 32 54 34 33 54 34 33 53 33 32 52 32 31 53 33 32 53 33 32 52 32 31 52 32 31 53 33 32 52 32 31 52 32 31 53 33 32 52 32 31 53 33 32 52 32 31 
54 34 33 52 32 31 52 32 31 53 34 30 48 30 28 11 7 6 1 1 1 4 2 3 13 9 8 5 5 3 1 1 1 3 3 3 19 10 11 9 5 4 22 12 13 50 28 30 51 31 32 52 30 32 51 33 31 50 30 29 52 30 32 51 31 30 24 15 16 0 0 0 1 1 1 1 1 1 29 18 16 52 32 31 53 33 32 53 34 30 52 32 31 54 34 33 52 32 31 51 33 33 52 32 31 52 34 32 53 33 32 53 33 32 53 33 32 53 33 32 52 32 31 53 33 32 53 33 32 53 33 32 53 33 32 52 32 31 54 34 33 52 32 31 53 33 32 54 34 33 54 34 33 52 32 31 55 35 34 53 33 32 53 33 32 54 34 33 52 32 31 53 33 32 52 32 31 53 33 32 53 33 32 53 33 32 53 33 32 53 33 32 54 34 33 54 34 33 53 33 32 53 33 32 52 32 31 52 32 31 53 33 32 52 32 31 53 33 32 52 32 31 53 33 32 53 33 32 52 34 32 53 33 32 52 32 31 53 33 32 53 33 32 53 33 32 53 33 32 53 33 32 52 32 31 54 34 33 53 33 32 55 35 34 53 33 32 52 32 31 53 33 32 53 33 32 53 33 32 53 33 32 53 33 32 53 33 32 53 33 32 53 33 32 53 33 32 53 33 32 
53 33 32 52 34 32 52 32 31 53 33 32 54 33 32 51 33 31 24 16 14 1 1 1 1 0 0 2 2 2 1 1 1 1 1 1 9 5 6 35 21 20 48 28 29 50 29 28 51 31 30 50 29 28 52 30 32 52 32 31 51 29 31 50 30 29 31 19 19 1 1 1 2 2 2 2 2 2 1 1 1 26 16 15 52 32 31 53 35 33 53 32 29 54 33 32 53 33 32 51 33 31 52 32 33 52 32 31 54 34 33 53 33 32 53 33 32 53 33 32 54 34 33 53 33 32 52 32 31 53 33 32 53 33 32 53 33 32 52 32 31 53 33 32 52 32 31 54 34 33 52 32 31 54 34 33 52 32 31 53 33 32 53 33 32 52 32 31 53 33 32 52 32 31 52 32 31 52 32 31 54 34 33 52 32 31 53 33 32 53 33 32 52 32 31 53 33 32 52 32 31 54 34 33 53 33 32 53 33 32 53 33 32 53 33 32 53 33 32 53 33 32 53 33 32 53 33 32 54 34 33 53 33 32 53 33 32 53 33 32 53 33 32 53 33 32 53 33 32 54 34 33 53 33 32 52 32 31 54 34 33 53 33 32 52 32 31 53 33 32 53 33 32 53 33 32 52 34 32 52 32 31 52 32 31 53 33 32 53 33 32 53 33 32 53 33 32 51 33 31 
53 34 30 54 32 34 53 33 32 55 34 33 54 32 34 53 35 31 52 32 31 24 14 13 1 1 1 1 1 3 0 1 3 1 1 1 14 8 8 35 21 20 41 23 21 51 31 30 51 31 32 50 30 31 49 29 30 51 30 29 50 28 30 49 29 28 50 29 28 25 13 13 10 6 7 15 10 7 4 2 3 2 0 1 28 18 19 53 33 34 55 34 33 52 34 32 54 34 33 52 34 32 52 34 32 53 33 32 53 33 32 52 32 31 53 33 32 52 32 31 53 33 32 53 33 32 53 33 32 53 33 32 53 33 32 53 33 32 54 34 33 53 33 32 53 33 32 53 33 32 55 35 34 52 32 31 53 33 32 54 34 33 53 33 32 53 33 32 53 33 32 53 33 32 52 32 31 53 33 32 54 34 33 53 33 32 53 33 32 53 33 32 53 33 32 54 34 33 53 33 32 53 33 32 52 32 31 53 33 32 53 33 32 53 33 32 53 33 32 52 32 31 53 33 32 53 33 32 53 33 32 52 32 31 51 31 30 54 34 33 53 33 32 52 32 31 52 32 31 54 33 32 53 33 32 53 33 32 53 33 32 54 34 33 53 33 32 53 33 32 53 33 32 53 33 32 53 33 32 53 33 32 52 32 31 53 33 32 53 33 32 53 33 32 54 34 33 52 32 31 
53 34 30 53 34 30 52 33 29 54 33 32 52 32 31 54 34 33 54 33 32 47 31 31 9 5 4 0 0 0 0 0 0 15 9 9 33 19 18 33 21 21 34 20 20 49 31 31 49 29 28 50 30 31 51 30 29 41 25 25 16 10 10 15 9 9 46 26 27 17 8 9 1 1 3 3 1 2 30 16 15 3 3 3 2 2 2 30 18 18 53 33 32 53 33 32 52 32 31 52 34 32 53 33 32 53 33 32 54 34 33 52 32 31 52 32 31 52 32 31 53 33 32 53 33 32 52 32 31 53 33 32 53 33 32 52 32 31 52 32 31 53 33 32 53 33 32 52 32 31 52 32 31 53 33 32 53 33 32 54 34 33 53 33 32 52 32 31 52 32 31 52 32 31 52 32 31 53 33 32 53 33 32 53 33 32 53 33 32 53 33 32 52 32 31 54 34 33 53 33 32 53 33 32 53 33 32 53 33 32 53 33 32 53 33 32 53 33 32 54 34 33 53 33 32 53 33 32 53 32 31 53 33 32 53 33 32 55 35 34 54 34 33 53 33 32 52 32 31 53 33 32 53 33 32 53 33 32 53 33 32 54 34 33 52 32 31 53 33 32 53 33 32 52 32 31 52 32 31 54 34 33 52 32 31 53 33 32 52 32 31 53 33 32 53 33 32 53 33 32 
53 33 32 52 32 31 52 32 31 52 32 31 52 32 31 53 34 30 53 34 28 53 34 30 41 25 25 8 4 3 1 1 1 17 11 11 36 20 21 34 20 19 36 20 21 38 22 23 49 29 30 53 29 29 51 29 31 20 11 12 1 1 1 0 0 0 33 21 21 13 9 8 1 1 1 12 6 6 48 28 29 31 17 17 2 2 2 3 3 3 36 22 21 52 32 31 53 33 32 53 34 30 52 34 30 53 33 32 52 32 31 52 34 32 49 34 31 52 34 32 52 34 32 54 34 33 52 34 32 53 33 32 52 32 31 53 33 32 52 32 31 53 33 32 53 33 32 51 33 31 53 33 32 53 33 32 54 34 33 53 33 32 53 33 32 52 32 31 54 34 33 53 33 32 53 33 32 53 33 32 52 32 31 54 34 33 53 33 32 53 33 32 53 33 32 53 33 32 53 33 32 52 32 31 52 34 32 52 34 32 52 34 32 52 32 31 53 33 32 52 32 31 52 32 31 53 33 32 52 32 31 53 33 32 53 33 32 53 33 32 53 33 32 53 33 32 53 33 32 53 33 32 52 32 31 53 33 32 53 33 32 53 33 32 53 33 32 53 33 32 52 32 31 53 33 32 52 32 31 53 33 32 53 33 32 53 33 32 52 32 31 53 33 32 53 33 32 52 32 31 
51 31 30 52 32 31 53 33 32 53 33 32 51 33 31 53 33 32 53 34 30 53 33 32 53 33 32 42 27 24 2 2 0 2 2 2 27 16 14 33 19 18 34 20 19 35 21 21 36 22 21 49 29 30 50 32 32 22 14 12 3 1 2 17 11 11 48 30 28 44 24 25 29 18 16 46 26 27 33 19 18 3 3 3 1 1 0 1 1 1 2 0 1 32 20 20 52 32 31 52 34 32 53 35 33 52 32 31 54 34 33 54 34 33 53 33 32 52 32 31 54 34 33 52 32 31 52 34 32 53 33 32 53 33 32 54 34 33 53 33 32 51 33 31 52 34 32 53 33 32 51 31 30 53 33 32 52 32 31 53 33 32 54 34 33 52 32 31 53 33 32 52 32 31 53 33 32 51 31 30 52 32 31 53 33 32 53 33 32 52 32 31 53 33 32 53 33 32 53 33 32 54 34 33 53 33 32 53 33 32 53 33 32 53 33 32 53 33 32 53 33 32 52 32 31 53 33 32 53 33 32 53 33 32 52 32 31 52 32 31 53 33 32 53 33 32 53 33 32 53 33 32 54 34 33 53 33 32 53 33 32 52 32 31 52 32 31 53 33 32 53 33 32 52 32 31 53 33 32 51 33 31 52 32 31 53 33 32 52 32 31 53 33 32 53 33 32 53 33 32 
53 33 32 52 32 31 53 33 32 52 32 31 53 33 32 52 32 33 53 33 32 52 34 32 53 32 29 52 33 29 29 19 17 2 2 2 8 3 7 32 18 18 35 21 21 35 21 21 34 20 19 42 24 24 49 27 29 49 29 30 43 25 25 49 29 28 51 30 29 31 17 17 14 8 8 40 24 24 21 11 12 2 2 2 0 0 0 1 1 1 1 1 0 13 9 8 47 29 29 53 33 32 53 34 30 52 33 29 54 34 33 51 33 31 53 33 32 54 33 32 53 33 32 51 33 31 52 34 32 52 32 31 52 32 31 52 32 31 52 32 31 53 33 32 53 33 32 53 33 32 53 33 32 53 33 32 53 33 32 53 33 32 52 32 31 53 33 32 52 32 31 52 32 31 52 32 31 52 32 31 53 33 32 53 33 32 53 33 32 52 32 31 53 33 32 52 32 31 52 32 31 52 32 31 52 32 31 53 33 32 52 32 31 52 32 31 53 33 32 53 33 32 53 33 32 53 33 32 53 33 32 53 33 32 54 34 33 52 32 31 52 32 31 52 32 31 52 32 31 53 33 32 52 32 31 53 33 32 53 33 32 53 33 32 53 33 32 52 32 31 52 32 31 53 33 32 52 32 31 54 34 33 54 34 33 52 32 31 52 32 31 53 33 32 53 35 33 52 32 31 
52 32 31 53 33 32 53 33 32 53 33 32 53 33 32 51 33 31 53 33 32 53 33 32 53 33 32 51 34 27 55 31 31 19 11 9 0 0 0 15 11 10 35 19 20 35 21 20 34 20 20 32 21 19 42 24 24 49 29 28 51 31 30 51 31 32 52 31 30 12 8 7 1 1 1 21 11 12 34 20 19 3 1 2 1 1 1 2 0 1 5 3 4 1 1 0 10 6 7 46 28 26 52 32 31 52 32 31 53 33 32 53 33 32 52 32 31 52 32 31 54 33 32 53 33 32 53 33 32 52 32 31 53 33 32 54 36 34 51 33 31 53 33 32 55 35 34 52 32 31 52 32 31 53 33 32 52 32 31 53 33 32 54 34 33 53 33 32 53 33 32 52 32 31 53 33 32 53 33 32 53 33 32 54 34 33 53 33 32 52 32 31 53 33 32 53 33 32 53 33 32 52 32 31 53 33 32 53 33 32 53 33 32 53 33 32 52 32 31 53 33 32 52 32 31 53 33 32 53 33 32 53 33 32 53 33 32 52 32 31 53 33 32 53 33 32 52 32 31 53 33 32 53 33 32 52 32 31 53 33 32 55 35 34 53 33 32 53 33 32 53 33 32 51 31 30 53 33 32 53 33 32 53 33 32 53 33 32 54 34 33 53 33 32 52 32 31 53 33 32 
52 32 31 53 33 32 51 31 30 53 33 32 54 34 33 53 33 32 52 33 29 53 33 32 52 32 31 52 33 29 53 33 32 49 31 29 6 5 3 1 1 1 21 11 10 34 20 20 35 21 21 35 19 19 36 22 21 47 29 29 51 29 31 49 28 27 50 30 31 33 19 19 17 11 11 26 16 15 15 9 9 27 17 16 33 19 18 40 24 24 33 17 18 4 3 1 1 1 1 5 5 3 43 28 25 53 33 32 52 32 31 53 33 32 52 32 31 51 33 31 52 32 31 53 33 32 54 33 32 52 32 31 53 33 32 52 32 31 53 33 32 53 33 32 52 32 31 54 34 33 53 33 32 52 34 32 52 32 31 53 33 32 53 33 32 53 33 32 53 33 32 52 32 31 53 33 32 53 33 32 52 32 31 51 31 30 52 32 31 54 34 33 53 33 32 53 33 32 53 33 32 53 33 32 54 33 32 54 33 32 53 33 32 54 34 33 52 32 31 52 32 31 53 33 32 53 33 32 52 32 31 54 34 33 53 33 32 53 33 32 53 33 32 53 33 32 53 33 32 51 31 30 53 33 32 54 34 33 53 33 32 52 32 31 53 33 32 53 33 32 53 33 32 53 33 32 52 32 31 53 33 32 53 33 32 52 32 31 54 34 33 53 33 32 54 34 33 53 33 32 
53 33 32 52 32 31 52 32 31 52 32 31 52 32 31 52 34 32 53 33 32 51 33 29 52 32 31 52 32 31 53 33 32 54 33 30 31 21 20 1 1 1 3 3 1 30 18 18 36 20 20 35 21 20 35 21 20 47 27 28 51 31 32 51 31 30 49 29 30 51 30 29 43 25 23 5 3 4 0 0 0 14 10 9 49 29 30 31 17 17 3 1 2 1 1 1 0 0 0 0 0 0 19 14 11 51 33 31 53 33 32 52 32 31 53 33 32 52 34 32 52 34 32 52 32 31 54 33 32 51 33 31 53 33 32 53 33 32 53 33 32 53 33 32 53 33 32 53 33 32 53 33 32 53 33 32 53 33 32 53 33 32 53 33 32 52 32 31 53 33 32 52 32 31 53 33 32 53 33 32 54 34 33 53 33 32 53 33 32 53 33 32 52 32 31 53 33 32 53 33 32 53 33 32 53 33 32 52 32 31 53 33 32 52 32 31 52 32 31 53 33 32 53 33 32 53 33 32 52 32 31 52 32 31 52 32 31 53 33 32 53 33 32 53 33 32 52 32 31 53 33 32 53 33 32 52 32 31 53 33 32 52 32 31 52 32 31 51 31 30 53 33 32 53 33 32 53 33 32 52 34 32 53 33 32 53 33 32 52 32 31 53 33 32 53 33 32 53 33 32 
53 33 32 52 32 31 52 32 31 52 32 31 53 33 32 54 34 33 52 34 30 54 32 34 52 33 29 53 33 32 54 35 31 54 34 33 53 33 32 12 8 9 0 0 2 13 9 8 35 19 20 33 19 19 33 21 21 35 21 20 44 26 24 52 31 30 53 28 31 43 25 23 6 2 1 1 1 1 1 1 0 20 12 10 49 28 27 17 8 9 0 0 0 1 1 1 1 1 1 1 1 1 1 1 1 28 18 17 52 34 32 53 33 32 53 33 32 53 33 32 53 33 32 53 33 32 53 33 32 53 33 32 53 33 32 51 33 31 53 33 32 52 32 31 53 33 32 52 32 31 52 34 32 53 33 32 53 33 32 52 32 31 53 33 32 53 33 32 53 33 32 53 33 32 53 33 32 53 33 32 53 33 32 51 31 30 53 33 32 53 33 32 52 32 31 53 33 32 53 33 32 53 33 32 52 34 32 52 34 32 53 33 32 53 33 32 53 33 32 54 34 33 53 33 32 52 32 31 53 33 32 52 32 31 53 33 32 53 33 32 53 33 32 53 33 32 52 32 31 53 33 32 53 33 32 51 31 30 52 32 31 53 33 32 54 34 33 53 33 32 53 33 32 53 33 32 53 33 32 53 33 32 52 32 31 53 33 32 53 33 32 52 32 31 52 34 32 52 32 31 
53 33 32 53 33 32 53 33 32 53 33 32 53 33 32 52 34 32 52 32 31 53 33 32 51 33 31 53 34 28 52 32 31 53 34 30 53 33 32 39 25 22 2 0 1 1 1 1 25 15 14 33 19 18 32 21 19 34 20 20 38 22 22 50 28 30 50 29 28 47 27 28 4 2 3 2 0 1 19 11 9 45 27 25 47 26 25 34 20 20 7 3 2 2 2 2 0 0 0 10 6 7 1 1 0 1 1 1 40 26 23 53 35 33 51 33 31 53 33 32 52 34 32 53 33 32 53 33 32 52 34 32 52 34 32 53 33 32 53 33 32 53 33 32 52 32 31 53 33 32 52 32 31 53 33 32 53 33 32 51 31 30 52 32 31 53 33 32 52 32 31 54 34 33 53 33 32 52 32 31 53 33 32 52 32 31 53 33 32 53 33 32 53 33 32 52 32 31 52 32 31 53 33 32 54 34 33 51 31 30 53 33 32 53 33 32 53 33 32 53 33 32 53 33 32 52 32 31 53 33 32 53 33 32 53 33 32 53 33 32 54 34 33 53 33 32 53 33 32 53 33 32 52 32 31 53 33 32 53 33 32 52 32 31 53 33 32 53 33 32 53 33 32 53 33 32 52 32 31 53 33 32 52 32 31 53 33 32 53 33 32 53 33 32 52 32 31 53 33 32 
53 33 32 53 33 32 54 34 33 50 32 30 53 33 32 53 33 32 52 32 31 52 32 31 52 32 31 53 33 32 53 33 32 53 33 32 53 34 30 52 32 31 25 16 17 2 0 1 4 4 4 32 18 17 34 20 19 34 20 20 34 20 20 45 27 25 52 32 33 50 29 28 41 25 26 35 21 20 51 31 32 49 28 27 50 29 28 50 28 30 43 25 23 34 20 19 30 18 18 46 26 25 24 14 13 2 0 1 6 4 5 50 32 28 52 32 31 52 32 31 53 33 32 51 33 31 52 32 31 52 34 32 52 32 31 53 32 31 52 32 31 52 32 31 52 32 31 53 33 32 53 33 32 52 32 31 53 33 32 52 32 31 53 33 32 53 33 32 53 32 31 52 32 31 53 33 32 53 33 32 53 33 32 52 32 31 51 31 30 53 33 32 52 32 31 53 33 32 53 33 32 53 33 32 53 33 32 52 32 31 53 33 32 53 33 32 52 32 31 53 33 32 53 33 32 53 33 32 52 34 32 53 33 32 53 33 32 53 33 32 53 33 32 52 32 31 53 33 32 53 33 32 51 31 30 53 33 32 52 32 31 52 32 31 53 33 32 53 33 32 52 32 31 53 33 32 52 34 32 51 31 30 53 33 32 56 35 34 53 33 32 53 32 31 52 32 31 52 32 31 
52 32 31 52 32 31 54 34 33 51 31 30 53 33 32 53 33 32 53 33 32 53 33 32 53 33 32 53 33 32 53 33 32 52 32 31 51 33 31 54 34 33 50 32 30 10 6 5 0 0 2 26 14 14 32 18 17 36 22 22 35 21 20 38 24 23 51 30 29 50 30 29 50 29 28 51 30 29 49 29 30 50 29 28 51 31 30 49 29 28 50 30 31 51 30 29 49 28 27 50 29 28 46 26 27 9 5 4 1 1 1 40 24 24 52 32 31 51 33 31 52 32 31 53 33 32 52 32 31 52 34 32 52 32 31 52 32 31 52 32 31 53 33 32 53 33 32 53 33 32 53 33 32 54 34 33 53 33 32 52 32 31 53 33 32 51 31 30 54 34 33 52 34 32 52 32 31 52 32 31 53 33 32 53 33 32 53 33 32 53 33 32 52 32 31 52 32 31 53 33 32 53 33 32 52 32 31 52 32 31 52 32 31 52 32 31 52 32 31 52 32 31 52 32 31 52 32 31 53 33 32 52 34 32 51 33 31 53 33 32 53 33 32 53 33 32 52 32 31 53 33 32 53 33 32 53 33 32 53 33 32 54 34 33 53 33 32 53 33 32 52 32 31 52 32 31 53 33 32 53 33 32 53 35 33 52 32 31 53 33 32 53 33 32 52 32 31 52 32 31 
52 32 31 53 33 32 52 32 31 53 33 32 52 32 31 52 32 31 52 32 31 53 33 32 51 31 30 53 33 32 53 33 32 53 33 32 52 32 31 51 33 31 53 32 31 36 25 23 1 1 1 13 9 8 35 21 21 34 18 19 32 20 20 35 21 21 47 27 26 48 27 26 51 29 31 50 30 31 50 30 29 50 30 29 51 33 33 48 27 26 50 28 30 51 30 29 52 31 30 50 30 31 51 29 31 34 20 19 0 2 1 4 3 1 50 30 29 51 33 31 54 33 30 52 32 31 51 33 31 53 33 32 52 32 31 52 32 31 53 33 32 53 33 32 54 34 33 53 33 32 53 33 32 53 33 32 52 32 31 53 33 32 53 33 32 52 32 31 52 32 31 52 32 31 52 32 31 53 33 32 52 32 31 53 33 32 53 33 32 52 32 31 52 32 31 52 32 31 51 31 30 53 33 32 53 33 32 53 33 32 53 33 32 53 33 32 53 33 32 53 33 32 53 33 32 53 33 32 53 33 32 52 32 31 52 32 31 53 33 32 53 33 32 53 33 32 53 33 32 53 33 32 52 32 31 53 33 32 52 32 31 53 33 32 52 32 31 53 33 32 52 32 31 53 33 32 53 33 32 53 33 32 53 33 32 52 32 31 53 33 32 53 33 32 52 32 31 53 33 32 
53 33 32 53 33 32 52 34 32 52 32 31 52 32 31 52 32 31 53 33 32 53 33 32 52 32 31 52 32 31 53 33 32 53 33 32 53 33 32 52 32 31 53 33 32 52 32 31 7 6 4 3 1 2 30 18 18 33 19 19 34 20 20 34 20 19 39 23 23 50 28 30 50 30 29 51 31 32 50 30 29 46 26 27 43 24 26 47 27 28 49 29 28 51 26 29 51 33 31 49 29 28 51 31 32 50 30 29 11 7 6 1 1 1 30 19 17 53 33 32 52 34 32 52 32 31 52 33 29 54 34 33 53 33 32 52 32 31 52 32 31 53 33 32 53 33 32 53 33 32 53 33 32 53 33 32 52 32 31 53 33 32 53 33 32 52 32 31 53 33 32 52 32 31 52 32 31 52 32 31 54 34 33 53 33 32 53 33 32 52 32 31 53 33 32 53 33 32 53 33 32 53 33 32 53 33 32 53 33 32 53 33 32 53 33 32 53 33 32 53 33 32 53 33 32 53 33 32 53 33 32 53 33 32 53 33 32 52 32 31 53 33 32 53 33 32 53 33 32 52 32 31 53 33 32 53 33 32 53 33 32 52 32 31 53 33 32 53 33 32 52 32 31 52 32 31 52 32 31 53 33 32 54 33 32 52 32 31 53 33 32 52 32 31 53 33 32 52 32 31 
52 32 31 52 32 31 53 35 33 53 33 32 51 31 30 53 33 32 53 33 32 53 33 32 53 33 32 53 33 32 52 32 31 53 33 32 52 32 31 53 33 32 52 32 31 51 33 31 28 18 17 2 2 2 12 6 6 34 20 20 35 21 21 34 20 19 34 20 20 47 27 28 49 28 27 51 29 31 44 26 26 6 5 3 3 1 2 20 11 12 49 28 27 51 30 29 51 31 32 50 30 29 50 28 30 47 27 26 11 7 6 1 1 1 11 7 6 50 30 29 53 33 32 52 32 31 53 33 32 52 33 29 52 32 31 52 34 32 52 32 31 52 32 31 52 34 32 52 34 32 52 32 31 52 34 32 53 33 32 52 32 31 52 32 31 54 34 33 52 32 31 53 33 32 52 32 31 52 32 31 53 33 32 52 32 31 50 30 29 52 32 31 52 32 31 52 32 31 52 32 31 53 33 32 53 33 32 53 33 32 53 33 32 53 33 32 53 33 32 53 33 32 53 33 32 53 33 32 53 33 32 53 33 32 52 32 31 53 33 32 52 32 31 53 33 32 53 33 32 52 32 31 52 32 31 53 33 32 53 33 32 53 33 32 53 33 32 52 32 31 52 32 31 53 33 32 53 33 32 52 32 31 52 32 31 54 34 33 52 32 31 52 32 31 53 33 32 51 33 31 
53 33 32 52 32 31 52 32 31 52 32 31 53 33 32 52 32 31 53 33 32 53 33 32 51 31 30 52 32 31 53 33 32 52 32 31 54 33 30 53 33 32 52 32 31 53 33 32 52 32 31 10 6 5 3 1 2 25 15 16 35 19 20 34 18 18 35 21 21 40 24 24 50 30 29 49 29 28 41 25 26 2 0 1 1 1 1 6 5 3 49 31 31 51 26 29 49 29 28 50 29 28 43 23 24 9 5 6 2 2 2 1 1 3 1 1 1 40 24 24 51 31 30 54 34 33 53 33 32 52 34 32 54 34 33 53 33 32 53 33 32 52 32 31 52 32 31 53 33 32 53 33 32 52 32 31 53 33 32 52 32 31 53 33 32 53 33 32 52 32 31 51 31 30 53 33 32 52 32 31 53 33 32 53 33 32 52 32 31 53 33 32 53 33 32 54 34 33 53 33 32 52 32 31 52 32 31 52 32 31 52 32 31 53 33 32 52 32 31 52 32 31 53 33 32 52 32 31 52 32 31 53 33 32 52 32 31 53 33 32 53 33 32 52 32 31 53 33 32 53 33 32 53 33 32 53 33 32 52 32 31 52 32 31 52 32 31 53 33 32 52 32 31 53 33 32 51 31 30 52 32 31 52 32 31 53 33 32 53 33 32 52 32 31 53 33 32 52 32 31 
52 32 31 53 33 32 52 32 31 53 33 32 52 32 31 52 32 31 52 32 31 52 32 31 52 32 31 53 33 32 53 33 32 53 33 32 53 33 32 52 32 31 51 33 31 52 32 31 52 34 32 22 14 12 2 2 2 10 6 7 27 17 15 32 16 17 34 23 21 37 23 22 43 25 25 47 29 29 46 28 28 9 5 6 1 1 1 29 17 17 50 30 29 51 31 30 51 30 29 51 31 30 37 21 21 4 2 3 2 2 2 1 1 1 1 1 1 12 6 6 49 31 29 52 34 30 52 32 31 53 33 32 53 33 32 52 32 31 52 32 31 53 33 32 52 32 31 52 32 31 52 32 31 52 32 31 52 32 31 53 33 32 52 32 31 53 33 32 52 32 31 53 32 31 52 32 31 52 32 31 53 33 32 53 33 32 52 32 31 52 32 31 52 32 31 52 32 31 51 31 30 54 34 33 53 33 32 53 33 32 52 32 31 53 33 32 53 33 32 52 32 31 53 33 32 53 33 32 53 33 32 51 33 31 51 33 31 52 32 31 53 33 32 52 32 31 53 33 32 52 32 31 53 33 32 52 32 31 53 33 32 53 33 32 52 32 31 53 33 32 53 33 32 52 32 31 52 32 31 53 33 32 52 32 31 52 32 31 52 32 31 51 33 31 53 33 32 53 32 31 
53 33 32 51 31 30 52 32 31 51 33 31 53 33 32 53 33 32 52 32 31 52 32 31 52 32 31 53 33 32 52 32 31 52 32 31 52 32 33 53 33 32 53 33 32 53 34 30 52 34 34 46 30 30 4 2 3 2 0 1 1 1 1 7 5 6 30 18 18 20 12 10 4 2 3 9 5 4 39 23 23 18 9 10 3 1 2 25 15 14 49 28 25 51 30 29 49 28 27 52 30 32 50 28 30 23 15 13 6 4 5 19 11 9 1 1 1 2 2 2 37 23 22 52 33 27 51 33 31 52 34 32 52 32 31 52 32 31 52 32 31 52 32 31 52 32 31 52 32 31 52 32 31 52 32 31 52 32 31 53 33 32 52 32 31 52 32 31 50 32 30 52 32 31 52 32 31 52 32 31 53 33 32 52 32 31 52 32 31 52 32 31 52 32 31 53 33 32 54 34 33 52 32 31 52 32 31 52 32 31 52 32 31 52 32 31 52 32 31 52 32 31 52 32 31 52 32 31 52 34 32 53 33 32 52 32 31 52 32 31 52 32 31 53 33 32 52 32 31 52 32 31 52 32 31 52 32 31 52 32 31 52 32 31 52 32 31 52 32 31 52 32 31 53 33 32 51 31 30 51 31 30 53 33 32 51 33 31 53 33 32 53 33 32 53 32 31 52 32 31 
52 32 31 51 33 31 52 32 31 52 32 31 53 33 32 49 34 31 52 32 31 52 32 31 52 34 32 53 33 32 53 33 32 51 33 31 52 32 31 53 33 32 49 34 31 53 33 32 52 32 31 51 33 31 15 9 9 0 0 0 0 0 0 0 0 0 24 14 13 19 10 11 1 1 1 0 2 1 25 13 13 12 8 7 0 0 0 4 3 1 45 25 26 51 29 31 51 30 29 50 30 31 49 28 27 12 7 4 2 2 2 4 3 1 8 7 5 0 0 2 16 10 10 52 32 31 53 34 30 52 32 31 52 32 31 51 31 30 53 33 32 52 32 31 52 32 31 53 33 32 53 33 32 52 32 31 52 32 31 53 33 32 52 32 31 52 32 31 52 32 31 53 33 32 52 32 31 52 32 31 53 33 32 53 33 32 53 33 32 52 32 31 53 33 32 52 32 31 51 31 30 52 32 31 54 34 33 51 31 30 52 32 31 52 32 31 53 33 32 52 32 31 52 32 31 51 31 30 52 32 31 52 32 31 52 32 31 52 32 31 52 32 31 53 33 32 52 32 31 53 33 32 52 32 31 50 30 29 53 33 32 52 32 31 53 33 32 52 32 31 52 32 31 52 32 31 50 32 30 53 33 32 52 32 31 53 33 32 53 33 32 52 32 31 52 32 31 52 32 31 
52 32 31 53 33 32 52 32 31 53 33 32 52 32 31 52 32 31 53 33 32 52 32 31 52 32 31 52 32 31 52 32 31 52 32 31 53 33 32 53 33 32 54 33 32 53 33 32 54 34 33 50 32 28 30 18 20 1 1 1 1 1 1 6 4 5 25 15 16 28 16 16 13 9 8 16 7 8 41 23 23 19 11 9 3 1 2 18 9 10 47 28 24 51 30 29 50 29 28 51 30 29 50 30 31 28 16 16 5 4 2 15 10 7 37 21 21 2 2 2 6 4 5 48 30 28 53 33 32 51 32 28 52 32 31 52 32 31 51 31 30 52 32 31 53 33 32 54 34 33 52 32 31 52 32 31 51 31 30 52 32 31 52 32 31 52 32 31 53 33 32 53 33 32 53 33 32 52 32 31 52 32 31 51 31 30 51 31 30 53 33 32 51 31 30 53 33 32 53 33 32 52 32 31 52 32 31 52 32 31 52 32 31 52 32 31 53 33 32 52 32 31 52 32 31 52 32 31 53 33 32 52 32 31 52 32 31 53 33 32 53 33 32 52 32 31 53 33 32 50 30 29 52 32 31 52 32 31 51 31 30 53 33 32 52 32 31 51 31 30 54 34 33 53 33 32 53 33 32 53 33 32 53 33 32 53 33 32 51 31 30 52 32 31 52 34 32 53 33 32 
