P3
100 50
255
14 8 10 30 29 24 24 30 20 21 31 20 20 31 17 19 29 18 21 32 16 20 31 17 20 30 19 20 30 19 19 29 18 23 34 20 33 47 30 29 43 26 32 45 27 32 46 29 34 47 30 31 45 28 34 47 29 33 46 29 29 44 25 27 44 25 34 48 31 31 46 27 31 46 25 40 29 25 48 28 27 48 26 28 47 25 27 49 31 31 48 28 29 49 29 30 48 30 28 49 29 28 47 26 25 49 28 27 48 30 28 48 28 29 49 29 30 47 27 28 48 28 29 49 27 29 49 29 28 47 27 28 47 27 28 48 27 26 48 28 29 48 28 30 46 25 24 47 27 26 49 29 30 49 29 30 48 28 29 50 30 29 49 27 29 50 26 26 47 27 26 49 29 30 48 28 29 47 27 26 48 27 26 48 30 30 49 29 30 48 30 28 47 26 25 49 27 29 48 28 29 47 27 26 47 31 31 49 29 30 48 28 29 49 29 30 49 31 29 50 32 30 47 27 28 48 27 26 49 27 29 48 28 29 49 29 30 48 28 29 48 28 29 47 29 29 47 27 28 48 28 29 48 28 27 48 28 27 50 30 29 50 29 28 47 27 26 50 29 28 48 27 26 49 28 27 50 30 31 48 28 29 49 28 27 47 26 25 48 28 29 48 28 29 46 26 27 32 21 19 
20 12 10 31 19 21 32 22 21 33 28 25 30 27 22 25 30 23 21 31 20 20 30 19 19 31 17 22 33 19 21 31 20 29 40 26 33 47 30 31 46 27 29 44 25 35 48 30 33 46 28 30 47 29 32 45 27 30 45 26 31 46 27 30 44 27 34 47 30 34 47 29 30 48 26 36 32 23 50 32 32 49 29 30 46 28 26 49 29 30 50 28 30 47 29 29 47 27 26 49 29 28 47 26 25 48 28 29 47 27 28 48 28 29 46 26 25 47 27 28 50 32 32 50 30 31 48 28 27 50 28 30 49 27 29 47 27 28 47 27 28 48 28 27 48 26 29 50 30 31 48 28 29 48 27 26 49 31 31 48 28 29 47 27 26 49 29 30 51 30 29 49 28 27 48 27 26 48 28 29 47 27 26 48 30 30 48 28 29 47 27 26 49 29 28 49 27 29 50 30 31 48 28 27 47 27 26 48 28 29 48 28 27 49 29 28 47 27 26 48 28 27 49 29 30 47 25 27 48 28 27 49 29 28 47 26 25 49 29 28 49 27 29 49 29 30 49 29 30 51 26 29 49 29 30 48 30 28 50 29 28 48 28 29 47 25 27 47 27 26 48 28 27 49 27 29 49 28 27 49 27 29 50 29 28 47 26 25 49 30 26 49 29 28 47 29 27 37 21 21 
28 16 16 30 18 18 34 20 20 34 18 19 31 19 19 33 25 23 32 24 22 31 27 24 27 32 25 23 31 18 21 32 18 29 42 25 31 46 27 33 48 29 34 47 29 31 46 25 31 46 27 36 49 32 32 49 30 27 44 25 35 48 30 33 47 30 32 47 28 32 47 28 32 45 27 42 31 27 51 31 32 48 28 29 49 27 29 50 28 30 49 29 30 47 25 27 49 29 28 48 27 26 47 27 26 49 29 28 47 29 27 49 28 27 48 28 27 48 30 28 48 28 30 50 30 31 48 28 29 48 28 29 49 29 28 47 27 28 48 28 29 47 25 27 48 28 29 48 30 28 48 30 30 49 29 30 47 27 26 49 29 30 47 27 26 48 28 29 48 28 29 49 29 30 49 29 30 49 29 30 49 28 27 50 30 31 49 29 30 50 29 28 49 29 28 50 28 30 49 29 30 49 29 28 48 28 29 47 27 26 50 30 29 49 31 29 48 28 27 49 29 28 44 29 26 35 35 25 32 40 27 35 35 25 39 36 27 37 33 24 36 36 28 36 33 26 41 30 26 40 33 27 45 31 28 43 29 26 43 29 26 42 28 25 41 30 26 44 29 26 39 30 25 46 31 28 47 27 26 45 27 25 43 29 26 43 29 26 40 31 26 39 32 24 38 31 23 35 27 24 
17 11 11 13 7 7 31 17 16 31 20 18 33 19 19 31 17 16 32 20 20 32 18 18 33 19 19 30 24 24 27 26 21 27 42 23 32 46 29 36 50 33 28 45 26 30 45 26 36 49 32 31 46 27 31 46 27 32 47 28 32 47 28 28 45 26 33 46 28 34 47 30 38 35 26 50 29 28 50 30 31 48 28 29 48 28 29 47 27 28 48 28 27 48 27 26 49 29 30 49 27 29 41 32 27 34 34 26 33 36 25 39 32 26 45 25 24 47 27 28 48 28 29 48 28 29 48 28 27 49 29 30 47 27 28 47 26 25 47 29 27 46 26 25 50 29 28 49 29 28 51 30 29 49 29 28 49 29 28 49 31 31 48 28 29 49 29 30 47 27 26 50 28 30 48 30 28 49 27 29 48 28 29 48 30 28 49 29 28 47 27 28 49 29 30 48 27 26 48 28 27 48 28 29 49 29 30 49 29 28 49 28 27 47 27 26 48 28 29 47 29 27 28 39 23 32 47 28 28 45 26 31 46 27 33 48 29 31 46 27 34 49 30 31 46 27 32 47 28 32 47 28 30 44 27 33 46 28 33 46 28 32 45 28 34 47 30 33 46 28 28 45 26 32 45 28 36 42 28 28 41 24 29 46 27 31 44 26 32 45 28 32 45 25 34 47 30 25 40 19 
8 7 5 16 11 8 31 19 19 32 20 20 32 21 19 34 20 19 33 19 18 33 19 19 30 20 19 33 19 19 36 20 20 43 28 25 40 29 27 37 33 24 34 40 26 28 43 24 33 46 28 32 47 28 33 46 28 30 44 27 31 46 27 29 46 27 34 49 30 33 40 24 46 28 26 50 30 31 46 26 27 48 27 26 49 29 28 47 27 26 48 28 27 49 29 30 48 30 28 38 34 25 28 42 25 35 50 31 31 46 27 33 46 29 34 40 28 38 39 31 40 29 25 42 27 24 47 27 26 48 28 27 49 29 30 49 31 31 49 28 27 50 30 31 48 28 27 49 29 28 48 28 29 47 27 28 47 27 28 47 29 29 48 28 27 48 28 27 48 28 27 47 27 26 48 28 27 48 28 27 49 29 28 48 28 27 48 28 27 49 27 29 47 29 27 49 28 27 48 28 29 48 30 30 48 27 26 47 29 29 49 28 27 49 27 29 50 30 29 41 27 24 35 48 30 29 46 27 32 47 28 34 49 30 28 46 24 32 47 28 31 46 27 37 50 33 35 48 30 26 43 24 32 47 28 31 46 27 35 49 32 31 45 28 32 47 28 37 48 34 31 46 27 35 48 31 34 47 30 30 45 26 33 48 29 34 47 30 28 43 22 34 45 28 37 48 32 31 44 26 
27 15 19 28 16 16 34 18 19 31 19 19 35 21 21 30 18 18 31 17 17 34 20 19 33 19 18 35 21 21 43 23 24 46 28 26 49 29 30 49 28 27 48 28 27 45 30 27 38 29 24 36 33 24 40 36 27 33 35 24 43 35 32 40 33 27 42 31 27 47 29 29 48 30 30 49 31 31 48 30 30 47 27 28 49 31 29 50 29 28 49 31 29 48 28 29 46 30 30 31 42 26 32 47 28 33 46 29 29 44 25 30 44 27 34 47 30 27 44 25 31 46 27 35 46 30 37 37 29 45 31 28 45 30 27 49 31 31 48 28 27 49 29 28 48 28 27 48 28 27 50 30 29 48 28 27 48 28 29 50 29 28 50 30 31 48 30 30 48 30 30 49 29 28 50 28 30 47 27 28 49 29 28 47 29 27 47 27 28 49 31 29 47 27 26 49 29 28 47 27 26 49 29 28 46 25 24 48 28 29 49 29 30 46 27 23 49 28 27 48 28 27 35 43 28 32 47 28 31 46 27 35 48 31 30 45 24 31 46 27 29 43 26 36 49 31 33 48 29 30 45 26 34 48 31 32 47 28 32 46 29 32 47 28 27 46 24 28 45 26 33 46 28 28 45 26 32 47 28 33 48 29 29 46 27 33 46 28 35 48 31 31 46 25 28 43 24 33 48 29 
28 16 16 33 19 19 35 19 20 32 18 17 33 19 19 31 19 19 32 18 18 33 19 18 33 19 18 39 23 23 47 29 27 50 29 28 48 30 30 48 28 29 47 27 28 47 29 29 48 30 30 48 28 29 49 29 30 49 29 30 48 28 30 50 26 26 46 26 25 48 30 30 48 28 29 47 27 26 46 26 25 49 29 30 47 27 28 48 28 29 49 27 29 47 27 26 35 37 26 35 48 30 30 45 26 33 47 30 33 46 29 30 44 27 34 47 30 28 45 26 30 45 26 31 44 27 26 43 24 33 46 28 31 44 26 39 34 28 41 31 29 45 30 27 47 29 29 47 26 25 48 30 30 46 26 27 48 28 27 49 27 29 50 30 31 48 29 25 47 27 28 45 29 29 47 29 29 48 26 28 48 28 27 48 28 27 51 30 29 47 27 26 46 28 26 48 28 29 47 29 29 48 28 27 47 29 29 48 28 27 47 27 26 48 28 27 48 28 27 46 26 25 37 32 26 28 43 24 32 47 28 32 46 31 35 48 30 26 43 24 35 48 31 32 47 28 33 46 28 30 45 26 31 45 28 33 48 29 36 49 31 30 44 27 31 46 27 31 44 26 33 46 29 33 48 29 27 44 26 30 45 26 32 46 31 30 45 26 28 43 24 35 48 30 33 46 29 30 41 27 
6 5 3 31 17 17 31 19 19 34 20 20 33 19 19 33 19 19 31 20 18 32 21 19 37 23 22 47 27 26 47 27 26 50 30 31 47 27 26 48 28 27 49 29 30 50 30 31 48 28 29 48 26 28 48 26 28 49 29 30 49 27 29 48 30 30 48 28 29 46 26 25 47 27 28 47 29 29 48 28 29 49 29 28 47 27 26 48 27 26 48 28 29 49 31 31 34 34 24 28 43 24 29 44 25 26 43 24 33 46 29 32 47 28 29 47 25 31 45 28 34 48 33 30 45 26 31 46 27 30 47 28 32 47 28 30 45 26 34 47 30 37 45 30 34 37 26 37 34 27 38 33 29 47 29 29 49 29 30 49 29 30 48 28 29 49 29 28 47 27 28 47 27 28 50 28 30 49 29 28 48 28 27 48 30 28 48 28 27 48 28 27 48 30 30 48 28 27 47 27 28 48 28 29 49 29 30 50 30 31 47 27 28 49 29 28 49 29 28 47 29 27 44 29 22 37 39 28 33 46 29 35 48 31 29 47 25 33 46 28 37 48 34 35 48 31 34 47 30 29 44 23 29 46 27 30 45 26 34 49 30 31 46 27 31 46 27 32 45 27 30 45 26 30 45 26 33 47 30 34 45 31 34 45 29 35 47 33 31 46 27 31 44 26 29 42 25 6 8 3 
0 0 0 5 3 4 21 12 13 32 18 18 31 20 18 29 19 18 33 19 19 34 20 19 45 25 26 48 28 29 49 29 30 48 30 28 49 29 28 47 29 27 50 30 31 47 28 24 47 32 29 47 26 25 49 31 31 48 30 30 48 28 27 47 27 28 49 29 30 45 27 25 47 27 28 47 27 28 47 29 29 48 28 27 47 27 26 46 26 27 49 29 28 49 29 30 42 28 27 35 46 32 34 47 29 34 47 30 33 46 29 31 46 27 28 46 24 34 49 28 33 46 29 32 45 28 33 46 29 30 45 26 32 46 29 31 46 27 31 49 27 36 49 31 34 47 29 33 46 29 32 46 29 30 41 24 33 41 28 32 34 20 36 33 24 43 29 28 42 26 26 41 26 23 46 28 28 46 28 28 44 26 24 48 28 29 47 27 26 50 30 31 49 28 27 46 26 25 47 27 26 48 28 29 47 29 29 49 29 30 46 26 25 47 27 28 49 29 28 48 28 29 47 26 25 48 27 26 40 29 25 36 36 26 31 42 26 32 47 28 33 46 28 31 45 28 33 48 29 35 48 30 30 44 27 32 47 28 32 46 29 33 48 29 31 45 28 34 47 30 33 48 29 34 47 30 31 45 28 28 45 26 34 47 30 32 46 29 33 46 29 19 29 18 4 6 3 2 0 1 
11 5 5 1 1 1 1 1 0 14 8 8 30 18 18 31 17 16 32 18 18 40 24 25 49 29 30 49 29 30 49 31 31 48 27 26 48 28 29 47 25 27 47 27 28 48 30 28 47 27 26 49 29 28 48 28 29 49 29 30 47 27 26 49 28 27 49 29 30 48 30 30 49 29 30 47 27 28 50 30 31 48 26 28 46 28 28 49 31 31 49 28 27 48 28 27 47 29 27 37 30 24 37 48 34 34 47 30 31 46 27 32 47 28 30 45 26 27 44 26 32 45 28 30 47 29 34 47 30 32 46 29 33 46 29 32 45 27 31 46 27 33 44 27 26 43 24 34 47 30 28 45 26 30 45 26 30 44 27 33 46 28 34 47 29 30 43 26 35 46 30 31 44 27 34 42 27 35 39 25 35 43 30 34 36 25 37 38 30 32 32 22 38 35 26 41 37 28 38 34 25 36 31 25 41 32 27 42 28 25 42 26 26 43 27 27 43 28 25 43 29 26 43 27 27 39 28 26 45 30 27 43 27 27 38 27 23 31 37 25 31 45 28 34 47 30 29 44 25 34 47 30 32 47 28 32 45 27 33 46 29 33 47 30 32 45 28 30 45 26 27 44 25 34 47 30 33 46 29 34 48 31 31 46 27 34 47 30 15 22 14 1 1 1 1 1 1 5 9 8 
36 15 14 15 6 7 3 1 2 0 0 0 10 6 5 27 15 15 35 21 21 43 25 25 48 28 29 47 25 27 49 29 28 46 26 25 47 29 25 47 27 26 49 28 27 47 29 29 47 27 28 48 28 29 48 28 27 47 28 24 48 26 28 48 28 29 48 28 29 49 27 29 47 27 28 48 26 28 48 28 29 47 27 28 47 27 28 48 28 27 46 26 27 47 27 28 50 29 28 46 28 28 41 36 30 31 44 26 31 45 28 31 44 26 33 47 30 31 46 27 32 45 28 31 45 28 30 45 26 35 46 29 32 46 29 32 45 27 31 46 27 31 44 26 34 47 30 31 44 27 31 46 27 34 47 29 32 45 28 31 46 27 28 45 26 30 45 24 31 46 27 35 48 31 33 47 30 29 44 25 30 45 26 32 47 28 33 48 29 34 47 29 31 46 27 33 47 30 32 45 27 33 47 30 33 47 30 32 45 28 34 47 30 34 47 29 33 46 29 31 46 27 30 44 29 31 46 27 33 46 29 36 47 30 35 48 30 31 46 27 35 48 31 32 46 29 31 46 27 31 44 26 34 47 30 29 46 27 33 46 29 31 46 27 34 47 30 36 47 31 34 47 29 28 43 22 29 43 26 32 47 28 28 41 24 6 11 5 1 1 1 1 1 1 4 6 5 17 32 27 
39 15 13 39 15 13 29 11 11 7 3 2 0 2 1 4 2 3 31 17 17 49 31 29 49 31 29 47 26 25 48 28 27 49 28 27 49 29 30 48 28 27 50 30 29 46 25 24 47 29 27 47 27 28 48 28 29 46 26 27 49 29 30 47 27 28 49 31 31 50 26 26 47 29 29 48 26 28 48 28 29 48 30 28 49 29 30 49 29 30 50 28 30 48 30 28 47 27 28 46 28 28 49 29 30 38 35 26 32 43 27 35 46 30 31 46 27 32 45 27 31 46 27 30 47 28 30 44 27 30 45 26 31 46 27 27 44 25 34 47 30 28 41 23 31 46 27 33 48 29 31 44 26 34 47 29 32 46 29 33 46 29 33 46 29 30 45 26 32 46 29 34 48 31 32 45 28 31 46 27 29 46 27 33 46 28 31 44 26 30 45 26 35 48 30 28 46 24 33 48 29 32 45 27 30 44 27 32 46 29 26 43 24 36 47 33 31 46 27 34 47 30 27 45 23 30 44 27 29 44 25 30 45 26 34 45 29 34 47 30 33 46 29 27 44 25 36 49 32 31 46 27 27 44 25 33 46 29 33 46 28 29 44 25 30 45 26 33 46 28 31 44 27 33 47 30 30 45 26 23 34 20 6 6 4 1 1 1 6 6 6 4 4 4 0 1 0 12 21 18 
21 10 8 29 11 11 30 12 12 28 12 12 5 4 2 1 1 1 1 1 3 23 13 12 41 25 25 49 29 30 48 27 26 46 28 28 50 30 31 48 28 29 50 30 29 49 29 28 48 28 29 47 29 29 50 32 32 48 28 29 47 27 28 48 28 27 49 29 28 48 28 27 47 27 26 48 28 27 49 29 28 49 29 28 48 26 28 47 27 26 50 30 29 47 27 26 48 28 27 48 30 30 47 27 26 48 28 29 41 26 23 36 36 28 30 45 26 33 47 30 28 45 26 35 48 30 31 45 28 32 47 26 28 46 24 33 47 30 33 44 28 33 48 29 33 46 28 32 47 28 34 49 30 31 46 27 31 46 27 36 49 32 29 46 27 31 44 27 35 46 30 30 43 25 33 46 29 35 50 31 31 46 27 30 44 27 32 46 31 32 47 28 33 46 28 36 49 32 31 46 27 34 48 31 33 46 29 31 46 27 31 46 27 31 46 27 33 46 29 29 44 25 33 45 31 30 44 27 32 47 28 31 46 27 33 46 28 36 49 31 31 45 28 35 49 34 28 42 25 35 48 30 31 46 27 33 47 30 34 46 32 32 47 28 31 46 27 31 46 27 32 45 28 30 43 23 20 27 19 3 3 3 1 1 1 10 8 9 36 29 36 27 22 26 1 1 1 4 4 6 
1 1 1 1 1 1 1 1 1 1 1 1 1 1 1 1 1 1 0 2 1 1 1 1 2 2 2 6 4 5 25 15 14 43 25 25 48 27 26 49 29 30 47 27 28 48 30 30 46 26 27 48 28 29 49 27 29 48 28 29 47 29 27 48 30 28 49 29 28 48 28 27 48 28 27 48 28 29 49 29 30 47 27 28 49 29 28 48 28 29 47 27 28 48 26 28 48 30 30 49 27 29 49 29 30 47 29 27 48 30 30 47 29 27 38 31 25 37 41 27 33 46 28 33 48 29 27 45 23 34 48 31 31 46 27 36 49 32 36 47 31 34 47 30 34 47 30 28 45 26 32 46 29 36 47 31 27 45 23 37 48 32 32 47 28 37 48 32 32 47 28 31 45 28 29 47 25 30 45 26 28 43 24 38 49 33 35 48 31 29 43 26 35 48 31 33 46 29 33 46 29 31 44 26 33 46 28 34 49 30 31 48 29 32 47 28 34 47 30 32 45 28 32 45 27 31 45 28 26 45 25 33 44 27 33 46 29 30 44 27 31 46 27 32 47 28 27 44 25 32 45 27 31 45 28 32 47 28 28 42 25 25 42 23 30 43 26 18 26 15 10 12 9 2 7 3 1 1 1 1 1 1 2 2 2 31 26 32 37 31 35 38 32 36 11 9 10 1 1 1 
27 19 16 27 19 16 17 12 9 13 9 8 18 14 13 11 7 6 9 8 6 4 4 4 2 2 2 0 0 0 0 0 0 5 5 3 26 21 17 37 26 22 45 30 27 49 29 30 47 29 29 48 28 27 48 28 27 48 28 27 47 27 28 46 26 27 49 27 29 48 28 29 48 26 28 50 30 29 47 27 26 47 27 28 50 28 30 47 27 26 48 27 26 47 27 28 48 28 29 47 27 26 47 27 26 48 28 27 47 26 25 48 28 29 48 28 29 46 26 25 43 29 28 38 35 26 32 43 27 34 47 30 27 44 25 29 44 25 32 45 28 33 46 29 33 48 29 31 46 27 33 47 30 26 44 22 26 44 22 33 46 29 32 45 27 34 47 29 34 45 29 35 46 30 31 45 28 30 45 26 29 46 27 33 48 29 31 46 27 29 43 26 30 45 26 30 47 28 33 46 29 30 45 26 30 48 26 32 47 26 33 46 29 28 43 22 37 47 36 33 46 28 30 45 26 30 47 28 34 46 32 32 47 28 28 45 26 28 45 26 31 46 27 32 46 29 32 45 28 33 48 29 33 47 30 37 48 34 30 42 28 25 36 22 6 11 5 0 0 0 1 1 1 1 1 1 4 4 4 26 21 25 15 11 12 15 13 16 38 32 36 38 31 38 32 26 30 4 4 4 
40 29 27 39 28 24 39 28 22 39 28 24 39 28 22 36 27 22 38 27 23 37 26 22 36 26 24 27 19 16 9 8 4 0 0 0 1 1 1 7 12 6 23 26 17 34 37 26 36 36 26 41 32 27 44 28 28 46 28 26 48 30 28 47 29 29 48 28 29 49 31 29 48 28 29 50 30 31 49 27 29 48 28 27 48 26 28 47 27 28 48 28 29 50 28 30 48 28 29 49 27 29 48 28 27 48 30 30 49 29 30 47 27 26 46 26 27 49 29 30 47 29 29 47 27 26 41 27 26 33 41 26 32 45 27 33 46 28 30 45 26 29 46 28 27 42 23 31 45 28 29 43 26 32 47 28 32 46 29 35 48 31 32 46 29 35 48 30 28 46 24 31 46 27 32 45 28 29 46 27 31 45 28 30 45 26 30 45 26 33 46 28 30 45 26 32 47 28 31 46 27 33 46 29 30 45 26 28 45 26 32 45 28 26 45 25 32 46 29 30 43 23 32 45 27 27 44 25 34 45 29 33 46 29 29 46 28 33 46 29 34 47 30 31 46 27 29 44 25 31 46 27 35 46 30 19 29 18 6 11 5 1 1 1 0 0 0 6 10 9 12 18 16 0 2 1 8 6 9 40 30 38 32 25 32 2 4 3 26 21 27 39 32 39 43 33 41 30 24 28 
40 29 25 38 27 23 39 28 22 39 28 24 39 28 22 38 29 22 39 28 24 38 27 23 38 29 22 38 27 21 37 28 23 18 13 9 6 4 5 0 0 0 1 1 1 6 8 5 21 33 21 32 45 28 31 42 26 34 42 27 38 35 28 38 31 23 44 28 28 47 28 30 48 28 27 47 27 26 47 27 28 47 27 26 50 30 31 49 29 30 47 27 28 48 28 27 47 27 26 47 26 25 48 26 28 48 28 29 49 29 30 47 29 29 48 28 27 49 29 28 47 27 28 47 27 26 49 28 27 46 28 28 43 29 26 35 35 27 32 45 27 33 46 28 32 45 28 35 49 32 31 44 26 28 45 26 32 47 28 30 44 29 33 46 29 34 45 29 32 47 28 34 47 30 28 45 26 32 47 28 31 46 27 27 42 23 31 46 27 34 47 30 31 45 28 27 42 23 31 46 27 28 45 26 31 45 28 30 47 29 29 44 25 34 45 29 32 45 27 32 46 29 32 45 28 33 45 31 32 46 29 30 43 26 28 45 26 33 46 28 30 47 31 32 44 30 32 45 28 22 28 16 5 5 5 2 2 2 2 0 1 4 4 6 10 16 16 19 31 29 11 17 15 1 1 1 1 0 0 21 19 22 40 31 36 27 20 27 5 5 5 30 28 31 49 39 47 48 37 45 
44 33 27 39 28 22 39 28 24 39 28 24 39 28 24 39 28 22 39 28 24 39 28 24 38 27 23 39 28 24 41 28 22 38 29 22 37 26 22 19 14 11 4 2 3 1 1 1 1 1 1 3 8 4 11 18 10 19 31 17 29 42 25 33 46 29 28 41 24 30 43 26 40 36 27 41 31 29 46 28 28 45 27 25 48 28 29 50 29 28 47 27 26 49 31 31 47 26 25 46 28 26 48 30 28 48 30 28 47 27 28 48 26 28 47 29 27 47 27 28 47 27 28 48 28 29 45 25 26 47 27 28 48 30 30 45 25 26 44 29 26 40 31 26 34 36 25 29 46 27 29 44 25 29 46 27 28 45 27 34 47 29 35 48 31 32 47 28 34 45 28 29 43 26 34 47 30 32 47 28 27 44 25 32 45 28 28 45 26 32 45 27 29 42 24 35 48 30 31 46 27 30 45 26 37 48 32 31 45 28 31 46 27 31 46 27 27 46 26 34 47 29 28 43 22 34 47 29 32 46 29 33 48 29 30 45 26 29 42 25 25 35 24 16 18 13 5 7 4 1 1 0 1 1 1 1 1 1 7 16 13 18 33 30 20 32 30 18 30 28 4 2 3 5 10 6 1 1 1 3 1 4 33 27 31 40 30 38 17 15 18 10 10 10 47 37 45 51 40 48 
47 34 28 41 30 24 41 27 24 39 28 24 39 28 24 40 29 23 42 28 25 39 28 24 41 28 22 40 29 23 39 28 22 39 28 22 39 28 24 39 28 24 32 23 18 27 17 15 9 8 6 1 1 1 1 1 1 0 0 0 1 1 1 9 14 8 24 36 22 31 46 27 33 48 29 31 46 27 26 39 21 34 36 25 36 32 23 41 32 27 47 29 29 46 26 27 47 27 29 46 28 28 47 27 26 47 29 29 47 27 26 47 29 29 48 28 29 47 27 28 47 27 26 48 28 27 47 27 26 49 31 31 49 29 28 47 27 28 47 32 29 48 28 27 49 29 30 43 29 28 39 30 23 39 35 24 28 39 23 29 46 28 30 45 26 33 47 30 30 47 28 31 46 27 32 45 28 31 45 28 32 45 28 30 45 26 33 46 29 32 47 28 31 46 27 33 47 30 29 46 27 29 43 26 33 47 30 33 46 29 29 43 26 31 44 26 35 46 30 30 45 26 33 48 29 31 45 28 31 45 28 28 40 26 10 12 7 2 2 2 1 1 1 0 0 0 1 1 1 4 4 4 1 1 1 10 19 16 18 33 28 21 33 29 21 33 29 10 16 14 4 6 5 19 29 28 6 8 5 1 1 1 18 16 19 42 33 36 42 32 40 8 8 8 30 25 29 49 38 46 
11 7 6 16 12 9 22 17 14 24 16 14 24 16 13 21 16 12 27 19 16 27 19 16 23 18 14 28 20 17 22 17 13 21 16 12 18 13 10 18 13 10 17 12 9 11 10 8 6 4 5 2 2 2 1 1 1 1 1 1 1 1 1 2 2 2 2 4 3 9 9 7 16 23 15 25 36 22 29 43 26 31 45 28 34 47 30 33 46 29 33 44 28 36 42 30 34 40 28 40 31 24 44 28 28 48 30 30 48 28 27 48 28 27 48 28 29 48 28 30 47 27 28 48 27 26 47 27 26 47 27 28 48 26 28 48 28 27 47 29 27 48 30 30 46 26 27 47 26 25 49 31 31 47 29 25 43 27 27 44 28 28 42 31 27 34 34 24 29 40 23 34 45 29 33 47 32 32 47 28 32 45 28 28 45 26 32 45 25 33 47 30 31 45 28 30 45 26 31 45 28 30 45 26 34 48 31 34 47 30 32 45 28 29 46 27 30 45 26 33 46 28 23 34 20 14 24 13 8 10 5 2 2 2 1 1 1 1 1 1 3 3 5 18 13 17 27 23 24 29 23 27 0 0 0 5 11 11 21 33 29 20 32 28 17 32 27 2 2 2 5 5 5 0 3 4 4 4 4 2 2 4 4 4 4 35 28 36 50 40 48 33 28 32 8 6 9 46 36 44 
5 5 3 2 2 0 1 1 1 0 0 2 0 2 1 1 1 1 0 0 0 2 2 2 1 1 1 1 1 1 0 0 2 0 0 0 2 0 1 1 1 1 2 2 2 2 2 2 2 2 2 4 4 2 9 8 4 17 17 9 25 21 9 12 11 6 2 2 0 0 0 0 2 1 0 1 1 1 5 10 4 20 28 17 21 31 20 29 43 26 29 44 25 33 48 29 29 44 25 30 45 26 29 42 24 32 34 23 40 29 25 49 29 30 48 28 29 48 28 27 48 30 30 47 27 26 49 29 30 48 28 27 48 28 27 49 29 30 49 29 30 47 27 26 48 28 27 48 27 26 46 28 28 46 28 28 49 31 29 47 29 29 50 28 30 49 31 29 46 26 25 42 29 23 38 29 24 36 36 28 35 43 28 36 47 33 33 48 27 32 46 29 32 45 27 31 46 27 32 45 28 33 44 28 34 47 30 30 44 27 28 41 24 24 35 21 19 26 19 4 9 5 1 1 1 1 1 1 1 1 1 1 1 1 14 10 11 31 26 30 35 29 33 31 25 29 21 17 18 16 14 17 3 3 3 1 2 4 14 25 21 21 33 29 19 31 27 8 17 16 12 21 18 16 28 24 24 39 36 9 15 15 0 0 0 13 11 14 49 39 47 51 40 48 10 8 9 30 24 28 
47 41 19 44 39 19 42 37 18 33 30 13 35 29 15 35 29 15 22 20 8 28 24 13 31 28 13 30 27 12 28 24 12 21 21 9 27 23 11 31 28 13 34 31 14 34 31 14 35 32 15 37 34 15 39 34 15 39 34 15 40 34 18 39 34 15 33 30 15 29 25 13 19 16 9 8 7 3 1 1 1 0 0 0 0 0 0 1 1 0 6 8 3 13 20 12 15 25 14 23 33 22 28 39 23 29 46 27 31 44 26 32 38 24 41 34 28 42 26 26 48 26 28 47 27 26 48 30 30 47 29 27 47 27 28 47 29 29 48 28 30 46 26 27 48 26 28 46 27 29 49 29 28 48 28 29 48 28 29 46 26 25 47 27 26 47 27 28 48 30 30 46 28 28 46 28 28 47 27 28 47 27 28 41 30 26 39 28 22 34 34 24 34 40 28 23 34 20 21 32 18 19 24 17 17 22 15 5 7 4 1 1 1 0 2 1 0 0 0 1 3 0 7 9 6 8 14 12 3 3 3 2 2 2 31 26 30 25 20 24 8 6 7 7 5 6 15 13 14 3 3 1 8 8 8 0 0 0 7 11 10 19 34 29 22 34 32 23 40 34 24 39 34 21 36 31 19 35 32 24 40 37 4 6 5 2 2 2 27 20 27 49 39 47 39 32 39 6 6 6 
50 44 22 49 43 21 50 44 22 49 43 21 50 44 22 50 44 22 50 44 22 49 45 20 50 44 20 49 43 21 49 43 21 41 36 16 38 35 16 40 35 16 40 34 18 39 34 15 39 34 15 40 35 16 40 35 16 41 36 17 40 35 16 39 34 15 40 35 16 40 34 18 39 34 15 39 34 15 30 26 14 15 12 5 8 9 3 5 4 0 0 0 0 0 0 0 0 0 0 1 1 1 4 4 2 6 8 3 8 13 7 12 19 11 15 22 14 25 28 19 40 21 23 42 24 22 47 27 28 48 28 29 47 27 26 49 29 30 50 30 31 47 29 29 47 27 28 48 26 28 46 26 27 47 27 28 48 29 25 47 27 26 49 31 29 47 31 31 49 31 31 47 28 30 45 27 27 40 24 24 34 20 19 25 15 16 20 11 12 14 11 6 10 6 7 2 2 2 0 0 0 0 0 0 1 1 0 1 2 4 4 4 4 4 8 7 6 6 6 9 13 12 20 32 28 19 34 29 7 9 8 0 0 0 3 3 3 6 4 5 21 19 24 29 24 28 10 8 11 12 10 11 32 26 30 3 3 3 2 4 3 12 18 16 13 23 22 9 15 13 5 7 6 2 4 3 1 1 1 21 36 31 10 16 16 1 1 0 3 1 2 34 27 34 46 36 44 15 10 14 
50 44 20 50 44 20 50 44 20 50 44 20 49 43 21 49 43 19 52 44 21 48 43 21 49 45 20 49 43 19 49 44 24 48 42 18 46 41 19 42 37 17 42 35 17 40 35 16 40 35 16 40 35 16 37 34 15 40 35 16 41 36 17 40 34 18 38 35 16 41 36 17 40 35 16 39 34 15 39 34 15 40 34 18 32 29 14 17 17 9 2 2 2 0 0 0 2 2 0 4 4 4 1 1 1 1 1 1 0 0 0 1 1 1 1 1 1 1 1 1 2 4 3 2 2 2 15 6 7 22 13 14 34 20 20 43 25 25 46 26 27 47 29 29 47 29 29 48 26 28 47 29 29 47 26 25 49 29 30 48 28 27 46 28 28 33 22 20 21 13 11 12 6 6 2 2 2 2 0 1 1 1 1 1 1 1 2 2 4 1 1 1 1 1 1 1 1 1 7 5 6 8 8 8 1 1 1 3 7 6 19 31 27 20 32 28 19 30 26 15 27 25 16 26 25 18 29 25 12 23 19 1 1 1 12 10 13 36 30 34 27 22 26 3 3 3 14 12 13 35 28 35 37 28 33 11 9 12 0 0 0 1 1 1 2 8 6 14 23 22 17 29 25 4 8 7 5 9 8 24 39 34 10 19 18 2 0 1 2 2 2 1 1 1 4 4 4 2 2 2 
51 45 21 49 43 19 50 44 20 50 44 20 49 43 19 48 44 19 50 44 20 50 46 21 49 43 21 49 43 19 50 44 20 48 44 19 50 44 20 49 43 19 48 42 20 45 39 17 43 38 18 40 35 16 39 34 15 40 35 16 39 33 17 39 34 15 40 35 16 39 34 15 40 35 16 35 32 13 31 29 16 17 14 5 4 2 3 1 1 1 2 2 2 8 10 9 14 23 20 14 25 21 12 21 18 10 19 16 11 20 19 11 17 15 2 4 3 1 1 1 1 1 1 0 0 0 0 0 0 0 0 0 1 1 1 2 2 0 5 4 2 11 7 6 19 11 9 22 14 12 21 13 11 20 11 12 12 8 7 4 2 3 3 1 2 1 1 1 0 0 0 1 1 1 1 1 1 2 2 4 1 1 1 4 4 6 25 20 24 27 22 26 4 2 3 18 16 19 37 31 35 36 29 36 5 3 4 1 1 1 17 29 27 16 28 26 18 30 26 20 32 28 6 12 10 11 17 15 17 28 24 1 1 3 2 2 2 34 29 33 6 6 8 20 15 19 36 30 34 26 21 27 5 5 5 10 8 9 4 4 4 1 1 1 14 25 21 22 39 33 8 12 11 6 12 10 23 40 34 25 41 38 12 18 16 1 1 1 22 33 25 13 18 14 3 8 4 10 12 9 
49 43 19 49 43 19 50 44 20 49 43 21 49 43 21 49 43 19 49 45 20 49 45 20 49 45 20 49 43 21 49 43 21 49 44 22 50 44 20 50 44 20 50 44 22 51 43 22 49 43 21 45 40 18 42 37 17 40 35 16 39 34 15 37 34 17 34 31 14 30 26 14 21 18 9 5 4 0 2 2 2 1 1 0 4 6 5 8 12 11 12 21 18 17 26 23 17 26 23 16 27 23 15 26 22 15 26 22 17 26 23 9 15 13 1 1 1 5 9 8 19 29 31 16 21 24 10 15 18 3 3 3 1 1 1 2 2 4 0 0 0 1 1 1 1 0 0 0 0 0 2 0 1 0 0 0 0 0 2 1 1 1 1 1 1 1 1 1 0 0 0 6 10 9 13 22 19 18 29 23 2 2 0 2 0 1 35 28 35 33 27 31 2 0 1 34 28 32 41 29 39 38 32 36 9 7 8 0 0 0 1 3 2 2 4 3 6 10 9 18 33 28 5 7 6 13 24 20 19 34 29 8 10 9 0 0 0 27 22 26 16 14 17 4 2 3 4 4 4 14 12 15 33 26 33 49 38 44 15 13 14 1 1 1 2 4 3 9 14 8 4 8 7 23 38 33 25 42 36 21 36 33 6 7 9 4 6 5 32 48 38 32 50 38 31 47 37 32 48 37 
41 36 16 44 39 19 47 42 20 48 43 21 49 45 18 48 43 21 49 43 21 48 43 21 49 43 21 49 43 21 50 44 20 49 43 21 49 43 19 50 44 20 49 45 20 49 43 21 48 42 20 45 40 18 40 35 16 35 32 15 18 15 6 9 8 4 3 3 3 2 2 2 1 1 1 3 5 4 8 12 11 11 17 15 14 25 21 15 26 22 16 27 23 16 27 23 15 26 22 16 27 23 17 28 24 16 27 23 9 15 13 2 2 2 4 5 7 16 28 28 23 34 36 25 35 37 11 19 21 1 1 1 3 3 3 22 17 23 22 17 24 18 16 21 8 8 10 0 0 0 0 0 0 4 6 3 2 2 2 2 2 0 13 19 17 15 24 21 6 7 9 11 22 18 21 33 29 18 33 28 2 4 3 0 0 0 31 26 30 16 11 15 13 11 14 38 32 36 38 32 36 39 29 37 16 14 17 1 1 1 7 11 10 18 33 28 19 31 27 21 33 29 14 23 20 19 34 29 22 37 34 17 27 26 2 2 2 8 8 10 48 37 45 44 34 42 42 36 40 47 37 45 27 22 26 11 9 10 12 12 14 1 0 0 2 2 2 1 0 5 10 16 14 13 24 20 9 15 15 6 8 7 1 1 1 16 22 18 35 48 38 33 49 38 32 48 37 33 49 39 
2 2 4 2 2 4 8 7 3 14 13 8 19 16 9 21 19 7 17 14 7 24 22 10 27 25 13 19 16 7 27 25 13 18 18 10 18 15 8 16 13 8 14 15 9 12 13 7 7 8 3 3 5 2 0 0 0 0 4 0 2 0 1 2 2 2 7 9 8 9 15 13 11 20 17 14 25 21 16 26 25 15 26 22 16 27 23 16 26 25 17 27 26 16 27 23 15 26 22 16 26 25 16 27 23 10 16 12 2 2 2 4 6 5 20 29 34 24 33 38 24 33 38 23 33 35 3 5 4 1 1 1 28 22 32 35 27 38 34 28 38 35 27 38 7 5 6 2 4 1 2 2 2 12 18 14 3 5 4 7 11 10 19 34 29 19 34 29 6 12 10 10 16 16 20 32 30 18 33 30 6 10 9 2 2 2 24 19 23 3 3 3 33 27 31 41 30 38 38 31 38 40 30 38 32 25 32 1 1 1 3 7 6 19 31 27 12 21 18 19 34 29 23 40 34 23 38 33 8 13 16 15 26 22 2 2 2 1 1 1 34 25 30 49 39 47 30 25 32 8 8 8 14 9 13 38 29 34 12 10 13 2 2 2 19 30 24 5 5 3 1 1 1 0 0 0 3 1 4 6 7 9 18 27 22 33 49 38 32 50 38 33 49 38 33 51 39 34 50 39 
8 14 12 6 10 9 4 6 5 3 5 4 3 3 3 1 1 1 3 3 3 1 1 1 1 1 1 0 0 0 2 0 1 1 1 1 1 1 1 2 2 2 1 3 2 1 5 4 4 6 5 5 7 6 6 10 9 8 12 11 11 22 18 17 28 24 21 33 29 18 33 28 20 32 28 18 30 26 17 29 25 19 31 29 19 31 27 19 30 26 16 27 23 16 27 23 17 28 24 15 24 21 6 10 9 1 1 3 4 5 7 19 29 30 23 32 37 24 34 36 24 34 36 14 20 20 1 1 1 13 8 12 34 26 37 36 28 39 35 27 40 24 19 26 1 1 1 11 13 10 2 2 2 4 4 4 3 3 3 5 9 8 20 32 30 20 32 30 9 13 12 6 12 10 19 34 29 21 33 29 10 19 16 0 0 0 4 4 4 16 11 15 40 30 38 39 29 37 40 30 38 39 32 39 33 26 33 4 4 6 0 0 0 8 12 11 4 6 5 22 41 35 17 29 25 22 38 35 17 29 27 18 33 28 2 2 0 0 0 0 5 5 5 8 8 10 6 4 7 31 26 30 49 39 47 41 31 39 2 2 2 9 9 9 32 48 38 32 48 37 26 39 30 23 34 28 20 31 25 34 47 38 34 50 39 33 49 38 32 50 36 33 50 40 33 49 39 33 49 38 
20 32 28 20 32 28 20 32 28 20 32 28 17 28 24 14 25 21 18 29 25 11 22 18 13 22 19 16 27 23 15 26 22 17 26 23 14 23 20 16 27 23 19 31 27 19 31 27 20 32 28 20 32 28 20 32 28 21 33 29 21 33 29 20 35 32 22 33 29 18 33 28 21 33 29 21 33 29 19 34 29 21 33 31 20 32 28 19 35 32 21 33 29 18 30 26 11 20 17 1 3 2 1 1 1 3 5 4 21 31 33 27 38 42 25 36 40 24 35 37 14 19 23 1 3 2 8 6 9 32 26 36 35 27 38 35 27 38 36 28 39 13 8 14 0 2 1 4 5 7 1 1 1 5 7 4 2 4 3 3 5 4 17 28 24 20 32 30 16 27 21 5 6 8 18 33 28 20 32 28 15 26 22 0 0 0 3 3 5 43 33 41 46 36 44 43 36 44 47 38 43 38 29 34 3 3 5 7 7 7 2 2 2 5 5 7 20 35 30 19 35 32 2 4 3 24 40 37 26 43 37 23 40 34 3 5 4 1 2 4 0 0 0 1 1 1 32 27 33 50 40 49 50 39 47 19 15 16 0 0 0 23 32 27 33 49 39 33 49 39 33 49 38 33 49 38 33 49 38 31 48 38 33 48 41 33 49 39 35 48 39 37 49 39 33 49 38 33 49 39 
21 33 29 21 33 29 21 33 29 21 33 29 19 34 29 21 33 29 21 33 29 20 35 30 21 33 29 21 33 29 21 33 29 21 33 29 19 34 29 21 33 29 20 32 28 21 33 29 19 34 29 20 32 28 21 33 29 21 33 29 21 33 29 20 32 28 19 34 31 23 34 30 22 34 32 19 34 29 20 35 30 20 32 28 19 34 29 21 33 29 15 27 23 7 11 10 2 2 2 2 4 3 17 25 27 27 38 42 29 42 48 28 43 46 29 43 46 24 33 38 2 4 3 3 3 3 34 24 35 35 27 38 36 28 39 37 26 40 31 23 34 1 1 1 9 14 10 14 23 18 2 2 2 14 20 16 10 16 12 1 1 1 14 23 20 19 34 29 16 26 25 2 4 3 23 40 34 24 39 34 25 40 37 3 3 3 2 2 2 36 30 34 48 39 44 39 32 39 20 15 19 3 1 2 29 24 28 23 19 20 2 2 2 2 2 2 20 35 32 18 33 28 12 18 16 25 42 36 19 31 27 19 34 29 2 2 2 11 16 12 13 19 15 1 1 1 2 2 2 13 11 14 18 14 15 2 2 2 10 12 9 32 48 37 33 51 39 31 49 37 33 49 38 33 49 38 35 48 38 32 48 37 34 50 39 33 49 38 33 49 39 33 49 39 33 49 38 33 49 36 
20 32 28 19 34 29 21 33 29 18 33 28 21 33 29 22 34 30 23 35 31 22 34 30 22 34 30 20 32 28 21 33 29 22 34 30 20 35 30 17 32 27 21 33 29 21 33 29 20 32 28 21 33 29 20 32 28 22 34 30 20 32 28 19 34 29 21 33 29 21 33 29 21 33 29 21 33 29 20 32 28 20 32 28 15 26 22 4 8 7 2 2 2 2 2 2 3 7 8 20 31 33 28 43 46 28 43 48 29 42 48 29 45 45 25 36 40 9 10 12 2 4 3 31 23 34 46 33 50 44 33 47 43 32 46 36 26 37 10 8 11 0 2 1 13 19 15 25 37 27 3 3 3 12 18 14 17 28 22 0 0 0 10 16 14 20 32 28 19 31 27 6 8 7 17 28 24 24 43 37 24 41 35 3 5 4 2 0 1 21 17 18 12 12 12 5 3 4 19 14 18 44 34 42 50 40 48 24 19 23 1 1 1 1 1 1 5 11 9 24 39 36 25 42 36 24 41 35 9 13 14 10 14 13 1 1 1 20 31 25 34 47 37 26 37 29 13 18 14 2 2 2 2 2 2 6 8 7 30 43 34 33 49 38 35 48 38 33 49 38 33 49 38 33 49 39 34 50 40 34 50 39 33 49 38 33 51 39 33 49 38 33 49 38 32 50 38 33 49 36 
21 33 29 21 33 29 21 33 29 19 34 29 21 33 29 22 34 30 21 33 29 21 33 29 20 32 28 20 32 28 19 31 27 20 32 28 20 35 30 19 34 29 22 34 30 20 32 28 21 33 29 21 33 29 21 33 29 21 33 29 19 34 29 19 34 29 21 33 29 21 33 29 17 32 27 15 24 21 8 14 12 3 7 6 2 2 2 3 3 3 6 10 11 17 25 28 29 40 44 29 43 46 30 44 47 30 43 49 29 43 46 24 38 41 5 9 8 2 2 0 25 20 27 44 33 47 44 33 47 46 35 49 44 33 47 27 20 28 1 1 1 6 8 7 24 35 27 14 20 16 1 3 2 2 4 3 12 18 16 2 2 2 4 6 5 19 31 29 21 33 29 13 19 17 13 22 19 26 43 37 25 41 38 6 12 10 0 0 0 1 1 1 23 18 24 45 35 44 50 39 47 49 39 47 46 40 44 9 7 8 4 4 2 12 17 13 1 0 0 5 9 8 14 23 22 14 23 20 9 15 13 2 2 2 10 12 7 32 48 38 36 49 40 32 48 38 33 49 39 31 44 35 32 45 35 28 48 37 32 48 38 33 49 38 32 48 38 33 49 38 33 49 39 33 49 39 32 50 38 33 49 38 32 48 37 33 49 39 33 49 36 32 48 37 33 51 39 32 50 38 
21 33 29 20 32 28 18 33 28 21 33 29 20 32 28 21 33 29 20 32 28 21 33 29 21 33 29 21 33 29 19 34 29 21 33 29 18 35 29 20 35 30 21 33 29 22 34 30 19 34 29 18 33 28 21 33 29 21 33 29 19 31 27 15 26 22 12 18 16 7 11 10 6 8 7 1 3 2 2 2 2 4 6 5 14 18 21 23 34 36 27 41 44 30 44 47 28 43 46 29 43 46 29 42 48 31 45 48 22 33 35 5 6 10 3 1 2 17 14 21 44 34 45 44 33 47 45 34 48 45 34 48 40 29 43 5 3 4 1 1 1 18 27 22 23 34 28 2 4 1 0 0 0 3 3 3 12 18 14 7 11 10 1 1 1 18 29 25 20 32 30 15 26 22 8 12 11 26 43 37 24 41 35 4 6 5 4 4 4 1 1 1 19 15 16 48 39 44 46 39 46 49 39 48 39 33 37 0 0 0 11 16 12 33 49 39 10 15 11 3 3 3 0 0 0 2 0 1 1 1 1 6 12 8 24 37 30 33 49 39 33 49 39 33 49 39 33 49 39 31 51 39 34 50 39 33 49 38 33 49 38 34 47 37 33 49 39 33 49 38 33 49 39 32 50 38 34 47 38 32 49 39 32 49 39 31 49 37 33 49 39 32 48 38 32 48 38 23 36 27 
7 11 10 10 14 13 11 20 17 14 23 20 18 30 26 19 30 26 17 28 24 17 29 25 20 32 28 19 30 26 17 29 25 18 30 26 17 29 25 16 28 24 14 26 22 16 27 23 16 27 23 11 20 17 12 18 16 9 13 12 6 8 7 2 4 1 1 1 1 2 2 2 2 3 5 11 15 18 22 31 36 27 38 40 31 42 48 29 43 46 29 43 46 29 43 46 31 42 46 28 42 45 30 44 47 27 38 42 6 10 9 2 2 2 24 19 26 44 33 47 46 35 49 43 35 48 45 34 48 45 34 48 19 14 20 1 1 1 10 14 13 25 38 29 25 38 31 23 36 27 3 5 4 10 15 11 26 39 32 13 18 14 1 1 1 8 14 12 22 34 30 19 31 27 2 6 5 23 42 36 22 37 32 2 2 2 7 9 8 7 11 10 0 0 0 26 20 24 49 39 47 50 40 48 18 16 19 1 1 1 25 36 28 31 47 36 32 48 37 30 43 34 19 28 23 17 26 21 26 39 30 28 44 34 32 48 37 32 50 36 33 49 39 32 48 37 31 48 38 33 49 39 33 49 38 33 49 39 32 48 38 26 39 30 31 47 36 33 49 39 33 49 38 34 50 40 32 50 38 32 49 39 30 50 39 33 49 38 32 48 37 31 44 35 17 23 19 2 2 2 
2 2 4 2 2 2 2 2 2 1 3 2 3 3 3 3 3 3 2 2 2 3 3 3 5 5 5 4 4 4 3 5 4 4 4 4 1 3 2 3 3 3 2 2 2 1 1 1 1 1 1 0 2 1 0 2 1 2 2 2 3 3 3 7 8 10 14 20 20 24 35 37 25 39 40 28 41 47 29 43 46 28 42 43 28 43 48 30 44 47 29 42 48 29 43 46 29 43 46 28 42 45 20 28 30 7 8 10 1 3 0 27 20 28 43 33 44 46 35 49 46 34 48 44 33 49 45 34 48 34 27 35 4 2 5 4 6 5 25 35 27 26 39 30 25 38 29 7 11 10 1 1 1 3 5 4 24 35 29 20 33 24 1 3 2 5 7 6 21 33 29 23 40 34 1 1 1 23 35 31 17 28 24 1 1 1 12 18 16 29 42 33 4 6 3 3 3 3 26 21 25 35 26 31 7 7 7 3 5 4 33 44 36 33 49 38 34 50 39 33 51 39 33 49 39 34 50 39 32 48 38 33 49 38 32 50 38 35 48 38 33 49 39 32 48 38 33 49 38 33 49 38 33 49 39 27 38 30 7 12 8 0 2 1 23 36 27 33 49 38 32 50 38 33 49 38 31 47 37 32 50 38 33 49 38 32 48 38 27 40 31 5 10 6 2 2 2 5 3 6 
25 36 40 23 34 36 19 24 28 16 24 26 14 19 22 9 10 12 9 13 16 8 12 13 5 5 5 6 12 10 6 10 11 8 9 13 6 10 11 7 8 10 8 12 13 13 17 20 15 23 25 15 23 25 20 28 31 21 29 32 24 35 39 29 40 44 29 42 48 29 42 48 30 43 49 28 42 45 30 44 47 29 42 48 29 43 46 29 44 49 30 43 49 29 43 46 26 37 41 12 16 19 1 1 1 4 4 6 16 14 19 44 33 47 44 33 49 46 36 47 46 35 51 45 34 50 36 28 41 6 4 7 2 2 4 14 23 18 25 38 29 27 38 30 24 37 28 10 12 9 0 2 1 4 9 5 22 32 24 26 37 31 11 17 15 0 0 0 14 23 20 24 40 37 6 10 11 15 26 22 12 18 16 1 1 1 20 31 25 33 49 38 23 34 26 5 5 5 0 0 0 1 1 1 3 3 3 12 19 12 33 51 39 32 50 38 33 49 38 33 49 39 33 49 39 33 49 39 32 48 37 33 49 38 33 49 38 34 50 39 35 48 38 33 49 39 32 48 37 33 49 39 30 46 36 5 5 5 6 8 7 20 30 22 31 48 38 33 49 39 31 48 38 33 49 39 31 48 38 33 49 38 31 44 35 12 16 15 4 6 5 1 1 0 17 7 8 40 14 13 
29 43 46 29 43 46 29 43 46 29 43 46 30 44 47 28 42 45 30 44 47 28 42 45 28 42 45 28 43 46 28 43 46 29 42 48 29 43 46 28 41 47 29 42 48 28 42 45 28 42 45 29 42 48 29 42 48 29 43 46 30 44 47 28 43 48 32 43 47 29 43 46 29 43 46 29 42 48 29 42 48 29 42 48 29 43 46 29 42 48 24 33 38 12 16 17 1 3 2 0 2 1 14 12 15 41 30 44 44 33 47 46 35 49 44 33 49 47 34 51 45 34 48 41 30 44 4 2 3 0 2 1 17 28 20 26 39 30 26 37 29 26 37 29 25 38 29 24 35 27 2 2 2 13 19 15 26 37 29 25 38 29 23 34 28 3 3 3 3 7 6 21 38 32 11 20 17 3 5 4 1 1 1 8 10 9 32 45 36 33 49 38 33 49 39 32 45 36 22 31 26 17 22 18 25 37 27 32 48 37 36 49 40 33 49 39 33 49 38 33 49 38 32 48 38 33 49 39 32 49 39 32 48 38 30 48 36 26 39 30 32 48 38 32 48 38 33 49 38 33 49 38 33 50 40 29 45 35 32 49 39 33 49 39 32 48 37 31 48 38 31 49 37 32 48 38 31 44 35 17 26 21 4 4 4 0 2 1 13 5 3 39 15 15 50 18 19 49 19 17 
28 43 48 29 42 48 29 43 46 31 42 46 30 43 49 30 43 49 28 43 46 28 42 45 29 42 48 29 43 46 29 43 46 28 43 46 30 44 47 29 43 46 28 43 46 28 43 46 29 43 46 29 43 46 29 43 46 30 44 47 29 43 46 29 43 46 30 43 49 29 43 46 29 43 46 29 43 46 30 44 47 28 42 45 23 33 35 13 17 18 1 1 1 1 1 0 4 4 4 19 16 23 44 33 47 44 33 47 45 34 50 46 35 51 44 33 47 45 34 48 44 33 47 11 9 12 1 1 1 19 28 23 33 46 37 26 39 30 27 38 30 26 37 29 20 26 22 15 20 16 3 1 2 2 2 0 5 5 5 22 33 25 26 37 29 17 23 19 1 1 1 5 7 6 5 7 6 1 1 1 6 8 7 27 40 33 33 49 39 33 49 39 31 48 38 32 48 37 33 49 38 33 48 41 32 49 39 33 49 39 33 49 38 32 48 38 33 49 39 32 48 38 32 48 38 33 49 38 32 48 38 33 49 39 15 21 17 4 4 4 31 47 37 33 51 39 33 49 38 32 50 38 33 49 38 33 49 38 31 47 37 33 49 36 29 49 38 33 49 39 32 48 37 23 36 27 6 8 7 1 1 3 1 1 1 25 9 9 49 19 19 47 17 17 49 19 19 49 19 19 
29 43 46 29 42 48 29 43 46 28 43 48 30 41 47 28 42 45 29 43 46 29 43 46 31 42 46 26 44 46 29 44 47 28 42 45 31 42 48 30 44 47 29 43 46 30 44 47 28 43 46 32 43 47 29 43 46 29 43 46 29 43 46 29 42 48 30 44 47 28 43 48 28 42 45 26 37 41 13 18 21 6 8 7 2 2 2 1 1 1 6 6 8 22 17 24 41 31 42 45 34 48 45 34 50 45 34 50 45 34 50 45 34 48 45 34 48 43 32 46 20 15 19 1 1 3 10 16 14 30 47 37 30 46 36 27 40 31 27 38 30 25 38 29 6 8 5 2 2 2 0 0 0 1 3 0 12 17 13 26 37 31 25 38 29 27 38 30 13 19 15 2 2 2 2 2 2 15 21 17 30 46 36 33 49 38 33 49 38 33 49 39 32 48 38 33 49 39 33 49 38 32 48 38 32 48 38 32 48 38 32 48 38 33 49 39 32 48 38 31 44 35 25 38 29 33 49 38 33 49 39 33 49 38 27 40 31 30 43 34 31 47 37 33 49 39 32 48 38 33 48 41 33 48 41 32 48 37 33 49 38 31 48 38 31 47 37 23 29 25 10 12 11 2 0 1 1 1 1 23 9 9 46 17 19 47 17 17 48 20 17 49 19 17 49 19 17 49 19 19 
27 41 44 28 42 45 28 43 48 28 42 45 29 42 48 30 44 47 30 44 47 30 44 47 28 43 46 28 43 46 29 43 46 29 43 46 29 43 46 30 44 47 28 42 45 29 43 46 29 43 46 30 44 47 31 42 46 29 43 46 29 43 46 21 35 35 15 23 25 8 12 13 5 6 8 2 2 2 1 1 1 5 3 4 12 10 13 31 24 32 43 32 46 46 35 49 45 34 48 45 34 48 45 34 48 46 34 48 46 35 51 44 33 49 42 31 45 16 14 19 1 1 1 8 13 9 29 45 35 33 49 39 31 47 37 28 39 31 27 38 30 25 38 29 23 36 27 20 29 24 1 1 1 10 15 11 27 38 30 25 38 29 26 39 30 26 39 30 31 44 35 27 40 31 30 43 34 32 48 38 32 50 38 32 48 38 32 49 39 32 48 38 33 49 38 33 49 38 34 50 40 34 47 38 31 47 37 30 46 36 28 39 31 16 26 18 13 19 15 1 1 1 3 5 2 31 47 37 32 49 41 33 49 39 34 50 40 33 49 39 33 49 39 34 50 40 34 50 39 32 50 38 34 49 42 34 50 39 31 47 37 18 27 22 2 4 3 0 1 3 2 2 2 23 9 8 38 14 14 49 19 17 50 19 17 50 18 19 48 18 18 48 18 18 49 19 17 48 18 18 
5 5 5 4 8 7 6 10 11 12 18 18 15 23 26 20 30 32 24 32 35 19 27 30 21 32 34 22 36 37 21 31 33 21 35 36 23 33 35 21 29 32 20 28 31 16 26 27 18 26 28 17 22 25 10 15 18 8 12 13 7 9 8 2 2 2 1 1 1 1 1 1 6 4 5 10 10 12 27 22 29 41 33 46 46 34 48 47 36 50 46 35 51 45 34 50 45 34 48 45 34 48 45 34 48 47 36 52 44 36 49 41 33 48 14 12 17 0 0 0 12 17 13 30 46 35 32 48 37 32 48 38 32 48 38 29 42 33 26 37 29 27 40 31 26 37 29 25 36 28 3 3 3 10 12 9 12 18 14 8 12 11 15 19 18 25 38 29 31 44 35 32 48 38 33 49 39 32 48 38 33 49 39 33 49 38 33 49 38 34 50 39 27 40 31 14 19 15 13 19 15 10 12 9 6 8 5 1 1 0 0 0 0 1 3 2 3 5 4 11 17 13 26 39 30 33 49 38 33 49 38 34 47 38 32 48 38 32 48 38 33 49 39 32 48 37 31 49 37 31 47 37 19 28 23 14 19 15 3 5 2 0 0 0 3 1 2 24 8 9 43 17 16 49 17 18 48 18 18 50 18 19 48 18 16 49 19 17 50 20 18 47 17 17 49 19 19 36 15 12 
17 15 18 9 7 10 8 6 9 3 3 3 2 4 3 1 1 3 0 0 0 1 1 1 1 1 1 3 3 3 1 1 1 3 3 3 1 1 1 1 1 1 1 1 1 1 1 1 2 2 2 2 2 2 1 1 1 5 5 5 6 6 8 16 11 15 23 18 25 34 28 38 44 33 47 44 33 47 45 34 48 45 34 48 44 33 47 44 33 49 46 35 51 46 35 49 46 35 49 44 33 47 42 34 47 42 34 49 38 28 39 12 12 14 2 2 2 9 15 13 30 43 33 32 48 38 33 49 39 32 48 37 33 49 39 28 39 31 25 38 29 24 35 27 5 7 4 3 5 2 0 0 0 1 1 1 4 8 7 9 11 8 18 29 21 26 37 29 28 44 34 32 48 37 33 49 38 33 49 39 33 48 41 33 49 38 33 49 38 33 49 38 29 42 33 9 13 12 9 14 10 12 17 13 14 20 16 17 27 19 22 33 25 30 43 34 31 47 36 32 48 38 31 48 38 33 49 39 32 48 38 31 49 37 33 49 38 32 48 37 28 44 34 22 32 24 14 20 16 6 8 7 1 1 3 4 3 1 15 6 7 29 11 11 45 17 16 48 18 16 50 20 20 48 18 18 49 19 19 48 18 20 48 17 15 48 18 18 48 18 18 42 16 17 26 10 10 2 2 2 
45 34 48 43 32 46 46 34 48 40 29 43 39 28 42 34 26 39 23 20 27 28 23 30 24 19 26 15 14 19 27 20 28 25 20 26 25 20 26 24 19 25 23 18 25 28 22 32 34 26 37 37 29 40 39 28 42 42 31 45 42 31 45 44 33 47 45 34 48 45 34 48 46 34 48 45 34 50 46 33 50 46 33 50 44 36 49 45 34 48 45 34 50 44 33 47 44 33 47 45 34 50 44 33 47 27 20 28 3 3 5 1 3 2 9 13 12 31 47 37 32 48 37 32 50 38 32 48 38 32 48 38 31 47 37 27 40 31 27 38 30 26 37 29 13 19 15 12 18 14 1 1 1 8 12 11 24 37 27 25 38 29 25 38 29 25 38 29 26 39 30 30 47 37 32 48 38 33 49 39 33 49 38 33 49 38 32 49 41 35 48 38 33 49 38 31 47 37 32 48 38 32 48 37 33 49 38 33 49 38 31 49 37 32 49 39 32 48 37 33 49 38 34 47 38 32 48 38 32 48 38 28 44 31 24 35 27 12 17 13 4 4 4 1 1 0 1 1 0 4 3 1 24 8 8 46 17 19 50 18 19 49 19 17 49 19 17 48 18 18 49 19 19 49 17 18 48 18 16 49 19 19 49 19 17 47 17 17 25 11 11 4 2 3 1 0 0 6 5 3 
45 34 48 45 35 46 45 34 48 46 35 49 45 34 50 43 35 50 46 35 49 46 35 49 44 33 47 45 34 50 45 34 50 45 34 50 45 34 48 46 35 49 45 34 51 46 34 48 45 34 48 44 36 51 45 34 48 45 34 50 45 34 48 44 36 51 45 34 50 45 34 50 43 35 48 45 34 50 44 33 49 45 34 48 46 35 51 45 34 50 45 34 50 44 33 47 43 32 46 28 23 30 12 10 13 2 2 2 5 7 6 26 32 28 29 45 35 31 49 37 32 48 37 34 50 37 31 49 37 33 49 38 32 45 38 26 37 29 26 38 28 26 39 29 25 38 29 23 33 25 1 1 1 11 17 13 21 32 24 27 38 32 26 37 29 23 39 29 28 41 34 31 47 37 33 49 38 33 49 39 32 50 38 32 50 38 32 48 37 33 49 39 33 49 39 33 49 39 33 49 39 33 49 39 33 49 39 32 48 38 33 49 39 31 47 37 33 46 37 26 39 30 17 27 19 11 13 12 5 9 8 1 3 2 1 0 0 2 1 0 9 3 3 19 7 7 36 15 14 46 16 14 50 20 20 48 18 18 46 21 17 48 19 15 47 17 15 49 19 19 49 20 16 49 19 17 47 19 16 46 18 17 31 11 10 9 3 3 2 2 0 7 5 8 26 18 16 42 28 25 
38 30 41 40 32 45 41 33 46 45 34 48 46 35 49 44 33 47 45 34 48 44 33 47 45 34 50 45 34 48 46 33 50 45 34 48 45 34 48 45 34 48 45 34 48 45 34 50 44 33 49 46 35 49 45 34 50 46 33 51 46 33 51 45 34 50 45 34 48 46 35 49 47 34 51 46 35 49 45 35 46 45 34 50 45 34 50 45 34 48 44 33 47 30 24 34 10 8 13 2 2 2 1 1 1 7 12 8 26 39 30 31 48 38 32 48 37 33 49 38 32 48 38 31 48 38 32 48 38 32 50 38 30 43 34 25 38 29 25 38 29 25 36 28 15 24 19 8 10 7 1 1 3 2 2 2 1 1 1 21 30 25 25 38 29 24 40 30 29 45 35 32 50 38 33 49 36 33 49 38 33 49 38 32 48 37 35 48 39 33 49 39 33 49 39 32 48 38 31 48 38 32 50 38 30 46 36 28 41 32 19 28 23 10 15 9 5 7 6 3 3 5 1 1 3 2 2 2 7 3 4 13 4 5 22 8 8 35 14 13 47 17 17 50 18 19 49 19 19 49 19 21 50 18 19 49 19 17 49 19 21 48 18 18 48 18 18 49 17 18 48 18 20 44 18 17 23 8 11 9 3 5 1 1 1 4 4 2 16 12 9 41 30 24 50 35 28 49 34 27 
35 27 38 34 26 37 36 28 39 38 30 41 43 32 46 45 33 47 45 34 48 46 33 50 42 34 47 45 34 48 45 34 48 45 34 48 44 33 47 45 34 48 45 34 48 43 35 46 44 33 47 47 35 49 45 34 48 45 34 48 45 34 48 44 33 47 46 35 49 44 33 47 47 35 49 44 36 49 44 33 47 43 32 46 33 27 37 24 19 26 10 8 11 2 2 2 2 2 2 6 11 7 20 30 22 31 44 34 33 49 38 32 48 38 33 49 39 33 49 38 33 49 39 32 48 37 32 49 39 32 48 38 28 44 34 26 39 30 26 37 29 18 29 21 1 3 2 2 2 2 2 0 1 10 15 11 18 28 20 25 36 28 26 39 30 26 39 30 31 44 35 33 49 39 33 49 39 33 49 38 32 48 38 33 48 41 32 48 38 30 47 37 31 44 35 21 34 27 19 28 23 15 21 17 6 7 9 2 2 2 0 0 0 3 1 2 2 2 2 13 4 5 24 10 9 37 16 13 47 17 17 48 20 19 48 20 19 48 20 19 49 19 19 48 20 19 49 19 19 46 18 17 49 19 19 49 19 19 49 19 19 49 19 19 44 18 17 35 14 13 22 8 8 4 2 3 1 1 1 5 3 4 23 18 12 44 30 27 49 36 28 49 34 29 46 33 27 47 34 28 
26 21 28 34 26 37 34 26 37 35 27 38 38 27 41 43 32 46 46 34 48 44 33 49 43 35 48 43 35 48 43 35 50 45 34 50 45 34 50 45 34 50 45 34 50 44 33 49 46 34 48 45 34 50 44 33 47 44 33 49 44 36 49 46 35 49 46 33 50 43 32 46 35 27 38 24 19 26 19 14 21 11 9 12 2 2 2 1 1 1 3 5 4 17 23 19 26 37 29 30 46 35 33 49 38 31 48 38 33 49 38 33 49 39 32 48 38 33 49 39 33 49 38 33 49 38 32 48 35 32 48 38 29 45 35 26 39 30 25 38 29 25 38 29 24 36 26 23 30 23 0 0 0 15 21 17 26 39 30 25 38 29 26 37 29 25 38 29 30 43 34 33 49 38 31 47 36 26 39 32 26 39 30 19 30 24 10 16 12 7 12 8 3 5 4 1 1 1 1 1 1 2 0 1 12 3 4 20 8 8 24 10 7 35 15 16 45 17 16 47 17 15 48 18 18 48 18 18 47 19 18 49 19 19 49 19 19 49 19 19 48 18 18 47 17 15 47 17 17 47 19 18 49 19 19 47 19 18 40 16 14 23 9 9 4 3 1 2 0 1 2 2 0 13 9 8 28 23 17 46 33 27 48 35 27 49 36 30 49 36 30 50 32 28 48 35 29 48 35 27 
1 1 1 7 5 8 15 10 16 17 12 18 20 15 22 28 23 30 38 28 39 42 31 45 42 31 45 38 30 43 41 33 46 45 34 48 40 32 45 43 32 46 44 32 46 40 32 45 37 29 40 39 31 46 37 29 42 35 27 38 28 22 32 24 17 25 22 15 22 5 5 7 1 1 1 0 0 0 1 1 1 3 5 4 15 21 17 25 36 28 29 45 35 33 49 38 34 50 40 32 48 37 33 49 38 31 49 37 32 48 38 32 49 39 31 49 37 33 49 38 32 50 38 32 48 35 32 48 38 31 48 38 31 44 34 25 38 31 27 38 30 25 36 28 25 38 29 25 36 28 2 4 3 10 16 12 26 37 29 24 35 29 19 30 24 18 27 22 14 19 15 10 15 11 6 8 5 1 1 1 0 0 0 1 1 3 1 1 1 7 3 2 22 8 8 25 11 11 29 13 13 46 17 19 49 19 19 48 20 19 48 18 18 48 18 18 48 18 18 47 17 15 48 18 18 49 19 17 49 19 17 49 19 17 49 18 16 49 17 18 49 19 19 48 18 16 49 19 19 36 15 14 20 8 10 2 2 0 0 0 0 0 0 0 3 1 2 29 21 18 42 28 25 47 34 26 49 34 29 49 36 28 47 34 28 48 35 29 48 35 29 47 34 28 49 34 29 51 33 29 
12 16 15 4 6 5 3 3 5 1 1 1 1 1 1 2 0 1 1 1 1 3 3 3 6 6 6 3 3 3 5 5 7 8 8 10 3 3 3 10 8 11 6 4 7 3 3 3 2 2 2 2 2 0 1 1 1 1 1 1 1 1 1 0 2 1 0 0 0 3 3 3 7 9 8 17 26 21 26 39 30 30 43 34 33 49 39 35 48 39 31 47 37 33 49 38 33 49 38 33 49 38 32 48 38 34 47 38 32 48 38 32 48 38 35 48 39 33 49 39 33 49 38 32 49 39 31 48 38 31 48 38 27 45 33 26 37 29 26 37 29 26 36 28 24 35 27 16 23 16 0 0 0 3 7 6 4 6 5 1 1 1 0 0 0 0 0 0 1 0 0 3 1 2 10 4 4 15 5 6 22 11 9 27 11 11 41 17 17 49 17 18 49 19 19 49 19 19 48 18 18 49 19 17 48 18 18 49 19 17 49 19 17 48 18 16 49 19 19 48 20 19 50 18 19 48 18 18 48 18 18 49 19 19 44 18 17 31 13 11 26 10 10 18 8 7 10 4 4 1 1 1 1 1 1 0 2 1 16 12 9 31 21 19 41 30 24 48 35 27 48 35 27 49 34 29 49 34 29 48 35 29 49 34 29 48 35 27 48 35 29 49 36 30 49 34 29 49 36 30 
