P3
100 50
255
27 38 40 27 38 42 26 37 41 26 37 41 25 36 40 26 37 41 27 38 42 27 38 42 27 38 42 26 37 41 27 38 42 26 37 41 26 37 41 25 36 40 26 37 41 26 37 41 26 37 41 26 37 41 26 37 41 26 37 41 26 37 41 27 38 42 26 37 41 27 38 42 26 37 41 27 38 42 26 37 41 26 37 41 26 37 41 26 37 41 27 38 42 26 37 41 26 37 41 26 37 41 26 37 41 25 36 40 27 38 40 27 38 40 26 37 41 27 38 42 26 37 41 26 37 41 27 38 42 25 36 40 26 37 41 26 37 41 27 38 42 26 37 41 26 37 41 26 37 41 26 37 41 25 36 40 26 37 41 27 38 42 25 36 40 26 37 41 27 38 42 26 37 41 26 37 39 27 38 40 28 39 43 26 37 41 23 37 38 19 27 30 1 1 1 2 2 2 13 13 13 2 2 2 0 1 3 21 31 32 24 38 41 27 36 41 26 37 41 26 37 41 23 33 35 1 3 2 3 3 3 27 27 27 20 20 20 0 0 0 3 3 3 25 36 42 26 37 41 26 37 41 27 38 42 27 38 40 22 31 36 4 8 9 1 1 1 4 6 5 25 36 38 26 37 41 26 37 41 27 38 42 26 37 41 27 38 42 26 37 41 26 37 41 26 37 41 26 37 41 
26 37 39 26 37 41 26 37 41 26 37 41 27 38 42 26 37 41 26 37 41 26 37 41 25 36 40 27 38 42 26 37 41 27 38 42 26 37 41 26 37 41 26 37 41 26 37 41 27 38 42 26 37 41 26 37 41 27 38 42 26 37 41 26 37 41 27 38 42 26 37 41 26 37 41 26 37 41 25 36 40 25 36 40 27 38 42 26 37 41 26 37 41 25 36 40 27 38 40 25 36 40 26 37 41 27 38 42 26 37 39 26 37 41 26 37 41 26 37 41 27 38 42 26 37 41 26 37 41 26 37 41 26 37 41 26 37 41 26 37 41 26 37 41 26 37 41 27 38 42 25 36 40 27 38 42 26 37 39 27 38 40 27 38 42 26 37 41 26 37 41 26 37 41 26 37 41 26 37 41 27 38 42 24 38 39 27 38 40 24 38 39 14 22 24 1 1 1 4 4 4 4 4 4 1 1 1 11 15 16 27 38 42 24 38 41 27 38 40 26 37 41 26 37 39 5 6 8 1 1 1 15 15 15 23 23 23 0 0 0 2 2 2 25 34 39 27 38 42 26 37 41 26 37 39 23 37 40 26 37 39 25 35 37 9 13 16 13 18 22 26 37 41 26 37 41 26 37 41 26 37 41 26 37 41 27 38 42 26 37 41 26 37 41 26 37 41 26 37 41 
25 36 38 26 37 41 26 37 41 26 37 41 26 37 41 26 37 41 26 37 41 26 37 41 26 37 41 27 38 42 26 37 41 26 37 41 26 37 41 26 37 41 27 38 42 25 36 40 26 37 41 26 37 41 27 38 42 26 37 41 26 37 41 26 37 41 26 37 41 26 37 41 26 37 41 26 37 41 26 37 41 26 37 41 26 37 41 25 36 38 26 37 41 26 37 39 26 37 41 25 36 38 26 37 41 27 38 42 27 38 40 26 37 41 26 37 41 27 38 42 26 37 41 26 37 41 26 37 41 26 37 41 26 37 41 26 37 41 26 37 41 25 36 40 26 37 41 25 36 40 26 37 41 26 37 41 26 37 39 26 37 39 26 37 41 26 37 41 24 35 39 26 37 41 26 37 41 26 37 41 26 37 41 24 38 41 25 36 38 23 37 38 26 37 41 5 6 8 1 1 1 1 1 1 2 2 2 3 3 3 25 35 37 27 36 41 25 36 38 28 37 42 26 37 39 18 28 29 0 2 1 1 1 1 14 14 14 2 2 2 1 1 1 21 31 33 26 37 39 26 37 41 23 37 40 26 37 41 26 37 41 27 38 42 26 37 41 25 39 42 26 37 41 26 37 41 26 37 41 25 36 40 25 36 40 26 37 41 27 38 42 27 38 42 26 37 41 27 38 42 
26 37 39 26 37 41 27 38 42 26 37 41 26 37 41 27 38 42 26 37 41 26 37 41 26 37 41 26 37 41 26 37 41 26 37 41 26 37 41 27 38 40 26 37 39 27 38 42 27 38 42 26 37 39 27 38 40 27 38 42 27 38 42 27 38 42 26 37 41 25 36 40 26 37 41 27 38 42 26 37 41 26 37 41 27 38 42 27 38 42 26 37 41 26 37 41 27 38 42 26 37 41 25 36 40 26 37 41 26 37 39 25 36 40 26 37 43 26 37 41 27 38 42 27 38 40 27 38 42 26 37 41 26 37 41 27 38 42 26 37 41 27 38 42 27 38 42 26 37 41 26 37 41 26 37 41 26 37 41 27 38 42 26 37 41 26 37 41 27 38 42 27 38 42 26 37 39 27 38 40 27 38 42 26 37 41 24 38 39 26 37 41 26 37 41 19 31 31 3 5 4 1 1 1 0 2 1 0 0 0 14 22 24 27 38 42 26 37 39 26 37 41 27 38 40 26 37 39 10 12 11 1 1 1 2 2 4 2 2 2 1 1 1 16 24 26 27 38 40 26 37 39 27 38 42 27 38 40 26 37 41 26 37 41 24 38 41 26 37 39 26 37 41 24 37 43 27 38 42 26 37 41 26 37 41 26 37 41 26 37 41 26 37 41 26 37 41 26 37 41 
26 37 41 27 38 42 27 38 42 28 39 43 27 38 42 27 38 42 26 37 39 27 38 42 26 37 41 26 37 41 26 37 41 27 38 42 26 37 41 26 37 41 26 37 41 26 37 41 25 36 40 26 37 41 26 37 41 26 37 41 26 37 41 27 38 42 26 37 41 26 37 41 26 37 41 27 38 42 26 37 41 26 37 41 26 37 41 26 37 41 26 37 41 26 37 41 27 38 42 27 38 42 26 37 41 27 38 42 26 37 41 26 37 41 26 37 41 26 37 41 26 37 41 24 35 39 26 37 41 26 37 41 26 37 41 26 37 41 26 37 41 26 37 41 26 37 41 27 38 42 26 37 41 26 37 41 26 37 41 27 38 42 25 36 40 26 37 41 26 37 41 26 37 41 26 37 41 25 36 40 26 37 43 23 37 40 26 37 39 26 37 39 25 39 42 26 37 41 24 34 36 5 6 8 1 1 1 1 1 1 6 7 9 24 38 39 25 36 38 26 35 40 27 38 42 26 37 41 21 32 34 7 8 10 1 1 1 1 1 1 1 1 1 16 21 24 26 37 41 27 38 40 26 37 41 27 38 42 26 37 41 26 37 41 27 38 42 26 37 41 25 36 40 26 37 41 26 37 41 26 37 41 26 37 41 26 37 41 26 37 41 26 37 41 27 38 42 26 37 41 
25 36 40 26 37 41 27 38 42 25 36 40 27 38 42 26 37 41 26 37 41 26 37 41 26 37 41 27 38 42 26 37 41 26 37 39 25 36 40 27 38 42 26 37 41 26 37 41 26 37 41 26 37 41 27 38 42 26 37 41 26 37 41 26 37 41 26 37 41 27 38 42 26 37 41 26 37 41 26 37 41 26 37 41 27 38 42 26 37 41 26 37 41 26 37 41 26 37 41 26 37 41 26 37 41 27 38 42 26 37 39 27 38 42 26 37 41 27 38 42 25 36 40 26 37 41 26 37 41 26 37 41 26 37 41 26 37 41 26 37 41 26 37 41 26 37 41 26 37 41 26 37 41 26 37 41 26 37 41 27 38 42 26 37 41 26 37 39 26 37 41 26 37 41 26 37 41 26 37 41 26 37 41 26 37 41 26 37 39 26 37 41 27 38 42 25 39 40 27 38 40 23 31 34 8 12 13 0 0 0 3 5 4 26 37 39 26 37 39 27 38 42 26 37 41 27 38 42 26 37 41 25 36 38 9 13 16 1 1 3 0 0 0 8 13 16 27 38 42 25 36 38 25 36 40 25 36 40 26 37 41 26 37 41 26 37 41 27 38 42 26 37 41 27 38 42 26 37 41 26 37 41 27 38 42 26 37 41 27 38 42 25 36 40 26 37 41 27 38 42 
27 38 42 27 38 42 25 36 40 26 37 41 27 38 42 27 38 42 26 37 41 27 38 42 26 37 41 26 37 41 26 37 41 26 37 41 27 38 40 26 37 39 26 37 39 26 37 39 26 37 41 27 38 42 26 37 41 26 37 41 26 37 41 27 38 42 26 37 41 26 37 41 26 37 41 26 37 41 25 36 40 26 37 41 26 37 41 26 37 41 27 38 42 26 37 41 26 37 41 25 36 40 28 39 43 25 36 40 26 37 41 26 37 41 27 38 42 26 37 41 26 37 41 26 37 41 24 35 39 28 39 41 26 37 41 26 37 41 26 37 41 27 38 42 26 37 41 25 36 40 26 37 41 26 37 41 27 38 42 27 38 40 26 37 41 26 37 41 26 37 41 27 38 42 25 36 40 26 37 41 25 36 38 26 37 39 26 37 41 26 37 41 26 37 39 25 36 38 26 37 39 26 37 41 24 35 37 13 18 21 17 25 27 24 38 41 26 37 39 26 37 41 26 37 39 26 37 41 26 37 41 26 37 41 25 34 39 14 19 22 6 10 11 21 29 31 26 37 39 26 37 41 26 37 41 25 36 40 25 36 40 26 37 41 26 37 41 26 37 41 26 37 41 26 37 41 27 38 42 26 37 41 26 37 41 26 37 41 27 38 42 26 37 41 26 37 41 26 37 41 
27 38 42 25 36 40 27 38 42 24 38 41 27 38 42 26 37 41 25 36 40 26 37 41 26 37 41 26 37 41 26 37 41 26 37 43 26 37 41 26 37 41 25 36 40 27 38 42 26 37 41 26 37 41 26 37 41 26 37 41 27 38 42 26 37 41 26 37 41 26 37 41 25 36 40 26 37 41 26 37 41 26 37 41 26 37 41 26 37 41 26 37 41 25 36 40 26 37 41 26 37 41 26 37 41 26 37 41 26 37 41 26 37 41 26 37 41 27 38 42 26 37 41 26 37 41 27 38 42 25 36 40 26 37 41 27 38 42 26 37 41 25 36 40 26 37 41 26 37 41 26 37 41 26 37 41 26 37 41 26 37 41 27 38 42 26 37 39 26 37 41 27 38 42 26 37 41 25 36 40 26 37 39 27 38 42 25 36 40 26 37 39 27 38 40 26 38 38 25 36 42 25 36 40 26 37 43 26 37 41 26 37 41 26 37 41 27 38 42 25 39 42 26 37 41 27 38 42 27 38 40 26 37 39 24 35 37 24 38 41 25 36 40 26 37 39 27 38 42 23 37 38 25 36 40 26 37 41 26 37 41 26 37 41 26 37 41 27 38 42 26 37 41 26 37 41 26 37 41 26 37 41 26 37 41 26 37 41 26 37 41 26 37 41 26 37 41 26 37 41 
26 37 41 26 37 41 26 37 41 26 37 41 26 37 43 26 37 41 26 37 41 26 37 41 26 37 41 26 37 41 27 38 42 26 37 41 25 36 40 26 37 41 26 37 41 25 36 40 26 37 41 27 38 42 27 38 42 26 37 41 26 37 41 26 37 41 26 37 41 26 37 41 26 37 41 26 37 41 26 37 41 26 37 41 26 37 41 25 36 40 26 37 41 26 37 41 26 37 41 25 36 40 26 37 41 26 37 41 26 37 41 26 37 41 26 37 41 25 36 40 25 36 40 27 38 42 26 37 41 26 37 41 26 37 41 25 36 40 26 37 41 27 38 42 26 37 41 26 37 41 26 37 41 26 37 41 26 37 41 26 37 41 26 37 41 26 37 41 27 38 42 26 37 41 27 38 40 25 36 40 27 38 42 25 36 40 26 37 39 26 37 41 24 38 39 24 35 39 24 38 41 26 37 41 26 37 41 24 38 41 26 37 43 27 36 41 26 37 41 24 38 39 26 37 41 26 37 41 26 37 41 25 36 38 27 38 44 26 37 41 23 38 41 27 38 42 27 38 40 27 38 42 25 36 40 26 37 41 26 37 41 26 37 41 26 37 41 26 37 41 25 36 40 26 37 41 26 37 41 26 37 41 26 37 41 26 37 41 26 37 41 27 38 42 26 37 41 26 37 41 
26 37 41 26 37 41 26 37 41 23 37 40 26 37 41 25 36 40 26 37 41 25 36 40 26 37 41 26 37 41 26 37 41 26 37 41 26 37 41 26 37 41 25 36 40 27 38 42 26 37 39 27 38 40 26 37 39 26 37 39 26 37 41 25 36 40 27 38 42 26 37 41 26 37 41 26 37 41 25 36 40 26 37 41 26 37 41 26 37 41 26 37 41 26 37 41 25 36 40 26 37 41 25 36 40 27 38 42 25 36 40 26 37 41 26 37 41 26 37 41 26 37 41 26 37 41 26 37 41 26 37 39 26 37 41 26 37 41 26 37 41 25 36 40 26 37 41 27 38 42 26 37 41 26 37 41 26 37 41 27 38 42 26 37 41 26 37 41 26 37 39 25 36 40 26 37 41 26 37 41 26 37 41 26 37 41 26 37 41 27 38 42 26 37 41 24 38 39 25 36 40 26 37 41 27 38 42 26 37 39 24 38 39 26 37 39 26 37 41 25 39 42 26 37 41 26 37 39 25 36 40 27 38 44 26 37 39 27 38 40 25 36 40 25 36 38 26 37 41 26 37 39 26 37 41 27 38 42 26 37 41 26 37 41 26 37 41 26 37 41 26 37 41 25 36 40 26 37 41 26 37 41 26 37 41 26 37 41 26 37 41 25 36 40 26 37 41 26 37 41 
27 38 42 26 37 41 25 36 40 27 38 42 26 37 39 26 37 41 26 37 41 26 37 41 26 37 41 25 36 40 26 37 41 26 37 41 25 36 40 26 37 41 27 38 42 26 37 41 26 37 41 26 37 41 27 38 42 25 36 40 27 38 42 25 36 40 27 38 42 26 37 41 26 37 41 26 37 41 25 36 40 26 37 41 26 37 41 26 37 41 26 37 41 26 37 41 26 37 41 27 38 42 26 37 41 25 36 40 26 37 39 27 38 42 26 37 41 26 37 41 26 37 41 25 36 40 26 37 41 26 37 41 26 37 41 26 37 41 26 37 41 26 37 41 27 38 42 26 37 41 26 37 41 26 37 41 26 37 41 26 37 41 26 37 41 24 35 39 26 37 41 26 37 41 27 38 40 25 36 40 23 37 40 28 37 44 26 37 41 26 37 41 27 37 39 26 37 39 26 37 41 28 37 42 26 37 41 25 36 40 24 38 41 26 37 39 25 36 40 26 37 41 25 36 40 25 39 40 26 37 39 26 37 39 26 37 41 26 37 41 27 38 42 27 36 41 26 37 39 26 37 41 26 37 41 26 37 41 26 37 41 26 37 41 26 37 41 26 37 41 26 37 41 27 38 42 27 38 42 25 36 40 26 37 41 26 37 41 26 37 41 26 37 41 26 37 41 25 36 40 
25 36 40 26 37 41 25 36 40 26 37 41 27 38 42 26 37 41 26 37 41 25 36 40 26 37 41 26 37 39 25 36 40 25 36 40 23 34 38 25 36 40 26 37 41 26 37 41 26 37 41 27 38 42 26 37 41 25 36 40 26 37 41 26 37 41 26 37 41 25 36 40 26 37 41 26 37 41 26 37 41 26 37 41 26 37 41 27 38 42 26 37 41 26 37 41 25 36 40 26 37 41 26 37 41 26 37 41 27 38 42 26 37 41 26 37 41 27 38 42 26 37 41 26 37 41 25 36 40 26 37 41 26 37 41 26 37 41 27 38 42 26 37 41 26 37 41 25 36 40 26 37 41 26 37 41 26 37 41 25 36 40 26 37 41 26 37 41 26 37 41 25 36 40 26 37 41 25 36 40 24 38 41 26 37 41 25 36 40 26 37 41 26 37 41 26 37 41 24 38 41 25 36 40 25 36 40 25 36 40 26 37 41 26 37 41 26 37 41 25 36 40 27 38 40 26 37 41 24 38 41 26 37 41 24 38 39 24 38 41 25 36 40 26 37 39 26 37 39 26 37 41 26 37 41 26 37 41 25 36 40 26 37 41 26 37 41 25 36 40 25 36 40 24 35 39 25 36 40 27 38 42 25 36 40 26 37 41 26 37 41 26 37 41 26 37 41 26 37 41 
26 37 41 27 38 42 26 37 41 26 37 41 25 36 40 26 37 41 27 38 42 25 36 40 26 37 41 26 37 41 25 36 40 26 37 41 26 37 41 25 36 40 26 37 41 26 37 41 26 37 41 26 37 41 27 38 42 25 36 40 25 36 40 26 37 41 26 37 41 26 37 41 27 38 42 25 36 40 26 37 41 26 37 41 25 36 40 25 36 40 25 36 40 27 38 42 26 37 41 25 36 40 26 37 41 26 37 41 25 36 40 26 37 41 25 36 40 26 37 41 26 37 41 26 37 41 26 37 41 26 37 41 27 38 42 26 37 41 25 36 40 26 37 41 26 37 41 26 37 41 25 36 40 25 36 40 26 37 41 26 37 41 26 37 41 26 37 41 25 36 40 26 37 41 26 37 41 25 36 40 25 36 40 26 37 41 25 36 40 26 37 41 26 37 41 26 37 41 26 37 41 26 37 41 26 37 41 26 37 41 25 36 40 26 37 41 26 37 41 25 36 40 26 37 41 25 36 40 26 37 41 25 36 40 25 36 40 25 36 40 27 38 42 25 36 40 26 37 41 26 37 41 26 37 41 26 37 41 27 38 42 26 37 41 26 37 41 26 37 41 26 37 41 25 36 40 25 36 40 26 37 41 27 38 42 26 37 41 25 36 40 26 37 41 25 36 40 25 36 40 
27 38 42 26 37 41 25 36 40 26 37 41 26 37 41 26 37 41 25 36 40 25 36 40 26 37 41 25 36 40 26 37 41 26 37 41 26 37 41 25 36 40 25 36 40 25 36 40 26 37 41 26 37 41 26 37 41 26 37 41 25 36 40 26 37 41 26 37 41 26 37 41 25 36 40 26 37 41 25 36 40 26 37 41 27 38 42 26 37 41 25 36 40 27 38 42 27 38 42 27 38 42 26 37 41 26 37 41 26 37 41 26 37 41 26 37 41 26 37 41 26 37 41 27 38 42 24 35 39 26 37 41 27 38 42 25 36 40 25 36 40 27 38 42 26 37 41 25 36 40 25 36 40 26 37 41 26 37 41 26 37 41 26 37 41 26 37 41 25 36 40 25 36 40 26 37 41 25 36 40 25 36 40 26 37 41 26 37 41 25 36 40 25 36 40 26 37 41 26 37 41 25 36 40 25 36 40 26 37 41 25 36 40 26 37 41 25 36 40 26 37 41 26 37 41 25 36 40 26 37 41 26 37 41 25 36 40 26 37 41 26 37 41 25 36 40 26 37 41 26 37 41 25 36 40 26 37 41 26 37 41 26 37 41 26 37 41 25 36 40 25 36 40 25 36 40 26 37 41 25 36 40 26 37 41 26 37 41 24 35 39 26 37 41 26 37 41 25 36 40 
25 36 40 26 37 41 26 37 41 25 36 40 25 36 40 26 37 41 26 37 41 25 36 40 26 37 41 26 37 41 24 35 39 26 37 41 27 38 42 25 36 40 25 36 40 26 37 41 26 37 41 26 37 41 25 36 40 26 37 41 25 36 40 26 37 41 26 37 41 24 35 39 26 37 41 25 36 40 26 37 41 25 36 40 25 36 40 25 36 40 26 37 41 25 36 40 25 36 40 25 36 40 26 37 41 26 37 41 25 36 40 26 37 41 26 37 41 25 36 40 25 36 40 25 36 40 27 38 42 26 37 41 26 37 41 26 37 41 25 36 40 25 36 40 26 37 41 26 37 41 26 37 41 26 37 41 26 37 41 26 37 41 25 36 40 25 36 40 26 37 41 26 37 41 27 38 42 26 37 41 26 37 41 26 37 41 26 37 41 26 37 41 26 37 41 26 37 41 26 37 41 26 37 41 26 37 41 25 36 40 25 36 40 26 37 41 26 37 41 27 38 42 26 37 41 26 37 41 25 36 40 26 37 41 26 37 41 26 37 41 25 36 40 26 37 41 26 37 41 27 38 42 26 37 41 26 37 41 25 36 40 27 38 42 25 36 40 26 37 41 26 37 41 25 36 40 26 37 41 26 37 41 26 37 41 26 37 41 25 36 40 26 37 41 26 37 41 25 36 40 
26 37 41 26 37 41 25 36 40 25 36 40 25 36 40 26 37 41 25 36 40 26 37 41 26 37 41 26 37 41 25 36 40 26 37 41 26 37 41 25 36 40 25 36 40 25 36 40 26 37 41 25 36 40 26 37 41 26 37 41 26 37 41 25 36 40 26 37 41 26 37 41 26 37 41 24 35 39 25 36 40 26 37 41 25 36 40 25 36 40 25 36 40 25 36 40 25 36 40 25 36 40 25 36 40 25 36 40 26 37 41 26 37 41 26 37 41 26 37 41 25 36 40 27 38 42 26 37 41 26 37 41 24 35 39 26 37 41 26 37 41 26 37 41 25 36 40 25 36 40 25 36 40 25 36 40 26 37 41 26 37 41 25 36 40 25 36 40 26 37 41 25 36 40 25 36 40 26 37 41 26 37 41 26 37 41 25 36 40 26 37 41 26 37 41 25 36 40 26 37 41 26 37 41 26 37 41 25 36 40 27 38 42 26 37 41 26 37 41 26 37 41 26 37 41 27 38 42 26 37 41 27 38 42 25 36 40 25 36 40 26 37 41 25 36 40 26 37 41 25 36 40 26 37 41 26 37 41 26 37 41 26 37 41 26 37 41 26 37 41 25 36 40 26 37 41 25 36 40 26 37 41 26 37 41 25 36 40 25 36 40 26 37 41 26 37 41 25 36 40 
24 35 39 25 36 40 25 36 40 25 36 40 27 38 42 26 37 41 25 36 40 26 37 41 26 37 41 26 37 41 25 36 40 26 37 41 26 37 41 26 37 41 25 36 40 26 37 41 26 37 41 27 38 42 26 37 41 26 37 41 26 37 41 26 37 41 26 37 41 26 37 41 25 36 40 25 36 40 25 36 40 26 37 41 26 37 41 26 37 41 26 37 41 25 36 40 25 36 40 26 37 41 26 37 41 25 36 40 25 36 40 25 36 40 25 36 40 26 37 41 25 36 40 26 37 41 26 37 41 26 37 41 26 37 41 26 37 41 25 36 40 26 37 41 26 37 41 26 37 41 26 37 41 26 37 41 25 36 40 25 36 40 25 36 40 26 37 41 25 36 40 25 36 40 27 38 42 27 38 42 26 37 41 26 37 41 26 37 41 27 38 42 25 36 40 26 37 41 25 36 40 25 36 40 26 37 41 26 37 41 25 36 40 25 36 40 26 37 41 26 37 41 25 36 40 25 36 40 26 37 41 26 37 41 25 36 40 25 36 40 26 37 41 25 36 40 26 37 41 26 37 41 26 37 41 26 37 41 26 37 41 26 37 41 26 37 41 26 37 41 26 37 41 25 36 40 26 37 41 25 36 40 26 37 41 26 37 41 25 36 40 26 37 41 26 37 41 26 37 41 
26 37 41 26 37 41 26 37 41 26 37 41 25 36 40 26 37 41 25 36 40 25 36 40 26 37 41 26 37 41 25 36 40 26 37 41 25 36 40 27 38 42 26 37 41 25 36 40 26 37 41 26 37 41 26 37 41 27 38 42 26 37 41 25 36 40 26 37 41 26 37 41 26 37 41 25 36 40 26 37 41 26 37 41 25 36 40 26 37 41 26 37 41 25 36 40 26 37 41 25 36 40 26 37 41 26 37 41 26 37 41 26 37 41 26 37 41 24 35 39 26 37 41 27 38 42 26 37 41 26 37 41 25 36 40 26 37 41 26 37 41 26 37 41 25 36 40 25 36 40 25 36 40 26 37 41 26 37 41 25 36 40 26 37 41 26 37 41 24 35 39 25 36 40 25 36 40 26 37 41 25 36 40 25 36 40 26 37 41 25 36 40 26 37 41 25 36 40 27 38 42 25 36 40 25 36 40 26 37 41 26 37 41 25 36 40 25 36 40 25 36 40 25 36 40 25 36 40 27 38 42 25 36 40 25 36 40 25 36 40 25 36 40 26 37 41 25 36 40 26 37 41 26 37 41 26 37 41 26 37 41 26 37 41 25 36 40 25 36 40 26 37 41 26 37 41 26 37 41 26 37 41 25 36 40 25 36 40 25 36 40 25 36 40 26 37 41 26 37 41 
26 37 41 26 37 41 26 37 41 25 36 40 25 36 40 25 36 40 26 37 41 26 37 41 25 36 40 25 36 40 26 37 41 24 35 39 25 36 40 27 38 42 25 36 40 26 37 41 27 38 42 26 37 41 26 37 41 26 37 41 26 37 41 25 36 40 26 37 41 26 37 41 25 36 40 28 39 43 25 36 40 25 36 40 26 37 41 26 37 41 26 37 41 26 37 41 25 36 40 26 37 41 25 36 40 25 36 40 25 36 40 26 37 41 26 37 41 26 37 41 25 36 40 26 37 41 26 37 41 25 36 40 27 38 42 26 37 41 25 36 40 26 37 41 25 36 40 25 36 40 25 36 40 25 36 40 25 36 40 26 37 41 25 36 40 26 37 41 26 37 41 25 36 40 26 37 41 26 37 41 26 37 41 26 37 41 26 37 41 26 37 41 25 36 40 25 36 40 26 37 41 25 36 40 26 37 41 25 36 40 27 38 42 26 37 41 26 37 41 25 36 40 26 37 41 26 37 41 26 37 41 26 37 41 25 36 40 26 37 41 25 36 40 25 36 40 25 36 40 26 37 41 26 37 41 25 36 40 26 37 41 25 36 40 26 37 41 25 36 40 25 36 40 26 37 41 25 36 40 26 37 41 25 36 40 26 37 41 27 38 42 25 36 40 26 37 41 25 36 40 
26 37 41 24 35 39 26 37 41 25 36 40 26 37 41 26 37 41 25 36 40 26 37 41 26 37 41 25 36 40 27 38 42 25 36 40 25 36 40 25 36 40 26 37 41 26 37 41 26 37 41 26 37 41 24 35 39 27 38 42 25 36 40 25 36 40 25 36 40 26 37 41 25 36 40 26 37 41 26 37 41 25 36 40 26 37 41 26 37 41 26 37 41 26 37 41 26 37 41 26 37 41 25 36 40 26 37 41 27 38 42 26 37 41 26 37 41 27 38 42 25 36 40 25 36 40 25 36 40 25 36 40 25 36 40 26 37 41 26 37 41 26 37 41 26 37 41 26 37 41 26 37 41 26 37 41 25 36 40 25 36 40 26 37 41 26 37 41 25 36 40 25 36 40 26 37 41 25 36 40 25 36 40 25 36 40 25 36 40 25 36 40 25 36 40 25 36 40 26 37 41 25 36 40 25 36 40 26 37 41 26 37 41 25 36 40 27 38 42 27 38 42 26 37 41 27 38 42 25 36 40 26 37 41 25 36 40 26 37 41 26 37 41 25 36 40 25 36 40 25 36 40 27 38 42 26 37 41 25 36 40 26 37 41 26 37 41 25 36 40 26 37 41 26 37 41 26 37 41 25 36 40 26 37 41 25 36 40 25 36 40 26 37 41 27 38 42 25 36 40 
26 36 38 25 36 38 26 37 39 24 35 37 25 36 40 24 35 39 25 36 40 25 36 40 25 36 40 26 37 41 26 37 41 27 38 42 26 37 41 25 36 40 27 38 42 25 36 40 26 37 39 26 37 39 26 37 39 25 36 38 26 37 41 26 37 41 26 37 41 26 37 41 26 37 41 26 37 41 26 37 41 27 38 42 26 37 39 25 36 40 25 36 38 26 37 39 25 36 40 25 36 40 25 36 38 26 37 41 26 37 41 26 37 41 25 36 40 26 37 41 26 37 41 26 37 41 26 37 41 25 36 40 26 37 41 26 37 41 25 36 40 26 37 41 26 37 41 26 37 41 26 37 41 25 36 40 26 37 41 25 36 40 25 36 40 25 36 40 26 37 41 25 36 40 26 37 41 24 35 39 26 37 39 26 37 39 25 36 38 26 37 39 25 36 40 26 37 41 26 37 41 26 37 41 26 37 41 26 37 41 25 36 40 26 37 41 25 36 40 26 37 41 26 37 41 25 36 40 25 36 38 25 36 40 26 37 39 26 37 41 25 36 40 26 37 39 26 37 41 25 36 38 26 37 41 25 36 40 25 36 40 26 37 41 25 36 40 25 36 40 26 37 41 26 37 41 25 36 40 25 36 40 25 36 40 26 37 41 25 36 40 26 37 41 26 37 41 26 37 41 
26 37 39 25 36 38 26 37 39 25 36 38 26 37 41 26 37 41 26 37 41 27 38 42 25 36 40 25 36 40 24 35 39 25 36 40 26 37 39 25 36 38 26 37 39 25 36 38 26 37 41 26 37 41 26 37 41 25 36 40 26 37 41 26 37 41 26 37 41 26 37 41 25 36 40 25 36 40 26 37 41 25 36 40 26 37 41 25 36 38 26 37 41 25 36 40 26 37 39 27 38 40 25 36 40 25 36 38 26 37 41 26 37 41 26 37 41 25 36 40 26 37 41 26 37 41 25 36 40 26 37 41 26 37 41 26 37 41 26 37 41 25 36 40 25 36 40 26 37 41 26 37 41 25 36 40 26 37 41 25 36 40 25 36 40 25 36 40 25 36 40 25 36 40 26 37 41 25 36 40 25 36 40 25 36 40 26 37 41 26 37 41 26 37 39 25 36 38 26 37 39 25 36 38 26 37 39 26 37 39 26 37 39 26 37 39 25 36 38 26 37 39 25 36 38 25 36 38 26 37 39 24 35 39 25 36 38 25 36 40 26 37 41 25 36 38 26 37 41 26 37 39 27 38 42 26 37 41 25 36 40 26 37 41 25 36 40 26 37 41 25 36 40 24 35 39 25 36 40 25 36 38 25 36 40 25 36 40 26 37 39 25 36 38 26 37 41 26 37 39 
25 36 38 26 37 39 24 35 37 26 37 39 25 36 40 26 37 41 26 37 41 25 36 40 24 35 39 25 36 40 25 36 40 26 37 41 25 36 40 26 37 41 25 36 40 26 37 41 24 35 37 26 37 39 25 36 38 26 37 39 25 36 40 25 36 40 24 35 39 26 37 41 26 37 41 26 37 41 25 36 40 25 36 40 25 36 40 26 37 39 25 36 40 25 36 40 25 36 38 25 36 38 25 36 40 26 37 39 25 36 40 26 37 41 26 37 41 25 36 40 26 37 41 25 36 40 24 35 39 26 37 41 25 36 40 25 36 40 26 37 41 26 37 41 25 36 40 26 37 41 25 36 40 26 37 41 25 36 40 26 37 41 26 37 41 26 37 41 25 36 40 26 37 41 26 37 41 26 37 41 26 37 41 25 36 40 25 36 40 26 37 41 26 37 39 26 37 39 26 37 39 26 37 39 26 37 41 25 36 40 27 38 42 25 36 40 25 36 40 25 36 40 25 36 40 25 36 40 26 37 39 26 37 41 25 36 38 26 37 41 25 36 40 25 36 38 24 35 39 25 36 38 26 37 41 24 35 39 25 36 40 25 36 40 25 36 40 26 37 41 25 36 40 26 37 41 25 36 38 24 35 39 26 37 39 26 37 39 25 36 40 25 36 40 25 36 38 26 37 41 
26 37 39 25 36 38 26 37 39 26 37 39 26 37 41 25 36 40 25 36 40 25 36 40 25 36 40 26 37 41 26 37 41 25 36 40 25 36 38 25 36 38 25 36 38 24 35 37 26 37 41 25 36 40 26 37 41 25 36 40 24 35 39 25 36 40 25 36 40 25 36 40 27 38 42 25 36 40 26 37 41 25 36 40 25 36 38 25 36 40 26 37 39 25 36 38 26 37 41 25 36 40 25 36 38 26 37 41 25 36 40 25 36 40 27 38 42 26 37 41 25 36 40 25 36 40 26 37 41 25 36 40 26 37 41 25 36 40 25 36 40 25 36 40 26 37 41 27 38 42 26 37 41 26 37 41 26 37 41 26 37 41 26 37 41 26 37 41 26 37 41 25 36 40 25 36 40 26 37 41 25 36 40 25 36 40 25 36 40 25 36 40 25 36 38 25 36 38 26 37 39 26 37 39 26 37 41 25 36 40 26 37 41 25 36 40 25 36 40 26 37 41 25 36 40 26 37 41 25 36 38 26 37 41 25 36 38 26 37 41 26 37 41 25 36 38 26 37 41 26 37 39 25 36 40 27 38 42 26 37 41 25 36 40 26 37 41 26 37 41 26 37 41 25 36 40 25 36 40 25 36 40 26 37 41 25 36 40 25 36 40 25 36 40 25 36 40 26 37 41 
25 36 38 25 36 38 26 37 39 26 37 39 25 36 40 26 37 41 25 36 40 26 37 41 25 36 40 25 36 40 26 37 41 25 36 40 25 36 38 26 37 39 25 36 38 26 37 39 25 36 40 26 37 41 25 36 40 26 37 41 27 38 42 25 36 40 25 36 40 25 36 40 26 37 41 25 36 40 26 37 41 25 36 40 26 37 39 26 37 41 26 37 39 26 37 39 26 37 41 26 37 41 26 37 39 26 37 41 26 37 41 25 36 40 26 37 41 25 36 40 24 35 39 25 36 40 25 36 40 26 37 41 25 36 40 26 37 41 25 36 40 26 37 41 26 37 41 25 36 40 26 37 41 25 36 40 25 36 40 25 36 40 26 37 41 26 37 41 26 37 41 26 37 41 25 36 40 25 36 40 25 36 38 25 36 38 25 36 38 26 37 39 26 37 41 26 37 41 25 36 40 26 37 41 25 36 40 25 36 40 25 36 40 25 36 40 26 37 41 25 36 40 26 37 41 24 35 39 26 37 39 25 36 40 26 37 39 26 37 41 25 36 40 26 37 39 25 36 40 27 38 40 25 36 40 25 36 40 25 36 40 27 38 42 25 36 40 25 36 40 26 37 41 26 37 41 26 37 41 25 36 40 25 36 40 27 38 42 25 36 40 26 37 41 25 36 40 25 36 40 
26 37 39 26 37 39 27 38 40 25 36 38 25 36 40 26 37 41 26 37 41 25 36 40 24 35 39 25 36 40 25 36 40 26 37 41 25 36 40 25 36 40 25 36 40 25 36 40 26 37 39 25 36 38 25 36 38 25 36 38 26 37 41 27 38 42 25 36 40 26 37 41 25 36 40 25 36 40 26 37 41 26 37 41 26 37 41 25 36 38 25 36 40 25 36 40 26 37 39 26 37 39 27 38 42 25 36 38 25 36 40 26 37 41 25 36 40 26 37 41 26 37 41 25 36 40 26 37 41 25 36 40 26 37 41 26 37 41 26 37 41 26 37 41 25 36 40 26 37 41 26 37 41 26 37 41 26 37 41 26 37 41 25 36 40 26 37 41 25 36 40 26 37 41 25 36 40 25 36 40 25 36 38 25 36 38 25 36 38 25 36 38 25 36 40 25 36 40 25 36 40 26 37 41 26 37 41 26 37 41 25 36 40 26 37 41 25 36 40 26 37 41 26 37 41 25 36 40 26 37 39 25 36 40 26 37 39 25 36 40 26 37 41 25 36 38 26 37 41 25 36 38 26 37 41 26 37 41 26 37 41 26 37 41 25 36 40 25 36 40 25 36 40 26 37 41 26 37 41 25 36 38 26 37 41 25 36 40 26 37 39 25 36 38 25 36 40 26 37 39 
25 36 38 26 37 39 26 37 39 25 36 38 26 37 41 26 37 41 25 36 40 26 37 41 25 36 40 24 35 39 26 37 41 25 36 40 27 38 40 25 36 38 26 37 39 25 36 38 26 37 41 25 36 40 25 36 40 25 36 40 25 36 40 25 36 40 25 36 40 25 36 40 26 37 41 26 37 41 25 36 40 26 37 41 25 36 40 26 37 39 26 37 41 26 37 41 25 36 38 26 37 39 26 37 41 25 36 38 25 36 40 26 37 41 25 36 40 25 36 40 25 36 40 26 37 41 25 36 40 25 36 40 25 36 40 25 36 40 27 38 42 25 36 40 25 36 40 25 36 40 26 37 41 25 36 40 25 36 40 26 37 41 25 36 40 25 36 40 25 36 40 26 37 41 25 36 40 25 36 40 26 37 39 25 36 38 25 36 38 24 35 37 26 37 41 25 36 40 25 36 40 26 37 41 26 37 39 25 36 38 26 37 39 25 36 38 25 36 38 26 37 39 25 36 38 26 37 39 25 36 38 26 37 41 26 37 39 25 36 40 26 37 41 26 37 39 26 37 41 25 36 38 26 37 41 26 37 41 25 36 40 25 36 40 26 37 41 25 36 40 25 36 40 25 36 40 25 36 38 25 36 40 26 37 39 25 36 38 25 36 40 25 36 40 26 37 39 25 36 40 
26 36 38 26 37 39 25 36 38 26 37 39 25 36 40 25 36 40 25 36 40 26 37 41 25 36 40 25 36 40 26 37 41 26 37 41 27 38 42 25 36 40 25 36 40 25 36 40 25 36 38 25 36 38 25 36 38 25 36 38 25 36 40 25 36 40 26 37 41 26 37 41 25 36 40 25 36 40 25 36 40 25 36 40 25 36 38 26 37 41 25 36 38 25 36 38 25 36 40 25 36 40 25 36 38 25 36 40 26 37 41 25 36 40 25 36 40 26 37 41 24 35 39 26 37 41 25 36 40 25 36 40 26 37 41 25 36 40 26 37 41 26 37 41 25 36 40 25 36 40 26 37 41 25 36 40 26 37 41 26 37 41 25 36 40 25 36 40 26 37 41 25 36 40 26 37 41 26 37 41 25 36 40 25 36 40 25 36 40 26 37 41 26 37 39 25 36 38 24 35 37 25 36 38 25 36 40 25 36 40 26 37 41 26 37 41 25 36 40 26 37 41 26 37 41 26 37 41 26 37 39 27 38 42 26 37 39 26 37 41 26 37 41 26 37 39 25 36 40 26 37 39 25 36 40 27 38 42 26 37 41 25 36 40 25 36 40 26 37 41 26 37 41 26 37 41 25 36 40 25 36 40 25 36 40 26 37 41 25 36 40 25 36 40 25 36 40 26 37 41 
26 37 41 26 37 41 25 36 40 25 36 40 25 36 40 25 36 40 25 36 40 25 36 40 25 36 40 26 37 41 26 37 41 25 36 40 26 37 41 25 36 38 26 37 41 26 37 39 25 36 40 25 36 40 25 36 38 25 36 40 26 37 41 26 37 41 25 36 38 25 36 40 25 36 38 25 36 40 24 35 39 25 36 40 26 37 41 25 36 40 25 36 38 25 36 40 25 36 40 26 37 41 25 36 40 26 37 39 25 36 40 26 37 41 26 37 41 25 36 40 25 36 40 26 37 41 25 36 40 26 37 41 25 36 40 25 36 40 26 37 41 26 37 41 26 37 41 25 36 40 25 36 40 24 35 39 25 36 40 25 36 40 26 37 41 25 36 40 24 35 39 25 36 40 25 36 40 25 36 40 25 36 40 26 37 41 26 37 41 26 37 39 25 36 38 26 37 41 25 36 40 25 36 40 26 37 41 25 36 40 26 37 39 25 36 40 26 37 39 25 36 40 26 37 41 26 37 41 25 36 40 27 38 42 26 37 41 26 37 41 25 36 40 25 36 40 26 37 41 25 36 40 26 37 41 26 37 39 26 37 41 25 36 38 25 36 40 26 37 39 26 37 41 26 37 39 25 36 40 26 37 41 25 36 40 25 36 40 25 36 40 25 36 40 25 36 40 25 36 40 
25 36 40 26 37 41 25 36 40 24 35 39 25 36 40 25 36 40 26 37 41 27 38 40 25 36 40 25 36 40 25 36 40 25 36 40 26 37 41 25 36 38 26 37 41 26 37 39 25 36 40 26 37 41 25 36 38 26 37 41 26 37 41 26 37 41 26 37 41 26 37 41 27 38 42 26 37 41 25 36 40 25 36 40 25 36 38 26 37 41 25 36 40 25 36 40 26 37 41 25 36 40 25 36 38 25 36 40 26 37 41 25 36 40 25 36 40 24 35 39 25 36 40 26 37 41 25 36 40 25 36 40 26 37 41 26 37 41 25 36 40 25 36 40 25 36 40 26 37 41 26 37 41 25 36 40 25 36 40 26 37 41 26 37 41 25 36 40 24 35 39 26 37 41 26 37 41 25 36 40 27 38 42 26 37 41 26 37 41 25 36 40 26 37 41 26 37 41 25 36 40 26 37 41 25 36 40 26 37 41 25 36 40 26 37 41 26 37 41 25 36 40 25 36 40 25 36 40 26 37 39 25 36 38 26 37 39 26 37 39 26 37 39 25 36 38 25 36 38 24 35 37 25 36 38 26 37 41 26 37 39 25 36 40 25 36 38 24 35 39 25 36 38 25 36 40 26 37 41 26 37 41 26 37 41 24 35 39 25 36 40 25 36 40 26 37 41 26 37 41 
26 37 41 26 37 41 26 37 41 26 37 41 25 36 40 26 37 41 25 36 38 25 36 40 25 36 38 25 36 40 25 36 40 25 36 40 25 36 40 26 37 41 25 36 40 26 37 39 25 36 40 26 37 41 27 38 42 25 36 40 23 37 40 25 36 38 25 36 40 25 36 38 24 38 41 23 37 38 25 36 40 25 36 40 25 36 40 25 36 38 25 36 40 25 36 40 26 37 39 25 36 38 25 36 40 25 36 40 26 37 41 24 35 39 24 35 39 26 37 41 26 37 41 25 36 40 26 37 41 25 36 40 26 37 41 25 36 40 25 36 40 25 36 40 25 36 40 25 36 40 25 36 40 27 38 42 25 36 40 25 36 40 25 36 40 25 36 40 26 37 41 25 36 40 24 35 39 25 36 40 25 36 38 26 37 41 25 36 40 25 36 40 25 36 40 25 36 40 25 36 40 25 36 38 26 37 41 26 37 39 25 36 40 25 36 38 25 36 40 26 37 39 25 36 40 26 37 41 25 36 38 25 36 38 27 38 40 25 36 38 25 36 38 25 36 38 25 36 38 26 37 39 26 37 39 24 35 39 25 36 38 25 36 40 26 37 39 25 36 40 26 37 39 24 35 39 26 37 41 26 37 41 25 36 40 25 36 40 26 37 41 25 36 40 25 36 40 26 37 41 
26 37 41 26 37 41 25 36 40 25 36 40 25 36 42 25 36 38 26 37 41 25 36 38 25 36 40 25 36 38 24 35 39 25 36 40 25 36 40 25 36 40 25 36 38 25 36 40 25 36 40 26 37 41 25 36 40 27 38 40 26 37 41 26 37 41 25 36 40 25 36 38 25 36 40 26 37 41 25 36 40 26 37 41 25 36 40 25 36 40 25 36 38 25 36 38 24 35 39 26 37 41 25 36 38 25 36 40 25 36 40 25 36 40 25 36 40 25 36 40 25 36 40 24 35 39 25 36 40 25 36 40 25 36 40 26 37 41 26 37 41 24 35 39 25 36 40 25 36 40 25 36 40 25 36 40 25 36 40 25 36 40 26 37 41 25 36 40 25 36 40 25 36 40 25 36 40 25 36 40 25 36 40 26 37 41 26 37 41 25 36 40 26 37 41 25 36 40 25 36 40 24 35 39 25 36 40 25 36 40 26 37 41 25 36 38 24 35 39 25 36 40 25 36 40 25 36 40 25 36 40 26 37 41 26 37 41 25 36 40 25 36 40 25 36 40 25 36 40 25 36 40 24 35 39 26 37 39 26 37 41 25 36 38 25 36 40 25 36 38 25 36 40 26 37 39 26 37 41 26 37 41 25 36 40 26 37 41 24 35 39 25 36 40 26 37 41 25 36 40 
25 36 40 25 36 40 26 37 41 25 36 40 25 36 40 25 36 40 24 35 37 25 36 40 25 36 38 25 36 40 25 36 38 25 36 42 25 36 40 25 36 40 25 36 38 25 36 40 25 36 40 26 37 41 25 36 40 25 36 38 26 37 41 26 37 41 25 36 40 25 36 40 25 36 38 25 36 40 25 36 40 25 36 40 25 36 40 26 37 39 26 37 41 24 35 39 25 36 40 26 37 41 25 36 40 25 36 38 24 35 39 25 36 40 26 37 41 25 36 40 25 36 40 25 36 40 25 36 40 25 36 40 25 36 40 25 36 40 25 36 40 26 37 41 25 36 40 26 37 41 25 36 40 25 36 40 26 37 41 25 36 40 25 36 40 25 36 40 26 37 41 26 37 41 25 36 40 25 36 40 25 36 40 26 37 41 25 36 40 25 36 40 25 36 40 25 36 40 25 36 40 25 36 40 25 36 40 25 36 40 25 36 40 25 36 40 24 35 37 25 36 40 26 37 41 25 36 40 25 36 40 25 36 40 25 36 40 26 37 41 25 36 40 25 36 40 25 36 40 25 36 40 25 36 40 26 37 39 26 37 41 26 37 39 26 37 41 27 38 40 26 37 41 25 36 38 25 36 40 25 36 40 25 36 40 25 36 40 26 37 41 25 36 40 25 36 40 26 37 41 
26 37 41 25 36 40 25 36 40 25 36 40 25 36 40 25 36 40 25 36 40 25 36 38 25 36 40 26 37 39 25 36 40 26 37 41 26 37 41 26 37 41 25 36 38 26 37 41 26 37 41 25 36 40 26 37 41 26 37 39 26 35 40 25 36 40 25 36 38 25 36 40 27 37 39 27 36 41 25 36 38 25 36 40 25 36 38 26 37 41 25 36 40 25 36 40 25 36 40 25 36 40 25 36 38 25 36 40 25 36 40 26 37 41 26 37 41 25 36 40 25 36 40 25 36 40 25 36 40 26 37 41 26 37 41 25 36 40 26 37 41 26 37 41 26 37 41 26 37 41 26 37 41 25 36 40 26 37 41 25 36 40 26 37 41 25 36 40 24 35 39 25 36 40 26 37 41 25 36 40 26 37 41 26 37 41 25 36 40 26 37 39 24 35 37 25 36 40 25 36 40 25 36 40 26 37 41 26 37 41 25 36 38 25 36 40 24 35 37 25 36 40 25 36 38 25 36 40 26 37 39 25 36 38 25 36 38 25 36 38 25 36 38 25 36 38 25 36 38 25 36 38 26 37 39 25 36 40 26 37 39 25 36 40 26 37 39 25 36 40 24 35 37 24 35 39 26 37 41 26 37 41 25 36 40 25 36 40 24 35 39 25 36 40 26 37 41 26 37 41 
25 36 40 25 36 40 25 36 40 25 36 40 26 37 41 25 36 40 24 35 39 26 37 41 26 37 39 25 36 40 25 36 40 25 36 40 25 36 40 26 37 41 24 35 37 25 36 40 26 37 41 25 36 40 24 35 39 25 36 38 26 37 41 26 37 41 26 37 41 26 37 41 27 38 42 25 36 40 25 36 40 25 36 40 25 36 40 25 36 40 25 36 40 25 36 40 26 37 39 25 36 38 26 37 41 25 36 40 25 36 40 25 36 40 26 37 41 25 36 40 25 36 40 26 37 41 25 36 40 25 36 40 25 36 40 26 37 41 26 37 41 25 36 40 26 37 41 25 36 40 26 37 41 26 37 41 25 36 40 25 36 40 26 37 41 26 37 41 25 36 40 25 36 40 25 36 40 26 37 41 26 37 41 25 36 40 26 37 41 25 36 40 26 37 41 26 37 41 25 36 40 25 36 40 24 35 39 25 36 40 26 37 41 26 37 41 25 36 40 25 36 40 24 35 39 25 36 40 24 35 37 25 36 38 26 37 39 25 36 38 26 37 39 25 36 38 25 36 38 26 37 39 25 36 38 26 37 41 26 37 39 25 36 40 24 35 37 24 35 39 25 36 38 26 37 41 26 37 41 25 36 40 25 36 40 25 36 40 25 36 40 24 35 39 26 37 41 25 36 40 
25 36 40 25 36 40 25 36 40 25 36 40 25 36 40 26 37 41 25 36 40 25 36 40 25 36 40 25 36 40 25 36 40 26 37 41 25 36 40 26 37 41 25 36 38 25 36 40 25 36 40 26 37 41 25 36 40 25 36 38 26 37 41 26 37 41 25 36 40 25 36 38 25 36 40 25 36 38 24 35 39 25 36 40 25 36 40 26 37 41 26 37 39 25 36 38 25 36 40 26 37 41 25 36 40 25 36 40 26 37 41 25 36 40 25 36 40 26 37 41 26 37 41 26 37 41 25 36 40 25 36 40 25 36 40 25 36 40 25 36 40 25 36 40 25 36 40 25 36 40 25 36 40 25 36 40 25 36 40 26 37 41 26 37 41 25 36 40 25 36 40 26 37 41 25 36 40 25 36 40 25 36 38 26 37 41 26 37 41 25 36 40 25 36 40 25 36 40 25 36 40 25 36 38 25 36 40 25 36 40 25 36 40 25 36 38 27 38 42 25 36 38 25 36 40 25 36 40 25 36 40 25 36 40 25 36 40 26 37 41 26 37 41 25 36 40 25 36 40 25 36 40 25 36 40 25 36 38 25 36 40 25 36 38 25 36 40 25 36 38 26 37 41 25 36 38 25 36 40 25 36 40 25 36 40 25 36 40 24 35 39 25 36 40 25 36 40 25 36 40 
26 37 41 25 36 40 25 36 40 25 36 40 25 36 38 25 36 40 26 37 39 25 36 40 25 36 40 25 36 38 26 37 41 26 37 41 26 37 39 26 37 39 25 36 40 24 35 37 24 35 39 24 35 37 26 37 41 25 36 38 26 37 41 25 36 40 25 36 40 25 36 40 25 36 40 25 36 40 26 37 41 25 36 40 26 37 41 25 36 40 26 37 41 25 36 40 26 37 41 26 37 41 25 36 40 26 35 40 25 36 40 26 37 41 25 36 40 24 35 39 26 37 41 25 36 40 25 36 40 26 37 41 25 36 38 25 36 38 25 36 38 24 35 37 25 36 38 25 36 38 25 36 38 25 36 38 25 36 40 25 36 40 25 36 40 25 36 40 25 36 40 25 36 40 25 36 40 25 36 40 25 36 38 25 36 38 26 37 39 25 36 38 25 36 38 26 37 39 25 36 38 26 37 39 26 37 39 25 36 40 25 36 40 26 37 41 25 36 40 25 36 38 24 35 39 25 36 40 25 36 38 26 37 39 25 36 38 26 37 39 25 36 38 25 36 38 25 36 38 25 36 38 25 36 40 26 37 41 25 36 38 26 37 41 26 37 41 25 36 40 26 37 41 25 36 38 25 36 38 25 36 40 25 36 40 26 37 41 25 36 40 25 36 40 25 36 40 25 36 40 
26 37 41 25 36 40 25 36 40 25 36 40 25 36 40 25 36 38 25 36 40 25 36 40 25 36 38 25 36 40 25 36 40 25 36 38 25 36 38 25 36 40 25 36 38 25 36 40 26 37 39 25 36 40 25 36 38 26 37 41 25 36 40 26 37 41 25 36 40 24 35 39 26 37 41 25 36 40 25 36 40 25 36 40 25 36 40 26 35 40 26 37 41 25 36 40 25 36 40 25 36 40 24 38 41 26 37 41 25 36 40 25 36 40 25 36 40 25 36 40 26 37 41 25 36 40 25 36 40 27 38 42 25 36 38 25 36 38 25 36 38 25 36 38 26 37 39 25 36 38 26 37 39 25 36 38 25 36 40 25 36 40 26 37 41 25 36 40 25 36 40 25 36 40 25 36 40 25 36 40 25 36 38 25 36 38 25 36 38 25 36 38 25 36 38 26 37 39 25 36 38 24 35 37 25 36 38 24 35 39 25 36 40 24 35 39 25 36 40 25 36 38 25 36 40 25 36 40 25 36 38 25 36 38 26 37 39 26 37 39 25 36 38 25 36 38 25 36 38 25 36 38 25 36 40 26 37 41 26 37 41 25 36 40 25 36 40 26 37 41 24 35 39 25 36 40 25 36 40 25 36 40 25 36 40 25 36 42 26 37 41 26 37 39 25 36 38 25 36 38 
24 35 39 26 37 41 24 35 39 25 36 40 26 37 41 25 36 40 24 35 39 25 36 38 25 36 40 25 36 40 25 36 38 25 36 40 25 36 40 25 36 40 25 36 38 25 36 40 25 36 38 25 36 40 26 37 39 26 37 41 24 35 39 25 36 40 25 36 40 25 36 40 25 36 40 26 37 41 25 36 40 25 36 40 26 37 41 25 36 40 26 37 41 25 36 40 26 37 41 26 37 41 26 35 40 25 36 40 25 36 40 25 36 40 25 36 40 25 36 40 25 36 40 26 37 41 25 36 40 25 36 40 26 37 41 26 37 41 25 36 40 25 36 40 25 36 40 26 37 41 24 35 39 26 37 41 25 36 40 27 38 42 25 36 40 25 36 40 25 36 40 24 35 39 26 37 41 26 37 41 25 36 40 25 36 40 25 36 40 24 35 39 25 36 40 24 35 39 25 36 40 25 36 40 25 36 38 26 37 41 25 36 40 26 37 41 25 36 40 26 37 39 25 36 40 26 37 41 25 36 40 25 36 40 26 37 41 25 36 40 25 36 40 25 36 40 25 36 40 25 36 40 25 36 40 25 36 40 25 36 40 26 37 41 25 36 40 26 37 41 25 36 40 25 36 40 25 36 40 25 36 40 25 36 40 25 36 40 25 36 40 25 36 40 26 37 41 26 37 41 
25 36 40 25 36 40 25 36 40 25 36 40 26 37 41 24 35 37 25 36 40 25 36 40 25 36 38 26 37 41 25 36 40 25 36 40 25 36 40 25 36 38 24 35 39 25 36 38 25 36 40 25 36 38 25 36 40 25 36 40 27 38 42 25 36 40 25 36 40 25 36 40 24 35 39 25 36 40 25 36 40 25 36 40 25 36 40 25 36 40 25 36 40 25 36 40 25 36 40 26 35 40 25 36 40 24 35 39 25 36 40 25 36 40 25 36 40 25 36 40 25 36 40 25 36 40 25 36 40 25 36 40 25 36 40 25 36 40 25 36 40 25 36 40 25 36 40 25 36 40 25 36 40 25 36 40 25 36 40 25 36 40 25 36 40 25 36 40 25 36 40 25 36 40 25 36 40 25 36 40 25 36 40 25 36 40 25 36 40 25 36 40 24 35 39 24 35 39 25 36 40 23 34 38 26 37 39 25 36 40 25 36 40 25 36 40 25 36 40 25 36 38 25 36 40 26 37 41 25 36 40 25 36 40 25 36 40 25 36 40 25 36 40 25 36 40 25 36 40 25 36 40 25 36 38 24 35 39 25 36 40 25 36 40 25 36 40 24 35 37 25 36 40 25 36 40 26 37 39 25 36 38 25 36 40 25 36 40 25 36 40 25 36 40 25 36 40 25 36 40 
24 35 39 25 36 40 24 35 39 25 36 40 24 35 39 26 37 39 24 35 39 25 36 40 25 36 38 26 37 41 25 36 40 25 36 40 26 37 41 26 37 41 26 37 41 26 37 39 25 36 40 26 37 41 25 36 40 25 36 40 25 36 40 25 36 40 25 36 40 25 36 40 25 36 40 25 36 40 24 35 39 26 37 41 26 35 40 25 36 40 24 35 39 25 36 40 24 35 39 25 36 40 25 36 40 25 36 40 25 36 40 25 36 40 25 36 40 25 36 40 25 36 40 25 36 40 25 36 40 25 36 40 25 36 40 25 36 40 25 36 40 25 36 40 25 36 40 26 37 41 25 36 40 26 37 41 25 36 40 25 36 40 24 35 39 25 36 40 25 36 40 24 35 39 25 36 40 25 36 40 25 36 40 25 36 40 24 35 39 26 37 41 25 36 40 25 36 40 26 37 41 25 36 40 25 36 38 25 36 40 25 36 40 25 36 40 24 35 39 25 36 38 26 37 41 25 36 40 25 36 40 25 36 40 25 36 40 25 36 40 25 36 40 25 36 40 25 36 40 25 36 40 25 36 38 26 37 41 24 35 39 26 37 41 25 36 40 25 36 38 25 36 40 24 35 39 25 36 40 25 36 40 24 35 39 25 36 40 25 36 40 25 36 40 25 36 38 25 36 38 
25 36 40 24 35 39 25 36 40 25 36 40 25 36 40 24 35 39 25 36 40 24 35 37 24 35 39 25 36 40 26 37 39 25 36 40 25 36 40 24 35 39 25 36 40 24 35 39 25 36 40 24 35 39 24 35 39 25 36 40 25 36 40 25 36 40 25 36 40 25 36 40 24 35 39 25 36 40 25 36 40 25 36 40 24 35 39 23 37 40 24 35 39 26 35 40 24 35 39 25 36 40 25 34 39 25 36 40 25 36 40 25 36 40 25 36 40 24 35 39 25 36 40 25 36 40 25 36 40 25 36 40 25 36 40 26 37 41 25 36 40 24 35 39 24 35 39 24 35 39 24 35 39 25 36 40 25 36 40 24 35 39 25 36 40 25 36 40 25 36 40 25 36 40 23 34 38 26 37 41 24 35 39 26 37 41 25 36 40 24 35 39 25 36 40 25 36 40 25 36 40 25 36 40 24 35 37 25 36 40 25 36 40 25 36 40 25 36 40 25 36 38 25 36 40 25 36 40 24 35 39 24 35 39 25 36 40 25 36 40 25 36 40 25 36 40 24 35 39 24 35 39 25 36 40 24 35 39 25 36 40 25 36 40 24 35 39 25 36 40 24 35 39 26 37 41 25 36 40 25 36 40 25 36 40 25 36 40 24 35 39 24 35 39 24 35 39 25 36 40 
24 35 39 25 36 40 25 36 40 25 36 40 24 35 39 25 36 38 25 36 40 24 35 39 25 36 38 25 36 40 24 35 39 25 36 38 25 36 40 24 35 39 26 37 41 25 36 40 26 37 41 25 36 40 26 37 41 25 36 40 24 35 39 25 36 40 25 36 40 25 36 40 25 36 40 25 36 40 25 36 40 25 36 40 25 36 40 25 36 40 24 35 39 25 36 40 25 36 40 25 36 40 25 36 40 24 35 39 25 36 40 25 36 40 25 36 40 25 36 40 24 35 39 24 35 39 24 35 39 25 36 40 24 35 39 24 35 39 25 36 40 25 36 40 24 35 39 26 37 41 24 35 39 26 37 41 25 36 40 24 35 39 25 36 40 25 36 40 25 36 40 24 35 39 25 36 40 25 36 40 25 36 40 24 35 39 26 37 41 25 36 40 25 36 40 25 36 40 25 36 40 25 36 40 24 35 37 25 36 40 24 35 39 25 36 40 25 36 40 25 36 38 24 35 39 24 35 39 25 36 40 24 35 39 25 36 40 25 36 40 25 36 40 25 36 40 25 36 40 24 35 39 25 36 40 25 36 40 25 36 40 26 37 41 25 36 40 26 37 41 25 36 40 25 36 40 25 36 38 25 36 38 25 36 38 25 36 40 25 36 42 25 36 40 25 36 40 24 35 39 
25 36 40 25 36 40 25 36 40 25 36 40 25 36 38 25 36 40 24 35 37 26 37 41 24 35 39 25 36 38 24 35 39 26 37 41 25 36 40 25 36 40 25 36 40 24 35 39 24 35 41 25 36 40 24 35 39 25 36 40 25 36 40 25 36 40 25 36 40 25 36 40 25 36 40 24 35 39 25 36 40 25 36 40 25 36 40 25 36 40 26 35 40 24 35 39 25 36 40 25 36 40 25 36 40 25 36 40 25 36 40 25 36 40 24 35 39 25 36 40 24 35 39 25 36 40 25 36 40 25 36 40 25 36 40 25 36 40 25 36 40 25 36 40 24 35 39 25 36 40 24 35 39 26 37 41 25 36 40 25 36 40 25 36 40 25 36 40 25 36 40 25 36 40 25 36 40 25 36 40 25 36 40 24 35 39 25 36 40 25 36 40 23 34 38 25 36 40 25 36 40 24 35 39 25 36 38 25 36 40 25 36 40 25 36 40 25 36 40 25 36 38 25 36 40 24 35 39 25 36 40 25 36 40 24 35 39 24 35 39 25 36 40 24 35 39 25 36 40 24 35 39 24 35 39 26 37 41 25 36 38 25 36 40 25 36 40 25 36 40 25 36 40 25 36 38 25 36 40 25 36 40 25 36 40 25 36 40 25 36 40 25 36 40 25 36 40 25 36 38 
25 36 38 25 36 40 25 36 40 25 36 40 24 35 39 26 37 41 24 35 39 24 35 39 24 35 39 25 36 40 25 36 40 25 36 40 24 35 39 25 36 40 25 36 40 25 36 40 25 36 40 25 36 40 24 35 39 26 37 41 25 36 40 25 36 40 25 36 40 24 35 39 25 36 40 25 36 40 24 35 39 25 36 40 24 35 39 25 36 40 25 36 40 25 36 40 24 35 39 25 36 40 25 36 40 25 36 40 24 35 39 25 36 40 24 35 39 25 36 40 25 36 40 24 35 39 25 36 40 25 36 40 24 35 39 26 37 41 25 36 40 25 36 40 25 36 40 25 36 40 25 36 40 26 37 41 24 35 39 25 36 40 24 35 39 24 35 39 23 37 40 25 36 40 24 35 39 25 34 39 26 37 43 24 35 39 24 35 39 24 35 39 26 37 41 25 36 40 25 36 40 25 36 40 25 36 40 24 35 39 25 36 40 24 35 39 25 36 40 24 35 39 25 36 40 24 35 37 25 36 40 25 36 40 24 35 39 25 36 40 25 36 40 25 36 40 25 36 40 25 36 40 25 36 40 24 35 39 24 35 39 25 36 40 25 36 40 25 36 40 24 35 39 24 35 39 25 36 40 25 36 40 25 36 40 26 37 41 25 36 40 25 36 40 25 36 40 25 36 40 
25 36 38 25 36 40 25 36 40 25 36 40 25 36 40 25 36 40 24 35 39 25 36 40 24 35 39 26 37 41 25 36 40 24 35 39 24 35 39 25 36 40 25 36 40 24 35 39 24 35 39 25 36 40 24 35 39 24 35 39 25 36 40 25 36 40 25 36 40 25 36 40 24 35 39 25 36 40 25 36 40 25 36 40 24 35 39 25 36 40 25 36 40 25 36 40 24 35 39 25 36 40 25 36 40 24 35 39 25 36 40 25 36 40 25 36 40 25 36 40 25 36 40 25 36 40 24 35 39 25 36 40 24 35 39 25 36 40 24 35 39 25 36 40 25 36 40 25 36 40 25 36 40 25 36 40 25 34 39 24 35 39 26 37 41 25 36 40 26 37 41 25 36 40 25 36 40 25 36 40 24 35 39 24 35 39 25 36 40 23 34 38 25 36 40 24 35 39 24 35 39 24 35 39 24 35 39 26 37 41 24 35 39 24 35 39 24 35 39 25 36 42 24 35 39 25 36 40 26 37 41 26 37 41 25 36 40 25 36 40 25 36 40 25 36 40 25 36 40 25 36 40 25 36 40 26 37 41 25 36 40 26 37 41 25 36 40 25 36 40 24 35 39 25 36 40 24 35 39 25 36 40 25 36 40 25 36 38 25 36 38 25 36 40 26 37 41 25 36 40 
26 37 39 24 35 39 25 36 40 24 35 39 24 35 39 25 36 40 25 36 40 24 35 39 24 35 39 25 36 40 24 35 39 25 36 40 24 35 39 25 36 40 25 36 40 25 36 40 25 36 40 25 36 40 26 37 41 25 36 40 25 36 40 25 36 40 25 36 40 26 37 41 25 36 40 25 36 40 25 36 40 25 36 40 25 36 40 25 36 40 25 36 40 25 36 40 26 37 41 24 35 39 26 37 41 24 35 39 25 36 40 24 35 39 26 37 41 24 35 39 25 36 40 25 36 40 24 35 39 25 36 40 24 35 39 25 36 40 25 36 40 25 36 40 25 36 40 25 36 40 24 35 39 25 36 40 27 36 41 25 36 40 25 36 40 25 36 40 25 36 40 25 36 40 24 35 39 22 36 39 25 36 40 25 36 40 25 36 40 25 36 40 25 36 40 25 36 40 24 35 39 25 36 40 24 35 39 25 36 40 25 36 40 25 36 38 24 35 37 25 36 38 25 36 40 25 36 40 25 36 40 25 36 40 25 36 40 25 36 40 25 36 40 24 35 39 25 36 40 24 35 39 24 35 39 24 35 39 24 35 39 25 36 40 24 35 39 25 36 40 25 36 40 25 36 40 25 36 38 25 36 40 24 35 39 26 37 41 24 35 39 25 36 40 25 36 40 25 36 38 
25 36 38 24 35 39 25 36 40 24 35 39 25 36 40 24 35 39 25 36 40 24 35 39 25 36 40 25 36 40 25 36 40 25 36 40 25 36 40 25 36 40 25 36 40 24 35 39 24 35 39 25 36 40 25 36 40 24 35 39 25 36 40 25 36 40 25 36 40 25 36 40 25 36 40 25 36 40 25 36 40 24 35 39 25 36 40 24 35 39 25 36 40 24 35 39 25 36 40 24 35 39 25 36 40 24 35 39 25 36 40 25 36 40 24 35 39 24 35 39 25 36 40 24 35 39 25 36 40 26 37 41 26 37 41 24 35 39 25 36 40 26 37 41 25 36 40 25 36 40 25 36 40 24 35 39 24 35 39 25 36 40 24 35 39 25 36 40 25 36 40 25 36 40 25 36 40 24 35 39 24 35 39 24 35 39 25 36 40 24 35 39 26 37 41 25 36 40 25 36 40 25 36 38 25 36 38 25 36 40 25 36 40 25 36 40 25 36 40 25 36 38 25 36 40 25 36 38 25 36 40 25 36 40 24 35 39 24 35 39 25 36 40 25 36 40 25 36 40 25 36 40 25 36 40 25 36 40 25 36 40 25 36 40 25 36 40 25 36 40 25 36 40 25 36 40 24 35 39 25 36 40 25 36 38 24 35 37 25 36 38 24 35 37 25 36 40 26 37 41 
25 36 38 25 36 40 25 36 40 25 36 40 25 36 38 24 35 37 25 36 38 25 36 38 24 35 37 24 35 37 24 35 37 24 35 37 24 35 37 26 37 39 24 35 37 25 36 38 24 35 37 25 36 38 25 36 38 25 36 38 25 36 38 25 36 38 25 36 38 25 36 38 25 36 38 24 35 37 24 35 37 24 35 37 25 36 40 25 36 38 24 35 37 25 36 40 24 35 39 25 36 38 25 36 38 25 36 40 24 35 37 24 35 37 25 36 38 25 36 38 24 35 37 25 36 38 25 36 38 25 36 38 25 36 40 24 35 39 25 36 40 25 36 40 24 35 39 24 35 39 25 36 40 25 36 40 26 37 41 24 35 39 25 36 40 27 38 42 25 36 40 25 36 40 25 36 40 26 35 40 25 36 40 25 36 40 24 35 39 25 36 40 24 35 39 24 35 37 24 35 37 25 36 38 25 36 38 25 36 40 25 36 40 23 34 38 25 36 40 25 36 40 26 37 41 25 36 40 24 35 37 24 35 37 24 35 37 24 35 37 25 36 38 24 35 37 25 36 38 24 35 37 24 35 37 25 36 38 24 35 37 25 36 38 25 36 38 25 36 38 25 36 38 25 36 38 24 35 39 26 37 41 25 36 38 25 36 38 24 35 37 24 35 37 24 35 39 25 36 40 
24 35 37 25 36 40 25 36 40 25 36 40 25 36 38 24 35 37 24 35 37 25 36 38 25 36 38 25 36 38 26 37 39 24 35 37 25 36 38 25 36 38 25 36 38 24 35 37 25 36 38 24 35 37 25 36 38 24 35 37 25 36 38 24 35 37 26 37 39 25 36 38 24 35 37 24 35 37 24 35 37 24 35 37 25 36 40 24 35 37 25 36 38 24 35 39 24 35 39 24 35 37 24 35 37 25 36 40 25 36 38 25 36 38 25 36 38 25 36 38 24 35 37 24 35 37 25 36 38 25 36 38 24 35 39 26 37 41 25 36 40 25 36 40 25 36 40 25 36 40 25 36 40 24 35 39 25 36 40 24 35 39 24 35 39 24 35 39 24 35 39 25 36 40 25 36 40 25 36 40 25 36 38 24 35 37 24 35 37 25 36 40 25 36 40 24 35 39 25 36 40 25 36 40 24 36 36 24 35 37 24 35 39 25 36 40 24 35 39 26 37 41 25 36 38 23 34 36 24 35 37 25 36 38 24 35 37 25 36 38 24 35 37 24 35 37 25 36 38 25 36 38 25 36 38 25 36 38 25 36 38 25 36 38 26 37 39 25 36 38 26 37 39 25 36 38 24 35 37 24 35 37 24 35 37 24 35 39 25 36 40 24 35 37 25 36 38 25 36 38 
