P3
100 50
255
45 25 60 0 0 0 29 17 39 63 37 82 63 35 83 61 35 80 51 29 67 11 6 13 1 1 1 1 1 1 46 27 57 61 34 79 17 11 23 1 1 1 0 0 0 4 6 5 30 41 33 58 82 68 76 98 86 68 97 79 76 98 86 66 95 77 67 94 77 65 94 76 75 99 86 69 96 81 72 99 84 64 93 75 70 99 81 70 94 81 71 95 82 72 96 83 62 94 73 64 95 77 67 94 77 53 73 61 49 69 58 60 84 70 71 95 82 71 99 84 75 99 86 76 98 86 71 98 81 29 42 33 1 1 1 23 32 37 61 91 99 60 90 98 60 91 96 61 90 98 61 90 96 62 89 98 61 90 98 61 90 98 60 89 97 61 90 98 61 90 98 62 89 98 61 90 98 62 91 99 61 90 98 60 89 97 61 90 98 61 90 98 62 91 99 61 90 98 61 90 98 61 90 98 61 90 98 60 89 97 60 89 97 61 90 98 61 90 98 61 90 98 60 89 97 60 89 97 61 90 98 60 89 97 61 90 98 62 91 99 60 89 97 61 90 98 62 91 99 61 90 98 61 90 98 61 90 98 62 91 99 61 90 98 61 90 98 62 91 99 60 89 97 61 90 98 60 89 97 61 90 98 61 90 98 61 90 98 61 90 98 60 89 97 61 90 98 60 89 97 
52 31 70 3 3 5 10 5 11 53 30 72 61 35 83 63 35 83 61 35 82 58 33 75 44 25 57 4 2 7 8 6 11 11 5 15 2 2 2 0 2 0 21 27 25 49 73 59 69 96 81 67 96 78 71 97 84 64 93 75 67 95 80 75 102 87 62 94 73 66 94 79 72 96 83 44 60 50 30 39 34 37 50 43 61 85 71 68 95 80 68 95 80 69 96 81 64 91 76 65 94 76 54 78 65 52 67 60 44 64 53 50 68 56 64 93 75 69 96 81 70 97 80 63 94 78 69 96 81 62 83 74 5 7 6 6 6 8 55 80 87 63 90 99 62 89 98 60 89 97 61 90 98 60 90 98 62 89 98 61 90 98 60 89 97 61 90 98 61 88 97 61 90 98 60 89 97 61 90 98 61 90 98 61 90 98 61 90 98 61 90 98 62 89 98 62 89 98 61 90 98 60 89 97 60 89 97 61 90 98 60 89 97 60 89 97 61 90 98 60 89 97 60 89 97 62 91 99 61 90 98 60 89 97 62 91 99 60 89 97 62 91 99 61 90 98 61 90 98 61 90 98 61 90 98 61 90 98 60 89 97 61 90 98 61 90 98 61 90 98 61 90 98 61 90 98 61 90 98 61 90 98 61 90 98 60 89 97 60 89 97 60 89 97 61 90 98 60 89 97 
61 35 82 30 18 40 1 1 1 29 17 39 60 34 81 60 37 83 63 37 82 64 38 85 53 33 70 6 4 9 0 0 0 1 1 1 13 18 14 33 46 37 68 95 80 70 97 82 68 96 81 63 94 76 71 98 83 66 95 77 69 97 82 66 95 77 62 93 77 60 87 72 39 52 45 3 5 4 0 0 0 0 0 0 14 20 18 65 92 77 69 96 79 68 95 80 72 96 83 69 95 82 50 72 60 45 62 52 44 64 52 49 69 57 69 95 82 68 95 78 70 97 82 68 96 81 64 93 75 65 93 79 24 30 26 1 1 1 31 44 50 61 89 100 62 89 98 61 90 98 62 89 96 61 90 98 61 90 98 61 90 98 61 90 98 60 89 97 61 90 98 60 89 97 61 90 98 61 90 98 61 90 98 61 90 98 60 88 99 61 90 98 60 89 97 60 88 99 60 89 97 61 89 100 60 89 97 61 90 98 61 90 98 61 90 98 60 89 97 60 89 97 60 89 97 61 90 98 61 90 98 61 90 98 61 90 98 61 90 98 61 90 98 61 90 98 61 90 98 60 89 97 61 90 98 60 89 97 61 90 98 61 90 98 60 89 97 60 89 97 60 89 97 60 89 97 60 89 97 61 90 98 60 89 97 61 90 98 60 89 97 61 90 98 62 91 99 61 90 98 
57 36 77 58 33 73 16 8 23 1 1 1 32 18 43 50 29 68 55 32 74 29 17 37 3 3 5 0 0 0 4 6 5 32 45 38 63 92 74 65 94 76 70 96 83 67 95 80 76 98 86 70 99 81 73 94 85 61 88 73 52 76 62 61 83 71 39 54 47 8 10 7 0 2 1 0 0 0 0 0 0 1 1 1 7 9 8 69 91 79 65 93 78 65 93 78 62 93 75 74 98 85 60 91 73 59 83 70 60 82 70 72 95 85 74 98 85 74 98 85 63 94 78 71 98 83 67 94 79 61 92 74 61 81 72 3 3 3 15 23 25 60 89 97 61 88 97 62 91 99 61 90 98 61 90 98 61 90 98 62 91 99 61 90 98 61 90 98 60 89 97 62 91 99 61 90 98 61 90 98 60 89 97 60 89 97 60 89 97 60 89 97 61 90 98 61 90 98 61 90 98 61 90 98 61 90 98 62 91 99 61 90 98 60 89 97 62 91 99 60 89 97 61 90 98 61 90 98 60 89 97 61 90 98 60 89 97 61 90 98 62 91 99 60 89 97 60 89 97 60 89 97 61 90 98 60 89 97 61 90 98 60 89 97 61 90 98 60 89 97 60 89 97 61 90 98 60 89 97 61 90 98 61 90 98 60 89 97 61 90 98 61 90 98 61 90 98 61 90 98 
55 32 74 63 37 84 55 33 71 7 5 10 1 1 1 4 2 5 4 4 6 0 0 0 3 3 3 28 37 34 56 80 67 68 94 81 68 96 81 68 95 80 64 93 75 64 93 75 62 90 75 57 81 67 49 69 58 44 61 51 39 52 45 14 20 16 1 1 1 0 0 0 1 1 1 0 0 0 0 0 2 2 0 1 10 15 11 64 92 77 71 98 83 69 96 81 68 95 78 70 96 83 67 95 80 65 93 78 68 95 80 64 92 77 73 97 83 67 95 80 69 97 82 74 96 83 71 98 83 68 95 80 66 95 77 9 11 8 3 3 5 52 77 82 62 89 98 60 89 97 60 89 97 61 90 98 60 89 97 60 89 97 61 90 98 61 90 98 61 90 98 59 88 96 60 89 97 61 90 98 60 89 97 60 88 99 62 91 99 60 89 97 61 89 100 60 89 97 61 90 98 60 89 97 60 89 97 61 90 98 60 89 97 60 89 97 61 90 98 62 91 99 60 89 97 61 90 98 61 90 98 61 90 98 61 90 98 61 90 98 61 90 98 62 91 99 61 90 98 61 90 98 61 90 98 60 89 97 61 90 98 61 90 98 60 89 97 60 89 97 61 90 98 60 89 97 61 90 98 61 90 98 62 91 99 60 89 97 60 89 97 61 90 98 61 90 98 60 89 97 
39 23 52 42 26 55 15 9 19 0 0 0 1 1 3 0 2 1 3 3 3 12 17 13 38 51 42 49 69 58 63 87 73 68 95 80 65 94 76 70 97 82 67 94 77 63 85 73 49 66 56 46 63 53 38 54 44 10 12 9 1 1 1 1 1 1 2 0 1 1 1 1 0 0 0 1 1 1 0 0 0 2 2 2 33 50 40 68 97 79 67 95 80 66 95 77 68 95 80 68 95 80 58 90 69 71 98 83 66 94 79 68 95 80 72 96 82 68 95 80 68 96 81 70 97 82 68 96 81 73 96 86 72 96 82 25 34 31 1 1 1 42 60 64 61 90 98 63 90 99 62 89 96 62 89 98 60 89 97 61 90 98 60 89 97 62 91 99 61 90 98 61 90 98 60 89 97 61 90 98 60 89 97 61 90 98 61 90 98 61 90 98 60 89 97 61 90 98 60 89 97 60 89 97 60 89 97 61 90 98 60 89 97 61 90 98 62 91 99 60 89 97 61 90 98 61 90 98 60 89 97 61 90 98 60 89 97 60 89 97 61 90 98 61 90 98 61 90 98 61 90 98 60 89 97 61 90 98 61 90 98 61 90 98 61 90 98 61 90 98 60 89 97 61 90 98 61 90 98 60 89 97 61 90 98 60 89 97 60 89 97 60 89 97 61 90 98 60 89 97 
1 1 1 0 0 0 1 1 1 4 6 5 15 21 19 27 40 31 40 56 45 47 63 53 47 64 54 46 64 52 49 69 60 61 88 73 69 91 79 52 74 61 43 63 51 39 59 47 36 49 40 20 33 23 5 5 5 1 1 1 1 1 1 1 1 1 2 2 0 4 6 5 0 0 0 0 0 0 2 0 1 17 26 21 69 93 80 67 93 80 68 96 81 60 91 73 70 94 81 63 94 76 69 96 81 61 92 74 74 98 84 68 95 78 75 97 85 68 97 79 63 94 76 60 92 71 63 95 74 65 92 75 67 93 80 47 67 56 0 0 0 19 27 30 61 90 98 61 90 98 60 89 95 62 89 98 60 89 97 61 90 98 61 90 98 59 88 96 61 90 98 61 90 98 60 89 97 60 89 97 60 89 97 61 90 98 60 89 97 61 90 98 61 90 98 61 90 98 61 90 98 61 90 98 60 89 97 60 89 97 61 90 98 60 89 97 60 89 97 60 89 97 61 90 98 61 90 98 60 89 97 60 89 97 60 89 97 60 89 97 61 90 98 61 90 98 61 90 98 61 90 98 61 90 98 61 90 98 61 90 98 60 89 97 60 89 97 60 89 97 60 89 97 61 90 98 60 89 97 60 89 97 60 89 97 61 90 98 61 90 98 60 89 97 60 89 97 60 89 97 
1 1 1 5 5 5 28 34 30 42 57 50 47 64 54 45 62 52 41 63 50 46 63 53 48 65 57 45 62 52 51 66 59 45 67 55 46 66 54 28 41 32 9 13 12 7 9 8 2 2 2 1 1 0 0 0 0 1 1 1 1 1 1 9 11 10 44 61 51 14 20 16 1 1 1 0 0 0 8 12 11 51 71 60 65 96 78 64 92 77 75 99 85 64 95 77 67 94 79 66 94 79 72 99 84 64 95 77 72 99 84 72 96 83 66 94 79 68 94 81 71 95 82 67 96 78 68 96 81 72 98 85 64 90 77 64 91 76 4 4 4 0 2 1 47 67 74 61 90 98 61 90 98 60 88 99 61 90 98 60 89 97 60 89 97 61 90 98 60 89 97 61 90 98 61 90 98 60 89 97 61 90 96 60 89 97 61 90 96 61 90 96 60 89 97 61 90 98 60 89 97 61 90 98 59 88 96 61 90 98 59 88 96 60 89 97 60 89 97 60 89 97 61 90 98 60 89 97 61 90 98 61 90 98 61 90 98 60 89 97 61 90 98 61 90 98 60 89 97 61 90 98 60 89 97 61 90 98 61 90 98 61 90 98 61 90 98 61 90 98 61 90 98 61 90 98 60 89 97 61 90 98 59 88 96 60 89 97 60 89 97 60 89 97 60 89 97 61 90 98 
13 19 19 1 1 1 16 23 16 43 60 52 46 64 52 46 66 54 46 63 53 48 65 55 44 64 53 47 64 54 35 48 39 36 49 42 25 34 29 3 5 4 1 1 1 0 0 0 0 0 0 0 0 0 1 1 0 6 8 7 21 32 26 49 71 59 47 63 53 2 2 2 1 1 1 1 1 1 43 58 51 64 95 77 77 99 87 67 95 80 68 96 81 70 96 83 65 92 77 65 92 75 70 98 83 65 94 74 65 94 76 71 98 83 68 96 81 66 95 77 68 92 79 62 93 75 64 93 75 65 92 77 72 96 82 72 94 82 27 33 31 2 0 1 28 42 45 61 90 98 60 89 97 61 88 99 60 89 97 61 90 98 61 90 98 61 90 98 61 90 98 61 90 98 60 89 97 61 90 98 61 90 98 61 90 98 60 89 97 60 89 97 61 90 98 60 89 97 60 89 97 60 89 97 61 90 98 59 88 96 61 90 98 60 89 97 62 91 99 60 89 97 59 88 96 60 89 97 62 91 99 60 89 97 60 89 97 60 89 97 60 89 97 60 89 97 60 89 97 60 89 97 61 90 98 61 90 98 61 90 98 61 90 98 60 89 97 61 90 98 60 89 97 61 90 98 60 89 97 59 88 96 60 89 97 61 90 98 61 90 98 60 89 97 60 89 97 61 90 98 
51 74 82 8 12 11 2 2 2 16 23 16 46 63 53 48 64 54 42 62 50 48 64 54 42 59 49 25 34 29 2 2 2 3 1 2 1 1 0 1 1 1 1 1 1 1 1 1 0 2 1 10 12 9 39 52 43 63 80 72 64 93 75 49 66 56 3 5 4 1 1 1 0 0 2 15 19 18 61 88 69 66 94 79 66 94 79 64 95 79 66 94 80 63 94 78 68 97 79 67 94 79 72 99 84 67 93 82 68 95 78 70 94 80 76 100 87 65 94 76 70 96 83 66 92 79 68 96 81 66 94 79 67 94 79 73 97 83 45 62 52 0 0 0 15 21 21 60 89 97 61 90 98 61 90 98 60 89 97 60 89 97 61 90 98 61 90 98 62 91 99 61 90 98 60 89 97 60 89 97 60 89 97 60 89 97 60 89 97 60 89 95 60 89 97 60 89 97 60 89 95 60 89 97 61 90 98 60 89 97 61 90 98 60 89 97 60 89 97 61 90 98 60 89 97 60 89 97 61 90 98 61 90 98 61 90 98 60 89 97 60 89 97 61 90 98 60 89 97 60 89 97 60 89 97 61 90 98 61 90 98 60 89 97 61 90 98 61 90 98 60 89 97 61 90 98 61 90 98 60 89 97 61 90 98 61 90 98 60 89 97 61 90 98 60 89 97 61 90 98 
60 87 96 45 65 72 4 8 9 2 2 2 18 29 23 24 35 27 17 22 18 9 13 12 8 10 9 2 2 2 2 0 1 1 1 1 0 0 0 0 0 0 4 6 5 20 26 22 36 49 42 55 77 65 73 97 83 66 95 77 48 68 57 6 11 7 0 0 0 1 1 1 7 11 10 49 69 58 67 95 80 59 90 72 73 97 84 63 91 76 62 93 75 70 96 83 78 99 90 71 95 82 65 92 75 69 96 81 67 96 78 69 96 81 68 95 80 71 98 83 66 93 78 63 91 76 68 97 79 73 97 83 68 96 81 69 96 81 68 96 81 6 8 5 3 4 6 54 83 89 62 89 98 61 88 97 59 88 96 60 89 97 61 90 98 61 90 98 61 90 98 60 89 97 59 88 96 59 88 96 61 90 98 60 89 97 61 90 98 61 90 98 61 90 98 60 89 97 60 89 97 59 88 96 59 88 96 61 90 98 62 89 98 61 88 97 62 89 98 62 89 98 61 90 98 60 89 97 60 89 97 61 90 98 60 89 97 61 90 98 62 91 99 60 89 97 61 90 98 61 90 98 60 89 97 60 89 97 60 89 97 60 89 97 60 89 97 61 90 98 61 90 98 59 88 96 60 89 97 59 88 96 60 89 97 60 89 97 60 89 97 59 88 96 61 90 98 61 90 98 
62 89 98 61 88 97 43 62 68 3 5 4 0 0 0 1 1 3 1 1 1 1 1 0 2 0 1 1 1 1 0 0 0 1 1 1 4 4 4 15 19 18 37 50 43 42 62 50 44 64 53 59 83 69 70 97 82 55 72 64 13 18 14 0 0 2 1 1 1 3 3 3 38 58 46 68 96 81 66 93 78 75 99 86 69 96 81 66 95 77 69 98 78 66 97 79 61 93 72 64 91 76 70 97 82 69 96 81 76 98 86 65 92 77 66 93 76 69 93 79 66 95 77 66 92 79 73 95 82 63 92 74 68 96 81 64 92 77 67 95 80 31 40 37 0 0 0 43 62 69 61 90 98 61 90 98 61 90 98 61 90 98 60 89 97 63 92 100 61 90 98 61 90 98 61 90 98 59 88 96 60 89 97 61 90 98 61 90 98 61 90 98 60 89 97 61 90 98 61 90 98 61 90 98 60 89 97 61 90 98 60 89 97 62 91 99 60 89 97 61 90 98 60 89 97 60 89 97 61 90 98 60 89 97 61 90 98 61 90 98 61 90 98 60 89 97 60 89 97 59 88 96 60 89 97 60 89 97 61 90 98 60 89 97 60 89 97 61 90 98 61 90 98 61 90 98 61 90 98 61 90 98 61 90 98 61 90 98 62 91 99 60 89 97 59 88 96 60 89 97 
60 89 97 61 90 98 60 89 97 24 34 36 2 0 1 0 0 0 1 1 1 1 1 1 1 1 1 2 2 2 5 7 6 26 35 30 45 61 51 48 65 55 44 61 51 44 64 53 48 68 56 59 86 69 35 51 41 2 2 2 1 1 1 1 1 1 4 4 4 49 69 60 68 95 78 69 96 81 71 98 83 73 97 83 66 93 78 68 96 81 67 94 79 69 97 82 64 93 75 69 96 81 68 95 78 58 90 69 76 97 90 64 95 77 68 97 79 68 95 80 63 94 76 68 97 79 62 93 75 75 96 87 72 95 85 71 98 83 61 90 72 45 61 51 1 1 1 33 48 51 62 89 98 61 90 98 60 89 97 61 90 98 61 90 98 60 89 97 60 89 97 61 90 98 60 89 97 61 90 98 60 89 97 60 89 97 61 90 98 60 89 97 61 90 98 60 89 97 60 89 97 60 89 97 61 88 97 61 88 97 60 89 97 60 89 97 61 90 98 60 89 97 61 88 97 61 88 97 60 89 97 60 89 97 60 89 97 60 89 97 60 89 97 61 90 98 60 89 97 60 89 97 60 89 97 61 90 98 60 89 97 60 89 97 61 90 98 60 89 97 61 90 98 61 90 98 60 89 97 61 90 98 60 89 97 60 89 97 60 89 97 60 89 97 60 89 97 61 90 98 
61 88 95 61 88 97 59 88 96 55 82 89 16 24 27 2 2 2 4 6 5 22 33 25 22 29 22 34 45 39 43 60 50 45 62 52 42 60 48 48 65 55 46 63 53 55 77 64 49 69 58 20 29 24 1 1 1 0 0 0 1 1 1 1 1 1 28 39 33 73 97 84 69 96 81 69 97 82 67 95 80 64 95 79 72 96 83 72 99 84 66 95 77 67 95 80 73 97 84 70 98 83 68 96 81 70 97 80 70 94 81 71 98 83 72 98 85 69 96 81 73 94 85 65 93 78 64 93 75 69 96 81 64 95 77 64 95 77 69 95 82 45 62 56 1 1 1 17 25 28 62 89 98 60 89 95 61 90 98 60 89 97 59 88 96 60 89 97 60 89 97 60 89 97 60 89 97 61 90 98 59 88 96 60 89 97 60 89 97 61 90 98 61 90 98 60 89 97 60 89 97 59 88 96 60 89 97 60 89 97 61 90 98 61 90 98 59 88 96 60 89 97 60 89 97 61 90 98 60 89 97 60 89 97 61 90 98 59 88 96 60 89 97 61 90 98 60 89 97 60 89 97 62 91 99 60 89 97 60 89 97 60 89 97 61 90 98 59 88 96 60 89 97 61 90 98 61 90 98 59 88 96 61 90 98 60 89 97 60 89 97 61 90 98 60 89 97 60 89 97 
61 88 97 60 89 97 61 88 97 61 88 97 57 81 91 11 15 16 1 1 1 32 45 38 47 64 54 43 63 51 45 65 53 49 66 58 50 68 56 46 63 53 46 63 55 26 37 31 2 2 2 0 0 0 1 1 1 0 0 0 5 5 5 34 54 42 61 88 71 66 94 79 66 94 79 68 96 81 71 95 82 63 92 74 67 96 78 65 94 76 67 95 80 62 91 71 70 94 81 71 95 82 68 95 80 67 96 78 65 92 77 64 93 75 64 96 75 75 99 86 49 69 57 48 68 56 67 93 80 67 95 80 69 95 82 65 96 78 70 97 82 59 83 69 1 1 0 5 6 8 55 82 89 61 88 97 60 89 97 60 89 97 60 89 97 60 89 97 61 90 98 60 89 97 60 89 97 60 89 97 61 90 98 60 89 97 60 89 97 60 89 97 60 89 97 60 89 97 60 89 97 61 90 98 61 90 98 60 89 97 60 89 97 60 89 97 61 90 98 60 89 97 59 88 96 60 89 97 60 89 97 60 89 97 61 90 98 59 88 96 60 89 97 60 89 97 60 89 97 62 91 99 61 90 98 60 89 97 60 89 97 60 89 97 61 90 98 59 88 96 60 89 97 60 89 97 61 90 98 60 89 97 61 90 98 61 90 98 61 90 98 60 89 97 60 89 97 59 88 96 
60 89 97 60 89 97 60 89 97 60 89 97 61 90 98 45 65 72 2 2 0 10 12 11 45 62 52 48 65 55 43 63 51 49 66 58 47 62 55 39 55 44 16 25 20 2 2 2 0 0 0 1 1 1 1 1 1 1 3 2 38 55 45 70 97 82 75 99 85 64 93 75 70 96 83 67 93 80 71 95 82 78 99 90 66 94 79 72 100 85 69 95 82 68 97 79 69 97 83 67 95 80 73 95 83 71 95 81 67 94 79 61 83 70 20 26 24 38 55 45 46 63 53 41 61 49 49 71 58 62 88 75 64 93 75 69 96 81 69 96 81 56 87 69 7 9 8 4 4 6 57 82 89 60 89 97 60 89 97 60 89 97 59 88 96 60 89 97 59 88 96 61 90 98 61 90 98 60 89 97 61 90 98 59 88 96 59 88 96 61 90 98 60 89 97 59 88 96 61 90 98 60 89 97 60 89 97 60 89 97 61 90 98 60 89 97 59 88 96 61 90 98 59 88 96 60 89 97 60 89 97 61 90 98 59 88 96 61 90 98 60 89 97 61 90 98 59 88 96 59 88 96 60 89 97 59 88 96 61 90 98 59 88 96 60 89 97 61 90 98 60 89 97 60 89 97 60 89 97 60 89 97 60 89 97 59 88 96 60 89 97 60 89 97 60 89 97 60 89 97 
59 88 96 61 90 96 61 90 98 60 89 95 61 90 98 58 87 95 8 12 13 1 1 1 26 39 30 41 61 50 47 64 54 38 58 47 21 30 25 6 8 5 1 1 1 1 1 1 1 1 1 0 0 0 3 3 3 35 51 40 66 93 78 67 96 78 72 96 82 69 96 81 63 94 76 75 99 86 67 94 79 73 97 84 70 97 82 70 97 80 67 93 80 69 95 82 70 97 82 67 96 78 70 94 81 67 94 77 65 94 74 45 61 51 1 1 1 0 0 0 11 15 14 40 56 46 49 64 57 47 67 56 67 94 79 71 95 82 69 96 81 73 97 84 16 22 20 2 2 4 52 77 82 60 89 97 60 89 97 60 89 97 61 90 98 61 90 98 60 89 97 60 89 97 60 89 97 60 89 97 58 87 95 60 89 97 59 88 96 60 89 97 60 89 97 60 89 97 59 88 96 61 90 98 60 89 97 60 89 97 60 89 97 60 89 97 61 90 98 59 88 96 61 90 98 61 90 98 58 87 95 60 89 97 60 89 97 61 90 98 60 89 97 60 89 97 61 90 98 59 88 96 60 89 97 59 88 96 60 89 97 59 88 96 60 89 97 61 90 98 61 90 98 60 89 97 60 89 97 61 90 98 58 87 95 60 89 97 61 90 98 59 88 96 61 90 98 61 90 98 
62 89 96 62 89 98 61 88 97 61 90 96 61 88 97 61 88 97 49 72 78 1 2 6 7 7 5 40 57 47 33 46 37 10 12 9 1 1 1 0 0 2 1 1 1 1 1 0 17 23 19 37 57 45 53 77 63 65 92 77 68 96 81 67 96 78 72 96 83 70 96 83 70 99 81 61 93 72 70 97 82 66 93 78 69 95 82 67 96 78 70 97 82 77 99 87 69 95 82 69 93 79 70 97 82 64 93 75 68 96 81 57 74 66 0 0 0 1 3 2 0 2 0 10 14 13 40 58 46 45 62 52 57 81 65 69 96 81 66 93 78 68 96 81 37 50 43 0 0 0 31 49 53 60 89 97 60 89 97 61 90 98 60 89 97 59 88 96 60 89 97 60 89 97 60 89 97 61 90 98 59 88 96 60 89 97 59 88 96 62 91 99 61 90 98 60 89 97 60 89 97 59 88 96 60 89 97 60 89 97 60 89 97 61 90 98 60 89 97 60 89 97 61 90 98 60 89 97 60 89 97 61 90 98 61 90 98 60 89 97 60 89 97 61 90 98 61 90 98 60 89 97 60 89 97 61 90 98 60 89 97 60 89 97 60 89 97 60 89 97 60 89 97 61 90 98 60 89 97 59 88 96 61 90 98 61 90 98 60 89 97 61 90 98 60 89 97 61 90 98 
60 89 97 60 89 97 59 88 96 61 90 98 60 89 97 61 90 98 59 89 97 20 28 30 2 0 1 6 8 5 2 4 3 1 1 0 0 0 0 1 1 1 0 3 2 16 22 18 56 83 68 67 94 79 71 97 84 68 97 79 65 96 78 71 95 82 70 94 81 67 96 78 68 97 79 72 96 83 67 94 79 65 94 76 71 98 81 65 92 75 66 95 77 70 97 82 77 101 88 66 93 76 69 96 81 63 92 72 69 96 81 60 87 72 2 4 3 8 8 10 13 19 19 1 1 1 18 24 20 48 63 56 47 64 54 67 94 79 68 95 78 68 95 80 32 45 38 0 0 0 35 53 55 60 89 95 60 89 97 60 89 97 61 90 98 59 88 96 61 90 98 61 90 98 62 91 99 60 89 97 60 89 97 61 90 98 61 90 98 60 89 97 60 89 97 58 87 95 60 89 97 61 90 98 60 89 97 60 89 97 61 90 98 60 89 97 61 90 98 60 89 97 60 89 97 60 89 97 60 89 97 61 90 98 60 89 97 59 88 96 60 89 97 61 90 98 62 91 99 60 89 97 62 91 99 61 90 98 61 90 98 60 89 97 61 90 98 61 90 98 60 89 97 59 88 96 61 90 98 59 88 96 60 89 97 60 89 97 60 89 97 59 88 96 60 89 97 59 88 96 
60 89 97 60 89 97 59 88 96 61 90 98 60 89 95 59 88 94 60 89 97 54 81 88 5 5 7 1 1 1 1 1 1 1 1 1 1 1 1 10 12 11 37 54 44 65 89 76 71 99 84 68 95 80 65 94 74 66 95 77 65 92 77 69 96 81 68 96 81 64 92 77 68 95 80 67 94 79 69 96 81 67 96 78 51 75 59 14 16 15 48 70 57 58 82 68 59 83 67 63 94 76 73 100 85 76 100 87 65 93 78 73 97 84 13 19 15 1 1 1 39 58 64 6 10 11 4 4 4 37 54 44 44 64 53 57 79 66 69 96 81 69 96 81 36 49 42 1 1 1 33 51 53 60 89 97 60 89 97 61 90 98 59 88 96 60 89 97 60 89 97 60 89 97 60 89 97 60 89 97 61 90 98 61 90 98 62 91 99 61 90 98 60 89 97 60 89 97 60 89 97 61 90 98 61 90 98 60 89 97 60 89 97 60 89 97 59 88 96 60 89 97 61 90 98 60 89 97 60 89 97 59 88 96 60 89 97 60 89 97 60 89 97 59 88 96 60 89 97 60 89 97 59 88 96 60 89 97 61 90 98 60 89 97 60 89 97 60 89 97 61 90 98 60 89 97 60 89 97 60 89 97 59 88 96 60 89 97 60 89 97 60 89 97 60 89 97 60 89 97 
60 89 97 60 89 97 60 89 97 60 89 97 62 89 96 60 89 97 62 89 98 59 88 96 20 28 30 0 0 0 1 1 1 3 3 3 19 25 23 48 61 54 55 76 61 63 94 76 68 95 80 71 95 81 68 95 80 60 93 72 65 94 76 69 97 82 69 96 81 66 94 79 65 93 78 65 92 77 69 96 81 69 97 82 41 54 47 1 1 3 6 8 7 34 49 44 47 67 58 58 82 68 64 93 75 69 95 82 66 93 78 67 95 80 27 36 33 0 0 0 44 63 70 30 41 45 1 1 1 26 37 31 48 64 53 52 74 61 66 93 78 67 95 80 46 68 56 0 1 0 25 36 40 62 89 98 59 88 96 59 88 96 61 90 98 61 90 98 61 90 98 60 89 97 59 88 96 59 88 96 60 89 97 61 90 98 61 90 98 61 90 98 58 87 95 60 89 97 60 89 97 60 89 97 59 88 96 59 88 96 59 88 96 59 88 96 60 89 97 60 89 97 60 89 97 59 88 96 61 90 98 59 88 96 60 89 97 60 89 97 62 91 99 60 89 97 60 89 97 60 89 97 60 89 97 60 89 97 60 89 97 60 89 97 60 89 97 60 89 97 60 89 97 60 89 97 60 89 97 61 90 98 60 89 97 60 89 97 60 89 97 59 88 96 60 89 97 60 89 97 
59 88 96 61 90 98 61 90 98 60 89 97 60 88 99 60 89 97 62 89 98 59 88 94 48 68 77 1 3 2 5 7 6 34 50 40 43 60 50 44 64 53 46 66 54 69 91 79 69 97 82 63 94 76 62 90 75 39 59 48 57 84 67 64 91 74 65 87 74 67 94 77 74 98 82 70 94 81 74 97 87 68 97 79 31 42 34 2 2 2 0 0 0 10 14 13 41 61 50 50 66 56 62 82 71 66 94 79 75 99 86 70 94 80 43 60 50 2 2 4 31 45 48 50 70 79 2 2 4 7 7 7 36 56 45 42 64 51 69 96 81 71 95 81 40 56 46 1 1 1 28 39 41 61 90 98 61 90 98 59 88 96 60 89 97 60 89 97 60 89 97 60 89 97 62 91 99 61 90 98 60 89 97 60 89 97 60 89 97 61 90 98 59 88 96 59 88 96 60 89 97 60 89 97 60 89 97 60 89 97 60 89 97 60 89 97 60 89 97 61 90 98 59 88 96 60 89 97 60 89 97 60 89 97 61 90 98 60 89 97 60 89 97 60 89 97 60 89 97 59 88 96 59 88 96 60 89 97 59 88 96 60 89 97 60 89 97 59 88 96 59 88 96 60 89 97 60 89 97 60 89 97 59 88 96 59 88 96 60 89 97 61 90 98 61 90 98 59 88 96 
59 88 96 61 90 98 60 89 97 59 88 96 60 88 99 60 89 97 60 89 95 60 89 97 58 85 94 14 22 24 1 1 1 32 43 37 49 64 57 46 63 53 47 64 54 58 82 69 68 97 79 69 98 80 37 54 44 2 2 2 22 26 25 56 72 62 43 63 51 61 83 71 71 95 81 65 93 78 65 94 76 62 90 75 20 26 22 1 1 3 6 10 11 1 1 1 31 44 35 45 65 54 53 73 62 65 94 76 66 93 76 64 93 75 46 68 55 1 1 0 20 30 29 58 85 94 20 28 31 1 1 1 27 38 32 48 64 54 58 82 68 70 96 83 38 53 46 1 1 1 28 42 45 59 88 96 60 89 97 60 89 97 59 88 96 61 90 98 60 89 97 61 90 98 60 89 97 61 90 98 59 88 96 59 88 96 60 89 97 59 88 96 60 89 97 61 90 98 59 88 96 61 90 98 60 89 97 60 89 97 61 90 98 59 88 96 61 90 98 60 89 97 60 89 97 60 89 97 60 89 97 60 89 97 59 88 96 60 89 97 60 89 97 59 88 96 59 88 96 60 89 97 59 88 96 60 89 97 59 88 96 61 90 98 60 89 97 60 89 97 60 89 97 60 89 97 61 90 98 61 90 98 60 89 97 61 90 98 59 88 96 61 90 98 59 88 96 60 89 97 
59 88 96 60 89 97 60 89 97 59 88 96 60 87 94 60 89 95 61 90 98 60 89 97 59 88 96 37 52 57 1 3 2 14 18 17 44 61 51 43 63 51 45 65 53 51 73 61 67 94 79 62 91 71 18 24 20 2 0 1 0 0 2 37 48 42 43 63 51 53 70 60 63 92 74 68 95 80 68 95 80 70 94 81 24 33 28 0 0 0 22 33 35 0 0 0 19 23 22 42 62 50 50 70 58 63 94 76 68 92 78 41 57 47 28 37 32 3 3 3 20 28 31 60 87 94 29 43 46 0 0 0 17 23 19 42 62 50 47 67 56 67 91 77 22 28 24 1 1 0 34 49 54 61 90 98 61 90 98 60 89 97 59 88 96 60 89 97 59 88 96 60 89 97 61 90 98 59 88 96 60 89 97 60 89 97 60 89 97 59 88 96 61 90 98 60 89 97 61 90 98 59 88 96 59 88 96 60 89 97 60 89 97 60 89 97 61 90 98 60 89 97 60 89 97 60 89 97 61 90 98 60 89 97 60 89 97 60 89 97 60 89 97 59 88 96 61 90 98 59 88 96 60 89 97 60 89 97 60 89 97 60 89 97 59 88 96 60 89 97 59 88 96 60 89 97 60 89 97 59 88 96 58 87 95 60 89 97 59 88 96 61 90 98 59 88 96 60 89 97 
61 90 98 60 89 97 59 88 96 60 89 97 60 89 97 60 89 95 60 89 97 60 89 97 59 88 96 56 81 88 8 9 11 1 3 0 32 45 36 43 63 52 44 61 51 48 65 55 68 92 79 66 90 77 7 7 5 4 4 6 0 0 2 24 33 28 44 64 52 39 59 47 64 87 77 62 90 75 74 96 84 66 94 80 14 20 18 1 3 2 32 47 52 2 2 2 9 14 10 42 62 51 49 64 59 58 82 68 16 21 14 57 49 13 76 71 33 70 66 39 24 29 23 48 71 77 40 59 65 2 0 1 13 18 14 46 63 53 44 66 53 71 95 82 18 28 20 1 1 1 43 62 69 60 89 97 60 89 97 59 88 96 61 90 98 59 88 96 60 89 97 60 89 97 60 89 97 60 89 97 60 89 97 60 89 97 60 89 97 60 89 97 61 90 98 61 90 98 60 89 97 61 90 98 61 90 98 61 90 98 59 88 96 60 89 97 59 88 96 60 89 97 61 90 98 60 89 97 59 88 96 60 89 97 61 90 98 59 88 96 60 89 97 59 88 96 61 90 98 60 89 97 61 90 98 60 89 97 59 88 96 59 88 96 60 89 97 60 89 97 61 90 98 60 89 97 60 89 97 60 89 97 61 90 98 60 89 97 60 89 97 60 89 97 60 89 97 60 89 97 
61 90 98 61 90 98 60 89 97 60 89 97 60 88 99 60 89 97 59 88 96 59 88 96 61 88 97 61 88 95 23 32 37 1 1 1 26 36 28 46 63 55 47 62 55 44 61 51 61 88 73 55 79 65 1 1 1 8 12 11 2 2 2 28 37 32 42 64 51 49 65 55 61 81 72 66 95 77 69 96 81 67 94 79 23 33 25 2 4 3 43 64 69 7 11 10 3 3 3 36 49 40 45 65 54 20 26 22 71 63 14 101 90 26 100 94 68 102 99 90 86 81 61 29 35 31 45 64 71 3 1 2 15 20 16 45 65 53 50 72 60 66 93 78 16 21 17 3 5 4 55 82 89 61 90 98 61 90 98 61 90 98 60 89 97 61 90 98 60 89 97 60 89 97 60 89 97 60 89 97 60 89 97 60 89 97 60 89 97 61 90 98 59 88 96 59 88 96 60 89 97 59 88 96 60 89 97 60 89 97 60 89 97 60 89 97 61 90 98 60 89 97 61 90 98 59 88 96 60 89 97 60 89 97 60 89 97 60 89 97 60 89 97 60 89 97 60 89 97 60 89 97 60 89 97 59 88 96 61 90 98 60 89 97 60 89 97 60 89 97 61 90 98 60 89 97 61 90 98 59 88 96 59 88 96 61 90 98 60 89 97 60 89 97 60 89 97 60 89 97 
58 87 95 60 89 97 61 90 98 60 89 97 59 88 96 59 88 96 61 90 98 61 88 97 61 90 96 60 89 97 31 48 55 1 1 1 18 24 22 43 63 51 40 62 49 47 64 54 55 79 63 57 81 68 1 1 0 20 28 31 8 8 10 6 11 7 41 58 48 48 63 56 51 75 61 70 94 81 74 95 86 63 90 73 20 31 25 1 1 1 47 68 73 23 33 35 1 1 0 27 38 32 42 55 48 36 32 7 99 89 18 101 90 26 100 95 65 100 95 66 100 94 62 49 45 20 35 53 57 4 6 5 3 5 4 42 60 48 55 75 64 65 92 77 2 3 7 6 10 11 59 86 95 61 90 98 61 90 98 59 88 96 60 89 97 59 88 96 60 89 97 59 88 96 60 89 97 60 89 97 60 89 97 60 89 97 60 89 97 61 90 98 60 89 97 60 89 97 60 89 97 60 89 97 59 88 96 60 89 97 59 88 96 59 88 96 61 90 98 60 89 97 60 89 97 60 89 97 61 90 98 60 89 97 60 89 97 60 89 97 60 89 97 60 89 97 60 89 97 61 90 98 59 88 96 60 89 97 60 89 97 61 90 98 60 89 97 60 89 97 61 90 98 60 89 97 59 88 96 61 90 98 60 89 97 60 89 97 60 89 97 60 89 97 59 88 96 61 90 98 
60 89 97 61 90 98 60 89 97 60 89 97 60 89 95 59 88 96 59 88 96 59 88 96 60 89 97 60 89 97 52 77 84 3 5 4 2 4 3 39 54 47 45 62 52 49 66 56 53 73 62 53 69 59 0 0 0 25 36 40 17 25 28 0 0 0 29 38 33 46 63 55 58 75 65 66 93 78 60 91 73 71 95 81 18 24 22 3 3 3 50 73 79 36 55 59 0 0 0 23 30 23 24 34 26 75 65 14 93 84 19 86 76 17 93 83 24 86 76 23 56 52 17 74 67 13 21 29 32 6 10 11 2 4 1 42 59 49 52 74 61 61 85 71 1 1 1 4 6 5 56 81 86 62 89 98 60 89 97 60 89 97 61 90 98 61 90 98 60 89 97 60 89 97 60 89 97 60 89 97 60 89 97 59 88 96 59 88 96 60 89 97 60 89 97 60 89 97 59 88 96 61 90 98 60 89 97 59 88 96 61 90 98 59 88 96 60 89 97 60 89 97 60 89 97 60 89 97 59 88 96 60 89 97 60 89 97 61 90 98 61 90 98 59 88 96 60 89 97 60 89 97 60 89 97 61 90 98 61 90 98 60 89 97 60 89 97 61 90 98 60 89 97 59 88 96 60 89 97 59 88 96 61 90 98 59 88 96 59 88 96 60 89 97 60 89 97 60 89 97 
61 90 98 59 88 96 60 89 97 59 88 96 60 89 97 61 90 94 62 89 98 59 88 96 61 90 98 60 87 94 55 82 89 8 9 11 3 1 2 40 56 46 47 64 54 48 64 54 55 77 64 28 44 34 1 1 1 41 60 66 34 49 54 0 0 0 20 30 22 49 64 57 50 70 59 66 95 77 66 94 79 61 92 74 20 29 24 1 1 1 48 67 74 46 69 75 2 2 2 6 10 9 8 9 11 95 84 20 49 45 8 81 72 15 39 33 7 51 45 11 35 30 8 85 74 18 20 28 30 11 15 16 1 3 2 38 54 44 52 72 61 57 81 67 0 0 0 10 14 15 59 88 96 59 88 96 59 88 96 61 90 98 60 89 97 60 89 97 60 89 97 60 89 97 58 87 95 60 89 97 60 89 97 59 88 96 59 88 96 61 90 98 59 88 96 59 88 96 60 89 97 59 88 96 60 89 97 62 91 99 60 89 97 60 89 97 59 88 96 61 90 98 60 89 97 60 89 97 60 89 97 59 88 96 60 89 97 59 88 96 59 88 96 62 91 99 60 89 97 61 90 98 59 88 96 59 88 96 60 89 97 60 89 97 59 88 96 59 88 96 59 88 96 59 88 96 59 88 96 59 88 96 60 89 97 59 88 96 59 88 96 59 88 96 59 88 96 60 89 97 
60 89 97 60 89 97 60 89 97 60 89 97 60 89 97 60 89 95 59 87 98 60 89 97 61 88 97 60 88 99 60 89 97 16 24 26 1 1 0 36 49 40 39 61 48 46 63 53 61 85 69 30 46 36 1 1 1 42 57 64 47 70 76 1 1 1 12 18 16 44 64 53 46 68 55 75 97 85 74 96 84 63 90 75 6 8 7 6 7 9 56 78 89 19 29 28 43 37 11 73 63 14 24 23 3 97 86 20 64 57 13 62 55 11 40 34 8 62 55 11 32 27 7 72 64 15 20 28 30 10 14 15 2 4 3 42 57 50 55 70 63 56 80 67 1 1 1 11 15 16 60 87 96 60 89 97 61 90 98 60 89 97 59 88 96 60 89 97 60 89 97 61 90 98 60 89 97 59 88 96 60 89 97 60 89 97 59 88 96 60 89 97 59 88 96 58 87 95 59 88 96 60 89 97 60 89 97 59 88 96 60 89 97 60 89 97 60 89 97 61 90 98 59 88 96 59 88 96 60 89 97 60 89 97 59 88 96 60 89 97 61 90 98 59 88 96 61 90 98 59 88 96 60 89 97 59 88 96 59 88 96 60 89 97 61 90 98 59 88 96 60 89 97 60 89 97 61 90 98 60 89 97 59 88 96 61 90 98 60 89 97 59 88 96 60 89 97 60 89 97 
59 88 96 61 90 98 60 89 97 60 89 97 59 88 96 60 89 97 59 88 96 61 88 97 61 88 95 59 88 96 60 89 95 24 38 39 1 1 1 28 39 31 45 65 54 49 66 56 60 89 71 18 24 20 0 0 0 44 65 70 56 81 88 5 6 8 8 10 7 42 59 49 45 65 54 63 90 73 66 94 79 64 90 77 3 5 4 5 5 5 48 71 77 20 21 7 99 89 20 99 89 20 42 36 10 88 76 18 97 87 18 74 64 15 78 68 15 95 85 16 87 77 18 61 53 14 28 42 43 9 13 14 2 2 2 40 57 47 51 71 59 56 73 63 0 0 0 12 20 22 59 87 98 59 88 96 60 89 97 59 88 96 60 89 97 60 89 97 60 89 97 61 90 98 60 89 97 58 87 95 60 89 97 60 89 97 59 88 96 58 87 95 60 89 97 61 90 98 60 89 97 59 88 96 59 88 96 60 89 97 60 89 97 60 89 97 59 88 96 60 89 97 60 89 97 60 89 97 60 89 97 60 89 97 59 88 96 60 89 97 60 89 97 61 90 98 60 89 97 60 89 97 62 91 99 59 88 96 60 89 97 60 89 97 60 89 97 60 89 97 58 87 95 59 88 96 59 88 96 61 90 98 61 90 98 60 89 97 59 88 96 60 89 97 60 89 97 60 89 97 
60 89 97 60 89 97 61 90 98 59 88 96 59 88 96 61 88 97 60 89 95 59 89 99 61 90 98 60 89 97 59 88 96 37 52 57 0 0 0 30 36 34 48 65 55 47 64 54 64 90 77 18 27 22 1 1 1 51 71 78 56 85 93 8 10 9 2 2 2 39 55 45 50 66 56 63 87 73 67 95 80 58 82 68 4 4 4 7 11 12 53 78 85 20 20 10 100 87 19 102 89 19 69 61 14 51 49 11 99 89 20 99 89 20 99 89 18 98 88 19 99 89 18 28 25 6 42 61 67 4 6 5 5 7 6 43 59 49 56 76 67 18 24 20 1 1 1 30 44 47 60 89 97 60 89 97 59 88 96 61 90 98 59 88 96 60 89 97 60 89 97 59 88 96 61 90 98 60 89 97 60 89 97 60 89 97 60 89 97 60 89 97 59 88 96 60 89 97 60 89 97 59 88 96 59 88 96 60 89 97 60 89 97 60 89 97 59 88 96 62 91 99 60 89 97 60 89 97 60 89 97 59 88 96 60 89 97 59 88 96 60 89 97 59 88 96 59 88 96 60 89 97 61 90 98 60 89 97 60 89 97 61 90 98 60 89 97 60 89 97 61 90 98 60 89 97 60 89 97 59 88 96 61 90 98 60 89 97 60 89 97 60 89 97 60 89 97 60 89 97 
60 89 97 60 89 97 60 89 97 59 88 96 60 87 94 59 88 96 60 89 97 60 89 97 60 87 96 60 88 99 60 87 96 28 39 43 1 1 1 19 28 23 47 63 53 46 62 52 51 71 60 9 11 10 4 6 5 56 81 88 56 81 88 4 8 7 4 4 2 43 56 47 43 65 52 59 81 69 71 95 81 49 72 56 1 1 1 16 21 24 59 87 98 26 37 41 34 29 9 49 43 11 29 26 9 11 12 6 90 78 18 102 89 21 102 89 19 100 87 19 62 55 11 22 28 28 53 76 82 3 5 4 2 4 3 30 46 36 46 59 52 2 2 2 2 2 2 53 78 85 59 88 96 60 89 97 60 89 97 59 88 96 59 88 96 60 89 97 60 89 97 60 89 97 59 88 96 59 88 96 60 89 97 61 90 98 61 90 98 59 88 96 60 89 97 59 88 96 60 89 97 59 88 96 61 90 98 58 87 95 60 89 97 59 88 96 60 89 97 60 89 97 61 90 98 60 89 97 59 88 96 60 89 97 60 89 97 60 89 97 58 87 95 60 89 97 60 89 97 60 89 97 60 89 97 59 88 96 59 88 96 60 89 97 60 89 97 60 89 97 59 88 96 60 89 97 60 89 97 59 88 96 60 89 97 61 90 98 59 88 96 59 88 96 60 89 97 60 89 97 
61 90 98 60 89 97 59 88 96 60 89 97 59 88 94 59 88 96 59 87 98 61 88 97 60 89 97 60 89 97 58 88 96 33 47 50 0 0 0 20 26 22 41 61 50 47 67 58 50 72 59 6 8 7 1 1 1 51 74 80 58 85 92 11 15 18 0 0 0 31 44 35 40 62 49 63 83 74 67 94 77 50 66 56 0 0 0 17 25 27 61 88 97 59 86 93 9 13 14 2 2 2 37 53 43 38 54 44 14 15 9 56 51 13 76 66 15 45 40 10 10 14 15 58 85 92 34 52 56 1 1 1 1 1 1 2 2 2 1 1 1 1 1 1 11 15 18 60 87 96 60 87 96 59 88 96 60 89 97 60 89 97 60 89 97 60 89 97 61 90 98 60 89 97 59 88 96 59 88 96 59 88 96 60 89 97 61 90 98 60 89 97 60 89 97 60 89 97 59 88 96 60 89 97 60 89 97 60 89 97 60 89 97 60 89 97 60 89 97 59 88 96 60 89 97 59 88 96 59 88 96 60 89 97 60 89 97 60 89 97 60 89 97 60 89 97 60 89 97 60 89 97 60 89 97 60 89 97 60 89 97 61 90 98 60 89 97 59 88 96 60 89 97 61 90 98 60 89 97 59 88 96 60 89 97 60 89 97 58 87 95 60 89 97 60 89 97 60 89 97 
60 89 97 60 89 97 61 90 98 59 88 96 61 88 97 59 88 96 60 87 96 60 88 99 59 90 95 61 88 95 59 89 97 27 41 42 1 1 3 24 34 26 41 63 50 46 64 52 49 69 57 5 6 8 9 14 17 59 86 95 60 87 96 15 23 25 2 2 2 35 51 41 41 61 50 58 78 66 71 100 82 53 70 60 1 1 1 19 29 30 60 89 97 58 87 95 11 17 17 2 2 2 43 58 51 44 64 55 64 88 74 43 54 48 30 39 34 3 3 3 14 19 22 58 85 94 12 17 20 1 1 1 38 38 40 23 23 23 24 24 24 2 2 2 6 7 9 59 84 91 61 88 97 60 89 95 60 89 97 60 89 97 60 89 97 60 89 97 59 88 96 60 89 97 60 89 97 59 88 96 61 90 98 60 89 97 59 88 96 60 89 97 59 88 96 60 89 97 59 88 96 60 89 97 60 89 97 59 88 96 60 89 97 60 89 97 59 88 96 60 89 97 59 88 96 60 89 97 60 89 97 59 88 96 59 88 96 60 89 97 60 89 97 60 89 97 59 88 96 61 90 98 59 88 96 60 89 97 60 89 97 60 89 97 60 89 97 60 89 97 59 88 96 60 89 97 60 89 97 60 89 97 60 89 97 60 89 97 60 89 97 59 88 96 59 88 96 60 89 97 
60 89 97 60 89 97 59 88 96 60 89 97 60 89 97 60 89 97 59 88 94 61 88 99 60 87 96 60 87 96 60 89 97 32 45 51 1 1 1 15 24 19 45 62 52 43 63 51 42 59 49 1 1 1 18 23 26 62 89 98 58 85 94 11 15 18 1 1 3 28 41 34 44 61 51 52 74 61 67 94 77 36 52 42 0 0 0 30 45 48 60 89 97 60 87 96 13 21 23 3 3 3 40 56 45 48 65 55 59 86 71 66 93 78 51 73 60 1 1 1 23 34 36 59 86 93 10 16 16 3 3 3 48 48 48 70 70 70 64 64 64 2 2 2 13 18 21 57 87 95 61 90 96 61 90 98 60 89 97 60 89 97 59 88 96 60 89 97 59 88 96 61 90 98 60 89 97 60 89 97 61 90 98 60 89 97 60 89 97 60 89 97 58 87 95 59 88 96 60 89 97 60 89 97 60 89 97 60 89 97 60 89 97 60 89 97 60 89 97 60 89 97 60 89 97 60 89 97 59 86 95 60 89 97 60 89 97 60 89 97 60 89 97 60 89 97 60 89 97 61 88 97 60 89 97 60 89 97 59 88 96 60 89 97 61 90 98 59 88 96 60 89 97 60 89 97 59 88 96 60 89 97 60 89 97 60 89 97 60 89 97 60 89 97 59 88 96 60 89 97 
60 89 97 59 88 96 59 88 96 60 89 97 59 88 96 60 88 99 61 88 97 60 87 96 61 90 98 60 87 96 61 88 97 23 34 36 1 1 1 26 37 31 49 66 56 53 77 63 36 52 42 2 0 1 12 17 20 58 87 95 59 88 96 19 29 31 1 1 1 34 45 37 44 64 52 55 77 65 74 98 84 29 42 33 0 0 0 36 51 56 61 90 96 58 85 94 12 18 18 2 2 2 35 50 43 47 64 54 68 94 81 62 91 73 39 56 46 0 0 0 34 52 56 60 84 94 13 21 23 1 1 1 9 9 11 24 24 24 5 5 5 1 1 1 28 42 45 60 89 97 59 88 96 60 89 97 59 88 96 60 89 97 60 89 97 60 89 97 60 89 97 60 89 97 60 89 97 60 89 97 60 89 97 60 89 97 60 89 97 60 89 97 58 87 95 59 88 96 60 89 97 60 89 97 60 89 97 60 89 97 59 88 96 59 88 96 60 89 97 61 90 98 60 89 97 59 88 96 60 87 96 60 89 97 60 89 97 60 89 97 60 89 97 60 89 97 59 88 96 61 88 97 60 89 97 59 88 96 60 89 97 59 88 96 60 89 97 59 88 96 59 88 96 59 88 96 60 89 97 61 90 98 58 87 95 60 89 97 60 89 97 60 89 97 60 89 97 60 89 97 
60 89 97 60 89 97 60 89 97 59 88 96 61 88 97 59 88 96 59 88 94 59 88 96 60 89 97 61 88 99 59 88 96 28 39 43 1 1 1 5 7 4 9 11 8 19 30 22 25 36 30 0 0 0 26 37 39 59 88 96 59 88 96 13 18 21 0 0 0 37 48 42 44 64 53 63 83 72 61 92 74 24 29 25 1 1 3 39 56 63 60 87 96 61 88 95 14 24 26 3 3 3 38 56 44 45 65 54 62 89 72 68 96 81 26 37 29 1 1 3 47 67 74 60 89 97 31 46 49 0 0 0 0 0 0 1 1 1 1 1 1 12 17 20 59 83 93 63 87 97 59 88 96 60 87 96 59 88 96 59 88 96 59 88 96 60 89 97 61 90 98 59 88 96 59 88 96 60 89 97 59 88 96 59 88 96 60 89 97 60 89 97 60 89 97 59 88 96 60 89 97 60 89 97 59 88 96 59 88 96 60 89 97 60 89 97 59 88 96 60 89 97 59 88 96 60 89 97 61 90 98 59 88 96 60 87 96 60 87 96 60 87 96 61 88 97 59 88 96 59 88 96 60 89 97 60 89 97 60 89 97 59 88 96 59 88 96 59 88 96 61 90 98 60 89 97 60 89 97 60 89 97 59 88 96 60 89 97 60 89 97 59 88 96 59 88 96 60 89 97 
60 87 96 60 87 96 61 88 97 62 89 98 60 89 97 60 87 96 61 88 97 61 90 98 59 88 96 61 88 97 47 71 75 2 4 3 2 0 3 5 5 5 3 3 1 2 0 1 1 1 1 1 1 1 35 53 57 60 87 96 58 86 90 10 14 15 2 2 2 36 52 41 48 68 56 68 92 78 72 96 83 17 22 18 1 1 1 42 61 67 60 89 97 57 84 93 11 15 16 3 5 2 39 56 46 53 73 61 69 93 79 59 88 70 11 12 14 1 1 0 53 78 85 59 86 95 12 17 20 0 0 0 34 34 34 10 10 10 2 2 2 48 71 77 60 87 96 61 88 97 60 89 97 60 89 97 61 88 97 61 88 97 61 88 97 62 89 98 60 87 96 61 88 97 60 87 96 60 87 96 60 87 96 60 87 96 60 87 96 62 89 98 60 87 96 61 88 97 62 89 98 60 87 96 60 89 97 59 88 96 59 88 96 59 88 96 60 89 97 60 89 97 59 88 96 59 88 96 60 89 97 60 89 97 60 87 96 61 88 97 61 88 97 60 87 96 60 89 97 60 89 97 61 88 97 61 88 97 61 88 97 60 87 96 61 88 97 61 88 97 59 86 95 62 89 98 61 88 97 60 87 96 61 88 97 60 87 96 61 88 97 61 88 97 60 87 96 60 87 96 
60 87 96 60 87 96 59 86 95 60 87 96 61 88 97 60 87 96 60 89 97 63 88 95 60 89 97 60 87 96 42 61 67 1 1 1 15 15 15 53 53 53 64 66 63 39 39 39 7 7 7 1 1 1 40 58 62 60 89 97 57 82 89 8 9 11 6 8 7 41 59 47 53 75 62 68 94 81 58 84 71 4 4 4 5 9 10 57 82 89 58 87 95 52 77 82 2 2 2 6 10 9 51 64 57 58 82 68 68 95 80 57 79 67 2 2 4 8 12 13 58 85 94 53 78 85 5 7 6 3 3 1 48 48 48 5 5 5 5 7 6 55 82 89 60 88 99 59 89 97 60 89 97 59 88 96 60 87 96 61 88 97 61 88 97 60 87 96 61 88 97 60 87 96 60 87 96 61 88 97 60 87 96 61 88 97 60 87 96 60 87 96 60 87 96 61 88 97 62 89 98 60 87 96 60 89 97 59 88 96 59 88 96 60 89 97 59 88 96 59 88 96 60 89 97 59 88 96 60 87 96 60 87 96 61 88 97 59 88 96 59 88 96 61 88 97 61 88 97 60 87 96 60 87 96 60 87 96 60 87 96 61 88 97 63 90 99 60 87 96 61 88 97 61 88 97 61 88 97 60 87 96 60 87 96 60 87 96 61 88 97 61 88 97 61 88 97 61 88 97 
61 88 97 61 88 97 61 88 97 61 88 97 60 87 94 62 86 96 60 89 97 60 87 96 59 88 96 60 87 98 38 55 62 1 0 0 27 27 27 58 58 58 72 72 72 77 77 77 39 39 39 1 1 1 23 37 40 60 87 96 49 69 76 3 3 5 4 4 4 12 16 15 16 25 20 65 87 75 51 73 60 1 1 1 14 23 22 60 87 96 60 89 97 49 71 82 1 3 2 2 4 3 9 13 12 33 39 39 50 70 59 31 42 34 1 1 3 22 32 34 60 87 96 42 61 68 1 1 1 9 9 9 49 49 49 1 1 1 24 34 36 60 87 96 60 87 96 60 89 97 60 87 96 59 88 94 61 88 97 61 88 97 59 86 95 60 87 96 59 86 95 60 87 96 61 88 97 60 87 96 60 87 96 62 89 98 61 88 97 60 87 96 60 87 96 61 88 97 60 87 96 60 87 96 59 88 96 60 89 97 59 88 96 60 89 97 59 88 96 59 88 96 59 88 96 60 89 97 60 87 96 60 87 96 61 88 97 60 89 97 60 89 97 60 87 96 61 88 97 60 87 96 61 88 97 61 88 97 60 87 96 61 88 97 61 88 97 61 88 97 60 87 96 61 88 97 60 87 96 60 87 96 60 87 96 61 88 97 61 88 97 60 87 96 61 88 97 61 88 97 
61 88 97 60 87 96 61 88 97 60 87 96 59 88 96 60 89 97 60 87 98 61 88 97 60 89 97 60 87 98 50 73 79 5 5 7 3 3 3 21 21 21 49 49 49 68 68 70 19 19 19 1 1 1 28 41 47 59 86 95 28 41 47 2 2 2 0 2 1 0 0 0 0 0 0 10 14 13 35 48 39 0 0 0 23 35 35 59 86 95 61 88 97 46 65 72 1 3 0 1 1 1 1 1 0 2 0 3 2 2 2 2 2 2 4 5 7 49 69 78 61 88 97 33 51 55 1 1 1 28 28 28 17 17 15 2 3 5 43 64 69 60 89 97 60 89 95 61 88 97 62 89 98 60 89 97 61 88 97 60 87 96 60 87 96 61 88 97 60 87 96 61 88 97 60 87 96 61 88 97 61 88 97 61 88 97 62 89 98 60 87 96 60 87 96 60 87 96 60 87 96 60 87 96 59 88 96 59 88 96 59 88 96 59 88 96 59 88 96 59 88 96 59 88 96 59 88 96 60 87 96 60 87 96 60 87 96 60 87 96 60 87 96 60 87 96 62 89 98 61 88 97 60 87 96 60 87 96 61 88 97 60 87 96 60 87 96 60 87 96 60 87 96 60 87 96 61 88 97 60 87 96 60 87 96 60 87 96 61 88 97 61 88 97 61 88 97 60 87 96 
60 89 97 60 89 97 60 87 96 60 89 97 60 87 96 60 88 99 61 90 98 60 87 96 59 88 96 60 87 96 58 85 92 9 13 14 1 1 1 0 0 0 0 0 0 4 2 3 1 1 1 7 11 10 51 74 80 56 81 88 8 9 11 2 2 2 18 20 19 39 41 40 15 15 17 1 1 1 1 3 2 1 1 1 39 58 64 60 87 96 60 87 96 30 43 49 1 1 1 14 16 15 43 43 43 47 47 47 13 13 13 0 0 0 7 11 12 58 87 93 57 84 93 9 13 16 0 0 0 25 25 25 1 3 2 13 21 23 59 88 96 61 88 95 60 87 96 61 88 97 61 88 97 59 88 96 61 88 97 59 86 95 60 87 96 59 86 95 61 88 97 61 88 97 60 89 97 59 88 96 60 87 96 61 88 97 61 88 97 61 88 97 60 87 96 61 88 97 59 86 95 60 87 96 60 89 97 59 88 96 59 88 96 60 89 97 61 88 97 59 86 95 59 86 95 61 88 97 60 87 96 60 87 96 60 89 97 60 89 97 60 87 96 61 88 97 59 86 95 59 88 96 60 87 96 60 87 96 60 87 96 60 87 96 61 88 97 60 87 96 61 88 97 61 88 97 61 88 97 60 87 96 60 87 96 61 88 97 60 87 96 61 88 97 60 87 96 61 88 97 
59 88 96 60 87 96 62 86 96 61 88 97 61 88 97 60 89 97 59 88 96 59 88 96 60 87 96 59 88 94 52 77 82 2 4 3 6 6 6 35 35 35 21 19 20 1 1 1 16 24 26 51 76 83 59 90 95 45 64 71 1 1 1 15 15 17 57 57 57 72 72 72 72 72 72 52 52 52 2 2 2 10 15 18 59 84 91 60 87 94 56 85 91 11 15 18 0 0 0 38 39 41 60 58 59 76 76 76 67 67 67 3 1 2 7 9 8 60 85 92 51 71 78 1 3 2 2 2 2 2 0 1 1 1 1 42 59 66 61 88 97 60 87 96 59 88 94 59 88 94 60 89 95 59 88 96 59 88 96 59 88 96 61 88 97 60 87 96 60 87 96 59 86 95 60 87 96 61 88 97 61 88 97 61 88 97 60 87 96 60 87 96 60 87 96 60 87 96 61 88 97 60 87 96 61 90 98 59 88 96 58 87 95 59 86 95 61 88 97 60 89 97 60 87 96 62 86 96 60 87 96 59 88 96 60 89 97 60 89 97 60 87 96 60 87 96 61 88 97 60 89 97 61 88 97 61 88 97 61 88 97 61 88 97 60 87 96 60 87 96 60 87 96 60 87 96 60 87 96 60 87 96 60 87 96 61 88 97 61 88 97 60 87 96 61 88 97 60 87 96 
60 87 96 60 87 96 60 87 96 60 87 96 61 88 99 60 87 96 60 87 96 58 88 96 60 87 96 61 88 97 51 74 82 4 4 6 5 5 5 56 56 56 27 27 27 1 1 3 40 53 61 60 87 96 59 88 96 43 60 67 1 3 2 12 12 12 57 57 57 73 73 73 76 76 76 58 58 60 0 0 0 11 16 19 59 88 96 60 87 96 59 86 93 13 21 23 1 1 1 42 43 45 61 61 59 76 76 76 57 57 57 3 3 3 9 13 14 58 88 96 43 62 68 2 2 2 1 1 1 0 0 0 19 29 31 57 86 94 60 89 97 59 88 96 60 89 95 59 88 96 59 88 96 59 88 96 61 88 97 60 87 96 60 89 97 60 89 97 59 88 96 60 89 97 60 89 97 59 88 96 61 88 97 60 87 96 61 88 97 60 87 96 59 86 95 60 87 96 60 87 96 61 88 97 59 88 96 59 88 96 60 87 96 59 88 96 60 89 97 60 87 96 59 88 96 60 87 96 60 87 96 59 88 96 60 87 96 59 88 96 60 89 97 60 87 96 60 89 97 59 88 96 61 88 97 59 88 96 59 88 96 60 87 96 60 87 96 60 89 97 59 88 96 60 87 96 62 89 98 60 87 96 61 88 97 60 87 96 61 88 97 60 87 96 61 88 97 60 87 96 
59 86 95 59 88 96 60 87 96 60 87 96 59 88 96 60 89 97 60 87 96 59 88 96 60 87 94 60 87 94 41 62 67 2 0 1 8 8 8 59 61 58 6 6 6 7 8 10 53 78 85 60 87 96 59 86 95 42 61 67 1 3 2 1 1 1 14 14 12 46 46 46 54 56 55 29 34 37 0 0 0 10 14 17 59 86 93 60 87 96 58 87 95 22 31 36 0 0 0 7 5 8 22 22 22 22 22 22 8 8 8 1 1 1 26 40 41 58 88 96 55 82 89 15 23 25 4 4 6 29 43 46 58 85 92 61 88 97 60 87 96 59 88 96 60 87 96 61 88 97 61 88 97 59 88 96 61 88 97 60 87 96 60 87 96 60 87 96 60 87 96 60 87 96 61 88 97 61 88 97 60 87 96 59 86 95 61 88 97 61 88 97 61 88 97 61 88 97 60 87 96 60 87 96 59 88 96 60 87 96 60 89 97 61 88 97 61 88 97 59 88 96 60 87 96 60 87 96 60 89 97 60 89 97 60 89 97 60 89 97 62 89 98 60 87 96 61 88 97 60 87 96 60 87 96 59 88 96 59 88 96 60 87 96 60 87 96 59 88 96 59 88 96 60 87 96 61 88 97 60 87 96 61 88 97 60 87 96 62 89 98 61 88 97 61 88 97 61 88 97 
60 87 96 60 87 96 59 88 96 59 86 95 59 88 96 59 88 96 59 86 95 60 87 96 60 89 97 60 87 96 45 64 70 0 0 0 18 18 18 28 26 27 0 0 0 30 44 47 60 87 96 60 89 97 61 88 95 35 52 59 0 0 0 7 7 7 0 2 1 1 1 1 0 0 0 1 1 0 3 4 6 49 74 79 59 88 96 60 87 96 59 89 97 54 77 83 6 6 8 0 0 0 0 0 0 0 0 0 1 1 1 16 21 24 56 83 92 60 87 96 60 89 97 57 86 92 55 82 89 59 86 95 60 87 96 60 87 96 59 86 95 61 88 97 60 87 94 61 88 97 59 86 95 60 87 96 59 88 96 60 89 97 61 90 98 59 88 96 59 88 96 61 88 97 62 89 98 62 86 96 61 88 97 60 87 96 60 87 96 61 88 97 60 87 96 60 87 96 61 88 97 59 86 95 59 88 96 60 89 97 59 86 95 59 88 96 59 88 96 60 87 96 59 88 96 59 86 95 60 87 96 60 87 96 60 87 96 61 88 97 60 89 97 59 88 96 59 88 96 60 89 97 61 88 97 60 89 97 60 89 97 61 88 97 61 88 97 59 88 96 59 88 96 60 87 96 59 86 95 61 88 97 60 87 96 60 87 96 61 88 97 60 87 96 60 87 96 61 88 97 
61 88 97 60 87 96 59 88 96 60 87 96 61 88 95 60 89 97 60 89 97 60 87 96 60 87 96 60 89 97 33 48 53 1 1 1 12 14 13 2 2 2 4 8 9 52 77 82 59 88 96 59 86 95 59 88 96 29 40 42 0 0 0 34 34 34 35 35 37 27 27 27 1 1 1 6 6 8 41 60 66 61 88 97 60 87 96 61 88 97 60 89 97 45 68 74 2 2 2 10 10 12 45 45 45 10 8 9 2 1 0 46 66 73 59 88 96 61 88 97 60 89 97 60 87 94 60 87 96 60 89 97 59 88 96 59 88 96 60 87 96 59 88 96 60 87 94 60 87 94 59 88 96 60 89 97 61 88 97 60 87 96 60 87 96 60 87 96 60 87 96 60 87 96 61 88 97 60 87 96 60 87 96 60 87 96 60 87 96 61 88 97 60 87 96 60 87 96 61 88 97 60 87 96 59 88 96 60 87 96 60 89 97 59 86 95 60 87 96 59 88 96 59 86 95 60 87 96 60 89 97 61 88 97 59 88 96 61 88 97 60 87 96 60 89 97 60 87 96 61 88 97 61 88 97 60 89 97 59 88 96 60 87 96 61 88 97 59 88 96 60 89 97 60 87 96 61 88 97 61 88 97 60 87 96 61 88 97 59 86 95 61 88 97 60 87 96 60 87 96 
60 87 96 60 89 97 60 87 96 62 89 98 60 87 96 60 87 96 60 89 97 60 87 96 60 87 96 60 89 97 26 40 43 0 0 0 1 1 1 1 1 1 35 53 57 60 87 96 61 88 95 60 87 94 60 87 96 19 27 30 3 1 2 42 42 42 65 65 65 52 52 54 0 0 0 24 35 37 59 88 96 60 87 96 60 87 96 60 87 96 60 87 96 30 44 47 0 0 0 25 25 25 67 67 67 2 2 2 5 9 10 57 82 89 59 88 96 59 88 96 58 89 94 59 88 96 60 87 94 62 86 96 58 88 96 61 88 97 61 88 97 59 88 96 59 88 96 60 89 97 60 87 96 60 87 96 60 87 96 61 88 97 60 87 96 60 87 96 60 89 97 60 89 97 59 88 96 60 87 96 61 88 97 61 88 97 60 87 96 60 87 96 61 88 97 60 87 96 61 88 97 60 87 96 58 88 96 60 89 97 60 87 96 59 88 96 61 90 98 59 86 95 61 88 97 60 87 96 59 88 96 60 87 96 60 87 96 60 87 96 59 88 96 60 89 97 59 88 96 61 88 97 59 88 96 59 88 96 59 88 96 59 88 96 59 88 96 59 88 96 60 89 97 60 89 97 60 87 96 60 87 96 61 88 97 59 86 95 61 88 97 61 88 97 60 87 96 60 87 96 
59 86 95 60 87 96 60 89 97 60 87 96 60 87 94 60 89 97 61 88 97 60 87 96 60 87 96 60 87 96 26 35 40 1 1 1 1 1 1 18 26 29 56 83 92 60 87 96 62 89 96 59 88 94 61 88 97 16 24 26 3 3 3 50 50 50 69 69 69 24 24 26 1 1 1 33 48 53 60 89 95 60 89 97 59 88 96 60 89 97 58 85 92 13 18 21 1 1 1 52 52 52 36 36 36 1 1 1 30 44 47 60 87 96 59 86 95 61 88 97 61 88 97 60 89 97 60 89 97 59 88 96 60 87 96 60 87 94 59 88 96 58 87 95 60 89 97 59 88 96 58 87 95 59 86 93 60 87 96 62 89 98 61 88 97 60 87 96 61 85 95 62 86 96 60 87 96 60 87 96 61 88 97 60 87 96 61 88 97 60 87 96 61 88 97 60 87 96 60 87 96 60 87 96 59 88 96 59 88 96 59 88 96 58 87 95 59 86 95 61 88 97 60 87 96 60 87 96 60 89 97 59 88 96 60 87 96 60 87 96 61 90 98 59 88 96 59 88 96 60 87 96 59 88 96 59 88 96 59 88 96 60 89 97 59 88 96 60 89 97 59 88 96 59 88 96 59 86 95 61 88 97 60 87 96 60 87 96 60 87 96 60 87 96 60 87 96 60 87 96 
