P3
100 50
255
110 69 65 110 69 65 110 69 65 111 70 66 111 70 66 110 69 65 110 69 65 110 69 65 111 70 66 110 69 65 110 69 65 110 69 65 110 69 65 110 69 65 110 69 65 111 70 66 111 70 66 111 70 66 111 70 66 111 70 66 111 70 66 110 69 65 110 69 65 111 70 66 110 69 65 111 70 66 110 69 65 110 69 65 111 70 66 110 69 65 110 69 65 111 70 66 110 69 65 112 69 63 111 70 66 109 68 64 26 18 16 0 0 0 0 0 0 1 1 1 40 26 25 108 69 64 111 70 66 111 70 64 90 57 52 15 11 10 0 2 1 0 0 0 1 1 1 46 18 17 69 27 28 96 36 36 112 42 42 112 42 42 111 43 42 112 42 44 111 41 41 87 33 33 1 1 1 1 1 1 3 3 3 3 3 3 3 3 3 2 2 2 2 2 2 3 3 3 3 3 3 3 3 3 2 2 2 1 1 1 23 21 24 101 93 104 100 92 105 105 99 109 107 102 109 95 87 100 103 100 107 103 97 107 102 97 104 98 90 103 94 87 103 100 92 107 95 89 101 98 90 103 94 86 101 100 92 107 107 102 108 97 91 103 98 90 103 94 86 99 96 88 103 98 90 105 101 93 108 98 92 106 97 89 102 103 97 107 100 89 103 96 88 103 101 94 102 97 91 105 
110 69 65 111 70 66 110 69 65 110 69 65 110 69 65 111 70 66 111 70 66 109 68 64 111 70 66 111 70 66 110 69 65 110 69 65 111 70 66 111 70 66 111 70 66 111 70 66 110 69 65 110 69 65 110 69 65 112 71 67 110 69 65 110 69 65 111 70 66 111 70 66 110 69 65 110 69 65 109 68 64 110 69 65 110 69 65 110 69 65 109 68 64 111 70 66 111 70 66 110 69 65 111 70 64 111 70 66 41 27 26 0 0 0 21 9 9 8 4 3 1 1 1 37 23 23 101 64 58 90 57 52 22 14 12 0 0 0 3 3 1 2 2 2 1 1 1 24 10 10 68 27 23 77 29 29 108 40 37 110 42 41 112 42 42 111 41 41 97 37 37 31 13 11 1 1 1 1 1 1 3 3 3 3 3 3 2 2 2 3 3 3 3 3 5 3 3 3 3 3 3 3 3 3 2 2 2 1 1 1 0 2 1 49 46 53 104 96 107 101 95 109 98 92 104 96 88 101 107 99 110 99 91 102 104 98 108 101 95 105 102 94 109 97 89 102 105 97 108 106 101 107 98 90 103 97 89 104 103 95 106 100 92 107 102 94 107 95 89 103 97 89 102 101 95 105 98 90 101 103 95 106 100 94 106 105 98 106 92 80 100 103 95 108 96 88 99 99 93 103 
110 69 65 110 69 65 111 70 66 111 70 66 111 70 66 110 69 65 110 69 65 110 69 65 111 70 66 111 70 66 110 69 65 110 69 65 110 69 65 110 69 65 110 69 65 111 70 66 110 69 65 111 70 66 111 70 66 110 69 65 111 70 66 111 70 66 109 68 64 111 70 66 109 68 64 110 69 65 110 69 65 110 69 65 111 70 66 110 69 65 109 68 64 111 70 66 110 71 66 111 70 66 111 70 66 111 70 66 53 33 32 0 0 0 30 12 12 57 23 21 17 7 6 1 1 3 13 9 6 15 9 9 0 0 0 2 2 4 4 4 4 3 3 3 1 1 1 1 1 1 40 16 14 71 27 28 90 34 35 113 43 43 112 42 42 112 44 43 37 15 17 0 0 0 2 2 2 3 3 3 3 3 3 3 3 3 3 3 3 3 3 3 2 2 2 3 3 3 3 3 3 3 3 3 3 3 3 2 2 2 0 0 0 4 4 6 86 80 90 98 90 103 105 99 109 103 98 105 98 92 104 101 93 106 102 94 105 102 94 107 99 94 101 99 93 105 98 92 104 103 97 109 95 87 102 101 93 108 98 90 105 96 87 104 100 94 104 101 95 107 96 88 103 96 87 104 98 92 102 100 92 105 96 88 103 104 96 107 102 96 106 100 97 106 98 90 103 104 98 108 
111 70 66 109 68 64 111 70 66 111 70 66 110 69 65 111 70 66 109 68 64 110 69 65 111 70 66 111 70 66 111 70 66 110 69 65 110 69 65 111 70 66 110 69 65 111 70 66 110 69 65 110 69 65 111 70 66 109 68 64 111 70 66 111 70 66 110 69 65 110 69 65 110 69 65 110 69 65 111 70 66 111 70 66 110 69 65 111 70 66 110 69 65 111 70 66 111 70 66 109 68 64 111 70 66 110 69 65 93 58 56 3 3 1 9 3 3 65 25 25 91 32 34 42 16 15 1 1 0 0 0 2 2 2 2 2 2 2 4 4 4 4 4 4 1 1 1 1 1 1 10 4 4 65 25 25 75 30 27 105 41 41 110 42 41 51 19 20 2 2 0 1 1 0 3 3 3 3 3 3 3 3 3 3 3 3 3 3 1 2 2 2 4 4 2 3 3 3 3 3 3 3 3 3 3 3 3 2 2 2 2 0 1 0 0 0 36 34 39 99 93 105 102 95 103 100 92 105 101 95 105 96 90 104 101 98 107 100 92 107 100 92 103 102 96 106 96 93 104 95 92 101 99 93 105 97 91 105 101 95 105 104 96 107 96 90 104 89 80 97 98 90 105 99 91 102 97 91 103 104 99 106 95 84 100 96 90 102 103 95 108 101 95 105 100 94 106 92 84 99 
110 69 65 111 70 66 111 70 66 111 70 66 111 70 66 111 70 66 111 70 66 110 69 65 111 70 66 111 70 66 111 70 66 111 70 66 111 70 66 109 68 64 111 70 66 111 70 66 111 71 63 111 70 66 109 70 65 110 69 63 110 69 65 111 70 68 110 71 66 110 69 65 110 69 65 109 68 64 110 69 65 112 68 65 110 69 65 110 69 63 111 70 66 111 70 66 110 69 65 111 70 64 113 69 66 111 67 64 110 69 67 24 16 14 0 0 0 30 12 10 70 26 25 13 4 5 2 0 3 1 1 0 3 3 3 4 2 3 3 3 3 4 4 4 2 2 2 1 1 3 1 1 1 43 17 16 68 26 27 87 33 31 48 18 18 0 0 0 1 1 1 2 2 2 3 3 3 3 3 3 3 3 3 3 3 3 3 3 3 3 3 3 3 3 3 3 3 3 3 3 3 4 2 3 2 2 2 2 0 1 0 0 0 0 0 0 3 3 3 56 53 60 96 90 104 101 90 104 96 88 103 99 91 104 95 87 102 102 96 108 97 91 105 98 90 105 100 94 106 97 94 105 102 96 108 100 92 103 100 92 105 97 89 102 101 90 106 98 92 102 99 91 104 93 82 99 99 93 103 100 94 106 103 95 108 92 84 97 98 90 103 98 92 104 101 93 106 97 89 104 
110 69 65 112 71 67 110 69 65 111 70 66 111 70 66 111 70 66 110 69 65 110 69 65 111 70 66 110 69 65 111 70 66 110 69 65 110 69 65 110 69 65 111 70 66 110 69 65 109 68 64 110 69 65 111 70 66 110 71 66 111 70 66 112 68 65 112 68 65 111 70 68 110 69 65 111 70 66 112 69 63 111 70 66 110 69 65 110 69 65 110 69 65 111 70 66 110 69 65 111 70 68 110 69 65 111 70 66 112 68 67 73 45 44 1 1 3 5 4 2 11 5 5 1 1 1 2 2 2 1 1 1 2 2 4 3 3 3 3 3 3 3 3 3 3 3 3 1 1 1 0 0 0 10 4 4 44 16 15 29 10 12 1 1 0 1 1 1 2 2 2 2 2 2 3 3 3 2 2 2 3 3 3 3 3 3 3 3 3 3 3 3 2 4 3 2 2 2 3 3 3 3 3 3 1 1 3 1 1 1 14 6 4 26 11 8 1 1 1 12 12 14 86 80 90 103 97 107 96 90 104 100 94 106 95 87 102 99 96 103 101 93 106 101 93 106 102 94 107 98 90 103 100 92 105 99 91 104 97 89 102 100 92 105 96 88 103 98 92 104 99 91 102 99 91 102 97 89 100 103 96 104 97 89 104 104 98 108 96 90 104 103 101 106 101 90 106 99 88 102 
111 70 66 110 69 65 111 70 66 110 69 65 111 70 66 111 70 66 110 69 65 111 70 66 110 69 65 110 69 65 111 70 66 110 69 65 110 69 65 110 69 65 110 69 65 109 68 64 110 71 66 110 71 66 110 69 65 111 70 64 111 70 66 110 69 65 111 70 66 110 71 64 110 69 65 111 70 66 110 69 65 111 70 66 111 70 66 112 69 63 110 69 63 110 69 65 111 70 66 112 68 65 110 69 65 110 69 65 109 68 64 108 67 63 30 20 18 1 1 1 2 0 1 4 4 4 19 19 21 2 2 4 1 1 1 2 2 2 3 3 1 2 4 3 3 3 3 3 3 3 1 1 1 2 0 1 0 2 1 1 1 1 1 1 1 2 2 4 3 3 3 3 3 3 2 2 2 3 3 3 3 3 3 3 3 3 3 3 3 3 3 3 3 3 3 3 3 3 2 2 2 2 0 1 1 1 1 25 9 9 94 36 35 105 41 39 23 9 8 1 1 1 46 43 50 100 94 104 93 85 100 99 93 107 99 93 103 103 98 105 101 96 103 97 89 104 101 95 105 101 93 104 98 90 103 99 93 105 98 90 105 101 95 107 99 91 104 95 89 103 100 94 106 98 90 105 96 90 102 98 90 105 91 85 99 97 91 103 101 93 108 100 94 104 95 87 102 99 93 105 
110 69 65 110 69 65 110 69 65 110 69 65 109 68 64 110 69 65 111 70 66 112 71 67 110 69 65 110 69 65 110 69 65 110 69 65 111 70 66 111 70 66 110 69 65 109 68 64 111 72 67 110 69 65 112 68 65 111 70 66 111 70 66 112 68 67 108 69 64 75 47 46 59 38 37 76 48 45 103 63 61 112 68 65 112 68 65 111 70 66 109 70 65 112 68 65 111 70 66 110 69 63 110 69 65 111 70 66 110 69 65 112 68 65 69 43 42 1 1 1 1 1 1 37 35 40 61 58 67 34 32 37 2 2 2 0 2 1 1 1 1 2 4 3 3 3 3 3 3 3 1 1 1 2 0 3 2 2 2 3 2 0 3 3 3 3 3 3 3 3 3 3 3 3 3 3 3 3 3 3 3 3 3 2 2 2 3 3 3 3 3 3 4 4 4 2 2 2 1 1 1 1 1 1 25 9 9 98 37 36 112 42 42 112 42 42 85 34 33 0 0 0 7 7 9 82 76 88 95 86 103 90 84 98 101 95 107 99 88 102 106 101 108 102 96 108 104 98 110 94 88 102 97 89 104 98 90 105 99 91 104 96 90 102 97 89 104 92 88 102 97 91 105 96 87 106 103 97 111 96 88 101 107 102 109 92 89 100 98 90 103 101 93 106 96 90 100 97 89 104 
111 70 66 110 69 65 110 69 65 110 69 65 111 70 66 110 69 65 110 69 65 110 69 65 111 70 66 110 69 65 111 70 66 109 68 64 110 69 65 110 69 65 110 69 65 111 70 66 110 69 63 111 70 66 111 70 66 110 69 65 113 69 66 110 69 67 76 46 44 4 2 3 0 0 0 1 1 1 10 6 5 37 23 22 86 52 50 110 69 65 110 69 63 109 68 64 113 69 66 110 69 65 110 69 65 110 69 65 110 71 66 94 59 55 24 16 14 0 0 0 26 24 27 65 60 67 42 39 46 25 25 27 43 41 46 7 8 10 1 1 1 2 2 2 3 1 2 2 4 3 3 3 3 3 3 3 3 3 3 4 2 5 3 3 3 2 2 2 3 3 3 3 3 3 2 2 2 3 3 3 3 3 3 3 3 3 3 3 3 3 3 3 1 3 0 1 1 1 2 2 2 14 5 6 97 35 36 111 43 42 110 42 39 110 42 41 113 41 42 39 15 15 0 0 0 57 54 61 98 92 104 97 91 103 98 92 104 99 93 105 99 93 103 95 87 102 97 89 104 100 94 106 100 92 105 102 96 108 101 93 106 96 88 103 98 90 103 97 91 103 98 90 101 98 92 104 99 91 104 100 92 107 95 87 100 107 102 108 94 86 101 104 98 108 98 90 103 94 88 100 
109 68 64 110 69 65 111 70 66 110 69 65 110 69 65 111 70 66 110 69 65 110 69 65 110 69 65 110 69 65 110 69 65 111 70 66 110 69 65 111 70 66 110 69 65 110 69 65 110 69 63 110 69 65 110 69 63 109 70 65 110 69 65 110 69 63 55 34 31 0 0 0 3 4 6 10 6 5 1 1 1 2 0 1 2 2 2 55 35 34 105 65 63 109 69 67 110 69 65 113 69 66 111 70 66 111 70 66 99 62 56 21 13 11 0 0 0 17 16 14 64 62 67 42 41 46 4 4 4 38 33 39 66 63 72 52 46 56 10 10 12 1 1 3 1 1 1 2 2 0 4 4 4 3 3 3 2 2 2 3 3 3 4 4 4 3 3 3 3 3 3 3 3 3 3 3 3 3 3 3 3 3 3 2 2 2 3 3 3 3 3 3 2 2 2 1 1 1 9 3 3 87 33 31 110 42 41 112 42 42 111 43 42 111 43 42 111 41 41 68 27 25 1 1 1 37 36 41 97 89 104 98 90 105 96 88 103 99 93 103 95 87 100 99 93 103 100 92 107 99 93 105 104 93 107 103 98 105 93 87 97 102 94 105 95 87 102 99 93 105 99 91 104 94 88 102 98 92 104 96 90 104 100 92 105 102 96 108 105 94 108 98 90 101 95 87 102 99 91 104 
111 70 66 110 69 65 110 69 65 110 69 65 110 69 65 109 68 64 111 70 66 111 70 66 110 69 65 110 69 65 110 69 65 110 69 65 110 69 65 110 69 65 112 71 67 110 69 65 110 69 65 112 68 65 111 70 64 109 70 65 110 69 63 110 69 63 90 55 53 8 4 5 0 2 1 51 21 19 51 20 18 44 18 19 1 1 0 0 0 0 12 8 7 49 31 29 108 68 66 110 69 67 110 69 65 101 63 60 24 15 16 0 0 0 14 12 15 61 56 63 47 42 49 6 6 6 39 37 42 69 64 71 61 58 67 65 59 69 56 51 58 12 12 14 1 1 0 1 1 1 2 2 2 2 2 2 3 3 3 2 2 2 3 3 3 1 3 2 3 3 3 3 3 3 3 3 3 3 3 3 2 2 2 3 3 3 2 2 2 2 2 2 0 0 0 7 3 2 79 29 28 111 43 42 111 41 41 110 42 41 107 42 40 94 36 35 87 33 31 57 21 21 1 1 1 20 20 22 100 94 106 104 99 106 100 89 105 99 91 104 99 93 103 99 93 103 97 91 105 103 95 108 101 90 106 96 88 101 100 92 105 98 90 103 102 96 106 100 94 104 100 92 105 100 92 107 96 90 104 97 91 103 102 97 103 95 89 101 100 94 104 50 48 53 43 40 47 68 60 73 
111 70 66 110 69 65 110 69 65 111 70 66 110 69 65 110 69 65 110 69 65 110 69 65 110 69 65 110 69 65 110 69 65 110 69 65 110 69 65 111 70 66 111 70 66 110 69 65 110 69 65 110 69 65 110 69 63 110 69 65 110 69 65 110 69 65 110 69 65 40 24 25 1 1 1 29 11 11 67 25 26 90 34 35 83 32 31 24 10 10 0 0 0 2 0 1 40 26 23 102 65 59 109 68 64 52 32 31 0 2 1 11 11 13 61 58 65 48 45 54 6 6 8 30 28 33 62 59 68 69 64 71 66 61 68 65 59 71 65 60 67 61 59 64 10 10 10 2 0 1 0 0 0 2 2 2 2 2 4 3 3 3 3 3 3 3 3 3 3 3 3 3 3 3 3 3 3 3 3 3 3 3 3 3 3 3 2 2 2 1 1 1 1 1 1 55 21 20 108 40 41 100 39 38 85 34 33 80 30 31 78 30 28 67 26 24 68 26 27 58 22 22 2 2 0 8 6 9 79 73 87 95 87 100 102 96 108 102 96 106 100 94 108 97 89 104 98 92 104 99 88 102 98 90 105 96 88 99 100 94 104 98 92 102 102 96 106 101 93 106 102 94 105 96 90 104 105 99 109 100 92 105 96 90 100 101 95 105 71 65 75 12 10 13 42 40 43 6 6 4 
110 69 65 110 69 65 110 69 65 110 69 65 113 72 68 111 70 66 110 69 65 111 70 66 111 70 66 111 70 66 110 69 65 110 69 65 110 69 65 110 69 65 111 70 66 110 69 65 112 68 65 110 71 66 110 69 65 110 69 65 111 70 64 111 70 64 109 70 65 83 52 49 8 4 5 0 0 2 40 16 16 76 28 28 109 41 40 110 42 41 63 25 24 7 3 4 2 0 1 13 9 8 27 17 18 1 1 3 5 5 5 56 53 60 66 63 70 39 37 42 32 30 35 66 63 70 65 59 69 67 59 70 67 61 71 67 59 70 66 60 70 70 65 72 83 75 88 45 43 48 6 1 5 2 2 2 0 1 3 4 2 3 2 2 2 1 3 2 3 3 3 3 3 3 2 2 2 2 2 2 2 2 2 3 3 3 1 1 3 1 1 1 25 11 11 74 29 26 70 26 25 68 27 25 70 26 27 71 27 26 70 26 25 60 25 23 41 15 16 24 10 10 1 1 1 2 2 2 24 22 25 79 76 83 100 92 105 95 87 102 96 87 104 98 92 102 101 93 104 98 92 104 93 85 100 96 90 104 101 93 106 95 87 102 95 89 103 100 89 105 98 92 104 96 90 102 101 95 105 99 91 104 95 89 101 99 93 105 59 54 61 40 38 43 2 2 2 0 0 0 
111 70 66 110 69 65 110 69 65 111 70 66 111 70 66 110 69 65 111 70 66 110 69 65 110 69 65 110 69 65 110 69 65 110 69 65 110 69 65 110 69 65 110 69 65 109 68 64 108 69 64 112 68 65 113 69 66 111 70 66 110 71 66 110 69 65 110 69 65 108 68 66 56 35 34 3 3 5 13 4 5 66 26 26 97 37 36 111 41 41 112 42 42 97 37 37 31 11 12 2 2 0 0 0 0 0 0 0 30 30 32 66 63 70 73 68 75 67 62 69 65 59 69 68 66 71 67 64 71 66 61 68 70 64 74 67 62 68 66 61 68 91 85 97 93 86 102 97 89 104 51 48 55 5 3 4 1 1 1 0 0 0 1 1 1 0 0 0 1 1 1 3 3 3 0 4 3 2 2 2 3 3 3 1 1 1 1 1 1 27 11 11 66 24 25 71 27 26 67 25 26 67 25 26 50 18 19 28 12 12 17 7 6 2 2 2 0 0 0 0 0 0 1 1 1 1 1 1 1 1 1 18 16 19 83 78 85 100 94 106 96 90 102 102 96 108 99 93 103 99 91 104 96 90 102 96 88 103 104 96 107 95 89 101 98 95 104 99 93 107 97 89 102 102 96 108 96 90 102 99 93 105 100 94 106 101 90 104 101 93 104 62 60 65 1 1 1 0 0 0 
110 69 65 110 69 65 110 69 65 110 69 65 110 69 65 110 69 65 109 68 64 110 69 65 110 69 65 110 69 65 110 69 65 110 69 65 111 70 66 110 69 65 110 69 65 111 70 66 113 68 65 111 70 66 110 69 65 109 68 64 110 69 65 111 70 66 111 70 66 110 69 65 106 67 62 37 23 22 0 0 0 39 15 15 72 28 27 101 40 39 111 43 42 110 42 41 107 42 40 82 32 33 21 9 9 1 1 1 4 4 4 40 38 43 60 57 64 67 64 71 68 63 70 66 63 70 67 61 71 68 63 70 68 63 70 68 63 70 85 77 88 95 89 103 99 93 103 99 93 103 95 89 101 86 81 88 51 49 54 28 26 29 5 5 5 1 1 1 0 0 0 1 1 1 3 3 3 3 3 3 1 1 1 0 0 0 2 2 2 59 21 20 44 18 19 31 13 13 17 5 5 4 3 1 1 1 1 0 0 2 0 0 0 1 1 1 2 2 4 2 2 2 2 2 2 3 3 3 1 1 1 1 1 1 5 5 7 48 46 51 93 85 98 102 94 107 100 92 105 100 92 103 98 92 104 101 93 106 99 93 103 94 85 102 100 94 104 103 98 105 101 95 107 98 90 103 100 94 106 96 90 102 99 93 105 103 97 107 93 87 101 90 84 94 21 19 22 2 0 1 
110 69 65 110 69 65 110 69 65 109 68 64 110 69 65 110 69 65 109 68 64 111 70 66 110 69 65 110 69 65 110 69 65 111 70 66 110 69 65 110 69 65 110 69 65 110 69 65 110 69 65 110 69 65 110 69 65 111 70 66 111 70 66 110 69 65 110 69 65 109 68 62 110 69 65 74 46 43 3 1 2 10 5 2 67 26 24 75 29 29 108 43 41 110 42 39 110 42 41 111 41 41 101 40 39 55 21 20 2 2 0 1 1 1 7 5 6 47 42 49 63 60 69 67 60 68 67 62 69 64 61 70 66 61 68 73 67 77 99 93 103 91 85 97 95 87 102 96 90 102 101 93 106 101 93 106 96 90 102 100 92 107 92 87 94 67 64 73 8 9 11 1 1 1 2 2 2 2 2 2 2 2 0 0 0 0 2 2 2 1 0 0 1 1 1 0 0 0 0 0 0 0 0 0 1 1 1 2 2 2 2 2 2 3 3 3 2 2 2 3 3 3 3 3 3 3 3 3 3 3 3 1 1 1 1 1 1 1 1 1 11 11 11 37 34 41 86 80 92 102 94 105 103 98 105 96 90 100 104 96 109 105 99 109 97 89 104 99 93 105 97 91 101 97 86 103 95 87 102 100 94 104 101 93 106 103 95 108 99 93 107 96 88 103 61 55 65 14 14 16 
110 69 65 110 69 65 111 70 66 109 68 64 112 71 67 110 69 65 110 69 65 110 69 65 110 69 65 110 69 65 110 69 65 111 70 66 110 69 65 110 69 65 110 69 65 110 69 65 110 69 65 111 70 66 110 69 65 113 69 66 109 70 65 109 68 64 108 71 65 110 69 65 111 70 64 108 67 63 36 22 21 1 1 1 47 19 18 69 28 26 99 38 37 110 42 41 111 43 42 108 42 43 111 41 41 108 40 41 76 30 30 4 2 3 1 1 1 21 21 23 67 62 69 67 62 69 66 63 70 68 66 71 72 67 74 86 78 93 96 88 103 102 96 106 101 93 106 97 89 102 100 94 106 100 92 105 98 90 103 98 91 107 95 92 103 100 89 103 74 68 80 11 11 11 1 1 1 1 1 1 1 1 1 0 0 0 2 0 1 1 1 3 2 2 2 0 0 0 1 1 1 0 2 1 1 1 1 2 4 3 3 3 5 1 3 2 2 2 2 3 3 3 3 3 3 3 3 3 3 3 3 2 2 2 3 3 3 1 1 1 1 1 1 2 0 1 13 11 12 44 42 47 81 75 85 101 93 108 98 90 103 100 94 106 99 93 105 100 92 105 98 90 103 98 92 104 94 88 100 99 91 104 100 94 104 95 89 101 97 89 100 101 93 106 96 90 100 95 89 99 
110 69 65 110 69 65 110 69 65 110 69 65 111 70 66 110 69 65 110 69 65 109 68 64 111 70 66 110 69 65 111 70 66 111 70 66 110 69 65 109 68 64 111 70 66 110 69 65 111 70 66 110 69 65 110 69 65 110 69 65 110 69 65 110 69 65 110 69 65 110 69 65 111 70 66 109 68 66 68 43 39 1 1 1 3 1 2 57 21 21 72 26 28 104 40 40 111 41 41 112 42 42 110 42 41 111 41 41 109 41 40 10 4 4 2 2 2 43 38 45 68 63 69 67 62 69 66 60 70 74 69 76 94 83 99 93 87 99 104 99 106 97 91 105 97 91 105 99 88 102 101 93 104 97 89 104 98 90 103 102 96 106 101 95 105 100 94 104 100 94 106 59 56 63 1 1 0 1 1 1 3 3 3 2 2 2 2 2 2 3 3 3 2 4 1 1 1 1 12 12 12 13 11 14 1 1 3 1 1 1 1 1 1 4 2 3 3 3 3 1 3 2 3 3 3 3 3 3 2 2 2 3 3 3 3 3 3 3 3 3 2 2 2 2 2 2 0 2 1 2 0 1 4 2 3 39 37 40 88 80 93 100 94 104 102 94 107 100 94 106 105 97 108 96 88 103 99 93 105 99 93 105 94 86 101 101 90 106 101 95 105 95 87 100 97 89 100 94 87 103 
111 70 66 111 70 66 108 67 63 111 70 66 108 67 63 110 69 65 111 70 66 110 69 65 109 68 64 110 69 65 111 70 66 110 69 65 109 68 64 110 69 65 110 69 65 110 69 65 111 70 66 110 69 65 109 68 64 109 70 65 111 70 66 112 68 65 110 69 65 109 68 64 110 69 65 111 70 66 107 68 63 30 19 17 1 1 1 32 14 12 71 27 26 91 35 36 110 42 41 110 42 41 111 43 42 110 42 41 68 27 25 0 0 0 6 6 6 62 57 64 66 64 69 66 63 70 67 61 71 84 76 91 100 92 107 99 93 103 96 93 104 99 91 106 100 92 105 98 92 104 97 89 104 100 94 104 97 91 103 100 97 108 103 98 105 95 89 101 97 91 103 96 88 99 4 5 7 0 0 0 1 1 1 1 3 2 3 3 3 4 4 4 3 3 3 1 1 1 7 7 9 59 54 61 10 8 11 1 1 1 0 0 0 1 1 1 2 2 2 3 3 3 4 2 3 3 3 3 3 3 3 3 3 3 3 3 3 3 3 3 3 3 3 3 3 1 4 4 4 1 1 1 1 1 1 0 0 0 11 11 13 31 29 34 86 80 90 102 94 105 101 93 108 103 100 109 97 89 104 101 95 107 94 86 101 95 89 101 99 93 103 107 102 109 100 94 104 97 91 103 
110 69 65 110 69 65 110 69 65 109 68 64 111 70 66 110 69 65 111 70 66 110 69 65 110 69 65 110 69 65 111 70 66 110 69 65 109 68 64 110 69 65 110 69 65 111 70 66 109 68 66 109 70 65 113 69 66 111 70 66 110 69 65 111 70 66 111 70 64 110 69 65 111 70 68 110 69 65 110 69 65 72 47 43 1 1 0 7 3 4 65 25 25 75 29 29 107 42 40 111 43 42 110 42 41 110 42 41 33 13 14 1 1 1 5 5 5 43 41 46 66 60 70 66 63 70 83 77 87 99 88 104 104 99 106 94 88 100 101 95 107 101 93 106 101 95 105 99 91 106 96 88 103 99 93 103 93 85 100 104 99 105 102 96 106 99 93 103 98 92 102 93 87 101 37 35 40 0 0 0 1 1 0 3 3 3 2 2 2 3 3 3 3 3 3 1 1 1 1 1 0 32 30 33 73 67 77 34 32 37 9 9 9 1 1 3 1 1 3 2 2 4 2 2 4 2 2 2 3 3 3 3 3 3 3 3 3 3 3 3 2 2 2 2 4 3 3 3 3 3 3 1 2 2 2 2 2 2 1 1 1 0 0 0 10 8 9 57 56 62 105 99 109 95 89 101 98 92 102 96 90 102 101 93 106 98 90 105 93 85 100 96 88 103 99 93 103 100 94 106 
110 69 65 110 69 65 110 69 65 109 68 64 110 69 65 110 69 65 110 69 65 110 69 65 110 69 65 110 69 65 110 69 65 111 70 66 109 68 64 110 69 65 110 69 65 111 70 66 110 69 65 110 69 65 111 70 66 110 71 66 110 69 65 110 69 65 110 71 66 110 69 65 109 70 65 111 70 64 109 70 65 106 66 64 12 8 7 0 0 2 36 14 16 68 27 25 83 32 31 109 41 40 111 43 42 83 32 31 1 1 0 1 1 1 1 1 0 2 2 4 35 33 38 79 74 81 92 86 100 98 90 103 98 90 103 104 96 109 99 91 104 97 91 105 96 88 103 97 89 102 94 86 101 100 92 105 103 95 106 98 90 103 108 103 110 92 83 100 95 87 102 103 97 107 85 77 88 11 11 11 2 0 1 1 1 1 2 2 2 3 3 3 2 2 2 3 3 3 1 1 1 13 11 14 96 90 100 102 96 106 86 79 87 16 16 16 1 3 2 2 0 1 2 2 2 2 2 2 3 3 3 2 4 3 3 3 3 2 2 2 3 3 3 3 3 3 3 3 3 3 3 3 2 2 2 3 3 3 2 2 2 1 1 1 2 0 1 6 6 6 47 45 50 95 89 101 97 89 102 103 97 107 98 92 106 100 89 105 97 91 105 98 90 103 92 83 100 101 95 105 
110 69 65 110 69 65 111 70 66 110 69 65 109 68 64 110 69 65 110 69 65 110 69 65 110 69 65 109 68 64 110 69 65 111 70 66 111 70 66 110 69 65 110 69 65 109 68 64 111 70 66 111 70 66 109 68 64 110 69 65 110 69 65 111 70 66 112 68 65 113 69 66 113 69 66 109 68 64 110 69 65 71 46 42 3 3 3 1 1 1 1 1 1 56 22 21 71 27 26 100 38 39 94 36 35 21 6 9 0 2 1 1 1 1 2 2 4 1 1 1 1 1 0 35 33 38 96 88 101 96 88 101 97 89 104 103 92 106 92 81 98 103 97 107 103 95 108 97 91 103 99 91 104 89 85 99 101 95 107 96 88 103 96 93 102 101 93 104 103 95 106 97 89 104 99 91 106 72 64 75 8 8 8 0 0 0 1 1 1 2 2 2 2 2 2 1 1 3 1 1 1 1 1 1 73 67 77 100 94 106 94 86 101 97 94 101 48 45 52 3 1 2 0 0 0 0 2 1 1 1 1 3 3 3 3 3 3 2 2 2 3 3 3 3 3 3 3 3 3 2 2 2 3 3 3 3 3 3 3 3 3 3 3 3 1 1 1 2 2 2 1 1 1 40 38 43 93 87 99 99 93 103 102 94 105 101 95 105 96 88 101 96 87 104 99 93 103 101 95 105 
110 69 65 110 69 65 110 69 65 110 69 65 110 69 65 111 70 66 110 69 65 111 70 66 110 69 65 110 69 65 110 69 65 110 69 65 110 69 65 111 70 66 110 69 65 110 69 65 110 69 65 110 69 65 110 69 65 110 69 65 108 69 64 108 69 64 110 69 65 110 69 65 109 70 65 110 69 65 95 60 56 13 7 7 0 0 0 0 0 0 1 1 1 30 11 13 67 26 24 67 26 24 18 6 6 1 1 1 1 1 1 3 3 3 2 4 3 2 2 2 1 1 1 1 1 1 26 26 28 80 74 84 89 81 96 102 99 106 97 89 104 98 90 103 98 92 104 96 90 104 95 87 102 94 86 101 93 85 100 95 87 102 97 91 101 100 94 108 97 91 103 98 92 104 99 88 104 102 97 104 75 69 79 34 33 38 5 5 5 0 2 1 0 0 0 2 0 1 1 1 1 8 6 7 84 78 88 90 81 98 98 90 103 103 98 105 98 90 103 69 64 71 16 16 18 0 2 1 1 1 1 1 1 3 2 2 2 3 3 5 3 3 3 3 3 3 4 4 4 3 3 3 3 3 3 3 3 3 3 3 3 3 3 3 3 3 3 2 2 2 1 1 1 6 6 6 92 86 96 94 86 101 94 86 99 96 90 104 102 97 104 96 90 102 99 93 105 97 91 101 
110 69 65 110 69 65 110 69 65 110 69 65 110 69 65 110 69 65 110 69 65 108 67 63 111 70 66 110 69 65 110 69 65 110 69 65 109 68 64 110 69 65 111 70 66 110 69 65 110 69 65 110 69 65 110 69 65 112 68 65 111 70 66 110 69 65 109 68 64 110 69 65 109 68 64 110 69 65 38 24 23 0 0 0 3 1 2 2 2 2 1 1 1 2 0 1 11 5 5 1 1 1 1 1 1 1 1 1 4 2 3 3 3 3 3 3 3 3 3 3 2 2 2 0 2 1 1 1 1 8 6 7 54 51 58 96 90 104 98 95 106 96 88 101 98 90 101 104 97 105 98 90 103 96 88 101 99 91 106 98 90 103 94 86 101 99 91 104 96 88 103 95 84 100 101 95 105 99 91 104 97 91 103 101 93 104 82 76 86 52 50 55 8 8 8 8 8 8 13 13 15 71 70 75 95 87 102 100 92 105 95 87 102 98 92 104 95 89 99 96 88 101 91 85 95 61 58 67 11 11 11 0 0 0 1 1 3 2 2 2 2 2 2 3 3 3 3 3 3 3 3 3 3 3 3 3 3 3 3 3 3 3 3 5 3 3 3 3 3 3 1 1 1 1 1 1 79 74 81 103 97 107 97 91 103 98 90 103 100 94 104 98 90 103 100 94 104 93 85 100 
110 69 65 110 69 65 110 69 65 110 69 65 109 68 64 110 69 65 109 68 64 110 69 65 110 69 65 110 69 65 109 68 64 110 69 65 110 69 65 110 69 65 110 69 65 110 69 65 111 70 66 109 70 65 109 68 64 110 69 65 111 70 66 110 69 65 110 69 65 109 68 64 110 69 65 92 58 56 4 2 3 0 2 1 3 3 5 3 3 3 1 3 2 1 1 1 0 0 0 2 0 1 2 2 2 2 2 2 3 3 3 4 4 4 3 3 3 4 2 3 3 3 5 3 3 5 2 2 2 0 0 2 5 5 3 55 53 58 93 87 99 100 92 105 99 91 104 95 87 102 96 90 100 102 96 106 99 93 105 102 96 108 101 95 105 103 97 107 98 90 103 104 96 107 99 93 103 98 92 104 102 94 105 104 96 107 99 91 102 98 92 104 89 83 97 93 85 98 101 93 104 97 89 104 101 95 107 95 84 100 100 92 105 97 91 103 96 90 102 102 96 106 100 92 105 95 87 102 82 76 88 33 33 35 1 1 1 0 0 0 0 0 0 3 3 3 3 3 1 2 2 2 3 3 3 3 3 3 3 3 3 3 3 3 3 3 3 3 3 3 1 1 1 4 4 4 87 84 91 101 95 105 97 89 104 99 91 102 97 89 102 104 96 107 94 86 101 102 96 108 
110 69 65 111 70 66 110 69 65 110 69 65 110 69 65 111 70 66 110 69 65 110 69 65 110 69 65 109 68 64 111 70 66 110 69 65 110 69 65 110 69 65 110 69 65 109 68 64 110 69 65 110 69 65 111 70 66 111 70 66 110 69 65 110 69 65 111 70 66 112 68 65 108 67 63 30 20 19 2 0 1 3 3 3 3 3 3 3 3 3 3 3 3 2 2 2 1 1 1 3 3 3 3 3 3 3 3 3 3 3 1 2 2 2 0 2 1 2 2 2 2 2 2 3 3 3 3 3 1 2 2 0 1 1 1 2 2 4 31 29 32 98 90 105 100 94 104 100 92 103 96 88 103 93 85 100 96 90 102 96 93 102 98 92 104 104 99 105 95 89 101 97 89 102 101 93 106 98 90 103 101 93 104 91 83 98 97 91 103 99 93 105 101 93 106 94 88 102 101 93 106 103 95 106 99 91 102 101 95 105 99 91 104 95 87 102 98 92 104 95 87 102 101 95 107 99 91 104 99 91 106 94 91 102 53 47 57 20 20 22 2 2 2 1 1 1 1 1 1 1 1 3 2 2 4 2 2 2 3 3 3 2 2 2 2 2 2 1 1 1 1 1 1 22 22 24 93 90 101 98 90 103 96 88 103 98 90 103 99 93 105 98 90 101 97 91 103 96 90 104 
111 70 66 109 68 64 111 70 66 109 68 64 110 69 65 110 69 65 110 69 65 110 69 65 110 69 65 110 69 65 110 69 65 110 69 65 110 69 65 109 68 64 110 69 65 110 69 65 109 70 63 110 69 65 110 69 65 110 69 65 110 69 65 113 69 66 110 69 65 108 68 66 56 37 33 1 1 1 2 2 2 2 2 2 3 3 3 3 3 3 4 4 6 3 3 3 3 3 3 2 2 2 3 3 3 2 2 2 3 3 3 1 1 0 0 0 0 0 0 0 1 1 1 1 1 0 1 1 1 2 2 2 3 1 2 1 1 0 2 2 2 64 61 68 96 88 101 97 89 100 92 84 99 104 96 107 102 96 108 99 93 107 98 90 101 98 90 105 97 89 104 103 95 106 97 91 103 99 91 104 97 91 103 93 85 100 99 91 104 102 96 106 99 93 105 96 88 103 96 88 101 101 95 105 101 96 103 100 94 104 101 95 107 93 84 103 104 96 109 97 91 103 97 89 102 99 91 106 96 90 102 99 93 107 101 96 103 94 88 102 76 73 80 17 15 18 1 0 0 0 0 0 0 0 2 1 1 3 1 1 1 1 1 1 1 1 1 2 2 2 0 2 1 51 48 55 95 87 102 102 96 106 97 91 101 100 92 105 101 93 106 94 86 101 101 93 106 101 90 106 
109 68 64 110 69 65 110 69 65 110 69 65 110 69 65 110 69 65 110 69 65 110 69 65 110 69 65 110 69 65 110 69 65 109 68 64 109 68 64 110 69 65 111 70 66 110 69 65 109 70 63 110 69 65 111 70 66 111 70 66 110 69 65 110 69 65 109 70 65 91 58 53 4 2 3 2 2 2 3 3 3 3 3 3 2 2 2 3 3 3 3 3 3 2 2 2 4 4 4 3 3 3 3 3 5 3 3 3 1 3 2 1 1 1 26 24 27 55 50 56 37 32 38 4 4 4 0 0 0 2 2 2 1 1 1 2 0 1 1 1 1 54 51 58 101 95 105 96 90 102 97 94 105 92 84 99 102 94 105 97 91 101 98 90 103 102 99 106 98 92 104 98 90 103 96 88 103 98 92 106 98 90 103 97 89 104 98 92 104 101 93 104 94 83 100 98 95 104 97 89 104 101 93 106 96 88 103 98 92 104 98 90 103 99 93 107 99 91 104 103 98 105 100 92 105 98 90 103 99 91 106 96 88 101 96 88 103 100 94 104 95 86 103 88 80 93 76 71 78 64 59 66 35 33 38 26 24 27 18 18 20 19 19 21 27 26 31 40 38 43 62 57 64 103 97 107 100 94 104 102 94 107 99 93 105 100 94 106 94 91 102 93 85 100 99 88 102 100 94 106 
110 69 65 110 69 65 109 70 65 110 69 65 110 69 65 110 69 65 110 69 65 110 69 65 109 68 64 107 66 62 57 36 33 24 16 14 72 44 41 83 52 49 95 60 58 109 68 62 109 68 66 108 71 65 109 68 62 110 69 65 112 68 65 109 70 65 109 68 64 38 24 23 0 0 0 3 3 3 3 3 3 3 3 3 3 3 3 3 3 3 3 3 3 3 3 3 3 3 5 3 3 3 2 2 2 3 3 3 1 1 1 2 0 1 70 64 78 101 95 105 94 86 101 64 59 65 34 32 35 8 8 8 1 1 1 1 1 1 3 3 3 65 60 66 97 89 100 98 92 102 99 93 103 99 93 105 99 88 105 102 96 106 100 94 106 97 89 102 98 92 106 97 91 105 97 89 102 96 90 102 96 88 101 96 90 100 101 93 104 94 86 101 100 94 104 93 85 100 99 91 104 88 79 98 94 90 104 95 89 101 101 93 106 96 88 103 95 88 104 98 90 105 100 92 105 100 89 105 94 90 105 105 97 108 101 90 104 97 91 103 99 91 106 98 92 104 95 89 101 102 96 106 103 97 107 92 83 100 99 91 102 99 91 104 99 93 105 91 85 99 97 91 103 95 89 103 92 86 98 100 92 107 103 95 106 99 91 104 100 97 106 97 88 105 100 92 107 102 94 105 
110 69 65 110 69 65 112 68 65 110 69 65 110 69 65 109 70 65 110 69 65 110 69 65 109 68 64 75 47 44 2 2 2 3 1 2 1 1 1 4 2 3 6 2 3 45 30 27 60 39 36 89 56 51 110 69 65 110 69 65 110 69 65 110 69 65 71 45 44 3 1 2 1 1 1 3 3 3 3 3 3 3 3 3 3 3 3 3 3 3 3 3 3 3 3 3 3 3 3 4 2 3 3 3 3 4 4 4 2 2 2 1 1 1 55 50 56 96 88 101 60 57 64 6 6 6 5 3 4 46 44 47 57 55 60 45 43 48 63 60 69 96 88 101 93 87 101 89 83 97 101 95 105 96 88 101 100 94 104 93 87 101 96 85 101 102 96 106 99 93 103 97 89 104 98 90 103 99 91 106 95 89 103 99 91 104 99 91 104 101 93 104 98 93 100 96 88 103 100 95 102 98 90 105 95 89 101 98 92 102 99 91 106 101 93 106 97 91 103 95 84 100 92 84 99 101 95 105 93 85 100 100 92 107 99 96 105 95 87 102 101 93 104 94 88 100 95 87 100 97 89 102 94 86 101 106 99 107 100 92 105 99 93 105 99 93 105 97 89 104 103 98 105 97 91 101 99 91 102 100 94 104 98 90 101 100 92 105 93 85 100 95 89 103 105 99 109 101 96 103 
110 69 65 110 69 65 110 69 65 110 69 65 110 69 65 110 69 65 110 69 65 110 69 65 109 68 62 80 51 47 3 3 3 1 1 0 11 9 10 6 2 3 2 2 2 1 1 1 1 1 1 6 4 5 48 30 28 57 36 33 77 47 45 87 56 53 16 11 8 1 1 3 3 3 3 3 3 3 3 3 3 3 3 3 3 3 3 3 3 3 3 3 3 3 3 3 4 4 4 4 4 4 3 3 3 3 3 3 2 2 2 0 0 0 14 14 16 54 52 57 7 5 6 1 1 3 1 3 2 3 3 5 63 58 65 101 93 106 96 88 101 94 86 101 101 95 105 103 100 107 101 95 105 100 92 105 97 91 103 102 95 103 98 87 101 100 92 107 93 85 98 96 88 101 101 93 104 100 94 104 100 94 106 99 93 103 98 90 103 96 87 104 93 87 101 101 95 107 100 97 106 95 89 103 95 87 102 98 92 104 100 94 106 100 94 104 95 89 101 103 97 107 93 85 100 98 92 102 99 91 102 99 91 106 103 97 107 97 91 101 100 94 104 100 92 105 104 96 107 102 95 103 94 88 100 100 94 106 94 88 100 93 87 99 99 93 103 97 91 103 98 90 105 98 92 104 101 93 106 103 98 105 100 94 106 97 89 102 100 92 103 98 90 105 102 94 105 95 87 100 
110 69 65 110 69 65 110 69 65 110 69 65 110 69 65 110 69 65 110 69 65 110 69 65 109 68 64 109 68 64 42 26 26 0 0 0 20 10 9 61 22 23 61 22 23 41 15 16 20 8 10 4 3 1 2 0 1 0 0 0 2 2 2 2 2 2 0 0 2 3 3 3 3 3 3 3 3 3 3 3 3 3 3 3 3 3 3 2 2 2 3 3 3 3 3 3 3 3 3 3 3 3 3 3 3 2 2 2 3 3 3 1 1 1 0 0 0 2 2 2 1 1 1 19 7 7 51 21 19 1 1 1 11 11 11 85 79 91 101 93 106 99 91 104 91 83 98 100 94 104 97 91 103 97 89 102 97 89 104 99 91 102 97 94 103 103 92 108 95 89 103 99 91 102 98 92 104 99 91 104 98 92 102 100 92 105 94 85 102 97 88 105 96 93 102 96 88 103 90 81 98 97 91 103 100 92 105 95 89 101 101 93 104 98 95 104 92 86 100 98 90 101 93 85 98 98 90 101 92 86 100 96 88 103 102 94 105 94 86 101 102 94 107 95 87 102 98 90 103 97 89 102 105 100 107 101 93 108 100 92 105 97 89 104 96 88 101 97 91 105 96 90 102 100 94 104 101 95 107 99 91 102 97 89 100 98 90 103 100 89 105 96 88 103 99 91 106 97 89 102 
110 69 65 110 69 65 110 69 65 110 69 65 110 69 65 110 69 65 110 69 65 110 69 65 110 69 67 110 69 67 91 58 53 13 9 10 0 2 1 29 11 11 65 25 25 78 30 28 104 40 40 99 39 39 50 20 18 40 16 16 18 8 9 1 1 0 1 3 2 3 3 3 3 3 3 2 2 2 3 3 3 3 3 3 3 3 3 3 3 3 3 3 3 3 3 3 1 3 2 3 3 3 2 2 2 3 3 3 2 2 2 1 1 0 0 2 1 7 3 2 57 21 21 97 37 37 107 41 42 22 8 8 3 3 3 77 71 83 108 98 109 103 95 108 103 97 107 101 95 107 95 89 101 99 93 103 95 89 101 96 88 103 95 89 101 95 86 103 97 89 100 95 87 102 97 89 102 96 88 103 102 96 106 94 88 100 102 96 108 103 95 108 98 92 106 90 81 100 94 85 104 102 94 107 97 91 101 99 91 104 101 95 105 97 91 103 97 91 105 98 90 101 99 91 106 94 86 99 96 88 103 97 91 105 97 89 104 101 95 105 97 91 101 97 91 105 92 84 99 98 92 102 96 88 103 98 92 102 96 90 100 98 90 105 99 91 104 98 92 104 97 89 102 98 92 104 97 91 101 100 92 105 101 95 105 91 83 98 101 93 104 95 87 100 101 93 108 99 93 105 
110 69 65 110 69 65 110 69 65 110 69 65 110 69 65 110 69 65 110 69 65 110 69 65 110 69 65 109 68 64 109 68 64 80 51 47 4 2 3 0 2 1 17 7 8 55 21 20 78 30 30 108 40 41 110 42 41 109 41 40 25 11 11 1 1 1 3 3 3 3 3 3 3 3 3 2 2 2 3 3 3 3 3 3 3 3 3 4 4 4 3 3 3 3 3 3 3 3 3 3 3 3 2 2 4 1 1 1 1 1 1 1 1 1 19 7 7 77 29 27 111 43 42 111 43 42 108 43 41 42 16 17 0 0 0 40 35 42 100 94 104 94 86 101 102 94 105 98 90 105 97 89 102 91 82 99 98 90 103 96 90 102 94 86 101 100 92 105 97 89 104 95 89 101 102 96 108 98 92 106 105 95 106 100 94 104 96 88 103 96 88 101 96 88 103 108 101 108 101 95 107 96 90 102 96 90 102 98 92 106 101 96 103 93 85 98 98 92 104 101 93 106 97 94 103 98 92 102 97 89 100 99 91 104 99 93 103 95 89 101 96 88 101 101 95 107 95 87 102 95 87 102 98 90 103 97 89 102 94 88 100 99 93 105 99 91 104 99 88 104 100 94 106 99 92 100 102 96 106 97 91 101 102 96 106 99 93 105 96 90 102 95 89 103 95 87 102 97 89 102 
110 69 65 110 69 65 110 69 65 110 69 65 109 70 65 110 69 65 109 70 65 110 69 65 109 70 65 109 68 64 110 69 65 108 67 63 85 54 51 20 15 12 1 1 1 13 4 5 64 26 23 77 29 29 99 38 37 90 34 33 0 2 1 2 2 2 4 2 3 2 4 3 2 2 2 3 3 3 3 3 3 4 4 4 3 3 3 2 2 2 3 3 3 3 3 3 3 3 3 2 2 2 1 1 1 0 0 0 2 0 1 39 15 15 106 40 41 110 40 38 110 42 41 110 42 41 110 42 41 75 29 29 1 1 1 36 34 39 99 93 103 96 88 103 98 92 102 100 94 106 94 86 101 102 94 107 97 89 104 93 90 101 100 94 106 97 89 102 98 89 106 94 86 101 97 91 103 94 86 99 101 93 104 94 86 101 97 92 99 100 94 104 106 98 109 96 90 100 100 94 104 95 92 103 101 95 107 100 92 103 96 88 101 101 95 105 98 92 104 100 94 104 98 91 99 103 98 105 99 91 106 95 87 102 100 92 105 101 96 103 98 90 101 94 86 101 96 90 102 99 93 107 95 89 103 101 93 104 103 97 107 97 89 104 100 92 105 98 87 103 95 87 100 95 89 103 95 89 103 102 96 106 100 94 106 98 90 103 96 90 100 99 91 104 100 94 106 94 90 104 
110 69 65 109 70 65 110 69 65 109 70 65 110 69 65 110 69 65 110 69 65 110 69 65 110 69 65 109 68 64 109 68 64 109 70 63 109 68 64 97 62 58 23 15 12 0 0 0 16 6 5 59 23 23 72 28 27 48 18 18 1 1 0 2 2 4 2 2 4 3 3 3 3 3 3 2 2 2 3 3 3 3 3 3 2 2 2 3 3 3 2 2 2 3 3 3 2 2 2 0 0 0 0 0 2 3 2 0 78 30 28 110 42 41 110 42 41 111 43 42 110 42 41 111 41 41 110 42 39 96 36 35 4 2 3 16 16 18 92 84 97 96 90 100 100 94 108 96 88 101 97 89 104 94 86 101 97 89 102 96 90 102 99 93 105 102 94 105 98 90 103 97 88 105 98 90 103 95 89 101 99 93 105 99 93 103 97 89 102 99 91 106 94 86 99 103 97 107 98 90 105 98 90 103 100 92 103 98 90 105 99 88 104 104 96 109 94 88 100 101 93 104 99 91 102 99 96 105 96 88 101 98 90 105 90 84 98 102 96 106 96 90 102 98 90 103 103 95 108 92 86 100 96 88 103 95 87 100 98 90 103 100 92 105 101 95 107 100 94 106 97 91 105 96 90 100 102 94 105 98 90 105 94 86 99 93 84 103 103 97 107 101 93 106 96 88 101 95 89 101 
110 69 65 110 69 65 109 68 64 110 69 65 110 69 65 109 68 64 109 68 64 110 69 65 108 69 64 109 70 65 110 69 65 110 69 65 109 68 64 112 68 65 94 59 55 24 16 14 1 1 1 8 2 2 49 19 17 5 4 2 1 3 2 4 2 3 3 3 3 2 2 2 3 3 3 1 1 1 3 3 3 3 3 3 3 3 3 3 3 3 3 3 3 1 1 1 1 1 1 0 0 2 29 11 11 100 39 38 111 43 42 109 41 42 110 42 43 110 42 41 106 41 39 103 39 39 98 38 37 93 35 34 9 5 6 6 6 8 88 82 94 97 89 104 96 88 101 99 93 105 99 91 104 97 91 103 100 94 106 99 91 106 100 94 104 93 85 100 98 90 105 100 92 105 99 93 105 99 91 102 97 89 104 101 93 106 101 93 106 101 95 107 93 87 99 96 90 100 96 90 104 94 88 98 96 90 102 100 95 102 98 92 104 96 90 104 101 96 103 101 90 104 99 91 106 100 97 106 96 90 102 101 95 107 99 93 105 95 87 100 101 95 105 99 93 103 99 93 105 98 90 103 95 89 101 97 89 104 100 92 103 100 94 104 95 86 103 102 96 106 97 91 103 94 86 101 97 91 105 98 90 103 94 86 101 100 92 103 96 90 102 97 88 105 96 90 102 99 93 103 
110 69 65 110 69 65 110 69 65 109 68 64 110 69 65 110 69 65 110 69 65 110 69 65 109 68 62 109 68 64 110 69 65 109 68 64 110 69 65 108 69 64 111 70 64 103 65 62 25 17 14 1 1 1 7 5 6 1 1 1 2 2 2 3 3 3 3 3 3 3 3 3 2 2 2 3 3 3 3 3 3 4 4 4 3 3 3 2 2 2 2 2 2 0 0 2 3 1 2 63 24 25 107 39 40 97 38 34 93 35 34 77 29 29 75 29 29 75 29 29 68 27 25 70 26 27 70 26 25 61 23 22 1 1 1 3 3 3 46 43 50 98 92 104 102 94 105 104 96 107 97 91 103 100 92 105 95 89 101 101 93 106 97 89 104 92 86 100 98 90 103 97 91 103 92 86 98 99 93 105 93 85 98 101 95 107 96 88 101 103 96 104 99 91 104 99 91 102 98 90 105 97 89 102 96 88 103 104 96 107 100 92 103 98 92 102 102 96 106 98 90 105 103 95 106 102 91 105 100 92 103 96 88 101 102 94 107 102 94 105 95 87 102 98 92 102 96 88 101 100 92 107 99 93 103 101 95 105 96 88 101 102 94 105 103 95 106 102 96 106 103 97 107 101 96 103 99 91 106 104 96 107 99 91 106 98 95 104 101 93 104 101 93 106 100 94 106 102 94 109 
110 69 65 110 69 65 110 69 65 110 69 65 110 69 65 109 68 64 109 68 64 109 68 64 110 69 67 110 69 65 110 69 65 110 69 65 109 70 65 108 69 64 110 69 65 110 69 65 102 64 61 19 13 13 1 1 1 2 2 2 3 3 3 3 3 3 3 3 3 3 3 5 3 3 3 4 3 1 2 4 3 3 3 3 2 2 0 2 2 2 2 2 2 16 6 7 63 24 25 73 27 27 70 29 27 70 26 25 67 26 24 67 27 25 67 25 26 67 26 24 66 24 25 61 23 22 59 24 22 39 15 15 0 0 0 0 0 0 1 1 1 53 50 57 94 86 101 93 87 101 97 91 103 96 88 103 103 95 106 105 99 109 92 86 100 102 96 108 95 87 102 97 91 105 97 91 101 99 93 105 96 90 104 97 89 102 99 91 104 99 93 105 72 66 78 31 29 32 25 24 29 33 33 35 77 71 83 91 82 99 98 90 103 95 89 101 97 91 103 105 97 108 94 88 100 102 96 106 94 88 102 104 99 106 100 92 105 97 91 103 98 90 103 98 90 101 99 91 104 100 97 104 100 92 105 93 87 101 100 92 107 97 89 102 98 88 99 99 91 104 99 91 102 97 89 102 100 92 105 95 89 101 98 92 104 99 91 102 97 91 105 95 87 102 93 84 101 98 90 103 
108 67 63 109 68 64 110 69 65 110 69 65 110 69 65 109 68 64 109 68 64 110 69 65 110 69 65 110 69 65 109 68 62 110 69 65 109 68 64 109 68 64 110 69 65 107 67 65 109 68 64 42 26 26 0 0 2 2 2 2 3 3 3 3 3 3 4 4 4 3 3 3 3 3 3 3 3 3 3 3 3 4 4 4 2 2 0 1 1 3 3 3 3 43 17 16 47 19 18 51 19 20 55 21 20 55 21 22 51 20 18 30 10 11 16 6 5 19 7 7 10 4 4 6 2 1 2 2 0 1 1 1 1 1 1 1 1 1 2 2 2 0 0 0 55 52 59 97 91 101 103 95 106 97 91 103 94 86 99 100 94 104 94 88 100 96 90 102 88 79 96 102 96 106 96 90 102 101 95 105 99 93 105 97 89 100 100 94 104 64 61 68 7 7 7 1 1 1 1 1 1 0 1 0 2 4 3 12 12 12 38 36 41 84 78 88 97 91 101 98 90 105 97 91 103 98 95 106 93 85 96 99 91 104 94 88 100 99 96 105 93 87 101 98 90 103 102 96 106 102 95 103 96 88 101 102 94 107 93 90 101 97 91 103 93 87 99 99 91 102 98 90 103 95 89 103 95 89 101 91 83 96 101 95 105 96 93 102 98 90 103 92 86 100 99 91 104 97 94 105 
110 69 65 110 69 65 111 70 66 109 68 64 110 69 65 109 68 64 109 68 64 109 68 64 108 69 62 108 69 64 108 69 64 109 70 65 110 69 65 109 68 64 109 68 62 109 68 64 107 68 63 21 13 11 0 1 3 3 3 3 2 2 2 3 3 3 4 2 3 3 3 3 3 3 3 3 3 3 3 3 3 4 4 4 2 2 2 0 0 0 0 0 0 0 2 1 1 1 1 0 2 1 2 2 2 0 2 1 0 0 0 1 1 1 1 1 1 0 0 0 1 1 1 2 0 1 1 1 1 1 1 1 2 0 1 3 3 5 2 2 2 1 1 1 1 1 1 41 39 40 97 91 101 100 94 104 96 88 103 99 93 105 101 93 104 98 90 103 98 90 103 100 94 104 99 91 104 94 86 101 100 94 106 101 93 106 102 97 104 15 13 16 1 1 1 1 1 1 2 2 2 0 0 0 1 1 1 0 0 0 1 1 1 4 4 4 52 49 56 95 89 101 95 89 101 93 87 99 99 93 105 97 89 100 99 91 106 97 91 101 99 93 105 96 88 101 99 93 105 101 90 104 102 94 105 102 97 104 101 93 104 94 87 103 93 87 101 93 85 100 101 95 105 86 83 90 28 27 32 12 12 12 33 31 36 67 61 71 95 88 96 97 91 103 99 91 102 95 87 100 
110 69 65 108 67 63 110 69 65 109 68 64 110 69 65 109 68 64 109 68 64 110 69 65 112 68 67 110 69 65 110 69 65 110 69 65 110 69 63 109 69 67 109 68 64 110 69 65 69 44 40 2 2 2 2 2 2 3 3 3 3 3 3 4 2 3 4 3 1 3 3 3 3 3 3 3 3 3 3 3 3 3 3 3 2 2 2 2 2 2 1 1 1 0 0 0 1 1 1 1 1 1 0 2 1 1 1 1 0 2 1 1 1 1 2 2 2 2 2 2 2 2 2 3 3 3 4 4 4 3 4 0 3 3 3 3 3 3 3 3 3 2 2 2 1 1 1 1 1 1 26 24 27 75 72 79 96 90 102 93 85 100 97 89 102 96 88 103 100 92 103 95 87 100 97 91 103 99 91 104 102 97 104 95 86 103 91 88 95 5 5 5 0 2 1 3 3 3 3 3 3 3 3 3 3 3 3 2 2 2 1 1 1 0 0 0 0 2 1 19 19 21 49 47 52 86 77 94 98 90 105 107 102 109 96 90 104 99 91 104 96 90 100 101 95 105 89 81 96 100 95 102 100 92 105 96 90 102 98 90 105 97 91 103 100 94 104 98 90 101 94 86 101 35 33 38 2 0 3 1 1 1 0 0 0 1 1 1 13 13 13 50 47 54 83 78 85 93 85 98 
109 68 64 110 69 65 109 68 64 110 69 65 110 69 65 108 67 63 109 68 64 109 68 64 109 68 64 108 69 64 109 68 64 109 68 64 109 68 62 108 69 64 109 68 64 108 67 65 27 17 18 0 0 0 3 3 3 3 3 1 4 4 4 3 3 3 2 2 2 3 3 3 3 3 3 2 2 2 1 3 2 3 3 3 3 3 3 3 3 3 3 3 3 3 3 3 3 3 3 4 4 4 3 3 3 3 3 3 4 4 4 2 4 3 2 4 3 2 2 2 3 3 3 2 2 2 3 3 3 3 3 3 3 2 7 3 3 3 3 3 3 4 2 5 2 2 2 1 1 1 1 1 1 3 3 3 56 53 60 91 83 98 100 94 104 93 85 98 93 84 101 101 93 106 96 88 103 92 86 100 93 85 98 102 94 107 99 91 104 11 11 11 1 1 1 1 1 1 3 3 3 2 2 2 3 3 3 3 3 3 4 4 4 2 2 2 2 2 2 0 0 0 0 0 0 17 17 19 69 67 70 89 83 95 97 89 102 99 94 101 94 86 101 100 94 106 102 96 106 92 88 102 102 94 105 101 98 107 91 85 99 103 97 107 94 86 101 101 95 109 77 71 81 2 2 0 1 1 1 2 2 2 2 2 2 1 1 1 1 1 0 0 0 2 2 2 4 23 23 25 
110 69 65 110 69 65 109 68 64 109 68 64 109 68 64 110 69 65 109 68 64 110 69 65 109 68 64 108 69 64 109 68 64 109 70 65 110 69 65 109 68 64 109 68 64 92 58 56 4 2 3 2 2 4 3 3 3 3 3 3 3 3 3 3 3 3 3 3 3 2 2 2 2 2 2 3 3 3 2 2 2 2 2 2 3 3 3 2 2 2 3 3 3 2 2 0 2 2 2 0 0 0 1 1 1 2 2 2 2 2 4 3 3 3 3 3 3 3 3 3 3 3 3 2 2 2 3 3 3 3 3 1 3 3 3 3 3 1 3 3 3 2 4 3 4 4 4 2 4 3 1 3 2 1 1 1 4 4 4 35 32 39 89 83 95 99 93 103 97 91 103 97 91 105 90 84 98 100 95 102 96 88 103 99 91 106 95 87 100 60 55 62 2 2 2 1 1 1 3 3 3 3 3 3 1 1 1 3 3 3 3 3 3 3 3 3 3 3 3 3 3 3 1 1 1 1 1 1 2 2 2 13 13 15 56 54 59 93 87 99 100 94 104 95 87 102 102 96 106 98 92 104 100 94 106 97 94 101 97 89 102 96 90 102 93 90 99 100 94 104 64 61 68 0 0 0 1 1 1 3 3 3 4 4 4 2 4 3 3 3 3 1 1 1 0 0 0 0 0 0 
109 70 65 109 68 64 110 69 65 109 68 64 109 70 63 110 69 63 109 68 64 107 68 63 109 68 64 110 69 65 110 69 65 110 69 65 110 69 65 109 68 64 109 68 64 54 34 33 1 1 1 2 2 2 4 4 4 3 3 3 3 3 3 1 1 1 3 3 3 2 2 2 3 3 3 3 3 3 3 3 3 3 3 3 3 3 3 3 3 3 2 2 2 0 2 0 1 1 1 1 1 1 1 1 1 0 0 0 1 1 3 2 0 3 1 1 1 1 1 1 2 2 2 3 3 3 2 2 2 3 3 3 3 3 3 3 3 3 3 3 3 3 3 3 3 3 3 3 3 3 4 4 4 2 2 2 1 1 1 0 0 2 33 31 36 80 77 84 102 96 108 93 87 99 98 90 101 100 92 103 100 93 101 101 95 105 99 91 104 93 82 96 30 28 33 0 0 0 1 1 0 0 2 1 3 3 3 2 2 2 3 3 5 3 1 2 3 3 1 3 3 3 3 3 5 2 2 2 2 2 2 1 1 1 2 2 2 21 19 20 65 63 68 94 88 100 99 93 105 93 87 99 94 86 101 95 87 100 100 94 106 101 93 104 98 92 104 99 93 105 83 77 89 8 6 9 0 0 2 1 3 0 2 4 3 3 3 1 3 3 3 2 2 2 3 3 3 1 1 1 
109 68 66 110 69 65 110 69 65 110 69 65 109 68 64 108 67 63 108 67 63 109 70 65 109 68 62 108 69 62 109 68 62 108 69 62 108 69 64 110 69 67 105 65 63 15 9 9 1 1 1 2 2 2 3 3 3 3 3 3 3 3 3 3 3 3 2 2 2 3 3 3 3 3 3 4 4 4 3 3 3 3 3 3 4 4 4 1 1 1 1 1 1 2 2 0 11 11 11 42 35 42 56 54 59 29 27 30 19 19 17 0 0 2 0 0 0 1 1 1 1 1 1 2 2 2 2 2 4 3 3 3 3 3 3 3 3 3 4 4 4 2 2 2 4 4 4 3 3 3 3 3 3 2 2 2 2 2 2 1 1 1 2 0 1 15 13 16 63 58 65 101 95 105 97 89 104 100 92 105 94 88 102 98 90 103 95 87 102 98 92 104 89 84 91 30 28 33 1 1 1 0 2 1 2 2 2 3 3 3 3 3 3 3 3 3 3 3 3 4 4 4 3 3 3 3 3 3 2 2 2 3 1 2 1 1 1 0 1 0 1 3 0 19 17 22 47 44 51 91 85 95 96 88 101 99 91 102 105 100 106 100 94 108 99 91 102 96 88 101 91 85 99 69 67 72 5 5 7 1 1 1 1 1 3 2 2 2 3 3 3 2 2 2 3 3 3 3 3 3 
110 69 65 108 67 63 110 69 65 109 68 64 108 67 63 110 69 65 109 68 64 108 67 61 110 71 66 109 70 65 109 68 64 109 70 65 109 68 64 110 69 65 74 46 43 0 0 2 2 2 2 2 2 2 3 3 3 2 2 2 2 2 2 1 1 1 3 3 3 3 3 3 3 3 3 3 3 3 3 3 3 2 2 2 3 3 3 0 0 0 2 0 1 56 51 58 95 92 101 100 92 105 102 96 106 99 91 102 95 92 103 67 61 71 46 44 49 23 21 24 2 2 2 0 0 0 1 1 1 2 2 2 3 3 3 3 3 3 3 3 3 3 3 3 3 3 3 3 3 3 3 3 3 3 3 3 2 2 2 3 3 3 2 2 2 1 1 1 6 6 6 61 58 65 95 89 103 98 92 102 101 93 106 99 93 103 97 91 103 100 95 102 100 93 101 98 90 103 32 31 36 0 0 0 0 0 0 1 1 1 2 2 2 3 3 3 2 2 2 3 3 3 3 3 3 2 2 2 3 3 3 2 2 2 3 3 3 2 2 0 1 1 1 1 1 0 2 2 2 12 12 14 64 61 70 89 85 99 96 90 102 102 94 105 99 91 102 102 94 105 101 93 104 96 88 101 73 67 77 16 14 15 1 1 1 1 1 1 3 3 3 3 3 3 3 3 3 3 3 3 
109 68 64 110 69 63 110 69 63 110 69 65 109 68 64 109 70 65 109 68 64 110 69 67 110 69 65 110 69 65 108 67 63 109 68 66 109 70 65 107 68 63 29 19 18 1 1 1 3 3 3 3 3 3 3 3 3 2 2 2 2 2 2 2 2 2 3 3 3 3 3 3 2 2 2 3 3 3 2 2 2 3 3 3 2 2 4 1 1 1 4 2 3 77 71 81 100 92 107 94 86 101 97 91 103 92 84 99 101 95 105 97 86 102 100 94 104 95 92 99 60 58 63 6 4 7 0 0 0 1 1 1 2 2 2 3 3 3 3 3 3 3 3 3 3 3 3 1 1 1 3 3 3 3 3 3 3 3 3 3 3 3 2 2 2 1 1 3 1 1 1 1 1 1 63 60 71 96 88 103 100 94 106 97 89 100 100 92 103 94 86 99 96 88 103 97 91 101 92 84 95 48 46 49 8 8 8 1 1 1 1 1 0 1 1 1 2 2 4 3 3 3 4 4 4 3 3 3 3 3 3 3 3 3 3 3 3 3 3 3 3 3 3 2 2 2 1 1 1 0 0 0 2 2 2 15 13 14 33 31 36 58 56 61 81 78 87 100 95 102 96 88 101 95 87 100 97 89 102 78 72 82 10 8 9 1 1 1 2 2 2 3 3 3 3 3 3 3 3 3 
111 68 62 108 69 64 112 68 65 108 67 61 111 70 64 110 69 65 109 68 64 108 67 63 100 62 59 101 63 60 95 60 56 83 52 47 56 35 34 34 22 22 2 2 2 1 1 1 2 2 2 2 2 2 3 3 3 2 2 2 3 3 3 2 2 2 3 3 3 2 2 2 4 4 4 3 3 3 3 3 3 3 3 3 3 3 3 1 1 1 0 0 0 23 21 22 90 84 96 99 93 103 96 90 102 95 89 101 99 91 104 99 88 102 100 92 105 97 91 105 96 90 102 82 76 86 37 37 39 5 5 7 1 1 1 1 1 1 1 1 1 2 2 2 3 3 3 2 2 2 2 2 2 2 2 2 2 2 2 2 2 2 3 3 3 4 4 4 2 2 4 1 1 1 4 2 3 36 34 39 88 80 91 95 88 104 93 85 100 99 91 106 98 92 106 101 93 104 100 94 104 99 96 105 90 84 94 32 27 33 2 2 2 1 1 1 0 2 1 2 2 4 2 2 2 3 3 3 2 2 2 3 3 3 3 3 3 3 3 3 3 3 1 2 2 2 3 3 3 2 2 2 1 1 1 1 1 1 0 0 0 0 0 0 4 4 6 12 12 12 13 11 14 21 19 24 29 27 32 20 20 22 2 2 0 2 0 1 3 3 3 2 2 2 2 2 2 3 3 3 
111 67 64 108 67 63 104 65 60 105 65 63 97 59 56 90 57 52 56 37 33 27 17 16 11 7 8 13 7 7 5 4 2 1 1 1 1 1 1 1 1 1 0 0 0 1 1 1 1 1 1 2 2 2 1 1 1 3 3 3 2 2 2 3 3 3 4 4 4 3 3 3 3 3 3 2 2 2 3 3 3 2 2 2 3 3 3 3 3 3 1 1 1 2 2 2 40 40 42 89 83 93 95 84 101 104 99 106 99 93 105 97 89 102 96 88 99 99 96 105 96 90 100 96 88 101 101 93 104 82 76 88 23 21 24 0 2 1 1 1 1 1 1 1 2 2 2 3 3 3 2 2 2 2 2 2 3 3 3 3 3 3 3 3 3 3 3 3 3 3 3 2 2 2 1 1 1 0 0 0 29 27 30 97 91 101 99 91 102 98 90 103 98 90 105 99 93 103 96 90 100 99 93 103 100 92 103 93 85 98 75 69 79 45 45 47 2 2 2 1 1 1 1 1 1 1 1 1 2 2 2 3 3 3 3 3 3 3 3 3 2 4 3 3 3 3 3 3 3 2 2 2 3 3 3 2 2 2 2 2 2 2 2 2 0 0 0 1 1 1 1 1 1 1 1 1 0 0 0 0 0 0 1 1 1 2 2 2 3 3 3 2 2 2 4 4 4 3 3 3 
