P3
100 50
255
45 76 68 45 76 68 44 75 67 44 75 67 43 74 66 44 75 67 44 75 67 45 76 68 44 75 67 44 75 67 44 75 67 45 76 68 44 75 67 43 74 66 44 75 67 44 75 67 43 74 66 43 74 66 45 76 68 43 74 66 45 76 68 43 74 66 44 75 67 44 75 67 44 75 67 44 75 67 44 75 67 45 76 68 44 75 67 44 75 67 44 75 67 44 75 67 44 75 67 44 75 67 44 75 67 44 75 67 45 76 68 43 74 66 44 75 67 42 73 65 43 74 66 44 75 67 45 76 68 44 75 67 44 75 67 44 75 67 44 75 67 44 75 67 43 74 66 43 74 66 43 74 66 44 75 67 44 75 67 45 76 68 44 75 67 44 75 67 44 75 67 44 75 67 44 75 67 44 75 67 45 76 68 43 74 66 44 75 67 42 73 65 44 75 67 45 76 68 44 75 67 44 75 67 44 75 67 44 75 67 45 76 68 44 75 67 44 75 67 44 75 67 43 74 66 44 75 67 45 76 68 45 76 68 44 75 67 43 74 66 44 75 67 43 74 66 44 75 67 44 75 67 44 75 67 44 75 67 43 74 66 44 75 67 43 74 66 45 76 68 43 74 66 44 75 67 43 74 66 43 74 66 44 75 67 44 75 67 45 76 68 44 75 67 44 75 67 44 75 67 
44 75 67 44 75 67 43 74 66 43 74 66 44 75 67 44 75 67 42 73 65 44 75 67 45 76 68 44 75 67 43 74 66 44 75 67 44 75 67 44 75 67 44 75 67 45 76 68 44 75 67 43 74 66 45 76 68 44 75 67 44 75 67 45 76 68 44 75 67 43 74 66 44 75 67 44 75 67 45 76 68 43 74 66 43 74 66 44 75 67 42 73 65 44 75 67 44 75 67 43 74 66 43 74 66 44 75 67 44 75 67 44 75 67 44 75 67 44 75 67 44 75 67 43 74 66 44 75 67 45 76 68 44 75 67 44 75 67 44 75 67 45 76 68 44 75 67 45 76 68 44 75 67 44 75 67 44 75 67 44 75 67 44 75 67 44 75 67 44 75 67 46 77 69 44 75 67 44 75 67 43 74 66 44 75 67 44 75 67 43 74 66 45 76 68 44 75 67 44 75 67 44 75 67 44 75 67 44 75 67 44 75 67 44 75 67 44 75 67 44 75 67 44 75 67 44 75 67 44 75 67 44 75 67 43 74 66 43 74 66 42 73 65 43 74 66 44 75 67 44 75 67 44 75 67 44 75 67 43 74 66 44 75 67 44 75 67 44 75 67 44 75 67 43 74 66 44 75 67 45 76 68 45 76 68 43 74 66 45 76 68 45 76 68 44 75 67 44 75 67 
43 74 66 44 75 67 45 76 68 44 75 67 44 75 67 44 75 67 44 75 67 44 75 67 44 75 67 44 75 67 43 74 66 45 76 68 43 74 66 44 75 67 45 76 68 44 75 67 44 75 67 44 75 67 44 75 67 44 75 67 43 74 66 44 75 67 44 75 67 44 75 67 44 75 67 45 76 68 45 76 68 43 74 66 43 74 66 43 74 66 43 74 66 42 73 65 44 75 67 44 75 67 44 75 67 44 75 67 43 74 66 44 75 67 43 74 66 44 75 67 43 74 66 44 75 67 44 75 67 45 76 68 44 75 67 44 75 67 44 75 67 44 75 67 44 75 67 44 75 67 43 74 66 44 75 67 44 75 67 42 73 65 44 75 67 44 75 67 43 74 66 44 75 67 44 75 67 44 75 67 44 75 67 43 74 66 44 75 67 45 76 68 44 75 67 43 74 66 44 75 67 44 75 67 44 75 67 44 75 67 43 74 66 43 74 66 44 75 67 44 75 67 44 75 67 44 75 67 45 76 68 44 75 67 44 75 67 45 76 68 42 73 65 44 75 67 44 75 67 44 75 67 44 75 67 45 76 68 44 75 67 44 75 67 44 75 67 43 74 66 44 75 67 43 74 66 45 76 68 44 75 67 44 75 67 43 74 66 45 76 68 44 75 67 44 75 67 44 75 67 
44 75 67 43 74 66 44 75 67 44 75 67 43 74 66 43 74 66 43 74 66 44 75 67 43 74 66 44 75 67 44 75 67 44 75 67 44 75 67 45 76 68 45 76 68 44 75 67 44 75 67 45 76 68 44 75 67 44 75 67 44 75 67 44 75 67 44 75 67 44 75 67 44 75 67 44 75 67 44 75 67 44 75 67 44 75 67 44 75 67 44 75 67 44 75 67 44 75 67 44 75 67 43 74 66 44 75 67 42 73 65 43 74 66 44 75 67 44 75 67 44 75 67 43 74 66 44 75 67 43 74 66 44 75 67 44 75 67 44 75 67 44 75 67 44 75 67 45 76 68 44 75 67 44 75 67 44 75 67 43 74 66 45 76 68 43 74 66 43 74 66 43 74 66 43 74 66 43 74 66 44 75 67 44 75 67 42 73 65 44 75 67 44 75 67 44 75 67 44 75 67 43 74 66 44 75 67 44 75 67 44 75 67 44 75 67 44 75 67 44 75 67 44 75 67 44 75 67 44 75 67 44 75 67 43 74 66 43 74 66 44 75 67 44 75 67 44 75 67 44 75 67 44 75 67 42 73 65 44 75 67 43 74 66 44 75 67 43 74 66 43 74 66 44 75 67 44 75 67 44 75 67 43 74 66 43 74 66 45 76 68 43 74 66 44 75 67 44 75 67 
44 74 66 47 77 69 44 75 67 44 74 66 44 74 66 43 74 66 43 74 66 43 76 67 44 75 67 44 75 67 44 75 67 43 74 66 43 74 66 44 75 67 44 75 67 44 75 67 45 76 68 44 75 67 45 76 68 44 75 67 45 75 67 44 75 67 44 74 66 45 75 67 44 75 67 44 75 67 43 74 66 43 74 66 45 75 67 44 75 67 44 75 67 44 75 67 43 73 65 45 75 67 44 75 67 43 74 66 43 74 66 44 75 67 44 75 67 45 76 68 44 75 67 44 75 67 44 74 66 44 74 66 44 75 67 44 75 67 44 74 66 45 75 67 45 75 67 45 75 67 44 75 67 43 74 66 45 75 67 44 75 67 45 75 67 43 74 66 45 75 67 44 75 67 43 74 66 44 75 67 43 74 66 45 75 67 43 74 66 44 74 66 44 75 67 45 75 67 43 74 66 45 75 67 44 74 66 44 75 67 45 75 67 44 75 67 45 75 67 44 75 67 45 75 67 44 75 67 45 75 67 45 75 67 43 74 66 44 75 67 44 75 67 44 75 67 45 75 67 45 75 67 44 75 67 44 75 67 44 75 67 44 75 67 43 74 66 45 76 68 44 75 67 44 75 67 45 75 67 43 74 66 45 75 67 43 73 65 43 74 66 44 75 67 44 74 66 44 75 67 
44 74 66 44 74 66 43 74 66 44 74 66 44 75 67 43 74 66 44 75 67 44 75 67 44 75 67 44 75 67 45 76 68 44 75 67 44 74 66 44 74 66 45 75 67 45 75 67 45 75 67 45 75 67 45 75 67 45 75 67 45 75 67 44 74 66 44 75 67 43 74 66 45 76 68 42 73 65 44 75 67 44 75 67 44 75 67 44 75 67 44 75 67 44 75 67 43 74 66 44 74 66 45 76 68 43 74 66 44 75 67 44 75 67 43 74 66 44 75 67 45 76 68 44 75 67 44 75 67 44 75 67 43 74 66 45 75 67 44 75 67 45 75 67 45 75 67 44 75 67 44 74 66 44 75 67 44 75 67 44 75 67 44 75 67 44 75 67 44 75 67 44 74 66 44 75 67 44 74 66 43 74 66 44 74 66 44 75 67 44 74 66 43 74 66 44 75 67 44 74 66 43 74 66 44 75 67 44 74 66 44 75 67 45 75 67 43 74 66 45 75 67 43 74 66 45 75 67 44 75 67 44 75 67 43 74 66 45 75 67 45 75 67 44 75 67 44 75 67 44 75 67 43 74 66 44 75 67 44 75 67 43 74 66 43 76 67 43 74 66 44 75 67 44 75 67 44 75 67 44 74 66 44 75 67 44 75 67 45 75 67 45 75 67 43 74 66 44 74 66 
45 75 67 45 75 67 45 76 68 45 75 67 44 75 67 43 74 66 44 75 67 45 76 68 44 75 67 45 75 67 44 74 66 45 75 67 43 74 66 42 73 65 43 74 66 43 74 66 44 75 67 44 75 67 44 75 67 43 74 66 44 75 67 44 74 66 43 74 66 44 75 67 45 75 67 44 75 67 43 74 66 44 75 67 45 75 67 44 75 67 44 75 67 44 74 66 44 74 66 43 74 66 44 75 67 45 75 67 44 74 66 45 75 67 44 74 66 43 74 66 43 74 66 44 75 67 44 75 67 44 75 67 43 74 66 43 74 66 44 74 66 44 74 66 44 74 66 44 74 66 44 75 67 44 75 67 44 75 67 44 75 67 44 75 67 44 74 66 43 74 66 44 74 66 44 75 67 45 75 67 45 75 67 42 73 65 45 75 67 44 74 66 44 75 67 45 75 67 44 75 67 44 74 66 45 75 67 44 75 67 45 75 67 44 75 67 45 75 67 44 75 67 45 75 67 43 74 66 44 75 67 44 75 67 43 74 66 45 75 67 45 75 67 43 74 66 43 74 66 44 75 67 44 74 66 44 75 67 43 74 66 43 74 66 43 74 66 43 74 66 44 74 66 43 74 66 43 74 66 44 74 66 43 74 66 44 75 67 44 74 66 45 75 67 43 74 66 46 76 68 
45 75 67 44 74 66 44 75 67 45 75 67 44 75 67 44 75 67 44 75 67 43 74 66 44 75 67 46 76 68 44 74 66 45 75 67 45 75 67 45 75 67 46 76 68 44 74 66 45 75 67 44 74 66 45 75 67 45 75 67 43 74 66 45 75 67 43 74 66 44 75 67 43 74 66 44 75 67 43 74 66 44 75 67 44 75 67 44 74 66 44 75 67 44 75 67 45 76 68 45 75 67 43 73 65 44 75 67 45 75 67 44 75 67 44 75 67 44 75 67 44 75 67 44 75 67 44 75 67 44 75 67 44 75 67 45 75 67 45 76 68 45 75 67 45 75 67 43 74 66 45 75 67 44 75 67 44 75 67 44 74 66 44 75 67 44 74 66 43 74 66 44 75 67 44 75 67 44 75 67 43 74 66 45 75 67 44 75 67 45 75 67 42 73 65 44 75 67 45 75 67 44 75 67 44 75 67 44 74 66 43 74 66 45 75 67 43 74 66 44 74 66 44 75 67 44 74 66 44 75 67 45 75 67 44 74 66 44 75 67 44 75 67 45 75 67 45 75 67 43 74 66 44 75 67 45 75 67 45 75 67 44 75 67 44 75 67 44 75 67 44 75 67 45 75 67 44 75 67 45 75 67 44 75 67 43 74 66 44 74 66 45 75 67 43 74 66 44 74 66 
44 74 66 45 75 67 44 75 67 45 75 67 45 75 67 44 74 66 44 74 66 44 74 66 45 75 67 44 75 67 43 74 66 44 75 67 45 75 67 44 74 66 44 74 66 44 74 66 45 75 67 45 75 67 45 75 67 45 75 67 43 74 66 44 75 67 45 76 68 42 73 65 44 75 67 43 74 66 45 75 67 44 75 67 44 74 66 46 76 68 43 74 66 44 74 66 45 75 67 44 74 66 45 75 67 44 74 66 43 74 66 44 75 67 43 74 66 43 74 66 43 74 66 43 74 66 44 75 67 44 74 66 44 75 67 44 75 67 44 74 66 44 74 66 45 75 67 44 74 66 44 75 67 43 74 66 45 75 67 43 74 66 44 74 66 44 75 67 43 74 66 43 74 66 44 75 67 44 75 67 43 74 66 45 75 67 43 74 66 44 75 67 45 75 67 43 74 66 44 74 66 43 74 66 45 75 67 44 75 67 45 75 67 43 74 66 45 75 67 44 75 67 45 75 67 44 75 67 44 75 67 44 74 66 44 74 66 44 75 67 44 75 67 44 74 66 45 75 67 44 75 67 46 73 66 44 75 67 44 75 67 43 74 66 44 75 67 44 74 66 44 74 66 44 75 67 45 75 67 43 74 66 46 76 68 45 75 67 44 75 67 43 74 66 45 75 67 44 75 67 
45 75 67 44 74 66 43 74 66 44 74 66 44 74 66 44 74 64 44 74 66 44 74 66 44 74 64 43 74 66 43 74 66 43 74 66 43 74 66 43 74 66 44 75 67 44 75 67 43 74 66 44 75 67 44 75 67 44 75 67 44 75 67 43 74 66 43 74 66 45 75 67 43 74 66 44 75 67 44 74 66 44 75 67 43 76 67 44 74 66 45 75 67 43 76 67 44 75 67 43 74 66 44 74 66 43 74 66 44 75 67 44 75 67 44 75 67 43 74 66 44 75 67 44 74 66 45 75 67 45 75 67 44 75 67 44 74 66 43 74 66 43 73 65 45 75 67 44 75 67 45 75 67 44 75 67 44 75 67 44 75 67 44 75 67 43 74 66 43 73 65 44 75 67 45 75 67 44 75 67 44 74 66 44 75 67 45 75 67 43 74 66 46 76 68 44 74 66 44 75 67 44 74 66 44 75 67 44 74 66 43 74 66 44 74 66 43 74 66 44 74 66 44 75 67 45 75 67 45 75 67 43 74 66 43 74 66 44 75 67 44 75 67 44 75 67 44 75 67 44 74 66 44 75 67 44 74 66 45 75 67 44 75 67 43 73 65 44 75 67 43 74 66 45 75 67 45 75 67 44 75 67 44 74 66 44 74 66 44 75 67 44 75 67 46 76 68 44 75 67 
44 74 66 44 74 66 45 76 68 44 74 66 45 75 67 45 75 67 44 74 66 45 75 65 44 74 66 44 74 66 45 75 65 45 75 67 44 74 66 44 74 66 44 74 66 44 74 66 44 74 66 45 75 67 45 75 67 45 75 67 44 75 67 43 74 66 44 75 67 44 75 67 45 76 68 43 74 66 44 74 66 45 75 67 44 75 67 44 75 67 45 75 67 45 75 67 44 75 67 43 74 66 44 75 67 45 75 67 44 75 67 44 75 67 43 74 66 43 74 66 43 74 66 44 75 67 43 74 66 43 74 66 44 75 67 43 74 66 45 75 67 45 75 67 45 75 67 44 74 66 44 75 67 43 74 66 44 75 67 43 74 66 44 75 67 43 74 66 44 75 67 44 75 67 44 74 66 45 75 67 44 75 67 45 75 67 43 74 66 44 75 67 44 74 66 44 75 67 45 75 67 44 75 67 44 74 66 44 75 67 44 74 66 45 76 68 44 74 66 44 75 67 45 75 67 43 74 66 45 75 67 44 75 67 44 75 67 44 75 67 44 75 67 43 74 66 44 75 67 45 75 67 45 75 67 44 75 67 43 74 66 45 75 67 44 75 67 44 74 66 45 75 67 44 75 67 44 74 66 43 74 66 44 74 66 44 74 66 43 74 66 44 75 67 44 74 66 44 75 67 
45 75 67 44 74 66 43 74 66 44 74 66 44 75 67 45 75 65 44 74 66 47 74 67 45 75 65 44 74 66 45 75 67 44 74 66 42 73 65 43 74 66 44 75 67 44 75 67 45 76 68 43 74 66 44 75 67 43 74 66 44 75 67 44 75 67 45 76 68 42 73 65 45 75 67 45 75 67 44 75 67 44 74 66 43 74 66 44 75 67 43 74 66 45 75 67 44 75 67 44 75 67 43 74 66 44 74 66 44 74 66 44 74 66 44 75 67 44 75 67 44 75 67 43 74 66 44 75 67 44 75 67 43 74 66 44 75 67 45 75 67 45 75 67 45 75 67 44 74 66 44 75 67 44 75 67 43 74 66 44 74 66 44 75 67 44 74 66 44 75 67 44 75 67 44 75 67 44 75 67 45 75 67 43 74 66 45 75 67 44 75 67 44 74 66 44 75 67 45 75 67 42 73 65 43 74 66 44 74 66 44 75 67 44 74 66 44 75 67 44 74 66 43 74 66 44 74 66 44 75 67 44 75 67 44 74 66 44 74 66 46 76 68 45 75 67 44 75 67 44 75 67 45 75 67 44 74 66 45 75 67 45 75 67 44 74 66 44 74 66 46 76 68 45 75 67 43 74 66 44 74 66 43 74 66 44 75 67 45 75 67 44 74 66 44 75 67 44 74 66 
45 75 67 45 75 67 44 75 67 44 74 66 45 75 67 45 75 67 45 75 67 45 75 67 45 75 67 44 75 67 44 75 67 44 75 67 45 75 67 43 74 66 43 74 66 44 75 67 44 74 66 45 75 67 45 75 67 43 74 66 44 74 66 43 74 66 44 74 66 44 75 67 44 74 66 44 74 66 44 74 66 45 75 67 44 74 66 45 75 67 44 75 67 43 74 66 43 74 66 44 75 67 44 74 66 45 75 67 44 75 67 44 74 66 44 75 67 44 75 67 44 74 66 44 75 67 44 74 66 45 75 67 43 74 66 44 75 67 44 75 67 45 75 67 44 75 67 45 75 67 44 74 66 44 74 66 45 75 67 43 74 66 44 75 67 44 75 67 44 75 67 43 74 66 43 74 66 44 74 66 44 74 66 45 75 67 44 74 66 44 75 67 43 74 66 45 75 67 44 74 66 44 75 67 44 74 66 43 74 66 45 75 67 43 74 66 44 74 66 45 75 67 45 75 67 44 75 67 44 75 67 43 74 66 44 75 67 44 75 67 44 74 66 45 75 67 45 75 67 45 75 67 44 74 66 44 74 66 44 75 67 44 75 67 43 74 66 44 75 67 44 75 67 44 74 66 44 75 67 44 75 67 44 75 67 43 74 66 44 75 67 44 75 67 44 75 67 44 75 67 
45 75 67 46 76 68 44 75 67 44 74 66 43 74 66 44 74 66 44 74 66 44 75 67 44 75 67 46 73 66 44 74 66 43 74 66 45 75 67 44 75 67 43 74 66 43 74 66 44 74 66 44 74 66 44 74 66 45 76 68 44 75 67 43 74 66 43 74 66 44 75 67 43 74 66 44 75 67 45 75 67 45 76 68 44 75 67 44 74 66 44 75 67 44 75 67 45 75 67 44 74 66 44 75 67 45 75 67 44 75 67 45 75 67 44 75 67 44 75 67 44 74 66 43 74 66 44 74 66 45 75 67 46 76 68 43 73 65 45 75 67 44 75 67 44 74 66 42 73 65 44 75 67 44 75 67 44 75 67 44 75 67 43 74 66 44 75 67 43 74 66 42 73 65 44 75 67 44 75 67 44 75 67 43 74 66 45 75 67 43 74 66 44 75 67 44 74 66 44 74 66 45 75 67 44 74 66 44 75 67 43 73 65 44 75 67 45 75 67 45 75 67 43 74 66 45 75 67 43 74 66 44 74 66 45 75 67 45 75 67 44 75 67 44 75 67 44 75 67 45 75 67 44 74 66 44 74 66 44 75 67 44 75 67 43 73 65 44 74 66 44 75 67 44 74 66 44 74 66 45 75 67 43 74 66 43 74 66 43 74 66 44 75 67 45 75 67 44 74 66 
44 74 66 45 75 67 44 75 67 44 74 66 43 74 66 44 75 67 43 74 66 45 75 67 44 74 66 45 75 67 44 74 66 44 74 66 45 75 67 43 74 66 43 74 66 44 75 67 44 74 66 44 74 66 44 74 66 43 74 66 45 75 67 44 74 66 44 75 67 45 75 67 45 75 67 44 74 66 46 76 68 45 75 67 44 75 67 43 73 65 45 75 67 45 75 67 44 74 66 45 75 67 44 75 67 43 74 66 44 75 67 42 75 66 44 75 67 44 74 66 45 75 67 45 75 67 46 73 66 44 75 67 43 74 66 45 75 67 43 74 66 44 74 66 44 75 67 45 75 67 44 75 67 45 75 67 43 74 66 43 74 66 43 74 66 44 75 67 44 75 67 43 74 66 43 74 66 43 74 66 44 74 66 44 74 66 44 74 66 44 75 67 44 75 67 44 74 66 43 74 66 44 75 67 44 74 66 42 73 65 45 75 67 44 75 67 45 75 67 44 75 67 45 75 67 42 73 65 44 74 66 44 74 66 44 74 66 44 74 66 43 74 66 44 75 67 44 75 67 44 75 67 45 76 68 44 75 67 44 75 67 44 75 67 45 76 68 44 75 67 44 75 67 45 75 67 44 75 67 44 75 67 45 75 67 45 75 67 45 75 67 44 74 66 44 75 67 43 74 66 
45 75 67 45 75 67 43 74 66 45 75 67 43 74 66 43 74 66 44 75 67 44 74 66 44 74 66 44 75 67 44 74 66 44 74 66 45 75 67 45 76 68 43 74 66 43 74 66 45 75 67 45 75 67 44 74 66 44 75 67 43 74 66 42 73 65 43 74 66 45 75 67 44 75 67 45 75 67 44 75 67 44 74 66 44 75 67 44 74 66 44 75 67 44 75 67 44 74 66 45 75 67 44 75 67 44 74 66 44 75 67 44 74 66 44 75 67 44 75 67 44 74 66 43 74 66 45 75 67 44 75 67 44 75 67 44 75 67 43 74 66 43 74 66 44 74 66 45 75 67 44 74 66 45 75 67 44 75 67 44 75 67 44 75 67 43 73 65 43 73 65 43 74 66 43 74 66 44 75 67 44 75 67 44 74 66 45 75 67 43 74 66 43 74 66 45 75 67 44 74 66 45 75 67 43 74 66 45 75 67 44 75 67 45 75 67 43 73 65 44 75 67 44 74 66 44 75 67 44 74 66 45 75 67 44 75 67 44 75 67 45 75 67 45 75 67 43 74 66 45 76 68 43 73 65 44 74 66 44 74 66 44 74 66 44 74 66 44 74 66 44 74 66 44 74 66 45 75 67 44 74 66 44 74 66 44 74 66 43 73 65 44 74 66 45 75 67 45 75 67 
45 75 67 43 73 65 43 74 66 45 75 67 44 75 67 43 74 66 45 75 67 43 74 66 44 75 67 44 74 66 44 74 66 45 75 67 44 74 66 44 75 67 43 74 66 43 74 66 44 74 66 44 74 66 44 74 66 44 75 67 44 75 67 43 74 66 44 75 67 44 74 66 44 75 67 44 74 66 44 75 67 44 74 66 44 75 67 45 75 67 44 75 67 44 75 67 44 74 66 45 75 67 43 74 66 44 74 66 44 74 66 43 74 66 44 75 67 44 74 66 44 75 67 44 74 66 45 75 67 44 75 67 44 74 66 45 75 67 45 75 67 44 75 67 47 77 69 44 75 67 44 75 67 44 75 67 44 75 67 42 73 65 43 74 66 44 74 66 44 74 66 43 74 66 43 74 66 44 75 67 43 74 66 44 74 66 45 75 67 44 75 67 43 74 66 44 74 66 44 74 66 44 74 66 45 75 67 44 75 67 44 74 66 43 74 66 43 74 66 44 74 66 44 75 67 45 75 67 43 74 66 44 75 67 45 75 67 44 74 66 44 75 67 43 74 66 44 74 66 45 75 67 43 74 66 43 74 66 43 74 66 44 75 67 44 75 67 44 75 67 43 74 66 43 74 66 45 75 67 44 74 66 44 74 66 44 74 66 44 74 66 45 75 67 45 75 67 44 74 66 
45 75 67 44 74 66 43 74 66 45 75 67 43 74 66 43 74 66 43 74 66 44 75 67 44 75 67 44 74 66 44 74 66 44 74 66 44 74 66 44 75 67 43 74 66 44 75 67 45 75 67 44 74 66 44 74 66 44 75 67 44 74 66 44 74 66 43 74 66 44 74 66 44 74 66 44 74 66 44 74 66 44 74 66 45 75 67 45 75 67 44 75 67 43 74 66 44 75 67 44 75 67 43 74 66 44 74 66 44 74 66 43 73 65 44 74 66 43 74 66 44 74 66 44 75 67 44 75 67 44 75 67 45 75 67 44 74 66 43 74 66 44 74 66 43 74 66 44 74 66 43 74 66 43 74 66 43 74 66 44 75 67 44 75 67 44 75 67 43 74 66 43 74 66 43 74 66 43 74 66 44 74 66 44 74 66 44 74 66 44 75 67 43 74 66 44 74 66 44 75 67 44 75 67 43 74 66 45 75 67 44 75 67 44 74 66 44 75 67 44 74 66 43 74 66 45 75 67 44 75 67 43 74 66 43 74 66 43 74 66 44 74 66 45 75 67 44 74 66 44 74 66 44 74 66 45 75 67 45 75 67 45 75 67 45 75 67 45 75 67 44 74 66 43 74 66 43 74 66 44 75 67 45 75 67 45 75 67 44 74 66 44 74 66 44 75 67 44 75 67 
44 74 66 44 74 66 43 74 66 44 74 66 44 74 66 44 75 67 43 76 67 44 74 66 45 75 67 43 74 66 44 75 67 44 74 66 44 74 66 44 75 67 43 74 66 44 75 67 45 75 67 44 74 66 44 74 66 44 75 67 44 75 67 44 75 67 44 75 67 44 75 67 44 75 67 44 75 67 45 75 67 44 75 67 44 75 67 45 75 67 44 75 67 44 75 67 45 75 67 44 74 66 43 74 66 45 75 67 42 73 65 43 74 66 44 74 66 44 74 66 43 74 66 44 74 66 44 75 67 44 75 67 43 74 66 44 75 67 45 75 67 44 75 67 44 74 66 44 75 67 45 75 67 44 74 66 42 73 65 44 75 67 44 75 67 44 75 67 44 75 67 44 75 67 43 74 66 43 74 66 44 75 67 43 74 66 44 74 66 43 74 66 44 75 67 44 74 66 44 74 66 44 74 66 44 75 67 44 74 66 44 75 67 45 75 67 43 74 66 43 74 66 44 74 66 44 75 67 45 75 67 44 75 67 44 75 67 44 75 67 45 75 67 46 76 68 45 75 67 44 75 67 44 75 67 43 74 66 44 74 66 45 75 67 44 75 67 44 75 67 44 74 66 43 74 66 44 74 66 44 74 66 44 75 67 43 74 66 44 75 67 43 74 66 44 74 66 45 75 67 
44 74 66 45 75 67 42 73 65 45 75 67 44 74 66 44 74 66 44 74 66 43 74 66 43 74 66 43 74 66 43 74 66 43 74 66 44 74 66 44 75 67 43 74 66 44 75 67 44 74 66 43 73 65 44 74 66 43 74 66 44 74 66 44 75 67 44 74 66 44 75 67 44 74 66 45 75 67 44 74 66 45 75 67 44 75 67 44 75 67 45 75 67 45 75 67 44 74 66 45 75 67 43 74 66 43 74 66 44 74 66 44 74 66 44 74 66 43 74 66 42 73 65 43 74 66 43 74 66 43 73 65 45 75 67 44 74 66 44 74 66 44 74 66 43 74 66 43 74 66 43 74 66 43 74 66 44 74 66 44 75 67 44 75 67 44 75 67 44 75 67 43 74 66 43 74 66 44 74 66 44 74 66 44 74 66 45 75 67 42 73 65 43 74 66 44 74 66 43 73 65 44 75 67 44 75 67 45 75 67 44 75 67 44 74 66 44 75 67 43 74 66 44 75 67 44 74 66 45 75 67 43 73 65 44 74 66 44 74 66 43 74 66 44 75 67 44 75 67 43 74 66 44 75 67 43 74 66 44 74 66 44 74 66 45 75 67 44 74 66 45 75 67 44 75 67 44 75 67 44 75 67 44 75 67 43 74 66 43 74 66 44 75 67 43 74 66 44 75 67 
43 74 66 44 74 66 45 75 67 44 75 67 44 74 66 43 74 66 44 74 66 44 74 66 44 74 66 44 74 66 44 75 67 44 74 66 44 75 67 43 74 66 44 75 67 44 75 67 44 75 67 43 74 66 43 74 66 44 75 67 44 74 66 44 75 67 44 74 66 44 75 67 45 75 67 43 74 66 44 74 66 43 74 66 44 75 67 44 74 66 44 74 66 44 75 67 43 74 66 44 74 66 45 75 67 43 74 66 44 75 67 44 75 67 45 75 67 43 74 66 44 74 66 44 75 67 44 75 67 44 75 67 44 74 66 45 75 67 44 74 66 45 75 67 44 74 66 44 74 66 44 74 66 45 75 67 44 74 66 44 74 66 43 74 66 44 74 66 44 74 66 44 74 66 44 75 67 46 73 66 44 75 67 44 75 67 45 75 67 43 74 66 43 74 66 44 74 66 43 73 65 43 73 65 44 75 67 44 74 66 44 74 66 44 75 67 44 74 66 43 74 66 44 75 67 44 74 66 44 74 66 44 75 67 44 75 67 45 75 67 43 74 66 44 74 66 44 74 66 43 74 66 45 75 67 44 74 66 43 73 65 44 74 66 44 75 67 44 75 67 44 74 66 43 74 66 44 74 66 44 75 67 45 75 67 44 75 67 44 75 67 44 74 66 44 74 64 44 74 64 
44 75 67 44 75 67 44 75 67 44 74 66 43 74 66 44 74 66 43 74 66 44 74 66 44 74 66 43 74 66 44 74 66 44 75 67 44 74 66 45 75 67 44 74 66 44 74 66 44 74 66 45 75 67 44 74 66 45 75 67 43 74 66 45 75 67 44 75 67 45 75 67 44 75 67 45 75 67 44 75 67 45 75 67 44 75 67 44 74 66 45 75 67 43 74 66 44 74 66 44 74 66 44 74 66 44 75 67 43 74 66 43 74 66 44 75 67 44 75 67 44 75 67 43 74 66 44 75 67 45 76 68 44 75 67 44 74 66 44 74 66 45 75 67 44 74 66 44 75 67 44 74 66 45 75 67 44 74 66 44 75 67 44 74 66 44 74 66 43 74 66 43 74 66 43 73 65 44 74 66 44 74 66 45 75 67 43 74 66 44 74 66 44 74 66 44 75 67 44 75 67 44 75 67 45 75 67 44 74 66 44 75 67 43 74 66 44 74 66 45 75 67 43 74 66 44 75 67 44 75 67 43 74 66 44 74 66 44 74 66 43 74 66 43 74 66 44 74 66 44 74 66 44 74 66 43 74 66 44 74 66 43 74 66 43 74 66 44 74 66 44 75 67 43 74 66 44 74 66 44 74 66 44 74 66 43 74 66 44 75 67 44 75 67 44 74 64 37 63 54 
45 75 67 45 75 67 45 75 67 43 74 66 44 74 66 44 74 66 45 75 67 44 74 66 45 75 67 45 75 67 44 74 66 44 74 66 44 75 67 44 74 66 44 75 67 43 74 66 44 74 66 44 74 66 44 75 67 44 74 66 44 75 67 44 74 66 43 74 66 45 75 67 44 75 67 45 75 67 44 75 67 45 75 67 44 74 66 45 75 67 44 74 66 44 74 66 43 74 66 45 75 67 44 74 66 44 75 67 44 74 66 44 74 66 44 75 67 44 74 66 44 75 67 44 74 66 43 74 66 44 74 66 45 75 67 44 74 66 43 74 66 44 74 66 44 74 66 45 75 67 45 75 67 43 74 66 45 75 67 43 74 66 44 75 67 44 75 67 44 74 66 43 74 66 44 74 66 42 73 65 45 75 67 43 74 66 44 74 66 42 73 65 44 75 67 44 74 66 43 74 66 44 74 66 44 74 66 44 74 66 44 75 67 43 74 66 44 74 66 44 74 66 43 74 66 43 74 66 43 73 65 44 74 66 44 74 66 46 76 68 43 74 66 44 75 67 43 74 66 43 74 66 43 73 65 44 74 66 44 75 67 43 74 66 44 74 66 45 75 67 44 74 66 44 75 67 44 75 67 46 76 68 44 74 66 43 74 66 44 74 66 44 74 66 44 74 64 20 35 30 
43 74 66 44 74 66 44 75 67 44 74 66 45 75 67 44 75 67 44 74 66 44 75 67 44 75 67 45 75 67 44 75 67 45 75 67 44 74 66 44 74 66 44 74 66 44 74 66 44 74 66 44 74 66 44 74 66 44 74 66 44 74 66 43 74 66 44 74 66 44 75 67 44 74 66 43 74 66 44 74 66 43 74 66 43 74 66 43 74 66 43 74 66 44 75 67 43 74 66 45 75 67 44 74 66 45 75 67 44 74 66 44 74 66 44 74 66 43 73 65 44 74 66 44 74 66 44 74 66 44 74 66 44 74 66 44 74 66 46 76 68 44 74 66 44 74 66 44 74 66 44 74 66 44 74 66 43 74 66 43 74 66 44 74 66 44 75 67 44 74 66 43 74 66 43 76 67 44 74 66 43 74 66 44 75 67 43 74 66 44 75 67 44 74 66 44 74 66 44 74 66 44 74 66 44 75 67 43 73 65 44 74 66 44 74 66 43 74 66 44 75 67 43 74 66 45 75 67 43 74 66 44 74 66 44 75 67 43 74 66 44 74 66 44 74 66 43 74 66 44 74 66 43 74 66 44 75 67 43 74 66 43 74 66 44 74 66 46 73 66 45 75 67 44 74 66 44 75 67 44 74 66 44 74 66 43 74 66 44 74 66 44 74 66 43 73 63 12 18 16 
44 75 67 45 75 67 43 74 66 44 74 66 44 74 66 44 74 66 44 74 66 44 74 66 44 74 66 43 73 65 44 74 66 44 74 66 44 74 66 44 74 66 44 74 66 44 74 66 44 74 66 44 74 66 45 75 67 44 74 66 45 75 67 43 74 66 44 74 66 43 74 66 44 74 66 43 74 66 44 74 66 43 74 66 44 74 66 44 74 66 44 74 66 44 75 67 43 74 66 43 74 66 44 75 67 43 74 66 44 74 66 44 74 66 44 74 66 43 73 65 44 74 66 44 74 66 44 74 66 45 75 67 45 75 67 45 75 67 44 74 66 44 74 66 45 75 67 44 74 66 45 75 67 44 74 66 42 73 65 44 74 66 43 74 66 44 74 66 44 74 66 43 74 66 44 75 67 44 74 66 45 75 67 43 73 65 44 74 66 44 74 66 43 74 66 43 74 66 43 74 66 44 75 67 43 74 66 44 75 67 44 74 66 44 74 66 43 74 66 43 74 66 45 75 67 44 74 66 43 74 66 44 74 66 43 74 66 44 75 67 44 74 66 44 74 66 43 74 66 44 74 66 43 74 66 44 75 67 45 75 67 43 74 66 43 74 66 44 74 66 44 74 66 43 73 65 43 74 66 44 75 67 45 75 67 45 75 67 43 74 66 44 75 67 37 58 51 3 3 3 
45 75 67 44 74 66 44 74 66 43 74 66 43 74 66 44 74 66 44 75 67 45 75 67 44 74 66 44 75 67 44 74 66 43 74 66 44 74 66 43 74 66 44 74 66 44 74 66 43 74 66 43 74 66 44 74 66 43 74 66 43 74 66 44 74 66 44 75 67 44 74 66 44 75 67 44 74 66 44 75 67 44 74 66 44 75 67 43 74 66 44 74 66 44 74 66 44 75 67 45 75 67 46 73 66 44 75 67 44 74 66 43 74 66 44 74 66 43 74 66 44 74 66 43 74 66 44 74 66 45 75 67 44 74 66 44 74 66 43 74 66 43 73 65 44 74 66 44 74 66 44 74 66 44 75 67 45 75 67 43 74 66 44 75 67 44 74 66 44 75 67 44 74 66 44 75 67 44 75 67 45 75 67 43 74 66 44 74 66 43 74 66 43 74 66 45 75 67 44 75 67 44 74 66 44 74 66 44 75 67 42 73 65 44 74 66 44 75 67 43 73 65 44 74 66 43 74 66 44 74 66 44 74 66 44 74 66 44 74 66 43 74 66 43 74 66 43 74 66 44 75 67 44 75 67 45 75 67 45 75 67 44 74 66 43 74 66 43 74 66 44 74 66 44 74 66 44 74 66 43 73 65 44 74 66 44 75 67 44 74 66 43 74 66 24 39 34 1 1 1 
44 75 67 42 73 65 43 74 66 45 75 67 45 75 67 44 74 66 44 74 66 44 74 66 44 74 66 44 74 66 44 74 66 44 74 66 44 74 66 44 74 66 44 74 66 45 75 67 44 74 66 44 74 66 44 74 66 45 75 67 43 74 66 44 74 66 43 74 66 44 74 66 44 75 67 44 74 66 44 75 67 44 74 66 43 74 66 47 74 67 44 74 66 43 74 66 44 74 66 45 75 67 43 74 66 44 75 67 43 74 66 43 74 66 43 74 66 43 74 66 43 74 66 43 74 66 43 74 66 43 74 66 42 73 65 44 74 66 44 74 66 44 74 66 44 74 66 43 74 66 44 74 66 43 73 65 44 75 67 42 73 65 44 74 66 45 75 67 43 74 66 43 74 66 44 75 67 44 74 66 43 74 66 42 73 65 43 74 66 44 74 66 44 74 66 43 74 66 44 74 66 44 74 66 44 74 66 44 75 67 43 74 66 44 74 66 43 74 66 44 74 66 45 75 67 44 75 67 43 74 66 44 75 67 44 74 66 44 74 66 44 75 67 44 75 67 44 74 66 44 74 66 44 74 66 43 74 66 44 74 66 44 75 67 43 74 66 44 74 66 43 74 66 43 74 66 44 74 66 43 74 66 44 74 66 43 74 66 43 74 66 37 62 56 4 8 7 1 1 1 
44 75 67 44 74 66 44 74 66 43 74 66 44 74 66 44 75 67 44 74 66 44 74 66 44 74 66 44 74 66 43 74 66 44 74 66 43 74 66 43 74 66 44 75 67 43 74 66 43 74 66 43 74 66 43 74 66 44 75 67 43 73 65 44 75 67 44 74 66 43 74 66 44 74 66 43 74 66 44 74 66 42 73 65 43 74 66 45 75 67 45 75 67 44 75 67 44 75 67 44 74 66 44 74 66 43 74 66 43 74 66 43 74 66 44 75 67 44 74 66 44 75 67 44 74 66 44 75 67 44 75 67 45 75 67 44 74 66 44 74 66 44 74 66 44 74 66 44 74 66 44 74 66 45 75 67 44 74 66 44 75 67 43 74 66 43 74 66 45 75 67 44 75 67 44 75 67 44 74 66 44 74 66 44 74 66 44 74 66 43 74 66 43 74 66 44 74 66 44 75 67 43 74 66 45 75 67 43 74 66 44 74 66 44 74 66 43 74 66 43 74 66 44 74 66 43 74 66 44 74 66 44 75 67 43 74 66 44 74 66 43 74 66 44 74 66 44 74 66 45 76 68 44 74 66 44 74 66 43 74 66 43 74 66 44 74 66 44 74 66 44 75 67 44 75 67 44 74 66 43 74 66 44 74 66 43 74 66 44 75 67 27 46 42 1 1 1 14 14 14 
44 74 66 44 73 68 44 75 67 44 74 66 44 74 66 44 74 66 44 74 66 44 74 66 44 74 66 44 74 66 45 75 67 44 74 66 43 74 66 44 75 67 42 73 65 44 75 67 43 74 66 43 74 66 43 74 66 44 75 67 43 74 66 45 75 67 44 74 66 44 74 66 43 74 66 44 75 67 44 74 66 45 75 67 44 74 66 43 74 66 45 75 67 43 74 66 43 74 66 43 73 65 43 74 66 44 75 67 44 74 66 42 72 64 44 74 66 44 74 66 44 74 66 44 74 66 44 74 66 44 74 66 44 75 67 44 74 66 43 74 66 44 74 66 44 74 66 44 74 66 44 74 66 44 74 66 43 74 66 44 75 67 43 74 66 44 75 67 43 74 66 43 74 66 44 74 66 42 73 65 44 74 66 43 73 65 44 74 66 44 74 66 44 74 66 45 75 67 44 74 66 45 75 67 44 74 66 44 74 66 44 74 66 44 74 66 44 74 66 44 74 66 44 74 66 44 74 66 44 74 64 43 73 63 44 74 64 44 74 64 44 74 64 44 74 64 45 75 65 44 74 64 44 74 66 43 74 66 43 74 66 43 74 66 43 74 66 44 75 67 43 74 66 44 74 66 44 74 66 43 75 64 44 76 65 43 74 66 41 71 61 6 12 10 0 0 0 37 35 40 
43 74 66 44 76 65 44 75 67 44 75 67 44 74 66 43 74 66 43 74 66 45 75 67 45 75 67 43 74 66 43 74 66 44 74 66 43 73 65 44 74 66 44 74 66 44 74 66 43 73 65 44 74 66 44 74 66 45 75 67 43 74 66 45 75 67 44 74 66 45 75 67 44 74 66 44 75 67 44 75 67 44 74 66 43 74 66 44 75 67 44 74 66 42 73 65 43 74 66 44 74 66 45 75 67 44 74 66 44 74 66 44 74 66 44 74 66 44 74 66 44 74 66 44 74 66 45 75 67 45 75 67 44 74 66 44 74 66 44 74 66 43 74 66 44 74 66 43 74 66 44 74 66 44 75 67 44 75 67 44 75 67 45 75 67 44 75 67 44 74 66 42 73 65 43 74 66 43 74 66 43 74 66 43 74 66 44 75 67 43 74 66 43 74 66 43 74 66 43 74 66 43 74 66 43 73 65 44 74 66 45 75 67 44 74 66 44 74 66 45 75 67 44 74 66 43 73 65 44 74 64 44 74 64 44 74 64 44 74 64 44 74 64 44 74 64 44 74 64 44 74 64 44 74 66 44 75 67 44 75 67 45 75 67 44 74 66 42 73 65 43 74 66 44 74 66 43 74 66 44 74 66 44 74 64 44 75 67 41 68 59 4 6 5 5 5 5 47 45 50 
44 74 66 46 73 66 44 73 68 43 74 66 44 74 66 45 75 67 44 74 66 44 74 66 44 74 66 44 74 66 44 74 66 44 74 66 44 74 66 44 74 66 44 74 66 44 74 66 44 74 66 45 75 67 45 75 67 44 74 66 44 74 66 43 74 66 44 74 66 44 74 66 43 74 66 43 74 66 44 74 66 44 74 66 44 74 66 43 74 66 44 74 66 43 74 66 43 74 66 44 74 66 43 74 66 43 73 65 44 74 66 45 75 67 44 74 66 44 74 66 44 74 66 44 74 66 44 74 66 45 75 67 43 73 65 43 73 65 44 74 66 44 74 66 43 74 66 44 74 66 43 74 66 43 74 66 44 74 66 44 74 66 43 74 66 43 74 66 44 74 66 43 74 66 44 75 67 44 74 66 44 74 66 44 74 66 44 74 66 44 74 66 44 74 66 44 74 66 44 74 66 44 74 66 44 74 66 45 75 67 44 74 66 45 75 67 45 75 67 44 74 66 45 75 67 44 74 66 44 74 66 44 74 66 44 74 66 44 74 66 44 74 66 44 74 66 44 74 66 44 74 66 44 74 66 43 74 66 43 74 66 44 74 66 44 74 66 43 74 66 44 75 67 44 74 66 43 74 66 45 75 67 43 74 66 44 74 66 34 57 49 2 0 1 15 13 16 53 48 55 
45 75 67 43 74 66 45 75 67 43 75 64 43 74 66 45 75 67 44 74 66 43 74 66 43 74 66 44 74 66 44 74 66 43 74 66 43 73 65 44 74 66 44 74 66 45 75 67 44 74 66 44 74 66 45 75 67 44 74 66 44 74 66 45 75 67 44 74 66 44 74 66 44 74 66 44 74 66 45 75 67 44 74 66 44 74 66 44 74 66 44 74 66 43 74 66 43 74 66 44 74 66 43 74 66 44 75 67 44 74 66 45 75 67 44 74 66 44 74 66 44 74 66 44 74 66 44 74 66 44 74 66 45 76 68 45 75 67 43 74 66 44 74 66 43 74 66 44 74 66 44 74 66 44 74 66 44 75 67 44 75 67 44 74 66 44 74 66 44 74 66 43 74 66 44 74 66 44 75 67 43 74 66 44 75 67 44 75 67 43 74 66 43 74 66 42 73 65 43 74 66 43 74 66 44 74 66 44 74 66 44 74 66 44 74 66 44 74 66 44 74 66 44 74 66 44 74 66 44 74 66 44 74 66 44 74 66 44 74 66 44 74 66 44 74 66 44 74 66 44 74 66 45 76 68 43 74 66 43 73 65 44 74 66 45 75 67 44 74 66 42 73 65 43 74 66 44 74 64 44 74 64 44 74 66 44 74 66 19 31 27 1 1 1 30 28 33 51 48 55 
44 75 67 44 75 67 45 75 67 44 74 66 44 74 66 43 74 66 43 74 66 44 74 66 44 74 66 43 74 66 43 74 66 44 74 66 44 74 66 44 74 66 44 74 66 45 75 67 44 74 66 44 74 66 44 74 66 44 74 66 44 74 66 44 74 66 44 74 66 43 73 65 44 74 66 44 74 66 44 74 66 44 74 66 43 74 66 43 74 66 45 75 67 44 75 67 44 75 67 44 74 66 45 75 67 44 74 66 44 74 66 44 74 66 44 74 66 44 74 66 44 74 66 45 75 67 44 74 66 44 74 66 42 73 65 43 74 66 44 74 66 43 74 66 44 74 66 44 74 66 44 74 66 44 74 66 44 74 66 42 73 65 43 73 65 43 74 66 43 74 66 44 75 67 44 74 66 44 74 66 43 74 66 43 74 66 44 75 67 43 74 66 43 74 66 42 73 65 43 74 66 43 74 66 44 74 66 44 74 66 44 74 66 44 74 66 44 74 66 44 74 66 44 74 66 44 74 66 44 74 66 44 74 66 44 74 66 44 74 66 44 74 66 44 74 66 44 74 66 44 74 66 44 75 67 44 75 67 45 75 67 45 75 67 44 74 66 44 74 66 43 74 66 43 74 66 43 74 66 43 75 64 44 74 66 38 64 55 5 7 6 3 3 3 39 37 42 48 45 52 
44 74 66 44 74 66 44 74 66 44 74 66 44 74 66 44 74 66 44 74 66 44 74 66 44 74 66 44 74 66 44 74 66 44 74 66 44 75 67 43 74 66 42 73 65 44 75 67 44 75 67 43 74 66 43 74 66 43 74 66 45 75 67 42 73 65 45 75 67 44 74 66 44 74 66 44 74 66 44 74 66 43 74 66 44 74 66 44 75 67 44 74 66 43 74 66 43 74 66 45 75 67 43 74 66 43 73 65 44 74 66 44 74 66 44 74 66 44 74 66 44 74 66 45 75 67 44 74 66 44 74 66 44 74 66 44 74 66 44 74 66 44 74 66 44 74 66 43 74 66 44 74 66 43 74 66 43 74 66 44 74 66 44 74 66 43 74 66 44 74 66 44 74 66 44 75 67 43 74 66 44 74 66 43 73 65 44 74 66 44 74 66 44 74 66 44 74 66 44 74 66 45 75 67 44 74 66 44 74 66 44 74 66 44 74 66 44 74 66 44 74 66 44 74 66 44 74 66 44 74 66 43 73 65 44 74 66 44 74 66 44 74 66 44 74 66 45 75 67 44 74 66 43 74 66 45 75 67 44 74 66 43 74 66 43 74 66 44 74 66 44 74 66 44 75 67 43 74 66 44 74 66 43 74 66 27 46 42 0 0 0 17 15 18 26 24 27 13 11 14 
44 74 66 44 74 66 42 73 65 43 75 64 42 73 65 44 74 66 44 74 66 43 74 66 43 74 66 44 74 66 44 74 66 42 73 65 44 74 66 44 74 66 43 73 65 44 74 66 44 74 66 43 73 65 44 74 66 44 74 66 44 74 66 43 73 65 43 74 66 44 75 67 43 73 65 44 74 66 44 75 67 43 73 65 44 74 66 44 74 66 44 74 66 44 75 67 43 74 66 45 75 67 43 74 66 43 74 66 44 74 66 43 73 65 44 74 66 44 74 66 44 74 66 44 74 66 44 74 66 44 74 66 43 73 65 44 74 66 44 74 66 44 74 66 43 74 66 44 74 66 43 74 66 43 73 65 44 74 66 44 74 66 44 74 66 42 73 65 45 75 67 44 75 67 43 73 65 44 74 66 43 74 66 43 74 66 44 75 67 43 74 66 43 74 66 43 74 66 43 74 66 43 74 66 44 74 66 44 74 66 44 74 66 44 74 66 44 74 66 44 74 66 44 74 66 44 74 66 44 74 66 44 74 66 44 74 66 44 74 66 44 74 66 44 74 66 44 74 66 44 74 66 43 74 66 44 74 66 44 74 66 43 74 66 43 74 66 44 74 66 44 74 66 41 72 64 43 74 66 43 74 66 43 74 66 21 36 31 0 2 1 26 26 28 8 8 8 15 15 17 
44 74 64 42 75 66 45 75 67 44 74 66 44 74 66 44 74 66 43 73 65 44 74 66 44 74 66 43 73 65 44 74 66 44 74 66 44 74 66 43 73 65 43 73 65 43 73 65 44 74 66 44 74 66 44 74 66 44 74 66 44 74 66 43 74 66 43 74 66 44 74 66 44 74 66 44 74 66 44 74 66 44 75 67 42 73 65 43 74 66 44 74 66 43 74 66 42 73 65 43 73 65 43 74 66 44 74 66 43 73 65 43 73 65 43 73 65 43 73 65 44 74 66 43 73 65 44 74 66 44 74 66 43 74 66 43 74 66 44 74 66 43 74 66 44 74 66 44 74 66 44 74 66 44 74 66 44 74 66 43 74 66 44 74 66 44 74 66 44 74 66 45 75 67 44 74 66 43 73 65 44 74 66 44 74 66 44 74 66 44 74 66 44 74 66 45 75 67 44 74 66 44 74 66 44 74 66 44 74 66 43 73 65 44 74 66 44 74 66 43 73 65 44 74 66 44 74 66 44 74 66 44 74 66 44 74 66 44 74 66 44 74 66 44 74 66 44 74 66 44 74 66 44 74 66 43 73 65 44 74 66 43 74 66 43 74 66 44 74 66 44 74 66 44 74 66 44 74 62 43 73 65 43 73 65 12 21 18 4 4 4 36 34 39 2 2 2 31 29 34 
44 75 67 42 73 65 44 74 66 44 74 64 44 74 66 43 73 65 44 74 66 41 72 64 44 74 66 44 74 66 42 73 65 44 74 66 44 74 66 44 74 66 44 74 66 44 74 66 44 74 66 42 72 64 43 73 65 44 74 64 43 73 65 44 74 66 44 74 66 44 74 66 43 74 66 43 74 66 44 74 66 44 74 66 42 73 65 43 73 65 43 73 65 44 74 66 44 74 66 44 74 66 44 74 66 43 73 65 44 74 66 44 74 66 44 74 66 44 74 66 45 75 67 44 74 66 44 74 66 43 73 65 43 73 65 43 73 65 43 73 65 44 74 66 45 75 67 44 74 66 44 74 66 44 74 66 44 74 66 44 74 66 43 73 65 44 74 66 45 75 67 44 74 66 44 74 66 44 74 66 44 74 66 44 74 66 43 73 65 44 74 66 44 74 66 44 74 66 44 74 66 44 74 66 43 73 65 44 74 66 43 74 66 43 74 66 43 73 65 44 74 66 43 73 65 43 74 66 44 74 66 44 74 66 44 74 66 43 73 65 44 75 67 44 74 66 44 74 66 42 73 65 44 74 66 44 74 66 45 75 67 44 75 67 44 74 66 44 75 67 44 74 66 44 74 66 44 74 64 44 74 66 39 66 59 3 3 3 9 7 8 41 41 43 4 4 4 43 41 46 
43 74 66 44 74 64 45 75 67 44 74 66 43 73 65 43 74 66 44 74 66 43 73 65 43 74 66 44 74 66 43 73 65 44 74 66 44 74 66 43 73 65 44 74 66 42 72 64 44 74 66 44 74 66 44 74 66 44 74 64 43 74 66 44 74 66 44 74 66 44 74 66 44 74 66 44 74 66 44 74 66 43 74 66 44 74 66 44 74 64 44 74 66 43 73 65 43 73 65 43 74 66 43 74 66 42 74 63 43 73 65 45 75 67 44 74 66 43 73 65 44 74 66 43 73 65 43 73 65 43 73 65 44 74 66 45 75 67 45 75 67 44 74 66 43 73 65 44 74 66 43 73 65 43 73 65 44 74 66 44 74 64 44 74 64 44 74 64 44 74 66 43 73 65 44 74 66 44 74 64 44 74 66 44 74 66 44 74 66 43 73 65 43 73 65 43 73 65 44 74 66 44 74 66 43 73 65 43 73 65 43 74 66 43 73 65 43 74 66 43 73 65 43 73 65 43 74 66 43 73 65 43 74 66 43 74 66 43 74 66 44 74 66 43 73 65 44 74 66 42 73 65 43 73 63 44 74 66 42 73 65 44 74 66 44 74 64 44 74 64 44 74 64 44 74 66 43 74 66 42 73 65 35 58 50 1 1 1 21 21 23 54 49 56 46 41 48 52 46 56 
42 73 65 45 75 67 45 75 67 44 74 66 44 74 66 43 74 66 44 74 66 43 73 65 43 74 66 44 74 66 43 73 65 45 75 67 44 74 66 44 74 66 45 75 67 44 74 66 44 74 66 43 73 65 43 73 65 44 74 66 43 73 65 43 73 65 43 74 66 42 72 64 43 73 65 43 73 65 43 73 65 43 74 66 43 73 65 43 73 65 44 74 66 44 74 66 43 73 65 44 74 66 44 74 66 43 73 65 44 74 66 44 75 67 43 73 65 44 74 66 44 74 66 44 74 66 44 75 67 43 73 65 43 73 65 44 74 66 44 74 66 44 74 66 45 75 67 44 74 66 44 74 66 44 74 66 43 73 65 44 74 66 44 74 66 44 74 66 43 73 65 43 73 65 43 73 65 44 74 66 44 74 66 44 74 66 44 74 66 44 74 66 43 73 65 43 73 65 43 73 65 44 74 66 44 74 66 44 74 66 42 73 65 42 73 65 44 74 66 43 73 65 43 74 66 43 73 65 43 74 66 44 74 66 44 74 66 43 74 66 44 74 66 42 73 65 43 74 66 43 73 65 43 74 66 44 74 66 43 73 65 44 74 66 42 73 65 43 73 65 43 74 66 43 73 65 44 74 66 43 74 66 17 29 27 1 1 1 28 27 32 54 49 56 51 48 55 48 47 53 
43 74 66 43 74 66 44 74 64 44 74 66 44 74 66 44 74 66 44 74 66 43 74 66 44 74 66 44 74 66 42 73 65 44 74 66 44 74 66 43 73 65 44 74 66 43 73 65 44 74 66 44 74 66 43 73 65 44 74 66 43 73 65 44 74 66 42 73 65 42 73 65 44 74 66 44 74 66 44 74 66 45 75 67 43 74 66 43 74 66 44 74 66 44 74 66 45 75 65 44 74 66 44 74 66 44 74 66 43 73 65 44 74 66 43 74 66 44 74 66 44 74 66 42 73 65 44 74 66 44 74 66 43 73 65 44 74 64 43 73 65 44 74 66 44 74 66 42 72 64 44 74 64 44 74 66 43 73 65 44 74 66 44 74 66 44 74 66 44 74 66 44 74 66 44 74 66 44 74 66 44 74 66 44 74 66 44 74 66 43 73 65 44 74 66 44 74 66 44 74 66 44 74 66 44 74 66 42 73 65 44 74 66 44 74 66 42 73 65 44 74 66 44 74 66 43 74 66 44 74 66 44 74 66 43 74 66 44 74 66 43 73 65 44 74 66 43 74 66 44 74 66 44 74 66 44 74 66 43 74 66 43 73 65 44 74 66 43 73 65 43 73 65 43 74 66 43 74 66 42 73 65 7 13 9 1 0 2 45 43 48 49 46 53 51 51 53 50 47 54 
42 75 66 42 73 65 45 75 65 44 74 64 44 74 66 44 74 66 44 74 66 43 74 66 43 73 65 44 74 66 42 73 65 44 74 66 44 74 66 44 74 66 43 73 65 43 73 65 44 74 66 43 73 65 44 74 66 44 74 66 43 73 65 44 74 66 44 74 66 44 74 66 43 74 66 41 72 64 44 74 66 43 73 65 44 74 66 44 74 64 43 73 65 43 73 65 44 74 66 43 73 65 43 74 66 43 75 64 43 73 65 43 74 66 44 74 66 43 73 65 44 74 66 43 73 65 43 74 66 43 73 65 44 74 66 45 75 65 43 73 65 44 74 66 44 74 66 44 74 66 44 74 64 43 73 65 44 74 66 45 75 67 44 74 66 44 74 66 44 74 66 44 74 66 44 74 66 43 73 65 43 73 65 44 74 66 43 73 65 44 74 66 44 74 66 44 74 66 43 73 65 43 73 65 44 74 66 43 73 65 44 74 66 42 73 65 44 74 66 44 74 66 43 74 66 44 74 66 44 74 66 42 73 65 43 74 66 43 73 65 43 73 65 44 74 66 44 74 66 44 74 66 43 74 66 44 74 66 44 74 66 44 74 66 44 74 66 43 74 66 43 73 65 44 74 66 43 75 64 39 65 56 1 3 2 11 11 13 50 48 53 52 49 56 51 48 55 52 49 56 
42 73 65 41 74 65 44 74 66 43 73 63 44 74 66 43 74 66 42 72 64 44 74 66 43 74 66 44 74 66 43 73 65 43 73 65 43 73 65 45 75 67 44 74 66 43 73 65 43 73 65 44 74 66 43 73 65 44 74 66 43 74 66 43 73 65 43 73 65 45 75 67 44 74 66 42 73 65 43 73 65 44 74 66 44 74 66 43 73 65 44 74 66 44 74 66 44 74 66 44 74 66 44 74 66 44 74 66 44 74 66 43 73 65 43 74 66 44 74 66 43 73 65 42 73 65 44 74 66 44 74 66 42 72 64 43 73 65 43 73 65 42 72 64 44 74 66 43 73 65 44 74 66 43 73 65 43 73 65 44 74 66 43 73 65 44 74 66 44 74 66 44 74 66 45 75 67 44 74 66 44 74 66 43 73 65 43 73 65 44 74 66 44 74 66 43 73 65 44 74 66 44 74 66 43 73 65 44 75 67 43 73 65 43 74 66 43 73 65 43 73 65 43 73 65 43 74 66 43 73 65 42 73 65 44 74 66 44 74 66 42 73 65 44 75 67 44 74 66 44 74 66 44 74 66 42 73 65 44 74 66 44 75 67 43 73 65 44 74 66 44 74 66 42 73 65 43 73 65 33 56 48 0 0 2 11 9 12 51 46 53 53 51 56 51 48 55 48 46 51 
44 74 64 43 74 66 43 74 66 44 74 66 44 74 66 43 74 66 43 73 65 43 73 65 42 73 65 42 72 64 43 73 65 44 74 66 44 74 66 43 73 65 43 73 65 43 73 65 44 74 64 44 74 64 44 74 66 43 73 65 43 74 66 43 73 65 44 74 66 44 74 66 44 74 66 43 73 65 43 73 65 43 74 66 43 74 66 43 74 66 43 74 66 42 72 64 44 74 64 43 73 65 43 73 65 43 73 65 43 73 65 44 74 66 44 74 66 42 72 64 43 73 65 44 74 66 44 74 66 43 73 65 44 74 66 44 74 66 43 73 65 44 74 66 44 74 66 44 74 66 44 74 66 44 74 66 44 74 66 44 74 66 44 74 66 44 74 66 44 74 66 43 73 65 44 74 66 43 73 65 44 74 66 44 74 66 44 74 66 44 74 66 43 73 65 44 74 66 44 74 66 44 74 66 43 73 65 43 73 65 42 73 65 43 73 65 44 74 66 44 74 66 43 74 66 42 73 65 43 73 65 43 74 66 43 74 66 43 74 66 44 74 66 44 74 66 44 74 66 43 74 66 43 73 65 44 74 66 44 74 66 44 74 66 44 74 66 43 74 66 44 74 66 44 74 66 46 73 64 22 37 34 0 0 0 27 25 28 50 49 54 52 47 54 50 47 54 50 47 54 
44 74 66 44 75 67 44 74 64 43 75 64 44 74 66 43 73 65 43 73 65 43 74 66 43 73 65 43 73 65 42 73 65 43 73 65 44 74 66 44 74 66 44 74 66 43 73 65 43 73 63 44 74 64 43 73 65 44 74 66 44 74 66 43 73 65 43 74 66 43 74 66 42 72 64 43 73 65 43 73 65 43 73 65 44 74 66 43 73 65 43 73 65 43 73 65 44 74 66 43 73 65 44 74 66 43 74 66 44 74 66 44 74 66 44 74 66 43 73 65 42 72 64 44 74 66 44 74 66 42 72 64 43 73 65 44 74 66 44 74 66 44 74 66 44 74 66 43 73 65 43 73 65 43 73 65 43 73 63 43 73 65 43 73 65 44 74 66 43 73 63 43 73 63 43 73 63 44 74 66 44 74 66 44 74 66 44 74 66 43 73 65 43 73 65 44 74 66 44 74 66 44 74 66 44 74 66 43 73 65 43 74 66 44 74 66 44 74 66 44 74 66 45 75 67 42 73 65 43 74 66 44 74 66 43 73 65 42 73 65 44 74 66 46 73 66 44 74 66 43 73 65 43 73 65 44 74 64 42 74 63 44 74 64 42 73 65 44 74 66 43 73 65 43 73 63 44 74 66 6 11 7 1 1 1 42 40 45 49 46 53 56 51 57 55 50 57 54 52 57 
43 74 66 43 73 65 43 74 66 44 74 66 43 73 65 44 74 66 44 74 66 42 72 64 43 73 65 43 73 65 44 74 66 43 73 65 44 74 66 43 73 65 43 74 66 45 75 67 44 74 66 44 74 66 43 73 65 44 75 67 44 75 67 44 74 66 43 73 65 42 73 65 43 74 66 44 74 66 44 74 66 42 73 65 44 74 66 44 74 66 44 74 66 43 73 65 44 74 66 44 74 66 44 74 66 43 73 65 43 74 66 43 73 65 43 73 65 44 74 66 44 74 66 43 74 66 43 73 65 44 74 66 43 73 65 43 73 65 44 74 66 44 74 66 43 73 65 44 74 66 44 74 66 44 74 66 44 74 66 45 75 67 44 74 66 43 73 65 44 74 66 43 73 65 44 74 66 45 75 67 44 74 66 43 73 65 42 73 65 43 74 66 44 74 66 43 73 65 44 74 66 42 73 65 44 74 66 43 73 65 43 73 65 43 73 65 43 73 65 44 74 66 44 74 66 43 73 65 43 74 66 42 73 65 44 74 66 44 74 66 44 74 66 44 74 66 43 74 66 42 73 65 44 74 66 44 74 66 43 73 65 43 73 65 44 74 66 45 75 67 43 74 66 42 73 65 45 72 65 7 13 13 1 1 1 48 43 50 56 51 55 50 47 54 55 50 56 51 48 55 
44 74 66 42 73 65 44 74 66 42 73 65 45 75 67 43 73 65 43 73 65 44 74 66 43 73 65 44 74 66 43 73 65 44 74 66 43 74 66 44 74 66 43 73 65 43 73 65 44 74 66 42 73 65 44 74 66 44 74 66 44 74 66 43 73 65 44 74 66 44 74 66 43 73 65 44 74 66 43 73 65 44 74 66 43 73 65 44 74 66 43 73 65 44 74 66 44 74 66 43 73 65 44 74 66 44 74 66 43 73 65 43 73 65 43 74 66 44 74 66 43 73 65 44 74 66 44 74 66 43 74 66 43 73 65 43 73 65 43 73 65 43 73 65 44 74 66 44 74 66 43 73 65 43 73 65 43 73 65 44 74 66 44 74 66 43 73 65 44 74 66 44 74 66 44 74 66 43 73 65 44 74 66 43 73 65 43 74 66 43 73 65 43 73 65 43 73 65 44 74 66 42 73 65 44 74 66 43 73 65 43 73 65 44 74 66 44 74 66 44 74 66 44 74 66 43 73 65 42 73 65 44 74 66 44 74 66 43 73 65 43 73 65 43 73 65 44 74 66 43 74 66 44 74 66 43 73 65 44 74 66 44 74 66 44 74 66 43 74 66 43 74 66 42 72 64 38 64 55 2 2 2 8 8 10 50 47 54 52 49 56 49 46 55 51 46 53 53 50 57 
43 74 66 42 73 65 43 74 66 43 73 65 44 74 66 43 73 65 44 74 66 44 74 66 43 73 65 43 73 65 44 74 66 43 73 65 43 74 66 44 74 66 45 75 67 43 73 65 44 74 66 43 74 66 45 75 67 44 74 66 43 73 65 43 73 65 43 73 65 43 73 65 43 73 65 44 74 66 44 74 66 44 74 66 44 74 66 43 73 65 43 73 65 44 74 66 44 74 66 44 74 66 43 73 65 44 74 66 44 74 66 43 73 65 43 74 66 44 74 66 44 74 66 43 73 65 44 74 66 43 74 66 44 74 66 44 74 66 44 74 66 44 74 66 44 74 66 43 73 65 43 73 65 44 74 66 44 74 66 44 74 66 44 74 66 44 74 66 44 74 66 44 74 66 44 74 66 43 73 65 43 73 65 44 74 66 43 74 66 43 73 65 44 74 66 44 74 66 44 74 66 43 73 65 44 74 66 44 74 66 44 74 66 43 73 65 44 74 66 43 73 65 43 73 65 43 73 65 42 72 64 43 73 65 44 74 66 43 73 65 43 73 65 43 73 65 44 74 66 44 74 66 42 73 65 44 74 66 44 74 66 43 74 66 43 74 66 43 73 65 44 74 66 44 74 66 34 61 54 0 2 1 10 10 10 50 47 54 50 47 54 54 52 57 42 40 43 37 35 38 
44 74 66 44 74 64 44 74 66 44 74 66 44 74 66 43 73 65 44 74 66 44 74 66 44 74 66 43 73 65 43 73 65 44 74 66 42 72 64 42 72 64 43 74 66 43 73 65 42 72 64 44 74 66 44 74 66 42 73 65 42 72 64 44 75 67 43 74 66 44 74 66 44 74 66 43 74 66 42 73 65 44 74 66 44 74 66 44 74 66 44 74 66 44 74 66 44 74 66 44 74 66 44 74 66 44 74 66 42 73 65 44 74 66 43 73 65 43 73 65 44 74 66 42 73 65 44 74 66 44 74 66 44 74 66 43 73 65 42 72 64 44 74 66 44 74 66 44 74 66 44 74 66 43 73 65 43 73 65 43 73 65 44 74 66 44 74 66 44 74 66 44 74 66 43 73 65 43 73 65 43 73 65 44 74 66 43 73 65 43 73 65 44 74 66 43 73 65 43 73 65 44 74 66 43 73 65 44 74 66 44 74 66 43 73 65 44 74 66 44 74 66 44 74 66 44 74 66 43 73 65 43 73 65 44 74 66 42 73 65 43 74 66 43 73 65 43 73 65 44 74 66 44 74 66 42 73 65 43 74 66 43 73 65 44 74 66 44 74 66 43 73 65 43 73 65 27 46 40 0 0 0 15 15 17 51 48 55 48 45 52 24 23 28 5 5 5 4 4 4 
44 73 68 43 75 64 42 73 65 43 73 63 44 74 66 45 75 67 43 73 65 43 73 65 44 74 66 44 74 66 44 74 66 43 73 65 44 74 66 43 73 65 42 73 65 43 73 65 44 74 66 43 73 65 44 74 66 43 74 66 43 73 65 41 72 64 43 74 66 43 73 65 44 74 66 42 73 65 43 74 66 44 74 66 43 73 65 44 74 66 45 75 67 44 74 66 44 74 66 44 74 66 43 73 65 44 74 66 43 74 66 43 73 65 43 73 65 43 73 65 43 73 65 43 74 66 44 74 66 43 73 65 44 74 66 44 74 66 43 73 65 43 73 65 43 73 65 44 74 66 44 74 66 43 73 65 44 74 66 44 74 66 44 74 66 43 73 65 44 74 66 44 74 66 43 73 65 45 75 67 43 73 65 43 73 65 43 73 65 43 73 65 44 74 66 44 74 66 43 73 65 44 74 66 43 73 65 43 73 65 43 73 65 43 73 65 43 73 65 44 74 66 44 74 66 43 73 65 43 73 65 43 73 65 43 73 65 43 74 66 43 74 66 43 73 65 45 75 67 44 74 66 43 74 66 44 74 66 44 74 66 42 73 65 43 74 66 43 73 65 44 74 66 44 74 66 20 35 30 1 1 1 21 21 23 56 54 59 38 37 43 4 4 4 1 1 1 0 0 0 
44 74 66 43 73 65 44 76 65 44 74 64 43 73 65 43 73 65 44 74 66 43 73 65 43 73 65 44 74 66 43 73 65 45 75 67 43 74 66 43 73 65 44 74 66 43 73 65 44 74 66 41 72 64 44 74 66 43 73 65 43 73 65 43 73 65 43 73 65 43 73 65 44 74 66 44 74 66 43 73 65 43 73 65 44 74 66 44 74 66 42 72 64 43 73 65 43 73 65 44 74 66 44 74 66 44 74 66 43 73 65 44 74 66 43 74 66 44 74 66 44 74 66 43 73 65 43 73 65 42 73 65 44 74 66 43 73 65 43 73 65 43 73 65 43 73 65 44 74 66 45 75 67 43 73 65 43 73 65 43 73 65 43 73 65 43 73 65 44 74 66 43 73 65 43 73 65 44 74 66 44 74 66 44 74 66 44 74 66 44 74 66 44 74 66 43 74 66 43 73 65 44 74 66 44 74 66 44 74 66 44 74 66 43 73 65 44 74 66 43 73 65 43 73 65 43 73 65 43 73 65 44 74 66 44 74 66 43 74 66 43 74 66 43 73 65 44 74 66 44 74 66 43 73 65 41 72 64 43 74 66 44 74 66 44 74 66 44 74 66 44 74 66 43 73 65 9 18 17 2 0 1 27 27 29 50 47 54 50 45 52 24 22 25 8 8 8 9 9 9 
