P3
100 50
255
28 47 41 28 47 41 28 47 41 28 47 41 28 47 41 29 48 42 28 49 42 29 48 42 28 47 41 29 48 42 28 47 41 28 47 41 28 47 41 28 47 43 28 47 41 28 47 41 28 47 43 28 47 43 28 47 41 27 46 42 27 46 40 29 48 42 27 46 40 29 48 42 28 47 41 28 47 41 28 47 41 28 47 43 28 47 41 28 47 41 27 46 40 28 47 41 28 47 43 28 47 43 28 47 43 29 48 44 28 47 41 29 48 44 28 47 41 28 47 43 29 48 44 28 49 42 28 47 43 27 48 41 28 47 43 28 47 43 28 47 43 28 47 43 29 48 44 28 47 43 27 46 42 29 48 44 28 47 41 28 47 43 28 47 43 28 47 41 28 47 41 28 47 43 28 47 43 28 47 41 29 48 42 29 48 42 28 47 41 28 47 41 29 48 42 30 49 43 29 48 42 27 46 40 28 47 41 28 47 43 28 47 41 29 48 42 28 47 43 28 47 43 28 47 41 29 48 44 29 48 44 28 47 43 28 47 43 28 47 43 28 47 43 28 47 43 29 48 44 28 47 43 28 47 43 28 47 43 29 48 44 28 47 43 28 47 43 28 47 43 29 48 44 29 48 44 28 47 43 28 47 43 28 47 43 28 47 43 28 47 43 29 48 44 28 47 43 27 48 43 
29 48 44 28 47 43 29 48 44 28 47 43 28 47 41 28 47 41 27 46 40 27 46 40 29 48 42 27 46 40 28 47 41 28 47 41 28 47 41 29 48 42 28 47 41 28 47 43 28 47 41 28 47 43 28 47 43 28 47 43 28 47 41 28 47 41 28 47 41 28 47 41 27 46 40 28 47 41 29 48 42 26 45 41 29 48 42 28 47 41 28 47 41 28 47 41 28 47 43 28 47 43 28 47 43 28 47 43 28 47 41 28 47 43 28 47 41 28 47 43 28 47 43 27 46 40 27 48 43 28 47 41 28 47 43 27 46 42 29 48 44 28 47 43 28 47 43 29 48 44 29 48 44 28 47 43 28 47 41 28 47 43 27 46 42 28 47 41 28 47 41 28 47 43 28 47 43 28 47 41 28 47 41 28 47 41 28 47 41 29 48 42 28 47 41 29 48 42 28 47 41 28 47 41 28 47 41 28 47 43 29 48 42 28 47 41 28 47 43 28 47 43 29 48 42 28 47 43 28 47 43 28 47 43 28 47 43 28 47 43 29 48 44 28 47 43 29 48 44 28 47 43 27 46 42 28 47 43 28 47 43 29 48 44 28 47 43 28 47 43 28 47 43 28 47 43 27 46 42 28 47 43 28 47 43 28 47 43 29 48 44 28 47 43 28 47 43 27 48 43 
28 47 41 29 48 42 27 46 40 28 47 41 28 47 41 28 47 41 28 47 41 28 47 41 28 47 43 29 48 42 28 47 43 28 47 41 28 47 41 28 47 41 28 47 41 27 48 41 29 48 42 28 47 41 27 50 42 29 48 42 27 46 40 27 46 42 27 46 40 29 48 42 28 47 43 28 47 41 28 47 41 27 46 40 28 47 41 29 48 42 28 47 41 29 48 42 28 47 41 28 47 41 28 47 41 27 46 40 28 47 41 27 46 40 29 48 42 28 47 41 28 47 41 28 47 41 29 48 42 29 48 42 27 46 40 28 47 41 28 47 41 28 47 41 28 47 41 29 48 42 29 48 42 28 47 41 28 47 41 28 47 43 28 47 41 27 46 42 28 47 43 28 47 41 28 47 43 28 47 41 28 47 41 29 48 42 28 47 41 27 46 40 29 48 42 28 47 41 27 46 40 30 49 43 28 47 43 28 47 41 28 47 43 28 47 43 29 48 42 30 49 43 28 47 41 27 46 40 28 47 41 28 47 41 27 46 40 27 46 40 28 47 41 27 48 41 27 48 41 27 48 41 28 47 41 28 47 41 28 47 41 27 46 40 28 47 41 28 47 41 28 47 41 27 48 41 28 47 41 28 47 41 28 47 41 28 47 41 28 47 41 28 47 41 28 47 41 28 47 41 
28 47 41 28 47 41 28 47 41 29 48 42 28 47 41 28 47 41 28 47 41 28 47 41 28 47 41 29 48 42 29 48 44 28 47 43 28 47 41 27 46 40 27 46 40 28 47 41 28 47 41 28 47 41 28 47 41 28 47 41 27 46 42 27 46 42 28 47 41 29 48 42 29 48 42 29 48 42 28 47 41 30 49 45 28 47 41 27 46 40 28 47 41 28 47 41 29 48 42 28 47 41 27 46 40 28 47 41 28 47 41 29 48 42 28 47 41 28 47 41 28 47 41 28 47 41 27 46 40 29 48 42 28 47 41 28 47 41 28 47 41 29 48 42 28 47 41 29 48 42 28 47 41 28 47 41 27 46 40 28 47 43 30 49 43 28 47 43 28 47 43 28 47 41 28 47 43 28 47 41 28 47 41 28 47 41 28 47 41 28 47 41 28 47 41 28 47 41 28 47 41 28 47 41 29 48 44 28 47 41 28 47 41 27 48 41 29 48 42 29 48 42 27 48 41 27 46 40 28 47 41 29 48 42 28 47 41 28 47 41 28 47 41 27 46 40 29 48 42 28 47 41 28 47 41 28 47 43 28 47 41 28 47 41 27 48 41 28 47 41 28 47 41 31 48 42 28 47 43 28 47 41 28 47 41 27 46 40 28 47 41 27 46 40 29 48 42 28 47 43 
27 46 40 28 47 41 28 47 41 27 46 40 28 47 41 29 48 42 29 48 42 29 48 42 28 47 41 29 48 42 28 47 43 28 47 43 28 47 41 28 47 41 29 48 42 28 47 41 28 47 41 28 47 41 28 47 41 29 48 42 28 47 41 27 46 40 27 46 40 28 47 43 28 47 41 28 47 41 27 46 40 27 46 40 28 47 43 29 48 44 28 47 43 27 46 42 27 46 42 28 47 43 28 47 43 28 47 43 29 48 42 28 47 41 28 47 41 29 48 42 28 47 41 27 46 40 28 47 41 28 47 41 28 47 41 28 47 41 29 48 42 29 48 42 28 47 41 28 47 41 29 48 42 28 47 41 28 47 43 28 47 41 28 47 43 27 46 40 27 46 40 27 46 42 27 46 40 28 47 43 27 46 40 27 46 40 28 47 41 28 47 41 28 47 41 28 47 41 28 47 41 29 48 42 27 46 40 29 48 42 28 47 41 28 47 41 29 48 42 28 47 41 28 47 41 28 47 43 28 47 41 28 47 41 28 47 41 28 47 41 27 46 40 27 48 41 29 48 42 28 47 41 28 47 41 27 46 40 27 46 40 28 47 43 28 47 41 28 47 41 28 47 43 27 46 40 28 47 41 28 47 41 28 47 41 28 47 43 26 45 41 28 47 41 28 47 41 28 47 41 
29 48 42 28 47 41 28 47 41 28 47 41 28 47 41 28 47 41 27 46 40 28 47 43 29 48 42 28 47 41 28 47 43 29 48 44 28 47 41 28 47 41 29 48 42 27 48 41 28 47 41 28 47 41 27 48 41 28 47 41 28 47 43 28 47 41 28 47 41 28 47 41 29 48 42 28 47 41 28 47 43 28 47 41 28 47 41 27 46 40 27 46 40 29 48 42 28 47 41 28 47 41 28 47 41 28 47 41 28 47 41 28 47 41 29 48 42 28 47 41 29 48 42 27 46 40 29 48 42 29 48 42 28 47 41 27 46 40 28 47 41 28 47 41 27 46 40 28 47 41 28 47 41 27 46 40 28 47 41 27 46 40 28 47 43 28 47 41 28 47 41 29 48 44 28 47 41 28 47 41 28 47 41 27 46 40 28 47 41 29 48 42 28 47 41 28 47 41 28 47 41 27 46 40 28 47 41 28 47 41 28 47 41 28 49 42 28 47 43 28 47 43 27 48 41 27 46 42 29 48 42 28 47 41 27 46 40 27 48 41 27 46 40 29 48 42 27 46 40 27 48 41 28 47 41 28 47 43 28 47 41 29 48 42 28 47 43 26 47 40 29 48 42 28 47 43 27 48 41 29 48 42 28 47 41 28 47 41 27 46 40 28 47 41 30 49 43 27 48 41 
27 46 40 28 47 41 27 46 40 27 46 40 28 47 41 29 48 42 28 47 41 29 48 42 28 47 41 28 47 43 29 48 42 27 46 42 29 48 42 30 47 41 27 48 41 28 47 41 28 47 41 27 48 41 27 46 40 26 47 40 27 46 42 27 46 40 28 47 41 28 47 41 28 47 41 28 47 41 28 47 43 28 47 41 28 47 41 28 47 41 28 47 41 28 47 41 28 47 41 28 47 41 26 45 39 28 47 41 28 47 41 29 48 42 28 47 41 28 47 41 28 47 41 28 47 41 28 47 41 28 47 41 28 47 41 28 47 41 29 48 42 28 47 41 27 46 40 28 47 41 28 47 41 28 47 41 27 46 40 28 47 41 28 47 43 28 47 41 28 47 41 28 47 43 28 47 41 28 47 41 28 47 41 28 47 41 28 47 41 29 48 42 27 46 40 28 47 41 28 47 41 28 47 41 28 47 41 27 48 41 27 46 40 28 47 41 28 49 44 28 47 43 28 47 41 28 47 43 28 47 43 28 47 43 28 47 43 28 47 43 30 46 43 28 47 43 28 47 43 28 47 43 28 47 43 28 47 41 27 48 41 27 46 42 29 48 42 27 46 40 27 46 42 27 48 41 28 49 42 28 47 41 28 47 41 28 47 41 28 47 41 28 47 41 28 47 41 28 49 42 
28 47 41 28 47 41 27 46 40 27 46 40 28 47 41 28 47 41 28 47 41 27 47 38 28 47 41 27 46 42 27 46 40 29 48 44 28 47 41 28 47 41 28 47 41 28 47 41 28 47 41 28 47 41 28 47 41 28 47 41 28 47 41 28 47 41 28 47 41 29 48 44 27 46 40 27 46 40 28 47 41 28 47 41 27 46 40 28 47 41 27 46 40 28 47 41 28 47 41 27 46 40 28 47 41 27 46 40 28 47 41 28 47 41 27 46 40 28 47 41 27 46 40 28 47 41 28 47 41 28 47 41 29 48 42 28 47 41 28 47 41 28 47 41 28 47 41 28 47 41 28 47 41 28 47 41 28 47 41 28 47 41 29 48 42 28 47 41 27 46 40 28 47 41 28 47 41 28 47 41 28 47 41 29 48 42 28 47 41 28 47 41 28 47 41 29 48 42 28 47 41 27 46 40 29 48 42 28 47 41 28 47 41 27 46 40 28 47 41 28 47 41 27 46 40 28 47 43 29 48 42 29 48 42 27 48 41 28 49 42 27 48 41 29 46 40 28 47 41 28 49 42 27 48 41 28 47 43 28 47 41 28 47 41 27 48 43 30 49 43 27 48 41 27 48 41 28 47 41 28 47 41 28 47 41 27 46 42 28 47 43 27 46 40 29 48 42 28 47 41 
27 46 40 28 47 41 28 47 41 28 47 41 28 47 41 28 47 41 28 47 41 29 48 42 28 47 41 27 46 42 28 47 41 27 46 42 28 47 41 28 47 41 29 48 42 27 46 40 28 47 41 27 46 40 28 47 41 27 46 40 28 47 43 28 47 43 27 46 40 27 46 40 28 47 41 28 47 41 28 47 41 28 47 43 27 46 40 28 47 41 28 47 41 28 47 41 28 47 41 28 47 41 28 47 41 27 46 40 28 47 43 28 47 43 28 47 43 28 47 43 27 46 42 27 46 42 27 46 42 28 47 43 28 47 41 28 47 41 28 47 41 27 46 40 28 47 41 27 46 40 28 47 41 27 46 40 27 46 40 28 47 41 29 48 42 28 47 41 28 47 41 28 47 41 28 47 41 27 46 40 29 48 42 28 47 41 28 47 41 28 47 41 28 47 41 27 46 40 28 47 41 28 47 41 27 46 42 27 48 41 28 47 41 27 46 40 27 48 41 28 47 41 28 47 41 28 47 41 28 47 41 26 45 39 24 36 32 16 27 23 14 18 17 10 16 14 13 22 19 23 35 31 27 46 40 25 44 38 29 46 40 26 49 41 27 48 41 29 50 43 28 47 43 27 46 40 28 47 43 28 47 41 28 47 41 28 47 41 27 46 40 28 47 41 28 47 41 28 47 43 
28 47 41 28 47 41 29 48 42 28 47 41 28 47 41 27 47 38 28 47 43 27 46 40 28 47 41 27 46 42 27 46 40 28 47 43 28 47 41 28 47 41 28 47 41 28 47 41 27 48 41 27 48 41 28 47 41 27 48 41 29 48 42 28 47 43 29 48 42 27 46 40 28 47 43 28 47 41 28 47 41 28 47 41 28 47 43 28 47 43 28 47 43 28 47 43 28 47 43 29 48 44 28 47 43 29 48 44 27 46 42 28 47 43 28 47 43 27 46 42 27 46 42 29 48 44 28 47 43 28 47 43 28 47 41 28 47 41 28 47 41 27 46 40 28 47 41 28 47 41 28 47 41 28 47 41 28 47 41 27 46 40 28 47 41 28 47 41 28 47 41 27 46 40 28 47 41 28 47 41 28 47 41 28 47 41 28 47 41 27 46 40 28 47 41 29 48 42 28 47 41 27 46 40 28 47 43 28 47 41 27 46 42 28 47 43 28 47 41 29 48 42 28 47 41 27 46 40 15 26 22 5 9 8 2 2 2 2 0 1 1 1 1 0 0 0 0 0 0 1 1 1 4 8 7 6 8 7 9 13 12 14 25 21 28 45 39 28 47 41 27 46 40 27 46 40 28 47 41 28 47 41 28 47 41 28 47 41 28 47 41 28 47 41 29 48 42 28 47 41 
28 47 41 28 47 41 28 47 41 28 47 43 28 47 41 28 47 41 28 47 41 28 47 41 28 47 41 28 47 41 28 47 41 28 47 41 28 47 41 28 47 41 28 47 41 28 47 41 28 47 41 28 47 41 28 47 41 28 47 41 28 47 41 28 47 41 28 47 41 27 46 40 29 48 42 28 47 41 28 47 41 27 46 42 28 47 41 28 47 43 28 47 41 28 47 41 28 47 41 28 47 41 28 47 43 28 47 41 28 47 41 28 47 41 28 47 43 28 47 41 28 47 41 27 46 40 28 47 41 28 47 41 29 48 42 29 48 44 29 48 42 28 47 41 29 48 42 28 47 41 28 47 41 28 47 41 28 47 41 28 47 41 27 46 40 28 47 41 28 47 41 28 47 41 27 46 40 28 47 41 28 47 41 28 47 41 28 47 41 28 47 41 28 47 41 28 47 41 28 47 41 28 47 41 28 47 41 29 48 42 29 48 42 27 46 42 29 49 40 28 47 41 22 37 32 6 10 9 1 1 1 0 2 1 1 1 1 1 1 1 1 1 1 1 1 1 0 0 0 1 1 1 1 1 1 0 2 1 0 0 2 0 2 0 14 13 9 37 38 24 26 43 37 28 47 43 28 47 43 28 47 43 27 46 40 28 47 41 27 46 40 27 46 42 28 47 43 27 48 41 
28 47 41 28 47 41 28 47 41 28 47 41 28 47 41 27 46 40 28 47 41 28 47 41 28 47 41 28 47 41 28 47 41 28 47 41 29 48 44 28 47 41 28 47 41 28 47 43 28 47 43 27 46 40 27 46 40 28 47 43 28 47 43 28 47 43 28 47 43 28 47 41 28 47 41 28 47 41 28 47 41 28 47 41 28 47 41 28 47 41 28 47 41 28 47 41 28 47 41 28 47 41 28 47 41 28 47 41 28 47 43 28 47 41 27 46 40 28 47 41 28 47 43 26 45 41 27 46 40 28 47 41 29 48 44 28 47 41 27 46 40 28 47 43 28 47 41 28 47 41 28 47 41 28 47 41 28 47 41 28 47 41 28 47 41 28 47 41 28 47 41 28 47 41 27 46 40 28 47 41 27 46 40 28 47 41 28 47 41 28 47 41 28 47 41 28 47 41 28 47 41 27 46 40 27 46 42 26 47 40 27 46 40 27 48 41 28 47 41 16 27 23 1 3 2 1 1 1 1 1 1 1 3 0 30 27 12 46 39 20 25 23 11 2 4 3 1 1 1 1 1 1 0 0 0 1 1 1 1 1 1 2 2 0 27 25 12 32 29 14 5 7 6 13 24 20 25 44 40 30 46 43 28 47 43 27 46 40 28 49 44 28 47 43 27 48 43 27 46 42 
29 48 44 28 47 41 28 47 41 28 47 41 28 47 41 28 47 41 28 47 41 27 46 40 27 46 40 28 47 41 27 46 40 28 47 41 28 47 41 28 47 41 28 47 41 28 47 41 28 47 41 28 47 41 28 47 41 27 46 40 28 47 41 28 47 41 28 47 41 27 46 40 28 47 41 28 47 41 28 47 41 28 47 41 28 47 41 28 47 41 28 47 41 28 47 41 28 47 41 28 47 41 28 47 41 28 47 41 28 47 41 27 46 40 28 47 41 28 47 41 28 47 41 28 47 41 28 47 41 29 48 42 28 47 41 27 46 40 28 47 41 29 48 42 27 46 40 29 48 42 28 47 43 28 47 41 28 47 41 28 47 41 28 47 41 28 47 41 28 47 41 28 47 41 28 47 41 28 47 41 28 47 41 28 47 41 28 47 41 28 47 41 28 47 41 28 47 41 27 46 40 28 47 41 28 47 43 30 46 43 27 48 41 27 46 40 24 34 26 2 3 5 0 0 0 1 1 0 0 0 0 9 8 4 27 23 12 26 24 12 49 45 20 38 33 13 2 2 0 1 1 1 1 1 0 3 3 3 1 1 1 1 1 1 4 4 2 2 2 0 0 0 0 0 0 0 5 7 6 19 34 31 26 45 39 28 47 43 28 47 43 28 47 41 28 47 41 27 48 43 
27 46 40 28 47 41 28 47 41 27 46 40 28 47 41 27 46 40 27 46 40 28 47 41 27 46 40 28 47 41 27 46 40 28 47 41 28 47 41 28 47 43 28 47 43 27 46 40 28 47 41 28 47 43 28 47 43 27 46 40 28 47 41 27 46 40 28 47 41 27 46 40 29 48 42 27 46 40 28 47 43 28 47 43 28 47 41 28 47 41 28 47 43 28 47 41 28 47 41 28 47 43 28 47 41 28 47 41 28 47 41 28 47 41 27 46 42 28 47 41 28 47 41 28 47 41 29 48 42 27 46 42 28 47 41 28 47 43 28 47 41 28 47 41 29 48 42 29 48 44 28 47 41 28 47 41 28 47 41 28 47 41 28 47 41 28 47 41 28 47 41 28 47 41 28 47 41 28 47 41 28 47 41 28 47 41 28 47 41 28 47 41 28 47 41 28 47 41 28 47 41 28 47 41 27 46 42 28 47 41 27 46 40 16 27 23 50 44 22 13 13 5 1 1 1 1 1 1 1 1 1 1 1 1 1 1 1 1 1 3 14 14 6 56 49 23 11 12 6 1 1 1 22 20 8 49 43 21 2 2 2 2 2 2 1 1 1 1 1 1 0 0 0 1 1 1 0 0 0 1 1 1 6 8 7 17 28 24 21 36 31 27 43 40 31 44 35 22 37 32 
28 47 41 28 47 41 28 47 41 28 47 41 28 47 41 28 47 41 28 47 41 28 47 41 28 47 41 28 47 41 28 47 41 28 47 41 27 46 42 27 46 40 27 46 40 28 47 43 28 47 43 28 47 41 28 47 41 28 47 43 28 47 43 28 47 43 28 47 41 28 47 41 28 47 41 27 46 40 28 47 41 28 47 41 28 47 41 28 47 41 28 47 43 28 47 41 27 46 40 28 47 43 28 47 41 28 47 41 28 47 43 29 48 42 28 47 41 29 48 42 28 47 41 27 46 42 28 47 41 29 48 42 28 47 41 27 46 40 28 47 41 27 46 40 28 47 43 28 47 41 28 47 41 30 49 45 28 47 41 28 47 41 28 47 41 28 47 41 28 47 41 28 47 41 28 47 41 28 47 41 28 47 41 27 46 40 27 46 40 28 47 41 28 47 41 27 46 40 28 47 41 28 47 41 29 48 42 28 47 41 20 32 32 1 1 1 44 39 17 28 24 12 0 0 0 0 0 0 2 0 1 1 1 1 0 2 1 0 0 0 1 1 1 49 43 21 25 22 13 2 2 0 47 41 19 21 18 9 0 1 0 2 0 1 1 1 0 1 1 0 1 1 1 1 1 1 0 2 1 0 0 0 0 0 0 1 1 1 1 1 1 16 17 9 50 44 22 4 4 2 
28 47 41 27 46 40 28 47 41 28 47 43 28 47 41 28 47 41 28 47 41 28 47 41 28 47 41 28 47 41 27 46 40 28 47 41 28 47 41 28 47 41 27 46 40 28 47 41 27 46 40 28 47 41 27 46 40 28 47 41 26 45 39 28 47 41 28 47 41 28 47 41 28 47 41 29 48 42 28 47 41 28 47 41 28 47 41 28 47 41 28 47 41 27 46 40 28 47 41 27 46 40 28 47 41 28 47 41 28 47 41 28 47 41 28 47 41 27 46 40 27 46 40 28 47 41 27 46 40 27 46 40 28 47 41 28 47 41 27 46 40 27 46 42 28 47 41 28 47 41 28 47 43 28 47 41 28 47 41 28 47 41 28 47 41 28 47 41 28 47 41 28 47 41 28 47 41 28 47 41 27 46 40 28 47 41 28 47 41 27 46 40 27 46 40 28 47 41 27 46 40 28 47 41 27 46 40 25 40 37 4 6 5 0 0 0 13 12 7 53 46 20 25 23 11 0 0 0 0 0 0 1 1 1 2 0 1 0 0 0 1 1 1 24 20 9 55 48 20 45 40 20 47 42 20 4 5 0 0 0 0 0 0 0 2 0 1 7 8 3 11 8 3 1 1 1 1 1 1 1 1 1 2 2 2 1 1 1 1 1 1 25 23 11 46 41 19 1 1 0 
28 47 41 27 46 40 27 46 40 28 47 41 27 46 40 27 46 40 28 47 41 28 47 41 27 46 40 28 47 41 28 47 41 27 46 40 28 47 41 27 46 42 27 46 42 27 46 40 28 47 41 28 47 43 28 47 43 27 46 40 29 48 42 28 47 41 28 47 41 28 47 41 28 47 41 28 47 43 27 46 42 28 47 43 28 47 41 28 47 41 27 46 40 28 47 41 26 45 39 28 47 41 28 47 41 28 47 41 28 47 41 27 46 40 26 45 41 28 47 43 28 47 41 27 46 40 28 47 41 28 47 43 27 46 40 29 48 42 28 47 43 27 46 40 28 47 41 28 47 43 27 46 42 27 46 40 28 47 41 27 46 40 28 47 41 28 47 41 28 47 41 28 47 41 28 47 41 28 47 41 28 47 41 28 47 41 28 47 41 28 47 41 28 47 41 28 47 41 28 47 41 27 46 40 23 40 34 6 8 7 0 0 0 0 0 0 0 0 0 16 16 6 23 20 11 1 1 1 2 2 2 2 2 2 1 1 1 1 1 1 0 0 0 1 1 1 16 16 8 20 17 10 5 5 3 0 2 1 0 0 0 0 0 0 1 1 1 45 40 18 38 33 14 1 1 1 1 1 1 1 1 1 1 1 1 0 0 0 2 2 2 44 37 19 25 23 10 2 0 1 
27 46 42 27 46 40 27 46 40 27 46 40 28 47 41 27 46 40 28 47 41 27 46 40 28 47 41 27 46 40 27 46 40 28 47 41 28 47 41 27 46 40 27 46 40 28 47 41 28 47 41 28 47 41 27 46 40 28 47 41 27 46 42 29 48 42 28 47 41 28 47 41 27 46 40 28 47 41 28 47 41 28 47 41 28 47 41 28 47 43 28 47 41 27 46 40 28 47 41 27 46 40 28 47 43 28 47 41 27 46 40 28 47 41 27 46 40 27 46 40 27 46 40 28 47 43 28 47 41 27 46 40 28 47 41 28 47 41 28 47 41 28 47 41 28 47 43 28 47 41 28 47 41 27 46 42 28 47 41 27 46 40 28 47 41 28 47 41 28 47 41 27 46 40 28 47 41 28 47 41 29 48 42 28 47 41 28 47 41 27 46 40 27 46 40 27 46 40 27 46 40 27 46 40 9 15 15 1 1 1 1 1 1 1 1 1 1 1 1 1 1 1 1 1 1 10 9 5 46 38 17 44 39 19 6 5 3 1 1 1 0 0 0 1 1 1 2 2 2 1 1 1 2 2 0 1 1 1 1 1 1 2 2 2 0 0 0 46 41 21 20 17 10 2 2 2 1 1 1 0 0 0 0 0 0 0 0 0 8 7 3 53 47 21 9 8 4 0 0 0 
27 46 40 28 47 41 27 46 40 27 46 40 28 47 41 28 47 41 28 47 41 27 46 40 27 46 40 28 47 41 28 47 41 28 47 41 28 47 43 27 46 42 28 47 43 27 46 42 28 47 43 28 47 43 27 46 42 28 47 43 28 47 41 27 46 42 27 46 42 28 48 39 29 48 44 28 47 41 27 46 42 28 47 41 27 46 42 27 46 40 27 46 42 28 47 41 28 47 41 28 47 43 28 47 41 28 47 43 28 47 43 28 47 41 27 46 40 28 47 41 28 47 43 27 46 42 28 47 43 28 47 41 28 47 41 28 47 43 28 47 43 27 46 40 27 46 40 28 47 43 28 47 43 27 46 40 27 46 42 28 47 43 28 47 41 28 47 41 27 46 40 28 47 41 25 44 40 27 46 42 28 47 41 28 47 41 27 46 42 28 47 43 26 47 40 28 47 43 27 46 40 20 37 31 3 3 3 0 0 0 1 1 1 0 0 0 0 0 2 1 1 1 13 13 5 51 45 21 36 33 14 51 45 21 17 17 9 2 1 0 0 0 0 0 0 0 1 1 1 1 1 1 0 0 0 2 0 1 1 1 3 1 1 1 0 0 0 28 24 12 44 37 18 1 1 1 0 0 0 1 1 1 1 1 1 0 0 0 4 3 1 50 44 20 33 30 15 3 4 0 
28 47 41 29 48 42 27 46 40 27 46 40 27 46 42 28 47 41 28 47 41 28 47 43 28 47 43 27 46 40 28 47 41 27 46 42 27 46 42 27 46 42 27 46 42 28 47 43 27 46 42 28 47 43 28 47 43 27 46 42 28 47 43 28 47 41 27 46 40 28 47 41 27 46 42 28 47 43 27 46 42 28 48 39 28 47 41 27 46 42 27 46 40 28 47 43 28 47 43 28 47 41 27 46 42 28 47 41 29 48 44 27 46 40 28 47 41 28 47 41 28 47 43 27 46 42 27 46 42 28 47 41 28 47 43 27 46 40 27 46 40 27 46 42 27 46 42 27 46 40 27 46 40 27 46 42 26 45 41 27 46 40 27 46 40 28 47 41 27 46 40 27 46 40 28 47 41 27 46 42 28 47 41 29 46 40 27 46 42 28 47 41 29 46 40 28 47 43 27 46 40 9 18 17 2 0 1 0 0 2 0 0 0 0 0 0 1 1 1 7 6 1 52 44 21 30 26 15 1 1 3 42 37 17 32 26 12 0 0 0 4 4 4 14 14 4 19 19 9 1 1 1 1 1 1 0 0 0 2 0 1 0 0 0 1 1 1 19 16 9 49 41 18 2 0 1 1 1 1 1 1 1 1 1 1 2 2 2 0 0 0 17 14 7 34 33 15 7 6 2 
28 47 43 27 46 40 27 46 42 28 47 43 27 46 42 28 47 41 27 46 40 28 47 43 27 46 42 27 46 40 28 47 41 27 46 42 28 47 43 28 47 43 28 47 43 28 47 43 27 46 42 27 46 42 28 47 43 27 46 42 27 46 42 28 47 41 28 47 43 27 46 40 27 46 42 28 47 41 27 46 40 27 46 42 28 47 41 26 45 41 27 46 40 27 46 42 27 46 42 27 46 40 26 45 41 27 46 40 27 46 42 27 46 42 27 46 40 28 47 41 28 47 43 28 47 43 28 47 41 28 47 41 28 47 43 28 47 41 28 47 41 28 47 43 28 47 43 28 47 41 28 47 41 28 47 43 28 47 43 28 47 43 28 47 43 27 46 40 28 47 41 28 47 43 27 46 42 27 46 42 30 46 43 27 48 43 26 45 41 27 46 42 30 45 40 29 48 42 19 34 31 1 1 1 0 0 0 1 1 1 0 0 0 0 0 0 0 0 0 3 3 1 17 17 9 2 2 0 0 0 0 18 15 6 46 41 21 29 25 13 49 43 19 49 43 19 28 24 13 0 0 2 1 1 1 0 2 0 0 0 0 1 1 1 0 0 0 39 36 17 36 30 14 1 1 1 0 0 0 0 0 0 1 1 1 1 1 1 1 1 3 1 1 1 0 0 2 1 1 1 
27 46 40 28 47 41 28 47 41 27 46 40 29 48 44 27 46 40 27 46 40 27 46 42 28 47 43 27 46 40 28 47 41 28 47 43 27 46 42 28 47 43 28 47 43 27 46 42 27 46 42 28 47 43 27 46 42 28 47 43 26 45 41 27 46 40 28 47 41 27 46 40 27 46 42 28 47 43 28 47 41 27 46 42 28 47 41 28 47 43 28 47 41 27 46 42 27 46 42 27 46 40 27 46 42 27 46 40 28 47 41 27 46 40 28 47 41 27 46 40 27 46 42 27 46 42 27 46 42 27 46 42 28 47 43 26 45 39 27 46 40 27 46 42 27 46 42 28 47 41 27 46 40 27 46 42 27 46 40 28 47 41 27 46 40 28 47 41 27 46 40 28 47 41 28 47 41 28 47 41 27 46 40 27 46 40 27 46 42 26 47 42 30 47 41 28 45 39 6 8 7 1 1 1 1 1 1 2 0 1 0 0 0 0 0 0 0 0 0 2 0 1 0 0 0 0 0 0 1 1 1 2 2 0 40 35 16 39 34 15 10 9 5 1 1 1 2 0 1 0 0 0 0 0 0 1 0 0 1 1 1 0 0 0 0 0 0 8 7 2 0 2 1 2 0 1 1 1 3 2 2 2 1 1 0 1 3 2 0 0 0 1 1 1 1 1 1 1 1 1 
27 46 40 28 47 43 27 46 42 27 46 42 28 47 41 27 46 40 27 46 40 28 47 41 27 46 40 28 47 41 28 47 41 27 46 40 28 47 43 27 46 42 26 45 41 27 46 42 28 47 43 27 46 42 28 47 43 27 46 42 28 47 41 28 47 43 28 47 41 28 47 41 28 47 41 27 46 42 28 47 43 28 47 41 27 46 42 28 47 41 27 46 42 27 46 40 27 46 40 27 46 42 27 46 40 28 47 43 28 47 43 28 47 43 27 46 42 28 47 43 28 47 41 27 46 40 28 47 41 28 47 41 27 46 40 27 46 42 28 47 43 28 47 41 28 47 41 27 46 42 27 46 42 28 47 41 27 46 42 27 46 42 27 46 42 27 46 42 27 46 42 27 46 42 27 46 42 26 45 41 27 46 40 28 47 43 26 45 41 28 47 41 28 47 43 25 36 30 30 26 14 33 32 14 11 7 4 1 1 1 1 1 1 0 0 0 0 0 0 1 1 1 1 1 1 0 2 1 1 1 1 1 1 1 1 1 1 1 1 3 1 1 1 1 1 1 1 1 1 1 0 0 0 0 0 0 0 0 0 2 1 1 1 3 0 0 0 1 1 1 1 1 1 0 0 0 1 1 0 1 1 1 0 0 0 1 1 1 0 0 0 1 1 1 2 0 1 1 1 1 
28 47 41 27 46 40 28 47 41 27 46 40 28 47 41 28 47 41 28 47 41 28 47 41 28 47 41 28 47 41 28 47 41 28 47 41 28 47 43 27 46 42 27 46 42 27 46 42 28 47 43 29 48 44 28 47 43 28 47 43 27 46 40 28 47 43 28 47 43 27 46 42 27 46 40 27 46 40 28 47 43 27 46 40 28 47 43 28 47 41 27 46 42 28 47 41 28 47 41 27 46 42 27 46 40 27 46 42 27 46 40 27 46 40 27 46 42 28 47 43 28 47 41 27 46 40 27 46 42 27 46 42 28 47 41 27 46 42 28 47 43 28 47 41 27 46 40 27 46 42 28 47 43 28 47 41 27 46 42 27 46 40 27 46 40 28 47 41 27 46 40 27 46 40 28 47 41 27 46 42 27 46 42 27 46 40 27 46 42 27 46 40 28 44 41 43 42 24 44 37 19 38 33 14 49 44 22 2 2 4 1 1 3 0 0 0 1 1 1 1 1 1 2 2 0 1 1 1 1 1 1 1 1 1 1 1 1 1 1 1 2 2 2 0 0 0 0 0 0 2 2 2 0 0 0 1 1 0 0 0 0 0 2 1 0 0 0 2 2 2 1 1 1 1 1 1 0 0 0 0 0 0 2 2 2 0 0 0 1 1 1 1 1 1 1 1 0 5 4 2 
27 46 40 27 46 42 27 46 40 27 46 40 28 47 41 27 46 42 27 46 42 28 47 41 27 46 40 27 46 42 27 46 42 28 47 41 28 47 43 27 46 42 28 47 43 27 46 42 28 47 43 27 46 42 27 46 42 27 46 42 28 47 43 28 47 43 28 48 39 29 48 44 28 47 41 27 46 42 27 46 40 28 47 41 28 47 43 27 46 40 28 47 43 28 47 41 28 47 41 27 46 42 28 47 41 27 46 42 28 47 41 28 47 43 28 47 43 28 47 43 28 47 41 28 47 41 28 47 41 28 47 43 27 46 40 27 46 42 28 47 43 27 46 40 27 46 40 29 48 44 27 46 42 27 46 40 28 47 43 27 46 42 28 47 43 27 46 40 28 47 41 28 47 43 27 46 42 28 47 43 27 48 41 29 45 42 26 45 41 28 47 41 19 31 29 1 1 1 1 1 1 4 4 2 47 41 19 22 19 10 0 1 0 1 1 1 0 0 0 0 0 0 1 1 1 1 1 1 1 1 1 0 0 0 1 1 1 1 1 1 2 2 2 1 1 1 0 0 0 9 8 4 33 27 13 31 29 14 7 8 3 0 2 1 1 1 1 0 0 0 1 1 1 0 2 1 1 1 1 0 0 0 0 0 0 0 2 1 1 1 1 0 0 0 0 0 0 16 13 6 
27 46 40 27 46 40 28 47 41 27 46 40 28 47 41 27 46 42 28 47 43 27 46 40 27 46 40 28 47 43 27 46 42 28 47 41 27 46 42 28 47 43 27 46 42 28 47 43 28 47 43 28 47 43 28 47 43 27 46 42 27 46 42 27 46 40 28 47 41 27 46 42 27 46 40 26 45 41 28 47 41 28 47 43 27 46 40 28 47 43 28 47 41 28 47 43 27 46 42 27 46 40 27 46 42 27 46 40 28 47 41 27 46 42 27 46 42 28 47 43 28 47 41 27 46 40 27 46 40 28 47 43 27 46 42 27 46 40 28 47 41 28 47 43 27 46 42 27 46 40 28 47 41 28 47 43 27 46 42 26 45 41 26 45 39 28 47 41 28 47 41 28 47 41 27 46 42 27 46 42 27 47 38 27 46 42 28 47 43 26 41 36 2 2 4 0 0 0 1 1 1 0 0 0 29 26 11 45 40 20 3 3 1 4 4 4 7 6 2 1 1 1 0 0 0 1 1 1 1 1 1 1 1 1 1 1 1 1 1 3 1 1 1 0 0 2 2 2 2 45 40 20 34 31 14 44 35 18 37 32 13 2 2 2 2 2 2 1 1 3 1 1 1 0 0 0 1 1 0 0 0 0 1 1 1 0 0 0 1 1 1 1 1 1 1 1 1 10 9 5 
27 46 40 27 46 40 27 46 40 27 46 40 28 47 43 27 46 42 27 46 42 28 47 43 27 46 42 27 46 42 27 46 42 26 45 41 27 46 42 28 47 43 27 46 42 26 45 41 28 47 43 27 46 42 28 47 43 27 46 42 28 47 41 27 46 42 27 46 42 27 46 40 27 46 40 27 46 42 28 47 43 27 46 40 27 46 40 28 47 41 27 46 42 27 46 42 27 46 42 27 46 42 27 46 40 27 46 40 28 47 41 28 47 41 27 46 40 27 46 42 27 46 40 28 47 43 28 47 41 28 47 43 28 47 43 28 47 41 27 46 42 28 47 41 27 46 40 28 47 43 27 46 40 28 47 43 28 47 43 27 46 40 27 46 40 27 46 42 27 46 40 27 46 42 27 46 42 29 46 40 27 46 42 27 46 44 27 46 42 15 26 22 1 1 1 1 1 1 0 0 0 0 0 0 5 4 2 43 38 18 49 44 22 47 42 20 47 41 19 2 2 2 0 0 0 1 1 1 0 2 1 0 0 0 1 1 1 1 1 1 0 0 0 1 1 1 18 15 6 44 39 19 2 2 2 6 7 2 49 43 21 31 28 13 41 36 17 2 2 0 1 1 1 1 1 1 2 0 3 0 0 0 0 0 0 0 0 0 0 2 1 0 0 0 21 17 8 41 36 17 
28 47 43 28 47 43 27 46 42 27 46 42 27 46 42 28 47 43 27 46 42 26 45 41 27 46 42 28 47 43 27 46 42 26 45 41 27 46 42 28 47 43 27 46 42 28 47 43 28 47 43 28 47 43 28 47 43 28 47 43 27 46 40 27 46 42 26 45 41 27 46 40 28 47 41 28 47 43 26 45 41 27 46 40 27 46 42 26 45 39 28 47 43 28 47 41 28 47 41 27 46 42 27 46 40 27 46 42 28 47 45 28 47 43 28 47 41 28 47 43 27 46 42 27 46 42 27 46 42 27 46 40 28 47 41 27 46 42 27 46 40 27 46 40 27 46 40 28 47 41 28 47 43 28 47 41 28 47 41 28 47 43 26 47 42 27 48 41 27 46 42 28 47 41 29 48 42 27 46 42 28 49 42 27 48 41 26 42 39 3 3 3 0 0 0 0 1 0 1 1 3 1 1 1 1 1 0 2 2 2 23 18 12 19 16 7 7 6 2 0 0 0 1 1 1 1 1 1 1 1 1 1 1 0 2 0 1 0 0 0 1 1 1 1 1 1 1 1 1 7 3 2 0 0 0 0 0 0 17 14 7 47 41 19 39 34 15 2 2 2 1 1 1 1 1 1 1 1 1 0 0 0 1 1 1 0 0 0 1 1 1 3 1 2 29 26 11 32 29 14 
27 46 42 27 46 42 28 47 43 27 46 42 27 46 42 28 47 43 27 46 42 28 47 43 27 46 42 27 46 42 27 46 42 28 47 43 28 47 43 26 45 41 28 47 43 27 46 42 29 48 44 27 46 42 28 47 43 29 48 44 28 47 43 28 47 41 27 46 40 27 46 42 27 46 42 28 47 41 27 46 40 28 47 43 27 46 42 27 46 42 27 46 40 27 46 40 27 46 40 28 47 41 27 46 42 27 46 42 27 46 42 27 46 42 28 47 43 28 47 43 28 47 43 27 46 42 27 46 42 27 46 42 27 46 42 28 47 41 27 46 42 27 46 42 27 46 42 26 45 41 28 47 41 28 47 43 26 47 42 27 48 41 28 47 41 27 46 40 28 47 43 27 50 44 26 45 41 28 47 41 27 46 40 25 46 39 15 26 22 0 0 0 1 1 1 0 0 0 0 0 0 1 1 1 1 1 1 2 0 1 1 1 1 1 1 1 0 0 0 0 2 1 0 0 0 0 0 0 20 17 8 22 20 8 1 1 1 2 0 1 2 0 1 0 2 1 1 1 1 1 1 1 1 1 3 3 1 2 1 1 1 2 2 2 1 1 0 1 1 1 0 0 0 1 1 1 0 0 0 1 1 1 1 1 1 0 0 0 1 1 1 1 1 1 0 0 0 1 1 1 
27 46 40 28 47 41 27 46 40 28 47 41 27 46 42 27 46 42 28 47 43 28 47 43 26 45 41 26 45 41 26 45 41 27 46 42 27 46 42 28 47 43 28 47 43 28 47 43 27 46 42 27 46 42 27 46 42 28 47 43 27 46 42 27 46 40 28 47 41 27 46 42 28 47 43 28 47 41 28 47 41 26 45 41 28 47 43 28 47 41 28 47 43 27 46 40 27 46 40 28 47 43 28 47 41 27 46 42 27 46 40 27 46 42 27 46 42 27 46 40 28 47 41 27 46 40 27 46 40 27 46 40 28 47 41 27 46 42 28 47 43 27 46 40 28 47 41 27 46 42 27 46 42 27 46 40 28 47 43 29 46 40 27 46 42 29 45 42 27 46 40 28 47 41 28 47 43 28 47 41 27 46 42 16 31 28 1 3 2 2 2 2 19 16 7 22 20 8 2 4 1 2 2 0 12 9 4 1 1 1 1 1 1 0 0 0 2 0 1 3 1 2 1 1 1 3 3 1 48 42 20 41 36 17 2 2 0 1 1 1 2 0 1 1 1 1 2 0 1 1 1 1 1 1 1 1 1 1 2 2 2 0 0 0 0 0 0 0 0 0 1 1 1 0 0 2 1 1 1 1 1 1 1 1 1 2 2 4 4 4 4 5 5 5 17 17 17 16 16 16 
28 47 41 28 47 41 26 45 39 27 46 40 27 46 42 26 45 41 28 47 43 27 46 42 26 45 41 28 47 43 27 46 42 27 46 42 27 46 42 28 47 43 26 45 41 27 46 42 26 45 41 27 46 42 27 46 42 28 47 43 27 46 42 27 46 40 28 47 41 28 47 43 28 47 43 26 45 39 27 46 40 28 47 43 28 47 41 28 47 41 27 46 42 27 46 42 26 45 41 27 46 42 28 47 41 27 46 40 26 45 39 27 46 40 27 46 40 26 45 39 28 47 41 27 46 42 27 46 42 28 47 41 28 47 43 26 45 39 27 46 40 27 46 42 27 46 42 27 46 40 28 47 41 28 47 43 27 46 40 27 48 43 27 46 42 28 47 41 28 47 43 28 47 41 27 46 40 29 45 42 28 45 39 6 10 9 1 1 1 6 5 3 51 45 21 49 45 20 38 33 14 34 28 14 37 32 13 1 1 1 1 1 3 0 0 0 1 1 1 1 1 1 1 1 3 1 1 1 5 6 1 7 6 2 0 0 0 0 0 0 1 1 1 1 1 1 1 1 1 0 0 0 0 0 0 0 0 0 0 0 2 1 1 0 0 2 1 6 6 6 11 11 11 14 14 12 25 25 27 28 28 28 34 34 34 40 40 40 43 43 43 45 45 45 48 48 46 48 48 48 
28 47 43 27 46 42 27 46 42 27 46 42 28 47 43 28 47 43 27 46 42 27 46 42 28 47 43 27 46 42 27 46 42 27 46 42 27 46 42 27 46 42 28 47 43 28 47 43 27 46 42 27 46 42 27 46 42 28 47 43 27 46 42 28 47 41 27 46 40 27 46 42 28 47 43 28 47 41 28 47 41 27 46 42 28 47 41 28 47 43 27 46 40 27 46 42 27 46 42 28 47 41 27 46 42 28 47 41 28 47 43 26 45 41 28 47 43 27 46 42 27 46 42 27 46 42 27 46 42 26 45 41 28 47 41 28 47 41 28 47 43 28 47 41 28 47 41 28 47 43 27 46 40 27 46 40 28 47 43 25 46 41 25 46 39 27 46 40 28 47 43 26 45 41 27 46 40 26 47 40 16 27 23 2 2 2 2 2 2 22 22 10 41 39 18 10 9 4 47 42 20 55 49 23 13 9 6 0 0 0 0 0 0 2 2 2 1 0 0 2 2 2 0 0 0 0 0 0 1 1 1 1 1 1 1 1 1 1 1 1 1 1 1 2 2 2 6 6 6 3 3 3 18 18 18 28 28 28 30 30 30 38 38 38 40 40 40 47 47 49 48 50 49 48 48 50 49 49 49 49 49 49 48 48 48 48 48 48 43 43 43 37 37 37 33 33 33 25 25 25 
26 45 41 27 46 42 27 46 42 27 46 42 27 46 42 27 46 42 27 46 42 27 46 42 27 46 42 28 47 43 25 44 40 28 47 43 27 46 42 28 47 43 28 47 43 28 47 43 26 45 41 27 46 42 27 46 42 26 45 41 27 46 40 27 46 42 27 46 42 28 47 41 27 46 40 26 45 41 27 46 42 28 47 41 27 46 42 27 46 40 27 46 42 28 47 41 28 47 41 27 46 42 28 47 41 26 45 41 27 46 40 27 46 42 27 46 42 27 46 42 27 46 42 28 47 41 27 46 42 27 46 44 27 46 42 28 47 43 28 47 41 27 46 42 27 46 42 27 46 40 27 46 42 29 48 44 26 47 40 27 46 40 27 46 42 26 47 42 29 46 40 28 47 41 27 46 42 25 41 38 3 5 4 1 1 1 0 0 0 7 6 2 5 5 3 1 1 1 6 7 2 14 11 4 1 1 1 0 0 0 0 0 0 1 1 1 1 1 3 1 1 1 2 2 2 5 5 7 5 5 7 13 13 13 30 30 32 30 30 30 31 31 29 41 41 41 47 47 47 47 47 47 48 48 48 49 49 49 48 48 48 48 48 48 48 48 48 46 48 47 34 34 36 30 30 30 18 18 18 19 19 19 11 11 11 5 5 5 2 2 2 1 1 1 0 0 0 1 1 1 
26 45 39 28 47 41 26 45 39 27 46 40 27 46 42 27 46 42 26 45 41 28 47 43 27 46 42 26 45 41 28 47 43 27 46 42 27 46 42 26 45 41 28 47 43 28 47 43 28 47 43 27 46 42 27 46 42 27 46 42 27 46 40 27 46 42 27 46 42 28 47 41 27 46 40 26 45 41 27 46 42 28 47 41 27 46 42 27 46 42 28 47 41 27 46 40 28 47 41 27 46 40 26 45 41 27 46 42 26 45 41 28 47 41 27 46 42 27 46 40 27 46 42 27 46 40 28 47 41 28 47 41 28 47 43 27 46 40 27 46 42 28 47 41 28 47 41 27 46 42 28 47 41 27 46 42 27 46 40 27 48 43 27 46 40 28 47 41 27 46 42 28 47 43 27 46 40 10 14 15 1 1 1 0 0 0 0 1 0 0 0 0 1 1 1 1 1 1 1 1 1 1 1 1 1 1 1 3 3 5 8 8 8 23 23 23 30 32 31 32 32 32 44 44 44 47 47 49 47 48 50 49 47 48 49 48 46 50 50 48 47 47 47 49 49 49 47 47 47 44 46 43 32 32 32 20 20 20 24 24 24 19 19 19 11 11 11 3 3 5 0 0 0 1 1 1 1 1 1 2 0 1 1 1 1 1 1 1 1 1 1 0 0 0 2 2 2 12 11 6 
27 47 38 27 46 42 26 45 39 27 46 40 28 47 41 26 45 39 28 47 41 28 47 41 28 47 41 27 46 40 27 46 40 27 46 40 28 47 41 28 47 41 27 46 42 27 46 42 27 46 42 27 46 40 27 46 40 28 47 43 27 46 42 25 44 38 27 46 40 28 47 41 29 48 44 28 47 41 27 46 42 27 46 42 26 47 42 25 46 39 28 47 41 27 46 42 27 46 40 27 46 42 27 46 40 28 47 41 26 47 42 28 47 43 26 45 41 26 45 39 27 48 41 27 46 40 27 46 42 27 46 42 28 47 41 26 45 39 27 46 40 28 47 41 27 46 42 27 46 42 26 45 41 28 47 41 27 46 40 28 47 41 28 47 43 27 46 40 27 46 40 28 47 41 18 27 24 1 1 1 0 0 0 2 2 4 6 6 6 6 4 5 14 14 14 27 27 27 38 36 37 35 35 35 41 41 41 46 46 46 48 48 48 48 48 48 49 49 49 49 49 49 47 47 47 45 45 45 42 42 42 43 40 35 20 20 18 15 15 15 17 17 17 12 12 10 5 5 5 2 2 4 1 1 1 1 1 1 1 1 0 2 2 2 1 1 1 0 0 0 0 0 0 1 1 1 1 1 1 1 1 1 1 1 1 2 2 2 1 1 1 1 1 1 6 5 1 49 44 22 
26 45 39 27 46 40 28 47 41 28 47 41 27 46 40 27 46 40 27 46 40 28 47 43 28 47 41 27 46 40 27 46 42 27 46 40 27 46 40 27 46 40 26 45 39 27 46 40 27 46 40 27 46 40 27 46 40 28 47 41 28 47 41 27 46 40 26 45 39 27 46 40 28 47 41 26 45 41 28 47 41 27 46 42 27 46 42 28 44 41 28 48 39 26 45 41 27 46 44 26 45 41 28 47 41 27 46 40 25 46 41 28 47 43 27 46 42 27 46 40 27 46 44 28 48 39 28 47 41 26 45 41 26 45 39 26 45 39 26 45 41 27 46 42 27 46 42 28 47 41 27 46 40 27 48 41 28 47 41 27 48 41 29 45 42 27 46 42 26 45 41 29 41 39 30 32 31 28 28 28 36 36 36 43 43 43 47 47 47 47 47 47 48 48 48 48 48 46 47 47 47 47 47 47 44 43 41 41 41 43 39 39 39 34 34 34 21 21 21 16 14 15 4 4 4 2 2 2 23 21 9 49 45 18 4 5 0 0 0 2 1 1 1 0 0 0 1 1 1 1 1 1 2 2 2 6 6 4 23 21 9 40 38 17 10 9 4 0 0 0 0 0 0 1 1 1 0 0 0 2 4 3 24 20 8 49 43 19 39 36 17 14 14 6 4 3 1 12 11 6 
27 46 40 27 46 42 27 46 40 26 45 41 28 47 41 27 46 42 27 46 40 28 47 41 27 46 42 26 45 39 27 46 40 26 45 39 27 46 40 27 46 40 27 46 40 28 47 41 27 46 40 27 46 40 27 46 40 27 46 40 28 47 41 27 46 40 27 46 40 27 46 42 28 47 43 27 46 40 27 46 42 28 47 43 27 46 40 28 45 39 28 47 41 29 45 42 28 47 41 27 46 42 27 46 40 27 46 42 27 48 41 27 46 40 26 47 42 27 46 42 26 47 42 27 46 42 27 46 40 27 46 42 27 48 41 27 46 40 30 47 41 27 46 40 28 47 41 26 45 41 27 46 40 27 46 40 28 47 41 27 46 42 27 46 42 27 44 38 30 41 37 45 47 46 48 48 46 49 49 49 47 47 47 46 46 46 35 35 35 34 34 34 29 29 31 18 18 16 9 9 9 11 11 11 4 4 4 2 0 1 2 4 3 1 1 1 0 0 0 1 1 1 1 1 1 5 5 3 49 43 19 23 19 8 0 2 1 1 1 1 1 1 1 1 1 0 1 1 1 6 5 1 44 38 16 52 46 22 43 38 18 23 19 10 5 5 3 0 0 0 0 0 2 1 1 0 1 1 1 32 26 12 50 44 20 20 17 8 20 20 10 48 42 20 44 39 17 9 8 4 
28 47 41 28 47 41 27 46 40 27 46 42 26 45 39 27 46 40 26 45 39 27 46 40 27 46 40 27 46 40 27 46 40 26 45 39 27 46 42 25 44 40 26 45 39 27 46 40 28 47 41 27 46 42 27 46 42 27 46 40 27 46 40 26 45 39 27 46 40 27 46 40 27 46 40 28 47 41 27 46 40 26 45 41 26 45 41 26 45 39 27 46 42 28 47 41 26 45 39 29 46 40 27 46 40 27 46 40 27 46 40 27 46 40 27 46 40 28 47 43 27 46 42 27 48 41 28 47 41 27 46 40 27 47 38 28 47 41 27 46 40 27 46 40 27 46 40 26 45 39 27 46 40 27 46 40 25 44 38 27 43 40 27 33 31 18 20 19 22 22 22 30 30 30 18 18 18 13 15 14 8 8 8 4 4 4 2 2 2 2 2 0 0 0 0 1 1 1 1 1 1 1 1 1 0 0 0 0 0 0 0 2 1 0 0 0 9 8 4 26 24 12 35 32 15 43 38 18 45 40 18 2 2 2 1 0 0 0 0 0 1 1 1 1 1 1 0 2 1 8 7 3 50 46 21 29 25 13 2 2 2 1 1 1 0 0 0 1 1 1 0 2 1 7 6 2 15 12 5 51 47 20 12 11 7 0 0 0 0 0 2 6 5 1 40 35 16 31 28 13 
27 46 40 27 46 40 27 46 40 28 47 43 26 45 39 27 46 40 26 45 39 27 46 40 28 47 41 28 47 41 28 47 41 27 46 40 27 46 42 27 46 42 27 46 40 28 47 41 27 46 40 27 46 42 27 46 42 28 47 41 27 46 42 26 45 39 27 46 40 28 47 41 27 46 40 27 46 40 27 46 40 28 47 41 28 47 41 27 46 42 27 46 40 28 47 41 26 45 39 27 46 40 27 46 42 26 47 40 27 46 40 28 47 41 28 47 41 26 45 41 27 46 40 27 46 42 26 45 39 28 47 41 27 46 40 25 44 38 23 40 34 20 35 32 18 31 24 10 19 16 8 14 12 8 12 11 6 8 7 9 9 9 3 3 3 1 1 1 0 0 0 19 16 7 8 8 6 0 0 0 1 1 1 1 1 1 1 1 3 0 0 0 1 1 1 0 0 0 1 1 0 0 0 0 1 1 1 0 0 0 0 0 0 1 1 1 40 35 16 40 35 16 32 29 14 29 23 11 13 13 5 1 1 1 0 0 0 1 1 1 1 1 1 0 0 0 0 0 0 1 1 1 32 29 14 53 47 23 10 9 4 0 2 1 0 0 0 1 1 0 7 8 3 51 43 20 50 44 22 30 28 13 2 2 0 1 1 0 0 0 0 0 0 0 8 7 3 11 10 5 
27 46 40 28 47 41 27 46 40 27 46 42 26 45 39 27 46 42 27 46 40 25 44 38 27 46 42 27 46 40 27 46 40 27 46 40 27 46 40 27 46 40 27 46 40 26 45 39 27 46 40 27 46 40 27 46 40 27 46 40 27 46 42 28 47 43 27 46 40 26 45 41 26 45 41 27 46 40 26 45 39 27 46 40 27 46 42 28 47 41 27 46 40 27 46 40 26 45 39 26 45 41 26 45 41 27 46 40 27 46 40 27 46 42 27 46 40 27 44 38 25 42 36 18 33 28 19 28 25 21 26 20 11 17 15 5 7 6 2 2 2 1 1 1 0 0 0 1 1 1 1 1 1 1 1 1 1 1 1 1 1 1 2 2 2 0 0 0 4 4 2 49 43 21 13 12 7 0 2 1 0 0 0 0 0 0 1 1 1 0 0 0 1 1 3 7 6 4 1 1 0 0 0 0 0 0 0 2 0 1 1 1 1 19 16 9 51 45 19 6 4 5 1 1 1 1 1 1 1 1 1 1 1 1 1 1 1 0 0 0 2 2 2 1 1 1 1 1 1 15 12 5 51 45 21 33 30 13 3 3 3 1 1 1 1 1 1 0 0 0 0 0 0 6 5 3 6 6 4 0 2 1 2 0 1 1 1 1 1 1 1 1 1 3 1 1 1 1 1 1 
27 46 42 26 45 39 28 47 41 28 47 41 26 45 39 26 45 39 27 46 40 28 47 43 26 45 39 26 45 39 26 45 41 27 46 40 27 46 40 26 45 39 26 45 39 27 46 40 27 46 40 27 46 40 28 47 41 28 47 41 27 46 42 28 47 41 27 46 42 27 46 40 26 45 39 27 46 40 27 46 40 27 46 40 27 46 40 30 47 41 28 47 43 27 46 42 26 45 39 26 45 39 26 45 39 26 41 34 20 32 28 18 27 24 9 13 12 6 8 7 4 2 3 3 3 3 29 25 13 48 42 20 4 4 2 1 1 1 0 0 0 1 1 1 0 1 0 0 0 0 1 1 1 0 2 1 2 0 1 1 1 1 0 0 0 0 0 0 5 6 1 51 45 21 6 5 1 1 1 1 0 0 0 1 1 1 0 0 0 1 1 1 6 5 3 44 42 19 5 5 3 0 0 0 1 1 1 1 1 3 0 2 1 40 35 16 29 27 12 1 1 1 0 0 0 1 1 1 2 2 2 1 1 1 1 1 1 1 1 1 1 1 1 1 1 1 0 0 0 2 2 0 8 7 3 1 1 0 1 1 1 0 0 2 1 1 1 1 1 1 1 1 1 0 0 0 0 0 0 1 1 1 2 2 2 3 1 2 4 6 3 11 11 11 10 10 10 22 22 20 
28 47 41 28 47 41 27 46 42 27 46 40 27 46 40 27 46 40 28 47 41 27 46 40 26 45 39 25 44 38 23 42 36 28 47 41 26 45 39 26 45 39 27 46 42 26 45 41 26 45 41 27 46 40 28 47 41 27 46 42 27 46 42 28 47 43 26 45 39 27 46 42 27 46 40 28 47 41 27 46 40 26 45 41 24 43 37 26 43 37 21 36 31 19 31 27 10 19 16 8 13 9 4 8 7 38 33 13 28 24 12 3 3 1 1 1 1 0 0 0 1 1 1 28 24 12 53 47 23 10 9 7 0 0 2 1 1 1 0 0 0 1 1 1 0 0 0 2 2 2 2 2 4 1 1 1 1 1 1 1 1 1 0 0 0 1 1 1 19 16 9 45 40 20 2 2 2 6 6 4 13 13 5 1 1 1 1 1 1 1 1 1 16 13 6 52 44 21 5 4 2 0 0 0 0 0 0 0 0 0 1 1 1 13 9 6 6 5 1 0 0 0 0 0 0 1 1 1 0 0 0 0 0 0 0 0 0 0 2 1 0 0 0 1 1 1 0 0 0 1 1 1 2 2 2 2 0 1 2 0 1 1 1 1 1 1 1 6 6 6 11 11 11 19 19 19 32 32 32 35 35 35 44 44 46 43 45 44 48 48 48 52 52 52 51 51 53 51 53 52 
27 46 40 26 45 39 27 46 40 27 46 40 26 47 40 27 46 40 28 45 39 22 33 29 8 12 11 16 16 8 4 6 5 9 15 15 17 28 24 22 39 33 24 41 35 26 45 39 25 44 40 27 46 40 26 45 41 27 46 40 26 45 39 26 45 39 27 44 38 23 42 36 24 39 34 19 31 27 12 21 18 6 10 9 5 5 5 2 2 2 1 1 1 9 5 2 37 31 15 2 2 2 1 1 1 37 31 15 30 24 12 0 0 0 0 0 0 0 0 0 0 0 0 32 29 14 47 42 20 16 13 8 0 0 0 1 1 1 0 0 0 2 2 2 0 0 0 25 23 11 41 36 17 2 0 1 0 0 0 0 2 1 1 1 3 0 0 0 20 17 10 52 46 22 42 37 18 49 43 21 30 26 15 1 1 1 0 0 0 1 1 1 37 32 13 37 34 15 1 1 1 1 1 1 1 1 1 0 0 0 0 0 0 1 1 1 1 1 1 0 0 0 1 1 1 1 1 1 1 1 1 0 0 0 0 0 0 1 1 1 1 1 1 0 0 0 2 2 2 5 5 5 12 12 12 26 26 26 25 25 25 36 36 36 41 41 41 51 51 51 51 51 51 53 53 53 54 54 54 53 53 53 52 52 52 53 53 53 53 53 53 53 53 53 54 54 54 53 53 53 
27 46 40 27 46 40 27 46 40 27 46 40 27 46 40 27 46 40 16 28 26 2 0 3 13 12 7 55 48 22 20 17 8 0 0 0 1 1 1 1 1 1 2 2 2 5 5 5 3 3 1 9 13 12 7 9 8 8 10 9 8 8 8 46 41 19 13 14 9 2 2 4 1 1 1 1 1 1 1 1 1 1 1 1 1 1 1 2 2 0 25 21 10 41 36 16 46 41 19 2 2 0 0 0 0 27 23 12 22 20 8 1 1 1 0 0 0 1 1 1 1 1 1 11 7 4 53 47 23 18 15 6 1 1 1 0 0 2 2 2 2 10 9 5 26 22 11 44 37 18 45 40 20 2 2 2 1 1 1 2 0 1 1 1 0 2 2 2 1 1 1 7 8 3 29 25 13 32 26 14 2 2 2 0 0 0 1 1 1 1 1 0 18 15 6 52 44 23 9 8 4 1 1 1 0 0 0 1 1 1 0 0 0 1 1 1 0 0 0 0 0 0 2 2 2 5 5 5 3 3 3 15 15 15 16 16 16 23 23 23 31 31 31 39 39 39 45 45 45 49 49 49 52 52 52 53 53 53 53 53 53 52 52 52 53 53 53 54 54 54 54 54 54 52 52 52 53 53 53 53 53 53 53 53 53 53 53 53 53 53 53 52 52 52 53 53 53 51 51 51 
27 46 40 26 45 39 26 45 39 26 45 39 28 45 39 27 46 40 6 10 9 1 1 0 1 1 1 25 21 10 6 5 1 1 1 1 1 1 3 0 0 0 0 0 0 0 0 2 1 1 1 0 0 0 0 1 3 1 1 1 20 17 8 46 41 19 4 2 3 1 1 1 2 0 1 0 0 0 0 0 0 1 1 1 1 1 1 6 7 2 54 47 21 39 33 17 15 12 5 0 0 0 1 1 1 1 1 0 1 1 1 0 0 0 1 1 1 1 1 1 1 1 3 37 31 15 30 27 12 1 1 1 0 2 1 0 0 0 12 11 6 52 46 22 42 35 17 24 22 10 4 4 2 1 1 1 1 1 1 0 0 2 1 1 1 2 0 1 0 0 0 1 1 1 2 2 2 1 1 1 1 1 0 2 0 1 1 1 1 1 1 1 5 3 4 38 32 16 51 43 20 9 8 4 0 0 0 2 2 2 6 6 6 14 14 14 25 25 25 29 29 29 38 38 38 30 30 30 41 41 41 52 52 52 53 53 53 52 52 52 54 54 54 56 56 56 53 53 53 53 53 53 52 52 52 53 53 53 52 52 52 54 54 54 52 52 52 54 54 54 53 53 53 55 55 55 53 53 53 53 53 53 53 53 53 53 53 53 54 54 54 53 53 53 52 52 52 52 52 52 
27 46 40 26 45 39 27 46 40 26 45 39 27 46 40 27 46 40 7 7 7 1 1 1 0 0 0 1 1 1 1 1 1 4 4 2 7 6 2 0 0 0 1 1 1 2 1 0 9 8 3 2 2 2 1 1 1 1 1 1 29 27 12 29 26 11 0 0 0 0 0 0 0 0 0 0 0 0 1 1 1 0 0 0 1 1 1 2 2 2 40 35 16 54 47 21 30 26 14 2 2 2 0 0 0 0 0 0 1 1 1 0 0 0 1 1 1 1 1 1 2 0 1 8 7 5 1 1 1 0 1 3 0 0 0 1 1 1 14 11 6 49 43 17 21 18 9 8 7 3 3 3 3 1 1 1 1 1 1 0 0 0 1 1 1 1 1 1 1 1 1 1 1 1 1 1 0 1 1 1 0 0 0 1 1 1 4 4 4 3 3 3 12 10 11 17 17 17 37 36 32 32 30 31 34 34 34 44 44 44 52 52 52 53 53 53 53 53 53 51 51 51 17 17 17 1 1 1 23 23 23 53 53 53 53 53 53 53 53 53 52 52 52 53 53 53 51 51 51 53 53 53 54 54 54 53 53 53 53 53 53 53 53 53 53 53 53 53 53 53 53 53 53 52 52 52 53 53 53 52 52 52 52 52 52 53 53 53 53 53 53 53 53 53 55 55 55 52 52 52 
27 46 40 28 47 41 27 46 40 27 46 40 28 44 41 27 46 40 13 24 20 2 0 1 1 1 1 1 1 1 5 4 2 50 42 19 17 14 7 1 1 0 1 1 1 2 2 2 37 31 15 32 29 12 1 1 1 5 4 0 41 36 16 23 21 9 1 1 1 1 1 0 1 1 3 1 1 1 0 0 0 1 1 1 1 1 1 0 0 0 1 1 0 11 10 6 19 16 7 0 0 0 0 0 0 1 1 1 23 20 11 26 24 11 0 0 0 0 0 0 1 1 1 0 0 0 0 0 0 1 1 3 1 1 1 0 0 0 1 1 1 21 17 6 45 38 19 49 43 19 14 13 8 0 0 0 2 2 2 2 2 2 2 2 2 3 3 5 5 5 5 9 9 9 11 11 11 20 20 20 25 27 26 30 30 30 35 35 35 36 35 33 44 44 44 52 52 52 53 53 53 53 53 53 55 55 55 51 51 51 53 53 53 52 52 52 53 53 53 51 51 51 29 29 29 11 11 11 34 34 34 52 52 52 53 53 53 52 52 52 53 53 53 54 54 54 51 51 51 52 52 52 53 53 53 53 53 53 53 53 53 53 53 53 52 52 52 53 53 53 52 52 52 52 52 52 53 53 53 53 53 53 53 53 53 52 52 52 53 53 53 53 53 53 53 53 53 53 53 53 
26 45 39 27 46 40 27 46 40 27 46 40 26 47 42 26 45 41 23 42 38 1 3 2 2 2 0 1 1 1 19 16 7 43 36 18 7 8 3 0 0 0 2 2 2 0 0 0 10 9 5 53 45 22 32 29 14 41 36 17 46 39 20 12 11 7 9 8 3 2 2 4 1 1 1 0 0 0 1 1 1 10 9 4 27 25 12 6 5 1 1 1 1 1 1 0 1 1 0 2 0 1 0 0 0 18 15 6 51 45 21 15 12 5 1 1 1 1 1 1 1 1 1 2 0 1 1 1 1 0 0 0 1 1 1 1 1 1 1 1 1 1 1 1 6 6 6 6 5 3 2 2 2 9 9 9 17 17 17 29 29 29 29 29 29 31 31 31 34 34 34 36 34 35 35 35 35 36 36 36 36 36 36 35 36 38 39 39 39 50 49 54 52 52 52 52 52 52 54 54 54 54 54 54 52 52 52 53 53 53 53 53 53 54 54 54 53 53 53 53 53 53 54 54 54 49 49 49 51 51 51 53 53 53 52 52 52 52 52 52 53 53 53 53 53 53 52 52 52 52 52 52 52 52 52 53 53 53 52 52 52 54 54 54 53 53 53 53 53 53 53 53 53 51 51 51 54 54 54 52 52 52 53 53 53 53 53 53 52 52 52 52 52 52 53 53 53 54 54 54 
26 45 39 27 46 40 25 44 38 27 46 40 26 45 39 27 46 40 26 45 41 12 21 16 1 1 3 1 1 1 20 17 10 52 46 22 53 46 20 26 22 10 0 0 0 0 2 1 1 1 1 15 12 5 33 30 15 34 28 12 10 9 4 33 30 13 52 46 20 36 30 14 4 5 0 1 1 1 2 0 1 43 38 18 47 42 20 52 46 20 18 15 8 0 0 0 1 1 1 1 1 1 1 1 1 20 17 8 28 26 14 1 1 0 0 0 0 1 1 1 1 1 1 3 3 3 7 7 7 13 15 14 16 16 16 22 22 22 26 26 26 25 25 25 16 16 16 5 5 5 22 22 22 33 33 33 36 36 34 35 35 35 35 35 35 35 35 35 36 36 34 35 35 35 35 35 35 36 36 36 35 35 33 40 40 40 49 49 49 54 54 54 53 53 53 52 52 52 53 53 53 52 54 53 51 51 51 53 53 53 52 52 52 53 53 53 53 53 53 53 53 53 53 53 53 53 53 53 52 52 52 53 53 53 53 53 53 53 53 53 53 53 53 52 52 52 53 53 53 53 53 53 53 53 53 53 53 53 51 51 51 52 52 52 52 52 52 53 53 53 52 52 52 52 52 52 52 52 52 52 52 52 53 53 53 53 53 53 54 54 54 53 53 53 52 52 52 53 53 53 
27 46 40 26 45 39 26 45 39 26 45 39 27 46 40 28 45 39 26 47 40 26 45 41 15 25 24 1 1 1 1 1 0 19 15 6 33 30 13 34 31 16 0 0 0 0 0 0 1 1 1 2 2 2 0 0 0 0 0 0 14 11 6 53 47 25 45 40 18 54 48 22 28 24 12 1 1 1 0 2 1 22 20 8 5 5 3 16 16 8 19 16 9 2 2 2 0 2 1 2 2 2 4 4 4 8 8 8 9 9 9 15 15 15 20 20 22 19 19 19 29 29 29 34 34 34 35 35 35 35 35 35 35 33 34 29 31 30 24 24 24 10 10 8 2 2 4 25 23 24 35 35 35 36 36 36 34 34 34 36 36 36 37 37 37 36 36 36 35 35 35 35 35 35 35 35 35 35 35 33 38 38 38 50 50 48 52 52 52 52 52 52 52 52 52 51 53 52 53 53 53 50 50 50 52 52 52 53 53 53 52 52 52 54 54 54 52 52 52 50 50 50 52 52 52 53 53 53 52 52 52 52 52 52 52 52 52 53 53 53 53 53 53 52 52 52 53 53 53 53 53 53 54 54 54 53 53 53 53 53 53 52 52 52 52 52 52 53 53 53 53 53 53 53 53 53 53 53 53 53 53 53 53 53 53 53 53 53 53 53 53 53 53 53 55 55 55 52 52 52 
