P3
100 50
255
29 50 43 29 48 42 29 48 42 29 50 43 30 49 43 29 48 44 29 50 45 29 48 44 29 48 44 30 49 45 28 49 42 29 48 44 30 49 43 29 48 42 28 49 42 29 48 42 29 48 42 29 48 42 30 49 43 30 51 44 29 50 45 29 50 43 29 50 43 29 50 43 29 50 43 30 49 43 30 49 43 28 49 44 29 50 43 27 48 41 28 49 42 28 49 42 30 51 44 28 49 42 29 50 43 28 49 42 29 50 43 30 49 43 29 50 43 30 49 43 30 49 45 29 48 42 28 49 44 29 49 40 28 49 42 28 49 42 29 50 43 29 50 43 28 49 42 28 49 42 28 49 42 28 49 42 29 50 45 28 49 44 29 50 43 28 49 40 30 49 45 28 49 44 29 50 43 28 47 41 30 51 44 29 48 42 28 49 44 30 49 45 28 49 44 27 48 43 28 49 44 29 48 42 30 49 43 29 48 42 29 48 42 30 49 43 29 48 42 30 49 43 29 48 42 29 48 42 29 48 44 28 49 44 29 50 45 29 48 44 30 49 45 28 49 44 29 48 44 29 48 44 29 48 42 28 49 42 29 48 42 29 50 43 29 50 43 28 49 42 30 51 44 27 50 42 29 50 45 28 49 42 30 49 43 28 49 44 29 48 44 30 49 43 28 49 42 28 49 44 
29 48 42 28 49 42 29 50 43 28 49 42 29 48 44 29 48 44 29 48 42 30 50 41 29 50 43 29 48 42 29 48 42 28 49 42 29 48 42 28 49 42 30 49 43 30 51 44 29 48 42 29 50 43 30 49 43 29 48 42 29 50 43 28 49 42 29 50 43 28 48 46 28 49 44 30 49 45 29 50 45 28 49 44 29 48 42 29 50 43 29 50 43 29 48 42 30 49 43 29 50 43 29 50 43 29 48 42 29 48 44 28 49 42 29 48 42 28 49 42 30 49 43 29 50 45 29 48 44 29 48 42 28 49 42 28 49 42 28 49 42 30 51 44 29 50 43 28 49 42 28 49 42 28 49 42 30 49 45 28 49 42 30 49 43 28 49 42 29 48 44 29 48 44 28 49 44 28 49 42 29 50 43 28 49 42 30 49 43 29 50 45 30 49 45 29 50 43 27 48 41 29 49 40 28 49 42 28 49 42 28 49 42 29 50 43 29 50 43 28 49 42 29 50 43 28 49 42 30 49 45 30 49 45 29 50 45 28 49 44 28 49 44 28 49 44 28 49 44 28 49 44 28 49 42 29 50 43 29 50 43 29 50 43 29 50 43 30 51 44 29 48 42 28 49 42 30 49 43 29 48 44 28 49 44 29 48 42 28 47 41 29 48 44 30 49 45 29 50 43 
29 48 42 30 49 43 30 49 43 29 48 42 29 48 42 30 49 43 29 48 46 29 50 45 30 49 45 29 48 42 30 49 43 28 49 44 29 50 43 28 49 42 30 49 43 28 49 42 30 51 44 30 49 43 29 48 42 29 50 43 30 49 43 28 49 42 28 49 42 29 48 42 28 49 42 29 48 42 29 48 42 28 49 42 28 49 42 30 49 43 29 50 43 29 48 42 31 50 44 28 49 42 29 48 42 28 49 42 30 49 43 29 50 43 30 49 43 30 49 43 29 50 43 29 48 42 30 49 43 29 48 42 28 49 42 29 50 43 28 49 42 29 50 43 29 50 43 28 49 42 29 50 43 29 50 43 30 49 45 30 49 45 29 48 44 28 49 44 29 50 45 31 48 42 28 49 42 28 49 42 30 50 41 29 50 45 29 48 44 29 50 43 29 48 42 29 50 45 30 49 43 30 49 43 29 50 43 29 50 43 28 49 42 29 50 43 29 50 43 29 50 43 29 50 43 28 49 42 28 49 42 28 49 42 29 48 42 30 49 43 28 49 42 29 50 43 29 50 43 28 49 42 28 49 42 29 48 42 29 50 43 30 49 43 30 49 43 30 49 43 29 48 42 29 48 42 29 48 42 27 48 43 28 49 44 29 50 43 28 49 42 29 48 44 28 49 44 28 49 42 
28 49 42 29 50 43 28 49 42 29 50 43 29 48 42 29 48 42 29 48 44 29 48 42 30 49 43 27 48 41 29 50 45 29 48 44 29 50 45 29 48 44 28 49 44 28 49 44 27 50 44 29 48 44 29 48 44 29 50 45 27 48 43 29 50 45 29 48 44 30 49 45 29 50 43 30 51 46 30 49 43 29 50 43 29 48 42 29 50 43 28 49 42 29 48 42 30 49 43 28 49 42 29 50 43 29 48 42 28 49 44 28 49 44 30 51 46 29 48 42 29 48 42 30 51 44 28 49 42 29 48 44 28 49 42 28 49 42 29 50 43 28 49 42 28 49 42 28 49 42 29 50 43 29 50 43 29 48 42 29 50 43 29 48 44 29 48 44 28 49 44 28 49 42 29 50 45 30 49 45 28 49 40 29 50 45 29 48 44 29 50 45 29 48 44 29 50 43 30 49 43 29 50 43 30 49 43 30 49 43 29 48 42 30 49 43 29 48 42 30 49 43 29 48 42 30 49 43 29 48 42 28 49 42 29 50 43 29 48 42 29 48 42 28 49 42 29 50 43 30 49 43 29 48 44 30 51 46 28 51 45 30 51 46 29 50 45 29 48 44 29 48 44 29 50 45 28 47 43 29 48 42 28 49 42 30 49 45 29 48 44 28 51 43 30 49 43 29 48 44 
29 48 44 29 48 44 29 48 44 29 48 44 30 49 45 30 49 45 30 49 45 30 49 45 30 49 45 30 49 45 30 49 45 30 49 45 30 49 45 30 49 45 30 49 45 29 48 44 30 49 45 30 49 45 28 47 43 28 47 43 30 49 45 29 48 44 30 49 45 30 49 45 29 48 44 29 48 44 29 48 44 29 48 44 29 48 44 29 48 44 28 47 43 28 49 44 29 48 44 30 49 45 29 50 45 29 48 44 29 50 45 29 48 44 29 48 44 29 48 44 29 50 45 29 50 45 28 49 44 29 48 44 29 50 45 28 49 44 29 50 45 29 50 45 28 49 44 29 50 45 28 49 44 29 50 45 29 50 45 30 49 45 29 50 45 29 50 45 31 50 46 30 49 45 28 49 44 30 49 45 28 49 44 30 49 45 29 50 45 29 50 45 29 48 44 29 50 45 28 49 44 29 48 44 29 48 44 30 49 45 29 48 44 30 49 45 30 49 45 30 49 45 29 48 44 29 48 44 30 49 45 30 49 45 29 48 44 29 48 44 29 48 44 30 49 45 29 48 44 29 48 44 29 48 42 30 49 45 29 48 42 29 48 44 29 48 42 30 49 45 29 48 42 30 49 45 29 48 44 28 49 44 30 49 45 31 50 46 30 49 45 29 48 44 28 49 44 30 49 45 
29 48 42 30 49 43 30 49 43 29 48 42 29 48 44 29 48 44 29 48 44 29 48 44 29 48 44 29 48 44 29 48 44 29 48 44 29 48 44 30 49 45 30 49 45 29 48 44 29 48 44 29 48 44 30 49 45 29 48 44 29 48 44 29 48 44 29 48 44 30 49 45 29 48 44 30 49 45 30 49 45 29 48 44 30 49 45 30 49 45 30 49 45 30 49 45 29 48 44 30 49 45 29 48 44 29 48 44 29 50 45 30 49 45 29 48 44 28 47 43 28 49 44 29 50 45 28 49 44 28 47 43 29 50 45 29 50 45 28 49 44 28 49 44 29 50 45 29 50 45 28 49 44 28 49 44 29 48 44 29 50 45 29 48 44 29 48 44 28 49 44 28 49 44 30 49 45 28 49 44 29 48 44 28 49 44 29 48 44 30 49 45 29 50 45 29 50 45 28 47 43 28 49 44 30 51 46 28 49 44 28 49 44 28 49 44 28 49 44 28 49 44 29 50 45 28 49 44 30 49 45 29 48 44 29 48 44 30 49 45 30 49 45 29 48 44 29 48 44 29 48 44 28 49 44 28 49 42 30 49 45 29 48 42 29 48 44 30 49 43 29 48 44 29 48 42 29 48 44 29 50 45 30 49 45 29 48 44 29 48 44 29 48 44 28 49 44 30 49 45 
30 49 45 29 48 44 29 48 44 29 48 44 29 48 44 29 48 44 29 48 44 29 48 44 29 48 44 29 48 44 29 48 44 29 48 44 29 48 44 30 49 45 28 47 43 29 48 44 30 49 45 29 48 44 29 48 44 31 50 46 30 49 45 29 48 44 29 48 44 29 48 44 31 50 46 29 48 44 29 48 44 29 48 44 29 48 44 29 50 45 29 48 44 29 48 44 28 49 44 30 49 45 28 47 43 28 49 44 29 50 45 29 48 44 29 48 44 29 48 44 29 50 45 28 49 44 28 49 44 29 48 44 29 48 44 30 49 45 29 48 44 29 48 44 30 49 45 30 49 45 29 48 44 29 48 44 28 49 44 29 48 44 29 50 45 27 48 43 30 49 45 29 48 44 29 50 45 30 49 45 29 48 44 29 50 45 29 48 44 29 48 44 28 49 44 29 48 44 29 48 44 29 50 45 29 48 44 30 49 45 29 48 44 29 48 44 29 48 44 30 49 45 29 48 44 30 49 45 29 48 44 29 48 44 29 48 44 29 48 44 29 48 44 29 48 44 29 48 44 28 47 43 29 48 42 28 47 43 29 48 42 29 48 44 29 48 42 29 48 44 28 49 42 28 49 44 28 47 43 29 50 45 30 49 45 29 48 44 29 48 44 29 48 44 30 51 46 28 47 43 
29 48 42 29 48 42 29 48 42 29 48 42 29 48 44 30 49 45 29 48 44 30 49 45 29 48 44 30 49 45 29 48 44 29 48 44 29 48 44 29 48 44 29 48 44 30 49 45 29 48 44 29 48 44 29 48 44 30 49 45 29 48 44 29 48 44 29 48 44 30 49 45 29 48 44 29 48 44 29 48 44 30 49 45 29 48 44 28 49 44 29 48 44 29 48 44 30 49 45 28 47 43 30 49 45 29 48 44 28 49 44 29 48 44 29 48 44 29 48 44 29 50 45 28 49 44 28 49 44 29 48 44 29 48 44 29 48 44 30 49 45 30 49 45 29 48 44 29 48 44 29 48 44 29 48 44 29 48 44 28 49 44 30 49 45 30 49 45 29 50 45 28 49 44 30 49 45 29 50 45 28 49 44 30 49 45 29 48 44 28 49 44 29 48 44 30 49 45 28 49 44 30 49 45 28 47 43 29 48 44 30 49 45 28 47 43 30 49 45 31 50 46 29 48 44 29 48 44 29 48 44 29 48 44 28 47 43 29 48 44 29 48 44 29 48 44 30 49 45 31 50 46 29 48 42 30 49 45 29 48 42 30 49 45 29 48 42 30 49 45 30 49 43 29 48 44 29 48 44 28 49 44 29 48 44 29 48 44 29 48 44 29 48 44 28 49 44 30 49 45 
29 48 44 29 48 44 30 49 45 29 48 44 29 48 44 29 48 44 30 49 45 29 48 44 30 49 45 29 48 44 29 48 44 29 48 44 29 48 44 30 49 45 29 48 44 29 48 44 29 48 44 30 49 45 29 48 44 29 48 44 29 48 44 28 47 43 29 48 44 29 48 44 29 48 44 30 49 45 30 49 45 29 48 44 30 49 45 29 48 44 30 49 45 29 48 44 30 49 45 29 48 44 28 49 44 29 48 44 29 48 44 28 49 44 28 49 44 28 49 44 30 49 45 29 48 44 29 48 44 28 49 44 30 49 45 29 48 44 30 49 45 29 48 44 30 49 45 29 48 44 30 49 45 29 48 44 29 48 44 29 50 45 30 49 45 30 49 45 28 49 44 28 49 44 29 48 44 28 49 44 30 49 45 30 49 45 28 47 43 29 48 44 29 48 44 29 48 44 28 49 44 30 49 45 30 49 45 29 48 44 30 49 45 29 48 44 29 48 44 30 49 45 29 48 44 29 48 44 28 47 43 30 49 45 29 48 44 29 48 44 30 49 45 29 48 44 30 49 45 29 48 44 29 48 44 29 48 42 30 49 45 29 48 42 29 48 44 29 48 42 30 49 45 29 48 42 29 48 44 29 50 45 29 48 44 29 48 44 29 48 44 29 48 44 28 49 44 28 47 43 
29 48 42 29 48 42 29 48 42 29 48 42 29 48 44 29 48 44 29 48 44 29 48 44 29 48 44 29 48 44 29 48 44 29 48 44 29 48 44 29 48 44 29 48 44 29 48 44 29 48 44 29 48 44 29 48 44 30 49 45 30 49 45 29 48 44 29 48 44 29 48 44 29 48 44 29 48 44 29 48 44 29 48 44 28 49 44 29 48 44 29 48 44 29 50 45 28 47 43 29 48 44 28 49 44 30 49 45 29 48 44 29 50 45 30 51 46 28 49 44 30 49 45 30 49 45 30 49 45 28 49 44 29 48 44 30 49 45 30 49 45 29 48 44 30 49 45 29 48 44 30 49 45 30 49 45 29 50 45 29 48 44 28 49 44 29 50 45 27 46 42 29 48 44 28 49 44 29 48 44 29 48 44 29 48 44 29 48 44 30 49 45 29 48 44 29 48 44 27 46 42 29 48 44 29 48 44 30 49 45 29 48 44 29 48 44 29 48 44 29 48 44 29 48 44 29 48 44 30 49 45 30 49 45 29 48 44 29 48 44 29 48 44 29 48 44 29 48 44 30 49 45 30 49 45 29 48 42 29 48 44 29 48 42 29 48 44 29 48 42 28 49 44 29 50 43 29 48 44 28 49 44 30 49 45 29 48 44 30 49 45 29 48 44 27 48 43 28 47 43 
29 48 44 29 48 44 29 48 44 29 48 44 29 48 44 29 48 44 29 48 44 29 48 44 29 48 44 29 48 44 29 48 44 29 48 44 29 48 44 29 48 44 29 48 44 29 48 44 29 48 44 29 48 44 29 48 44 29 48 44 30 49 45 29 48 44 28 47 43 29 48 44 29 48 44 29 48 44 29 48 44 29 48 44 28 47 43 29 48 44 29 48 44 29 48 44 29 48 44 30 49 45 29 48 44 30 49 45 29 48 44 28 49 44 29 50 45 28 49 44 29 48 44 29 48 44 29 48 44 29 50 45 29 48 44 31 50 46 29 48 44 29 48 44 29 48 44 29 48 44 29 48 44 29 48 44 29 48 44 27 48 43 28 47 43 29 48 44 28 49 44 27 48 43 29 48 44 28 49 44 30 49 45 29 48 44 28 47 43 29 48 44 28 47 43 29 48 44 29 48 44 30 49 45 29 48 44 29 48 44 29 48 44 28 47 43 30 49 45 29 48 44 30 49 45 29 48 44 29 48 44 29 48 44 29 48 44 30 49 45 30 49 45 30 49 45 29 48 44 29 48 44 28 49 42 28 49 44 29 48 42 29 48 44 29 48 42 29 48 44 29 48 42 29 48 44 29 48 44 29 50 45 29 48 44 29 48 44 30 49 45 29 48 44 28 49 44 29 48 44 
29 48 42 30 49 43 29 48 42 29 48 42 29 48 44 29 48 44 29 48 44 29 48 44 29 48 44 29 48 44 29 48 44 29 48 44 29 48 44 29 48 44 29 48 44 29 48 44 30 49 45 29 48 44 29 48 44 29 48 44 29 48 44 30 49 45 29 48 44 29 48 44 29 48 44 29 48 44 29 48 44 29 48 44 29 48 44 29 50 45 29 48 44 29 48 44 28 49 44 29 48 44 29 48 44 29 48 44 29 48 44 28 49 44 28 49 44 28 49 44 29 48 44 29 48 44 29 48 44 29 50 45 29 48 44 29 48 44 29 48 44 30 49 45 29 48 44 29 48 44 29 48 44 29 48 44 28 49 44 30 49 45 29 50 45 28 49 44 29 48 44 30 49 45 28 49 44 29 48 44 29 48 44 30 46 43 29 48 44 30 49 45 29 48 44 29 48 44 29 48 44 29 48 44 29 48 44 29 48 44 29 48 44 29 48 44 29 48 44 29 48 44 29 48 44 29 48 44 31 50 46 28 47 43 30 49 45 28 47 43 28 47 43 30 49 45 29 48 44 29 48 44 29 48 44 30 49 43 29 48 44 29 48 42 30 49 45 29 48 42 30 49 45 29 48 42 29 48 44 29 50 45 29 48 44 29 48 44 29 48 44 29 48 44 28 49 44 29 48 44 
29 48 42 30 49 43 29 48 42 29 48 42 29 48 42 29 48 42 30 49 43 30 49 43 29 48 42 29 48 42 28 47 41 29 48 42 29 48 42 29 48 42 29 48 42 29 48 42 29 48 42 29 48 42 29 48 42 29 48 42 29 48 42 29 48 42 30 49 43 29 48 42 29 48 42 28 47 41 30 49 43 29 48 42 30 49 43 29 48 42 29 48 42 29 48 42 29 48 42 29 48 42 30 49 43 29 48 42 30 49 43 29 48 42 29 48 42 28 47 41 29 48 42 29 48 42 30 49 43 29 48 42 29 48 42 29 48 42 29 50 43 30 49 43 30 49 43 28 47 41 29 50 43 29 50 43 28 47 41 28 49 42 30 49 43 28 49 42 27 48 41 28 47 41 29 50 43 30 49 43 28 47 41 29 48 42 29 48 42 28 49 42 29 48 42 29 48 42 29 48 42 29 50 43 29 48 42 29 48 42 29 48 42 30 49 43 29 48 42 29 48 42 29 48 42 29 48 42 29 48 42 28 49 42 28 47 41 28 49 42 28 49 42 30 49 43 28 49 42 30 49 43 29 48 42 30 49 43 30 49 43 30 49 43 29 48 42 29 48 42 30 49 43 28 47 41 29 48 42 29 48 42 29 48 42 28 49 42 30 49 43 29 50 43 28 47 41 29 48 42 
29 48 42 29 48 42 28 49 42 29 48 42 28 47 41 30 49 43 30 49 43 29 48 42 29 48 42 29 48 42 29 48 42 31 50 44 29 48 42 29 48 42 29 48 42 27 48 41 28 47 41 29 48 42 29 48 42 29 48 42 31 50 44 29 48 42 28 49 42 31 50 44 29 48 42 28 49 42 29 48 42 30 49 43 29 48 42 28 47 41 30 49 43 29 48 42 29 48 42 29 48 42 29 48 42 29 48 42 29 48 42 29 48 42 28 47 41 28 49 42 30 51 44 29 48 42 29 48 42 28 47 41 29 48 42 29 48 42 29 50 43 29 50 43 29 50 43 29 48 42 30 49 43 28 47 41 28 49 42 29 50 43 29 48 42 28 49 42 28 49 42 29 48 42 28 49 42 28 49 42 29 50 43 27 46 40 29 48 42 29 48 42 27 48 41 29 48 42 29 48 42 30 49 43 30 49 43 29 48 42 29 48 42 29 48 42 29 48 42 29 48 42 29 48 42 30 49 43 29 48 42 29 48 42 29 48 42 29 48 42 29 48 42 29 48 42 29 48 42 29 48 42 29 48 42 30 49 43 28 47 41 30 49 43 30 49 43 29 48 42 30 49 43 29 48 42 28 49 42 28 47 41 29 48 42 29 48 42 29 48 42 28 49 42 29 48 42 28 49 42 
29 48 42 29 48 42 27 46 40 29 48 42 30 49 43 30 49 43 28 47 41 29 48 42 28 47 41 28 47 41 29 48 42 29 48 42 29 48 42 29 48 42 28 49 42 30 49 43 28 49 42 29 48 42 30 49 43 29 48 42 29 48 42 27 48 41 29 48 42 28 49 42 29 50 43 29 48 42 29 50 43 29 48 42 30 49 43 28 47 41 29 48 42 30 49 43 28 47 41 29 48 42 30 49 43 29 48 42 28 49 42 28 49 42 29 48 42 29 48 42 29 48 42 29 48 42 28 49 42 28 49 42 29 48 42 29 48 42 29 48 42 30 49 43 29 48 42 28 49 42 29 48 42 29 48 42 29 48 42 28 49 42 29 48 42 29 48 42 30 49 43 30 49 43 28 49 42 28 47 41 29 50 43 29 48 42 29 48 42 29 48 42 28 49 42 29 48 42 29 48 42 29 48 42 29 48 42 29 48 42 28 49 42 29 48 42 28 49 42 29 48 42 28 49 42 29 48 42 29 48 42 29 48 42 28 49 42 29 48 42 29 48 42 28 49 42 30 49 43 29 48 42 29 48 42 30 49 43 29 48 42 30 49 43 29 48 42 30 49 43 29 48 42 29 48 42 30 49 43 29 48 42 29 50 43 29 48 42 31 48 42 29 48 42 30 49 43 30 49 43 
26 47 40 30 49 43 30 49 43 29 48 42 29 48 42 29 48 42 29 48 42 29 48 42 29 48 42 30 49 43 29 48 42 29 48 42 30 49 43 28 49 42 29 48 42 28 49 42 28 47 41 28 49 42 29 48 42 29 48 42 28 49 42 29 48 42 28 49 42 29 48 42 29 48 42 27 48 41 29 48 42 28 49 42 28 47 41 29 48 42 29 48 42 28 47 41 29 48 42 29 48 42 28 47 41 29 48 42 30 49 43 29 48 42 29 48 42 27 48 41 28 49 42 30 49 43 29 48 42 29 48 42 30 47 41 29 48 42 29 48 42 28 49 42 28 49 42 28 49 42 29 48 42 29 48 42 28 49 42 28 49 42 28 49 42 28 49 42 29 50 43 29 50 43 28 49 42 29 50 43 28 47 41 29 48 42 29 48 42 29 50 43 29 48 42 31 50 44 29 48 42 28 49 42 29 48 42 29 48 42 29 50 43 28 47 41 27 48 41 29 48 42 29 50 43 29 48 42 29 48 42 28 49 42 29 48 42 29 50 43 28 49 42 30 49 43 29 50 43 29 48 42 30 49 43 30 49 43 29 48 42 30 49 43 30 49 43 29 48 42 29 48 42 30 49 43 30 49 43 30 49 43 28 49 42 28 47 41 28 49 42 29 48 42 29 46 40 29 48 42 
30 49 43 28 47 41 28 49 42 29 48 42 30 49 43 29 48 42 29 48 42 29 48 42 29 48 42 28 47 41 28 47 41 28 47 41 29 48 42 29 48 42 28 49 42 29 48 42 27 48 41 29 48 42 29 50 43 29 48 42 29 48 42 29 48 42 30 49 43 29 48 42 29 48 42 29 48 42 31 50 44 30 49 43 29 48 42 29 48 42 29 48 42 29 48 42 28 47 41 28 47 41 30 49 43 29 48 42 28 47 41 28 47 41 29 50 43 29 48 42 28 47 41 28 49 42 28 47 41 29 48 42 29 50 43 29 50 43 28 47 41 29 48 42 29 48 42 28 49 42 29 48 42 28 49 42 29 48 42 28 47 41 29 48 42 29 48 42 29 48 42 29 48 42 29 48 42 28 47 41 30 51 44 30 49 43 28 47 41 29 48 42 28 49 42 29 48 42 29 48 42 29 48 42 30 49 43 29 48 42 28 49 42 28 47 41 28 49 42 28 47 41 28 49 42 29 48 42 29 48 42 28 47 41 30 49 43 30 49 43 29 48 42 29 48 42 29 48 42 29 48 42 30 49 43 29 48 42 29 48 42 29 48 42 30 49 43 29 48 42 28 47 41 29 48 42 28 49 42 28 47 41 29 48 42 31 48 42 29 48 42 29 48 42 28 49 42 27 48 41 
29 48 42 29 48 42 28 47 41 28 47 41 29 48 42 29 48 42 29 48 42 29 48 42 29 48 42 29 48 42 31 50 44 29 48 42 29 48 42 30 49 43 29 48 42 28 49 42 29 48 42 29 50 43 28 47 41 29 48 42 29 48 42 29 48 42 29 48 42 30 49 43 29 48 42 29 48 42 29 48 42 29 48 42 28 47 41 29 48 42 28 47 41 29 48 42 29 48 42 28 47 41 29 48 42 28 47 41 28 49 42 28 47 41 29 48 42 28 47 41 29 48 42 28 47 41 30 49 43 27 48 41 29 48 42 29 48 42 29 48 42 28 47 41 29 48 42 27 48 41 30 49 43 29 48 42 29 50 43 28 49 42 30 49 43 29 50 43 28 49 42 29 48 42 28 49 42 29 50 43 29 48 42 29 48 42 30 49 43 27 48 41 29 48 42 29 48 42 28 47 41 29 50 43 29 48 42 29 48 42 28 49 42 29 48 42 28 49 42 29 48 42 28 49 42 28 47 41 29 48 42 29 48 42 27 48 41 28 47 41 29 48 42 28 49 42 29 48 42 29 48 42 29 48 42 30 49 43 29 48 42 28 47 41 28 47 41 29 48 42 29 48 42 29 48 42 29 48 42 29 48 42 30 49 43 29 48 42 30 49 43 29 48 42 28 49 42 29 48 42 
28 49 42 30 49 43 29 48 42 28 49 42 29 48 42 28 47 41 30 49 43 29 48 42 29 48 42 29 48 42 28 47 41 29 48 42 29 48 42 29 48 42 28 47 41 29 48 42 27 48 41 29 48 42 29 48 42 29 48 42 29 48 42 29 48 42 27 48 41 29 48 42 28 47 41 28 49 42 28 47 41 30 49 43 30 49 43 28 47 41 29 48 42 29 48 42 29 48 42 29 48 42 30 49 43 28 47 41 28 47 41 29 48 42 29 48 42 30 49 43 29 48 42 28 47 41 28 47 41 29 48 42 29 48 42 31 48 42 29 48 42 29 48 42 28 47 41 28 47 41 30 49 43 29 50 43 29 48 42 27 48 41 29 48 42 29 48 42 29 48 42 29 48 42 28 49 42 29 48 42 30 49 43 29 48 42 28 47 41 28 49 42 29 48 42 29 48 42 28 47 41 28 49 42 29 48 42 29 48 42 28 47 41 30 49 43 28 47 41 29 48 42 30 49 43 28 47 41 26 47 40 30 49 43 28 49 42 29 48 42 30 49 43 28 49 42 29 48 42 29 50 43 28 47 41 29 48 42 30 49 43 28 47 41 29 48 42 30 49 43 28 47 41 30 49 43 28 47 41 28 49 42 29 48 42 28 49 42 26 49 41 29 48 42 29 48 42 29 48 42 
29 48 42 29 48 42 28 49 42 30 49 43 29 48 42 28 47 41 29 48 42 29 48 42 29 48 42 29 48 42 28 47 41 28 47 41 29 48 42 29 48 42 29 48 42 29 48 42 27 46 40 29 48 42 29 48 42 29 48 42 29 48 42 29 50 43 29 48 42 29 50 43 28 49 42 29 48 42 28 49 42 29 48 42 29 48 42 29 48 42 29 48 42 29 48 42 29 48 42 29 48 42 29 48 42 29 48 42 28 47 41 29 48 42 29 48 42 28 47 41 28 47 41 28 47 41 29 48 42 29 48 42 29 48 42 29 48 42 29 50 43 28 49 42 28 49 42 28 49 42 30 49 43 29 48 42 29 48 42 28 49 42 30 49 43 29 50 43 28 49 42 29 48 42 27 48 41 30 49 43 28 49 42 29 48 42 29 48 42 28 47 41 27 48 41 28 47 41 29 48 42 30 49 43 29 48 42 27 46 40 29 48 42 29 48 42 28 47 41 29 48 42 29 48 42 30 49 43 29 48 42 28 47 41 29 48 42 28 47 41 28 47 41 28 47 41 29 48 42 29 48 42 30 49 43 28 47 41 29 48 42 27 46 40 29 48 42 28 47 41 28 47 41 28 47 41 29 48 42 28 49 42 29 48 42 27 48 41 29 48 42 28 47 41 28 49 42 29 48 42 
29 48 42 29 48 42 29 48 42 29 48 42 29 48 42 30 49 43 29 48 42 29 48 44 29 48 42 29 48 42 29 48 44 29 48 42 30 49 43 30 49 43 29 48 42 29 48 42 29 48 42 29 48 42 29 48 42 29 48 42 28 47 41 30 49 43 29 48 42 29 48 42 29 48 42 30 49 43 29 48 42 30 49 43 30 49 43 29 48 42 29 48 42 30 49 43 29 48 42 29 48 42 30 49 43 30 49 43 29 48 42 29 48 42 30 49 43 28 47 41 29 48 42 29 48 42 29 48 42 29 48 42 29 48 42 30 49 43 28 47 41 28 47 41 29 48 42 28 47 41 28 47 41 29 48 42 29 48 42 29 48 42 29 48 42 28 47 41 29 48 42 29 48 42 29 48 42 28 47 41 29 48 42 29 48 42 29 48 42 29 48 42 29 48 42 30 49 43 29 48 42 29 48 42 29 48 42 30 49 43 28 49 42 29 48 42 28 49 42 29 48 42 29 48 42 29 48 42 29 48 42 29 48 42 29 48 42 29 48 42 29 48 42 28 47 41 30 49 43 30 49 43 29 48 42 29 50 45 28 49 44 28 47 41 29 48 42 29 50 45 28 49 44 29 48 42 28 47 41 28 47 41 29 48 42 30 49 43 29 48 42 29 48 42 29 48 42 28 47 41 
29 48 42 29 48 42 29 48 42 28 47 41 29 48 42 28 47 41 28 47 41 28 47 41 29 48 42 29 48 42 29 48 42 29 48 42 29 48 42 28 47 41 29 48 42 29 48 42 29 48 42 29 48 42 29 48 42 29 48 42 29 48 42 29 48 42 29 48 42 28 47 41 29 48 42 28 47 41 29 48 42 30 49 43 28 47 41 29 48 42 29 48 42 30 49 43 29 48 42 29 48 42 30 49 43 29 48 42 28 47 41 28 47 41 30 49 43 28 47 41 29 48 42 29 48 42 29 48 42 29 48 42 29 48 42 29 48 42 29 48 42 29 48 42 29 48 42 30 49 43 30 49 43 28 47 41 29 48 42 28 47 41 29 48 42 29 48 42 29 48 42 28 47 41 28 47 41 28 47 41 28 47 41 29 48 42 29 48 42 29 48 42 29 48 42 29 48 42 28 47 41 28 47 41 29 48 42 29 48 42 28 47 41 30 49 43 30 49 43 28 47 41 29 48 42 28 47 41 29 48 42 29 48 42 30 49 43 29 48 42 29 48 42 29 48 42 30 49 43 28 47 41 29 48 42 28 49 44 28 49 44 29 48 42 29 48 42 28 49 44 28 49 44 29 48 42 28 47 41 28 47 41 28 47 41 29 48 42 29 48 42 29 48 42 29 48 42 28 47 41 
28 47 41 29 48 42 29 48 42 29 48 42 28 47 41 28 47 43 30 49 43 29 48 42 29 48 44 28 47 41 28 47 41 28 47 43 28 47 41 29 48 42 29 48 42 29 48 42 29 48 42 29 48 42 30 49 43 28 47 41 29 48 42 29 48 42 28 47 41 28 47 41 29 48 42 29 48 42 28 47 41 29 48 42 29 48 42 28 47 41 28 47 41 29 48 42 29 48 42 29 48 42 28 47 41 29 48 42 28 47 41 29 48 42 29 48 42 30 49 43 28 47 41 29 48 42 30 49 43 28 47 41 28 47 41 29 48 42 29 48 42 29 48 42 29 48 42 29 48 42 29 48 42 29 48 42 29 48 42 30 49 43 29 48 42 27 46 40 29 48 42 30 49 43 30 49 43 29 48 42 29 48 42 28 47 41 29 48 42 29 48 42 29 48 42 29 48 42 29 48 42 29 48 42 29 48 42 29 48 42 28 47 41 28 47 41 28 47 41 29 48 42 28 47 41 29 48 42 28 47 41 28 47 41 29 48 42 29 48 42 28 47 41 29 48 42 29 48 42 29 48 42 29 48 42 28 47 43 29 48 44 29 48 42 28 47 41 29 48 44 29 48 44 29 48 42 29 48 42 29 48 42 29 48 42 29 48 42 28 47 41 29 48 42 29 48 42 29 48 42 
29 48 42 28 47 41 29 48 42 28 47 41 29 48 42 29 48 44 29 48 42 29 48 42 29 48 42 28 47 41 29 48 42 29 48 42 29 48 42 29 48 42 29 48 42 30 49 43 29 48 42 28 47 41 29 48 42 29 48 42 29 48 42 29 48 42 29 48 42 29 48 42 29 48 42 29 48 42 29 48 42 29 48 42 29 48 42 29 48 42 30 49 43 29 48 42 28 47 41 29 48 42 29 48 42 29 48 42 28 47 41 29 48 42 28 47 41 29 48 42 31 50 44 29 48 42 29 48 42 29 48 42 27 48 41 30 49 43 30 49 43 28 47 41 28 47 41 29 48 42 27 48 41 29 48 42 29 48 42 29 48 42 29 48 42 29 48 42 28 47 41 29 48 42 29 48 42 28 47 41 29 48 42 29 48 42 29 48 42 29 48 42 28 47 41 28 47 41 29 48 42 30 49 43 29 48 42 28 47 41 29 48 42 28 49 42 28 47 41 27 48 41 29 48 42 28 47 41 29 48 42 29 48 42 28 47 41 29 48 42 29 48 42 29 48 42 28 47 41 30 49 43 29 48 42 28 47 43 29 48 44 28 47 41 29 48 42 28 47 43 29 48 44 28 47 41 31 50 44 29 48 42 29 48 42 30 49 43 29 48 42 29 48 42 28 47 41 29 48 42 
29 48 42 29 48 42 29 48 42 29 48 42 28 47 41 28 47 41 29 48 42 28 47 41 28 47 41 28 47 41 29 48 44 29 48 42 29 48 42 29 48 42 28 47 41 29 48 42 27 46 40 28 47 41 29 48 42 29 48 42 28 47 41 29 48 42 29 48 42 29 48 42 29 48 42 28 47 41 28 47 41 29 48 42 29 48 42 28 47 41 28 47 41 29 48 42 28 47 41 29 48 42 28 47 41 28 47 41 28 47 41 29 48 42 31 50 44 29 48 42 28 47 41 27 46 40 29 48 42 28 47 41 28 49 42 29 48 42 29 48 42 29 48 42 29 48 42 29 48 42 27 48 41 28 47 41 29 48 42 28 47 41 29 48 42 30 49 43 28 47 41 27 46 40 29 48 42 31 50 44 28 47 41 29 48 42 29 48 42 29 48 42 28 47 41 29 48 42 29 48 42 28 47 41 28 47 41 28 47 41 28 47 41 29 50 43 29 48 42 28 49 42 28 47 41 29 48 42 29 48 42 28 47 41 28 47 41 28 47 41 28 47 41 28 47 41 29 48 42 28 47 41 30 49 43 29 48 44 29 48 44 28 47 41 29 48 42 30 49 45 30 49 45 28 47 41 30 49 43 29 48 42 29 48 42 29 48 42 28 47 41 29 48 42 29 48 42 28 47 41 
28 47 41 29 48 42 29 48 42 29 48 42 29 48 44 31 50 44 28 47 41 29 48 44 29 48 42 30 49 43 29 48 44 28 47 41 29 48 42 29 48 42 29 48 42 29 48 42 28 47 41 28 47 41 29 48 42 28 47 41 28 47 41 28 47 41 29 48 42 28 47 41 30 49 43 28 47 41 29 48 42 29 48 42 29 48 42 30 49 43 29 48 42 29 48 42 29 48 42 29 48 42 28 47 41 29 48 42 29 48 42 28 47 41 30 49 43 29 48 42 29 48 42 29 48 42 29 48 42 28 47 41 28 49 42 27 48 41 29 48 42 29 48 42 28 47 41 28 47 41 27 48 41 28 49 42 29 48 42 29 48 42 29 48 42 28 47 41 29 48 42 29 48 42 28 47 41 29 48 42 29 48 42 29 48 42 29 48 42 30 49 43 28 47 41 28 47 41 28 47 41 28 47 41 29 48 42 29 48 42 29 48 42 29 48 42 29 48 42 28 47 41 29 48 42 28 47 41 28 47 41 27 46 40 29 48 42 29 48 42 28 47 41 28 47 41 30 49 43 28 47 41 29 48 42 28 47 43 29 48 44 28 47 41 29 48 42 28 47 43 28 47 43 29 48 42 28 47 41 28 47 41 29 48 42 29 48 42 29 48 42 29 48 42 29 48 42 29 48 42 
28 47 41 29 48 42 29 48 42 30 49 43 29 48 42 29 48 42 28 47 41 27 46 40 29 48 42 28 47 41 29 48 42 29 48 42 29 48 42 29 48 42 30 49 43 29 48 42 29 48 42 29 48 42 29 48 42 28 47 41 29 48 42 28 47 41 29 48 42 29 48 42 28 47 41 28 47 41 29 48 42 29 48 42 29 48 42 29 48 42 29 48 42 28 47 41 29 48 42 29 48 42 29 48 42 28 47 41 29 48 42 29 48 42 30 49 43 30 49 43 30 49 43 28 47 41 29 48 42 29 48 42 28 47 41 28 47 41 27 48 41 28 49 42 28 49 42 28 49 42 28 47 41 28 47 41 29 48 42 30 49 43 30 49 43 30 49 43 28 47 41 28 47 41 30 49 43 29 48 42 29 48 42 29 48 42 29 48 42 28 47 41 28 47 41 29 48 42 30 49 43 28 47 41 29 48 42 29 48 42 29 48 42 29 48 42 29 48 42 29 48 42 28 47 41 29 48 42 28 47 41 28 47 41 28 47 41 28 47 41 29 48 42 29 48 42 28 47 41 27 46 40 27 48 41 29 48 44 29 48 44 28 49 42 27 48 41 28 47 43 28 47 43 28 49 42 29 48 42 29 48 42 28 47 41 28 47 41 30 49 43 29 48 42 29 48 42 30 49 43 
29 48 42 29 48 42 28 47 41 28 47 41 28 47 41 28 47 43 29 48 42 29 48 42 29 48 44 28 47 41 29 48 42 28 47 41 29 48 42 29 48 42 28 47 41 29 48 42 29 48 42 29 48 42 29 48 42 29 48 42 29 48 42 29 48 42 30 49 43 29 48 42 30 49 43 29 48 42 29 48 42 28 47 41 28 47 41 28 47 41 29 48 42 28 47 41 30 49 43 28 47 41 29 48 42 28 47 41 29 48 42 28 47 41 29 48 42 29 48 42 28 47 41 29 48 42 29 48 42 29 48 42 29 48 42 27 48 41 27 48 41 27 48 41 28 49 42 28 49 42 29 48 42 30 49 43 30 49 43 28 47 41 28 47 41 29 48 42 28 47 41 29 48 42 28 47 41 28 47 41 27 46 40 28 47 41 29 48 42 28 47 41 29 48 42 29 48 42 30 49 43 27 46 40 28 47 41 29 48 42 27 48 41 29 48 42 28 49 42 28 47 41 29 48 42 30 49 43 29 48 42 28 47 41 29 48 42 28 47 41 29 48 42 29 48 42 29 48 42 29 48 42 27 48 41 29 48 44 30 49 45 28 49 42 27 48 41 29 48 44 29 48 44 28 49 42 29 48 42 29 48 42 29 48 42 28 47 41 28 47 41 28 47 41 29 48 42 28 47 41 
29 48 42 29 48 42 28 47 41 29 48 42 28 49 44 30 49 45 28 47 43 29 48 44 28 47 43 29 48 44 29 48 44 30 49 45 29 48 44 29 48 44 29 48 44 29 48 44 28 47 43 29 48 44 28 47 43 28 47 43 29 48 44 28 47 43 29 48 44 28 49 44 29 48 44 27 48 43 29 48 44 28 47 43 28 47 43 28 47 43 29 48 44 28 47 43 28 47 43 28 47 43 29 48 44 29 48 44 28 47 41 29 48 42 29 48 42 28 47 41 29 48 42 28 47 41 30 49 43 29 48 42 29 48 42 28 47 41 28 47 41 29 48 42 28 47 41 28 47 41 29 48 42 29 48 42 29 48 42 29 48 42 29 48 42 29 48 42 29 48 42 28 47 41 29 48 42 29 48 42 29 48 42 29 48 42 28 47 41 28 47 41 28 47 41 29 48 42 29 48 42 30 49 43 28 47 43 28 47 43 28 47 43 28 47 43 28 47 43 28 47 43 28 47 43 28 47 43 28 47 41 28 47 41 28 47 41 29 48 42 29 48 42 29 48 42 28 47 41 30 49 43 29 48 44 29 48 44 28 47 43 29 48 44 29 48 44 29 48 44 29 48 44 30 49 45 29 48 42 29 48 42 29 48 42 30 49 43 29 48 42 28 47 41 28 47 41 28 47 41 
28 47 41 29 48 42 28 47 41 29 48 42 29 48 44 29 48 44 29 48 44 29 48 44 29 48 44 27 48 43 27 48 43 27 48 43 28 47 43 28 47 43 29 48 44 29 48 44 27 46 42 29 48 44 28 47 43 29 48 44 29 48 44 29 48 44 29 48 44 29 48 44 29 48 44 29 48 44 29 48 44 29 48 44 28 49 44 30 49 45 29 48 44 29 48 44 28 47 43 28 47 43 29 48 44 27 48 43 28 47 41 28 47 41 30 49 43 28 47 41 29 48 42 28 47 41 28 47 41 30 49 43 28 47 41 29 48 42 27 46 40 29 48 42 28 47 41 28 47 41 29 48 42 28 47 41 29 48 42 28 47 41 29 48 42 29 48 42 29 48 42 28 47 41 28 47 41 29 48 42 29 48 42 28 47 41 29 48 42 29 48 42 28 47 41 28 47 41 29 48 42 29 48 42 29 48 44 28 47 43 27 46 42 30 49 45 29 48 44 28 47 43 28 47 43 29 48 44 29 48 42 29 48 42 29 48 42 29 48 42 29 48 42 29 48 42 28 47 41 28 47 41 28 47 43 29 48 44 28 47 43 30 49 45 29 48 44 30 49 45 30 49 45 29 48 44 28 47 41 29 48 42 29 48 42 28 47 41 29 48 42 28 47 41 29 48 42 28 47 41 
29 48 42 30 49 43 28 47 41 29 48 42 28 47 43 28 47 43 29 48 44 29 48 44 28 47 43 30 49 45 28 47 43 29 48 44 30 49 45 29 48 44 28 47 43 30 49 45 30 49 45 29 48 44 29 48 44 28 47 43 28 47 43 29 48 44 28 47 43 27 46 42 28 47 43 29 48 44 28 47 43 29 48 44 28 47 43 29 48 44 29 48 44 27 48 43 27 48 43 28 47 43 29 48 44 28 47 43 29 48 42 28 47 41 29 48 42 28 47 41 29 48 42 29 48 42 28 47 41 29 48 42 28 47 41 29 48 42 29 48 42 28 47 41 30 49 43 29 48 42 29 48 42 28 47 41 28 47 41 28 47 41 29 48 42 30 49 43 29 48 42 30 49 43 28 47 41 28 47 41 29 48 42 27 46 40 29 48 42 30 49 43 29 48 42 28 47 41 29 48 42 28 47 41 29 48 44 29 48 44 28 47 43 29 48 44 29 48 44 29 48 44 29 48 44 29 48 44 28 47 41 29 48 42 28 47 41 29 48 42 28 47 41 30 49 43 29 48 42 28 47 41 29 48 44 29 48 44 29 48 44 28 47 43 28 47 43 28 47 43 28 47 43 28 47 43 30 49 43 28 47 41 29 48 42 29 48 42 28 47 41 29 48 42 30 49 43 28 47 41 
28 47 41 29 48 42 28 47 41 28 47 41 28 49 44 29 50 45 28 47 43 28 47 43 29 48 44 27 46 42 29 48 44 29 48 44 28 47 43 28 47 43 28 47 43 28 47 43 28 47 43 28 47 43 28 47 43 29 48 44 29 48 44 28 47 43 28 49 44 28 47 43 27 48 43 29 48 44 28 47 43 29 48 44 29 48 44 30 49 45 29 48 44 29 48 44 28 47 43 29 48 44 29 48 44 28 47 43 27 46 40 28 47 41 29 48 42 29 48 42 28 47 41 28 47 41 28 47 41 28 47 41 28 47 41 28 47 41 29 48 42 27 46 40 29 48 42 29 48 42 28 47 41 29 48 42 28 47 41 30 49 43 29 48 42 28 47 41 28 47 41 28 47 41 29 48 42 29 48 42 28 47 41 28 47 41 30 49 43 29 48 42 28 47 41 29 48 42 28 47 41 29 48 42 29 48 44 29 48 44 28 47 43 29 48 44 29 48 44 29 48 44 29 48 44 29 48 44 29 48 42 28 47 41 28 47 41 30 49 43 29 48 42 28 47 41 28 47 41 29 48 42 28 47 43 29 48 44 28 47 43 28 47 43 29 48 44 30 49 45 28 47 43 28 47 43 28 47 41 28 47 41 29 48 42 29 48 42 28 47 41 28 47 41 30 49 43 28 47 41 
28 47 41 29 48 42 28 47 41 29 48 42 29 48 44 29 48 44 29 48 44 28 47 43 28 47 43 28 47 43 27 48 43 28 49 44 30 49 45 28 47 43 29 48 44 29 48 44 29 48 44 29 48 44 28 47 43 28 47 43 30 49 45 28 47 43 28 49 44 28 47 43 27 48 43 28 47 43 30 49 45 29 48 44 29 48 44 29 48 44 29 48 44 29 48 44 28 47 43 29 48 44 28 47 43 28 47 43 28 47 41 29 48 42 29 48 42 28 47 41 29 48 42 28 47 41 28 47 41 29 48 42 30 49 43 28 47 41 28 47 41 28 47 41 28 47 41 30 49 43 27 46 40 28 47 41 30 49 43 28 47 41 29 48 42 29 48 42 28 47 41 29 48 42 29 48 42 29 48 42 29 48 42 29 48 42 29 48 42 29 48 42 28 47 41 28 47 41 28 47 41 29 48 42 29 48 44 28 47 43 28 47 43 28 47 43 29 48 44 29 48 44 28 47 43 28 47 43 29 48 42 29 48 42 28 47 41 29 48 42 29 48 42 29 48 42 28 47 41 28 47 41 29 48 44 28 47 43 27 46 42 28 47 43 28 47 43 28 47 43 28 47 43 28 47 43 28 47 41 28 47 41 28 47 41 29 48 42 28 47 41 29 48 42 28 47 41 29 48 42 
29 48 42 28 47 41 28 47 41 29 48 42 28 47 43 28 47 43 28 47 43 29 48 44 28 47 43 29 48 44 29 48 44 29 48 44 29 48 44 29 48 44 28 47 43 28 47 43 29 48 44 28 47 43 30 49 45 28 47 43 29 48 44 28 47 43 29 48 44 30 49 45 29 48 44 30 49 45 28 47 43 29 48 44 29 48 44 29 48 44 30 49 45 27 48 43 27 48 43 30 49 45 29 48 44 28 47 43 30 49 43 28 47 41 29 48 42 28 47 41 28 47 41 29 48 42 29 48 42 28 47 41 29 48 42 28 47 41 27 46 40 28 47 41 28 47 41 27 46 40 28 47 41 28 47 41 28 47 41 29 48 42 27 46 40 29 48 42 28 47 41 28 47 41 28 47 41 29 48 42 29 48 42 28 47 41 28 47 41 29 48 42 28 47 41 29 48 42 29 48 42 29 48 42 29 48 44 27 46 42 28 47 43 27 46 42 29 48 44 29 48 44 28 47 43 27 46 42 28 47 41 29 48 42 29 48 42 28 47 41 28 47 41 28 47 41 28 47 41 28 47 41 28 47 43 28 47 43 28 47 43 30 49 45 28 47 43 28 47 43 29 48 44 29 48 44 29 48 42 28 47 41 28 47 41 29 48 42 29 48 42 28 47 41 28 47 41 30 49 43 
29 48 42 29 48 42 30 49 43 28 47 41 28 49 44 27 48 43 29 50 45 29 48 44 29 48 44 28 47 43 29 48 44 28 47 43 28 47 43 29 48 44 29 48 44 29 48 44 29 48 44 28 47 43 29 48 44 30 49 45 28 47 43 29 48 44 29 48 44 29 48 44 30 49 45 30 49 45 29 48 44 29 48 44 28 49 44 29 48 44 29 48 44 29 48 44 29 48 44 29 48 44 28 47 43 27 48 43 28 47 41 28 47 41 30 49 43 28 47 41 28 47 41 28 47 41 28 47 41 28 47 41 28 47 41 28 47 41 28 47 41 29 48 42 28 47 41 29 48 42 29 48 42 29 48 42 27 46 40 29 48 42 28 47 41 28 47 41 28 47 41 29 48 42 29 48 42 29 48 42 28 47 41 29 48 42 29 48 42 29 48 42 28 47 41 28 47 41 29 48 42 28 47 41 29 48 44 28 47 43 28 47 43 28 47 43 29 48 44 29 48 44 28 47 43 28 47 43 28 47 41 28 47 41 28 47 41 29 48 42 29 48 42 29 48 42 29 48 42 29 48 42 28 47 43 29 48 44 28 47 43 28 47 43 29 48 44 28 47 43 29 48 44 29 48 44 28 47 41 28 47 41 28 47 41 28 47 41 28 47 41 29 48 42 28 47 41 28 47 41 
29 48 42 29 48 42 28 47 41 28 47 41 28 47 43 28 47 43 28 47 43 28 47 43 28 47 43 28 47 43 29 48 44 29 50 45 29 48 44 28 47 43 28 47 43 28 47 43 29 48 44 28 47 43 29 48 44 29 48 44 28 47 43 28 47 43 27 46 42 27 48 43 28 47 43 29 50 45 29 48 44 28 47 43 28 47 43 28 47 43 28 47 43 28 47 43 29 48 44 28 47 43 28 47 43 28 47 43 30 49 43 29 48 42 28 47 41 28 47 41 29 48 42 27 46 40 29 48 42 28 47 41 28 47 41 28 47 41 29 48 42 28 47 41 28 47 41 29 48 42 28 47 41 28 47 41 29 48 42 28 47 41 28 47 41 30 49 43 28 47 41 28 47 41 28 47 41 29 48 42 28 47 41 28 47 41 29 48 42 28 47 41 30 49 43 29 48 42 28 47 41 29 48 42 29 48 44 28 47 43 28 47 43 29 48 44 29 48 44 28 47 43 28 47 43 29 48 44 29 48 42 28 47 41 28 47 41 28 47 41 29 48 42 28 47 41 28 47 41 28 47 41 28 47 43 29 48 44 29 48 44 29 48 44 28 47 43 29 48 44 28 47 43 29 48 44 28 47 41 28 47 41 29 48 42 28 47 41 29 48 42 29 48 42 28 47 41 28 47 41 
28 47 43 28 47 43 26 45 41 28 47 43 28 47 43 27 48 41 29 48 44 29 48 42 28 47 41 29 48 44 27 48 41 29 48 44 29 48 44 29 48 44 28 47 43 28 47 43 29 48 44 29 48 44 28 47 43 29 48 44 28 47 43 28 47 43 29 48 44 27 46 42 29 48 44 29 48 44 29 48 44 28 47 43 28 47 43 28 47 43 29 48 44 29 48 44 28 47 43 29 48 44 28 47 43 29 48 44 27 48 43 28 47 43 28 47 43 29 48 44 30 49 45 30 49 45 29 48 44 27 48 43 27 48 43 29 48 44 29 48 44 27 48 43 30 49 45 27 46 42 28 47 43 29 48 44 28 47 43 27 46 42 28 47 43 29 48 44 27 46 42 30 49 45 28 47 43 29 48 44 30 49 45 29 48 44 29 48 44 28 47 43 29 48 44 28 47 43 29 48 44 29 48 44 28 47 43 28 47 43 29 48 44 27 48 43 28 47 43 28 47 43 27 48 43 28 47 43 29 48 44 30 49 45 27 48 41 28 47 41 29 48 44 27 46 42 29 48 42 27 48 41 29 48 44 29 48 44 28 47 43 28 47 43 28 47 43 28 47 43 28 47 43 29 48 44 29 48 44 28 49 44 27 48 43 29 48 44 29 48 44 28 47 43 28 47 43 28 49 44 
28 47 43 28 47 43 29 48 44 28 47 43 29 48 44 29 48 42 28 47 43 29 48 42 28 47 41 28 47 43 29 48 42 28 47 43 28 47 43 29 48 44 28 47 43 28 47 43 28 47 43 28 47 43 28 47 43 29 48 44 30 49 45 28 47 43 27 46 42 29 48 44 29 48 44 28 47 43 28 47 43 28 47 43 29 48 44 28 47 43 28 47 43 29 48 44 28 47 43 28 47 43 29 48 44 29 48 44 26 47 42 28 47 43 28 47 43 29 48 44 28 47 43 28 47 43 28 47 43 28 49 44 28 47 43 27 48 43 27 48 43 29 48 44 29 48 44 29 48 44 29 48 44 28 47 43 29 48 44 28 47 43 29 48 44 29 48 44 29 48 44 28 47 43 28 47 43 29 48 44 28 47 43 29 48 44 29 48 44 28 47 43 29 48 44 28 47 43 28 47 43 28 47 43 29 48 44 29 48 44 28 47 43 28 49 44 28 47 43 29 48 44 27 48 43 29 48 44 30 49 43 28 47 41 29 48 44 28 47 43 28 47 41 28 47 41 28 47 43 29 48 44 27 46 42 29 48 44 29 48 44 28 47 43 29 48 44 29 48 44 29 48 44 29 48 44 28 47 43 28 49 44 28 47 43 29 48 44 28 49 44 28 47 43 29 48 44 28 49 44 
28 47 43 29 48 44 29 48 44 28 47 43 28 47 41 28 47 43 28 47 41 28 47 43 29 48 44 28 47 41 29 48 44 28 47 41 29 48 44 26 45 41 28 47 43 28 47 43 28 47 43 28 47 43 29 48 44 29 48 44 28 47 43 29 48 44 28 47 43 28 47 43 28 47 43 29 48 44 29 48 44 28 47 43 29 48 44 29 48 44 27 46 42 28 47 43 28 47 43 28 47 43 28 47 43 29 48 44 27 48 43 28 47 43 28 47 43 29 48 44 29 48 44 28 47 43 28 47 43 28 49 44 29 48 44 29 48 44 28 47 43 27 46 42 28 47 43 29 48 44 28 47 43 29 48 44 28 47 43 28 47 43 28 47 43 27 46 42 28 47 43 28 47 43 28 47 43 29 48 44 28 47 43 28 47 43 29 48 44 28 47 43 28 47 43 28 47 43 28 47 43 28 47 43 29 48 44 28 47 43 29 48 44 28 49 44 29 48 44 28 47 43 28 49 44 28 47 43 29 48 42 28 47 43 28 47 41 28 47 41 29 48 44 29 48 44 29 48 42 29 48 44 28 47 43 29 48 44 28 47 43 28 47 43 29 48 44 28 47 43 28 47 43 29 48 44 28 47 43 28 49 44 28 47 43 28 47 43 27 48 43 28 49 44 29 48 44 28 47 43 
28 47 43 29 48 44 28 47 43 29 48 44 29 48 42 29 48 44 28 47 41 28 47 43 28 47 43 28 47 41 28 47 43 28 47 41 28 47 43 27 46 42 29 48 44 29 48 44 29 48 44 28 47 43 28 47 43 28 47 43 28 47 43 29 48 44 28 47 43 29 48 44 28 47 43 28 47 43 30 49 45 28 47 43 29 48 44 30 49 45 28 47 43 28 47 43 28 47 43 29 48 44 28 47 43 29 48 44 29 50 45 28 47 43 29 48 44 29 48 44 29 48 44 29 48 44 29 48 44 28 49 44 29 48 44 28 47 43 28 47 43 28 47 43 29 48 44 28 47 43 28 47 43 28 47 43 28 47 43 29 48 44 28 47 43 28 47 43 28 47 43 29 48 44 28 47 43 28 47 43 29 48 44 27 46 42 29 48 44 28 47 43 28 47 43 29 48 44 28 47 43 28 47 43 28 47 43 27 46 42 29 48 44 27 48 43 27 46 42 28 47 43 27 48 43 28 47 43 27 46 42 28 47 41 27 48 41 28 47 41 29 48 44 29 48 44 28 47 43 28 47 41 29 48 44 29 48 44 28 47 43 28 47 43 28 47 43 28 47 43 28 47 43 29 48 44 27 48 43 28 47 43 28 47 43 29 48 44 28 49 44 27 48 43 28 47 43 28 47 43 
28 47 43 29 48 44 29 48 44 28 47 43 28 47 41 29 48 44 28 49 42 29 48 44 28 47 43 28 49 42 28 47 43 28 47 41 29 48 44 29 48 44 29 48 44 29 48 44 28 47 43 29 48 44 28 47 43 29 48 44 30 49 45 28 47 43 28 47 43 29 48 44 28 47 43 28 47 43 28 47 43 28 47 43 29 48 44 28 47 43 28 47 43 29 48 44 29 48 44 29 48 44 28 47 43 29 48 44 26 47 42 28 47 43 29 48 44 29 48 44 29 48 44 29 48 44 27 46 42 27 48 43 27 46 42 29 48 44 29 48 44 28 47 43 28 47 43 28 47 43 28 47 43 29 48 44 29 48 44 28 47 43 28 47 43 29 48 44 29 48 44 29 48 44 29 48 44 28 47 43 28 47 43 28 47 43 28 47 43 29 48 44 29 48 44 28 47 43 29 48 44 27 46 42 28 47 43 29 48 44 29 48 44 27 48 43 28 47 43 28 47 43 27 48 43 29 48 44 29 48 42 28 47 41 28 47 43 29 48 44 28 47 41 26 47 40 29 48 44 28 47 43 28 47 43 29 48 44 28 47 43 28 47 43 28 47 43 28 47 43 29 48 44 28 47 43 28 49 44 28 47 43 28 47 43 28 47 43 28 47 43 27 48 43 28 47 43 28 47 43 
28 47 43 28 47 43 29 48 44 28 47 43 29 48 42 29 48 44 27 48 41 29 48 44 29 48 44 27 48 41 28 47 43 29 48 42 28 47 43 29 48 44 28 47 43 29 48 44 29 48 44 29 48 44 28 47 43 29 48 44 28 47 43 28 47 43 28 47 43 28 47 43 28 47 43 30 49 45 29 48 44 29 48 44 29 48 44 28 47 43 28 47 43 29 48 44 28 47 43 29 48 44 28 47 43 27 46 42 27 48 43 28 47 43 29 48 44 29 48 44 28 47 43 29 48 44 28 47 43 27 48 43 28 47 43 29 48 44 29 48 44 28 47 43 28 47 43 29 48 44 28 47 43 28 47 43 29 48 44 28 47 43 28 47 43 28 47 43 28 47 43 28 47 43 28 47 43 27 46 42 28 47 43 29 48 44 28 47 43 28 47 43 29 48 44 28 47 43 28 47 43 29 48 44 28 47 43 28 47 43 28 47 43 28 49 44 28 47 43 29 48 44 27 48 43 28 47 43 28 47 41 29 48 44 28 47 43 28 47 41 29 48 44 28 47 41 27 46 40 28 47 43 28 47 43 27 46 42 28 47 43 28 47 43 28 47 43 28 47 43 28 47 43 28 47 43 27 48 43 28 47 43 29 48 44 28 47 43 28 47 43 28 47 43 27 48 43 28 47 43 
29 48 44 28 47 43 28 47 43 28 47 43 29 48 44 29 48 42 29 48 44 29 48 42 27 46 40 29 48 44 28 47 41 28 47 43 27 46 42 27 46 42 28 47 43 29 48 44 28 47 43 28 47 43 29 48 44 28 47 43 29 48 44 28 47 43 29 48 44 29 48 44 28 47 43 29 48 44 28 47 43 28 47 43 29 48 44 28 47 43 28 47 43 29 48 44 28 47 43 29 48 44 29 48 44 28 47 43 27 48 43 28 47 43 28 47 43 28 47 43 29 48 44 28 47 43 28 47 43 27 48 43 29 48 44 29 48 44 28 47 43 28 49 44 28 49 44 28 47 43 28 47 43 27 48 43 28 47 43 28 47 43 29 48 44 28 47 43 28 47 43 29 48 44 28 47 43 28 47 43 29 48 44 28 47 43 28 47 43 28 47 43 27 46 42 28 47 43 29 48 44 29 48 44 29 48 44 27 46 42 28 47 43 27 48 43 28 47 43 28 47 43 29 50 45 28 47 43 28 47 43 28 47 41 30 49 43 29 48 44 28 47 41 29 48 44 28 47 43 29 48 42 28 47 43 29 48 44 28 47 43 29 48 44 28 47 43 28 47 43 29 48 44 28 47 43 27 48 43 29 48 44 28 47 43 27 48 43 29 48 44 28 47 43 28 49 44 28 47 43 
30 49 45 27 46 42 27 46 42 28 47 43 29 48 44 28 47 41 28 47 43 28 47 41 28 47 41 28 47 43 28 47 41 28 47 43 29 48 44 28 47 43 28 47 43 29 48 44 29 48 44 28 47 43 29 48 44 28 47 43 29 48 44 28 47 43 28 47 43 28 47 43 29 48 44 29 48 44 28 47 43 28 47 43 28 47 43 29 48 44 27 46 42 27 46 42 28 47 43 28 47 43 27 46 42 29 48 44 27 48 43 28 47 43 27 46 42 29 48 44 29 48 44 28 47 43 28 47 43 27 48 43 28 47 43 29 48 44 28 47 43 28 47 43 28 47 43 28 49 44 28 49 44 29 48 44 28 47 43 28 47 43 29 48 44 27 46 42 28 47 43 28 47 43 28 47 43 29 48 44 28 47 43 28 47 43 28 47 43 28 47 43 29 48 44 29 48 44 28 47 43 28 47 43 28 47 43 28 47 43 28 47 43 27 48 43 28 47 43 29 48 44 27 48 43 28 47 43 28 49 42 29 48 44 29 48 44 29 48 44 28 47 41 27 48 41 28 47 41 29 48 44 28 47 43 28 47 43 28 47 43 28 47 43 28 47 43 28 47 43 28 47 43 28 47 43 28 47 43 29 48 44 27 48 43 27 48 43 29 48 44 28 47 43 28 49 44 28 47 43 
29 48 42 28 47 41 28 47 41 28 47 41 27 46 42 28 47 43 29 48 44 29 48 44 28 47 43 29 48 44 28 47 43 29 48 44 29 48 44 28 47 43 28 47 43 28 47 41 28 47 43 29 48 42 29 48 42 29 48 42 29 48 42 28 47 43 28 47 43 28 47 43 28 47 43 28 47 43 29 48 44 28 48 39 29 48 42 28 47 41 29 48 42 28 47 41 29 48 44 28 47 43 29 48 44 29 48 44 28 47 41 28 49 44 28 47 41 28 47 43 28 47 43 29 48 42 28 47 43 28 47 41 28 47 43 28 47 43 28 47 43 29 48 44 28 47 43 28 47 43 28 47 43 28 47 43 28 47 43 28 47 41 28 47 41 28 47 43 28 47 43 28 47 41 28 47 41 29 48 44 29 48 44 29 48 44 28 47 43 29 48 44 28 47 43 28 47 43 28 47 43 28 47 43 28 47 41 27 46 42 29 48 42 28 47 41 27 46 42 28 47 43 28 47 41 29 48 44 29 48 44 28 47 43 29 48 44 28 47 43 29 48 44 28 47 43 29 48 44 28 47 43 27 46 42 28 47 43 28 47 43 28 47 43 29 48 44 28 47 43 28 47 43 29 48 44 28 47 43 28 49 44 29 48 44 29 48 44 28 47 43 28 47 43 29 48 44 29 48 44 
28 47 43 28 47 43 29 48 44 27 46 42 28 47 43 28 47 43 27 48 43 28 47 43 29 48 44 28 47 43 28 47 43 28 47 43 28 47 43 28 47 41 28 47 43 28 47 43 28 47 41 28 47 41 27 46 42 28 47 41 28 47 41 29 48 42 28 47 43 28 47 43 29 48 44 28 47 43 29 48 44 28 47 41 29 48 42 29 48 42 28 47 41 28 47 41 27 46 42 28 47 43 28 47 43 28 47 43 27 48 41 28 47 43 27 48 41 28 47 43 28 47 43 28 47 41 28 47 43 28 47 41 28 47 43 27 46 42 28 47 43 29 48 44 29 48 44 29 48 44 28 47 43 29 48 44 28 47 43 29 48 42 28 47 41 29 48 44 28 47 43 28 47 41 29 48 42 27 46 42 29 48 44 28 47 43 28 47 43 29 48 44 27 46 42 28 47 43 28 47 43 29 48 44 28 47 41 28 47 43 28 47 41 28 47 41 28 47 43 29 48 44 27 46 40 28 47 43 30 49 45 29 48 44 28 47 43 29 48 44 28 47 43 29 48 44 28 47 43 28 47 43 28 47 43 29 48 44 28 47 43 28 47 43 28 47 43 29 48 44 28 47 43 28 47 43 29 48 44 27 48 43 28 47 43 28 47 43 28 47 43 27 46 42 28 47 43 29 48 44 
28 47 41 28 47 41 28 47 41 29 48 42 27 46 42 28 47 43 27 48 43 28 47 43 29 48 44 27 46 42 28 47 43 28 47 43 28 47 41 28 47 41 29 48 42 30 49 43 29 48 44 29 48 44 28 47 43 29 48 44 30 49 43 28 47 41 29 48 42 28 47 43 28 47 43 27 46 42 28 47 43 29 48 44 28 47 41 28 47 41 28 47 41 29 48 42 28 47 43 28 47 43 29 48 44 28 47 43 28 47 41 27 48 43 28 47 41 28 47 43 29 48 44 27 48 41 28 47 43 27 46 40 28 47 43 28 47 43 29 48 44 28 47 43 28 47 43 28 47 43 28 47 43 28 47 43 28 47 43 27 46 40 28 47 41 28 47 43 29 48 44 29 48 42 28 47 41 29 48 44 29 48 44 29 48 44 28 47 43 27 46 42 28 47 43 28 47 43 28 47 43 29 48 44 28 47 43 28 47 41 29 48 44 28 47 43 29 48 42 28 47 41 27 46 42 28 47 41 30 46 43 29 48 44 28 47 43 29 48 44 27 48 43 28 49 44 28 47 43 29 48 44 28 47 43 28 47 43 29 48 44 28 47 43 28 47 43 28 47 43 28 47 43 29 48 44 29 48 44 26 47 42 28 47 43 28 47 43 28 47 43 29 48 44 29 48 44 28 47 43 
28 47 43 28 47 43 27 46 42 29 48 44 29 48 42 28 47 43 28 47 43 28 47 41 29 48 42 29 48 44 27 46 42 27 46 40 28 47 41 28 47 43 28 47 41 28 47 41 27 46 42 28 47 43 28 47 41 28 47 43 29 48 42 29 48 42 27 46 40 28 47 41 28 47 41 28 47 43 28 47 43 28 47 43 29 48 42 29 48 42 29 48 42 28 47 41 28 47 43 28 47 43 28 47 43 27 46 42 28 47 41 29 48 44 29 48 42 28 47 43 27 46 42 28 47 41 29 48 44 29 48 42 28 47 43 28 47 43 29 48 44 28 47 43 30 49 45 29 48 44 28 47 43 28 47 43 29 48 44 29 48 42 28 47 41 28 47 43 27 46 42 28 47 41 28 47 41 27 46 42 29 48 44 29 48 44 29 48 44 29 48 44 29 48 44 27 46 42 28 47 43 28 47 43 28 47 43 28 47 41 29 48 44 29 48 44 28 47 41 29 48 42 28 47 43 27 46 40 28 47 43 28 47 43 26 47 42 26 47 42 29 48 44 28 47 43 27 46 42 27 46 42 28 47 43 27 46 42 28 47 43 28 47 43 29 48 44 27 46 42 29 48 44 29 48 44 27 46 42 27 46 42 28 47 43 28 47 43 27 46 42 28 47 43 28 47 43 29 48 44 
27 46 40 28 47 41 29 48 42 28 47 41 28 47 41 29 48 44 29 48 44 28 47 41 28 47 41 27 46 42 28 47 43 28 47 41 28 47 43 28 47 41 27 46 42 28 47 43 28 47 41 29 48 42 28 47 43 28 47 41 28 47 41 29 48 42 28 47 41 28 47 41 28 47 41 27 46 40 28 47 43 28 47 43 29 48 42 28 47 41 29 48 42 28 47 41 29 48 44 28 47 43 29 48 44 29 48 44 28 47 41 28 47 43 29 48 42 28 47 43 27 46 42 30 49 43 29 48 44 27 46 40 27 46 42 28 47 43 28 47 43 28 47 43 29 48 44 28 47 43 28 47 43 29 48 44 28 47 41 28 47 43 28 47 43 28 47 41 29 48 42 28 47 43 28 47 43 29 48 42 27 46 40 29 48 42 29 48 42 28 47 41 28 47 41 29 48 42 28 47 41 28 47 41 28 47 43 28 47 41 29 48 44 29 48 44 28 47 41 28 47 41 28 47 43 29 48 42 27 48 43 28 47 43 29 48 44 28 47 43 29 48 44 28 47 43 28 49 44 27 46 42 28 47 43 28 47 43 28 47 43 29 48 44 28 47 43 27 46 42 28 47 43 28 47 43 28 47 43 27 46 42 30 49 45 29 48 44 28 47 43 28 47 43 28 47 43 26 47 42 
28 47 43 28 47 43 27 46 42 28 47 43 28 47 41 28 47 41 27 48 41 28 47 41 28 47 41 29 48 42 28 47 41 28 47 41 28 47 43 29 48 44 29 48 44 29 48 44 27 46 40 27 46 40 28 47 41 28 47 41 28 47 41 29 48 42 29 48 42 28 47 41 28 47 41 27 46 40 28 47 41 28 47 43 29 48 42 28 47 41 29 48 42 28 47 41 28 47 43 28 47 43 29 48 44 26 45 41 29 48 42 28 47 43 27 48 41 28 47 43 28 47 43 29 48 42 27 48 43 28 47 41 29 48 44 28 47 43 29 48 44 27 46 42 28 47 43 28 47 43 30 49 45 28 47 43 28 47 41 28 47 43 28 47 43 29 48 42 27 46 40 28 47 43 28 47 43 27 46 40 28 47 41 27 46 40 28 47 41 29 48 42 29 48 42 28 47 41 28 47 41 28 47 41 27 46 42 28 47 41 28 47 43 27 46 42 28 47 41 28 47 41 27 46 42 28 47 41 28 47 43 28 47 43 28 47 43 29 45 42 29 48 44 28 47 43 28 47 43 28 49 44 29 48 44 28 47 43 28 47 43 28 47 43 28 47 43 29 48 44 28 47 43 28 47 43 28 47 43 27 46 42 28 47 43 28 47 43 28 47 43 27 46 42 27 46 42 28 49 44 
