P3
100 50
255
57 53 28 58 54 25 57 53 26 54 50 23 57 53 26 53 46 20 56 52 23 57 52 23 53 52 24 55 51 24 55 51 22 53 49 22 58 52 26 57 53 28 57 51 25 57 53 26 57 51 25 59 55 28 40 39 18 24 22 10 6 6 4 6 6 4 2 2 0 3 3 3 2 2 2 2 2 2 2 2 2 1 1 1 2 2 0 2 2 2 3 1 2 2 2 2 1 1 1 2 2 4 2 2 2 1 1 1 2 2 2 2 2 2 1 1 1 3 1 2 1 1 1 2 2 2 2 2 2 2 2 0 2 2 2 3 1 2 1 1 1 2 2 2 2 2 2 2 2 2 3 3 3 2 2 4 1 1 1 13 18 21 37 52 57 37 52 57 37 52 57 37 52 57 34 52 56 35 53 57 36 54 58 35 53 57 35 53 57 35 53 57 35 53 57 35 53 57 35 53 57 35 53 57 37 52 57 36 54 58 35 53 57 35 53 57 35 53 57 35 53 57 37 52 57 34 52 56 36 54 58 35 53 57 36 51 56 37 52 57 36 51 56 35 53 57 37 52 57 35 53 57 36 54 58 35 53 57 36 51 56 37 52 57 36 54 58 35 53 57 34 52 56 38 53 58 36 51 56 36 54 58 35 53 57 35 53 57 38 53 58 37 52 57 35 53 57 35 53 57 
59 55 26 59 54 25 53 47 21 57 51 25 55 50 21 54 50 23 57 53 26 59 55 30 55 53 28 56 52 25 57 53 26 55 51 26 57 53 26 56 50 24 55 49 23 55 48 20 58 54 29 57 51 25 58 54 27 55 51 24 50 44 20 51 46 24 44 42 21 39 38 20 32 28 16 35 32 13 31 28 13 27 24 9 22 19 10 12 13 5 10 9 7 5 5 5 1 1 1 2 2 4 4 4 2 2 2 2 2 2 2 3 3 3 2 2 2 1 1 1 2 2 2 2 2 2 1 1 1 0 0 0 2 2 4 2 2 2 2 2 2 3 3 3 3 3 3 2 2 2 8 8 6 3 5 2 1 1 1 19 29 31 36 51 56 35 53 55 37 52 57 35 53 57 35 53 57 34 52 56 36 51 56 35 53 57 34 52 56 34 52 56 33 51 55 35 53 57 36 54 58 34 52 56 37 52 57 36 54 58 37 52 57 37 52 57 37 52 57 35 53 57 34 52 56 35 53 57 35 53 57 35 53 57 37 52 57 34 53 57 36 51 56 35 53 57 35 53 57 35 53 57 35 53 57 34 52 56 35 53 57 35 53 57 35 53 57 35 53 57 36 54 58 35 53 57 34 52 56 35 53 57 37 52 57 37 52 57 38 53 58 36 54 58 35 53 57 36 54 58 
55 53 28 56 51 22 57 51 25 56 51 22 57 53 26 56 52 25 56 50 24 59 55 28 56 51 22 53 47 21 58 54 27 56 52 27 55 49 23 57 52 23 59 55 28 56 50 24 53 49 22 57 55 30 55 50 21 55 51 24 57 53 28 54 49 19 56 51 22 57 51 25 56 50 24 53 50 17 55 51 24 55 51 24 56 52 25 54 53 25 54 50 21 50 46 19 45 43 22 37 34 15 35 32 13 22 22 12 25 22 13 29 27 15 30 28 15 16 16 6 7 8 3 6 7 2 5 5 3 13 12 7 16 16 8 10 11 5 8 9 4 11 10 5 18 15 8 28 26 11 35 32 13 18 15 8 1 1 1 26 37 39 34 52 56 34 53 57 37 52 57 33 51 55 35 53 57 37 52 57 37 52 57 36 54 58 35 53 57 35 53 57 35 53 57 34 52 56 35 53 57 33 51 55 36 51 56 35 53 57 35 53 57 37 52 57 35 53 57 36 54 58 36 54 58 38 53 58 35 53 57 36 51 56 35 53 57 36 54 58 35 53 57 35 53 57 34 53 57 37 52 57 34 52 56 36 54 58 35 53 57 35 53 57 35 53 57 35 53 57 35 53 57 35 53 57 36 54 58 35 53 57 35 53 57 36 51 56 37 52 57 37 50 56 34 52 56 34 52 56 
56 52 25 57 51 25 56 52 25 55 51 22 57 52 23 57 53 26 57 53 24 56 51 22 54 53 25 56 55 27 55 51 24 57 53 24 57 53 26 56 52 23 60 56 29 55 51 26 54 48 22 56 52 25 55 50 21 57 51 25 56 50 24 56 50 24 54 50 25 57 53 28 56 52 25 55 51 24 56 52 23 58 54 27 57 53 26 55 51 24 56 52 25 54 47 19 57 52 23 58 54 27 55 49 23 56 52 25 55 49 23 55 50 21 55 49 23 42 40 19 33 30 13 34 31 14 35 32 17 35 32 15 37 34 15 39 38 20 36 35 15 34 31 12 36 35 17 35 34 14 38 35 18 19 16 9 0 0 0 26 37 39 36 54 58 35 53 57 38 53 60 35 53 57 35 53 57 37 52 57 35 53 57 35 53 57 35 53 57 35 53 57 35 53 57 36 54 58 36 54 58 35 53 57 38 53 58 35 53 57 36 54 58 35 53 57 35 53 57 37 52 57 37 52 57 35 53 57 38 51 57 35 53 57 35 53 57 37 52 57 35 53 57 34 53 57 37 52 57 36 51 56 35 53 57 37 52 57 35 53 57 34 52 56 35 53 57 34 52 56 38 53 58 35 53 57 35 53 57 35 54 58 36 54 58 35 53 57 37 52 57 37 52 57 38 53 58 36 54 58 
55 51 24 55 51 24 58 54 25 58 54 27 57 52 23 56 52 23 57 53 26 56 49 21 56 55 27 55 50 21 58 54 29 57 52 23 55 51 22 55 51 24 56 52 27 58 52 26 58 54 25 58 54 27 57 47 22 56 52 23 56 52 25 57 53 26 59 55 30 56 55 27 56 52 23 58 54 27 57 53 26 56 51 22 57 51 27 56 50 24 57 53 28 57 53 26 56 52 25 53 49 22 56 50 24 55 49 23 58 54 29 55 49 23 54 48 22 41 38 19 38 37 17 38 35 16 39 36 19 38 35 16 37 34 15 37 36 16 38 37 19 38 35 16 37 34 17 38 35 18 37 34 15 15 15 7 1 1 1 26 37 41 36 53 60 36 51 56 35 52 59 36 54 58 36 51 56 35 53 57 36 54 58 35 53 57 35 53 57 36 54 58 35 53 57 35 53 57 36 54 58 36 54 58 35 53 57 35 53 57 37 52 57 35 53 57 35 53 57 36 54 58 37 52 57 35 53 57 34 52 56 37 52 57 35 53 57 36 54 58 35 53 57 34 52 56 35 53 57 37 52 57 37 52 57 35 53 57 35 53 57 34 52 56 37 52 57 37 52 57 34 52 56 35 53 57 37 52 57 35 53 57 35 53 57 35 53 57 35 53 57 37 52 57 35 53 57 36 54 58 
43 41 20 48 44 19 58 52 28 53 49 20 55 49 23 55 55 27 60 56 29 54 49 20 56 52 25 58 54 25 55 50 21 57 52 23 56 52 27 56 50 24 55 50 21 57 53 26 58 56 31 55 51 22 54 50 23 58 53 24 55 50 21 57 51 25 56 52 25 57 53 26 54 50 23 55 51 22 56 52 25 57 51 25 56 50 24 55 51 22 56 50 26 57 52 23 57 53 26 56 50 24 56 51 22 56 50 24 56 52 25 57 53 26 56 51 22 43 40 21 37 36 16 37 34 15 38 35 16 35 34 16 36 33 16 37 34 15 38 37 17 37 36 16 38 35 18 39 36 19 39 33 19 16 13 6 0 0 0 21 30 35 37 52 59 37 52 57 36 51 56 37 52 57 37 52 59 35 53 57 36 54 58 35 53 57 36 54 58 35 53 57 34 52 56 36 54 58 35 53 57 37 52 57 34 53 57 35 53 57 35 53 57 36 54 58 34 52 56 36 51 56 37 52 57 34 53 57 35 53 57 35 53 57 37 52 57 35 53 57 36 51 56 35 53 57 35 53 57 36 54 58 34 52 56 37 52 57 36 54 58 34 52 56 36 51 56 34 52 56 37 52 57 35 53 57 35 53 57 35 53 57 37 52 57 37 52 57 35 53 57 36 54 58 34 52 56 35 53 57 
2 2 0 6 6 4 18 15 8 23 23 11 29 27 14 44 39 19 44 42 19 33 30 15 26 24 11 44 42 21 55 51 26 50 48 23 52 46 24 55 49 23 57 53 26 57 53 28 55 49 23 56 52 25 53 49 22 58 54 27 56 51 22 56 50 24 55 54 26 55 51 22 57 51 25 54 48 22 55 49 23 56 50 24 56 52 23 58 52 26 56 50 24 56 52 25 54 48 24 56 55 25 56 50 24 57 51 27 55 49 23 58 54 27 54 48 22 42 39 20 36 33 16 38 35 16 37 36 18 39 36 19 38 37 17 36 35 15 38 33 14 37 34 17 38 32 16 38 35 16 38 35 16 14 14 6 0 0 0 26 37 41 35 53 57 35 53 57 36 54 58 37 52 57 36 54 58 34 52 56 35 53 57 35 53 57 36 51 56 38 53 58 34 52 56 37 52 57 36 51 56 34 52 56 34 52 56 36 54 58 35 53 57 35 53 57 35 53 57 34 52 56 35 53 57 35 53 57 34 52 56 35 53 57 35 53 57 35 53 57 34 52 56 34 52 56 35 53 57 35 53 57 37 52 57 35 53 57 34 52 56 34 52 56 37 52 57 35 53 57 37 52 57 35 53 57 35 53 57 35 53 57 35 53 57 35 53 57 35 53 57 35 53 57 35 53 57 35 53 57 
2 0 3 2 2 2 1 1 1 2 2 2 2 2 2 2 2 2 2 2 2 2 2 2 2 2 2 3 3 3 6 6 4 6 6 4 4 4 4 9 10 5 31 29 16 55 51 22 58 54 27 56 50 24 56 51 22 55 51 22 58 54 25 59 55 28 56 52 25 56 50 24 56 52 25 56 50 24 54 49 19 58 54 27 53 49 20 56 52 25 58 52 26 56 52 23 55 51 24 57 52 22 57 51 25 56 50 24 58 54 25 55 49 23 51 47 22 37 34 15 37 34 15 37 35 20 36 33 16 39 36 19 37 34 15 38 37 17 35 32 13 39 34 15 39 37 22 36 33 14 37 34 15 13 9 6 0 0 0 28 39 43 37 52 57 34 52 56 37 52 57 36 51 56 34 52 56 36 54 58 34 52 56 37 52 57 34 52 56 34 52 56 34 52 56 35 53 57 34 53 57 35 53 57 35 53 57 35 53 57 35 53 57 35 53 57 35 53 57 35 53 57 35 53 57 35 53 57 34 52 56 35 53 57 36 54 58 35 53 57 35 53 57 35 53 57 35 53 57 35 53 57 37 52 57 34 52 56 35 53 57 36 54 58 37 52 57 38 53 58 34 52 56 35 53 57 34 52 56 35 53 57 35 53 57 36 54 58 34 52 56 35 53 57 34 52 56 35 53 57 
2 2 2 2 2 2 2 2 2 1 1 1 2 2 2 2 2 0 1 3 2 3 1 2 2 2 2 2 2 2 2 2 2 3 1 2 2 2 2 3 1 2 4 4 2 48 43 21 57 53 26 57 53 24 55 51 22 55 51 24 57 53 26 54 50 23 57 53 26 52 48 23 53 49 22 48 44 19 52 48 23 53 52 24 56 51 22 56 51 21 56 52 25 56 52 25 57 56 28 53 47 21 55 51 24 59 53 27 59 55 28 58 52 26 51 45 21 40 37 18 36 33 14 37 36 16 36 33 14 35 34 14 36 33 14 37 34 17 38 35 18 40 39 19 36 33 14 39 33 17 37 34 19 15 12 5 1 1 1 31 45 48 35 53 57 34 52 56 35 53 57 34 52 56 37 52 57 35 53 57 35 53 57 35 53 57 35 53 57 36 51 56 34 52 56 37 52 57 36 51 56 35 53 57 35 53 57 35 53 57 35 53 57 35 53 57 35 53 57 35 53 57 34 52 56 35 53 57 34 52 56 34 52 56 35 53 57 35 53 57 34 52 56 34 52 56 35 53 57 34 52 56 35 53 57 36 54 58 37 52 57 37 52 57 34 52 56 34 52 56 34 52 56 36 51 56 35 53 57 35 53 57 34 52 56 34 52 56 35 53 57 35 53 57 34 52 56 35 53 57 
25 21 10 22 20 8 20 17 10 7 8 3 4 4 4 3 3 3 2 2 0 3 3 3 3 1 2 3 3 1 3 1 2 2 2 2 2 2 2 2 2 2 4 4 2 49 44 22 56 52 25 56 52 25 57 53 26 56 52 27 56 52 23 56 52 25 49 44 22 14 13 8 9 8 3 4 4 4 8 7 5 8 9 3 23 23 13 54 48 26 56 52 25 55 51 24 59 53 27 59 55 28 57 53 28 56 50 24 56 51 22 57 53 26 54 50 25 41 38 19 37 34 17 38 37 19 38 35 18 37 34 17 38 36 21 37 34 17 37 34 17 37 34 15 39 36 17 38 35 18 37 34 15 11 10 5 1 1 1 28 42 45 34 52 56 37 52 57 36 51 56 37 52 57 37 52 57 35 53 57 35 53 57 36 51 56 35 53 57 34 52 56 35 53 57 34 52 56 35 53 57 35 53 57 35 53 57 35 53 57 35 53 57 35 53 57 34 52 56 34 52 56 35 53 57 34 52 56 36 51 56 36 51 56 37 52 57 37 52 57 37 52 57 37 52 57 36 51 56 36 51 56 35 53 57 37 52 57 35 53 57 37 52 57 34 52 56 35 53 57 34 52 56 38 53 58 34 52 56 35 53 57 36 54 58 35 53 57 35 53 57 34 52 56 34 52 56 34 52 56 
54 50 21 56 52 23 55 51 22 51 47 22 47 45 22 43 41 20 43 38 19 48 43 21 46 44 21 45 40 18 45 43 20 31 28 13 34 31 16 37 35 20 42 40 19 55 51 24 58 54 27 54 50 21 53 47 21 55 51 24 55 50 21 55 49 23 46 44 23 3 3 5 2 2 2 2 2 0 2 2 2 2 2 2 3 3 5 21 21 13 57 51 25 58 54 29 54 49 20 54 50 23 57 55 30 54 48 22 56 51 22 57 52 30 56 52 25 45 42 23 37 36 18 36 33 16 39 36 19 38 35 16 35 32 13 36 35 17 38 35 16 38 35 20 39 36 19 39 36 17 36 33 16 7 8 2 2 2 2 31 45 48 35 53 57 35 53 57 37 52 57 35 53 57 37 52 57 35 53 57 35 53 57 36 51 56 35 53 57 35 53 57 36 54 58 35 53 57 36 54 58 36 54 58 36 54 58 35 53 57 35 53 57 36 54 58 36 54 58 35 53 57 35 53 57 35 53 57 34 52 56 35 53 57 35 53 57 34 52 56 34 52 56 35 53 57 35 53 57 34 52 56 34 52 56 36 51 56 35 53 57 37 52 57 34 52 56 35 53 57 35 53 57 37 52 57 35 53 57 35 53 57 35 53 57 35 53 57 35 53 57 35 53 57 35 53 57 35 53 57 
57 51 25 55 50 21 55 49 23 55 50 21 57 52 23 58 54 27 56 50 24 57 53 24 53 49 22 58 54 27 54 49 19 55 50 21 57 53 26 59 55 28 54 48 22 57 53 26 52 48 19 53 49 22 57 53 26 58 54 27 57 52 23 57 53 28 53 49 22 29 27 14 4 4 4 2 2 0 1 1 3 2 2 2 2 3 0 20 20 10 58 54 27 56 52 27 59 53 29 57 53 26 57 52 23 56 52 23 55 51 22 56 51 22 58 54 25 46 41 21 39 36 19 38 35 18 35 32 13 39 36 17 38 35 18 36 33 14 37 36 16 38 35 16 37 34 17 36 35 17 36 33 14 11 10 5 1 1 1 28 42 45 37 52 57 37 52 57 37 52 57 35 53 57 37 52 57 35 53 57 34 53 57 35 53 57 35 53 57 35 53 57 36 54 58 35 53 57 35 53 57 35 53 57 36 54 58 35 53 57 34 52 56 35 53 57 35 53 57 34 52 56 35 53 57 35 53 57 37 52 57 36 51 56 36 51 56 37 52 57 37 52 57 36 51 56 37 52 57 36 51 56 35 53 57 34 52 56 37 52 57 37 52 57 35 53 57 34 52 56 34 52 56 37 52 57 35 53 57 35 53 57 35 53 57 36 54 58 35 53 57 35 53 57 35 53 57 35 53 57 
57 52 23 57 53 26 56 52 25 53 53 25 57 53 26 56 52 25 55 54 26 57 51 25 55 51 24 54 48 22 56 50 24 56 52 25 56 52 25 58 54 25 56 51 22 58 52 26 56 55 27 52 48 21 55 51 22 59 52 24 57 52 23 54 50 21 59 55 28 55 51 24 45 44 23 36 30 16 34 31 14 23 21 9 31 27 15 51 46 24 56 55 27 56 55 25 55 49 23 59 55 28 56 50 24 53 49 20 56 51 22 57 52 23 54 49 20 44 42 21 38 35 16 37 34 15 40 37 18 36 35 15 35 32 13 35 32 13 39 33 17 37 36 18 35 32 13 36 33 14 36 33 16 15 15 7 0 0 0 25 36 40 33 52 56 35 53 57 35 53 57 38 51 57 35 53 57 34 52 56 37 52 57 37 52 57 37 52 57 35 53 57 35 53 57 34 52 56 37 52 57 35 53 57 34 52 56 35 53 57 34 52 56 35 53 57 35 53 57 34 52 56 35 53 57 34 52 56 34 52 56 34 52 56 34 52 56 33 51 55 34 52 56 35 53 57 34 52 56 34 52 56 36 51 56 35 53 57 34 52 56 35 53 57 37 52 57 37 52 57 34 52 56 35 53 57 37 52 57 34 52 56 33 51 55 34 52 56 37 52 57 37 52 57 36 54 58 34 52 56 
54 53 23 55 51 26 55 51 24 53 49 24 56 51 22 56 52 25 56 52 23 52 48 21 53 52 24 55 50 21 56 50 24 58 54 29 58 56 31 54 49 20 58 54 27 57 50 24 57 53 26 55 51 24 54 48 22 54 50 21 58 53 24 56 52 25 56 50 24 55 49 23 54 50 23 59 55 30 56 52 25 53 51 26 55 51 24 59 55 28 56 52 27 57 53 26 56 52 23 54 47 19 56 50 24 57 56 26 57 51 25 55 50 21 52 48 19 36 31 12 37 32 13 39 36 17 36 33 14 36 33 14 39 36 17 38 35 18 38 33 14 38 33 14 37 34 15 38 32 16 35 34 16 15 15 7 2 2 2 26 37 41 36 51 56 33 51 55 35 53 57 36 51 56 34 52 56 34 52 56 35 53 57 34 52 56 36 51 56 35 53 57 36 51 56 34 52 56 36 51 56 35 53 57 35 53 57 34 52 56 34 52 56 34 52 56 35 53 57 35 53 57 34 52 56 35 53 57 35 53 57 34 52 56 34 52 56 35 53 57 35 53 57 35 53 57 34 52 56 34 52 56 37 52 57 35 53 57 34 52 56 34 52 56 36 51 56 35 53 57 36 51 56 34 52 56 35 50 55 34 52 56 34 52 56 34 52 56 37 52 57 36 51 56 37 52 57 34 52 56 
57 53 26 58 52 26 55 49 23 53 49 22 57 53 26 56 52 25 56 54 29 57 53 24 58 54 29 56 52 23 57 51 25 56 50 24 56 52 25 53 49 22 56 52 25 55 49 23 56 52 25 55 50 21 55 53 28 54 49 20 52 45 17 59 55 28 58 54 27 57 49 28 56 52 25 56 52 25 56 52 25 59 55 28 57 56 28 54 50 21 55 51 24 58 54 25 56 52 25 56 52 23 55 51 24 57 53 28 59 53 27 55 51 24 51 47 22 36 35 17 35 32 13 37 34 15 38 35 18 40 37 20 39 34 15 38 35 16 36 34 13 34 31 12 38 35 18 37 34 15 38 35 18 11 10 6 2 2 2 32 47 52 35 53 57 35 53 57 35 53 57 34 52 56 34 52 56 37 52 57 37 52 57 37 52 57 37 52 57 37 52 57 37 52 57 36 51 56 36 51 56 36 51 56 36 54 58 33 51 55 35 53 57 35 54 58 33 51 55 34 52 56 35 53 57 34 52 56 33 51 55 36 51 56 37 52 57 36 51 56 34 52 56 34 52 56 35 53 57 37 52 57 36 51 56 37 52 57 36 51 56 36 51 56 37 52 57 35 50 55 37 52 57 37 52 57 35 53 57 37 52 57 35 53 57 34 52 56 35 53 57 34 52 56 36 54 58 34 52 56 
54 50 21 54 49 20 57 51 25 58 54 25 55 51 22 56 50 24 54 50 23 54 50 23 58 52 26 55 51 24 57 53 28 55 51 22 58 54 27 57 53 26 56 50 24 57 53 26 57 51 25 51 46 17 55 53 28 55 51 24 55 51 24 55 51 22 56 51 22 56 52 27 57 51 25 56 51 22 55 51 24 57 51 25 56 52 25 55 51 24 57 53 28 56 50 24 58 54 29 56 52 23 56 52 27 56 50 26 57 52 23 56 52 27 51 50 22 36 33 16 38 35 20 37 36 18 37 34 17 38 35 18 38 35 16 37 34 17 39 36 19 37 36 16 36 33 14 37 34 15 38 35 18 15 15 7 0 0 0 27 40 46 34 52 56 34 52 56 36 51 56 34 52 56 35 50 55 36 51 56 36 51 56 35 50 55 36 51 56 37 52 57 36 51 56 35 50 55 36 51 56 36 51 56 35 53 57 37 52 57 34 52 56 36 51 56 35 53 57 34 52 56 34 52 56 37 52 57 36 51 56 35 53 57 34 52 56 35 50 55 36 51 56 35 53 57 36 54 58 37 52 57 37 52 57 36 51 56 35 50 55 37 52 57 37 52 57 37 52 57 36 51 56 37 52 57 34 52 56 34 52 56 37 52 57 35 53 57 35 53 57 37 52 57 34 52 56 36 51 56 
44 42 21 54 49 29 40 35 13 41 39 18 52 48 21 52 46 22 47 43 18 51 47 22 53 47 21 48 44 19 51 49 26 50 46 21 41 36 17 45 43 22 53 49 24 58 54 27 56 52 25 54 48 22 56 52 23 58 54 27 53 49 20 57 53 28 58 53 24 52 46 20 55 54 26 57 53 26 56 52 25 56 52 27 55 51 24 54 50 23 56 52 25 54 50 21 55 49 23 52 48 21 56 50 24 57 53 26 56 51 22 56 52 25 51 47 22 38 35 18 37 34 17 38 35 16 38 33 14 37 34 15 36 33 16 36 33 18 38 35 18 37 34 17 39 36 19 37 34 17 36 33 14 16 13 6 1 1 1 30 41 45 35 53 57 36 51 56 35 53 57 34 52 56 36 51 56 37 52 57 37 52 57 37 52 57 38 53 58 36 51 56 36 51 56 37 52 57 37 52 57 38 53 58 37 52 57 35 53 57 34 52 56 35 53 57 37 52 57 34 52 56 36 51 56 34 52 56 37 52 57 34 52 56 35 53 57 35 53 57 36 51 56 36 51 56 37 52 57 34 52 56 37 52 57 36 51 56 38 53 58 36 51 56 37 52 57 36 51 56 37 52 57 36 51 56 35 53 57 35 53 57 37 52 57 35 53 57 35 53 57 37 52 57 34 52 56 36 51 56 
4 4 2 6 6 4 3 3 3 2 2 0 7 7 5 5 4 2 3 3 1 8 9 4 12 11 7 4 4 4 4 4 2 5 5 3 2 2 2 6 7 2 45 43 22 54 50 21 55 51 24 55 50 21 55 51 24 56 55 27 55 51 24 52 46 20 57 53 28 57 53 26 54 49 20 55 51 26 55 49 23 57 51 25 57 51 25 55 52 21 58 53 24 56 50 26 53 49 22 57 52 23 55 51 22 55 54 26 55 51 24 56 52 25 53 48 26 37 34 15 37 36 18 36 35 15 38 35 16 36 35 17 37 34 17 38 35 18 37 34 15 40 37 20 39 36 17 36 33 14 37 34 17 18 20 9 1 1 1 25 36 40 35 53 57 34 52 56 34 52 56 36 51 56 35 53 57 37 52 57 36 51 56 37 52 57 37 52 57 35 50 55 35 50 55 37 52 57 36 51 56 37 52 57 33 52 56 35 53 57 35 53 57 36 51 56 35 53 57 35 53 57 34 52 56 35 53 57 34 52 56 37 52 57 37 52 57 34 52 56 35 53 57 35 50 55 36 51 56 35 53 57 36 51 56 36 51 56 36 51 56 37 52 57 36 51 56 36 51 56 37 52 57 36 51 56 35 53 57 35 53 57 34 52 56 34 52 56 34 52 56 35 53 57 35 53 57 35 53 57 
2 2 2 2 2 2 3 3 3 2 2 2 2 2 2 3 3 3 1 1 3 1 1 1 1 1 1 2 2 2 2 2 2 1 1 1 3 1 2 2 2 2 31 25 13 53 49 22 57 53 28 57 51 27 55 51 24 57 51 25 55 51 24 56 52 25 55 51 22 54 48 22 57 53 26 54 48 22 55 49 23 55 48 22 57 51 25 55 49 23 55 49 23 57 53 26 55 51 22 54 53 25 58 52 26 57 53 26 57 51 27 56 52 23 53 48 26 38 35 16 37 32 13 39 36 21 37 34 15 39 36 19 37 34 17 38 35 20 37 34 17 37 34 17 36 30 14 28 26 13 21 21 11 8 8 6 1 1 1 25 39 42 34 52 56 34 52 56 34 52 56 35 53 57 34 52 56 34 52 56 37 52 57 37 52 57 37 52 57 37 52 57 36 51 56 37 52 57 37 52 57 37 52 57 37 52 57 35 53 57 34 52 56 34 52 56 35 53 57 36 51 56 32 50 54 34 52 56 36 51 56 34 52 56 34 52 56 36 51 56 37 52 57 35 53 57 34 52 56 37 52 57 36 51 56 36 51 56 36 51 56 36 51 56 37 52 57 36 51 56 37 52 57 36 51 56 35 53 57 35 53 57 35 53 57 34 52 56 36 54 58 34 52 56 35 53 57 34 52 56 
2 2 2 2 2 2 1 1 1 2 2 2 2 2 0 2 2 2 2 2 2 4 2 3 2 2 2 3 3 3 1 1 1 2 2 2 2 2 2 3 1 2 37 34 17 57 53 28 53 49 22 56 52 27 55 51 24 55 49 23 58 54 29 55 51 24 55 54 26 56 52 25 56 49 21 55 51 24 56 52 25 56 52 25 57 53 26 53 49 22 57 51 27 53 46 20 56 50 24 56 50 24 55 51 24 56 50 24 54 50 23 55 51 26 51 47 22 38 37 17 36 33 16 34 31 12 39 38 20 37 34 15 36 35 15 37 36 18 33 32 14 19 16 9 5 4 2 3 3 3 2 2 2 2 2 2 1 1 1 19 29 31 34 52 56 37 52 57 37 52 57 34 52 56 35 53 57 37 52 57 37 52 57 36 51 56 37 52 57 36 51 56 36 51 56 37 52 57 36 51 56 37 52 57 36 51 56 34 52 56 37 50 56 35 53 57 34 52 56 34 52 56 36 51 56 34 49 54 33 51 55 37 52 57 35 50 55 36 51 56 34 52 56 35 53 57 34 52 56 37 52 57 37 52 57 36 51 56 37 52 57 36 51 56 37 52 57 36 51 56 36 51 56 36 51 56 36 51 56 36 51 56 34 52 56 36 51 56 37 52 57 34 52 56 36 51 56 34 52 56 
2 2 2 2 2 2 2 2 2 2 2 2 2 2 2 2 2 4 2 2 2 2 2 0 2 2 2 2 2 2 2 2 2 2 2 2 3 3 1 15 12 5 51 49 24 55 51 24 56 51 22 55 51 24 55 49 23 55 50 21 59 55 28 54 50 25 55 51 26 55 50 21 59 53 27 55 51 24 55 51 26 58 52 26 56 52 25 57 53 26 57 53 26 55 51 22 58 54 27 54 53 23 55 51 22 59 55 28 57 53 26 57 52 23 50 46 21 37 34 15 37 34 15 36 33 16 37 34 17 36 35 17 29 27 14 13 13 5 6 4 5 1 1 1 2 2 2 2 4 3 4 2 5 3 3 1 2 2 2 21 31 33 35 53 57 37 52 57 36 51 56 34 52 56 34 52 56 35 53 57 36 51 56 37 52 57 36 51 56 36 51 56 37 52 57 36 51 56 36 51 56 36 51 56 36 51 56 37 52 57 35 53 57 35 53 57 36 54 58 37 52 57 34 52 56 35 50 55 34 52 56 38 53 58 37 52 57 36 54 58 36 54 58 37 52 57 36 51 56 35 53 57 36 51 56 37 52 57 37 52 57 36 51 56 36 51 56 37 52 57 36 51 56 37 52 57 37 52 57 36 51 56 34 52 56 36 51 56 36 51 56 35 53 57 35 50 55 35 53 57 
3 3 3 3 3 3 3 3 3 3 3 3 2 2 2 2 2 2 2 2 2 1 3 0 2 2 2 3 3 3 1 1 1 12 11 6 37 34 15 52 51 23 55 51 24 55 50 21 56 54 29 57 51 25 54 50 25 53 49 24 57 53 26 55 51 26 53 48 19 55 51 24 52 50 25 54 49 20 59 53 27 55 50 21 57 55 30 57 51 25 57 52 23 57 51 25 56 52 25 58 54 27 55 51 24 52 46 20 54 50 25 53 49 24 48 44 19 36 33 16 26 24 11 15 15 7 15 12 5 11 10 5 3 3 3 2 2 0 2 2 2 1 1 1 2 2 4 3 3 3 3 3 3 3 3 3 1 1 1 19 27 29 36 51 56 36 51 56 35 53 57 36 51 56 34 52 56 35 53 57 37 52 57 37 52 57 37 52 57 37 52 57 37 52 57 35 50 55 36 51 56 37 52 57 34 52 56 34 52 56 36 51 56 36 51 56 37 52 57 35 53 57 34 52 56 34 52 56 36 51 56 34 52 56 35 53 57 34 52 56 36 51 56 36 51 56 36 51 56 34 52 56 36 51 56 36 51 56 37 52 57 36 51 56 36 51 56 36 51 56 36 51 56 37 52 57 35 53 57 34 53 57 34 52 56 36 51 56 35 53 57 37 52 57 34 52 56 37 52 57 
2 2 2 3 3 3 1 1 1 1 1 1 2 2 2 2 2 2 1 3 2 2 2 2 2 2 2 6 7 2 34 32 17 50 48 23 56 52 25 55 54 26 54 50 23 53 49 22 54 50 21 53 49 22 54 48 22 54 50 23 58 54 27 55 49 23 58 54 27 55 51 24 54 50 23 55 51 24 57 53 24 53 52 24 55 51 22 55 51 22 51 44 16 52 47 25 52 46 24 43 41 20 37 36 18 24 25 11 21 23 10 11 12 6 7 7 5 8 8 6 3 3 1 1 1 1 2 2 2 1 1 1 2 2 2 2 2 2 2 2 2 2 2 2 3 3 3 3 3 3 3 3 3 3 3 3 2 2 2 17 24 30 37 52 57 36 51 56 34 52 56 35 53 57 33 52 58 34 52 56 34 52 56 33 51 55 34 52 56 34 52 56 35 53 57 34 52 56 35 53 57 35 53 57 36 51 56 35 53 57 37 52 57 33 51 55 37 52 57 35 53 57 35 50 55 37 52 57 37 52 57 37 52 57 36 51 56 36 51 56 37 52 57 37 52 57 37 52 57 37 52 57 34 52 56 35 53 57 34 52 56 35 53 57 37 52 57 36 51 56 36 51 56 36 51 56 35 53 57 37 52 57 33 51 55 36 51 56 36 51 56 35 53 57 36 51 56 34 52 56 
3 3 3 2 2 2 2 2 2 2 2 2 2 2 2 2 2 2 2 2 2 2 2 2 21 21 11 51 45 21 57 53 26 53 47 23 55 49 23 57 52 23 53 46 18 58 54 27 55 51 22 56 52 25 55 51 26 54 50 25 54 48 22 54 50 23 57 51 27 54 48 22 55 51 22 52 46 20 57 53 28 55 51 24 49 47 24 28 26 13 14 11 6 8 9 4 9 8 4 4 4 4 3 3 1 2 2 4 2 2 2 2 2 2 0 0 0 2 2 2 2 2 2 2 2 2 2 2 2 2 2 2 2 2 2 2 2 2 3 3 3 3 3 3 3 3 3 3 3 3 3 3 3 3 3 3 2 2 2 15 23 25 36 51 56 34 52 56 35 53 57 36 51 56 34 52 56 35 53 57 36 51 56 36 51 56 36 51 56 37 52 57 37 52 57 36 51 56 37 52 57 37 52 57 34 52 56 37 52 57 36 51 56 34 52 56 35 53 57 36 51 56 37 52 57 35 53 57 37 52 57 36 51 56 36 51 56 36 51 56 34 49 54 36 51 56 37 52 57 36 51 56 34 52 56 35 53 57 33 51 55 34 52 56 36 51 56 35 50 55 36 51 56 36 51 56 36 51 56 34 52 56 37 52 57 35 53 57 34 52 56 36 51 56 35 53 57 36 51 56 
2 2 2 3 3 3 2 2 2 3 3 3 2 2 0 13 12 7 21 21 9 35 32 15 52 48 23 51 47 20 55 49 23 54 54 28 54 53 25 55 51 24 55 51 24 56 52 25 56 52 27 59 55 30 59 53 31 56 50 26 56 50 24 55 49 23 56 52 23 54 50 23 53 49 22 58 53 24 55 51 24 55 51 24 22 22 12 1 3 2 2 2 2 1 3 2 2 2 2 2 2 2 2 2 0 2 2 2 2 2 2 2 2 2 2 2 2 2 2 2 2 2 2 2 2 2 2 2 2 2 2 2 3 3 3 3 3 3 3 3 3 3 3 3 2 2 2 2 2 2 3 3 3 3 3 3 3 3 3 16 21 24 34 52 56 36 51 56 35 53 57 33 52 56 33 51 55 34 52 56 34 52 56 34 52 56 35 53 57 35 53 57 34 52 56 35 53 57 35 53 57 35 53 57 37 52 57 37 52 57 35 53 57 36 51 56 34 52 56 37 52 57 35 53 57 34 52 56 36 51 56 36 51 56 36 51 56 37 52 57 36 51 56 36 51 56 37 52 57 36 51 56 37 52 57 36 51 56 36 51 56 35 50 55 35 53 57 34 52 56 35 53 57 35 53 57 36 51 56 35 53 57 36 51 56 34 52 56 35 53 57 37 52 57 34 52 56 36 51 56 
3 3 1 11 10 6 18 15 8 36 33 16 40 35 15 56 52 27 55 51 24 58 52 26 56 52 25 55 50 21 53 51 26 57 50 24 55 51 24 58 52 26 54 48 22 55 49 23 57 56 28 58 56 31 51 45 19 53 47 23 58 54 27 56 52 27 55 51 22 54 50 21 59 55 30 56 52 25 55 50 21 52 47 25 5 6 1 2 2 2 2 2 2 1 1 1 2 2 2 1 1 0 2 0 1 2 2 2 2 2 2 2 2 0 2 2 0 3 3 3 4 4 6 3 3 3 3 3 3 3 3 3 3 3 3 3 3 3 3 3 3 3 3 3 3 3 3 3 3 3 3 3 3 3 3 3 2 2 2 9 14 17 35 52 59 36 51 56 37 52 57 35 52 59 35 50 55 34 52 56 34 52 56 35 53 57 35 53 57 34 52 56 34 52 56 34 52 56 34 52 56 35 53 57 35 53 57 34 52 56 35 53 57 36 51 56 34 52 56 34 52 56 35 53 57 36 51 56 35 50 55 36 51 56 37 52 57 36 51 56 36 51 56 35 50 55 36 51 56 36 51 56 35 50 55 36 51 56 37 52 57 37 52 57 34 52 56 34 52 56 34 52 56 35 53 57 34 52 56 36 51 56 35 53 57 36 51 56 36 51 56 34 52 56 37 52 57 35 53 57 
42 39 20 52 48 23 55 51 24 56 52 25 52 46 20 56 52 25 57 51 25 55 51 24 57 55 30 54 50 25 55 53 28 55 51 24 54 49 20 57 53 26 56 52 23 56 54 29 57 53 26 56 52 25 57 55 30 53 47 23 58 52 28 56 52 25 54 53 25 57 53 24 54 50 21 55 49 23 57 53 26 55 51 24 15 12 5 2 2 2 2 2 4 2 2 2 2 2 2 2 2 2 2 2 2 2 2 2 3 3 3 3 3 3 4 4 4 3 3 3 3 3 3 3 3 3 2 2 2 3 3 3 3 3 3 3 3 3 3 3 3 3 3 3 3 3 3 3 3 3 3 3 3 3 3 3 2 2 2 9 13 14 36 51 58 34 52 56 34 52 56 33 50 57 34 52 56 34 52 56 34 52 56 34 52 56 33 51 55 33 51 55 35 53 57 33 51 55 34 52 56 34 52 56 37 52 57 36 51 56 37 52 57 35 53 57 36 51 56 37 52 57 37 52 57 35 53 57 36 51 56 36 51 56 37 52 57 36 51 56 36 51 56 37 52 57 36 51 56 36 51 56 36 51 56 36 51 56 37 52 57 36 51 56 33 51 55 34 52 56 33 51 55 34 52 56 35 53 57 35 50 55 34 52 56 36 51 56 36 51 56 35 53 57 37 52 57 34 52 56 
23 20 11 32 29 12 49 44 22 51 45 19 55 51 24 55 49 23 56 51 22 52 51 21 57 52 30 55 51 22 56 50 24 54 48 24 55 48 22 56 52 25 55 49 25 54 48 22 57 51 25 53 52 24 57 51 25 54 50 23 54 49 20 56 52 27 55 49 25 54 48 22 57 56 28 52 48 21 57 51 25 55 51 24 42 40 19 12 11 6 4 4 4 2 2 2 1 1 1 2 2 2 1 1 1 2 2 0 1 1 1 2 2 2 3 3 1 3 3 3 3 3 3 3 3 3 3 3 3 3 3 3 3 3 3 3 3 3 3 3 3 3 3 3 3 3 3 3 3 3 3 3 3 3 3 3 2 2 2 11 17 17 34 52 56 36 51 58 35 53 57 35 53 57 36 51 56 34 52 56 34 52 56 34 52 56 35 53 57 35 53 57 35 53 57 33 51 55 35 53 57 35 53 57 34 52 56 34 52 56 37 52 57 33 51 55 36 51 56 34 52 56 36 51 56 36 51 56 36 51 56 36 51 56 36 51 56 37 52 57 36 51 56 37 52 57 36 51 56 36 51 56 36 51 56 36 51 56 37 52 57 37 52 57 34 52 56 35 53 57 34 52 56 34 52 56 36 51 56 34 52 56 36 51 56 35 53 57 34 52 56 36 51 56 35 53 57 36 51 56 
1 1 1 2 2 2 6 6 4 11 12 7 30 28 13 40 37 18 44 42 21 54 48 22 54 49 20 54 50 23 57 51 27 56 52 25 56 50 24 57 53 26 55 49 23 54 50 23 54 50 23 57 53 26 55 50 21 54 53 25 55 51 24 57 51 25 54 48 22 56 50 24 55 51 24 56 50 24 56 51 22 58 54 27 53 49 22 52 50 25 28 26 13 12 11 6 6 4 5 2 2 2 2 2 2 2 2 2 2 2 2 2 2 2 2 2 2 2 2 2 2 2 2 3 3 3 2 2 2 3 3 3 3 3 3 3 3 3 3 3 3 3 3 3 3 3 3 3 3 3 3 3 3 3 3 3 2 2 2 8 9 11 35 50 55 35 53 57 36 51 56 34 52 56 36 51 54 35 50 55 37 52 57 35 50 55 36 51 56 36 51 56 37 52 57 37 52 57 36 51 56 36 51 56 36 51 56 35 53 57 35 53 57 37 52 57 37 52 57 35 53 57 35 53 57 36 51 56 37 52 57 37 52 57 37 52 57 36 51 56 36 51 56 37 52 57 37 52 57 36 51 56 36 51 56 36 51 56 35 50 55 34 52 56 36 51 56 34 52 56 35 53 57 34 52 56 36 51 56 34 52 56 35 50 55 34 52 56 35 53 57 36 51 56 34 52 56 36 51 56 
2 2 2 2 2 2 2 2 2 2 2 2 2 2 2 2 2 2 4 4 2 12 11 6 16 15 10 33 30 15 42 40 19 53 49 22 54 50 23 56 50 24 54 50 23 57 53 26 55 51 24 56 50 26 55 51 24 54 50 23 56 57 26 53 49 22 56 52 25 57 53 28 55 51 26 58 54 27 53 49 22 56 50 24 54 50 23 53 49 20 56 50 24 55 49 23 47 40 21 10 9 5 2 2 2 2 2 2 2 2 2 2 2 0 1 1 0 3 3 3 2 2 2 2 2 2 3 3 3 3 3 3 3 3 3 3 3 3 3 3 3 3 3 3 3 3 3 3 3 3 3 3 3 3 3 3 1 1 1 13 19 19 36 51 56 34 51 58 34 52 56 36 51 56 35 52 59 36 51 56 35 53 57 34 52 56 34 52 56 34 52 56 35 53 57 36 54 58 34 52 56 35 53 57 34 52 56 36 51 56 35 53 57 37 52 57 35 53 57 37 52 57 34 52 56 34 52 56 36 51 56 35 50 55 37 52 57 36 51 56 36 51 56 37 52 57 36 51 56 36 51 56 34 52 56 34 52 56 35 53 57 34 52 56 36 51 56 36 51 56 36 51 56 36 51 56 34 52 56 36 51 56 34 52 56 36 51 56 36 51 56 34 52 56 34 49 54 35 53 57 
2 2 2 2 2 2 3 3 3 2 2 2 2 2 2 1 1 1 1 3 2 2 2 2 1 1 1 1 3 2 4 4 4 36 35 15 56 52 27 56 52 25 54 50 23 53 49 22 55 51 24 55 51 24 54 50 23 58 54 27 54 53 25 53 49 22 56 52 25 56 50 24 56 49 21 55 51 24 54 48 22 54 50 23 55 51 24 55 51 24 56 52 25 56 52 25 58 54 27 51 49 24 31 29 16 15 14 10 3 3 3 3 3 3 2 2 2 2 2 2 2 2 2 3 3 3 3 3 3 3 3 3 3 3 3 3 3 3 3 3 3 3 3 3 3 3 3 3 3 3 3 3 3 3 3 3 1 1 1 10 14 15 34 52 56 36 51 56 35 53 57 35 53 57 37 52 57 34 52 56 34 52 56 35 53 57 34 52 56 34 52 56 35 53 57 34 52 56 34 52 56 35 53 57 37 52 57 37 52 57 37 52 57 37 52 57 36 51 56 36 51 58 37 52 57 36 51 56 37 52 57 34 52 56 36 51 56 37 52 57 34 52 56 36 54 58 36 51 56 34 52 56 33 51 55 36 51 56 35 53 57 36 51 56 37 52 57 34 52 56 36 51 56 34 52 56 35 50 55 35 50 55 35 50 55 37 52 57 36 51 56 36 51 56 36 51 56 36 51 56 
4 4 6 2 2 2 3 3 3 3 3 3 1 3 2 3 1 2 2 2 2 2 2 2 3 3 3 1 1 1 3 3 1 30 27 12 55 51 24 56 52 25 58 54 29 55 51 24 55 51 24 55 49 23 55 51 24 52 51 23 57 51 25 55 51 24 55 51 24 58 54 29 58 52 26 54 50 21 58 54 27 53 49 20 56 52 27 53 49 22 54 50 23 56 52 25 53 49 22 42 37 18 36 33 16 17 14 7 1 1 1 2 2 2 2 2 2 2 2 2 3 3 3 3 3 3 3 3 3 3 3 3 3 3 3 3 3 3 3 3 3 3 3 3 3 3 3 3 3 3 3 3 3 3 3 3 1 1 1 4 5 7 35 50 55 34 52 56 36 51 56 35 50 55 36 51 56 36 51 56 34 52 56 34 52 56 34 52 56 34 52 56 35 53 57 34 52 56 34 52 56 34 52 56 38 53 58 37 52 57 37 52 57 36 51 58 36 51 56 37 52 57 37 52 57 36 51 58 34 52 56 36 51 56 34 52 56 33 51 55 37 52 57 35 50 55 34 52 56 35 50 55 36 51 56 34 52 56 36 51 56 34 52 56 34 52 56 36 51 56 33 51 55 36 51 56 37 52 57 36 51 56 36 51 56 37 52 57 37 52 57 35 50 55 36 51 56 37 52 57 
3 3 3 3 3 1 3 3 1 2 2 2 2 2 2 2 2 2 2 2 2 2 2 2 3 3 3 2 2 2 14 13 8 51 45 21 57 51 25 53 49 20 57 51 25 56 52 27 55 51 24 53 49 22 55 51 26 55 51 26 54 50 25 56 52 25 54 48 22 53 47 21 55 51 24 53 48 19 55 51 26 56 52 25 58 52 26 53 48 19 54 48 22 49 45 20 26 27 13 4 4 4 1 3 2 1 1 1 0 0 0 1 1 1 2 2 2 3 3 3 3 3 3 3 3 3 3 3 3 3 3 3 3 3 3 3 3 3 3 3 3 3 3 3 3 3 3 3 3 3 3 3 3 3 3 3 2 2 2 3 4 6 33 48 53 34 52 56 36 51 56 36 51 56 37 52 57 37 52 57 34 52 56 36 54 58 34 52 56 35 53 57 34 52 56 35 53 57 34 52 56 34 52 56 36 51 56 36 51 56 36 51 56 36 51 56 35 50 55 36 51 56 36 51 56 36 51 56 36 51 56 34 52 56 36 51 56 36 51 56 34 52 56 34 52 56 36 51 56 33 51 55 33 51 55 36 51 56 34 52 56 36 51 56 36 51 56 34 52 56 36 51 56 34 52 56 37 52 57 36 51 56 36 51 56 36 51 56 35 50 55 35 50 55 36 51 56 36 51 56 
2 2 2 2 2 2 2 2 2 2 2 2 2 2 2 2 2 2 3 1 2 2 2 2 6 5 3 17 17 5 44 42 21 56 52 25 56 49 23 54 50 23 54 50 23 54 50 23 55 51 24 54 53 23 56 49 21 53 48 19 55 49 23 55 51 26 55 51 24 55 54 26 56 50 24 53 49 22 54 48 22 53 49 22 42 39 20 31 29 14 17 17 9 7 8 2 2 2 2 2 2 2 2 2 2 2 2 2 2 2 2 2 2 2 3 3 3 3 3 3 3 3 3 3 3 3 3 3 3 3 3 3 3 3 3 3 3 3 3 3 3 3 3 3 3 3 3 3 3 3 3 3 3 3 3 3 2 2 2 7 11 12 33 51 55 36 51 56 34 52 56 34 52 56 37 52 57 34 52 56 34 52 56 34 52 56 34 52 56 34 52 56 34 52 56 34 52 56 34 52 56 34 52 56 36 51 56 36 51 56 36 51 56 36 51 56 36 51 56 36 51 58 36 51 56 36 51 56 35 53 57 36 51 56 34 52 56 35 53 57 36 51 56 35 50 55 35 53 57 36 51 56 36 51 56 35 53 57 36 51 56 34 52 56 34 52 56 36 51 56 34 52 56 36 51 56 34 49 54 35 50 55 37 52 57 36 51 56 36 51 56 36 51 56 37 52 57 36 51 56 
1 1 1 1 1 1 1 1 1 2 2 2 2 2 2 3 3 3 7 8 3 19 16 7 45 40 18 56 52 27 55 51 22 56 50 24 55 51 22 56 54 29 53 47 21 56 51 22 55 49 23 55 51 24 58 54 29 55 51 22 53 49 22 57 53 26 54 53 25 55 49 23 48 43 21 39 36 19 23 20 13 16 16 6 4 4 2 2 2 2 2 2 2 2 2 2 2 2 2 2 2 4 2 2 2 2 2 2 3 3 3 3 3 3 3 3 3 3 3 3 3 3 3 3 3 3 3 3 3 4 4 4 3 3 3 3 3 3 3 3 3 3 3 3 3 3 3 3 3 3 3 3 3 3 3 3 3 3 3 8 12 13 34 52 56 35 50 55 34 52 56 33 51 55 37 52 57 34 52 56 35 50 55 37 52 57 34 49 54 36 51 56 36 51 56 37 52 57 36 51 56 37 52 57 36 51 56 36 51 56 36 51 56 36 51 56 36 51 56 36 51 56 36 51 56 36 51 56 36 51 56 35 53 57 34 49 54 38 53 58 34 52 56 33 51 55 36 51 56 35 53 57 34 52 56 36 51 56 34 52 56 35 50 55 36 51 56 34 52 56 36 51 56 35 53 57 36 51 56 36 51 56 36 51 56 36 51 56 36 51 56 37 52 57 35 50 55 36 51 56 
1 1 1 2 2 2 4 4 2 6 6 4 16 15 10 35 34 16 51 46 24 54 48 22 59 52 26 57 53 26 55 51 26 55 51 24 54 52 27 56 51 22 57 51 25 51 47 20 53 48 19 53 49 22 56 52 25 53 48 19 57 50 24 51 47 22 47 45 24 25 22 13 5 4 2 4 4 4 2 2 2 2 2 2 2 2 2 1 1 1 2 2 2 1 1 0 2 2 2 3 3 3 3 3 3 3 3 3 3 3 3 3 3 3 3 3 3 3 3 3 3 3 3 3 3 3 3 3 3 3 3 3 3 3 3 3 3 3 3 3 3 3 3 3 3 3 3 3 3 3 3 3 3 3 3 3 2 2 2 5 6 8 34 49 54 34 52 56 36 51 56 36 51 56 35 50 55 36 51 56 35 50 55 37 52 57 36 51 56 36 51 56 35 50 55 37 52 57 36 51 56 36 51 56 35 50 55 36 51 56 37 52 57 36 51 56 37 52 57 36 51 56 36 51 56 35 50 55 34 52 56 37 52 57 34 52 56 34 52 56 35 50 55 36 51 56 34 52 56 35 50 55 36 51 56 34 52 56 36 51 56 33 51 55 34 52 56 35 50 55 34 52 56 36 51 56 36 51 56 36 51 56 36 51 56 36 51 56 36 51 56 36 51 56 36 51 56 37 52 57 
3 1 2 21 18 9 46 44 23 49 45 20 54 50 25 55 51 22 55 53 28 55 49 23 54 48 22 54 50 21 53 47 21 55 51 26 55 51 24 56 51 22 53 49 22 53 49 22 54 48 22 53 50 19 56 52 27 42 40 19 24 21 12 13 12 7 6 4 5 2 4 3 2 2 2 2 2 2 2 2 2 2 2 2 1 1 1 2 2 4 3 3 1 2 2 2 3 3 3 3 3 3 4 4 4 3 3 5 3 3 3 3 3 3 3 3 3 3 3 3 3 3 3 3 3 3 3 3 3 3 3 3 3 3 3 3 3 3 3 3 3 3 3 3 3 3 3 3 3 3 3 3 3 3 3 3 3 3 3 5 6 8 36 51 56 35 53 57 35 50 55 37 52 57 35 50 55 37 52 57 36 51 56 37 52 57 36 51 56 36 51 56 36 51 56 36 51 56 36 51 56 35 50 55 37 52 57 36 51 56 35 50 55 36 51 54 37 52 57 36 51 56 35 50 55 37 52 57 37 52 57 34 52 56 36 51 56 36 51 56 34 52 56 34 52 56 36 51 56 33 51 55 33 51 55 36 51 56 34 52 56 36 51 56 36 51 56 34 52 56 36 51 56 34 52 56 36 51 56 36 51 56 35 50 55 35 50 55 36 51 56 36 51 56 36 51 56 36 51 56 
47 42 20 57 53 26 57 55 30 55 51 26 57 53 26 53 47 21 56 52 25 51 46 17 57 53 26 54 50 25 58 52 28 54 50 23 57 53 28 56 51 22 55 51 24 54 48 22 57 52 30 33 30 15 19 19 11 3 3 3 2 2 2 2 2 2 2 2 0 1 1 3 2 2 2 2 2 2 2 2 2 2 2 4 3 3 3 3 3 3 3 3 3 2 2 2 3 3 3 4 4 2 3 3 3 3 3 5 4 4 4 3 3 3 3 3 3 3 3 3 3 3 3 3 3 3 3 3 3 3 3 3 3 3 3 3 3 3 3 3 3 3 3 3 3 3 3 3 3 3 3 3 3 3 3 3 3 3 3 3 7 8 33 51 55 35 50 55 34 52 56 34 52 56 36 51 56 33 51 55 36 51 56 36 51 56 37 52 57 36 51 56 36 51 56 35 50 55 37 52 57 35 50 55 35 50 55 36 51 56 36 51 56 36 51 56 36 51 56 36 51 56 35 50 55 36 51 56 34 52 56 36 51 56 34 52 56 34 52 56 34 49 54 36 51 56 34 52 56 36 51 56 36 51 56 34 52 56 36 51 56 34 52 56 34 52 56 36 51 56 34 52 56 37 52 57 36 51 56 36 51 56 36 51 56 36 51 56 37 52 57 36 51 56 36 51 56 36 51 56 
54 50 23 55 51 24 54 50 25 56 52 25 55 49 23 55 51 24 57 53 26 55 51 24 56 52 25 55 51 22 55 51 26 55 49 23 57 53 26 58 54 29 55 51 24 53 49 22 30 27 12 2 2 2 1 1 1 2 2 2 2 2 2 2 2 2 1 1 1 2 2 2 2 2 2 2 2 2 3 3 3 3 3 3 3 3 3 3 3 3 3 3 3 4 4 4 2 2 2 3 3 3 4 2 3 4 2 3 3 3 3 4 4 4 3 3 3 3 3 3 3 3 3 3 3 3 3 3 3 3 3 3 3 3 3 3 3 3 4 2 3 2 2 2 1 1 1 3 3 3 2 2 2 2 4 1 3 3 3 3 3 5 34 47 53 36 51 56 36 51 56 36 51 56 36 51 56 35 50 53 36 51 56 36 51 56 36 51 56 36 51 56 37 52 57 36 51 56 37 52 57 35 50 55 36 51 56 36 51 56 37 52 57 36 51 56 36 51 56 36 51 56 36 51 56 35 50 55 34 52 56 34 52 56 33 51 55 34 52 56 34 52 56 34 52 56 33 51 55 34 52 56 36 51 56 36 51 56 36 51 56 36 51 56 36 51 56 36 51 56 36 51 56 36 51 56 36 51 56 36 51 56 37 52 57 36 51 56 36 51 56 35 50 55 36 51 56 36 51 56 
55 51 24 55 51 24 55 51 24 55 51 24 56 50 24 54 50 23 54 52 27 56 52 25 58 54 27 53 49 24 55 49 23 56 52 27 54 48 22 53 51 26 55 48 22 53 49 22 13 12 7 2 2 0 1 1 1 2 2 2 2 2 2 2 2 2 3 3 3 3 3 3 3 3 3 2 2 2 2 2 2 3 3 3 3 3 1 3 3 3 3 3 3 3 3 3 3 3 3 3 3 1 3 3 3 3 3 3 3 3 3 3 3 3 3 3 3 3 3 3 3 3 3 3 3 3 3 3 3 3 3 3 2 2 4 2 2 2 0 0 0 2 2 2 1 1 1 2 2 0 3 3 3 2 2 2 2 2 2 4 4 4 35 48 54 36 51 54 36 51 58 34 52 56 36 51 56 34 49 52 37 52 57 36 51 56 36 51 56 36 51 56 36 51 56 36 51 56 36 51 56 36 51 56 35 50 55 36 51 56 36 51 56 35 50 55 36 51 56 36 51 56 36 51 56 37 52 57 34 52 56 34 52 56 34 52 56 34 52 56 32 50 54 33 51 55 33 51 55 33 51 55 35 50 55 36 51 56 36 51 56 36 51 56 37 52 57 36 51 56 35 50 55 35 50 55 35 50 55 35 50 55 37 52 57 36 51 56 36 51 56 36 51 56 35 50 55 36 51 56 
57 53 24 56 54 29 55 51 24 55 49 23 55 51 24 56 50 24 51 46 17 58 54 29 55 49 23 55 53 28 52 48 21 53 48 19 55 49 23 58 52 26 55 51 24 54 50 23 25 23 11 2 0 1 2 2 2 1 1 1 1 1 1 2 2 2 2 2 2 2 2 2 2 2 4 2 2 2 2 2 2 2 2 4 2 2 2 2 2 2 2 2 2 3 3 3 3 3 3 2 2 4 2 2 2 3 3 3 3 3 3 3 3 3 3 3 3 3 3 3 3 3 3 3 3 3 4 4 4 3 3 3 1 1 1 1 1 1 1 3 2 2 2 2 2 2 2 1 1 1 1 1 1 12 11 7 3 1 2 4 6 5 35 50 55 36 51 54 36 51 56 35 53 57 36 51 56 37 52 57 35 50 55 36 51 56 37 52 57 37 52 57 36 51 56 36 51 56 37 52 57 35 50 55 36 51 56 36 51 56 36 51 56 36 51 56 35 50 55 36 51 56 36 51 56 36 51 56 36 51 56 35 50 55 36 51 56 36 51 56 36 51 56 36 51 56 36 51 56 36 51 56 36 51 56 36 51 56 36 51 56 36 51 56 36 51 56 36 51 56 36 51 56 36 51 56 37 52 57 36 51 56 36 51 56 35 50 55 37 52 57 36 51 56 36 51 56 36 51 56 
55 49 23 58 52 26 53 49 22 56 50 24 55 53 28 56 52 25 56 50 24 56 52 23 54 48 22 57 53 28 53 49 22 55 51 26 56 52 25 56 52 27 55 50 21 54 50 23 42 39 20 3 5 2 2 2 2 2 2 2 2 2 2 1 1 1 1 1 1 2 2 2 2 2 2 2 0 1 2 2 2 1 1 1 1 1 1 2 2 2 1 1 1 2 2 2 1 1 1 0 0 0 2 2 2 2 2 2 2 2 2 3 3 3 3 3 3 3 3 3 3 3 3 3 3 3 3 3 3 3 3 3 1 1 1 2 2 2 1 1 1 2 2 2 2 2 4 10 9 5 21 21 9 28 26 13 2 2 0 3 5 4 34 49 54 34 52 56 36 51 56 36 51 58 34 52 56 35 50 55 36 51 56 36 51 56 35 50 55 36 51 56 36 51 56 36 51 56 36 51 56 37 52 57 36 51 56 36 51 56 35 50 55 36 51 56 35 50 55 36 51 56 36 51 56 36 51 56 36 51 56 35 50 55 36 51 56 36 51 56 36 51 56 36 51 56 36 51 56 36 51 56 36 51 56 36 51 56 36 51 56 36 51 56 36 51 56 36 51 56 36 51 56 36 51 56 36 51 56 34 49 54 35 50 55 36 51 56 34 49 54 35 50 55 36 51 56 36 51 56 
53 47 21 56 52 25 55 49 23 55 51 24 57 53 26 56 53 22 55 51 26 56 52 25 52 48 21 57 51 25 55 49 23 55 51 26 54 50 25 56 55 27 52 50 25 55 49 23 53 51 26 48 44 19 29 27 14 12 11 6 6 6 6 7 8 3 4 4 2 1 1 1 2 2 4 2 2 2 2 2 2 2 2 2 2 2 2 2 2 2 1 1 1 1 1 1 2 2 2 3 3 3 2 2 2 1 3 2 2 2 2 2 2 2 3 3 3 3 3 3 3 3 3 3 3 3 3 3 3 2 2 2 1 1 1 2 2 2 8 7 3 27 23 11 35 31 19 36 33 18 35 32 15 31 29 14 1 1 1 3 7 8 32 50 54 36 51 56 36 51 56 36 51 58 34 52 56 35 50 55 35 50 55 36 51 56 36 51 56 36 51 56 36 51 56 36 51 56 37 52 57 35 50 55 34 49 54 35 50 55 36 51 56 36 51 56 36 51 56 36 51 56 36 51 56 36 51 56 36 51 56 36 51 56 36 51 56 36 51 56 35 50 55 36 51 56 36 51 56 36 51 56 36 51 56 35 50 55 36 51 56 36 51 56 35 50 55 35 50 55 36 51 56 36 51 56 35 50 55 36 51 56 34 49 54 36 51 56 36 51 56 36 51 56 36 51 56 35 50 55 
55 49 23 55 51 24 54 53 25 54 50 23 54 49 20 57 51 25 51 47 20 53 51 26 54 48 22 55 54 26 54 48 22 55 49 25 56 52 25 54 50 21 54 50 25 54 50 25 53 47 21 56 52 25 54 50 23 53 49 22 45 43 20 51 47 22 43 41 20 30 26 14 11 10 6 5 5 3 10 10 8 7 6 4 6 6 4 8 9 4 9 8 6 7 6 4 4 4 2 2 2 2 2 2 0 2 2 2 2 2 2 3 3 3 3 3 3 3 3 3 3 3 3 3 3 3 2 2 2 2 2 2 2 2 2 3 3 5 3 3 3 15 15 7 37 34 17 39 36 19 37 36 18 30 28 13 1 1 1 6 10 11 32 49 56 36 51 56 36 51 56 36 51 56 36 51 56 34 49 54 36 51 56 36 51 56 36 51 56 36 51 56 36 51 56 36 51 56 35 50 55 36 51 56 35 50 55 37 52 57 35 50 55 36 51 56 35 50 55 37 52 57 35 50 55 35 50 55 35 50 55 36 51 56 36 51 56 36 51 56 36 51 56 37 52 57 36 51 56 36 51 56 35 50 55 36 51 56 36 51 56 36 51 56 36 51 56 36 51 56 35 50 55 36 51 56 36 51 56 36 51 56 36 51 56 35 50 55 36 51 56 37 52 57 36 51 56 35 50 55 
57 53 26 53 49 24 54 48 22 58 52 28 54 50 25 54 50 25 54 52 27 53 49 22 56 52 25 55 51 26 55 50 28 51 45 19 54 48 22 55 51 24 56 52 25 57 53 26 54 50 23 53 49 24 54 52 27 54 50 23 54 50 23 55 51 26 54 47 21 54 50 23 52 48 21 50 45 23 51 49 24 52 48 23 47 42 20 49 44 22 36 33 16 20 17 8 8 7 5 3 3 3 2 2 2 2 2 4 3 3 3 3 3 3 3 3 3 3 3 3 3 3 3 3 3 3 3 3 3 2 2 2 3 3 3 2 2 2 1 3 2 3 3 1 27 25 12 37 36 18 37 36 18 31 28 11 1 1 1 4 4 6 35 50 55 33 51 55 35 50 55 35 50 55 35 50 55 34 52 56 36 51 56 36 51 56 36 51 56 35 50 55 36 51 56 36 51 56 36 51 56 35 50 55 36 51 56 35 50 55 36 51 56 36 51 56 36 51 56 36 51 56 36 51 56 35 50 55 35 50 55 36 51 56 34 49 54 35 50 55 36 51 56 36 51 56 35 50 55 35 50 55 36 51 56 36 51 56 36 51 56 36 51 56 36 51 56 36 51 56 36 51 56 36 51 56 36 51 56 36 51 56 35 50 55 36 51 56 35 50 55 36 51 56 36 51 56 36 51 56 
57 51 25 54 49 20 52 48 21 53 49 20 53 49 22 54 49 20 54 47 19 56 55 27 54 50 23 57 51 25 56 55 27 55 51 24 54 50 25 53 47 21 55 51 24 56 52 25 52 48 21 55 51 22 55 51 24 53 49 22 54 53 25 54 50 23 53 51 26 56 52 27 54 50 23 55 51 24 53 49 22 57 53 26 54 50 25 35 32 17 8 7 5 2 2 2 2 2 2 2 2 2 3 3 1 2 2 2 3 3 3 3 3 3 3 3 3 3 3 3 3 3 3 3 3 3 3 3 3 3 3 3 3 3 5 2 2 2 2 2 2 2 2 2 7 8 3 33 31 16 36 33 16 37 34 17 7 6 2 3 3 3 30 45 48 36 51 56 34 52 56 35 50 55 32 50 54 34 52 56 35 50 55 36 51 56 36 51 56 36 51 56 37 52 57 35 50 55 36 51 56 36 51 56 36 51 56 36 51 56 35 50 55 35 50 55 35 50 55 36 51 56 35 50 55 36 51 56 35 50 55 36 51 56 35 50 55 35 50 55 34 49 54 35 50 55 35 50 55 35 50 55 36 51 56 36 51 56 35 50 55 35 50 55 36 51 56 36 51 56 36 51 56 36 51 56 36 51 56 35 50 55 35 50 55 38 53 58 35 50 55 35 50 55 36 51 56 35 50 55 
54 48 22 57 53 26 54 48 22 55 53 28 56 52 27 57 53 26 56 52 23 53 47 21 52 48 23 56 52 25 55 49 23 54 50 23 55 51 26 54 48 22 56 49 23 54 50 23 52 48 21 56 55 27 52 48 19 53 48 19 54 50 25 52 51 23 53 49 24 52 45 19 54 53 25 57 53 26 44 39 17 38 36 15 13 14 6 3 3 1 2 2 2 1 1 1 2 2 2 2 2 2 1 1 1 2 2 2 3 3 3 3 3 3 3 3 3 3 3 3 3 3 3 4 4 4 3 3 3 2 2 2 2 2 2 1 1 1 2 2 2 1 1 1 4 4 2 28 29 15 37 35 20 38 33 14 8 7 5 2 2 2 31 45 48 35 50 55 34 52 56 33 51 55 35 50 55 36 51 56 35 50 55 35 50 55 36 51 56 35 50 55 36 51 56 35 50 55 34 49 54 35 50 55 37 52 57 35 50 55 35 50 55 35 50 55 35 50 55 35 50 55 35 50 55 36 51 56 34 52 56 34 52 56 35 53 57 34 52 56 34 52 56 36 54 58 33 51 55 34 52 56 36 51 56 37 52 57 36 51 56 36 51 56 36 51 56 36 51 56 37 52 57 36 51 56 34 52 56 34 52 56 33 51 55 34 52 56 33 51 55 33 51 55 34 52 56 33 51 55 
51 45 19 55 54 26 52 50 25 53 49 24 54 48 24 55 49 25 56 55 27 56 52 25 54 50 25 54 50 23 57 53 26 53 49 22 54 53 23 53 47 21 54 50 23 52 46 20 54 53 25 54 48 22 54 50 25 56 52 25 53 47 23 55 51 24 54 53 25 53 49 24 42 39 20 24 22 10 5 3 4 4 4 4 2 2 0 3 3 3 2 2 0 2 2 2 2 2 2 3 3 3 3 3 3 3 3 3 3 3 3 3 3 3 3 3 3 3 3 3 3 3 3 3 3 3 3 3 3 2 2 2 2 2 2 1 1 0 0 0 0 2 2 0 14 14 6 38 35 16 34 31 12 37 34 17 7 6 2 1 1 0 27 41 44 35 50 55 36 51 56 33 50 57 34 52 56 33 51 55 36 51 56 35 50 55 36 51 56 34 49 54 37 52 57 35 50 55 35 50 55 36 51 56 36 51 56 35 50 55 36 51 56 36 51 56 36 51 56 36 51 56 35 50 55 35 50 55 35 50 55 35 50 55 35 50 55 36 51 56 35 50 55 36 51 56 36 51 56 36 51 56 35 50 55 35 50 55 34 49 54 35 50 55 35 50 55 35 50 55 36 51 56 35 50 55 36 51 56 36 51 56 35 50 55 35 50 55 35 50 55 36 51 56 36 51 56 36 51 56 
57 53 28 54 48 22 53 47 23 55 51 26 55 51 24 56 52 25 53 49 22 54 50 23 54 50 25 54 52 27 55 49 23 55 49 25 53 47 21 53 52 24 51 47 20 54 48 22 58 52 26 55 51 24 55 49 23 53 47 21 55 51 26 55 49 23 50 46 21 43 41 20 7 6 4 4 0 1 2 2 0 2 2 2 1 1 1 2 2 2 2 2 2 3 3 3 2 2 2 3 3 3 3 3 3 3 3 3 3 3 3 3 3 3 3 3 3 3 3 3 3 3 3 4 4 4 3 3 3 2 2 2 3 3 3 2 2 2 2 2 4 18 18 8 36 35 17 35 32 15 38 35 18 36 33 16 11 10 5 1 1 1 23 34 36 36 51 56 36 51 56 36 51 56 36 51 56 36 51 56 35 50 55 36 51 56 35 50 55 35 50 55 36 51 56 36 51 56 36 51 56 36 51 56 35 50 55 35 50 55 35 50 55 35 50 55 35 50 55 36 51 56 36 51 56 37 52 57 36 51 56 35 50 55 35 50 55 36 51 56 36 51 56 36 51 56 36 51 56 35 50 55 36 51 56 36 51 56 35 50 55 36 51 56 35 50 55 36 51 56 35 50 55 36 51 56 35 50 55 35 50 55 35 50 55 35 50 55 36 51 56 36 51 56 35 50 55 36 51 56 
55 51 24 54 50 25 55 51 24 54 50 25 53 47 23 53 49 22 56 52 27 54 50 25 56 52 25 52 51 21 55 49 23 56 52 27 54 50 23 52 48 21 54 50 23 53 49 22 54 53 25 53 49 22 56 52 25 54 50 25 52 48 21 31 28 13 7 6 2 3 3 5 2 2 2 1 3 2 2 2 2 2 2 2 2 2 2 2 2 0 2 2 2 2 2 2 3 3 3 3 3 3 3 3 3 4 4 4 3 3 3 3 3 3 3 3 3 3 3 3 2 2 2 2 2 2 1 1 1 2 2 2 1 3 2 1 3 2 11 11 3 34 31 14 36 33 16 37 34 17 37 34 17 36 33 16 7 6 4 1 1 1 31 44 50 36 51 58 36 51 54 36 51 56 36 51 56 35 50 55 36 51 56 35 50 55 36 51 56 36 51 56 36 51 56 36 51 56 35 50 55 36 51 56 36 51 56 35 50 55 36 51 56 36 51 56 36 51 56 36 51 56 36 51 56 35 50 55 36 51 56 36 51 56 35 50 55 36 51 56 35 50 55 36 51 56 36 51 56 35 50 55 36 51 56 35 50 55 36 51 56 36 51 56 37 52 57 35 50 55 34 49 54 35 50 55 35 50 55 35 50 55 35 50 55 35 50 55 35 50 55 36 51 56 36 51 56 36 51 56 
