P3
100 50
255
0 0 0 1 1 1 0 0 0 1 1 1 0 0 0 0 0 0 1 1 1 0 0 0 1 1 1 1 1 1 17 17 17 37 37 37 46 46 46 46 46 46 44 44 44 46 46 46 42 42 42 44 44 44 46 46 46 48 48 48 46 46 46 42 42 42 22 22 22 14 14 14 11 11 11 2 2 2 0 0 0 0 0 0 0 0 0 1 1 1 1 1 1 0 0 0 1 1 1 1 1 1 1 1 1 0 0 0 0 0 0 1 1 1 1 1 1 13 19 15 30 47 37 32 48 37 29 46 36 27 38 30 13 19 17 1 1 1 1 1 1 1 1 1 2 0 1 1 1 1 1 1 1 0 0 0 0 0 0 1 1 1 0 0 0 0 0 0 1 1 1 2 0 1 1 1 1 1 1 1 0 0 0 3 3 3 26 10 10 47 19 18 47 19 18 24 10 10 1 1 1 1 1 1 7 6 4 34 23 21 48 30 28 48 30 30 49 31 29 49 31 29 48 30 28 49 30 26 49 31 29 48 30 28 48 30 28 49 31 29 48 30 28 48 30 28 48 30 28 49 31 29 48 30 28 47 29 27 48 30 28 48 30 28 49 31 29 49 31 29 49 31 29 48 30 28 48 30 28 48 30 28 49 31 29 49 31 29 49 31 29 48 30 28 48 30 28 48 30 28 
1 1 1 1 1 1 1 1 1 0 0 0 0 0 0 0 0 0 0 0 0 0 0 0 1 1 1 10 10 10 47 47 47 47 47 47 47 47 47 48 48 48 47 47 47 48 48 48 48 48 48 47 47 47 47 47 47 47 47 47 47 47 47 47 47 47 39 39 39 29 29 29 28 28 28 15 15 15 11 11 11 1 1 1 0 0 0 1 1 1 1 1 1 1 1 1 1 1 1 1 1 1 1 1 1 1 1 1 1 1 1 1 1 1 0 0 0 19 28 23 33 49 38 32 50 38 32 45 36 26 37 29 4 8 7 1 1 1 1 1 1 1 1 1 2 0 1 0 0 0 0 0 0 0 0 0 1 1 1 1 1 1 0 0 0 0 0 0 0 0 0 1 1 1 1 1 1 1 1 1 1 1 1 0 0 0 1 1 0 29 11 11 48 18 18 48 20 19 37 16 15 9 3 3 1 1 1 3 1 2 29 19 17 48 30 28 48 30 28 49 31 29 47 29 27 49 31 31 48 30 28 48 30 28 47 29 27 48 30 28 49 31 29 48 30 28 47 29 27 49 31 29 48 30 28 48 30 28 48 30 28 48 30 28 48 30 28 48 30 28 48 30 28 50 32 30 48 30 28 48 30 28 48 30 28 50 32 30 48 30 28 49 31 29 48 30 28 48 30 28 
1 1 1 0 0 0 0 0 0 0 0 0 0 0 0 1 1 1 0 0 0 0 0 0 10 10 10 34 34 34 45 45 45 49 49 49 48 48 48 48 48 48 48 48 48 48 48 48 48 48 48 48 48 48 47 47 47 48 48 48 45 45 45 47 47 47 48 48 48 46 46 46 38 38 38 36 36 36 24 24 24 6 6 6 0 0 0 0 0 0 0 0 0 0 0 0 0 0 0 1 1 1 0 0 0 1 1 1 1 1 1 0 0 0 1 1 1 21 32 26 30 46 35 32 48 37 32 48 37 27 43 33 4 4 4 1 1 1 0 0 0 0 0 0 1 1 1 0 0 0 0 0 0 1 1 1 1 1 1 0 0 0 1 1 1 0 0 0 0 0 0 1 1 1 0 0 0 0 0 0 1 1 1 1 0 0 0 0 0 1 1 1 14 6 4 45 16 18 48 18 16 46 18 17 29 11 11 4 2 3 2 2 2 14 8 8 41 26 23 49 31 29 47 32 29 49 31 29 48 30 28 48 30 28 48 30 28 48 30 28 49 31 29 49 31 29 48 30 28 49 31 29 48 30 28 48 30 28 49 31 29 48 30 28 49 31 29 48 30 28 48 30 28 48 30 28 48 30 28 48 30 28 49 29 28 48 30 28 48 30 28 49 31 29 48 30 28 48 30 28 
1 1 1 0 0 0 0 0 0 0 0 0 0 0 0 0 0 0 1 1 1 5 5 5 27 27 27 44 44 44 47 47 47 47 47 47 48 48 48 48 48 48 49 49 49 47 47 47 48 48 48 47 47 47 47 47 47 48 48 48 48 48 48 47 47 47 47 47 47 48 48 48 47 47 47 44 44 44 29 29 29 16 16 16 1 1 1 1 1 1 1 1 1 1 1 1 1 1 1 0 0 0 0 0 0 1 1 1 1 1 1 0 0 0 0 0 0 16 25 20 23 33 25 30 46 36 29 45 35 21 31 23 2 2 2 0 0 0 0 0 0 0 0 0 0 0 0 1 1 1 0 0 0 1 1 1 0 0 0 0 0 0 0 0 0 0 0 0 1 1 1 1 1 1 1 1 1 0 0 0 1 1 1 1 1 1 1 1 1 1 1 1 1 1 1 3 2 0 27 11 11 48 20 19 48 18 20 36 15 12 9 3 3 1 1 1 7 6 4 31 20 18 48 30 28 46 31 26 48 30 28 49 31 29 49 31 29 46 31 28 49 31 29 49 29 28 49 31 29 48 30 28 48 30 28 48 30 28 48 30 28 49 31 29 48 30 28 49 31 29 48 30 28 49 31 29 49 31 29 48 30 28 48 30 28 48 30 28 48 30 28 49 31 29 48 30 28 48 30 28 
1 1 1 0 0 0 1 1 1 0 0 0 1 1 1 0 0 0 1 1 1 19 19 19 47 47 47 48 48 48 48 48 48 45 45 45 43 43 43 36 36 36 28 28 28 25 25 25 44 44 44 48 48 48 49 49 49 49 49 49 48 48 48 48 48 48 48 48 48 48 48 48 48 48 48 48 48 48 39 39 39 30 30 30 5 5 5 0 0 0 1 1 1 1 1 1 1 1 1 0 0 0 0 0 0 0 0 0 1 1 1 1 1 1 0 0 0 10 15 11 14 20 16 18 28 20 24 35 29 9 14 10 1 1 1 0 0 0 1 1 1 1 1 1 0 0 0 0 0 0 1 1 1 1 1 1 0 0 0 1 1 1 1 1 1 1 1 1 0 0 0 1 1 1 0 0 0 1 1 1 1 1 1 1 1 3 0 0 0 2 2 2 0 2 1 1 1 1 2 2 0 28 12 12 47 19 18 48 20 19 47 18 20 18 6 6 1 1 1 1 1 1 28 17 15 46 31 28 48 30 28 49 31 29 47 29 27 47 29 27 49 31 29 48 30 28 49 29 28 50 29 28 48 30 28 48 30 28 49 31 29 48 30 28 48 30 28 49 31 29 48 30 28 48 30 28 48 30 28 48 30 28 48 30 28 48 30 28 49 29 28 49 31 29 49 31 29 48 30 28 
0 0 0 0 0 0 1 1 1 2 2 2 1 1 1 2 2 2 7 7 7 40 40 40 47 47 47 47 47 47 44 44 44 34 34 34 29 29 29 15 15 15 12 12 12 20 20 20 42 42 42 48 48 48 48 48 48 48 48 48 48 48 48 48 48 48 48 48 48 48 48 48 49 49 49 48 48 48 37 37 37 25 25 25 11 11 11 1 1 1 1 1 1 0 0 0 1 1 1 1 1 1 0 0 0 1 1 1 0 0 0 2 2 2 1 1 1 1 1 1 2 4 1 2 2 0 5 7 4 2 2 2 1 1 1 0 0 0 1 1 1 1 1 1 1 1 1 1 1 1 1 1 1 1 1 1 1 1 1 1 1 1 1 1 1 0 0 0 1 1 1 1 1 1 2 2 2 0 0 0 0 0 0 2 2 2 0 0 0 1 1 1 1 1 1 0 0 0 0 0 0 0 0 0 17 7 6 47 19 18 48 18 16 47 19 16 26 10 10 1 1 1 1 1 1 15 11 8 47 29 29 49 31 29 48 30 28 48 30 28 48 30 28 48 30 28 50 30 29 48 30 28 49 31 29 48 30 28 48 30 28 48 30 28 48 30 28 48 30 28 48 30 28 48 30 28 49 31 29 48 30 28 49 31 29 49 31 29 48 30 28 49 31 29 49 31 29 48 30 28 
1 1 1 1 1 1 0 0 0 0 0 0 1 1 1 0 0 0 21 21 21 46 46 46 48 48 48 49 49 49 36 36 36 20 20 20 10 10 10 6 6 6 7 7 7 23 23 23 42 42 42 48 48 48 48 48 48 48 48 48 49 49 49 47 47 47 48 48 48 47 47 47 48 48 48 47 47 47 42 42 42 34 34 34 9 9 9 1 1 1 1 1 1 1 1 1 0 0 0 0 0 0 1 1 1 1 1 1 1 1 1 1 1 1 0 0 0 0 0 0 2 2 2 0 0 0 0 0 0 0 0 0 0 0 0 2 2 2 0 0 0 0 0 0 1 1 1 1 1 1 1 1 1 0 0 0 1 1 1 1 1 1 2 2 2 0 0 0 3 3 3 7 7 7 5 5 5 3 3 3 2 2 2 1 1 1 1 1 1 0 0 0 1 1 1 1 1 1 1 1 1 0 0 0 0 0 0 14 5 6 34 12 14 49 17 18 49 19 17 33 13 12 6 2 3 1 1 1 15 10 7 46 28 26 48 30 28 50 30 29 49 29 28 48 30 30 46 31 28 48 30 28 49 31 29 48 30 28 48 30 28 48 30 28 48 30 28 48 30 28 49 31 29 49 31 29 49 31 29 49 31 29 48 30 28 47 29 27 48 30 28 48 30 28 49 31 29 48 30 28 
0 0 0 1 1 1 1 1 1 0 0 0 1 1 1 1 1 1 28 28 28 43 43 43 47 47 47 47 47 47 25 25 25 9 9 9 3 3 3 2 2 2 3 3 3 14 14 14 43 43 43 48 48 48 48 48 48 49 49 49 48 48 48 47 47 47 48 48 48 47 47 47 47 47 47 46 46 46 43 43 43 40 40 40 16 16 16 0 0 0 0 0 0 1 1 1 0 0 0 1 1 1 0 0 0 1 1 1 1 1 1 1 1 1 1 1 1 1 1 1 1 1 1 1 1 1 0 0 0 1 1 1 1 1 1 1 1 1 1 1 1 1 1 1 1 1 1 0 0 0 0 0 0 1 1 1 1 1 1 1 1 1 2 2 2 8 8 8 16 16 16 31 31 31 24 24 24 17 17 17 8 8 8 1 1 0 1 1 1 1 1 1 0 0 0 1 1 1 0 0 0 1 1 1 1 1 1 0 0 0 2 0 1 34 12 14 48 18 20 49 19 17 39 15 15 7 3 4 1 1 1 11 7 6 43 27 27 48 30 28 50 30 31 48 30 30 49 31 29 48 30 28 48 30 28 48 30 28 48 30 28 48 30 28 48 30 28 48 30 28 49 31 29 48 30 28 48 30 28 48 30 28 48 30 28 46 31 28 49 31 29 49 31 29 48 30 28 48 30 28 
1 1 1 1 1 1 0 0 0 0 0 0 0 0 0 3 3 3 34 34 34 46 46 46 48 48 48 44 44 44 17 17 17 4 4 4 4 4 4 6 6 6 9 9 9 30 30 30 48 48 48 49 49 49 49 49 49 47 47 47 48 48 48 48 48 48 48 48 48 47 47 47 46 46 46 45 45 45 47 47 47 43 43 43 27 27 27 4 4 4 1 1 1 0 0 0 0 0 0 1 1 1 0 0 0 0 0 0 1 1 1 0 0 0 0 2 1 1 1 1 0 2 1 1 1 1 1 1 1 0 2 1 1 1 1 1 1 1 1 1 1 1 1 1 1 1 1 1 1 1 1 1 1 0 0 0 1 1 1 2 2 2 19 19 19 23 23 23 21 21 21 28 28 28 32 32 32 33 33 33 30 30 32 10 10 10 3 3 3 3 3 3 7 7 7 0 0 0 0 0 0 0 0 2 1 1 0 1 1 1 0 0 0 3 2 0 26 10 10 46 17 19 48 20 17 38 14 14 9 3 5 1 1 1 15 11 10 42 26 26 48 30 28 49 31 29 46 31 28 46 31 28 48 30 28 48 30 28 48 30 28 49 31 29 48 30 28 48 30 28 48 30 28 47 29 27 49 31 29 48 30 28 48 30 28 48 30 28 48 30 28 48 30 28 49 31 29 47 29 27 
1 1 1 1 1 1 1 1 1 1 1 1 0 0 0 16 16 16 46 46 46 48 48 48 48 48 48 39 39 39 9 9 9 4 4 4 3 3 3 3 3 3 8 8 8 27 27 27 48 48 48 47 47 47 48 48 48 47 47 47 47 47 47 46 46 46 46 46 46 38 38 38 46 46 46 47 47 47 46 46 46 45 45 45 36 36 36 6 6 6 1 1 1 1 1 1 1 1 1 1 1 1 1 1 1 1 1 1 1 1 1 1 1 1 0 0 0 1 1 1 1 1 1 0 0 0 1 1 1 0 0 0 0 0 0 1 1 1 0 0 0 1 1 1 1 1 1 0 0 0 0 0 0 0 0 0 3 3 3 19 19 19 34 34 34 31 31 31 40 40 40 45 45 45 46 46 46 44 44 44 37 37 37 33 33 33 19 19 17 16 16 16 13 11 12 3 3 3 0 0 0 0 0 0 1 1 3 1 1 1 0 0 2 1 1 1 2 2 2 13 4 5 45 17 16 47 19 18 42 16 15 12 4 2 0 2 1 14 8 8 41 26 23 49 31 29 46 31 28 48 30 26 48 30 28 48 30 28 48 30 28 48 30 28 48 30 28 48 30 28 49 31 29 48 30 28 48 30 28 48 30 28 48 30 28 48 30 28 49 31 29 46 31 28 49 31 29 47 29 27 
1 1 1 0 0 0 0 0 0 1 1 1 0 0 0 29 29 29 47 47 47 48 48 48 47 47 47 29 29 29 6 6 6 2 2 2 11 11 11 7 7 7 11 11 11 39 39 39 47 47 47 48 48 48 47 47 47 49 49 49 40 40 40 25 25 25 19 19 19 21 21 21 44 44 44 47 47 47 46 46 46 43 43 43 33 33 33 3 3 3 1 1 1 1 1 1 1 1 1 1 1 1 1 1 1 1 1 1 1 1 1 1 1 1 1 1 1 1 1 1 1 1 1 1 1 1 1 1 1 1 1 1 1 1 1 1 1 1 1 1 1 0 0 0 1 1 1 0 0 0 2 2 2 2 2 2 23 23 23 44 44 44 45 45 45 47 47 47 45 45 45 48 48 48 48 48 48 44 44 44 45 45 45 40 40 40 44 44 44 39 39 39 35 35 35 23 23 23 1 1 1 1 1 1 1 1 0 1 1 1 0 0 0 0 0 0 0 0 0 0 0 2 13 5 3 43 17 16 48 18 16 41 15 16 18 8 7 0 0 0 6 4 5 39 25 22 48 30 28 48 30 28 48 30 28 49 29 28 48 30 28 48 30 28 49 31 29 49 29 28 48 30 28 48 30 30 48 30 28 49 31 29 48 30 28 48 30 28 48 30 28 48 30 28 48 30 28 48 30 28 
1 1 1 1 1 1 0 0 0 1 1 1 1 1 1 28 28 28 42 42 42 46 46 46 46 46 46 34 34 34 10 10 10 4 4 4 4 4 4 4 4 4 8 8 8 44 44 44 46 46 46 47 47 47 47 47 47 43 43 43 12 12 12 3 3 3 2 2 2 6 6 6 31 31 31 47 47 47 47 47 47 44 44 44 31 31 31 6 6 6 0 0 0 1 1 1 1 1 1 1 1 1 1 1 1 1 1 1 0 0 0 0 0 0 0 0 0 0 0 0 1 1 1 0 0 0 0 0 0 1 1 1 1 1 1 1 1 1 2 2 2 0 0 0 1 1 1 0 0 0 0 0 0 11 11 11 30 30 30 38 38 38 45 45 45 46 46 46 47 47 47 47 47 47 42 42 42 36 36 36 30 30 30 28 28 28 34 34 34 39 39 39 43 43 43 34 34 34 4 4 4 0 0 0 2 2 2 1 1 1 1 1 1 0 0 0 1 1 1 0 0 2 1 1 1 4 3 1 39 15 15 48 18 18 44 16 15 15 6 7 0 0 0 11 6 10 41 25 25 48 30 26 48 30 28 48 30 28 49 31 29 49 31 29 47 29 27 49 29 28 49 31 29 49 29 28 49 31 29 48 30 28 48 30 28 48 30 28 48 30 28 48 30 28 48 30 28 49 31 29 
1 1 1 0 0 0 0 0 0 1 1 1 2 2 2 27 27 27 44 44 44 46 46 46 47 47 47 43 43 43 5 5 5 5 5 5 5 5 5 3 3 3 18 18 18 47 47 47 47 47 47 48 48 48 48 48 48 33 33 33 5 5 5 3 3 3 2 2 2 3 3 3 29 29 29 47 47 47 46 46 46 43 43 43 34 34 34 6 6 6 1 1 1 1 1 1 0 0 0 0 0 0 1 1 1 0 0 0 1 1 1 0 0 0 0 0 0 1 1 1 1 1 1 1 1 1 0 0 0 0 0 0 2 2 2 1 1 1 0 0 0 1 1 1 0 0 0 1 1 1 2 2 2 25 25 25 40 40 40 39 39 39 45 45 45 47 47 47 48 48 48 48 48 48 36 36 36 13 13 13 10 10 10 8 8 8 10 10 10 35 35 35 42 42 42 41 41 41 22 22 22 1 1 1 0 0 0 1 1 1 0 0 0 1 1 3 1 1 1 1 1 1 1 1 1 1 1 3 3 2 0 29 11 11 49 19 19 43 17 16 10 4 4 1 1 3 11 7 6 40 26 25 48 30 28 48 30 28 47 29 27 48 30 28 49 31 29 48 30 28 48 30 28 47 29 27 48 30 28 48 30 28 48 30 28 48 30 28 48 30 28 49 31 29 48 30 28 49 31 29 
1 1 1 0 0 0 2 2 2 1 1 1 4 4 4 34 34 34 45 45 45 47 47 47 48 48 48 43 43 43 14 14 14 6 6 6 2 2 2 6 6 6 35 35 35 48 48 48 47 47 47 47 47 47 48 48 48 41 41 41 9 9 9 5 5 5 7 7 7 14 14 14 40 40 40 47 47 47 46 46 46 45 45 45 28 28 28 1 1 1 1 1 1 1 1 1 1 1 1 0 0 0 0 0 0 1 1 1 1 1 1 0 0 0 2 2 2 2 2 2 1 1 1 1 1 1 0 0 0 1 1 1 0 0 0 0 0 0 1 1 1 0 0 0 1 1 1 1 1 1 8 8 8 43 43 43 43 43 43 36 36 36 43 43 43 44 44 44 42 42 42 44 44 44 30 30 30 13 13 13 8 8 8 8 8 8 14 14 14 37 37 37 45 45 45 39 39 39 30 30 30 5 5 5 1 1 1 1 1 1 0 0 0 1 1 1 1 1 1 1 1 1 1 1 1 2 2 0 1 1 3 3 2 0 26 10 11 47 19 18 45 17 16 18 8 9 0 0 0 11 7 6 44 28 28 49 29 28 48 30 28 46 31 28 48 30 28 48 30 28 48 30 28 48 30 28 48 30 28 48 30 28 48 30 28 48 30 28 48 30 28 48 30 28 48 30 28 48 30 28 
1 1 1 1 1 1 1 1 1 1 1 1 8 8 8 44 44 44 46 46 46 48 48 48 48 48 48 48 48 48 27 27 27 15 15 15 10 10 10 20 20 20 46 46 46 46 46 46 47 47 47 47 47 47 48 48 48 49 49 49 33 33 33 26 26 26 27 27 27 28 28 28 45 45 45 46 46 46 43 43 43 41 41 41 13 13 13 1 1 1 0 0 0 0 0 0 0 0 0 0 0 0 1 1 1 0 0 0 0 0 0 0 0 0 1 1 1 1 1 1 1 1 1 1 1 1 1 1 1 1 1 1 2 2 2 1 1 1 0 0 0 0 0 0 1 1 1 2 2 2 16 16 16 44 44 44 39 39 39 20 20 20 16 16 16 21 21 21 26 26 26 43 43 43 46 46 46 33 33 33 34 34 34 33 33 33 40 40 40 42 42 42 47 47 47 47 47 47 36 36 36 9 9 9 3 3 3 1 1 1 1 1 1 0 2 1 0 0 0 0 0 2 0 0 0 1 1 1 0 0 0 1 1 1 2 2 2 22 8 8 48 18 18 46 18 17 8 4 3 0 0 0 14 8 8 44 26 26 48 30 28 49 29 28 48 30 28 49 31 29 48 30 28 48 30 28 48 30 28 49 31 29 47 29 27 48 30 28 48 30 28 48 30 28 47 29 27 48 30 28 
0 0 0 1 1 1 1 1 1 1 1 1 9 9 9 38 38 38 45 45 45 47 47 47 47 47 47 47 47 47 44 44 44 37 37 37 38 38 38 45 45 45 46 46 46 48 48 48 47 47 47 48 48 48 48 48 48 48 48 48 46 46 46 46 46 46 46 46 46 45 45 45 45 45 45 46 46 46 45 45 45 36 36 36 7 7 7 1 1 1 1 1 1 1 1 1 1 1 1 0 0 0 0 0 0 1 1 1 0 0 0 1 1 1 0 0 0 0 0 0 1 1 1 1 1 1 0 0 0 0 0 0 1 1 1 1 1 1 1 1 1 1 1 1 1 1 1 0 0 0 19 19 19 37 37 37 21 21 21 9 9 9 6 6 6 5 5 5 9 9 9 28 28 28 47 47 47 48 48 48 48 48 48 48 48 48 47 47 47 48 48 48 47 47 47 48 48 48 44 44 44 27 27 27 10 10 10 2 0 1 1 1 1 0 0 0 1 1 1 0 0 0 0 0 0 0 0 2 0 0 0 0 0 0 0 0 0 3 1 2 32 12 13 48 18 18 41 17 15 10 6 5 1 1 1 14 10 9 45 29 29 46 31 28 48 30 28 49 31 29 49 29 28 49 31 29 49 31 29 49 31 29 48 30 28 48 30 28 48 30 28 47 29 27 49 31 29 48 30 28 
1 1 1 1 1 1 0 0 0 0 0 0 13 13 13 36 36 36 42 42 42 46 46 46 47 47 47 47 47 47 48 48 48 48 48 48 47 47 47 47 47 47 47 47 47 47 47 47 48 48 48 48 48 48 48 48 48 45 45 45 46 46 46 46 46 46 47 47 47 46 46 46 46 46 46 43 43 43 46 46 46 27 27 27 3 3 3 0 0 0 0 0 0 0 0 0 1 1 1 1 1 1 1 1 1 1 1 1 1 1 1 1 1 1 1 1 1 1 1 1 1 1 1 0 0 0 0 0 0 0 0 0 0 0 0 1 1 1 1 1 1 0 0 0 0 0 0 1 1 1 16 16 16 37 37 37 25 25 25 6 6 6 5 5 5 5 5 5 7 7 7 31 31 31 48 48 48 49 49 49 47 47 47 46 46 46 48 48 48 48 48 48 47 47 47 47 47 47 47 47 47 44 44 44 13 13 13 1 1 1 1 3 2 0 2 1 0 0 0 0 0 0 0 0 0 1 1 0 1 1 1 0 0 0 0 0 0 1 1 1 1 1 1 36 15 14 46 18 17 42 18 18 4 3 1 0 0 0 20 12 10 47 29 27 48 30 28 49 31 31 49 29 28 47 29 27 48 30 28 50 32 30 48 30 28 48 30 28 48 30 28 48 30 28 48 30 28 48 30 28 
1 1 1 0 0 0 1 1 1 0 0 0 10 10 10 37 37 37 39 39 39 40 40 40 46 46 46 47 47 47 48 48 48 48 48 48 48 48 48 47 47 47 48 48 48 48 48 48 48 48 48 48 48 48 48 48 48 48 48 48 47 47 47 47 47 47 46 46 46 43 43 43 47 47 47 41 41 41 45 45 45 18 18 18 2 2 2 1 1 1 0 0 0 0 0 0 1 1 1 1 1 1 1 1 1 1 1 1 1 1 1 0 0 0 1 1 1 1 1 1 0 0 0 1 1 1 1 1 1 1 1 1 1 1 1 2 2 2 1 1 1 0 0 0 0 0 0 1 1 1 15 15 15 32 32 32 34 34 34 23 23 23 17 17 17 21 21 21 18 18 18 42 42 42 48 48 48 46 46 46 37 37 37 35 35 35 45 45 45 46 46 46 47 47 47 49 49 49 43 43 43 43 43 43 21 21 21 2 2 2 1 1 1 1 1 1 0 0 0 0 0 0 1 1 1 1 1 1 1 1 1 0 0 0 1 1 1 1 1 1 0 0 0 3 2 0 30 12 12 48 18 18 39 15 15 7 1 3 0 0 0 24 14 12 48 28 27 49 29 28 47 29 27 49 31 29 48 30 28 48 30 28 48 30 28 49 31 29 48 30 28 48 30 28 48 30 28 48 30 28 
0 0 0 0 0 0 1 1 1 0 0 0 11 11 11 25 25 25 33 33 33 34 34 34 41 41 41 45 45 45 48 48 48 47 47 47 47 47 47 47 47 47 43 43 43 40 40 40 41 41 41 38 38 38 46 46 46 48 48 48 48 48 48 47 47 47 46 46 46 46 46 46 47 47 47 46 46 46 39 39 39 11 11 11 1 1 1 1 1 1 0 0 0 1 1 1 1 1 1 1 1 1 0 0 0 0 0 0 0 0 0 2 2 2 0 0 0 0 0 0 0 0 0 1 1 1 0 0 0 1 1 1 0 0 0 1 1 1 0 0 0 1 1 1 0 0 0 0 0 0 11 11 11 38 38 38 43 43 43 46 46 46 45 45 45 47 47 47 44 44 44 47 47 47 48 48 48 42 42 42 10 10 10 6 6 6 15 15 15 30 30 30 44 44 44 47 47 47 45 45 45 40 40 40 25 25 25 4 4 4 0 0 0 1 1 1 0 0 0 0 0 0 0 0 0 0 0 0 1 1 1 1 1 1 0 0 0 1 1 1 1 1 1 0 0 0 2 2 0 39 15 15 46 18 17 38 14 14 2 2 2 1 1 1 33 22 20 47 32 29 48 30 28 47 29 29 49 29 28 48 30 28 48 30 28 48 30 28 48 30 28 49 29 28 49 31 31 48 30 30 
1 1 1 0 0 0 1 1 1 0 0 0 6 6 6 20 20 20 26 26 26 23 23 23 33 33 33 46 46 46 47 47 47 47 47 47 48 48 48 45 45 45 13 13 13 10 10 10 7 7 7 6 6 6 38 38 38 47 47 47 47 47 47 46 46 46 47 47 47 48 48 48 46 46 46 43 43 43 38 38 38 6 6 6 1 1 1 0 0 0 1 1 1 1 1 1 1 1 1 0 0 0 1 1 1 1 1 1 0 0 0 0 0 0 0 0 0 0 0 0 1 1 1 2 0 1 2 0 1 0 0 0 0 0 0 0 0 0 2 2 2 1 1 1 0 0 0 1 1 1 5 5 5 30 30 30 47 47 47 46 46 46 43 43 43 46 46 46 47 47 47 47 47 47 48 48 48 43 43 43 11 11 11 8 8 8 14 14 14 14 14 14 45 45 45 48 48 48 47 47 47 39 39 39 36 36 36 7 7 7 0 0 0 1 1 1 0 0 0 1 1 1 1 1 1 0 0 0 1 1 1 1 1 1 1 1 1 1 1 1 0 0 0 1 1 1 1 1 1 9 5 2 41 17 17 46 18 17 29 13 14 2 1 0 6 5 3 38 24 23 49 31 27 48 30 30 49 31 29 49 31 29 48 30 30 47 29 29 48 30 28 48 30 28 47 29 29 48 30 26 
1 1 1 1 1 1 1 1 1 1 1 1 0 0 0 6 6 6 8 8 8 24 24 24 43 43 43 47 47 47 48 48 48 48 48 48 48 48 48 40 40 40 3 3 3 3 3 3 1 1 1 2 2 2 28 28 28 48 48 48 47 47 47 47 47 47 47 47 47 46 46 46 45 45 45 46 46 46 27 27 27 2 2 2 1 1 1 1 1 1 1 1 1 0 0 0 1 1 1 1 1 1 0 0 0 0 0 0 2 2 2 1 1 1 0 2 1 1 1 1 1 1 1 1 1 1 0 0 0 0 0 0 0 0 0 1 1 1 1 1 1 0 0 0 0 0 0 1 1 1 4 4 4 18 18 18 41 41 41 41 41 41 40 40 40 42 42 42 46 46 46 47 47 47 46 46 46 45 45 45 29 29 29 18 18 18 24 24 24 14 14 14 46 46 46 47 47 47 47 47 47 46 46 46 33 33 33 6 6 6 1 1 1 1 1 1 1 1 1 0 0 0 1 1 1 0 0 0 0 0 0 1 1 1 0 0 0 1 1 1 0 0 0 0 0 0 1 1 1 2 2 2 11 6 3 45 17 16 47 19 18 23 7 8 0 0 0 6 5 3 40 26 23 46 31 28 45 30 27 48 30 28 48 30 28 47 29 27 49 31 29 48 30 28 46 31 28 48 30 28 
1 1 1 1 1 1 1 1 1 0 0 0 0 0 0 1 1 1 3 3 3 22 22 22 46 46 46 48 48 48 48 48 48 47 47 47 47 47 47 32 32 32 2 2 2 4 4 4 1 1 1 2 2 2 28 28 28 48 48 48 47 47 47 47 47 47 43 43 43 48 48 48 47 47 47 39 39 39 11 11 11 0 0 0 0 0 0 0 0 0 1 1 1 0 0 0 1 1 1 0 0 0 1 1 1 0 0 0 1 1 1 0 0 0 0 0 0 0 0 0 0 0 0 0 0 0 1 1 1 2 2 2 0 0 0 0 0 0 0 0 0 1 1 1 1 1 1 1 1 1 1 1 1 2 2 2 18 18 18 26 26 26 33 33 33 42 42 42 46 46 46 47 47 47 46 46 46 47 47 47 48 48 48 43 43 43 36 36 36 34 34 34 48 48 48 47 47 47 48 48 48 48 48 48 37 37 37 25 25 25 2 2 2 0 0 0 0 0 0 1 1 1 2 2 2 1 1 1 0 0 0 0 0 0 1 1 1 1 1 1 0 0 0 1 1 1 2 2 2 2 2 2 0 2 1 17 7 8 47 19 18 46 18 17 17 7 6 0 0 0 8 6 7 41 26 23 48 30 28 47 29 27 48 30 28 49 29 28 46 31 28 48 30 28 48 30 28 48 30 28 
1 1 1 1 1 1 1 1 1 1 1 1 1 1 1 0 0 0 0 0 0 22 22 22 46 46 46 47 47 47 44 44 44 47 47 47 46 46 46 30 30 30 6 6 6 4 4 4 3 3 3 5 5 5 40 40 40 47 47 47 47 47 47 46 46 46 46 46 46 46 46 46 44 44 44 33 33 33 3 3 3 1 1 1 0 0 0 1 1 1 2 2 2 0 0 0 0 0 0 1 1 1 1 1 1 1 1 1 1 1 1 2 2 2 1 1 1 0 0 0 0 0 0 1 1 1 1 1 1 0 0 0 0 0 0 0 0 0 1 1 1 1 1 1 0 0 0 1 1 1 1 1 1 3 3 3 8 8 8 15 15 15 19 19 19 41 41 41 47 47 47 48 48 48 47 47 47 47 47 47 48 48 48 47 47 47 48 48 48 47 47 47 48 48 48 47 47 47 46 46 46 47 47 47 45 45 45 20 20 20 0 0 0 2 2 2 0 0 0 0 0 0 0 0 0 1 1 1 0 0 0 1 1 1 0 0 0 0 0 0 0 0 0 1 1 1 1 1 0 2 2 2 3 3 3 0 0 0 24 10 10 47 19 18 44 16 15 11 5 7 1 1 1 11 7 6 39 25 22 46 31 28 49 31 29 48 30 28 48 30 30 46 30 30 49 29 28 46 31 28 
1 1 1 1 1 1 0 0 0 1 1 1 1 1 1 0 0 0 0 0 0 30 30 30 38 38 38 43 43 43 41 41 41 48 48 48 48 48 48 44 44 44 22 22 22 24 24 24 32 32 32 36 36 36 47 47 47 46 46 46 47 47 47 47 47 47 47 47 47 46 46 46 40 40 40 18 18 18 0 0 0 1 1 1 1 1 1 0 0 0 1 1 1 0 0 0 1 1 1 0 0 0 0 0 0 1 1 1 0 0 0 1 1 1 1 1 1 1 1 1 2 2 2 0 0 0 1 1 1 1 1 1 1 1 1 0 0 0 0 0 0 1 1 1 0 0 0 0 0 0 1 1 1 0 0 0 2 2 2 6 6 6 12 12 12 30 30 30 42 42 42 46 46 46 46 46 46 47 47 47 47 47 47 46 46 46 48 48 48 47 47 47 47 47 47 44 44 44 45 45 45 43 43 43 41 41 41 10 10 10 1 1 1 0 0 0 1 1 1 0 0 0 0 0 0 1 1 1 1 0 0 2 2 2 0 0 0 0 0 0 2 0 1 0 0 0 1 1 1 14 14 14 35 35 35 3 3 3 2 0 1 28 10 10 47 19 18 41 15 14 15 7 5 1 1 1 6 4 5 38 24 23 45 30 27 46 31 28 48 30 28 48 30 28 47 29 27 46 31 28 
0 0 0 0 0 0 0 0 0 0 0 0 0 0 0 1 1 1 3 3 3 31 31 31 38 38 38 44 44 44 42 42 42 47 47 47 47 47 47 48 48 48 45 45 45 48 48 48 47 47 47 47 47 47 47 47 47 46 46 46 45 45 45 46 46 46 46 46 46 43 43 43 26 26 26 2 2 2 0 0 0 1 1 1 1 1 1 0 0 0 1 1 1 1 1 1 1 1 1 1 1 1 1 1 1 2 2 2 0 0 0 3 1 2 0 0 0 8 13 9 12 17 13 8 10 7 1 1 1 1 1 3 1 1 1 1 1 1 2 2 2 1 1 1 1 1 1 0 0 0 1 1 1 1 1 1 1 1 1 0 0 0 4 4 4 17 17 17 30 30 30 35 35 35 34 34 34 42 42 42 46 46 46 46 46 46 47 47 47 46 46 46 47 47 47 43 43 43 44 44 44 42 42 42 27 27 27 10 10 10 0 0 0 0 0 0 1 1 1 1 1 1 0 0 0 0 0 0 0 0 0 0 0 0 1 1 1 0 0 0 2 0 1 1 1 1 3 3 3 36 36 36 38 38 38 11 11 13 0 0 0 2 0 1 30 12 12 47 19 18 45 17 16 18 7 5 0 0 2 8 7 5 46 30 30 46 31 28 47 29 27 49 29 28 48 30 28 47 28 30 
1 1 1 0 0 0 1 1 1 1 1 1 1 1 1 1 1 1 5 5 5 31 31 31 45 45 45 46 46 46 46 46 46 48 48 48 48 48 48 48 48 48 48 48 48 47 47 47 47 47 47 48 48 48 47 47 47 48 48 48 47 47 47 47 47 47 45 45 45 40 40 40 15 15 15 1 1 1 1 1 1 0 0 0 0 0 0 1 1 1 0 0 0 1 1 1 0 0 0 0 0 0 1 1 1 1 1 1 0 0 0 1 1 0 7 9 6 26 37 29 29 42 32 25 37 27 7 12 8 1 1 3 0 0 0 0 0 0 2 2 2 1 1 1 1 1 1 0 0 0 0 0 0 1 1 1 1 1 1 1 1 1 0 0 0 4 4 4 9 9 9 14 14 14 17 17 17 26 26 26 34 34 34 40 40 40 45 45 45 47 47 47 45 45 45 39 39 39 33 33 33 29 29 29 14 14 14 1 1 1 1 1 1 1 1 1 0 0 0 0 0 0 0 0 0 1 1 1 1 1 0 1 1 1 0 0 0 1 1 1 1 1 1 1 1 1 23 23 23 43 41 42 22 22 22 1 1 3 1 1 0 0 0 0 3 1 2 39 15 15 47 17 17 46 18 15 12 6 6 1 1 1 18 14 13 47 29 27 47 29 27 47 32 29 48 30 28 48 30 28 
1 1 1 0 0 0 0 0 0 1 1 1 1 1 1 1 1 1 15 15 15 39 39 39 41 41 41 42 42 42 46 46 46 48 48 48 47 47 47 48 48 48 47 47 47 47 47 47 48 48 48 47 47 47 47 47 47 48 48 48 47 47 47 46 46 46 45 45 45 40 40 40 12 12 12 1 1 1 1 1 1 0 0 0 0 0 0 1 1 1 0 0 0 1 1 1 0 0 0 1 1 1 0 0 0 0 0 0 0 0 0 3 3 3 24 35 29 29 42 33 30 46 35 29 42 33 17 23 19 0 0 0 1 1 1 1 1 1 0 0 0 1 1 1 1 1 1 0 0 0 1 1 1 1 1 1 2 2 2 1 1 1 1 1 1 1 1 1 1 1 1 2 2 2 2 2 2 1 1 1 2 2 2 7 7 7 31 31 31 34 34 34 31 31 31 31 31 31 21 21 21 10 10 10 2 2 2 0 0 0 1 1 1 1 1 1 1 1 1 1 1 1 0 0 0 1 1 1 1 1 1 1 1 1 0 0 0 0 0 0 1 1 1 7 7 7 38 38 38 33 33 33 4 4 4 0 0 0 1 1 1 1 1 1 0 0 0 5 4 2 38 14 14 48 18 18 33 13 12 2 2 0 1 1 1 30 20 19 48 30 28 46 31 28 50 30 29 48 30 28 
1 1 1 1 1 1 1 1 1 1 1 1 0 0 0 1 1 1 19 19 19 41 41 41 42 42 42 42 42 42 47 47 47 43 43 43 41 41 41 44 44 44 44 44 44 46 46 46 46 46 46 47 47 47 47 47 47 47 47 47 45 45 45 45 45 45 45 45 45 34 34 34 5 5 5 1 1 1 0 0 0 1 1 1 0 0 0 1 1 1 0 0 0 1 1 1 0 0 0 1 1 1 1 1 1 1 1 1 0 0 0 15 21 17 29 42 33 29 45 34 31 44 34 26 39 30 6 8 7 0 0 0 2 2 2 1 1 1 1 1 1 0 0 0 1 1 1 0 0 0 1 1 1 1 1 1 0 0 0 1 1 1 0 0 0 0 0 0 1 1 1 1 1 1 0 0 0 0 0 0 0 0 0 1 1 1 3 3 3 16 16 16 17 17 17 16 16 16 8 8 8 2 2 2 0 0 0 0 0 0 0 0 0 1 1 1 1 1 1 1 1 1 1 1 1 1 1 1 0 0 0 0 0 0 1 1 1 1 1 1 12 12 12 37 37 37 40 40 40 11 11 11 0 2 1 1 1 1 0 0 0 1 1 1 1 1 1 1 3 2 10 4 4 41 15 16 48 18 16 26 11 8 2 0 1 3 3 3 30 18 18 48 30 28 47 29 27 48 30 28 
1 1 1 1 1 1 1 1 1 1 1 1 1 1 1 0 0 0 12 12 12 38 38 38 38 38 38 44 44 44 48 48 48 41 41 41 33 33 33 38 38 38 36 36 36 42 42 42 37 37 37 41 41 41 46 46 46 47 47 47 45 45 45 43 43 43 36 36 36 12 12 12 0 0 0 1 1 1 0 0 0 0 0 0 0 0 0 1 1 1 1 1 1 1 1 1 0 0 0 0 0 0 1 1 1 0 0 0 10 15 11 28 41 32 32 45 36 27 40 33 28 41 32 13 22 17 0 0 0 0 2 1 0 0 0 1 1 1 0 0 0 1 1 1 1 1 1 1 1 1 1 1 1 0 0 0 0 0 0 0 0 0 0 0 0 0 0 0 0 0 0 0 0 0 1 1 1 0 0 0 0 0 0 0 0 0 0 0 0 1 1 1 7 7 7 4 4 4 0 0 0 1 1 1 1 1 1 1 1 1 1 1 1 0 0 0 0 0 0 0 0 0 1 1 1 0 0 0 1 1 1 0 0 0 0 0 0 3 3 3 37 37 37 41 41 41 17 17 17 1 1 1 1 1 1 1 1 1 3 3 3 3 3 3 0 2 1 0 0 0 0 0 0 6 2 1 40 16 16 48 18 18 19 7 7 2 0 1 2 0 1 34 23 21 47 29 27 47 29 27 
1 1 1 1 1 1 1 1 1 2 2 2 1 1 1 0 0 0 13 13 13 39 39 39 40 40 40 46 46 46 47 47 47 37 37 37 27 27 27 28 28 28 29 29 29 8 8 8 3 3 3 7 7 7 24 24 24 38 38 38 44 44 44 39 39 39 13 13 13 2 2 2 1 1 1 0 0 0 1 1 1 0 0 0 1 1 1 2 2 2 0 0 0 1 1 1 0 0 0 0 0 0 1 1 1 2 2 2 27 38 30 30 46 35 27 43 32 29 42 33 23 34 28 2 2 2 0 0 0 1 0 0 0 0 0 1 1 1 0 0 0 1 1 1 1 1 1 0 0 0 0 0 0 0 0 0 1 1 1 1 1 1 0 0 0 0 0 0 1 1 1 1 1 1 0 0 0 2 2 2 1 1 1 1 1 1 1 1 1 0 0 0 1 1 1 1 1 1 1 1 1 0 0 0 1 1 1 1 1 1 1 1 1 1 1 1 0 0 0 1 1 1 1 1 1 0 0 0 1 1 1 1 1 1 2 2 2 32 32 32 42 42 42 24 24 24 1 1 1 1 1 1 0 0 0 3 3 3 19 25 21 13 19 17 7 9 8 1 1 1 1 1 1 1 1 1 6 2 1 41 15 14 48 18 18 27 11 12 1 1 1 1 3 2 42 24 24 46 31 28 
0 0 0 1 1 1 0 0 0 0 0 0 1 1 1 1 1 1 16 16 16 40 40 40 44 44 44 46 46 46 44 44 44 27 27 27 21 21 21 29 29 29 8 8 8 0 0 0 1 1 1 1 1 1 1 1 1 3 3 3 9 9 9 7 7 7 1 1 1 1 1 1 1 1 1 0 0 0 1 1 1 0 0 0 1 1 1 1 1 1 0 0 0 0 0 0 0 0 0 1 1 1 1 1 1 5 5 5 24 37 28 29 42 33 30 43 34 31 44 35 14 20 18 2 0 1 0 0 0 1 1 1 1 1 1 1 1 1 0 0 0 0 0 0 1 1 1 0 0 0 1 1 1 1 1 1 0 0 0 0 0 0 1 1 1 1 1 1 0 0 0 1 1 1 1 1 1 0 0 0 1 1 1 0 0 0 1 1 1 1 1 1 0 0 0 0 0 0 0 0 0 2 2 2 1 1 1 1 1 1 1 1 1 1 1 1 1 1 1 1 1 1 1 1 1 0 0 0 1 1 1 0 0 0 25 25 25 42 42 42 31 31 31 5 5 5 0 0 0 0 0 0 1 1 1 4 6 5 22 31 26 19 28 23 23 34 26 7 11 10 0 0 2 1 1 1 0 0 0 10 5 2 48 18 20 46 18 17 11 5 5 0 0 0 20 12 10 46 28 26 
1 1 1 1 1 1 1 1 1 1 1 1 0 0 0 0 0 0 14 14 14 38 38 38 42 42 42 46 46 46 31 31 31 19 19 19 20 20 20 18 18 18 4 4 4 2 2 2 0 0 0 1 1 1 1 1 1 1 1 1 1 1 1 1 1 1 1 1 1 1 1 1 1 1 1 1 1 1 0 0 0 1 1 1 1 1 1 1 1 1 1 1 1 0 0 0 1 1 1 0 0 0 1 1 1 2 2 2 10 15 11 16 22 18 22 33 27 25 36 30 3 3 3 2 0 1 1 1 0 1 1 1 1 1 1 1 1 1 0 0 0 1 1 1 1 1 1 0 0 0 0 0 0 1 1 1 1 1 1 1 1 1 0 0 0 1 1 1 1 1 1 1 1 1 1 1 1 1 1 1 1 1 1 1 1 1 1 1 1 1 1 1 0 0 0 1 1 1 0 0 0 1 1 1 1 1 1 0 0 0 0 0 0 0 0 0 1 1 1 1 1 1 0 0 0 1 1 1 1 1 1 12 12 12 41 41 41 38 38 38 3 3 3 1 1 1 1 1 1 0 0 0 1 1 1 3 5 4 18 27 22 21 32 24 29 43 30 12 18 14 1 1 1 0 0 0 2 2 2 0 0 0 19 8 6 46 18 17 37 16 15 3 1 2 1 1 1 25 17 14 
1 1 1 0 0 0 0 0 0 1 1 1 1 1 1 1 1 1 8 8 8 35 35 35 40 40 40 43 43 43 28 28 28 21 21 21 13 13 13 13 13 13 3 3 3 0 0 0 0 0 0 0 0 0 1 1 1 1 1 1 2 2 2 1 1 1 0 0 0 0 0 0 1 1 1 0 0 0 0 0 0 0 0 0 1 1 1 0 0 0 1 1 1 0 0 0 0 0 0 1 1 1 1 1 1 1 1 1 0 0 0 0 0 0 5 5 3 2 2 0 1 1 0 1 1 1 2 1 0 0 0 0 0 0 0 0 0 0 1 1 1 1 1 1 1 1 1 1 1 1 0 0 0 1 1 1 2 2 2 1 1 1 1 1 1 0 0 0 1 1 1 0 0 0 1 1 1 0 0 0 1 1 1 0 0 0 0 0 0 0 0 0 1 1 1 1 1 1 2 2 2 0 0 0 1 1 1 0 0 0 1 1 1 0 0 0 0 0 0 1 1 1 1 1 1 1 1 1 5 5 5 34 34 34 40 40 40 9 9 9 0 0 0 0 0 0 0 0 0 1 1 1 0 2 1 4 6 5 25 36 28 29 42 33 27 40 31 15 21 19 1 1 1 1 1 1 0 0 0 1 1 1 0 0 0 22 8 8 47 17 17 32 12 11 1 1 1 11 5 5 
0 0 0 1 1 1 1 1 1 0 0 0 0 0 0 1 1 1 4 4 4 27 27 27 40 40 40 40 40 40 33 33 33 35 35 35 10 10 10 2 2 2 1 1 1 1 1 1 1 1 1 0 0 0 0 0 0 1 1 1 1 1 1 1 1 1 0 0 0 1 1 1 0 0 0 0 0 0 1 1 1 1 1 1 2 2 2 1 1 1 1 1 1 1 1 1 1 1 1 0 0 0 1 1 1 1 1 1 1 1 1 1 1 1 1 1 1 1 1 1 0 0 0 2 0 1 1 1 1 2 0 1 0 0 0 1 1 1 1 1 1 1 1 1 1 1 1 1 1 1 1 1 1 1 1 1 1 1 1 1 1 1 0 0 0 1 1 1 1 1 1 1 1 1 0 0 0 0 0 0 1 1 1 0 0 0 1 1 1 1 1 1 1 1 1 1 1 1 1 1 1 1 1 1 1 1 1 1 1 1 0 0 0 1 1 1 2 2 2 1 1 1 1 1 1 6 6 6 36 36 36 41 41 41 20 20 20 0 0 0 1 1 1 1 1 1 1 1 1 0 0 0 0 0 0 5 7 4 20 31 25 16 25 20 19 28 23 4 6 5 0 0 0 0 0 0 0 0 0 0 2 1 2 2 2 0 0 0 33 11 13 46 18 17 16 6 5 1 1 1 
1 1 1 0 0 0 1 1 1 1 1 1 1 1 1 1 1 1 0 0 0 13 13 13 29 29 29 34 34 34 37 37 37 29 29 29 7 7 7 2 2 2 1 1 1 1 1 1 1 1 1 1 1 1 1 1 1 1 1 1 1 1 1 1 1 1 0 0 0 1 1 1 1 1 1 1 1 1 1 1 1 0 0 0 1 1 1 0 0 0 1 1 1 0 0 0 1 1 1 1 1 1 1 1 1 0 0 0 0 0 0 1 1 1 0 0 0 0 0 0 1 1 1 0 0 0 0 0 0 0 0 0 1 1 1 1 1 1 1 1 1 2 2 2 0 0 0 1 1 1 1 1 1 0 0 0 2 2 2 1 1 1 1 1 1 0 0 0 0 0 0 0 0 0 1 1 1 1 1 1 0 0 0 0 0 0 1 1 1 1 1 1 1 1 1 0 0 0 0 0 0 0 0 0 0 0 0 1 1 1 0 0 0 0 0 0 1 1 1 1 1 1 9 9 9 38 38 38 40 40 40 15 13 14 1 1 1 0 0 0 1 1 1 1 1 1 1 1 1 0 1 0 2 0 1 1 1 1 8 10 9 4 6 5 3 3 3 1 1 1 1 1 1 1 1 1 1 1 1 4 5 7 28 26 27 2 2 2 3 2 0 37 16 15 43 17 16 13 4 5 
0 0 0 0 0 0 1 1 1 1 1 1 1 1 1 1 1 1 0 0 0 6 6 6 22 22 22 25 25 25 26 26 26 15 15 15 6 6 6 2 2 2 1 1 1 1 1 1 0 0 0 1 1 1 0 0 0 1 1 1 0 0 0 1 1 1 1 1 1 0 0 0 2 2 2 0 0 0 2 2 2 0 0 0 1 1 1 0 0 0 0 0 0 1 1 1 0 0 0 0 0 0 1 1 1 1 1 1 1 1 1 1 1 1 0 0 0 1 1 1 1 1 1 1 1 1 0 0 0 1 1 1 1 1 1 0 0 0 1 1 1 0 0 0 1 1 1 1 1 1 0 0 0 1 1 1 1 1 1 0 0 0 0 0 0 1 1 1 1 1 1 1 1 1 1 1 1 1 1 1 0 0 0 2 2 2 1 1 1 0 0 0 0 0 0 1 1 1 1 1 1 1 1 1 1 1 1 1 1 1 1 1 1 1 1 1 1 1 1 11 11 11 38 38 38 40 40 40 21 21 21 1 1 1 1 1 1 0 0 0 1 1 1 0 0 2 2 2 4 4 4 4 4 6 5 4 4 4 2 2 2 1 1 1 1 1 1 1 1 1 0 0 0 1 1 1 1 1 1 18 18 18 42 42 42 13 13 13 0 0 0 0 2 1 37 16 15 44 18 17 
0 0 0 1 1 1 0 0 0 0 0 0 0 0 0 0 0 0 0 0 0 2 2 2 7 7 7 15 15 15 7 7 7 5 5 5 0 0 0 1 1 1 0 0 0 1 1 1 0 0 0 2 2 2 1 1 1 0 0 0 1 1 1 0 0 0 1 1 1 1 1 1 1 1 1 1 1 1 0 0 0 0 0 0 0 0 0 1 1 1 1 1 1 0 0 0 0 0 0 0 0 0 1 1 1 1 1 1 0 0 0 1 1 1 1 1 1 1 1 1 0 0 0 1 1 1 0 0 0 0 0 0 1 1 1 0 0 0 1 1 1 0 0 0 0 0 0 0 0 0 1 1 1 0 0 0 2 2 2 0 0 0 1 1 1 1 1 1 1 1 1 1 1 1 0 0 0 0 0 0 1 1 1 0 0 0 1 1 1 1 1 1 1 1 1 1 1 1 2 2 2 1 1 1 2 2 2 1 1 1 1 1 1 0 0 0 10 10 10 39 39 39 38 38 38 15 15 15 0 2 1 0 0 0 1 1 1 1 1 1 0 0 0 0 0 0 6 8 5 19 30 22 18 29 21 18 27 22 8 14 10 1 3 2 0 0 0 0 0 0 1 1 1 0 0 0 1 3 2 33 33 33 40 40 40 21 17 16 1 1 1 1 1 1 16 6 5 46 18 17 
1 1 1 1 1 1 1 1 1 1 1 1 1 1 1 1 1 1 0 0 0 1 1 1 2 2 2 0 0 0 1 1 1 1 1 1 2 2 2 1 1 1 0 0 0 1 1 1 1 1 1 0 0 0 1 1 1 1 1 1 1 1 1 1 1 1 1 1 1 1 1 1 1 1 1 0 0 0 1 1 1 0 0 0 0 0 0 0 0 0 0 0 0 1 1 1 2 2 2 1 1 1 1 1 1 1 1 1 1 1 1 1 1 1 2 2 2 2 2 2 0 0 0 0 0 0 0 0 0 0 0 0 1 1 1 0 0 0 1 1 1 1 1 1 1 1 1 0 0 0 1 1 1 0 0 0 1 1 1 0 0 0 0 0 0 1 1 1 1 1 1 1 1 1 2 2 2 0 0 0 1 1 1 1 1 1 0 0 0 1 1 1 1 1 1 0 0 0 1 1 1 0 0 0 0 0 0 1 1 1 0 0 0 8 8 8 37 37 37 40 40 40 16 16 16 0 0 0 1 1 1 1 1 1 1 1 1 1 1 1 1 1 1 2 2 2 5 5 5 16 22 18 20 30 22 23 34 28 14 20 16 3 5 4 1 1 1 1 1 1 1 1 1 1 1 0 16 16 16 42 42 42 39 33 33 44 24 25 14 8 8 1 1 1 0 0 0 23 9 9 
1 1 1 1 1 1 1 1 1 0 0 0 0 0 0 1 1 1 0 0 0 0 0 0 0 0 0 1 1 1 1 1 1 1 1 1 1 1 1 1 1 1 0 0 0 0 0 0 1 1 1 0 0 0 1 1 1 1 1 1 0 0 0 0 0 0 2 2 2 0 0 0 1 1 1 0 0 0 0 0 0 0 0 0 1 1 1 2 2 2 0 0 0 1 1 1 0 0 0 2 2 2 0 0 0 1 1 1 0 0 0 0 0 0 1 1 1 0 0 0 1 1 1 0 0 0 0 0 0 1 1 1 1 1 1 1 1 1 0 0 0 0 0 0 1 1 1 1 1 1 1 1 1 0 0 0 0 0 0 1 1 1 1 1 1 1 1 1 1 1 1 0 0 0 1 1 1 1 1 1 1 1 1 1 1 1 1 1 1 0 0 0 1 1 1 0 0 0 1 1 1 0 0 0 0 0 0 1 1 1 13 13 13 37 37 37 40 40 40 14 14 14 1 1 1 1 1 1 2 0 1 2 2 2 1 1 1 0 0 0 1 3 2 0 0 0 1 1 1 1 3 2 5 5 5 2 4 3 3 3 3 1 1 1 1 1 1 0 0 0 2 2 2 5 5 5 37 37 37 40 38 39 44 26 26 47 27 28 43 25 25 15 9 9 1 1 1 1 1 1 
0 1 0 1 1 1 1 1 1 1 1 1 1 1 1 0 0 0 1 1 1 1 1 1 1 1 1 1 1 1 1 1 1 0 0 0 1 1 1 0 0 0 1 1 1 0 0 0 0 0 0 2 2 2 1 1 1 2 2 2 1 1 1 1 1 1 1 1 1 1 1 1 1 1 1 1 1 1 0 0 0 1 1 1 1 1 1 1 1 1 1 1 1 1 1 1 0 0 0 1 1 1 1 1 1 1 1 1 1 1 1 0 0 0 1 1 1 1 1 1 1 1 1 1 1 1 2 2 2 1 1 1 1 1 1 1 1 1 0 0 0 0 0 0 0 0 0 1 1 1 1 1 1 0 0 0 1 1 1 0 0 0 1 1 1 1 1 1 0 0 0 1 1 1 1 1 1 1 1 1 0 0 0 0 0 0 0 0 0 1 1 1 0 0 0 1 1 1 0 0 0 2 2 2 1 1 1 12 12 12 40 40 40 39 39 39 10 10 10 0 0 0 0 0 0 0 0 0 5 7 6 13 19 17 12 16 15 5 5 5 0 0 0 1 1 1 1 1 1 1 1 1 1 1 1 1 1 1 0 0 0 0 0 0 1 1 1 1 1 1 0 0 0 24 24 24 40 40 40 42 32 31 45 27 27 45 27 27 46 28 24 44 24 25 12 8 9 0 0 0 
0 0 0 1 1 1 0 0 0 1 1 1 1 1 1 1 1 1 1 1 1 1 1 1 1 1 1 0 0 0 1 1 1 1 1 1 0 0 0 1 1 1 0 0 0 0 0 0 0 0 0 1 1 1 2 2 2 1 1 1 1 1 1 1 1 1 0 0 0 0 0 0 1 1 1 1 1 1 0 0 0 0 0 0 0 0 0 1 1 1 0 0 0 1 1 1 1 1 1 1 1 1 0 0 0 0 0 0 1 1 1 0 0 0 0 0 0 0 0 0 0 0 0 0 0 0 1 1 1 1 1 1 1 1 1 0 0 0 1 1 1 1 1 1 1 1 1 1 1 1 0 0 0 0 0 0 1 1 1 1 1 1 1 1 1 1 1 1 0 0 0 0 0 0 1 1 1 1 1 1 0 0 0 0 0 0 0 0 0 1 1 1 0 0 0 1 1 1 0 0 0 1 1 1 16 16 16 39 39 39 37 37 37 8 8 8 0 0 0 1 1 1 1 1 1 1 1 1 8 10 7 22 33 25 24 35 27 16 22 18 0 0 0 0 0 0 1 1 1 1 1 1 2 2 2 0 0 0 0 2 1 0 0 0 0 0 0 1 1 1 8 8 8 40 40 40 41 35 35 46 28 28 45 27 27 45 25 24 45 25 26 46 26 25 39 21 21 6 4 5 
2 0 1 1 1 1 0 0 0 2 2 2 0 0 0 1 1 1 1 1 1 1 1 1 1 1 1 0 0 0 1 1 1 1 1 1 0 0 0 0 0 0 0 0 0 0 0 0 0 0 0 1 1 1 1 1 1 0 0 0 1 1 1 0 0 0 0 0 0 1 1 1 0 0 0 1 1 1 1 1 1 1 1 1 0 0 0 0 0 0 0 0 0 0 0 0 0 0 0 0 0 0 1 1 1 1 1 1 1 1 1 2 2 2 1 1 1 0 0 0 0 0 0 0 0 0 0 0 0 0 0 0 1 1 1 2 2 2 0 0 0 1 1 1 1 1 1 1 1 1 1 1 1 1 1 1 1 1 1 0 0 0 0 0 0 1 1 1 1 1 1 0 0 0 1 1 1 1 1 1 1 1 1 0 0 0 1 1 1 0 0 0 0 0 0 0 0 0 1 1 1 16 16 16 41 41 41 38 38 38 8 8 8 1 1 1 1 1 1 1 1 1 0 0 0 0 0 0 10 12 11 26 39 30 25 37 27 19 30 22 2 2 2 0 0 0 1 1 1 1 1 1 0 0 0 1 1 1 1 1 1 0 2 1 1 1 1 4 4 4 36 36 36 39 39 39 42 26 26 46 28 28 44 26 26 44 24 25 46 26 27 46 25 24 43 25 25 32 18 18 
1 1 1 1 1 1 0 0 0 1 1 1 1 1 1 1 1 1 1 1 1 1 1 1 0 0 0 2 2 2 0 0 0 1 1 1 1 1 1 2 2 2 1 1 1 0 0 0 0 0 0 1 1 1 1 1 1 0 0 0 1 1 1 1 1 1 0 0 0 0 0 0 1 1 1 1 1 1 0 0 0 1 1 1 0 0 0 1 1 1 1 1 1 1 1 1 1 1 1 0 0 0 1 1 1 1 1 1 1 1 1 1 1 1 2 2 2 1 1 1 1 1 1 1 1 1 0 0 0 0 0 0 1 1 1 0 0 0 1 1 1 1 1 1 1 1 1 1 1 1 1 1 1 1 1 1 1 1 1 1 1 1 1 1 1 1 1 1 1 1 1 1 1 1 1 1 1 1 1 1 1 1 1 1 1 1 0 0 0 1 1 1 0 0 0 1 1 1 20 20 20 41 41 41 39 39 37 11 11 11 1 1 1 1 1 1 1 1 1 0 0 0 1 1 1 1 1 1 8 10 7 20 29 24 21 32 24 18 27 22 3 3 3 1 1 3 1 0 0 1 1 1 1 1 1 0 0 0 2 2 2 1 1 1 3 3 3 32 32 34 40 42 41 38 34 33 46 28 28 47 27 28 46 28 28 45 27 27 47 29 29 44 28 28 48 28 29 46 28 28 
0 0 0 0 0 0 0 0 0 0 0 0 1 1 1 1 1 1 1 1 1 0 0 0 1 1 1 0 0 0 1 1 1 0 0 0 0 0 0 1 1 1 1 1 1 1 1 1 1 1 1 0 0 0 1 1 1 1 1 1 1 1 1 0 0 0 1 1 1 1 1 1 1 1 1 1 1 1 1 1 1 1 1 1 1 1 1 1 1 1 0 0 0 1 1 1 1 1 1 1 1 1 2 2 2 1 1 1 1 1 1 1 1 1 0 0 0 1 1 1 0 0 0 1 1 1 0 0 0 0 0 0 1 1 1 1 1 1 0 0 0 0 0 0 1 1 1 1 1 1 1 1 1 0 0 0 1 1 1 1 1 1 0 0 0 0 0 0 1 1 1 0 0 0 1 1 1 1 1 1 0 0 0 1 1 1 1 1 1 1 1 1 3 3 3 25 25 25 40 40 40 36 36 36 5 5 5 0 0 0 1 1 1 1 1 1 1 1 1 0 0 0 1 1 1 0 0 0 3 3 3 16 22 18 17 26 21 17 23 19 1 1 1 1 1 1 1 1 1 0 2 1 2 2 2 1 1 1 1 1 1 1 1 1 13 13 13 40 42 41 38 37 35 45 25 26 47 28 30 44 26 26 45 27 27 46 26 27 44 24 23 44 26 24 45 25 24 45 25 26 
0 0 0 2 2 2 1 1 1 0 0 0 1 1 1 1 1 1 1 1 1 0 0 0 1 1 1 0 0 0 0 0 0 0 0 0 1 1 1 0 0 0 0 0 0 1 1 1 1 1 1 1 1 1 0 0 0 1 1 1 0 0 0 2 2 2 1 1 1 2 2 2 0 0 0 1 1 1 2 2 2 1 1 1 0 0 0 1 1 1 1 1 1 0 0 0 2 2 2 1 1 1 0 0 0 0 0 0 0 0 0 0 0 0 1 1 1 0 0 0 1 1 1 0 0 0 1 1 1 2 2 2 0 0 0 0 0 0 1 1 1 0 0 0 1 1 1 1 1 1 1 1 1 1 1 1 1 1 1 0 0 0 1 1 1 1 1 1 0 0 0 0 0 0 0 0 0 0 0 0 0 0 0 0 0 0 2 2 2 17 17 17 39 39 39 41 41 41 27 27 27 2 2 2 0 0 0 0 0 0 0 0 0 0 0 0 1 1 1 1 1 1 1 1 1 1 1 1 0 0 0 0 0 0 3 3 3 4 4 4 1 1 1 0 0 0 0 0 0 3 1 2 0 0 0 1 1 1 1 1 1 7 9 8 39 39 39 40 38 39 40 29 27 45 27 25 45 25 26 45 27 25 47 29 29 46 26 27 44 24 25 47 29 29 48 27 26 46 26 27 
1 1 1 0 0 0 0 0 0 1 1 1 1 1 1 1 1 1 1 1 1 0 0 0 2 2 2 0 0 0 0 0 0 1 1 1 0 0 0 1 1 1 0 0 0 1 1 1 1 1 1 1 1 1 1 1 1 0 0 0 0 0 0 1 1 1 1 1 1 1 1 1 1 1 1 1 1 1 1 1 1 1 1 1 1 1 1 1 1 1 0 0 0 1 1 1 1 1 1 1 1 1 1 1 1 1 1 1 1 1 1 1 1 1 1 1 1 1 1 1 1 1 1 1 1 1 1 1 1 1 1 1 1 1 1 0 0 0 1 1 1 0 0 0 1 1 1 1 1 1 1 1 1 1 1 1 0 0 0 1 1 1 0 0 0 0 0 0 1 1 1 0 0 0 0 0 0 1 1 1 0 0 0 7 7 7 30 30 30 40 40 40 36 36 36 16 16 16 3 3 3 0 0 0 2 2 2 1 1 1 1 1 1 1 1 1 0 2 1 1 1 1 0 0 0 1 1 1 0 0 0 1 1 1 1 1 1 1 1 1 1 1 1 1 1 1 1 1 1 1 1 1 1 1 1 1 1 1 15 15 15 37 37 37 38 38 38 39 27 27 46 26 27 46 28 26 42 24 24 45 25 24 45 27 27 45 25 26 46 28 28 45 27 27 47 27 28 45 27 27 
1 1 1 1 1 1 0 0 0 0 0 0 1 1 1 1 1 1 1 1 1 1 1 1 1 1 1 1 1 1 1 1 1 1 1 1 2 2 2 1 1 1 1 1 1 1 1 1 1 1 1 0 0 0 1 1 1 1 1 1 1 1 1 1 1 1 0 0 0 0 0 0 1 1 1 0 0 0 0 0 0 3 3 3 5 5 5 1 1 1 1 1 1 0 0 0 1 1 1 1 1 1 1 1 1 1 1 1 1 1 1 1 1 1 1 1 1 1 1 1 2 2 2 1 1 1 2 2 2 0 0 0 0 0 0 1 1 1 1 1 1 0 0 0 1 1 1 1 1 1 0 0 0 0 0 0 0 0 0 1 1 1 0 0 0 0 0 0 1 1 1 0 0 0 1 1 1 1 1 1 14 14 14 35 35 35 41 41 41 30 30 30 10 10 10 1 1 1 1 1 1 1 1 1 1 1 1 0 0 0 0 0 0 0 0 0 1 1 1 0 0 0 1 1 1 0 0 0 1 1 1 1 1 1 0 0 0 0 0 0 1 1 1 0 0 0 1 1 1 1 1 1 1 1 1 8 8 8 36 36 36 40 38 39 42 28 28 45 27 27 47 25 27 43 29 26 46 28 28 46 26 27 47 29 29 45 25 26 46 26 27 47 27 26 45 27 27 43 27 27 
1 1 1 0 0 0 0 0 0 1 1 1 1 1 1 0 0 0 1 1 1 1 1 1 1 1 1 1 1 1 1 1 1 1 1 1 1 1 1 1 1 1 0 0 0 0 0 0 1 1 1 1 1 1 1 1 1 1 1 1 1 1 1 1 1 1 1 1 1 2 2 2 0 0 0 0 0 0 4 4 4 29 29 29 35 35 35 24 24 24 13 13 13 7 7 7 6 6 6 9 9 9 2 2 2 1 1 1 0 0 0 0 0 0 1 1 1 2 2 2 1 1 1 1 1 1 2 2 2 1 1 1 1 1 1 0 0 0 1 1 1 0 0 0 0 0 0 1 1 1 1 1 1 0 0 0 1 1 1 1 1 1 0 0 0 0 0 0 1 1 1 1 1 1 7 7 7 27 27 27 40 40 40 41 41 41 16 16 16 2 2 2 1 1 1 0 0 0 1 1 1 1 1 1 6 8 7 2 4 3 2 2 2 1 3 2 2 2 2 1 1 1 1 1 1 1 1 1 0 0 0 0 0 0 1 1 1 1 1 1 1 1 1 1 1 1 0 0 0 1 1 1 14 14 14 38 38 38 39 39 39 40 30 29 45 25 26 45 27 27 44 26 24 46 26 27 44 24 25 44 26 26 44 24 25 45 27 27 45 27 27 45 27 27 46 26 25 44 26 26 
1 1 1 2 2 2 1 1 1 1 1 1 0 0 0 1 1 1 1 1 1 0 0 0 1 1 1 1 1 1 0 0 0 1 1 1 0 0 0 1 1 1 0 0 0 1 1 1 1 1 1 1 1 1 0 0 0 0 0 0 0 0 0 1 1 1 1 1 1 0 0 0 0 0 0 1 1 1 23 23 23 39 39 39 41 41 41 34 34 34 40 40 40 29 29 29 27 27 27 27 27 27 11 11 11 1 1 1 2 2 2 0 0 0 1 1 1 1 1 1 0 0 0 0 0 0 0 0 0 1 1 1 0 0 0 1 1 1 1 1 1 1 1 1 2 2 2 1 1 1 2 2 2 0 0 0 1 1 1 1 1 1 8 8 8 12 12 12 19 19 19 29 29 29 38 38 38 41 41 41 34 34 34 15 15 15 2 2 2 0 0 0 1 1 1 1 1 1 1 1 1 4 4 4 13 19 15 22 31 26 21 30 25 19 30 24 17 26 21 15 21 17 7 9 8 0 0 0 1 1 1 1 1 1 1 1 1 1 1 1 0 0 0 1 1 1 1 1 1 9 9 9 35 35 35 41 39 40 40 28 28 46 26 27 44 26 26 46 26 25 43 25 23 46 28 28 44 24 25 45 27 25 45 27 27 46 26 25 45 25 24 45 27 27 44 26 26 21 12 13 
0 0 0 0 0 0 1 1 1 1 1 1 0 0 0 1 1 1 1 1 1 1 1 1 1 1 1 1 1 1 1 1 1 0 0 0 2 2 2 1 1 1 1 1 1 1 1 1 1 1 1 1 1 1 1 1 1 0 0 0 0 0 0 1 1 1 0 0 0 0 0 0 1 1 1 9 9 9 41 41 41 43 43 43 45 45 45 43 43 43 44 44 44 40 40 40 39 39 39 36 36 36 34 34 34 13 13 13 3 3 3 1 1 1 0 0 0 1 1 1 0 0 0 0 0 0 0 0 0 1 1 1 0 0 0 1 1 1 0 0 0 1 1 1 1 1 1 19 19 19 13 13 13 9 9 9 18 18 18 27 27 27 38 38 38 41 41 41 41 41 41 36 36 36 28 28 28 15 15 15 2 2 2 1 1 1 1 1 1 0 0 0 0 0 0 0 0 0 1 1 1 7 7 7 22 32 24 24 35 27 27 43 33 30 46 35 28 44 33 24 34 26 12 17 13 0 0 0 1 1 1 1 1 1 1 1 1 1 1 1 0 0 0 1 1 1 18 18 18 38 36 37 40 38 39 42 28 28 44 26 26 47 27 28 47 27 28 46 28 28 45 27 25 45 27 27 46 28 26 43 23 24 44 24 25 44 26 26 47 27 28 45 27 27 26 16 15 2 2 2 
