P3
100 50
255
40 67 60 40 67 60 41 68 61 40 67 60 40 67 60 39 66 59 39 66 59 40 67 60 39 66 59 39 66 59 41 68 61 40 67 60 39 66 59 40 67 60 39 66 59 40 67 60 40 67 60 41 68 61 41 68 61 39 66 59 39 66 59 40 67 60 40 67 60 40 67 60 40 67 60 40 67 60 40 67 60 40 67 60 40 67 60 40 67 60 40 67 60 40 67 60 40 67 60 40 67 60 39 66 59 40 67 60 39 66 59 40 67 60 39 66 59 40 67 60 40 67 60 40 67 60 40 67 58 37 67 59 40 67 60 40 67 60 24 43 37 1 1 1 26 24 25 50 48 51 45 42 49 48 43 49 47 42 49 49 44 50 46 41 48 47 42 48 45 43 48 49 46 53 49 47 52 46 43 50 46 43 50 43 42 47 47 44 53 69 64 71 69 61 72 69 66 75 68 62 72 71 66 73 68 62 72 70 64 76 68 62 74 70 65 72 67 61 73 68 62 74 70 64 74 68 63 70 71 66 73 70 64 74 70 67 74 70 65 72 69 64 71 72 67 74 71 65 75 73 67 77 68 62 72 67 64 73 74 69 76 70 64 74 70 64 74 71 66 73 69 63 73 71 65 75 67 64 73 65 59 71 68 65 72 67 64 71 70 65 72 74 71 78 75 70 77 71 65 75 
40 67 60 40 67 60 39 66 59 40 67 60 39 66 59 41 68 61 39 66 59 39 66 59 40 67 60 39 66 59 41 68 61 41 68 61 40 67 60 39 66 59 41 68 61 40 67 60 40 67 60 39 66 59 40 67 60 40 67 60 39 66 59 40 67 60 40 67 60 40 67 60 40 67 60 40 67 60 40 67 60 40 67 60 40 67 60 40 67 60 40 67 60 40 67 60 39 66 59 40 67 60 39 66 59 39 66 59 40 67 60 40 67 60 39 66 59 40 67 60 40 67 60 39 66 59 40 67 58 40 67 60 39 66 59 40 67 60 28 49 42 0 0 0 19 17 20 46 43 50 47 44 51 45 43 48 47 45 50 46 43 50 45 43 48 46 43 50 48 46 51 46 44 49 46 44 49 49 47 50 47 45 50 45 43 48 49 47 52 68 65 74 66 63 72 71 65 75 73 68 75 71 65 75 73 68 74 67 61 71 71 65 75 69 67 70 68 65 74 71 65 75 70 65 72 67 61 73 71 66 73 69 64 71 69 63 73 70 65 72 68 67 75 70 64 74 70 65 72 73 68 75 69 63 73 70 67 74 69 63 73 71 65 75 68 65 74 69 64 71 70 65 72 68 65 72 73 71 76 69 63 73 67 61 71 72 66 76 67 61 71 68 62 72 67 64 73 71 66 73 
40 67 60 40 67 60 41 68 61 39 66 59 40 67 60 40 67 60 39 66 59 40 67 60 40 67 60 40 67 60 39 66 59 39 66 59 39 66 59 39 66 59 40 67 60 40 67 60 40 67 60 40 67 60 40 67 60 38 65 58 39 66 59 39 66 59 39 66 59 40 67 60 40 67 60 39 66 59 40 67 60 39 66 59 40 67 60 40 67 60 38 65 58 40 67 60 40 67 60 40 67 60 40 67 60 40 67 60 40 67 60 40 67 60 39 66 59 39 66 59 40 67 60 40 67 60 38 68 58 39 66 59 41 68 61 38 68 60 27 46 40 0 0 0 25 25 27 48 46 51 48 46 51 47 44 51 48 46 51 49 47 52 46 43 50 49 47 52 44 42 47 48 45 52 45 44 49 46 44 49 49 44 50 44 41 48 49 48 53 67 61 71 71 65 75 67 61 73 74 68 78 71 66 73 69 66 73 70 64 74 70 62 73 71 65 75 68 65 76 68 60 73 67 64 71 70 64 74 71 66 73 67 61 71 69 63 73 68 60 71 71 63 74 71 69 74 69 63 73 73 68 72 74 66 77 71 66 73 70 65 72 64 61 70 69 63 73 70 64 74 71 65 75 72 67 74 63 60 69 67 64 71 70 67 76 71 68 77 72 67 74 73 68 75 69 63 75 74 69 76 
39 66 59 39 66 59 40 67 60 40 67 60 40 67 60 40 67 60 39 66 59 40 67 60 40 67 60 40 67 60 41 68 61 40 67 60 39 66 59 40 67 60 40 67 60 39 66 59 41 68 61 41 68 61 40 67 60 40 67 60 39 66 59 39 66 59 39 66 59 39 66 59 40 67 60 40 67 60 40 67 60 40 67 60 40 67 60 40 67 60 40 67 60 40 67 60 40 67 60 39 66 59 40 67 60 39 66 59 40 67 60 40 67 60 40 67 60 39 66 59 39 66 59 39 66 59 39 66 57 41 68 61 39 66 59 39 66 59 28 47 41 0 0 0 21 21 23 49 44 50 47 42 49 47 45 50 46 44 49 45 42 49 42 39 46 49 47 52 48 46 51 48 46 51 47 45 50 48 46 49 45 43 48 45 42 49 54 48 58 67 61 71 68 65 74 71 65 75 72 67 74 71 65 75 70 67 76 73 66 74 70 64 74 73 66 74 72 67 74 70 64 74 72 67 74 70 65 72 70 67 76 69 63 73 67 61 73 71 68 75 68 63 70 60 55 61 53 51 56 69 63 73 73 68 75 66 60 72 68 65 72 68 65 76 73 65 76 69 64 71 69 63 73 71 66 72 73 68 75 66 61 68 70 62 75 67 64 73 68 62 72 68 62 72 73 68 75 72 67 74 
39 66 59 39 66 59 40 67 60 40 67 60 39 66 59 40 67 60 40 67 60 40 67 60 40 67 60 40 67 60 39 66 59 40 67 60 39 66 59 40 67 60 39 66 59 39 66 59 39 66 59 40 67 60 40 67 60 39 66 59 40 67 60 40 67 60 40 67 60 39 66 59 40 67 60 41 68 61 40 67 60 40 67 60 40 67 60 39 66 59 39 66 59 39 66 59 39 66 59 40 67 60 39 66 59 39 66 59 40 67 60 39 66 59 39 66 59 40 67 60 40 67 60 40 67 60 40 67 58 40 67 60 39 66 59 40 67 60 29 48 42 1 1 1 20 20 22 49 47 50 48 46 51 44 42 47 48 46 51 48 43 50 49 42 49 46 44 49 48 46 51 47 44 51 45 43 48 43 37 47 49 46 53 47 45 50 53 51 56 68 62 74 72 67 74 65 59 69 71 65 75 74 69 76 69 63 75 68 65 72 73 68 75 67 61 71 72 70 75 67 59 72 71 65 75 69 64 71 69 66 75 71 65 75 71 70 75 68 66 71 59 54 61 7 9 8 6 6 8 54 51 58 66 60 72 71 66 73 71 68 75 70 65 71 74 69 76 74 69 76 70 65 72 71 65 77 70 64 74 69 63 73 75 70 77 73 68 75 71 66 73 70 67 74 69 63 73 73 68 75 
40 67 60 39 66 59 40 67 60 40 67 60 39 66 59 39 66 59 40 67 60 40 67 60 40 67 60 40 67 60 41 68 61 40 67 60 40 67 60 40 67 60 39 66 59 40 67 60 40 67 60 39 66 59 40 67 60 40 67 60 40 67 60 39 66 59 40 67 60 38 65 58 39 66 59 39 66 59 39 66 59 39 66 59 40 67 60 40 67 60 39 66 59 40 67 60 40 67 60 40 67 60 40 67 60 39 66 59 40 67 60 39 66 59 39 66 59 40 67 60 39 66 59 40 67 60 40 67 58 40 67 60 39 66 59 39 66 59 23 40 34 1 1 1 24 22 23 48 46 51 44 41 48 44 42 47 47 42 49 48 43 50 48 46 51 50 45 51 45 44 50 44 41 48 43 41 44 45 43 48 47 45 50 46 41 48 51 49 54 70 65 72 72 70 75 70 65 72 68 62 72 73 68 75 71 65 75 68 62 72 72 67 74 71 65 75 71 65 75 71 65 75 70 67 74 69 62 70 71 69 74 73 68 75 75 70 76 68 62 72 57 51 61 14 14 16 12 12 14 64 57 65 69 64 70 65 59 71 71 65 75 69 63 77 70 64 74 72 64 75 70 67 74 75 70 77 71 66 73 71 65 75 68 65 72 73 68 75 68 62 72 70 64 74 68 62 72 72 67 74 
39 66 59 40 67 60 39 66 59 41 68 61 39 66 59 39 66 59 39 66 59 39 66 59 40 67 60 40 67 60 40 67 60 40 67 60 39 66 59 40 67 60 40 67 60 40 67 60 40 67 60 40 67 60 40 67 60 40 67 60 40 67 60 40 67 60 40 67 60 41 68 61 40 67 60 39 66 59 40 67 60 39 66 59 40 67 60 39 66 59 39 66 59 39 66 59 40 67 60 39 66 59 39 66 59 39 66 59 40 67 60 40 67 60 40 67 60 40 67 60 40 67 60 40 67 60 40 67 58 40 67 60 41 66 60 41 68 61 29 48 42 1 0 0 22 20 23 49 47 50 49 47 52 47 45 50 46 43 50 48 45 52 51 46 52 50 45 52 48 43 50 22 22 24 4 4 4 21 21 23 45 40 46 47 45 48 47 46 51 67 62 69 73 63 72 66 63 72 69 67 72 68 62 72 71 68 77 66 63 70 69 61 74 71 66 73 69 63 73 73 70 77 68 65 74 71 65 77 68 62 72 71 66 73 69 63 73 66 60 70 71 66 73 64 59 66 65 63 68 68 63 70 69 66 73 72 69 78 69 63 73 68 62 72 66 60 70 71 65 75 71 65 75 71 66 73 70 65 72 67 64 73 71 66 73 67 62 69 69 63 73 70 64 76 69 63 73 67 61 71 
39 66 59 40 67 60 39 66 59 40 67 60 40 67 60 39 66 59 40 67 60 39 66 59 39 66 59 39 66 59 40 67 60 40 67 60 41 68 61 40 67 60 39 66 59 39 66 59 40 67 60 39 66 59 40 67 60 40 67 60 40 67 60 39 66 59 39 66 59 39 66 59 39 66 59 40 67 60 39 66 59 40 67 60 39 66 59 39 66 59 38 65 58 39 66 59 40 67 60 40 67 60 39 66 59 40 67 60 40 67 60 40 67 60 40 67 60 40 67 60 40 67 60 37 67 59 40 67 58 41 66 60 38 65 58 40 67 60 28 49 42 2 0 1 13 13 15 46 41 48 45 42 49 47 44 51 46 44 49 45 42 49 48 46 51 45 42 49 43 41 46 9 9 9 0 0 0 12 12 12 46 41 48 48 46 51 48 46 51 64 61 68 70 64 74 69 63 73 65 59 69 69 66 73 71 68 77 72 67 74 67 64 73 71 66 73 74 69 76 72 67 74 72 67 73 68 62 74 71 68 77 69 63 73 73 68 75 75 68 76 65 62 71 70 64 74 75 70 77 70 65 72 68 62 72 73 71 76 68 65 74 72 67 74 72 69 76 67 61 71 70 65 72 72 69 76 70 64 76 67 61 75 73 70 77 68 62 72 71 66 73 69 63 73 70 64 74 73 68 75 
40 67 60 40 67 60 39 66 59 39 66 59 40 67 60 39 66 59 40 67 60 39 66 59 40 67 60 40 67 60 40 67 60 40 67 60 41 68 61 39 66 59 39 66 59 40 67 60 41 68 61 40 67 60 40 67 60 39 66 59 40 67 60 39 66 59 39 66 59 39 66 59 39 66 59 40 67 60 39 66 59 39 66 59 40 67 60 39 66 59 39 66 59 39 66 59 40 67 60 39 66 59 40 67 60 40 67 60 40 67 60 40 67 60 40 67 60 40 67 60 39 66 59 41 66 60 38 65 56 39 66 59 39 66 59 40 65 59 35 58 50 1 1 1 19 19 19 46 44 49 49 47 52 52 47 53 47 42 48 48 45 52 48 46 51 50 48 51 49 48 53 33 31 34 17 15 18 38 36 41 46 43 50 47 44 51 48 46 51 64 61 68 71 68 75 66 63 72 70 67 76 64 63 69 71 66 73 70 67 74 70 64 74 67 64 71 70 65 72 71 66 73 71 68 77 70 64 74 70 65 72 76 71 77 71 66 73 68 65 72 71 68 75 72 70 75 71 68 75 71 65 75 69 63 73 67 61 73 73 68 75 74 69 76 71 69 74 70 65 72 69 63 73 68 62 72 72 69 76 67 64 73 69 63 73 69 64 71 71 66 73 71 68 75 72 67 74 71 64 72 
39 66 59 39 66 59 39 66 59 39 66 59 40 67 60 40 67 60 39 66 59 39 66 59 40 67 60 40 67 60 40 67 60 39 66 59 40 67 60 39 66 59 40 67 60 39 66 59 39 66 59 40 67 60 40 67 60 40 67 60 40 67 60 39 66 59 39 66 59 39 66 59 39 66 59 41 68 61 39 66 59 40 67 60 39 66 59 41 68 61 40 67 60 39 66 59 39 66 59 39 66 59 39 66 59 39 66 59 41 68 61 39 66 59 39 66 59 40 67 60 39 66 59 41 66 60 41 68 59 40 67 60 40 67 60 39 66 59 33 56 48 0 2 1 14 12 17 47 41 51 48 43 47 49 44 51 49 47 52 46 45 50 45 44 49 45 43 48 47 46 51 50 48 53 49 47 52 45 42 49 49 47 52 44 43 49 50 48 51 67 62 69 71 65 75 66 58 69 70 65 72 67 64 73 69 63 73 72 66 76 70 67 76 65 62 71 71 66 73 70 68 73 72 69 76 70 64 74 71 65 75 66 63 72 66 60 74 71 68 75 69 63 73 68 65 72 71 63 76 70 64 74 71 66 73 72 67 74 66 63 72 70 67 74 69 63 75 71 66 73 70 64 74 69 64 71 72 67 74 69 64 71 71 66 73 73 68 75 70 65 72 72 65 73 71 66 73 71 65 75 
40 67 60 39 66 59 39 66 59 40 67 60 39 66 59 40 67 60 40 67 60 39 66 59 39 66 59 39 66 59 40 67 60 40 67 60 40 67 60 40 67 60 39 66 59 40 67 60 40 67 60 40 67 60 40 67 60 40 67 60 39 66 59 39 66 59 40 67 60 39 66 59 41 68 61 39 66 59 40 67 60 40 67 60 39 66 59 39 66 59 40 67 60 39 66 59 40 67 60 39 66 59 40 67 60 39 66 59 39 66 59 40 67 60 40 67 60 39 66 59 40 67 60 39 66 59 40 67 60 39 66 57 40 67 60 39 66 59 32 58 49 1 1 1 11 11 11 48 43 49 47 45 50 46 43 50 48 46 51 50 45 51 47 42 48 45 42 49 46 44 49 46 43 50 48 43 50 47 42 49 44 42 47 48 43 50 50 45 52 70 65 69 72 67 74 70 65 72 73 68 75 74 68 78 65 59 69 68 62 74 73 67 77 69 63 73 72 67 74 71 65 77 71 64 72 67 59 72 72 66 76 72 67 74 70 67 76 69 63 73 72 67 74 72 67 74 71 66 73 67 61 71 71 65 75 73 68 75 72 67 74 65 59 69 69 66 73 68 62 72 69 63 73 70 67 76 70 64 74 71 65 75 71 66 73 69 66 77 74 69 76 69 62 70 68 65 72 74 69 76 
40 67 60 40 67 60 40 67 60 39 66 59 40 67 60 39 66 59 39 66 59 40 67 60 40 67 60 40 67 60 40 67 60 39 66 59 39 66 59 39 66 59 39 66 59 38 65 58 39 66 59 39 66 59 39 66 59 39 66 59 39 66 59 40 67 60 40 67 60 40 67 60 39 66 59 39 66 59 40 67 60 40 67 60 40 67 60 40 67 60 40 67 60 39 66 59 39 66 59 40 67 60 40 67 60 38 65 58 40 67 60 40 67 60 40 67 60 39 66 59 40 67 60 39 66 59 39 66 59 39 66 57 40 67 60 39 66 59 32 55 47 2 2 2 12 12 12 47 42 49 47 45 50 47 42 48 47 45 50 46 44 49 50 45 51 45 43 48 48 46 51 45 42 49 46 44 49 46 43 50 49 47 52 47 45 50 51 49 54 70 65 71 74 69 76 70 67 74 68 65 72 71 66 73 68 62 76 70 64 74 68 65 72 66 65 71 70 65 72 66 60 72 68 65 74 72 67 74 66 60 70 68 65 74 70 64 74 68 62 74 67 64 71 67 61 71 68 65 74 72 70 75 69 66 73 71 66 73 66 63 72 69 63 73 71 65 75 70 65 72 69 64 70 72 67 74 69 63 73 66 60 70 68 67 73 69 63 75 70 65 72 71 65 75 68 62 72 73 70 77 
40 67 60 40 67 60 40 67 60 39 66 59 40 67 60 40 67 60 40 67 60 39 66 59 39 66 59 39 66 59 41 68 61 40 67 60 40 67 60 39 66 59 40 67 60 40 67 60 40 67 60 40 67 60 40 67 60 39 66 59 39 66 59 40 67 60 41 68 61 39 66 59 40 67 60 39 66 59 40 67 60 39 66 59 39 66 59 39 66 59 40 67 60 39 66 59 40 67 60 40 67 60 39 66 59 39 66 59 41 68 61 40 67 60 39 66 59 40 67 60 39 66 59 40 67 60 39 66 59 40 67 58 41 66 60 41 68 61 28 47 41 2 2 2 19 19 21 46 44 49 47 45 50 45 40 47 45 43 48 47 42 48 54 49 53 47 42 49 46 44 47 46 43 50 47 45 50 46 43 50 48 46 51 45 42 49 50 45 51 68 62 72 67 61 73 71 66 73 69 66 73 71 68 75 70 64 74 72 66 76 67 61 73 69 66 73 71 66 73 68 62 72 71 65 75 72 66 78 70 64 74 65 62 73 69 66 75 70 67 74 71 66 73 75 70 76 69 63 73 68 62 72 69 66 73 70 67 74 71 65 75 68 62 72 68 62 72 70 69 75 72 66 76 69 66 73 69 63 73 67 62 69 70 65 72 69 64 71 71 63 74 73 68 75 67 64 71 66 60 72 
40 67 60 40 67 60 39 66 59 39 66 59 40 67 60 39 66 59 39 66 59 39 66 59 39 66 59 39 66 59 40 67 60 39 66 59 40 67 60 39 66 59 39 66 59 40 67 60 39 66 59 39 66 59 39 66 59 39 66 59 40 67 60 39 66 59 39 66 59 39 66 59 40 67 60 40 67 60 39 66 59 39 66 59 39 66 59 39 66 59 39 66 59 39 66 59 39 66 59 40 67 60 39 66 59 39 66 59 39 66 59 39 66 59 39 66 59 40 67 60 39 66 59 40 67 60 40 67 60 40 67 58 40 67 60 40 67 60 29 50 43 1 1 1 16 14 15 46 44 49 45 42 49 48 43 50 49 47 52 48 45 52 48 43 49 47 45 50 48 46 51 48 43 47 46 41 48 48 46 49 46 44 49 48 46 51 53 48 55 69 64 71 66 63 70 68 62 74 68 60 71 67 61 71 72 67 74 65 59 71 69 63 73 71 65 75 68 65 74 72 67 74 68 63 70 74 69 76 71 65 75 69 63 73 71 66 73 70 64 74 71 66 73 72 67 74 70 67 74 72 69 76 71 66 73 68 62 72 71 63 76 69 66 73 70 65 72 68 63 70 68 62 72 69 66 77 67 61 71 72 67 74 72 67 74 72 66 76 70 64 74 72 66 76 71 68 75 72 64 75 
39 66 59 39 66 59 41 68 61 40 67 60 40 67 60 39 66 59 41 68 61 40 67 60 40 67 60 39 66 59 39 66 59 40 67 60 40 67 60 40 67 60 40 67 60 39 66 59 40 67 60 40 67 60 39 66 59 40 67 60 39 66 59 39 66 59 39 66 59 40 67 60 39 66 59 39 66 59 40 67 60 39 66 59 40 67 60 39 66 59 39 66 59 39 66 59 39 66 59 39 66 59 40 67 60 39 66 59 39 66 59 39 66 59 39 66 59 40 67 60 39 66 59 39 66 59 39 66 59 39 66 57 41 68 61 39 66 59 37 60 52 2 2 2 14 12 15 47 44 51 44 41 50 47 45 50 47 45 50 41 40 46 48 46 51 47 45 50 45 43 48 47 45 50 48 46 51 46 43 50 45 43 48 45 44 49 56 53 60 69 63 75 69 63 75 70 65 72 71 68 75 69 64 71 71 66 73 70 68 73 66 63 72 71 66 73 72 64 75 69 64 71 72 67 74 70 65 72 69 63 73 71 66 73 66 63 72 67 62 69 69 63 73 64 61 70 64 61 68 71 66 73 69 66 73 70 64 74 72 67 73 69 63 73 71 65 75 69 64 71 70 65 72 66 63 72 69 63 73 72 67 74 72 69 78 71 66 73 66 63 70 71 65 75 68 62 72 71 65 75 
39 66 59 39 66 59 40 67 60 40 67 60 40 67 60 39 66 59 39 66 59 39 66 59 39 66 59 40 67 60 40 67 60 40 67 60 39 66 59 39 66 59 39 66 59 39 66 59 39 66 59 39 66 59 40 67 60 40 67 60 39 66 59 40 67 60 39 66 59 39 66 59 40 67 60 39 66 59 40 67 60 40 67 60 39 66 59 39 66 59 38 65 58 39 66 59 39 66 59 40 67 60 40 67 60 39 66 59 39 66 59 41 68 61 39 66 59 39 66 59 40 67 60 39 64 58 40 67 60 40 67 58 40 67 60 39 66 59 29 52 44 2 2 2 19 19 21 44 43 49 48 45 52 47 45 50 45 42 49 45 42 49 45 42 49 47 45 50 46 44 49 44 41 50 47 45 50 45 43 48 49 49 51 46 44 49 54 51 60 69 67 72 72 66 76 68 65 72 65 59 71 72 67 74 64 61 70 71 66 73 71 66 73 64 58 70 71 65 75 69 64 71 65 62 71 72 67 74 71 66 72 70 64 74 72 66 76 63 55 68 71 65 77 70 62 75 70 64 74 71 66 73 72 67 74 69 63 73 72 66 76 66 60 72 69 63 73 68 65 72 74 71 78 68 62 72 65 59 69 70 67 74 68 62 74 70 64 74 71 69 74 69 63 73 66 60 70 68 62 72 
39 66 59 40 67 60 39 66 59 39 66 59 39 66 59 39 66 59 39 66 59 40 67 60 39 66 59 40 67 60 40 67 60 40 67 60 40 67 60 40 67 60 40 67 60 40 67 60 40 67 60 39 66 59 40 67 60 40 67 60 40 67 60 39 66 59 39 66 59 39 66 59 39 66 59 39 66 59 39 66 59 39 66 59 40 67 60 39 66 59 40 67 60 39 66 59 39 66 59 40 67 60 39 66 59 40 67 60 39 66 59 39 66 59 39 66 59 39 66 59 40 67 60 39 66 59 39 66 59 39 66 57 40 67 60 40 67 60 32 53 46 0 0 0 16 16 18 45 43 48 48 46 51 49 44 50 47 45 50 46 43 50 44 41 48 45 42 49 45 44 49 47 44 51 45 42 49 45 43 48 45 42 49 47 45 50 57 54 63 73 67 77 71 66 73 73 68 74 69 66 73 71 68 75 70 64 74 74 69 75 69 63 73 72 66 76 67 61 71 68 62 72 66 60 70 69 63 73 67 61 71 72 66 76 71 65 75 74 69 76 73 68 75 69 63 73 68 62 74 67 62 69 72 66 78 73 71 76 64 58 70 71 65 75 70 64 74 69 63 73 69 63 73 70 64 74 73 68 75 67 64 73 69 61 74 71 68 75 70 64 74 71 65 75 70 67 76 67 64 71 
40 67 60 40 67 60 39 66 59 39 66 59 39 66 59 39 66 59 39 66 59 39 66 59 39 66 59 39 66 59 39 66 59 39 66 59 40 67 60 39 66 59 40 67 60 39 66 59 40 67 60 39 66 59 39 66 59 40 67 60 40 67 60 39 66 59 41 68 61 40 67 60 40 67 60 40 67 60 40 67 60 39 66 59 39 66 59 39 66 59 39 66 59 39 66 59 39 66 59 40 67 60 39 66 59 39 66 59 39 66 59 39 66 59 40 67 60 39 66 59 40 67 60 40 65 59 39 66 59 40 67 58 40 67 60 40 67 60 27 46 40 1 1 1 26 24 27 47 44 51 46 44 49 48 43 47 45 44 49 48 43 49 48 46 51 47 44 51 47 46 51 43 42 47 44 41 50 45 43 48 45 43 48 49 46 53 61 58 65 68 62 72 72 67 73 68 62 72 73 66 74 73 68 74 68 65 72 69 66 75 71 66 73 69 64 71 67 61 71 68 65 72 70 68 73 70 67 76 71 66 73 70 64 74 70 64 74 71 65 75 71 65 75 72 67 73 71 65 75 70 64 74 66 63 72 71 66 73 73 70 77 69 66 73 70 67 74 71 66 73 73 67 77 73 68 74 68 62 72 70 65 72 69 63 73 68 65 74 73 68 74 71 65 75 68 65 72 72 67 74 
39 66 59 39 66 59 39 66 59 39 66 59 39 66 59 39 66 59 39 66 59 39 66 59 40 67 60 40 67 60 40 67 60 39 66 59 38 65 58 40 67 60 39 66 59 40 67 60 39 66 59 39 66 59 40 67 60 39 66 59 40 67 60 39 66 59 39 66 59 39 66 59 39 66 59 39 66 59 38 65 58 39 66 59 38 65 58 39 66 59 40 67 60 40 67 60 39 66 59 39 66 59 39 66 59 39 66 59 40 67 60 39 66 59 40 67 60 39 66 59 41 68 61 40 67 60 39 66 57 39 66 59 40 67 60 39 66 59 30 49 43 1 1 1 20 20 22 50 45 51 49 44 50 47 45 50 48 45 52 44 41 48 48 46 51 46 43 50 46 44 49 47 45 50 49 47 50 47 45 50 48 43 50 45 42 49 62 59 66 73 68 75 71 66 73 73 68 75 68 62 72 65 59 71 72 67 74 71 68 75 68 65 74 71 65 75 64 61 70 68 65 72 72 67 74 69 61 72 71 65 75 66 60 70 69 67 72 70 65 72 71 65 75 69 64 71 70 64 76 69 64 71 66 60 74 68 65 74 71 66 73 69 63 73 71 66 73 71 65 75 71 65 79 73 68 75 72 67 73 67 61 73 64 61 70 64 61 70 71 66 73 67 61 73 68 62 72 71 65 75 
39 66 59 40 67 60 40 67 60 39 66 59 39 66 59 40 67 60 40 67 60 39 66 59 39 66 59 39 66 59 40 67 60 38 65 58 39 66 59 40 67 60 39 66 59 40 67 60 40 67 60 39 66 59 39 66 59 39 66 59 40 67 60 40 67 60 39 66 59 39 66 59 40 67 60 40 67 60 39 66 59 39 66 59 40 67 60 39 66 59 39 66 59 39 66 59 39 66 59 39 66 59 40 67 60 39 66 59 39 66 59 39 66 59 39 66 59 39 66 59 37 67 59 37 68 60 40 67 58 40 67 60 41 66 60 40 67 60 20 37 31 0 0 0 24 24 26 46 44 49 45 40 47 47 45 50 48 46 51 46 44 49 45 43 48 47 45 50 49 47 52 46 44 49 48 43 49 46 44 49 45 43 48 47 45 48 60 54 64 69 66 75 69 64 71 71 68 75 67 64 75 71 66 73 72 67 74 72 67 73 74 69 76 70 64 74 71 66 73 70 65 72 67 61 71 68 62 72 74 69 75 71 65 75 67 61 71 69 67 72 68 65 72 74 67 75 67 64 73 75 70 76 70 67 74 71 66 72 71 68 75 72 67 74 66 63 72 74 69 76 68 62 72 67 61 71 72 64 75 67 59 70 70 64 74 71 66 73 71 68 75 69 61 74 70 65 72 73 70 77 
39 66 59 39 66 59 40 67 60 40 67 60 40 67 60 40 67 60 39 66 59 39 66 59 39 66 59 39 66 59 39 66 59 39 66 59 40 67 60 40 67 60 39 66 59 39 66 59 38 65 58 39 66 59 39 66 59 39 66 59 40 67 60 40 67 60 39 66 59 39 66 59 39 66 59 40 67 60 39 66 59 41 68 61 39 66 59 40 67 60 40 67 60 39 66 59 39 66 59 39 66 59 39 66 59 40 67 60 39 66 59 40 67 60 39 66 59 40 67 60 40 67 60 40 67 60 40 67 58 38 65 58 40 67 60 40 67 60 23 40 34 1 1 1 23 22 27 47 45 50 45 42 49 46 44 49 47 45 48 47 44 51 45 42 49 47 45 50 45 42 49 46 44 49 43 41 46 44 42 47 46 44 49 47 44 51 58 56 61 67 61 71 69 63 73 65 62 73 69 63 73 69 64 71 69 63 75 69 63 75 67 64 73 71 65 75 72 67 74 73 68 75 72 70 75 69 63 73 72 70 75 72 69 76 67 61 71 69 68 73 70 64 74 67 61 71 68 62 72 69 66 73 67 61 73 68 65 72 69 63 73 70 67 76 68 62 74 73 68 74 67 64 71 72 67 74 69 66 73 66 63 72 69 66 73 72 67 74 70 64 74 70 68 73 66 63 72 67 61 73 
39 66 59 39 66 59 39 66 59 39 66 59 39 66 59 39 66 59 39 66 59 39 66 59 40 67 60 39 66 59 40 67 60 40 67 60 40 67 60 40 67 60 39 66 59 40 67 60 39 66 59 40 67 60 40 67 60 40 67 60 39 66 59 39 66 59 39 66 59 39 66 59 41 68 61 39 66 59 39 66 59 39 66 59 39 66 59 39 66 59 40 67 60 39 66 59 39 66 59 39 66 59 39 66 59 39 66 59 40 67 60 39 66 59 40 67 60 40 67 60 40 65 59 40 67 60 39 66 57 39 66 59 39 66 59 39 66 59 20 37 31 1 1 1 28 27 32 32 30 31 15 13 16 47 44 51 43 40 47 46 44 49 46 43 50 44 41 48 51 46 52 42 39 46 48 46 51 49 44 50 46 44 49 47 45 50 52 49 56 72 65 73 72 69 76 68 62 72 69 66 73 72 67 74 68 62 72 69 66 73 67 61 71 65 59 71 70 64 74 72 64 75 71 66 73 71 65 75 71 64 71 68 62 74 67 61 73 68 65 72 75 70 77 71 66 73 67 64 71 75 68 76 67 64 71 69 62 70 70 64 74 70 64 74 69 63 73 68 60 73 73 67 79 71 65 75 65 59 71 67 64 73 69 63 73 74 69 75 68 62 72 69 66 73 69 63 73 72 67 73 
39 66 59 39 66 59 39 66 59 39 66 59 39 66 59 39 66 59 39 66 59 39 66 59 39 66 59 39 66 59 39 66 59 40 67 60 39 66 59 39 66 59 39 66 59 39 66 59 39 66 59 39 66 59 39 66 59 39 66 59 40 67 60 39 66 59 39 66 59 39 66 59 40 67 60 39 66 59 39 66 59 40 67 60 39 66 59 39 66 59 39 66 59 38 65 58 39 66 59 39 66 59 39 66 59 39 66 59 39 66 59 39 66 59 39 66 59 39 66 59 39 66 59 41 68 61 39 66 57 37 67 59 39 66 59 40 67 60 21 33 29 1 1 1 28 26 29 17 17 17 8 6 7 44 41 48 46 44 49 45 42 49 44 41 48 48 46 51 48 46 51 46 44 49 47 42 48 47 44 51 44 43 49 46 44 49 50 47 54 65 59 71 73 68 74 71 66 73 70 64 74 72 67 74 72 67 74 65 59 71 69 63 73 74 69 76 72 69 76 67 61 71 69 62 70 70 65 72 72 67 74 68 65 72 72 69 76 66 63 72 67 61 71 74 69 76 70 65 71 74 69 76 71 66 73 68 65 74 70 65 72 71 65 75 67 62 69 75 70 77 70 64 74 66 63 72 70 65 72 69 67 72 67 61 71 66 63 70 66 60 70 71 66 73 71 65 75 68 62 72 
39 66 59 39 66 59 39 66 59 39 66 59 39 66 59 39 66 59 39 66 59 39 66 59 39 66 59 39 66 59 40 67 60 39 66 59 39 66 59 40 67 60 39 66 59 39 66 59 39 66 59 39 66 59 39 66 59 40 67 60 40 67 60 40 67 60 39 66 59 39 66 59 39 66 59 39 66 59 39 66 59 39 66 59 38 65 58 39 66 59 40 67 60 40 67 60 39 66 59 39 66 59 39 66 59 39 66 59 39 66 59 39 66 59 39 66 59 39 66 59 40 67 60 39 66 59 39 66 57 38 65 58 39 66 59 40 67 60 18 29 25 0 0 0 30 28 31 15 15 15 7 7 9 46 44 47 48 46 51 47 45 50 46 43 50 46 44 49 46 43 50 46 44 49 46 44 49 47 45 50 46 43 50 48 45 52 51 49 54 64 58 70 72 67 74 72 67 74 70 65 72 73 68 75 74 69 75 73 68 74 67 64 73 62 59 68 67 61 75 66 63 72 69 63 73 70 63 71 71 66 73 70 65 72 68 65 74 73 71 76 70 67 74 66 63 72 66 63 74 71 66 73 69 66 73 66 63 72 72 69 76 67 61 71 69 63 73 69 63 75 70 62 73 66 60 70 65 59 69 70 65 72 68 62 72 70 67 74 67 61 71 73 68 74 70 65 72 70 65 72 
39 66 59 39 66 59 39 66 59 39 66 59 39 66 59 39 66 59 39 66 59 39 66 59 39 66 59 40 67 60 40 67 60 39 66 59 39 66 59 39 66 59 40 67 60 39 66 59 38 65 58 40 67 60 39 66 59 39 66 59 38 65 58 40 67 60 39 66 59 40 67 60 39 66 59 40 67 60 39 66 59 39 66 59 39 66 59 39 66 59 39 66 59 40 67 60 39 66 59 39 66 59 39 66 59 40 67 60 39 66 59 40 67 60 40 67 60 40 67 60 39 66 59 38 68 60 39 66 57 40 67 60 40 65 59 39 64 58 15 27 23 0 0 0 34 32 35 20 20 20 7 7 7 44 42 47 47 44 51 47 45 50 48 46 51 46 44 49 46 43 50 48 46 49 45 43 48 46 44 49 45 43 48 47 45 50 52 50 55 69 64 71 66 60 72 68 65 72 69 67 72 70 68 73 68 65 72 69 63 73 71 65 75 66 63 72 68 62 72 67 61 71 70 62 73 72 67 74 70 65 72 69 63 73 66 63 72 66 63 72 70 65 72 72 67 74 72 66 76 66 60 70 68 62 72 68 62 72 72 67 74 69 64 71 71 66 73 62 57 64 58 57 63 66 60 70 70 65 72 70 67 74 75 70 77 72 64 75 70 64 74 70 64 74 69 63 73 73 68 75 
39 66 59 39 66 59 39 66 59 40 67 60 40 67 60 39 66 59 39 66 59 39 66 59 39 66 59 39 66 59 39 66 59 40 67 60 39 66 59 40 67 60 40 67 60 39 66 59 40 67 60 40 67 60 39 66 59 39 66 59 39 66 59 39 66 59 39 66 59 40 67 60 39 66 59 39 66 59 40 67 60 40 67 60 39 66 59 39 66 59 39 66 59 40 67 60 39 66 59 39 66 59 39 66 59 39 66 59 39 66 59 39 66 59 39 66 59 39 66 59 40 67 60 39 66 59 39 66 57 40 67 60 39 66 59 40 67 60 9 18 15 0 0 0 37 35 40 18 18 20 7 7 7 47 45 50 46 43 50 47 45 50 46 44 49 47 45 50 46 44 49 48 46 51 49 44 51 47 45 50 45 43 48 47 42 49 54 47 55 72 70 75 70 68 73 70 64 74 73 68 75 66 60 70 71 66 73 72 66 76 73 67 77 66 60 72 69 63 75 67 61 73 72 67 74 71 66 73 69 66 73 73 68 75 72 70 75 70 67 74 69 67 72 67 62 69 68 65 74 70 67 74 68 62 76 67 61 71 70 64 74 66 60 70 62 59 66 16 16 18 7 7 9 55 52 59 69 66 73 69 63 73 71 68 75 70 62 75 71 66 72 68 62 72 68 65 74 67 64 73 
39 66 59 39 66 59 39 66 59 38 65 58 40 67 60 39 66 59 40 67 60 40 67 60 39 66 57 39 66 57 39 66 57 39 66 57 39 66 57 40 67 58 39 66 57 39 66 57 39 66 59 39 66 59 39 66 59 39 66 59 39 66 59 40 67 60 40 67 60 39 66 59 39 66 59 39 66 59 39 66 59 39 66 59 39 66 59 39 66 59 39 66 59 39 66 59 39 66 59 39 66 59 39 66 59 39 66 59 39 66 59 39 66 59 39 66 59 39 66 59 39 66 59 39 66 59 39 66 57 39 66 59 39 66 59 39 66 59 10 16 14 1 1 1 34 32 37 17 15 16 9 9 9 47 45 50 50 48 51 46 44 47 47 45 50 47 45 50 47 45 50 46 44 49 45 43 48 47 45 50 50 45 51 48 43 49 54 49 56 65 59 69 70 62 73 73 68 75 68 65 74 71 64 72 70 65 72 69 63 73 73 68 75 74 69 76 65 59 69 71 68 75 69 63 73 73 68 75 64 61 68 67 64 73 72 70 75 70 64 74 69 64 71 70 62 73 67 61 71 70 65 72 72 67 73 73 68 74 71 66 73 72 67 74 65 60 67 16 14 17 7 7 7 56 51 58 70 64 74 70 65 71 72 70 75 69 63 73 71 65 75 67 61 73 71 65 75 70 67 74 
38 65 58 39 66 59 39 66 59 39 66 59 40 67 60 39 66 59 39 66 59 40 67 60 39 66 57 41 68 59 39 66 57 39 66 57 40 67 58 39 66 57 39 66 57 40 67 58 39 66 59 39 66 59 40 67 60 40 67 60 40 67 60 39 66 59 40 67 60 40 67 60 39 66 59 39 66 59 39 66 59 39 66 59 39 66 59 39 66 59 39 66 59 39 66 59 39 66 59 39 66 59 39 66 59 40 67 60 40 67 60 39 66 59 39 66 59 40 67 60 40 67 60 39 66 59 39 66 57 39 66 59 39 66 59 39 66 59 14 20 18 1 1 1 33 33 35 10 8 9 18 16 19 46 44 47 46 44 49 46 44 49 47 44 51 47 42 48 48 45 52 45 43 48 46 41 47 44 42 47 47 45 48 48 46 49 54 51 58 67 61 71 69 66 73 68 62 72 73 68 75 69 63 73 68 67 75 66 60 70 70 67 74 71 66 73 67 61 71 69 62 70 67 62 69 71 66 73 70 64 74 68 61 69 69 66 73 67 59 70 68 65 72 72 67 74 69 66 75 68 65 74 71 66 73 71 66 73 70 65 72 68 61 69 75 65 76 65 60 67 63 60 67 71 66 73 71 66 73 68 65 74 67 61 73 69 63 73 68 65 74 71 69 74 69 63 73 68 62 72 
39 66 59 39 66 59 39 66 59 39 66 59 39 66 59 39 66 59 39 66 59 39 66 59 39 66 59 39 66 59 39 66 59 39 66 59 40 67 60 40 67 60 39 66 59 39 66 59 39 66 59 39 66 59 40 67 60 39 66 59 39 66 59 39 66 59 39 66 59 39 66 59 39 66 59 39 66 59 39 66 59 39 66 59 39 66 59 39 66 59 39 66 59 39 66 59 39 66 59 40 67 60 40 67 60 40 67 60 39 66 59 39 66 59 40 67 60 40 67 60 39 66 59 39 66 59 40 67 58 40 67 60 39 66 59 39 64 58 7 13 11 0 0 0 30 28 31 33 32 37 37 36 41 43 41 46 47 45 50 49 47 52 46 44 49 46 44 49 48 43 49 47 42 48 47 45 50 46 44 49 47 44 51 47 42 49 62 57 64 68 65 74 68 62 72 71 69 74 68 62 72 68 63 70 71 66 72 75 70 76 64 61 68 71 66 73 69 64 71 29 27 32 9 7 8 44 39 46 65 59 69 72 65 73 70 67 74 72 67 73 72 70 75 70 65 72 69 66 75 71 66 73 69 64 71 66 61 68 67 64 71 67 64 73 69 64 71 70 67 74 70 62 73 72 65 73 70 62 73 68 63 70 68 63 70 71 65 75 68 62 72 69 63 73 68 62 74 69 62 70 
40 67 60 38 65 58 39 66 59 39 66 59 39 66 59 39 66 59 40 67 60 40 67 60 40 67 60 39 66 59 39 66 59 39 66 59 40 67 60 39 66 59 39 66 59 39 66 59 39 66 59 40 67 60 40 67 60 39 66 59 40 67 60 39 66 59 40 67 60 39 66 59 39 66 59 39 66 59 39 66 59 39 66 59 39 66 59 39 66 59 39 66 59 39 66 59 39 66 59 39 66 59 39 66 59 39 66 59 39 66 59 39 66 59 39 66 59 40 67 60 39 66 59 36 66 58 40 66 57 39 66 59 39 66 59 39 66 59 13 24 20 1 1 1 35 35 37 48 46 51 43 41 46 45 43 48 46 43 50 46 43 50 48 46 51 44 43 49 46 41 48 46 44 49 45 43 48 46 44 49 47 45 48 47 45 50 56 53 60 70 65 72 69 63 73 69 64 71 70 65 72 71 65 75 71 63 74 70 62 73 70 67 76 71 66 73 64 59 66 7 7 7 1 1 1 7 7 7 61 55 65 72 67 74 70 64 74 68 63 70 69 66 73 68 63 70 69 62 70 69 63 73 69 66 73 72 69 76 69 66 73 71 66 73 66 60 70 71 66 73 70 64 74 67 61 71 67 64 73 69 66 73 70 63 71 66 60 70 71 66 73 68 62 74 68 62 74 73 68 75 
39 66 59 39 66 59 40 67 60 39 66 59 39 66 59 39 66 59 39 66 59 39 66 59 39 66 59 39 66 59 39 66 59 37 64 57 39 66 59 39 66 59 39 66 59 39 66 59 39 66 59 39 66 59 40 67 60 39 66 59 39 66 59 39 66 59 39 66 59 40 67 60 39 66 59 39 66 59 39 66 59 39 66 59 39 66 59 39 66 59 39 66 59 39 66 59 38 65 58 39 66 59 39 66 59 39 66 59 39 66 59 39 66 59 39 66 59 39 66 59 40 65 59 39 66 59 39 66 57 39 66 59 39 66 59 39 66 59 11 20 17 1 1 1 40 38 43 48 46 51 47 45 50 50 43 50 45 42 49 49 47 52 43 40 47 47 45 50 45 42 49 46 41 47 46 45 50 46 44 49 47 45 50 45 43 48 51 46 53 65 62 73 67 64 71 71 66 73 67 61 73 68 62 72 69 63 75 71 65 75 73 68 75 71 66 73 68 63 70 21 21 23 3 1 2 10 10 12 60 55 62 71 66 73 71 63 74 71 66 73 67 64 71 70 65 72 68 62 72 67 61 71 70 67 74 69 64 71 70 65 72 69 63 73 70 64 74 68 62 72 69 64 71 73 66 74 70 65 72 68 63 70 71 68 75 72 69 76 66 60 70 68 65 72 74 69 76 70 64 74 
39 66 59 38 65 58 39 66 59 39 66 59 39 66 59 39 66 59 39 66 59 39 66 59 40 67 60 39 66 59 39 66 59 40 67 60 40 67 60 39 66 59 39 66 59 39 66 59 39 66 59 40 67 60 39 66 59 39 66 59 39 66 59 39 66 59 39 66 59 39 66 59 39 66 59 39 66 59 39 66 59 39 66 59 39 66 59 39 66 59 39 66 59 39 66 59 39 66 59 39 66 59 39 66 59 39 66 59 39 66 59 39 66 59 39 66 59 39 66 59 39 66 59 39 66 59 39 66 57 39 66 59 39 66 59 39 64 58 4 8 7 1 1 1 38 36 41 51 46 50 47 45 50 45 43 48 48 45 52 47 42 48 44 42 45 46 43 50 47 45 50 47 42 48 48 43 50 45 43 46 45 43 46 44 41 48 48 46 51 62 57 64 67 64 71 67 61 73 68 65 72 67 61 71 69 63 73 71 66 73 71 65 75 73 68 75 65 62 71 65 62 69 50 47 54 57 52 59 69 63 73 69 63 73 69 63 73 71 66 73 65 62 69 71 65 75 69 63 73 70 65 72 67 62 69 66 60 72 68 62 72 67 61 71 71 66 73 68 62 72 69 66 73 73 68 75 70 64 74 74 69 76 70 65 72 71 66 73 69 63 73 73 68 75 68 60 71 69 64 71 
40 67 60 39 66 59 39 66 59 39 66 59 38 65 58 40 67 60 39 66 59 39 66 59 39 66 59 39 66 59 38 65 58 39 66 59 40 67 60 39 66 59 39 66 59 39 66 59 38 65 58 39 66 59 40 67 60 39 66 59 39 66 59 39 66 59 40 67 60 40 67 60 39 66 59 39 66 59 39 66 59 39 66 59 39 66 59 39 66 59 39 66 59 39 66 59 39 66 59 39 66 59 39 66 59 39 66 59 39 66 59 39 66 59 39 66 59 40 67 60 37 67 59 39 66 59 38 65 56 40 65 59 39 66 59 37 64 57 1 5 4 2 2 2 40 37 44 46 43 50 49 47 52 47 44 51 48 46 51 47 45 50 49 47 52 46 44 49 44 41 48 45 44 49 47 44 51 44 42 47 50 48 53 48 46 51 45 45 47 54 48 58 69 67 72 70 65 72 69 63 73 71 66 73 73 68 75 70 65 72 68 60 71 63 58 65 69 63 73 68 67 75 68 65 72 67 61 71 68 65 72 71 69 74 70 65 72 71 66 73 69 63 73 65 62 69 66 60 70 71 68 75 66 60 70 74 69 75 64 58 68 67 59 70 71 65 75 70 65 72 68 63 70 67 61 71 69 63 73 69 64 71 72 67 74 70 65 72 65 59 69 70 65 71 73 68 75 69 62 70 
38 65 58 38 65 58 39 66 59 38 65 58 38 65 58 39 66 59 38 65 58 39 66 59 39 66 59 39 66 59 39 66 59 39 66 59 38 65 58 39 66 59 39 66 59 39 66 59 39 66 59 38 65 58 39 66 59 39 66 59 39 66 59 39 66 59 40 67 60 39 66 59 39 66 59 39 66 59 39 66 59 39 66 59 39 66 59 39 66 59 39 66 59 39 66 59 38 65 58 39 66 59 39 66 59 39 66 59 39 66 59 39 66 59 39 66 59 39 66 59 38 65 58 39 66 59 39 66 57 40 65 59 39 66 59 39 64 58 10 12 11 2 2 2 40 38 43 49 44 51 45 43 48 46 43 50 49 47 52 46 43 50 45 43 48 45 42 51 44 43 48 44 41 48 47 47 49 45 43 48 44 38 48 45 40 47 45 40 46 57 55 60 69 64 71 67 61 71 67 64 71 70 65 72 74 72 77 71 65 75 70 64 74 68 63 70 69 63 73 70 65 72 69 64 71 70 67 76 68 62 74 66 60 70 68 62 72 68 62 72 71 66 70 69 66 73 73 68 72 66 60 70 68 62 72 71 68 75 71 65 75 67 61 71 65 59 71 70 68 73 69 66 73 73 68 75 69 63 73 65 62 71 68 62 72 73 68 74 70 67 74 65 59 71 70 67 74 65 62 71 
39 66 59 40 67 60 39 66 59 38 65 58 39 66 59 39 66 59 39 66 59 40 67 60 39 66 59 39 66 59 40 67 60 38 65 58 39 66 59 39 66 59 39 66 59 39 66 59 39 66 59 39 66 59 39 66 59 40 67 60 39 66 59 39 66 59 39 66 59 39 66 59 38 65 58 38 65 58 39 66 59 38 65 58 39 66 59 39 66 59 39 66 59 40 67 60 39 66 59 39 66 59 39 64 58 38 65 58 39 66 59 39 66 59 38 65 58 39 66 59 39 64 58 39 64 58 39 66 59 40 65 59 39 66 57 36 67 59 11 15 14 2 2 2 41 39 44 47 45 50 49 48 53 44 41 48 45 43 48 46 45 50 49 46 53 47 42 49 47 45 50 47 45 50 44 41 48 44 42 47 45 43 48 47 45 50 46 43 50 58 56 61 71 66 73 70 67 74 70 67 74 64 58 68 69 63 73 67 64 71 70 65 71 70 64 74 70 64 74 72 67 74 72 70 75 64 58 68 69 66 73 71 66 73 68 65 74 63 60 69 69 63 73 69 63 75 69 64 70 69 63 73 67 61 71 66 60 70 67 61 71 68 65 74 64 58 70 71 66 73 65 59 71 70 65 72 69 66 73 70 68 73 68 62 72 68 65 74 65 62 69 67 66 72 67 64 73 69 63 77 
39 66 59 39 66 59 39 66 59 38 65 58 39 66 59 39 66 59 39 66 59 39 66 59 39 66 59 38 65 58 39 66 59 39 66 59 39 66 59 40 67 60 39 66 59 39 66 59 38 65 58 39 66 59 38 65 58 39 66 59 39 66 59 40 67 60 39 66 59 40 67 60 38 65 58 39 66 59 38 65 58 39 66 59 39 66 59 40 67 60 39 66 59 39 66 59 38 65 58 38 65 58 39 64 58 38 65 58 39 66 59 39 66 59 39 66 59 38 65 58 40 65 59 35 65 57 39 66 59 39 66 59 39 66 57 38 65 58 4 8 7 1 1 1 46 41 48 47 45 50 45 42 49 46 43 50 48 46 51 44 41 48 46 44 49 47 44 51 46 41 47 45 43 48 46 44 49 47 45 50 42 39 46 50 45 52 48 46 51 54 51 60 69 66 73 70 64 76 66 60 70 68 65 72 70 65 72 70 62 73 71 66 73 71 66 73 66 60 70 72 69 76 71 65 75 69 63 73 72 67 73 71 66 73 69 61 72 71 68 75 69 61 74 71 65 75 68 62 72 67 61 71 73 68 75 71 66 73 69 64 71 66 60 70 69 66 73 69 63 73 70 65 71 70 64 74 70 65 72 72 70 75 72 67 74 69 64 71 68 62 72 67 61 71 72 67 73 71 64 72 
39 66 59 40 67 60 40 65 59 39 66 59 38 65 58 38 65 58 38 65 58 39 66 59 38 65 58 39 66 59 39 66 59 39 66 59 38 65 58 39 66 59 39 66 59 39 66 59 39 66 59 39 66 59 39 66 59 39 66 59 39 66 59 39 66 59 39 66 59 39 66 59 38 65 58 39 66 59 39 66 59 39 66 59 40 67 60 39 66 59 39 66 59 39 66 59 39 66 59 39 66 59 39 64 58 39 66 59 39 66 59 39 66 59 39 66 59 39 66 59 38 65 58 40 65 59 39 66 59 38 65 58 39 66 57 38 65 58 7 9 8 1 1 1 36 33 40 47 44 51 46 43 50 45 43 48 46 41 48 46 43 50 45 43 48 45 42 49 45 43 48 49 47 52 45 42 49 46 43 50 45 42 49 43 40 47 45 42 49 53 51 56 65 59 69 70 65 72 72 67 74 69 63 73 71 68 75 71 66 73 71 65 75 69 61 72 67 64 73 71 65 77 69 64 71 70 64 74 65 64 70 69 63 73 65 59 69 69 66 73 70 64 74 67 62 69 69 59 70 66 60 72 70 64 74 66 63 70 68 62 72 69 66 73 68 65 72 73 70 77 67 61 73 63 60 71 71 66 72 67 62 69 70 65 72 65 59 71 70 65 72 72 69 76 74 64 73 72 67 74 
38 65 58 39 66 59 39 66 59 39 66 59 39 66 59 39 64 58 39 66 59 38 65 58 39 66 59 38 65 58 38 65 58 39 66 59 39 66 59 40 67 60 39 66 59 39 66 59 38 65 58 39 66 59 38 65 58 39 66 59 38 65 58 39 66 59 38 65 58 39 66 59 39 66 59 39 66 59 39 66 59 39 66 59 39 66 59 39 66 59 39 66 59 39 66 59 39 66 59 39 66 59 39 64 58 39 66 59 39 66 59 39 66 59 39 66 59 38 65 58 39 66 59 39 66 59 39 66 59 39 66 59 39 66 57 38 65 58 5 7 6 0 0 0 36 34 39 48 43 50 48 46 51 46 44 49 45 42 49 46 43 50 47 42 48 46 43 50 47 41 51 46 44 49 48 46 51 46 44 49 47 42 48 44 38 48 48 46 51 47 45 50 65 59 69 68 62 72 67 61 71 71 64 72 69 64 71 66 63 72 67 64 71 67 64 71 69 63 73 70 68 73 68 65 74 67 64 71 71 65 75 68 65 74 69 64 71 73 68 75 68 63 70 69 63 73 70 65 72 66 60 70 70 62 73 68 62 72 72 67 73 66 60 70 68 62 72 66 63 72 70 68 73 70 64 74 68 65 74 69 63 73 67 64 73 70 65 72 70 64 74 69 63 73 64 61 70 71 68 75 
38 65 58 39 66 59 39 64 58 39 66 59 38 65 58 39 66 59 39 66 59 39 66 59 40 67 60 39 66 59 39 66 59 39 66 59 39 66 59 38 65 58 39 66 59 40 67 60 39 66 59 39 66 59 39 66 59 39 66 59 39 66 59 39 66 59 39 66 59 39 66 59 39 66 59 39 66 59 39 66 59 39 66 59 39 66 59 39 66 59 39 66 59 39 66 59 38 65 58 39 66 59 39 64 58 39 66 59 39 66 59 39 66 59 38 65 58 38 65 58 40 67 60 37 67 59 39 66 59 39 66 59 39 66 57 37 62 56 4 6 5 1 1 1 39 37 42 45 43 46 48 43 50 45 42 49 46 44 49 51 46 52 43 40 47 47 40 47 46 44 49 42 39 46 48 43 49 46 44 49 47 45 50 45 42 49 47 45 50 48 43 49 60 55 62 68 62 72 69 66 73 69 66 73 71 65 75 67 61 71 68 62 72 67 64 73 70 64 74 69 64 70 68 63 70 67 64 71 69 63 73 67 61 71 70 65 72 67 62 69 74 67 75 72 67 74 71 66 73 68 65 72 66 65 71 70 65 72 70 65 72 66 63 70 69 63 73 74 69 76 71 63 74 67 64 71 67 64 71 70 64 74 67 64 71 66 60 72 73 71 76 68 63 70 69 63 73 72 65 73 
38 65 58 39 66 59 39 66 59 39 66 59 39 66 59 39 64 58 38 65 58 39 66 59 40 67 60 38 65 58 39 66 59 38 65 58 39 66 59 39 66 59 39 66 59 39 66 59 39 66 59 39 66 59 38 65 58 40 67 60 38 65 58 39 66 59 39 66 59 39 66 59 38 65 58 39 66 59 38 65 58 40 67 60 37 64 57 39 66 59 38 65 58 39 66 59 38 65 58 38 65 58 39 64 58 38 65 58 40 67 60 39 66 59 38 65 58 38 65 58 39 66 59 40 65 59 40 65 59 39 66 59 38 65 56 38 63 57 5 7 6 3 5 4 45 43 48 48 43 49 47 42 49 45 42 49 43 41 46 45 42 49 46 44 49 45 43 48 44 41 50 47 45 50 45 42 49 42 39 46 46 44 49 47 45 50 48 46 49 44 41 48 47 42 48 60 54 64 68 62 72 72 69 76 70 65 72 72 67 73 69 63 73 67 61 73 70 65 71 72 67 73 67 64 73 74 69 75 67 61 71 69 62 70 67 64 71 68 65 72 70 62 75 70 64 74 70 64 76 69 64 71 66 60 70 68 65 74 67 61 73 69 63 73 67 61 71 68 66 77 70 64 74 72 67 73 67 64 71 67 64 73 69 63 73 73 71 76 68 62 72 65 59 71 70 65 72 65 59 69 
39 66 59 39 66 59 39 66 59 38 65 58 38 65 58 39 66 59 38 65 58 39 66 59 39 66 59 38 65 58 39 66 59 39 66 59 38 65 58 38 65 58 39 66 59 39 66 59 39 66 59 40 67 60 39 66 59 39 66 59 39 66 59 39 66 59 39 66 59 39 66 59 39 66 57 39 66 57 38 65 56 39 66 57 38 65 56 39 66 57 39 66 57 39 66 57 39 66 59 39 66 59 39 64 58 39 66 59 38 65 58 40 67 60 38 65 58 39 66 59 39 64 58 40 65 59 39 64 58 40 65 59 40 67 58 37 62 56 4 6 5 4 4 4 44 42 47 47 45 48 46 43 50 44 42 47 49 47 52 44 41 48 44 42 47 41 39 44 44 41 48 45 42 49 46 41 48 46 43 50 45 43 48 48 46 51 46 44 49 47 42 49 46 44 49 53 51 56 67 62 69 69 64 71 67 61 71 69 63 73 72 67 74 69 61 72 65 62 71 72 70 75 70 64 74 65 62 71 72 67 73 69 63 73 67 61 73 69 66 73 66 60 70 69 63 73 70 64 74 66 60 70 71 66 73 70 64 74 69 66 75 71 69 74 72 67 74 67 61 71 70 64 74 69 63 75 70 64 76 74 67 75 69 63 73 69 63 73 67 64 73 72 67 73 72 66 76 69 64 71 
39 66 59 38 65 58 39 66 59 39 66 59 38 65 58 38 65 58 39 66 59 39 66 59 39 66 59 39 66 59 39 66 59 39 66 59 38 65 58 40 67 60 40 67 60 39 66 59 38 65 58 38 65 58 37 64 57 38 65 58 38 65 58 39 66 59 39 66 59 40 67 60 39 66 57 38 65 56 38 65 56 38 65 56 38 65 56 38 65 56 39 66 57 39 66 57 39 66 59 38 65 58 40 65 59 39 66 59 39 66 59 40 67 60 38 65 58 38 65 58 37 67 59 39 66 59 38 65 58 38 65 58 39 66 57 37 62 56 4 6 5 2 2 2 41 36 42 44 41 48 46 45 50 46 45 50 46 44 49 45 40 46 11 9 10 7 5 6 36 34 39 44 42 47 47 44 51 47 45 50 46 43 50 44 41 48 44 41 48 44 42 47 47 45 50 45 43 48 53 51 56 64 59 66 66 60 70 69 64 71 68 62 72 72 66 76 69 63 73 69 63 73 69 66 75 69 63 73 70 67 74 71 65 75 68 65 72 70 65 72 68 65 72 67 61 71 68 62 74 71 69 74 70 63 71 65 62 71 69 68 74 69 63 73 68 62 76 74 69 75 66 60 72 69 63 73 66 60 70 71 66 72 70 64 74 73 68 75 68 66 71 69 64 71 67 61 71 68 65 74 
39 64 58 39 66 59 38 65 58 40 65 59 38 65 58 39 66 59 39 66 59 38 65 58 40 65 59 39 66 59 38 65 58 40 67 60 42 65 59 40 67 60 40 65 59 39 66 59 40 67 60 39 66 59 39 66 59 39 66 59 40 67 60 38 65 58 39 66 59 39 66 59 39 66 59 39 66 59 38 65 58 38 65 58 38 65 58 39 66 59 39 66 59 38 65 58 39 66 59 38 65 58 39 66 59 38 65 58 38 65 58 40 67 60 39 66 59 39 66 59 40 66 57 38 65 58 39 64 58 40 65 59 39 66 59 37 64 57 5 7 6 1 1 1 35 32 41 46 44 49 44 39 46 44 41 50 47 42 49 45 40 44 7 7 7 5 3 6 35 33 38 46 44 49 48 45 52 43 40 47 45 42 49 46 43 52 46 44 49 50 48 51 48 46 51 46 41 47 22 22 24 11 9 10 9 9 11 50 48 53 71 66 72 67 61 71 71 66 73 69 63 73 69 63 73 67 61 71 70 65 71 70 65 72 70 64 74 71 66 73 69 66 73 72 65 73 72 67 74 75 70 77 71 66 73 68 62 72 72 67 74 72 70 75 67 61 71 68 65 74 67 64 71 71 65 75 72 67 73 67 64 73 65 59 69 68 62 74 67 64 73 70 64 74 66 63 70 66 60 70 
39 66 59 39 66 59 38 65 58 39 66 59 39 66 59 40 65 59 39 64 58 39 66 59 40 65 59 39 66 59 39 66 59 38 65 58 39 64 58 39 66 59 40 65 59 39 66 59 39 66 59 38 65 58 39 66 59 38 65 58 39 66 59 38 65 58 39 66 59 39 66 59 38 65 58 39 66 59 39 66 59 38 65 58 38 65 58 38 65 58 39 66 59 39 66 59 38 65 58 39 66 59 38 65 58 38 65 58 39 66 59 39 66 59 39 66 59 39 66 59 40 66 57 39 64 58 39 66 59 40 65 59 39 66 59 38 65 58 6 10 9 0 0 0 38 36 41 49 47 52 46 44 49 45 42 49 47 45 50 44 41 48 40 38 43 36 34 39 45 42 49 45 42 49 46 44 49 50 48 51 45 43 48 47 45 50 44 41 48 49 47 52 45 40 47 42 40 45 5 5 7 0 0 2 0 0 0 35 33 38 69 64 71 67 61 71 68 63 70 72 67 74 70 65 71 70 65 72 66 60 70 68 63 70 71 66 73 67 61 71 69 66 73 64 58 68 72 67 74 66 60 72 71 66 73 68 62 72 71 66 73 72 67 74 71 66 72 70 64 74 65 59 71 63 57 67 69 66 73 71 66 73 64 58 68 66 63 70 65 62 73 69 64 71 68 62 72 71 66 73 
38 65 58 38 65 58 39 66 59 38 65 58 38 65 58 38 65 58 40 65 59 38 65 58 38 65 58 38 65 58 39 64 58 38 65 58 39 66 59 39 66 59 39 66 59 38 65 58 38 65 58 38 65 58 39 66 59 40 67 60 38 65 58 38 65 58 39 66 59 39 66 59 39 66 59 38 65 58 38 65 58 39 66 59 39 66 59 38 65 58 39 66 59 39 66 59 38 65 58 38 65 58 39 66 59 40 67 60 38 65 58 38 65 58 39 66 59 39 66 59 39 66 57 39 66 59 39 64 58 39 66 59 39 64 58 36 61 55 5 7 6 3 3 3 37 35 40 47 45 50 46 44 49 44 41 48 45 43 48 49 47 52 44 41 48 45 43 48 46 44 49 46 44 49 46 44 49 48 45 52 46 44 47 46 43 50 46 43 50 48 46 51 47 45 50 46 44 49 23 21 22 13 11 14 22 20 25 47 42 49 61 59 64 67 64 73 66 63 70 69 63 73 67 64 73 67 62 69 66 60 70 67 62 69 68 65 72 68 65 72 68 63 70 69 63 73 68 63 70 68 65 74 77 72 78 69 63 73 72 67 74 69 63 73 67 64 73 70 64 74 69 63 73 66 60 70 68 62 72 67 65 70 69 63 73 67 61 71 69 64 70 70 67 74 71 66 73 71 66 72 
38 65 58 38 65 58 39 66 59 39 66 59 38 65 58 39 66 59 38 65 58 38 65 58 38 65 58 39 66 59 39 64 58 38 65 58 37 64 57 38 65 58 38 65 58 37 64 57 40 67 60 39 66 59 38 65 58 38 65 58 39 66 59 39 66 59 39 66 59 39 66 59 38 65 58 39 66 59 38 65 58 39 66 59 39 66 59 39 66 59 39 66 59 39 66 59 39 66 59 39 66 59 38 65 58 37 64 57 39 66 59 39 66 59 39 66 59 38 65 58 39 65 56 39 66 59 39 66 59 39 64 58 38 65 58 37 60 54 3 3 3 9 7 8 45 43 48 47 45 50 46 44 49 46 44 49 48 43 50 51 46 50 45 43 48 46 43 50 46 44 49 46 44 49 47 44 51 46 43 50 46 43 50 50 48 51 47 45 50 45 43 48 46 44 49 43 40 47 46 44 49 46 44 49 46 43 50 43 41 52 51 48 55 69 62 69 70 65 72 69 63 73 71 66 73 69 63 73 71 66 73 70 65 72 71 66 73 72 66 76 72 67 74 69 61 72 71 66 73 68 62 72 75 70 77 68 65 74 69 63 73 66 60 72 68 63 70 71 65 75 65 62 71 66 60 70 67 62 69 71 65 75 65 59 69 71 70 76 69 64 71 70 64 74 69 63 73 71 66 73 
39 66 59 39 66 59 39 66 59 38 65 58 39 66 59 39 66 59 38 65 58 39 66 59 38 65 58 39 66 59 39 64 58 39 66 59 38 65 58 38 65 58 38 65 58 38 65 58 38 65 58 39 66 59 38 65 58 38 65 58 38 65 58 40 67 60 38 65 58 38 65 58 39 66 59 39 66 59 39 66 59 39 66 59 37 64 57 38 65 58 39 66 59 39 66 59 38 65 58 39 66 59 39 66 59 39 66 59 38 65 58 39 66 59 38 65 58 39 66 59 38 65 56 38 65 58 40 67 60 40 65 59 39 66 59 34 59 53 2 2 2 10 10 10 49 47 50 46 44 49 47 42 49 48 43 49 41 38 45 43 40 47 47 45 50 47 45 48 45 42 49 48 46 51 47 45 48 45 43 48 46 43 50 45 42 49 45 43 48 46 43 50 44 42 47 49 47 52 45 42 49 45 43 48 46 41 47 50 48 51 45 42 49 53 52 58 67 61 71 66 60 70 72 67 73 71 66 73 67 62 69 66 60 70 70 65 72 73 68 74 69 64 71 72 67 74 67 65 70 68 65 72 70 65 72 66 60 72 71 66 73 69 63 75 68 62 72 70 65 72 72 67 73 65 62 71 64 61 70 70 64 74 67 61 71 69 64 71 69 63 73 71 66 72 68 65 76 66 60 70 
39 66 59 39 66 59 39 66 59 39 66 59 37 64 57 38 65 58 39 66 59 38 65 58 39 66 59 39 66 59 38 65 58 39 66 59 39 66 59 38 65 58 39 66 59 39 66 59 39 66 59 39 66 59 39 66 59 39 66 59 38 65 58 39 66 59 39 66 59 38 65 58 39 66 59 39 66 59 39 66 59 39 66 59 39 66 59 38 65 58 38 65 58 39 66 59 39 66 59 39 66 59 39 66 59 38 65 58 38 65 58 39 66 59 39 66 59 38 65 58 40 66 57 39 66 59 39 66 59 38 65 58 38 65 58 33 56 50 1 1 1 9 7 8 41 39 44 46 44 49 48 46 51 42 40 45 47 45 50 46 44 49 46 43 50 47 45 50 42 39 46 47 45 50 44 41 48 47 44 51 45 43 48 47 44 51 45 43 48 46 44 49 46 43 50 44 42 47 49 47 48 49 47 50 48 43 49 44 42 47 45 43 48 50 48 51 68 63 70 70 67 74 70 65 72 65 62 71 67 64 71 67 64 73 67 61 71 71 66 73 70 65 72 67 62 69 71 65 75 71 65 75 67 61 71 70 64 74 64 61 70 68 62 72 73 68 75 67 64 71 69 64 71 69 64 71 69 63 73 73 68 75 69 63 73 70 65 71 67 62 69 66 60 70 69 64 71 72 67 74 
38 65 58 39 66 59 39 66 59 38 65 58 41 66 60 39 66 59 38 65 58 39 64 58 37 64 57 39 66 59 39 66 59 39 66 59 39 66 59 39 66 59 40 67 60 39 66 59 38 65 58 39 66 59 38 65 58 39 66 59 38 65 58 38 65 58 38 65 58 38 65 58 39 66 59 39 66 59 39 66 59 38 65 58 38 65 58 38 65 58 39 66 59 39 66 59 39 66 59 38 65 58 39 66 59 39 66 59 38 65 58 39 66 59 38 65 58 38 65 58 39 65 56 40 67 60 39 66 59 38 65 58 40 65 59 26 45 41 1 1 1 12 12 12 46 44 47 48 46 51 46 44 49 46 44 49 46 43 50 47 45 50 44 41 48 45 42 51 45 43 48 47 45 50 46 44 49 47 44 51 47 45 50 47 45 50 43 40 47 46 43 50 45 42 51 48 46 51 43 40 47 46 43 50 43 40 47 49 44 48 43 40 47 48 46 51 54 48 58 67 61 71 72 67 74 66 60 70 70 65 72 71 65 77 66 60 70 67 61 71 70 62 73 73 68 72 67 61 73 71 66 73 69 64 71 69 64 71 68 65 72 69 63 75 69 61 74 69 64 71 66 63 72 71 66 73 68 62 72 66 60 70 67 61 71 69 63 73 69 66 75 69 63 73 66 60 70 66 61 68 
39 66 59 40 65 59 40 65 59 38 65 58 38 65 58 38 65 58 39 66 59 38 65 58 38 65 58 39 66 59 38 65 58 39 64 58 38 65 58 38 65 58 39 66 59 38 65 58 38 65 58 39 66 59 39 66 59 39 66 59 39 66 59 39 66 59 39 66 59 39 66 59 39 66 59 39 66 59 38 65 58 39 66 59 39 66 59 40 67 60 39 66 59 38 65 58 38 65 58 40 67 60 39 66 59 39 66 59 39 66 59 38 65 58 38 65 58 38 65 58 39 66 57 38 65 58 38 65 58 39 64 58 39 66 59 35 58 52 2 2 2 8 8 8 45 42 49 46 45 50 44 39 46 47 42 48 43 40 47 46 41 48 48 46 51 44 41 48 46 44 49 45 43 48 47 45 50 45 43 48 44 42 47 45 43 48 48 45 52 43 40 47 46 44 49 45 43 46 47 42 48 44 41 48 48 46 51 47 45 50 44 41 48 44 42 47 47 41 51 63 58 65 66 60 70 69 63 73 68 62 72 74 69 75 70 64 74 69 64 71 73 68 74 67 64 71 71 66 73 70 64 74 70 62 73 66 61 68 67 64 73 64 58 68 71 65 75 67 64 71 72 67 74 70 65 72 68 63 70 71 66 73 71 68 75 67 64 71 70 67 76 70 65 72 67 64 71 67 65 70 
