P3
100 50
255
17 15 16 16 14 15 16 16 16 16 16 16 16 16 16 15 15 15 15 15 15 16 16 16 16 16 16 16 16 16 16 16 16 16 16 16 15 15 15 16 16 16 16 16 16 17 17 17 15 15 15 15 15 15 15 15 15 16 16 16 16 16 16 16 16 16 16 16 16 17 17 15 16 16 16 16 16 16 16 16 16 17 15 16 16 16 16 14 14 14 16 16 16 16 16 16 15 17 16 16 16 14 16 16 16 16 16 16 16 16 14 16 16 16 17 15 16 16 16 16 15 15 15 43 22 41 51 22 50 23 16 23 15 15 15 34 20 33 46 20 45 11 7 8 2 2 2 0 0 0 16 13 8 54 39 20 57 42 23 57 42 23 56 41 22 54 41 22 56 41 22 58 43 24 57 42 23 54 41 22 57 42 23 54 41 22 56 41 22 55 42 23 56 41 22 56 41 22 55 40 21 57 42 23 56 41 22 56 41 22 56 41 22 56 41 22 57 42 23 56 41 22 57 42 23 56 41 22 56 41 22 56 41 22 57 42 23 55 40 21 56 41 22 56 41 22 57 42 23 56 41 22 57 42 23 57 42 23 56 41 22 57 42 23 56 41 22 57 42 23 56 41 22 56 41 22 56 41 22 56 41 22 56 41 22 56 41 22 56 41 22 57 42 23 56 41 22 56 41 22 
16 16 18 15 15 15 15 15 15 15 15 15 15 15 15 16 16 16 14 16 15 16 16 16 17 17 17 15 15 15 15 15 15 15 15 17 16 16 16 16 16 16 15 15 15 16 16 14 15 15 15 16 16 16 16 16 16 16 16 16 16 16 16 16 16 16 15 15 15 16 16 16 16 16 16 15 15 15 16 16 14 16 16 16 17 17 17 14 14 14 16 16 18 16 16 16 15 15 15 16 16 16 15 15 15 16 16 16 16 16 16 16 16 16 16 16 16 15 15 15 15 15 15 18 16 19 22 17 21 16 16 16 14 16 15 36 20 33 48 22 47 19 19 21 13 13 13 2 2 2 1 1 1 30 22 11 56 41 22 57 42 23 57 42 23 56 41 22 56 41 22 56 41 22 56 41 22 55 40 21 56 41 22 56 41 22 56 41 22 57 42 23 56 41 22 57 42 23 58 43 24 56 41 22 57 42 23 56 41 22 57 42 23 56 41 22 57 42 23 56 41 22 57 42 23 56 41 22 58 43 24 56 41 22 56 41 22 57 42 23 57 42 23 56 41 22 56 41 22 56 41 22 57 42 23 56 41 22 55 40 21 58 43 24 57 42 23 56 41 22 56 41 22 57 42 23 57 42 23 55 40 21 56 41 22 56 41 22 57 42 23 56 41 22 57 42 23 57 42 23 
15 15 15 18 16 17 16 16 16 16 16 16 16 16 16 15 15 15 16 16 16 16 16 16 17 17 17 16 16 16 15 15 15 16 16 16 15 15 15 16 16 16 14 14 14 16 16 16 15 15 15 16 16 16 17 17 17 16 16 16 17 17 17 16 16 16 14 16 15 16 16 16 16 16 16 15 15 15 16 16 16 15 15 15 16 16 16 16 16 18 14 14 14 14 14 14 15 15 15 16 14 15 16 16 16 16 16 16 14 14 14 15 15 15 16 14 15 16 16 16 16 16 16 16 16 18 16 16 14 15 15 15 16 16 16 16 16 16 17 17 17 16 16 14 14 12 13 2 2 2 1 1 1 6 5 3 50 37 20 57 42 23 57 42 23 57 42 23 57 42 23 56 41 22 56 41 22 56 41 22 56 41 22 56 41 22 56 41 22 56 41 22 56 41 22 56 41 22 56 41 22 56 41 22 56 41 22 58 43 24 56 41 22 56 41 22 56 41 22 57 42 23 56 41 22 57 42 23 56 41 22 56 41 22 56 41 22 57 42 23 56 41 22 57 42 23 57 42 23 56 41 22 57 42 23 58 43 24 56 41 22 56 41 22 56 41 22 57 42 23 56 41 22 57 42 23 56 41 22 56 41 22 56 41 22 56 41 22 56 41 22 56 41 22 57 42 23 56 41 22 
16 16 16 16 16 16 15 15 15 16 16 16 15 15 15 16 16 16 15 15 15 15 15 15 16 16 16 15 15 15 16 16 16 16 16 16 16 16 16 15 15 15 15 15 15 16 16 16 16 16 16 17 17 17 15 15 15 15 15 15 15 15 13 16 16 16 16 16 16 16 16 18 15 15 15 15 15 15 15 17 16 16 16 16 14 14 14 8 8 8 1 1 3 7 7 7 15 15 15 16 16 16 16 16 16 16 16 16 14 16 15 15 15 15 15 15 15 16 16 16 15 15 15 15 15 15 14 14 14 16 16 14 15 15 15 15 15 15 15 15 15 16 14 15 6 6 6 0 0 0 3 3 1 0 2 1 29 22 12 56 41 22 57 42 23 57 42 23 55 40 21 57 42 23 54 42 20 56 41 22 56 41 22 57 42 23 56 41 22 56 41 22 56 41 22 56 41 22 57 42 23 56 41 22 56 41 22 57 42 23 57 42 23 56 41 22 56 41 22 57 42 23 56 41 22 56 41 22 57 42 23 56 41 22 57 42 23 56 41 22 56 41 22 56 41 22 56 41 22 57 42 23 56 41 22 57 42 23 57 42 23 57 42 23 57 42 23 57 42 23 56 41 22 57 42 23 56 41 22 56 41 22 56 41 22 56 41 22 56 41 22 57 42 23 56 41 22 57 42 23 
15 15 15 16 16 16 17 17 17 15 15 15 16 16 16 15 15 15 15 15 15 16 16 16 17 17 17 15 15 15 15 15 15 16 16 16 16 16 16 15 15 15 16 16 16 16 16 16 16 16 16 16 16 16 15 15 15 16 16 16 14 14 14 15 15 15 14 16 15 16 16 14 16 16 16 16 16 16 16 16 16 11 11 11 1 1 1 1 1 1 0 0 0 9 9 9 16 16 16 16 16 16 16 16 16 16 16 16 16 16 16 16 16 16 15 15 15 16 16 16 16 16 16 16 16 16 16 16 16 16 16 16 16 16 16 15 15 15 13 13 13 6 6 6 2 2 2 7 8 3 39 34 15 4 6 1 8 4 3 52 39 22 54 41 24 56 41 22 53 42 22 57 42 23 55 42 23 56 41 22 56 41 22 57 42 23 56 41 22 56 41 22 56 41 22 56 41 22 57 42 23 56 41 22 56 41 22 56 41 22 57 42 23 56 41 22 57 42 23 57 42 23 57 42 23 56 41 22 56 41 22 56 41 22 56 41 22 56 41 22 56 41 22 56 41 22 56 41 22 56 41 22 57 42 23 56 41 22 56 41 22 56 41 22 56 41 22 57 42 23 57 42 23 57 42 23 56 41 22 56 41 22 56 41 22 56 41 22 57 42 23 56 41 22 56 41 22 56 41 22 
17 17 17 15 15 15 15 15 15 15 15 15 16 16 16 16 16 16 15 15 15 15 15 15 15 15 15 15 15 15 16 16 16 16 16 16 15 15 15 16 16 16 16 16 16 16 16 16 15 15 15 15 15 15 16 16 16 16 16 16 15 15 15 15 15 15 16 16 14 15 15 15 16 16 14 15 15 15 10 9 7 2 2 2 1 1 0 0 0 0 3 3 3 13 13 13 14 16 15 15 15 15 15 15 15 14 14 14 16 16 16 17 17 17 16 16 16 15 15 15 16 16 16 16 16 14 15 15 15 15 15 17 15 15 15 12 13 15 2 2 0 2 2 2 10 7 2 48 43 21 55 48 22 17 12 6 1 1 1 31 24 14 56 41 22 56 41 22 56 41 22 56 41 22 56 41 22 54 41 22 56 41 22 57 42 23 56 41 22 56 41 22 56 41 22 56 41 22 57 42 23 56 41 22 56 41 22 57 42 23 56 41 22 57 42 23 56 41 22 57 42 23 56 41 22 56 41 22 56 41 22 56 41 22 56 41 22 56 41 22 56 41 22 57 42 23 56 41 22 56 41 22 56 41 22 56 41 22 56 41 22 57 42 23 56 41 22 56 41 22 57 42 23 56 41 22 56 41 22 56 41 22 56 41 22 56 41 22 56 41 22 56 41 22 56 41 22 56 41 22 
15 15 15 15 15 15 15 15 15 16 16 16 16 16 16 16 16 16 16 16 16 16 16 16 15 15 15 14 14 14 15 15 15 16 16 16 15 15 15 15 15 15 16 16 16 15 15 15 15 15 15 15 15 15 15 15 15 16 16 16 15 15 15 15 15 15 15 15 15 15 15 15 17 15 16 6 6 6 1 1 1 2 0 1 5 4 0 0 2 1 7 7 9 15 15 15 15 15 15 15 15 15 15 15 15 15 15 17 15 15 15 15 15 15 16 16 16 16 16 16 15 15 15 13 13 13 11 11 11 9 9 9 4 4 4 1 1 1 1 1 3 25 23 11 48 42 20 55 49 23 54 37 19 28 15 7 0 0 0 20 15 9 57 42 23 58 41 23 56 40 24 57 42 23 57 42 23 57 42 23 56 41 22 56 41 22 56 41 22 56 41 22 56 41 22 56 41 22 56 41 22 56 41 22 56 41 22 56 41 22 56 41 22 55 40 21 56 41 22 56 41 22 56 41 22 56 41 22 56 41 22 56 41 22 56 41 22 56 41 22 56 41 22 56 41 22 56 41 22 57 42 23 56 41 22 56 41 22 56 41 22 57 42 23 56 41 22 56 41 22 57 42 23 56 41 22 56 41 22 56 41 22 56 41 22 56 41 22 56 41 22 56 41 22 56 41 22 56 41 22 
16 16 18 16 16 16 16 16 16 16 16 16 15 15 15 15 15 15 15 15 15 15 15 15 15 15 15 15 15 15 16 16 16 15 15 15 16 16 16 16 16 16 16 16 16 15 15 15 16 16 16 15 15 15 16 16 16 16 16 16 15 15 15 16 16 16 16 16 16 14 14 14 6 6 6 2 2 2 2 2 2 25 12 4 6 2 1 0 0 0 13 13 13 14 16 15 17 15 16 16 16 16 16 16 16 15 15 15 16 16 16 17 15 18 15 15 15 13 13 13 5 5 5 1 1 3 1 1 1 1 1 1 1 1 1 9 8 4 26 22 10 53 47 23 57 50 22 56 35 16 53 30 14 37 30 14 0 0 0 3 3 3 49 38 20 57 42 23 56 41 22 56 41 22 56 41 22 56 41 22 56 41 22 56 41 22 56 41 22 56 41 22 56 41 22 56 41 22 56 41 22 56 41 22 56 41 22 57 42 23 57 42 23 56 41 22 56 41 22 56 41 22 56 41 22 57 42 23 56 41 22 56 41 22 56 41 22 56 41 22 56 41 22 56 41 22 56 41 22 56 41 22 57 42 23 56 41 22 57 42 23 56 41 22 56 41 22 56 41 22 57 42 23 56 41 22 56 41 22 56 41 22 56 41 22 56 41 22 57 42 23 56 41 22 56 41 22 56 41 22 
15 15 17 15 15 15 15 15 15 15 15 15 16 16 16 16 16 16 14 14 14 16 16 16 16 16 16 16 16 16 17 17 17 15 15 15 15 15 15 16 16 16 16 16 16 15 15 15 15 15 15 15 15 15 16 16 16 16 16 16 17 15 16 16 16 16 15 15 15 10 10 10 1 1 1 3 3 3 37 19 9 37 19 9 2 0 1 6 4 5 16 16 16 16 14 17 15 15 15 15 15 15 14 14 14 14 14 14 36 20 33 42 21 40 17 15 18 3 3 3 1 1 1 0 0 0 7 8 3 7 6 2 20 17 8 22 20 8 35 32 15 47 42 20 56 49 23 56 46 21 55 43 21 50 25 18 7 6 2 1 1 1 41 29 17 57 40 22 56 41 22 57 42 23 56 41 22 56 41 20 56 41 22 56 41 22 56 41 22 56 41 22 56 41 22 56 41 22 56 41 22 56 41 22 56 41 22 56 41 22 55 40 21 56 41 22 56 41 22 56 41 22 56 41 22 56 41 22 56 41 22 57 42 23 56 41 22 56 41 22 57 42 23 56 41 22 57 42 23 56 41 22 56 41 22 56 41 22 57 42 23 56 41 22 57 42 23 56 41 22 56 41 22 56 41 22 56 41 22 56 41 22 56 41 22 56 41 22 56 41 22 57 42 23 56 41 22 57 42 23 
10 10 10 10 10 10 14 14 14 14 14 14 15 15 15 15 15 15 15 15 15 16 16 16 15 15 15 15 15 15 15 15 15 15 15 15 15 15 15 16 16 16 16 16 16 17 17 17 17 17 17 16 16 16 16 16 16 17 17 17 21 16 20 16 16 16 14 14 14 4 4 4 2 0 1 35 16 9 55 27 15 26 13 7 0 0 0 9 9 9 18 16 21 37 19 35 19 14 18 12 12 12 11 11 9 11 11 11 42 20 41 51 21 47 14 12 15 0 0 0 1 1 1 0 0 0 1 1 1 0 0 0 1 1 1 0 0 0 1 1 1 2 0 1 27 23 12 54 48 22 55 47 24 55 39 23 24 20 9 0 0 0 34 24 12 56 41 22 56 41 22 56 41 22 56 41 22 53 40 21 56 41 22 56 41 22 57 42 23 56 41 22 56 41 22 57 42 23 56 41 22 56 41 22 56 41 22 56 41 22 56 41 22 57 42 23 56 41 22 57 42 23 56 41 22 56 41 22 56 41 22 57 42 23 56 41 22 56 41 22 56 41 22 56 41 22 56 41 22 57 42 23 56 41 22 56 41 22 56 41 22 56 41 22 56 41 22 56 41 22 56 41 22 56 41 22 56 41 22 56 41 22 56 41 22 56 41 22 56 41 22 56 41 22 57 42 23 56 41 22 
8 8 8 22 13 18 45 20 42 16 11 15 9 9 9 9 9 9 9 9 9 9 9 11 7 7 7 8 6 7 8 8 8 10 10 10 15 15 15 15 15 15 14 14 14 39 20 39 53 23 51 21 14 21 12 12 12 44 20 44 55 22 51 27 17 25 6 6 8 0 0 0 16 8 6 54 26 14 55 27 15 14 6 3 1 1 0 9 11 10 31 18 28 54 23 54 42 21 40 14 14 14 14 14 14 15 15 17 17 15 18 17 17 19 13 13 13 2 2 2 3 3 5 6 6 6 6 6 6 6 6 6 8 8 8 11 11 11 8 8 10 2 2 2 0 0 0 24 22 10 54 48 22 56 49 23 37 25 11 1 1 1 17 12 8 57 42 23 56 41 22 56 41 20 57 42 23 56 41 22 56 41 22 56 41 22 56 41 22 56 41 22 56 41 22 56 41 22 56 41 22 56 41 22 56 41 22 56 41 22 57 42 23 56 41 22 56 41 22 56 41 22 56 41 22 56 41 22 56 41 22 57 42 23 57 42 23 57 42 23 56 41 22 56 41 22 56 41 22 56 41 22 56 41 22 56 41 22 57 42 23 57 42 23 56 41 22 56 41 22 56 41 22 56 41 22 56 41 22 57 42 23 56 41 22 56 41 22 56 41 22 57 42 23 56 41 22 57 42 23 
9 9 7 32 16 29 56 23 52 23 11 21 5 5 5 1 3 2 0 0 0 0 0 0 0 0 0 1 1 1 0 0 0 1 1 1 3 5 4 15 15 15 12 10 11 50 22 45 56 23 52 17 12 18 11 11 11 38 20 36 53 23 51 26 14 24 1 1 1 4 3 1 46 22 12 55 27 15 55 27 15 18 8 6 1 1 3 10 10 10 23 18 24 43 21 42 24 17 25 15 15 13 16 16 18 15 15 15 17 15 16 17 15 16 15 15 15 13 15 12 15 15 15 15 15 15 16 16 16 15 17 16 16 16 16 14 14 14 16 16 16 10 10 12 2 2 2 3 3 1 45 38 19 55 43 19 38 18 11 1 1 1 7 6 2 53 40 21 55 40 21 54 41 22 57 42 23 56 41 22 56 41 22 56 41 22 56 41 22 56 41 22 57 42 23 56 41 22 56 41 22 56 41 22 56 41 22 56 41 22 56 41 22 56 41 22 56 41 22 57 42 23 56 41 22 57 42 23 56 41 22 56 41 22 56 41 22 56 41 22 56 41 22 56 41 22 56 41 22 56 41 22 56 41 22 56 41 22 57 42 23 57 42 23 56 41 22 55 40 21 57 42 23 56 41 22 56 41 22 56 41 22 56 41 22 55 40 21 56 41 22 56 41 22 56 41 22 56 41 22 
8 8 8 9 9 9 11 6 12 2 2 4 1 1 1 0 0 0 7 6 4 20 17 10 19 16 9 1 1 1 1 1 1 0 0 0 1 3 0 14 14 14 15 17 16 31 19 31 33 19 32 15 15 15 14 16 15 18 16 19 23 18 24 7 7 9 1 1 1 15 7 4 56 28 16 56 30 15 55 27 15 28 15 9 1 1 1 4 4 4 16 16 16 15 15 17 15 15 15 16 14 15 14 16 15 7 9 8 12 12 12 14 14 14 16 16 16 16 16 18 15 15 15 16 16 16 16 14 15 15 15 13 15 15 15 16 14 15 16 16 16 13 13 13 1 1 1 1 1 0 46 41 21 55 34 17 46 30 14 1 1 1 4 2 3 52 39 20 56 41 22 54 41 22 56 41 22 54 41 22 56 41 22 57 42 23 56 41 22 56 41 22 55 40 21 57 42 23 56 41 22 56 41 22 58 43 24 56 41 22 56 41 22 55 40 21 56 41 22 57 42 23 56 41 22 56 41 22 56 41 22 56 41 22 56 41 22 56 41 22 56 41 22 55 40 21 56 41 22 56 41 22 56 41 22 56 41 22 56 41 22 56 41 22 57 42 23 57 42 23 56 41 22 56 41 22 56 41 22 57 42 23 56 41 22 56 41 22 57 42 23 56 41 22 56 41 22 56 41 22 
7 7 7 2 2 2 0 0 0 2 2 2 10 9 5 34 28 12 54 48 24 43 38 18 2 2 2 0 0 0 2 2 4 7 7 7 9 9 9 15 15 15 16 16 16 15 15 15 16 16 16 16 16 16 15 15 15 14 16 15 16 16 16 3 3 3 0 0 0 32 18 7 55 36 19 55 47 24 54 33 16 49 26 12 3 1 2 3 3 3 14 14 14 15 17 16 15 15 15 15 15 15 11 9 10 0 2 1 1 1 1 8 8 10 16 16 16 15 15 15 15 15 15 15 15 17 16 16 16 15 15 15 16 14 15 15 15 15 16 16 16 11 11 11 1 1 1 17 17 7 55 49 23 55 40 19 48 42 20 2 2 0 2 2 2 49 36 20 55 42 23 57 42 23 57 42 23 55 40 21 56 41 22 55 40 21 56 41 22 56 41 22 57 42 23 55 40 21 56 41 22 56 41 22 56 41 22 55 40 21 55 40 21 56 41 22 56 41 22 56 41 22 56 41 22 55 40 21 57 42 23 56 41 22 56 41 22 56 41 22 56 41 22 56 41 22 56 41 22 56 41 22 57 42 23 55 40 21 56 41 22 56 41 22 56 41 22 57 42 23 57 42 23 56 41 22 55 40 21 56 41 22 56 41 22 57 42 23 56 41 22 56 41 22 56 41 22 56 41 22 
2 2 0 1 1 1 12 11 6 43 38 18 55 47 24 55 49 23 50 44 20 6 7 2 0 2 1 3 3 5 11 9 10 9 9 9 13 13 15 15 15 15 16 16 16 16 16 16 15 15 15 15 15 15 16 16 16 16 16 16 13 13 13 1 1 1 2 2 0 52 26 11 56 44 20 55 48 22 56 28 14 55 27 15 19 8 6 0 0 0 6 8 7 15 15 17 15 15 15 14 14 14 3 3 3 0 2 1 2 2 2 1 1 1 9 9 9 17 17 17 15 15 15 14 14 14 16 16 18 16 16 16 15 17 16 15 15 15 15 15 15 4 4 4 1 1 1 28 26 11 55 49 23 55 48 22 54 29 22 6 2 1 1 1 1 39 30 13 57 41 25 55 40 21 56 41 22 54 41 24 55 40 21 56 41 22 56 41 22 55 40 21 56 41 22 56 41 22 56 41 22 56 41 22 56 41 22 56 41 22 56 41 22 56 41 22 56 41 22 55 40 21 57 42 23 56 41 22 56 41 22 56 41 22 56 41 22 56 41 22 56 41 22 56 41 22 56 41 22 57 42 23 56 41 22 56 41 22 55 40 21 56 41 22 56 41 22 57 42 23 56 41 22 56 41 22 56 41 22 56 41 22 56 41 22 56 41 22 56 41 22 56 41 22 56 41 22 56 41 22 
2 2 0 32 29 14 55 48 22 55 50 21 55 49 23 55 49 25 20 17 8 1 1 1 3 3 3 9 9 9 9 9 9 13 13 13 16 14 15 15 15 15 15 15 15 15 15 15 15 15 15 16 14 15 15 15 15 16 16 16 10 10 10 1 1 1 17 7 5 55 27 15 56 44 22 56 45 23 56 27 13 55 27 15 49 26 12 7 3 2 1 1 1 2 2 2 3 3 5 2 0 1 0 0 0 12 7 4 41 21 12 3 1 2 0 2 1 7 7 7 15 15 15 15 15 17 14 14 14 16 16 16 15 15 15 14 14 14 4 4 6 1 1 1 13 13 5 47 43 18 53 47 23 55 44 22 55 33 22 14 9 5 1 1 1 26 19 9 56 41 20 57 42 23 55 39 23 56 41 22 56 41 22 56 41 22 56 41 22 55 40 21 56 41 22 55 40 21 56 41 22 56 41 22 57 42 23 56 41 22 57 42 23 56 41 22 56 41 22 56 41 22 56 41 22 57 42 23 56 41 22 56 41 22 56 41 22 56 41 22 57 42 23 56 41 22 56 41 22 55 40 21 56 41 22 56 41 22 56 41 22 56 41 22 55 40 21 56 41 22 56 41 22 56 41 22 56 41 22 55 40 21 56 41 22 57 42 23 56 41 22 56 41 22 56 41 22 55 40 21 
36 33 16 55 48 22 54 46 23 54 36 24 56 49 23 43 36 18 3 1 2 2 2 2 7 7 7 10 10 10 14 12 13 16 14 15 16 16 16 15 15 15 15 15 15 15 15 15 17 15 16 17 15 16 15 15 15 17 15 16 4 4 6 1 1 1 31 17 8 55 27 15 57 47 22 55 49 23 54 31 17 55 27 16 55 27 13 47 23 11 15 10 7 2 2 2 2 2 2 10 6 3 26 11 6 45 23 10 56 29 12 39 19 10 2 2 2 1 1 1 12 12 12 16 16 16 15 15 17 16 16 16 15 15 15 5 5 5 0 0 0 1 1 1 9 8 3 4 5 0 7 6 4 36 33 14 57 50 24 23 21 9 1 1 1 16 13 8 57 42 23 57 42 23 55 40 21 54 41 22 56 41 22 56 41 22 55 40 21 57 42 23 55 40 21 56 41 22 55 40 21 55 40 21 56 41 22 56 41 22 56 41 22 54 39 20 56 41 22 55 40 21 57 42 23 56 41 22 55 40 21 55 40 21 56 41 22 56 41 22 56 41 22 56 41 22 56 41 22 56 41 22 56 41 22 56 41 22 56 41 22 56 41 22 56 41 22 56 41 22 56 41 22 56 41 22 56 41 22 55 40 21 56 41 22 56 41 22 55 40 21 56 41 22 56 41 22 58 43 24 
53 49 22 54 47 21 57 30 23 55 30 23 53 47 21 12 11 7 0 0 0 5 5 5 10 10 10 14 14 14 15 15 17 15 15 15 15 15 15 15 15 15 14 16 15 14 14 14 10 10 8 13 15 14 15 15 15 13 13 13 2 2 2 1 1 1 47 23 13 55 29 16 54 47 21 55 48 22 57 40 20 56 28 14 55 27 13 56 26 15 55 27 15 48 24 12 45 23 9 54 26 14 56 28 14 57 29 17 55 27 13 54 28 15 18 9 4 1 1 1 4 4 4 14 14 14 16 16 18 16 16 18 15 15 15 1 1 1 0 0 0 1 1 1 1 1 1 1 1 1 1 1 1 28 24 12 55 49 23 35 29 15 1 1 1 24 17 9 54 41 22 56 41 22 54 41 22 56 41 22 55 40 21 56 41 22 56 41 22 55 40 21 56 41 22 56 41 22 56 41 22 56 41 22 56 41 22 56 41 22 55 40 21 55 40 21 56 41 22 56 41 22 56 41 22 55 40 21 56 41 22 56 41 22 55 40 21 55 40 21 55 40 21 56 41 22 56 41 22 56 41 22 55 40 21 56 41 22 56 41 22 56 41 22 56 41 22 55 40 21 57 42 23 58 43 24 56 41 22 56 41 22 55 40 21 56 41 22 56 41 22 55 40 21 56 41 22 55 40 21 
56 46 19 55 33 20 56 29 20 56 45 23 36 33 16 3 2 0 0 2 1 8 8 8 14 14 14 15 15 15 15 15 15 15 15 13 15 15 17 13 15 14 15 15 15 6 6 6 1 1 1 7 5 6 16 16 18 9 9 9 1 1 1 16 9 3 54 28 15 56 30 15 57 47 22 56 35 16 55 45 20 56 44 22 54 31 15 55 27 13 54 26 12 54 26 14 56 27 13 55 29 16 55 45 20 55 43 21 55 27 13 54 28 15 50 24 11 5 4 2 1 1 1 12 14 13 15 15 15 16 16 16 15 15 13 10 10 10 9 9 9 10 10 10 12 12 12 1 1 1 0 2 1 38 33 14 55 48 22 33 23 11 1 1 1 17 14 7 54 41 22 56 41 22 56 41 22 55 40 21 54 41 22 57 42 23 56 41 22 55 40 21 56 41 22 54 41 22 56 41 22 56 41 22 56 41 22 57 42 23 56 41 22 57 42 23 56 41 22 56 41 22 55 40 21 56 41 22 55 40 21 57 42 23 55 40 21 56 41 22 56 41 22 56 41 22 56 41 22 56 41 22 57 42 23 56 41 22 54 41 22 56 41 22 55 42 23 55 40 21 56 41 22 56 41 22 56 41 22 56 41 22 56 41 22 54 38 22 56 41 22 56 40 24 56 41 22 56 41 22 
57 47 22 54 46 23 57 46 24 49 44 22 13 10 5 1 1 1 4 4 4 10 10 10 15 15 15 15 15 15 15 15 15 15 15 13 15 15 15 15 15 15 12 12 12 0 2 1 1 1 1 8 8 10 9 9 9 2 2 2 0 0 0 43 20 12 54 26 14 55 38 20 57 42 21 54 28 15 57 31 16 55 37 17 56 28 14 55 27 15 55 27 13 55 27 15 55 27 13 53 36 16 55 40 19 52 29 15 55 25 14 56 28 14 54 28 15 25 11 8 1 1 1 10 10 12 15 15 15 15 15 15 15 15 17 15 15 15 15 15 15 17 17 17 16 16 16 2 4 3 1 1 1 43 38 19 56 44 20 33 19 10 2 0 1 8 7 5 52 39 20 57 41 25 54 41 22 54 41 24 56 41 22 56 40 24 56 41 22 55 40 21 55 40 21 56 41 22 56 41 22 55 39 23 56 41 22 57 42 23 57 42 23 56 40 24 54 38 22 56 41 22 56 41 22 56 41 22 56 40 24 55 40 21 56 41 22 57 42 23 56 41 22 56 41 22 56 41 22 55 39 23 56 41 22 57 42 23 55 40 21 56 41 22 56 41 22 56 41 22 56 41 22 56 41 22 56 41 22 56 41 22 56 41 22 56 40 24 56 41 22 55 40 21 56 41 22 56 41 22 
55 49 23 55 48 22 49 43 21 10 9 5 0 0 0 3 3 3 8 8 8 10 10 12 16 16 16 15 15 15 15 15 15 15 15 15 14 16 15 14 14 16 3 3 3 2 0 1 0 1 3 1 1 1 1 1 1 1 1 1 26 13 5 55 27 16 55 27 13 54 31 15 53 30 14 53 27 14 51 28 14 49 25 13 34 15 9 20 11 6 20 11 6 21 10 6 11 6 3 9 6 1 8 4 1 11 6 3 27 14 6 53 25 13 56 27 13 37 19 9 2 2 0 4 4 4 15 15 15 15 15 15 16 16 16 14 16 15 14 14 14 17 17 17 13 13 13 3 1 2 1 1 0 46 39 20 56 49 23 41 34 16 1 1 1 9 8 3 54 41 22 56 41 22 53 40 21 54 42 20 55 40 21 56 41 22 53 40 21 53 40 23 56 41 22 56 41 22 57 40 22 54 41 22 55 40 21 54 41 22 56 41 22 56 41 22 56 41 22 56 41 22 55 40 21 53 40 21 55 40 21 56 41 22 56 40 24 56 41 22 57 42 23 56 40 24 55 40 21 57 42 23 55 40 21 55 40 21 56 41 22 55 40 21 55 40 21 56 41 22 56 41 22 56 41 22 56 41 22 55 40 21 56 41 22 56 41 22 56 41 22 56 41 22 57 42 23 56 41 22 
53 47 23 25 23 11 7 6 2 1 1 1 3 3 1 9 9 9 9 9 9 14 14 14 15 15 15 15 15 15 15 15 15 15 15 15 13 13 13 4 4 4 1 1 1 16 6 4 11 6 3 7 3 2 21 10 6 37 18 11 54 26 12 55 27 15 55 27 15 53 25 13 38 20 10 16 8 6 5 4 2 2 2 2 1 1 1 1 1 1 1 1 3 1 1 1 1 1 1 0 2 1 3 3 1 2 2 2 3 1 2 38 20 10 54 26 12 54 26 14 12 4 1 4 4 4 15 15 15 16 16 16 16 16 16 15 15 15 15 13 14 15 15 15 8 8 8 1 1 1 8 7 5 53 47 23 55 50 21 47 42 22 2 2 0 5 4 2 54 39 20 55 39 23 54 41 24 55 40 21 56 41 22 55 39 23 55 42 23 56 41 22 56 40 24 56 40 24 57 42 23 56 41 22 56 40 24 56 41 22 56 41 22 56 41 22 54 41 22 56 41 22 55 40 21 56 40 24 56 41 22 56 41 22 56 41 22 56 40 24 55 39 23 55 40 21 56 41 22 56 41 22 56 41 22 56 41 22 56 41 22 53 40 21 56 41 22 54 41 22 55 40 21 57 42 23 56 41 22 56 41 22 55 40 21 56 41 22 56 41 22 56 41 22 55 40 21 56 41 22 
12 11 6 0 0 0 0 0 0 2 2 2 8 8 8 9 9 9 11 11 11 15 15 15 15 15 15 15 15 15 15 15 15 15 15 15 7 7 7 1 1 1 5 4 2 51 24 13 55 27 15 55 27 15 56 28 14 54 28 13 38 20 10 28 13 6 13 8 5 4 2 3 0 0 0 1 1 1 1 1 1 4 2 3 11 6 12 8 8 10 14 9 13 38 17 36 22 15 22 15 15 15 24 17 25 32 14 30 1 1 1 10 4 4 53 25 13 52 26 13 7 3 4 2 2 4 13 15 14 15 15 15 15 15 13 15 15 15 14 16 15 11 11 11 0 2 1 2 2 2 43 38 18 52 44 21 33 30 15 20 17 8 3 3 1 2 2 2 46 34 18 54 41 22 55 40 19 56 41 22 55 39 23 56 41 22 56 41 22 55 40 21 56 41 22 53 40 23 56 41 22 55 40 21 56 41 22 56 41 22 55 40 21 53 40 23 55 39 23 56 41 22 55 40 21 55 40 21 56 41 22 56 41 22 55 40 21 55 39 23 53 40 23 55 42 23 54 41 22 54 41 22 55 40 21 56 41 22 56 41 22 53 40 21 56 41 22 54 41 22 55 40 21 56 41 22 55 40 21 56 41 22 56 41 22 56 41 22 55 40 21 55 40 21 56 41 22 55 40 21 
0 0 0 1 1 1 7 7 7 8 8 8 8 8 8 10 10 10 15 15 15 15 15 15 15 15 15 16 16 16 15 15 15 12 12 12 2 2 2 2 2 0 41 21 12 56 30 17 55 38 18 56 28 14 36 18 8 6 5 3 0 0 0 1 1 1 1 1 1 2 2 2 13 6 13 20 10 18 14 12 13 47 21 46 42 21 40 15 15 15 18 16 19 48 20 45 24 14 23 10 10 12 48 22 47 48 22 47 4 2 3 1 1 1 42 22 11 52 24 10 7 3 0 1 1 1 13 13 13 15 17 16 16 16 14 15 15 15 13 11 12 1 1 1 1 1 1 11 10 5 23 20 11 5 5 3 1 1 1 0 0 0 0 2 1 2 0 1 48 37 19 56 41 22 55 40 21 56 41 22 54 41 22 56 39 23 56 41 22 55 40 21 55 42 23 54 41 22 56 41 22 56 41 22 54 41 22 56 41 22 55 40 21 54 39 20 55 40 21 57 42 23 53 40 21 56 41 22 56 41 22 55 40 21 56 40 24 56 41 22 54 41 22 53 40 23 54 41 22 54 41 22 56 41 22 55 40 21 55 40 21 56 41 22 56 41 22 55 40 21 55 40 21 57 42 23 55 40 21 55 40 21 56 41 22 55 40 21 56 41 22 55 40 21 56 41 22 56 41 22 
5 5 3 8 8 8 9 9 7 10 10 10 10 10 10 15 15 15 16 16 16 15 15 15 16 16 16 14 14 12 15 15 15 8 8 8 0 0 0 10 6 3 54 28 15 54 35 18 56 44 22 53 27 14 7 3 0 2 2 2 7 5 6 22 9 19 14 9 13 15 15 13 49 21 46 30 16 29 12 10 11 18 8 17 13 6 13 2 2 2 3 3 3 1 1 1 0 0 0 1 1 1 8 3 7 18 16 21 6 6 6 2 0 1 30 15 8 51 24 13 7 3 2 2 2 2 14 14 14 16 16 16 15 15 15 15 15 13 7 7 7 1 1 1 0 0 0 0 0 0 1 1 1 1 1 1 4 2 3 9 9 9 3 3 3 1 1 1 45 33 17 54 41 22 54 41 22 55 40 21 56 41 22 56 41 22 56 41 22 55 39 23 55 40 21 55 40 21 56 41 22 55 40 21 56 40 24 55 40 21 56 41 22 56 41 22 55 40 21 56 41 22 55 40 21 55 39 23 55 39 23 55 40 21 55 40 21 55 40 21 54 41 22 53 40 21 54 41 22 53 40 23 55 40 21 56 41 22 54 39 20 56 41 22 56 41 22 55 40 21 55 40 21 55 40 21 56 41 22 56 41 22 55 40 21 55 40 21 55 39 23 56 41 22 55 40 21 55 40 21 
9 9 9 10 10 10 10 12 11 12 12 12 14 14 14 15 15 17 16 16 16 15 15 13 15 15 13 15 15 13 14 14 14 2 2 2 3 1 2 39 19 10 55 27 15 55 34 15 53 34 17 42 23 9 2 2 2 3 3 3 20 15 19 43 17 42 24 12 24 5 5 5 8 3 9 0 0 0 1 1 3 1 1 1 2 0 1 1 1 1 1 1 0 2 0 1 1 1 1 0 0 0 2 0 1 10 10 12 9 9 9 1 1 1 23 12 6 52 26 13 8 4 3 1 1 1 10 10 10 7 7 7 15 15 15 15 15 15 15 13 16 9 9 9 8 8 8 8 8 8 10 10 10 13 13 13 15 15 15 16 14 15 4 4 4 1 1 1 36 26 14 56 41 22 56 41 22 56 41 22 56 41 22 56 41 22 54 41 22 57 42 23 55 40 21 55 40 21 56 41 22 55 42 23 57 42 23 55 40 21 57 42 23 56 41 22 55 40 21 55 40 21 56 41 22 55 40 21 56 41 22 55 40 21 57 42 23 56 41 22 53 40 21 54 41 22 54 41 22 54 41 22 56 41 22 56 41 22 55 42 23 56 41 22 54 41 22 56 41 22 56 41 22 55 40 21 56 41 22 56 41 22 55 39 23 56 41 22 55 39 23 56 41 22 56 41 22 56 41 22 
12 12 12 11 11 11 6 6 6 3 3 3 2 2 2 13 13 13 15 15 15 15 15 15 15 15 15 15 15 15 5 6 8 0 0 0 11 6 2 53 27 14 55 27 15 55 27 15 55 27 13 30 16 7 0 0 0 6 6 6 7 7 7 1 1 1 1 1 1 1 1 1 1 1 1 1 1 1 1 1 1 2 2 2 2 2 2 3 3 3 2 2 2 3 1 2 1 3 2 4 4 4 0 0 0 17 11 15 30 14 27 1 1 1 19 10 5 54 28 15 16 8 5 1 1 1 1 1 1 1 1 1 9 9 9 16 16 16 16 16 16 15 15 15 15 15 15 15 15 15 15 15 15 15 15 15 15 15 15 15 15 15 2 2 4 1 1 3 39 29 17 55 39 23 54 41 22 57 42 23 56 41 22 54 41 22 55 40 21 55 40 21 54 41 22 57 42 23 56 39 21 55 40 21 52 39 20 55 40 21 56 41 22 56 41 20 55 40 21 55 39 23 54 41 22 54 41 22 56 41 22 56 40 24 56 41 22 56 41 22 56 41 22 56 41 22 55 39 23 56 41 22 56 41 22 55 40 21 56 41 22 56 41 22 55 40 21 56 41 22 56 41 22 55 40 21 56 41 22 55 40 21 53 40 21 55 40 21 55 40 21 56 41 22 55 40 21 54 41 22 
2 2 2 1 1 1 1 1 1 1 1 1 2 2 2 11 11 11 15 15 15 15 15 15 15 15 15 15 15 15 3 3 3 1 1 1 43 20 12 56 30 15 54 42 20 54 28 15 54 28 15 14 6 3 1 1 1 10 10 10 3 3 3 0 0 0 1 1 1 2 2 2 3 3 3 3 3 3 3 3 3 3 3 3 3 3 3 2 2 2 2 2 2 2 2 2 13 13 13 13 13 11 0 0 0 24 10 23 33 15 31 1 1 1 11 6 3 52 25 14 43 21 10 2 2 2 1 1 1 0 0 0 3 3 3 15 15 15 15 15 15 15 15 15 15 15 15 15 15 15 16 16 16 15 15 15 17 17 17 16 16 16 1 1 1 2 2 2 45 34 16 56 41 22 54 41 22 55 40 21 55 40 21 53 40 21 56 41 22 54 41 22 54 41 24 55 40 21 55 40 21 56 41 22 56 41 22 55 40 21 53 40 23 54 41 22 53 40 21 54 41 22 56 41 22 56 39 23 55 40 21 55 40 21 56 41 22 56 41 22 56 41 22 55 40 21 56 41 22 56 41 22 56 41 22 55 40 21 55 40 21 53 40 21 56 41 22 55 40 21 54 41 22 56 41 22 55 40 21 55 40 21 56 41 22 55 40 21 56 41 22 55 40 21 56 41 22 55 40 21 
4 4 2 14 11 6 5 4 2 2 0 1 3 3 3 9 9 9 15 15 15 15 15 15 15 15 15 14 14 14 2 2 2 8 4 3 49 26 12 54 37 17 54 43 21 54 26 14 50 23 12 4 2 3 7 2 6 35 18 34 3 3 3 0 0 0 3 3 3 2 2 2 3 3 3 3 3 3 3 3 3 4 4 4 3 3 3 2 2 2 3 1 2 2 2 2 34 34 34 26 26 26 0 0 0 14 7 15 16 14 17 2 2 2 6 5 1 50 27 13 55 27 13 35 16 10 30 13 6 9 3 3 1 1 1 14 14 14 14 14 14 4 2 3 15 13 14 16 16 16 15 15 15 16 14 15 15 15 15 15 15 15 2 2 2 1 1 1 47 34 18 56 41 20 54 41 24 55 40 21 53 40 23 55 40 21 55 40 21 54 41 22 57 40 20 55 40 21 56 41 22 56 41 22 54 41 24 54 39 20 53 40 23 53 40 23 54 38 22 55 39 23 54 41 22 55 39 23 57 42 23 57 42 23 55 40 21 55 40 21 55 40 21 55 40 21 56 41 22 56 41 22 55 40 21 56 41 22 55 40 21 57 42 23 56 41 22 56 41 22 56 41 22 55 40 21 57 42 23 55 40 21 56 41 22 55 40 21 56 41 22 55 40 21 55 40 21 55 40 21 
52 46 22 50 44 20 9 8 4 0 0 2 7 7 7 10 10 10 9 9 9 10 10 10 16 16 16 8 8 8 1 1 1 20 11 6 54 28 15 55 43 19 57 36 19 55 27 15 34 17 9 0 0 0 11 6 12 34 15 35 1 1 1 1 1 1 3 3 3 3 3 3 2 2 2 4 4 4 3 3 3 3 3 3 2 4 3 1 3 2 2 2 2 9 9 9 48 48 48 27 27 27 1 1 1 7 7 7 13 13 13 2 2 0 7 3 0 51 25 12 55 27 13 55 27 15 54 28 15 22 11 5 0 0 0 10 10 10 11 11 11 1 1 1 12 12 12 15 15 15 15 15 15 15 15 15 15 15 15 16 16 16 4 4 4 3 1 2 42 30 16 54 41 22 54 41 22 53 40 21 54 41 22 57 40 22 56 41 22 56 41 22 58 41 23 55 40 21 53 42 22 57 42 23 56 41 22 56 41 22 48 40 29 43 38 34 43 34 19 52 39 20 57 40 22 55 40 21 56 41 22 56 41 22 55 40 21 56 41 22 55 40 21 55 40 21 56 41 22 57 42 23 56 41 22 56 41 22 55 40 21 55 40 21 55 40 21 55 40 21 56 41 22 55 40 21 53 40 21 55 40 21 56 41 22 55 40 21 56 41 22 54 41 22 56 41 22 56 41 22 
53 48 19 26 22 11 1 1 0 2 2 2 8 8 8 9 9 9 5 5 5 3 3 3 15 15 15 5 5 5 1 1 1 38 20 10 53 27 14 55 48 22 56 30 15 54 28 15 24 10 7 0 0 2 7 5 6 11 11 11 1 1 1 1 1 1 2 2 2 2 2 2 2 2 2 3 3 3 3 3 3 1 1 1 2 2 2 3 1 2 2 2 2 24 24 24 53 53 53 37 37 37 1 1 1 6 5 10 37 20 36 8 3 7 1 1 1 43 21 10 55 28 17 56 33 15 55 29 16 24 10 7 1 1 1 7 7 7 13 13 13 2 2 2 12 12 12 16 16 16 16 16 16 15 15 15 15 15 15 16 14 15 2 2 2 2 2 2 48 35 19 56 41 22 56 41 22 53 40 23 55 42 23 53 40 21 53 40 21 55 40 21 53 40 23 54 41 24 54 41 22 55 40 21 55 40 21 48 40 29 49 49 47 18 18 18 10 9 5 55 40 21 54 41 22 55 40 21 56 41 22 55 40 21 57 42 23 55 40 21 57 42 23 57 42 23 55 40 21 56 41 22 55 40 21 54 41 22 55 40 21 55 40 21 54 41 22 55 40 21 55 40 21 55 40 21 54 41 22 56 41 22 54 39 20 56 41 22 55 40 21 54 41 22 56 41 22 55 40 21 
23 19 8 0 0 0 0 0 0 8 8 8 9 9 9 13 13 13 2 2 2 4 4 4 15 15 15 3 3 3 1 1 1 50 24 11 54 31 15 55 48 22 54 28 15 54 26 14 26 13 7 1 1 1 7 7 7 10 10 10 0 0 0 1 1 1 3 3 3 2 2 2 1 1 1 2 2 2 3 3 3 3 3 3 1 1 1 2 2 2 2 2 2 40 40 40 51 51 51 45 45 45 1 1 1 9 4 10 50 22 47 11 6 10 1 1 1 37 18 11 54 31 15 55 44 22 54 26 14 32 15 8 1 1 1 5 5 5 15 15 15 15 15 15 16 16 16 15 15 15 15 15 15 15 15 13 14 16 15 14 14 14 1 1 1 4 4 2 54 39 20 55 40 21 55 39 23 56 41 22 55 39 23 56 41 22 56 40 24 56 41 22 55 39 23 53 40 21 55 40 21 54 41 22 49 41 30 49 49 47 14 16 15 1 1 1 1 1 1 44 32 16 55 40 21 54 41 22 55 40 21 56 41 22 55 40 21 56 41 22 57 42 23 56 41 22 55 40 21 57 42 23 56 41 22 56 41 22 56 41 22 55 40 21 56 41 22 55 40 21 55 40 21 55 40 21 55 40 21 55 40 21 56 41 22 56 41 22 56 41 22 55 40 21 55 40 21 55 40 21 
1 1 1 1 1 1 6 6 6 10 8 9 12 12 12 14 14 14 1 1 1 7 7 7 15 15 15 2 2 2 5 3 4 53 25 13 54 32 18 53 45 22 54 28 15 55 27 15 27 12 7 0 0 0 12 10 11 10 8 13 0 0 0 2 2 2 1 1 1 1 1 1 1 1 1 2 2 2 2 2 2 2 2 2 2 2 2 1 1 1 7 5 6 49 49 49 53 53 53 43 43 43 0 0 0 4 4 4 17 15 18 5 5 5 1 1 1 35 18 8 56 29 18 54 47 19 55 29 16 40 20 11 2 0 1 2 2 2 14 16 15 15 15 15 15 15 15 15 15 15 16 16 16 15 13 16 10 10 8 8 8 8 1 1 1 3 3 1 50 39 21 55 39 23 55 40 21 56 41 22 55 40 21 54 41 24 56 41 22 55 39 23 53 40 21 54 41 24 54 41 22 47 41 29 52 51 49 15 15 15 1 1 0 1 1 1 0 0 0 30 22 11 54 41 22 56 40 24 56 41 22 56 41 22 55 40 21 55 40 21 56 41 22 55 40 21 55 40 21 55 40 21 56 41 22 55 40 21 55 40 21 56 41 22 56 41 22 56 41 22 56 41 22 57 42 23 56 41 22 56 41 22 56 41 22 55 40 21 56 41 22 56 41 22 56 41 22 55 40 21 
2 2 4 7 7 7 8 8 8 9 9 9 13 13 13 14 14 14 1 1 1 9 9 9 13 13 13 2 2 2 3 2 0 53 25 13 54 36 16 54 43 21 55 27 13 55 27 13 19 8 4 0 0 0 29 13 26 35 14 33 1 1 1 1 1 1 2 2 2 4 4 4 7 7 7 2 2 2 2 2 2 2 2 2 2 2 2 2 2 0 23 25 24 55 53 54 52 52 50 43 43 43 2 2 2 4 2 3 16 16 16 6 6 6 1 1 1 33 16 8 54 31 17 54 47 21 54 28 15 49 25 13 2 2 0 3 3 3 13 13 13 17 15 16 15 13 14 10 10 10 18 11 18 27 13 26 9 9 9 8 6 7 1 1 1 1 1 1 19 15 6 52 39 22 55 40 21 55 39 23 55 40 21 56 41 22 55 39 23 55 40 21 53 40 21 54 41 22 49 39 27 49 49 49 15 15 17 0 0 0 1 1 1 1 1 1 1 1 1 11 7 4 55 39 23 56 41 22 56 41 22 56 41 22 55 39 23 55 40 21 55 40 21 55 39 23 55 40 21 56 41 22 55 40 21 55 40 21 55 40 21 53 40 21 55 40 21 55 40 21 53 40 21 55 40 21 55 40 21 55 40 21 53 40 21 55 40 21 55 40 21 55 40 21 56 41 22 53 40 21 
9 9 9 9 9 9 9 9 9 9 9 9 10 10 10 9 9 9 1 1 3 6 6 6 11 11 11 1 1 1 7 3 0 41 21 10 44 26 12 42 35 17 44 22 11 44 22 11 11 6 3 1 1 1 16 11 17 13 8 12 1 1 1 2 2 2 2 2 2 19 19 19 50 50 50 27 27 27 6 6 6 2 2 2 3 3 3 21 21 21 48 48 48 53 53 53 53 53 53 45 45 45 2 2 2 4 4 4 45 19 44 17 7 16 3 1 4 33 15 15 51 29 15 52 41 19 53 25 14 39 19 10 0 0 0 1 1 1 9 7 8 29 13 26 22 10 20 9 9 9 18 8 16 25 11 24 5 5 5 2 2 2 1 1 1 1 1 1 1 1 1 27 20 10 55 40 21 53 40 21 58 41 23 54 41 22 53 40 21 53 40 21 54 41 24 49 39 29 51 50 48 16 16 16 1 1 3 1 1 1 2 2 2 0 0 0 1 1 1 2 1 0 45 33 17 56 39 21 55 40 21 56 41 22 55 40 21 55 40 21 56 41 22 55 40 21 55 40 21 56 41 22 56 41 22 56 41 22 56 41 22 55 40 21 56 41 22 56 41 22 55 40 21 56 41 22 56 41 22 55 40 21 55 40 21 55 40 21 55 40 21 56 41 22 56 41 22 56 41 22 
9 9 9 9 9 9 9 9 9 9 9 9 9 9 9 9 9 9 3 2 0 5 5 5 7 7 9 0 0 0 9 5 4 32 15 8 31 18 9 31 28 13 31 17 8 30 15 8 6 2 0 1 1 1 6 6 8 4 2 3 1 1 1 2 2 2 2 2 2 26 26 26 52 52 52 53 53 53 44 44 44 25 25 25 38 38 38 54 54 54 51 51 51 53 53 53 52 52 52 47 47 47 2 2 2 5 5 5 43 19 41 11 6 12 0 0 0 18 10 7 31 18 10 29 19 10 30 15 8 24 14 5 1 1 1 0 2 1 9 7 8 21 9 19 18 8 16 4 4 4 3 3 3 0 1 0 1 1 1 3 1 2 16 16 16 33 33 33 2 2 2 3 1 2 36 28 15 55 40 21 56 41 22 56 41 22 56 39 21 55 40 21 49 39 27 49 49 49 21 21 23 0 2 1 1 1 1 5 4 2 2 2 0 1 1 1 0 0 0 1 1 0 34 24 14 55 40 19 56 41 22 55 40 21 56 41 22 55 40 21 55 40 21 55 40 21 55 40 21 56 41 22 55 40 21 53 40 21 54 41 22 55 40 21 56 41 22 53 40 21 53 40 21 56 41 22 56 41 22 56 41 22 55 40 21 56 41 22 55 40 21 56 41 22 55 40 21 56 41 22 
9 9 9 9 9 9 9 9 9 9 9 9 9 9 9 9 9 9 7 9 8 9 9 11 7 7 7 1 1 1 3 2 0 31 17 8 31 16 9 30 27 12 30 17 8 28 15 9 6 2 1 2 0 1 12 7 11 6 4 7 0 0 0 2 2 2 2 2 2 43 43 43 52 52 52 54 54 54 51 51 51 53 53 53 53 53 53 53 53 53 53 53 53 54 54 54 54 54 54 43 43 43 1 1 1 3 3 3 14 16 15 6 6 4 1 1 0 18 11 5 30 15 8 29 14 7 23 12 6 10 6 3 0 0 0 2 2 2 1 1 0 1 1 1 1 1 1 1 1 1 3 1 2 3 5 4 22 22 22 38 38 38 53 53 53 52 52 52 25 25 25 0 0 0 7 6 4 42 32 20 55 40 21 54 39 20 53 40 23 49 39 29 50 49 47 21 23 22 1 1 1 1 1 0 4 2 3 35 25 15 9 5 2 1 1 1 1 1 1 1 1 1 20 15 9 57 40 22 54 39 20 56 41 22 55 40 21 56 41 22 55 40 21 56 41 22 55 40 21 55 40 21 56 41 22 55 40 21 55 40 21 55 40 21 55 40 21 56 41 22 55 40 21 55 40 21 55 40 21 56 41 22 57 42 23 56 41 22 56 41 22 55 40 21 55 40 21 55 40 21 
9 9 11 9 9 9 9 9 9 9 9 9 9 9 9 9 9 9 9 9 9 8 8 8 9 9 9 2 2 2 1 1 1 29 14 7 30 15 8 31 25 13 30 20 10 28 13 6 4 3 1 1 1 1 22 10 20 17 7 16 0 0 0 1 1 1 16 16 16 51 51 51 54 54 54 54 54 54 53 53 53 52 52 52 53 53 53 52 52 52 53 53 53 53 53 53 52 52 52 48 48 48 2 2 2 3 3 3 12 12 12 6 6 8 1 1 1 6 2 1 8 4 3 4 3 1 1 1 1 0 2 1 1 1 0 2 2 2 3 3 3 8 8 8 14 14 14 30 30 30 40 38 39 46 46 46 52 52 52 52 54 53 52 52 52 54 54 54 52 50 51 19 19 19 0 0 0 10 6 3 51 38 21 55 40 21 50 40 30 49 49 49 19 21 20 1 1 1 0 0 0 2 2 2 28 21 11 50 37 20 15 12 7 2 0 1 3 1 2 25 18 10 47 34 18 55 40 21 55 40 21 55 40 21 56 41 22 55 40 21 56 41 22 55 40 21 56 41 22 56 41 22 55 40 21 54 39 20 57 42 23 55 40 21 55 40 21 56 41 22 55 40 21 56 41 22 55 40 21 55 39 23 55 40 21 55 40 21 55 39 23 55 39 23 55 40 21 56 40 24 
9 9 9 9 9 9 9 9 9 10 10 10 9 9 7 10 8 9 9 9 9 10 8 9 9 9 9 2 2 2 2 2 4 25 11 8 30 16 7 30 22 11 32 24 11 30 15 8 7 3 2 0 0 0 14 9 13 6 6 6 0 0 0 5 5 5 44 44 44 52 52 52 52 52 52 53 53 53 52 52 52 51 51 51 48 48 48 42 42 42 37 37 37 38 38 38 29 29 29 19 19 19 2 2 2 0 0 0 1 1 1 0 2 1 1 1 1 0 0 0 2 2 2 4 4 4 11 11 11 22 22 22 31 29 30 36 38 37 46 46 46 52 52 52 52 52 52 52 52 52 53 53 53 53 53 53 53 53 53 54 54 54 53 53 53 53 53 53 53 53 53 46 46 46 7 7 7 1 1 1 32 23 14 49 40 25 49 48 46 21 20 25 2 2 2 0 0 0 2 2 2 36 27 12 51 38 19 56 41 22 44 32 18 19 15 6 33 25 14 52 39 20 55 39 23 53 40 21 56 41 22 55 40 21 56 41 22 55 40 21 55 40 21 56 41 22 56 41 22 55 40 21 56 41 22 56 41 22 55 40 21 56 41 22 56 41 22 56 41 22 56 41 22 57 42 23 56 41 22 56 40 24 56 41 22 55 40 21 54 38 22 56 40 24 56 41 22 56 40 24 
13 8 12 8 8 8 9 9 9 17 10 18 24 12 22 9 9 9 11 9 12 29 12 28 16 9 16 6 4 5 1 1 1 9 5 2 29 14 7 30 17 8 29 21 10 28 15 7 5 4 2 1 1 1 6 8 7 5 5 3 0 0 0 13 13 13 37 37 37 40 40 40 25 25 25 26 26 26 17 17 17 10 10 10 4 4 4 2 2 2 0 0 0 2 2 2 0 0 0 0 0 0 1 1 1 2 2 2 3 3 3 8 7 5 16 16 16 28 28 28 45 43 44 48 48 48 50 50 48 54 54 54 53 53 53 52 52 52 53 53 53 53 53 51 51 51 51 54 54 54 53 53 53 52 52 52 52 52 52 53 53 53 53 53 53 53 53 53 53 53 53 53 55 54 36 36 36 3 3 1 10 10 10 48 47 45 24 24 24 1 1 1 0 0 0 3 3 1 17 12 6 53 37 21 56 40 24 53 40 21 55 40 21 54 39 20 56 41 20 54 41 22 54 41 22 56 40 24 56 41 22 56 41 22 56 41 22 56 41 22 55 40 21 55 40 21 55 40 21 55 40 21 55 40 21 55 40 21 55 40 21 55 40 21 55 40 21 55 40 21 55 40 21 55 40 21 56 41 22 55 40 21 56 41 22 55 40 21 55 40 21 55 40 21 55 40 21 54 39 20 
20 10 19 7 7 9 9 9 9 19 9 18 23 9 22 7 7 9 7 7 9 20 8 18 12 7 11 5 7 6 2 0 1 1 1 1 8 4 1 11 6 3 8 2 2 5 6 1 1 1 1 1 1 1 3 3 3 2 2 2 2 2 2 1 1 1 1 1 1 2 2 2 0 0 0 0 0 0 1 1 1 1 1 1 2 2 2 5 5 5 11 11 11 15 15 15 21 21 21 23 23 23 32 32 32 39 39 39 45 45 45 47 47 47 52 52 52 52 52 52 52 52 52 53 53 53 52 52 54 53 53 53 55 53 54 52 52 52 53 53 53 52 52 52 51 51 51 52 54 51 53 53 53 52 52 54 54 54 54 54 54 54 54 54 54 52 52 52 48 48 48 49 49 49 48 48 48 31 31 31 48 48 48 30 28 29 1 1 1 1 1 1 2 0 1 19 14 8 50 37 20 56 41 22 56 40 24 56 41 22 55 43 21 56 40 24 56 40 24 53 40 21 53 40 21 55 39 23 56 41 22 56 41 22 55 40 21 55 40 21 55 40 21 55 40 21 55 40 21 55 40 21 53 40 21 55 40 21 55 40 21 53 40 21 52 39 20 55 40 21 55 40 21 53 40 21 55 40 21 55 40 21 55 40 21 54 39 20 55 40 21 55 40 21 56 41 22 55 40 21 
3 1 2 0 2 1 1 1 1 2 2 2 1 1 3 3 1 2 1 1 1 0 0 0 1 1 1 0 2 1 0 0 0 0 2 1 0 2 1 1 1 1 1 1 1 4 2 3 4 4 4 4 4 4 3 3 3 8 8 8 7 7 7 18 18 18 17 17 17 20 20 20 32 32 32 37 37 37 38 38 38 39 39 39 45 45 45 49 49 49 52 52 52 52 52 52 53 53 53 52 52 52 53 53 53 52 52 52 53 53 53 54 54 54 53 53 53 53 53 53 55 55 55 51 51 51 54 54 54 52 52 52 53 51 52 51 53 52 53 53 53 53 53 53 51 51 53 48 48 48 48 48 48 50 50 50 49 49 49 50 50 50 51 51 51 50 50 50 47 47 47 44 44 44 44 44 44 47 47 47 31 33 30 2 2 2 0 0 0 1 1 0 8 7 2 50 37 20 54 41 24 55 40 21 56 41 22 55 40 21 57 40 22 55 39 23 56 41 22 55 40 21 56 41 22 55 40 21 55 40 21 55 40 21 55 40 21 55 40 21 56 41 22 55 40 21 55 40 21 55 40 21 56 41 22 55 40 21 56 41 22 56 41 22 55 40 21 56 41 22 55 40 21 55 40 21 55 40 21 56 41 22 55 40 21 55 40 21 56 41 22 55 40 21 56 41 22 55 40 21 
8 8 8 11 11 11 5 5 5 7 7 7 12 12 12 13 13 13 18 18 18 18 18 18 21 21 21 21 21 21 32 32 32 28 28 28 36 36 36 39 39 39 44 44 44 47 47 47 52 52 52 51 51 51 49 49 49 51 51 51 50 50 50 52 52 52 52 52 52 54 54 54 53 53 53 53 53 53 55 55 55 53 53 53 54 54 56 52 52 52 54 54 54 53 53 53 52 52 52 53 53 53 53 53 53 52 52 52 54 54 54 52 52 52 53 53 53 52 52 52 52 52 54 50 50 50 51 51 51 48 48 48 48 48 48 47 47 47 49 49 49 50 50 50 52 52 52 51 51 51 46 46 46 36 36 36 27 27 27 21 21 21 13 13 13 5 5 5 2 2 2 1 1 1 1 1 1 5 5 5 1 1 1 0 0 0 2 2 2 9 8 4 39 30 15 55 39 23 56 41 22 53 40 21 55 40 21 55 40 21 53 40 21 54 39 20 56 41 22 53 40 21 55 40 21 54 39 20 55 40 21 55 40 21 55 40 21 56 41 22 55 40 21 56 41 22 55 40 21 55 40 21 55 40 21 54 41 22 55 40 21 55 40 21 55 40 21 56 41 22 55 40 21 55 40 21 56 41 22 53 40 21 53 40 21 53 40 21 56 41 22 55 40 21 56 41 22 53 40 21 
52 52 52 52 52 52 49 49 49 53 53 53 52 52 52 53 53 53 53 53 53 53 53 53 53 53 53 54 54 54 53 53 53 53 53 53 53 53 53 52 52 52 53 53 53 53 53 53 53 53 53 52 52 52 52 52 52 53 53 53 53 53 53 53 53 53 52 52 52 53 53 53 52 52 52 54 54 54 53 53 53 53 53 53 51 51 51 52 52 52 53 53 53 53 53 53 52 52 52 53 53 53 51 51 51 50 50 50 48 48 48 49 49 49 49 49 49 49 49 49 49 49 49 50 50 50 52 52 52 48 48 48 39 39 39 33 33 33 24 24 24 15 15 15 7 7 7 4 4 4 2 2 2 1 1 1 1 1 1 0 0 0 1 1 1 1 1 1 0 0 0 1 1 1 1 1 1 0 0 0 1 1 0 1 1 1 1 1 1 21 16 10 55 39 23 55 40 21 53 40 21 55 40 21 55 40 21 53 40 21 56 41 22 55 40 21 55 40 21 55 40 21 53 40 21 55 40 21 56 41 22 55 40 21 55 40 21 55 40 21 56 41 22 55 40 21 55 40 21 56 41 22 55 40 21 54 41 22 55 40 21 55 40 21 53 40 21 55 40 21 55 40 21 53 40 21 54 41 22 55 40 21 56 41 22 55 40 21 53 40 21 54 41 22 53 40 21 56 41 22 
52 52 52 53 53 53 55 55 55 53 53 53 52 52 52 51 51 51 54 54 54 53 53 53 53 53 53 53 53 53 52 52 52 53 53 53 51 51 51 52 52 52 53 53 53 52 52 52 53 53 53 52 52 52 53 53 53 52 52 52 54 54 54 53 53 53 52 52 52 53 53 53 53 53 53 53 53 53 53 53 53 53 53 53 50 50 50 49 49 49 48 48 48 49 49 49 51 51 51 50 50 50 49 49 49 51 51 51 50 50 50 44 44 44 36 36 38 28 28 28 19 19 19 13 13 13 5 5 5 3 1 2 0 0 0 1 1 1 1 1 1 1 1 1 1 1 1 1 1 1 1 1 1 0 0 0 0 0 0 1 1 1 1 1 1 1 1 1 1 1 1 1 1 1 1 1 1 0 0 0 1 1 0 0 0 0 2 2 2 5 3 4 55 38 20 54 41 22 53 40 21 56 39 21 52 39 20 55 40 21 53 40 21 55 40 21 54 39 20 53 40 21 55 40 21 53 40 21 55 40 21 55 40 21 54 39 20 55 40 21 55 40 21 56 41 22 55 40 21 55 40 21 55 40 21 53 40 21 53 40 21 55 40 21 53 40 21 53 40 21 56 41 22 53 40 21 56 41 22 54 41 22 52 39 20 53 40 21 55 40 21 55 40 21 55 40 21 54 41 22 
54 54 54 54 54 54 52 52 52 54 54 54 52 52 52 53 53 53 52 52 52 53 53 53 53 53 53 53 53 53 52 52 52 54 54 54 53 53 53 53 53 53 51 51 51 53 53 53 52 52 52 53 53 53 51 51 51 53 53 53 52 52 52 51 51 51 49 49 49 50 50 50 47 47 47 49 49 49 48 48 48 50 50 50 51 51 51 51 51 51 48 48 48 38 38 38 32 32 32 26 26 26 16 16 16 8 8 8 3 3 3 0 0 0 1 1 1 2 2 2 5 6 1 8 9 4 8 7 3 5 4 2 1 1 0 0 0 0 1 1 1 0 0 0 1 1 1 1 1 1 1 1 1 1 1 1 1 1 1 1 1 1 1 1 1 1 1 1 2 2 2 1 1 1 2 2 2 1 1 1 1 1 1 2 2 2 2 2 2 1 1 1 42 30 16 53 40 21 53 40 21 55 40 21 53 40 21 53 40 21 55 40 21 53 40 21 53 40 21 54 39 20 53 40 21 53 40 21 55 40 21 55 40 21 55 40 21 55 40 21 54 39 20 55 40 21 55 40 21 55 40 21 53 40 21 53 40 21 53 40 21 53 40 21 53 40 21 53 40 21 55 40 21 53 40 21 54 41 22 55 40 21 55 40 21 55 40 21 53 40 21 53 40 21 54 41 22 55 40 21 
52 52 52 53 53 53 53 53 53 52 52 52 54 54 54 54 54 54 52 52 52 52 52 52 53 53 53 54 54 54 53 53 53 53 53 53 53 53 53 51 51 51 51 51 51 49 49 49 50 50 50 51 51 51 51 51 51 51 51 51 49 49 49 49 49 49 48 48 48 43 43 43 36 36 36 29 29 29 22 22 22 17 17 17 10 10 10 5 5 5 2 2 2 1 1 1 1 1 1 1 1 1 0 0 0 1 1 1 1 1 1 1 1 1 2 2 0 8 9 3 16 16 8 22 22 14 18 18 10 11 10 5 3 3 1 1 1 1 1 1 1 1 1 1 1 1 1 1 1 1 1 1 1 0 0 0 0 0 0 1 1 1 1 1 1 1 1 1 0 0 0 1 1 1 1 1 1 0 0 0 0 0 0 3 3 3 1 1 1 1 1 1 32 24 13 53 40 21 55 40 21 55 40 21 53 40 21 55 40 21 53 40 21 52 39 20 53 40 21 54 41 22 55 40 21 53 40 21 53 40 21 53 40 21 53 40 21 53 40 21 54 41 22 53 40 21 52 39 20 52 39 20 53 40 21 53 40 21 53 40 21 52 39 20 53 40 21 53 40 21 54 39 20 53 40 21 53 40 21 54 39 20 55 40 21 53 38 19 53 40 21 53 40 21 53 40 21 55 40 21 
54 54 54 52 52 52 53 53 53 52 52 52 53 53 53 53 53 53 53 53 53 51 51 51 51 51 51 49 49 49 48 48 48 48 48 48 50 50 50 51 51 51 49 49 49 49 49 49 45 45 45 41 41 41 33 33 33 23 23 23 16 16 16 8 8 8 4 4 4 2 2 2 2 2 2 0 0 0 0 0 0 2 2 2 1 1 1 0 0 0 1 1 1 1 1 1 0 0 0 0 0 0 1 1 1 1 1 1 4 4 4 8 8 6 13 13 5 19 19 11 29 29 19 46 45 41 33 33 25 18 18 10 6 6 4 1 1 1 2 2 2 1 1 1 1 1 1 1 1 1 0 0 0 1 1 1 1 1 1 1 1 1 1 1 1 1 1 1 1 1 1 0 0 0 0 0 0 0 0 0 1 1 1 3 3 3 3 3 3 1 3 2 19 14 8 52 39 22 56 41 22 55 40 21 53 40 21 53 40 21 54 39 20 52 39 20 53 40 21 55 40 21 52 39 20 53 40 21 53 40 21 53 40 21 53 40 21 52 39 20 53 40 21 53 40 21 53 40 21 53 40 21 55 40 21 53 40 21 53 40 21 55 40 21 54 41 22 52 39 20 56 41 22 53 40 21 55 40 21 53 40 21 53 40 21 53 40 21 55 40 21 54 39 20 55 40 21 53 40 21 
51 51 51 50 50 50 49 49 49 48 48 48 47 47 47 48 48 48 50 50 50 51 51 51 50 50 50 47 47 47 42 42 42 35 35 35 26 26 26 18 18 18 11 11 11 5 5 5 2 2 2 2 2 2 1 1 1 1 1 1 1 1 1 0 0 0 1 1 1 1 1 1 1 1 1 0 0 0 1 1 1 0 0 0 2 2 2 3 3 3 7 7 7 9 9 9 21 21 21 23 23 23 14 14 12 3 3 1 11 12 6 20 21 13 27 27 17 34 34 24 41 41 33 54 53 51 34 34 24 19 19 9 5 6 1 1 1 1 1 1 1 0 0 0 1 1 1 1 1 1 2 2 2 1 1 1 2 2 2 1 1 1 1 1 1 2 2 2 0 0 0 0 0 0 1 1 1 1 1 1 1 1 1 3 3 1 3 3 5 2 2 0 6 5 3 52 39 20 53 40 21 53 40 21 52 39 20 53 40 21 56 41 22 53 40 21 53 40 21 54 39 20 53 40 21 53 40 21 53 40 23 52 39 22 53 40 23 52 39 22 53 40 23 53 40 23 54 41 24 52 39 22 55 40 21 52 39 20 55 40 21 55 40 21 53 40 21 54 39 20 55 40 21 52 39 20 52 39 20 55 40 21 55 40 21 54 39 20 52 39 20 53 40 21 53 40 21 56 41 22 
49 49 49 51 51 51 48 48 48 44 44 44 37 37 37 28 28 28 22 22 22 14 14 14 9 9 9 4 4 4 2 2 2 0 0 0 1 1 1 1 1 1 1 1 1 0 0 0 1 1 1 1 1 1 0 0 0 1 1 1 1 1 1 1 1 1 2 2 2 2 2 2 6 6 6 14 14 14 22 22 22 29 29 29 36 36 36 40 40 40 48 48 48 50 50 50 52 52 52 49 49 49 51 51 49 10 10 8 21 21 13 34 36 25 46 47 42 49 50 45 51 51 51 51 50 48 32 32 20 17 17 9 4 5 0 1 1 1 0 0 0 1 1 1 1 1 1 1 1 1 1 1 1 0 0 0 1 1 1 1 1 1 1 1 1 1 1 1 0 0 0 0 0 0 1 1 1 0 0 0 0 0 0 2 2 0 1 3 2 2 2 2 3 1 2 49 38 20 55 40 21 52 39 20 53 40 21 52 39 20 53 40 21 52 39 20 53 40 21 53 40 21 53 40 21 52 39 20 53 40 21 54 41 22 53 40 21 53 40 21 53 40 21 53 40 21 53 40 21 53 40 21 55 40 21 53 40 21 55 40 21 55 40 21 55 40 21 55 40 21 55 40 21 55 40 21 56 41 22 53 40 21 53 40 21 53 40 21 54 39 20 55 40 21 55 40 21 53 40 21 
