P3
100 50
255
52 77 84 51 76 83 52 75 83 51 76 83 52 75 83 51 76 83 52 77 84 51 76 83 53 76 84 53 76 84 52 75 83 52 75 83 52 75 83 52 75 83 53 76 84 53 76 84 53 76 84 52 77 84 53 76 84 51 76 83 53 76 84 52 77 84 51 74 82 52 77 84 52 75 83 52 77 84 52 75 83 52 77 84 52 75 83 51 76 83 52 75 83 51 76 83 53 76 82 53 76 82 51 76 81 51 76 81 52 77 82 52 77 82 52 75 81 52 75 81 53 76 84 52 75 83 53 76 84 51 74 82 52 75 83 52 75 83 53 76 84 53 76 84 52 75 83 53 76 84 53 76 84 53 76 84 52 75 83 53 76 84 52 75 83 52 75 83 52 75 83 53 76 84 52 75 83 53 76 84 53 76 84 53 76 84 52 75 83 52 75 83 52 77 84 52 75 83 53 76 84 51 76 83 51 76 83 51 76 83 51 76 83 53 76 84 52 75 83 53 76 84 52 75 83 54 77 85 52 75 83 53 76 84 52 75 83 53 76 84 51 76 83 53 78 85 52 75 83 52 77 84 52 77 84 52 75 83 52 77 84 52 77 84 51 76 81 52 75 81 53 76 82 52 75 83 10 14 15 0 0 2 37 30 24 54 41 33 33 23 21 9 5 4 12 8 7 29 21 18 
52 77 84 51 76 83 52 75 83 52 77 84 51 74 82 52 77 84 52 77 84 52 77 84 52 75 83 52 75 83 52 75 83 52 75 83 52 75 83 52 75 83 52 75 83 52 75 83 51 76 83 53 76 84 50 75 82 52 75 83 53 78 85 52 75 83 51 76 83 52 75 83 52 75 83 52 77 84 51 74 82 52 77 84 52 75 83 52 77 84 53 76 84 52 77 84 50 75 80 52 77 82 52 75 81 51 74 80 52 75 81 52 75 81 51 76 81 52 77 82 53 76 84 52 75 83 53 76 84 52 75 83 53 76 84 53 76 84 52 75 83 52 75 83 52 75 83 53 76 84 52 75 83 53 76 84 52 75 83 52 75 83 52 75 83 53 76 84 52 75 83 54 77 85 52 75 83 53 76 84 52 75 83 52 75 83 51 74 82 52 75 83 52 77 84 52 77 84 52 77 84 52 77 84 52 77 84 52 77 84 52 77 84 51 76 83 52 75 83 53 76 84 52 75 83 53 76 84 52 75 83 53 76 84 52 75 83 52 75 83 52 75 83 52 77 84 51 74 82 51 76 83 52 77 84 52 75 83 51 76 83 52 75 83 51 76 83 52 75 83 52 75 81 52 77 84 13 17 18 1 1 1 41 30 26 19 14 10 2 2 2 1 1 3 0 0 0 3 3 3 
53 76 84 52 75 83 53 76 84 53 76 84 52 75 83 53 76 84 52 75 83 54 77 85 52 75 83 52 75 83 52 75 83 53 76 84 53 76 84 52 75 83 53 76 84 53 76 84 53 76 84 53 76 84 52 75 83 52 75 83 53 76 84 53 76 84 53 76 84 52 75 83 52 75 83 52 75 83 52 75 83 53 76 84 52 75 83 52 75 83 52 75 83 52 75 83 53 76 84 53 76 84 52 75 83 53 76 84 51 74 82 52 75 83 52 75 83 53 76 84 52 75 83 52 75 83 52 75 83 52 75 83 52 75 83 51 74 82 51 74 82 52 75 83 52 75 83 52 75 83 52 75 83 52 75 83 52 75 83 53 76 84 52 75 83 52 75 83 52 75 83 52 75 83 52 75 83 51 74 82 52 75 83 54 77 85 52 75 83 53 76 84 50 75 82 53 76 84 51 76 83 51 76 83 51 74 82 53 76 84 51 76 83 53 76 84 53 76 84 53 76 84 53 76 84 53 76 84 52 75 83 52 75 83 52 75 83 52 75 83 52 75 83 53 76 84 52 75 83 52 75 83 53 76 84 53 76 84 53 76 84 53 76 84 51 76 83 52 77 84 52 75 83 47 70 76 5 7 6 2 0 1 26 21 18 1 1 1 1 3 2 1 1 1 3 2 0 25 20 17 
53 76 84 52 75 83 52 75 83 53 76 84 53 76 84 52 75 83 53 76 84 52 75 83 52 75 83 53 76 84 53 76 84 52 75 83 52 75 83 53 76 84 53 76 84 52 75 83 53 76 84 52 75 83 53 76 84 52 75 83 53 76 84 52 75 83 53 76 84 53 76 84 52 75 83 52 75 83 53 76 84 52 75 83 52 75 83 53 76 84 53 76 84 51 74 82 53 76 84 53 76 84 53 76 84 52 75 83 53 76 84 52 75 83 53 76 84 53 76 84 52 75 83 52 75 83 53 76 84 52 75 83 53 76 84 53 76 84 52 75 83 53 76 84 52 75 83 53 76 84 53 76 84 52 75 83 52 75 83 52 75 83 53 76 84 53 76 84 52 75 83 53 76 84 54 77 85 52 75 83 52 75 83 52 75 83 52 75 83 53 76 84 52 75 83 52 77 84 52 75 83 52 75 83 52 77 84 51 76 83 52 75 83 50 75 82 53 76 84 52 75 83 53 76 84 52 75 83 51 74 82 51 74 82 52 75 83 53 76 84 52 75 83 52 75 83 53 76 84 53 76 84 51 74 82 52 75 83 52 75 83 53 76 84 53 76 82 52 77 82 52 77 82 43 60 67 1 1 1 2 0 1 3 3 1 0 2 1 1 1 1 5 5 5 26 21 17 51 42 33 
51 74 82 52 75 83 52 75 83 52 75 83 52 75 83 52 75 83 52 75 83 53 76 84 51 74 82 52 75 83 52 75 83 53 76 84 51 74 82 52 75 83 52 75 83 52 75 83 53 76 84 52 75 83 53 76 84 53 76 84 52 75 83 52 75 83 52 75 83 53 76 84 52 75 83 52 75 83 53 76 84 52 75 83 53 76 84 52 75 83 52 75 83 53 76 84 53 76 84 53 76 84 52 75 83 52 75 83 53 76 84 53 76 84 53 76 84 52 75 83 52 75 83 52 75 83 52 75 83 53 76 84 53 76 84 54 77 85 53 76 84 53 76 84 53 76 84 52 75 83 53 76 84 52 75 83 53 76 84 53 76 84 52 75 83 52 75 83 53 76 84 52 75 83 52 75 83 53 76 84 51 74 82 52 75 83 51 74 82 52 75 83 52 77 84 53 76 84 51 76 83 51 76 83 52 75 83 53 76 84 52 77 84 52 75 83 52 75 83 53 76 84 52 75 83 52 75 83 53 76 84 52 75 83 52 75 83 53 76 84 52 75 83 53 76 84 52 75 83 52 75 83 52 75 83 53 76 84 54 77 85 53 76 84 49 74 81 51 74 82 51 76 83 47 67 74 2 3 5 1 1 1 0 0 2 0 0 0 10 9 5 43 32 26 57 44 36 57 44 35 
53 76 84 51 74 82 53 76 84 52 75 83 51 74 82 52 75 83 53 76 84 52 75 83 53 76 84 52 75 83 52 75 83 53 76 84 53 76 84 53 76 84 52 75 83 53 76 84 52 75 83 53 76 84 53 76 84 51 74 82 54 77 85 51 74 82 53 76 84 52 75 83 52 75 83 52 75 83 53 76 84 53 76 84 52 75 83 52 75 83 51 74 82 52 75 83 52 75 83 52 75 83 53 76 84 52 75 83 52 75 83 53 76 84 52 75 83 53 76 84 52 75 83 52 75 83 52 75 83 53 76 84 52 75 83 52 75 83 53 76 84 52 75 83 54 77 85 51 74 82 52 75 83 53 76 84 53 76 84 52 75 83 52 75 83 52 75 83 52 75 83 52 75 83 52 75 83 52 75 83 52 75 83 53 76 84 52 75 83 52 75 83 51 74 82 51 76 83 52 75 83 52 75 83 50 75 82 51 76 83 52 75 83 52 77 84 53 76 84 53 76 84 52 75 83 52 75 83 52 75 83 53 76 84 52 75 83 53 76 84 53 76 84 52 75 83 52 75 83 52 75 83 52 75 83 53 76 84 52 75 83 52 75 83 50 75 82 52 75 81 51 76 81 39 56 64 0 0 0 0 0 0 0 0 0 5 5 3 42 33 26 54 39 32 55 44 38 55 40 33 
53 76 84 52 75 83 52 75 83 53 76 84 52 75 83 52 75 83 52 75 83 53 76 84 52 75 83 52 75 83 51 74 82 53 76 84 52 75 83 52 75 83 53 76 84 52 75 83 53 76 84 52 75 83 53 76 84 51 74 82 52 75 83 53 76 84 52 75 83 51 74 82 53 76 84 52 75 83 53 76 84 53 76 84 51 74 82 52 75 83 52 75 83 52 75 83 52 75 83 53 76 84 52 75 83 53 76 84 52 75 83 52 75 83 52 75 83 53 76 84 52 75 83 51 74 82 52 75 83 52 75 83 52 75 83 51 74 82 51 74 82 52 75 83 53 76 84 52 75 83 53 76 84 53 76 84 52 75 83 52 75 83 53 76 84 53 76 84 52 75 83 52 75 83 53 76 84 52 75 83 52 75 83 52 75 83 54 77 85 52 75 83 51 76 83 52 75 83 52 77 84 52 77 84 52 75 83 52 75 83 53 78 85 51 74 82 53 76 84 51 74 82 52 75 83 53 76 84 52 75 83 53 76 84 53 76 84 51 74 82 52 75 83 52 75 83 53 76 84 53 76 84 52 75 83 53 76 84 53 76 84 53 76 84 52 77 84 52 77 84 52 75 83 32 47 52 1 1 1 6 4 5 13 9 8 38 29 24 56 43 37 55 42 36 56 43 35 54 41 33 
53 76 84 52 75 83 51 74 82 52 75 83 53 76 84 53 76 84 53 76 84 53 76 84 52 75 83 52 75 83 53 76 84 52 75 83 52 75 83 52 75 83 53 76 84 52 75 83 51 74 82 52 75 83 53 76 84 50 73 81 53 76 84 51 74 82 53 76 84 52 75 83 52 75 83 52 75 83 54 77 85 53 76 84 51 74 82 52 75 83 53 76 84 52 75 83 52 75 83 52 75 83 52 75 83 51 74 82 53 76 84 52 75 83 52 75 83 53 76 84 53 76 84 52 75 83 52 75 83 53 76 84 52 75 83 53 76 84 52 75 83 53 76 84 52 75 83 52 75 83 52 75 83 51 74 82 52 75 83 53 76 84 52 75 83 52 75 83 52 75 83 51 74 82 52 75 83 53 76 84 51 74 82 52 75 83 52 75 83 51 74 82 52 75 83 51 76 83 51 74 82 52 75 83 52 77 84 52 77 84 53 76 84 52 77 84 51 74 82 52 75 83 52 75 83 52 75 83 54 77 85 52 75 83 53 76 84 53 76 84 53 76 84 52 75 83 53 76 84 51 74 82 51 74 82 53 76 84 52 75 83 52 75 83 52 77 84 52 75 81 53 76 84 30 43 49 1 1 1 23 18 15 52 41 35 52 37 30 56 43 35 53 43 34 52 39 30 54 39 32 
53 76 84 53 76 84 52 75 83 52 75 83 52 75 83 53 76 84 52 75 83 53 76 84 52 75 83 52 75 83 51 74 82 51 74 82 52 75 83 52 75 83 52 75 83 52 75 83 52 75 83 52 75 83 53 76 84 53 76 84 51 74 82 52 75 83 53 76 84 53 76 84 53 76 84 52 75 83 53 76 84 52 75 83 53 76 84 52 75 83 53 76 84 52 75 83 52 75 83 53 76 84 52 75 83 52 75 83 52 75 83 52 75 83 51 74 82 52 75 83 52 75 83 52 75 83 51 74 82 53 76 84 52 75 83 53 76 84 52 75 83 52 75 83 52 75 83 53 76 84 53 76 84 52 75 83 53 76 84 53 76 84 53 76 84 52 75 83 52 75 83 52 75 83 53 76 84 51 74 82 53 76 84 53 76 84 53 76 84 52 75 83 52 77 84 51 74 82 51 76 83 51 76 83 51 74 82 51 74 82 52 77 84 52 75 83 53 76 84 52 75 83 52 75 83 53 76 84 53 76 84 52 75 83 53 76 84 53 76 84 51 74 82 53 76 84 51 74 82 53 76 84 52 75 83 50 73 81 53 76 84 52 75 83 51 76 83 51 76 83 51 74 82 36 53 60 1 1 1 24 20 17 49 36 30 20 16 13 49 36 30 56 43 37 55 42 34 53 38 31 
52 75 83 52 75 83 52 75 83 53 76 84 52 75 83 53 76 84 52 75 83 53 76 84 53 76 84 51 74 82 52 75 83 52 75 83 52 75 83 52 75 83 53 76 84 53 76 84 52 75 83 53 76 84 52 75 83 52 75 83 52 75 83 53 76 84 53 76 84 53 76 84 53 76 84 52 75 83 53 76 84 52 75 83 52 75 83 51 74 82 53 76 84 51 74 82 53 76 84 52 75 83 53 76 84 52 75 83 53 76 84 52 75 83 54 77 85 51 74 82 51 74 82 53 76 84 52 75 83 53 76 84 53 76 84 52 75 83 53 76 84 52 75 83 54 77 85 52 75 83 53 76 84 52 75 83 53 76 84 52 75 83 52 75 83 52 75 83 51 74 82 53 76 84 52 75 83 52 75 83 52 75 83 52 75 83 51 74 82 52 75 83 51 74 82 51 76 83 52 75 83 52 75 83 51 76 83 50 75 82 52 75 83 50 75 82 53 76 84 52 75 83 51 74 82 53 76 84 53 76 84 52 75 83 52 75 83 53 76 84 53 76 84 52 75 83 53 76 84 53 76 84 51 74 82 53 76 84 53 76 84 52 75 83 50 75 82 51 76 83 51 76 83 30 41 47 1 1 3 21 16 13 42 33 28 2 2 2 40 29 27 55 42 34 54 41 33 51 38 30 
51 76 83 51 76 83 50 75 82 51 76 83 51 76 83 50 75 82 51 76 83 52 77 84 51 76 83 51 76 83 51 76 83 50 75 82 51 76 83 51 76 83 50 75 82 52 77 84 51 76 83 50 75 82 53 78 85 52 77 84 51 76 83 51 76 83 50 75 82 52 77 84 53 76 84 53 76 84 51 74 82 53 76 84 52 75 83 52 75 83 52 75 83 53 76 84 50 75 82 52 77 84 51 76 83 49 74 81 50 75 82 52 77 84 50 75 82 51 76 83 52 77 84 51 76 83 51 76 83 52 77 84 52 77 84 52 77 84 52 77 84 51 76 83 53 76 84 53 76 84 53 76 84 53 76 84 51 74 82 52 75 83 52 75 83 52 75 83 53 76 84 53 76 84 52 75 83 53 76 84 53 76 84 52 75 83 53 76 84 53 76 84 53 76 84 52 75 83 52 75 83 51 74 82 53 76 84 53 76 84 52 75 83 51 74 82 52 77 84 50 75 82 51 76 83 52 77 84 51 76 83 52 77 84 51 76 83 51 76 83 53 76 84 52 75 83 52 75 83 52 75 83 53 76 84 52 75 83 52 75 83 52 75 83 51 76 83 53 76 82 54 77 83 23 34 36 0 0 0 21 17 14 39 30 25 2 2 4 44 35 28 54 43 37 56 43 35 56 43 37 
51 76 83 51 76 83 50 75 82 51 76 83 52 77 84 50 75 82 50 75 82 52 77 84 50 75 82 52 77 84 52 77 84 52 77 84 51 76 83 50 75 82 51 76 83 52 77 84 51 76 83 51 76 83 52 77 84 52 77 84 51 76 83 51 76 83 51 76 83 52 77 84 52 75 83 53 76 84 52 75 83 51 74 82 52 75 83 52 75 83 53 76 84 52 75 83 51 76 83 51 76 83 52 77 84 51 76 83 50 75 82 51 76 83 51 76 83 51 76 83 52 77 84 51 76 83 51 76 83 52 77 84 52 77 84 52 77 84 50 75 82 52 77 84 51 74 82 52 75 83 52 75 83 52 75 83 52 75 83 53 76 84 52 75 83 53 76 84 51 74 82 51 74 82 51 74 82 51 74 82 51 74 82 51 74 82 51 74 82 52 75 83 53 76 84 51 74 82 52 75 83 51 74 82 52 75 83 51 74 82 52 75 83 52 75 83 52 77 84 51 76 83 50 75 82 52 77 84 51 76 83 50 75 82 50 75 82 52 77 84 52 75 83 53 76 84 52 75 83 53 76 84 53 76 84 53 76 84 52 75 83 53 76 84 52 75 83 52 77 84 51 74 80 23 33 35 1 1 1 29 22 16 38 29 22 2 2 2 46 33 27 53 40 32 54 39 32 54 41 33 
52 77 84 52 77 84 51 76 83 52 77 84 52 77 84 51 76 83 51 76 83 52 77 84 51 76 83 51 76 83 51 76 83 51 76 83 49 74 81 52 77 84 50 75 82 51 76 83 50 75 82 50 75 82 51 76 83 51 76 83 51 76 83 50 75 82 51 76 83 53 78 85 53 76 84 52 75 83 53 76 84 53 76 84 52 75 83 51 74 82 52 75 83 51 74 82 51 76 83 52 77 84 51 76 83 51 76 83 51 76 83 50 75 82 50 75 82 52 77 84 52 77 84 51 76 83 51 76 83 50 75 82 52 77 84 52 77 84 50 75 82 51 76 83 51 74 82 51 74 82 51 74 82 52 75 83 53 76 84 51 74 82 51 74 82 53 76 84 53 76 84 52 75 83 52 75 83 51 74 82 52 75 83 51 74 82 51 74 82 52 75 83 51 74 82 53 76 84 51 74 82 53 76 84 51 74 82 52 75 83 52 75 83 52 75 83 51 76 83 52 77 84 52 77 84 51 76 83 51 76 83 50 75 82 52 77 84 51 76 83 52 75 83 51 74 82 52 75 83 52 75 83 52 75 83 51 74 82 52 75 83 53 76 84 53 76 82 51 76 83 52 77 82 27 38 42 0 0 0 33 25 22 30 25 21 3 1 2 49 38 32 57 44 36 54 41 33 55 42 36 
52 77 84 52 77 84 52 77 84 51 76 83 52 77 84 51 76 83 51 76 83 51 76 83 51 76 83 52 77 84 51 76 83 51 76 83 53 78 85 50 75 82 50 75 82 52 77 84 51 76 83 52 77 84 51 76 83 52 77 84 51 76 83 52 77 84 51 76 83 52 77 84 51 74 82 51 74 82 53 76 84 53 76 84 52 75 83 53 76 84 52 75 83 51 74 82 50 75 82 51 76 83 51 76 83 51 76 83 50 75 82 51 76 83 51 76 83 50 75 82 51 76 83 50 75 82 50 75 82 51 76 83 51 76 83 51 76 83 51 76 83 52 77 84 54 77 85 51 74 82 52 75 83 53 76 84 53 76 84 52 75 83 52 75 83 51 74 82 51 74 82 53 76 84 52 75 83 52 75 83 53 76 84 52 75 83 52 75 83 51 74 82 52 75 83 52 75 83 53 76 84 52 75 83 52 75 83 52 75 83 52 75 83 53 76 84 51 76 83 51 76 83 50 75 82 52 77 84 52 77 84 51 76 83 50 75 82 51 76 83 52 75 83 53 76 84 51 74 82 52 75 83 52 75 83 53 76 84 53 76 84 52 75 83 51 76 83 51 76 83 50 75 80 24 35 39 2 2 2 32 25 19 41 30 26 5 3 4 50 39 33 55 42 34 54 41 33 54 41 33 
51 76 83 51 76 83 51 76 83 50 75 82 52 77 84 51 76 83 51 76 83 51 76 83 51 76 83 51 76 83 50 75 82 52 77 84 50 75 82 51 76 83 51 76 83 51 76 83 52 77 84 50 75 82 51 76 83 51 76 83 51 76 83 51 76 83 52 77 84 51 76 83 51 74 82 51 74 82 52 75 83 52 75 83 52 75 83 52 75 83 51 74 82 52 75 83 51 76 83 50 75 82 52 77 84 50 75 82 51 76 83 51 76 83 50 75 82 51 76 83 51 76 83 51 76 83 51 76 83 51 76 83 51 76 83 52 77 84 53 78 85 52 77 84 52 75 83 51 74 82 52 75 83 52 75 83 52 75 83 53 76 84 52 75 83 53 76 84 52 75 83 52 75 83 52 75 83 53 76 84 52 75 83 53 76 84 52 75 83 52 75 83 52 75 83 52 75 83 53 76 84 50 73 81 51 74 82 51 74 82 52 75 83 52 75 83 52 77 84 50 75 82 51 76 83 51 76 83 51 76 83 52 77 84 51 76 83 51 76 83 52 75 83 51 74 82 52 75 83 51 74 82 53 76 84 51 74 82 52 75 83 52 75 83 52 77 82 52 75 81 53 76 84 25 39 42 2 2 2 28 20 18 52 37 30 45 34 28 49 36 30 40 31 24 33 26 20 49 34 31 
51 76 83 51 76 83 51 76 83 50 75 82 52 77 84 52 77 84 52 77 84 51 76 83 52 77 84 50 75 82 51 76 83 50 75 82 51 76 83 51 76 83 51 76 83 52 77 84 52 77 84 51 76 83 51 76 83 51 76 83 51 76 83 50 75 82 52 77 84 51 76 83 52 75 83 53 76 84 52 75 83 52 75 83 52 75 83 52 75 83 52 75 83 53 76 84 50 75 82 51 76 83 51 76 83 51 76 83 51 76 83 51 76 83 51 76 83 52 77 84 51 76 83 51 76 83 52 77 84 51 76 83 51 76 83 51 76 83 51 76 83 51 76 83 53 76 84 52 75 83 52 75 83 53 76 84 53 76 84 53 76 84 52 75 83 52 75 83 51 74 82 52 75 83 52 75 83 53 76 84 52 75 83 52 75 83 54 77 85 52 75 83 52 75 83 52 75 83 52 75 83 53 76 84 51 74 82 53 76 84 52 75 83 52 75 83 50 75 82 52 77 84 51 76 83 52 77 84 52 77 84 51 76 83 52 77 84 50 75 82 54 77 85 52 75 83 53 76 84 53 76 84 53 76 84 52 75 83 52 75 83 52 75 83 51 76 83 52 77 82 52 75 83 25 36 38 0 0 0 31 23 20 53 43 34 41 32 27 9 8 6 2 2 2 1 1 3 8 7 5 
51 76 83 50 75 82 51 76 83 51 76 83 51 76 83 52 77 84 52 77 84 50 75 82 51 76 83 51 76 83 51 76 83 51 76 83 51 76 83 52 77 84 50 75 82 51 76 83 51 76 83 51 76 83 51 76 83 50 75 82 51 76 83 51 76 83 52 77 84 51 76 83 52 75 83 51 74 82 51 74 82 51 74 82 52 75 83 52 75 83 52 75 83 53 76 84 50 75 82 50 75 82 51 76 83 52 77 84 51 76 83 52 77 84 50 75 82 52 77 84 51 76 83 51 76 83 51 76 83 51 76 83 51 76 83 52 77 84 51 76 83 51 76 83 52 75 83 53 76 84 52 75 83 51 74 82 52 75 83 51 74 82 52 75 83 52 75 83 52 75 83 52 75 83 52 75 83 52 75 83 54 77 85 52 75 83 52 75 83 51 74 82 52 75 83 53 76 84 52 75 83 53 76 84 52 75 83 52 75 83 53 76 84 52 75 83 51 76 83 51 76 83 52 77 84 50 75 82 51 76 83 50 75 82 51 76 83 51 76 83 53 76 84 51 74 82 51 74 82 51 74 82 53 76 84 52 75 83 53 76 84 52 75 83 52 75 83 51 76 81 52 77 84 28 43 48 0 0 0 22 19 14 41 32 27 8 7 5 1 1 3 1 1 1 1 1 1 2 2 2 
52 77 84 51 76 83 51 76 83 52 77 84 51 76 83 52 77 84 50 75 82 50 75 82 51 76 83 52 77 84 49 74 81 51 76 83 52 77 84 51 76 83 50 75 82 51 76 83 50 75 82 50 75 82 52 77 84 52 77 84 50 75 82 51 76 83 51 76 83 52 77 84 52 75 83 52 75 83 53 76 84 51 74 82 52 75 83 53 76 84 51 74 82 52 75 83 51 76 83 51 76 83 51 76 83 52 77 84 50 75 82 51 76 83 51 76 83 50 75 82 51 76 83 51 76 83 52 77 84 51 76 83 52 77 84 51 76 83 51 76 83 51 76 83 52 75 83 52 75 83 52 75 83 51 74 82 53 76 84 52 75 83 51 74 82 53 76 84 52 75 83 52 75 83 52 75 83 52 75 83 51 74 82 52 75 83 52 75 83 52 75 83 52 75 83 51 74 82 51 74 82 52 75 83 52 75 83 52 75 83 51 74 82 53 76 84 51 76 83 52 77 84 51 76 83 50 75 82 51 76 83 52 77 84 51 76 83 52 77 84 52 75 83 51 74 82 53 76 84 52 75 83 51 74 82 52 75 83 52 75 83 52 75 83 53 76 82 51 76 83 50 75 80 24 35 37 0 2 1 16 12 11 11 10 8 2 0 1 1 1 1 0 0 0 4 3 1 28 20 17 
51 74 82 51 74 82 51 74 82 52 75 83 52 75 83 52 75 83 52 75 83 52 75 83 53 76 84 52 75 83 52 75 83 51 74 82 52 75 83 53 76 84 53 76 84 51 74 82 52 75 83 52 75 83 52 75 83 52 75 83 52 75 83 52 75 83 52 75 83 52 75 83 53 76 84 53 76 84 52 75 83 52 75 81 52 75 83 52 75 83 53 76 82 52 75 83 52 75 83 52 75 83 53 76 84 52 75 83 53 76 84 52 75 83 51 74 82 52 75 83 52 75 83 51 74 82 52 75 83 53 76 84 52 75 83 52 75 83 52 75 83 52 75 83 51 76 83 50 75 82 51 76 83 51 76 83 51 76 83 51 76 83 51 76 83 51 76 83 53 76 84 53 76 84 51 74 82 52 75 83 52 75 83 53 76 84 52 75 83 52 75 83 53 76 84 53 76 84 51 74 82 52 75 83 51 74 82 52 75 83 52 75 83 52 75 83 51 74 82 52 75 83 52 75 83 52 75 83 52 75 83 51 74 82 53 76 84 51 74 82 51 76 83 52 77 84 51 76 83 51 76 83 52 77 84 51 76 83 50 75 82 51 76 83 52 77 84 51 76 83 52 75 83 25 39 42 0 0 0 4 4 2 1 1 1 1 1 1 1 1 0 20 16 13 45 36 29 57 47 38 
52 75 83 54 77 85 52 75 83 52 75 83 52 75 83 52 75 83 52 75 83 52 75 83 52 75 83 52 75 83 52 75 83 52 75 83 52 75 83 51 74 82 51 74 82 51 74 82 51 74 82 53 76 84 52 75 83 52 75 83 53 76 84 52 75 83 52 75 83 52 75 83 50 73 81 52 75 83 51 74 82 53 76 82 52 75 83 53 76 84 53 76 82 52 75 83 52 75 83 51 74 82 52 75 83 52 75 83 52 75 83 52 75 83 52 75 83 53 76 84 53 76 84 52 75 83 52 75 83 52 75 83 52 75 83 52 75 83 51 74 82 51 74 82 51 76 83 51 76 83 51 76 83 51 76 83 51 76 83 51 76 83 51 76 83 51 76 83 52 75 83 52 75 83 51 74 82 52 75 83 52 75 83 52 75 83 52 75 83 52 75 83 53 76 84 52 75 83 53 76 84 52 75 83 52 75 83 53 76 84 53 76 84 53 76 84 52 75 83 53 76 84 51 74 82 52 75 83 50 73 81 52 75 83 51 74 82 52 75 83 51 76 83 50 75 82 50 75 82 52 77 84 51 76 83 51 76 83 50 75 82 50 75 82 52 75 81 51 76 83 50 75 82 25 36 40 1 1 3 1 1 1 1 1 1 0 0 2 9 8 6 33 23 21 42 33 26 54 44 35 
53 76 84 52 75 83 52 75 83 51 74 82 53 76 84 53 76 84 52 75 83 51 74 82 52 75 83 52 75 83 51 74 82 52 75 83 53 76 84 52 75 83 52 75 83 51 74 82 52 75 83 52 75 83 52 75 83 51 74 82 51 74 82 52 75 83 52 75 83 52 75 83 52 75 83 52 75 83 51 74 82 52 75 81 51 74 82 53 76 84 53 76 82 51 74 82 50 73 81 53 76 84 52 75 83 54 77 85 53 76 84 52 75 83 52 75 83 52 75 83 51 74 82 51 74 82 51 74 82 53 76 84 52 75 83 51 74 82 51 74 82 52 75 83 51 76 83 51 76 83 50 75 82 51 76 83 52 77 84 50 75 82 51 76 83 50 75 82 51 74 82 52 75 83 52 75 83 52 75 83 51 74 82 52 75 83 51 74 82 52 75 83 52 75 83 52 75 83 52 75 83 51 74 82 51 74 82 53 76 84 53 76 84 52 75 83 51 74 82 51 74 82 53 76 84 52 75 83 53 76 84 52 75 83 51 74 82 52 75 83 51 76 83 51 76 83 51 76 83 51 76 83 52 77 84 51 76 83 51 76 83 50 75 82 51 76 83 51 74 80 52 75 83 23 34 38 1 1 1 1 1 1 1 1 0 2 2 2 23 18 14 1 1 1 5 3 4 44 35 28 
52 75 83 51 74 82 51 74 82 52 75 83 50 73 81 52 75 83 52 75 83 52 75 83 52 75 83 52 75 83 52 75 83 52 75 83 53 76 84 54 77 85 52 75 83 51 74 82 53 76 84 52 75 83 52 75 83 52 75 83 52 75 83 52 75 83 52 75 83 52 75 83 51 74 80 52 75 83 52 75 83 51 74 80 52 75 83 52 75 83 52 75 81 51 74 82 52 75 83 53 76 84 51 74 82 52 75 83 52 75 83 51 74 82 52 75 83 51 74 82 52 75 83 51 74 82 52 75 83 51 74 82 52 75 83 52 75 83 52 75 83 52 75 83 51 76 83 51 76 83 51 76 83 51 76 83 51 76 83 50 75 82 51 76 83 50 75 82 51 76 83 51 76 83 51 76 83 51 76 83 51 76 83 50 75 82 52 77 84 51 76 83 51 74 82 52 75 83 53 76 84 51 74 82 52 75 83 53 76 84 52 75 83 51 74 82 52 75 83 51 74 82 51 74 82 52 75 83 52 75 83 51 74 82 52 75 83 53 76 84 50 75 82 51 76 83 52 77 84 51 76 83 52 77 84 51 76 83 51 76 83 51 76 83 50 75 82 51 76 83 52 75 83 23 33 35 1 1 3 8 10 7 4 3 1 19 15 12 24 19 15 1 1 1 5 5 3 48 35 29 
52 75 83 51 74 82 51 74 82 51 74 82 52 75 83 52 75 83 52 75 83 52 75 83 52 75 83 53 76 84 52 75 83 51 74 82 51 74 82 52 75 83 52 75 83 51 74 82 51 74 82 53 76 84 52 75 83 51 74 82 52 75 83 53 76 84 52 75 83 52 75 83 52 75 83 52 75 81 52 75 81 52 75 83 51 74 80 51 74 80 51 74 82 51 74 80 51 74 82 52 75 83 51 74 82 53 76 84 52 75 83 53 76 84 52 75 83 50 73 81 52 75 83 52 75 83 52 75 83 51 74 82 52 75 83 51 74 82 52 75 83 52 75 83 52 75 83 51 74 82 52 75 83 52 75 83 52 75 83 52 75 83 51 74 82 53 76 84 50 75 82 51 76 83 51 76 83 52 77 84 50 75 82 50 75 82 52 77 84 52 77 84 52 75 81 52 75 81 53 76 82 53 76 82 51 74 80 53 76 82 51 74 80 52 75 81 53 76 82 53 76 82 53 76 82 52 75 81 52 75 81 52 75 81 53 76 82 52 75 81 53 76 84 52 75 83 52 75 83 52 75 83 52 75 83 52 75 83 52 75 83 52 75 83 51 76 81 52 75 83 51 76 83 24 35 37 0 0 2 32 24 21 46 33 27 51 38 30 42 33 26 26 22 19 39 28 24 55 40 33 
51 74 82 52 75 83 52 75 83 52 75 83 51 74 82 52 75 83 51 74 82 52 75 83 52 75 83 51 74 82 52 75 83 53 76 84 52 75 83 52 75 83 51 74 82 51 74 82 52 75 83 52 75 83 51 74 82 51 74 82 51 74 82 51 74 82 52 75 83 52 75 83 52 75 81 52 75 81 51 74 80 51 74 82 52 75 81 51 74 80 51 74 82 53 76 82 51 74 82 51 74 82 52 75 83 51 74 82 52 75 83 51 74 82 52 75 83 51 74 82 52 75 83 52 75 83 52 75 83 53 76 84 52 75 83 53 76 84 52 75 83 52 75 83 51 74 82 50 73 81 53 76 84 51 74 82 52 75 83 52 75 83 52 75 83 52 75 83 51 76 83 50 75 82 51 76 83 50 75 82 52 77 84 51 76 83 51 76 83 50 75 82 52 75 81 52 75 81 51 74 80 52 75 81 52 75 81 52 75 81 52 75 81 52 75 81 51 74 80 52 75 81 51 74 80 52 75 81 52 75 81 51 74 80 52 75 81 51 74 80 52 75 83 51 74 82 52 75 83 52 75 83 52 75 83 52 75 83 52 75 83 52 75 83 52 75 81 51 74 80 51 74 82 30 43 49 0 0 0 22 17 14 53 39 30 37 30 24 6 4 5 8 7 5 34 27 21 58 41 34 
52 75 83 52 75 83 51 74 82 52 75 83 51 74 82 52 75 83 52 75 83 51 74 82 51 74 82 52 75 83 52 75 83 53 76 84 52 75 83 52 75 83 52 75 83 52 75 83 52 75 83 52 75 83 52 75 83 51 74 82 51 74 82 52 75 83 51 74 82 52 75 83 51 74 80 51 74 80 53 76 82 52 75 83 53 76 82 51 74 80 52 75 83 52 75 81 52 75 83 52 75 83 52 75 83 53 76 84 51 74 82 52 75 83 52 75 83 51 74 82 52 75 83 51 74 82 51 74 82 52 75 83 52 75 83 52 75 83 53 76 84 53 76 84 52 75 83 52 75 83 52 75 83 52 75 83 52 75 83 52 75 83 52 75 83 52 75 83 51 74 82 52 75 83 52 75 83 52 75 83 52 75 83 51 74 82 51 74 82 51 74 82 51 74 80 53 76 82 51 74 80 52 75 81 53 76 82 52 75 81 52 75 81 52 75 81 51 74 80 51 74 80 51 74 80 52 75 81 52 75 81 52 75 81 52 75 81 51 74 80 52 75 83 52 75 83 52 75 83 51 74 82 51 74 82 52 75 83 52 75 83 52 75 83 51 74 80 50 75 82 53 76 82 35 50 57 1 1 1 23 19 16 51 37 28 33 24 19 1 1 1 1 1 1 10 9 7 49 38 32 
52 75 83 51 74 82 52 75 83 52 75 83 52 75 83 52 75 83 52 75 83 51 74 82 52 75 83 53 76 84 52 75 83 52 75 83 51 74 82 52 75 83 52 75 83 52 75 83 51 74 82 52 75 83 52 75 83 52 75 83 52 75 83 52 75 83 52 75 83 52 75 83 53 76 82 52 75 81 52 75 81 53 76 84 52 75 81 52 75 81 51 74 82 52 75 81 52 75 83 51 74 82 53 76 84 52 75 83 52 75 83 52 75 83 52 75 83 52 75 83 52 75 83 52 75 83 52 75 83 52 75 83 51 74 82 52 75 83 53 76 84 52 75 83 52 75 83 52 75 83 52 75 83 51 74 82 52 75 83 52 75 83 52 75 83 51 74 82 52 75 83 52 75 83 51 74 82 51 74 82 53 76 84 52 75 83 52 75 83 51 74 82 51 74 80 51 74 80 53 76 82 52 75 81 52 75 81 52 75 81 51 74 80 52 75 81 53 76 82 51 74 80 52 75 81 52 75 81 51 74 80 52 75 81 52 75 81 51 74 80 51 74 82 51 74 82 52 75 83 52 75 83 51 74 82 52 75 83 51 74 82 52 75 83 51 74 80 51 76 81 52 74 85 26 37 41 0 0 0 25 20 17 56 45 41 50 40 31 31 23 20 8 6 7 22 17 14 41 32 27 
52 75 83 52 75 83 52 75 83 51 74 82 51 74 82 51 74 82 52 75 83 52 75 83 50 75 82 50 75 82 52 75 83 52 75 83 52 75 83 51 74 82 51 76 83 48 75 82 51 74 82 51 74 82 51 76 83 51 74 82 52 75 83 52 75 83 51 74 82 51 74 82 51 74 82 52 75 83 52 75 83 52 75 83 52 75 83 51 74 82 52 75 83 53 76 84 51 76 83 51 76 83 51 74 82 51 74 82 51 74 82 52 75 83 50 75 82 51 76 83 51 76 83 51 76 83 52 75 83 52 75 83 51 74 82 51 76 83 50 75 82 51 76 83 51 76 83 52 75 83 50 75 82 51 74 82 50 75 82 51 74 82 51 76 83 52 75 83 52 75 83 52 75 83 51 76 83 52 75 83 51 74 82 52 75 83 52 75 83 52 75 83 51 74 82 51 74 82 52 75 83 51 76 83 50 75 82 51 74 82 50 73 81 51 74 82 51 76 83 52 75 83 53 76 84 52 75 83 52 75 83 51 74 82 52 75 83 51 76 83 54 74 83 52 72 81 51 74 82 51 74 82 51 74 82 51 76 83 51 74 82 51 74 82 52 75 81 52 75 83 51 76 81 32 47 50 0 0 2 27 19 16 46 36 27 41 32 25 55 42 34 52 39 31 52 39 31 27 20 14 
51 74 82 51 74 82 51 74 82 52 75 83 52 75 83 52 75 83 51 74 82 52 75 83 52 75 83 52 75 83 50 75 82 47 74 81 51 76 83 52 75 83 53 76 84 51 74 82 51 74 82 52 75 83 50 73 81 52 75 83 51 74 82 52 75 83 52 75 83 50 75 82 52 75 83 52 75 83 51 74 82 51 74 82 51 74 82 51 74 82 52 75 83 52 75 83 51 74 82 51 74 82 51 74 82 51 74 82 51 74 82 51 74 82 52 75 83 52 75 83 51 76 83 50 75 82 53 76 84 52 75 83 52 75 83 51 74 82 52 75 83 50 75 82 52 75 83 51 76 83 52 75 83 52 75 83 52 75 83 51 76 83 52 75 83 52 75 83 51 74 82 51 74 82 51 74 82 51 76 83 51 74 82 51 74 82 50 73 81 52 75 83 51 74 82 51 74 82 52 75 83 52 77 84 51 76 83 52 75 83 51 74 82 51 74 82 51 74 82 52 75 83 52 75 83 51 76 83 50 75 82 51 74 82 51 74 82 52 75 83 51 74 82 50 75 82 52 75 83 51 74 82 51 74 82 50 75 82 51 74 82 50 75 82 51 76 81 51 76 81 51 76 83 35 50 55 1 1 0 10 11 6 11 10 8 2 2 4 32 25 19 25 20 16 20 15 12 31 22 17 
51 74 82 51 74 82 52 75 83 52 75 83 52 75 83 51 74 82 51 74 82 52 75 83 52 75 83 51 76 83 51 74 82 51 76 83 51 76 83 52 75 83 51 74 82 51 76 83 51 74 82 51 74 82 52 75 83 52 75 83 51 74 82 52 75 83 52 75 83 51 76 83 51 74 82 50 73 81 51 74 82 52 75 83 51 74 82 51 74 82 52 75 83 51 74 82 51 76 83 51 76 83 51 74 82 51 74 82 51 74 82 52 75 83 50 75 82 50 75 82 53 76 84 51 76 83 51 76 83 51 74 82 51 74 82 51 74 82 51 74 82 51 76 83 51 74 82 51 74 82 52 75 83 51 74 82 51 74 82 51 74 82 51 74 82 51 74 82 52 75 83 53 76 84 51 74 82 52 75 83 50 75 82 52 75 83 52 75 83 52 75 83 51 74 82 51 76 83 52 77 84 52 75 83 51 74 82 51 76 83 51 76 83 53 76 84 50 75 82 52 75 83 51 74 82 52 75 83 51 74 82 51 74 82 52 75 83 51 76 83 51 76 83 52 75 83 50 75 82 51 76 83 52 75 83 51 76 83 51 74 82 52 75 83 51 76 83 52 75 83 51 76 83 37 55 59 2 0 1 2 0 1 2 2 2 1 1 1 11 10 8 4 3 1 1 1 1 20 15 11 
51 76 83 50 75 82 50 75 82 51 76 83 50 75 82 50 75 82 51 76 83 50 75 82 51 74 82 52 75 83 51 76 83 51 76 83 50 75 82 51 74 82 52 75 83 51 74 82 51 74 82 51 74 82 50 75 82 51 74 82 52 75 83 50 73 81 51 74 82 52 75 83 51 74 82 51 74 82 51 74 82 52 75 83 51 74 82 51 74 82 52 75 83 52 75 83 52 75 83 51 74 82 52 75 83 52 75 83 51 74 82 52 75 83 51 74 82 51 74 82 52 75 83 50 75 82 51 76 83 51 74 82 51 74 82 51 74 82 52 75 83 52 75 83 52 75 83 52 75 83 52 75 83 52 75 83 52 75 83 52 75 83 52 75 83 52 75 83 51 74 82 52 75 83 52 75 83 51 74 82 51 74 82 50 75 82 50 73 81 52 75 83 51 74 82 51 74 82 52 75 83 52 75 83 52 75 83 52 75 83 51 74 82 52 75 83 51 76 83 51 76 83 52 75 83 51 74 82 51 74 82 50 73 81 50 75 82 50 75 82 51 74 82 51 74 82 50 75 82 52 75 83 51 76 83 51 74 82 51 74 82 52 75 83 52 75 81 50 75 82 52 75 83 48 67 74 3 4 6 4 2 3 14 10 9 1 1 1 6 6 8 3 3 3 0 0 0 21 16 13 
52 75 83 52 75 83 52 75 83 52 75 83 51 74 82 51 74 82 52 75 83 52 75 83 51 76 83 52 75 83 52 75 83 51 74 82 54 77 85 52 75 83 50 75 82 51 76 83 52 75 83 51 74 82 51 76 83 52 75 83 50 73 81 51 74 82 50 73 81 52 75 83 51 74 82 51 74 82 52 75 83 52 75 83 51 74 82 51 74 82 51 74 82 51 74 82 51 74 82 51 74 82 52 75 83 51 74 82 52 75 83 53 76 84 52 75 83 52 75 83 50 75 82 52 75 83 52 75 83 52 75 83 52 75 83 52 75 83 51 74 82 52 75 83 52 75 83 52 75 83 50 75 82 51 74 82 50 75 82 51 74 82 52 75 83 52 75 83 52 75 83 51 74 82 51 74 82 52 75 83 51 74 82 50 75 82 52 75 83 51 74 82 50 75 82 51 74 82 51 74 82 51 74 82 51 74 82 51 74 82 51 74 82 50 75 82 51 74 82 51 74 82 51 76 83 51 74 82 51 74 82 50 75 82 51 74 82 51 74 82 51 74 82 52 75 83 53 73 82 52 75 83 51 74 82 50 75 82 52 75 83 51 76 83 52 75 81 52 75 83 52 75 81 51 74 80 7 11 14 1 1 1 42 33 28 22 18 15 0 0 0 2 2 2 23 18 14 47 36 30 
51 76 83 50 75 82 51 76 83 51 76 83 51 76 83 50 75 82 51 76 83 51 76 83 51 76 83 50 75 82 51 74 82 51 74 82 52 75 83 51 74 82 52 75 83 50 75 82 52 75 83 52 75 83 51 74 82 51 74 82 52 75 83 52 75 83 51 74 82 51 76 83 51 74 82 51 74 82 51 74 82 51 74 82 51 74 82 51 74 82 51 74 82 52 75 83 52 75 83 51 74 82 50 75 82 51 76 83 52 77 84 51 76 83 53 76 84 52 75 83 50 75 82 51 76 83 52 75 83 53 73 82 51 76 83 52 75 83 54 74 83 53 76 84 50 75 82 51 76 83 51 74 82 51 76 83 52 75 83 50 75 82 52 75 83 50 75 82 52 75 83 52 75 83 52 75 83 51 74 82 50 75 82 51 74 82 50 73 81 52 75 83 50 75 82 53 76 84 51 74 82 53 76 84 51 74 82 50 73 81 51 74 82 51 76 83 52 75 83 51 76 83 51 74 82 51 74 82 51 74 82 52 75 83 51 76 83 51 74 82 51 76 83 51 74 82 50 75 82 51 74 82 51 74 82 50 73 81 52 75 83 51 74 82 52 75 83 51 74 80 52 75 83 50 73 81 11 15 16 1 1 1 36 25 21 33 24 19 3 1 2 1 1 1 33 24 19 54 41 35 
51 74 82 51 74 82 51 74 82 52 75 83 51 74 82 51 74 82 51 74 82 52 75 83 52 75 83 51 74 82 50 75 82 51 74 82 50 75 82 51 74 82 52 75 83 52 75 83 51 74 82 51 74 82 52 75 83 51 74 82 51 74 82 51 74 82 53 76 84 50 75 82 51 74 82 50 73 81 51 74 82 51 74 82 51 74 82 51 74 82 51 74 82 52 75 83 51 74 82 52 75 83 51 74 82 52 75 83 52 75 83 51 74 82 52 75 83 52 75 83 51 76 83 50 75 82 51 76 83 52 75 83 51 74 82 52 75 83 52 75 83 52 75 83 51 74 82 52 75 83 49 74 81 52 75 83 50 75 82 52 75 83 50 75 82 51 74 82 52 75 83 52 75 83 52 75 83 51 76 83 51 74 82 52 75 83 52 75 83 51 74 82 50 75 82 52 75 83 52 75 83 52 75 83 52 75 83 51 74 82 52 75 83 51 76 83 51 76 83 50 75 82 50 75 82 51 74 82 52 75 83 52 77 84 51 76 83 50 75 82 52 75 83 51 74 82 50 75 82 52 75 83 50 75 82 51 74 82 52 75 83 51 74 82 51 74 80 52 75 83 51 73 84 50 75 82 14 20 20 1 1 1 5 5 3 13 9 8 20 16 13 23 18 15 52 41 35 42 31 25 
52 75 83 51 74 82 52 75 83 52 75 83 51 74 82 51 74 82 52 75 83 51 74 82 52 75 83 52 75 83 51 74 82 51 76 83 52 75 83 51 76 83 52 75 83 52 75 83 51 74 82 52 75 83 51 76 83 52 75 83 51 74 82 50 73 81 51 74 82 51 74 82 51 74 82 51 74 82 52 75 83 52 75 83 52 75 83 52 75 83 51 74 82 51 74 82 52 75 83 51 74 82 50 75 82 51 76 83 52 77 84 50 75 82 52 75 83 52 75 83 48 75 82 51 76 83 51 76 83 50 73 81 52 75 83 53 73 82 51 74 82 51 76 83 51 74 82 52 75 83 51 74 82 54 74 83 51 74 82 52 75 83 51 74 82 51 74 82 52 75 83 52 75 83 51 76 83 51 74 82 52 75 83 51 74 82 51 74 82 52 75 83 51 74 82 51 76 83 51 74 82 52 75 83 50 73 81 52 75 83 50 75 82 52 75 83 51 74 82 51 76 83 51 76 83 51 74 82 51 74 82 50 75 82 51 76 83 51 74 82 50 75 82 51 74 82 50 75 82 52 75 83 51 74 82 52 75 83 52 75 83 51 74 82 52 75 83 51 76 83 51 76 81 52 75 83 16 23 29 0 0 0 0 0 0 1 1 0 43 32 26 53 40 32 49 40 33 12 8 7 
50 75 82 51 74 82 51 74 82 51 74 82 51 76 83 51 76 83 51 74 82 51 74 82 51 74 82 51 74 82 51 74 82 51 74 82 52 75 83 51 74 82 52 75 83 52 75 83 51 74 82 51 76 83 51 74 82 51 74 82 50 75 82 52 75 83 51 74 82 52 75 83 50 73 81 51 74 82 52 75 83 51 74 82 52 75 83 51 74 82 51 74 82 51 74 82 52 75 83 52 75 83 51 74 82 51 76 83 52 75 83 52 75 83 50 73 81 52 75 83 50 75 82 52 75 83 50 75 82 50 75 82 51 74 82 52 75 83 52 75 83 53 76 84 52 75 83 52 75 83 51 74 82 51 74 82 51 74 82 50 73 81 50 73 81 51 74 82 51 76 83 50 73 81 50 75 82 50 75 82 54 74 83 52 75 83 51 76 83 52 75 83 50 75 82 52 75 83 51 74 82 52 75 83 52 75 83 51 74 82 51 74 82 52 75 83 51 74 82 51 74 82 52 75 83 51 74 82 52 75 83 51 74 82 51 74 82 51 74 82 52 75 83 52 75 83 50 75 82 50 75 82 52 75 83 52 75 83 51 74 82 51 74 82 51 76 83 52 75 81 51 76 83 51 74 80 28 39 43 1 1 0 1 1 1 8 7 5 48 35 29 52 41 35 33 25 22 0 0 0 
51 74 82 51 74 82 51 74 82 51 74 82 52 75 83 54 74 83 50 75 82 51 74 82 52 75 83 52 75 83 50 75 82 52 75 83 50 75 82 51 74 82 52 75 83 52 75 83 51 74 82 50 73 81 52 75 83 51 74 82 52 75 83 51 74 82 51 74 82 52 75 83 51 74 82 53 76 84 51 74 82 51 74 82 52 75 83 51 74 82 51 76 83 51 76 83 51 76 83 52 75 83 51 76 83 49 74 81 52 75 83 51 74 82 50 75 82 51 74 82 51 74 82 51 76 83 52 75 83 52 75 83 51 74 82 51 76 83 51 76 83 52 75 83 51 74 82 51 74 82 52 75 83 51 74 82 51 74 82 52 75 83 51 74 82 51 76 83 52 75 83 51 74 82 51 74 82 51 76 83 52 75 83 50 73 81 50 75 82 52 75 83 51 74 82 50 73 81 51 76 83 51 74 82 50 73 81 51 74 82 51 74 82 52 75 83 51 74 82 51 74 82 51 74 82 52 75 83 51 74 82 51 74 82 51 74 82 52 75 83 52 75 83 50 75 82 53 76 84 52 75 83 51 76 83 51 74 82 52 75 83 51 74 82 51 74 80 51 74 80 51 74 80 52 75 81 32 47 52 1 1 1 1 1 1 0 0 0 38 31 25 48 39 34 8 8 6 1 1 0 
51 74 82 52 75 83 51 76 83 51 76 83 52 75 83 51 74 82 51 76 83 52 75 83 51 74 82 51 74 82 50 75 82 51 74 82 50 75 82 52 75 83 51 74 82 52 75 83 51 76 83 51 74 82 51 74 82 50 75 82 51 74 82 51 74 82 50 75 82 51 74 82 51 74 82 51 74 82 51 74 82 52 75 83 51 76 83 51 74 82 51 74 82 52 75 83 52 75 83 51 74 82 52 75 83 51 74 82 52 75 83 51 74 82 51 74 82 51 74 82 51 74 82 49 74 81 51 74 82 52 75 83 50 75 82 51 74 82 52 75 83 51 76 83 52 75 83 52 75 83 52 75 83 52 75 83 52 75 83 51 74 82 49 74 81 52 75 83 51 74 82 51 74 82 50 75 82 51 74 82 52 75 83 51 76 83 52 75 83 54 74 83 50 75 82 51 74 82 51 74 82 50 73 81 51 74 82 51 74 82 51 74 82 51 74 82 51 74 82 51 74 82 51 74 82 52 75 83 51 74 82 51 74 82 52 75 83 52 75 83 52 75 83 51 76 83 51 74 82 52 75 83 52 75 83 52 75 83 52 75 83 50 75 82 51 74 82 52 75 81 51 76 81 52 75 83 41 60 64 0 0 2 1 1 1 10 9 7 44 33 27 19 13 13 0 2 0 6 12 10 
51 74 82 51 74 82 51 76 83 51 76 83 51 74 82 50 75 82 52 75 83 52 75 83 52 75 83 51 74 82 51 74 82 51 74 82 51 74 82 52 75 83 51 74 82 52 75 83 51 74 82 51 74 82 51 74 82 52 75 83 51 74 82 52 75 83 51 76 83 52 75 83 51 76 83 51 74 82 51 76 83 51 74 82 51 74 82 51 74 82 51 74 82 51 74 82 50 75 82 51 74 82 51 76 83 51 74 82 50 75 82 51 74 82 51 76 83 52 75 83 51 74 82 51 74 82 52 75 83 51 74 82 51 76 83 52 75 83 51 76 83 50 75 82 51 74 82 49 74 81 48 75 82 51 74 82 50 73 81 51 74 82 51 74 82 50 75 82 52 75 83 52 75 83 51 74 82 51 76 83 50 75 82 52 75 83 51 74 82 51 74 82 54 74 83 52 75 83 51 74 82 51 74 82 51 74 82 51 76 83 52 75 83 51 74 82 52 75 83 52 75 83 52 75 83 51 74 82 51 74 82 52 75 83 52 75 83 51 74 82 51 74 82 52 75 83 50 75 82 51 74 82 51 74 82 51 74 82 51 76 83 52 75 83 50 75 80 52 75 81 51 74 82 52 75 81 49 72 78 6 10 11 1 1 1 46 35 29 39 30 23 3 1 2 1 3 2 17 37 26 
53 73 82 52 75 83 51 74 82 51 74 82 52 75 83 52 75 83 51 74 82 52 75 83 51 74 82 51 74 82 51 74 82 51 74 82 51 74 82 51 74 82 51 74 82 51 74 82 51 74 82 51 76 83 52 75 83 51 74 82 52 75 83 51 74 82 52 75 83 51 74 82 51 76 83 52 75 83 50 75 82 51 74 82 51 74 82 51 74 82 52 75 83 51 74 82 52 75 83 51 74 82 51 74 82 51 74 82 51 74 82 51 74 82 51 74 82 50 73 81 52 75 83 52 75 83 51 76 83 51 74 82 53 76 84 50 75 82 50 75 82 51 74 82 51 74 82 52 75 83 51 74 82 51 74 82 51 74 82 51 74 82 50 75 82 51 74 82 51 74 82 51 74 82 52 77 84 52 75 83 50 73 81 50 75 82 50 75 82 52 75 83 51 74 82 51 74 82 51 74 82 51 76 83 54 74 83 52 75 83 51 74 82 51 76 83 53 76 84 51 74 82 52 75 83 51 74 82 52 75 83 51 74 82 52 75 83 51 74 82 51 74 82 51 74 82 50 73 81 51 76 83 50 73 81 50 75 82 52 77 84 52 75 83 52 75 81 51 76 81 51 74 80 51 74 82 51 74 82 14 19 22 1 1 1 42 33 26 11 10 8 0 0 0 10 28 16 39 40 45 
51 74 82 50 75 82 51 74 82 51 74 82 50 75 82 52 75 83 51 74 82 52 75 83 52 75 83 53 76 84 51 76 83 51 74 82 51 76 83 51 74 82 52 75 83 52 75 83 52 75 83 50 75 82 51 74 82 51 74 82 51 76 83 52 75 83 52 75 83 52 77 84 51 74 82 51 74 82 51 74 82 51 74 82 51 76 83 51 74 82 52 75 83 51 74 82 52 75 83 51 76 83 52 75 83 51 76 83 51 74 82 50 75 82 51 74 82 51 76 83 49 74 81 51 74 82 50 75 82 50 75 82 51 74 82 52 75 83 52 75 83 52 75 83 51 74 82 49 74 81 51 76 83 52 75 83 51 74 82 52 75 83 51 74 82 51 76 83 50 75 82 51 74 82 52 75 83 51 76 83 51 74 82 50 73 81 51 76 83 51 74 82 52 75 83 51 76 83 51 76 83 51 74 82 52 75 83 52 75 83 53 73 82 51 74 82 52 75 83 50 73 81 51 74 82 52 75 83 51 74 82 51 74 82 52 75 83 52 75 83 52 75 83 52 75 83 52 75 83 52 75 83 50 75 82 50 75 82 51 74 82 51 74 82 50 73 79 51 74 80 51 74 82 50 75 82 51 74 80 14 24 26 0 0 0 1 3 0 0 0 0 5 15 7 26 48 36 57 28 58 
52 75 83 52 75 83 52 75 83 51 74 82 50 75 82 50 75 82 50 73 81 51 74 82 51 74 82 51 74 82 50 75 82 51 74 82 51 76 83 52 75 83 52 75 83 52 75 83 51 74 82 51 74 82 51 74 82 52 75 83 51 74 82 51 74 82 51 74 82 51 74 82 52 75 83 51 74 82 52 75 83 51 74 82 52 75 83 52 75 83 51 76 83 51 76 83 51 74 82 51 74 82 52 75 83 51 74 82 51 74 82 51 74 82 51 74 82 51 74 82 50 75 82 51 74 82 51 74 82 52 75 83 49 74 81 51 74 82 50 75 82 51 74 82 50 75 82 51 74 82 53 76 84 52 75 83 51 74 82 52 75 83 52 75 83 51 74 82 52 75 83 51 74 82 50 75 82 52 75 83 51 74 82 50 75 82 50 75 82 51 74 82 50 75 82 50 73 81 50 75 82 51 74 82 52 75 83 52 75 83 51 74 82 51 74 82 51 74 82 51 74 82 51 74 82 51 74 82 52 75 83 51 74 82 51 74 82 52 75 83 51 74 82 51 76 83 51 74 82 52 75 83 51 76 83 52 75 83 51 74 82 52 75 83 51 74 80 54 74 83 53 73 80 51 74 80 52 75 81 33 48 55 1 1 1 1 1 1 3 5 2 17 46 28 35 41 41 56 29 60 
52 75 83 52 75 83 51 74 82 51 74 82 52 75 83 50 73 81 52 75 83 50 75 82 50 73 81 52 75 83 51 74 82 51 74 82 51 74 82 51 74 82 51 74 82 52 75 83 51 74 82 51 74 82 51 74 82 50 75 82 51 74 82 51 74 82 51 76 83 51 74 82 51 74 82 51 74 82 50 73 81 52 75 83 52 75 83 51 74 82 51 74 82 51 74 82 51 74 82 51 76 83 51 76 83 52 75 83 50 75 82 52 75 83 52 75 83 51 76 83 50 73 81 50 75 82 51 74 82 51 74 82 51 74 82 51 76 83 52 75 83 52 77 84 51 74 82 51 74 82 51 74 82 51 74 82 51 74 82 51 74 82 51 74 82 51 74 82 51 74 82 51 74 82 52 75 83 51 74 82 51 74 82 51 74 82 52 75 83 51 74 82 51 74 82 51 74 82 50 75 82 51 74 82 50 73 81 53 73 82 51 74 82 51 74 82 52 75 83 51 74 82 50 73 81 52 75 83 52 75 83 51 74 82 51 74 82 51 74 82 50 75 82 51 74 82 52 75 83 51 74 82 51 74 82 49 74 81 51 74 82 51 74 82 50 75 82 51 74 82 50 73 79 50 75 80 50 73 79 18 26 29 1 1 3 1 5 4 14 37 21 7 20 11 8 6 9 36 19 38 
51 74 82 52 75 83 51 76 83 51 76 83 52 75 83 53 73 82 51 74 82 49 74 81 52 75 83 51 74 82 51 74 82 52 75 83 52 75 83 51 74 82 52 75 83 51 74 82 51 74 82 50 75 82 48 75 82 50 73 81 51 74 82 50 75 82 51 74 82 52 75 83 52 75 83 50 75 82 50 75 82 50 75 82 51 74 82 51 74 82 52 75 83 51 74 82 50 75 82 51 74 82 50 75 82 52 75 83 51 74 82 51 74 82 51 76 83 50 73 81 51 74 82 51 74 82 51 74 82 51 74 82 54 74 83 52 75 83 52 77 84 52 75 83 50 73 81 51 74 82 50 73 81 51 74 82 51 74 82 52 75 83 51 74 82 52 75 83 51 74 82 51 74 82 51 74 82 51 74 82 52 75 83 52 75 83 51 74 82 50 73 81 51 76 83 51 74 82 50 73 81 51 74 82 51 74 82 52 75 83 50 75 82 51 74 82 52 75 83 52 75 83 51 76 83 49 76 83 50 75 82 52 75 83 51 74 82 52 75 83 51 76 81 52 75 83 51 74 80 51 74 80 51 74 82 50 75 80 50 73 79 51 76 81 51 76 81 52 75 81 50 75 82 49 69 76 16 24 26 0 0 0 2 4 3 17 44 25 19 52 31 20 53 32 17 29 25 7 5 8 
51 74 82 51 74 82 50 73 81 51 74 82 51 74 82 52 75 83 51 74 82 52 75 83 50 75 82 51 74 82 51 74 82 51 74 82 51 76 83 51 74 82 51 74 82 52 75 83 52 75 83 51 74 82 51 74 82 52 75 83 50 73 81 51 74 82 53 73 82 51 76 83 51 74 82 52 75 83 51 74 82 49 74 81 51 76 83 52 75 83 51 76 83 51 76 83 51 76 83 51 76 83 50 75 82 51 74 82 51 74 82 51 74 82 51 74 82 51 74 82 50 75 82 51 74 82 52 75 83 51 76 83 50 75 82 51 74 82 50 75 82 50 75 82 51 74 82 51 74 82 51 74 82 51 74 82 51 74 82 51 74 82 52 75 83 51 74 82 51 74 82 51 74 82 51 74 82 52 75 83 52 75 83 51 74 82 52 75 83 51 74 82 51 74 82 51 74 82 51 74 82 51 76 83 50 73 81 51 74 82 51 74 82 50 75 82 51 74 82 52 75 83 50 73 81 51 74 82 51 74 82 51 74 82 52 75 83 51 74 82 51 75 79 51 74 82 51 74 82 51 74 80 52 75 81 51 74 80 51 74 80 50 75 80 51 76 83 51 76 83 50 75 82 19 27 29 0 0 0 2 6 5 15 44 26 20 52 31 19 52 31 19 52 31 37 47 49 65 34 68 
51 74 82 50 73 81 51 74 82 51 74 82 51 74 82 51 74 82 51 74 82 51 74 82 51 74 82 51 74 82 51 74 82 51 74 82 50 73 81 51 76 83 50 75 82 51 74 82 51 76 83 52 75 83 52 75 83 51 76 83 51 76 83 51 74 82 51 74 82 51 74 82 52 75 83 51 74 82 52 75 83 51 76 83 50 75 82 51 74 82 50 75 82 50 75 82 51 74 82 50 75 82 52 75 83 51 74 82 51 74 82 50 75 82 51 74 82 51 76 83 53 76 84 50 75 82 51 74 82 51 74 82 52 75 83 52 75 83 51 74 82 51 74 82 51 74 82 51 74 82 52 75 83 52 75 83 52 75 83 51 74 82 52 75 83 51 74 82 52 75 83 51 74 82 51 74 82 52 75 83 51 74 82 52 75 83 51 74 82 51 74 82 51 74 82 51 74 82 51 74 82 51 74 82 50 73 81 51 76 83 52 77 84 51 74 82 50 77 84 50 75 82 50 75 82 51 74 82 52 75 83 51 74 82 51 74 82 51 76 83 51 74 80 51 76 83 51 74 82 51 74 80 51 74 80 51 76 81 51 74 80 51 74 82 53 76 82 50 73 79 27 37 39 0 0 0 4 10 8 17 46 28 21 54 35 19 53 29 20 53 32 20 60 34 32 70 45 64 49 72 
51 74 82 51 74 82 51 74 82 50 73 81 50 73 81 52 75 83 51 74 82 51 74 82 51 74 82 52 75 83 50 73 81 51 74 82 51 74 82 52 75 83 51 74 82 51 74 82 50 73 81 51 74 82 51 74 82 52 75 83 50 75 82 51 74 82 50 75 82 50 75 82 50 73 81 51 74 82 53 73 82 51 74 82 51 74 82 51 74 82 51 74 82 52 75 83 51 76 83 50 75 82 50 75 82 51 74 82 52 75 83 51 74 82 50 73 81 51 74 82 51 74 82 51 74 82 51 74 82 51 74 82 51 74 82 50 73 81 51 76 83 51 76 83 52 75 83 51 74 82 51 74 82 51 74 82 51 74 82 52 75 83 51 74 82 51 74 82 52 75 83 52 75 83 50 75 82 51 74 82 51 74 82 49 74 81 51 74 82 51 74 82 51 74 82 51 74 82 53 73 82 50 75 82 51 76 83 51 74 82 51 74 82 50 75 82 51 74 82 50 73 81 51 74 82 49 74 81 51 74 82 52 75 83 52 75 83 49 74 81 51 76 83 51 74 82 52 75 81 51 76 81 51 76 81 50 75 82 51 74 80 51 74 80 51 76 83 43 64 69 2 6 5 3 8 4 17 46 26 19 54 30 19 53 29 20 53 32 22 61 34 27 74 42 26 75 45 39 65 54 
52 75 83 51 74 82 51 74 82 51 74 82 51 74 82 50 73 81 51 74 82 51 74 82 52 75 83 51 74 82 51 74 82 51 74 82 52 75 83 51 74 82 51 74 82 51 74 82 51 76 83 49 74 81 49 74 81 51 74 82 51 74 82 51 74 82 52 75 83 51 74 82 51 74 82 51 74 82 51 74 82 52 75 83 51 74 82 51 74 82 51 74 82 51 74 82 50 73 81 51 74 82 52 75 83 51 74 82 51 74 82 51 76 83 51 76 83 51 76 83 51 76 83 50 75 82 51 74 82 49 74 81 50 75 82 51 74 82 52 75 83 51 74 82 51 74 82 52 75 83 52 75 83 51 74 82 50 73 81 51 74 82 51 74 82 51 74 82 51 74 82 51 76 83 51 74 82 51 74 82 51 74 82 50 73 81 50 75 82 51 74 82 51 74 82 51 74 82 52 77 84 52 75 83 51 74 82 50 75 82 51 74 82 52 75 83 50 75 82 51 76 83 50 73 81 50 75 82 51 76 83 51 74 82 51 74 82 51 74 82 49 74 79 51 74 80 51 74 80 50 75 80 51 74 82 51 74 80 52 75 83 50 75 80 49 72 78 16 24 26 0 0 0 12 32 20 20 53 32 19 54 32 20 55 33 22 61 34 26 72 43 29 75 46 28 75 43 28 74 45 
50 75 82 52 75 83 51 74 82 52 75 83 50 75 82 49 74 81 51 76 83 51 74 82 51 74 82 51 74 82 51 74 82 51 74 82 51 74 82 50 75 82 50 75 82 51 74 82 51 74 82 51 74 82 51 74 82 51 74 82 50 73 81 49 74 81 50 75 82 54 74 83 49 74 81 51 76 83 50 75 82 51 74 82 51 74 82 51 76 83 51 74 82 51 74 82 50 75 82 51 74 82 50 75 82 51 74 82 51 74 82 51 74 82 50 75 82 50 73 81 51 74 82 51 74 82 51 74 82 51 74 82 51 74 82 51 74 82 50 75 82 51 74 82 52 75 83 51 74 82 51 74 82 51 74 82 52 75 83 51 74 82 51 74 82 51 74 82 51 74 82 51 76 83 52 75 83 52 75 83 50 73 81 53 76 84 50 75 82 51 74 82 50 75 82 53 73 82 51 74 82 52 75 83 50 75 82 51 74 82 51 74 82 52 75 83 53 73 82 51 74 82 51 74 82 51 74 82 50 75 82 52 75 83 52 75 83 51 74 82 51 74 80 50 75 80 51 74 80 51 74 80 53 73 82 51 74 80 50 75 82 51 74 82 32 47 52 2 2 2 2 7 3 18 47 27 23 50 35 23 51 36 24 64 37 25 74 44 27 74 42 27 73 44 27 73 44 27 74 42 
51 74 82 51 74 82 51 74 82 50 73 81 52 75 83 51 74 82 52 75 83 52 75 83 49 74 81 51 74 82 50 73 81 52 75 83 50 75 82 51 74 82 51 74 82 51 74 82 52 75 83 50 75 82 51 74 82 52 72 81 51 74 82 51 74 82 52 75 83 51 74 82 50 75 82 50 75 82 50 75 82 51 74 82 49 72 80 50 75 82 52 75 83 51 74 82 51 74 82 51 74 82 51 74 82 51 74 82 51 74 82 50 75 82 51 76 83 51 76 83 51 74 82 48 73 80 50 73 81 50 75 82 51 74 82 51 74 82 51 74 82 51 74 82 50 73 81 51 74 82 51 74 82 50 73 81 51 74 82 51 74 82 52 75 83 51 74 82 51 76 83 51 74 82 51 76 83 51 74 82 50 73 81 50 75 82 51 74 82 51 76 83 53 73 82 50 75 82 49 74 81 51 74 82 51 74 82 51 74 82 51 74 82 49 74 81 49 74 81 50 75 82 51 76 83 50 75 82 50 73 81 51 74 82 52 75 83 50 75 82 50 75 80 52 75 83 51 74 82 50 73 79 50 73 79 48 76 80 51 74 80 41 59 63 5 9 8 1 1 1 12 32 20 30 47 41 53 29 61 63 36 69 40 66 53 26 75 45 28 74 46 27 73 44 28 74 45 27 74 42 
51 74 82 51 74 82 51 74 82 51 74 82 51 74 82 52 75 83 50 73 81 51 74 82 51 74 82 51 74 82 51 74 82 51 74 82 50 73 81 52 75 83 51 74 82 50 73 81 52 75 83 50 75 82 53 73 82 49 74 81 49 74 81 50 73 81 51 74 82 51 76 83 50 73 81 51 74 82 51 74 82 51 74 82 51 74 82 52 75 83 50 73 81 48 73 80 51 74 82 50 75 82 51 74 82 51 74 82 51 74 82 50 75 82 51 74 82 50 75 82 51 74 82 50 73 81 50 73 81 51 74 82 51 76 83 50 73 81 51 74 82 51 74 82 50 73 81 50 73 81 51 74 82 51 74 82 51 74 82 51 74 82 51 74 82 51 74 82 50 75 82 50 75 82 52 75 83 49 74 81 51 76 83 51 74 82 50 75 82 50 75 82 50 75 82 51 74 82 52 75 83 50 73 81 52 75 83 50 75 82 51 74 82 52 77 84 48 73 80 51 74 82 51 74 82 52 75 83 52 75 83 51 74 82 51 74 82 51 76 83 51 74 80 51 74 80 51 74 80 49 74 79 50 73 79 51 74 82 37 55 59 5 6 8 0 0 0 9 22 13 30 45 40 50 30 57 66 32 69 76 37 82 73 43 79 32 70 49 27 74 42 32 70 47 58 52 66 55 51 65 
