P3
100 50
255
96 61 57 96 61 57 96 61 57 96 61 57 96 61 57 98 60 57 99 61 58 98 60 57 99 61 58 98 60 57 99 61 58 99 61 58 97 62 58 97 62 58 96 61 57 97 62 58 97 62 58 97 62 58 97 62 58 97 62 58 96 61 57 97 62 58 97 62 58 96 61 57 97 62 58 97 62 58 97 62 58 99 61 58 96 61 57 97 62 58 99 61 58 99 61 58 96 61 57 99 61 58 96 61 57 99 61 58 98 60 57 96 61 57 99 61 58 98 63 59 99 61 58 99 61 58 99 61 58 96 61 57 99 61 58 96 61 57 97 62 58 96 61 57 97 62 58 98 60 57 96 61 57 97 62 58 98 60 57 99 61 58 98 63 59 99 61 58 98 63 59 97 62 58 96 61 57 99 61 58 97 62 58 99 61 58 97 62 58 97 62 58 99 61 58 99 61 58 96 61 57 97 62 58 97 62 58 96 61 57 98 60 57 99 61 58 98 60 57 100 62 59 98 60 57 98 60 57 99 61 58 98 60 57 97 59 56 99 61 58 98 60 57 98 60 57 99 61 58 98 60 57 99 61 58 99 61 58 98 60 57 99 61 58 98 60 57 97 62 58 100 62 59 97 62 58 98 63 59 97 62 58 99 61 58 96 61 57 99 61 58 99 61 58 100 62 59 99 61 58 
97 62 58 98 63 59 98 63 59 99 61 58 99 61 58 98 60 57 99 61 58 100 62 59 98 60 57 100 62 59 99 61 58 99 61 58 96 61 57 97 62 58 97 62 58 97 62 58 101 63 60 97 62 58 97 62 58 98 60 57 100 62 59 96 61 57 97 62 58 100 62 59 99 61 58 99 61 58 99 61 58 99 61 58 98 60 57 99 61 58 98 60 57 97 62 58 98 60 57 97 62 58 99 61 58 97 62 58 98 63 59 98 60 57 97 62 58 99 61 58 97 62 58 97 62 58 97 62 58 96 61 57 99 61 58 99 61 58 99 61 58 99 61 58 99 61 58 97 62 58 99 61 58 99 61 58 96 61 57 96 61 57 99 61 58 97 62 58 98 60 57 97 62 58 99 61 58 96 61 57 98 60 57 96 61 57 99 61 58 98 60 57 99 64 60 97 62 58 98 60 57 99 61 58 99 61 58 99 61 58 96 61 57 96 61 57 98 60 57 99 61 58 100 62 59 99 61 58 99 61 58 99 61 58 99 61 58 99 61 58 98 60 57 99 61 58 99 61 58 98 60 57 98 60 57 98 60 57 99 61 58 98 60 57 97 62 58 98 60 57 97 62 58 99 61 58 98 63 59 98 60 57 96 61 57 98 60 57 98 60 57 98 60 57 99 61 58 99 61 58 
97 62 58 96 61 57 97 62 58 99 61 58 98 60 57 99 61 58 99 61 58 99 61 58 99 61 58 99 61 58 99 61 58 98 60 57 97 62 58 97 62 58 97 62 58 97 62 58 96 61 57 99 61 58 99 61 58 97 62 58 97 62 58 99 61 58 100 62 59 96 61 57 97 62 58 97 62 58 97 62 58 95 62 57 99 61 58 100 62 59 97 62 58 97 62 58 98 60 57 99 61 58 96 61 57 98 63 59 97 62 58 96 61 57 99 61 58 98 60 57 98 63 59 96 61 57 96 61 57 100 62 59 96 61 57 98 60 57 99 61 58 99 61 58 99 61 58 96 61 57 98 60 57 99 61 58 97 62 58 97 62 58 100 62 59 96 61 57 98 60 57 99 61 58 97 62 58 99 61 58 98 63 59 98 60 57 98 63 59 99 61 58 99 61 58 98 60 57 97 62 58 97 62 58 98 63 59 96 61 57 99 61 58 98 60 57 98 60 57 98 60 57 98 60 57 98 60 57 99 61 58 98 60 57 98 60 57 99 61 58 98 60 57 98 60 57 98 60 57 99 61 58 98 60 57 98 60 57 99 61 58 99 61 58 96 61 57 99 61 58 98 63 59 99 61 58 96 61 57 98 60 57 98 63 59 99 61 58 98 60 57 98 60 57 97 59 56 98 60 57 
97 62 58 97 62 58 98 63 59 98 63 59 96 61 57 98 60 57 99 61 58 99 61 58 99 61 58 99 61 58 99 61 58 99 61 58 96 61 57 97 62 58 96 61 57 98 63 59 99 61 58 96 61 57 96 61 57 98 60 57 99 61 58 96 61 57 97 62 58 99 61 58 98 63 59 96 61 57 97 62 58 97 62 58 97 62 58 96 61 57 99 61 58 98 60 57 99 61 58 99 61 58 96 61 57 97 62 58 97 62 58 97 62 58 100 62 59 99 61 58 99 61 58 100 62 59 99 61 58 98 60 57 97 62 58 97 62 58 97 62 58 96 61 57 96 61 57 99 61 58 97 62 58 96 61 57 99 61 58 98 60 57 96 61 57 98 60 57 97 62 58 97 62 58 98 60 57 97 62 58 98 60 57 97 62 58 96 61 57 97 62 58 97 62 58 97 62 58 97 59 56 99 61 58 99 61 58 99 61 58 96 61 57 96 61 57 99 61 58 98 60 57 99 61 58 99 61 58 98 60 57 99 61 58 99 61 58 99 61 58 98 60 57 99 61 58 99 61 58 98 60 57 99 61 58 98 60 57 99 61 58 98 60 57 98 60 57 98 60 57 99 61 58 97 62 58 98 60 57 98 60 57 99 61 58 99 61 58 98 60 57 99 61 58 99 61 58 99 61 58 
96 61 57 97 62 58 96 61 57 96 61 57 97 62 58 99 61 58 98 60 57 99 61 58 99 61 58 98 60 57 99 61 58 99 61 58 97 62 58 96 61 57 96 61 57 97 62 58 99 61 58 99 61 58 98 60 57 98 60 57 99 61 58 99 61 58 99 61 58 99 61 58 99 61 58 99 61 58 99 61 58 98 58 56 97 62 58 96 61 57 99 61 58 98 60 57 99 61 58 96 61 57 98 60 57 97 62 58 97 62 58 99 61 58 96 61 57 99 61 58 98 60 57 97 62 58 99 61 58 98 60 57 97 62 58 96 61 57 98 60 57 97 62 58 97 62 58 99 61 58 96 61 57 97 62 58 98 60 57 99 61 58 97 62 58 99 61 58 97 59 56 98 60 57 97 59 56 100 62 59 98 60 57 99 61 58 98 60 57 99 61 58 97 62 58 97 62 58 99 61 58 99 61 58 99 61 58 99 61 58 98 63 59 97 62 58 99 61 58 99 61 58 99 61 58 99 61 58 99 61 58 97 59 56 98 60 57 99 61 58 99 61 58 98 60 57 100 62 59 98 60 57 99 61 58 100 62 59 99 61 58 98 60 57 99 61 58 99 61 58 98 60 57 96 61 57 99 61 58 99 61 58 98 60 57 99 61 58 98 60 57 99 61 58 100 62 59 99 61 58 
96 61 57 96 61 57 97 62 58 99 61 58 99 61 58 99 61 58 99 61 58 99 61 58 98 60 57 99 61 58 99 61 58 98 60 57 97 62 58 97 62 58 96 61 57 96 61 57 98 60 57 99 61 58 98 60 57 98 60 57 98 60 57 98 60 57 98 60 57 98 60 57 96 61 57 96 61 57 96 61 57 97 62 58 100 62 59 99 61 58 97 62 58 97 62 58 99 61 58 98 60 57 97 62 58 96 61 57 97 62 58 97 62 58 99 61 58 99 61 58 97 62 58 96 61 57 97 62 58 99 61 58 97 62 58 99 61 58 99 61 58 99 61 58 99 61 58 97 62 58 99 61 58 99 61 58 97 62 58 97 62 58 98 60 57 96 61 57 97 62 58 97 62 58 97 62 58 96 61 57 97 62 58 97 62 58 97 62 58 96 61 57 98 60 57 99 61 58 98 63 59 96 61 57 97 62 58 97 62 58 99 61 58 98 60 57 99 61 58 98 60 57 98 60 57 99 61 58 98 60 57 98 60 57 99 61 58 99 61 58 99 61 58 100 62 59 98 60 57 99 61 58 99 61 58 99 61 58 100 62 59 98 60 57 97 62 58 99 61 58 96 61 57 98 60 57 99 59 57 99 61 58 96 61 57 98 60 57 98 60 57 99 61 58 100 62 59 99 61 58 
97 62 58 96 61 57 97 62 58 96 61 57 97 62 58 97 62 58 96 61 57 98 63 59 96 61 57 96 61 57 97 62 58 99 61 58 96 61 57 97 59 56 97 62 58 98 63 59 96 61 57 98 63 59 100 62 59 97 62 58 97 62 58 100 62 59 99 61 58 99 61 58 96 61 57 96 61 57 96 61 57 96 61 57 97 62 58 99 61 58 97 62 58 98 60 57 96 61 57 97 62 58 96 61 57 96 61 57 97 62 58 97 62 58 96 61 57 96 61 57 99 61 58 99 61 58 99 61 58 99 61 58 99 61 58 99 61 58 98 60 57 100 62 59 96 61 57 97 62 58 96 61 57 98 63 59 96 61 57 97 62 58 96 61 57 97 62 58 97 62 58 99 61 58 97 62 58 96 61 57 97 59 56 98 60 57 97 62 58 98 60 57 98 60 57 96 61 57 98 60 57 96 61 57 97 62 58 99 61 58 97 62 58 100 62 59 98 60 57 96 61 57 99 61 58 99 61 58 96 61 57 97 62 58 99 61 58 96 61 57 99 61 58 97 62 58 96 61 57 96 61 57 99 61 58 99 61 58 99 61 58 96 61 57 96 61 57 96 61 57 99 61 58 98 60 57 98 60 57 99 61 58 96 61 57 96 61 57 97 62 58 97 62 58 97 62 58 98 60 57 
96 61 57 98 63 59 96 61 57 96 61 57 96 61 57 96 61 57 96 61 57 97 62 58 97 62 58 96 61 57 98 63 59 97 62 58 96 61 57 97 62 58 96 61 57 98 63 59 97 62 58 97 62 58 98 63 59 96 61 57 100 62 59 98 60 57 99 61 58 99 61 58 99 61 58 96 61 57 98 63 59 97 62 58 96 61 57 99 61 58 95 60 56 97 62 58 97 62 58 96 61 57 98 63 59 96 61 57 97 62 58 96 61 57 97 62 58 96 61 57 99 61 58 99 61 58 99 61 58 100 62 59 99 61 58 98 60 57 98 60 57 99 61 58 99 61 58 98 60 57 99 61 58 98 60 57 99 61 58 99 61 58 98 60 57 98 60 57 98 60 57 97 62 58 98 60 57 96 61 57 98 60 57 98 63 59 99 61 58 96 61 57 96 61 57 99 61 58 97 62 58 99 61 58 99 61 58 97 62 58 99 61 58 97 62 58 99 61 58 96 61 57 99 61 58 98 60 57 96 61 57 96 61 57 99 61 58 96 61 57 99 61 58 97 62 58 96 61 57 97 62 58 99 61 58 98 60 57 99 61 58 97 62 58 98 60 57 99 61 58 97 62 58 96 61 57 96 61 57 97 62 58 99 61 58 98 60 57 96 61 57 96 61 57 97 62 58 96 61 57 
97 62 58 96 61 57 97 62 58 97 62 58 96 61 57 97 62 58 97 62 58 96 61 57 97 62 58 97 62 58 96 61 57 97 62 58 99 64 60 96 61 57 99 64 60 96 61 57 97 62 58 98 60 57 96 61 57 99 61 58 97 59 56 97 62 58 97 59 56 99 61 58 100 62 59 96 61 57 99 61 58 96 61 57 97 62 58 97 62 58 96 61 57 96 61 57 96 61 57 98 63 59 97 62 58 96 61 57 96 61 57 97 62 58 96 61 57 97 62 58 99 61 58 99 61 58 98 60 57 99 61 58 99 61 58 99 61 58 98 60 57 98 60 57 96 61 57 97 62 58 96 61 57 96 61 57 97 62 58 96 61 57 97 62 58 97 62 58 98 60 57 97 62 58 97 62 58 99 61 58 96 61 57 99 61 58 99 61 58 96 61 57 98 60 57 96 61 57 97 59 56 96 61 57 96 61 57 99 61 58 96 61 57 97 59 56 99 61 58 99 61 58 98 60 57 99 61 58 98 60 57 99 61 58 99 61 58 98 60 57 100 62 59 97 62 58 96 61 57 97 62 58 99 61 58 98 60 57 99 61 58 97 62 58 96 61 57 97 62 58 99 61 58 99 61 58 99 61 58 99 61 58 97 62 58 96 61 57 97 62 58 97 62 58 96 61 57 96 61 57 
96 61 57 97 62 58 96 61 57 96 61 57 97 62 58 96 61 57 97 62 58 95 60 56 97 62 58 96 61 57 98 60 57 97 62 58 98 60 57 97 62 58 97 62 58 97 62 58 96 61 57 98 60 57 97 62 58 99 61 58 98 60 57 97 62 58 99 61 58 97 62 58 99 61 58 96 61 57 97 62 58 97 62 58 96 61 57 97 62 58 96 61 57 97 62 58 97 62 58 97 62 58 97 62 58 96 61 57 97 62 58 96 61 57 96 61 57 97 62 58 98 60 57 99 61 58 99 61 58 98 60 57 98 60 57 98 60 57 98 60 57 99 61 58 100 62 59 97 59 56 98 60 57 99 61 58 98 60 57 99 61 58 98 60 57 98 60 57 99 61 58 97 62 58 99 61 58 96 61 57 98 60 57 96 61 57 99 61 58 98 63 59 98 60 57 97 62 58 99 61 58 96 61 57 97 62 58 99 61 58 96 61 57 99 61 58 97 62 58 96 61 57 97 62 58 96 61 57 96 61 57 96 61 57 96 61 57 97 62 58 99 61 58 96 61 57 96 61 57 96 61 57 98 60 57 98 60 57 99 61 58 97 62 58 96 61 57 97 62 58 98 60 57 99 61 58 99 61 58 98 60 57 97 62 58 96 61 57 97 62 58 96 61 57 99 61 58 97 62 58 
97 62 58 97 62 58 96 61 57 96 61 57 97 62 58 96 61 57 96 61 57 97 62 58 96 61 57 96 61 57 98 60 57 97 62 58 100 62 59 97 62 58 97 62 58 96 61 57 98 60 57 96 61 57 99 61 58 97 62 58 96 61 57 99 61 58 98 63 59 98 60 57 96 61 57 96 61 57 96 61 57 96 61 57 97 62 58 97 62 58 99 61 58 96 61 57 96 61 57 98 63 59 97 62 58 97 62 58 97 62 58 98 63 59 96 61 57 97 62 58 99 61 58 99 61 58 99 61 58 98 60 57 98 60 57 98 60 57 99 61 58 98 60 57 97 62 58 97 62 58 96 61 57 95 60 56 96 61 57 97 62 58 97 62 58 96 61 57 97 62 58 98 60 57 96 61 57 98 60 57 97 62 58 99 61 58 97 62 58 99 61 58 96 61 57 99 61 58 98 63 59 99 61 58 97 59 56 97 62 58 98 60 57 98 63 59 99 61 58 98 60 57 97 59 56 99 61 58 100 62 59 99 61 58 97 59 56 98 60 57 97 62 58 98 60 57 98 60 57 98 60 57 96 61 57 97 62 58 97 62 58 98 60 57 99 61 58 98 60 57 96 61 57 97 62 58 97 62 58 96 61 57 98 60 57 99 61 58 97 62 58 96 61 57 98 60 57 96 61 57 
97 62 58 97 62 58 96 61 57 98 63 59 96 61 57 96 61 57 97 62 58 96 61 57 96 61 57 96 61 57 96 61 57 96 61 57 96 61 57 96 61 57 95 60 56 96 61 57 99 61 58 96 61 57 99 61 58 96 61 57 96 61 57 98 60 57 97 62 58 96 61 57 96 61 57 97 62 58 96 61 57 99 61 58 98 60 57 96 63 58 99 61 58 99 61 58 96 61 57 97 62 58 97 62 58 96 61 57 97 62 58 96 61 57 96 61 57 96 61 57 98 60 57 99 61 58 100 62 59 98 60 57 98 60 57 99 61 58 98 60 57 98 60 57 98 60 57 98 60 57 98 60 57 98 60 57 99 61 58 98 60 57 99 61 58 98 60 57 96 61 57 99 61 58 98 60 57 96 61 57 99 61 58 97 62 58 96 61 57 99 61 58 97 62 58 98 60 57 97 62 58 98 60 57 98 60 57 97 62 58 98 60 57 96 61 57 96 61 57 97 62 58 98 63 59 97 62 58 96 61 57 96 61 57 96 61 57 97 62 58 96 61 57 99 61 58 101 63 60 99 61 58 96 61 57 97 62 58 97 62 58 98 60 57 98 60 57 98 60 57 97 62 58 96 61 57 96 61 57 97 62 58 98 60 57 98 60 57 96 61 57 96 61 57 97 62 58 97 62 58 
96 61 57 97 62 58 96 61 57 97 62 58 97 62 58 96 61 57 96 61 57 96 61 57 97 62 58 97 62 58 96 61 57 96 61 57 97 62 58 97 62 58 96 61 57 97 62 58 99 61 58 98 60 57 99 61 58 99 61 58 96 61 57 96 61 57 97 62 58 96 61 57 96 61 57 99 61 58 97 62 58 97 62 58 96 61 57 96 61 57 98 60 57 97 62 58 97 62 58 97 62 58 97 62 58 98 63 59 95 60 56 97 62 58 98 63 59 96 61 57 98 60 57 99 61 58 99 61 58 98 60 57 98 60 57 99 61 58 98 60 57 99 61 58 97 62 58 97 62 58 96 61 57 96 61 57 96 61 57 97 62 58 95 60 56 96 61 57 96 61 57 99 61 58 97 62 58 99 61 58 96 61 57 98 60 57 96 61 57 98 60 57 99 61 58 97 62 58 98 60 57 96 61 57 98 63 59 99 61 58 96 61 57 99 61 58 96 61 57 99 61 58 96 61 57 96 61 57 99 61 58 98 60 57 96 61 57 98 60 57 96 61 57 98 60 57 99 61 58 99 61 58 96 61 57 96 61 57 97 62 58 99 61 58 96 61 57 96 61 57 99 61 58 99 61 58 99 61 58 99 61 58 96 61 57 96 61 57 96 61 57 97 62 58 98 63 59 97 62 58 
96 61 57 97 62 58 97 62 58 96 61 57 97 62 58 97 62 58 97 62 58 97 62 58 96 61 57 97 62 58 96 61 57 98 60 57 97 62 58 99 61 58 96 61 57 98 63 59 98 60 57 98 60 57 97 62 58 99 61 58 98 60 57 97 62 58 96 61 57 96 61 57 96 61 57 100 60 58 95 60 56 99 61 58 96 61 57 94 61 56 96 61 57 96 61 57 97 62 58 97 62 58 95 60 56 96 61 57 97 62 58 96 61 57 97 62 58 96 61 57 99 61 58 99 61 58 99 61 58 98 60 57 99 61 58 98 60 57 99 61 58 98 60 57 98 60 57 98 60 57 99 61 58 98 60 57 99 61 58 98 60 57 99 61 58 97 59 56 99 61 58 96 61 57 98 60 57 98 60 57 96 61 57 96 61 57 99 61 58 96 61 57 96 61 57 98 60 57 96 61 57 98 60 57 99 61 58 96 61 57 99 61 58 96 61 57 97 62 58 99 61 58 96 61 57 96 61 57 99 61 58 99 61 58 96 61 57 99 61 58 97 62 58 99 61 58 98 60 57 98 60 57 96 61 57 95 60 56 97 62 58 99 61 58 99 61 58 98 60 57 96 61 57 97 62 58 97 62 58 96 61 57 98 60 57 99 61 58 97 62 58 97 62 58 97 62 58 99 61 58 
96 61 57 99 61 58 99 61 58 99 61 58 98 60 57 97 62 58 98 60 57 98 60 57 98 60 57 98 60 57 98 60 57 98 60 57 99 61 58 98 60 57 98 60 57 98 60 57 98 60 57 96 61 57 96 61 57 97 62 58 99 61 58 97 62 58 97 62 58 98 63 59 97 62 58 96 61 57 96 61 57 96 61 57 99 61 58 98 60 57 96 61 57 96 61 57 98 60 57 99 61 58 98 60 57 99 61 58 98 60 57 99 61 58 97 59 56 98 60 57 97 62 58 96 61 57 96 61 57 97 62 58 96 61 57 96 61 57 97 62 58 96 61 57 96 61 57 97 62 58 95 60 56 97 62 58 96 61 57 96 61 57 95 60 56 96 61 57 96 61 57 97 62 58 97 62 58 96 61 57 97 62 58 97 62 58 97 62 58 96 61 57 96 61 57 96 61 57 96 61 57 97 62 58 96 61 57 96 61 57 97 62 58 96 61 57 99 61 58 96 61 57 98 60 57 97 62 58 97 62 58 98 60 57 97 62 58 99 61 58 96 61 57 96 61 57 97 62 58 99 61 58 96 61 57 97 62 58 97 59 56 96 61 57 97 62 58 96 61 57 96 61 57 97 62 58 97 62 58 96 61 57 97 62 58 97 62 58 97 62 58 97 62 58 96 61 57 96 61 57 
95 60 56 99 61 58 95 62 57 95 60 56 98 60 57 99 61 58 96 61 57 99 61 58 98 60 57 99 61 58 99 61 58 98 60 57 99 61 58 99 61 58 98 60 57 99 61 58 96 61 57 96 61 57 97 62 58 99 61 58 98 63 59 95 60 56 96 61 57 99 61 58 96 61 57 98 60 57 99 61 58 99 61 58 99 61 58 96 61 57 96 61 57 98 60 57 97 62 58 97 62 58 96 61 57 97 62 58 96 61 57 96 61 57 97 62 58 97 62 58 97 62 58 95 60 56 97 62 58 96 61 57 95 60 56 97 62 58 96 61 57 96 61 57 97 62 58 96 61 57 97 62 58 96 61 57 96 61 57 97 62 58 96 61 57 96 61 57 97 62 58 96 61 57 96 61 57 98 63 59 97 62 58 96 61 57 96 61 57 97 62 58 97 62 58 96 61 57 98 60 57 96 61 57 97 59 56 96 61 57 97 62 58 97 62 58 96 61 57 97 62 58 97 62 58 96 61 57 96 61 57 97 62 58 97 62 58 96 61 57 95 60 56 99 61 58 97 62 58 96 61 57 99 61 58 97 62 58 96 61 57 97 62 58 96 61 57 99 61 58 97 62 58 98 60 57 96 61 57 98 60 57 97 62 58 99 61 58 97 62 58 97 62 58 97 62 58 96 61 57 
98 60 57 97 62 58 98 63 59 96 61 57 96 61 57 96 61 57 99 61 58 95 62 57 99 61 58 97 62 58 95 60 56 99 61 58 100 62 59 97 62 58 96 61 57 98 60 57 97 62 58 97 62 58 98 60 57 99 61 58 97 62 58 95 62 57 97 62 58 99 61 58 96 61 57 96 61 57 97 62 58 97 62 58 97 62 58 96 61 57 96 61 57 96 61 57 96 61 57 96 61 57 97 62 58 96 61 57 97 62 58 97 62 58 96 61 57 96 61 57 98 63 59 97 62 58 97 62 58 97 62 58 96 61 57 97 62 58 96 61 57 97 62 58 97 62 58 96 61 57 96 61 57 97 62 58 97 62 58 97 62 58 96 61 57 96 61 57 96 61 57 96 61 57 97 62 58 97 62 58 97 62 58 96 61 57 97 62 58 96 61 57 96 61 57 96 61 57 96 61 57 99 61 58 98 60 57 99 61 58 97 62 58 96 61 57 98 60 57 96 61 57 98 60 57 96 61 57 97 62 58 99 61 58 97 62 58 99 61 58 97 62 58 97 62 58 96 61 57 98 60 57 96 61 57 96 61 57 98 60 57 97 62 58 98 60 57 96 61 57 98 60 57 96 61 57 99 61 58 97 62 58 99 61 58 97 62 58 96 61 57 96 61 57 96 61 57 97 62 58 
94 61 56 96 61 57 97 62 58 94 61 56 98 60 57 96 61 57 96 61 57 96 61 57 97 62 58 96 61 57 96 61 57 96 61 57 96 61 57 96 61 57 96 61 57 97 62 58 97 62 58 95 60 56 96 61 57 99 61 58 97 62 58 96 61 57 96 61 57 99 61 58 97 62 58 96 61 57 96 61 57 98 60 57 96 61 57 96 61 57 96 61 57 96 61 57 96 61 57 96 61 57 97 62 58 96 61 57 96 61 57 95 60 56 96 61 57 96 61 57 97 62 58 97 62 58 97 62 58 96 61 57 97 62 58 96 61 57 97 62 58 97 62 58 96 61 57 96 61 57 96 61 57 96 61 57 97 62 58 96 61 57 97 62 58 96 61 57 96 61 57 97 62 58 96 61 57 97 62 58 96 61 57 98 63 59 96 61 57 96 61 57 96 61 57 96 61 57 98 60 57 97 62 58 98 60 57 96 61 57 97 62 58 96 61 57 97 62 58 96 61 57 96 61 57 97 62 58 97 62 58 96 61 57 96 61 57 96 61 57 96 61 57 96 61 57 96 61 57 96 61 57 97 62 58 96 61 57 96 61 57 96 61 57 97 62 58 96 61 57 96 61 57 96 61 57 96 61 57 96 61 57 97 62 58 96 61 57 97 62 58 97 62 58 98 63 59 97 62 58 
97 62 58 96 61 57 96 61 57 99 61 58 96 61 57 96 61 57 99 61 58 96 61 57 96 61 57 96 61 57 96 61 57 96 61 57 96 61 57 96 61 57 97 62 58 95 60 56 98 60 57 96 61 57 96 61 57 97 62 58 99 61 58 95 60 56 97 62 58 97 62 58 96 61 57 96 61 57 98 60 57 98 60 57 96 61 57 95 60 56 96 61 57 96 61 57 97 62 58 96 61 57 96 61 57 97 62 58 97 62 58 96 61 57 96 61 57 97 62 58 96 61 57 97 62 58 97 62 58 96 61 57 96 61 57 97 62 58 97 62 58 96 61 57 98 63 59 95 60 56 95 60 56 96 61 57 97 62 58 96 61 57 96 61 57 96 61 57 97 62 58 96 61 57 96 61 57 96 61 57 97 62 58 96 61 57 96 61 57 96 61 57 97 62 58 96 61 57 96 61 57 96 61 57 96 61 57 96 61 57 97 62 58 96 61 57 96 61 57 96 61 57 96 61 57 96 61 57 96 61 57 97 62 58 97 62 58 96 61 57 97 62 58 97 62 58 96 61 57 97 62 58 96 61 57 97 62 58 96 61 57 97 62 58 96 61 57 97 62 58 97 62 58 96 61 57 96 61 57 96 61 57 96 61 57 97 62 58 95 60 56 96 61 57 96 61 57 96 61 57 
96 61 57 97 62 58 96 61 57 96 61 57 96 61 57 94 59 55 96 61 57 95 60 56 96 61 57 96 61 57 96 61 57 96 61 57 97 62 58 96 61 57 96 61 57 96 61 57 99 61 58 96 61 57 95 62 57 96 61 57 98 60 57 98 60 57 96 61 57 96 61 57 96 61 57 96 61 57 96 61 57 96 61 57 97 62 58 96 61 57 96 61 57 95 60 56 95 60 56 97 62 58 96 61 57 96 61 57 96 61 57 96 61 57 97 62 58 97 62 58 97 62 58 96 61 57 98 63 59 96 61 57 96 61 57 97 62 58 96 61 57 97 62 58 96 61 57 96 61 57 96 61 57 96 61 57 96 61 57 97 62 58 96 61 57 96 61 57 96 61 57 96 61 57 96 61 57 97 62 58 96 61 57 96 61 57 96 61 57 96 61 57 97 62 58 96 61 57 96 61 57 96 61 57 96 61 57 96 61 57 97 62 58 96 61 57 96 61 57 96 61 57 96 61 57 96 61 57 96 61 57 96 61 57 96 61 57 96 61 57 96 61 57 96 61 57 96 61 57 97 62 58 96 61 57 96 61 57 97 62 58 97 62 58 97 62 58 97 62 58 97 62 58 97 62 58 96 61 57 96 61 57 96 61 57 96 61 57 97 62 58 96 61 57 97 62 58 97 62 58 
95 60 56 96 61 57 98 60 57 97 62 58 96 61 57 96 61 57 98 60 57 99 61 58 97 62 58 95 60 56 96 61 57 96 61 57 96 61 57 97 62 58 97 62 58 95 60 56 99 61 58 97 62 58 97 62 58 97 62 58 99 61 58 96 61 57 96 61 57 96 61 57 96 61 57 96 61 57 96 61 57 96 61 57 97 62 58 96 61 57 96 61 57 95 60 56 95 60 56 95 60 56 96 61 57 96 61 57 96 61 57 95 60 56 97 62 58 96 61 57 96 61 57 95 60 56 96 61 57 97 62 58 97 62 58 96 61 57 95 60 56 96 61 57 96 61 57 96 61 57 96 61 57 96 61 57 97 62 58 96 61 57 96 61 57 97 62 58 96 61 57 96 61 57 97 62 58 96 61 57 96 61 57 96 61 57 97 62 58 96 61 57 96 61 57 96 61 57 97 62 58 97 62 58 96 61 57 96 61 57 96 61 57 96 61 57 96 61 57 96 61 57 96 61 57 96 61 57 96 61 57 96 61 57 96 61 57 97 62 58 97 62 58 97 62 58 96 61 57 96 61 57 95 60 56 96 61 57 96 61 57 96 61 57 97 62 58 96 61 57 96 61 57 96 61 57 96 61 57 97 62 58 96 61 57 96 61 57 97 62 58 95 60 56 96 61 57 96 61 57 
97 62 58 94 59 55 96 61 57 98 60 57 96 61 57 96 61 57 95 60 56 97 62 58 96 61 57 97 62 58 96 61 57 95 60 56 96 61 57 96 61 57 95 60 56 97 62 58 96 61 57 97 62 58 97 62 58 98 60 57 96 61 57 95 60 56 96 61 57 98 60 57 96 61 57 96 61 57 97 62 58 96 61 57 96 61 57 96 61 57 96 61 57 96 61 57 97 62 58 96 61 57 97 62 58 96 61 57 96 61 57 96 61 57 96 61 57 97 62 58 96 61 57 96 61 57 97 62 58 96 61 57 96 61 57 96 61 57 96 61 57 95 60 56 97 62 58 96 61 57 96 61 57 96 61 57 96 61 57 96 61 57 97 62 58 97 62 58 96 61 57 96 61 57 96 61 57 95 60 56 96 61 57 96 61 57 96 61 57 96 61 57 97 62 58 96 61 57 96 61 57 96 61 57 96 61 57 95 60 56 97 62 58 96 61 57 96 61 57 96 61 57 96 61 57 96 61 57 96 61 57 96 61 57 96 61 57 96 61 57 96 61 57 96 61 57 96 61 57 96 61 57 97 62 58 97 62 58 96 61 57 96 61 57 96 61 57 96 61 57 96 61 57 96 61 57 96 61 57 96 61 57 95 60 56 97 62 58 96 61 57 96 61 57 97 62 58 96 61 57 
95 60 56 95 60 56 95 60 56 96 61 57 96 61 57 96 61 59 97 62 58 96 61 57 96 61 57 98 60 57 98 60 57 96 61 57 97 62 58 96 61 57 94 59 55 95 60 56 97 62 58 99 61 58 99 61 58 96 61 57 96 61 57 98 60 57 99 61 58 96 61 57 96 61 57 96 61 57 96 61 57 96 61 57 96 61 57 96 61 57 96 61 57 95 60 56 97 62 58 96 61 57 97 62 58 96 61 57 96 61 57 96 61 57 97 62 58 96 61 57 96 61 57 96 61 57 96 61 57 97 62 58 96 61 57 96 61 57 96 61 57 96 61 57 96 61 57 97 62 58 96 61 57 96 61 57 96 61 57 97 62 58 96 61 57 98 63 59 98 60 57 96 61 57 96 61 57 97 62 58 98 60 57 96 61 57 95 60 56 96 61 57 96 61 57 96 61 57 96 61 57 96 61 57 96 61 57 96 61 57 96 61 57 96 61 57 98 63 59 97 62 58 96 61 57 96 61 57 95 60 56 96 61 57 96 61 57 97 62 58 96 61 57 96 61 57 97 62 58 96 61 57 96 61 57 96 61 57 97 62 58 96 61 57 96 61 57 96 61 57 97 62 58 96 61 57 96 61 57 96 61 57 96 61 57 97 62 58 96 61 57 97 62 58 97 62 58 95 60 56 
96 61 59 96 61 57 97 62 58 96 61 57 96 61 57 95 60 56 96 61 57 96 61 57 96 61 57 96 61 57 96 61 57 97 59 56 95 60 56 96 61 57 97 62 58 96 61 57 96 61 57 98 60 57 98 60 57 95 60 56 96 61 57 98 60 57 98 60 57 96 61 57 96 61 57 95 60 56 96 61 57 96 61 57 97 62 58 96 61 57 96 61 57 95 60 56 96 61 57 97 62 58 96 61 57 96 61 57 96 61 57 97 62 58 96 61 57 96 61 57 96 61 57 96 61 57 96 61 57 97 62 58 96 61 57 95 60 56 96 61 57 96 61 57 96 61 57 96 61 57 96 61 59 97 62 58 95 60 58 96 61 57 96 61 57 95 60 56 96 61 57 97 62 58 99 59 57 96 61 57 96 61 57 96 61 57 96 61 57 96 61 57 96 61 57 97 62 58 96 61 57 97 62 58 96 61 57 96 61 57 96 61 57 96 61 57 96 61 57 98 63 59 96 61 57 97 62 58 96 61 57 95 60 56 96 61 57 96 61 57 97 62 58 97 62 58 96 61 57 96 61 57 96 61 57 97 62 58 96 61 57 96 61 57 96 61 57 96 61 57 96 61 57 95 60 56 96 61 57 96 61 57 96 61 57 98 63 59 96 61 57 96 61 57 97 62 58 96 61 57 
96 61 57 96 61 57 96 61 57 96 61 57 96 61 57 96 61 59 96 61 57 96 61 57 96 61 57 96 61 57 96 61 57 96 61 57 97 62 58 95 60 56 97 62 58 98 60 57 97 62 58 98 60 57 98 60 57 96 61 57 96 61 57 98 60 57 98 60 57 96 61 57 97 62 58 97 62 58 95 60 56 95 60 56 96 61 57 96 61 57 96 61 57 97 62 58 97 62 58 96 61 57 96 61 57 96 61 57 95 60 56 96 61 57 97 62 58 96 61 57 96 61 57 96 61 57 96 61 57 95 60 56 96 61 57 96 61 57 97 62 58 96 61 57 96 61 57 96 61 57 96 61 57 96 61 57 97 62 58 97 62 58 96 61 57 96 61 57 96 61 57 96 61 57 98 60 57 97 62 58 95 60 56 96 61 57 96 61 57 96 61 57 96 61 57 96 61 57 96 61 57 95 60 56 97 62 58 96 61 57 96 61 57 96 61 57 96 61 57 96 61 57 97 62 58 97 62 58 96 61 57 96 61 57 96 61 57 96 61 57 94 59 55 96 61 57 96 61 57 96 61 57 97 62 58 96 61 57 96 61 57 96 61 57 96 61 57 97 62 58 96 61 57 96 61 57 96 61 57 95 60 56 96 61 57 96 61 57 95 60 56 97 62 58 97 62 58 97 62 58 
97 62 58 96 61 57 97 62 58 96 61 57 96 61 57 96 61 57 96 61 57 95 60 56 96 61 57 96 61 57 96 61 57 99 61 58 95 62 57 96 61 57 96 61 57 96 61 57 96 61 57 98 60 57 98 60 57 96 61 57 96 61 57 98 60 57 97 59 56 97 62 58 95 60 56 96 61 57 96 61 57 97 62 58 96 61 57 96 61 57 96 61 57 96 61 57 97 62 58 97 62 58 96 61 57 97 62 58 97 62 58 97 62 58 96 61 57 95 60 56 96 61 57 96 61 57 96 61 57 97 62 58 96 61 57 96 61 57 96 61 57 97 62 58 97 62 58 96 61 57 96 61 57 94 59 57 95 60 56 95 60 56 95 60 56 96 61 57 98 60 57 96 61 57 96 61 57 96 61 57 96 58 55 96 61 57 96 61 57 96 61 57 95 60 56 96 61 57 96 61 57 96 61 57 96 61 57 97 62 58 95 60 56 96 61 57 97 62 58 97 62 58 96 61 57 96 61 57 96 61 57 96 61 57 96 61 57 96 61 57 96 61 57 96 61 57 97 62 58 95 60 56 96 61 57 95 60 56 96 61 57 96 61 57 97 62 58 96 61 57 96 61 57 96 61 57 96 61 57 96 61 57 96 61 57 96 61 57 97 62 58 95 60 56 96 61 57 96 61 57 
96 61 57 97 62 58 96 61 57 96 61 57 96 61 57 95 60 56 96 61 57 96 61 57 97 62 58 96 61 57 96 61 57 98 60 57 94 61 56 97 62 58 96 61 57 97 62 58 96 61 57 97 59 56 98 60 57 96 61 57 96 61 57 98 60 57 98 60 57 97 62 58 96 61 57 96 61 57 96 61 57 96 61 57 95 60 56 96 61 57 96 61 57 96 61 57 96 61 57 96 61 57 96 61 57 96 61 57 96 61 57 95 60 56 95 60 56 96 61 57 95 60 56 97 62 58 95 60 56 98 63 59 96 61 57 96 61 57 96 61 57 97 62 58 97 62 58 96 61 57 96 61 57 95 60 56 97 62 60 96 61 57 96 61 57 96 61 57 96 61 57 97 62 58 97 62 58 96 61 57 97 62 58 96 61 57 95 60 56 95 60 56 96 61 57 96 61 57 96 61 57 96 61 57 96 61 57 95 60 56 97 62 58 96 61 57 97 62 58 97 62 58 96 61 57 96 61 57 95 60 56 96 61 57 96 61 57 97 62 58 96 61 57 96 61 57 96 61 57 97 62 58 96 61 57 94 59 55 97 62 58 96 61 57 96 61 57 97 62 58 96 61 57 96 61 57 97 62 58 96 61 57 96 61 57 96 61 57 96 61 57 96 61 57 96 61 57 96 61 57 
96 61 57 96 61 57 96 61 59 96 61 57 98 63 59 97 62 58 97 62 58 96 61 57 96 61 57 95 60 56 96 61 57 96 61 57 96 61 57 96 61 57 96 61 57 98 60 57 96 61 57 99 61 58 98 60 57 96 61 57 96 61 57 99 61 58 98 60 57 96 61 57 96 61 57 96 61 57 97 62 58 96 61 57 97 62 58 96 61 57 96 61 57 96 61 57 97 62 58 95 60 56 97 62 58 95 60 56 96 61 57 96 61 57 97 62 58 96 61 57 96 61 57 96 61 57 97 62 58 96 61 57 96 61 57 96 61 57 97 62 58 95 60 56 97 62 58 96 61 57 96 61 57 96 61 57 95 60 56 96 61 57 96 61 57 96 61 57 96 61 57 96 61 57 98 60 57 95 60 56 96 61 57 95 60 56 95 60 56 95 60 56 96 61 57 95 60 56 96 61 57 96 61 57 96 61 57 97 62 58 96 61 57 96 61 57 97 62 58 96 61 57 96 61 57 96 61 57 95 60 56 96 61 57 96 61 57 97 62 58 96 61 57 96 61 57 96 61 57 96 61 57 95 60 56 96 61 57 96 61 57 96 61 57 95 60 56 96 61 57 97 62 58 96 61 57 96 61 57 96 61 57 96 61 57 98 63 59 98 63 59 95 60 56 96 61 57 97 62 58 
96 61 57 96 61 57 95 60 56 96 61 57 95 60 56 95 60 56 96 61 57 95 60 58 96 61 57 96 61 57 96 61 57 99 61 58 95 60 56 96 61 57 97 62 58 95 60 56 96 61 57 99 61 58 98 60 57 97 62 58 96 61 57 99 61 58 98 60 57 96 61 57 96 61 57 96 61 57 95 60 56 97 62 58 95 60 56 96 61 57 96 61 57 96 61 57 95 60 56 96 61 57 96 61 57 96 61 57 97 62 58 97 62 58 95 60 56 96 61 57 95 60 56 96 61 57 97 62 58 95 60 56 97 62 58 96 61 57 95 60 56 96 61 57 96 61 57 94 59 55 96 61 57 95 60 58 96 61 57 96 61 59 96 61 57 96 61 57 96 61 57 96 61 57 96 61 57 96 61 57 96 61 57 96 61 57 96 61 57 95 60 56 96 61 57 96 61 57 97 62 58 95 60 56 97 62 58 95 60 56 97 62 58 96 61 57 97 62 58 96 61 57 96 61 57 96 61 57 95 60 56 97 62 58 95 60 56 96 61 57 96 61 57 95 60 56 95 60 56 96 61 57 96 61 57 96 61 57 96 61 57 97 62 58 96 61 57 97 62 58 96 61 57 95 60 56 96 61 57 96 61 57 96 61 57 98 63 59 96 61 57 95 60 56 96 61 57 96 61 57 
96 61 57 96 61 57 96 61 59 95 60 56 97 62 58 96 61 57 96 61 57 96 61 57 96 61 57 98 60 57 98 60 57 96 61 57 96 61 57 96 61 57 95 60 56 96 61 57 95 60 56 98 60 57 97 59 56 97 62 58 96 61 57 98 60 57 98 60 57 97 62 58 96 61 57 96 61 57 97 62 58 95 60 56 96 61 57 95 60 56 96 61 57 97 62 58 96 61 57 96 61 57 95 60 56 96 61 57 96 61 57 96 61 57 96 61 57 96 61 57 97 62 58 97 62 58 94 59 55 96 61 57 95 60 56 96 61 57 96 61 57 94 59 55 96 61 57 95 60 56 96 61 57 97 62 58 95 60 56 96 61 57 95 60 56 95 60 56 96 61 57 95 60 56 95 60 56 95 60 56 96 61 57 96 61 57 96 61 57 96 61 57 95 60 56 95 60 56 95 60 56 95 60 56 96 61 57 96 61 57 96 61 57 96 61 57 96 61 57 96 61 57 96 61 57 96 61 57 96 61 57 96 61 57 96 61 57 96 61 57 96 61 57 97 62 58 96 61 57 97 62 58 96 61 57 96 61 57 96 61 57 96 61 57 97 62 58 96 61 57 96 61 57 96 61 57 95 60 56 96 61 57 96 61 57 96 61 57 97 62 58 96 61 57 96 61 57 96 61 57 
96 61 57 95 60 56 97 62 58 97 62 58 96 61 57 95 60 56 96 61 57 95 60 56 95 60 56 97 62 58 97 62 58 96 61 57 95 60 56 96 61 57 96 61 57 96 61 57 95 60 56 96 61 57 95 60 56 96 61 57 97 62 58 96 61 57 97 62 58 97 62 58 95 60 56 97 62 58 96 61 57 95 60 56 96 61 57 96 61 57 95 60 56 96 61 57 96 61 57 96 61 57 96 61 57 95 60 56 98 63 59 97 62 58 96 61 57 97 62 58 96 61 57 96 61 57 95 60 56 97 62 58 97 62 58 96 61 57 96 61 57 96 61 57 96 61 57 96 61 57 96 61 57 96 61 57 97 62 58 96 61 57 96 61 57 95 60 56 96 61 57 96 61 57 97 62 58 95 60 56 95 60 56 96 61 57 95 60 56 97 62 58 96 61 57 96 61 57 96 61 57 95 60 56 97 62 58 97 62 58 96 61 57 95 60 56 95 60 56 95 60 56 96 61 57 96 61 57 96 61 57 96 61 57 96 61 57 96 61 57 96 61 57 94 59 55 96 61 57 96 61 57 96 61 57 97 62 58 96 61 57 96 61 57 95 60 56 97 62 58 96 61 57 96 61 57 96 61 57 96 61 57 95 60 56 95 60 56 96 61 57 96 61 57 96 61 57 95 60 56 
96 61 57 95 60 56 95 60 56 95 60 56 96 61 57 95 60 56 96 61 57 96 61 57 98 63 59 96 61 57 96 61 57 96 61 57 95 60 56 96 61 57 97 62 58 96 61 57 97 62 58 96 61 57 97 62 58 96 61 57 95 60 56 96 61 57 95 60 56 95 60 56 95 60 56 97 62 58 97 62 58 96 61 57 95 60 56 95 60 56 95 60 56 96 61 57 98 63 59 97 62 58 96 61 57 96 61 57 95 60 56 96 61 57 95 60 56 96 61 57 96 61 57 96 61 57 96 61 57 96 61 57 97 62 58 95 60 56 96 61 57 97 62 58 97 62 58 96 61 57 96 61 57 96 61 57 95 60 56 95 60 56 96 61 57 96 61 57 96 61 59 95 60 56 97 62 58 95 60 56 95 60 56 95 60 56 96 61 57 97 62 58 97 62 58 95 60 56 96 61 57 96 61 57 96 61 57 96 61 57 96 61 57 95 60 56 97 62 58 96 61 57 95 60 56 97 62 58 96 61 57 96 61 57 96 61 57 96 61 57 96 61 57 95 60 56 97 62 58 96 61 57 95 60 56 95 60 56 96 61 57 96 61 57 97 62 58 96 61 57 96 61 57 97 62 58 97 62 58 97 62 58 95 60 56 96 61 57 96 61 57 95 60 56 95 60 56 96 61 57 
96 61 57 96 61 57 96 61 57 96 61 57 96 61 57 96 61 57 96 61 57 96 61 57 95 60 56 94 59 55 96 61 57 95 60 58 95 60 56 94 59 55 96 61 59 96 61 57 95 60 56 97 62 58 97 62 58 95 60 56 96 61 57 96 61 57 96 61 57 95 60 56 94 59 55 96 61 57 95 60 58 97 62 60 95 60 58 95 60 58 96 61 57 97 62 58 95 60 56 96 61 57 96 61 57 97 62 58 95 60 56 96 61 57 95 60 56 96 61 57 95 60 56 97 62 58 96 61 57 95 60 56 95 60 56 95 60 56 96 61 57 96 61 57 96 61 57 96 61 57 96 61 57 96 61 57 95 60 56 96 61 57 95 60 56 95 60 56 96 61 57 96 61 57 95 60 56 96 61 57 95 60 56 96 61 57 96 61 57 95 60 56 96 61 57 96 61 57 95 60 56 96 61 57 96 61 57 95 60 56 96 61 57 95 60 56 96 61 57 96 61 57 95 60 56 96 61 57 96 61 57 95 60 56 95 60 56 95 60 56 97 62 58 95 60 56 96 61 57 95 60 56 96 61 57 97 62 58 96 61 57 95 60 56 95 60 56 96 61 57 96 61 57 95 60 56 94 59 55 95 60 56 95 60 56 95 60 56 95 60 56 96 61 57 95 60 56 95 60 56 
96 61 57 96 61 57 96 61 57 96 61 57 96 61 57 96 61 57 95 60 56 95 60 56 96 61 57 96 61 57 95 60 56 96 61 57 96 61 57 97 62 58 96 61 57 96 61 57 95 60 56 95 60 56 96 61 57 97 62 58 96 61 57 96 61 57 96 61 57 96 61 57 95 60 58 96 61 59 95 60 56 96 61 57 96 61 57 96 61 57 96 61 57 96 61 57 96 61 57 96 61 57 95 60 56 95 60 56 97 62 58 94 59 55 96 61 57 95 60 56 96 61 57 96 61 57 97 62 58 94 59 55 96 61 57 96 61 57 96 61 57 96 61 57 96 61 57 97 62 58 97 62 58 96 61 57 96 61 57 96 61 57 96 61 57 96 61 57 96 61 57 95 60 56 96 61 57 96 61 57 96 61 57 97 62 58 95 60 56 95 60 58 97 62 58 96 61 57 96 61 57 95 60 56 95 60 56 97 62 58 95 60 56 96 61 57 95 60 56 96 61 57 96 61 57 95 60 56 96 61 57 96 61 57 95 60 56 97 62 58 95 60 56 95 60 56 96 61 57 96 61 57 96 61 57 96 61 57 95 60 56 96 61 57 96 61 57 96 61 57 96 61 57 95 60 56 95 60 56 96 61 57 95 60 56 95 60 56 96 61 57 96 61 57 95 60 56 95 60 56 
96 61 57 96 61 57 95 60 56 95 60 56 96 61 57 96 61 57 95 60 56 96 61 57 96 61 57 96 61 57 96 61 57 95 60 56 94 59 55 95 60 56 96 61 57 96 61 57 96 61 57 96 61 57 96 61 57 96 61 57 97 62 58 95 60 56 96 61 57 96 61 57 95 60 56 96 61 57 96 61 57 96 61 57 96 61 57 95 60 56 96 61 57 96 61 57 96 61 57 97 62 58 95 60 56 96 61 57 97 62 58 96 61 57 96 61 57 95 60 56 97 62 58 96 61 57 96 61 57 96 61 57 97 62 58 95 60 56 96 61 57 95 60 56 97 62 58 96 61 57 96 61 57 96 61 57 95 60 56 96 61 57 95 60 56 95 60 56 96 61 59 96 61 57 97 62 58 95 60 56 96 61 57 97 62 58 95 60 56 96 61 57 96 61 57 95 60 56 95 60 56 95 60 56 95 60 56 96 61 57 95 60 56 96 61 57 95 60 56 96 61 57 97 62 58 95 60 56 96 61 57 96 61 57 95 60 56 95 60 56 96 61 57 96 61 57 96 61 57 96 61 57 96 61 57 97 62 58 96 61 57 96 61 57 96 61 57 96 61 57 97 62 58 96 61 57 96 61 57 96 61 57 95 60 56 96 61 57 95 60 56 97 62 58 96 61 57 95 60 56 
95 60 56 96 61 57 96 61 57 95 60 56 96 61 57 97 62 58 96 61 57 96 61 57 96 61 57 96 61 59 96 61 57 97 62 58 95 60 58 95 60 56 96 61 57 97 62 58 96 61 57 96 61 57 96 61 57 96 61 57 96 61 57 96 61 57 96 61 57 96 61 57 96 61 57 95 60 56 96 61 57 96 61 57 96 61 57 94 59 55 95 60 56 96 61 57 96 61 57 95 60 56 95 60 56 95 60 56 96 61 57 96 61 57 96 61 57 96 61 57 96 61 57 95 60 56 95 60 56 96 61 57 96 61 57 96 61 57 97 62 58 95 60 56 96 61 57 96 61 57 95 60 56 96 61 57 97 62 58 96 61 57 96 61 57 96 61 57 95 60 56 97 62 58 95 60 56 96 61 57 96 61 57 95 60 56 95 60 56 96 61 57 95 60 56 95 60 56 96 61 57 96 61 57 95 60 56 96 61 57 96 61 57 96 61 57 97 62 58 96 61 57 96 61 57 97 62 58 96 61 57 95 60 56 96 61 57 95 60 56 96 61 57 95 60 56 95 60 56 95 60 56 96 61 57 95 60 56 96 61 57 94 59 55 96 61 57 95 60 56 96 61 57 96 61 57 95 60 56 95 60 56 96 61 57 95 60 56 96 61 57 96 61 57 95 60 56 96 61 57 
96 61 57 95 60 56 96 61 57 96 61 57 96 61 57 97 62 58 95 60 56 95 60 56 95 60 56 95 60 56 96 61 57 96 61 57 96 61 57 95 60 56 96 61 57 97 62 58 96 61 57 95 60 56 96 61 57 96 61 57 97 62 58 96 61 57 95 60 56 95 60 56 95 60 56 96 61 57 97 62 58 95 60 56 95 60 56 96 61 57 97 62 58 95 60 56 97 62 58 96 61 57 96 61 57 96 61 57 95 60 56 96 61 57 96 61 57 96 61 57 96 61 57 96 61 57 96 61 57 95 60 56 97 62 58 95 60 56 97 62 58 95 60 56 96 61 57 97 62 58 96 61 57 97 62 58 97 62 58 96 61 57 95 60 56 95 60 56 95 60 56 95 60 56 95 60 56 95 60 56 96 61 57 96 61 57 96 61 57 95 60 58 94 59 55 96 61 57 96 61 57 96 61 57 96 61 57 96 61 57 96 61 57 96 61 57 95 60 56 95 60 56 95 60 56 96 61 57 95 60 56 96 61 57 96 61 57 95 60 56 96 61 57 96 61 57 97 62 58 95 60 56 96 61 57 95 60 56 96 61 57 95 60 56 95 60 56 97 62 58 97 62 58 95 60 56 97 62 58 97 62 58 95 60 56 95 60 56 95 60 56 97 62 58 96 61 57 96 61 57 
96 61 57 96 61 57 95 60 56 95 60 56 95 60 56 97 62 58 96 61 57 96 61 57 97 62 58 96 61 57 95 60 56 95 60 56 95 60 56 95 60 56 95 60 56 95 60 56 96 61 57 95 60 56 95 60 56 95 60 56 96 61 57 96 61 57 96 61 57 95 60 56 96 61 57 95 60 56 96 61 57 96 61 57 95 60 56 95 60 58 96 61 59 95 60 58 96 61 57 95 60 56 96 61 57 96 61 57 96 61 57 96 61 57 95 60 56 95 60 56 95 60 56 95 60 56 96 61 57 95 60 56 95 60 56 96 61 57 96 61 57 96 61 57 96 61 57 96 61 57 97 62 58 94 59 55 95 60 56 96 61 57 96 61 57 96 61 57 96 61 57 94 59 55 96 61 57 96 61 57 96 61 57 96 61 57 97 62 58 96 61 57 96 61 57 96 61 57 95 60 56 96 61 57 96 61 57 95 60 56 96 61 57 96 61 57 95 60 56 96 61 57 96 61 57 95 60 56 95 60 56 96 61 57 96 61 57 96 61 57 98 63 59 96 61 57 96 61 57 95 60 56 96 61 57 96 61 57 96 61 57 97 62 58 96 61 57 95 60 56 96 61 57 96 61 57 96 61 57 95 60 56 96 61 57 95 60 56 96 61 57 96 61 57 96 61 57 96 61 57 
96 61 57 95 60 56 96 61 57 95 60 56 95 60 56 95 60 56 95 60 56 96 61 57 95 60 56 95 60 56 95 60 56 96 61 57 95 60 56 97 62 58 97 62 58 96 61 57 96 61 57 97 62 58 96 61 57 95 60 56 97 62 58 96 61 57 96 61 57 95 60 56 97 62 58 96 61 57 96 61 57 96 61 57 95 60 56 95 60 56 96 61 57 96 61 57 95 60 56 95 60 56 96 61 57 96 61 57 95 60 56 96 61 57 95 60 56 96 61 57 97 62 58 96 61 57 96 61 57 96 61 57 97 62 58 96 61 57 97 62 58 96 61 57 96 61 57 95 60 56 96 61 57 96 61 57 96 61 57 96 61 57 95 60 56 95 60 56 97 62 58 95 60 56 95 60 56 96 61 57 96 61 57 95 60 56 97 62 58 95 60 56 95 60 56 95 60 56 96 61 57 96 61 57 96 61 57 96 61 57 95 60 56 96 61 57 96 61 57 96 61 57 97 59 56 96 61 57 96 61 57 98 60 57 95 60 56 95 60 56 96 61 57 96 61 57 95 60 56 97 62 58 96 61 57 96 61 57 96 61 57 97 62 58 96 61 57 95 60 56 96 61 57 96 61 57 96 61 57 96 61 57 96 61 57 97 62 58 95 60 56 95 60 56 96 61 57 96 61 57 
95 60 56 95 60 56 96 61 57 95 60 56 96 61 57 95 60 56 97 62 58 95 60 56 97 62 58 95 60 56 96 61 57 96 61 57 96 61 57 96 61 57 94 59 55 96 61 57 95 60 56 97 62 58 95 60 56 95 60 56 96 61 57 96 61 57 96 61 57 97 62 58 95 60 56 95 60 56 95 60 56 97 62 58 96 61 57 95 60 56 95 60 56 96 61 57 95 60 56 95 60 56 96 61 57 95 60 56 96 61 57 96 61 57 96 61 57 95 60 56 95 60 56 96 61 57 96 61 57 96 61 57 96 61 57 95 60 56 96 61 57 96 61 57 96 61 57 95 60 56 96 61 57 95 60 56 94 59 55 96 61 57 96 61 57 95 60 56 98 63 59 95 60 56 95 60 56 95 60 56 96 61 57 96 61 57 97 62 58 96 61 57 95 60 56 95 60 56 96 61 57 95 60 56 96 61 57 95 60 56 95 60 56 95 60 56 96 61 57 97 59 56 96 61 57 95 60 56 96 61 57 96 61 57 97 59 56 95 60 56 96 61 57 95 60 56 95 60 56 95 60 56 96 61 57 97 62 58 96 61 57 95 60 56 96 61 57 96 61 57 96 61 57 96 61 57 95 60 56 96 61 57 95 60 56 96 61 57 96 61 57 96 61 57 95 60 56 95 60 56 
96 61 57 96 61 57 95 60 56 96 61 57 96 61 57 97 62 58 97 62 58 97 62 58 96 61 57 97 62 58 95 60 56 95 60 56 95 60 56 96 61 57 95 60 56 96 61 57 96 61 57 95 60 56 95 60 56 96 61 57 96 61 57 96 61 57 95 60 56 96 61 57 96 61 57 95 60 56 96 61 57 96 61 57 97 62 58 95 60 56 95 60 56 96 61 57 96 61 57 96 61 57 96 61 57 96 61 57 97 62 58 96 61 57 95 60 56 96 61 57 96 61 57 96 61 57 96 61 57 95 60 56 95 60 56 97 62 58 96 61 57 94 59 55 96 61 57 96 61 57 96 61 57 95 60 56 96 61 57 96 61 57 97 62 58 95 60 56 96 61 57 95 60 56 95 60 56 95 60 56 95 60 56 96 61 57 95 60 56 95 60 56 95 60 56 96 61 57 96 61 57 95 60 56 96 61 57 95 60 56 96 61 57 96 61 57 96 61 57 96 61 57 99 61 58 97 62 58 96 61 57 98 60 57 96 61 57 96 61 57 96 61 57 96 61 57 96 61 57 96 61 57 95 60 56 96 61 57 95 60 56 96 61 57 96 61 57 95 60 56 96 61 57 95 60 56 96 61 57 95 60 56 95 60 56 96 61 57 96 61 57 96 61 57 96 61 57 95 60 56 
96 61 57 96 61 57 95 60 56 96 61 57 95 60 56 98 63 59 97 62 58 95 60 56 95 60 56 97 62 58 96 61 57 96 61 57 95 60 56 95 60 56 96 61 57 96 61 57 97 62 58 96 61 57 95 60 56 97 62 58 97 62 58 95 60 56 96 61 57 96 61 57 95 60 56 96 61 57 95 60 56 95 60 56 96 61 57 95 60 56 95 60 56 97 62 58 98 63 59 96 61 57 95 60 56 97 62 58 96 61 57 96 61 57 96 61 57 95 60 56 96 61 57 95 60 56 96 61 57 96 61 57 97 62 58 96 61 57 95 60 56 93 58 54 95 60 56 96 61 57 95 60 56 95 60 56 96 61 57 96 61 57 96 61 57 96 61 57 96 61 57 96 61 57 95 60 56 95 60 56 95 60 56 96 61 57 95 60 56 96 61 57 95 60 56 95 60 56 98 63 59 96 61 57 96 61 57 95 60 56 96 61 57 95 60 56 95 60 56 96 61 57 96 61 57 95 60 56 97 62 58 95 60 56 97 62 58 95 60 56 95 60 56 95 60 56 96 61 57 95 60 56 95 60 56 96 61 57 96 61 57 96 61 57 96 61 57 96 61 57 95 60 56 95 60 56 95 60 56 95 60 56 95 60 56 96 61 57 95 60 56 95 60 56 96 61 57 96 61 57 
97 62 58 95 60 56 96 61 57 95 60 56 97 62 58 94 59 55 96 61 57 96 61 57 95 60 56 95 60 56 95 60 56 95 60 56 96 61 57 95 60 56 96 61 57 97 62 58 96 61 57 95 60 56 96 61 57 96 61 57 96 61 57 97 62 58 96 61 57 95 60 56 96 61 57 95 60 56 95 60 56 95 60 56 95 60 56 96 61 57 96 61 57 96 61 57 96 61 57 95 60 56 95 60 56 95 60 56 95 60 56 96 61 57 96 61 57 95 60 56 95 60 56 96 61 57 96 61 57 95 60 56 96 61 57 96 61 57 96 61 57 96 61 57 95 60 56 95 60 56 95 60 56 96 61 57 96 61 57 96 61 57 95 60 56 95 60 56 96 61 57 95 60 56 95 60 56 95 60 56 95 60 56 95 60 56 97 62 58 94 59 55 95 60 56 95 60 56 95 60 56 97 62 58 95 60 56 94 59 55 96 61 57 96 61 57 95 60 56 96 61 57 96 61 57 96 61 57 97 62 58 95 60 56 96 61 57 96 61 57 96 61 57 96 61 57 95 60 56 95 60 56 96 61 57 97 62 58 95 60 56 95 60 56 94 59 55 95 60 56 95 60 56 96 61 57 96 61 57 95 60 56 95 60 56 95 60 56 96 61 57 95 60 56 95 60 56 95 60 56 
96 61 57 95 60 56 96 61 57 95 60 56 94 59 55 95 60 56 96 61 57 96 61 57 95 60 56 95 60 56 96 61 57 95 60 56 96 61 57 95 60 56 96 61 57 95 60 56 96 61 57 96 61 57 96 61 57 96 61 57 95 60 56 96 61 57 95 60 56 97 62 58 95 60 56 96 61 57 96 61 57 96 61 57 96 61 57 96 61 57 96 61 57 95 60 56 96 61 57 95 60 56 95 60 56 95 60 56 95 60 56 96 61 57 97 62 58 95 60 56 96 61 57 94 59 55 94 59 55 95 60 56 96 61 57 95 60 56 94 59 55 96 61 57 95 60 56 96 61 57 95 60 56 95 60 56 95 60 56 96 61 57 95 60 56 96 61 57 96 61 57 96 61 57 95 60 56 95 60 56 95 60 56 95 60 56 96 61 57 95 60 56 95 60 56 96 61 57 96 61 57 96 61 57 96 61 57 95 60 56 96 61 57 96 61 57 95 60 56 95 60 56 96 61 57 96 61 57 96 61 57 95 60 56 96 61 57 95 60 56 96 61 57 95 60 56 96 61 57 95 60 56 96 61 57 95 60 56 95 60 56 95 60 56 96 61 57 95 60 56 95 60 56 96 61 57 95 60 56 94 59 55 95 60 56 95 60 56 95 60 56 95 60 56 96 61 57 95 60 56 
96 61 57 95 60 56 95 60 56 95 60 56 96 61 57 96 61 57 95 60 56 96 61 57 95 60 56 96 61 57 96 61 57 96 61 57 95 60 56 96 61 57 96 61 57 97 62 58 95 60 56 95 60 56 96 61 57 96 61 57 95 60 56 95 60 56 95 60 56 96 61 57 95 60 56 95 60 56 95 60 56 95 60 56 95 60 56 96 61 57 95 60 56 95 60 56 95 60 56 95 60 56 96 61 57 96 61 57 96 61 57 96 61 57 95 60 56 95 60 56 96 61 57 95 60 56 95 60 56 96 61 57 95 60 56 95 60 56 96 61 57 95 60 56 95 60 56 96 61 57 95 60 56 95 60 56 95 60 56 96 61 57 94 59 55 95 60 56 95 60 56 96 61 57 95 60 56 96 61 57 95 60 56 96 61 57 96 61 57 96 61 57 96 61 57 95 60 56 96 61 57 95 60 56 95 60 56 96 61 57 96 61 57 97 62 58 95 60 56 96 61 57 96 61 57 96 61 57 96 61 57 95 60 56 96 61 57 96 61 57 95 60 56 96 61 57 96 61 57 95 60 56 96 61 57 96 61 57 95 60 56 96 61 57 95 60 56 95 60 56 96 61 57 95 60 56 96 61 57 95 60 56 96 61 57 95 60 56 96 61 57 96 61 57 95 60 56 95 60 56 
95 60 56 95 60 56 95 60 56 95 60 56 95 60 56 95 60 56 96 61 57 96 61 57 96 61 57 95 60 56 95 60 56 95 60 56 95 60 56 95 60 56 95 60 56 95 60 56 95 60 56 96 61 57 96 61 57 95 60 56 96 61 57 95 60 56 95 60 56 96 61 57 96 61 57 96 61 57 95 60 56 95 60 56 95 60 56 95 60 56 95 60 56 95 60 56 96 61 57 95 60 56 95 60 56 95 60 56 94 59 55 95 60 56 95 60 56 96 61 57 96 61 57 95 60 56 97 62 58 96 61 57 96 61 57 95 60 56 96 61 57 95 60 56 96 61 57 95 60 56 96 61 57 95 60 56 95 60 56 96 61 57 95 60 56 95 60 56 96 61 57 96 61 57 95 60 56 95 60 56 95 60 56 96 61 57 95 60 56 96 61 57 95 60 56 95 60 56 96 61 57 95 60 56 96 61 57 96 61 57 97 62 58 96 61 57 95 60 56 96 61 57 95 60 56 96 61 57 96 61 57 97 62 58 96 61 57 96 61 57 96 61 57 96 61 57 95 60 56 95 60 56 96 61 57 95 60 56 95 60 56 95 60 56 95 60 56 96 61 57 95 60 56 96 61 57 96 61 57 96 61 57 95 60 56 97 62 58 95 60 56 95 60 56 95 60 56 95 60 56 
96 61 57 95 60 56 95 60 56 95 60 56 95 60 56 96 61 57 95 60 56 95 60 56 95 60 56 95 60 56 95 60 56 96 61 57 95 60 56 95 60 56 95 60 56 95 60 56 95 60 56 96 61 57 95 60 58 96 61 57 96 61 57 96 61 55 95 60 56 96 61 57 95 60 56 96 61 57 95 60 56 95 60 56 95 60 56 95 60 56 95 60 56 96 61 57 95 60 56 96 61 57 96 61 57 95 60 56 95 60 56 96 61 57 95 60 56 95 60 56 94 59 55 96 61 57 95 60 56 95 60 56 95 60 56 95 60 56 96 61 57 96 61 57 95 60 56 96 61 57 96 61 57 95 60 56 96 61 57 96 61 57 95 60 56 95 60 56 96 61 57 96 61 57 95 60 56 95 60 56 96 61 57 96 61 57 95 60 56 96 61 57 96 61 57 96 61 57 95 60 56 96 61 57 95 60 56 96 61 57 96 61 57 95 60 56 96 61 57 96 61 57 96 61 57 95 60 56 95 60 56 95 60 56 95 60 56 95 60 56 95 60 56 96 61 57 95 60 56 95 60 56 95 60 56 95 60 56 96 61 57 95 60 56 95 60 56 95 60 56 95 60 56 95 60 56 96 61 57 95 60 56 95 60 56 95 60 56 95 60 56 96 61 57 95 60 56 95 60 56 
95 60 56 95 60 56 95 60 56 95 60 56 96 61 57 94 59 55 96 61 57 95 60 56 95 60 56 96 61 57 96 61 57 95 60 56 96 61 57 96 61 57 96 61 57 95 60 56 96 61 57 95 60 56 96 61 57 95 60 56 96 61 57 96 61 57 96 61 59 96 61 57 95 60 56 95 60 56 95 60 56 96 61 57 95 60 56 96 61 57 96 61 57 95 60 56 96 61 57 95 60 56 96 61 57 96 61 57 96 61 57 95 60 56 95 60 56 96 61 57 96 61 57 95 60 56 95 60 56 96 61 57 95 60 56 95 60 56 95 60 56 97 62 58 95 60 56 95 60 56 97 62 58 95 60 56 95 60 56 95 60 56 95 60 56 95 60 56 96 61 57 95 60 56 96 61 57 95 60 56 95 60 56 95 60 56 95 60 56 95 60 56 96 61 57 95 60 56 95 60 56 95 60 56 96 61 57 95 60 56 96 61 57 95 60 56 95 60 56 95 60 56 96 61 57 95 60 56 95 60 56 95 60 56 96 61 57 96 61 57 96 61 57 96 61 57 95 60 56 95 60 56 96 61 57 95 60 56 95 60 56 94 59 55 96 61 57 95 60 56 96 61 57 95 60 56 95 60 56 96 61 57 95 60 56 95 60 56 96 61 57 95 60 56 95 60 56 95 60 56 
95 60 56 95 60 56 96 61 57 95 60 56 95 60 56 95 60 56 95 60 56 96 61 57 95 60 56 95 60 56 96 61 57 96 61 57 94 59 55 96 61 57 96 61 57 95 60 56 96 61 57 95 60 56 95 60 56 96 61 57 95 60 54 97 62 58 96 61 57 96 61 55 95 60 56 96 61 57 96 61 57 95 60 56 95 60 56 96 61 57 95 60 56 95 60 56 95 60 56 96 61 57 95 60 56 95 60 56 96 61 57 95 60 56 96 61 57 97 62 58 96 61 57 95 60 56 95 60 56 96 61 57 95 60 56 96 61 57 95 60 56 96 61 57 96 61 57 95 60 56 95 60 56 95 60 56 95 60 56 97 62 58 96 61 57 95 60 56 96 61 57 95 60 56 95 60 56 97 62 58 95 60 56 95 60 56 95 60 56 96 61 57 96 61 57 95 60 56 95 60 56 96 61 57 95 60 56 96 61 57 95 60 56 95 60 56 95 60 56 95 60 56 96 61 57 95 60 56 95 60 56 95 60 56 95 60 56 95 60 56 95 60 56 95 60 56 95 60 56 95 60 56 95 60 56 96 61 57 96 61 57 95 60 56 95 60 56 93 58 54 96 61 57 95 60 56 96 61 57 95 60 56 97 62 58 95 60 56 96 61 57 96 61 57 95 60 56 96 61 57 
95 60 56 95 60 56 95 60 56 95 60 56 96 61 57 95 60 56 96 61 57 95 60 56 96 61 57 95 60 56 95 60 56 96 61 57 95 60 56 96 61 57 95 60 56 96 61 57 95 60 56 95 60 56 97 62 58 95 60 56 96 61 57 95 60 56 96 61 57 96 61 57 96 61 57 96 61 57 95 60 56 95 60 56 95 60 56 95 60 56 95 60 56 95 60 56 96 61 57 95 60 56 96 61 57 95 60 56 95 60 56 96 61 57 95 60 56 96 61 57 96 61 57 96 61 57 96 61 57 96 61 57 96 61 57 95 60 56 96 61 57 96 61 57 96 61 57 95 60 56 95 60 56 95 60 56 95 60 56 95 60 56 96 61 57 95 60 56 94 59 55 95 60 56 96 61 57 95 60 56 95 60 56 96 61 57 95 60 56 95 60 56 95 60 56 95 60 56 95 60 56 95 60 56 95 60 56 96 61 57 95 60 56 95 60 56 96 61 57 95 60 56 95 60 56 95 60 56 95 60 56 96 61 57 96 61 57 96 61 57 95 60 56 95 60 56 95 60 56 95 60 56 95 60 56 95 60 56 95 60 56 95 60 56 95 60 56 96 61 57 95 60 56 96 61 57 97 62 58 95 60 56 96 61 57 95 60 56 95 60 56 96 61 57 95 60 56 95 60 56 
