P3
100 50
255
27 44 38 25 42 36 27 42 37 25 42 36 26 43 37 27 44 38 26 43 37 26 43 37 23 42 36 21 33 29 2 2 2 3 1 2 29 31 30 34 34 34 34 32 33 32 32 32 33 33 33 35 35 35 48 48 48 24 24 24 0 0 0 12 12 12 47 47 47 49 49 49 49 49 49 49 49 49 48 48 48 49 49 49 49 49 49 49 49 49 49 49 49 49 49 49 49 49 49 50 50 50 48 48 48 48 48 48 49 49 49 49 49 49 48 48 48 49 49 49 31 31 31 1 1 1 12 18 16 24 43 37 25 42 36 26 43 37 26 43 37 27 44 38 26 43 37 26 43 37 26 43 37 26 43 37 26 43 37 27 44 38 25 42 36 27 44 38 26 43 37 26 43 37 26 43 37 26 43 37 24 43 37 24 43 37 24 43 37 23 42 36 26 43 37 26 43 37 24 43 37 26 43 37 25 42 36 26 43 37 26 43 37 25 42 36 25 42 36 26 43 37 25 42 36 26 43 37 25 42 36 26 43 37 25 42 36 25 42 36 27 44 38 26 43 37 27 44 38 26 43 37 26 43 37 26 43 37 25 42 36 26 43 37 27 44 38 26 43 37 26 43 37 26 43 37 25 42 36 26 43 37 26 43 37 25 42 36 24 43 37 25 42 36 9 18 15 0 0 0 
26 43 37 26 43 37 26 43 37 25 42 36 26 43 37 26 43 37 26 43 37 25 42 36 24 43 37 10 16 14 1 1 1 10 10 10 31 31 31 34 34 34 33 33 33 33 33 33 33 33 33 44 44 44 48 48 48 44 44 44 29 29 29 39 39 39 49 49 49 48 48 48 49 49 49 49 49 49 48 48 48 49 49 49 50 50 50 48 48 48 48 48 48 49 49 49 49 49 49 49 49 49 50 50 50 49 49 49 49 49 49 49 49 49 49 49 49 49 49 49 29 29 29 0 0 0 15 26 22 25 42 36 26 43 37 26 43 37 25 42 36 26 43 37 26 43 37 25 44 38 26 43 37 26 43 37 25 42 36 25 42 36 25 42 36 25 42 36 25 42 36 25 42 36 25 42 36 25 42 36 25 42 36 26 43 37 26 43 37 26 43 37 26 43 37 26 43 37 24 43 37 25 42 36 26 43 37 24 43 37 26 43 37 27 44 38 25 42 36 26 43 37 26 43 37 27 44 38 26 43 37 27 44 38 26 43 37 27 44 38 26 43 37 25 42 36 26 43 37 26 43 37 26 43 37 26 43 37 27 44 38 26 43 37 26 43 37 24 43 37 25 42 36 24 43 37 25 42 36 26 43 37 25 42 36 27 44 38 26 43 37 20 35 30 3 1 2 1 1 1 
25 42 36 25 42 36 24 43 37 26 43 37 26 43 37 25 42 36 25 42 36 27 44 38 25 40 35 4 6 5 1 1 1 22 22 22 33 33 33 34 34 34 33 33 33 33 33 33 34 34 34 46 46 46 49 49 49 49 49 49 48 48 48 49 49 49 47 47 47 49 49 49 49 49 49 49 49 49 49 49 49 49 49 49 48 48 48 49 49 49 49 49 49 48 48 48 49 49 49 49 49 49 49 49 49 48 48 48 49 49 49 49 49 49 49 49 49 49 49 49 25 25 25 0 0 0 14 26 22 26 43 37 25 42 36 26 43 37 26 43 37 25 42 36 26 43 37 24 43 37 25 42 36 26 43 37 26 43 37 27 44 38 25 42 36 26 43 37 24 43 37 24 43 37 23 42 36 24 43 37 25 42 36 25 42 36 25 42 36 26 43 37 25 42 36 26 43 37 26 43 37 25 42 36 25 42 36 26 43 37 25 42 36 26 43 37 27 44 38 26 43 37 27 44 38 26 43 37 25 42 36 26 43 37 26 43 37 25 42 36 25 42 36 26 43 37 25 42 36 26 43 37 25 42 36 26 43 37 26 43 37 25 42 36 26 43 37 26 43 37 26 43 37 25 42 36 23 42 36 26 43 37 23 42 36 25 42 36 24 36 32 5 9 8 1 1 1 13 13 13 
25 42 36 26 43 37 26 43 37 24 43 37 26 43 37 26 43 37 26 43 37 26 43 37 12 23 19 1 1 1 10 10 10 32 32 32 31 33 32 34 34 34 31 31 31 32 32 32 36 36 36 48 48 48 49 49 49 49 49 49 48 48 48 50 50 50 49 49 49 49 49 49 49 49 49 49 49 49 48 48 48 49 49 49 50 50 50 49 49 49 49 49 49 49 49 49 48 48 48 49 49 49 48 48 48 49 49 49 49 49 49 48 48 48 49 49 49 49 49 49 24 24 24 1 1 1 16 27 23 25 44 38 24 43 37 26 43 37 26 43 37 25 42 36 24 43 37 27 44 38 23 42 36 24 43 37 26 43 37 24 43 37 26 43 37 26 43 37 25 42 36 26 43 37 25 42 36 25 42 36 25 42 36 26 43 37 25 42 36 26 43 37 26 43 37 26 43 37 25 42 36 25 44 38 25 42 36 26 43 37 26 43 37 24 43 37 25 42 36 25 42 36 26 43 37 27 44 38 26 43 37 27 44 38 26 43 37 25 42 36 28 45 39 26 43 37 26 43 37 26 43 37 27 44 38 25 42 36 26 43 37 25 42 36 25 42 36 25 42 36 26 43 37 26 43 37 25 42 36 26 43 37 25 42 36 25 42 36 12 18 16 0 0 0 12 12 12 30 30 30 
26 43 37 26 43 37 26 43 37 26 43 37 26 43 37 25 42 36 27 44 38 24 39 34 6 6 6 2 2 2 28 28 28 33 33 33 32 32 32 33 33 33 32 32 32 36 36 36 46 46 46 50 50 50 48 48 48 48 48 48 49 49 49 49 49 49 49 49 49 49 49 49 48 48 48 49 49 49 48 48 48 48 48 48 49 49 49 47 47 47 48 48 48 50 50 50 48 48 48 49 49 49 47 47 47 48 48 48 50 50 50 48 48 48 49 49 49 49 49 49 25 25 25 1 1 1 13 22 19 27 44 38 26 43 37 26 43 37 25 44 38 26 43 37 26 43 37 26 43 37 26 43 37 26 43 37 26 43 37 25 42 36 26 43 37 26 43 37 26 43 37 26 43 37 26 43 37 26 43 37 26 43 37 26 43 37 25 42 36 25 42 36 26 43 37 26 43 37 26 43 37 26 43 37 25 42 36 26 43 37 26 43 37 26 43 37 26 43 37 26 43 37 25 42 36 27 44 38 25 42 36 25 42 36 26 43 37 25 42 36 25 42 36 26 42 41 26 43 37 25 42 36 24 43 37 24 43 37 24 43 37 25 42 36 23 42 36 27 42 37 23 42 38 23 42 38 26 42 39 25 42 36 25 42 36 16 27 23 2 2 2 3 3 3 29 29 29 34 34 34 
26 43 37 27 44 38 25 42 36 26 43 37 26 43 37 24 43 37 26 43 37 13 19 17 1 1 1 10 10 10 33 33 33 33 33 33 32 32 32 33 33 33 32 32 32 43 43 43 51 51 51 49 49 49 47 47 47 48 48 48 49 49 49 49 49 49 49 49 49 50 50 50 48 48 48 48 48 48 50 50 50 48 48 48 48 48 48 49 49 49 50 50 50 49 49 49 50 50 50 49 49 49 48 48 48 48 48 48 48 48 48 49 49 49 49 49 49 50 50 50 23 23 23 1 1 1 12 21 18 27 44 38 26 43 37 25 42 36 24 43 37 26 43 37 24 43 37 25 42 36 25 42 36 25 42 36 24 43 37 26 43 37 25 42 36 26 43 37 25 42 36 25 42 36 26 43 37 26 43 37 25 42 36 25 42 36 25 42 36 25 42 36 26 43 37 25 42 36 27 44 38 27 44 38 26 43 37 26 43 37 26 43 37 26 43 37 25 42 36 26 43 37 26 43 37 26 43 37 26 43 37 26 43 37 27 44 38 26 43 37 26 42 39 26 42 39 27 44 38 25 42 36 24 43 37 26 42 39 26 42 39 24 43 39 26 42 39 26 43 37 26 43 37 25 41 38 26 42 39 24 41 35 23 40 34 5 9 8 1 1 1 22 22 22 32 32 32 33 33 33 
23 42 36 26 43 37 25 42 36 26 43 37 25 42 36 24 43 37 21 36 31 1 1 1 2 2 2 25 25 25 33 33 33 33 33 33 33 33 33 34 34 34 34 34 34 47 47 47 49 49 49 49 49 49 48 48 48 49 49 49 48 48 48 48 48 48 49 49 49 48 48 48 49 49 49 49 49 49 47 47 47 48 48 48 48 48 48 49 49 49 48 48 48 49 49 49 48 48 48 49 49 49 48 48 48 49 49 49 48 48 48 49 49 49 48 48 48 48 48 48 27 27 27 0 0 0 14 20 18 26 43 37 26 43 37 25 42 36 24 43 37 26 43 37 25 42 36 26 43 37 24 43 37 26 43 37 26 43 37 26 43 37 23 42 36 26 43 37 24 41 35 26 43 37 25 42 36 26 43 37 24 41 35 25 42 36 26 43 37 26 43 37 26 43 37 24 43 37 25 42 36 24 43 37 26 43 37 26 43 37 26 43 37 25 42 36 25 42 36 26 43 37 26 43 37 25 42 36 26 43 37 25 42 36 25 42 36 26 43 37 25 41 38 24 43 39 24 43 37 24 43 37 24 43 37 26 42 39 24 43 39 25 41 38 24 43 39 26 42 39 23 42 38 25 41 38 26 42 39 26 43 37 14 25 21 1 1 1 7 7 7 31 31 31 32 32 32 33 33 33 
24 43 37 25 42 36 25 42 36 26 43 37 25 42 36 25 42 36 12 18 16 1 1 1 12 12 12 31 31 31 20 20 20 31 31 31 32 32 32 33 33 33 40 40 40 47 47 47 48 48 48 48 48 48 48 48 48 49 49 49 48 48 48 48 48 48 49 49 49 48 48 48 48 48 48 48 48 48 49 49 49 48 48 48 48 48 48 49 49 49 48 48 48 49 49 49 49 49 49 48 48 48 49 49 49 49 49 49 49 49 49 48 48 48 50 50 50 48 48 48 33 33 33 1 1 1 10 16 14 25 42 36 25 42 36 26 43 37 26 43 37 25 42 36 25 42 36 26 43 37 25 42 36 25 42 36 26 43 37 25 42 36 25 42 36 26 43 37 26 43 37 26 43 37 26 43 37 25 42 36 26 43 37 27 44 38 26 43 37 26 43 37 25 42 36 25 42 36 25 42 36 26 43 37 23 42 36 26 43 37 24 43 37 26 43 37 26 43 37 25 42 36 26 43 37 25 42 36 27 44 38 25 42 36 26 43 37 26 43 37 25 42 36 25 44 40 26 42 39 24 43 37 25 42 36 24 43 39 26 43 35 26 43 37 26 42 39 24 43 39 25 41 38 27 44 38 25 42 36 23 38 31 4 6 3 2 2 2 28 28 28 32 32 32 32 32 32 32 32 32 
26 43 37 26 43 37 26 43 37 26 43 37 25 42 36 22 37 32 3 3 3 1 1 1 29 29 29 29 29 29 15 15 15 32 32 32 33 33 33 36 36 36 47 47 47 49 49 49 49 49 49 48 48 48 47 47 47 48 48 48 48 48 48 48 48 48 49 49 49 48 48 48 49 49 49 48 48 48 49 49 49 49 49 49 49 49 49 48 48 48 48 48 48 47 47 47 47 47 47 48 48 48 48 48 48 48 48 48 48 48 48 48 48 48 48 48 48 48 48 48 32 32 32 1 1 1 10 16 14 26 43 37 26 43 37 25 42 36 26 43 37 26 43 37 25 42 36 26 43 37 26 43 37 26 43 37 27 44 38 26 43 37 26 43 37 26 43 37 25 42 36 26 43 37 25 42 36 25 42 36 25 42 36 26 43 37 26 43 37 25 42 36 25 42 36 26 45 39 26 43 37 24 43 37 25 42 36 25 42 36 25 42 36 26 43 37 26 43 37 26 43 37 26 43 37 26 43 37 25 42 36 25 42 36 26 43 37 25 42 36 25 42 36 24 43 39 23 42 38 24 43 39 24 43 37 25 42 36 24 43 37 25 42 36 25 41 38 25 42 36 25 42 36 24 41 33 24 40 37 8 12 11 1 1 1 15 15 15 33 33 33 33 33 33 33 33 33 33 33 33 
25 42 36 25 42 36 25 42 36 26 43 37 25 42 36 10 19 16 2 0 1 18 18 18 33 33 33 32 32 32 32 32 32 33 33 33 33 33 33 41 41 41 48 48 48 49 49 49 49 49 49 46 46 46 43 43 43 49 49 49 49 49 49 47 47 47 48 48 48 49 49 49 50 50 50 48 48 48 48 48 48 48 48 48 47 47 47 49 49 49 48 48 48 48 48 48 47 47 47 47 47 47 48 48 48 49 49 49 48 48 48 49 49 49 47 47 47 48 48 48 30 30 30 1 1 1 8 12 11 25 42 36 26 43 37 25 42 36 26 43 37 26 43 37 26 43 37 26 43 37 24 43 37 25 42 36 26 43 37 25 42 36 23 42 36 25 42 36 25 42 36 25 42 36 26 43 37 25 42 36 26 43 37 26 43 37 26 43 37 25 42 36 27 44 38 25 42 36 26 43 37 25 42 36 24 43 37 25 42 36 24 43 37 26 43 37 26 43 37 26 43 37 26 43 37 26 43 37 26 43 37 26 43 37 26 43 37 26 43 37 26 42 39 27 43 40 26 42 39 25 41 38 26 43 37 25 42 36 25 42 36 25 40 37 36 31 28 42 28 27 48 24 24 41 25 25 11 13 12 1 1 1 7 7 7 30 30 30 33 33 33 33 33 33 31 31 31 32 32 32 
25 42 36 25 42 36 26 43 37 26 43 37 21 36 31 2 4 3 3 3 3 31 31 31 33 33 33 33 33 33 32 32 32 33 33 33 34 34 34 44 44 44 49 49 49 48 48 48 47 47 47 11 11 11 5 5 5 33 33 33 49 49 49 49 49 49 48 48 48 48 48 48 49 49 49 48 48 48 50 50 50 49 49 49 47 47 47 48 48 48 49 49 49 49 49 49 49 49 49 48 48 48 50 50 50 47 47 47 47 47 47 49 49 49 49 49 49 49 49 49 29 29 29 1 1 1 9 13 12 26 43 37 25 42 36 26 43 37 26 43 37 26 43 37 24 43 37 25 42 36 26 43 37 25 42 36 24 43 37 27 44 38 26 43 37 26 43 37 26 43 37 26 43 37 25 42 36 25 42 36 25 42 36 25 42 36 26 43 37 26 43 37 25 42 36 26 43 37 26 43 37 26 43 37 25 42 36 25 42 36 25 42 36 27 44 38 25 42 36 25 42 36 26 43 37 26 43 37 25 42 36 25 42 36 25 42 36 27 44 38 25 41 38 26 42 39 26 43 37 24 43 37 26 43 37 27 44 38 29 42 35 34 25 26 47 21 20 48 24 22 42 21 20 46 22 20 7 6 4 6 6 6 29 29 29 34 34 34 33 33 33 33 33 33 33 33 33 33 33 33 
25 42 36 23 42 36 26 43 37 26 43 37 9 18 15 0 0 0 13 13 13 32 32 32 11 11 11 25 25 25 31 31 31 32 32 32 40 40 40 47 47 47 48 48 48 49 49 49 46 46 46 4 4 4 1 1 1 26 26 26 49 49 49 49 49 49 49 49 49 48 48 48 48 48 48 48 48 48 48 48 48 47 47 47 48 48 48 48 48 48 50 50 50 47 47 47 48 48 48 48 48 48 48 48 48 49 49 49 49 49 49 48 48 48 48 48 48 49 49 49 34 34 34 0 0 0 6 8 7 24 41 35 26 43 37 26 43 37 25 42 36 26 43 37 25 42 36 26 43 37 26 43 37 25 42 36 25 42 36 25 42 36 26 43 37 26 43 37 27 44 38 26 43 37 25 42 36 25 42 36 26 43 37 26 43 37 25 42 36 25 42 36 25 42 36 26 43 37 26 43 37 26 43 37 26 43 37 27 44 38 25 42 36 26 43 37 26 43 37 26 43 37 26 43 37 25 42 36 26 43 37 27 44 38 25 42 36 26 43 37 25 41 38 26 43 37 25 42 36 26 43 37 25 42 36 26 41 36 38 28 26 46 22 20 42 21 20 48 22 23 23 11 11 47 21 20 17 13 12 26 25 30 32 32 32 32 32 32 33 33 33 32 32 32 33 33 33 34 34 34 
25 42 36 24 43 37 24 43 37 20 32 28 3 3 3 2 0 1 25 25 25 21 21 21 2 2 2 20 20 20 32 32 32 33 33 33 42 42 42 48 48 48 48 48 48 48 48 48 48 48 48 30 30 30 21 21 21 43 43 43 48 48 48 48 48 48 48 48 48 49 49 49 49 49 49 48 48 48 49 49 49 48 48 48 48 48 48 50 50 50 48 48 48 48 48 48 48 48 48 48 48 48 49 49 49 48 48 48 49 49 49 48 48 48 49 49 49 48 48 48 40 40 40 1 1 1 8 10 9 23 42 36 25 42 36 24 43 37 26 43 37 26 43 37 25 42 36 25 42 36 25 42 36 26 43 37 26 43 37 26 43 37 26 43 37 25 42 36 26 43 37 25 42 36 25 42 36 26 43 37 25 42 36 25 42 36 25 42 36 25 42 36 25 42 36 25 42 36 25 42 36 25 42 36 25 42 36 26 43 37 27 44 38 25 42 36 24 41 35 25 42 36 26 43 37 25 42 36 26 43 37 26 43 37 26 43 37 28 45 39 27 44 38 24 43 37 26 43 37 24 43 37 24 43 39 32 32 30 51 23 20 49 23 22 40 19 18 49 23 22 48 22 21 50 22 21 43 25 23 32 32 32 33 33 33 33 33 33 33 31 34 34 34 34 34 34 34 33 33 33 
25 42 36 24 43 37 26 43 37 11 17 15 1 1 1 12 12 12 29 29 29 5 5 5 12 12 12 32 32 32 33 33 33 32 32 32 47 47 47 47 47 47 49 49 49 49 49 49 48 48 48 47 47 47 47 47 47 48 48 48 50 50 50 47 47 47 48 48 48 48 48 48 48 48 48 48 48 48 48 48 48 47 47 47 48 48 48 49 49 49 48 48 48 48 48 48 49 49 49 48 48 48 49 49 49 47 47 47 49 49 49 48 48 48 47 47 47 48 48 48 42 42 42 3 3 3 4 4 4 23 40 34 25 42 36 25 42 36 25 42 36 26 43 37 26 43 37 26 43 37 25 42 36 26 43 37 25 42 36 25 42 36 26 43 37 27 44 38 26 43 37 26 43 37 26 43 37 26 43 37 26 43 37 26 43 37 26 43 37 26 43 37 26 43 37 26 43 37 25 42 36 27 44 38 25 42 36 26 43 37 25 42 36 25 42 36 26 43 37 26 43 37 25 42 36 26 43 37 26 43 37 27 44 38 25 42 36 26 43 37 26 43 37 25 42 36 27 43 40 26 42 39 28 39 35 47 26 25 50 22 21 49 23 22 39 19 20 49 23 22 38 18 17 19 9 8 49 23 22 38 28 27 31 32 34 32 32 32 33 33 35 32 32 32 33 33 33 32 32 32 
26 43 37 25 42 36 23 35 31 4 6 5 0 0 0 26 28 27 18 18 18 4 4 4 28 28 28 33 33 33 33 33 33 43 43 43 49 49 49 48 48 48 48 48 48 48 48 48 48 48 48 49 49 49 47 47 47 47 47 47 47 47 47 49 49 49 48 48 48 49 49 49 48 48 48 48 48 48 47 47 47 49 49 49 48 48 48 50 50 50 47 47 47 48 48 48 47 47 47 48 48 48 49 49 49 47 47 47 49 49 49 48 48 48 48 48 48 48 48 48 45 45 45 5 5 5 4 4 4 23 40 34 25 42 36 26 43 37 25 42 36 26 43 37 26 43 37 25 42 36 26 43 37 25 42 36 26 43 37 24 41 35 25 42 36 25 42 36 25 42 36 26 43 37 25 42 36 25 42 36 25 42 36 26 43 37 26 43 37 25 42 36 26 43 37 25 42 36 26 43 37 26 43 37 26 43 37 25 42 36 25 42 36 27 44 38 26 43 37 26 43 37 25 42 36 25 42 36 26 43 37 25 42 36 25 42 36 26 43 37 26 42 39 25 41 38 26 43 37 32 34 31 46 25 24 51 22 24 50 24 23 52 23 25 45 21 21 42 21 20 40 19 18 45 21 21 49 23 24 44 25 21 32 32 32 33 33 33 31 31 33 33 33 33 32 32 32 33 33 33 
25 42 36 24 43 37 10 19 16 1 1 1 10 10 10 29 29 29 1 5 4 17 17 17 33 33 33 34 34 34 37 37 37 48 48 48 48 48 48 49 49 49 48 48 48 49 49 49 48 48 48 50 50 50 47 47 47 46 46 46 48 48 48 48 48 48 48 48 48 48 48 48 48 48 48 49 49 49 48 48 48 47 47 47 49 49 49 47 47 47 48 48 48 48 48 48 50 50 50 49 49 49 48 48 48 49 49 49 49 49 49 49 49 49 49 49 49 48 48 48 43 43 43 4 4 4 3 1 2 22 37 32 26 43 37 25 42 36 26 43 37 26 43 37 26 43 37 25 42 36 25 42 36 25 42 36 25 42 36 25 42 36 25 42 36 25 42 36 25 42 36 25 42 36 27 44 38 25 42 36 25 42 36 26 43 37 26 43 37 25 42 36 25 42 36 26 43 37 25 42 36 26 43 37 24 41 35 25 42 36 25 42 36 26 43 37 25 42 36 24 41 35 27 44 38 26 43 37 26 43 37 25 42 36 26 43 37 26 43 37 25 42 36 25 42 36 26 41 36 48 24 22 50 22 21 49 23 22 48 23 19 49 23 22 47 23 21 38 22 23 51 23 22 42 21 20 27 11 11 48 22 21 39 28 26 33 33 33 32 30 31 31 31 31 33 33 33 33 33 33 
25 42 36 24 41 35 3 7 6 1 1 1 25 25 25 13 13 13 3 3 3 28 30 29 33 33 33 32 32 32 39 39 39 48 48 48 48 48 48 48 48 48 48 48 48 47 47 47 48 48 48 48 48 48 48 48 48 49 49 49 49 49 49 49 49 49 48 48 48 48 48 48 47 47 47 48 48 48 49 49 49 48 48 48 47 47 47 49 49 49 48 48 48 48 48 48 49 49 49 49 49 49 48 48 48 49 49 49 48 48 48 49 49 49 49 49 49 47 47 47 48 48 48 13 13 13 1 1 1 19 34 29 24 43 37 23 42 36 25 42 36 27 44 38 26 43 37 25 42 36 26 43 37 26 43 37 26 43 37 25 42 36 25 42 36 25 42 36 25 42 36 25 42 36 25 42 36 25 42 36 24 41 35 25 42 36 25 42 36 25 42 36 25 42 36 25 42 36 26 43 37 26 43 37 25 42 36 26 43 37 25 42 36 24 41 35 26 43 37 26 43 37 25 42 36 25 42 36 26 43 37 26 43 37 26 43 37 26 43 37 27 43 40 26 42 39 36 31 28 51 23 22 48 22 21 49 23 22 49 23 22 49 23 24 35 23 23 31 29 30 42 22 21 28 12 12 46 20 21 51 23 22 47 23 23 34 30 29 32 32 32 32 32 32 32 32 32 33 33 33 
26 43 37 16 27 23 0 2 1 6 6 6 29 29 29 3 3 3 13 13 13 32 32 32 33 33 33 34 34 34 42 42 42 48 48 48 49 49 49 48 48 48 48 48 48 48 48 48 49 49 49 48 48 48 43 43 43 40 40 40 47 47 47 49 49 49 48 48 48 48 48 48 48 48 48 46 46 46 48 48 48 49 49 49 48 48 48 48 48 48 48 48 48 49 49 49 46 46 46 49 49 49 48 48 48 47 47 47 48 48 48 48 48 48 48 48 48 47 47 47 48 48 48 17 17 17 1 1 1 12 24 20 25 42 36 26 43 37 24 43 37 25 42 36 26 43 37 26 43 37 26 43 37 26 43 37 25 42 36 25 42 36 25 42 36 25 42 36 26 43 37 26 43 37 27 44 38 26 43 37 26 43 37 25 42 36 26 43 37 26 43 37 25 42 36 26 43 37 25 42 36 25 42 36 25 42 36 26 43 37 26 43 37 26 43 37 25 42 36 25 42 36 25 42 36 26 43 37 25 42 36 25 42 36 26 43 37 25 42 36 25 44 40 24 41 35 46 25 24 49 23 22 18 8 7 49 23 22 51 23 22 31 21 22 30 30 30 32 30 31 37 17 18 51 23 22 49 23 22 49 23 24 51 23 20 39 27 27 31 33 30 33 33 33 31 31 31 33 33 33 
26 41 36 7 11 10 1 1 1 22 24 23 32 32 32 6 6 6 25 25 25 33 33 33 32 32 32 33 33 33 46 46 46 47 47 47 48 48 48 48 48 48 48 48 48 48 48 48 48 48 48 43 43 43 7 7 7 4 4 4 34 34 34 48 48 48 48 48 48 49 49 49 48 48 48 47 47 47 48 48 48 48 48 48 48 48 48 49 49 49 47 47 47 49 49 49 49 49 49 47 47 47 48 48 48 48 48 48 48 48 48 49 49 49 49 49 49 48 48 48 49 49 49 30 30 30 0 0 0 10 16 14 24 43 37 24 43 37 26 43 37 25 42 36 25 42 36 25 42 36 25 42 36 25 42 36 25 42 36 26 43 37 26 43 37 26 43 37 26 43 37 25 42 36 26 43 37 25 42 36 25 42 36 27 44 38 25 42 36 26 43 37 25 42 36 26 43 37 25 42 36 26 43 37 26 43 37 26 43 37 25 42 36 26 43 37 26 43 37 24 41 35 25 42 36 25 42 36 26 43 37 27 44 38 26 43 37 26 43 37 24 43 37 34 34 32 51 23 22 51 22 24 16 7 8 49 23 22 44 24 25 32 32 32 32 31 29 45 26 22 35 25 26 44 24 23 51 23 22 50 21 23 48 22 21 46 25 22 32 31 29 33 33 33 34 34 34 33 33 33 
20 32 28 2 2 2 5 5 5 31 31 31 33 33 33 31 31 31 32 32 32 33 33 33 33 33 33 37 37 37 49 49 49 49 49 49 48 48 48 48 48 48 48 48 48 48 48 48 49 49 49 34 34 34 2 2 2 1 1 1 30 30 30 48 48 48 47 47 47 48 48 48 49 49 49 48 48 48 48 48 48 49 49 49 48 48 48 49 49 49 49 49 49 48 48 48 48 48 48 47 47 47 47 47 47 48 48 48 49 49 49 49 49 49 48 48 48 48 48 48 49 49 49 35 35 35 2 2 2 6 8 7 26 43 37 26 43 37 26 43 37 24 43 37 26 43 37 25 42 36 25 42 36 26 43 37 26 43 37 25 42 36 26 43 37 26 43 37 26 43 37 25 42 36 25 42 36 25 42 36 25 42 36 26 43 37 26 43 37 25 42 36 26 43 37 26 43 37 25 42 36 26 43 37 25 42 36 25 42 36 25 42 36 25 42 36 25 42 36 25 42 36 24 41 35 26 43 37 25 42 36 25 42 36 26 43 37 26 43 37 25 42 36 44 24 23 40 20 19 39 19 20 21 11 10 38 18 19 40 19 18 37 26 22 47 23 21 40 26 25 32 32 32 36 27 30 49 23 22 51 22 24 51 22 24 49 23 22 37 27 28 32 32 32 33 35 34 44 42 43 
9 20 16 0 0 0 17 15 16 32 32 32 32 32 32 31 31 31 32 32 32 32 32 32 33 33 33 39 39 39 49 49 49 48 48 48 49 49 49 48 48 48 48 48 48 47 47 47 49 49 49 26 26 26 1 1 1 5 5 5 43 43 43 48 48 48 46 46 46 49 49 49 49 49 49 48 48 48 48 48 48 47 47 47 49 49 49 47 47 47 47 47 47 47 47 47 47 47 47 48 48 48 47 47 47 48 48 48 48 48 48 49 49 49 48 48 48 47 47 47 47 47 47 46 46 46 4 6 5 4 4 4 25 42 36 23 42 36 25 42 36 25 42 36 26 43 37 26 43 37 25 42 36 25 42 36 25 42 36 25 42 36 25 42 36 24 41 35 24 41 35 25 42 36 26 43 37 23 40 34 25 42 36 25 42 36 25 42 36 26 43 37 25 42 36 26 43 37 26 43 37 26 43 37 25 42 36 25 42 36 25 42 36 25 42 36 25 41 38 25 41 38 23 42 36 25 41 38 26 43 37 25 42 36 26 43 35 25 42 36 32 31 29 49 24 20 21 11 10 33 17 17 48 22 21 19 9 8 45 21 19 49 25 23 34 28 28 30 30 30 29 29 29 33 27 27 38 18 17 48 22 23 51 23 22 51 22 24 45 24 21 33 31 32 45 45 45 48 46 47 
1 3 2 3 3 3 29 29 29 32 32 32 32 32 32 33 33 33 32 32 32 32 32 32 32 32 32 41 41 41 48 48 48 48 48 48 48 48 48 49 49 49 48 48 48 48 48 48 48 48 48 42 42 42 24 24 24 32 32 32 47 47 47 48 48 48 47 47 47 43 43 43 23 23 23 26 26 26 47 47 47 48 48 48 48 48 48 49 49 49 49 49 49 49 49 49 48 48 48 48 48 48 48 48 48 47 47 47 48 48 48 48 48 48 48 48 48 48 48 48 48 48 48 46 46 46 18 18 18 1 1 1 21 36 31 25 42 36 26 43 37 26 43 37 26 43 37 25 42 36 25 42 36 26 43 37 26 43 37 26 43 37 25 42 36 26 43 37 25 42 36 26 41 36 26 43 37 24 41 35 26 43 37 25 42 36 24 43 37 26 43 37 25 42 36 25 42 36 26 43 37 25 42 36 26 43 37 26 43 37 25 42 36 25 42 36 25 41 38 25 42 36 26 43 37 25 41 38 26 43 37 25 42 36 23 40 34 19 24 20 47 21 22 47 21 20 23 15 13 41 20 19 47 21 22 26 12 12 48 22 23 50 22 21 31 22 23 6 4 5 7 6 4 45 21 21 36 25 23 40 26 25 48 22 21 49 23 22 47 21 20 43 29 28 47 47 45 48 48 48 
3 1 2 12 12 12 32 32 32 32 32 32 33 33 33 32 32 32 32 32 32 27 27 27 12 12 12 15 15 15 40 40 40 49 49 49 48 48 48 47 47 47 48 48 48 48 48 48 48 48 48 48 48 48 48 48 48 48 48 48 48 48 48 48 48 48 49 49 49 35 35 35 2 2 2 3 3 3 40 40 40 49 49 49 47 47 47 47 47 47 47 47 47 48 48 48 47 47 47 47 47 47 47 47 47 48 48 48 49 49 49 48 48 48 48 48 48 49 49 49 48 48 48 48 48 48 23 23 23 0 0 0 11 22 18 25 42 36 26 43 37 25 42 36 26 43 37 27 44 38 25 42 36 25 42 36 24 41 35 26 43 37 25 42 36 25 42 36 26 43 37 25 42 36 25 42 36 26 43 37 26 43 37 25 42 36 25 42 36 27 44 38 25 42 36 25 42 36 26 43 37 24 41 35 26 43 37 24 41 35 25 42 36 24 41 35 25 42 36 25 42 36 26 43 37 25 42 36 25 41 38 23 39 36 9 15 13 26 14 14 50 24 23 43 23 22 32 26 26 46 22 22 42 21 20 49 23 24 51 23 22 48 24 22 40 20 21 2 2 2 24 14 13 44 23 22 31 31 31 34 30 29 47 23 21 49 23 22 51 23 22 47 23 23 44 40 39 49 47 48 
1 1 1 22 22 22 32 32 32 33 31 32 31 31 31 32 32 32 33 31 32 13 13 13 1 1 1 1 1 1 21 21 21 48 48 48 49 49 49 48 48 48 47 47 47 47 47 47 48 48 48 48 48 48 49 49 49 48 48 48 48 48 48 48 48 48 49 49 49 43 43 43 18 18 18 20 20 20 46 46 46 48 48 48 49 49 49 48 48 48 47 47 47 49 49 49 47 47 47 48 48 48 49 49 49 48 48 48 49 49 49 48 48 48 49 49 49 48 48 48 47 47 47 48 48 48 30 30 30 1 1 1 4 8 7 23 42 36 24 41 35 26 43 37 25 42 36 26 43 37 25 42 36 25 42 36 24 41 35 25 42 36 25 42 36 25 42 36 24 41 35 25 42 36 25 42 36 25 42 36 24 41 35 25 42 36 25 42 36 25 42 36 25 42 36 25 42 36 25 42 36 25 42 36 25 42 36 25 42 36 26 43 37 25 42 36 26 43 37 25 42 36 26 43 37 25 42 36 19 34 29 6 10 11 0 2 1 34 18 18 49 23 22 37 27 26 33 28 32 49 23 24 40 19 18 51 23 22 49 23 22 51 23 22 51 23 22 36 20 21 47 23 23 34 28 28 32 32 32 32 32 30 35 19 19 49 23 24 49 23 24 50 22 21 48 24 24 46 46 46 
1 3 2 28 28 28 30 30 30 33 33 33 32 32 32 30 30 30 33 31 32 15 15 15 0 0 0 1 1 1 23 23 23 49 49 49 48 48 48 47 47 47 48 48 48 47 47 47 47 47 47 48 48 48 49 49 49 49 49 49 48 48 48 49 49 49 49 49 49 47 47 47 47 47 47 46 46 46 47 47 47 47 47 47 48 48 48 48 48 48 49 49 49 47 47 47 49 49 49 47 47 47 47 47 47 47 47 47 47 47 47 48 48 48 47 47 47 49 49 49 48 48 48 49 49 49 45 45 45 5 5 5 1 1 1 20 35 30 25 42 36 25 42 36 26 43 37 26 43 37 25 42 36 25 42 36 25 42 36 25 42 36 24 41 35 25 42 36 25 42 36 26 43 37 25 42 36 25 42 36 26 43 37 25 42 36 25 42 36 25 42 36 26 43 37 25 42 36 25 42 36 26 43 37 25 42 36 25 42 36 25 42 36 24 41 35 25 42 36 25 42 36 26 41 36 21 36 31 3 7 6 1 1 1 6 6 6 40 22 22 44 18 17 36 24 26 33 27 29 51 23 20 44 20 20 42 21 18 49 23 22 48 22 23 51 22 24 49 23 22 40 28 28 32 32 34 37 35 36 41 29 29 44 24 25 45 27 25 51 23 22 48 24 22 49 23 22 45 31 30 
14 14 14 32 32 32 33 33 33 32 32 32 32 32 32 33 33 33 33 33 33 33 33 33 25 25 25 19 19 19 41 41 41 48 48 48 47 47 47 49 49 49 48 48 48 49 49 49 47 47 47 50 50 50 48 48 48 48 48 48 47 47 47 48 48 48 49 49 49 48 48 48 48 48 48 48 48 48 47 47 47 49 49 49 48 48 48 47 47 47 47 47 47 48 48 48 48 48 48 47 47 47 48 48 48 48 48 48 48 48 48 48 48 48 48 48 48 48 48 48 46 46 46 47 47 47 48 48 48 16 16 16 1 1 1 13 22 19 24 41 35 25 42 36 24 41 35 25 42 36 24 41 35 25 42 36 25 42 36 25 42 36 24 41 35 25 42 36 25 42 36 25 42 36 24 41 35 24 41 35 25 42 36 25 42 36 24 41 35 24 41 35 26 43 37 25 42 36 26 43 37 25 42 36 25 42 36 25 42 36 25 42 36 25 42 36 25 42 36 24 41 35 17 28 24 4 4 4 1 1 0 8 8 8 28 28 28 39 25 24 47 21 22 26 20 22 34 25 26 48 24 22 51 22 24 38 22 22 48 22 21 50 21 23 41 20 17 38 17 16 40 24 25 34 34 34 42 33 34 47 23 23 45 41 40 42 40 41 48 22 23 48 22 21 50 22 21 49 23 22 
26 26 26 31 31 31 32 32 32 32 32 32 32 32 32 32 32 32 31 31 31 37 37 37 47 47 47 48 48 48 47 47 47 47 47 47 49 49 49 47 47 47 47 47 47 49 49 49 49 49 49 48 48 48 48 48 48 48 48 48 47 47 47 47 47 47 48 48 48 48 48 48 47 47 47 47 47 47 48 48 48 48 48 48 48 48 48 46 46 46 47 47 47 48 48 48 48 48 48 48 48 48 48 48 48 48 48 48 47 47 47 47 47 47 49 49 49 47 47 47 47 47 47 48 48 48 48 48 48 30 30 30 1 1 1 8 12 11 25 42 36 26 43 37 26 43 37 26 43 37 25 42 36 25 42 36 26 43 37 25 42 36 25 42 36 25 42 36 26 43 37 23 42 36 25 42 36 26 43 37 26 43 37 26 43 37 25 40 35 25 42 36 25 42 36 25 42 36 25 42 36 25 42 36 24 41 35 25 42 36 25 42 36 25 42 36 26 41 36 12 23 19 2 2 2 0 0 0 15 15 15 30 30 30 26 26 26 34 18 18 48 22 25 35 25 24 40 20 19 47 21 22 51 22 24 32 27 24 46 25 24 51 23 22 33 15 15 34 16 14 47 23 21 40 32 30 47 22 25 44 36 34 48 48 46 43 38 35 38 20 18 50 21 23 51 23 22 50 22 21 
32 32 32 32 32 32 32 32 32 33 31 32 33 33 33 32 32 32 34 32 33 39 39 39 49 49 49 49 49 49 49 49 49 47 47 47 48 48 48 47 47 47 49 49 49 48 48 48 48 48 48 48 48 48 48 48 48 49 49 49 48 48 48 48 48 48 47 47 47 49 49 49 48 48 48 48 48 48 49 49 49 47 47 47 48 48 48 48 48 48 49 49 49 50 50 50 47 47 47 48 48 48 49 49 49 48 48 48 49 49 49 47 47 47 48 48 48 48 48 48 48 48 48 48 48 48 48 48 48 46 46 46 6 6 6 0 2 1 19 36 30 25 42 36 26 43 37 26 43 37 25 42 36 24 41 35 25 42 36 25 42 36 25 42 36 25 42 36 24 41 35 25 42 36 26 43 37 24 41 35 24 41 35 25 42 36 25 42 36 24 41 35 26 43 37 25 42 36 26 43 37 25 42 36 26 43 37 25 42 36 25 42 36 21 38 32 9 15 15 2 2 2 2 2 4 20 20 20 32 32 32 31 33 32 31 31 31 37 23 20 50 22 21 47 23 23 45 21 21 46 20 21 51 22 26 33 27 27 37 25 27 50 24 23 23 11 11 38 18 19 49 23 22 49 23 22 44 30 29 46 48 47 46 42 41 48 24 24 39 33 33 45 27 25 49 23 22 49 23 22 
32 32 32 33 33 33 32 32 32 32 32 32 31 31 31 33 33 33 32 32 32 42 42 42 48 48 48 49 49 49 47 47 47 47 47 47 48 48 48 47 47 47 49 49 49 49 49 49 47 47 47 49 49 49 49 49 49 49 49 49 47 47 47 48 48 48 48 48 48 47 47 47 49 49 49 47 47 47 48 48 48 48 48 48 48 48 48 47 47 47 49 49 49 48 48 48 47 47 47 48 48 48 49 49 49 47 47 47 49 49 49 48 48 48 48 48 48 48 48 48 47 47 47 49 47 48 48 48 48 46 46 46 26 26 26 0 2 1 13 19 17 25 42 36 24 41 35 25 42 36 25 42 36 26 43 37 26 43 37 25 42 36 26 41 36 25 42 36 25 42 36 26 43 37 25 42 36 24 41 35 25 42 36 26 43 37 26 43 37 26 43 37 24 41 35 26 43 37 25 42 36 24 41 35 25 42 36 24 43 37 20 32 28 2 4 3 1 1 1 5 5 5 25 25 25 32 32 32 34 34 34 33 33 33 34 34 34 37 25 25 38 18 17 46 22 20 37 23 22 46 22 20 50 22 21 32 28 27 39 23 24 43 19 19 42 21 20 48 22 23 51 23 22 49 23 22 43 37 37 42 40 41 45 24 23 32 20 20 46 46 46 43 39 38 47 21 22 51 23 22 
32 32 32 32 32 32 32 32 32 32 32 32 34 34 34 32 32 32 32 32 32 42 42 42 47 47 47 50 50 50 49 49 49 48 48 48 47 47 47 48 48 48 47 47 47 48 48 48 47 47 47 41 41 41 46 46 46 47 47 47 48 48 48 48 48 48 48 48 48 48 48 48 47 47 47 47 47 47 48 48 48 48 48 48 46 46 46 48 48 48 48 48 48 48 48 48 48 48 48 48 48 48 48 48 48 46 46 46 49 49 49 47 47 47 47 47 47 48 48 48 47 47 47 47 47 47 47 47 47 50 50 50 36 36 36 0 0 0 1 3 2 22 34 30 24 43 37 25 42 36 25 42 36 26 43 37 25 42 36 26 43 37 26 43 37 26 43 37 24 43 37 26 41 36 25 40 35 25 42 36 24 41 35 24 41 35 26 43 37 26 41 36 26 43 37 25 42 36 25 42 36 26 41 36 24 41 35 14 26 22 2 4 3 0 0 0 10 10 10 30 30 30 32 32 32 32 32 32 31 31 31 32 32 32 33 33 33 38 28 27 48 24 22 40 26 26 32 30 31 44 23 22 49 23 22 41 23 21 49 23 22 41 20 19 47 21 20 48 22 23 50 22 21 26 12 12 47 26 25 42 26 26 41 21 20 7 5 6 42 42 42 43 27 27 39 19 20 51 23 22 
32 32 32 32 32 32 33 33 33 33 33 33 33 33 33 31 31 31 33 33 33 46 46 46 47 47 47 47 47 47 48 48 48 45 45 45 49 49 49 48 48 48 47 47 47 48 48 48 25 25 25 3 3 3 22 22 22 47 47 47 47 47 47 48 48 48 48 48 48 49 49 49 48 48 48 48 48 48 48 48 48 47 47 47 47 47 47 47 47 47 48 48 48 48 48 48 47 47 47 48 48 48 48 48 48 46 46 46 48 48 48 47 47 47 47 47 47 49 49 49 48 48 48 48 48 48 47 47 47 47 47 47 48 48 48 16 16 16 1 1 1 9 18 15 26 43 37 25 42 36 26 43 37 24 41 35 25 42 36 25 42 36 25 42 36 26 43 37 25 42 36 26 41 36 25 42 36 25 42 36 26 41 36 26 43 37 24 43 37 24 41 35 26 43 37 25 42 36 24 41 35 25 42 36 11 20 17 2 2 2 1 1 1 21 21 21 31 31 31 32 32 32 32 32 32 33 33 33 32 32 32 33 33 33 32 32 32 34 28 28 48 22 21 44 24 23 31 31 31 44 24 26 48 22 23 40 19 18 49 23 22 42 32 31 42 22 23 48 22 23 44 20 20 19 9 8 49 23 22 50 21 23 32 26 26 33 33 33 42 32 30 48 24 24 44 36 34 47 26 25 
32 32 32 33 33 33 33 33 33 31 31 31 33 33 33 33 33 33 38 38 38 46 46 46 47 47 47 47 47 47 23 23 23 9 9 9 38 38 38 48 48 48 48 48 48 48 48 48 12 12 12 0 0 0 10 10 10 48 48 48 48 48 48 48 48 48 48 48 48 48 48 48 47 47 47 49 49 49 48 48 48 47 47 47 49 49 49 47 47 47 47 47 47 48 48 48 47 47 47 48 48 48 47 47 47 49 49 49 48 48 48 47 47 47 47 47 47 47 47 47 49 47 48 48 46 47 48 48 48 48 48 48 47 47 47 35 35 35 0 0 0 5 9 8 26 41 36 25 42 36 25 42 36 24 41 35 25 42 36 26 43 37 25 42 36 24 41 35 25 40 35 25 42 36 26 43 37 24 41 35 24 41 35 24 41 35 23 42 36 26 43 37 22 41 35 25 42 36 22 37 32 11 15 14 1 1 1 5 5 5 23 23 23 32 32 32 32 32 32 32 32 32 31 31 31 31 31 31 33 33 33 32 32 32 33 33 33 34 30 29 45 24 23 43 23 22 32 30 31 44 24 25 49 23 24 39 18 17 42 30 30 47 47 47 41 23 21 41 20 19 46 20 19 36 16 15 48 22 23 47 23 23 43 39 38 45 37 35 48 24 24 45 35 33 47 47 49 42 38 39 
32 32 32 32 32 32 33 33 33 32 32 32 31 31 31 33 33 33 38 38 38 48 48 48 47 47 47 46 46 46 13 13 13 2 2 2 30 30 30 49 49 49 48 48 48 48 48 48 37 37 37 17 17 17 35 35 35 48 48 48 48 48 48 48 48 48 49 49 49 47 47 47 48 48 48 47 47 47 48 48 48 47 47 47 48 48 48 47 47 47 47 47 47 46 46 46 46 46 46 48 48 48 47 47 47 47 47 47 47 47 47 48 48 48 46 46 46 49 49 49 48 48 48 47 47 47 47 47 47 47 47 47 48 48 48 46 46 46 8 8 8 0 0 0 14 26 22 26 43 37 25 42 36 25 42 36 26 43 37 25 42 36 26 43 37 25 42 36 25 42 36 26 43 37 25 42 36 25 42 36 25 42 36 25 42 36 24 41 35 25 42 36 24 41 35 13 24 20 5 5 5 1 1 1 7 7 7 26 26 26 32 32 32 32 32 32 32 32 32 32 32 32 32 32 32 32 32 32 32 32 32 33 33 33 33 33 33 30 30 28 45 23 25 46 22 22 33 27 27 43 23 24 48 24 22 37 19 19 47 43 42 49 49 49 45 25 26 41 20 19 45 21 19 49 21 20 49 23 22 47 21 22 47 23 23 47 26 25 43 33 32 47 47 47 44 46 43 42 28 27 
32 32 32 31 31 31 32 32 32 32 32 32 33 33 33 32 32 32 38 38 38 47 47 47 47 47 47 48 48 48 40 40 40 30 30 30 44 44 44 47 47 47 47 47 47 47 47 47 48 48 48 46 46 46 48 48 48 49 49 49 47 47 47 48 48 48 47 47 47 46 46 46 47 47 47 47 47 47 48 48 48 47 47 47 47 47 47 47 47 47 48 48 48 48 48 48 48 48 48 48 48 48 48 48 48 47 47 47 47 47 47 48 48 48 47 47 47 46 46 46 48 48 48 47 47 47 47 47 47 46 46 46 47 47 47 47 47 47 36 36 36 0 0 0 6 10 9 24 41 35 25 42 36 24 41 35 22 41 35 26 43 37 24 41 35 24 41 35 24 41 35 24 41 35 25 42 36 24 41 35 26 43 37 25 42 36 26 43 37 22 39 33 12 21 18 2 2 2 1 1 1 8 8 8 29 29 29 32 32 32 32 32 32 32 32 32 33 33 33 32 32 32 31 31 31 33 33 33 23 23 23 15 15 15 28 28 28 32 32 32 43 25 25 48 22 21 39 25 24 41 20 17 48 22 21 43 29 29 47 47 47 48 48 48 46 28 28 48 24 22 40 20 19 49 23 24 48 22 21 48 22 21 45 24 23 45 25 24 46 44 45 47 47 45 44 40 39 46 25 22 
32 32 32 33 33 33 33 33 33 32 32 32 32 32 32 32 32 32 43 43 43 47 47 47 48 48 48 47 47 47 48 48 48 49 49 49 47 47 47 48 48 48 48 48 48 47 47 47 48 48 48 47 47 47 47 47 47 47 47 47 48 48 48 47 47 47 47 47 47 47 47 47 46 46 46 47 47 47 48 48 48 47 47 47 46 46 46 46 46 46 48 48 48 46 46 46 49 49 49 48 48 48 48 48 48 48 48 48 47 47 47 47 47 47 46 46 46 47 47 47 48 48 48 47 47 47 48 48 48 47 47 47 48 48 48 47 47 47 47 47 47 8 8 8 0 0 0 10 21 17 25 42 36 25 42 36 25 42 36 26 43 37 25 42 36 23 42 36 25 42 36 25 42 36 25 42 36 25 42 36 24 39 34 26 43 37 21 40 34 10 16 14 1 1 1 1 3 2 15 15 15 28 28 28 32 32 32 33 33 33 32 32 32 33 33 33 32 32 32 33 33 33 33 33 33 29 29 29 5 5 5 0 0 0 13 13 13 33 33 33 41 25 25 48 24 22 47 21 20 40 19 18 49 21 20 44 28 28 48 46 47 43 37 37 48 24 24 48 22 23 47 23 23 43 33 31 48 24 24 50 22 21 50 21 23 49 23 24 43 34 35 46 46 46 46 26 27 44 33 31 
32 32 32 31 31 31 33 33 33 33 33 33 32 32 32 32 32 32 44 44 44 48 48 48 47 47 47 48 48 48 47 47 47 47 47 47 49 49 49 47 47 47 47 47 47 48 48 48 48 48 48 47 47 47 47 47 47 48 48 48 48 48 48 47 47 47 48 48 48 48 48 48 47 47 47 47 47 47 47 47 47 48 48 48 47 47 47 48 48 48 47 47 47 47 47 47 47 47 47 48 48 48 47 47 47 48 48 48 47 47 47 47 47 47 48 48 48 48 48 48 47 47 47 49 49 49 48 48 48 47 47 47 48 48 48 48 48 48 49 49 49 42 42 42 2 2 2 2 2 2 19 31 27 24 43 37 25 42 36 25 42 36 26 43 37 24 41 35 23 42 36 26 41 36 26 43 37 26 41 36 26 43 37 23 38 33 8 12 11 0 2 1 6 6 6 21 21 21 31 31 31 32 32 32 32 32 32 32 32 32 32 32 32 31 31 31 31 31 31 32 32 32 32 32 32 31 31 31 6 6 6 2 2 2 18 18 18 38 38 38 42 31 29 41 20 19 46 22 22 43 23 24 50 21 23 44 30 29 43 35 33 47 23 23 48 24 22 45 21 21 43 25 25 44 44 44 44 30 29 51 23 22 51 22 24 48 22 21 47 23 23 43 33 32 46 25 24 42 42 42 
31 31 31 32 32 32 32 32 32 32 32 32 32 32 32 33 33 33 46 46 46 47 47 47 48 48 48 48 48 48 47 47 47 47 47 47 47 47 47 47 47 47 47 47 47 47 47 47 48 48 48 48 48 48 47 47 47 46 46 46 48 48 48 47 47 47 46 46 46 48 48 48 48 48 48 47 47 47 48 48 48 48 48 48 47 47 47 46 46 46 47 47 47 50 50 50 48 48 48 47 47 47 48 48 48 47 47 47 47 47 47 47 47 47 47 47 47 47 47 47 47 47 47 47 47 47 47 47 47 47 47 47 47 47 47 47 47 47 46 46 46 48 48 48 25 25 25 1 1 1 7 11 10 23 40 34 24 41 35 25 41 38 25 41 38 23 42 40 25 41 40 23 42 38 24 40 37 26 43 37 21 36 31 6 8 7 0 0 0 4 4 4 26 26 26 32 32 32 32 32 32 32 32 32 33 33 33 32 32 32 30 30 30 32 32 32 32 32 32 31 31 31 32 32 32 32 32 32 28 28 28 22 22 22 33 33 33 47 47 47 43 37 37 47 21 20 45 27 27 42 32 31 48 22 23 43 25 25 44 24 23 48 22 21 48 22 23 39 18 17 46 25 24 46 44 45 43 39 38 46 22 22 48 22 23 48 22 21 49 23 22 47 21 22 43 33 32 47 47 47 
33 33 33 33 33 33 32 32 32 32 32 32 32 32 32 34 34 34 46 46 46 47 47 47 46 46 46 48 48 48 48 48 48 47 47 47 47 47 47 48 48 48 47 47 47 47 47 47 47 47 47 48 48 48 48 48 48 48 48 48 46 46 46 48 48 48 47 47 47 47 47 47 47 47 47 47 47 47 48 48 48 46 46 46 47 47 47 48 48 48 48 48 48 47 47 47 47 47 47 47 47 47 47 47 47 47 47 47 47 47 47 47 47 47 47 47 47 48 48 48 47 47 47 48 48 48 46 46 46 46 46 46 47 47 47 48 48 48 48 48 48 46 46 46 45 45 45 13 13 13 0 0 0 10 19 16 25 40 35 25 42 36 25 41 38 25 41 38 24 40 37 26 42 39 23 38 33 15 26 22 3 3 3 1 1 1 7 7 7 30 30 30 32 32 32 32 32 32 32 32 32 31 31 31 32 32 32 32 32 32 32 32 32 32 32 32 33 33 33 32 32 32 32 32 32 33 33 33 34 34 34 36 36 36 44 44 44 48 48 48 44 40 39 49 23 22 45 27 27 44 34 33 50 22 21 42 20 22 47 21 20 49 25 23 42 36 36 47 23 23 46 22 22 46 42 41 43 29 28 43 22 21 43 19 19 50 21 23 47 23 21 49 23 22 46 26 27 47 45 46 
32 32 32 32 32 32 32 32 32 32 32 32 32 32 32 34 34 34 45 45 45 48 48 48 48 48 48 47 47 47 46 46 46 47 47 47 47 47 47 47 47 47 46 46 46 47 47 47 47 47 47 47 47 47 48 48 48 47 47 47 49 49 49 49 49 49 47 47 47 46 46 46 47 47 47 47 47 47 47 47 47 48 48 48 47 47 47 49 49 49 47 47 47 48 48 48 47 47 47 47 47 47 47 47 47 47 47 47 47 47 47 47 47 47 47 47 47 48 48 48 47 47 47 48 48 48 48 48 48 47 47 47 47 47 47 47 47 47 46 46 46 48 48 48 48 48 48 39 39 39 4 4 4 1 3 2 15 26 22 23 42 36 25 42 36 25 41 38 25 41 38 22 39 33 9 13 12 0 0 0 1 1 1 16 16 16 31 31 31 32 32 32 32 32 32 32 32 32 32 32 32 32 32 32 32 32 32 31 31 31 32 32 32 32 32 32 32 32 32 33 33 33 32 32 32 32 32 32 41 41 41 45 45 45 47 47 47 48 48 48 44 43 41 48 24 24 47 23 23 43 31 31 48 24 22 45 21 21 44 20 20 43 33 32 46 44 45 47 23 21 48 22 23 44 24 25 48 22 23 47 23 21 40 20 19 47 21 22 48 22 23 48 22 21 46 22 22 43 29 28 
32 32 32 33 33 33 32 32 32 32 32 32 32 32 32 35 35 35 47 47 47 47 47 47 47 47 47 46 46 46 47 47 47 48 48 48 46 46 46 48 48 48 48 48 48 48 48 48 47 47 47 49 49 49 48 48 48 48 48 48 48 48 48 47 47 47 47 47 47 48 48 48 47 47 47 47 47 47 47 47 47 47 47 47 47 47 47 46 46 46 47 47 47 46 46 46 46 46 46 47 47 47 47 47 47 47 47 47 47 47 47 47 47 47 48 48 48 47 47 47 47 47 47 49 49 49 47 47 47 47 47 47 47 47 47 46 46 46 47 47 47 46 46 46 47 47 47 47 47 47 26 26 26 1 3 2 3 5 4 20 32 28 22 41 35 25 42 36 21 36 31 5 7 6 0 0 0 4 4 4 22 22 22 31 31 31 33 33 33 32 32 32 32 32 32 31 31 31 32 32 32 32 32 32 32 32 32 32 32 32 32 32 32 32 32 32 33 33 33 32 32 32 33 33 33 37 37 37 46 46 46 47 47 47 46 46 46 47 47 47 42 40 41 42 21 20 41 20 19 42 28 27 48 22 23 46 22 20 40 21 23 45 45 45 46 46 46 45 24 23 49 23 22 50 21 23 47 23 23 48 22 21 48 22 21 42 28 27 49 23 22 48 22 21 15 7 5 46 22 22 
32 32 32 32 32 32 32 32 32 32 32 32 32 32 32 38 38 38 47 47 47 48 48 48 47 47 47 48 48 48 46 46 46 47 47 47 47 47 47 46 46 46 48 48 48 49 49 49 47 47 47 46 46 46 47 47 47 47 47 47 48 48 48 47 47 47 47 47 47 47 47 47 45 45 45 47 47 47 47 47 47 50 50 50 47 47 47 48 48 48 48 48 48 47 47 47 47 47 47 47 47 47 47 47 47 48 48 48 48 48 48 46 46 46 47 47 47 47 47 47 47 47 47 47 47 47 47 47 47 47 47 47 48 48 48 48 48 48 47 47 47 48 48 48 46 46 46 48 48 48 47 47 47 19 19 19 1 1 1 1 1 1 17 29 25 10 19 16 2 4 3 1 1 1 9 9 9 29 27 28 32 32 32 31 31 31 32 32 32 31 31 31 31 31 31 31 31 31 32 32 32 32 32 32 31 31 31 33 33 33 32 32 32 33 33 33 33 33 33 32 32 32 36 36 36 46 46 46 47 47 47 47 47 47 47 47 47 45 45 45 42 42 42 43 23 24 47 23 23 37 21 21 47 21 20 46 22 22 44 40 39 47 47 47 45 44 42 46 22 22 50 22 21 48 22 21 40 30 29 46 25 24 48 22 23 42 33 34 46 25 22 48 22 21 15 6 7 48 22 23 
32 32 32 32 32 32 32 32 32 31 31 31 32 32 32 45 45 45 43 43 43 43 43 43 47 47 47 48 48 48 48 48 48 47 47 47 48 48 48 47 47 47 47 47 47 47 47 47 47 47 47 48 48 48 46 46 46 48 48 48 47 47 47 46 46 46 48 48 48 47 47 47 46 46 46 48 48 48 48 48 48 48 48 48 46 46 46 48 48 48 47 47 47 47 47 47 47 47 47 48 48 48 48 48 48 47 47 47 47 47 47 47 47 47 46 46 46 46 46 46 47 47 47 47 47 47 48 48 48 48 48 48 47 47 47 48 48 48 48 48 48 47 47 47 46 46 46 47 47 47 46 46 46 42 42 42 9 9 9 1 1 1 2 2 2 0 0 0 1 1 1 13 13 13 30 30 30 32 32 32 32 32 32 32 32 32 32 32 32 32 32 32 32 32 32 31 31 31 32 32 32 32 32 32 32 32 32 31 31 31 31 31 31 32 32 32 35 35 35 40 40 40 45 45 45 47 47 47 47 47 47 48 48 48 40 40 40 11 11 11 16 16 16 44 24 25 48 22 23 41 20 19 46 20 19 50 22 21 44 40 41 47 47 47 42 34 32 48 22 21 48 22 23 43 29 28 44 42 43 46 25 24 49 23 24 46 25 24 38 18 17 48 22 25 33 15 15 48 22 21 
32 32 32 31 31 31 33 33 33 32 32 32 35 35 35 35 35 35 5 5 5 4 4 4 36 36 36 47 47 47 48 48 48 47 47 47 47 47 47 47 47 47 47 47 47 48 48 48 48 48 48 47 47 47 46 46 46 47 47 47 47 47 47 49 49 49 47 47 47 48 48 48 47 47 47 48 48 48 47 47 47 46 46 46 48 48 48 48 48 48 48 48 48 47 47 47 48 48 48 47 47 47 48 48 48 48 48 48 47 47 47 48 48 48 48 48 48 48 48 48 47 47 47 47 47 47 46 46 46 47 47 47 49 49 49 47 47 47 47 47 47 47 47 47 48 48 48 48 48 48 49 47 48 46 46 46 22 22 22 1 1 1 1 1 1 9 9 9 23 23 23 27 27 27 31 31 31 31 31 31 32 32 32 32 32 32 33 33 33 32 32 32 32 32 32 33 33 33 31 31 31 32 32 32 32 32 32 32 32 32 32 32 32 39 39 39 45 45 45 47 47 47 47 47 47 48 48 48 45 45 45 48 48 48 28 28 28 1 1 1 6 6 6 39 25 24 48 22 23 47 22 25 45 24 23 48 22 21 45 36 37 45 41 40 48 24 24 48 22 21 44 20 18 42 33 36 46 46 46 46 26 27 50 21 23 49 24 20 46 22 22 37 23 22 47 21 22 49 23 24 
32 32 32 34 34 34 31 31 31 32 32 32 34 34 34 31 31 31 1 1 1 1 1 1 30 30 30 46 46 46 46 46 46 48 48 48 46 46 46 47 47 47 46 46 46 48 48 48 47 47 47 47 47 47 47 47 47 48 48 48 48 48 48 48 48 48 47 47 47 47 47 47 47 47 47 47 47 47 46 46 46 47 47 47 46 46 46 47 47 47 47 47 47 47 47 47 47 47 47 45 45 45 47 47 47 47 47 47 46 46 46 46 46 46 48 48 48 47 47 47 47 47 47 46 46 46 49 49 49 47 47 47 47 47 47 49 49 49 48 48 48 48 48 48 47 47 47 46 46 46 32 32 32 9 9 9 2 2 2 3 3 3 16 16 16 28 28 28 15 15 15 2 4 3 21 21 21 32 32 32 31 31 31 31 31 31 31 31 31 32 32 32 33 33 33 32 32 32 31 31 31 32 32 32 32 32 32 32 32 32 40 40 40 45 45 45 46 46 46 47 47 47 47 47 47 48 48 48 48 48 48 47 47 47 28 28 28 2 2 2 12 10 11 41 32 33 33 15 13 38 29 30 44 30 30 48 22 23 44 28 28 45 26 22 49 23 24 47 21 22 40 19 18 44 36 34 48 48 48 44 26 26 50 21 23 47 23 23 45 27 27 43 42 40 43 29 29 49 23 22 
31 31 31 32 32 32 31 31 31 32 32 32 34 34 34 43 43 43 16 16 16 17 17 17 43 43 43 47 47 47 45 45 45 47 47 47 47 47 47 48 48 48 47 47 47 47 47 47 47 47 47 48 48 48 47 47 47 47 47 47 48 48 48 47 47 47 48 48 48 45 45 45 47 47 47 47 47 47 47 47 47 47 47 47 46 46 46 46 46 46 46 46 46 47 47 47 45 45 45 47 47 47 47 47 47 48 48 48 48 48 48 47 47 47 48 48 48 46 46 46 46 46 46 47 47 47 47 47 47 48 48 48 46 46 46 47 47 47 48 48 48 47 47 47 33 33 33 13 13 13 2 2 2 1 1 1 5 5 5 21 21 21 20 20 20 7 7 7 3 3 3 15 15 15 30 30 30 32 32 32 32 32 32 31 31 31 30 30 30 31 31 31 31 31 31 33 33 33 32 32 32 32 32 32 33 33 33 37 37 37 46 46 46 48 48 48 47 47 47 46 46 46 48 48 48 48 48 48 47 47 47 48 48 48 44 44 44 29 29 29 38 38 38 44 34 35 48 22 23 43 32 30 44 32 32 49 23 24 42 20 22 48 22 23 48 24 24 42 23 19 46 22 22 44 30 29 42 38 37 47 23 21 47 23 23 45 25 26 46 46 46 46 46 46 43 29 29 39 18 17 
31 31 31 31 31 31 32 32 32 32 32 32 33 33 33 46 46 46 46 46 46 46 46 46 48 48 48 48 48 48 47 47 47 47 47 47 47 47 47 47 47 47 47 47 47 48 48 48 47 47 47 46 46 46 48 48 48 47 47 47 48 48 48 48 48 48 48 48 48 47 47 47 47 47 47 47 47 47 47 47 47 47 47 47 46 46 46 48 48 48 48 48 48 48 48 48 47 47 47 46 46 46 48 48 48 48 48 48 47 47 47 47 47 47 46 46 46 47 47 47 47 47 47 46 46 46 47 47 47 47 47 47 46 46 46 47 47 47 45 45 45 24 24 24 2 2 2 0 0 0 5 5 5 18 18 18 28 28 28 19 19 19 3 3 3 5 5 5 25 25 25 32 32 32 32 32 32 31 31 31 32 32 32 32 32 32 31 31 31 32 32 32 31 31 31 30 30 30 32 32 32 36 36 36 42 42 42 45 45 45 47 47 47 47 47 47 46 46 46 48 48 48 47 47 47 47 47 47 46 46 46 46 46 46 47 47 47 48 48 48 47 47 47 44 38 38 49 23 22 43 28 25 44 40 41 48 22 23 40 19 18 40 21 17 43 29 28 43 27 27 48 22 21 44 24 23 45 24 23 50 21 23 47 21 22 45 25 26 46 46 44 45 45 43 45 25 26 45 21 21 
31 31 31 32 32 32 32 32 32 32 32 32 32 32 32 45 45 45 47 47 47 47 47 47 47 47 47 48 48 48 46 46 46 48 48 48 48 48 48 47 47 47 46 46 46 47 47 47 48 48 48 47 47 47 48 48 48 47 47 47 46 46 46 46 46 46 46 46 46 47 47 47 46 46 46 46 46 46 47 47 47 47 47 47 47 47 47 47 47 47 47 47 47 46 46 46 48 48 48 47 47 47 46 46 46 48 48 48 46 46 46 46 46 46 47 47 47 46 46 46 46 46 46 48 48 48 48 48 48 48 48 48 47 47 47 43 43 43 15 15 15 2 2 2 4 4 4 16 16 16 29 29 29 31 31 31 32 32 32 13 13 13 16 16 16 30 30 30 32 32 32 32 32 32 32 32 32 32 32 32 32 32 32 31 31 31 32 32 32 32 32 32 31 31 31 33 33 33 39 39 39 46 46 46 46 46 46 48 48 48 48 48 48 47 47 47 48 48 48 48 48 48 48 48 48 47 47 47 48 48 48 47 47 47 47 47 47 48 48 48 47 47 47 44 38 38 49 23 22 45 24 23 42 41 39 50 22 19 43 19 17 39 25 25 45 45 45 45 31 30 50 22 21 49 23 22 50 22 19 47 23 23 48 22 23 47 21 22 48 44 45 44 32 32 50 22 21 48 22 23 
21 21 21 30 30 30 32 32 32 30 30 30 35 35 35 46 46 46 48 48 48 47 47 47 48 48 48 47 47 47 46 46 46 47 47 47 46 46 46 47 47 47 49 49 49 48 48 48 47 47 47 47 47 47 47 47 47 47 47 47 48 48 48 46 46 46 48 48 48 47 47 47 48 48 48 46 46 46 47 47 47 47 47 47 47 47 47 46 46 46 47 47 47 48 48 48 47 47 47 47 47 47 46 46 46 47 47 47 47 47 47 47 47 47 48 48 48 47 47 47 46 46 46 47 47 47 46 46 46 43 43 43 25 25 25 8 8 8 1 1 1 8 8 8 26 26 26 32 32 32 32 32 32 32 32 32 33 33 33 31 31 31 31 31 31 33 33 33 32 32 32 32 32 32 32 32 32 30 30 30 31 31 31 32 32 32 31 31 31 33 33 33 39 39 39 44 44 44 48 48 48 47 47 47 47 47 47 47 47 47 46 46 46 46 46 46 47 47 47 45 45 45 47 47 47 47 47 47 46 46 46 47 47 47 46 46 46 49 49 49 48 48 48 43 37 37 40 19 18 45 25 24 45 25 26 48 24 22 48 22 23 43 37 37 47 47 47 44 35 36 51 23 20 48 22 23 48 22 21 41 33 31 47 21 22 49 23 22 45 27 27 48 22 23 47 21 22 50 21 23 
20 20 20 31 31 31 33 33 33 31 31 31 38 38 38 47 47 47 47 47 47 48 48 48 47 47 47 46 46 46 47 47 47 46 46 46 47 47 47 47 47 47 47 47 47 48 48 48 46 46 46 46 46 46 47 47 47 47 47 47 47 47 47 47 47 47 48 48 48 48 48 48 47 47 47 47 47 47 47 47 47 47 47 47 33 33 33 14 14 14 32 32 32 47 47 47 48 48 48 47 47 47 47 47 47 49 49 49 48 48 48 47 47 47 47 47 47 47 47 47 47 47 47 46 46 46 39 39 39 11 11 11 0 0 0 2 2 2 13 13 13 28 28 28 31 31 31 32 32 32 32 32 32 32 32 32 32 32 32 32 32 32 32 32 32 33 33 33 32 32 32 31 31 31 32 32 32 31 31 31 31 31 31 34 34 34 36 36 36 44 44 44 47 47 47 47 47 47 46 46 46 48 48 48 45 45 45 47 47 47 48 48 48 46 46 46 48 48 48 48 48 48 47 47 47 47 47 47 48 48 48 47 47 47 48 48 48 47 47 47 48 48 48 43 39 38 50 22 19 48 22 21 49 23 22 48 22 23 50 22 21 43 33 32 48 46 47 45 34 32 49 23 24 48 22 23 43 31 31 44 44 44 44 24 25 51 22 24 48 22 21 47 21 22 38 20 18 48 22 23 
26 26 26 31 31 31 31 31 31 32 32 32 40 40 40 47 47 47 47 47 47 47 47 47 46 46 46 47 47 47 47 47 47 48 48 48 47 47 47 46 46 46 47 47 47 47 47 47 47 47 47 48 48 48 48 48 48 47 47 47 47 47 47 45 45 45 48 48 48 46 46 46 46 46 46 46 46 46 46 46 46 46 46 46 16 16 16 1 1 1 17 17 17 46 46 46 48 48 48 48 48 48 44 44 44 47 47 47 47 47 47 47 47 47 47 47 47 47 47 47 47 47 47 28 28 28 3 3 3 1 1 1 4 4 4 27 27 27 32 32 32 31 31 31 31 31 31 32 32 32 31 31 31 32 32 32 32 32 32 32 32 32 31 31 31 32 32 32 31 31 31 32 32 32 32 32 32 32 32 32 39 39 39 45 45 45 49 49 49 48 48 48 47 47 47 47 47 47 47 47 47 46 46 46 47 47 47 47 47 47 47 47 47 47 47 47 47 47 47 47 47 47 47 47 47 46 46 46 46 46 46 47 47 47 47 47 47 47 47 47 46 46 48 42 40 41 46 25 24 48 22 23 45 23 25 45 24 21 51 23 22 43 29 29 43 42 40 46 22 22 47 21 22 43 22 21 45 43 44 48 46 47 44 30 30 47 21 22 48 22 21 29 13 13 17 13 12 49 23 22 
