P3
100 50
255
25 42 36 29 44 39 27 44 38 29 46 40 38 59 52 41 67 58 43 66 58 42 65 57 43 66 60 42 65 59 40 65 59 41 66 60 43 64 59 43 66 60 42 65 59 40 65 59 41 67 58 44 67 61 40 66 57 38 59 52 27 44 38 28 43 38 24 35 31 9 15 13 1 1 1 2 4 3 6 6 4 7 9 6 2 4 3 1 1 1 35 56 51 41 66 60 41 66 60 43 66 56 42 65 59 41 67 58 41 67 58 40 66 57 42 65 59 42 65 59 42 65 59 43 66 60 41 66 60 40 65 59 43 64 59 41 67 58 40 66 57 17 28 24 2 2 2 12 21 18 35 56 49 41 67 58 24 39 34 0 0 0 49 49 49 62 62 62 26 26 26 8 8 8 1 1 1 2 2 2 18 18 18 64 64 64 56 56 56 9 9 9 1 1 1 5 5 5 56 58 57 63 63 63 8 8 8 6 6 4 1 0 0 27 27 27 59 59 59 2 2 2 30 31 15 41 38 19 26 24 11 34 31 14 32 28 16 40 37 18 28 24 12 12 13 7 2 2 2 4 3 1 61 22 23 41 17 17 24 10 10 1 1 1 20 32 28 37 58 51 40 63 57 40 66 55 8 12 11 6 8 7 11 15 14 42 65 57 41 67 58 40 65 59 40 66 57 22 34 30 
5 7 6 18 29 25 27 42 37 28 45 39 26 43 37 29 48 42 39 62 54 40 66 57 43 66 60 40 65 59 41 66 60 43 66 60 40 65 59 42 65 59 41 66 60 43 66 60 43 66 58 42 65 57 43 66 60 42 65 57 35 56 51 28 45 37 28 43 38 23 35 33 1 1 1 11 14 7 33 47 30 28 38 27 2 2 2 2 4 3 40 61 56 43 66 58 43 66 58 40 66 57 39 66 59 40 66 57 41 67 58 41 67 58 42 65 59 43 66 60 41 66 60 41 66 60 40 65 59 41 66 60 41 66 60 42 65 57 43 66 58 39 62 54 30 49 45 43 64 57 42 65 57 42 65 57 17 28 24 7 7 7 61 63 62 52 54 53 21 21 21 2 0 1 11 15 14 1 1 1 13 13 13 18 18 18 20 20 20 2 2 2 2 0 1 0 2 1 47 47 45 65 65 65 12 12 12 8 7 3 4 6 3 10 10 10 53 53 53 0 0 0 27 25 12 64 61 30 63 59 30 61 56 27 63 56 27 65 61 32 61 54 25 59 54 25 7 7 5 2 2 0 53 22 20 33 13 14 26 12 11 2 0 1 6 10 9 40 66 57 43 66 60 41 67 58 41 64 56 35 54 48 40 63 55 42 65 57 43 66 58 42 68 59 41 66 60 13 22 19 
1 1 1 1 1 1 10 14 13 22 34 30 26 43 37 27 44 38 27 46 40 32 53 46 37 58 53 42 65 59 41 66 60 40 65 59 43 64 59 40 65 59 40 65 59 40 65 59 42 65 57 40 66 57 41 66 60 42 65 59 42 65 59 33 52 48 28 43 38 16 25 24 1 1 0 15 20 14 41 58 40 20 27 19 0 0 0 11 20 17 42 65 59 40 65 59 41 67 58 41 66 60 42 65 59 40 65 61 40 66 57 40 66 57 42 65 59 43 66 60 42 65 59 42 65 59 41 66 60 42 65 59 43 66 60 43 66 58 40 66 57 41 67 58 41 66 60 42 65 59 43 66 58 40 66 57 11 20 17 7 7 7 62 62 62 44 44 44 5 5 5 4 6 5 16 25 22 2 0 1 15 15 15 58 58 58 38 38 38 1 1 1 0 1 3 1 1 1 47 47 47 65 65 65 13 13 13 4 4 2 17 17 7 3 3 1 55 55 55 3 1 2 23 21 9 63 58 28 60 56 27 62 57 27 61 58 27 60 55 25 62 57 25 38 35 18 1 1 3 10 4 4 62 24 23 58 22 22 41 15 14 6 1 5 1 1 1 30 49 43 43 66 58 43 66 58 40 66 57 40 66 57 43 66 58 40 66 57 41 67 58 42 65 59 31 50 44 2 2 2 
2 2 2 1 1 1 0 0 0 1 1 1 10 12 11 22 34 30 29 44 39 27 44 38 28 44 41 33 52 48 37 60 54 40 65 59 43 66 60 42 65 59 43 66 60 41 66 60 43 66 58 42 65 57 40 65 59 12 18 16 5 9 8 21 33 29 28 43 38 17 29 27 1 1 1 14 19 13 40 57 39 18 25 17 0 0 0 23 38 33 41 66 60 42 65 59 40 65 59 40 65 59 42 64 61 42 65 59 40 65 59 44 66 63 41 66 60 41 67 58 42 65 59 43 66 60 41 66 60 40 65 59 40 65 59 42 65 57 41 67 58 42 65 57 44 66 63 40 65 59 42 65 59 42 65 57 10 14 13 5 5 5 59 59 59 18 18 18 1 1 1 18 29 25 11 17 15 1 1 1 10 10 10 53 53 53 33 33 33 1 1 1 12 18 16 0 0 0 7 7 7 25 25 25 9 11 10 4 4 2 34 31 16 2 1 0 22 21 17 2 2 2 31 30 12 63 60 29 64 59 29 59 54 24 63 60 29 61 56 26 65 60 31 37 34 17 2 2 0 1 1 1 11 5 5 46 17 19 47 17 17 24 10 10 2 0 1 9 11 10 38 57 51 42 65 57 42 65 57 40 66 57 41 66 60 42 65 57 42 65 59 34 53 49 7 7 7 2 0 1 
3 3 3 2 2 2 2 2 2 2 2 2 1 1 1 6 8 7 16 25 22 25 40 35 28 43 38 28 45 39 26 42 39 33 53 44 40 63 57 43 65 62 42 65 57 40 65 59 40 66 57 43 66 58 42 65 57 18 29 25 1 1 1 4 6 5 23 38 33 14 23 20 1 1 1 24 32 21 38 55 37 8 10 5 0 0 0 32 53 46 41 66 60 41 67 58 40 65 59 42 67 61 44 67 61 43 66 60 40 65 59 42 65 59 41 66 60 40 65 59 41 66 60 43 66 60 42 65 59 40 65 59 41 67 58 42 65 57 41 66 60 41 66 60 40 65 59 41 64 58 40 65 59 40 66 57 20 31 27 2 2 2 11 11 11 0 1 0 14 20 18 26 43 37 6 8 7 0 0 0 18 18 18 51 51 51 23 23 23 0 0 0 28 40 36 4 8 7 6 6 4 54 54 54 20 20 20 0 2 1 5 4 2 2 2 2 0 0 0 2 2 2 44 39 19 61 56 26 62 57 28 61 56 27 63 59 30 63 58 29 63 58 28 61 56 26 47 42 20 22 22 12 3 3 3 7 3 4 48 18 18 42 16 15 18 8 6 1 1 1 6 10 9 27 43 40 40 63 57 42 65 59 40 63 55 40 63 55 28 47 41 7 11 10 0 0 0 20 9 7 
3 3 3 2 2 2 3 3 3 3 3 3 3 3 3 0 0 0 1 1 1 6 8 7 20 31 27 27 43 42 26 43 37 28 43 38 29 45 42 33 52 46 42 65 57 40 66 57 42 65 57 40 66 57 41 67 58 42 65 57 20 37 31 5 7 6 4 8 7 12 16 15 1 1 1 23 33 24 39 53 38 4 4 2 6 8 7 40 63 55 43 66 58 42 65 59 40 65 59 40 65 59 42 65 59 43 66 60 40 65 59 40 65 59 40 65 59 40 65 59 41 66 60 42 65 59 39 66 57 41 67 58 40 65 59 40 66 57 42 65 59 43 66 58 43 66 58 42 65 59 40 66 57 40 66 57 20 32 28 2 0 1 2 4 3 19 31 27 25 42 36 25 40 35 1 1 1 0 0 0 5 5 5 54 54 54 12 12 12 3 5 4 36 57 52 27 42 37 0 0 0 12 12 14 12 12 12 3 1 2 1 1 1 0 0 0 1 1 1 7 6 4 50 44 18 60 55 25 61 55 23 60 55 25 59 54 24 59 58 28 61 58 27 60 55 25 63 58 28 61 57 28 10 9 4 0 0 0 49 19 19 27 12 9 43 18 14 17 7 6 2 0 1 1 1 1 4 5 7 10 21 17 8 12 11 7 9 8 3 1 2 1 1 1 23 9 9 52 20 21 
3 3 3 3 3 3 3 3 3 3 3 3 3 3 3 2 2 2 1 1 1 1 1 1 2 2 2 11 20 19 19 34 27 26 43 37 28 43 40 28 43 38 29 48 44 35 56 49 40 66 57 42 65 57 37 58 51 37 60 52 40 66 57 27 39 35 2 2 2 2 2 2 2 0 1 26 36 25 34 46 32 2 2 2 4 6 5 41 64 58 41 67 58 40 65 59 40 65 59 40 65 59 40 65 59 40 65 59 42 65 59 42 65 59 40 65 59 41 66 60 39 64 58 41 66 60 40 66 57 47 61 61 46 62 59 40 65 59 43 66 60 40 66 57 41 66 60 40 65 59 43 66 58 41 67 58 35 52 46 11 17 17 29 46 40 33 52 46 28 43 38 22 34 30 0 0 0 3 3 3 0 0 0 8 8 8 1 1 1 24 39 34 40 65 59 38 61 51 5 11 9 1 1 1 1 1 1 9 13 14 22 34 30 8 12 11 3 2 0 1 1 0 3 3 1 18 18 8 45 40 20 58 53 24 63 56 27 60 57 26 62 55 27 62 57 28 58 54 25 53 49 24 2 2 2 6 2 3 54 20 21 55 21 22 61 22 25 46 18 17 30 12 12 18 6 6 5 4 2 2 0 1 2 0 1 3 1 2 15 5 6 35 14 11 64 24 24 62 23 24 
3 3 3 3 3 3 2 2 2 3 3 3 3 3 3 4 4 4 3 3 3 1 1 1 1 1 1 0 0 0 1 3 2 14 23 22 25 37 33 27 42 37 28 43 40 28 43 38 30 49 43 38 59 52 7 11 10 2 4 3 15 21 19 30 45 40 16 27 23 0 0 0 0 0 0 26 40 27 31 45 30 3 1 2 5 9 8 39 65 56 43 66 58 41 66 60 41 66 60 41 66 60 39 64 58 40 65 59 42 65 59 43 66 60 39 64 58 40 65 59 43 66 60 43 66 58 44 63 61 59 56 67 58 56 67 42 64 61 40 65 59 40 66 57 41 66 60 42 65 59 42 65 57 40 66 57 36 57 50 11 17 15 21 33 29 29 46 40 27 44 38 16 25 22 1 1 1 7 13 13 6 10 9 0 0 0 3 5 4 39 62 56 42 65 59 43 66 60 31 50 46 6 10 9 12 16 17 33 52 48 30 45 40 27 43 40 23 35 31 7 11 10 2 2 0 2 2 2 1 1 1 11 10 5 36 33 16 54 50 25 62 57 28 60 55 26 62 57 27 47 42 20 0 0 0 2 1 0 4 3 1 4 2 3 48 20 19 65 25 25 50 18 19 48 16 17 41 15 16 38 14 12 42 16 17 58 23 21 63 23 23 48 18 18 65 25 25 45 17 16 
3 3 3 3 3 3 3 3 3 3 3 3 2 2 2 2 0 1 2 2 2 2 2 2 1 1 0 1 1 1 2 0 1 1 1 1 2 2 0 15 21 19 25 40 37 28 43 38 27 44 38 28 45 39 13 22 19 0 2 1 2 0 1 5 7 6 8 14 12 3 3 3 0 0 0 16 21 15 24 34 25 0 0 0 12 18 16 40 66 57 42 65 59 40 65 61 43 66 60 40 65 59 40 65 59 40 65 59 41 64 58 41 64 58 41 66 60 42 65 59 41 66 60 40 65 59 57 58 63 60 54 64 60 54 66 47 63 60 40 65 59 42 65 57 45 66 61 42 65 59 41 66 60 42 65 57 25 42 36 1 1 1 3 5 4 19 30 26 28 43 38 12 18 16 0 0 0 11 20 19 17 29 25 1 1 1 8 14 12 42 65 59 43 64 57 43 66 58 41 67 58 40 63 55 40 63 57 40 66 57 41 64 58 36 57 50 33 50 42 26 42 39 23 38 33 16 22 18 4 6 5 1 1 1 1 1 3 3 3 1 21 21 11 41 38 19 54 48 22 56 52 23 24 22 9 10 9 5 2 2 4 0 0 0 43 15 14 66 26 27 35 14 13 62 24 23 60 22 21 46 18 17 64 26 25 65 25 25 65 25 23 54 20 19 64 22 23 10 4 4 
2 4 3 2 2 2 2 2 2 2 2 2 1 1 1 2 2 2 2 2 2 1 3 2 3 3 3 2 2 2 1 1 1 0 2 1 2 0 1 2 0 1 4 8 7 15 24 23 26 41 36 28 43 38 28 43 38 15 26 22 2 4 3 8 12 11 4 6 5 2 2 2 0 0 2 0 0 2 5 5 5 0 0 0 5 9 8 31 48 42 39 62 56 35 54 48 34 50 47 38 61 55 41 66 60 41 66 60 40 65 59 42 65 59 42 67 61 42 65 59 42 65 57 46 62 59 61 55 67 58 55 64 56 56 64 43 64 57 42 65 57 42 65 57 42 65 59 40 65 59 42 65 59 40 66 57 31 50 44 6 10 9 9 11 10 2 2 2 12 14 13 0 4 3 1 1 1 16 27 23 12 23 19 1 1 1 14 20 18 42 65 57 39 65 56 41 64 56 40 66 57 40 65 59 40 65 59 40 66 57 40 65 59 42 65 55 43 66 60 32 51 47 28 43 38 28 43 36 25 40 37 13 25 21 10 14 13 2 2 2 1 1 1 0 0 0 5 5 3 21 18 9 26 24 9 24 22 10 6 6 4 2 0 1 49 19 17 60 22 21 55 21 20 63 23 24 64 24 24 53 22 20 61 22 23 34 12 14 27 11 11 34 13 12 31 13 13 1 1 1 
3 3 3 2 2 2 2 2 2 2 2 2 1 1 1 2 2 2 2 2 2 2 2 2 2 2 2 2 2 2 1 3 2 1 3 2 2 2 2 1 1 1 0 0 0 0 0 0 3 5 4 15 26 22 22 37 32 26 43 37 27 42 37 26 43 37 26 43 37 11 17 15 1 1 1 5 7 6 3 5 4 1 1 1 0 0 0 2 0 1 2 2 2 2 2 4 0 0 2 4 8 9 38 59 54 40 65 59 40 65 59 41 66 60 41 66 60 40 65 59 41 64 58 44 63 59 60 54 66 57 56 64 44 63 59 42 65 59 42 65 59 40 65 59 43 66 58 43 66 58 41 62 55 32 51 45 34 55 48 36 59 51 33 50 44 19 30 26 6 8 7 1 1 1 1 1 1 3 3 3 5 7 6 0 0 0 18 29 25 37 58 51 30 47 39 5 9 8 34 55 50 44 67 61 40 65 59 42 65 57 41 67 58 43 66 60 42 65 57 35 54 50 28 43 38 32 53 46 30 46 43 27 42 37 27 44 38 26 41 38 20 31 27 6 7 9 2 2 2 0 0 0 1 1 1 1 1 1 2 0 1 1 1 1 13 4 5 2 0 1 1 1 1 2 2 2 40 16 16 57 21 21 10 4 6 1 1 0 1 1 1 1 1 1 0 0 0 2 2 2 
3 3 3 3 3 3 3 3 3 2 2 2 2 2 2 2 2 2 3 3 3 2 2 2 13 9 6 30 28 13 37 34 17 22 19 10 14 15 9 16 16 8 8 9 4 7 6 4 1 3 2 0 0 0 1 3 2 14 23 20 29 41 37 27 44 38 28 45 39 10 14 13 1 1 1 28 40 28 23 33 24 0 2 1 1 1 1 7 9 8 19 31 27 20 31 27 10 11 13 1 1 3 32 51 47 41 66 60 43 66 60 43 66 60 40 65 59 42 65 59 40 65 59 42 65 57 46 62 59 42 65 57 40 66 57 43 66 58 42 65 57 42 65 59 40 66 57 40 66 57 29 46 40 27 44 38 27 42 37 27 42 39 28 44 41 28 43 40 21 33 29 0 0 0 5 9 8 9 15 11 1 1 1 1 1 1 0 0 0 0 5 1 4 6 5 1 1 1 18 27 24 41 66 60 42 65 59 40 66 57 41 67 58 42 65 59 43 66 60 39 62 56 28 45 39 34 57 51 41 64 56 37 60 54 34 55 48 29 45 42 28 43 38 28 43 38 25 37 33 18 29 25 7 11 10 3 2 0 0 0 0 2 2 2 1 1 1 1 1 1 1 1 1 1 1 1 1 1 1 4 2 3 1 1 1 11 13 10 27 39 27 6 8 5 1 1 1 2 0 1 
3 3 3 3 3 3 3 3 3 2 2 2 1 1 1 2 2 2 2 2 2 2 2 2 3 1 2 14 14 6 43 42 21 61 57 28 60 56 27 60 55 25 56 52 23 56 51 21 50 46 21 17 16 11 2 4 1 1 1 1 6 8 7 12 18 16 24 39 36 6 11 7 1 1 3 26 38 26 17 24 17 0 0 0 3 7 8 2 2 2 16 25 24 41 64 56 41 62 55 36 57 50 40 65 59 42 65 59 42 65 59 42 65 59 40 65 59 42 65 59 41 66 60 42 64 61 40 66 57 40 65 59 41 67 58 42 64 61 41 66 60 43 66 60 42 65 59 33 54 49 28 43 40 25 40 35 17 26 25 18 28 27 27 42 37 27 42 37 20 31 27 1 1 1 11 17 17 25 42 34 3 3 3 2 3 5 22 34 32 23 34 28 8 12 13 1 1 1 27 46 40 40 65 59 40 66 57 40 66 57 43 66 58 40 66 57 41 66 60 43 66 60 34 55 50 39 62 56 41 66 60 41 66 60 40 65 59 40 63 57 32 53 46 28 45 39 27 44 38 27 42 37 28 43 38 20 31 27 8 12 11 4 2 3 0 0 0 0 0 0 1 1 1 1 1 1 1 1 0 1 1 1 3 3 1 27 39 27 40 57 39 21 23 18 1 1 1 1 1 1 
3 3 3 3 3 3 3 3 3 3 3 3 3 3 3 2 2 2 2 2 2 2 2 2 2 2 2 2 2 2 5 5 3 39 36 17 61 56 26 61 57 28 62 57 28 61 56 26 61 58 27 59 55 26 46 41 19 11 10 5 1 1 1 1 3 2 5 6 8 2 2 0 3 5 4 35 49 34 23 31 20 2 0 1 19 34 29 25 40 35 2 0 1 13 19 17 33 50 44 42 65 57 40 65 59 42 65 59 42 65 57 40 66 57 43 66 60 40 65 59 42 65 59 42 65 59 42 65 57 40 65 59 42 65 57 40 65 59 42 65 57 40 65 59 41 64 58 29 43 43 27 44 36 12 18 16 3 3 3 4 4 2 17 23 23 26 43 37 15 25 26 1 1 0 10 19 16 23 38 33 1 1 1 8 12 11 41 64 56 40 66 57 36 59 53 35 56 49 42 65 57 42 65 59 42 65 57 41 64 56 40 65 59 42 65 57 41 64 58 40 65 59 40 65 59 40 65 59 40 65 59 42 65 59 40 65 59 40 65 59 43 66 58 38 64 55 34 55 48 27 42 37 27 44 38 27 44 38 28 43 38 24 36 32 11 15 14 2 4 3 0 0 0 1 0 0 1 1 1 0 0 0 2 2 0 24 34 25 37 54 36 25 37 25 0 0 0 1 1 1 
3 3 3 3 3 3 3 3 3 3 3 3 3 3 3 3 3 3 3 3 3 3 3 3 1 3 2 3 3 3 3 1 2 4 4 2 27 24 15 33 32 14 49 45 20 63 58 29 61 56 27 61 58 27 63 59 30 57 53 26 35 34 16 12 12 4 0 0 0 0 0 0 6 8 5 37 54 36 20 27 20 1 1 1 18 29 25 40 63 55 17 28 24 1 1 0 1 1 1 24 39 36 42 65 59 40 65 59 42 63 56 40 63 55 33 52 46 32 48 45 34 55 48 43 64 57 40 66 57 42 65 59 42 65 57 39 64 58 40 66 55 41 64 56 40 65 59 30 46 43 25 37 33 2 2 2 9 11 8 24 36 24 3 3 3 23 38 33 13 19 15 0 0 0 14 25 21 21 33 31 1 1 1 10 19 18 42 65 59 42 65 59 42 65 57 42 65 57 41 64 56 40 66 57 42 68 59 40 66 57 40 65 59 42 65 57 42 65 59 43 66 60 40 65 59 41 64 58 41 64 58 42 65 59 42 65 59 41 64 58 42 65 57 40 66 57 40 61 54 28 43 38 27 44 38 27 44 38 28 45 39 27 44 38 26 42 39 25 40 35 21 33 29 8 12 11 0 2 0 0 0 0 1 0 0 15 20 14 37 51 34 23 33 24 1 1 1 2 2 0 
2 2 2 2 2 2 1 1 1 2 2 2 2 2 2 3 1 2 2 2 2 3 1 2 3 1 2 1 1 1 2 2 2 2 2 2 2 2 2 2 2 2 15 16 10 52 48 23 59 56 25 60 55 26 59 55 26 60 53 24 58 53 23 62 59 28 44 42 21 5 5 3 3 3 3 36 49 32 18 23 16 0 0 0 12 23 19 28 45 39 30 47 41 23 35 31 6 10 9 17 27 26 43 65 62 41 64 58 31 48 42 28 43 38 14 23 20 8 14 12 12 21 18 34 55 48 41 62 57 43 66 60 42 65 59 40 65 61 42 65 59 42 65 57 42 65 57 30 49 43 24 35 31 0 1 3 11 16 10 19 31 19 8 10 7 11 17 15 6 8 7 1 3 2 5 7 6 10 16 14 0 0 0 22 33 29 6 11 7 9 11 10 27 39 35 41 64 56 39 64 58 42 65 57 42 65 57 41 64 58 41 64 58 40 66 57 40 65 59 40 65 59 42 65 59 42 65 59 40 65 59 40 65 59 40 65 59 43 64 59 41 64 56 42 65 57 37 60 52 27 44 38 30 42 38 26 43 37 35 58 50 38 59 52 30 49 45 28 44 41 26 43 37 27 44 38 25 40 35 11 17 15 0 0 0 2 2 0 6 6 6 11 13 10 1 1 1 7 6 4 
2 2 2 2 2 2 2 2 2 1 1 1 2 2 2 2 2 2 1 1 1 2 2 2 2 2 2 2 2 0 2 2 2 2 2 2 2 2 2 2 2 4 2 2 4 34 28 14 63 59 30 58 53 23 63 62 32 63 59 30 59 58 28 58 53 23 50 46 19 3 3 3 10 12 9 38 52 35 19 24 17 1 1 1 5 9 8 23 35 31 26 42 41 27 43 40 30 45 40 36 57 52 41 64 58 39 60 53 27 42 37 23 35 31 2 2 2 1 1 1 1 1 1 2 2 2 11 17 15 36 59 51 42 65 59 42 65 59 40 65 59 42 65 59 42 65 57 35 56 49 25 40 37 1 1 1 16 23 16 6 8 5 28 40 28 1 1 1 1 1 1 6 7 9 15 24 23 5 11 9 0 0 0 3 5 2 14 19 12 7 9 6 3 5 4 36 57 52 40 65 59 42 65 57 42 65 57 43 66 60 42 65 57 42 65 57 40 65 59 40 65 59 41 64 58 42 65 59 40 65 59 40 65 59 40 65 59 43 64 59 41 67 58 39 65 56 39 62 54 28 43 38 34 55 48 27 46 40 34 53 47 42 65 57 42 65 59 39 62 54 34 53 47 29 44 41 27 43 40 28 40 36 4 2 3 7 9 6 30 44 29 37 54 36 1 3 2 0 0 0 
3 3 3 2 2 2 2 2 2 2 2 2 3 3 3 2 2 2 2 2 2 2 2 2 2 2 2 2 2 2 0 2 1 1 1 1 2 2 2 2 2 2 3 3 1 40 39 21 59 55 26 61 56 27 59 58 28 61 54 25 60 55 26 60 55 25 53 49 24 2 2 2 13 15 10 37 54 36 17 22 16 1 1 3 0 0 0 1 3 2 7 11 10 24 34 33 28 43 40 27 44 38 30 47 41 30 49 43 27 44 38 12 16 15 1 1 1 11 15 14 6 12 10 1 1 1 0 0 0 3 7 6 22 34 32 38 59 52 41 64 58 41 64 58 42 65 59 41 64 56 28 44 43 6 6 6 13 18 12 13 18 12 19 26 18 10 12 9 0 0 0 5 9 8 22 38 37 5 9 8 1 1 1 9 14 8 22 32 23 6 10 9 2 2 2 33 49 46 41 64 56 43 66 58 42 65 57 40 66 57 42 65 57 41 64 56 42 65 59 42 65 59 42 65 59 41 64 58 41 64 58 42 65 59 39 64 58 41 64 58 40 66 57 40 66 57 38 59 52 29 41 37 37 60 52 37 63 54 37 60 52 41 64 56 42 65 59 40 65 59 40 66 57 39 62 54 28 45 39 27 42 37 4 4 4 4 4 4 29 43 28 33 47 32 1 1 3 5 7 4 
45 40 20 42 40 19 45 40 21 24 22 9 23 21 8 20 17 10 14 13 8 15 14 9 16 16 8 19 18 13 12 11 6 4 4 2 7 7 5 6 6 4 35 32 13 59 54 25 60 59 28 60 55 25 63 58 29 62 57 27 60 55 25 61 56 26 42 37 15 2 2 2 14 21 14 34 51 35 18 25 17 1 1 0 8 7 3 2 2 2 1 1 1 4 4 2 16 25 22 27 39 35 27 42 37 28 43 38 26 41 38 2 4 3 2 2 2 28 45 39 35 54 48 27 48 41 10 14 13 1 1 1 1 1 1 6 8 7 21 32 28 39 60 53 40 66 57 40 65 59 32 51 45 16 25 24 5 7 6 23 35 23 6 6 6 11 13 10 1 1 1 9 15 11 20 32 28 2 2 2 4 4 2 20 30 21 7 9 8 31 43 29 2 4 3 36 57 52 42 65 57 41 64 56 42 65 59 42 65 57 40 66 57 40 65 59 41 66 60 42 65 59 40 67 60 42 65 59 42 65 59 40 65 59 43 66 60 40 65 59 42 65 59 42 65 59 42 65 59 36 57 52 41 64 58 40 65 59 40 65 59 42 65 59 42 65 59 42 65 59 40 66 57 40 66 57 28 45 39 27 44 38 6 7 9 1 1 1 28 40 28 31 43 29 0 0 0 17 26 23 
62 57 28 62 59 28 62 57 27 60 56 29 58 53 23 59 55 28 60 56 29 61 57 28 61 57 28 59 54 22 58 54 27 48 43 21 52 48 23 54 50 25 59 52 24 60 55 26 59 54 24 59 52 23 62 58 29 60 57 26 61 58 27 60 55 25 31 29 14 0 1 0 23 30 22 37 51 36 16 21 14 1 1 1 23 23 11 56 52 27 23 21 9 0 2 1 0 0 0 5 9 8 18 29 23 25 42 36 26 38 34 0 0 0 4 6 5 33 54 49 34 57 51 36 55 49 34 55 48 19 30 26 4 6 5 0 0 0 0 0 0 8 12 11 36 57 52 41 64 58 36 57 52 27 42 39 6 10 9 13 18 12 16 21 15 0 0 0 1 1 1 12 18 16 17 28 22 0 0 0 13 20 13 7 12 5 32 45 28 10 15 11 8 17 14 41 64 56 40 66 57 41 64 56 42 65 59 43 66 58 40 66 57 42 65 59 42 65 59 42 65 59 39 64 58 42 65 59 42 65 59 42 65 59 42 65 59 40 65 59 42 65 59 42 65 59 41 64 58 43 66 60 42 65 59 39 64 58 40 65 59 42 65 59 40 66 57 40 65 59 42 63 56 41 64 58 28 44 41 28 43 38 7 11 10 0 0 0 19 29 18 20 27 20 0 0 0 17 26 23 
62 57 27 62 58 29 61 56 27 58 53 24 63 58 28 61 58 27 61 57 30 61 58 27 58 53 23 61 57 28 62 57 28 60 55 25 59 54 25 63 59 30 60 55 26 59 54 24 62 58 29 60 56 29 61 56 26 59 54 24 61 56 27 60 55 25 36 35 17 0 0 0 18 25 17 37 54 36 19 24 18 1 1 0 32 28 16 59 56 25 58 54 25 43 38 19 10 9 5 1 1 1 1 1 1 6 8 7 8 8 8 1 1 1 17 29 25 35 56 49 34 55 48 23 35 31 22 34 30 34 53 47 22 37 32 15 24 23 4 4 4 1 1 1 30 47 41 41 67 58 41 64 56 29 46 40 22 34 30 4 6 3 12 17 13 2 2 2 1 1 1 12 21 18 18 30 26 0 0 0 2 4 3 29 41 27 24 36 24 5 7 6 37 58 53 39 64 58 41 64 58 41 66 60 41 64 58 43 66 60 42 65 59 42 65 59 43 66 60 43 64 59 53 58 62 49 61 59 41 64 58 40 65 59 42 64 61 42 65 57 41 64 58 40 66 57 42 65 59 40 65 59 42 65 57 40 66 57 42 65 59 42 65 57 39 65 56 40 66 57 42 63 58 39 65 56 31 50 44 27 42 39 7 11 10 1 1 1 9 11 6 21 31 20 1 3 2 13 22 19 
63 58 28 60 53 24 63 59 30 59 54 24 64 59 30 61 57 28 57 52 22 60 57 26 60 55 25 60 56 27 62 57 27 58 51 22 61 57 28 63 62 32 59 54 25 60 56 27 61 56 26 62 58 29 60 56 29 61 56 27 60 55 25 61 58 27 31 29 14 1 1 1 19 26 18 39 53 36 15 22 15 0 0 0 34 32 17 60 57 26 62 55 26 61 56 26 59 55 28 34 31 14 10 9 4 3 1 2 1 3 0 0 0 0 20 32 28 35 54 50 38 55 49 3 5 4 6 10 9 28 47 43 23 38 33 20 35 30 2 4 3 1 3 0 31 50 46 42 65 57 41 64 56 31 50 44 28 43 40 20 30 29 3 3 3 1 1 1 1 2 0 11 20 17 17 29 27 0 0 0 21 31 22 30 42 28 2 2 0 33 50 44 40 65 59 41 64 58 42 65 59 42 65 59 40 65 59 42 65 59 40 65 59 42 65 59 42 65 59 56 55 61 60 54 66 56 56 64 43 64 59 42 65 57 42 65 59 40 66 57 41 64 56 42 65 57 41 64 56 39 65 56 42 65 57 40 65 59 41 64 58 40 65 59 42 63 56 41 64 56 41 64 58 42 65 57 32 53 46 28 43 40 6 10 9 1 1 1 30 44 29 36 53 35 1 1 1 15 24 21 
61 56 26 61 56 27 62 57 28 60 56 27 60 55 23 60 56 27 61 57 28 59 54 24 62 58 29 60 57 26 61 57 28 63 58 29 58 53 23 62 58 31 64 59 30 61 56 26 57 54 23 60 55 26 61 56 27 60 56 29 58 51 22 63 58 29 24 22 9 1 1 1 24 36 24 37 54 38 13 15 12 1 1 1 43 38 18 59 54 24 60 55 25 62 55 27 60 56 29 60 55 26 60 56 29 41 36 16 11 10 5 1 1 1 6 8 7 34 53 47 33 54 47 13 22 19 19 31 27 26 38 34 23 35 33 16 25 22 2 2 2 9 11 10 41 64 56 42 65 59 40 66 57 40 65 59 22 38 35 18 30 28 12 20 22 1 1 1 0 0 0 12 21 20 13 24 20 0 0 0 14 19 13 3 3 3 18 29 25 40 65 59 41 64 58 41 64 58 40 65 59 42 65 59 40 65 59 41 64 58 40 65 59 43 64 59 41 64 58 60 54 64 60 54 64 57 54 63 42 64 61 41 64 56 40 65 59 42 65 57 41 66 60 42 65 59 42 65 57 41 64 56 42 65 57 42 65 57 42 65 57 42 65 59 41 64 56 40 66 57 40 65 59 41 64 56 30 51 44 27 42 39 8 14 12 1 1 1 30 42 28 31 43 31 1 1 1 22 33 29 
60 55 25 63 58 28 60 55 25 60 55 26 62 59 28 60 56 27 59 54 24 60 56 27 60 56 29 61 57 28 61 57 28 58 54 27 59 54 25 46 44 21 47 42 20 58 54 27 62 58 29 62 57 27 60 53 24 62 58 29 62 57 28 63 59 30 18 15 6 2 0 1 3 3 3 19 26 18 7 11 10 2 2 4 48 44 19 60 56 27 61 57 28 59 54 24 59 56 25 60 55 26 62 58 29 60 56 27 15 16 8 1 1 1 19 24 20 34 55 48 35 54 48 35 56 49 30 47 41 24 36 32 24 36 34 11 13 12 1 1 1 17 23 23 42 65 57 40 66 57 42 65 59 40 63 57 7 9 8 1 3 2 21 33 29 1 5 4 1 1 3 4 5 9 5 10 6 1 1 1 2 2 2 20 31 27 40 66 57 40 65 59 42 65 59 40 65 59 43 66 60 42 65 59 41 64 58 42 63 58 42 65 59 40 65 59 42 65 59 57 55 66 61 55 67 57 56 64 42 65 59 42 65 59 40 65 59 42 65 57 44 65 58 46 62 61 40 65 59 39 64 58 42 65 59 40 65 59 42 65 59 41 64 56 42 65 57 40 66 57 40 65 59 41 64 56 29 48 42 26 42 39 9 11 10 1 1 1 21 24 17 14 19 13 1 1 1 20 31 27 
61 57 28 63 58 28 58 55 24 60 55 25 59 54 25 60 53 25 62 58 29 59 54 25 56 52 25 46 41 21 16 16 8 10 9 5 9 8 4 4 2 3 1 1 1 9 8 6 25 23 11 52 48 21 62 58 31 63 60 29 62 55 26 62 57 28 23 20 11 0 0 0 21 31 22 11 18 11 1 1 1 2 2 0 54 50 23 60 55 26 62 57 27 58 53 23 60 55 26 59 54 24 61 56 27 37 36 18 2 2 2 4 4 4 32 49 43 34 55 48 34 55 50 32 53 46 24 36 32 18 28 27 16 27 21 2 2 2 1 1 1 21 33 29 31 50 44 38 64 55 42 65 59 40 63 57 7 11 10 1 1 1 8 12 11 2 2 2 3 5 4 14 20 20 6 6 6 1 1 1 15 21 19 40 63 55 39 64 58 40 65 59 41 64 58 40 65 59 40 65 59 43 64 59 39 64 58 41 64 58 42 65 59 40 65 59 41 63 60 50 58 61 56 55 63 46 62 61 43 66 60 40 65 61 40 65 59 41 64 58 56 55 63 61 53 66 51 59 62 40 66 57 41 64 56 41 64 58 40 66 57 42 65 57 41 64 56 41 64 56 42 65 59 39 65 56 30 47 41 26 42 39 6 8 7 0 0 0 8 10 7 9 11 8 0 0 2 24 36 34 
60 55 26 61 54 26 62 57 27 62 57 27 62 58 29 59 55 26 47 42 20 19 19 9 6 6 4 1 1 1 0 1 3 1 1 1 1 1 1 8 6 7 9 8 6 5 4 2 1 1 1 4 4 2 27 25 12 59 52 23 60 53 24 61 56 26 22 19 12 1 1 1 29 40 26 37 51 36 6 6 6 9 10 5 55 50 21 63 58 29 62 57 28 59 53 27 61 56 27 58 53 23 48 43 23 4 4 2 0 0 0 23 34 30 34 55 50 34 55 48 33 52 46 27 42 37 20 32 30 1 2 4 1 3 2 2 2 2 5 7 6 25 40 37 26 43 37 28 45 39 31 50 46 26 42 39 10 16 14 5 9 8 4 6 5 0 0 0 2 2 2 15 26 22 14 25 21 1 1 1 26 38 34 41 64 58 40 66 57 40 66 57 41 64 58 40 65 59 40 65 59 41 64 58 39 64 58 40 65 59 43 66 60 42 65 59 40 66 57 40 66 57 40 66 57 40 66 57 40 66 57 41 67 58 41 64 56 41 64 58 60 54 64 60 54 66 51 59 62 40 65 59 42 65 59 39 64 58 40 65 59 40 65 59 42 65 57 40 66 57 41 66 60 41 64 56 29 48 42 26 42 39 5 9 8 4 4 4 34 46 32 19 26 18 1 1 1 8 12 11 
62 57 27 61 56 26 58 53 23 63 59 30 57 53 24 27 25 12 5 4 2 0 0 0 4 4 2 9 8 6 8 8 6 14 13 11 27 22 16 38 30 27 39 32 26 38 28 26 9 8 6 1 1 1 17 17 7 60 56 27 58 53 24 58 53 24 14 13 8 2 2 2 9 11 8 21 31 22 0 0 0 24 21 12 64 61 30 61 56 26 59 54 24 61 58 27 65 60 31 55 51 24 9 8 4 1 1 1 5 9 8 34 53 49 34 53 47 34 55 48 30 47 39 24 36 32 12 16 15 1 1 1 2 0 1 0 0 0 4 4 4 14 23 20 23 34 30 27 44 38 26 42 39 6 7 9 1 1 1 3 3 3 12 21 18 1 1 3 1 1 1 2 2 2 5 7 6 1 1 1 19 31 31 36 57 50 40 63 57 42 65 59 39 64 58 37 60 54 37 58 53 42 65 59 41 64 58 40 65 59 41 66 60 40 63 57 39 64 58 42 65 59 39 64 58 42 65 57 41 64 58 40 66 57 42 65 59 42 65 59 54 57 62 56 56 64 43 63 61 39 64 60 41 66 60 42 65 57 42 65 59 41 64 56 41 64 56 41 64 56 40 65 59 35 54 48 18 29 25 26 41 38 5 5 5 6 8 7 39 53 36 13 18 12 0 0 0 1 0 0 
59 54 24 59 54 24 58 53 24 62 57 28 39 34 15 2 2 2 1 1 1 10 10 8 28 23 19 36 29 23 29 24 20 39 32 26 29 24 21 29 24 20 33 28 24 40 33 27 21 17 16 1 1 1 18 18 8 61 56 27 61 56 27 62 59 28 28 26 13 0 0 0 14 21 14 3 3 3 0 0 0 24 24 12 60 56 27 63 58 28 62 58 29 59 55 26 59 55 28 17 17 7 1 1 1 5 9 8 28 45 39 34 53 47 33 54 47 29 46 40 25 37 33 21 33 31 3 5 4 1 1 1 21 21 9 11 12 4 2 2 0 0 0 0 2 2 2 11 20 17 23 35 33 15 21 19 5 5 3 5 7 6 1 1 3 0 3 2 2 4 3 10 16 12 3 3 3 1 1 1 0 0 0 1 3 2 4 8 7 10 16 16 14 20 20 5 5 7 4 5 7 35 58 52 41 64 58 41 64 58 40 65 59 40 65 59 42 65 59 43 66 58 40 66 57 42 65 57 42 65 59 40 65 61 41 64 56 40 65 59 42 65 59 42 65 59 40 66 57 40 65 59 39 64 58 40 63 55 36 55 49 29 48 44 31 48 42 32 51 45 39 62 56 9 11 10 0 0 0 17 27 26 1 3 2 4 6 5 35 49 34 12 17 11 0 0 0 4 6 5 
56 55 25 60 55 26 58 52 20 59 54 25 23 21 8 0 0 0 12 11 9 24 21 16 16 15 13 26 21 17 22 18 15 24 20 17 21 17 14 18 14 11 11 10 8 13 12 8 3 3 1 1 1 1 31 28 11 61 57 30 59 54 25 60 53 24 28 26 11 0 0 0 13 20 13 14 15 10 0 0 0 25 23 8 59 55 26 61 56 27 60 55 26 58 54 27 22 20 8 1 1 1 1 1 0 16 26 25 34 55 48 35 54 48 31 47 44 4 8 7 18 24 22 12 21 18 1 1 3 16 16 6 56 52 25 59 54 25 48 43 21 17 17 7 3 1 2 1 1 1 1 1 1 12 18 16 20 32 28 23 38 33 9 13 12 1 1 1 1 5 4 15 26 22 11 20 17 1 1 0 15 26 22 25 37 33 12 18 16 9 15 15 5 10 6 3 5 4 5 7 6 37 58 51 42 65 59 39 64 58 39 65 56 41 64 54 38 64 55 42 65 59 41 64 56 41 64 56 39 64 58 40 65 59 42 65 57 42 65 59 41 64 56 40 66 57 42 65 59 40 65 59 40 63 57 31 48 42 25 42 36 19 30 26 25 40 35 28 43 40 28 40 36 1 1 1 1 3 2 11 20 19 2 2 2 5 5 5 35 49 32 10 15 9 1 1 1 11 20 17 
60 55 26 61 57 28 60 55 26 60 55 26 20 17 10 1 1 1 9 8 6 18 13 10 18 14 11 12 11 9 7 7 5 2 2 0 2 2 2 0 2 1 0 2 1 1 1 1 3 5 2 25 22 13 58 54 27 59 55 26 61 57 28 62 58 31 49 45 20 27 25 13 4 4 2 0 2 1 3 1 2 43 38 16 61 57 28 63 58 29 60 55 26 36 33 16 0 2 1 3 4 6 17 28 24 4 6 5 14 23 20 34 53 47 25 40 35 14 23 20 2 6 5 4 4 4 3 3 1 41 40 19 57 54 23 62 58 29 62 57 28 61 56 26 47 41 17 17 14 7 0 0 0 1 1 1 3 3 3 12 18 16 15 24 21 1 3 0 1 1 1 1 1 1 4 6 5 1 1 1 18 27 24 38 63 57 40 63 57 38 63 57 41 64 58 37 58 51 35 54 48 43 66 60 40 65 59 38 63 57 40 63 57 41 64 58 42 65 59 38 64 55 33 54 49 41 64 58 42 65 57 39 65 56 42 65 59 40 66 57 41 64 56 40 66 57 41 64 58 40 65 59 36 59 53 26 43 37 20 31 27 1 1 1 11 20 17 27 43 40 26 41 38 3 7 8 0 0 0 6 8 7 1 1 1 12 12 10 38 55 37 9 14 8 1 1 1 15 24 21 
61 57 28 60 55 25 60 56 27 59 55 28 51 47 22 13 12 7 1 1 1 0 0 0 0 0 0 1 1 1 2 0 1 1 1 3 1 1 1 4 5 0 3 3 3 6 6 4 46 44 21 58 51 25 60 56 27 60 51 22 62 59 28 60 55 26 65 60 31 63 56 28 38 35 18 16 15 10 41 38 19 61 56 27 61 54 25 60 55 26 31 28 13 2 2 2 1 3 2 24 39 34 33 54 47 29 45 42 9 13 12 8 12 11 22 34 32 19 31 27 2 4 3 0 0 0 30 28 15 62 57 28 62 53 24 63 58 29 60 56 27 59 55 26 61 57 30 59 54 25 36 33 16 19 16 7 2 2 2 0 0 0 2 2 2 1 1 0 5 11 11 9 18 15 5 7 4 0 0 0 2 2 2 9 11 10 10 14 13 7 13 13 14 23 20 38 61 53 41 64 58 41 63 60 41 63 60 42 65 59 41 64 58 41 64 58 41 64 58 39 60 53 27 42 39 33 58 52 39 65 56 42 65 57 41 64 58 41 64 56 42 65 57 42 65 57 41 64 58 42 65 59 33 54 49 28 43 38 14 23 20 2 4 3 2 2 2 20 31 27 26 43 37 28 40 38 16 25 22 0 0 0 0 0 0 10 15 11 36 53 37 5 5 5 2 2 2 19 31 27 
63 59 32 61 56 26 62 57 28 61 55 29 60 55 26 56 52 25 24 22 10 19 17 5 6 5 3 1 1 1 10 9 4 24 21 12 50 44 22 50 44 20 1 3 2 9 10 4 57 53 26 61 56 27 61 54 25 59 54 25 62 57 28 57 56 25 61 56 27 59 55 26 59 52 23 57 51 19 63 58 29 61 56 26 60 56 29 37 36 18 2 2 2 0 1 0 20 32 28 35 56 51 34 55 48 34 53 47 33 50 44 13 22 19 19 29 28 3 7 6 1 1 0 14 13 8 59 54 25 60 53 24 60 53 24 59 54 22 59 54 25 61 57 28 62 57 28 61 56 27 61 56 27 59 54 24 55 51 26 29 26 9 3 3 3 1 1 1 9 13 14 20 35 32 14 24 23 0 0 0 10 15 11 9 18 15 12 18 18 1 1 1 0 2 1 32 53 46 40 65 59 42 65 59 39 64 58 41 64 58 42 63 58 42 65 59 40 66 57 36 57 52 28 43 38 37 58 51 42 65 59 42 65 59 39 65 56 39 64 58 41 64 56 39 65 56 39 64 58 42 65 59 33 52 48 27 42 37 12 21 18 5 5 5 10 16 14 3 5 4 23 35 31 27 43 40 26 41 36 2 4 3 1 1 1 16 21 14 29 41 27 0 2 1 1 1 1 18 28 27 
58 57 27 60 55 26 60 55 26 61 57 28 62 59 28 60 56 27 60 54 28 56 55 27 9 8 3 1 1 1 34 28 14 39 36 17 62 55 26 55 50 21 5 6 1 8 4 3 57 53 24 61 56 27 58 53 23 60 59 31 61 57 30 59 54 25 59 54 25 60 55 26 62 57 27 60 55 23 61 56 27 61 56 27 43 41 16 4 4 4 1 1 1 7 13 11 34 53 49 34 55 48 35 54 48 33 54 49 26 38 34 23 35 31 13 22 19 1 1 1 3 3 3 51 47 22 64 60 33 61 56 26 60 59 31 62 56 30 61 56 27 62 55 26 64 60 31 60 56 27 61 54 26 61 56 26 58 53 23 61 56 27 27 25 12 1 1 1 9 13 14 23 36 29 15 27 23 1 1 1 7 11 10 22 34 32 26 41 38 8 12 11 13 22 19 29 46 40 31 50 44 34 53 47 38 63 57 41 64 58 42 65 59 42 65 57 42 65 57 31 50 46 27 42 37 39 60 53 41 64 58 42 63 58 39 65 56 41 64 58 40 66 57 39 65 56 42 65 59 41 64 58 33 52 48 27 42 37 15 24 21 3 5 4 3 3 3 6 12 10 4 6 5 25 42 36 27 42 37 9 13 12 0 1 3 22 32 21 33 45 31 1 1 1 4 6 5 5 9 10 
58 54 25 60 55 25 60 55 26 61 57 32 60 55 26 60 55 26 63 58 28 57 53 28 6 7 2 0 0 0 34 28 14 12 11 7 53 47 21 61 54 26 13 13 5 2 2 2 45 40 20 61 57 28 61 56 27 61 57 28 64 60 31 58 53 23 63 58 29 57 52 22 62 58 29 62 57 28 62 57 28 51 47 22 4 4 2 2 0 1 7 11 10 31 52 45 34 55 48 53 54 59 53 53 61 27 42 37 24 36 32 16 27 23 4 4 4 0 2 1 24 24 12 63 58 28 61 56 27 62 57 28 59 52 24 61 56 27 59 54 24 61 56 26 60 53 24 61 56 26 59 55 26 61 56 26 59 52 23 61 56 27 32 29 14 0 2 1 8 12 11 19 34 29 14 24 23 0 2 1 0 2 1 1 1 3 7 8 10 14 23 22 24 39 34 26 43 37 27 42 37 27 42 37 28 43 40 32 51 47 39 62 54 40 66 57 41 64 58 27 44 38 25 44 40 36 59 53 39 65 56 41 64 56 39 66 59 39 65 56 41 64 56 39 65 56 39 64 58 41 64 58 35 54 50 26 43 37 18 27 24 0 0 0 9 15 13 24 41 35 2 4 3 9 13 12 24 39 34 6 8 7 0 0 0 21 28 20 21 31 22 1 1 3 8 17 14 17 29 25 
62 57 27 63 58 28 62 58 29 59 56 25 60 55 26 62 57 28 60 55 25 60 55 25 22 19 10 1 1 1 21 18 9 12 11 6 39 34 15 60 55 25 16 13 6 1 1 1 44 42 21 60 55 25 62 55 26 60 54 28 60 55 26 61 56 27 59 54 25 62 57 28 62 57 27 59 54 24 46 44 23 5 5 3 0 2 1 5 7 4 29 46 40 33 54 47 36 55 51 59 53 63 48 49 54 24 36 32 21 33 29 2 6 5 0 0 0 11 10 5 58 54 29 61 57 28 64 59 29 59 52 23 62 58 29 60 56 27 59 54 25 61 57 28 59 54 25 60 56 27 61 56 27 60 55 26 61 57 28 60 59 29 32 30 15 0 0 0 0 1 3 14 25 21 15 30 25 0 0 0 5 5 3 10 11 5 1 1 1 2 2 4 4 6 5 10 16 14 24 36 32 27 42 37 27 42 37 26 43 37 28 45 39 32 51 45 30 49 45 27 44 38 25 44 40 38 61 55 40 66 57 43 64 57 42 65 59 39 66 57 39 65 56 39 65 56 42 65 59 43 66 60 40 61 56 28 43 38 20 31 27 1 3 2 14 25 19 24 35 31 22 37 32 2 6 5 5 7 6 1 1 3 1 1 1 11 18 11 11 16 12 2 2 2 13 22 19 12 21 18 
60 55 26 59 52 24 62 57 27 57 52 23 58 53 23 60 56 29 61 57 28 58 53 23 19 19 7 1 1 1 18 15 8 32 29 12 56 49 23 65 56 27 18 15 8 1 1 1 42 37 17 59 55 26 61 57 28 61 60 30 61 56 27 59 54 24 60 56 27 60 59 29 59 54 25 37 35 20 4 4 4 2 2 2 6 10 9 3 5 4 20 32 30 33 54 47 36 53 47 36 48 46 25 37 35 21 36 31 9 15 13 0 0 0 16 16 8 53 48 19 61 58 27 60 55 25 62 57 27 59 54 24 60 55 26 62 58 29 60 55 25 59 56 25 62 61 31 59 55 26 62 58 29 59 55 26 58 53 23 62 58 29 32 30 17 0 0 0 4 6 5 5 7 4 5 5 5 0 2 1 20 20 10 59 55 28 37 36 18 14 11 6 2 2 2 1 1 1 3 3 3 12 18 16 23 35 31 27 42 37 25 42 36 26 43 35 27 42 37 26 42 39 27 44 38 33 54 47 38 59 54 40 63 57 42 65 57 43 66 60 40 66 57 39 65 56 41 64 58 41 64 58 40 63 57 28 47 41 27 39 35 6 6 6 11 17 15 18 33 28 15 27 23 4 8 7 2 2 2 0 0 0 5 5 3 1 3 0 2 4 1 1 3 2 10 16 16 2 4 3 
22 22 12 21 21 11 28 29 15 27 25 12 34 30 18 39 37 16 40 38 15 33 31 16 20 20 8 1 1 1 14 14 6 42 37 17 58 51 23 64 55 24 18 15 8 1 1 1 34 31 16 53 49 24 61 54 26 61 56 27 60 55 26 58 54 25 55 51 24 55 50 21 25 21 9 2 2 0 3 5 4 22 33 29 33 52 46 24 39 34 3 3 3 25 42 36 28 45 39 21 36 33 22 34 30 11 15 14 1 1 1 3 3 3 40 35 16 57 51 27 56 50 24 57 53 24 61 57 28 61 57 28 62 59 28 58 53 23 59 54 25 57 52 22 62 57 28 62 58 29 57 50 21 61 56 27 62 57 28 59 52 23 32 30 15 0 0 0 6 8 7 19 31 29 18 30 28 1 3 2 8 7 2 60 56 27 59 55 26 60 55 26 52 46 22 23 24 10 5 4 2 1 1 0 2 2 2 6 10 9 15 24 19 21 36 31 26 42 39 27 42 37 27 42 39 27 42 39 27 44 38 28 45 39 30 51 44 39 62 54 41 64 56 38 65 56 42 65 57 39 65 56 41 64 56 33 54 47 27 42 37 12 18 16 2 4 3 2 4 3 10 16 14 20 35 30 10 16 14 1 1 1 19 26 18 5 7 6 0 0 0 0 0 0 4 8 9 32 48 45 
2 2 2 2 2 2 2 2 2 2 2 2 2 2 2 2 2 2 3 3 3 2 2 4 1 1 0 1 1 1 10 9 5 43 38 19 49 43 21 53 45 22 16 13 6 1 1 1 4 4 2 6 6 4 21 19 7 26 24 11 24 21 12 16 16 8 12 11 6 11 10 5 0 0 0 2 2 2 17 28 24 35 54 48 35 54 48 35 54 48 17 28 24 7 11 10 22 34 30 24 36 32 12 18 16 2 2 2 1 1 1 3 3 1 17 17 9 11 10 5 7 8 3 13 12 8 33 29 17 40 38 17 37 34 15 35 33 18 39 38 20 37 34 15 39 36 19 41 36 16 39 36 19 50 46 21 61 57 30 61 56 27 48 43 23 0 0 0 2 2 2 7 11 10 15 26 22 0 2 1 8 7 2 58 53 24 61 57 28 58 53 24 60 55 26 52 48 23 8 7 5 1 3 2 1 1 0 0 0 0 1 1 1 2 2 2 10 16 14 15 24 21 25 40 35 27 44 38 27 42 37 27 42 37 26 42 39 26 43 37 30 47 41 36 57 50 38 61 53 39 65 56 41 64 56 38 57 51 26 43 37 20 31 27 0 2 1 13 19 17 23 40 34 25 41 38 5 7 6 1 1 1 27 39 27 20 30 19 1 1 1 9 15 13 35 54 48 32 53 46 
3 3 3 1 1 1 2 2 0 2 2 2 2 2 2 2 2 2 2 2 2 1 1 3 1 1 1 0 0 0 8 7 2 40 35 16 27 23 11 41 36 17 24 20 9 1 1 1 1 1 1 2 2 2 1 1 1 2 2 0 2 2 2 1 1 3 2 2 4 0 0 0 0 2 1 19 30 26 33 54 47 39 54 51 52 53 58 35 54 48 32 48 45 5 7 6 16 25 22 19 30 26 2 4 3 0 0 0 1 1 3 3 1 2 1 1 0 2 2 2 2 2 0 0 0 0 2 2 2 3 3 5 3 3 1 2 2 2 2 2 2 4 4 4 1 1 1 3 3 3 4 4 2 4 4 2 20 20 10 57 53 24 43 40 21 1 1 3 3 7 6 9 15 13 4 8 7 0 0 0 7 6 4 57 52 23 63 56 27 60 55 26 61 57 28 46 44 23 4 4 2 1 1 3 2 2 2 3 3 1 0 0 0 1 1 1 1 1 1 0 0 0 6 7 9 15 24 23 22 34 30 26 42 39 26 43 37 28 43 40 27 42 37 27 42 37 27 44 38 28 47 41 36 57 50 38 61 53 32 49 43 28 40 36 7 11 10 8 12 11 20 32 28 16 27 23 1 1 1 8 10 7 33 50 32 19 26 18 0 0 0 10 16 14 10 16 14 3 3 3 
2 2 0 2 2 2 2 2 2 2 2 2 2 2 2 2 2 2 1 1 3 2 2 2 1 1 1 1 1 1 8 7 2 41 36 17 26 22 11 41 36 17 27 23 11 1 1 1 2 2 2 2 2 2 2 2 2 2 2 2 1 1 1 1 1 1 1 1 1 1 1 1 11 13 12 32 55 47 35 54 48 49 54 58 60 54 66 40 52 52 23 38 33 11 20 17 6 8 7 2 4 3 1 1 1 1 1 1 2 2 2 3 3 3 2 2 2 2 2 2 3 1 2 2 2 2 1 3 2 1 3 2 1 3 0 2 2 0 1 1 1 2 2 2 2 2 2 2 2 2 1 3 2 2 2 2 9 8 4 57 56 28 29 25 13 1 1 1 7 13 11 17 29 25 20 35 32 1 1 0 9 8 3 56 51 22 61 57 28 60 55 25 60 54 22 58 54 29 14 14 6 2 2 2 2 2 0 2 2 2 1 1 1 2 2 2 1 1 1 1 1 1 0 0 0 1 1 1 2 2 4 7 9 8 11 17 17 25 37 33 27 42 37 27 42 37 26 43 37 27 42 37 27 42 37 28 43 38 27 42 37 19 34 29 20 32 28 1 1 1 14 25 21 7 9 6 1 1 1 9 11 10 14 19 13 1 3 2 1 1 1 0 0 0 4 6 5 17 27 26 
2 2 2 2 2 0 2 2 2 2 2 2 2 2 2 2 2 2 3 3 3 3 3 3 2 2 2 0 0 0 8 7 3 41 35 19 40 34 18 52 46 22 33 30 13 0 0 0 2 2 2 2 2 2 3 3 3 1 1 1 0 0 0 2 0 1 9 10 12 16 25 22 5 6 8 28 47 41 33 54 49 40 55 52 44 48 51 26 38 36 24 36 34 19 29 28 2 2 2 1 1 1 1 1 1 2 2 2 2 2 2 2 2 2 2 2 2 2 2 2 3 3 3 2 2 2 2 2 2 2 2 2 2 2 4 2 2 2 2 2 2 2 0 1 2 2 2 2 2 2 1 2 4 0 2 1 14 15 9 60 56 29 33 30 15 1 1 1 6 10 9 19 30 26 20 36 33 1 1 1 8 7 5 61 57 28 59 54 25 60 53 24 60 56 27 62 55 27 51 45 21 15 16 8 3 3 3 3 3 3 2 2 2 2 2 0 1 1 1 1 3 2 2 2 2 2 2 2 2 1 0 1 1 1 1 1 1 2 2 2 14 23 20 18 30 26 25 37 33 26 41 36 27 42 37 26 43 37 9 15 13 1 1 1 9 15 13 1 3 2 4 4 4 2 2 2 0 0 0 2 2 4 3 3 1 0 0 0 2 2 2 2 2 2 13 22 19 39 60 53 
2 2 2 2 2 4 1 1 1 2 2 2 2 2 2 2 2 2 2 2 2 2 2 2 3 1 2 2 2 2 8 7 3 42 37 17 47 43 18 63 56 27 37 31 15 0 0 0 1 1 1 3 3 1 2 0 1 1 1 1 3 3 3 20 32 30 34 53 49 34 53 47 14 23 20 13 24 20 34 55 48 32 51 47 25 37 35 24 36 32 22 34 30 4 4 4 1 1 1 2 2 2 2 2 0 2 2 2 2 2 2 2 2 2 2 2 2 2 2 2 2 2 4 2 2 2 2 2 2 2 2 0 2 2 2 3 3 3 3 3 3 2 2 2 2 2 2 3 3 3 3 3 3 4 4 4 33 32 14 60 56 27 51 46 24 1 1 1 5 9 8 17 29 25 22 34 30 1 1 1 5 6 1 56 51 22 57 52 23 59 55 26 59 54 24 60 57 26 58 51 22 58 53 24 33 32 14 5 5 3 3 3 3 2 2 2 2 2 2 2 2 2 2 2 2 2 2 2 2 2 2 1 1 1 1 1 1 1 1 3 1 1 1 0 0 0 3 3 3 4 8 7 15 24 21 20 32 28 17 28 24 8 12 11 6 8 7 4 8 7 6 8 7 0 0 0 2 2 2 26 36 27 19 26 18 1 1 1 17 26 25 21 33 29 1 3 2 5 7 6 
16 16 8 4 3 1 1 1 1 1 3 2 2 4 3 0 2 1 2 2 2 2 2 0 2 2 2 0 0 0 7 6 2 40 35 16 44 39 19 62 55 26 32 29 12 2 2 2 2 0 1 1 1 0 0 0 0 7 11 10 27 43 40 34 53 49 35 54 50 35 54 48 26 42 39 4 4 6 28 43 38 26 38 34 24 34 33 24 36 32 6 10 9 2 2 2 0 0 0 2 2 2 2 2 2 2 2 2 2 2 2 2 2 2 2 2 2 1 1 1 0 2 1 2 2 2 2 2 2 2 2 2 2 2 2 2 2 2 2 2 2 1 3 2 1 3 2 5 5 5 27 25 12 45 43 22 57 52 23 59 53 27 51 47 22 1 1 0 4 6 5 18 28 27 19 34 29 1 1 1 8 7 3 57 53 24 60 53 24 60 54 28 60 55 26 62 58 29 59 55 26 61 56 27 60 55 26 51 46 24 22 19 10 13 12 7 3 3 1 2 2 2 2 2 2 1 1 1 3 3 3 2 2 2 2 2 2 3 1 2 2 2 2 1 1 1 1 1 1 0 2 1 0 0 0 1 1 1 3 3 3 11 15 14 19 30 26 22 37 32 17 23 23 0 0 0 11 13 10 37 51 34 13 15 10 0 0 0 28 44 41 32 53 46 1 1 1 0 0 0 
57 53 26 41 38 19 18 18 10 5 5 3 3 3 3 2 2 2 2 2 2 1 1 1 1 1 1 0 0 0 4 2 3 41 35 19 31 28 13 56 50 24 39 33 17 1 0 0 0 1 3 1 1 1 9 11 10 31 50 44 33 54 47 33 54 47 33 54 47 34 55 48 32 53 46 13 19 15 10 14 13 23 35 33 15 25 24 2 4 3 1 1 1 1 1 3 2 2 2 2 2 2 0 0 0 2 2 2 2 2 2 2 2 2 2 2 2 2 2 2 2 2 2 3 3 3 1 3 2 3 3 3 2 2 2 2 2 2 2 2 2 3 3 1 19 19 11 43 41 20 60 54 28 60 55 26 58 53 24 61 57 30 54 50 23 4 4 2 3 3 3 16 28 24 20 35 30 1 1 1 18 15 10 57 53 24 60 55 26 62 55 27 58 51 23 59 54 24 58 54 25 59 54 24 58 53 24 61 54 25 59 54 24 58 54 25 43 38 18 20 17 8 5 3 4 3 1 2 2 2 2 2 2 2 2 2 2 2 2 2 2 2 2 2 2 2 1 1 1 1 1 1 1 1 1 1 1 1 1 1 1 0 0 0 2 2 2 0 0 0 1 1 1 1 1 1 22 32 23 40 57 39 5 7 6 3 3 3 28 45 39 26 43 37 0 2 1 13 18 14 
60 55 25 59 53 21 58 53 24 52 48 21 46 40 18 41 36 16 25 22 13 7 5 6 2 2 0 0 0 2 4 2 5 38 32 16 41 39 18 63 53 26 38 33 14 0 0 0 3 1 2 11 20 17 33 50 44 34 53 47 34 55 50 35 54 48 34 55 48 34 53 47 33 52 46 20 32 28 9 13 14 12 21 20 1 1 1 1 1 1 1 1 1 2 2 2 2 2 4 2 2 2 3 3 3 2 2 2 2 2 2 1 1 1 2 2 2 2 2 2 2 2 2 2 2 2 1 1 1 3 3 3 1 1 1 2 2 2 1 1 1 2 2 2 2 2 2 7 8 3 18 18 10 29 27 14 44 42 21 51 45 19 52 48 23 3 3 3 3 3 3 16 29 22 18 30 26 1 1 1 14 14 6 58 54 25 57 53 24 62 57 28 60 54 28 61 56 26 58 53 24 60 55 25 60 55 25 61 56 27 60 56 29 61 57 28 58 54 25 58 54 25 45 43 20 36 33 14 22 19 10 4 4 2 2 2 2 1 3 0 2 2 2 3 3 3 1 1 1 2 2 2 2 2 2 2 2 4 3 1 4 1 1 1 0 0 0 1 1 1 0 0 0 2 2 2 26 38 26 34 46 32 1 1 0 10 12 11 25 40 35 29 41 37 22 33 29 27 43 40 
61 57 28 60 54 28 60 56 29 60 56 27 59 52 23 61 57 28 59 55 26 54 48 24 44 39 19 6 5 1 0 0 0 33 27 13 43 38 16 60 55 25 43 38 18 1 0 0 6 10 9 33 52 46 31 50 46 26 38 36 33 54 47 35 54 50 34 55 50 32 51 45 26 38 36 21 36 31 10 16 14 1 3 2 1 1 1 1 1 1 2 2 0 2 2 2 2 2 2 2 2 2 2 2 2 2 2 2 3 3 3 3 3 3 2 2 2 2 2 2 2 2 2 2 2 2 1 1 1 2 2 4 2 2 2 2 2 2 2 2 4 2 2 2 2 2 2 1 1 1 2 2 2 2 2 2 2 2 2 10 9 5 18 15 6 2 2 2 3 3 3 15 26 22 13 24 20 0 0 0 19 19 9 59 55 26 60 55 26 59 54 24 59 54 25 59 55 28 61 57 28 59 54 25 62 57 28 57 52 22 58 53 24 62 59 28 61 56 26 59 54 24 60 55 26 59 54 24 58 56 31 43 38 19 39 38 20 16 16 8 4 4 2 2 2 2 2 2 2 2 2 2 2 2 2 1 1 1 2 2 2 2 2 4 2 2 2 1 1 3 1 1 3 11 13 8 38 53 34 18 25 17 0 0 0 0 0 0 3 5 4 15 21 19 23 35 33 26 41 38 
59 54 25 62 57 28 58 53 24 57 52 23 61 57 30 60 53 24 59 54 25 59 55 26 61 57 30 10 11 6 2 2 2 34 31 14 43 38 18 61 54 26 48 44 17 2 2 4 5 7 6 29 46 40 7 9 6 0 0 0 25 40 35 34 53 49 28 44 41 23 35 31 22 34 30 9 13 12 1 1 1 1 1 1 2 0 1 1 1 1 2 2 2 1 1 1 2 2 2 1 1 1 2 2 2 2 2 2 2 2 2 2 2 2 2 2 2 2 2 2 3 3 3 2 2 2 2 2 2 2 2 2 2 2 2 2 2 2 2 2 2 1 1 1 2 2 2 1 1 1 1 1 1 2 2 2 3 3 3 1 1 1 2 2 2 0 0 0 1 1 0 13 19 17 10 16 14 0 0 0 8 7 3 31 29 16 35 34 16 54 49 27 58 54 27 58 53 23 62 57 28 60 55 23 61 56 27 61 54 26 58 54 25 60 54 28 60 55 26 60 55 25 57 52 23 58 54 25 61 57 30 61 58 27 59 54 25 58 53 24 53 49 22 47 45 22 40 37 18 16 15 10 3 3 3 2 2 0 2 2 4 2 2 2 2 2 2 1 1 1 1 1 1 17 24 17 38 55 37 4 4 2 1 1 1 1 1 1 0 0 0 0 0 0 2 2 2 6 8 5 
60 56 27 61 57 28 59 54 24 64 60 31 57 52 22 60 55 26 58 52 26 61 56 26 50 46 19 11 7 4 0 2 1 31 28 13 39 34 15 45 40 20 57 52 23 5 5 3 3 7 6 13 24 20 0 0 0 4 4 4 28 43 38 26 42 39 22 34 30 20 32 28 7 11 10 1 1 1 0 0 0 2 2 2 1 1 1 2 2 2 2 2 2 1 1 1 2 2 2 2 2 4 2 2 2 1 1 1 2 2 2 2 2 4 3 3 3 2 2 2 2 2 2 2 2 2 2 2 2 2 2 2 2 2 2 3 3 3 3 3 3 2 2 2 2 2 2 1 1 1 1 1 3 2 2 2 2 2 2 2 2 2 3 3 3 1 1 1 0 0 0 8 12 11 3 5 4 2 2 2 3 3 3 2 2 2 3 3 3 4 4 2 12 11 6 20 20 8 50 48 27 55 50 21 61 58 27 61 56 26 58 53 24 57 53 26 59 55 26 59 54 24 58 55 24 63 60 29 57 52 22 60 55 25 60 56 27 61 56 26 59 58 28 63 58 29 60 56 27 57 52 23 45 40 20 28 26 13 20 20 10 9 8 4 2 4 3 1 1 1 2 2 0 29 41 29 27 37 26 1 1 1 1 1 1 2 2 2 2 2 2 1 1 0 0 0 0 1 1 1 
59 54 25 59 52 24 61 57 28 61 57 28 59 53 27 62 55 27 57 51 25 24 22 9 7 6 2 1 1 1 0 0 0 23 20 11 40 34 18 17 17 7 62 56 24 15 12 7 0 0 0 2 4 3 1 3 2 24 41 35 26 41 38 22 37 32 14 23 20 3 3 3 1 1 1 1 1 1 1 3 2 2 2 0 2 2 2 2 2 2 2 2 0 2 2 0 1 3 0 2 2 4 2 2 2 2 2 4 2 2 2 2 2 2 3 3 3 2 2 2 2 2 2 2 2 0 2 2 2 2 2 2 2 2 2 2 2 2 2 2 2 2 2 2 2 2 2 1 1 0 2 2 4 2 2 2 1 1 1 3 3 3 2 2 2 2 2 2 1 1 1 2 2 2 1 1 1 1 1 1 2 2 2 2 2 2 2 2 0 2 2 2 2 2 2 1 3 2 5 5 3 14 13 8 55 51 26 60 57 26 62 59 28 61 56 27 57 52 23 61 57 30 59 56 25 59 54 24 60 55 25 59 54 25 61 56 27 60 56 29 61 56 27 60 55 26 62 59 28 58 57 27 58 51 22 59 54 25 60 53 24 56 50 24 31 29 14 1 1 1 12 14 9 36 50 33 11 13 8 1 1 1 2 2 0 2 2 0 3 3 3 2 2 2 1 1 1 3 3 3 
59 55 26 60 56 29 59 55 26 61 57 28 58 54 27 46 44 23 12 11 6 1 1 1 0 2 1 3 3 3 0 0 0 21 22 8 39 36 17 27 23 11 62 55 26 16 13 6 0 1 3 2 2 2 15 24 21 26 41 38 22 34 32 12 21 18 1 1 1 1 1 1 6 7 2 30 28 15 35 34 16 32 30 15 16 16 8 4 4 4 3 1 2 2 2 4 1 1 1 2 2 4 2 2 2 2 2 2 2 2 2 2 2 2 2 2 2 2 2 2 2 2 2 2 2 2 2 2 2 1 1 1 3 3 3 2 2 2 2 2 2 2 2 2 2 2 2 2 2 2 2 2 4 1 1 1 2 2 2 1 1 1 2 2 2 2 2 4 1 1 1 1 1 1 1 1 0 1 1 1 2 2 2 2 2 2 2 2 2 3 3 3 2 2 2 2 2 2 2 2 2 2 2 2 31 29 14 59 55 26 61 57 30 62 56 30 61 56 26 63 59 30 62 57 28 61 56 27 60 56 27 59 52 23 61 60 32 60 55 26 59 58 28 58 53 24 59 55 26 59 55 26 60 56 27 59 54 25 60 56 27 59 54 25 18 15 8 2 2 2 20 30 19 34 48 33 2 2 2 2 2 2 5 5 3 3 1 2 2 2 2 2 2 2 2 2 2 3 3 3 
