P3
100 50
255
20 16 13 20 16 13 22 18 15 24 20 17 25 21 18 27 23 20 26 22 19 25 21 18 26 22 19 27 24 19 29 26 21 32 29 24 31 28 23 36 33 28 38 35 30 38 35 30 36 32 29 38 34 31 40 37 32 40 37 32 35 32 27 35 32 27 29 26 21 28 24 21 27 23 20 27 23 20 22 18 15 18 17 13 16 15 13 14 13 11 16 15 13 19 18 16 19 18 14 16 15 11 17 16 12 15 14 12 15 14 10 22 21 17 24 23 19 27 23 20 29 25 22 23 22 17 19 18 14 20 19 15 23 22 18 23 22 18 24 23 19 25 24 20 25 24 20 27 23 20 19 18 14 17 16 14 22 21 17 27 26 22 27 26 22 29 25 22 25 26 21 26 23 18 27 24 19 26 23 18 26 23 18 25 22 17 25 22 17 22 23 18 21 20 16 23 19 16 25 20 17 23 19 16 20 19 15 21 20 16 24 23 19 24 23 19 18 18 16 17 17 15 10 11 15 6 10 13 3 10 16 2 11 18 8 12 15 14 13 11 16 16 14 18 19 23 15 19 22 1 15 28 0 14 27 1 15 28 2 16 29 1 15 28 0 14 27 2 16 29 2 16 29 2 16 29 2 14 28 2 16 29 1 15 28 1 13 27 1 15 28 1 13 27 2 12 24 2 10 23 
19 15 12 20 16 13 22 18 15 24 20 17 24 20 17 25 21 18 26 22 19 26 22 19 25 24 20 25 24 20 26 25 21 30 29 24 32 29 24 35 32 27 38 35 30 38 35 30 37 34 29 39 36 31 40 37 32 39 36 31 36 33 28 34 31 26 29 25 22 30 26 23 28 24 21 28 24 21 22 18 15 18 17 13 17 16 12 15 14 12 17 16 14 20 19 17 19 18 16 17 18 12 17 16 12 15 14 12 15 14 9 22 21 17 23 22 18 28 23 20 29 24 21 22 21 17 19 18 14 19 18 14 24 23 21 22 21 19 25 24 20 24 23 19 25 24 20 26 22 19 18 17 13 16 15 13 22 21 17 27 26 22 25 24 20 27 23 20 24 23 18 26 22 19 26 23 18 23 20 15 23 19 16 27 23 20 26 23 18 23 22 17 22 21 17 22 21 17 22 21 17 21 20 18 20 19 17 18 20 19 15 19 20 15 19 22 12 16 19 13 17 20 5 12 18 5 9 18 4 11 19 2 11 20 8 12 15 14 13 11 16 16 14 18 19 23 15 18 23 1 13 27 0 14 27 1 15 28 0 14 27 0 14 27 1 15 28 3 15 29 2 16 29 2 16 29 1 13 27 2 14 28 0 14 27 1 15 28 0 14 27 3 13 25 7 11 23 10 10 22 
19 15 12 19 15 12 22 18 15 24 20 17 24 20 17 24 20 17 26 22 19 30 26 23 29 25 22 30 26 23 29 25 22 31 30 26 32 31 27 37 34 29 37 34 29 38 35 28 40 36 33 39 36 31 39 36 31 38 35 30 36 33 28 34 30 27 29 25 22 29 25 22 29 25 22 29 25 22 22 18 15 18 17 13 19 18 14 18 17 12 19 18 16 20 19 17 19 18 14 17 16 12 16 17 12 14 14 12 14 14 12 21 20 16 23 19 16 24 20 17 24 23 19 21 20 16 16 15 13 18 17 15 23 22 18 23 22 18 24 23 19 22 21 17 23 19 16 22 21 16 17 16 12 16 15 13 22 21 19 25 21 18 23 22 18 21 20 16 22 21 19 23 20 15 23 19 16 20 16 13 17 18 13 26 23 18 28 23 19 27 24 19 28 24 21 25 24 20 25 21 20 21 20 18 18 18 18 13 17 18 4 14 23 6 13 21 3 13 23 0 14 23 1 14 23 2 14 28 1 14 23 2 12 22 8 13 17 16 12 11 15 15 13 18 19 21 14 17 22 0 14 27 2 16 29 2 14 28 0 14 27 1 15 28 1 15 28 2 16 29 2 16 29 1 15 26 2 16 29 1 15 28 0 13 29 3 15 29 5 15 27 3 15 27 20 10 19 21 11 19 
20 16 13 19 15 12 21 17 14 24 20 17 25 21 18 25 21 18 26 22 19 29 25 22 28 24 21 30 26 23 30 26 23 34 30 27 34 30 27 36 32 29 37 34 29 38 35 30 40 37 32 40 37 32 39 36 31 39 36 31 35 32 27 34 30 27 31 27 24 31 27 24 29 25 22 29 25 22 21 20 16 19 18 14 18 17 13 17 16 12 18 17 15 19 19 17 22 18 17 18 17 15 17 16 14 15 14 10 15 14 12 21 20 16 24 20 17 25 21 18 24 23 19 20 19 15 17 16 14 18 17 15 22 21 19 22 21 17 24 23 19 24 23 19 24 21 16 24 21 16 17 16 12 16 15 11 21 20 18 23 22 20 22 21 17 19 18 14 22 18 15 23 22 17 22 21 16 18 17 13 20 16 13 26 23 18 27 23 20 24 23 19 27 23 20 23 22 18 20 20 20 19 19 19 16 17 21 13 16 21 4 14 23 4 14 23 3 13 23 1 14 23 3 13 25 0 14 27 0 13 22 2 12 22 9 14 18 13 13 13 14 14 16 13 17 18 13 17 20 0 14 25 2 16 29 1 15 28 0 13 29 0 14 27 2 16 29 1 15 26 2 16 27 2 14 28 2 14 28 2 14 28 2 14 26 2 14 26 8 11 26 8 12 24 20 10 21 21 10 18 
19 15 12 21 17 14 22 18 15 22 18 15 24 20 17 26 22 19 27 23 20 27 23 20 25 24 20 31 27 24 31 27 24 33 29 26 32 28 25 36 32 29 38 34 31 36 35 30 39 36 31 38 35 30 36 33 28 35 31 28 30 26 23 30 26 23 32 28 25 33 29 26 27 26 22 27 26 22 22 21 17 20 19 15 20 19 17 17 16 12 18 17 15 22 18 17 20 19 17 18 17 15 17 16 14 15 14 12 15 14 12 24 23 19 26 25 21 24 23 21 24 23 19 21 20 18 18 17 15 18 17 15 21 20 18 20 19 17 23 22 18 23 22 18 24 23 19 23 22 18 17 16 12 16 15 11 21 20 18 22 23 18 20 19 15 19 18 14 22 18 15 26 22 19 24 20 17 18 17 13 19 15 14 23 19 18 21 20 15 18 18 18 17 18 20 8 15 21 4 13 20 3 13 23 1 13 27 2 14 26 0 14 27 1 15 28 0 14 27 1 15 28 1 13 27 0 16 26 0 14 27 1 14 30 1 15 26 0 14 25 0 12 26 2 11 26 2 11 26 0 14 27 3 15 29 0 14 27 1 15 28 2 16 29 1 15 28 0 14 27 1 14 30 2 14 28 4 14 26 7 14 24 22 12 21 22 9 18 33 8 12 33 6 11 29 6 14 27 6 13 
19 15 12 20 16 13 21 17 14 22 18 15 25 21 18 27 23 20 27 23 20 27 23 20 27 23 20 32 28 25 31 27 24 33 29 26 32 28 25 37 33 30 38 34 31 38 34 31 39 36 31 38 35 30 36 33 28 37 33 30 30 26 23 30 26 23 32 28 25 33 30 25 30 26 23 26 25 21 23 22 18 21 20 16 19 18 16 17 16 14 18 17 15 19 18 16 19 18 16 18 17 13 18 17 15 15 14 12 15 14 12 25 23 24 25 24 22 24 23 21 23 22 18 21 20 16 18 17 15 18 17 15 21 20 18 20 19 15 22 21 17 22 21 17 24 23 19 23 22 18 18 17 13 16 15 11 20 19 15 23 22 18 22 21 17 20 19 15 20 19 15 26 22 19 25 22 17 18 17 13 19 18 14 22 18 15 24 21 16 18 18 18 17 18 20 11 16 20 3 13 22 4 14 24 1 13 25 2 14 26 2 14 26 0 15 28 2 14 26 0 14 25 0 14 27 1 11 23 1 15 26 0 14 25 0 13 24 1 13 25 0 12 24 1 10 25 2 12 24 2 14 28 0 14 27 1 13 27 1 15 28 1 14 30 2 14 30 2 14 28 1 15 28 1 15 28 4 14 26 9 13 24 21 11 19 21 10 18 31 9 12 33 8 12 27 6 13 28 7 14 
21 17 14 20 16 13 22 18 15 24 20 17 22 21 17 21 20 16 22 21 17 25 24 20 27 23 20 29 25 22 29 25 22 35 31 28 34 30 27 36 32 29 36 32 29 39 35 32 42 39 34 39 36 31 34 31 26 34 30 27 29 25 22 29 25 22 32 28 25 31 28 23 31 27 24 31 27 24 28 24 21 25 24 20 20 19 17 16 15 13 15 14 12 15 14 12 14 13 11 15 14 10 15 14 12 13 12 10 14 13 11 22 21 17 23 22 18 23 22 18 23 22 18 21 20 16 17 16 14 19 18 16 22 21 19 21 20 15 23 22 18 23 22 18 23 22 18 24 23 19 19 18 14 17 16 12 24 23 18 26 25 20 25 24 20 24 23 19 22 21 17 21 20 18 22 18 15 16 15 11 16 12 11 18 17 15 20 19 17 5 14 23 3 13 25 0 12 26 2 16 29 4 16 28 5 17 29 7 17 29 2 16 29 2 14 28 1 13 27 1 15 28 2 16 29 1 15 28 1 15 28 0 13 30 2 16 29 0 14 27 1 13 25 1 13 25 1 13 25 0 12 24 1 13 27 2 14 28 0 15 28 2 14 26 4 13 28 14 12 23 20 10 19 26 11 18 33 8 12 33 8 14 33 8 12 30 7 13 27 6 11 28 7 12 25 5 14 26 7 13 
19 15 12 20 16 13 23 19 16 25 21 18 23 22 18 22 21 17 23 22 18 25 24 20 27 23 20 29 25 22 30 26 23 31 30 26 31 30 26 35 31 28 36 32 29 38 34 31 41 38 33 38 35 30 34 31 26 33 29 26 29 25 22 30 26 23 31 27 24 32 28 25 30 26 23 31 27 24 26 22 19 24 23 19 21 20 18 16 15 13 16 15 13 16 15 13 15 14 12 15 14 12 15 14 12 13 12 10 13 12 10 22 21 19 23 22 18 23 22 18 24 23 19 20 19 15 16 15 13 18 17 15 21 20 16 21 20 16 22 21 17 24 23 19 22 21 16 23 22 20 19 18 16 17 16 12 23 22 18 28 24 21 27 26 22 24 23 19 23 22 18 21 20 18 20 21 16 16 15 13 16 15 13 19 18 16 20 18 19 4 13 22 2 12 22 1 13 25 2 16 29 2 16 29 8 17 32 6 18 32 1 15 28 2 16 29 1 15 26 2 14 28 0 14 27 0 14 25 1 14 30 0 14 27 1 15 26 2 14 28 1 13 27 1 13 27 3 13 25 0 14 27 0 12 24 1 13 27 1 13 25 2 16 27 4 14 26 13 11 22 20 10 19 25 10 17 32 7 11 31 9 12 30 7 13 30 7 13 28 7 12 27 6 13 28 5 15 25 6 12 
20 16 13 20 16 13 21 17 14 22 18 15 20 19 15 20 19 15 21 20 16 24 23 19 25 21 18 27 23 20 28 24 21 30 26 23 30 26 23 33 29 26 34 30 27 38 34 31 40 37 32 39 36 31 37 34 29 37 34 29 33 30 25 31 27 24 31 27 24 30 26 23 30 26 23 30 26 23 26 25 21 28 25 20 22 22 20 18 17 15 16 16 14 12 12 12 12 12 12 11 11 11 11 11 11 10 10 12 11 11 11 22 22 22 24 23 21 23 22 20 24 23 19 20 19 17 17 16 14 18 17 15 20 19 14 20 19 17 22 21 17 22 21 17 21 20 16 22 21 17 19 18 14 17 16 14 20 19 17 20 19 17 17 17 15 14 14 14 13 14 16 10 14 17 10 14 17 11 13 12 11 11 11 17 17 17 20 19 17 5 14 23 0 14 25 2 14 28 3 15 29 3 15 29 3 17 30 5 14 29 1 15 28 0 13 26 0 14 27 2 14 28 1 15 26 0 16 29 1 15 28 1 13 27 1 15 28 1 15 28 3 13 25 2 12 24 0 12 24 3 12 21 2 12 24 17 11 21 14 11 20 23 10 17 26 9 17 28 9 13 29 10 16 29 8 13 30 7 13 29 6 12 27 8 12 26 7 13 28 7 14 26 7 13 27 6 13 26 5 12 
21 17 14 20 16 13 20 16 13 19 15 12 19 18 14 20 19 15 20 19 15 23 22 18 21 20 16 26 22 19 27 23 20 29 25 22 30 26 23 34 30 27 34 30 27 36 35 31 40 36 33 39 36 31 39 36 31 38 35 30 33 30 25 31 27 24 30 26 23 30 26 23 31 27 24 28 27 23 27 26 22 25 26 20 22 21 19 17 17 15 15 15 13 12 12 12 12 12 12 9 9 7 10 10 10 10 10 12 11 9 10 23 22 20 25 24 22 23 22 17 22 21 19 20 19 17 18 17 15 18 17 13 20 19 17 20 19 15 23 22 18 22 21 19 20 19 15 21 20 16 19 18 14 17 16 14 17 16 14 16 16 16 14 14 14 11 11 11 10 11 13 7 12 18 7 12 16 10 11 13 11 11 11 18 18 16 20 18 19 5 13 24 0 11 25 1 13 29 2 16 27 2 16 29 3 15 29 3 15 29 1 15 28 2 16 29 1 15 28 1 13 27 0 14 27 0 14 27 1 13 27 2 14 26 1 15 28 2 14 28 1 13 25 0 13 22 0 12 24 3 13 23 4 12 23 18 11 19 20 10 19 30 9 14 33 8 12 32 7 11 32 9 15 30 7 13 30 7 13 26 7 11 26 6 15 27 6 13 27 6 13 27 6 13 27 6 13 27 6 13 
19 18 16 21 20 16 19 18 16 18 17 13 19 18 16 20 19 15 21 20 16 21 20 16 21 20 16 23 22 18 24 23 19 28 27 23 27 26 22 30 29 25 31 30 26 34 33 29 34 33 29 37 33 30 40 37 32 38 33 29 31 27 24 31 27 24 25 24 20 28 24 21 30 26 25 32 28 25 29 25 22 27 26 24 22 21 19 17 19 18 15 16 20 7 14 22 7 14 22 5 14 21 5 14 23 7 12 16 5 12 18 17 17 15 19 18 13 18 17 15 19 18 14 17 16 12 17 16 14 17 16 14 20 19 15 20 19 15 21 20 16 25 21 18 18 17 15 16 16 14 12 16 17 11 15 18 9 14 18 9 14 20 6 13 19 3 10 16 5 9 20 3 10 18 3 10 18 12 12 12 11 11 11 18 18 18 18 18 16 5 14 21 0 12 24 0 14 27 1 15 28 1 15 28 1 14 30 2 14 26 0 15 28 0 14 25 1 15 26 0 14 27 2 16 29 0 15 30 2 14 28 0 14 25 2 14 28 5 15 27 5 11 23 12 11 19 13 12 20 23 12 20 22 9 18 27 10 16 25 8 14 31 8 14 33 8 14 30 7 13 28 7 12 28 7 14 27 6 13 27 6 13 27 6 13 25 6 12 27 6 13 27 6 13 27 6 13 27 6 13 
19 18 14 20 19 15 19 18 14 18 17 13 20 19 15 21 20 16 20 19 15 20 19 15 20 19 17 23 22 20 24 23 19 27 26 22 25 24 20 30 29 25 31 30 26 31 30 25 34 30 27 34 33 29 40 36 33 39 35 32 30 29 25 31 27 24 26 22 19 26 22 19 32 28 25 32 29 24 28 27 23 27 26 22 21 21 19 17 19 18 12 17 23 6 16 26 7 14 30 3 15 29 3 15 27 5 12 22 5 12 20 16 15 13 16 15 13 16 15 13 18 17 13 15 16 11 15 14 12 16 15 10 20 19 17 20 19 14 20 18 19 21 20 16 16 16 14 15 15 15 10 15 19 9 14 20 5 14 21 3 11 22 1 11 21 0 10 20 1 10 19 1 10 19 2 9 19 12 12 12 12 12 12 18 18 16 20 18 19 6 13 23 2 12 24 1 13 27 1 15 28 1 15 28 1 13 27 0 14 27 1 13 27 1 13 27 0 14 27 0 14 27 0 14 27 1 13 27 0 14 25 1 15 28 2 14 26 4 14 26 9 12 21 19 9 17 21 10 16 31 9 12 32 7 11 31 9 12 31 9 12 31 8 14 30 7 13 28 7 12 26 7 13 24 7 13 25 5 14 27 6 13 26 7 13 26 7 13 27 6 13 27 6 13 27 6 13 27 6 13 
18 17 12 18 17 15 19 18 14 18 17 12 19 18 14 22 21 17 21 20 16 19 18 14 20 19 15 23 22 18 23 22 18 26 25 21 27 26 22 28 27 23 28 27 23 27 26 22 31 27 24 32 28 25 35 31 28 32 31 27 32 28 25 31 27 24 27 23 20 28 24 23 30 31 26 33 29 26 28 27 25 26 25 23 22 20 23 15 16 18 11 16 20 3 15 27 6 15 30 1 15 28 3 15 29 4 12 23 4 13 22 10 14 17 11 15 18 13 14 16 14 14 14 10 14 13 10 11 13 11 12 14 15 17 16 14 15 17 12 16 17 12 16 19 9 14 17 10 14 17 4 13 20 6 14 25 1 13 25 2 12 24 1 14 23 2 12 22 1 11 21 0 10 19 2 11 20 8 12 15 8 11 16 12 16 19 13 17 20 4 14 24 0 12 24 1 15 28 1 14 30 2 14 28 1 13 25 0 14 27 0 14 27 0 14 27 1 15 28 1 15 28 4 13 28 3 15 29 6 14 25 7 13 25 10 12 24 12 11 19 17 10 18 22 9 16 23 10 17 30 7 13 30 7 13 29 8 13 31 8 16 29 8 13 28 7 12 27 6 11 25 6 12 25 6 12 26 5 14 27 6 13 27 6 13 27 6 13 27 6 13 27 6 13 27 6 13 27 6 13 
14 13 9 17 16 14 18 17 13 18 17 13 20 19 15 22 21 17 21 20 16 22 21 17 22 21 17 23 22 18 24 23 19 25 24 20 25 24 20 24 23 19 24 23 19 24 23 19 26 22 19 27 23 20 28 24 23 26 25 23 29 25 22 27 26 22 33 29 26 33 29 26 33 29 26 32 28 25 28 27 25 26 25 23 20 21 23 11 16 22 7 16 25 2 16 29 1 15 28 1 13 27 1 15 28 0 14 27 1 15 28 3 13 23 2 15 24 8 13 19 9 14 18 4 11 19 1 10 19 2 9 19 4 11 17 2 9 17 1 10 19 1 9 20 1 11 21 0 10 20 1 13 25 0 14 27 0 14 27 1 15 28 0 14 27 0 14 27 1 15 28 1 11 23 1 11 23 1 11 21 1 11 21 1 11 21 2 10 21 2 14 28 0 14 27 1 15 26 1 15 28 1 13 27 1 13 27 0 14 27 0 14 25 1 13 25 1 15 28 1 15 26 1 13 25 4 14 26 14 12 23 18 11 19 25 10 17 30 8 11 30 8 11 30 8 11 29 8 13 30 7 13 28 7 12 27 6 13 28 7 12 27 6 13 26 5 12 26 7 13 25 6 12 25 6 12 25 6 12 27 6 13 26 5 12 26 7 13 27 6 13 27 6 13 27 6 13 27 6 13 
16 15 13 16 15 13 17 16 14 19 18 16 20 19 15 21 20 18 21 20 16 20 19 15 20 19 15 22 21 17 23 22 18 24 23 19 24 23 19 25 24 20 25 24 20 25 24 20 27 23 20 26 25 21 28 24 21 26 27 22 28 27 23 28 29 24 32 29 24 32 29 24 31 30 26 31 30 26 28 24 23 26 25 23 17 18 20 7 14 22 4 12 23 0 16 26 2 14 26 3 12 27 0 14 27 1 15 28 2 16 29 4 14 26 4 14 24 6 15 22 7 14 20 3 12 21 2 10 21 3 10 20 2 9 17 2 9 17 1 11 21 1 11 21 1 11 23 0 11 23 1 13 27 0 14 27 1 15 28 1 15 28 0 14 27 1 15 28 0 12 24 0 12 21 1 11 23 2 10 21 3 12 21 1 11 21 1 11 21 1 13 27 0 14 25 1 15 28 1 15 28 0 12 26 1 13 27 0 14 27 1 13 25 1 13 25 5 13 24 5 13 24 9 11 23 10 12 24 18 11 19 22 11 19 25 8 14 30 7 13 30 7 13 30 7 13 29 8 13 29 8 13 28 7 14 27 6 13 27 6 11 26 3 11 26 7 13 25 6 12 25 6 12 26 7 13 24 5 11 26 7 13 27 6 13 26 5 12 26 7 13 26 7 13 26 7 13 26 7 13 
16 15 13 17 16 14 17 16 14 17 16 14 18 17 15 17 16 14 17 16 12 18 17 15 18 17 13 19 18 14 18 17 13 21 20 16 22 21 17 27 26 22 28 27 23 31 30 26 34 30 29 31 30 26 28 27 23 27 28 23 32 31 27 32 31 27 32 28 25 30 29 24 34 30 27 32 31 27 24 24 24 23 23 23 11 16 20 0 9 18 0 8 19 0 10 22 1 11 23 2 12 24 0 12 24 4 16 30 3 17 30 1 13 27 3 15 27 1 15 28 2 14 26 2 14 28 0 14 27 1 13 25 0 8 19 1 9 22 1 13 27 0 12 26 1 14 30 4 13 28 1 15 28 2 14 28 0 14 27 0 14 27 0 14 27 1 13 27 0 12 26 1 11 21 1 11 23 1 11 21 1 11 21 0 12 21 1 11 21 1 11 23 2 12 24 0 12 24 0 14 25 2 12 24 2 12 24 1 11 23 2 12 22 3 11 22 16 11 18 18 11 19 30 7 13 30 8 11 30 7 13 30 7 15 28 7 12 28 7 12 27 6 13 25 6 12 26 7 13 26 6 15 26 6 15 25 6 12 25 6 12 25 6 12 25 6 12 26 7 13 25 6 12 25 6 12 25 6 12 27 6 13 26 5 12 28 7 14 26 7 13 26 7 13 26 7 13 26 7 13 
17 16 14 16 15 13 17 16 14 17 16 14 17 16 14 17 16 14 17 16 14 18 17 15 18 17 15 18 17 15 17 16 14 23 22 18 23 22 18 25 24 20 27 26 22 31 30 26 30 29 25 32 28 25 27 26 22 28 27 23 33 29 26 35 31 28 28 27 23 30 29 25 30 29 25 30 29 27 23 23 25 20 21 23 10 14 23 1 9 20 1 9 20 0 10 22 1 11 21 3 13 25 2 14 26 4 16 30 3 17 28 3 15 27 2 16 27 3 15 29 1 13 27 2 14 28 1 13 25 0 14 25 1 9 20 1 9 22 1 13 25 1 13 25 0 14 25 2 14 28 1 15 28 1 15 28 0 14 25 0 14 25 1 15 28 0 12 24 0 12 26 1 11 21 1 11 21 2 12 24 1 11 23 1 11 23 1 11 23 2 12 22 2 12 22 0 12 24 1 13 27 2 12 24 4 10 22 4 10 22 7 11 22 7 11 22 19 9 18 20 10 19 30 7 13 30 8 10 32 7 13 28 9 13 28 7 14 26 7 13 27 6 13 25 6 12 25 6 12 25 6 12 25 6 10 25 6 12 25 6 12 23 6 12 26 7 13 27 6 13 25 6 12 26 7 13 25 6 12 24 7 13 26 7 13 26 7 13 27 6 13 27 6 13 27 6 13 27 6 13 
16 15 13 15 13 14 17 16 14 18 17 15 17 15 16 16 15 13 15 14 12 18 17 15 18 17 15 18 17 15 18 17 15 23 22 20 22 21 19 22 21 19 22 21 19 24 23 21 24 23 19 26 25 21 26 25 21 29 25 22 32 31 27 33 29 26 29 28 26 30 29 27 16 20 23 17 18 22 4 14 24 2 12 24 0 12 21 0 10 20 2 10 21 0 6 18 1 9 20 3 13 25 3 13 25 7 16 31 5 17 29 6 18 32 6 18 32 3 15 29 1 15 28 1 13 25 2 12 22 1 11 23 2 12 24 1 11 23 0 12 24 1 13 25 2 14 28 1 15 28 0 14 27 0 14 27 1 13 25 0 12 24 2 12 24 1 11 21 1 11 21 2 10 21 1 9 20 2 10 23 0 10 22 3 13 25 1 13 25 1 13 27 1 15 28 2 14 26 5 14 29 7 14 24 16 10 20 20 11 16 30 7 13 30 8 11 30 7 13 31 8 14 29 6 12 28 7 12 26 5 12 25 5 14 25 6 12 25 6 12 23 6 12 26 6 15 24 4 13 23 6 12 24 4 13 25 6 12 23 6 12 25 6 12 25 6 12 27 8 14 25 6 12 26 7 13 26 7 11 27 6 13 26 5 12 28 5 13 26 5 12 26 5 12 26 5 12 26 5 12 
16 14 15 18 14 13 16 16 14 16 16 14 16 16 14 16 15 13 16 15 13 19 18 16 18 17 15 17 16 14 18 17 15 23 22 17 23 21 22 23 22 20 22 21 19 23 22 18 24 23 21 28 24 21 27 26 22 29 25 22 34 30 27 34 30 27 30 29 27 29 28 24 17 21 24 14 19 23 5 14 23 0 12 26 0 12 24 1 11 21 2 10 23 1 8 18 1 9 20 1 13 25 3 13 23 7 17 29 7 17 29 6 18 30 6 18 32 3 15 29 1 15 28 3 13 25 2 12 24 1 11 23 1 11 23 1 11 23 0 12 24 2 12 24 2 14 28 2 14 28 0 14 27 0 16 29 1 13 25 1 11 21 1 11 21 2 11 26 1 11 21 2 11 20 1 9 20 1 11 21 0 12 21 1 14 23 0 12 24 0 12 24 0 14 27 2 14 28 2 14 28 9 13 24 16 10 20 21 10 18 30 7 13 30 8 11 30 7 13 31 8 14 29 8 13 28 7 12 27 6 13 26 5 14 25 6 12 26 5 14 25 6 12 25 5 14 26 7 13 26 6 15 27 8 14 25 6 12 25 6 12 25 6 12 25 6 12 25 6 12 25 6 12 26 7 13 26 7 13 26 7 13 26 7 13 26 7 13 26 7 13 26 7 13 26 7 13 27 6 13 
17 16 14 17 16 14 16 15 13 17 16 14 18 16 17 19 18 16 17 17 15 16 16 16 18 18 16 22 21 19 22 21 19 22 21 19 21 21 19 25 23 24 25 24 22 22 21 19 22 21 19 22 21 19 24 23 21 21 21 21 17 20 25 16 19 24 4 17 26 5 15 27 2 16 27 0 16 26 1 13 25 1 15 28 0 14 25 2 12 24 0 12 21 0 8 19 1 9 20 2 12 24 2 12 22 3 13 23 3 11 22 1 13 25 1 13 27 2 14 26 1 13 25 1 13 25 2 12 24 1 11 23 2 10 21 2 12 22 4 12 23 0 12 24 0 14 25 1 15 28 0 14 27 0 14 27 1 13 25 1 13 25 0 12 24 1 11 21 1 11 21 1 7 19 0 9 18 2 12 22 1 11 21 1 13 25 1 13 25 12 10 21 15 12 21 21 10 18 28 9 15 29 10 16 28 9 15 28 9 15 29 8 15 28 7 14 28 7 12 27 6 11 25 6 12 26 7 13 25 6 12 25 6 12 24 7 13 23 6 12 24 5 11 26 7 13 25 6 12 25 6 12 25 6 12 24 5 11 25 6 12 25 6 12 25 6 12 26 7 13 25 6 12 26 7 13 25 6 12 26 7 13 25 6 12 26 7 13 26 7 13 26 7 13 26 7 13 26 7 13 
16 16 14 17 17 15 16 15 13 16 15 13 18 17 15 19 18 16 18 18 16 16 16 14 17 15 16 22 23 18 22 22 20 22 21 19 22 21 19 23 22 20 25 24 20 22 21 19 20 21 16 21 22 17 23 21 22 21 21 21 15 18 25 13 18 24 2 14 26 2 14 28 1 15 28 1 15 28 0 14 25 2 16 29 0 14 25 0 12 24 2 12 24 2 9 19 1 9 20 2 12 24 1 11 23 2 12 24 1 11 21 2 14 26 1 13 27 0 14 27 1 13 25 0 12 24 0 11 23 2 12 22 1 11 23 2 12 22 2 12 22 0 12 24 0 14 27 2 14 28 2 14 30 2 14 26 1 13 25 1 13 25 0 11 23 1 11 21 1 11 21 1 9 20 0 8 19 0 13 22 2 12 22 1 15 26 4 14 26 13 12 20 17 11 21 22 9 18 32 7 13 29 8 13 30 7 13 27 8 12 28 7 14 28 7 12 26 7 13 26 7 13 26 7 13 25 6 12 25 6 12 22 5 11 23 6 12 23 6 12 25 6 12 25 6 12 25 6 12 26 6 15 24 5 11 25 5 14 25 6 12 25 6 12 25 6 12 25 6 12 26 7 13 25 6 12 26 7 13 25 6 12 26 7 13 25 6 12 26 7 13 26 7 13 26 7 13 26 7 13 
3 12 19 2 11 18 5 12 18 6 11 17 6 11 15 8 11 16 7 11 14 9 10 14 7 11 14 9 13 16 11 12 16 10 13 18 11 14 19 10 14 23 10 15 21 10 14 23 7 14 22 7 16 25 7 15 26 6 16 25 5 15 25 2 15 24 0 11 23 2 12 24 0 12 24 2 12 24 0 12 24 0 12 24 0 12 24 0 14 27 1 11 23 0 10 22 1 11 23 0 12 24 1 14 23 1 13 25 1 13 25 2 14 28 3 15 29 1 15 28 2 16 27 1 13 25 0 10 22 1 11 23 1 11 23 1 11 23 0 12 24 0 12 24 1 15 28 1 15 28 1 13 27 0 14 25 2 12 24 3 10 20 0 11 20 1 11 21 2 10 21 2 8 20 4 8 19 13 11 22 12 10 21 22 9 16 21 10 16 25 8 16 24 9 16 24 7 15 26 6 15 25 6 12 26 7 13 25 6 12 24 7 15 23 6 12 25 5 14 26 7 13 26 7 13 24 5 11 25 6 12 25 6 12 25 6 12 26 7 13 25 6 12 25 6 10 25 6 12 25 6 12 25 6 12 25 6 12 25 6 12 25 6 12 25 6 12 24 5 11 25 6 12 25 6 12 25 6 12 25 6 12 25 6 12 25 6 12 25 6 12 25 6 12 25 6 12 25 6 12 
2 10 23 1 9 20 2 10 21 0 9 18 2 9 15 4 9 15 4 7 12 5 9 12 8 7 13 6 9 14 8 9 14 7 12 18 7 11 20 3 12 21 4 13 22 3 13 23 1 14 23 1 13 27 2 14 28 0 14 27 2 14 26 2 14 26 3 13 25 0 12 24 1 11 23 1 11 21 2 12 24 1 13 25 1 13 27 1 15 26 1 13 25 1 11 23 2 12 22 1 13 25 1 13 25 1 13 27 1 13 25 2 14 26 3 15 29 2 16 29 2 16 27 0 12 24 1 11 23 1 11 23 2 12 24 2 12 24 1 13 25 1 13 25 1 13 27 1 15 28 1 13 25 1 13 25 1 11 21 0 8 19 1 9 20 1 11 23 2 10 21 3 10 20 5 9 20 17 11 21 16 11 18 28 9 15 29 6 12 28 7 12 28 7 12 25 6 12 23 6 14 23 6 14 23 6 14 23 6 14 25 5 14 22 5 13 26 7 13 25 6 12 25 6 12 25 6 12 24 5 11 24 5 11 23 6 12 23 6 12 26 7 13 26 7 13 25 6 12 25 6 12 25 6 12 25 6 12 24 4 13 24 4 13 24 5 11 25 6 12 25 6 12 25 6 12 25 6 12 25 6 12 26 7 13 25 6 12 26 7 13 26 7 13 26 7 13 26 7 13 
1 11 21 1 11 23 1 11 21 1 11 20 2 11 20 1 10 17 3 10 18 2 9 17 2 9 17 3 10 16 3 10 16 3 10 18 3 10 20 4 13 22 3 11 22 3 11 22 1 11 21 1 11 21 0 12 24 0 12 24 3 13 25 1 14 23 2 12 22 1 11 21 2 12 22 1 11 21 2 12 24 2 12 24 3 11 24 0 12 24 2 12 22 0 10 20 1 11 23 4 16 30 4 16 30 3 15 29 3 15 29 4 16 30 4 16 30 3 15 27 1 15 28 0 12 24 1 11 21 1 11 23 2 12 22 0 10 22 2 12 24 0 13 22 1 13 25 1 13 25 2 11 26 0 13 22 3 11 22 1 11 21 3 10 20 8 8 18 11 9 20 17 7 16 17 7 15 21 10 18 22 9 18 24 7 13 27 6 13 27 8 14 25 6 12 23 6 12 25 6 12 23 6 14 24 4 13 23 6 14 25 5 14 22 5 13 23 6 12 23 6 14 25 6 12 25 6 12 23 6 12 25 6 12 25 6 12 25 6 12 25 6 12 24 4 13 25 6 12 23 4 10 25 6 12 26 7 13 24 5 11 26 7 13 24 5 11 24 5 11 25 6 12 25 6 12 26 7 13 27 8 14 26 7 13 26 7 13 25 6 12 25 6 12 25 6 12 26 7 13 
1 11 21 1 11 21 1 11 21 1 11 21 1 11 21 0 12 21 1 11 21 1 11 21 1 11 23 2 12 22 0 10 20 1 7 19 1 8 18 1 9 20 0 10 20 2 10 21 0 8 19 0 10 19 0 10 22 1 11 21 1 11 23 1 11 21 1 11 21 4 12 25 1 11 21 1 11 23 2 12 24 1 11 21 2 12 24 2 12 22 0 12 24 2 12 24 3 13 25 6 18 32 7 19 35 6 18 32 8 20 34 8 18 30 6 18 32 3 15 27 1 13 29 1 11 23 0 10 20 1 11 21 1 11 23 1 11 23 1 11 23 1 11 23 2 12 22 2 12 24 1 11 23 1 11 21 3 11 22 2 12 21 9 9 19 15 9 13 19 8 16 29 8 13 29 8 13 28 7 14 27 8 14 25 5 14 23 6 14 23 6 14 24 4 15 25 5 14 23 6 14 25 5 14 22 5 13 22 5 13 22 5 13 23 6 14 23 6 14 22 5 13 24 5 11 24 5 11 25 6 12 26 5 12 23 3 12 25 6 12 24 4 13 24 4 13 23 3 12 24 5 11 24 4 15 24 5 11 26 7 13 24 5 11 23 4 10 25 6 12 25 6 12 25 6 12 25 6 12 26 7 13 27 8 14 26 7 13 25 6 12 25 6 12 25 6 12 25 6 12 
1 11 21 0 10 20 2 10 21 2 10 21 1 9 20 1 11 21 0 10 20 2 10 21 1 11 21 0 10 20 1 11 23 1 10 19 0 9 18 0 8 19 1 9 20 1 9 20 1 9 22 0 8 19 2 10 21 1 11 21 1 11 20 0 12 21 1 11 21 0 11 20 1 11 23 2 12 24 0 13 22 1 11 23 2 12 22 0 13 22 1 13 27 1 11 23 1 13 25 3 17 28 4 18 31 5 17 29 5 17 31 6 16 28 5 15 27 2 14 26 1 13 27 0 12 24 2 10 21 0 12 21 1 11 23 0 13 24 3 13 25 2 12 24 2 10 21 1 11 21 6 10 19 8 11 20 12 11 19 13 10 21 15 8 16 18 7 15 20 7 16 27 8 12 26 7 13 28 7 14 26 5 12 22 7 14 25 5 14 24 4 13 22 5 13 24 4 13 23 6 16 23 6 14 23 6 14 23 6 14 23 6 12 22 5 13 23 6 14 23 6 14 27 6 15 25 5 14 25 6 12 25 6 12 25 5 14 24 5 11 23 3 12 24 4 13 24 5 11 24 5 9 24 4 13 24 4 13 25 6 12 24 4 13 25 6 12 25 6 12 25 6 12 25 6 12 25 6 12 26 7 13 25 6 12 25 6 12 25 6 12 25 6 12 25 6 12 25 6 12 
1 7 19 0 8 19 1 7 19 0 9 18 0 7 17 1 8 18 0 8 17 1 7 19 1 7 19 0 8 19 0 10 20 0 10 20 2 12 24 1 9 20 0 7 18 1 7 19 2 6 17 0 9 18 0 9 16 0 7 17 1 11 23 1 11 23 2 12 22 2 10 21 1 13 25 1 13 25 0 12 24 0 12 24 0 12 26 0 12 24 1 13 27 0 14 27 0 14 27 0 14 27 0 14 27 2 15 24 1 15 26 1 11 23 1 11 23 1 11 23 0 12 21 2 10 21 1 11 21 1 11 23 1 13 25 0 12 24 1 15 28 2 14 28 4 10 24 0 13 22 10 10 18 14 8 18 25 8 16 30 7 13 27 6 13 26 7 13 26 6 15 23 6 14 23 6 14 22 5 13 24 4 13 24 4 13 23 6 14 22 5 13 22 5 13 23 6 14 23 6 14 23 6 14 23 6 14 23 6 14 23 6 14 23 6 14 23 6 14 23 6 14 25 6 12 25 6 12 24 5 11 25 6 12 22 5 13 24 4 13 23 4 10 24 5 11 22 5 11 26 5 12 24 5 11 24 5 11 25 6 12 26 5 12 24 5 11 25 6 12 26 7 13 25 6 12 25 6 12 27 8 14 25 6 12 24 5 11 25 6 12 25 6 12 25 6 12 25 6 12 
0 10 20 1 9 20 1 9 20 1 7 19 0 8 19 0 8 19 1 8 18 1 9 20 0 9 18 1 9 20 0 7 18 1 9 20 0 10 20 1 9 20 2 8 22 1 9 20 0 9 18 2 6 17 0 7 17 1 10 19 1 11 21 1 9 20 0 10 20 1 11 21 0 11 23 0 14 27 1 13 27 0 14 27 1 15 26 1 13 25 1 13 25 1 13 25 1 13 25 0 14 25 1 13 25 3 13 25 1 13 27 1 11 23 2 10 21 2 12 22 1 11 23 1 11 21 1 11 23 0 13 22 1 13 25 1 13 25 4 14 24 4 12 23 10 10 20 10 10 20 15 9 19 19 9 18 27 7 16 28 7 14 27 6 13 25 6 12 23 6 14 23 6 14 23 6 14 23 6 14 22 5 13 24 4 13 22 5 13 22 5 13 23 6 14 22 5 13 22 5 13 23 6 14 24 7 15 23 6 14 22 5 13 24 4 13 25 5 14 26 6 15 24 5 11 25 6 12 25 6 12 24 4 13 23 6 14 23 6 14 24 5 11 24 5 11 22 5 11 25 6 12 25 6 12 25 6 12 25 6 12 25 6 12 24 5 11 25 6 12 25 6 12 25 6 12 26 7 13 26 7 13 25 6 12 25 6 12 25 6 12 25 6 12 25 6 12 25 6 12 
0 14 27 0 14 27 1 13 25 2 12 22 0 12 21 1 11 21 1 11 21 2 10 23 0 10 22 2 10 21 1 9 22 0 8 21 0 10 20 1 9 20 2 10 21 1 10 19 1 8 18 1 8 18 0 9 18 1 8 18 1 8 18 1 8 18 0 9 18 0 6 18 1 13 25 0 14 25 1 14 23 0 14 23 1 13 25 0 14 27 1 13 25 0 10 20 2 12 22 2 10 23 3 11 22 2 12 22 0 12 21 1 11 21 0 12 21 1 11 21 1 11 21 1 11 21 2 11 26 2 12 22 2 12 24 5 13 24 15 9 19 15 12 21 29 8 13 29 6 12 25 5 14 23 6 12 23 6 12 22 5 11 23 6 14 22 5 13 23 6 14 22 5 13 23 6 14 23 6 14 22 5 13 22 5 13 23 6 14 23 6 14 22 5 13 23 6 14 23 6 14 23 6 14 22 5 13 24 4 13 25 6 12 22 5 13 22 5 13 24 4 13 26 5 14 25 6 12 24 4 13 25 5 14 24 4 13 24 4 13 23 6 12 25 6 12 25 6 12 25 6 12 25 6 12 26 7 13 25 6 12 23 6 12 24 5 11 25 6 12 25 6 12 26 7 13 25 6 12 26 7 13 25 6 12 25 6 12 25 6 12 25 6 12 25 6 12 25 6 12 
0 14 25 1 15 28 3 13 25 2 12 22 0 12 24 1 11 21 1 11 23 0 10 20 0 10 20 0 10 22 0 9 19 2 8 20 2 11 20 1 9 20 1 11 21 1 9 20 0 6 18 1 8 18 2 9 19 1 8 18 1 8 18 1 8 18 0 9 18 1 8 18 0 12 24 1 13 29 1 15 28 1 14 30 1 15 28 4 13 28 1 13 25 1 11 21 1 11 21 0 12 21 1 11 21 1 11 21 1 11 23 0 10 22 2 10 23 1 11 21 0 10 20 1 11 23 1 11 21 2 12 22 2 12 24 5 13 24 14 11 22 16 10 20 26 7 13 27 6 11 25 5 14 23 6 14 23 6 14 22 5 13 23 6 14 24 4 13 23 6 14 22 5 13 23 6 14 22 5 13 23 6 14 23 6 14 23 6 14 22 5 13 22 5 13 23 6 14 23 6 14 22 5 13 22 5 13 22 5 13 22 5 13 23 6 14 25 5 14 25 5 14 25 5 14 25 5 14 24 4 13 21 4 12 22 5 13 23 6 14 22 5 11 23 6 12 25 6 12 25 6 12 25 6 12 26 7 13 25 6 12 26 5 12 25 6 12 25 6 12 25 6 12 25 6 12 25 6 12 25 6 12 26 7 13 25 6 12 25 6 12 25 6 12 25 6 12 25 6 12 
1 13 25 2 14 28 1 13 25 0 14 27 0 14 25 0 14 25 1 13 25 1 13 25 1 11 23 2 14 28 1 13 25 3 13 25 0 13 24 1 11 23 1 11 21 1 11 21 2 12 22 1 9 20 1 8 18 0 8 19 1 11 21 1 9 20 0 7 17 0 7 17 2 12 22 0 12 24 2 14 26 3 16 25 2 14 26 0 14 25 1 11 23 0 10 20 0 10 20 1 11 23 1 11 21 2 10 23 0 10 20 0 8 19 2 10 21 1 7 19 4 8 19 8 9 14 16 8 19 18 8 17 29 8 13 30 9 14 27 6 13 26 7 13 22 5 13 23 6 12 25 5 14 22 5 13 23 6 14 23 6 14 23 6 14 23 6 14 22 5 13 23 6 14 23 6 14 23 6 14 22 5 13 22 5 13 23 6 14 23 6 14 23 6 14 22 5 13 22 5 13 22 5 13 23 6 14 23 6 14 22 5 13 23 6 14 25 5 14 25 5 14 24 4 13 25 5 14 24 4 13 25 5 14 24 5 11 24 5 11 23 6 12 23 6 12 25 6 12 25 6 12 24 5 11 26 5 12 26 7 13 25 6 12 24 5 11 25 6 12 26 7 13 26 7 13 25 6 12 25 6 12 25 6 12 25 6 12 25 6 12 25 6 12 25 6 12 25 6 12 
1 13 27 1 13 27 0 14 27 1 15 28 0 12 26 1 13 25 1 13 25 1 13 27 0 11 25 2 14 26 0 14 25 0 12 24 0 12 24 2 12 24 0 12 21 1 11 21 2 10 21 0 8 19 0 7 17 1 8 18 0 10 22 0 10 22 0 7 17 2 9 19 2 12 22 2 12 22 4 14 26 2 14 26 1 13 27 1 13 25 2 12 24 0 12 21 1 11 21 2 12 22 2 10 21 1 9 20 0 10 20 0 9 18 1 9 20 0 7 17 4 8 19 9 7 18 15 7 18 19 8 16 29 8 15 29 9 11 26 6 15 26 7 13 22 5 13 22 5 13 22 5 13 21 6 13 22 7 12 23 6 14 22 5 13 23 6 14 23 6 14 22 5 13 22 5 13 23 6 14 22 5 13 23 6 14 23 6 14 23 6 14 22 5 13 22 5 13 22 5 13 23 6 12 23 6 14 25 5 14 26 7 13 22 5 13 25 5 14 25 5 14 25 5 14 26 6 15 25 5 14 25 6 12 25 6 12 25 6 12 24 5 11 24 5 11 25 6 12 26 7 13 25 6 12 25 6 12 26 7 13 25 6 12 25 6 12 25 6 12 25 6 12 24 5 11 26 7 13 25 6 12 25 6 12 26 7 13 25 6 12 25 6 12 25 6 12 25 6 12 
1 11 21 1 11 21 0 12 24 0 12 24 1 13 25 0 12 24 2 12 24 1 13 27 1 15 26 1 13 27 1 15 28 0 14 27 0 14 27 0 12 24 0 12 24 1 11 23 2 10 21 1 11 21 0 10 19 0 9 18 0 8 19 1 9 20 0 7 17 1 8 18 2 8 20 2 8 20 1 11 20 1 13 25 3 11 24 1 9 22 2 8 20 1 11 21 2 10 21 2 10 21 0 10 20 2 8 20 2 9 19 9 8 14 14 9 16 20 7 16 25 8 14 27 8 14 25 8 14 26 7 11 26 7 13 26 7 13 24 4 13 23 6 12 22 5 11 22 5 13 22 5 13 21 6 11 23 6 12 22 5 13 24 4 13 23 6 14 23 6 14 22 5 13 25 5 14 23 6 14 23 6 14 23 6 14 22 5 13 22 5 13 22 5 11 22 5 13 25 6 12 25 5 14 25 5 14 23 6 12 25 5 14 25 5 14 25 6 12 23 6 14 23 6 14 25 5 14 25 6 12 26 7 13 25 6 12 25 6 12 25 6 12 25 6 12 25 6 12 26 7 13 25 6 12 23 6 12 25 6 12 25 6 12 25 6 12 25 6 12 25 6 12 25 6 12 25 6 12 25 6 12 25 6 12 26 7 13 25 6 10 25 6 10 25 6 10 25 6 10 
2 10 21 0 10 20 1 11 21 2 12 22 2 12 22 2 12 24 2 12 24 1 13 25 0 14 27 2 14 26 0 14 27 0 14 27 0 14 27 1 13 25 0 12 24 2 12 24 1 11 23 1 11 21 1 11 21 0 10 20 1 8 18 2 9 19 0 9 18 2 9 19 1 9 20 1 9 20 1 11 21 0 12 24 1 11 23 2 10 21 2 10 21 0 10 22 2 12 22 1 11 21 1 9 20 3 9 21 3 10 20 12 9 16 15 8 16 26 9 17 29 8 13 28 9 13 27 6 11 28 9 15 24 7 13 26 7 13 22 5 13 22 5 13 22 5 13 22 5 13 23 6 14 22 5 11 23 6 14 25 5 14 25 6 12 24 4 13 22 5 13 23 6 14 25 5 14 25 5 14 23 6 14 22 5 13 23 6 14 24 4 13 24 5 11 24 4 13 25 5 14 25 6 12 25 5 14 25 5 14 25 6 12 25 5 14 25 6 12 25 6 12 24 4 13 25 6 12 25 6 12 26 5 14 26 5 12 24 5 9 25 6 12 25 6 12 25 6 12 22 7 12 25 6 12 25 6 12 26 5 12 23 6 12 25 6 12 25 6 12 25 6 12 25 6 12 25 6 12 25 6 12 26 7 13 25 6 12 25 6 12 25 6 12 25 6 12 25 6 12 
1 9 20 1 9 22 0 10 20 1 11 23 3 11 24 0 12 21 0 12 24 1 13 25 1 13 27 0 13 22 0 12 24 0 14 27 2 14 28 1 13 27 2 12 22 0 12 24 2 12 24 0 12 24 0 13 22 0 12 24 1 11 21 1 9 20 2 9 19 1 9 20 0 6 20 3 7 18 0 8 19 0 10 20 2 9 19 0 9 18 2 8 22 1 9 22 2 10 21 8 10 22 8 11 20 19 8 14 19 8 14 23 8 13 23 8 15 28 9 15 27 8 12 27 8 12 26 7 13 25 5 14 22 5 13 22 5 13 22 5 13 22 5 13 23 6 14 22 5 13 21 6 13 22 5 13 24 4 13 26 6 15 25 5 14 24 4 13 23 6 14 24 4 13 23 6 14 23 6 14 25 5 14 25 5 14 22 5 13 22 5 13 25 4 13 22 5 13 24 4 13 24 4 13 25 6 12 25 6 12 23 6 12 24 5 11 25 6 12 25 6 12 26 7 13 25 6 12 24 5 11 25 6 12 25 6 12 25 6 12 25 6 12 26 7 13 25 6 12 23 6 12 24 5 11 25 6 12 25 6 12 23 6 12 25 6 12 26 7 13 25 6 12 25 6 12 25 6 10 25 6 10 23 7 10 25 6 10 25 6 12 25 6 12 25 6 12 25 6 12 
0 9 18 0 10 20 0 10 20 1 11 23 1 11 23 1 11 21 1 11 23 3 13 25 3 13 25 1 11 23 0 12 24 2 14 28 1 15 28 0 12 24 0 12 24 2 12 24 0 12 24 0 12 24 2 12 22 1 13 25 0 12 24 2 12 24 1 10 19 1 9 20 0 8 19 1 8 18 1 5 17 1 7 19 2 6 18 3 5 17 3 10 20 3 10 20 6 10 21 14 11 20 14 11 20 27 8 14 29 8 13 29 8 13 29 9 11 27 8 14 26 7 13 26 7 13 25 6 12 23 6 14 22 5 13 22 5 13 23 6 14 22 5 15 22 5 13 22 5 13 23 6 14 22 5 13 24 4 13 25 5 14 25 5 14 25 5 14 22 5 13 25 5 14 23 6 14 23 6 14 25 5 14 25 5 14 23 6 14 25 5 14 25 5 14 25 5 14 25 5 14 25 5 14 25 5 14 25 6 12 25 6 12 25 6 12 25 6 12 25 6 12 25 6 12 25 6 12 25 6 12 25 6 12 25 6 12 25 6 12 26 7 13 24 5 11 25 6 12 23 6 12 24 5 11 25 6 12 24 5 11 23 6 12 25 6 12 24 5 11 25 6 12 25 6 12 26 7 13 25 6 12 26 7 13 25 6 12 25 6 10 25 6 10 25 6 10 25 6 10 
1 7 19 1 7 19 1 9 20 1 9 22 1 11 21 1 11 21 1 11 23 0 12 24 1 13 25 1 11 23 1 11 23 2 12 24 0 12 24 3 15 27 3 15 29 4 14 26 1 13 27 1 13 25 0 12 24 1 13 25 2 12 22 2 12 24 0 10 20 1 9 20 0 8 19 2 10 21 1 8 18 1 8 18 4 8 19 8 8 16 10 9 17 16 9 17 16 9 16 21 8 17 21 10 16 27 8 14 25 8 14 24 7 13 26 7 13 24 7 13 24 7 13 23 6 12 23 6 12 22 5 13 22 5 13 22 5 13 21 4 12 23 6 14 22 5 13 22 5 13 23 6 14 22 7 14 25 5 14 24 4 13 25 5 14 26 6 15 22 5 13 25 5 14 23 6 14 22 5 13 24 4 13 22 5 13 23 6 14 25 5 14 23 6 14 24 4 13 25 5 14 25 6 12 25 5 14 24 4 13 25 5 14 25 6 12 24 5 11 25 6 12 24 5 11 25 6 12 25 6 12 25 6 12 25 6 12 26 7 13 25 6 12 25 6 12 25 6 12 26 7 13 25 6 12 24 5 11 24 5 11 25 6 12 24 5 11 25 6 12 22 5 11 23 6 12 23 6 12 25 6 12 25 6 12 22 5 11 25 6 12 25 6 12 25 6 12 25 6 12 
2 6 18 2 6 17 0 8 19 1 9 20 0 10 20 1 11 21 1 11 23 0 12 24 0 12 26 1 11 21 2 10 21 2 12 24 2 12 24 4 16 28 6 18 30 4 16 28 2 16 27 2 14 26 1 15 28 1 13 25 1 11 21 2 10 23 0 9 24 0 10 22 0 10 20 2 8 20 2 9 19 2 9 19 8 8 18 14 9 16 19 8 14 29 8 13 28 7 12 28 7 12 29 8 13 26 7 11 26 7 13 23 6 14 23 6 14 23 6 14 22 5 11 22 5 13 22 5 13 23 6 14 23 6 14 22 5 13 22 5 13 22 5 13 23 6 14 22 5 13 23 6 14 23 6 14 25 5 14 24 4 13 24 4 13 22 5 13 21 4 12 22 5 13 22 5 13 22 5 13 22 5 13 22 5 13 22 5 13 22 5 13 23 6 14 22 5 13 25 5 14 24 4 13 24 4 13 23 3 12 23 6 14 25 5 14 24 5 11 25 6 12 25 6 12 25 6 12 25 6 12 25 6 12 25 6 12 25 6 12 25 6 12 25 6 12 21 4 10 22 5 11 25 6 12 24 5 11 22 5 11 22 5 11 22 5 11 22 5 11 24 5 11 24 5 11 22 5 11 25 6 12 25 6 12 25 6 12 25 6 12 25 6 12 25 6 12 25 6 12 
0 7 17 0 7 17 0 8 19 1 9 20 1 11 21 0 10 20 1 11 21 2 12 24 2 12 24 2 12 22 1 11 23 2 12 24 3 13 25 5 17 29 7 17 29 4 16 28 3 15 27 3 15 27 1 15 28 1 15 26 0 13 22 2 12 24 2 12 22 1 11 21 7 9 21 7 9 21 11 8 17 14 6 17 15 8 16 19 6 15 23 8 15 28 7 12 26 6 15 24 8 11 26 7 13 23 8 13 26 7 13 22 5 13 23 6 14 21 6 13 22 5 13 21 4 12 23 6 14 23 6 14 22 5 13 23 6 14 22 5 13 22 5 13 23 6 14 22 5 13 22 5 13 23 6 14 23 6 14 24 4 13 24 4 13 22 5 13 22 5 13 22 5 13 22 5 13 22 5 13 22 5 13 22 5 13 22 5 13 22 5 13 22 5 13 22 5 13 24 4 13 24 4 13 24 4 13 25 5 14 25 6 12 24 5 11 25 6 12 25 6 12 23 6 12 24 5 11 25 6 12 25 6 12 27 8 14 25 6 12 25 6 12 24 5 11 23 6 12 23 6 12 24 5 11 24 5 11 22 5 11 23 6 12 22 5 11 22 5 11 22 5 11 22 5 11 23 6 12 23 4 10 25 6 12 25 6 12 25 6 10 25 6 10 25 6 10 25 6 10 
1 5 14 0 4 15 0 4 15 1 8 18 0 7 17 0 8 19 1 10 19 1 11 23 1 11 23 3 11 22 1 11 21 2 12 24 2 12 24 7 17 29 7 17 29 5 17 29 4 16 28 4 16 28 3 15 27 3 15 27 2 14 26 5 14 29 3 13 25 4 12 25 12 11 19 12 11 19 24 9 16 29 6 12 27 8 12 28 7 12 28 9 15 24 7 13 23 6 14 23 6 14 22 5 13 21 5 15 22 5 13 22 5 13 23 6 14 21 6 13 22 5 13 22 5 13 22 5 13 21 4 12 22 5 13 23 6 14 22 5 13 23 6 14 23 6 14 22 5 13 22 5 13 24 4 13 22 5 13 25 5 14 22 5 13 22 5 13 22 5 13 22 5 13 23 6 14 22 5 13 22 5 13 22 5 13 21 4 12 22 5 13 24 7 13 21 4 12 24 4 13 22 5 13 24 7 13 25 6 12 26 7 13 25 6 12 25 6 12 22 5 11 24 5 11 23 6 12 25 6 12 24 5 11 24 5 11 24 5 11 24 7 13 22 5 11 22 5 11 21 4 10 22 5 11 22 5 11 22 5 11 22 5 11 23 4 10 22 5 11 22 5 11 25 4 11 25 4 11 23 6 12 23 6 12 25 6 12 25 6 10 25 6 10 25 6 10 25 6 10 
1 5 14 2 5 14 2 6 17 1 8 18 1 8 18 0 9 18 1 10 19 0 12 21 2 12 24 1 11 21 1 11 21 3 13 23 0 12 24 5 14 29 8 17 32 8 18 30 7 16 31 8 18 30 7 17 29 5 17 29 5 15 25 6 16 28 7 11 22 7 11 23 13 10 17 16 9 17 23 8 15 27 8 14 28 7 14 27 8 14 26 7 13 24 7 13 26 7 13 22 5 13 20 5 12 22 5 13 22 5 13 22 5 13 21 6 13 22 7 14 22 5 13 22 5 13 22 5 13 22 5 13 22 5 13 22 5 13 21 4 12 22 5 13 25 5 14 23 6 14 23 6 14 23 6 14 22 5 13 24 4 13 22 5 13 22 5 13 22 5 13 22 5 13 22 5 13 22 5 13 22 5 13 22 5 13 22 5 13 23 6 14 22 5 11 22 5 11 24 5 11 23 6 12 23 6 12 22 5 11 22 5 11 25 6 12 26 7 13 23 4 10 21 6 11 26 7 13 23 6 12 24 5 11 24 5 11 26 7 13 24 5 11 25 6 12 23 6 12 22 5 11 23 6 12 24 5 11 22 5 11 21 6 11 22 5 11 22 5 11 21 6 11 23 6 12 25 6 12 24 5 11 25 6 12 25 6 12 25 6 12 25 6 12 25 6 12 25 6 12 
5 14 9 7 13 11 5 10 14 0 7 15 1 8 18 1 7 19 0 8 19 2 12 22 1 11 21 2 12 22 2 12 24 3 15 27 2 14 26 5 17 31 9 18 33 15 22 38 19 26 42 18 26 39 18 26 39 19 23 35 23 15 28 23 16 24 28 7 12 27 8 14 27 8 14 26 7 11 27 8 12 26 7 13 26 7 13 23 6 14 24 7 15 21 6 13 21 4 12 21 6 13 21 6 13 22 7 14 22 5 15 21 6 13 22 5 13 21 5 15 22 5 13 22 5 13 22 5 13 22 5 11 21 4 10 22 5 13 22 5 13 22 5 13 24 4 13 22 5 13 23 6 14 22 5 13 22 5 13 23 6 14 23 6 14 23 6 14 23 6 14 24 7 15 24 5 11 25 4 9 23 7 10 23 6 12 25 5 14 23 6 14 22 5 11 22 5 11 24 5 11 24 5 11 25 6 12 22 5 11 22 5 11 22 6 9 25 6 12 22 5 11 23 6 12 22 5 11 26 7 13 25 6 12 25 6 12 25 6 12 23 6 12 24 5 11 22 5 11 22 5 11 23 6 12 24 5 11 22 5 11 22 5 11 22 5 11 25 6 12 24 5 11 22 5 11 23 7 10 25 6 10 25 6 10 25 6 10 23 7 10 23 7 10 23 7 10 23 7 10 
7 16 11 6 15 10 2 10 13 2 9 17 0 7 15 0 6 18 1 9 20 1 11 21 0 12 21 1 11 21 2 10 21 2 14 28 3 15 29 5 17 31 9 18 33 13 23 35 18 26 39 18 26 39 20 26 40 20 23 38 22 16 26 23 16 24 27 8 12 27 8 14 27 8 14 27 8 14 27 8 14 27 8 12 26 7 13 23 6 12 22 5 13 21 6 13 21 6 13 21 6 13 21 6 13 21 6 13 22 7 14 23 6 14 23 6 14 22 5 13 21 6 13 21 6 13 22 5 13 21 6 13 23 6 14 22 7 14 24 4 13 23 6 14 23 6 12 22 5 11 22 5 13 23 6 14 23 6 14 22 5 13 23 6 12 23 6 12 24 4 13 23 6 14 22 5 13 24 4 13 24 5 11 22 5 11 22 5 11 24 5 11 25 6 12 25 6 12 25 6 12 22 5 11 22 5 11 22 5 11 24 5 11 24 5 11 23 6 12 22 5 11 24 5 11 23 6 12 22 5 11 23 4 10 23 6 12 24 5 11 23 6 12 22 5 11 23 6 12 24 7 13 23 6 12 22 5 11 21 4 10 24 7 13 22 5 11 24 5 11 25 6 12 23 4 10 25 6 10 25 6 10 26 5 10 24 5 9 25 6 12 24 5 11 24 5 11 24 5 11 
1 24 8 1 23 10 1 21 9 3 21 9 5 18 9 8 14 10 5 14 13 2 11 20 3 12 21 0 14 25 0 14 27 2 14 26 4 14 26 11 19 32 16 20 32 19 19 29 23 17 29 23 13 22 26 7 13 27 8 14 23 6 12 23 6 12 23 6 14 23 6 14 22 7 14 22 7 14 23 6 14 21 6 13 22 5 13 22 5 13 21 6 13 21 6 13 22 5 13 22 5 13 20 5 12 21 6 13 21 6 13 21 6 13 21 6 13 21 6 13 21 6 13 21 6 13 22 5 13 20 5 12 23 6 14 22 5 13 23 6 14 22 5 13 22 5 11 23 6 12 22 5 13 23 6 14 23 6 14 23 6 14 23 6 12 22 5 11 23 6 14 22 5 13 23 6 14 23 6 14 25 4 11 22 5 11 22 5 11 24 5 11 24 5 11 24 5 11 22 5 11 23 6 12 22 5 11 23 6 12 22 5 11 22 5 11 22 5 11 23 6 12 25 6 12 22 5 11 23 6 12 24 5 11 24 7 13 24 5 11 23 6 12 23 6 12 22 5 11 22 5 11 24 5 11 25 6 12 25 6 12 24 5 9 22 5 11 22 5 11 23 6 12 21 4 10 23 6 12 23 7 10 24 5 9 25 6 8 21 5 8 22 6 9 22 6 9 22 6 9 
1 24 8 1 23 10 1 21 9 2 20 8 6 17 9 8 14 10 8 12 13 2 11 18 3 10 20 0 14 27 2 14 30 4 14 26 3 12 27 12 18 32 13 19 31 21 19 30 21 18 29 24 14 23 27 8 14 27 8 14 24 7 13 25 6 12 25 5 14 23 6 12 21 6 13 21 6 13 21 6 13 22 5 15 22 5 13 22 5 13 22 5 13 22 5 13 22 5 13 22 5 13 22 5 13 21 4 12 20 5 12 21 6 13 20 5 12 21 6 13 21 6 13 21 4 12 21 6 13 22 7 14 22 5 13 21 6 13 22 5 13 23 6 14 22 5 11 22 5 11 22 5 13 23 6 14 22 5 13 23 6 14 23 6 12 23 6 12 22 5 13 22 5 13 24 7 15 23 6 14 22 5 11 22 5 11 23 6 12 23 6 12 22 5 11 22 5 11 23 6 12 22 5 11 23 6 12 23 6 12 23 6 12 22 5 11 23 6 12 25 6 12 23 6 12 23 6 12 22 5 11 23 6 12 23 6 12 23 6 12 23 6 12 22 5 11 23 4 10 25 4 11 25 6 12 24 5 9 25 6 10 23 7 10 26 5 12 24 5 11 22 6 9 23 6 12 22 6 9 22 6 9 24 5 9 25 6 12 23 7 10 23 7 10 23 7 10 23 7 10 
0 22 9 0 23 7 0 24 11 0 22 9 0 20 8 3 19 9 2 18 8 2 15 8 3 15 11 6 14 16 9 13 16 10 10 20 10 10 18 21 9 19 24 11 20 25 10 17 21 8 15 20 7 16 23 6 16 24 4 13 21 4 12 21 4 12 23 3 12 21 4 12 21 4 12 21 6 13 22 5 13 22 5 13 21 6 13 21 4 12 19 4 11 21 6 13 22 7 14 21 6 13 21 6 13 20 5 12 21 6 13 21 6 13 21 6 13 21 6 13 22 5 13 20 5 12 21 6 13 22 5 13 22 5 13 22 5 13 24 4 13 22 5 13 22 5 13 22 5 13 22 5 11 22 5 11 24 7 13 23 6 12 22 5 13 23 6 14 22 5 13 23 6 14 22 5 13 21 4 12 23 6 12 22 5 11 22 5 11 23 6 12 22 5 11 23 6 12 22 5 11 22 5 11 22 5 11 21 4 10 22 5 11 22 5 11 21 6 11 22 7 12 21 4 10 23 8 13 23 8 13 22 5 11 22 7 12 22 5 11 24 5 9 24 5 11 23 6 12 22 5 11 23 7 10 23 7 10 25 6 10 23 7 10 22 6 9 22 6 9 22 5 11 22 5 11 21 4 10 23 7 10 22 6 9 23 7 10 23 7 10 22 6 9 22 6 9 22 6 9 
0 22 9 1 23 10 2 22 10 0 24 10 0 22 9 3 21 9 2 19 9 1 17 7 3 16 7 11 13 10 12 14 13 12 9 18 12 9 18 24 7 13 27 8 14 24 7 13 23 6 14 22 5 13 21 6 13 22 5 13 22 5 13 21 6 13 21 5 15 22 5 13 21 6 13 22 7 14 22 7 14 22 5 13 21 6 13 22 5 13 21 6 13 23 6 14 22 7 14 21 6 13 21 6 13 22 7 14 21 6 13 21 4 12 23 6 14 22 5 13 21 6 13 20 5 12 21 6 13 21 6 13 22 5 13 22 5 13 21 4 12 23 6 14 22 5 13 23 6 14 22 5 11 22 5 11 23 6 12 22 5 11 23 6 14 22 5 13 22 5 11 22 5 11 22 5 11 23 6 12 23 6 12 23 6 12 23 6 12 23 6 12 23 6 12 23 6 12 22 5 11 21 6 11 21 6 11 21 6 11 22 5 11 24 5 11 22 5 11 24 5 11 22 5 11 23 6 12 21 4 10 21 6 11 22 5 11 22 5 11 22 5 11 22 5 11 23 6 12 23 6 12 23 4 8 22 6 9 22 6 9 25 6 12 23 6 12 23 7 10 23 7 8 22 6 9 22 6 9 23 7 10 22 6 9 22 7 12 21 5 8 22 6 9 22 6 9 22 6 9 
1 17 7 1 17 7 0 20 9 1 23 10 2 22 11 4 21 11 7 20 11 12 14 11 14 14 12 21 9 13 20 10 11 21 8 15 21 8 17 27 8 14 24 7 13 25 5 14 22 5 13 22 5 13 21 6 13 20 5 12 21 5 15 22 7 14 22 5 13 22 5 13 23 8 15 22 6 16 21 5 15 21 6 13 21 5 15 21 5 15 22 5 13 21 4 12 21 6 13 21 6 13 20 5 12 21 6 13 20 5 12 21 6 13 21 6 13 20 5 12 22 7 14 21 4 12 22 7 14 22 5 13 22 5 13 22 5 13 21 4 12 22 5 13 22 5 11 23 6 12 22 5 13 23 6 14 23 6 14 22 5 13 22 5 11 22 5 11 23 6 12 22 5 11 23 6 12 23 6 12 22 5 11 23 6 12 23 6 12 22 5 11 25 6 12 22 5 11 21 4 10 21 6 11 20 5 10 19 7 11 20 5 10 22 7 12 20 5 10 21 6 11 21 6 11 20 5 10 21 6 11 22 5 11 20 5 10 22 5 11 24 5 11 23 6 12 22 5 11 24 5 9 24 5 9 24 5 9 24 5 9 25 6 10 24 5 9 25 6 10 23 7 10 22 6 9 23 6 12 23 7 10 23 7 10 23 7 10 22 6 9 22 6 9 22 6 9 22 6 9 
1 14 5 2 13 5 0 19 7 0 22 9 4 21 11 4 21 11 9 19 11 18 14 13 20 15 12 28 7 12 28 7 14 27 8 12 26 7 13 27 8 14 23 6 14 22 5 11 22 5 13 21 4 12 21 5 15 21 6 13 22 5 13 18 5 12 20 5 12 22 6 16 22 5 13 21 6 13 21 6 13 22 7 14 20 7 14 20 7 14 21 6 13 21 6 13 21 4 12 22 5 13 21 6 13 21 6 13 20 5 12 21 6 13 21 6 13 21 6 13 21 6 13 21 6 13 20 5 12 22 5 13 21 6 13 23 6 14 23 6 14 22 5 13 23 6 12 22 5 11 21 4 12 22 5 13 22 5 13 22 5 13 23 6 12 23 6 12 23 6 12 23 6 12 22 5 11 24 5 11 22 7 12 23 6 12 22 5 11 23 6 12 22 5 11 22 5 11 23 6 12 21 4 10 20 5 10 20 5 10 21 6 11 22 7 12 21 6 11 21 6 11 21 4 10 20 5 10 19 7 11 22 5 11 18 6 10 22 5 11 23 6 12 25 6 10 26 7 11 25 6 10 21 6 9 24 5 9 27 6 11 23 7 10 22 7 10 22 6 9 23 7 10 22 6 9 23 7 10 21 6 9 20 4 7 22 5 11 23 7 10 22 6 9 22 6 9 22 6 9 
3 15 5 1 14 5 7 19 9 9 21 11 10 20 11 14 16 11 16 15 11 22 12 13 22 10 10 28 7 14 28 7 14 25 6 12 27 8 12 23 6 12 25 5 14 22 7 14 21 6 13 21 6 13 21 6 13 21 6 13 21 6 13 22 4 16 20 4 14 22 5 11 19 3 13 21 5 15 20 5 12 20 4 14 22 7 14 19 6 13 21 4 12 21 4 12 21 6 13 21 6 13 21 6 13 21 6 13 22 7 14 21 6 13 21 6 13 22 7 14 22 7 14 23 6 14 21 6 13 21 4 12 22 7 14 22 5 13 22 5 13 22 5 13 22 5 11 22 5 11 22 5 13 22 5 13 22 5 13 22 5 13 23 6 12 23 6 12 22 5 11 22 5 11 22 5 11 22 5 11 22 5 11 21 4 10 22 5 11 21 4 10 22 5 11 22 5 11 21 4 10 22 5 11 22 7 12 21 6 11 21 6 11 21 4 10 21 6 11 21 6 11 22 5 11 20 5 10 22 5 11 21 4 10 22 5 11 22 5 11 22 6 9 23 7 10 22 7 10 22 6 9 22 6 9 23 7 10 23 7 10 24 5 9 23 7 10 22 6 9 22 6 9 23 7 10 22 6 9 23 7 10 22 6 9 22 6 9 21 4 10 22 5 11 22 5 11 22 5 11 
