P3
100 50
255
0 12 24 0 12 24 0 11 23 1 13 25 0 12 24 0 12 24 0 12 24 1 13 25 1 13 25 0 12 24 0 12 24 0 11 23 3 13 25 3 13 23 2 11 26 10 10 22 17 9 22 21 6 29 26 1 41 24 2 41 21 3 45 20 1 46 19 0 45 19 0 45 19 0 45 18 1 45 18 1 45 18 0 44 18 1 45 18 1 45 17 0 44 16 1 44 16 0 45 14 1 44 16 0 45 17 0 45 16 1 44 16 0 43 17 0 44 16 1 44 14 2 42 14 2 40 12 0 38 13 1 37 13 1 37 13 1 37 12 0 38 11 1 38 11 1 38 11 1 38 11 0 42 9 0 43 7 0 42 7 0 42 7 0 44 6 1 42 6 1 42 6 1 42 5 0 39 6 1 41 5 0 40 5 1 38 6 1 41 22 10 30 32 16 26 39 20 24 41 20 19 41 19 21 39 18 17 36 16 17 26 4 6 26 4 6 43 23 22 45 25 24 49 28 27 50 30 31 49 29 28 49 29 28 48 27 26 44 23 22 45 24 23 44 23 22 44 23 22 45 24 23 45 24 23 44 23 22 44 23 22 44 23 22 45 24 23 44 23 22 44 23 22 44 23 22 44 23 22 45 24 23 47 23 23 44 23 22 44 23 22 45 24 23 44 23 22 46 22 22 
0 12 24 1 13 25 0 12 24 1 13 25 1 13 25 0 12 24 1 13 25 2 14 26 3 13 25 2 12 24 0 12 24 3 11 22 2 10 21 4 10 24 6 9 26 13 9 26 20 7 24 21 5 32 27 2 42 26 1 43 22 0 46 23 1 48 20 1 46 22 0 47 18 1 45 19 1 43 19 1 43 20 1 46 19 0 45 18 1 46 18 1 45 16 1 44 17 0 44 17 0 44 16 1 44 16 1 44 16 1 44 16 1 42 17 2 45 14 1 44 14 0 40 13 1 41 12 0 40 14 2 40 13 1 39 13 1 37 15 0 39 13 1 37 13 1 39 13 1 41 11 0 42 9 1 42 9 1 42 9 1 42 8 1 42 7 0 41 7 2 42 7 0 42 7 0 42 7 0 41 7 0 41 7 0 41 6 0 38 22 8 31 30 14 27 37 18 24 44 20 20 40 19 16 37 15 18 36 14 17 26 5 10 25 5 7 42 21 20 44 24 23 48 28 27 49 31 31 48 28 27 49 29 28 47 26 25 44 23 22 43 22 21 45 24 23 45 24 23 44 23 22 45 24 23 43 22 21 44 23 22 43 22 21 44 23 22 45 24 23 44 23 22 44 23 22 45 24 23 45 24 23 45 24 23 43 23 22 45 24 23 45 24 23 45 24 23 44 23 22 
1 13 25 0 12 24 1 13 25 0 12 24 1 13 25 0 14 25 1 13 25 0 12 24 1 13 25 3 13 25 3 13 23 20 9 25 19 8 22 33 4 35 39 2 43 38 1 44 38 0 49 36 0 48 34 1 46 35 1 51 30 1 47 32 0 49 26 0 50 26 0 47 25 1 53 24 0 48 27 1 49 26 0 50 25 1 49 23 0 46 22 0 46 19 1 43 20 1 46 18 1 45 18 1 45 17 2 45 17 0 45 16 0 45 17 2 45 15 3 43 17 2 45 17 2 45 16 1 44 14 1 45 17 0 45 16 0 45 15 0 43 15 0 43 17 2 45 16 1 42 13 1 41 14 2 42 13 1 39 12 0 38 11 1 38 12 0 38 12 2 39 11 0 43 11 0 42 11 0 43 11 0 43 9 2 44 9 0 43 16 5 39 18 7 37 32 16 29 46 22 20 38 18 20 21 4 20 19 5 22 17 5 29 16 4 28 37 18 20 41 20 19 46 26 27 49 30 26 48 28 27 46 26 25 46 25 24 43 22 21 45 24 23 45 24 23 44 23 22 45 24 23 44 23 22 44 23 22 44 23 22 44 23 22 44 23 22 44 23 22 45 24 23 46 25 24 44 23 22 45 24 23 46 22 22 44 23 22 45 24 23 44 23 22 44 23 22 45 24 23 
1 13 25 1 13 25 0 12 24 1 13 25 1 13 25 1 13 25 1 13 25 0 11 23 1 13 25 3 13 25 3 13 23 18 10 25 19 8 22 30 4 33 38 1 42 39 2 46 38 2 50 38 2 50 37 1 49 36 0 48 31 2 50 31 2 50 27 0 51 27 1 49 25 1 49 27 0 51 27 1 49 27 1 49 25 1 49 23 1 48 23 1 47 18 0 44 19 1 43 17 0 44 18 1 45 16 1 44 17 0 44 16 1 44 17 2 45 16 1 44 16 1 44 16 1 44 16 1 44 16 1 44 17 0 44 16 0 45 14 1 44 15 3 43 16 1 44 16 1 44 14 0 40 13 1 41 13 1 39 13 3 40 12 0 38 11 1 38 11 1 36 10 2 41 11 0 42 8 1 43 9 0 43 9 0 45 9 2 44 16 6 40 20 6 39 34 13 30 46 22 20 38 18 19 21 4 20 19 5 22 18 4 29 18 4 27 37 18 22 40 18 20 47 27 26 48 30 28 48 28 27 45 25 24 46 25 24 43 22 21 45 24 23 43 22 21 45 24 23 43 22 21 45 24 23 44 23 22 44 23 22 44 23 22 44 23 22 45 24 23 43 22 21 44 23 22 44 23 22 45 24 23 45 24 23 45 24 23 43 22 21 46 22 22 43 22 21 44 23 22 
2 12 22 1 11 21 1 11 23 2 12 24 0 12 24 3 13 25 5 13 26 17 7 18 19 9 18 46 2 29 46 2 27 49 0 32 51 2 34 49 0 30 50 1 30 50 1 30 51 2 32 49 0 30 50 1 30 50 1 33 49 1 43 49 1 41 49 1 49 49 1 51 44 2 52 43 1 51 33 2 46 25 1 49 25 1 51 22 0 51 23 0 52 20 0 49 20 0 49 18 0 48 19 1 49 16 0 45 16 1 44 16 0 45 16 0 45 16 0 45 16 0 47 16 1 44 16 0 45 15 0 43 17 0 44 16 1 44 14 0 42 14 2 40 16 1 44 16 1 44 14 1 44 16 1 44 16 0 45 14 1 45 14 1 44 13 0 43 12 0 42 13 2 44 12 1 43 13 0 43 11 0 42 11 0 42 10 2 43 11 0 40 9 1 38 9 1 40 10 2 41 8 0 41 7 0 44 8 1 43 17 4 34 17 4 32 35 9 12 36 10 11 30 8 10 28 8 9 36 16 17 42 26 26 46 28 28 49 30 26 48 29 23 44 23 22 46 25 24 44 23 22 45 24 23 44 23 22 45 24 21 45 24 23 45 24 23 45 24 23 45 24 23 47 23 23 44 23 22 45 24 23 45 24 23 44 23 22 44 23 22 44 23 22 45 24 23 44 23 22 
2 12 22 2 12 22 0 12 26 0 13 22 2 11 26 0 12 24 4 12 23 19 9 20 19 9 18 47 3 30 46 2 29 50 1 31 49 0 32 51 0 31 48 2 30 50 1 30 48 0 29 50 1 30 50 1 31 49 0 32 51 0 43 48 0 42 49 1 51 48 0 48 43 1 49 41 2 49 31 1 51 26 0 52 28 2 50 23 1 50 23 0 52 20 0 49 20 0 49 19 2 47 19 2 47 18 1 46 17 2 45 14 1 45 17 2 43 17 1 46 16 0 45 13 0 43 15 0 43 16 1 44 16 1 42 16 1 44 17 2 45 15 0 43 18 1 45 17 1 46 13 0 43 15 0 43 17 1 46 13 0 44 14 1 45 12 0 42 14 1 44 14 1 44 12 1 43 13 0 43 12 1 41 12 0 40 11 0 42 12 1 41 8 0 37 9 1 40 9 1 40 11 0 40 7 0 44 7 0 42 17 4 34 17 4 32 34 9 13 36 10 11 29 9 10 27 9 9 35 17 15 42 26 26 44 26 26 49 29 28 47 27 26 47 23 23 44 23 22 45 24 23 45 24 23 43 22 21 43 22 21 45 24 23 44 23 22 44 23 22 45 21 21 44 22 24 45 24 23 43 23 22 46 22 22 45 24 23 44 23 22 46 22 22 43 23 22 43 22 21 
0 10 19 1 11 23 10 9 23 13 11 16 21 8 15 35 4 9 36 5 10 42 2 10 42 2 11 46 1 22 46 1 21 48 2 31 47 1 30 48 2 31 50 1 31 50 1 33 49 0 32 50 0 35 50 0 37 50 0 38 49 0 47 48 1 47 47 1 50 47 1 48 44 0 51 45 1 50 38 0 49 34 0 50 32 0 49 24 0 48 25 1 49 23 1 50 22 0 49 18 0 50 19 1 49 17 1 48 18 0 48 19 2 47 18 0 48 18 0 50 17 1 48 17 1 48 17 1 48 18 0 48 17 1 48 16 0 47 18 2 47 17 0 45 16 1 44 16 1 44 16 1 44 16 1 44 16 1 44 16 0 45 16 1 44 13 0 43 13 0 43 13 0 43 13 0 43 13 0 43 13 2 44 12 1 43 12 1 43 12 1 43 11 0 40 11 0 42 11 0 42 11 0 42 9 1 40 9 1 40 17 4 30 16 3 29 35 9 12 36 10 13 29 7 9 27 7 9 29 13 14 34 24 25 35 23 23 37 23 23 38 22 22 46 26 25 46 26 25 47 27 28 49 28 27 45 24 23 45 24 23 44 23 22 45 24 23 45 24 23 45 24 23 43 21 23 45 24 23 44 23 22 44 23 22 45 24 23 44 23 22 43 22 21 44 23 22 44 23 22 
1 11 21 1 11 23 10 9 17 19 8 16 29 6 12 44 2 4 46 1 6 49 2 12 49 2 10 47 0 20 46 1 21 47 1 29 47 1 30 48 2 31 49 0 32 51 2 34 51 2 34 50 0 35 51 1 39 49 1 39 49 1 49 50 1 48 47 1 50 48 2 49 45 1 50 46 3 49 40 0 50 38 2 50 32 0 49 27 1 49 27 1 49 25 1 51 23 1 48 17 1 48 19 0 48 18 0 50 18 0 48 19 1 51 18 2 49 18 0 48 18 0 50 18 0 48 17 1 48 16 0 49 17 1 48 17 1 48 17 1 46 17 1 46 17 2 45 14 1 44 16 1 44 16 0 45 16 0 45 15 0 41 16 1 44 13 0 43 14 1 44 14 1 44 14 1 44 13 0 43 12 0 42 13 0 43 13 0 43 13 0 43 12 1 43 12 1 43 11 0 42 12 1 41 11 0 40 11 1 38 17 3 29 16 2 28 35 9 12 36 10 9 29 7 9 26 6 7 29 14 17 32 22 23 32 22 23 32 20 22 36 22 22 48 27 26 47 27 26 49 28 27 48 28 27 45 24 21 43 22 21 44 23 22 44 23 22 43 23 22 43 22 21 44 23 22 44 23 22 44 23 22 44 23 22 44 23 22 44 23 22 45 24 23 44 23 22 45 24 23 
26 6 17 28 4 17 32 4 19 39 4 24 41 2 20 51 1 13 48 2 15 50 1 22 49 0 21 47 1 27 47 1 27 49 0 29 49 0 29 48 1 33 50 0 35 48 0 38 51 1 39 47 0 42 48 0 48 48 1 47 44 1 47 43 1 49 40 0 50 38 0 49 37 1 49 38 0 49 35 1 51 32 0 50 33 1 51 24 0 48 26 0 50 25 1 51 24 0 50 23 1 50 23 1 50 21 1 50 20 0 49 21 1 50 20 0 49 22 0 49 21 1 50 20 0 49 18 0 50 20 2 50 18 0 48 18 0 48 20 1 47 17 0 45 18 2 49 17 1 50 17 0 47 16 0 47 17 1 48 17 1 48 17 1 48 17 1 48 16 0 47 14 1 47 14 1 47 14 1 45 13 2 45 12 1 43 13 2 44 12 1 43 13 0 43 13 0 43 14 1 44 12 1 43 9 1 42 9 1 42 18 3 32 16 3 31 35 9 12 36 10 11 30 8 10 26 6 7 30 14 15 32 23 26 33 21 21 32 20 22 33 21 23 38 24 24 39 25 25 39 23 23 39 23 23 46 26 25 48 27 26 48 27 26 48 27 26 44 24 23 44 22 24 44 23 22 45 24 23 45 24 23 44 23 22 44 23 22 44 23 22 43 22 21 45 24 23 43 22 21 
39 4 11 45 2 12 46 1 21 49 0 29 49 0 26 48 1 17 49 0 21 51 2 31 50 1 30 48 2 30 47 0 32 48 0 28 47 1 29 50 1 31 50 0 37 48 0 38 48 1 43 47 0 44 48 0 50 47 1 48 42 0 48 40 1 48 36 0 50 35 1 51 33 1 50 33 1 50 30 0 50 29 1 49 30 2 51 24 0 48 25 1 49 24 0 48 24 0 48 23 1 50 23 1 50 20 0 51 23 1 50 23 1 50 24 0 50 23 1 48 23 1 50 20 0 49 20 0 49 19 1 49 18 0 48 17 0 45 18 1 46 18 1 46 17 1 50 17 1 48 17 1 48 17 1 50 17 1 48 17 1 46 17 1 48 17 1 50 17 1 48 14 0 49 14 1 47 14 1 45 14 1 47 13 0 44 13 0 44 13 0 43 14 1 44 12 1 44 12 1 43 11 0 43 9 0 43 10 2 43 17 4 34 16 3 33 36 9 14 35 9 10 30 5 8 26 6 7 30 14 15 33 21 23 32 20 22 31 21 19 31 21 22 34 22 26 33 21 23 35 20 23 32 20 20 47 29 29 50 29 28 48 27 26 47 27 26 45 24 23 44 22 24 43 23 22 44 23 22 44 23 22 44 23 22 44 23 22 44 23 22 44 23 22 44 23 22 44 23 22 
45 1 24 47 2 25 47 1 29 50 1 33 47 0 34 48 1 33 50 0 37 49 1 39 47 1 40 42 1 41 40 0 39 39 1 38 40 0 37 39 1 40 41 0 42 42 1 45 42 0 46 44 2 48 43 1 49 43 1 49 37 1 49 37 0 51 30 1 49 28 0 49 29 1 50 29 1 50 28 0 49 27 1 49 26 0 48 25 1 51 24 0 48 24 0 48 24 0 48 24 0 50 23 0 49 23 1 50 22 0 49 25 1 51 25 1 49 23 1 50 23 1 48 23 1 48 21 1 50 21 1 50 19 0 48 19 0 48 18 0 48 18 1 46 18 2 49 16 0 47 17 1 48 17 1 48 17 1 46 16 0 47 17 1 50 17 1 48 17 1 48 14 1 47 14 1 47 14 1 47 14 1 47 13 0 44 13 0 44 14 1 44 13 0 44 12 1 44 13 0 43 13 0 44 12 1 43 12 1 43 19 4 35 18 3 34 36 9 14 38 9 11 29 7 9 26 6 7 30 14 14 33 23 24 31 21 22 31 21 22 31 21 22 33 23 24 32 22 23 34 23 21 32 22 23 40 26 26 41 25 25 41 25 25 42 24 24 44 26 26 48 27 26 45 25 24 45 24 23 45 24 23 43 22 21 42 21 20 44 23 22 44 23 22 44 23 22 44 23 22 
48 1 35 49 2 36 51 1 38 50 2 42 48 1 43 47 0 49 48 0 50 48 0 48 49 1 51 34 0 50 34 2 49 32 0 49 33 1 48 32 0 50 32 0 47 33 1 50 35 1 51 35 2 49 38 0 49 36 0 48 28 2 50 28 0 49 26 0 48 26 0 50 27 1 49 27 1 48 25 1 49 24 2 49 24 0 48 24 0 48 26 0 48 26 0 47 24 0 50 24 0 50 24 0 50 27 1 48 24 0 50 24 0 48 24 0 48 23 1 48 23 1 48 23 1 48 22 0 46 20 0 49 23 1 50 23 1 50 17 0 45 16 0 47 16 0 45 17 1 46 18 1 45 16 1 44 16 0 47 16 0 49 17 1 50 17 1 48 17 1 48 14 1 47 15 2 48 15 1 50 13 1 47 13 0 46 13 0 44 12 1 43 11 0 43 9 1 42 12 1 43 12 1 44 13 0 43 14 1 44 21 4 36 18 3 34 36 9 14 36 10 11 28 7 6 26 6 7 29 15 15 34 24 25 33 21 23 31 19 21 32 20 24 31 21 22 32 22 21 34 24 25 33 23 24 33 21 23 31 21 20 33 21 21 37 23 23 42 26 26 49 30 26 48 28 27 45 24 23 46 25 24 44 23 22 44 23 22 44 23 22 44 23 22 43 22 21 43 22 21 
45 1 37 47 1 37 46 1 40 44 2 42 43 0 45 44 2 50 45 1 52 44 0 49 45 1 50 33 1 50 33 1 50 30 1 49 29 1 49 29 1 49 32 3 51 29 0 48 33 1 50 33 1 50 33 1 50 32 0 49 26 0 50 28 2 49 26 0 50 25 1 51 25 1 51 25 1 49 25 1 49 24 0 48 24 0 48 25 1 49 25 1 49 25 1 49 24 0 48 25 1 51 23 0 49 25 2 48 24 0 50 24 0 48 25 1 49 24 0 48 23 0 47 23 1 50 24 2 51 23 1 50 23 1 50 23 1 50 19 1 49 18 0 48 16 0 47 16 1 44 16 1 44 16 1 44 17 1 46 17 1 48 18 2 51 15 2 48 16 0 51 16 0 47 15 2 46 15 2 48 13 0 48 12 1 44 13 0 44 13 2 44 12 1 43 13 0 44 13 2 45 12 1 43 11 0 42 12 1 43 19 3 32 20 4 33 35 8 13 38 9 11 29 7 9 27 5 7 30 14 15 33 21 23 33 23 22 31 21 22 32 22 23 32 20 22 33 21 23 32 22 23 34 22 24 33 23 22 32 22 23 36 21 24 34 22 22 38 24 23 44 26 24 44 26 26 45 25 26 45 25 24 44 23 22 46 25 24 45 24 21 44 23 22 44 22 24 43 23 24 
34 1 48 33 0 45 31 2 50 31 2 50 34 1 48 35 1 51 35 1 51 37 1 49 37 1 49 28 2 50 28 0 49 22 0 49 20 0 49 21 1 50 20 0 49 23 1 50 22 0 49 23 1 50 21 1 50 20 0 49 22 0 49 23 1 50 23 1 48 23 1 50 23 1 50 21 1 52 22 0 47 23 0 47 25 1 53 24 0 48 25 1 51 25 1 49 26 0 48 24 0 50 24 0 50 23 1 50 27 1 49 25 1 49 25 1 49 24 0 48 25 1 51 24 0 50 25 1 51 23 1 50 23 1 50 23 1 48 18 0 48 18 1 46 17 1 46 14 1 44 17 2 45 13 0 44 14 1 45 16 0 45 17 1 48 16 0 47 16 0 49 16 0 45 13 0 44 14 1 45 14 1 45 12 1 44 12 0 42 12 0 42 13 2 44 13 0 44 12 0 42 13 0 43 12 1 44 13 0 44 19 4 33 20 4 33 35 8 13 36 10 11 31 6 9 26 6 7 30 14 15 32 22 23 33 21 23 32 22 23 33 23 24 33 23 24 35 23 25 30 19 23 30 20 21 33 23 22 34 24 25 33 21 23 33 23 24 33 21 21 31 21 22 36 22 22 40 24 24 40 24 24 49 29 28 48 28 27 45 23 25 44 23 22 46 22 22 44 22 25 
33 1 48 32 0 47 34 1 48 33 1 50 31 2 48 33 1 50 35 1 51 34 1 48 35 2 49 27 1 49 27 1 49 22 0 49 21 1 50 21 1 50 21 1 52 20 0 49 22 0 51 22 0 49 23 0 52 21 1 50 24 2 49 24 2 51 23 1 48 23 1 48 23 1 50 24 0 50 24 0 50 23 1 48 23 1 48 23 1 50 24 0 48 25 1 49 27 0 51 24 0 48 24 0 48 24 0 50 23 1 48 24 0 48 24 0 48 24 0 48 24 0 48 24 0 48 23 0 47 23 1 48 21 1 50 22 2 51 17 0 47 18 1 46 16 0 45 18 3 46 16 0 45 16 0 45 14 1 45 16 0 45 18 2 47 17 1 46 18 2 49 16 0 47 15 2 48 16 1 44 16 1 44 13 0 44 14 1 44 13 0 46 12 1 44 13 0 44 11 0 43 12 1 43 12 1 44 12 0 42 19 4 33 19 3 32 35 8 13 36 10 11 29 7 9 26 6 7 31 15 16 33 21 21 33 23 24 33 23 24 32 22 21 32 22 23 33 21 23 30 18 20 31 19 21 32 22 23 33 21 23 33 21 23 34 22 24 33 21 23 31 19 21 34 22 22 38 24 23 41 25 25 46 26 25 47 27 26 44 24 23 44 24 23 46 25 24 46 24 26 
29 1 50 29 1 50 30 0 50 28 0 49 29 1 50 25 1 49 24 0 48 25 1 49 27 1 49 22 0 47 24 2 49 19 1 49 20 0 49 20 0 49 20 0 49 19 0 48 21 1 50 20 0 49 21 1 50 22 0 49 22 0 49 24 0 50 24 0 50 26 0 48 26 0 50 26 0 50 25 1 51 24 0 48 23 0 54 24 0 50 23 1 50 19 0 48 21 1 50 18 0 48 19 1 49 19 1 53 19 1 49 20 0 49 23 0 49 25 1 51 23 1 50 24 2 51 23 1 50 20 0 49 19 1 53 19 1 49 14 1 45 17 0 47 18 0 48 19 0 48 19 2 47 17 2 45 16 0 45 16 1 44 17 1 46 17 1 48 17 1 48 16 0 49 17 1 50 17 1 48 17 1 46 14 1 47 13 0 44 14 1 47 16 0 49 13 0 46 12 1 44 11 2 47 11 0 42 12 0 40 19 2 34 18 3 32 34 9 13 36 10 11 29 7 9 26 6 7 30 14 15 34 22 24 33 23 24 33 23 24 33 23 24 29 17 17 29 19 18 17 8 11 15 9 11 20 8 10 22 8 8 29 17 19 34 22 24 33 21 23 32 20 24 32 20 22 33 23 24 33 23 24 31 21 22 31 21 22 45 27 25 46 26 25 48 28 27 49 28 25 
29 1 52 29 1 50 29 1 49 29 1 50 28 2 50 23 1 50 28 2 50 25 1 49 24 0 48 23 1 50 23 1 50 21 1 50 20 0 49 20 0 49 20 0 49 20 0 49 19 0 48 21 1 50 21 1 50 21 1 50 24 0 48 24 0 48 25 1 49 24 0 48 26 0 48 25 1 49 23 1 48 23 1 48 23 1 50 24 2 48 23 1 48 19 1 49 21 2 48 19 2 47 18 0 48 17 0 47 18 0 48 21 1 50 24 0 48 23 1 48 24 2 49 23 1 48 22 0 49 21 1 50 18 0 50 19 1 49 17 0 45 18 0 48 19 1 49 18 0 50 17 1 46 17 2 45 16 0 45 16 0 45 17 1 46 17 1 46 17 1 46 17 1 48 17 1 48 15 2 46 16 0 49 13 0 46 13 0 46 14 1 47 13 1 47 12 0 46 12 1 44 12 1 44 12 1 43 12 1 43 18 3 32 19 4 33 34 9 13 36 10 11 29 7 9 26 6 7 30 14 14 34 22 24 34 22 24 32 22 23 33 21 23 30 18 20 31 19 21 17 8 9 18 9 10 21 7 7 21 7 7 29 17 17 34 22 22 32 22 21 31 21 20 31 21 20 32 22 23 32 23 24 30 20 21 32 20 22 45 27 25 46 26 27 48 27 26 48 27 26 
28 1 44 27 1 46 27 1 48 22 0 47 23 1 50 23 1 50 20 3 48 22 0 49 22 0 49 23 0 49 24 0 50 22 0 49 23 1 48 22 0 47 21 0 46 25 1 49 25 1 49 25 1 49 24 0 48 27 1 49 25 1 49 25 1 49 24 0 48 22 0 49 19 1 49 19 1 51 19 1 49 19 1 51 19 1 49 20 0 49 19 1 49 18 0 48 19 1 49 17 0 47 17 1 48 18 0 48 17 1 50 18 0 50 18 0 48 18 0 48 18 0 48 19 1 49 18 0 48 18 0 48 17 0 44 17 0 45 17 1 46 16 1 44 16 1 44 16 1 44 17 1 46 14 1 44 16 1 44 16 0 45 17 1 48 17 1 48 18 0 48 16 0 47 17 1 48 14 0 51 14 0 49 13 1 47 13 0 48 13 1 47 13 1 47 13 1 47 13 1 47 12 0 46 12 0 46 12 1 44 19 4 35 19 4 33 34 9 13 37 11 12 29 7 9 26 6 7 30 14 15 32 22 23 33 21 23 34 24 25 32 20 22 28 16 16 27 15 15 37 13 11 38 13 9 28 9 11 25 9 10 22 12 13 22 13 14 28 18 19 32 22 23 33 23 24 33 23 24 33 21 23 33 21 21 33 21 23 34 24 23 34 24 25 34 22 22 35 20 23 
29 0 46 28 1 46 25 2 46 23 1 50 22 0 49 20 0 49 23 1 48 23 1 50 22 0 49 23 1 50 25 1 51 23 1 50 23 1 48 22 0 49 24 0 48 24 0 50 27 1 49 27 0 51 26 0 48 25 1 51 26 0 48 25 1 49 23 1 50 22 0 49 19 1 49 19 0 48 19 1 49 19 1 51 19 1 49 19 1 49 18 0 50 18 2 49 19 1 49 17 1 48 17 1 48 18 2 49 18 2 49 17 1 48 18 0 48 19 1 49 18 0 48 17 1 48 18 0 48 17 1 46 16 1 44 16 1 44 17 1 46 16 1 42 14 1 44 16 1 44 15 2 45 17 2 45 16 0 45 17 1 46 16 0 47 18 0 50 17 1 48 17 1 48 17 1 50 15 1 50 14 1 47 13 1 47 13 1 49 13 1 49 11 2 47 13 0 48 11 0 47 13 1 49 12 0 48 12 1 44 19 4 37 19 4 33 34 9 13 36 10 11 29 7 9 26 6 7 29 15 15 33 23 24 33 22 26 34 22 24 32 20 22 27 15 15 28 14 14 39 13 14 37 16 15 25 9 10 25 11 11 22 12 11 18 12 12 27 17 18 34 22 24 33 23 24 34 22 22 33 23 24 33 23 24 33 23 24 32 22 23 32 22 23 35 21 21 35 21 20 
34 1 48 32 0 47 27 1 49 22 0 46 24 0 48 20 0 49 20 1 47 20 0 49 20 0 51 22 0 49 21 1 50 24 0 48 25 1 49 27 1 49 26 0 48 29 1 50 27 1 49 27 1 49 27 1 49 28 0 49 27 1 48 27 1 49 25 1 49 25 1 49 31 5 50 31 6 48 29 6 50 28 5 49 26 4 50 21 2 48 20 0 49 19 1 49 19 1 49 18 0 50 18 0 50 17 1 50 19 1 49 18 0 48 17 0 45 18 1 46 19 2 47 18 1 46 18 1 46 18 1 45 18 2 49 17 1 48 18 2 47 17 1 46 16 0 45 16 1 44 16 1 44 16 1 44 16 0 45 16 0 45 16 0 45 18 0 48 16 0 49 18 2 49 18 2 51 18 2 49 18 2 49 15 1 50 18 0 48 15 1 50 15 1 50 15 1 50 13 1 49 13 1 47 13 1 47 14 1 45 20 5 36 19 4 33 34 9 13 35 11 11 29 7 9 26 6 8 32 13 17 32 22 21 32 22 23 33 23 24 32 22 23 29 19 20 29 17 19 21 9 9 22 10 10 28 10 10 30 10 11 32 14 14 35 15 16 34 18 21 33 23 24 34 22 24 34 24 23 33 21 23 32 23 24 34 22 22 33 23 24 34 24 25 32 22 23 34 24 25 
37 1 49 34 0 50 27 0 47 26 0 47 22 0 49 20 0 49 20 0 49 20 0 49 20 0 49 23 0 49 22 0 49 24 0 48 25 1 51 25 1 49 24 0 48 27 1 49 28 0 49 27 1 48 27 1 48 27 1 49 27 1 49 26 2 50 27 1 49 26 3 49 33 6 49 36 7 51 35 7 48 34 7 50 30 4 49 21 2 48 20 1 47 20 0 49 21 1 50 18 2 51 18 0 48 18 0 48 19 1 49 18 1 46 18 1 45 18 1 45 18 1 43 18 0 44 18 1 46 18 1 45 18 0 48 17 0 47 18 0 48 17 1 46 16 0 45 17 2 45 17 2 45 16 1 44 17 2 45 16 1 44 17 1 48 17 1 50 16 0 49 18 2 49 19 3 50 19 3 48 20 2 50 18 2 51 17 1 48 17 1 48 15 1 50 13 1 49 13 1 49 13 0 48 11 2 47 13 0 46 19 4 37 21 4 36 35 8 13 36 10 11 29 7 9 26 7 9 29 13 14 32 22 23 33 21 25 34 22 24 34 22 24 30 20 19 29 19 20 18 9 10 19 10 11 28 8 10 30 8 10 35 14 13 38 17 16 37 18 20 32 22 23 33 23 24 34 22 24 33 23 24 34 22 24 33 23 24 36 24 24 33 23 24 34 22 24 36 24 26 
27 1 48 28 0 49 25 2 48 26 0 48 26 0 48 24 0 48 24 1 47 28 0 49 24 0 48 28 2 50 28 2 49 30 2 51 33 1 48 32 0 47 32 0 49 30 1 47 28 0 49 28 2 50 28 2 50 28 0 49 26 0 47 27 1 49 27 1 49 27 1 49 26 3 49 28 2 49 28 2 49 26 2 50 25 3 50 22 0 49 21 1 50 22 0 49 20 0 49 21 2 48 22 0 49 22 0 47 20 0 49 20 1 46 21 0 45 20 1 46 19 2 44 18 1 45 19 0 45 17 0 44 17 0 44 18 1 46 16 0 45 17 1 46 16 1 44 16 1 44 15 0 43 16 1 44 16 1 44 15 0 43 16 0 47 17 1 48 17 1 50 17 1 48 17 1 48 17 1 50 17 1 48 14 2 50 14 0 49 14 0 49 12 0 48 12 0 48 12 0 46 12 0 46 13 1 47 12 1 44 19 4 33 19 4 33 33 8 12 36 10 11 29 7 9 25 5 4 30 14 14 32 22 23 33 23 22 33 23 22 30 21 22 31 21 22 32 20 22 24 14 15 22 13 14 25 9 10 23 7 8 26 12 12 29 15 14 31 19 19 33 23 24 32 22 23 33 23 24 34 22 24 32 22 23 32 20 22 32 13 15 29 13 14 31 19 21 31 21 22 
24 2 49 26 0 50 26 0 50 28 2 47 28 0 48 25 2 48 27 1 48 29 1 49 28 0 48 33 1 50 34 0 53 37 1 49 37 1 49 35 2 49 34 1 48 30 1 47 27 1 49 27 1 49 27 1 49 27 1 49 28 2 50 27 1 49 28 2 50 27 1 49 25 1 49 24 0 50 24 0 50 21 2 48 22 0 49 23 1 48 23 1 50 20 1 47 19 0 48 20 1 47 22 0 49 22 0 46 22 0 46 19 2 46 21 0 43 19 0 45 17 2 45 19 1 43 19 1 43 19 2 46 18 1 45 19 2 46 17 0 44 17 0 44 17 0 42 17 0 44 16 1 44 16 1 44 14 2 42 16 0 45 17 1 48 17 1 48 17 1 50 17 1 50 15 1 50 15 2 48 15 1 50 13 1 49 13 0 48 12 0 48 9 0 47 10 1 48 10 1 46 10 1 46 11 0 43 13 0 43 19 4 33 19 4 33 36 9 14 36 10 11 28 6 8 26 6 7 30 14 17 32 22 23 32 22 21 32 22 23 32 22 23 32 22 23 31 21 22 24 14 15 24 15 16 22 7 10 20 5 8 22 12 13 22 13 14 28 18 19 33 23 24 33 23 24 33 23 24 34 22 24 30 21 24 31 21 22 29 9 10 28 8 9 29 17 17 31 19 21 
33 1 48 30 1 47 31 0 48 29 0 46 29 2 47 30 1 45 30 1 47 32 0 47 33 1 48 37 1 47 38 0 47 39 1 48 40 1 48 37 1 47 34 1 46 33 0 47 30 1 47 30 1 47 28 0 45 33 1 48 31 2 48 31 2 50 28 0 51 28 2 50 24 0 50 24 0 48 25 1 49 25 1 49 24 0 48 27 1 48 28 0 49 27 1 49 26 0 48 28 2 49 27 1 49 28 0 48 27 0 47 23 1 47 20 2 44 19 0 45 19 0 45 20 1 46 20 2 44 18 1 45 16 1 44 17 0 44 17 0 44 17 0 44 16 1 44 16 1 44 16 1 44 15 0 43 16 1 44 16 0 45 17 1 46 15 2 46 14 1 47 16 0 47 17 1 46 14 1 47 15 2 48 14 1 47 15 1 50 13 1 49 10 1 48 10 1 48 10 1 48 10 1 48 11 0 45 13 0 43 19 4 35 18 3 34 34 9 13 36 10 11 28 6 8 26 6 8 30 14 14 32 22 23 32 21 25 32 22 21 32 22 23 31 20 24 32 20 22 29 17 17 29 17 17 27 12 15 25 13 15 25 15 14 26 17 18 31 21 22 34 22 24 32 22 23 34 22 24 33 23 24 30 21 24 31 22 23 28 8 9 27 7 8 31 12 14 31 15 16 
43 0 43 42 1 41 38 1 42 39 0 44 37 0 43 36 1 41 37 0 43 39 0 44 43 0 45 43 0 43 43 0 43 43 0 43 44 1 44 42 1 43 38 1 44 38 1 44 35 0 42 37 0 44 36 0 44 36 0 44 37 1 49 36 0 48 30 0 50 30 1 49 28 0 48 28 0 49 28 0 49 29 1 49 29 1 49 33 1 48 33 0 47 33 1 50 33 1 50 34 0 50 34 0 50 34 1 48 36 0 50 28 0 48 23 1 48 23 0 52 23 1 50 22 3 49 19 2 46 16 0 45 16 1 44 16 1 44 16 1 44 17 2 45 16 0 45 16 1 44 15 0 43 14 1 44 16 1 44 16 1 44 16 1 44 16 1 42 15 0 43 17 2 43 13 1 41 14 0 49 13 1 49 13 1 47 13 1 47 11 2 47 11 2 47 10 1 48 11 2 49 10 1 48 9 0 43 10 1 44 18 3 34 16 3 31 34 9 13 36 12 12 27 7 8 26 6 7 29 15 15 32 22 23 31 21 22 30 20 21 29 19 20 30 20 19 29 19 20 32 22 23 32 22 21 32 22 23 33 21 23 32 22 21 33 21 23 34 22 24 34 24 25 33 23 24 34 22 24 32 22 23 31 21 22 31 22 23 27 7 8 27 7 8 28 8 9 28 8 9 
43 0 43 42 1 43 40 1 45 39 0 45 38 1 44 37 0 43 37 0 43 38 1 45 38 1 44 43 0 45 45 0 41 42 1 45 42 1 43 41 0 44 40 1 45 39 0 44 37 0 43 37 0 43 38 1 44 37 0 43 39 0 49 38 0 47 36 0 46 37 0 51 34 1 48 33 1 50 34 0 50 34 2 49 35 2 49 36 0 48 37 1 49 35 2 49 37 1 49 33 1 50 34 0 50 34 2 51 33 1 50 27 1 49 23 1 48 23 1 48 20 1 47 20 1 46 17 2 45 18 1 45 17 2 45 16 1 44 14 1 44 16 1 44 15 0 43 16 1 44 13 0 43 14 1 44 16 1 44 16 1 44 14 0 42 17 2 45 15 0 43 14 1 44 14 1 45 14 0 49 14 0 49 13 1 49 14 0 49 14 2 50 12 3 48 13 1 49 10 1 48 9 0 47 10 1 48 13 2 45 14 3 37 16 2 37 31 10 19 32 9 15 27 7 9 26 6 8 28 11 17 29 19 27 30 19 25 31 21 22 30 20 19 29 19 20 29 19 20 33 23 24 32 22 23 32 22 23 32 22 23 33 23 24 32 22 23 32 22 23 33 23 24 33 23 24 33 23 24 32 22 23 30 21 22 31 21 22 28 8 9 28 8 9 28 8 9 29 9 10 
41 1 38 40 0 39 41 0 42 39 0 44 39 1 42 37 0 44 39 0 44 34 1 44 33 0 43 39 0 44 38 0 43 36 1 43 38 0 43 43 2 46 41 0 42 42 1 45 43 0 43 44 1 44 43 0 43 44 1 44 46 1 44 43 2 46 45 2 47 45 2 48 44 1 47 46 0 47 47 1 47 49 2 48 48 2 49 45 0 46 44 1 47 44 1 47 42 0 48 30 1 49 31 2 50 26 0 48 23 0 47 23 1 48 21 1 50 20 1 47 19 0 45 17 0 44 18 1 46 18 1 46 17 1 46 16 1 44 17 2 45 16 1 44 14 1 44 14 1 44 14 1 44 15 0 43 13 0 43 16 1 44 15 0 43 16 1 44 16 1 44 13 0 48 13 0 46 13 1 49 12 0 48 13 1 47 15 2 48 13 1 47 11 2 47 11 2 47 10 1 48 11 2 49 9 0 45 8 0 47 9 0 43 8 1 43 21 5 32 21 6 29 25 5 17 24 5 11 23 9 22 21 12 33 27 16 30 33 22 26 35 20 23 28 17 21 30 18 20 33 21 21 33 23 24 32 22 23 34 22 24 32 22 23 34 24 25 33 23 24 33 23 24 34 24 25 33 23 24 32 22 23 29 20 21 30 21 22 32 10 12 32 10 12 29 9 10 29 9 10 
41 1 36 42 1 41 41 0 42 41 0 44 39 1 42 39 2 45 38 1 45 35 0 42 36 0 44 37 0 44 38 1 44 37 0 43 38 0 43 39 1 42 42 1 43 42 1 43 45 0 41 42 0 42 42 1 43 43 1 41 44 1 47 44 1 44 46 0 46 47 1 48 46 0 46 45 2 47 47 1 48 49 1 49 48 1 47 45 2 48 45 2 47 43 1 47 44 2 48 32 0 49 31 1 51 26 0 52 24 0 48 22 0 49 23 1 50 20 2 44 22 0 46 19 0 45 16 0 45 19 2 47 17 0 44 17 2 45 16 1 44 17 2 45 16 0 45 16 0 45 16 1 44 16 0 45 14 1 44 16 1 44 16 1 44 14 1 44 13 0 43 14 0 49 14 0 49 13 1 47 13 1 47 14 2 48 14 2 48 11 2 49 11 2 49 10 1 48 9 0 49 10 1 48 8 1 45 8 1 45 9 0 43 8 0 42 21 5 31 23 5 27 25 5 16 24 5 11 20 10 21 18 13 33 27 16 30 33 23 21 34 22 22 29 19 20 30 18 20 33 22 26 32 22 21 34 24 25 34 22 22 32 24 22 33 23 22 34 22 24 34 22 24 32 22 23 32 22 23 33 23 24 30 21 22 29 20 21 30 10 11 32 10 12 30 10 11 30 10 11 
24 1 47 24 1 47 22 0 46 19 0 45 20 2 44 21 0 43 22 1 44 21 0 43 21 0 43 22 1 44 22 1 44 26 0 45 26 1 43 25 0 40 22 0 38 28 2 41 32 0 41 35 0 42 38 1 44 37 0 43 39 0 45 39 1 42 42 0 46 43 0 45 43 0 45 42 1 45 42 0 46 42 0 48 35 2 33 18 2 12 20 8 10 25 18 2 24 18 2 20 17 2 23 15 4 20 6 23 19 4 25 27 2 44 29 1 50 24 2 38 19 3 29 17 4 21 12 6 6 12 6 10 12 5 13 11 3 14 13 1 39 12 2 39 16 1 40 15 0 41 15 0 43 13 0 43 12 0 42 13 0 43 13 0 43 13 2 44 13 0 43 13 1 47 13 1 47 11 2 47 12 3 50 12 3 48 11 3 50 9 3 49 7 1 47 7 1 49 8 2 50 6 0 46 7 1 47 7 1 45 6 1 42 5 0 41 6 0 44 7 2 43 6 0 40 6 1 41 7 0 41 6 0 36 8 2 36 7 3 38 14 5 34 27 17 26 26 16 25 32 22 23 34 24 25 32 22 23 32 22 23 33 23 24 32 21 25 33 21 23 32 22 23 34 22 22 32 22 23 33 23 24 30 21 22 30 21 24 29 9 10 29 7 9 31 9 11 34 9 12 
26 0 47 23 0 46 20 1 46 21 0 45 21 0 43 21 0 43 22 1 44 22 1 44 22 1 44 22 0 43 23 0 42 25 0 42 24 2 41 23 1 40 22 0 38 27 1 40 31 0 41 34 2 43 38 1 44 38 1 44 39 0 44 39 0 44 43 0 46 44 1 46 42 0 46 42 0 46 42 0 46 43 0 46 33 2 33 19 3 13 20 7 14 26 19 3 25 18 2 22 16 4 24 16 5 19 5 22 21 3 25 26 1 41 28 2 50 22 2 37 18 4 27 16 3 20 13 7 9 14 5 8 11 3 14 11 4 12 16 1 40 13 1 39 15 0 41 13 1 39 13 0 44 13 0 43 14 1 44 13 1 41 13 0 43 13 1 47 14 1 44 13 1 47 13 1 49 12 3 48 13 1 47 11 2 49 11 2 49 9 1 48 9 1 50 9 1 50 7 1 49 7 1 49 8 1 45 6 1 42 6 0 44 6 0 46 6 1 42 6 1 42 6 0 40 6 2 39 7 1 37 7 1 37 8 2 36 8 3 35 12 8 35 25 18 26 27 17 26 34 24 25 34 24 25 32 22 23 32 22 23 32 22 23 32 22 21 32 22 21 32 22 23 33 21 23 32 22 23 32 22 23 30 21 22 30 21 22 29 9 10 30 8 10 30 8 10 34 10 10 
19 1 49 17 1 46 17 1 46 18 1 45 18 1 43 19 0 46 18 1 45 18 0 42 19 1 43 19 0 45 22 1 44 19 1 41 21 0 41 19 1 39 19 1 39 19 1 41 21 0 41 20 0 38 18 1 37 21 0 37 24 2 41 26 1 41 28 1 42 30 2 43 32 0 44 33 0 45 23 3 28 19 3 16 24 13 19 33 28 24 35 32 25 40 38 26 41 38 23 46 37 8 44 38 6 25 17 6 24 16 5 15 5 13 13 3 12 24 15 10 35 27 8 38 30 11 39 34 14 40 34 12 38 31 5 40 29 7 13 7 9 13 7 9 15 1 34 13 1 37 13 1 37 15 0 39 13 1 39 12 0 36 12 0 36 12 1 41 12 1 43 12 1 44 12 1 43 9 2 46 12 1 44 11 2 47 11 4 48 11 4 48 11 2 47 9 2 46 9 2 46 7 1 45 7 0 44 7 0 44 7 0 40 6 0 44 6 0 44 6 0 44 5 0 41 6 0 40 6 1 41 6 0 36 7 1 35 7 1 37 7 1 37 9 3 29 8 4 29 15 6 35 14 5 32 30 19 27 33 21 25 32 21 25 33 23 24 32 22 23 34 24 25 33 21 23 33 21 21 33 23 24 30 21 22 29 20 21 28 8 10 29 7 9 30 8 10 30 8 10 
18 0 48 17 1 48 17 1 48 17 1 46 17 1 46 19 0 45 18 1 43 19 1 41 19 1 43 20 1 46 19 0 45 18 1 43 17 1 40 18 2 39 18 0 38 19 1 41 18 0 42 18 0 38 19 2 38 17 0 37 22 0 39 23 1 40 27 0 43 28 1 44 32 1 45 32 0 47 22 3 25 15 4 12 24 15 18 35 32 27 38 35 28 43 40 31 43 41 28 48 39 6 46 40 6 26 19 1 23 15 2 14 9 6 11 5 9 25 17 6 37 30 4 40 34 8 44 38 12 43 36 10 41 34 6 41 34 5 13 8 5 11 7 4 13 2 34 13 1 37 12 0 36 14 0 36 13 1 37 12 0 36 12 0 38 13 1 41 11 0 42 9 1 42 11 0 43 9 2 44 10 1 46 11 4 48 11 4 48 11 4 48 13 4 49 10 3 47 8 1 43 7 0 42 7 0 42 7 2 43 6 0 44 6 1 42 6 1 42 4 2 42 5 0 41 6 1 41 5 1 38 6 2 37 6 0 38 8 0 37 6 0 34 7 0 31 6 0 28 13 4 35 11 4 35 29 19 27 31 20 24 32 21 25 34 22 22 33 23 24 33 23 24 32 22 23 33 21 23 33 23 24 30 21 22 31 22 23 29 9 10 29 7 9 29 7 10 29 7 10 
18 0 48 18 0 48 19 1 49 18 0 48 17 1 48 17 1 46 17 0 45 18 1 46 15 2 48 17 0 47 17 1 48 18 1 46 18 1 45 18 1 43 19 1 41 18 2 41 16 0 37 16 0 37 17 1 38 17 1 38 21 0 43 19 1 43 24 1 47 22 0 47 24 1 45 26 1 43 24 10 27 22 16 16 24 19 16 25 26 21 31 30 25 46 43 34 45 43 31 46 39 10 47 40 11 39 32 6 38 30 7 36 28 7 33 26 8 38 31 13 40 37 18 35 33 18 34 31 22 38 36 23 45 42 27 45 42 25 28 21 5 27 22 3 16 5 22 14 1 27 12 1 31 12 1 33 12 0 36 13 1 39 14 2 38 12 0 36 12 1 43 9 0 43 10 1 44 9 0 47 10 1 46 9 2 46 9 2 44 8 1 43 7 0 42 7 2 43 7 0 44 8 0 42 5 3 43 4 2 42 7 0 42 4 1 44 6 1 41 6 1 41 5 0 40 7 1 37 6 2 37 5 0 40 5 1 38 4 0 37 5 1 34 5 1 28 4 1 30 8 2 36 8 1 35 13 7 33 13 9 32 17 10 28 22 13 32 27 17 26 34 22 24 32 22 23 34 22 24 32 22 23 30 21 22 30 21 22 31 11 13 32 10 13 31 9 11 31 9 11 
19 1 49 19 1 49 20 2 50 19 1 49 18 0 48 17 1 46 17 0 49 17 1 48 18 2 51 17 1 48 17 1 50 19 0 46 19 0 45 19 0 45 22 1 44 18 2 39 15 1 37 17 1 37 16 2 37 16 2 38 18 2 41 18 0 42 19 2 47 19 1 49 23 1 47 23 0 44 24 16 27 25 25 13 25 22 15 21 21 21 27 28 23 45 47 36 46 44 32 46 39 11 47 40 14 47 41 9 48 39 6 49 38 8 47 41 9 45 39 17 42 40 25 35 35 25 29 28 24 32 33 28 44 45 37 45 42 37 38 30 7 37 30 2 14 6 17 12 3 22 12 2 27 12 1 33 15 1 36 14 0 40 12 0 38 12 0 42 13 1 39 9 0 43 9 0 45 9 0 45 8 0 47 8 1 45 8 1 43 8 1 43 7 0 42 6 1 42 6 0 44 6 1 42 4 2 42 2 1 43 4 1 44 2 0 40 6 1 41 6 1 41 5 1 38 5 1 36 5 1 36 4 0 35 5 1 38 5 1 38 5 1 36 5 1 28 5 1 28 6 0 38 6 2 37 5 0 40 3 1 38 10 7 38 14 8 36 24 16 29 33 23 22 32 22 23 31 20 24 31 22 23 30 21 22 31 23 21 32 12 13 32 10 12 32 10 12 32 10 12 
18 0 48 18 0 48 17 1 48 18 2 49 17 1 48 18 1 45 17 2 45 17 0 47 16 0 47 18 1 46 17 2 45 20 2 44 19 0 45 20 1 46 19 1 43 18 2 41 15 1 36 15 1 36 16 0 36 16 2 38 18 1 45 18 0 42 17 0 45 17 1 46 19 2 46 18 1 43 24 16 27 29 26 19 24 23 18 16 16 16 24 24 22 46 46 38 45 45 33 49 40 11 47 40 11 49 40 9 49 40 7 47 38 5 48 39 6 47 40 21 45 42 33 36 36 26 23 23 21 29 30 25 44 45 37 45 47 36 39 33 7 40 33 7 27 20 12 26 17 12 25 14 18 24 13 17 19 9 20 15 4 20 13 3 27 12 1 33 12 1 35 11 0 42 10 1 44 10 1 48 9 0 47 8 0 47 7 0 44 7 1 45 7 1 47 6 0 44 4 2 42 5 0 41 4 2 42 5 0 43 6 0 44 3 0 43 5 0 41 6 1 42 7 2 42 5 0 40 6 0 36 7 1 37 5 1 36 5 1 34 3 0 32 5 1 28 6 0 26 5 0 32 6 1 33 6 0 36 2 0 37 7 3 36 9 3 39 13 9 36 18 13 33 23 15 30 28 18 26 27 17 25 30 22 20 30 22 20 32 10 12 32 10 12 31 9 11 32 10 12 
17 1 48 17 1 48 18 0 48 17 1 46 17 0 45 18 1 45 17 0 45 19 0 45 17 0 44 19 1 43 22 0 43 19 1 43 19 1 43 19 0 45 19 0 45 18 2 41 15 1 37 13 1 37 13 1 39 13 1 39 17 0 42 18 1 43 17 0 44 14 2 42 16 1 44 16 1 42 24 18 28 29 29 19 24 23 19 12 14 13 20 20 20 44 45 37 45 45 33 48 39 8 49 40 9 49 40 7 48 39 8 48 37 5 49 39 4 48 43 23 45 46 40 36 35 30 18 18 16 25 25 23 46 46 38 46 46 38 42 35 7 42 35 9 42 32 5 39 32 6 36 28 7 34 26 5 26 18 5 17 10 4 14 7 14 12 2 29 13 3 30 12 1 43 12 1 43 9 1 48 10 1 46 8 0 47 7 1 47 6 0 48 6 0 48 6 0 44 5 0 43 5 0 41 6 1 42 6 0 44 3 0 43 3 0 43 6 0 44 6 0 44 5 0 41 5 0 40 5 1 36 7 1 39 6 0 34 6 0 36 6 3 34 5 1 24 5 1 24 4 2 24 4 0 25 4 1 32 4 0 35 3 1 40 2 1 41 3 1 40 3 2 42 11 6 36 21 13 28 22 14 27 31 23 21 31 23 21 30 9 6 31 10 9 32 10 12 32 10 12 
18 0 48 16 0 49 17 0 47 17 1 46 18 1 45 17 1 46 15 0 43 17 2 43 17 0 44 18 1 45 17 0 42 20 2 44 20 2 42 19 0 45 19 0 45 17 1 40 15 0 39 15 0 39 15 0 39 16 1 40 17 0 44 17 2 45 15 0 43 16 1 44 16 1 44 15 2 45 20 14 26 23 20 15 21 20 15 22 22 20 27 26 21 43 44 30 46 43 26 49 40 7 48 39 8 49 40 9 48 39 8 49 38 6 48 39 8 48 43 23 46 46 38 36 35 30 16 16 16 24 24 22 46 46 38 46 46 38 43 36 8 42 35 9 43 36 7 43 36 10 40 33 5 38 33 4 32 26 4 27 21 5 26 17 12 21 11 20 18 7 21 12 0 36 12 0 36 9 0 49 9 0 47 7 0 46 6 3 48 7 1 49 6 0 48 6 0 46 5 0 43 4 2 42 5 0 43 7 1 45 6 1 42 4 2 42 7 2 43 6 1 42 5 0 41 5 0 40 6 0 38 7 1 37 7 1 37 7 1 35 5 0 33 4 0 27 5 1 28 4 0 25 4 1 28 3 2 34 4 1 32 2 0 37 2 1 41 3 1 41 3 2 42 8 4 39 12 8 33 14 9 31 21 15 27 21 15 27 22 6 17 22 6 17 28 9 15 32 10 12 
15 0 44 14 3 46 16 0 45 16 0 45 17 0 44 16 1 44 16 1 44 17 0 44 18 1 46 17 0 44 18 1 43 19 0 45 17 0 44 18 0 45 21 1 50 19 0 45 18 1 45 17 0 44 17 0 44 17 0 44 17 0 44 16 1 42 17 1 46 15 0 43 16 0 45 16 0 47 13 5 20 11 6 3 22 17 13 38 38 28 40 38 26 45 39 17 45 37 16 49 40 9 50 39 7 48 40 4 48 39 6 49 40 7 49 41 5 48 41 23 45 47 36 34 33 28 14 14 12 22 22 20 43 44 38 44 45 37 45 36 5 46 37 6 48 39 8 49 40 9 46 40 6 47 41 7 47 41 7 47 41 7 42 35 6 31 24 5 28 20 7 13 4 25 11 3 26 8 2 50 9 1 48 8 0 47 9 1 48 7 1 49 3 2 46 6 0 46 5 2 47 4 1 46 7 2 43 6 1 42 5 0 41 6 1 42 7 0 44 7 0 42 6 1 42 5 0 41 4 2 41 6 2 35 6 0 36 6 0 34 7 2 34 7 1 35 6 0 34 2 0 22 3 0 21 3 1 25 3 1 25 2 1 35 1 1 39 2 1 43 3 0 43 2 1 43 2 1 43 2 1 41 4 3 34 4 3 34 6 1 33 6 3 34 22 6 17 27 8 12 
17 1 46 17 1 48 17 1 46 17 2 45 17 2 45 17 0 44 17 2 45 17 0 45 18 1 46 18 1 45 18 1 45 20 1 46 20 1 46 19 0 46 20 1 47 19 0 46 18 1 45 17 2 45 16 1 44 17 0 44 17 2 45 17 1 46 16 0 45 16 0 45 16 0 47 17 1 48 15 4 21 11 5 5 22 17 13 39 37 25 40 38 23 44 38 16 46 39 13 49 40 7 49 40 7 49 40 7 49 40 7 49 40 9 48 39 6 48 42 20 46 44 32 34 34 24 16 16 14 23 24 19 44 44 36 43 43 35 47 38 7 47 38 7 46 40 8 47 38 7 49 40 7 49 40 9 48 39 6 49 40 7 42 35 7 32 26 4 32 23 8 13 4 23 13 4 21 9 2 44 9 0 45 8 2 48 7 1 47 7 1 47 6 0 48 6 0 46 7 1 47 4 1 44 6 1 42 6 1 42 6 1 42 4 2 42 6 1 42 6 1 42 7 0 42 7 0 42 7 0 41 7 1 39 6 0 38 6 0 36 6 0 36 6 0 36 6 0 34 6 1 24 4 0 23 5 1 26 4 0 25 1 0 32 3 1 38 3 1 40 1 0 40 1 1 39 2 0 40 2 2 40 4 3 35 6 3 34 5 2 33 5 2 33 18 6 20 25 8 16 
18 0 48 19 2 47 18 1 46 18 1 45 17 1 46 16 1 42 17 0 44 19 0 48 20 1 47 24 2 51 22 0 49 24 0 48 23 1 48 22 0 47 20 0 49 18 1 46 17 2 45 16 1 44 16 1 44 17 2 45 17 1 48 17 1 50 17 1 48 16 0 45 16 1 44 16 1 44 13 3 30 12 3 24 25 15 16 46 37 6 47 38 7 48 39 6 48 39 8 48 39 6 46 40 4 49 40 9 49 40 7 48 39 6 49 40 7 47 41 9 47 40 11 47 40 12 43 37 21 43 38 19 44 37 11 44 38 12 49 38 6 49 38 6 43 32 2 43 32 2 46 35 5 49 38 6 48 40 4 48 39 6 48 39 8 48 40 4 45 34 4 26 17 2 24 17 1 10 5 11 9 4 8 9 2 35 8 1 45 7 2 43 4 1 46 6 0 48 6 0 44 6 0 46 8 1 45 8 1 45 8 1 43 7 0 42 7 0 42 9 1 42 9 1 42 9 0 43 8 1 42 7 0 42 7 0 41 8 1 42 7 1 39 7 1 37 7 1 37 5 1 24 6 0 26 4 0 23 5 1 24 4 0 23 4 0 23 3 1 23 3 0 22 4 0 27 1 0 34 3 2 36 1 0 34 1 0 34 2 2 36 2 1 35 3 3 39 3 1 38 
19 2 47 17 1 46 17 1 48 17 0 44 15 0 44 17 0 44 17 2 45 21 0 45 19 2 47 23 1 48 23 1 48 24 0 48 22 0 49 20 1 47 20 1 47 19 2 47 18 1 45 16 1 42 15 0 44 17 0 45 17 1 48 17 1 46 17 1 46 17 1 48 17 1 46 16 1 44 15 2 30 12 3 22 25 15 16 46 37 6 48 37 7 48 39 8 48 39 8 49 40 7 49 40 7 49 40 7 49 40 7 49 40 7 49 40 7 49 40 9 48 39 10 45 39 15 45 40 21 43 38 18 45 38 10 45 38 12 48 37 5 47 38 7 45 31 2 43 32 2 47 36 4 48 39 6 47 38 7 49 38 6 48 39 6 48 39 6 45 34 4 22 16 0 24 16 3 8 6 9 11 5 9 8 2 38 8 1 43 7 1 45 6 0 48 8 1 45 6 0 46 7 0 46 7 0 44 7 0 44 8 1 43 8 1 43 7 0 41 8 1 42 8 1 43 7 0 41 7 0 42 7 1 39 6 0 40 6 0 40 7 1 39 8 0 37 7 0 36 4 0 25 5 1 26 4 1 22 5 1 24 5 1 24 5 2 23 3 1 23 3 1 23 3 0 27 4 0 33 1 0 31 3 2 36 2 1 35 3 2 34 4 0 35 2 0 39 3 2 34 
15 0 43 16 1 44 16 1 44 16 1 42 17 2 43 17 0 44 18 1 43 17 0 44 17 0 44 18 1 45 16 1 44 17 0 47 16 0 47 18 2 49 17 1 48 17 1 48 14 1 45 18 2 49 17 1 48 16 0 47 17 1 48 16 0 47 16 0 47 16 0 47 17 2 45 16 0 45 15 1 34 14 2 26 23 12 20 39 27 1 41 30 2 50 35 2 49 36 1 50 37 3 50 37 3 47 38 5 48 37 5 48 38 3 48 37 5 47 38 5 48 37 5 48 37 5 49 36 2 50 37 3 49 36 2 49 36 2 35 23 0 34 23 1 39 27 3 39 27 3 45 32 0 49 34 1 49 34 1 49 34 1 49 35 0 48 33 0 46 33 0 40 29 1 37 25 0 45 39 7 46 39 10 24 18 4 15 11 2 12 6 32 13 4 49 12 5 49 14 6 47 13 4 49 10 1 48 10 1 48 10 1 46 9 1 48 10 1 48 9 2 46 10 1 48 9 1 48 8 0 47 9 0 45 9 0 45 9 1 42 9 0 43 9 1 42 9 1 40 7 0 34 8 1 34 4 0 25 6 1 23 6 1 24 6 1 24 7 2 25 5 1 24 4 1 28 2 0 37 3 2 36 2 1 35 1 1 37 3 2 36 2 0 37 2 2 40 0 1 39 
17 2 45 18 1 45 14 1 44 18 1 45 17 0 42 17 0 44 18 1 45 18 1 43 18 1 45 18 1 43 18 1 43 17 0 45 17 1 46 17 1 46 17 1 48 17 1 48 17 1 48 17 1 48 17 1 48 17 1 48 16 0 45 17 1 48 14 1 47 17 1 48 16 0 47 15 2 46 16 2 37 15 2 28 24 11 20 39 28 0 42 31 3 48 35 0 49 36 2 50 37 3 50 37 3 48 37 5 49 38 6 48 37 5 47 36 4 47 36 4 50 37 5 49 36 4 47 37 2 47 36 4 47 37 2 49 36 2 34 24 0 35 24 2 37 27 2 39 27 1 45 32 0 49 34 1 49 34 1 48 33 0 48 33 2 49 34 1 47 34 0 39 27 1 38 29 0 45 40 8 44 41 8 24 18 4 15 10 4 13 5 29 12 3 46 13 4 47 13 4 47 15 4 47 10 3 47 10 1 46 10 1 48 9 0 47 9 0 45 9 0 45 8 0 47 8 1 45 9 0 43 9 0 45 9 1 42 10 2 43 9 0 43 9 1 40 8 0 41 8 0 37 8 0 37 9 1 25 5 1 24 6 1 24 4 0 25 4 0 23 4 0 23 4 1 28 1 0 34 2 1 35 2 1 35 2 1 35 1 0 34 2 0 37 2 2 38 3 1 40 
16 1 44 14 1 44 13 0 43 16 1 44 16 1 42 16 1 44 17 2 45 16 1 44 16 1 42 16 1 42 17 2 45 13 0 43 16 1 44 16 0 45 16 0 45 16 0 45 16 0 45 16 0 45 16 0 45 16 1 44 17 1 48 16 0 47 15 2 46 16 0 47 16 0 47 14 1 45 13 0 43 14 2 42 18 5 33 20 8 22 22 9 16 23 14 5 23 17 5 28 21 3 29 22 6 31 23 2 31 25 1 32 24 1 35 25 0 33 25 2 33 22 2 31 25 1 32 24 5 32 24 3 38 26 2 37 25 1 43 29 0 41 30 0 46 33 1 45 32 0 48 33 2 47 32 1 48 33 0 47 32 1 45 32 0 46 33 1 46 33 1 41 27 0 39 30 1 44 38 6 48 39 8 39 27 3 37 27 0 21 13 11 10 4 18 10 4 32 11 2 45 10 1 46 8 1 45 10 1 46 11 2 49 9 0 45 11 0 43 12 1 44 11 0 43 12 1 44 10 1 46 10 1 44 10 2 43 9 0 43 11 0 42 11 1 38 11 0 40 8 1 35 10 0 37 9 0 33 8 1 35 11 0 32 6 0 26 5 1 26 5 1 24 4 2 26 2 2 30 4 1 30 2 0 37 1 0 34 1 1 37 1 1 39 2 0 37 2 0 37 
16 1 44 16 1 44 16 1 44 17 2 45 17 2 45 16 1 44 15 0 43 16 1 44 15 0 43 15 0 43 16 1 44 16 1 44 16 0 45 16 1 44 15 0 43 17 2 45 16 1 44 16 1 44 16 1 44 16 0 45 13 0 46 14 1 47 16 0 49 16 0 49 16 0 47 16 0 47 16 0 47 16 0 49 14 2 40 13 3 28 15 3 23 15 7 5 15 10 6 22 16 2 23 17 3 25 18 2 26 19 1 29 21 2 30 19 0 28 19 2 28 19 2 27 18 3 27 19 6 28 21 3 33 22 2 33 22 2 45 32 0 44 33 3 48 33 2 47 32 0 48 33 0 47 34 0 47 32 0 47 32 0 48 33 2 45 32 0 44 31 0 39 28 0 39 28 0 47 36 4 47 36 6 45 32 0 45 32 0 23 14 5 10 6 7 8 3 26 10 1 46 10 1 46 11 0 45 12 0 48 12 0 48 10 1 48 12 0 46 12 1 44 11 0 42 12 1 43 11 0 42 12 1 43 9 1 42 9 1 42 9 1 42 12 1 41 12 1 41 10 0 35 10 0 35 10 0 35 10 0 35 7 0 31 7 1 27 5 1 24 5 1 24 5 1 26 3 0 27 4 1 30 0 0 34 2 1 35 1 1 39 3 1 38 2 0 37 1 0 36 
16 1 44 16 1 44 16 1 44 16 1 44 16 1 44 16 1 44 14 1 45 14 2 42 16 1 42 16 1 42 15 0 43 15 0 43 16 1 44 16 1 44 15 0 43 16 1 44 16 1 44 16 1 42 14 1 44 14 1 44 14 1 44 13 0 43 14 1 45 13 0 44 14 1 45 14 1 47 14 0 49 15 1 50 15 2 46 14 2 42 13 1 39 13 3 30 14 4 31 18 11 3 16 12 1 34 34 24 39 37 25 40 38 26 37 37 25 39 37 25 38 35 26 40 38 26 40 37 28 39 36 27 41 38 23 42 36 24 46 34 8 50 34 8 47 34 2 47 32 0 47 34 0 48 33 0 47 34 0 47 34 2 48 33 0 49 34 1 46 33 0 39 28 0 42 28 1 43 32 2 44 33 3 46 33 1 46 33 1 38 27 5 32 25 7 23 13 21 12 3 32 11 1 35 13 1 47 13 2 45 13 1 49 12 0 48 9 2 46 12 0 46 11 0 43 10 1 44 12 1 43 11 0 42 12 1 43 10 2 43 11 0 40 11 1 38 11 1 38 11 1 36 10 0 35 11 1 36 10 0 37 10 1 32 9 0 27 7 2 25 5 1 24 5 1 24 4 0 27 4 0 25 4 1 30 2 2 30 2 1 33 2 1 33 2 1 35 3 2 36 
17 2 43 15 0 43 16 1 42 16 1 42 16 1 44 16 1 44 16 1 44 16 0 45 15 0 43 16 1 44 16 1 44 16 1 44 14 0 42 16 1 44 15 0 43 16 1 44 17 1 46 14 1 44 15 2 45 13 1 41 13 1 41 13 0 43 14 1 47 14 1 45 14 1 45 14 1 47 15 2 48 15 2 48 15 2 48 16 2 51 15 1 50 14 0 49 15 3 43 14 9 5 14 9 3 42 43 38 46 46 44 46 47 42 45 46 41 45 46 41 47 48 42 47 46 41 47 46 42 47 46 41 48 45 36 47 47 37 47 37 12 47 37 12 50 33 3 47 34 2 47 32 0 48 33 0 49 34 1 47 34 2 48 33 0 49 34 1 46 33 1 40 29 1 39 27 1 44 30 1 42 31 1 46 33 1 47 34 0 46 37 6 45 38 9 30 21 16 11 3 24 13 2 32 14 1 47 15 2 48 13 1 49 13 0 48 12 0 46 12 0 48 10 1 46 11 0 45 11 0 43 12 1 43 11 0 42 11 0 42 10 2 41 11 1 38 10 0 37 12 2 37 11 1 35 11 1 38 10 0 34 9 0 31 10 1 28 9 0 27 6 1 23 6 1 24 4 0 23 6 2 25 4 2 24 4 0 23 2 1 32 1 2 33 1 0 34 1 0 34 
16 1 44 16 1 44 16 1 44 16 1 44 17 0 44 16 1 44 16 1 44 16 1 44 15 0 43 16 1 42 16 1 42 14 1 44 15 0 43 16 0 43 15 0 43 16 1 44 14 1 44 15 2 46 12 0 40 14 2 40 13 0 43 14 2 42 14 1 44 14 1 45 13 0 43 13 0 44 13 0 44 13 0 44 12 2 39 14 4 29 14 4 29 14 4 28 14 5 22 12 7 4 11 6 2 42 39 30 46 43 34 47 46 41 47 46 41 46 47 41 47 48 42 46 47 42 47 46 41 48 47 42 49 46 41 49 46 39 48 42 30 48 42 26 46 35 5 48 35 1 48 35 1 49 34 3 48 33 0 47 32 0 48 33 0 48 33 0 47 32 0 39 28 0 41 30 2 44 31 0 45 32 0 48 35 3 47 36 4 48 37 7 48 39 8 31 22 13 15 6 23 16 7 28 24 12 48 22 10 46 19 7 47 18 5 48 14 1 45 13 2 45 11 0 42 12 1 44 13 2 45 12 0 42 12 1 43 11 0 42 12 1 43 11 0 40 11 0 40 11 0 40 13 1 41 11 1 35 10 0 35 10 1 30 8 0 24 9 0 27 8 0 23 8 0 24 4 0 23 5 1 24 5 1 24 5 1 24 3 0 27 3 1 25 2 2 30 4 1 30 
15 0 41 16 0 45 16 1 44 16 1 44 15 0 43 16 1 42 17 0 44 16 1 44 16 1 42 16 1 42 16 1 44 16 1 44 16 1 42 16 1 42 14 2 42 13 0 43 14 2 42 14 1 44 13 1 41 13 2 44 14 1 44 14 2 42 13 0 43 13 0 43 13 0 43 13 0 43 12 0 42 13 0 44 12 3 30 12 6 6 13 8 5 14 9 3 13 8 4 10 5 2 9 5 2 40 36 24 47 41 27 48 45 38 47 46 42 47 46 41 48 47 43 48 47 42 47 46 41 48 47 42 51 48 43 48 47 42 48 47 43 47 48 43 49 38 10 46 35 5 48 33 0 47 32 1 47 34 0 48 33 0 48 33 0 48 35 1 46 33 1 39 28 0 39 28 0 42 31 1 43 32 2 47 38 7 51 40 8 49 40 9 47 41 7 32 26 14 15 9 19 20 12 27 32 22 49 31 21 48 24 13 47 24 13 45 14 2 42 13 2 42 13 0 43 12 1 43 12 1 43 12 0 42 12 1 43 11 0 42 10 2 43 11 0 40 11 0 40 12 1 43 12 1 43 10 0 35 10 1 32 9 0 27 9 1 24 9 1 24 9 1 24 8 0 23 5 1 24 5 0 23 5 1 24 5 1 24 4 0 23 4 2 23 4 0 25 4 2 26 
16 1 44 16 1 44 16 0 45 15 0 43 16 1 44 16 1 44 15 0 41 16 1 44 16 1 44 16 1 44 16 1 42 15 0 41 15 3 43 14 2 42 14 2 42 13 1 41 14 2 42 14 2 42 13 0 43 13 0 43 13 0 43 14 2 42 13 1 41 13 1 41 13 1 41 13 1 41 13 0 43 13 1 41 14 5 26 17 12 6 20 13 5 22 13 4 21 14 4 17 10 0 16 9 1 43 38 19 43 40 21 44 44 32 46 46 38 47 46 41 48 47 42 48 47 42 48 47 42 48 47 42 46 45 40 48 47 42 46 47 41 48 47 42 48 37 9 47 33 4 49 34 3 49 34 1 48 33 0 47 32 0 48 33 0 47 34 2 46 33 1 39 27 1 39 28 0 45 31 2 45 32 0 47 38 5 48 39 8 48 39 8 46 40 6 32 25 15 18 10 23 20 13 29 29 18 48 29 16 46 22 10 46 23 11 47 14 1 44 13 0 43 12 1 43 13 2 45 13 2 44 13 2 44 14 1 44 13 2 42 12 1 43 12 1 41 11 0 40 10 1 44 11 0 42 11 1 35 10 0 34 10 1 28 10 2 26 10 1 28 9 0 29 9 0 27 6 0 26 7 1 27 4 0 25 6 2 27 5 1 24 3 0 21 4 0 23 2 3 23 
