P3
100 50
255
3 33 33 2 34 33 2 32 32 1 31 33 8 28 29 22 24 21 22 24 21 23 21 22 22 24 23 25 21 20 23 22 18 40 36 35 42 38 35 27 28 20 18 24 10 19 26 10 20 27 11 21 27 13 21 28 12 21 27 13 22 26 12 19 26 10 29 30 34 28 28 30 31 32 36 31 30 35 29 30 34 32 31 36 28 28 30 21 22 26 20 24 25 23 22 27 23 23 25 17 18 20 18 19 21 21 21 23 21 21 23 24 22 25 26 26 28 25 24 29 27 26 31 28 27 32 26 26 28 27 25 30 25 26 28 25 27 26 26 27 29 26 27 29 26 27 29 27 26 31 20 21 25 19 18 23 10 20 21 1 21 20 1 19 21 0 20 21 0 20 19 2 22 21 2 22 23 6 35 33 5 34 32 6 35 31 8 35 30 13 40 35 17 42 36 19 44 38 18 45 38 16 43 36 4 35 30 4 35 29 2 32 32 2 32 32 2 34 33 0 34 35 23 17 21 30 9 16 39 9 17 46 6 14 46 9 16 48 12 16 47 11 13 49 9 17 48 9 14 55 9 19 55 9 19 50 9 17 48 8 16 48 8 16 49 8 16 50 6 19 50 9 17 51 8 17 53 10 19 52 9 18 44 7 15 47 7 15 49 8 16 49 7 17 51 8 17 51 8 17 
8 30 28 5 30 27 6 28 25 7 29 26 12 27 24 21 23 18 23 25 22 25 27 26 23 27 28 21 20 18 20 19 17 36 30 30 37 31 31 25 26 18 17 23 9 20 24 10 21 25 11 19 25 11 21 27 13 24 28 13 21 24 15 22 25 14 31 31 33 32 32 34 32 31 36 32 32 34 31 30 35 31 32 34 28 29 31 22 24 23 23 24 26 25 24 29 25 23 26 22 22 24 21 21 23 21 21 23 22 22 22 23 23 25 24 24 26 25 25 27 27 27 29 26 27 31 27 27 29 27 27 29 26 25 30 27 26 31 26 26 28 26 26 28 26 27 29 26 26 28 23 24 26 21 22 24 11 21 23 3 19 19 1 19 19 0 20 21 0 20 19 1 23 21 1 22 23 4 33 29 4 33 31 6 35 30 6 37 32 9 38 34 10 39 34 14 39 35 14 41 36 12 39 32 6 35 30 8 34 31 18 27 26 18 27 26 20 26 26 17 26 25 31 16 19 36 11 15 39 10 15 44 9 13 46 11 15 45 13 14 47 13 14 52 13 16 51 15 17 54 8 18 51 8 17 48 9 14 47 7 15 49 8 16 49 7 17 50 8 18 52 9 18 51 8 17 50 9 15 51 8 17 48 8 16 49 8 16 48 8 16 49 8 16 50 9 17 51 8 15 
9 24 19 12 25 18 14 26 16 17 23 11 17 25 14 20 24 10 22 25 18 30 29 34 29 30 32 15 15 13 15 15 13 26 22 19 25 24 22 22 23 15 19 22 11 19 22 11 17 20 9 17 23 9 21 27 13 21 28 12 22 23 18 17 22 16 35 35 35 35 35 37 33 32 38 34 34 36 32 33 37 31 32 34 30 30 32 24 25 27 22 26 27 26 25 30 27 26 31 26 27 31 26 27 29 22 22 24 20 20 20 23 23 25 23 24 26 24 25 27 26 26 28 26 27 29 26 27 29 27 27 29 25 26 30 27 26 31 26 25 30 27 27 29 27 28 32 27 26 32 25 26 28 26 27 29 16 21 24 1 17 17 1 16 19 2 17 20 0 20 21 1 26 23 3 24 25 3 32 28 3 32 28 3 34 29 4 35 30 3 34 29 3 34 29 3 34 29 3 34 29 4 33 28 9 31 28 15 30 25 47 17 15 47 17 15 49 14 12 51 13 12 45 14 12 43 14 10 43 14 10 40 12 11 42 14 11 44 13 11 44 14 12 56 18 15 57 20 14 49 7 17 50 9 17 49 7 17 50 7 16 49 8 16 50 7 16 51 8 17 53 10 20 53 7 17 49 9 17 49 8 16 51 8 17 51 8 17 49 8 16 49 8 16 49 8 16 49 8 16 
11 23 19 13 24 16 15 25 16 21 27 13 18 24 12 18 24 12 20 26 16 25 25 23 26 26 26 16 15 13 17 16 14 27 23 22 26 25 21 24 24 16 21 22 14 19 20 12 17 19 8 19 22 11 26 30 16 26 29 18 25 26 21 25 25 23 33 34 36 33 33 35 35 35 37 33 33 35 31 32 34 29 30 32 26 27 29 23 24 26 23 24 26 26 25 30 27 25 30 28 28 30 28 28 30 23 23 21 22 22 22 25 26 28 23 24 26 25 26 28 27 28 32 23 27 28 24 25 27 24 25 27 25 26 30 25 26 30 28 28 30 25 26 28 25 26 30 25 26 30 21 25 28 20 24 27 11 21 23 1 16 19 1 16 19 0 18 20 0 18 20 2 23 24 1 23 21 4 30 27 4 30 27 3 32 28 4 33 29 4 33 29 5 34 29 4 35 30 4 35 30 8 33 29 17 28 24 20 26 22 48 17 15 46 16 14 48 13 11 47 12 10 43 14 10 43 13 11 42 14 11 41 13 10 42 14 11 42 12 12 45 15 13 54 19 17 52 19 14 51 12 17 52 11 17 51 10 18 49 8 16 50 9 17 49 8 16 50 9 17 53 7 18 50 8 18 49 7 17 50 9 17 54 8 18 52 9 18 49 8 16 49 8 16 49 8 16 48 6 16 
12 22 14 18 21 10 21 27 13 26 35 16 25 32 14 21 28 12 19 25 11 14 17 10 16 15 10 19 18 16 22 18 19 25 24 22 28 24 23 27 23 24 27 23 22 21 20 16 17 16 11 26 26 18 38 37 33 38 37 35 36 35 40 35 36 40 32 31 36 32 31 36 35 35 37 36 36 38 26 27 29 22 23 27 21 22 24 19 20 24 21 22 24 28 27 32 26 26 28 28 29 31 26 27 29 29 29 27 27 27 27 30 30 30 30 30 30 29 29 31 26 27 31 24 25 27 20 21 23 22 21 26 26 26 28 26 26 28 26 26 28 27 27 29 24 25 27 24 25 29 11 19 22 0 14 17 0 14 15 1 15 18 1 16 19 1 17 17 0 15 18 0 17 19 2 17 20 3 25 23 2 24 22 4 29 26 5 31 28 6 33 28 8 35 30 6 35 30 8 35 30 14 30 27 35 17 15 35 16 12 43 13 11 41 13 12 42 12 10 41 11 9 41 13 10 41 13 12 41 15 14 41 15 14 40 14 13 43 13 11 43 13 13 49 15 13 45 17 14 59 21 20 59 21 20 53 10 17 51 8 18 49 7 17 48 6 16 49 7 17 50 7 16 51 8 17 51 8 17 51 10 18 51 8 17 49 8 16 50 9 17 50 9 17 49 8 16 50 9 17 
13 23 15 15 23 12 21 28 12 25 32 14 24 33 12 20 27 11 20 26 12 17 18 12 17 18 12 20 19 17 20 19 17 24 23 21 26 22 21 27 23 20 27 23 22 24 21 16 18 18 10 26 25 21 38 39 34 38 37 33 34 35 39 33 34 39 32 33 37 32 33 37 34 35 37 37 37 39 28 28 30 23 24 26 20 21 26 19 20 25 21 22 24 26 26 28 27 27 29 29 30 35 30 30 32 29 29 27 30 29 27 30 30 28 31 31 31 29 29 29 26 27 29 25 26 28 20 21 23 22 23 27 25 26 28 26 27 29 26 24 29 24 25 30 20 24 27 19 24 27 9 18 23 1 15 18 1 15 18 1 15 18 0 15 18 2 16 19 2 16 19 0 18 20 2 17 20 1 26 23 1 26 23 5 30 27 6 31 28 8 33 29 9 34 30 4 35 30 9 36 31 17 29 27 34 16 14 36 16 15 42 12 10 41 13 10 40 15 11 42 14 13 41 15 14 43 15 12 41 15 14 41 17 17 41 15 14 40 15 11 43 13 11 46 15 13 46 15 13 58 20 19 58 20 19 54 11 18 52 9 18 50 9 17 49 7 17 50 9 17 51 8 17 51 8 17 52 9 18 51 8 17 52 11 19 49 7 17 51 8 18 50 9 17 49 8 16 49 8 16 
14 22 11 16 22 12 18 24 10 21 25 11 20 26 12 20 27 11 22 26 12 24 31 15 23 30 14 17 18 12 16 19 12 15 14 10 13 13 15 25 25 23 34 30 27 25 24 20 18 17 13 29 25 22 45 41 40 44 38 38 33 33 33 35 33 36 35 34 39 36 35 40 34 35 37 36 36 38 31 30 35 27 28 30 25 26 30 20 19 24 22 21 26 26 27 29 27 28 32 34 34 34 34 34 34 40 43 16 39 44 12 35 37 24 35 36 30 30 30 28 27 26 31 26 27 31 25 26 30 26 27 29 27 27 29 28 28 30 5 16 18 5 16 18 0 14 17 0 14 17 0 14 17 0 14 17 0 14 17 1 15 18 1 15 18 1 15 18 1 16 21 2 30 33 2 30 33 2 26 30 2 27 31 4 30 31 6 32 33 4 32 33 6 35 31 7 33 30 8 35 30 16 31 28 36 16 15 37 16 15 40 10 8 39 9 7 40 29 27 42 30 30 44 28 29 44 30 27 43 29 29 44 28 29 42 28 27 39 27 27 39 23 23 41 13 10 41 13 9 52 18 16 55 20 18 53 17 17 53 18 16 53 12 18 52 9 18 51 8 17 49 8 16 49 8 16 50 8 18 50 7 17 51 8 17 52 9 18 51 8 17 51 8 17 48 7 15 48 8 16 
13 23 12 15 21 11 17 23 9 19 26 10 19 25 11 20 26 12 23 27 12 24 31 15 24 31 15 17 18 10 16 19 12 15 15 13 14 13 11 27 23 20 34 30 29 27 23 20 18 17 13 28 27 22 45 41 40 44 40 41 34 34 34 33 33 33 35 35 37 35 36 38 35 36 38 35 36 38 31 30 35 25 26 30 24 24 26 19 20 22 21 22 26 26 27 31 28 28 30 34 34 34 33 34 36 39 41 17 40 43 12 36 38 25 34 35 29 30 30 28 27 26 31 26 26 28 26 27 29 26 27 29 27 27 29 28 28 30 5 16 20 4 18 21 1 15 18 0 14 17 1 15 18 0 14 17 0 14 17 0 14 17 0 14 17 0 14 17 1 16 21 0 30 32 1 31 33 2 27 32 2 26 30 4 30 31 3 31 34 4 32 33 8 34 33 8 34 33 6 35 31 14 30 27 36 16 15 36 15 12 41 10 8 39 9 7 42 28 27 41 29 29 45 31 31 43 29 28 43 29 29 42 28 28 40 28 28 38 26 26 41 23 23 42 12 10 41 13 10 54 19 15 54 19 17 52 17 15 53 17 17 54 11 18 51 8 17 51 8 17 49 8 16 50 7 16 48 8 16 49 8 16 51 8 17 52 9 18 51 8 17 51 8 17 48 8 16 47 7 15 
15 20 13 15 21 11 18 26 11 23 30 14 24 28 13 20 24 10 19 25 11 22 29 11 22 28 14 20 24 10 19 26 10 16 19 10 15 18 9 19 20 14 20 21 16 20 21 16 23 22 18 28 24 23 37 32 29 35 31 28 33 33 35 33 33 33 35 35 37 36 36 38 31 32 36 28 32 35 34 33 38 32 33 35 29 29 31 22 23 25 24 24 26 25 26 30 29 27 30 40 40 38 40 40 38 39 43 18 40 43 14 38 40 29 36 37 31 32 32 32 27 28 30 22 26 29 13 21 23 10 18 21 4 15 19 5 15 17 3 17 20 1 15 18 0 14 17 0 14 17 1 15 18 1 15 18 0 13 16 0 14 17 1 15 18 1 15 18 0 14 17 2 16 19 1 15 18 4 23 27 5 25 26 7 33 32 6 34 35 5 34 32 7 33 32 5 34 32 4 34 32 12 31 29 35 15 14 35 16 12 40 10 8 40 10 8 41 27 26 40 28 28 41 27 27 42 28 28 42 28 27 41 29 29 42 31 29 42 28 28 41 27 27 39 19 20 39 19 20 44 14 12 44 14 14 52 17 15 55 17 16 52 13 16 51 10 16 51 10 18 50 9 17 50 9 17 49 8 16 49 9 17 50 9 17 49 7 17 50 8 18 51 9 19 52 9 18 51 8 17 
14 20 10 17 20 9 20 27 11 23 32 13 22 31 14 20 24 10 19 25 11 21 28 12 20 29 10 19 25 11 21 25 10 18 19 11 14 20 8 17 20 13 19 19 17 21 20 15 23 22 18 27 26 22 32 31 27 35 29 29 32 32 34 34 32 33 35 34 40 36 34 37 31 32 34 30 29 35 33 34 36 35 36 38 30 31 33 22 23 25 25 25 27 25 26 28 29 27 30 40 41 36 41 42 37 40 44 17 39 44 14 37 39 26 36 37 31 32 32 32 27 26 31 24 28 31 12 20 23 8 17 22 0 13 19 2 13 15 1 12 18 1 15 18 0 14 17 1 15 18 1 15 18 1 14 20 0 16 16 1 14 20 1 14 20 1 15 18 1 15 18 2 13 17 2 13 17 5 23 25 5 23 25 7 31 31 7 36 34 7 36 34 5 33 34 4 32 35 5 34 32 11 27 26 32 17 14 34 13 10 40 10 8 40 10 8 42 26 26 42 28 28 41 27 27 40 26 26 40 28 28 44 30 30 42 28 28 43 29 28 41 25 25 38 20 18 39 21 19 40 12 9 40 12 11 54 16 13 56 16 16 52 13 16 49 10 15 51 10 18 53 10 19 53 7 17 49 8 16 48 8 16 48 8 16 48 8 17 52 9 19 52 9 19 54 8 19 52 9 19 
4 16 16 4 16 16 8 17 14 9 18 13 9 18 13 14 17 8 15 21 9 17 23 9 18 21 10 19 23 9 19 25 11 18 22 8 17 20 9 17 20 9 18 21 10 23 23 15 29 25 22 35 31 30 43 37 37 42 38 37 38 36 37 41 37 38 28 27 32 29 29 31 32 33 35 34 35 37 34 34 36 33 33 35 31 31 33 25 26 30 25 26 30 26 27 29 29 29 31 43 45 34 43 45 34 42 44 20 41 45 20 40 41 33 40 41 36 28 32 33 18 23 26 12 20 23 4 15 19 4 15 19 1 15 18 0 14 17 0 14 17 0 14 17 1 15 18 0 14 17 1 14 20 0 14 17 0 14 17 0 14 17 1 15 18 1 14 20 3 14 18 7 16 13 7 16 13 4 16 16 3 17 18 4 25 28 3 27 31 4 29 34 4 29 33 8 33 37 14 40 39 18 34 33 37 17 16 36 16 15 40 10 8 40 10 8 40 26 25 39 27 27 42 26 27 39 25 25 41 27 27 42 28 28 42 28 28 42 27 32 42 28 28 42 26 26 42 26 27 38 14 12 39 13 14 44 14 12 45 14 12 51 16 14 55 17 16 53 12 16 50 9 17 49 9 18 50 9 17 49 8 16 49 8 16 49 8 16 51 8 17 51 8 18 41 12 17 36 11 15 
1 15 18 1 15 18 3 15 15 2 12 13 6 15 12 11 16 9 12 17 10 17 20 11 17 20 9 19 25 11 18 24 10 17 21 7 17 23 9 16 23 7 14 22 7 23 24 18 30 26 23 35 34 30 45 41 40 44 40 39 40 39 35 42 38 37 25 24 29 25 24 29 33 33 35 35 36 38 34 34 36 32 33 35 30 29 34 25 26 30 27 28 32 26 27 29 29 29 29 44 46 32 45 47 34 41 43 19 40 44 19 42 43 35 42 42 40 26 32 32 13 23 25 10 20 22 0 14 17 0 14 17 0 13 19 0 14 17 3 14 16 1 15 18 0 14 17 0 14 17 0 14 17 0 14 17 0 14 17 0 13 19 0 15 20 3 14 18 1 12 14 8 17 12 8 17 14 4 14 15 4 14 15 3 22 28 3 23 30 2 25 31 3 27 31 10 34 36 16 41 38 21 36 33 37 17 16 36 16 15 39 9 7 40 10 8 40 24 25 39 27 27 39 25 25 39 25 25 40 26 25 41 27 26 43 29 29 43 29 29 42 28 28 43 29 28 42 28 27 39 15 15 40 14 13 43 13 11 45 13 14 51 17 15 56 18 15 53 14 15 50 9 17 49 7 17 50 9 17 49 8 16 49 8 16 50 9 17 52 9 18 51 8 18 36 11 15 30 11 15 
1 15 18 0 14 17 1 15 16 4 14 16 3 15 15 6 15 14 10 16 14 17 20 13 19 20 14 18 21 14 18 21 12 18 19 11 17 18 12 22 22 14 23 24 18 27 26 22 32 28 25 35 31 28 39 35 34 41 37 34 44 40 39 45 41 40 27 27 29 28 28 30 33 33 35 34 34 36 29 30 32 25 27 24 26 28 27 23 24 26 25 25 27 27 28 30 29 29 29 44 47 30 43 46 29 42 45 24 42 46 23 44 45 39 43 43 41 31 36 32 17 26 25 12 20 22 1 15 18 0 14 17 0 14 17 0 14 17 0 13 19 0 14 17 1 14 20 0 13 16 0 13 19 1 15 18 3 14 16 4 14 16 3 14 16 0 14 15 4 16 16 13 24 10 13 23 12 10 16 14 9 18 13 4 23 27 3 26 32 2 27 31 0 28 31 6 32 33 9 35 34 16 30 31 38 17 16 35 15 14 40 10 8 39 9 7 41 27 27 40 28 28 40 26 26 41 27 27 40 25 28 42 28 28 42 28 28 40 28 28 40 28 30 40 26 26 40 26 25 40 22 20 41 23 23 43 15 12 42 14 13 47 16 13 51 17 15 52 16 16 52 13 14 53 12 16 51 8 17 50 8 18 42 9 16 40 9 15 40 15 19 40 15 21 33 17 20 30 18 20 
1 15 16 3 14 18 0 14 17 0 14 17 3 14 18 3 14 16 6 14 16 20 19 17 20 19 17 17 18 12 16 17 12 15 16 11 15 16 11 24 23 19 31 27 26 32 29 24 34 30 27 34 30 29 34 30 27 36 32 29 44 40 37 45 41 38 31 32 36 30 29 34 33 33 35 33 34 36 26 27 21 19 22 13 20 22 17 19 20 22 23 23 25 28 27 32 30 30 30 42 45 24 43 46 25 42 45 24 43 45 24 45 46 41 47 47 45 35 37 34 23 29 25 15 24 23 3 14 18 0 14 17 1 14 20 0 14 17 2 13 17 1 12 16 0 14 17 0 13 16 1 15 18 1 15 18 4 15 19 7 15 18 6 16 18 2 13 15 4 16 14 22 31 14 21 30 13 12 17 10 12 17 11 4 24 25 4 27 33 3 26 32 3 26 32 3 26 34 2 27 32 10 24 27 35 15 16 36 15 14 39 9 7 38 10 7 42 26 27 40 28 28 42 28 27 43 29 29 42 28 28 42 28 28 43 29 29 40 28 28 41 27 27 41 25 25 37 23 23 44 29 32 43 28 31 42 14 11 42 12 12 46 15 13 47 16 13 52 18 16 57 19 16 55 15 16 54 8 18 50 7 17 34 9 15 32 9 15 28 23 20 29 23 23 32 23 24 32 23 24 
1 15 18 2 16 19 0 14 17 0 14 17 1 12 14 4 12 14 7 12 16 17 16 14 16 15 13 17 17 15 18 17 12 17 16 12 16 17 12 24 23 19 30 26 27 30 29 27 34 30 27 34 30 29 35 31 28 36 32 31 47 43 42 47 43 42 22 26 29 22 26 27 26 27 29 26 28 27 24 27 20 21 24 13 21 24 17 21 21 21 20 24 27 24 32 34 26 35 32 41 45 20 42 44 20 44 45 27 44 47 28 46 47 42 47 47 47 35 37 34 25 28 21 15 24 19 0 14 17 0 14 17 0 13 19 0 11 15 0 13 16 1 15 18 0 14 15 0 14 17 1 15 18 0 14 17 9 19 21 19 23 24 18 24 24 13 19 19 13 22 19 23 27 12 22 29 13 14 20 10 15 21 9 4 23 21 4 25 26 5 29 31 4 28 32 5 31 32 8 34 35 12 27 30 35 15 14 36 15 14 39 9 7 40 10 8 43 27 27 41 29 29 42 28 27 42 28 28 42 28 28 43 29 29 42 28 28 42 28 28 42 28 28 39 25 25 39 25 25 43 29 29 43 29 29 41 20 17 41 17 15 44 16 13 44 14 12 47 16 14 52 17 13 49 15 16 43 12 17 43 12 18 31 15 18 32 16 19 29 23 23 30 21 22 33 23 24 32 23 24 
2 13 15 3 14 16 2 13 15 1 12 16 2 12 14 9 11 10 11 11 11 12 11 9 11 10 8 17 16 14 18 17 15 16 17 12 15 15 13 25 21 20 30 26 25 31 30 26 35 31 28 35 31 30 37 31 31 38 32 32 49 47 48 48 47 45 6 16 17 6 16 17 10 19 16 12 18 14 19 25 11 22 31 14 23 26 15 21 23 20 21 27 25 18 38 36 21 37 34 41 44 17 40 45 15 43 46 29 45 46 32 49 48 44 48 48 48 37 40 33 28 32 18 17 24 17 0 14 17 3 14 18 0 14 17 2 13 17 0 14 17 0 14 17 0 13 19 0 13 16 1 15 18 3 14 18 21 27 27 40 39 37 36 35 33 29 30 25 30 31 25 21 28 12 22 29 13 18 24 10 20 24 10 10 22 18 5 21 20 6 27 28 5 31 32 9 35 34 12 41 37 19 35 32 38 18 17 36 16 15 39 9 7 40 10 8 41 27 27 40 28 28 41 27 27 42 28 28 43 29 29 43 29 29 42 28 28 43 29 29 43 28 31 43 29 29 43 29 29 42 28 27 42 27 30 40 26 26 37 25 25 39 18 17 41 11 9 42 12 10 42 12 10 36 15 14 27 19 17 26 20 20 32 23 24 32 23 24 32 23 24 30 22 20 31 22 23 32 24 22 
5 17 15 7 17 16 5 15 14 1 12 14 6 12 12 13 13 11 12 12 10 13 13 13 15 14 12 17 16 14 18 17 13 14 14 12 14 15 10 23 22 18 32 27 24 33 29 26 35 31 28 36 32 31 38 34 33 40 36 35 47 46 42 47 45 46 6 16 18 6 16 18 10 19 14 12 19 12 19 25 13 22 29 13 23 26 15 19 24 20 21 25 24 20 36 36 25 38 31 42 42 16 40 43 14 44 45 31 44 46 32 47 47 45 49 47 48 37 40 33 27 31 17 17 24 17 1 12 16 3 14 16 1 15 18 1 15 18 0 13 16 1 12 16 0 13 16 0 14 17 3 14 18 4 15 17 22 28 28 41 37 34 37 36 32 27 26 22 26 27 22 21 27 13 21 27 13 19 25 11 19 26 10 11 22 16 10 22 18 9 29 27 10 35 32 13 37 37 16 42 39 22 37 34 37 17 16 37 17 16 40 10 8 40 10 8 41 27 27 40 28 28 43 29 28 43 29 29 42 28 28 43 29 29 43 29 29 42 28 28 43 29 29 43 29 29 42 28 28 42 28 28 41 27 26 40 25 28 37 25 25 39 18 15 42 12 10 41 11 9 43 12 10 36 15 14 29 19 20 29 20 21 32 23 24 31 22 23 32 23 26 32 23 24 32 23 24 32 23 24 
17 25 14 20 26 12 13 20 12 4 13 10 9 14 10 16 15 13 17 17 15 24 20 19 24 20 19 18 17 15 16 15 13 16 15 11 15 16 11 22 21 17 29 25 24 33 29 28 35 31 30 40 36 35 46 42 39 46 42 41 39 37 38 39 37 38 4 16 16 3 15 15 13 21 10 16 23 7 20 27 11 22 28 14 20 26 12 17 23 11 19 25 15 25 34 33 28 33 29 39 44 12 37 42 10 43 45 34 43 44 36 48 48 46 48 48 46 36 39 32 23 29 15 16 23 15 1 15 16 0 14 17 1 15 18 0 13 16 0 14 17 0 14 17 1 15 18 0 14 17 7 17 19 10 18 20 26 27 29 40 38 39 32 31 29 16 16 14 17 17 15 20 23 12 20 24 10 19 25 11 20 26 14 21 27 13 21 28 12 24 40 30 26 47 40 26 47 40 26 47 42 30 41 35 37 17 16 39 20 16 40 10 8 40 10 8 40 26 26 40 28 28 42 28 28 42 28 28 43 29 29 42 28 28 43 29 29 42 28 28 42 28 28 43 29 29 42 28 28 43 29 29 44 30 29 42 28 28 40 28 28 40 19 18 41 11 9 41 11 9 39 9 9 34 12 14 28 19 20 28 20 18 32 23 24 32 24 22 31 22 23 32 22 23 33 24 25 32 23 24 
17 25 12 23 27 12 14 20 10 7 13 11 9 14 10 17 16 14 17 16 14 21 20 18 21 20 18 18 17 15 18 17 15 15 14 10 14 15 10 23 22 18 29 25 24 33 29 28 34 30 29 39 35 34 47 43 42 45 41 42 40 39 37 38 37 35 3 14 16 3 15 15 14 20 10 18 22 8 19 26 10 22 29 13 21 27 13 18 24 12 19 26 18 25 34 33 28 33 29 38 43 11 39 42 13 43 45 34 45 44 39 47 47 45 49 49 49 36 39 32 24 30 16 17 24 17 2 13 17 2 13 19 0 13 19 0 13 19 1 15 18 0 14 17 0 13 16 1 15 18 7 17 19 10 18 21 26 27 29 39 37 38 33 29 28 16 15 13 17 18 13 20 24 10 17 23 9 20 27 11 19 26 10 21 28 12 21 28 12 24 40 30 27 46 40 26 47 40 25 48 42 29 40 34 38 18 17 38 17 14 40 10 8 39 9 7 43 27 28 40 28 28 43 29 29 43 29 29 42 28 28 43 29 29 42 28 28 42 28 28 42 27 30 42 28 28 43 29 29 42 28 27 43 29 29 39 27 27 39 27 27 42 18 18 42 12 10 41 12 8 40 11 7 34 13 12 28 19 20 29 21 19 32 23 24 32 24 22 32 23 24 32 24 22 31 22 23 31 23 21 
20 28 13 25 32 14 22 29 13 20 24 10 19 22 13 16 17 11 16 16 14 18 17 15 17 16 14 21 20 18 20 18 19 18 14 13 15 14 12 22 21 19 28 24 23 33 29 28 36 32 31 39 35 34 44 40 39 44 40 39 39 38 36 38 37 33 5 14 9 5 14 9 16 22 10 19 25 11 20 27 11 21 25 11 22 26 11 20 26 12 26 32 20 44 45 40 43 44 38 38 43 13 38 41 12 40 43 36 42 43 38 47 47 47 48 48 50 38 41 32 27 34 16 20 27 19 6 17 21 6 17 21 1 15 18 0 15 18 1 15 18 0 14 15 1 15 18 0 14 17 12 20 23 20 24 25 27 27 27 33 29 28 28 24 23 17 16 14 17 16 12 15 18 9 15 18 9 22 29 13 20 27 11 11 18 10 9 14 10 5 23 23 4 30 31 2 30 31 4 32 33 10 28 28 36 16 15 36 15 14 40 10 8 40 10 8 42 26 27 41 29 29 40 26 25 39 25 25 39 25 25 42 28 28 42 28 28 42 28 28 42 27 30 42 28 28 42 28 28 40 26 25 41 27 27 38 28 27 40 28 28 42 18 18 41 11 9 41 11 9 39 9 7 34 13 12 30 20 21 28 19 20 33 25 23 33 24 25 30 22 20 30 21 22 29 23 23 32 23 24 
21 27 13 25 32 14 22 28 14 19 22 11 17 23 13 16 17 11 16 17 11 21 17 16 18 17 15 20 19 17 21 20 18 15 15 13 14 13 11 24 20 19 25 24 22 30 29 27 36 32 31 37 36 34 45 41 40 44 40 39 38 38 38 38 37 35 5 14 9 5 14 9 16 24 11 19 26 10 19 26 10 18 24 10 20 26 12 20 27 11 27 30 19 43 44 38 42 45 36 38 41 14 38 42 15 41 42 36 42 42 40 47 47 47 48 48 48 37 42 35 29 33 19 20 27 19 6 17 21 6 17 21 1 14 20 1 15 18 0 14 17 0 14 17 0 14 17 0 14 17 12 20 23 20 24 25 27 27 29 33 29 28 28 24 23 17 15 16 17 16 12 16 19 10 15 18 9 21 27 13 21 28 12 13 18 11 8 14 10 4 24 23 4 30 31 6 30 34 2 30 33 12 28 28 36 16 15 35 15 14 40 10 8 39 9 7 41 27 27 41 29 29 40 26 26 38 24 24 42 28 28 42 28 28 42 28 28 43 29 29 42 28 28 42 28 28 42 28 28 40 26 26 41 27 26 39 27 27 39 27 27 42 18 18 42 12 10 39 11 8 40 10 10 37 12 15 29 20 21 29 20 21 31 22 23 31 22 23 29 20 21 29 20 21 31 22 23 32 23 24 
18 24 10 20 26 12 22 24 11 16 22 8 19 22 11 16 22 8 15 21 9 19 22 15 19 22 13 19 18 16 19 18 16 19 18 16 20 19 17 18 17 15 17 16 14 25 23 24 34 30 29 33 29 26 29 28 24 29 28 26 39 35 36 39 35 32 6 16 17 6 16 17 15 21 11 20 24 10 18 21 12 16 22 10 15 21 9 14 20 10 21 27 17 48 48 38 44 48 34 39 44 14 40 45 15 41 42 37 41 41 41 48 48 48 49 47 48 40 42 37 33 39 29 27 32 26 18 23 26 11 21 22 1 15 18 0 13 19 1 15 18 1 15 18 0 14 17 0 14 17 15 23 25 26 28 27 26 26 24 27 26 21 21 22 17 15 14 12 15 14 12 11 10 8 10 10 8 10 16 12 9 15 11 3 17 18 2 18 18 2 20 22 3 21 23 2 17 20 1 16 21 8 16 19 35 15 14 35 15 14 39 9 7 40 10 8 41 27 26 40 28 28 40 26 25 40 26 26 42 28 28 43 29 29 41 27 27 42 28 28 43 28 31 42 28 28 42 28 28 43 29 28 42 28 28 42 27 30 42 28 28 42 18 18 41 11 11 40 10 8 39 9 9 34 13 12 29 20 21 29 20 21 31 21 22 30 22 20 28 19 20 29 19 18 31 23 21 30 25 22 
21 25 11 19 25 11 20 24 10 17 23 11 18 24 12 16 23 7 19 22 11 19 22 11 20 22 11 20 19 15 19 20 15 20 19 17 21 20 18 17 15 16 15 15 15 24 23 21 33 29 28 30 29 27 28 24 21 30 26 25 35 33 34 36 32 31 5 14 19 5 15 17 13 20 12 16 22 10 17 20 9 14 20 8 14 20 10 13 19 9 23 26 17 49 49 37 46 48 34 39 44 14 39 44 12 41 42 37 41 41 41 47 47 45 48 48 50 39 44 38 33 39 29 27 34 27 17 25 27 13 23 24 2 13 17 3 14 18 0 13 16 1 14 20 0 14 17 0 13 19 18 24 24 26 30 29 27 27 25 25 26 21 22 21 17 15 13 14 13 14 9 9 9 9 10 9 7 8 14 10 7 13 9 3 17 18 1 19 21 3 18 23 1 19 23 2 17 20 0 14 17 10 15 18 33 15 13 35 14 13 39 10 6 39 9 7 42 26 27 43 29 28 41 27 27 40 26 26 41 27 27 42 28 28 42 28 28 43 29 29 42 28 28 43 29 29 42 28 28 42 28 28 42 28 28 39 27 27 38 26 26 41 17 17 41 11 9 41 11 9 38 8 6 35 14 13 28 19 20 28 19 20 31 22 23 30 22 20 29 20 21 29 20 21 31 22 23 31 22 23 
21 27 13 21 27 13 23 27 13 21 27 13 18 24 10 17 23 9 19 25 11 21 27 13 21 28 12 16 17 11 16 17 11 20 19 15 21 20 18 17 16 14 14 12 13 21 20 18 28 24 23 25 24 22 25 21 18 26 22 23 30 29 25 29 30 25 24 25 27 25 27 26 9 20 16 7 18 14 11 18 11 12 17 10 12 17 13 8 18 17 19 25 21 45 48 31 46 49 30 39 46 15 40 47 16 39 41 36 40 40 40 46 46 46 48 48 50 45 47 44 40 42 37 31 38 31 21 30 25 16 27 23 0 13 19 1 14 20 0 14 17 0 14 17 0 14 17 2 16 19 20 25 28 32 32 32 25 28 21 19 22 11 18 21 12 16 17 11 15 16 11 13 13 13 13 13 11 3 13 14 4 14 15 1 15 18 2 16 19 1 16 19 0 14 17 0 15 18 2 16 19 11 16 19 35 15 14 34 14 13 39 9 7 39 9 7 41 27 27 42 28 28 43 29 29 40 28 28 42 28 28 42 28 28 42 28 28 42 28 28 43 29 29 42 28 28 42 28 28 42 28 28 44 28 29 41 27 27 39 27 27 40 19 18 40 12 9 39 11 8 39 9 7 35 14 13 28 19 20 29 20 21 31 22 23 31 23 21 31 22 23 30 21 22 32 23 24 31 22 23 
21 28 12 22 29 11 23 30 14 23 29 15 24 28 13 17 25 10 18 24 10 22 29 13 21 28 12 16 17 11 15 16 11 22 18 17 21 20 18 16 15 13 16 15 13 18 18 16 24 23 21 22 21 19 19 18 16 20 19 17 26 25 20 25 26 20 34 33 31 35 34 32 9 19 21 0 14 17 9 13 12 13 15 12 9 15 13 7 18 22 16 25 24 43 45 24 41 46 23 39 46 15 39 46 15 39 39 37 40 40 42 46 46 48 49 49 49 45 47 44 42 44 39 35 41 37 22 34 24 17 28 22 0 13 19 0 13 19 0 14 17 0 14 17 1 15 18 1 15 18 21 26 29 34 34 34 26 29 22 16 23 7 16 22 8 16 19 10 15 18 9 13 13 11 14 14 12 0 13 16 0 13 19 2 13 19 2 13 17 0 14 17 0 14 17 0 13 16 2 16 19 10 15 18 35 14 13 35 14 13 40 10 8 39 9 7 41 27 27 43 29 29 42 28 28 42 28 27 42 28 28 43 29 29 43 29 29 41 27 27 43 29 29 43 29 29 43 29 29 42 28 28 43 29 29 41 27 27 39 27 27 42 18 18 41 13 10 40 10 8 40 10 8 35 14 13 28 19 20 28 19 20 31 22 23 32 24 22 31 22 23 32 23 24 33 24 25 31 22 23 
20 26 12 23 27 12 22 24 10 20 24 10 21 25 10 18 24 10 20 26 12 20 24 10 20 26 12 17 23 13 19 22 11 18 21 12 20 21 15 18 21 14 18 19 13 20 21 15 22 23 15 22 23 15 22 25 16 22 23 15 22 25 14 22 25 16 31 30 28 32 31 29 15 20 23 7 17 19 17 19 18 19 20 15 22 24 23 24 29 32 28 34 30 42 44 22 42 44 22 39 45 17 40 46 18 38 40 37 40 38 41 47 47 47 48 48 48 47 49 46 46 48 45 36 43 36 20 34 21 14 27 18 1 15 18 0 14 17 0 14 17 3 14 18 3 14 18 2 13 17 17 23 23 28 28 26 24 27 18 19 23 9 16 22 10 19 22 11 17 20 9 14 14 12 15 14 12 0 14 17 0 13 19 3 14 18 0 14 17 1 15 18 0 12 18 0 14 17 0 14 17 9 14 17 34 14 13 35 14 13 40 10 8 39 9 7 42 26 27 43 29 29 42 28 28 42 28 27 42 28 28 41 27 27 42 28 28 42 28 28 43 29 29 43 29 29 43 29 29 41 27 27 40 26 26 39 27 27 41 27 27 42 18 18 43 13 11 40 10 8 39 9 7 34 13 12 29 19 20 29 20 21 29 23 23 31 26 23 32 23 24 31 22 23 32 23 24 30 21 22 
21 27 15 20 26 12 18 25 9 14 20 8 16 22 8 19 25 11 19 25 11 19 23 9 20 24 10 20 29 12 24 28 13 18 24 10 16 22 8 18 24 10 22 26 12 18 24 10 19 25 11 22 26 9 24 31 15 23 30 14 18 24 10 17 23 9 31 25 25 30 26 25 20 21 23 16 20 21 23 23 21 27 26 21 33 32 30 41 41 41 40 41 35 40 44 19 40 44 19 40 46 18 39 48 19 39 40 35 39 39 39 46 46 46 48 48 48 49 49 49 50 50 48 38 43 37 18 32 17 15 28 18 2 13 17 1 15 18 1 14 20 0 13 19 0 14 17 1 15 18 14 20 18 21 22 17 19 25 15 17 23 9 18 25 9 18 22 8 17 23 9 11 13 10 14 15 10 0 13 16 2 13 17 1 15 16 1 15 18 0 13 16 1 15 18 0 14 17 0 14 17 9 13 16 34 13 12 35 11 11 39 9 9 39 9 7 42 26 27 42 27 30 42 28 28 42 28 28 42 28 28 42 28 28 42 28 28 43 29 29 42 28 28 42 28 28 43 29 29 38 24 24 37 23 23 40 26 26 39 27 27 40 19 18 41 13 10 39 11 8 39 9 7 35 14 13 30 20 19 29 20 21 30 24 24 29 23 23 32 23 24 32 23 24 31 22 23 31 22 23 
24 28 13 23 27 12 19 23 9 16 19 8 18 22 8 22 26 11 20 27 11 20 22 11 20 24 10 21 28 12 20 27 11 17 23 9 17 23 9 19 25 13 21 25 11 20 23 12 19 23 9 20 24 10 24 28 14 23 27 13 21 24 15 21 24 13 31 27 24 32 28 27 24 24 24 20 22 19 26 27 22 30 29 24 34 33 29 42 42 42 42 41 36 40 44 17 38 44 16 39 48 21 37 48 18 39 39 37 38 38 40 47 47 47 50 50 50 50 50 50 50 50 50 37 44 36 14 33 14 11 29 17 1 15 18 1 15 18 0 13 16 2 13 19 3 15 15 1 15 15 12 21 16 21 24 15 19 25 13 19 25 11 18 24 10 21 25 10 20 24 10 13 16 9 15 16 11 0 13 19 1 12 16 2 13 17 0 14 17 1 15 18 2 13 17 1 15 18 0 14 17 9 12 17 34 13 12 36 12 12 39 9 9 38 8 6 41 25 26 42 28 28 40 28 28 40 28 28 41 27 27 42 28 28 42 28 28 42 28 28 42 28 28 42 28 28 43 29 29 39 25 25 39 25 25 41 27 27 40 28 28 42 18 18 40 12 9 40 10 8 39 9 7 36 15 14 27 19 17 28 19 20 32 23 24 32 23 24 32 23 24 31 22 23 31 22 23 31 22 23 
22 29 13 23 30 12 20 27 11 19 23 8 19 25 11 26 33 15 22 29 13 17 23 11 19 23 9 17 26 9 21 25 11 17 23 9 19 23 9 17 20 9 16 17 11 15 16 8 15 16 10 15 16 10 21 20 16 21 20 18 31 27 26 30 26 23 35 31 30 35 31 28 32 28 27 29 28 26 36 32 31 39 35 32 43 39 36 46 46 46 46 46 38 38 44 16 38 44 16 38 48 23 38 48 23 39 39 37 38 38 40 47 47 47 49 49 49 51 51 51 53 53 53 36 46 38 9 33 11 6 27 12 1 14 20 1 15 18 1 12 16 2 13 17 6 17 13 7 18 12 17 25 14 24 28 11 23 30 14 22 28 14 22 29 13 21 28 12 22 26 11 18 21 10 17 20 9 0 13 19 0 14 17 2 13 17 0 14 17 0 14 17 1 15 18 1 15 18 0 14 17 8 13 17 33 13 12 34 13 12 40 10 8 39 9 7 41 27 27 42 30 30 39 27 27 41 27 27 40 26 26 39 25 25 39 25 25 42 28 28 43 29 29 42 28 28 42 28 28 43 29 29 41 27 27 39 27 27 41 27 27 42 18 18 42 12 10 41 11 9 39 9 7 37 13 13 29 21 19 28 19 20 32 23 24 33 24 25 32 23 24 32 23 24 27 18 19 27 18 19 
21 27 13 22 31 12 20 27 11 19 22 11 21 25 11 24 31 13 23 30 14 16 22 10 18 21 10 17 23 9 17 23 11 18 22 8 16 22 8 16 19 10 16 19 10 15 18 11 14 17 10 16 17 11 20 19 15 22 21 19 29 25 22 26 25 21 36 32 31 36 32 29 31 30 28 31 27 26 36 32 31 38 34 33 41 40 36 47 47 47 45 46 38 38 44 18 38 44 18 39 49 25 39 47 23 39 39 37 39 39 39 46 46 46 49 49 49 51 51 53 52 52 52 35 45 37 7 32 10 8 31 15 2 16 19 2 16 17 2 16 19 2 16 17 7 19 15 8 19 13 14 24 13 21 28 10 22 29 13 21 28 12 23 27 12 20 26 12 19 28 11 16 22 12 18 20 9 3 14 16 3 14 16 0 14 17 0 14 17 1 15 18 0 13 19 0 14 17 0 14 17 8 13 16 32 14 14 32 12 11 39 9 7 42 8 7 41 27 27 40 28 30 42 26 27 41 26 29 40 26 26 40 26 26 40 26 26 43 29 29 42 28 28 43 29 29 42 28 28 42 28 28 42 28 28 40 26 26 38 26 26 41 17 17 40 12 9 39 11 8 39 9 7 36 12 12 29 21 19 28 19 20 31 22 23 32 23 24 32 23 24 32 23 24 28 19 20 28 19 20 
17 20 9 18 24 10 19 26 10 21 28 12 23 27 12 21 28 12 19 27 12 14 17 6 13 16 5 15 18 9 14 17 8 12 13 8 11 11 9 21 20 18 29 25 24 20 19 17 13 14 9 15 14 10 17 16 14 19 18 14 20 19 17 20 18 19 37 33 30 36 35 31 36 32 31 36 32 31 33 29 26 31 27 26 36 35 33 50 50 48 48 50 39 37 46 17 40 46 20 40 49 28 39 48 29 40 40 38 39 39 39 47 47 47 49 49 49 52 52 52 52 52 52 33 44 36 1 33 10 8 32 16 15 29 29 15 29 29 14 37 31 13 36 28 11 32 27 10 31 26 15 25 14 16 22 8 21 25 11 19 25 11 20 24 10 19 23 9 17 23 9 17 23 11 17 23 9 17 15 16 17 15 16 4 15 17 0 14 17 0 14 17 1 15 18 0 14 17 0 14 17 3 13 15 10 14 17 14 12 15 41 11 9 40 9 7 39 25 25 37 27 26 40 26 26 41 25 26 40 26 26 40 26 26 41 27 27 42 28 28 42 28 28 40 28 28 39 27 27 41 27 27 43 29 29 40 28 28 40 28 28 40 19 18 41 13 10 40 10 8 39 9 9 35 14 13 29 19 18 28 19 20 31 23 21 29 20 21 31 23 21 29 23 23 31 22 23 31 22 23 
18 21 10 19 23 9 23 25 12 21 28 12 24 28 13 24 28 13 20 26 12 14 17 6 15 19 5 14 15 7 14 17 6 11 12 7 11 11 9 22 21 19 29 25 24 20 19 17 13 12 8 15 14 12 17 16 12 18 17 15 22 18 17 19 18 16 39 35 32 38 35 30 36 32 31 35 31 30 32 28 27 31 27 26 37 36 34 50 51 46 48 50 39 38 47 20 38 47 20 38 50 30 38 47 26 39 39 37 39 39 39 47 47 47 50 50 50 51 51 51 52 52 52 34 45 37 2 34 11 9 33 17 16 30 30 15 29 29 14 37 29 13 36 30 10 33 27 10 31 24 14 26 14 17 20 9 18 24 10 20 27 11 21 25 11 17 23 11 19 23 9 19 23 9 18 24 10 17 17 17 18 16 19 5 15 17 1 15 18 0 14 17 0 13 19 0 14 17 1 15 18 4 14 16 9 13 16 15 13 16 40 10 8 41 10 8 39 25 25 37 27 28 39 27 27 40 26 26 41 27 27 40 25 28 39 27 27 42 28 28 43 29 28 41 29 29 42 28 28 41 29 29 40 28 28 39 28 26 39 27 27 40 19 18 42 12 10 40 10 8 39 9 7 34 13 12 29 19 20 28 20 18 30 24 24 31 22 23 30 21 22 31 22 23 31 22 23 31 22 23 
13 14 8 14 15 9 14 15 9 14 15 9 14 15 10 15 14 9 17 16 12 20 19 15 21 20 18 19 18 16 19 18 16 14 10 11 9 9 7 14 13 11 16 15 13 16 15 11 15 14 12 18 17 13 21 20 18 21 20 18 20 19 17 21 20 18 33 29 28 33 29 26 34 30 29 33 29 26 34 30 27 33 29 26 38 37 33 47 50 41 46 48 34 36 46 21 37 47 22 41 48 32 40 48 37 39 39 39 39 39 37 48 48 48 50 50 50 52 52 52 51 51 51 37 46 41 10 37 20 13 35 22 19 31 29 19 31 29 2 23 18 1 23 20 10 33 27 13 34 25 19 29 21 23 24 18 20 23 16 18 21 12 18 20 9 13 16 7 14 15 9 16 15 11 17 16 12 31 27 26 31 27 26 8 16 18 1 12 14 0 14 15 0 13 19 0 14 17 1 15 18 0 14 17 1 15 18 1 15 18 2 13 19 1 15 18 2 13 17 0 13 19 5 14 19 8 16 19 27 23 24 43 29 29 43 29 29 42 27 30 41 27 27 42 28 28 42 28 28 43 29 29 41 29 29 40 28 28 39 27 27 39 18 17 41 13 10 40 12 9 39 9 7 36 12 12 29 19 20 29 20 21 32 21 25 31 22 23 31 22 23 30 24 24 33 23 24 32 23 24 
14 15 9 14 15 9 14 15 7 14 15 9 14 15 7 14 13 8 16 15 10 20 19 15 20 19 17 20 19 17 20 19 17 10 10 8 9 7 8 13 12 10 16 15 13 16 15 13 16 15 13 18 17 15 23 19 18 21 20 18 21 20 18 22 21 19 34 30 29 33 29 26 34 30 29 34 30 27 32 31 27 32 31 29 38 37 32 47 50 41 45 49 35 36 46 21 36 46 21 39 47 34 40 48 33 39 41 38 40 40 38 47 47 47 50 50 50 51 51 51 51 51 51 36 46 38 12 36 20 12 36 22 19 31 29 19 31 29 2 22 20 3 23 21 11 32 25 13 34 27 19 29 20 23 24 16 20 23 14 18 21 10 17 20 9 14 17 10 15 16 10 17 18 13 17 18 13 31 27 26 27 26 24 8 16 18 2 13 15 0 14 15 1 15 18 0 14 17 0 14 17 0 14 17 1 15 18 0 14 15 0 14 17 0 13 19 0 13 19 0 14 17 7 16 21 8 16 19 26 21 25 43 29 29 42 28 28 43 29 29 42 28 27 43 29 29 40 29 27 42 28 28 43 29 28 39 27 27 39 27 27 39 18 17 41 11 9 40 12 9 39 9 9 34 13 12 28 19 20 30 20 21 30 24 24 29 23 23 31 22 23 29 23 23 31 23 21 32 23 24 
11 12 7 10 11 6 12 11 7 13 12 8 13 14 9 14 15 9 15 16 10 18 17 13 19 18 14 22 18 15 21 20 18 14 13 11 15 13 14 15 14 12 15 14 12 14 13 11 13 12 10 15 14 12 23 19 18 22 21 19 20 18 19 20 19 17 22 21 19 22 21 19 25 25 17 25 26 20 28 31 22 32 36 22 36 38 27 42 49 31 41 48 32 36 46 19 36 46 21 40 45 38 41 46 39 41 41 39 41 41 41 48 48 48 51 51 51 50 50 52 49 49 49 38 44 40 21 39 27 20 37 27 16 35 29 18 35 29 1 21 19 1 20 18 8 23 20 8 24 21 25 30 26 36 35 30 37 33 30 36 32 29 30 29 25 21 20 15 20 19 14 17 16 14 17 16 14 25 21 22 26 22 21 9 14 17 4 14 15 2 17 14 2 18 17 1 17 16 0 16 16 0 15 18 0 15 18 0 15 18 0 14 17 1 15 18 0 14 17 0 14 17 3 14 18 4 15 19 6 16 18 12 17 20 15 19 22 23 21 22 29 23 25 44 28 29 44 28 29 38 26 26 40 26 26 38 26 26 39 27 27 42 18 18 41 13 10 40 12 11 38 8 8 34 13 12 28 20 18 29 20 21 32 23 24 32 23 24 20 20 22 21 21 23 12 17 20 8 16 18 
8 10 5 8 9 4 11 11 9 13 13 11 14 15 10 13 14 8 14 15 9 18 17 12 18 17 12 20 19 17 20 20 18 17 16 12 16 15 13 15 14 12 15 14 12 14 13 11 12 10 11 16 15 13 23 19 18 22 21 19 20 19 17 20 19 17 19 18 16 19 18 16 21 22 16 21 22 14 27 30 19 31 35 21 36 40 26 43 47 30 40 48 27 34 47 19 33 45 21 40 45 38 42 45 38 40 42 41 40 40 40 47 47 47 52 52 52 50 50 50 49 49 49 40 46 42 24 40 30 23 40 30 17 37 28 19 36 28 0 20 18 1 20 18 4 20 17 6 20 21 28 30 27 42 36 36 41 37 34 41 37 36 35 31 28 23 22 17 21 20 16 18 17 15 17 15 16 22 21 19 24 20 19 9 15 15 5 15 16 3 17 17 1 20 18 0 19 17 0 16 16 0 16 16 0 15 18 1 16 19 1 15 18 2 16 19 0 16 18 1 15 18 1 15 18 1 15 18 0 14 17 2 13 17 7 15 18 18 19 23 23 21 24 45 29 29 44 28 29 40 26 26 38 26 26 38 26 28 38 26 28 40 19 18 41 13 10 40 12 9 39 9 9 35 14 13 28 19 20 28 19 20 32 23 24 32 23 24 19 19 21 18 19 21 5 15 17 2 13 17 
11 12 7 10 10 8 9 11 8 11 9 10 12 10 11 13 13 11 15 14 12 20 19 15 22 18 15 20 19 17 21 20 18 14 12 13 15 14 12 14 12 13 13 12 10 15 14 12 16 15 13 19 18 16 24 23 19 26 22 21 26 22 21 27 23 22 26 22 21 26 22 21 21 20 16 22 21 17 30 31 26 37 38 33 35 41 29 38 46 22 39 47 26 34 48 22 33 47 22 41 43 40 40 42 37 40 40 40 41 41 41 48 48 48 50 50 50 49 49 51 47 47 47 42 46 45 32 43 37 28 41 34 13 36 26 13 37 24 2 21 15 3 24 17 10 20 19 10 22 20 32 32 30 41 37 34 38 37 35 38 34 33 32 28 25 19 18 13 19 18 14 25 24 22 24 23 21 18 17 15 19 18 16 9 15 15 4 14 13 2 17 14 1 20 16 0 19 17 1 17 17 2 17 20 1 17 17 1 16 19 1 16 19 1 17 17 0 15 18 0 16 16 2 16 19 1 17 17 0 15 18 0 15 18 2 16 19 7 18 20 8 18 20 16 20 21 19 20 24 33 24 25 30 24 24 39 27 29 42 28 28 42 18 18 42 12 10 40 10 8 38 8 8 33 13 12 27 18 19 23 17 19 12 18 18 12 16 19 7 15 18 7 17 19 4 13 18 1 15 18 
12 11 9 10 10 8 10 9 7 8 6 7 11 10 8 14 13 11 17 15 16 23 19 16 20 18 19 23 22 20 20 19 17 15 14 12 13 12 7 13 12 10 13 12 10 16 15 13 18 17 15 19 18 16 23 22 20 25 21 20 31 27 26 32 27 24 29 25 24 29 25 24 23 22 20 20 19 17 32 32 32 39 39 39 39 42 31 36 46 22 35 47 23 32 48 22 33 47 22 41 43 40 41 43 40 40 40 40 40 40 40 48 48 48 51 51 51 49 49 49 48 48 48 41 45 44 35 44 41 31 42 36 9 35 22 9 35 22 2 21 15 1 21 12 12 23 19 12 21 18 31 33 28 41 37 34 39 35 32 37 31 31 30 26 23 16 17 12 17 18 13 29 25 22 29 25 26 16 16 14 17 16 14 7 13 13 4 14 13 2 16 16 1 20 16 0 19 18 0 18 18 0 18 16 0 18 20 0 18 18 2 18 18 0 18 18 0 17 19 0 15 18 0 15 18 1 16 19 0 15 18 2 16 19 0 15 18 2 18 18 2 16 19 0 15 18 1 15 16 26 25 23 24 23 21 41 27 27 42 28 28 39 18 17 41 11 9 40 12 9 39 9 7 32 12 13 24 18 20 19 17 18 3 14 18 1 15 18 1 15 18 0 14 15 0 13 16 2 13 17 
15 16 11 16 17 9 12 14 9 10 10 8 12 11 7 13 11 12 15 14 12 20 19 17 20 19 17 18 17 15 19 18 16 15 14 12 13 13 13 14 12 13 13 12 10 17 16 14 20 19 15 24 20 17 22 21 19 23 22 20 28 26 27 30 26 25 29 25 24 31 27 24 22 18 19 17 16 14 35 33 34 44 44 42 42 45 34 36 46 22 34 48 23 33 49 22 32 47 24 40 42 41 40 42 41 40 40 40 39 41 40 49 47 48 51 51 51 48 50 49 47 47 47 44 46 45 40 44 43 32 43 37 9 35 22 9 35 22 3 20 10 4 20 10 22 28 26 25 31 27 34 33 29 39 35 34 38 34 31 36 32 29 30 26 25 16 15 10 18 17 13 27 26 24 30 26 25 16 15 13 17 16 14 7 13 13 3 14 10 5 17 13 1 20 16 0 20 18 0 20 18 2 18 17 1 20 18 0 19 17 2 18 15 2 18 18 1 17 17 2 18 18 1 17 17 0 18 18 0 15 18 0 16 16 1 17 17 0 17 17 1 17 17 1 15 16 1 17 17 20 21 23 16 22 20 25 23 24 25 25 25 35 17 17 41 13 10 40 10 8 37 9 8 31 13 11 16 17 19 16 17 19 0 13 19 1 15 18 0 14 17 1 15 18 1 15 18 0 14 17 
21 25 11 26 30 15 17 20 9 12 15 8 12 13 8 11 9 10 13 12 10 19 18 16 22 18 17 13 11 12 14 13 11 14 13 11 15 14 12 14 12 15 12 12 10 18 20 17 23 22 20 25 21 20 19 18 16 20 19 17 28 27 25 29 25 22 32 28 27 33 29 28 16 15 13 11 11 9 37 35 36 52 50 51 44 50 40 37 49 25 33 49 23 29 47 21 31 46 23 40 40 40 40 40 40 42 40 41 41 41 41 48 48 48 51 51 51 48 48 48 45 45 45 46 48 47 45 49 48 35 44 39 4 35 19 3 34 18 8 18 10 8 18 10 39 38 36 42 41 39 39 35 34 36 32 31 36 32 31 35 31 28 27 26 24 17 16 14 18 17 15 31 27 26 29 28 26 17 13 12 15 13 14 6 12 10 3 14 8 3 18 13 2 21 17 4 21 15 5 22 14 2 22 13 3 23 14 2 21 15 0 19 17 0 19 15 1 20 18 2 21 19 0 19 17 1 19 19 0 19 17 0 18 18 0 18 18 0 20 19 0 18 18 0 18 18 0 17 17 0 18 18 2 18 18 0 18 18 0 17 17 26 14 14 41 13 10 40 10 10 38 8 6 26 12 11 5 17 17 6 16 17 0 18 18 1 17 17 3 19 19 0 17 17 1 15 16 1 16 19 
20 27 9 23 27 12 18 22 8 12 15 6 12 13 8 11 9 10 13 12 10 16 16 14 16 16 14 12 12 12 12 12 10 16 15 13 15 14 12 14 13 11 14 13 11 19 18 16 22 18 17 23 19 18 18 17 15 19 18 16 26 22 21 27 23 22 31 27 24 31 27 24 17 16 14 11 11 9 36 36 34 50 52 51 47 50 41 35 49 24 34 50 24 30 50 23 29 47 23 39 39 39 39 39 39 42 42 44 41 41 41 47 47 47 50 50 50 48 48 48 45 45 45 44 46 45 48 50 49 36 45 40 2 35 18 3 34 18 10 20 12 9 19 11 38 38 36 43 42 40 36 33 28 30 29 24 32 31 27 32 31 26 26 25 20 17 16 14 18 17 13 29 28 24 29 28 26 14 13 11 14 12 13 8 14 10 9 15 11 6 19 12 6 23 15 5 22 14 3 23 12 5 25 16 6 26 15 6 26 17 2 21 17 2 21 15 2 21 15 2 21 15 1 20 14 2 21 17 1 20 16 2 18 17 0 19 17 0 19 17 1 20 18 0 19 17 0 19 17 0 18 18 0 19 17 1 20 18 0 19 15 25 15 13 37 13 11 39 11 10 39 9 7 27 11 12 3 19 18 4 19 16 3 19 19 2 18 18 3 19 19 0 18 18 0 17 19 1 17 17 
22 29 13 20 27 11 16 22 8 15 16 8 12 14 9 12 10 11 12 11 9 9 9 7 9 7 8 13 12 10 12 12 10 16 16 14 17 16 14 15 14 12 14 12 13 15 15 15 17 15 16 17 16 14 15 14 12 16 15 13 17 16 14 16 15 13 23 22 20 23 21 22 15 14 12 13 9 10 37 36 34 50 52 49 42 52 43 33 48 25 32 50 26 27 51 25 29 48 26 39 39 39 39 39 41 40 40 40 41 41 41 49 49 49 51 51 51 47 47 47 43 43 43 46 46 46 50 50 50 38 47 42 1 34 17 2 33 17 15 25 17 12 23 15 38 38 36 44 40 39 27 28 20 18 21 10 19 22 13 24 25 19 23 24 18 20 21 16 19 20 15 25 24 20 26 25 23 10 10 10 12 11 9 15 15 13 17 15 16 11 21 13 8 24 14 10 26 15 10 28 16 12 30 18 16 34 22 15 33 21 8 25 15 7 25 13 7 24 14 6 24 12 7 23 13 6 23 13 4 21 15 0 19 17 1 20 18 0 19 17 1 20 16 0 19 13 0 19 13 0 19 17 0 19 17 2 21 19 0 19 15 17 16 14 28 14 11 35 11 9 40 9 7 26 12 11 2 18 15 3 19 18 0 18 20 0 18 18 0 18 18 0 17 17 0 18 18 0 17 17 
18 26 11 21 25 11 17 20 9 16 17 11 14 14 12 14 13 11 12 11 9 10 10 8 10 8 9 13 12 10 14 13 11 18 16 17 19 18 16 15 14 12 14 13 11 16 15 13 17 16 12 17 16 14 16 16 14 16 15 11 19 18 16 18 17 15 23 22 20 21 20 18 15 14 12 13 11 12 36 36 34 50 52 47 44 50 40 34 49 26 32 50 26 28 51 25 30 49 27 38 38 38 39 37 40 40 40 40 41 41 41 48 48 48 50 50 50 46 46 46 43 43 43 46 46 46 52 52 52 40 46 42 1 34 17 3 34 18 14 25 17 14 25 17 38 39 34 43 39 38 27 28 22 19 21 10 21 25 11 24 25 17 22 23 17 18 19 13 20 19 14 26 22 19 25 24 19 12 11 9 12 12 12 16 15 13 18 17 15 11 22 14 5 23 11 8 26 14 10 28 16 11 29 17 16 34 22 14 32 20 8 26 14 6 24 12 7 24 14 6 24 12 6 23 13 5 22 12 3 22 18 1 20 16 0 21 16 1 20 16 0 19 15 0 21 14 2 21 15 1 20 16 1 20 14 1 20 16 0 19 15 16 16 14 24 14 12 29 14 11 35 9 8 24 13 11 4 19 16 2 18 15 0 19 15 0 19 17 0 18 18 2 18 18 0 18 16 0 19 17 
15 18 7 13 16 7 14 15 10 15 14 12 18 17 15 19 18 16 16 15 13 10 9 7 10 8 9 20 19 17 19 18 16 22 20 21 21 20 18 17 15 16 16 15 13 17 18 10 18 21 10 17 20 9 17 20 9 18 19 13 25 24 19 26 25 21 24 20 19 23 22 20 18 17 15 16 14 15 35 37 32 45 50 43 39 51 37 32 49 30 31 50 28 28 52 28 30 49 29 39 37 38 39 37 40 41 41 41 41 41 41 49 49 49 50 50 50 47 47 47 41 41 41 46 46 46 53 53 53 42 48 44 1 34 17 1 33 18 21 32 28 21 32 26 37 36 32 39 35 34 34 30 27 31 27 24 26 25 20 20 21 13 19 22 15 16 22 12 18 21 10 17 20 11 18 19 11 26 22 19 24 23 19 21 20 16 20 19 17 9 19 11 1 18 8 3 23 11 4 24 12 5 26 11 8 28 16 7 27 16 2 22 10 3 23 11 2 22 10 1 23 10 2 24 11 1 23 10 0 24 10 1 23 10 0 24 11 0 22 10 0 22 10 1 21 10 0 20 11 2 22 11 0 20 9 1 21 12 1 21 12 1 21 12 0 20 11 2 22 13 1 20 14 0 19 13 1 20 14 0 19 13 1 20 14 0 19 13 1 20 16 2 18 15 0 18 18 2 18 18 
13 19 7 15 14 9 15 14 9 15 15 13 16 17 12 20 19 17 16 15 13 10 10 10 9 9 9 19 18 16 20 16 15 21 20 18 23 19 18 17 15 16 16 14 15 17 18 10 18 22 8 16 22 10 18 21 12 17 18 12 25 24 20 25 26 21 23 22 20 22 21 19 18 17 15 16 14 15 36 38 33 45 51 41 40 51 37 32 50 28 31 50 28 30 54 30 28 50 27 38 38 36 37 37 39 40 41 45 41 41 41 48 48 48 51 51 51 46 46 46 42 42 42 46 46 46 52 52 52 42 48 44 2 35 18 0 34 18 21 32 26 21 32 26 35 34 30 39 35 32 31 32 27 30 29 25 26 25 20 23 23 15 20 23 14 19 22 11 18 21 10 17 20 11 18 19 13 24 23 19 23 22 18 21 20 16 20 19 15 9 19 11 3 21 9 2 22 10 4 24 12 4 27 11 7 27 15 6 26 14 2 22 10 1 24 8 1 23 10 2 24 11 1 23 10 2 24 11 2 24 11 1 25 12 1 23 11 2 22 11 1 21 12 2 22 13 1 21 12 0 21 12 0 22 10 0 20 11 0 20 11 0 20 11 2 19 13 2 22 13 1 20 14 1 20 14 0 19 13 1 20 16 1 20 16 1 20 14 0 19 17 0 19 15 1 19 19 0 18 18 
15 16 11 17 16 12 17 16 12 17 17 15 19 18 16 20 19 17 17 15 16 11 10 8 9 9 7 14 14 12 15 13 14 18 14 13 19 15 14 17 16 14 18 14 13 18 17 15 23 22 18 20 19 15 15 14 9 16 15 10 27 23 20 25 24 20 28 24 23 27 23 22 29 27 28 30 28 29 35 40 33 38 49 35 35 49 32 30 52 29 32 51 29 29 53 31 29 50 31 38 38 38 37 37 37 39 39 39 41 41 41 48 48 48 50 50 50 45 45 45 40 40 40 45 45 45 53 53 53 42 48 44 8 34 21 9 35 22 18 31 22 18 31 24 39 38 34 39 38 36 33 32 30 33 29 26 28 27 23 22 22 20 17 17 15 12 13 8 15 16 11 30 26 25 30 26 25 19 22 13 18 19 11 20 23 12 20 23 12 7 20 10 2 18 7 2 19 9 2 22 11 2 22 10 3 23 12 1 23 10 0 23 7 0 23 7 1 23 10 1 23 10 0 22 10 0 22 10 1 23 11 2 22 11 1 21 10 1 21 12 1 21 10 0 20 11 1 21 12 0 21 9 1 21 12 1 21 10 0 20 11 0 20 11 3 20 14 0 20 9 1 21 10 1 21 10 0 20 9 0 20 11 2 19 9 0 20 11 1 21 12 0 20 11 1 21 12 1 21 12 
17 16 14 17 16 14 19 18 16 23 19 18 19 18 16 22 21 19 17 16 14 9 9 9 10 9 7 13 13 11 15 14 12 16 15 13 17 16 14 15 13 14 15 14 12 19 17 20 23 22 18 21 20 18 13 14 9 14 15 10 26 25 21 26 25 20 27 26 24 28 24 25 30 29 27 32 30 31 34 42 31 37 50 33 36 51 32 30 52 31 30 52 29 30 53 33 29 52 32 39 37 38 37 37 37 40 40 40 42 42 42 49 49 49 51 51 51 45 45 45 39 40 42 45 45 45 52 54 53 43 49 45 9 35 22 8 35 20 19 32 23 16 31 24 39 40 35 40 39 35 34 33 31 34 30 27 29 25 22 23 22 20 19 18 16 10 11 6 14 13 11 29 28 26 31 27 26 18 21 12 19 20 12 20 24 10 20 24 10 7 20 11 3 16 9 1 18 8 0 21 9 1 21 10 1 21 10 1 21 10 1 23 10 0 22 10 1 23 10 1 23 11 1 21 10 1 21 10 1 20 14 1 21 10 0 20 9 0 20 11 1 21 12 1 21 12 0 20 11 1 21 12 1 21 12 1 21 10 1 21 10 0 20 9 0 20 9 0 20 9 0 20 9 1 21 10 1 21 12 1 21 10 0 20 9 1 21 10 1 21 12 1 21 10 0 20 11 0 20 9 
15 15 17 16 16 16 18 17 15 19 18 16 19 18 16 22 18 17 17 16 14 10 10 8 10 10 8 19 18 16 19 18 16 20 18 19 19 18 16 16 15 13 15 14 12 18 17 15 22 21 19 21 20 18 17 16 14 18 17 15 27 27 25 28 24 23 22 21 19 21 20 18 38 36 37 43 43 43 39 49 38 38 51 34 34 51 32 27 51 29 28 52 30 30 51 32 31 49 33 37 37 37 37 37 37 41 41 41 41 41 41 48 48 48 51 51 51 46 46 46 40 40 40 44 44 44 51 51 49 41 46 42 12 34 21 11 31 20 28 33 29 29 34 30 36 35 33 37 33 32 36 30 30 33 29 28 25 24 22 18 17 15 16 15 13 10 11 6 11 12 7 22 24 13 23 23 15 20 23 12 20 23 12 17 23 9 17 23 9 9 19 10 4 15 7 2 17 10 1 23 11 2 24 12 3 23 11 2 22 10 2 24 11 2 24 12 0 22 10 1 23 11 1 23 11 0 22 9 1 21 10 0 22 10 0 22 10 0 20 9 1 21 12 1 20 14 0 20 11 1 21 12 1 21 12 2 22 11 0 20 9 0 20 9 1 21 10 1 21 12 1 21 10 0 20 11 1 21 10 1 21 12 1 21 12 0 20 11 1 21 12 0 19 13 2 21 15 1 21 12 
16 16 18 14 14 14 17 16 14 19 18 16 19 18 16 21 17 16 17 16 14 11 10 8 9 9 9 23 19 18 22 21 19 20 19 17 19 18 16 18 17 15 16 15 13 19 18 16 23 22 20 21 20 18 18 17 15 19 18 16 29 25 22 29 25 24 20 19 17 19 18 16 39 39 39 46 46 44 40 50 39 35 52 34 33 50 32 26 50 28 27 51 29 29 50 35 30 48 34 36 38 37 38 38 36 40 42 41 41 41 41 48 48 48 50 50 50 45 45 45 40 40 40 44 44 44 50 50 50 40 44 43 12 32 20 14 31 21 32 34 31 32 34 31 37 33 30 36 32 29 33 32 30 33 29 28 27 23 22 19 18 14 16 15 13 10 9 7 11 12 7 20 23 12 19 22 11 18 24 10 18 24 12 17 23 9 18 22 8 8 18 9 3 14 6 4 20 10 5 23 11 3 23 12 4 24 12 3 23 11 2 22 10 1 23 10 0 22 10 0 22 9 0 22 10 0 22 9 0 22 10 0 22 10 1 21 10 0 20 8 0 20 9 0 20 11 0 20 11 1 21 12 0 20 11 0 20 9 1 21 10 1 21 10 0 19 13 1 21 10 0 20 11 1 21 12 0 20 9 1 21 10 0 20 11 1 21 12 0 19 13 0 19 13 1 21 12 1 21 12 
16 16 16 14 13 11 19 15 14 18 17 15 19 18 16 19 18 16 18 17 15 9 9 7 9 9 7 20 21 15 21 22 16 19 18 14 18 17 15 16 15 13 16 15 13 18 17 15 21 20 18 21 20 18 17 16 14 18 17 15 26 22 21 23 22 18 18 19 14 19 20 15 41 41 39 49 49 49 39 51 39 36 53 35 33 52 32 26 51 29 26 51 32 34 50 37 32 48 37 37 37 37 38 38 38 40 40 40 41 41 41 48 48 48 50 50 50 39 39 37 28 30 25 31 32 26 36 39 32 32 37 30 17 33 23 19 32 23 38 37 35 36 38 35 37 33 30 34 33 31 27 26 24 23 22 20 21 20 18 19 18 16 16 15 13 11 10 8 10 11 6 20 23 12 19 22 11 19 26 10 23 27 13 18 26 11 19 26 10 10 17 9 6 12 8 5 18 9 3 23 11 2 22 11 3 23 11 4 24 13 3 23 12 2 22 11 2 22 13 1 21 10 0 20 11 1 21 12 1 21 12 1 21 12 1 21 12 1 21 12 1 21 12 1 20 14 0 19 13 1 20 14 0 19 13 1 21 12 0 20 11 0 19 13 0 19 13 0 19 13 0 19 13 0 19 13 0 19 13 0 19 13 0 20 11 1 21 12 1 20 14 0 19 13 1 20 14 0 19 15 
