P3
100 50
255
128 60 37 128 60 39 128 60 39 128 60 39 129 61 40 129 61 42 127 60 41 127 60 41 128 59 43 128 60 41 128 59 43 128 59 44 127 58 42 128 59 44 127 58 43 127 58 43 128 58 48 127 57 45 126 56 46 128 55 46 126 56 48 126 55 49 128 54 51 130 54 54 129 53 55 129 53 57 130 53 59 134 54 63 138 56 68 141 57 72 146 57 75 151 59 80 154 62 87 160 64 91 164 65 96 169 65 102 173 68 108 176 69 115 181 65 128 131 61 121 1 55 67 1 55 65 1 55 65 2 56 66 2 56 66 2 56 66 0 57 66 2 56 66 0 57 66 0 57 64 0 57 66 1 58 65 0 57 64 1 58 65 1 58 65 2 59 66 2 59 66 2 60 64 2 59 66 3 57 81 3 55 94 3 56 98 3 56 100 3 56 98 3 54 99 3 56 98 3 56 98 3 56 98 11 64 104 63 121 133 71 130 136 69 128 136 8 61 101 49 44 110 127 23 122 120 20 106 112 20 95 109 22 93 109 22 90 110 24 89 108 24 86 109 25 85 110 26 85 111 26 81 112 29 83 113 29 81 118 31 84 119 31 82 121 33 83 122 34 84 122 35 80 123 36 81 123 36 79 122 36 81 121 35 80 121 36 78 121 36 78 122 37 79 122 37 79 121 35 80 
128 59 43 127 58 42 127 58 42 128 59 43 127 58 42 127 58 43 126 57 42 126 56 44 126 56 44 126 56 44 127 57 45 127 57 45 126 56 48 126 56 46 125 55 47 125 55 47 125 54 48 126 55 49 125 54 50 125 54 50 125 54 52 128 54 53 128 53 57 127 52 56 128 51 59 129 52 62 128 50 63 131 50 65 136 51 72 140 52 74 145 55 80 149 57 82 153 60 89 158 61 94 161 61 99 167 65 105 173 66 110 176 65 118 183 64 132 131 61 123 0 54 66 0 54 64 0 54 64 1 55 65 1 55 65 1 55 65 2 56 66 2 56 66 1 58 67 1 58 65 0 57 66 1 58 65 1 59 63 1 58 67 1 58 65 1 58 65 1 58 65 1 59 63 2 60 64 2 59 66 2 58 73 3 55 94 5 56 99 3 56 98 4 55 100 2 57 96 3 56 98 2 55 97 2 55 99 36 92 117 68 128 136 72 131 137 18 72 106 10 52 100 115 25 121 124 18 110 114 19 100 110 20 92 110 20 90 109 22 90 108 23 90 108 23 88 108 22 85 110 24 85 111 25 86 111 26 85 115 27 87 117 28 86 119 30 88 120 31 87 121 32 86 122 32 84 122 32 84 121 33 84 121 33 84 120 32 83 120 32 83 121 33 84 121 33 84 121 33 84 
127 57 45 127 57 47 126 56 44 126 56 44 129 56 47 125 57 46 126 56 46 127 57 47 128 55 48 125 55 47 125 54 48 125 54 48 123 54 49 124 53 49 126 52 51 124 53 51 125 54 52 127 53 52 126 52 53 126 51 55 123 51 55 124 51 58 125 49 59 127 50 60 127 49 63 127 49 65 129 48 67 130 49 68 133 49 73 139 50 78 143 53 81 147 53 87 150 56 92 156 58 96 162 61 101 165 62 107 169 63 112 176 64 122 181 63 137 127 58 121 1 53 66 0 54 64 1 53 64 2 54 65 1 55 65 1 55 65 2 56 66 2 56 66 0 57 64 0 57 66 0 57 64 1 58 65 1 58 65 2 59 66 1 58 65 1 58 65 1 58 65 1 59 63 2 60 64 1 59 63 1 59 63 2 58 71 3 55 92 3 54 97 2 55 97 2 55 99 3 56 96 3 56 100 2 55 99 7 60 100 40 96 119 63 123 131 14 68 102 2 55 97 98 32 122 135 18 123 121 18 107 111 21 95 110 20 94 108 21 92 108 21 89 109 22 90 109 23 88 110 24 89 110 24 87 114 25 89 116 26 88 116 28 89 119 27 90 120 28 91 121 30 91 122 31 90 122 31 90 121 30 89 120 29 88 120 29 86 120 29 88 121 32 90 122 31 90 121 32 90 
125 54 48 124 53 47 127 54 48 127 54 48 127 53 50 127 53 52 125 54 52 125 54 52 126 52 51 126 52 51 125 53 54 123 53 53 123 51 52 122 50 53 122 50 54 124 49 53 125 50 57 125 50 57 124 49 56 125 49 59 124 48 60 124 48 61 125 47 63 126 48 64 126 47 68 126 47 69 128 45 71 129 46 76 133 46 78 136 47 79 141 50 85 146 50 88 150 55 97 155 54 98 159 57 104 163 56 108 168 61 115 175 62 126 185 62 143 97 57 110 1 53 66 1 53 66 3 53 64 1 55 65 2 54 65 0 56 65 0 57 66 2 56 66 0 57 66 0 57 64 0 57 64 1 59 63 1 58 65 1 58 65 0 57 64 1 59 63 1 59 63 2 60 64 1 58 65 1 59 63 2 60 64 2 60 64 2 59 70 3 56 90 2 55 99 2 55 99 3 56 98 2 55 95 2 55 97 4 56 96 4 57 99 9 63 101 2 55 95 1 54 94 45 45 109 136 20 131 134 18 119 119 19 105 110 19 96 107 20 91 108 21 92 108 21 90 110 20 90 111 22 90 112 22 92 114 23 92 115 24 93 116 25 94 118 25 95 119 27 94 121 29 94 123 28 94 123 28 94 120 28 93 120 28 93 120 28 93 119 27 92 120 28 93 120 28 93 120 28 95 
124 53 51 124 52 53 124 52 53 124 52 55 126 52 53 125 50 54 125 50 55 124 49 53 122 50 54 123 51 55 125 50 55 125 50 57 125 50 57 125 49 59 125 49 59 124 48 58 122 49 60 123 47 60 124 48 61 124 47 63 123 46 64 123 46 64 124 45 66 126 44 67 125 45 72 127 44 74 126 42 75 127 43 77 129 44 77 132 44 82 139 48 89 144 49 91 149 50 97 152 52 102 156 53 108 160 55 112 167 57 118 174 60 130 182 60 145 73 56 100 1 53 64 1 53 64 1 53 64 1 55 65 1 55 65 1 55 65 2 56 66 2 56 66 0 57 64 1 58 65 0 57 64 1 58 65 1 58 65 0 57 64 1 58 65 1 58 65 3 58 63 1 59 63 1 59 63 1 59 63 1 58 65 1 59 61 1 59 61 2 59 70 2 55 95 3 54 97 3 54 97 3 54 97 2 55 95 3 56 98 2 55 97 3 55 95 3 55 95 2 54 94 12 53 99 90 34 121 144 15 131 128 18 117 116 18 103 109 18 97 107 19 95 106 18 94 108 21 92 111 21 93 111 21 93 110 23 92 113 23 93 115 24 93 116 25 95 120 24 96 121 25 97 120 27 98 121 25 97 121 25 96 119 26 96 121 25 96 121 25 96 122 26 97 122 26 98 120 24 96 
123 51 55 123 50 57 122 49 56 122 49 56 125 49 59 125 49 59 124 48 58 124 48 60 123 47 59 124 48 61 121 47 60 123 47 60 123 47 60 123 46 62 123 47 60 123 46 64 122 45 63 120 45 65 123 45 67 123 44 66 123 43 68 123 43 70 124 41 71 125 42 72 125 41 75 125 39 76 126 40 79 127 40 82 129 41 83 133 42 86 137 44 91 141 45 93 146 48 99 149 48 104 155 52 108 158 54 113 164 55 123 175 57 135 164 56 141 48 54 88 1 53 66 1 53 64 1 53 64 1 55 65 1 55 65 1 55 65 2 56 66 1 55 65 2 57 64 2 57 64 0 57 64 0 57 64 0 57 64 0 57 64 1 58 65 0 57 64 3 58 65 1 59 63 1 59 63 1 59 63 1 59 63 1 59 63 1 59 61 2 60 64 2 58 71 3 55 94 3 54 97 4 55 98 3 54 97 2 54 94 3 55 95 2 55 95 4 56 96 3 54 97 2 55 97 24 49 103 106 28 129 140 18 129 126 16 113 116 18 105 111 18 99 110 17 97 109 18 95 110 19 96 109 21 95 110 20 92 113 21 96 115 21 97 119 22 99 121 22 102 120 23 102 122 23 103 120 23 100 121 24 101 121 24 101 121 24 101 121 25 99 121 24 101 122 24 99 121 23 100 
124 48 60 123 47 60 123 47 60 123 47 60 123 46 62 124 47 63 123 46 62 123 46 64 123 46 64 122 45 63 123 46 66 124 45 66 123 44 66 123 44 66 121 41 66 123 43 68 122 42 69 122 42 69 121 42 71 121 41 70 122 42 71 122 41 74 121 39 75 124 40 76 124 38 77 125 38 80 125 38 81 126 39 84 128 36 85 132 40 91 136 42 95 140 42 99 144 45 102 147 46 106 153 49 110 157 51 115 165 53 125 177 55 140 139 55 132 22 54 75 1 53 66 1 53 64 1 53 64 1 54 62 2 54 65 1 55 65 1 56 63 1 56 63 2 57 64 2 57 64 2 57 64 1 58 65 0 57 64 0 57 64 1 58 65 0 57 64 3 58 63 1 58 65 3 58 65 3 58 63 1 59 63 1 59 63 1 59 60 1 59 61 3 58 63 2 58 75 4 56 95 3 55 95 3 54 97 2 53 98 3 55 95 2 55 95 2 55 95 3 54 97 2 53 96 2 54 93 37 45 107 135 22 136 140 16 128 128 16 116 117 17 107 113 17 104 109 18 97 109 18 97 110 19 96 109 21 97 111 21 95 113 21 98 115 21 99 119 22 103 121 22 104 121 22 104 121 22 104 121 22 104 120 23 102 120 23 102 120 23 102 120 23 102 121 22 102 120 21 103 
123 46 66 121 44 64 122 45 65 121 44 64 122 44 66 122 44 66 121 43 67 121 43 67 121 43 69 122 44 68 122 42 69 122 42 69 122 42 71 122 41 73 121 40 72 121 40 72 121 40 73 123 39 73 123 39 75 122 37 76 123 37 76 122 37 78 122 35 78 123 36 81 124 37 80 124 35 83 125 35 87 125 34 91 127 34 89 131 36 94 134 38 99 138 39 103 143 41 106 146 44 110 151 46 113 157 47 120 165 50 128 175 52 143 116 53 123 3 52 66 1 53 66 1 53 64 1 53 64 1 53 64 1 53 64 1 53 64 1 56 63 1 56 63 1 56 63 2 57 64 1 56 63 2 57 64 0 57 64 0 57 64 1 58 65 0 57 64 3 58 65 1 59 63 3 58 63 3 58 63 1 59 63 1 59 63 1 59 61 1 59 61 1 59 61 1 58 65 2 57 78 3 55 95 3 55 95 3 54 97 2 53 96 2 55 97 2 54 94 2 54 94 1 54 94 2 54 94 4 53 94 68 39 119 139 22 139 145 16 135 133 16 123 123 16 112 116 17 107 115 16 106 115 17 102 112 17 101 113 18 100 114 19 101 118 18 104 118 20 105 120 20 106 123 21 107 123 21 107 123 21 107 123 21 107 124 22 108 123 20 109 125 21 108 126 22 109 127 21 113 
122 42 69 122 42 69 122 42 69 122 42 69 122 42 71 122 42 71 122 41 73 122 41 73 121 40 73 121 40 73 121 40 73 121 40 73 123 39 75 123 38 77 121 36 75 121 36 77 121 36 77 119 37 77 120 37 79 122 36 81 121 35 82 121 35 82 122 34 84 123 33 85 125 35 89 124 34 88 124 33 90 124 33 92 126 32 94 128 32 96 132 35 102 136 37 104 140 40 110 144 41 114 148 42 116 158 47 126 165 47 135 176 51 151 82 51 110 2 52 63 0 52 63 1 53 64 1 53 64 1 53 64 1 53 64 1 53 64 1 55 65 1 55 65 1 56 63 2 57 64 2 57 64 2 57 64 1 58 65 0 57 64 1 58 65 1 58 65 3 58 65 3 58 63 3 58 63 3 58 63 1 59 61 1 59 63 3 58 63 1 59 63 1 59 61 1 59 61 1 59 61 2 56 80 3 55 95 3 54 99 2 53 96 3 54 97 2 53 96 2 53 96 2 53 96 2 54 93 2 54 93 3 55 95 39 44 108 113 27 134 154 15 144 145 16 135 134 16 126 131 16 120 128 17 119 124 17 113 123 18 110 123 18 111 124 19 111 123 18 111 125 20 115 127 20 116 130 20 117 134 19 120 136 19 123 136 19 123 135 20 123 136 19 123 140 20 126 142 21 127 
124 40 74 123 39 73 122 38 74 122 38 74 123 39 75 123 39 75 123 38 77 122 37 78 122 37 78 121 36 77 121 36 78 121 36 78 121 36 78 122 36 81 121 35 82 120 34 81 121 33 81 121 33 83 122 34 84 122 34 85 121 32 86 121 32 86 122 31 88 120 31 89 122 31 90 124 30 92 123 28 92 125 30 96 128 31 100 129 32 101 134 34 106 137 33 108 140 36 111 142 38 115 148 41 121 159 42 130 172 46 145 170 47 151 41 51 87 2 51 65 0 52 63 1 53 64 1 53 64 1 53 64 1 53 64 1 53 64 1 55 65 1 55 65 1 56 63 2 57 64 2 57 64 2 57 64 2 57 64 0 56 63 0 56 63 1 58 65 3 58 65 3 58 63 3 58 63 3 58 63 1 59 63 1 59 63 3 58 61 1 59 61 1 59 60 3 58 61 3 59 60 1 58 65 3 56 87 2 53 96 2 53 96 4 53 94 2 53 96 2 54 94 2 54 94 1 54 96 1 53 93 2 54 94 2 54 94 19 51 98 99 31 130 150 19 147 156 15 145 150 16 139 148 16 136 140 16 128 137 17 127 137 17 125 135 18 123 138 18 126 140 18 129 140 18 129 145 18 133 148 19 137 151 19 139 153 18 139 153 18 139 154 18 142 158 19 144 160 19 147 
122 37 78 122 37 78 121 36 78 121 36 78 121 36 78 122 36 81 121 35 80 122 36 83 121 35 84 121 33 83 121 33 83 123 33 84 122 34 84 122 34 85 121 33 84 121 32 86 120 31 85 121 30 87 121 32 88 120 31 89 120 31 89 121 30 91 121 29 92 121 29 92 122 30 95 124 29 97 124 29 97 125 28 99 128 28 101 130 30 103 132 32 105 135 33 109 139 35 114 143 38 120 149 39 126 164 43 140 179 43 154 128 48 133 2 51 65 2 51 65 0 52 63 1 53 64 1 53 64 1 53 64 1 53 64 1 53 64 1 56 63 1 56 63 1 56 63 3 58 65 2 57 64 2 57 64 2 57 64 2 57 64 0 57 64 0 57 64 2 57 62 3 58 63 3 58 63 3 58 63 3 58 63 3 58 63 3 58 61 1 59 60 3 59 60 3 58 61 3 59 60 1 59 60 1 58 67 2 54 91 2 53 96 2 54 94 2 53 98 2 54 94 1 52 95 2 54 94 2 54 94 1 53 93 3 52 92 1 55 93 8 53 95 31 46 105 77 37 123 113 27 134 140 20 143 153 16 146 153 18 146 157 16 147 157 18 147 158 17 147 162 18 149 163 17 150 162 18 150 155 20 149 153 22 150 151 22 149 151 22 149 152 21 151 148 23 149 117 29 139 
121 35 82 121 33 83 122 34 84 121 33 83 121 33 84 121 32 88 120 31 85 121 31 85 120 31 87 118 29 85 120 31 87 121 32 88 121 30 89 122 31 90 121 30 91 121 30 91 120 30 92 122 30 93 120 28 93 119 27 92 119 27 92 119 27 94 121 25 96 122 26 97 123 25 98 124 26 99 124 26 101 124 26 103 126 24 107 125 26 106 128 26 109 132 29 112 139 34 119 146 36 125 157 37 135 173 39 150 149 43 144 29 48 80 1 51 62 1 51 62 0 52 63 1 53 64 0 54 64 1 54 62 1 53 64 2 54 65 1 56 63 1 56 63 1 56 63 2 57 64 1 56 63 2 57 64 2 57 64 1 56 63 2 57 64 2 57 64 2 57 62 3 58 63 3 58 63 3 58 63 3 58 63 3 58 61 3 58 61 1 59 61 4 57 61 3 58 61 1 59 60 1 59 60 1 59 61 2 58 73 2 54 94 1 54 94 1 54 94 2 54 93 1 52 95 3 55 95 1 54 94 1 53 93 2 54 94 2 54 93 0 54 92 1 53 92 2 54 93 2 54 93 10 53 96 35 45 107 62 38 114 88 33 126 97 31 129 93 34 128 93 34 128 91 34 129 79 37 123 48 43 109 24 47 97 15 49 95 12 51 92 8 50 90 6 51 90 3 51 89 
122 32 86 122 31 90 121 30 87 121 30 87 120 31 87 121 32 90 121 32 90 122 31 92 121 30 91 120 29 90 121 29 92 121 29 92 121 30 91 122 27 93 120 28 93 120 28 95 120 28 95 122 27 95 122 27 95 122 26 97 121 25 97 119 25 99 122 24 99 120 24 98 122 25 102 125 24 104 125 24 102 124 22 105 125 23 107 126 24 110 130 26 111 133 27 115 143 29 124 153 33 133 165 34 146 166 37 155 64 47 99 1 50 64 2 51 65 2 51 65 3 53 64 2 52 63 0 52 63 1 53 64 1 53 64 1 53 64 1 56 61 1 56 63 0 56 63 1 56 63 1 56 63 1 56 63 1 56 63 2 57 64 2 57 62 2 57 62 2 57 62 3 58 63 3 58 63 3 58 63 2 57 62 3 58 61 3 58 61 2 57 60 2 57 60 2 57 60 4 60 61 3 59 60 1 59 60 2 60 62 1 54 85 1 53 93 1 54 94 1 53 93 1 53 93 2 54 94 2 54 94 2 54 93 2 54 94 4 53 93 1 53 93 0 52 92 2 54 93 1 53 92 1 53 92 1 53 92 3 52 93 3 52 92 7 52 93 8 51 93 5 53 91 4 52 90 3 53 90 3 51 89 4 52 90 3 51 87 4 52 90 3 51 89 3 51 89 3 51 89 
121 30 91 121 29 92 122 27 93 120 28 93 120 28 93 120 28 93 121 26 92 122 27 93 120 28 95 122 27 95 120 27 97 122 26 97 120 27 97 122 26 97 121 25 96 121 25 99 121 25 99 120 24 96 121 24 101 120 23 100 121 22 102 121 22 102 121 23 100 121 22 102 122 23 106 124 22 106 124 22 106 128 22 110 127 23 112 128 22 114 135 23 121 142 28 126 154 28 138 169 31 150 173 33 158 85 42 111 1 50 64 0 49 63 1 50 64 2 51 65 2 52 63 2 52 63 0 52 63 1 53 64 1 53 64 1 53 64 2 55 63 0 55 62 1 56 63 1 56 63 1 56 63 1 56 63 1 56 63 1 56 63 2 57 64 2 57 62 2 57 62 3 58 63 3 58 63 4 59 64 3 58 63 3 58 61 3 58 61 2 57 60 2 57 60 3 58 61 3 59 60 3 58 61 3 59 60 1 59 60 2 58 73 1 53 90 2 54 94 2 54 94 1 53 93 2 54 94 2 54 94 1 53 93 1 53 93 2 54 94 1 53 93 1 53 93 1 53 92 1 53 92 1 53 92 3 52 92 3 52 92 3 52 92 3 52 92 2 51 91 3 53 90 2 52 89 2 52 89 3 53 90 3 51 89 5 50 89 4 52 90 3 51 89 3 51 89 3 51 89 
121 29 96 120 28 95 122 26 97 122 26 97 122 25 96 121 25 96 122 26 97 122 26 97 121 25 99 121 25 97 121 25 99 122 24 101 121 25 99 121 25 99 121 24 101 121 22 102 121 22 102 121 22 102 121 24 103 122 23 105 123 21 104 121 22 104 122 23 106 124 22 106 125 21 108 125 20 112 128 22 114 130 20 117 136 21 122 136 21 124 143 23 129 154 23 137 166 28 150 160 30 152 101 37 121 17 47 71 0 49 63 2 50 62 1 51 62 2 51 65 2 52 63 0 52 63 0 52 63 1 53 64 1 53 64 1 53 64 1 54 62 1 54 62 0 55 62 1 56 63 1 56 63 1 56 63 1 56 63 1 56 63 1 56 63 2 57 64 1 56 61 2 57 62 3 58 63 3 58 63 3 58 63 4 59 62 3 58 61 3 58 61 2 57 60 3 59 60 3 59 60 3 58 61 3 59 60 3 59 58 3 58 61 3 54 81 2 54 94 2 54 94 2 54 94 2 54 94 2 54 94 1 53 93 3 52 93 1 53 92 1 53 92 1 53 93 1 53 92 1 53 92 3 52 92 3 52 92 2 51 91 3 52 92 2 51 91 1 53 92 3 52 92 3 53 90 3 51 89 3 53 90 3 51 89 3 51 89 3 51 89 3 51 89 3 51 89 3 51 87 
121 25 97 119 25 99 122 26 100 122 24 99 121 23 100 120 23 100 121 24 101 121 24 101 122 23 103 121 22 102 121 22 104 120 22 99 124 22 105 122 23 106 124 22 108 124 22 106 124 22 106 124 21 110 125 21 110 125 22 111 127 21 113 127 20 114 129 19 116 131 19 119 135 20 121 139 20 124 140 19 125 147 18 134 151 19 139 157 18 145 161 20 148 169 22 155 139 29 141 48 42 90 9 47 66 0 50 63 0 49 63 0 49 63 1 51 62 1 51 62 2 52 63 0 52 63 0 52 63 1 53 64 1 53 64 1 53 64 1 53 64 1 54 62 1 54 62 1 56 63 1 56 63 1 56 63 1 56 63 1 56 63 1 56 63 2 57 64 2 57 62 2 57 62 2 57 62 2 57 62 2 57 62 3 58 61 2 57 60 3 58 61 2 57 60 2 58 59 3 59 60 3 58 61 3 59 60 3 59 60 3 59 60 3 57 69 1 53 93 1 53 93 0 52 91 3 55 95 0 52 91 1 53 92 1 53 93 1 53 92 1 53 92 1 53 92 1 53 92 3 52 92 3 52 92 2 51 91 2 51 91 4 53 93 3 53 90 4 52 92 3 52 92 3 51 89 3 51 91 3 51 89 3 51 89 3 51 89 3 51 89 3 51 89 3 51 87 3 51 89 
121 23 100 122 23 103 122 23 103 121 22 104 121 22 104 121 22 105 123 21 105 125 21 106 126 22 109 124 22 106 125 21 108 126 22 111 127 21 113 128 22 114 131 21 116 132 22 119 134 20 118 135 20 121 137 20 125 137 20 125 139 19 125 140 20 128 146 19 132 147 19 132 150 18 137 155 19 145 158 17 145 164 18 151 164 20 154 151 21 147 133 26 140 101 32 121 17 45 69 1 47 62 0 48 60 0 49 63 0 48 62 1 49 63 0 50 61 1 51 62 2 52 63 2 52 63 0 52 63 1 53 64 1 53 64 1 53 64 1 53 64 1 54 62 2 55 63 1 56 63 1 56 63 1 56 63 2 57 64 2 55 63 1 56 63 2 57 64 3 58 63 2 57 62 2 57 62 2 57 62 2 57 62 3 58 61 2 57 60 3 58 61 1 56 59 2 58 59 2 57 60 3 58 61 3 59 60 3 59 60 3 59 60 3 59 60 1 53 90 1 53 93 1 53 92 2 54 93 1 53 92 1 53 92 1 53 92 3 52 93 1 53 92 1 53 92 3 52 92 2 51 91 3 52 92 2 51 91 2 51 91 4 53 93 2 52 89 2 51 91 2 52 89 3 51 91 3 51 89 3 51 89 3 51 89 3 51 89 3 51 89 3 51 89 3 51 87 3 51 89 
125 19 107 125 21 108 126 22 111 127 21 111 127 21 111 129 20 113 129 19 114 131 22 115 134 19 120 136 20 119 136 20 121 137 20 124 139 20 124 141 20 126 146 19 132 147 18 134 148 19 135 150 18 137 153 19 140 154 18 142 158 17 145 162 18 149 162 18 150 165 17 153 167 19 157 162 20 154 137 22 143 99 29 127 68 34 111 44 41 88 23 44 75 5 47 63 0 48 62 0 48 62 1 49 63 0 48 60 0 49 63 1 49 61 1 50 64 2 50 62 2 52 63 2 52 63 2 52 63 1 53 64 1 54 62 1 54 62 1 53 64 1 54 62 1 54 62 0 55 62 1 56 63 1 56 63 2 57 64 3 56 64 2 57 64 2 57 64 2 57 62 2 57 62 2 57 62 2 57 62 2 57 62 3 58 61 2 57 60 3 58 61 1 57 58 2 57 60 2 58 59 3 58 61 3 58 61 2 57 60 3 59 60 3 59 60 1 55 81 2 54 94 1 53 92 2 54 93 1 53 92 1 53 92 1 53 93 4 51 93 1 53 92 3 52 92 3 52 92 2 51 91 3 52 92 2 51 91 2 51 91 3 52 92 3 53 90 3 52 92 4 54 91 3 51 89 3 51 89 3 51 89 3 51 89 3 51 89 3 51 87 3 51 87 3 51 87 3 51 87 
136 19 123 137 20 124 140 20 126 143 22 128 142 21 127 144 20 130 147 20 133 151 20 134 154 21 140 154 19 140 158 19 144 159 19 144 162 19 147 163 19 150 156 21 149 147 21 144 144 22 143 141 22 142 137 22 141 133 22 140 113 26 130 89 30 120 75 32 112 64 34 108 45 35 98 26 40 89 18 40 87 9 42 85 0 42 80 1 46 67 0 46 61 0 48 62 0 48 62 0 48 62 0 48 62 1 49 59 0 48 62 0 48 62 0 49 63 2 50 62 2 52 63 1 51 62 2 52 63 1 53 64 1 54 62 1 54 60 1 54 62 1 54 62 1 54 62 1 56 63 2 55 63 2 55 63 1 56 63 2 57 64 1 56 63 1 56 61 2 57 62 1 56 61 2 57 62 2 57 62 2 57 62 3 58 61 2 57 60 2 57 60 2 58 59 2 58 59 2 58 59 3 59 60 3 58 61 2 58 59 2 58 59 2 58 59 3 56 74 2 54 91 2 54 94 2 54 94 2 54 94 1 53 92 1 53 92 3 52 93 3 52 92 3 52 92 3 52 92 2 51 91 2 51 91 2 51 91 2 51 91 3 52 92 3 51 89 2 52 89 3 53 90 3 51 89 5 50 89 4 52 90 3 51 89 3 51 87 3 51 87 3 51 89 3 51 87 3 51 87 
153 20 139 155 20 141 158 19 146 162 19 147 161 17 148 164 19 150 165 19 152 166 20 153 150 21 147 127 23 136 120 24 131 110 25 128 100 26 121 89 29 117 64 30 106 48 33 98 38 35 92 29 36 88 18 39 84 6 40 78 2 40 76 1 41 76 2 40 76 2 40 76 2 42 78 0 43 78 0 42 76 0 43 78 1 43 81 1 46 69 0 46 59 2 45 61 0 46 61 0 46 59 0 48 60 0 48 62 0 50 61 1 49 61 0 49 63 1 51 62 2 52 63 1 51 62 2 52 63 2 52 63 0 53 61 1 54 60 1 54 62 1 54 62 1 54 62 0 55 62 2 55 63 2 55 63 1 56 63 1 56 63 0 57 61 1 56 61 1 56 61 1 56 61 1 56 61 2 57 62 2 57 62 3 58 61 3 58 61 2 57 60 2 58 59 2 58 59 2 57 60 3 59 60 3 59 60 1 57 56 2 58 59 2 58 59 3 57 69 2 54 94 2 54 94 2 54 93 1 53 93 1 53 92 1 53 92 3 52 92 3 52 92 3 52 92 3 52 92 2 51 91 2 51 91 2 51 91 2 52 89 3 52 92 2 52 89 2 52 87 2 52 89 3 51 89 3 51 89 3 51 89 3 51 89 3 51 87 3 51 87 3 51 89 3 51 87 3 51 89 
173 18 158 161 20 151 126 23 130 99 25 120 86 26 112 72 28 103 60 29 99 51 30 95 32 32 86 24 34 83 18 35 78 12 35 76 8 36 73 2 38 72 0 38 74 1 37 71 2 38 72 0 39 72 1 40 73 1 39 75 2 40 76 0 40 75 1 41 77 1 41 76 1 42 74 1 41 77 0 43 77 1 44 79 1 43 81 1 45 72 0 46 61 0 46 61 0 46 61 2 46 59 0 46 59 1 49 61 1 49 61 1 49 61 1 51 62 1 49 61 1 51 62 1 51 62 1 51 62 2 52 61 0 52 65 0 53 61 1 53 64 1 54 62 1 54 62 1 54 62 1 56 63 1 56 63 1 56 61 1 56 61 0 55 60 2 57 62 3 56 62 2 57 62 2 57 62 2 57 62 2 57 62 2 57 62 2 57 60 2 57 60 2 58 59 2 58 59 2 57 60 2 58 59 2 58 59 2 58 59 2 58 59 2 58 59 1 58 67 3 53 90 1 53 92 1 53 93 2 51 92 2 51 92 0 54 92 1 53 93 3 52 92 3 52 92 3 52 92 3 52 92 2 51 91 2 51 91 2 51 91 2 51 91 4 53 93 3 51 91 2 52 89 2 51 91 3 51 89 3 51 89 3 51 89 3 51 87 3 51 89 2 50 86 3 51 87 2 50 86 
15 35 72 3 32 66 0 35 63 0 34 62 1 35 63 1 34 65 1 34 67 1 34 65 2 35 68 0 35 67 1 36 68 1 37 69 2 37 69 1 37 69 1 37 71 2 38 72 2 38 72 0 39 72 1 40 73 1 39 75 1 39 75 2 40 76 1 41 76 1 41 77 1 42 74 1 41 77 0 43 78 1 44 79 1 44 79 1 45 74 0 46 62 0 46 59 0 48 62 0 46 59 0 47 61 0 50 61 2 51 65 0 49 63 1 49 61 0 50 61 1 51 62 1 51 62 1 51 62 1 51 60 0 52 63 1 54 62 1 54 62 1 54 62 1 54 62 1 54 62 1 56 63 0 55 62 1 56 61 1 56 61 1 56 61 1 56 61 3 56 62 2 57 62 2 57 62 2 57 62 2 57 62 2 57 62 2 57 60 2 57 60 2 58 59 2 58 59 2 57 60 2 58 59 2 58 59 2 58 59 2 58 59 2 58 59 2 57 62 4 53 86 1 53 93 1 53 93 2 51 91 2 51 91 1 53 92 3 52 92 3 52 92 3 52 92 3 52 92 3 52 92 2 51 91 2 51 91 2 51 91 2 51 91 4 53 93 3 51 91 2 52 89 2 52 89 3 51 91 3 51 89 3 51 89 3 51 87 3 51 89 2 50 88 2 50 86 2 50 86 
2 33 62 0 34 64 0 34 62 1 35 63 0 33 64 0 35 65 0 33 64 2 35 66 0 35 65 1 36 66 1 36 68 1 37 69 1 37 69 1 37 69 1 37 69 2 38 70 2 38 72 2 38 72 1 40 73 1 40 73 1 39 75 2 40 76 1 41 76 1 41 76 1 41 76 1 41 77 2 42 78 0 43 78 1 44 79 1 44 76 0 46 61 0 45 58 0 48 62 0 46 59 1 47 60 8 62 74 9 66 77 0 49 63 1 51 62 0 50 61 2 50 62 1 51 62 1 51 62 1 51 60 3 53 62 2 52 61 2 52 61 1 54 62 1 54 62 1 54 62 2 55 63 1 54 62 1 56 63 1 56 61 1 56 61 1 56 61 3 56 62 2 57 62 2 57 62 2 57 62 2 57 62 2 57 62 2 57 60 2 57 60 2 58 59 2 58 59 2 57 60 2 58 59 2 58 59 2 58 59 2 58 59 2 58 59 2 57 60 4 54 81 1 53 93 1 53 92 1 53 92 3 52 92 3 52 92 3 52 92 3 52 93 3 52 92 3 52 92 3 52 92 2 51 91 2 51 91 2 51 91 2 52 89 3 53 90 3 51 91 2 52 89 2 52 89 3 51 89 3 51 91 3 51 89 3 51 89 3 51 87 3 51 89 2 50 88 3 51 87 
1 38 64 0 33 64 0 34 62 1 36 66 0 33 64 0 34 62 1 34 65 0 35 63 2 35 66 1 36 66 1 36 68 0 36 68 1 36 68 1 37 71 2 38 70 2 38 70 2 38 72 2 38 72 0 39 72 1 40 73 1 39 75 1 40 73 1 41 76 1 41 76 1 41 76 1 41 76 2 42 78 0 43 78 0 43 78 0 43 75 0 46 59 0 45 60 0 46 59 0 48 62 0 46 59 6 60 72 20 90 98 4 56 69 0 50 61 0 50 61 1 49 61 1 51 62 1 51 60 1 51 60 2 52 61 2 52 61 2 52 61 1 54 62 1 54 62 1 54 62 1 54 62 1 54 62 2 55 63 1 56 63 0 55 60 1 56 61 3 56 62 2 57 62 2 57 62 2 57 62 2 57 62 2 57 62 2 57 60 2 57 60 2 58 59 2 58 59 2 57 60 2 58 59 2 58 59 2 58 59 2 58 59 2 58 59 2 58 59 2 56 68 0 54 90 1 53 93 0 54 92 3 52 92 3 52 92 3 52 92 3 52 93 3 52 92 3 52 92 3 52 92 2 51 91 2 51 91 2 51 91 2 52 89 3 53 90 3 51 91 2 51 91 2 52 89 3 51 89 3 51 89 3 51 89 3 51 89 3 51 87 3 51 89 2 50 88 3 51 87 
1 53 75 0 34 62 0 33 61 0 33 64 0 33 64 4 33 65 0 35 65 1 34 65 0 35 65 0 35 65 1 36 68 1 36 68 1 36 68 2 37 69 2 38 70 1 37 71 2 38 72 2 38 74 0 39 72 1 40 73 1 39 75 1 40 73 1 41 76 1 41 76 1 41 76 1 41 76 2 42 77 0 43 78 0 43 78 0 43 77 0 46 59 0 45 60 1 47 60 0 45 58 0 48 60 2 48 63 23 93 101 11 67 80 1 49 61 1 51 62 2 50 62 1 51 62 1 51 60 1 51 60 2 52 61 2 52 61 2 52 61 0 53 61 1 54 62 0 53 61 1 54 62 1 54 62 1 54 62 1 56 63 0 55 60 1 56 61 3 56 62 2 57 62 2 57 62 2 57 62 2 57 62 2 57 62 2 57 60 2 57 60 2 58 59 2 58 59 2 57 60 2 58 59 2 58 59 2 58 59 2 58 59 2 58 59 2 58 59 0 58 59 1 57 74 1 53 92 1 53 92 3 52 95 3 52 95 3 52 92 3 52 93 3 52 93 3 52 92 3 52 92 2 51 91 2 51 91 2 52 89 2 52 89 3 53 90 2 51 91 2 51 92 2 52 89 2 52 89 3 51 87 3 51 89 3 51 89 3 51 89 3 51 89 3 51 89 3 52 85 
1 80 93 2 44 69 0 34 62 3 34 63 1 35 63 1 34 65 0 35 65 2 35 66 1 34 67 1 36 68 1 36 68 0 37 66 1 36 68 1 36 68 1 37 69 1 37 69 2 38 72 2 38 72 0 39 70 0 39 72 1 40 73 0 38 74 2 43 75 1 41 76 1 42 74 1 41 76 1 41 76 0 43 77 0 43 78 0 43 77 0 46 59 0 45 60 1 47 60 0 48 60 0 46 59 4 56 69 27 102 108 24 97 106 1 49 61 0 50 61 2 50 62 0 50 61 1 51 60 1 51 60 2 52 61 2 52 59 2 52 63 0 53 61 0 53 61 1 54 62 1 54 62 1 54 62 1 54 62 1 56 63 0 55 62 1 56 61 3 56 62 2 57 62 2 57 62 2 57 62 2 57 62 2 57 62 2 57 60 2 57 60 2 58 59 2 58 59 2 57 60 2 58 59 2 58 59 2 58 59 2 58 59 2 58 59 2 58 59 2 58 59 3 58 63 3 54 83 1 53 92 4 52 92 3 52 92 1 53 92 3 52 92 3 52 92 3 52 92 3 52 92 2 51 91 2 51 91 2 51 91 2 51 91 2 52 89 2 51 91 2 51 91 2 52 89 2 52 89 3 51 89 3 51 89 3 51 89 3 51 91 3 51 89 3 51 89 3 51 87 
1 91 102 0 65 83 0 37 64 2 33 64 1 32 61 1 34 65 0 35 65 0 35 65 0 35 65 1 36 68 1 36 66 1 36 66 1 36 68 1 36 68 0 36 68 2 38 70 2 38 70 2 38 72 0 39 72 0 39 72 0 39 70 1 39 75 2 40 76 1 42 74 1 41 76 1 42 74 1 41 76 2 42 78 0 43 78 0 43 77 0 46 61 0 46 61 0 45 58 0 46 59 1 47 62 2 52 63 27 102 108 35 115 122 1 53 66 0 48 60 2 50 62 1 51 60 2 52 61 1 51 60 2 52 61 2 52 61 2 52 63 0 53 61 0 53 61 1 54 62 0 55 62 1 54 62 1 54 62 1 56 63 0 55 62 1 56 63 3 56 62 2 57 62 2 57 62 2 57 62 2 57 62 2 57 62 2 57 60 2 57 60 2 58 59 2 58 59 2 57 60 2 58 59 2 58 59 2 58 59 2 58 59 2 58 59 3 57 59 2 58 59 2 58 59 2 57 62 3 54 81 3 52 92 2 51 92 1 53 92 3 52 92 3 52 92 3 52 92 3 52 92 2 51 91 2 51 91 2 51 91 2 51 91 2 52 89 2 52 89 2 51 91 2 52 89 2 52 89 3 51 89 3 51 89 3 51 89 3 51 89 3 51 89 3 51 89 3 51 89 
0 88 98 0 82 94 0 50 73 0 34 62 2 33 62 0 34 64 2 33 64 0 34 64 1 35 63 1 34 67 2 35 68 2 37 69 1 36 68 1 36 68 1 37 69 2 37 69 2 38 70 1 37 71 2 38 72 0 39 72 0 39 72 1 40 73 1 39 75 2 43 75 1 41 76 1 41 76 0 40 75 2 42 78 0 43 78 0 43 77 0 46 61 0 46 59 0 46 59 1 47 60 0 48 62 0 48 60 18 86 95 34 117 125 7 59 72 0 49 63 2 50 62 1 51 60 1 51 60 1 51 60 2 52 61 2 52 63 2 52 63 0 53 61 0 53 61 0 53 61 0 55 62 1 54 62 1 54 62 0 55 62 0 55 62 1 56 63 3 56 62 2 57 62 2 57 62 2 57 62 2 57 62 2 57 62 2 57 60 2 57 60 2 58 59 2 58 59 2 57 60 2 58 59 2 58 59 2 58 59 2 58 59 2 58 59 2 58 57 2 58 59 2 58 57 2 58 59 3 58 63 3 54 83 2 51 91 0 54 92 3 52 92 3 52 92 3 52 92 3 52 92 2 51 91 2 51 91 2 51 91 2 51 91 2 52 89 0 52 89 2 51 91 2 51 91 2 52 87 3 51 89 3 51 89 3 51 91 3 51 89 3 51 89 3 51 89 3 51 89 
0 88 100 1 83 95 0 79 92 0 34 62 2 33 64 1 34 65 0 33 64 1 35 63 1 34 65 1 34 65 1 34 65 1 36 68 1 36 66 1 36 68 1 36 68 1 37 69 2 38 70 2 38 70 2 38 72 0 39 72 1 40 73 1 40 73 1 39 75 2 40 76 1 42 74 1 41 76 1 41 76 2 42 77 2 42 78 3 43 79 0 46 62 0 46 59 2 46 59 0 48 60 0 46 61 1 49 61 6 58 72 13 80 89 1 51 62 0 50 61 2 50 62 1 51 62 1 51 60 1 51 60 2 52 61 2 52 61 2 52 61 1 54 62 1 54 62 0 53 61 1 54 62 1 54 62 1 54 62 1 54 62 1 56 63 1 56 63 1 56 61 3 56 62 3 56 62 2 57 62 2 57 62 2 57 62 2 57 60 2 57 60 2 58 59 2 57 60 2 57 60 2 57 60 2 58 59 2 58 59 2 58 59 2 58 59 2 58 59 2 58 59 2 58 59 2 58 57 1 57 56 2 57 64 3 53 88 3 52 93 3 52 93 2 51 91 3 52 92 3 52 93 3 52 92 1 51 88 2 51 91 2 51 91 3 52 92 2 51 91 3 52 92 2 51 91 3 53 90 2 52 89 3 51 89 5 50 89 3 51 89 3 51 89 3 51 89 3 51 89 
0 90 99 0 88 98 1 91 100 0 61 79 1 34 65 2 33 64 0 33 64 3 34 65 1 34 65 1 34 65 1 34 65 1 36 68 1 36 66 1 36 68 1 36 68 1 37 69 2 38 70 2 38 70 2 38 72 0 39 72 1 40 73 1 40 73 0 38 74 1 39 75 1 41 76 1 40 79 1 41 77 2 42 78 2 42 78 2 42 77 0 45 64 0 46 59 0 46 61 0 46 59 0 46 61 0 46 59 0 47 57 0 46 59 1 49 61 1 49 61 2 50 62 1 51 62 1 51 60 1 51 60 2 52 61 2 52 61 2 52 61 0 53 61 1 54 62 0 53 61 1 54 62 1 54 62 1 54 62 1 54 62 1 56 63 1 56 63 1 56 61 3 56 62 3 56 62 2 57 62 2 57 62 2 57 62 2 57 60 2 57 60 2 58 59 2 57 60 2 57 60 2 57 60 2 58 59 2 58 59 2 58 59 2 58 59 2 58 59 2 58 59 2 58 57 2 58 57 2 58 57 2 58 57 3 56 70 3 53 90 3 52 92 3 52 92 3 52 92 3 52 92 2 51 91 2 51 91 2 51 91 2 51 91 4 53 93 2 51 91 2 51 91 2 51 91 2 52 89 2 52 89 3 51 89 3 51 89 3 51 89 3 51 89 3 51 89 3 51 89 
1 91 102 0 88 98 2 84 96 0 86 96 0 50 73 2 33 62 1 35 63 1 34 65 1 34 65 1 34 65 1 34 65 1 36 68 1 36 66 1 36 68 1 36 68 1 37 69 2 38 70 2 38 70 1 37 71 0 39 72 0 39 72 0 39 72 1 39 75 1 39 75 1 42 74 1 41 76 1 41 77 2 42 77 2 42 78 2 42 78 0 45 68 0 46 59 0 47 59 0 45 58 0 46 59 1 47 60 0 47 59 0 49 60 1 49 63 1 49 61 2 50 62 1 51 62 1 51 60 1 51 60 2 52 61 2 52 61 2 52 61 0 53 61 1 54 62 0 53 61 1 54 62 1 54 62 1 54 62 1 54 62 1 56 63 1 56 63 1 56 61 3 56 62 3 56 62 2 57 62 2 57 62 2 57 62 2 57 60 2 57 60 2 58 59 2 57 60 2 57 60 2 57 60 2 58 59 2 58 59 2 58 59 2 58 59 2 58 59 2 58 57 2 58 59 2 58 59 2 58 57 2 58 57 3 59 58 3 55 79 3 52 93 3 52 92 3 52 93 3 52 92 3 52 92 2 51 91 2 51 91 3 52 92 3 52 92 2 51 91 2 51 91 2 51 91 2 52 89 2 52 89 3 51 89 3 51 89 3 51 89 3 51 89 3 51 89 3 51 89 
0 90 99 0 90 99 0 89 97 0 90 99 1 74 89 1 38 65 1 35 62 1 34 65 1 34 65 1 34 65 1 34 65 1 36 68 1 36 66 1 36 68 1 36 68 1 37 69 2 38 70 2 38 70 1 37 71 0 39 72 0 39 72 0 39 72 1 39 75 1 39 75 1 42 74 1 41 76 1 41 76 1 41 76 2 42 77 2 42 78 0 44 71 0 46 61 1 45 58 0 46 59 0 46 59 0 48 60 0 48 60 0 48 60 1 49 63 0 49 63 2 50 62 1 51 62 1 51 60 1 51 60 1 51 60 2 52 61 2 52 61 0 53 61 1 54 62 0 53 61 1 54 62 1 54 62 1 54 62 1 54 62 1 56 63 1 56 63 1 56 61 3 56 62 3 56 62 2 57 62 2 57 62 2 57 62 2 57 60 2 57 60 2 58 59 2 57 60 2 57 60 2 57 60 2 58 59 2 58 59 2 58 59 2 58 59 3 59 60 3 59 60 2 58 59 2 58 59 2 58 59 2 58 57 2 58 55 3 58 61 3 53 90 3 52 92 3 52 92 2 52 89 3 52 92 2 51 91 3 52 92 3 52 92 3 52 92 2 51 91 3 52 92 2 51 91 2 52 89 2 52 89 2 52 89 2 50 88 3 51 89 3 51 89 3 51 89 3 51 89 
4 88 98 1 91 100 2 92 101 0 87 99 0 82 96 1 53 75 1 34 65 1 34 65 1 34 65 1 34 65 1 34 65 1 36 68 1 36 66 1 36 68 1 36 68 1 37 69 2 38 70 2 38 70 1 37 69 0 39 72 0 39 72 0 39 72 1 40 73 1 39 75 1 42 72 1 42 74 1 41 76 1 41 76 2 42 78 2 42 78 0 43 75 0 45 66 0 45 58 0 44 57 0 47 57 0 46 59 0 48 60 0 48 60 0 48 62 1 49 61 2 50 62 1 51 62 1 51 60 1 51 60 1 51 60 2 52 61 2 52 61 0 53 61 1 54 62 0 53 61 1 54 62 1 54 62 1 54 62 1 54 62 1 56 63 1 56 63 1 56 61 3 56 62 3 56 62 2 57 62 2 57 62 2 57 62 2 57 60 2 57 60 2 57 60 2 58 59 2 58 59 2 58 59 2 58 59 2 58 59 2 58 59 2 58 59 3 59 60 3 59 60 3 59 60 2 58 59 3 59 60 2 58 57 2 58 57 3 59 58 3 54 81 3 52 92 3 52 92 2 51 91 3 52 92 3 52 92 3 52 92 3 52 92 3 52 92 3 52 92 2 51 91 2 51 91 3 52 92 2 51 91 2 51 91 2 51 91 3 51 89 3 51 89 3 51 89 3 51 89 
13 81 90 0 88 98 1 91 100 1 89 99 1 80 95 0 72 87 0 44 69 0 33 64 1 34 65 1 34 65 1 34 65 1 36 68 1 36 66 1 36 68 1 36 68 1 37 69 2 38 70 2 38 70 1 37 69 0 39 72 0 39 72 0 39 72 1 40 73 1 39 75 1 42 74 1 41 76 1 41 76 1 41 76 2 42 77 2 42 78 0 43 75 0 44 71 0 45 58 0 46 59 0 46 59 0 46 61 0 48 60 0 48 60 1 49 61 0 50 61 2 50 62 1 49 61 1 51 60 1 51 60 1 51 60 2 52 61 0 53 61 0 53 61 1 54 62 0 53 61 1 54 62 1 54 62 1 54 62 1 54 62 1 56 63 1 56 63 1 56 61 3 56 62 3 56 62 2 57 62 2 57 62 2 57 62 2 57 60 2 57 60 2 57 60 2 58 59 2 58 59 2 58 59 2 58 59 2 58 59 2 58 59 2 58 59 3 59 60 3 59 58 3 59 58 2 58 57 3 59 58 3 59 58 2 58 57 3 59 58 1 57 70 3 52 92 3 52 92 3 52 93 3 52 92 3 52 92 3 52 92 3 52 92 3 52 92 3 52 92 1 50 90 3 52 92 3 52 92 2 51 91 2 51 91 3 52 92 3 51 89 4 52 90 4 52 90 3 51 89 
18 78 86 7 86 93 1 91 100 0 87 97 2 81 94 0 79 94 1 66 84 2 39 68 1 34 65 1 34 65 1 34 65 1 36 68 1 36 66 1 36 68 1 36 68 1 37 69 1 37 69 1 37 69 1 37 69 0 39 72 0 39 72 0 39 72 1 40 73 0 38 74 1 42 74 1 41 76 1 41 76 1 41 76 2 42 78 2 42 78 1 44 79 1 44 78 0 45 68 0 46 61 0 46 59 1 47 62 0 46 59 0 48 60 0 48 62 1 47 60 2 50 62 1 49 61 1 51 60 1 51 60 1 51 60 2 52 61 0 53 61 0 53 61 1 54 62 0 53 61 1 54 62 1 54 62 1 54 62 1 54 62 1 56 63 1 56 63 1 56 61 3 56 62 3 56 62 2 57 62 2 57 62 2 57 62 2 57 60 2 57 60 2 57 60 2 58 59 2 58 59 2 58 59 2 58 59 2 58 59 2 58 59 2 58 59 3 59 60 4 60 61 3 59 60 2 58 59 3 59 58 3 59 58 2 58 57 3 59 56 1 59 61 1 54 88 3 52 92 3 52 92 3 52 92 3 52 92 3 52 92 2 51 91 3 52 92 3 52 92 3 52 92 3 52 92 2 51 91 2 51 91 1 50 90 3 52 92 3 51 89 4 52 90 4 52 90 4 52 90 
19 76 85 18 77 85 1 89 99 1 89 99 1 91 100 0 76 92 1 56 77 0 50 75 1 34 65 1 34 65 1 34 65 1 36 68 1 36 66 1 36 68 1 36 68 1 37 69 1 37 69 0 36 68 1 37 69 0 39 72 0 39 72 0 39 72 1 40 73 1 39 75 1 42 74 1 41 76 1 41 76 1 41 76 2 42 77 2 42 78 1 44 78 1 44 79 1 44 79 0 44 67 0 48 62 1 47 62 0 48 60 0 48 60 1 49 61 0 48 60 2 50 62 1 49 61 1 51 60 1 51 60 1 51 60 2 52 61 0 53 61 0 53 61 1 54 62 0 53 61 1 54 62 1 54 62 1 54 62 1 54 62 1 56 63 1 56 63 1 56 61 3 56 62 3 56 62 2 57 62 2 57 62 2 57 62 2 57 60 2 57 60 2 57 60 2 58 59 2 58 59 2 58 59 2 58 59 2 58 57 2 58 59 2 58 59 3 59 60 4 60 61 3 59 60 2 58 57 3 59 58 3 59 58 2 58 59 2 58 57 0 60 61 1 55 81 1 53 92 2 51 91 3 52 92 3 52 92 3 52 92 2 51 92 2 51 91 3 52 92 3 52 92 3 52 92 2 51 91 2 51 91 3 52 92 2 51 91 4 52 90 4 52 90 4 52 90 4 52 90 
4 88 99 14 81 89 5 88 96 1 91 102 0 93 101 0 79 92 1 66 86 1 59 83 2 43 73 2 35 66 0 35 65 1 36 68 2 35 66 1 36 66 2 37 69 2 37 69 1 37 69 3 39 71 2 38 72 2 38 72 1 37 71 1 40 73 1 40 73 1 40 73 0 40 75 1 41 76 1 41 76 1 41 76 1 41 77 2 42 78 1 44 79 1 44 79 1 44 79 1 44 79 0 46 72 0 47 61 0 48 60 0 48 60 0 48 60 2 50 62 1 49 59 1 51 62 2 51 65 1 51 60 1 51 62 2 52 61 2 52 63 2 52 61 1 53 64 1 54 60 1 54 62 1 54 62 1 54 60 0 53 61 1 56 63 1 56 61 2 55 61 2 57 62 3 56 62 2 57 62 2 57 62 2 57 62 2 57 62 2 57 60 1 56 59 1 59 61 2 57 60 2 57 60 3 58 61 2 57 60 3 59 60 0 60 60 2 58 59 3 59 60 3 59 60 3 59 58 3 59 58 3 59 58 3 59 58 4 60 59 1 59 60 1 55 79 1 53 93 1 53 92 1 53 92 1 53 92 1 53 92 2 54 93 1 53 92 3 52 92 3 52 92 0 52 91 3 52 92 2 51 91 2 51 91 3 52 92 3 53 90 4 52 90 4 52 90 3 53 90 
1 91 100 8 85 91 21 76 83 6 88 99 0 93 101 0 92 103 0 79 92 1 63 84 0 63 81 1 42 70 1 34 67 1 34 67 1 36 68 1 35 70 2 37 67 1 37 69 1 37 69 2 38 70 2 38 72 2 38 72 2 38 72 0 39 72 1 40 73 1 40 73 0 40 75 1 41 76 1 41 76 1 41 76 1 41 77 2 42 78 1 44 79 1 44 79 1 44 79 1 44 79 0 44 81 0 45 78 1 48 68 1 48 66 1 48 64 1 49 61 1 49 61 1 51 60 1 51 62 1 51 60 1 51 62 2 52 61 2 52 61 2 52 63 0 52 63 1 54 62 1 54 62 1 54 62 1 54 62 0 52 63 1 56 61 1 56 63 2 55 61 1 56 61 3 56 62 2 57 62 2 57 62 2 57 62 2 57 62 2 57 60 2 57 60 3 58 61 2 57 60 3 58 61 3 58 61 3 59 60 3 59 60 3 59 60 3 59 60 3 59 60 3 59 60 3 59 58 3 59 58 3 59 58 3 59 58 2 58 57 1 60 58 1 56 76 1 53 93 1 53 92 1 53 92 1 53 92 1 53 92 1 53 92 1 53 93 3 52 92 3 52 92 1 53 92 3 52 93 2 51 91 2 51 91 3 53 90 3 52 92 3 53 90 4 52 90 4 54 91 
1 91 100 2 90 102 8 86 98 10 83 92 5 87 98 1 91 100 0 76 92 0 73 92 1 55 79 0 50 75 1 38 67 1 34 65 1 36 66 0 36 68 1 37 69 1 37 69 1 37 69 2 38 70 2 38 72 2 38 72 2 38 72 0 39 72 1 40 73 1 40 73 1 39 75 1 41 76 1 41 76 1 41 77 2 42 78 2 42 78 1 44 79 1 44 79 0 42 80 1 44 79 1 45 80 1 45 82 1 45 82 1 46 79 1 46 75 1 47 73 2 49 65 1 50 65 1 51 62 1 51 60 1 51 62 2 52 61 1 51 62 2 52 63 0 52 63 1 54 62 1 54 60 2 55 61 2 55 61 1 54 62 1 56 61 1 56 63 1 56 61 1 56 61 2 57 62 2 57 62 2 57 62 2 57 62 3 58 63 3 58 61 2 57 60 2 57 60 2 57 60 4 59 62 3 59 60 3 59 60 3 59 60 3 59 60 1 59 60 1 59 60 1 59 60 1 60 58 1 60 58 1 60 58 1 60 58 1 60 58 1 60 58 1 56 77 1 53 93 1 53 92 1 53 92 1 53 92 1 53 92 1 53 90 1 53 92 3 52 92 3 52 92 1 53 92 3 52 92 3 52 92 3 52 92 3 52 92 3 52 93 3 52 92 4 52 90 3 53 90 
2 92 100 2 92 101 6 88 99 19 76 85 19 76 83 2 90 100 1 91 100 1 80 97 1 57 82 1 42 70 1 51 76 1 36 66 1 42 70 2 36 71 1 37 69 0 36 68 1 37 69 1 37 69 2 38 72 2 38 72 0 38 71 1 40 73 1 40 73 1 40 73 1 39 75 1 41 76 1 41 76 2 40 79 2 42 78 2 42 78 0 43 78 1 44 79 0 43 78 1 44 79 1 45 82 1 45 82 1 45 80 1 45 82 2 46 83 2 46 81 3 47 84 2 48 82 2 49 79 2 50 70 2 51 68 2 51 66 2 51 65 0 52 65 0 52 65 1 54 60 1 54 62 1 54 60 1 56 61 2 55 63 1 56 63 1 56 61 1 56 61 1 56 61 2 57 62 2 57 62 2 57 62 2 57 62 3 58 63 3 58 61 3 58 61 3 58 61 2 57 60 2 57 60 1 59 60 1 59 60 1 59 60 3 59 60 3 61 62 1 59 60 1 59 60 1 59 60 1 60 58 1 60 58 1 60 58 1 60 58 1 60 58 1 56 76 1 53 93 1 53 92 1 53 93 1 52 95 1 53 93 1 53 92 1 53 93 3 52 93 1 53 92 1 53 92 3 52 92 3 52 92 3 52 92 3 52 92 1 53 92 4 53 93 4 53 93 3 52 92 
8 86 96 0 92 103 0 93 101 11 86 92 29 68 75 10 84 95 1 90 104 0 72 87 2 52 77 2 49 75 0 56 79 1 46 75 1 45 72 1 45 72 1 38 67 1 37 69 1 37 71 1 37 71 2 38 72 2 38 72 0 39 72 2 41 74 1 39 75 1 39 75 1 39 75 1 41 76 1 41 76 2 40 79 2 42 78 2 42 78 0 43 78 1 44 79 1 43 81 1 43 81 0 44 81 1 45 82 1 45 82 1 45 82 2 46 83 2 46 83 3 47 86 2 47 86 3 48 87 3 48 87 3 48 87 2 48 84 3 49 82 1 51 78 1 52 73 2 54 68 1 53 64 2 55 63 1 56 61 2 55 63 1 56 63 1 56 61 1 56 61 2 57 62 2 57 62 2 57 62 2 57 62 2 57 62 3 58 63 3 58 61 2 57 60 3 58 61 2 57 60 2 57 60 1 59 60 0 60 60 1 59 60 3 59 60 1 59 60 1 59 60 1 59 60 1 59 60 1 60 58 1 60 58 1 60 58 1 60 58 2 60 61 2 57 78 1 53 93 1 53 93 1 52 95 1 53 93 1 53 93 1 53 92 1 53 93 1 53 93 1 53 92 1 53 92 1 53 92 3 52 92 1 53 92 3 52 92 1 53 92 3 52 92 3 52 92 3 52 92 
14 77 86 1 91 100 0 92 103 4 91 101 27 70 77 29 70 76 5 87 98 2 81 94 0 68 87 2 52 75 1 63 84 1 59 83 1 40 71 2 43 73 1 45 74 1 38 67 1 37 71 1 37 71 1 37 71 2 38 72 1 40 73 1 40 73 1 39 75 1 39 75 1 39 75 1 41 76 1 41 76 1 41 77 2 42 78 2 42 78 0 43 78 0 43 78 1 43 81 1 44 79 0 44 79 1 45 80 1 45 82 1 45 82 2 46 83 2 46 83 2 47 86 2 47 86 3 48 87 3 48 87 3 48 87 2 47 86 3 48 87 1 49 89 2 50 90 2 50 86 2 51 83 2 54 68 1 56 61 2 55 63 1 56 63 2 57 64 2 57 64 2 57 62 2 57 62 2 57 62 2 57 62 2 57 62 0 58 62 3 58 63 2 57 60 3 58 61 2 57 60 2 57 60 1 59 60 0 60 60 1 59 60 1 59 60 1 59 60 1 59 60 1 59 60 1 59 60 1 59 60 3 62 60 3 62 60 1 60 58 2 60 61 2 56 80 2 53 96 2 54 93 2 54 94 2 54 94 2 54 94 1 53 93 1 53 92 1 53 93 1 53 93 1 53 92 1 53 92 2 54 94 1 53 93 1 53 92 1 53 92 1 53 92 3 52 92 4 53 93 
33 63 71 7 87 96 2 92 101 0 93 101 12 86 95 37 62 69 30 67 75 8 86 96 1 69 88 2 43 73 0 50 75 1 57 84 2 64 87 0 41 71 1 48 78 1 46 75 3 39 73 1 37 71 2 38 72 3 39 73 0 39 72 1 40 73 2 40 76 0 40 75 1 39 75 2 40 76 1 41 76 2 42 77 2 42 78 2 42 78 0 43 78 0 43 78 1 43 81 1 43 81 1 45 82 1 45 82 1 45 82 1 45 82 2 46 83 2 46 83 2 48 84 2 47 86 2 47 86 3 48 87 3 48 87 2 47 88 3 48 89 1 49 89 2 49 91 2 50 90 2 50 88 2 50 86 0 54 66 1 56 63 1 56 63 1 56 63 2 57 64 2 57 62 2 57 62 2 57 62 2 57 62 2 57 62 0 58 62 3 58 63 2 57 60 3 58 61 1 59 61 1 59 61 1 59 61 1 59 60 1 59 60 1 59 60 1 59 60 2 60 61 1 59 60 1 59 60 1 59 60 1 60 58 1 60 58 1 60 58 2 60 61 2 56 84 2 54 94 2 54 94 2 54 94 3 55 95 2 54 94 1 53 93 2 54 93 2 54 94 2 54 94 2 54 93 1 53 92 1 53 93 1 53 93 2 54 91 1 53 93 1 53 92 1 53 90 2 51 91 
39 56 64 21 74 82 10 85 90 1 93 104 0 94 104 16 79 88 33 66 75 21 74 82 8 59 80 2 48 74 0 58 80 1 59 83 1 63 86 0 44 73 3 39 71 0 54 80 1 40 73 2 38 72 2 38 72 2 38 72 0 38 71 1 40 73 1 39 75 1 41 76 1 39 75 2 40 76 1 41 76 2 42 77 2 42 78 2 42 78 0 43 78 0 43 78 1 44 79 1 44 79 1 45 82 1 45 82 1 45 82 2 46 83 2 46 85 2 46 83 2 48 84 2 47 86 1 46 85 3 48 87 3 48 87 3 48 89 3 48 89 3 51 91 3 51 91 2 50 90 2 50 90 2 52 89 1 54 72 2 57 64 1 56 63 1 56 63 2 56 66 2 57 62 2 57 62 2 57 62 2 57 62 2 57 62 1 59 63 3 58 65 3 58 61 2 57 60 1 59 61 1 59 61 3 58 61 3 58 61 1 59 60 2 60 61 1 59 60 1 59 60 2 60 61 2 60 61 2 60 61 1 60 58 1 60 58 2 61 59 2 60 62 2 56 84 2 54 94 1 53 93 2 54 94 2 54 94 2 54 94 1 52 95 2 54 93 2 54 93 2 54 93 2 54 94 1 53 93 2 54 94 2 54 94 1 53 93 1 53 93 2 54 94 1 55 93 3 52 92 
43 52 61 33 63 71 21 74 82 1 94 102 1 95 103 6 90 100 26 73 83 37 62 69 27 54 71 4 56 78 0 73 90 1 66 88 1 45 74 2 49 75 3 59 84 0 45 74 1 45 74 0 38 71 2 38 72 3 39 73 1 40 73 0 39 72 0 39 72 1 39 75 1 41 76 2 42 77 1 41 77 2 42 77 3 41 78 2 42 78 0 43 78 1 44 79 1 44 79 1 43 81 1 45 82 1 45 82 1 45 82 1 45 80 2 46 83 2 46 83 2 47 86 2 47 86 2 47 86 3 48 87 3 48 89 3 48 87 1 49 89 2 50 90 2 50 90 2 50 90 2 50 90 2 50 88 2 54 68 1 56 63 1 56 63 2 57 64 1 56 63 0 57 64 0 57 64 2 57 62 3 58 63 3 58 63 2 57 62 1 59 63 3 58 65 3 56 60 1 59 61 3 59 58 3 59 60 1 59 61 3 58 61 1 59 63 2 60 61 2 60 61 1 59 60 2 60 61 1 61 61 3 62 60 2 61 59 3 59 58 2 60 62 2 56 80 1 54 96 2 54 94 2 53 96 2 54 94 2 54 94 2 54 93 2 54 94 2 54 94 2 54 94 2 54 94 2 54 94 2 54 94 2 54 94 2 54 94 1 54 94 2 54 94 2 54 94 2 54 94 
43 52 61 42 53 59 34 62 73 23 71 83 6 90 100 4 94 103 5 92 102 34 67 74 40 59 65 16 74 86 2 73 91 1 61 85 1 51 78 1 55 81 0 60 84 1 52 79 0 44 73 1 42 74 2 38 72 2 38 72 0 39 72 0 39 72 1 40 73 1 39 75 1 41 76 2 42 77 1 41 77 2 42 77 3 41 77 2 42 78 0 43 78 1 44 79 1 44 79 1 43 81 1 45 82 1 45 82 1 45 82 2 46 83 2 46 85 2 46 85 2 47 86 2 47 86 2 47 86 3 48 87 3 48 87 1 49 87 1 49 89 2 50 90 2 50 88 2 50 90 2 50 90 2 50 90 2 53 74 1 56 63 1 56 63 2 57 62 1 56 63 0 58 62 0 58 62 2 57 62 3 58 63 3 58 63 3 58 63 1 59 63 1 59 63 3 58 61 1 59 61 3 58 61 4 59 62 2 60 62 1 59 60 1 59 61 2 60 61 2 60 61 2 60 61 2 60 61 2 60 61 2 61 59 2 61 59 1 60 58 2 60 61 2 57 78 1 54 94 2 54 94 2 54 94 2 54 94 2 54 94 2 54 94 2 54 94 2 54 94 2 54 94 2 54 94 2 54 94 2 54 94 2 54 94 2 54 94 2 54 94 2 54 94 2 54 94 2 54 94 
43 52 59 43 50 60 44 53 60 44 53 62 24 72 82 6 90 100 1 95 105 17 81 90 42 59 66 34 63 71 9 76 92 0 60 84 2 64 87 2 56 84 0 53 79 1 61 87 0 43 72 1 40 73 0 41 73 3 39 73 1 40 73 1 40 73 1 39 75 2 40 76 1 41 76 1 41 76 1 41 77 2 42 77 2 42 77 2 42 78 0 43 78 1 44 79 1 44 79 1 43 81 1 45 82 2 46 83 1 45 82 2 46 83 2 46 85 2 45 87 2 47 86 2 47 86 2 47 86 3 48 87 3 48 87 1 49 89 1 49 89 2 50 90 2 50 90 2 50 90 2 49 91 3 50 92 2 52 77 1 56 63 1 56 63 2 57 64 2 57 62 0 58 62 0 58 62 2 57 62 1 59 63 1 59 63 3 58 63 1 59 63 1 59 63 3 58 61 1 61 62 2 60 62 1 59 61 2 60 62 2 60 61 2 60 62 2 60 61 2 60 61 2 60 61 2 60 61 2 60 61 1 60 58 2 61 59 1 60 58 2 60 61 2 58 75 1 55 93 2 54 94 2 53 96 2 54 93 2 53 96 1 54 94 2 54 94 2 54 94 2 54 94 2 54 94 2 54 94 3 55 95 2 54 94 2 54 94 2 54 93 2 54 93 2 54 94 2 54 94 
45 49 58 45 49 60 46 48 60 44 51 61 45 52 62 10 87 97 0 97 106 2 96 106 23 76 82 46 56 65 29 69 79 3 80 96 1 74 93 0 70 90 1 48 76 1 61 85 1 66 88 1 48 78 1 50 80 0 42 76 3 39 75 0 40 75 1 39 75 1 39 75 1 41 76 1 41 76 1 41 77 2 42 78 2 42 78 0 43 78 0 43 78 1 43 81 1 43 81 1 43 81 0 44 81 1 45 82 2 46 83 1 47 83 2 46 85 2 46 85 2 47 86 2 47 86 3 48 87 3 48 89 1 49 89 1 49 89 1 49 89 2 50 90 2 50 88 2 50 90 2 49 91 3 50 92 1 52 79 1 55 65 1 56 63 2 57 62 2 57 64 0 57 64 0 58 62 3 58 63 0 58 62 1 59 63 3 58 63 1 59 63 0 59 63 3 58 61 1 59 61 2 60 62 1 59 61 2 60 62 2 60 62 2 60 62 2 60 61 2 60 61 2 60 61 2 60 61 2 60 61 2 60 61 2 61 59 2 61 59 3 62 60 3 60 69 2 55 95 2 55 95 2 54 94 2 53 96 2 55 95 3 56 96 1 54 94 1 54 94 2 55 95 2 55 95 1 54 94 1 54 94 1 54 94 2 55 95 1 54 94 2 54 94 3 55 95 2 55 95 
46 49 58 46 49 58 46 50 59 45 49 58 46 50 61 34 64 74 4 94 103 2 96 104 8 92 103 22 79 86 42 61 68 29 63 75 2 94 105 0 83 99 1 76 97 1 63 86 1 76 95 1 79 99 1 52 81 1 50 82 2 38 74 1 39 75 1 39 75 1 39 75 1 41 76 1 41 76 1 41 77 2 42 78 0 42 80 0 43 78 0 43 78 1 44 79 2 44 82 1 43 81 0 44 81 1 45 82 2 46 83 1 47 83 3 47 86 2 46 85 2 47 86 2 47 86 3 48 87 3 48 89 1 49 89 1 49 89 1 49 89 2 50 90 2 50 90 2 50 90 2 49 91 3 50 92 1 52 81 1 55 65 1 56 63 2 57 64 2 57 64 0 57 66 1 58 65 3 58 63 3 58 63 1 59 63 1 59 63 1 59 63 1 59 63 1 59 61 1 59 61 2 60 62 1 59 61 2 60 62 2 60 62 2 60 62 2 60 61 2 60 61 1 61 61 2 60 61 3 61 62 2 60 61 3 62 60 2 61 59 2 61 59 3 61 63 2 56 92 2 55 95 2 53 96 2 53 96 1 54 94 2 55 95 1 54 96 2 55 97 2 55 97 2 55 97 1 54 94 1 54 94 2 55 95 2 55 95 1 56 95 1 54 94 3 55 95 2 55 95 
50 55 59 51 54 59 52 55 62 47 49 61 47 49 61 44 54 63 17 81 90 5 93 103 3 95 106 1 98 107 27 79 90 39 69 77 11 80 95 1 94 109 0 70 90 1 73 95 2 64 89 2 79 99 1 61 87 0 39 72 2 41 74 1 40 73 1 39 75 1 39 75 1 41 76 1 41 76 1 41 77 2 42 78 0 43 78 0 43 78 1 44 79 1 44 79 1 43 81 1 45 82 2 44 82 1 45 82 1 45 82 1 47 83 2 46 85 2 46 85 2 47 86 2 47 86 2 47 86 3 48 87 3 48 87 2 50 90 2 50 90 2 50 90 2 50 90 2 50 88 3 50 92 2 51 92 1 51 86 2 56 66 1 56 63 2 57 64 0 57 66 0 57 64 1 58 65 3 58 65 3 58 65 1 59 63 1 59 63 1 59 63 1 59 63 1 59 63 1 59 61 2 60 62 0 60 61 1 59 61 2 60 62 2 60 62 1 61 62 2 60 61 2 60 61 2 60 61 3 61 62 3 61 62 3 61 62 3 62 60 3 61 62 3 62 60 2 58 81 2 55 95 2 55 97 2 55 97 2 55 95 2 55 95 2 55 97 2 55 97 1 54 96 2 55 97 2 55 95 2 55 95 2 55 95 2 55 95 2 55 95 2 55 95 2 55 95 2 55 95 
