P3
100 50
255
43 24 20 44 23 20 43 24 20 43 24 18 44 23 18 43 22 17 42 23 17 44 23 18 44 23 20 40 21 17 39 18 15 39 20 16 43 22 19 42 23 19 45 24 19 45 24 19 44 23 18 45 24 19 44 23 20 44 23 20 44 23 20 44 23 20 44 23 18 44 23 18 44 23 20 44 23 20 44 23 18 43 22 17 44 23 18 44 25 19 43 24 20 39 20 16 35 16 12 40 21 17 43 22 19 39 15 13 30 6 4 28 7 6 25 9 10 23 9 8 26 6 5 26 6 5 28 8 7 29 9 8 34 13 28 37 19 43 35 19 46 35 19 46 35 19 48 32 17 46 33 18 47 34 18 45 33 18 47 35 19 48 37 16 47 35 19 46 36 20 46 31 25 39 28 27 33 29 28 33 28 26 29 26 24 25 23 14 9 25 14 10 27 18 11 28 17 11 27 18 11 30 17 11 28 24 23 29 29 29 28 28 28 28 29 31 28 28 30 27 27 29 28 28 30 28 28 30 29 29 31 19 19 21 19 19 21 21 21 23 22 22 24 21 21 23 22 22 24 22 22 24 21 21 23 21 21 23 21 21 23 21 21 23 22 22 24 20 21 23 20 20 22 20 20 22 21 21 23 21 22 24 22 22 24 22 22 24 22 21 27 23 19 33 23 19 36 27 16 46 
43 24 20 43 24 20 43 24 20 43 24 20 42 23 19 44 23 18 44 23 18 45 24 19 44 23 20 41 22 18 41 20 17 39 20 16 43 22 19 42 23 19 43 22 17 42 23 17 46 25 20 44 25 19 44 23 20 43 22 19 45 24 21 43 24 20 42 21 16 44 23 18 44 23 20 43 22 17 44 23 18 44 23 18 43 22 17 44 23 18 44 25 19 40 21 17 39 18 15 40 21 17 42 21 18 37 16 13 29 8 7 27 7 6 25 9 10 23 9 9 27 7 8 26 8 8 29 8 7 28 9 5 34 14 26 35 16 38 35 17 43 34 18 45 34 18 45 33 18 47 33 16 48 34 17 49 32 17 48 34 18 47 34 18 47 34 19 48 34 18 45 31 22 39 27 25 36 26 25 33 26 27 31 24 24 26 22 14 12 23 15 12 28 17 13 27 18 13 28 18 9 28 18 9 30 26 25 27 27 29 28 28 30 27 28 32 28 28 30 29 29 31 28 28 30 27 27 29 28 28 30 19 19 21 19 19 21 22 22 24 22 22 24 22 22 24 21 21 23 22 22 24 23 23 25 21 21 23 21 21 23 22 22 24 21 21 23 21 21 23 18 22 23 21 21 23 21 21 23 22 22 24 19 23 24 22 22 24 22 21 27 23 19 34 24 20 37 28 17 47 
44 23 18 43 24 20 43 22 19 43 24 20 44 23 20 42 23 19 43 24 18 43 22 17 43 24 18 44 23 18 43 22 19 43 22 17 43 22 19 41 22 18 39 18 15 38 17 14 44 23 18 44 23 18 44 23 18 43 22 19 44 23 20 43 22 19 43 22 19 44 23 20 44 23 20 44 23 20 43 22 19 43 22 19 44 23 20 43 22 19 43 24 20 44 23 20 44 25 19 40 19 16 35 16 12 33 12 11 27 7 6 28 10 8 26 21 18 24 18 18 20 14 14 21 15 15 27 7 6 29 8 7 31 7 7 31 7 7 30 12 26 32 17 46 32 19 47 33 18 49 33 18 49 31 18 46 31 18 48 31 18 48 31 18 46 31 18 48 28 17 49 26 17 46 25 16 47 23 17 43 23 18 40 22 17 37 18 15 26 20 14 28 24 15 8 23 14 7 25 16 11 26 15 11 28 24 23 28 26 29 28 28 30 29 29 31 28 28 30 28 28 30 28 28 30 26 26 28 25 25 27 18 18 20 18 17 22 21 21 23 21 21 23 22 21 26 23 23 25 21 21 23 21 21 23 22 21 26 21 21 23 21 21 23 19 20 22 21 22 24 21 21 23 21 21 23 22 21 27 21 20 26 23 18 38 26 17 44 24 18 46 23 16 47 26 17 48 26 16 50 
43 22 19 45 24 21 44 23 20 43 24 20 44 23 18 44 23 18 42 23 17 44 23 18 43 22 17 45 24 19 43 24 18 44 23 20 43 22 19 43 22 19 39 18 15 37 18 14 46 25 22 44 23 20 43 22 19 44 23 20 44 23 18 43 22 19 44 23 20 44 23 20 44 23 20 43 22 19 45 24 21 43 22 19 44 23 20 44 23 20 43 24 20 44 23 20 43 24 18 40 19 16 35 14 11 34 13 10 27 7 6 27 9 7 26 20 20 28 19 20 22 13 14 23 14 15 29 7 9 28 6 8 30 6 6 31 5 8 30 12 26 32 17 46 32 17 46 33 18 49 33 18 49 30 17 47 28 17 49 30 17 47 30 16 49 30 17 47 28 17 47 27 16 48 26 17 48 23 17 43 23 18 38 21 16 36 18 15 26 21 15 27 23 14 9 23 14 7 26 15 11 25 16 9 28 24 25 28 28 28 28 28 28 27 28 32 29 29 31 30 30 30 29 29 31 26 26 28 25 24 29 16 15 20 18 18 20 21 21 23 22 22 24 21 21 23 20 21 23 22 22 24 22 22 24 21 22 24 22 22 24 22 22 24 21 22 24 20 20 20 22 22 24 23 23 25 22 21 26 23 20 27 23 18 38 26 17 44 26 17 48 24 17 48 25 16 47 25 15 49 
31 16 13 41 22 18 41 22 18 44 23 20 43 22 17 43 24 18 43 22 19 44 23 18 44 23 18 44 23 18 43 24 17 44 23 18 44 23 18 42 21 18 43 22 19 43 24 20 38 19 15 38 19 15 42 21 18 43 22 19 44 23 18 44 23 20 43 24 18 42 23 19 44 23 20 44 23 20 45 24 21 44 23 20 44 23 20 44 23 20 42 23 19 43 22 19 44 23 18 37 16 13 30 9 8 30 10 9 26 15 13 27 15 15 26 17 18 26 20 20 25 19 19 26 17 20 23 14 15 22 12 11 27 9 9 28 7 6 29 9 11 29 10 14 28 12 25 29 15 48 28 17 47 30 16 49 27 16 46 28 17 49 27 18 47 28 17 49 27 18 49 28 17 49 27 17 51 27 18 47 26 17 46 23 17 45 21 15 41 24 15 42 20 15 37 21 16 38 21 14 22 20 15 22 26 24 27 28 28 30 26 26 28 26 26 28 27 27 29 30 30 32 27 27 29 18 18 20 21 21 23 18 18 20 18 18 20 19 18 23 19 18 23 20 20 22 20 21 23 21 21 23 20 20 22 20 21 23 22 22 24 21 20 25 21 21 23 21 21 23 21 18 39 24 19 41 25 16 43 23 17 45 25 16 45 28 17 49 25 16 47 26 17 48 26 17 48 25 15 49 
29 14 11 39 20 16 39 20 16 44 23 20 44 23 18 43 24 18 46 22 20 43 24 18 43 24 18 44 23 18 44 23 18 44 23 18 43 22 17 42 23 17 46 25 20 45 24 19 38 19 15 38 19 15 42 21 18 43 22 19 44 23 20 44 23 20 42 23 19 43 24 20 43 22 19 44 23 20 44 23 20 44 23 20 44 23 20 44 23 20 42 23 19 45 24 21 44 23 20 35 16 12 28 7 4 29 9 8 29 15 14 28 16 16 25 19 19 26 20 20 26 20 20 26 20 20 22 16 16 22 13 14 25 9 9 27 6 5 28 8 7 29 10 12 26 10 20 27 16 48 28 17 49 26 17 46 27 18 49 28 17 49 27 16 46 28 17 49 28 17 49 28 17 49 27 16 48 27 16 48 25 16 45 22 15 46 21 15 43 22 16 42 19 15 42 20 14 42 19 13 25 20 14 24 25 24 29 27 27 27 25 25 27 24 24 26 26 26 28 29 29 31 26 26 28 19 18 23 19 19 21 17 17 19 17 17 17 20 20 22 19 19 21 20 20 22 20 21 23 20 21 23 20 21 23 20 21 23 21 21 23 22 22 24 22 21 26 21 21 23 23 19 42 24 19 41 24 17 48 26 17 48 26 16 51 25 16 47 25 16 47 26 17 48 25 16 47 26 17 48 
34 13 12 36 18 16 36 18 14 39 20 16 40 19 16 42 21 18 43 22 17 43 22 17 43 24 18 43 22 17 44 23 18 44 23 18 44 23 18 44 25 19 44 23 18 44 23 18 43 22 19 43 22 19 42 23 19 43 24 20 40 21 17 39 20 16 41 20 17 45 24 21 44 23 20 44 23 20 43 22 19 44 23 18 43 22 17 45 24 21 42 23 19 39 18 15 37 16 13 34 13 12 28 8 9 30 12 12 27 18 19 26 17 18 16 12 13 18 12 12 24 18 18 24 18 18 24 18 18 24 18 18 25 15 16 22 12 11 24 10 10 27 5 7 29 7 10 29 11 23 29 11 23 26 15 47 26 17 48 26 17 48 27 18 49 25 16 47 26 17 48 26 15 49 27 16 48 26 15 47 26 17 48 25 15 49 23 16 47 23 16 47 22 17 47 21 16 46 22 16 42 24 15 42 26 24 37 27 26 34 26 25 31 26 26 28 26 26 28 27 27 29 27 27 29 25 24 29 25 25 27 21 21 23 20 20 22 21 21 23 21 20 25 20 19 24 20 20 22 20 20 22 22 22 24 21 20 26 21 19 32 22 20 34 26 18 42 26 18 42 25 16 47 24 18 46 23 16 47 26 15 47 25 18 49 23 16 47 25 16 47 25 16 47 27 18 49 28 17 49 
38 14 12 35 17 15 36 18 16 38 19 15 38 19 15 42 21 18 44 23 18 43 22 17 44 23 20 44 23 20 44 25 21 44 23 18 44 23 18 44 24 17 44 23 18 43 24 18 43 22 17 44 23 18 42 23 19 42 23 19 39 20 16 38 19 15 40 19 16 44 23 20 44 23 20 44 23 20 44 23 20 43 22 17 44 23 18 44 23 20 44 25 21 38 17 14 36 15 12 32 11 10 30 9 8 27 11 11 24 20 19 21 20 18 13 9 8 14 10 9 23 17 17 22 16 16 27 18 19 27 18 19 22 16 16 20 14 16 26 10 10 27 6 5 27 7 6 29 9 11 30 11 17 27 16 50 27 16 48 26 17 48 26 16 50 28 17 51 26 17 48 26 17 48 26 15 47 26 15 47 25 16 47 25 16 47 23 16 49 23 16 49 22 15 48 23 16 47 25 18 49 25 16 47 26 24 38 27 26 34 27 26 32 26 27 29 26 26 28 26 26 28 26 26 28 26 25 30 27 27 29 22 22 24 21 20 25 22 22 24 20 21 23 21 20 25 19 19 21 19 20 22 21 21 23 22 21 27 24 20 37 22 19 38 26 17 48 25 16 45 25 15 50 24 15 46 26 17 48 26 17 48 26 15 47 24 15 46 26 17 48 23 16 49 27 18 49 30 17 47 
39 14 10 32 14 12 32 14 12 41 20 17 39 20 16 42 23 19 42 23 19 40 21 17 40 19 16 42 21 18 43 24 20 44 23 20 43 22 19 44 23 18 45 24 19 43 24 18 44 23 18 44 23 18 44 23 20 43 22 19 43 22 19 43 22 19 42 21 18 42 21 18 41 20 17 41 20 17 42 21 16 44 23 18 44 23 18 43 22 17 41 22 18 33 12 9 31 10 9 28 10 10 23 9 8 21 9 9 16 12 13 15 9 11 14 10 9 15 9 11 24 18 18 23 17 19 25 19 19 24 20 19 24 18 18 26 17 18 24 15 16 24 12 12 25 11 10 26 7 9 28 8 10 30 12 28 31 13 29 26 15 49 26 17 46 25 16 47 26 17 48 25 15 49 27 18 49 25 15 49 26 17 48 23 16 49 23 16 47 25 16 47 24 17 48 23 16 49 23 16 47 23 16 47 24 18 46 23 18 41 24 21 40 24 23 37 26 24 35 28 28 30 27 27 29 27 27 29 26 26 28 20 19 24 20 19 24 21 21 23 21 22 24 21 20 28 20 19 27 23 19 33 22 18 35 22 17 37 25 16 43 24 18 46 26 16 50 26 16 50 23 16 49 25 16 47 23 16 47 23 16 49 25 15 49 23 16 49 25 15 49 24 17 50 25 18 49 28 17 49 
42 14 11 31 11 10 31 13 13 40 21 17 41 22 18 42 21 18 42 23 19 40 19 16 37 18 14 41 20 17 43 22 19 44 23 20 44 23 18 43 24 20 44 23 18 43 22 17 43 22 19 44 23 20 44 23 18 44 23 18 44 23 18 44 23 18 43 22 19 40 19 16 39 18 15 39 18 15 40 20 13 44 23 18 44 23 18 42 22 15 42 23 19 31 10 7 29 5 3 24 10 9 21 11 10 18 10 7 9 5 6 10 4 6 17 8 9 15 9 9 25 16 17 24 18 18 24 18 18 29 19 20 27 18 19 25 19 19 23 17 17 20 14 14 23 13 14 24 6 6 26 6 7 30 11 17 30 11 15 26 17 48 26 17 46 25 16 47 25 15 49 23 16 47 25 16 45 25 16 47 23 16 49 23 16 47 26 17 48 23 16 47 23 16 49 23 16 47 23 16 49 23 16 47 23 16 47 25 15 49 24 18 46 23 19 44 25 22 39 27 26 31 29 28 33 28 28 30 29 29 31 20 19 24 20 20 22 22 22 22 21 22 24 22 21 27 22 20 33 23 18 40 24 18 46 23 16 47 25 16 47 23 16 49 25 15 49 23 16 47 23 16 47 23 16 47 23 16 49 23 16 47 23 16 49 25 16 47 23 16 49 25 15 49 24 17 48 27 18 49 
41 11 11 36 12 8 36 12 8 34 19 14 36 18 16 41 20 17 44 23 18 41 20 15 40 19 16 42 21 16 43 22 19 42 21 16 42 23 19 42 21 16 44 23 18 44 23 20 44 23 20 43 24 20 42 23 19 43 22 19 43 24 20 44 23 20 42 21 18 40 19 16 41 20 19 40 19 14 41 20 17 44 23 18 42 21 16 38 17 14 37 18 14 30 10 9 30 6 6 25 9 9 22 12 11 19 10 11 13 7 9 13 7 7 14 8 8 13 9 8 25 19 19 23 17 19 25 19 19 25 19 19 25 19 19 26 17 18 25 17 15 25 13 13 25 11 10 24 6 4 24 6 6 29 9 10 29 9 11 28 14 37 28 15 35 26 17 46 26 17 48 29 15 48 26 17 48 25 16 47 25 15 49 23 16 49 25 15 49 26 16 50 23 16 50 23 16 49 22 15 46 23 16 47 22 17 47 22 15 48 24 17 48 23 19 46 24 20 43 26 24 37 27 25 38 27 26 34 27 26 32 20 21 25 20 19 24 22 21 27 21 21 31 21 19 33 23 19 36 23 18 41 26 17 46 27 18 47 26 16 50 23 17 45 25 16 47 24 17 48 23 18 48 24 17 48 24 17 48 24 17 50 25 15 49 24 15 46 25 16 47 26 17 48 25 16 47 27 16 50 
34 8 11 46 16 14 46 16 14 27 11 11 27 12 9 42 21 16 44 24 17 44 23 18 46 25 24 41 22 18 37 19 15 40 21 17 41 22 16 42 21 16 44 23 18 42 21 18 44 23 18 44 23 20 44 23 20 43 24 20 43 22 17 43 22 17 42 23 17 45 21 19 42 23 19 45 24 19 45 24 19 41 22 18 42 21 18 29 11 11 28 8 7 28 8 9 30 9 8 25 13 15 23 17 17 19 13 13 17 9 7 15 9 9 9 5 4 8 7 5 24 18 18 25 17 15 26 20 20 25 19 21 24 18 18 24 15 16 28 14 13 34 10 10 30 9 8 24 6 4 25 5 7 26 6 5 25 7 3 31 12 16 32 11 18 30 16 41 30 17 47 27 16 48 26 17 48 25 16 47 21 16 46 23 16 47 25 16 47 25 15 49 23 16 49 25 15 49 25 15 49 23 16 49 23 16 49 22 15 48 21 16 48 21 16 46 23 16 49 24 17 50 24 18 44 25 22 41 26 22 39 22 21 27 22 21 27 24 19 42 26 17 46 27 18 47 28 17 49 28 17 49 26 17 48 24 15 46 26 17 48 28 17 49 27 18 49 27 18 47 28 17 49 30 16 49 28 17 49 26 17 48 24 17 48 23 16 47 26 17 48 27 16 50 25 16 47 26 17 48 
35 9 12 43 13 13 42 14 11 32 12 11 31 12 8 39 20 14 39 20 16 41 22 15 45 24 21 41 22 18 40 21 17 40 21 17 42 21 16 42 21 16 42 21 16 42 23 19 43 22 17 43 24 18 43 22 17 43 22 17 43 24 20 44 23 20 44 23 20 44 23 20 42 23 17 44 23 20 43 24 18 42 23 19 42 23 17 28 10 8 28 8 7 28 10 10 27 11 11 24 14 13 22 16 16 20 14 14 19 11 9 19 9 10 13 9 10 13 9 8 24 15 16 24 15 16 27 18 19 27 17 18 26 14 14 23 13 12 29 11 11 32 11 10 30 9 8 25 7 7 27 6 5 21 6 9 21 5 6 25 8 24 25 9 22 29 15 38 30 17 45 27 16 46 26 15 47 26 17 46 24 18 46 26 17 48 23 16 47 22 16 44 23 16 47 23 16 47 25 15 49 25 16 47 23 16 49 23 16 49 22 15 48 22 15 46 23 16 49 24 17 50 26 17 46 26 21 43 25 20 42 23 20 31 22 20 31 26 17 44 26 17 46 27 16 46 27 18 49 27 16 48 27 18 49 26 17 48 28 17 47 27 18 49 26 17 46 28 17 47 28 17 49 28 17 49 27 16 46 26 17 48 24 17 48 26 17 48 27 18 49 28 17 49 27 16 46 28 17 47 
37 6 12 30 9 8 33 9 9 44 14 12 45 15 13 31 13 13 28 14 11 38 19 15 44 23 18 44 23 18 43 22 17 46 22 18 44 23 20 44 20 18 37 18 14 37 19 15 41 22 18 43 24 18 43 24 18 45 24 19 45 21 19 44 23 20 43 22 19 44 23 18 44 23 18 42 23 17 43 22 19 43 22 19 43 22 19 33 9 9 31 7 7 27 15 15 25 16 17 21 17 16 19 13 13 20 14 14 21 12 13 20 15 12 29 20 21 28 19 20 23 19 18 23 17 17 31 13 11 31 11 10 29 10 6 30 9 4 31 7 5 29 8 7 29 8 7 31 7 7 28 6 8 7 5 19 8 4 18 4 5 36 5 4 36 19 9 34 23 12 29 27 13 36 29 17 41 27 17 44 25 18 49 26 17 48 23 16 47 25 16 47 23 16 49 24 17 50 23 16 47 23 16 49 23 16 47 23 16 49 23 16 47 24 17 48 23 16 49 23 16 50 25 14 48 24 17 48 23 16 47 28 17 49 28 17 49 29 18 48 28 17 49 30 17 45 31 17 50 31 18 48 31 18 48 31 17 50 30 17 47 30 16 49 30 17 47 31 18 48 29 18 48 28 17 47 27 16 46 28 17 49 28 17 49 28 17 47 29 16 46 31 18 48 31 18 48 32 17 48 
38 7 12 31 10 7 31 10 9 44 14 12 44 14 12 29 14 11 28 14 11 38 20 18 43 24 20 43 24 20 43 24 18 44 23 18 45 24 19 43 22 19 37 18 14 36 17 13 43 22 19 43 22 17 44 23 20 42 23 16 44 23 20 44 24 17 43 24 18 44 24 17 43 24 18 44 23 18 43 24 20 43 22 19 43 22 21 32 8 6 30 6 6 28 14 14 27 18 19 22 16 16 19 15 14 20 14 14 21 12 13 22 13 14 29 21 19 28 19 20 25 19 21 24 18 18 30 12 10 31 11 10 33 9 9 30 9 6 32 8 6 28 7 6 31 7 5 28 7 4 26 8 8 9 5 20 8 4 19 4 5 36 4 3 37 19 9 33 23 12 28 27 13 36 29 17 41 26 16 43 27 16 48 26 17 48 27 16 48 26 16 51 24 15 46 26 15 49 23 16 47 25 15 49 25 16 47 26 16 50 22 15 46 22 15 48 25 15 49 23 16 49 23 16 47 23 16 49 25 15 49 27 16 48 27 18 49 30 17 47 28 17 49 31 17 50 33 18 49 31 18 48 31 18 48 31 18 48 31 18 48 30 17 47 31 18 48 31 18 48 29 18 50 28 18 45 28 17 49 27 16 46 28 17 47 28 17 49 30 17 45 30 17 47 30 19 49 33 18 47 
39 6 13 37 6 11 37 6 12 37 11 10 37 11 10 38 14 12 38 14 12 36 16 15 36 18 14 39 20 16 42 23 19 44 23 18 43 22 17 44 23 18 43 24 20 43 24 20 42 21 16 41 22 18 39 18 15 41 17 15 41 22 16 44 23 18 44 23 18 43 24 20 44 23 18 43 24 18 44 20 18 33 9 7 31 10 9 29 9 10 29 9 10 26 16 15 24 18 20 24 19 16 24 18 20 24 18 20 23 19 20 23 17 17 31 11 10 28 12 12 31 10 7 32 8 6 31 5 6 31 7 7 31 7 5 29 8 7 28 7 6 25 7 5 26 8 6 31 7 5 27 7 6 7 10 3 8 11 4 1 11 2 2 12 4 0 10 1 1 11 2 1 10 7 3 12 11 6 10 11 20 11 14 19 11 22 27 14 40 25 15 40 23 16 47 25 16 47 22 16 44 26 15 49 26 16 50 26 16 50 26 17 48 25 16 47 26 15 47 28 17 49 26 17 48 26 17 48 25 16 47 25 16 47 26 17 48 31 18 48 32 17 46 32 17 46 35 16 48 34 19 48 34 19 48 35 19 48 34 18 45 33 19 45 33 18 47 33 18 47 34 19 48 34 19 48 31 16 45 32 17 48 33 18 47 33 18 47 35 19 48 34 18 47 37 18 46 44 19 48 
40 7 14 37 6 12 35 6 11 38 12 11 38 12 11 39 13 12 39 13 12 35 15 14 34 16 14 39 20 16 43 22 19 44 23 18 44 23 18 42 23 17 43 24 18 44 24 17 41 22 18 41 22 18 39 20 16 38 17 14 44 20 18 44 23 20 43 22 19 43 22 19 44 23 20 45 24 21 41 22 18 31 10 7 31 10 7 30 10 9 29 9 10 26 16 15 23 17 19 24 19 16 24 18 18 24 18 18 23 17 19 26 17 18 30 12 10 28 12 12 33 7 8 33 9 7 31 7 7 31 7 7 30 6 4 30 6 6 28 7 6 25 7 7 26 6 5 29 8 7 27 7 6 9 10 5 9 10 4 1 11 0 2 12 4 0 12 2 1 11 0 2 11 8 3 12 11 7 11 14 17 11 13 19 12 19 25 15 39 25 15 39 23 16 49 23 16 47 23 16 47 25 15 49 25 16 47 25 15 49 26 17 48 26 17 48 25 16 47 26 15 47 26 17 46 27 17 51 26 17 48 26 17 48 27 18 49 31 18 48 33 18 47 33 18 47 33 18 47 35 19 48 35 19 48 35 19 48 34 18 47 32 17 46 32 17 46 32 18 51 34 19 48 32 17 46 32 19 47 33 18 49 33 18 47 34 18 47 34 18 47 36 17 45 38 19 47 43 20 48 
40 7 14 42 7 13 40 7 14 32 7 10 33 7 10 41 13 12 42 14 13 38 14 12 33 14 10 37 18 14 40 23 16 41 22 16 42 23 17 44 23 20 43 22 19 43 22 19 43 22 19 43 22 19 43 22 19 42 21 18 43 22 19 40 19 16 40 21 17 42 21 18 40 21 17 42 21 18 39 20 16 30 6 4 31 7 7 28 14 14 26 14 18 25 17 15 23 17 19 25 17 15 26 14 14 28 14 13 33 12 11 31 10 9 29 8 7 29 8 7 31 7 7 31 7 7 26 8 6 26 8 8 24 14 13 26 17 20 25 13 13 23 9 8 24 8 8 29 8 7 27 7 8 9 10 5 9 10 5 2 9 2 0 11 3 1 11 3 1 12 4 0 11 5 2 11 6 1 11 3 2 11 6 1 10 5 3 13 5 6 12 10 18 12 16 19 13 17 26 14 38 25 15 40 25 16 47 26 17 48 25 16 47 26 15 45 26 17 46 26 17 48 25 16 47 25 16 47 25 16 47 31 17 50 31 18 48 32 18 51 32 19 49 33 18 49 33 18 47 34 18 47 34 18 47 35 19 46 33 18 47 32 19 47 33 18 47 33 18 47 33 20 50 35 20 49 33 18 47 32 19 47 34 19 48 33 18 47 36 20 47 43 20 48 42 19 47 44 19 48 
42 7 14 42 6 16 43 6 14 32 5 10 32 5 10 42 14 13 42 14 13 37 13 11 31 12 8 35 17 17 40 21 17 41 22 16 42 23 17 44 23 18 45 24 19 43 24 20 44 23 20 44 23 18 44 23 18 45 24 21 40 21 17 39 20 16 39 20 16 40 19 14 42 21 16 41 20 17 42 18 16 28 7 4 27 6 3 26 14 14 28 16 18 24 18 18 22 18 17 25 15 14 25 14 12 30 12 12 33 9 9 34 10 8 29 8 7 28 7 4 31 7 3 32 6 5 28 10 8 25 9 9 25 15 14 23 19 16 24 14 13 23 9 9 23 9 8 30 6 4 27 7 6 7 9 4 7 10 3 0 10 2 1 11 3 0 11 3 2 12 4 0 11 3 2 12 4 0 11 5 1 11 3 1 11 3 0 11 3 5 11 7 17 11 11 19 10 11 26 14 38 25 15 39 25 16 45 24 18 46 25 15 49 25 15 49 26 16 50 24 17 48 26 17 48 22 15 46 26 16 50 31 18 48 31 16 47 32 17 48 32 17 46 33 18 47 34 18 47 34 17 49 35 19 48 34 18 47 33 18 47 32 19 47 33 18 47 33 18 47 33 18 47 33 18 49 32 17 46 34 19 48 34 19 48 34 19 48 34 18 47 44 19 48 44 21 49 44 19 48 
39 6 13 40 5 12 39 6 13 38 7 15 37 6 11 33 7 8 35 11 9 33 9 7 36 10 9 33 13 12 34 16 12 38 19 15 42 23 17 44 23 18 43 22 17 42 23 16 43 24 20 44 23 20 43 22 19 42 23 19 41 22 18 41 20 17 44 20 18 43 23 16 38 19 15 33 13 12 31 11 10 28 8 9 28 8 7 26 14 16 25 15 14 32 14 14 29 13 13 29 11 9 29 9 8 29 9 8 32 8 8 32 8 6 28 8 7 27 9 7 25 13 13 25 13 13 26 16 15 25 17 15 26 17 18 25 19 19 24 14 13 22 8 7 24 8 8 31 7 5 28 8 9 6 15 10 5 14 9 1 16 11 0 17 9 1 14 7 1 13 9 0 15 5 1 17 7 0 15 5 1 17 7 3 16 7 0 17 7 1 17 7 7 18 10 7 18 10 9 14 17 8 13 16 17 14 23 20 12 23 22 15 33 24 15 42 23 17 45 23 16 47 24 17 48 25 15 49 25 16 47 27 16 48 27 16 48 31 16 47 31 18 48 32 19 49 31 16 45 32 17 46 34 18 47 34 18 47 34 19 50 33 18 47 34 18 47 35 19 48 34 18 47 35 19 48 33 18 47 34 19 48 35 19 48 37 21 48 40 20 48 40 20 47 41 21 48 44 19 48 
39 6 15 38 7 13 39 6 13 40 7 14 42 7 14 31 6 9 32 6 9 34 10 8 35 9 8 31 11 10 30 15 12 33 18 15 43 22 17 44 23 18 43 24 18 44 23 18 44 23 20 43 22 21 44 23 20 44 23 20 44 23 20 44 23 20 43 24 20 44 25 19 41 20 17 26 6 5 26 8 8 29 9 10 30 10 9 25 13 13 25 15 14 32 12 11 35 11 9 33 9 7 31 7 5 29 8 5 28 7 4 30 6 6 27 7 6 28 8 7 23 17 17 24 18 18 24 20 19 23 19 18 25 19 19 25 19 19 24 14 13 21 10 8 25 9 9 31 7 7 28 8 7 8 17 14 6 17 13 0 19 13 1 20 14 2 15 8 0 13 4 1 17 7 0 18 6 2 19 9 1 21 9 1 21 9 0 20 8 2 22 10 0 20 8 0 20 9 0 16 6 0 15 4 12 12 10 17 11 11 22 14 27 26 16 43 23 17 43 22 15 48 23 16 47 25 16 47 27 16 48 25 16 47 27 16 48 30 17 47 31 18 48 33 16 48 32 17 48 33 18 47 33 18 47 35 19 48 35 18 50 32 19 47 34 18 47 35 19 48 38 19 47 35 19 46 33 18 47 34 17 49 38 19 49 39 19 47 40 20 48 39 19 47 43 20 48 43 20 48 
38 5 12 39 6 13 38 5 12 40 7 14 40 7 14 33 7 10 30 5 9 32 8 8 33 9 7 31 11 10 28 14 11 32 17 14 44 23 18 44 23 18 43 24 20 44 23 20 44 23 20 44 23 20 44 23 18 44 23 18 43 22 17 43 23 16 43 22 17 42 23 17 38 19 15 28 7 6 29 8 7 30 10 9 31 11 10 26 12 11 27 11 11 31 10 9 34 9 5 28 7 6 28 7 6 27 9 7 29 11 9 27 11 11 25 13 13 26 15 13 24 18 18 24 18 18 26 20 20 26 20 20 25 19 19 24 18 18 23 14 15 20 8 8 24 8 8 31 7 7 27 7 6 6 14 16 8 13 16 2 18 17 0 19 17 0 15 12 1 16 11 1 17 7 2 18 8 1 17 7 0 16 6 0 16 6 2 18 7 2 18 5 0 20 8 1 19 7 1 19 7 1 19 7 7 17 9 9 16 9 11 17 15 12 15 22 15 13 24 20 14 28 21 13 34 24 15 44 25 16 45 26 17 46 26 15 47 30 17 47 30 17 47 31 18 48 30 17 47 30 17 47 33 18 47 32 17 46 32 17 46 33 18 47 34 18 47 34 18 47 37 18 46 36 20 47 36 20 49 35 19 48 38 19 47 39 19 46 40 20 48 40 20 48 43 20 49 46 22 48 
39 6 15 41 6 12 41 6 13 40 7 14 42 7 14 32 5 10 32 5 10 31 7 7 29 8 5 29 9 8 27 13 10 32 17 14 44 23 18 44 23 18 43 24 20 44 23 20 44 23 18 43 24 18 43 24 17 43 22 17 43 22 17 44 23 18 41 20 15 40 19 16 37 16 13 30 6 6 30 6 4 32 11 10 32 11 10 30 9 8 32 8 8 31 7 5 31 7 7 29 8 7 28 7 6 26 10 10 24 14 13 23 14 15 25 21 20 24 20 19 25 19 19 25 19 19 25 19 19 25 19 19 24 20 19 23 19 18 23 14 15 23 9 9 24 8 8 31 7 7 27 7 6 10 10 18 8 11 18 2 17 20 2 16 17 0 19 17 1 20 18 1 17 14 1 18 10 0 15 8 1 11 3 2 13 5 0 16 6 0 15 5 1 19 7 1 19 7 0 20 8 2 20 8 1 19 7 1 19 7 2 20 8 1 18 8 8 15 8 18 12 12 18 11 18 25 15 39 25 15 40 26 17 46 27 18 47 28 17 47 29 18 48 28 17 47 27 18 47 30 17 47 32 17 48 31 18 48 32 17 46 32 17 46 34 19 48 33 18 47 35 19 46 35 19 46 37 18 48 37 18 46 40 20 47 41 21 48 42 19 48 39 19 47 40 20 47 46 22 48 
42 7 14 37 6 11 37 6 14 33 8 14 33 8 14 28 6 9 28 6 9 29 8 7 31 7 7 29 9 8 28 13 10 32 17 14 41 22 16 41 22 16 42 23 19 42 23 19 44 23 18 44 23 18 43 22 19 43 22 17 43 22 17 44 23 20 41 20 17 37 16 13 36 15 12 30 6 6 29 8 5 31 10 9 31 10 9 31 7 7 29 8 5 28 8 7 28 8 9 30 12 12 28 13 10 25 13 13 24 15 16 25 16 17 25 19 19 25 19 19 25 19 19 24 18 18 24 18 18 24 18 18 24 18 18 24 20 19 24 14 13 23 9 8 25 9 9 31 7 7 27 7 6 8 11 16 8 11 16 1 16 19 0 15 18 2 18 18 3 19 18 2 18 15 0 17 11 0 17 11 1 14 7 1 14 7 2 15 6 0 15 5 0 17 7 0 18 6 0 18 6 1 17 6 1 19 7 0 20 8 2 20 8 1 19 7 5 17 7 10 15 9 13 15 14 15 14 28 16 16 28 23 16 32 23 14 33 26 16 43 27 17 44 27 16 46 28 17 49 28 17 47 28 17 47 31 18 48 30 17 47 30 17 47 35 19 48 32 17 46 34 18 47 34 18 47 37 18 48 37 18 46 39 19 47 39 20 48 40 19 50 39 19 47 43 20 48 45 21 47 
39 6 13 31 6 10 31 6 12 21 11 12 21 11 12 25 7 7 26 6 7 27 6 5 28 6 8 31 11 12 30 16 13 32 17 14 38 19 15 37 18 14 39 20 16 40 21 17 44 23 18 44 23 18 43 22 19 43 22 19 43 22 17 43 22 19 38 17 14 30 9 8 31 10 7 27 6 5 28 7 6 28 7 6 28 7 4 31 5 6 28 7 6 26 10 10 25 11 11 25 15 16 25 19 19 24 18 18 28 18 19 25 19 19 24 18 18 25 19 19 27 18 19 25 19 19 22 16 16 21 15 15 23 17 17 24 18 18 22 12 11 23 9 8 23 9 8 31 7 5 27 7 8 9 8 14 9 8 14 2 13 19 2 13 19 0 15 18 0 15 18 0 18 18 1 20 18 1 20 16 1 20 14 1 18 10 1 12 6 1 14 5 1 17 6 1 17 6 1 14 4 0 15 5 2 18 7 1 21 9 0 21 8 0 20 8 2 20 8 0 20 8 2 18 7 2 15 5 1 14 4 16 10 10 15 11 10 23 14 35 23 15 39 25 16 45 25 16 47 26 17 46 27 16 48 27 16 48 27 16 48 28 17 49 30 17 47 29 18 48 33 18 49 31 16 47 37 18 48 37 18 46 41 18 47 40 20 48 40 20 48 39 19 46 42 19 47 44 20 46 
39 8 14 29 8 13 30 7 13 20 11 12 22 12 13 26 8 8 26 6 5 28 6 8 28 7 4 29 11 11 30 15 12 33 15 13 38 18 17 39 20 16 42 21 16 40 19 16 42 21 16 43 22 17 42 21 18 42 21 18 43 22 17 43 22 19 38 17 16 32 8 8 32 8 8 29 8 7 27 5 7 28 7 4 29 8 7 27 9 7 29 8 7 27 11 11 23 13 12 24 15 16 25 19 19 24 18 18 23 17 19 25 19 19 25 19 19 26 20 20 24 18 18 25 19 19 21 17 16 22 16 16 23 19 18 24 18 18 24 14 13 21 10 8 23 9 8 31 7 5 27 7 8 8 7 13 8 7 13 2 13 17 1 10 17 0 15 18 1 16 19 2 17 20 1 19 21 1 19 19 0 20 15 0 18 12 1 14 7 0 15 8 2 15 6 3 16 7 0 15 5 0 16 6 1 19 7 0 20 8 2 20 8 0 20 8 0 20 8 2 20 8 1 18 8 0 16 6 2 15 6 15 11 8 15 11 8 18 14 29 22 14 35 23 15 39 24 15 42 25 16 45 26 17 46 26 15 47 27 16 46 28 17 47 30 17 47 31 18 48 32 17 48 31 18 48 35 19 46 35 19 46 38 19 47 38 20 46 40 20 47 42 19 47 42 19 47 45 20 49 
22 13 14 25 19 19 25 19 19 23 14 15 21 15 15 26 8 8 27 5 7 27 6 5 28 7 6 29 11 9 30 15 10 35 17 15 44 23 20 43 22 17 44 25 21 44 25 21 38 19 13 37 18 14 40 19 16 39 20 16 38 19 13 40 19 16 38 14 14 29 8 7 30 6 6 28 7 4 27 6 3 27 9 7 27 9 9 23 17 17 24 18 18 25 19 19 26 17 18 27 18 19 25 19 19 24 18 18 25 19 19 24 20 19 25 19 19 23 19 18 25 19 19 27 18 19 25 19 19 24 18 18 25 19 19 24 18 18 24 14 15 23 9 9 23 9 8 30 6 4 27 7 6 8 3 10 6 3 12 0 9 18 1 8 16 1 12 18 2 13 19 1 16 19 2 18 18 1 16 19 1 17 17 0 19 17 1 16 11 0 16 6 1 11 3 0 10 2 0 18 6 1 19 7 0 19 8 0 20 8 0 20 8 0 19 7 0 20 8 0 20 8 2 20 8 3 16 6 0 17 5 1 11 3 1 11 3 0 11 3 0 10 4 7 12 6 15 11 10 20 12 25 26 16 41 27 17 44 26 17 46 26 17 48 27 16 46 28 18 45 28 17 47 29 18 48 32 19 47 32 17 46 34 18 47 37 18 48 39 19 47 40 20 47 42 19 47 43 20 49 
22 13 14 25 19 19 25 19 19 23 14 15 23 14 15 26 6 7 27 5 7 28 7 6 28 7 6 29 11 11 32 14 12 34 16 14 43 24 18 43 24 18 43 24 18 43 24 18 38 17 14 41 17 15 40 19 16 40 19 16 39 20 16 40 19 16 36 15 12 29 8 5 27 6 5 27 6 5 27 6 5 26 8 8 26 7 9 23 17 17 23 19 18 24 18 18 26 17 18 25 19 19 25 19 19 25 19 19 25 19 19 25 19 19 25 19 19 27 18 19 25 19 19 25 19 19 25 19 19 25 19 19 25 19 19 24 18 18 24 14 13 20 9 7 23 9 9 31 7 5 27 7 6 7 4 13 6 3 12 0 7 17 0 7 17 2 13 19 0 13 19 1 16 19 1 16 19 2 18 18 2 18 18 1 17 17 2 17 10 1 16 9 1 11 2 0 10 2 1 17 6 1 19 7 0 20 8 0 20 8 0 20 8 0 20 8 0 19 7 2 20 8 2 20 8 1 17 6 0 16 5 1 12 4 0 11 3 1 11 3 1 11 3 10 10 8 16 10 10 21 13 26 26 16 41 26 17 44 27 16 46 26 17 46 28 17 47 29 18 48 28 17 47 30 17 47 32 19 47 32 17 46 34 18 47 37 18 46 36 17 45 40 20 48 42 19 47 42 19 48 
24 18 18 25 19 19 24 18 18 22 13 14 23 14 15 27 7 8 26 6 7 29 8 7 28 7 6 30 10 9 33 15 13 33 18 15 43 22 17 43 24 20 43 22 19 43 22 19 42 23 17 42 23 17 44 23 18 44 23 20 33 15 13 28 8 7 28 8 7 27 7 6 26 8 8 27 11 11 27 11 12 25 19 19 25 20 17 23 17 17 22 16 16 24 15 16 22 16 16 24 18 18 25 19 19 24 18 18 26 17 18 25 19 19 24 20 19 25 19 19 25 19 19 25 19 19 25 19 19 24 18 18 25 19 19 25 19 19 23 13 12 23 9 8 25 9 9 31 7 7 27 7 6 7 2 8 8 3 10 2 2 12 2 2 12 0 4 13 1 6 12 0 9 16 0 10 19 0 12 20 1 12 18 1 12 16 1 10 5 1 10 7 2 12 4 1 11 3 0 13 4 0 16 6 1 19 7 0 21 8 0 20 8 0 19 8 0 20 8 0 20 8 0 18 6 1 14 5 1 14 4 0 11 3 0 11 3 0 10 2 0 10 2 0 12 5 1 12 4 1 11 3 0 11 3 2 12 4 16 12 11 17 12 18 29 17 41 30 16 42 31 18 46 32 17 46 32 17 46 31 16 49 33 18 49 34 18 45 36 17 45 39 19 47 40 20 47 43 20 48 
25 19 19 25 19 19 25 19 19 23 14 15 21 12 13 26 8 8 26 6 7 28 7 6 28 7 4 29 11 9 29 14 11 35 17 13 43 24 18 43 22 17 45 21 17 43 22 17 42 21 16 43 22 17 43 24 18 42 23 19 34 14 13 28 8 7 28 8 7 26 6 5 26 8 6 26 10 11 26 12 12 25 20 17 25 19 19 24 15 16 22 17 14 21 15 15 22 16 16 23 17 17 25 19 19 24 18 18 26 17 18 25 19 19 25 19 19 27 18 19 26 17 18 25 19 19 27 18 19 25 19 19 24 18 18 23 19 18 24 14 15 20 9 7 23 9 6 29 8 7 27 6 5 8 3 9 7 5 10 2 2 12 3 3 15 1 4 11 2 5 12 0 9 18 1 11 21 1 11 20 0 14 17 1 12 16 1 10 5 1 10 5 1 11 3 0 9 6 0 13 4 0 13 4 1 18 8 0 20 8 0 19 8 0 20 9 2 20 8 0 20 9 1 18 8 1 14 5 0 13 4 0 11 3 1 11 3 1 11 3 0 11 3 1 12 4 0 10 2 1 12 4 1 11 3 4 10 6 15 11 10 17 13 12 30 16 42 31 17 43 31 16 47 31 18 46 33 18 47 32 17 48 33 17 46 34 18 47 38 19 47 41 21 48 42 19 47 41 18 46 
22 16 16 24 18 18 23 17 17 23 14 15 24 15 16 25 7 7 27 5 7 27 6 5 28 7 6 25 9 10 25 13 13 30 16 15 42 23 19 41 22 16 43 22 17 40 22 18 43 24 18 42 23 19 40 21 15 38 19 15 32 11 8 31 7 7 27 6 3 27 6 5 28 8 7 24 10 9 25 14 12 25 19 19 25 19 19 24 18 18 24 18 18 24 18 18 25 19 19 25 19 19 24 18 18 25 19 19 25 19 19 25 19 19 24 18 18 24 18 18 23 19 18 24 18 18 23 17 17 23 17 17 23 17 17 25 19 19 23 14 15 20 8 8 24 8 8 30 6 4 27 5 7 7 2 22 8 3 23 0 1 19 3 0 19 0 2 14 2 2 12 2 4 16 1 5 16 0 5 11 0 10 12 0 9 10 1 10 7 1 10 5 2 11 6 4 10 6 1 14 5 2 13 5 1 18 8 0 20 8 0 20 9 0 19 7 3 21 9 0 20 9 1 18 8 1 14 5 0 13 4 0 11 3 1 11 3 0 10 2 0 11 3 0 10 2 2 12 4 0 10 2 0 11 3 1 11 3 7 9 4 6 10 9 8 12 13 10 11 13 18 13 19 19 14 20 31 16 37 34 16 42 34 18 45 34 18 47 35 19 48 39 19 46 39 19 47 42 19 48 
23 17 17 23 17 17 22 16 16 23 14 15 24 15 16 27 9 9 28 6 8 27 6 5 27 7 6 26 10 10 23 15 13 27 15 15 40 22 18 41 22 18 43 24 18 43 22 19 43 24 18 43 24 18 39 18 17 37 16 11 34 10 10 28 7 6 28 7 6 26 6 5 27 7 8 25 10 13 27 13 12 25 19 19 24 20 21 25 19 19 27 18 19 25 19 19 25 19 19 25 19 19 24 18 18 25 19 19 25 19 19 25 19 19 24 18 18 24 18 18 24 18 18 25 19 19 22 16 16 22 16 16 24 18 18 26 20 20 24 14 15 23 9 9 25 9 9 29 8 5 29 7 10 6 1 24 7 2 25 0 1 22 3 2 20 0 2 14 0 3 12 0 3 12 0 3 10 1 4 11 1 6 9 0 9 6 1 10 7 1 10 5 0 9 4 1 10 5 1 12 4 1 12 4 0 17 7 0 20 8 0 20 8 2 20 8 2 19 9 3 20 10 1 18 8 0 13 4 1 14 5 0 10 2 0 11 3 0 11 3 1 11 3 1 11 3 1 11 3 0 11 3 0 9 4 0 11 5 1 11 3 0 10 2 1 11 3 1 11 3 15 11 10 15 11 10 31 16 35 35 17 41 34 18 45 34 18 47 34 20 46 39 19 46 42 19 48 39 19 46 
24 18 18 25 19 19 25 19 19 23 14 15 23 14 15 26 8 8 26 6 7 27 6 5 28 7 6 24 10 10 22 13 14 23 15 13 29 19 18 30 18 18 34 19 16 32 18 15 43 22 17 43 22 17 33 13 12 30 10 9 27 7 6 25 7 7 25 7 5 28 8 7 28 8 7 26 10 10 26 12 11 25 19 19 24 18 18 25 19 19 27 18 21 24 18 18 24 18 18 25 19 19 25 19 19 23 17 17 23 13 14 23 13 12 26 12 12 26 10 11 23 11 11 23 11 11 23 17 17 24 18 18 24 18 18 24 18 18 23 15 13 23 9 8 25 9 9 31 7 7 25 5 7 8 3 26 8 3 26 1 1 27 3 0 29 0 0 24 2 3 24 1 0 18 0 1 19 0 2 17 0 2 14 0 4 13 0 7 9 0 9 8 0 9 4 0 10 4 0 11 5 1 12 4 1 19 7 0 20 8 0 20 8 1 19 7 1 17 7 1 14 5 1 14 5 0 13 3 0 13 4 1 12 4 2 12 4 0 11 3 0 11 3 0 10 2 1 11 2 0 11 3 1 12 4 0 10 1 0 11 3 1 11 3 0 10 2 0 11 3 8 10 7 6 11 7 11 15 16 14 18 19 18 17 23 23 17 27 29 16 34 38 18 45 40 17 45 44 19 48 
25 19 19 25 19 19 23 17 17 23 14 15 25 15 16 28 6 8 26 6 7 27 7 6 29 8 5 24 10 9 21 12 13 19 15 14 24 20 19 24 18 18 29 17 17 27 17 16 44 23 18 43 24 18 29 9 8 24 6 6 23 7 7 20 6 5 25 7 5 31 7 7 29 8 7 26 12 11 26 12 12 25 19 19 24 18 18 25 19 19 24 18 18 25 19 19 24 20 19 25 19 19 25 19 19 25 16 17 25 9 10 23 11 11 28 8 10 27 7 9 23 7 7 22 8 7 23 18 15 24 18 18 25 19 19 24 18 18 23 15 13 22 11 9 24 8 8 30 6 4 27 7 9 7 2 25 8 3 26 2 1 32 2 1 32 1 1 29 0 0 26 1 2 23 0 1 22 3 2 20 2 1 15 1 3 15 1 6 10 2 7 11 1 10 5 1 10 7 0 13 4 2 13 5 1 18 8 0 20 9 2 20 8 1 19 7 0 16 6 3 10 3 1 11 3 1 13 3 0 13 4 0 10 2 1 11 3 1 11 3 0 11 5 0 10 2 0 11 3 1 11 3 2 9 2 1 11 3 2 12 4 1 11 2 0 12 2 1 12 6 0 11 3 2 12 4 0 16 5 1 17 7 10 17 10 14 16 15 23 18 24 37 17 42 37 18 40 41 21 48 
24 18 18 24 18 18 23 17 17 22 13 14 22 13 14 26 6 7 26 6 7 28 7 6 27 7 6 24 10 7 22 10 10 23 13 12 21 15 15 23 14 15 27 15 17 26 16 15 32 18 15 32 18 17 26 10 10 24 8 8 22 8 7 22 7 4 25 7 3 29 8 5 29 8 7 25 11 11 26 12 12 24 18 18 24 18 18 24 18 18 24 18 18 24 18 18 24 18 18 27 16 20 25 16 17 24 12 14 25 9 10 25 9 9 27 9 9 27 9 9 24 10 10 24 8 11 25 16 17 25 16 19 25 19 19 24 20 21 24 14 15 20 8 8 23 9 8 31 7 5 26 6 8 8 2 28 7 2 25 2 1 32 2 1 32 1 0 31 0 0 30 0 0 26 0 0 20 4 2 24 1 0 16 0 2 15 0 4 16 0 4 15 1 6 12 2 5 12 1 12 8 1 12 4 1 19 7 3 21 9 1 19 7 0 16 6 2 15 6 1 12 4 1 12 4 0 11 3 1 12 4 0 9 1 1 11 3 0 11 3 0 11 3 0 11 3 0 11 3 0 11 3 0 11 3 0 10 2 0 10 2 2 12 4 2 12 4 1 11 3 1 11 3 2 12 4 0 16 5 2 18 7 4 19 12 7 18 12 11 17 15 16 19 26 22 19 28 28 18 29 
25 19 19 24 18 18 24 18 18 23 14 15 23 14 15 27 7 8 27 7 8 28 7 6 26 7 3 27 9 9 26 10 11 24 13 11 21 13 11 20 11 12 20 14 14 23 14 17 22 13 14 21 12 13 21 11 10 22 10 10 22 8 7 24 9 6 27 7 6 29 8 7 28 8 7 26 12 11 26 12 12 24 18 18 24 18 18 25 16 17 24 18 18 24 18 20 25 19 19 25 15 16 24 12 12 26 10 11 24 8 9 24 8 8 28 8 9 27 8 10 23 11 11 22 10 10 23 17 17 25 19 19 26 17 18 24 18 18 23 13 12 23 9 6 24 8 8 31 7 7 26 6 8 10 2 26 9 1 25 4 1 32 1 0 32 2 1 32 1 0 31 1 1 27 1 1 27 1 2 23 1 0 14 2 1 17 0 2 25 0 2 23 0 1 19 2 0 21 0 10 9 0 11 7 1 18 8 0 20 5 1 17 6 0 13 4 1 14 5 0 16 6 0 13 4 0 11 3 1 7 3 0 11 3 0 11 3 1 10 5 0 11 3 0 11 3 0 10 2 1 11 3 1 11 3 1 11 3 0 10 2 0 11 3 2 12 4 0 11 3 1 11 3 0 10 2 1 17 6 0 19 7 2 19 9 0 21 12 0 20 9 0 20 9 2 18 8 14 14 12 
25 19 19 25 19 19 24 18 18 22 13 14 23 14 15 27 7 8 26 6 7 28 7 6 27 7 6 27 9 7 23 12 10 23 12 10 23 12 10 22 10 10 23 13 14 23 13 14 19 13 13 21 12 13 20 12 10 23 9 8 24 9 6 23 8 5 26 6 5 30 6 6 28 8 7 27 11 11 27 11 12 25 19 19 24 18 18 24 18 20 25 19 19 25 19 19 25 19 19 25 15 16 24 12 12 25 11 10 24 8 9 24 8 9 27 9 9 26 7 9 22 10 12 23 9 9 23 17 17 24 18 18 24 18 20 25 19 19 23 13 14 20 8 8 22 8 7 26 6 8 23 6 12 8 2 30 7 1 29 2 1 33 1 0 32 1 0 31 0 0 30 1 1 29 1 1 29 0 0 24 1 0 18 0 1 19 1 2 23 0 3 22 0 1 21 1 2 22 0 7 13 0 10 11 1 13 9 1 16 9 1 13 9 1 12 6 1 12 6 1 14 5 2 13 5 0 10 2 1 10 5 1 11 3 1 11 3 0 12 5 1 10 5 2 12 4 1 11 3 2 12 4 0 11 3 0 11 5 0 10 2 0 11 3 0 10 2 0 11 3 0 11 3 1 11 3 1 14 5 0 17 7 1 18 8 1 21 12 0 21 9 0 20 8 2 19 9 10 16 12 
24 18 18 25 19 19 25 19 19 22 13 14 24 15 16 27 7 8 26 6 7 28 7 6 28 7 6 26 6 5 23 7 7 23 7 7 24 9 6 25 9 9 24 13 11 29 15 12 19 10 11 18 10 8 19 9 8 21 9 9 23 9 8 26 8 6 27 7 6 29 8 7 28 8 7 25 11 11 27 13 12 25 19 19 24 18 18 26 17 18 25 19 19 25 19 19 25 19 19 25 15 16 26 12 11 25 11 11 27 9 9 27 9 9 23 7 8 23 7 7 22 8 8 23 9 9 22 16 16 27 18 19 25 19 19 24 18 18 23 13 14 21 9 9 20 8 12 16 4 18 14 3 19 2 1 35 1 0 32 2 1 33 2 1 33 3 3 31 2 1 32 2 1 32 2 1 32 1 0 31 1 1 29 0 0 26 0 2 17 2 1 19 2 3 24 1 3 24 3 1 23 1 2 22 0 2 17 1 0 14 3 3 13 1 6 9 0 8 7 0 10 2 0 10 2 1 11 3 3 10 3 0 11 3 0 11 5 1 11 3 1 11 3 0 11 3 0 11 3 1 12 4 0 13 4 0 11 3 0 10 2 0 10 2 2 12 4 1 11 3 2 12 3 1 13 3 1 12 4 1 14 5 0 18 6 0 20 8 1 21 9 0 20 9 0 20 9 0 20 8 
24 18 18 25 19 19 25 19 19 23 14 15 23 14 15 27 7 8 26 6 7 27 6 5 28 7 6 25 7 7 22 8 7 23 9 6 23 8 5 25 10 7 23 12 10 27 13 12 20 10 8 19 9 8 21 11 10 20 10 9 23 9 8 24 9 6 25 7 5 28 7 4 29 8 7 26 12 12 26 12 11 25 19 19 25 19 19 25 19 19 24 18 18 24 18 18 25 19 19 24 14 13 24 10 10 24 10 10 28 10 10 25 7 7 23 7 8 23 7 8 23 9 8 23 9 9 23 17 19 25 19 19 23 17 19 20 18 19 22 11 15 19 9 10 17 7 15 15 4 20 14 2 22 4 1 32 2 1 33 2 1 33 2 1 33 0 0 34 2 1 33 1 2 32 0 1 32 0 1 32 2 1 32 1 1 27 0 1 19 2 1 19 1 2 23 1 2 23 1 2 22 0 3 22 1 3 18 2 1 17 1 3 15 1 6 12 1 7 7 0 10 2 0 8 3 0 11 3 0 10 2 0 10 2 0 9 4 0 12 2 0 11 3 1 11 3 1 11 3 0 11 3 1 14 5 2 13 5 0 11 3 0 11 3 1 12 4 1 12 4 0 11 3 0 11 3 2 13 5 1 14 5 3 19 9 1 18 8 0 20 9 0 20 8 0 20 8 0 20 9 
24 18 18 24 18 18 24 18 18 22 13 14 23 14 15 27 7 8 27 7 8 27 6 5 28 7 6 23 9 8 20 8 8 20 9 7 23 7 7 27 8 4 22 6 6 24 9 6 26 11 8 26 11 8 25 10 7 26 12 11 26 10 10 26 8 6 26 8 6 32 8 8 30 9 8 26 12 11 24 12 12 24 18 18 24 18 18 24 18 20 25 19 19 27 18 19 24 20 19 23 14 15 24 10 10 24 10 10 23 7 8 26 7 9 27 9 9 28 10 10 22 10 10 23 9 9 25 16 17 23 18 22 12 8 25 6 4 28 3 2 33 2 1 33 1 0 32 4 1 32 1 0 31 1 1 29 3 0 27 2 0 37 2 0 37 0 1 39 2 2 40 2 2 40 0 2 40 1 1 39 1 1 35 2 1 33 1 0 32 1 1 29 0 3 22 1 2 23 1 2 22 1 2 22 1 2 23 1 3 24 0 2 17 0 2 15 0 2 14 2 5 10 1 6 9 0 11 5 0 10 2 1 11 3 0 11 3 1 17 6 1 17 6 1 14 5 2 13 5 2 15 6 2 18 7 0 18 6 1 18 8 2 18 8 2 15 6 2 15 6 0 11 3 0 11 3 0 15 5 1 14 5 0 16 5 0 16 6 0 17 7 2 18 7 0 17 7 1 16 9 
24 18 18 24 18 18 24 18 18 23 14 15 23 14 15 27 7 8 26 6 7 27 6 5 30 6 6 23 7 7 21 10 8 23 9 8 23 8 5 26 8 6 25 7 7 23 8 5 28 10 6 25 10 7 26 11 8 25 11 8 23 9 6 26 8 6 26 8 6 27 7 6 28 7 6 25 11 10 25 11 11 25 19 19 24 18 18 24 18 18 25 19 19 24 18 20 23 17 17 23 15 13 24 10 10 23 9 8 23 7 7 25 6 8 29 9 11 27 8 10 24 10 9 24 10 9 22 16 16 23 17 21 12 8 25 7 4 31 2 1 32 2 1 33 1 0 32 3 2 34 3 2 33 4 1 28 4 1 28 2 1 35 2 2 36 2 2 40 1 1 39 0 2 40 2 1 41 1 1 37 1 1 35 2 1 33 1 0 31 0 1 29 2 0 21 1 2 23 0 3 22 1 4 21 1 4 23 0 2 23 0 3 20 0 2 15 0 3 12 1 4 9 2 6 9 0 11 3 1 11 3 1 11 3 1 11 3 0 16 6 1 17 6 2 13 5 1 12 4 0 16 6 0 17 7 0 17 7 1 18 8 0 17 7 0 15 5 2 15 6 0 13 4 0 13 4 2 13 5 1 14 5 2 15 6 0 16 6 1 17 7 0 17 7 0 17 7 2 19 11 
24 18 18 24 18 18 24 18 18 23 14 15 23 14 15 27 7 8 26 6 7 28 7 6 27 7 6 23 9 9 20 11 12 21 12 13 22 12 13 22 12 11 23 9 8 24 10 9 25 10 7 25 9 9 24 9 6 24 9 6 26 8 6 26 8 6 25 7 5 32 8 8 27 7 6 25 11 11 26 12 12 24 18 18 24 18 18 24 18 18 24 18 18 25 19 19 25 19 19 24 14 15 25 11 11 24 10 10 26 8 8 26 7 9 21 6 13 19 6 15 3 2 33 5 2 31 3 4 34 3 2 33 5 2 33 2 1 33 4 0 33 3 2 36 4 0 35 2 1 35 2 1 35 2 1 33 1 0 32 0 0 28 0 0 28 2 1 33 1 0 34 1 1 39 2 2 40 1 1 39 1 1 35 1 1 35 1 0 31 1 0 31 1 1 29 0 0 28 1 2 22 1 2 20 1 4 23 2 5 24 2 3 21 1 3 18 0 4 16 0 5 11 1 4 9 0 11 3 0 11 5 0 13 4 2 13 5 1 14 5 2 15 5 2 15 5 1 17 7 0 17 7 1 18 8 1 18 8 0 18 6 1 17 6 1 17 6 1 17 7 2 15 6 1 17 7 1 14 4 2 14 2 1 14 5 2 15 6 0 13 4 1 12 6 0 13 6 1 16 11 
26 17 20 24 18 20 24 18 18 21 15 15 21 15 15 26 7 9 26 6 5 27 7 8 28 7 6 24 10 10 20 11 12 21 12 13 22 13 14 22 12 13 25 10 7 23 9 6 24 9 6 25 7 7 25 7 7 22 8 5 26 8 6 27 7 6 26 8 6 29 8 7 29 8 7 26 10 10 26 12 12 25 19 19 27 17 18 25 19 19 25 19 19 24 18 18 24 18 18 25 15 16 25 11 11 25 11 10 27 7 8 24 8 9 18 6 16 21 5 15 4 0 33 1 1 35 0 1 32 1 1 35 1 0 32 4 0 33 1 0 34 2 1 33 3 2 34 2 1 35 2 1 35 2 1 32 2 1 35 4 1 30 4 1 30 2 1 32 2 1 33 1 1 37 0 3 38 1 1 37 1 1 35 2 1 35 0 1 29 1 0 31 0 2 27 2 1 32 0 1 21 0 1 21 2 3 21 2 3 21 0 3 20 1 2 20 0 2 15 2 2 10 2 6 9 0 11 3 0 12 2 0 15 5 1 14 5 1 14 5 0 15 5 0 15 4 0 18 6 1 19 7 0 20 8 1 19 7 0 16 5 2 15 6 1 17 6 0 16 5 3 16 6 0 16 5 0 13 3 1 14 4 1 14 4 1 14 5 1 12 6 2 13 7 1 12 6 2 14 10 
25 19 19 25 19 19 24 18 18 22 14 12 21 15 17 26 8 8 26 6 7 28 6 8 28 7 6 24 10 9 21 12 13 21 13 11 23 14 15 22 13 14 22 12 13 22 12 13 22 12 11 22 12 10 24 10 9 24 8 8 23 7 7 23 8 5 26 8 6 29 8 7 27 7 6 27 11 11 25 11 11 24 18 18 24 18 18 22 16 16 22 16 16 23 17 17 24 18 20 23 14 17 21 9 13 18 7 21 12 3 30 8 2 28 6 1 31 7 3 30 2 1 33 4 0 33 5 0 30 4 1 30 4 1 32 1 0 34 2 1 33 1 0 34 2 1 33 2 1 35 2 1 35 1 0 34 1 0 32 2 0 28 3 0 27 1 0 31 2 2 28 2 0 37 0 3 38 0 3 38 1 1 35 2 1 33 2 1 32 0 1 31 1 0 31 1 0 31 2 0 21 0 1 21 0 2 17 1 3 18 1 3 16 0 2 14 3 1 12 2 5 10 1 6 9 1 14 5 1 14 7 1 18 8 1 18 8 1 18 8 1 18 8 1 19 7 0 17 7 0 17 9 2 19 11 2 17 12 0 16 13 1 18 12 0 16 16 1 17 17 1 15 16 0 14 15 2 13 15 1 12 14 0 13 16 0 14 17 1 15 16 1 15 16 1 17 17 1 17 17 
25 19 19 25 19 19 25 19 21 23 14 15 23 14 15 25 7 7 26 6 7 26 6 7 30 6 6 24 10 9 21 13 11 21 12 13 23 14 15 23 14 15 21 12 13 22 14 12 22 12 13 21 13 11 21 10 8 24 8 8 26 8 8 23 8 5 26 8 6 28 7 6 27 7 6 28 10 10 26 12 11 24 18 20 23 17 17 22 16 16 21 16 13 25 16 17 25 20 17 24 15 20 20 9 15 14 7 23 7 2 34 4 0 33 3 2 34 4 0 35 1 1 35 4 0 33 4 1 28 4 2 24 4 1 32 1 0 34 2 1 33 1 0 32 2 1 35 3 2 34 2 1 33 1 0 32 2 1 33 3 0 27 4 0 29 1 1 29 3 0 27 1 1 35 0 3 40 2 2 38 0 1 32 2 1 33 1 1 29 1 1 29 1 0 31 1 0 31 0 1 22 0 1 21 2 1 17 2 1 15 0 2 14 2 2 12 0 3 12 1 4 9 0 8 10 1 14 5 2 15 6 0 20 9 2 20 8 0 20 11 0 19 8 0 19 8 2 19 9 1 16 9 1 16 9 0 15 10 1 17 14 2 18 17 1 16 19 0 15 20 0 13 19 0 13 21 2 12 21 1 11 20 2 13 19 0 13 19 1 14 22 0 15 18 2 17 20 0 17 21 
23 19 18 24 18 18 24 18 18 18 11 19 18 11 19 25 7 7 27 6 3 27 5 7 27 7 6 19 5 18 9 5 30 12 7 27 18 11 19 21 11 20 21 13 11 23 15 12 22 14 12 23 14 15 24 10 10 21 10 6 23 9 8 26 8 8 28 8 7 29 8 5 27 7 6 25 10 13 26 12 11 24 18 20 24 18 20 24 18 20 24 18 18 23 17 21 22 16 20 15 11 25 10 5 27 8 2 30 5 1 34 5 2 33 4 0 33 1 0 36 6 2 37 4 0 35 2 1 33 2 1 32 3 2 36 1 1 39 0 2 37 2 2 38 2 0 39 0 2 40 1 1 39 4 0 35 2 1 35 1 0 32 4 1 32 4 1 30 3 1 25 2 1 32 1 1 35 1 1 37 1 1 37 1 1 35 1 0 31 1 0 31 1 0 31 1 0 31 1 1 25 1 1 25 0 2 15 2 1 15 0 2 14 0 2 14 0 3 10 3 8 11 0 8 11 2 14 14 2 14 14 2 18 15 0 18 14 1 17 16 0 16 16 1 15 16 2 13 15 1 12 14 2 12 14 2 11 16 2 13 19 2 13 19 1 14 20 2 13 19 1 11 20 0 11 17 2 13 19 2 13 19 0 13 19 0 15 18 0 15 18 1 19 19 0 18 18 0 19 17 
24 18 18 26 18 16 24 19 16 17 9 22 18 10 23 25 7 7 27 6 5 27 6 5 28 7 6 17 4 24 2 1 41 7 3 38 16 9 25 15 9 21 21 13 11 21 13 11 21 12 13 23 13 12 22 12 11 22 10 10 25 9 9 26 8 6 27 7 6 27 6 5 28 8 7 25 11 10 26 12 11 26 20 20 24 18 20 25 20 17 24 18 18 22 16 18 21 14 21 11 8 27 5 1 34 5 1 34 5 1 34 5 1 36 5 1 36 4 0 35 5 1 36 2 1 33 4 3 37 2 1 35 3 1 40 1 1 39 2 2 40 0 0 38 3 1 40 0 0 38 1 1 39 2 1 35 2 1 35 3 2 34 2 1 33 4 1 28 3 1 22 4 1 28 2 2 30 4 1 32 2 2 38 1 1 35 1 2 33 1 0 32 1 1 29 1 1 29 0 2 27 1 1 25 0 2 15 2 2 14 0 2 14 1 3 15 1 4 13 2 5 10 0 10 11 0 13 19 1 15 18 2 18 18 0 15 18 1 16 21 1 17 17 0 13 21 1 11 20 0 9 18 1 7 19 1 8 18 2 11 20 1 10 19 1 12 18 1 12 18 2 13 19 1 12 18 1 14 20 1 14 20 1 15 18 0 15 18 1 16 19 0 18 18 2 18 17 2 18 15 
21 16 22 17 11 23 18 12 26 14 6 27 14 6 27 18 6 18 18 4 17 19 6 13 18 8 9 14 8 18 8 9 29 8 10 25 16 11 18 13 10 17 15 10 16 15 10 14 21 12 15 20 15 12 22 10 10 22 10 10 25 9 9 23 9 8 26 8 6 28 7 4 28 8 7 26 12 12 24 13 11 23 19 20 24 18 18 21 15 25 15 13 24 15 11 26 14 10 27 10 6 29 4 0 35 4 0 35 4 0 35 4 0 35 5 1 34 5 1 36 5 2 33 4 0 35 2 1 33 2 1 35 3 2 36 1 1 39 1 1 39 0 1 40 2 1 41 0 0 38 2 1 41 2 2 38 1 1 35 2 1 35 3 2 36 2 2 30 3 1 25 2 2 30 5 1 34 2 1 32 2 1 32 2 1 32 2 1 32 2 1 32 1 0 31 1 0 31 1 1 29 1 1 27 1 0 16 1 0 14 0 2 14 3 3 15 0 3 12 2 7 11 0 7 13 1 10 19 1 11 20 0 13 19 0 12 20 1 11 20 0 10 19 1 11 20 2 11 20 1 9 20 0 9 18 0 9 18 1 10 19 2 11 18 1 11 20 1 12 18 0 13 19 1 12 16 1 12 18 2 13 19 1 14 22 0 13 19 3 14 20 2 18 18 0 17 17 0 18 14 
16 12 26 6 0 32 7 0 36 6 0 34 7 2 34 5 1 34 4 0 35 7 6 22 7 7 15 11 13 8 14 21 5 13 20 4 13 15 10 12 14 11 6 5 19 7 7 19 17 11 15 18 11 18 21 11 10 22 11 9 23 9 8 26 8 6 26 8 6 28 7 6 28 8 7 25 11 10 26 11 14 24 18 20 24 18 20 9 5 32 4 4 32 3 2 34 1 0 34 2 1 35 2 1 35 5 1 36 5 1 34 5 1 34 5 1 36 4 0 33 4 0 33 4 0 35 2 1 32 3 2 34 2 1 33 2 1 35 1 1 37 0 3 38 1 0 40 2 1 41 1 0 40 1 0 40 2 2 40 1 1 37 1 0 36 2 1 35 2 1 33 2 1 33 2 1 33 4 1 28 3 1 22 3 1 23 2 2 30 4 0 27 0 1 31 1 1 29 1 1 29 1 1 29 1 0 18 2 0 16 2 1 17 2 1 15 2 2 14 0 4 15 0 2 14 2 5 20 1 4 19 0 3 18 1 4 21 1 4 19 1 4 19 2 6 18 3 7 19 1 10 19 1 10 17 0 10 19 1 10 19 1 10 19 1 10 17 1 10 17 1 12 18 2 11 18 1 11 20 1 11 20 1 12 18 1 12 18 2 13 19 1 15 18 1 17 17 1 17 14 
13 8 28 6 1 33 6 0 34 6 1 31 7 3 30 6 4 28 7 5 27 8 8 16 7 11 12 13 16 9 17 21 6 15 19 5 11 16 9 14 16 11 8 8 16 10 11 16 16 11 17 15 10 16 18 9 12 19 8 12 23 7 8 24 9 6 26 8 8 28 7 4 28 8 7 23 11 11 23 11 13 16 15 21 19 13 23 6 3 32 4 3 34 5 1 34 2 1 35 2 1 35 3 2 34 4 0 33 5 1 34 5 1 36 4 0 35 4 0 35 4 0 37 4 0 35 5 1 36 3 2 36 4 0 35 4 0 35 1 1 35 2 1 41 1 0 42 2 2 40 2 1 41 0 1 39 2 1 41 1 1 39 1 1 39 2 0 37 2 1 35 2 1 33 4 0 33 4 1 28 3 1 25 3 1 25 1 1 29 3 0 27 1 0 31 2 1 32 1 1 29 3 0 31 2 0 21 1 0 18 0 1 16 2 1 17 1 3 16 0 4 15 2 4 16 1 4 19 1 4 19 4 3 19 2 4 19 2 6 18 2 5 20 0 6 18 1 7 19 1 9 20 0 9 18 1 9 20 1 9 22 0 10 22 0 10 20 1 10 19 0 10 19 1 11 20 0 10 20 1 10 19 2 11 20 2 12 21 3 12 21 3 14 20 1 14 20 1 17 16 
