P3
100 50
255
17 12 9 16 10 10 16 10 10 15 10 7 15 9 9 15 9 9 14 8 8 14 8 8 15 9 9 15 9 9 15 9 9 15 9 9 14 8 10 12 8 5 10 9 7 8 10 5 8 11 2 11 12 4 9 15 3 10 16 4 12 16 2 11 15 1 11 15 1 11 14 3 13 17 3 12 16 2 9 16 0 9 15 1 9 16 0 9 16 0 10 16 2 9 16 0 8 17 0 10 16 2 9 15 1 9 15 1 9 16 0 12 16 1 11 15 0 11 15 0 11 18 2 10 17 1 8 17 0 9 16 0 8 16 1 9 15 1 13 17 2 10 17 1 12 16 2 14 18 4 12 18 6 12 18 6 13 17 3 10 16 2 9 15 3 8 14 0 8 14 2 18 18 8 19 19 7 43 24 17 44 25 18 33 15 11 28 13 8 38 19 12 43 25 15 41 32 25 43 40 35 44 41 34 44 41 34 43 38 32 45 30 25 45 30 25 44 25 19 44 25 18 34 20 11 31 17 6 28 15 6 25 10 3 32 19 13 44 33 29 41 26 23 25 10 5 25 10 5 41 22 16 41 22 16 35 14 31 33 11 32 31 5 42 28 2 47 28 1 46 27 1 46 27 1 48 23 0 44 24 1 47 27 1 48 26 0 47 19 2 38 22 2 39 12 4 19 7 4 13 
16 10 10 16 10 10 17 11 11 15 9 9 15 9 9 15 9 9 15 9 9 15 9 9 15 9 9 15 9 9 14 8 8 15 9 9 15 9 9 12 8 7 9 8 6 9 10 4 8 11 4 9 12 3 10 16 2 10 16 2 10 17 1 12 16 2 11 15 1 12 16 2 12 16 1 12 16 2 10 17 1 10 17 1 10 17 1 12 16 2 10 17 1 9 16 0 8 17 0 9 15 1 9 16 0 10 16 2 9 16 0 10 17 1 12 16 1 12 16 1 10 17 1 9 18 1 9 16 0 9 16 0 9 15 1 9 15 1 13 17 3 10 16 2 12 16 2 13 17 3 13 17 3 14 18 4 13 16 5 9 15 1 10 16 2 7 15 0 9 15 3 20 20 10 20 18 6 44 25 19 43 24 17 31 16 9 27 14 6 38 19 12 43 25 15 42 31 25 43 40 33 43 40 35 44 39 33 45 38 32 45 32 24 45 30 23 45 26 20 44 25 18 33 19 10 31 19 7 27 14 5 25 10 3 32 19 11 45 31 28 41 26 23 24 11 5 25 10 5 42 21 16 41 22 16 35 14 31 34 13 32 31 5 42 28 1 44 28 1 46 27 1 48 27 1 46 27 1 48 23 0 46 27 0 45 26 0 47 21 1 38 21 1 38 10 3 19 9 3 15 
15 9 9 15 9 9 15 9 9 15 9 9 15 9 9 16 10 10 16 10 10 16 10 10 16 10 10 16 10 10 16 10 10 17 11 11 17 12 9 14 10 7 16 10 10 15 11 10 15 11 10 16 10 10 16 10 10 16 10 10 14 10 9 19 10 11 16 10 10 16 12 11 14 10 7 11 12 6 12 15 4 13 17 3 15 19 4 14 18 3 14 18 3 14 18 3 13 17 3 13 17 2 10 17 1 10 17 1 12 16 1 11 15 0 12 16 1 13 15 1 12 16 1 12 16 1 12 16 1 12 16 1 9 15 1 9 16 0 10 17 1 11 18 2 13 17 2 12 16 1 14 18 3 17 21 6 22 26 11 28 30 16 26 28 14 19 23 9 20 22 9 22 20 8 22 20 8 26 13 5 24 13 7 26 13 7 26 13 7 32 15 8 35 18 11 37 20 13 39 22 15 40 23 15 46 27 20 46 29 21 47 34 25 44 34 25 40 30 18 42 28 19 28 15 9 22 12 3 30 16 3 36 23 7 38 24 13 45 30 25 41 26 21 28 13 6 28 10 6 43 25 21 41 26 19 30 13 32 26 11 32 27 5 41 29 2 43 30 1 45 33 2 46 30 1 45 28 1 42 25 3 39 6 9 18 8 8 18 1 8 16 0 6 18 0 7 17 1 5 14 
15 10 7 16 10 10 16 10 10 14 9 6 15 9 9 15 9 9 16 10 10 16 10 10 16 10 10 15 9 9 16 10 10 16 10 10 15 9 11 14 10 7 17 11 11 15 11 10 15 11 12 17 11 11 16 10 10 16 11 8 14 10 9 16 10 10 17 12 9 15 11 10 14 10 7 12 11 6 12 15 4 13 17 3 14 18 3 14 18 3 14 18 3 13 17 3 14 16 2 12 16 1 12 16 1 11 15 0 13 17 2 12 16 1 10 17 1 10 17 1 11 18 2 13 17 2 12 16 1 12 16 1 9 16 0 10 17 1 10 17 1 10 17 1 13 17 2 13 17 2 15 19 4 18 22 7 23 25 11 29 30 16 25 27 14 20 24 10 19 23 9 21 19 7 21 19 7 25 12 6 26 13 7 27 12 7 27 14 8 31 16 9 34 17 10 36 18 14 40 21 15 41 24 16 44 27 19 45 28 20 48 36 24 48 34 23 40 30 20 40 27 18 27 14 5 21 11 1 29 17 3 34 21 5 38 26 14 45 30 25 41 26 23 27 12 7 27 12 7 43 25 21 43 26 19 28 13 32 27 12 35 28 7 40 28 3 45 31 2 46 33 2 46 30 1 45 30 2 43 27 3 39 10 8 21 8 8 18 0 7 17 1 8 18 3 6 15 1 5 16 
15 10 7 14 8 8 14 8 8 14 9 6 13 7 7 14 8 8 14 8 8 15 9 9 15 9 9 17 11 11 15 9 9 15 9 9 14 10 7 16 10 10 17 12 9 15 11 8 14 10 9 14 10 9 13 12 10 15 9 9 16 10 10 15 9 9 16 12 11 15 11 8 15 11 8 14 10 7 15 11 8 16 12 9 16 12 9 15 11 8 13 12 8 11 13 2 12 13 5 13 17 0 13 17 2 11 18 2 11 15 0 12 16 1 10 17 1 11 18 2 10 17 1 12 16 1 12 16 1 12 16 1 10 17 1 11 15 0 10 17 1 10 17 1 13 17 2 14 18 3 15 19 4 14 18 3 19 23 9 27 29 16 30 32 21 35 37 26 34 34 24 22 24 11 23 25 12 25 15 6 25 15 6 26 16 7 28 18 8 31 21 11 35 22 13 38 25 16 41 27 16 44 27 17 43 29 18 43 29 18 38 24 11 40 23 13 28 17 11 28 17 13 17 9 7 15 10 7 18 12 12 22 16 18 26 20 22 38 26 26 35 24 22 27 14 6 25 14 8 39 24 17 41 24 16 34 10 34 34 8 35 32 5 40 31 3 41 20 4 31 11 7 24 9 7 21 4 7 22 4 8 20 1 10 19 2 9 19 1 10 19 0 9 18 1 8 16 0 7 17 
14 8 8 14 8 8 14 8 8 14 8 8 15 9 9 14 8 8 14 8 8 14 8 8 15 9 9 15 9 9 16 10 10 15 9 9 13 9 8 14 10 9 15 10 7 14 10 7 14 10 9 15 9 9 14 10 9 15 9 9 18 9 10 15 11 10 16 12 9 16 12 11 15 11 8 14 10 7 15 11 8 16 12 11 15 9 9 14 8 10 14 10 7 10 11 5 11 13 2 13 17 2 13 17 0 11 18 0 12 16 1 12 16 1 11 15 0 11 15 0 13 17 2 12 16 1 12 16 1 12 16 1 13 17 2 13 17 2 9 16 0 9 16 0 13 17 2 13 17 2 13 17 3 13 17 3 21 23 10 27 29 16 31 33 22 38 40 29 36 36 26 22 26 12 22 26 12 26 16 6 24 17 9 27 17 8 28 18 8 32 22 12 34 24 14 39 26 17 42 30 18 42 30 18 43 29 18 43 29 20 38 21 11 40 22 12 27 16 10 25 16 11 15 10 7 12 6 6 14 12 15 19 14 20 26 20 22 36 26 27 34 23 21 29 14 9 27 14 8 41 23 19 39 24 17 36 11 33 38 9 37 35 5 39 31 3 41 20 6 31 8 8 18 6 9 18 1 9 20 0 9 18 2 9 19 0 8 19 0 9 18 1 10 19 0 7 17 1 8 18 
14 8 8 15 9 9 15 9 9 14 8 8 14 8 8 14 8 8 14 8 8 14 8 8 15 9 9 14 8 8 15 9 9 14 8 8 15 9 9 13 9 10 14 9 6 14 8 8 14 10 9 14 10 9 13 9 8 13 9 8 14 8 8 14 10 9 14 10 9 15 11 10 14 10 9 14 10 9 15 11 10 16 12 11 14 10 9 17 11 11 16 10 10 15 11 8 15 11 8 12 14 3 13 13 5 12 16 2 11 18 2 13 17 2 10 17 1 13 17 2 13 17 2 13 17 2 10 17 1 12 16 1 11 15 0 12 16 1 10 16 2 11 15 1 13 17 3 14 18 4 14 17 6 16 18 7 18 20 9 19 21 7 25 27 16 38 40 29 36 38 27 26 28 15 25 27 14 24 13 7 23 16 6 25 14 8 25 14 8 31 18 12 33 20 12 36 21 14 40 23 15 38 24 15 36 22 11 36 22 11 38 25 16 38 25 17 22 13 14 19 15 14 14 8 8 14 8 8 17 12 16 18 16 19 22 17 23 25 20 24 26 20 24 31 18 10 32 19 11 41 30 24 43 30 24 26 14 24 24 12 22 15 9 23 9 8 24 6 7 25 3 10 20 2 9 19 2 11 20 2 11 20 1 10 19 2 9 19 0 7 15 0 7 17 1 8 16 1 8 18 
14 9 6 15 9 9 14 8 8 15 10 7 15 9 9 14 8 8 14 8 8 15 9 9 13 7 7 13 7 7 13 7 7 14 8 8 14 8 8 14 10 11 14 9 6 14 10 9 15 9 9 14 8 8 14 10 9 13 8 5 14 10 7 14 10 9 13 9 8 14 10 9 15 11 10 15 11 10 16 10 10 16 10 10 16 10 10 15 11 10 16 10 10 15 11 10 15 11 8 10 11 3 11 10 5 15 17 3 13 17 2 12 16 1 12 16 1 12 16 1 13 17 2 12 16 1 12 16 1 11 18 2 10 17 1 10 17 1 10 17 1 12 16 1 13 17 2 13 17 3 14 18 4 16 18 7 17 19 8 16 20 6 25 27 14 39 41 30 36 38 27 26 28 15 27 29 16 23 14 5 22 15 5 24 13 7 28 13 8 31 16 9 32 17 10 36 19 12 39 20 13 36 22 13 33 19 6 33 21 7 37 24 18 37 26 20 22 14 12 18 12 12 15 9 9 13 7 7 15 13 16 18 17 22 22 17 23 20 17 26 24 19 23 31 21 11 31 21 12 43 32 26 43 34 29 23 14 19 19 12 19 8 11 18 1 10 19 1 10 19 0 9 18 1 8 18 1 10 19 1 9 20 0 9 18 0 8 19 2 7 13 1 5 14 0 7 15 0 9 18 
14 8 8 13 9 8 12 8 7 14 8 8 14 8 8 13 7 7 13 7 7 14 8 8 13 7 7 13 7 7 14 8 8 15 9 9 13 7 7 14 8 8 15 9 9 15 9 9 15 9 9 14 8 8 14 8 8 13 7 7 13 9 8 13 9 8 14 10 9 14 10 9 15 11 10 13 9 8 14 10 9 14 10 9 15 11 10 15 11 10 14 10 9 15 11 10 15 11 8 15 11 10 14 11 6 12 14 3 11 15 1 12 16 1 13 17 2 13 17 2 12 16 1 13 17 3 12 16 1 11 15 1 13 15 1 12 16 1 10 17 1 10 17 1 12 18 4 13 17 3 13 17 3 15 19 5 15 19 5 14 18 4 23 23 11 32 34 21 31 33 20 22 24 11 20 24 10 23 14 7 22 11 5 24 11 5 26 13 7 32 15 8 32 17 12 32 17 14 31 18 12 29 16 10 26 16 14 25 18 12 30 22 20 29 20 21 19 13 15 15 11 12 15 9 11 13 7 9 18 13 19 19 17 22 21 19 24 20 19 27 22 20 23 28 18 16 27 19 16 42 29 23 43 28 21 27 17 18 25 15 16 12 12 20 2 10 21 1 11 20 0 13 21 2 11 20 1 11 21 0 10 19 1 9 20 1 9 20 0 6 16 2 6 15 0 7 17 0 8 15 
12 8 7 13 7 7 13 8 5 12 8 7 13 7 7 12 6 6 14 8 8 13 7 7 13 7 7 14 8 8 13 7 7 13 7 7 14 8 8 13 7 7 13 7 7 14 8 8 14 8 8 14 8 8 15 9 9 15 9 9 13 9 8 13 9 8 14 10 9 13 9 8 13 9 8 14 10 9 13 9 8 13 9 8 14 10 7 14 10 7 15 11 10 16 12 11 14 10 9 15 11 10 16 12 11 12 11 6 8 9 3 12 16 2 13 17 2 13 17 2 13 17 2 14 16 2 14 18 1 13 17 2 11 15 0 12 16 1 9 15 1 9 15 1 10 16 2 11 17 3 13 17 3 15 19 5 12 16 2 13 17 3 16 20 6 24 26 13 23 25 12 18 20 7 17 21 7 22 11 7 20 9 3 24 11 5 27 9 5 30 15 8 32 17 10 29 14 9 24 13 11 22 14 12 15 10 14 17 12 18 20 17 24 20 17 24 17 12 16 15 11 12 15 11 12 14 9 13 15 13 16 20 17 24 23 18 24 22 19 28 21 18 25 22 18 19 23 17 21 41 20 15 39 22 15 30 19 17 28 16 16 12 12 20 2 12 21 0 13 22 2 12 24 1 11 21 1 10 19 0 8 19 1 11 20 2 11 20 1 8 18 0 7 15 2 6 15 0 7 15 
12 8 7 13 7 7 14 8 8 13 9 8 13 7 7 13 7 7 13 7 7 13 7 7 15 9 9 14 8 8 13 7 7 13 7 7 14 8 8 12 6 6 13 7 7 13 7 7 14 8 8 14 8 8 15 9 9 16 10 10 15 9 9 14 8 8 15 9 9 15 9 9 15 9 9 15 9 9 15 9 9 15 9 9 15 9 9 14 8 8 15 11 10 14 10 9 14 10 9 15 11 10 16 12 11 12 11 6 14 11 6 12 13 5 13 15 1 11 15 0 10 17 1 10 17 1 12 16 1 13 17 2 12 16 1 12 16 1 9 16 0 9 15 1 11 17 3 11 18 2 13 17 2 14 18 4 14 16 3 12 16 1 16 20 5 24 26 12 23 25 11 17 19 5 17 19 5 23 12 6 23 12 6 24 11 5 26 11 4 30 15 10 33 15 11 27 13 10 22 12 11 20 11 12 17 12 16 17 12 18 21 18 25 20 17 24 18 14 15 18 12 14 15 11 12 17 11 13 19 14 20 19 18 24 25 20 27 27 22 26 28 22 26 31 21 20 31 21 20 40 21 14 40 21 14 29 17 17 27 15 15 19 15 16 13 13 21 11 11 21 8 12 21 4 11 21 2 11 20 0 9 18 0 8 19 1 10 17 0 8 15 0 7 17 1 5 14 1 5 16 
14 8 8 12 8 7 12 8 7 14 8 8 13 7 7 14 8 8 13 7 7 13 7 7 13 7 7 14 8 8 13 7 7 13 7 7 14 8 8 13 7 7 13 7 7 14 8 8 14 8 8 14 8 8 15 9 9 15 9 9 15 9 9 15 9 9 15 9 9 16 10 10 16 10 10 15 9 9 16 10 10 16 10 10 14 10 9 13 9 8 12 11 9 13 9 8 14 10 9 15 9 11 16 10 10 15 11 10 16 11 8 14 11 6 12 12 4 9 15 1 12 19 3 13 17 2 12 16 1 12 16 1 13 15 1 13 17 2 11 18 2 10 17 1 9 15 1 10 16 2 11 15 0 12 16 1 13 17 2 14 18 3 17 21 6 24 25 11 22 24 10 14 16 2 15 17 3 28 15 9 28 14 11 26 11 6 25 12 4 30 15 8 34 17 10 22 14 11 15 9 11 15 9 13 18 13 17 20 15 19 22 19 28 21 18 27 21 16 13 22 14 11 19 13 13 18 12 12 21 16 20 24 21 28 27 22 26 36 28 26 37 27 25 46 29 21 43 30 21 37 20 13 36 19 11 25 17 14 23 15 12 29 15 14 28 17 15 24 14 15 19 10 15 12 9 16 2 8 20 0 8 19 0 9 18 2 11 20 1 8 16 2 9 17 0 7 15 2 6 17 
13 7 7 12 8 7 12 8 7 13 7 7 13 7 7 14 8 8 14 8 8 13 7 7 13 7 7 13 7 7 14 8 8 13 7 7 14 8 8 12 6 6 13 7 7 14 8 8 14 8 8 14 8 8 15 9 9 15 9 9 15 9 9 15 9 9 15 9 9 14 8 8 15 9 9 16 10 10 15 9 9 15 9 9 15 9 9 15 9 9 13 9 8 13 9 6 14 10 9 15 9 9 14 10 9 15 11 8 15 11 10 13 12 8 11 10 5 11 13 2 12 16 0 12 16 2 10 17 1 12 16 1 10 17 1 12 16 1 12 16 1 12 16 1 9 16 0 10 17 1 9 16 0 10 17 1 13 17 2 12 16 1 17 19 5 23 25 11 22 24 10 13 17 2 13 17 2 28 15 7 24 15 8 26 13 7 26 11 6 29 14 9 30 15 12 23 13 12 15 9 9 15 10 14 18 16 21 19 14 20 21 20 28 22 19 26 22 17 14 25 15 13 19 14 11 18 13 10 22 18 19 27 23 24 28 24 25 36 26 25 36 26 24 43 28 21 43 28 21 36 19 11 35 18 10 25 15 13 24 14 13 28 17 15 29 18 14 25 15 16 19 9 17 15 9 19 1 7 19 1 9 20 2 9 19 2 11 20 2 9 15 2 9 17 0 7 15 2 6 17 
12 8 7 13 7 7 13 7 7 12 8 7 14 8 8 14 8 8 14 8 8 14 8 8 13 7 7 13 7 7 14 8 8 14 8 8 13 7 7 13 7 7 13 7 7 13 7 7 12 6 6 15 9 9 15 9 9 15 9 9 15 9 9 15 9 9 16 10 10 14 8 8 15 9 9 14 8 8 15 9 9 16 10 10 15 11 10 14 10 9 13 9 8 13 9 8 13 9 8 15 9 9 16 10 10 15 9 9 13 12 7 16 10 10 17 11 11 14 10 7 10 9 7 11 12 6 11 15 0 12 16 1 12 16 1 12 16 1 13 17 2 12 16 2 11 15 1 10 17 1 10 17 1 11 18 2 13 17 2 12 19 3 18 20 6 21 25 10 22 24 10 13 17 2 12 16 1 23 12 6 22 12 2 25 10 5 26 11 4 22 12 11 17 12 18 17 12 16 17 11 13 16 11 15 17 15 18 19 16 23 22 19 28 21 20 26 23 18 24 23 18 22 25 13 13 26 11 6 34 19 12 43 30 21 46 29 22 46 27 23 44 27 20 40 22 18 38 23 18 24 11 2 23 10 1 26 12 3 27 15 3 34 20 9 38 24 13 27 16 20 17 10 26 16 9 27 18 6 28 18 6 28 19 7 17 16 9 16 7 11 14 7 10 15 4 8 17 0 6 14 
12 8 7 13 7 7 13 7 7 12 8 7 13 7 7 13 7 7 13 7 7 13 7 7 13 7 7 13 7 7 13 7 7 14 8 8 13 7 7 14 8 8 13 7 7 14 8 8 14 8 8 14 8 8 15 9 9 15 9 9 14 10 9 14 10 9 13 9 8 13 9 8 14 10 9 14 10 9 14 10 9 14 10 9 14 10 7 15 9 9 15 10 7 13 9 8 13 9 8 14 10 9 14 10 9 15 11 10 14 10 7 15 11 10 17 12 9 14 11 6 12 8 5 12 11 6 13 17 2 12 16 2 12 16 1 12 16 1 12 16 1 13 17 2 11 15 0 12 16 1 12 16 1 13 17 2 14 16 2 13 17 2 16 20 5 23 25 11 23 25 11 13 17 2 13 17 2 22 12 3 23 13 4 23 10 4 27 13 4 22 12 10 17 12 16 17 13 14 16 11 15 17 12 16 19 14 20 19 16 23 21 20 28 22 19 26 23 18 24 24 17 24 25 11 8 26 11 6 35 20 13 44 30 21 45 30 23 44 26 22 44 25 21 39 24 19 41 24 17 23 10 1 22 12 2 26 13 4 26 13 4 33 21 9 38 26 12 27 16 20 17 10 28 17 8 29 17 5 27 16 7 28 17 10 17 16 9 17 10 11 15 9 10 14 4 8 17 1 8 16 
14 8 8 12 8 7 12 8 7 14 8 8 13 7 7 13 7 7 12 6 6 14 8 8 15 9 9 13 7 7 14 8 8 13 7 7 14 8 8 14 8 8 15 9 9 15 9 9 14 8 8 15 9 9 14 8 8 14 8 8 12 8 7 12 8 7 13 9 8 13 9 8 13 9 8 13 9 8 13 9 8 13 9 8 13 9 8 14 10 9 15 9 9 14 10 9 13 9 10 13 9 8 14 10 9 15 11 10 12 11 9 14 10 9 14 10 9 15 9 9 16 10 10 16 10 10 15 11 10 13 12 7 10 17 1 13 17 2 13 17 2 13 17 2 12 16 1 10 17 1 13 17 2 12 16 1 13 15 1 13 15 1 13 17 3 14 16 3 14 16 3 14 16 3 14 16 2 24 11 3 23 13 4 25 12 6 25 12 6 26 13 5 27 14 6 25 14 8 22 12 10 24 14 12 25 21 22 26 20 20 39 28 22 39 28 24 40 21 14 41 22 15 29 14 7 24 13 7 33 20 14 43 30 22 41 28 20 37 24 16 35 24 18 33 19 16 34 19 16 11 7 6 14 5 8 16 10 12 18 12 12 18 13 19 18 15 22 17 14 21 18 13 20 17 13 27 18 15 32 17 15 29 4 2 26 5 1 26 23 18 25 20 17 24 18 11 19 16 9 16 
12 8 7 12 8 7 12 8 7 13 9 8 13 9 8 13 7 7 12 6 6 13 9 8 12 8 7 13 9 8 12 8 7 12 8 7 13 9 8 13 9 8 15 9 9 15 9 9 13 9 8 13 9 8 11 10 8 13 9 8 12 8 7 12 8 7 12 8 7 13 9 8 13 9 8 13 9 8 13 9 8 12 8 7 14 8 8 13 9 8 14 10 9 13 9 8 14 10 7 15 11 10 13 9 6 12 11 9 14 11 6 14 10 7 15 9 9 15 9 9 17 11 11 15 11 10 15 11 10 14 11 4 12 14 0 11 15 0 13 17 2 12 16 1 13 17 2 13 17 0 12 16 2 12 16 1 12 16 2 12 16 1 13 17 2 15 17 4 15 17 4 14 16 2 14 16 3 22 12 3 24 14 5 25 12 3 25 10 5 26 13 7 29 14 7 24 13 7 24 14 12 24 16 13 27 21 23 27 21 21 41 27 24 40 27 21 42 23 16 41 22 15 30 15 10 24 13 7 35 22 14 44 30 21 43 30 24 38 23 18 36 23 17 34 18 18 34 20 17 12 8 9 11 7 6 17 11 13 17 11 13 19 14 20 17 14 21 17 14 21 18 13 19 16 14 25 18 15 32 16 13 32 6 4 28 5 1 28 20 18 21 22 17 24 18 11 18 16 9 17 
12 8 7 11 7 6 12 8 7 11 7 6 12 8 7 12 8 7 12 8 7 13 9 8 13 7 7 14 8 8 14 8 8 13 9 8 13 7 7 13 9 8 13 9 8 13 9 8 12 8 7 12 6 6 11 7 6 11 7 6 11 7 6 10 6 5 11 7 6 11 7 6 12 8 7 12 8 7 12 8 7 12 8 7 12 8 7 12 8 7 12 8 7 13 9 8 13 9 6 13 9 8 13 9 6 13 9 8 14 10 9 13 9 8 14 8 8 15 9 9 16 10 10 15 11 10 16 12 11 15 12 7 10 17 1 11 15 0 13 15 1 13 15 1 12 16 1 12 16 1 13 17 2 13 17 2 13 17 0 12 16 1 15 15 5 15 14 12 16 15 11 19 21 8 18 20 7 29 16 8 29 16 10 27 12 7 24 11 3 22 11 5 22 11 5 25 12 6 24 13 7 27 14 8 33 18 13 33 18 13 26 17 10 25 16 9 41 22 16 39 20 14 29 16 10 26 13 5 36 22 13 44 29 22 39 26 17 24 15 8 24 17 11 27 16 14 26 14 14 13 7 7 13 7 7 16 10 12 17 11 13 19 14 20 20 18 23 21 16 22 17 14 21 19 16 25 22 19 30 21 18 29 13 10 17 13 10 17 20 19 25 19 18 24 19 16 27 20 14 28 
12 8 7 11 7 6 12 8 7 11 7 6 11 7 6 12 8 7 12 8 7 13 9 8 12 8 7 12 8 7 13 7 7 14 8 8 14 10 9 11 10 8 14 10 9 13 9 8 11 7 6 12 6 6 10 6 5 10 6 5 10 6 5 10 6 5 11 7 6 12 8 7 12 8 7 13 9 8 13 9 8 13 9 8 12 8 7 11 7 6 12 8 7 13 9 8 13 9 8 14 10 9 13 9 8 14 10 9 14 10 9 14 8 8 17 8 9 16 10 10 16 10 10 17 12 9 16 11 8 15 12 7 11 15 1 11 15 0 12 16 1 13 17 2 12 16 1 12 16 1 12 16 1 10 17 1 11 15 0 12 16 1 13 14 6 17 13 14 17 13 12 19 21 8 20 22 9 30 15 12 31 16 11 26 13 5 26 11 4 25 12 6 21 12 7 23 12 6 25 12 6 28 13 8 36 17 11 36 19 12 22 15 9 21 14 8 37 20 13 41 22 15 28 15 9 23 12 6 35 22 14 44 29 22 35 25 16 20 11 6 21 14 8 24 14 13 25 13 15 11 7 6 11 7 6 15 11 12 15 10 14 20 15 21 20 17 24 19 16 23 17 14 21 19 16 23 23 22 30 21 20 26 17 12 16 17 13 14 21 18 25 19 18 24 18 16 30 19 17 31 
11 7 6 11 7 6 11 7 6 11 7 6 11 7 6 11 7 6 11 7 6 12 6 6 11 7 6 10 6 5 10 6 5 11 7 6 9 7 8 9 8 6 10 6 5 10 6 5 10 6 5 10 6 5 10 6 5 10 6 7 10 6 5 10 6 5 10 6 5 10 6 5 11 7 6 10 6 5 10 6 7 10 6 7 11 7 6 12 8 7 12 8 7 14 10 9 13 9 8 13 9 8 14 10 9 14 10 9 15 9 11 14 8 8 16 7 8 15 9 9 14 8 8 14 10 9 14 10 9 13 9 6 10 12 1 10 13 2 12 16 1 12 16 1 12 16 1 12 16 1 12 16 1 11 15 0 14 18 1 16 20 5 17 17 5 23 15 13 21 13 10 32 22 13 33 23 13 32 15 8 31 16 11 26 13 7 26 11 4 26 13 7 25 14 8 25 14 8 27 14 8 28 15 9 36 19 12 37 18 12 35 22 14 35 22 14 40 26 17 40 26 17 29 14 9 24 11 5 35 22 14 44 29 22 41 28 20 36 23 15 29 20 15 17 11 13 17 11 11 13 9 8 13 9 8 15 11 12 16 11 15 18 16 21 21 18 27 21 20 26 21 18 25 21 18 25 23 21 26 23 18 24 25 15 13 23 15 12 28 20 18 25 20 17 27 22 26 29 23 25 
11 7 6 11 7 6 10 6 5 11 7 6 12 6 6 11 7 6 11 7 6 11 7 6 11 7 6 10 6 5 10 6 5 10 6 5 8 6 9 8 6 7 9 5 6 10 6 5 10 6 5 10 6 5 11 7 6 10 6 5 9 5 4 10 6 5 9 5 4 10 6 5 9 5 4 9 5 4 9 5 4 11 7 6 11 7 6 12 8 7 12 8 7 13 9 8 13 9 8 14 10 9 13 9 8 14 10 9 13 9 8 13 9 8 12 8 7 13 9 6 13 9 8 13 9 8 13 9 8 13 9 6 10 12 1 9 12 3 12 16 1 13 17 2 12 16 1 13 17 2 13 17 2 12 16 1 14 18 4 17 21 7 20 18 6 24 14 12 26 15 11 43 24 18 43 23 16 31 16 9 30 15 10 27 12 7 26 11 6 27 14 6 27 16 10 28 15 9 25 15 6 30 15 10 36 19 12 37 20 13 44 25 18 45 26 19 40 26 17 41 26 19 28 13 8 25 10 5 34 20 11 44 31 22 45 31 22 44 30 21 36 25 19 14 9 13 15 10 14 13 9 8 14 8 10 16 11 15 18 12 16 21 16 22 21 18 25 21 18 25 22 19 26 22 20 25 22 20 25 24 19 23 25 16 9 26 17 10 30 19 15 31 22 17 35 25 23 36 26 25 
11 7 8 11 7 6 11 7 6 11 7 4 11 7 6 10 6 5 10 6 5 10 6 5 10 6 5 10 6 5 10 6 5 10 6 5 9 5 6 10 6 7 10 6 7 8 7 5 8 7 5 10 6 5 9 5 4 10 6 5 10 6 5 10 6 5 9 5 4 9 5 4 9 5 4 9 5 6 8 4 5 9 5 6 11 7 6 11 7 6 11 7 6 13 9 8 13 9 8 13 9 8 13 9 8 14 10 9 15 10 7 13 9 8 14 10 9 14 10 9 13 9 10 12 11 9 13 12 8 14 11 4 12 14 1 10 14 0 12 16 1 12 16 1 12 16 1 12 16 1 12 16 1 10 17 1 14 16 2 17 18 4 20 17 8 25 14 10 29 14 11 42 23 17 44 24 17 31 16 9 34 15 9 27 12 7 25 10 3 26 13 7 28 15 9 27 14 8 26 13 7 29 16 10 36 21 14 37 22 15 44 26 22 43 26 19 42 25 18 41 23 19 31 14 7 25 10 5 34 19 12 45 30 23 44 29 22 43 28 21 36 23 17 15 9 11 16 10 12 14 10 11 14 10 11 16 12 13 17 13 14 22 17 21 26 21 25 26 21 25 27 21 23 28 22 22 31 21 20 31 21 20 27 16 12 26 17 12 25 17 15 23 18 15 34 24 23 37 29 26 
10 6 5 10 6 5 10 6 5 10 6 5 11 7 6 10 6 5 10 6 5 10 6 5 12 8 7 10 6 5 10 6 5 10 6 5 10 6 5 10 6 5 10 6 5 8 7 5 9 8 6 8 7 5 10 6 5 9 5 4 9 5 6 9 5 6 9 5 4 10 6 5 9 5 4 10 6 5 9 5 4 10 6 5 10 6 5 10 6 5 10 6 5 12 8 7 13 9 8 13 9 10 13 9 8 13 9 8 13 9 6 13 9 8 13 9 8 13 9 8 11 9 10 11 10 6 11 12 4 11 13 2 13 17 2 13 17 2 12 16 1 12 16 1 12 16 1 12 16 1 12 16 2 13 17 3 13 15 1 19 15 4 21 14 6 28 13 8 31 13 9 43 22 17 43 24 18 32 17 12 31 16 11 27 12 7 26 11 6 25 12 6 26 11 6 26 13 7 26 13 7 28 15 9 36 23 15 41 24 16 44 26 22 45 27 23 41 23 19 42 23 19 29 14 7 25 10 5 35 20 15 44 30 21 45 28 21 44 26 22 37 22 19 15 11 12 16 12 13 14 10 11 15 10 14 17 12 16 16 11 17 25 19 21 29 23 25 30 24 24 31 23 20 33 24 19 41 24 17 37 22 17 27 17 15 26 19 13 19 14 18 19 14 20 33 25 23 38 31 25 
10 6 5 10 6 5 10 6 5 10 6 5 10 6 5 10 6 5 11 7 6 10 6 5 11 7 6 10 6 5 10 6 5 10 6 5 10 6 5 10 6 5 8 4 3 9 5 4 10 6 5 10 6 5 9 5 4 6 5 3 10 6 7 9 5 6 9 5 4 10 6 5 9 5 4 9 5 4 10 6 5 10 6 5 7 6 4 10 6 5 11 7 6 13 9 8 13 9 8 13 9 10 14 10 9 14 8 8 13 9 8 13 9 8 14 10 7 13 9 6 12 11 7 12 12 4 11 13 0 11 15 1 10 17 1 10 17 1 12 16 1 12 16 1 11 15 0 12 16 1 13 15 4 14 14 4 16 13 8 17 14 9 22 12 10 31 13 9 30 15 10 38 21 14 39 22 15 29 16 10 29 15 12 26 13 7 26 13 7 27 12 7 27 12 7 26 11 4 26 13 7 27 13 10 35 22 16 36 21 14 44 26 22 45 26 20 41 23 19 40 22 18 28 13 8 25 10 5 35 20 13 45 30 23 44 27 20 44 26 22 38 23 18 17 11 11 18 12 12 19 10 11 19 10 11 18 14 13 19 13 17 28 19 20 32 24 22 32 24 22 32 24 22 35 24 20 41 24 16 39 21 17 26 19 13 25 18 12 19 14 18 19 14 18 31 26 23 35 30 26 
8 7 5 8 7 5 10 6 5 10 6 5 10 6 5 10 6 5 11 7 6 9 5 4 10 6 5 11 7 6 11 7 6 10 6 5 8 6 7 10 6 5 9 5 4 9 5 6 9 5 4 9 5 6 10 4 6 10 4 6 7 5 6 9 5 6 9 5 4 7 5 6 10 6 7 9 5 6 7 5 6 8 7 5 11 7 6 13 9 8 13 9 8 13 9 8 13 9 8 14 10 7 13 9 8 12 8 7 12 8 7 12 11 6 11 13 2 10 13 2 9 15 1 10 17 1 11 15 0 10 17 1 9 16 0 10 17 1 13 17 2 12 16 1 14 16 2 14 16 2 19 10 11 23 7 17 18 6 18 15 4 21 20 7 16 29 16 8 30 15 8 27 13 10 28 15 9 19 14 10 21 13 10 23 12 8 25 12 6 26 13 7 26 11 6 29 12 5 25 12 4 25 12 6 29 14 9 30 17 11 45 26 22 44 26 22 42 23 19 41 23 19 28 13 8 24 11 5 34 20 11 44 29 22 44 29 22 46 27 23 40 22 18 26 11 4 25 10 3 25 14 8 25 14 8 24 16 14 24 16 14 32 23 18 36 25 19 35 26 21 35 24 22 39 24 21 44 24 17 41 22 16 21 16 12 23 15 12 18 16 21 20 15 21 28 23 27 30 25 29 
10 6 5 10 6 5 10 6 5 10 6 5 9 5 4 10 6 5 10 6 5 10 6 5 10 6 5 10 6 5 10 6 5 10 6 5 7 7 5 10 6 7 9 5 4 10 6 5 9 5 6 8 6 7 9 5 4 9 5 4 6 5 3 7 5 6 9 5 6 9 5 6 8 4 5 9 5 4 11 7 6 10 6 5 11 7 6 13 9 8 12 8 7 13 9 8 14 10 9 12 11 9 13 9 6 13 9 6 11 10 6 12 12 4 11 13 2 11 15 1 9 15 1 9 15 1 12 16 1 12 16 2 13 15 1 12 16 1 12 14 1 13 15 2 13 14 6 13 14 6 19 8 14 21 5 16 18 6 20 18 7 24 21 10 18 29 16 10 28 15 7 25 14 8 26 16 7 20 13 7 22 15 9 25 14 8 26 13 7 27 14 8 28 13 6 27 12 7 26 11 6 26 11 4 29 14 9 31 16 11 45 27 23 45 27 23 38 23 18 37 22 17 30 15 10 25 12 6 35 20 15 44 29 26 45 27 23 46 28 24 39 24 21 28 13 6 28 15 7 25 14 10 25 14 8 25 17 14 26 18 15 32 23 18 37 26 20 37 26 20 36 25 21 39 24 19 43 24 18 41 24 14 23 15 12 22 14 11 19 17 22 18 16 21 28 23 27 30 26 27 
10 6 5 10 6 5 10 6 5 8 7 5 10 6 5 7 7 5 10 6 5 10 6 5 8 7 5 10 6 5 11 7 6 8 7 5 8 7 5 11 7 6 9 5 4 9 5 4 10 6 5 6 6 4 7 6 4 7 7 5 6 6 4 10 6 5 9 5 6 7 6 4 10 6 5 10 6 5 13 9 6 14 8 8 13 9 8 12 8 7 12 8 7 10 9 5 10 9 4 11 12 6 11 14 5 11 14 3 9 16 0 12 16 1 12 16 1 10 16 2 12 16 1 12 16 1 10 17 1 12 16 2 12 14 1 12 16 2 22 6 16 22 6 17 14 1 29 12 1 33 10 1 32 8 1 32 21 12 31 33 25 23 31 21 19 27 16 10 28 15 9 22 11 5 26 13 7 18 12 12 20 12 9 29 21 18 32 24 21 32 18 15 30 15 8 28 13 8 24 11 5 26 11 4 28 13 8 30 15 10 47 26 21 45 27 23 26 21 15 27 19 16 29 21 18 29 22 16 35 26 19 41 31 22 43 30 24 41 30 26 43 29 26 36 29 23 35 27 24 27 16 14 26 16 14 32 19 13 32 19 11 39 26 18 42 27 20 42 27 20 40 25 18 42 25 18 41 29 17 40 27 18 20 14 14 21 12 13 22 17 21 22 17 21 29 23 23 31 25 27 
10 6 5 10 6 5 10 6 5 10 6 5 10 6 5 8 7 5 10 6 5 9 5 4 10 6 5 10 6 5 10 6 5 10 6 5 7 7 5 10 6 3 9 5 4 10 6 7 9 5 6 8 6 7 8 7 5 10 6 5 9 5 4 10 6 5 7 6 4 8 4 5 10 6 5 10 6 5 14 9 6 14 9 6 13 9 10 12 6 6 8 7 5 12 8 5 11 10 5 11 12 4 11 13 2 11 15 1 10 16 2 10 17 1 12 16 2 12 16 1 10 17 1 11 18 2 11 15 0 9 15 1 13 15 2 13 15 2 22 6 16 22 6 16 15 2 30 13 0 32 12 1 33 11 1 35 22 13 30 33 24 25 32 21 19 27 17 8 26 16 7 25 11 8 25 12 6 20 13 7 22 14 11 30 20 18 30 25 21 30 19 15 28 14 11 26 13 7 26 13 7 25 12 4 28 13 8 30 15 8 47 28 22 45 26 22 28 21 15 25 20 16 29 21 18 31 22 17 35 25 23 40 29 23 41 30 24 42 29 23 43 29 26 36 29 23 36 26 24 27 17 15 25 15 13 34 19 12 32 19 10 39 25 16 43 28 21 41 26 21 43 25 21 42 28 19 43 29 18 41 26 19 20 14 14 21 12 13 23 18 22 23 18 22 30 24 26 34 25 28 
8 7 5 10 6 5 10 6 5 10 6 5 8 4 3 9 5 4 9 5 4 9 5 4 9 5 4 10 6 5 9 5 4 9 5 4 9 5 4 9 5 4 9 5 6 10 6 5 8 4 1 9 5 4 8 6 7 7 6 4 7 5 6 9 5 6 10 6 3 10 6 5 9 8 4 8 9 3 10 11 5 10 11 3 13 16 7 24 24 14 21 23 12 18 18 8 17 19 8 13 15 2 13 15 2 12 16 2 10 17 1 10 17 1 11 18 2 13 17 2 12 14 1 16 11 7 19 8 14 18 6 16 13 3 28 13 3 28 12 1 33 12 1 31 11 1 35 11 1 35 17 8 35 20 10 34 25 17 28 32 24 22 30 22 19 26 17 12 25 18 12 22 17 13 23 18 14 20 21 13 20 23 14 20 15 9 22 13 8 27 20 14 30 21 16 28 15 9 26 11 6 26 13 7 27 14 8 30 15 10 45 27 23 44 29 24 30 21 16 29 22 16 28 19 14 23 18 12 25 16 11 24 17 11 29 20 15 39 30 25 40 30 28 41 32 27 40 31 26 18 14 15 18 14 15 27 21 21 31 23 21 36 25 19 42 27 20 45 28 21 44 30 21 44 27 19 40 21 14 39 22 15 27 18 13 27 17 15 27 16 10 28 14 11 37 22 17 40 25 18 
8 7 5 8 7 5 10 6 5 10 6 5 9 5 4 9 5 4 10 6 5 10 6 5 10 6 5 10 6 5 10 6 5 9 5 4 9 5 6 9 5 4 10 6 7 9 5 6 10 6 7 10 6 5 6 6 4 10 6 5 8 4 5 9 5 6 10 6 5 10 6 5 9 8 4 9 10 4 10 11 5 9 12 1 15 18 7 25 27 16 23 25 12 18 20 7 17 21 7 11 15 1 12 16 1 13 15 1 12 16 1 12 16 1 10 17 1 10 16 2 11 15 1 15 12 7 22 6 16 19 5 20 12 1 33 12 1 31 11 0 34 10 0 35 10 1 32 11 0 34 17 9 33 21 13 34 26 19 27 31 26 22 30 22 19 26 19 13 26 18 15 22 19 14 20 19 14 22 23 17 22 23 17 20 15 11 20 13 7 27 18 13 31 22 17 28 17 13 26 11 6 27 12 7 28 13 8 28 15 9 45 27 23 42 27 22 31 22 17 30 21 16 26 19 13 24 17 11 24 15 10 21 14 8 27 19 16 39 30 25 39 32 26 42 33 26 40 33 27 17 12 16 15 13 16 27 22 19 29 23 23 37 26 20 44 27 20 45 28 21 44 29 22 44 27 20 41 22 15 40 21 15 28 19 14 28 19 14 28 15 9 28 15 7 37 22 15 42 25 18 
10 6 5 10 6 5 9 5 4 9 5 4 10 6 5 10 6 5 10 6 5 9 5 4 10 6 5 9 5 4 9 5 4 8 4 3 8 4 3 8 6 7 9 5 6 10 6 5 9 5 4 9 5 2 7 8 3 7 6 2 10 13 2 10 13 2 10 14 0 10 13 2 11 15 1 12 16 2 12 16 2 14 16 3 17 20 9 22 24 11 21 23 9 14 16 2 14 18 3 13 17 2 13 17 2 12 16 2 12 16 2 17 11 11 18 9 12 17 7 18 12 4 25 12 4 27 14 1 27 11 2 29 12 1 33 11 2 33 11 2 33 10 0 34 8 1 32 9 2 35 18 10 25 24 15 18 27 19 17 31 23 20 33 25 22 39 31 28 35 30 26 19 14 10 19 14 8 20 15 9 20 15 9 21 13 10 21 14 8 25 16 11 25 18 12 27 18 13 28 19 14 27 17 15 25 16 11 28 17 13 38 29 24 37 28 23 33 25 22 35 25 23 28 23 19 30 22 19 29 22 16 27 20 14 33 26 20 40 33 27 36 28 25 25 19 19 24 18 18 20 15 21 17 15 20 24 19 26 25 20 27 34 26 23 43 33 24 44 30 21 42 29 20 44 25 18 41 22 15 40 21 15 25 18 12 23 18 12 26 17 12 25 15 13 34 25 18 37 26 20 
10 6 5 10 6 5 9 5 4 9 5 4 10 6 5 8 7 5 10 6 5 10 6 5 8 7 5 9 5 4 9 5 4 9 5 4 8 7 5 7 6 4 10 6 7 9 5 6 9 5 4 7 6 4 8 9 4 8 9 4 9 16 0 9 16 0 12 16 1 11 15 0 9 16 0 12 16 2 13 17 2 13 17 3 17 19 6 21 23 10 19 21 8 13 17 2 12 16 0 12 16 1 13 17 3 10 16 2 11 15 1 18 9 12 19 6 15 16 4 24 12 1 33 11 2 33 11 1 35 12 1 35 11 1 35 12 1 35 10 1 30 11 2 31 9 2 33 9 2 35 17 9 20 24 16 14 24 19 15 29 24 20 35 27 24 40 35 32 38 33 29 20 13 7 19 12 6 21 12 7 21 11 9 20 11 6 20 13 7 22 15 9 22 14 11 27 20 14 30 22 19 29 21 18 24 15 10 26 17 12 36 28 25 37 30 24 33 28 24 34 26 23 34 24 22 32 24 21 31 23 20 31 21 19 34 25 18 40 33 27 35 27 25 20 14 16 21 15 15 19 14 20 19 17 22 20 17 24 21 20 28 36 26 24 42 32 22 43 30 21 45 28 20 43 26 18 41 22 15 40 23 16 26 16 14 25 18 12 26 19 13 24 19 13 35 26 21 37 28 21 
10 6 5 10 6 5 10 6 5 10 6 5 8 7 3 8 7 5 8 7 5 7 5 6 10 6 7 10 6 5 8 6 7 10 6 5 9 5 4 9 5 6 7 5 8 8 7 3 10 9 4 10 12 1 11 13 2 11 13 0 12 16 1 9 15 1 11 15 0 10 16 2 9 15 1 12 16 1 12 16 1 10 17 1 14 18 4 15 19 5 15 19 5 14 16 3 13 15 4 18 9 10 19 10 11 16 5 21 14 8 22 14 5 26 16 2 28 12 1 31 10 0 34 11 1 35 10 0 35 9 2 35 9 2 33 10 3 36 14 12 25 15 11 28 27 25 36 29 28 36 24 18 18 21 13 10 22 14 11 23 16 10 26 21 17 35 30 26 32 27 23 30 22 19 31 23 20 31 26 22 32 24 21 24 16 13 24 16 13 19 14 10 20 12 9 23 16 10 23 16 10 25 16 11 20 12 9 21 13 10 25 17 14 25 17 14 33 25 22 32 24 21 32 24 21 30 22 19 31 24 18 30 23 17 34 27 19 39 29 27 37 30 24 28 20 17 28 20 17 24 14 12 25 15 13 32 21 19 34 23 21 41 26 21 42 27 22 41 30 24 39 32 24 39 30 23 39 28 24 36 27 20 30 21 16 31 22 17 28 19 12 28 19 12 34 25 18 35 26 21 
10 6 5 10 6 5 10 6 5 10 6 5 10 6 5 9 5 4 8 7 5 8 7 5 9 5 4 9 5 4 10 6 3 8 7 5 8 7 5 7 6 4 7 6 4 8 7 3 10 12 1 10 14 0 14 18 3 13 17 2 9 16 0 11 15 0 12 16 1 9 16 0 10 16 2 10 17 1 8 14 0 9 15 1 10 16 2 11 17 3 14 16 3 12 16 2 14 14 4 19 6 16 19 5 18 15 2 30 13 2 34 11 0 34 10 0 33 12 1 35 10 0 34 10 1 32 10 0 34 9 2 35 9 2 33 8 3 33 16 19 26 17 17 25 37 38 33 41 42 36 27 22 18 20 11 6 20 12 9 20 10 8 21 16 12 32 24 21 32 24 21 36 31 27 36 31 27 38 33 29 38 33 29 29 21 18 25 17 14 22 14 11 18 10 7 20 12 9 21 13 10 21 13 10 17 9 6 18 10 7 18 10 7 17 9 6 30 22 19 32 24 21 31 23 20 31 23 20 31 23 20 31 23 20 33 25 22 38 30 27 36 29 23 32 23 18 33 22 18 26 15 9 25 15 6 41 22 15 41 24 16 42 25 18 44 27 20 40 29 25 38 35 30 36 33 28 38 30 27 37 29 26 32 25 19 32 23 18 29 19 10 29 19 10 34 25 18 36 27 20 
10 6 5 9 5 4 10 6 5 10 6 5 8 7 5 8 6 7 10 6 5 7 6 4 7 5 6 10 6 5 8 6 7 9 5 4 8 7 5 9 8 4 9 8 3 10 11 3 11 13 0 12 14 1 13 17 0 13 17 2 10 16 2 13 17 0 10 17 1 11 18 2 11 18 2 10 17 1 9 15 1 10 16 2 12 15 4 12 13 8 16 12 11 12 10 15 14 11 18 16 4 26 16 4 24 12 1 33 12 1 33 11 2 33 11 2 33 11 1 35 11 2 33 12 3 34 13 7 33 14 11 32 17 17 29 17 16 30 18 24 22 19 23 22 33 36 27 33 39 27 24 25 19 20 17 10 20 15 9 20 12 9 23 15 12 26 21 17 28 20 17 28 23 17 28 23 17 33 28 24 33 28 24 30 22 19 26 18 15 25 20 14 26 19 13 25 17 14 25 17 14 23 15 12 17 9 6 18 10 7 19 11 8 19 11 8 31 23 20 31 23 20 32 24 21 32 24 21 31 24 18 31 23 20 30 25 21 29 24 21 29 24 21 25 19 19 25 20 16 32 24 21 33 23 21 38 25 17 37 24 16 40 26 23 42 29 23 40 31 26 39 34 30 40 33 27 39 31 29 38 30 27 35 27 24 36 27 22 29 18 12 29 18 12 34 25 20 35 28 22 
10 6 5 10 6 5 9 5 4 9 5 4 10 6 5 9 5 4 9 5 4 9 5 6 9 5 4 8 4 3 10 5 9 7 8 3 8 9 3 11 14 3 12 16 2 13 17 2 13 17 2 13 15 1 14 17 0 13 17 2 13 17 0 15 17 3 15 17 3 15 17 3 12 16 1 10 17 1 11 15 0 9 15 3 15 11 8 19 6 16 16 4 24 11 1 38 10 0 37 12 2 37 11 1 36 10 0 34 8 1 34 11 2 33 9 2 35 9 2 35 11 2 33 12 8 31 18 18 30 21 22 27 27 38 21 27 38 21 22 33 17 21 32 16 20 31 15 20 31 15 22 30 17 22 25 14 21 21 11 16 16 8 21 14 8 20 13 7 19 14 8 16 11 5 17 10 4 27 20 14 27 20 14 30 20 18 30 23 17 35 27 24 37 29 26 33 26 20 27 22 16 28 19 14 17 9 6 17 9 6 19 11 8 19 11 8 31 23 20 31 23 20 31 23 20 32 24 21 32 24 21 32 25 19 25 22 17 18 14 13 17 16 14 16 14 15 16 16 16 39 39 39 40 40 40 31 26 20 31 24 18 35 30 26 39 34 30 40 32 29 38 30 27 38 30 27 37 29 26 39 32 26 38 30 27 39 31 28 26 19 13 26 18 15 30 25 21 32 28 27 
8 7 5 10 6 5 9 5 4 7 6 4 8 7 5 7 6 4 9 5 4 8 6 7 7 6 4 8 7 3 8 7 3 9 10 2 9 10 2 10 14 0 13 17 2 12 16 1 12 16 1 13 15 1 14 16 2 13 17 2 14 16 2 14 15 1 14 16 2 14 16 2 13 15 4 14 14 6 14 13 9 12 12 10 12 10 15 17 4 24 16 4 24 15 0 39 11 1 38 11 0 35 10 0 39 7 0 31 8 1 34 9 2 33 11 5 31 13 7 33 14 11 30 16 15 29 22 23 28 22 26 27 28 37 20 28 39 22 24 32 17 23 31 16 21 32 18 23 31 16 23 29 17 21 27 13 22 24 13 19 19 11 22 18 9 20 15 9 19 16 7 16 11 7 19 11 8 27 20 14 27 20 14 28 20 17 25 20 16 33 25 22 37 28 23 31 23 20 26 18 15 26 19 11 19 11 8 20 12 9 19 11 8 19 11 8 30 22 19 31 23 20 32 24 21 30 22 19 30 22 19 30 22 19 24 19 15 16 15 11 15 14 12 18 16 17 18 18 18 37 37 39 38 36 37 33 27 27 30 25 22 36 31 27 40 35 31 39 31 28 38 30 27 38 30 27 39 31 28 39 31 28 40 32 29 39 31 28 26 18 15 26 18 15 32 24 22 35 26 27 
8 7 5 9 5 4 9 5 4 7 6 4 9 5 4 8 6 7 10 6 5 9 5 6 9 5 6 10 12 1 10 12 1 12 14 0 12 16 1 13 17 2 12 16 1 13 17 2 12 14 0 14 16 2 12 16 1 12 16 1 13 17 0 13 17 2 14 14 2 13 15 2 19 10 15 23 5 19 17 3 29 15 1 37 15 1 36 12 1 35 13 2 36 12 1 33 13 2 36 12 1 35 12 1 33 11 2 33 10 1 32 15 10 30 16 13 30 22 27 23 26 37 20 28 37 20 29 38 21 27 38 21 28 36 21 29 38 21 22 33 17 21 32 16 21 32 16 23 31 18 23 31 18 21 32 16 24 32 17 24 32 17 23 31 16 21 27 17 22 25 14 19 16 9 19 14 8 28 21 15 27 19 16 22 17 11 19 14 10 28 21 15 33 24 19 24 16 13 18 11 5 20 10 9 25 17 14 25 17 14 21 13 10 19 11 8 30 22 19 32 24 21 31 23 20 32 24 21 27 20 14 23 16 10 18 13 9 13 12 10 15 14 12 21 19 20 21 19 20 30 30 28 31 29 30 31 30 28 31 30 26 37 32 29 39 31 28 39 31 28 39 32 26 39 31 28 39 31 28 38 30 27 39 31 28 39 32 26 27 20 14 26 18 15 33 25 22 36 28 26 
7 6 4 7 6 4 7 6 4 6 6 4 9 5 4 8 7 5 7 5 6 7 5 6 8 4 3 10 11 3 9 11 0 13 15 1 14 16 2 12 16 1 12 16 2 11 15 0 12 16 1 12 16 1 12 16 1 12 16 1 14 16 2 13 17 2 13 15 2 12 16 2 19 8 16 22 6 19 16 2 28 14 0 35 14 0 36 12 1 35 11 0 34 11 0 35 12 1 35 12 1 33 12 1 35 11 2 31 12 3 34 15 10 30 16 14 27 21 26 22 27 38 21 27 38 21 30 39 22 26 37 21 26 37 21 28 36 21 21 32 18 20 31 17 23 31 16 23 31 16 21 32 18 21 32 18 20 31 17 23 31 16 23 31 16 20 28 15 20 26 14 19 16 9 19 16 9 25 20 16 26 21 15 23 16 10 22 15 9 27 20 14 31 24 18 25 18 12 15 10 4 19 11 8 25 17 14 24 16 13 20 12 9 19 11 8 30 22 19 32 24 21 31 23 20 31 23 20 26 18 15 22 14 11 18 13 9 12 12 10 14 14 12 20 20 20 19 19 19 30 30 30 31 31 29 33 31 32 31 30 28 37 32 29 39 31 28 38 30 27 37 33 24 38 31 25 39 32 26 38 31 25 39 31 28 41 34 28 26 19 13 27 19 16 33 25 22 36 28 26 
9 5 4 7 6 4 7 6 4 9 5 4 7 5 6 6 5 3 7 8 3 10 14 0 12 14 1 12 16 1 12 16 1 12 16 1 12 16 1 12 16 1 9 15 1 10 17 1 9 16 0 9 15 3 11 14 3 12 13 5 22 6 19 21 5 18 14 2 38 17 1 38 15 0 41 15 0 39 16 2 38 16 1 40 16 1 40 13 1 39 14 2 40 13 1 37 14 2 38 18 10 31 16 12 29 26 34 21 27 38 22 22 30 17 21 27 15 20 26 14 20 26 16 24 30 16 29 38 21 28 37 20 22 33 17 23 31 16 24 32 17 23 31 16 24 32 19 25 33 18 24 32 17 22 30 15 23 31 16 23 31 16 20 31 15 22 30 15 24 32 17 23 29 17 24 30 18 25 26 18 26 27 19 21 16 10 21 14 8 26 18 15 31 23 20 25 18 12 17 9 6 18 13 7 26 18 15 26 18 15 18 10 7 17 9 6 31 23 20 34 26 23 41 33 30 43 35 32 30 25 21 20 12 9 18 13 9 14 12 13 13 11 12 12 10 11 12 10 11 26 24 25 27 25 26 26 25 23 26 24 25 32 26 26 31 27 24 34 29 25 38 30 27 36 28 25 36 27 22 36 26 24 38 30 27 37 29 26 26 18 15 27 19 16 34 26 23 37 29 26 
7 6 4 7 6 4 8 7 5 9 5 6 9 5 6 7 5 6 8 7 3 11 13 0 11 13 2 11 15 0 12 16 1 10 17 1 12 16 1 9 16 0 10 17 1 10 16 2 11 15 1 9 15 1 12 16 2 13 14 6 22 6 17 20 7 17 15 0 39 15 0 39 16 1 40 16 1 40 15 0 39 14 2 42 13 1 39 12 0 38 13 1 37 12 1 35 14 3 37 17 13 30 19 12 30 26 34 23 28 36 21 20 31 17 21 29 16 20 28 17 20 26 14 25 31 17 28 39 22 27 36 19 20 33 16 23 31 16 22 30 19 22 33 17 24 32 17 24 32 17 23 31 16 22 30 17 21 32 18 23 31 16 21 32 18 23 31 16 23 32 15 23 29 17 24 30 18 26 27 19 26 27 19 21 16 10 21 11 9 26 18 15 30 22 19 24 16 13 18 8 6 17 12 8 26 19 13 25 18 12 17 10 4 17 10 4 33 25 22 33 25 22 42 32 31 41 36 33 31 23 20 19 14 8 18 13 10 14 13 11 14 14 12 12 10 11 13 11 12 25 24 20 26 24 25 27 25 26 26 24 25 30 26 23 31 27 24 34 29 25 36 31 27 35 30 24 36 29 23 37 28 23 38 30 27 38 30 27 27 19 16 27 20 14 33 25 22 37 29 26 
9 5 4 10 6 5 7 6 4 6 4 5 8 9 4 11 13 2 10 14 0 12 16 2 11 15 0 12 16 1 11 15 0 10 17 1 12 16 1 11 15 1 12 16 2 17 12 9 23 7 18 20 7 25 20 3 39 19 2 38 20 3 39 19 3 40 19 1 41 18 2 41 17 1 40 17 2 41 17 1 40 17 1 40 17 3 39 18 7 37 22 15 33 26 31 25 26 31 24 26 34 21 26 34 21 30 39 22 26 37 21 28 37 20 29 35 21 27 36 17 27 35 20 27 35 20 26 37 20 25 36 19 22 33 17 23 31 16 21 32 16 22 33 16 18 24 14 16 22 12 23 26 17 22 30 17 23 29 17 24 27 18 25 26 18 24 23 18 25 24 19 26 27 19 25 28 19 24 30 18 23 31 18 24 30 16 25 31 17 26 30 16 29 31 20 23 23 13 19 14 8 21 16 10 28 20 17 29 21 18 27 19 16 26 18 15 37 29 26 36 31 27 41 33 30 42 37 33 28 24 23 13 12 10 13 12 10 12 12 12 12 12 12 13 11 12 12 12 10 18 16 17 17 15 16 28 26 27 29 28 26 29 27 28 32 28 27 33 29 28 33 29 28 30 25 22 25 15 6 26 17 10 42 32 30 39 31 28 27 19 16 26 18 15 32 24 21 34 29 26 
10 6 5 8 7 5 6 5 3 8 4 5 8 9 4 11 15 1 12 16 1 12 16 1 12 16 1 12 16 1 12 16 1 12 16 1 12 16 1 11 15 1 11 15 1 19 10 11 23 7 18 23 3 28 22 1 44 20 2 42 19 1 43 18 0 42 16 1 40 17 1 40 17 1 40 18 2 41 19 1 41 18 2 41 20 4 40 20 10 35 20 16 33 28 36 23 27 35 22 28 40 20 25 38 20 28 36 21 27 38 22 27 38 22 27 38 21 27 38 21 28 37 20 27 35 20 27 35 20 27 35 20 23 31 16 22 31 14 22 33 17 22 33 17 16 22 12 14 20 10 19 25 15 23 31 16 25 28 19 24 25 17 27 27 19 26 23 18 27 24 19 26 25 20 25 26 20 24 30 18 25 33 20 25 33 18 25 33 18 26 32 18 28 32 18 23 23 13 20 12 9 22 17 11 26 21 17 26 21 17 26 18 15 25 20 16 35 30 26 37 32 28 42 37 33 42 37 33 26 25 23 11 11 11 13 11 12 12 12 12 12 12 14 16 11 15 12 12 12 15 15 15 16 14 15 29 27 28 30 29 27 31 29 32 30 28 29 31 29 30 31 30 28 28 23 20 23 12 6 24 15 8 40 32 29 36 31 27 26 18 15 26 18 15 34 26 23 36 28 25 
8 7 5 8 7 3 9 10 4 10 13 2 10 14 0 7 15 0 9 15 1 11 15 1 11 15 0 9 15 1 9 15 1 21 11 12 25 8 14 29 6 24 29 3 28 34 3 34 36 3 34 35 0 40 32 2 40 32 0 41 28 0 41 28 1 42 26 1 43 24 1 43 22 4 42 22 5 41 21 12 31 22 21 27 22 23 25 24 26 21 23 30 22 25 36 22 27 35 20 29 37 22 26 37 20 26 37 21 26 37 20 26 37 23 27 38 21 27 38 24 27 38 22 25 36 20 23 34 18 23 34 20 23 31 16 22 30 17 23 29 17 24 30 20 22 23 17 22 23 15 23 26 17 25 28 17 23 29 17 24 32 17 24 30 20 25 31 19 24 30 16 24 32 19 26 32 20 26 34 19 26 34 19 26 35 18 25 33 18 26 32 18 27 33 19 26 29 18 25 28 19 24 25 17 21 18 11 22 19 12 20 15 9 21 16 10 24 19 13 23 18 12 20 15 11 22 17 13 19 15 12 16 15 13 14 12 13 10 10 8 10 10 8 12 10 11 13 13 13 21 20 16 21 19 20 27 25 26 31 27 26 28 26 27 28 26 27 29 28 26 32 31 29 28 23 19 22 11 5 22 13 6 36 28 25 35 27 24 25 18 12 26 18 15 34 26 23 34 29 26 
8 7 3 7 7 5 8 11 2 9 16 0 8 14 0 8 15 0 8 14 0 8 14 0 8 14 0 11 15 1 9 15 1 27 7 18 29 5 19 35 2 31 39 0 44 39 1 40 38 0 41 38 0 39 37 0 41 36 1 41 33 0 43 32 1 42 28 1 44 27 0 41 25 4 43 22 5 41 23 20 29 21 28 21 24 29 22 22 33 17 23 34 18 27 33 19 24 35 19 26 37 21 26 37 20 26 37 20 28 39 22 26 37 20 26 37 21 26 37 21 27 38 21 25 36 20 21 32 16 21 32 18 22 33 17 22 33 17 25 28 17 26 29 18 24 25 19 24 25 19 25 28 19 26 29 18 24 30 18 22 33 16 22 35 18 23 34 18 22 33 16 25 33 18 25 36 20 25 36 20 27 36 19 27 35 20 26 34 19 24 35 19 26 32 20 26 32 20 25 31 19 25 28 19 22 19 12 22 19 12 19 14 8 20 15 9 19 12 6 19 12 6 15 10 6 14 9 5 17 13 10 19 17 18 14 12 13 10 9 7 11 9 10 12 10 11 12 12 12 22 22 22 23 21 22 28 27 25 31 27 28 28 26 27 27 25 26 30 29 27 31 29 30 27 22 18 21 10 4 23 12 8 34 26 23 35 27 24 26 18 15 27 19 16 33 25 22 36 28 26 
9 12 3 9 12 3 10 14 0 9 15 1 8 14 0 9 15 1 10 13 2 18 13 7 17 12 8 27 8 14 28 9 15 35 4 22 36 5 23 40 1 28 41 0 32 42 1 33 42 1 35 41 1 35 41 1 35 41 1 36 38 1 42 37 1 39 34 2 43 35 0 43 25 10 29 22 14 27 24 22 23 27 30 21 24 32 21 24 32 17 25 33 18 23 34 18 23 34 18 24 35 19 24 35 18 24 35 19 27 33 19 25 36 20 25 36 19 26 37 20 28 37 20 26 34 19 24 30 16 24 32 17 23 31 18 23 31 16 25 31 19 24 30 16 24 27 16 22 28 18 23 29 17 24 30 18 24 30 18 23 29 15 24 32 19 25 31 19 25 31 21 27 28 20 25 28 19 27 28 20 27 28 20 27 30 19 24 30 18 24 30 18 23 29 17 24 27 16 21 24 15 22 25 14 21 24 13 23 26 15 22 24 13 21 24 13 21 21 11 23 20 13 18 15 10 16 12 9 18 14 11 19 17 18 17 16 14 12 11 9 11 9 10 12 10 11 12 11 9 20 20 20 22 21 19 26 24 27 27 25 26 26 24 25 25 23 24 27 26 24 27 25 26 25 20 17 18 10 7 19 11 8 31 24 18 33 24 19 27 20 14 26 19 13 34 26 23 33 28 24 
12 16 1 12 16 0 9 16 0 9 15 1 8 14 0 7 13 1 11 12 4 27 4 12 27 6 11 44 0 27 44 1 28 44 0 27 44 0 27 45 1 24 45 1 26 44 0 25 45 1 26 45 0 29 44 0 25 43 0 28 43 1 39 43 1 37 44 1 46 46 0 46 25 19 21 18 24 14 24 30 18 27 33 21 26 32 18 24 32 17 23 31 16 23 31 16 24 32 17 22 33 17 25 33 20 23 34 18 23 34 18 25 36 20 24 35 18 27 35 20 27 35 20 25 33 18 21 29 18 23 31 16 24 30 18 24 32 19 23 34 18 22 33 17 25 33 18 23 34 18 24 32 17 24 30 18 24 30 18 24 27 18 26 29 22 24 30 20 27 28 20 26 22 19 26 22 19 26 22 19 27 22 19 26 25 20 24 25 17 23 26 17 20 26 16 17 23 13 15 20 13 17 23 13 23 34 18 22 33 17 22 33 19 22 33 17 23 29 17 23 29 17 18 19 13 17 18 13 17 17 15 19 19 19 18 17 15 16 12 11 15 11 12 12 10 11 11 11 9 19 18 16 19 17 18 26 25 23 27 25 26 24 22 23 21 20 18 23 22 20 24 23 21 20 16 13 14 9 6 16 11 7 30 22 19 31 24 18 27 20 12 27 20 14 31 26 22 36 28 26 
12 16 1 11 15 1 14 14 2 18 11 3 19 12 4 20 9 3 25 7 3 34 4 12 35 4 10 45 2 22 44 0 23 44 2 26 44 0 27 44 1 28 45 0 29 43 0 27 44 1 28 44 1 29 43 0 28 44 1 31 43 1 39 43 3 40 42 7 40 42 6 42 26 17 20 19 22 15 20 23 14 22 25 16 21 24 15 21 24 15 20 23 14 21 24 15 21 24 15 22 25 16 23 26 19 24 27 18 25 28 19 25 28 17 26 29 20 25 28 19 24 27 16 23 26 17 21 22 16 19 24 17 22 25 14 21 27 15 24 30 18 23 29 15 22 28 16 18 26 15 23 26 17 25 26 18 23 26 17 25 25 17 24 25 17 23 26 15 23 26 17 26 22 19 26 22 19 26 26 18 24 25 17 25 26 18 24 27 18 21 29 16 20 28 15 19 25 13 17 23 13 19 22 15 17 25 14 18 24 14 23 26 19 21 27 17 23 24 18 22 25 16 21 20 16 19 18 14 17 17 15 16 15 13 17 13 12 15 11 10 13 11 12 12 12 12 11 13 12 17 17 17 18 16 17 24 23 21 26 24 25 23 22 20 21 20 18 22 20 21 25 24 20 21 17 16 16 8 6 17 12 8 31 21 19 28 23 17 27 19 16 27 19 16 33 25 22 37 27 25 
12 16 1 13 15 1 20 11 4 30 5 8 35 3 4 44 0 2 43 1 5 44 1 8 44 1 10 41 0 16 40 2 17 44 0 25 43 0 27 44 1 31 44 1 31 44 1 31 46 1 32 45 2 32 45 1 37 45 1 37 42 4 41 43 5 42 37 16 35 37 16 35 22 18 19 19 15 12 12 14 9 13 12 10 12 12 10 16 12 11 16 12 11 15 11 10 15 14 12 19 15 16 18 14 13 22 18 15 24 19 16 23 17 17 23 18 15 24 16 14 20 14 14 19 15 14 17 13 12 16 15 13 17 20 13 16 18 13 26 22 19 25 24 19 17 16 12 15 14 10 18 19 13 21 20 15 24 20 17 25 22 17 22 21 16 14 20 10 16 22 12 22 25 16 23 24 18 23 31 16 23 31 16 24 32 17 22 33 17 20 33 16 25 33 18 22 30 17 21 27 15 21 24 17 10 10 10 10 10 10 21 17 14 21 16 13 21 17 16 22 17 14 23 17 17 23 19 18 17 13 10 10 6 5 12 8 7 11 9 10 13 11 12 12 11 9 12 11 9 15 15 15 17 15 18 22 22 24 25 21 22 21 19 20 20 18 19 22 21 19 24 23 21 21 17 16 14 9 5 17 12 8 30 23 17 31 24 18 25 17 14 26 18 15 34 26 23 36 28 25 
16 14 2 16 13 4 24 9 6 30 5 11 35 4 9 43 1 5 43 0 7 43 0 10 45 0 10 43 2 20 42 1 19 42 0 24 43 0 27 42 1 31 44 1 31 44 1 31 44 0 33 42 1 33 42 0 38 42 0 38 39 9 37 39 9 37 36 18 32 35 18 34 23 19 18 19 18 14 15 16 10 14 15 10 15 14 12 18 14 11 17 16 12 17 13 10 16 15 11 21 17 14 21 17 14 24 19 16 23 19 16 23 19 16 24 20 17 24 19 16 19 18 14 20 16 13 16 15 11 17 15 16 17 20 13 18 19 14 25 24 20 24 24 16 17 16 11 16 17 12 20 19 14 24 23 19 23 22 17 24 23 19 22 23 17 15 20 13 14 22 11 22 25 16 20 26 16 21 32 18 21 32 16 22 33 17 22 33 17 23 31 18 25 31 19 23 29 19 24 27 18 21 24 15 13 11 12 15 11 10 19 15 14 20 15 11 21 17 14 22 16 16 21 17 16 23 19 16 18 13 10 12 8 5 10 8 9 11 9 10 11 11 11 11 11 11 12 12 12 15 13 14 15 15 15 23 21 22 23 21 24 22 20 21 22 18 17 23 22 20 27 23 20 22 18 15 15 10 7 16 11 8 29 21 18 30 22 19 26 18 15 25 17 14 34 26 23 35 30 26 
