P3
100 50
255
57 37 36 55 33 35 41 27 27 40 28 30 44 30 30 42 28 28 42 28 28 42 28 28 41 27 27 41 27 27 41 27 27 40 28 28 39 27 27 38 28 29 41 26 29 43 29 29 43 29 28 51 31 32 48 32 32 53 33 34 52 34 32 42 31 29 37 30 24 38 31 25 37 33 22 43 37 23 56 46 21 53 45 22 50 41 24 51 44 25 34 31 24 32 29 24 30 27 38 32 25 43 32 27 34 32 28 25 40 36 25 52 47 28 54 49 29 61 55 31 62 56 30 50 44 30 50 44 30 55 48 30 56 49 31 54 49 29 55 47 28 52 45 27 51 44 28 52 45 29 54 48 32 53 47 31 39 34 31 38 34 31 38 32 42 37 31 41 38 30 53 36 30 58 38 32 42 43 34 37 93 29 81 143 20 127 133 18 121 119 19 107 111 19 96 107 20 91 107 20 89 107 20 89 108 21 89 109 23 88 109 23 88 109 23 86 108 24 86 108 24 84 110 24 85 109 25 84 110 25 84 111 26 85 112 27 86 115 27 87 117 28 86 117 27 88 119 30 88 118 29 87 118 29 87 118 29 87 118 29 87 118 29 87 118 29 87 118 29 87 118 29 87 118 29 87 117 29 87 117 29 87 117 29 87 118 29 87 118 29 87 119 30 88 119 30 88 118 29 87 
44 28 28 43 29 29 40 28 28 42 28 28 43 29 29 43 29 29 42 28 28 42 28 28 41 29 29 40 28 28 42 27 30 42 28 28 42 26 27 39 27 27 39 27 27 42 28 28 43 29 29 45 29 29 43 29 29 43 29 29 45 29 30 43 27 30 39 27 31 36 28 26 33 30 25 31 28 23 35 31 22 32 29 20 33 30 23 34 29 23 33 27 39 33 24 41 32 22 46 32 24 48 33 25 48 33 26 42 34 28 38 34 31 24 36 33 28 38 33 27 38 33 29 56 51 31 56 49 30 59 53 29 60 54 30 58 53 31 60 54 32 57 52 33 55 50 30 57 52 30 60 55 33 61 55 33 57 52 32 57 52 30 36 32 31 34 33 29 38 30 51 38 30 54 39 30 51 39 31 46 44 32 44 96 27 84 149 18 134 130 18 118 118 18 106 111 19 96 110 20 94 108 21 92 107 20 91 108 21 89 106 21 88 108 21 89 107 22 89 108 22 87 109 23 88 109 23 86 112 23 87 112 23 87 114 25 89 115 25 89 116 26 90 118 26 91 119 27 92 118 28 92 120 28 91 120 28 91 119 27 90 119 27 90 119 27 90 119 27 90 119 27 90 119 27 90 119 27 90 119 27 92 120 28 93 120 28 93 120 28 91 120 28 91 120 28 91 120 28 91 
41 29 29 42 28 28 42 28 28 42 28 28 42 26 27 42 26 27 41 27 27 41 27 27 41 27 27 41 27 27 39 27 29 37 25 25 41 27 27 41 27 27 40 26 26 42 26 29 42 27 30 42 26 27 42 28 28 42 28 28 43 29 29 40 26 26 40 25 30 36 28 26 31 27 26 31 28 23 31 28 21 32 29 24 31 28 23 31 28 23 30 26 40 30 26 43 34 24 49 33 23 48 32 24 48 32 24 45 32 24 37 32 28 25 30 29 24 33 29 26 33 29 26 57 51 29 58 52 30 59 53 29 59 53 29 60 54 32 59 53 29 55 53 30 57 50 32 59 51 32 61 55 33 61 55 33 60 54 32 59 54 34 36 32 29 35 32 27 38 29 48 37 29 53 38 28 52 38 31 47 35 32 39 37 33 30 105 25 96 142 18 130 130 18 120 119 19 109 111 18 99 110 19 98 110 20 94 107 19 93 107 19 93 107 20 91 108 21 90 111 21 91 111 21 91 111 22 90 111 24 92 112 23 91 112 25 93 115 24 93 115 24 93 118 25 95 117 26 95 117 26 95 118 25 95 118 25 95 118 25 95 118 25 95 118 25 95 118 25 95 117 24 94 119 23 94 117 25 92 117 25 92 118 25 95 118 25 95 119 26 96 118 25 95 119 26 96 118 25 95 
42 28 28 43 27 28 43 27 28 42 26 27 41 32 35 42 33 36 41 32 33 41 32 33 40 31 32 40 31 32 40 30 31 39 29 28 40 28 28 39 27 29 40 26 26 40 26 26 39 27 27 40 26 26 41 27 27 41 26 29 43 27 27 42 27 30 41 26 29 35 25 34 31 22 39 31 22 39 32 24 39 32 24 39 31 22 39 32 23 40 33 23 48 32 22 47 32 22 49 33 24 55 33 23 50 32 22 47 33 23 47 33 24 41 32 26 36 33 29 26 32 28 27 51 44 28 50 45 26 60 54 30 61 55 31 53 51 30 53 48 29 53 48 29 51 46 27 53 51 28 60 56 31 61 55 33 57 50 31 57 50 32 36 33 28 36 33 28 37 30 48 37 29 53 38 28 52 38 28 53 38 31 49 37 31 45 49 29 57 122 20 119 148 16 135 133 18 122 122 17 110 113 18 102 110 17 98 109 18 97 107 19 95 109 18 95 107 19 93 107 19 93 110 20 94 111 21 93 112 20 93 113 21 94 116 22 96 116 22 96 117 23 97 119 23 97 118 21 98 115 23 96 119 23 97 119 23 97 119 23 97 119 23 97 119 23 97 120 24 98 120 24 98 120 24 98 119 23 97 119 23 97 118 22 96 117 23 97 115 21 95 117 23 97 116 22 96 116 22 96 
43 27 28 42 28 28 42 26 26 43 27 28 38 36 39 40 35 39 39 34 38 40 34 36 39 33 35 40 31 34 39 30 31 39 29 30 38 28 27 39 27 29 41 26 29 41 27 27 40 26 26 41 27 27 40 26 25 41 27 27 40 26 26 41 26 29 41 26 29 35 22 39 30 21 50 31 21 48 32 22 47 32 22 47 30 21 48 31 22 49 32 21 51 32 21 51 33 22 54 32 23 52 33 22 52 33 23 50 32 23 52 33 22 54 33 25 46 32 28 27 32 28 27 46 40 28 46 40 26 59 53 31 61 55 29 53 48 28 49 43 27 50 44 28 50 44 28 54 49 30 61 55 31 59 55 30 52 46 30 53 48 29 35 32 27 35 32 27 37 28 47 37 27 54 36 27 54 37 28 57 38 27 57 40 27 55 39 29 56 63 27 75 122 20 120 149 17 139 140 16 130 126 16 115 121 18 110 115 17 104 111 18 99 111 18 98 111 18 98 110 19 98 110 19 96 110 18 95 111 20 97 113 21 98 115 21 99 115 21 99 118 21 100 116 22 98 116 22 100 116 22 100 116 22 100 116 22 100 116 22 100 117 23 101 117 23 101 120 23 102 120 23 102 120 23 102 118 24 102 117 23 101 119 22 101 118 21 100 119 22 101 119 22 101 119 22 99 118 21 98 
41 27 27 42 28 28 41 30 34 40 31 32 41 39 42 42 40 43 43 38 42 43 38 42 43 38 42 41 36 40 42 36 38 42 36 38 44 35 38 43 34 35 42 33 34 41 32 33 41 32 35 39 25 25 37 25 27 41 27 27 41 27 27 41 27 27 41 26 29 36 23 40 30 21 50 30 21 52 31 21 48 31 20 50 30 21 48 32 23 50 31 20 50 32 22 49 35 22 52 33 22 54 33 22 54 32 23 54 32 23 54 33 22 54 33 23 50 33 25 40 32 25 41 38 34 25 39 35 26 46 40 26 45 41 29 41 39 26 39 37 25 40 36 25 41 37 26 43 39 27 49 43 29 48 42 30 42 38 27 43 39 27 35 29 39 35 29 41 36 28 52 37 26 56 37 26 56 36 27 58 36 27 58 36 27 56 37 28 55 38 28 55 43 28 59 103 21 105 147 17 139 145 16 134 137 17 127 130 17 121 124 16 115 123 18 110 119 19 109 116 18 103 115 20 104 117 19 102 117 19 104 119 19 107 120 20 106 122 19 108 123 21 107 123 21 107 121 21 107 121 21 107 121 21 107 121 21 107 121 21 107 121 21 107 121 21 107 123 21 107 123 21 107 123 21 107 121 21 107 121 21 107 121 21 107 123 21 107 123 21 107 123 21 107 123 21 107 123 21 107 
42 26 27 40 28 30 40 35 39 37 35 38 45 40 44 43 41 44 45 40 46 44 42 45 44 42 45 44 42 47 43 41 44 43 41 46 43 41 44 43 41 44 43 41 44 41 40 45 42 40 45 34 22 22 34 22 22 39 25 25 39 25 25 40 26 26 38 26 30 35 22 39 31 20 50 31 20 50 31 21 48 31 20 50 31 20 50 31 20 50 31 21 48 30 19 49 32 21 53 32 21 55 33 22 56 32 21 55 34 23 55 32 23 54 33 22 56 34 23 57 34 23 55 31 26 22 31 27 24 32 29 24 34 29 25 32 29 24 31 28 23 31 28 23 32 29 24 34 31 26 34 31 26 35 32 27 33 29 26 34 31 26 38 28 52 36 28 51 36 25 55 36 25 55 37 26 56 37 26 58 36 27 56 37 28 57 38 28 55 37 28 55 36 27 54 41 26 55 80 24 87 148 16 138 156 17 146 151 17 140 143 16 131 139 16 130 135 18 123 129 17 119 128 16 116 126 18 117 129 19 118 128 18 117 131 19 119 133 18 119 135 19 120 133 18 119 134 19 120 134 19 120 134 19 120 133 18 121 134 19 122 132 20 122 133 18 121 134 19 120 134 19 120 134 19 120 135 19 120 136 20 121 135 18 122 134 19 122 135 19 120 136 20 121 135 18 123 135 18 122 
42 26 29 42 30 32 41 36 40 42 37 43 43 41 46 43 41 44 44 42 45 44 42 45 44 42 45 46 40 44 43 41 44 42 40 45 42 40 43 44 42 45 43 41 44 40 39 44 41 40 45 34 22 22 33 21 21 39 25 25 39 25 25 40 26 26 39 24 27 33 20 37 30 19 51 30 19 51 31 20 50 30 19 51 31 20 50 31 20 50 31 20 52 31 20 52 33 19 54 31 20 54 32 21 55 33 22 56 32 20 56 34 23 57 34 23 57 34 23 57 34 23 57 32 24 37 32 26 38 32 27 34 30 27 36 32 26 38 33 25 36 34 26 37 34 27 35 34 27 35 35 28 36 34 29 36 34 28 38 34 29 36 35 27 51 36 26 51 35 24 54 35 26 55 35 26 55 36 25 55 36 25 55 37 26 56 36 25 55 35 26 55 38 29 58 37 27 52 37 27 52 44 27 59 81 25 88 107 21 110 135 19 130 142 17 135 149 17 139 156 17 144 154 15 142 153 17 143 153 17 141 153 17 141 154 18 142 153 17 141 153 19 142 154 18 142 154 18 142 155 19 145 155 20 141 155 19 143 157 18 143 157 18 143 157 18 143 157 18 143 158 18 143 157 18 143 157 18 143 158 19 148 157 18 145 158 18 143 159 18 146 159 18 146 159 18 146 159 19 144 
38 29 30 38 32 34 43 41 46 43 42 40 42 40 43 41 39 44 45 40 46 45 40 44 43 41 44 47 42 46 43 41 44 43 41 44 43 41 44 43 41 44 43 41 44 41 39 44 39 38 43 33 21 21 34 22 22 38 24 24 38 24 24 39 25 25 39 24 27 34 21 38 30 19 49 30 19 49 30 19 49 30 19 51 30 19 51 31 20 52 30 19 49 30 21 50 32 21 55 32 21 55 31 19 57 33 21 61 33 21 59 34 22 60 36 21 60 35 20 59 32 22 59 34 22 58 36 22 58 34 23 57 35 24 56 34 22 58 34 23 57 38 24 60 38 24 59 38 24 57 37 24 54 39 24 55 36 25 59 38 24 57 35 24 56 36 25 57 36 25 55 36 25 57 35 24 54 36 25 57 37 26 56 38 27 57 35 26 55 36 25 55 36 27 56 35 25 52 36 28 52 35 27 51 37 27 52 36 28 52 43 26 58 63 26 70 83 23 87 104 21 101 124 20 119 142 19 135 140 19 134 138 20 134 140 20 130 138 20 130 138 20 130 136 20 129 134 21 129 135 22 130 133 21 131 133 21 131 132 20 128 131 22 127 130 21 126 129 20 125 129 20 125 128 22 123 126 22 121 127 20 124 126 21 122 125 20 121 124 22 121 122 22 120 122 22 118 122 22 118 
39 30 33 41 32 35 42 40 43 41 39 42 40 38 41 40 38 41 41 39 42 41 39 42 44 39 43 42 40 43 43 41 44 42 40 43 42 40 43 43 41 44 42 40 43 40 38 43 40 39 44 33 21 21 33 21 21 38 24 24 40 24 25 40 24 25 39 24 27 34 21 39 30 19 51 29 18 50 30 19 51 30 20 47 30 19 51 31 20 52 31 17 50 31 20 52 31 20 54 33 19 54 32 20 58 32 20 58 33 21 59 34 19 60 34 20 56 33 21 61 35 23 59 34 22 60 32 20 56 36 22 58 36 22 57 35 21 56 34 22 58 35 23 59 35 24 58 37 23 58 36 22 55 37 23 56 38 24 57 37 23 56 35 24 56 36 25 57 35 24 58 35 24 58 36 25 59 37 26 58 35 26 57 35 26 55 35 26 55 36 25 57 36 25 55 34 25 52 35 26 53 35 27 51 35 25 50 37 27 51 36 28 52 36 27 48 33 28 48 37 28 49 46 26 54 56 24 63 53 26 61 52 26 61 52 26 61 52 26 61 52 26 61 52 28 60 52 28 64 50 28 66 53 28 68 52 27 67 52 27 67 50 28 66 49 27 63 48 26 62 48 26 62 47 28 60 47 25 61 47 25 61 46 27 59 45 26 58 44 27 59 44 27 59 46 27 57 46 27 57 
40 38 43 39 34 38 37 25 29 35 25 26 34 25 28 36 25 29 33 28 32 30 28 33 35 33 38 42 37 41 41 39 40 43 41 44 42 40 43 42 40 43 43 41 44 42 40 45 40 39 44 33 21 21 33 21 21 38 24 24 39 23 24 39 23 26 39 24 29 33 20 40 29 18 50 30 19 51 30 18 54 30 18 54 31 19 55 32 17 56 30 20 57 33 18 57 33 19 55 31 21 56 33 19 55 31 19 57 31 19 55 32 20 56 34 20 56 32 20 56 32 20 56 32 21 55 32 20 56 35 21 57 33 21 57 34 22 58 35 20 59 33 21 59 35 23 61 34 22 60 34 22 58 35 23 59 38 24 60 37 23 59 37 23 59 38 24 59 37 23 59 37 26 60 34 24 58 35 24 56 35 24 56 34 23 55 35 26 57 36 25 55 36 25 55 35 25 50 36 26 51 35 27 51 36 26 51 35 25 50 34 26 50 33 28 51 36 26 51 33 25 49 33 25 46 35 26 47 34 26 49 34 26 49 35 27 48 35 27 48 32 28 45 33 26 42 32 28 43 32 28 45 34 28 42 34 27 45 34 26 49 33 27 53 33 27 53 33 27 53 33 27 53 33 28 50 34 26 49 35 27 50 37 27 52 36 26 51 35 27 51 35 27 51 36 26 51 35 27 50 
39 37 42 40 35 39 36 24 26 34 23 27 35 24 28 34 25 26 29 27 32 29 26 33 35 33 36 41 36 40 40 38 43 43 41 44 42 40 43 42 40 43 42 40 43 41 39 44 40 39 44 32 20 20 32 20 20 38 22 23 38 22 23 38 22 25 39 23 26 33 20 38 28 17 51 29 18 52 29 17 53 32 18 54 31 16 55 29 17 55 33 18 57 31 19 57 30 18 54 32 17 56 30 18 54 32 18 54 33 19 55 31 21 56 31 19 57 31 19 55 34 20 56 35 21 57 32 21 55 32 21 55 34 20 56 34 20 56 36 22 58 36 21 60 35 20 59 34 22 60 35 23 61 33 21 59 35 20 59 38 23 62 38 22 59 37 22 61 37 23 59 37 23 59 35 24 58 34 23 57 34 24 59 35 24 56 35 24 56 35 24 56 36 25 55 34 24 51 33 24 53 34 25 52 37 27 52 33 24 51 36 26 51 33 25 49 34 26 50 34 26 50 34 27 45 34 26 47 33 25 49 34 26 49 34 26 49 34 26 47 32 28 45 30 28 41 31 27 41 32 25 41 31 27 41 33 26 44 33 25 48 32 26 52 34 25 54 34 25 52 33 27 53 34 26 49 34 26 49 36 28 51 36 26 51 35 27 50 34 26 49 35 25 49 35 25 50 33 25 49 
35 26 29 34 27 34 25 32 42 25 32 40 34 25 28 36 25 29 25 32 40 23 33 42 34 28 32 39 23 24 42 33 34 44 39 43 42 40 43 42 40 43 42 40 43 41 39 44 40 38 43 32 20 20 32 20 20 40 21 23 39 23 23 38 22 25 39 23 26 32 19 37 27 16 50 27 16 48 28 17 51 31 17 53 30 18 58 31 16 55 32 17 56 32 17 56 32 18 54 33 18 57 34 18 55 32 18 54 34 18 55 34 18 55 35 19 56 35 19 56 35 19 55 36 20 56 34 20 56 35 21 57 34 20 56 36 20 59 36 21 60 32 21 61 33 21 59 35 21 57 35 21 56 34 23 57 33 22 56 32 21 55 34 23 57 32 22 56 34 22 58 34 23 57 36 24 60 35 23 59 34 23 57 34 23 55 35 24 58 35 24 56 34 25 56 35 24 54 33 24 55 35 24 56 35 24 54 36 25 55 34 25 54 34 24 51 33 24 51 33 24 51 33 25 49 34 26 50 35 25 50 32 27 50 34 26 50 34 26 50 32 27 50 32 27 50 34 26 50 34 25 52 32 27 49 34 26 49 34 26 50 35 27 51 34 26 49 33 25 48 34 26 50 33 25 49 34 24 48 33 26 44 32 25 43 31 27 44 31 27 44 31 27 44 33 26 44 32 25 43 
34 25 28 32 27 33 24 31 41 24 31 39 35 24 28 35 24 28 24 31 39 23 31 42 33 27 31 40 24 25 41 32 33 42 42 44 42 40 43 42 40 43 42 40 43 41 39 44 40 38 43 31 19 19 33 19 19 38 19 21 38 22 23 38 22 25 38 22 25 32 19 37 27 16 50 27 16 50 30 15 54 30 16 52 29 17 57 29 17 57 29 17 55 32 17 58 32 17 56 32 17 56 33 17 56 33 17 54 33 18 57 34 18 55 34 18 57 35 19 56 34 18 54 35 19 56 34 20 56 35 21 57 35 21 57 35 19 56 34 19 58 35 20 59 33 21 59 32 20 56 32 20 56 33 21 57 33 22 56 32 21 55 33 22 54 34 23 57 35 23 59 34 23 57 35 23 59 34 22 60 35 23 59 33 24 55 34 23 57 34 23 55 34 23 57 34 23 53 33 22 52 34 23 55 35 24 56 34 23 53 34 23 55 34 24 51 33 24 51 33 25 49 34 24 51 34 24 49 34 24 51 34 26 50 33 25 49 34 26 50 33 25 49 35 25 50 34 26 50 34 26 50 33 25 49 33 25 46 33 25 49 34 26 49 34 26 49 33 25 49 33 25 48 33 25 48 34 26 49 33 25 48 30 25 45 32 25 43 33 24 43 32 24 45 30 26 41 32 25 43 
25 29 38 26 30 39 24 31 39 24 31 39 36 24 28 35 24 28 25 32 42 23 33 42 34 28 32 39 23 24 42 31 35 44 42 45 44 42 45 42 40 45 42 40 43 40 39 44 40 38 43 33 19 19 32 20 20 37 21 22 40 22 22 38 22 25 38 21 27 35 20 43 28 17 57 29 17 57 29 17 57 31 16 59 32 17 60 32 17 58 34 17 59 34 17 59 35 18 60 33 16 58 32 17 58 33 18 61 33 18 59 33 16 58 33 18 59 35 17 55 36 18 56 36 18 56 35 19 55 34 20 56 37 21 58 35 21 57 37 19 59 35 21 57 35 20 61 35 20 59 32 20 56 34 20 55 31 20 52 31 21 48 32 21 55 32 21 55 33 22 56 33 21 57 33 22 56 34 22 58 34 23 57 33 22 54 33 22 56 34 23 55 32 21 53 33 22 54 33 22 54 35 24 56 34 23 55 34 23 55 35 24 56 34 23 55 34 23 53 34 23 53 33 22 52 33 22 54 33 24 53 34 25 54 34 25 52 34 25 54 32 23 50 33 24 51 34 24 51 34 24 51 34 24 51 34 24 51 35 25 52 34 23 53 34 23 53 34 24 51 34 24 51 33 23 50 33 25 49 34 24 49 32 24 48 33 25 49 33 25 48 32 24 48 32 24 47 32 24 47 
23 31 42 22 32 42 23 32 39 24 31 41 35 23 27 33 24 27 24 33 42 24 35 41 32 25 32 38 22 23 40 31 34 42 42 44 42 40 43 42 40 43 41 39 42 39 38 43 39 38 43 31 17 17 30 18 18 36 20 20 38 22 23 40 21 25 37 20 26 34 18 44 31 14 58 31 15 60 29 16 59 28 15 59 32 16 61 31 16 59 34 15 60 34 15 60 36 18 60 36 17 62 33 18 61 32 17 60 33 16 60 32 17 60 33 16 58 35 17 55 35 17 55 35 17 57 36 18 56 34 18 55 34 18 55 34 20 56 36 18 58 36 20 59 36 19 61 35 19 56 33 19 54 31 20 54 31 20 50 31 20 50 31 20 54 31 20 54 32 21 55 32 20 56 33 22 56 32 21 55 33 22 56 34 23 55 33 22 56 33 22 56 33 22 54 33 22 56 33 22 54 33 22 56 32 22 56 35 24 56 34 23 55 34 23 55 35 24 58 34 23 55 34 23 55 33 24 55 34 23 55 34 23 55 32 23 50 33 22 52 34 24 51 34 24 51 34 24 51 33 24 51 33 24 53 34 25 54 33 24 53 33 24 53 33 24 53 33 24 51 33 24 51 32 24 48 34 26 50 32 24 48 31 22 49 32 24 48 32 22 47 32 22 47 31 26 49 34 24 49 
23 33 43 22 32 41 23 30 38 24 31 39 35 24 28 34 23 27 24 31 41 22 32 41 32 26 30 42 23 25 44 33 37 42 40 43 41 39 42 42 40 43 42 40 43 40 38 43 39 38 43 32 18 18 30 18 18 39 21 21 38 22 23 40 21 25 37 21 24 34 19 42 29 14 57 28 15 58 30 15 58 28 15 58 32 17 60 31 16 59 31 15 60 32 17 60 31 15 60 32 17 60 31 16 57 31 16 59 32 17 60 33 16 58 35 17 57 35 17 55 35 17 55 33 17 56 32 17 56 38 17 56 35 19 56 36 18 56 36 18 58 35 19 56 34 20 56 34 18 55 29 20 51 31 20 52 30 19 49 29 18 48 31 20 54 32 21 55 32 20 56 32 20 56 32 21 55 32 21 55 32 21 55 33 22 56 33 22 54 34 23 57 33 22 56 33 21 57 34 23 57 33 22 56 33 22 56 34 23 57 34 23 57 34 23 57 35 24 58 34 23 57 35 24 56 34 23 55 34 23 55 34 23 57 34 23 55 34 23 57 34 23 55 34 23 55 34 23 53 33 24 53 33 23 50 34 23 53 33 22 54 34 23 53 34 23 53 34 23 53 35 24 54 34 24 49 32 23 50 33 23 50 32 24 48 31 26 49 33 23 48 33 23 50 33 23 50 33 23 50 
23 33 43 23 33 43 23 30 38 23 30 38 33 23 24 33 22 26 23 30 40 21 31 41 32 26 30 39 23 24 41 32 33 44 39 43 42 40 43 41 39 44 41 39 42 40 38 43 39 38 43 32 18 18 30 18 18 39 20 22 39 21 21 39 20 24 39 20 24 33 18 41 30 15 56 29 14 57 29 14 55 28 13 54 30 15 54 30 15 58 30 15 58 29 16 59 29 16 60 31 16 59 31 15 60 31 15 60 31 16 57 32 16 55 34 16 54 35 17 57 35 17 57 31 16 55 33 15 55 37 16 55 36 18 56 36 18 56 36 18 56 34 18 55 32 18 53 31 19 55 30 19 49 30 19 49 30 19 51 30 19 49 31 19 55 31 20 54 31 19 55 31 19 55 32 20 56 32 20 56 32 20 56 32 20 56 32 21 55 32 20 56 33 22 56 33 21 61 33 21 57 33 21 57 33 22 56 33 21 57 35 23 59 36 22 58 36 22 58 34 23 57 33 22 56 34 23 57 33 23 58 32 22 57 32 22 56 33 23 58 33 23 57 33 23 57 34 23 55 32 21 51 34 23 53 32 21 51 33 22 52 33 22 52 33 22 54 32 21 53 32 21 53 32 22 49 32 22 47 32 22 49 32 22 47 32 22 47 32 22 47 31 23 47 31 23 47 32 24 48 
20 33 42 21 31 41 23 29 41 23 30 38 34 23 27 33 22 26 24 27 34 23 28 34 33 28 32 39 27 29 42 33 36 42 40 45 42 40 43 41 39 44 41 39 42 38 37 42 37 36 41 31 17 17 31 17 17 37 18 20 39 20 22 40 21 23 39 20 24 34 16 40 30 15 56 30 15 58 29 14 55 28 13 54 29 14 57 30 15 56 30 15 58 28 13 56 29 14 57 30 15 58 30 15 58 30 15 58 30 15 58 31 16 55 32 16 55 32 15 57 32 16 55 31 16 55 33 18 59 33 17 56 33 17 54 33 17 53 33 17 54 33 17 54 33 17 54 30 18 54 30 19 53 29 18 52 29 18 50 29 18 48 30 18 54 30 19 53 31 19 55 31 19 57 31 19 55 31 19 55 33 19 55 31 19 55 32 20 56 31 21 58 32 21 55 32 20 58 32 20 56 33 21 59 33 21 57 34 22 58 34 22 58 34 23 57 35 23 59 33 21 57 33 22 56 33 22 56 34 22 58 34 22 58 35 24 58 34 23 57 34 23 57 34 23 57 32 23 54 32 23 52 33 22 52 33 22 54 33 22 54 33 22 54 33 22 54 33 22 52 33 22 54 32 21 51 33 22 52 33 22 52 33 23 50 33 23 50 31 22 49 31 22 49 31 22 51 31 22 49 
20 33 42 22 30 41 22 29 37 22 29 39 32 23 26 33 22 26 25 24 30 25 24 30 34 29 35 40 31 36 40 35 39 41 39 44 42 40 43 40 38 41 40 38 41 39 37 42 39 37 42 32 18 18 31 17 17 38 20 20 38 20 20 39 21 21 39 18 23 34 16 40 26 13 56 29 14 57 29 14 57 30 13 57 29 14 55 29 14 57 29 14 57 29 14 57 30 15 58 30 15 54 29 13 58 30 15 56 29 14 55 28 16 54 30 15 54 30 15 56 29 17 57 28 16 56 28 16 54 29 17 53 30 16 52 31 17 53 30 16 52 30 15 54 32 18 54 29 17 55 28 16 52 33 17 54 29 18 50 29 18 48 29 18 52 29 18 52 30 18 54 29 17 55 29 18 52 31 19 55 33 18 57 31 19 59 32 20 58 32 22 59 32 20 58 31 19 57 32 20 58 33 21 59 35 20 59 35 20 59 35 21 57 36 22 58 37 23 59 36 22 58 35 21 57 35 21 57 33 21 57 35 24 58 34 22 58 34 22 58 34 22 58 33 21 57 31 21 55 31 22 51 32 21 53 32 21 53 32 21 53 33 22 54 33 22 54 32 21 51 32 21 53 33 22 54 31 22 53 32 23 54 33 22 54 32 21 51 32 23 52 31 21 48 31 20 50 31 21 48 
22 29 37 23 30 38 21 28 38 22 29 37 34 22 24 34 22 26 29 22 30 30 23 31 36 30 34 39 33 37 38 36 39 41 39 44 42 40 43 42 40 43 43 38 42 39 37 42 39 37 42 32 16 17 30 16 16 37 19 19 37 18 20 39 19 20 39 19 21 31 18 35 23 16 47 25 15 50 29 15 50 30 14 51 28 13 56 29 13 58 30 14 59 29 14 57 29 14 55 29 14 55 30 15 54 30 15 58 28 16 56 29 14 53 27 15 53 28 16 56 30 15 56 27 15 55 30 15 56 29 15 51 27 16 50 27 16 50 30 16 52 30 16 52 30 16 52 29 17 53 30 15 54 29 17 53 28 17 51 29 18 52 30 18 54 30 18 54 30 18 54 30 18 54 30 18 54 32 20 58 33 18 57 31 19 59 31 19 59 31 21 58 34 22 60 32 20 60 32 20 60 32 20 58 34 19 58 34 19 58 35 20 59 36 22 58 36 22 58 35 21 57 35 21 57 35 21 57 33 21 57 32 20 56 35 21 57 33 22 56 33 22 56 32 20 56 31 21 55 31 21 55 31 20 52 33 22 56 32 21 55 32 21 55 32 21 55 32 21 51 32 21 53 32 21 55 32 21 53 32 23 54 32 21 53 31 20 52 31 22 51 30 19 49 30 20 47 30 20 47 
28 22 26 26 23 30 23 27 36 22 26 35 35 20 23 36 20 23 39 23 24 40 21 23 42 33 36 44 39 45 41 39 42 41 39 44 42 40 43 41 39 44 41 39 42 39 37 42 39 37 42 32 16 17 30 16 16 37 18 20 38 20 20 38 19 21 37 21 22 24 22 23 14 25 27 19 24 28 32 19 36 31 17 40 26 13 56 27 11 56 28 13 56 28 13 56 28 13 54 29 14 53 28 13 52 26 14 50 26 14 50 28 14 50 26 14 52 29 14 53 29 14 53 28 14 50 29 15 50 26 17 48 28 14 50 29 15 50 27 16 48 26 15 49 27 16 50 31 15 52 30 15 56 30 15 54 29 17 55 29 17 55 29 17 55 30 18 54 30 18 54 29 17 55 29 17 57 30 18 58 32 17 56 31 19 59 32 19 62 30 20 57 32 20 60 31 19 57 32 20 60 30 18 58 31 21 58 31 19 57 31 19 57 32 20 58 34 22 58 33 21 59 32 20 58 31 21 56 33 21 57 31 19 55 32 20 58 32 20 58 32 20 56 31 19 57 31 21 56 31 21 56 31 19 55 32 20 56 32 21 55 32 20 56 32 20 56 31 20 54 31 20 52 32 21 55 31 20 52 31 20 52 31 20 54 31 20 52 32 21 53 31 20 50 34 21 51 30 21 48 
30 24 28 28 23 29 23 26 33 24 27 36 36 20 23 36 21 24 38 23 26 39 23 26 41 35 39 43 41 44 42 40 43 41 39 42 41 39 42 41 39 42 40 40 42 40 38 43 39 37 42 30 16 16 30 16 16 37 19 19 38 20 20 38 20 20 36 17 19 24 22 23 12 26 27 17 22 26 31 20 36 30 18 38 27 15 55 26 14 54 29 14 55 29 14 55 28 13 54 26 14 54 25 13 51 28 14 50 26 14 50 27 13 49 26 14 50 25 13 53 27 15 53 27 15 51 28 14 50 27 15 51 26 15 49 25 14 48 26 15 49 27 15 51 27 15 51 28 16 52 28 16 54 28 16 54 28 16 54 31 16 55 29 17 55 29 17 55 30 18 56 29 17 55 31 19 57 29 17 57 30 17 60 30 18 58 34 19 60 34 19 60 31 19 59 31 19 59 31 19 59 31 19 57 31 19 57 30 20 57 31 21 58 32 20 58 32 20 58 32 20 56 32 20 56 31 19 59 32 20 60 31 19 57 31 19 57 32 20 58 31 19 55 31 19 55 32 20 56 31 19 55 29 17 53 31 19 55 31 19 55 31 20 54 30 19 53 30 19 51 30 19 51 31 20 52 31 20 52 30 19 51 30 19 53 29 20 51 31 20 52 30 19 51 31 20 50 29 18 48 
37 35 38 40 31 36 38 23 26 39 25 25 38 32 36 37 31 35 41 39 44 44 39 43 41 39 42 42 40 43 41 39 42 41 36 42 40 38 41 43 38 42 40 38 41 38 36 41 40 35 41 30 14 15 29 15 15 36 18 18 39 19 20 38 18 20 37 18 20 22 23 25 12 29 23 12 28 27 12 26 26 12 26 26 13 23 25 13 23 25 31 20 36 31 20 34 28 14 47 28 13 52 27 13 49 25 13 49 24 12 48 25 13 49 25 13 51 26 14 52 28 14 50 26 14 52 27 15 53 26 14 50 26 15 49 26 14 50 28 14 49 29 15 51 29 15 51 27 15 53 30 15 54 28 16 54 30 15 56 31 16 55 29 17 53 29 17 55 29 17 55 28 16 54 28 16 54 28 16 52 28 16 54 29 17 53 30 18 54 31 19 57 30 18 56 30 18 58 29 18 58 29 18 58 30 18 56 29 19 54 29 19 54 30 18 56 30 18 56 31 19 57 31 19 57 30 18 58 33 21 61 31 19 57 31 19 55 31 19 55 30 18 54 31 20 54 30 19 53 30 19 53 30 19 53 31 20 54 31 20 54 29 19 53 30 19 53 30 19 51 29 20 51 30 19 53 30 19 53 30 19 51 31 20 54 30 19 53 30 19 51 30 19 49 30 19 49 29 18 50 
39 34 40 37 31 35 38 24 24 38 24 24 37 31 35 36 30 32 43 38 42 43 41 46 41 39 42 41 39 44 40 38 43 40 38 41 41 39 42 42 40 43 41 39 42 38 37 42 40 38 43 31 15 16 30 16 16 36 18 18 38 19 15 38 18 20 37 18 20 23 23 23 12 28 27 11 27 26 12 28 27 12 26 26 13 23 25 12 23 25 32 20 34 32 20 34 29 14 45 27 12 53 25 13 49 27 13 49 27 11 48 27 13 49 27 12 51 28 13 52 27 12 51 26 14 52 29 15 51 26 14 50 25 14 48 26 14 50 26 15 49 26 14 50 27 15 51 25 15 52 27 15 53 29 17 57 28 16 56 28 16 54 28 16 54 28 16 56 29 17 55 28 16 54 28 16 54 29 17 55 28 16 52 29 17 53 30 18 56 30 18 58 30 18 58 29 17 57 28 16 56 29 17 57 29 17 57 29 19 56 29 19 56 30 18 56 31 19 55 30 18 54 31 19 57 31 19 57 31 19 57 31 19 57 30 18 56 31 19 55 31 19 55 30 19 53 30 19 53 30 19 51 30 19 53 31 20 54 29 18 52 31 20 52 29 18 52 30 19 51 29 18 52 29 18 52 30 19 53 31 20 54 30 19 53 29 18 50 29 19 53 30 19 53 29 18 50 29 18 50 
40 38 41 41 39 42 42 37 41 42 37 41 42 37 43 40 38 43 40 38 43 43 38 44 40 38 41 40 38 41 42 37 41 40 38 41 41 39 42 40 40 42 41 39 42 38 37 42 37 36 41 28 14 14 29 15 15 37 17 18 37 17 18 37 19 19 38 19 21 23 23 23 10 26 26 11 27 27 11 27 26 12 26 27 12 26 26 9 25 25 12 26 27 14 25 27 12 26 27 13 27 30 24 21 32 30 19 36 29 17 41 26 11 50 28 12 49 25 13 49 24 12 50 25 13 49 27 13 49 26 14 52 28 13 54 26 14 54 28 13 54 26 14 52 29 14 53 28 13 52 27 15 55 27 15 55 29 14 53 27 15 53 28 16 54 28 16 56 30 15 54 29 17 55 27 15 53 27 17 54 28 16 52 28 16 54 28 16 54 29 17 55 29 17 57 27 17 54 28 16 52 28 16 54 29 17 55 30 18 56 28 16 54 29 17 55 29 17 57 29 17 57 30 18 58 31 16 55 29 17 55 29 17 55 30 18 56 30 18 56 30 18 54 30 19 53 30 19 53 29 17 53 30 19 53 30 19 53 30 19 53 31 20 54 29 18 52 30 19 53 29 18 52 29 17 53 30 19 53 30 19 53 30 19 53 31 20 54 30 19 53 31 19 55 29 18 52 30 19 53 
41 39 42 42 37 41 43 38 44 42 37 41 41 39 42 44 37 44 42 40 45 43 38 44 43 38 44 42 37 43 41 39 42 43 38 42 40 40 42 43 38 42 43 38 42 39 37 42 41 36 42 30 14 15 30 14 15 36 16 17 38 18 20 37 19 19 34 18 18 23 21 24 10 26 26 10 26 26 9 25 25 10 26 26 10 26 26 11 25 26 11 27 26 9 27 27 12 26 26 13 29 28 21 24 29 32 20 34 28 18 42 24 12 50 24 12 50 24 12 48 24 12 48 24 12 50 24 12 48 27 12 51 26 14 54 26 13 56 28 13 56 25 13 51 27 13 49 27 12 51 26 14 54 26 14 54 29 14 55 27 15 55 25 13 53 27 15 53 28 16 56 28 16 56 30 15 54 30 15 54 28 16 54 28 16 54 28 16 56 27 15 53 28 16 54 28 18 55 27 17 54 26 16 53 27 15 51 29 17 53 29 17 53 29 17 55 30 18 58 29 16 59 30 18 58 32 17 58 30 18 56 29 17 57 29 17 55 30 18 54 29 17 53 29 17 53 29 18 52 29 17 53 28 16 52 30 18 54 29 18 52 29 18 52 29 18 52 29 18 52 28 17 51 29 17 53 31 17 53 31 17 52 30 19 53 28 18 52 27 15 51 29 18 52 31 17 52 31 17 52 
41 39 44 43 41 44 42 40 45 44 39 45 39 35 36 41 35 39 42 37 41 41 39 42 42 40 43 42 37 41 43 38 42 41 36 42 41 39 42 43 38 42 41 39 42 37 36 41 38 36 41 29 13 14 31 12 14 36 16 17 36 16 18 37 19 19 37 18 20 23 21 24 10 24 25 10 24 25 10 26 26 11 27 27 10 26 25 10 26 25 8 27 25 11 27 26 12 26 26 11 27 26 13 28 25 15 25 27 16 23 33 14 20 32 19 21 33 28 16 36 28 16 36 25 12 55 26 10 55 28 13 56 28 13 56 27 12 55 29 14 55 29 14 55 26 13 56 29 14 57 26 13 56 26 13 56 28 13 54 26 13 56 27 15 55 27 15 55 27 15 53 28 16 56 27 15 53 26 14 52 27 15 53 29 17 55 28 16 54 27 15 53 27 15 53 28 16 54 28 16 54 27 15 55 28 16 56 29 17 57 28 16 56 29 17 57 29 17 57 29 17 57 29 17 57 29 16 59 28 16 56 29 17 57 30 18 58 30 18 58 29 17 55 30 18 56 29 17 53 29 17 53 28 18 53 28 18 53 28 18 53 30 19 53 28 18 52 28 18 52 29 18 52 29 19 53 28 17 51 29 17 53 29 18 52 29 18 52 29 18 52 31 17 52 31 17 53 32 17 56 
41 39 44 41 39 44 41 39 44 41 39 42 41 35 37 41 35 39 40 38 39 40 40 42 40 38 43 42 40 43 43 38 44 41 39 44 41 39 42 41 39 42 41 39 42 37 36 41 38 37 42 29 13 14 29 13 14 35 15 16 36 18 18 37 17 18 35 17 17 24 19 23 8 22 25 10 24 27 11 27 27 10 26 26 11 27 26 10 26 25 8 28 26 11 27 26 8 27 25 10 26 25 10 26 25 11 27 27 11 27 27 13 24 26 14 21 27 30 17 34 30 18 32 25 12 56 25 12 58 28 11 55 27 12 55 28 13 56 27 12 55 28 13 54 28 13 56 26 14 54 28 13 56 26 13 56 26 13 56 26 13 56 26 13 56 27 15 55 27 15 55 27 15 55 26 15 55 27 15 55 27 15 55 27 15 55 27 15 53 28 16 54 28 16 54 27 15 53 27 15 53 31 16 57 28 15 58 28 15 58 29 16 59 29 16 59 29 16 59 29 16 59 29 16 59 28 16 56 29 17 57 29 16 59 29 16 59 28 16 56 29 17 57 29 17 57 29 17 55 27 15 51 27 15 51 28 16 52 29 18 52 27 15 51 29 18 52 27 15 51 28 17 51 28 16 52 28 16 52 28 16 52 27 16 50 28 17 51 27 16 50 31 17 52 30 16 52 31 17 52 
40 38 43 39 34 40 32 30 35 31 28 35 35 25 33 35 26 31 33 27 31 33 28 32 39 34 40 41 39 44 41 38 45 41 39 42 41 39 42 43 38 42 43 38 42 39 37 42 38 36 41 28 12 13 29 13 14 36 14 16 39 17 20 37 17 18 36 16 18 23 18 22 7 22 25 8 23 26 8 24 24 8 24 24 8 26 28 8 26 26 9 28 26 8 27 25 10 26 26 11 27 26 11 30 28 14 30 29 13 29 28 12 26 26 11 25 25 19 22 29 17 22 28 18 19 39 17 20 37 27 17 44 30 17 45 29 14 53 26 10 55 28 12 57 28 13 56 26 14 54 25 12 55 26 14 54 26 11 54 29 14 57 26 13 56 26 13 56 27 15 53 27 12 53 26 14 54 26 14 54 28 13 54 27 15 55 26 14 54 26 14 54 27 15 55 27 15 55 26 14 54 27 15 55 28 16 54 30 15 56 30 15 58 30 15 56 30 15 54 29 17 57 28 15 58 30 15 54 28 15 58 28 16 56 28 16 56 28 16 56 29 17 57 30 18 58 28 16 56 28 16 54 28 16 52 27 15 51 29 17 53 28 16 52 29 17 53 27 15 51 28 16 52 28 16 52 28 17 49 31 17 53 30 16 51 30 16 52 32 16 52 32 16 52 33 17 53 33 17 53 
41 39 42 40 35 41 27 20 27 27 22 28 28 22 26 29 20 25 29 19 27 29 19 27 37 32 38 42 40 45 44 39 45 40 38 43 40 38 43 40 38 43 41 39 44 38 36 41 38 36 41 29 13 14 28 12 13 36 16 17 37 17 18 36 16 17 36 18 18 21 19 22 8 23 26 9 23 26 10 24 27 9 23 26 8 26 26 7 26 24 6 25 23 10 26 25 10 26 26 10 26 26 12 31 27 14 35 30 12 31 29 10 26 25 9 25 25 10 24 25 11 25 26 12 23 25 13 24 26 28 17 34 30 18 38 28 14 50 28 12 59 25 12 58 27 12 55 27 12 55 27 12 55 26 14 54 26 13 56 28 13 56 25 12 55 25 12 55 27 15 55 27 12 55 25 12 55 25 12 55 26 15 57 26 14 54 26 14 54 27 15 55 26 14 54 26 14 52 27 15 53 26 14 54 27 15 55 26 14 54 27 15 55 28 16 56 30 15 56 28 15 58 27 14 57 29 16 59 28 15 58 28 15 58 28 16 56 27 15 55 29 17 57 28 16 56 29 17 57 27 14 57 28 16 56 27 15 51 29 15 51 27 15 53 25 15 50 26 14 50 27 15 51 26 14 50 28 16 52 29 15 50 29 15 51 30 14 51 32 15 51 31 17 52 33 15 53 32 16 53 
40 35 41 36 34 39 20 25 31 22 25 32 29 20 25 31 20 26 26 21 27 26 21 27 37 32 38 41 39 44 42 40 45 42 37 43 40 38 43 41 39 44 41 39 44 38 36 41 39 37 42 29 13 14 28 12 13 35 15 16 35 15 16 37 15 17 35 17 17 21 19 22 8 22 25 8 22 25 7 22 25 8 23 26 9 25 25 7 25 25 7 27 25 8 27 25 9 25 25 9 25 24 14 30 30 18 37 31 16 32 31 10 26 26 10 26 26 9 25 25 9 25 25 10 26 26 10 26 26 22 22 32 21 21 31 20 18 39 20 17 46 24 17 50 28 17 49 27 15 51 25 12 55 27 12 55 26 13 56 27 12 55 28 13 56 26 13 56 28 13 56 28 13 56 25 12 55 27 12 53 25 13 53 28 13 56 28 13 54 26 14 54 28 13 54 27 15 55 26 14 54 26 14 54 26 14 54 26 14 52 27 15 55 29 14 55 27 14 57 27 14 57 27 14 58 28 15 59 28 15 58 30 15 56 29 14 57 28 16 56 31 15 54 30 15 56 30 15 56 28 16 56 27 15 55 27 15 51 29 15 51 27 15 51 27 15 51 29 15 51 27 15 51 27 15 51 29 14 53 30 16 52 30 16 52 32 15 51 32 16 53 32 16 52 34 17 53 33 15 55 
37 28 33 31 29 34 17 29 43 17 29 43 28 19 24 30 19 25 23 23 33 21 24 33 34 33 39 40 38 41 40 38 43 39 34 38 42 37 43 40 38 43 41 39 44 39 37 42 39 37 42 29 13 14 28 12 13 35 15 16 36 16 17 36 16 17 36 18 18 21 19 22 8 22 25 8 22 25 7 21 24 7 21 24 8 22 23 8 22 25 9 25 25 9 25 25 9 25 25 9 25 24 13 32 30 22 41 37 15 36 31 9 28 26 11 27 26 10 29 27 10 26 25 11 25 25 8 27 25 9 28 26 11 25 25 10 24 24 12 26 27 22 25 34 33 22 38 29 19 44 27 11 56 29 11 59 27 12 55 25 12 55 27 12 55 28 13 56 27 11 56 27 12 51 26 14 54 25 12 55 25 13 53 27 12 55 26 13 56 26 14 52 28 13 56 29 14 57 30 14 59 30 15 58 31 16 59 28 13 56 26 14 54 27 14 57 30 15 58 29 14 57 29 14 57 28 15 58 28 15 58 29 13 58 27 14 57 28 15 58 30 15 54 31 15 54 27 15 53 30 14 53 30 15 54 27 15 51 26 14 50 28 13 52 26 16 53 29 15 51 27 15 51 30 16 52 31 15 52 31 15 52 33 16 52 32 14 52 33 16 52 34 16 54 32 15 51 32 14 52 
37 26 30 30 28 33 17 29 43 16 28 40 30 19 23 28 19 24 23 22 30 24 23 31 34 33 39 40 38 43 42 37 43 40 38 43 40 38 43 43 38 44 43 38 44 38 36 41 36 35 40 28 12 13 29 10 12 35 15 16 37 15 17 36 16 17 35 15 16 22 17 21 6 20 23 7 21 24 7 21 24 7 21 24 8 23 26 7 22 25 9 25 24 7 26 24 8 24 24 9 25 25 12 31 25 17 38 31 14 33 29 10 26 26 10 26 26 8 27 25 7 26 24 9 28 26 10 26 25 10 26 23 10 26 25 10 26 25 11 25 25 18 26 29 30 29 37 28 25 44 26 19 50 26 19 50 25 15 50 26 14 50 28 12 57 27 11 56 27 12 55 27 12 55 25 13 53 27 12 51 24 12 52 25 13 53 26 14 54 25 13 51 25 13 53 30 15 58 29 14 57 29 14 57 30 15 58 29 14 55 26 14 54 29 14 57 30 15 58 30 14 59 30 15 58 30 15 58 30 15 58 31 14 56 31 16 59 31 16 59 32 15 57 32 16 55 30 15 56 29 14 55 29 14 53 28 16 54 29 15 51 27 15 53 29 14 53 28 16 54 29 14 53 30 15 54 30 15 54 31 13 51 32 14 52 31 15 52 34 13 52 35 14 55 35 14 55 36 16 51 
33 24 29 28 26 31 17 29 41 17 29 41 30 19 25 29 18 24 25 18 25 25 18 25 36 31 37 41 39 44 44 39 45 42 37 43 40 38 43 43 38 44 43 38 44 38 36 41 37 35 40 29 10 12 30 11 13 35 15 16 37 15 17 36 16 17 35 17 17 20 18 21 6 20 23 7 21 24 5 19 22 6 20 23 9 20 22 7 21 24 7 23 23 5 25 24 7 25 25 7 25 25 7 26 24 7 25 25 7 26 24 7 26 24 7 25 25 10 26 25 10 24 24 10 26 25 10 26 23 9 25 24 10 26 23 11 27 26 9 28 24 14 34 25 25 41 31 26 42 32 29 45 34 30 41 35 28 20 33 30 20 31 26 11 54 27 10 55 27 12 55 27 12 53 25 13 53 26 11 54 26 11 50 24 12 48 25 13 51 25 13 49 25 13 51 26 13 56 25 12 55 25 12 55 26 13 56 26 14 54 26 13 56 32 14 54 33 15 57 33 15 57 38 15 59 38 17 60 36 15 58 34 16 58 35 17 59 36 15 58 35 17 57 34 16 58 34 16 56 32 15 59 28 13 56 29 14 57 30 13 55 29 14 53 28 13 54 29 14 57 28 13 56 30 15 54 31 14 56 29 14 53 29 14 53 30 14 53 29 15 51 35 13 51 44 14 52 44 14 52 
31 25 29 27 26 32 16 28 42 16 28 40 29 18 24 29 18 24 27 20 27 26 19 26 36 31 37 40 39 44 41 39 44 42 37 43 43 38 44 41 39 44 40 38 43 38 36 41 38 36 41 29 10 12 29 10 12 35 13 15 38 13 16 36 14 16 35 15 16 19 17 20 6 20 23 7 21 24 8 22 25 7 21 24 6 20 21 6 20 23 7 23 23 6 24 24 6 24 24 9 25 25 8 26 26 6 26 24 7 25 25 7 25 25 7 25 25 9 25 25 9 25 25 10 26 25 7 26 24 7 25 25 10 26 23 10 26 23 11 26 23 18 33 26 23 40 32 24 41 31 30 43 34 29 42 33 28 20 33 28 20 33 27 11 58 24 11 54 27 11 56 27 12 55 27 12 55 26 11 50 25 13 53 24 12 48 23 11 49 24 12 50 24 12 52 24 12 52 24 11 54 26 13 56 28 13 56 25 12 55 25 12 55 30 13 55 31 15 54 33 15 57 38 15 59 37 14 58 33 15 57 33 14 59 37 15 61 34 16 58 35 17 59 35 14 57 32 14 56 31 14 58 31 14 56 29 14 57 30 13 55 29 14 55 27 15 55 31 14 58 29 14 57 29 14 53 30 13 55 28 14 50 29 14 53 28 13 52 29 14 53 36 14 53 42 14 52 45 13 54 
36 25 29 32 27 33 16 26 38 15 27 39 31 16 19 31 15 18 37 25 27 37 27 28 39 33 37 42 37 41 43 38 42 41 39 44 43 38 44 43 38 44 43 38 44 38 36 41 36 35 40 28 12 13 30 11 13 37 12 15 36 14 16 36 14 16 35 15 16 19 17 20 5 19 22 6 20 23 8 19 23 8 19 23 7 21 24 6 20 23 7 21 24 7 21 22 7 21 24 6 21 24 7 22 25 7 23 22 8 24 24 8 23 26 5 23 25 8 24 24 8 24 24 9 25 25 8 24 24 10 26 25 8 24 23 9 28 24 11 28 20 12 29 21 14 29 22 12 29 19 10 27 19 10 27 17 9 29 17 9 31 18 12 29 19 11 28 18 23 21 32 27 19 34 25 14 44 23 11 51 22 12 49 23 11 47 23 11 47 23 11 47 23 11 49 27 12 55 27 12 55 27 12 55 25 13 53 25 12 55 27 12 53 25 12 55 27 12 53 30 13 55 42 17 57 43 18 58 40 17 59 41 16 58 38 15 57 39 16 58 44 19 58 46 21 61 42 20 59 41 21 58 36 15 56 30 13 57 30 13 57 29 12 57 30 13 57 31 12 57 30 13 57 34 13 56 35 14 57 38 13 55 39 13 58 38 13 55 38 13 53 40 14 53 42 14 52 44 14 52 
35 29 31 32 27 33 15 27 39 15 27 39 31 15 18 31 15 16 37 25 27 38 26 28 39 34 38 41 36 42 43 38 44 41 39 42 43 38 44 43 38 44 42 37 43 38 36 41 37 35 40 29 10 12 29 10 12 34 14 15 38 13 16 36 14 16 35 15 16 18 16 19 6 20 23 6 20 23 6 20 23 4 19 22 6 20 23 5 18 24 5 19 22 5 20 23 6 21 24 7 21 24 8 22 25 7 22 25 7 21 24 7 22 25 7 23 23 7 22 25 7 22 25 9 25 25 8 24 24 9 25 22 8 24 24 9 25 22 9 28 22 12 29 19 12 29 19 9 29 18 10 28 16 10 27 17 10 30 19 11 31 19 12 27 20 11 28 18 21 21 29 28 20 35 24 13 43 22 10 50 22 10 48 23 11 47 24 9 48 25 11 47 24 12 50 26 11 54 26 9 53 25 12 55 25 12 56 25 13 53 26 10 55 24 12 52 25 12 55 31 13 55 39 17 56 40 18 57 42 17 59 41 19 58 39 16 60 38 17 60 44 19 58 44 19 58 45 18 59 43 18 58 37 16 59 31 14 58 30 13 58 30 13 58 30 13 58 30 13 57 31 12 58 34 13 56 36 15 58 36 13 57 38 13 55 38 11 54 38 13 52 40 12 52 41 13 53 45 13 54 
40 38 43 41 36 40 34 28 30 36 29 36 38 33 39 36 31 35 38 36 39 40 38 41 38 26 28 36 20 21 36 25 29 35 33 38 36 34 39 42 37 43 41 36 42 39 34 40 38 36 41 29 10 12 29 10 12 37 12 15 38 13 16 36 14 16 34 14 15 20 18 19 5 23 23 5 23 23 6 21 24 6 21 26 5 23 23 4 22 22 6 25 23 5 24 22 5 24 18 5 25 16 5 24 18 7 27 18 6 25 19 6 25 19 6 25 21 6 26 17 6 26 17 6 26 17 7 27 18 11 26 21 9 26 18 9 25 22 9 26 20 10 27 19 11 28 20 8 28 19 7 27 16 7 27 16 10 27 17 8 28 19 8 28 19 9 26 16 12 27 20 14 27 20 13 25 23 13 25 25 18 21 30 25 16 35 24 16 39 23 11 49 23 11 49 24 12 50 26 12 48 26 11 54 28 11 55 28 11 56 26 10 57 27 12 55 27 10 52 33 15 57 39 19 56 42 20 59 47 21 60 47 21 58 47 19 59 47 21 60 46 20 57 46 20 57 38 16 55 33 14 59 33 14 59 29 12 57 30 11 57 30 13 57 32 13 58 30 13 57 30 13 58 34 12 58 34 12 58 36 13 57 35 12 56 39 12 57 42 13 57 48 12 56 52 13 58 51 12 56 
41 39 44 41 36 40 40 29 35 38 29 34 40 35 42 39 34 40 40 38 43 41 39 44 38 26 28 34 18 18 35 24 28 34 32 37 38 33 39 43 38 44 42 37 43 38 36 41 38 36 41 29 10 12 28 9 11 34 14 15 38 13 16 36 15 14 34 14 15 19 19 19 4 24 23 4 22 22 4 22 24 4 22 24 4 23 21 5 23 23 4 24 22 6 25 21 4 25 18 6 26 17 5 25 16 5 25 16 5 26 17 6 26 15 6 26 17 8 28 17 7 27 16 6 26 17 7 27 18 5 24 18 7 27 18 8 27 21 7 26 20 8 28 19 8 28 19 8 28 19 8 28 19 8 28 19 10 27 17 7 27 18 8 28 17 10 27 19 10 30 21 11 28 20 9 26 18 9 26 20 18 21 28 24 17 33 24 15 36 24 9 48 22 10 48 24 9 48 26 11 50 27 12 55 28 11 56 28 11 56 29 11 59 27 11 56 28 13 56 31 13 55 39 17 56 44 17 58 49 21 61 50 22 60 48 20 60 48 22 59 47 19 59 46 20 57 38 15 59 32 13 59 30 13 58 29 11 59 29 12 57 30 13 58 31 12 57 29 10 56 30 11 57 33 11 57 33 11 58 35 12 56 37 11 58 40 11 55 43 12 54 48 11 55 54 11 57 53 11 57 
40 38 43 39 36 43 41 35 39 41 34 41 36 24 26 37 25 25 40 22 22 41 23 23 41 17 17 37 13 13 35 23 25 34 32 37 37 35 40 43 38 44 42 37 43 37 35 40 38 36 41 28 9 11 29 9 11 34 12 14 38 13 16 35 13 15 35 15 16 20 20 18 4 25 18 4 24 22 5 24 22 5 24 20 4 25 18 5 24 18 4 27 19 5 24 18 5 26 17 5 27 14 6 27 18 5 27 15 7 27 15 6 29 13 7 27 16 5 27 15 6 26 15 6 26 17 7 27 18 6 25 19 6 26 17 6 26 17 7 27 18 8 28 17 8 28 19 7 27 18 7 26 20 7 26 20 7 26 20 8 28 19 8 27 21 8 28 19 8 28 19 7 26 20 8 28 19 10 27 21 13 25 21 14 26 24 15 23 26 15 19 30 16 20 31 23 15 36 23 15 36 24 9 50 25 10 53 26 11 54 26 11 54 27 12 55 26 11 54 29 12 56 32 13 59 35 13 59 38 13 55 39 13 58 41 16 58 41 16 58 46 20 59 47 19 57 41 16 58 39 13 58 36 13 59 34 12 58 35 13 59 34 12 58 33 11 57 32 10 56 34 10 58 30 11 57 32 10 57 37 11 58 39 12 57 46 13 58 48 10 57 48 10 57 46 10 54 47 11 55 
42 37 41 41 39 44 42 37 43 40 38 43 36 18 18 37 19 17 40 12 9 41 11 9 39 11 8 37 11 10 36 22 22 34 31 38 38 33 39 43 38 44 40 38 43 39 34 40 37 35 40 27 8 10 27 8 10 34 12 14 37 13 13 35 14 13 34 14 15 19 20 15 4 25 18 3 24 19 4 25 20 5 24 18 4 25 18 5 26 19 5 26 17 5 26 17 4 26 14 5 27 15 5 27 15 6 27 18 7 27 15 8 28 17 6 28 16 5 25 16 7 27 18 6 26 17 5 29 16 8 27 21 7 27 18 6 26 17 6 26 17 6 26 17 6 26 15 6 26 17 7 26 20 7 26 22 9 26 20 10 25 20 8 28 17 6 27 18 7 27 18 10 27 21 9 26 20 10 27 19 10 27 19 10 27 19 9 26 20 7 26 20 11 26 21 22 18 32 25 19 31 23 11 51 22 9 52 23 10 53 24 11 55 25 10 53 25 10 53 26 11 54 31 11 62 30 10 59 30 10 59 30 10 59 32 14 56 35 14 57 45 19 56 47 21 60 44 17 58 42 15 58 40 12 60 38 12 59 34 11 55 34 10 58 35 11 61 33 11 58 33 11 58 33 11 58 32 10 56 40 12 60 40 11 57 48 10 57 54 10 59 48 10 57 42 11 55 42 11 55 
38 28 29 38 28 29 40 24 25 40 24 25 36 15 14 37 16 15 40 12 9 41 11 9 41 11 9 43 13 11 38 22 23 34 31 38 37 35 40 40 38 43 40 38 43 36 34 39 37 35 40 27 8 10 28 9 11 36 11 14 38 14 14 35 13 15 34 14 15 19 19 19 4 25 20 3 24 19 4 25 16 2 25 17 4 25 16 5 25 16 6 27 18 5 26 17 5 27 14 5 27 15 5 25 16 5 27 15 3 27 14 5 27 15 6 26 15 5 26 17 6 26 17 6 26 17 6 26 17 5 26 17 7 26 20 6 25 19 6 25 19 6 25 21 8 24 21 6 25 23 8 24 23 7 23 23 7 23 23 7 23 20 8 24 21 7 23 20 8 24 23 8 22 22 8 22 22 9 24 21 10 25 22 9 25 22 9 26 20 9 25 22 10 26 23 15 23 26 17 22 26 16 18 33 16 17 35 21 15 41 24 13 43 25 11 47 22 10 50 26 11 54 27 10 55 29 10 55 27 11 58 27 10 55 27 12 55 29 12 54 36 15 58 38 15 59 36 14 60 36 13 59 34 12 58 33 10 56 34 10 58 33 11 58 33 11 60 37 11 58 34 10 58 37 11 58 36 10 57 37 9 57 36 10 58 47 9 58 50 11 58 49 11 58 46 10 56 43 10 55 
35 17 17 37 16 15 41 10 8 41 12 8 38 13 9 40 12 9 42 12 10 41 13 10 42 13 9 44 13 10 38 22 23 34 32 37 35 34 39 42 37 43 42 37 43 38 36 41 36 35 40 28 9 11 29 9 11 36 11 14 37 13 13 35 13 15 34 14 15 19 19 17 4 25 20 4 25 18 3 24 15 3 24 17 3 24 15 4 25 16 3 24 17 5 26 17 3 26 16 5 27 15 4 26 14 6 28 16 4 26 14 4 25 16 5 25 14 5 26 19 4 27 19 6 25 19 5 26 19 5 26 21 5 26 21 5 24 20 4 23 19 5 24 22 5 23 25 7 22 25 5 20 23 6 22 22 6 20 23 7 21 24 8 19 23 7 21 24 6 20 23 7 21 24 6 20 23 7 21 24 7 22 27 8 24 24 9 25 24 9 25 22 8 27 23 11 28 22 9 26 20 9 26 18 9 25 22 19 19 29 23 17 29 23 13 40 21 10 50 21 9 47 22 10 50 22 10 50 24 8 53 25 9 54 25 9 54 25 9 54 28 10 58 28 10 58 29 9 58 30 11 57 30 10 59 30 10 59 32 10 59 31 9 56 31 9 56 34 10 60 34 10 58 38 10 58 38 10 58 35 9 57 34 10 58 42 10 59 49 9 59 48 10 59 48 10 57 46 10 56 
37 16 15 39 15 13 39 11 8 39 11 7 41 13 10 41 11 9 41 11 9 41 11 9 43 12 9 43 12 10 39 20 22 32 31 37 36 34 39 40 38 43 40 38 43 37 35 40 37 35 40 27 8 10 29 9 11 36 11 14 37 13 13 36 14 16 34 14 15 20 19 17 4 24 22 4 25 20 4 25 18 5 24 18 3 24 17 6 25 19 4 25 18 5 24 18 4 25 16 3 25 13 4 26 14 5 27 15 5 27 15 6 28 16 5 27 15 5 26 19 6 26 17 5 26 19 5 26 19 6 22 19 5 25 23 6 25 21 5 24 20 5 24 22 5 23 23 7 23 23 6 22 22 6 22 22 7 21 24 6 20 23 6 19 25 7 18 22 6 20 23 7 21 24 7 20 26 9 20 24 8 22 25 8 24 24 7 23 23 8 24 23 9 25 24 8 24 21 7 24 18 9 26 20 7 26 22 15 20 26 18 18 28 18 17 35 17 15 39 17 13 38 22 11 41 23 11 47 23 10 54 26 10 55 24 9 52 24 8 53 28 11 56 27 9 57 28 10 58 29 9 60 30 10 59 28 8 57 32 9 63 32 10 59 32 8 58 34 10 58 34 10 58 37 11 56 37 11 58 37 11 59 37 11 59 42 10 59 46 9 60 44 10 60 41 9 58 43 9 59 
41 13 10 37 13 11 39 11 8 40 12 11 44 13 10 45 11 10 42 12 10 42 12 10 43 12 9 43 12 9 38 22 23 32 31 37 35 33 38 39 37 42 39 37 42 36 34 39 35 34 39 26 7 9 27 8 10 35 10 13 37 11 14 38 13 16 34 14 15 18 18 18 3 23 22 3 23 22 4 22 22 4 22 22 6 27 20 8 29 22 3 24 19 4 25 20 3 24 17 3 24 17 3 24 17 3 24 17 5 26 17 7 27 16 7 27 16 6 27 18 4 25 16 7 26 22 6 25 21 5 23 23 5 25 26 5 25 23 5 25 23 4 24 23 7 26 24 5 24 22 6 22 22 7 22 25 8 19 23 6 20 23 6 20 23 6 20 23 4 20 20 6 20 23 8 19 23 9 20 26 8 19 23 7 21 24 8 19 23 9 20 24 9 20 24 9 20 24 6 20 23 8 22 25 7 21 22 10 21 25 10 19 24 9 23 23 10 25 22 13 22 27 22 18 35 24 14 39 23 10 56 25 9 56 25 9 54 25 9 54 24 8 53 23 10 54 25 8 53 25 8 53 27 9 57 27 9 57 27 9 59 31 9 58 32 10 59 33 11 57 32 10 56 33 12 55 34 11 55 38 10 58 37 9 58 39 10 58 38 8 58 37 9 60 35 9 57 35 8 59 
43 13 11 41 11 9 38 13 9 39 11 8 43 14 10 44 13 11 40 10 8 42 12 10 43 12 9 43 12 9 38 22 22 32 29 36 36 34 39 40 38 43 40 38 43 38 36 41 40 35 42 27 9 9 24 8 8 35 10 13 38 12 15 34 12 14 34 14 15 18 18 18 3 21 21 3 23 21 3 23 21 4 24 22 9 30 23 7 28 19 6 27 20 6 27 22 6 25 21 5 26 19 6 25 19 3 24 17 4 25 16 6 28 16 6 28 16 5 26 19 4 25 16 6 25 21 6 26 24 6 25 23 3 23 22 5 24 22 6 25 21 6 25 23 6 25 21 8 24 23 7 22 25 8 23 26 6 21 24 8 22 25 5 20 23 5 20 23 8 19 23 6 20 23 5 19 22 8 19 23 7 18 20 8 19 23 8 19 23 8 19 23 9 20 24 9 20 24 8 22 25 9 20 24 9 20 24 8 19 23 7 21 22 10 22 22 8 22 22 11 20 25 21 17 32 21 16 38 23 10 54 23 10 53 22 10 50 23 10 53 25 9 54 26 9 54 25 7 55 27 10 55 25 8 53 25 9 56 29 9 58 30 7 59 32 10 59 31 13 55 30 12 54 31 13 53 31 13 55 38 10 59 38 10 58 39 10 58 39 9 59 38 10 58 37 9 57 36 10 57 
44 13 11 44 13 11 41 13 10 42 12 10 42 11 8 43 12 10 41 11 9 41 11 9 41 11 9 39 11 8 37 21 22 34 31 38 37 35 38 39 37 42 42 37 44 37 35 40 38 35 42 26 8 8 28 8 9 36 12 12 38 12 11 35 10 13 30 10 11 19 17 18 3 21 21 5 25 23 8 29 22 10 31 26 19 39 28 20 40 29 18 38 27 18 38 29 20 40 29 20 40 28 13 33 24 4 25 16 4 25 16 3 24 15 3 24 17 4 25 16 3 24 15 4 26 14 4 25 16 4 25 16 4 25 16 5 26 17 4 25 16 5 26 19 6 25 21 10 31 26 18 41 33 18 41 31 17 40 32 16 37 30 6 26 25 6 26 25 5 21 21 6 20 23 6 20 23 5 19 22 5 19 22 5 19 22 6 20 23 6 20 23 8 19 23 8 19 23 5 19 22 6 20 23 8 19 23 6 20 23 7 21 24 8 19 23 9 18 23 7 18 20 10 19 24 9 20 24 6 22 22 8 22 23 23 16 34 23 16 34 25 8 52 24 8 55 25 7 55 26 9 54 25 8 53 26 9 54 26 9 54 27 8 53 28 11 55 23 21 43 21 21 45 20 20 44 20 21 42 34 13 56 37 9 57 44 10 60 44 10 60 41 9 56 41 9 56 41 13 54 
43 12 10 43 12 9 42 12 10 42 12 10 43 12 10 43 12 10 43 12 9 42 11 8 39 11 8 40 10 8 39 21 21 34 32 37 37 35 40 43 38 44 41 38 45 39 39 41 38 36 41 27 7 8 27 9 9 36 11 14 37 11 14 36 11 14 34 9 12 18 18 16 3 23 22 5 25 23 10 31 24 11 32 23 20 40 31 18 40 28 18 38 27 18 38 29 20 40 29 19 41 29 13 33 22 3 27 14 5 26 17 3 25 13 4 25 16 4 25 16 4 25 16 4 26 14 4 24 15 3 24 15 4 25 18 5 25 16 5 25 16 5 24 20 5 26 19 9 30 25 16 39 31 15 41 32 17 40 32 16 37 30 6 26 25 6 26 25 5 20 25 6 20 23 8 19 23 5 19 22 6 19 25 8 19 23 6 17 21 8 19 23 7 18 22 6 17 21 7 18 20 8 19 21 5 19 22 6 20 21 9 18 23 8 19 23 8 19 23 9 20 22 10 19 24 8 19 23 8 22 23 8 22 22 21 17 34 20 16 33 25 10 53 26 8 56 26 9 54 26 7 53 26 8 56 26 9 54 27 8 54 27 7 56 25 10 53 23 21 45 20 22 45 19 21 44 18 20 41 35 12 56 40 8 57 43 9 59 43 9 59 43 10 57 38 9 55 40 14 53 
44 13 11 44 13 11 41 11 9 40 10 8 40 10 8 40 12 9 42 12 10 43 12 10 43 13 11 44 13 10 38 22 22 34 32 37 36 34 39 40 38 43 35 36 40 6 25 21 6 25 21 31 6 9 29 6 12 28 14 14 28 17 15 22 33 25 22 44 32 31 51 39 43 61 49 44 60 49 43 61 49 42 59 49 40 57 47 40 58 46 12 33 26 9 30 23 4 27 19 3 26 18 3 26 16 3 27 14 3 24 15 2 26 13 4 25 16 3 25 12 4 26 14 6 28 15 6 28 16 7 29 17 7 29 17 8 30 18 8 28 17 9 29 18 9 29 18 7 29 17 4 25 18 5 26 19 4 23 19 5 24 22 7 21 24 5 21 21 5 23 23 4 24 23 6 22 22 6 20 23 5 19 22 5 19 22 4 18 21 5 19 22 5 19 22 8 19 23 7 18 22 7 18 24 8 19 23 7 18 22 8 19 25 8 19 23 7 18 24 8 19 23 8 19 25 5 18 26 8 19 23 8 19 21 7 21 22 6 20 21 8 25 19 7 27 18 17 20 27 20 16 30 21 12 39 24 7 51 25 8 53 27 8 54 25 10 51 13 34 39 14 35 40 14 35 38 14 35 38 36 19 51 42 9 54 44 18 53 42 24 50 48 25 54 52 28 60 48 27 58 
