P3
100 50
255
92 71 6 90 69 4 91 70 3 91 70 3 93 70 3 92 67 1 92 67 1 92 67 0 92 67 1 94 70 0 92 69 1 93 75 3 91 71 0 94 71 1 91 73 1 90 67 33 88 64 52 87 65 51 84 65 48 81 62 47 73 42 37 74 41 34 71 32 33 72 33 34 70 32 31 68 32 32 70 31 32 71 33 32 70 32 31 72 34 33 72 33 36 73 37 37 73 39 38 77 45 46 75 45 47 70 32 31 71 33 32 70 31 32 71 32 33 70 31 32 70 31 32 71 32 33 72 33 34 66 30 30 57 21 21 57 21 21 56 20 20 57 21 21 59 20 21 59 21 20 54 20 19 51 20 18 61 22 23 64 25 26 62 23 24 58 23 21 57 21 23 56 20 20 58 19 22 57 21 21 54 18 18 56 22 21 59 20 21 52 21 19 52 20 21 36 20 20 21 20 18 26 25 23 35 31 28 38 34 31 50 46 43 50 45 42 59 51 49 57 51 51 57 52 49 60 52 50 41 37 34 32 28 27 43 38 35 53 48 45 58 53 50 66 62 59 65 60 56 65 51 42 66 52 43 27 29 15 29 30 16 31 41 17 34 42 19 31 39 16 27 36 15 28 37 16 30 38 17 29 37 16 25 29 12 25 29 12 37 42 20 35 43 20 39 38 20 42 36 22 
91 72 13 91 71 10 91 70 7 90 69 4 93 69 5 92 68 4 91 68 1 92 69 1 95 68 1 92 72 3 92 72 1 94 71 1 90 70 1 92 72 1 92 76 1 91 73 37 89 72 56 85 66 51 79 60 45 80 58 44 77 54 38 77 51 34 72 34 33 71 33 32 71 32 33 68 32 32 71 33 30 70 31 34 70 31 32 70 32 31 70 32 31 71 31 32 71 33 30 69 33 33 68 34 33 70 31 32 70 31 32 70 31 32 70 31 32 70 31 32 71 32 33 72 32 33 71 32 33 68 29 30 57 21 21 57 21 21 56 20 20 57 21 21 57 21 21 56 21 19 60 22 21 62 24 23 58 23 21 57 21 21 57 21 21 55 21 20 56 20 20 59 20 23 57 21 21 58 19 20 56 20 20 57 21 21 59 20 21 51 21 21 47 21 20 31 19 19 18 17 15 26 22 21 37 32 29 35 31 30 35 31 30 37 32 29 54 46 43 53 47 47 53 48 44 53 48 44 43 38 35 37 33 32 42 38 35 49 44 41 59 54 51 77 69 67 73 65 62 53 43 34 56 41 34 40 36 24 41 37 25 27 31 14 27 30 11 21 28 10 22 29 11 20 27 11 21 25 11 22 24 11 21 25 10 23 25 11 32 30 17 30 31 17 59 45 34 65 47 37 
91 72 16 90 71 12 91 71 10 92 71 6 91 70 5 89 68 3 93 70 3 92 67 1 93 68 2 91 71 0 91 71 2 93 70 2 93 70 0 91 73 1 92 74 2 89 74 35 88 72 57 86 68 54 81 62 47 80 58 44 76 53 39 76 48 36 68 34 35 68 34 33 67 33 32 68 34 33 71 33 32 71 33 32 71 32 33 70 31 32 70 31 32 71 32 33 71 32 33 70 31 32 70 32 31 70 32 31 70 31 32 71 33 32 71 32 33 70 31 32 70 31 32 71 32 33 71 32 33 66 30 30 56 20 20 56 20 20 56 20 20 57 21 21 57 21 21 56 20 20 59 20 21 61 22 23 58 22 22 57 21 21 56 20 20 57 21 21 57 22 20 57 21 21 57 21 21 57 21 25 54 20 19 56 22 23 55 21 20 47 21 24 44 23 22 31 20 18 21 17 16 26 22 21 36 30 30 36 32 29 37 32 29 37 33 32 52 47 44 52 47 44 51 46 43 51 46 43 44 39 36 39 33 33 45 40 37 49 44 41 57 52 49 71 66 62 67 62 58 56 45 39 55 46 39 45 39 27 46 40 28 31 32 16 29 32 15 27 30 13 26 30 13 23 27 12 22 26 12 22 24 11 22 24 11 23 25 11 36 32 20 36 32 20 60 46 37 65 48 38 
79 69 34 82 69 34 87 71 20 92 73 14 93 72 9 93 69 7 90 69 6 92 69 2 92 69 2 91 71 0 94 71 1 91 68 0 92 67 1 92 69 2 92 69 2 87 71 37 86 72 59 88 74 63 89 81 70 84 69 62 69 34 40 65 34 39 46 46 48 47 45 46 56 38 36 57 36 35 68 34 33 71 31 31 71 32 35 70 32 31 70 32 31 70 31 32 71 32 33 70 32 31 69 33 33 69 33 33 72 34 33 70 31 32 69 31 30 70 31 32 71 32 33 71 32 33 72 33 34 68 29 30 57 21 21 56 20 20 58 19 20 56 20 20 58 19 20 57 21 21 56 20 20 56 20 20 57 21 21 56 20 20 56 20 20 56 22 21 56 20 20 59 20 21 55 21 22 51 21 21 51 19 20 34 26 24 31 25 25 31 29 30 31 31 31 27 29 26 26 25 21 24 23 19 23 19 18 27 23 22 42 36 36 41 35 35 37 33 30 37 33 32 38 34 33 40 35 32 48 43 40 51 45 45 52 47 44 55 50 47 51 43 41 40 37 32 45 40 37 70 70 68 73 69 68 72 55 45 74 58 45 57 43 34 51 37 28 48 35 27 46 31 24 39 28 22 27 24 15 28 24 15 24 22 10 30 26 14 71 55 42 70 53 43 68 50 40 68 50 40 
81 68 34 82 70 32 87 71 20 91 72 14 92 72 11 92 68 6 93 69 7 92 69 2 91 67 3 92 72 3 91 71 2 91 68 0 91 68 1 92 69 2 92 69 1 87 71 37 85 71 58 88 76 62 89 81 68 85 68 61 69 34 41 66 35 40 46 46 46 47 46 44 56 38 36 56 34 36 69 33 33 72 32 32 72 32 32 70 31 32 69 33 33 72 33 34 71 32 33 68 32 32 70 31 32 70 31 32 70 31 32 71 32 33 71 31 32 70 31 32 70 31 32 71 32 33 71 32 33 68 29 30 56 20 20 57 21 21 56 20 20 56 20 20 57 21 21 57 18 19 55 21 20 55 21 20 55 21 20 57 21 21 56 22 21 55 21 20 57 21 21 57 21 21 56 20 22 53 19 20 50 20 18 33 25 23 31 25 27 33 29 30 32 30 31 29 28 26 27 23 20 26 22 19 23 19 18 27 23 22 40 36 35 41 37 36 37 33 30 36 30 30 39 35 32 40 36 33 46 41 38 51 46 43 53 48 45 55 46 47 48 42 42 40 36 33 46 41 38 72 68 67 74 70 69 71 57 46 73 57 44 56 42 33 52 38 29 48 33 28 46 31 24 39 28 22 27 22 16 27 23 14 25 23 11 29 25 14 71 55 42 70 53 43 68 50 40 66 48 38 
59 60 54 58 59 54 69 63 41 76 66 31 82 68 23 92 71 14 92 72 13 91 67 5 92 68 6 93 70 2 91 70 3 92 69 2 91 68 0 91 68 1 92 67 3 90 71 41 87 73 62 87 73 60 88 76 60 85 68 58 74 43 48 74 45 47 51 51 51 52 50 51 51 51 51 50 50 48 46 44 45 42 40 41 54 38 38 63 34 36 65 35 35 70 30 30 72 32 33 69 33 33 72 33 34 70 32 31 68 32 32 71 33 32 72 34 33 70 31 32 71 32 33 72 33 34 71 32 33 68 32 32 56 20 20 56 20 20 56 20 20 57 21 21 55 21 20 57 21 21 57 21 21 56 20 20 56 20 20 57 18 19 56 20 22 55 21 20 51 21 21 34 24 22 34 25 28 31 31 33 31 31 31 32 32 32 30 30 30 32 31 29 31 31 29 24 22 23 17 15 16 24 20 17 31 27 24 31 27 24 27 23 22 27 23 22 43 38 35 44 38 40 31 26 23 28 25 20 33 32 28 36 35 30 33 35 24 32 33 19 29 33 16 24 33 12 31 35 18 53 49 46 57 49 46 50 46 43 51 46 43 57 42 35 59 40 34 54 35 29 52 35 28 43 30 22 26 24 12 33 26 16 53 29 27 56 32 30 72 58 45 75 58 48 73 56 46 74 57 47 
59 60 52 58 59 51 70 64 40 76 66 30 82 68 23 90 71 13 91 71 10 92 68 6 91 70 7 92 69 2 90 70 1 90 70 1 92 69 2 91 68 1 91 67 5 89 70 38 87 73 64 87 73 60 85 76 59 85 69 56 76 44 49 71 45 48 51 51 53 52 50 51 51 51 49 52 52 50 46 42 43 46 42 43 54 38 39 63 35 34 66 34 35 71 31 31 71 32 33 70 31 32 68 33 31 70 31 32 70 31 32 70 31 32 70 31 32 71 32 33 70 31 32 69 33 33 71 32 33 68 29 30 56 22 21 56 20 20 59 20 21 57 21 21 56 20 20 56 20 22 57 21 21 56 20 20 55 21 20 57 21 21 56 20 20 54 20 19 51 21 21 34 24 25 33 23 22 31 31 31 31 31 31 30 32 31 31 31 31 32 30 31 32 30 31 25 23 24 16 15 13 24 20 19 32 28 25 31 27 26 25 24 22 27 23 22 43 39 36 44 39 36 31 25 25 29 25 24 32 31 27 38 35 30 34 34 24 30 33 16 29 33 18 26 34 13 30 34 17 54 49 46 55 50 46 50 45 41 51 46 43 57 42 35 58 41 34 55 36 30 52 33 27 42 32 23 26 24 12 34 25 16 51 27 25 54 33 30 72 60 48 75 57 45 74 57 47 74 58 45 
58 59 53 55 58 51 52 53 45 49 51 40 69 60 29 90 70 20 89 69 18 91 69 11 91 69 9 93 68 4 92 68 4 92 62 2 90 61 1 89 63 4 90 64 7 86 70 37 86 70 55 85 68 50 84 62 39 82 60 37 77 45 30 74 46 34 50 50 52 51 49 50 52 52 52 52 52 52 50 50 50 51 51 51 52 50 51 53 51 52 52 46 46 46 34 36 53 35 35 68 34 33 69 35 34 68 32 32 70 32 31 69 34 32 71 32 33 68 32 32 70 31 32 71 32 33 72 33 34 66 30 30 57 21 21 56 20 20 57 21 21 57 21 21 56 20 22 55 21 22 56 20 20 58 19 20 45 21 21 42 22 23 38 24 24 33 27 27 33 29 28 34 32 33 33 31 32 31 31 31 32 32 34 31 31 31 32 32 32 29 29 27 30 30 28 25 26 21 21 21 13 25 26 18 31 31 23 28 28 20 23 24 16 23 23 15 28 30 17 29 31 18 29 32 21 29 33 18 32 37 17 33 38 18 31 39 18 32 42 18 30 38 17 26 30 13 27 31 16 41 37 36 42 37 34 62 57 53 65 57 55 52 38 35 48 33 28 48 33 26 50 32 28 40 30 21 26 22 13 32 29 20 53 41 41 55 41 41 63 50 41 62 49 40 74 57 47 75 58 48 
57 58 53 55 56 50 49 52 45 46 47 41 68 58 31 88 70 22 89 69 19 91 69 9 89 67 9 92 67 3 92 67 3 89 60 2 90 59 2 91 62 6 91 62 6 87 68 36 83 70 53 84 67 47 84 59 37 82 57 35 76 47 29 73 47 32 50 50 50 50 50 50 51 51 51 52 52 52 51 51 51 50 50 50 52 52 52 53 53 53 48 46 47 42 36 38 50 36 36 71 35 35 68 34 33 70 32 31 69 31 30 70 32 31 68 32 32 70 31 34 70 32 31 72 33 34 71 32 33 68 29 30 56 20 20 55 21 20 57 21 21 56 20 20 55 21 20 56 20 20 59 19 20 56 20 20 47 21 22 39 23 23 34 22 22 28 30 29 29 29 29 33 33 33 34 34 34 32 32 32 32 32 32 31 31 31 32 32 32 31 31 29 31 31 29 25 26 21 21 22 14 25 26 18 31 32 24 29 31 20 21 23 12 22 23 15 26 30 15 27 29 15 29 33 18 30 34 19 29 37 16 30 39 18 32 40 17 33 43 19 30 38 17 24 31 15 27 31 16 40 36 33 41 36 33 66 58 55 65 57 54 50 39 35 47 32 27 47 32 27 48 33 28 40 30 21 26 24 12 32 28 19 55 44 42 55 44 42 61 48 39 61 48 39 73 56 46 75 58 48 
58 59 51 56 57 51 51 52 46 47 48 43 57 53 41 66 59 33 72 62 27 92 70 13 91 71 12 90 69 6 92 68 4 89 60 0 90 61 1 87 60 7 88 58 8 85 60 29 84 62 41 86 58 37 80 49 28 82 48 38 78 42 54 76 44 55 50 50 50 50 50 48 51 49 50 51 51 51 51 51 51 52 52 52 53 53 53 54 54 54 56 56 56 59 57 58 58 54 55 60 46 45 59 45 45 59 35 35 58 36 38 69 33 33 72 33 34 70 31 32 69 31 30 72 33 34 71 35 35 66 31 29 57 21 21 56 22 21 56 20 20 57 22 20 48 22 21 48 22 21 42 24 24 39 25 24 39 29 30 37 31 33 38 32 32 36 36 36 35 35 35 35 35 35 34 34 34 31 31 31 32 32 32 32 32 32 31 31 31 29 29 27 29 31 28 28 31 20 27 31 14 29 37 16 36 46 22 36 44 21 34 42 21 33 41 20 34 42 21 35 43 22 37 45 24 37 47 22 33 43 18 30 40 16 30 40 16 31 39 16 30 38 17 27 31 17 28 32 18 48 43 39 48 42 42 47 42 39 48 43 40 46 38 35 43 38 34 36 32 23 31 27 16 40 36 25 48 45 36 52 47 41 67 57 56 68 58 57 70 61 56 69 62 56 69 60 55 70 61 56 
58 59 53 56 59 52 51 52 46 47 48 42 49 49 39 51 51 41 63 57 33 92 70 13 93 71 13 90 69 6 91 70 5 90 61 1 91 62 2 86 56 6 86 53 8 85 56 24 84 56 32 81 50 29 82 44 25 80 41 34 80 41 70 77 41 67 51 49 50 50 50 50 50 50 50 52 52 52 53 51 52 51 49 50 52 52 52 53 55 54 60 60 60 69 69 69 66 66 64 53 53 53 52 52 52 51 37 37 51 37 37 70 34 34 73 33 34 69 33 33 70 31 32 71 32 33 72 33 34 69 30 31 56 20 20 56 22 23 58 19 22 58 19 20 43 22 21 43 22 21 32 27 24 28 26 27 33 33 31 38 36 37 38 38 38 39 39 39 38 38 38 34 34 34 34 34 34 31 31 31 31 31 31 31 31 31 31 31 31 29 29 27 29 29 27 30 34 20 28 37 16 33 43 18 43 54 24 42 53 23 40 50 23 39 52 22 40 50 25 40 50 23 41 54 24 44 55 25 37 47 22 32 42 17 31 41 17 29 38 17 28 35 17 28 32 18 32 34 23 53 48 45 54 46 44 38 33 30 37 33 32 40 39 35 41 40 35 31 31 21 22 24 11 37 37 27 63 58 52 66 61 55 75 67 64 74 66 63 75 70 66 77 69 67 68 63 60 65 61 58 
58 61 52 57 60 53 52 53 47 48 49 43 47 47 39 44 44 34 56 49 31 88 64 18 89 62 17 85 59 10 85 58 11 78 43 3 79 44 2 77 38 7 73 36 7 80 46 19 83 53 25 83 47 31 86 40 40 82 39 46 83 37 73 79 38 70 49 49 49 50 50 50 52 52 52 51 51 51 52 52 52 51 51 51 50 52 51 51 51 51 48 48 48 41 41 41 44 44 46 51 51 51 51 51 53 50 44 44 49 45 44 56 38 38 57 37 39 60 36 36 64 36 35 68 34 33 72 33 34 69 31 30 53 21 22 52 22 22 43 23 24 45 24 23 38 28 27 38 26 26 31 30 28 29 29 29 32 32 32 33 33 35 30 30 30 24 24 24 26 26 26 33 33 33 33 33 33 31 31 31 31 31 31 31 31 31 31 31 31 30 30 28 31 32 27 29 33 19 26 35 14 29 39 15 35 45 18 35 45 20 35 43 20 33 43 18 31 41 17 32 42 18 35 43 20 35 43 20 30 38 17 30 34 17 31 35 20 33 37 22 36 38 25 42 39 32 43 40 33 52 47 44 53 48 45 45 37 35 42 38 35 46 43 38 47 44 39 38 35 30 30 30 20 43 40 35 66 58 56 66 61 55 73 65 63 72 64 62 65 60 57 66 61 57 65 60 57 65 61 58 
58 61 54 57 60 53 52 55 48 49 52 45 42 43 37 33 34 28 47 41 27 85 56 24 84 55 23 82 49 16 81 48 15 69 27 5 68 27 7 64 20 7 63 17 4 74 38 16 82 48 21 82 44 33 87 36 55 85 36 58 86 33 75 81 35 72 50 48 51 49 49 49 51 51 51 51 51 51 50 50 50 50 52 51 50 50 50 49 49 49 35 35 35 13 13 13 20 20 18 49 49 49 48 48 48 50 51 53 50 50 52 43 43 45 41 41 43 52 38 38 57 36 35 67 35 36 73 34 35 67 32 30 50 22 21 47 21 22 29 28 26 30 26 25 31 31 31 30 30 28 31 31 31 32 32 34 30 30 30 29 29 29 21 21 21 8 8 8 14 14 14 33 33 33 32 32 32 31 31 31 31 31 31 31 31 31 31 31 31 30 30 28 30 30 28 26 32 20 25 34 13 25 34 13 29 37 14 29 37 14 27 35 14 27 35 12 25 32 14 27 31 14 28 30 16 28 32 18 26 30 16 24 27 16 30 31 23 36 36 28 43 40 33 51 46 42 52 47 43 52 47 44 53 48 45 48 44 41 49 43 43 53 45 43 51 46 43 44 38 38 38 34 33 49 44 41 68 60 57 66 61 57 71 63 60 70 62 59 53 49 46 57 49 47 66 58 55 65 60 57 
58 61 54 57 60 51 52 55 46 49 52 45 43 44 38 36 37 31 46 42 30 77 53 27 76 52 26 79 48 17 78 47 18 68 25 8 68 25 8 65 19 6 62 15 5 71 33 14 77 41 17 78 38 30 82 36 46 84 38 51 84 41 69 81 43 66 50 50 50 50 48 49 50 50 50 49 49 49 49 49 49 50 50 50 49 49 49 49 49 49 34 36 35 13 13 13 21 21 21 48 48 48 48 48 48 51 51 53 51 51 51 43 44 48 44 42 43 51 41 40 55 39 39 60 36 36 64 34 34 59 31 30 44 24 23 43 25 25 30 29 27 29 29 27 31 31 31 31 31 33 32 30 31 32 32 32 30 30 30 30 30 30 21 21 19 9 9 9 14 14 14 32 32 32 32 32 32 31 31 31 31 31 31 31 31 31 31 31 31 31 31 29 30 30 28 28 31 20 24 32 11 26 33 15 28 35 19 27 34 18 27 34 16 27 34 16 24 28 14 24 28 14 26 29 18 27 29 18 28 30 19 29 30 22 30 31 25 32 33 27 41 38 31 55 50 46 56 48 46 58 50 48 55 50 47 51 43 41 48 43 40 51 46 43 52 47 44 45 40 37 40 34 34 50 44 44 67 59 57 66 61 57 69 62 56 65 60 56 57 52 49 57 52 49 61 57 54 62 57 53 
60 61 53 57 60 51 53 56 49 51 54 47 46 47 41 43 44 38 43 44 36 46 43 36 50 43 33 73 40 25 73 39 27 63 18 12 63 18 12 62 15 7 60 13 5 60 16 5 63 16 6 67 25 13 76 40 26 76 47 33 81 65 52 76 64 52 50 50 50 50 50 50 43 41 42 40 40 40 47 47 47 50 50 50 49 49 49 48 48 48 35 35 35 13 13 13 21 21 19 47 47 47 46 48 47 50 52 51 52 50 51 50 50 50 50 50 52 49 49 51 46 46 46 40 38 39 30 28 29 31 30 28 29 30 32 30 30 30 32 32 32 32 32 32 31 31 33 31 33 32 31 31 31 32 32 32 30 30 32 29 29 29 20 20 20 9 9 9 15 15 15 31 31 31 32 32 32 31 31 31 32 32 32 31 31 31 30 30 30 31 31 29 31 32 27 25 28 17 19 26 10 20 24 10 23 22 17 24 23 18 27 26 21 30 27 22 17 16 14 18 19 14 22 21 17 27 23 20 38 34 31 47 42 39 37 33 30 28 24 23 40 36 33 62 57 53 62 54 51 64 56 53 61 56 52 47 42 39 47 42 39 52 47 43 53 48 45 48 43 39 44 39 36 51 46 43 65 57 54 61 56 53 55 50 46 55 50 47 60 55 52 60 55 52 54 49 46 52 47 44 
59 62 53 58 61 54 54 57 50 51 54 47 46 49 42 44 47 40 43 44 38 47 42 36 50 43 35 74 42 27 74 42 29 65 21 12 65 20 14 62 15 7 61 14 6 63 16 6 62 15 5 68 24 11 75 37 24 75 46 30 79 65 52 76 62 53 52 50 51 50 50 48 42 42 42 41 41 41 48 48 48 52 50 51 50 50 50 48 50 49 35 35 35 14 12 13 22 22 22 44 48 47 47 47 49 51 51 51 51 51 53 49 50 52 49 50 52 49 49 49 49 48 46 41 39 40 33 33 31 32 32 32 29 29 29 30 30 30 31 31 31 30 32 31 32 32 32 32 32 32 31 31 31 32 30 31 29 29 31 28 28 28 20 20 20 9 9 9 15 15 15 33 33 33 32 32 32 32 32 32 31 31 31 31 31 31 31 31 31 30 30 28 32 33 28 26 29 20 22 26 12 22 25 14 23 22 18 24 23 18 27 28 22 28 28 20 19 18 16 19 18 16 24 23 19 24 23 19 38 34 31 44 38 38 36 32 29 29 25 24 40 36 33 64 56 53 61 56 52 60 55 51 62 54 52 47 42 39 46 41 38 52 47 44 55 50 47 48 43 40 45 40 37 51 46 43 64 56 53 60 55 52 55 50 47 56 51 48 61 56 53 59 55 54 53 48 45 53 47 47 
59 62 55 58 61 54 54 56 51 51 54 47 49 52 45 46 49 42 44 46 41 40 42 37 43 43 35 64 45 31 64 44 33 66 26 18 67 27 19 62 17 11 61 17 6 62 15 5 62 16 3 64 22 8 69 31 12 73 40 23 79 66 50 75 63 51 50 50 50 50 48 49 51 51 51 50 50 50 51 51 51 51 51 51 49 49 49 48 48 48 35 35 35 13 13 13 22 22 22 48 48 48 47 47 49 52 52 54 52 52 54 48 48 50 47 47 47 51 49 50 51 51 51 47 47 47 42 42 42 39 39 39 30 30 30 29 29 29 23 23 23 22 22 22 32 32 32 32 32 32 31 31 31 31 31 31 30 30 30 28 28 28 21 21 21 9 9 9 14 14 14 32 32 34 32 32 32 31 31 31 32 32 32 29 29 27 29 29 29 31 31 31 31 31 33 38 36 37 44 41 36 38 34 31 27 26 21 27 26 21 26 25 20 25 25 17 25 19 19 23 19 16 24 23 21 27 23 22 27 26 24 30 26 25 32 28 27 33 29 26 45 40 37 66 61 57 64 59 55 56 48 46 55 47 45 44 39 36 43 39 36 53 48 45 56 51 47 50 45 42 47 42 39 51 46 43 55 50 47 55 50 46 52 47 44 53 48 44 62 58 55 62 58 57 54 49 46 52 49 44 
59 62 53 58 61 52 54 57 48 52 55 48 49 52 45 45 48 41 44 47 40 41 42 36 43 42 37 65 46 32 64 44 33 66 26 18 66 26 18 62 18 9 62 15 9 61 17 6 64 17 7 65 21 8 70 32 13 73 40 23 80 67 51 74 65 50 49 49 49 50 50 50 52 52 52 51 51 51 51 51 51 51 51 51 49 49 49 49 49 49 35 35 35 13 13 13 21 21 21 47 47 47 46 46 46 51 51 53 51 51 53 48 48 48 46 46 46 50 48 49 51 51 51 47 47 47 42 42 42 39 39 39 28 28 28 28 28 28 23 23 23 22 22 22 32 32 32 32 32 32 31 31 31 31 31 31 31 31 31 28 28 28 21 21 21 9 9 9 14 14 14 32 32 34 33 33 33 32 32 32 32 32 32 29 29 27 29 29 29 31 31 31 31 31 31 38 37 35 44 40 37 38 34 31 25 26 21 28 25 20 25 24 19 25 25 17 25 19 19 23 22 18 24 23 18 26 22 21 28 24 23 29 25 24 31 28 23 33 29 26 45 40 37 65 60 56 65 60 56 56 48 46 54 49 46 44 39 36 45 41 38 53 48 45 56 51 47 50 45 42 46 41 38 50 45 42 57 52 49 55 50 46 53 48 44 54 49 46 61 57 56 61 57 56 54 49 46 51 46 43 
61 64 55 60 63 54 58 61 52 54 57 48 50 53 46 46 49 42 43 46 39 38 41 34 37 40 33 37 34 29 37 34 29 69 33 21 69 33 21 71 35 19 71 35 19 75 47 23 82 52 26 82 55 28 82 60 36 81 63 41 82 76 64 80 72 61 50 48 49 51 51 51 51 51 51 51 51 51 51 51 51 50 50 50 53 53 53 55 55 55 44 44 44 26 26 26 31 31 31 46 46 46 47 47 47 51 51 51 52 52 52 47 47 47 46 46 46 50 48 49 50 50 50 46 46 46 42 42 42 40 40 40 30 30 30 31 31 31 30 30 30 30 30 30 32 32 32 32 32 32 31 31 31 31 31 31 30 30 30 29 29 29 25 25 25 17 17 17 23 23 23 34 34 36 33 33 33 24 24 24 24 24 24 24 24 22 24 24 24 29 29 29 31 31 31 37 36 34 42 38 35 43 39 36 42 38 35 38 34 31 25 24 19 26 26 18 21 20 18 22 21 19 32 28 25 32 31 27 30 26 25 27 26 24 28 24 23 26 22 21 30 26 23 35 31 28 39 35 32 63 55 52 62 54 51 50 45 41 51 46 43 55 50 46 57 52 48 51 46 42 46 41 38 49 44 41 54 49 45 56 48 45 58 53 49 58 53 49 52 47 44 51 46 43 63 58 55 66 61 58 
62 65 56 60 63 54 57 60 51 55 58 49 51 54 47 46 49 42 44 46 41 38 41 34 35 40 33 34 33 28 33 32 28 71 35 23 70 34 22 73 37 21 74 38 22 80 50 24 84 57 28 82 61 32 84 64 39 84 68 43 84 77 67 81 75 63 49 51 48 49 49 51 49 49 49 50 50 50 50 50 50 52 52 52 54 54 54 56 56 56 46 46 46 26 26 26 33 33 33 46 46 46 47 47 47 51 51 51 51 51 51 46 48 47 46 46 46 50 50 50 51 51 51 46 46 46 42 42 42 39 39 39 30 30 30 31 31 31 32 32 32 32 32 32 32 32 32 32 32 32 31 31 31 31 31 31 31 31 31 28 28 28 25 25 25 20 20 20 24 24 24 34 34 36 33 33 33 23 23 23 23 23 23 23 23 21 23 23 23 29 29 29 32 30 31 36 35 33 43 39 36 43 42 38 45 40 37 40 37 32 26 25 21 25 24 19 22 21 19 22 21 19 33 29 26 34 30 27 31 27 24 27 26 24 26 22 21 25 21 20 27 23 22 32 28 25 35 31 28 62 54 51 61 56 52 50 47 42 53 48 45 58 50 47 57 52 48 51 46 43 47 42 39 50 45 42 53 48 45 57 49 46 59 54 50 61 53 50 51 46 43 49 45 44 65 60 57 67 62 59 
62 65 56 62 65 56 58 61 52 55 58 49 51 54 47 46 49 42 43 46 39 34 37 30 34 37 30 28 29 24 28 29 24 73 55 35 74 51 35 81 59 38 82 60 37 84 66 46 85 70 47 83 67 44 79 58 39 73 54 37 57 47 38 55 46 39 50 50 50 51 49 50 51 51 51 51 51 51 50 50 50 50 50 50 49 49 49 48 48 48 47 47 47 51 51 51 51 51 51 46 46 46 47 47 47 51 51 51 52 52 52 48 50 49 50 50 50 50 50 50 50 50 50 47 47 47 42 42 42 39 39 39 32 32 32 32 32 32 31 31 31 32 32 32 31 31 31 32 32 32 31 31 31 31 31 31 31 31 31 31 31 31 30 30 30 31 31 31 31 31 31 30 30 30 29 29 29 30 30 30 30 30 30 29 29 29 29 29 29 29 29 29 29 29 29 27 26 24 26 22 19 31 27 24 42 37 34 39 35 32 34 30 27 30 31 26 22 21 17 24 20 19 33 30 25 35 31 30 33 29 28 32 28 27 32 28 25 31 27 26 31 27 26 30 26 25 34 30 29 64 56 53 62 57 53 51 48 43 52 47 44 54 49 43 54 49 46 49 44 41 46 40 40 49 44 41 55 50 47 57 49 47 59 54 50 59 51 48 52 47 44 52 48 45 60 55 52 58 54 51 
61 66 59 60 65 58 58 61 54 55 58 51 50 53 46 46 49 42 43 46 39 33 35 30 33 34 28 26 28 25 25 26 21 74 59 40 73 57 41 82 64 44 82 66 41 84 72 48 85 74 54 83 66 48 76 54 40 69 50 36 47 37 28 47 38 31 51 49 50 49 51 48 51 51 51 50 50 50 50 50 50 51 51 51 48 48 48 44 44 44 50 50 50 60 60 60 56 58 57 46 48 47 47 47 47 52 52 52 50 50 50 50 52 51 50 50 50 50 50 50 50 50 50 46 46 46 42 42 42 40 40 40 32 32 32 32 32 32 32 32 32 31 31 31 31 31 33 31 31 31 31 31 31 31 31 31 32 32 32 32 32 32 33 33 33 33 33 33 32 32 32 28 28 28 28 28 28 32 32 32 33 33 33 31 31 31 31 31 31 29 29 29 28 28 28 24 23 21 20 19 15 28 24 23 41 37 34 39 35 34 35 31 28 35 31 30 22 21 19 24 20 19 33 29 26 35 29 29 34 30 29 35 31 30 34 30 29 33 29 26 30 29 25 26 25 23 32 28 27 60 57 52 63 55 52 51 47 44 51 46 43 52 49 44 52 47 44 49 44 41 47 42 39 50 45 42 53 48 45 58 50 48 57 52 48 57 52 48 53 48 45 54 49 45 55 51 48 56 52 49 
61 66 59 61 66 59 56 61 54 56 59 52 49 52 45 43 46 39 40 42 37 26 28 23 27 29 24 26 29 22 26 28 23 55 51 42 54 50 41 76 59 49 80 62 50 69 57 41 64 51 35 52 47 28 37 38 20 38 39 21 34 42 21 36 43 27 50 50 50 51 49 50 50 50 50 51 51 51 50 50 50 51 51 51 49 49 49 48 48 48 50 50 50 54 54 54 51 53 52 46 48 47 47 47 47 51 51 51 50 50 50 49 51 50 53 53 53 51 51 51 50 50 50 46 46 46 42 42 42 39 39 39 32 32 32 31 31 31 32 32 32 31 31 31 31 31 33 32 32 34 30 30 30 31 31 31 30 30 30 29 29 29 32 32 32 32 32 32 32 32 32 30 30 30 30 30 30 31 31 31 31 31 31 31 31 31 32 32 32 29 29 29 28 28 28 26 25 23 21 20 18 25 21 20 27 23 22 30 26 25 34 30 27 34 30 29 18 17 15 21 15 15 32 26 26 32 28 25 33 29 26 35 31 30 36 32 31 39 34 30 36 32 31 34 30 27 34 30 29 40 36 33 41 36 33 62 57 53 62 57 53 53 48 45 52 47 44 51 46 43 51 46 43 51 46 43 51 46 43 51 46 43 52 47 41 51 46 42 44 41 34 43 40 35 38 42 28 38 42 28 
60 65 58 59 64 57 58 61 54 57 60 51 49 52 45 40 43 36 37 39 34 23 25 20 23 25 22 26 28 23 26 28 23 43 44 38 44 43 39 69 56 50 78 59 55 59 45 36 48 36 24 35 34 16 13 28 5 16 31 8 24 44 17 28 46 24 52 50 51 51 50 48 50 50 50 50 50 50 51 51 51 52 52 52 51 51 51 50 50 50 50 50 50 49 49 49 49 51 50 45 47 46 47 47 47 51 51 51 50 50 50 50 52 51 51 51 51 51 51 51 50 50 50 47 47 47 42 42 42 39 39 39 32 32 32 31 31 31 32 32 32 32 32 32 31 30 35 31 31 33 31 31 33 31 31 31 30 30 30 29 29 29 29 29 29 32 32 32 32 32 32 32 32 32 31 31 31 32 32 32 31 31 31 31 31 31 31 31 31 29 29 29 29 27 28 26 25 23 22 21 19 23 19 18 16 15 13 21 20 18 34 30 29 32 31 29 19 15 14 21 17 16 30 26 25 31 27 26 34 30 29 35 31 30 38 34 31 41 37 34 40 36 35 37 33 30 35 31 28 29 25 24 29 23 23 71 63 60 71 63 60 59 50 51 52 47 44 52 47 44 52 47 44 52 47 44 53 48 45 50 45 41 48 43 39 47 42 38 35 36 28 36 36 28 29 33 16 27 35 14 
62 65 58 61 64 57 54 57 50 48 51 44 43 46 39 38 41 34 35 38 31 25 28 21 26 28 23 26 28 23 27 28 22 40 40 38 40 41 35 53 50 43 60 53 43 46 44 31 39 38 20 26 34 13 13 28 5 14 32 8 24 42 16 28 43 22 50 50 50 50 50 48 47 47 47 47 47 47 50 50 50 51 51 51 54 54 54 56 56 56 55 55 55 52 52 52 51 51 51 48 48 48 47 47 47 51 51 51 51 51 51 51 51 51 50 50 50 50 50 50 51 51 51 46 46 46 42 42 42 41 41 41 32 32 32 32 32 32 32 32 32 31 31 31 31 31 31 32 32 32 31 31 31 31 31 31 32 32 32 30 30 30 30 30 30 33 33 33 33 33 33 34 34 34 34 34 34 31 31 31 31 31 31 31 31 31 30 30 30 29 29 29 28 30 29 24 24 22 19 18 16 22 18 17 21 20 18 25 21 20 29 25 24 26 25 23 21 17 16 19 18 16 31 27 26 32 28 27 33 29 28 32 28 27 33 31 32 37 33 32 37 33 30 36 32 31 36 32 31 30 26 25 31 27 26 53 48 44 53 48 45 53 50 43 51 46 43 49 46 37 45 45 35 45 45 33 46 46 36 45 45 33 44 44 32 44 44 32 37 41 24 37 41 26 31 36 16 27 35 14 
61 64 57 60 63 56 46 49 42 36 39 32 34 37 30 31 34 27 30 33 26 28 31 24 29 31 26 27 29 24 29 30 24 34 37 30 34 36 31 30 40 29 27 41 24 23 38 17 20 35 12 16 34 10 12 32 5 15 33 7 22 37 16 26 39 21 51 49 50 52 50 51 42 42 42 40 40 40 49 49 49 51 51 51 58 58 58 66 66 66 64 64 64 56 56 56 55 55 55 50 50 50 49 49 49 51 51 51 50 50 50 50 50 52 52 52 54 51 51 51 50 50 50 46 46 46 41 41 41 38 38 38 31 31 31 33 33 33 32 32 32 31 31 31 31 31 31 31 31 31 32 32 32 32 32 32 31 31 31 31 31 31 33 33 33 36 36 36 38 38 38 40 40 40 37 37 37 31 31 31 31 31 31 33 33 33 32 32 32 29 29 29 28 28 28 21 21 21 15 14 12 21 17 16 31 27 26 29 25 24 17 16 14 17 16 14 24 20 19 25 21 20 33 29 28 34 30 29 29 25 24 26 22 21 27 23 22 29 25 24 31 27 24 35 31 28 34 30 27 34 30 27 34 30 29 27 23 20 27 23 22 41 40 35 48 48 38 38 42 25 32 42 18 34 44 17 38 48 23 37 47 22 37 47 22 34 46 22 39 49 22 39 49 22 31 39 16 29 37 16 
57 60 53 53 56 49 42 45 38 36 39 32 34 37 30 32 35 28 32 35 28 30 33 26 30 33 26 28 30 25 28 31 24 33 35 30 32 34 29 30 40 29 31 44 27 25 40 19 24 40 14 22 38 12 17 36 8 18 37 9 23 38 17 28 39 22 50 48 49 50 50 50 41 41 41 40 40 40 49 49 49 51 51 51 56 56 56 62 62 62 57 57 57 51 51 51 51 51 51 53 53 53 53 53 53 50 50 50 50 50 50 50 50 50 50 50 50 50 50 50 50 50 50 46 46 46 42 42 42 40 40 40 33 33 33 32 32 32 32 32 32 32 32 32 31 31 31 31 31 31 32 32 32 31 31 31 32 32 32 34 34 34 34 34 34 32 32 32 33 33 33 37 37 37 36 36 36 31 31 31 31 31 31 31 31 31 32 32 32 29 29 29 29 29 29 22 20 21 13 12 8 19 18 16 32 28 27 30 26 25 20 19 17 20 19 17 25 21 20 22 21 19 34 28 28 35 31 28 32 28 25 31 27 24 32 28 25 33 29 26 34 30 27 36 31 28 34 30 29 32 28 25 32 28 27 26 25 23 26 25 21 36 36 28 40 40 32 34 38 21 28 38 14 31 41 17 34 44 20 35 43 20 36 44 21 36 46 21 38 46 23 37 49 25 33 40 22 32 39 21 
36 38 35 34 36 31 35 38 31 35 38 31 36 39 32 36 39 32 35 38 31 34 37 30 33 36 29 28 30 25 28 31 24 27 30 23 28 31 24 35 41 31 38 44 32 38 50 28 38 53 22 36 51 20 31 47 11 31 45 12 28 40 18 30 42 22 45 45 45 46 46 46 38 38 38 36 36 36 47 47 47 51 51 51 49 49 49 48 48 48 44 44 44 36 36 36 43 43 45 63 63 63 63 63 63 50 50 52 50 50 50 51 51 51 50 50 50 50 50 50 50 50 50 47 47 47 42 42 42 41 41 41 33 33 33 32 32 32 32 32 32 32 32 32 31 31 31 30 30 30 31 31 31 32 32 32 37 37 37 40 40 40 32 32 32 20 20 20 23 23 23 32 32 32 32 32 32 31 31 31 31 31 31 30 30 30 31 31 31 30 30 30 28 28 28 21 19 20 13 11 12 19 18 16 31 30 28 32 28 25 31 27 26 30 26 25 24 20 19 21 20 18 33 29 28 34 30 27 42 37 34 44 43 39 45 40 37 44 40 37 40 36 33 34 30 29 33 29 28 25 24 22 26 22 19 29 25 22 26 25 21 21 24 15 21 23 10 19 25 11 22 29 13 22 29 13 25 29 12 28 30 16 33 35 24 34 36 25 38 38 28 38 38 28 46 43 38 46 43 36 
36 38 35 34 36 31 35 38 31 35 38 31 36 39 32 36 39 32 35 38 31 34 37 30 33 35 30 29 32 25 29 31 28 29 30 25 28 30 25 34 42 31 39 45 35 38 50 26 38 53 22 36 51 18 32 46 10 32 46 13 27 39 17 29 41 21 45 45 45 46 46 44 38 38 38 36 36 36 47 47 47 50 50 50 50 50 50 48 48 48 44 44 44 36 36 36 43 43 43 63 63 65 64 64 66 51 51 51 51 51 51 51 51 51 50 50 50 51 51 51 50 50 50 46 46 46 43 43 43 38 38 38 32 32 32 32 32 32 32 32 32 32 32 32 30 30 30 31 31 31 31 31 31 31 31 31 36 36 36 40 40 40 32 32 32 19 19 19 23 23 23 32 32 32 32 32 32 31 31 31 31 31 31 32 32 32 31 31 31 31 31 31 30 30 30 21 21 21 13 12 10 19 18 16 29 30 24 32 28 25 31 27 24 31 27 26 20 19 17 20 19 17 33 29 28 35 31 28 43 38 35 47 42 39 45 40 37 43 38 35 40 36 33 31 30 28 33 29 26 24 23 21 24 23 21 25 24 22 27 26 22 22 23 15 19 23 9 20 27 11 22 29 11 24 28 13 25 29 14 26 30 16 33 35 24 34 36 25 38 38 30 38 38 30 45 42 37 49 44 40 
37 40 33 36 39 32 41 44 37 42 45 38 41 44 37 39 42 35 37 40 33 34 37 30 34 37 30 34 37 30 36 37 31 28 30 25 28 30 25 26 28 23 26 28 27 34 43 26 38 51 23 31 44 18 21 34 8 24 36 12 35 45 21 37 45 22 44 42 43 41 41 41 34 34 34 33 33 33 46 46 46 51 51 51 51 51 51 49 49 49 35 35 35 12 12 12 21 21 21 47 47 47 46 46 44 51 51 51 53 53 53 50 50 52 50 50 50 49 49 49 51 51 51 47 47 47 42 42 42 40 40 40 31 31 31 29 29 29 21 21 21 20 20 20 26 26 26 26 26 26 30 30 30 31 31 31 29 29 29 28 28 28 19 19 19 9 9 9 15 15 15 32 32 32 32 32 32 31 31 31 31 31 31 31 31 31 31 31 31 28 28 28 27 27 27 21 21 19 15 14 12 23 19 16 31 27 24 33 29 26 40 32 30 37 33 30 17 16 14 19 15 14 32 28 27 35 31 28 43 38 35 46 41 38 47 42 39 46 41 38 47 41 41 46 40 40 45 39 39 46 41 38 48 40 37 44 39 36 43 38 35 38 34 31 36 32 29 23 22 20 17 16 14 25 24 20 39 40 32 43 42 37 56 55 51 56 52 49 48 43 40 51 43 40 60 55 51 62 57 53 
38 39 33 38 41 34 42 45 38 43 46 39 41 44 37 38 41 34 37 40 33 33 38 31 35 36 30 34 37 30 34 37 30 28 31 24 28 30 25 27 29 26 26 28 23 33 42 23 37 50 24 31 43 19 23 36 10 25 38 12 36 46 21 36 46 22 42 42 42 43 43 43 34 34 34 32 32 32 47 47 47 51 51 51 50 50 50 49 49 49 35 35 35 12 12 12 21 21 21 47 47 47 46 46 46 51 51 51 51 51 53 51 51 51 50 50 50 50 50 52 50 50 50 46 46 46 42 42 42 40 40 40 31 31 31 30 30 30 21 21 21 21 21 21 26 26 26 26 26 26 28 28 28 31 31 31 30 30 30 28 28 28 21 21 21 9 9 9 15 15 15 32 32 32 31 31 31 31 31 31 30 30 30 32 32 32 32 32 32 29 29 29 27 27 29 19 21 20 15 13 14 21 20 18 30 26 25 33 29 26 37 33 30 37 33 30 18 17 15 17 16 14 31 30 28 33 29 26 43 38 35 45 41 38 46 41 38 47 42 39 46 41 38 46 41 38 46 41 38 45 39 39 44 40 37 44 39 36 45 37 35 37 33 32 37 33 32 23 22 20 16 15 13 25 24 20 38 39 33 44 43 38 55 54 49 57 53 50 49 44 41 48 43 39 62 54 52 61 56 53 
42 43 37 39 42 35 42 45 38 44 47 40 42 45 38 40 43 36 41 44 37 41 46 39 38 43 36 18 20 17 18 18 16 17 19 14 18 19 14 24 25 19 25 27 22 31 39 24 35 47 25 33 45 21 34 44 17 36 47 17 45 54 23 44 54 29 49 49 49 50 48 49 49 49 49 49 49 49 49 49 49 51 51 51 49 49 49 47 47 47 35 35 35 12 12 12 21 21 21 46 46 46 46 46 46 49 49 49 49 49 49 49 49 49 49 49 49 49 49 49 50 50 50 46 46 46 42 42 42 38 38 38 30 30 30 29 29 29 24 24 24 24 24 24 25 25 25 26 26 26 30 30 30 31 31 31 29 29 29 29 29 29 21 21 21 8 8 8 15 15 15 32 32 32 32 32 32 31 31 31 31 31 31 31 31 31 31 31 31 29 29 29 29 29 29 23 21 22 18 17 15 22 21 19 32 28 27 35 31 28 41 37 34 41 37 34 15 14 12 17 16 14 31 30 28 35 31 28 39 35 32 45 41 38 45 41 38 45 41 38 47 42 39 48 43 40 46 42 39 44 40 39 45 40 36 45 40 37 44 40 37 35 31 30 34 30 29 20 19 17 15 11 10 19 18 16 28 27 23 36 32 29 49 45 42 48 42 42 40 36 33 40 34 34 61 53 51 62 57 53 
43 44 39 40 42 37 42 45 38 43 46 39 41 44 37 40 43 34 39 44 37 45 48 41 40 42 37 16 16 14 15 17 14 16 16 14 17 17 15 21 23 18 23 25 20 31 37 23 36 45 26 35 45 21 34 47 17 39 50 20 46 55 24 48 54 26 50 50 52 50 50 50 50 50 50 50 50 50 50 50 50 50 50 50 49 49 49 46 48 47 34 34 34 12 12 12 21 21 21 46 46 46 46 46 46 50 50 50 48 49 51 48 48 50 47 47 49 49 49 49 51 51 51 46 46 46 42 42 42 39 39 39 29 29 29 29 29 29 24 24 24 25 25 25 25 25 25 25 25 25 30 30 30 31 31 31 30 30 30 28 28 28 21 21 21 8 8 8 15 15 15 33 33 33 32 32 32 31 31 31 31 31 31 31 31 31 31 31 31 30 30 30 30 30 28 21 21 19 18 17 15 23 22 20 32 28 27 35 31 28 43 39 36 42 38 35 16 15 13 17 16 14 31 30 28 35 31 28 40 36 33 45 40 37 46 40 40 45 41 38 47 42 39 49 44 41 47 43 42 44 40 37 44 40 37 45 41 38 47 42 39 35 31 28 33 29 26 20 19 17 13 12 10 17 16 14 30 26 23 35 31 28 49 44 41 48 43 40 39 33 33 38 34 31 60 55 52 62 57 51 
43 44 39 41 44 37 43 46 39 44 47 38 46 49 42 47 50 43 40 45 38 25 27 22 23 25 20 18 18 16 19 19 17 18 20 15 18 19 14 22 24 19 23 25 20 32 38 24 37 45 30 37 45 24 34 44 20 39 47 24 54 60 48 54 60 46 50 50 50 51 49 52 50 50 50 50 50 50 50 50 50 50 50 50 49 49 49 46 48 47 34 34 34 11 11 11 20 20 20 47 47 47 47 47 47 51 51 51 51 51 51 45 45 45 44 44 46 48 48 48 49 49 49 45 45 45 42 42 42 39 39 39 31 31 31 29 29 29 25 25 25 26 26 26 29 29 29 30 30 30 30 30 30 31 31 31 30 30 30 28 28 28 22 22 22 8 8 8 14 14 14 31 31 31 32 32 32 30 30 30 31 31 31 29 29 29 29 29 29 30 30 30 30 30 30 28 28 26 28 27 25 29 25 24 28 24 23 32 28 25 43 39 36 43 39 36 21 20 18 21 20 18 33 29 28 34 30 27 36 32 29 38 34 31 43 37 37 45 40 37 47 41 41 46 42 39 46 42 39 52 47 44 53 48 45 44 40 37 46 42 39 29 25 24 23 19 18 23 19 18 21 20 18 23 23 21 25 24 22 33 29 26 52 44 42 49 44 41 44 40 39 42 41 39 54 49 46 56 51 47 
43 43 41 42 43 37 42 45 38 43 46 39 46 49 42 50 53 46 42 44 39 18 20 19 20 21 16 18 20 15 16 21 15 18 20 15 19 21 16 23 24 19 23 25 20 30 36 26 36 44 31 37 44 26 33 41 20 40 47 29 59 62 55 59 62 55 51 51 51 50 50 52 51 51 51 51 51 51 50 50 50 50 50 50 47 47 47 46 48 47 33 33 33 12 12 12 20 20 20 46 46 48 46 46 46 51 51 51 51 51 51 45 45 45 42 42 44 48 48 48 49 49 49 46 46 46 42 42 42 39 39 39 30 30 30 31 31 31 26 26 26 26 26 26 32 32 32 31 31 31 31 31 31 30 30 30 29 29 29 27 27 27 20 20 20 7 7 7 14 14 14 31 31 31 31 31 31 31 31 31 31 31 31 28 28 28 28 28 28 30 30 30 31 31 33 29 29 29 30 29 27 28 27 25 26 22 21 31 27 24 43 39 36 45 41 38 21 21 19 24 20 19 30 26 25 32 28 25 35 31 28 36 32 31 41 37 36 47 42 39 47 42 38 46 42 39 50 45 42 54 49 46 54 49 46 46 41 38 44 40 37 28 24 23 20 19 17 25 21 20 27 23 22 24 23 21 25 24 22 32 28 27 52 44 42 49 45 42 44 43 41 43 42 37 53 48 45 55 50 46 
42 43 38 42 43 37 44 47 40 48 50 45 46 49 42 45 48 41 38 40 35 19 21 16 19 20 15 19 21 16 20 22 17 17 22 16 18 20 15 22 23 18 22 24 19 38 41 34 47 53 43 50 53 44 51 54 43 53 56 45 61 63 58 62 61 59 50 50 50 50 52 51 51 51 51 50 50 50 51 51 51 51 51 51 51 51 51 51 51 51 46 46 46 38 38 38 40 40 40 46 46 48 46 46 46 50 52 51 51 51 51 48 48 48 47 47 49 48 48 50 50 50 50 46 46 46 41 41 41 39 39 39 31 31 31 31 31 31 29 29 29 29 29 29 32 32 32 30 30 30 31 31 31 30 30 30 30 30 30 29 29 29 26 26 26 24 24 24 27 27 27 31 31 31 31 31 31 31 31 31 31 31 31 25 25 25 25 25 25 30 30 30 31 31 31 37 37 37 39 39 39 39 38 36 37 36 34 39 35 34 42 38 37 42 38 35 28 24 23 28 24 23 26 25 21 24 23 21 26 25 23 30 26 25 35 31 30 40 35 32 43 38 35 43 39 38 44 39 36 51 46 43 51 46 43 42 37 34 41 37 34 23 19 18 14 12 13 26 22 19 30 26 25 27 26 22 24 23 21 32 28 27 50 45 42 50 45 42 50 46 43 50 46 43 54 49 46 55 50 46 
43 44 39 42 43 38 47 50 43 50 53 46 45 48 41 37 40 33 33 35 32 18 20 15 19 19 17 20 22 17 20 23 16 16 21 15 20 22 17 21 22 17 21 23 18 43 45 42 57 59 54 60 62 59 67 67 67 66 68 65 63 63 63 61 61 61 50 50 50 49 49 49 51 51 51 50 50 50 50 50 50 50 50 50 53 53 53 56 56 56 60 60 60 66 66 66 61 61 61 45 45 47 46 46 46 50 52 51 50 50 50 51 51 51 50 50 52 50 50 52 50 50 50 46 46 46 42 42 42 40 40 40 32 32 32 32 32 32 31 31 31 31 31 31 32 32 32 31 31 31 30 30 30 31 31 31 30 30 30 28 28 28 34 34 34 41 41 41 38 38 38 30 30 30 32 32 32 32 32 32 32 32 32 24 24 24 23 23 23 31 31 31 33 33 33 41 41 41 49 49 49 49 49 49 48 48 46 47 46 44 37 36 34 40 36 35 30 29 27 30 29 25 23 19 18 20 19 17 21 20 18 23 22 20 30 26 23 35 31 30 36 32 29 40 36 35 41 37 34 46 41 38 46 41 38 39 35 32 38 34 31 17 16 14 9 8 6 24 23 21 33 29 28 30 26 23 26 22 19 32 28 27 49 45 42 50 45 41 55 49 49 55 51 48 57 49 47 55 50 46 
47 48 42 47 48 42 50 53 46 52 55 46 41 44 37 31 33 28 28 31 24 19 21 16 20 21 16 21 23 18 21 23 18 19 21 16 18 20 15 26 26 24 28 30 27 49 51 48 62 62 62 64 65 60 66 66 64 66 66 66 64 64 64 62 62 62 51 51 51 52 52 52 51 51 51 50 50 50 51 49 50 50 50 50 52 52 52 53 53 53 54 54 54 58 58 58 55 55 55 45 45 47 45 45 45 51 51 51 51 51 51 51 51 51 51 51 53 51 51 51 50 50 50 46 46 46 42 42 42 39 39 39 33 33 33 32 32 32 31 31 31 31 31 31 31 31 31 31 31 31 31 31 31 31 31 31 30 30 30 28 28 28 33 33 33 36 36 36 35 35 35 31 31 31 30 30 30 28 28 28 29 29 29 25 25 25 24 24 24 33 33 33 36 36 36 43 43 43 49 49 49 50 50 50 50 50 50 47 47 47 40 38 39 39 38 36 33 29 26 30 29 27 21 20 18 20 19 17 22 21 19 26 25 21 29 25 22 31 27 26 33 29 26 35 34 32 34 33 29 42 37 34 42 37 34 37 33 30 35 34 30 18 17 15 12 11 7 24 23 21 34 30 29 32 28 25 28 24 21 33 29 26 45 44 40 49 44 41 55 50 47 54 50 47 51 46 43 50 45 42 
52 55 48 53 56 49 55 58 49 57 60 51 37 40 33 18 20 15 19 21 16 21 23 18 21 23 18 22 23 18 22 23 18 18 20 17 18 20 15 33 35 32 38 38 36 58 58 56 70 70 70 68 68 68 66 64 65 65 65 65 66 66 66 63 63 63 53 53 53 52 52 52 50 50 50 51 51 51 52 50 51 50 50 50 50 50 50 49 49 49 47 47 47 43 43 43 43 43 43 44 44 44 44 44 44 50 50 50 50 50 50 51 51 51 50 50 52 50 50 50 50 50 50 46 46 46 40 40 40 39 39 39 32 32 32 32 32 32 31 31 31 31 31 31 31 31 31 31 31 31 31 31 31 31 31 31 30 30 30 28 28 28 26 26 26 27 27 27 27 27 27 31 31 31 30 30 30 21 21 21 21 21 21 27 27 27 28 28 28 38 38 38 41 41 41 45 45 45 48 48 48 50 50 50 53 53 53 51 51 51 41 41 41 41 41 41 34 30 27 34 30 27 17 17 15 17 16 14 29 25 24 34 29 26 29 26 21 22 20 21 26 22 21 30 26 25 31 27 24 35 31 28 34 30 27 35 30 27 34 30 29 16 14 15 12 11 9 26 25 23 35 31 30 34 30 27 33 29 26 35 31 30 44 40 37 47 42 39 52 47 44 53 48 45 44 40 37 41 37 36 
52 55 46 53 56 47 55 58 47 55 58 51 37 40 33 20 21 16 19 21 16 21 24 17 22 24 19 22 22 20 21 22 17 19 19 17 17 19 16 33 35 32 39 39 37 57 57 57 68 66 67 66 66 66 64 64 64 64 64 66 66 66 66 64 64 66 55 55 55 54 54 54 51 51 51 52 52 52 51 49 50 50 50 50 50 50 50 50 50 50 48 48 48 44 44 44 44 44 44 44 44 44 45 45 45 51 51 51 50 51 53 51 51 53 50 50 52 50 50 50 50 50 50 46 46 46 42 42 42 39 39 39 32 32 32 32 32 32 32 32 32 31 31 31 30 30 30 31 31 31 31 31 31 32 32 32 29 29 29 28 28 28 28 28 28 27 27 27 27 27 27 31 31 31 30 30 30 23 23 23 21 21 21 30 30 30 30 30 30 40 40 40 43 43 43 46 46 46 49 49 49 50 50 50 52 52 52 49 49 49 39 39 39 41 41 41 33 29 26 33 29 26 21 17 16 17 16 12 29 25 24 35 31 28 31 27 24 26 22 21 28 24 21 30 26 23 29 28 24 34 30 27 34 30 27 32 28 25 32 28 27 17 16 14 11 11 11 27 23 22 36 32 31 33 29 26 33 29 26 36 30 32 44 40 37 46 42 39 52 47 44 51 46 43 46 40 40 45 40 37 
54 55 47 54 55 47 51 54 45 49 52 43 36 39 32 20 22 17 21 23 20 24 26 21 24 26 21 20 22 17 20 22 17 18 20 15 18 20 15 33 33 31 38 38 36 42 42 40 44 44 44 49 49 49 57 57 57 60 60 60 70 70 70 70 70 70 65 65 65 65 65 65 62 62 62 61 61 61 53 51 52 50 48 49 50 50 50 50 50 50 50 50 50 51 49 50 50 50 50 50 50 50 50 50 50 49 49 49 50 50 52 50 50 52 50 50 52 51 51 53 50 50 50 46 46 46 42 42 42 39 39 39 32 32 32 32 32 32 31 31 31 32 32 32 31 31 31 31 31 31 31 31 31 32 32 32 31 31 31 31 31 31 32 32 32 32 32 32 31 31 31 30 30 30 32 32 32 38 38 38 37 37 37 46 46 46 47 47 47 52 52 52 54 54 54 50 50 50 45 45 45 41 41 41 34 34 34 34 34 34 34 34 34 33 33 33 20 19 17 20 19 15 20 16 15 17 16 14 30 26 25 37 33 30 39 36 31 43 39 36 39 35 34 33 29 28 32 28 25 23 19 18 23 19 18 28 24 23 26 25 23 15 13 14 12 11 9 26 22 21 33 29 26 33 29 26 32 28 27 35 31 28 46 41 38 47 42 39 47 43 42 49 44 41 53 49 48 53 49 50 
53 56 47 52 55 46 51 54 45 50 53 46 35 37 32 20 22 19 21 23 18 24 27 20 23 26 19 20 22 17 19 21 16 18 20 15 17 19 14 33 34 29 38 38 36 42 42 42 43 43 43 49 49 49 57 57 57 60 60 60 71 71 71 71 71 71 64 64 64 65 65 65 62 62 62 61 61 61 53 51 52 50 50 50 51 51 51 50 50 50 50 50 50 52 50 51 50 50 50 49 49 49 51 51 51 50 50 50 51 51 51 50 50 52 51 51 53 50 50 52 51 51 51 45 45 45 41 41 41 39 39 39 32 32 32 32 32 32 31 31 31 32 32 32 32 32 32 32 32 32 31 31 31 31 31 31 31 31 31 31 31 31 31 31 31 32 32 32 31 31 31 31 31 31 32 32 32 38 38 38 37 37 37 46 46 46 48 48 48 52 52 52 53 53 53 49 49 49 46 46 46 41 41 41 34 34 34 34 34 34 35 35 35 33 33 33 19 18 16 19 18 14 20 16 15 19 15 14 30 26 25 37 33 30 39 35 32 42 38 35 39 35 32 33 29 28 31 27 24 21 20 18 23 19 18 29 25 24 28 23 20 16 15 13 12 11 9 27 23 22 33 29 26 33 29 28 34 28 28 36 32 31 46 41 38 44 40 37 48 43 40 49 44 41 54 49 46 53 49 48 
54 57 48 54 57 48 37 40 33 27 30 23 24 26 21 22 24 19 22 24 19 21 23 18 21 23 18 22 24 21 22 25 18 25 27 22 24 26 21 34 35 30 38 38 36 40 40 40 40 40 40 40 40 40 36 36 36 37 37 37 45 45 45 47 47 47 64 64 64 63 63 63 68 68 68 68 68 68 65 65 65 65 65 65 59 59 59 55 53 54 53 53 53 51 51 51 50 50 50 50 50 50 49 49 49 51 51 51 50 50 50 51 51 51 50 50 50 50 50 50 50 50 50 46 46 46 42 42 42 39 39 39 32 32 32 32 32 32 31 31 31 31 31 31 31 31 31 31 31 31 32 32 32 32 32 32 32 32 32 30 30 30 32 32 32 34 34 34 37 37 37 45 45 45 47 47 47 51 51 51 52 52 52 50 50 50 50 50 50 39 39 39 35 35 35 34 34 34 34 34 34 33 33 33 33 33 33 33 33 33 38 38 38 36 36 36 32 42 17 32 42 17 25 29 14 23 27 13 26 30 16 28 32 18 31 33 22 36 36 28 38 37 33 47 42 39 46 42 39 43 38 35 42 38 35 32 28 25 28 27 25 19 18 16 14 12 13 18 14 11 20 16 15 23 22 20 33 29 26 34 30 27 37 33 30 37 33 30 43 39 36 43 40 35 28 35 17 27 34 16 
55 58 47 54 57 50 39 40 34 27 29 24 24 26 21 22 24 19 22 24 19 21 23 18 21 23 18 22 24 19 22 25 18 24 26 21 25 27 22 34 34 32 38 38 36 39 39 39 41 41 41 40 40 40 36 36 36 37 37 37 46 46 46 47 47 47 64 64 64 65 65 65 67 67 67 69 69 69 65 65 65 64 64 64 60 60 60 55 53 54 53 53 53 50 50 50 50 50 50 50 50 50 50 50 50 51 51 51 50 50 50 50 50 50 49 49 49 51 51 51 51 51 51 46 46 46 41 41 41 39 39 39 31 31 31 32 32 32 31 31 31 31 31 31 31 31 31 32 32 32 32 32 32 31 31 31 31 31 31 31 31 31 32 32 32 34 34 34 37 37 37 46 46 46 47 47 47 52 52 52 52 52 52 50 50 50 51 51 51 40 40 40 36 36 36 34 34 34 33 33 33 33 33 33 33 33 33 33 33 33 37 37 37 36 36 36 31 44 18 32 42 17 25 29 14 24 28 13 26 30 16 27 31 17 33 33 23 36 35 30 40 36 33 46 42 41 45 41 38 43 38 35 45 37 35 31 27 24 30 26 23 17 17 15 15 14 12 17 13 12 20 16 15 25 21 20 33 29 28 34 30 27 36 32 29 37 33 30 43 38 35 42 38 35 28 35 19 28 32 15 
48 54 44 48 53 46 33 36 29 23 25 20 23 25 20 24 26 21 24 26 21 20 22 17 20 22 17 24 26 21 23 25 20 18 20 15 17 19 14 29 29 27 32 32 30 45 45 45 52 52 52 50 50 50 46 46 46 42 42 42 33 33 33 35 35 35 46 46 46 45 45 45 50 50 50 50 50 50 65 65 65 69 69 69 66 66 66 66 64 65 63 63 63 61 61 61 59 59 59 51 51 51 51 51 51 42 42 42 43 43 43 40 40 40 40 40 40 40 40 40 40 40 40 41 41 41 42 42 42 39 39 39 32 32 32 32 32 32 31 31 31 31 31 31 31 31 31 33 33 33 32 32 32 32 32 32 38 38 38 42 42 42 44 44 44 48 48 48 49 49 49 52 52 52 51 51 51 41 41 41 41 41 41 31 31 31 28 28 28 33 33 33 34 34 34 34 34 34 34 34 34 38 38 38 44 44 44 41 41 41 35 35 35 35 35 35 24 26 13 24 28 13 27 32 12 25 32 14 28 37 16 29 38 17 26 33 15 24 28 13 27 31 17 32 32 22 33 33 25 44 40 37 45 40 37 32 28 25 30 29 25 20 19 17 14 13 11 25 24 22 32 28 25 27 26 22 18 19 14 20 21 15 24 28 13 26 30 15 32 35 24 31 34 23 28 35 17 27 34 16 
50 53 44 48 51 42 32 34 29 22 24 19 23 25 22 26 28 23 24 27 20 20 22 17 20 22 17 23 25 20 24 26 21 16 18 13 17 19 14 28 28 26 32 32 30 46 46 44 53 53 53 52 52 52 48 48 48 44 44 44 31 31 31 33 33 33 43 43 43 44 44 44 48 48 48 47 47 47 64 64 64 69 69 69 67 67 67 66 66 66 65 65 65 62 62 62 60 60 60 51 51 51 50 50 50 41 41 41 41 41 41 39 39 39 38 38 38 38 38 38 37 37 37 41 41 41 43 43 43 40 40 40 31 31 31 33 33 33 32 32 32 32 32 32 32 32 32 32 32 32 32 32 32 31 31 31 40 40 40 43 43 43 46 46 46 50 50 50 51 51 51 52 52 52 51 51 51 40 40 40 39 39 39 25 25 25 24 24 24 30 30 30 33 33 33 34 34 34 33 33 33 38 38 38 46 46 46 43 43 43 35 35 35 35 35 35 22 26 11 22 26 12 26 33 15 27 34 18 29 39 15 31 39 16 26 34 13 23 27 12 24 28 14 29 31 20 31 32 24 44 40 37 45 39 39 33 29 26 33 29 26 18 17 15 14 13 11 28 24 23 34 30 27 28 24 21 17 16 12 18 19 13 23 27 12 23 30 14 30 36 22 31 34 23 27 34 16 27 35 14 
41 44 37 40 43 36 29 32 25 24 26 21 25 27 22 26 28 23 24 26 21 19 21 16 20 22 17 24 27 20 26 29 22 19 21 16 20 22 17 29 29 29 32 32 32 40 40 40 44 44 44 45 45 45 45 45 45 46 46 46 46 46 46 45 45 45 44 44 44 44 44 44 45 45 45 45 45 45 51 51 51 53 53 53 57 57 57 59 59 59 62 62 62 69 69 69 66 66 66 59 59 59 59 59 59 51 51 51 52 52 52 44 44 44 44 44 44 42 42 42 41 41 41 42 42 42 42 42 42 39 39 39 32 32 32 32 32 32 31 31 31 31 31 31 37 37 37 38 38 38 41 41 41 41 41 41 47 47 47 50 50 50 49 49 49 46 46 46 44 44 44 41 41 41 40 40 40 35 35 35 36 36 36 30 30 30 29 29 29 37 37 37 39 39 39 38 38 38 38 38 38 35 35 35 36 36 36 35 35 35 32 32 32 32 32 32 28 28 20 28 28 18 23 26 17 22 23 15 25 28 17 27 31 17 33 35 24 37 34 27 37 37 29 38 37 32 40 37 32 46 41 38 46 41 38 34 30 27 34 30 27 22 18 17 15 14 12 26 25 23 34 30 27 28 27 22 20 21 15 21 23 12 20 27 9 21 28 12 21 27 13 21 27 13 22 29 13 22 29 11 
36 38 33 35 38 31 26 31 24 25 27 22 25 27 22 25 27 22 24 26 21 19 21 16 20 22 17 24 27 20 25 28 21 20 22 17 20 22 17 28 28 26 32 32 32 37 37 37 40 40 40 40 40 40 43 43 43 46 46 46 54 54 54 54 54 54 44 44 44 45 45 45 44 44 44 45 45 45 43 45 44 44 44 44 49 49 49 54 54 54 62 62 62 71 71 71 70 70 70 63 63 63 65 65 65 59 59 59 58 58 58 47 47 47 46 46 46 45 45 45 43 43 43 42 42 42 40 40 40 39 39 39 32 32 32 32 32 32 31 31 31 31 31 31 40 40 40 40 40 40 46 46 46 48 48 48 52 52 52 53 53 53 50 50 50 43 43 43 41 41 41 33 33 33 34 34 34 33 33 33 33 33 33 33 33 33 32 32 32 40 40 40 43 43 43 41 41 41 38 38 38 35 35 35 30 30 30 31 31 31 30 30 30 31 31 31 33 29 28 30 29 25 20 21 16 19 18 14 25 22 15 24 25 17 34 33 28 45 40 37 45 41 38 44 40 37 44 40 37 44 40 37 45 41 38 34 30 27 34 30 27 22 18 17 16 15 13 28 24 21 34 30 27 28 27 23 21 22 14 22 23 15 22 29 13 20 27 11 15 22 6 16 22 8 19 23 9 19 26 10 
36 39 30 34 37 30 29 31 26 25 27 22 25 27 22 27 30 23 25 27 22 20 22 17 20 22 17 23 25 20 24 26 21 21 23 18 20 22 17 25 27 24 28 28 26 35 35 35 40 39 37 40 40 40 42 42 42 41 43 42 44 44 44 44 44 44 47 45 46 47 45 48 48 48 48 49 49 49 45 45 45 44 44 44 46 46 46 49 49 49 52 52 52 58 58 58 59 59 59 63 63 63 63 63 63 64 64 64 63 63 63 56 56 56 55 55 55 51 51 51 48 48 48 44 44 44 41 41 41 38 38 38 33 33 33 35 35 35 39 39 39 39 39 39 46 46 46 46 46 46 48 48 48 48 48 48 46 46 46 44 44 44 42 42 42 38 38 38 38 38 38 33 33 33 33 33 33 36 36 36 36 36 36 38 38 38 38 38 38 37 37 37 38 38 38 35 35 35 35 35 35 34 34 34 31 31 31 31 31 29 32 32 30 32 32 30 30 29 25 30 29 25 22 21 17 20 19 15 26 25 21 29 28 24 38 34 31 45 41 38 45 40 37 46 41 37 45 40 37 43 37 37 41 37 36 35 29 29 35 31 28 20 19 17 19 15 14 27 26 24 34 30 29 34 30 27 30 27 22 29 29 21 30 32 21 30 31 23 29 29 21 30 30 20 33 35 24 35 37 26 
37 40 31 34 37 30 30 33 26 26 28 23 26 28 23 26 29 22 25 27 22 20 22 17 21 23 18 21 23 18 22 24 19 20 22 17 21 23 18 22 24 19 23 24 19 33 33 31 40 38 39 39 39 37 39 39 39 38 38 38 32 32 32 34 36 35 46 46 46 47 47 47 54 54 54 55 55 55 46 46 46 43 43 43 43 43 43 44 44 44 44 44 44 44 44 44 50 50 50 61 61 61 61 61 61 69 69 69 70 70 70 64 64 64 64 64 64 57 57 57 53 53 53 47 47 47 41 41 41 40 40 40 38 38 38 39 39 39 47 47 47 47 47 47 53 53 53 52 52 52 49 49 49 48 48 48 39 39 39 34 34 34 34 34 34 33 33 33 32 32 32 34 34 34 33 33 33 39 39 39 39 39 39 41 41 41 43 43 43 34 34 34 32 32 32 31 31 31 29 31 30 30 30 32 29 29 31 32 32 32 35 33 34 35 34 32 29 28 24 31 27 24 23 22 20 22 21 17 31 27 24 35 31 28 40 36 33 44 40 37 45 40 37 45 40 37 46 41 38 37 33 30 36 35 33 35 31 30 35 31 28 23 19 18 18 17 15 30 26 25 35 31 28 37 33 30 34 33 29 37 33 30 40 37 32 40 36 33 43 39 36 43 39 36 47 46 42 48 47 42 
