P3
100 50
255
31 37 37 33 38 41 33 39 39 34 40 40 33 39 39 35 39 40 35 39 40 35 37 36 35 37 36 33 35 34 33 35 34 34 36 35 35 37 36 32 38 38 34 38 39 33 37 40 30 38 40 28 38 39 22 37 40 22 37 42 22 37 42 19 37 41 27 38 40 28 36 39 29 35 35 28 34 34 25 34 33 28 33 29 28 33 29 29 31 26 30 32 27 19 19 17 20 19 17 22 23 18 20 21 16 21 23 18 21 22 17 21 23 20 23 24 19 19 20 15 14 14 12 13 13 11 13 15 12 12 12 10 13 13 11 13 13 11 10 10 8 9 9 7 10 10 8 11 11 9 10 10 8 10 10 8 10 12 9 12 19 12 13 18 12 4 16 6 5 15 6 2 14 2 2 14 2 5 13 0 6 14 1 10 18 5 15 19 5 17 23 9 25 25 15 26 24 12 30 19 15 28 19 14 12 12 12 10 12 11 2 12 13 0 10 11 2 12 13 1 13 13 0 11 13 1 12 14 3 14 16 3 17 17 3 18 15 7 22 19 6 22 19 7 23 20 7 23 20 7 26 24 8 24 23 7 26 24 7 26 24 7 23 22 5 24 22 5 23 23 4 19 22 1 19 21 1 12 14 2 13 15 1 11 13 0 10 12 1 11 13 1 9 12 1 11 13 0 10 12 
31 36 40 34 39 43 33 39 39 32 37 40 35 39 40 33 37 38 37 38 40 35 37 36 34 36 35 34 36 33 33 35 34 34 36 35 31 37 35 33 37 38 33 37 38 33 37 40 30 38 40 30 38 40 22 37 42 23 36 42 19 37 41 18 37 41 26 37 39 29 37 39 30 36 36 29 33 34 27 33 33 29 31 30 29 31 28 30 31 26 30 32 27 19 19 17 20 20 18 20 22 17 22 23 18 22 23 18 22 23 18 21 23 20 22 23 18 18 20 17 11 13 10 13 13 11 12 14 11 13 13 11 13 13 11 13 13 11 10 10 8 9 9 7 9 9 7 9 9 7 10 10 10 10 10 10 10 12 9 11 18 11 11 18 10 3 15 1 4 16 4 1 13 1 1 13 1 3 14 0 4 15 1 11 17 3 15 18 7 18 22 8 24 26 13 24 24 12 27 18 13 28 19 14 12 12 12 12 12 12 2 12 13 2 12 13 0 11 13 0 12 12 2 12 14 0 13 14 0 14 15 2 16 16 3 18 15 6 21 18 6 23 17 7 23 20 7 23 22 6 25 21 9 25 22 7 26 22 6 25 21 6 25 23 5 24 22 4 22 22 2 20 22 3 18 21 2 13 15 1 12 14 1 11 13 0 10 12 0 10 12 1 9 12 1 9 12 1 11 13 
27 36 35 30 36 36 31 37 37 33 37 36 32 36 37 32 36 35 34 36 35 33 35 32 33 35 34 32 34 33 33 35 32 31 35 34 32 36 39 35 36 40 32 37 40 31 36 39 29 37 39 28 38 40 13 37 41 12 37 42 24 38 41 25 36 40 26 36 38 28 36 38 27 33 33 28 32 35 29 30 32 26 30 29 28 30 27 27 28 23 26 26 24 19 20 15 19 19 17 21 23 18 21 23 20 21 22 17 21 23 18 21 21 19 20 21 16 16 18 15 13 15 12 13 13 11 13 13 11 12 14 11 12 12 10 12 12 10 10 10 8 9 9 7 9 9 7 10 10 8 10 10 10 10 10 8 10 12 7 11 18 11 10 17 10 2 14 4 3 13 2 1 13 1 1 13 1 0 12 0 1 13 1 3 14 0 6 14 1 8 16 3 13 17 3 13 17 3 15 17 6 17 17 5 17 20 11 17 19 8 19 14 10 19 14 10 11 13 12 8 12 13 6 15 14 3 15 15 2 16 16 3 19 18 4 18 18 4 16 16 3 17 17 4 18 18 6 18 18 9 24 19 10 25 20 9 25 22 10 27 21 6 22 19 3 19 18 2 16 17 1 12 16 1 12 14 1 11 13 2 12 14 1 11 13 0 10 12 1 11 13 1 11 13 1 11 13 0 10 12 
30 34 35 30 36 36 32 38 38 32 36 37 31 35 34 30 35 31 33 35 34 33 35 32 33 35 34 33 35 32 30 35 31 31 35 34 32 36 35 32 38 38 32 38 38 31 36 39 29 37 40 28 38 40 10 35 40 12 35 41 26 37 41 27 37 39 26 34 37 29 34 37 26 32 30 26 32 30 27 31 32 28 30 25 28 30 29 25 26 21 25 25 23 19 19 17 19 19 17 21 23 18 21 23 20 21 21 19 23 24 19 19 21 18 19 20 15 17 17 15 12 12 10 13 13 11 12 14 11 14 14 12 12 12 10 13 13 11 9 9 7 9 9 7 8 8 6 9 9 7 10 10 10 10 10 8 11 13 10 12 18 14 11 18 11 4 16 4 4 14 5 1 13 1 1 13 1 0 12 0 0 12 0 1 13 1 3 13 2 5 16 2 11 15 1 10 16 2 15 17 4 15 17 4 18 22 8 18 20 7 20 15 9 23 14 7 13 12 10 11 13 12 5 14 11 4 16 16 4 16 16 5 20 17 5 20 17 4 16 16 3 15 13 5 17 15 5 17 17 9 24 19 11 26 21 10 25 20 9 26 20 7 22 19 6 18 18 4 15 17 1 11 13 1 12 14 0 11 13 1 11 13 0 10 12 0 10 12 1 11 13 1 11 13 0 10 12 0 10 12 
28 30 29 28 32 31 28 32 31 29 31 30 29 31 30 30 32 29 30 30 28 30 32 29 31 33 30 29 34 30 29 33 32 30 34 35 31 35 38 30 35 38 30 35 39 28 36 39 27 37 39 26 36 38 17 36 42 17 36 42 25 36 40 26 36 38 26 34 36 28 32 35 26 30 31 25 29 28 26 31 27 27 29 26 27 29 24 25 26 21 26 27 22 20 21 16 19 20 15 22 23 18 22 23 18 22 24 19 24 25 20 19 21 16 17 18 13 14 16 11 13 13 11 13 15 12 12 12 10 11 13 10 14 14 12 12 12 10 9 9 7 9 9 7 9 9 7 8 8 6 10 10 8 11 11 9 12 12 10 13 18 12 9 16 9 3 15 5 2 15 5 1 13 1 1 13 1 0 12 0 1 13 1 1 13 1 2 12 1 2 12 1 3 13 2 6 14 1 8 14 0 10 17 1 9 15 1 10 16 2 12 15 4 12 16 2 11 14 5 11 14 5 12 13 7 14 13 8 14 15 10 10 19 16 11 17 15 0 15 14 0 13 13 2 14 14 3 11 13 3 17 17 3 18 15 8 23 20 9 24 19 11 23 21 8 23 20 6 21 18 3 13 15 2 12 14 1 12 14 1 12 14 0 11 13 0 11 13 1 11 13 0 10 12 0 8 11 1 11 13 
26 28 25 28 30 29 28 30 29 28 30 29 28 30 27 29 31 28 29 31 28 30 32 29 27 32 28 27 32 28 27 31 30 29 33 34 30 36 36 28 36 38 28 36 39 28 36 39 26 37 39 26 37 41 18 35 42 17 36 43 23 34 38 25 35 37 28 32 33 26 31 34 26 30 31 24 28 27 25 30 26 27 29 26 27 27 25 24 26 23 25 27 24 19 20 15 19 20 15 21 22 17 23 24 19 22 24 19 22 24 19 20 21 16 16 18 13 16 16 14 13 15 12 13 13 11 12 14 11 13 13 11 13 13 11 13 13 11 9 9 7 8 8 6 9 9 7 10 10 8 10 10 8 11 11 9 12 13 8 11 18 10 11 18 10 4 16 4 3 15 3 1 13 1 1 13 1 1 13 1 0 14 1 0 13 0 0 12 0 0 12 0 1 13 1 2 12 1 7 13 1 7 13 1 8 14 0 8 14 0 9 15 3 10 14 0 9 15 3 9 15 1 14 14 4 17 12 6 15 14 9 11 16 12 10 16 14 2 14 14 0 14 14 1 12 14 1 13 13 1 15 15 4 16 14 6 21 18 11 23 19 11 23 19 9 24 19 10 22 20 3 13 15 2 14 14 0 11 13 1 11 13 1 11 13 1 11 13 1 11 13 2 12 14 1 11 13 1 11 13 
24 29 25 27 27 25 26 28 25 27 29 26 28 29 24 28 30 25 28 28 26 28 30 27 26 31 27 28 32 31 27 31 30 28 32 33 26 34 36 27 35 37 26 36 38 26 35 40 21 34 40 21 34 40 23 34 40 21 35 38 21 32 34 22 32 34 25 30 33 25 31 31 24 28 27 22 27 23 25 27 24 26 28 23 26 28 25 27 27 25 25 25 23 19 20 15 19 20 15 20 21 16 20 22 17 23 24 19 24 24 22 18 20 17 15 15 13 13 15 12 13 13 11 13 15 12 11 11 9 10 12 9 10 10 8 11 11 9 9 9 7 9 9 7 8 8 6 9 9 7 9 9 9 12 12 12 11 13 10 11 18 10 9 19 10 3 15 3 3 15 3 1 13 1 1 13 1 2 14 2 2 14 2 1 13 1 0 12 0 2 14 2 1 13 1 1 13 1 4 15 1 3 14 0 7 15 2 6 14 0 8 14 2 8 14 0 8 14 0 9 15 1 10 14 0 11 14 3 11 14 3 8 13 6 8 16 5 10 12 9 9 11 6 6 12 12 6 12 12 2 14 14 1 15 15 3 17 18 3 18 15 4 19 16 4 18 18 3 17 17 1 13 13 3 13 14 0 11 13 1 12 14 1 11 13 1 11 13 0 9 11 2 10 13 1 11 13 1 11 13 
23 28 22 26 28 25 26 28 25 26 28 25 26 28 23 26 28 23 27 27 25 28 30 27 28 30 27 27 31 30 26 30 29 27 33 33 27 32 36 27 35 38 26 36 38 24 35 39 16 33 40 19 37 41 24 35 39 21 35 36 22 32 34 21 31 33 24 29 32 24 30 30 24 28 27 24 26 23 25 27 24 26 28 23 26 28 23 25 27 22 24 25 20 20 21 16 18 19 14 17 22 16 18 20 15 23 23 21 24 26 23 19 19 17 13 15 12 13 13 11 12 14 11 14 14 12 10 12 9 11 11 9 11 11 9 13 13 11 9 9 7 8 8 6 7 7 5 9 9 7 10 10 8 11 11 9 11 13 10 11 18 11 8 18 10 2 14 4 3 15 5 1 13 1 1 13 1 0 12 0 0 12 2 1 13 3 1 13 1 0 12 0 1 13 1 2 14 2 2 14 2 1 13 1 8 14 2 7 15 0 7 13 1 9 15 1 8 17 0 10 13 2 8 14 0 7 13 1 7 15 4 7 15 2 7 15 0 15 10 4 14 11 6 10 12 11 9 11 10 3 13 12 1 15 16 2 14 14 0 14 14 0 14 15 0 14 14 0 14 14 2 12 14 1 12 14 0 11 13 1 12 14 1 11 13 1 11 13 2 12 14 1 11 13 1 11 13 1 11 13 
25 27 22 26 27 22 25 27 24 27 27 25 26 28 23 26 27 22 26 28 23 26 28 25 27 29 26 26 30 29 27 31 30 27 32 35 26 34 36 25 35 37 26 36 38 26 36 38 20 35 40 19 37 41 23 34 38 23 34 36 22 32 34 22 30 33 24 28 31 25 29 28 25 26 28 22 27 23 25 27 24 28 29 24 26 27 22 24 26 21 22 27 21 18 19 14 20 21 16 19 20 15 20 22 19 19 21 18 21 21 19 16 18 15 14 14 12 12 14 11 14 14 12 12 14 11 12 12 10 10 12 9 10 10 8 10 10 8 10 10 8 11 11 9 9 9 7 7 7 7 10 10 10 11 11 13 12 14 11 11 18 11 8 18 9 3 15 5 3 15 5 1 13 1 2 14 2 0 12 0 0 12 0 1 13 1 1 13 1 0 12 0 1 13 1 1 13 1 2 12 1 3 13 2 7 15 2 4 15 1 6 12 0 6 14 0 7 13 1 8 16 3 7 13 1 6 14 0 8 14 2 6 14 1 6 14 1 9 10 4 9 12 5 6 12 8 6 13 6 7 12 8 5 14 11 4 15 11 3 15 13 2 14 14 2 14 14 2 14 14 1 13 13 2 13 15 1 12 14 1 12 14 0 11 13 1 13 13 1 13 13 1 13 13 0 12 12 1 13 13 
26 25 21 26 26 24 26 27 22 26 27 22 25 27 22 26 27 22 26 28 23 25 27 24 26 28 25 25 29 28 26 30 29 27 32 35 25 33 35 28 33 37 26 33 39 26 34 37 21 34 40 23 34 40 21 30 35 20 29 34 22 30 32 22 30 32 24 28 29 22 26 25 24 26 23 23 25 22 24 26 23 28 29 24 25 26 21 21 23 18 23 24 19 21 22 17 21 22 17 23 24 19 24 25 20 17 19 14 14 16 13 13 13 11 11 13 10 13 13 11 12 14 11 14 14 12 10 12 9 11 11 9 10 10 8 10 10 8 11 11 9 10 10 8 10 10 8 7 7 5 10 10 8 13 13 11 13 13 11 11 18 10 8 18 9 3 15 3 3 15 3 1 13 1 1 13 1 1 13 1 0 12 2 1 13 1 1 13 1 1 13 1 0 12 0 1 13 1 1 13 1 1 13 1 5 13 2 3 13 2 3 14 0 3 13 2 4 15 1 3 14 0 5 13 0 2 13 0 3 13 2 3 13 2 3 13 2 1 13 1 2 12 1 1 13 1 1 13 1 12 14 3 12 11 6 10 12 9 8 12 11 4 13 12 1 13 13 1 13 13 0 13 13 1 12 14 2 12 13 0 12 12 0 13 13 1 13 13 1 13 13 2 14 14 1 13 13 1 13 13 
25 26 21 26 25 21 25 26 21 25 27 22 25 27 22 24 26 23 25 26 21 23 28 24 25 27 24 27 29 28 25 29 28 26 31 34 26 31 35 25 33 36 24 33 38 23 32 37 21 32 38 22 33 39 20 29 34 21 28 34 23 28 31 23 29 29 23 27 26 22 26 25 24 26 23 24 26 23 24 26 23 26 28 23 25 27 22 22 23 18 22 23 18 21 22 17 21 22 17 23 25 20 22 24 19 17 18 13 15 15 13 13 15 12 14 14 12 11 13 10 13 13 11 11 13 10 11 11 9 10 12 9 9 9 7 9 9 7 11 11 9 10 10 8 9 9 7 7 7 5 10 10 8 12 12 12 10 12 9 9 19 10 9 19 10 4 16 4 4 16 4 2 14 2 1 13 1 1 13 1 1 13 1 1 13 1 0 12 0 1 13 1 1 13 1 0 12 0 1 13 1 1 13 0 3 13 2 2 13 0 5 13 2 3 14 0 3 13 2 3 14 0 4 12 0 2 13 0 3 14 0 3 14 0 2 12 1 1 13 1 2 13 0 2 14 2 2 12 1 9 12 5 10 11 3 5 12 5 6 12 8 6 12 10 4 13 12 4 14 13 1 13 13 1 13 13 0 14 14 1 13 13 2 14 14 0 14 14 0 13 13 2 14 14 1 13 13 0 13 13 
24 25 20 25 26 21 25 25 23 23 25 22 23 25 20 20 22 19 21 22 17 22 24 21 20 22 19 25 27 26 24 28 27 21 29 31 21 29 31 18 27 32 15 25 34 14 29 34 18 29 35 18 29 33 19 29 31 19 29 30 22 28 28 21 27 27 22 27 23 22 27 23 22 27 23 24 26 21 24 26 21 23 25 20 22 24 19 23 24 19 23 24 19 23 24 19 23 24 19 21 21 19 21 21 19 14 16 13 13 15 12 13 13 11 12 14 11 12 12 10 12 14 11 13 13 11 10 12 9 10 10 8 10 10 8 10 10 8 9 9 7 9 9 7 9 9 7 8 8 6 11 11 9 13 13 11 11 16 12 9 19 10 9 19 8 7 19 5 7 19 5 4 16 2 2 16 3 2 14 2 1 13 1 1 13 1 0 12 0 1 13 1 1 13 1 1 13 1 1 13 1 1 13 1 1 11 0 1 13 1 1 13 1 1 13 1 1 13 1 1 13 1 2 12 1 0 12 0 1 13 1 1 13 1 0 12 0 1 13 3 1 13 1 1 13 0 1 13 1 0 12 0 1 13 1 2 14 2 1 13 1 6 12 2 11 10 5 11 12 7 7 13 9 5 14 11 2 14 12 0 15 12 1 13 11 2 14 14 2 14 14 0 14 14 0 14 14 0 13 14 
24 26 23 24 26 21 25 26 21 23 25 22 23 23 21 20 22 19 22 23 18 22 24 23 21 23 20 24 28 27 26 32 32 22 27 30 19 27 30 19 28 33 16 26 35 15 28 34 16 29 35 19 28 35 19 29 31 21 29 31 21 26 29 22 26 27 24 26 25 23 25 22 24 26 23 25 27 22 24 26 21 23 26 19 23 23 21 22 22 20 21 23 20 24 24 22 23 23 21 20 22 19 20 20 18 14 16 13 12 14 11 12 14 11 12 14 11 12 14 11 12 14 11 11 13 10 11 13 10 9 11 8 11 10 8 9 9 7 9 9 7 8 8 6 8 8 6 7 9 8 10 12 11 14 14 14 12 14 11 10 20 9 9 19 10 6 20 5 6 20 5 2 16 1 2 14 2 1 15 0 1 15 2 1 13 1 1 13 1 0 12 0 1 13 1 1 13 1 1 13 3 0 12 2 2 14 2 1 13 1 2 14 2 1 13 1 1 13 1 0 12 0 1 13 1 1 13 1 1 13 1 0 12 0 1 13 1 1 13 1 1 13 1 2 14 2 1 13 1 0 14 1 1 13 1 0 12 0 0 11 0 7 13 3 12 11 6 11 12 7 6 12 8 7 13 9 1 13 11 2 14 12 2 14 12 1 13 13 2 14 12 2 14 12 1 13 13 2 14 12 
16 16 14 15 15 13 14 16 13 15 15 13 13 15 12 18 20 17 17 19 14 18 20 19 18 20 17 18 22 21 18 22 23 18 23 26 18 23 27 17 25 27 18 26 29 17 27 29 19 27 29 19 27 29 19 24 27 19 25 25 20 24 25 20 24 23 26 28 25 25 27 24 26 28 23 26 28 25 25 27 22 25 26 21 24 26 23 21 21 19 21 23 20 20 20 18 20 20 18 14 16 13 14 14 12 12 12 10 12 14 11 11 13 10 11 13 10 11 13 10 12 14 11 11 13 10 9 11 8 9 11 8 7 9 6 8 8 6 8 8 6 6 6 6 7 9 8 8 8 6 11 11 9 14 16 15 16 18 15 18 29 15 17 28 14 10 23 6 10 23 5 7 22 3 7 22 3 7 22 3 6 20 3 5 17 3 3 15 3 1 13 1 0 12 0 0 12 0 0 12 0 1 13 1 0 12 0 0 12 0 1 13 1 0 12 0 2 12 1 1 13 1 1 13 1 1 11 0 0 13 0 1 13 1 1 13 1 1 13 1 0 12 0 0 12 0 0 12 0 1 13 1 2 12 1 1 13 1 1 13 1 1 13 1 0 12 0 0 12 0 0 13 0 2 12 3 11 12 6 10 11 5 8 13 7 6 12 8 4 15 9 2 14 10 2 14 10 1 14 7 
14 16 11 13 15 10 14 15 10 14 16 13 15 15 13 18 18 16 18 18 16 18 20 17 17 19 16 17 21 20 17 21 20 17 23 23 16 24 26 17 25 27 18 26 29 18 26 29 18 26 29 18 26 29 20 25 28 19 25 25 20 24 23 22 24 23 25 27 24 26 28 25 26 28 25 26 28 25 26 27 22 26 26 24 24 26 23 21 21 19 21 23 20 20 20 18 21 21 19 13 15 12 13 13 11 13 13 11 12 14 11 12 14 11 11 13 10 11 13 10 11 13 10 11 13 10 10 12 9 9 11 8 6 11 5 8 8 6 7 7 5 7 7 7 8 8 8 9 9 7 12 13 8 13 15 12 17 17 15 20 28 15 19 27 14 10 21 5 9 22 5 8 23 4 6 23 5 7 21 4 6 20 3 5 17 3 2 14 0 3 15 3 1 13 1 1 13 1 0 12 0 0 12 0 1 13 1 0 14 1 0 14 1 1 13 1 0 12 0 0 12 0 1 13 1 0 12 0 1 13 1 1 13 1 0 12 0 0 12 0 1 13 1 0 12 0 1 13 1 1 13 1 1 13 1 1 13 1 1 13 1 1 13 1 0 12 0 0 12 0 0 12 0 2 12 1 10 11 5 11 11 3 8 13 7 8 14 10 2 15 8 1 13 9 0 15 10 1 13 9 
14 14 12 13 13 11 14 16 13 18 18 16 17 19 16 18 20 17 18 20 17 17 19 16 18 20 17 16 20 19 18 20 19 17 21 22 19 23 22 19 23 24 19 25 25 19 25 25 17 23 23 18 24 24 22 26 25 21 25 24 25 30 26 28 30 27 28 28 26 26 28 23 21 23 20 19 20 15 17 17 15 16 16 14 16 16 14 14 14 12 13 15 12 12 12 10 13 13 11 12 14 11 12 12 10 11 13 10 10 12 9 11 13 10 10 12 9 10 12 9 10 12 9 9 11 8 7 9 6 8 10 7 9 11 8 9 9 7 7 7 5 7 7 5 7 7 5 8 8 6 11 13 10 16 18 13 11 21 12 11 25 8 10 24 7 8 22 5 7 21 4 6 20 3 6 20 3 6 20 3 6 20 3 6 20 3 5 19 2 3 20 2 5 19 2 2 19 3 2 16 1 3 17 4 2 16 3 1 15 2 1 15 2 1 15 2 1 15 2 1 15 2 2 16 3 3 17 4 3 15 3 1 13 1 1 13 1 0 12 0 0 12 0 0 12 0 0 12 0 0 14 1 1 11 0 1 11 0 0 12 0 0 11 1 0 12 2 0 12 0 1 13 1 1 13 1 2 12 1 2 12 1 3 14 0 1 11 2 6 11 4 12 13 7 8 13 7 7 14 7 
15 16 11 14 14 12 14 16 13 19 19 17 19 19 17 19 19 17 19 19 17 18 18 16 18 20 17 16 21 17 18 20 19 18 22 21 18 22 21 19 24 20 19 25 25 19 25 25 17 22 25 18 22 21 21 25 24 22 26 25 26 28 25 28 30 27 26 28 25 27 27 25 21 21 19 17 19 16 15 17 14 14 14 12 14 14 12 13 13 11 12 14 11 12 12 10 11 11 9 12 14 11 13 13 11 11 13 10 11 11 9 11 11 9 11 11 9 10 10 8 10 10 8 11 11 9 9 9 7 9 9 7 10 10 8 10 10 8 8 8 10 7 7 7 6 8 7 8 8 6 10 12 9 14 19 13 14 21 13 9 23 8 10 22 8 5 22 4 4 21 3 4 21 3 4 21 2 6 21 2 6 20 3 4 21 3 6 20 3 3 20 2 4 21 3 2 19 1 3 17 2 1 18 2 2 16 1 3 17 2 2 16 1 2 16 1 2 16 1 4 18 3 3 17 2 5 19 4 2 16 3 1 13 1 0 12 0 1 13 1 1 13 1 1 13 1 1 13 1 1 13 1 0 12 0 0 14 1 0 12 0 0 12 0 0 12 0 1 13 1 1 13 1 0 12 0 1 13 1 0 12 0 2 12 1 1 13 1 8 11 2 10 11 5 6 11 5 7 14 7 
13 15 12 13 15 12 14 15 10 14 16 11 15 17 14 14 16 13 15 17 14 20 22 19 19 21 18 20 22 19 20 22 21 19 21 20 18 20 19 16 20 19 14 18 17 16 20 19 20 22 21 21 23 22 25 27 24 26 28 25 23 25 22 24 26 23 18 18 16 16 16 14 13 15 10 13 15 12 12 14 9 12 12 10 12 14 11 13 13 11 12 14 11 12 12 10 11 11 9 12 14 11 13 13 11 12 12 10 10 10 8 10 10 8 10 10 8 11 11 9 11 11 9 11 11 9 10 10 8 11 11 9 8 8 6 7 7 7 6 6 6 5 5 3 8 8 6 8 8 8 13 15 12 15 22 15 13 23 12 5 22 4 5 22 6 2 19 3 4 18 3 2 16 3 2 16 1 2 16 3 2 16 1 3 15 1 3 15 3 2 16 1 5 19 4 3 17 0 1 15 0 2 16 3 1 13 1 1 15 2 1 15 2 2 14 2 1 13 1 1 13 1 1 13 1 1 13 1 0 14 1 0 12 0 1 13 1 0 12 0 1 13 1 1 13 1 0 12 0 1 13 1 1 13 1 0 12 0 0 12 0 1 13 1 1 13 1 0 12 0 0 12 0 1 13 1 0 12 0 2 14 2 1 13 1 1 13 1 2 12 1 3 13 2 2 12 3 2 12 3 
13 13 11 13 13 11 12 14 11 14 14 12 14 14 12 13 15 12 14 14 12 19 21 18 19 21 16 20 22 19 20 22 19 18 20 17 17 19 16 14 18 17 13 17 16 15 20 16 20 22 19 21 23 22 26 28 25 26 28 25 23 25 22 22 22 20 14 14 12 10 12 9 11 13 10 11 13 10 12 12 10 12 14 11 12 14 11 13 13 11 11 13 10 12 12 10 12 12 10 12 14 11 14 14 12 10 10 8 11 11 9 10 10 8 10 10 8 11 11 9 11 11 9 11 11 9 13 13 11 11 11 9 8 8 6 7 7 7 6 6 4 4 6 3 7 7 5 9 9 11 11 16 10 14 24 13 11 23 9 3 20 4 6 20 5 3 17 2 3 17 2 2 14 2 1 15 0 0 12 0 2 14 2 0 14 1 1 13 1 1 15 2 1 15 0 1 15 0 1 13 1 1 15 2 1 13 1 1 13 1 1 13 1 1 13 1 2 12 1 1 13 1 0 12 0 2 12 1 1 11 0 1 13 1 1 13 1 2 12 1 1 13 1 1 13 1 1 13 1 2 14 2 0 12 0 1 13 1 1 13 1 0 12 0 1 11 0 0 12 0 0 12 0 0 12 0 1 13 1 1 13 1 0 14 1 1 13 1 0 12 0 1 13 1 1 13 1 1 13 1 
11 13 10 12 14 11 13 13 11 12 14 11 13 14 9 14 16 13 16 16 14 17 19 14 17 19 14 16 18 15 16 18 13 16 18 15 15 17 16 15 17 16 15 17 16 16 18 15 22 24 21 21 23 20 21 23 20 21 23 20 18 18 16 17 17 15 13 13 11 13 13 11 11 13 10 11 13 8 11 13 10 12 12 10 12 12 10 12 12 10 11 13 10 13 13 11 12 12 10 11 13 10 12 12 10 10 12 9 9 9 7 9 9 7 10 10 8 10 10 8 8 8 6 8 8 6 9 9 7 8 8 6 6 6 4 7 7 5 6 6 6 5 7 6 9 9 9 11 11 9 10 15 9 8 20 8 8 20 8 3 17 4 4 18 5 1 15 0 1 15 0 1 13 1 1 13 1 0 12 0 1 13 1 1 13 1 1 13 1 0 14 1 0 14 1 1 15 2 3 13 2 2 12 1 2 14 2 1 13 1 1 13 1 1 13 1 0 12 0 0 12 0 1 13 1 1 13 1 1 13 1 1 13 1 1 13 1 2 12 1 2 12 1 1 13 1 2 14 2 3 13 2 3 13 2 1 13 1 2 12 1 2 12 1 2 14 2 1 13 1 1 13 1 1 13 1 1 13 1 1 13 1 1 13 1 1 13 1 1 11 2 1 13 1 2 12 3 1 13 1 
11 13 10 12 14 9 12 14 9 14 15 10 14 14 12 15 17 14 16 16 14 14 16 13 14 16 13 13 15 12 13 15 12 12 14 11 13 15 12 15 17 14 15 17 14 17 19 16 21 23 20 21 23 20 15 17 14 16 18 15 10 10 8 10 10 8 10 12 9 13 13 11 11 13 10 11 11 9 10 12 9 10 10 8 11 11 9 11 11 9 10 10 8 11 11 9 12 12 10 11 11 9 10 10 8 10 10 8 10 10 8 10 10 8 11 11 9 10 10 8 7 7 5 7 7 5 6 6 4 6 6 4 6 6 6 5 7 6 5 5 5 6 6 6 10 10 8 13 13 11 9 16 9 6 18 8 6 18 8 2 12 3 1 13 1 0 12 0 0 12 2 1 13 1 2 12 3 0 11 0 0 12 0 0 12 0 0 12 0 1 13 1 0 14 1 1 13 1 0 12 0 1 13 1 1 13 1 0 12 0 1 13 1 1 13 1 1 13 1 2 14 2 1 13 1 1 13 1 2 14 2 1 13 1 1 13 0 2 12 1 2 14 2 3 13 2 2 12 1 3 14 0 5 13 0 2 14 2 4 15 1 3 14 0 4 14 3 3 14 0 2 13 0 2 12 1 1 13 1 1 13 1 1 13 1 0 12 0 1 13 1 1 13 1 1 13 1 1 13 1 
10 12 9 11 13 10 12 14 11 13 13 11 13 13 11 15 15 13 15 15 13 15 15 13 13 15 12 12 14 11 13 13 11 13 15 12 13 15 12 13 15 12 17 19 16 16 18 15 18 20 17 17 19 16 14 16 13 15 15 13 10 12 9 10 12 9 11 13 10 15 15 13 12 14 11 10 12 9 10 12 9 8 13 9 11 11 9 11 11 9 10 10 8 13 13 11 12 12 10 11 11 9 10 10 8 11 11 9 10 10 8 9 9 7 10 10 8 9 9 7 7 7 5 7 7 5 7 7 5 6 6 4 8 8 6 7 8 3 7 7 5 7 7 7 9 14 10 11 17 13 8 18 9 5 17 3 5 19 6 2 16 1 2 16 1 1 15 0 1 15 0 1 15 2 1 13 0 0 13 3 0 14 1 1 15 2 1 15 2 1 15 2 0 14 1 1 13 1 0 14 1 1 13 1 0 12 2 1 13 1 1 13 1 0 12 0 1 13 1 1 15 2 2 14 0 2 14 0 2 14 2 1 13 1 1 13 1 3 14 0 3 13 2 2 12 1 2 13 0 3 13 2 3 13 2 5 13 2 3 13 2 2 14 2 3 13 2 3 13 2 2 12 1 1 13 1 1 13 1 1 13 1 1 13 1 1 13 1 1 13 1 1 13 1 1 13 1 1 13 1 
10 10 8 10 12 9 10 12 9 11 13 10 12 12 10 11 11 9 12 12 10 10 10 8 11 11 9 12 14 11 14 14 12 13 15 12 15 17 14 15 17 14 17 19 16 16 18 15 13 15 12 13 13 11 9 9 7 9 9 7 13 13 11 13 13 11 13 15 12 14 14 12 11 13 10 11 11 9 9 11 8 10 10 8 11 11 9 11 11 9 12 12 10 13 13 11 12 12 10 9 9 7 9 9 7 11 11 9 12 12 10 9 9 7 7 7 5 7 7 5 6 6 4 7 7 5 7 7 5 7 7 5 7 7 5 7 7 7 8 10 9 8 8 8 8 18 10 11 23 13 10 24 9 5 22 6 5 22 6 2 20 4 3 22 3 3 22 3 1 19 3 2 19 3 2 19 3 1 18 2 1 17 4 1 17 4 0 17 1 1 15 0 0 14 0 1 13 1 1 13 1 1 13 1 0 12 0 0 12 0 1 13 1 2 14 0 2 14 2 2 14 2 3 13 2 3 14 0 3 15 1 3 14 0 3 14 0 3 14 0 3 14 0 3 13 2 3 13 2 2 12 1 3 13 2 3 14 0 3 13 2 3 13 2 3 14 0 1 13 0 1 13 1 2 13 0 1 13 1 1 13 1 1 13 1 0 12 0 1 13 1 0 12 0 1 13 1 1 13 1 
8 10 7 9 11 8 11 11 9 12 12 10 12 12 10 11 11 9 11 13 10 12 12 10 12 12 10 10 15 11 13 13 11 13 15 12 14 14 12 14 16 13 16 18 15 16 18 15 14 14 12 13 13 11 11 11 9 11 11 9 12 12 10 12 12 10 12 12 10 13 13 11 12 12 10 11 11 9 10 10 8 10 10 8 10 10 8 10 10 8 11 11 9 12 12 10 12 12 10 10 10 8 9 9 7 10 10 8 11 11 9 9 9 7 6 6 4 7 7 5 7 7 5 6 6 4 7 7 5 7 7 5 6 8 5 7 7 5 9 9 11 10 10 8 10 20 12 11 23 11 9 23 8 5 22 6 5 23 7 2 21 2 2 21 2 2 21 2 0 20 3 2 21 1 1 19 3 1 18 2 2 19 3 0 17 1 1 15 0 1 15 0 1 15 2 2 12 1 1 13 1 1 13 1 2 14 2 0 14 1 2 14 0 1 15 2 2 14 2 2 14 2 3 15 3 2 14 2 4 15 1 4 15 1 4 14 3 3 13 2 3 13 2 3 14 0 2 14 2 2 14 2 3 13 2 2 14 2 2 12 1 3 13 2 0 14 1 1 13 1 1 13 1 2 14 2 1 13 1 1 13 1 1 13 1 1 13 1 1 13 1 1 13 1 0 12 0 2 14 2 
11 10 8 10 10 8 9 11 8 9 11 8 11 11 9 11 11 9 11 13 10 12 12 10 12 12 10 13 15 12 13 13 11 14 16 13 13 15 12 12 14 11 12 14 11 10 12 9 8 8 6 10 10 8 12 12 10 10 12 9 9 11 8 10 12 9 11 13 10 11 13 10 10 12 9 12 14 11 10 12 9 9 11 8 10 10 8 9 9 7 9 9 7 10 10 8 9 9 7 9 9 7 9 9 7 10 10 8 9 9 7 6 6 4 6 6 4 7 7 5 7 7 5 6 6 4 8 8 6 8 8 6 7 7 5 7 7 5 14 16 11 14 19 13 15 22 14 13 25 15 9 23 8 5 22 6 4 22 6 3 22 3 2 21 2 2 21 1 2 20 4 2 20 4 2 20 4 3 20 4 3 20 4 2 16 1 0 14 0 1 13 1 1 13 0 0 12 0 1 13 1 0 12 0 2 14 2 2 14 0 2 16 3 3 17 2 3 17 2 3 17 2 5 18 1 6 19 2 6 19 2 6 17 3 5 16 2 3 13 2 2 12 1 1 13 1 2 14 2 1 13 1 1 13 1 2 12 1 1 13 1 1 13 1 1 13 1 1 13 1 0 12 0 1 13 1 0 12 0 1 13 1 1 13 1 0 12 0 0 12 0 1 13 1 0 12 0 1 13 1 
10 10 8 10 10 8 10 10 8 10 10 8 11 11 9 11 11 9 10 10 8 13 13 11 13 13 11 14 14 12 15 14 12 13 13 11 14 16 13 13 15 12 12 14 11 12 12 10 7 7 5 8 8 6 11 11 9 10 10 8 10 12 9 10 12 9 11 11 9 11 13 10 12 12 10 11 13 10 11 11 9 9 11 8 9 9 7 10 10 8 10 10 8 9 9 7 10 10 8 8 8 6 8 8 6 9 9 7 10 10 8 7 7 5 6 6 4 6 6 4 6 6 4 7 7 5 9 9 7 8 8 8 7 7 5 7 7 7 14 16 15 15 17 14 13 23 14 12 26 13 10 22 8 4 22 8 4 22 6 2 21 2 0 21 2 2 20 4 2 21 2 3 22 3 2 21 2 2 20 4 3 20 4 2 16 1 1 15 2 1 13 1 1 13 1 1 13 1 1 13 1 1 13 1 3 13 2 2 14 4 3 17 2 3 17 2 4 18 1 4 17 0 5 18 1 7 18 1 6 19 1 4 16 2 4 16 2 3 15 1 3 13 2 0 12 0 1 13 1 1 13 1 1 13 1 1 13 1 0 14 1 0 12 0 1 13 1 0 12 0 1 13 1 0 12 0 0 12 0 1 13 1 0 12 0 1 13 1 1 13 1 0 12 0 2 14 2 1 13 1 
8 8 6 7 7 5 8 8 6 9 8 6 9 9 7 10 10 8 9 9 7 7 7 5 8 8 6 8 8 6 9 8 6 7 7 5 7 9 6 8 8 6 8 8 6 9 9 7 9 9 7 8 8 6 10 10 8 9 9 7 9 9 7 9 9 7 9 9 7 7 9 6 9 9 7 9 9 7 9 9 7 10 9 7 9 9 7 7 7 5 7 7 5 8 8 6 8 8 6 8 8 8 8 8 8 6 6 6 6 6 4 7 7 5 7 7 5 7 7 5 8 8 6 7 7 5 9 9 9 8 8 8 10 12 9 11 13 10 11 21 10 12 24 12 9 23 6 6 23 7 5 22 6 4 21 3 5 21 8 4 21 3 3 22 3 5 22 4 3 20 1 3 22 3 3 22 3 3 22 3 3 22 3 2 21 2 2 21 2 3 20 2 4 21 3 3 22 3 2 19 1 3 22 3 5 22 6 4 21 3 7 21 4 7 22 3 9 22 4 9 22 4 8 21 3 6 19 2 5 17 3 6 19 1 5 17 3 2 14 2 2 14 0 0 12 0 0 12 0 1 13 0 0 12 0 1 13 1 0 12 0 1 13 1 1 13 1 1 13 1 1 13 1 0 12 0 0 12 0 1 13 1 0 12 0 0 12 0 1 13 1 1 13 1 0 12 0 2 14 2 
8 8 6 7 7 5 8 8 6 8 8 6 8 8 6 8 10 7 10 10 8 9 9 7 9 9 7 8 8 6 7 7 5 7 7 5 9 9 7 7 7 5 8 8 6 8 8 6 10 10 8 9 9 7 10 10 8 9 9 7 8 10 7 8 10 7 8 8 6 8 10 7 9 9 7 8 10 7 9 9 7 9 11 8 9 9 7 8 8 6 7 7 5 8 8 6 8 8 8 6 6 6 7 7 7 5 5 5 6 6 4 7 7 5 7 7 5 7 7 5 9 9 7 9 9 9 8 8 8 8 8 8 12 14 11 11 13 12 11 21 12 11 23 9 10 24 9 9 23 8 6 23 7 4 21 3 4 21 5 4 21 3 4 21 3 5 22 4 6 20 3 3 22 2 2 21 2 2 21 2 2 21 2 3 22 3 2 21 2 2 21 2 4 21 3 4 21 3 4 21 3 2 19 1 5 22 3 4 21 3 8 23 4 7 22 3 9 22 4 9 22 4 8 21 4 5 17 3 6 19 2 6 18 4 5 17 3 1 13 0 1 13 1 0 12 0 1 13 1 1 13 1 0 12 0 0 12 0 1 13 1 0 11 0 0 12 0 1 13 1 0 12 0 0 12 0 1 13 1 0 12 0 1 13 1 0 12 0 1 13 1 1 13 1 1 13 1 1 13 1 
11 13 10 10 12 9 10 12 9 9 9 7 10 10 10 8 10 7 8 10 7 7 7 7 8 8 6 7 7 5 8 10 7 7 7 7 7 7 7 7 7 5 7 7 7 7 7 7 8 8 6 7 7 5 8 10 9 7 9 6 5 10 6 8 10 7 8 8 6 8 8 6 8 8 6 8 8 6 7 7 5 8 8 6 7 7 7 7 7 5 7 7 5 7 7 5 7 7 7 7 9 6 8 8 6 8 8 8 7 7 7 7 7 7 8 8 8 9 9 9 9 11 8 10 12 9 11 16 10 10 15 9 11 21 10 9 23 10 6 23 7 6 23 7 5 21 8 2 20 4 5 22 4 4 21 3 2 21 2 3 22 3 2 21 2 2 21 2 2 21 1 2 21 2 2 21 2 2 21 2 1 22 3 2 21 2 2 21 2 2 21 2 2 21 2 2 21 2 2 21 2 2 21 2 4 21 3 4 21 3 4 21 3 7 21 4 6 21 2 7 22 3 6 20 3 7 20 3 6 21 2 1 18 2 3 17 2 1 15 2 1 15 2 1 13 1 1 13 1 0 11 0 1 13 3 1 13 3 0 12 0 0 12 0 0 12 0 0 12 0 0 12 0 0 12 0 0 12 0 1 13 1 1 13 1 1 13 1 0 12 0 1 13 1 0 12 0 1 13 1 
12 14 11 12 12 10 10 12 9 10 10 8 10 10 8 9 9 7 8 8 6 8 8 6 8 8 6 6 8 5 8 8 6 6 8 5 6 6 4 6 6 4 6 6 4 6 6 4 7 7 5 7 7 5 9 9 7 9 9 7 9 9 11 9 9 9 7 7 7 7 7 7 7 7 7 8 8 6 7 7 5 7 7 5 5 6 8 7 7 7 6 8 7 7 7 5 7 9 8 7 9 6 7 7 7 8 10 7 8 8 8 8 8 8 8 8 6 8 10 7 10 12 9 11 13 10 10 19 14 11 17 13 7 23 10 8 24 11 7 24 8 6 23 7 4 22 6 5 22 6 1 20 1 2 21 2 1 20 1 2 21 2 2 21 2 2 21 1 2 21 2 2 21 2 2 21 2 2 21 2 2 21 2 1 20 1 2 21 2 2 21 2 2 21 2 3 22 3 4 21 3 3 22 3 5 22 4 4 21 3 4 21 3 4 21 3 5 22 3 5 22 3 6 20 3 6 20 3 6 20 3 3 17 2 2 16 1 2 14 2 1 15 2 0 14 0 2 14 2 1 13 1 1 13 1 1 13 1 1 13 3 0 12 0 2 14 2 0 11 0 0 12 0 1 13 1 1 13 1 0 12 0 0 12 0 0 12 0 0 12 0 1 13 1 1 13 1 0 11 0 
11 16 9 11 16 10 10 17 10 11 13 10 11 13 10 9 11 8 10 12 9 9 10 12 8 10 7 8 8 8 8 8 6 8 8 6 9 8 6 8 8 6 4 6 5 6 6 6 8 8 8 7 9 8 8 10 9 8 8 6 6 8 7 6 8 5 6 8 5 6 8 3 5 7 4 6 8 5 6 8 5 8 8 6 6 8 5 7 9 6 8 8 6 10 9 7 11 10 8 10 12 11 8 13 9 10 14 13 10 15 11 11 16 12 11 18 11 11 18 10 8 20 10 8 20 10 8 22 9 7 21 8 5 21 8 5 22 6 3 20 4 3 20 4 2 19 3 1 18 2 1 18 2 2 19 3 1 19 3 2 20 4 1 19 3 2 19 3 1 18 2 3 17 2 1 15 0 0 17 1 1 19 3 1 18 2 1 18 2 1 18 2 1 18 2 1 18 2 2 19 3 1 18 2 5 19 4 4 18 1 5 22 4 7 21 4 7 21 4 8 22 5 8 22 5 8 22 5 4 21 3 3 20 4 5 19 4 5 19 4 6 20 5 2 19 3 4 18 3 1 15 0 2 14 2 1 13 1 1 13 1 0 12 0 2 14 2 1 13 1 0 12 0 0 12 2 1 13 1 0 12 0 0 12 0 2 14 2 0 12 0 1 13 1 0 12 0 1 13 1 
10 17 9 10 17 9 12 17 11 11 16 12 11 13 10 9 11 8 10 12 9 9 11 8 9 11 10 9 9 9 9 9 9 8 10 9 9 9 7 8 8 6 6 6 6 7 7 7 7 9 8 7 9 8 7 7 7 7 8 3 6 8 5 6 8 7 6 7 9 6 8 7 6 8 7 6 6 4 7 7 5 8 8 6 8 8 6 8 8 6 8 8 6 10 10 8 10 10 8 11 13 10 12 14 11 11 17 13 12 19 12 11 21 13 11 23 13 10 23 13 8 24 11 8 25 9 6 23 7 6 23 5 5 22 6 2 23 6 3 20 4 3 17 2 1 15 2 1 15 2 2 16 1 1 18 2 1 18 2 2 21 2 1 19 3 0 16 3 1 18 0 1 15 2 3 15 5 2 16 1 2 16 1 2 16 1 0 17 1 0 17 1 3 17 2 3 17 2 2 16 1 2 16 1 5 17 3 5 17 5 9 21 7 8 22 7 7 21 4 8 23 4 8 22 5 8 22 7 5 22 4 5 22 4 6 20 5 7 21 4 5 22 4 4 21 3 4 21 3 3 17 2 1 13 1 1 13 1 1 13 1 1 13 1 0 11 0 1 13 1 0 12 2 1 13 1 0 12 0 0 12 0 1 13 1 1 13 1 0 12 0 0 12 0 0 12 0 1 13 1 
8 16 5 9 16 8 9 16 8 10 15 8 9 16 9 9 14 8 10 15 8 10 15 9 10 15 9 9 13 12 8 13 9 7 12 8 9 11 8 9 9 7 8 8 6 9 9 7 8 10 9 8 10 7 9 9 7 9 9 7 8 10 9 8 10 7 8 10 7 8 10 7 9 11 10 9 11 8 9 11 8 10 12 9 10 15 11 10 12 9 8 13 9 10 15 9 10 15 9 11 18 10 8 18 9 9 19 10 8 18 9 8 20 10 7 19 9 7 21 8 5 21 8 8 22 9 5 22 6 6 23 7 3 20 4 4 21 5 3 20 4 1 18 2 2 16 3 1 13 1 1 15 0 2 16 1 2 16 1 2 19 3 2 19 3 1 18 2 2 18 5 2 16 1 3 17 2 1 18 2 2 19 3 2 19 3 3 20 4 5 19 4 6 20 5 6 20 5 8 20 6 8 20 6 10 21 7 9 21 7 10 22 8 9 22 5 9 22 5 8 22 5 9 23 6 8 21 4 9 22 5 8 22 5 7 20 3 8 21 4 8 22 5 6 20 3 7 21 4 6 19 2 5 17 3 3 15 1 3 14 0 2 14 2 3 13 4 2 14 2 1 13 1 1 13 1 0 12 0 0 12 0 1 13 1 1 13 1 0 11 0 1 13 1 1 13 1 1 13 1 
4 15 1 5 15 4 6 16 5 8 16 5 8 16 5 7 17 6 7 17 6 9 19 8 8 18 7 10 17 9 11 16 10 10 15 9 11 13 12 10 12 9 9 11 8 10 12 11 10 12 11 10 12 11 10 12 11 9 11 10 12 12 10 12 12 10 12 12 10 11 13 10 11 13 10 10 15 11 10 15 11 11 16 12 9 15 11 10 17 10 11 18 11 8 20 10 8 20 10 6 22 9 6 23 7 7 21 6 7 19 7 5 19 6 4 18 5 5 17 5 3 21 5 4 21 5 6 20 5 4 21 3 4 21 3 4 21 5 5 19 4 4 18 3 3 17 4 1 13 1 1 13 1 0 12 2 2 14 2 4 18 3 1 18 2 2 19 3 2 19 3 2 19 3 3 20 4 3 20 2 4 21 3 4 21 3 6 23 5 8 22 5 10 23 6 10 23 6 14 25 9 14 25 9 14 25 11 14 25 11 12 23 7 11 22 6 10 23 6 10 23 6 9 22 5 9 22 5 9 22 5 10 23 6 9 21 7 10 23 6 10 23 6 8 22 5 9 22 5 7 20 3 6 18 4 6 17 3 4 16 4 3 13 2 2 14 0 1 11 0 1 13 1 1 13 1 0 12 0 1 13 1 1 13 1 1 13 1 0 12 0 1 13 1 1 13 1 1 13 1 
7 15 2 6 14 1 7 15 4 7 15 4 8 14 2 8 15 7 6 16 5 8 18 7 8 18 7 10 17 9 9 16 8 9 14 8 8 13 7 8 13 7 8 13 9 8 13 9 8 13 9 11 13 10 10 12 9 8 13 9 11 13 10 9 14 10 9 14 10 9 14 8 9 14 8 10 15 9 10 16 12 9 16 9 10 17 10 10 17 9 8 18 7 7 19 9 7 19 9 5 21 10 7 21 8 4 18 3 5 19 6 4 18 5 4 18 5 4 18 5 6 20 5 6 20 5 5 22 4 6 23 5 4 21 3 3 21 5 4 18 3 2 19 3 2 16 3 3 15 3 3 15 3 4 14 3 3 17 4 5 19 4 5 19 2 2 19 3 3 20 2 3 20 2 3 20 2 4 21 2 4 21 3 6 20 3 8 22 5 10 23 6 11 24 7 12 25 8 14 27 10 15 26 10 14 25 11 15 26 10 12 23 6 12 23 7 11 22 8 11 23 9 10 23 6 10 23 6 10 22 8 10 23 6 10 23 6 10 21 5 9 22 5 9 21 7 9 22 5 9 22 5 9 20 4 7 18 2 6 17 3 5 16 2 5 15 6 3 15 3 2 14 2 1 13 1 1 13 1 0 12 0 1 13 1 0 12 0 1 13 1 1 13 1 1 13 1 1 13 1 
9 15 1 8 14 0 8 14 0 11 15 1 7 15 2 7 15 2 6 14 1 6 14 1 6 14 1 5 15 4 5 15 4 6 16 5 4 16 4 6 16 7 7 17 8 7 17 8 7 17 8 7 17 8 7 17 8 6 16 7 7 17 8 6 16 7 7 17 8 6 16 7 6 16 7 5 15 4 5 15 4 3 13 2 5 16 2 3 15 3 3 14 6 2 14 2 2 14 2 3 15 3 4 14 3 4 16 4 3 17 4 4 16 4 3 17 2 2 18 5 6 20 5 5 19 6 4 20 7 6 20 7 7 21 6 9 23 8 5 17 5 5 17 5 5 17 5 5 15 4 7 19 5 8 21 4 9 21 7 9 22 5 8 22 5 7 22 3 4 21 5 5 22 4 7 21 4 8 22 5 8 22 5 8 22 5 9 22 5 11 22 6 13 24 8 14 25 9 18 26 11 19 27 12 15 26 10 16 27 11 13 24 8 13 24 8 10 21 7 12 23 7 10 23 5 10 23 5 9 22 5 8 22 5 9 22 5 8 20 6 8 21 4 9 22 5 9 22 5 10 23 6 11 22 6 11 22 6 11 22 5 11 22 5 10 21 5 9 20 6 1 13 1 2 14 2 1 13 1 0 12 0 1 13 1 1 13 1 1 13 1 1 13 1 2 14 2 1 13 1 
11 15 1 9 15 1 8 14 0 8 14 0 9 15 1 7 15 2 8 14 2 6 14 1 7 15 2 6 14 1 7 15 4 6 16 7 6 16 5 6 16 5 5 15 6 7 17 8 7 17 6 7 17 8 7 17 8 8 15 7 5 15 6 5 17 7 6 16 5 6 16 5 5 15 6 5 15 6 6 16 7 4 16 4 5 15 4 5 15 4 5 15 6 3 13 4 4 16 4 3 15 3 4 16 4 4 16 4 4 16 4 3 17 4 5 19 6 5 19 6 7 19 5 7 19 7 8 22 9 7 21 8 9 23 8 9 23 8 7 19 7 6 18 6 7 17 6 6 18 4 8 20 6 8 22 5 9 22 4 9 21 7 9 22 4 5 22 4 7 21 4 7 21 4 7 21 4 6 20 3 7 21 4 8 22 5 11 22 6 10 23 6 12 23 7 13 24 10 16 27 13 16 27 13 15 26 9 15 26 12 13 24 8 13 24 10 12 23 7 12 23 7 12 23 7 11 24 7 10 23 3 10 23 5 8 21 4 8 21 4 8 21 3 8 21 4 8 22 5 8 21 4 10 23 6 10 21 5 11 22 5 11 22 5 11 22 5 9 20 4 1 13 1 2 14 2 2 12 1 2 14 2 3 13 2 2 12 1 2 14 2 3 13 2 1 13 1 2 12 1 
11 15 0 11 15 1 11 15 1 10 14 0 11 15 0 11 15 0 11 15 0 11 15 1 10 14 0 8 14 0 8 14 0 7 15 0 7 13 1 7 15 2 4 14 5 3 13 2 3 13 2 3 13 2 2 12 1 4 15 1 2 14 2 3 15 3 2 12 1 3 13 2 5 15 4 5 16 2 6 17 3 10 21 5 11 22 8 8 19 3 8 19 5 8 16 5 8 16 5 7 17 8 7 17 6 7 17 8 7 19 9 8 18 9 12 19 11 13 20 13 15 22 14 17 22 15 22 27 21 21 26 20 25 30 23 28 30 25 27 28 23 25 30 24 19 26 18 15 25 14 13 24 10 11 23 9 9 22 5 9 22 5 8 21 4 5 22 4 5 22 3 4 21 3 4 21 3 4 21 3 3 21 5 5 22 4 7 21 8 7 22 3 7 21 4 9 22 5 12 23 7 11 24 7 14 25 11 16 24 9 15 21 7 17 25 10 14 22 9 12 23 7 12 23 7 12 23 6 10 23 6 8 23 4 9 22 5 8 21 4 7 22 3 6 19 2 5 19 2 6 20 7 8 21 4 9 22 5 11 22 6 11 22 6 11 22 6 13 22 5 11 22 6 13 22 5 10 21 7 10 18 5 4 15 1 2 12 1 3 13 2 2 12 1 5 13 2 5 13 2 
12 16 2 11 15 1 11 15 1 11 15 1 11 15 0 10 14 0 11 15 0 10 14 0 11 15 1 8 14 0 9 15 1 8 14 0 7 15 2 3 14 0 4 14 3 4 14 3 3 13 2 4 14 3 4 14 3 4 15 1 2 14 2 3 13 2 3 13 2 4 14 3 2 12 1 4 15 1 7 18 4 10 21 5 9 20 4 8 19 3 7 19 5 8 16 5 8 16 5 8 16 5 7 17 6 7 17 8 7 17 8 9 19 10 12 19 12 13 20 12 15 22 14 17 24 16 23 28 22 21 26 20 25 30 24 25 30 24 26 28 23 26 28 23 20 28 17 14 24 13 12 24 10 10 22 8 10 22 8 8 22 5 8 22 5 5 22 4 7 21 4 4 21 3 4 21 3 4 21 3 4 21 3 6 20 3 7 21 4 7 21 4 7 21 4 10 23 6 11 24 7 12 23 7 15 26 10 14 25 9 13 23 12 15 23 10 15 23 10 15 23 10 13 24 8 12 23 7 10 23 6 9 20 4 10 23 6 9 20 4 8 23 4 6 19 2 6 19 2 7 20 3 9 22 5 11 22 6 12 23 6 11 22 6 11 22 6 11 22 6 11 22 6 13 21 6 10 21 5 9 20 4 3 14 0 3 14 0 3 14 0 3 14 0 5 13 0 3 14 0 
10 14 0 10 14 0 10 14 0 10 14 0 10 14 0 12 14 1 10 14 0 10 14 0 10 14 0 11 15 1 11 15 1 11 15 1 9 15 1 8 14 0 8 14 0 7 13 1 6 14 1 6 14 1 6 14 1 5 13 0 4 15 1 4 14 3 7 15 4 7 15 4 9 17 6 11 17 7 12 18 8 13 21 10 14 19 12 16 21 14 16 21 14 20 25 18 22 25 18 23 28 22 25 27 24 28 30 25 28 30 27 28 33 27 31 33 30 33 34 29 33 33 31 33 33 33 34 34 32 33 34 29 31 31 29 31 31 29 27 32 28 28 28 26 23 25 22 21 23 18 15 22 14 9 19 8 7 19 7 3 17 2 5 17 5 4 16 4 4 16 4 6 20 3 6 20 5 7 21 4 7 21 4 7 21 4 8 22 5 7 21 4 8 22 5 9 22 5 10 23 6 9 22 5 12 23 7 12 23 7 13 24 8 13 21 8 16 24 9 16 24 11 16 24 9 15 23 10 16 24 11 15 23 8 12 23 7 8 21 4 8 21 4 4 15 1 4 16 2 3 14 0 3 13 2 8 16 3 10 18 5 9 17 4 7 15 2 5 17 3 9 17 4 8 19 5 9 17 4 8 16 3 3 13 2 3 14 0 6 14 1 6 14 1 6 14 1 6 14 3 
11 15 1 8 14 0 8 14 0 8 14 0 7 13 1 8 14 0 10 14 0 10 14 0 11 15 1 10 14 0 10 14 0 9 16 0 11 15 1 8 14 0 8 14 0 6 14 0 7 15 0 6 14 1 6 14 1 7 15 2 6 14 0 7 13 1 8 16 3 8 14 2 10 16 6 11 16 9 12 18 8 14 20 10 14 19 12 18 23 16 16 21 14 24 27 20 23 25 20 26 28 25 28 28 26 31 30 26 33 32 30 33 33 31 33 34 28 34 35 30 34 34 32 35 35 33 34 35 30 33 35 30 32 32 30 31 33 28 30 31 26 29 30 25 24 24 22 19 24 20 15 20 14 9 19 10 8 18 7 3 17 2 4 16 2 2 14 0 3 15 3 6 20 3 7 21 4 8 22 5 8 22 5 8 22 5 8 22 5 7 21 4 8 21 4 9 22 5 10 23 6 10 23 6 11 22 6 11 24 7 12 23 7 14 22 7 16 24 9 16 24 11 17 23 11 17 23 11 17 25 12 16 24 9 13 24 8 9 20 4 7 20 3 3 15 1 3 15 1 1 13 0 1 13 1 6 17 3 7 18 4 8 16 3 4 12 1 3 15 3 8 16 5 6 16 5 8 16 5 8 16 3 5 12 4 5 13 0 7 15 2 6 14 1 7 15 2 6 14 3 
7 13 1 8 14 0 7 13 1 7 13 1 7 13 1 4 15 1 7 13 1 8 14 0 7 13 1 8 14 0 8 14 2 8 14 0 8 14 0 8 14 0 9 16 0 8 14 0 9 15 1 9 15 1 9 16 0 9 15 1 10 16 4 10 16 4 14 20 10 14 19 12 19 24 17 23 25 20 25 27 22 29 28 24 28 29 24 31 32 27 30 31 26 32 33 28 32 33 28 34 35 30 34 34 32 34 34 32 35 35 33 35 35 33 35 35 33 35 35 33 35 36 31 37 38 33 34 34 32 34 34 32 33 33 31 33 35 30 30 30 28 28 29 24 25 25 23 22 23 18 20 22 17 14 22 11 14 21 13 9 21 7 8 20 6 6 18 4 5 18 1 8 21 4 8 21 4 10 23 6 10 21 5 10 21 5 7 20 3 6 19 2 5 17 3 6 19 2 7 21 6 7 21 4 9 22 5 8 21 4 8 21 4 8 20 6 9 20 6 10 18 5 11 19 6 14 20 8 12 20 5 12 23 6 13 22 5 9 20 4 8 19 3 3 14 0 3 13 2 2 12 1 2 14 0 4 15 1 6 14 1 10 16 4 12 18 6 14 20 8 17 23 9 17 23 11 13 19 7 13 19 7 9 15 3 9 15 3 8 14 0 7 15 2 8 14 0 8 14 2 
8 14 0 7 13 1 7 13 1 7 13 1 8 14 2 7 13 1 7 13 1 10 14 0 7 13 1 8 14 0 8 14 2 8 14 4 7 16 0 8 14 0 11 15 0 11 15 1 9 15 1 9 15 1 9 15 1 11 15 1 12 18 6 13 16 5 15 21 11 16 21 14 23 26 19 26 28 23 28 30 25 32 33 28 31 33 30 35 35 33 33 33 31 35 35 33 35 35 33 35 35 33 36 35 33 36 35 33 37 36 34 36 36 34 36 36 34 35 36 31 36 37 32 36 37 32 35 36 31 36 35 33 34 36 31 33 34 29 31 30 26 28 30 25 23 25 22 22 23 18 20 22 17 15 22 15 15 22 15 10 22 8 11 23 9 8 21 4 7 21 4 7 21 4 8 21 4 10 23 6 8 22 5 9 20 4 8 21 4 5 17 3 4 18 3 5 17 3 8 19 3 4 21 5 7 20 3 6 18 4 8 21 4 7 19 5 5 18 1 5 16 2 9 17 4 12 20 7 12 20 7 13 21 6 10 21 5 9 20 4 8 19 3 3 13 2 2 12 1 3 13 2 3 13 4 3 13 2 5 13 2 12 18 6 16 22 10 18 21 10 23 26 15 21 24 13 16 19 8 17 20 9 11 17 5 12 15 4 7 13 1 6 14 1 11 13 2 10 13 2 
5 13 0 6 14 1 6 14 1 5 13 0 6 14 1 8 14 2 6 14 1 7 13 1 6 14 1 7 13 1 6 14 1 6 14 0 6 14 0 8 14 0 8 14 0 9 15 1 10 16 6 10 16 2 12 18 6 14 17 6 20 23 14 21 24 17 26 28 23 26 29 22 31 32 26 33 34 29 33 34 29 36 36 34 36 37 32 36 36 34 36 38 35 36 36 34 37 36 34 36 34 35 35 33 36 38 34 35 37 32 36 39 35 36 37 36 34 35 35 33 37 37 35 36 37 32 36 37 32 35 35 33 33 33 31 33 33 31 30 30 28 29 29 27 24 26 23 23 23 21 22 21 19 16 18 13 14 19 13 8 18 7 8 20 8 5 17 3 5 19 4 6 20 3 7 19 5 7 21 4 8 22 5 8 22 5 9 22 5 7 19 5 4 16 2 3 17 2 2 14 0 3 14 0 3 15 1 3 15 1 3 15 1 3 15 1 2 14 0 3 14 0 4 15 1 5 16 2 5 16 0 8 19 3 8 19 3 13 21 8 13 21 6 7 15 0 5 16 2 6 14 1 3 14 0 4 14 3 6 14 3 8 14 2 11 17 5 14 17 6 16 20 6 16 19 8 13 16 5 14 17 6 12 16 2 8 14 0 8 14 0 12 14 1 7 15 2 8 14 2 
5 13 0 6 14 1 5 13 0 6 14 1 4 15 1 7 13 1 8 14 2 7 13 1 7 15 2 6 14 1 6 14 0 7 13 1 7 13 1 6 14 0 8 16 1 8 14 2 10 17 1 13 16 5 16 17 9 13 19 7 24 25 20 26 27 22 32 33 28 34 35 30 35 35 33 38 38 36 37 37 35 38 38 36 38 39 34 38 39 34 37 37 35 37 36 34 38 37 35 37 33 34 37 32 36 38 32 36 39 32 39 38 34 35 36 34 35 36 35 33 35 35 35 35 37 34 34 36 31 36 37 32 33 33 31 33 33 31 30 31 26 28 30 25 24 26 21 26 27 22 20 20 18 18 18 16 15 17 14 7 17 8 7 17 8 5 17 5 4 16 4 5 19 2 7 19 5 7 22 3 8 21 4 7 21 4 7 21 4 6 20 3 4 16 2 3 15 1 1 13 1 0 12 0 1 11 0 1 13 1 1 11 0 1 11 0 2 14 2 1 13 1 1 13 1 3 13 2 3 14 0 6 17 3 9 17 4 13 21 6 14 22 7 8 16 3 8 16 3 7 15 2 7 15 2 7 15 2 6 14 1 8 14 0 9 15 1 10 16 2 13 16 5 14 17 6 13 15 4 14 17 6 11 14 3 9 15 3 8 14 2 8 14 4 8 14 2 8 14 0 
5 13 0 7 13 1 7 13 1 5 13 0 6 14 1 6 14 1 5 13 0 6 14 1 7 15 0 7 13 1 6 14 0 7 13 1 8 14 0 9 15 1 8 14 0 10 16 2 11 17 5 13 19 9 20 23 16 20 23 16 28 29 24 29 30 25 34 35 30 35 36 31 36 36 34 37 37 35 35 35 33 38 38 36 39 40 35 37 37 35 38 38 36 38 36 37 38 36 37 39 32 39 37 30 37 39 27 37 40 28 38 38 32 36 37 36 34 37 37 35 35 36 31 35 36 31 35 36 31 36 37 32 33 34 29 33 34 29 30 31 26 28 30 25 24 26 23 25 25 23 20 20 18 18 18 16 18 18 16 10 17 9 10 17 9 4 16 4 4 16 4 5 19 4 6 18 6 8 21 4 9 20 4 10 21 5 8 19 3 5 17 3 3 15 1 3 15 1 2 14 2 1 13 1 0 14 1 1 13 1 2 12 1 2 12 1 2 12 1 1 13 1 1 13 1 2 12 1 3 13 2 4 16 4 5 15 4 10 18 5 10 18 5 8 16 3 8 16 3 7 15 2 5 13 0 6 14 1 6 14 1 8 14 2 9 15 1 9 15 1 12 16 2 12 15 4 12 15 4 12 15 4 9 15 1 11 15 1 9 15 1 9 15 1 9 16 0 11 15 1 
6 14 1 5 13 0 5 13 0 4 12 0 6 14 3 6 14 1 4 15 1 6 14 1 7 13 1 6 14 1 6 14 1 4 15 1 8 14 2 11 14 3 11 17 3 10 16 6 13 18 11 15 20 13 28 30 27 30 31 26 35 36 31 36 37 32 36 37 32 39 40 35 38 38 36 38 38 36 39 39 37 39 39 37 40 39 35 38 37 33 37 37 35 38 33 37 40 34 38 39 27 39 42 26 39 40 23 39 39 22 40 40 28 40 38 33 37 39 35 36 36 34 35 35 34 32 34 35 30 35 34 30 33 33 31 33 33 31 30 31 26 28 30 25 26 28 23 25 26 21 23 23 21 20 20 18 18 20 17 13 18 12 13 18 12 6 16 5 6 16 7 9 17 4 7 18 4 10 18 3 8 19 5 8 16 3 5 16 2 4 14 3 2 12 1 3 13 2 2 12 1 2 12 1 5 13 2 3 13 2 6 14 3 7 15 4 3 14 0 3 14 0 3 14 0 3 14 0 4 12 0 3 13 2 3 13 2 3 13 2 3 14 0 5 13 0 5 13 0 5 13 0 6 14 1 7 13 1 7 13 1 8 14 2 8 14 0 8 14 0 8 14 0 8 14 0 9 15 1 12 16 2 12 16 2 12 16 2 13 16 5 14 16 5 14 16 5 15 17 6 
5 13 0 6 14 1 6 14 1 5 13 0 6 12 0 5 13 0 5 13 0 5 13 0 6 14 1 7 15 2 5 13 0 7 13 1 9 15 3 11 17 7 12 18 8 14 20 10 21 24 17 21 23 18 29 31 26 30 31 25 38 37 33 37 36 32 39 40 35 39 40 35 38 38 36 39 39 37 39 39 37 39 39 37 39 39 37 38 36 37 37 37 35 39 33 37 39 33 37 39 27 39 40 26 41 40 26 41 41 25 38 40 28 38 40 30 39 38 32 36 36 34 35 36 34 35 33 33 31 34 34 32 32 33 28 33 34 29 30 31 26 28 30 25 25 27 24 25 25 23 22 22 20 20 20 18 17 22 16 12 17 11 12 17 11 5 17 7 5 15 6 6 16 5 6 16 5 9 17 4 7 18 4 7 18 4 4 14 3 3 13 2 2 12 1 3 13 2 3 13 2 2 13 0 4 14 3 3 13 2 6 14 3 7 15 2 5 13 0 6 14 1 6 14 1 6 14 1 4 15 1 4 15 1 4 15 1 4 15 1 4 15 1 6 14 1 7 13 1 6 14 0 4 15 1 6 14 3 7 13 1 9 12 1 7 13 1 7 13 1 10 14 0 10 14 0 11 15 1 11 15 1 12 16 2 11 15 1 12 15 4 13 15 4 14 16 5 14 16 5 
3 14 0 5 13 0 3 14 0 3 14 0 3 13 2 7 15 2 5 13 2 3 14 0 3 14 0 7 15 4 7 13 1 10 16 6 11 17 5 17 20 11 20 23 16 23 26 19 33 33 33 33 33 31 30 30 28 30 30 28 36 37 32 38 39 34 38 39 34 39 40 35 38 38 36 39 39 37 40 40 38 39 39 37 37 37 37 38 33 37 40 36 37 40 28 40 41 29 41 40 26 39 43 25 39 39 29 38 40 30 39 41 28 38 41 27 40 40 28 38 35 33 34 37 33 34 33 33 31 34 35 30 31 32 27 32 33 28 30 31 26 29 31 26 26 28 25 26 26 24 24 24 22 21 21 19 17 19 16 12 12 12 12 14 11 10 17 10 8 18 9 5 15 4 2 14 2 2 12 1 1 13 1 2 12 1 1 13 1 3 13 2 3 13 2 3 13 2 3 13 2 2 12 1 5 13 0 2 13 0 6 14 1 6 14 1 7 13 1 6 14 1 7 15 2 8 16 3 10 16 2 10 16 4 9 15 3 8 16 3 7 15 2 8 14 2 9 12 1 8 14 2 8 14 2 8 14 2 6 14 1 7 15 0 8 14 0 8 14 0 9 15 1 8 14 0 11 15 1 12 14 1 10 14 0 12 14 0 11 15 0 13 15 1 12 16 2 13 15 2 
3 14 0 3 14 0 3 14 0 3 14 0 2 14 0 3 14 0 6 14 1 5 13 0 5 13 0 7 15 2 8 14 2 11 14 5 13 16 5 14 20 10 19 22 15 23 25 20 33 33 31 33 33 31 30 32 29 30 32 27 37 38 33 37 38 33 39 40 35 39 40 35 40 40 38 40 40 38 39 39 37 37 37 35 38 38 36 37 35 36 38 34 35 40 28 40 40 28 40 40 26 39 42 25 41 41 29 39 40 30 39 39 27 39 39 25 38 38 28 37 35 33 34 35 33 34 33 33 31 34 35 30 32 32 30 31 31 29 30 31 26 28 30 25 26 28 23 26 27 22 24 24 22 20 20 18 20 21 16 12 12 10 12 14 11 9 16 8 10 15 9 5 15 4 2 14 2 3 13 2 1 13 1 1 13 1 1 13 1 2 14 2 1 11 0 3 13 2 3 13 2 3 13 2 6 14 1 3 14 0 3 14 0 6 14 1 7 15 2 6 14 1 7 15 2 9 15 3 10 16 4 11 17 5 10 16 4 8 14 2 7 15 2 6 14 1 7 15 2 6 14 1 8 14 2 6 14 1 7 15 2 7 13 1 7 13 1 8 14 0 10 14 0 11 15 1 10 14 0 11 15 0 9 15 1 13 15 2 13 15 2 12 14 0 13 15 2 14 16 3 
