P3
100 50
255
21 28 12 22 29 13 21 28 12 22 29 13 21 30 13 19 23 9 17 23 11 15 18 9 14 17 8 19 20 15 23 22 20 23 22 20 22 21 19 21 20 18 13 12 10 14 13 11 13 12 10 13 12 10 12 11 9 11 10 8 12 14 13 14 14 12 14 13 11 15 14 12 12 22 13 9 37 15 9 36 17 9 38 18 9 38 18 8 37 17 8 37 17 9 38 18 10 37 18 10 37 18 9 38 18 9 36 19 11 35 19 20 36 23 45 39 39 44 38 38 35 31 30 36 32 31 31 31 33 32 30 33 33 31 34 33 31 34 39 37 40 41 39 42 47 45 48 54 52 55 53 51 54 48 46 49 46 46 48 31 31 33 32 32 34 27 27 29 26 26 28 18 19 13 13 14 6 13 16 7 16 18 7 14 17 6 13 19 7 13 19 7 13 21 10 13 19 9 6 34 19 4 35 19 6 36 24 5 35 23 14 33 29 19 31 29 28 34 34 40 40 42 39 39 41 40 38 39 37 37 37 24 24 26 24 22 25 8 8 8 11 10 8 11 11 9 13 11 12 19 17 18 23 21 22 22 20 21 22 20 21 22 20 21 24 22 23 23 21 22 22 20 23 21 21 23 18 16 19 17 15 18 14 12 15 11 11 13 15 10 14 11 11 13 13 11 14 15 15 17 
20 27 11 21 28 12 21 28 12 22 29 13 22 29 13 20 27 11 19 26 10 16 19 8 14 17 8 18 19 14 23 22 20 21 20 18 21 20 18 19 18 16 15 15 13 15 14 12 16 15 13 16 15 13 14 13 11 12 11 9 16 12 11 15 14 12 15 14 12 15 14 12 14 24 15 13 40 21 13 40 21 14 41 22 14 41 22 13 40 21 13 40 21 12 39 20 13 37 21 10 37 20 9 36 17 12 37 18 14 34 22 23 36 26 42 38 37 43 38 35 36 32 29 34 33 31 33 33 35 34 32 35 32 30 33 32 32 34 40 35 39 41 39 42 44 44 46 53 51 54 51 49 52 47 42 46 45 43 44 30 30 32 30 30 32 26 26 28 26 26 28 20 21 16 17 18 13 15 18 11 15 18 9 14 17 8 13 19 9 12 20 9 9 27 13 11 27 14 5 36 18 5 36 18 8 36 24 8 34 23 16 31 26 22 28 28 28 32 33 36 37 41 38 38 40 40 38 39 37 37 37 25 25 27 26 24 27 15 13 14 13 13 13 13 13 11 12 12 12 18 18 18 23 21 22 22 20 21 21 19 20 21 19 20 24 22 23 22 20 21 20 20 22 19 17 20 16 14 17 15 13 16 13 11 14 12 10 13 11 11 13 10 10 12 12 12 14 16 14 17 
20 24 10 22 29 13 21 27 13 19 25 11 19 25 11 24 31 15 24 31 15 17 20 9 15 18 9 16 18 13 21 20 16 21 17 14 15 14 12 15 14 12 17 17 15 17 16 14 21 20 18 22 18 17 15 11 10 10 10 8 12 12 10 11 11 9 13 13 11 18 17 15 17 27 19 20 45 26 21 44 26 23 48 29 21 49 27 21 45 29 18 45 28 17 41 25 13 40 23 13 36 18 11 34 18 16 34 22 21 34 24 26 36 28 39 35 32 39 33 33 34 30 31 34 30 27 36 35 40 39 39 39 31 29 32 29 27 30 37 35 38 40 38 41 44 42 45 48 48 50 50 45 49 44 39 43 43 38 42 25 24 29 26 26 28 26 24 27 26 24 27 25 23 24 24 22 23 19 18 16 16 15 11 11 16 10 8 18 9 9 21 11 5 38 21 7 38 22 8 36 21 6 37 21 13 35 23 14 34 23 19 28 25 24 24 26 30 28 31 36 31 35 35 33 38 41 36 40 39 37 40 27 27 29 28 28 30 19 20 22 19 21 20 15 17 16 15 15 15 20 18 19 23 21 22 22 20 21 19 17 18 19 17 18 24 22 23 22 20 21 15 13 16 13 12 17 12 12 14 13 11 14 12 10 13 12 10 13 10 10 12 11 9 12 12 12 14 16 16 18 
18 24 12 22 29 11 22 28 14 20 26 12 20 26 12 24 28 13 23 30 14 16 19 8 14 17 8 18 19 14 23 19 18 20 16 15 14 13 11 16 12 11 19 18 16 17 17 15 21 20 18 20 19 17 12 12 10 11 10 8 11 11 9 12 11 7 15 14 10 16 16 14 16 26 18 19 42 24 18 43 24 18 45 28 20 44 28 19 43 27 20 44 28 17 41 25 17 40 24 14 35 20 13 31 15 18 30 18 20 30 21 25 32 24 38 34 31 38 34 31 35 31 28 35 29 29 36 36 38 38 36 39 32 30 35 31 29 32 36 34 37 39 37 40 41 39 42 46 44 47 48 43 47 45 40 46 44 39 43 28 28 30 28 28 30 25 25 27 23 24 26 25 23 24 24 22 23 21 20 18 16 16 14 16 17 12 12 17 11 9 21 11 6 39 22 7 38 22 6 37 21 7 35 20 12 34 22 13 33 22 22 28 26 25 23 26 30 28 31 35 33 36 36 34 37 39 37 40 40 35 39 29 27 30 29 27 30 21 23 22 21 22 24 14 18 17 15 17 16 20 20 20 22 20 21 20 18 19 19 18 16 20 19 17 23 21 22 22 20 21 15 13 16 13 13 15 13 11 14 13 11 14 11 11 13 12 12 14 14 9 13 11 11 13 11 11 13 16 16 18 
18 24 10 22 29 13 22 29 13 20 27 11 20 26 12 19 26 10 19 26 10 17 20 9 15 16 8 20 19 15 23 22 20 20 16 15 12 11 9 15 14 12 23 19 18 23 19 18 21 17 16 20 19 17 14 10 9 13 12 10 15 11 12 16 14 15 14 13 11 13 15 12 12 22 14 9 33 17 10 34 18 9 36 19 12 36 20 14 41 24 13 40 23 19 42 26 17 41 25 17 29 15 18 22 8 18 22 8 17 21 7 21 24 15 35 32 27 33 32 27 34 30 27 35 30 27 32 32 34 34 32 35 34 32 37 35 33 38 31 29 34 29 27 28 33 31 36 39 37 40 43 38 42 47 45 48 46 44 47 38 38 40 37 37 39 24 24 26 25 20 26 23 21 22 23 21 22 22 21 19 21 20 18 18 18 16 10 15 8 10 20 11 9 37 22 10 39 21 10 37 20 9 36 21 16 33 23 17 32 25 22 28 28 28 26 29 34 29 33 36 34 37 36 34 37 37 35 36 36 34 37 29 27 30 30 28 31 25 26 28 24 25 27 15 23 25 13 23 22 20 22 21 21 20 18 21 20 18 17 16 14 18 17 15 22 20 23 20 20 22 10 10 12 12 12 12 13 11 14 13 11 14 13 11 14 12 10 13 12 12 14 11 11 13 12 12 14 12 12 14 
17 23 9 22 28 14 22 28 14 19 25 11 19 26 10 20 27 11 21 25 10 16 19 8 15 16 8 20 19 14 23 22 20 18 17 15 12 11 9 14 13 11 21 19 20 21 19 20 20 19 17 20 19 17 13 12 10 12 11 9 14 13 11 15 14 12 15 14 12 13 13 11 12 22 14 7 34 17 10 34 18 11 35 19 12 36 20 15 42 23 14 41 22 18 41 25 17 40 24 19 30 16 18 22 8 17 20 9 19 21 10 20 23 14 33 32 27 33 32 28 33 29 26 34 30 29 32 32 34 33 33 35 36 34 37 34 32 37 30 28 31 28 26 29 32 30 35 38 36 39 42 37 43 46 44 47 47 45 46 37 37 39 37 37 37 25 25 27 23 21 26 23 21 22 22 20 21 22 20 21 20 19 17 18 19 14 11 16 9 12 19 11 8 36 21 10 38 23 9 36 21 10 37 22 14 34 23 16 31 24 22 28 26 27 25 30 32 30 33 36 34 37 36 34 37 36 36 38 36 34 37 30 28 31 29 27 30 24 25 27 25 26 28 17 26 25 14 23 22 20 20 20 21 20 18 19 18 16 17 16 14 18 17 15 22 20 23 20 20 22 12 12 14 11 12 16 12 10 13 13 11 14 13 11 14 15 10 14 13 11 14 12 10 13 11 11 13 13 13 15 
14 17 8 14 13 8 14 13 8 13 16 7 14 15 7 13 14 6 13 14 6 13 14 9 14 14 12 20 19 17 21 20 18 21 17 16 16 12 11 16 14 15 20 19 17 20 19 17 20 19 17 21 20 18 13 12 10 12 10 11 15 14 12 16 14 15 13 13 11 9 11 8 10 22 12 10 39 19 11 38 19 9 38 18 9 36 19 12 37 18 10 37 18 8 37 19 10 37 20 14 26 12 14 20 8 19 25 13 22 29 13 23 30 14 25 34 15 26 33 15 19 26 10 20 26 12 30 31 26 29 31 26 36 34 35 38 36 39 37 37 39 36 36 38 41 39 42 47 45 48 47 42 46 44 39 43 41 39 42 38 38 40 38 38 40 32 32 34 32 30 33 31 29 32 31 29 30 26 24 25 22 18 17 18 17 15 12 12 10 11 16 12 8 37 19 10 39 21 7 35 20 9 36 21 21 34 27 22 31 26 24 25 27 25 23 26 28 26 29 30 28 31 30 28 31 31 29 30 29 29 31 27 27 29 28 26 29 21 21 23 22 22 24 21 33 31 17 36 32 13 25 23 10 19 16 11 17 17 13 13 11 14 14 14 16 15 20 15 15 17 12 10 15 13 11 14 11 9 12 10 8 11 11 9 12 10 8 11 10 8 11 10 8 11 10 8 11 11 11 13 
15 18 7 15 14 9 13 14 8 14 16 5 15 16 10 13 14 6 13 14 8 14 15 10 14 15 10 20 19 17 22 21 19 19 18 16 14 13 11 15 14 12 20 19 17 21 20 18 19 18 16 20 19 17 12 12 10 13 12 10 15 14 10 16 15 13 13 13 11 9 11 8 8 21 11 9 38 18 11 38 19 11 38 19 10 37 20 11 38 19 10 37 18 8 35 16 9 36 17 13 27 12 13 19 7 20 23 12 23 30 14 25 29 14 28 35 17 27 31 16 22 26 11 20 27 11 30 30 28 30 31 26 35 35 35 38 36 39 37 37 39 37 35 38 41 39 42 48 43 47 47 45 48 43 41 44 42 40 43 39 39 41 37 37 39 32 32 34 30 30 32 30 28 31 32 30 31 25 23 24 23 19 18 17 17 15 12 12 10 12 17 13 10 37 20 8 37 19 9 37 22 9 36 21 22 31 26 22 31 28 25 26 28 25 23 26 29 27 30 29 29 31 32 27 31 29 27 30 30 28 31 25 26 28 25 25 27 22 22 24 22 22 24 18 33 30 18 37 33 13 25 23 9 18 15 11 15 14 12 14 13 14 16 15 16 16 18 15 15 17 13 11 12 13 11 14 10 10 12 10 10 12 10 10 12 10 10 12 9 9 11 9 9 11 10 10 12 11 11 13 
15 16 8 16 15 10 19 16 11 19 18 13 19 18 14 18 17 15 17 17 17 16 14 15 14 13 11 23 19 18 23 22 20 23 19 18 15 14 12 16 15 13 21 17 16 19 18 16 20 16 15 18 17 15 14 13 9 14 13 9 15 18 9 15 18 9 13 14 9 11 11 9 10 20 12 9 33 17 8 35 18 9 36 19 10 37 20 10 37 18 9 38 18 8 37 19 9 38 20 10 33 15 11 29 13 12 24 10 14 20 10 17 21 7 20 21 13 20 23 14 21 28 12 21 27 13 25 28 17 23 29 17 35 35 35 39 37 40 35 35 37 35 33 36 37 35 38 45 43 46 44 42 45 41 39 42 41 39 42 30 30 32 31 31 33 35 35 37 36 36 38 35 33 36 34 32 35 27 25 26 19 17 18 17 16 14 11 11 9 12 14 11 8 36 21 5 33 18 8 36 21 8 36 21 16 33 25 19 32 25 24 28 29 27 25 30 28 26 29 28 26 29 28 26 29 30 28 31 30 28 31 27 27 29 29 27 30 24 24 26 25 25 27 24 33 32 25 37 35 19 35 32 14 35 30 9 34 30 4 33 29 8 26 26 14 15 19 13 14 16 9 7 10 9 7 10 9 9 11 8 8 10 11 11 13 11 11 13 13 13 15 14 14 16 14 14 16 12 12 14 
15 18 11 17 16 11 16 17 11 20 19 15 22 18 15 18 16 17 18 17 15 16 15 13 13 12 10 20 19 17 25 24 22 23 19 18 15 14 12 17 16 14 20 19 17 19 18 16 16 16 14 16 16 14 13 14 9 13 13 11 15 18 9 16 19 10 14 15 9 12 11 9 10 20 12 10 35 16 7 34 15 8 37 17 9 38 20 9 38 18 8 37 17 8 37 17 9 38 18 10 35 16 10 31 14 13 25 13 13 19 9 14 20 10 20 20 12 19 22 13 21 27 13 23 27 13 22 28 14 25 29 15 34 36 35 38 36 39 36 34 37 35 30 34 37 35 38 44 42 43 40 40 42 39 37 38 38 36 39 30 30 32 30 30 32 36 36 38 37 37 39 35 33 36 34 32 35 26 24 25 20 19 17 17 16 14 11 11 9 12 14 11 7 34 19 6 34 19 8 36 21 7 35 20 16 33 25 17 32 25 23 27 28 28 26 29 26 26 28 28 26 29 28 26 29 30 28 31 30 28 31 28 28 30 28 28 30 23 24 26 23 24 26 24 33 32 27 37 36 20 36 33 16 36 34 12 34 31 4 35 30 8 30 28 12 16 19 11 15 18 7 6 11 7 6 11 8 8 10 8 8 10 12 10 13 12 12 14 14 14 16 15 15 17 16 14 17 14 9 13 
24 24 14 25 20 16 23 20 15 21 20 15 20 19 14 19 18 16 19 18 16 16 15 13 13 12 10 22 18 17 23 22 20 21 20 18 15 14 12 17 16 12 20 19 17 21 20 18 15 16 10 14 17 10 21 25 11 21 25 11 22 25 14 21 25 11 17 20 11 14 15 10 11 18 11 7 25 13 8 26 14 12 36 20 10 39 21 10 37 20 10 37 20 8 37 17 9 38 20 8 37 17 9 36 19 15 33 19 18 30 18 23 30 22 30 29 24 30 29 24 28 29 23 28 29 21 33 32 28 32 33 27 34 34 34 35 33 36 32 30 35 29 27 32 33 31 34 38 38 40 38 38 40 41 41 43 42 40 43 38 39 41 38 38 40 36 36 38 35 35 37 30 30 32 31 29 32 26 24 25 22 21 19 18 16 17 15 11 12 12 14 11 5 31 18 6 32 19 5 36 21 4 35 20 11 35 21 12 33 24 23 29 27 30 28 31 29 27 30 27 25 28 28 26 29 29 27 30 28 28 30 27 25 28 27 25 28 26 25 30 25 25 27 25 34 33 27 37 36 23 38 35 22 38 35 17 36 34 12 34 31 13 32 30 18 19 21 16 17 19 7 8 10 8 8 10 19 17 20 19 17 20 20 20 22 20 20 22 25 25 27 30 28 31 31 29 32 31 29 32 
31 29 17 27 24 17 27 24 19 19 18 13 22 19 14 22 18 15 20 19 17 16 14 15 14 13 11 22 18 17 23 22 20 21 19 20 14 14 12 17 16 14 21 20 16 22 18 15 13 16 7 13 16 7 23 30 12 25 32 14 22 29 13 23 27 13 18 21 12 16 15 11 13 15 10 10 20 12 10 21 13 13 37 21 11 38 21 11 38 23 10 37 20 8 37 17 8 37 17 8 37 17 8 37 17 15 38 22 21 37 26 28 38 29 39 35 34 38 33 30 33 29 28 33 29 26 39 35 36 39 35 32 35 33 34 33 33 35 30 28 31 28 26 31 32 30 33 36 36 38 38 36 39 42 42 42 42 40 41 44 45 47 45 45 47 35 35 37 35 34 39 30 30 32 29 27 32 24 22 23 20 20 20 18 16 17 12 10 13 12 14 11 4 30 17 6 30 17 6 34 20 6 34 20 7 33 20 8 34 21 22 31 28 30 28 31 28 28 30 28 26 29 27 27 29 28 26 29 29 27 30 26 24 27 24 24 26 27 26 31 26 26 28 26 35 32 28 39 35 27 39 37 27 39 37 24 38 38 16 35 31 16 30 30 21 21 23 19 19 21 8 8 10 8 8 10 24 22 25 25 23 26 27 25 28 29 27 30 33 31 34 38 36 39 39 37 40 41 39 42 
39 32 16 39 29 19 38 28 18 28 21 13 29 22 16 20 19 14 23 20 15 21 15 15 18 16 17 19 15 14 20 19 17 20 19 17 22 18 17 21 20 18 18 17 13 18 17 13 13 16 9 13 16 7 18 27 10 21 28 12 23 27 12 20 27 11 20 23 12 18 21 12 15 20 13 10 17 10 9 20 12 10 39 21 9 38 20 9 38 20 10 37 20 9 38 20 5 36 18 9 38 20 8 37 19 15 38 22 22 38 28 26 38 28 39 34 31 36 35 31 32 31 27 33 29 28 36 32 31 34 33 29 33 33 33 33 33 35 33 33 35 33 31 34 37 35 40 40 40 42 42 40 43 41 42 44 43 41 42 40 38 41 39 39 41 38 38 40 39 37 38 33 31 34 33 31 34 27 25 28 23 23 23 20 18 19 11 11 11 11 13 12 4 27 17 5 26 17 4 34 22 5 33 21 4 32 20 5 28 20 19 28 27 28 27 32 27 25 28 26 24 27 26 24 27 29 27 30 28 28 30 30 28 31 29 29 31 26 26 28 23 24 28 27 31 32 27 33 33 24 36 34 22 38 35 20 34 34 19 35 34 18 32 33 18 22 25 18 22 25 18 18 20 19 17 20 24 22 25 27 25 28 28 26 29 29 27 30 31 29 32 35 33 36 36 34 37 36 34 37 
49 33 20 53 35 21 51 33 19 38 26 14 37 24 15 26 21 15 24 21 16 24 20 17 21 20 18 17 16 14 14 12 13 21 17 16 29 25 24 23 22 20 14 14 12 14 14 12 14 15 7 12 15 6 15 21 7 16 22 8 19 25 11 20 26 12 19 25 11 21 25 10 18 21 10 11 16 9 11 18 10 9 38 18 7 38 20 9 37 22 6 37 19 9 36 19 7 35 20 6 37 21 6 37 19 14 38 22 21 37 24 26 38 28 39 35 32 40 35 32 35 31 30 33 32 28 28 27 23 30 29 25 31 31 31 33 33 35 36 36 38 38 38 40 40 40 42 43 44 46 44 42 45 44 42 43 45 43 44 34 32 35 31 32 34 41 41 43 42 42 42 36 36 38 36 34 37 32 30 33 24 24 26 19 19 21 12 11 9 11 11 9 5 24 18 7 24 18 4 32 20 4 32 20 2 25 17 3 24 19 18 24 24 25 25 27 24 25 27 23 23 25 25 23 26 28 28 30 30 28 31 33 33 35 33 33 33 24 23 28 26 24 27 23 27 28 23 29 29 19 34 31 17 36 34 17 36 34 20 36 36 20 34 35 16 26 27 16 26 27 28 26 29 27 25 28 28 26 29 28 26 29 30 28 31 30 28 31 30 28 31 31 29 32 30 28 31 30 28 31 
49 31 17 52 34 22 50 34 21 39 27 15 41 27 16 31 24 14 31 24 16 27 22 18 26 23 18 20 16 13 17 13 12 20 19 17 29 25 22 26 22 21 17 16 12 17 16 14 15 16 8 15 16 8 17 23 9 19 23 9 18 24 10 20 26 12 19 28 11 19 25 11 16 22 8 14 17 8 13 21 10 10 34 18 10 34 18 7 35 20 8 35 18 7 35 20 7 35 20 6 34 19 6 32 19 13 33 21 21 34 25 25 35 27 37 33 30 39 34 31 35 31 30 35 31 30 25 26 21 26 27 22 29 27 30 31 29 32 34 34 36 36 36 38 37 37 39 43 43 45 43 41 44 46 44 47 46 44 47 36 36 38 36 36 38 41 39 42 41 41 43 34 34 36 32 32 34 29 29 31 25 23 26 21 19 20 12 10 11 11 13 10 4 25 20 4 25 18 5 32 23 5 32 25 4 27 21 3 26 20 17 26 25 24 25 27 24 22 25 26 24 27 25 25 27 28 26 29 29 27 30 30 28 31 30 28 31 25 23 26 24 22 27 24 25 27 23 27 28 19 31 31 15 36 29 19 35 34 22 36 36 19 33 33 19 27 29 19 27 29 25 23 26 24 24 26 27 25 28 28 26 29 29 27 30 29 27 30 29 27 30 29 27 30 29 27 30 29 27 30 
51 33 21 48 30 16 48 30 16 46 33 17 48 30 16 52 34 22 52 34 20 40 28 16 35 27 16 25 21 12 19 16 11 21 20 16 31 26 23 29 25 22 25 21 18 25 21 18 14 17 10 14 17 10 18 24 10 21 25 11 18 24 10 19 23 8 19 25 11 20 27 11 20 27 11 20 26 12 19 25 11 13 21 10 13 19 9 7 29 17 7 29 17 5 31 18 5 31 20 3 26 18 1 24 18 10 27 21 20 31 27 22 31 26 37 33 30 38 35 30 36 32 29 35 31 30 19 19 19 20 19 17 21 19 22 21 21 23 24 24 26 28 26 31 30 28 33 37 35 38 40 38 41 50 48 49 49 47 50 46 46 48 48 46 49 41 39 42 39 39 41 26 26 28 24 24 26 23 23 25 23 23 25 19 17 18 11 9 10 11 11 9 5 28 22 5 28 22 3 32 27 2 33 27 3 33 25 3 33 25 16 26 25 20 21 23 24 24 26 28 26 29 27 27 29 25 23 26 23 21 26 19 17 20 19 17 20 22 20 25 22 20 23 19 19 21 19 18 23 18 28 29 16 35 33 18 37 35 25 41 38 25 40 37 26 30 29 24 28 29 16 15 20 17 17 19 27 25 28 28 26 29 27 25 28 26 24 27 27 25 28 27 25 28 26 24 27 26 24 27 
51 33 21 48 30 18 48 30 16 49 33 20 49 31 19 52 34 20 50 34 19 41 29 17 40 27 18 28 21 13 21 16 12 25 20 16 32 27 24 30 26 23 24 23 19 26 22 19 16 17 11 16 17 9 20 23 12 20 24 10 17 23 11 16 22 10 18 21 10 21 25 11 20 24 10 20 24 10 18 24 10 13 21 10 14 20 8 7 27 15 6 28 15 5 31 18 4 31 22 4 27 19 3 24 19 11 27 24 18 29 25 25 31 29 40 34 34 38 34 31 33 32 30 36 32 29 20 19 17 20 19 17 20 20 22 21 19 22 25 23 26 28 26 29 31 29 32 36 34 37 39 37 40 47 47 47 48 46 49 46 44 47 46 44 47 40 38 41 38 38 40 26 26 28 24 22 25 22 22 24 23 22 27 19 19 19 12 12 12 9 13 12 3 28 24 6 28 25 3 32 27 5 32 27 5 32 25 3 33 25 14 24 23 22 20 23 23 23 25 25 25 27 26 26 28 24 22 25 24 22 27 20 18 23 20 18 21 22 20 23 21 19 24 20 18 21 19 17 20 18 26 28 16 32 31 17 36 34 24 40 37 24 38 38 23 32 31 24 30 30 17 17 19 17 17 19 27 25 28 29 27 30 26 24 27 26 24 27 26 24 27 26 24 27 26 24 27 25 23 26 
50 32 18 46 28 16 48 30 18 52 34 20 51 33 21 50 34 19 49 33 18 47 31 18 47 29 17 46 30 17 48 30 18 49 33 20 50 33 23 45 32 23 36 29 21 36 27 22 23 22 20 24 20 19 21 17 16 18 17 15 16 17 12 14 15 9 15 16 10 13 16 7 10 16 6 13 19 9 14 17 8 13 19 9 13 19 9 8 21 14 9 22 15 4 29 23 2 32 24 4 31 26 3 30 25 7 28 23 11 26 23 18 28 27 43 39 36 43 38 35 34 30 27 33 29 28 21 20 18 21 20 18 18 18 20 17 15 18 22 20 23 24 22 25 26 24 27 30 28 31 32 30 33 36 34 35 36 34 37 42 40 43 41 39 40 40 38 41 38 36 39 26 24 27 19 18 23 21 20 25 23 22 27 20 20 22 13 22 19 12 23 19 6 35 31 6 35 31 3 29 28 3 29 28 3 21 23 3 19 19 12 17 20 17 16 21 19 19 21 20 20 22 21 19 22 21 19 20 22 20 25 25 23 26 24 22 25 20 18 23 21 19 22 17 15 18 16 14 19 14 24 25 11 29 29 12 31 29 15 34 32 15 33 33 14 33 31 16 30 30 19 17 20 21 16 20 28 26 29 29 27 30 25 23 26 23 21 24 24 22 25 24 22 25 23 21 24 22 20 23 
49 33 18 45 27 15 47 29 17 52 34 20 52 34 20 50 32 20 51 33 19 47 29 15 47 29 17 45 29 16 48 30 16 48 32 19 51 33 23 45 32 23 35 28 22 36 27 22 23 22 20 24 20 19 19 19 17 19 18 16 17 16 12 14 15 9 13 14 9 13 16 9 14 17 8 14 17 8 14 17 8 12 18 8 13 19 9 8 21 12 6 22 12 4 31 26 2 32 24 4 31 26 3 30 25 8 28 26 11 25 25 19 29 28 43 39 36 42 37 34 33 30 25 34 30 29 20 18 19 21 19 20 18 16 19 19 17 22 22 20 25 23 23 25 27 25 28 30 28 31 32 30 33 36 34 37 36 34 37 42 40 43 42 40 41 40 38 41 38 36 39 28 23 27 19 18 23 21 20 25 23 21 26 20 21 23 13 22 19 12 22 21 5 36 30 6 35 31 3 29 26 3 27 29 1 21 22 3 19 19 13 18 21 18 17 22 20 18 23 20 18 23 21 19 24 21 19 22 20 20 22 25 23 26 24 24 26 20 20 22 19 18 24 17 15 18 15 14 19 13 25 25 11 29 29 14 30 29 14 32 32 15 33 33 15 34 32 16 32 32 20 18 21 18 18 20 28 26 29 29 27 30 24 22 25 22 20 23 24 22 25 24 22 25 23 21 24 21 19 22 
49 31 17 50 32 20 50 32 18 51 33 19 52 34 22 52 34 20 52 36 21 45 29 16 43 25 13 47 31 18 52 36 21 50 34 19 51 33 19 46 32 19 43 27 14 45 27 15 46 32 21 48 34 21 26 21 18 23 19 16 22 18 17 20 18 19 18 17 15 17 15 16 16 15 13 14 13 9 13 15 12 3 28 25 0 29 25 2 30 31 3 32 30 1 29 30 2 31 29 1 27 26 2 27 24 0 22 20 0 18 18 3 19 19 11 21 22 15 24 23 36 35 33 36 35 31 20 16 17 18 17 15 26 24 25 28 27 32 26 24 29 23 23 25 29 27 30 36 34 37 37 35 38 42 40 41 40 38 41 44 42 45 45 44 42 25 23 26 27 22 26 22 20 23 21 20 25 22 21 26 22 23 27 18 26 29 11 31 32 11 32 35 13 34 35 13 35 33 4 20 20 4 19 22 1 17 17 0 16 16 10 18 21 15 19 22 17 16 21 17 15 20 17 17 19 18 16 19 17 15 18 19 17 20 21 19 22 15 14 19 15 13 18 15 15 17 15 13 16 20 29 28 22 37 34 20 41 36 20 43 35 21 44 36 26 43 37 25 40 37 19 19 21 22 22 24 24 22 25 22 20 23 23 21 24 22 20 23 23 21 24 23 21 24 23 21 24 23 21 24 
49 31 19 51 33 19 50 32 18 51 33 21 52 34 20 52 34 20 53 35 21 46 28 16 43 25 13 49 31 19 50 34 21 51 35 20 52 33 19 50 32 18 43 27 14 45 27 15 48 32 19 48 31 21 26 21 17 23 19 16 20 19 17 20 18 19 19 18 16 17 15 16 16 14 15 13 13 11 10 15 11 3 28 25 3 28 25 1 31 29 3 32 30 2 31 29 3 32 30 3 27 27 2 23 24 2 22 23 0 17 19 5 19 20 11 19 21 16 22 22 35 34 32 38 34 31 18 17 15 18 17 15 25 25 25 30 28 33 26 25 30 25 22 29 28 26 29 36 34 37 37 35 38 40 38 41 43 38 42 44 42 43 46 41 45 28 23 27 24 22 25 21 21 23 22 20 25 21 20 26 22 23 27 17 27 28 11 30 34 12 32 33 11 35 35 12 36 36 4 20 20 2 20 20 2 16 19 1 16 19 9 17 19 18 19 23 16 17 21 18 16 19 18 16 19 19 17 20 17 17 19 19 17 20 19 17 20 14 14 16 15 15 17 14 14 16 14 14 16 20 29 28 22 37 34 20 39 35 19 45 34 21 44 34 25 42 36 23 39 36 22 21 26 22 20 25 21 21 23 22 22 24 23 21 24 23 21 24 23 21 24 24 22 25 22 20 23 22 20 23 
49 31 17 51 33 19 51 33 19 51 33 19 52 34 20 47 31 16 48 30 16 46 30 15 48 30 18 50 32 18 50 34 21 51 34 18 49 31 19 48 30 16 47 29 15 47 29 17 49 33 20 48 32 19 32 22 13 32 19 13 23 18 14 23 18 15 21 17 14 19 18 16 17 16 14 17 16 14 15 15 13 4 24 23 5 24 22 4 30 31 3 28 32 2 26 30 2 27 31 4 24 31 1 25 29 2 23 28 2 23 28 4 23 29 5 23 25 7 22 25 11 21 22 13 21 23 15 16 18 15 16 18 28 28 28 33 33 35 27 25 28 22 22 24 26 24 27 30 28 31 30 28 31 28 26 31 28 26 31 32 30 33 35 30 34 31 29 32 33 31 34 30 30 32 30 28 31 27 25 30 20 23 28 16 25 30 10 28 32 9 26 33 5 26 31 5 26 31 4 19 24 1 19 23 1 15 18 1 15 18 12 20 22 20 24 25 20 21 23 17 17 19 17 17 19 16 14 17 16 14 17 14 14 16 15 13 16 15 15 17 16 14 17 17 15 18 16 16 18 14 26 24 16 30 30 13 32 30 10 35 31 11 36 33 15 34 32 16 30 30 18 19 24 18 19 23 20 20 22 20 20 22 20 20 22 20 20 22 21 21 23 22 22 24 22 20 23 22 20 23 
50 32 18 51 33 19 51 33 19 52 34 20 52 32 21 46 28 16 46 28 16 48 32 19 48 32 19 51 35 22 50 34 19 51 33 19 50 32 20 48 30 16 48 30 18 47 29 17 48 32 19 51 34 18 36 22 13 35 21 12 26 19 13 21 17 14 20 16 15 18 17 15 18 17 15 17 16 12 18 17 15 7 23 22 7 23 22 3 29 30 3 28 32 3 27 31 4 25 30 1 24 30 3 22 28 4 24 31 4 25 30 3 24 29 3 22 28 2 21 27 6 14 17 4 15 19 13 17 18 13 17 18 29 30 32 35 35 37 27 25 28 22 20 23 22 22 22 28 26 31 28 26 29 23 21 24 25 23 28 28 26 29 27 25 28 34 34 36 38 33 37 34 32 35 34 32 37 29 27 30 21 25 28 19 27 30 11 26 31 9 27 31 3 24 29 2 22 29 2 17 20 2 17 22 0 14 17 0 14 17 15 20 24 25 26 30 22 22 24 19 19 21 18 18 20 15 13 16 16 14 17 14 14 16 16 14 17 16 14 17 16 14 17 15 14 19 15 14 19 15 23 25 13 29 26 12 31 29 5 34 30 7 31 31 12 31 29 15 29 29 19 20 22 18 19 23 19 19 21 19 19 21 19 19 21 18 18 20 20 20 22 21 21 23 22 20 23 21 19 22 
50 32 18 51 33 19 51 33 19 51 33 19 50 34 18 44 28 15 46 28 14 47 31 16 52 34 20 53 35 21 51 33 19 50 32 18 46 28 16 46 30 17 50 32 18 50 32 18 44 28 15 44 28 15 38 19 12 34 19 12 31 21 12 30 19 13 26 18 15 20 19 15 21 17 16 18 17 13 16 16 16 6 20 20 8 20 20 3 27 27 6 25 29 3 18 23 1 16 21 1 19 23 1 19 23 1 18 25 1 19 23 0 18 22 2 17 22 2 17 22 3 14 18 1 15 18 7 15 17 7 15 17 16 21 25 21 25 26 27 27 29 29 29 31 31 31 31 32 30 33 32 30 33 34 32 35 33 31 34 35 33 36 36 34 37 35 33 36 39 33 37 23 21 24 20 19 24 19 18 23 19 17 22 15 19 22 11 22 26 9 23 26 0 17 21 0 17 21 0 13 19 2 16 19 3 14 18 0 14 17 7 17 19 10 18 20 16 17 21 20 18 21 19 17 20 16 14 17 15 14 19 16 14 17 16 14 17 13 11 14 12 10 13 10 10 12 12 12 14 15 20 23 18 27 26 16 28 28 14 30 29 12 31 29 14 28 28 16 28 28 22 23 25 22 22 24 17 17 19 16 16 18 17 15 18 15 13 16 17 15 18 17 15 18 18 16 19 17 15 18 
51 33 19 51 33 19 52 34 20 51 33 19 49 33 20 45 29 14 45 27 15 50 32 18 51 33 21 54 35 21 52 33 19 49 31 19 44 28 15 48 28 17 52 33 19 51 35 20 42 25 15 39 25 14 34 20 11 34 17 7 34 19 12 33 18 11 28 19 14 22 18 15 22 18 17 18 17 15 18 17 15 8 20 18 8 18 17 6 25 29 5 26 27 4 13 18 1 12 16 1 16 21 2 17 22 1 16 21 1 15 18 1 15 18 0 14 17 2 13 17 0 14 17 0 14 17 2 13 17 2 13 17 9 19 21 11 19 22 28 29 33 36 34 37 34 32 35 34 32 35 37 35 38 38 36 39 38 36 39 39 37 40 40 38 41 37 32 36 37 32 36 17 17 19 10 9 14 13 12 17 15 14 19 10 15 18 9 19 21 8 17 22 1 12 16 2 13 19 2 13 17 0 13 16 2 13 17 0 13 16 3 14 16 5 15 17 12 16 19 20 18 21 19 17 20 16 14 17 16 14 17 16 14 17 16 14 17 12 10 13 12 10 13 11 9 12 10 10 12 15 19 22 20 25 28 19 27 29 20 30 31 18 30 28 13 27 27 17 27 28 26 26 28 24 23 28 16 16 18 14 14 16 15 13 16 13 11 14 15 13 16 15 13 16 15 13 16 15 13 16 
51 33 19 51 33 19 50 32 18 49 31 17 47 31 18 47 29 17 46 30 17 50 32 18 50 34 19 50 32 18 50 32 18 48 30 16 46 30 15 48 30 18 51 33 19 51 33 19 39 22 15 40 23 15 32 19 11 32 19 13 33 18 11 33 18 11 30 19 13 27 19 16 25 17 15 18 17 15 17 17 15 7 17 18 7 17 16 5 26 29 5 26 27 0 15 18 2 13 17 3 14 18 1 16 21 1 16 21 1 15 18 0 14 17 0 15 20 1 16 21 2 17 22 0 18 22 0 14 17 0 14 17 5 16 20 8 18 20 23 24 28 30 29 35 32 30 33 31 31 31 33 31 34 36 34 35 36 34 37 35 33 36 35 33 36 32 30 33 31 29 32 18 18 20 15 13 18 16 15 20 17 16 21 17 18 22 11 21 23 9 20 22 0 14 14 2 13 17 0 14 17 0 14 17 2 13 17 1 12 16 1 12 16 3 14 18 9 17 20 19 19 21 16 14 17 14 12 15 14 12 15 15 13 16 15 13 16 12 12 14 12 12 14 17 15 20 17 15 20 22 23 27 27 28 32 25 29 32 22 30 32 19 29 30 11 27 26 11 27 27 24 24 26 23 25 24 18 18 20 16 16 18 14 14 16 12 12 14 13 13 15 13 13 15 14 12 15 14 12 15 
52 34 20 51 33 19 52 34 20 44 26 14 44 26 14 51 33 19 51 33 19 51 33 19 50 32 18 48 32 19 47 29 15 47 31 18 50 32 20 50 32 18 49 33 20 49 33 18 35 18 11 35 18 10 26 18 15 23 18 15 28 17 11 30 17 9 33 19 10 32 19 11 27 18 13 16 15 11 17 16 14 9 15 15 8 14 14 4 23 27 1 25 27 1 16 21 1 14 20 3 14 18 2 13 17 1 15 18 1 15 16 2 16 19 1 19 23 2 19 26 3 23 32 2 22 29 0 13 19 1 14 20 0 14 17 1 12 16 14 19 23 21 22 24 23 24 28 24 22 25 27 25 28 30 28 33 30 28 31 29 27 30 28 26 29 24 22 25 23 21 24 19 19 21 19 17 22 21 21 23 22 21 26 21 20 25 12 20 22 11 19 22 3 14 18 4 15 19 2 13 17 2 13 17 2 13 17 2 13 17 0 14 17 0 12 18 5 13 16 12 13 17 12 11 16 9 8 13 10 9 14 14 13 18 14 12 17 15 13 18 13 12 17 26 24 29 29 27 32 32 30 35 35 30 36 31 30 36 26 30 33 21 29 32 6 26 24 6 25 23 19 25 25 19 25 25 19 19 21 18 18 20 14 14 16 12 12 14 11 11 13 11 11 13 13 11 14 12 10 13 
50 32 18 52 34 20 50 32 18 44 26 14 45 27 15 52 34 20 50 34 19 51 33 19 51 33 19 45 31 18 46 28 16 47 31 18 51 33 19 50 32 18 47 31 18 46 30 17 34 19 12 33 18 11 26 21 18 25 19 19 29 18 14 31 18 12 32 19 11 32 19 11 30 17 11 20 15 12 20 15 12 8 12 13 9 13 14 2 23 28 2 23 26 2 16 19 0 15 18 2 16 19 1 16 19 2 17 20 1 16 19 2 17 20 0 19 25 1 20 26 1 24 30 3 24 29 0 15 18 2 16 19 0 13 21 1 12 16 14 17 22 20 21 25 22 23 27 24 22 27 24 22 25 28 26 31 27 25 28 27 25 28 26 24 27 22 20 23 22 20 23 20 20 22 20 18 23 22 22 24 21 22 26 20 21 25 13 23 24 12 20 23 4 15 19 4 15 21 1 12 16 0 14 17 2 13 19 3 12 17 2 13 17 2 13 17 8 13 17 12 13 17 14 13 18 14 12 17 16 11 17 19 17 22 20 18 23 18 16 21 21 16 22 28 23 29 31 26 32 34 29 35 34 32 37 32 29 36 28 29 33 22 27 30 4 26 23 7 26 22 16 25 24 18 23 26 15 15 17 15 15 17 13 11 14 13 11 14 12 10 13 11 9 12 11 9 12 11 9 12 
52 34 20 51 33 19 48 30 16 47 29 17 46 28 16 52 34 20 52 34 20 50 34 19 50 32 18 46 30 17 45 29 16 47 31 18 52 34 20 48 30 18 40 23 15 40 23 13 29 18 14 30 19 15 28 22 22 28 22 22 26 21 18 23 19 16 27 18 13 34 17 10 31 18 10 30 19 13 26 17 12 11 11 11 8 10 9 3 17 18 3 17 18 0 14 17 0 13 14 2 23 26 3 29 30 4 28 28 4 25 28 3 24 27 1 16 21 0 18 22 2 22 29 1 24 30 0 18 22 2 17 24 1 16 21 1 15 18 9 19 21 15 23 26 16 20 23 15 14 19 15 14 19 18 16 19 18 16 19 18 18 20 19 17 22 21 19 24 21 19 24 22 20 25 22 20 25 21 19 24 19 18 23 19 20 24 18 23 26 18 21 26 7 17 19 8 17 22 2 13 17 0 14 17 1 12 16 0 13 16 2 13 19 2 13 17 6 16 18 10 15 19 14 17 22 26 24 29 29 24 31 36 31 38 37 32 39 33 28 35 34 29 36 30 25 31 27 24 31 33 28 35 35 30 37 33 28 35 25 23 28 23 24 28 11 25 26 9 25 25 9 19 20 9 17 19 9 9 11 10 8 11 8 8 10 11 9 12 10 9 14 10 9 14 10 10 12 10 8 11 
51 33 19 49 31 17 49 31 17 47 29 17 47 29 17 52 35 19 52 34 22 49 33 18 48 30 18 47 31 18 45 29 16 48 30 16 51 35 20 48 30 18 40 23 16 40 23 15 29 19 17 29 20 15 28 22 22 27 23 22 26 21 18 24 20 17 28 19 14 31 18 10 31 18 12 31 18 12 28 17 13 10 12 9 10 12 9 1 17 17 0 17 19 1 15 18 2 13 17 2 21 25 2 26 28 4 25 28 1 25 27 3 24 29 0 17 24 0 18 24 2 22 29 0 23 29 1 19 23 0 17 24 1 16 21 2 15 21 10 19 24 13 23 25 15 18 23 16 15 20 18 16 21 18 17 22 19 17 20 20 20 22 21 19 24 23 21 26 22 20 25 22 20 25 22 20 25 20 18 23 19 17 20 21 20 26 19 24 27 16 21 24 8 18 20 7 17 19 3 14 16 3 14 18 2 13 17 0 11 15 2 13 17 2 13 17 7 14 20 12 15 20 15 18 23 27 24 31 31 26 32 36 31 38 36 31 37 32 27 34 32 27 33 28 23 29 25 23 28 31 26 32 31 29 34 30 25 31 25 23 28 23 22 27 10 24 25 8 24 24 8 18 19 10 18 20 10 8 11 10 8 11 10 8 9 10 8 11 10 8 9 10 10 12 10 9 14 11 9 14 
49 31 17 43 25 11 44 26 14 51 33 19 51 33 19 52 34 20 52 34 20 45 29 16 44 26 14 47 31 18 50 34 21 50 32 20 48 30 18 45 28 18 33 18 11 33 18 11 28 23 20 27 22 19 26 22 21 28 23 20 28 24 23 28 22 22 27 22 19 25 20 16 27 18 13 33 19 10 31 16 9 23 16 10 23 13 11 0 13 14 1 12 16 0 14 17 2 13 17 2 13 17 0 13 16 0 13 16 0 13 16 1 14 20 1 20 26 1 20 27 0 23 29 0 23 31 2 22 29 1 21 30 1 21 32 1 21 30 3 21 31 4 23 29 12 23 29 24 24 26 24 22 25 23 21 24 23 21 24 25 25 27 25 23 28 25 23 28 25 23 28 20 18 23 18 16 21 17 15 20 13 12 17 17 18 22 22 26 29 20 25 28 8 17 24 7 18 22 13 21 24 12 20 23 1 15 18 1 12 16 2 13 17 0 14 17 16 21 25 31 28 35 31 28 37 36 30 40 35 30 36 23 21 26 22 20 25 20 18 23 19 17 22 16 14 19 15 13 18 17 12 18 17 15 20 16 14 19 15 13 16 17 15 20 17 22 26 17 22 26 13 24 26 12 26 27 14 15 17 14 14 16 10 10 12 11 6 10 10 8 9 9 8 13 13 12 17 16 15 21 
50 31 17 44 26 14 43 25 13 51 33 19 51 33 21 53 35 21 52 34 20 45 28 18 43 27 14 48 32 17 50 32 18 50 32 20 47 31 16 45 28 18 36 19 12 35 18 11 27 22 19 26 22 21 26 22 21 26 22 19 28 22 22 29 23 23 26 21 18 24 19 16 29 18 14 32 18 9 31 18 10 22 13 8 24 14 12 2 13 17 2 11 16 1 12 16 2 13 17 0 13 19 0 13 16 2 13 17 0 14 17 1 14 20 1 20 26 1 20 27 0 23 29 0 22 30 2 22 29 0 23 31 0 22 30 1 22 27 3 22 29 3 22 28 11 22 28 24 22 25 22 22 24 24 22 25 24 22 25 26 24 27 26 24 27 25 23 28 25 23 28 21 19 24 20 18 23 17 15 18 14 12 17 17 18 20 22 26 29 20 26 26 6 17 19 7 18 20 12 20 23 12 20 22 3 14 18 1 12 14 2 11 16 2 13 17 16 19 24 30 27 34 31 28 35 36 30 40 34 29 35 23 21 26 22 20 25 20 18 23 20 17 24 16 14 19 15 12 19 15 13 18 15 14 19 15 13 18 15 13 18 16 15 20 16 20 23 17 20 25 11 25 26 14 25 27 14 15 17 15 13 16 10 10 12 8 8 10 8 8 10 10 9 14 11 10 15 15 16 21 
49 31 19 47 29 17 48 30 18 51 33 19 50 32 18 51 34 18 50 32 18 48 30 18 46 30 17 50 34 19 51 33 19 48 30 18 40 23 13 37 22 15 29 18 12 29 20 15 27 21 21 29 23 23 26 22 19 26 22 21 28 22 22 26 22 21 28 22 22 26 22 21 28 20 18 25 18 12 27 18 13 32 17 10 32 17 12 14 14 16 11 15 16 2 13 15 0 14 17 0 14 17 2 13 17 0 14 19 0 14 17 2 13 17 0 14 17 0 13 19 1 15 18 0 13 19 1 16 21 1 16 21 0 17 24 0 17 24 3 22 29 3 23 30 4 25 30 9 24 27 11 25 26 21 21 23 22 22 24 26 24 27 26 24 27 23 21 26 22 20 25 23 21 26 24 22 27 18 16 19 16 14 19 17 18 22 24 28 31 21 26 29 23 27 30 22 27 30 21 24 29 19 24 28 10 20 22 9 19 21 3 12 17 2 13 17 14 17 22 25 22 29 25 22 29 30 25 31 27 25 30 16 14 19 15 13 18 18 13 19 16 14 19 12 9 16 12 9 16 12 9 16 14 11 18 13 10 17 14 11 18 14 11 18 17 16 22 20 17 24 40 37 46 39 36 43 31 30 38 31 28 37 24 27 34 22 26 35 22 26 35 22 29 39 23 27 39 18 24 38 
47 31 18 47 31 18 48 30 18 52 34 20 51 33 19 49 33 18 50 32 20 48 30 18 47 31 18 49 33 18 51 35 20 45 29 16 39 21 11 35 20 13 28 19 14 29 19 17 28 23 20 28 22 22 27 23 22 27 21 21 29 23 23 27 23 22 26 25 23 27 23 20 27 22 19 25 17 14 25 17 14 35 18 10 33 18 11 14 16 15 16 14 15 2 13 15 0 14 15 0 14 17 2 13 17 0 14 17 2 13 17 1 12 16 1 12 16 1 12 16 0 14 17 0 14 17 1 15 18 1 15 18 2 17 22 1 16 21 1 22 27 1 24 30 2 26 30 9 24 29 11 25 28 22 20 23 22 22 24 26 24 27 26 24 29 24 22 27 22 20 25 23 21 26 24 22 27 20 18 23 15 14 19 18 19 23 23 27 30 22 26 29 24 29 32 25 29 32 21 26 30 21 26 30 10 20 22 11 19 22 6 16 18 0 14 17 12 17 21 27 22 28 26 21 27 29 24 30 26 24 29 14 11 18 14 12 17 14 11 18 15 12 19 10 9 15 11 8 15 11 8 15 12 11 17 15 10 17 14 12 17 17 12 19 16 13 20 18 17 22 43 37 47 45 38 46 34 31 40 31 28 37 25 28 37 23 27 38 23 29 41 24 30 44 23 29 43 20 26 40 
46 30 17 50 34 21 52 34 20 52 34 22 51 35 20 45 29 16 46 28 16 50 32 20 50 34 19 49 33 20 48 32 19 44 27 17 33 19 10 32 19 13 26 20 20 27 21 21 29 24 21 27 21 21 29 23 23 28 22 22 28 22 22 27 23 22 27 22 19 27 22 19 30 21 16 30 17 11 31 18 10 33 16 8 33 16 8 28 17 13 28 17 11 9 15 15 5 13 15 3 14 16 0 16 16 1 12 18 2 13 17 0 14 17 0 14 17 0 13 16 2 13 17 2 13 17 0 13 16 0 14 17 2 13 19 0 14 17 1 16 19 0 18 22 5 20 23 8 26 26 13 24 26 19 19 21 19 19 21 25 23 26 25 23 28 23 21 26 21 19 24 22 20 25 23 21 26 18 16 21 14 12 17 18 17 22 26 27 31 25 26 28 25 31 31 25 30 33 13 21 24 15 20 26 12 20 23 13 20 26 9 19 21 8 18 20 14 17 22 21 19 24 22 21 26 34 29 36 33 28 35 30 25 32 30 25 32 19 14 21 20 15 22 18 15 22 19 16 23 16 13 20 14 11 20 14 11 18 11 10 16 13 10 17 16 11 18 17 14 21 30 29 37 30 29 37 27 29 41 28 32 43 20 26 38 18 24 38 20 23 38 17 23 37 17 23 35 17 21 33 
46 30 17 53 37 24 55 38 22 52 34 20 51 35 22 43 27 14 43 26 16 51 33 19 52 36 21 49 33 20 47 31 18 41 27 18 32 17 10 29 20 13 28 24 23 27 23 22 27 23 24 28 22 22 27 23 22 28 24 23 27 23 22 28 22 22 28 22 22 28 23 20 28 20 17 33 18 11 31 17 8 32 13 6 33 15 5 33 18 11 36 19 12 10 14 13 7 15 17 3 14 16 2 13 17 0 14 17 1 12 14 0 14 17 0 14 17 2 13 17 0 13 19 1 12 16 2 13 17 2 13 17 0 14 15 0 14 17 1 15 18 1 16 19 2 20 22 10 26 26 13 24 26 18 16 19 17 17 19 24 22 25 24 22 27 22 20 25 23 21 26 21 19 24 22 20 25 17 15 20 13 11 16 20 18 23 24 28 31 26 27 31 26 30 33 29 30 34 12 20 23 13 18 24 15 20 26 13 21 23 10 20 22 11 18 24 13 16 21 18 16 21 21 20 25 35 32 39 36 31 38 34 29 36 33 30 37 20 17 24 21 16 22 21 19 24 23 18 24 20 15 21 15 13 18 14 11 18 13 11 16 15 10 17 13 10 17 13 12 18 25 25 35 25 25 33 25 32 42 26 32 44 17 25 36 16 22 36 17 23 35 16 22 34 16 22 34 14 21 31 
49 31 19 52 34 22 54 36 22 50 32 18 49 33 18 46 28 16 45 28 18 51 35 20 51 35 20 46 30 17 44 27 17 38 23 16 29 20 15 30 21 16 28 24 21 27 23 22 29 24 21 27 23 22 27 21 21 28 23 20 30 22 19 30 20 19 33 19 16 32 19 11 33 18 11 33 16 8 35 17 7 35 15 6 33 14 7 24 16 13 23 15 12 8 13 16 4 14 16 3 13 15 2 13 17 0 14 17 2 13 17 0 14 17 2 13 17 2 13 17 2 13 17 0 14 17 0 14 17 0 14 17 0 14 17 2 13 17 5 16 20 7 18 20 9 20 22 13 24 26 15 23 26 21 22 26 22 21 26 24 22 27 23 21 24 20 20 22 20 18 23 22 20 25 22 20 23 19 17 22 17 15 20 18 19 21 19 23 26 20 24 27 27 31 34 26 31 34 16 21 24 15 23 26 12 20 23 11 19 22 9 17 20 9 17 20 12 15 20 14 13 18 18 17 22 26 24 29 25 23 28 29 27 32 31 26 32 23 18 24 23 18 24 29 24 30 30 25 31 30 25 32 27 24 31 28 23 30 23 20 27 24 21 28 30 23 31 29 26 33 33 31 42 31 31 41 29 33 42 28 32 43 23 27 39 20 24 36 24 26 39 28 28 40 27 27 37 24 23 31 
51 33 19 53 35 21 52 34 24 48 30 18 48 30 18 48 32 19 48 32 19 50 34 21 51 33 19 43 26 16 38 21 13 35 20 13 29 19 17 29 21 18 28 22 22 29 23 23 29 23 23 27 23 22 24 23 21 26 22 19 31 20 16 30 19 13 35 18 11 36 16 5 35 15 4 35 15 4 32 14 4 34 14 5 35 15 6 11 13 12 12 14 13 4 14 16 3 13 15 2 13 15 2 13 17 2 13 17 2 13 17 2 13 17 2 13 17 2 13 17 0 14 17 0 14 17 0 14 17 2 13 17 0 13 19 2 13 17 7 18 20 10 20 22 11 19 22 14 22 25 16 24 26 25 29 32 24 28 31 20 20 22 23 18 24 19 17 22 19 17 20 21 19 24 21 19 24 20 19 24 21 20 25 18 19 23 13 18 21 13 18 21 28 29 33 27 28 32 20 24 27 20 24 27 9 17 20 8 16 19 6 16 18 5 15 17 9 12 17 12 11 16 13 12 18 17 15 20 18 16 21 25 23 28 25 23 28 26 21 27 26 21 27 37 32 39 39 34 41 41 36 43 43 38 45 40 35 42 33 30 37 39 34 41 44 37 45 45 40 47 40 37 46 39 38 46 33 33 45 29 33 44 25 27 40 23 25 37 31 29 40 40 32 43 35 32 39 32 27 33 
53 35 21 53 35 21 52 34 20 47 29 17 46 30 17 50 32 18 50 32 18 49 33 20 49 33 20 39 25 16 35 21 10 30 19 13 26 21 17 29 21 19 28 24 21 27 23 20 29 24 20 28 23 19 30 21 16 31 20 16 34 19 12 33 19 10 34 17 9 36 16 7 34 16 6 32 15 7 33 14 7 35 15 4 35 15 4 9 13 12 12 14 13 5 13 16 2 13 17 2 13 17 2 13 17 0 13 16 0 13 16 2 13 17 2 13 17 2 13 17 0 14 17 0 14 17 0 14 17 0 14 17 4 15 17 4 15 17 10 20 22 13 21 24 13 21 24 12 22 24 15 20 24 22 26 29 21 25 28 18 19 23 18 19 23 20 15 21 18 16 19 19 18 24 21 19 24 20 20 22 18 19 23 17 18 22 10 18 21 14 19 23 24 28 29 26 27 31 12 20 23 15 20 24 8 16 19 7 17 19 4 15 17 3 14 16 8 13 17 12 11 16 12 11 17 17 15 20 17 15 20 22 20 25 22 20 25 21 19 24 20 18 23 28 25 32 33 28 35 35 30 36 33 30 37 33 28 35 30 25 32 31 26 33 38 31 39 35 30 37 33 30 37 32 31 37 26 26 36 25 25 35 23 23 33 22 22 32 27 24 33 30 27 34 29 24 31 26 21 27 
52 34 20 50 32 18 50 32 18 44 26 14 43 25 13 52 34 20 51 35 20 48 32 19 47 31 18 38 24 15 31 18 12 33 19 16 27 21 21 27 23 22 27 23 20 27 23 20 30 19 15 30 19 15 36 18 8 35 16 9 36 16 5 35 15 4 35 17 7 33 14 7 30 15 8 27 14 8 28 15 9 34 16 4 35 15 6 10 14 15 9 13 14 2 13 17 2 13 17 0 14 17 3 14 18 0 14 17 0 13 16 1 12 16 2 13 17 0 14 17 0 14 17 0 14 17 0 14 17 0 14 17 7 18 20 8 18 20 15 23 26 20 25 28 17 22 25 11 19 22 14 18 21 18 22 25 17 21 24 11 16 20 12 17 21 15 14 19 15 13 16 17 16 21 18 18 20 18 16 21 17 16 21 15 16 20 14 19 22 15 20 23 18 23 26 18 23 27 2 13 15 2 13 15 4 15 19 5 14 19 4 15 19 3 14 18 5 13 16 9 10 14 10 9 14 15 13 18 15 13 18 18 16 21 18 16 21 16 14 19 16 14 19 20 17 24 21 18 25 21 18 25 22 19 26 23 18 25 18 15 22 18 15 22 22 19 26 22 19 26 21 18 25 24 19 26 19 14 20 16 14 19 17 14 21 17 15 20 18 16 21 20 15 21 15 13 18 14 12 17 
51 33 19 49 31 17 49 31 19 45 27 15 45 29 16 52 34 22 52 34 20 43 29 16 44 27 17 36 21 14 30 19 13 29 19 17 27 21 21 28 23 20 29 21 18 29 21 18 31 18 12 31 18 12 35 17 7 35 17 7 35 17 7 33 16 6 34 17 9 32 17 10 30 17 11 28 15 7 26 15 9 35 15 4 34 16 4 9 13 14 7 13 13 2 13 15 2 13 15 0 14 17 0 14 17 2 13 17 1 12 16 0 13 16 0 14 17 2 13 17 2 13 17 0 14 17 0 14 17 2 13 17 7 17 19 8 16 19 12 20 23 17 22 25 13 21 24 10 18 20 10 18 21 13 21 24 15 20 23 13 16 21 12 17 21 16 15 20 16 16 18 16 15 20 16 16 18 14 15 19 14 15 20 12 16 19 10 18 20 11 19 22 14 22 24 15 20 24 3 14 18 0 14 15 3 14 18 3 14 18 3 14 18 2 13 17 7 12 16 12 11 16 11 10 15 15 13 18 16 14 19 17 15 20 17 15 20 16 14 19 15 13 18 20 18 23 21 18 25 21 18 25 23 21 26 21 18 25 19 14 21 21 16 23 22 19 26 21 19 24 22 19 26 23 18 25 20 15 21 16 13 20 19 17 22 18 16 21 18 16 21 19 14 18 15 13 18 14 12 17 
49 31 19 45 27 15 46 28 18 50 32 20 49 33 18 51 35 20 50 34 19 41 25 12 38 21 11 29 20 15 26 21 17 28 20 18 29 21 18 30 19 15 35 18 8 35 17 7 35 16 2 37 14 6 35 15 6 35 17 7 30 17 11 28 17 13 29 21 18 27 23 22 24 20 17 25 18 12 25 16 11 34 14 5 34 14 5 9 13 16 8 12 13 2 13 15 3 12 17 2 13 19 2 13 17 0 13 16 1 12 16 0 14 17 0 14 17 2 13 17 2 13 17 0 14 17 2 13 17 2 13 17 3 14 16 4 14 16 3 14 16 3 14 16 4 15 17 2 13 17 3 14 16 6 16 18 4 14 16 8 16 18 9 17 20 17 18 23 18 19 21 12 17 21 11 14 19 7 15 17 6 16 18 5 15 17 5 15 17 3 14 18 1 12 16 0 11 15 2 13 17 1 12 16 2 13 17 1 12 16 2 13 17 2 13 17 8 11 16 14 12 17 13 11 16 11 9 14 11 9 14 15 13 18 15 13 18 15 13 18 15 13 18 19 17 22 20 18 23 21 19 24 23 21 26 21 18 25 17 14 21 20 15 22 21 18 25 23 18 24 22 17 24 20 17 24 16 13 20 15 12 19 16 13 20 17 15 20 15 13 18 15 13 18 13 11 16 11 9 14 
49 31 19 45 27 15 45 27 15 50 32 20 50 32 18 51 33 19 52 35 19 40 23 13 35 21 12 29 18 14 26 21 18 25 20 17 29 19 17 29 20 15 35 16 9 36 18 8 35 15 6 35 15 4 35 17 7 34 14 5 28 18 9 29 18 14 28 20 17 27 23 22 27 22 19 24 16 13 26 17 12 34 16 4 34 14 5 9 13 14 7 11 12 2 13 15 2 13 17 0 13 16 2 13 17 2 13 17 2 13 17 0 14 17 0 14 17 0 14 17 0 14 17 0 14 17 2 13 17 2 13 17 4 13 18 4 13 18 4 14 16 3 14 16 3 14 16 0 14 17 4 13 18 6 16 18 5 15 17 8 16 18 8 18 19 16 20 23 16 20 23 10 18 21 11 14 19 9 14 17 6 14 17 6 14 17 4 14 16 3 14 18 0 11 15 1 12 16 2 13 17 0 13 14 0 14 17 2 13 17 2 13 17 2 13 17 8 11 16 13 11 16 12 10 15 10 8 13 11 9 14 16 14 19 14 12 17 16 14 19 15 13 18 19 16 23 21 18 25 23 20 27 22 19 26 21 18 25 17 14 21 20 15 22 22 17 24 24 19 26 20 17 24 20 17 24 16 13 20 16 13 20 15 14 20 17 15 20 15 13 18 15 13 18 13 11 16 10 9 14 
49 31 19 46 28 16 46 28 14 51 34 18 49 33 18 42 28 17 44 27 19 34 21 12 32 17 12 32 17 10 34 17 9 34 17 9 34 14 5 35 15 4 34 14 3 33 13 2 31 18 10 33 18 11 29 21 18 26 20 20 28 23 20 27 23 22 27 23 22 27 23 20 26 21 17 23 15 12 24 14 12 34 14 3 34 14 5 8 12 15 9 13 16 2 13 15 2 13 15 0 14 17 2 13 17 0 14 15 0 14 17 2 13 17 0 14 17 0 14 17 0 14 17 0 14 17 0 14 17 0 14 17 0 14 17 2 13 17 0 14 17 0 13 16 1 15 18 1 15 18 0 14 17 2 13 17 0 14 17 1 12 16 2 13 17 0 14 17 2 13 17 1 12 16 0 14 17 0 13 16 2 13 17 2 13 19 0 13 16 0 13 16 0 14 17 0 14 17 2 13 17 0 14 17 0 14 17 2 13 17 2 13 17 2 13 17 6 11 14 10 8 13 11 9 12 13 11 16 12 10 15 17 15 20 15 13 18 19 17 22 20 18 23 20 17 24 21 18 25 20 17 24 18 15 22 21 16 23 23 20 27 21 18 25 24 19 26 23 18 25 17 14 21 19 14 21 21 18 25 21 18 25 20 17 24 18 16 21 17 15 20 15 13 18 14 12 17 11 9 14 
49 31 19 47 29 17 46 28 16 49 33 18 49 33 20 46 28 16 45 28 18 36 21 14 32 17 14 33 18 11 35 18 10 35 17 7 35 15 4 35 15 6 34 14 5 34 14 3 31 16 11 31 18 10 28 20 18 27 22 19 27 23 22 27 23 22 27 23 20 27 23 22 28 20 18 24 16 13 25 16 11 35 15 6 34 16 4 7 11 12 8 13 16 3 13 15 1 12 14 2 13 17 0 14 17 0 13 16 2 13 17 0 12 15 3 14 18 2 13 17 0 14 17 0 14 17 2 13 17 0 14 17 0 13 16 1 12 16 0 14 17 0 14 17 2 13 17 0 14 17 0 14 17 0 14 17 1 15 18 0 14 17 3 14 18 0 14 17 1 15 18 2 13 17 1 15 18 0 14 17 2 13 17 2 13 17 2 13 17 1 12 16 0 14 17 0 14 17 0 14 17 0 14 17 0 14 17 1 12 14 0 14 17 2 13 17 6 10 13 10 8 13 9 8 13 11 10 15 13 11 16 17 15 20 16 14 19 19 17 22 20 18 23 21 19 24 22 19 26 20 17 24 20 15 22 21 16 23 23 21 26 22 19 26 22 20 25 22 19 26 17 14 21 17 14 21 20 17 24 22 19 26 20 18 23 20 18 23 16 14 19 15 13 18 13 11 16 11 9 14 
46 30 17 50 32 18 51 33 19 50 32 18 49 33 20 38 21 13 38 21 13 36 18 8 33 16 6 34 17 7 34 16 6 34 16 6 34 15 8 30 16 7 29 19 17 28 20 18 28 23 20 27 22 19 28 22 22 28 23 20 27 21 21 27 21 21 27 22 19 27 22 19 26 21 18 24 16 13 25 16 11 32 15 5 34 16 6 11 20 19 9 20 16 2 16 17 1 15 18 1 15 18 2 13 17 2 13 17 1 12 16 0 14 17 1 12 16 2 13 17 0 14 17 0 14 17 2 13 17 0 13 16 0 14 17 0 14 17 0 14 17 0 14 17 0 14 17 0 14 17 0 14 17 0 14 17 0 13 16 0 14 17 0 14 17 0 14 17 1 15 18 3 12 17 0 13 16 0 14 17 0 14 17 0 14 17 0 14 17 0 14 17 0 13 16 0 14 17 0 14 17 0 14 17 1 12 16 0 14 17 2 13 17 2 13 17 3 10 16 9 8 14 8 9 13 12 10 15 11 9 14 14 12 17 15 13 18 19 17 22 19 17 22 21 19 24 21 18 25 20 17 24 19 14 21 22 17 24 23 20 27 24 21 28 23 20 27 22 19 26 19 16 23 18 15 22 21 18 25 21 19 24 19 16 23 19 17 22 17 15 20 15 13 18 14 12 17 11 9 14 
44 28 15 52 34 20 51 33 19 51 33 21 50 32 18 36 19 11 37 20 12 35 16 9 34 16 6 33 15 3 34 14 5 33 15 5 34 16 6 32 17 10 28 20 18 26 21 18 27 23 22 27 23 20 28 23 20 27 23 20 29 23 23 28 22 22 31 23 21 29 24 21 25 20 17 24 16 13 25 16 11 34 14 5 34 14 5 10 22 20 11 21 20 3 17 17 1 16 19 1 15 18 2 13 17 2 13 17 1 15 18 3 14 18 0 13 16 0 14 17 1 12 16 2 13 17 0 14 17 2 13 17 2 13 17 0 14 17 2 13 17 2 13 17 0 14 17 2 13 17 2 13 17 1 15 18 0 14 17 0 13 16 2 13 17 0 14 17 0 14 17 0 13 16 0 14 17 0 14 17 1 15 18 2 16 19 0 14 17 0 13 16 0 14 17 0 13 16 1 15 18 0 14 17 2 13 15 3 12 17 2 13 17 1 15 18 3 11 14 10 7 14 10 9 14 11 9 14 11 9 14 15 13 18 15 13 18 18 16 21 18 16 21 21 19 24 21 18 25 20 17 24 20 15 22 22 17 24 23 20 27 23 21 26 23 20 27 22 19 26 19 16 25 19 16 23 22 19 26 21 19 24 19 17 22 18 16 21 18 16 21 15 13 18 14 12 17 11 9 14 
45 29 16 50 32 18 51 33 19 45 28 18 46 29 19 35 16 9 33 19 10 33 16 8 33 14 7 34 17 10 30 17 11 29 18 12 30 21 16 29 19 17 26 22 19 27 22 19 27 23 20 27 23 22 28 23 20 27 21 21 28 23 20 27 23 20 27 23 20 28 23 20 26 21 18 24 16 13 25 16 11 35 15 4 34 14 3 11 25 25 13 25 23 3 21 23 3 21 21 2 17 22 2 13 15 1 12 16 0 14 17 2 13 17 0 14 17 0 13 16 2 13 17 1 12 16 0 13 16 2 13 17 2 13 17 2 13 17 2 13 17 2 13 17 2 13 17 2 13 17 2 13 17 2 13 17 0 14 17 0 14 17 0 13 16 0 14 17 0 14 17 0 14 17 0 14 17 0 14 17 0 13 16 0 14 17 0 14 17 0 14 17 0 13 16 0 14 17 0 14 17 0 14 17 0 14 17 0 14 17 2 13 17 2 13 17 4 14 16 11 10 16 12 10 15 11 9 14 11 9 14 15 13 18 16 14 19 16 14 19 17 15 20 20 18 23 20 17 24 19 16 23 20 15 22 22 17 24 20 17 24 21 18 25 21 18 25 21 18 25 16 13 20 17 14 21 19 17 22 20 17 24 20 18 23 18 16 21 16 14 19 14 12 17 13 11 16 10 8 13 
48 30 18 52 34 20 51 33 19 44 27 17 43 26 16 34 17 9 34 17 9 33 16 8 33 14 7 30 17 11 28 18 16 29 22 16 27 23 20 27 22 19 27 23 20 27 22 19 27 23 20 27 23 22 26 22 21 26 22 19 28 24 21 26 22 19 28 24 21 28 23 20 25 20 17 24 16 13 23 16 10 34 14 3 34 14 5 11 26 23 12 27 24 4 24 25 2 23 26 0 18 20 0 13 16 0 14 17 0 13 16 2 13 17 0 14 17 0 13 16 2 13 17 2 13 17 0 13 16 2 13 17 2 13 17 2 13 17 2 13 17 2 13 17 2 13 17 2 13 17 2 13 17 2 13 17 1 12 16 3 12 17 1 12 16 2 13 17 0 14 17 2 13 17 0 14 17 0 13 16 0 13 16 0 13 16 0 14 17 0 13 16 0 14 17 0 14 17 0 14 17 0 13 16 3 12 17 0 13 16 2 13 17 0 13 16 5 13 16 13 10 17 11 10 15 11 9 12 12 10 15 16 14 19 16 14 19 14 12 17 14 12 17 19 17 22 20 17 24 20 17 24 21 16 23 21 16 23 20 17 24 20 17 24 21 18 25 21 18 25 16 13 20 16 13 20 18 16 21 21 18 25 19 17 22 18 16 21 16 14 19 14 12 17 13 11 16 10 8 13 
49 33 20 50 34 19 49 33 20 40 23 15 40 23 15 34 15 8 34 15 8 31 16 9 31 18 9 30 20 18 29 21 19 29 21 19 27 23 20 27 23 20 26 22 19 26 22 19 26 22 21 28 24 23 28 22 22 28 23 20 27 21 21 27 23 22 27 23 20 28 23 20 25 20 17 23 15 12 25 16 11 33 15 5 34 14 5 15 21 21 11 21 20 4 19 22 1 19 23 1 14 20 0 14 17 1 12 16 0 14 17 2 13 17 0 14 17 0 13 16 2 13 17 2 13 17 0 14 17 2 13 17 0 13 16 1 12 16 2 13 17 0 14 17 2 13 17 2 13 17 0 14 17 2 13 17 0 13 16 0 14 17 0 14 17 0 14 17 2 13 17 2 13 17 2 13 17 2 13 17 0 14 17 0 14 17 1 15 18 0 13 16 0 13 16 0 14 17 1 15 18 2 16 19 4 23 21 4 23 21 6 22 21 6 22 21 8 16 18 11 9 14 10 8 13 11 9 12 10 8 13 14 12 17 14 12 17 15 13 18 14 12 17 19 16 23 21 19 24 21 18 25 23 18 25 22 17 24 20 17 24 20 17 24 20 17 24 21 18 25 19 16 23 20 17 24 17 14 21 17 15 20 15 12 19 15 13 18 14 12 17 13 11 16 12 10 15 12 10 15 
