P3
100 50
255
47 83 47 46 82 46 42 76 39 41 75 38 53 79 50 53 82 52 48 82 47 40 85 42 40 83 40 39 76 35 45 77 40 68 87 67 68 87 68 10 61 2 12 62 3 25 67 17 27 69 21 23 67 18 21 65 14 22 68 19 28 70 22 35 74 30 59 87 62 58 88 62 58 88 62 58 88 62 63 92 70 65 90 71 64 92 69 63 91 68 63 91 68 63 92 70 66 91 72 64 92 70 64 92 70 64 92 70 63 91 69 63 91 68 63 91 68 57 89 65 60 90 64 55 90 60 56 91 61 55 90 60 53 90 57 46 82 46 32 68 22 37 68 24 82 69 50 83 71 49 89 77 63 90 78 62 90 81 64 91 82 65 90 81 64 90 78 64 91 79 65 91 79 63 91 79 63 90 78 62 90 78 64 92 76 61 91 75 60 89 73 57 91 75 59 90 74 58 90 74 58 90 74 58 92 75 59 91 75 59 91 79 63 89 80 65 90 81 64 90 81 66 89 80 63 91 79 63 88 80 61 89 81 62 91 80 60 90 79 59 89 78 58 90 75 52 92 72 47 92 65 35 90 65 34 92 59 24 92 59 24 76 46 22 77 46 25 81 60 41 80 63 43 85 71 44 87 77 41 89 78 46 85 78 52 77 71 47 58 54 45 57 53 44 43 39 40 43 39 40 
28 71 25 27 73 24 49 80 48 51 80 49 65 87 64 71 89 73 63 86 60 55 81 52 51 80 49 47 79 42 49 78 47 71 88 70 71 88 70 11 61 2 10 61 4 55 80 50 59 82 56 39 73 36 26 69 23 18 65 10 12 62 3 20 64 11 46 78 41 46 78 41 49 82 51 50 84 51 65 90 69 64 92 69 63 91 69 64 92 70 66 91 70 66 91 70 64 92 70 66 91 70 64 92 69 63 91 69 64 92 70 61 91 67 59 92 65 54 91 60 53 90 59 44 89 48 41 90 45 38 85 39 34 84 35 35 74 27 35 58 14 44 59 18 93 57 43 90 57 40 91 75 59 91 75 59 89 80 65 90 81 64 91 82 65 89 80 63 92 80 64 90 81 64 89 80 63 89 80 63 91 80 62 90 78 64 90 79 61 90 78 62 89 77 61 90 73 55 89 71 51 91 75 59 90 77 61 89 77 61 88 79 62 89 80 63 89 80 65 89 80 63 90 79 61 91 78 61 91 78 59 92 77 58 90 76 50 90 76 50 90 76 47 91 76 45 90 76 47 90 78 54 91 77 51 88 68 35 90 67 35 81 47 20 80 49 20 77 60 34 75 60 39 78 67 39 80 69 37 80 70 43 80 74 50 70 63 45 40 36 33 40 37 32 45 41 42 45 41 40 
25 71 22 26 72 23 48 79 45 51 80 49 61 85 61 67 89 68 60 84 60 51 82 51 50 80 46 47 77 43 51 78 47 68 87 67 65 87 66 15 62 7 15 62 7 52 81 50 58 82 56 38 73 33 27 69 21 20 64 11 12 63 4 21 65 12 46 77 43 45 79 42 47 82 49 48 82 49 61 91 65 61 89 66 60 90 64 59 91 67 61 91 67 59 91 67 60 90 66 61 91 65 61 91 65 60 90 66 61 91 67 58 91 64 56 91 61 52 89 55 52 89 55 45 87 47 41 88 44 35 84 37 30 83 31 33 75 27 36 57 16 43 57 21 88 56 41 89 56 41 91 74 58 91 74 58 94 78 63 90 78 62 91 78 61 91 78 61 90 78 62 90 78 62 91 79 63 91 79 63 90 78 62 91 78 61 90 77 60 90 76 63 90 78 62 91 74 58 90 73 55 89 76 60 92 78 65 91 78 62 89 77 61 90 78 62 90 78 62 91 78 62 90 77 60 90 77 60 89 77 55 91 76 55 91 77 51 91 75 49 90 74 48 91 77 48 91 77 50 90 78 54 93 77 52 91 71 38 89 69 36 81 51 23 80 50 22 75 59 36 74 62 40 78 66 40 80 69 39 82 72 45 81 73 50 70 63 44 40 36 33 41 37 34 47 43 44 44 42 43 
17 64 10 16 65 9 36 74 35 40 76 40 39 77 40 40 76 38 38 76 39 40 76 38 40 78 39 39 77 40 39 77 40 42 78 42 41 77 41 43 77 42 43 79 43 49 80 48 47 81 48 32 70 29 24 66 16 25 67 19 28 67 22 34 71 28 47 78 47 45 79 46 32 80 32 33 79 30 42 87 46 41 88 46 40 89 44 37 89 43 39 88 41 36 88 39 35 89 40 33 87 35 33 87 37 32 89 38 30 87 34 32 86 34 30 87 34 30 87 34 31 88 35 31 88 35 31 88 35 23 76 22 17 66 11 26 58 21 41 42 36 47 44 35 84 52 37 84 52 39 92 59 42 90 59 41 91 58 41 90 59 41 91 58 39 93 58 39 91 64 47 92 71 54 89 70 55 92 76 60 91 75 59 91 74 56 91 74 56 90 76 63 91 78 62 91 78 62 90 77 61 91 77 64 89 75 62 90 77 61 89 77 61 88 77 59 90 74 61 88 74 61 89 66 50 90 67 51 91 64 45 90 63 42 91 69 46 91 71 47 90 75 54 91 80 62 91 78 59 89 77 53 89 77 51 90 76 50 91 77 51 88 73 50 87 75 51 68 61 51 64 60 49 75 70 50 81 75 51 82 74 53 84 73 53 73 66 50 44 40 39 46 42 41 58 54 55 57 53 52 
17 66 11 17 64 12 34 74 37 40 76 40 38 76 39 39 75 39 38 74 38 38 76 37 39 77 40 40 76 40 39 77 40 42 77 44 42 78 40 42 78 42 43 77 44 46 80 47 46 80 47 32 71 27 23 67 16 25 67 19 26 68 22 33 72 28 48 77 46 46 77 45 32 78 32 33 79 32 43 90 46 40 87 43 40 89 42 40 89 42 39 88 41 36 88 40 38 88 39 33 87 37 33 87 35 33 87 35 30 87 34 31 88 35 30 87 36 29 86 31 31 88 37 33 87 35 32 89 36 24 77 23 17 66 11 26 58 19 43 44 36 48 45 36 84 55 39 85 53 38 91 60 42 90 58 43 89 58 40 91 58 39 91 58 39 93 56 38 89 64 44 89 71 51 90 71 54 91 75 59 88 75 58 92 73 58 90 75 56 90 76 63 91 78 62 91 77 64 88 79 64 91 77 64 89 75 62 89 75 62 89 77 63 89 75 62 90 74 61 88 74 61 90 67 51 88 65 49 92 65 46 91 64 43 91 69 46 91 71 47 92 75 55 91 79 63 90 79 59 91 79 55 91 76 53 90 76 49 91 77 50 85 73 49 86 74 52 66 62 50 64 60 51 76 69 53 81 75 51 80 74 52 82 74 53 74 65 50 44 40 39 46 42 41 58 54 53 57 53 52 
28 78 27 25 80 25 21 70 15 20 67 13 17 64 12 19 63 12 20 64 13 21 65 16 26 67 23 35 73 36 37 75 38 39 77 38 39 75 37 37 75 38 39 75 37 34 75 35 38 74 36 38 76 37 37 75 36 38 74 36 36 74 35 35 73 32 28 69 25 29 71 25 31 86 31 30 84 32 31 88 35 33 87 35 31 88 35 30 89 35 31 88 37 30 87 36 32 86 34 33 87 35 32 86 34 32 86 34 33 87 37 30 87 36 31 88 35 31 88 35 30 87 34 25 76 20 20 70 17 24 60 24 30 47 28 32 42 31 31 33 32 32 32 34 35 31 30 35 31 30 91 55 39 89 56 39 89 68 51 88 69 52 87 69 47 84 67 47 86 68 48 84 67 49 88 71 53 89 80 65 89 80 65 89 77 61 92 79 63 90 81 66 89 80 63 91 79 63 91 79 63 90 78 64 88 79 64 89 80 65 88 79 64 91 79 63 89 80 65 89 80 65 90 78 64 93 77 64 91 74 56 89 74 55 90 73 53 91 73 51 91 71 47 90 70 43 89 69 42 90 69 42 90 69 42 90 70 43 90 70 45 91 72 42 89 73 40 66 58 47 64 55 48 79 70 53 90 80 55 88 80 61 88 81 65 84 76 65 71 68 63 70 66 63 73 69 68 70 69 67 
26 79 27 27 80 26 20 68 18 19 67 15 17 66 11 17 64 12 20 64 13 21 64 18 26 67 23 36 74 35 35 73 34 39 75 37 38 76 37 37 75 38 37 75 38 37 75 36 36 77 37 37 75 36 35 76 36 37 75 36 36 74 37 35 73 34 31 70 26 29 72 27 30 85 30 30 85 30 30 87 36 30 87 32 31 88 37 33 87 35 31 88 35 33 87 35 31 88 35 30 87 34 30 87 34 33 87 35 32 86 34 32 86 34 31 88 35 33 87 37 31 88 35 22 75 21 21 72 16 26 60 23 31 50 30 30 42 32 32 33 35 32 34 33 35 31 30 37 31 31 89 56 41 89 56 39 90 69 52 88 69 52 89 68 47 84 67 47 86 68 46 84 67 49 88 71 53 90 80 68 90 81 66 90 78 62 89 77 61 89 80 63 89 80 63 92 80 66 92 80 66 89 80 65 88 79 64 89 80 63 89 80 63 89 80 63 89 80 65 91 79 63 91 77 64 90 78 64 87 74 55 89 74 55 91 74 54 89 72 52 89 71 49 91 70 41 90 69 42 90 69 42 90 69 42 90 70 45 89 72 46 88 72 39 91 72 42 66 58 47 64 55 46 81 70 52 91 79 57 90 79 61 88 81 63 85 77 64 71 67 64 71 67 64 73 69 68 73 69 68 
28 86 35 29 86 33 29 86 33 30 85 30 28 85 32 30 84 32 31 85 33 29 83 31 29 82 30 27 75 27 25 73 23 19 66 14 20 64 13 37 75 36 36 77 37 38 76 37 36 76 39 38 76 37 38 76 37 38 76 37 39 77 38 34 75 33 28 70 24 29 71 23 33 87 35 30 87 34 31 88 35 30 87 34 33 88 33 31 88 35 31 88 35 30 87 34 32 86 37 31 88 35 32 86 34 29 87 36 31 88 37 33 87 35 32 89 36 23 76 22 21 74 18 28 57 27 29 52 26 32 46 31 35 40 36 35 35 35 29 29 29 29 29 31 27 26 31 28 28 30 57 38 31 56 37 30 86 57 39 89 61 40 88 62 39 89 65 41 87 66 35 86 66 31 86 66 33 87 65 41 87 66 47 90 75 54 89 77 55 90 81 64 89 81 62 88 81 63 92 80 64 89 80 65 89 80 65 90 81 66 92 80 66 89 80 63 92 80 64 90 81 64 90 81 64 89 80 63 89 80 63 89 80 63 92 76 60 89 76 59 88 72 49 89 69 42 91 67 41 90 62 38 91 63 39 89 63 38 89 63 38 89 68 39 89 68 39 66 58 45 64 56 45 81 69 53 89 78 58 88 80 61 90 81 64 80 73 57 51 47 44 54 49 46 60 56 55 60 56 57 
30 87 34 31 88 35 29 86 33 30 87 34 30 87 34 32 89 36 33 87 35 32 86 34 30 83 31 24 77 23 25 75 24 17 64 12 17 64 10 36 74 35 35 73 32 37 75 36 38 76 37 37 75 36 39 77 38 37 75 38 38 76 37 34 75 35 27 71 22 27 73 24 33 87 35 34 88 36 33 86 34 33 87 35 30 87 34 29 89 35 30 87 34 30 89 35 31 88 35 33 87 35 31 88 35 33 87 35 32 86 34 33 87 35 31 89 38 22 72 19 20 71 14 26 55 24 31 50 30 34 44 35 36 37 39 35 35 35 29 29 31 28 30 29 27 27 29 26 28 27 50 35 28 50 35 28 86 55 35 90 59 38 90 62 38 90 64 37 88 63 32 88 66 29 88 65 31 86 61 39 86 64 40 90 75 54 90 75 56 89 80 63 92 80 64 89 80 63 92 80 66 89 80 63 89 80 65 88 79 64 89 79 67 89 81 62 89 80 65 89 80 65 90 81 66 89 80 65 89 80 65 90 81 64 90 77 60 89 76 59 91 73 51 89 69 42 91 67 41 89 61 37 91 61 37 90 62 38 92 62 38 91 67 39 91 67 39 68 59 42 67 55 43 81 72 55 90 79 61 89 80 63 89 80 65 79 73 59 52 44 42 51 47 44 58 54 53 57 56 54 
31 88 35 30 87 34 31 88 35 30 87 34 30 87 34 31 88 35 33 87 35 32 86 34 31 85 33 29 83 31 28 82 30 25 78 26 25 78 24 28 74 25 31 75 26 29 70 26 29 70 26 34 72 33 37 75 36 37 75 36 38 76 37 35 76 34 28 74 25 29 76 24 30 87 34 30 87 34 30 87 34 30 87 34 30 87 34 31 86 31 31 88 35 32 86 36 33 87 37 33 87 35 32 86 34 33 85 36 30 87 34 24 74 21 24 75 18 29 58 27 29 58 27 27 41 26 26 36 28 35 40 34 44 46 45 39 39 39 31 32 34 31 31 33 26 27 29 26 27 29 34 29 26 33 28 25 75 49 32 79 50 34 83 55 34 87 59 38 89 63 36 87 69 29 86 66 29 85 58 29 86 61 31 89 69 45 89 67 46 87 72 53 88 71 53 91 79 63 91 79 63 89 80 63 88 79 64 90 81 66 91 79 63 90 81 64 89 80 65 92 80 66 89 80 65 89 80 63 89 80 63 90 82 63 90 78 62 88 76 62 88 75 58 90 73 55 90 71 54 90 67 49 92 66 49 91 66 46 90 63 44 86 58 37 87 59 38 69 53 40 69 52 42 80 61 46 86 67 52 85 72 55 85 76 59 76 66 56 43 39 38 44 40 39 51 47 46 52 48 47 
32 89 36 31 88 35 31 88 35 31 88 35 30 87 34 30 87 34 31 85 33 31 85 33 30 87 34 33 87 35 30 87 34 30 87 34 32 86 34 25 76 20 26 77 21 25 67 19 25 67 17 34 72 31 38 76 37 39 74 41 38 76 37 33 74 32 31 75 26 29 77 27 29 88 34 33 87 37 30 87 34 31 88 35 30 87 34 33 87 37 30 87 34 33 87 35 31 88 37 33 87 37 30 87 34 32 86 34 32 86 34 18 67 12 18 67 12 33 50 31 36 50 33 28 32 31 24 28 31 37 39 38 49 49 49 42 42 42 32 34 33 32 32 34 26 28 27 27 27 29 24 24 26 24 23 28 65 43 32 71 45 32 82 53 37 88 55 36 88 65 34 89 72 29 88 69 29 86 57 27 86 57 27 89 65 41 89 65 41 89 68 49 85 68 48 88 76 62 90 81 66 89 80 63 88 81 65 89 80 65 89 80 63 89 80 65 89 79 67 89 80 63 90 82 63 89 80 63 89 80 63 89 80 63 90 78 64 90 78 64 90 78 64 90 76 63 91 75 60 90 72 58 90 71 57 88 65 49 88 65 49 86 53 38 85 52 35 71 51 40 70 50 41 79 56 42 86 60 43 84 67 49 86 73 57 74 64 54 40 36 35 41 37 36 48 44 43 46 45 43 
30 87 34 30 87 34 30 87 34 30 87 34 31 88 35 30 87 34 32 86 34 32 86 34 31 88 35 32 86 36 32 86 34 30 87 34 30 87 34 28 81 27 27 80 26 29 77 25 28 76 26 29 72 26 31 72 28 32 73 31 38 74 36 34 75 31 30 78 26 30 78 28 31 88 35 33 87 35 32 86 34 30 87 34 30 87 34 30 87 34 32 86 36 32 86 36 32 86 34 28 81 27 27 80 28 32 75 29 32 75 29 34 61 30 33 59 30 36 46 35 37 44 36 31 31 31 28 28 28 32 33 35 37 37 39 35 35 37 31 33 32 31 32 34 30 30 30 30 30 32 20 21 23 21 23 22 54 36 26 58 38 27 78 49 33 89 56 37 89 64 34 89 71 33 88 70 32 87 64 30 87 64 30 87 63 39 87 63 39 86 66 41 85 65 40 90 77 60 89 80 65 90 81 66 89 80 65 91 82 67 92 80 64 89 80 65 89 81 62 88 79 62 89 80 63 91 79 63 91 79 63 90 81 64 91 79 63 90 78 62 90 78 66 89 77 63 90 76 63 90 74 61 91 73 61 90 68 54 90 68 54 83 49 37 82 48 38 77 50 39 74 52 41 78 56 45 83 61 48 79 63 50 78 65 56 70 60 51 47 43 42 48 44 43 52 48 47 51 50 48 
32 86 34 32 86 34 30 87 34 30 87 34 32 89 36 30 87 34 30 87 34 30 87 34 30 87 34 32 86 34 33 87 37 30 87 32 30 87 34 33 87 37 30 87 34 30 84 32 31 85 33 26 74 22 22 70 18 28 69 25 35 73 34 32 73 31 28 78 27 30 80 29 31 88 37 30 87 34 33 87 35 31 88 35 30 87 34 31 88 35 31 88 37 31 88 37 28 83 28 24 77 23 25 75 24 30 67 24 31 66 24 50 56 52 49 54 50 39 40 42 38 38 40 33 33 31 30 32 29 28 28 30 26 28 27 27 28 30 30 31 33 30 30 32 31 31 33 31 32 34 20 22 21 20 21 23 42 29 23 45 31 22 73 45 31 91 55 39 89 63 36 87 72 33 88 73 34 89 74 35 89 71 31 86 62 38 86 62 38 84 60 32 84 60 32 90 77 58 92 83 68 89 82 66 90 81 66 89 80 63 89 82 64 90 81 64 88 79 62 90 78 62 91 79 63 91 79 65 91 79 65 91 79 63 90 79 61 89 77 61 90 78 62 90 76 63 90 76 63 90 76 63 89 75 64 88 72 59 89 72 62 79 44 38 79 46 39 78 50 39 78 50 39 79 57 46 79 61 51 73 59 50 68 58 49 65 56 49 54 50 49 55 51 50 58 54 53 58 54 53 
32 86 34 32 86 34 30 87 34 30 87 34 31 88 35 31 88 35 30 87 34 31 88 35 30 87 34 33 87 35 30 87 36 31 88 33 32 86 34 30 87 34 31 88 37 31 85 33 31 86 31 27 77 24 26 73 21 30 73 27 33 74 32 32 75 30 28 78 27 28 78 27 30 87 36 30 87 36 33 87 35 33 87 35 29 86 33 30 84 32 31 84 30 30 83 29 32 78 29 35 74 29 37 72 30 41 70 39 42 72 38 52 57 51 52 54 53 40 41 43 36 37 39 32 32 34 30 32 31 28 28 28 26 28 27 27 28 30 31 31 31 31 31 33 37 37 39 36 37 39 19 19 19 19 19 21 40 29 23 45 32 23 74 46 34 90 57 38 91 67 39 88 74 37 89 75 38 90 76 37 89 75 36 85 61 35 85 61 35 86 61 31 86 61 31 89 76 57 91 81 69 90 81 64 89 80 65 89 80 63 92 80 66 89 80 65 89 80 65 90 81 66 91 79 63 93 81 65 91 79 63 92 80 64 90 78 62 90 79 61 90 78 64 89 77 63 89 75 62 88 74 61 88 74 61 89 67 56 88 66 53 83 46 40 81 44 36 79 49 39 78 48 37 76 56 47 77 60 52 71 58 50 66 57 50 64 55 50 50 46 45 51 47 46 55 51 50 56 52 51 
32 86 34 31 85 33 30 87 34 30 87 34 30 87 34 30 87 34 30 87 34 30 87 34 32 86 34 32 86 34 32 86 36 30 87 34 30 87 34 30 87 34 30 87 34 30 87 34 30 87 34 32 86 34 32 86 34 30 84 32 30 83 31 28 81 27 28 78 25 28 78 25 31 88 35 31 88 35 31 88 35 32 89 36 27 81 29 26 79 23 25 69 16 24 64 12 40 65 25 72 66 50 73 69 58 82 84 83 82 84 83 57 57 59 58 57 62 35 36 38 32 33 35 28 30 29 28 28 28 27 28 30 27 28 30 27 28 30 28 30 29 31 32 34 52 52 54 51 51 51 15 15 17 16 16 18 43 33 24 48 35 26 73 50 34 89 61 39 88 71 43 90 84 50 91 82 49 90 81 48 88 80 44 84 59 28 85 59 26 86 61 30 87 60 30 89 76 57 88 81 65 88 81 65 88 79 64 89 80 65 92 80 66 91 79 63 89 80 65 88 79 64 90 78 64 92 80 64 90 78 62 90 78 62 91 79 63 90 78 66 89 77 63 90 76 63 91 75 62 89 69 58 91 69 58 84 47 39 85 47 38 84 41 35 82 41 35 85 45 37 84 46 37 74 55 49 64 60 57 62 57 54 58 52 52 53 47 47 37 33 34 37 33 34 46 42 41 47 43 42 
31 85 33 31 85 33 29 86 33 29 86 33 29 86 33 29 86 33 30 87 34 30 87 34 31 85 35 29 86 35 33 86 34 30 87 34 31 88 33 32 86 34 31 85 35 32 86 36 32 86 36 31 88 35 33 87 37 31 84 32 29 82 28 30 80 27 28 78 25 27 80 28 29 86 33 29 86 33 31 84 32 31 85 33 33 81 31 31 79 29 31 70 23 32 65 18 45 65 28 72 63 48 76 70 58 79 83 82 82 84 83 56 56 56 56 56 56 35 35 37 30 32 31 28 29 31 26 28 27 26 27 29 26 27 29 27 27 29 27 28 30 31 31 33 49 49 51 48 48 48 16 16 18 14 15 17 44 34 24 49 36 28 74 51 35 86 59 38 88 73 44 88 83 53 88 82 48 89 80 49 89 78 46 84 61 29 84 60 26 86 61 30 86 61 30 88 75 56 89 82 66 89 80 63 89 80 63 87 80 64 89 79 67 89 80 63 92 80 66 91 79 63 92 79 63 90 78 62 90 78 62 90 78 62 90 78 64 90 78 64 90 78 62 90 76 63 89 75 62 89 71 59 89 70 55 86 48 39 87 49 40 82 42 34 85 42 36 84 43 37 83 46 38 72 53 49 64 58 58 60 54 56 57 52 56 53 48 52 38 33 37 39 35 36 45 41 42 45 41 40 
25 73 31 25 74 29 27 74 30 26 75 30 26 77 34 27 79 31 29 81 32 30 84 34 29 83 33 29 86 35 32 86 34 31 85 33 33 88 33 30 87 34 31 85 33 32 86 34 30 87 34 30 87 32 32 86 34 31 85 35 31 85 35 31 85 33 31 83 34 29 81 32 20 73 19 22 75 21 25 65 15 25 63 12 59 77 39 71 82 50 79 76 57 86 74 62 88 61 54 89 41 41 85 49 49 77 77 77 77 77 77 47 48 50 46 48 47 30 30 32 29 30 32 26 27 29 26 27 29 23 24 26 22 23 25 24 25 27 22 23 25 24 25 27 25 26 28 26 26 28 12 13 17 13 13 15 47 32 25 53 36 28 71 52 37 85 59 42 89 76 59 91 92 78 88 86 71 85 71 58 84 71 54 91 84 42 90 83 41 87 60 30 87 60 30 88 75 56 90 78 64 89 80 63 91 79 63 89 80 63 88 79 64 89 80 65 91 79 65 89 80 63 90 76 63 89 77 61 90 77 61 90 78 64 91 78 62 89 77 61 90 78 62 89 77 63 90 78 62 90 77 61 91 73 59 87 51 37 87 51 39 87 47 35 89 47 35 69 44 47 67 45 48 58 44 59 57 45 69 56 46 70 58 45 71 57 45 69 52 40 60 49 40 59 37 32 39 37 32 38 
24 72 30 24 73 28 25 74 29 26 75 30 25 77 29 27 79 31 27 79 31 30 82 33 29 83 33 29 86 35 31 85 33 32 86 36 29 86 33 30 87 36 32 86 34 32 86 34 30 87 34 32 86 34 29 86 35 32 84 35 30 84 34 31 85 33 31 83 34 28 82 30 22 72 19 22 72 19 23 61 14 24 62 13 60 78 40 71 82 50 80 77 58 86 73 64 86 61 54 89 39 40 85 50 48 76 76 76 76 76 76 47 47 49 48 48 50 32 32 32 28 29 31 26 27 29 25 26 28 24 25 27 23 24 26 23 24 26 23 24 26 23 24 26 26 27 31 27 25 28 12 14 13 13 15 14 49 34 27 54 37 29 73 51 37 86 60 43 91 75 60 93 91 78 92 86 72 82 70 56 84 73 55 91 82 41 90 83 41 86 59 29 86 59 29 88 76 54 89 80 63 89 80 63 88 79 64 89 80 65 89 79 67 91 79 63 89 80 65 90 81 66 89 77 61 91 79 63 90 76 63 89 77 63 91 77 64 91 78 62 89 77 63 91 79 63 89 77 61 90 77 61 90 74 59 86 53 38 88 50 37 86 46 36 87 47 37 70 44 45 69 44 48 58 44 59 54 45 66 55 45 69 55 45 70 57 45 69 51 42 61 49 40 59 36 31 38 37 32 38 
25 72 28 24 73 28 26 73 27 25 72 26 25 74 29 25 74 29 27 74 30 25 74 29 26 75 30 26 75 30 25 74 29 26 75 30 25 74 27 26 75 30 27 76 31 28 75 31 27 74 30 25 74 27 23 72 25 21 71 20 17 66 11 24 64 12 35 61 14 39 60 17 65 70 40 64 69 37 82 86 63 80 85 63 84 83 53 86 82 53 89 82 54 87 82 53 89 72 52 89 56 49 83 60 54 72 70 71 71 69 70 57 59 58 57 59 58 32 32 34 26 27 29 24 25 27 24 25 27 23 24 26 22 23 25 22 23 25 21 22 24 21 22 24 22 22 24 22 20 23 12 13 15 11 13 12 50 39 33 56 46 37 74 62 46 86 74 52 87 79 56 88 84 57 90 86 61 91 86 66 91 86 64 90 86 51 91 87 50 84 57 30 83 56 29 90 73 55 91 79 65 91 79 65 90 78 64 89 81 62 90 78 62 90 78 62 91 79 63 90 78 62 90 77 61 90 77 61 90 76 63 91 77 64 92 76 61 91 75 59 89 73 58 87 74 58 84 70 61 78 67 65 74 64 65 62 48 65 63 49 66 61 46 67 61 46 67 58 45 65 59 47 69 58 44 67 57 45 67 55 45 69 56 46 70 59 46 72 56 43 69 56 44 68 56 44 66 53 43 67 
25 72 28 25 74 29 26 73 27 24 73 26 22 74 28 25 74 29 26 73 29 24 72 30 25 74 29 25 70 27 24 73 28 25 72 28 25 72 28 26 73 29 26 73 29 26 75 30 25 73 31 24 71 25 23 70 24 19 67 15 16 65 10 22 62 10 35 57 11 41 58 14 72 71 41 71 70 42 90 89 71 91 88 69 89 85 58 87 82 52 89 84 54 90 85 53 89 74 51 88 57 52 85 61 59 71 70 68 73 69 70 59 61 60 59 59 59 31 31 33 27 28 30 25 26 28 23 24 26 22 23 25 21 22 24 21 22 24 21 22 24 21 22 24 20 21 23 20 22 21 9 13 12 11 12 14 51 42 37 56 46 37 76 64 48 86 76 51 87 80 54 88 84 55 89 85 58 90 88 67 92 90 67 91 87 52 92 88 53 85 55 29 85 55 31 88 73 54 91 79 63 90 78 62 90 81 64 89 80 63 88 79 62 91 79 63 91 79 63 90 78 64 90 77 61 90 76 63 90 76 63 90 76 63 89 76 60 89 76 60 90 74 59 88 72 57 84 70 59 75 65 64 73 64 67 59 47 69 60 47 67 58 46 70 57 44 70 58 46 70 58 46 70 58 46 70 57 45 69 55 45 69 57 45 69 57 45 67 55 45 70 56 46 70 57 44 70 57 45 69 
25 73 31 25 74 29 25 74 29 25 74 29 26 73 29 25 74 29 25 74 29 24 73 28 25 74 29 23 72 27 24 70 24 21 69 21 20 68 20 20 67 15 18 66 14 26 57 13 30 55 15 44 54 19 51 52 21 58 57 26 67 62 30 69 60 31 72 53 21 76 55 28 79 41 66 79 41 66 81 60 69 80 59 66 88 77 55 89 85 50 85 68 42 82 57 35 84 61 43 88 72 59 83 69 60 67 66 64 67 65 66 49 49 51 48 49 53 27 27 27 24 25 27 22 23 25 22 23 25 21 22 24 20 21 23 20 21 23 18 19 21 18 19 21 19 19 21 18 19 21 11 12 16 11 12 14 59 39 28 65 41 31 76 55 38 80 62 42 84 67 41 87 74 40 88 74 47 87 75 61 86 74 62 80 54 65 81 53 67 83 45 34 83 45 32 88 68 57 88 76 62 90 78 62 91 79 63 90 78 62 90 78 62 90 78 62 88 79 62 91 79 65 89 75 62 90 76 63 82 67 64 78 67 65 70 57 66 66 54 66 65 53 67 66 53 70 62 51 67 64 51 68 61 50 67 58 46 70 58 46 70 55 45 70 58 45 71 56 46 70 58 45 71 57 44 70 57 44 70 57 44 70 55 45 69 58 44 69 55 45 69 56 46 71 57 45 69 57 44 70 
25 72 28 26 73 29 24 73 28 25 74 29 26 73 29 25 74 29 26 74 32 25 72 28 23 72 27 23 72 25 24 72 24 19 69 18 19 69 18 17 64 9 16 65 9 28 51 9 28 49 8 47 46 16 60 44 21 70 52 28 83 61 37 83 57 30 83 51 26 84 48 32 82 33 78 80 32 74 79 48 64 77 49 64 87 75 53 92 83 50 83 62 35 78 47 27 83 57 40 89 75 64 82 74 63 65 64 62 64 62 63 47 47 47 47 47 47 28 26 29 24 25 27 21 22 24 21 22 24 20 21 23 19 20 22 19 20 22 19 20 22 19 20 22 17 18 20 19 19 21 12 14 13 11 12 14 60 36 26 68 40 29 76 48 34 79 56 38 82 62 37 87 71 38 87 70 42 83 71 57 82 67 60 78 44 71 77 43 70 81 40 34 81 41 33 87 69 57 89 77 63 88 79 64 90 81 66 89 77 63 88 76 60 91 78 62 91 79 63 90 78 62 88 74 63 88 74 61 78 64 64 75 63 65 63 50 67 59 47 69 58 46 70 55 45 70 55 45 69 55 45 69 58 46 70 55 45 70 58 46 70 58 46 70 55 45 69 56 46 70 56 46 70 58 46 70 57 44 70 58 45 71 55 45 70 56 46 71 55 45 69 56 46 70 58 46 70 58 46 70 
47 65 25 46 67 26 44 65 24 43 66 24 43 64 21 44 65 24 45 66 25 47 65 25 48 64 25 52 62 25 53 65 27 57 63 25 55 61 25 57 58 26 58 57 26 62 57 25 66 57 26 73 55 31 78 56 33 81 59 35 85 64 37 86 60 35 83 51 26 82 46 30 86 26 77 86 26 78 85 32 76 82 34 76 81 43 58 79 46 53 79 51 40 80 53 34 81 64 48 87 77 67 82 75 65 66 62 59 66 62 59 41 42 44 40 41 43 25 25 27 22 23 25 20 21 23 20 21 23 19 20 22 18 19 21 18 19 21 17 18 20 17 18 20 17 18 20 18 19 21 11 13 12 12 14 13 66 44 33 72 45 34 80 62 50 83 71 59 81 59 45 79 48 30 81 46 42 81 41 67 83 40 70 87 29 77 87 30 81 82 43 36 83 45 36 85 63 49 86 68 54 90 74 61 90 76 63 86 73 64 81 67 64 79 65 65 70 59 67 70 59 67 68 56 68 68 56 68 64 53 69 65 52 70 60 48 68 58 46 70 56 46 70 57 45 69 55 45 69 58 46 70 57 44 70 56 46 70 55 45 70 57 45 69 58 46 70 56 46 71 58 46 70 57 45 69 57 44 70 57 44 70 57 44 70 57 44 70 54 44 68 55 45 69 57 44 70 57 45 69 
60 62 23 60 62 25 55 60 20 52 61 18 56 58 19 54 59 19 58 60 21 59 59 23 65 61 26 72 59 27 73 58 27 80 56 30 79 58 31 81 54 33 82 55 34 84 59 37 86 62 38 88 64 40 89 63 40 89 65 39 86 65 36 84 60 34 81 51 27 82 46 32 87 22 78 89 21 78 88 22 83 89 24 82 78 23 62 74 25 54 77 45 46 80 57 41 82 65 49 88 82 70 83 76 66 67 62 58 66 61 58 38 38 38 36 37 39 24 24 24 20 21 23 20 21 23 19 20 22 19 20 22 19 20 22 18 19 21 18 19 21 17 18 20 18 18 18 18 19 21 12 14 11 11 12 14 67 44 36 74 50 40 82 68 59 86 79 69 81 58 50 75 34 28 76 33 40 81 25 74 82 22 74 92 22 85 92 22 84 84 45 38 84 45 38 84 62 49 85 65 54 88 72 59 89 75 62 83 70 64 77 60 66 71 58 67 59 47 69 59 47 69 55 45 69 57 44 70 56 46 70 58 46 70 57 45 69 57 45 69 57 45 69 57 44 70 57 44 70 55 45 72 58 46 70 56 46 71 57 47 71 55 45 69 56 46 70 58 45 71 57 45 67 56 46 70 59 46 72 57 44 70 58 46 70 55 45 69 55 45 69 56 46 71 59 45 70 57 44 70 
71 68 37 69 68 38 67 66 35 66 67 33 66 67 35 67 68 37 68 69 38 70 69 39 75 70 41 79 67 43 79 68 40 83 66 40 82 64 40 83 61 37 85 61 37 86 65 38 87 65 41 87 66 39 88 67 40 87 66 39 86 65 36 84 63 34 81 51 25 83 47 31 88 25 72 87 25 72 89 26 83 89 23 84 81 26 66 78 26 62 80 45 49 80 57 39 83 67 51 88 82 68 83 77 65 65 61 58 66 63 58 44 44 44 45 43 44 24 26 25 21 22 24 19 20 22 19 19 21 19 19 21 18 19 21 18 20 19 18 18 18 16 17 19 18 19 21 19 21 20 11 12 14 9 13 12 67 49 39 74 55 41 84 70 59 88 81 65 81 56 49 76 36 34 79 33 44 84 24 78 84 24 78 92 24 83 89 24 82 83 43 33 82 44 31 85 58 47 84 65 51 79 64 61 80 65 68 75 62 69 70 57 67 67 55 67 59 47 69 58 46 68 57 45 69 57 45 69 58 46 70 55 45 69 55 45 70 55 45 69 58 46 70 55 45 70 57 44 70 57 44 70 56 46 70 58 46 70 57 45 69 54 44 69 57 44 70 57 45 69 57 44 70 58 46 70 58 45 71 57 45 69 57 44 70 58 45 71 57 44 70 58 45 71 57 44 70 58 45 71 
90 79 61 90 79 61 88 77 59 89 77 61 87 80 62 88 81 65 88 79 64 87 80 64 89 81 62 91 79 67 89 80 63 88 76 54 89 77 55 87 70 40 90 71 41 90 73 43 88 73 42 91 72 42 90 73 43 89 69 42 88 68 41 84 62 38 81 49 26 80 47 32 87 34 64 87 34 62 89 23 87 90 24 86 88 29 77 86 31 71 82 50 53 80 63 43 85 70 51 88 81 63 83 75 62 69 64 58 69 64 60 56 54 57 53 55 54 24 26 25 20 21 25 18 19 21 18 18 20 18 18 20 16 17 19 16 17 19 17 19 18 14 18 17 18 19 21 18 18 20 12 12 14 12 12 14 72 58 47 79 65 52 83 74 59 86 79 61 82 57 52 76 33 40 81 32 51 91 22 87 91 22 87 90 27 84 91 26 84 80 45 25 81 45 23 84 56 44 82 60 49 69 56 66 63 51 75 60 50 74 61 49 71 59 47 69 58 46 70 55 45 69 54 44 69 55 45 69 55 45 69 56 46 70 55 45 69 56 46 70 57 45 67 57 45 69 57 45 69 59 47 71 55 45 70 58 46 70 57 44 70 55 45 70 58 45 71 57 44 70 57 44 70 56 43 69 57 44 70 57 44 70 57 44 70 58 45 71 57 44 70 58 45 71 57 44 70 57 44 70 
90 79 61 90 77 60 88 75 58 88 75 56 89 77 65 88 79 62 88 81 63 88 81 65 90 78 62 91 79 65 92 79 62 90 75 54 89 74 53 91 72 40 88 71 41 90 73 45 89 72 42 89 72 42 88 73 42 88 71 43 86 69 41 87 63 37 79 47 22 82 47 28 85 36 55 84 36 52 91 30 74 88 29 73 87 34 64 86 36 61 81 50 47 81 60 41 83 68 47 87 78 61 83 73 61 70 65 59 69 65 56 49 49 51 49 49 49 21 22 24 19 19 21 17 18 20 16 17 19 17 19 18 15 19 20 16 18 17 17 17 17 17 17 19 17 18 20 19 19 21 13 13 13 13 13 15 71 59 45 81 65 52 85 72 56 88 75 58 84 57 46 78 37 35 81 35 46 89 27 74 87 28 72 90 31 75 89 30 76 79 43 21 80 44 22 83 55 43 83 59 49 70 54 65 61 51 75 60 52 73 61 49 71 59 50 69 59 47 71 59 46 72 59 47 71 57 47 71 56 46 70 58 46 70 56 46 70 55 45 70 55 45 69 56 46 70 55 46 67 56 46 70 55 45 70 55 45 70 57 44 72 57 47 72 57 45 69 57 44 70 57 44 70 58 45 71 58 45 71 58 45 71 57 44 70 57 45 69 58 45 71 58 45 71 58 45 71 57 44 70 
91 76 55 90 75 56 88 72 47 92 72 48 89 78 60 89 81 62 89 80 65 88 79 64 88 79 62 89 78 60 90 77 60 89 71 47 89 73 47 90 71 41 90 71 41 90 73 45 89 73 40 89 74 43 90 73 45 90 73 47 89 73 48 86 66 41 81 45 19 81 45 19 80 43 24 82 43 26 85 49 35 86 48 35 79 47 24 80 46 19 81 51 27 80 52 30 83 61 40 86 71 50 80 69 49 73 64 57 72 65 57 32 33 35 33 35 34 17 17 19 14 15 17 15 16 18 15 15 17 15 15 17 16 18 17 15 16 18 16 16 18 15 16 18 18 19 23 18 17 23 12 12 10 13 13 13 75 59 44 86 65 48 83 65 45 87 66 45 82 55 34 80 48 27 80 48 27 85 49 35 84 48 36 85 45 46 86 44 48 77 39 16 78 41 15 81 52 38 82 55 44 70 54 65 64 52 76 62 52 76 62 52 76 62 52 76 63 53 77 65 53 75 63 51 73 62 50 72 59 47 69 58 46 70 58 45 71 55 45 72 56 46 71 54 44 69 56 46 70 56 46 71 56 46 71 56 46 71 56 46 71 56 46 70 58 45 71 58 45 71 59 46 72 58 45 71 57 44 70 57 44 70 58 45 71 57 44 70 57 44 70 57 44 70 57 44 70 57 44 70 
91 75 52 90 75 54 91 73 49 90 74 49 90 77 58 91 79 63 88 79 62 89 80 65 88 79 62 90 79 61 90 77 60 87 71 45 90 73 45 90 70 43 90 71 41 90 73 43 88 73 42 88 73 42 89 74 45 89 74 45 89 73 47 87 66 39 80 43 17 80 42 19 80 43 25 82 43 26 86 48 35 84 48 36 81 46 24 77 45 20 80 49 28 81 53 31 82 60 37 86 69 49 82 70 54 70 66 55 73 66 56 32 34 33 33 34 36 16 16 18 15 15 17 16 16 18 16 16 18 15 17 16 15 16 18 14 15 17 16 16 16 15 16 18 17 18 20 19 19 21 13 13 15 13 13 13 74 58 45 82 65 49 85 67 47 84 66 46 82 57 35 80 48 27 81 49 28 84 48 34 84 48 36 85 44 48 86 45 49 78 40 17 78 40 17 81 52 38 80 56 46 70 54 64 64 52 76 61 51 75 62 52 77 62 53 74 64 55 76 65 53 75 63 51 73 62 50 74 59 47 71 58 46 70 57 45 69 55 45 69 55 45 69 55 45 69 56 46 70 56 46 70 55 45 69 56 46 70 56 46 70 56 46 70 58 45 71 57 44 70 58 46 70 58 45 71 57 45 69 57 44 70 57 44 70 57 44 70 57 45 69 58 46 70 57 45 69 57 45 69 
29 23 37 30 24 36 70 47 33 75 49 34 86 69 49 88 77 57 87 75 53 88 76 54 90 75 54 92 76 51 90 74 49 89 78 58 90 79 61 91 75 49 90 76 49 91 76 45 90 75 44 90 75 44 90 74 41 89 76 44 90 75 46 87 70 42 86 59 32 84 57 30 84 45 16 81 44 18 84 48 34 84 50 38 85 35 62 86 29 72 81 37 50 80 40 40 81 43 34 81 49 24 78 50 28 69 53 37 69 53 37 27 28 32 25 29 30 13 13 13 11 11 11 12 14 13 13 15 14 13 15 14 13 15 14 15 15 15 15 15 15 14 15 17 16 18 17 17 17 19 16 14 15 16 15 13 77 56 37 84 62 39 81 49 26 79 43 17 81 41 39 81 40 56 81 37 54 82 31 50 82 36 49 85 54 23 84 55 25 82 43 14 81 41 15 82 63 49 86 69 62 70 58 70 61 51 75 61 51 76 64 52 76 62 52 76 62 53 74 61 53 77 61 52 73 62 53 74 61 51 75 61 52 73 62 53 74 64 52 74 63 51 75 60 48 72 61 49 73 56 46 70 58 46 70 55 45 69 55 45 69 55 45 69 57 44 70 58 45 71 58 45 71 58 46 70 58 46 70 58 45 71 57 44 70 57 44 70 57 45 69 58 46 70 57 45 69 57 45 69 
28 25 36 28 24 38 70 46 34 77 49 35 86 69 49 89 76 57 87 76 54 88 76 54 90 75 54 89 73 48 89 75 49 90 79 61 91 80 62 90 76 50 88 74 48 89 75 46 88 75 43 89 76 44 89 74 41 90 75 46 89 75 46 88 71 41 84 57 30 86 56 30 82 45 18 83 43 17 85 49 35 83 49 37 87 34 62 84 29 71 80 36 51 78 40 39 82 44 35 81 49 24 78 50 28 68 52 36 68 52 36 24 28 31 27 28 30 13 13 13 11 11 11 11 13 10 13 15 14 13 15 14 14 15 17 15 15 17 14 14 14 14 15 17 16 17 19 16 17 21 16 16 16 16 14 15 75 57 37 85 61 37 82 50 27 80 42 19 80 40 38 80 39 55 81 38 57 82 31 50 79 36 46 83 54 24 83 54 24 81 41 15 80 43 16 84 62 48 84 70 61 70 58 70 64 52 74 61 51 76 63 51 75 62 53 74 61 52 73 61 52 73 62 53 74 62 53 74 62 53 74 63 54 75 61 52 73 64 52 72 63 51 75 62 50 74 59 47 69 58 46 70 58 46 70 57 45 69 55 45 69 59 47 71 56 44 68 57 45 69 56 44 68 57 45 69 58 46 70 56 44 68 57 45 69 57 45 69 57 45 69 58 46 70 57 45 69 57 45 69 
6 19 36 5 18 35 11 23 37 12 24 38 31 25 35 36 26 35 58 41 34 78 55 37 81 60 41 87 72 43 88 73 42 91 71 46 91 71 46 89 73 47 88 73 44 90 74 51 89 74 51 91 75 52 91 76 55 90 77 60 89 77 61 89 78 60 88 77 59 89 76 57 85 61 33 84 60 34 83 52 23 85 51 23 87 32 61 88 26 73 89 25 77 87 25 74 86 34 56 83 52 23 80 49 21 74 39 19 73 38 18 48 19 13 48 19 13 28 15 9 26 12 9 23 14 9 21 16 13 19 15 14 16 15 13 20 16 13 24 16 13 26 18 15 34 16 12 33 15 11 50 17 10 50 17 10 79 47 24 83 51 26 84 46 33 81 41 39 86 31 60 91 23 84 87 28 74 86 40 51 86 39 47 83 53 19 85 52 17 87 66 47 84 67 47 86 70 57 86 72 63 71 59 71 64 52 76 61 52 73 61 52 73 62 50 72 61 51 75 62 52 76 62 52 76 61 51 75 62 52 76 62 52 76 64 51 77 63 51 73 63 54 75 61 51 75 60 50 74 60 50 74 63 51 75 63 51 73 60 50 74 59 47 71 60 48 72 58 46 70 56 44 68 57 44 70 57 44 70 57 45 69 57 45 69 57 45 69 57 45 69 57 45 69 57 45 69 57 45 69 
1 16 35 1 16 35 3 20 38 3 20 38 23 21 35 27 21 31 52 37 34 77 51 36 80 60 36 86 71 38 87 72 41 89 69 42 87 70 42 90 73 45 88 73 44 90 74 49 90 75 52 90 75 54 91 76 55 90 77 60 88 79 62 92 80 64 90 81 66 89 77 61 86 62 36 86 62 36 84 53 24 86 53 22 86 29 61 89 26 73 89 24 78 88 23 79 88 34 58 85 51 23 81 47 20 74 37 18 73 36 17 51 18 11 53 18 12 29 14 9 27 12 9 24 14 12 23 15 12 21 16 13 20 16 13 21 16 13 24 16 13 26 16 15 35 16 12 34 15 11 56 18 9 54 17 8 78 46 21 83 49 22 83 45 36 83 41 43 88 31 63 90 21 86 92 25 78 87 39 53 87 42 49 85 52 17 85 53 15 87 68 51 86 69 51 86 72 61 87 72 65 71 59 69 63 53 77 61 51 75 61 51 75 60 51 72 60 50 74 60 50 74 61 51 75 64 52 74 63 54 75 61 52 73 61 52 73 62 53 74 61 52 73 62 52 76 62 53 74 62 53 74 62 52 76 61 51 75 63 54 75 58 48 72 61 49 71 58 45 71 57 45 69 58 45 71 57 44 70 57 45 69 58 46 70 57 45 69 57 45 69 57 45 69 57 44 70 58 46 70 
1 18 38 2 19 37 2 17 36 2 17 36 7 18 36 7 20 37 15 23 36 21 25 36 27 30 35 43 34 35 46 36 35 79 53 36 80 55 35 91 67 41 89 68 41 89 67 43 91 67 41 91 66 44 88 66 43 88 71 53 90 77 61 90 77 61 90 81 66 90 78 62 89 76 60 87 76 58 88 70 50 88 72 49 88 59 53 85 54 52 85 46 51 80 38 48 81 40 36 77 41 19 73 35 14 61 17 6 63 16 6 58 14 5 58 14 5 57 19 8 57 19 8 58 26 11 61 29 14 60 31 15 61 32 14 61 29 14 59 27 12 60 27 12 53 15 6 54 14 6 57 13 2 58 14 5 67 25 9 68 26 10 75 32 23 80 40 32 81 37 38 84 39 46 86 42 43 85 54 36 87 56 36 88 66 43 89 68 41 89 77 61 89 76 59 88 76 64 88 75 66 73 63 71 64 55 74 64 55 76 65 53 75 63 54 75 60 51 72 60 51 72 53 44 65 56 44 66 60 48 72 58 49 70 62 50 72 62 52 76 62 53 74 61 51 75 61 52 73 63 54 75 60 51 72 62 53 74 62 53 74 61 52 73 64 52 76 61 49 73 62 50 74 60 50 74 62 50 74 59 46 72 56 46 70 57 45 69 57 45 69 56 44 68 58 45 71 58 46 70 
0 18 40 0 18 38 1 16 37 3 16 35 0 18 38 3 20 40 3 18 37 4 17 34 12 19 35 27 21 31 34 24 32 76 48 34 76 48 34 91 65 38 89 65 37 90 64 37 91 65 38 88 62 39 86 61 39 87 68 51 90 77 61 89 76 59 89 82 64 90 81 64 90 81 66 90 81 66 90 77 60 89 78 60 86 68 48 86 65 44 81 53 41 81 44 36 78 42 30 73 37 15 71 29 13 59 12 6 59 12 2 59 12 4 59 12 4 65 22 6 65 21 8 72 30 14 73 35 14 73 35 14 74 36 15 72 34 13 73 30 13 71 30 12 61 14 4 62 14 2 58 11 3 60 11 4 64 17 7 63 19 8 70 30 20 79 36 27 79 39 29 81 43 32 83 48 29 85 58 29 86 61 31 88 70 46 91 69 48 90 78 62 90 78 64 87 77 67 87 74 65 71 64 71 64 57 75 65 56 75 63 54 75 62 53 72 59 50 71 59 49 73 52 43 64 53 41 61 55 46 67 58 46 68 63 51 73 61 52 73 62 53 74 62 53 74 61 52 73 62 53 74 62 53 74 61 52 73 62 53 74 60 51 72 64 52 76 63 54 75 64 52 76 62 50 72 60 51 72 58 48 72 58 46 68 56 46 70 54 44 68 54 44 69 55 45 70 58 46 70 
1 18 36 1 18 38 0 15 34 1 17 33 1 18 36 0 19 36 2 19 37 3 18 37 8 19 37 14 20 34 18 22 34 38 32 34 39 33 35 57 42 35 56 43 35 78 51 34 79 52 33 85 56 38 86 59 40 86 67 50 89 76 60 90 77 61 87 80 62 89 80 65 89 80 65 89 80 65 90 78 62 89 77 61 89 73 57 86 70 54 80 54 37 76 44 31 74 36 23 66 27 10 67 23 10 60 11 4 60 13 3 60 13 3 60 13 3 67 23 10 66 24 10 72 34 15 75 34 14 73 35 14 74 36 15 73 35 14 71 33 14 71 30 12 62 15 5 62 16 3 59 12 4 59 10 3 61 17 6 62 18 7 68 26 14 73 31 19 75 37 24 82 46 30 82 51 33 85 63 39 86 64 40 90 75 56 91 74 56 91 79 65 91 79 65 87 77 65 85 75 65 68 58 67 56 47 68 54 45 66 48 39 60 50 41 62 57 45 65 56 47 66 49 37 57 48 36 56 54 45 66 58 46 68 62 50 74 62 52 76 62 53 74 62 53 74 62 53 74 62 53 74 62 53 74 62 53 74 61 52 73 63 54 75 61 52 73 64 52 76 62 53 74 61 52 73 63 51 73 60 51 70 59 49 73 60 48 72 59 49 73 58 48 72 49 39 63 52 40 62 
0 17 35 0 19 36 0 17 35 0 18 35 1 18 36 2 15 34 2 19 37 0 21 42 2 19 39 1 18 36 2 19 37 3 18 37 3 18 37 26 20 32 24 21 32 67 38 32 72 39 30 81 49 36 85 56 40 88 66 52 88 76 60 89 77 61 89 80 65 90 81 64 89 80 65 88 79 64 89 80 65 89 80 65 87 78 63 87 78 63 79 56 38 74 43 22 71 34 16 64 18 5 63 17 4 59 12 4 60 13 3 61 14 4 60 13 5 68 25 9 68 26 12 71 33 12 72 34 13 74 33 15 72 34 13 72 36 14 72 35 16 70 32 11 64 17 7 64 17 7 59 12 2 60 11 4 61 17 4 61 17 4 64 21 5 66 23 7 73 36 18 80 49 28 83 55 34 89 68 49 87 69 49 90 78 64 90 78 62 89 80 63 90 81 64 87 77 65 87 77 67 62 52 61 47 37 61 42 33 54 32 22 46 38 29 50 53 41 61 53 41 61 46 33 53 45 33 53 55 46 67 59 47 69 62 50 72 61 51 75 62 53 74 62 53 74 61 52 73 61 51 75 61 52 73 62 53 74 62 52 76 63 54 75 63 54 75 62 52 76 60 51 72 64 52 74 62 52 76 63 54 75 64 52 76 61 51 75 62 53 74 60 51 72 44 32 52 46 34 54 
2 19 37 1 18 36 0 17 37 1 16 37 0 17 37 1 18 36 1 18 38 1 18 38 1 18 36 1 18 36 0 17 35 3 18 37 3 18 39 16 18 31 17 19 32 42 30 32 46 31 34 58 40 38 62 43 37 72 54 44 82 68 55 85 71 58 89 80 63 87 80 64 89 80 65 88 79 64 88 81 65 89 80 65 88 79 62 87 78 63 81 63 43 77 50 29 73 45 24 69 31 12 67 28 11 64 22 10 63 21 7 60 13 3 61 14 4 66 23 7 66 22 9 67 28 11 70 28 12 68 29 12 69 30 13 70 28 12 68 29 12 69 27 11 61 17 6 63 16 6 60 16 5 61 14 4 67 25 9 68 26 10 70 33 14 72 35 16 78 46 23 82 56 33 84 59 37 91 70 49 87 72 51 88 80 61 90 78 62 88 79 64 89 80 65 85 77 66 86 76 66 65 55 64 51 42 61 44 35 56 32 24 45 38 29 50 53 41 61 53 41 61 45 33 53 44 32 52 55 46 67 56 47 68 60 51 72 61 51 75 61 51 76 63 54 75 62 52 77 61 51 75 61 52 73 62 52 76 62 52 76 62 53 74 62 52 76 62 53 74 61 51 75 60 51 72 62 52 76 62 52 76 62 53 74 61 51 75 64 52 76 61 49 71 45 33 53 45 33 53 
1 19 39 1 19 39 1 18 38 1 18 36 2 19 39 1 19 39 1 18 38 0 15 34 1 18 36 0 18 38 0 19 36 2 17 36 1 18 38 0 17 37 1 18 36 3 20 40 4 21 41 17 20 35 23 20 31 48 36 38 74 54 47 78 60 50 89 80 65 89 80 65 88 79 64 87 77 65 87 78 63 92 80 64 91 79 63 89 80 63 88 73 54 85 68 48 86 62 38 83 54 24 80 48 23 72 35 17 71 34 16 61 17 6 63 16 6 60 16 5 62 16 3 64 17 7 63 19 6 64 20 7 64 20 9 63 19 6 65 19 6 63 19 8 60 16 5 61 15 2 64 20 9 66 20 7 74 39 19 75 43 20 81 51 23 82 57 26 86 60 33 88 66 42 88 68 43 88 76 54 89 76 57 89 80 65 90 81 66 89 80 65 88 79 64 86 76 66 85 75 66 68 58 67 55 46 65 49 40 61 35 25 49 38 29 50 55 44 61 54 42 62 45 33 53 44 32 52 56 44 66 56 47 68 62 49 75 62 52 76 62 52 76 62 53 74 61 52 73 60 50 74 61 52 73 60 51 72 59 49 73 59 50 71 60 51 72 60 51 72 60 51 72 62 53 74 62 52 76 61 51 75 60 51 72 61 52 73 63 51 75 61 49 71 46 35 52 46 34 54 
1 19 39 2 20 40 0 17 37 1 18 38 1 19 39 0 20 39 1 18 38 0 17 37 1 16 35 1 18 36 1 18 36 0 17 35 1 18 36 1 18 34 1 18 36 3 20 40 1 22 41 14 20 34 22 20 33 43 32 36 66 48 44 69 54 49 81 73 62 82 72 60 88 76 62 86 77 62 89 80 65 91 79 65 88 79 64 89 80 65 85 72 53 86 70 47 82 64 40 82 56 29 81 51 25 71 39 16 71 39 18 64 22 8 66 23 7 65 21 8 64 20 7 65 23 7 66 24 10 66 24 10 67 24 8 66 24 10 66 24 10 65 23 9 63 19 6 63 21 7 66 25 7 68 26 12 73 41 20 75 43 20 80 50 24 79 53 26 82 58 30 86 62 38 87 65 41 89 73 50 89 72 54 89 75 62 86 74 58 86 77 60 86 77 60 85 75 65 85 75 66 67 57 66 57 48 67 53 41 63 40 28 52 44 32 54 55 43 63 52 43 62 44 35 54 45 33 53 56 47 68 58 49 70 62 50 72 62 52 76 63 54 75 63 54 75 62 53 74 61 52 73 62 53 74 60 51 72 61 52 73 59 50 71 59 50 71 60 51 72 60 51 72 60 51 72 60 50 74 61 52 73 62 52 76 62 53 74 62 50 74 61 49 71 47 35 55 46 34 56 
0 22 45 1 23 44 1 16 35 1 17 33 1 19 39 2 20 42 1 19 39 2 19 39 1 18 36 0 14 33 0 15 31 0 17 35 0 17 37 0 21 42 1 22 43 3 21 43 1 22 43 0 21 42 0 20 39 1 18 36 1 16 35 9 18 35 25 21 35 30 24 34 74 56 46 74 55 48 90 81 64 88 81 63 90 78 62 91 79 65 89 80 65 88 79 64 89 78 60 89 74 55 87 72 51 88 67 38 85 66 36 84 55 23 85 56 26 84 53 24 84 55 25 82 53 23 83 53 27 82 53 21 82 53 23 82 53 23 84 55 25 83 54 22 84 55 23 85 54 25 85 60 29 84 59 28 76 50 27 75 49 26 66 34 23 59 24 20 66 32 23 68 38 27 74 45 27 85 61 35 82 60 36 76 47 33 74 46 32 79 57 44 77 58 44 84 71 62 84 75 66 71 61 72 63 51 75 62 52 76 63 54 75 62 53 74 57 48 67 57 48 67 62 52 76 64 52 74 64 52 74 63 54 75 61 52 73 63 53 77 65 53 77 62 53 74 63 54 75 64 55 74 64 55 74 66 57 78 66 57 78 59 50 71 59 50 71 53 41 61 51 39 59 50 38 58 49 37 57 56 44 66 62 53 74 60 50 74 62 53 74 60 48 70 44 32 52 46 33 53 
0 20 44 1 23 46 0 15 34 0 16 34 1 19 39 2 20 40 2 20 40 1 19 39 0 17 35 0 16 32 2 15 34 1 16 35 1 16 37 3 21 41 1 22 41 0 22 43 1 22 43 2 20 40 1 19 39 2 17 38 4 17 36 9 18 35 27 19 34 30 25 32 72 54 44 74 55 49 90 81 64 89 82 64 88 79 64 88 79 64 88 79 64 89 80 65 86 77 60 85 74 54 86 74 52 86 67 37 86 67 37 85 56 24 84 55 23 81 54 24 83 54 24 83 54 24 83 52 23 82 51 23 82 52 24 82 53 23 83 54 22 81 55 22 85 54 23 84 55 25 85 60 29 84 59 28 76 50 25 75 49 26 66 34 21 58 25 18 65 32 23 70 38 25 73 44 28 84 60 34 84 60 36 75 46 32 73 45 31 76 56 45 76 57 43 84 71 62 85 74 68 70 60 71 61 52 73 62 52 76 64 55 74 63 51 73 57 48 69 56 47 68 64 52 76 60 51 72 62 53 74 64 52 76 62 53 74 62 53 74 63 53 77 65 53 75 63 54 75 64 55 74 64 55 74 66 57 78 65 57 78 62 50 72 60 51 72 53 41 61 52 40 60 49 37 57 49 37 57 57 45 67 62 52 76 62 53 74 62 53 74 61 49 71 45 33 53 45 34 51 
1 18 38 0 17 37 2 17 36 0 17 35 0 18 38 1 19 39 0 20 41 1 22 43 0 21 42 0 17 35 0 17 37 0 15 34 2 15 31 1 13 35 2 15 34 1 16 35 1 18 36 2 19 37 1 18 38 0 18 38 0 17 37 1 18 38 2 19 39 1 19 41 4 22 44 4 22 44 23 25 38 22 24 39 60 49 47 76 59 51 82 72 62 88 81 65 88 81 65 88 79 64 89 80 65 88 79 64 88 79 64 88 75 59 87 75 59 87 72 53 87 70 50 85 68 48 86 68 46 84 66 44 83 65 41 86 64 41 83 59 35 85 61 37 85 67 47 87 66 47 86 65 46 87 64 46 83 54 38 82 53 35 77 43 33 73 39 29 68 38 27 69 40 26 73 44 28 87 63 35 85 61 37 80 53 32 81 54 35 88 72 57 87 71 55 85 72 63 84 73 67 71 59 73 64 52 74 63 51 73 63 51 75 62 53 74 61 51 75 61 52 73 60 52 75 60 51 72 60 51 72 59 51 74 58 48 72 59 49 73 59 50 71 65 53 75 57 45 67 42 33 54 42 33 54 30 20 44 30 20 44 57 45 65 56 44 64 46 34 54 45 33 53 47 35 55 50 38 60 57 45 67 62 53 74 62 53 74 61 52 73 61 49 71 45 33 53 45 34 51 
0 17 35 1 18 36 1 16 35 1 18 36 0 18 38 1 19 39 0 21 40 2 22 46 0 21 42 0 19 36 0 17 37 0 14 33 0 14 33 0 16 32 1 14 31 0 17 35 0 17 35 0 18 38 0 18 40 0 18 38 1 18 36 1 19 39 1 19 39 1 19 39 3 21 41 3 21 43 23 25 40 25 24 38 62 51 49 75 58 50 84 72 60 88 81 65 89 80 65 88 79 64 91 79 65 88 79 64 87 80 64 89 73 58 86 74 58 84 71 52 86 71 50 84 67 47 85 67 45 84 66 44 84 66 42 84 64 40 80 58 34 83 61 37 88 67 48 85 67 47 87 65 44 86 65 46 83 54 36 82 53 37 76 44 33 71 39 28 71 39 28 67 38 24 73 46 29 85 64 37 86 62 36 80 53 32 81 54 33 87 71 55 86 73 57 83 73 63 83 72 66 70 59 73 63 54 75 60 51 72 64 52 76 61 52 73 62 52 76 62 53 74 60 51 72 61 52 73 59 50 71 60 51 72 59 50 71 60 51 72 61 52 73 63 51 73 55 46 67 43 34 55 41 31 55 30 20 44 29 19 43 55 46 65 58 46 66 47 36 53 44 32 52 48 36 56 50 38 58 55 46 67 62 53 74 61 52 73 61 52 73 59 50 71 44 32 52 45 33 53 
1 18 38 0 17 33 1 18 38 0 19 36 2 19 39 2 19 39 0 18 38 1 19 41 0 18 38 0 17 35 1 18 36 1 16 35 0 17 35 1 14 31 0 14 33 0 17 35 1 18 38 1 18 36 0 17 35 2 17 36 0 17 35 1 18 36 0 15 34 0 15 34 2 20 40 2 20 42 3 18 37 5 18 37 9 22 39 11 24 40 23 29 41 32 32 42 46 41 45 76 59 51 79 65 54 89 82 66 89 80 65 88 79 64 88 76 60 87 78 63 87 78 61 87 78 63 87 78 63 87 77 65 86 79 63 87 78 61 88 76 60 88 77 59 88 79 62 86 77 62 87 66 45 87 66 47 84 61 43 85 60 40 85 66 49 86 69 53 85 68 48 88 67 46 86 65 44 88 71 51 88 71 51 89 76 59 89 76 59 89 78 60 88 79 62 83 75 64 83 74 67 71 61 72 64 52 76 63 51 75 64 52 74 63 53 77 63 53 77 61 52 73 67 58 77 64 60 77 60 56 73 62 53 74 60 51 72 59 50 71 58 49 70 56 47 66 54 45 64 48 40 61 45 36 57 31 21 46 30 20 44 55 46 63 57 45 65 47 36 53 45 33 53 48 36 56 49 37 57 55 45 69 62 53 74 61 52 73 61 52 73 58 49 70 45 33 53 45 33 53 
1 18 36 0 17 35 1 18 36 1 18 36 1 18 38 2 19 39 0 19 36 0 20 39 1 18 38 1 18 38 0 17 35 0 17 37 0 17 37 1 14 31 1 14 31 0 17 35 2 19 37 1 18 38 0 17 37 1 18 36 2 17 36 0 18 35 1 14 31 0 16 32 1 19 41 1 19 39 0 17 35 0 17 37 2 19 37 4 19 40 16 23 39 23 25 38 43 36 43 74 57 49 77 63 54 89 80 63 91 79 63 88 79 64 88 78 66 89 80 63 89 80 63 88 79 64 88 79 64 89 80 65 87 80 64 88 79 64 89 80 65 88 79 62 88 79 62 90 78 64 86 68 48 87 66 47 85 62 44 86 60 43 86 69 51 88 75 58 88 71 51 89 71 47 89 71 49 88 73 54 90 73 57 90 78 62 89 77 61 89 78 60 91 79 63 84 75 66 82 73 66 70 60 71 61 53 76 61 51 75 62 53 74 63 54 75 63 54 75 62 53 74 67 58 77 67 58 77 64 55 74 62 53 74 61 52 73 59 50 71 57 48 67 56 47 68 53 44 65 50 41 60 48 39 60 32 20 44 31 21 45 55 46 63 57 45 67 47 35 55 44 32 52 47 35 55 49 37 59 55 46 67 62 53 74 62 53 74 60 51 72 60 48 70 44 32 52 45 34 51 
0 18 38 0 18 38 2 19 39 1 19 39 2 20 42 0 20 41 0 20 41 2 20 40 1 19 39 2 19 39 1 19 39 1 18 36 0 17 35 3 16 35 1 16 35 1 19 39 1 19 41 1 19 39 2 19 39 1 18 36 0 17 33 1 16 35 0 15 34 0 16 32 0 19 36 0 17 37 1 18 36 1 18 36 0 17 35 1 16 35 7 20 37 9 21 37 15 27 41 30 34 45 33 37 46 47 45 48 46 46 48 79 65 54 78 66 54 87 78 63 89 82 66 89 80 65 87 78 63 88 79 62 89 80 63 87 78 63 88 78 66 88 78 66 85 78 62 88 79 64 89 73 57 89 73 57 88 62 47 85 62 44 87 66 49 86 69 51 87 65 44 86 61 41 81 55 38 67 44 30 69 43 30 58 35 27 58 35 27 81 68 52 81 68 52 83 73 64 82 73 66 70 60 71 62 52 76 62 52 76 63 51 73 62 53 74 63 54 75 63 54 75 67 58 77 68 59 78 67 58 77 67 58 77 60 51 70 58 49 70 52 43 64 47 38 57 46 37 56 47 35 55 48 36 56 53 44 65 55 43 65 55 46 65 57 45 67 53 41 61 52 40 62 56 44 66 58 46 68 61 49 69 65 53 75 61 52 73 61 52 73 61 49 71 44 32 52 44 33 50 
2 19 37 0 18 38 2 19 39 1 18 38 2 20 42 0 21 42 1 22 43 1 22 41 2 20 40 1 19 39 1 19 39 0 17 35 1 16 35 1 17 40 1 18 36 0 21 40 2 20 42 1 19 39 1 19 39 1 18 38 1 16 35 0 17 37 0 15 36 0 15 34 1 14 33 1 14 31 0 17 35 0 18 38 1 18 36 0 17 35 1 18 36 1 18 38 3 20 40 2 23 44 7 22 41 21 23 38 21 24 39 73 56 48 71 57 48 89 77 63 89 79 67 88 79 64 87 78 63 88 79 64 88 79 64 88 79 64 87 78 63 87 78 63 86 77 62 87 78 63 86 77 60 88 76 60 86 65 46 87 61 44 88 65 47 87 66 47 87 62 42 86 55 35 79 47 32 57 24 15 55 25 17 39 8 6 39 8 5 75 61 50 78 62 49 83 70 62 83 72 66 70 59 75 61 52 73 62 53 74 61 51 75 62 53 72 62 53 74 62 53 74 67 58 77 67 58 77 67 58 77 68 59 78 59 50 69 56 47 66 50 41 60 45 33 53 45 33 53 45 33 53 49 37 57 70 58 78 66 57 76 57 45 65 57 45 67 57 45 67 58 44 67 62 50 72 64 52 74 64 52 76 64 52 74 63 51 73 60 51 72 61 49 71 44 32 52 46 33 53 
2 20 42 1 19 41 3 21 43 4 22 44 5 26 45 8 26 50 3 24 45 0 21 42 2 20 42 0 21 40 1 22 41 1 18 36 1 18 36 0 17 37 0 17 37 2 20 42 0 21 42 1 22 43 1 22 41 1 19 39 1 19 39 1 18 38 1 18 36 2 17 36 0 16 32 0 16 32 0 16 36 1 16 35 0 15 34 2 17 36 1 18 36 2 17 38 1 19 39 3 21 43 4 23 40 11 24 41 11 22 40 38 37 43 39 36 43 53 49 48 55 51 50 74 64 55 81 69 57 83 74 59 89 80 65 89 80 65 89 82 64 89 77 63 88 79 64 88 79 62 87 78 63 87 78 61 87 71 55 87 70 54 88 67 50 87 66 47 87 66 49 86 65 46 80 59 42 63 39 27 63 36 27 45 16 12 44 16 12 81 67 54 81 69 55 82 71 65 82 71 65 70 60 71 61 52 73 62 53 74 61 51 75 65 53 75 65 53 75 63 54 73 66 59 77 66 59 75 67 60 78 68 59 78 59 50 69 56 47 66 49 40 59 44 32 52 45 34 51 46 34 54 49 36 56 65 56 77 64 55 76 60 48 70 58 49 70 58 49 70 57 48 69 60 51 72 62 53 74 62 53 74 61 52 73 61 52 73 61 52 73 59 50 71 45 33 53 45 33 53 
0 22 43 2 23 44 5 26 47 9 27 49 13 29 52 14 30 53 8 26 48 1 23 46 2 22 46 1 23 46 0 22 43 1 18 36 0 19 36 0 15 34 1 16 35 0 21 42 0 21 42 0 22 43 1 21 45 4 22 44 2 20 40 3 20 40 1 18 38 1 18 36 0 15 34 0 15 34 2 17 36 2 18 33 0 15 34 1 16 35 1 16 37 0 17 35 0 18 38 3 21 43 0 21 40 2 22 46 0 22 45 3 18 37 2 17 36 19 21 34 22 21 35 60 49 47 73 59 50 82 70 58 89 80 63 89 80 63 87 78 61 89 77 63 88 79 62 87 78 63 87 78 63 86 79 61 86 77 62 86 77 62 88 71 55 85 67 47 89 72 54 87 75 59 83 69 56 71 53 43 69 49 40 52 24 20 50 22 18 86 77 62 86 77 62 84 74 65 84 73 67 71 61 72 63 51 73 64 52 74 62 52 76 64 52 74 65 53 75 64 55 76 68 59 78 67 58 77 67 58 77 67 58 77 60 48 68 55 46 65 50 41 60 45 33 53 45 34 51 43 34 53 46 37 58 63 53 77 62 53 74 61 51 75 63 54 75 62 53 74 61 52 73 62 53 74 60 51 72 62 53 74 62 53 74 60 51 72 64 50 73 59 50 71 45 33 53 47 32 53 
