P3
100 50
255
45 45 45 51 51 51 55 55 55 54 54 54 54 54 54 52 52 52 47 47 47 47 47 47 37 37 37 37 37 37 36 36 36 37 37 37 36 36 36 37 37 37 31 31 31 27 27 27 25 25 25 22 22 22 21 21 21 19 19 19 18 18 18 24 24 24 24 24 24 34 34 34 35 35 35 39 39 39 39 39 39 41 41 41 41 41 41 38 38 38 31 31 31 31 31 31 28 28 28 28 28 28 28 28 28 28 28 28 28 28 28 28 28 28 17 22 18 11 17 15 5 15 16 1 14 22 1 16 21 0 15 18 1 16 21 2 17 20 2 17 20 1 19 21 0 18 18 8 22 23 13 23 24 32 34 33 45 41 42 40 38 39 35 33 34 39 35 36 42 40 41 43 41 42 40 36 37 40 36 37 41 37 38 41 37 38 43 39 40 42 40 41 40 38 39 37 35 36 44 40 41 49 47 48 48 47 45 44 43 41 44 42 43 33 31 32 33 31 32 22 20 21 21 19 20 21 19 20 20 20 20 27 25 26 34 32 33 28 28 28 8 14 14 6 14 16 0 18 20 0 18 18 0 18 20 1 16 21 0 20 21 3 21 21 4 23 21 3 24 19 4 24 22 3 23 21 4 24 22 5 24 20 5 24 20 27 13 28 26 14 28 54 4 42 58 3 43 54 10 35 
39 39 39 41 41 41 44 44 44 47 47 47 50 50 50 52 52 52 52 52 52 51 51 51 47 47 47 47 47 47 41 41 41 41 41 41 38 38 38 36 36 36 30 30 30 27 27 27 25 25 25 20 20 20 22 22 22 27 27 27 28 28 28 34 34 34 34 34 34 38 38 38 40 40 40 37 37 37 37 37 37 33 33 33 33 33 33 32 32 32 28 28 28 28 28 28 24 24 24 23 23 23 23 23 23 24 24 24 27 27 27 28 28 28 16 23 15 7 19 7 9 19 10 7 18 10 7 18 12 6 16 15 7 19 19 3 17 20 2 17 22 0 17 19 1 16 19 9 20 22 9 23 23 35 36 38 47 45 46 46 42 43 41 39 40 41 39 40 44 42 43 45 43 44 43 41 42 46 42 43 43 41 42 43 41 42 37 35 36 37 35 36 39 37 38 42 40 41 40 38 39 39 37 38 40 39 37 39 38 36 39 37 38 32 30 31 30 28 29 21 19 20 19 17 18 20 18 19 22 20 21 27 27 27 34 32 33 28 26 27 13 14 16 12 13 15 1 16 19 0 17 19 1 16 19 0 17 19 2 16 19 2 17 20 5 23 23 8 28 26 10 24 25 21 15 25 23 15 30 35 12 38 31 13 37 46 6 41 47 5 41 56 1 43 56 1 43 53 8 37 
36 36 36 37 37 37 38 38 38 43 43 43 49 49 49 50 50 50 56 56 56 55 55 55 52 52 52 54 54 54 45 45 45 43 43 43 38 38 38 37 37 37 31 31 31 27 27 27 24 24 24 20 20 20 22 22 22 32 32 32 31 31 31 39 39 39 40 40 40 42 42 42 42 42 42 37 37 37 34 34 34 31 31 31 28 28 28 27 27 27 28 28 28 26 26 26 21 21 21 21 21 21 20 20 20 20 20 20 29 27 30 28 28 28 13 23 14 6 21 2 9 20 4 10 18 3 8 18 7 8 19 15 8 17 14 2 17 20 3 17 20 1 16 23 1 16 19 6 20 21 9 20 22 33 37 38 50 49 47 48 47 45 45 44 42 45 44 42 43 42 40 44 43 41 46 45 43 46 45 43 44 42 43 45 43 44 36 34 35 35 31 32 41 37 38 47 43 44 41 39 40 34 32 33 35 34 32 35 34 32 35 33 34 32 30 31 32 30 31 19 19 19 19 17 18 21 21 21 22 22 22 27 25 26 32 31 29 28 28 28 15 17 16 12 16 17 1 16 21 1 16 19 1 14 20 1 16 21 3 16 22 2 17 22 6 26 25 7 32 26 16 24 27 27 12 31 34 10 34 52 4 46 52 4 44 58 0 50 58 2 51 57 1 46 58 1 46 53 6 38 
36 36 36 36 36 36 38 38 38 41 41 41 44 44 44 45 45 45 49 49 49 50 50 50 51 51 51 52 52 52 48 48 48 47 47 47 43 43 43 42 42 42 35 35 35 30 30 30 29 29 29 27 27 27 30 30 30 35 35 35 35 35 35 39 39 39 39 39 39 37 37 37 36 36 36 33 33 33 32 32 32 30 30 30 28 28 28 28 28 28 27 27 27 27 27 27 21 21 21 22 22 22 21 21 21 20 20 20 27 27 27 28 28 28 15 23 12 8 21 3 8 21 3 9 20 3 9 20 3 9 19 8 8 18 7 5 17 13 5 17 13 6 17 21 3 17 18 5 19 20 7 21 22 32 38 36 48 47 45 47 46 44 47 46 44 47 46 44 45 41 40 45 41 40 45 45 43 46 45 43 47 45 46 47 45 46 40 38 39 40 36 37 40 36 37 41 37 38 37 35 36 34 32 33 33 32 30 32 31 29 33 31 32 31 29 30 31 29 30 17 17 17 17 15 16 21 21 21 26 25 23 27 27 27 32 31 29 26 26 26 11 15 16 10 16 16 2 17 22 1 16 19 1 16 23 1 14 20 11 16 22 12 17 23 22 20 33 27 21 35 31 16 37 39 9 37 42 7 39 54 2 48 54 3 46 58 2 51 58 0 51 57 0 45 57 1 46 53 6 38 
36 36 36 37 37 37 36 36 36 36 36 36 36 36 36 38 38 38 39 39 39 41 41 41 50 50 50 52 52 52 55 55 55 54 54 54 53 53 53 52 52 52 41 41 41 35 35 35 37 37 37 37 37 37 39 39 39 41 41 41 42 42 42 37 37 37 37 37 37 30 30 30 28 28 28 28 28 28 28 28 28 28 28 28 28 28 28 28 28 28 27 27 27 26 26 26 21 21 21 21 21 21 23 23 23 22 22 22 26 26 26 27 27 27 16 24 13 10 24 1 8 21 1 9 21 1 10 22 2 7 20 0 7 22 1 10 18 3 10 18 3 9 18 13 10 19 14 4 18 18 4 18 18 29 33 34 44 42 43 46 44 45 50 49 47 47 45 48 43 41 42 43 41 42 46 42 43 47 41 41 51 49 50 50 48 49 46 44 45 44 42 43 38 36 37 32 30 31 31 29 30 33 31 32 31 29 30 27 25 26 27 25 26 34 30 31 34 30 31 15 15 15 12 12 12 24 24 24 30 29 27 28 27 25 26 25 23 22 24 23 5 13 15 4 14 16 1 16 21 1 16 21 3 17 20 1 17 17 21 13 28 26 11 30 43 6 40 54 1 45 54 2 50 59 1 51 58 1 52 57 0 51 57 1 50 58 1 54 58 1 52 59 0 44 58 1 44 55 6 38 
37 37 37 34 34 34 31 31 31 34 34 34 34 34 34 35 35 35 39 39 39 40 40 40 48 48 48 47 47 47 50 50 50 51 51 51 50 50 50 51 51 51 42 42 42 38 38 38 38 38 38 39 39 39 38 38 38 39 39 39 39 39 39 34 34 34 34 34 34 29 29 29 28 28 28 27 27 27 26 26 26 25 25 25 25 25 25 26 26 26 28 28 28 26 26 26 23 23 23 23 23 23 24 24 24 24 24 24 27 27 27 28 28 28 16 24 11 8 21 3 9 22 2 9 21 0 10 22 2 8 21 1 8 21 1 10 21 4 11 20 3 11 18 11 8 20 10 6 18 14 5 17 15 28 33 29 43 42 40 46 45 43 50 48 49 48 46 47 39 37 38 40 39 37 44 43 41 44 42 43 50 48 49 51 49 50 46 44 45 45 43 44 38 36 37 32 30 31 34 32 33 34 32 33 36 32 33 25 23 24 27 25 26 30 28 29 32 28 29 17 17 17 17 17 17 26 28 27 35 34 32 30 28 31 23 23 25 21 21 21 2 13 15 4 14 15 7 14 22 7 14 24 13 12 30 11 12 30 28 10 34 34 9 38 46 5 47 52 3 50 54 2 51 54 0 52 55 1 53 54 0 52 54 0 54 55 0 55 55 1 53 56 0 49 56 0 47 53 6 40 
37 37 37 26 26 26 18 18 18 23 23 23 27 27 27 29 29 29 38 38 38 36 36 36 38 38 38 36 36 36 41 41 41 42 42 42 50 50 50 53 53 53 48 48 48 47 47 47 44 44 44 38 38 38 36 36 36 29 29 29 29 29 29 27 27 27 28 28 28 27 27 27 27 27 27 22 22 22 21 21 21 18 18 18 15 15 15 19 19 19 28 28 28 28 28 28 28 28 28 29 29 29 26 26 26 28 28 28 28 28 30 28 28 30 16 24 11 9 22 5 8 21 3 7 20 0 8 21 1 10 22 2 10 22 0 11 23 1 12 21 0 8 21 1 8 21 1 9 20 3 11 19 4 29 32 25 41 40 38 45 44 42 53 51 52 48 47 45 33 29 26 30 29 27 41 41 41 41 39 40 47 45 46 48 46 47 45 43 44 43 41 42 41 39 40 38 36 37 39 37 38 40 38 39 38 36 37 25 23 24 24 22 23 20 18 19 21 19 20 30 26 27 28 26 27 40 38 39 48 44 43 31 29 30 18 17 15 11 15 16 1 15 16 6 15 20 24 11 31 24 11 31 46 3 49 45 1 50 50 1 56 51 0 57 49 1 59 48 0 58 45 0 57 42 1 57 44 1 57 44 1 57 45 2 58 45 1 62 46 1 58 51 0 56 52 1 57 50 9 43 
36 36 36 26 26 26 19 19 19 22 22 22 26 26 26 29 29 29 37 37 37 36 36 36 36 36 36 36 36 36 42 42 42 43 43 43 49 49 49 53 53 53 48 48 48 46 46 46 43 43 43 40 40 40 36 36 36 28 28 28 29 29 29 28 28 28 27 27 27 28 28 28 28 28 28 22 22 22 20 20 20 18 18 18 15 15 15 20 20 20 28 28 28 28 28 28 28 28 28 28 28 28 26 26 26 27 27 27 28 28 28 27 27 29 18 24 12 9 21 1 6 19 1 7 22 1 8 21 1 10 22 0 10 22 2 13 22 1 12 21 0 9 21 1 8 20 0 11 19 4 10 19 2 29 31 26 40 39 37 45 43 44 54 52 53 47 46 44 33 29 28 32 28 29 42 40 41 42 40 41 48 46 47 48 46 47 44 42 43 43 41 42 40 38 39 38 36 37 39 37 38 40 38 39 40 36 37 26 22 23 27 23 24 21 19 20 20 18 19 27 25 26 28 26 27 39 37 38 46 44 45 31 29 30 17 15 16 11 15 16 5 16 20 5 16 20 23 10 30 23 10 30 42 2 52 44 2 50 49 0 55 51 0 56 49 2 57 46 1 58 47 2 59 43 0 54 44 0 59 44 1 57 44 1 57 46 1 56 48 0 58 51 0 56 54 1 57 50 9 43 
36 36 36 34 34 34 32 32 32 32 32 32 34 34 34 35 35 35 36 36 36 36 36 36 34 34 34 34 34 34 35 35 35 35 35 35 37 37 37 36 36 36 36 36 36 35 35 35 31 31 31 23 23 23 25 25 25 27 27 27 26 26 26 26 26 26 25 25 25 27 27 27 28 28 28 27 27 27 25 25 25 26 26 26 25 25 25 25 25 25 28 28 28 27 27 27 27 27 27 29 29 29 28 28 28 28 28 28 27 27 27 27 27 27 28 30 17 28 33 13 18 25 7 11 23 1 11 22 5 8 21 1 9 21 1 10 22 0 11 23 3 14 24 0 13 21 0 13 22 1 14 23 2 29 32 21 37 38 33 43 42 40 50 48 49 47 45 46 38 34 33 39 35 36 44 42 43 44 43 41 37 35 36 36 34 35 43 41 42 44 42 43 42 40 41 40 38 39 44 42 43 49 47 48 49 47 48 43 41 42 44 40 41 23 23 23 24 22 23 28 26 27 31 27 28 29 27 28 31 30 28 25 21 20 13 13 13 19 9 18 35 5 43 35 4 45 41 1 61 42 1 61 34 0 60 32 2 56 34 1 58 34 1 58 32 2 56 31 0 57 31 0 57 30 1 57 29 0 54 21 1 50 23 0 49 32 2 56 34 1 58 40 1 58 40 0 55 40 8 47 
36 36 36 34 34 34 32 32 32 33 33 33 34 34 34 34 34 34 36 36 36 36 36 36 34 34 34 33 33 33 36 36 36 35 35 35 36 36 36 37 37 37 36 36 36 35 35 35 31 31 31 24 24 24 25 25 25 27 27 27 27 27 27 26 26 26 27 27 27 27 27 27 27 27 27 26 26 26 26 26 26 26 26 26 25 25 25 27 27 27 27 27 27 27 27 27 27 27 27 27 27 27 27 27 27 27 27 27 27 27 29 28 28 28 28 30 19 28 33 11 19 27 6 12 21 2 10 22 2 8 21 3 8 21 1 12 21 0 10 22 0 14 22 1 13 22 1 14 22 0 13 22 1 29 32 23 36 36 34 41 41 39 51 49 50 48 46 47 38 34 35 38 34 35 45 43 44 46 42 43 37 35 36 35 33 34 41 39 40 43 41 42 42 40 41 40 38 39 44 42 43 50 48 49 48 46 47 43 41 42 42 40 41 24 22 23 24 22 23 28 26 27 29 27 28 31 29 30 31 31 29 21 21 21 13 13 11 18 11 19 32 5 40 35 5 43 41 1 61 42 1 61 32 1 58 32 2 56 31 0 57 34 0 60 34 1 58 34 1 58 32 1 58 29 1 52 29 0 54 23 1 50 24 2 51 34 1 58 32 1 58 40 1 56 40 1 58 40 8 49 
36 36 36 36 36 36 35 35 35 35 35 35 36 36 36 36 36 36 35 35 35 34 34 34 24 24 24 24 24 24 23 23 23 23 23 23 33 33 33 36 36 36 33 33 33 32 32 32 30 30 30 27 27 27 24 24 24 18 18 18 18 18 18 19 19 19 19 19 19 26 26 26 27 27 27 27 27 27 27 27 27 27 27 27 27 27 27 28 28 28 27 27 27 27 27 27 27 27 27 27 27 27 27 27 27 27 27 27 27 27 27 27 27 27 38 40 29 44 46 32 36 40 23 28 35 17 22 31 12 10 24 1 9 22 2 8 21 1 8 21 1 13 22 1 13 23 0 15 23 2 14 24 0 19 23 6 20 24 10 31 33 22 47 46 44 45 43 44 36 34 35 38 34 35 49 47 48 48 47 45 48 46 47 48 46 47 35 33 34 31 29 30 34 32 33 37 35 36 40 38 39 48 46 47 48 46 47 43 39 40 42 40 41 28 26 27 28 26 27 19 17 18 18 16 17 16 16 16 15 14 12 15 13 14 14 14 14 16 11 18 18 2 38 18 2 38 24 1 53 21 1 52 21 1 50 21 1 52 23 0 52 23 1 50 23 1 50 24 2 51 23 1 50 23 0 52 21 1 50 21 1 50 23 1 50 28 1 56 25 0 55 30 1 57 30 1 57 30 7 49 
36 36 36 36 36 36 37 37 37 36 36 36 36 36 36 36 36 36 36 36 36 34 34 34 22 22 22 22 22 22 22 22 22 23 23 23 32 32 32 36 36 36 33 33 33 32 32 32 31 31 31 28 28 28 25 25 25 16 16 16 16 16 16 18 18 18 18 18 18 26 26 26 27 27 27 28 28 28 27 27 27 27 27 27 27 27 27 27 27 27 28 28 28 28 28 28 27 27 27 27 27 27 28 28 28 28 28 28 27 27 27 26 26 28 39 40 32 45 47 33 39 41 27 31 35 18 25 32 14 11 22 5 11 23 3 7 22 3 8 21 1 13 22 1 11 23 1 14 22 1 15 23 0 15 22 6 18 22 7 29 30 24 46 45 43 44 42 43 35 34 30 36 35 31 47 47 47 49 49 49 49 47 48 49 47 48 34 32 33 30 28 29 32 30 31 34 32 33 40 38 39 48 46 47 47 45 46 42 40 41 43 41 42 29 27 28 29 27 28 16 16 16 16 14 15 14 14 14 13 11 12 14 12 13 14 14 16 15 12 19 17 3 36 17 3 38 21 1 50 21 1 52 19 0 50 19 1 49 20 2 50 21 1 50 19 1 49 23 0 52 20 0 49 21 1 50 22 0 49 20 0 49 21 1 50 25 0 55 26 1 56 25 0 57 27 0 57 30 9 50 
36 36 36 37 35 36 35 37 36 36 36 34 36 38 37 36 36 36 36 36 36 37 35 36 31 31 31 34 34 34 32 32 32 32 32 32 34 34 34 36 36 36 34 34 34 32 32 32 29 29 29 28 28 28 26 26 26 24 24 24 24 24 24 24 24 24 25 25 25 28 28 28 28 28 28 27 27 27 26 28 27 28 28 28 27 27 29 26 28 27 28 28 28 29 27 28 28 28 28 28 28 28 27 27 27 27 27 27 27 27 29 27 27 27 38 40 29 45 47 33 42 45 28 40 43 26 34 38 21 15 24 3 11 23 1 10 22 0 10 22 0 14 23 2 11 23 1 13 23 0 14 22 1 14 23 4 16 24 3 21 25 8 25 27 16 26 29 18 34 33 31 34 33 31 50 49 47 50 48 49 49 49 49 49 47 48 40 38 39 38 36 37 39 37 38 39 37 38 41 37 38 38 34 35 36 34 35 31 29 30 32 30 31 31 29 30 30 28 29 30 28 29 30 28 29 20 18 19 12 12 12 15 15 15 16 16 16 17 12 19 13 2 34 15 1 34 18 1 46 17 1 46 18 0 48 17 1 48 18 1 46 18 0 48 18 0 50 19 1 49 18 0 48 19 1 51 21 1 54 22 1 58 20 0 55 24 1 57 20 0 55 25 2 58 24 0 58 25 3 52 
36 36 36 36 36 36 36 36 38 36 36 36 36 36 36 36 36 36 37 37 37 37 37 37 35 35 35 36 36 36 35 35 35 34 36 35 36 36 36 36 36 36 34 34 34 33 33 33 32 32 32 27 27 27 27 27 27 26 26 26 26 26 26 27 27 27 26 26 26 26 26 26 28 28 28 28 26 27 27 27 27 27 27 27 27 25 26 27 27 27 27 27 27 27 27 27 27 27 27 27 27 27 26 28 27 27 27 27 29 27 28 27 27 25 36 39 30 44 46 32 45 46 30 42 45 28 35 39 22 15 24 3 14 23 2 12 21 0 10 22 0 13 22 1 12 21 0 14 22 1 14 22 1 15 23 0 16 24 1 17 22 2 18 22 7 23 25 12 33 32 30 32 32 30 51 49 50 52 51 49 51 49 50 52 48 49 44 42 43 40 38 39 40 38 39 40 38 39 40 36 37 36 32 33 33 31 32 29 27 28 28 26 27 31 29 30 32 30 31 34 32 33 34 32 33 20 18 19 11 11 11 14 14 12 16 16 16 14 13 21 12 1 31 12 1 33 17 0 45 16 1 44 17 1 48 18 0 48 17 1 48 17 1 46 17 0 47 18 0 50 19 0 48 21 1 54 21 0 56 23 2 59 22 1 58 22 1 58 21 0 57 21 0 57 21 0 56 23 3 56 
35 33 34 34 33 31 35 33 34 35 35 33 36 36 34 36 36 36 36 36 34 36 36 36 36 36 36 35 35 33 37 37 37 36 36 36 36 36 36 37 37 37 33 33 33 31 31 31 31 31 31 27 27 27 27 27 27 27 27 27 27 27 27 26 26 26 26 26 26 27 27 27 27 27 27 28 28 28 28 28 28 28 26 27 29 25 24 29 25 24 29 25 24 29 25 24 27 27 27 28 28 28 23 23 23 24 24 24 26 26 26 26 26 26 34 36 25 39 42 25 37 40 21 34 37 18 30 33 14 17 25 4 17 25 4 14 23 2 11 23 1 14 23 2 12 24 2 15 23 2 15 23 2 15 23 0 16 24 1 18 23 1 17 24 6 22 26 11 35 36 31 34 34 32 46 44 45 45 43 44 44 42 43 42 40 41 41 39 40 42 40 41 42 40 41 41 39 40 43 39 40 42 36 38 38 36 37 33 31 32 34 32 33 30 28 29 31 29 30 32 30 31 31 29 30 21 19 20 14 12 13 13 13 13 16 14 17 17 11 23 12 1 35 12 1 35 16 0 45 16 1 42 17 1 48 17 1 48 17 1 48 17 1 48 15 2 48 17 0 47 18 0 48 19 1 51 20 2 52 20 2 52 20 0 55 20 0 53 20 2 54 19 0 55 21 2 57 20 4 49 
36 30 30 35 29 29 34 28 28 35 33 34 36 36 36 36 36 36 36 36 36 36 36 36 35 35 35 36 36 36 35 37 36 36 36 36 36 36 36 36 36 36 34 34 34 32 32 32 31 31 31 27 27 27 27 27 27 27 27 27 28 28 30 24 24 24 24 24 24 26 26 26 26 26 26 25 29 28 28 28 28 28 24 25 29 20 21 28 22 22 27 21 21 27 23 22 26 28 27 26 26 26 20 20 20 21 21 21 22 24 23 24 24 24 31 33 22 35 38 21 30 33 14 26 31 9 25 28 9 19 24 2 19 24 2 15 23 2 15 24 3 15 23 2 14 22 0 16 24 1 15 23 0 15 23 0 16 24 1 17 22 0 16 24 1 22 26 9 37 38 33 37 38 33 40 38 39 40 39 37 35 33 34 36 34 35 41 39 40 43 41 42 43 41 42 42 40 41 45 41 42 46 42 43 42 40 41 38 36 37 38 36 37 30 28 29 32 30 31 28 26 27 29 27 28 19 17 18 13 13 13 15 13 18 14 11 18 15 8 24 13 1 39 15 1 37 15 3 43 14 2 42 17 1 46 17 1 46 17 1 46 18 2 49 18 0 48 17 0 45 18 0 48 17 0 47 18 0 48 18 0 48 19 1 51 17 1 50 19 1 49 18 1 53 20 2 54 22 6 45 
34 23 21 34 23 21 36 25 23 35 26 27 36 32 31 35 33 34 36 36 36 36 36 36 36 34 35 36 34 35 35 35 35 34 34 34 36 36 36 36 36 36 34 34 34 32 32 32 30 30 30 26 26 26 25 25 25 29 29 29 27 27 27 25 25 25 25 25 25 26 26 26 27 27 27 26 25 23 28 24 23 29 20 21 29 18 16 31 17 16 29 18 16 30 18 18 26 26 26 26 26 26 21 21 21 22 22 22 25 25 25 26 26 26 31 33 22 35 38 19 30 33 14 25 30 10 25 28 7 20 25 5 21 26 6 16 24 1 16 24 0 15 23 0 15 23 0 16 24 1 15 23 0 15 23 0 15 23 0 17 22 0 14 23 2 24 27 10 40 39 37 39 39 37 41 40 38 42 41 39 38 36 37 37 35 36 41 39 40 43 41 42 42 42 42 43 41 42 43 41 42 45 41 42 44 40 41 38 36 37 38 36 37 32 30 31 32 30 31 28 26 27 29 27 28 21 19 20 15 13 14 14 12 17 13 12 18 13 9 24 17 2 43 15 0 41 16 0 43 16 0 45 18 0 48 18 1 46 18 1 46 17 1 48 19 1 49 17 1 48 17 1 46 16 1 44 16 0 45 17 1 48 18 0 48 18 0 48 18 0 48 19 1 51 19 1 51 21 5 42 
32 11 6 35 11 9 38 12 11 37 19 19 35 25 24 36 27 28 35 35 33 36 36 36 34 34 34 35 35 35 32 32 32 33 31 32 35 35 35 36 36 36 34 34 34 32 32 32 29 29 29 22 22 22 25 25 25 25 25 25 25 25 25 27 27 27 27 27 27 27 29 28 28 28 28 29 19 18 29 15 15 32 14 14 35 11 9 33 12 9 30 10 9 31 13 11 26 26 26 27 25 26 24 24 24 24 24 24 27 27 27 27 27 27 32 34 23 35 38 19 29 32 11 23 28 6 23 26 5 20 25 5 23 24 6 20 25 3 20 25 3 19 24 2 16 24 1 15 23 0 17 22 0 18 23 1 14 22 0 16 24 1 15 23 0 22 29 11 43 43 41 43 43 41 44 43 41 44 43 41 43 41 42 42 40 41 42 40 41 41 39 40 42 40 41 43 41 42 44 40 41 44 40 41 43 39 40 41 39 40 41 39 40 33 31 32 33 31 32 28 26 27 27 25 26 21 19 20 18 16 19 15 13 18 13 10 19 14 7 25 19 1 49 17 1 48 18 0 50 17 1 50 19 1 51 16 0 47 18 2 49 18 0 48 15 2 48 17 1 46 16 1 42 14 0 36 15 0 41 16 1 44 16 0 45 16 0 47 15 1 50 18 2 49 19 1 49 22 4 42 
33 12 9 37 13 11 38 12 11 36 18 16 34 24 23 36 26 25 36 36 36 36 34 35 34 36 35 35 35 35 31 33 30 31 31 31 35 35 35 36 36 36 34 34 34 32 32 32 29 29 29 24 24 24 24 24 24 25 25 25 25 25 25 27 27 27 27 27 29 27 27 27 27 27 27 29 19 18 30 14 14 32 14 12 34 13 10 33 12 9 31 11 10 31 13 11 26 26 26 26 26 26 25 25 25 25 25 25 27 27 27 27 27 29 32 34 23 35 36 18 30 33 14 23 28 6 23 26 5 21 24 5 19 24 2 21 24 3 22 25 4 18 23 1 18 23 1 18 23 1 16 24 1 16 24 1 15 23 0 15 23 0 15 23 2 21 28 10 43 45 42 44 43 41 42 41 39 44 42 43 44 40 41 43 41 42 43 39 40 42 38 39 44 40 41 45 41 42 43 41 42 41 41 41 45 41 42 42 40 41 42 40 41 36 32 33 36 32 33 29 27 28 27 27 27 21 21 21 17 17 17 18 13 19 14 9 16 14 7 25 18 2 49 17 1 48 17 1 48 17 1 48 16 0 47 18 0 48 17 1 48 17 1 48 17 0 47 17 1 46 13 0 43 15 0 39 15 0 41 17 1 46 17 1 46 17 1 48 15 2 48 16 0 47 17 1 50 22 6 43 
35 15 14 38 14 12 39 13 12 37 13 11 33 12 9 36 16 15 35 31 28 36 32 31 36 36 36 36 36 36 32 32 32 31 29 30 34 34 34 34 34 34 33 33 33 32 32 32 30 30 30 27 27 27 26 26 26 25 25 25 25 25 25 27 27 27 27 27 27 29 20 21 29 20 21 30 14 14 31 11 10 33 12 9 38 14 12 34 13 12 31 11 10 30 14 14 27 27 25 26 26 26 28 28 28 27 27 27 28 28 28 27 25 26 32 34 21 34 36 15 30 33 12 25 30 10 27 30 9 19 24 4 19 24 2 20 23 2 20 23 4 17 22 0 18 23 1 18 23 1 16 24 1 16 24 1 16 24 1 15 23 0 16 21 1 24 28 11 45 44 42 44 43 41 43 42 40 43 41 42 47 41 43 46 42 43 40 36 37 38 34 35 43 39 40 47 43 44 45 43 44 45 43 44 47 41 43 47 43 44 44 42 43 36 34 35 37 33 34 30 28 29 29 27 28 26 24 25 25 24 22 21 16 20 14 9 15 16 7 24 17 1 48 18 2 47 16 0 49 18 0 48 18 2 51 17 1 48 18 0 48 19 1 51 18 1 46 19 1 49 19 1 51 17 1 48 17 1 48 17 1 48 19 1 49 18 0 48 17 1 48 17 1 46 19 3 52 23 9 45 
34 14 13 38 14 12 39 13 12 37 13 11 34 13 10 36 16 17 35 29 31 36 32 33 36 36 36 36 36 36 32 30 31 29 31 30 33 33 33 34 34 34 34 34 34 32 32 32 31 31 31 27 27 27 28 28 28 25 25 25 25 25 25 26 26 26 27 27 27 29 20 21 28 19 20 29 13 13 32 11 10 35 14 13 34 13 10 34 13 10 32 12 11 29 13 13 26 24 25 25 25 23 28 28 28 28 28 28 27 27 27 26 27 29 33 33 23 33 36 17 30 33 14 25 28 7 24 29 9 19 24 2 19 24 4 19 24 4 19 24 2 17 22 0 17 22 0 16 24 1 15 23 0 16 24 3 15 23 0 15 23 0 17 22 2 23 27 12 44 43 41 44 42 43 45 41 40 43 41 42 46 42 43 47 43 44 41 37 38 38 34 35 43 39 40 48 44 45 47 43 44 47 43 44 46 42 43 47 43 44 46 42 43 37 33 34 36 34 35 30 28 29 28 26 27 26 24 25 25 24 22 18 16 19 14 9 15 16 7 24 19 1 49 18 1 46 18 2 49 17 1 48 17 1 50 19 1 49 19 1 49 18 0 48 19 1 49 17 1 50 17 1 50 18 0 48 18 2 49 18 2 49 18 0 50 16 0 47 18 2 49 16 0 49 17 0 47 22 8 43 
33 12 11 34 13 10 34 13 10 38 14 12 39 15 13 36 18 16 33 29 26 34 29 26 36 36 36 36 36 36 35 37 36 35 37 36 35 35 35 36 36 36 34 34 34 32 32 32 30 30 30 27 27 27 27 27 27 27 27 27 28 28 28 28 26 27 28 28 28 30 20 19 28 18 17 33 13 12 32 12 11 32 11 10 32 11 10 31 10 9 32 11 10 31 13 11 25 25 25 25 25 23 28 28 28 28 26 27 23 24 16 22 25 16 23 26 9 19 24 4 19 24 4 22 24 3 19 24 2 19 24 2 19 24 2 17 22 0 16 24 1 14 22 0 14 23 2 15 23 0 15 23 0 23 19 7 28 17 11 24 13 17 16 6 33 24 15 34 46 44 45 45 43 44 45 41 40 45 41 40 46 42 43 46 42 43 41 37 38 39 35 36 43 39 40 47 43 44 46 42 43 43 39 40 41 39 40 43 41 42 44 42 43 33 31 32 34 32 33 31 29 30 28 26 27 25 23 24 23 22 20 19 17 20 13 13 15 17 11 23 21 7 33 22 6 35 30 7 35 30 7 35 18 2 49 19 1 51 19 1 51 19 0 55 18 0 52 18 0 50 18 0 48 17 0 45 18 0 48 17 1 48 18 0 50 18 2 49 17 1 46 14 2 50 17 1 48 20 2 52 
33 12 9 36 12 10 33 12 9 37 13 13 38 14 14 36 18 16 34 29 26 35 30 27 36 36 36 36 36 36 36 36 36 36 34 35 35 35 35 35 35 35 33 33 33 32 32 32 30 30 30 27 27 27 28 28 28 28 28 28 27 27 29 28 28 28 27 27 27 29 19 17 29 19 18 32 14 12 32 12 11 30 12 10 31 11 10 31 10 9 31 11 10 31 13 13 25 25 25 26 24 25 27 27 25 28 26 27 23 24 16 22 25 14 22 24 10 20 23 4 21 24 5 22 23 5 19 24 4 19 24 2 18 23 3 16 24 3 15 23 0 13 22 1 14 23 2 15 23 2 14 23 2 22 20 8 27 16 10 23 12 16 16 6 31 24 15 34 46 44 45 44 42 43 45 41 40 45 41 40 45 43 44 45 43 44 39 37 38 37 35 36 41 39 40 46 44 45 44 42 43 41 39 40 41 39 40 44 42 43 45 43 44 34 32 33 34 32 33 30 28 29 29 27 28 26 24 25 23 21 22 19 17 18 14 12 15 14 11 20 22 8 34 23 7 36 30 7 35 30 7 33 19 1 49 19 1 51 19 1 53 19 0 55 19 1 51 18 2 49 18 2 49 17 1 48 17 1 48 17 1 48 18 0 48 17 1 48 20 0 49 18 0 48 19 1 51 19 1 51 
34 13 12 37 13 11 38 14 10 36 12 10 36 12 12 35 15 14 35 26 27 34 28 28 36 36 36 36 36 34 36 36 36 36 36 36 36 36 36 36 36 36 33 33 33 32 32 32 31 31 31 27 27 27 27 27 27 26 26 26 26 26 26 26 26 24 26 26 26 29 19 18 28 18 17 31 13 11 32 11 10 33 12 9 35 11 11 34 13 10 32 12 11 31 13 11 24 23 18 25 24 19 20 24 7 20 24 9 17 25 2 16 24 1 18 23 3 17 22 2 15 23 2 17 22 2 16 24 1 14 24 0 15 23 2 14 22 0 14 24 0 24 17 9 23 19 8 17 10 26 17 7 32 11 5 39 8 3 43 9 7 44 16 13 42 24 20 43 46 45 43 45 44 42 44 43 41 44 42 43 41 39 40 42 40 41 42 40 41 41 39 40 43 41 42 46 44 45 43 41 42 37 35 36 38 36 37 41 39 40 41 39 40 36 34 35 36 34 35 28 26 27 27 25 26 22 20 21 17 17 17 20 19 17 20 18 19 16 15 21 8 5 26 7 5 27 8 2 50 7 4 49 19 5 40 20 6 41 26 4 40 27 5 41 24 2 49 18 1 56 19 0 55 19 1 53 20 1 56 17 0 51 18 0 50 19 1 53 19 1 53 19 0 55 19 0 55 20 1 57 
35 14 13 38 14 12 39 13 12 37 13 11 33 12 9 33 15 13 33 27 27 34 29 26 36 36 36 36 36 36 36 36 36 37 37 37 36 36 36 37 37 37 33 33 33 31 31 31 30 30 30 27 27 27 28 28 28 27 27 27 26 26 26 25 25 25 25 25 25 28 20 18 28 18 17 30 12 10 31 10 9 32 11 10 37 13 13 34 13 10 30 10 9 31 13 11 23 24 18 22 25 18 18 23 3 18 23 3 15 23 2 18 23 1 17 22 0 15 23 2 14 23 2 13 21 0 15 23 2 13 22 1 14 22 1 15 23 2 15 23 0 26 15 9 25 16 11 20 8 30 20 7 37 10 2 41 5 2 47 8 6 45 14 14 42 24 22 44 45 44 42 45 43 44 46 42 41 45 41 40 41 39 40 39 37 38 42 40 41 41 39 40 43 41 42 45 43 44 43 41 42 36 34 35 36 34 35 39 37 38 40 38 39 37 35 36 37 35 36 28 26 27 28 26 27 21 19 20 17 15 16 20 18 19 21 20 18 17 16 21 5 4 22 7 3 26 2 2 52 4 2 52 20 7 37 21 7 40 27 6 39 31 7 39 25 3 50 19 0 58 20 1 56 20 1 56 20 1 56 18 0 50 18 2 51 20 0 53 19 1 51 18 1 56 20 1 56 19 0 56 
26 18 7 31 16 9 34 15 9 35 14 11 37 13 13 36 16 15 36 28 26 35 30 27 36 36 36 36 36 36 36 36 36 36 36 36 36 36 36 35 35 35 33 33 33 31 31 31 29 29 29 27 27 27 27 27 27 23 23 23 23 23 25 26 26 26 26 26 26 26 21 18 29 19 18 32 14 12 32 11 10 32 13 9 31 14 7 28 15 7 23 20 5 22 20 7 19 23 8 20 22 8 18 23 3 15 23 2 14 22 0 17 22 0 18 23 1 15 23 2 15 23 2 18 23 0 17 20 1 22 18 6 22 18 7 17 11 21 17 11 21 13 7 33 13 8 31 9 5 40 9 2 44 9 4 44 7 6 40 18 15 42 32 30 43 34 33 41 46 42 43 46 42 41 43 42 40 44 40 41 38 36 37 37 35 36 42 40 41 44 42 43 40 38 39 38 36 37 40 38 39 42 40 41 40 38 39 39 37 38 38 36 37 37 35 36 37 35 36 27 25 26 24 22 23 21 19 20 20 18 19 20 16 17 15 15 15 16 16 18 13 12 18 13 12 20 6 7 28 8 6 27 9 3 41 9 3 41 11 4 46 13 4 49 17 4 47 20 3 45 24 3 46 27 4 48 23 1 48 20 3 57 20 1 56 20 1 57 19 0 56 21 0 56 21 0 57 20 1 57 
19 20 2 27 17 7 30 13 6 35 14 11 36 15 12 36 16 15 35 26 27 35 29 29 36 38 35 36 36 36 36 36 36 36 36 36 37 37 37 36 36 36 33 33 33 31 31 31 31 31 31 28 28 28 27 27 27 22 22 22 21 21 21 26 26 26 26 26 26 29 19 18 28 18 17 31 13 11 32 12 11 27 13 10 27 17 8 24 18 6 19 22 1 18 21 0 17 22 0 17 22 0 16 24 1 17 22 0 15 23 0 15 23 0 17 22 0 18 23 1 17 22 0 18 23 1 19 20 2 26 17 10 25 15 13 18 5 35 18 5 33 4 1 44 7 1 45 2 0 47 2 1 45 7 6 40 9 9 37 22 21 39 40 39 37 41 39 40 43 41 42 47 41 43 44 42 43 45 41 40 38 36 37 36 34 35 43 41 42 44 42 43 40 38 39 33 31 32 38 36 37 44 42 43 43 41 42 36 34 35 36 34 35 36 34 35 37 35 36 25 23 24 23 21 22 21 19 20 20 19 17 16 16 16 12 12 12 13 13 13 18 16 17 17 15 16 9 8 13 9 8 13 0 2 41 3 2 42 5 3 52 5 2 55 15 4 44 20 7 37 22 5 39 31 7 41 29 4 44 20 1 57 20 1 57 20 0 59 20 1 57 21 2 58 19 0 56 20 1 57 
15 23 0 23 20 3 25 19 5 26 18 7 29 16 7 30 19 13 33 28 25 34 30 29 34 34 34 35 33 34 33 33 33 34 34 34 35 35 35 36 36 36 33 33 33 31 31 31 30 30 30 27 27 27 27 27 27 25 25 25 25 25 25 27 27 27 27 27 27 27 22 19 27 19 16 26 17 10 24 16 5 24 18 4 22 19 4 21 20 2 18 23 1 18 21 0 15 23 0 15 23 0 16 24 1 15 23 0 15 23 0 18 23 1 20 21 7 22 20 5 20 17 12 17 15 20 19 14 21 17 10 28 17 8 29 14 4 41 13 2 42 5 3 43 7 2 43 17 14 45 19 19 45 24 23 41 27 27 39 34 31 40 43 41 42 42 41 39 41 39 40 42 40 43 44 40 39 42 41 39 35 33 34 34 32 33 39 37 38 40 38 39 40 38 39 41 39 40 41 39 40 40 38 39 42 38 39 41 37 38 40 36 37 37 33 34 34 32 33 24 22 23 22 20 21 19 17 18 18 16 17 16 16 14 13 13 13 16 14 15 15 15 15 14 14 14 11 12 14 11 12 14 11 9 30 9 10 30 8 7 38 5 6 37 8 7 41 12 4 45 11 4 45 19 4 47 17 4 47 21 6 49 20 3 48 25 2 46 23 5 47 20 2 52 19 0 52 19 1 53 
15 23 0 16 24 1 16 24 1 19 22 3 22 19 4 26 22 11 33 29 28 33 29 28 33 33 33 32 32 32 32 32 32 32 30 31 35 35 35 36 36 36 33 33 33 31 31 31 30 30 30 27 27 27 27 27 27 27 27 27 28 26 27 27 27 27 27 29 28 25 20 16 26 21 17 19 20 6 19 20 2 18 23 1 17 22 0 18 23 1 15 23 0 18 23 0 19 22 1 15 23 0 17 22 0 15 23 0 18 23 1 16 24 1 22 18 6 27 16 10 23 11 25 20 5 38 18 3 42 10 1 48 10 1 46 7 0 51 8 0 49 5 3 43 5 3 43 30 28 41 38 35 42 41 41 41 42 40 41 43 41 42 44 42 43 43 41 42 40 38 39 40 38 39 40 38 39 39 39 39 33 31 32 32 30 31 36 32 33 34 32 33 40 38 39 46 44 45 42 40 41 36 34 35 36 34 35 42 38 39 40 38 39 33 31 32 32 30 31 23 21 22 21 21 21 18 16 17 16 14 15 17 15 16 15 13 14 14 12 13 12 10 11 13 11 12 15 13 14 17 15 16 19 17 18 19 17 18 10 10 20 10 10 22 4 2 39 1 1 51 2 3 51 1 1 51 9 3 49 20 6 39 20 6 39 27 7 35 30 6 38 20 3 47 18 0 48 17 1 46 
16 24 1 15 23 0 16 24 1 18 21 2 19 20 2 22 23 7 29 28 23 30 29 24 32 32 30 33 33 31 33 33 33 33 33 33 34 34 34 36 36 36 32 32 32 30 30 30 30 30 30 27 27 27 28 28 28 27 27 27 27 27 27 27 27 25 28 28 26 21 21 13 21 20 15 20 21 5 18 21 2 18 21 2 15 23 0 15 23 0 16 24 1 18 23 1 18 23 1 16 24 1 18 21 2 19 22 3 17 19 8 18 18 8 21 15 15 22 13 18 20 8 32 16 4 42 12 4 45 9 1 50 8 0 47 7 1 47 7 1 49 15 12 43 13 12 43 33 31 44 40 38 43 41 39 42 43 41 42 43 41 42 43 41 42 43 41 42 41 39 40 41 39 40 40 38 39 42 40 41 36 34 35 34 32 33 34 32 33 34 32 33 37 35 36 45 41 42 39 37 38 38 36 37 40 36 37 42 38 39 42 38 39 32 30 31 32 30 31 22 20 21 20 20 20 17 15 16 16 14 15 15 13 14 14 12 13 12 10 11 14 12 13 15 13 14 17 15 16 16 14 15 18 16 17 19 17 18 12 11 17 9 9 19 8 4 37 1 2 46 4 2 51 2 2 52 7 4 51 16 6 43 16 6 43 22 6 42 22 6 42 18 2 47 18 1 46 19 4 47 
19 24 2 18 23 3 15 23 0 16 24 0 14 24 0 16 24 1 17 24 6 19 26 8 34 33 28 32 33 28 35 35 35 36 34 37 36 34 37 35 35 35 32 32 32 30 30 30 29 29 29 27 27 27 28 28 28 27 27 29 27 27 27 24 27 20 24 25 19 15 24 5 14 23 4 17 22 2 14 22 1 14 22 0 14 22 0 16 24 1 16 24 1 17 22 0 18 21 0 17 22 2 25 16 7 26 17 10 22 7 30 21 5 32 14 3 45 9 1 50 9 2 54 6 1 55 7 0 56 5 0 54 7 0 54 5 2 49 4 0 50 37 36 42 36 35 41 47 42 48 46 44 45 44 42 43 43 41 42 42 40 41 39 37 38 41 39 40 43 41 42 45 43 44 43 41 42 45 41 42 45 43 44 45 43 44 36 34 35 33 31 32 33 31 32 32 30 31 37 33 34 41 41 41 42 40 41 41 37 38 40 38 39 31 29 30 33 29 30 20 18 19 16 16 16 18 16 17 16 14 15 15 13 14 11 9 10 13 11 12 17 15 16 17 15 16 17 15 16 17 15 16 17 15 16 17 15 16 14 12 13 12 10 11 9 7 28 4 4 32 4 4 40 1 2 56 1 1 55 1 3 54 1 1 53 3 4 52 3 3 53 18 8 43 19 9 44 27 8 38 
21 26 4 18 23 1 16 24 1 15 23 0 14 22 1 15 23 2 17 24 6 19 26 10 30 31 25 31 32 26 34 34 32 34 34 32 36 34 35 36 36 36 32 32 32 30 30 30 29 29 29 27 27 25 27 27 25 26 28 27 26 26 24 23 26 15 23 26 17 15 24 3 13 22 1 16 24 3 15 23 0 15 23 2 16 21 0 15 23 2 18 21 2 18 21 0 17 21 6 17 21 6 25 15 14 25 15 13 21 5 31 21 5 34 14 3 45 8 0 49 8 1 52 8 1 55 8 1 55 6 1 57 5 0 54 4 0 50 5 1 51 37 36 42 36 35 40 45 40 44 45 44 42 44 43 41 43 41 42 41 39 40 40 38 39 40 38 39 44 42 43 42 40 41 43 41 42 46 40 42 44 42 43 44 42 43 38 36 37 34 34 34 34 32 33 35 31 32 35 33 34 42 38 39 43 39 40 40 36 37 38 36 37 33 31 32 32 30 31 20 18 19 18 16 17 18 16 17 18 17 15 16 14 15 12 10 11 13 11 12 18 17 15 18 17 15 16 15 13 16 14 15 16 15 13 16 15 13 15 14 12 14 12 13 10 9 27 6 3 32 4 4 42 0 2 53 1 2 56 2 2 54 1 1 55 4 4 54 4 4 56 14 8 44 17 7 44 24 7 43 
19 24 2 16 24 3 13 22 1 15 23 0 14 24 0 15 23 0 15 23 2 14 24 0 15 23 2 14 24 0 19 28 11 20 26 12 33 34 28 35 35 33 32 32 32 30 30 30 29 29 29 28 28 26 25 28 19 19 23 8 17 24 8 15 23 2 15 23 0 15 23 0 15 23 0 14 22 0 15 23 0 18 23 1 17 22 0 20 21 5 27 16 10 27 16 14 23 4 32 24 5 33 17 1 48 17 1 46 13 0 44 13 0 44 12 1 41 9 1 38 9 0 45 9 0 49 10 2 53 6 1 57 6 1 57 4 2 51 3 1 50 33 31 36 34 32 37 36 36 34 38 38 36 43 42 40 47 41 43 45 41 42 41 41 41 41 39 40 42 38 39 40 38 39 43 41 42 43 41 42 39 35 36 38 34 35 36 34 35 36 34 35 41 39 40 44 42 43 40 38 39 32 30 31 32 30 31 31 29 30 31 29 30 38 36 37 37 35 36 21 19 20 18 18 18 18 18 18 17 15 16 17 15 16 17 15 16 17 15 16 19 17 18 17 15 16 14 12 13 15 13 14 11 11 11 12 12 12 19 17 18 22 21 19 12 10 23 6 4 25 5 4 36 2 2 56 1 2 56 1 1 53 1 2 56 3 6 57 5 7 58 2 4 55 2 5 56 5 7 56 
19 24 4 15 23 2 14 22 1 13 20 2 13 22 1 14 22 0 14 22 1 14 22 1 16 24 3 16 24 3 19 26 10 22 26 12 31 32 26 34 34 32 32 32 30 29 29 29 30 30 30 27 28 23 24 27 20 19 23 8 20 24 9 16 24 1 14 22 1 15 23 0 15 23 2 18 23 1 15 23 0 15 23 0 17 22 0 19 20 4 26 15 9 26 15 13 24 5 33 24 4 32 17 1 46 16 0 45 14 1 45 14 1 45 12 1 41 10 2 41 10 1 44 9 1 50 9 1 50 8 1 55 6 1 57 4 2 52 3 1 50 33 31 34 35 30 34 36 36 36 37 37 37 42 40 41 46 42 43 43 41 42 43 41 42 43 39 40 39 37 38 40 38 39 45 41 42 43 41 42 38 36 37 36 34 35 39 35 36 40 36 37 41 39 40 44 44 44 40 38 39 31 29 30 32 30 31 30 28 29 29 29 29 38 36 37 36 36 36 22 20 21 20 18 19 19 17 18 17 16 14 18 16 17 17 15 16 18 16 17 18 17 15 18 17 15 14 12 13 14 12 13 12 10 11 13 11 12 19 18 16 22 20 21 11 11 23 4 5 25 1 4 35 1 2 56 0 1 55 1 2 56 1 2 56 4 7 58 4 7 58 2 5 56 2 5 58 5 7 58 
20 25 5 19 24 4 18 23 1 18 23 0 14 22 1 15 23 0 15 23 0 15 23 0 16 24 1 15 23 0 15 23 0 14 22 0 24 29 9 25 29 12 28 30 16 28 30 19 26 29 12 20 25 3 17 25 4 15 25 1 14 22 1 15 23 0 16 24 1 15 23 2 14 23 2 23 17 5 26 15 9 26 10 21 24 4 32 21 4 40 17 0 44 15 2 46 14 1 47 15 2 48 13 1 47 14 1 47 13 0 46 13 2 45 13 1 41 13 1 37 10 2 39 9 1 42 13 5 42 22 19 38 25 22 39 45 44 42 45 43 44 32 30 31 32 30 31 40 38 39 45 41 40 45 41 42 46 42 43 47 43 44 48 44 45 47 43 44 45 41 42 43 41 42 39 37 38 39 39 39 42 40 41 43 41 42 34 32 33 32 30 31 40 38 39 52 48 49 47 47 47 47 45 46 47 45 46 51 49 50 51 49 50 53 51 52 52 52 52 25 23 24 20 20 20 18 18 18 17 15 16 18 16 17 17 15 16 17 15 16 21 19 20 22 20 21 17 15 16 16 14 15 18 16 17 20 19 17 15 13 14 14 13 11 14 13 11 12 12 12 13 13 15 15 15 17 11 11 19 2 4 27 2 3 24 2 4 43 2 4 42 4 7 50 4 6 54 19 23 60 
20 24 7 19 23 6 19 24 4 18 23 1 15 23 0 15 23 2 14 22 1 15 23 2 14 24 0 13 22 1 15 23 0 14 22 1 23 27 12 26 30 13 27 29 15 28 30 17 25 28 11 19 24 4 16 24 3 15 23 2 15 23 0 15 23 0 14 22 0 15 23 0 14 22 0 25 18 8 25 16 9 24 11 20 24 5 33 20 4 40 17 1 48 17 1 46 15 2 46 14 1 47 14 0 49 14 0 49 14 1 45 14 1 45 13 1 39 12 1 35 11 0 40 10 2 43 12 4 41 23 20 39 24 21 40 45 43 44 47 43 44 30 28 29 32 30 31 42 38 37 44 40 41 45 41 42 43 41 42 46 42 43 48 44 45 47 43 44 44 40 41 44 40 41 36 36 36 38 36 37 42 40 41 42 40 41 34 32 33 30 28 29 43 39 40 49 47 48 49 47 48 47 45 46 47 45 46 51 49 50 51 49 50 52 50 51 53 51 52 23 21 22 21 19 20 19 17 18 18 16 17 18 16 17 17 15 16 18 16 17 21 19 20 19 17 18 16 14 15 16 14 15 18 16 17 18 16 17 16 14 15 14 12 13 13 11 12 12 12 10 13 13 13 14 13 18 11 10 16 2 2 26 3 5 26 1 4 39 1 3 41 4 7 52 5 8 53 19 23 60 
19 24 4 20 23 2 17 25 2 16 24 1 17 22 0 15 23 2 18 23 1 14 24 0 14 22 1 15 23 0 19 24 2 20 23 4 29 32 15 32 35 18 27 31 16 24 28 11 22 26 9 19 24 2 18 23 3 15 23 0 15 25 1 20 18 6 21 19 7 22 10 22 22 9 27 20 5 34 20 5 38 19 5 41 17 2 43 17 0 44 17 0 45 15 2 46 14 2 50 13 1 47 13 1 49 13 0 48 13 1 47 13 1 47 13 2 42 15 6 37 26 18 39 35 32 43 37 34 43 42 37 43 42 40 41 47 45 46 46 44 45 38 36 37 37 37 37 41 39 40 44 44 44 44 42 43 45 44 42 46 45 43 45 41 40 46 42 41 45 41 40 44 40 39 44 43 41 44 44 42 44 42 43 41 39 40 36 34 35 33 31 32 41 39 40 46 44 45 47 45 46 47 47 47 50 48 49 46 44 45 46 44 45 49 45 46 48 44 45 27 25 26 24 22 23 19 19 19 17 17 17 14 14 14 13 13 13 14 14 14 16 14 15 16 14 15 19 17 18 17 17 17 21 19 20 20 18 19 13 13 13 12 10 11 11 11 11 12 10 11 12 14 13 18 18 18 18 18 20 16 15 20 16 17 21 6 10 21 8 10 22 2 15 24 1 15 26 6 16 25 
19 24 4 21 24 3 21 23 2 19 24 2 16 24 3 14 24 0 16 21 1 15 23 0 15 23 0 15 23 0 20 25 3 20 25 3 31 34 15 36 37 21 28 31 12 23 27 10 21 26 6 18 23 1 18 23 3 15 23 2 15 25 1 23 16 8 24 17 9 25 7 33 24 3 34 18 3 44 17 1 46 17 1 48 17 1 48 16 0 45 14 1 45 13 0 44 13 0 48 14 2 50 12 0 48 12 0 48 13 1 49 13 1 47 14 4 39 12 5 36 29 25 40 43 43 45 45 43 44 44 42 43 45 43 44 50 46 47 50 46 47 41 39 40 40 42 41 43 41 42 44 44 44 46 44 45 48 46 47 46 44 45 42 40 41 43 41 42 44 40 41 42 40 41 51 47 48 49 47 48 42 40 41 41 39 40 36 34 35 34 32 33 39 37 38 44 42 43 45 43 44 49 47 48 49 47 48 45 43 44 47 43 44 43 41 42 43 41 42 28 26 27 26 24 25 22 20 21 16 16 16 14 14 14 11 11 11 12 12 12 12 12 12 14 14 14 18 18 18 18 18 18 20 18 19 21 19 20 13 13 13 12 10 11 12 12 12 11 9 10 14 14 14 20 18 19 20 18 19 19 19 17 20 20 20 7 12 15 8 12 13 0 16 16 0 16 15 0 16 15 
18 23 1 19 22 1 18 23 1 17 22 0 15 23 0 14 24 0 15 23 0 14 23 2 15 23 2 13 22 1 16 24 3 15 25 1 22 27 7 24 28 13 22 27 7 20 25 5 20 22 8 22 20 8 21 16 12 19 11 22 20 12 25 21 5 32 16 6 31 20 4 43 19 2 44 17 2 45 16 0 47 14 1 47 13 0 46 13 0 46 12 1 44 13 2 45 13 2 42 12 1 41 11 1 51 11 1 51 10 0 53 10 0 53 17 10 41 23 16 34 31 28 37 39 37 38 41 39 40 48 44 45 45 43 44 46 42 43 45 43 44 44 40 41 42 40 41 44 42 43 46 44 45 47 45 46 47 45 46 46 44 45 44 44 44 44 42 43 46 42 43 47 43 44 47 43 44 46 44 45 39 37 38 38 36 37 36 34 35 33 31 32 39 37 38 44 42 43 45 43 44 45 43 44 46 44 45 42 40 41 42 40 41 37 35 36 36 34 35 30 28 29 29 27 28 26 24 25 24 22 23 24 22 23 24 22 23 23 21 22 24 24 24 24 24 24 23 21 22 22 20 21 15 13 14 15 13 14 16 16 16 17 17 17 12 14 13 11 11 11 14 14 14 21 19 20 20 18 19 16 16 14 17 16 14 15 15 17 15 15 15 4 18 18 2 18 15 0 21 14 
19 24 2 18 23 1 18 23 1 17 22 0 18 23 1 15 23 0 15 23 0 15 23 0 13 21 0 14 22 1 15 23 0 15 25 1 18 23 3 15 23 2 19 24 4 18 23 3 21 22 8 24 17 11 23 14 17 21 5 34 23 4 34 19 2 47 18 1 46 15 2 46 16 0 47 16 0 47 14 1 47 13 1 47 13 1 47 12 0 46 12 1 44 12 1 44 13 1 37 12 0 36 12 0 53 12 2 55 10 1 56 9 0 55 20 14 40 25 22 31 31 29 34 37 35 36 38 36 37 46 45 43 44 42 43 45 41 42 45 41 42 42 40 41 42 40 41 46 44 45 48 44 45 48 44 45 45 43 44 45 45 45 45 43 44 45 43 44 46 42 43 46 42 43 43 41 42 43 41 42 40 38 39 37 35 36 34 32 33 33 31 32 39 37 38 44 42 43 45 43 44 47 43 44 44 42 43 38 36 37 39 39 39 33 31 32 34 32 33 29 27 28 30 28 29 28 26 27 27 27 27 29 27 28 30 28 29 31 29 30 32 30 31 30 28 29 23 21 22 23 21 22 12 10 11 12 10 11 18 16 17 18 18 18 14 14 14 12 12 12 16 14 15 22 20 21 19 19 19 16 14 15 15 15 13 17 15 16 19 15 14 3 19 16 2 21 17 3 24 15 
18 23 1 18 23 1 20 22 1 18 23 1 18 23 1 15 23 0 15 23 2 15 23 0 13 22 1 15 23 2 15 23 2 15 23 2 19 22 5 19 21 7 19 18 14 21 16 20 21 14 21 21 10 27 20 8 28 19 3 40 19 3 39 18 0 48 16 3 49 16 0 47 16 0 47 14 1 47 14 1 47 12 0 48 12 0 48 13 0 48 12 0 46 12 1 44 11 1 36 13 2 36 14 0 53 12 2 54 10 1 56 10 1 58 17 9 46 20 14 42 26 22 36 32 30 35 36 34 37 47 45 46 47 43 44 42 41 39 44 40 39 42 40 41 44 40 41 45 44 42 46 45 43 45 43 44 45 43 44 45 43 44 47 45 46 46 44 45 45 43 44 44 42 43 43 41 42 43 41 42 41 39 40 40 38 39 37 35 36 35 33 34 39 37 38 40 38 39 41 39 40 46 42 43 43 41 42 39 37 38 40 38 39 35 33 34 36 34 35 31 29 30 32 30 31 33 29 30 29 27 28 31 29 30 30 28 29 29 27 28 27 25 26 27 25 26 22 20 21 21 19 20 15 15 15 16 14 15 19 17 18 19 19 19 15 15 15 12 12 12 17 15 16 22 20 21 20 18 19 16 14 15 14 14 14 13 14 16 14 15 17 4 20 20 1 21 20 1 23 20 
18 23 1 18 23 1 18 23 1 18 23 1 19 24 4 21 24 3 20 23 2 19 24 2 17 22 2 16 24 1 14 23 2 14 22 1 19 16 7 21 16 10 21 9 29 22 5 41 20 3 47 14 0 53 15 1 52 14 1 47 12 0 46 14 0 49 13 0 46 16 0 47 15 2 48 14 1 47 13 1 47 14 0 49 12 0 48 12 0 48 13 1 47 12 1 44 11 0 35 11 1 36 11 0 56 12 2 55 9 0 55 8 1 55 10 1 54 10 1 56 17 12 44 24 23 31 27 26 31 46 44 45 46 44 45 45 41 40 43 39 38 41 39 40 40 38 39 43 42 40 44 40 39 45 41 42 45 41 42 46 42 43 46 46 46 47 45 46 46 44 45 45 43 44 45 43 44 44 42 43 44 42 43 43 41 42 39 37 38 37 35 36 36 34 35 35 33 34 38 36 37 43 41 42 42 40 41 44 40 41 43 39 40 39 37 38 39 37 38 39 35 36 38 34 35 35 33 34 35 31 32 33 31 32 33 31 32 30 28 29 18 16 17 18 16 17 19 17 18 19 17 18 21 21 21 23 21 22 21 19 20 21 21 21 15 15 15 12 12 12 16 14 15 23 21 22 21 21 19 15 14 12 15 13 14 4 12 15 5 13 16 1 20 24 1 22 25 2 23 26 
18 23 1 17 22 0 18 23 1 16 24 1 17 25 2 19 24 1 19 24 2 21 24 3 18 21 4 18 21 4 17 19 8 15 18 11 19 13 17 20 13 20 19 6 34 21 3 43 19 2 46 14 0 49 15 1 52 13 1 47 13 1 49 14 0 49 14 0 49 13 0 48 14 1 47 15 3 51 13 1 47 11 0 49 11 2 49 10 0 50 11 2 49 10 1 46 11 1 35 11 0 34 11 1 53 11 1 53 9 1 58 11 2 59 11 3 54 12 5 49 21 17 42 29 28 34 34 32 37 48 46 47 46 44 45 44 43 41 46 42 41 40 38 39 39 37 38 45 41 40 44 43 41 45 41 42 44 40 41 45 41 42 46 44 45 46 44 45 44 42 43 44 42 43 45 43 44 44 42 43 43 41 42 44 42 43 41 39 40 39 37 38 37 35 36 36 34 35 36 34 35 36 34 35 37 35 36 42 40 41 40 38 39 43 39 40 43 39 40 39 37 38 38 36 37 35 33 34 34 32 33 31 29 30 29 27 28 26 24 25 18 16 17 18 16 17 18 18 18 18 18 18 21 21 21 22 20 21 21 19 20 19 19 19 15 15 15 12 12 12 18 16 17 23 21 22 22 22 20 16 16 16 17 15 16 7 12 15 7 12 16 3 18 25 1 18 25 1 20 26 
15 23 0 15 23 0 19 22 1 19 24 2 18 23 1 19 22 1 19 24 2 20 24 1 24 17 9 24 17 9 25 6 34 24 4 39 19 2 46 18 2 47 17 0 47 17 0 47 17 1 46 17 1 50 15 0 44 14 1 47 16 0 47 15 2 48 14 1 47 12 0 48 14 0 49 9 1 50 8 0 51 10 2 53 8 1 52 8 0 52 9 1 50 9 2 46 7 0 36 7 0 36 9 0 45 10 1 44 7 2 58 10 2 61 13 9 42 16 13 32 33 31 42 49 49 49 50 48 49 48 44 45 47 45 46 49 45 44 49 45 44 34 32 33 36 34 35 43 42 40 47 46 44 46 42 43 45 39 39 44 40 39 44 44 42 45 44 42 45 44 42 46 42 41 47 46 44 47 46 44 43 41 42 42 40 41 45 43 44 47 45 46 42 40 41 36 34 35 31 29 30 19 19 19 23 23 23 38 38 38 38 36 37 47 45 46 48 46 47 45 43 44 44 42 43 37 35 36 33 31 32 25 23 24 15 13 14 18 16 17 20 18 19 20 18 19 21 19 20 22 20 21 21 21 21 22 20 21 21 19 20 19 19 19 17 17 17 15 15 15 21 19 20 27 25 26 25 23 24 24 20 21 23 21 22 13 11 12 16 12 13 3 10 20 2 10 21 2 11 26 
16 24 1 15 23 0 18 23 1 16 24 1 19 24 2 18 23 1 19 24 2 20 23 4 26 17 10 25 18 10 24 5 33 25 3 39 20 3 47 17 1 46 18 1 46 17 1 48 16 0 47 16 0 47 15 2 48 15 2 46 16 0 47 14 0 51 14 1 45 12 0 48 13 1 47 9 0 49 9 1 52 9 1 50 8 1 55 7 0 52 7 0 46 9 0 47 9 2 36 8 1 34 10 1 44 10 1 44 8 0 57 6 1 59 13 9 42 17 14 31 32 30 41 50 48 49 49 47 48 46 45 43 45 44 42 47 45 46 47 45 46 35 33 34 36 34 37 44 43 41 48 44 43 45 41 40 44 40 39 45 41 42 48 44 45 45 43 44 45 43 44 44 42 43 47 45 46 46 45 43 44 43 41 43 42 40 45 43 44 47 45 46 42 40 41 37 35 36 30 28 29 21 19 20 25 21 22 37 35 36 37 35 36 47 45 46 46 44 45 45 43 44 45 43 44 36 36 36 32 30 31 25 23 24 15 13 14 17 15 16 19 19 19 20 18 19 22 20 21 22 20 21 21 21 21 21 21 21 21 20 18 18 18 18 18 16 17 18 16 17 21 19 20 27 25 26 27 25 26 23 21 22 24 20 19 13 11 12 13 12 10 3 10 20 2 10 21 1 11 23 
15 23 2 14 22 1 15 23 2 20 21 7 25 16 9 25 14 22 26 4 43 27 4 46 22 1 57 23 0 54 21 0 56 21 0 57 20 1 56 19 0 55 19 1 53 19 1 51 18 0 50 18 0 50 18 0 48 19 1 51 18 2 51 17 1 50 16 0 47 14 1 47 15 2 48 14 1 45 13 2 45 12 0 48 8 0 49 8 0 47 9 0 49 9 1 50 6 0 48 7 1 47 4 0 50 6 0 46 3 1 48 3 0 47 10 7 38 13 11 32 27 26 34 39 39 41 40 39 37 37 36 34 38 37 35 48 46 47 49 47 48 42 40 41 44 40 41 41 37 36 39 38 36 39 39 39 41 39 40 43 43 43 50 48 49 51 47 46 47 43 42 48 44 45 46 42 43 45 41 42 43 42 40 43 42 40 35 33 34 31 29 30 27 25 26 21 19 20 22 20 21 20 20 20 23 23 23 42 40 41 44 42 43 41 39 40 41 39 40 23 19 20 17 15 16 18 18 18 20 18 19 19 17 18 23 21 22 22 20 21 19 19 19 19 17 18 21 19 20 22 20 21 19 17 18 19 17 18 30 26 27 30 28 29 31 30 28 30 29 27 24 22 23 17 15 16 17 15 16 17 17 17 18 16 17 14 14 16 15 15 17 4 7 24 1 6 26 1 8 26 
15 23 2 15 23 2 12 24 2 19 20 6 23 16 10 25 12 19 25 5 42 26 3 45 22 1 57 23 0 56 21 0 56 21 0 56 20 1 57 19 0 55 19 1 53 18 2 51 17 1 50 18 2 51 17 1 50 17 1 50 19 1 49 17 1 50 17 1 48 14 1 47 14 1 47 12 0 46 12 0 46 12 0 48 10 1 48 10 0 52 9 1 50 8 0 49 7 1 49 7 1 49 5 2 49 6 0 48 3 2 46 5 1 51 10 7 38 13 11 32 27 26 34 42 38 35 40 38 39 36 34 35 37 37 37 48 47 45 48 46 47 43 39 40 44 40 39 42 38 39 37 37 35 40 38 39 39 39 39 44 42 43 50 48 49 49 48 46 46 42 41 46 42 43 45 41 42 45 41 42 45 41 40 43 42 40 34 32 33 31 29 30 27 25 26 22 20 21 21 21 21 22 20 21 24 24 24 45 41 42 44 42 43 41 39 40 41 39 40 21 19 20 16 18 17 17 17 17 19 17 18 22 20 21 22 20 21 22 20 21 19 19 19 19 17 18 21 19 20 23 21 22 19 17 18 19 18 16 25 23 24 30 28 29 29 28 26 30 28 29 25 23 26 17 15 16 16 15 13 17 17 17 18 17 15 15 14 19 15 15 17 4 7 26 1 6 26 1 9 28 
23 16 8 28 9 28 31 5 40 29 4 46 25 3 50 25 3 50 25 0 55 25 2 54 24 0 58 24 1 57 23 0 56 21 0 56 22 1 57 22 1 57 21 0 56 19 0 55 19 0 55 20 1 56 17 0 54 20 1 57 19 0 55 18 0 54 19 0 55 18 1 53 17 0 52 17 1 50 16 0 49 15 2 46 16 0 45 16 0 45 14 1 47 14 1 47 13 1 47 13 1 49 11 1 53 11 1 53 9 0 53 9 0 53 9 1 52 9 1 50 11 5 49 13 9 46 18 13 43 29 27 30 30 28 33 42 38 37 41 40 38 41 39 40 42 40 41 44 43 41 46 44 45 48 44 45 47 46 44 43 41 42 37 35 36 39 37 38 46 44 45 47 43 44 45 41 42 44 40 39 43 42 40 45 41 40 33 31 32 30 28 29 29 25 26 22 20 21 21 19 20 21 19 20 24 22 23 44 40 41 44 40 41 43 41 42 45 41 42 19 17 18 17 15 16 20 18 19 22 20 21 22 20 21 22 20 21 21 19 20 18 16 17 19 17 18 24 22 23 24 22 23 34 30 31 31 29 30 26 24 27 25 23 24 20 20 20 17 17 17 18 16 17 16 16 16 14 13 19 6 7 25 6 7 25 3 4 34 3 5 30 2 3 34 0 3 34 0 3 34 
22 15 9 30 7 33 32 4 45 29 3 51 26 1 58 27 0 57 25 2 58 26 1 58 25 2 56 24 1 57 24 1 57 24 1 57 22 1 57 21 0 56 22 2 55 20 1 56 20 1 57 20 1 57 19 0 56 19 0 56 19 0 56 19 2 56 19 0 55 19 0 55 19 0 55 19 1 51 18 0 50 17 1 46 17 1 48 17 1 46 16 1 44 17 1 46 13 1 49 14 1 47 11 1 54 13 0 53 11 1 54 10 1 54 9 0 53 8 1 55 8 2 50 9 3 47 14 8 42 26 23 30 28 26 31 43 38 35 41 37 38 41 39 40 40 38 39 44 44 44 46 44 45 49 45 46 49 45 44 43 41 42 36 34 35 38 36 37 45 45 45 46 44 45 43 41 42 45 41 40 44 40 39 43 42 40 32 30 31 29 27 28 25 25 25 22 20 21 21 19 20 22 20 21 24 22 23 45 41 42 45 41 42 46 42 43 46 42 43 20 18 19 18 16 17 20 18 19 23 21 22 23 21 22 22 20 21 22 20 21 18 16 17 19 17 18 25 23 24 25 23 24 34 32 33 33 32 30 25 25 25 25 24 22 20 18 19 17 15 16 17 15 16 18 16 17 14 13 19 4 5 25 4 5 25 0 3 36 2 3 34 1 1 35 0 2 35 0 3 36 
43 4 48 44 1 55 44 1 57 40 1 56 38 0 59 35 1 61 31 1 61 32 1 60 29 1 62 30 2 63 30 0 62 31 1 61 29 1 62 28 0 61 25 0 58 23 0 56 25 2 58 24 1 57 23 0 54 21 0 57 23 0 56 20 1 56 21 2 58 19 0 55 19 0 56 20 3 57 20 1 56 19 0 56 20 2 54 18 1 53 18 1 53 18 0 52 18 1 55 18 1 53 15 1 52 15 1 52 14 0 51 14 0 49 13 1 49 12 0 50 13 1 49 12 3 50 13 4 51 18 7 50 17 9 50 22 13 40 22 13 40 36 34 35 36 34 35 39 35 34 40 38 39 43 41 42 45 43 44 43 41 42 42 40 41 42 41 39 41 40 38 41 39 40 37 35 36 39 35 36 44 40 39 46 42 41 34 30 31 29 27 28 27 25 26 22 20 21 21 19 20 19 17 18 21 21 21 42 40 41 40 38 39 44 40 41 44 40 41 19 19 19 16 16 16 16 16 16 18 16 17 22 20 21 23 21 22 24 22 23 30 26 27 29 27 28 27 25 26 26 24 25 21 19 20 21 19 22 21 19 20 20 19 17 15 12 21 9 9 21 7 9 22 5 7 28 5 6 26 3 5 28 1 6 28 0 5 31 0 4 33 1 5 30 0 5 27 0 4 29 
