P3
100 50
255
19 19 21 19 19 19 18 18 18 18 16 17 16 24 3 16 24 3 45 48 31 49 49 37 49 50 36 49 51 37 38 39 23 25 28 11 26 26 14 24 26 12 23 26 9 22 24 10 23 25 12 21 24 7 23 24 6 17 25 4 18 23 3 17 22 0 17 22 2 17 22 2 14 22 1 18 23 3 20 27 9 22 28 14 37 43 59 37 43 57 35 40 60 34 40 62 36 42 56 38 41 58 28 31 48 16 19 36 29 31 46 44 46 58 44 47 56 48 51 60 47 50 59 48 51 60 48 51 60 47 50 59 48 51 60 47 50 59 48 51 60 48 51 60 48 51 60 47 50 59 48 51 60 48 51 60 48 51 60 48 51 60 47 49 61 48 51 60 48 51 60 48 50 62 48 51 60 47 50 59 47 50 59 48 51 60 48 51 60 49 52 61 47 50 59 41 44 63 39 42 61 36 41 61 33 40 59 36 41 61 37 42 61 33 36 53 30 33 50 22 28 44 15 21 37 15 20 39 16 21 40 18 24 40 5 20 1 6 21 0 3 20 1 4 19 0 14 24 16 21 26 29 25 30 34 31 36 39 31 36 40 29 34 37 27 35 37 36 41 44 35 40 43 40 44 47 39 43 46 39 43 46 39 43 46 38 42 45 39 43 46 35 39 42 30 35 38 31 36 39 
18 18 18 19 19 19 19 19 21 19 19 19 17 22 2 15 23 0 32 35 18 34 37 20 33 36 19 35 37 23 29 32 15 23 26 9 24 25 11 24 24 12 23 25 11 23 25 11 23 26 9 21 24 7 22 25 8 20 23 6 20 23 4 18 23 3 17 22 2 21 27 13 26 31 25 26 32 28 27 32 35 27 35 38 37 43 57 38 44 60 29 35 51 27 32 51 35 38 53 37 41 53 35 38 53 34 36 49 39 41 53 47 49 61 48 51 60 47 50 59 48 51 60 47 50 59 47 50 59 48 51 60 48 51 60 48 51 60 48 51 60 48 51 60 48 51 60 48 51 60 47 50 59 48 51 60 48 50 62 47 50 55 48 51 60 48 51 60 48 51 60 48 51 60 48 52 61 49 52 61 47 49 61 46 48 61 46 48 61 42 45 60 41 44 59 37 42 61 36 41 60 36 41 61 35 40 59 28 33 52 26 31 50 24 30 46 24 27 44 22 25 42 15 21 37 17 19 40 18 21 40 18 20 41 6 21 2 4 21 3 3 20 2 2 19 1 13 22 17 22 26 27 23 28 31 26 31 34 25 30 33 25 30 33 26 31 34 31 36 39 31 36 39 33 38 41 35 39 42 34 38 41 33 38 42 32 37 40 31 36 39 30 35 38 27 32 35 27 32 35 
18 18 18 18 18 18 21 21 21 21 21 21 14 22 1 15 23 0 18 23 3 16 24 3 19 24 4 18 23 3 20 23 6 20 24 7 21 25 8 23 25 11 24 25 11 23 25 11 24 26 12 23 26 9 23 24 10 21 24 7 21 24 7 17 22 0 17 22 0 27 32 28 38 42 54 35 41 53 34 39 61 35 40 60 39 44 63 39 44 63 21 27 41 21 24 39 31 35 47 35 39 51 43 45 57 50 53 62 49 52 61 48 51 60 47 50 59 47 50 59 48 51 60 48 51 60 49 52 61 48 51 60 48 51 60 47 50 59 47 50 59 48 51 60 48 51 60 48 51 60 48 51 60 47 50 59 48 51 60 48 51 60 47 50 59 46 49 58 47 50 59 48 51 60 47 51 60 49 52 61 48 50 62 42 45 60 39 45 61 35 40 62 35 40 59 35 40 62 36 41 61 36 39 56 38 40 55 19 25 41 14 20 36 18 21 38 16 22 38 16 22 38 16 21 40 18 21 40 16 22 38 18 21 38 5 19 2 5 20 0 2 19 1 2 19 1 14 24 16 24 25 27 21 25 26 20 24 27 21 25 26 21 26 29 23 28 31 27 32 35 27 32 36 30 34 37 30 35 38 28 33 36 28 33 37 28 33 37 25 30 33 26 31 34 24 29 32 23 28 31 
20 20 20 21 21 21 24 24 24 24 24 24 22 26 11 19 26 10 18 22 5 17 22 2 17 22 2 18 23 3 17 25 4 19 23 6 21 25 8 22 25 8 22 25 8 22 24 10 21 25 8 22 25 8 22 24 10 24 25 11 25 28 17 23 26 17 23 26 15 28 34 34 38 42 54 35 41 55 32 39 58 33 38 58 35 41 55 36 39 56 26 32 44 28 31 46 37 39 54 39 41 53 43 45 57 50 50 60 47 50 57 48 51 60 47 50 59 49 52 61 47 50 59 47 50 59 49 52 61 47 50 59 48 51 60 47 50 59 47 50 59 47 50 59 49 52 61 48 51 60 48 51 60 47 50 59 48 51 60 47 49 61 49 52 61 46 49 58 47 50 59 48 50 62 45 49 60 46 48 60 43 46 61 41 44 59 39 45 61 37 42 61 35 40 62 32 37 57 32 37 56 31 34 49 31 37 53 21 24 41 18 21 38 15 22 38 16 22 38 16 22 38 18 21 38 16 22 38 17 23 39 17 23 39 5 20 1 6 21 2 2 19 0 2 19 0 14 24 16 22 28 28 22 26 29 22 26 29 22 26 29 23 24 28 24 28 31 25 30 33 25 30 33 28 32 35 27 32 35 27 32 36 27 32 35 26 31 34 26 30 33 25 29 32 24 28 29 22 26 29 
27 27 27 28 28 28 30 30 30 31 31 31 38 38 40 37 39 36 16 23 7 14 21 3 14 22 1 12 21 0 16 21 1 17 22 2 16 21 1 18 23 3 18 23 3 19 22 3 20 23 4 22 22 10 21 23 9 33 35 34 36 39 44 36 39 54 36 41 61 36 43 62 38 43 62 37 40 57 28 31 46 28 31 46 25 31 45 27 30 45 47 50 59 50 53 62 48 51 60 47 50 59 50 50 60 49 49 59 47 50 59 48 51 60 47 50 59 48 51 60 48 51 60 47 50 59 47 50 59 48 51 60 48 51 60 49 52 61 48 51 60 47 50 59 48 51 60 48 51 60 47 50 59 48 51 60 47 50 59 48 51 60 47 50 59 48 51 60 47 50 59 46 50 61 38 45 61 35 40 60 36 41 61 35 40 60 36 41 61 37 43 59 36 42 58 21 24 41 22 25 42 19 22 39 18 21 38 14 21 37 16 22 36 17 19 32 16 20 31 17 21 33 16 22 38 18 21 38 15 21 37 16 22 38 6 21 2 6 20 3 4 21 2 4 21 2 16 26 18 23 28 31 24 29 32 23 27 30 23 27 28 22 26 29 22 26 27 22 26 29 23 27 28 21 26 29 22 26 29 23 27 30 23 27 30 22 26 27 22 26 29 22 26 29 23 27 28 23 27 30 
28 28 26 28 28 28 31 31 31 31 31 31 36 36 36 36 37 39 15 24 5 14 22 1 14 21 3 14 22 1 14 22 1 15 23 2 17 22 2 18 21 2 17 22 2 20 23 4 19 23 6 26 27 13 23 25 12 31 35 36 38 39 44 37 40 57 36 41 61 35 40 60 35 42 60 35 40 59 30 34 46 29 32 47 29 33 45 30 32 45 47 50 59 51 51 61 49 49 59 47 50 59 47 50 59 48 50 62 47 50 59 48 51 60 48 51 60 48 51 60 49 52 61 47 50 59 47 50 59 46 49 58 47 50 59 48 51 60 47 50 59 47 50 59 47 50 59 47 50 59 47 50 59 47 50 59 50 50 60 51 51 61 46 48 60 47 49 61 45 47 59 44 48 60 39 44 63 36 41 61 35 42 61 34 39 59 34 39 61 35 41 57 36 39 56 21 22 40 20 23 40 18 21 38 14 20 36 14 20 34 16 20 32 16 20 31 16 20 31 14 20 32 16 21 40 16 21 40 16 22 38 18 21 36 5 20 1 5 20 1 4 21 2 3 20 1 15 24 19 27 28 32 22 27 30 22 27 30 24 28 31 23 27 30 23 27 30 23 27 30 23 27 30 23 27 30 23 27 30 23 27 30 23 27 26 23 27 30 23 27 28 23 27 30 23 27 30 23 27 28 
37 37 35 35 35 35 30 30 30 31 31 31 27 25 26 26 26 26 15 22 6 14 22 1 13 20 2 12 21 0 13 20 2 12 21 2 13 22 1 14 21 3 15 22 6 20 26 12 22 26 12 37 42 64 39 44 63 36 41 61 36 41 61 36 41 61 36 41 60 32 35 54 23 28 47 30 33 48 50 50 58 49 52 61 47 50 59 47 50 59 48 51 60 47 50 59 49 49 59 50 50 60 47 50 57 49 52 61 50 53 62 47 50 59 48 51 60 48 51 60 48 51 60 48 51 60 48 51 60 48 51 60 48 51 60 47 50 59 48 51 60 47 50 59 48 51 60 49 52 61 48 51 60 48 51 60 48 51 60 48 51 60 36 42 58 36 41 61 36 41 60 36 41 60 36 41 61 35 42 61 33 36 55 29 33 45 25 28 43 16 19 38 16 21 40 15 20 39 15 21 37 13 19 31 14 18 30 7 8 13 5 6 10 12 15 24 15 19 30 15 19 31 14 17 34 13 18 37 18 21 40 18 21 38 4 18 1 2 19 0 2 19 0 2 19 0 16 25 20 25 29 32 23 28 31 22 26 29 23 27 30 24 28 31 27 28 32 24 29 32 24 28 31 24 28 31 24 28 31 26 30 31 27 31 34 25 29 30 22 27 30 23 28 31 25 29 32 25 29 30 
38 38 38 36 36 36 31 31 31 31 31 31 25 25 25 26 26 26 16 23 7 13 22 1 13 22 3 12 21 0 13 22 3 12 21 0 12 21 0 13 22 1 13 22 1 22 26 12 22 26 12 34 43 60 35 42 60 35 40 60 35 40 59 35 40 60 36 41 61 30 35 54 23 28 47 29 35 49 50 50 58 48 51 58 47 50 59 47 49 61 48 51 60 49 52 61 47 50 59 50 50 60 50 50 60 49 49 59 47 50 59 48 51 60 48 51 60 48 51 60 48 51 60 47 50 59 48 51 60 47 50 59 47 50 59 47 50 59 48 51 60 47 50 59 47 50 59 47 50 59 48 51 60 47 50 59 51 51 61 48 51 60 36 43 61 36 41 60 36 41 61 35 42 61 36 41 61 36 43 61 33 36 53 25 32 42 23 29 43 16 22 38 15 20 39 15 21 37 17 20 37 14 18 30 14 16 29 6 9 14 2 6 7 11 14 21 15 19 30 12 18 30 12 18 34 14 17 34 16 22 38 16 22 38 4 18 1 4 18 1 2 19 0 4 19 0 16 25 20 24 29 32 24 28 31 23 27 30 23 27 30 24 29 32 24 29 32 23 28 31 22 27 30 23 28 31 24 28 31 26 30 33 29 30 34 25 29 32 23 27 30 23 28 31 24 29 32 24 29 32 
26 26 26 27 25 28 26 28 27 26 26 26 26 26 26 25 25 27 18 22 5 15 22 4 20 24 7 22 26 11 18 25 7 14 22 1 13 21 0 12 21 2 12 21 4 15 22 14 15 22 15 24 30 46 23 30 46 33 39 55 37 42 61 36 41 60 35 40 60 35 40 60 36 41 61 36 41 61 35 40 60 37 42 62 46 48 60 46 49 58 47 50 59 47 50 59 48 51 60 47 52 58 47 50 59 47 50 59 47 49 61 47 50 59 48 48 56 47 50 59 47 49 61 48 51 60 47 50 59 48 51 60 48 51 60 48 51 60 47 50 59 47 50 59 49 49 59 47 50 59 47 50 59 47 50 59 48 51 60 48 51 60 28 31 48 29 32 49 27 32 51 28 33 52 33 38 57 36 43 62 39 42 61 39 44 63 36 41 60 30 33 48 27 30 47 15 21 37 14 19 38 15 19 31 14 18 30 7 11 14 5 6 10 11 15 24 17 19 31 16 19 34 15 18 37 15 18 33 18 21 38 16 22 38 8 21 1 7 20 0 12 32 5 15 34 4 20 30 21 25 29 32 25 29 32 25 29 30 24 29 32 24 29 32 25 29 32 26 30 33 25 31 31 29 37 40 28 38 40 29 34 37 28 32 35 31 35 36 32 36 39 26 31 34 21 26 29 22 27 30 
26 26 26 27 27 27 27 27 27 26 26 26 25 25 27 25 27 26 18 22 7 16 21 1 21 25 8 23 27 12 19 24 4 14 22 1 10 22 0 9 21 1 11 23 3 16 23 15 16 23 15 24 29 48 24 30 46 34 40 56 37 40 57 37 42 61 35 40 60 35 40 60 36 41 61 35 40 60 36 41 61 36 42 58 46 49 58 47 49 61 48 51 58 46 49 58 49 49 59 48 51 60 47 50 59 46 50 59 48 51 60 50 50 60 49 49 57 47 50 59 47 50 59 47 50 57 47 50 59 47 50 59 47 50 59 47 50 59 47 50 59 49 49 59 48 51 60 48 51 60 48 51 60 48 51 60 50 50 60 47 49 61 30 33 50 29 30 48 28 33 52 28 33 52 33 38 57 37 42 62 37 42 62 38 43 62 35 41 57 28 31 46 28 31 46 15 21 37 14 19 38 16 18 31 15 17 30 8 9 14 5 6 8 10 14 23 15 19 30 14 20 32 13 18 37 14 20 36 16 22 38 19 22 41 8 21 1 9 22 4 12 32 4 14 34 6 20 32 22 24 29 32 25 29 32 25 30 33 23 28 31 25 29 32 24 28 31 26 30 31 27 30 35 31 36 39 31 36 39 29 34 38 28 33 37 30 35 38 31 35 38 27 31 34 22 26 29 22 25 30 
26 26 28 25 25 27 21 21 21 21 21 21 26 26 28 24 25 27 30 33 40 32 36 45 34 38 49 32 39 49 32 37 43 32 37 41 25 31 29 17 22 2 15 22 4 17 24 16 17 25 14 24 30 46 24 30 46 26 31 50 28 29 49 30 33 52 29 35 49 34 39 58 37 42 61 37 42 61 35 40 60 36 41 61 39 42 61 37 42 61 40 46 60 41 44 59 47 50 59 48 51 60 48 51 60 48 51 60 48 51 60 49 49 59 46 49 58 47 50 59 47 50 59 48 51 60 48 51 60 49 49 59 47 50 59 47 50 59 48 51 60 47 50 59 49 49 59 47 50 59 47 50 59 47 50 59 47 50 59 48 51 60 44 46 58 43 45 57 42 46 58 40 44 56 32 38 54 26 31 50 29 36 55 33 38 57 33 38 57 33 40 58 34 39 58 32 37 57 35 38 57 24 26 39 21 25 37 10 11 15 5 6 10 12 17 23 15 21 33 17 21 33 18 21 38 16 19 38 18 21 40 18 21 40 13 27 4 13 25 5 21 34 8 23 36 10 23 30 22 23 28 31 20 28 30 25 29 32 25 29 32 24 29 32 24 29 33 25 30 33 25 31 31 29 18 14 29 20 15 28 17 11 30 17 9 28 28 26 28 33 36 26 32 32 23 29 29 23 28 31 
26 26 26 24 24 26 19 19 19 20 20 22 26 25 30 25 26 28 36 39 56 36 41 60 35 42 60 37 42 62 36 42 58 35 41 55 29 34 37 18 23 3 17 21 4 18 23 16 18 24 14 26 29 48 24 29 48 23 29 45 25 28 47 26 32 48 27 33 49 32 38 54 37 42 61 37 42 61 35 40 60 35 40 62 34 41 60 36 43 62 37 42 61 39 42 61 45 49 60 48 51 60 47 50 59 50 50 60 47 50 59 48 51 60 47 49 61 48 50 62 46 49 58 48 51 60 48 51 60 49 49 59 47 50 59 47 50 59 48 51 60 49 49 59 48 51 60 47 50 59 46 49 58 47 50 59 48 51 60 48 51 60 50 50 60 47 50 57 47 50 59 45 48 57 33 36 51 24 29 49 26 33 52 32 37 57 31 36 56 35 40 62 36 41 61 37 42 61 38 43 62 25 29 41 25 27 39 10 11 16 6 7 11 13 16 23 17 21 32 17 21 33 17 20 35 18 21 40 18 21 38 18 20 41 15 27 3 15 27 3 25 33 9 24 33 12 24 29 22 22 27 30 24 28 31 25 28 33 25 30 33 24 30 30 24 28 31 26 30 33 25 30 33 26 13 5 27 12 7 30 11 4 29 12 2 31 25 25 28 33 37 25 30 33 25 29 32 23 28 31 
28 28 28 27 31 34 30 32 44 30 34 45 32 34 49 31 35 47 34 40 56 34 40 54 28 34 50 27 30 49 27 33 47 30 36 50 31 35 46 28 33 37 30 35 41 28 33 37 28 33 36 23 28 47 23 28 47 22 27 46 20 25 45 24 29 48 24 29 48 28 33 52 29 35 51 30 35 54 32 38 54 33 39 55 36 41 61 37 42 61 37 42 61 37 42 62 38 43 62 40 43 60 43 46 61 43 47 59 46 48 60 48 51 60 48 51 60 48 50 62 46 49 58 48 51 60 47 50 59 49 49 59 47 50 59 48 51 60 48 51 60 47 50 59 49 49 59 47 50 59 48 51 60 48 51 60 50 50 60 48 51 60 51 49 60 48 51 60 46 49 58 46 49 58 42 44 57 40 42 55 38 41 56 38 41 56 35 38 55 28 33 53 28 33 53 36 41 60 35 40 60 31 36 55 32 35 54 28 31 46 26 30 42 24 28 40 19 25 39 17 23 37 15 21 37 15 21 37 15 21 37 15 20 39 18 31 5 17 31 5 33 41 20 34 42 21 30 36 26 27 31 30 26 30 29 26 30 31 25 29 30 25 29 32 24 29 32 27 31 32 25 30 33 28 15 7 27 14 6 27 14 5 31 14 6 30 26 25 27 32 35 26 31 34 25 29 32 25 29 30 
29 29 29 31 32 36 39 42 57 39 42 57 35 42 61 37 39 62 34 40 56 35 38 53 27 30 47 17 20 37 21 28 44 29 32 49 29 36 52 37 42 61 36 41 60 35 39 48 35 39 48 24 29 48 24 29 48 23 26 45 20 25 44 22 27 46 24 29 48 23 28 47 23 28 47 25 31 47 32 38 54 33 39 55 37 42 64 36 41 60 35 42 61 36 41 60 35 40 60 35 40 60 38 43 62 41 47 61 44 46 59 47 50 57 48 51 60 50 50 60 47 49 61 48 51 58 47 50 59 48 51 60 46 49 58 47 50 59 46 49 58 49 49 59 48 51 60 47 50 59 47 50 59 47 50 59 49 49 59 48 51 60 47 50 59 47 50 59 47 50 59 48 51 58 48 51 60 48 51 60 44 46 58 40 44 55 36 40 52 23 28 47 22 29 48 35 40 59 35 40 60 33 40 58 34 39 59 37 42 61 38 43 62 30 33 50 20 26 42 21 24 43 17 20 37 17 20 37 14 19 38 15 21 37 18 32 6 17 32 1 37 45 24 42 47 27 34 40 30 30 35 29 26 32 32 24 29 32 24 29 32 24 29 32 24 29 32 26 30 33 26 31 34 29 14 7 29 16 8 30 16 7 30 13 5 29 25 24 28 33 36 26 31 34 25 29 30 24 29 32 
29 32 41 32 35 42 38 44 60 39 42 61 28 33 53 28 33 53 35 38 53 36 40 52 32 34 47 28 32 44 32 36 48 36 38 51 36 39 54 35 38 57 35 38 55 33 37 49 32 39 49 29 34 53 30 35 54 26 29 46 25 28 45 23 28 47 22 27 46 24 29 48 24 29 48 25 30 49 29 35 49 30 36 52 33 36 55 33 36 55 35 40 59 37 40 57 35 40 60 34 41 60 36 41 60 41 42 60 42 45 60 43 47 59 45 47 60 47 49 61 47 49 61 48 51 60 47 50 59 47 50 59 47 50 59 48 51 60 47 50 59 48 51 60 49 49 59 47 50 59 47 50 59 47 50 59 47 49 61 47 50 59 47 50 59 47 49 61 46 50 61 47 50 59 47 50 59 48 51 58 45 47 59 43 47 58 40 44 55 33 37 49 33 36 51 34 40 56 33 39 55 32 37 56 31 36 56 36 41 60 38 43 63 33 36 55 26 31 50 25 31 47 26 29 46 23 26 43 18 21 38 15 21 35 19 32 6 18 31 5 32 42 18 34 42 19 29 38 21 23 33 22 25 32 24 25 31 31 24 30 30 26 27 31 24 29 32 23 31 33 26 30 33 29 16 8 29 16 8 32 15 7 31 14 6 30 26 25 26 34 36 25 30 33 24 30 30 24 29 32 
34 41 60 35 40 59 37 43 59 39 42 59 16 22 38 19 22 39 34 38 50 36 39 54 46 46 58 50 50 60 49 52 61 47 50 59 39 43 54 26 32 48 27 33 49 31 37 53 31 37 53 40 43 62 38 43 62 32 35 52 31 32 50 27 30 49 22 27 46 24 29 48 24 29 48 24 29 48 24 29 48 24 29 48 23 28 47 26 29 46 36 39 56 38 41 58 35 40 59 35 40 60 35 40 60 37 42 62 34 41 60 36 41 61 39 42 61 44 48 59 45 47 59 47 49 61 47 50 59 48 51 58 48 51 60 48 51 60 47 50 59 49 49 59 47 50 59 48 51 60 47 50 59 48 51 60 47 50 59 46 49 58 47 50 59 48 51 60 46 49 58 47 50 59 50 50 60 49 52 61 48 51 60 47 50 59 48 51 60 48 51 60 47 50 59 34 37 52 34 37 52 28 29 49 25 30 50 33 38 57 36 41 61 35 40 60 34 41 60 36 41 60 39 42 59 33 38 57 22 25 42 21 24 39 14 26 2 14 28 3 24 34 10 25 35 10 19 31 7 17 29 7 23 29 17 26 31 27 24 30 28 21 24 29 21 24 29 25 30 33 26 30 33 28 15 6 30 15 8 34 16 6 34 16 4 30 26 23 27 32 35 24 29 32 24 28 31 24 28 31 
31 38 54 33 38 57 36 42 58 37 40 57 25 28 43 26 29 44 38 42 54 39 41 54 44 46 58 47 49 61 50 50 60 49 49 59 43 45 57 32 35 50 34 37 52 36 39 54 37 39 54 34 39 58 36 39 58 31 37 53 33 36 53 31 34 51 26 31 50 28 31 48 27 30 47 25 30 49 26 29 48 25 31 47 24 29 48 23 28 47 31 37 53 32 38 54 32 39 57 33 39 55 35 40 59 37 42 61 36 41 60 35 40 60 37 42 61 43 47 59 42 45 60 45 49 61 46 48 60 45 48 57 49 49 59 48 51 60 47 49 61 47 50 59 46 49 58 47 50 59 46 50 59 47 50 57 48 51 60 47 50 57 48 51 60 48 51 60 47 50 59 49 52 61 48 51 60 48 51 60 46 49 58 49 49 59 48 51 60 48 51 58 46 49 58 37 41 52 39 38 52 32 35 52 29 35 51 33 38 57 33 38 58 34 39 58 34 39 59 35 40 59 37 43 59 33 38 57 23 29 45 23 29 45 19 30 13 19 30 16 22 34 12 22 34 10 19 31 7 18 30 6 18 29 13 20 27 19 20 27 20 17 26 21 18 27 22 22 31 28 23 32 29 26 20 8 25 18 10 27 17 5 25 15 3 24 26 23 24 32 34 20 29 28 16 27 23 19 25 23 
23 26 41 23 29 43 27 31 43 28 32 44 47 51 60 48 52 61 47 50 59 47 50 59 46 49 58 48 51 60 48 51 60 47 50 59 49 49 59 47 50 59 49 47 60 46 48 60 44 46 58 23 28 47 23 30 48 32 38 54 35 41 57 36 41 60 37 42 61 35 38 55 30 33 50 26 32 48 27 30 49 23 28 47 22 27 46 22 27 46 24 29 48 24 29 48 25 31 47 25 31 47 32 38 54 38 44 60 37 42 61 34 39 59 35 42 61 34 41 60 34 39 59 36 41 60 36 41 60 46 48 60 49 49 61 47 50 59 48 50 62 47 50 59 48 51 60 47 50 57 47 50 59 47 51 62 47 50 59 46 49 58 46 49 58 47 50 59 46 49 58 47 50 57 47 50 59 49 49 59 48 51 60 47 52 58 47 50 59 47 50 59 47 50 59 46 50 59 49 49 59 50 50 60 51 51 59 33 36 51 26 32 48 27 32 51 30 32 53 31 36 55 36 41 61 34 41 60 34 40 62 35 42 61 37 41 53 37 41 52 21 35 12 20 34 8 20 33 7 17 30 4 10 23 3 3 17 0 5 19 2 8 26 2 10 28 6 18 32 17 16 33 17 9 28 6 8 27 5 4 21 3 2 16 1 10 23 14 16 27 21 9 22 12 1 18 0 1 18 0 
26 29 44 28 31 46 30 33 48 29 32 47 48 51 60 48 51 60 46 49 58 46 49 58 47 50 59 47 50 59 46 49 58 47 50 59 48 51 60 47 50 59 50 50 60 44 48 57 44 48 57 28 31 48 28 31 48 35 38 57 35 41 57 36 41 60 36 41 60 34 37 54 29 35 51 27 33 49 26 31 50 25 30 49 23 28 47 22 27 46 24 29 48 23 30 48 25 30 49 26 32 48 31 37 53 35 41 57 35 40 59 34 39 61 35 40 59 35 42 61 36 41 61 36 41 60 36 41 61 44 48 59 45 47 59 47 49 61 48 48 58 46 49 58 47 50 59 47 50 59 47 50 57 47 50 59 50 50 58 49 49 59 47 50 59 48 51 60 48 51 58 47 50 59 49 52 59 47 50 57 47 50 59 48 51 60 50 50 60 46 49 58 47 50 59 47 50 59 48 51 60 50 50 60 50 50 58 36 39 54 29 35 51 29 34 53 29 35 51 32 35 54 35 40 60 35 40 60 34 41 59 37 42 62 33 39 51 35 38 53 22 34 14 18 32 6 17 30 4 19 31 7 8 23 2 1 18 0 3 20 2 7 27 2 8 25 6 17 31 16 17 31 14 8 27 5 9 28 6 3 20 2 0 19 0 11 23 13 13 26 17 8 21 11 1 18 2 1 18 0 
49 49 59 50 50 60 47 50 59 47 50 59 46 49 58 46 49 58 46 49 58 48 51 60 46 49 58 47 50 59 46 49 58 47 50 59 47 50 59 46 49 58 46 49 58 47 50 59 48 51 60 47 50 59 49 49 59 41 43 55 41 45 57 27 35 48 24 29 48 31 36 55 36 41 60 37 42 61 39 42 59 35 40 59 25 31 47 24 30 46 23 28 47 24 29 48 24 29 48 26 29 48 24 29 48 23 28 47 25 31 47 32 35 52 33 36 53 36 43 61 37 42 61 35 42 60 35 40 62 35 41 63 34 39 59 37 42 61 40 43 60 44 48 60 50 50 58 50 50 60 48 51 60 47 50 59 48 51 56 46 49 56 46 49 58 46 49 58 48 51 60 47 50 59 47 50 59 47 50 59 47 50 59 47 50 59 48 51 60 47 50 59 48 51 58 47 50 59 47 50 59 47 50 57 47 50 57 45 47 60 44 48 60 40 43 62 37 42 62 34 41 60 34 39 61 35 42 60 42 45 60 38 43 62 21 24 41 21 23 44 10 22 8 8 21 4 7 22 1 4 18 1 4 18 1 1 18 2 2 19 0 2 21 2 4 23 4 8 32 6 7 31 5 6 25 5 4 26 5 3 20 2 0 19 0 1 18 0 2 19 1 0 19 0 1 18 2 0 19 0 
48 51 60 50 50 60 46 49 58 47 50 59 47 50 59 48 51 60 46 49 58 47 50 59 47 50 59 46 49 58 48 51 60 48 51 60 47 50 59 45 48 57 48 48 56 48 51 60 47 50 59 51 49 60 50 50 60 42 44 56 38 42 53 31 34 49 24 29 48 30 35 54 36 41 60 39 42 61 36 42 58 38 41 58 25 31 47 25 31 47 24 29 48 24 29 49 26 29 48 27 30 49 23 28 47 24 29 48 27 30 49 32 35 50 31 37 53 37 42 61 37 42 61 35 40 60 35 40 60 33 40 59 35 40 60 37 42 61 39 42 59 43 47 59 50 50 60 50 50 60 47 50 59 47 50 59 47 50 59 47 50 59 48 50 62 47 50 59 46 49 58 48 51 60 47 50 59 47 50 59 48 51 60 47 50 59 47 50 59 46 49 58 48 51 60 49 49 59 51 49 60 50 50 58 47 50 59 46 48 60 44 46 59 40 43 60 36 41 61 35 40 60 34 39 59 35 42 60 40 43 60 40 43 60 19 25 41 21 24 43 9 22 5 7 20 3 7 20 3 4 18 1 2 19 1 1 18 2 3 20 2 3 20 2 2 21 1 8 32 6 8 32 6 7 26 4 7 26 4 4 18 1 0 16 0 1 18 0 1 18 0 0 17 0 0 19 0 0 17 0 
51 51 61 46 49 58 49 49 59 47 50 57 48 51 60 47 50 59 48 51 60 47 50 59 47 50 59 48 51 60 46 49 58 46 49 58 46 48 60 47 50 59 49 49 59 47 50 57 45 48 57 48 48 58 47 49 61 46 48 60 46 49 58 47 51 60 47 50 59 38 44 58 33 38 58 33 38 58 34 39 59 35 40 60 36 41 60 36 41 60 26 32 48 25 31 47 24 29 48 24 29 48 24 29 48 23 28 47 27 30 49 26 32 48 27 30 47 25 31 47 26 29 46 36 39 56 36 37 55 35 40 60 36 41 61 36 41 61 36 41 60 35 42 60 36 41 60 38 41 58 44 48 60 44 48 60 50 50 58 49 49 59 49 49 59 47 50 59 47 50 59 46 49 58 47 49 61 46 49 58 48 51 60 48 51 60 47 50 59 50 50 62 47 50 59 46 48 60 47 49 62 41 42 60 36 41 60 38 41 60 36 41 61 39 42 61 38 43 62 34 39 58 29 32 49 25 30 49 20 23 42 17 23 39 17 18 38 17 20 39 4 20 7 4 21 3 6 20 3 6 20 3 4 18 3 1 18 2 0 19 0 1 18 0 2 19 1 3 20 2 2 19 3 2 19 1 1 20 1 2 19 1 0 17 0 1 18 2 1 18 0 1 18 2 0 18 2 0 18 2 
48 48 58 47 50 59 46 49 58 47 49 61 46 49 58 47 50 59 46 49 58 46 49 58 47 50 59 48 51 60 47 50 59 47 50 59 46 49 58 50 50 58 50 50 60 46 49 58 47 50 59 46 49 58 46 49 58 46 48 60 47 50 59 48 51 60 50 53 62 42 45 60 32 39 58 33 38 60 35 40 60 36 41 61 38 43 62 38 43 62 28 31 48 28 31 46 26 29 48 24 29 48 24 29 48 24 29 48 24 29 48 25 30 49 26 29 46 24 27 46 22 29 48 35 38 53 35 38 53 36 41 60 36 41 61 36 41 61 34 39 59 34 41 60 34 41 60 40 43 60 44 48 60 44 48 60 47 50 59 47 50 59 45 48 57 46 49 58 47 49 61 47 50 59 47 50 59 47 50 59 50 50 60 48 48 60 49 49 59 49 49 59 47 51 60 45 48 57 46 49 58 37 42 61 36 41 61 34 41 60 35 40 59 37 42 61 39 44 63 33 39 55 28 31 48 24 30 44 16 22 38 17 20 37 14 17 36 15 18 37 6 20 7 5 19 2 6 20 3 6 21 2 2 19 1 0 17 1 0 19 0 1 18 2 1 18 0 1 18 0 0 18 2 0 17 0 1 18 0 1 18 0 0 17 0 0 19 0 1 20 0 1 18 0 1 17 4 1 18 0 
47 50 59 47 50 59 50 50 58 47 50 57 46 49 58 47 50 59 48 51 60 48 51 60 47 50 59 47 50 59 47 50 59 47 50 59 47 50 59 47 50 59 46 49 58 48 48 58 45 48 57 47 50 59 48 51 60 44 48 60 44 46 59 40 43 62 40 43 62 37 42 61 34 41 59 35 40 60 35 38 55 33 36 53 21 27 43 21 27 43 24 27 46 25 28 47 23 29 45 23 29 45 24 29 48 25 31 47 24 29 48 23 28 47 23 28 47 23 29 45 23 28 48 26 31 50 27 32 51 27 32 51 27 32 51 34 37 56 38 41 60 38 41 60 35 40 62 35 40 60 36 41 60 36 41 60 38 44 60 39 45 59 46 50 61 45 48 57 46 49 58 47 50 59 47 50 57 47 50 59 47 50 59 50 50 58 47 51 62 40 46 62 40 46 60 39 42 61 39 42 61 35 40 60 36 41 61 33 39 55 33 39 55 29 30 48 22 25 42 19 25 41 21 24 41 18 24 40 18 21 40 16 21 40 17 20 37 17 20 39 6 20 7 3 17 2 3 17 0 3 20 2 2 19 1 2 19 1 0 17 0 1 18 0 1 18 0 1 18 2 0 18 2 1 18 0 1 18 0 0 18 2 0 18 2 0 17 1 1 18 2 0 17 1 1 18 0 2 19 3 
48 51 60 47 50 59 47 50 59 47 50 59 48 50 62 47 50 59 47 50 59 46 49 58 47 50 59 46 50 59 48 51 60 48 48 58 48 51 60 47 50 59 48 51 60 47 50 59 49 49 59 47 50 59 49 49 57 43 47 59 42 46 58 37 42 61 34 41 60 36 41 61 35 42 60 35 40 59 34 37 52 30 36 50 15 20 39 15 21 37 20 25 44 22 27 46 22 28 44 22 28 44 23 29 45 26 29 48 27 30 49 24 29 48 25 30 49 26 29 46 25 30 49 24 29 48 24 29 48 24 30 46 25 31 47 34 37 54 38 41 60 35 40 59 35 40 60 35 42 61 35 42 61 34 39 59 34 41 60 35 42 61 46 48 60 46 48 60 47 50 59 48 51 60 47 50 59 48 51 58 48 51 60 51 51 59 47 50 59 42 43 61 38 43 62 34 39 59 32 41 58 34 41 57 37 42 61 33 39 53 35 38 53 21 27 43 17 20 37 15 21 37 15 21 37 17 23 39 17 22 41 19 22 41 16 22 38 15 20 39 3 19 8 2 19 3 2 19 3 4 19 0 2 19 1 1 18 0 2 19 1 1 18 0 1 18 2 0 19 0 0 18 2 1 18 0 0 17 0 0 17 0 0 18 2 0 19 2 0 19 0 0 19 0 2 16 0 0 17 1 
46 49 58 47 50 59 47 50 59 48 51 60 45 48 55 47 50 57 46 49 58 46 49 58 46 49 58 47 50 59 46 49 58 47 50 57 48 51 58 47 50 59 49 49 59 45 49 58 46 48 60 42 45 60 42 45 60 40 43 58 36 41 60 36 41 60 35 40 59 31 36 55 26 31 50 26 32 48 25 31 47 22 28 44 15 21 37 15 21 37 23 26 45 22 27 46 19 25 37 19 23 35 15 21 33 17 21 32 20 23 38 24 29 48 24 29 48 27 30 47 24 29 48 25 30 49 22 27 46 25 30 49 25 27 48 29 32 51 31 34 53 31 36 56 33 36 53 32 37 57 36 41 60 36 41 61 34 39 59 35 40 60 42 45 60 41 44 59 42 45 60 44 46 59 45 47 59 46 48 60 43 47 59 41 44 59 41 44 59 37 42 62 39 42 61 37 42 61 38 41 60 28 33 52 26 31 50 25 31 47 25 31 47 19 25 41 15 21 37 17 20 37 17 20 35 14 18 30 11 15 24 11 13 25 18 21 38 16 22 38 3 19 9 2 18 5 1 18 0 1 18 0 1 18 0 0 17 1 2 19 3 2 19 1 1 18 2 0 18 2 0 19 0 0 17 1 1 18 2 1 18 0 1 18 0 0 18 2 0 19 0 0 19 0 1 18 0 1 18 2 
47 50 59 47 50 59 47 50 59 46 49 58 46 49 58 46 49 58 47 50 59 48 48 58 47 50 59 46 49 58 50 50 60 49 49 59 47 50 59 50 50 60 49 49 59 45 47 59 44 46 59 36 41 63 34 41 60 33 40 59 36 41 61 36 41 60 38 41 60 29 32 49 19 22 41 18 21 38 16 22 38 16 22 38 16 21 40 20 21 39 22 25 44 23 26 45 15 19 30 13 17 26 10 13 20 8 11 16 14 18 29 23 28 47 24 29 48 24 30 46 24 29 48 24 29 48 24 29 48 24 29 48 25 28 47 24 30 46 23 28 47 26 32 48 30 33 50 31 37 51 36 41 61 37 42 62 36 41 61 36 41 61 34 39 58 35 40 60 36 41 60 38 44 60 42 45 60 42 46 58 40 43 60 35 40 60 35 40 59 35 40 60 35 40 60 36 43 59 41 44 61 20 26 42 19 22 39 18 21 38 14 21 37 18 21 38 15 21 37 17 20 37 14 17 32 12 15 24 4 8 11 4 8 11 19 22 37 18 20 41 3 19 6 2 18 5 1 18 2 1 18 0 2 19 1 0 18 2 2 19 1 3 17 0 0 19 0 0 16 0 1 18 0 1 18 0 1 18 0 1 18 0 0 18 2 1 18 0 0 17 1 1 18 0 0 17 1 1 18 0 
48 51 60 47 50 59 46 49 58 47 50 59 47 50 59 45 48 57 49 49 59 48 48 58 47 50 59 47 50 59 48 51 60 46 49 58 46 48 60 43 47 59 43 45 58 42 45 60 43 46 61 35 40 59 36 41 60 31 36 56 31 36 55 29 35 51 27 33 49 23 29 45 19 22 39 19 22 37 16 22 38 16 22 38 17 23 39 18 21 36 20 25 44 21 26 45 14 18 29 14 18 27 11 14 19 8 12 15 14 17 26 24 29 48 24 29 48 24 30 46 24 29 48 25 30 49 24 29 48 24 30 46 26 29 48 24 29 48 24 29 48 25 30 49 29 32 49 29 35 51 32 37 56 32 37 56 35 41 57 34 40 56 35 42 61 36 41 61 36 41 60 36 41 60 40 43 60 41 44 59 38 43 62 35 42 61 35 40 60 31 36 55 29 36 54 31 34 51 29 35 51 19 25 41 16 22 38 18 21 38 18 21 38 18 19 37 16 22 38 17 20 35 12 16 27 11 14 21 5 6 10 6 7 11 18 21 38 18 21 38 3 19 6 2 19 3 0 17 1 1 18 0 1 18 0 1 18 2 1 18 0 1 18 0 1 18 0 0 19 0 0 19 0 0 17 0 1 18 0 2 21 1 1 20 0 0 21 2 0 21 2 1 23 2 1 23 2 0 21 2 
47 50 59 47 50 59 46 49 58 46 49 58 48 48 58 46 49 58 46 49 58 50 50 60 48 48 60 47 50 59 50 50 60 46 49 58 42 46 57 36 41 60 34 41 59 36 38 59 35 40 60 37 42 61 39 42 61 26 32 48 25 28 43 19 22 39 14 20 36 16 21 40 17 22 41 16 22 38 18 21 36 19 22 39 17 22 41 18 21 38 21 26 45 24 27 46 16 20 31 11 18 26 9 12 17 5 9 12 13 16 25 25 30 49 23 28 47 24 30 46 23 28 47 24 29 48 23 28 47 24 30 46 26 29 48 24 29 48 24 29 48 26 29 48 26 29 48 24 29 48 23 28 47 24 29 48 31 37 51 34 37 52 36 41 60 36 41 61 34 39 58 36 41 60 35 40 60 34 41 57 36 41 60 37 42 61 34 40 56 26 29 44 25 28 43 17 20 37 15 21 37 19 22 41 16 22 38 15 21 37 15 21 37 18 21 38 16 22 38 14 18 30 8 11 18 7 10 15 6 7 12 6 7 12 18 21 38 15 21 37 3 19 8 1 18 2 1 18 2 1 18 0 0 19 0 1 18 0 1 18 0 0 17 0 2 19 1 0 19 0 2 19 1 0 17 0 0 17 0 4 23 3 3 28 6 3 29 2 3 32 4 3 32 4 3 32 4 2 31 3 
46 49 58 47 50 59 48 51 60 47 50 59 44 48 57 46 49 58 49 49 59 49 49 59 47 49 62 46 48 60 45 48 57 45 47 59 43 46 61 36 41 61 36 41 61 34 39 59 36 38 59 35 40 59 34 39 58 28 31 48 24 27 42 17 23 39 14 20 34 14 20 36 16 22 36 16 22 38 18 21 38 15 21 37 17 20 39 17 20 37 21 24 43 23 26 45 15 19 30 13 17 26 9 12 19 7 8 13 13 16 25 25 30 49 24 29 48 24 29 48 23 28 47 23 28 47 24 29 48 23 28 47 23 28 47 24 29 48 25 30 49 26 29 48 24 29 48 23 28 47 23 28 47 25 30 49 33 36 51 32 35 50 35 40 59 35 40 59 35 40 59 35 40 59 34 39 58 34 39 59 34 41 60 34 39 58 34 37 56 24 27 44 23 26 41 18 21 38 16 21 40 18 21 40 18 21 38 16 21 40 15 21 37 16 22 38 15 21 37 15 19 31 9 12 19 9 10 15 6 7 11 6 7 11 18 21 38 16 22 38 2 18 7 1 18 2 1 18 2 1 18 0 2 19 3 2 19 1 1 18 0 5 19 2 2 21 2 2 21 2 1 20 1 2 19 1 0 19 0 1 25 3 2 27 5 1 29 4 5 31 4 4 30 3 2 31 3 2 30 5 
47 50 59 48 51 60 48 51 60 48 51 60 46 49 58 46 49 58 46 50 59 47 50 59 42 45 60 38 44 60 36 41 60 34 39 59 34 41 60 34 39 59 34 39 58 32 35 50 34 36 51 17 20 35 14 20 36 18 21 40 19 22 39 14 16 28 12 15 22 9 12 19 9 8 13 11 11 19 18 21 38 17 20 37 13 16 33 14 17 34 20 25 44 23 26 45 17 20 29 13 17 26 9 12 17 2 7 10 14 17 26 25 30 49 25 30 49 24 29 48 24 29 48 27 30 49 24 29 48 26 29 48 23 28 47 24 29 48 24 29 48 26 29 48 24 29 48 26 29 48 24 29 49 23 28 48 24 29 48 25 30 49 23 28 47 23 28 47 34 37 54 37 40 55 34 37 52 33 36 51 22 28 44 13 19 35 14 19 38 18 21 38 17 20 37 15 21 37 15 20 39 15 20 39 18 21 38 15 20 39 16 22 38 17 23 39 16 22 38 14 18 30 8 11 18 7 10 15 5 7 6 4 5 9 18 21 40 18 21 38 2 18 7 1 18 2 1 18 0 1 18 2 0 19 0 1 20 1 3 22 3 2 26 4 0 25 3 2 26 2 3 29 4 2 30 5 3 31 6 2 30 5 2 30 5 2 30 5 2 30 5 3 32 4 1 30 2 2 30 5 
47 50 59 47 50 59 47 50 59 47 50 59 46 49 58 47 50 59 48 51 60 49 52 59 43 46 61 39 45 61 35 42 60 34 41 60 35 40 60 35 42 61 35 40 59 34 37 54 34 37 52 15 21 37 16 19 36 17 20 37 16 21 40 13 17 29 13 16 25 8 12 15 5 9 12 9 12 17 15 21 37 14 19 38 12 15 32 14 17 34 22 25 42 22 27 46 15 19 30 12 16 25 9 12 17 5 5 13 14 17 24 25 30 49 25 30 49 24 29 48 24 29 48 26 29 48 24 30 46 26 29 46 24 29 48 24 29 48 24 29 49 27 28 48 24 30 46 26 29 48 24 29 48 23 28 47 24 30 46 24 29 48 24 29 48 23 28 47 35 38 55 38 41 58 34 37 54 33 36 53 25 28 45 12 18 34 13 19 35 18 21 38 18 21 38 15 21 37 18 21 38 16 22 38 15 22 40 16 23 41 17 23 39 17 20 37 15 21 37 14 18 30 9 12 19 7 10 15 5 6 10 5 6 10 20 21 39 18 21 40 3 19 6 1 18 2 1 18 2 0 19 0 0 19 0 2 19 0 0 21 2 3 27 5 3 27 3 3 27 3 2 27 5 2 32 4 3 32 4 2 30 5 4 30 5 3 31 6 2 30 5 2 31 3 2 30 5 2 30 5 
47 50 59 46 49 58 47 50 59 47 50 59 46 49 58 46 49 58 37 41 52 35 39 51 31 37 53 29 34 54 33 38 57 35 40 59 36 41 60 38 41 60 34 40 56 25 29 41 25 28 43 13 18 37 13 19 35 14 20 36 16 22 38 10 13 22 7 8 10 8 9 13 8 9 13 9 12 19 15 21 35 16 22 38 15 21 37 18 21 38 19 24 43 21 27 43 27 33 49 28 36 47 32 38 50 33 39 51 30 36 50 25 30 49 24 29 48 23 28 47 24 29 48 22 27 46 21 26 45 24 29 48 25 28 47 17 21 32 12 15 22 16 20 29 21 25 37 22 25 42 26 29 48 23 26 45 18 23 45 18 23 43 23 28 47 24 29 48 25 30 50 25 30 49 19 25 39 16 22 36 15 21 37 15 20 39 15 18 35 14 18 29 15 19 31 15 21 35 16 22 38 13 22 39 18 21 40 17 20 37 18 21 38 16 22 38 17 20 37 16 19 34 13 17 26 18 21 30 26 32 44 26 32 44 19 22 39 19 22 39 2 18 7 1 17 4 2 19 3 1 18 2 1 17 4 0 17 0 0 17 0 0 17 1 0 17 0 0 17 1 0 17 1 6 28 5 5 29 5 5 29 5 7 31 5 7 31 5 7 31 5 9 31 8 9 33 7 15 35 10 
47 50 59 47 50 59 46 49 58 47 50 59 46 49 58 46 48 60 37 41 53 36 39 54 33 36 53 28 33 52 33 38 57 36 41 61 36 41 60 36 41 60 35 41 57 25 28 43 25 28 45 16 19 36 12 18 34 17 20 37 20 23 42 10 13 22 6 7 11 4 9 12 8 9 13 10 13 20 15 21 37 15 21 37 16 21 40 17 20 39 19 24 43 21 26 45 28 34 50 28 34 50 31 37 49 32 40 51 30 36 52 24 29 48 24 29 48 23 28 47 23 28 47 22 27 46 22 27 46 23 29 45 26 29 48 17 21 33 11 16 22 16 23 33 18 25 41 20 26 40 26 28 49 25 28 47 17 22 41 18 23 42 25 30 49 23 28 47 25 30 49 25 31 47 19 25 41 15 21 37 16 21 40 14 20 36 15 18 35 15 19 30 15 19 31 15 21 37 18 21 38 14 21 37 17 20 37 18 21 40 15 21 37 16 21 40 16 19 36 15 19 31 11 18 26 16 20 31 25 31 43 25 31 43 19 22 39 18 21 38 3 19 6 1 18 2 1 18 2 1 18 0 1 18 0 1 18 0 0 17 0 0 17 0 0 17 1 2 16 1 2 16 0 6 30 6 5 29 3 7 29 8 7 30 4 8 30 7 6 30 6 9 32 6 11 34 8 13 36 10 
48 51 60 47 50 59 47 50 59 47 50 59 47 50 59 47 50 59 46 49 58 46 49 58 43 45 57 41 43 55 33 36 51 24 29 48 28 34 50 35 38 57 32 37 56 34 39 59 32 39 58 34 39 58 33 39 55 24 27 44 22 25 42 11 14 23 5 6 10 5 9 12 7 8 13 9 12 19 15 22 40 17 20 37 16 22 38 17 20 37 19 26 42 22 28 44 23 28 47 24 29 48 24 30 46 24 30 46 24 30 46 24 29 48 24 29 48 25 30 49 23 28 47 24 29 48 23 28 47 23 28 47 26 29 48 15 21 33 11 16 20 9 12 19 7 10 15 14 18 29 25 30 49 24 29 48 23 28 47 22 27 46 23 28 47 23 28 47 25 30 49 24 30 46 20 26 42 16 22 38 13 16 25 6 9 14 7 10 15 8 11 16 8 11 20 17 23 39 18 21 38 14 20 36 14 19 38 14 19 38 14 19 38 14 20 36 16 19 36 17 20 35 17 20 35 18 21 40 17 23 39 16 22 38 18 21 40 18 21 40 2 18 7 1 17 4 1 18 2 1 18 2 1 18 2 3 17 0 2 19 0 2 19 0 1 20 1 1 29 4 1 30 2 3 29 2 4 30 5 4 30 5 4 30 5 11 30 8 12 32 7 14 32 10 17 32 9 18 33 12 
48 51 60 47 50 59 47 50 59 47 50 59 46 49 58 47 50 59 47 50 59 49 49 59 46 46 58 42 44 56 34 37 52 22 28 44 26 31 50 33 38 58 32 37 56 34 41 60 34 41 60 39 42 59 40 43 60 26 32 48 23 26 43 11 14 23 5 6 10 2 6 9 5 9 12 10 13 20 17 20 35 17 20 37 18 21 38 18 21 38 22 25 44 20 25 44 22 27 46 23 28 47 23 28 47 23 28 47 24 29 48 24 29 48 24 29 48 24 30 46 25 30 49 24 29 48 24 29 48 25 31 47 26 29 46 17 21 32 12 15 22 8 11 16 7 8 12 13 16 23 25 30 49 25 30 49 24 29 49 23 28 47 24 29 48 24 29 48 25 30 49 25 30 49 20 26 42 16 22 38 11 15 26 4 8 11 5 9 10 7 10 15 8 11 16 16 22 38 17 20 37 14 20 36 14 19 38 15 18 35 15 18 35 16 17 37 16 19 36 16 19 36 19 22 37 18 21 38 16 22 38 15 21 37 18 21 40 18 21 40 3 19 8 2 19 3 1 18 0 1 18 0 1 19 3 1 18 2 1 18 0 0 19 0 0 21 0 3 32 4 4 33 5 3 29 2 4 30 5 4 30 5 4 30 5 9 31 8 12 32 7 14 32 10 17 32 9 17 32 13 
46 49 58 47 50 59 46 49 58 46 49 58 48 48 58 48 48 58 47 50 59 46 49 58 46 49 58 46 48 61 41 43 55 39 41 54 37 41 53 34 40 54 35 38 53 28 33 52 27 34 52 35 40 59 36 41 60 32 37 57 29 34 54 27 31 43 25 29 40 22 26 35 18 22 31 18 22 33 15 21 37 15 20 39 17 23 39 16 21 40 20 25 44 23 26 45 25 28 45 24 29 48 24 30 46 24 29 48 24 29 48 24 30 46 23 28 47 23 28 47 23 28 47 23 28 47 24 29 48 24 30 46 26 29 46 16 20 32 10 14 23 8 13 17 6 7 11 14 16 28 25 30 49 24 29 48 21 26 45 20 25 44 22 27 46 22 27 46 24 29 48 25 30 49 19 25 41 15 21 37 12 14 26 7 8 12 7 8 12 7 11 12 9 12 19 15 21 37 16 22 38 15 21 37 14 20 36 15 21 37 15 20 39 17 20 37 17 20 37 15 21 37 15 21 37 18 21 38 16 22 38 15 21 37 18 21 40 18 21 40 3 19 8 2 19 3 1 18 2 0 17 1 1 18 0 1 18 0 1 18 0 1 18 2 1 18 0 1 23 2 1 23 2 3 27 3 3 27 3 4 30 5 5 31 4 6 30 6 7 29 6 6 30 6 8 30 7 8 30 7 
47 50 59 47 50 59 47 50 59 47 50 59 48 48 58 49 49 59 46 49 58 47 50 59 46 49 58 48 48 60 47 50 57 48 51 58 44 47 56 37 41 53 36 39 54 23 28 47 24 29 48 33 40 59 35 40 60 34 39 59 35 40 60 36 42 58 37 40 55 33 35 48 26 32 44 25 29 41 15 20 39 15 20 39 16 22 38 16 22 38 20 25 44 23 25 46 24 27 44 23 28 47 22 29 47 24 29 48 22 27 46 24 30 44 24 29 48 24 29 48 24 29 48 24 29 48 25 30 49 23 28 47 23 30 48 16 20 32 12 15 22 8 11 16 7 8 12 13 16 25 26 31 50 25 30 49 19 24 43 20 25 44 21 26 45 21 26 45 23 28 47 24 29 48 19 24 43 16 22 38 12 14 26 7 8 12 8 9 13 8 11 16 7 10 15 17 23 39 16 22 36 15 21 35 15 21 37 15 20 39 17 22 41 16 22 38 18 21 36 16 22 38 16 22 38 18 21 38 15 21 37 16 22 38 18 21 40 18 21 40 3 19 8 1 18 2 1 18 2 1 18 2 0 19 0 1 18 0 3 17 0 0 19 0 0 19 0 1 18 2 3 17 2 1 23 2 3 22 2 3 29 4 5 31 6 6 30 6 5 27 4 4 30 5 1 29 4 3 29 2 
46 49 58 46 49 58 45 48 57 46 49 58 47 50 59 46 49 58 46 49 58 47 50 57 46 49 58 46 49 58 47 50 57 47 50 59 46 48 60 41 43 56 41 43 55 36 38 51 36 38 51 32 38 54 32 37 56 31 36 55 31 36 55 34 40 56 37 40 59 33 39 55 30 36 52 30 36 52 26 29 46 24 30 46 15 21 37 18 21 38 20 25 44 21 27 43 22 27 46 23 29 45 23 26 45 23 26 45 22 27 46 24 30 46 24 29 48 24 30 46 24 29 49 24 29 48 24 30 46 24 29 48 26 29 46 23 29 41 22 29 39 16 20 29 11 12 17 15 19 28 25 30 49 25 31 47 20 25 44 20 25 44 22 27 46 22 27 46 25 30 49 25 30 49 19 24 43 16 22 38 11 14 23 6 7 11 7 8 12 9 14 18 9 14 20 16 22 38 15 21 37 18 21 36 18 20 35 19 18 26 19 18 23 18 18 28 16 18 30 15 19 30 16 22 38 15 21 37 16 22 38 15 20 39 18 21 40 17 20 39 3 19 8 2 19 3 1 18 2 1 18 2 0 17 0 1 18 0 0 19 0 0 19 0 1 18 0 1 18 0 1 18 0 2 21 2 2 21 2 1 23 2 4 23 3 3 25 4 2 24 3 3 27 3 3 29 4 3 29 4 
46 49 58 46 49 58 46 49 58 47 50 59 47 50 59 46 49 58 49 49 59 46 49 58 47 49 61 47 50 59 46 49 58 45 47 59 46 49 58 48 48 56 46 48 60 48 51 60 47 50 59 30 33 50 30 33 48 27 32 51 26 31 51 32 37 57 35 40 60 35 40 60 34 39 59 34 41 60 37 40 55 33 39 55 18 21 38 17 20 37 19 24 43 20 25 44 24 27 46 24 27 46 22 25 44 17 22 41 20 25 44 24 30 46 24 29 48 24 30 46 23 28 47 23 28 47 23 29 45 23 28 48 25 28 45 31 38 54 35 43 54 22 29 39 12 15 22 18 21 30 25 31 47 23 30 48 22 28 44 23 29 45 24 29 48 24 29 48 24 30 46 25 30 49 19 24 43 16 21 40 11 13 25 6 7 11 8 9 14 12 17 23 12 17 23 15 21 37 15 21 37 18 20 33 16 19 34 25 17 15 24 15 6 17 15 16 14 15 20 15 18 27 15 21 37 16 22 38 16 22 38 16 22 38 16 19 38 15 18 37 3 19 6 1 18 2 1 18 2 1 18 2 1 18 0 0 19 0 1 18 0 0 17 1 0 19 0 0 19 0 0 17 1 0 18 0 0 18 2 0 17 0 0 18 2 1 18 2 1 18 0 2 24 1 4 30 5 3 29 4 
47 50 59 47 49 61 46 49 58 47 50 59 46 49 58 46 49 58 49 49 59 50 50 60 49 49 59 48 48 58 46 49 58 46 49 58 47 50 59 46 49 58 47 49 61 47 50 57 48 51 58 35 39 51 35 38 53 32 35 50 29 34 53 32 37 57 32 37 56 33 38 57 34 39 59 33 38 57 37 40 57 34 37 52 20 25 44 21 26 45 24 30 46 25 28 45 23 26 45 22 28 44 20 25 44 21 24 43 22 27 47 23 28 47 25 31 47 23 29 45 23 28 47 25 28 47 26 29 48 24 29 48 23 28 47 29 35 49 32 38 52 23 29 41 16 20 29 20 24 36 24 29 48 26 29 48 22 27 46 22 27 46 23 28 47 23 28 47 25 30 49 24 29 48 19 24 43 16 21 40 13 17 28 9 12 17 11 14 21 13 17 26 14 18 27 15 21 37 15 22 38 17 21 32 19 19 31 25 18 12 26 16 7 18 16 19 16 16 24 16 18 31 17 20 39 18 21 38 16 22 36 17 20 39 17 20 37 17 20 39 2 18 7 4 18 5 1 18 2 0 19 0 1 18 0 1 18 0 1 18 0 1 18 0 1 18 0 0 18 2 0 19 0 3 17 0 1 18 2 0 17 1 1 18 2 1 18 0 0 18 0 1 22 3 2 26 4 3 27 3 
50 49 57 47 50 59 46 49 58 45 49 58 46 49 58 46 49 58 47 50 57 47 50 57 46 49 58 46 49 58 47 50 59 46 49 58 47 50 59 45 48 57 47 50 59 46 49 58 46 49 58 46 49 58 47 50 59 47 50 59 46 49 58 33 37 49 25 31 47 27 32 51 28 33 53 31 36 55 35 40 59 35 40 60 34 41 59 36 41 61 34 38 47 35 38 47 25 29 41 22 26 37 21 27 41 24 29 48 26 29 46 23 29 45 22 27 46 25 30 49 25 28 47 26 29 48 24 29 48 23 29 45 24 30 46 23 28 47 23 29 45 25 31 47 27 33 49 27 33 49 24 29 48 25 28 47 24 29 48 24 29 48 23 29 45 24 29 48 24 29 48 25 30 49 18 23 42 15 20 39 20 26 40 25 32 42 23 29 41 19 22 37 19 22 37 16 22 38 18 21 38 23 19 18 25 17 15 29 19 10 32 19 11 20 18 19 15 18 27 14 18 30 17 23 37 17 20 37 15 21 37 15 20 39 18 21 38 18 21 40 2 20 6 2 19 3 2 19 1 1 18 0 1 18 0 1 18 0 0 19 0 1 18 0 1 18 0 1 18 0 0 19 0 1 18 2 1 18 0 0 19 0 0 17 0 1 18 0 0 17 0 0 17 0 2 16 0 3 17 2 
47 50 57 46 49 56 48 48 58 47 50 59 46 50 59 47 50 59 47 49 61 47 50 59 47 50 59 46 49 58 49 49 57 48 48 58 47 50 59 47 50 59 47 50 57 49 49 59 48 48 58 46 49 58 46 49 58 47 50 59 47 50 59 34 37 52 29 32 49 30 33 52 32 35 54 31 36 55 34 39 59 34 39 59 34 41 60 35 40 60 37 39 51 36 39 48 25 29 40 24 28 39 22 28 42 24 27 42 23 29 45 25 30 49 24 29 48 22 30 43 23 28 47 23 28 47 23 28 47 26 29 48 23 28 47 24 29 48 24 30 46 24 30 46 26 31 50 26 32 48 26 29 46 23 29 45 23 28 47 25 30 49 24 30 46 24 30 46 25 30 49 24 29 48 18 23 42 15 21 37 19 25 39 23 30 40 23 29 41 19 22 37 19 22 39 16 22 38 16 21 40 22 18 17 24 19 15 29 19 10 31 18 9 23 19 20 16 16 26 15 17 30 16 22 38 16 22 38 16 22 38 18 21 38 17 20 37 19 22 41 6 19 9 1 18 0 1 18 0 1 18 0 3 17 0 4 18 1 1 18 0 0 19 0 1 18 0 1 18 0 1 18 0 2 19 1 5 20 1 2 19 1 2 21 2 2 19 1 4 18 1 1 18 0 4 18 1 2 19 1 
48 48 58 49 49 59 47 49 61 47 50 59 46 49 58 46 49 58 48 48 58 48 48 58 48 48 56 48 48 56 46 49 56 46 49 58 47 50 59 47 50 59 46 49 58 47 47 57 47 47 57 48 51 58 45 48 57 46 49 58 47 50 59 47 50 59 48 51 58 44 46 58 39 43 55 38 42 54 34 39 58 35 40 60 35 40 60 34 39 59 37 42 62 40 43 60 27 33 47 27 31 43 21 27 27 19 23 8 20 24 23 24 29 48 24 30 46 25 28 45 23 29 45 22 28 44 25 30 49 26 29 46 23 29 45 23 28 47 24 30 46 23 28 47 24 30 46 23 28 47 23 28 47 24 29 48 24 29 48 24 30 46 23 29 45 24 30 46 24 29 48 24 30 46 18 23 42 16 22 38 18 21 38 17 20 37 15 20 39 15 21 37 16 22 38 15 21 37 16 21 40 26 20 20 28 20 17 26 15 9 26 16 7 20 15 19 16 16 26 16 18 30 16 22 38 15 22 38 16 22 38 18 21 38 14 21 29 13 20 30 5 19 6 4 19 0 1 20 1 4 18 1 2 19 0 5 20 1 4 18 1 3 17 0 1 18 0 1 18 0 1 18 0 12 27 4 10 28 6 13 28 5 13 28 5 10 25 4 7 22 3 7 20 2 5 18 0 6 20 3 
47 50 57 47 50 59 46 49 58 46 49 58 45 48 57 46 49 58 49 47 58 48 48 56 45 48 57 48 51 60 46 49 56 47 50 59 47 50 59 47 50 59 46 49 58 46 49 56 46 49 58 46 49 56 46 49 58 46 49 58 46 49 58 49 49 61 47 50 57 44 47 56 40 42 54 38 41 56 35 40 59 35 40 60 33 38 58 35 40 59 36 41 60 39 42 61 28 32 44 26 30 42 21 25 24 18 22 7 20 25 21 24 29 48 23 28 47 26 29 48 23 30 48 24 30 46 23 29 45 23 28 47 23 28 47 23 29 45 24 29 48 23 29 45 23 29 45 23 29 45 23 29 45 24 30 46 24 29 48 24 30 46 24 29 48 24 30 46 24 29 48 24 29 48 19 24 43 15 21 37 15 21 37 15 21 37 16 22 38 18 21 38 16 22 38 15 21 35 17 20 37 28 19 20 28 20 17 25 16 7 26 16 7 20 16 17 16 16 24 16 18 30 18 21 38 16 22 38 16 22 38 17 20 39 12 19 27 13 20 30 5 19 4 5 19 2 2 19 0 4 18 1 2 19 1 2 19 0 4 18 1 3 17 0 3 17 0 2 19 3 1 18 0 12 27 4 10 28 6 13 28 5 13 28 5 8 23 2 6 21 2 7 20 2 7 20 2 5 20 1 
35 40 60 36 42 58 44 46 59 44 46 58 48 51 60 48 51 60 45 48 57 45 48 57 45 48 57 46 49 58 48 48 58 48 48 58 46 49 58 45 48 57 45 49 58 46 49 58 46 49 56 46 49 58 47 49 61 50 50 58 49 49 57 40 43 58 36 41 60 34 39 58 34 39 59 35 40 60 35 40 60 35 40 60 32 35 50 33 36 51 14 20 36 13 19 35 14 20 32 16 20 32 16 21 15 16 21 0 17 22 2 18 21 2 21 23 9 24 26 23 23 25 22 26 31 50 23 30 49 25 28 47 23 29 45 26 29 46 24 30 46 24 29 48 23 28 47 24 29 48 24 29 48 24 30 46 23 28 47 23 29 45 25 31 47 25 31 47 24 29 48 25 30 49 19 25 41 15 21 37 15 21 37 15 21 37 16 22 38 16 22 38 16 22 38 15 21 37 16 22 38 25 19 19 28 20 17 35 22 14 35 21 10 23 19 20 15 15 25 16 18 31 16 21 40 17 21 32 15 22 6 14 21 5 14 22 1 14 22 0 7 18 1 6 19 1 7 20 0 6 19 1 6 19 1 7 20 2 7 20 2 5 18 0 6 19 1 13 22 5 12 21 4 12 21 4 11 19 4 6 19 2 6 19 1 6 19 1 6 19 1 7 20 2 7 20 3 6 20 3 
33 38 58 37 43 59 45 47 59 43 45 57 46 49 58 45 48 57 45 48 57 46 49 58 47 50 59 46 49 58 49 49 59 48 48 58 46 49 58 46 49 58 47 50 59 47 50 59 46 49 56 45 47 59 46 48 60 48 51 58 48 49 54 42 46 58 36 41 60 35 40 59 34 39 58 35 40 60 35 40 59 36 41 61 34 38 50 33 37 49 17 20 37 13 19 35 14 20 32 17 21 33 16 21 17 16 21 1 17 22 2 21 23 2 22 24 10 20 25 21 23 25 22 24 29 49 24 29 49 23 28 47 26 29 46 23 29 45 23 28 47 23 28 47 23 29 45 24 29 48 23 28 47 24 29 48 24 30 46 23 29 45 23 29 45 24 30 46 25 31 47 24 29 48 19 25 41 16 22 38 18 21 38 17 20 37 16 22 38 15 21 37 16 22 38 18 21 38 15 21 37 24 18 18 28 21 15 34 21 13 34 22 10 20 18 19 16 16 26 16 18 31 16 21 40 17 21 32 15 22 6 14 21 5 13 20 2 12 21 2 7 18 1 6 19 0 7 20 2 8 20 0 8 21 3 6 19 1 6 19 1 5 20 1 6 19 0 12 21 4 13 20 4 12 20 5 11 19 4 8 19 2 6 19 1 7 20 2 6 21 2 3 20 1 6 19 1 6 21 2 
35 40 60 35 40 60 36 41 60 37 43 59 39 42 59 39 42 59 44 48 59 46 49 58 46 49 58 47 50 59 47 50 59 47 50 59 46 48 60 46 49 58 47 50 59 48 48 56 46 49 58 43 45 58 42 46 58 40 43 60 36 41 60 35 40 59 35 40 60 35 40 59 38 41 58 31 37 53 22 28 44 20 26 42 21 24 39 20 26 40 17 20 37 15 21 37 17 21 33 18 21 36 17 22 18 19 22 3 19 22 3 18 23 3 19 23 6 19 23 9 18 24 10 17 23 11 20 22 11 21 25 34 23 27 39 21 27 41 26 29 48 25 28 47 24 30 46 24 29 48 23 29 45 25 31 47 23 29 45 24 30 46 23 29 45 24 30 46 23 29 45 24 30 46 19 25 41 16 22 38 16 19 36 15 18 35 14 20 36 14 20 36 15 21 37 15 21 35 15 22 40 26 21 18 28 18 16 23 19 8 22 20 7 13 19 5 11 19 6 13 21 10 13 21 10 14 22 9 12 21 2 13 20 2 12 20 0 13 21 0 12 21 0 11 20 1 12 21 0 12 21 0 11 20 1 11 20 1 11 20 0 11 20 1 9 21 1 9 20 3 11 20 1 10 19 0 8 20 0 8 20 0 7 20 0 7 20 0 7 20 2 7 20 2 9 18 1 12 21 2 
35 40 60 35 40 60 36 41 61 35 40 59 35 40 59 35 40 60 45 47 59 46 49 58 46 49 58 46 49 58 46 49 58 47 50 59 46 49 56 47 50 59 46 49 58 47 50 59 50 50 58 41 44 59 40 43 58 35 40 59 34 39 58 34 41 60 35 40 60 36 39 58 38 41 56 32 35 50 19 20 38 17 20 37 18 21 38 17 23 39 16 19 36 15 21 37 15 21 35 15 21 33 17 22 18 20 23 4 18 23 3 18 23 3 19 24 4 18 22 5 19 24 4 16 21 1 14 22 1 20 25 29 20 27 37 24 27 42 26 29 48 25 30 49 23 28 47 23 28 47 24 30 46 23 29 45 24 29 48 24 30 46 24 30 46 23 29 45 23 28 47 25 30 49 20 23 38 15 21 37 15 21 37 12 18 34 16 19 36 17 20 37 17 20 37 16 22 38 16 22 38 27 18 19 28 18 17 19 19 7 17 19 5 13 20 2 12 21 0 12 21 0 13 21 0 12 21 0 12 21 2 11 20 1 13 20 2 11 20 0 14 22 1 13 21 0 13 21 0 13 20 2 12 21 0 11 20 1 12 19 1 11 20 1 11 20 1 8 20 0 8 19 2 7 20 0 9 21 1 7 20 0 7 20 2 5 18 0 6 21 2 6 19 1 8 20 0 14 18 3 
31 36 55 30 37 55 36 41 60 36 41 60 35 40 62 35 40 60 39 42 59 39 42 59 43 44 62 41 45 57 44 46 58 47 50 59 45 48 57 44 47 56 44 47 56 40 43 60 40 43 58 38 41 60 38 41 60 36 41 60 36 43 61 30 35 54 26 32 48 27 30 47 23 29 45 24 27 44 18 21 38 15 21 37 17 20 37 18 19 37 12 19 29 13 17 29 17 21 33 19 23 35 16 22 20 15 22 4 15 23 2 15 22 4 14 21 3 14 21 5 14 21 3 13 20 2 12 21 2 13 23 14 13 23 15 14 23 18 14 23 20 18 25 33 22 28 44 25 28 45 25 28 45 24 27 46 24 29 48 25 28 47 23 28 47 24 27 46 24 29 48 26 29 46 21 24 41 15 21 37 17 20 37 16 19 36 14 20 36 14 20 36 15 18 35 15 20 39 16 22 38 13 18 14 17 20 13 13 20 4 12 19 3 12 19 1 11 20 3 8 20 0 11 18 0 9 21 1 9 21 0 11 20 1 12 21 2 12 21 2 12 21 2 12 20 0 13 21 0 14 22 1 13 21 0 12 20 0 13 21 0 18 23 3 15 23 2 13 21 0 12 21 0 12 21 0 11 20 1 12 21 2 8 20 0 8 20 0 10 21 4 11 20 3 12 21 4 13 20 4 
