P3
100 50
255
2 1 71 3 2 72 2 1 71 3 2 72 1 0 72 2 1 71 3 2 72 1 0 70 1 2 69 0 1 66 0 1 68 1 0 66 3 2 68 0 0 64 1 1 65 1 0 57 3 2 59 2 1 58 3 0 55 1 1 55 2 2 56 1 2 56 1 1 55 0 2 53 0 2 53 2 2 54 2 3 51 2 3 51 1 2 50 0 0 50 1 2 46 1 3 44 0 4 42 0 4 41 1 5 43 2 5 46 1 6 48 1 6 46 1 6 46 1 7 43 3 7 42 2 7 37 2 7 36 2 9 37 2 9 37 0 10 35 0 11 33 1 13 35 1 14 33 2 15 34 1 14 33 2 13 33 0 15 31 0 16 32 1 20 34 2 22 33 0 28 31 1 29 30 0 32 27 1 32 24 0 34 20 1 34 17 1 33 18 1 23 10 1 23 10 1 19 5 0 20 8 2 20 8 3 21 9 1 19 7 1 19 3 1 19 5 1 19 5 2 20 8 4 19 14 7 19 15 23 18 14 21 17 14 26 11 44 25 9 48 25 4 60 25 3 65 24 2 67 27 1 72 26 1 69 24 0 76 26 0 73 25 0 72 24 1 73 24 1 71 26 0 71 22 0 64 22 0 64 21 1 64 23 1 65 22 0 64 23 1 65 22 0 64 25 2 70 24 1 71 
1 0 66 1 1 63 1 1 63 1 1 63 2 2 64 1 1 63 1 1 61 2 1 59 2 1 59 1 2 59 0 0 56 0 1 55 3 0 53 0 0 52 0 0 50 1 1 51 1 1 51 0 1 47 0 1 47 0 3 48 1 3 44 1 3 44 1 2 46 0 1 45 0 3 44 0 1 45 1 2 48 1 2 48 1 2 50 1 2 50 0 0 50 1 1 51 1 1 55 2 2 56 3 0 53 1 1 55 2 2 56 1 1 51 2 2 52 1 2 48 0 3 48 1 4 49 0 5 47 1 5 53 2 5 56 0 4 49 1 4 45 2 6 43 2 7 39 1 6 38 0 7 36 0 7 36 1 13 35 1 12 34 1 17 33 1 17 33 1 20 34 0 22 33 0 26 33 1 26 31 0 30 32 1 32 27 1 32 26 2 34 23 0 33 22 1 29 15 0 28 13 1 21 9 0 20 8 0 19 7 0 17 7 1 19 5 1 19 5 0 21 6 0 22 9 1 23 10 1 24 8 2 25 9 2 26 10 2 25 9 17 22 15 23 22 18 28 14 40 29 7 53 30 7 63 24 1 73 27 1 74 27 1 72 26 0 73 24 1 69 25 2 72 22 1 66 23 1 65 23 0 68 24 1 71 24 2 67 22 0 64 24 2 66 23 1 66 23 1 66 
1 0 66 2 2 66 1 1 63 1 1 63 2 2 64 1 1 63 1 2 59 2 1 59 1 0 58 2 1 59 1 0 57 0 2 53 1 1 55 1 1 53 0 0 52 0 0 50 0 1 49 1 2 48 1 2 50 3 1 48 1 2 46 0 3 44 0 1 45 0 1 45 1 3 44 1 2 46 1 2 48 1 2 48 0 0 50 0 1 49 0 2 50 1 1 51 1 1 53 1 1 55 4 1 56 1 1 55 1 1 53 1 1 51 0 0 50 1 2 46 1 2 48 2 3 47 0 4 49 0 6 54 3 7 55 1 6 48 1 4 45 1 5 43 1 6 36 0 5 35 0 9 36 0 7 35 2 13 35 1 12 34 1 17 32 0 18 32 2 22 33 1 23 34 0 25 32 2 27 34 1 29 30 0 32 27 1 32 27 1 33 22 2 34 23 2 30 15 0 30 15 0 22 10 0 21 9 0 18 4 0 19 7 2 20 8 2 20 6 1 21 9 1 24 8 1 23 10 1 24 8 2 24 11 1 24 8 2 24 11 19 22 15 23 22 17 29 13 40 28 9 54 27 7 60 24 1 73 24 1 73 24 1 71 23 1 73 27 0 71 24 1 71 22 0 64 22 0 64 24 1 69 24 1 71 23 1 66 22 0 65 21 1 64 23 1 66 24 2 67 
5 1 62 5 1 62 2 0 63 2 1 61 1 0 60 3 1 64 2 1 61 3 2 60 3 2 62 1 1 63 0 0 62 1 1 61 2 1 61 3 0 55 0 0 54 1 1 51 1 1 51 0 2 51 1 2 50 0 3 48 0 3 46 1 4 45 1 5 42 0 5 39 2 7 37 2 7 37 1 8 37 0 6 38 0 4 39 1 6 38 1 5 34 5 2 33 1 4 39 1 3 41 0 2 41 1 3 42 0 3 44 1 4 49 2 3 49 1 2 48 2 3 49 0 3 46 1 4 47 1 4 47 0 3 46 0 3 46 1 3 44 0 3 44 0 3 46 0 3 46 1 3 44 1 2 46 1 2 46 0 3 44 1 5 42 1 5 40 1 6 35 1 7 33 1 9 32 0 11 33 1 12 30 1 17 30 0 18 32 2 20 32 1 21 32 1 26 31 1 26 33 1 31 29 1 32 27 0 33 26 2 32 22 1 27 16 0 22 9 0 24 8 0 29 9 2 29 10 1 33 12 0 33 12 0 33 12 1 34 13 2 34 13 4 32 17 5 25 14 5 22 14 10 19 16 25 15 23 25 12 30 28 6 55 27 4 56 25 2 74 24 1 73 26 0 73 23 0 70 24 1 73 27 1 72 25 2 74 25 1 75 27 0 77 25 1 79 27 0 79 
6 0 60 5 1 60 4 0 61 4 0 61 5 1 62 5 1 62 5 1 60 3 2 62 2 1 61 1 1 63 1 1 65 1 1 61 1 0 60 1 0 57 3 0 57 0 0 54 2 2 56 2 2 54 0 4 52 0 3 48 1 2 46 0 4 42 1 5 40 1 5 40 0 6 34 1 8 36 1 6 35 1 8 37 0 7 36 1 6 36 1 5 34 0 4 31 1 4 35 1 4 39 0 2 39 1 3 41 1 3 42 0 2 43 2 3 47 1 2 48 1 2 46 0 1 45 0 1 45 0 3 46 0 1 45 2 4 45 2 4 45 1 3 44 1 2 48 0 3 46 2 0 47 0 3 48 1 2 48 1 2 48 0 2 43 0 4 42 1 4 35 0 6 32 2 7 36 1 9 32 0 10 35 0 14 33 0 16 32 1 19 33 1 17 32 0 26 33 1 24 32 0 32 29 0 32 29 0 33 26 1 32 26 1 29 17 0 21 12 1 25 11 0 29 11 2 31 11 0 33 12 1 33 12 1 36 14 1 34 13 0 33 14 0 33 12 1 28 9 0 23 7 10 22 10 22 19 14 25 15 24 28 6 53 28 6 53 24 1 73 27 1 75 26 0 73 26 0 73 26 0 71 24 0 74 25 1 75 25 1 79 28 1 80 26 1 84 27 2 83 
11 0 68 10 1 68 10 0 69 10 0 69 10 0 69 8 1 69 9 0 67 7 0 67 9 0 67 6 2 63 5 0 64 5 1 62 5 1 62 2 1 61 4 0 59 2 1 58 4 1 58 1 1 55 3 0 55 3 0 55 1 1 53 0 2 51 1 2 48 1 2 48 0 3 44 0 3 44 0 2 41 0 4 41 1 3 42 1 5 42 0 4 39 1 5 40 1 5 42 0 5 41 0 4 41 0 4 39 2 5 40 1 4 39 1 3 41 1 5 42 0 3 40 0 4 42 1 3 41 1 5 40 0 4 39 0 4 39 0 5 37 1 6 38 2 7 39 2 5 38 1 6 38 0 4 39 1 5 40 0 4 39 0 6 38 0 5 37 1 6 35 3 9 35 1 8 34 1 8 34 0 8 29 2 7 26 1 8 26 1 10 27 1 10 25 1 17 32 2 18 34 0 23 31 0 27 31 0 30 32 0 30 30 0 31 26 1 32 26 1 31 21 2 30 16 0 31 16 1 24 8 1 24 8 0 23 7 0 27 8 0 35 11 1 34 15 0 32 11 0 32 13 4 31 12 8 29 14 7 27 16 7 26 22 6 25 23 22 15 31 24 16 31 26 7 52 28 5 59 25 3 68 24 1 73 26 3 75 24 0 74 25 1 75 24 1 73 26 3 75 
13 0 70 14 1 71 11 1 70 10 0 71 10 0 73 11 1 72 8 1 71 7 1 71 7 0 67 7 1 65 7 1 65 5 0 64 5 0 64 4 0 61 3 1 64 4 0 59 4 0 59 4 1 56 2 1 58 2 1 58 2 2 54 1 1 53 1 1 51 1 2 50 0 1 47 2 3 47 1 3 44 0 2 41 0 1 45 0 1 45 1 3 42 2 4 42 2 4 42 0 4 41 0 3 40 0 3 35 0 4 39 2 6 43 1 6 38 1 6 38 0 4 39 1 5 40 0 4 39 0 5 39 1 6 38 2 7 37 2 7 37 0 5 35 1 6 38 1 8 37 0 7 36 1 8 36 1 6 36 0 6 38 2 7 37 0 7 35 0 7 33 0 9 34 1 9 32 1 8 34 0 8 29 0 5 24 0 7 25 1 7 23 1 7 21 0 15 31 2 15 31 1 20 34 0 22 33 2 27 32 0 30 32 1 31 31 1 33 30 1 33 28 0 30 18 1 29 17 1 19 7 2 18 5 1 22 7 0 23 7 0 32 11 0 34 10 0 32 11 0 35 13 0 33 12 0 33 12 0 31 13 0 31 13 0 32 11 22 21 17 22 21 16 27 9 49 29 7 54 24 2 67 27 1 74 27 1 72 25 2 72 25 2 72 26 0 73 24 1 73 
13 0 69 16 0 71 12 1 69 11 0 69 11 1 70 12 1 70 8 1 71 8 1 69 10 1 68 10 0 69 7 0 68 6 1 68 5 0 67 3 0 67 2 0 66 2 0 65 2 0 65 2 0 63 2 0 63 1 1 61 2 1 59 1 2 58 1 1 55 4 1 56 1 1 51 1 1 51 1 2 46 2 3 47 1 3 44 0 2 43 1 3 42 1 3 44 0 4 41 0 4 41 0 4 42 0 4 39 0 5 37 1 6 36 1 6 38 1 6 36 1 6 38 1 6 38 1 5 40 1 6 38 1 6 38 2 7 39 0 7 36 0 5 35 0 7 35 1 7 33 1 7 31 0 8 31 1 8 34 1 8 34 0 11 33 2 10 33 2 10 31 1 9 28 0 7 26 0 8 29 1 7 31 1 7 31 0 6 30 0 6 28 0 6 28 0 11 29 2 10 29 0 15 30 0 18 30 0 23 31 2 27 34 0 28 31 0 32 31 1 31 29 2 32 24 1 31 23 1 27 16 1 27 14 2 22 10 1 21 9 0 27 10 1 30 12 1 30 10 0 31 10 1 32 14 0 33 12 1 34 15 0 32 11 1 32 14 11 27 14 14 28 15 14 16 31 16 13 30 24 11 41 24 9 42 25 6 52 27 3 61 25 3 65 26 0 73 24 1 73 
16 1 68 16 1 70 16 1 68 13 1 65 11 1 72 12 1 70 11 1 72 11 0 69 12 0 72 10 0 71 9 2 72 6 0 72 7 1 73 3 0 73 2 0 73 2 0 70 3 0 71 1 0 68 1 0 68 2 1 67 2 0 65 2 1 61 2 1 59 4 0 59 1 1 55 1 1 55 1 1 51 1 1 51 1 3 44 0 3 44 0 3 41 0 2 40 0 3 40 0 4 39 0 4 39 1 6 36 1 6 38 1 6 36 2 7 37 1 6 35 0 7 35 1 6 35 2 7 36 0 7 36 1 6 38 0 6 38 1 6 36 1 6 35 1 7 33 0 6 30 0 7 23 0 7 23 0 13 30 1 12 30 0 13 30 1 12 30 0 12 26 2 12 24 2 11 26 2 7 27 1 7 31 1 6 36 1 6 36 1 6 38 0 6 40 0 6 28 1 5 30 0 12 28 0 13 29 0 18 32 0 19 33 1 25 35 0 29 33 1 31 33 1 31 31 1 31 29 1 34 25 1 34 25 2 22 11 0 20 8 1 24 8 1 25 9 0 27 9 2 26 10 1 30 10 0 34 14 1 34 13 0 33 12 1 36 14 1 34 13 2 35 14 1 23 10 1 22 7 17 18 13 22 17 14 25 12 32 28 6 53 29 6 62 26 0 73 27 1 72 
16 1 68 17 0 68 16 1 66 16 1 68 14 1 70 11 0 66 13 2 70 11 0 68 11 0 68 11 0 69 10 0 69 7 0 68 7 2 69 3 2 72 3 2 72 3 2 72 4 1 70 0 0 70 1 2 69 3 0 69 2 1 67 2 2 66 2 2 64 1 1 63 1 2 59 2 1 59 1 1 53 1 1 53 1 2 50 1 2 50 1 2 46 0 1 45 0 3 44 0 4 42 0 4 42 0 4 41 0 4 42 0 4 41 1 5 42 2 5 38 0 4 41 1 6 38 1 6 38 0 4 39 0 5 37 1 6 36 2 7 36 1 6 35 0 6 32 1 7 33 0 8 29 0 8 29 2 10 33 0 9 34 0 10 35 4 11 37 1 10 27 0 10 22 2 9 27 0 7 25 0 7 26 2 6 33 1 7 33 0 5 34 1 6 35 1 5 30 1 5 30 1 10 27 2 11 28 1 14 30 0 18 32 0 22 33 1 26 33 2 27 34 1 31 33 0 30 30 1 33 28 1 34 27 0 22 10 1 21 9 2 23 8 1 21 9 0 27 10 0 29 11 0 31 10 0 33 14 2 34 13 1 34 15 0 33 12 0 35 13 1 34 15 1 24 8 1 22 7 9 19 10 13 18 11 18 15 24 20 12 36 20 9 41 26 8 50 24 4 53 
22 1 66 20 1 67 19 0 66 19 0 66 16 2 64 17 0 68 14 0 62 14 0 61 15 1 63 13 1 63 11 1 62 10 1 64 9 0 65 3 0 67 2 0 66 0 1 68 1 2 69 2 2 72 1 1 71 1 2 69 3 4 71 2 3 70 1 2 69 1 2 69 1 2 67 2 2 66 2 1 59 4 1 58 1 0 57 2 2 56 1 0 57 4 1 56 1 1 51 1 1 51 0 1 49 0 1 49 0 2 50 1 2 48 1 2 50 3 1 50 0 1 44 1 5 43 1 5 43 1 6 38 0 5 37 1 6 38 1 7 33 1 6 35 2 7 37 2 7 37 1 6 36 1 6 38 1 5 40 0 4 39 1 6 38 1 8 36 1 7 31 1 6 28 1 7 23 1 7 19 0 6 20 0 6 22 1 6 25 0 7 26 0 7 26 0 5 31 1 5 32 0 5 25 1 3 24 0 9 26 0 13 32 2 18 33 2 22 33 0 22 33 1 28 35 0 27 34 0 30 32 0 29 29 0 23 13 0 22 9 1 19 7 4 18 5 1 28 9 0 33 14 1 34 13 0 33 12 1 34 15 1 34 15 2 35 16 0 35 13 0 33 12 1 24 8 0 20 8 1 19 7 2 18 5 0 18 6 0 18 6 8 18 9 20 16 13 21 15 17 
20 2 54 20 2 52 19 0 66 20 1 67 19 0 68 18 1 69 16 1 66 15 0 65 12 0 62 12 2 63 12 0 64 10 1 64 9 0 63 3 1 66 3 0 67 2 1 69 2 1 67 1 2 69 1 1 71 2 1 71 1 2 69 2 1 67 1 0 66 1 2 67 1 1 63 1 1 63 2 1 59 2 1 58 1 1 55 4 1 56 2 2 56 1 2 56 1 1 55 2 2 52 1 2 50 1 2 50 1 2 50 0 1 47 1 2 48 2 3 47 1 2 46 1 3 42 2 4 45 0 4 41 1 5 40 1 6 38 1 6 36 0 7 36 2 7 37 1 6 36 1 6 36 1 6 38 0 6 38 1 6 38 0 6 40 1 5 40 0 5 34 0 5 34 1 6 28 1 6 26 0 6 28 1 5 30 1 7 31 2 6 31 1 7 31 0 4 33 0 4 33 1 3 28 0 2 23 2 9 28 0 11 29 1 14 30 0 18 30 0 20 31 0 25 32 2 27 34 0 27 28 1 26 30 1 22 15 1 21 12 1 19 7 3 16 6 0 27 10 0 32 11 0 32 11 1 34 13 1 35 11 1 34 15 1 34 13 1 34 13 2 35 14 0 23 7 1 22 7 1 19 5 1 19 5 1 19 7 1 19 5 7 17 8 17 18 13 16 16 18 
21 6 13 19 5 20 21 1 72 21 1 72 20 0 71 18 1 71 17 2 71 13 0 72 14 2 68 12 1 67 12 2 65 10 0 61 9 0 63 6 0 62 6 0 62 5 0 64 5 0 64 2 1 67 2 1 69 2 1 69 1 0 66 1 1 63 2 1 61 2 1 61 3 2 59 1 0 57 2 2 56 2 2 56 1 1 51 0 0 52 1 1 51 1 1 55 1 2 56 1 3 54 1 3 52 1 4 47 1 4 47 0 4 42 0 4 41 1 4 45 2 4 43 0 3 44 0 3 44 1 3 41 0 4 41 0 4 39 1 6 38 3 8 37 2 8 34 2 8 34 1 8 34 2 8 34 1 6 36 1 6 36 1 3 42 3 2 46 0 2 43 0 3 44 0 1 47 1 2 50 0 1 49 1 2 50 0 1 49 1 3 42 1 3 42 1 1 35 1 1 35 1 3 28 1 3 24 1 4 23 1 4 21 0 5 21 0 8 21 2 9 25 1 17 30 0 18 30 1 20 27 1 20 27 0 18 9 1 17 7 2 18 8 2 18 7 3 25 12 1 28 11 0 31 10 2 35 14 1 34 13 0 35 15 2 35 16 0 35 13 1 36 14 2 20 6 0 19 7 0 18 6 1 19 5 2 18 5 1 19 5 1 19 7 1 17 6 0 18 6 
22 5 13 21 4 20 22 0 72 22 1 70 20 0 71 21 1 72 15 2 72 15 0 70 13 1 67 10 1 66 11 0 68 9 0 63 7 1 63 6 0 62 6 0 62 5 0 61 5 1 62 3 0 67 1 2 69 2 1 69 1 2 67 1 1 63 1 1 61 2 1 59 1 0 57 2 2 56 1 2 58 0 1 55 1 1 51 0 0 50 1 1 53 1 1 53 1 1 55 0 2 51 1 3 51 1 4 47 0 3 46 0 4 42 0 4 42 1 5 43 0 3 44 0 3 44 1 3 44 1 5 43 1 5 43 1 5 40 1 5 40 1 6 36 0 7 33 1 8 36 1 7 33 1 8 34 1 5 40 1 6 38 1 3 42 2 4 43 0 3 44 1 2 46 0 1 45 1 2 48 0 2 50 0 2 50 0 2 50 0 4 42 1 3 42 0 3 36 2 2 36 0 2 27 1 2 23 1 4 23 0 3 20 0 6 20 0 8 21 1 10 25 0 18 32 0 16 29 1 20 26 1 20 27 1 18 10 0 17 7 1 17 7 0 18 6 2 24 11 1 28 11 0 30 12 0 35 13 0 33 14 3 35 14 0 33 12 1 34 15 0 33 14 2 23 6 1 19 5 1 19 7 2 20 6 0 19 7 1 19 7 0 18 6 1 19 5 2 18 5 
31 10 5 30 9 6 20 5 28 18 4 29 20 1 67 22 0 73 18 1 71 20 0 72 18 0 74 18 1 72 17 0 71 14 1 71 17 1 72 10 0 69 13 0 70 9 0 65 9 0 65 6 0 66 3 1 66 7 0 52 8 2 46 10 2 43 9 3 37 8 2 36 9 3 41 7 2 42 3 2 60 1 2 59 1 2 69 2 1 67 1 2 69 1 2 67 2 3 68 2 3 67 1 2 66 1 5 68 0 4 65 0 3 66 1 3 64 2 4 63 2 4 61 0 2 53 0 0 50 0 0 50 1 2 50 1 2 46 2 3 47 0 1 45 0 3 44 0 3 46 0 3 44 1 3 44 0 3 46 0 3 44 1 2 48 1 2 46 1 2 48 0 1 47 0 1 49 0 1 49 0 0 48 0 0 50 1 1 53 3 0 55 3 0 55 3 0 57 1 1 55 1 1 55 2 2 56 2 1 43 1 1 37 2 2 30 2 3 24 1 2 23 2 3 23 1 4 21 0 14 15 0 14 14 0 16 13 1 17 14 1 18 10 0 17 7 3 21 7 0 24 8 0 29 9 0 33 12 2 35 14 1 34 13 2 35 14 1 34 13 1 34 13 1 21 9 0 18 4 2 20 8 1 19 5 2 18 7 1 19 5 0 18 4 1 17 4 2 20 6 
31 11 4 29 10 6 20 4 30 19 5 30 20 1 67 21 1 72 21 1 72 18 1 72 19 0 70 18 1 72 20 0 71 16 0 71 14 1 71 11 1 72 12 1 70 8 1 68 11 0 68 6 0 66 6 1 67 8 1 53 9 2 46 10 2 43 10 3 37 10 2 39 7 1 37 7 2 43 3 2 59 3 2 60 2 3 68 2 3 70 1 2 67 0 1 68 1 2 66 2 2 66 2 6 69 0 3 66 0 6 68 0 4 65 0 5 65 1 3 62 2 2 62 1 3 52 1 1 51 0 0 52 0 0 50 0 3 48 1 3 44 0 1 45 0 2 43 0 3 44 1 3 44 1 3 44 0 3 44 0 3 44 1 2 46 0 1 45 0 1 47 1 2 48 1 3 51 1 2 50 0 0 50 1 1 53 3 1 51 1 1 55 4 1 54 4 1 56 4 1 56 1 1 55 3 0 55 1 0 44 2 0 37 2 1 32 1 3 24 3 3 27 1 2 22 1 4 21 1 15 15 3 15 15 2 17 14 0 18 12 0 17 9 1 19 7 1 21 9 2 25 9 1 28 11 1 34 13 1 34 13 0 35 13 0 33 12 0 33 12 1 33 12 1 22 5 1 19 5 1 19 7 1 19 7 0 18 4 1 19 7 1 19 7 1 19 7 0 18 6 
63 20 14 58 19 14 18 7 5 21 7 6 20 2 50 20 2 60 20 2 64 21 2 68 20 0 71 19 0 70 18 1 72 18 1 72 17 1 72 14 1 71 16 0 71 10 0 71 12 1 70 17 4 30 17 4 22 20 11 14 24 14 12 28 21 13 30 26 15 29 25 16 26 22 13 26 19 11 17 4 13 17 6 10 5 2 55 4 1 54 2 1 61 3 1 64 2 2 64 2 2 64 5 3 53 9 5 40 11 5 33 13 5 16 15 5 14 16 6 14 16 5 13 13 4 25 12 4 28 5 3 53 2 3 60 2 4 61 1 3 64 1 1 61 0 1 57 0 2 55 1 1 53 2 2 54 1 1 51 1 1 53 1 1 51 1 1 51 1 1 53 1 1 53 1 2 56 0 0 52 1 1 53 3 0 55 1 1 55 2 2 56 2 2 56 1 0 57 2 1 58 1 0 57 2 2 56 3 0 55 3 0 55 3 1 50 1 2 46 1 0 40 1 2 33 0 3 32 0 4 29 2 4 29 1 7 21 0 8 19 1 16 11 0 17 9 0 24 10 1 28 11 0 31 10 1 34 15 2 34 13 0 31 10 1 33 12 0 21 6 2 20 8 2 20 6 1 19 7 0 17 5 1 19 7 1 19 5 1 19 7 1 19 7 1 19 7 1 19 7 
69 22 16 62 19 13 21 8 2 20 5 0 19 3 48 21 2 57 19 0 64 20 1 65 18 1 69 18 1 72 18 1 72 17 1 72 17 1 72 14 0 68 16 0 71 14 1 71 12 1 70 17 4 24 17 5 17 21 11 10 22 14 3 27 24 7 34 33 13 32 29 10 29 23 11 29 21 10 20 6 5 19 5 4 5 1 51 6 2 52 2 1 59 3 2 62 2 1 61 3 3 65 6 3 50 9 4 36 11 6 29 16 5 11 17 5 9 17 5 5 18 6 6 13 4 23 13 4 23 5 3 52 4 3 60 2 4 63 1 2 66 0 2 63 1 2 59 1 2 56 1 1 55 0 0 54 0 0 52 1 1 53 2 2 54 1 1 53 3 0 53 0 0 51 1 1 53 3 0 53 2 2 56 2 2 56 2 2 56 4 1 54 4 1 56 5 0 58 3 0 55 4 1 58 2 1 58 2 1 58 0 0 54 2 0 50 0 1 47 2 1 43 1 1 35 0 2 33 1 2 32 0 2 33 1 7 21 3 6 21 0 15 10 1 16 9 1 25 11 0 27 10 0 32 11 0 33 12 0 33 14 0 32 11 0 31 13 0 18 6 0 18 6 1 19 5 1 19 7 2 18 7 1 19 7 0 18 6 1 19 7 1 19 7 1 19 7 2 18 7 
71 23 19 65 21 18 28 9 2 29 10 3 25 7 19 24 7 23 21 7 24 20 5 26 19 3 29 19 4 33 20 2 40 19 3 50 20 3 55 20 3 71 18 1 69 17 3 36 17 4 34 27 16 20 26 18 16 36 34 22 42 45 26 41 49 25 43 52 23 48 55 24 48 57 26 46 55 26 34 33 13 35 33 18 13 4 23 14 5 24 6 3 50 5 2 57 8 3 43 9 3 29 16 9 25 22 17 21 26 22 21 38 41 20 38 41 22 41 45 22 40 43 22 30 27 18 27 27 19 17 9 22 13 5 26 7 4 47 2 3 60 2 2 62 1 2 67 2 2 62 2 2 64 2 2 64 1 2 59 2 1 59 4 1 56 3 0 55 4 1 56 1 1 55 4 1 56 5 2 57 2 1 58 2 1 58 4 1 58 4 0 50 5 1 51 3 0 57 3 0 57 4 1 58 5 1 60 2 2 56 3 0 57 2 0 54 0 0 50 0 1 47 3 2 42 2 1 41 0 1 29 1 3 28 0 3 36 1 5 34 1 7 29 1 8 26 1 16 19 0 23 15 2 24 12 2 30 15 1 28 13 0 24 8 2 25 9 1 21 9 0 23 7 0 18 6 0 18 6 0 18 6 0 18 6 1 19 7 1 19 7 1 19 7 0 18 6 2 18 7 
73 23 22 66 21 18 32 12 5 31 11 4 28 9 3 25 10 3 22 7 2 22 7 2 21 7 4 17 5 7 19 5 20 19 4 37 20 4 43 19 0 64 17 1 64 18 5 14 19 6 15 32 23 16 34 25 18 46 49 32 52 62 38 51 64 34 50 66 30 53 70 34 61 79 37 58 74 35 45 49 24 43 49 21 18 6 6 18 6 8 9 3 41 5 3 53 12 4 27 18 5 14 22 14 11 29 23 11 33 32 12 49 63 28 50 64 29 53 69 32 52 68 29 39 43 20 37 39 17 24 15 6 18 7 3 9 3 37 3 2 59 4 3 61 0 3 67 2 1 67 1 2 69 2 1 69 1 1 61 1 0 58 4 1 56 3 0 57 2 2 56 1 0 57 4 1 58 1 1 55 2 1 58 1 0 58 4 1 58 4 1 48 4 2 49 3 0 55 4 1 58 4 1 58 2 1 59 2 1 58 2 1 58 3 0 55 3 0 53 1 1 51 0 1 45 2 1 43 0 0 26 0 0 28 0 2 40 0 4 41 2 2 38 0 2 35 2 12 24 0 19 17 0 21 14 0 27 12 1 25 11 1 19 7 0 23 7 0 23 7 3 21 7 1 19 5 1 19 7 0 18 2 0 18 6 0 20 5 0 18 6 1 19 7 0 18 6 1 19 7 
69 24 19 70 25 22 56 19 10 57 19 10 53 19 9 55 19 7 53 19 9 50 17 8 44 15 7 42 13 9 34 13 12 29 9 21 25 7 21 19 4 33 19 4 33 29 19 20 30 20 19 43 40 33 46 43 34 53 57 43 58 65 47 58 66 45 58 68 44 57 70 40 59 75 36 58 74 35 50 64 28 50 64 29 23 16 10 23 16 8 18 12 26 16 12 29 24 15 18 26 19 13 34 32 17 43 48 25 46 52 26 53 63 36 53 63 36 54 64 37 56 67 37 44 53 26 44 50 24 34 33 15 28 26 11 19 11 24 10 3 34 9 4 44 2 2 64 2 2 66 2 2 66 2 2 66 2 1 61 2 1 58 3 2 59 2 1 58 2 1 59 2 1 58 2 1 58 4 1 58 1 0 57 2 2 56 4 0 57 3 0 53 4 1 54 3 0 57 4 1 56 4 0 59 4 0 59 3 0 57 4 1 58 4 0 59 1 0 57 1 1 55 0 0 50 0 1 49 1 1 39 2 2 40 1 4 37 0 2 37 0 2 40 1 5 40 3 7 32 2 9 27 0 12 24 1 15 18 1 15 18 2 14 12 1 13 11 0 20 8 1 19 7 0 18 6 1 17 6 0 18 4 1 18 8 2 20 8 1 19 7 1 19 7 1 17 6 0 18 6 
69 24 19 73 26 20 81 30 13 82 31 14 81 30 13 81 29 15 80 29 12 80 28 14 70 24 11 66 22 11 53 19 7 35 13 2 31 10 5 20 5 0 19 5 2 37 34 25 41 34 26 54 55 47 54 57 46 61 63 52 65 69 55 63 67 53 63 67 53 61 71 47 57 75 35 57 75 35 57 78 37 59 77 37 29 26 11 29 26 9 25 22 7 27 19 8 30 29 11 35 34 14 45 54 25 56 74 34 54 70 34 55 65 41 55 65 41 56 65 44 57 64 46 51 61 34 46 61 30 43 48 25 38 47 20 25 21 10 20 6 5 13 6 24 6 1 59 2 1 59 2 1 59 2 1 59 3 0 57 4 1 58 3 2 60 2 1 59 3 0 57 1 0 57 2 1 58 4 1 56 3 0 55 3 1 51 1 1 51 2 1 58 3 2 60 4 1 58 4 1 54 4 1 58 4 1 58 4 0 59 2 1 59 1 2 58 2 1 59 1 0 58 1 1 53 0 0 52 1 2 50 3 0 55 0 3 38 1 2 33 1 3 41 0 2 41 0 2 41 1 3 41 0 3 34 0 1 29 2 4 25 0 7 15 1 8 16 0 18 6 1 19 7 0 18 6 0 18 6 0 16 3 2 18 7 1 17 4 0 21 6 0 20 5 2 18 5 1 19 5 
72 25 19 74 27 19 82 29 13 81 30 13 81 30 13 82 29 13 81 32 17 80 32 18 72 30 16 67 28 13 58 24 14 45 17 6 41 14 5 20 7 1 20 7 1 48 44 33 48 44 35 51 54 45 51 52 46 58 60 49 62 65 54 64 67 56 65 69 54 61 68 50 58 74 37 57 75 37 61 78 36 59 77 35 36 38 16 35 39 16 36 35 15 35 34 14 37 41 18 40 44 21 52 58 30 57 73 37 57 72 41 58 66 45 58 66 45 55 62 46 56 60 43 53 62 41 54 64 39 45 54 27 41 50 23 29 25 13 22 11 7 15 8 26 5 3 52 5 2 57 5 1 60 3 2 60 2 1 59 4 1 58 4 0 59 4 1 58 2 1 58 4 0 59 3 0 57 2 2 56 2 2 56 4 0 51 4 0 51 4 1 58 4 1 58 4 1 56 4 0 59 4 1 56 4 0 59 2 1 59 2 1 61 2 1 61 1 1 63 1 1 61 2 1 59 0 1 57 1 1 55 0 2 53 0 2 40 1 1 39 0 1 39 0 2 40 0 3 40 1 4 39 0 3 36 2 3 31 0 5 27 2 8 20 0 7 17 0 17 9 1 17 7 2 20 8 2 18 7 0 19 8 0 18 6 0 20 8 1 24 8 0 23 7 0 21 6 0 21 4 
74 24 17 75 25 16 78 29 12 80 28 14 81 28 12 80 27 11 81 41 29 80 46 34 82 46 32 81 44 28 78 39 24 73 30 14 61 25 13 21 8 2 21 7 4 72 76 61 71 75 61 39 40 35 35 35 33 50 53 44 60 62 48 64 68 54 69 73 59 65 75 51 56 73 37 58 74 37 59 75 36 58 76 34 59 77 35 60 78 36 60 78 36 60 78 36 58 76 36 55 73 33 58 71 41 60 67 49 63 67 52 64 67 56 63 67 53 47 50 43 46 49 40 67 71 57 69 76 60 50 63 37 45 58 28 34 37 18 28 25 10 21 17 18 10 3 37 10 3 44 5 1 60 6 0 60 5 1 60 2 1 59 4 0 59 2 1 58 3 2 60 5 1 60 4 0 59 4 1 58 4 1 56 3 1 51 4 2 52 2 1 58 4 0 59 4 1 58 4 1 58 4 0 51 5 1 52 2 0 63 2 3 68 1 2 67 1 1 71 3 2 70 1 2 67 1 2 66 2 1 61 1 2 59 0 0 52 0 0 50 0 2 41 1 3 41 1 3 41 1 4 39 0 4 39 0 4 42 1 4 39 1 1 25 1 1 27 2 14 12 0 13 13 0 16 6 1 19 7 1 17 6 0 18 6 1 26 7 1 30 10 0 29 11 0 27 12 1 28 11 
75 25 16 76 26 15 77 28 13 77 28 13 81 28 14 81 28 12 83 41 27 81 45 31 81 45 31 82 43 28 78 38 26 73 31 17 60 26 14 21 10 6 23 9 6 72 74 60 68 74 60 39 39 37 34 34 32 51 52 44 62 64 51 65 69 55 69 73 59 65 73 50 57 73 37 56 73 37 57 75 35 58 76 36 58 76 36 57 78 37 59 77 35 60 78 36 55 76 35 55 71 34 59 69 42 61 68 50 61 65 50 64 68 54 61 65 51 45 46 38 44 47 38 68 72 57 72 76 62 52 62 38 46 59 31 36 39 18 30 29 11 23 19 18 13 4 33 10 3 37 6 2 52 8 1 52 6 2 53 8 1 53 3 0 53 4 1 56 5 2 59 3 2 59 4 1 58 5 1 60 4 0 59 4 1 54 4 1 54 4 0 59 3 2 59 2 1 58 2 1 58 4 1 54 4 2 52 3 2 60 2 2 66 1 2 66 1 2 67 1 2 69 1 2 67 2 2 66 1 2 59 1 2 58 1 1 55 3 0 53 1 3 44 2 4 43 1 3 41 1 4 39 0 4 39 1 5 42 1 4 39 1 3 26 0 5 27 0 14 11 1 13 11 0 17 7 2 20 6 0 20 5 0 21 6 2 25 9 1 30 10 0 29 9 1 28 9 0 27 8 
81 30 13 80 28 14 74 25 11 74 25 11 80 28 14 83 27 14 81 38 22 82 38 25 83 40 24 79 40 25 77 41 29 65 38 27 55 35 24 28 21 15 30 21 16 71 75 60 72 74 60 32 34 33 29 27 28 53 56 45 69 73 59 67 70 59 68 70 57 64 72 51 59 75 38 57 73 37 58 76 34 57 75 35 59 75 36 58 76 36 58 76 38 60 76 37 54 69 36 55 65 38 62 70 49 71 75 61 67 70 59 52 55 46 50 53 46 33 34 29 33 34 28 67 71 57 72 76 62 58 65 47 55 62 44 47 56 29 43 52 21 35 37 15 20 11 4 20 11 2 19 8 2 22 9 3 15 4 10 18 3 10 13 3 28 11 2 29 6 3 48 5 0 54 4 1 54 4 0 59 4 0 59 2 1 59 3 0 58 3 2 62 2 1 61 1 0 60 2 0 63 3 0 57 4 1 56 4 2 51 5 0 45 4 1 54 2 1 59 2 2 62 1 2 67 0 1 65 0 4 62 2 3 60 1 1 53 0 2 51 1 1 51 0 0 50 2 0 39 1 0 31 2 3 34 1 6 36 0 4 31 2 3 24 1 3 24 0 10 12 1 11 13 0 20 9 0 23 7 0 27 10 0 27 10 0 27 8 0 29 9 1 30 12 2 34 13 3 32 14 
82 29 13 79 27 13 74 25 11 73 25 11 80 28 14 81 28 14 80 37 21 82 40 26 80 41 24 80 41 26 73 39 27 62 38 26 54 34 23 30 21 14 29 22 16 71 75 58 71 75 61 31 33 30 26 28 27 53 56 47 69 73 59 70 72 59 68 70 57 64 72 51 58 74 37 58 74 37 57 75 35 58 76 34 57 75 35 58 76 34 59 77 35 60 75 34 54 69 38 52 65 37 62 70 47 72 74 61 68 70 59 54 55 50 51 52 46 33 34 28 33 34 29 68 72 58 71 75 61 58 66 45 54 62 41 50 56 30 42 51 20 35 37 15 23 12 6 21 11 1 22 9 3 18 7 1 16 3 12 17 6 12 11 3 27 11 2 31 6 3 50 6 1 55 4 0 59 4 0 59 4 0 59 1 2 58 4 3 61 2 1 59 4 0 59 2 0 63 5 0 64 3 0 57 4 1 56 4 2 52 4 1 46 4 1 54 4 0 61 3 2 62 1 2 66 1 2 66 1 2 58 1 2 59 2 2 54 1 1 51 0 2 51 0 2 51 0 2 39 1 2 32 1 2 32 1 6 35 0 5 31 0 4 24 0 2 23 1 10 15 0 9 14 1 21 10 0 21 6 2 26 12 1 28 11 1 28 11 1 28 9 2 31 11 0 33 12 0 33 12 
81 28 12 81 28 14 79 21 7 79 21 7 75 23 9 74 22 8 80 38 24 81 43 30 81 49 38 81 53 41 76 48 36 70 36 27 58 31 20 22 11 5 22 11 7 61 63 52 61 64 53 24 24 22 19 19 19 50 53 44 71 73 59 66 70 55 61 65 51 60 70 43 57 75 35 57 75 35 58 76 34 57 75 35 60 77 35 59 75 36 58 76 34 60 77 35 59 72 42 59 69 45 67 71 54 72 76 61 66 68 57 45 45 43 45 46 41 51 54 43 52 53 45 68 75 59 73 77 63 62 66 49 56 63 45 56 70 37 55 73 33 56 74 34 58 76 36 58 76 34 57 73 34 56 74 34 48 62 27 48 62 27 34 36 14 33 30 13 23 14 5 18 9 4 16 4 16 11 3 27 9 2 43 3 1 66 1 1 65 4 0 61 5 1 62 2 1 61 4 0 61 4 0 61 2 1 59 5 1 52 4 1 46 1 1 51 1 1 55 2 1 58 2 2 64 1 3 64 1 2 58 0 1 57 0 0 54 2 2 54 0 0 54 1 1 53 1 1 39 1 0 31 1 2 30 1 3 28 0 5 25 0 3 18 1 4 19 2 16 19 1 16 19 3 30 21 1 31 19 1 33 20 1 33 20 2 34 21 2 34 23 0 31 23 2 29 22 0 27 20 
80 29 12 82 26 13 78 22 9 78 22 9 76 23 9 74 22 8 80 38 26 81 43 30 81 49 36 80 54 41 76 47 33 69 37 26 57 30 19 21 10 4 22 11 5 61 65 51 60 64 50 24 24 22 20 18 19 49 52 43 68 72 58 65 69 55 62 65 54 60 70 46 58 76 36 57 75 35 57 75 35 59 75 36 57 75 35 59 76 34 59 75 36 59 77 35 60 71 41 60 68 45 66 73 55 72 76 62 66 68 57 43 45 40 45 46 41 50 56 46 54 56 45 69 73 58 71 77 63 59 66 50 57 64 46 56 69 39 55 73 33 56 74 34 59 77 37 57 75 35 56 72 33 55 73 35 49 60 26 50 61 27 35 37 16 34 31 12 23 14 7 21 6 3 19 7 17 8 3 26 9 2 43 2 1 67 0 1 66 2 0 63 3 2 62 4 0 59 4 0 61 5 2 59 2 1 59 6 0 50 6 0 46 3 1 51 2 2 56 2 1 58 2 1 67 1 2 66 4 1 56 1 0 57 0 0 54 3 0 53 1 1 53 1 1 53 0 0 39 1 0 31 2 2 30 1 2 30 1 3 24 1 5 17 0 3 18 3 17 20 1 16 19 0 28 16 1 32 17 1 33 20 1 33 18 1 35 21 0 34 20 1 33 20 1 28 21 3 30 23 
80 24 9 80 22 10 72 20 7 73 21 8 71 23 9 74 22 9 77 27 16 79 30 16 79 36 20 81 39 25 80 34 21 79 27 14 66 22 11 25 7 3 25 7 3 52 52 40 52 54 43 45 48 41 47 48 42 58 61 50 64 68 54 60 68 47 56 69 41 57 73 37 57 75 35 58 76 36 58 76 36 58 74 37 58 76 36 58 76 36 59 77 39 58 76 36 56 71 38 57 70 42 66 74 53 73 77 63 61 67 55 35 35 35 37 37 35 53 57 43 53 57 43 70 74 60 71 75 60 59 64 44 53 62 41 53 69 33 54 70 31 56 74 32 58 76 36 58 76 36 58 74 35 60 74 38 62 71 42 62 71 42 55 66 34 52 66 31 49 55 27 46 52 26 34 32 19 21 12 13 16 10 20 9 3 37 10 2 41 1 1 63 2 1 67 1 0 66 1 0 70 2 0 63 4 0 63 1 2 59 4 1 58 5 1 52 4 1 48 4 2 52 2 0 63 2 2 62 1 2 59 1 2 59 3 0 55 1 1 53 1 1 53 0 0 52 1 0 42 0 0 38 1 0 31 1 3 28 0 0 24 1 4 21 1 4 19 0 15 20 1 16 19 0 24 26 3 24 29 1 26 30 1 27 28 0 25 29 1 24 30 1 21 30 1 17 30 1 17 30 
81 22 8 80 22 10 70 21 7 71 19 6 71 21 10 71 22 8 78 25 11 77 25 11 80 31 17 81 35 20 80 30 19 80 24 11 67 19 7 25 6 2 24 6 2 47 49 38 48 48 38 55 57 46 56 58 47 60 63 52 62 66 52 60 68 45 55 71 35 57 73 37 58 76 36 58 76 36 57 75 35 59 75 36 58 76 36 57 75 33 58 76 34 57 75 33 57 72 39 58 71 41 65 75 51 74 78 63 63 65 54 30 30 30 33 33 31 52 55 46 54 56 45 70 74 59 70 74 60 54 63 42 50 58 35 52 66 31 53 69 30 55 71 32 57 75 35 58 76 36 60 76 39 60 76 39 68 77 48 68 77 48 61 77 40 61 77 38 56 70 35 55 66 32 40 42 21 24 15 6 20 11 14 12 4 28 11 4 35 2 1 67 2 1 67 1 1 71 1 2 69 3 1 64 3 1 64 1 2 59 4 0 59 4 2 52 7 0 44 4 1 48 2 1 59 2 1 59 1 2 59 2 3 59 3 0 55 1 1 53 1 1 53 1 2 50 0 1 45 2 2 40 2 1 35 0 0 24 0 0 24 0 3 18 1 4 21 1 16 19 0 15 20 0 22 30 1 21 32 1 24 30 2 27 34 2 22 33 0 19 33 0 18 32 2 15 34 2 15 34 
58 16 4 59 17 5 51 14 5 49 15 5 71 21 10 73 21 8 79 22 11 81 23 11 78 26 12 79 26 12 77 25 11 79 23 8 72 20 6 51 14 5 49 15 5 31 22 15 31 22 15 51 59 36 55 65 40 58 68 41 60 71 41 57 73 37 57 73 34 59 75 36 57 75 35 59 77 37 58 76 36 58 76 36 58 76 36 58 76 36 58 76 36 58 76 36 59 75 38 58 74 35 64 74 47 70 74 59 66 68 54 47 50 41 50 51 43 61 64 53 63 63 55 66 68 54 65 69 55 55 65 40 50 64 31 52 70 30 55 73 31 53 72 27 53 71 29 55 72 30 58 74 37 58 74 35 66 77 45 67 76 45 63 77 42 62 76 40 62 73 41 62 73 41 54 63 34 44 53 24 35 36 20 20 11 14 19 9 18 6 2 53 6 2 52 3 0 69 2 1 67 3 2 70 2 0 66 2 0 65 2 2 64 4 0 59 4 1 54 4 0 53 4 1 56 2 0 52 3 0 43 4 1 46 2 0 50 3 0 53 1 1 53 1 1 53 3 1 48 1 0 42 4 0 37 2 2 30 1 1 25 0 3 22 2 3 23 1 10 27 1 10 27 1 14 33 1 13 35 1 14 33 0 14 33 2 15 34 1 14 33 1 13 35 1 14 33 2 15 32 
48 14 4 46 13 4 40 13 4 38 11 4 69 21 9 73 24 9 79 22 11 80 22 8 80 22 8 81 23 11 80 22 10 79 21 7 77 21 8 67 19 7 65 19 6 18 4 1 19 6 0 50 61 31 54 69 36 56 72 35 57 75 37 57 75 35 59 75 36 59 76 34 57 75 37 58 76 36 57 75 35 57 75 35 57 75 35 57 75 35 58 76 36 58 76 36 58 76 36 57 75 33 63 74 44 66 73 57 66 70 55 57 60 49 60 62 51 67 69 58 68 72 58 64 68 54 61 65 51 52 65 37 50 66 30 52 70 28 55 74 28 53 72 26 51 68 26 53 70 28 57 75 37 57 75 35 65 76 42 65 76 44 65 76 44 64 75 41 66 75 46 71 77 51 63 77 42 58 76 36 44 53 26 23 14 7 22 14 11 9 3 41 8 3 43 1 0 68 3 0 67 1 0 68 2 1 71 2 1 67 1 1 65 2 0 63 2 1 59 5 2 59 2 0 50 4 0 50 5 1 34 5 1 34 1 1 51 3 0 53 4 1 54 1 1 53 3 1 48 2 1 43 2 2 40 2 2 30 0 2 27 1 4 19 1 2 20 2 6 31 0 6 30 1 8 36 1 6 35 0 7 33 2 8 34 1 9 32 0 10 35 0 11 33 1 14 33 2 15 34 
53 15 4 53 15 6 53 17 5 53 17 5 74 22 9 73 24 9 79 21 7 80 22 10 80 22 10 80 22 8 80 22 10 79 21 9 78 22 9 68 18 7 69 19 8 18 7 1 20 7 0 51 62 28 55 69 34 56 72 35 57 73 36 57 75 35 59 76 34 57 75 35 59 75 36 57 75 35 57 75 37 58 76 34 58 76 34 58 76 36 59 75 36 57 75 35 57 75 35 58 75 33 61 75 42 64 72 48 63 71 48 57 64 48 58 65 47 61 69 48 61 68 50 58 66 45 58 68 44 55 69 36 53 70 28 53 72 27 53 75 28 51 71 22 48 67 21 50 69 23 55 74 28 56 75 29 66 77 43 65 76 44 65 76 42 63 77 42 64 76 40 64 76 40 60 74 38 57 74 32 48 60 24 32 34 10 31 29 14 15 7 30 16 8 29 9 2 44 9 2 44 4 1 58 4 0 59 2 2 64 1 0 66 2 0 65 2 2 64 3 2 62 4 1 56 4 1 54 5 0 40 5 0 40 4 2 52 4 1 54 4 1 56 4 1 56 4 2 51 2 0 49 3 1 41 2 1 32 1 1 27 1 2 23 1 2 23 1 6 35 1 7 33 1 8 34 1 8 34 2 8 34 2 8 34 2 8 32 1 9 30 0 11 33 0 13 32 1 12 32 
65 19 6 65 19 6 78 22 7 78 22 7 81 22 8 80 22 8 81 22 8 79 23 8 81 21 10 80 22 8 80 21 7 79 21 7 78 22 9 73 19 9 73 21 8 19 9 0 19 11 0 51 66 25 56 75 30 57 75 33 58 76 36 57 75 35 56 77 34 57 75 35 59 76 34 58 76 34 58 76 36 58 76 36 57 75 35 58 76 36 59 75 36 58 76 36 58 76 36 57 75 33 56 74 34 59 75 38 57 73 37 56 69 41 57 67 42 55 65 40 54 64 37 53 69 33 52 68 31 57 73 34 57 75 33 52 74 27 47 74 21 46 69 17 42 65 13 43 66 14 46 71 16 46 71 16 64 75 45 65 74 43 64 76 40 63 74 40 57 75 33 54 73 28 54 73 27 52 74 27 51 70 24 46 63 21 43 58 19 22 13 4 22 13 4 17 5 5 19 5 4 10 4 30 9 3 39 4 3 63 2 2 74 2 1 69 2 1 67 2 0 65 3 2 62 4 0 59 6 0 44 6 0 44 4 2 52 3 0 53 1 0 57 4 0 59 2 1 59 4 0 55 2 0 47 2 1 33 2 1 32 1 1 25 1 1 27 0 5 37 1 6 36 1 8 34 0 9 34 1 8 34 2 8 34 0 6 32 2 8 32 1 9 32 0 8 31 0 8 31 
68 20 8 70 21 7 78 22 9 79 23 8 80 22 8 80 22 10 80 22 8 79 21 7 78 21 10 80 22 8 81 22 8 80 22 8 78 22 9 73 21 8 73 21 7 18 9 0 20 10 1 48 65 23 52 74 27 53 74 31 57 74 32 56 74 32 58 75 33 59 76 34 57 75 35 57 75 35 58 76 34 57 75 33 58 76 36 57 75 37 57 75 35 57 75 35 59 76 34 58 76 36 60 75 36 55 76 37 57 73 37 57 70 40 56 69 41 53 68 37 53 68 37 52 70 30 53 71 31 55 73 31 53 75 29 50 72 23 49 72 18 45 68 16 43 63 12 44 64 13 48 71 17 46 71 16 62 74 38 62 74 38 59 74 35 59 73 37 52 74 27 49 73 23 51 73 24 53 73 24 48 70 23 46 65 19 43 58 17 30 27 10 31 28 11 27 20 12 26 19 9 17 10 26 13 7 33 6 5 49 2 1 61 4 0 63 2 0 65 3 1 66 2 1 61 4 0 59 4 0 50 4 1 48 4 0 51 2 2 52 1 1 55 3 0 57 1 1 55 1 2 56 4 1 46 2 1 33 2 1 33 4 1 28 1 1 27 1 5 32 1 5 34 1 8 34 0 7 35 1 8 34 1 8 34 2 8 34 3 10 36 3 10 36 7 14 40 7 14 40 
80 22 8 78 22 9 80 22 8 80 22 10 80 20 9 80 22 8 80 22 8 80 22 8 78 22 7 78 22 9 79 21 9 78 22 7 79 21 7 75 22 8 75 22 8 19 8 4 19 8 2 41 63 14 43 71 12 50 73 21 50 72 23 52 74 27 53 75 29 56 75 30 57 75 33 58 76 34 57 75 33 58 76 36 57 75 35 57 75 35 57 75 35 58 76 36 57 75 35 57 75 35 59 75 36 55 76 35 58 76 36 58 76 34 57 75 33 54 76 30 56 75 30 51 74 22 50 72 23 44 71 16 42 70 12 45 68 14 44 67 13 40 63 9 39 56 11 41 61 12 45 68 12 45 68 12 47 72 15 47 72 15 47 71 13 46 71 13 44 72 13 45 70 13 46 70 12 44 72 13 43 68 11 42 67 12 43 66 12 51 75 27 54 73 27 50 64 28 52 66 31 32 29 12 26 18 7 16 10 22 12 3 30 9 2 46 6 0 62 5 1 60 4 0 61 6 0 60 4 1 58 5 2 59 5 1 52 4 2 51 4 1 54 4 1 56 5 2 57 3 0 57 4 1 48 4 0 33 2 1 32 3 0 31 1 1 29 2 5 24 0 5 25 0 6 30 0 9 34 1 8 34 0 7 35 4 11 37 4 14 41 13 22 51 25 36 68 26 37 67 
79 23 8 80 22 8 80 22 8 81 21 10 79 21 7 80 22 8 80 22 8 79 21 7 79 22 11 80 22 8 80 22 8 80 22 8 79 23 8 75 22 8 75 22 8 22 7 0 21 8 2 41 59 11 43 68 11 46 69 17 49 71 22 52 72 23 54 73 27 55 74 28 56 74 32 56 74 32 56 74 32 57 74 32 56 74 32 56 74 32 57 75 35 56 74 34 57 75 33 56 74 34 56 74 34 57 73 34 56 74 32 55 74 29 55 73 31 55 75 26 55 74 29 49 71 22 49 71 22 44 69 14 44 67 13 43 63 12 40 60 11 40 60 11 40 57 12 42 60 12 44 69 12 44 69 12 47 72 17 46 71 16 45 70 12 44 72 13 44 69 11 43 71 12 42 70 11 43 71 12 43 68 11 41 66 11 42 66 14 49 73 25 50 72 25 52 66 30 50 68 30 36 35 14 30 24 10 18 13 20 13 5 26 10 3 44 5 1 60 6 2 61 6 0 62 5 1 62 6 1 57 4 0 59 5 1 52 5 1 52 6 2 52 4 0 53 2 2 52 4 1 56 4 1 48 5 1 36 4 0 33 4 1 32 2 2 30 5 3 25 1 3 24 2 8 32 1 8 34 0 11 37 3 10 39 2 12 39 5 14 43 13 25 51 23 38 67 25 39 68 
79 27 14 79 25 13 81 23 11 80 22 10 80 22 10 78 22 9 80 22 10 80 22 8 80 22 8 80 22 8 81 22 8 79 23 8 80 22 10 81 22 8 80 22 8 24 6 2 24 7 0 29 27 4 28 31 4 37 48 8 42 58 11 41 64 12 41 69 10 43 71 12 44 72 11 44 72 11 47 72 14 45 70 13 47 72 14 46 71 16 47 72 15 48 73 16 47 72 15 47 72 15 46 71 14 45 73 15 45 73 15 46 72 9 46 71 13 42 71 13 43 71 12 42 65 11 40 63 11 33 43 8 31 38 5 28 28 4 25 22 3 32 37 7 42 60 12 40 63 11 44 69 12 42 70 11 44 72 13 47 71 13 43 71 12 44 72 11 45 70 13 45 70 12 45 70 12 45 70 13 43 68 13 40 65 10 41 66 11 41 65 13 41 66 11 56 74 34 58 75 33 54 73 28 55 74 29 32 34 12 21 11 2 15 7 28 8 2 50 9 2 53 5 1 62 6 0 60 5 0 59 6 0 60 5 1 60 5 1 60 5 3 43 6 1 41 5 2 49 5 2 57 4 0 51 4 1 44 5 0 41 4 1 32 4 1 32 1 2 30 1 3 28 1 12 44 2 12 47 1 17 53 2 17 56 4 18 57 4 20 54 11 30 62 27 47 71 27 47 71 
80 28 14 81 25 12 79 21 7 79 21 7 80 22 10 80 22 10 80 22 8 80 22 10 79 23 8 80 22 8 80 22 8 80 22 10 80 22 8 81 23 9 80 22 10 25 6 0 23 8 3 29 29 5 30 30 4 37 49 11 40 58 8 42 65 13 44 69 11 45 70 12 44 72 13 44 72 13 44 72 13 45 73 14 46 71 14 48 71 15 46 71 16 46 71 16 48 73 16 47 72 17 44 72 14 45 73 15 46 71 14 46 71 14 44 72 13 44 72 13 46 72 11 40 65 10 43 63 12 36 43 9 30 37 4 29 29 5 25 24 3 31 38 7 42 58 11 42 62 11 45 70 15 44 69 12 45 70 13 46 71 14 46 71 13 41 71 11 44 69 12 45 70 12 45 70 13 44 69 12 42 67 10 41 66 11 40 65 10 42 67 12 42 67 12 58 74 35 57 75 33 53 74 31 53 75 29 32 34 12 21 11 2 15 6 27 6 3 50 9 2 54 4 0 59 5 1 60 5 0 59 5 1 60 2 1 59 4 0 59 8 0 47 6 1 41 6 0 50 5 0 58 5 1 52 3 0 45 4 2 42 3 0 31 3 0 31 0 0 26 1 1 29 1 11 46 2 13 45 1 15 54 0 17 55 3 18 57 4 20 56 14 30 63 30 50 74 27 49 72 
80 71 66 80 67 58 79 35 22 80 34 21 80 24 11 80 22 10 79 21 9 80 22 10 78 22 7 80 22 8 80 22 10 78 20 8 78 22 7 79 21 9 79 21 7 68 19 5 69 19 8 44 15 7 41 12 6 31 12 5 25 12 4 24 14 4 24 18 4 24 21 4 27 29 5 30 32 8 34 41 8 35 42 9 36 48 10 35 47 9 35 50 9 35 50 9 38 50 10 35 50 9 36 48 8 33 45 5 33 43 8 33 36 7 32 35 6 27 29 5 27 30 3 30 35 5 30 37 6 37 54 9 40 58 10 40 63 11 41 65 13 42 67 10 44 69 12 44 69 12 43 71 12 43 71 12 44 69 11 45 70 13 45 70 12 43 71 13 44 72 13 46 71 13 43 68 11 44 69 12 43 68 13 41 66 11 40 65 10 40 65 10 41 64 10 55 73 31 55 73 31 50 72 23 52 72 21 38 50 12 29 34 4 24 20 9 16 3 12 15 4 20 10 2 39 11 3 44 6 0 60 7 1 61 6 1 59 6 1 57 4 1 58 5 0 58 2 1 58 4 1 58 4 1 56 4 2 52 4 0 51 6 1 41 4 2 42 3 0 29 1 2 30 2 9 38 2 11 40 1 15 44 1 16 47 2 19 47 3 20 50 2 22 46 4 23 37 5 24 38 
79 80 72 78 74 65 79 35 24 78 36 24 79 22 11 80 22 10 80 22 8 78 20 8 80 22 8 78 22 7 80 22 10 78 20 8 79 21 7 80 22 8 79 21 7 75 22 8 75 18 7 47 14 7 41 12 8 31 7 3 23 5 1 22 7 2 22 9 1 24 14 2 29 24 5 28 25 6 31 36 6 30 34 7 33 43 8 34 44 9 35 47 9 35 47 7 35 47 7 34 46 8 34 44 7 30 41 7 33 40 7 30 32 8 29 31 9 25 24 3 25 24 3 28 32 5 30 33 6 36 53 9 41 61 10 43 68 11 44 72 11 44 72 13 46 71 13 44 72 13 42 70 11 43 71 12 45 70 12 44 69 12 46 71 13 43 71 12 45 70 12 45 70 12 42 70 12 43 68 10 42 67 12 41 66 11 40 65 10 41 66 11 41 64 10 55 73 31 55 73 31 50 72 23 49 72 20 38 53 14 33 40 7 25 22 7 16 4 6 16 4 14 12 2 36 11 3 40 9 1 61 7 1 61 5 0 58 5 2 57 5 1 60 4 1 58 5 0 61 4 1 56 4 2 52 5 0 56 5 1 52 6 1 42 6 1 42 1 1 29 1 0 31 3 10 38 2 11 40 0 16 42 1 17 42 2 19 45 0 20 47 2 20 42 1 21 32 0 20 31 
80 77 68 80 76 67 80 53 42 80 53 42 79 27 13 81 23 9 80 22 8 79 21 7 80 22 8 79 23 10 80 22 11 80 22 10 80 22 10 80 22 10 78 22 9 79 23 8 79 21 7 65 16 12 65 15 14 61 13 13 58 12 12 54 13 11 47 14 7 41 13 9 28 20 9 31 25 13 60 61 47 62 63 49 58 59 45 58 59 45 57 58 44 56 58 44 58 59 43 59 57 42 59 60 44 61 62 48 63 64 50 67 67 55 66 67 51 61 66 44 61 64 43 50 64 28 49 64 25 45 68 14 43 68 13 44 69 12 44 72 13 46 71 13 45 70 12 43 71 12 43 71 12 44 72 13 45 70 13 45 70 12 45 70 13 45 70 12 43 71 12 45 70 12 45 70 12 44 69 12 44 69 12 41 66 11 41 66 11 40 65 10 41 66 11 45 69 17 45 69 17 45 70 15 44 72 14 41 61 12 39 55 10 41 48 15 38 41 20 32 34 20 19 7 11 18 6 16 8 3 57 11 2 57 9 2 54 7 0 56 4 1 58 5 2 59 4 0 59 4 1 58 2 1 59 3 0 57 4 1 58 5 2 57 4 1 56 5 1 51 6 0 50 5 5 43 4 4 40 2 9 37 1 12 34 0 15 36 1 18 36 0 21 35 0 27 31 1 30 36 
78 78 70 79 76 69 80 57 49 80 57 49 79 27 13 78 22 7 81 23 9 78 22 5 79 21 9 78 22 7 79 23 10 80 22 10 79 21 7 79 23 8 79 21 9 80 22 8 81 22 8 74 16 14 71 15 14 71 15 14 70 14 15 64 14 13 58 15 9 46 17 11 27 18 11 34 25 18 73 70 63 72 69 62 67 62 56 69 64 58 67 62 56 64 60 51 64 61 54 67 60 54 68 65 58 71 68 61 73 70 63 80 77 68 77 77 67 71 79 56 73 78 56 57 74 32 55 74 29 48 73 18 45 70 13 45 70 12 44 69 11 46 71 14 45 70 12 45 70 13 44 69 11 42 70 11 43 71 12 42 70 11 44 72 13 43 71 12 45 70 13 43 71 12 44 72 13 45 70 12 45 70 13 41 66 9 41 66 11 41 66 11 41 66 11 43 68 10 42 67 10 44 69 11 44 69 12 42 65 11 41 61 10 41 56 15 44 54 20 39 42 21 23 8 3 19 7 7 9 0 53 10 1 54 9 0 55 9 1 58 6 1 57 4 0 59 5 1 62 4 1 58 5 1 62 2 1 59 4 3 61 5 2 59 3 2 60 5 0 56 6 1 55 3 3 39 5 3 40 2 10 33 2 10 33 0 15 31 1 17 32 0 23 31 0 31 34 0 33 34 
81 78 69 82 73 66 79 41 28 79 41 28 81 25 12 79 23 10 80 22 8 79 21 9 80 22 10 78 22 9 80 22 8 79 23 8 78 20 8 79 21 9 80 22 8 78 20 8 80 22 10 71 15 14 71 15 14 71 15 14 69 15 15 68 18 11 67 19 7 50 17 8 26 13 7 31 18 12 70 67 60 71 68 61 73 70 63 74 71 64 72 69 62 72 69 62 73 70 61 73 70 63 75 72 65 76 73 66 75 75 65 78 78 68 77 77 67 76 78 64 76 79 62 68 76 53 68 77 50 60 74 41 60 74 39 54 73 27 49 72 20 48 71 15 43 71 12 43 71 12 42 70 11 44 69 12 45 70 12 45 70 13 46 71 14 45 70 13 43 71 12 43 71 13 45 70 12 44 69 11 44 69 11 41 66 11 42 67 10 41 66 11 42 66 14 43 66 10 43 68 13 44 69 12 45 70 12 45 68 16 44 66 17 50 67 25 54 65 31 46 52 26 23 13 4 21 11 9 10 2 51 10 2 51 8 0 59 8 0 59 5 0 59 3 2 60 3 2 60 5 1 60 5 1 60 4 0 61 4 0 59 4 0 59 4 0 61 6 1 59 6 1 59 3 1 50 3 1 50 5 5 43 1 6 38 2 9 37 1 13 35 1 19 39 0 25 45 3 25 46 
80 77 68 80 70 61 78 25 9 79 23 10 80 22 8 80 22 8 79 21 9 80 23 6 79 21 9 79 23 8 80 22 8 80 22 8 79 23 8 80 22 10 78 22 9 77 21 8 77 20 9 70 15 12 71 15 14 69 15 13 69 15 13 73 18 11 79 21 7 59 16 7 22 4 0 28 13 10 68 65 58 69 66 59 78 78 68 80 77 68 80 77 68 77 77 69 78 78 70 81 78 71 81 78 71 78 78 70 79 79 69 79 79 67 79 78 73 81 78 69 80 77 68 79 79 71 81 81 73 78 78 66 74 76 63 59 74 41 54 73 28 49 71 22 43 71 13 44 70 9 45 70 13 45 70 13 44 69 11 45 70 12 44 72 14 43 71 12 43 71 12 42 70 11 43 71 12 46 71 13 44 69 11 42 67 12 42 67 12 40 65 10 40 64 12 42 67 10 43 68 13 44 69 11 46 72 11 47 71 19 50 72 23 54 75 32 63 77 41 53 62 31 26 18 5 25 17 14 13 1 47 11 2 45 9 1 60 6 0 60 6 0 60 5 1 60 2 1 59 3 2 60 4 1 58 3 2 60 5 1 60 3 2 62 2 1 61 5 1 60 6 0 60 4 1 58 4 1 58 4 2 49 4 1 44 3 7 44 3 10 39 1 14 46 1 21 56 1 21 58 
79 75 64 80 67 59 80 24 9 78 25 9 80 22 8 79 23 10 80 22 8 79 21 9 80 22 8 80 22 8 80 20 9 79 21 9 79 23 8 80 22 8 81 23 11 73 21 10 73 21 10 55 11 10 50 10 10 51 11 9 51 14 8 56 16 8 63 16 6 47 13 4 21 6 1 26 11 6 57 58 42 57 58 44 78 78 70 79 79 69 79 76 69 78 78 70 79 79 71 80 77 68 78 78 70 82 79 72 78 79 71 79 79 71 81 78 69 78 78 70 79 79 71 79 79 71 78 78 70 77 77 67 77 79 66 67 75 52 62 75 45 58 73 34 49 69 16 46 71 14 43 71 13 44 72 13 46 70 12 45 70 13 46 71 13 43 71 12 44 69 12 45 70 12 45 70 13 42 72 12 43 68 11 42 67 12 39 66 11 41 66 11 41 65 13 44 67 11 42 67 10 46 71 16 48 71 19 55 74 29 57 74 32 60 74 38 64 78 43 53 62 31 27 21 9 25 17 14 10 3 45 10 3 45 9 1 60 7 1 61 6 0 60 5 1 60 2 1 59 3 2 60 2 2 62 3 2 62 2 0 63 1 0 66 3 1 66 5 0 64 5 1 62 5 1 60 6 3 58 4 2 52 4 2 51 3 5 46 0 6 40 1 9 46 0 14 53 2 16 53 
79 70 61 81 64 54 79 21 9 79 21 7 81 21 10 79 21 9 80 22 8 78 22 9 80 22 10 78 22 7 80 22 8 80 22 8 80 23 12 79 26 12 81 28 12 62 17 11 64 16 12 29 8 5 23 5 1 21 8 2 18 9 0 25 8 1 33 9 5 29 8 3 26 7 1 28 11 4 38 47 18 39 46 15 80 80 70 80 77 68 77 78 70 79 79 71 79 79 69 79 79 71 80 80 72 81 78 69 79 79 69 82 79 70 80 80 72 78 78 68 81 78 69 79 79 71 81 78 71 81 78 71 79 79 71 78 78 70 80 80 72 69 77 53 53 72 26 50 72 23 45 70 12 44 70 9 45 70 12 45 70 12 44 69 12 46 71 14 42 70 12 45 70 12 46 71 13 43 71 12 42 70 12 41 66 11 42 67 12 41 64 10 41 64 10 42 67 10 43 68 13 50 72 25 53 75 28 61 75 40 65 76 46 67 78 46 69 78 47 60 62 38 29 23 11 27 20 14 10 1 44 9 0 45 7 2 60 7 1 61 5 1 62 5 0 61 6 0 60 4 0 63 3 1 64 0 1 66 1 1 71 1 1 71 2 2 72 0 0 64 1 1 65 3 2 60 5 1 60 4 1 58 4 0 59 4 2 52 4 1 44 5 2 47 4 3 45 4 3 45 
81 68 59 80 62 52 79 21 9 80 22 8 80 22 10 80 22 8 81 24 7 80 22 10 79 21 7 79 21 9 78 22 9 80 24 9 78 25 11 80 27 11 80 27 11 54 15 10 54 13 9 28 14 3 25 15 5 24 18 2 22 21 3 26 17 2 31 15 2 31 15 2 27 13 4 27 17 5 38 49 17 38 48 14 72 76 59 73 75 61 77 77 67 79 79 69 79 79 69 80 77 70 81 78 69 81 78 71 79 79 71 79 79 69 79 79 71 81 78 71 81 78 71 79 79 69 79 79 69 80 80 70 78 78 70 77 77 67 77 79 66 67 75 51 51 71 22 49 72 20 44 69 12 45 70 12 46 71 14 45 70 13 45 70 12 45 70 12 42 70 12 42 70 12 46 70 12 45 70 13 44 69 12 42 65 9 41 66 11 42 65 11 42 65 13 43 68 11 42 67 12 53 72 26 53 74 31 60 76 39 64 75 43 65 76 44 66 76 42 54 63 34 26 22 10 26 19 11 13 2 44 11 3 44 8 0 59 7 2 60 4 0 63 5 0 64 3 2 62 2 0 63 1 1 65 2 1 67 2 1 69 1 1 71 1 0 70 2 2 66 2 2 66 2 1 61 5 1 60 3 2 62 2 1 59 4 1 54 5 2 49 4 2 49 4 2 49 5 3 50 
78 59 52 78 54 42 79 21 7 78 20 8 80 22 8 79 23 10 80 22 10 80 22 8 78 22 7 78 22 7 76 23 9 77 25 12 79 27 13 80 28 14 82 29 13 25 7 3 23 8 3 30 37 6 31 41 7 36 53 9 38 57 11 33 45 7 28 30 6 28 32 5 30 34 7 30 37 6 37 57 8 38 57 11 52 66 31 53 67 32 74 75 61 79 79 71 78 78 68 80 77 72 79 79 71 78 78 68 80 80 70 78 78 70 80 80 72 81 78 69 82 78 69 81 78 71 78 78 70 80 77 70 79 79 71 74 77 60 71 76 54 60 74 39 44 69 12 45 70 12 42 69 14 46 71 14 45 70 13 45 70 15 45 70 12 43 71 12 42 70 12 43 71 13 43 71 12 42 71 13 44 69 12 41 66 11 41 66 11 42 65 11 41 64 10 46 71 14 45 70 13 55 74 29 59 75 36 57 75 35 60 76 39 56 77 34 57 76 30 48 62 26 25 19 5 25 16 11 10 2 41 12 2 39 9 0 59 7 1 61 5 0 66 3 1 66 5 0 66 3 1 64 2 1 61 5 1 62 5 1 62 3 0 67 3 2 68 4 3 63 4 0 59 3 0 62 6 2 61 2 2 66 0 1 66 3 2 62 4 1 58 3 0 58 2 1 59 3 2 60 
