P3
100 50
255
24 77 21 24 79 24 26 81 24 26 81 24 27 82 25 26 83 28 27 84 29 30 85 30 28 82 30 28 82 30 28 82 30 29 83 31 29 83 31 28 82 32 28 82 30 29 81 32 28 80 31 26 78 30 26 78 30 25 77 29 26 75 30 24 76 28 24 76 28 25 77 28 24 76 27 24 76 27 23 75 26 25 75 26 24 74 23 23 73 24 22 70 20 22 72 21 20 68 16 20 68 16 20 64 15 19 63 14 19 58 11 20 53 10 20 48 7 20 43 1 20 41 0 24 34 0 25 35 1 25 35 0 26 33 0 60 44 18 66 46 21 60 31 25 56 24 25 43 30 13 25 35 1 45 37 14 79 45 35 69 41 27 41 29 13 42 30 16 22 33 0 22 33 1 20 34 1 20 34 1 21 32 0 23 34 0 26 36 2 29 39 4 38 37 9 73 38 36 75 36 39 96 39 71 95 40 71 94 88 92 96 85 91 92 50 72 91 38 64 88 33 52 89 33 46 86 32 48 88 30 54 82 34 56 68 42 69 68 46 69 48 57 72 48 57 72 39 46 56 37 46 55 66 36 48 75 31 46 82 41 59 87 48 69 78 51 66 64 59 66 69 59 58 91 63 42 90 63 44 88 35 77 88 35 77 83 25 73 82 24 74 89 38 69 93 46 64 93 46 64 
15 65 6 16 67 8 19 70 13 17 71 13 21 76 18 21 76 19 24 77 23 24 77 23 23 76 24 24 77 25 22 74 25 22 74 26 25 75 26 25 74 27 26 76 27 26 75 28 26 75 28 27 76 29 24 76 28 26 75 28 24 76 27 26 75 28 24 74 25 25 75 26 25 75 26 24 74 23 23 73 22 21 71 20 18 71 17 20 70 17 17 68 12 16 67 10 14 62 4 14 62 4 16 53 1 16 50 0 16 41 1 19 34 1 20 34 1 24 34 0 25 35 1 26 33 0 24 34 0 24 34 0 24 34 0 44 44 10 49 44 12 69 28 32 74 19 40 49 26 20 25 35 1 41 40 10 66 49 21 65 44 23 56 26 26 55 25 27 22 33 1 22 33 1 20 34 1 21 32 0 23 34 2 25 35 1 24 34 0 24 34 0 33 33 7 50 30 23 55 30 26 94 39 68 94 41 71 96 94 95 96 94 95 94 66 81 93 58 78 85 29 58 81 14 49 81 20 53 79 30 59 70 40 64 42 72 82 38 72 82 22 73 77 22 73 77 45 31 44 48 26 39 78 22 57 88 20 61 91 35 60 93 50 60 73 57 68 38 64 77 52 66 66 95 67 30 95 67 30 95 41 73 96 42 74 77 19 78 74 15 79 86 27 83 92 32 84 94 34 72 
17 57 4 15 58 5 18 61 8 18 62 9 19 66 12 20 67 15 23 67 16 21 68 16 22 68 19 22 68 19 21 67 18 21 69 21 22 68 21 22 68 21 21 69 21 22 68 21 20 70 21 22 70 22 22 70 22 22 70 22 21 69 21 21 69 19 21 69 21 21 67 20 21 67 20 22 65 19 22 65 19 22 64 16 20 62 14 19 61 13 19 59 9 20 60 10 19 56 5 18 55 4 17 49 2 19 48 4 22 40 0 20 35 2 21 35 2 27 34 3 25 35 0 24 34 0 25 35 1 27 34 1 25 35 0 43 40 7 45 42 9 70 28 32 78 23 42 52 27 22 27 34 1 38 39 7 57 46 16 58 41 21 64 24 32 65 25 33 23 34 2 23 33 0 23 34 0 23 34 0 27 34 1 28 35 4 28 35 4 27 33 5 31 33 9 49 35 24 54 37 30 83 43 70 86 43 71 95 89 91 96 90 92 93 65 80 95 58 76 85 30 59 78 17 50 77 22 53 75 37 62 66 47 69 39 73 82 37 71 81 28 66 75 28 66 77 54 28 53 60 26 53 80 23 58 89 22 63 91 37 61 94 54 55 72 60 64 41 64 78 54 63 68 91 60 39 89 61 37 95 48 68 95 47 69 77 20 75 75 16 80 83 24 80 87 27 81 90 29 73 
18 31 3 21 32 2 19 32 2 20 34 1 18 34 0 20 36 0 18 39 0 18 39 0 17 42 2 17 44 3 17 44 1 17 46 2 15 48 1 13 49 1 15 48 1 15 49 0 15 48 1 16 50 0 16 50 0 16 50 0 16 50 0 16 48 1 16 48 1 16 45 0 16 44 3 18 43 1 20 41 0 20 41 2 21 37 1 23 37 4 30 37 6 29 35 7 31 34 5 32 35 6 32 37 7 34 37 8 33 38 8 32 37 7 30 37 6 31 36 6 29 36 3 24 34 0 27 34 1 25 35 1 25 35 1 28 35 2 29 36 2 77 31 34 91 28 45 58 31 24 26 33 0 29 36 2 34 38 5 48 35 18 88 22 50 88 21 52 24 34 0 24 33 2 24 34 0 24 34 0 34 34 10 36 33 14 35 34 13 31 33 9 36 39 18 43 52 35 45 53 42 56 54 75 57 55 76 96 70 83 94 70 83 95 61 77 95 58 76 80 38 60 73 24 54 69 37 61 60 59 77 51 63 77 25 76 80 29 72 79 50 47 76 48 45 72 85 30 87 93 27 89 92 26 72 92 26 64 92 46 56 94 66 42 77 64 56 51 64 81 56 58 73 75 43 56 75 43 58 95 61 52 95 63 52 75 22 68 72 17 72 74 16 74 72 14 72 70 15 73 
18 32 0 21 32 0 21 35 0 20 34 0 20 36 0 21 37 1 20 38 0 21 39 1 16 41 0 17 42 0 18 43 1 18 45 0 17 46 0 18 47 1 16 48 1 16 48 1 15 47 0 16 48 0 16 48 0 17 49 2 16 48 1 18 45 0 17 46 0 18 45 0 18 43 1 19 42 0 18 40 1 20 41 2 23 37 2 22 36 1 29 36 5 29 36 5 30 35 5 32 35 6 31 36 4 32 38 4 31 36 6 32 37 7 32 35 6 29 36 5 30 37 4 25 35 1 25 35 1 24 34 0 24 35 3 29 36 2 28 35 1 73 33 33 89 31 43 59 32 23 29 33 6 30 35 5 34 38 5 48 36 14 88 24 50 89 23 50 26 32 4 27 34 3 27 33 5 28 32 5 37 35 14 44 35 20 42 35 16 39 37 14 37 42 22 39 55 44 43 56 47 52 59 77 51 57 79 90 66 80 89 65 79 92 57 77 92 55 73 77 37 63 65 29 55 67 39 61 64 58 72 54 60 72 34 71 79 35 69 78 52 41 75 52 41 75 82 27 85 87 25 88 91 25 71 91 24 65 91 45 55 91 65 42 77 62 57 54 63 80 55 58 73 69 45 59 69 45 59 96 62 52 94 62 51 77 24 70 73 19 71 70 15 70 68 15 71 69 14 71 
16 31 0 19 33 0 25 35 1 24 34 0 24 34 0 24 34 0 24 35 1 23 35 0 23 34 0 23 34 2 23 34 2 23 34 0 23 34 2 23 34 0 23 34 0 23 34 0 22 33 0 20 34 0 22 33 0 24 35 3 24 35 1 26 33 0 24 34 0 23 34 0 24 34 0 23 34 0 23 34 0 23 34 0 25 37 1 24 36 0 27 34 0 27 34 1 27 34 1 26 33 0 25 35 1 24 34 0 25 35 1 24 34 0 26 36 2 24 34 0 24 34 0 25 35 1 25 35 1 24 34 0 23 34 0 25 35 1 23 34 0 60 43 17 73 45 23 64 36 22 54 26 23 43 30 14 26 33 0 40 36 11 86 43 34 86 43 34 44 30 17 43 29 16 60 29 37 61 30 38 77 34 43 88 35 45 88 44 45 88 52 40 72 57 50 26 81 86 26 81 88 26 79 85 26 79 83 58 40 56 57 40 56 70 36 60 76 36 63 42 54 68 25 66 72 50 60 62 94 49 43 92 48 49 86 38 60 85 37 63 88 16 79 87 17 80 63 11 75 60 10 73 74 18 63 80 19 60 74 31 48 70 48 34 72 47 51 79 50 80 66 52 77 22 62 70 22 62 70 96 59 40 96 59 41 81 30 71 77 25 73 65 18 72 55 12 65 56 13 67 
16 33 0 19 33 0 23 35 0 25 35 1 23 34 0 24 34 0 23 34 0 23 34 0 23 34 0 24 34 0 23 34 0 24 34 0 25 34 3 25 35 1 23 34 0 23 34 0 23 34 0 23 34 0 22 34 0 24 34 0 23 34 0 24 34 0 24 34 0 23 34 0 23 34 0 23 34 0 21 35 0 23 34 0 23 34 0 23 34 2 24 34 0 24 34 0 24 34 0 27 34 0 23 33 0 25 35 1 24 34 0 25 35 1 25 35 1 26 33 0 23 34 0 25 35 1 25 35 1 24 34 0 24 34 0 24 34 0 24 34 0 59 42 16 72 46 23 64 36 24 52 26 25 42 29 13 24 33 2 40 36 7 85 42 35 85 42 35 46 30 17 44 30 17 59 30 35 61 30 38 79 33 44 87 35 47 88 44 45 88 52 40 73 58 51 23 81 83 26 81 84 25 78 84 27 80 84 59 41 57 58 40 56 72 36 62 76 36 63 43 55 69 25 66 72 50 60 62 93 50 43 91 47 48 86 38 62 85 37 63 86 16 78 88 16 80 64 10 72 61 9 73 73 15 63 79 18 60 74 33 49 70 46 36 71 46 50 77 48 78 64 52 76 21 61 69 23 64 70 96 59 40 96 59 40 80 30 68 77 25 73 63 19 68 57 14 67 57 13 66 
24 35 1 23 34 0 22 31 0 23 34 0 23 34 0 24 34 0 24 34 0 24 34 0 23 34 0 24 34 0 23 34 0 24 34 0 23 33 0 24 34 0 24 34 0 24 34 0 24 34 0 24 34 0 23 34 0 21 35 0 21 35 2 23 34 0 25 35 1 23 34 0 24 34 0 24 33 2 24 34 0 24 34 0 24 34 0 24 34 0 26 33 0 24 34 0 25 35 1 27 34 1 25 35 1 25 35 1 24 34 0 27 34 1 27 34 1 26 33 0 27 34 1 27 34 1 25 35 1 24 34 0 24 34 0 24 34 0 23 34 0 33 37 4 38 39 5 63 33 25 88 25 46 62 28 29 24 34 0 29 36 2 46 41 11 46 41 11 89 27 48 87 28 48 83 46 38 82 48 38 70 40 42 63 36 45 54 48 58 44 61 71 41 66 73 25 78 84 24 75 79 12 57 62 14 57 63 82 47 41 81 48 41 43 77 79 35 86 90 26 73 79 21 66 71 28 58 66 42 48 60 57 51 53 95 54 32 93 55 36 93 46 54 91 46 51 84 29 68 83 28 68 76 21 60 75 21 57 63 26 44 50 32 30 63 37 46 89 46 76 70 52 74 19 68 73 20 67 73 60 49 55 62 49 56 84 39 72 88 36 74 71 21 72 60 12 72 62 14 72 
22 33 0 23 34 0 23 34 2 23 34 2 24 35 1 23 34 0 24 34 0 24 34 0 24 34 0 24 34 0 23 33 0 24 34 0 24 34 0 24 34 0 23 34 0 24 34 0 24 34 0 27 34 1 23 34 0 19 33 0 19 34 1 23 34 0 23 34 2 23 34 0 24 34 0 24 34 0 25 35 1 23 34 0 24 34 0 25 35 0 24 34 0 24 34 0 25 35 1 23 33 0 24 34 0 24 34 0 24 34 0 27 34 0 27 34 0 27 34 3 28 35 2 27 34 1 24 34 0 25 35 1 25 35 1 24 35 3 23 34 0 32 38 4 34 38 5 62 31 28 92 22 50 66 27 30 24 34 0 29 35 1 40 39 8 41 41 7 94 29 53 92 28 52 85 47 38 86 50 38 70 41 43 61 35 44 48 50 62 37 63 76 33 67 77 25 78 84 23 74 78 11 55 58 12 56 59 83 49 39 86 49 40 42 82 81 28 92 94 24 77 81 19 67 71 26 59 68 36 48 64 51 51 53 94 57 28 98 58 32 93 49 48 94 50 49 87 32 64 85 31 67 76 22 58 73 19 53 60 26 43 48 30 28 63 35 47 88 45 72 71 52 74 18 69 72 18 69 73 56 46 55 55 47 58 85 39 75 89 39 76 72 22 75 63 13 72 62 14 74 
22 33 0 23 34 0 23 34 0 24 35 1 24 34 0 24 33 2 23 32 1 24 34 0 23 34 0 24 34 0 24 34 0 24 34 0 24 33 2 22 33 1 23 34 2 20 34 1 20 34 1 20 34 1 20 34 1 18 33 0 18 33 0 19 33 0 19 33 0 19 33 0 20 34 1 22 33 1 24 34 0 24 34 0 25 34 3 25 35 1 25 35 1 24 34 0 25 35 1 25 35 1 23 33 0 25 35 1 26 36 2 23 33 0 27 34 1 27 34 1 24 34 0 24 34 0 26 33 0 24 34 0 23 33 0 22 33 1 22 33 0 25 35 1 24 34 0 51 36 15 81 38 31 66 38 24 48 30 16 52 35 17 60 46 17 60 47 15 85 48 39 85 48 39 69 36 47 67 33 50 65 36 56 62 41 60 46 56 68 26 74 78 23 70 76 18 66 70 19 64 70 38 43 72 37 43 69 87 48 43 87 47 45 52 71 78 41 79 88 31 76 82 22 73 77 25 66 72 26 56 67 41 50 67 90 24 62 91 25 61 95 49 34 93 50 34 82 39 49 82 38 55 87 40 56 88 40 54 76 34 54 68 30 53 76 36 60 90 47 66 73 55 71 20 75 80 20 75 78 25 54 58 24 53 57 84 46 67 94 46 70 75 29 66 62 18 67 65 17 69 
23 34 0 21 35 0 23 34 0 23 34 0 23 34 0 24 34 0 23 34 0 24 34 0 23 34 0 27 34 1 24 34 0 24 34 0 21 35 2 20 34 1 19 33 0 20 34 1 20 34 1 19 33 0 20 34 1 18 32 0 19 33 0 18 33 2 19 33 0 18 33 2 18 34 0 22 33 1 26 33 0 26 33 0 24 34 0 25 35 1 23 33 0 25 35 1 24 34 0 24 34 0 25 35 1 24 34 0 28 36 0 26 33 0 27 34 0 24 34 0 24 34 0 25 35 1 24 34 0 25 35 1 25 35 1 23 32 1 24 33 2 22 33 0 23 32 1 48 38 13 75 42 25 67 38 22 56 31 26 59 37 24 66 49 19 66 49 19 82 54 32 81 55 32 64 30 54 61 24 57 61 32 62 64 42 65 42 58 73 23 76 80 21 72 76 15 62 68 20 60 68 46 39 73 45 38 72 87 45 46 88 46 47 55 68 77 44 73 87 34 74 84 25 74 79 24 68 77 21 59 70 38 49 71 89 14 73 91 18 71 94 49 28 95 50 31 81 41 49 82 40 50 90 44 55 91 45 55 83 38 59 74 29 60 80 36 63 89 46 63 73 55 69 19 77 79 19 77 79 15 56 58 15 56 58 84 50 66 95 48 68 77 31 67 66 20 66 65 18 70 
22 33 0 19 33 0 20 34 1 21 32 2 23 33 0 22 33 1 20 34 1 22 33 1 22 33 0 21 32 0 22 33 1 19 33 0 19 32 2 18 31 1 19 33 0 19 33 0 20 34 1 19 33 0 19 33 0 19 33 0 19 33 0 18 33 0 19 33 0 19 33 0 18 33 2 21 32 0 23 32 3 23 32 1 24 34 0 23 33 0 24 34 0 24 34 0 24 34 0 24 34 0 25 35 1 24 34 0 24 33 2 25 35 1 27 34 1 25 34 3 25 35 1 26 36 2 24 34 0 24 34 0 23 34 0 22 33 1 20 34 0 19 32 2 19 33 0 31 36 6 44 38 12 57 39 17 78 40 31 66 38 24 38 39 8 39 40 8 40 61 52 41 62 53 71 34 52 75 30 53 52 50 64 35 62 71 28 67 74 22 71 76 23 68 73 17 60 66 24 58 68 64 53 85 64 53 85 85 50 46 84 51 46 47 64 71 32 70 79 29 76 84 30 81 85 24 75 79 16 61 66 28 49 68 69 15 73 71 18 70 79 26 56 78 25 53 87 41 41 89 44 39 87 37 48 89 37 50 85 39 50 81 42 47 84 44 53 92 51 59 80 54 63 39 67 79 38 66 78 12 55 61 11 54 61 84 51 62 96 50 63 83 43 51 78 43 41 75 32 52 
18 32 0 20 34 1 21 32 2 21 32 0 20 34 1 19 33 0 22 33 1 20 34 1 20 34 1 20 34 1 18 32 0 18 33 0 19 33 0 18 33 0 18 32 0 21 32 0 19 33 0 19 33 0 19 33 0 19 33 0 19 32 2 17 32 1 19 33 0 20 34 1 19 33 0 19 33 0 22 33 1 20 34 0 24 34 0 24 34 0 26 33 0 26 33 0 24 34 0 25 35 1 24 34 0 25 35 1 27 34 1 25 35 0 25 35 0 25 35 0 24 34 0 26 33 0 25 35 1 23 34 0 23 34 2 22 33 1 20 34 1 18 33 0 19 33 0 23 34 2 24 34 0 52 37 14 92 44 32 73 42 24 22 33 3 22 33 3 16 66 65 18 68 67 74 35 54 83 31 53 43 57 68 19 74 77 19 72 76 20 69 74 22 67 73 20 57 65 29 59 67 74 63 93 75 62 92 82 53 45 83 53 43 42 63 68 27 65 74 29 78 83 30 85 88 25 76 80 13 61 65 26 49 67 57 16 72 59 16 72 70 12 70 71 13 71 92 41 37 92 44 30 89 33 42 87 30 49 85 40 45 84 51 44 89 51 48 96 52 51 85 54 60 52 61 78 51 60 77 12 55 61 11 54 60 86 53 60 93 52 58 92 54 41 87 56 27 83 38 45 
19 33 0 19 33 0 20 34 1 20 34 1 22 33 1 20 34 1 20 34 1 20 34 1 21 32 0 22 33 1 19 33 0 18 33 0 19 33 0 18 33 0 19 33 0 20 34 1 19 33 0 20 34 1 19 33 0 19 33 0 18 33 0 19 33 0 18 32 0 19 33 0 19 33 0 22 33 1 22 33 0 23 34 0 25 34 3 24 33 2 25 35 1 24 34 0 24 34 0 24 34 0 24 34 0 24 34 0 24 33 2 24 34 0 24 34 0 24 34 0 23 34 0 24 34 0 24 34 0 23 34 0 23 33 0 22 33 0 20 34 1 17 34 2 17 32 1 18 33 0 21 35 2 43 37 11 80 45 26 74 41 26 38 30 17 41 28 19 22 53 56 23 54 57 56 45 59 58 46 58 35 62 69 18 73 76 17 66 70 13 61 65 21 62 66 28 63 69 31 61 71 55 60 82 58 60 83 81 52 44 83 53 42 37 54 61 21 55 64 28 75 81 32 85 91 26 75 82 13 61 65 23 53 64 50 27 71 52 25 70 61 10 67 62 11 70 86 35 54 88 36 49 89 30 48 90 28 53 89 38 45 86 49 40 91 50 44 94 52 54 88 54 55 65 57 68 64 58 68 39 52 61 38 50 62 89 54 60 95 52 59 82 49 44 75 47 36 63 37 50 
22 33 1 22 33 1 22 33 1 22 33 1 23 33 0 23 34 0 24 35 1 23 34 0 22 33 1 22 33 1 21 32 0 19 33 0 22 33 1 22 33 1 22 33 1 23 34 2 22 33 1 22 33 1 22 33 1 22 33 1 22 33 1 20 34 1 19 32 2 22 33 3 21 32 0 22 33 0 22 33 1 23 34 4 25 35 1 24 35 1 26 33 0 27 34 1 26 33 0 26 33 0 25 35 1 24 34 0 24 34 0 23 34 0 23 34 0 24 34 0 24 34 0 22 33 1 21 32 0 22 31 0 22 33 1 23 34 2 19 33 0 17 32 1 17 32 1 15 32 0 15 31 2 31 36 4 57 42 13 60 37 21 72 20 42 69 20 41 32 30 43 33 31 44 23 67 70 22 72 73 20 69 73 20 69 74 13 58 61 5 46 50 13 51 54 42 71 77 39 68 76 28 54 67 28 55 66 85 52 43 85 52 43 30 43 49 14 43 51 26 69 76 34 84 93 27 74 82 17 60 66 22 56 65 35 46 66 37 41 66 53 9 72 54 8 70 76 25 84 80 26 84 92 26 64 94 24 58 91 35 46 92 46 33 91 46 41 95 50 55 95 48 54 90 54 54 90 55 51 84 46 67 83 45 66 91 55 55 93 54 55 69 39 51 55 27 49 33 33 57 
23 34 2 24 34 0 24 35 3 24 33 2 25 35 1 25 35 1 24 34 0 24 34 0 23 33 0 23 34 0 22 33 0 23 33 0 22 33 0 23 34 0 23 34 0 23 34 0 23 34 0 22 33 1 22 33 1 22 33 1 22 33 1 22 33 1 22 33 1 22 33 1 22 33 1 22 33 1 23 32 1 23 34 2 25 35 1 25 35 1 25 35 1 25 35 1 25 35 1 23 33 0 25 35 1 24 34 0 24 34 0 23 34 0 23 34 0 24 34 0 24 34 0 23 33 0 23 33 0 23 32 1 24 33 2 21 32 0 19 32 2 17 32 1 16 33 1 15 32 0 16 31 2 30 34 7 54 38 22 59 34 27 76 25 44 75 24 43 34 36 51 36 35 51 24 68 71 21 70 74 20 69 73 18 66 70 20 53 60 21 41 50 25 48 56 46 62 77 43 61 75 25 55 65 26 56 66 83 50 43 84 51 44 43 43 55 30 42 58 37 64 81 40 77 95 33 71 82 19 62 69 20 58 67 29 48 63 32 43 61 61 11 72 59 11 71 76 22 80 78 22 83 90 25 65 94 24 61 92 35 50 90 45 42 94 45 48 96 49 59 94 49 56 89 51 50 92 50 51 84 46 61 84 46 59 93 55 54 93 54 55 70 38 51 59 27 50 35 37 60 
26 35 4 28 35 2 26 35 4 28 35 2 28 35 2 26 33 0 26 33 0 24 34 0 24 34 0 24 34 0 24 34 0 24 35 1 24 34 0 23 33 0 25 35 1 25 35 1 24 34 0 24 34 0 24 34 0 24 34 0 25 36 2 23 34 0 23 34 0 23 34 0 24 34 0 24 34 0 24 34 0 24 34 0 24 34 0 24 34 0 25 35 1 25 35 1 24 34 0 24 34 0 24 34 0 24 34 0 24 34 0 24 34 0 26 33 0 24 34 0 23 35 0 24 34 0 24 34 0 22 33 0 22 33 1 18 32 0 17 32 1 15 31 2 16 31 0 17 32 3 16 30 4 26 30 15 44 28 39 56 30 41 94 37 46 93 36 45 42 49 77 43 49 75 22 65 72 19 67 71 14 59 64 11 52 56 38 41 56 65 29 57 62 32 60 59 40 72 55 42 70 11 59 63 12 60 62 84 50 41 82 49 42 77 42 72 77 40 83 66 52 87 60 61 89 48 66 86 24 71 79 22 67 72 10 53 59 21 51 61 79 19 71 79 19 71 68 14 76 64 13 79 86 25 69 93 29 66 93 37 66 94 43 60 95 42 62 98 40 65 98 41 60 93 36 45 95 38 47 90 45 39 92 45 39 94 55 50 94 55 50 77 35 57 66 25 59 38 50 74 
25 34 3 28 35 2 27 34 3 27 34 1 25 35 1 28 35 2 24 34 0 26 36 2 25 35 1 23 33 0 22 33 0 25 35 1 24 34 0 24 34 0 25 35 1 24 34 0 24 34 0 24 34 0 24 34 0 24 34 0 25 35 1 23 34 0 23 34 0 25 35 1 24 34 0 25 35 1 24 34 0 25 35 1 24 34 0 25 35 1 25 35 1 24 35 1 24 34 0 25 35 1 22 33 0 24 35 1 23 34 0 23 34 0 24 34 0 24 34 0 23 34 0 24 34 0 24 34 0 22 33 1 23 34 2 18 33 0 16 32 3 16 33 1 14 33 1 16 31 2 16 30 4 28 30 19 47 27 39 56 29 38 94 37 46 93 36 43 41 48 76 42 49 75 22 65 72 19 67 71 12 57 60 9 53 56 37 40 55 65 29 57 65 32 59 59 40 70 53 43 70 11 59 63 11 59 63 82 49 40 83 49 40 77 42 72 75 38 81 65 54 88 60 61 91 48 65 85 25 72 80 21 68 74 10 54 57 20 50 61 80 19 76 79 19 73 66 14 78 64 11 79 84 22 69 94 28 66 91 34 66 92 44 60 94 43 62 94 42 65 94 41 61 94 37 43 96 36 44 91 46 40 90 45 39 92 53 48 93 56 50 77 35 55 68 24 59 38 50 74 
39 41 20 39 40 22 39 41 19 38 40 18 33 38 8 31 36 6 28 35 4 28 35 2 25 35 1 24 34 0 25 35 1 25 35 1 24 34 0 24 34 0 24 34 0 24 34 0 23 34 0 23 34 0 25 35 1 23 34 0 23 34 2 22 33 1 23 34 2 23 34 2 18 33 0 20 34 1 20 34 1 20 34 1 22 33 1 21 32 0 23 34 2 23 34 2 22 33 0 23 34 0 23 34 0 22 33 0 24 35 1 24 35 1 24 34 0 24 34 0 25 35 1 25 35 1 24 34 0 23 34 0 24 35 1 26 33 2 25 34 3 41 29 29 48 28 39 50 29 62 51 30 86 54 30 88 59 35 95 60 37 93 61 43 83 60 42 80 14 65 69 15 66 70 13 60 66 13 61 65 33 45 67 44 37 68 68 46 58 94 53 49 88 47 51 72 29 59 66 31 61 13 54 60 12 55 61 84 45 38 82 45 37 92 42 80 92 39 91 89 41 93 87 43 96 62 56 90 23 81 83 19 72 76 9 50 56 15 50 56 69 40 62 69 39 63 85 45 54 89 46 55 90 33 65 91 29 66 92 42 51 92 57 38 89 48 56 84 34 83 82 36 85 73 36 90 71 36 90 32 59 78 31 60 78 84 54 52 92 54 51 39 44 48 8 41 48 20 38 52 
39 41 19 39 41 19 39 41 20 38 40 16 32 37 7 32 37 7 28 35 2 28 35 2 27 34 1 24 34 0 24 34 0 26 33 0 24 34 0 24 34 0 23 34 0 22 33 0 21 35 0 23 34 0 25 35 1 23 34 0 23 34 2 22 33 1 22 33 1 21 32 0 21 32 0 19 33 0 19 33 0 20 34 1 20 34 1 21 35 2 22 33 1 23 34 0 23 34 0 22 33 0 21 35 0 21 32 0 23 34 0 23 34 0 24 34 0 27 34 1 28 35 2 25 35 1 24 34 0 24 34 0 23 34 0 24 33 2 24 33 4 40 28 30 47 27 38 50 29 60 51 30 86 54 31 87 58 34 94 59 36 92 60 44 81 59 43 80 13 64 68 15 64 69 13 61 63 15 60 66 34 47 66 45 38 69 71 45 58 93 52 46 89 47 51 73 29 62 65 32 59 13 54 60 13 54 58 83 44 37 83 44 37 91 41 79 94 41 95 88 41 93 86 41 96 63 56 90 22 81 85 22 73 76 9 50 54 16 49 56 67 39 62 69 40 62 87 45 55 88 45 52 90 34 63 91 29 66 90 43 53 92 55 37 90 49 57 84 36 84 83 37 86 71 37 88 72 38 89 31 60 78 31 60 78 84 54 52 93 53 51 40 45 49 7 40 47 20 40 51 
26 35 6 30 36 8 36 38 14 36 38 14 32 36 9 32 37 7 30 37 4 31 36 4 31 36 4 31 37 3 30 35 3 29 36 3 24 33 2 19 33 0 21 32 0 22 33 1 24 33 2 20 34 1 19 33 0 21 32 0 20 34 1 18 31 1 17 32 1 15 32 0 17 32 1 14 30 1 17 34 2 15 32 0 18 31 1 17 32 0 22 33 1 20 34 0 22 33 1 23 32 3 22 33 0 23 32 1 22 33 1 22 33 1 24 34 0 23 33 0 24 34 0 28 35 4 30 32 8 47 30 36 47 31 34 69 33 71 71 34 75 73 35 84 72 35 89 71 36 92 73 35 94 69 34 92 66 37 95 53 41 87 21 59 68 21 58 67 15 62 68 15 63 67 18 40 51 19 37 47 61 55 69 83 62 77 88 67 74 92 70 72 90 66 64 89 54 48 90 52 51 77 31 59 75 31 58 94 45 41 94 44 43 94 42 81 93 40 94 92 42 95 91 40 96 71 53 91 34 72 85 30 68 77 13 57 60 16 55 62 25 45 56 25 45 56 85 37 51 94 35 53 87 33 47 84 30 44 90 42 40 93 56 38 88 48 57 73 36 90 73 36 90 69 35 86 69 34 88 57 42 85 58 43 84 87 49 60 91 50 54 36 44 47 3 38 40 31 37 61 
26 35 6 30 36 8 35 37 13 35 37 13 32 36 9 32 36 9 31 36 6 30 35 3 32 37 5 31 36 6 30 35 5 31 34 5 24 35 3 21 32 2 19 32 2 21 35 2 22 31 0 18 32 0 17 32 1 19 33 0 19 32 2 17 32 1 16 32 3 15 31 2 15 31 2 15 31 2 15 31 2 13 32 2 16 33 1 18 33 2 19 33 0 19 33 0 22 33 0 22 33 1 22 33 0 23 34 0 22 33 1 22 33 1 20 34 1 23 32 1 23 34 2 28 35 4 30 32 8 54 28 41 52 29 39 74 32 78 78 34 85 77 36 92 77 38 95 76 37 94 74 36 95 71 38 95 67 36 95 54 42 88 14 62 66 16 61 67 17 62 67 16 61 66 19 39 48 17 34 44 65 55 64 90 66 80 91 70 77 91 75 76 91 70 69 91 59 46 90 56 47 87 28 58 86 27 57 95 45 44 94 44 43 94 42 81 93 40 92 93 40 96 93 40 96 70 52 92 38 71 86 31 67 79 14 57 63 17 56 63 20 47 54 19 46 55 86 35 52 94 32 53 85 31 44 85 29 40 88 43 40 94 55 38 85 48 56 72 35 89 71 33 90 69 35 86 72 35 87 60 41 86 62 40 86 85 49 59 90 51 56 34 44 46 0 39 38 31 37 63 
29 36 5 32 39 8 32 36 9 32 36 9 28 34 6 30 37 6 25 35 1 28 35 2 28 35 2 25 34 3 22 33 1 20 33 3 20 34 1 18 31 1 16 31 0 16 33 1 17 32 1 16 33 1 16 33 1 17 34 0 19 32 2 18 32 0 17 32 1 17 32 1 17 32 3 16 33 1 15 31 2 16 32 3 15 32 0 16 32 3 18 31 1 18 33 2 20 34 1 19 33 0 22 33 1 23 34 2 24 33 4 24 33 2 30 31 13 43 29 29 47 32 39 61 34 65 65 34 68 67 36 80 68 35 82 75 36 91 76 37 92 75 35 95 75 37 96 75 37 96 73 38 96 62 40 89 40 46 78 34 50 75 15 60 65 14 59 65 10 49 54 9 50 52 60 52 50 68 53 50 86 45 61 91 36 65 88 54 70 87 72 75 87 71 74 89 69 68 89 67 69 89 57 58 88 57 55 95 47 37 94 46 36 94 41 69 93 38 78 91 37 86 89 39 92 79 46 91 64 54 89 53 57 86 21 66 72 20 65 71 9 44 50 6 43 51 78 36 58 89 37 59 73 41 46 71 41 39 81 40 44 92 39 49 87 39 51 85 42 51 82 41 57 72 41 75 75 39 75 60 38 74 59 37 73 80 49 65 84 47 64 33 43 52 2 40 43 10 34 46 
29 36 5 29 35 7 31 35 8 30 34 7 28 35 4 28 35 2 26 33 0 27 34 1 25 35 1 24 33 2 19 33 0 17 32 1 19 33 0 18 33 2 17 32 1 14 30 1 15 31 2 14 31 0 16 31 2 18 33 2 19 33 0 18 33 0 18 31 1 18 33 2 17 31 5 18 33 4 15 31 2 16 32 3 15 31 2 15 32 0 17 32 1 17 32 1 18 33 2 17 32 1 23 34 0 24 34 0 23 34 2 24 33 4 34 32 17 49 27 39 54 31 51 74 34 86 74 34 86 74 36 93 75 36 93 76 36 96 75 37 96 74 36 95 75 37 96 75 37 94 71 36 94 57 44 88 33 51 75 28 54 69 13 61 65 14 59 64 7 46 51 6 45 50 76 57 53 85 58 51 90 39 56 92 27 61 88 49 67 85 72 79 87 73 73 88 72 75 87 71 74 90 68 55 90 68 57 93 47 32 95 48 32 94 40 63 91 37 71 90 38 84 89 39 92 82 42 92 70 47 89 61 54 87 21 72 76 19 68 72 3 44 46 4 44 46 78 40 61 87 39 61 69 43 44 64 45 39 78 38 46 91 34 51 90 37 47 89 44 39 86 44 46 74 41 68 75 41 68 61 37 73 60 38 74 79 47 70 80 49 67 29 43 54 0 39 44 4 34 42 
28 35 2 26 35 4 28 34 6 25 34 5 23 34 2 23 34 4 22 33 1 22 33 0 22 33 1 22 33 1 17 30 0 18 33 2 17 32 1 17 32 1 15 32 0 15 31 2 15 31 2 15 31 2 14 30 1 17 32 1 17 32 1 16 33 1 16 33 1 17 34 2 17 33 4 19 34 5 18 33 4 19 34 5 20 33 5 19 34 5 20 33 3 19 32 2 19 33 0 21 32 2 31 32 18 35 32 17 44 32 34 48 32 42 54 33 52 63 33 69 64 34 72 70 35 91 72 34 91 71 38 95 71 37 97 69 35 95 71 35 96 66 35 94 66 37 95 64 37 92 61 38 90 46 44 83 20 54 66 19 56 65 12 55 61 13 57 60 33 54 59 32 53 58 76 62 62 84 66 66 88 51 58 90 42 56 90 46 61 89 50 69 87 55 68 86 71 76 87 71 74 89 70 64 88 69 65 95 49 34 95 49 36 91 48 57 90 48 60 91 43 65 91 41 68 90 41 70 80 41 70 65 50 69 22 71 76 19 68 72 5 44 49 6 44 47 55 44 48 63 44 48 71 40 55 75 41 58 75 36 63 73 33 68 76 33 63 74 32 54 74 32 52 74 32 56 74 32 54 76 43 50 76 43 50 83 44 62 87 45 65 54 41 51 37 40 47 31 33 45 
27 34 1 24 34 0 22 33 0 20 34 1 19 34 3 18 33 2 19 32 2 19 32 2 19 32 2 18 33 0 18 32 0 19 33 0 17 32 1 16 31 0 15 32 0 13 32 0 15 32 0 15 31 2 14 30 1 14 30 1 14 30 1 15 31 2 15 31 4 17 32 3 19 34 5 22 32 5 20 35 6 24 35 5 26 35 6 25 34 7 23 34 2 24 35 5 24 33 4 24 33 4 41 29 29 48 28 39 62 31 65 71 33 82 73 34 87 78 37 97 75 36 93 70 36 96 70 36 96 66 35 95 67 36 96 64 36 94 64 36 97 60 34 95 60 34 95 55 36 91 48 41 85 32 47 78 12 57 60 11 56 59 9 53 56 10 51 55 55 60 66 56 61 65 77 70 77 80 70 78 87 62 58 90 56 46 90 44 55 93 28 60 90 37 63 85 68 74 85 70 75 88 72 73 88 72 75 95 48 38 93 49 38 89 57 44 88 60 48 93 47 47 94 39 44 92 39 45 91 39 52 73 45 57 20 73 77 19 68 72 6 43 49 5 45 47 35 47 37 40 48 35 73 39 64 85 35 73 70 34 80 54 31 85 56 28 77 60 21 66 64 22 62 71 22 41 73 21 43 91 49 25 93 48 27 88 40 54 90 38 60 80 40 51 75 39 49 58 31 46 
25 35 1 25 35 1 24 35 3 23 34 2 22 33 1 20 34 1 18 31 1 22 33 3 18 32 0 20 31 0 19 34 1 21 35 2 23 36 6 25 38 10 25 40 11 22 38 9 21 38 6 22 37 8 23 38 9 23 37 11 22 38 9 23 38 9 22 37 8 27 37 10 25 38 10 28 38 11 29 39 12 29 39 12 30 38 14 29 38 11 31 34 15 32 35 16 37 34 29 36 33 28 53 35 49 59 36 56 68 36 73 74 38 86 76 38 89 79 40 95 79 40 95 72 39 94 70 40 94 70 40 94 72 39 94 67 38 94 67 38 96 62 37 92 61 38 94 47 42 83 33 47 76 23 50 69 12 55 61 13 54 58 16 51 55 13 51 54 65 64 70 66 65 70 80 70 78 81 70 76 85 67 67 87 64 58 88 51 58 91 40 57 93 42 59 88 55 66 89 57 68 89 68 75 89 68 73 95 48 40 95 48 38 90 59 54 90 61 57 86 43 52 85 31 47 78 31 49 68 30 51 60 39 58 26 65 72 22 63 69 8 47 52 9 48 53 24 44 42 26 46 37 71 38 57 85 34 65 66 30 66 45 23 69 43 22 65 41 14 55 41 15 50 49 17 41 49 17 40 92 49 33 89 51 32 82 33 54 81 31 58 66 31 55 59 30 52 53 28 50 
27 34 1 28 35 2 25 34 3 27 34 1 27 34 1 23 33 0 20 31 0 19 33 0 19 33 0 18 32 0 23 37 4 25 38 8 36 44 20 43 51 27 41 51 24 39 49 24 39 49 24 36 49 23 36 49 23 38 48 21 38 48 23 36 46 21 34 47 21 34 47 21 36 46 22 36 46 21 38 46 22 38 46 22 40 46 20 41 46 23 46 37 32 46 35 31 59 34 66 58 34 66 75 43 84 78 47 89 77 46 88 77 46 90 78 45 90 81 45 91 79 46 91 75 46 92 78 46 93 77 44 91 77 45 94 72 44 92 73 43 93 66 42 92 64 42 91 37 49 75 9 54 57 9 52 58 9 53 56 14 51 57 24 48 52 25 49 53 83 72 78 82 73 78 83 72 78 83 72 78 83 70 77 83 72 78 84 66 64 89 61 50 89 54 52 94 28 55 94 32 57 87 64 74 89 63 74 94 45 38 95 46 39 89 60 64 87 64 70 75 35 61 69 17 56 54 16 55 27 16 48 29 25 52 31 53 64 27 54 65 15 56 60 14 55 59 6 39 44 5 38 45 66 40 49 86 39 47 56 24 47 26 11 42 18 7 39 8 3 33 8 5 34 8 5 34 9 6 35 90 52 41 90 52 41 72 21 52 71 16 56 46 13 56 33 11 57 47 19 59 
29 36 5 29 36 5 28 35 2 27 34 1 26 35 4 25 36 4 22 33 1 21 32 0 20 34 1 23 34 0 23 36 6 26 37 7 33 44 14 41 50 23 43 51 27 42 52 27 42 52 28 40 53 27 40 52 28 42 52 27 42 52 27 41 51 27 40 50 25 40 50 25 41 51 26 40 50 26 42 50 27 43 51 28 46 51 29 47 48 30 52 41 39 54 40 39 64 39 69 64 39 68 73 47 82 78 50 88 82 50 89 78 48 86 81 49 88 82 50 91 81 50 91 80 49 90 80 49 91 80 49 91 79 48 90 74 49 91 74 47 92 69 46 92 67 46 89 43 51 74 16 56 58 16 56 58 14 55 59 20 55 59 32 51 55 32 51 57 82 72 80 82 73 78 83 72 80 83 72 78 82 73 78 84 71 78 85 67 65 88 61 54 89 55 53 92 33 55 93 38 59 90 60 72 89 59 69 94 45 41 93 46 38 82 55 60 81 60 69 69 33 61 62 20 58 49 17 54 31 16 47 33 24 51 36 50 63 34 50 63 14 58 61 15 58 64 6 39 44 4 37 42 61 40 47 83 41 51 58 27 45 33 14 46 24 11 41 10 6 33 12 6 32 15 9 35 13 9 32 83 46 40 85 48 42 68 21 53 67 17 55 46 15 56 35 12 54 47 19 57 
31 35 8 31 37 9 32 35 6 30 36 8 28 35 2 29 36 2 24 33 2 23 34 2 27 34 3 28 33 3 28 35 2 27 34 1 32 41 10 37 46 15 48 56 32 70 73 54 71 74 55 71 74 53 73 74 56 73 74 56 73 74 56 72 75 56 72 75 56 73 76 59 73 76 59 77 75 62 83 74 67 86 75 73 91 76 81 94 77 83 94 77 83 91 76 81 93 78 83 92 77 82 92 77 82 91 76 81 93 76 84 94 77 85 93 76 84 92 77 84 92 77 80 93 78 83 91 76 81 93 78 83 92 75 81 90 75 82 88 75 82 87 77 78 86 75 81 77 72 79 68 68 76 60 65 71 50 61 65 59 63 72 83 73 81 83 73 81 81 72 77 82 73 78 83 72 78 83 72 76 83 72 76 84 72 76 83 71 75 86 71 76 85 70 73 87 67 60 86 63 55 95 35 45 95 35 45 94 41 37 92 41 37 56 32 48 43 29 54 18 34 57 3 40 59 26 34 55 62 27 51 64 29 53 79 30 60 70 36 61 16 67 70 17 66 71 3 40 46 2 37 41 39 42 47 51 45 49 70 39 57 85 31 65 60 24 60 22 12 46 32 18 41 63 37 22 63 37 22 44 19 59 41 19 57 45 19 56 46 20 55 54 25 53 59 30 52 66 30 56 
31 36 6 31 35 8 31 36 6 30 37 6 28 35 2 29 36 5 25 35 1 25 35 1 28 33 3 27 34 1 27 34 1 27 34 3 32 41 10 38 46 22 51 56 33 70 73 52 70 73 54 71 74 55 73 74 56 72 75 54 70 75 55 72 73 57 73 76 57 72 75 56 72 75 58 77 75 63 83 74 67 86 74 74 93 76 82 93 76 82 93 78 83 96 77 83 92 77 82 92 77 84 91 76 81 91 76 83 93 78 83 93 78 83 92 77 84 93 78 85 90 78 82 92 77 82 93 78 83 92 77 82 92 77 82 90 75 80 89 76 83 88 76 80 87 74 81 78 73 79 67 67 77 62 67 73 49 62 68 59 64 70 83 73 81 82 73 78 84 73 81 79 73 77 83 72 78 83 72 76 82 71 77 83 70 77 84 71 78 84 71 78 82 70 72 87 67 58 88 63 58 94 34 44 93 35 47 95 42 38 96 40 39 57 34 52 44 30 55 19 35 58 5 37 58 26 34 55 61 28 49 63 28 52 79 30 62 69 35 60 17 68 71 17 68 72 3 41 44 2 37 41 39 42 47 54 45 50 68 39 59 84 33 66 62 25 59 20 13 47 32 18 41 63 37 24 63 37 22 41 19 58 42 20 58 47 20 55 47 19 57 54 25 53 58 28 52 66 30 56 
29 36 5 29 36 5 27 36 5 26 35 4 28 35 2 27 37 3 31 36 6 31 34 7 79 36 29 84 37 31 87 39 35 87 39 35 82 37 34 78 35 28 75 35 27 70 34 22 70 38 25 75 47 36 75 47 35 77 61 48 75 61 48 80 67 61 82 69 63 90 71 73 92 75 81 95 76 82 93 76 82 95 75 84 94 74 83 94 74 83 92 77 84 94 77 85 93 76 84 94 77 87 94 77 85 94 77 85 93 76 84 92 77 84 91 76 83 92 75 83 92 77 82 91 76 83 92 77 84 90 75 82 92 77 82 89 74 79 89 74 81 87 76 82 87 74 81 86 73 80 82 72 80 83 73 82 82 73 78 81 71 79 79 72 79 79 72 79 79 72 79 82 72 80 83 72 78 83 72 78 83 74 79 83 72 76 84 72 76 83 72 78 85 73 77 83 71 75 82 71 77 85 70 73 84 72 74 91 55 39 93 56 40 91 41 50 93 36 53 62 48 71 42 56 83 32 58 81 12 63 80 14 66 79 21 71 80 21 71 78 18 67 72 19 68 72 8 48 50 6 46 48 17 45 48 20 45 49 58 48 47 96 51 46 93 49 46 85 46 47 81 46 53 60 40 68 60 40 68 6 59 67 8 58 67 43 36 52 50 33 51 65 31 58 75 31 58 55 50 70 
29 36 3 27 36 5 28 35 4 29 36 3 28 35 2 29 36 3 31 35 2 32 35 6 76 36 28 84 36 32 87 38 34 88 39 35 81 38 32 78 35 29 74 36 27 70 34 22 70 38 27 74 48 35 74 47 36 77 61 48 76 60 45 80 65 60 79 66 60 88 74 74 90 75 80 95 75 84 93 76 84 94 74 83 93 76 84 95 75 84 91 76 83 94 77 85 93 76 84 93 76 84 93 78 85 92 77 84 93 76 84 94 77 87 91 75 85 92 76 86 91 76 83 90 75 82 92 77 84 93 76 82 91 76 83 89 74 81 88 75 82 90 75 82 87 74 81 85 74 80 83 73 81 82 72 80 82 73 78 82 72 80 78 71 78 79 72 79 82 71 79 82 72 80 83 72 78 83 72 80 83 72 78 83 72 76 84 71 78 87 72 77 84 72 74 83 72 76 83 70 77 86 71 74 85 70 73 92 55 39 91 55 39 91 41 50 94 37 54 60 48 72 44 55 83 32 58 81 13 65 79 16 65 80 20 70 79 20 71 75 18 67 72 18 67 71 9 48 53 7 45 48 16 46 48 21 46 50 56 47 48 94 51 44 93 49 46 86 46 47 80 44 54 62 39 68 60 40 67 9 57 67 8 58 67 45 36 53 48 34 51 66 32 57 79 30 62 55 50 70 
47 51 28 43 47 20 36 40 13 33 40 9 28 35 2 29 34 4 64 36 24 63 35 23 83 32 29 83 32 28 76 31 28 73 29 28 61 26 30 46 25 30 46 26 28 44 24 26 46 26 28 54 28 29 54 28 29 63 33 31 63 33 31 72 36 36 74 38 38 81 41 41 84 44 44 86 47 48 89 50 51 90 54 54 92 62 64 94 64 66 93 76 84 93 76 82 94 77 87 95 75 84 89 76 85 92 75 85 91 76 83 93 78 85 92 75 83 92 77 84 93 76 82 92 75 83 93 76 82 91 76 83 91 75 85 90 75 80 90 75 80 90 75 82 89 74 79 86 73 80 86 76 85 82 72 81 80 73 81 81 71 80 79 71 82 80 70 79 79 72 79 79 72 79 81 71 79 81 71 79 82 73 78 83 72 78 84 71 78 85 73 77 87 72 77 86 74 78 86 71 76 88 73 76 87 72 75 90 69 68 88 69 65 86 61 64 85 59 60 70 50 52 62 42 44 61 45 45 62 46 49 65 48 54 67 54 64 65 54 62 49 56 64 51 55 64 17 54 60 11 54 60 8 43 47 8 39 42 49 49 41 91 56 37 88 58 47 85 64 63 81 61 63 71 61 72 68 60 73 16 76 84 17 75 87 29 69 81 30 68 79 39 67 81 43 67 79 41 75 85 
52 54 30 47 49 25 38 42 15 35 41 13 27 34 1 34 34 6 75 35 27 75 37 26 81 32 28 82 31 27 72 27 24 70 26 27 53 24 28 35 22 29 35 22 29 37 21 31 39 22 30 47 22 26 47 22 26 56 24 25 59 23 27 69 27 28 72 28 25 77 31 31 81 33 33 86 38 36 87 41 41 88 47 45 91 56 60 91 59 62 93 76 84 93 78 85 92 77 84 93 76 84 92 75 83 91 76 83 93 76 84 92 77 84 93 76 86 93 76 86 93 76 84 92 75 83 93 76 84 92 77 84 90 75 82 88 75 82 90 75 82 89 74 81 90 75 82 86 75 83 84 74 82 83 73 81 79 72 80 79 72 80 79 72 80 80 73 80 79 73 77 79 72 79 81 71 79 81 72 75 83 72 78 82 71 77 85 73 77 84 72 76 86 71 76 87 72 77 87 72 75 87 72 75 88 72 75 89 73 76 88 72 75 87 68 64 85 65 64 73 48 43 68 38 30 71 41 33 79 39 39 80 41 44 84 49 56 79 48 56 61 56 62 60 55 61 18 57 64 12 57 60 6 44 47 4 37 42 47 48 40 90 59 38 89 61 47 85 67 67 80 66 66 70 67 74 70 69 75 19 81 94 18 82 94 22 80 91 23 80 89 29 79 86 34 78 87 38 83 89 
76 69 51 69 62 44 56 49 30 53 46 28 49 38 16 54 35 18 80 32 28 80 32 28 80 30 29 81 31 30 54 22 25 49 20 24 37 27 36 29 36 54 29 36 54 29 36 55 29 36 54 33 32 48 29 32 47 33 31 45 33 33 45 36 30 44 38 32 44 40 32 43 43 32 46 45 34 42 49 34 41 50 34 44 53 40 47 56 40 50 65 50 57 65 48 58 91 75 85 92 75 85 92 76 86 92 76 86 91 74 84 92 76 86 92 77 84 92 76 86 91 76 83 92 75 83 92 77 84 92 75 85 92 77 84 88 75 84 87 74 83 89 74 81 90 75 82 87 74 81 85 74 80 85 74 82 81 75 79 83 73 81 81 71 79 82 72 80 82 72 80 82 73 78 82 71 79 82 73 78 83 72 78 84 73 77 85 72 79 85 73 77 87 72 75 89 72 78 89 72 78 90 71 75 90 74 77 89 73 74 91 72 74 89 69 71 88 70 70 85 60 63 79 55 55 72 47 53 59 38 47 58 41 49 54 47 54 57 47 55 77 52 56 77 50 57 19 58 65 11 59 63 5 43 46 3 38 40 33 47 47 65 58 50 72 61 57 86 68 68 83 67 68 76 65 69 76 63 70 24 62 73 25 62 71 30 78 88 30 77 85 39 82 89 43 84 90 44 81 87 
89 77 63 78 69 54 62 53 36 65 49 34 61 38 22 65 37 25 85 31 29 82 31 27 81 32 28 78 33 30 46 19 24 36 17 23 28 30 45 23 45 69 24 46 70 25 47 70 23 43 67 21 38 58 20 38 58 18 35 55 17 35 55 18 35 53 17 34 54 17 33 49 20 33 50 22 31 48 23 29 43 27 29 44 31 28 39 34 28 38 48 31 37 45 32 42 91 75 85 90 75 82 92 77 84 90 75 82 92 76 86 92 77 84 88 75 84 92 76 86 91 75 86 91 74 82 92 75 85 90 74 84 91 76 83 87 74 81 88 75 82 88 75 82 88 75 84 87 74 81 84 71 78 85 74 80 82 72 80 83 73 81 81 71 79 83 73 81 82 72 81 83 74 79 80 70 78 80 70 78 82 71 77 84 72 76 84 71 78 88 73 78 87 72 77 92 73 77 90 74 77 89 73 76 88 72 73 89 73 74 89 73 74 91 72 74 91 72 74 88 65 71 88 62 71 74 52 64 49 37 51 46 40 52 38 47 52 43 46 51 87 50 57 84 49 55 20 57 63 12 60 64 4 43 48 4 37 42 24 48 50 47 55 58 62 60 63 88 70 68 86 68 68 80 64 65 80 64 67 26 49 57 27 50 58 32 75 81 35 79 88 43 84 90 49 88 95 48 83 89 
92 80 64 85 73 59 78 60 46 77 55 42 73 36 27 73 36 28 83 32 29 83 32 31 64 24 25 62 22 23 37 25 37 28 28 40 25 36 56 24 44 69 23 45 69 24 46 70 24 44 69 22 43 64 21 41 65 22 40 62 22 40 62 19 37 59 18 36 56 18 35 55 20 35 54 20 36 52 22 33 51 24 32 51 26 33 49 27 33 49 34 36 49 35 34 52 61 60 74 61 60 76 74 68 80 78 70 83 85 74 82 88 75 84 88 77 85 87 74 83 88 75 84 88 75 84 88 75 84 90 74 84 88 75 85 87 74 81 88 75 82 86 75 83 85 74 82 83 73 81 85 74 82 84 73 81 83 73 81 83 73 81 82 72 80 82 72 80 82 72 80 82 73 78 81 71 79 81 70 78 82 72 81 83 72 78 83 72 78 83 72 78 84 72 76 87 72 77 84 72 74 87 72 75 87 72 75 88 72 73 88 73 76 89 73 74 90 71 73 89 69 71 89 66 72 81 62 68 68 55 65 68 55 64 63 56 63 66 57 62 87 61 64 86 61 64 33 60 67 23 61 62 9 46 52 6 44 47 17 45 48 28 47 51 48 56 59 85 71 70 83 71 71 77 73 72 76 72 73 51 64 70 53 64 70 47 70 76 48 71 77 49 74 81 52 77 84 55 74 80 
93 82 64 92 76 60 91 69 56 90 60 50 85 34 33 84 35 31 83 32 29 84 33 32 49 17 18 44 15 17 28 34 50 24 39 62 23 41 65 23 44 71 23 45 69 22 44 68 23 45 69 24 46 70 21 45 69 26 44 68 26 44 68 20 38 58 19 37 57 19 37 57 19 37 59 20 37 57 20 38 58 19 37 57 19 37 59 21 37 60 19 40 61 20 38 60 27 45 65 29 44 63 57 60 77 65 64 78 78 70 81 86 75 83 87 76 84 84 74 83 85 73 83 87 75 85 85 74 82 88 75 84 88 75 84 87 74 81 87 76 82 86 74 84 85 74 82 82 72 80 82 72 80 83 73 82 84 73 81 84 73 81 83 73 81 82 72 80 82 72 80 83 74 79 81 71 79 82 72 80 82 72 80 82 73 78 81 72 77 82 71 77 83 72 78 83 70 77 82 71 75 86 71 76 87 72 75 92 73 77 90 71 75 91 72 74 91 72 74 88 72 73 89 70 72 88 72 75 87 72 75 88 72 75 88 65 71 88 68 70 87 71 72 87 71 72 43 62 66 37 61 65 17 50 55 11 46 50 10 43 48 7 40 45 37 52 55 84 73 69 85 75 74 75 79 80 76 80 81 76 77 81 76 77 79 63 63 71 64 63 71 56 63 71 51 64 72 61 65 74 
94 78 65 91 71 60 89 60 52 88 55 48 85 34 31 84 33 32 78 30 30 77 29 27 45 18 23 40 17 23 27 34 53 23 41 63 22 42 66 22 44 68 23 45 69 22 44 67 22 44 67 23 45 69 23 45 69 26 44 68 24 44 69 21 39 61 21 39 59 21 39 59 22 40 62 20 38 58 19 37 59 18 38 62 20 38 58 20 38 60 18 39 60 20 38 60 27 42 63 26 41 62 47 54 72 55 58 73 66 64 78 74 68 80 79 69 80 81 74 82 83 73 82 87 74 84 86 76 85 87 76 84 86 75 83 87 76 84 86 75 83 86 75 83 85 73 83 83 73 82 83 73 82 83 73 82 82 72 80 83 73 81 82 72 80 83 73 81 82 72 80 82 72 80 81 71 79 81 71 79 81 71 79 81 72 77 81 72 77 82 71 77 83 72 76 83 70 77 84 72 76 87 72 75 87 71 74 88 72 75 91 72 76 88 72 73 90 72 72 90 71 75 88 72 75 88 72 73 89 73 74 87 71 74 88 67 72 86 70 71 87 71 72 86 70 71 50 64 65 47 62 67 19 52 57 10 49 54 9 44 48 6 40 42 34 52 54 82 73 74 78 76 77 75 81 81 74 79 82 74 78 79 74 78 81 66 69 76 67 67 75 59 68 73 60 69 74 66 71 77 
91 63 59 89 54 52 89 40 36 88 37 34 86 33 29 80 30 29 59 20 21 58 19 20 30 28 41 28 30 45 24 40 63 22 42 67 23 43 70 22 43 70 23 44 71 23 43 68 22 42 67 22 44 68 22 44 67 23 43 67 22 43 70 25 47 71 24 46 69 24 44 68 25 43 65 20 41 60 17 35 55 18 36 58 20 38 58 19 37 57 20 38 60 16 39 57 17 36 53 17 35 55 19 37 57 20 38 60 32 45 64 39 50 70 52 58 74 76 70 82 78 72 82 81 74 82 82 75 83 84 74 83 85 73 83 86 75 83 85 74 82 85 73 83 85 73 83 84 72 82 83 73 81 83 73 84 81 71 79 81 71 79 82 72 81 83 73 82 81 71 79 82 72 80 81 71 79 81 71 79 81 71 79 80 71 76 82 73 78 82 73 78 83 72 76 84 72 76 85 73 75 87 72 75 87 72 75 88 72 75 88 72 75 88 72 73 86 70 73 87 71 74 89 73 76 87 71 72 87 73 72 87 71 72 87 71 72 86 70 71 84 68 71 86 71 74 78 68 69 77 68 69 26 57 62 8 53 56 6 45 50 3 36 41 28 53 57 70 80 81 70 80 82 71 81 83 71 81 82 70 80 82 71 79 81 72 82 83 71 81 83 77 81 82 81 83 82 79 85 81 
89 61 58 91 53 52 88 39 35 86 38 34 83 32 29 78 30 26 55 21 22 55 19 19 31 30 44 28 31 48 23 39 62 22 43 70 23 43 68 23 43 68 23 43 68 21 43 67 21 43 67 23 43 70 22 44 68 22 44 68 22 44 68 24 46 70 24 46 70 25 46 67 23 44 65 23 41 63 19 37 57 19 37 57 21 39 61 20 38 60 20 38 60 20 38 60 19 36 56 19 36 56 19 37 57 20 38 60 29 44 63 36 49 68 49 55 71 68 66 79 71 68 79 78 72 82 78 72 82 84 73 81 84 74 83 84 74 83 84 74 82 84 74 85 86 74 84 84 73 81 82 72 80 83 73 81 82 72 81 82 72 81 82 72 81 83 73 81 81 71 79 82 72 80 81 71 79 81 71 79 82 72 80 81 72 77 82 73 78 83 72 80 84 72 76 84 72 76 85 73 77 88 71 77 86 74 78 89 73 76 87 72 75 88 72 75 88 73 76 87 72 75 88 72 75 87 73 73 87 71 72 88 72 72 88 72 73 87 71 74 86 70 71 86 70 73 79 69 70 78 70 68 27 56 60 9 53 56 7 46 51 4 39 43 25 53 56 64 78 79 68 78 80 71 81 82 73 81 84 71 82 84 71 81 83 71 81 83 71 81 83 77 82 78 81 82 76 78 85 77 
87 37 38 86 38 34 87 38 33 84 34 33 70 26 25 66 26 27 32 21 29 33 20 29 23 41 65 21 45 69 23 43 70 22 44 68 23 45 69 22 42 67 21 42 69 23 43 68 22 42 67 22 43 70 22 43 72 21 45 69 20 44 68 22 43 70 20 44 70 21 45 69 23 44 71 24 46 70 26 46 71 23 45 66 22 40 60 23 40 60 18 36 56 18 36 56 20 38 60 20 38 58 20 38 60 18 39 60 20 38 58 20 36 59 21 39 61 22 40 60 28 45 63 46 55 72 50 57 73 80 75 82 80 74 84 80 75 82 80 73 81 80 73 81 81 74 82 81 74 82 84 74 83 82 72 81 82 72 81 82 72 81 83 73 82 83 73 81 83 73 81 84 73 81 83 72 80 83 72 80 83 72 80 84 73 79 83 72 78 83 72 78 84 72 76 87 72 77 88 73 78 88 72 75 87 72 77 88 73 76 87 71 74 87 72 75 87 72 75 88 72 75 88 72 73 88 72 75 87 73 73 88 72 73 88 72 73 88 72 73 85 70 73 87 71 74 85 71 71 86 70 71 30 58 61 13 53 55 15 50 54 12 47 51 22 56 58 42 68 69 47 71 73 71 82 86 72 83 85 69 84 87 70 85 90 65 78 86 66 77 83 79 77 62 88 74 48 89 74 43 
86 38 36 86 38 36 88 37 36 84 34 33 70 26 27 66 24 26 31 19 29 32 19 26 25 41 66 21 43 67 21 43 67 22 43 70 23 43 67 22 44 68 21 43 67 23 43 68 22 44 68 23 43 70 20 41 68 22 43 70 22 44 68 23 45 69 22 44 68 22 43 70 22 43 70 24 46 70 26 46 71 25 45 69 20 41 60 21 40 57 18 36 56 19 36 56 20 38 60 20 38 58 19 37 57 20 38 60 17 38 59 20 38 58 20 38 60 22 40 62 29 44 67 48 57 72 51 57 73 80 72 83 81 74 82 82 75 83 81 74 82 80 73 81 81 73 84 81 74 82 82 72 81 83 73 82 83 73 81 82 72 81 83 73 82 83 73 81 83 72 80 84 73 81 83 72 78 83 72 80 83 72 80 84 73 79 83 72 78 82 71 77 84 72 76 88 73 78 88 73 78 88 73 76 88 73 76 88 72 75 89 73 76 89 74 77 89 73 76 88 72 75 88 72 75 85 70 73 87 71 72 86 72 72 87 71 72 87 71 72 86 70 73 88 72 73 86 70 71 87 71 72 32 57 61 13 53 55 12 50 53 14 48 50 21 55 57 41 66 70 47 71 73 72 82 84 71 82 84 69 87 87 70 85 88 66 79 85 68 76 87 78 76 61 85 76 47 88 73 40 
83 34 30 83 33 32 81 33 31 68 28 28 43 17 20 41 18 24 24 40 63 23 39 62 20 42 66 22 42 67 21 43 67 21 42 69 22 43 70 22 42 67 22 42 67 22 44 68 22 44 68 22 44 68 22 42 69 23 45 69 22 44 68 23 43 68 22 42 67 22 44 68 21 43 67 23 43 68 24 44 69 23 45 69 23 45 69 24 44 69 25 45 69 24 44 68 20 38 58 20 38 58 19 37 57 19 37 57 18 39 60 20 38 60 19 37 57 20 37 57 20 37 57 22 39 59 23 40 60 32 48 64 34 47 66 58 60 73 62 61 75 79 71 82 84 74 83 83 73 82 84 74 82 83 73 82 83 73 82 83 73 82 85 74 82 83 73 81 83 73 81 83 72 80 86 73 80 84 73 79 86 73 80 84 73 77 85 73 77 87 72 77 87 72 77 87 75 79 88 73 78 88 72 75 87 72 77 87 72 75 86 71 74 87 72 75 87 72 75 85 73 75 86 71 74 85 70 73 86 71 76 85 70 73 87 71 74 86 70 73 85 71 71 85 70 73 85 70 73 86 71 74 58 63 66 47 61 62 31 55 59 11 49 52 11 49 52 17 48 53 30 60 62 70 88 90 72 87 92 55 80 87 56 79 87 63 82 86 65 82 89 81 83 70 88 84 59 92 81 49 
83 32 29 83 32 29 80 32 30 69 27 28 39 14 17 36 17 23 22 42 66 22 42 67 21 43 67 22 44 68 22 44 68 22 43 70 21 42 69 22 42 67 22 44 68 22 44 68 22 44 68 22 44 68 22 42 69 23 43 70 22 44 68 22 44 68 22 44 68 21 43 67 22 44 68 22 44 68 21 43 67 23 45 69 24 46 70 21 45 69 25 45 69 25 45 69 20 38 58 20 38 58 19 37 57 19 37 57 19 37 57 18 39 60 19 37 57 18 36 56 20 37 57 17 38 57 20 37 57 27 43 66 26 41 62 53 59 73 59 61 74 78 70 81 83 73 82 84 74 83 83 73 82 83 73 82 83 73 82 83 73 81 83 72 80 85 74 82 80 73 80 83 72 80 86 73 80 85 72 79 86 73 80 85 72 79 86 74 78 87 75 79 87 72 77 86 73 80 88 73 78 87 72 77 86 71 76 88 71 77 87 72 75 86 71 74 87 72 75 86 71 74 86 71 74 83 71 73 85 70 73 85 70 73 85 70 73 85 70 73 85 70 75 85 70 73 85 70 73 85 70 73 60 64 67 53 61 64 32 56 60 9 49 51 11 49 52 11 46 50 26 57 60 71 89 93 71 90 94 54 79 86 54 78 88 64 83 89 65 83 87 82 84 71 87 85 60 91 82 49 
83 34 29 72 28 27 54 18 18 48 23 27 26 31 50 26 33 52 22 44 68 23 43 68 23 43 68 22 42 67 22 42 67 19 43 67 21 41 66 21 38 64 19 39 63 21 41 66 21 41 66 22 44 68 23 45 69 21 43 67 22 44 68 22 43 70 23 45 69 21 42 69 21 43 67 22 44 68 21 43 67 21 43 67 22 44 68 22 44 68 24 44 68 23 43 68 23 43 67 23 43 68 24 42 64 24 42 64 21 38 58 18 35 55 18 35 55 21 39 59 19 37 57 20 38 58 20 36 59 21 39 61 23 40 60 30 43 62 30 45 64 43 52 69 48 55 71 60 62 75 76 70 82 80 70 81 84 73 79 84 75 80 84 74 82 83 72 78 88 75 82 85 72 81 85 72 81 86 73 80 86 73 80 86 73 80 85 72 79 86 74 78 85 72 79 87 72 77 88 73 78 86 74 78 86 74 78 85 73 77 86 71 76 86 71 76 86 71 74 86 71 74 86 71 74 85 70 75 82 70 74 85 73 77 83 71 75 82 70 74 81 69 71 82 70 72 83 71 73 81 69 71 74 68 70 75 66 69 39 57 61 6 47 49 11 49 52 23 52 56 33 63 65 62 87 91 60 88 92 52 90 93 54 89 93 67 71 82 73 70 81 80 76 75 87 80 72 88 81 65 
83 32 29 69 25 24 45 15 15 39 19 28 25 37 59 23 40 60 21 42 69 22 42 67 22 42 67 23 43 68 22 44 68 22 44 68 20 42 65 20 38 62 18 38 62 20 40 64 20 40 64 23 45 69 22 44 68 22 44 68 22 44 68 21 42 69 22 44 68 22 43 70 22 44 68 21 43 67 21 43 67 21 43 67 22 44 68 22 44 68 22 44 67 23 45 69 25 47 71 26 46 71 26 44 68 26 44 66 20 38 58 18 35 53 19 36 56 20 38 60 17 38 55 19 36 56 19 37 59 20 38 58 20 38 58 20 38 60 21 39 61 32 45 64 35 48 67 52 58 72 72 69 80 76 68 79 84 72 82 84 73 81 83 73 81 84 73 81 85 72 79 85 74 82 87 74 81 87 74 81 85 72 79 85 72 79 86 73 80 85 72 79 88 73 78 88 73 78 87 72 77 87 72 77 85 73 77 85 73 77 88 73 78 86 71 76 85 70 75 86 70 73 84 72 74 84 72 74 83 71 75 83 71 75 82 70 74 81 70 74 81 71 72 80 70 71 81 70 74 82 70 72 79 69 70 80 70 71 43 57 60 4 45 49 14 49 53 27 55 58 37 62 66 58 87 91 59 88 92 53 93 93 54 94 94 72 70 81 72 64 77 80 74 78 84 81 76 87 80 70 
65 25 25 54 25 27 34 22 32 34 26 39 23 41 65 23 40 66 20 44 70 21 42 69 21 43 67 22 44 68 22 42 67 21 41 65 20 40 64 20 38 62 19 39 63 19 39 63 21 41 65 21 43 67 22 43 70 21 43 67 21 43 67 22 44 68 22 44 68 22 44 68 22 43 70 22 44 68 22 43 70 22 44 68 23 43 68 22 44 68 23 44 71 21 43 67 23 45 69 21 43 67 23 43 67 23 45 69 22 42 66 21 42 63 22 40 62 20 38 60 19 37 57 19 36 56 18 36 56 20 38 60 20 38 60 20 37 57 18 36 56 23 40 60 25 42 62 33 46 65 41 49 68 48 54 70 60 62 75 67 63 77 83 71 81 83 72 80 88 73 80 86 73 80 84 73 79 86 73 80 86 73 80 86 73 80 84 71 78 85 72 79 86 74 78 85 73 77 85 73 77 85 73 77 84 71 78 83 70 77 85 72 79 83 71 75 83 71 75 84 72 76 83 71 75 82 70 74 83 71 75 81 70 74 81 70 74 81 70 74 81 70 74 80 70 71 79 68 72 80 69 73 80 69 73 80 69 75 49 58 63 16 49 54 19 48 54 24 47 53 39 59 66 72 91 95 74 92 94 57 93 93 57 92 94 61 80 87 62 79 86 75 61 76 86 48 69 87 48 67 
58 20 19 48 23 26 29 28 44 25 32 50 24 44 69 22 43 70 22 43 70 22 44 68 22 44 68 22 43 70 20 40 64 19 39 64 19 40 61 20 38 60 20 40 64 21 41 65 21 41 66 22 43 70 22 43 70 22 44 68 21 43 67 22 44 68 23 45 69 21 43 67 22 43 70 22 44 68 22 43 70 21 43 67 22 44 68 21 43 67 21 43 67 22 42 67 21 43 67 23 43 68 23 44 71 22 43 70 23 45 69 24 44 68 24 42 64 20 38 58 20 37 57 17 35 55 18 36 56 19 37 59 19 37 59 18 35 55 18 36 56 19 37 59 19 37 59 21 39 61 23 39 62 32 45 62 46 53 71 53 59 73 82 71 79 83 72 80 86 73 82 87 74 81 87 74 81 87 74 81 86 73 80 84 73 79 84 73 81 85 72 79 85 72 79 83 74 79 84 73 79 85 72 79 84 71 78 84 71 78 83 71 75 83 71 75 85 73 77 83 70 77 84 72 76 84 69 74 81 70 74 81 70 74 81 70 74 80 69 75 80 69 73 80 69 73 80 69 73 80 69 73 79 69 70 80 69 73 52 60 62 25 50 54 23 48 53 21 44 50 37 58 63 84 94 96 82 94 94 57 92 94 57 93 93 56 87 90 56 85 89 75 51 75 84 30 64 88 28 64 
