P3
100 50
255
52 45 16 47 40 14 50 40 15 46 40 14 51 44 15 65 57 20 66 58 19 71 63 24 71 64 22 80 73 27 82 75 29 80 73 27 80 73 27 82 77 39 83 79 50 84 79 60 81 78 73 77 73 70 69 65 62 70 66 63 63 59 56 62 58 55 74 70 45 74 70 45 73 67 31 74 68 20 74 68 20 73 66 20 72 66 18 70 64 16 67 63 15 71 65 17 70 64 16 38 32 18 37 34 17 42 38 13 43 37 13 59 47 21 71 56 27 75 60 31 80 66 37 79 65 36 81 67 40 81 65 39 72 62 37 74 62 38 30 30 20 25 24 19 38 28 16 42 30 16 59 48 26 72 58 32 75 61 35 79 65 38 81 65 39 83 69 42 82 68 41 29 39 48 26 39 45 36 46 47 37 49 49 40 50 49 41 51 50 41 51 52 42 51 56 40 53 61 42 52 64 39 52 60 34 52 26 35 53 29 46 51 19 47 52 22 41 37 12 40 32 9 45 52 21 46 63 27 42 58 22 42 53 19 41 52 20 37 52 23 38 52 26 34 48 35 35 49 36 12 29 37 9 25 41 6 24 44 4 25 46 6 24 44 6 24 46 4 22 42 1 19 39 13 25 41 48 49 51 48 48 50 49 49 49 50 50 50 28 28 28 26 26 26 29 29 29 30 30 30 
46 40 8 51 43 6 51 43 7 51 43 6 50 45 7 50 44 8 49 43 9 41 35 13 40 34 12 79 72 28 83 77 29 80 72 25 79 73 23 81 77 52 87 83 80 85 82 77 83 79 76 76 77 72 70 66 63 72 68 65 65 61 58 65 62 55 68 64 61 70 66 63 72 67 37 74 67 21 70 62 15 65 61 14 67 60 14 68 60 13 65 61 13 68 62 14 67 63 15 41 36 17 42 35 16 40 34 12 38 33 11 62 51 23 77 61 35 79 65 36 83 69 40 81 70 40 81 70 40 81 67 40 75 63 37 75 63 37 59 45 19 59 43 17 64 50 23 65 49 23 76 62 33 80 66 37 82 66 40 83 69 42 82 68 39 84 69 40 86 71 42 37 50 20 37 50 20 38 48 21 36 49 19 35 49 16 37 51 18 39 50 20 40 51 21 38 50 30 35 47 45 36 46 45 28 45 39 27 43 40 43 52 21 40 54 21 44 38 14 45 33 11 45 43 18 47 52 22 47 61 26 49 71 33 49 71 32 47 69 30 46 68 30 48 68 33 47 67 32 12 30 42 8 25 43 11 26 47 12 29 49 13 28 49 14 29 50 10 25 46 2 17 36 13 25 41 48 49 51 47 48 50 49 49 49 49 49 49 41 41 41 41 41 41 42 42 42 43 43 43 
49 40 9 50 42 6 51 43 6 49 44 6 49 44 6 50 45 7 49 43 11 40 35 15 42 34 13 77 73 28 80 76 28 80 74 26 79 73 23 81 77 50 86 83 78 83 82 77 82 78 77 80 76 73 68 67 63 69 65 62 64 60 59 62 61 59 67 66 62 70 66 63 72 67 37 73 69 21 71 64 18 66 62 15 65 61 13 67 61 13 65 61 13 68 62 14 69 63 15 43 36 18 39 36 17 40 34 12 39 33 9 62 50 24 76 61 32 80 65 36 83 69 40 82 68 39 83 69 42 82 68 41 73 63 36 72 65 37 60 44 18 59 43 18 63 47 21 65 51 24 75 61 32 82 67 38 82 68 39 80 69 39 80 69 39 86 71 42 84 70 43 37 50 20 38 49 19 37 48 18 38 49 17 38 49 17 35 48 18 39 50 20 40 51 21 38 50 30 36 46 45 36 46 45 27 43 40 27 44 38 41 52 20 42 54 18 44 38 14 44 32 10 45 45 17 43 53 19 47 61 25 49 71 32 47 72 33 46 68 30 47 67 30 47 69 33 49 69 34 13 31 43 7 25 45 11 26 45 12 27 48 13 28 49 14 29 50 10 25 46 2 17 36 13 25 39 47 48 50 48 49 51 49 49 49 50 50 50 42 42 42 42 42 42 42 42 42 44 44 44 
64 55 26 74 64 39 79 69 44 81 73 52 75 67 44 53 47 15 52 46 14 54 45 6 52 44 7 41 34 8 39 33 11 69 64 24 82 75 29 80 74 42 78 75 56 81 77 65 82 81 76 82 78 75 71 67 64 72 69 64 68 64 61 69 63 63 67 63 60 67 63 60 69 65 62 71 67 64 71 67 42 74 66 19 69 62 16 63 59 12 64 57 11 63 56 10 62 55 11 60 56 11 63 56 12 50 40 13 45 37 14 66 54 28 78 64 35 77 66 38 81 67 41 81 67 40 79 65 38 78 64 38 81 67 38 79 65 36 77 66 38 80 66 37 82 68 39 81 70 40 83 69 40 83 69 40 81 70 40 83 69 40 81 67 38 82 66 40 80 66 37 39 45 19 39 45 19 37 46 17 37 48 18 37 46 19 41 43 21 40 44 21 40 46 20 37 45 21 34 45 15 33 43 18 26 41 36 26 38 34 34 55 16 35 52 16 40 44 17 42 40 15 38 36 13 35 34 13 37 43 15 36 50 15 35 50 17 31 47 20 28 44 18 13 32 28 13 32 28 16 39 33 17 40 34 17 37 38 19 36 43 8 30 43 5 23 45 4 22 42 1 18 36 13 25 41 48 48 50 45 49 50 50 50 52 51 49 50 49 49 49 49 49 49 50 50 50 50 50 50 
64 55 26 72 65 37 78 67 45 83 72 50 74 67 41 51 45 11 52 46 12 53 44 5 52 44 5 41 34 8 40 32 9 69 64 24 78 74 27 79 74 42 77 74 55 79 77 64 82 81 76 81 77 74 72 69 64 71 67 64 68 64 61 68 64 63 66 65 61 67 66 62 67 66 62 71 67 64 74 66 43 72 66 18 69 63 15 61 57 9 62 58 11 61 57 10 63 56 10 62 58 13 61 57 12 51 41 14 47 36 16 67 53 27 80 65 36 81 66 37 79 68 40 78 67 39 78 64 37 79 65 38 80 66 37 80 66 37 79 65 38 80 66 37 79 68 40 83 69 42 82 68 41 82 68 39 80 71 40 83 69 42 81 68 36 82 65 37 81 66 37 37 46 17 37 46 19 36 47 15 36 47 17 38 44 18 40 44 21 37 45 21 39 44 21 38 43 20 35 44 17 32 45 19 25 40 35 24 39 34 34 54 17 36 53 17 41 44 15 42 40 17 37 37 13 34 36 12 36 42 14 36 50 15 35 48 18 31 47 20 28 43 20 13 32 28 13 32 28 18 37 31 18 39 34 17 37 36 18 39 44 10 29 44 4 25 44 4 22 42 0 18 38 12 25 41 48 49 51 48 48 50 48 50 49 50 48 49 50 50 50 49 49 49 49 49 49 49 49 49 
80 75 56 84 81 66 86 80 64 88 81 63 86 81 61 81 75 53 76 70 48 57 50 22 56 49 23 47 40 14 45 37 14 42 36 14 42 35 16 59 53 21 74 70 25 78 73 43 81 78 71 77 74 67 70 65 62 69 65 62 66 62 59 64 60 57 63 59 58 62 58 57 63 58 39 64 59 30 65 60 20 67 60 14 66 59 13 67 60 14 64 60 13 62 60 12 65 58 12 63 59 12 63 59 12 61 47 18 60 45 22 72 58 31 80 66 37 81 67 41 81 70 42 83 69 40 79 68 40 81 67 40 81 67 38 81 67 40 80 66 39 80 66 39 79 68 38 83 69 40 80 66 37 79 65 38 80 66 37 83 69 40 83 69 40 84 69 40 84 69 40 42 58 22 41 57 21 40 53 25 37 52 23 37 47 23 36 44 21 34 44 19 33 42 15 30 38 14 28 36 12 27 35 11 32 49 15 32 49 15 49 64 33 50 65 32 40 53 23 38 49 17 37 43 17 37 36 18 32 37 14 28 41 11 29 42 14 30 45 16 32 45 15 36 50 27 34 50 24 38 56 30 37 57 30 40 61 30 42 61 31 28 48 37 21 39 41 14 31 39 1 16 35 12 24 40 47 49 48 47 48 50 50 50 50 49 49 47 49 49 49 49 49 49 49 49 49 49 49 49 
84 78 64 86 84 71 87 84 67 89 82 64 86 81 61 83 76 57 82 74 55 58 51 25 58 51 25 47 41 15 46 39 13 39 32 14 38 31 13 54 51 16 74 68 20 76 72 37 78 78 68 77 74 67 69 66 61 70 65 62 65 60 57 65 60 56 60 59 55 62 58 57 62 57 38 62 56 22 64 59 19 66 59 13 66 59 13 67 61 13 68 62 14 66 59 13 65 58 12 64 58 10 66 60 12 61 50 18 58 46 20 73 59 32 81 67 38 81 67 38 84 70 41 84 70 41 82 68 41 80 69 41 83 69 40 82 68 39 82 68 41 81 67 40 80 69 41 80 69 41 80 66 37 77 63 34 80 66 37 84 71 39 83 69 40 84 68 42 84 69 40 41 58 22 42 59 23 39 54 25 38 53 24 38 48 24 34 47 21 33 43 18 31 40 13 30 38 14 29 34 12 27 35 11 34 50 13 33 50 14 51 66 33 51 68 34 40 55 22 37 51 18 34 42 18 38 37 19 33 38 15 26 39 11 27 40 12 29 44 15 29 44 15 39 52 26 37 52 23 42 58 29 43 59 30 43 63 28 45 65 28 29 50 35 24 40 40 15 32 39 1 16 35 13 25 39 46 50 51 48 48 50 48 50 49 49 49 49 50 50 50 50 50 50 50 50 50 49 49 49 
57 58 50 34 44 43 29 39 40 24 36 36 29 39 38 51 56 49 52 55 48 81 70 48 80 69 49 54 47 21 48 41 15 45 39 17 43 36 17 48 43 14 57 48 15 61 55 19 69 64 26 70 65 35 67 63 62 66 65 63 62 56 40 60 57 40 64 58 26 65 60 22 66 59 17 62 57 15 64 60 15 65 59 11 68 61 15 64 62 14 65 61 13 63 57 9 64 57 13 64 57 13 64 58 10 63 54 15 62 51 19 72 58 29 76 62 35 81 65 39 82 68 39 83 69 42 83 68 39 84 71 39 82 68 39 83 69 40 83 69 40 83 70 38 59 48 28 50 42 23 68 56 32 79 68 40 82 68 41 80 66 37 83 69 42 86 71 42 86 70 44 20 34 11 20 34 11 19 33 10 20 33 13 31 43 39 41 50 57 39 50 56 37 47 56 36 46 55 35 45 54 36 46 55 29 42 48 28 41 47 36 53 17 35 55 18 45 62 30 51 65 32 51 62 32 52 63 33 45 58 28 39 54 21 37 53 17 31 51 14 34 51 17 35 54 24 35 54 24 23 39 28 21 33 29 14 28 31 13 28 31 7 27 38 7 26 41 5 22 40 0 16 36 12 24 38 46 47 49 47 48 50 50 48 49 49 49 49 50 50 50 49 49 49 49 49 49 49 49 49 
43 50 43 16 31 34 8 26 30 1 20 26 9 27 31 43 50 43 47 52 46 85 77 56 87 76 56 54 47 21 50 42 19 45 39 15 43 38 16 47 41 15 49 42 13 56 51 13 66 60 10 67 62 24 66 65 63 68 64 63 61 56 36 60 55 33 65 58 14 64 58 10 65 59 11 63 59 12 65 58 12 65 59 11 66 60 12 65 61 13 65 61 13 61 57 10 61 57 10 63 56 12 64 57 13 64 54 18 63 53 18 72 59 27 76 61 32 79 66 34 83 69 42 82 68 39 83 69 40 83 69 40 82 68 39 81 67 38 83 69 40 85 71 42 52 44 25 40 30 18 66 56 31 80 68 42 82 68 42 80 66 39 82 68 39 87 72 41 88 71 41 13 26 8 13 24 8 14 26 6 13 26 6 31 42 44 41 52 72 40 51 69 39 50 70 38 49 69 39 50 70 38 49 69 28 39 59 27 38 58 31 48 12 31 48 12 47 64 30 56 70 37 55 70 37 56 71 38 49 65 29 44 60 21 41 59 21 35 52 16 33 53 18 35 54 24 33 54 21 16 30 30 15 26 30 4 18 31 0 16 32 1 18 38 0 21 42 0 18 38 1 16 35 13 25 39 46 47 49 46 47 49 49 49 49 49 47 50 49 49 49 49 49 49 49 49 49 49 49 49 
40 49 46 13 32 38 10 29 35 7 27 34 11 30 36 26 36 37 29 40 42 49 50 44 48 51 44 66 60 38 68 60 37 49 43 19 44 38 14 44 38 14 44 36 13 51 45 13 66 60 12 67 60 18 65 61 34 65 61 34 61 56 24 61 57 22 65 58 12 64 58 10 63 59 12 63 59 12 65 58 12 65 58 12 62 58 11 64 58 10 64 57 11 64 56 10 62 58 11 60 56 11 59 55 10 61 53 14 61 53 16 71 60 28 79 65 36 82 67 38 83 69 40 83 69 42 80 66 39 80 65 36 83 70 38 83 69 40 54 47 28 50 45 26 39 31 20 34 26 15 59 48 28 76 62 36 76 65 35 80 66 39 82 68 41 85 70 41 86 71 40 20 28 7 19 27 4 20 32 10 21 33 13 31 41 32 36 45 42 36 47 53 35 48 65 31 44 63 22 37 58 23 38 59 16 31 52 16 31 50 26 38 18 27 39 19 41 56 25 45 62 28 48 65 33 50 65 34 47 62 31 46 61 32 40 56 30 23 40 24 20 38 24 17 32 25 17 32 25 8 21 27 6 19 28 1 17 33 0 16 32 0 19 36 2 20 40 1 18 38 1 18 38 14 26 42 47 48 50 47 48 52 49 49 49 49 49 49 49 49 49 50 50 50 49 49 49 49 49 49 
38 50 48 9 34 39 10 35 42 12 35 43 11 34 40 9 26 34 8 25 33 9 27 31 8 26 30 78 71 55 86 78 57 54 46 23 43 35 12 39 32 13 37 30 14 48 41 15 65 61 14 66 59 13 63 57 9 63 57 9 64 57 11 65 58 14 62 58 11 64 58 10 62 58 11 65 58 14 65 59 11 63 59 12 62 60 11 62 55 9 61 54 10 61 57 10 61 57 10 58 53 11 59 54 12 57 52 12 56 51 13 72 61 29 82 68 39 84 69 40 83 69 40 81 67 40 77 63 34 79 64 35 83 72 40 85 71 42 24 23 18 18 17 13 24 20 11 28 21 11 53 42 24 66 54 30 72 60 34 83 69 42 83 69 42 85 68 40 83 70 38 26 29 10 25 28 9 28 38 14 30 40 16 30 39 18 28 40 18 32 42 43 32 45 62 22 37 56 4 25 44 6 24 46 7 25 45 5 23 43 25 27 24 26 28 25 32 46 20 34 54 17 42 59 27 44 60 31 45 61 34 48 62 37 40 53 36 10 24 33 9 24 31 0 12 28 0 11 29 3 12 27 0 12 28 0 16 32 1 17 33 1 18 34 0 20 39 0 21 40 1 22 43 11 27 43 46 47 51 47 48 50 49 47 48 49 49 49 49 49 49 49 49 49 49 49 49 49 49 49 
38 50 50 10 35 42 9 36 43 12 37 44 13 33 40 9 26 34 9 26 34 9 27 31 8 26 30 65 65 53 73 69 57 56 50 26 49 38 18 44 38 16 40 33 15 49 42 14 57 53 15 60 56 11 63 57 9 63 56 10 62 58 11 64 57 11 61 57 10 63 59 12 65 58 14 66 59 13 63 59 12 62 60 12 63 56 10 60 56 11 63 56 12 63 56 12 61 57 10 60 52 13 59 51 12 58 50 11 57 49 12 72 61 31 82 68 41 82 68 39 82 68 39 82 68 41 79 65 38 79 65 36 81 70 42 80 69 39 23 24 18 17 18 12 26 19 13 28 19 10 52 40 24 68 53 30 73 59 32 83 68 39 82 69 37 84 71 39 84 70 41 27 32 12 27 32 10 28 36 13 30 35 13 28 38 13 28 37 16 24 35 31 22 35 51 14 31 47 4 22 42 4 22 44 6 25 42 6 24 44 21 26 29 21 27 27 27 41 28 28 45 26 32 49 30 36 51 28 35 53 27 37 51 28 32 47 28 12 26 26 13 24 26 7 18 22 7 18 20 7 18 24 7 18 24 8 18 27 6 19 27 7 22 29 7 24 31 8 25 35 9 26 36 19 32 40 47 49 48 47 49 48 49 47 48 49 49 49 49 49 49 49 49 49 49 49 49 49 49 49 
36 51 48 14 39 46 14 39 46 15 40 47 12 37 44 8 25 35 8 25 33 9 28 34 9 28 34 46 52 50 51 56 52 56 51 32 57 49 26 51 43 22 43 38 16 45 39 17 49 39 12 51 45 13 62 55 9 60 56 11 64 58 10 64 57 11 64 57 13 65 58 12 65 58 12 67 59 12 64 55 12 64 57 13 61 57 12 60 56 11 61 57 12 62 55 11 60 56 11 58 50 13 57 49 12 57 49 12 56 48 12 72 63 32 80 71 42 80 69 41 78 66 40 81 67 40 82 68 39 82 69 37 78 64 37 76 64 38 24 25 19 14 19 15 28 21 15 29 20 13 53 42 24 65 53 29 72 58 32 80 66 37 82 67 38 85 70 41 86 71 42 27 39 15 27 39 15 29 31 10 27 28 10 24 32 9 22 34 10 15 26 20 6 20 31 5 19 30 1 18 36 2 19 37 7 23 39 6 23 39 17 26 35 17 26 33 16 30 39 18 32 43 21 33 31 21 35 22 20 32 18 21 30 13 18 31 13 17 30 13 17 29 15 17 30 13 17 29 15 15 29 16 15 28 18 13 25 15 13 25 15 17 29 19 18 31 21 21 34 24 25 36 28 34 41 33 49 52 43 49 50 42 49 49 49 49 49 49 49 49 49 49 49 49 50 50 50 49 49 49 
38 50 48 15 40 47 15 40 47 18 41 47 15 38 44 7 25 35 9 28 35 9 29 36 10 31 36 41 50 49 46 52 48 60 55 36 62 54 33 53 45 24 44 38 16 45 37 16 45 38 12 49 44 14 64 57 11 64 57 11 65 57 11 64 56 10 63 56 10 62 58 11 64 57 11 64 57 11 65 56 13 62 55 11 62 55 13 61 57 12 61 56 14 59 54 12 61 54 12 55 49 13 57 49 12 54 49 11 53 48 10 72 61 31 84 70 44 82 68 42 79 68 40 81 67 41 82 68 39 79 68 40 75 65 38 75 65 38 24 25 20 16 20 19 25 20 14 29 20 11 53 42 24 66 54 30 72 58 32 80 66 39 81 67 38 85 70 41 84 70 41 27 40 14 26 38 14 27 30 9 27 29 8 26 31 9 23 32 11 17 29 19 8 21 27 5 19 30 1 17 33 3 18 37 9 25 38 9 25 38 19 28 33 17 28 32 18 31 39 19 32 38 22 35 26 23 36 19 21 33 19 19 32 12 19 32 14 16 30 13 16 29 11 17 30 12 18 31 14 16 28 16 16 28 16 15 25 16 14 26 14 17 29 17 19 31 21 21 32 24 25 36 30 31 41 33 47 50 43 48 51 42 48 48 48 48 48 48 49 49 49 49 49 49 50 48 49 49 49 49 
42 52 51 19 44 51 21 44 50 23 47 51 18 41 47 7 26 33 7 27 36 10 33 39 12 32 39 8 27 33 8 27 33 67 65 52 86 78 57 64 58 36 42 36 12 41 35 13 37 30 14 44 38 16 65 59 11 62 58 10 61 57 10 62 58 11 61 57 12 62 58 11 63 56 10 63 56 12 64 56 10 63 56 12 62 55 11 59 56 11 59 54 12 58 50 13 59 51 14 54 48 12 56 48 12 53 44 11 52 43 12 71 57 30 83 68 39 83 68 39 81 67 38 82 68 39 82 68 39 81 67 38 71 61 36 71 61 36 25 25 23 18 20 17 26 21 15 28 21 13 53 42 22 66 54 30 71 56 33 79 65 38 81 67 40 85 70 39 84 70 41 21 35 10 20 36 10 21 31 7 21 29 8 21 30 9 21 30 9 21 30 11 17 30 10 11 24 17 1 14 31 5 17 31 38 34 22 35 35 23 20 32 20 19 31 19 27 36 17 29 39 14 29 39 15 25 37 15 23 35 13 21 33 11 20 32 10 19 32 12 19 33 10 21 33 9 23 32 11 23 31 10 26 31 11 26 29 10 27 28 10 26 29 10 24 28 11 25 32 14 26 36 27 30 37 30 44 45 47 44 43 48 41 41 41 41 41 41 48 48 48 49 49 49 50 50 50 49 49 49 
42 53 49 18 43 48 22 45 51 22 47 52 19 42 48 7 26 33 9 27 37 10 34 38 12 32 39 9 28 34 9 26 33 67 63 51 88 77 59 65 57 36 43 37 11 41 33 14 36 29 13 43 38 16 64 57 11 64 58 10 62 55 9 63 56 10 63 56 10 63 56 10 63 56 10 63 56 10 62 55 11 64 56 10 61 54 10 60 55 13 59 54 12 59 51 12 59 51 12 54 48 12 54 48 12 50 44 12 49 43 11 69 58 30 84 71 39 82 68 41 82 68 39 81 67 38 82 68 41 79 68 38 72 62 37 71 61 36 24 26 23 16 20 19 24 21 14 29 20 13 53 42 24 66 54 30 69 57 33 77 66 38 81 65 39 85 70 39 85 68 38 21 35 12 21 35 10 21 30 9 21 29 8 21 30 9 22 32 8 19 31 9 17 30 12 12 23 17 1 14 31 4 16 30 34 34 22 36 36 24 18 30 18 19 31 19 28 37 16 29 39 15 28 38 14 25 37 15 23 35 11 20 32 10 20 32 10 19 33 10 19 33 10 19 33 10 19 35 9 24 32 9 24 32 9 26 29 8 26 27 9 26 29 12 25 30 10 25 32 16 27 34 26 31 38 30 42 43 45 43 44 46 40 40 38 41 41 41 48 48 48 49 49 49 50 50 50 49 49 51 
47 56 53 28 48 55 27 50 56 26 51 58 21 45 49 7 26 33 8 28 37 15 40 45 17 40 48 7 27 34 6 26 35 65 67 56 84 81 62 66 61 41 45 39 17 44 37 18 41 35 19 44 40 15 57 49 10 57 49 12 62 55 11 63 56 10 59 55 10 60 56 11 59 52 10 60 52 13 58 50 13 60 53 11 57 49 12 52 46 12 54 48 14 54 45 12 53 44 11 48 42 16 50 40 15 51 40 18 50 39 19 68 56 30 80 66 37 81 67 40 80 66 39 81 67 40 82 68 41 82 66 40 71 61 36 69 62 36 51 38 19 47 36 16 55 40 17 57 43 17 70 56 29 77 63 36 78 64 38 81 67 40 81 67 38 86 70 44 87 72 43 23 37 14 23 37 14 21 35 10 22 36 10 21 30 9 23 28 8 20 28 7 17 29 9 14 26 16 9 20 24 12 22 23 25 28 11 23 26 9 19 33 10 18 32 9 27 30 9 27 28 10 27 29 8 26 28 7 26 29 10 29 31 10 28 31 12 28 36 13 27 35 12 30 38 14 30 38 15 25 37 13 22 36 11 23 39 13 19 37 11 18 32 15 16 30 17 11 23 21 1 12 30 12 22 34 46 48 47 47 47 47 44 44 44 44 44 44 48 46 47 46 46 46 45 45 45 43 45 42 
47 56 53 26 49 55 27 50 56 25 50 55 21 44 50 7 26 33 8 28 35 15 40 47 15 40 47 7 27 34 6 27 32 66 68 57 86 81 62 66 61 41 44 38 16 43 37 15 41 35 19 44 38 16 56 48 11 56 48 11 62 55 9 61 54 10 61 54 12 62 53 10 59 52 10 58 50 13 57 52 12 61 54 12 57 52 12 52 46 12 53 47 11 54 45 12 54 45 12 48 41 13 48 41 15 50 39 17 49 39 14 67 55 29 81 67 38 81 65 39 80 66 40 80 66 39 82 68 41 78 67 39 72 60 38 71 61 36 50 37 18 47 36 16 55 41 15 56 42 16 69 55 29 77 63 36 76 65 37 80 66 39 83 68 39 87 72 43 87 72 43 22 38 12 21 36 13 20 36 10 22 36 11 21 30 9 23 28 8 21 29 8 18 30 10 15 25 14 7 21 22 10 22 20 24 27 10 24 28 11 21 33 11 18 32 9 26 29 8 30 29 8 27 28 10 24 27 6 26 29 10 28 30 9 27 30 11 28 36 13 29 34 12 30 38 14 29 39 15 25 37 13 24 38 13 23 37 12 22 37 14 17 31 16 13 29 16 8 22 22 1 12 30 12 19 35 46 47 49 47 47 49 43 43 43 44 44 44 45 47 46 46 46 46 44 46 43 43 43 43 
48 59 55 28 48 55 25 50 55 25 50 57 21 43 54 9 28 35 11 30 37 20 45 52 17 44 51 9 32 40 7 30 36 64 66 55 84 78 62 71 64 45 60 49 27 52 45 26 40 34 18 42 35 17 44 36 13 43 35 12 59 52 10 59 51 12 56 51 11 58 50 13 56 51 13 57 48 15 53 47 13 54 45 14 50 43 14 49 39 14 46 39 13 44 36 13 45 34 12 67 53 26 68 52 26 72 53 23 73 52 21 78 63 34 83 69 42 82 68 39 83 67 41 81 67 38 82 68 39 81 67 40 79 65 38 79 65 38 71 57 30 70 56 29 77 63 37 78 66 40 80 66 37 81 67 40 75 64 34 68 58 22 64 56 19 56 51 13 57 49 10 44 44 8 45 45 9 34 51 19 33 50 16 26 36 11 21 29 8 19 28 7 16 28 8 24 31 13 35 39 24 34 36 22 22 26 9 23 27 10 20 27 9 21 28 10 21 30 9 21 30 9 23 35 13 24 36 12 24 36 12 24 36 12 25 37 13 31 43 19 32 45 17 41 45 20 42 46 19 33 43 18 31 41 16 15 31 20 11 28 22 6 19 25 2 14 28 0 12 28 1 9 28 12 20 33 45 47 46 45 46 48 48 48 48 48 48 48 45 45 47 45 45 45 46 44 45 43 43 43 
48 58 57 30 50 57 26 51 58 23 50 57 21 46 53 11 28 36 12 29 37 21 45 55 21 46 53 9 32 38 8 31 39 65 65 55 85 78 60 71 64 45 61 50 28 51 44 25 40 35 16 41 34 16 43 35 12 42 34 13 58 50 13 59 51 15 56 51 13 57 49 13 56 50 14 54 48 12 53 47 15 51 44 15 50 43 15 47 40 14 45 38 12 43 35 14 44 33 13 69 55 28 69 54 25 75 54 23 77 54 23 80 65 34 80 69 39 80 69 41 83 69 40 83 69 40 82 68 39 82 69 37 79 65 38 80 66 37 75 61 34 73 59 30 79 68 40 83 69 42 82 68 41 82 68 39 75 64 32 64 56 20 62 54 17 55 47 10 54 46 7 49 45 10 50 46 11 37 53 17 36 53 21 25 38 12 21 29 8 19 28 7 16 28 8 25 32 14 39 42 23 37 38 20 22 27 7 20 28 7 22 26 9 19 26 8 19 31 9 19 31 9 22 36 11 24 40 14 24 38 13 22 36 11 25 39 13 32 45 19 35 45 20 43 47 20 43 47 20 34 44 19 32 42 17 17 30 21 11 26 23 4 17 25 2 11 28 2 11 28 1 10 27 11 19 32 47 47 47 46 46 48 49 49 49 49 47 48 46 46 46 44 44 44 44 44 44 44 44 44 
49 59 58 32 52 59 28 53 60 25 52 59 23 46 54 10 27 35 12 29 37 23 48 55 22 49 56 10 35 42 9 32 40 66 68 57 85 79 63 77 69 50 69 58 38 57 48 31 38 32 16 38 33 14 38 31 12 38 31 12 56 47 14 56 47 14 55 46 13 52 46 12 54 45 14 53 44 15 51 39 13 46 39 13 51 41 14 56 46 21 57 45 21 66 56 31 66 56 29 67 47 20 68 48 21 69 45 19 69 46 15 72 48 20 75 52 21 76 57 25 77 61 28 80 63 33 81 70 42 81 70 42 80 66 39 80 66 39 77 66 36 78 64 35 74 63 33 76 62 35 69 58 26 64 55 22 62 53 20 60 52 16 59 51 12 57 49 12 54 49 9 53 47 13 53 47 11 48 50 13 48 50 13 47 52 22 45 55 28 43 58 29 46 59 29 41 51 26 35 40 17 34 37 18 19 26 8 21 26 6 21 33 9 21 33 9 21 33 11 21 35 12 21 34 14 22 35 15 20 34 17 17 30 13 20 31 15 21 33 19 23 34 18 19 29 20 20 30 21 14 24 25 13 25 25 6 19 25 4 19 26 1 13 27 0 12 28 2 10 29 1 10 27 13 19 31 47 47 47 47 47 47 49 49 49 48 48 48 52 48 49 48 48 48 45 45 45 43 45 44 
49 59 58 32 52 59 29 52 58 25 52 59 22 47 54 10 27 35 14 31 39 26 51 58 24 51 58 11 36 43 10 33 39 67 70 59 84 81 62 79 72 54 73 62 42 60 52 33 40 33 15 38 31 15 35 27 14 35 28 10 54 46 10 55 46 13 51 45 13 55 44 12 50 43 15 50 40 13 45 37 14 42 34 11 50 39 17 62 51 23 64 52 28 83 69 40 83 68 39 66 45 16 66 45 18 65 39 14 63 39 13 66 40 13 70 41 9 74 49 18 77 56 27 79 60 28 83 69 42 81 70 40 81 67 38 81 67 40 81 67 40 83 68 39 73 60 28 68 57 25 60 52 15 53 48 8 53 47 11 54 49 11 55 50 10 57 50 8 58 51 9 56 48 12 55 47 10 56 48 11 54 46 9 57 63 29 58 72 39 60 74 41 64 78 43 53 62 31 34 39 17 32 37 14 19 26 8 19 26 8 19 37 11 20 36 10 20 34 11 20 34 11 21 36 13 22 37 16 18 32 15 16 28 16 17 29 19 13 26 17 12 25 18 6 20 21 6 20 23 1 13 27 1 13 29 0 12 28 0 12 26 0 11 27 0 12 28 2 11 26 1 10 27 11 19 30 48 46 47 47 47 47 49 49 49 48 48 46 48 48 48 50 48 49 45 45 45 43 43 43 
42 39 34 30 36 36 23 41 45 21 45 55 18 41 49 9 26 34 13 30 38 28 53 60 28 53 60 13 36 42 10 35 40 67 67 57 85 80 61 82 74 55 77 69 48 62 55 37 36 29 13 35 29 13 35 28 10 35 28 10 49 42 14 51 41 14 47 40 12 47 40 12 51 41 14 53 41 15 58 43 20 59 44 21 63 52 24 72 58 29 74 60 33 82 68 41 81 67 40 67 43 17 68 44 18 64 39 9 62 36 9 62 35 8 64 34 6 67 43 15 71 51 24 74 54 27 82 68 41 81 67 40 77 63 36 76 65 35 71 61 26 68 57 25 65 57 20 64 54 18 58 50 13 54 49 11 54 49 9 54 49 9 54 49 9 54 49 9 54 49 11 56 51 11 58 50 13 55 47 10 56 48 11 57 54 19 56 60 25 57 67 32 55 69 34 52 66 33 49 59 32 48 58 31 38 48 23 38 48 23 45 57 33 45 59 33 44 58 33 43 57 32 42 56 33 40 53 33 25 37 27 10 21 23 8 19 21 6 15 20 7 16 21 3 16 24 4 17 25 1 14 31 0 16 32 1 14 30 0 12 28 0 12 28 0 12 28 0 12 28 1 10 27 7 14 30 26 31 37 26 30 39 43 44 46 43 44 46 48 48 48 50 48 49 45 45 45 43 45 44 
34 21 12 28 19 12 22 27 30 11 38 47 12 34 45 11 28 36 14 31 39 31 56 61 31 56 63 13 38 45 11 35 45 65 67 54 85 78 59 83 76 57 83 75 54 63 56 37 33 26 10 34 26 13 33 26 10 34 27 11 47 36 14 49 38 16 43 37 13 44 36 13 49 38 16 54 42 18 64 49 26 75 58 32 78 61 35 82 68 39 80 66 37 83 69 40 84 70 41 69 42 13 68 42 15 66 37 7 65 34 5 59 32 5 56 28 4 59 37 13 64 46 22 67 51 26 79 65 36 78 64 35 74 60 31 74 60 31 58 53 13 56 51 9 55 50 12 53 48 10 57 49 10 56 48 9 57 49 10 57 49 12 54 49 11 54 49 11 56 48 12 58 51 9 57 52 12 54 49 11 54 49 11 56 48 11 57 49 12 51 55 18 46 62 26 54 69 36 65 80 47 63 78 45 57 70 42 56 69 39 72 82 58 72 82 57 68 81 55 66 79 53 61 73 49 59 71 49 31 43 39 3 15 29 1 13 29 0 6 22 0 5 24 1 13 29 0 12 28 0 17 33 0 17 33 0 16 32 0 15 34 2 14 30 2 11 28 1 10 27 2 11 28 3 12 27 6 13 29 6 15 30 40 41 45 40 41 45 48 48 48 49 49 49 45 45 45 43 43 43 
39 25 12 32 22 10 25 27 22 22 33 35 20 31 35 13 28 35 16 31 36 29 54 59 30 55 62 13 38 45 12 37 44 68 68 60 83 77 61 84 76 55 82 74 53 65 57 36 39 32 13 37 28 11 35 26 11 34 27 11 46 38 15 46 38 15 50 39 17 50 39 17 54 42 18 58 44 18 62 48 22 64 48 25 66 52 26 69 55 29 69 55 29 80 64 31 81 62 32 65 39 12 65 40 10 62 35 5 63 34 4 58 31 2 57 30 3 63 42 15 68 52 26 68 54 27 76 61 32 72 61 31 68 57 27 70 56 27 59 51 12 57 49 10 56 48 9 54 49 11 56 48 11 57 49 10 57 49 10 56 48 9 57 49 12 55 47 11 55 50 12 59 51 12 56 51 9 55 50 10 56 51 13 59 50 11 59 51 12 55 57 18 50 60 25 52 66 30 59 76 42 58 73 42 53 66 38 53 66 38 65 77 53 67 77 53 65 75 50 61 75 49 57 71 48 54 68 43 32 43 37 7 20 28 6 16 26 1 7 23 1 8 24 0 14 29 0 12 28 1 14 31 0 13 30 0 13 30 1 12 30 0 13 30 2 11 26 2 11 28 0 12 28 2 14 30 5 14 29 4 16 30 29 34 40 28 35 41 40 41 46 42 43 47 40 41 43 43 43 43 
49 31 11 43 24 10 45 24 7 46 24 10 39 25 14 23 23 23 21 27 27 23 47 57 24 48 58 15 40 45 12 37 44 66 72 60 86 83 66 83 78 59 84 73 53 72 61 41 55 43 21 50 39 17 33 26 8 33 26 10 51 40 18 50 40 15 69 54 23 72 55 27 69 53 27 69 53 27 49 34 15 35 18 8 34 17 7 34 16 4 36 18 4 75 42 9 76 43 8 58 30 6 58 31 2 58 30 6 57 29 7 59 32 5 60 33 4 72 51 22 82 68 39 77 66 34 60 52 15 59 51 14 53 48 10 53 48 10 55 47 10 54 46 10 56 48 11 56 48 11 56 48 11 56 48 11 56 48 11 58 50 13 56 48 11 58 50 13 56 48 11 55 50 12 58 50 11 60 55 13 60 55 13 65 58 14 65 58 14 65 56 15 61 52 11 52 57 17 42 60 22 43 60 24 47 60 34 47 60 34 49 63 40 48 61 41 47 61 36 46 60 34 45 59 33 46 60 34 32 45 27 19 31 17 15 28 19 3 10 28 1 10 27 1 13 29 0 12 28 0 6 22 1 6 25 1 8 26 3 10 28 0 12 28 0 12 28 0 12 28 1 14 31 0 15 31 0 15 34 1 16 35 1 14 31 1 14 31 11 18 34 11 21 31 30 35 39 41 41 43 
53 32 13 49 27 13 49 26 10 47 25 11 43 25 13 23 23 21 24 26 25 25 46 51 27 46 52 15 35 44 12 35 43 67 70 59 86 83 68 84 77 59 82 74 53 73 62 42 57 45 21 54 43 21 38 31 12 37 32 13 54 42 20 53 41 17 65 49 23 66 52 25 65 49 24 62 48 22 49 34 13 38 20 6 37 19 5 35 16 2 42 21 4 72 42 8 71 41 7 57 29 5 58 30 6 58 31 4 59 31 7 58 31 4 59 32 3 68 49 19 76 65 35 73 62 34 59 51 15 59 51 14 54 49 11 56 48 9 55 47 10 54 49 11 56 48 12 56 48 12 57 49 12 57 49 12 57 50 8 56 51 11 56 51 13 59 51 14 57 52 14 58 50 11 58 50 11 59 54 14 59 54 12 65 58 14 66 57 14 63 56 12 62 55 13 57 55 16 44 60 21 43 59 22 45 59 33 46 58 34 48 62 39 49 61 39 46 60 35 45 59 33 43 57 31 41 57 28 30 43 23 19 31 21 13 26 17 2 9 25 2 9 27 2 11 28 0 12 26 0 7 23 0 7 23 1 8 26 0 9 26 0 9 26 0 9 24 0 12 28 3 12 29 0 13 30 0 15 34 2 15 32 1 14 31 1 12 32 11 18 34 11 21 33 27 32 38 37 38 42 
73 48 18 77 54 22 67 46 19 59 37 16 53 32 13 43 24 10 42 23 9 44 22 8 45 23 9 11 19 22 6 19 27 66 62 51 84 77 59 85 79 63 84 81 62 79 72 53 70 54 28 72 55 29 70 54 28 71 54 28 72 57 28 72 55 25 46 29 13 43 26 10 35 17 5 30 13 5 44 23 4 58 31 4 60 33 4 67 36 5 64 35 5 53 27 4 53 27 4 55 29 6 55 29 6 61 34 7 65 35 7 61 36 6 59 33 8 50 32 10 39 33 11 43 36 10 54 49 11 55 47 10 54 49 11 54 49 11 57 47 11 56 48 11 56 48 11 54 48 12 58 53 13 63 56 14 61 56 14 60 56 11 64 55 14 60 52 13 60 53 11 65 58 14 63 59 14 59 54 14 59 51 12 63 56 14 64 57 13 64 57 13 64 60 13 65 61 14 64 60 15 61 60 14 43 58 25 41 58 24 36 53 17 36 54 16 32 49 13 32 48 11 24 41 7 17 36 8 16 30 5 15 22 6 13 18 11 11 9 22 11 9 22 1 8 26 2 9 27 2 11 28 2 11 28 2 9 27 0 9 26 0 4 24 0 3 20 0 1 19 3 2 20 0 2 17 0 1 19 1 3 18 2 11 26 2 11 28 0 15 34 1 17 33 3 16 33 3 16 33 
73 48 18 74 54 21 70 46 20 58 36 13 54 33 14 42 23 9 45 23 10 43 24 10 45 23 10 11 21 23 5 18 24 66 64 52 84 79 60 85 79 63 86 80 66 80 72 53 71 55 29 71 55 29 72 55 29 71 54 28 72 55 27 74 54 27 45 28 12 41 25 10 35 19 6 28 14 3 44 23 6 58 31 4 62 32 4 67 36 5 63 34 4 52 26 3 52 26 3 55 27 5 55 29 4 61 34 4 63 36 7 62 35 8 56 35 8 49 33 10 39 32 13 42 36 10 53 48 10 54 49 9 56 48 11 54 49 11 53 47 11 56 48 12 54 49 11 54 48 12 58 53 13 63 56 14 63 56 12 64 57 15 61 57 12 59 54 14 59 54 14 65 58 12 65 58 14 61 53 16 60 52 15 63 56 14 64 57 13 63 59 14 67 60 14 65 61 14 65 61 14 64 61 16 41 58 26 41 58 24 36 54 16 36 54 16 33 49 12 31 49 11 23 40 6 17 36 6 16 30 5 14 23 6 13 21 10 11 9 22 10 8 21 1 8 24 1 8 26 1 10 27 1 10 25 1 10 25 2 11 28 0 5 21 0 3 22 0 3 22 0 1 19 0 1 19 1 2 22 1 2 20 1 9 28 1 9 28 2 15 34 1 17 33 1 16 35 3 16 33 
71 44 17 70 43 16 66 42 16 61 39 15 64 42 18 82 56 23 76 53 19 51 30 13 51 30 11 45 23 10 41 22 7 63 50 34 68 59 44 78 71 55 85 82 65 85 77 54 86 71 42 77 63 34 56 41 20 57 42 21 34 16 6 32 15 5 51 26 4 53 26 5 60 33 6 64 33 4 60 30 4 56 28 4 57 30 3 60 32 8 60 32 8 64 34 6 65 35 7 67 38 8 64 37 7 64 35 5 63 33 5 68 44 18 68 51 25 60 47 13 52 44 5 48 42 6 43 37 13 44 38 12 53 42 10 51 42 9 57 52 12 59 52 10 63 56 12 65 58 14 62 58 13 64 57 13 65 58 14 66 59 13 65 58 12 61 57 12 63 56 12 65 58 12 67 60 14 65 62 11 64 60 13 66 60 12 66 59 15 65 58 12 67 60 14 63 59 12 61 57 10 60 55 13 38 44 10 37 44 10 5 29 3 6 29 1 2 26 0 1 25 1 2 26 0 1 25 1 2 26 2 2 26 2 3 27 3 2 26 2 3 25 2 14 23 6 12 23 6 11 15 24 11 13 26 1 10 25 0 11 29 0 12 28 1 12 30 0 11 29 0 13 30 1 12 30 1 8 26 0 7 25 0 3 20 0 1 19 0 5 21 0 6 22 0 5 24 0 7 25 
71 44 17 70 43 16 66 40 15 61 39 16 67 43 19 79 56 24 76 53 21 52 31 14 51 30 13 42 23 9 41 22 8 62 50 36 68 61 45 77 71 55 85 82 63 85 79 55 82 71 39 76 65 35 56 41 20 56 41 20 34 16 6 34 16 6 49 27 4 52 27 5 61 31 3 64 34 6 60 30 4 54 28 3 57 31 4 60 32 8 61 33 9 64 34 6 64 34 6 64 37 7 66 37 7 64 35 5 64 35 5 68 44 18 68 51 25 61 46 13 53 46 4 51 43 7 43 37 11 46 39 13 51 42 9 50 44 10 56 51 11 60 52 13 63 55 16 65 56 13 62 58 13 64 57 13 65 58 14 66 59 13 65 58 14 61 57 12 63 56 12 66 59 13 66 59 13 64 60 13 64 60 13 66 59 13 65 58 14 65 58 12 66 59 13 63 59 12 62 58 13 60 56 11 37 44 10 37 44 10 6 29 1 6 29 3 3 27 1 0 26 0 1 27 0 1 25 1 2 26 0 2 26 0 2 26 0 2 26 0 2 26 2 14 23 6 12 23 6 11 14 23 11 13 25 2 11 26 3 10 29 0 12 28 0 12 28 0 12 28 1 14 30 0 13 30 0 7 26 0 7 25 2 1 19 0 3 20 0 4 23 0 5 24 0 6 22 0 5 24 
73 47 20 76 49 20 71 45 20 67 43 19 69 43 20 71 44 17 69 43 16 66 42 18 65 43 19 68 44 18 67 46 19 55 36 21 52 34 20 52 36 21 55 39 24 51 34 18 48 31 13 47 30 14 46 27 10 47 26 9 62 32 4 63 32 4 55 27 3 53 27 4 57 29 5 60 30 4 60 33 6 61 34 5 63 36 6 65 38 8 66 37 7 66 37 7 63 36 9 68 39 9 68 39 5 62 35 5 62 32 6 73 53 26 80 66 40 63 49 22 47 31 5 47 33 6 46 41 9 47 40 11 46 39 11 46 39 11 55 50 12 58 50 14 62 58 13 65 58 14 64 60 15 64 60 15 65 58 14 64 57 11 65 58 12 65 58 14 62 58 11 66 59 13 65 58 12 65 58 12 65 59 11 65 58 14 65 58 14 63 59 11 64 57 11 64 57 11 62 58 13 61 57 12 58 55 12 58 55 10 3 27 1 2 26 2 3 27 3 2 26 2 2 26 0 2 26 2 2 26 4 2 26 2 2 26 0 3 27 3 4 27 0 6 25 3 6 26 1 5 23 7 5 23 7 8 22 9 8 21 11 10 20 22 8 15 31 5 17 31 2 19 37 0 16 32 1 14 31 0 14 33 0 12 28 1 10 27 2 11 28 0 12 28 2 11 28 2 11 26 
76 50 23 77 51 24 73 47 22 68 44 20 70 44 19 68 40 16 69 43 16 70 46 18 68 47 18 75 52 21 75 52 21 53 32 15 47 25 11 44 25 11 42 24 10 40 22 10 35 17 5 38 18 7 43 22 5 43 22 5 74 40 5 72 39 6 55 29 2 54 28 5 56 28 4 57 30 3 61 34 5 64 37 7 66 37 7 69 40 8 66 40 7 66 37 5 65 35 7 67 41 8 66 39 10 61 34 5 62 30 5 74 57 29 83 72 40 65 49 24 44 26 6 45 30 7 48 42 8 49 40 9 45 38 12 44 37 11 54 48 12 55 49 13 65 58 14 66 59 13 66 59 13 65 58 12 63 59 12 61 57 10 63 59 12 65 58 12 63 59 12 67 60 14 66 59 13 65 58 12 65 58 12 65 58 12 64 57 11 62 58 11 62 55 9 61 57 12 63 56 12 63 56 12 64 57 11 64 58 10 1 25 1 1 25 1 1 25 1 2 26 2 0 26 0 1 27 2 2 26 0 2 26 0 2 26 0 4 27 1 3 27 1 3 27 1 4 27 1 2 26 0 2 26 0 10 25 4 12 23 6 11 21 22 13 17 29 9 18 33 1 18 38 0 18 38 1 16 35 1 17 33 2 18 34 0 16 32 1 13 29 2 13 31 1 13 29 0 12 26 
72 46 21 72 46 19 72 46 21 74 46 24 72 46 21 73 47 20 72 46 19 72 46 19 71 45 18 67 43 19 67 41 16 65 43 19 64 42 18 61 39 16 59 37 16 57 32 10 54 27 6 53 26 5 55 29 6 55 29 4 58 31 2 58 31 4 57 30 3 58 28 2 61 31 3 63 33 7 63 34 4 64 33 4 64 34 6 65 36 4 65 36 6 65 38 8 65 38 8 67 38 8 67 38 8 61 36 6 60 34 9 73 56 28 80 69 41 69 53 27 60 38 14 58 38 14 49 33 8 49 33 10 44 38 12 45 39 13 44 38 16 45 39 17 58 53 13 64 57 13 63 59 14 66 57 14 64 57 11 63 59 11 66 59 13 67 60 14 66 60 12 66 59 13 64 60 13 66 59 13 65 59 11 63 59 12 66 59 13 66 59 13 63 59 12 65 58 12 64 57 13 64 57 11 63 56 10 64 57 11 12 31 1 12 31 3 8 28 1 5 30 1 4 27 0 7 27 2 7 27 0 9 29 2 8 28 1 8 28 1 6 29 0 5 28 0 5 28 0 5 28 0 5 28 2 8 28 3 10 25 2 7 24 8 9 25 14 7 23 13 10 22 18 7 21 22 8 20 36 7 20 37 1 19 39 0 20 39 1 16 37 0 16 32 2 15 32 1 14 31 
70 44 17 70 42 18 72 46 19 74 49 19 74 49 19 75 48 19 75 50 20 72 45 18 71 45 18 65 37 15 61 36 14 71 47 19 74 51 20 71 47 19 66 44 20 67 40 13 64 33 5 65 34 6 59 32 3 63 33 5 49 24 4 50 25 3 56 29 2 60 30 4 62 35 6 66 37 7 64 35 5 61 31 3 62 32 4 64 35 5 64 35 5 67 38 8 67 37 9 67 38 8 65 38 8 62 37 7 59 35 9 72 55 29 80 66 39 74 57 31 72 46 21 66 42 16 49 28 7 47 29 7 44 38 12 45 39 13 39 32 16 37 29 18 54 50 13 62 54 15 62 58 13 64 57 11 65 58 12 64 60 13 65 58 12 66 59 13 65 59 11 66 59 13 64 60 13 64 57 11 65 59 11 63 59 12 66 59 13 66 59 13 66 59 15 66 59 13 65 59 11 65 58 12 61 57 10 62 58 11 20 33 3 19 34 5 11 30 2 8 28 0 8 28 0 8 28 1 9 28 0 13 29 2 9 28 0 9 28 0 10 29 1 7 27 0 7 27 0 8 28 0 9 28 0 5 28 0 3 27 1 6 26 1 3 28 0 8 26 2 12 25 5 12 24 14 10 22 38 8 20 34 0 22 43 1 23 44 0 16 32 0 17 37 1 16 35 0 14 33 
70 43 16 70 43 16 71 45 18 72 46 19 73 47 20 76 49 20 75 48 19 72 45 18 72 45 18 66 40 17 66 40 17 70 44 17 72 48 20 69 45 19 65 41 15 63 35 13 58 31 4 61 31 5 65 36 6 65 36 6 56 30 5 58 30 6 59 32 3 59 32 5 63 34 4 66 36 8 63 33 5 62 32 4 61 32 2 63 34 4 64 35 5 61 34 5 62 35 8 64 32 7 61 33 9 66 42 16 65 44 17 73 57 31 78 66 40 76 56 29 71 45 18 70 43 16 58 36 13 56 36 12 45 34 12 47 37 12 39 34 14 40 33 15 48 43 13 53 47 13 59 54 12 65 58 12 63 59 11 63 59 12 66 59 13 64 60 13 66 60 12 62 58 11 65 59 11 64 57 11 65 58 12 65 58 12 64 60 12 66 59 13 67 60 14 65 58 12 63 56 10 63 56 10 61 57 12 63 56 12 32 37 5 31 38 5 14 30 3 10 29 1 13 29 0 15 29 3 15 29 3 16 30 4 16 31 2 14 30 3 13 29 2 11 29 3 12 28 2 10 29 1 12 28 1 10 28 2 9 27 1 9 27 1 7 27 0 8 26 0 12 25 5 11 26 7 8 24 23 7 23 22 5 22 29 5 22 29 4 20 35 6 19 36 2 17 36 2 17 36 
70 43 16 70 43 16 72 42 16 69 42 13 70 44 17 76 49 20 77 47 19 71 44 17 72 42 18 69 43 20 70 44 19 68 42 17 68 42 19 65 39 16 61 37 13 57 30 9 49 22 3 55 27 5 69 40 8 69 40 8 65 39 6 65 38 8 64 35 5 64 35 5 64 35 5 65 35 7 62 32 4 58 31 4 59 32 5 64 35 5 63 34 4 58 30 8 60 30 6 54 30 6 56 30 5 67 50 24 73 56 30 78 64 37 81 70 42 76 56 29 70 43 16 70 44 17 71 45 18 69 45 19 46 29 9 46 30 7 45 38 12 45 37 14 41 32 15 38 31 13 52 48 11 67 60 14 66 60 12 66 59 13 66 59 15 65 59 11 65 58 12 64 57 11 64 57 11 64 57 11 64 57 11 62 58 11 62 58 11 62 58 11 61 57 10 62 58 13 62 55 11 62 55 11 60 55 13 58 53 11 48 46 8 49 45 8 23 34 0 14 29 0 20 30 3 22 32 5 25 34 7 27 33 7 26 32 6 22 32 0 22 31 2 19 30 0 20 31 1 20 31 1 20 31 1 16 29 1 15 28 0 12 28 1 10 29 1 12 28 2 7 27 0 8 26 0 7 27 0 7 27 0 12 25 5 11 24 4 14 23 32 13 22 37 5 20 39 3 21 41 
68 42 17 67 39 15 71 41 17 70 43 16 72 45 16 74 49 19 78 47 19 71 44 17 72 45 18 70 44 19 70 44 19 69 43 18 68 42 19 66 40 17 65 39 16 60 32 10 51 24 3 55 29 4 69 40 8 69 40 8 65 38 8 64 38 3 63 33 5 61 34 4 64 34 6 65 34 5 59 32 3 57 30 3 58 31 2 63 32 4 61 31 5 61 35 8 60 34 9 61 39 15 61 39 15 72 52 28 72 56 30 78 64 37 82 68 41 74 57 29 71 44 17 72 44 20 72 46 19 70 44 19 50 32 8 51 33 9 46 39 13 45 39 13 41 34 15 39 32 14 54 48 14 64 56 10 65 58 14 65 58 12 63 59 12 63 59 12 65 58 12 64 57 11 61 57 10 64 60 13 63 59 12 63 59 12 62 58 11 64 57 11 61 57 12 61 57 10 61 57 10 61 57 12 59 55 10 60 53 11 50 46 9 50 46 11 23 34 4 16 30 4 22 32 5 23 32 3 24 33 6 24 33 6 22 33 3 21 32 2 22 31 2 19 30 0 21 31 4 19 30 0 20 31 1 16 29 1 15 30 1 13 29 0 13 29 2 12 28 2 10 28 2 9 28 0 8 28 1 6 29 1 11 26 3 12 27 4 10 24 25 11 25 28 8 22 31 5 23 33 
63 38 18 59 31 10 63 37 14 69 43 18 67 46 19 73 48 18 73 47 20 70 42 18 70 43 16 70 44 17 71 47 19 71 45 20 70 44 19 70 44 19 70 43 16 64 36 12 56 29 2 58 31 2 66 37 7 68 39 7 64 37 7 65 36 4 66 36 8 67 37 9 65 35 7 63 33 5 57 29 5 52 25 4 51 25 2 54 26 2 55 29 4 70 53 27 69 52 26 82 68 39 82 68 39 75 61 32 75 60 31 80 66 40 82 71 43 78 61 33 73 46 19 72 49 18 73 46 17 73 46 17 69 42 15 69 42 15 47 40 14 46 39 13 42 36 14 41 34 15 52 46 14 58 53 11 58 55 12 63 56 12 62 58 13 64 57 13 63 56 10 62 58 13 61 57 12 63 59 12 63 59 12 61 57 12 62 55 9 63 56 10 59 55 8 60 56 9 61 57 12 61 57 12 58 50 11 58 50 13 55 50 12 58 50 11 24 33 4 13 29 0 16 29 1 19 30 0 19 30 0 17 30 2 20 31 1 21 30 1 21 30 1 20 29 0 23 29 1 19 30 0 19 30 0 18 28 1 19 30 0 18 29 0 19 29 2 16 29 1 16 29 1 15 30 1 14 30 1 13 29 0 12 28 2 11 27 0 6 29 1 8 28 1 8 26 4 11 26 7 
64 43 22 62 37 17 64 39 17 67 41 18 70 44 19 74 47 18 74 47 18 71 45 18 72 45 16 71 45 18 71 45 18 71 43 19 70 44 21 69 43 18 69 41 17 64 37 10 57 29 5 57 30 3 66 37 5 66 37 5 63 36 6 63 36 6 66 35 6 66 37 7 64 33 5 63 33 7 57 31 6 53 27 4 56 30 7 57 31 8 60 36 12 70 54 28 71 54 28 80 69 41 81 67 38 76 62 35 75 59 33 79 68 40 81 69 43 75 58 30 71 45 20 72 46 19 73 46 19 72 45 16 70 43 16 71 44 17 50 39 11 47 37 12 41 36 14 43 35 16 52 45 16 56 51 11 59 54 12 63 56 10 59 57 9 62 58 11 61 57 10 61 57 10 61 57 10 63 56 10 65 58 12 63 56 12 63 56 12 62 55 11 60 56 11 59 55 10 60 56 11 60 56 11 56 51 13 57 49 12 57 49 13 58 50 14 25 34 7 13 29 2 16 29 1 16 29 1 19 29 2 17 30 0 19 30 0 20 29 2 22 28 0 20 29 0 21 30 1 20 31 0 19 30 0 18 31 3 21 31 4 22 31 2 22 33 3 20 31 1 17 30 2 15 30 1 14 30 3 13 29 0 12 28 1 12 28 1 9 27 1 5 28 0 11 26 3 13 27 4 
84 77 59 83 77 55 70 57 38 61 38 22 63 42 21 72 47 17 75 48 19 77 54 23 77 51 24 74 48 21 75 48 19 70 43 16 69 41 17 67 41 16 66 40 17 63 37 12 60 30 4 60 30 4 63 34 4 60 35 5 61 34 4 63 33 5 62 35 6 65 33 8 57 29 5 54 26 2 58 36 12 64 47 21 70 54 28 83 69 42 81 70 42 77 66 38 81 65 40 80 66 39 80 65 36 76 61 32 76 59 33 77 63 36 79 65 36 67 51 28 54 37 19 58 37 16 71 44 17 70 45 15 71 46 16 71 46 16 55 33 10 52 30 9 44 36 15 44 38 16 40 33 15 40 31 14 48 41 12 64 57 11 61 57 12 63 56 10 60 56 9 61 57 12 61 57 10 64 57 11 65 58 12 64 57 11 62 55 9 62 55 9 62 55 11 59 55 10 59 54 12 58 53 11 57 49 12 56 48 11 55 49 13 57 48 15 24 35 5 13 29 2 14 28 2 14 29 0 17 30 2 16 29 1 17 30 2 17 30 2 17 30 2 20 31 1 17 30 0 19 30 0 19 29 2 32 41 14 37 46 19 44 50 24 50 54 29 39 44 21 20 30 5 17 30 4 13 27 1 15 28 0 12 28 1 12 28 1 10 29 1 10 28 2 13 29 0 15 30 1 
84 77 59 83 76 57 72 56 40 59 38 21 64 42 21 74 47 17 73 47 20 77 52 22 78 53 23 73 47 20 74 47 20 70 43 16 69 42 15 68 40 18 66 40 17 63 37 10 58 31 4 60 30 4 63 33 5 62 32 4 63 34 4 63 34 4 61 34 5 63 36 7 57 29 5 53 25 3 60 36 12 67 47 22 71 55 29 80 69 41 80 69 41 79 65 39 79 65 39 80 66 37 79 65 38 77 61 35 75 60 31 77 63 36 80 66 37 67 51 28 53 34 17 59 38 17 74 47 18 72 45 18 71 46 16 71 46 16 55 35 11 53 31 8 46 35 13 44 37 18 41 34 15 39 32 13 48 41 13 63 56 10 62 58 11 61 57 12 62 55 9 60 56 9 61 57 10 62 58 11 61 57 10 61 57 12 62 55 11 62 55 11 62 55 11 60 56 11 61 54 12 60 53 11 54 49 11 55 47 11 58 48 13 57 49 13 23 34 4 12 28 1 14 30 3 13 29 0 14 30 1 17 30 2 17 30 0 17 30 2 18 28 1 19 30 0 17 30 0 20 31 1 20 30 3 32 41 12 39 45 19 45 50 27 50 54 27 38 44 16 19 29 4 18 31 5 13 29 2 13 27 1 10 29 1 12 28 1 9 28 0 11 27 0 13 29 2 15 28 0 
85 82 65 85 82 65 86 80 64 83 76 60 79 72 56 76 67 50 76 63 46 68 40 16 67 41 16 68 40 16 69 41 17 69 43 18 69 43 18 66 40 15 64 38 15 63 36 9 59 32 5 58 30 6 59 32 5 57 31 4 61 31 5 63 34 2 55 31 7 55 30 10 69 49 24 76 61 32 77 62 33 80 66 39 80 66 39 82 68 41 79 68 40 79 67 41 79 67 41 80 66 39 79 68 38 77 62 33 73 59 30 76 61 32 78 63 34 45 45 33 10 28 32 14 28 31 21 33 33 28 33 29 67 41 16 67 41 16 66 40 15 65 41 15 52 41 13 44 38 12 42 35 16 39 33 17 47 41 15 61 54 10 62 55 9 62 55 11 63 56 12 63 56 12 59 55 8 59 55 10 58 54 9 59 55 10 59 55 10 61 54 12 60 52 13 56 50 14 57 49 12 57 49 13 53 47 11 52 46 10 47 42 13 50 39 17 24 33 4 15 30 1 16 29 1 17 30 0 17 30 0 19 30 0 19 30 0 20 31 1 21 32 2 20 31 1 21 30 1 19 30 0 19 30 0 19 32 4 22 32 5 22 32 5 25 34 7 25 34 7 24 33 6 25 30 7 22 30 7 24 32 8 13 27 1 13 27 1 13 29 0 8 28 0 9 28 0 12 28 1 
87 81 65 87 86 68 87 81 65 86 80 64 83 77 61 77 70 54 77 65 51 65 39 14 66 38 14 71 41 17 67 41 16 68 42 19 68 42 17 67 41 16 62 36 13 63 35 11 60 33 6 57 31 6 57 29 5 58 30 6 60 30 2 61 31 3 54 29 7 51 29 8 69 52 26 80 65 36 80 66 37 78 67 37 81 67 38 82 66 40 79 68 40 80 69 41 83 69 43 83 67 41 81 67 38 76 61 32 73 59 30 77 62 33 79 64 33 42 46 32 7 26 33 8 28 35 15 30 33 20 30 31 66 40 17 66 40 17 67 41 16 67 41 16 52 40 16 46 40 14 41 34 16 36 33 18 46 40 14 62 55 11 59 55 10 61 54 10 62 55 11 63 56 12 62 55 9 62 55 11 60 53 9 59 55 10 60 56 11 58 53 11 56 51 13 56 51 13 56 48 12 55 47 11 52 46 12 54 45 12 47 40 14 49 39 14 25 31 3 15 29 3 19 30 0 17 30 0 18 28 1 17 30 0 19 30 0 21 32 0 22 31 2 20 31 1 20 31 0 16 31 2 16 29 1 18 31 3 20 30 3 20 30 3 21 31 6 22 32 5 24 32 8 24 32 8 24 32 9 23 31 8 13 27 1 14 29 0 13 29 2 10 29 1 10 29 1 9 28 0 
35 34 29 25 34 33 55 56 48 86 83 64 83 80 63 82 76 62 81 74 58 80 72 53 83 72 54 76 61 42 71 59 37 67 43 19 62 36 13 64 38 15 65 39 16 64 36 12 57 31 6 58 30 6 55 29 6 55 29 6 71 51 24 70 53 25 71 55 29 71 55 29 77 63 36 79 65 38 80 66 39 81 67 40 82 68 41 80 66 39 81 67 38 80 66 37 80 66 39 82 68 41 82 68 39 76 61 32 74 59 30 80 65 36 82 69 37 47 51 37 9 32 40 11 31 38 11 30 36 13 31 35 22 32 31 18 33 28 31 32 24 35 30 24 44 36 15 47 35 11 41 35 13 40 35 16 44 40 15 52 46 10 53 47 11 59 54 12 60 52 13 60 53 11 60 52 13 58 50 13 58 50 13 58 50 13 58 50 11 54 48 14 52 46 14 51 45 13 50 43 14 51 42 13 49 38 16 48 38 13 34 34 8 34 34 8 26 32 4 22 31 2 21 32 2 20 31 1 20 31 1 20 31 0 20 31 0 20 31 0 19 30 0 21 30 1 22 31 0 20 31 1 19 30 0 18 28 1 17 30 2 20 30 3 21 31 4 20 30 3 22 33 3 27 36 9 42 46 21 41 45 22 44 48 23 43 49 23 21 34 8 18 31 5 15 29 3 12 28 1 
17 19 18 7 14 20 46 49 42 85 84 66 84 81 64 83 80 63 82 79 62 86 83 66 87 81 65 75 64 46 75 62 46 64 42 21 61 35 12 64 36 12 66 40 17 63 37 14 60 30 6 58 30 6 54 28 5 53 28 6 74 59 30 74 58 32 80 66 37 79 65 38 79 65 38 80 66 37 80 66 39 79 68 40 80 66 39 81 67 38 81 67 40 76 65 37 77 63 36 82 68 39 79 68 38 75 61 32 74 59 30 81 66 37 86 71 40 49 52 41 9 34 39 11 31 40 9 30 35 10 30 37 6 29 37 5 30 37 23 29 29 24 28 27 41 34 16 48 36 10 43 35 16 40 35 16 42 38 13 49 43 11 51 45 11 61 53 14 61 54 12 58 50 11 59 51 12 55 50 12 57 49 13 54 49 11 55 50 10 52 46 12 49 42 13 50 40 13 48 41 13 49 39 12 43 37 13 46 35 13 29 33 6 29 33 6 26 32 4 22 33 3 22 31 2 20 31 1 20 31 1 20 31 1 20 31 0 20 31 1 20 31 0 20 31 0 21 32 0 22 31 0 21 30 1 17 30 0 17 30 2 20 31 1 21 32 2 21 30 1 20 29 0 26 35 6 45 49 22 47 51 26 50 54 29 51 55 28 25 33 9 20 30 5 16 30 5 13 29 2 
24 31 24 12 22 24 38 43 37 65 65 53 70 68 55 83 76 60 84 79 60 86 83 66 86 83 66 78 71 53 79 70 53 76 61 42 74 59 40 67 50 30 65 43 22 63 41 18 60 38 14 62 40 16 63 46 18 65 45 21 77 62 33 77 63 34 80 67 35 81 67 38 80 66 39 80 66 39 78 67 39 80 69 41 79 68 40 79 65 36 79 65 36 80 66 39 78 67 39 81 67 38 83 69 40 76 62 35 75 60 31 80 64 38 85 70 41 48 51 40 10 35 42 11 33 44 12 35 41 11 34 40 7 30 36 7 30 36 16 27 31 16 27 29 39 32 16 47 32 11 40 33 14 41 36 17 41 36 16 46 39 13 48 41 13 56 51 13 59 49 14 55 50 12 57 49 13 54 48 14 55 49 13 53 47 13 52 46 14 50 43 14 47 40 12 47 40 12 47 43 16 48 41 15 39 37 14 40 35 13 30 33 6 28 32 5 26 32 4 25 30 0 24 31 0 21 30 1 20 29 0 18 31 1 21 30 1 19 30 0 21 32 2 20 31 1 20 31 1 22 31 0 22 31 2 19 30 0 16 31 2 21 30 1 18 31 1 23 32 5 22 30 6 27 33 7 36 42 16 36 42 16 60 64 41 61 63 39 45 50 27 44 52 28 29 42 16 22 35 9 
33 43 32 18 30 30 33 38 34 46 49 40 56 56 44 83 74 57 83 76 58 87 84 65 87 84 65 85 78 60 84 77 59 85 82 65 85 82 65 75 64 46 62 43 26 63 45 23 63 46 18 66 49 23 77 63 36 77 63 36 81 66 37 81 66 37 81 67 38 82 68 39 80 66 37 79 65 36 81 67 40 82 68 41 81 67 38 77 63 36 78 64 35 81 67 38 80 66 39 82 68 41 80 69 41 79 63 37 76 62 35 81 65 39 83 69 42 49 52 43 12 35 41 11 36 43 14 41 48 15 40 47 8 31 37 8 31 37 7 27 34 6 26 33 35 29 15 45 30 9 41 32 15 40 34 18 41 34 16 39 32 14 43 37 15 55 46 13 53 47 11 55 47 11 53 47 13 53 47 15 54 45 14 49 42 14 46 39 13 45 37 14 41 33 10 46 38 17 46 41 19 45 41 16 31 35 12 31 35 12 29 33 6 26 32 4 26 33 0 26 33 2 22 31 0 19 30 0 21 30 1 21 30 1 19 30 0 20 31 1 20 31 1 21 30 1 21 30 1 20 31 1 21 30 1 20 31 1 21 30 1 20 31 1 20 29 0 22 31 4 26 31 8 26 32 6 25 30 7 24 29 6 68 70 49 69 71 50 66 68 47 66 70 47 43 51 27 30 40 15 
48 56 41 37 49 39 34 44 36 34 40 36 47 48 42 78 71 53 75 68 52 60 58 46 60 58 46 72 69 54 77 71 57 82 79 62 86 80 64 78 69 52 72 56 41 71 56 35 68 51 23 71 54 26 77 63 36 78 64 37 54 45 30 55 47 28 68 56 34 71 59 33 75 63 37 80 66 39 81 67 40 82 68 41 81 67 41 80 66 37 80 66 37 82 68 41 83 69 42 80 69 41 82 68 42 78 63 34 76 60 34 81 66 37 83 69 40 46 52 40 12 35 41 13 36 44 15 40 47 16 41 46 14 34 41 11 34 40 7 27 34 8 27 34 26 29 22 32 30 18 38 30 17 37 34 17 39 33 17 40 33 15 43 35 14 53 47 13 55 46 13 53 44 11 55 46 15 50 43 14 50 43 14 48 42 16 48 40 17 48 40 17 50 44 22 47 42 20 43 41 18 41 41 17 30 34 11 32 36 11 27 34 3 28 35 4 26 32 4 26 33 2 25 32 1 22 31 0 22 32 0 22 31 0 21 30 1 21 30 1 20 31 1 22 31 2 22 31 0 20 31 1 18 31 1 22 31 4 21 32 2 19 30 0 20 30 3 21 31 4 25 33 9 27 33 7 26 31 11 26 31 9 60 63 42 60 63 42 67 69 48 69 72 51 42 50 27 28 36 12 
71 79 56 69 77 53 42 52 41 16 26 27 31 35 34 71 61 49 64 56 45 19 15 12 21 16 13 59 56 47 63 61 49 80 74 58 84 77 61 82 79 64 84 80 68 80 73 55 75 60 31 75 60 29 80 65 34 79 64 33 10 12 11 10 11 13 47 38 21 53 40 21 70 60 35 81 69 43 79 67 41 81 67 40 82 68 39 85 70 39 83 69 40 83 69 40 84 69 40 78 69 40 79 67 41 76 60 34 75 59 33 80 65 36 83 70 38 49 53 39 11 35 45 14 37 45 15 40 47 14 39 44 15 40 45 15 40 47 9 29 38 7 26 33 10 29 33 10 31 32 28 31 22 38 31 15 39 32 16 38 31 15 42 33 16 52 43 12 51 42 13 49 39 12 51 41 14 46 39 13 47 36 14 46 40 18 47 41 17 51 49 26 57 57 33 50 49 28 35 37 13 33 37 12 29 33 8 30 34 9 26 33 2 25 32 1 27 32 2 26 33 2 25 32 1 25 32 1 24 31 0 24 31 0 24 31 0 21 30 1 20 31 1 22 31 0 22 31 0 20 31 0 20 31 0 21 32 0 21 32 0 20 31 1 16 29 1 21 31 4 30 34 11 27 32 9 31 34 15 29 34 12 49 54 32 49 54 34 70 73 54 74 77 58 41 49 25 24 33 6 
