P3
100 50
255
32 42 17 32 42 17 51 52 44 56 55 51 66 58 56 67 62 59 66 61 58 63 60 55 59 56 51 46 43 34 42 42 32 28 36 13 28 36 15 37 47 20 36 49 21 35 45 20 33 43 18 35 43 22 36 43 25 29 33 19 15 16 10 17 18 12 24 28 14 25 27 13 30 38 17 29 37 16 33 41 18 32 42 18 36 44 20 38 48 21 38 48 23 38 48 23 39 49 22 39 49 22 38 48 21 36 46 21 37 47 20 32 34 21 30 34 20 36 38 25 34 40 30 51 48 41 63 53 52 58 53 49 55 50 47 55 50 46 54 50 47 57 49 47 62 55 49 62 54 51 59 54 51 62 54 52 41 41 33 35 35 27 36 33 26 35 32 27 40 37 32 49 44 41 48 43 40 43 40 35 41 40 35 41 41 33 42 39 32 26 30 16 24 30 16 31 33 20 33 37 23 30 37 21 31 35 20 28 35 19 27 31 16 28 32 17 30 34 20 30 34 20 32 33 25 33 33 25 59 54 50 68 60 58 66 61 58 64 59 55 70 62 60 75 64 62 75 57 55 79 38 34 79 38 32 81 36 31 82 34 30 63 32 27 65 32 25 52 33 27 49 34 29 42 32 30 37 33 30 49 45 42 72 67 63 65 61 50 33 41 18 33 41 18 28 30 16 29 31 18 
35 45 20 37 47 20 56 57 49 62 61 59 62 57 54 59 54 51 60 55 52 60 56 53 55 54 49 43 43 33 40 42 31 26 33 15 27 35 14 31 41 17 35 44 17 34 44 17 34 44 17 34 44 17 35 45 20 26 33 15 14 15 9 16 17 11 24 26 15 24 25 17 24 28 13 24 28 14 26 30 13 27 31 14 31 41 17 37 45 21 38 48 21 41 52 22 40 51 21 39 52 24 41 52 22 39 49 22 39 50 20 21 28 12 23 27 12 26 30 15 27 31 16 50 50 40 68 60 57 60 55 51 53 48 45 54 49 45 60 52 49 61 53 50 66 58 55 66 59 53 58 53 50 58 50 48 36 36 28 29 30 22 33 32 27 38 34 31 42 38 35 49 44 40 51 43 41 50 45 42 49 43 43 50 45 41 50 45 42 27 26 21 22 23 15 29 29 21 31 31 23 28 29 21 25 27 14 25 27 16 23 25 14 24 27 16 30 32 21 30 32 21 38 34 31 38 34 33 63 58 55 70 65 61 65 60 57 62 57 53 68 63 59 81 71 69 78 64 61 70 35 31 71 36 30 82 34 30 80 35 29 52 29 21 47 27 20 29 25 22 24 24 24 32 32 32 41 39 40 50 49 45 70 67 60 60 62 51 32 45 19 34 44 17 30 37 19 30 38 17 
32 40 17 30 40 16 59 58 53 66 65 61 62 57 54 61 53 50 62 54 52 61 57 54 53 52 47 33 39 25 37 39 25 28 37 16 28 37 16 35 45 20 36 46 19 33 46 20 34 44 19 35 45 20 35 45 20 30 38 15 21 25 11 21 24 13 25 27 16 24 27 16 27 29 18 27 29 16 28 32 18 29 31 18 31 35 20 30 37 21 37 40 23 42 41 23 43 45 24 49 54 34 49 54 34 40 45 25 38 46 25 33 36 25 34 36 23 37 39 28 38 40 29 53 50 43 64 56 54 55 50 46 40 36 35 46 40 40 59 51 49 58 53 50 65 57 55 65 57 54 54 49 46 54 46 44 38 38 30 32 32 24 39 36 29 44 40 37 47 42 39 49 44 41 49 44 41 51 46 43 50 45 42 49 44 41 48 43 40 25 24 19 22 23 17 28 27 22 30 29 24 30 30 22 26 28 17 26 28 17 26 28 17 27 29 18 37 37 29 37 37 29 39 35 32 40 35 32 58 54 51 66 61 55 63 58 55 63 55 52 69 61 58 78 73 69 77 66 62 73 45 41 69 42 35 57 26 23 57 28 24 42 28 19 42 29 20 32 32 22 29 32 23 37 38 33 46 42 43 50 49 45 55 55 45 52 53 39 32 45 19 32 45 19 30 39 18 30 39 18 
25 29 12 25 29 12 58 57 52 72 68 67 63 58 55 60 53 47 61 53 50 61 56 52 52 49 42 26 33 17 27 34 16 32 40 17 31 41 17 39 50 20 39 52 22 34 44 19 33 43 18 34 44 19 34 47 21 35 45 18 30 39 18 31 39 16 25 29 14 24 31 15 32 31 26 32 31 26 33 32 27 33 32 28 28 27 23 22 21 17 33 21 23 44 22 25 49 31 31 61 58 53 59 56 49 38 38 28 38 38 28 53 48 45 54 49 45 57 53 50 58 54 51 60 55 52 59 54 50 44 40 39 19 18 16 29 25 24 54 49 45 55 49 49 66 59 53 63 58 55 46 42 39 45 41 40 40 37 30 37 37 29 47 42 38 56 48 46 53 48 45 50 47 42 51 46 42 52 47 44 54 49 45 45 40 37 46 41 38 25 21 18 21 20 16 30 26 23 33 29 26 29 28 24 26 27 19 26 27 19 27 26 21 30 29 24 49 44 40 49 44 40 40 36 33 40 36 33 55 50 46 59 54 50 59 54 51 60 55 52 66 61 57 76 68 65 77 67 65 74 59 54 69 54 49 17 13 12 16 14 15 26 30 15 26 33 17 34 41 23 36 44 23 44 48 34 53 49 48 43 44 38 31 38 22 31 38 20 32 40 17 32 42 17 33 43 18 33 43 18 
36 39 22 33 38 18 61 60 55 72 68 67 64 58 58 60 55 51 62 54 51 60 55 51 53 53 45 34 40 26 37 41 26 41 48 30 43 47 30 43 51 27 42 50 26 36 41 19 30 40 16 33 41 18 36 46 21 33 43 18 32 42 18 31 41 17 26 33 15 28 32 15 30 31 23 30 31 23 35 32 27 35 32 27 28 27 23 24 23 21 32 22 21 40 22 22 46 30 30 61 58 51 57 52 46 43 43 35 45 42 37 51 48 43 51 48 43 51 50 46 55 52 47 54 50 47 51 48 41 39 36 31 21 20 16 27 26 22 47 43 40 49 44 41 58 53 47 57 52 46 43 39 36 41 37 34 39 39 31 41 38 33 48 43 39 56 51 47 54 49 45 49 44 40 50 45 41 54 49 46 56 48 46 40 36 33 40 36 33 25 24 20 23 22 18 29 25 24 28 27 23 28 27 22 27 28 20 26 27 19 26 25 20 32 29 24 50 45 42 49 45 42 40 36 33 40 36 33 55 50 46 62 54 52 64 54 53 60 55 49 67 62 58 80 72 69 76 68 65 65 56 51 60 49 45 19 18 16 19 18 16 28 31 20 27 34 18 33 41 20 35 45 21 42 46 32 46 45 41 40 42 31 32 36 19 31 39 18 32 42 17 33 43 19 34 44 19 34 44 19 
64 61 46 66 60 44 68 67 62 73 69 70 70 62 60 64 59 55 65 57 54 58 53 50 59 54 51 60 59 57 64 58 58 75 71 68 74 70 69 48 48 40 45 45 35 29 33 18 23 30 12 26 33 15 30 38 17 30 40 16 32 42 17 32 42 17 31 39 16 31 41 17 25 32 14 25 32 14 35 31 28 36 33 28 32 28 25 27 26 22 28 24 21 26 23 18 33 30 25 53 50 43 54 49 43 61 53 50 61 53 50 50 45 41 49 44 40 42 44 33 41 43 30 34 34 22 30 30 20 28 29 21 27 27 19 27 27 19 25 28 17 26 28 17 33 41 20 32 41 20 30 32 21 29 31 20 41 40 35 46 43 38 54 46 43 58 50 48 53 48 42 47 44 35 48 45 38 55 50 46 58 50 48 29 25 24 26 25 23 31 27 24 32 28 25 22 21 19 17 16 14 23 22 18 28 27 23 28 27 22 28 25 20 30 29 24 52 47 44 51 46 43 40 35 32 38 37 33 60 52 50 64 59 56 66 58 55 64 56 54 72 66 66 84 80 79 72 71 69 41 39 42 41 39 40 30 30 28 31 30 26 28 36 15 29 37 16 34 44 19 36 46 21 33 37 20 28 31 20 29 33 19 27 35 14 29 37 16 32 42 18 33 43 19 36 49 23 38 48 21 
66 60 46 65 62 47 71 68 63 72 71 69 69 64 61 67 57 56 65 57 54 57 52 49 59 54 51 63 57 57 64 60 59 74 70 67 74 70 67 47 47 39 44 46 35 28 32 17 24 28 11 27 34 16 29 37 16 30 40 16 33 43 19 32 42 18 30 40 16 29 39 15 25 32 14 27 31 14 32 33 27 35 31 28 29 28 24 29 25 24 28 24 21 26 22 19 33 30 25 54 51 44 53 50 45 62 54 51 60 52 50 49 44 41 50 45 41 43 45 34 39 43 28 34 34 22 30 30 22 28 29 21 27 27 19 27 27 19 25 27 16 26 28 17 34 38 21 35 40 20 30 32 21 32 29 20 41 41 33 46 43 38 52 47 43 56 51 47 53 50 45 45 45 35 48 45 38 55 50 46 56 51 47 26 25 23 26 25 21 31 27 24 32 28 25 23 22 20 18 17 15 25 21 20 29 28 26 28 27 23 29 26 19 29 29 21 50 45 42 50 45 42 39 35 32 40 36 33 59 54 50 66 58 55 63 58 54 65 58 52 72 64 62 82 81 79 72 71 69 42 40 41 41 39 40 32 31 27 31 30 28 28 35 17 28 36 13 33 43 18 36 46 21 31 38 20 28 31 20 27 33 19 27 36 15 28 38 14 33 43 19 30 42 18 38 48 21 38 48 21 
79 71 58 80 72 59 77 72 68 76 72 71 70 65 61 68 60 58 65 60 56 62 57 53 63 55 52 61 56 52 61 56 53 62 57 54 63 58 55 65 64 62 67 65 66 61 56 53 58 53 50 50 45 41 39 38 33 30 30 22 17 16 11 17 18 13 30 30 22 30 29 24 37 33 30 36 32 31 37 33 30 36 32 29 32 31 27 32 28 27 30 29 25 29 30 25 38 34 33 57 52 49 60 52 50 58 53 50 60 52 50 48 43 40 46 42 39 37 41 26 33 40 22 38 46 22 41 52 22 40 53 23 43 57 24 43 57 22 42 55 25 40 53 23 37 47 22 37 47 20 27 31 16 25 29 14 39 39 31 45 40 36 40 40 30 35 39 24 36 40 23 33 43 18 33 43 19 31 31 23 32 32 24 22 21 19 23 19 18 31 27 26 31 27 24 35 31 30 36 32 31 30 26 25 24 23 21 24 23 21 23 24 16 27 28 20 50 45 42 51 46 43 42 36 36 41 36 33 56 48 45 61 53 50 71 67 64 80 76 73 76 72 69 68 64 63 63 59 58 46 42 41 42 41 39 34 36 22 33 37 22 33 41 18 33 41 18 32 40 17 31 39 15 35 43 19 35 48 22 34 44 19 29 39 15 33 43 18 40 54 21 41 52 22 37 47 20 37 47 20 
79 73 57 80 73 57 77 72 68 76 72 71 72 67 63 68 60 57 65 60 56 63 55 52 64 56 53 62 57 53 64 56 53 63 58 55 62 57 54 64 63 61 65 63 64 61 56 53 60 52 50 49 46 41 38 37 32 31 28 23 16 17 12 19 18 14 30 30 22 29 30 22 37 33 30 36 32 29 37 33 30 37 32 29 34 30 29 32 29 24 30 29 25 29 30 25 35 36 31 57 52 49 57 51 51 57 52 48 57 52 48 46 42 41 47 44 39 36 40 26 32 39 23 38 46 23 40 51 19 40 53 25 43 57 24 44 58 25 42 55 25 40 53 23 37 47 20 38 48 23 27 31 16 24 28 14 37 37 29 46 41 37 39 41 28 36 40 25 36 40 23 32 45 19 33 41 18 32 32 22 31 32 24 24 20 19 21 20 18 28 27 25 32 28 27 33 32 28 36 32 29 31 27 26 26 22 21 26 22 19 22 23 15 26 27 19 50 47 42 51 46 42 41 36 33 41 36 33 56 48 45 59 54 51 71 67 64 79 75 72 76 72 69 70 64 64 65 60 57 44 43 41 44 43 39 33 37 23 34 38 23 32 42 18 33 43 18 33 41 18 32 41 20 35 45 20 37 47 20 35 43 19 29 37 14 32 40 17 43 54 24 40 53 23 37 47 22 37 47 20 
74 52 39 73 51 38 73 66 60 74 70 67 69 64 60 69 61 58 66 58 55 60 52 50 59 51 49 62 54 51 61 53 50 61 53 50 59 54 50 62 58 55 61 57 54 73 68 65 74 70 67 61 56 53 48 43 40 38 34 31 16 17 11 19 18 13 29 28 23 29 28 23 37 33 30 37 33 30 36 32 29 36 32 29 32 31 26 32 28 25 49 48 44 70 66 63 64 58 58 50 46 43 51 45 45 59 51 48 56 51 48 45 41 38 45 41 38 56 53 48 59 56 51 46 46 36 38 40 29 34 34 24 24 25 17 25 26 18 27 28 22 26 27 19 22 23 15 23 25 14 44 41 36 48 45 38 49 44 41 50 45 42 42 42 32 36 40 23 35 43 20 38 48 23 37 47 20 27 31 14 27 34 16 27 29 18 27 28 20 32 28 25 32 28 27 33 32 30 34 33 31 35 31 30 32 31 29 32 28 27 23 22 18 26 25 21 47 43 40 48 43 40 41 37 34 40 36 33 63 58 54 71 63 60 75 67 65 76 72 69 74 70 67 70 65 62 56 55 51 25 28 19 27 31 17 34 44 19 34 44 20 35 45 20 35 45 20 33 43 16 33 41 17 29 37 16 22 29 11 28 36 13 37 47 22 37 47 22 35 45 21 32 45 19 30 38 17 30 40 16 
72 49 35 72 48 36 71 62 57 73 68 65 70 65 61 66 61 57 66 58 55 57 52 49 60 51 52 62 54 52 59 54 50 60 52 49 58 53 49 61 56 53 62 57 54 73 69 66 76 72 71 64 59 56 49 44 41 38 34 31 17 18 12 20 19 14 30 29 24 30 29 24 36 32 29 36 32 29 35 31 28 35 31 28 33 29 26 29 28 24 52 48 45 74 69 66 67 63 62 50 46 45 51 47 46 57 52 49 57 52 49 45 41 38 46 41 38 59 54 50 65 57 54 49 46 39 38 38 30 31 33 22 22 21 16 21 20 15 25 24 20 25 24 19 22 23 17 22 23 17 45 41 38 50 45 41 51 46 43 50 45 41 44 44 32 35 43 22 36 44 21 39 49 24 36 46 21 26 34 13 27 35 14 27 29 18 27 29 18 32 28 27 32 28 27 35 31 30 36 32 29 36 32 31 35 31 28 32 31 29 22 21 19 25 24 22 47 42 39 47 42 39 39 35 34 40 36 33 62 57 53 72 64 61 75 70 66 77 72 69 74 69 66 69 64 60 57 54 49 22 26 12 22 28 14 36 46 21 35 45 20 37 47 22 35 45 18 34 44 19 32 42 18 27 34 16 21 28 10 30 35 13 40 50 23 37 50 22 33 43 19 33 43 18 30 38 17 29 37 16 
65 44 41 65 44 41 70 59 57 69 61 58 66 61 57 63 58 54 63 55 53 53 48 45 53 48 45 51 46 43 51 46 43 58 53 50 58 53 50 61 56 53 63 57 57 71 67 64 76 71 68 65 60 57 54 49 46 40 36 33 17 16 12 19 18 14 26 27 19 26 27 19 37 33 30 37 33 30 36 32 29 36 32 29 37 33 30 39 35 32 54 50 47 69 64 58 64 61 56 46 47 42 46 45 41 49 44 38 47 44 39 42 41 37 45 42 37 60 55 51 64 61 56 56 51 47 50 47 42 41 38 33 24 23 19 26 25 23 33 29 26 30 29 25 24 25 19 24 25 19 50 45 42 53 48 45 50 45 42 48 44 41 41 41 29 33 40 22 34 42 19 36 46 19 35 45 20 28 37 16 28 38 14 31 36 16 30 34 17 31 31 23 31 30 25 30 29 27 32 28 25 32 31 29 36 32 31 35 31 28 28 27 25 31 27 28 34 30 29 34 30 27 42 38 37 42 36 36 61 56 52 69 64 60 62 57 53 60 52 50 61 56 53 68 63 59 60 57 52 31 32 24 32 33 25 31 39 18 30 38 15 35 45 20 35 48 20 33 43 18 31 41 16 29 37 16 23 30 14 28 36 15 36 46 21 34 44 19 32 42 17 31 41 16 25 33 12 25 33 12 
61 41 42 62 42 44 66 56 54 69 61 59 65 60 56 66 58 55 59 54 51 53 48 45 51 46 43 45 41 38 47 42 39 57 52 49 58 53 49 62 57 54 64 59 56 72 66 66 74 70 67 66 60 60 56 51 45 44 35 36 19 15 14 18 17 13 25 26 18 24 27 18 37 33 30 38 32 32 36 32 29 35 31 28 41 35 35 44 40 39 54 50 47 65 60 54 62 57 51 46 45 40 45 45 37 44 39 33 43 40 35 44 40 37 45 41 38 61 56 52 68 60 57 63 55 52 58 53 49 46 42 39 28 24 23 30 26 25 35 31 28 35 31 28 26 25 20 25 26 20 51 46 43 56 51 48 51 46 42 48 44 41 42 44 31 32 40 19 32 42 18 36 46 19 34 44 19 30 38 17 30 38 15 31 41 17 32 42 18 30 32 21 30 29 24 29 28 23 31 27 24 30 31 26 36 32 29 37 32 29 34 30 29 32 28 27 27 23 22 24 23 21 41 37 36 43 37 37 62 57 54 68 63 59 53 48 45 45 40 37 53 48 45 68 63 59 60 57 52 35 34 30 34 35 29 28 36 13 28 35 17 35 45 20 34 47 19 33 41 17 31 41 16 28 37 18 24 31 15 28 36 15 35 45 21 34 44 19 33 41 17 33 41 17 22 29 11 24 28 11 
62 46 49 61 46 51 64 54 52 62 57 53 60 55 51 58 53 50 56 51 48 53 48 45 51 45 45 44 40 37 47 42 39 56 51 47 55 50 47 62 57 53 63 58 55 67 63 62 68 67 63 63 59 56 59 54 50 44 38 38 20 16 15 20 19 15 29 28 23 28 27 23 36 32 29 36 32 29 35 31 30 33 32 28 46 42 39 52 48 45 48 48 38 46 48 34 46 47 33 40 44 29 40 44 29 40 44 29 40 44 27 38 40 26 36 38 27 45 47 33 48 50 36 53 50 43 55 50 47 45 41 38 29 25 22 30 26 23 36 31 27 35 31 30 25 24 20 24 23 19 49 44 41 53 48 45 44 44 36 43 43 33 40 43 26 35 45 20 37 47 22 37 47 20 37 47 20 29 38 17 30 39 18 34 44 19 35 43 19 34 41 23 35 42 24 33 37 22 30 32 18 31 32 24 35 32 27 35 31 28 36 32 29 34 29 26 28 24 23 28 24 23 39 38 34 43 35 33 57 49 47 63 55 52 50 44 44 44 39 36 51 46 43 61 56 53 58 53 49 48 47 43 46 47 42 33 37 23 34 38 24 32 40 17 29 37 16 29 33 16 28 32 15 35 38 27 45 47 36 45 49 35 43 47 32 42 46 31 40 44 29 40 44 29 26 28 15 26 28 15 
62 52 53 62 52 51 58 53 50 60 52 50 55 50 46 52 47 44 52 47 44 51 46 43 50 45 42 44 39 36 44 40 37 53 48 44 53 48 45 63 58 55 63 58 54 64 60 59 63 62 60 63 59 56 62 57 53 45 41 38 19 18 16 22 21 19 34 30 27 34 30 29 37 33 30 34 33 29 34 30 29 34 30 27 50 46 45 58 56 57 43 45 32 25 35 11 27 37 12 36 41 18 34 44 20 38 49 19 38 48 23 29 37 14 29 39 15 32 40 16 31 41 16 44 44 32 52 47 43 44 41 36 32 28 27 33 29 28 36 33 28 35 31 30 24 20 17 25 21 20 48 43 40 52 47 44 39 41 30 35 39 24 39 44 22 38 51 23 40 50 23 39 49 22 38 48 21 31 39 16 31 39 18 38 48 23 37 47 20 41 51 24 41 52 20 33 43 18 29 39 15 31 33 19 30 30 22 32 31 26 34 30 27 34 30 27 30 26 25 28 27 25 38 34 31 38 33 30 50 45 42 54 49 46 47 42 39 45 37 35 47 42 39 54 49 46 57 52 49 65 61 58 62 58 57 39 38 33 40 39 34 29 32 21 28 31 20 24 24 14 25 22 13 46 43 36 64 63 61 60 59 54 52 51 46 51 51 43 48 47 43 48 48 40 28 28 18 29 27 15 
66 57 58 65 56 59 60 52 49 61 51 49 55 47 45 50 45 42 53 45 43 50 45 41 47 42 39 39 34 31 39 35 32 49 41 39 47 43 40 62 54 52 65 58 52 64 58 58 62 58 57 66 60 60 67 62 59 52 47 43 20 19 17 25 21 20 34 30 29 34 30 29 36 32 29 35 31 28 35 31 28 35 31 28 51 50 45 63 59 56 45 47 34 26 36 12 29 39 15 33 45 21 34 44 19 38 46 22 35 48 20 32 42 17 32 42 15 30 40 15 30 40 15 39 43 26 47 48 34 40 42 29 33 35 24 33 33 23 33 32 27 31 30 26 24 20 19 25 21 20 48 43 40 50 45 42 41 41 31 37 39 25 37 44 26 39 49 22 38 48 21 39 49 22 38 48 21 35 43 19 33 43 18 38 48 21 36 49 21 36 47 17 36 46 21 30 40 15 26 38 14 31 33 19 30 30 22 31 31 23 35 31 28 34 30 29 29 25 24 27 26 24 35 31 30 34 30 29 46 41 38 49 43 43 41 40 35 39 36 31 43 40 35 47 44 37 50 47 40 58 55 50 53 52 48 43 44 39 44 43 39 36 37 29 36 37 29 26 26 16 25 25 15 50 45 41 70 66 63 63 62 58 54 51 46 54 51 46 53 50 43 54 49 45 32 29 20 28 28 18 
70 66 65 69 68 64 59 54 51 58 50 47 51 46 43 46 41 38 45 41 40 47 42 39 42 37 34 28 27 23 30 26 25 38 33 30 38 34 33 57 52 49 63 53 51 60 55 52 57 56 54 67 63 64 78 73 70 58 53 50 26 22 21 27 23 22 36 32 29 34 33 29 34 30 27 35 31 28 36 32 31 36 32 31 56 52 49 68 65 60 48 50 37 25 34 13 29 37 16 37 47 20 37 47 20 34 44 19 34 44 19 38 48 21 37 47 20 28 40 16 30 38 14 34 45 15 36 49 19 37 48 18 32 45 19 33 41 20 30 29 24 28 27 22 21 20 18 24 20 19 47 42 39 51 46 43 44 41 34 39 39 27 37 41 24 35 45 20 36 45 18 36 46 21 35 48 22 38 53 24 38 51 23 39 49 22 40 50 23 30 38 14 30 38 15 26 35 14 27 35 12 28 32 17 29 31 20 32 32 24 37 34 29 35 31 28 24 23 19 23 22 18 30 26 25 29 25 24 38 34 31 40 36 33 38 33 30 34 31 26 35 35 27 35 39 24 38 40 26 41 42 34 44 44 36 49 48 46 52 48 45 52 48 49 53 49 48 34 31 24 26 26 16 52 49 44 77 73 70 69 64 61 57 52 49 58 53 49 61 56 52 60 55 51 35 32 23 35 31 22 
67 63 60 68 64 63 59 54 50 57 49 47 49 44 41 46 41 38 45 40 37 45 40 37 42 37 34 30 26 25 31 27 26 36 32 29 36 32 29 55 50 46 59 54 50 61 56 53 59 55 52 67 63 62 76 71 68 58 52 52 25 23 24 28 24 23 36 32 29 36 31 28 34 30 27 35 31 28 41 37 36 39 38 36 58 54 51 68 63 60 47 47 35 27 35 14 29 37 16 36 46 19 37 45 21 34 44 19 34 44 19 37 47 20 37 47 20 32 40 17 29 38 17 35 45 18 35 48 18 36 46 19 34 44 19 33 41 20 30 30 22 29 29 21 23 19 18 21 20 18 46 42 41 52 44 42 41 42 34 40 40 28 38 43 23 37 47 22 36 46 21 36 46 21 36 46 19 36 49 21 38 48 21 38 49 19 39 49 22 31 39 16 31 39 18 28 36 15 28 33 13 30 34 19 31 33 20 31 33 22 37 34 29 35 32 27 25 24 19 25 24 19 32 29 24 28 27 22 34 33 28 38 37 32 35 36 30 35 35 27 36 37 23 37 41 24 38 42 27 43 43 35 46 43 36 50 50 48 52 48 47 48 47 45 48 47 45 35 35 27 27 27 17 53 50 45 75 74 70 70 65 62 57 52 48 60 52 49 62 54 51 62 57 53 34 31 22 34 31 22 
47 51 36 46 50 35 47 47 37 48 45 38 47 42 39 46 41 38 44 39 36 37 33 30 37 33 30 37 33 32 36 32 29 31 27 26 32 28 25 49 44 41 51 46 43 62 57 54 66 61 55 64 60 57 62 61 59 51 50 48 37 33 32 36 32 31 34 31 26 34 30 27 26 27 21 27 28 23 75 71 70 82 78 75 65 60 57 55 50 46 41 41 31 26 33 15 28 36 15 34 44 19 34 44 17 33 41 18 30 40 16 34 49 18 36 46 19 34 44 20 35 43 20 33 43 18 32 42 15 32 42 18 30 40 16 29 37 16 29 29 21 27 28 20 21 20 18 23 19 18 47 42 39 51 46 43 39 39 29 36 38 25 39 44 24 41 51 26 39 49 22 35 45 20 34 44 19 23 32 11 25 33 12 29 37 16 29 37 14 35 45 18 37 47 20 28 36 15 22 29 11 33 41 18 41 54 24 39 49 22 31 41 16 32 40 16 26 35 14 25 34 13 34 42 19 33 43 19 33 41 17 31 41 17 37 50 20 42 53 21 39 49 22 32 42 17 38 43 23 50 45 41 50 45 42 55 50 47 56 51 48 36 35 30 35 34 29 41 41 33 44 41 34 62 59 54 83 75 72 73 68 64 62 54 52 62 54 51 65 57 54 63 58 54 29 31 20 30 32 21 
46 50 36 46 50 36 47 47 37 47 47 39 47 44 39 46 41 38 44 38 38 37 33 30 37 33 32 38 34 31 37 33 30 32 28 27 32 28 27 49 44 41 50 44 44 62 57 54 64 59 56 64 60 57 62 61 59 51 50 48 36 32 31 36 32 31 32 31 27 33 29 26 27 26 21 27 27 19 77 71 71 81 77 76 67 59 57 56 48 45 41 41 31 27 31 14 28 36 15 34 44 19 34 44 19 29 41 17 34 39 17 37 47 22 36 46 19 34 44 19 33 43 16 32 42 17 34 44 19 33 41 18 30 38 15 29 36 18 27 29 18 27 28 20 21 20 18 23 19 18 45 40 37 50 45 42 39 39 29 36 38 25 37 45 24 40 51 21 39 49 22 35 45 20 34 44 19 25 33 12 25 33 12 28 38 14 27 36 15 35 45 20 37 47 22 28 36 15 22 29 11 29 41 17 41 52 20 39 50 20 32 42 18 31 39 15 27 35 14 26 34 13 33 43 19 33 43 19 32 40 16 31 41 16 36 49 21 41 54 24 38 48 21 30 43 17 34 42 21 48 45 40 49 46 41 54 49 46 55 50 47 37 36 31 35 34 29 40 39 34 44 41 34 61 58 53 82 77 74 73 68 65 62 54 51 61 56 52 63 58 54 66 58 55 30 30 20 31 31 19 
39 49 22 40 49 22 31 39 16 28 36 15 29 33 19 30 32 21 32 32 24 37 33 30 36 32 29 35 31 30 35 31 28 39 35 34 39 35 32 49 44 41 51 46 43 51 46 43 52 47 43 53 50 45 54 51 44 46 46 38 32 35 26 31 34 23 26 35 14 26 34 11 33 34 26 33 35 24 71 66 62 75 70 66 65 60 57 61 53 50 42 42 30 26 34 13 27 35 14 34 43 22 35 45 20 39 49 22 39 49 22 31 39 15 32 42 18 32 42 17 34 44 19 29 37 16 26 33 15 29 29 17 31 26 23 32 28 25 34 30 29 33 29 26 22 21 19 21 20 18 46 41 38 49 44 41 29 30 22 23 25 14 30 38 17 35 48 20 37 47 20 38 48 21 36 46 19 26 34 13 26 35 14 43 57 24 44 58 25 31 39 16 29 37 16 32 42 17 33 43 18 36 46 21 36 46 19 34 44 19 24 32 11 26 34 11 28 37 16 29 39 15 32 40 17 32 40 16 30 37 19 28 35 17 29 33 19 29 33 19 34 36 25 41 41 33 46 43 36 59 51 49 58 50 48 49 44 41 49 44 41 50 45 42 48 45 40 59 55 52 62 58 55 70 65 61 77 69 66 72 64 61 58 53 50 61 53 50 59 51 49 61 53 50 34 31 26 32 32 24 
39 49 22 39 49 22 31 39 16 27 35 14 29 33 18 30 32 19 32 32 24 37 33 30 36 32 31 35 31 30 35 31 28 40 36 33 39 35 32 49 44 40 50 45 42 51 46 43 50 46 45 54 49 45 54 51 44 47 44 37 31 34 25 32 35 24 26 34 13 26 34 13 32 35 26 32 35 28 72 67 64 77 70 64 68 60 57 59 54 50 42 44 31 24 32 11 26 36 12 35 45 20 35 45 20 38 48 23 39 50 20 32 40 17 31 41 17 32 42 17 33 43 18 30 38 17 26 33 15 28 30 17 28 27 23 31 27 24 34 30 29 34 29 26 21 20 18 21 20 18 46 41 38 49 44 40 29 30 22 24 26 15 29 36 18 36 46 21 36 49 21 38 49 19 37 47 20 27 35 14 26 35 16 44 57 27 44 58 25 31 39 16 29 37 16 32 42 17 34 42 18 35 45 20 36 46 21 32 45 17 23 32 13 24 33 12 28 38 14 29 37 14 31 40 19 32 40 17 32 37 17 30 34 17 29 31 18 29 31 18 34 34 26 40 41 33 46 43 36 59 51 49 59 51 49 50 45 42 49 44 41 49 44 41 50 45 42 59 56 51 62 58 55 69 64 61 77 69 66 71 63 60 60 52 49 61 53 50 60 52 50 60 52 50 34 31 26 32 31 26 
43 43 31 43 43 31 56 53 46 57 54 47 49 44 40 44 39 36 41 37 34 39 34 31 40 36 33 43 40 35 41 37 34 19 18 16 18 18 16 45 40 37 48 43 40 51 46 42 52 47 43 37 40 29 27 31 16 24 31 15 25 32 14 25 32 14 24 33 12 24 33 12 26 30 16 26 30 15 57 52 46 61 56 50 57 52 48 54 49 43 39 41 28 25 33 12 28 36 13 38 51 23 37 50 22 33 43 18 32 42 17 39 48 21 38 48 23 32 39 21 29 33 16 38 38 28 45 45 37 43 40 33 36 32 29 36 32 29 33 29 26 32 28 27 22 21 19 20 19 17 45 39 39 50 42 40 26 27 21 19 20 14 25 32 14 34 44 19 32 42 18 31 41 17 32 42 17 35 44 17 34 44 17 38 49 19 37 47 22 31 39 16 31 39 16 30 40 16 30 40 16 30 40 16 33 41 18 31 39 16 25 32 14 27 31 14 31 33 20 32 34 23 27 28 20 29 29 19 27 27 19 25 26 18 30 29 24 32 31 26 36 32 29 40 36 33 48 40 37 65 57 54 60 57 52 50 45 42 50 45 42 51 46 43 53 45 43 66 61 58 69 65 64 63 60 55 58 53 47 54 54 46 57 52 48 56 51 47 56 51 48 59 51 48 28 27 25 28 27 25 
44 41 36 44 41 34 60 55 51 68 60 58 54 49 45 47 42 39 43 39 36 40 34 34 41 37 34 45 40 37 41 37 36 13 13 11 13 11 12 43 37 37 46 42 39 51 46 42 52 47 43 35 37 26 19 26 8 20 27 9 24 32 11 24 31 13 25 33 12 24 31 13 23 31 10 25 29 12 51 48 41 53 50 45 52 49 42 52 47 43 38 40 27 25 33 12 28 38 14 41 52 20 39 49 22 31 39 16 30 39 18 41 52 22 40 51 21 31 35 18 26 30 16 43 40 33 50 46 43 46 43 38 36 32 29 37 34 29 33 29 26 32 28 27 22 18 17 20 19 17 44 40 37 49 44 41 25 24 20 18 17 13 25 29 14 32 42 17 31 41 16 29 37 14 28 38 14 36 46 19 35 45 18 35 45 20 36 46 19 30 40 16 31 39 16 30 38 17 28 37 16 28 38 14 30 38 15 28 37 16 25 32 16 28 32 15 32 33 25 32 32 24 27 26 21 27 26 22 24 23 18 25 21 18 29 28 24 34 30 29 36 32 29 40 36 33 47 42 39 66 58 55 64 56 53 48 44 41 50 45 42 53 48 45 52 47 44 66 62 59 72 68 67 61 57 54 51 48 41 52 49 42 57 52 48 56 51 47 56 51 48 59 51 48 29 25 22 27 23 22 
54 49 45 56 51 47 57 52 48 63 55 52 51 45 45 47 42 38 45 39 39 40 36 35 40 39 34 48 43 39 44 40 37 19 18 16 19 18 14 31 27 26 31 30 28 43 40 35 50 43 37 36 38 24 25 35 11 29 39 15 34 44 19 35 43 20 29 37 16 28 37 16 34 47 21 36 46 19 47 44 35 49 46 41 54 49 46 60 52 49 44 44 36 31 35 21 29 35 21 33 38 18 30 37 21 27 31 16 27 31 14 30 40 15 32 42 18 32 36 22 32 32 22 42 42 34 49 44 41 44 39 36 33 29 26 32 31 26 29 32 21 28 30 19 23 25 14 22 26 12 42 39 34 47 42 39 30 29 24 23 24 16 27 34 18 29 39 15 33 43 19 35 45 20 35 45 20 33 43 18 33 43 18 28 36 13 28 36 13 25 29 14 23 30 14 25 29 14 25 29 14 26 29 18 26 28 17 25 26 18 19 22 13 22 23 17 39 36 31 39 36 31 36 33 28 34 33 29 29 25 22 25 24 20 32 28 25 34 30 29 34 30 29 32 28 27 40 36 33 63 58 55 64 56 53 54 49 46 55 47 45 53 47 47 54 49 46 69 65 62 76 71 68 62 57 51 46 46 38 46 46 34 42 47 27 42 47 27 43 45 31 43 46 29 29 31 18 29 31 18 
60 55 52 61 56 52 58 53 50 57 52 49 52 47 43 46 42 39 46 41 38 40 36 33 43 38 35 51 46 43 46 41 38 23 21 22 22 21 19 23 21 22 22 21 19 37 36 31 44 41 36 35 39 25 28 38 14 34 44 19 42 53 23 41 51 24 32 40 17 31 41 17 41 56 25 42 55 25 44 44 32 44 44 36 54 51 46 60 55 51 49 46 41 36 37 29 33 34 26 26 28 15 27 29 16 24 28 14 22 29 13 27 35 14 27 35 14 33 35 22 35 35 25 45 41 38 49 44 41 41 37 36 30 26 25 30 30 22 27 34 16 26 33 15 21 28 10 22 29 11 40 40 32 45 40 36 31 32 24 27 29 18 28 35 17 29 37 16 33 43 18 38 48 21 38 48 21 33 41 17 31 41 17 23 30 12 24 31 13 21 25 11 21 24 13 21 24 13 21 23 12 20 21 13 23 22 18 22 21 17 16 15 13 20 19 17 43 38 35 43 38 35 40 36 33 40 37 32 31 27 26 27 23 20 32 28 25 35 29 29 31 27 26 27 23 22 35 31 28 61 56 53 60 55 52 55 50 47 58 50 48 55 50 47 54 49 46 71 66 63 77 72 69 62 57 53 48 45 40 42 44 30 35 45 20 34 44 19 35 43 20 34 42 21 31 35 18 32 35 18 
58 53 49 57 52 48 56 51 47 56 51 47 50 45 41 45 40 37 43 40 35 41 36 33 43 38 35 48 43 40 44 40 37 24 23 21 24 23 19 22 21 19 24 20 19 30 30 22 35 35 25 32 39 21 32 42 17 35 45 20 37 47 22 37 47 22 34 42 18 35 45 20 36 46 21 37 47 22 34 36 22 34 36 23 52 49 42 61 56 52 50 47 42 34 33 28 32 33 25 29 31 18 28 32 18 31 33 20 31 33 22 38 40 27 37 39 26 38 38 28 39 36 27 40 40 30 41 41 33 37 40 29 34 38 23 34 38 23 31 39 16 30 38 17 23 27 13 21 24 13 44 41 36 49 44 40 35 34 29 32 32 24 28 30 19 25 29 14 27 31 14 30 34 17 31 34 17 30 32 18 29 33 18 29 27 14 27 28 14 26 26 18 25 27 16 27 26 21 29 28 23 31 28 23 28 27 23 25 24 20 16 15 13 18 17 15 32 28 27 30 26 25 38 34 31 38 34 31 30 26 23 27 23 20 33 29 26 37 32 29 35 31 28 34 29 26 37 33 30 50 45 42 51 46 43 63 55 52 60 55 51 54 49 46 53 48 45 69 64 61 74 69 66 63 58 55 53 48 44 45 45 35 37 41 24 36 41 21 36 39 22 33 37 20 29 36 18 29 36 18 
53 50 45 52 49 44 57 52 48 56 51 47 47 44 39 43 40 35 42 39 34 43 38 35 43 38 35 47 42 39 45 40 37 28 24 23 28 24 23 22 21 19 21 20 18 25 26 18 25 29 15 31 39 18 36 46 21 35 45 20 32 42 18 33 41 18 37 46 19 36 46 21 30 40 16 29 39 15 26 30 13 25 29 14 48 45 38 61 56 53 47 43 40 34 33 29 35 32 27 29 31 20 31 33 22 38 37 32 38 37 32 48 45 38 48 45 38 42 42 32 41 41 33 39 41 27 35 37 23 36 41 19 38 48 21 36 46 19 34 44 19 33 41 18 22 23 17 22 23 17 49 44 41 53 45 43 41 37 34 38 34 31 30 27 22 19 20 12 19 20 12 19 20 14 20 21 16 24 25 19 24 25 19 30 26 17 30 26 15 32 29 22 29 30 24 36 32 29 39 34 31 36 32 29 35 31 30 32 28 25 16 15 13 16 15 13 20 16 15 19 15 14 35 31 28 36 30 30 28 24 23 23 22 20 32 28 25 37 33 30 38 34 31 40 36 35 39 35 32 38 33 30 40 37 32 65 60 57 68 60 57 54 49 46 53 47 47 66 61 58 72 67 64 64 58 58 59 51 49 50 45 41 37 37 27 36 36 24 33 35 21 31 35 21 30 38 17 29 37 16 
47 47 37 47 47 37 50 47 38 48 48 38 44 44 32 39 41 28 38 39 31 36 36 28 40 37 32 46 41 38 43 39 36 26 25 23 28 24 23 21 20 18 20 19 17 24 28 14 25 29 14 31 36 16 35 43 20 33 41 18 34 42 19 34 42 19 37 47 20 37 47 22 30 38 15 31 39 16 26 33 15 25 32 14 47 44 37 57 52 48 47 44 39 37 34 29 39 34 28 35 35 25 35 36 28 36 37 29 36 37 29 52 47 41 50 47 40 46 43 36 45 42 33 37 39 25 32 39 21 34 38 21 32 40 17 31 41 17 33 40 22 33 37 20 21 22 16 22 23 15 50 45 41 51 46 43 42 38 35 38 34 31 29 28 23 21 22 14 21 22 14 17 18 12 18 19 13 24 23 18 25 24 19 30 25 19 28 25 16 29 29 21 29 29 21 34 30 27 36 32 29 36 32 29 36 32 31 32 28 27 20 19 17 20 19 17 18 17 15 18 17 15 33 29 28 33 29 26 25 24 22 24 23 19 33 29 28 37 33 30 38 33 30 38 34 31 37 33 30 36 32 29 38 34 31 57 54 49 57 54 49 50 46 43 49 46 41 65 62 57 72 64 62 64 59 55 58 53 50 52 47 43 42 42 34 40 37 28 34 36 25 34 36 23 26 34 13 26 33 15 
31 39 16 31 39 16 31 41 17 30 40 15 31 44 18 34 44 17 28 37 16 23 30 12 27 33 19 42 38 35 39 35 32 26 25 21 26 25 21 21 20 18 22 18 17 24 28 13 24 31 13 24 33 12 26 35 14 27 35 14 28 37 16 30 40 16 39 50 20 39 49 22 31 39 16 30 38 15 30 40 16 30 40 16 38 42 27 43 42 37 44 41 36 45 40 37 45 41 38 48 43 39 46 43 38 36 38 27 36 38 27 60 52 49 59 54 50 53 48 44 53 48 42 38 40 27 28 35 17 26 30 16 19 22 11 23 24 16 29 28 23 29 28 23 22 23 18 21 22 16 47 42 39 50 45 42 42 38 35 40 36 33 33 32 28 26 25 20 22 21 16 14 15 10 15 16 11 22 21 19 24 20 17 25 25 17 24 26 15 29 27 15 30 27 18 33 30 23 34 31 26 35 32 25 37 33 30 35 31 28 27 26 22 28 24 23 21 20 18 19 18 16 25 21 20 24 23 21 28 24 23 30 26 23 34 30 27 36 32 29 35 31 28 33 29 28 33 29 26 36 32 29 36 32 29 34 31 26 32 31 26 37 38 30 39 40 32 62 57 53 71 66 62 67 59 56 62 52 51 60 52 49 56 53 48 54 49 46 40 36 33 40 36 33 17 18 12 17 18 10 
33 41 18 30 42 18 32 42 18 33 43 18 35 45 20 35 45 18 30 40 16 25 29 12 28 32 17 39 38 33 36 35 30 26 25 21 28 24 23 21 20 16 20 19 15 24 31 15 25 33 12 27 35 14 27 35 14 28 38 14 31 39 16 31 41 17 37 47 20 38 48 21 31 41 17 31 41 17 31 41 17 31 41 17 37 41 27 42 42 32 43 40 35 44 39 36 44 41 36 48 44 41 48 43 39 35 36 28 36 37 29 60 55 51 59 54 50 54 49 45 54 49 43 40 42 29 34 38 23 28 32 18 22 22 14 24 24 16 33 30 25 31 28 23 21 22 17 22 21 16 46 41 38 50 45 42 43 39 36 41 37 36 33 32 28 26 25 20 22 21 17 13 14 9 16 15 13 21 20 18 24 20 19 24 24 16 22 23 15 30 27 20 31 28 19 33 30 25 32 31 27 33 32 27 36 32 31 35 31 28 29 25 22 28 24 23 18 17 15 20 16 15 28 24 23 27 23 22 27 23 22 26 25 21 34 28 28 37 33 30 37 32 29 35 30 27 35 31 28 37 33 30 35 34 30 34 31 26 34 30 27 40 39 34 40 41 35 62 57 54 72 64 62 67 59 57 62 54 51 58 53 49 55 50 47 51 48 43 39 34 31 38 34 31 16 17 12 16 17 12 
45 59 24 46 60 25 48 59 27 45 59 24 45 58 28 43 56 26 39 49 22 32 37 15 29 37 14 27 34 16 29 34 14 28 28 20 27 28 20 17 18 12 17 18 13 28 36 15 33 43 18 32 40 17 29 37 14 30 40 15 34 44 17 35 43 19 37 47 20 36 46 19 34 44 17 35 45 18 34 44 19 36 44 21 31 41 17 30 38 15 30 37 19 36 36 28 42 39 32 53 47 47 52 47 43 37 36 31 38 37 32 63 58 54 62 57 54 61 53 51 58 53 49 63 58 54 68 60 57 50 45 42 23 19 18 27 23 20 33 29 28 32 29 24 22 21 19 25 21 20 47 42 39 49 44 41 45 40 37 43 37 37 35 31 28 27 26 21 22 21 17 15 11 10 14 13 11 15 15 13 16 15 13 22 21 19 22 21 19 34 30 27 34 33 29 34 30 27 32 29 24 33 30 25 33 32 28 31 30 26 27 26 24 29 25 24 14 14 14 15 13 14 39 35 32 41 36 33 30 26 25 26 23 18 37 33 30 43 39 36 46 41 38 50 45 42 49 44 40 45 41 38 46 41 38 35 31 28 36 31 28 53 49 46 59 54 51 65 60 57 65 61 58 70 62 60 68 63 60 62 54 52 49 44 41 43 39 36 25 21 20 25 21 20 15 14 12 16 15 13 
45 59 26 46 60 25 45 59 26 46 60 27 44 58 25 44 58 25 39 49 22 29 37 16 30 38 15 27 34 16 28 32 17 27 27 19 29 29 21 19 18 14 16 17 11 30 34 17 34 42 18 30 40 16 28 38 14 30 40 16 35 45 20 34 44 19 37 47 22 37 47 20 32 45 17 35 45 18 34 42 18 34 44 19 31 41 17 29 39 15 32 36 22 35 35 27 39 38 33 53 48 45 52 47 44 38 38 30 38 38 30 63 58 54 62 57 53 61 53 51 59 51 49 65 57 55 68 60 57 49 44 41 24 20 19 25 24 22 31 30 26 33 29 26 24 20 19 23 22 20 47 42 39 49 44 41 43 39 38 41 37 34 35 31 28 26 25 20 21 20 16 13 12 10 15 11 10 18 14 13 16 15 13 21 20 18 22 21 17 33 29 26 32 31 27 33 30 25 32 29 22 32 31 26 34 31 26 33 30 25 28 24 23 29 25 24 15 15 13 16 15 13 40 35 32 40 35 32 30 26 25 26 22 19 37 33 30 45 41 38 45 41 38 50 45 42 49 44 41 46 41 38 45 41 38 35 31 28 35 31 30 52 51 47 55 54 50 64 59 55 66 61 58 67 62 59 67 62 58 63 55 52 50 45 42 44 39 36 25 21 20 24 23 21 15 14 12 16 14 15 
38 48 21 38 48 23 38 48 21 38 48 21 40 50 23 39 52 24 37 47 22 29 39 15 30 35 15 20 26 12 20 27 11 26 29 12 26 30 15 18 24 10 21 25 11 28 32 18 32 34 21 30 34 19 28 36 13 29 39 15 33 43 18 33 43 19 31 41 17 31 39 16 31 41 17 33 41 18 33 43 18 34 44 19 35 45 20 34 44 17 34 38 21 32 34 21 34 35 27 49 44 41 52 47 44 70 66 63 70 66 63 61 56 53 63 55 52 59 51 49 59 51 48 57 49 47 55 50 47 41 37 34 21 20 15 20 23 16 26 28 17 27 29 16 24 26 13 23 26 15 45 42 35 47 44 39 41 38 33 39 36 31 31 33 22 24 32 11 22 26 12 19 20 12 18 19 13 16 15 11 14 15 10 18 17 15 19 18 14 30 26 25 32 28 25 35 31 28 35 31 28 34 30 27 32 28 27 26 25 23 16 15 13 17 16 14 21 20 18 22 21 19 41 37 34 42 38 35 31 26 23 26 22 19 36 32 29 42 38 35 46 41 37 49 44 40 45 42 37 31 35 21 35 37 24 44 39 36 43 38 35 64 60 59 67 63 60 61 56 53 59 54 50 60 55 52 62 58 55 51 46 43 29 26 21 31 27 24 35 30 27 34 30 27 14 13 11 15 14 12 
37 47 20 36 46 21 36 46 19 36 46 21 39 49 22 40 50 23 38 48 21 30 40 16 28 36 15 22 26 11 21 25 10 22 29 13 24 28 13 21 25 10 21 25 11 27 29 18 31 31 21 30 34 19 26 34 13 29 39 15 34 42 18 32 42 18 31 41 16 31 39 16 30 40 13 31 41 17 33 43 18 34 44 19 33 46 20 35 45 20 34 38 21 30 32 19 35 35 27 46 41 38 51 45 45 75 71 68 75 70 67 62 54 52 62 54 51 59 51 49 57 49 46 57 49 47 54 49 46 41 38 33 21 17 14 21 22 17 25 29 15 25 29 15 24 28 14 23 26 15 43 40 33 46 43 38 38 37 32 36 35 30 32 34 21 27 32 12 22 29 13 18 21 10 18 19 13 14 14 12 14 15 10 18 16 17 17 16 14 30 26 23 31 27 26 35 31 28 36 32 29 33 29 26 28 27 25 27 23 22 15 14 12 19 15 14 24 20 19 24 20 19 42 38 35 42 38 35 30 26 23 23 22 18 36 31 28 43 38 35 44 40 37 48 45 40 45 42 37 30 34 19 33 35 22 44 38 38 44 40 37 64 63 59 70 65 62 61 56 53 60 52 49 58 53 50 61 57 54 48 44 43 24 23 19 28 24 23 34 30 27 36 32 29 15 11 8 15 14 12 
40 42 28 39 41 27 37 41 24 36 40 25 32 39 21 31 35 18 32 36 21 33 37 23 32 34 21 28 27 22 29 29 21 34 34 26 33 33 23 27 26 21 25 24 20 32 31 27 35 32 27 36 35 30 37 38 30 36 36 26 31 33 22 33 35 24 51 51 41 53 53 41 34 36 23 34 36 23 41 41 31 44 44 32 50 50 40 56 53 46 45 44 39 35 34 30 39 38 36 47 46 42 52 48 47 70 65 61 71 66 63 64 56 54 64 56 53 59 51 49 59 51 48 55 50 47 54 49 46 40 40 32 22 26 11 24 28 13 24 31 15 25 32 16 33 38 18 28 40 16 35 40 20 33 40 22 29 33 19 26 30 16 28 35 17 32 42 18 33 41 18 36 44 20 34 42 19 20 22 11 20 21 13 16 15 13 15 14 12 22 21 19 23 22 18 26 25 23 29 25 24 25 21 20 19 18 16 21 20 18 27 23 22 26 22 19 27 21 21 24 23 21 35 31 28 35 31 30 29 28 23 28 27 22 31 33 22 31 35 20 34 38 21 38 46 25 35 43 22 31 35 20 32 34 21 40 36 33 40 36 35 72 67 64 76 71 68 64 59 56 61 53 51 55 50 47 48 43 40 41 35 35 31 27 24 32 28 27 32 28 25 31 27 24 16 15 11 15 15 13 
40 40 30 39 39 29 37 39 26 34 38 24 30 34 19 29 31 17 30 32 19 34 36 25 34 34 24 31 30 25 31 30 26 37 33 30 37 34 29 30 26 23 30 26 25 35 31 28 36 32 31 38 37 33 43 40 35 39 36 29 30 30 22 33 32 27 60 57 50 59 55 52 35 35 25 34 35 27 44 44 36 47 44 37 57 51 51 65 57 55 50 46 43 38 34 33 41 37 36 50 46 43 52 48 47 69 64 61 69 61 58 64 56 53 62 57 51 58 53 49 56 51 47 54 50 47 52 48 45 41 41 33 21 28 10 23 30 12 24 31 13 26 34 13 35 43 20 34 44 19 31 41 17 30 40 16 24 32 11 22 29 11 29 37 14 36 46 21 37 47 22 41 52 22 39 48 21 22 24 13 22 24 11 14 13 11 15 14 12 21 20 18 22 21 19 25 24 22 29 25 24 23 19 18 16 15 13 18 17 15 28 27 25 30 26 23 24 23 19 23 22 20 32 28 25 32 28 27 31 28 23 29 28 23 29 33 16 28 36 15 30 40 16 32 45 17 32 42 18 31 35 20 31 35 20 40 35 32 40 34 34 76 71 67 79 74 70 68 60 57 63 55 52 53 48 45 45 41 38 40 35 32 32 28 25 32 28 25 31 27 26 29 25 22 17 16 14 17 16 14 
49 46 39 49 46 39 51 48 41 53 50 45 40 40 32 35 35 25 37 37 27 42 39 34 41 37 36 31 30 26 34 30 27 37 34 29 37 33 30 35 31 30 35 31 28 24 24 22 26 22 21 36 32 31 48 44 41 41 37 34 28 29 23 32 32 24 50 50 42 49 49 41 49 46 39 49 46 39 56 52 49 59 51 48 64 56 53 63 58 54 51 46 43 36 35 33 40 36 35 47 43 40 51 46 43 67 62 58 69 61 59 57 52 49 59 54 50 58 53 49 60 50 48 53 48 44 51 46 42 41 41 31 26 34 13 27 36 15 31 41 16 30 40 16 29 37 14 27 36 17 26 34 11 24 33 12 30 40 16 31 41 17 33 41 17 32 42 15 35 45 18 38 48 21 37 47 20 23 30 14 25 29 14 22 21 17 21 20 18 16 15 13 15 14 12 19 18 14 20 19 17 23 19 16 22 21 17 27 23 20 34 30 29 32 28 27 22 20 21 21 19 20 31 27 24 31 27 24 31 28 23 31 28 23 27 31 17 28 32 15 32 40 17 38 51 21 36 49 21 37 42 20 34 42 19 36 33 28 34 35 27 70 67 62 77 69 67 65 60 57 62 57 53 51 46 43 39 35 32 37 33 30 32 28 27 33 29 26 30 29 27 33 29 26 16 15 13 17 16 14 
55 50 46 55 50 44 62 54 51 63 58 54 48 45 40 39 36 31 42 38 35 48 43 39 44 40 37 34 30 29 34 30 29 37 33 30 40 32 30 39 35 32 39 35 32 23 22 20 18 17 15 35 31 30 52 44 42 43 40 35 28 27 22 31 30 25 45 45 35 44 44 34 57 53 44 57 52 46 62 57 54 66 58 56 64 59 55 63 58 54 51 46 43 38 34 31 37 36 32 46 42 39 48 44 41 68 60 57 66 61 58 57 52 49 58 52 52 57 52 49 58 50 48 54 46 43 50 45 39 42 42 30 29 37 14 29 39 14 35 45 20 34 42 18 25 33 12 25 33 12 22 29 11 22 29 11 34 44 17 37 47 20 33 41 17 29 38 17 32 42 17 38 48 21 36 46 21 25 33 12 27 35 14 25 24 20 25 24 19 14 13 11 13 12 10 15 14 12 16 16 14 21 20 18 28 24 23 29 25 22 35 31 28 33 29 26 24 20 19 21 19 20 31 27 26 30 26 25 32 28 25 31 27 24 26 28 15 24 28 11 30 38 15 42 55 25 40 53 23 35 45 20 34 44 19 32 34 23 32 34 23 69 64 61 75 68 62 67 59 56 61 56 52 51 43 41 37 33 30 35 31 28 33 29 28 33 29 26 34 30 27 34 30 27 18 17 13 17 15 16 
54 51 44 54 51 46 55 50 46 55 50 46 46 42 39 40 37 32 43 40 35 48 40 38 42 38 37 29 28 26 32 28 27 41 37 36 42 37 34 40 36 35 38 34 31 26 25 21 22 21 19 34 30 29 46 40 40 39 35 32 29 28 23 30 29 24 49 46 37 49 46 39 58 53 49 57 52 48 63 55 52 61 58 53 64 56 54 63 58 55 50 46 43 35 34 32 41 37 36 47 43 40 50 46 43 63 58 55 63 58 54 56 51 47 56 51 48 57 52 48 58 50 48 46 43 36 41 41 31 35 39 24 29 37 14 29 39 15 31 41 16 32 42 15 24 33 14 26 34 13 24 33 12 26 34 11 33 41 18 33 46 18 32 42 17 29 37 16 31 39 16 32 40 17 31 39 18 24 30 16 26 30 15 30 26 23 30 26 25 19 15 14 13 11 12 18 16 17 17 16 14 24 23 21 31 27 24 31 27 24 33 32 28 32 31 29 22 21 19 22 21 19 31 30 26 30 29 24 26 29 20 27 28 20 27 34 18 26 35 16 34 42 19 41 55 22 39 52 24 32 42 18 32 42 17 34 41 25 35 39 24 57 55 43 59 56 49 62 57 51 63 55 52 49 44 41 36 32 29 35 31 28 34 30 27 34 30 29 34 30 27 34 30 29 17 16 12 18 14 13 
49 48 43 52 47 41 45 42 37 44 41 36 45 41 38 46 41 38 44 40 37 43 39 36 39 35 32 24 23 21 27 26 22 47 43 40 49 44 41 40 35 32 39 35 34 31 27 26 29 25 24 32 31 29 39 35 34 32 31 29 26 25 23 30 26 23 53 50 41 52 49 42 59 51 48 58 53 50 56 51 47 56 51 47 59 54 50 60 56 53 49 44 41 35 31 28 38 37 33 51 47 44 51 47 44 55 51 48 56 51 48 58 50 48 58 50 47 56 48 45 57 48 49 37 39 26 24 31 13 26 33 15 29 38 17 29 37 14 29 37 14 28 36 13 26 34 13 27 35 14 31 39 16 32 42 18 33 42 15 33 43 18 32 40 17 29 37 16 24 31 13 19 23 9 22 24 11 26 25 21 26 25 21 37 32 29 34 33 29 19 18 16 17 16 14 19 18 14 21 20 18 27 26 24 36 32 29 37 33 30 37 33 30 36 32 29 25 21 20 26 22 21 34 36 25 34 36 25 26 30 13 20 29 12 30 40 16 35 45 20 36 49 23 39 52 22 37 47 20 28 36 13 29 39 14 41 50 23 39 49 22 34 38 21 35 37 23 51 48 43 57 52 49 46 41 38 35 31 28 35 31 28 37 33 30 37 33 30 35 31 28 34 30 27 17 16 14 17 16 14 
49 44 38 48 45 38 49 44 38 51 44 38 48 43 39 45 41 38 45 40 37 43 38 35 39 35 32 29 25 24 31 27 24 42 38 35 44 39 35 38 34 31 37 33 32 33 29 28 31 27 24 33 30 25 34 30 29 31 27 24 24 23 21 26 25 21 57 54 49 57 54 49 53 48 44 55 47 44 51 46 42 50 47 40 53 50 41 52 52 42 43 43 35 35 35 27 38 38 30 46 45 40 46 45 40 51 48 43 49 48 43 51 47 38 51 48 41 49 46 39 48 46 34 32 36 21 24 31 13 25 34 13 30 38 17 30 38 15 30 40 16 31 39 16 26 34 13 26 33 15 28 36 15 27 34 16 31 39 18 31 39 18 29 36 18 26 33 17 26 28 14 22 24 13 21 24 15 28 24 23 26 25 21 36 32 29 36 32 29 18 17 15 17 16 14 18 19 14 23 22 20 29 25 24 33 29 26 34 30 27 37 33 30 35 31 28 24 25 20 27 23 22 37 37 27 37 37 29 26 30 15 24 28 13 29 37 16 32 40 19 33 43 19 37 47 22 35 45 20 30 38 15 30 40 15 39 49 22 39 49 22 33 40 22 35 39 22 48 45 36 51 48 39 41 38 33 32 28 25 33 29 26 37 33 30 35 31 28 34 30 27 34 30 27 16 15 13 19 15 14 
39 36 29 37 34 25 64 50 41 70 53 43 56 47 42 47 42 39 45 40 37 41 36 33 39 36 31 36 32 29 37 32 29 29 25 22 29 23 23 36 32 31 36 32 31 39 34 31 41 36 33 29 25 24 18 17 15 18 17 15 17 16 14 24 22 23 71 67 66 70 66 63 38 38 30 40 40 32 31 32 18 28 32 18 31 39 18 32 42 17 33 43 19 34 44 19 32 42 17 29 36 18 31 35 20 33 37 22 33 37 22 31 39 18 33 38 18 29 37 16 29 37 13 27 35 14 25 33 12 27 36 15 33 43 19 34 42 18 39 49 24 35 48 22 23 31 10 23 30 12 17 20 9 16 19 10 25 25 17 26 25 21 25 24 19 23 22 18 24 23 19 23 22 20 26 22 19 31 27 24 31 27 24 36 32 29 37 33 30 20 19 17 19 15 14 25 21 20 28 24 23 27 23 22 24 23 19 28 24 23 33 29 28 34 29 26 24 23 21 27 23 22 44 41 36 44 40 37 29 30 24 24 25 17 23 25 14 21 25 11 22 26 12 24 31 13 27 35 14 35 43 20 35 43 19 33 43 18 35 43 19 37 43 15 36 46 21 30 40 16 28 38 13 24 31 13 23 25 14 27 27 19 36 33 28 35 31 30 30 26 23 30 29 27 15 15 13 15 14 12 
37 34 27 38 35 26 62 48 39 70 53 43 56 47 42 46 42 39 45 40 37 40 36 33 40 36 33 36 32 29 33 32 28 27 26 22 28 24 23 34 30 27 36 32 29 40 35 32 40 35 32 27 26 22 17 16 14 17 16 14 17 15 16 24 23 21 71 67 66 71 67 64 39 39 31 41 38 29 30 34 20 27 33 19 31 39 18 33 43 18 33 43 18 34 44 19 32 42 18 30 37 19 31 35 18 33 37 22 33 37 22 34 37 18 33 37 20 28 37 16 27 37 13 26 34 11 25 33 12 27 35 12 31 41 16 33 43 18 38 48 23 36 46 21 24 31 13 24 31 13 18 19 11 17 18 12 24 24 16 26 25 20 24 23 21 24 20 19 25 21 18 25 21 20 26 22 19 32 27 24 31 27 24 36 32 29 38 34 31 20 16 15 19 15 14 25 21 20 28 24 23 27 23 22 23 22 20 28 24 25 33 29 26 33 28 25 25 24 20 27 23 20 45 40 36 45 40 37 30 30 22 25 26 18 23 25 14 22 24 13 22 26 12 25 29 15 26 34 13 31 44 18 34 42 19 34 44 19 33 43 18 36 46 21 35 45 20 27 39 15 29 37 14 26 30 15 21 25 11 28 28 18 36 32 29 35 31 30 32 26 26 32 28 27 16 15 13 17 16 14 
77 68 53 77 69 56 73 65 52 73 64 49 56 49 43 43 40 35 39 38 34 35 31 30 38 34 31 40 36 33 41 37 34 48 43 40 50 42 39 34 30 29 32 28 27 44 38 38 48 43 39 34 30 29 19 17 18 19 14 18 17 12 8 19 13 13 50 30 31 49 29 28 70 65 61 70 65 61 44 44 34 40 40 30 35 39 22 28 38 14 31 43 19 36 46 21 38 48 21 42 55 25 43 56 26 43 52 25 42 52 25 34 42 18 31 43 19 27 36 15 25 34 13 27 36 15 30 38 15 33 43 18 41 51 24 40 50 23 36 46 19 35 45 20 34 44 19 35 45 20 21 24 13 20 21 13 27 22 19 26 22 19 28 24 23 30 26 25 28 24 21 21 20 18 23 22 18 31 27 26 32 28 27 37 33 30 37 33 30 22 18 17 18 17 15 24 23 21 31 27 26 30 26 23 27 23 20 29 25 24 33 29 26 32 28 27 26 25 23 29 25 24 41 36 33 42 37 34 33 29 26 27 26 22 31 30 25 35 32 27 40 36 33 48 43 40 46 42 39 41 42 36 40 41 35 37 39 28 36 37 29 37 37 27 37 39 28 33 35 24 31 33 20 31 31 23 30 29 25 33 29 26 35 31 28 35 31 28 31 27 28 28 27 25 14 14 12 13 14 9 
76 68 55 76 67 52 74 64 52 73 63 51 56 49 43 42 38 35 41 37 34 36 32 31 37 33 32 39 35 32 41 37 34 48 42 42 48 43 40 32 31 27 33 29 26 42 38 35 47 42 39 32 28 25 18 17 15 19 15 16 16 10 10 21 13 11 49 31 29 50 29 28 69 65 62 69 65 62 44 44 36 40 40 30 34 38 21 28 37 16 32 42 18 37 47 22 37 47 20 42 55 25 42 56 23 41 52 22 40 53 23 33 43 18 35 43 20 30 35 15 26 33 15 29 37 16 29 37 14 34 44 20 38 53 20 40 50 23 36 44 20 33 46 20 34 44 20 34 44 17 22 24 13 19 22 13 23 22 18 26 22 21 26 25 21 29 25 22 28 24 21 21 20 16 22 21 19 32 28 27 31 27 26 36 32 29 37 33 30 20 19 17 17 17 15 24 23 21 27 27 25 28 24 21 27 23 22 28 24 23 33 29 28 33 29 26 29 25 24 29 25 24 41 36 33 40 36 33 33 29 26 30 26 25 33 29 26 34 30 27 40 35 32 48 43 40 46 41 38 44 41 36 42 42 34 36 38 27 37 37 27 37 39 26 37 39 28 32 34 21 31 33 20 32 32 24 31 27 24 33 29 26 36 32 29 34 30 27 32 28 27 28 27 23 14 13 11 15 14 12 
93 76 50 94 77 49 93 80 63 93 81 65 64 57 49 48 43 39 41 38 33 31 27 24 34 30 27 42 38 35 43 38 35 48 40 38 45 39 39 36 32 29 34 30 29 33 29 28 34 30 27 36 32 29 40 35 29 55 45 36 80 60 51 81 58 50 86 53 44 85 52 43 59 51 48 59 51 48 65 60 56 67 62 58 43 40 35 27 27 17 35 32 25 40 40 32 45 45 37 62 59 54 60 57 48 42 42 32 42 42 32 43 43 33 44 44 32 28 32 17 24 28 11 31 39 16 36 46 21 36 44 20 35 45 21 34 44 19 33 41 17 32 40 17 30 40 16 33 41 20 26 25 20 24 23 19 33 28 25 33 29 26 33 29 28 32 28 27 29 25 22 20 19 15 21 20 18 32 28 27 32 28 27 35 31 28 36 32 29 19 18 16 17 16 14 23 22 18 29 28 24 33 29 26 34 30 27 35 31 28 34 30 27 35 31 28 30 26 23 31 27 26 37 33 30 37 33 30 33 29 26 32 28 27 35 31 28 37 33 30 40 36 33 47 42 39 53 48 45 74 69 66 71 66 63 67 63 62 67 63 60 42 43 35 39 39 29 56 51 47 58 53 49 49 44 41 37 33 32 36 32 29 30 29 25 27 28 22 22 25 16 23 25 14 17 16 14 16 15 13 
95 78 50 96 79 49 94 81 62 93 84 67 66 59 49 48 43 39 41 38 33 28 27 23 33 29 26 43 38 35 44 38 38 45 39 39 44 39 36 36 32 31 34 30 29 32 28 27 31 27 24 37 34 29 44 40 31 60 50 40 89 67 54 90 68 55 88 56 45 88 55 46 57 49 46 58 48 47 70 62 59 72 64 61 44 40 37 27 27 19 34 33 29 39 38 33 48 45 40 65 60 57 61 58 51 43 40 33 41 41 33 45 45 37 47 44 37 28 32 17 22 26 11 31 39 16 36 46 21 35 45 20 34 44 19 34 44 19 31 39 16 30 40 16 31 39 16 30 39 18 25 26 20 25 24 22 33 29 26 36 31 28 34 30 29 33 29 28 29 25 22 19 18 16 23 19 18 31 27 24 32 26 26 36 32 29 36 32 29 20 19 17 20 16 15 27 24 19 32 29 24 34 29 26 35 31 28 36 33 28 35 31 28 34 30 27 32 28 25 31 27 26 36 32 31 37 33 32 33 27 27 31 27 26 35 31 28 37 33 30 40 36 33 44 40 37 53 48 45 78 73 70 77 72 69 71 67 66 71 67 64 43 43 35 40 40 30 57 52 48 64 56 53 51 46 43 38 34 31 36 32 29 29 28 24 28 27 22 21 24 13 22 24 13 16 15 13 17 16 14 
95 83 61 96 83 66 95 82 66 94 85 68 79 69 57 71 63 50 55 48 40 28 24 21 29 25 24 30 29 27 32 28 27 32 28 25 30 29 25 27 26 22 28 24 23 45 40 34 49 45 36 63 57 45 76 68 55 81 72 57 92 79 63 92 79 63 92 75 59 95 76 62 77 69 56 76 68 57 67 63 60 66 62 61 42 38 35 25 26 21 31 30 25 35 36 28 45 42 37 64 59 55 62 57 53 53 48 44 52 47 43 54 49 45 54 49 43 35 35 25 30 32 19 34 42 19 37 47 22 36 46 21 34 44 19 35 43 20 31 41 17 31 41 17 23 27 13 22 28 14 28 27 22 30 26 23 32 28 27 31 27 26 32 28 25 34 30 27 27 26 24 18 17 15 22 18 17 32 28 25 32 28 27 35 31 28 36 32 29 19 18 16 18 16 17 23 22 18 27 27 19 31 33 20 33 37 20 32 34 21 28 24 21 27 26 22 33 29 26 30 29 25 28 24 21 29 25 22 30 29 25 33 30 25 33 29 28 33 29 26 35 31 28 37 33 30 46 42 39 75 70 66 75 67 64 64 58 58 63 58 55 51 50 45 48 49 43 54 51 46 56 51 47 48 43 39 40 37 32 37 37 29 33 37 20 29 36 20 25 32 16 25 32 16 20 19 17 19 18 14 
95 86 69 95 85 73 95 86 69 95 86 69 87 77 65 81 74 58 63 56 46 26 22 19 26 22 19 24 23 21 23 22 20 22 21 17 23 22 20 21 20 18 20 19 15 51 48 39 63 56 46 78 72 58 95 86 71 95 83 69 93 84 67 93 86 70 99 87 71 97 85 69 86 79 63 85 78 62 67 63 60 66 62 63 40 39 35 28 24 21 31 30 26 33 34 26 41 41 33 66 58 55 65 57 54 57 52 49 59 51 49 57 52 49 57 52 48 39 39 29 32 34 21 35 43 22 38 48 23 35 48 20 35 43 19 33 43 18 32 42 18 29 38 17 19 22 11 19 22 13 30 26 23 30 26 25 32 27 24 30 26 23 32 28 27 34 30 27 27 26 24 19 18 16 20 19 17 32 28 27 32 28 27 35 31 28 35 31 30 19 18 16 17 16 14 21 20 15 24 26 15 27 34 16 32 42 18 29 36 18 22 21 19 23 22 18 31 27 26 33 29 26 25 21 20 25 21 18 33 28 25 33 29 26 32 28 25 31 27 26 32 28 27 30 29 25 42 38 37 73 68 65 75 65 64 61 53 51 59 54 50 54 53 48 54 53 48 53 49 46 53 48 44 46 43 38 39 36 31 37 39 26 34 44 17 32 42 17 28 35 17 29 37 16 20 19 17 22 18 17 
