P3
100 50
255
20 5 8 20 5 8 20 5 8 20 5 8 21 6 9 21 6 9 20 5 8 20 5 8 20 5 8 20 5 8 20 5 8 20 5 8 20 5 8 20 5 8 20 5 8 20 5 8 20 5 8 21 6 9 20 5 8 20 5 8 21 6 9 21 6 9 22 6 9 21 6 9 21 5 8 21 6 9 21 6 9 19 4 7 21 6 9 21 6 9 21 6 9 20 5 8 22 7 10 21 6 9 21 6 9 21 6 9 21 6 9 21 6 9 21 6 9 21 6 9 20 5 8 21 6 9 21 6 9 21 6 9 20 5 8 20 5 8 21 6 11 21 6 11 21 6 11 20 5 10 21 6 11 20 5 10 20 5 10 20 5 10 21 6 11 21 6 11 21 6 11 21 6 11 21 6 11 19 7 11 19 7 11 18 6 10 18 6 10 17 5 9 19 7 11 18 6 10 20 5 10 20 5 10 18 6 8 20 5 8 18 6 8 19 7 11 17 5 9 21 6 9 18 7 11 18 6 10 18 6 10 18 6 10 19 7 11 19 7 11 19 7 11 22 7 10 22 7 10 24 7 13 22 5 11 23 9 9 24 10 10 15 12 7 9 12 5 5 13 2 3 13 2 2 12 1 3 13 2 3 13 2 3 13 2 4 14 3 3 13 2 6 14 3 2 13 0 3 13 2 
20 5 8 20 5 8 20 5 8 20 5 8 21 6 9 21 6 9 21 7 7 20 5 8 20 5 8 20 6 6 20 5 8 20 5 8 21 6 9 19 4 7 19 4 7 21 6 9 20 5 8 20 5 8 20 5 8 20 5 8 21 6 9 21 6 9 21 6 9 21 6 9 21 6 9 21 6 9 20 5 8 21 6 9 20 5 8 20 5 8 22 7 10 21 6 9 21 6 9 20 5 8 21 6 9 20 5 10 21 6 9 21 6 9 21 6 9 22 7 10 20 5 8 21 6 9 21 6 9 21 6 9 21 6 9 19 4 7 21 6 9 21 6 11 20 5 10 20 5 10 21 6 11 20 5 10 21 6 11 21 6 11 21 6 11 20 5 10 21 6 11 21 6 11 19 7 11 17 5 9 18 6 10 18 6 10 18 6 10 18 6 10 18 6 10 18 6 10 19 4 9 20 5 10 18 6 10 20 5 10 20 5 10 19 7 11 18 6 10 21 6 11 19 7 11 21 6 11 19 7 11 19 7 9 18 6 8 18 6 10 21 6 11 22 7 12 22 7 10 23 7 10 25 6 10 24 10 10 24 10 9 14 11 6 11 14 5 6 14 3 3 13 2 2 13 0 3 14 0 2 12 3 3 13 2 5 13 2 4 14 3 5 13 2 3 14 0 2 12 1 
20 5 8 21 6 9 22 7 10 21 6 9 21 6 9 21 6 9 21 6 9 21 6 9 21 6 9 20 5 8 20 5 8 20 5 8 21 6 9 20 5 8 20 5 8 20 5 8 20 5 8 20 5 8 20 5 8 20 5 8 18 6 8 20 5 8 23 7 10 20 5 8 18 6 8 17 5 7 20 5 8 19 7 9 21 6 9 21 6 9 20 5 8 22 7 10 20 5 8 19 7 9 21 6 9 21 6 9 17 7 8 20 5 8 21 6 9 20 5 8 20 5 8 22 7 10 19 7 9 20 5 8 21 6 9 21 6 13 20 5 10 21 6 9 21 6 11 20 5 10 20 5 8 20 5 10 19 4 11 20 5 10 21 6 11 20 5 12 20 5 10 20 5 10 20 5 8 20 5 10 20 5 10 18 6 10 17 5 9 17 5 9 18 5 12 18 6 10 19 7 11 19 7 11 19 7 11 20 5 10 21 6 9 21 6 11 19 7 9 18 6 10 18 6 10 20 5 10 19 7 11 20 5 10 18 6 10 20 5 10 18 6 10 19 7 11 18 6 10 23 6 12 23 6 12 26 7 11 25 9 12 26 10 11 28 10 10 24 10 9 21 10 6 17 12 6 9 12 3 6 12 2 4 15 1 3 14 0 3 13 2 2 12 1 1 13 1 2 14 2 
20 5 8 20 5 8 20 5 8 20 5 8 20 5 8 21 6 9 20 5 8 21 6 9 21 6 9 20 5 8 21 6 9 20 5 8 20 5 8 21 6 9 20 5 8 21 6 9 20 5 8 21 6 9 20 5 8 20 5 8 20 5 8 20 5 8 22 6 9 20 5 8 20 5 8 17 7 8 18 6 8 19 7 9 20 5 8 20 5 8 20 5 8 20 5 8 20 5 8 20 5 8 20 5 8 20 5 8 21 6 9 20 5 8 21 6 9 20 5 8 21 6 9 20 5 8 21 6 9 21 6 9 21 6 11 20 5 10 21 6 11 21 6 11 21 6 11 20 5 10 20 5 10 20 5 10 20 5 10 20 5 10 20 5 10 21 6 11 20 5 10 21 6 11 20 5 10 20 5 10 18 6 10 18 6 10 20 5 10 17 5 9 17 4 11 17 5 9 18 6 10 19 7 11 18 6 10 19 7 11 20 5 10 20 5 10 18 6 8 18 6 10 18 6 10 20 5 10 19 7 11 22 7 12 18 6 10 20 5 10 19 7 11 21 6 11 18 7 11 25 6 12 23 7 10 25 6 10 25 6 10 29 9 11 30 10 12 24 10 10 22 11 9 18 10 7 9 12 3 7 13 3 2 13 0 3 13 2 3 13 2 2 14 2 0 12 0 1 13 1 
18 6 8 18 6 8 19 4 7 19 4 7 20 5 8 20 5 8 20 5 8 20 5 8 20 5 8 20 5 8 20 5 8 21 6 9 21 6 9 20 5 8 21 6 9 20 5 8 21 6 9 20 5 8 21 6 9 21 6 9 21 6 9 20 5 8 21 6 9 20 5 8 20 5 8 18 6 8 18 6 8 18 6 8 18 6 8 20 5 8 20 5 8 20 5 8 19 7 11 18 6 10 18 5 12 20 5 12 20 5 8 20 5 8 19 4 7 20 5 8 21 6 9 20 5 8 21 6 9 21 6 9 21 6 9 20 5 8 21 6 9 21 6 9 21 6 9 20 5 8 20 5 8 20 5 8 21 6 11 20 5 10 20 5 10 20 5 10 20 5 10 21 6 11 20 5 10 19 4 9 19 7 11 18 6 10 20 5 10 17 5 9 16 3 10 18 6 10 17 5 9 18 6 10 18 6 10 18 6 10 19 7 11 17 5 9 19 7 11 18 6 10 18 6 10 18 6 10 19 7 11 20 5 10 18 6 10 20 5 10 18 6 10 21 6 11 19 7 11 25 6 12 25 6 10 25 6 8 25 6 10 25 6 12 26 7 11 26 7 11 26 7 9 24 8 9 23 9 9 23 8 11 19 11 8 19 11 8 8 11 2 6 11 4 5 13 2 3 13 2 
20 5 8 20 5 8 19 7 9 18 6 8 20 5 8 20 5 8 19 4 7 20 5 8 20 5 8 20 5 8 21 6 9 20 5 8 21 7 7 21 7 7 21 7 7 21 7 7 21 7 7 20 6 6 21 7 7 21 7 7 21 6 9 21 6 9 19 7 9 20 5 8 18 6 8 20 5 8 18 6 8 18 6 8 20 5 10 18 6 10 18 6 10 18 6 8 19 4 7 20 5 8 18 6 8 18 6 8 20 5 8 18 6 8 18 6 8 19 7 9 21 6 9 20 5 8 21 6 9 21 6 9 21 6 9 21 6 9 20 5 8 21 6 9 21 6 9 20 5 8 20 5 8 20 5 8 20 5 10 20 5 10 20 5 10 19 4 9 20 5 10 21 6 11 20 5 8 19 4 9 21 6 11 18 6 10 18 6 10 17 5 9 17 4 11 18 6 10 17 5 9 18 6 10 18 6 10 19 7 11 18 6 10 18 6 10 18 6 10 19 7 11 18 6 10 19 7 11 17 5 9 20 5 10 18 6 10 18 6 10 19 7 11 21 6 9 22 7 10 22 5 11 23 7 10 25 6 10 23 6 12 22 6 9 26 7 11 24 5 9 26 7 9 27 8 10 28 9 11 27 8 10 24 10 9 24 10 7 11 12 6 10 11 3 5 13 0 3 14 0 
19 4 7 19 4 7 18 6 8 17 5 7 20 5 8 20 5 8 20 5 8 20 5 8 20 5 8 20 5 8 20 5 8 20 5 8 20 5 8 21 6 9 20 5 8 21 6 9 20 5 8 21 6 9 20 5 8 20 5 8 21 6 9 21 6 9 19 7 9 20 5 8 18 6 8 20 5 8 18 6 8 18 6 8 19 7 11 18 6 10 20 5 8 18 6 8 18 6 8 18 6 8 19 7 9 20 5 8 21 6 9 18 6 8 17 7 8 19 7 9 21 6 9 20 5 8 20 5 8 21 6 9 20 5 8 20 5 8 21 6 9 21 6 9 21 6 9 21 6 9 20 5 8 21 6 9 20 5 10 20 5 10 19 4 9 20 5 10 20 5 10 20 5 10 20 5 8 20 5 10 20 5 10 18 6 10 18 6 10 18 6 10 17 4 11 18 6 10 17 5 9 18 6 10 18 6 10 18 6 10 18 6 10 18 6 10 19 7 11 18 6 10 19 7 11 18 6 10 20 8 12 17 5 9 19 7 11 18 6 10 19 7 9 21 6 9 22 7 10 22 5 11 23 7 10 25 6 10 24 5 9 26 7 11 25 6 10 24 5 9 26 7 11 26 7 13 26 7 13 26 7 11 25 9 10 23 9 9 20 10 8 21 11 9 12 12 4 14 11 4 
17 5 7 17 5 7 20 5 8 21 6 9 20 5 8 20 5 8 20 5 8 20 5 8 20 5 8 20 5 8 20 5 8 20 5 8 20 5 8 20 5 8 20 5 8 20 5 8 19 4 7 20 5 8 20 5 8 20 5 8 20 5 8 20 5 8 18 6 8 18 6 8 18 6 8 20 5 8 18 6 8 18 6 8 20 5 8 18 6 8 18 6 8 19 7 9 18 6 6 20 6 6 18 6 8 18 6 8 18 6 8 18 6 8 17 7 8 18 6 8 20 5 8 21 6 9 20 5 8 20 5 8 20 5 8 19 4 7 20 5 8 21 6 9 21 6 9 21 6 9 21 6 9 21 6 9 20 5 8 20 5 10 20 5 10 20 5 8 20 5 10 21 6 11 20 5 10 20 5 10 18 6 10 18 5 12 20 5 12 18 6 10 18 6 10 18 6 10 18 6 10 18 6 10 18 6 10 17 5 9 18 6 10 16 4 8 18 6 10 17 5 9 19 7 11 18 6 10 19 4 9 18 6 10 18 6 10 18 6 10 21 6 9 24 10 10 23 7 10 23 6 12 23 6 12 24 5 11 25 6 12 25 6 10 26 7 11 25 6 10 25 6 10 25 6 10 22 6 9 21 6 9 26 7 11 26 7 11 29 9 11 29 9 11 24 10 9 20 9 7 
17 5 7 17 5 7 18 6 8 18 6 8 20 5 8 20 5 8 20 5 8 20 5 8 20 5 8 20 5 8 20 5 8 20 5 8 20 5 8 19 4 7 20 5 8 20 5 8 20 5 8 20 5 8 20 5 8 20 5 8 20 5 8 20 5 8 18 6 8 18 6 8 18 6 8 20 5 8 18 6 8 18 6 8 18 6 8 17 5 7 21 6 9 17 5 7 18 6 8 18 6 8 18 6 8 20 5 8 18 6 8 18 6 8 18 6 8 19 7 9 18 6 8 19 7 9 20 5 8 22 7 10 20 5 8 20 5 10 20 5 8 21 6 9 21 6 11 20 5 10 21 6 9 21 6 11 20 5 8 21 6 11 21 6 11 20 5 8 21 6 11 20 5 10 21 6 11 19 4 9 18 6 8 18 6 10 20 5 10 18 6 10 18 6 10 18 6 10 18 6 10 18 6 10 18 6 10 17 5 9 18 6 10 17 4 11 17 5 9 17 5 9 18 6 10 18 6 10 20 5 10 17 6 10 20 5 10 18 6 10 21 6 9 23 7 8 23 7 10 22 5 11 23 6 12 24 7 13 23 7 10 25 6 10 25 6 10 26 7 11 23 7 10 23 6 12 22 6 9 22 5 11 25 6 10 26 7 11 28 8 10 28 8 10 24 9 6 24 10 10 
17 5 7 17 5 7 16 4 6 16 4 6 20 5 8 20 5 8 20 5 8 20 5 8 20 5 8 20 5 8 20 5 8 20 5 8 20 5 8 20 5 8 20 5 8 20 5 8 21 6 9 21 6 9 21 6 9 21 6 9 21 5 8 20 5 8 18 6 8 20 5 8 17 5 7 17 5 7 17 7 8 18 6 8 20 5 8 18 6 8 18 6 8 18 6 8 20 5 8 20 5 8 19 7 9 18 6 8 17 5 7 18 6 8 20 5 8 19 4 7 18 6 8 19 7 9 21 6 9 20 5 8 20 5 8 20 5 8 20 5 8 21 6 9 21 6 9 21 6 9 20 5 8 21 6 9 21 6 9 21 6 11 21 6 11 21 6 9 21 6 11 20 5 10 20 5 8 19 4 9 20 6 6 18 6 8 19 7 9 18 6 8 18 6 10 18 6 10 18 6 10 18 5 12 18 6 10 17 5 9 18 6 10 18 5 12 18 6 10 17 4 11 18 6 10 18 6 10 18 6 10 18 6 10 18 6 10 17 5 9 20 5 8 24 8 9 24 8 11 23 6 12 23 7 10 25 6 10 23 7 10 23 7 10 23 7 10 26 7 11 23 7 10 22 6 9 22 6 9 23 7 10 23 7 10 22 6 9 23 7 10 23 7 10 27 8 10 26 7 9 
17 5 7 17 5 7 17 5 7 18 3 6 18 3 6 19 4 7 19 4 7 20 5 8 20 6 6 19 5 5 20 6 6 20 6 6 18 6 6 18 6 8 18 6 8 20 5 8 20 6 6 20 6 6 20 6 6 21 6 9 18 6 8 18 6 8 18 6 8 18 6 8 19 7 9 19 7 9 18 6 8 17 5 7 18 6 8 17 5 7 18 6 8 18 6 8 18 6 8 18 6 8 18 6 8 18 6 8 18 6 8 17 5 7 18 6 8 18 6 8 19 7 9 20 5 8 20 5 8 20 5 8 21 6 9 21 6 9 20 5 8 20 5 8 20 5 8 20 5 8 18 6 8 20 5 8 21 6 9 20 5 8 21 6 9 20 5 8 17 5 7 20 5 8 21 6 9 18 6 8 19 4 7 19 4 7 18 6 8 18 6 8 18 6 10 18 6 10 20 5 10 20 5 10 18 6 10 18 6 10 18 6 10 17 5 9 18 6 10 18 6 10 18 6 10 18 6 10 18 6 10 19 7 11 18 6 10 17 5 9 19 7 11 23 9 9 23 9 9 23 7 10 22 6 9 25 6 10 25 6 10 23 7 10 25 6 10 22 7 10 22 6 9 23 7 10 22 5 13 23 6 12 21 6 9 23 7 10 23 7 10 23 7 10 26 7 11 27 7 9 
17 5 7 18 6 8 17 5 7 19 4 7 16 4 6 17 5 7 16 4 6 17 5 7 16 4 6 18 6 6 17 5 5 18 6 6 17 5 7 18 6 8 18 6 6 18 6 6 20 5 8 22 5 11 20 5 8 21 7 7 18 6 8 18 6 8 18 6 8 16 4 6 18 6 8 18 6 8 18 6 8 17 5 7 18 6 8 19 7 9 18 6 8 18 6 8 18 6 8 18 6 8 18 6 8 18 6 8 18 6 8 18 6 8 19 4 7 22 7 10 19 4 7 21 6 9 18 6 10 18 6 10 20 5 8 18 3 6 20 5 8 19 4 7 18 6 8 21 6 9 21 5 8 19 7 9 20 5 8 20 5 8 20 5 8 20 5 8 18 6 8 20 5 8 21 6 9 18 6 8 21 6 9 18 6 8 18 6 8 18 6 8 18 6 10 18 6 10 17 5 9 21 6 11 17 5 9 19 7 11 18 6 10 18 6 10 17 5 9 17 5 9 17 5 9 18 6 10 18 6 10 18 6 10 17 5 9 17 5 9 18 6 10 23 9 9 24 10 10 24 8 11 22 6 9 23 7 10 23 7 10 23 7 10 23 7 10 22 6 9 22 6 9 23 7 10 23 6 12 25 6 10 24 5 9 22 6 7 22 6 9 22 6 9 23 7 10 23 7 8 
17 5 7 17 5 7 17 5 7 17 5 7 17 5 7 16 4 6 17 5 7 16 4 6 16 4 6 17 5 7 18 6 8 18 6 8 17 5 7 17 5 7 18 6 8 18 6 8 20 5 8 20 5 8 21 6 9 18 6 8 18 6 8 17 5 7 18 6 8 18 6 8 19 7 9 18 6 8 18 6 8 18 6 8 18 6 8 18 6 8 18 6 8 17 5 7 18 6 8 18 6 8 18 6 8 18 6 8 18 6 8 18 6 10 18 6 10 17 5 7 18 6 8 18 6 8 18 6 8 17 5 9 18 6 8 19 4 7 18 6 8 20 5 8 20 5 8 18 6 8 20 5 8 19 4 7 20 5 8 18 6 8 20 5 8 20 5 8 20 5 8 20 5 8 20 5 8 20 5 8 20 5 8 18 6 8 18 6 8 18 6 8 18 6 10 18 6 10 18 6 10 17 5 9 18 6 10 18 6 10 18 6 10 17 5 9 18 6 10 18 6 10 18 6 10 18 6 10 18 6 10 18 6 10 17 5 9 18 6 10 18 6 10 23 9 9 23 9 9 22 6 9 23 7 10 27 6 11 25 6 10 25 6 10 25 6 10 22 6 9 22 6 9 22 6 9 22 6 9 22 6 9 21 6 9 22 6 9 22 6 9 22 6 9 22 6 9 21 5 8 
17 5 7 17 5 7 16 4 6 17 5 7 17 5 7 17 5 7 17 5 7 17 5 7 17 5 7 16 4 6 17 5 7 17 5 7 17 5 7 17 5 7 17 5 7 20 5 8 20 5 8 18 6 8 18 6 8 18 6 8 18 6 8 18 6 8 18 6 8 18 6 8 18 6 8 18 6 8 16 4 6 18 6 8 17 5 7 18 6 8 18 6 8 18 6 8 18 6 8 18 6 8 18 6 8 18 6 8 17 5 9 18 6 8 18 6 10 17 5 9 17 5 7 19 4 7 19 4 7 20 5 8 21 5 8 18 6 8 20 5 8 20 5 8 21 6 9 20 5 8 20 8 10 18 6 8 20 5 8 18 6 8 18 6 8 20 5 8 20 5 8 18 6 8 18 6 8 21 6 9 17 5 7 18 6 8 18 6 8 18 6 8 18 6 10 18 6 10 17 5 9 17 5 9 18 6 10 17 5 9 18 6 10 17 5 9 18 6 10 18 6 10 18 6 10 18 6 10 18 6 10 16 4 8 18 6 10 17 5 9 18 6 10 22 7 10 23 9 8 22 6 9 22 6 9 23 7 10 23 7 10 23 7 10 23 7 10 22 6 9 22 6 9 22 6 9 24 5 9 22 6 9 22 6 9 22 6 9 23 6 12 25 6 12 23 7 10 23 7 10 
17 5 7 17 5 7 16 4 6 16 4 6 16 4 6 17 5 7 15 3 5 17 5 7 17 5 7 17 5 7 16 4 6 16 4 6 19 4 7 17 5 7 17 5 7 20 5 8 20 5 8 20 5 8 18 6 8 17 5 7 18 6 8 17 5 7 18 6 8 17 5 7 17 5 7 18 6 8 18 6 8 18 6 8 18 6 8 18 6 8 17 5 7 18 6 8 18 6 8 19 7 9 18 6 8 18 6 8 18 6 8 18 6 8 18 6 8 18 6 8 17 5 9 17 5 9 17 5 7 18 6 10 18 6 8 18 6 8 19 7 9 19 4 7 19 7 9 18 8 9 20 5 8 18 6 8 20 5 8 18 6 8 19 7 9 20 5 8 21 6 9 18 6 8 18 6 8 21 6 9 19 7 9 20 5 8 18 6 8 19 7 9 18 6 10 17 6 10 17 6 10 18 6 10 18 6 10 18 6 10 18 6 10 18 6 10 17 5 9 18 6 10 17 5 9 18 6 10 18 6 10 18 6 10 18 6 10 18 6 10 17 5 9 22 7 10 23 9 9 23 7 10 22 6 9 25 6 10 25 6 10 23 7 10 23 7 10 23 7 10 22 6 9 23 7 10 22 5 11 22 5 11 25 6 10 23 7 10 25 6 10 26 5 10 25 6 12 25 6 12 
16 4 6 16 4 6 16 4 6 16 4 6 16 4 6 17 5 7 16 4 6 17 5 7 17 5 7 17 5 7 17 5 7 16 4 6 17 5 7 17 5 7 17 5 7 19 4 7 20 5 8 20 5 8 19 7 9 17 5 7 17 5 7 17 5 7 17 5 7 17 5 7 18 6 8 18 6 8 17 5 7 18 6 8 18 6 8 17 5 7 17 5 7 18 6 8 17 5 7 17 5 7 18 6 8 18 6 8 18 6 8 18 6 8 17 5 7 18 6 8 17 5 7 18 6 10 17 5 9 18 6 10 20 5 8 17 5 7 21 6 9 18 6 8 20 5 8 21 6 9 18 6 8 20 5 8 18 6 8 18 6 8 18 6 8 18 6 8 21 6 9 18 6 8 19 7 9 21 6 9 21 6 9 18 6 8 19 7 9 17 5 7 18 6 10 19 7 11 18 6 10 19 7 11 18 6 10 18 6 10 18 6 10 17 5 9 18 6 10 18 6 10 18 6 10 18 6 10 18 6 10 18 6 10 17 5 9 18 6 10 18 6 10 22 7 10 23 9 9 23 7 10 22 6 9 22 6 9 23 7 10 22 6 9 25 6 10 23 7 10 21 6 9 23 7 10 22 5 11 25 6 10 23 7 10 25 6 10 23 7 10 23 6 12 23 7 10 26 7 11 
15 5 6 16 4 6 17 5 7 17 5 7 16 4 6 17 5 7 16 4 6 17 5 7 17 5 7 17 5 7 17 5 7 17 5 7 16 4 6 17 5 7 16 4 6 19 4 7 20 5 8 18 6 8 18 6 8 18 6 8 18 6 8 18 6 8 18 6 8 18 6 8 17 5 7 18 6 8 18 6 8 18 6 8 17 5 7 18 6 8 18 6 8 19 7 9 18 6 8 19 7 9 17 5 7 18 6 8 17 5 7 17 5 7 18 6 8 18 6 8 17 5 7 17 5 5 18 6 8 18 6 10 16 5 9 17 5 9 17 5 9 15 4 8 18 6 10 18 6 10 18 6 10 19 7 11 19 7 9 21 6 9 18 6 8 18 6 8 18 6 8 18 6 8 18 6 8 18 6 8 21 5 8 18 6 8 18 6 8 20 5 8 17 5 9 19 7 11 18 6 10 19 7 11 17 5 7 18 6 8 17 5 7 17 5 7 18 6 8 18 6 8 18 6 8 18 6 8 18 6 10 18 6 8 18 6 8 19 7 11 19 7 11 24 9 12 21 6 9 22 6 9 22 6 9 23 7 10 23 7 10 23 7 10 22 7 10 22 6 9 22 6 9 23 7 10 22 6 9 22 6 9 25 6 10 24 8 11 23 7 10 22 7 10 22 6 9 22 6 9 
15 5 6 17 5 7 16 4 6 16 4 6 17 5 7 16 4 6 16 4 6 17 5 7 17 5 7 16 4 6 17 5 7 16 4 6 17 5 7 17 5 7 18 3 6 19 4 7 20 5 8 16 6 7 17 7 8 17 5 7 17 5 7 17 5 7 17 5 7 17 5 7 17 5 7 18 6 8 19 7 9 18 6 8 17 5 7 18 6 8 17 5 7 17 5 7 17 5 7 18 6 8 18 6 8 18 6 8 17 5 7 18 6 8 18 6 8 18 6 8 17 5 7 18 6 8 18 6 8 18 6 8 18 6 10 19 4 9 17 5 9 18 6 10 19 4 9 18 6 10 18 6 10 18 6 10 18 6 8 20 5 8 18 6 8 18 6 8 18 6 8 20 5 8 18 6 8 18 6 8 18 6 8 20 5 8 20 5 8 18 6 8 18 6 10 18 6 10 18 6 10 18 6 10 18 6 8 18 6 8 18 6 8 17 5 7 18 6 8 18 6 8 18 6 8 18 6 8 18 6 10 18 6 8 18 6 8 17 5 9 18 6 10 21 6 9 22 7 10 24 8 11 22 6 9 23 7 10 23 7 10 25 6 10 23 7 10 22 6 9 21 6 9 22 6 9 23 7 10 23 7 10 23 7 10 25 6 10 25 6 10 25 6 10 22 6 9 22 6 9 
15 3 5 15 3 5 17 5 7 16 6 7 16 5 3 16 4 4 16 4 6 17 5 7 16 4 6 17 5 7 16 4 6 17 5 7 17 5 7 18 6 8 17 5 7 16 4 6 16 4 6 16 6 7 17 7 8 17 5 7 18 6 8 18 6 8 17 5 7 20 5 8 18 6 8 18 6 6 17 5 7 17 6 4 18 6 8 18 6 8 18 6 8 18 6 8 17 5 7 17 5 7 17 5 7 17 5 7 18 6 8 18 6 8 18 6 8 18 6 8 18 6 8 18 6 8 18 6 8 17 5 7 17 5 7 17 5 7 19 4 7 19 4 7 20 5 8 19 4 7 18 6 8 18 6 8 18 6 10 20 5 8 19 7 11 18 6 8 19 4 9 18 6 8 18 6 10 18 6 8 19 7 7 18 6 8 18 6 8 18 6 8 19 7 9 19 7 9 18 6 8 18 6 8 18 6 8 18 6 8 18 6 10 20 5 10 20 5 8 18 6 8 18 6 8 18 6 10 17 5 9 17 5 9 18 6 8 18 6 8 18 6 8 18 6 8 19 7 9 22 6 9 20 5 8 23 7 10 23 7 10 22 6 9 22 6 9 21 6 9 24 5 9 23 7 10 25 6 10 25 6 10 23 7 10 23 7 10 24 5 9 25 6 10 24 8 11 23 7 10 
15 5 6 15 3 5 16 4 6 15 5 6 16 4 4 17 5 5 18 6 8 16 4 6 16 4 6 16 4 6 16 4 6 16 4 6 16 4 6 16 4 6 17 5 7 16 4 6 16 4 6 16 6 7 17 5 7 17 5 7 16 6 7 17 5 7 17 5 7 18 6 8 17 5 7 17 5 5 18 6 8 17 5 5 17 5 7 16 4 6 18 6 8 18 6 8 18 6 8 17 5 7 17 5 7 18 6 8 18 6 8 18 6 8 18 6 8 17 5 7 18 6 8 17 5 7 18 6 8 18 6 8 17 5 7 18 6 8 19 4 7 20 5 8 20 5 8 19 4 7 18 6 8 18 6 8 17 5 7 19 7 9 18 6 10 20 5 8 17 5 9 18 6 8 19 4 9 18 6 8 17 5 7 18 6 8 18 6 8 18 6 8 18 6 8 18 6 8 18 6 8 18 6 8 17 5 7 18 6 8 18 6 10 17 5 9 18 6 8 18 6 8 18 6 8 17 5 9 18 6 10 18 6 10 18 6 10 17 5 7 18 6 8 19 7 9 19 7 9 22 6 9 21 6 9 23 7 10 25 6 10 22 6 9 21 6 9 23 7 10 23 7 10 23 7 10 23 7 10 24 5 9 24 5 9 25 6 10 23 7 10 22 7 10 22 6 9 24 5 9 
15 5 6 15 5 6 16 4 6 17 5 7 16 4 4 16 4 4 16 4 6 16 4 6 16 4 6 16 4 6 16 4 6 16 4 6 16 4 6 17 5 7 17 5 7 16 4 6 16 4 6 16 4 6 15 5 6 16 4 6 17 5 7 18 6 8 17 5 7 18 6 8 18 6 8 18 6 8 18 6 8 18 6 8 17 5 7 18 6 8 17 5 7 17 5 7 18 6 8 17 5 7 18 6 8 17 5 7 18 6 8 19 4 7 18 6 8 18 6 8 18 6 8 17 5 7 18 6 8 18 6 8 17 5 7 18 6 8 18 6 8 20 5 8 20 5 8 18 6 8 18 6 8 18 6 8 17 5 7 20 5 8 18 6 8 17 5 7 20 5 8 18 6 8 18 6 8 18 6 8 18 6 8 18 6 8 18 6 8 18 6 8 18 6 10 19 7 11 17 5 9 18 6 8 18 6 10 18 6 10 18 6 8 20 5 8 20 5 10 18 6 10 18 6 10 18 6 8 18 6 10 18 6 8 19 7 9 18 6 8 18 6 8 19 7 9 18 6 8 23 7 10 22 6 9 23 7 10 23 7 10 23 7 10 21 5 8 22 6 9 22 6 9 23 7 10 22 6 9 22 6 9 22 6 9 22 6 9 21 5 8 22 6 9 22 6 9 23 7 10 
15 5 6 15 5 6 15 5 6 15 5 6 16 4 4 16 4 6 16 4 6 15 3 5 16 4 6 16 4 6 16 4 6 16 4 6 16 4 4 16 6 7 16 4 6 16 4 6 16 4 6 16 4 6 16 4 6 16 4 4 15 5 6 16 6 7 17 5 7 17 5 7 17 5 7 18 6 8 16 4 6 17 5 7 17 5 7 17 5 7 18 6 8 17 5 7 17 5 7 17 5 7 17 5 7 18 6 8 17 5 7 18 6 8 18 6 8 17 5 7 17 5 7 17 5 7 18 6 8 18 6 8 18 6 8 17 5 7 17 5 7 17 5 7 17 5 7 17 5 7 18 6 8 19 7 9 17 5 7 19 7 9 18 6 8 18 6 8 18 6 8 18 6 8 18 6 8 19 7 9 18 6 8 18 6 8 18 6 10 18 6 10 17 5 9 18 6 10 18 6 10 18 6 10 17 5 9 17 5 9 18 6 8 18 6 8 18 6 10 17 5 9 18 6 10 17 5 7 18 6 8 19 7 11 18 6 10 18 6 10 19 7 9 18 6 8 18 6 8 21 5 8 22 6 9 25 6 10 25 6 10 23 7 10 22 6 9 22 7 10 23 7 10 23 7 10 22 6 9 22 6 9 22 6 9 22 6 9 22 6 9 22 6 9 22 6 9 22 6 9 
15 5 6 15 5 6 15 5 6 15 5 6 15 5 6 15 5 6 14 4 5 15 5 6 14 4 5 14 4 5 14 4 5 15 5 6 14 4 5 14 4 5 15 5 6 16 4 8 15 4 8 17 5 7 15 5 6 15 5 6 16 4 6 16 4 6 16 4 6 17 5 7 17 5 7 17 5 7 19 7 9 17 5 7 17 5 7 18 6 8 18 6 8 17 5 7 18 6 8 16 4 6 17 5 7 17 5 7 17 5 7 17 5 7 17 5 7 18 6 8 18 6 8 20 5 8 17 5 7 19 4 7 18 6 8 18 6 8 18 6 8 18 6 8 18 6 8 18 6 8 18 6 8 18 6 8 18 6 8 18 6 8 18 6 8 19 7 9 18 6 8 18 6 8 18 6 8 17 5 7 17 5 9 18 6 10 18 6 10 17 5 9 18 6 10 17 5 9 17 5 9 17 5 9 17 5 9 17 5 9 18 6 10 18 6 10 17 5 9 18 6 10 18 6 10 18 6 8 18 6 10 17 5 7 18 6 6 18 6 8 18 6 8 18 6 10 19 7 9 23 7 10 24 5 9 25 6 10 25 6 10 24 8 11 22 6 9 23 7 10 23 7 10 23 7 10 22 6 9 22 6 9 23 7 10 23 7 10 24 8 11 22 6 9 22 6 9 22 6 9 
16 4 6 14 4 5 16 6 7 15 5 6 15 5 6 15 5 6 15 5 6 13 3 4 15 5 6 14 4 5 15 5 6 14 4 5 14 4 5 14 4 5 15 5 6 15 5 6 15 3 5 16 4 6 17 5 7 16 4 6 16 4 6 15 5 6 14 4 5 15 3 5 17 5 7 17 5 7 16 6 7 16 4 6 17 5 7 17 5 7 18 6 8 17 5 7 17 5 7 17 5 7 18 6 8 17 5 7 18 6 8 17 5 7 17 5 7 17 5 7 17 5 7 17 5 7 18 6 8 18 6 8 17 5 7 18 6 8 18 6 8 18 6 8 18 6 8 17 5 7 17 5 7 18 6 8 18 6 8 18 6 8 18 6 8 17 5 7 18 6 8 16 4 6 18 6 8 18 6 8 18 6 8 17 5 9 18 6 10 17 5 9 17 5 7 17 5 9 17 5 9 17 5 9 17 5 9 18 6 10 17 5 9 17 5 9 17 5 9 17 5 9 18 6 8 18 6 8 18 6 8 18 6 10 18 6 10 18 6 10 18 6 8 19 7 9 19 7 9 22 6 9 23 7 10 23 7 10 25 6 10 26 7 11 23 7 10 23 7 10 23 7 10 25 6 10 23 7 10 23 7 10 22 6 9 23 7 10 22 6 9 23 7 10 23 7 10 22 6 9 
15 5 6 15 5 6 15 5 6 14 4 5 15 5 6 15 5 6 14 4 5 14 4 5 14 4 5 14 4 5 14 4 5 14 4 5 14 4 5 14 4 5 14 4 5 15 5 6 15 5 6 15 3 5 17 5 7 16 6 7 16 4 6 16 4 6 16 4 6 16 4 6 16 4 6 16 4 8 17 5 7 16 5 9 17 5 7 17 5 7 17 5 7 17 5 7 16 4 6 17 5 7 17 5 7 18 6 8 17 5 7 18 6 8 17 5 7 17 5 7 16 4 6 18 8 9 17 5 7 16 6 7 17 5 7 18 6 8 17 5 7 17 5 7 18 6 8 16 4 6 18 6 8 18 6 8 17 5 7 18 6 8 17 5 7 17 5 7 18 6 8 18 6 8 16 4 6 18 6 8 18 6 8 18 6 8 18 6 8 17 5 9 17 5 9 17 5 9 17 5 9 17 5 9 17 5 9 17 5 9 17 5 9 16 5 9 17 6 10 18 6 8 17 5 7 17 5 9 17 5 9 17 5 7 19 7 9 18 6 8 18 6 8 19 7 9 18 6 8 23 7 10 22 6 9 25 6 10 25 6 10 23 7 10 22 6 9 23 7 10 23 7 10 23 7 10 22 6 9 22 6 9 23 7 10 23 7 10 22 6 9 22 6 9 23 7 10 22 6 9 
16 6 7 15 5 6 14 4 5 15 3 5 15 5 6 15 5 6 13 3 4 14 4 5 14 4 5 14 4 5 14 4 5 14 4 5 14 4 5 14 4 5 14 4 5 14 4 5 16 4 6 16 4 6 18 3 6 17 5 7 16 4 6 16 4 6 16 4 6 16 4 6 17 5 7 16 4 8 16 6 7 16 5 11 17 5 7 17 5 7 17 5 7 17 5 7 17 5 7 17 5 7 18 6 8 17 5 7 17 5 7 16 6 7 18 6 8 16 6 7 17 5 7 17 5 7 17 5 7 17 5 7 18 6 8 17 5 7 18 6 8 17 5 7 18 6 8 16 4 6 18 6 8 17 5 7 18 6 8 17 5 7 18 6 8 17 5 7 18 6 8 17 5 7 18 6 8 18 6 8 19 7 9 17 5 7 17 5 7 17 5 7 17 5 9 17 5 9 17 5 9 16 4 8 17 5 9 17 5 9 17 5 9 17 5 9 18 6 8 18 6 8 18 6 8 17 5 9 18 6 10 17 5 9 18 6 10 17 5 7 18 6 8 19 7 9 17 5 7 23 7 10 24 8 11 23 7 10 25 6 10 23 7 10 23 7 10 22 7 10 23 7 10 23 7 10 23 7 10 21 6 9 22 6 9 23 4 8 22 6 9 22 6 9 24 5 9 23 7 10 
15 5 4 16 6 5 14 4 3 15 5 4 14 4 5 15 5 6 14 4 5 16 6 7 15 3 5 14 4 5 14 4 5 14 4 5 15 5 6 14 4 5 14 4 5 15 5 6 14 4 5 14 4 5 15 5 6 15 5 6 15 5 6 15 5 6 17 5 7 17 5 7 17 5 7 17 5 7 17 5 7 19 4 7 16 4 6 16 4 8 16 4 6 17 5 7 16 6 7 18 6 8 17 5 7 17 5 7 17 5 7 16 4 6 16 6 7 17 7 8 17 5 7 17 5 7 18 6 8 17 5 7 17 5 7 16 4 6 17 5 7 18 6 8 17 5 7 18 6 8 18 6 8 17 5 7 17 7 8 17 5 7 18 6 8 18 6 8 18 6 8 17 5 7 18 6 8 18 6 8 18 6 8 18 6 8 17 5 7 18 6 8 18 6 8 16 6 7 16 6 7 17 5 7 17 5 9 17 5 9 17 5 9 17 5 9 18 6 10 17 5 9 18 6 10 18 6 10 18 6 8 19 7 9 18 6 8 17 5 9 19 7 9 21 6 9 20 5 8 22 6 9 24 5 9 25 6 10 23 7 10 22 6 9 22 6 9 23 7 10 23 7 10 21 6 9 22 6 9 23 7 10 22 6 9 22 6 9 23 7 10 22 6 9 22 6 9 22 6 9 
15 5 4 14 4 3 14 4 3 14 4 3 15 5 6 14 4 5 15 5 6 15 5 4 15 3 5 15 5 6 14 4 5 15 5 6 14 4 5 14 4 5 14 4 5 14 4 5 14 4 5 14 4 5 14 4 5 15 5 6 15 5 6 14 4 5 17 5 7 16 4 6 17 5 7 16 4 6 17 5 7 16 4 6 16 4 6 16 4 6 17 5 9 17 5 7 16 4 6 16 4 6 17 5 7 17 5 7 19 4 7 18 6 8 16 4 6 18 6 8 16 6 7 14 5 6 17 7 8 17 5 7 17 5 7 18 6 8 17 5 7 17 5 7 18 6 8 17 5 7 18 6 8 18 6 8 17 7 8 17 5 7 17 5 7 18 6 8 18 6 8 18 6 8 18 6 8 18 6 8 17 7 8 18 6 8 18 6 8 18 6 8 17 5 7 17 5 7 17 5 7 17 5 7 18 6 10 18 6 10 17 5 9 17 5 9 18 6 10 18 6 10 18 6 10 17 5 9 18 6 8 18 6 8 18 6 10 17 5 9 18 6 8 21 6 9 21 6 9 21 5 8 22 6 9 23 7 10 22 7 10 22 6 9 22 6 9 23 7 10 23 7 10 22 6 9 22 6 9 22 6 9 22 6 9 22 6 9 22 6 9 22 6 9 22 6 9 22 6 9 
15 5 6 15 5 6 14 4 5 14 4 5 15 5 6 14 4 3 15 5 4 15 5 4 15 3 3 15 5 6 14 4 5 14 4 5 14 4 5 15 5 6 15 5 6 15 5 6 15 5 6 15 5 6 15 5 6 14 4 5 15 5 6 14 4 5 14 4 5 14 4 5 14 4 5 15 5 6 15 5 6 17 5 7 16 4 6 17 5 7 17 5 7 17 5 7 16 4 6 16 4 8 15 5 6 17 5 7 16 6 7 18 6 8 17 5 7 18 6 8 16 4 6 16 6 7 15 5 6 17 5 7 17 5 7 18 6 8 17 5 7 16 4 6 17 5 7 16 4 6 16 4 6 17 5 7 17 5 7 17 5 7 17 5 7 19 7 9 18 6 8 18 6 8 18 6 8 18 8 9 16 6 7 18 6 8 18 6 8 17 5 7 17 5 7 17 5 7 18 6 8 18 6 8 16 4 6 17 5 7 18 6 8 17 5 7 17 5 7 17 5 7 18 6 8 18 6 8 18 6 8 17 5 7 18 6 8 18 6 8 18 6 8 19 7 9 21 6 9 22 6 9 22 6 9 22 6 9 22 6 9 22 6 9 22 6 9 22 6 9 22 6 9 22 6 9 22 6 9 22 6 9 22 6 9 22 6 9 22 6 9 22 6 9 22 6 9 22 6 9 
14 4 5 15 5 6 14 4 5 15 5 6 14 4 3 15 5 4 15 5 4 17 7 6 14 4 3 14 4 3 14 4 5 15 5 6 16 6 7 15 5 6 15 5 6 14 4 5 14 4 5 14 4 5 14 4 5 15 5 6 15 5 6 14 4 5 15 5 6 15 5 6 14 4 5 15 5 6 15 5 6 14 4 5 17 5 7 17 5 7 17 5 7 17 5 7 19 4 7 17 5 7 17 5 7 17 5 7 17 5 7 18 6 8 16 4 6 17 5 7 16 4 6 18 6 8 17 5 7 16 6 7 18 6 8 17 5 7 17 5 7 17 5 7 17 5 7 18 6 8 17 5 7 17 5 7 16 4 6 17 5 7 18 6 8 18 6 8 18 6 8 18 6 8 17 7 8 16 6 7 17 7 8 18 6 8 16 4 6 17 5 7 17 5 7 15 3 5 18 6 8 18 6 8 16 4 6 17 5 7 17 5 7 17 5 7 17 5 7 17 5 7 17 5 7 16 4 6 18 6 8 17 5 9 17 5 9 18 6 10 18 6 8 18 6 8 19 7 9 22 6 9 22 6 9 22 6 9 22 6 9 22 6 9 22 6 9 21 6 9 22 6 9 22 6 9 22 6 9 22 6 9 22 6 9 23 7 10 22 6 9 22 6 9 23 7 10 22 6 9 
14 4 5 14 4 5 15 5 6 15 5 6 15 5 4 15 5 4 13 3 2 15 5 4 15 5 4 15 5 4 15 5 6 14 4 5 14 4 5 15 5 6 14 4 5 14 4 5 14 4 5 14 4 5 15 5 6 14 4 5 15 5 6 14 4 5 14 4 5 13 3 4 14 4 5 14 4 5 15 5 6 16 6 7 16 4 6 15 5 6 16 4 6 15 3 5 17 5 7 16 4 6 17 5 7 17 5 7 16 4 6 18 6 8 15 3 5 17 5 7 17 5 7 19 4 7 20 5 8 19 4 7 17 5 7 17 5 7 18 6 8 17 5 7 17 5 7 17 5 7 16 4 6 18 6 8 18 6 8 17 5 7 17 5 7 16 4 6 17 5 7 17 5 7 16 6 7 16 6 7 15 6 7 17 7 8 17 5 7 17 5 7 17 5 7 17 5 7 17 5 7 17 5 7 17 5 7 17 5 7 17 5 7 17 5 7 17 5 7 17 5 7 18 6 8 18 6 8 18 6 8 17 5 7 19 7 9 18 6 8 18 6 8 19 7 9 18 6 8 20 5 8 21 6 9 22 6 9 22 6 9 22 6 9 22 6 9 22 6 9 22 6 9 22 6 9 22 6 9 22 6 9 22 6 9 23 7 10 22 6 9 22 6 9 23 7 10 22 6 9 
14 4 5 14 4 5 15 5 6 15 5 6 14 4 5 14 4 3 15 5 4 15 5 4 14 4 3 14 4 5 14 4 5 14 5 6 15 5 6 14 4 5 15 5 6 15 5 6 14 4 5 14 4 5 14 4 5 14 4 5 15 5 6 14 4 5 14 4 5 15 5 6 14 4 5 15 5 6 14 4 5 14 4 5 15 3 5 15 5 6 17 5 5 19 4 7 17 5 7 16 4 6 16 4 6 17 5 7 16 4 6 17 5 7 17 5 7 17 5 7 17 5 7 17 5 7 18 6 8 18 6 8 18 6 8 18 6 8 17 5 7 17 5 7 17 5 7 17 5 7 17 5 7 17 5 7 18 6 8 16 6 7 17 5 7 17 5 7 17 5 7 16 6 7 17 5 7 16 6 7 18 6 8 17 7 8 17 7 8 18 6 8 17 5 7 16 6 7 16 6 7 17 5 7 19 7 9 18 6 8 18 6 8 17 5 7 18 6 8 16 4 6 18 6 8 18 6 8 17 5 7 18 6 8 17 5 9 16 4 8 18 6 8 18 6 8 18 6 8 21 6 9 21 6 9 21 6 9 22 6 9 21 6 9 21 6 9 22 6 9 22 6 9 22 6 9 22 6 9 22 6 9 22 6 9 22 6 9 22 6 9 22 6 9 22 6 9 22 6 9 
14 4 5 15 5 6 14 4 5 14 4 5 15 5 6 14 4 5 15 5 6 15 5 4 15 5 6 14 4 5 14 4 5 13 4 5 14 4 5 15 5 6 14 4 5 14 4 5 14 4 5 14 4 5 14 4 5 14 4 5 13 4 5 14 4 5 14 4 5 14 4 5 14 4 5 15 5 6 14 4 5 14 4 5 15 5 6 14 4 5 14 4 5 16 4 6 16 4 6 17 5 5 16 6 7 16 4 6 17 5 7 16 4 6 16 4 6 17 5 7 17 5 7 17 5 7 17 5 7 17 5 7 17 5 7 17 5 7 16 4 6 17 5 7 17 5 7 17 5 7 18 6 8 17 5 7 18 6 8 16 6 7 17 5 7 17 7 8 17 5 7 16 6 7 17 5 7 18 6 8 17 5 7 18 6 8 17 5 7 17 5 7 16 6 7 17 7 8 16 7 8 17 7 8 17 5 7 17 5 7 17 5 7 18 6 8 18 6 8 17 5 7 17 5 7 17 5 7 18 6 8 17 5 7 18 6 8 18 6 8 18 6 8 18 6 8 17 5 7 20 5 8 22 6 9 22 6 9 22 6 9 22 6 9 22 6 9 22 6 9 22 6 9 22 6 9 22 6 9 22 6 9 22 6 9 22 6 9 22 6 9 22 6 9 22 6 9 22 6 9 
14 4 5 14 4 5 14 4 5 14 4 5 14 4 5 14 4 5 14 4 5 15 5 6 14 4 5 14 4 5 14 4 5 11 5 5 14 4 5 14 4 5 14 4 5 14 4 5 14 4 5 14 4 5 14 4 5 15 5 6 14 5 6 14 4 5 14 4 5 16 6 7 15 5 6 14 5 6 14 4 5 14 4 5 14 4 5 14 4 5 15 5 6 16 4 6 17 5 7 16 4 6 15 5 4 15 3 5 15 5 6 16 4 6 14 4 5 15 6 7 14 5 6 15 5 6 17 5 7 15 3 5 16 4 6 16 4 6 17 5 7 17 5 7 17 5 7 17 5 7 17 5 7 17 5 7 17 7 8 17 5 7 16 6 7 18 6 8 16 6 7 18 6 8 17 7 8 20 5 8 17 7 8 17 5 7 17 5 7 16 6 7 16 7 8 17 7 8 17 7 8 15 6 7 18 6 8 15 6 7 17 5 7 16 6 7 17 7 8 17 5 7 16 7 8 17 5 7 17 5 7 17 5 7 17 5 9 17 5 9 18 6 8 18 6 8 18 6 8 21 6 9 21 6 9 22 6 9 22 6 9 21 6 9 21 6 9 24 5 9 22 6 9 21 6 9 22 6 9 23 7 10 22 6 9 22 6 9 23 7 10 22 6 9 22 6 9 22 6 9 
13 4 5 13 4 5 13 4 5 13 4 5 14 4 5 14 4 5 14 4 5 13 4 5 13 4 5 14 4 5 14 4 5 14 4 5 14 4 5 14 4 5 14 4 5 15 5 6 14 4 5 14 4 5 14 5 6 14 5 6 14 4 5 14 4 5 14 4 5 14 4 5 14 4 5 14 4 5 15 5 6 15 5 6 14 5 6 14 4 5 15 5 6 15 5 6 15 5 6 15 5 6 15 3 5 15 5 6 16 4 6 16 4 6 16 4 6 15 5 6 15 5 6 16 6 7 15 5 6 15 5 6 16 4 6 17 5 7 16 4 6 17 5 7 17 5 7 17 5 7 17 5 7 16 6 7 18 6 8 19 4 7 17 5 7 18 6 8 17 5 7 16 7 8 17 7 8 15 6 7 19 4 7 18 6 8 18 6 8 17 5 7 17 5 7 18 6 8 18 6 8 18 6 8 17 7 8 16 6 7 17 7 8 17 7 8 16 6 7 16 6 7 16 6 7 16 6 7 18 6 8 16 6 7 16 6 7 16 6 7 18 6 8 18 6 8 18 6 8 21 6 9 21 6 9 21 6 9 22 6 9 22 6 9 22 6 9 21 6 9 22 6 9 23 7 10 22 6 9 22 6 9 22 6 9 22 6 9 22 6 9 22 6 9 23 7 10 22 6 9 
14 4 5 14 4 5 14 4 5 14 4 5 14 4 5 14 4 5 13 4 5 13 4 5 13 4 5 13 4 5 14 4 5 14 4 5 14 4 5 14 4 5 15 5 6 14 4 5 14 4 5 15 5 6 14 4 5 15 5 6 15 5 6 15 5 6 14 4 5 15 5 6 14 4 5 14 4 5 14 4 5 14 4 5 14 5 6 14 4 5 14 4 5 16 4 6 15 5 6 16 6 7 14 4 5 16 4 6 14 4 5 14 4 5 15 5 6 14 4 5 15 5 6 16 4 6 15 5 6 16 6 7 17 5 7 16 4 6 17 5 7 15 5 6 15 3 5 17 5 7 16 4 6 17 5 7 17 5 7 17 5 7 17 5 7 18 6 8 17 5 7 20 5 8 16 6 7 17 5 7 17 7 8 16 6 7 17 5 7 17 5 7 17 5 7 17 5 7 17 5 7 17 5 7 18 6 8 18 6 8 17 5 7 18 6 8 18 6 8 17 5 7 17 5 7 18 6 8 17 5 7 17 7 8 17 5 7 17 7 8 18 6 8 16 4 6 17 5 7 21 6 9 21 6 9 21 6 9 22 6 9 22 6 9 23 7 10 21 6 9 23 7 10 22 6 9 21 6 9 21 6 9 22 6 9 22 6 9 23 7 10 23 8 11 20 5 8 23 7 10 
13 4 5 13 4 5 13 4 5 13 4 5 14 4 5 14 4 5 14 4 5 14 4 5 14 4 5 14 4 5 14 4 5 14 4 5 14 4 5 14 4 5 14 4 5 13 3 4 14 4 5 14 4 5 14 4 5 14 4 5 15 5 6 14 4 5 14 4 5 14 4 5 14 4 5 14 4 5 14 4 5 14 4 5 16 4 6 14 5 6 15 3 5 14 4 5 15 5 6 14 2 4 15 5 6 15 5 6 15 5 6 15 5 6 15 5 6 16 4 6 15 5 6 16 4 6 17 2 5 15 3 5 15 3 5 15 5 6 16 4 6 18 3 6 17 5 7 16 4 6 16 4 6 17 5 7 17 5 7 17 5 7 17 5 7 17 5 7 17 5 7 17 5 7 17 5 7 17 5 7 16 6 7 18 6 8 18 6 8 18 6 8 17 5 7 17 5 7 17 7 8 15 6 7 18 6 8 17 5 7 17 5 7 17 5 7 17 5 7 17 5 7 17 5 7 17 5 7 17 7 8 16 6 7 18 6 8 17 5 7 18 6 8 18 6 8 17 5 7 20 5 8 21 6 9 22 6 9 22 6 9 22 6 9 21 5 8 21 5 8 22 6 9 22 6 9 22 6 9 22 6 9 21 6 9 21 6 9 21 6 9 21 6 9 23 7 10 23 7 10 
13 4 5 13 4 5 13 4 5 13 4 5 14 4 5 13 4 5 13 4 5 13 4 5 13 4 5 13 4 5 13 4 5 14 4 5 14 4 5 14 4 5 14 4 5 14 4 5 13 4 5 13 4 5 15 5 6 13 4 5 14 4 5 15 5 6 15 5 6 14 4 5 14 4 5 13 3 4 15 5 6 14 4 5 15 5 6 14 4 5 15 5 6 14 4 5 15 5 6 16 4 6 14 4 5 14 4 5 15 5 6 16 4 6 16 4 6 14 4 5 16 4 6 15 5 6 15 5 6 15 5 6 16 6 7 15 5 6 14 4 5 16 4 6 16 4 6 15 5 6 16 6 7 15 5 6 15 5 6 15 5 6 16 4 6 15 5 6 16 4 6 16 4 6 16 4 6 16 4 6 17 5 7 18 6 8 18 6 8 17 5 7 16 4 6 17 5 7 18 6 8 16 6 7 15 5 6 16 6 7 16 6 7 16 6 7 17 7 8 16 6 7 16 6 7 17 7 8 16 6 7 16 6 7 17 5 7 18 6 8 18 6 8 17 5 7 17 5 7 21 6 9 20 5 8 20 5 8 21 6 9 22 6 9 22 6 9 22 6 9 21 6 9 21 6 9 21 6 9 22 6 9 22 6 9 22 6 9 22 6 9 22 6 9 22 6 9 22 6 9 
13 4 5 13 4 5 13 4 5 13 4 5 14 4 5 13 4 5 13 4 5 13 4 5 13 4 5 13 4 5 13 4 5 14 4 5 13 4 5 13 4 5 13 4 5 14 4 5 13 4 5 12 3 4 14 4 5 14 4 5 13 3 4 15 5 6 14 4 5 14 4 5 14 4 5 13 3 4 15 5 6 14 4 5 14 5 6 14 4 5 15 5 6 14 2 4 14 4 5 14 4 5 15 5 6 14 4 5 15 3 5 14 4 5 16 4 6 15 5 6 15 5 6 15 5 6 15 5 6 15 5 6 14 4 5 16 4 6 16 6 7 13 4 5 16 6 7 16 6 7 15 5 6 14 4 5 16 4 6 16 4 6 16 4 6 16 4 6 17 5 7 17 5 7 17 5 7 16 4 6 16 4 6 17 5 7 17 5 7 17 5 7 17 5 7 16 4 6 16 4 6 17 5 7 17 7 8 16 6 7 16 6 7 17 7 8 16 6 7 16 6 7 17 7 8 17 7 8 17 7 8 15 5 6 18 6 8 17 5 7 16 4 6 18 6 8 18 6 8 21 6 9 21 6 9 21 6 9 21 6 9 22 6 9 24 5 9 22 6 9 21 6 9 21 6 9 22 6 9 21 5 8 23 7 10 22 6 9 22 6 9 23 7 10 21 5 8 24 5 9 
13 4 5 13 4 5 13 4 5 13 4 5 13 4 5 12 3 4 13 4 5 13 4 5 12 3 4 13 4 5 13 4 5 12 3 4 13 4 5 13 4 5 13 4 5 13 4 5 14 5 6 13 4 5 13 4 5 14 5 6 14 4 5 14 4 5 14 4 5 14 4 5 15 5 6 14 4 5 15 5 6 14 4 5 14 4 5 14 5 6 14 4 5 14 4 5 14 4 5 14 4 5 15 5 6 14 4 5 13 4 5 13 4 5 12 3 4 14 4 5 14 4 5 15 5 6 14 4 5 15 5 6 18 3 6 15 5 6 15 5 6 15 3 5 14 4 5 15 5 6 16 6 7 16 4 6 15 5 6 15 5 6 15 5 6 15 3 5 16 6 7 16 4 6 16 4 6 16 4 6 16 4 6 16 4 6 17 5 7 17 5 7 16 4 6 15 5 6 15 5 6 16 6 7 15 4 8 16 5 9 14 3 7 15 4 8 16 5 9 16 5 9 16 5 9 16 5 9 16 6 7 16 6 7 17 5 7 18 6 8 18 6 8 17 5 7 18 6 8 20 5 8 20 5 8 21 6 9 19 7 9 21 6 9 22 7 10 21 6 9 21 6 9 21 6 9 21 5 8 22 6 9 22 6 9 23 7 10 23 7 10 22 6 9 23 7 10 22 6 9 
12 3 4 12 3 4 12 3 4 12 3 4 12 3 4 14 4 5 12 3 4 11 2 3 13 4 5 13 4 5 12 2 3 13 4 5 12 3 4 13 4 5 12 3 4 13 4 5 13 4 5 13 4 5 13 4 5 13 4 5 14 5 6 13 4 5 13 4 5 12 3 4 13 4 5 11 2 3 13 4 5 13 4 5 14 4 5 14 4 5 13 4 5 14 4 5 15 5 6 14 4 5 14 4 5 13 3 4 13 4 5 14 4 5 13 4 5 14 4 5 14 4 5 14 4 5 14 4 5 15 3 5 15 5 6 15 5 6 16 4 6 15 5 6 15 5 6 14 4 5 14 4 5 15 5 6 17 5 7 16 6 7 16 4 6 16 4 6 16 4 6 16 4 6 16 4 6 16 4 6 15 3 5 16 4 6 16 4 6 15 3 5 17 5 7 16 6 7 15 5 6 15 5 6 15 5 6 15 5 6 17 7 8 16 6 7 16 6 7 17 7 8 16 6 7 16 6 7 17 5 7 17 7 8 17 5 7 16 6 7 18 6 8 18 6 8 16 4 6 20 5 8 21 5 8 21 6 9 21 6 9 21 6 9 19 7 9 20 5 8 21 6 9 22 6 9 21 6 9 22 6 9 22 6 9 22 6 9 22 6 9 23 7 10 22 6 9 22 6 9 
12 3 4 12 3 4 12 3 4 12 3 4 12 3 4 13 4 5 12 3 4 12 3 4 13 4 5 12 3 4 12 3 4 12 3 4 12 3 4 12 3 4 12 3 4 13 4 5 14 4 5 14 4 5 13 4 5 12 3 4 13 4 5 13 4 5 14 5 6 13 4 5 13 4 5 13 4 5 13 4 5 13 4 5 14 4 5 14 4 5 14 4 5 14 4 5 14 4 5 14 4 5 14 4 5 13 4 5 14 4 5 13 4 5 14 4 5 14 4 5 14 4 5 14 4 5 14 4 5 14 4 5 15 5 6 15 5 6 15 5 6 17 5 7 16 4 6 15 5 6 15 5 6 16 4 6 14 4 5 14 4 5 15 5 6 15 3 5 15 5 6 14 4 5 16 4 6 15 5 6 16 4 6 15 3 5 15 3 5 17 5 7 16 4 6 14 4 5 15 5 6 15 5 6 15 4 8 14 3 7 15 4 8 15 4 8 15 4 8 15 4 8 16 5 9 16 5 9 17 5 7 16 6 7 16 6 7 16 6 7 17 5 7 17 5 7 17 5 7 20 5 8 20 5 8 20 5 8 22 6 9 22 6 9 21 6 9 19 7 9 21 6 9 22 6 9 21 5 8 22 6 9 22 6 9 22 6 9 22 6 9 21 5 8 22 6 9 21 5 8 
12 3 4 12 3 4 12 3 4 12 3 4 12 3 4 12 3 4 12 3 4 12 3 4 12 3 4 12 3 4 12 3 4 12 3 4 12 3 4 12 3 4 13 4 5 12 3 4 13 4 5 13 4 5 13 4 5 13 4 5 13 4 5 13 4 5 13 4 5 13 4 5 13 4 5 13 4 5 13 4 5 13 4 5 14 4 3 14 5 6 15 3 3 14 4 5 14 4 5 15 5 6 14 4 3 14 4 5 14 4 5 14 4 5 14 4 5 14 4 5 14 4 5 13 4 5 13 4 5 13 4 5 15 5 6 15 5 6 16 4 6 14 4 5 14 4 5 16 4 6 15 5 6 15 5 6 15 5 6 15 5 6 14 4 5 14 4 5 15 5 6 16 4 6 15 3 5 15 5 6 14 4 5 15 5 6 14 5 6 16 4 6 16 4 6 16 4 8 15 4 8 15 5 6 15 4 8 15 4 8 14 3 7 14 4 5 16 6 7 15 5 6 15 5 6 16 6 7 14 3 7 16 5 9 16 5 9 16 6 7 17 5 9 18 6 10 17 5 7 19 4 7 21 6 9 22 6 9 18 6 8 24 5 9 20 5 8 20 5 8 21 6 9 19 7 9 22 5 11 21 5 8 21 5 8 21 5 8 21 5 8 22 6 9 21 5 8 21 5 6 
12 3 4 12 3 4 12 3 4 12 3 4 12 3 4 12 3 4 12 3 4 12 3 4 12 3 4 12 3 4 12 3 4 12 3 4 12 3 4 12 3 4 13 4 5 12 3 4 13 4 5 13 4 5 13 4 5 13 4 5 13 4 5 12 3 4 13 5 3 13 5 3 13 5 3 13 5 3 14 5 6 13 4 5 15 5 6 14 5 6 14 4 5 14 4 5 14 4 5 14 4 5 14 4 5 14 4 5 14 4 5 14 4 5 14 4 5 14 4 5 14 4 5 14 4 5 14 4 5 13 4 5 16 4 6 14 4 5 14 4 5 14 4 5 16 4 6 16 4 6 14 4 5 15 5 6 15 5 6 14 4 5 16 6 7 16 6 7 14 4 5 16 4 6 16 4 6 16 4 6 15 5 6 15 5 6 15 5 6 16 4 6 16 4 6 16 4 8 15 4 8 15 5 6 14 4 5 15 4 8 15 4 8 15 4 8 15 4 8 14 4 5 16 6 7 15 5 6 15 4 8 15 4 8 15 4 8 16 6 7 17 5 9 17 6 10 17 5 7 20 5 8 20 5 8 21 5 8 18 6 8 21 5 8 21 6 9 20 5 8 20 5 8 21 6 9 22 6 9 21 5 8 21 5 8 21 5 8 21 5 8 22 6 9 21 5 8 21 5 8 
12 3 4 12 3 4 12 3 4 12 3 4 12 3 4 12 3 4 12 3 4 12 3 4 12 3 4 12 3 4 12 3 4 12 3 4 13 4 5 13 4 5 12 3 4 13 4 5 12 3 4 13 4 5 12 3 4 12 3 4 13 4 5 13 4 5 13 5 3 13 4 5 13 4 5 14 4 3 14 4 5 14 4 5 13 4 5 14 4 5 14 4 5 14 4 5 14 4 5 14 4 3 16 4 4 14 4 5 14 4 5 14 4 5 14 4 5 15 5 6 13 3 4 15 5 6 14 5 6 15 5 6 15 5 6 16 6 7 13 3 4 16 4 6 15 5 6 15 5 6 15 5 6 14 4 5 15 5 6 14 4 5 15 5 6 15 5 6 15 3 5 15 5 6 15 5 6 15 3 5 14 4 5 15 5 6 15 5 6 16 4 6 15 5 6 15 3 7 15 4 8 13 3 4 15 4 8 14 3 7 16 5 9 15 5 6 15 5 6 15 5 6 14 4 5 14 3 7 15 4 8 15 4 8 15 4 8 16 6 7 16 5 9 16 5 9 16 6 7 18 6 8 18 6 8 20 5 8 20 5 8 21 5 8 21 6 9 20 5 8 20 5 8 19 4 7 21 4 10 21 5 8 22 6 9 21 5 8 21 5 8 22 6 9 21 5 8 21 5 6 
12 3 4 12 3 4 12 3 4 12 3 4 12 3 4 12 3 4 12 3 4 12 3 4 12 3 4 12 3 4 12 3 4 12 3 4 12 3 4 13 4 5 11 2 3 13 4 5 12 3 4 12 3 4 12 3 4 12 3 4 13 4 5 13 4 5 13 4 5 13 4 5 13 4 5 14 4 5 14 4 5 14 4 5 14 4 5 12 3 4 15 5 6 13 3 4 14 4 5 14 4 5 15 5 4 14 4 3 14 4 5 14 4 5 13 3 4 14 4 5 13 4 5 15 5 6 14 4 5 14 4 5 15 5 6 14 4 5 15 5 6 13 3 4 15 3 5 15 5 6 15 5 6 14 4 5 15 5 6 15 5 6 16 6 7 14 4 5 16 4 6 16 6 7 14 4 5 17 5 7 14 4 5 15 5 6 15 5 6 16 4 6 15 5 6 14 3 7 14 3 7 14 4 5 15 4 8 15 4 8 15 4 8 15 4 8 15 4 8 15 5 6 15 5 6 15 5 6 15 4 8 15 4 8 15 4 8 14 4 5 15 4 8 16 5 9 16 6 7 18 6 8 18 6 8 20 5 8 21 6 9 21 6 9 20 5 8 21 6 9 20 5 8 21 5 8 21 5 8 21 5 8 22 6 9 21 5 8 21 5 8 21 5 8 21 5 8 21 5 8 
12 3 4 12 3 4 12 3 4 12 3 4 12 3 4 12 3 4 12 3 4 12 3 4 12 3 4 12 3 4 12 3 4 12 3 4 12 3 4 12 3 4 12 3 4 12 3 4 12 3 4 12 3 4 12 3 4 12 3 4 13 4 5 13 4 5 13 4 5 13 4 5 13 4 5 13 4 5 14 4 5 14 4 5 13 5 3 13 5 3 14 4 5 13 4 5 13 3 4 14 4 5 13 4 5 14 4 5 14 4 5 14 4 5 15 5 6 13 4 5 15 5 6 14 4 5 15 5 6 15 5 6 14 4 5 15 5 6 14 4 5 16 4 6 14 4 5 14 4 5 15 5 6 15 5 6 15 5 6 15 5 6 16 6 7 15 5 6 14 4 5 15 5 6 15 5 6 16 4 6 15 5 6 16 6 7 16 4 6 14 2 4 15 5 6 14 3 7 16 5 9 15 5 6 15 4 8 14 3 7 14 3 7 15 4 8 15 4 8 14 4 5 15 5 6 15 5 6 15 4 8 15 4 8 14 3 7 15 5 6 14 3 7 14 3 7 15 5 6 18 6 8 17 5 7 21 6 9 20 5 8 21 6 9 21 6 9 20 5 8 21 6 9 22 6 9 20 5 8 21 6 9 21 6 9 21 6 9 20 5 8 21 6 9 21 6 9 20 5 8 
12 3 4 12 3 4 12 3 4 12 3 4 12 3 4 12 3 4 12 3 4 12 3 4 12 3 4 12 3 4 12 3 4 12 3 4 12 3 4 12 3 4 12 3 4 12 3 4 12 3 4 12 3 4 12 3 4 12 3 4 12 4 2 12 3 4 12 3 4 12 3 4 13 4 5 13 4 5 13 4 5 13 5 3 13 4 5 12 4 2 13 5 3 13 4 5 14 4 5 15 3 5 13 4 5 14 4 5 14 4 5 13 4 5 14 4 5 13 3 4 15 5 6 14 4 5 14 4 5 14 4 5 14 4 5 15 5 4 15 5 4 15 5 4 16 4 6 13 3 4 14 4 5 15 5 4 15 5 6 14 4 5 15 5 6 15 5 6 15 5 6 15 5 6 14 4 5 15 5 6 15 5 6 15 5 6 16 4 6 16 4 6 14 4 5 15 4 8 15 4 8 15 5 6 14 3 7 15 4 8 15 4 8 15 5 6 15 5 6 15 5 6 15 5 6 14 3 7 16 5 9 15 4 8 15 4 8 15 5 6 15 4 8 15 4 8 14 4 5 17 5 7 17 5 7 20 5 8 20 5 8 20 5 8 20 5 8 20 5 8 21 6 9 22 6 9 20 6 6 21 6 9 21 6 9 22 7 10 21 6 9 21 6 9 21 6 9 21 6 11 
12 3 4 12 3 4 12 3 4 12 3 4 12 3 4 12 3 4 12 3 4 12 3 4 12 3 4 12 3 4 12 3 4 12 3 4 12 3 4 12 3 4 12 3 4 12 3 4 12 3 4 12 3 4 12 3 4 12 3 4 12 4 2 12 3 4 12 3 4 13 4 5 12 3 4 13 4 5 13 4 5 13 5 3 13 4 5 13 4 5 13 4 5 13 3 4 13 4 5 13 3 4 14 4 5 14 4 5 13 4 5 14 4 5 14 4 5 14 4 5 14 4 5 14 4 5 14 4 5 14 4 5 14 4 5 15 5 4 15 5 4 15 5 4 15 5 6 15 5 6 14 4 5 15 5 4 15 5 6 15 5 6 14 4 5 15 5 6 16 6 7 15 5 6 15 5 6 15 5 6 15 3 5 15 5 6 16 4 6 16 4 6 14 4 5 13 4 7 14 3 7 14 4 5 14 4 5 14 3 7 14 3 7 14 3 7 15 4 8 15 5 6 15 5 6 15 5 6 15 4 8 15 4 8 15 4 8 15 5 6 15 4 8 15 4 8 15 5 6 18 6 8 16 4 6 21 6 9 18 6 8 18 6 8 20 5 8 20 5 8 20 5 8 22 6 9 21 6 9 21 6 11 21 6 11 20 5 8 20 6 6 20 6 6 21 7 7 21 6 9 
12 3 4 12 3 4 12 3 4 12 3 4 12 3 4 12 3 4 12 3 4 12 3 4 12 3 4 12 3 4 12 3 4 12 3 4 13 4 5 12 3 4 13 4 5 12 3 4 12 3 4 12 3 4 12 3 4 12 3 4 12 3 4 12 3 4 12 3 4 12 3 4 13 4 5 12 3 4 12 3 4 13 4 5 11 5 5 13 5 3 14 5 6 12 3 4 14 4 5 13 3 2 13 4 5 14 4 3 13 4 5 13 4 5 13 4 5 14 4 5 14 4 5 14 4 5 14 4 5 14 4 5 13 4 5 14 4 5 15 3 5 14 4 5 14 4 5 14 4 5 14 4 5 14 4 5 15 5 6 16 6 7 14 4 5 14 4 5 15 5 6 15 5 6 15 5 6 14 4 5 17 5 7 15 5 6 16 4 6 15 3 5 14 4 5 13 4 7 14 3 7 14 4 5 15 4 8 14 3 7 15 4 8 15 5 6 14 4 5 14 4 5 15 5 6 15 5 6 14 3 7 14 3 7 15 4 8 15 5 6 15 4 8 15 4 8 14 4 5 17 5 7 17 5 7 19 4 7 18 6 8 18 6 8 20 5 8 21 6 9 21 6 9 22 6 9 21 6 9 21 6 9 21 7 7 21 7 7 21 6 9 21 6 9 21 7 7 21 7 7 
