P3
100 50
255
71 68 59 72 67 61 72 68 59 72 67 61 73 69 60 72 67 61 74 67 61 72 67 61 76 73 68 76 73 68 72 69 64 72 69 64 68 63 57 66 61 55 64 57 47 59 53 41 58 52 40 52 45 35 48 43 37 30 37 45 29 38 43 6 27 46 8 26 46 4 25 42 4 27 45 4 25 44 4 27 45 4 27 45 4 27 45 4 27 45 5 26 45 5 26 45 4 25 46 4 25 46 6 24 46 3 24 43 5 23 43 4 22 42 4 22 42 6 24 44 3 24 41 5 23 43 2 23 42 2 23 42 5 23 45 5 22 40 5 22 42 3 24 45 5 23 43 5 23 43 3 25 46 3 25 46 2 25 43 3 24 43 3 24 45 4 22 42 4 21 39 4 21 37 5 23 43 4 22 42 3 24 43 4 25 46 5 23 43 4 23 40 3 20 38 3 16 33 3 16 33 4 19 38 3 20 36 2 19 37 3 20 36 4 17 34 4 17 34 4 17 34 1 17 33 2 18 34 4 17 34 4 17 34 4 19 38 4 19 38 3 22 39 4 23 40 5 23 43 4 22 42 4 23 40 5 22 42 6 21 40 7 23 39 15 21 35 24 25 27 24 24 24 26 24 27 28 28 28 45 44 42 47 43 44 46 45 43 45 44 42 41 40 38 37 35 36 33 31 32 
62 55 45 68 64 55 74 70 61 73 69 60 72 67 61 71 67 58 66 59 49 65 58 48 63 56 46 63 56 46 51 42 33 50 41 32 63 56 48 70 66 57 70 65 59 68 64 55 68 64 55 67 63 54 68 61 51 56 49 39 54 50 39 8 27 44 5 26 43 5 26 47 5 26 47 4 25 46 5 26 47 5 26 47 5 26 47 5 26 47 5 26 47 5 26 47 5 26 45 6 24 44 5 22 40 4 21 37 5 21 37 3 20 36 4 21 37 4 21 39 4 21 41 5 24 41 5 23 45 4 25 46 3 26 44 4 21 39 4 21 39 2 19 37 3 19 35 3 22 39 2 23 42 3 24 45 3 25 46 4 25 46 4 25 46 3 25 46 6 24 44 7 25 45 7 25 45 8 27 44 5 26 45 5 26 45 4 25 46 3 24 43 3 21 43 2 18 34 5 20 39 4 25 46 4 27 45 5 26 47 4 25 44 4 26 47 4 26 47 4 22 42 5 20 39 3 19 35 2 15 31 3 15 31 5 14 31 5 14 31 4 13 28 5 14 31 3 15 31 3 14 32 10 23 40 10 23 40 26 37 57 35 46 66 29 40 60 22 34 56 22 34 48 27 26 31 26 25 30 25 25 25 26 26 26 36 32 33 34 33 31 44 43 41 48 47 45 50 46 47 
63 56 48 68 64 55 73 69 60 73 68 62 74 70 61 72 67 61 67 58 49 66 60 48 63 56 48 64 57 47 52 44 33 50 42 31 65 56 47 68 64 55 69 65 56 67 63 54 68 64 55 68 64 55 68 61 53 54 50 39 54 50 41 6 27 46 9 27 47 5 28 46 6 27 46 5 26 45 5 26 47 5 27 48 4 26 47 5 26 45 4 25 44 4 25 44 5 26 45 4 25 44 4 21 39 4 22 36 5 20 39 4 21 37 5 21 37 4 21 37 4 21 37 5 24 41 3 24 41 5 26 47 4 25 44 5 22 42 3 22 39 4 19 38 4 20 36 4 22 42 5 24 41 4 25 46 5 25 49 2 24 45 4 25 44 4 25 46 5 26 45 4 25 44 5 26 45 5 26 45 5 26 45 5 26 45 4 25 46 3 24 45 4 22 42 2 18 34 3 20 36 3 25 48 4 25 46 2 24 45 3 26 44 4 26 47 5 26 47 4 22 42 4 21 41 5 18 35 3 15 31 5 14 29 3 15 31 3 15 31 3 15 31 5 14 29 4 16 32 4 16 30 9 22 38 11 22 40 27 38 58 37 45 66 29 40 60 23 36 55 22 34 48 28 28 30 27 27 29 26 24 25 27 25 26 35 34 32 34 33 31 46 44 45 49 45 44 50 46 47 
65 58 50 72 67 61 79 76 71 78 75 70 75 70 66 73 69 66 69 65 56 68 64 55 60 54 42 60 53 43 56 49 39 55 48 38 68 59 52 70 66 57 67 60 52 60 56 45 59 52 42 50 42 31 49 43 31 49 42 32 48 44 33 8 26 46 8 29 50 6 27 46 5 26 45 6 27 46 5 26 45 13 31 51 25 37 59 25 37 59 16 31 52 16 33 51 7 28 47 6 29 47 7 25 45 6 24 44 6 23 43 3 22 39 4 21 37 4 20 36 5 21 37 5 22 40 4 21 37 5 21 37 3 20 36 6 15 30 6 15 32 7 25 47 4 25 46 4 25 46 5 26 47 5 26 45 4 25 44 4 25 44 4 23 40 5 23 45 5 26 45 4 25 44 8 26 46 10 27 47 5 26 45 5 26 45 6 24 46 2 23 42 4 22 42 3 20 38 4 17 36 3 12 29 4 12 31 4 25 44 5 26 47 4 22 42 5 22 42 3 20 36 4 19 38 4 19 38 4 19 38 4 19 38 3 18 37 4 20 36 4 17 34 4 17 34 5 14 31 5 14 31 4 17 33 4 17 34 5 20 39 5 22 42 9 26 46 13 30 50 14 30 53 15 31 54 18 33 52 27 34 50 28 35 53 31 30 26 31 30 28 27 25 26 25 25 25 37 37 37 
66 59 49 73 68 64 80 77 72 78 75 70 76 73 68 74 71 64 70 66 55 69 65 56 61 55 43 60 54 42 55 51 40 56 49 39 67 60 50 71 67 58 67 63 54 61 57 46 59 53 41 52 44 31 50 42 29 50 43 35 49 45 34 9 27 47 9 27 47 7 28 47 7 28 47 6 27 46 9 27 47 16 31 52 27 39 63 22 37 60 17 34 54 15 32 50 9 27 47 7 29 50 4 27 43 7 26 43 6 23 41 5 22 38 5 21 37 6 22 37 6 21 40 6 22 38 6 23 39 5 21 37 7 20 37 4 16 32 5 17 33 6 24 44 5 26 45 5 26 45 4 25 46 4 25 44 5 26 45 6 24 44 5 22 40 6 23 43 7 26 43 4 25 44 8 26 46 6 27 46 5 26 45 4 25 44 4 25 44 6 24 44 4 22 42 6 21 40 3 19 35 5 12 30 5 13 32 5 26 45 5 26 47 5 24 41 6 23 41 4 21 37 4 21 37 5 21 37 6 19 36 7 20 37 4 20 36 3 19 35 5 18 35 5 18 35 4 13 30 5 14 29 5 17 33 5 17 33 4 19 38 6 22 45 9 26 46 13 30 50 15 32 52 15 33 55 17 34 54 28 35 51 29 36 52 34 30 31 33 29 28 27 25 26 25 25 25 40 38 39 
68 61 51 65 58 48 62 55 45 61 53 42 53 46 36 56 49 39 71 67 58 69 66 59 72 67 61 71 66 60 66 62 51 68 61 51 59 52 42 55 47 36 52 46 34 53 45 34 53 45 34 50 44 32 52 44 31 49 42 32 50 43 33 8 26 46 8 26 46 15 33 53 17 35 55 31 46 65 40 51 69 42 50 69 37 48 66 37 48 68 34 45 65 34 45 65 31 43 65 31 43 65 28 43 64 32 45 64 17 32 53 12 29 47 6 22 38 6 20 33 5 18 34 6 19 35 6 19 36 5 20 39 7 20 37 5 21 37 5 21 37 5 22 40 5 22 40 4 23 40 5 23 43 5 23 43 6 23 41 6 23 41 5 22 40 5 22 40 5 22 38 3 21 41 5 21 37 5 20 39 7 25 47 5 28 46 4 25 44 3 22 39 3 22 39 5 21 37 5 22 38 4 21 39 5 20 39 4 23 40 5 21 37 8 25 45 9 26 44 11 28 46 12 29 47 17 32 53 21 33 55 17 30 49 9 22 39 7 23 39 4 20 36 4 20 36 3 18 37 7 20 37 5 17 33 6 15 30 8 21 38 11 24 43 12 29 47 18 33 54 22 35 54 25 36 56 25 38 57 18 33 54 19 34 55 11 30 47 12 29 47 17 27 36 19 26 34 27 28 32 
68 61 53 64 57 47 61 54 44 58 50 39 50 43 33 53 47 35 71 66 60 70 66 57 73 69 60 73 68 62 68 63 57 67 65 53 58 52 40 53 47 33 52 46 32 51 45 33 52 46 32 52 44 33 51 45 33 48 44 33 50 43 33 8 26 46 9 27 47 17 34 52 20 37 57 36 48 70 45 53 72 45 54 71 41 49 68 38 49 69 36 47 67 36 47 69 35 46 68 34 45 67 36 47 69 35 48 67 19 34 55 15 30 51 11 23 45 6 18 34 7 19 35 6 18 34 6 19 35 7 20 37 5 21 37 6 22 38 5 22 38 6 22 38 6 22 38 5 22 40 7 24 42 6 23 43 7 24 42 5 22 40 5 22 40 6 21 40 5 22 40 5 22 40 6 22 38 5 21 37 7 25 45 6 28 49 7 26 43 7 24 42 6 23 43 6 22 38 6 22 38 4 23 40 5 22 40 4 21 39 5 22 40 9 26 46 9 26 46 12 29 47 13 30 50 18 33 54 23 36 55 19 32 51 9 24 43 8 24 40 6 22 38 5 20 39 4 21 37 6 23 39 7 16 31 7 17 29 10 22 38 12 25 44 17 30 49 19 34 55 23 36 55 30 38 57 26 37 57 17 34 54 18 33 54 7 28 49 6 28 49 14 26 38 18 27 36 27 28 32 
65 66 48 62 60 45 62 56 44 59 56 41 53 52 32 53 55 34 63 67 44 62 66 43 62 66 39 62 66 43 57 59 37 56 58 36 52 54 32 49 51 29 51 48 31 52 46 34 52 49 34 53 45 32 52 46 32 48 44 32 51 45 33 29 42 59 30 43 60 35 48 65 37 50 67 44 56 72 48 57 74 48 57 74 46 55 70 44 52 71 37 48 68 38 49 69 35 46 66 33 46 65 21 36 57 20 37 57 13 30 50 9 27 47 8 24 40 7 20 37 7 20 36 6 18 34 8 20 36 6 23 41 7 22 41 9 26 46 9 26 46 14 31 51 14 29 50 15 30 51 15 30 51 18 30 52 19 32 51 15 30 49 11 28 46 9 26 44 7 25 47 7 25 45 6 22 38 5 22 38 5 21 37 7 20 37 6 19 36 4 21 37 4 22 36 4 21 39 6 22 38 6 19 36 6 19 36 6 22 38 6 22 38 9 26 44 10 27 45 11 28 48 11 28 46 15 32 50 18 33 54 18 33 54 16 31 50 16 31 52 19 32 51 17 30 49 12 27 46 11 28 46 8 23 42 5 24 39 8 21 38 9 21 37 12 25 44 19 32 51 24 35 55 34 42 63 31 42 64 28 40 62 29 41 63 16 34 58 15 33 53 13 29 44 14 28 41 18 28 40 
63 66 47 63 60 45 62 55 45 58 57 39 55 57 35 54 60 32 57 66 35 57 66 35 54 63 32 55 65 31 51 58 25 50 55 23 49 54 24 48 54 26 50 52 30 51 48 33 54 48 36 53 47 35 53 47 35 52 45 35 54 47 37 44 53 70 42 51 68 48 56 75 48 56 75 50 57 75 49 58 75 49 58 75 49 58 75 46 54 73 38 49 69 39 47 70 35 46 66 35 46 66 14 31 51 11 29 51 9 27 47 8 26 46 8 23 42 7 23 39 9 22 39 6 19 35 7 20 36 7 24 42 7 24 42 11 28 48 10 28 48 18 33 54 21 33 55 20 35 56 20 35 56 25 37 59 27 39 61 23 35 57 15 32 52 14 31 49 6 28 49 7 28 49 6 23 41 7 26 43 5 18 34 6 15 30 6 18 34 7 20 36 5 21 37 5 22 38 5 21 37 5 17 33 4 18 31 4 21 39 6 22 38 8 25 43 8 27 44 9 26 46 10 27 47 13 30 50 16 31 52 18 33 54 23 35 57 24 35 55 24 36 58 26 37 57 17 32 55 16 33 51 7 28 47 6 27 46 5 23 37 6 18 34 14 23 40 19 30 48 23 34 54 34 45 65 34 44 69 31 46 67 34 44 69 20 37 57 21 36 59 13 28 49 12 27 48 10 26 42 
57 63 35 55 61 33 53 57 34 53 59 33 53 60 29 51 61 27 55 67 31 55 67 31 50 61 27 50 61 27 49 56 23 48 55 24 50 52 28 51 50 30 52 49 34 51 47 36 51 48 33 52 45 35 52 48 36 50 46 35 50 46 35 27 39 55 27 39 55 38 49 67 41 52 72 44 52 73 43 54 72 43 54 72 44 52 71 40 51 71 32 45 64 32 45 64 28 40 62 29 42 61 14 31 51 12 30 50 7 28 47 10 27 47 9 24 43 8 24 40 8 21 38 9 21 37 5 21 37 7 23 39 8 24 40 10 27 45 9 26 44 14 31 51 13 31 53 14 32 52 16 33 53 16 33 51 17 32 53 17 32 53 12 30 50 12 30 50 9 27 47 9 27 47 7 24 42 8 23 42 7 20 37 6 19 35 7 16 31 6 15 32 5 18 34 6 22 38 6 22 38 7 19 35 7 20 36 6 22 38 5 22 38 11 24 43 8 25 43 12 28 43 15 29 42 18 31 40 20 33 39 20 32 44 18 33 52 16 33 53 20 35 54 20 35 54 13 29 54 12 30 52 8 29 48 6 27 46 7 26 43 8 23 42 14 25 43 17 28 46 22 33 51 43 51 72 41 52 72 38 49 69 38 49 69 32 45 64 31 44 61 26 41 60 27 40 59 29 42 59 
49 61 25 48 60 22 47 59 23 49 61 23 50 62 24 48 63 24 53 65 27 50 65 24 46 56 21 46 58 22 48 53 23 47 54 21 51 50 30 52 49 32 52 49 34 54 48 36 54 48 34 53 47 35 54 48 36 50 46 35 51 47 36 11 27 43 12 25 44 30 43 62 35 48 67 37 48 68 38 49 71 38 49 69 40 48 69 35 48 67 28 41 60 26 41 60 22 37 58 22 37 58 13 31 51 12 30 52 10 28 50 8 29 50 9 26 46 8 23 44 10 23 40 9 22 38 8 24 39 8 24 40 7 23 39 8 25 43 8 25 43 10 28 48 10 28 48 7 28 47 10 28 50 9 27 49 10 28 50 7 29 50 7 28 49 8 29 48 12 27 46 11 26 47 7 24 40 7 24 40 7 23 39 7 23 39 7 16 33 6 12 26 8 17 34 7 23 39 6 22 38 5 18 34 7 19 35 7 23 39 5 24 39 5 23 37 5 24 39 16 30 39 21 31 40 22 30 32 22 32 24 19 30 34 11 29 51 11 29 49 15 31 54 14 30 53 6 27 48 8 29 50 7 28 47 6 27 46 7 28 49 7 28 49 11 28 48 16 27 45 24 35 53 47 58 76 48 56 75 41 52 70 44 52 71 40 51 71 40 51 69 41 52 70 41 53 69 49 58 75 
50 64 28 50 62 24 50 62 26 50 62 26 51 63 25 51 63 23 54 66 28 52 66 30 48 59 25 49 59 24 48 52 27 48 52 25 48 47 29 48 45 30 53 47 33 55 46 37 53 47 35 55 47 36 54 48 36 53 46 36 51 47 36 13 29 45 14 27 44 25 40 59 31 44 63 32 45 64 33 46 65 35 46 66 34 47 66 31 43 65 25 40 61 22 39 59 21 36 57 19 36 56 13 31 51 12 30 52 11 29 49 12 29 49 12 29 47 14 27 44 12 25 42 7 23 39 7 22 41 9 26 44 9 26 44 9 26 44 8 27 44 11 29 49 11 29 49 10 31 50 11 29 49 12 28 51 11 29 49 9 30 51 12 30 50 12 30 52 14 29 50 13 30 50 9 26 42 10 27 45 9 25 41 8 24 40 8 17 34 8 14 30 7 16 33 7 24 40 7 23 39 8 19 37 6 22 38 11 25 36 12 24 36 12 26 35 13 27 36 22 34 34 24 34 35 23 34 30 22 31 26 19 32 38 14 31 51 14 32 52 15 31 54 15 32 52 10 28 50 10 28 50 7 28 47 9 27 49 10 28 48 9 27 47 10 27 45 15 26 44 20 31 49 42 51 68 43 52 69 43 54 72 44 55 73 36 49 66 38 49 67 40 51 69 41 52 70 42 53 71 
59 74 35 57 69 31 55 67 29 53 65 25 48 60 22 51 63 25 57 69 33 56 68 32 54 65 31 55 65 31 53 47 35 52 43 34 45 38 30 39 35 26 46 42 33 56 47 38 55 49 37 56 48 37 56 50 38 53 46 36 51 47 36 13 29 45 13 29 45 12 30 50 11 32 51 15 33 53 18 33 54 18 35 55 22 39 59 22 37 58 19 34 53 18 35 53 14 32 52 12 30 50 10 31 52 12 30 52 14 32 54 16 34 54 18 35 53 21 32 50 16 31 50 10 27 47 10 27 47 8 29 50 9 30 49 9 30 49 9 30 51 9 30 49 9 30 49 12 29 49 18 31 50 15 30 49 14 31 49 17 32 51 23 36 55 22 37 56 26 38 60 25 38 57 17 32 53 17 32 53 13 26 45 11 24 40 10 22 38 9 18 33 8 20 36 8 25 41 9 25 41 10 27 43 11 27 42 22 29 22 23 30 23 32 39 23 34 41 23 34 43 24 38 43 23 24 36 26 18 29 31 18 31 40 20 37 57 19 36 56 17 34 54 16 34 54 12 29 49 10 28 48 8 25 43 8 25 43 8 27 44 8 26 46 7 26 43 9 24 43 11 27 43 22 31 48 24 33 50 49 58 73 48 57 74 25 40 59 26 41 62 33 46 63 35 48 65 21 38 56 
58 72 36 57 69 31 53 65 27 53 65 27 48 63 24 48 63 24 56 70 34 55 69 33 57 67 33 56 66 32 50 48 35 50 46 34 42 40 28 38 33 27 48 41 33 56 50 38 57 49 38 56 48 37 56 48 37 54 47 37 51 47 36 13 29 45 12 28 44 13 31 51 13 31 53 15 33 53 17 33 56 18 35 55 20 37 57 21 36 57 20 35 56 19 34 55 13 31 51 13 32 49 11 32 51 11 32 51 17 35 55 20 37 55 21 36 55 23 36 53 21 34 53 15 30 51 15 32 50 14 32 54 14 32 52 11 32 51 11 32 51 11 32 51 13 31 51 15 32 52 17 32 51 15 32 50 16 31 50 17 32 51 23 36 55 23 36 55 24 37 56 23 38 57 16 33 53 15 30 51 13 26 45 9 25 41 10 22 38 8 20 36 8 20 36 10 23 40 8 24 40 9 26 46 10 26 41 24 31 23 25 30 24 31 40 21 33 42 23 35 44 23 36 45 24 27 37 26 20 32 30 20 33 41 20 35 54 18 35 53 16 33 53 17 33 58 12 30 50 12 30 50 9 26 46 7 26 43 8 27 44 7 25 45 10 26 42 9 24 43 12 25 41 21 30 47 25 34 51 45 53 72 45 54 71 26 39 58 25 40 59 30 46 62 35 48 67 20 35 54 
59 73 37 56 68 32 50 62 24 50 60 23 50 60 25 50 62 26 61 73 35 58 73 34 60 75 36 60 75 36 44 52 29 43 48 26 38 39 25 34 31 24 44 40 31 57 48 39 56 49 39 57 50 40 56 49 39 52 48 37 55 48 38 14 26 42 14 27 43 14 30 46 13 32 49 15 32 50 16 35 52 15 34 51 12 33 52 14 32 52 13 31 51 13 31 51 12 33 52 11 32 51 16 34 54 15 33 53 31 44 63 36 47 67 40 48 69 43 51 72 43 51 72 45 53 72 43 54 74 42 50 71 42 50 71 32 44 66 32 44 66 26 41 60 26 41 60 26 39 58 25 37 59 19 34 53 14 31 49 15 32 50 16 33 51 15 32 52 8 30 51 12 30 52 9 30 51 9 30 51 8 29 48 11 29 51 11 24 41 8 20 36 8 20 36 10 22 38 10 22 38 8 24 40 13 25 39 32 35 26 29 35 25 31 38 22 31 38 20 38 47 26 40 50 26 36 45 26 30 38 23 24 35 29 12 29 39 12 28 41 8 29 50 9 30 51 13 31 53 11 32 51 8 29 50 10 31 50 10 27 45 9 26 44 9 26 44 9 24 43 9 24 43 10 23 39 11 22 40 17 25 44 17 25 44 13 28 47 16 29 46 19 35 51 22 37 56 15 30 49 
59 73 37 56 68 30 51 63 27 50 62 26 50 62 26 50 62 26 59 74 35 60 75 36 61 75 39 62 76 40 48 53 30 45 50 28 39 39 27 37 32 26 46 42 33 57 50 40 58 50 39 56 50 38 57 51 39 55 48 38 54 50 39 15 27 43 15 27 41 13 30 48 14 33 50 15 32 50 17 36 53 16 34 54 13 34 53 13 34 53 12 33 52 14 33 50 14 32 52 12 33 52 16 34 54 16 34 54 31 44 63 36 49 68 39 50 70 43 51 72 45 53 76 46 54 73 45 53 72 42 50 71 42 50 73 32 44 66 33 46 65 27 42 63 26 41 60 25 40 59 23 38 59 20 35 56 16 31 50 17 32 51 16 33 51 15 32 52 10 31 50 9 30 49 10 31 50 10 31 50 11 29 49 11 29 49 9 25 41 9 21 37 9 21 37 9 21 33 10 22 38 8 23 42 12 25 41 30 36 26 32 35 26 31 40 23 31 38 20 38 47 26 41 51 26 36 45 26 32 41 24 24 35 29 13 29 42 13 29 42 11 29 49 12 30 50 14 32 52 12 33 54 9 30 49 9 30 49 11 28 48 10 27 45 10 25 44 9 25 41 9 25 41 10 23 40 11 22 40 19 27 46 19 27 46 13 29 45 16 29 46 22 35 52 24 37 56 14 29 48 
54 66 30 51 56 26 48 46 25 48 48 24 47 51 24 48 55 24 52 64 26 52 64 26 58 72 36 59 73 37 57 71 35 58 73 34 53 55 34 49 45 34 53 49 38 58 52 40 58 52 40 57 51 39 58 52 40 56 49 39 55 48 38 17 26 41 16 25 40 15 28 47 14 29 48 14 29 48 13 29 45 12 29 47 14 32 52 14 32 52 15 33 53 16 34 54 14 32 54 13 34 53 22 39 59 23 40 58 36 47 67 42 50 69 39 50 68 36 47 65 34 45 63 31 42 62 31 42 60 30 43 62 29 42 61 29 42 61 27 42 61 23 38 59 22 39 59 15 33 53 12 30 50 14 32 52 17 35 55 17 36 53 20 37 57 19 36 56 10 31 50 9 30 49 10 28 48 12 30 50 10 27 45 11 26 45 10 26 42 10 26 42 11 22 40 10 17 35 12 20 31 18 27 26 19 28 25 35 42 26 35 42 24 32 39 21 32 39 21 34 41 23 34 43 24 34 41 23 33 40 22 32 38 24 29 35 21 29 35 21 22 28 28 21 27 25 18 31 47 19 32 48 12 30 50 9 30 49 9 30 49 10 31 50 12 30 52 11 29 49 9 27 47 11 23 39 10 22 38 10 22 38 11 23 39 11 23 37 11 23 37 10 22 36 13 22 37 13 22 37 
56 68 32 51 58 27 49 47 26 47 49 25 48 52 25 50 55 25 55 65 28 53 65 29 61 73 37 58 72 37 60 72 36 58 72 36 53 56 37 50 46 35 56 49 39 58 52 40 56 52 40 56 52 41 58 52 40 57 50 40 56 49 39 17 27 39 16 25 40 14 30 46 14 31 47 15 31 47 14 30 46 14 29 48 14 35 54 16 33 53 17 35 55 16 34 54 15 33 53 16 34 54 23 40 60 25 40 59 37 48 68 40 51 69 41 49 68 37 48 66 35 46 64 31 42 62 32 43 63 30 43 62 30 43 62 30 43 62 29 42 61 23 38 59 22 39 57 17 34 54 12 30 50 15 34 51 17 35 55 17 36 53 20 38 58 20 37 57 11 32 51 10 31 50 12 30 50 13 31 51 11 26 45 11 27 43 11 27 43 11 27 43 11 24 41 11 18 36 13 21 32 20 26 26 20 29 26 36 43 27 38 42 27 32 39 21 35 39 22 34 41 23 34 43 22 34 43 24 35 42 24 32 41 22 31 38 22 30 36 22 23 29 29 21 30 29 20 34 47 20 33 49 11 32 49 12 30 50 10 31 50 10 31 52 12 30 50 11 30 47 12 29 47 13 22 37 13 22 39 13 22 37 11 23 39 10 22 38 13 22 37 14 21 37 14 23 38 13 22 39 
50 54 27 50 45 26 48 35 27 47 37 27 48 40 29 48 42 28 53 60 29 53 60 29 55 67 31 55 67 31 59 71 35 61 73 37 55 60 37 56 55 37 56 54 39 59 53 41 59 52 42 57 53 41 57 53 41 57 51 39 54 50 39 18 25 41 17 24 40 15 27 43 15 29 42 16 28 44 14 27 43 19 32 48 26 41 60 29 44 65 39 52 69 39 52 69 37 50 69 38 51 70 38 50 72 37 50 69 43 54 72 45 56 74 47 55 74 43 54 74 41 49 68 33 44 64 33 44 64 32 45 62 32 43 61 42 50 71 41 52 70 45 53 72 43 56 73 43 54 72 42 55 72 41 54 70 41 54 70 34 50 66 17 35 55 16 34 56 13 31 53 13 31 53 11 28 44 12 29 47 11 26 45 11 27 43 12 25 42 13 24 42 15 25 37 23 27 36 26 31 35 39 41 36 36 41 34 37 41 26 38 42 28 33 42 23 34 42 21 41 51 27 43 53 29 44 54 30 43 53 29 40 48 25 31 38 22 32 36 21 31 39 24 31 39 24 30 40 32 32 39 32 19 34 41 16 30 41 15 32 48 14 33 50 13 31 51 13 31 51 13 30 48 11 27 43 14 25 43 14 22 41 12 24 40 11 24 40 14 23 40 13 26 43 14 27 43 14 27 43 
51 51 27 50 43 27 48 33 28 49 34 31 50 37 31 48 40 29 54 58 33 53 59 31 52 66 30 54 66 30 61 73 35 60 75 36 60 64 39 60 59 39 59 56 41 60 54 42 60 54 42 60 54 42 60 54 42 55 51 40 55 51 40 18 26 39 18 26 39 17 26 41 17 26 41 16 25 42 16 28 44 21 34 50 32 45 64 36 47 67 48 55 74 48 55 74 44 55 75 43 56 75 41 54 73 41 53 75 48 56 75 50 57 76 50 57 76 48 56 75 42 53 73 36 47 65 35 46 66 36 44 63 34 45 65 48 56 75 46 54 73 50 59 76 52 60 79 52 61 78 53 62 79 52 61 78 48 60 76 40 53 70 17 35 55 16 34 54 15 34 51 11 32 51 11 28 44 13 29 45 12 27 46 13 29 45 12 25 41 12 24 40 18 28 40 28 31 38 31 35 38 47 46 41 46 46 38 39 41 28 39 41 30 35 42 24 36 41 21 43 53 29 47 57 32 47 57 32 47 57 32 41 49 28 31 38 22 32 39 23 36 43 25 36 43 25 35 41 27 34 40 26 19 32 38 18 32 41 15 33 47 15 33 53 15 33 53 14 33 50 15 32 52 13 29 45 15 28 45 11 24 40 15 24 41 16 23 41 14 26 42 16 29 46 14 30 46 15 31 46 
54 44 32 50 40 30 49 34 29 50 35 30 50 37 31 49 39 30 58 55 38 58 56 41 57 59 35 56 60 35 56 67 33 56 66 32 55 61 35 56 58 36 58 56 41 61 52 43 60 54 42 61 53 42 61 55 43 57 53 42 58 51 41 17 23 37 20 23 38 19 26 42 18 27 42 17 29 45 18 31 47 22 35 52 32 43 63 36 48 64 50 57 76 49 57 76 51 59 78 48 59 77 51 59 78 51 59 78 51 59 78 53 62 79 50 58 77 46 54 73 44 55 73 41 52 70 40 51 69 45 53 72 45 53 72 50 59 74 51 59 78 55 62 80 55 64 79 52 61 76 51 58 77 41 52 72 33 46 65 31 44 63 18 36 56 17 36 53 16 34 54 15 33 53 14 33 50 14 33 50 14 31 49 14 29 48 14 27 44 13 25 39 17 27 37 26 27 31 34 36 35 55 54 49 53 54 48 38 42 28 38 42 27 38 46 25 37 45 24 43 52 31 43 56 30 43 51 28 40 48 27 36 45 26 32 39 23 31 40 21 35 42 24 34 41 23 35 42 26 36 43 27 25 36 32 22 34 32 16 34 46 14 35 54 14 32 52 17 32 51 15 33 55 15 34 51 15 32 50 15 28 44 16 29 45 17 29 45 16 29 45 16 32 47 17 33 49 17 34 50 
57 42 35 54 39 32 52 38 29 51 38 30 49 38 32 51 40 34 62 56 44 62 55 45 60 57 40 59 58 40 56 63 32 52 63 29 56 62 34 54 59 36 58 55 38 63 54 45 62 54 43 61 55 43 62 54 43 59 52 42 58 51 41 20 23 38 22 24 39 19 26 42 19 28 45 18 31 48 18 34 50 24 37 54 32 43 61 36 47 65 50 58 77 50 58 79 52 60 79 52 60 79 55 64 81 56 65 82 55 64 81 52 61 78 50 59 76 47 55 74 45 56 74 43 55 71 46 55 72 53 61 80 52 61 78 52 61 78 50 62 78 56 63 81 54 66 80 53 60 78 51 58 77 36 49 66 23 40 58 22 39 59 19 36 56 19 35 58 17 35 55 16 34 54 13 34 55 14 35 56 14 33 50 14 33 50 15 28 45 14 26 40 19 26 36 28 26 29 34 34 36 61 60 56 59 58 53 38 42 27 38 42 27 38 47 28 40 48 27 44 54 30 46 56 31 41 49 28 36 43 27 34 41 23 33 40 24 33 42 23 36 40 23 34 41 23 37 41 24 35 42 24 29 36 29 26 35 30 18 35 43 13 34 53 15 33 53 16 33 51 16 32 55 16 33 53 17 34 54 17 30 46 17 30 47 16 32 47 17 33 49 18 34 50 19 35 51 21 36 57 
58 43 36 55 40 33 52 37 30 51 38 32 49 40 33 51 42 35 62 56 44 63 55 44 60 57 40 59 58 40 52 55 34 52 56 33 51 54 33 50 53 32 57 54 37 62 54 43 62 53 44 63 55 44 63 55 44 61 54 44 60 53 43 21 24 39 22 26 38 20 26 42 18 25 41 18 27 42 18 30 44 21 33 49 28 41 58 34 45 63 51 59 78 49 57 78 51 59 78 50 58 77 43 56 73 43 56 73 45 56 74 45 56 74 49 58 75 50 58 77 48 59 77 49 58 75 49 57 76 54 63 80 52 63 81 54 62 81 54 63 80 56 65 82 56 65 82 53 60 78 50 58 77 38 49 67 27 40 56 27 38 56 21 38 56 20 37 53 18 36 56 17 35 55 16 37 56 14 35 54 15 32 50 14 33 50 15 28 44 15 27 41 19 26 34 28 27 25 34 32 33 51 52 44 51 53 42 40 47 29 40 47 29 39 48 27 40 48 27 44 54 30 43 55 31 43 51 28 42 50 29 39 47 26 39 43 26 36 43 25 37 41 24 34 41 25 49 52 43 50 52 41 31 40 37 27 37 36 20 36 49 16 34 54 14 35 54 14 33 50 16 35 52 15 34 51 16 35 50 17 33 48 16 32 48 17 33 49 18 34 50 19 35 51 20 36 52 21 38 56 
59 42 35 53 40 34 50 37 31 51 38 32 51 41 32 53 43 34 63 57 45 62 58 46 63 57 45 63 56 46 47 44 37 48 43 37 46 43 34 46 44 32 54 50 39 63 56 46 62 55 45 63 57 45 62 55 45 61 55 43 59 55 44 21 25 37 23 25 38 20 22 37 20 21 39 22 21 37 20 21 39 19 26 42 20 36 52 28 41 60 50 58 77 47 58 76 47 55 74 48 56 75 27 42 61 25 42 60 32 47 66 33 49 65 43 54 72 51 62 80 54 62 81 55 64 81 55 63 82 56 65 82 54 66 82 57 66 81 55 64 81 55 64 81 56 63 79 54 61 80 52 59 77 42 52 64 32 42 51 32 42 52 22 38 51 22 38 53 16 37 56 15 38 56 17 35 55 17 35 55 16 33 51 16 33 51 15 27 41 16 26 38 22 27 31 29 30 24 31 33 22 36 43 25 36 43 27 46 54 31 46 54 31 42 52 28 41 50 29 42 51 30 43 53 29 46 56 31 50 59 38 46 54 31 43 47 30 40 48 25 34 37 26 33 37 22 72 71 69 71 70 66 34 43 50 31 40 49 20 36 49 15 36 55 18 35 53 17 34 52 18 35 53 19 32 49 16 32 47 18 34 50 20 33 50 19 36 54 20 35 54 21 38 56 21 39 59 21 40 57 
58 43 36 55 42 36 52 39 33 53 40 34 53 42 36 54 44 35 66 58 47 65 58 48 64 57 47 64 57 47 50 45 39 48 43 37 48 44 35 47 44 35 54 50 41 64 57 47 63 57 45 61 57 45 62 55 45 60 56 45 62 55 47 22 28 42 22 28 42 22 25 40 21 24 39 22 24 39 22 24 39 21 27 43 21 33 49 26 38 54 42 49 67 41 50 65 41 52 70 40 51 69 25 40 59 24 41 59 33 46 63 36 49 66 43 54 72 53 61 80 53 61 80 56 65 82 55 64 81 54 66 80 56 65 80 58 67 84 56 65 82 55 63 76 54 64 76 53 59 73 53 57 69 46 50 59 37 42 48 34 43 48 34 43 50 32 42 51 21 40 55 23 39 54 17 35 55 17 36 53 16 33 49 17 33 49 20 30 40 22 29 35 27 31 32 32 35 26 35 37 24 38 45 27 40 47 29 46 54 31 46 54 31 44 52 31 41 50 29 42 50 27 41 48 32 45 53 32 47 55 34 45 52 34 46 50 35 44 51 35 36 40 25 34 40 26 68 67 65 69 68 64 46 51 55 45 50 56 29 43 54 18 35 51 18 35 51 18 35 53 17 36 53 20 33 50 18 34 49 17 34 52 22 35 52 21 37 53 20 36 52 22 39 57 21 39 59 26 43 61 
59 46 38 58 43 36 55 40 33 55 42 36 53 42 36 53 42 36 65 58 48 66 59 49 65 58 48 65 58 48 50 47 40 49 46 37 49 44 38 49 45 36 55 51 40 65 58 48 64 58 46 65 58 48 64 58 46 61 57 48 61 57 48 24 37 53 23 39 52 25 37 53 23 37 50 22 31 46 24 31 47 22 28 44 23 22 38 22 21 37 20 22 37 21 23 36 20 36 51 20 36 52 22 38 54 24 37 54 36 45 62 37 49 63 45 54 71 48 60 76 52 61 78 56 65 82 56 65 82 57 66 83 58 67 84 57 64 82 56 65 82 51 60 69 51 58 68 53 53 51 55 52 43 54 47 39 51 47 36 54 47 37 58 52 40 55 51 40 39 44 47 39 44 48 18 37 52 18 37 54 20 34 47 21 34 43 30 39 34 36 42 28 38 45 29 40 48 27 42 50 29 47 57 33 47 55 34 44 53 32 44 53 32 42 51 32 40 49 30 38 42 25 37 41 27 38 42 28 40 43 32 48 49 41 62 58 55 60 59 55 43 44 38 43 44 36 64 59 56 64 60 57 83 79 78 85 81 80 46 53 59 25 35 45 20 36 52 20 39 54 20 37 53 19 35 51 19 34 53 19 35 51 22 35 51 21 37 52 21 37 52 23 40 58 24 41 59 37 53 69 
61 46 39 57 42 35 59 42 35 55 42 34 54 43 37 55 46 37 65 61 50 67 61 49 66 58 47 66 59 49 55 50 44 52 48 39 51 48 39 52 48 39 59 52 42 65 58 48 66 58 47 65 58 48 65 59 47 64 57 47 64 57 49 28 40 52 28 40 54 26 38 54 24 38 51 26 35 50 25 32 48 23 29 43 23 25 40 22 24 39 22 24 39 22 25 40 23 36 55 21 36 55 25 37 53 24 37 53 33 45 61 38 47 64 41 52 70 46 59 76 49 60 78 54 66 82 58 65 83 56 65 80 56 65 80 56 64 77 57 64 80 54 58 67 53 57 66 54 53 51 55 51 42 53 49 40 51 47 38 53 49 38 58 51 41 58 51 43 41 46 49 41 45 48 24 40 55 24 40 53 21 35 46 20 33 42 29 38 35 35 41 29 37 43 29 40 47 31 40 49 32 46 56 32 46 54 33 44 52 31 41 53 33 42 49 31 42 49 33 42 46 31 39 43 29 42 45 34 44 47 36 50 51 43 64 60 57 63 60 55 46 47 39 46 47 39 64 59 55 64 59 55 80 79 77 82 81 79 46 53 59 25 38 47 24 38 51 21 38 56 20 37 55 22 35 52 22 35 52 21 37 52 22 38 51 25 38 55 22 38 53 25 41 57 27 43 59 41 54 70 
60 45 38 57 44 36 55 40 35 57 44 36 61 48 40 61 48 39 75 66 51 75 66 51 66 62 50 69 59 49 69 63 51 68 61 51 69 60 51 68 58 49 67 61 49 67 59 48 66 60 48 66 60 48 66 59 49 67 59 48 68 60 49 64 48 49 64 48 49 37 43 55 28 42 53 28 42 55 29 41 55 25 39 52 23 39 55 23 36 52 23 32 47 23 32 47 24 33 48 22 34 50 24 31 47 23 30 46 23 35 51 23 36 53 23 38 57 22 43 62 33 48 67 48 56 75 47 60 77 50 57 73 51 59 72 58 54 45 59 55 46 52 48 39 52 50 38 51 47 36 54 47 39 59 52 42 64 56 45 63 54 45 55 48 38 53 49 38 51 46 40 49 45 36 49 48 44 49 50 45 29 39 49 20 36 51 26 37 39 28 37 34 31 38 31 36 39 28 36 40 26 39 40 32 39 40 32 37 38 30 37 38 30 38 39 31 39 40 32 53 49 46 58 54 51 63 58 55 68 63 60 68 63 60 69 64 61 68 63 60 61 58 53 60 57 52 58 53 50 57 54 49 79 73 73 80 76 75 45 52 58 24 37 46 21 39 51 20 41 60 22 39 57 21 37 53 22 38 54 22 38 53 22 38 53 25 38 54 25 38 54 37 45 56 42 46 58 54 60 82 
62 48 39 58 45 39 54 41 33 57 44 36 60 47 39 63 50 41 76 67 50 75 66 51 69 60 51 67 61 49 69 63 51 70 62 51 69 63 51 68 62 50 67 61 49 67 60 50 67 61 49 67 61 49 67 60 52 68 59 50 67 61 49 65 49 50 63 47 48 40 44 56 30 42 56 28 42 55 29 41 57 28 42 55 25 38 55 25 37 51 25 32 48 24 33 48 23 35 49 23 35 49 24 31 47 24 31 47 26 34 53 23 36 53 25 40 59 26 43 63 34 49 68 48 59 77 49 57 76 51 57 71 51 59 72 60 56 47 59 55 46 54 50 41 54 47 37 54 50 41 55 48 40 61 52 43 66 57 48 62 55 45 55 51 40 57 50 42 52 48 37 49 46 41 49 50 45 49 49 47 29 39 49 20 36 49 28 36 39 29 38 35 29 39 31 37 40 29 37 40 29 38 41 32 39 40 32 38 39 31 39 41 30 39 40 32 38 39 31 55 52 47 60 57 52 64 59 56 68 63 60 70 65 62 68 64 61 69 64 61 63 58 54 63 58 54 57 54 49 58 54 51 75 74 70 80 76 75 45 52 60 27 37 49 23 39 55 22 40 60 23 40 58 22 38 54 22 38 54 24 37 53 25 38 55 26 40 53 26 39 55 38 46 57 43 47 59 53 61 80 
61 46 39 58 45 37 58 43 38 58 43 36 58 45 36 60 46 37 71 58 39 72 56 40 83 72 52 81 73 54 74 66 53 73 65 52 68 62 50 66 60 48 65 61 50 69 60 53 69 63 51 68 62 50 68 62 50 67 61 49 68 61 51 95 78 58 95 78 60 80 66 55 75 62 56 61 51 50 52 46 48 45 45 55 26 43 61 27 44 62 26 39 55 26 39 56 25 38 55 26 39 56 25 38 55 25 38 54 26 35 50 23 35 49 27 36 51 31 37 53 40 46 62 53 60 78 53 60 70 59 56 49 59 56 49 62 55 45 61 54 46 70 60 50 74 61 52 74 64 54 74 64 52 76 64 52 74 64 54 76 66 54 77 65 51 73 63 51 74 60 49 72 60 48 58 51 41 58 51 43 47 47 45 44 46 45 34 37 44 26 35 42 32 35 40 41 40 35 41 42 37 44 44 36 43 42 37 38 39 34 38 37 33 52 48 45 53 49 46 57 53 52 60 55 52 60 56 53 62 56 56 63 57 57 61 57 54 62 57 54 65 60 57 65 61 58 63 59 56 64 59 56 81 75 75 82 78 77 46 53 61 24 38 51 23 41 55 25 42 60 25 41 57 23 38 57 23 39 54 28 41 57 27 40 56 36 38 51 35 39 51 43 46 61 43 49 61 48 54 80 
62 48 39 61 46 39 62 45 38 59 44 37 58 45 37 60 47 38 70 57 38 71 58 39 85 74 54 86 73 54 75 67 56 74 66 53 69 63 51 65 61 52 66 62 50 70 64 52 66 62 51 69 63 51 66 62 51 70 64 52 69 62 52 102 81 62 100 82 60 87 69 57 84 64 53 67 53 50 57 47 46 47 47 55 28 45 63 28 45 61 26 42 58 27 40 56 27 40 57 26 39 56 23 39 55 26 39 56 27 36 51 26 33 49 30 36 52 33 36 51 40 46 60 55 61 75 55 59 71 60 56 45 60 56 45 63 56 46 62 55 45 75 63 51 75 65 53 76 66 54 77 67 55 79 69 57 78 68 56 79 67 55 78 66 54 76 67 52 73 63 51 73 63 51 58 54 43 58 54 43 49 50 44 45 47 44 33 38 42 26 35 44 33 36 43 43 42 38 43 42 38 46 45 40 45 44 39 39 38 36 39 38 36 55 51 48 56 52 49 59 55 52 60 56 53 61 56 53 61 57 54 60 59 55 61 55 55 63 59 56 67 61 61 67 61 61 66 61 58 65 61 60 79 78 76 81 80 78 46 55 62 25 39 52 25 41 56 25 42 58 25 42 58 26 39 56 26 39 56 31 43 57 30 43 59 37 39 51 37 39 52 45 49 61 47 51 63 49 55 81 
60 47 39 60 45 38 59 46 38 57 44 38 60 47 38 61 48 40 71 58 39 70 57 38 86 75 55 86 75 55 70 63 47 68 60 47 58 54 43 53 48 42 62 55 47 70 63 53 70 63 53 68 64 52 70 64 52 70 64 52 71 64 54 101 85 70 101 85 70 89 73 60 86 69 59 75 62 53 73 60 51 73 64 57 80 71 64 74 66 63 56 51 58 53 50 57 30 46 62 32 45 64 29 42 58 28 41 58 27 40 56 27 40 56 36 43 53 45 46 50 53 52 50 70 63 57 68 63 57 74 68 56 74 66 55 74 64 52 74 64 54 78 68 56 77 67 55 76 68 55 78 68 56 76 66 54 76 66 54 73 65 54 63 56 46 63 57 45 73 63 51 73 63 51 74 64 52 73 63 51 70 61 52 69 60 51 51 48 43 39 39 39 42 40 41 44 45 40 45 44 39 45 44 39 45 44 39 41 37 36 39 37 38 60 54 54 62 58 55 61 57 54 61 57 54 60 56 53 61 57 54 61 57 54 63 59 58 64 59 56 70 62 60 68 63 60 68 63 60 68 63 60 78 77 75 81 80 78 43 56 65 24 40 56 25 41 57 27 42 61 28 44 60 30 42 58 33 40 58 33 36 51 33 36 53 44 46 59 42 46 58 46 51 73 49 53 78 50 55 85 
62 49 41 59 46 38 57 47 38 59 46 40 61 48 40 60 50 40 71 58 41 71 58 39 87 76 56 88 76 54 68 60 47 65 59 47 56 52 43 50 47 42 59 55 46 71 64 54 71 65 53 72 63 54 70 64 52 71 64 54 69 65 56 103 87 74 102 85 75 89 75 62 85 71 58 81 67 54 78 64 53 87 71 58 97 79 65 89 75 66 65 54 58 61 54 61 32 47 66 31 48 64 29 45 60 28 41 57 28 41 57 28 41 57 38 45 53 47 49 48 57 56 51 71 63 52 73 65 54 80 71 56 80 70 58 81 69 57 79 69 57 80 67 58 79 69 59 76 70 56 78 68 56 77 67 57 76 66 56 73 63 53 59 52 42 61 54 46 73 63 53 72 62 52 78 68 56 79 69 59 76 67 52 75 65 53 59 52 46 41 40 35 45 42 37 48 44 41 46 45 40 45 44 39 45 44 42 40 39 37 40 39 37 63 58 55 65 60 57 63 58 55 62 58 55 62 58 55 62 58 57 62 58 57 63 59 58 66 61 58 69 65 62 69 64 61 70 65 62 70 65 62 79 78 76 78 80 77 46 56 66 24 41 59 24 41 57 27 44 62 28 44 60 31 44 60 32 44 58 34 36 49 33 35 48 46 50 62 43 49 61 49 53 78 50 55 84 52 58 84 
74 62 48 74 60 47 72 60 46 73 61 47 75 63 47 76 64 48 82 70 48 81 69 47 87 75 51 86 76 51 68 60 47 65 57 46 56 52 43 52 49 42 61 58 49 72 64 53 72 65 57 72 65 55 72 65 55 73 66 56 72 65 55 103 81 70 100 80 69 91 74 64 85 73 61 78 68 58 79 66 58 85 71 58 99 82 66 96 78 64 84 71 65 82 71 65 67 67 69 64 68 71 51 51 61 48 48 60 40 47 57 38 47 56 53 54 56 65 62 55 69 65 54 80 68 56 77 69 56 81 72 57 80 70 58 81 71 59 80 70 58 81 71 59 81 69 57 80 70 58 80 70 58 74 66 55 69 61 50 64 57 47 53 50 41 53 50 41 61 57 48 61 54 44 75 65 55 76 66 56 76 66 56 77 67 57 57 52 46 46 43 38 47 44 39 48 47 42 46 45 41 48 47 42 47 46 42 46 42 43 45 41 40 63 59 56 65 60 57 65 59 59 64 60 57 64 58 58 63 58 55 63 59 58 67 61 61 69 64 61 72 67 64 72 67 64 72 67 64 75 66 67 78 78 78 81 80 78 46 54 65 28 41 58 27 43 58 30 43 60 31 45 58 36 43 62 36 43 61 39 38 56 38 39 57 48 53 73 48 53 73 49 53 80 49 53 82 53 60 86 
87 76 54 88 76 54 87 75 53 88 76 54 90 78 56 90 77 58 93 81 59 96 81 60 86 74 50 88 73 50 67 60 44 64 58 44 56 52 43 53 50 43 63 59 50 72 65 55 74 67 57 73 66 56 71 67 56 73 67 55 74 67 57 104 78 65 103 77 64 88 75 66 84 75 66 79 70 61 76 67 58 86 74 62 101 84 66 103 84 67 103 86 70 100 87 71 98 86 74 98 84 73 70 60 59 67 55 59 53 52 58 49 53 56 66 63 58 82 72 62 84 72 60 87 75 61 86 74 62 84 72 60 81 71 59 81 72 57 83 71 59 80 70 58 81 71 59 81 71 59 80 70 58 71 63 52 60 56 45 57 52 46 50 47 40 50 47 40 50 47 40 50 45 39 73 65 54 72 64 51 77 67 55 79 69 57 61 54 48 47 43 40 48 45 40 49 49 41 48 47 43 49 48 46 50 49 47 47 46 44 48 44 43 63 57 57 63 59 58 65 61 58 66 62 59 64 60 57 65 59 59 65 59 59 69 64 61 70 65 61 78 70 68 76 71 67 74 69 66 74 69 66 78 77 75 80 78 79 46 53 63 26 39 55 30 43 59 31 44 60 34 46 62 42 45 64 40 45 64 41 42 60 40 43 62 52 56 83 50 57 85 49 52 83 48 51 82 54 60 86 
90 78 56 90 78 54 88 76 54 91 79 57 91 79 57 92 80 56 91 79 55 91 79 57 86 74 48 88 73 50 72 63 48 68 60 47 66 59 51 63 58 52 67 63 54 75 69 57 75 69 57 74 67 57 74 67 57 75 69 57 74 67 57 104 86 72 104 85 71 90 77 68 84 75 68 80 71 64 75 68 60 86 74 62 103 84 67 103 84 67 103 88 67 104 89 70 98 88 76 98 86 74 83 72 70 80 72 69 67 63 60 62 63 58 70 65 59 78 70 57 80 70 60 83 73 61 83 73 61 82 72 60 82 72 60 82 72 60 82 72 60 82 72 60 82 72 62 82 72 60 81 71 59 75 67 56 69 61 50 68 61 51 63 56 48 60 56 47 63 56 48 63 56 48 76 66 56 76 66 56 74 66 55 75 65 55 56 51 45 45 44 40 47 46 41 50 49 45 51 50 46 51 50 46 50 49 47 46 46 44 50 46 45 63 58 55 64 60 57 65 61 58 68 63 60 67 62 59 66 62 59 67 63 60 71 68 63 72 67 63 76 71 68 75 70 67 74 69 66 75 71 68 82 81 79 83 82 80 49 56 66 28 41 57 30 43 59 35 48 64 37 49 65 43 48 70 45 47 68 47 49 70 48 49 70 51 57 83 51 58 84 52 56 83 51 56 85 61 67 91 
96 80 55 96 82 56 97 83 56 96 82 56 96 82 56 95 81 55 90 76 50 87 76 48 85 73 51 86 74 52 79 70 53 78 71 55 80 70 61 79 70 61 77 70 60 76 69 59 72 68 56 75 68 58 74 67 57 78 69 60 75 68 58 106 98 85 106 98 85 90 81 72 84 75 68 78 69 62 73 64 57 85 73 61 103 85 65 103 87 64 104 89 66 105 88 68 102 93 78 104 92 76 104 94 82 105 97 84 89 83 71 84 78 66 77 70 60 72 65 55 74 68 56 78 70 57 79 71 60 86 74 62 85 73 61 85 75 63 84 74 62 82 72 60 82 72 60 83 73 61 83 73 61 82 72 60 82 72 60 84 72 60 80 70 58 79 69 57 82 73 58 82 72 60 84 72 60 82 72 60 73 65 52 69 60 53 53 50 45 43 43 41 47 45 46 55 54 52 53 52 48 53 49 48 54 50 49 52 48 47 52 48 47 63 59 56 65 61 60 65 61 58 65 62 57 66 62 59 70 66 63 71 65 65 73 69 66 74 70 67 74 69 66 73 68 65 75 71 68 75 71 68 88 84 81 87 86 84 52 59 67 29 43 56 35 48 64 42 53 71 41 54 71 46 50 79 47 51 78 54 59 81 54 59 81 50 55 84 51 55 82 55 61 85 58 64 86 70 77 96 
96 82 56 97 82 59 97 83 57 97 83 57 96 82 56 98 84 58 89 75 49 91 77 51 85 73 49 86 74 52 80 71 54 79 70 55 80 70 60 81 71 62 77 70 60 75 68 58 75 68 58 75 71 62 76 70 58 76 69 59 76 69 59 105 97 84 105 99 87 90 83 75 84 75 66 78 71 63 74 67 59 85 73 61 104 86 66 105 89 66 105 88 68 105 88 68 104 92 76 104 92 76 104 96 83 103 95 82 90 81 72 85 77 66 78 72 58 74 65 56 74 67 57 75 71 59 79 71 60 84 74 64 83 73 61 84 76 63 85 75 63 84 74 64 84 74 62 84 75 60 83 73 61 83 74 65 83 73 61 83 73 61 80 70 58 80 72 59 83 73 63 83 71 59 84 72 60 84 72 60 70 63 53 67 60 50 50 51 43 45 46 41 49 48 44 55 54 50 55 54 52 55 51 50 56 52 49 54 50 49 53 49 48 64 60 59 66 62 59 65 61 60 65 61 60 66 62 61 70 66 63 70 66 63 73 69 66 76 71 68 76 68 66 73 69 66 75 71 68 75 71 70 86 85 83 88 87 85 54 61 69 34 46 58 39 51 65 47 59 73 46 57 75 50 54 83 49 53 80 53 59 83 54 60 82 53 57 86 56 57 85 60 65 87 59 65 87 70 78 99 
98 84 57 98 84 58 98 84 58 98 84 58 99 85 59 98 84 58 91 76 53 92 77 54 85 73 51 87 75 51 83 71 55 80 71 56 78 70 59 77 70 60 76 69 61 77 70 60 77 70 60 79 72 62 78 71 61 68 65 58 69 64 58 93 86 76 93 86 76 87 80 74 81 78 73 74 74 66 73 68 64 86 79 69 107 94 78 105 92 75 106 85 66 108 85 67 107 87 63 105 87 65 105 92 73 106 93 74 89 81 68 84 76 65 78 71 61 73 66 56 74 67 57 75 69 57 76 67 58 82 72 60 80 72 59 81 71 59 81 71 61 88 76 64 88 79 64 86 76 64 85 75 63 84 76 63 84 74 62 82 72 60 86 74 62 83 73 63 84 74 62 84 74 62 85 72 63 85 73 61 61 57 46 54 51 44 54 56 43 52 59 43 51 58 42 53 55 44 52 53 47 57 51 51 53 52 50 55 51 50 53 52 48 65 61 58 66 62 59 67 63 60 67 63 60 70 66 63 74 70 67 72 68 65 72 68 65 74 69 65 72 68 67 72 68 65 75 70 67 75 70 67 89 85 82 91 86 83 67 68 72 53 58 64 59 67 78 66 79 96 65 78 95 60 72 94 61 68 94 54 58 85 56 60 87 59 63 90 58 64 88 72 78 94 75 85 95 74 86 102 
99 85 59 99 85 59 100 86 60 99 85 59 100 86 60 98 84 58 93 78 55 94 79 56 87 75 53 87 75 51 82 73 56 82 73 58 79 73 61 80 74 62 79 72 62 78 71 61 76 72 61 78 74 63 78 74 65 70 67 60 70 67 60 92 88 79 93 86 76 86 81 75 84 79 73 80 75 69 75 70 66 88 79 70 108 95 79 110 91 76 107 86 69 107 86 67 107 89 67 108 87 66 107 94 75 107 96 76 89 83 69 85 78 68 80 74 62 74 68 56 73 67 55 76 70 58 77 69 58 82 74 63 82 74 63 82 74 61 82 72 60 90 78 66 89 79 67 87 77 67 86 76 64 85 75 63 85 77 64 85 75 63 85 75 63 84 74 64 84 74 64 83 73 61 83 75 62 85 73 59 62 58 49 56 54 42 55 57 44 55 59 44 54 58 44 54 55 47 53 54 46 57 53 52 56 52 51 55 51 50 54 50 49 67 62 59 68 64 61 68 64 61 68 64 61 71 67 64 75 71 68 75 70 67 73 69 66 74 70 67 75 71 68 75 70 67 75 71 68 75 71 70 89 85 84 91 87 86 68 69 73 55 58 63 62 70 81 67 80 96 67 78 98 62 73 95 60 70 95 56 61 90 56 61 90 61 62 90 60 64 93 73 80 96 78 86 99 77 86 103 
96 82 56 98 84 58 97 83 57 98 84 58 97 83 57 97 82 59 94 80 54 94 79 58 92 80 58 92 80 58 85 76 59 84 75 58 81 75 63 80 76 64 78 74 65 77 74 67 72 69 62 62 59 52 63 60 53 62 59 52 64 59 53 98 91 81 97 90 80 85 80 74 82 79 74 75 72 67 68 67 63 85 80 74 110 102 91 110 102 89 109 99 87 109 97 85 105 83 69 102 83 69 91 79 65 88 79 64 73 66 58 69 65 56 75 68 58 81 73 62 79 70 61 79 73 61 78 72 60 67 63 51 66 62 51 77 71 59 76 70 58 80 72 61 82 72 60 85 75 65 85 75 63 87 77 65 88 78 66 87 77 67 86 76 64 86 76 66 86 76 64 85 75 63 84 76 65 85 77 64 58 56 44 48 49 41 55 61 47 59 68 49 60 68 47 58 65 47 56 62 48 53 52 50 53 52 50 55 54 50 55 54 52 67 63 62 68 64 63 69 65 64 69 63 63 74 69 66 80 77 72 77 74 69 74 70 67 75 69 69 75 69 69 75 70 67 77 72 69 76 71 68 90 85 82 91 87 86 66 70 73 53 58 64 70 77 85 88 97 106 82 90 101 64 75 93 63 74 92 63 67 92 63 68 90 56 62 60 57 63 61 57 63 53 56 62 50 63 74 70 
98 83 60 98 83 60 99 84 61 99 85 59 98 84 58 98 83 60 96 81 60 96 81 58 94 81 62 93 81 59 85 76 59 87 75 61 83 76 66 80 76 64 79 75 66 77 74 65 74 71 62 63 60 53 64 59 53 64 61 56 64 60 57 96 92 81 97 93 82 85 82 75 83 80 75 74 73 68 70 69 65 86 82 73 112 102 90 111 101 89 112 100 88 110 98 86 105 83 69 105 83 70 91 79 65 88 81 65 74 70 59 69 65 54 74 70 59 80 74 62 81 73 62 80 74 62 79 73 61 68 64 55 68 64 53 79 73 61 78 71 61 81 75 63 82 74 61 85 77 64 86 76 64 88 78 66 89 80 65 90 78 66 87 77 65 89 77 65 88 76 64 86 76 64 86 76 64 85 75 63 57 57 47 49 50 42 58 62 48 62 70 49 62 70 49 59 66 48 56 63 47 54 53 49 55 54 52 56 55 53 59 55 52 69 64 61 69 65 62 70 66 63 70 66 63 74 70 67 80 75 72 78 73 70 76 71 68 76 71 68 76 70 70 77 71 71 77 72 69 77 72 69 90 86 83 92 88 85 66 69 74 54 59 65 70 77 85 90 97 105 84 92 103 64 75 93 65 73 94 62 68 90 63 68 90 57 61 60 57 61 60 58 63 56 58 64 50 65 74 69 
99 84 61 99 84 61 100 86 59 99 85 59 98 86 60 100 85 62 95 83 59 97 82 59 93 81 59 93 81 59 86 79 63 84 78 66 75 71 62 69 66 59 68 65 60 66 63 58 71 64 58 74 71 64 79 75 66 104 96 85 106 97 88 110 102 91 110 104 92 89 84 78 82 79 74 72 71 66 70 66 63 84 79 73 110 102 91 107 100 90 95 89 77 95 87 76 83 73 63 82 72 63 75 68 60 73 66 58 67 64 55 68 64 55 75 69 57 79 73 61 80 72 61 82 76 64 81 73 62 66 62 53 66 62 53 76 69 59 76 69 59 80 72 61 82 73 64 80 74 62 82 76 64 83 75 64 82 76 62 84 76 65 89 79 67 88 78 66 89 77 65 88 76 64 78 72 60 78 72 60 60 64 49 54 61 45 56 63 47 59 66 48 58 65 47 59 66 48 57 64 48 52 55 44 55 56 48 62 58 57 59 58 56 70 66 65 74 66 64 71 67 64 71 67 64 75 70 67 79 74 71 79 74 71 81 76 73 81 75 75 82 76 76 82 77 74 78 74 71 79 74 71 75 74 69 72 73 67 63 68 64 57 66 63 67 71 70 73 79 77 69 75 73 57 63 63 58 64 62 59 67 56 59 66 58 64 71 53 63 72 53 58 64 50 58 62 48 68 80 80 
99 87 61 101 87 61 101 87 61 101 87 60 99 87 61 101 87 61 97 85 61 97 85 61 93 81 59 94 82 60 87 80 64 85 79 67 74 70 61 70 67 60 68 65 58 66 63 56 69 66 59 76 73 66 81 76 70 110 104 92 110 104 92 112 104 93 113 105 94 88 85 80 80 79 74 73 72 68 69 68 64 85 80 74 110 104 92 107 99 88 95 89 77 92 85 75 80 73 63 80 73 63 72 68 59 71 66 60 69 64 58 69 65 56 73 69 60 78 74 63 80 74 62 83 77 65 81 72 63 66 62 53 66 61 55 74 70 59 73 69 57 80 74 62 82 76 64 83 75 64 81 75 63 82 73 64 83 75 64 86 76 66 91 81 69 89 81 68 89 79 67 88 78 66 79 73 61 79 73 59 62 64 50 56 63 47 57 64 48 58 65 49 60 67 49 61 69 48 59 66 50 56 60 46 55 59 45 64 60 57 64 60 57 70 66 63 72 68 65 72 68 65 73 69 66 76 72 69 80 76 73 80 76 73 81 77 74 81 77 74 84 79 75 84 79 76 80 76 75 81 75 75 73 74 68 73 74 68 65 70 66 62 68 66 66 72 68 71 77 73 68 74 70 58 63 59 57 64 57 59 65 51 60 66 52 66 75 54 66 74 53 61 65 50 55 64 47 71 81 82 
102 88 62 102 88 62 102 88 62 102 88 62 100 88 64 99 87 61 95 84 66 94 83 65 82 74 61 82 75 59 75 71 62 75 71 62 73 69 60 71 68 61 80 76 67 90 85 79 93 89 78 103 94 85 103 96 86 112 106 94 112 106 94 113 105 94 113 105 94 89 86 79 80 76 75 73 72 68 68 67 63 77 76 71 96 89 79 93 86 78 83 76 66 80 76 65 77 70 62 75 71 62 77 73 64 79 70 61 82 75 65 83 74 65 84 75 66 86 80 68 84 75 66 81 74 64 81 72 63 78 71 61 78 71 61 80 74 62 81 74 64 82 76 64 82 75 65 80 74 62 78 72 60 79 72 62 79 73 61 83 75 64 86 78 65 86 78 65 86 76 64 86 78 67 70 68 55 70 68 55 65 67 53 61 68 52 60 67 51 60 67 51 61 68 50 63 71 50 62 69 51 59 66 48 60 64 49 66 63 58 64 63 58 74 70 67 75 71 68 76 71 68 76 72 69 77 74 69 79 75 72 79 75 72 82 77 74 82 77 73 74 73 68 76 73 68 68 68 60 68 68 60 66 72 58 67 74 58 67 76 59 67 76 59 69 75 61 69 75 61 68 76 61 65 72 56 66 75 58 65 72 54 65 72 54 60 67 51 63 67 52 59 65 53 59 62 51 70 81 83 
103 88 67 100 88 64 102 87 64 102 88 62 100 88 64 100 88 66 91 84 68 91 82 67 75 70 64 75 71 62 69 66 59 68 65 60 72 69 62 72 69 62 90 83 75 105 98 88 108 102 90 113 107 95 115 107 96 113 106 96 112 106 94 113 107 95 112 106 94 88 85 80 78 77 73 71 72 67 68 67 65 76 73 68 87 80 70 84 78 66 74 71 62 75 68 60 75 68 60 75 68 60 81 74 66 80 74 62 88 80 69 88 80 69 90 82 71 89 81 70 87 79 68 81 74 64 80 73 63 84 78 66 85 77 66 84 78 66 80 76 65 83 77 65 84 78 66 80 73 63 78 71 61 78 71 61 80 74 62 82 74 63 86 78 67 85 79 67 86 76 64 85 77 66 69 67 54 69 67 54 66 69 52 63 70 54 62 69 53 62 69 53 63 70 54 64 71 53 63 72 53 63 70 52 64 68 53 65 64 59 66 65 60 76 72 69 78 73 70 78 74 71 78 74 71 79 74 71 80 75 72 80 76 73 80 79 75 80 76 73 69 68 64 70 69 64 62 65 54 62 65 54 63 72 55 67 75 54 69 79 55 69 79 55 69 79 55 69 77 56 69 78 57 70 80 56 71 79 56 69 77 56 68 76 55 59 66 50 59 66 50 58 64 52 57 63 51 70 81 85 
102 94 75 101 93 74 99 92 74 97 90 72 92 86 70 91 85 71 83 78 72 82 79 72 82 78 77 79 78 74 82 79 72 83 78 72 90 86 77 97 90 80 104 97 87 108 104 93 111 105 93 115 108 98 115 109 97 115 109 97 114 108 94 112 108 99 113 109 98 91 88 83 83 84 79 76 75 73 74 73 71 76 75 71 86 82 73 84 80 71 80 76 65 81 74 66 88 78 69 85 76 67 88 79 70 88 80 69 91 83 72 92 84 73 92 84 71 91 83 72 90 82 71 87 81 69 87 79 68 86 78 67 86 78 67 83 76 66 82 74 63 85 77 66 84 78 66 83 77 65 81 74 64 81 74 64 82 76 64 82 76 64 85 77 66 82 76 62 73 71 58 71 72 58 70 74 57 71 74 57 64 71 53 63 70 54 64 71 55 66 73 55 66 73 55 65 74 53 66 73 55 66 73 57 65 72 54 65 67 56 66 67 61 78 74 71 79 75 72 86 82 79 87 83 82 88 82 82 87 83 80 87 83 80 90 86 83 86 82 81 67 68 62 66 67 61 61 64 53 62 66 52 64 71 53 65 72 54 66 73 55 66 73 55 64 71 55 65 72 56 65 74 57 68 79 63 70 78 63 68 76 63 68 76 63 59 69 61 62 68 64 62 74 72 61 75 75 66 86 93 
103 100 85 100 98 83 98 96 83 93 91 79 84 83 78 83 82 77 73 74 78 71 75 76 85 86 90 85 86 90 95 91 80 98 91 81 110 104 92 118 110 97 115 109 97 116 110 98 116 107 98 116 110 98 116 110 98 116 110 98 117 109 98 113 108 104 113 108 102 92 92 90 87 87 85 80 80 80 76 76 76 77 77 75 83 82 78 86 81 75 87 80 72 88 81 71 99 86 77 97 87 75 96 86 76 96 86 76 96 86 74 95 85 76 95 85 75 94 84 74 95 85 75 95 85 73 94 84 74 88 80 69 90 81 72 83 77 65 83 76 66 85 79 67 85 79 67 83 79 67 83 79 67 83 76 66 82 75 65 82 75 67 82 75 67 78 74 63 61 65 51 61 65 51 71 81 57 72 80 59 66 73 55 65 69 54 67 74 58 71 78 60 68 76 55 69 77 56 68 76 55 69 76 58 68 75 57 64 68 54 66 68 57 77 76 72 81 77 74 92 86 86 98 89 90 95 91 90 94 90 89 96 90 90 96 95 93 91 90 88 63 66 57 63 66 57 61 64 53 62 65 56 64 67 56 62 68 54 62 68 54 61 68 52 63 66 55 61 67 55 63 69 57 70 75 68 70 77 69 66 75 70 68 74 70 58 72 75 60 74 75 66 83 91 67 87 98 63 90 101 
97 95 83 96 94 82 96 94 82 91 89 77 81 80 75 81 80 76 75 74 79 76 75 80 85 89 92 87 88 92 98 95 88 99 95 86 111 105 93 119 111 98 118 112 98 118 110 99 117 111 99 118 110 99 117 110 100 118 110 99 118 110 97 112 109 102 111 108 103 94 95 87 91 91 81 85 86 81 84 84 82 86 85 81 88 85 80 89 86 79 92 83 74 91 84 74 98 88 78 97 89 78 97 89 78 95 87 74 97 87 75 97 87 77 97 87 77 96 88 77 96 86 74 97 87 77 96 86 76 90 82 71 91 82 73 88 80 69 87 80 70 84 80 68 85 79 67 85 79 67 85 79 67 85 78 68 83 77 65 84 78 64 84 76 65 80 76 65 62 65 54 61 63 52 70 78 57 70 79 58 65 73 52 64 71 55 67 76 57 69 76 60 69 76 58 68 75 59 67 74 56 67 76 57 67 74 58 65 69 55 65 69 54 79 78 74 83 79 78 93 89 88 94 90 89 93 92 90 92 91 89 92 91 89 95 94 92 91 90 86 71 74 67 71 72 66 71 72 64 71 72 64 68 71 60 64 70 56 63 69 57 63 69 59 62 68 58 63 66 57 65 71 61 76 83 76 75 82 75 70 80 81 67 79 77 58 77 81 59 78 82 64 87 95 64 91 100 61 89 100 
80 79 74 83 80 75 84 81 74 81 77 74 73 71 72 72 70 71 74 74 76 74 74 74 87 88 92 86 87 91 103 102 97 109 106 101 116 109 99 119 111 100 119 111 100 119 111 100 119 111 100 118 112 100 117 111 97 118 111 95 117 109 96 105 105 95 106 106 96 100 103 76 98 102 69 103 104 90 105 106 100 101 101 93 96 93 84 97 93 82 100 90 80 99 89 79 99 89 79 97 89 78 98 90 79 98 90 79 99 89 80 98 88 78 98 88 78 96 90 78 96 88 77 96 88 75 96 88 75 94 86 75 97 87 77 97 87 75 96 88 77 88 81 71 86 79 69 86 79 69 86 80 68 84 80 68 86 80 68 86 79 69 85 78 68 81 77 65 60 64 50 61 64 53 68 72 55 65 72 56 68 75 57 68 75 57 70 77 59 69 78 59 68 75 57 65 72 54 63 70 54 64 71 55 65 72 54 64 71 55 65 72 56 88 87 83 90 89 87 89 88 86 87 87 85 89 89 87 92 90 91 93 92 88 92 91 87 93 92 90 97 93 92 95 94 92 99 95 96 98 94 95 75 77 72 72 74 69 66 67 69 61 65 68 64 65 69 63 64 68 69 73 72 90 94 93 90 96 96 73 91 101 72 92 101 54 88 100 53 89 101 50 93 102 53 93 105 48 84 98 
