P3
100 50
255
14 18 30 13 17 29 13 17 29 14 17 32 13 16 31 13 17 29 12 18 30 21 23 36 23 27 39 28 31 46 30 33 50 29 32 47 28 31 48 28 31 46 28 31 46 29 32 47 21 25 37 22 25 40 20 23 38 20 23 38 20 24 36 20 23 38 20 24 36 19 22 37 20 24 36 20 23 38 19 22 37 20 23 38 21 23 36 18 22 34 19 23 35 8 9 13 6 7 9 11 16 22 15 19 28 18 20 33 20 24 36 20 23 38 19 22 37 19 22 37 20 24 36 18 24 36 20 24 36 20 23 38 20 23 38 21 24 39 18 24 38 19 23 35 14 15 33 3 3 29 2 3 31 0 2 25 0 2 27 1 3 28 0 2 25 1 3 24 1 4 23 1 2 23 1 3 24 0 2 25 1 1 25 0 2 25 0 2 25 0 2 27 1 3 28 1 3 28 1 1 29 0 1 31 0 3 32 1 2 32 1 2 33 0 3 36 15 10 30 31 16 23 32 16 19 37 18 14 39 19 18 44 23 20 42 24 20 44 23 18 44 23 18 42 23 19 43 22 19 43 24 18 44 23 20 43 22 19 44 23 20 44 23 20 43 22 19 44 23 20 44 25 21 44 25 21 40 19 16 40 19 16 41 20 17 43 22 19 44 23 18 44 23 18 44 23 18 44 23 18 
15 17 32 14 18 30 13 17 29 12 18 30 14 18 30 14 16 29 14 16 29 21 23 36 22 26 38 25 28 43 28 31 46 26 32 48 25 32 48 26 32 48 27 30 45 28 32 44 21 25 37 22 26 38 20 23 38 19 22 37 20 23 38 21 24 39 19 22 37 19 22 37 19 22 37 20 24 36 20 23 38 20 23 38 20 24 36 18 22 34 19 22 37 7 11 14 8 9 13 12 15 24 17 21 32 19 23 34 21 24 39 19 22 37 19 22 37 20 23 38 19 22 37 20 23 38 20 23 38 21 23 36 19 22 37 20 23 38 19 22 37 20 23 38 12 15 34 3 3 31 2 3 31 1 1 29 1 1 27 1 1 25 0 2 27 1 3 24 1 3 26 2 2 26 1 1 25 1 1 25 1 3 28 0 4 26 2 2 28 2 2 28 0 2 27 0 1 29 1 1 29 1 0 31 1 0 31 1 3 28 1 4 35 2 3 34 19 10 27 35 19 22 35 16 18 40 19 16 43 22 19 43 22 19 44 23 20 43 24 18 44 23 18 43 22 19 44 23 18 44 23 20 44 23 20 44 23 20 44 23 20 43 22 19 44 23 20 44 23 20 45 24 21 45 24 21 40 21 17 40 21 17 42 21 18 42 23 19 43 22 17 42 21 16 43 22 17 44 23 18 
14 17 32 11 17 29 14 17 32 14 18 30 14 18 30 14 17 32 15 17 30 12 15 30 9 15 27 13 17 29 15 19 31 20 19 33 23 27 38 23 27 39 20 23 38 20 23 38 19 22 37 17 23 37 19 22 37 20 22 37 21 24 39 19 22 37 19 22 37 20 24 36 20 22 35 19 22 37 20 23 38 19 22 37 19 22 37 18 22 34 19 22 37 12 15 20 10 13 18 17 21 30 20 24 35 21 24 41 20 23 40 19 22 37 17 20 35 17 21 33 20 24 36 20 23 38 20 23 38 20 23 38 20 23 38 19 22 37 20 23 38 16 22 34 14 15 36 2 3 31 2 1 32 0 1 31 1 0 32 1 0 31 1 0 31 2 1 33 2 1 33 4 0 33 1 0 32 2 2 36 2 1 33 2 1 35 2 1 32 1 2 33 1 0 34 1 0 32 2 1 35 2 1 35 4 0 33 4 1 32 5 1 34 6 3 32 25 13 27 44 23 20 44 23 18 44 24 23 43 24 18 38 19 15 38 19 15 43 22 17 43 24 17 44 23 18 44 25 19 43 22 17 44 23 18 45 24 19 44 23 20 44 23 18 43 24 18 44 23 18 43 24 18 43 24 20 43 22 17 44 23 18 46 22 18 44 23 18 41 22 15 38 19 15 41 20 15 43 24 18 
13 16 33 11 17 29 15 17 30 13 17 29 13 17 29 13 16 31 13 16 31 12 16 28 11 15 27 12 18 30 15 19 31 18 20 33 25 27 40 23 27 39 18 24 38 20 23 38 18 21 36 20 23 38 20 23 38 21 23 38 20 23 38 20 23 38 19 22 37 19 23 35 19 22 37 20 23 38 19 22 37 20 23 38 20 24 36 18 22 34 19 22 37 11 14 19 10 13 18 16 20 29 20 24 35 20 24 36 20 24 36 20 23 38 18 21 36 19 22 37 21 25 37 19 23 35 19 22 37 19 23 35 20 23 38 17 23 37 21 23 36 19 22 37 12 14 35 2 3 31 2 3 33 0 1 31 0 1 31 1 0 31 1 0 31 2 1 33 2 1 33 2 1 33 2 1 33 2 1 35 1 1 35 2 1 33 4 1 32 2 1 35 1 1 35 2 1 33 2 1 35 1 0 34 2 1 33 2 1 33 6 3 34 6 3 34 25 13 25 44 23 18 45 24 19 44 23 20 44 23 18 39 18 15 38 19 15 42 21 18 41 22 16 45 24 21 43 24 20 44 23 18 44 23 18 44 23 18 44 23 18 43 24 20 43 22 19 43 22 17 44 23 20 44 23 20 42 23 17 44 23 20 43 22 17 44 23 20 42 21 18 39 18 15 41 20 17 45 24 19 
12 15 30 12 16 28 13 17 29 13 17 29 14 17 32 12 15 24 9 14 20 9 12 17 9 12 19 11 15 26 14 18 30 15 19 31 22 24 37 20 23 38 16 22 36 19 22 37 18 21 36 18 22 34 17 21 33 17 21 32 9 12 17 7 10 15 13 16 25 19 23 34 18 22 33 19 22 37 20 23 38 19 22 37 20 23 38 20 24 36 20 23 38 21 25 36 21 25 37 20 23 38 21 25 37 19 23 35 20 24 36 20 24 36 20 24 35 19 22 37 19 22 37 19 22 37 21 25 37 20 24 36 15 16 36 16 17 38 9 9 37 5 4 36 4 3 35 2 1 33 3 2 36 2 1 33 5 1 36 2 1 33 2 1 33 1 0 34 2 1 35 1 0 34 2 1 35 2 0 39 1 0 36 3 2 36 4 0 35 2 1 33 1 0 32 2 0 37 2 1 35 1 1 37 5 2 31 5 2 31 21 9 21 32 15 21 37 19 19 44 23 18 43 24 18 44 25 19 44 23 18 43 22 19 42 21 18 44 23 20 42 23 19 40 19 16 39 20 16 43 22 19 44 23 18 43 22 19 45 24 19 46 22 18 44 23 18 45 24 19 43 22 19 42 23 19 37 19 15 36 21 18 32 17 14 31 16 13 30 15 12 29 13 13 28 13 10 31 13 9 
11 14 29 13 17 29 13 17 29 13 17 29 13 17 29 12 15 24 11 14 23 8 11 18 9 10 15 13 15 27 13 16 31 15 19 31 20 22 35 19 23 35 18 21 36 18 21 36 17 20 35 18 21 36 18 21 36 16 20 32 7 10 17 6 7 11 12 15 22 18 22 34 18 22 34 20 23 38 20 23 38 20 24 36 21 22 40 20 23 38 19 25 39 23 27 39 23 27 39 19 25 37 20 23 38 20 22 37 20 23 38 19 23 35 20 23 38 20 23 38 20 23 38 19 22 37 21 25 37 21 25 37 15 16 36 14 15 36 8 7 38 4 3 37 5 1 36 3 2 36 4 0 35 2 1 35 4 3 37 2 1 35 3 2 36 1 0 34 2 1 35 2 1 35 3 2 36 2 1 33 2 0 37 2 1 35 1 1 35 1 0 34 2 1 35 2 1 33 1 1 35 1 1 35 4 1 30 7 3 30 24 11 21 35 15 17 39 19 20 44 23 18 41 24 17 43 24 20 44 23 18 43 22 17 44 23 20 44 23 20 44 25 21 40 21 17 39 18 15 43 22 17 42 23 19 44 23 20 45 25 18 44 23 18 47 23 19 45 24 19 44 23 20 42 21 18 37 19 17 36 18 14 31 16 13 29 14 11 29 14 11 27 12 9 26 12 9 27 12 9 
13 16 31 12 15 30 12 15 30 12 15 30 12 18 34 11 14 23 11 14 23 7 8 13 6 7 12 10 13 22 12 16 28 15 19 31 20 23 38 20 23 38 17 20 35 17 20 35 19 22 37 19 22 37 16 20 32 16 20 31 7 10 15 5 6 10 12 15 22 16 22 34 17 23 35 20 23 38 20 24 36 20 23 38 19 22 37 20 23 38 19 22 37 20 23 38 22 25 40 19 23 35 19 22 37 20 23 38 19 23 35 19 22 37 20 23 38 21 24 41 17 20 37 19 22 39 9 10 40 8 9 40 5 5 41 5 5 41 4 2 41 3 1 41 3 1 40 2 0 40 3 1 41 3 1 41 3 1 41 3 1 40 3 1 40 3 1 40 3 1 40 2 1 41 1 0 40 1 1 39 2 2 40 1 0 42 2 1 43 1 1 39 8 2 36 8 2 36 17 4 22 17 3 26 16 3 29 13 3 30 33 16 24 43 24 18 42 23 17 43 22 17 44 23 18 43 22 19 44 23 18 44 23 18 44 23 20 43 24 20 44 23 20 42 21 18 44 23 18 43 22 17 40 21 17 37 18 14 31 16 13 33 15 13 36 15 12 36 15 12 37 16 11 39 15 11 36 12 10 36 12 10 33 12 11 31 10 9 33 11 13 36 12 10 37 13 11 36 12 12 
13 17 29 13 16 31 13 17 29 11 17 31 13 16 31 12 15 24 13 13 23 6 7 11 4 5 7 10 13 22 12 16 28 15 19 31 21 25 37 20 24 36 18 21 36 18 21 36 18 21 36 19 23 35 16 20 32 14 18 29 9 10 15 7 8 12 12 15 22 17 21 32 18 22 34 19 22 37 19 22 37 19 23 35 20 24 36 19 23 35 19 22 37 20 23 38 20 23 38 19 22 37 20 23 38 19 22 37 20 23 38 20 23 38 21 25 37 20 23 38 17 19 40 18 21 40 5 5 41 4 4 40 1 3 41 1 0 42 2 1 41 2 1 41 3 1 41 3 1 41 2 1 41 3 0 43 4 2 42 3 1 41 4 2 42 2 0 40 3 2 42 1 0 44 3 0 43 5 0 40 1 0 42 2 0 40 2 1 43 3 0 43 7 2 34 7 0 36 23 5 21 22 5 21 18 5 31 18 5 33 34 17 23 46 26 17 45 24 19 45 21 17 43 22 17 44 23 20 43 22 17 44 23 20 43 24 18 43 24 18 44 23 20 45 24 19 44 23 18 40 21 17 36 18 14 34 16 12 27 12 9 26 12 9 35 11 11 32 10 12 37 13 11 37 11 10 36 10 9 38 10 9 33 9 9 33 9 9 35 9 10 38 12 11 37 11 10 38 12 11 
15 15 23 15 14 20 16 15 21 13 17 29 14 18 30 12 15 22 13 16 23 7 8 12 4 6 3 8 11 20 13 15 28 15 19 31 19 23 35 20 24 36 19 22 39 18 21 36 18 21 36 18 21 36 15 19 31 15 19 31 12 17 23 11 14 19 15 19 28 18 24 36 20 24 36 19 23 35 19 22 37 20 23 38 19 23 35 19 22 37 19 22 37 16 22 38 14 20 34 18 22 34 19 23 35 19 22 37 19 22 37 18 21 38 12 14 35 12 12 36 8 7 38 8 7 38 3 1 40 3 1 38 2 0 39 2 0 39 3 1 40 5 0 40 5 1 38 6 0 38 5 0 40 6 2 39 5 0 41 6 1 41 5 0 40 5 0 40 6 1 41 5 0 40 5 0 40 6 2 39 8 2 38 11 1 35 13 4 31 13 3 30 11 1 35 11 0 35 17 3 29 13 3 30 13 1 37 13 2 36 20 8 32 23 10 28 32 15 23 40 21 17 41 22 18 43 24 18 45 24 19 42 23 19 44 23 18 43 22 17 44 23 20 42 23 17 44 23 18 36 16 15 31 13 13 31 11 12 30 8 11 32 7 11 33 6 11 33 7 10 36 7 11 37 8 13 39 8 13 41 10 15 40 9 14 39 8 14 38 9 13 37 8 10 38 9 11 43 15 14 
14 13 18 16 14 17 17 15 20 13 16 31 13 17 29 11 15 24 11 15 24 5 9 12 4 5 7 8 10 22 14 16 29 15 19 30 20 24 36 19 23 35 19 22 39 18 21 36 18 21 36 18 22 34 16 20 31 15 19 30 14 17 24 15 18 25 16 20 29 21 25 36 20 24 35 19 23 35 20 23 38 20 23 38 19 22 37 20 23 38 19 22 37 16 19 34 15 18 33 18 21 36 20 24 36 18 22 34 19 22 37 16 19 38 8 8 36 10 7 38 5 1 36 5 1 36 3 1 38 3 1 40 3 1 38 2 0 37 4 0 37 5 1 38 5 1 38 5 1 38 6 2 37 5 1 38 5 1 36 7 1 37 6 0 38 6 0 38 5 1 38 6 1 41 5 0 40 7 3 40 9 2 35 13 3 30 21 4 22 19 4 23 13 2 34 13 2 36 12 2 36 12 1 35 11 1 36 10 0 35 9 2 36 10 0 35 24 10 27 39 21 21 40 21 15 46 25 20 45 24 19 43 22 19 42 21 16 44 24 17 46 22 20 41 22 16 42 23 17 32 14 14 24 10 7 28 8 10 34 4 12 35 5 13 34 4 12 35 6 11 37 6 14 36 5 11 39 8 13 41 8 15 44 6 17 43 6 14 40 7 14 35 6 11 38 10 9 43 13 11 
16 14 17 19 15 12 19 15 16 14 16 29 13 15 27 12 16 27 13 15 27 10 13 20 7 10 15 11 15 26 12 16 28 15 19 31 19 22 37 19 22 37 19 22 37 19 22 37 18 21 36 18 21 36 17 20 35 17 20 35 17 20 29 17 21 30 18 22 34 20 23 38 19 22 37 18 24 38 19 22 37 20 23 38 20 22 35 19 22 37 19 22 37 18 21 36 16 19 34 17 18 36 20 19 37 16 17 37 17 15 39 14 14 38 9 6 37 9 3 37 5 1 36 6 2 37 4 0 37 3 2 36 6 2 37 3 2 36 4 0 37 4 0 35 4 0 35 5 1 38 5 0 35 7 1 35 6 0 36 4 0 35 6 0 38 7 1 35 7 1 35 11 2 33 10 1 32 11 1 35 11 1 36 13 2 34 16 2 25 17 3 28 12 1 35 12 1 35 11 1 35 11 1 36 11 1 35 10 1 32 10 0 34 11 1 36 22 9 26 34 16 14 35 15 14 35 15 14 38 20 18 41 22 16 44 23 22 40 21 17 37 22 17 41 17 17 37 16 15 33 12 11 29 9 11 32 5 10 34 5 10 35 6 11 37 4 11 36 5 11 37 6 12 37 6 12 42 7 14 43 8 15 44 7 15 43 8 15 40 7 14 36 5 11 40 10 12 39 14 10 
17 15 16 24 15 8 25 16 9 17 14 23 15 15 23 13 17 29 14 17 32 17 21 32 17 21 30 15 19 30 14 16 29 16 20 32 18 21 36 19 22 37 19 22 37 20 23 38 19 22 37 21 24 39 22 25 40 21 24 39 21 23 38 21 24 39 21 25 37 19 23 35 21 23 38 19 23 35 20 24 36 17 23 35 19 22 37 20 23 38 20 23 38 19 22 37 21 23 38 18 16 38 16 12 37 14 7 40 10 3 37 11 1 38 10 0 37 10 0 37 9 0 36 10 0 35 8 1 34 8 1 35 7 2 34 7 0 33 8 1 34 7 0 33 8 1 34 8 0 37 7 0 34 10 0 34 8 1 34 7 0 34 5 0 32 8 2 30 10 1 30 18 5 23 21 4 22 16 2 28 12 1 35 13 2 34 9 2 35 11 1 35 10 0 35 10 0 35 10 0 35 10 0 35 8 2 30 9 0 27 10 1 32 10 1 32 19 5 20 28 8 7 27 9 9 23 7 7 25 9 9 40 22 18 39 21 19 31 16 13 31 16 13 32 7 10 30 5 11 36 5 11 36 5 11 37 6 12 36 5 11 37 6 12 40 7 14 40 7 14 43 8 15 43 8 15 39 6 13 38 5 12 38 7 13 38 7 13 40 7 14 42 7 14 37 6 11 32 8 8 
16 14 15 25 15 6 24 13 9 16 16 24 16 17 22 14 18 30 13 17 29 16 20 31 16 20 31 15 19 30 13 17 29 15 19 31 19 22 37 20 23 38 19 22 37 19 22 37 19 22 37 19 22 37 21 24 39 20 23 38 21 24 39 20 24 36 21 24 39 20 23 38 20 24 36 20 24 36 20 23 38 21 23 38 18 24 36 19 20 38 19 22 37 18 19 39 17 18 39 17 13 38 14 9 39 12 5 39 12 2 39 13 1 39 11 1 38 12 1 41 10 0 37 11 1 36 8 1 35 10 0 35 8 1 34 8 1 35 10 0 35 10 0 34 8 1 34 8 1 35 8 1 34 8 1 34 8 1 32 10 0 29 12 3 32 10 1 30 11 2 31 16 4 26 17 4 24 17 4 32 13 2 34 11 1 35 11 1 36 9 2 35 10 0 35 11 1 36 11 0 35 11 1 36 7 1 29 9 0 27 8 1 32 8 1 34 17 3 18 27 9 7 27 9 7 23 7 7 25 9 9 37 19 17 37 19 17 33 13 12 32 14 14 31 6 10 30 5 9 37 4 11 36 7 12 36 5 11 36 5 11 38 7 13 39 6 13 40 7 14 43 8 15 43 8 15 39 6 13 38 7 13 39 6 13 38 5 12 42 7 14 42 7 14 38 7 13 32 7 10 
16 14 15 22 13 6 21 14 8 17 16 24 17 18 23 14 17 32 14 18 30 11 17 29 13 16 31 13 17 29 13 17 29 16 20 32 19 22 37 20 23 38 20 23 38 20 23 38 19 22 37 20 23 38 19 22 37 19 22 37 20 23 38 18 24 38 18 22 34 19 22 37 19 22 37 20 23 38 19 22 37 18 24 36 21 23 36 18 19 40 17 19 40 15 3 41 14 3 43 15 3 43 14 1 44 13 0 43 13 0 43 13 0 43 14 1 44 14 1 44 13 1 41 15 0 41 13 0 43 13 1 41 12 0 42 12 0 43 14 1 44 12 0 40 13 1 39 13 1 39 13 1 37 17 2 35 14 0 33 19 4 23 21 4 23 13 2 34 12 0 36 10 0 34 12 0 36 11 0 34 11 0 34 11 0 35 11 0 35 12 1 35 10 0 35 10 0 35 11 1 36 8 1 35 7 0 31 7 0 31 9 0 31 11 2 31 17 5 19 27 9 7 26 8 8 21 7 6 21 7 6 24 8 11 25 6 8 32 5 10 31 4 11 32 5 10 30 5 9 34 4 12 34 4 12 36 7 12 41 6 13 42 7 13 42 7 13 42 7 14 39 6 13 41 8 17 39 6 13 40 7 14 41 6 13 42 7 14 41 8 15 42 7 14 41 6 13 39 6 13 
16 14 15 23 14 7 22 15 7 16 17 22 18 15 22 13 17 29 13 17 29 11 17 29 13 17 29 13 17 29 12 16 28 13 19 31 19 22 37 19 22 37 20 23 38 20 23 38 20 23 38 21 24 39 20 23 38 20 23 38 20 23 38 17 23 35 20 23 38 20 23 38 19 25 37 19 22 37 20 24 36 20 23 38 21 25 37 17 18 39 20 18 40 19 5 41 14 3 43 14 2 42 16 1 42 14 1 44 13 0 43 13 2 44 12 1 43 12 1 41 12 1 43 14 1 44 13 1 41 13 0 43 12 1 43 13 0 43 13 1 41 11 1 38 12 0 40 13 1 39 13 1 37 16 2 35 16 2 35 18 5 23 21 4 23 12 3 34 10 0 35 12 1 35 12 0 36 10 0 35 10 0 35 10 0 35 11 1 36 11 1 35 10 0 35 10 0 35 10 0 35 11 1 36 7 0 31 8 1 32 8 2 30 10 1 30 19 5 20 28 10 8 24 9 6 20 6 5 21 7 6 22 7 10 26 7 9 31 4 9 32 5 10 31 4 9 32 5 10 34 4 12 34 5 10 36 7 12 40 7 14 42 7 14 42 7 14 42 7 14 42 7 14 42 7 14 39 8 14 39 6 13 40 7 14 40 7 14 42 7 14 40 7 14 39 6 13 39 6 13 
18 13 17 26 18 7 27 17 8 17 16 24 17 16 24 14 18 30 14 18 30 11 17 29 13 17 29 13 17 29 14 18 30 15 19 31 18 21 36 20 23 38 20 23 38 19 22 37 19 22 37 19 22 37 20 23 38 20 23 38 20 24 36 19 23 35 18 24 36 17 23 37 19 22 37 20 22 37 22 21 39 17 7 42 19 7 43 15 0 44 17 1 46 17 1 48 14 3 46 13 1 47 16 0 47 16 1 44 15 0 43 16 1 44 16 1 42 15 0 43 16 1 44 14 1 44 13 1 41 17 0 42 15 2 45 15 0 41 16 1 40 16 2 37 18 3 34 19 5 22 18 4 27 13 1 39 12 0 38 12 0 38 11 1 38 12 0 38 9 0 34 11 1 36 11 1 38 11 1 36 11 0 37 10 0 35 8 1 35 10 0 35 6 0 40 7 0 42 7 3 40 8 0 39 6 0 34 8 1 32 7 1 29 8 0 24 16 2 15 24 5 9 28 6 9 35 6 11 34 5 10 35 5 13 32 5 10 36 5 11 35 6 11 40 7 14 42 7 14 43 8 15 42 7 14 42 7 14 40 7 14 40 7 14 38 5 12 39 6 13 42 7 14 42 7 14 42 7 14 41 6 13 39 6 13 38 7 13 38 5 12 43 6 14 40 7 14 41 6 13 
19 13 15 26 16 6 27 17 8 16 16 24 18 17 25 14 16 29 13 17 29 12 18 32 14 18 30 12 16 28 13 17 29 16 18 31 19 22 37 20 23 38 19 22 37 19 22 37 19 22 37 20 23 38 20 23 38 18 21 36 20 23 38 21 24 39 20 23 38 20 23 38 21 23 36 21 23 38 19 20 38 17 7 44 18 8 45 14 1 45 16 0 45 16 0 47 18 1 46 16 0 45 15 2 48 14 1 45 16 1 44 16 1 42 16 1 44 13 0 43 15 0 41 16 1 42 16 1 40 15 0 41 16 1 44 13 0 43 16 1 40 16 0 37 16 1 30 19 5 22 18 2 28 12 2 37 13 1 37 12 0 38 12 2 39 10 0 37 9 1 38 9 2 36 11 1 36 10 0 37 11 1 36 10 0 35 11 1 38 10 0 37 6 0 41 8 1 43 9 3 41 7 0 38 7 0 34 6 1 31 8 2 28 7 2 25 15 3 17 26 6 7 28 6 9 35 6 11 36 5 11 35 6 11 33 6 11 33 6 11 34 5 10 39 6 13 43 8 15 43 8 15 43 8 15 42 7 14 39 6 13 40 7 14 37 6 12 40 7 14 42 7 14 40 7 14 43 8 15 42 7 14 38 7 13 37 6 12 39 6 13 40 7 14 42 7 14 42 7 14 
14 3 37 18 4 30 18 6 30 17 15 26 16 16 26 13 16 31 14 18 29 11 15 27 12 15 30 15 14 30 12 16 28 16 18 31 19 22 37 19 22 37 20 23 38 19 22 37 19 22 37 20 23 38 18 21 36 20 23 38 20 24 36 20 23 38 21 19 40 18 14 41 18 11 44 20 5 48 18 3 46 18 3 46 16 3 46 17 1 46 17 1 48 17 0 47 16 0 45 16 0 47 16 0 47 17 1 46 16 0 45 15 2 48 16 0 45 17 2 45 16 0 47 17 2 45 18 1 43 16 1 40 19 3 30 19 4 27 19 3 39 15 0 41 17 1 40 16 1 40 14 2 38 14 0 35 11 1 38 14 0 35 14 0 36 12 0 36 12 0 36 11 0 35 11 1 35 12 0 36 11 1 35 11 0 35 10 0 35 11 1 35 7 1 35 6 0 36 6 0 36 6 0 38 7 0 34 8 1 32 23 4 23 30 4 15 32 5 14 36 5 11 35 6 11 32 5 10 37 6 12 40 7 14 40 7 14 40 7 14 40 7 14 40 7 14 40 7 14 42 7 14 38 7 13 39 8 14 39 8 14 41 6 13 40 7 14 41 8 15 39 6 13 41 6 13 40 7 14 40 7 14 39 6 13 42 7 14 39 6 13 38 5 12 39 6 13 40 7 16 
13 1 39 17 3 36 16 5 35 15 14 28 15 15 27 14 16 31 12 16 28 11 15 27 11 15 27 11 15 27 12 16 28 14 17 32 19 22 37 19 23 35 19 23 35 20 23 38 19 22 37 20 22 37 20 23 38 17 23 37 20 24 36 20 24 36 21 19 41 18 11 44 18 8 43 18 3 46 19 2 46 17 1 46 17 1 48 17 1 46 15 2 46 17 1 46 13 0 46 14 1 47 16 0 45 17 1 46 16 0 45 16 0 47 17 1 46 17 0 47 15 2 46 16 0 47 17 2 41 16 1 42 22 3 31 23 5 27 18 3 36 17 0 44 16 1 42 15 0 41 15 0 41 15 0 39 13 1 39 14 0 35 13 2 36 12 1 35 12 0 36 11 1 36 12 0 36 12 0 36 9 2 36 11 1 35 11 0 34 11 1 35 8 1 34 10 0 35 6 0 36 5 1 36 6 0 33 6 1 33 23 5 21 35 5 13 33 6 15 36 7 12 35 6 11 35 4 10 36 5 11 42 7 14 44 9 16 40 7 14 40 7 14 40 7 14 41 6 13 42 7 14 38 5 12 40 7 14 41 8 15 40 7 14 40 5 12 38 5 12 39 6 13 40 7 14 41 6 13 39 6 13 42 7 14 42 7 14 39 6 13 38 7 13 39 6 13 38 5 12 
15 0 43 17 2 45 17 2 41 15 11 36 14 10 37 14 18 30 14 17 32 12 15 30 12 14 27 12 16 28 12 16 28 15 18 33 20 23 38 19 22 37 20 24 36 19 22 37 20 23 38 20 24 36 18 19 39 19 20 40 17 10 43 18 13 43 17 7 44 17 4 48 16 3 46 17 1 46 17 1 48 16 0 45 16 0 47 15 2 46 16 0 47 17 1 46 14 1 47 16 0 45 17 1 48 18 2 49 14 1 45 17 1 46 17 2 45 18 1 43 20 3 35 19 2 34 18 1 43 18 1 43 18 0 38 18 1 37 17 2 41 17 0 42 15 0 41 16 1 42 16 1 42 15 0 41 16 1 42 16 1 40 15 0 39 16 1 40 15 0 41 13 1 39 14 0 35 13 1 39 14 0 36 12 0 36 11 1 35 12 0 36 11 1 36 11 1 35 17 3 26 17 2 25 22 3 22 22 4 18 30 4 13 33 3 11 34 4 12 35 6 11 37 6 14 39 6 13 39 8 14 40 7 14 43 8 15 41 6 13 38 5 12 39 6 13 39 6 13 39 6 13 40 7 14 42 7 14 39 6 13 40 7 14 39 8 14 38 7 13 39 6 13 38 5 12 40 7 14 38 5 12 40 7 14 40 7 14 42 7 14 43 8 15 39 6 13 38 5 12 
16 1 44 17 1 46 16 1 44 14 7 40 15 8 41 13 17 28 13 17 28 12 16 28 13 17 29 14 16 29 13 17 29 15 18 33 18 22 34 18 21 36 16 22 34 20 23 38 20 23 38 20 24 36 19 17 39 20 18 40 18 7 47 16 3 47 15 2 46 17 1 46 17 1 48 15 2 46 16 0 45 16 0 47 17 1 48 15 2 46 16 0 47 17 1 48 16 0 45 17 1 46 16 0 45 16 0 47 17 1 48 16 0 45 18 2 41 17 3 39 23 4 26 23 4 26 19 1 43 19 1 41 19 1 43 17 0 42 17 0 42 17 0 42 17 2 43 18 1 45 15 0 39 16 1 44 17 2 43 16 1 42 16 1 44 15 0 41 16 1 42 15 0 39 15 0 39 12 0 38 15 0 39 14 0 36 14 0 35 12 1 35 11 1 36 14 0 35 25 2 18 24 3 18 31 6 12 32 5 10 32 5 10 29 4 10 32 5 12 36 7 12 37 6 12 41 6 13 40 7 14 42 7 14 40 7 14 40 7 14 39 6 13 38 7 13 37 6 12 41 6 13 43 8 15 39 6 13 39 6 13 39 6 13 40 7 14 40 7 14 39 6 13 37 6 12 42 7 14 42 7 14 41 8 15 39 8 14 40 7 14 43 6 14 40 7 14 39 6 13 
16 1 42 16 1 44 16 0 43 16 4 42 15 4 44 15 10 40 16 10 38 14 12 33 13 14 32 13 15 30 14 16 29 16 18 31 18 21 36 18 22 34 19 22 37 18 21 38 17 14 41 18 14 41 17 10 44 16 9 42 16 3 47 17 1 46 17 1 48 16 0 47 17 1 48 18 2 47 17 1 48 18 1 45 16 0 47 18 1 46 17 0 47 17 1 48 17 1 48 18 1 46 16 1 44 18 2 39 22 2 37 21 0 39 22 1 44 22 1 44 24 3 36 22 2 37 22 0 46 21 0 45 19 1 43 20 2 44 19 1 43 20 1 46 19 1 43 19 1 43 18 0 42 19 1 43 17 0 42 16 1 42 16 1 40 16 1 40 16 1 42 15 0 41 15 0 41 13 1 39 15 0 41 15 1 36 18 2 31 21 2 30 25 3 24 25 3 24 30 4 15 30 4 15 33 6 11 35 6 10 37 6 12 37 6 12 37 6 12 38 5 12 39 6 13 40 7 14 39 6 13 40 7 14 42 7 14 40 7 14 41 6 13 39 6 13 39 8 14 39 6 13 41 6 13 40 7 14 39 6 13 40 7 14 41 8 15 42 7 14 39 6 13 39 6 13 40 5 12 40 7 14 40 7 14 40 7 14 40 7 14 41 8 15 39 6 13 38 5 12 
14 2 42 15 0 41 16 1 44 16 1 44 14 1 44 16 3 47 17 2 45 14 7 38 14 12 36 14 16 31 13 17 29 12 18 30 18 21 36 19 22 37 18 19 37 18 19 37 16 6 43 18 5 48 15 2 48 16 0 47 17 1 46 16 0 47 17 1 46 17 1 46 15 0 46 18 0 50 16 0 45 16 1 44 15 0 43 17 2 45 18 1 46 16 0 47 17 1 50 18 1 45 16 1 42 20 3 35 23 3 28 25 1 33 24 1 47 24 1 47 20 1 47 20 1 47 24 1 47 23 0 46 24 1 47 23 1 48 21 0 45 22 1 44 21 0 45 21 0 43 21 0 43 18 0 42 19 1 43 16 1 42 17 0 42 15 0 41 16 1 42 15 0 43 16 1 42 14 1 44 14 1 44 19 2 38 24 1 27 27 3 27 36 5 10 37 6 11 35 6 11 34 4 12 36 7 12 37 6 12 42 7 14 42 7 14 42 7 14 43 8 14 42 7 13 38 5 12 39 6 13 40 7 14 41 6 13 40 7 14 40 7 14 41 6 13 40 7 14 37 6 12 37 6 12 38 7 13 42 7 14 42 7 14 44 7 15 42 7 14 38 7 13 38 5 12 39 6 13 40 7 14 42 7 14 42 7 14 42 7 14 39 6 13 39 6 13 38 7 13 
16 1 42 17 0 44 16 1 42 16 1 44 13 0 43 15 2 45 14 1 45 15 5 40 14 7 38 14 10 35 14 12 34 16 14 36 19 17 39 18 16 38 18 14 39 18 12 38 18 3 44 16 3 46 17 1 48 17 1 46 16 0 47 17 1 46 17 0 45 16 0 45 17 1 46 18 1 46 17 1 46 16 0 45 18 1 45 16 1 42 17 2 43 21 0 39 22 1 40 27 2 42 27 1 40 30 3 36 33 3 31 34 5 36 33 1 42 33 1 42 30 1 45 32 1 45 32 1 45 33 0 45 32 0 47 30 1 47 29 0 46 28 1 46 27 1 46 23 0 44 23 0 44 22 0 46 21 0 45 18 1 43 17 0 44 17 2 43 16 1 42 16 0 39 16 0 39 18 1 33 21 0 31 25 2 28 27 4 22 28 4 20 37 6 11 36 5 11 36 7 12 38 7 15 37 6 12 37 6 14 40 7 14 42 7 14 40 8 13 40 8 13 42 7 14 40 5 12 39 6 13 39 6 13 39 6 13 39 6 13 41 8 15 41 6 13 41 6 13 38 7 13 37 6 12 38 7 13 40 7 14 40 7 14 41 6 13 43 8 15 39 8 14 40 7 14 39 6 13 41 6 13 40 7 14 40 7 14 42 7 14 40 7 14 39 6 13 39 6 13 
16 1 42 17 0 44 16 1 42 16 1 42 17 2 43 16 1 42 16 1 42 15 0 43 17 2 43 14 3 43 14 4 41 16 6 43 17 7 42 16 6 43 15 2 46 17 1 46 16 0 45 16 0 45 17 1 48 16 0 45 17 1 46 17 0 47 17 1 48 17 0 45 18 1 45 19 2 46 19 0 45 18 0 42 18 2 41 17 1 38 18 1 43 28 2 27 32 4 26 42 3 34 48 1 37 47 2 35 47 2 35 46 1 34 47 2 33 46 1 34 47 1 37 47 1 38 47 0 42 47 1 40 43 0 45 44 1 46 42 0 46 40 2 49 33 1 48 25 2 46 26 0 47 23 1 47 23 0 47 20 2 44 19 0 45 18 1 43 17 0 44 19 1 39 21 1 38 26 3 23 32 5 10 34 5 10 34 4 12 32 5 10 36 7 11 36 6 14 41 6 12 42 7 14 38 8 10 40 5 12 39 6 13 42 7 14 40 7 14 38 5 12 39 6 13 43 8 15 42 7 14 39 6 13 39 6 13 37 6 12 37 6 12 39 6 13 42 7 14 42 7 14 42 7 14 41 6 13 37 6 12 36 7 12 39 8 14 40 7 14 41 8 15 43 8 15 40 5 12 40 7 14 38 7 13 37 6 12 40 7 14 40 7 14 40 7 14 43 8 15 
15 0 41 17 0 42 18 1 43 17 2 43 17 0 44 17 0 44 16 1 44 16 1 42 16 1 42 15 3 41 16 4 42 15 5 42 17 7 42 16 6 43 16 0 45 17 2 45 14 1 44 18 1 46 16 0 45 17 1 46 16 0 45 16 0 47 18 2 49 19 2 46 19 0 45 19 1 43 19 1 43 19 1 39 21 0 39 23 1 39 23 1 39 31 1 25 34 5 27 43 2 36 47 0 36 47 2 35 46 1 34 46 1 34 47 0 34 47 2 35 48 0 38 46 2 38 47 0 42 47 0 42 46 1 44 43 2 46 40 1 46 39 0 47 36 0 46 24 1 47 24 1 47 23 1 47 23 0 46 20 2 40 23 2 43 21 3 41 20 3 39 20 3 35 22 3 31 28 5 21 32 5 10 32 5 10 34 8 11 34 7 12 38 7 12 37 8 12 40 7 14 39 8 13 38 7 13 39 6 13 41 6 13 41 5 15 39 6 13 39 6 13 38 7 13 41 6 13 40 7 14 39 6 13 39 6 13 40 5 12 38 5 12 40 7 14 42 7 14 40 7 14 40 7 14 41 6 13 38 7 13 39 8 14 39 6 13 40 7 14 43 8 15 40 7 14 40 7 14 40 7 14 38 5 12 38 5 12 38 7 13 40 7 14 40 7 14 38 9 14 
17 0 42 18 0 42 18 1 43 19 1 43 17 2 43 18 1 43 18 1 43 19 1 43 20 2 44 19 1 41 19 1 43 19 1 43 18 1 45 20 1 47 19 2 47 18 1 46 18 1 46 16 1 44 19 2 47 19 2 47 19 2 47 20 1 47 19 2 47 20 1 47 21 0 45 23 0 44 21 1 38 33 3 15 31 3 17 46 1 22 44 1 21 45 1 26 46 1 24 45 1 26 44 0 25 46 0 26 47 1 29 45 0 29 46 0 29 47 1 29 47 1 38 47 1 40 46 3 48 45 2 47 43 1 47 43 1 49 38 1 45 37 1 47 32 0 47 24 1 47 25 2 48 20 1 46 20 1 47 31 7 31 31 7 29 38 11 16 39 13 16 37 12 8 38 13 9 39 11 10 36 12 10 36 12 10 37 11 10 36 12 10 43 13 11 44 14 12 41 8 15 40 7 14 37 6 12 38 7 13 38 7 13 40 7 14 40 7 16 42 7 14 42 7 13 39 6 13 39 6 13 41 8 15 39 6 13 39 6 13 38 5 12 40 7 14 39 6 13 39 6 13 39 8 14 38 5 12 40 7 14 40 8 11 39 6 13 39 8 14 38 5 12 37 6 14 39 6 13 42 7 14 40 7 14 40 8 13 37 6 12 37 6 14 32 9 15 23 13 14 
19 1 43 19 1 43 19 1 43 18 0 40 19 1 43 19 1 43 19 2 44 19 1 41 19 1 43 19 1 43 18 0 42 19 0 45 19 0 46 17 0 44 17 0 47 18 1 46 18 0 48 18 1 46 18 2 47 19 2 47 19 0 46 20 0 49 19 2 47 20 1 47 20 1 46 20 2 42 23 1 40 33 3 15 32 4 16 49 0 26 48 0 22 48 0 26 46 1 24 46 2 27 49 1 27 46 0 26 47 1 29 47 1 29 46 0 29 45 0 29 47 1 38 47 1 38 46 0 46 47 1 48 42 0 46 42 0 46 37 1 45 35 2 47 32 0 47 24 1 47 24 1 47 22 0 47 22 0 47 31 7 31 32 8 32 38 11 16 39 13 14 40 12 11 40 12 9 38 12 11 36 10 11 36 12 10 36 12 10 38 12 11 45 15 13 45 15 15 41 6 13 42 7 14 38 7 13 38 7 13 36 5 11 38 6 11 39 6 13 43 8 15 42 7 13 39 6 13 38 5 12 39 6 13 41 6 13 37 6 12 39 6 13 41 8 15 40 7 14 39 6 13 38 5 12 39 8 14 42 7 13 43 8 14 39 8 13 39 6 13 38 7 13 37 6 12 42 7 14 41 9 14 39 8 14 39 6 13 38 7 13 37 6 12 31 9 12 22 13 14 
24 1 43 27 2 44 24 1 43 27 0 43 27 1 46 32 0 42 33 1 42 35 0 42 32 1 43 34 1 44 36 0 46 38 0 47 39 1 48 36 0 48 32 1 45 31 0 44 23 1 40 22 0 41 21 0 41 22 1 44 21 0 39 22 1 42 27 3 27 31 3 15 39 3 15 45 0 9 47 0 6 47 1 3 47 1 3 46 0 10 47 1 11 45 1 14 47 1 14 48 1 21 46 1 22 49 0 29 46 1 34 45 0 33 46 0 36 48 1 35 48 1 47 47 0 42 46 0 46 46 0 46 36 0 48 33 1 48 36 0 46 38 0 49 36 0 46 29 0 46 32 1 43 29 6 26 31 6 27 31 10 7 33 9 9 34 10 8 34 10 10 33 9 7 34 10 8 34 10 8 34 10 8 31 10 7 31 10 7 34 10 8 37 13 11 37 11 10 44 14 12 43 15 11 42 7 13 42 7 14 41 6 13 40 8 13 38 5 12 37 6 12 39 6 13 40 7 14 40 7 14 43 6 14 40 7 14 39 6 13 37 6 12 38 5 12 38 5 12 38 7 13 43 7 17 40 7 14 39 7 12 39 6 15 38 7 13 38 7 13 42 7 14 42 7 14 39 6 13 39 6 13 28 9 13 25 10 13 24 15 16 24 18 18 25 19 19 25 19 19 
26 0 45 24 0 41 26 1 43 26 1 41 27 2 44 32 1 43 31 0 42 33 0 43 33 0 43 34 1 46 36 0 44 38 0 49 37 1 47 37 1 49 32 0 47 30 2 43 24 1 43 25 0 42 22 1 44 22 1 42 22 0 39 22 1 40 28 3 25 33 3 15 38 2 12 47 0 11 47 0 6 47 1 3 49 0 3 48 1 9 48 2 12 47 1 12 47 1 14 48 1 19 49 1 23 47 1 29 45 0 33 46 1 34 46 1 34 47 2 33 47 0 44 47 0 42 45 2 47 45 2 47 37 1 47 33 2 46 36 0 46 38 0 47 34 1 46 27 1 46 30 2 42 30 6 28 31 6 28 32 11 8 32 11 10 34 10 8 34 8 7 34 10 8 34 10 8 34 10 8 34 10 10 33 9 7 34 10 10 34 10 8 36 12 8 36 12 10 43 13 13 45 15 15 42 7 13 41 6 13 41 6 13 40 7 14 38 7 13 36 6 14 38 7 13 40 7 14 42 7 14 41 6 13 39 8 14 39 6 13 38 7 13 39 6 13 39 6 13 39 6 13 42 7 14 42 7 14 39 8 14 38 7 13 39 6 13 39 6 13 42 7 14 42 7 14 38 5 12 38 7 13 29 10 14 25 10 13 24 15 16 23 19 18 25 19 19 24 20 19 
32 1 43 36 0 44 36 0 46 37 1 47 37 1 45 39 0 45 39 0 45 43 1 47 43 0 46 42 1 45 42 0 46 42 1 45 40 1 46 40 1 46 35 0 43 36 0 44 31 0 41 32 1 42 32 2 26 32 3 23 40 2 27 41 1 27 43 0 28 44 1 29 44 1 29 47 0 32 47 0 32 46 0 36 47 0 36 41 1 38 41 1 38 39 1 40 36 1 41 36 0 38 37 1 39 38 0 39 38 0 41 39 1 42 40 1 45 39 0 44 40 1 46 41 0 44 37 0 46 38 0 47 36 0 48 32 1 45 34 1 46 32 0 47 31 2 48 26 0 47 27 2 44 28 4 26 30 5 27 33 9 7 34 10 8 29 18 16 31 17 17 33 19 19 34 20 17 34 20 19 34 20 20 33 19 19 33 19 18 32 18 15 32 11 10 35 11 11 43 15 12 41 16 12 41 11 13 41 11 13 41 8 15 40 8 13 41 6 13 39 7 12 39 6 13 39 7 12 40 5 12 40 7 14 40 7 14 40 7 14 40 7 14 39 6 13 38 7 13 39 6 13 37 6 12 38 5 12 42 7 14 42 7 13 41 6 13 39 6 13 29 9 11 27 8 10 26 14 16 26 16 17 25 16 17 26 17 18 26 17 18 25 19 19 25 16 17 24 15 16 
33 1 42 40 1 46 40 1 48 40 1 48 40 1 48 42 0 46 41 0 45 44 1 46 46 0 47 46 0 46 43 0 46 42 0 46 42 0 46 40 1 46 37 0 44 39 0 45 33 1 42 33 1 42 35 4 20 34 3 18 44 1 21 46 1 24 46 0 28 46 1 34 46 1 34 47 1 38 47 0 42 46 0 46 46 0 46 39 0 45 40 1 46 34 1 46 34 1 46 33 2 44 32 0 42 36 1 43 37 0 44 37 2 44 39 2 46 37 0 46 38 0 47 38 0 47 35 2 49 36 0 48 36 0 45 33 1 48 33 2 46 32 0 47 29 0 46 24 1 45 27 2 42 29 5 27 29 6 26 33 9 9 31 10 7 29 19 17 30 20 19 33 21 21 33 25 23 35 25 26 34 22 22 34 22 22 33 21 21 31 20 18 33 9 7 32 11 8 43 15 12 44 14 12 42 13 15 43 13 15 41 9 14 42 7 14 41 6 12 41 6 13 39 6 13 39 6 13 38 5 12 40 7 14 40 7 14 42 7 14 40 7 14 39 6 13 37 6 12 38 7 13 39 8 16 40 7 14 42 7 14 43 8 15 40 7 14 39 6 15 24 8 11 25 9 12 23 17 17 22 18 17 25 19 19 27 18 21 26 17 20 24 18 18 23 17 17 21 15 15 
30 0 38 42 1 43 42 1 45 43 0 46 46 0 46 45 0 45 46 0 46 47 2 45 47 0 47 47 2 43 46 1 44 44 1 46 40 1 45 39 1 38 35 3 24 36 4 25 41 1 38 41 1 36 42 0 36 41 2 33 41 2 33 42 1 35 44 0 35 45 1 36 42 0 36 39 1 42 40 2 43 40 1 48 40 1 48 39 1 48 38 0 47 27 0 47 27 1 46 28 1 46 27 0 47 30 1 47 29 2 47 29 2 47 30 1 47 30 1 47 28 0 48 28 0 48 27 1 48 26 0 48 26 0 47 27 1 48 27 1 48 24 1 47 24 1 47 22 0 49 24 2 41 27 5 28 27 5 26 33 9 7 34 10 10 30 18 18 31 19 19 30 20 21 32 20 20 32 22 21 34 22 22 35 23 25 33 21 21 33 21 21 32 14 14 30 14 14 36 12 10 35 11 9 43 15 14 43 13 13 43 11 14 41 9 14 40 9 14 38 7 13 38 7 13 39 6 13 38 5 12 39 6 13 40 7 14 39 6 13 38 5 12 41 8 15 40 7 14 40 7 14 38 5 12 37 8 13 35 6 11 34 9 13 29 13 14 28 13 16 25 15 16 24 16 14 22 18 17 24 18 18 24 18 18 23 17 17 24 18 18 25 19 19 26 17 18 26 17 18 
26 0 35 40 0 39 42 0 40 46 0 46 46 0 46 47 2 45 46 1 44 47 1 47 46 1 44 47 0 46 47 2 45 43 0 43 41 0 44 38 1 32 35 5 13 35 5 13 47 2 35 48 1 35 46 1 42 46 1 44 39 1 42 41 0 40 42 2 37 45 1 36 42 1 41 37 0 44 37 1 45 33 2 46 34 1 46 38 0 47 39 2 46 27 1 48 25 0 46 27 1 48 26 0 45 24 1 45 26 0 47 25 2 46 25 2 46 23 0 46 23 1 48 22 0 46 19 0 45 19 1 49 21 2 47 23 1 47 22 0 46 22 0 47 22 0 46 19 0 46 23 2 41 26 7 27 26 4 25 33 9 7 34 10 8 29 17 17 30 20 19 31 19 19 31 19 19 31 21 22 33 23 22 34 22 22 34 22 22 33 21 21 31 17 14 31 17 16 34 10 10 34 10 10 41 13 10 44 14 12 42 12 14 41 10 15 40 9 14 40 7 14 38 5 12 41 6 13 38 5 12 42 7 14 39 6 13 38 7 13 38 7 13 40 7 14 43 8 15 40 7 14 38 5 12 37 8 13 30 8 11 28 9 15 22 16 16 22 18 17 25 19 19 24 18 18 24 18 18 25 19 21 25 19 19 24 18 18 24 20 19 24 18 18 24 18 18 25 19 19 
20 1 31 27 2 34 29 0 33 37 1 39 37 0 41 45 2 45 48 1 45 47 2 45 44 2 42 42 2 37 42 3 34 41 2 33 43 2 36 41 2 31 38 3 27 39 4 28 41 1 38 41 0 40 38 1 45 36 0 44 33 0 47 33 0 43 34 2 43 36 1 43 36 1 41 30 1 45 32 1 45 32 0 47 31 2 48 33 2 46 34 3 47 23 1 47 22 0 47 23 0 49 20 1 47 22 0 47 22 0 46 22 0 47 22 0 46 22 0 47 22 0 46 22 0 46 19 0 46 22 0 47 22 0 47 22 0 46 22 0 47 23 1 47 23 0 46 22 0 47 22 1 40 28 6 27 28 6 27 33 9 9 31 10 7 30 20 19 30 20 19 29 19 18 30 20 19 31 21 20 33 21 21 33 21 21 35 23 25 32 22 21 32 20 20 31 19 19 32 12 11 32 11 10 38 12 11 40 11 13 41 13 12 43 13 13 43 11 14 42 7 14 38 7 13 37 6 12 39 6 13 39 7 12 39 6 13 40 7 14 40 9 15 38 7 12 37 6 12 32 10 13 30 10 12 28 12 15 28 13 16 27 15 17 23 17 17 24 18 18 26 17 18 24 18 18 25 19 19 25 19 19 24 18 18 25 19 19 24 18 18 25 19 19 25 19 19 25 19 19 
15 1 27 14 0 25 15 1 26 26 0 35 26 0 35 46 1 44 47 2 45 45 0 41 43 1 41 40 1 30 34 2 23 40 2 25 45 1 26 45 0 31 43 1 39 44 2 40 35 0 43 34 1 44 30 1 45 30 1 47 28 0 48 28 1 46 28 0 48 28 2 47 27 0 47 23 1 47 24 1 47 26 0 47 26 1 43 28 1 46 28 1 46 19 2 47 18 1 46 17 1 50 17 0 45 19 1 49 19 2 47 18 1 46 19 2 47 17 0 45 20 1 47 20 1 47 20 1 46 23 1 47 23 0 46 24 1 47 23 1 47 23 1 47 22 0 46 23 0 46 26 1 41 28 6 27 25 6 26 33 9 9 33 9 7 29 17 17 29 19 18 29 21 19 29 19 18 31 19 19 32 20 20 33 23 24 34 24 23 33 23 22 34 24 23 32 22 21 33 13 12 30 12 12 33 12 9 35 11 9 41 13 10 43 15 12 43 11 14 38 5 12 39 6 13 38 5 12 37 6 12 39 8 14 37 6 12 45 8 16 43 8 15 35 6 11 32 5 12 27 11 14 21 16 13 21 15 15 26 20 20 25 19 19 24 18 18 24 18 18 23 17 17 23 17 17 25 19 19 23 17 17 24 18 18 25 19 19 24 18 18 24 18 18 23 17 17 25 19 19 
16 0 29 14 0 26 16 0 29 25 1 35 24 0 32 43 1 39 43 1 39 43 1 37 42 2 36 38 3 27 36 3 22 41 2 23 44 0 27 44 1 31 42 1 41 41 0 40 34 2 43 34 1 44 30 1 45 28 0 43 29 0 44 30 1 47 28 1 46 27 1 48 27 0 47 26 0 47 24 1 45 26 0 47 26 0 47 25 2 46 28 2 49 19 0 45 19 2 47 20 1 47 19 0 45 18 1 45 19 0 46 18 1 46 20 1 47 20 1 47 23 1 47 22 0 46 22 0 46 22 0 46 24 1 47 24 0 48 23 0 46 24 2 48 21 2 48 22 0 46 23 1 40 27 5 26 27 5 26 30 9 8 32 8 6 29 19 18 30 20 19 31 19 19 30 18 18 31 21 20 31 21 20 33 23 24 33 23 24 33 23 24 32 22 23 32 22 20 31 15 15 31 15 15 33 12 9 34 13 12 39 13 12 42 14 11 41 12 14 41 9 14 41 8 15 40 7 14 39 6 13 38 5 12 37 6 12 38 8 16 36 9 14 34 9 13 32 10 13 28 14 14 21 17 14 24 18 18 25 19 19 27 18 19 25 19 19 25 19 19 24 18 18 23 17 17 25 19 19 24 18 18 24 18 18 24 18 18 25 19 19 25 19 19 24 18 18 24 18 18 
15 0 31 22 2 37 18 1 33 15 1 27 16 0 26 30 4 17 30 2 17 38 0 18 42 1 19 42 0 20 41 0 18 40 0 24 40 0 29 41 2 33 36 1 43 37 0 43 31 0 42 31 0 41 32 1 42 31 0 42 30 2 42 30 2 43 31 0 42 30 1 45 28 1 46 26 0 47 25 2 48 18 1 46 20 1 47 22 0 46 21 0 45 19 0 45 20 1 47 20 1 47 22 0 46 23 0 46 24 1 47 24 1 47 23 0 46 23 1 47 24 1 47 24 1 47 24 1 47 24 1 47 23 0 47 24 1 47 22 0 47 19 0 46 19 2 47 18 1 46 20 2 42 25 6 26 26 7 27 31 10 9 32 11 8 31 19 19 32 20 20 33 21 21 31 21 20 32 22 21 32 22 21 33 23 22 33 23 22 34 22 24 32 20 20 31 19 19 33 21 21 33 23 22 31 11 10 31 10 9 35 11 9 37 11 12 41 13 12 44 14 14 43 13 13 41 6 13 38 5 12 36 7 12 37 6 12 22 12 13 22 12 13 24 18 18 24 18 18 24 18 18 24 18 18 24 18 18 25 19 19 24 18 18 24 18 18 24 18 18 24 18 18 24 18 18 25 19 19 25 19 19 24 18 18 25 19 19 24 18 18 23 17 17 24 18 18 24 18 18 
17 0 32 20 1 33 20 1 33 21 1 28 19 1 27 32 4 19 32 3 21 40 1 22 43 1 21 42 0 22 43 0 20 43 1 23 41 1 28 40 1 30 38 0 39 37 1 39 32 0 41 32 0 37 34 2 43 32 1 42 32 1 42 33 1 42 31 0 42 28 1 44 27 1 46 23 1 48 23 1 47 21 0 46 20 0 49 23 0 46 21 2 47 20 1 47 20 1 47 22 0 46 23 1 47 23 0 47 24 1 47 24 1 47 23 0 46 24 1 47 23 0 46 23 0 46 23 1 47 23 1 47 24 1 47 23 1 47 21 0 48 21 2 48 21 2 47 18 1 46 19 1 41 25 6 28 27 5 26 33 9 9 33 9 7 30 18 18 31 19 19 33 21 21 34 22 22 36 22 22 34 22 22 33 23 22 34 22 22 35 23 23 32 20 20 33 21 21 31 21 22 32 22 21 32 12 11 31 11 10 36 12 10 37 11 10 41 13 12 40 14 13 41 13 12 39 6 13 39 8 13 35 8 13 34 7 14 23 14 17 22 13 16 24 18 18 25 19 19 24 18 18 26 20 20 24 18 18 24 18 18 23 19 18 27 18 19 25 19 19 24 18 18 24 18 18 24 18 18 25 19 19 24 18 18 25 19 19 24 18 18 23 17 17 22 16 16 24 18 18 
24 1 30 30 3 22 31 3 25 40 0 27 41 1 28 43 0 28 40 0 27 39 0 25 41 1 28 43 1 25 44 0 23 44 1 20 45 0 20 46 2 17 45 2 12 48 1 17 42 0 24 43 1 23 40 2 43 38 1 44 39 0 44 39 0 44 32 1 45 25 0 44 22 0 46 18 1 46 18 1 46 19 0 46 18 1 45 18 1 45 18 1 46 18 1 46 18 1 46 20 1 46 22 0 47 23 0 46 23 1 47 24 1 47 22 0 46 23 0 46 26 0 47 23 0 46 23 1 47 24 1 47 24 1 47 23 1 47 29 3 48 31 6 46 31 6 46 29 7 46 31 7 43 27 5 26 28 6 27 31 10 9 33 9 7 30 18 18 30 20 19 33 21 21 33 21 21 33 23 22 32 22 21 33 23 24 34 22 22 34 22 24 33 21 21 33 21 21 31 19 19 31 19 19 32 20 22 31 19 19 32 14 12 31 10 9 35 11 9 39 11 10 34 13 10 25 11 11 25 11 11 24 18 18 24 20 19 23 19 18 24 18 20 24 18 20 24 18 22 24 18 20 24 18 20 24 18 18 25 19 19 24 18 18 24 18 18 25 19 19 23 17 17 25 19 19 25 19 19 24 18 18 23 17 17 24 18 18 22 16 16 22 16 16 22 16 16 24 18 18 
22 2 29 31 3 25 32 3 25 41 1 28 40 0 27 40 1 28 43 0 28 41 1 27 41 1 28 41 0 23 43 1 21 45 2 21 45 1 16 45 1 18 45 1 14 47 1 12 43 1 23 40 0 24 39 1 40 38 1 44 41 0 44 40 1 45 31 0 42 24 1 45 23 2 45 17 0 45 18 1 46 19 2 47 19 2 47 19 0 46 18 1 46 18 1 46 20 3 48 20 1 46 23 1 47 23 0 46 24 0 48 23 0 46 23 1 47 23 1 47 23 0 46 24 1 47 26 0 47 24 1 47 23 1 48 23 1 47 27 4 46 32 7 47 31 6 46 31 6 46 30 6 42 25 6 26 27 5 26 34 10 10 33 9 7 30 18 18 30 20 19 32 22 21 34 22 22 32 22 21 33 21 21 32 22 23 35 23 23 33 21 21 33 23 22 32 22 21 31 19 21 30 18 20 31 19 19 31 19 19 32 14 14 31 10 7 34 10 8 37 11 10 34 13 12 25 11 11 25 11 11 24 20 21 24 20 21 25 19 19 24 18 18 24 18 18 24 18 18 25 19 19 25 19 21 25 19 19 26 17 18 27 17 18 26 17 18 26 17 18 24 18 18 22 18 17 24 18 18 25 19 19 24 18 18 26 20 20 24 18 18 21 15 15 22 16 16 24 18 18 
41 1 28 43 3 30 41 2 31 41 0 30 41 0 32 39 0 29 41 0 30 40 0 29 40 1 28 41 1 28 41 1 28 44 0 28 43 0 28 41 0 30 46 2 29 45 1 28 36 0 36 35 1 36 27 1 46 24 1 45 23 0 46 22 0 46 23 0 44 26 0 47 23 0 46 22 0 46 22 0 46 21 0 45 23 1 48 22 0 46 23 1 47 23 0 46 22 0 46 26 0 47 24 1 45 27 1 48 28 0 48 27 1 46 23 0 47 27 1 48 27 0 47 27 1 48 27 1 46 27 1 48 24 1 47 24 1 45 25 2 46 25 2 46 24 2 48 24 2 48 24 2 40 27 5 28 28 4 26 33 9 9 33 9 7 31 19 19 30 20 19 32 22 21 35 23 23 33 21 21 32 22 23 33 21 23 33 23 24 33 23 24 33 21 21 32 22 21 34 22 22 32 20 22 33 21 21 32 20 20 33 15 13 31 10 9 32 11 8 33 9 7 30 11 7 24 12 12 24 12 12 24 18 18 26 17 18 24 18 18 26 20 20 24 18 18 23 17 17 23 17 17 24 18 20 25 19 19 23 17 17 23 19 18 26 17 18 23 17 17 24 18 18 25 19 19 23 17 17 24 18 18 23 17 17 24 18 18 24 18 18 23 17 17 24 18 18 25 19 19 
47 1 30 43 0 30 42 1 31 42 1 33 41 0 32 43 0 30 41 0 32 41 0 30 41 0 30 41 0 30 42 1 31 42 1 33 41 0 30 42 1 31 43 0 28 45 0 31 35 1 38 35 1 38 24 1 45 23 1 47 20 1 46 19 2 46 23 1 47 26 0 47 23 0 46 23 1 47 24 1 47 22 0 46 22 0 47 23 0 47 22 0 47 24 1 47 24 1 47 26 0 47 26 0 47 28 1 46 29 0 46 30 1 47 28 0 48 28 1 46 27 1 46 29 2 47 26 0 47 27 1 48 27 1 48 24 1 47 24 1 47 23 0 44 23 1 47 20 1 46 22 1 40 28 6 27 25 6 26 33 9 9 33 9 7 31 19 19 31 19 23 34 22 22 32 22 21 31 21 22 33 21 21 34 22 24 34 22 22 34 22 22 33 21 21 34 22 22 33 21 23 34 22 22 32 22 20 32 22 21 32 14 12 31 10 9 33 9 7 32 8 6 29 9 8 23 11 11 24 14 13 24 18 18 24 18 18 24 18 18 24 18 18 23 17 17 24 18 18 24 18 18 24 18 18 24 18 18 23 17 17 25 19 19 24 18 18 25 19 19 24 18 18 25 19 19 25 19 19 24 18 18 24 19 16 24 18 18 23 17 17 23 17 17 24 18 18 25 20 17 
46 0 26 44 2 26 44 1 28 41 0 30 41 0 30 41 1 28 41 0 32 41 0 32 41 0 30 41 0 32 43 1 39 44 0 36 45 1 36 45 1 37 46 0 36 46 1 34 42 0 40 43 1 41 39 0 44 38 0 43 32 1 45 29 0 44 29 0 46 28 1 44 30 1 45 29 0 44 28 0 43 28 1 44 28 3 45 33 2 46 34 1 44 41 2 47 38 1 45 38 1 45 38 1 45 36 1 41 37 0 44 36 1 43 32 1 43 34 1 44 28 1 44 31 0 44 26 0 45 26 0 47 24 1 47 24 1 47 24 1 47 27 1 46 23 0 46 22 0 46 25 0 42 28 5 25 28 6 27 31 10 9 33 9 7 31 19 19 30 20 19 31 21 20 31 21 20 31 21 22 34 22 22 34 22 24 33 21 21 34 22 24 33 21 23 33 21 21 31 19 21 32 20 20 31 21 20 32 22 21 33 15 13 31 10 9 33 9 7 33 9 7 29 9 8 23 11 11 24 14 13 24 18 18 24 18 18 25 19 19 23 17 17 24 18 18 26 20 20 24 18 18 25 19 19 24 18 18 24 18 18 25 19 19 25 19 19 25 19 19 24 18 18 25 19 19 24 18 18 24 18 18 25 20 17 24 18 18 25 19 19 25 19 21 24 18 18 24 18 18 
46 0 26 45 1 26 45 1 28 43 0 30 42 1 31 41 1 28 41 1 28 41 0 32 41 0 30 41 1 36 42 0 40 41 0 37 47 1 37 46 0 37 47 1 38 46 2 38 47 0 42 46 1 42 46 1 42 46 1 40 37 1 45 33 0 43 32 1 45 29 2 45 31 0 42 31 0 42 33 2 44 29 1 42 29 1 42 39 2 46 38 1 44 42 1 45 43 0 45 42 1 45 39 0 44 38 0 41 36 0 40 37 0 41 33 1 40 34 2 43 27 0 43 28 1 44 23 1 47 26 0 47 24 1 47 23 0 46 23 0 46 24 0 48 23 0 46 24 1 47 26 1 41 28 4 28 27 3 25 31 10 9 30 9 6 29 19 18 30 20 21 32 20 22 30 20 19 32 21 19 34 22 24 34 22 24 33 21 21 33 21 21 33 21 21 33 21 21 32 20 22 32 20 22 32 22 21 31 21 20 34 16 14 31 10 9 34 10 8 33 9 7 30 10 9 24 12 12 23 13 12 25 19 19 24 18 18 24 18 18 24 18 18 25 19 19 24 18 18 25 19 19 24 18 18 24 18 18 24 18 18 24 18 18 24 18 18 24 18 18 24 18 18 25 19 19 23 17 19 24 18 18 24 18 18 24 18 20 24 18 20 25 19 19 23 17 17 25 19 19 
43 0 28 44 0 28 44 1 29 43 2 32 41 0 32 41 0 30 40 0 29 44 0 33 42 1 33 43 2 34 43 2 36 45 1 36 44 0 33 44 0 33 45 1 34 44 0 33 46 0 36 46 0 36 45 0 36 47 1 37 43 1 37 40 0 37 40 2 39 38 0 39 38 0 39 37 1 39 35 1 38 37 1 39 36 2 39 39 1 40 39 1 40 42 1 41 43 1 41 43 1 41 42 1 41 42 1 41 38 0 39 38 0 39 36 1 41 37 0 41 32 1 45 34 2 43 34 1 44 36 0 46 33 2 46 32 0 47 33 1 48 32 0 47 34 1 48 36 0 44 36 1 41 34 5 27 33 5 27 31 10 9 33 9 9 30 19 17 30 20 19 34 22 22 32 20 20 35 20 23 33 21 21 34 22 22 33 21 21 33 21 23 33 21 23 33 21 21 33 21 21 33 21 21 33 23 22 32 22 21 34 16 14 31 10 9 31 7 7 33 9 7 29 9 8 23 11 11 24 12 12 23 17 17 25 16 17 22 16 16 21 15 15 23 17 17 23 17 17 24 18 18 23 17 17 25 19 19 24 18 18 24 18 18 25 19 19 25 19 19 24 18 18 25 19 19 23 17 17 24 18 20 24 18 18 24 18 18 24 18 18 25 19 21 25 19 19 25 19 19 
41 1 28 41 0 30 41 0 30 41 2 33 41 0 30 41 0 30 41 0 32 42 1 33 42 1 31 44 0 33 45 1 34 42 2 29 44 1 31 41 0 30 44 1 29 44 1 31 46 1 30 46 0 36 46 1 32 46 1 32 44 1 31 45 0 33 45 1 34 42 1 35 43 1 37 42 0 36 42 2 37 39 2 36 39 1 38 43 1 39 45 0 39 43 1 39 41 0 40 40 2 41 42 1 41 41 0 40 39 1 38 40 0 39 35 1 38 38 2 40 38 1 44 37 0 41 42 1 45 43 2 44 38 1 45 36 0 46 36 0 46 34 1 48 38 1 45 44 1 46 42 1 41 38 5 26 38 6 29 33 9 9 33 8 11 31 19 19 31 21 20 32 20 20 32 20 20 32 20 20 33 21 23 33 21 21 34 22 22 34 22 22 33 21 21 33 21 21 33 21 21 33 21 23 31 21 20 32 22 21 34 16 14 31 10 9 33 9 9 33 9 7 29 9 8 23 11 11 24 12 12 24 18 18 25 16 17 21 15 15 21 15 15 23 17 17 23 17 17 24 18 18 24 18 18 23 17 17 24 18 18 24 18 18 25 19 19 25 19 19 25 19 19 24 18 18 25 19 19 24 18 18 24 18 18 25 19 19 24 18 18 24 18 18 25 19 23 24 18 20 
42 2 29 42 1 31 42 1 33 41 0 34 41 0 32 42 1 31 41 0 32 42 2 29 44 1 31 43 0 32 45 2 32 42 2 29 41 0 32 42 1 33 42 1 33 41 0 32 45 1 37 46 2 37 43 2 36 45 1 36 41 1 36 39 2 36 38 0 37 38 2 40 36 0 36 36 2 39 35 1 38 32 0 39 33 1 40 33 1 40 33 1 40 33 1 40 35 0 40 35 0 40 36 1 41 36 0 40 38 1 42 38 0 41 37 0 41 40 0 41 37 0 41 38 0 43 42 1 45 42 1 45 42 0 46 42 0 46 39 2 46 38 1 45 39 0 45 42 1 45 41 0 40 38 6 27 37 5 28 32 8 8 33 9 7 30 18 18 30 20 19 31 21 22 31 21 20 33 21 21 33 21 21 34 22 22 34 22 24 34 22 24 34 22 24 33 21 23 33 21 21 34 22 22 32 22 23 33 23 22 33 15 13 32 11 10 33 9 9 32 8 6 29 9 8 24 12 12 23 13 12 24 18 18 23 17 17 21 15 15 22 16 16 23 17 17 24 18 18 24 18 18 25 19 19 24 18 18 25 19 19 24 18 18 24 18 18 24 18 18 24 18 18 23 17 17 24 18 20 25 19 19 24 18 18 24 18 18 25 19 19 24 18 18 24 18 18 23 17 21 
41 0 32 42 1 31 38 2 30 41 0 30 41 0 32 42 1 31 43 0 30 44 1 28 45 1 26 44 0 28 44 1 29 42 1 31 41 0 32 42 1 35 41 1 35 40 0 34 42 1 43 42 1 41 39 0 44 43 0 45 33 0 43 29 1 42 30 1 45 29 0 44 28 1 42 26 1 41 26 1 43 21 0 41 21 0 41 19 1 41 21 0 41 22 0 41 24 2 41 25 0 40 26 1 41 28 1 42 29 1 41 31 0 41 39 1 42 41 0 42 41 1 38 43 1 39 40 2 43 41 0 42 44 1 46 47 0 46 46 1 42 46 0 46 44 1 46 41 0 44 39 1 38 37 5 26 39 6 27 33 9 9 34 10 8 34 20 20 30 20 19 32 22 21 33 23 22 32 22 23 35 23 25 33 21 21 34 22 24 34 22 22 33 21 21 34 22 24 34 22 22 33 21 23 31 21 22 33 23 22 34 16 14 31 10 9 32 8 8 32 8 6 30 10 9 23 11 11 23 13 12 25 19 19 24 18 18 24 18 18 24 18 18 24 18 18 24 18 18 24 18 18 23 17 17 24 18 18 24 18 18 23 17 17 24 18 18 25 19 19 22 16 16 22 16 16 24 18 20 25 19 19 24 18 20 25 19 19 24 19 16 25 20 17 22 17 21 18 12 22 
44 0 33 42 1 33 40 0 34 43 2 36 41 0 34 42 1 35 41 0 32 45 2 32 43 0 28 42 1 35 41 1 35 41 1 36 37 1 37 36 0 38 36 0 38 37 0 36 38 1 44 36 1 43 36 0 44 36 0 44 27 0 43 26 0 45 27 0 43 27 0 43 26 1 43 22 0 41 22 1 42 19 1 41 21 0 41 19 1 41 19 1 41 22 0 41 22 0 41 24 2 41 25 0 40 25 0 40 26 1 41 28 2 41 33 1 38 35 0 40 36 0 38 37 1 39 38 0 43 41 0 42 42 1 45 44 1 46 42 1 45 43 0 45 42 1 45 38 1 45 38 1 42 34 5 27 36 7 27 31 7 5 33 9 7 30 18 18 31 21 20 33 21 21 33 21 21 33 21 21 34 22 22 33 21 21 33 21 23 33 21 21 34 22 22 34 22 24 33 21 21 32 20 20 32 22 23 32 22 21 33 15 13 32 11 10 33 9 9 31 7 5 29 9 8 23 11 11 24 14 13 25 19 19 24 18 18 24 18 18 23 17 17 24 18 18 24 18 18 24 18 18 24 18 18 24 18 18 25 19 19 24 18 18 23 17 17 24 18 18 23 17 17 23 17 17 24 18 20 25 19 19 24 18 20 24 18 20 22 17 21 21 16 22 16 13 24 15 11 28 
