P3
100 50
255
12 16 2 12 16 2 12 14 1 12 14 3 19 9 7 19 9 7 27 6 11 27 6 11 27 6 11 26 5 10 26 5 12 26 5 10 24 5 11 22 5 11 21 4 10 24 5 11 22 5 11 22 5 11 22 5 11 22 5 11 22 5 11 22 5 11 24 5 11 22 5 11 21 4 10 22 5 11 22 5 11 22 5 11 22 5 11 22 5 11 21 4 10 21 4 10 22 5 11 22 5 11 21 4 10 22 5 11 21 4 10 21 4 10 21 4 10 22 5 11 21 4 10 22 5 11 22 5 11 21 4 10 21 4 10 21 4 10 22 5 11 22 5 11 23 7 10 21 6 11 20 5 10 18 6 10 15 4 10 16 3 10 17 4 11 16 3 10 17 4 11 16 3 10 17 4 11 16 3 10 16 3 10 17 4 11 16 3 10 17 4 11 17 5 9 17 5 9 15 3 7 16 4 8 16 4 8 16 4 8 16 4 8 16 4 8 15 4 8 16 4 8 17 5 9 17 5 9 16 5 9 15 4 8 15 4 8 16 4 8 16 4 8 17 5 9 16 4 8 17 5 9 16 4 8 15 3 7 16 4 8 17 5 9 16 5 9 15 4 8 15 4 8 16 4 8 16 4 8 15 4 8 16 4 8 16 4 8 16 4 8 15 4 8 15 4 8 15 4 8 
11 15 0 11 15 1 12 16 2 12 14 3 19 9 7 19 9 7 26 5 10 26 7 11 26 7 11 26 5 10 26 7 11 25 6 10 25 6 12 22 5 11 21 4 10 22 5 11 22 5 11 22 5 11 22 5 11 22 5 11 22 5 11 21 4 10 22 5 11 22 5 11 22 5 11 22 5 11 22 5 11 21 4 10 21 4 10 23 6 12 21 4 10 21 4 10 22 5 11 22 5 11 21 4 10 21 4 10 21 4 10 21 4 10 21 4 10 20 3 9 22 5 11 21 4 10 21 4 10 21 4 10 22 5 11 20 3 9 21 4 10 22 5 11 21 6 9 20 5 8 20 5 10 20 5 10 15 4 10 16 3 10 18 5 12 16 3 10 17 4 11 17 4 11 16 3 10 16 3 10 17 4 11 17 4 11 17 4 11 16 3 10 16 4 8 16 4 8 17 5 9 16 4 8 16 4 8 15 3 7 16 4 8 16 4 8 16 4 8 15 4 8 16 4 8 15 4 8 15 4 8 16 4 8 15 4 8 15 4 8 16 5 9 17 5 9 17 5 9 16 5 9 16 5 9 17 5 9 16 4 8 16 5 9 16 5 9 16 4 8 16 4 8 15 4 8 15 4 8 16 4 8 16 4 8 15 4 8 15 4 8 15 4 8 15 4 8 15 4 8 
18 11 5 19 9 7 23 7 8 23 7 10 23 7 10 22 7 10 21 5 8 23 4 10 22 5 11 24 5 11 24 5 11 22 5 11 22 5 11 22 5 11 21 4 10 22 5 11 22 5 11 23 6 12 21 4 10 22 5 11 22 5 11 21 4 10 22 5 11 22 5 11 21 4 10 22 5 11 22 5 11 22 5 11 22 5 11 21 4 10 21 4 10 21 4 10 21 4 10 21 4 10 21 4 10 21 4 10 20 5 10 21 4 10 21 4 10 21 4 10 22 5 11 21 4 10 21 4 10 21 4 10 22 5 11 21 4 10 21 4 10 21 4 10 23 8 11 20 5 8 20 5 10 20 5 8 15 4 10 16 5 9 16 3 10 17 4 11 17 5 9 16 4 8 16 4 8 16 4 8 16 4 8 16 4 8 16 4 8 16 4 8 16 4 8 16 4 8 17 5 9 17 5 9 17 5 9 16 4 8 16 4 8 16 4 8 15 4 8 16 4 8 16 4 8 14 3 7 15 4 8 15 4 8 15 4 8 16 5 9 17 5 9 16 5 9 15 4 8 16 4 8 16 4 8 16 5 9 15 4 8 16 4 8 15 4 8 15 4 8 15 4 8 15 4 8 15 4 8 15 4 8 15 4 8 16 4 8 15 4 8 15 4 8 15 4 8 15 4 8 
21 10 8 21 9 11 23 6 12 25 6 10 25 6 10 23 6 12 22 6 7 22 5 13 22 5 11 21 4 10 21 5 8 21 4 10 23 6 12 21 4 10 21 5 8 22 5 11 22 5 11 22 5 11 21 4 10 21 4 10 22 5 11 21 4 10 22 5 11 22 5 11 22 5 11 22 5 11 21 4 10 21 4 10 22 5 11 21 4 10 20 3 9 21 4 10 21 4 10 20 5 10 19 4 9 20 3 9 20 5 10 21 4 10 21 4 10 21 4 10 21 4 10 21 4 10 22 5 11 21 4 10 20 3 9 21 4 10 21 4 10 21 4 10 21 6 9 21 6 9 19 4 9 19 4 7 15 4 8 15 4 8 17 4 11 16 3 10 16 4 8 16 4 8 16 4 8 16 4 8 17 5 9 17 5 9 16 4 8 16 4 8 18 6 10 16 4 8 16 4 8 16 4 8 16 4 8 16 4 8 16 4 8 16 4 8 15 4 8 16 4 8 18 3 8 15 4 8 15 4 8 16 5 9 15 4 8 16 5 9 15 4 8 15 4 8 15 4 8 15 4 8 16 5 9 15 4 8 15 4 8 15 4 8 17 6 10 16 4 8 15 4 8 15 4 8 15 4 8 15 4 8 16 4 8 16 4 8 15 4 8 16 4 8 15 4 8 15 4 8 
21 6 9 22 6 9 21 4 10 22 5 11 23 4 10 22 5 11 20 3 11 20 3 11 20 3 9 21 4 10 20 5 10 21 4 10 22 5 11 20 5 10 21 4 10 23 6 12 22 5 11 22 5 11 21 4 10 22 5 11 22 5 11 21 4 10 22 5 11 22 5 11 21 4 10 21 4 10 21 4 10 21 4 10 21 4 10 21 4 10 21 4 10 21 4 10 21 4 10 21 4 10 21 4 10 20 5 10 21 4 10 20 5 10 20 3 9 21 4 10 21 4 10 22 5 11 21 4 10 20 5 10 20 5 10 20 5 10 19 4 9 20 5 10 21 6 9 21 6 9 19 7 9 18 6 10 15 4 10 15 4 8 15 4 8 16 4 8 17 4 11 16 3 10 16 3 10 16 3 10 16 5 11 15 4 10 15 4 10 15 4 10 15 5 6 14 3 9 15 4 10 15 4 10 15 4 10 15 4 10 14 3 9 15 4 8 15 4 8 14 3 7 15 4 8 14 3 7 15 4 8 14 3 7 15 4 8 14 3 7 16 5 9 16 5 9 15 4 8 15 4 8 15 4 8 15 4 8 15 4 8 14 5 8 15 4 8 16 4 8 16 4 8 14 3 7 16 4 6 15 4 8 15 5 6 14 3 7 15 4 8 14 3 7 16 4 8 17 5 7 
21 4 10 22 5 11 22 5 11 22 5 11 21 4 10 21 4 10 22 5 11 22 5 11 21 4 10 22 5 11 21 4 10 21 4 10 21 4 10 22 5 11 22 5 11 22 5 11 21 4 10 21 4 10 22 5 11 22 5 11 22 5 11 21 4 10 21 4 10 21 4 10 21 4 10 21 4 10 21 4 10 21 4 10 21 4 10 21 4 10 21 4 10 21 4 10 22 5 11 21 4 10 21 4 10 21 4 10 20 3 9 20 3 9 21 4 10 21 4 10 21 4 10 22 5 11 21 4 10 20 5 10 20 5 10 20 5 10 20 5 10 20 5 10 22 7 10 20 5 8 18 6 8 18 6 10 15 4 10 16 5 9 15 4 8 15 4 8 16 4 8 16 4 8 16 4 8 16 5 9 15 4 10 15 4 10 15 4 10 15 4 10 15 4 8 15 4 10 15 4 10 14 3 9 14 3 9 15 4 10 15 4 8 15 4 8 15 4 8 14 3 7 15 4 8 14 3 7 15 4 8 14 3 7 15 4 8 15 4 8 15 4 8 16 4 8 15 4 8 15 4 8 15 4 8 15 4 8 15 4 8 14 5 8 15 4 8 15 4 8 15 4 8 15 4 8 15 4 8 15 4 8 15 4 8 16 4 8 16 4 8 15 3 7 19 4 9 16 4 6 
21 4 12 22 5 11 21 4 10 22 5 11 21 4 10 21 4 10 21 6 11 20 5 8 21 4 10 21 4 10 22 5 11 20 5 10 20 5 10 21 4 10 21 4 10 21 4 10 22 5 11 22 5 11 21 4 10 21 4 10 21 4 10 22 5 11 21 4 10 22 5 11 21 4 10 21 4 10 21 4 10 22 5 11 22 5 11 21 4 10 21 4 10 21 4 10 22 5 11 22 5 11 20 5 10 21 4 10 21 6 11 21 4 10 20 5 10 21 4 10 21 4 10 21 4 10 21 4 10 20 5 10 21 6 11 20 5 10 21 6 11 21 6 11 21 6 9 21 6 9 21 6 9 18 6 10 15 4 10 15 4 8 16 5 9 15 4 8 15 4 8 15 4 8 14 3 7 15 4 8 15 4 8 15 4 8 14 3 9 15 4 10 15 4 10 15 4 10 15 4 10 15 4 10 15 4 10 15 4 8 15 4 8 15 4 8 15 4 8 15 4 8 15 4 8 15 4 8 16 5 9 15 4 8 15 4 8 15 4 8 15 4 8 15 4 8 16 4 8 15 4 8 15 4 8 15 4 8 15 4 8 15 4 8 15 4 8 15 4 8 15 4 8 16 4 8 14 4 5 16 4 6 17 5 7 18 3 6 16 4 8 16 4 8 15 4 8 16 4 6 
24 5 11 22 5 11 21 4 10 21 4 10 20 5 10 21 4 10 23 4 10 21 4 10 22 5 11 22 5 11 21 4 10 21 4 10 21 4 10 21 4 10 21 4 10 22 5 11 21 4 10 21 4 10 22 5 11 21 4 10 21 4 10 21 4 10 21 4 10 21 4 10 21 4 10 22 5 11 21 4 10 21 4 10 21 4 10 21 4 10 22 5 11 21 4 10 21 4 10 21 4 10 22 5 11 22 5 11 20 5 10 21 4 10 21 4 10 21 4 10 21 4 10 23 6 12 21 4 10 20 5 10 21 6 11 20 5 10 20 5 10 20 5 10 21 6 9 21 6 9 21 6 9 18 6 10 15 4 10 15 4 8 15 4 8 16 5 9 15 4 10 15 4 10 15 4 10 14 3 9 15 4 10 14 3 9 14 3 9 15 4 10 15 4 10 15 4 10 15 4 10 15 4 8 15 4 8 15 4 10 15 4 8 15 4 8 15 4 8 15 4 8 15 4 8 15 4 8 15 4 8 15 4 8 15 4 8 15 4 8 15 4 8 15 4 8 15 4 8 15 4 8 15 4 8 15 4 8 15 4 8 15 4 8 15 4 8 15 4 8 15 4 8 15 5 6 15 4 8 16 4 6 18 3 6 16 4 6 16 6 7 16 4 6 14 3 7 15 4 8 
22 5 11 22 5 11 21 4 10 21 4 10 21 4 10 21 4 10 21 4 10 21 4 10 21 4 10 22 5 11 22 5 11 21 4 10 21 4 10 21 4 10 21 4 10 22 5 11 21 4 10 22 5 11 21 4 10 21 4 10 21 4 10 22 5 11 21 4 10 21 4 10 22 5 11 21 4 10 21 4 10 21 4 10 21 4 10 21 4 10 21 4 10 22 5 11 22 5 11 21 4 10 21 4 10 20 5 10 22 5 11 22 5 11 22 5 11 22 5 11 21 4 10 21 4 10 21 4 10 20 5 10 20 5 10 20 5 10 19 4 9 20 5 10 22 7 10 20 5 8 18 6 8 18 6 10 15 4 10 15 4 8 15 4 8 16 4 8 15 4 10 15 4 10 15 4 10 15 4 10 15 4 10 15 4 10 15 4 10 15 4 10 15 4 10 15 4 10 15 4 8 15 4 8 15 4 8 15 4 8 15 4 8 15 4 8 15 4 8 15 4 8 15 4 8 15 4 8 15 4 8 15 4 8 15 4 8 15 4 8 15 4 8 15 4 8 15 4 8 15 4 8 14 5 8 15 4 8 15 4 8 16 4 8 15 4 8 15 4 8 16 4 8 16 4 8 16 4 8 16 4 4 16 4 8 16 4 6 16 4 6 16 4 6 14 3 7 14 3 7 
23 4 10 21 4 10 20 3 9 22 5 11 21 4 10 21 4 10 21 4 10 21 4 10 21 4 10 18 6 10 20 5 10 20 3 9 21 4 10 20 5 10 18 6 10 21 4 10 21 4 10 21 4 10 22 5 11 21 4 10 21 4 10 21 4 10 21 4 10 21 4 10 21 4 10 21 4 10 22 5 11 21 4 10 21 4 10 22 5 11 21 4 10 21 4 10 21 4 10 20 5 10 21 4 10 20 5 10 21 4 10 20 5 10 21 4 10 22 5 11 21 4 10 22 5 11 21 4 10 20 5 10 20 5 10 20 5 10 20 5 10 20 5 10 21 6 9 20 5 8 18 6 8 18 6 10 15 4 10 15 4 8 15 4 8 16 4 8 15 5 6 16 5 9 15 4 8 15 4 8 15 4 8 16 5 9 15 4 8 15 4 8 15 4 10 15 4 8 15 4 8 15 4 8 15 4 8 15 4 8 15 4 8 15 4 8 15 4 8 15 4 8 15 4 8 15 4 8 14 3 7 15 4 8 15 4 8 15 4 8 15 4 8 15 4 8 15 4 8 15 4 8 15 4 8 15 4 8 16 4 8 16 4 8 16 4 6 16 5 9 17 5 7 16 4 6 17 5 9 15 4 8 14 3 7 13 2 6 14 3 7 14 3 7 12 6 8 13 2 6 
21 4 10 21 4 10 21 4 10 20 5 10 21 4 10 19 4 9 20 5 10 21 4 10 21 4 10 20 5 10 20 5 10 21 6 11 20 5 10 20 5 10 20 5 10 20 3 9 21 4 10 21 4 10 21 4 10 21 4 10 21 4 10 21 4 10 21 4 10 21 4 10 21 4 10 21 4 10 21 4 10 21 4 10 21 4 10 21 4 10 21 4 10 21 4 10 22 5 11 22 5 11 21 4 10 22 5 11 21 4 10 21 4 10 21 4 10 20 3 9 21 4 10 21 4 10 21 4 10 20 5 10 20 5 10 20 5 10 20 5 10 20 5 10 21 6 9 20 5 8 18 6 8 18 6 10 15 4 10 15 4 8 14 3 7 16 5 9 15 4 8 16 5 9 16 5 9 14 3 7 16 5 9 15 4 8 15 4 8 15 4 8 14 3 9 15 4 8 15 5 6 15 4 8 15 4 8 15 4 8 15 4 8 14 3 7 15 4 8 15 4 8 15 4 8 15 4 8 15 4 8 15 4 8 15 4 8 15 4 8 15 4 8 15 4 8 15 4 8 16 4 8 15 4 8 15 4 8 15 4 8 16 4 8 16 4 8 16 4 6 16 4 8 16 4 6 15 3 7 14 3 7 14 3 7 13 2 6 13 2 6 14 3 7 14 3 7 12 3 6 
21 4 10 21 4 10 21 4 10 20 5 10 22 5 11 20 5 10 20 5 10 20 5 10 20 5 10 21 4 10 20 5 10 19 4 9 19 4 9 19 4 9 21 4 10 20 5 10 21 4 10 21 4 10 21 4 10 21 4 10 21 4 10 20 3 9 21 4 10 20 3 9 21 4 10 21 4 10 21 4 10 21 4 10 21 4 10 21 4 10 21 4 10 21 4 10 21 4 10 21 4 10 21 6 11 22 5 11 21 6 11 22 5 11 21 4 10 21 4 10 21 4 10 22 5 11 21 4 10 20 5 10 21 6 11 20 5 10 20 5 10 20 5 10 21 6 9 20 5 8 20 5 8 18 6 10 15 4 10 14 3 7 15 4 8 15 4 8 15 4 10 16 5 11 15 4 10 15 4 8 15 4 8 15 4 8 15 4 8 15 4 8 15 4 10 15 4 8 14 3 7 15 4 8 15 4 8 14 3 7 15 4 8 15 4 8 15 4 8 15 4 8 15 4 8 15 4 8 16 5 9 15 4 8 15 4 8 15 4 8 16 5 9 16 5 9 17 5 9 17 5 9 17 5 9 16 5 9 15 4 8 15 4 8 12 3 6 14 3 7 13 4 7 13 4 7 12 3 6 14 3 7 14 3 7 14 3 7 13 4 7 13 4 7 13 4 7 13 2 6 
21 4 10 21 4 10 20 5 10 19 4 9 20 5 10 20 5 10 21 4 10 21 4 10 20 5 10 19 4 9 20 3 9 19 4 9 19 4 9 19 4 9 20 3 9 21 4 10 21 4 10 21 4 10 20 3 9 20 3 9 21 4 10 22 5 11 21 4 10 21 4 10 21 6 11 21 4 10 22 5 11 20 5 10 20 5 10 21 4 10 22 5 11 19 4 9 20 5 10 21 4 10 21 6 11 20 5 10 22 5 11 22 5 11 20 5 10 21 4 10 21 4 10 22 5 11 21 4 10 21 4 10 24 5 11 21 4 10 20 3 9 21 4 10 21 6 9 19 7 9 18 6 8 18 6 8 15 4 8 15 4 8 15 4 8 15 4 10 15 4 8 15 4 8 15 4 8 16 5 9 15 4 8 15 4 8 15 4 8 15 4 8 14 3 7 15 4 8 14 3 7 15 4 8 16 5 9 15 4 8 14 3 7 15 4 8 16 4 8 15 3 7 15 4 8 15 4 8 14 3 7 15 4 8 15 4 8 15 4 8 15 4 8 17 5 9 16 4 8 17 5 9 17 5 9 16 4 8 15 4 8 14 3 7 13 4 7 12 3 6 14 5 8 13 4 7 13 4 7 13 4 7 13 4 7 13 4 7 14 5 8 13 4 7 13 4 7 13 4 7 
21 4 10 21 4 10 20 5 10 20 5 10 20 5 10 20 5 10 21 4 10 21 4 10 20 5 10 20 5 10 19 4 9 20 3 11 19 4 11 19 4 9 19 4 9 21 4 10 19 4 9 19 4 9 19 4 9 22 5 11 21 4 10 20 5 10 20 5 10 19 4 9 20 5 10 21 6 11 21 6 11 20 5 10 20 5 10 19 4 9 20 5 10 20 5 10 20 5 10 20 5 10 20 5 10 18 6 10 20 5 10 20 5 10 21 6 11 20 5 10 20 5 10 20 5 10 21 4 10 20 3 9 20 5 10 21 6 11 21 4 10 20 5 10 20 5 8 18 6 8 18 6 8 17 5 7 15 4 8 15 4 8 13 2 6 15 4 10 15 4 8 14 3 7 14 3 7 15 4 8 16 5 9 16 5 9 15 4 8 15 4 8 15 4 8 15 4 8 15 4 8 15 4 8 14 3 7 14 3 7 15 4 8 14 3 7 15 4 8 15 4 8 15 4 8 16 4 8 16 4 8 15 3 7 16 4 8 16 4 8 15 4 8 14 3 7 14 3 7 14 3 7 13 4 7 13 4 7 13 4 7 13 4 7 13 4 7 13 4 7 13 4 7 13 4 7 14 5 8 13 4 7 13 4 7 13 4 7 13 4 5 13 4 5 13 4 7 12 3 6 
21 4 10 20 3 9 20 5 10 19 4 9 20 5 10 19 4 9 21 4 10 20 3 9 19 4 9 19 4 9 19 4 9 19 4 11 21 4 12 21 4 10 20 5 10 19 4 9 20 3 9 20 5 10 20 5 10 20 5 10 20 5 10 20 5 10 20 5 10 21 4 10 22 5 11 20 5 10 20 5 10 21 4 10 22 5 11 21 6 11 20 5 10 21 4 10 20 5 10 20 3 9 20 5 10 21 4 10 20 3 9 20 3 9 20 5 10 21 4 10 20 5 10 19 4 7 21 5 8 20 4 7 21 4 10 21 4 10 21 4 10 20 5 8 21 6 9 18 6 8 18 6 8 19 7 11 15 4 8 15 4 10 15 4 8 15 4 8 15 4 8 15 4 8 16 5 9 15 4 8 13 2 6 15 4 8 15 4 8 15 4 8 15 4 8 15 4 8 15 4 8 15 4 8 14 3 7 14 3 7 15 4 8 15 4 8 14 3 7 14 3 7 16 5 9 16 4 8 17 5 9 17 5 9 17 5 9 17 5 9 15 4 8 15 4 8 16 4 8 13 4 7 14 3 7 14 3 7 14 3 7 13 4 7 13 4 7 14 5 8 13 4 7 13 4 7 13 4 7 13 4 7 13 4 7 13 4 7 13 4 7 14 3 7 14 3 7 12 3 6 
19 4 9 20 5 10 20 5 10 20 5 10 20 5 10 20 5 10 19 4 9 20 5 10 20 5 10 20 3 9 21 6 11 21 4 10 20 3 9 20 3 9 20 3 9 19 4 9 21 4 10 21 4 10 21 4 10 21 4 10 20 3 9 21 4 10 21 4 10 21 4 10 20 5 10 20 5 10 20 5 10 20 5 10 20 5 10 19 4 9 20 5 10 20 5 10 21 6 11 19 4 9 21 4 10 18 3 8 20 3 9 20 5 10 21 4 10 20 5 10 21 4 10 20 5 8 19 4 7 21 5 8 20 3 9 21 4 10 20 5 10 19 4 7 21 6 9 18 6 8 18 6 8 18 6 10 15 4 8 15 4 10 15 4 8 15 4 8 15 4 8 15 4 8 15 4 8 15 4 8 15 4 8 13 2 6 16 5 9 15 4 8 15 4 8 15 4 8 15 4 8 15 4 8 15 4 8 15 4 8 15 4 8 15 4 8 14 3 7 14 5 8 15 3 7 14 3 7 14 3 7 14 3 7 14 3 7 14 5 8 14 3 7 14 3 7 13 4 7 13 4 7 13 4 7 13 4 7 13 4 7 13 4 7 13 4 7 13 4 7 13 4 7 13 4 7 14 5 8 13 4 7 13 4 7 13 4 7 14 3 7 13 4 7 13 4 7 13 2 6 
20 5 10 20 5 10 20 5 10 20 5 10 20 5 10 20 5 10 20 5 10 20 5 10 19 4 9 20 5 10 20 5 10 20 5 10 20 5 10 22 5 11 20 5 10 20 5 10 20 3 9 21 4 10 21 4 10 21 4 10 20 3 9 21 4 10 21 4 10 21 4 10 20 5 10 20 3 9 21 4 10 21 6 11 20 5 10 21 4 10 23 6 12 20 5 10 20 5 10 20 5 10 19 4 9 21 4 10 20 5 10 20 3 9 20 5 10 20 5 10 20 5 10 19 4 7 20 5 8 20 5 8 20 5 10 20 5 10 19 4 9 20 5 8 20 5 8 18 6 8 18 6 8 17 5 9 15 4 8 15 4 10 14 3 7 15 4 8 16 5 9 14 3 7 14 3 7 15 4 8 15 4 8 15 4 8 14 3 7 16 5 9 15 4 8 15 4 8 15 4 8 15 4 8 15 4 8 15 4 8 15 4 8 14 3 7 14 3 7 15 4 8 13 4 7 14 3 7 14 3 7 14 3 7 14 3 7 14 3 7 14 3 7 14 3 7 14 3 7 13 4 7 14 5 8 15 4 8 14 3 7 12 3 6 14 3 7 14 3 7 14 3 7 14 3 7 14 3 7 14 3 7 14 3 7 13 2 6 13 4 5 14 3 7 14 3 7 14 5 8 
20 5 10 20 5 10 19 4 9 20 5 10 20 5 10 20 5 10 20 5 10 20 5 10 20 5 10 21 4 10 20 5 10 20 5 10 20 5 10 23 4 10 21 4 10 20 5 10 21 4 10 20 5 10 20 5 10 20 5 10 19 4 9 20 5 10 20 5 10 20 3 9 19 4 9 20 5 10 19 4 9 19 4 9 20 5 10 19 4 9 20 5 10 20 5 10 20 5 10 20 5 10 21 4 10 19 4 9 20 3 9 20 5 10 20 5 10 20 5 10 18 3 8 20 5 8 20 5 8 20 5 8 18 6 10 20 5 10 22 5 11 20 5 8 20 5 8 18 6 8 18 6 8 17 5 9 15 4 8 15 4 10 15 4 8 15 4 8 16 5 9 15 4 8 15 4 8 15 4 8 15 4 8 14 3 7 15 4 8 14 3 7 15 4 8 15 4 8 15 4 8 14 3 7 14 3 7 14 3 7 14 3 7 14 3 7 13 4 7 12 3 6 13 4 7 13 4 7 13 4 7 14 3 7 13 4 7 13 4 7 13 4 7 13 4 7 13 4 7 13 2 6 13 2 6 14 3 7 14 3 7 14 3 7 13 2 6 13 2 6 13 2 6 14 3 7 13 2 6 13 2 6 14 3 7 14 4 5 13 2 6 13 4 7 12 3 6 12 1 5 
20 5 10 20 5 10 20 5 10 20 5 10 19 4 9 20 5 10 20 5 10 21 6 11 21 6 11 20 5 10 21 4 10 20 5 10 21 4 10 17 5 9 20 3 9 19 2 8 20 5 10 21 6 11 20 5 10 20 3 9 21 4 10 21 6 11 19 4 9 20 5 10 21 4 10 19 4 9 20 5 10 21 4 10 20 3 9 21 6 11 20 5 10 21 4 10 22 5 11 20 3 9 21 4 10 20 3 9 20 5 10 21 4 10 20 3 9 20 3 9 21 4 10 20 5 10 20 5 10 21 4 10 20 5 10 20 3 9 21 4 10 19 4 9 20 5 10 18 6 10 18 6 8 17 5 7 15 4 8 15 4 10 15 4 8 15 4 8 15 4 8 15 4 8 15 4 8 15 4 8 15 4 8 15 4 8 14 3 7 14 3 7 15 4 8 15 4 8 14 3 7 14 3 7 14 3 7 12 3 6 12 3 6 13 4 7 12 3 6 13 4 7 13 4 7 13 4 7 14 3 7 13 4 7 13 4 7 13 4 7 13 4 7 13 4 7 13 4 7 13 4 7 12 3 6 13 4 7 12 3 6 13 4 7 13 2 6 14 3 7 13 2 6 14 3 7 13 2 6 14 3 7 13 3 4 13 3 4 13 4 7 13 2 6 13 2 6 13 4 7 
20 5 10 20 5 10 19 4 9 19 4 9 19 4 9 20 5 10 20 5 10 20 5 10 20 5 10 20 5 10 20 5 10 21 4 10 20 5 10 19 4 9 19 4 9 21 4 10 21 4 10 21 4 10 21 4 10 20 3 9 20 3 9 21 4 10 21 4 10 21 4 10 20 5 10 20 5 10 20 5 10 20 5 10 19 4 9 20 5 10 19 4 9 20 5 10 19 4 9 19 4 9 20 5 10 20 5 10 19 4 9 19 4 9 20 5 10 19 4 9 20 5 10 20 5 10 19 4 9 21 4 10 19 4 9 19 4 9 20 5 10 20 5 10 20 5 10 17 5 9 18 6 8 17 5 7 15 4 8 15 4 10 15 4 8 15 4 8 15 4 8 15 4 8 15 4 8 15 4 8 14 3 7 14 3 7 14 3 7 15 4 8 15 4 8 14 3 7 14 3 7 14 3 7 13 4 7 13 4 7 12 3 6 13 4 7 11 5 7 12 3 6 13 4 7 14 3 7 13 2 6 14 3 7 13 4 7 13 4 7 13 4 7 13 4 7 12 1 5 14 3 7 13 2 6 13 4 7 13 4 7 13 4 7 14 3 7 14 3 7 14 3 7 14 3 7 14 3 7 14 4 5 13 3 4 14 4 3 15 5 6 13 4 7 14 5 8 13 4 7 
21 6 11 21 4 10 20 5 10 19 4 9 19 4 9 20 3 9 19 4 9 20 5 10 22 5 11 18 3 8 20 5 10 20 5 10 20 5 10 19 4 9 19 4 9 21 4 10 20 5 10 19 4 9 19 4 7 20 5 10 20 5 8 20 5 10 20 5 8 20 5 8 21 6 11 20 5 10 21 4 10 22 5 11 21 4 10 20 3 9 19 4 9 19 4 9 20 5 10 20 5 10 19 4 9 19 4 9 20 5 10 19 4 9 19 4 9 19 4 9 19 4 9 19 4 9 19 4 9 24 5 11 20 5 10 20 5 8 20 5 8 19 4 7 17 5 7 20 5 8 17 7 8 17 5 7 14 3 9 14 3 7 13 4 7 14 3 7 15 4 8 15 4 8 14 3 7 14 3 7 13 2 6 14 3 7 13 4 7 12 3 6 13 4 7 13 4 7 13 4 7 13 4 7 13 4 7 13 4 7 13 4 7 13 4 7 12 3 6 12 3 6 13 4 9 14 3 7 13 4 7 13 2 6 14 3 7 14 3 7 13 4 7 13 4 5 13 4 7 13 4 7 13 4 7 12 3 6 13 4 9 13 4 5 13 4 5 14 3 7 16 4 8 14 3 7 14 5 8 13 4 7 13 4 7 14 4 5 13 4 7 13 4 7 13 4 7 12 3 6 
22 5 11 20 5 10 20 5 10 20 5 10 20 5 10 19 4 9 20 5 10 20 5 10 20 5 10 19 4 9 20 5 10 20 5 10 20 5 10 19 4 9 20 5 10 19 4 9 19 4 9 20 5 10 20 5 12 19 4 7 20 5 10 21 6 9 19 4 9 20 5 10 20 5 10 20 5 10 20 5 10 21 4 10 20 3 9 21 6 11 20 5 10 19 4 9 19 4 9 18 3 8 20 5 10 19 4 9 19 4 9 19 4 9 19 4 9 20 5 10 19 4 9 19 4 9 20 5 10 21 5 8 20 5 10 19 4 9 20 5 10 19 4 7 17 5 7 18 6 8 20 5 8 16 6 7 15 4 8 13 4 7 14 5 8 15 4 8 16 5 9 14 3 7 14 3 7 14 3 7 14 3 7 12 3 6 12 3 6 13 4 7 13 4 7 14 5 8 13 4 7 13 4 7 13 4 7 13 4 7 12 3 6 12 3 6 12 3 6 12 3 6 12 3 8 14 3 7 13 4 7 14 3 7 15 4 8 14 3 7 13 4 9 13 4 7 13 2 6 14 4 5 14 4 5 13 3 4 14 3 7 14 3 7 14 3 7 14 3 7 14 3 7 14 3 7 13 4 7 13 4 7 13 4 7 13 4 7 13 4 7 13 2 6 13 4 7 13 4 7 
20 5 10 19 4 9 18 6 10 21 4 10 19 4 9 21 4 10 19 4 9 19 4 9 20 5 10 19 4 9 20 5 10 20 5 10 19 4 9 19 4 9 19 4 9 20 5 10 19 4 9 20 5 10 20 5 10 19 4 9 19 4 9 19 4 9 19 4 11 19 4 11 19 4 9 19 4 9 20 5 10 19 4 9 20 5 10 19 4 9 18 3 8 20 5 10 19 4 9 19 4 9 19 4 9 19 4 9 19 4 9 19 4 9 19 4 9 19 4 9 19 4 9 20 5 8 20 5 10 21 4 10 21 6 11 20 5 10 20 5 10 19 4 9 17 5 7 17 5 7 18 6 8 16 6 7 14 5 8 14 5 8 13 4 7 13 4 7 13 4 7 13 4 7 13 4 7 13 4 7 12 3 6 14 3 7 13 2 6 14 3 7 14 5 8 13 4 7 13 4 7 13 4 7 12 3 6 13 4 7 12 3 6 12 3 6 12 3 6 13 4 7 12 3 8 12 3 6 12 3 6 13 2 6 13 2 6 14 3 7 13 4 7 13 4 7 13 4 7 13 4 7 13 4 7 13 4 7 14 4 5 15 5 6 14 3 7 13 4 7 13 4 7 13 4 5 14 4 5 14 3 7 14 3 7 10 4 6 13 4 7 12 3 6 13 4 7 12 3 6 
21 4 10 19 4 9 19 4 9 20 5 10 20 5 10 20 5 10 19 4 9 19 4 9 20 5 10 18 3 8 19 4 9 19 4 9 19 4 9 20 5 10 20 5 10 20 5 10 20 5 10 18 3 8 20 5 10 19 4 9 19 4 9 19 4 9 19 4 9 20 5 10 19 4 9 19 4 9 20 5 10 19 4 9 20 5 10 20 5 10 19 4 9 20 5 10 19 4 9 19 4 9 19 4 9 19 4 9 19 4 9 19 4 9 19 4 9 20 5 10 20 5 8 20 5 10 20 5 10 20 5 10 21 6 9 19 4 9 20 5 10 20 5 8 17 5 7 18 6 8 18 6 8 17 7 8 12 6 8 15 5 6 11 5 9 13 4 7 13 4 7 14 5 8 13 4 7 13 4 7 13 4 7 13 4 7 13 4 7 12 3 6 13 4 7 13 4 7 13 4 7 12 3 6 12 3 6 13 4 7 11 2 5 12 3 6 13 4 7 13 4 7 13 4 9 12 3 6 13 4 7 12 3 6 14 3 7 14 3 7 13 4 5 13 4 7 13 4 7 13 4 7 13 4 7 13 4 5 13 4 5 14 4 5 13 2 6 13 2 6 13 4 7 13 4 7 15 4 8 13 4 7 13 4 7 13 4 7 12 3 6 12 3 6 12 3 6 13 4 7 
20 5 10 19 4 9 20 5 10 20 5 10 20 5 10 20 5 10 20 5 10 17 5 9 19 4 9 19 4 9 19 4 9 20 5 10 19 4 9 20 5 10 19 4 9 20 5 10 20 5 10 19 4 9 19 4 9 19 4 9 19 4 9 19 4 9 19 4 7 19 4 9 19 4 9 19 4 9 20 5 10 19 4 9 20 5 10 19 4 9 19 4 9 19 4 9 18 3 8 19 4 9 19 4 9 18 3 8 20 5 10 19 4 9 20 5 10 19 4 9 19 4 9 19 4 7 20 5 8 20 5 10 19 4 9 20 5 8 19 4 7 18 3 8 17 5 5 17 5 5 17 5 9 15 4 8 12 3 8 12 3 6 12 3 6 12 3 6 13 4 7 13 4 7 13 4 7 13 4 7 13 4 7 13 4 7 12 3 6 14 3 7 13 4 7 12 3 6 13 4 7 13 4 7 12 3 6 12 3 6 12 3 6 12 3 6 12 3 6 12 3 6 12 3 8 12 3 6 12 3 6 12 3 6 14 3 7 14 3 7 12 3 6 13 4 7 13 4 5 13 4 5 12 3 4 13 3 4 14 4 5 15 5 6 13 4 7 13 4 7 13 4 7 13 4 7 13 4 7 13 2 6 12 3 6 12 3 6 13 4 7 12 3 6 10 4 6 10 4 6 
20 5 10 20 5 10 19 4 9 20 5 10 20 5 10 19 4 9 20 5 10 19 4 9 19 4 9 18 3 8 18 3 8 19 4 9 20 5 10 21 6 11 20 5 10 19 4 9 19 4 9 20 5 10 18 3 6 19 4 11 19 4 9 19 4 9 19 4 9 18 3 8 19 4 9 20 5 10 20 5 10 20 5 10 19 4 9 19 4 9 19 4 9 20 5 10 19 4 9 18 3 8 19 4 9 19 4 9 20 5 10 20 5 10 19 4 9 18 3 8 19 4 7 19 4 9 19 4 9 19 4 7 19 4 9 20 5 10 19 4 7 17 5 9 17 5 7 17 5 7 17 5 7 15 4 8 12 3 8 13 4 9 12 3 6 13 4 7 12 3 6 13 4 7 12 3 6 13 4 7 12 3 6 12 3 6 12 3 6 12 3 6 13 4 7 14 5 8 13 4 7 12 3 6 12 3 6 12 3 6 12 3 6 12 3 6 12 3 6 13 4 7 12 3 8 13 4 7 12 3 6 13 4 7 14 3 7 14 5 8 12 3 6 13 4 7 13 4 7 13 4 7 13 4 5 13 4 5 13 4 5 13 4 5 13 3 4 12 3 6 13 4 7 12 3 6 13 4 7 14 3 7 13 4 7 12 3 4 12 3 6 13 2 6 12 3 6 9 3 5 
19 4 9 20 5 10 19 4 9 20 5 10 19 4 9 19 4 9 19 4 9 17 5 9 18 3 8 20 5 10 19 4 9 20 5 10 19 4 9 19 4 9 20 5 10 19 4 9 19 4 9 19 4 7 19 4 9 19 4 9 19 4 9 20 5 10 20 5 10 20 5 8 20 5 10 19 4 9 20 5 10 20 5 10 19 4 9 19 4 9 19 4 9 19 4 9 19 4 9 20 5 10 20 5 10 20 5 10 20 5 10 21 6 11 20 5 10 20 5 10 19 4 9 20 5 10 19 4 7 20 5 10 20 5 10 19 4 9 19 4 7 18 6 10 16 4 6 17 5 7 15 4 8 16 5 9 12 3 8 12 3 8 12 3 6 12 3 6 12 3 6 12 3 6 13 4 7 13 4 7 13 4 7 12 3 6 13 4 7 12 3 6 13 4 7 13 4 7 13 4 7 13 4 7 13 4 7 12 3 6 12 3 6 12 3 6 12 3 6 12 3 6 12 3 8 12 3 6 12 3 6 12 3 6 13 4 7 12 3 6 12 3 6 13 4 7 12 3 6 12 3 6 12 3 6 12 3 6 13 4 5 13 4 5 12 3 6 12 3 6 13 4 7 12 3 6 13 4 7 12 3 6 12 3 6 12 3 6 12 3 6 10 4 6 12 3 6 12 3 6 
20 5 10 19 4 9 18 6 10 21 6 11 19 4 9 19 4 9 17 5 9 19 4 9 19 4 9 19 4 9 19 4 9 17 5 9 17 5 9 19 4 9 19 4 9 20 5 10 20 5 8 19 4 9 20 5 10 19 4 9 19 4 9 19 4 9 19 4 9 21 6 13 19 4 9 19 4 9 20 5 10 20 5 10 19 4 9 20 5 10 19 4 9 20 5 10 19 4 9 20 5 10 20 5 10 19 4 9 20 5 10 19 4 9 20 5 10 20 5 10 19 4 9 20 5 10 20 3 9 19 4 9 20 5 8 19 4 7 20 5 10 16 6 7 16 4 6 16 5 9 16 5 9 16 5 9 13 4 9 13 4 7 13 4 9 14 3 9 13 4 7 12 3 6 13 4 7 12 3 6 13 4 7 13 4 7 13 4 7 12 3 6 13 4 7 12 3 6 13 4 7 12 3 6 13 4 7 13 4 7 12 3 6 13 4 7 12 3 6 13 4 7 12 3 8 13 4 7 12 3 6 13 4 7 12 3 6 13 4 7 12 3 6 12 3 6 12 3 6 12 3 6 12 3 6 13 4 7 13 4 7 12 3 8 12 3 6 12 3 6 12 3 6 12 3 4 12 3 4 10 4 6 12 3 6 12 3 6 12 3 6 12 3 6 10 4 6 10 4 6 
19 4 9 20 3 9 19 4 9 20 5 10 17 5 9 17 5 9 19 4 9 19 4 9 19 4 9 18 3 8 18 3 8 19 4 9 19 4 9 19 4 9 19 4 9 19 4 9 16 4 8 19 4 9 20 5 10 18 6 10 19 4 9 19 4 9 19 4 9 18 6 10 20 5 10 19 4 9 19 4 9 19 4 9 19 4 9 19 4 9 19 4 9 18 3 8 19 4 9 19 4 9 19 4 9 19 4 9 20 4 7 19 4 9 19 4 7 20 5 8 19 5 5 21 5 8 19 4 7 20 5 10 19 4 9 17 5 9 19 4 9 18 3 8 16 4 8 16 4 6 15 4 8 15 4 8 13 4 7 12 3 6 13 4 9 12 3 6 12 3 8 13 4 7 12 3 4 13 4 7 13 4 7 12 3 8 12 3 6 14 5 8 12 3 6 13 4 7 12 3 6 12 3 6 12 3 6 13 4 7 12 3 6 13 4 7 12 3 6 12 3 6 12 3 6 12 3 6 12 3 6 12 3 6 12 3 6 12 3 6 13 4 7 13 4 7 12 3 6 13 4 7 12 3 6 12 3 6 11 2 5 12 3 6 9 3 3 10 4 4 11 5 5 10 4 4 12 3 4 11 2 3 12 3 4 12 3 4 9 3 5 10 4 6 10 4 6 9 3 5 
20 5 8 20 5 10 19 4 9 20 5 10 18 6 8 20 5 8 19 4 7 16 4 8 17 5 9 17 5 9 16 4 8 17 5 9 17 5 9 17 5 9 18 3 8 19 4 9 18 6 10 19 4 9 16 4 8 18 3 8 19 4 9 19 4 9 19 4 9 18 6 10 20 5 10 19 4 9 19 4 9 19 4 9 19 4 9 20 5 10 21 6 11 19 4 9 19 4 9 20 5 10 20 5 10 20 5 10 19 4 9 20 5 8 19 4 7 19 4 7 19 4 7 19 4 7 19 4 9 19 4 9 19 4 9 17 5 9 19 4 9 17 5 9 16 4 8 15 5 6 15 4 8 15 4 8 11 5 7 12 3 6 14 3 9 12 3 6 12 3 8 14 5 8 13 4 7 13 4 7 13 4 7 12 3 6 12 3 6 13 4 7 12 3 6 13 4 7 13 4 7 12 3 6 12 3 6 11 2 5 13 4 7 13 4 7 13 4 7 12 3 6 13 4 7 13 4 7 11 2 5 12 3 6 12 3 6 12 3 6 13 5 3 14 5 6 12 3 6 13 4 5 12 3 4 13 4 7 12 3 4 12 4 2 12 3 4 11 2 3 12 3 4 12 3 4 10 4 4 10 4 4 10 4 4 10 4 4 10 4 6 9 3 5 9 3 5 10 4 6 
19 4 9 19 4 9 19 4 9 19 4 9 17 5 9 19 4 9 16 4 8 17 5 9 16 4 8 16 4 8 16 4 8 16 4 8 16 4 8 16 4 8 18 3 8 18 3 8 18 6 10 19 4 9 18 3 8 19 4 9 20 5 10 19 4 9 20 5 10 18 6 10 20 5 10 19 4 9 19 4 9 20 5 10 19 4 9 20 5 10 19 4 9 19 4 9 19 4 9 19 4 9 19 4 9 20 5 8 20 5 8 19 5 5 19 4 7 20 5 8 19 4 7 19 4 9 19 4 9 19 4 9 18 3 8 17 5 9 16 4 8 17 5 9 17 5 9 15 5 6 14 5 8 15 4 8 13 4 7 11 5 7 13 4 9 12 3 6 12 3 8 12 3 6 12 3 6 13 4 7 13 4 7 12 3 6 11 2 5 12 3 6 12 3 6 12 3 6 13 4 7 12 3 6 12 3 6 12 3 6 12 3 6 12 3 6 13 4 7 13 4 7 11 2 5 12 3 6 12 3 6 13 4 7 12 3 6 12 3 6 13 4 5 13 4 5 13 4 7 10 4 6 12 3 6 10 4 6 12 3 4 12 3 4 12 3 6 12 3 6 12 3 6 11 2 5 9 3 5 10 4 6 8 2 4 9 3 5 10 4 6 9 3 5 9 3 5 10 4 6 
19 4 9 19 4 9 19 4 9 19 4 9 17 5 9 18 3 8 17 5 9 17 5 9 16 4 8 16 4 8 17 5 9 17 5 9 16 4 8 16 4 8 19 4 9 19 4 9 16 4 8 16 4 8 19 4 9 20 5 10 19 4 9 19 4 9 19 4 9 19 4 9 19 4 9 19 4 9 20 5 10 19 4 9 20 5 10 19 4 9 20 5 10 19 4 9 20 5 8 20 5 8 19 4 7 20 4 7 20 5 8 20 5 8 20 5 8 19 4 7 19 4 9 18 3 8 19 4 9 16 4 8 16 4 8 16 4 8 16 4 8 16 4 8 17 5 9 15 6 7 16 5 9 15 4 8 12 3 6 12 3 6 12 3 8 13 4 7 13 4 9 13 4 9 13 4 7 13 4 7 12 3 6 12 3 6 12 3 6 13 4 7 12 3 6 13 4 7 13 4 7 12 3 6 12 3 6 12 3 6 11 2 5 12 3 6 11 2 5 13 4 7 12 3 6 13 4 7 13 4 7 12 3 6 12 3 6 12 3 6 13 4 7 13 4 7 10 4 6 12 3 6 10 4 6 12 3 6 10 4 6 12 3 6 12 3 6 12 3 6 12 3 6 12 3 6 9 3 5 9 3 5 9 3 5 10 4 6 9 3 5 10 4 6 10 4 6 9 3 5 
19 4 9 19 4 9 19 4 9 19 4 9 17 5 9 17 5 9 16 4 8 17 5 9 16 4 8 16 4 8 16 4 8 16 4 8 17 5 9 16 4 8 16 4 8 17 5 9 17 5 9 17 5 7 19 4 7 19 4 9 19 4 9 19 4 7 19 4 7 18 3 8 21 6 11 18 3 8 19 4 9 20 5 10 20 5 10 20 5 10 20 5 10 20 5 10 20 5 8 20 5 8 19 4 7 19 4 7 17 5 7 17 5 7 18 3 6 19 4 7 18 3 8 16 4 8 18 3 8 16 4 8 16 4 8 16 4 8 16 4 8 16 4 8 16 4 8 15 5 6 13 4 7 14 3 7 13 4 7 13 4 7 12 3 8 13 2 6 13 4 9 13 4 9 12 3 8 12 3 6 12 3 6 12 3 6 12 3 6 13 4 7 13 4 7 13 4 7 13 4 7 13 4 7 13 4 7 13 4 7 12 3 6 12 3 6 13 4 7 12 3 6 12 3 6 11 2 5 11 2 5 12 3 6 12 3 6 12 3 6 13 5 3 13 4 7 12 3 6 12 3 6 12 3 6 13 4 7 12 3 6 12 4 2 12 3 6 12 3 6 13 4 7 12 3 6 10 4 6 9 3 5 9 3 5 9 3 5 9 3 5 9 3 5 9 3 5 9 3 5 
17 5 9 19 4 9 16 4 8 19 4 9 15 3 7 16 4 8 16 4 8 16 4 8 17 5 9 16 4 8 16 4 8 16 4 8 16 4 8 16 4 8 16 4 8 16 4 8 17 5 9 17 5 7 17 5 7 18 3 8 19 4 9 20 5 8 19 4 7 20 5 10 20 5 10 20 5 10 20 5 10 19 4 9 20 5 10 20 5 10 19 4 9 20 5 10 17 5 7 17 2 5 19 5 5 20 5 8 16 4 6 19 4 9 17 5 9 16 4 8 16 4 8 16 4 8 18 3 8 16 4 8 16 4 8 16 4 8 16 4 8 16 4 8 17 5 9 15 5 6 14 3 7 14 3 7 12 3 6 13 4 7 13 2 8 12 3 6 12 3 8 12 3 8 12 3 8 12 3 6 12 3 6 12 3 6 12 3 6 13 4 7 11 2 5 12 3 6 13 4 7 13 4 7 13 4 7 12 3 6 12 3 6 12 3 6 11 2 5 12 3 6 12 3 6 12 3 6 12 3 6 11 2 5 11 2 5 11 2 5 13 4 5 14 4 5 13 4 7 13 2 6 12 3 6 14 3 7 12 3 4 12 3 4 12 3 6 11 2 5 12 3 6 12 3 6 10 4 6 9 3 5 10 4 6 8 2 4 9 3 5 9 3 5 9 3 5 9 3 5 
19 4 9 18 6 10 17 5 9 19 4 9 16 4 8 16 4 8 15 3 7 17 5 9 16 4 8 16 4 8 17 5 9 16 4 8 16 4 8 16 4 8 17 5 9 16 4 8 16 4 6 16 4 8 16 4 8 16 4 6 17 5 7 19 4 9 20 5 10 20 5 8 19 4 9 19 4 9 20 5 10 19 4 9 20 5 10 18 3 8 20 5 10 19 4 9 19 4 7 19 4 7 17 5 7 17 5 9 17 5 9 19 4 9 17 5 9 16 4 8 16 4 8 16 4 8 16 4 8 16 4 8 16 4 8 15 3 7 16 4 8 15 3 7 16 4 8 15 5 6 15 4 8 15 4 8 13 4 7 13 4 7 10 4 8 12 3 6 12 3 6 12 3 8 12 3 8 12 3 8 12 3 6 13 4 7 12 3 6 12 3 6 12 3 6 13 4 7 13 4 7 12 3 6 13 4 7 13 4 7 12 3 6 13 4 7 12 3 6 12 3 6 12 3 6 12 3 6 12 3 6 12 3 6 12 3 6 12 3 6 12 3 6 13 4 7 12 3 4 12 3 4 12 3 4 13 4 5 12 3 6 10 1 4 13 4 7 12 3 6 12 3 6 11 2 5 10 4 6 10 4 6 8 2 4 9 3 5 9 3 5 9 3 5 9 3 5 9 3 5 
20 5 8 17 5 9 16 4 8 16 4 8 17 5 7 17 5 7 17 5 7 16 4 8 16 4 8 16 4 8 16 4 8 16 4 8 17 5 9 17 5 9 17 5 9 16 4 8 17 5 7 16 4 8 16 4 8 16 6 7 17 5 7 19 4 9 20 5 10 19 4 7 19 4 9 19 4 9 20 5 10 18 3 8 19 4 9 19 4 9 19 4 9 19 4 9 17 5 7 20 5 8 17 5 9 19 4 7 16 4 8 16 4 8 15 4 8 17 5 9 16 4 8 16 4 8 16 4 8 15 4 8 16 4 8 16 4 8 16 4 8 16 4 8 16 4 8 15 5 6 14 3 7 14 3 7 11 5 7 14 5 8 12 3 8 12 3 6 11 2 5 12 3 8 12 3 8 12 3 8 13 4 7 13 4 7 12 3 6 13 4 7 12 3 6 13 4 7 12 3 6 13 4 7 12 3 6 12 3 6 12 3 6 12 3 6 12 3 6 12 3 6 12 3 6 12 3 6 11 2 5 12 3 6 11 2 5 12 3 6 12 3 4 10 4 6 12 3 6 10 4 6 12 3 6 10 4 6 11 2 5 10 1 2 9 3 5 9 3 5 10 4 6 10 4 6 11 2 5 11 2 5 11 2 5 11 2 5 9 3 5 9 3 5 9 3 5 9 3 5 
18 6 8 17 5 9 16 4 8 15 3 7 17 5 9 16 4 8 17 5 9 16 4 6 18 6 10 16 4 8 18 6 10 17 5 7 17 5 7 18 6 10 15 3 7 16 4 8 17 5 9 17 5 9 17 5 9 16 4 8 17 5 9 18 6 10 18 6 10 20 5 10 19 5 5 19 4 7 18 3 6 18 3 8 19 4 9 19 4 9 19 4 9 18 3 8 19 4 9 19 4 9 17 5 9 16 4 8 16 4 8 16 4 8 16 4 8 15 4 8 16 4 8 16 4 8 16 4 8 16 4 8 17 5 9 16 4 8 16 4 8 15 3 7 18 3 8 15 4 8 15 4 8 14 3 7 13 4 7 14 3 7 12 3 6 11 5 7 13 4 7 12 3 8 12 3 8 12 3 8 12 3 8 13 4 7 13 4 7 12 3 6 13 4 7 13 4 7 12 3 6 12 3 6 12 3 6 12 3 6 12 3 6 12 3 6 10 4 6 10 4 6 12 3 6 12 3 6 12 3 6 12 3 6 12 3 6 12 3 6 11 2 5 12 3 6 10 4 6 10 4 6 10 4 6 10 4 6 9 3 5 10 4 6 11 2 5 11 2 5 11 2 5 11 2 5 11 2 5 12 3 6 10 4 6 9 3 5 9 3 5 9 3 5 9 3 5 9 3 3 
18 6 10 17 5 9 17 5 9 16 4 8 17 5 9 17 5 9 16 4 8 16 4 8 18 6 8 17 5 9 17 5 9 17 5 9 17 5 9 18 6 10 17 5 9 17 5 7 17 5 7 17 5 7 16 4 6 19 4 7 17 5 7 20 5 8 18 3 6 18 3 6 17 5 7 20 5 8 16 4 8 16 4 8 19 4 9 16 4 8 17 5 9 17 2 7 16 4 8 16 4 8 16 4 8 16 4 8 16 4 8 16 4 8 16 4 8 15 4 8 16 4 8 16 4 8 16 4 8 15 3 7 16 4 8 16 4 8 15 3 7 16 4 8 15 4 8 14 3 7 13 4 7 13 7 7 13 4 7 13 4 7 11 5 7 10 4 6 11 2 5 12 3 8 14 5 10 12 3 8 12 3 6 11 2 5 12 3 6 12 3 6 12 3 6 13 4 7 12 3 6 12 3 6 12 3 6 13 4 7 12 3 6 11 2 5 10 4 6 10 4 6 10 4 6 12 3 6 12 3 6 12 3 6 12 3 6 12 3 6 11 2 5 12 3 6 11 2 5 9 3 5 10 4 6 9 3 5 9 3 5 9 3 5 11 2 5 9 3 5 9 3 5 9 3 5 10 4 6 9 3 5 9 3 5 9 3 5 9 3 5 9 3 5 9 3 5 10 4 4 
17 5 9 16 4 8 18 6 10 17 5 7 15 3 5 17 5 9 16 4 8 16 4 8 17 5 7 15 3 7 16 4 8 15 3 7 16 4 8 17 5 9 17 5 9 17 5 7 16 5 9 16 4 8 17 5 9 17 5 9 19 4 9 19 4 9 19 4 9 19 2 8 20 5 8 20 5 10 18 3 8 17 5 9 19 4 9 17 5 9 16 4 8 18 3 8 16 4 8 16 4 8 16 4 8 16 4 8 16 4 8 16 4 8 16 4 8 16 4 8 16 4 8 16 4 8 15 3 7 15 3 7 16 4 8 16 4 8 16 4 8 16 4 8 15 4 8 14 4 5 15 3 7 15 5 6 13 4 7 13 4 7 11 5 7 12 3 6 12 3 6 12 3 6 12 3 8 12 3 8 12 3 6 11 2 5 12 3 6 12 3 6 12 3 6 11 2 5 12 3 6 13 4 7 12 3 6 12 3 6 11 2 5 12 3 6 12 3 6 12 3 6 12 3 6 10 4 6 10 4 6 10 4 6 10 4 6 10 4 6 11 2 5 12 3 6 9 3 5 9 3 5 9 3 5 9 3 5 8 2 4 9 3 5 9 3 5 9 3 5 9 3 5 9 3 5 10 4 6 11 5 7 9 3 5 9 3 5 10 4 6 9 3 5 9 3 5 9 3 5 
17 5 9 17 5 9 16 4 8 17 5 9 16 4 8 16 4 8 16 4 8 17 5 9 16 4 8 16 4 8 17 5 9 18 6 8 17 5 7 17 5 9 17 5 9 17 5 9 17 5 9 16 4 6 17 5 7 16 4 8 16 4 8 18 3 6 17 5 7 17 5 9 18 6 10 19 4 9 19 4 9 16 4 8 17 5 9 16 4 8 15 3 7 16 4 8 16 4 8 16 4 8 16 4 8 16 4 8 16 4 8 16 4 8 16 4 8 16 4 8 15 4 8 16 4 8 16 4 8 16 4 8 15 3 7 16 4 8 16 4 8 14 3 7 18 3 8 14 4 5 15 4 8 14 4 5 13 4 7 13 4 7 12 3 6 11 5 7 12 3 6 12 3 6 12 3 6 11 2 5 11 2 5 12 3 6 12 3 6 12 3 6 12 3 6 12 3 6 12 3 6 12 3 6 12 3 6 12 3 6 12 3 6 11 2 5 12 3 6 13 4 7 9 3 5 10 4 6 10 4 6 9 3 5 10 4 6 9 3 5 11 2 5 9 3 5 11 2 5 9 3 5 9 3 5 9 3 5 8 2 4 9 3 5 9 3 5 9 3 5 9 3 5 9 3 5 9 3 5 9 3 5 9 3 5 8 2 4 12 1 5 11 2 5 11 2 5 9 3 5 
17 5 9 17 5 9 16 4 8 16 4 8 16 4 8 17 5 9 16 4 8 17 5 9 17 5 9 16 4 8 17 5 9 17 5 7 17 5 7 17 5 9 17 5 9 16 4 8 17 5 7 17 5 9 16 4 8 15 3 5 17 5 7 19 4 9 16 4 8 17 5 7 17 5 9 19 4 9 19 4 9 16 4 8 17 5 9 16 4 8 15 3 7 16 4 8 16 4 8 16 4 8 16 4 8 16 4 8 16 4 8 15 4 8 15 4 8 15 4 8 15 4 8 16 4 8 15 3 7 16 4 8 16 4 8 15 3 7 16 4 8 15 4 8 15 4 8 15 5 6 14 5 8 15 5 6 14 5 8 14 3 7 12 3 6 10 4 6 12 3 6 12 3 6 12 3 6 13 4 7 12 3 6 11 2 5 12 3 6 12 3 6 12 3 6 11 2 5 12 3 6 12 3 6 12 3 6 10 4 6 10 4 6 11 5 7 10 4 6 10 4 6 9 3 5 10 4 6 9 3 5 9 3 5 9 3 5 9 3 5 8 2 4 11 2 5 9 3 5 9 3 5 9 3 5 8 2 4 9 3 5 9 3 5 9 3 5 8 2 4 11 2 5 11 2 5 11 2 5 11 2 5 9 3 5 9 3 5 12 1 5 11 2 5 11 2 5 9 3 5 
17 5 7 17 5 9 17 5 9 17 5 9 17 5 9 16 4 8 17 5 9 17 5 7 17 5 7 16 4 8 17 5 9 17 5 9 16 4 8 16 4 8 16 4 8 16 4 6 16 4 8 14 3 7 17 5 9 17 5 9 16 4 8 16 4 8 18 3 8 16 4 8 16 4 8 16 4 8 16 4 8 16 4 8 16 4 8 16 4 8 14 3 7 16 4 8 16 4 8 16 4 8 16 4 8 16 4 8 16 4 8 15 4 8 15 4 8 15 4 8 15 4 8 15 4 8 16 4 8 16 4 8 15 3 7 16 4 8 14 3 7 15 4 8 15 4 8 14 4 5 14 5 8 13 4 5 14 5 8 13 4 7 12 3 6 9 3 5 12 3 6 12 3 6 12 3 6 12 3 6 12 3 6 12 3 6 12 3 6 12 3 6 13 4 7 12 3 6 12 3 6 12 3 6 10 4 6 10 4 6 10 4 6 10 4 6 9 3 5 9 3 5 9 3 5 9 3 5 9 3 5 9 3 5 9 3 5 9 3 5 11 2 5 9 3 5 11 2 5 9 3 5 9 3 5 9 3 5 9 3 5 9 3 5 9 3 5 9 3 5 9 3 5 9 3 5 10 4 6 9 3 5 9 3 5 9 3 5 9 3 5 9 3 5 8 2 4 8 2 4 
16 4 8 17 5 9 18 6 10 17 5 9 16 4 8 17 5 9 16 4 8 17 5 9 17 5 7 17 5 9 16 4 8 17 5 9 16 4 8 16 4 8 17 5 9 17 5 7 16 4 8 19 4 9 17 5 9 16 4 8 17 5 9 16 4 8 14 3 7 16 4 8 16 4 8 16 4 8 17 5 9 16 4 8 15 3 7 16 4 8 15 3 7 16 4 8 16 4 8 16 4 8 16 4 8 16 4 8 16 4 8 16 4 8 16 4 8 16 4 8 15 4 8 14 3 7 16 4 8 15 3 7 16 4 8 15 3 7 15 4 8 15 4 8 14 4 5 15 3 5 14 4 5 15 3 5 13 4 7 14 5 8 11 2 5 11 2 5 10 4 6 9 3 5 9 3 5 9 3 5 10 4 6 9 3 5 10 4 6 10 4 6 10 4 6 10 4 6 10 4 6 9 3 5 10 4 6 10 4 6 9 3 5 9 3 5 10 4 6 9 3 5 10 4 6 8 2 4 9 3 5 9 3 5 8 2 4 8 2 4 10 4 6 9 3 5 9 3 5 9 3 5 9 3 5 10 4 6 9 3 5 9 3 5 7 3 4 9 3 5 9 3 5 9 3 5 8 2 4 9 3 5 9 3 5 9 3 5 9 3 5 9 3 3 9 3 5 9 3 5 
17 5 9 15 3 7 17 5 9 16 4 6 17 5 7 16 4 8 17 5 9 16 4 8 16 4 8 16 4 8 15 3 7 16 4 6 17 5 7 16 4 8 16 4 8 16 4 8 16 4 8 16 4 8 16 4 8 16 4 8 13 2 6 15 4 8 15 4 8 15 4 8 15 4 8 16 4 8 16 4 8 14 5 8 14 2 6 16 4 8 13 2 6 16 4 8 14 3 7 14 3 7 14 3 7 16 4 8 16 4 8 16 4 8 16 4 8 16 4 8 15 4 8 15 4 8 16 4 8 15 3 7 15 3 7 15 3 7 15 4 8 15 4 8 15 5 6 16 6 7 14 5 6 15 5 6 13 4 7 14 5 8 12 3 6 11 2 5 10 4 6 10 4 6 9 3 5 9 3 5 10 4 6 10 4 6 9 3 5 9 3 5 9 3 5 9 3 5 9 3 5 9 3 5 10 4 6 9 3 5 9 3 5 8 2 4 9 3 5 9 3 5 9 3 5 9 3 5 9 3 5 10 4 6 9 3 5 10 4 6 9 3 5 10 4 6 10 4 6 9 3 5 9 3 5 8 2 4 9 3 5 9 3 5 8 4 5 7 3 4 9 3 5 9 3 5 9 3 5 9 3 5 9 3 5 9 3 5 8 2 4 8 2 2 8 2 4 8 2 4 
17 5 7 16 4 6 16 4 8 16 4 8 16 4 6 16 4 8 16 4 6 16 4 8 16 4 8 16 4 8 16 4 8 16 4 8 16 4 8 17 5 9 16 4 8 16 4 8 16 4 8 14 3 7 14 3 7 14 3 7 14 3 7 14 3 7 15 4 8 15 4 8 14 3 7 16 4 8 17 2 7 16 4 8 17 5 9 15 3 7 15 4 8 15 4 8 14 3 7 14 3 7 14 3 7 15 4 8 15 4 8 15 4 8 14 3 7 15 4 8 16 4 8 14 5 8 14 3 7 16 4 8 14 3 7 14 3 7 16 4 8 14 3 7 13 3 4 15 5 6 13 4 5 13 4 5 14 4 5 13 4 5 9 3 7 12 2 10 12 3 6 12 3 6 12 3 6 10 4 6 10 4 6 8 4 5 8 4 5 8 4 5 9 3 5 9 3 5 9 3 5 9 3 5 9 3 5 9 3 5 9 3 5 9 3 5 9 3 5 8 2 4 9 3 5 9 3 5 9 3 5 9 3 5 9 3 5 8 2 4 9 3 5 9 3 5 9 3 5 9 3 5 9 3 5 9 3 5 9 3 5 9 3 5 9 3 5 9 3 5 9 3 5 8 2 4 9 3 5 9 3 5 9 3 5 8 2 4 8 2 4 8 2 4 8 2 4 8 2 4 
16 4 8 16 4 8 16 4 8 16 4 8 16 4 8 16 4 8 16 4 8 16 4 8 16 4 8 16 4 8 16 4 8 17 5 9 17 5 9 16 4 8 16 4 8 16 4 8 16 4 8 15 4 8 14 3 7 15 3 7 15 3 7 14 3 7 15 4 8 15 4 8 14 3 7 17 5 9 18 3 8 15 3 7 16 4 8 16 4 8 15 4 8 15 4 8 14 3 7 14 3 7 15 4 8 14 3 7 15 4 8 15 4 8 15 4 8 15 4 8 15 4 8 16 4 8 16 4 8 15 3 7 15 4 8 15 3 7 14 3 7 14 3 7 14 4 5 14 4 5 13 4 5 13 5 3 14 4 5 14 4 5 9 3 5 10 4 8 9 3 5 10 4 6 9 3 5 10 4 6 10 4 6 9 3 5 11 5 7 9 3 5 9 3 5 9 3 5 9 3 5 9 3 5 9 3 5 9 3 5 9 3 5 9 3 5 9 3 5 9 3 5 9 3 5 9 3 5 9 3 5 9 3 5 9 3 5 8 2 4 9 3 5 9 3 5 9 3 5 9 3 5 9 3 5 9 3 5 9 3 5 9 3 5 9 3 5 9 3 5 9 3 5 8 2 4 10 4 6 9 3 5 9 3 5 8 2 4 7 3 4 7 3 4 7 3 4 7 3 4 
17 5 9 16 4 8 15 3 5 16 4 8 16 4 8 16 4 8 16 4 8 14 4 5 16 4 8 16 4 8 16 4 8 16 4 8 15 3 7 15 3 7 15 3 7 15 3 7 15 4 8 14 3 7 14 3 7 14 3 7 14 3 7 16 5 9 14 3 7 15 4 8 14 3 7 15 4 8 16 4 8 16 4 8 16 4 8 16 4 8 15 4 8 14 3 7 14 3 7 15 4 8 14 3 7 15 4 8 14 3 7 15 4 8 14 3 7 14 3 7 15 4 8 16 4 8 15 4 8 14 3 7 13 2 6 16 4 8 14 3 7 16 4 8 14 4 5 14 4 5 13 4 5 14 4 5 13 4 7 13 4 5 9 3 3 12 3 8 9 3 5 9 3 5 9 3 5 9 3 7 9 3 7 9 3 5 10 4 6 9 3 5 9 3 5 9 3 5 9 3 5 9 3 5 9 3 5 9 3 5 9 3 5 9 3 5 9 3 5 9 3 5 9 3 5 9 3 5 9 3 5 9 3 5 9 3 5 9 3 5 9 3 5 9 3 5 9 3 5 9 3 5 9 3 5 9 3 5 9 3 5 9 3 5 7 3 4 8 4 5 7 3 4 8 2 4 9 5 6 8 4 5 9 3 5 8 4 5 7 3 4 8 4 5 9 5 6 7 3 4 
16 4 8 17 5 9 17 5 7 16 4 8 17 5 9 17 5 9 15 4 8 14 4 5 14 3 7 15 4 8 15 4 8 15 4 8 14 3 7 14 3 7 14 3 7 14 3 7 15 4 8 14 3 7 14 3 7 15 4 8 15 4 8 14 3 7 15 4 8 15 3 7 14 3 7 15 4 8 14 3 7 16 4 8 16 4 8 16 4 8 15 4 8 15 4 8 14 3 7 14 3 7 15 4 8 15 4 8 15 4 8 15 4 8 15 4 8 15 4 8 16 4 8 14 3 7 15 3 7 15 3 7 16 4 8 14 3 7 15 3 7 14 3 7 14 4 5 13 4 5 13 4 5 13 4 5 13 2 6 13 4 5 9 3 5 9 3 5 9 3 5 9 3 5 9 3 5 9 3 7 9 3 7 9 3 5 10 4 6 9 3 5 9 3 5 9 3 5 9 3 5 9 3 5 9 3 5 9 3 5 9 3 5 9 3 5 9 3 5 9 3 5 9 3 5 9 3 5 9 3 5 9 3 5 9 3 5 9 3 5 9 3 5 9 3 5 9 3 5 9 3 5 9 3 5 9 3 5 9 3 5 9 3 5 8 4 5 8 2 4 8 4 5 7 3 4 9 3 5 9 3 5 10 1 4 9 3 5 9 3 5 10 4 6 9 3 5 8 2 4 
17 5 9 17 5 9 17 5 9 17 5 9 16 4 8 16 4 6 15 4 8 15 4 8 15 4 8 14 3 7 14 3 7 14 3 7 14 3 7 15 4 8 14 3 7 14 3 7 14 3 7 13 2 6 14 3 7 15 4 8 14 3 7 15 4 8 14 3 7 16 4 8 15 4 8 15 4 8 15 4 8 15 4 8 15 3 7 15 3 7 15 4 8 14 3 7 14 3 7 14 3 7 14 3 7 14 3 7 14 3 7 14 3 7 15 4 8 15 4 8 15 3 7 14 3 7 15 3 7 15 4 8 15 3 7 14 3 7 15 3 7 14 3 7 14 4 5 14 4 5 13 4 7 13 4 7 12 3 6 13 4 7 9 3 7 9 3 5 9 3 7 9 3 5 9 3 5 9 3 5 9 3 5 9 3 5 9 3 5 9 3 7 9 3 5 9 3 5 9 3 5 9 3 5 9 3 5 9 3 5 9 3 5 9 3 5 9 3 5 9 3 5 9 3 5 9 3 5 9 3 5 9 3 5 9 3 5 8 2 4 9 3 5 9 3 5 9 3 5 9 3 5 9 3 5 9 3 5 9 3 5 9 3 5 8 4 5 7 3 4 6 4 5 7 3 4 7 3 4 7 3 4 8 2 4 7 3 4 9 3 5 9 3 5 9 3 5 9 3 5 
16 4 8 17 5 9 17 5 9 16 4 8 16 4 8 15 3 7 14 3 7 14 3 7 14 3 7 14 3 7 14 3 7 14 3 7 14 3 7 15 4 8 13 2 6 14 3 7 13 4 7 15 4 8 14 3 7 14 3 7 15 4 8 14 3 7 15 4 8 14 3 7 14 3 7 15 4 8 14 3 7 15 4 8 16 4 8 15 3 7 15 4 8 14 3 7 15 4 8 15 4 8 14 3 7 15 4 8 14 3 7 15 4 8 14 3 7 15 4 8 15 4 8 15 3 7 14 3 7 14 3 7 13 2 6 15 3 7 15 4 8 15 3 7 13 4 5 13 4 5 13 4 7 13 4 7 12 3 6 12 3 6 9 3 7 9 3 5 9 3 7 9 3 5 8 2 4 9 3 5 9 3 5 8 2 4 9 3 5 9 3 7 9 3 5 9 3 5 9 3 5 9 3 5 9 3 5 9 3 5 9 3 5 9 3 5 8 2 4 8 2 4 9 3 5 9 3 5 9 3 5 9 3 5 9 3 5 9 3 5 9 3 5 9 3 5 9 3 5 9 3 5 9 3 5 9 3 5 9 3 5 9 3 5 7 3 4 10 1 4 9 3 5 9 3 5 8 2 4 8 2 4 8 2 4 8 2 4 10 4 6 8 2 4 8 2 4 8 2 4 
