P3
100 50
255
36 22 13 34 19 12 34 19 12 35 28 22 33 34 28 42 45 36 43 51 38 37 46 29 24 39 10 23 39 10 17 36 8 20 40 15 48 59 43 45 57 43 52 69 77 54 72 82 49 65 78 49 63 76 43 48 54 39 35 34 38 34 33 36 32 33 36 34 37 33 43 52 34 43 50 45 63 75 46 64 76 57 74 84 58 74 87 40 52 38 30 39 10 51 46 14 72 56 22 70 56 21 62 51 21 62 51 21 61 47 18 62 49 15 61 45 12 60 46 11 62 46 10 63 47 11 61 45 11 60 45 12 55 40 9 53 38 9 50 44 20 43 63 52 41 64 56 39 78 85 38 77 84 28 73 79 26 71 77 25 68 74 24 68 71 24 68 71 26 67 71 27 68 74 26 71 77 26 71 77 28 71 78 29 72 79 25 72 80 27 72 78 20 33 16 20 27 9 15 27 15 13 25 21 12 26 27 7 26 32 6 23 33 7 19 33 8 20 34 3 16 32 5 17 33 5 11 27 3 12 27 4 17 34 5 18 37 2 19 35 2 19 37 4 21 37 2 23 44 4 22 42 1 19 39 1 18 38 3 21 43 1 22 43 6 24 46 8 24 47 6 24 46 4 25 46 1 23 46 2 22 46 2 22 46 0 21 42 1 22 41 0 17 35 1 18 38 0 16 32 
41 22 15 37 20 13 37 20 12 28 17 11 25 17 6 44 37 31 57 47 45 42 39 30 17 29 5 21 31 7 27 40 14 33 43 19 55 66 50 55 65 54 69 77 80 70 79 86 63 73 82 59 73 82 52 66 77 43 60 70 44 58 67 42 56 67 41 57 70 42 61 75 43 61 75 52 70 80 52 70 82 69 78 85 70 79 86 43 54 37 25 38 8 50 47 14 74 56 20 71 55 19 65 51 16 64 49 16 62 46 12 62 46 12 61 45 11 61 45 11 62 46 10 61 47 12 62 48 13 62 48 13 58 43 10 53 40 8 49 45 20 39 66 61 37 66 62 38 78 86 35 78 85 31 75 84 29 73 82 31 75 84 30 74 83 28 75 83 30 74 83 30 73 82 29 73 82 25 72 80 20 69 74 21 68 76 20 69 76 20 69 74 18 36 14 18 31 5 17 31 5 12 30 4 15 28 8 19 28 11 17 27 18 14 23 30 12 23 29 4 16 32 3 15 31 4 9 28 3 8 27 5 14 31 4 16 30 3 16 33 3 16 32 2 19 35 3 20 38 4 21 39 1 18 36 1 18 38 2 18 41 2 18 41 11 29 51 12 30 54 7 28 49 8 26 46 7 25 47 3 23 47 3 24 45 2 21 38 2 21 38 2 20 40 1 19 39 5 18 37 
41 22 15 38 21 14 37 20 12 30 21 12 27 18 9 42 38 29 54 46 43 39 41 30 15 29 4 21 31 7 28 41 15 33 46 20 52 65 48 53 64 48 66 76 78 67 78 82 65 74 83 59 73 82 53 67 76 46 63 71 47 61 72 46 58 70 44 61 69 46 66 77 45 65 76 56 74 86 55 72 82 65 78 84 69 78 85 45 53 38 28 38 11 46 45 14 67 54 19 67 54 20 62 52 16 61 51 16 60 46 11 60 46 11 60 46 11 62 46 12 61 46 13 62 46 12 62 48 13 58 48 13 54 44 9 50 39 7 47 45 20 38 65 60 36 67 62 38 78 86 35 78 85 30 74 83 27 74 82 29 73 82 30 74 83 28 75 81 28 75 83 29 73 82 29 73 82 25 72 80 22 69 75 22 69 75 21 68 76 20 69 76 18 36 12 17 31 5 17 31 5 15 31 4 17 31 6 18 30 10 17 27 16 14 24 25 14 24 26 5 17 29 5 17 31 6 9 24 4 10 24 5 13 32 3 15 31 3 14 32 4 15 33 3 19 35 4 21 39 3 18 37 2 19 37 1 18 36 2 20 42 2 20 40 9 29 53 10 30 54 8 29 50 8 26 46 8 26 48 5 26 47 3 24 43 4 21 41 4 21 39 3 20 38 3 20 40 5 22 38 
42 22 13 37 20 13 37 20 13 31 31 21 28 34 24 25 39 22 24 43 24 19 36 17 11 30 2 17 33 6 36 45 18 36 47 17 43 54 22 43 53 19 55 71 70 56 74 76 69 78 85 74 81 87 70 79 84 65 76 80 68 77 82 72 79 85 72 79 85 70 79 86 70 79 86 67 77 86 67 77 86 60 73 79 59 72 78 40 52 38 28 38 13 28 41 11 30 44 9 37 48 14 43 58 17 47 58 18 60 47 12 59 46 12 62 47 14 62 48 13 61 46 13 60 47 13 47 47 11 38 48 11 34 45 11 27 42 9 28 48 21 30 65 61 31 67 65 38 78 86 37 77 85 26 73 79 24 73 80 29 73 82 31 75 84 27 74 82 26 73 83 25 72 80 25 72 80 28 72 81 28 73 79 28 73 79 30 75 81 29 74 80 20 38 16 19 32 4 22 32 5 23 33 6 23 34 4 20 33 3 19 32 4 13 32 4 15 31 5 18 27 10 17 29 9 13 14 18 13 14 18 5 15 27 4 15 33 5 14 31 3 15 31 4 17 34 4 21 41 4 19 38 1 18 38 1 18 36 1 19 39 2 20 40 9 30 51 8 30 53 18 34 57 19 37 59 23 39 62 25 39 65 22 37 60 18 33 54 18 31 50 16 26 36 15 25 35 11 46 50 
41 22 15 38 21 14 37 20 13 29 30 22 27 32 25 26 38 26 21 42 23 18 37 15 11 30 2 18 34 5 35 45 18 36 46 19 41 55 22 44 54 20 53 72 70 55 73 75 70 79 84 74 81 87 69 78 83 65 76 80 67 76 81 72 81 86 72 80 83 70 79 86 70 79 88 66 79 87 67 77 86 58 73 78 57 72 77 39 52 35 28 38 13 28 41 11 29 44 13 35 49 14 45 57 19 46 59 16 61 49 11 60 47 13 60 47 12 62 46 13 60 46 9 60 45 12 46 47 13 38 48 11 33 44 10 27 44 10 28 48 21 29 64 60 31 65 64 38 78 86 38 78 86 26 73 83 25 73 83 29 73 82 29 73 82 28 75 83 26 73 81 26 73 83 25 72 82 27 71 80 30 73 80 27 72 78 30 73 80 29 74 80 22 37 14 19 32 4 22 32 5 21 34 4 21 34 4 20 33 5 20 33 7 14 33 5 16 32 5 16 27 10 17 28 11 14 13 19 13 14 19 6 16 28 4 16 32 4 15 33 5 14 29 4 17 34 3 20 38 3 20 40 1 18 38 1 18 38 3 21 41 1 19 39 9 30 51 11 29 51 19 35 60 20 36 59 21 37 60 25 39 65 25 37 61 17 32 53 17 30 49 14 26 38 14 24 34 10 45 47 
40 21 14 38 21 14 38 21 14 37 33 32 36 37 41 41 54 63 46 65 79 47 66 73 52 66 66 45 58 51 17 30 0 20 33 5 35 46 14 33 44 12 49 64 23 53 65 25 47 61 25 46 61 22 49 63 37 47 64 46 51 68 58 55 73 73 58 73 76 66 79 87 64 77 85 73 82 89 72 81 88 44 57 39 40 55 32 37 50 24 33 46 18 17 57 22 1 69 22 1 62 18 0 50 9 7 51 15 51 59 35 51 59 36 69 64 44 70 65 45 59 56 39 55 54 36 21 52 20 2 50 10 0 59 15 2 67 24 9 69 33 28 74 64 28 75 69 34 79 85 33 78 84 9 71 70 4 70 66 22 72 79 26 73 81 16 71 74 5 67 64 12 70 72 23 72 79 24 71 79 20 67 73 20 67 73 22 71 76 21 68 74 17 36 14 14 33 5 18 32 6 20 35 6 22 35 5 24 35 3 25 34 5 26 35 6 26 35 4 17 33 6 17 34 2 8 31 5 7 32 3 11 29 5 16 27 11 13 22 17 14 19 23 10 20 30 5 20 39 3 20 38 0 20 39 0 21 42 1 23 46 0 22 45 18 34 57 19 35 58 26 41 64 32 42 67 27 34 52 21 25 37 16 23 33 7 20 28 5 20 27 2 21 27 2 21 27 1 24 30 
41 23 13 38 19 13 36 19 12 37 31 33 38 38 40 41 54 63 46 64 78 48 65 75 53 67 68 42 59 51 18 31 3 20 33 3 34 45 13 34 45 13 51 66 25 52 67 26 47 61 25 44 60 21 47 63 36 47 64 46 51 67 57 59 74 77 59 74 79 65 78 87 65 77 89 71 82 88 71 80 87 45 58 40 42 56 31 37 49 25 36 46 21 17 57 20 0 67 23 1 62 20 0 50 12 7 52 13 51 61 37 52 61 34 69 64 44 70 65 45 58 57 37 58 52 36 21 52 20 2 50 10 2 59 14 3 66 21 9 69 33 28 75 65 28 75 67 34 77 86 34 78 87 9 71 70 5 71 69 22 72 79 25 73 83 16 72 73 9 69 69 14 69 72 24 73 80 24 71 79 21 68 74 21 68 74 21 70 77 22 69 77 15 37 14 14 32 6 19 34 5 21 34 4 22 35 5 24 35 5 26 35 6 26 35 4 24 35 5 17 33 6 19 34 5 8 32 6 8 31 5 13 28 9 15 28 11 13 22 17 13 21 23 10 20 32 5 20 39 4 21 41 2 20 42 1 19 39 1 23 44 0 22 45 19 36 56 19 36 56 30 40 65 31 42 64 28 33 52 22 26 38 15 24 33 5 18 26 5 20 25 2 19 27 1 22 27 0 23 29 
32 26 26 31 23 20 32 22 21 32 33 37 31 36 42 37 51 62 42 62 73 50 67 77 63 76 84 50 66 63 17 32 3 19 34 3 33 44 10 31 45 10 50 65 24 52 67 26 49 64 23 46 63 21 46 61 20 45 60 21 46 61 22 45 59 23 47 61 25 48 63 30 48 63 32 47 62 31 47 60 30 39 51 15 38 50 14 33 49 13 32 47 16 14 61 17 2 74 24 1 67 21 0 54 12 3 53 15 12 47 15 12 47 15 27 47 20 25 48 22 20 47 16 16 47 16 8 52 16 0 53 11 3 62 16 3 73 23 7 72 32 22 70 54 20 70 58 11 66 63 9 68 66 11 67 64 8 67 65 7 67 65 7 69 66 10 66 67 13 64 65 13 67 69 15 70 73 14 68 70 2 61 57 3 59 58 19 70 74 18 68 75 14 41 22 15 37 14 19 35 8 20 33 3 21 34 6 22 35 7 25 36 6 25 34 3 26 37 7 26 35 6 26 35 6 22 35 5 24 35 5 17 33 7 16 32 6 13 31 7 11 29 5 15 29 12 18 26 13 15 25 17 9 19 28 7 20 28 3 20 40 4 21 39 14 20 32 15 19 31 10 24 33 9 24 31 5 24 30 4 25 30 3 22 28 1 22 27 2 21 28 1 22 27 0 20 27 0 22 28 
32 26 26 31 23 20 32 22 21 31 32 37 30 35 39 37 51 62 42 60 74 49 67 77 66 79 87 55 67 65 17 31 5 18 35 3 31 45 9 31 45 10 48 65 21 52 67 24 49 64 21 46 61 18 45 60 17 44 60 15 43 58 15 43 58 15 44 59 16 46 60 24 47 61 25 43 57 24 43 57 24 38 50 14 37 49 13 33 47 12 29 49 14 17 62 21 2 74 26 1 67 21 0 55 15 3 56 14 8 45 12 8 45 12 20 46 17 19 45 16 12 45 16 10 45 12 5 51 12 3 53 15 2 63 19 4 74 24 8 73 33 19 70 55 20 68 56 6 65 63 6 65 63 9 65 64 10 64 66 7 65 66 6 66 64 10 64 64 13 65 63 15 66 67 14 70 71 13 69 70 0 59 53 0 59 53 17 67 74 18 67 72 15 43 21 13 37 13 19 35 8 21 34 6 20 35 4 22 35 5 25 36 6 26 35 6 25 36 6 26 35 6 28 35 4 25 36 4 25 36 6 17 33 4 17 33 6 14 32 6 13 31 5 16 30 7 19 28 11 15 27 15 9 20 26 10 21 27 3 20 38 3 20 40 13 17 28 13 17 28 8 21 27 7 22 27 4 23 29 0 23 29 2 23 28 1 21 28 2 21 28 0 24 28 1 20 26 2 22 29 
49 56 64 49 54 58 47 52 56 50 57 65 51 62 68 56 69 77 58 71 80 60 75 82 64 77 85 54 66 66 18 31 1 19 32 4 28 42 7 26 42 6 50 65 24 53 68 25 49 64 21 48 63 20 46 61 18 44 59 16 44 59 16 44 59 16 43 58 15 45 60 19 47 59 19 43 55 17 41 57 18 38 50 12 39 51 15 33 49 13 29 46 14 15 62 20 0 79 24 2 75 22 1 67 19 1 68 17 4 63 19 3 62 18 8 63 21 9 62 20 6 63 20 5 62 19 4 63 19 3 62 18 1 64 17 0 66 18 3 65 26 11 58 42 10 58 44 2 56 56 2 56 56 5 54 58 6 53 59 4 55 58 3 57 59 4 58 60 4 57 61 9 65 66 11 67 64 11 65 65 8 58 57 8 58 57 19 56 48 15 57 47 8 50 40 6 50 37 15 44 24 21 41 16 18 41 15 18 42 16 21 40 12 26 35 6 24 35 5 26 35 4 28 37 6 26 35 4 26 37 7 24 34 7 21 36 7 20 35 6 20 34 8 19 33 7 22 31 10 21 28 10 27 22 19 27 21 21 20 18 32 22 18 33 21 20 28 20 21 26 8 23 28 2 26 30 1 25 27 2 26 30 0 25 29 1 26 30 0 26 27 0 24 28 2 26 30 0 24 28 
59 72 81 58 71 80 59 72 81 61 74 82 63 76 84 67 77 86 67 77 86 66 79 87 65 78 86 55 67 65 19 32 2 22 33 3 29 40 6 29 40 6 50 65 22 54 69 26 50 65 22 48 63 22 46 61 18 43 58 15 43 58 15 43 58 15 44 59 16 45 60 19 45 60 17 42 54 14 43 55 17 39 51 13 35 50 11 33 47 12 29 45 16 16 61 20 2 79 25 2 79 25 3 75 25 2 76 25 3 73 23 3 73 23 3 73 23 2 72 22 2 72 22 3 73 23 2 68 20 2 65 20 1 64 17 2 61 17 2 58 21 6 53 37 5 52 36 1 52 53 1 52 53 3 48 54 2 46 55 0 49 54 1 50 54 3 52 57 3 53 62 5 58 62 8 68 68 9 65 64 11 57 57 12 58 58 20 47 30 20 47 28 3 54 45 5 58 50 13 50 33 19 44 22 17 45 23 17 45 23 19 42 16 25 36 6 25 36 6 26 37 5 29 36 5 27 38 6 26 37 7 27 36 5 28 37 6 25 36 6 22 35 5 24 34 9 23 33 6 25 30 10 39 20 14 39 19 20 32 16 29 30 18 30 28 23 27 24 24 26 9 24 29 2 26 28 1 25 29 2 26 28 1 27 28 1 27 28 1 27 28 1 27 28 2 28 29 0 24 28 
66 76 85 65 76 82 65 75 85 67 76 83 68 77 84 64 77 83 66 76 85 63 77 86 65 78 86 55 67 67 23 32 1 24 33 4 28 37 6 28 38 4 50 56 18 53 59 15 54 60 16 54 59 18 51 60 17 46 58 18 46 58 18 46 58 18 45 58 15 47 58 18 46 58 18 50 53 10 49 55 11 42 48 10 41 47 11 32 46 11 27 44 12 14 61 17 3 80 28 1 78 26 3 75 25 2 74 24 2 72 22 0 70 20 1 71 21 0 70 20 2 70 21 3 71 22 2 68 20 0 67 18 1 64 17 1 60 14 2 56 20 5 45 37 5 44 39 1 44 51 0 44 53 3 52 57 2 53 57 2 47 53 1 43 55 2 46 57 1 48 58 2 51 58 5 59 61 6 55 59 9 49 59 6 48 60 12 52 44 12 51 46 6 51 56 3 50 56 11 47 37 20 43 27 13 46 27 12 50 35 13 46 25 21 41 16 21 41 16 24 38 13 22 38 11 26 37 5 25 36 6 27 36 7 27 36 7 31 33 12 36 31 12 28 30 17 23 30 23 21 27 25 19 19 27 21 21 31 18 17 33 16 17 35 16 18 31 17 21 32 17 22 28 21 24 29 16 24 27 12 26 29 8 26 28 2 28 29 1 26 30 0 27 28 0 28 29 0 28 31 
71 80 85 71 80 85 70 79 84 70 81 87 70 79 84 65 78 86 61 75 84 62 76 85 63 76 84 54 66 66 25 34 3 28 35 4 27 33 5 26 35 6 50 46 8 53 48 8 58 53 13 60 57 14 53 58 17 48 58 21 47 60 17 47 59 19 47 57 20 49 55 17 45 55 18 58 51 7 60 51 8 47 47 11 45 46 12 33 45 9 24 41 7 14 61 17 1 80 25 1 78 24 2 74 24 1 73 23 1 69 20 1 69 20 1 67 19 0 66 18 0 68 19 0 68 19 1 69 20 1 69 20 0 63 18 0 59 13 3 54 23 4 38 40 4 34 42 1 38 56 1 38 56 0 58 60 0 60 61 1 43 57 2 39 57 1 40 55 2 42 54 1 45 54 1 50 55 1 48 56 1 39 60 1 39 60 4 55 59 4 54 63 4 47 63 7 46 63 11 43 40 14 40 27 10 48 37 6 53 43 9 52 35 17 46 24 17 45 23 19 42 16 19 42 16 26 37 7 25 35 8 26 35 8 27 36 9 38 30 17 46 27 21 34 25 30 21 24 41 17 24 42 3 21 45 0 22 40 2 19 39 1 19 39 7 16 33 8 15 33 30 18 30 36 19 27 31 21 30 22 23 27 16 26 28 1 27 28 3 29 30 0 28 29 1 30 28 0 31 28 
73 81 84 71 80 85 70 79 86 69 79 81 70 79 84 67 78 84 62 76 87 62 76 85 63 76 84 54 66 66 30 36 8 30 34 9 33 38 8 35 40 8 58 49 8 63 52 7 62 48 9 62 46 10 58 54 17 55 61 27 54 61 27 50 60 25 52 60 23 51 52 20 52 53 19 62 47 6 63 48 7 55 47 8 55 47 8 36 46 9 26 43 9 16 61 18 1 80 25 3 77 24 2 74 24 3 73 23 2 72 22 0 70 20 0 68 19 1 69 22 0 69 19 0 68 19 2 68 20 1 67 19 1 64 17 1 63 16 2 56 24 3 36 41 4 37 44 1 38 56 1 38 56 0 55 60 0 59 59 1 44 60 2 41 58 0 42 58 0 39 56 2 44 56 1 48 56 2 46 57 2 40 59 2 40 59 2 52 59 2 55 59 5 46 64 4 45 63 8 43 45 13 46 37 8 47 42 4 48 47 9 49 40 17 46 26 19 47 25 16 45 25 17 44 25 29 34 11 29 34 11 26 33 15 26 33 17 33 28 24 38 26 28 28 27 35 19 25 41 12 25 41 0 21 40 1 21 45 2 19 37 2 20 42 6 18 34 6 17 35 23 19 33 28 20 33 23 20 29 18 23 29 15 24 29 8 26 28 8 26 28 7 28 29 6 27 28 0 28 31 
70 79 86 69 78 83 70 79 84 70 79 78 72 76 75 67 77 79 63 76 85 62 76 85 62 74 86 56 67 69 39 38 18 38 40 18 56 50 16 56 50 16 80 59 4 84 59 3 74 28 4 68 19 4 68 41 22 70 63 44 67 62 42 65 62 43 64 59 39 61 45 30 60 44 31 76 41 3 78 38 2 82 54 4 85 55 1 48 49 7 28 45 9 15 62 18 1 80 25 2 77 21 2 72 22 3 73 23 2 74 24 2 74 24 1 69 20 1 69 22 1 69 20 1 67 21 1 67 21 1 67 19 2 70 21 2 72 20 3 65 28 7 42 44 4 44 46 0 41 55 2 40 53 1 48 54 2 49 55 1 49 59 1 48 58 1 44 61 1 37 61 0 41 63 2 45 64 1 44 61 1 45 56 1 43 55 1 50 54 0 49 54 0 40 65 0 39 65 0 50 67 0 57 64 3 47 60 3 36 55 8 38 46 16 42 29 13 43 31 2 55 49 0 55 50 36 31 25 39 32 26 27 27 39 24 27 44 15 26 44 9 27 47 10 27 47 8 25 43 7 24 42 1 19 39 1 19 39 1 20 37 2 19 39 0 20 39 1 20 37 1 19 41 0 20 41 5 20 39 7 20 37 17 20 35 35 19 29 32 22 30 23 27 28 23 24 28 1 30 28 
70 79 86 69 76 82 70 79 84 69 75 75 69 75 71 64 75 81 63 77 86 62 76 85 61 78 86 58 69 71 41 40 19 41 44 17 58 49 16 59 50 17 80 59 6 84 59 3 73 29 2 69 20 3 68 40 19 69 58 40 66 58 37 65 58 39 63 54 37 61 42 25 60 43 27 77 42 4 78 40 3 83 56 3 81 56 2 47 48 6 27 44 10 15 62 18 2 79 25 3 77 24 3 73 23 1 73 23 2 74 24 2 75 22 1 69 20 2 70 21 0 68 19 1 69 22 1 67 19 0 66 18 0 68 19 2 70 21 2 64 23 6 46 46 3 44 46 0 39 54 1 38 54 0 47 55 2 47 53 0 49 56 1 51 58 1 44 60 1 39 60 1 42 62 0 46 62 2 45 62 1 43 57 1 43 55 1 48 54 0 47 53 0 40 65 1 38 64 2 51 65 1 56 63 0 46 59 3 35 56 8 38 48 13 43 33 10 46 34 3 53 52 2 52 49 34 33 29 35 34 29 23 32 39 20 29 44 13 29 45 10 28 48 10 27 47 9 26 44 7 24 42 2 20 40 0 20 41 3 20 40 0 20 39 2 20 40 0 21 39 2 20 44 2 20 42 3 20 40 6 19 38 13 19 35 31 19 31 29 22 30 21 25 28 21 24 29 7 26 30 
70 79 86 69 71 68 67 72 68 60 64 63 60 62 61 63 72 77 69 80 86 66 76 85 63 76 85 63 73 75 59 58 37 58 56 33 63 46 18 64 46 22 82 56 5 84 57 2 78 40 3 74 33 3 69 27 5 64 21 5 65 21 8 61 25 11 63 24 9 67 21 5 66 21 2 77 39 3 76 38 2 80 52 4 80 54 3 46 44 6 26 37 7 14 59 18 2 81 26 2 79 25 3 73 23 3 73 23 2 72 20 2 72 22 0 68 21 0 66 20 1 69 20 0 68 21 1 67 19 1 67 21 3 67 17 2 68 20 4 66 29 6 52 52 5 50 53 2 39 65 3 39 65 1 39 60 2 37 57 0 51 54 1 56 53 0 54 56 2 53 56 1 51 60 0 47 65 1 43 65 2 28 61 1 30 62 0 37 56 2 37 57 1 40 57 0 42 56 1 45 56 0 46 54 2 41 58 1 36 64 1 44 63 1 59 61 2 55 59 8 39 57 6 39 58 17 47 57 16 49 58 5 59 59 2 64 59 7 44 53 13 31 53 13 31 51 10 31 50 7 29 50 1 23 46 0 24 46 2 22 46 1 23 46 0 24 46 0 24 44 1 22 41 0 21 42 2 20 40 1 18 38 1 18 36 1 18 36 3 18 37 7 19 35 8 17 34 34 21 31 
69 78 83 66 72 68 69 71 68 60 64 63 57 61 60 66 71 75 68 78 88 67 77 86 63 78 85 61 73 73 57 59 37 59 57 34 62 45 17 62 45 19 81 55 6 83 56 3 76 40 4 75 34 4 70 28 6 67 21 6 64 22 8 62 24 11 63 24 9 67 21 5 67 21 5 76 38 2 77 39 3 80 52 4 80 54 3 46 44 5 28 39 7 13 60 16 2 81 26 2 79 25 2 72 22 1 73 23 2 72 22 2 72 22 1 69 20 0 68 19 1 69 18 1 69 20 1 67 19 0 66 20 3 66 19 1 69 22 4 64 28 5 54 51 2 50 52 1 38 64 2 38 64 1 38 57 1 38 57 1 52 55 1 56 53 1 55 57 0 53 57 1 51 60 0 47 67 0 42 66 2 28 63 0 31 62 0 37 56 3 35 56 1 40 57 0 42 56 1 45 54 1 45 54 3 40 59 0 36 62 1 43 65 1 59 61 2 57 62 9 40 61 8 39 60 14 46 57 15 47 58 5 60 57 1 64 56 7 44 53 13 31 53 12 31 48 9 30 49 7 28 47 1 23 44 0 23 41 1 23 46 1 23 46 2 24 45 1 23 44 0 21 40 2 20 42 2 20 42 1 18 38 2 19 39 1 18 34 3 19 35 6 17 35 7 18 36 35 22 32 
70 79 84 67 74 80 68 75 81 70 78 81 71 79 82 68 79 85 63 76 84 61 74 82 57 68 70 52 61 56 35 39 12 40 40 12 47 30 4 49 29 4 73 29 4 79 29 6 76 32 3 76 32 3 73 32 2 75 36 5 73 37 3 74 38 4 74 38 4 75 34 2 74 35 4 65 22 5 64 21 4 59 15 2 58 14 3 39 27 3 29 32 1 20 46 9 10 59 14 6 64 16 2 71 24 2 72 22 1 71 21 1 71 19 1 67 19 0 68 19 0 68 19 0 68 19 1 64 19 0 61 17 5 56 13 9 49 12 8 53 22 6 50 49 6 54 54 0 79 84 0 79 83 2 48 72 1 43 68 2 36 61 1 35 60 2 39 55 1 43 55 0 47 54 2 51 55 1 50 57 0 34 62 1 35 62 2 40 63 0 41 61 1 32 61 1 27 60 0 33 60 0 36 58 0 35 57 1 35 60 1 42 60 2 46 57 0 45 58 2 40 61 2 40 63 4 60 57 3 62 58 8 47 54 8 46 57 9 45 57 12 44 55 14 40 55 17 35 55 13 31 53 3 23 47 5 23 47 3 28 50 5 25 50 5 27 51 5 27 50 3 25 48 1 23 46 1 23 46 1 21 45 0 22 43 3 21 43 1 19 39 2 19 37 2 17 36 6 19 36 
71 80 87 66 75 82 69 76 82 71 78 84 72 79 85 68 79 85 64 77 85 63 74 78 57 68 70 51 61 53 35 38 9 35 38 9 46 29 3 48 28 3 71 25 2 74 23 4 76 30 4 74 30 3 74 33 1 73 37 1 75 39 3 75 39 3 75 39 3 75 37 1 73 37 3 61 20 2 63 20 3 57 8 1 57 8 3 39 22 2 28 31 2 18 44 7 12 57 14 7 63 16 2 72 22 3 73 23 1 70 23 1 71 21 0 68 19 1 69 20 2 68 20 1 69 22 1 64 17 3 62 16 4 56 10 9 50 10 10 49 20 7 47 49 7 53 53 1 84 88 3 84 88 1 49 71 3 45 70 0 36 62 1 35 60 1 38 56 0 43 52 1 48 54 2 54 52 0 49 54 0 36 62 0 33 60 1 43 65 1 42 62 1 30 64 0 28 65 1 32 61 1 33 58 0 34 59 1 36 58 1 39 58 1 45 56 0 45 58 0 40 65 3 41 64 2 63 58 0 63 55 7 50 57 8 45 54 9 46 55 10 47 56 14 42 56 18 36 56 12 33 54 2 24 47 2 24 47 6 26 50 5 27 50 4 28 52 5 27 50 3 25 49 2 24 47 2 24 47 1 23 46 1 21 45 1 19 39 0 21 40 1 18 38 0 17 37 1 18 38 
72 74 69 67 72 68 67 72 68 60 70 71 56 70 70 48 72 74 41 70 78 42 67 71 43 62 56 44 57 47 32 37 7 34 34 6 49 29 2 46 29 1 76 29 3 81 31 4 75 24 3 72 24 4 74 28 4 74 33 3 73 34 3 71 30 2 70 28 3 71 23 3 70 23 3 61 13 1 60 14 1 57 8 1 57 8 3 37 22 3 25 30 0 23 34 2 22 39 5 19 41 5 19 45 8 19 45 8 40 64 32 42 63 32 43 67 35 43 67 35 37 60 31 37 57 29 23 47 15 15 39 7 17 39 3 19 36 2 17 39 16 9 49 49 9 53 54 2 88 89 1 89 91 1 59 73 1 57 72 0 42 64 1 37 61 0 34 61 2 34 59 2 37 57 0 44 57 2 46 57 1 45 54 2 46 57 2 51 56 2 51 55 0 31 59 0 29 61 2 38 62 0 43 62 0 37 63 2 31 63 2 31 61 0 35 57 0 36 60 1 32 61 0 34 62 1 51 62 0 50 59 2 44 60 4 43 60 3 48 54 4 52 54 5 49 52 8 46 55 7 41 53 2 23 44 1 23 44 5 25 49 5 25 49 4 26 49 5 25 49 3 23 47 1 23 46 2 22 46 1 22 43 1 22 43 0 19 36 1 19 39 1 19 39 2 20 40 1 18 36 
70 71 63 68 71 64 69 72 65 56 68 64 49 65 64 38 67 71 32 69 77 37 67 67 41 62 55 38 56 42 29 34 2 32 35 4 47 30 2 47 30 2 75 31 2 79 32 2 73 22 5 70 19 2 71 24 4 72 31 3 72 31 3 72 28 3 69 24 1 67 18 3 67 18 3 59 10 3 60 11 4 57 8 3 56 9 3 38 23 2 27 30 1 24 30 2 23 32 1 23 32 1 23 34 4 26 37 7 54 60 34 54 60 34 59 63 40 57 65 41 50 58 34 46 54 31 29 39 12 19 32 2 21 32 2 22 31 2 18 36 14 8 48 48 8 54 54 1 89 91 1 89 90 2 64 75 0 60 71 2 44 66 1 38 64 2 33 62 0 29 59 3 33 59 2 41 58 1 45 58 1 50 54 1 50 54 0 53 53 0 53 53 2 33 61 3 30 60 2 39 65 0 45 66 1 36 64 2 28 65 0 29 63 2 32 60 1 32 60 0 31 60 1 30 60 1 47 62 0 46 62 0 43 60 2 40 59 1 50 54 2 54 50 2 52 53 5 50 56 4 42 53 1 23 46 1 21 45 6 24 46 4 25 46 3 25 48 4 25 46 2 24 47 3 24 45 1 23 44 0 21 42 1 19 41 0 18 38 0 19 36 0 21 40 0 21 40 0 18 38 
63 65 52 63 61 48 61 61 49 44 59 54 39 58 54 28 63 67 23 66 72 30 69 74 40 71 74 40 63 57 36 39 12 38 38 14 49 29 5 50 30 6 76 31 2 78 31 1 70 22 2 70 19 2 72 26 3 72 33 4 72 33 2 71 32 3 70 28 3 65 16 2 65 16 2 60 11 4 60 12 2 61 17 4 61 18 2 40 25 4 26 30 3 26 32 4 25 34 5 24 33 4 24 33 4 27 36 7 43 49 23 43 48 25 52 56 33 51 54 33 43 48 26 41 46 24 27 37 10 19 32 2 17 36 6 18 38 11 16 39 19 7 47 47 7 53 53 2 88 89 1 89 91 1 63 74 1 60 74 1 65 77 1 64 79 0 53 71 1 41 66 1 39 62 0 34 59 1 35 60 0 36 58 2 37 57 0 44 57 0 44 57 0 43 54 0 43 59 1 48 58 0 50 57 1 42 62 0 33 68 1 41 67 0 57 66 0 52 65 1 27 64 2 26 64 0 50 61 2 50 62 1 34 65 2 30 67 1 47 63 2 58 59 5 48 57 8 40 55 8 37 53 6 27 48 6 26 50 13 29 54 14 30 55 11 31 55 12 30 52 11 29 51 11 29 51 10 28 50 9 27 49 5 26 47 2 23 44 1 23 44 1 21 45 0 20 44 0 21 42 
60 61 45 58 57 39 58 55 38 37 54 46 29 54 48 20 60 60 13 64 67 24 69 74 39 76 85 39 67 68 39 40 22 41 40 19 51 29 8 52 30 7 77 31 5 81 31 4 72 24 2 70 19 2 72 26 2 73 34 3 72 33 4 71 35 3 69 29 3 64 15 1 63 14 0 60 12 2 59 12 2 63 22 2 64 23 3 42 28 2 26 29 2 28 32 7 28 34 6 25 34 7 26 32 6 25 35 8 38 42 17 37 43 17 48 50 28 50 49 29 38 43 20 38 43 20 25 35 8 19 32 2 18 34 8 16 41 19 14 43 25 7 47 47 7 53 53 0 90 90 0 88 90 2 64 75 1 61 72 0 74 83 0 81 85 0 66 75 1 48 66 2 43 65 2 32 60 2 32 60 0 29 61 1 28 58 1 35 60 1 37 59 1 50 54 1 52 53 2 52 53 1 52 55 1 44 61 2 35 66 2 49 67 0 69 69 1 65 67 1 22 67 1 22 67 0 51 62 1 51 62 1 29 66 0 21 68 1 47 63 1 61 62 4 48 59 11 32 53 10 32 53 10 30 54 12 30 52 18 33 56 17 33 56 17 33 56 17 33 56 15 32 52 15 31 54 14 31 51 13 31 53 10 28 50 6 24 46 3 25 48 0 22 45 0 22 45 0 21 42 
46 63 53 46 59 50 44 60 50 34 60 57 30 62 61 26 66 68 23 68 73 26 69 76 35 75 83 35 66 68 37 41 18 38 40 18 50 29 10 51 29 8 74 28 5 77 27 4 70 22 2 70 19 2 69 22 2 69 24 3 67 26 4 68 26 4 65 22 3 64 14 3 61 15 2 59 12 2 59 11 1 63 20 3 64 21 2 47 33 7 34 38 13 35 39 12 35 41 15 32 38 12 28 34 6 26 37 7 35 41 15 35 41 15 42 44 22 41 44 23 36 40 17 30 38 14 23 36 8 18 33 4 12 40 17 10 47 30 9 47 34 6 50 53 6 55 59 0 90 91 1 89 90 2 64 75 1 59 73 2 77 83 1 81 88 2 70 81 1 57 72 0 53 69 0 45 68 0 42 64 1 35 63 0 35 63 0 34 59 0 34 61 2 41 58 0 42 58 0 44 55 2 46 57 0 41 61 2 37 65 1 46 65 1 62 65 1 58 65 1 30 64 0 29 61 1 51 58 1 51 58 1 38 64 0 32 67 0 47 63 0 55 62 4 46 60 9 35 58 11 36 58 19 35 58 20 35 58 22 37 60 22 37 58 20 36 59 21 36 59 22 34 58 21 36 57 20 35 58 20 35 58 16 32 55 9 30 51 6 27 48 1 23 44 1 23 44 0 22 43 
23 68 74 22 66 69 25 66 70 28 71 77 29 72 79 30 73 80 33 73 81 28 71 78 24 71 77 26 62 62 34 36 14 37 35 14 48 30 10 48 30 10 70 21 4 72 19 3 69 17 3 69 17 3 65 16 2 61 13 3 59 12 4 60 11 4 60 12 2 61 11 2 61 13 3 56 9 1 55 8 2 63 17 4 61 18 2 56 40 17 53 51 28 47 49 25 49 48 27 39 43 20 29 35 9 29 35 9 32 36 13 30 34 11 31 35 12 31 36 13 26 35 8 23 32 3 19 35 9 15 35 10 10 44 28 1 54 48 2 53 54 1 54 60 4 59 64 1 89 93 1 89 91 1 63 74 2 60 72 0 77 85 2 82 89 0 79 84 2 72 80 1 69 78 0 67 76 0 62 75 0 47 67 1 48 68 0 31 62 1 30 60 1 27 60 2 28 65 0 31 60 2 32 60 0 36 62 0 38 59 1 42 60 2 46 59 0 46 59 1 39 58 0 38 59 0 49 53 1 50 54 1 49 61 1 49 63 1 47 60 0 46 59 2 45 62 4 41 67 11 43 66 36 44 65 32 45 64 30 42 68 31 43 67 27 39 63 27 39 63 28 40 64 30 42 66 30 42 64 31 43 65 28 40 64 20 35 58 16 32 55 1 23 46 1 23 44 1 23 44 
23 68 73 25 68 74 24 67 73 28 73 78 28 73 79 27 72 78 29 72 79 27 72 78 23 70 76 26 62 62 34 36 12 34 36 12 44 31 12 45 30 11 65 22 5 70 21 6 66 19 3 66 17 3 63 15 3 61 13 3 62 12 3 61 11 2 60 12 2 60 12 2 59 11 1 55 10 4 54 10 1 56 19 3 56 19 3 49 37 15 45 49 24 42 46 21 41 45 20 37 41 16 29 35 9 29 35 9 31 35 10 29 35 9 30 34 11 29 34 11 24 35 5 22 33 3 20 34 8 17 35 9 11 44 27 3 53 42 3 52 46 6 53 61 6 56 63 1 89 91 1 89 91 0 64 74 1 61 72 1 79 83 0 83 87 2 77 83 0 72 79 1 71 79 1 69 78 0 64 76 0 55 70 0 56 73 1 38 67 0 39 65 0 34 62 0 33 64 0 34 62 0 34 61 1 35 62 0 36 60 0 38 59 2 41 58 1 42 60 2 36 61 0 36 60 0 47 55 3 47 56 0 45 61 0 45 66 0 43 60 2 44 58 2 39 65 1 38 67 6 37 65 28 40 62 26 41 64 24 38 64 24 39 62 21 36 59 22 37 60 24 39 62 24 39 62 27 39 63 28 40 64 25 37 59 18 33 56 14 30 55 1 23 46 2 24 47 1 23 44 
22 71 78 24 71 79 24 71 77 22 70 80 23 72 79 20 69 76 17 66 70 18 67 74 20 67 73 23 59 59 32 36 9 32 36 9 34 36 14 34 36 14 52 27 7 56 25 7 61 18 2 62 16 3 60 12 0 61 11 2 60 10 1 60 10 3 60 10 1 61 13 3 59 11 1 51 11 1 51 11 3 36 19 1 35 22 3 30 30 6 27 36 7 24 35 5 23 34 4 25 34 5 25 34 5 27 33 5 25 34 5 26 35 6 23 33 6 24 33 4 22 33 3 22 33 1 22 33 1 20 33 5 17 40 12 13 46 25 13 47 33 12 47 66 10 53 69 2 87 92 1 89 90 1 63 74 2 60 72 1 78 84 2 83 87 0 77 83 1 71 79 1 71 79 0 73 82 1 76 82 1 82 86 0 82 86 1 59 71 1 57 70 1 50 67 0 47 65 0 39 65 0 32 63 1 31 67 2 26 64 1 27 62 0 29 59 0 28 60 1 26 66 0 27 66 0 36 60 1 37 61 0 30 68 1 26 67 0 31 62 0 32 63 1 29 66 0 22 69 3 26 67 6 26 50 6 27 48 8 28 52 7 27 51 11 29 53 8 29 50 14 30 53 14 30 53 17 32 55 18 33 54 16 31 54 13 31 53 10 28 50 1 23 44 2 23 44 0 22 45 
24 71 79 24 71 79 25 72 82 24 71 77 24 71 81 19 68 75 17 66 71 19 66 72 19 66 74 22 58 58 30 34 7 30 34 9 34 36 14 33 37 14 53 26 7 55 26 8 60 16 3 62 14 2 61 13 3 60 12 2 60 10 3 60 10 1 59 11 1 60 12 2 61 11 2 53 10 1 50 12 3 36 21 2 34 21 2 28 32 7 25 36 6 24 35 5 24 35 5 25 34 5 25 34 5 27 33 5 25 34 5 25 34 5 24 33 6 23 33 6 22 33 3 22 33 1 20 33 3 21 34 4 18 41 13 13 47 23 11 47 33 10 47 65 10 52 68 3 88 91 1 89 91 1 65 75 2 60 72 2 77 83 1 82 86 0 78 82 2 72 80 0 72 79 0 73 80 0 75 81 0 81 85 0 80 87 1 59 71 0 58 70 1 50 67 0 47 67 1 38 64 2 33 62 1 30 64 3 25 64 1 27 64 0 29 59 0 29 59 0 25 65 1 26 66 1 37 61 1 37 61 0 28 67 0 28 68 1 32 61 0 34 62 0 28 65 0 22 69 1 24 65 7 28 47 6 26 50 8 30 54 5 27 50 10 28 52 9 30 51 13 29 52 15 31 54 18 33 52 18 33 54 17 32 53 12 30 52 10 28 50 2 23 44 3 24 45 0 22 43 
29 73 82 27 71 80 25 74 81 25 72 80 23 70 80 23 70 78 23 70 76 27 71 80 27 74 82 26 62 60 23 32 1 21 32 2 28 34 6 28 34 6 29 35 7 32 36 11 31 35 12 31 35 10 50 48 25 69 61 42 67 59 38 68 57 39 61 54 35 49 44 24 47 44 25 22 31 0 22 33 1 21 32 2 21 32 0 21 32 0 20 31 1 32 38 10 39 44 21 38 44 18 35 37 13 33 37 12 28 34 6 24 33 4 21 32 2 21 32 0 25 32 1 22 31 2 22 31 0 22 33 3 35 25 26 49 18 52 38 30 53 5 64 60 5 67 66 2 85 89 1 86 89 2 64 75 1 60 74 0 79 86 0 83 87 0 78 85 1 71 81 1 71 79 3 73 81 1 76 82 2 83 87 0 80 87 1 61 72 1 59 71 1 85 87 0 88 89 0 66 75 1 52 69 0 58 72 1 63 74 1 57 72 2 45 64 0 44 65 0 34 62 0 35 65 0 33 66 0 32 65 0 34 69 1 33 71 1 34 69 0 33 66 2 37 65 0 41 63 1 37 61 7 29 52 8 28 52 15 31 54 16 32 55 9 27 49 8 26 48 9 27 49 9 27 49 8 26 48 4 25 46 2 23 44 0 21 42 4 20 45 3 21 43 1 22 43 1 18 36 
26 73 79 26 73 83 26 73 81 25 72 80 22 71 78 22 69 75 23 70 76 24 71 77 26 73 79 27 63 61 22 31 0 26 30 3 28 34 6 27 33 5 31 35 10 30 34 11 33 35 13 30 33 12 49 47 26 71 60 42 68 60 39 67 56 38 61 54 35 48 46 25 48 45 28 21 32 0 21 32 0 20 31 0 20 31 0 22 33 1 22 33 1 30 39 10 37 45 21 38 42 17 35 37 13 34 36 12 27 34 3 24 33 2 18 31 1 21 32 0 23 32 1 21 32 0 22 33 1 22 31 4 36 26 27 50 19 53 37 28 55 4 63 59 4 66 63 1 86 89 2 87 90 0 64 73 1 61 72 2 77 83 1 84 88 0 77 83 1 71 79 2 72 80 0 73 80 0 75 81 1 80 85 1 81 88 1 59 71 0 59 73 2 85 89 2 88 89 1 65 75 1 50 67 1 57 70 2 62 73 0 55 70 1 43 65 1 42 64 1 35 63 0 35 65 0 33 64 0 34 66 0 33 68 0 34 71 1 34 69 0 33 66 1 36 64 2 40 61 1 36 58 7 27 51 6 28 51 15 31 54 14 30 55 8 26 50 8 26 46 10 28 50 10 28 50 7 25 47 4 25 46 3 24 45 1 22 41 2 20 44 1 22 43 1 21 45 2 18 34 
26 73 81 24 71 79 24 71 79 25 72 78 25 72 82 23 67 76 20 69 76 19 68 73 18 67 72 18 58 57 18 31 1 17 32 1 21 31 4 22 33 3 26 32 4 28 34 6 29 35 7 30 34 9 37 41 14 44 47 20 45 47 23 49 48 27 44 46 22 30 39 12 33 39 11 21 32 0 22 33 1 22 33 1 22 31 0 28 34 6 31 37 9 39 43 18 49 51 29 42 46 21 30 36 8 30 34 7 24 33 2 26 33 2 22 33 3 22 31 0 30 24 10 33 23 13 21 22 26 14 23 32 22 25 42 31 33 56 25 37 53 9 52 59 7 54 60 3 74 70 2 74 71 1 61 72 1 59 71 0 77 83 2 82 89 0 78 82 2 72 80 0 73 82 2 72 80 1 75 84 0 81 85 2 81 86 0 60 71 1 59 71 1 84 88 2 87 90 0 64 74 0 49 66 0 66 78 1 86 89 0 73 79 2 49 67 1 54 72 1 78 88 1 78 86 3 56 74 0 57 76 2 68 80 2 72 82 1 71 81 0 70 82 0 64 76 0 58 70 4 50 66 17 29 53 13 29 52 2 24 45 3 23 47 2 24 47 3 24 45 2 20 40 3 20 40 4 21 39 3 20 40 2 19 39 2 19 37 0 19 36 2 19 37 2 19 39 1 22 43 
23 72 79 23 70 78 23 70 78 24 71 81 25 73 83 21 68 74 18 67 72 18 65 75 17 67 74 17 58 54 18 31 3 17 30 0 21 32 2 20 31 1 24 33 4 27 34 3 27 33 5 30 34 7 36 40 13 41 43 19 43 45 21 47 47 23 42 44 20 31 37 9 30 36 8 21 32 0 20 31 0 23 32 3 22 33 3 27 36 7 32 38 10 42 46 19 50 52 28 42 46 21 27 36 5 27 36 5 22 33 1 24 33 2 22 33 3 22 33 3 32 24 11 35 22 14 21 21 29 13 20 38 20 27 45 27 33 55 23 38 57 11 52 58 9 52 59 2 72 70 1 71 69 0 61 72 0 59 73 0 77 83 2 83 87 0 77 83 0 73 82 0 72 79 1 71 79 1 75 84 2 83 87 1 82 86 2 60 72 2 60 72 1 84 88 0 88 89 2 65 74 1 50 65 1 69 78 0 88 89 1 74 81 2 51 66 0 53 69 0 83 87 0 83 89 1 60 74 1 60 74 2 72 82 1 75 84 0 74 83 0 74 83 0 67 76 1 60 76 4 53 68 15 32 52 14 29 50 1 23 44 0 22 45 1 23 44 0 24 44 2 20 40 1 18 38 2 19 37 2 20 40 0 18 38 1 18 36 1 18 38 0 17 37 1 18 38 0 22 43 
24 71 81 26 73 81 26 73 81 26 70 79 23 70 78 19 68 73 17 66 71 18 65 71 19 64 69 17 56 51 20 31 1 20 31 1 17 30 0 17 30 0 22 33 1 22 31 2 26 33 2 27 32 0 28 35 4 30 37 6 28 35 4 30 36 8 27 36 7 24 33 2 24 33 2 19 33 0 23 32 3 20 31 0 20 31 0 21 35 2 24 35 3 28 37 10 31 36 13 30 36 10 26 35 8 29 33 8 33 25 14 32 24 11 13 20 26 16 21 27 10 18 31 10 18 31 6 18 34 6 19 36 15 19 44 27 20 51 27 24 53 26 34 57 25 37 59 2 75 81 3 77 80 0 66 65 1 65 65 3 78 83 1 81 88 1 76 82 0 72 79 1 71 79 0 73 82 0 74 83 1 81 88 1 82 86 1 59 71 0 58 72 0 83 87 0 88 90 1 63 74 1 50 65 1 69 78 2 90 91 1 74 80 1 50 67 1 54 70 0 84 87 0 85 90 0 62 75 1 63 76 1 74 83 1 78 88 0 78 85 0 76 84 0 68 79 0 59 75 1 50 67 5 26 47 3 23 47 1 23 46 2 24 47 0 21 42 0 21 42 1 18 38 1 16 37 1 18 38 2 20 40 2 20 40 2 20 40 0 21 40 1 19 39 1 19 39 1 23 44 
25 69 78 29 73 82 29 73 82 24 71 79 22 70 80 21 70 77 17 66 73 18 65 73 19 64 67 20 56 52 21 32 2 20 31 0 18 31 1 17 32 3 20 31 0 21 32 0 23 32 1 27 34 1 26 33 2 25 32 1 23 32 1 23 32 1 22 33 1 21 32 0 21 32 2 21 32 0 19 32 2 19 32 2 20 31 1 21 32 0 21 32 0 22 32 5 26 35 8 27 33 7 27 33 5 28 32 9 36 23 15 36 23 17 11 17 33 12 18 34 5 16 34 0 17 35 2 17 36 0 17 35 13 17 42 28 17 49 27 20 51 33 29 56 28 36 59 3 78 84 1 78 84 3 69 65 1 66 60 3 78 83 1 81 90 0 77 85 0 70 78 0 70 78 0 73 79 1 76 82 2 83 87 2 83 87 1 59 71 1 59 73 1 82 86 0 87 89 0 64 74 1 50 65 0 68 77 0 90 90 0 75 81 1 50 65 0 55 70 1 86 89 1 86 89 2 61 75 0 64 76 0 73 80 0 77 83 0 77 83 2 77 83 1 67 81 1 59 73 1 50 67 0 24 46 1 23 46 2 24 45 2 24 45 0 21 42 1 19 39 0 17 37 1 16 37 1 18 36 2 19 39 1 19 41 0 21 42 2 20 42 2 20 40 1 19 41 1 23 46 
29 70 74 30 71 75 30 71 75 27 66 71 24 65 69 23 59 57 19 56 49 20 53 46 21 49 35 22 45 25 22 31 0 20 31 0 19 32 2 18 31 1 21 32 2 22 31 2 23 32 1 25 32 1 26 33 2 26 33 2 24 34 0 24 34 0 26 33 2 24 33 2 24 33 2 24 33 2 24 33 2 21 32 2 19 32 2 21 32 2 19 32 4 24 29 6 28 27 9 28 26 14 22 24 19 19 24 20 18 22 31 19 22 31 7 20 39 6 19 38 3 20 40 1 19 39 2 20 40 2 20 40 9 20 42 14 18 45 21 18 47 39 23 60 39 25 60 12 56 69 14 56 70 3 63 63 2 64 63 0 74 77 1 76 81 1 71 79 1 68 74 0 70 76 2 72 82 0 74 83 1 81 88 2 81 88 0 58 72 2 58 73 0 83 87 0 88 89 1 63 76 1 48 66 1 68 77 1 91 91 1 76 82 0 49 66 1 54 70 1 86 89 1 86 89 0 62 75 1 63 76 0 72 79 0 75 81 0 77 83 0 77 83 1 67 79 0 59 75 0 49 66 2 20 40 2 20 44 2 23 44 2 23 44 7 24 44 7 25 45 7 24 44 6 23 43 8 25 45 12 29 49 12 29 49 12 28 51 9 27 49 0 21 42 0 21 42 1 23 46 
35 69 71 32 67 71 32 70 71 30 62 61 29 61 58 20 52 39 18 45 26 19 41 18 20 33 5 23 34 4 22 31 0 23 32 1 22 33 3 21 32 0 21 32 0 20 31 0 23 32 1 22 32 0 25 32 0 26 33 0 24 34 0 26 33 0 28 33 3 28 33 1 26 33 0 27 34 3 28 33 1 21 32 2 21 32 0 20 31 1 22 31 0 25 24 6 29 20 13 23 19 18 10 13 28 9 15 29 1 23 44 2 23 44 0 22 45 0 22 45 1 23 46 1 21 45 1 23 46 0 22 45 3 21 43 1 20 37 12 18 44 48 15 62 42 19 61 24 37 56 21 38 56 4 59 62 1 61 62 0 70 70 0 70 72 0 68 71 0 65 67 1 68 74 1 71 79 1 74 80 1 80 87 2 81 88 1 59 71 0 58 70 2 83 87 0 89 90 0 62 73 1 48 66 0 68 81 0 90 90 3 73 81 1 48 66 1 54 70 2 87 90 0 87 89 2 61 75 0 62 75 1 71 79 0 75 81 1 76 81 2 75 82 1 67 79 0 59 73 1 48 64 0 17 37 2 19 39 0 21 40 4 21 41 12 28 51 15 30 51 13 29 52 12 28 51 15 33 53 24 36 58 22 37 58 23 38 59 17 33 56 2 23 44 2 24 45 0 22 45 
49 69 60 44 65 58 43 64 59 34 55 48 31 52 43 23 46 28 19 41 20 21 36 13 22 33 3 22 33 1 22 33 1 22 31 0 22 33 1 23 32 1 22 31 0 22 33 1 23 32 1 22 33 0 24 31 0 26 33 0 26 33 0 27 34 1 27 34 1 26 33 0 28 33 3 27 34 3 27 34 3 26 30 7 26 28 6 22 26 11 17 25 12 19 22 15 19 19 21 17 17 27 7 14 30 7 15 34 1 22 43 1 22 43 0 22 45 1 23 44 2 23 44 2 23 44 1 22 43 0 22 43 1 22 43 3 18 39 6 22 45 32 25 59 32 24 61 34 31 62 33 30 61 15 48 65 12 52 64 2 66 68 1 71 71 1 67 66 1 61 61 1 65 67 1 71 79 0 73 80 1 80 85 0 79 84 1 57 70 1 57 72 1 84 88 0 88 90 0 62 75 0 47 65 0 67 76 1 91 92 0 75 81 2 49 65 0 53 69 1 86 89 0 85 88 2 61 75 2 61 77 1 71 81 1 74 83 2 75 84 0 74 83 1 67 79 1 59 73 1 55 67 0 36 48 3 33 44 8 25 43 6 23 43 20 32 54 20 35 56 21 36 57 21 38 58 22 37 58 22 37 58 22 37 58 21 36 59 17 33 56 0 22 43 1 23 46 0 23 47 
73 66 47 63 58 39 65 58 40 44 46 24 36 42 16 27 36 7 19 32 2 18 31 1 21 32 0 21 32 0 22 31 0 25 32 1 23 32 1 23 32 1 23 33 0 23 32 1 23 32 1 22 31 0 22 31 0 23 33 0 25 32 0 24 34 0 24 34 0 26 33 2 24 34 0 28 33 1 28 33 3 34 24 14 34 24 15 19 18 24 11 16 35 6 14 33 1 16 35 0 15 34 0 15 36 1 16 35 1 22 43 0 21 42 1 23 44 0 24 44 1 24 42 2 22 46 0 21 40 0 17 37 2 19 37 1 18 36 3 24 45 2 44 60 9 42 61 49 19 69 49 19 69 30 31 61 29 33 62 7 60 68 1 69 70 1 61 61 0 52 48 1 60 58 3 67 76 1 72 78 2 77 83 1 76 82 0 58 72 2 58 73 0 83 87 0 87 91 0 61 74 1 48 66 0 68 77 0 90 90 1 74 81 0 47 65 1 52 69 1 86 89 1 86 89 0 59 73 1 60 74 2 70 81 0 73 82 0 75 81 1 75 84 0 66 78 0 56 73 1 59 70 2 69 62 2 64 61 13 27 53 13 28 51 30 42 64 31 44 63 35 48 67 39 50 70 31 44 63 23 38 59 19 37 59 16 32 55 10 31 52 1 23 46 2 24 45 1 23 44 
66 61 41 57 54 35 58 56 35 40 44 21 35 40 17 24 33 6 20 31 1 20 31 0 21 32 0 21 32 0 23 32 1 23 32 3 23 32 1 23 32 1 24 33 2 23 33 0 21 32 0 21 32 0 22 31 0 21 32 0 23 32 1 24 31 0 26 31 1 29 32 5 27 31 4 26 31 8 25 31 5 32 25 17 31 22 17 16 18 31 10 17 35 5 16 34 0 15 34 1 16 35 0 17 35 1 16 35 1 23 46 1 23 44 2 24 47 3 24 45 2 24 45 2 24 47 3 21 43 1 19 39 2 19 37 1 20 35 2 24 45 2 44 60 8 41 60 44 27 72 44 26 74 31 32 62 30 34 63 14 51 67 7 62 69 6 57 58 2 54 50 1 59 60 0 67 75 0 67 73 1 75 78 0 73 79 0 56 69 0 58 70 2 83 87 1 86 89 2 61 75 0 46 62 1 68 77 1 89 90 1 74 81 0 47 67 0 51 68 0 87 89 1 86 89 1 61 72 1 60 74 0 70 80 1 74 81 0 75 81 1 76 82 1 65 75 2 55 71 0 56 65 0 65 59 3 59 58 12 30 50 13 31 51 30 42 64 33 45 67 36 48 70 37 50 69 30 42 64 20 38 58 17 35 57 13 31 51 11 29 51 0 24 46 2 24 45 0 21 42 
24 34 7 27 36 9 26 35 6 24 33 4 22 31 0 21 32 0 18 31 1 19 33 0 21 32 0 23 32 1 22 31 0 21 32 0 22 33 1 23 33 0 21 32 0 22 31 0 21 32 2 18 31 1 20 31 1 21 32 0 21 32 0 21 32 0 25 29 6 34 24 15 33 23 14 15 22 40 14 23 40 2 19 39 1 18 38 1 18 38 0 17 35 2 17 38 0 17 35 0 17 35 1 18 36 1 18 36 6 27 48 5 26 47 10 30 54 10 30 54 7 27 51 8 28 52 7 25 47 5 23 45 4 22 42 4 21 41 4 27 45 0 43 59 1 47 62 2 80 90 4 81 89 35 39 76 40 32 73 43 21 67 44 18 66 28 37 68 9 55 68 7 57 68 1 65 74 1 62 65 0 52 48 0 52 48 1 56 61 2 55 61 2 81 85 1 86 89 2 61 75 1 47 63 0 67 76 0 87 89 1 74 81 1 46 65 1 53 67 2 87 90 1 84 88 2 60 74 1 59 73 2 68 80 1 74 81 1 74 83 1 75 84 1 65 77 1 56 76 2 51 66 0 39 46 1 40 45 10 45 51 9 43 52 42 55 72 45 56 76 39 52 71 37 49 71 15 33 53 1 23 44 0 24 44 1 23 46 2 24 45 0 24 44 0 25 47 0 17 35 
25 34 5 26 35 8 26 35 6 22 31 2 21 32 2 21 32 2 21 32 2 21 32 0 21 32 0 23 32 1 23 32 1 25 32 1 23 32 1 24 33 2 24 31 0 23 32 1 20 31 1 19 32 2 21 32 2 22 33 1 20 31 1 22 31 2 24 28 3 34 24 15 34 24 15 16 23 41 14 23 40 3 20 40 1 19 41 2 19 37 1 18 38 1 16 35 0 17 35 2 15 34 1 18 36 1 18 36 4 26 49 5 25 49 9 31 54 13 29 54 9 29 53 8 28 52 4 25 46 6 23 43 4 22 44 3 21 41 4 27 45 1 43 57 1 49 63 1 81 90 2 82 93 38 38 76 40 32 73 42 23 69 44 18 66 27 36 67 11 55 68 8 58 69 1 66 72 1 62 65 1 54 48 2 53 48 0 53 59 0 54 59 1 82 86 1 86 89 0 62 75 0 46 62 1 68 77 0 88 90 1 74 81 0 46 66 1 50 67 1 86 89 1 86 89 0 57 74 2 60 72 0 70 78 0 75 81 0 72 81 1 74 83 2 66 76 2 55 73 2 51 65 2 39 45 2 39 48 7 44 50 9 43 52 41 54 71 45 56 74 42 50 71 37 50 69 15 32 52 0 23 43 0 22 45 2 22 46 2 23 44 0 24 44 0 25 47 0 17 35 
22 31 0 23 32 1 22 31 0 23 32 1 21 32 0 22 31 0 22 31 0 22 31 0 23 33 0 23 32 1 24 33 2 23 32 1 23 32 1 23 33 0 21 32 2 21 32 0 20 31 1 20 31 1 24 27 8 31 22 15 23 23 25 10 21 39 7 22 41 6 24 46 7 25 45 1 18 36 1 18 36 0 20 39 0 20 39 1 19 39 0 17 35 0 17 35 0 17 35 1 18 36 1 22 41 0 21 40 0 22 43 1 22 43 1 23 44 2 23 44 1 24 42 1 23 46 1 23 46 1 23 46 1 23 44 2 23 44 1 28 49 0 46 62 1 48 64 1 80 87 2 80 90 1 71 79 2 72 82 10 63 79 13 58 81 24 40 73 33 21 61 31 23 64 29 28 68 23 38 71 4 66 77 6 64 75 1 56 59 0 56 57 1 71 73 2 71 76 0 66 62 2 63 56 0 75 71 2 87 90 1 72 78 0 46 61 1 49 63 2 83 86 1 85 87 1 59 73 2 60 74 1 68 77 2 72 80 1 74 81 0 74 83 2 67 73 1 62 67 1 61 62 1 54 58 1 52 56 1 18 38 1 18 36 4 22 42 4 22 42 2 20 40 1 19 39 3 21 43 0 21 42 1 21 45 1 21 45 1 22 43 1 19 41 2 20 40 4 22 46 
23 33 0 23 33 0 23 32 1 22 31 0 22 31 0 22 31 0 23 32 1 25 32 1 23 32 1 23 32 1 22 33 1 22 33 0 22 31 0 22 33 1 21 32 0 20 31 0 22 31 2 21 30 1 26 27 9 31 22 17 22 22 24 10 21 39 9 22 41 7 25 45 7 23 46 1 18 36 1 18 36 2 21 38 0 20 37 0 18 38 0 17 37 1 18 38 1 18 36 0 19 36 2 20 40 0 20 39 1 22 43 1 22 43 1 21 45 0 22 45 1 23 46 1 23 46 1 23 44 3 24 45 1 23 46 1 23 46 2 29 50 2 45 62 3 50 68 2 80 92 1 81 92 1 71 81 0 70 80 11 62 83 13 57 82 24 40 73 33 22 62 31 23 64 29 28 68 22 37 70 5 65 76 5 65 73 0 56 57 1 57 58 0 70 72 2 71 76 2 66 65 1 62 57 0 74 73 0 85 88 1 72 78 2 45 61 2 50 64 2 81 85 0 84 86 1 59 71 0 58 72 1 69 80 0 73 80 0 73 80 1 74 81 0 67 73 1 61 62 0 60 61 2 55 59 0 51 55 1 18 38 1 16 37 4 22 42 6 23 43 4 22 42 2 20 40 0 21 42 1 22 43 1 23 46 0 22 43 1 22 43 0 20 41 1 19 39 0 25 47 
22 31 0 24 33 2 23 32 1 21 30 1 21 32 0 21 32 2 20 31 1 20 31 1 18 32 0 20 31 1 19 32 2 21 32 2 20 31 1 21 31 4 28 25 10 29 22 12 15 20 24 11 19 30 7 20 36 5 24 41 4 22 42 2 23 44 2 23 44 2 22 46 1 23 44 1 23 44 1 23 44 1 23 46 2 22 46 1 21 45 0 22 45 0 22 45 0 20 44 1 22 43 2 20 42 0 21 40 0 20 44 2 23 44 1 22 43 0 21 42 1 20 37 1 19 39 1 19 39 2 19 39 1 35 45 0 54 51 0 53 55 1 53 64 0 57 68 1 79 92 2 78 92 0 64 76 0 62 75 3 70 86 4 73 88 6 65 81 7 60 78 14 51 77 22 40 76 21 35 72 24 28 66 25 30 68 18 34 68 17 33 69 5 57 71 3 61 72 1 58 67 3 53 60 2 67 69 2 77 82 0 68 67 2 54 52 1 56 53 0 69 66 0 71 67 0 58 72 0 58 72 0 58 59 0 59 55 0 72 71 0 77 85 0 68 69 0 56 55 1 55 55 1 55 57 1 52 56 0 24 44 1 24 42 1 23 46 2 22 46 2 23 44 1 22 43 1 22 43 0 21 42 1 22 43 1 22 43 1 22 41 1 19 39 1 19 39 1 16 35 
22 31 2 25 32 1 22 31 0 22 31 0 21 32 0 20 31 0 17 30 0 18 31 1 17 30 0 17 30 0 19 32 2 21 32 2 18 31 3 20 31 1 30 23 13 29 22 12 15 19 30 10 17 35 5 20 39 1 23 44 1 23 46 1 23 46 1 23 46 1 23 44 2 24 45 1 23 46 0 24 44 2 24 45 1 23 44 2 24 45 0 22 45 0 22 45 1 23 46 0 22 45 0 20 41 0 20 41 1 22 43 1 22 43 0 21 42 0 20 41 1 19 39 1 20 37 1 18 36 1 18 38 0 37 45 0 60 50 2 58 55 0 53 65 0 56 67 0 76 90 0 76 90 3 62 76 2 61 75 0 72 86 1 75 88 1 69 82 3 65 80 9 56 76 20 40 75 21 37 71 26 23 66 28 23 64 20 29 68 20 29 70 7 56 73 6 59 73 1 56 63 0 55 62 1 64 69 1 76 81 1 66 68 3 55 51 1 56 50 0 66 64 2 67 63 0 56 71 1 57 72 0 56 55 1 56 51 2 72 72 1 80 85 2 66 68 0 55 52 0 55 52 1 55 57 1 50 55 0 25 45 2 24 45 1 23 46 1 23 46 1 23 44 2 24 45 1 22 43 1 19 41 0 21 42 1 22 43 0 21 42 1 19 39 2 19 39 0 15 34 
23 32 1 25 32 0 23 32 1 22 31 0 21 32 0 21 32 0 17 30 0 19 29 2 14 30 1 16 29 3 24 25 9 23 25 11 12 22 21 12 22 21 11 16 22 12 15 22 8 17 32 3 19 35 3 20 40 4 22 46 2 23 42 4 25 46 4 25 46 2 23 44 3 24 45 4 25 46 3 25 48 1 23 46 2 27 49 10 48 67 6 37 57 1 23 44 1 23 44 1 23 44 1 21 45 1 21 45 1 23 44 1 23 44 0 22 45 0 22 45 2 19 39 1 19 41 0 21 38 2 21 36 1 35 45 1 49 51 0 51 55 1 54 62 2 56 68 2 75 92 2 75 92 2 61 75 2 58 73 1 68 84 1 73 88 1 68 85 1 64 81 5 61 78 9 57 79 10 56 79 12 52 78 14 51 77 16 36 71 16 36 71 13 39 72 13 37 71 6 40 65 4 41 60 1 52 69 0 61 79 0 56 71 1 48 58 1 49 61 1 71 71 1 71 71 0 52 66 1 53 67 1 62 67 2 63 64 2 68 67 0 70 70 1 62 67 1 53 64 0 52 63 0 47 65 0 44 65 0 25 47 0 25 47 1 23 44 1 23 44 1 23 46 1 23 46 1 23 46 2 22 46 0 22 43 2 23 44 0 22 43 1 22 43 0 20 44 1 18 36 
23 32 1 23 32 1 23 32 1 22 31 0 21 32 0 19 32 2 18 31 1 15 30 1 14 30 1 15 27 5 26 22 13 24 21 16 10 17 33 9 16 34 1 13 29 2 11 28 0 16 32 0 17 37 1 19 39 4 22 42 4 22 44 6 24 46 4 25 46 6 24 46 7 25 47 5 25 49 6 27 48 3 24 45 5 33 54 33 115 127 19 72 88 4 25 46 2 24 45 1 23 46 0 24 46 1 23 46 3 25 48 3 23 47 1 23 44 2 22 46 3 21 41 3 20 40 2 24 38 4 26 40 2 36 46 0 45 51 2 46 55 2 54 65 1 58 69 2 74 89 1 74 91 1 60 74 1 58 75 2 69 85 3 72 88 2 67 85 2 65 82 3 65 80 1 65 77 3 66 81 5 71 87 5 71 85 13 42 72 13 40 70 17 30 74 18 30 72 9 32 66 5 35 63 3 45 70 3 53 80 2 50 73 2 43 65 2 47 66 3 71 74 2 73 75 2 51 65 2 51 65 1 64 69 1 68 74 1 65 65 1 66 62 1 60 66 1 54 72 1 52 73 0 43 70 1 40 69 1 23 46 1 23 44 1 23 44 1 23 44 1 23 46 2 24 47 0 22 45 1 21 45 1 23 46 1 21 45 0 22 45 0 22 43 1 21 45 1 18 36 
25 32 0 22 31 0 23 32 1 21 32 0 22 33 3 23 28 5 24 29 9 17 28 12 13 25 21 11 26 23 14 23 30 13 23 32 6 21 40 6 21 40 3 18 37 2 17 36 0 15 34 2 13 31 2 17 36 3 21 41 5 23 43 6 24 44 6 24 46 7 27 51 10 28 52 9 27 49 9 27 51 7 28 49 9 31 52 13 44 65 10 32 55 4 26 47 3 25 49 5 23 45 3 23 47 3 25 46 3 23 47 3 23 47 2 24 47 3 24 45 3 20 40 2 20 42 2 21 38 3 22 39 7 28 45 15 34 49 12 40 54 6 54 64 4 56 67 2 73 91 1 72 90 1 57 74 1 57 72 2 68 84 3 72 88 1 67 83 1 64 81 5 64 80 1 64 79 2 65 82 2 71 86 4 71 88 7 47 72 8 48 73 11 53 78 10 54 79 5 45 70 3 37 65 4 43 72 1 48 76 2 46 73 2 39 66 3 40 67 1 54 72 2 55 73 1 46 69 2 47 70 1 53 67 3 56 70 2 55 69 3 55 69 3 51 71 2 48 72 2 46 71 1 37 69 2 36 63 2 18 41 2 20 40 1 23 44 1 23 46 1 23 46 3 24 45 1 23 46 1 23 44 0 22 43 0 22 43 1 23 44 1 22 43 0 22 45 0 17 37 
24 34 0 25 32 1 26 33 2 22 33 1 24 33 2 29 27 12 32 25 19 23 22 27 11 22 40 8 23 42 3 23 48 1 26 46 0 24 46 1 23 44 1 22 43 1 22 43 2 13 31 3 10 29 2 15 34 3 21 41 3 21 41 3 24 43 5 26 47 11 31 55 12 30 54 13 29 52 12 28 51 14 31 51 14 31 49 15 31 54 15 32 52 9 27 49 3 24 45 3 25 46 1 23 44 3 23 47 2 23 44 5 23 43 4 25 46 3 25 46 2 20 42 3 21 43 2 20 40 0 18 38 14 20 42 28 24 49 23 31 52 9 53 62 8 55 65 0 71 89 2 74 89 1 57 74 2 55 73 0 65 83 3 72 88 0 66 83 2 63 82 2 63 81 1 63 78 3 66 83 3 70 86 3 72 87 3 54 75 0 56 73 1 78 86 3 82 89 2 55 73 3 40 66 2 43 71 2 45 77 2 43 75 2 35 70 0 34 71 2 34 72 3 35 73 3 39 73 0 39 72 2 42 67 3 44 66 2 43 71 2 45 77 3 44 76 1 42 74 1 40 69 2 33 62 2 32 60 3 16 35 4 17 34 2 23 42 3 23 47 1 23 46 2 22 46 1 23 46 1 23 44 1 23 44 1 23 46 1 23 44 1 22 43 2 23 44 1 18 36 
