P3
100 50
255
49 63 74 51 61 73 55 64 81 57 64 82 56 63 81 57 64 82 49 56 75 43 51 72 42 50 69 40 48 69 37 45 66 28 39 61 31 42 64 58 65 83 56 63 81 35 43 64 29 40 62 12 36 36 5 36 28 1 28 19 0 23 13 8 23 16 15 28 21 13 29 19 13 38 19 13 38 17 28 33 13 24 33 12 25 36 4 23 34 2 24 35 1 25 35 0 26 36 1 26 36 1 24 35 1 25 35 0 25 35 1 25 35 1 23 34 0 25 35 0 24 35 1 25 35 0 25 35 1 23 34 0 23 34 0 23 34 2 25 35 1 25 35 1 25 35 0 25 35 1 26 35 4 24 35 3 31 37 11 32 38 10 36 40 15 37 39 15 36 39 12 32 36 9 34 37 10 31 38 5 29 39 5 30 37 4 30 37 4 30 37 4 28 35 2 23 34 4 22 36 1 19 33 0 20 34 0 21 34 4 19 33 0 20 34 0 20 34 0 23 34 0 21 32 0 22 33 0 16 33 1 16 32 3 17 34 2 15 32 0 26 40 7 33 43 9 47 46 15 60 51 20 60 51 20 58 49 18 58 49 18 67 57 21 66 58 22 66 56 21 67 57 21 67 57 22 66 56 20 67 57 21 67 58 19 66 56 20 66 56 20 65 55 19 66 56 21 67 56 24 
49 61 73 50 63 72 55 63 82 56 63 81 57 64 82 57 64 82 48 55 74 42 50 71 41 49 70 40 48 69 38 46 67 27 38 60 31 42 64 57 64 82 56 63 79 35 41 65 32 38 62 12 35 41 5 35 35 2 27 24 1 21 20 0 22 20 1 23 21 1 27 24 0 40 32 0 42 32 22 32 23 26 31 24 23 33 8 21 34 4 23 34 2 25 35 1 26 36 2 25 35 0 25 35 1 24 34 0 24 34 0 23 34 0 24 34 0 23 34 0 24 35 1 22 33 0 23 34 0 19 35 0 19 35 0 19 34 1 19 34 1 20 34 1 20 34 1 20 34 0 22 33 1 23 34 0 27 36 5 27 36 5 36 39 12 37 39 18 37 39 17 37 39 17 34 38 13 31 36 4 29 36 3 30 35 3 29 36 3 29 36 3 29 36 3 20 34 1 18 33 0 19 34 1 18 33 0 18 33 0 18 33 2 18 33 0 18 33 2 18 33 0 18 33 0 18 33 0 17 34 2 17 32 1 13 32 2 12 33 2 24 38 5 31 42 8 47 46 16 57 47 20 57 45 19 48 40 17 50 43 17 66 56 21 66 56 20 65 57 20 65 57 20 67 57 21 67 57 21 67 57 21 68 58 22 67 57 21 67 57 21 66 56 20 67 57 21 67 57 21 
51 60 75 49 61 73 56 63 81 57 64 82 57 64 82 57 64 82 52 59 78 46 53 72 42 50 71 39 47 68 37 45 66 28 36 57 30 41 63 57 64 82 57 64 82 34 42 63 28 39 61 11 34 42 4 32 36 3 29 30 2 23 26 1 25 29 1 26 30 0 27 28 0 38 35 1 37 33 16 27 29 16 27 29 11 26 19 14 25 19 22 26 12 24 28 13 26 31 8 29 36 5 33 40 9 39 46 15 37 46 17 37 43 15 34 43 14 28 38 4 28 37 6 22 36 1 21 35 2 21 35 2 20 35 2 19 33 0 19 33 0 20 34 1 21 35 0 20 34 0 24 35 1 24 35 1 29 36 5 29 36 2 31 37 9 34 38 11 32 38 12 32 38 12 31 37 9 27 37 3 26 36 2 30 37 4 29 36 3 27 36 7 27 36 7 21 34 4 19 34 1 17 32 1 18 33 0 17 32 1 17 32 1 18 33 2 18 33 0 18 33 2 18 33 0 18 33 0 17 34 0 17 34 2 18 33 2 17 33 4 27 38 6 33 43 9 44 43 12 56 46 19 50 43 17 37 32 13 39 34 14 54 47 18 56 47 18 66 56 21 67 57 21 70 57 22 67 57 21 66 56 20 67 57 21 67 57 21 67 57 21 67 57 21 67 57 21 67 57 21 
50 62 76 50 62 76 56 63 79 56 63 81 58 65 83 57 64 80 54 61 79 52 59 77 45 53 72 39 47 66 37 45 66 28 36 57 32 40 63 56 63 82 57 64 82 33 41 62 31 39 62 11 30 45 5 29 41 2 29 40 0 26 39 0 28 39 2 32 40 2 33 38 1 31 41 0 33 40 1 18 38 2 21 38 1 12 40 0 11 39 18 15 34 22 16 30 27 28 22 32 41 14 43 48 25 63 65 43 62 64 40 56 59 38 56 59 38 33 42 13 35 41 13 21 35 2 20 34 1 20 34 1 20 34 1 20 34 1 20 34 1 20 34 0 20 34 0 19 33 0 23 34 0 24 34 0 26 36 2 28 35 1 28 35 1 28 35 1 22 36 0 21 35 2 21 35 0 25 36 2 25 36 4 27 37 3 28 38 4 23 37 4 23 36 8 21 34 4 19 34 1 16 33 1 15 31 4 15 32 0 16 33 1 15 31 2 15 31 2 15 32 0 17 32 1 18 33 0 20 35 4 21 34 4 21 36 5 22 35 7 31 40 9 38 43 11 46 45 15 57 48 19 50 39 17 18 13 7 20 16 5 38 31 13 37 30 12 63 55 18 67 57 21 67 58 19 67 57 21 67 57 21 65 57 20 66 57 18 66 57 18 67 57 21 67 57 21 67 57 21 
51 61 73 51 60 75 55 62 80 57 64 82 56 63 81 57 64 82 54 61 79 52 59 77 46 54 73 40 48 69 36 44 65 28 36 57 31 39 62 56 63 79 56 63 81 33 41 64 30 38 61 10 34 46 2 30 41 2 29 38 0 29 37 0 31 36 0 33 38 0 34 36 0 33 38 2 33 36 1 20 35 1 20 35 0 15 38 2 14 36 15 17 30 20 18 29 26 29 20 29 39 12 39 47 23 58 60 38 57 61 38 54 58 35 53 57 34 32 41 10 32 41 12 22 36 3 23 34 2 21 35 2 19 34 1 20 34 1 20 34 1 21 35 0 20 34 1 20 34 1 24 35 1 24 35 1 25 37 1 28 35 1 28 35 1 28 35 1 24 35 1 22 36 3 24 35 3 26 37 5 28 37 6 30 39 10 29 40 8 28 41 13 29 41 17 21 34 4 21 35 2 18 33 2 16 33 1 16 33 1 15 32 0 15 32 0 13 32 0 14 33 1 16 33 0 16 33 1 21 34 4 19 34 5 21 34 8 21 34 6 31 40 11 38 43 11 49 45 16 58 47 19 47 39 16 16 13 8 20 16 7 39 32 13 39 32 13 64 54 19 67 57 21 66 57 18 67 58 19 67 58 19 67 58 19 66 57 18 67 58 19 67 57 21 67 58 19 67 57 21 
51 60 77 52 59 75 58 63 82 57 62 81 57 64 83 57 64 82 57 64 82 58 65 84 48 56 75 39 47 70 37 45 68 28 36 59 30 38 61 56 63 81 57 64 80 33 41 64 31 39 62 10 40 40 3 40 32 2 40 29 2 40 29 0 41 25 1 42 26 0 40 22 1 39 24 1 40 22 1 39 16 0 39 18 0 38 14 0 35 13 0 31 10 0 27 8 0 32 11 1 36 16 11 34 16 28 30 17 28 32 17 31 40 13 34 41 10 24 34 0 25 34 3 26 33 2 24 33 2 25 35 0 29 37 0 29 36 2 28 35 2 25 35 0 25 35 1 25 35 1 27 37 2 28 35 1 27 37 3 26 36 2 29 36 3 29 36 5 28 37 6 29 40 6 29 38 9 28 39 9 34 44 17 51 58 40 51 58 40 71 72 66 72 73 67 30 43 17 23 38 9 16 35 3 15 32 0 15 32 0 13 32 2 14 33 3 16 32 3 15 32 0 12 31 1 12 31 1 12 31 1 13 32 4 19 34 3 22 35 7 31 40 9 38 43 13 48 44 17 58 47 19 47 39 16 18 14 5 22 15 7 37 32 13 38 31 12 64 54 18 67 58 19 66 57 18 65 56 17 67 58 19 69 56 21 68 59 20 67 58 19 67 57 21 66 57 18 68 55 20 
52 61 78 53 60 78 57 64 82 57 64 82 58 63 82 57 64 82 56 63 81 57 64 82 49 55 77 38 46 67 35 46 66 26 37 59 31 39 60 57 64 82 56 63 81 34 42 65 29 36 62 10 40 42 3 40 33 2 40 27 1 39 26 0 40 24 0 40 24 0 42 22 2 41 23 1 39 24 1 39 16 0 39 18 2 37 13 1 36 14 2 31 11 1 28 9 0 31 13 0 38 17 8 35 18 25 31 17 28 32 17 32 41 12 32 41 12 25 35 1 25 35 1 24 34 0 25 35 1 25 35 1 29 36 2 27 35 0 25 35 0 25 35 1 23 34 0 24 35 1 27 34 1 25 35 1 26 36 2 26 36 2 29 36 3 29 36 5 28 37 6 27 38 6 28 39 9 29 40 10 35 44 17 50 57 39 49 58 37 70 73 64 71 72 66 29 42 16 24 37 7 18 35 3 16 33 1 15 32 0 13 32 0 14 30 1 16 32 3 15 32 0 13 32 4 13 32 0 12 31 1 13 32 2 18 33 2 22 35 5 31 40 11 40 43 12 50 46 17 58 49 20 50 39 17 17 12 6 22 15 7 37 32 12 38 31 13 64 54 18 67 58 19 66 57 18 66 57 18 67 58 19 69 57 19 69 57 19 67 58 19 67 58 19 68 56 18 68 55 20 
39 50 68 37 48 66 57 62 81 55 63 82 56 63 82 57 64 82 56 63 81 57 64 82 48 55 74 39 47 68 37 45 66 26 37 59 31 39 62 56 63 82 56 63 81 33 41 62 28 39 61 9 39 37 3 41 30 2 40 25 1 40 22 2 41 20 1 40 21 1 40 21 0 41 17 0 39 18 0 40 16 2 40 15 0 40 14 1 41 15 1 41 15 1 41 15 1 41 15 1 41 15 1 39 14 1 34 13 1 34 13 0 23 7 0 23 7 23 34 18 23 34 18 51 56 33 54 60 32 50 54 27 47 52 22 36 45 14 28 35 1 28 35 1 27 34 0 28 36 0 26 36 2 29 36 2 32 39 8 33 38 8 35 39 12 35 39 12 35 41 13 36 42 14 49 54 32 72 73 65 76 77 69 91 89 90 92 90 91 81 81 79 81 79 80 59 61 56 56 58 53 32 42 18 22 35 5 21 34 4 18 33 2 19 34 1 17 32 1 17 32 1 20 34 1 20 34 1 18 33 2 17 33 4 20 33 3 21 34 6 33 38 8 39 42 11 51 45 19 61 52 23 52 45 19 28 24 12 31 25 13 38 31 12 38 31 13 65 55 19 69 57 19 69 60 19 70 58 20 67 58 19 70 58 20 70 58 20 67 58 19 66 58 19 66 56 20 68 56 18 
39 50 68 39 50 68 56 63 81 56 63 81 57 64 82 57 64 82 57 64 82 57 64 82 48 55 74 40 48 69 36 44 65 28 36 59 31 39 60 54 61 80 55 62 80 32 40 61 28 39 59 9 39 39 3 38 31 2 38 24 0 42 22 0 42 22 2 41 22 1 40 19 0 40 16 0 39 18 0 40 16 2 40 17 1 41 15 1 41 15 1 41 15 0 42 15 1 41 17 0 40 16 1 39 14 1 36 14 0 33 12 0 22 10 1 22 7 22 33 17 22 33 16 51 57 31 55 59 32 49 55 27 47 52 22 37 44 13 26 36 2 27 34 3 30 36 2 25 35 0 26 38 2 28 35 1 32 38 10 34 39 9 34 41 10 34 41 10 36 42 14 33 42 15 47 55 32 72 74 63 73 78 71 92 90 91 91 89 90 80 80 80 80 80 80 58 63 57 56 58 53 32 42 18 23 36 8 22 35 5 18 33 0 19 34 3 17 32 1 18 33 2 20 34 1 19 33 0 17 32 1 19 33 0 20 33 3 21 34 4 33 40 9 38 41 12 50 44 18 61 50 20 52 44 21 30 22 11 32 24 13 39 32 13 40 32 11 63 55 18 68 59 20 66 57 18 70 58 20 68 59 20 66 58 19 69 56 21 67 57 21 67 58 19 66 56 20 68 56 18 
16 28 50 16 28 52 52 58 80 50 58 77 51 58 76 53 60 79 55 62 81 57 64 82 48 55 74 38 46 65 36 44 67 28 36 57 30 38 59 55 62 81 55 62 80 33 41 62 27 38 58 7 39 38 0 39 34 0 41 25 2 41 23 2 41 23 0 41 23 2 41 23 1 40 21 1 40 21 1 41 17 1 41 17 1 41 17 1 41 17 0 40 16 1 41 17 0 38 15 2 40 17 1 39 16 1 36 14 1 34 15 0 21 6 1 22 7 6 35 13 8 36 14 13 46 19 14 47 20 21 44 18 26 38 18 28 38 14 30 37 6 28 37 8 31 36 6 33 36 7 53 44 13 53 44 15 40 40 12 37 40 11 41 47 19 42 48 22 59 62 45 72 74 63 75 76 70 82 81 79 84 82 83 90 88 89 89 89 89 77 79 78 78 78 78 53 55 52 50 50 48 40 45 38 40 43 32 30 40 16 20 34 1 19 34 1 19 32 2 21 35 2 42 41 10 43 42 11 28 32 5 29 33 6 41 20 15 42 18 16 51 26 21 56 32 22 60 43 23 66 55 23 63 54 23 60 51 22 60 50 23 61 51 24 59 50 21 67 54 19 65 56 17 67 58 17 69 57 19 67 58 19 69 57 19 67 57 21 65 57 20 61 52 19 43 35 16 44 33 13 
9 19 44 9 19 44 49 57 78 49 57 78 51 58 76 52 59 78 55 62 80 57 64 82 48 56 75 39 47 68 36 44 65 28 36 57 31 39 60 56 63 81 55 62 80 30 41 59 26 37 57 8 39 41 2 38 34 0 40 29 0 40 22 0 41 23 0 41 23 0 41 23 0 40 22 0 40 20 0 40 16 1 41 17 2 42 18 1 41 17 1 41 17 1 41 17 0 40 16 1 41 17 1 41 17 2 37 15 1 35 11 0 22 4 0 23 7 3 37 13 2 35 14 0 40 16 1 41 17 13 34 15 20 35 16 24 36 14 30 36 10 31 37 11 34 37 10 37 37 9 62 48 19 61 48 16 40 40 12 37 40 11 43 47 22 46 50 25 69 71 60 83 84 76 83 84 79 86 84 85 86 84 85 90 88 89 89 89 89 75 77 74 75 77 74 52 52 52 47 47 47 44 46 43 44 46 41 32 39 21 20 33 3 20 34 1 20 34 1 24 35 3 51 47 12 50 45 15 32 32 6 33 33 9 48 16 21 51 14 22 58 23 27 60 29 27 64 43 24 66 56 21 67 57 22 71 57 28 70 59 27 67 56 26 67 56 26 66 54 16 65 56 17 66 57 18 67 58 17 68 59 20 68 58 22 67 57 21 65 55 19 58 49 16 36 27 12 35 25 13 
14 23 52 14 23 52 56 61 81 55 62 81 43 50 69 40 47 66 39 47 68 39 47 70 40 48 69 42 50 73 40 48 69 36 44 65 39 45 67 55 62 80 55 62 80 30 41 61 27 38 58 6 37 40 1 41 33 0 39 31 2 39 31 0 40 31 0 40 31 1 41 30 0 41 27 0 41 27 0 41 25 1 42 26 0 43 26 0 43 26 0 41 23 1 42 24 0 42 22 1 40 19 0 41 17 2 40 17 1 39 18 0 33 12 0 33 12 1 33 12 1 33 10 1 35 11 1 35 11 7 36 14 10 38 15 11 39 14 15 39 15 28 42 16 60 46 19 61 47 21 56 52 15 57 51 19 36 39 10 33 40 9 50 55 33 56 59 38 76 75 70 88 87 85 85 84 82 79 79 79 78 78 78 80 78 79 79 79 77 62 62 62 62 62 62 53 53 53 51 51 51 46 48 47 47 47 45 40 44 30 32 40 17 29 37 13 27 34 3 29 31 7 56 32 20 55 31 19 66 49 21 67 48 18 55 19 23 57 15 25 59 23 27 62 28 29 63 42 23 65 57 20 69 56 22 67 56 24 68 58 23 66 56 21 67 57 21 66 57 18 66 57 18 65 56 17 65 56 17 67 55 17 68 54 15 67 55 17 65 55 20 57 48 17 32 25 9 33 23 11 
16 27 57 16 25 58 59 65 81 59 64 83 37 45 64 32 40 61 28 38 65 28 38 65 34 44 69 43 49 71 41 49 72 40 48 71 43 51 70 54 63 80 55 62 78 29 42 59 25 38 57 7 38 40 0 39 34 1 40 37 1 40 37 0 39 36 1 40 35 0 41 35 0 41 33 0 42 32 0 42 32 1 41 32 1 42 34 2 42 34 1 41 30 0 41 27 0 41 23 1 40 19 0 41 19 0 40 16 1 41 17 1 41 15 0 40 16 0 32 11 0 32 11 0 32 11 1 30 12 1 37 11 2 42 18 6 41 17 6 40 16 23 43 18 76 52 24 73 52 23 57 54 19 57 54 21 35 40 10 31 38 7 53 58 38 61 63 49 79 80 74 91 89 90 84 84 84 77 77 75 76 75 73 72 72 72 72 72 72 54 54 54 53 53 53 53 53 53 53 53 51 49 49 49 48 48 48 42 45 36 36 43 27 35 39 16 30 33 6 35 30 8 59 23 25 60 24 26 87 58 28 86 57 25 62 19 28 58 15 25 60 24 26 62 28 27 64 43 26 66 58 21 66 58 21 65 55 19 67 57 21 67 58 19 68 55 20 67 54 19 67 58 19 65 55 19 65 53 15 67 55 17 68 56 18 66 57 18 68 55 20 57 48 17 32 24 11 32 24 11 
28 45 73 31 45 74 58 63 82 58 65 84 39 47 66 31 42 64 29 41 63 27 39 63 37 48 68 50 57 76 46 52 74 39 47 70 39 47 68 43 49 71 42 50 69 17 40 48 15 40 47 4 40 40 0 39 34 0 41 35 0 41 37 0 41 37 1 42 34 0 42 35 2 41 36 0 41 35 2 41 38 0 41 35 1 42 34 1 40 35 1 41 30 1 42 28 0 42 28 3 46 29 3 46 29 1 43 23 2 44 24 1 40 19 1 40 19 2 35 14 3 36 15 8 36 14 10 35 13 9 37 15 10 35 13 21 39 15 33 43 18 46 49 20 88 66 29 80 64 28 35 48 18 34 49 18 28 40 16 28 40 16 61 65 50 71 73 62 77 78 73 81 79 80 79 79 79 75 75 75 75 75 75 74 74 72 74 74 76 60 60 60 60 60 60 53 53 53 52 52 52 49 49 49 48 48 48 46 47 42 43 46 35 45 40 34 54 29 25 54 30 26 72 26 37 73 27 38 90 66 30 90 66 30 75 37 28 73 32 26 71 33 30 69 34 32 70 44 27 65 55 20 66 56 21 66 58 21 66 56 21 67 57 21 66 56 20 64 54 19 63 52 20 64 54 18 64 54 19 65 56 17 65 56 15 66 57 18 67 54 19 57 48 19 31 23 12 32 22 10 
42 63 90 43 64 91 57 64 82 56 63 81 41 47 69 33 44 64 29 40 60 25 38 57 41 49 68 55 62 81 50 58 77 37 45 66 37 45 66 30 37 63 30 38 61 8 40 39 3 38 34 0 39 36 2 41 38 1 40 37 0 41 37 0 41 35 0 41 35 1 40 35 1 42 36 2 41 36 1 40 39 0 41 37 1 40 35 0 39 34 1 42 28 3 41 26 2 46 29 4 50 37 3 47 34 1 43 33 2 42 31 0 42 20 2 41 22 1 41 17 0 40 16 18 42 18 20 39 17 19 32 14 20 29 12 42 37 17 61 47 20 70 55 24 95 81 34 87 76 31 14 44 16 14 44 18 24 42 20 27 40 23 67 70 63 80 81 76 75 75 73 71 71 71 73 71 72 74 74 74 75 75 75 75 75 75 75 75 75 66 66 66 67 67 67 53 53 53 50 50 50 49 49 49 48 48 50 50 48 49 49 49 49 57 42 49 72 30 44 74 30 45 85 30 49 87 28 50 94 77 34 95 76 34 88 52 28 87 49 26 80 42 31 76 38 35 70 47 29 68 54 19 68 55 21 66 56 21 66 58 22 66 56 20 66 56 21 59 50 19 57 46 14 63 52 20 64 54 19 66 56 20 67 57 21 68 55 20 65 55 19 57 48 17 32 23 14 31 23 12 
34 58 86 34 58 86 58 63 82 57 64 80 41 49 68 35 43 62 28 41 60 23 39 55 41 52 70 56 63 81 51 59 78 39 47 68 38 46 67 27 37 62 31 39 62 7 39 34 4 39 35 0 39 34 0 41 35 0 41 33 0 41 35 1 40 35 0 41 35 1 42 34 1 42 36 1 42 36 2 41 36 0 42 38 1 42 36 1 44 37 2 50 34 1 52 33 4 51 35 5 53 39 5 49 36 1 43 33 0 44 31 0 41 23 0 42 22 1 40 19 2 42 18 25 43 19 28 43 20 27 36 15 23 35 13 45 43 18 67 52 23 75 59 25 96 82 35 84 76 29 14 44 18 15 43 18 24 43 24 25 44 25 67 70 63 80 80 78 74 74 72 71 71 71 72 72 72 71 69 70 70 70 70 71 71 71 71 71 71 65 65 65 65 65 65 52 52 52 51 51 51 49 49 49 48 48 48 48 48 50 48 48 48 56 41 46 72 31 45 73 31 45 87 30 49 85 30 49 93 75 35 94 75 35 88 57 29 88 54 27 82 46 32 77 43 34 74 49 29 69 54 21 69 55 20 66 56 21 66 56 21 66 56 20 66 56 21 57 46 16 55 46 15 57 46 18 59 45 16 60 49 17 64 51 17 65 52 17 66 56 21 58 49 18 38 28 16 38 28 16 
11 42 70 12 43 71 58 65 83 59 64 83 41 49 70 35 43 64 29 42 59 25 41 57 41 52 70 57 62 81 53 60 76 41 52 70 42 50 71 31 37 61 30 38 61 9 40 35 4 40 30 1 42 28 1 42 28 1 42 28 0 40 29 1 41 32 1 41 32 0 42 32 1 42 34 1 42 34 1 42 34 1 42 34 0 50 39 1 51 40 4 72 51 3 81 55 3 71 50 4 61 46 3 55 43 0 45 38 1 46 39 0 41 33 1 43 33 0 41 27 0 41 27 48 48 24 55 50 21 46 50 25 38 51 23 64 58 26 92 66 33 94 70 32 96 86 37 84 80 33 13 43 15 15 43 18 21 50 32 22 51 31 65 71 67 78 76 77 73 73 73 71 71 69 65 65 65 53 53 53 54 54 54 56 56 56 57 57 57 62 62 62 62 62 62 55 55 55 53 53 53 49 49 49 48 48 48 47 45 48 44 44 44 51 39 43 68 35 46 70 34 46 84 30 46 85 30 49 93 75 37 93 75 35 95 73 34 93 71 30 89 59 35 83 50 31 79 51 27 77 54 22 73 54 21 65 57 21 66 56 20 66 58 22 65 57 21 51 39 15 49 37 13 43 27 11 41 23 9 48 33 14 52 40 16 57 46 18 65 55 20 64 53 21 59 48 28 60 47 28 
10 45 67 12 44 67 58 65 83 57 64 80 40 48 69 35 43 64 29 42 59 24 40 55 39 52 69 56 63 81 53 60 76 44 52 71 43 49 71 31 37 61 30 38 61 10 42 39 5 45 36 2 46 33 3 47 34 4 46 34 3 47 34 3 45 31 2 46 33 2 46 33 2 48 37 2 48 37 2 48 37 1 47 36 3 53 42 2 54 41 4 69 49 6 75 54 4 66 51 5 59 46 3 53 42 0 45 38 1 46 39 1 42 34 1 43 33 0 40 29 2 40 29 49 47 24 56 50 24 48 51 24 46 55 28 69 58 28 92 66 31 93 71 34 98 85 40 85 81 36 14 44 18 13 46 19 19 50 32 21 52 34 62 68 64 76 74 75 73 73 73 70 70 72 65 65 65 54 54 54 54 54 54 58 58 58 57 57 57 64 64 64 64 64 64 55 55 55 54 54 54 50 50 50 48 48 48 46 46 46 42 42 42 54 39 44 68 36 47 68 35 46 84 30 46 84 29 48 92 77 38 94 76 38 95 73 34 93 74 34 88 61 34 85 53 32 81 54 27 78 55 21 78 55 23 66 56 21 66 56 21 65 55 20 65 57 20 52 40 16 49 38 16 45 29 13 43 25 11 49 34 13 51 39 15 56 45 17 66 56 21 64 53 21 60 50 25 60 49 27 
13 44 46 12 43 46 57 64 82 57 64 82 41 49 68 35 43 64 27 43 59 23 43 54 40 52 68 56 63 81 54 61 79 44 52 71 42 50 71 30 36 60 29 36 62 14 65 58 12 70 56 12 80 59 9 81 57 13 81 56 11 82 52 14 78 54 11 71 46 10 74 47 7 81 48 5 80 47 7 82 51 7 82 52 7 79 55 7 81 56 5 59 45 4 51 41 2 48 37 2 45 35 4 44 35 2 43 29 2 42 31 1 42 36 1 42 34 1 40 35 0 41 37 62 51 29 70 53 27 83 65 29 90 72 26 91 72 39 90 73 47 93 78 47 98 90 51 89 84 46 27 49 26 26 48 27 24 51 32 23 50 33 58 64 60 68 68 66 63 63 63 60 60 60 59 59 59 55 55 53 57 57 57 62 62 62 62 62 62 74 74 74 74 74 74 62 62 62 60 60 60 53 53 53 51 51 51 45 47 46 41 41 41 52 40 42 68 35 42 71 36 43 86 32 45 85 33 45 94 84 49 97 87 51 96 83 48 96 83 48 92 72 37 90 66 28 88 62 29 82 58 24 79 56 24 65 55 20 65 54 22 63 55 19 64 54 19 50 39 17 50 40 15 50 33 13 54 33 16 54 36 16 54 38 15 59 45 18 67 57 22 67 57 22 65 57 21 65 55 20 
12 43 45 12 43 45 57 64 82 57 64 82 41 49 70 35 43 64 29 42 59 23 41 55 40 52 68 55 62 80 54 61 79 44 51 70 41 49 70 30 36 60 29 35 59 14 65 58 13 71 57 11 79 58 8 82 57 11 81 55 15 81 54 11 77 50 12 71 43 10 72 47 6 80 47 6 80 45 7 83 53 8 83 53 7 79 55 7 81 56 5 57 44 1 51 40 2 50 38 2 45 35 2 44 32 2 43 29 1 42 28 1 44 35 0 43 33 1 40 35 0 39 34 62 52 27 70 53 27 83 63 28 91 70 27 90 72 36 95 74 45 92 77 46 97 89 50 88 86 48 26 50 26 26 50 26 24 51 32 24 51 34 55 64 59 70 70 70 63 63 63 60 60 60 58 58 58 53 53 53 57 57 57 62 62 62 61 61 61 75 75 75 75 75 75 61 61 61 59 59 59 54 54 54 51 51 51 46 46 46 40 40 40 50 40 41 68 37 43 73 36 44 86 34 46 86 33 43 96 86 50 97 87 51 97 84 49 93 83 48 92 72 35 91 67 29 90 61 27 84 58 25 81 58 24 64 54 19 64 56 20 64 56 20 62 54 18 50 39 17 50 39 17 52 34 14 53 32 15 55 37 17 54 38 15 57 46 18 65 57 21 65 57 21 65 57 21 65 55 20 
11 56 75 14 57 74 57 64 82 59 65 81 42 48 70 33 44 64 29 48 65 26 49 65 40 56 72 57 64 82 54 61 79 42 53 73 43 51 72 30 38 61 30 36 60 17 60 53 13 63 51 14 67 57 13 71 59 8 75 57 8 78 54 5 79 56 3 77 52 4 78 51 5 79 52 6 79 52 4 66 43 5 64 42 8 75 57 9 76 58 9 80 66 10 78 67 11 79 68 13 79 69 13 79 69 18 79 71 16 77 72 6 67 72 7 67 75 3 44 50 2 43 49 68 53 32 78 54 28 89 75 36 94 88 40 90 74 49 84 64 57 89 71 59 97 93 66 92 90 65 53 59 45 52 58 46 20 45 26 14 43 23 65 75 67 82 82 80 70 70 70 62 62 62 61 61 61 62 62 62 67 67 67 81 81 81 81 81 81 76 76 76 76 76 76 60 60 60 58 58 58 52 52 52 51 51 51 47 47 47 40 42 41 54 44 45 74 47 52 76 47 52 89 53 57 86 54 57 97 95 70 96 94 69 89 73 58 87 69 57 93 78 47 96 84 42 90 70 35 88 59 27 82 57 27 66 55 23 65 54 22 66 56 21 64 55 22 50 39 17 49 38 18 47 30 12 47 28 13 50 33 15 52 37 18 58 44 18 65 57 21 66 56 21 64 56 20 66 56 21 
12 59 79 12 59 79 59 62 81 57 64 83 41 47 69 32 43 63 29 48 65 26 49 65 40 56 72 56 63 81 52 61 78 44 52 71 42 50 71 30 38 61 28 35 63 16 59 52 14 62 50 15 68 58 15 68 62 10 74 58 4 78 55 6 78 56 0 78 52 4 78 55 7 80 53 5 81 53 5 63 41 5 63 41 11 75 58 9 76 58 11 82 68 10 82 70 13 83 73 13 83 73 15 85 75 21 83 78 18 83 79 7 70 79 7 69 80 2 45 54 0 43 49 68 53 32 78 54 28 89 75 38 97 89 43 90 75 52 85 61 59 87 70 60 95 93 68 92 90 65 58 61 50 57 60 49 16 43 26 13 40 23 67 73 69 84 84 84 70 70 70 63 61 62 64 62 63 63 63 63 67 67 67 84 84 84 85 85 85 77 77 77 77 77 77 59 59 59 56 56 56 53 53 53 52 52 52 46 46 46 41 41 41 54 44 45 74 47 52 76 49 54 90 55 59 90 55 59 98 96 73 98 96 73 87 71 58 86 68 58 92 78 49 95 86 43 92 72 35 90 56 28 84 57 28 65 54 22 65 54 22 66 57 24 63 57 21 51 40 18 48 37 15 47 30 12 45 28 12 49 32 14 52 35 15 58 44 17 66 55 23 65 56 23 65 55 20 65 55 20 
6 31 71 5 30 70 32 46 75 33 47 76 30 42 68 28 40 64 21 42 69 14 44 72 35 53 75 56 63 79 53 60 78 43 50 69 38 49 67 29 36 62 29 36 62 8 47 46 7 46 41 3 48 43 3 48 43 2 52 43 1 52 43 1 55 41 5 59 45 7 64 47 15 78 59 16 81 61 23 81 66 25 82 67 29 86 77 31 88 81 22 83 76 20 81 76 19 82 74 19 80 72 20 76 75 18 71 77 19 68 75 6 42 58 5 43 56 0 36 48 2 36 48 67 49 29 79 51 27 86 73 41 93 84 51 94 87 61 93 87 71 94 87 69 93 87 61 91 85 61 74 72 47 75 73 48 36 35 33 33 27 29 65 65 65 77 77 77 73 73 73 73 73 73 74 74 74 76 76 76 78 78 78 85 85 85 84 84 84 70 70 70 69 69 69 63 63 63 63 63 63 56 56 56 55 55 55 48 48 48 42 40 41 55 40 43 75 38 45 77 42 46 91 67 55 92 65 54 96 90 64 94 90 65 95 88 69 94 89 70 95 90 58 97 89 52 92 73 40 90 56 29 87 50 31 83 39 38 82 38 37 71 48 30 71 49 28 55 40 19 52 37 18 52 33 16 53 32 15 54 36 16 55 40 17 57 45 19 66 56 21 65 57 21 64 56 20 65 57 21 
1 22 69 1 22 69 25 40 73 26 41 72 28 40 66 25 40 63 16 39 70 9 39 73 33 53 78 57 64 82 53 60 78 43 51 72 41 49 68 27 37 62 29 37 60 7 43 43 1 43 39 1 42 38 1 42 38 1 42 38 2 43 37 2 47 40 4 51 41 7 59 46 21 80 58 18 79 61 33 86 76 32 85 77 36 89 83 37 89 85 27 83 82 22 80 81 22 81 77 19 80 73 20 75 78 20 66 81 17 65 77 7 33 50 6 33 50 1 33 46 1 33 46 69 48 29 80 49 28 89 72 46 94 85 56 95 91 66 100 95 75 96 94 73 93 88 59 91 86 57 82 79 48 82 78 49 42 29 36 38 22 32 66 61 67 74 74 76 75 73 74 77 77 77 78 76 77 81 81 81 81 81 81 84 84 84 85 85 85 67 67 67 67 67 67 65 65 65 64 64 64 58 58 58 54 56 55 48 48 48 42 42 42 54 39 42 76 37 42 78 39 44 91 70 51 90 69 50 93 89 60 94 88 62 96 94 73 97 95 74 97 92 62 96 90 54 93 72 41 89 53 29 88 49 32 89 31 43 86 33 41 73 46 29 73 46 29 55 40 19 51 39 17 53 34 17 51 32 15 55 37 15 57 39 17 61 45 19 66 58 22 65 57 21 64 55 22 65 57 21 
1 11 60 1 12 58 11 19 56 11 20 59 11 21 57 11 21 56 8 22 57 6 24 62 25 41 67 45 57 73 47 56 73 44 51 69 42 50 69 22 38 54 22 38 54 6 42 38 4 41 34 2 45 35 1 44 34 2 45 36 1 44 34 3 46 36 3 46 36 3 46 37 9 55 42 8 54 41 12 55 48 12 55 48 14 56 54 14 56 55 15 63 65 16 64 68 14 62 66 14 62 66 13 53 61 10 39 55 8 36 57 1 26 48 1 28 49 1 36 55 1 36 55 68 46 33 74 47 26 83 52 50 87 55 68 87 65 68 89 74 69 91 78 69 93 87 53 94 85 54 81 64 38 81 63 39 28 32 43 20 27 45 58 59 64 69 70 72 74 75 77 79 79 79 83 81 82 86 86 86 83 83 83 73 73 73 74 74 74 67 67 67 66 66 66 66 66 66 66 66 66 59 59 59 57 57 57 50 50 50 44 44 44 44 38 42 46 28 40 49 32 40 84 58 41 83 57 40 95 84 54 94 83 51 92 85 69 92 85 69 89 70 66 89 59 67 89 54 50 87 48 31 88 46 34 88 32 41 86 33 41 83 39 38 83 39 38 78 37 35 77 36 34 70 35 29 70 36 27 62 39 25 56 39 19 59 45 19 65 56 23 63 54 21 63 54 21 65 55 20 
3 5 54 1 5 52 1 9 46 1 9 46 1 11 47 2 12 48 0 16 52 1 15 54 20 34 61 39 52 68 40 53 70 42 50 71 38 49 69 20 38 52 20 38 52 4 41 34 1 41 32 1 45 32 0 46 33 0 46 35 2 45 35 1 45 32 1 41 30 0 42 30 2 39 31 0 39 30 1 38 31 1 38 31 0 36 36 0 36 36 9 50 52 10 55 60 12 52 60 12 52 60 7 41 51 1 22 41 2 20 40 2 24 47 1 23 47 1 39 62 2 38 62 64 44 33 74 45 27 79 40 58 84 36 76 84 51 72 85 62 68 89 68 65 95 87 50 95 82 48 81 56 34 83 57 34 18 34 49 9 30 51 50 59 66 67 68 70 76 76 76 81 81 81 84 84 84 88 90 89 84 84 84 68 68 68 67 67 67 66 66 66 67 67 67 67 67 67 67 67 67 59 59 59 56 56 56 50 50 50 44 44 42 38 36 41 27 25 39 33 25 38 78 51 34 77 51 36 93 80 45 95 80 47 92 78 67 90 76 65 85 54 70 80 39 71 84 43 51 87 45 31 87 43 34 88 32 43 88 32 41 91 34 43 90 33 42 92 36 45 92 37 43 83 34 37 79 35 36 65 37 26 55 38 18 59 45 19 65 57 21 64 55 22 64 56 20 65 54 22 
3 4 60 2 2 62 0 8 45 2 7 45 2 10 47 2 10 46 2 15 47 1 18 48 13 31 53 27 45 59 24 43 57 27 45 57 26 46 57 11 38 47 11 38 49 4 39 35 0 40 32 0 40 32 0 39 34 2 39 32 1 37 33 1 38 31 0 37 30 0 35 29 0 35 29 2 34 31 2 32 32 2 32 30 0 29 33 1 30 34 7 35 46 7 39 50 7 39 52 10 39 53 4 30 45 1 19 39 1 19 39 2 24 45 0 23 41 9 35 52 9 35 52 68 44 32 74 45 31 84 36 60 86 32 81 89 39 76 87 49 74 86 52 66 90 69 52 89 68 49 86 61 41 82 60 39 38 44 56 32 44 60 53 60 68 67 68 72 78 78 80 84 84 84 86 84 85 82 82 84 79 79 79 66 66 66 67 67 67 66 66 66 67 67 67 66 66 66 66 66 66 60 60 60 59 58 56 51 51 51 45 45 45 39 38 43 33 33 45 39 38 46 80 61 46 84 62 48 91 67 43 88 66 42 88 58 68 88 57 72 88 43 76 87 34 78 88 40 56 88 45 29 88 44 33 89 37 41 90 38 40 93 38 41 91 39 41 93 43 46 93 43 44 87 43 42 86 42 39 74 45 31 70 44 27 67 49 25 66 57 24 65 57 20 63 54 21 63 54 21 
3 0 71 4 0 74 1 6 44 3 8 46 0 9 40 0 10 37 1 18 38 0 23 37 1 25 37 1 28 37 1 30 38 1 35 37 0 34 36 2 37 39 0 35 37 1 36 40 1 34 39 2 32 34 0 29 33 2 27 31 0 28 31 0 28 31 1 28 35 1 29 33 0 25 29 1 27 28 1 25 27 0 24 24 0 20 29 0 18 28 1 17 33 1 14 33 2 14 36 0 14 37 0 15 38 2 14 38 1 16 39 1 20 37 2 21 38 21 28 36 21 28 36 69 43 30 77 46 28 87 30 65 94 22 85 94 24 84 91 26 84 91 27 77 78 34 49 79 39 48 89 67 53 87 68 53 71 70 66 70 70 70 65 68 73 62 67 71 80 81 83 92 90 93 83 83 81 73 73 71 70 70 70 67 67 67 67 67 67 66 66 66 65 65 65 64 64 64 65 65 65 60 60 60 59 59 59 52 52 52 45 45 45 45 46 48 41 45 54 46 50 53 90 76 65 90 78 66 79 42 34 79 42 36 85 28 73 87 27 79 92 24 85 95 23 87 94 34 60 89 45 32 90 46 33 92 44 32 94 46 36 94 47 39 95 47 37 96 52 43 95 52 43 93 55 46 96 56 48 92 54 43 90 52 41 81 52 34 63 57 23 64 55 22 63 54 21 64 53 21 
4 1 72 3 0 71 2 6 44 2 6 44 2 8 44 0 9 40 1 15 41 2 19 39 2 21 38 1 24 40 0 26 37 1 30 38 0 31 36 2 31 39 0 33 40 0 30 40 1 29 40 0 26 33 1 26 33 0 25 32 1 24 30 1 24 32 2 26 36 0 26 35 0 22 35 1 24 32 1 21 32 1 21 32 2 18 34 0 17 33 0 14 35 0 15 36 1 13 37 1 13 37 1 13 39 0 12 38 0 12 38 3 18 37 3 18 37 30 29 35 32 29 36 72 43 29 78 45 26 88 31 63 94 24 84 94 24 84 92 27 85 89 27 76 79 34 54 84 37 55 88 69 54 87 70 54 74 70 67 73 72 68 64 69 73 63 68 72 80 81 85 87 89 88 81 81 81 70 70 70 69 69 69 67 67 67 67 67 67 66 66 66 65 65 65 65 65 65 65 65 65 60 60 60 60 60 60 53 53 53 44 44 44 46 47 49 52 53 55 57 57 55 91 79 65 91 79 65 80 38 40 81 39 41 86 28 76 87 26 83 94 24 86 96 24 88 93 35 59 89 47 31 88 46 30 90 48 34 91 47 36 95 49 36 93 49 38 94 54 42 94 54 42 94 54 44 95 55 45 92 54 41 92 55 39 83 56 39 70 59 29 71 57 30 67 56 26 66 55 25 
4 1 70 3 0 71 2 3 49 4 2 51 2 5 50 1 4 49 0 5 45 1 6 46 0 8 44 1 10 43 0 11 41 1 17 40 0 15 38 2 17 38 0 15 38 0 14 37 0 12 38 0 12 36 1 10 39 0 12 38 1 13 39 1 15 41 0 18 40 0 18 42 0 16 42 1 15 44 1 9 45 1 10 43 2 10 49 1 10 49 1 9 46 0 9 42 2 8 44 2 6 41 2 7 39 1 6 38 0 5 35 12 7 39 12 5 36 58 32 35 58 32 35 80 48 23 86 50 24 90 39 56 93 32 76 95 28 82 97 25 91 94 26 85 88 31 66 89 36 66 90 73 53 89 72 56 90 83 67 92 85 67 68 72 73 61 68 74 75 76 78 81 81 81 77 75 76 65 65 65 65 65 65 68 68 68 68 68 68 66 66 66 67 67 67 65 65 65 63 63 63 63 63 63 63 63 65 53 53 53 43 43 43 57 56 52 79 77 64 83 77 65 92 83 66 92 83 66 84 31 51 83 32 51 95 23 86 96 23 92 96 26 88 92 27 85 88 37 54 84 48 24 86 49 30 91 58 41 90 57 38 94 55 38 94 57 39 95 56 39 96 54 38 94 57 39 96 57 40 94 57 39 95 58 40 95 59 43 94 65 51 90 64 47 76 64 38 75 64 36 
5 2 71 5 2 73 4 2 51 2 3 51 1 3 51 0 6 52 0 5 45 0 7 44 2 8 44 1 10 41 1 12 42 3 18 41 0 18 40 1 16 39 0 16 39 1 13 37 0 12 38 0 12 38 0 12 38 1 13 39 1 13 37 1 13 39 1 19 41 1 17 40 0 15 44 0 14 43 0 10 45 0 11 43 0 8 45 0 9 48 1 9 46 0 8 44 1 7 43 0 6 38 2 6 41 0 5 35 2 7 37 12 9 40 10 7 38 58 32 35 56 31 34 80 48 23 84 50 23 91 40 57 93 32 76 94 29 83 96 25 91 95 25 85 90 30 66 89 34 66 89 72 52 90 73 55 91 84 66 92 85 69 70 71 73 61 68 76 74 75 77 83 82 80 75 75 75 64 64 64 66 66 68 69 69 69 68 68 68 66 66 66 65 65 65 63 63 63 64 64 64 64 62 63 63 63 63 55 53 54 43 43 45 57 56 52 79 77 64 81 77 66 90 82 63 93 81 65 84 33 52 85 30 49 96 24 88 96 24 90 97 25 88 96 26 86 89 36 56 85 47 24 86 49 30 90 57 38 89 56 37 94 57 39 94 57 41 94 55 38 94 55 38 94 55 38 95 56 39 95 58 40 94 57 39 96 60 44 94 65 51 90 64 47 76 64 38 77 63 37 
4 1 70 3 0 71 5 1 51 4 2 51 1 0 57 0 1 58 1 2 59 1 2 56 0 3 56 0 1 55 1 3 54 0 2 50 0 4 51 0 4 51 2 2 52 0 2 53 1 2 56 1 2 56 2 3 57 1 2 58 1 2 58 0 1 57 1 0 60 1 2 59 1 2 59 2 2 62 1 5 69 0 5 69 1 6 74 1 6 74 0 3 70 0 3 70 7 3 64 12 3 56 18 7 49 34 16 38 30 17 37 11 24 43 11 22 40 18 25 41 18 26 39 78 46 23 88 48 22 88 46 30 85 45 33 88 50 41 91 53 44 90 52 39 84 52 27 85 53 28 88 63 41 88 63 41 92 75 55 92 77 56 65 67 66 53 62 69 65 66 70 70 70 68 68 68 70 63 61 62 64 64 64 67 67 67 66 66 66 68 68 68 68 68 68 64 62 63 62 62 62 58 60 59 61 59 60 51 51 53 41 42 44 53 54 49 76 70 56 78 70 57 88 70 46 88 70 48 86 55 34 85 54 33 90 53 45 93 54 49 91 49 51 90 45 52 86 46 36 87 47 21 75 42 25 37 28 33 39 26 33 54 27 32 54 27 32 83 54 36 89 58 38 91 65 40 93 67 40 96 72 44 97 73 45 96 75 46 96 76 51 96 77 47 96 73 42 96 73 42 
6 0 70 6 0 70 5 1 51 5 1 51 0 0 54 1 1 61 1 2 59 0 1 57 1 2 58 0 1 57 1 3 54 1 4 49 0 4 51 2 4 52 2 4 53 1 2 56 1 2 56 2 3 57 3 3 57 1 2 56 1 2 58 1 2 59 3 0 58 1 2 59 0 1 58 1 1 61 1 5 69 1 5 69 0 5 71 1 4 73 2 3 70 2 3 70 4 3 63 9 5 56 19 8 50 31 16 35 30 17 37 11 24 43 13 24 44 17 27 39 18 26 39 80 45 23 85 48 22 88 47 29 86 46 36 87 49 36 90 52 41 90 52 41 86 52 25 84 52 29 88 63 41 86 64 41 90 75 54 92 77 56 62 66 67 54 61 69 66 67 71 71 71 71 68 68 68 63 63 63 63 65 64 66 66 66 66 66 66 68 68 68 68 68 68 62 62 62 61 61 61 60 60 60 60 58 61 50 51 53 42 43 45 53 54 49 76 70 56 77 69 56 89 71 49 88 70 48 86 54 33 87 55 34 90 53 45 92 53 48 90 48 50 90 44 54 88 45 36 85 48 21 74 43 23 38 27 33 42 27 34 54 28 31 54 28 31 82 53 37 86 58 37 92 64 40 93 67 40 95 71 45 96 72 44 95 74 47 96 76 51 95 76 46 94 73 42 94 73 42 
5 0 69 6 0 70 4 0 61 5 1 62 5 1 60 2 1 59 0 0 62 2 2 62 1 1 63 2 2 66 2 2 64 2 2 62 2 2 64 2 2 66 2 2 66 2 1 69 2 1 67 2 1 67 5 0 67 2 1 67 1 0 68 1 0 68 3 0 67 2 1 67 2 0 66 2 1 67 5 2 69 3 0 67 8 2 64 12 4 64 26 9 43 30 12 38 19 14 37 9 14 36 9 17 38 5 21 46 6 24 48 7 27 52 8 28 52 7 27 51 10 28 52 65 42 28 72 44 22 83 47 23 89 49 24 88 49 32 89 49 41 90 44 46 87 37 66 88 39 60 84 44 32 84 44 32 88 58 34 90 60 34 75 61 50 70 61 52 68 67 63 67 67 67 66 66 66 62 62 62 62 62 62 65 67 66 64 64 64 66 66 66 66 66 66 62 62 62 61 61 61 55 53 54 53 53 53 50 49 47 44 43 41 62 52 43 88 66 43 87 65 42 84 48 26 85 49 25 84 42 54 86 43 53 88 42 45 87 41 43 87 50 32 89 53 29 84 47 21 81 44 15 63 37 22 9 21 37 8 21 38 6 22 38 7 18 36 20 22 35 23 23 35 50 29 34 56 30 31 78 60 50 91 75 60 89 76 57 93 77 54 92 77 54 95 82 63 96 81 62 
6 0 70 6 0 70 3 2 62 5 1 62 4 0 61 3 2 62 2 0 63 2 0 63 2 0 63 4 2 65 3 1 66 3 1 64 3 1 66 3 0 67 4 1 68 3 2 70 5 0 69 0 1 68 3 0 67 4 1 70 4 1 68 4 2 67 2 0 66 3 2 70 3 2 70 4 1 68 3 0 67 3 0 69 11 3 63 11 2 59 29 13 42 33 14 34 23 14 33 9 15 31 8 19 39 1 23 46 2 24 48 3 28 50 6 28 51 7 29 53 7 29 53 64 42 28 69 42 21 80 49 21 86 51 23 87 48 31 87 47 39 89 44 47 89 35 71 87 37 66 84 42 30 85 43 31 87 57 33 88 58 30 76 60 45 71 61 51 68 65 60 64 68 67 65 65 67 62 61 59 62 62 62 62 62 62 65 65 65 66 64 65 66 66 66 60 62 61 62 60 61 55 55 55 53 53 53 48 48 50 45 44 42 61 51 41 90 66 40 87 63 39 85 44 22 85 45 20 85 41 54 84 40 55 85 39 42 85 39 41 86 49 31 88 55 24 84 47 18 79 42 15 63 37 20 4 19 38 3 18 37 2 17 36 1 18 38 13 16 35 14 17 34 44 24 33 51 26 32 76 57 51 90 76 63 90 77 60 93 77 54 94 79 58 93 82 64 95 82 65 
8 0 73 7 1 71 6 1 68 7 2 69 8 1 71 7 1 71 7 1 71 5 0 69 6 0 70 6 0 72 6 0 70 6 0 72 4 1 72 4 0 74 4 1 72 2 2 74 3 1 74 6 0 74 4 1 72 3 2 72 3 0 71 3 0 73 4 1 70 4 1 70 8 2 64 8 2 62 26 12 45 26 12 45 14 14 42 8 13 43 9 15 37 8 15 34 7 14 33 2 13 31 1 18 38 0 21 42 1 22 43 3 25 48 3 25 48 10 30 54 10 30 55 32 36 47 32 36 47 57 44 35 75 47 26 82 50 27 91 54 35 91 47 46 92 28 80 94 27 78 90 30 64 92 32 66 89 51 32 90 55 27 78 46 25 76 43 26 70 46 36 65 44 41 64 46 44 61 53 51 62 54 52 61 57 56 61 57 56 59 59 57 61 60 58 60 56 55 61 56 53 54 44 42 55 41 38 57 38 32 61 32 24 72 40 25 89 55 28 85 54 26 86 39 45 88 42 45 94 27 80 94 27 81 91 41 53 90 43 49 87 50 31 86 53 20 60 41 24 34 30 29 25 29 30 0 18 38 2 19 39 1 19 39 1 19 39 5 18 37 5 16 36 10 21 39 14 22 41 27 31 43 34 33 41 42 37 43 63 42 41 70 51 47 90 76 63 89 77 63 
8 0 73 8 2 74 7 1 73 9 1 74 7 1 73 6 0 72 8 0 73 7 0 72 7 1 75 7 1 75 7 1 73 6 0 72 5 2 71 5 1 75 5 1 75 5 1 77 4 0 76 2 2 74 2 0 75 4 0 76 4 0 74 5 0 69 3 2 72 6 1 68 9 4 62 11 3 63 33 15 37 32 17 36 13 18 37 8 19 37 4 17 34 0 15 34 1 14 31 1 14 31 0 15 34 2 20 42 3 21 43 2 24 47 2 24 47 11 31 55 11 31 55 17 33 56 19 34 55 49 42 36 72 47 25 81 50 29 90 55 33 92 47 44 95 24 82 96 25 81 93 27 75 91 28 75 89 51 32 89 56 25 81 43 20 78 37 19 67 37 26 64 36 32 60 42 38 60 50 48 60 52 49 59 55 52 61 55 55 61 57 56 61 57 56 58 54 51 59 54 50 56 42 39 53 38 35 59 34 27 64 31 16 75 38 20 87 52 24 90 49 27 89 38 53 87 39 51 94 22 88 97 22 91 94 44 56 91 46 51 86 49 30 85 52 17 52 38 25 18 25 31 16 22 36 2 19 39 1 19 39 0 18 40 1 19 39 1 18 36 0 17 35 3 21 45 0 24 44 9 22 39 14 19 38 27 25 38 53 31 34 65 43 46 88 74 61 90 76 63 
3 0 81 4 0 77 4 1 80 4 0 79 7 0 80 5 1 78 7 0 78 6 1 81 7 0 78 7 0 78 7 0 78 7 0 78 5 0 80 4 1 80 5 0 80 5 0 80 5 0 80 3 0 79 5 0 80 7 1 75 8 2 74 13 4 69 20 8 56 16 9 53 10 14 52 9 14 54 18 20 43 17 19 42 8 20 42 6 21 42 2 19 39 1 18 36 2 15 34 1 14 31 2 14 36 0 18 38 1 16 39 2 18 41 1 19 39 8 25 45 6 24 46 14 30 53 14 31 51 34 38 47 47 43 44 52 44 41 58 45 37 63 41 44 75 30 59 75 32 60 82 29 57 82 29 57 84 46 27 83 47 21 72 29 12 69 26 10 64 24 12 63 24 17 64 30 20 65 36 28 66 39 28 69 45 33 69 45 33 70 48 35 69 47 34 66 42 32 67 40 31 60 31 23 59 26 19 64 24 16 64 22 10 71 29 13 79 42 16 81 39 23 84 37 45 84 37 45 82 28 62 82 28 62 69 38 44 66 40 41 52 37 34 43 36 28 26 30 33 10 24 37 9 22 39 0 20 39 0 21 42 0 21 40 2 20 42 1 18 38 1 16 35 1 18 38 2 19 39 4 19 40 7 19 41 16 23 41 27 25 38 33 30 39 51 46 50 50 48 51 
0 1 84 2 0 84 3 0 87 3 0 87 4 0 84 4 2 86 5 1 85 6 1 85 5 0 84 6 2 86 5 0 85 5 0 85 6 0 86 5 1 85 4 3 83 5 1 85 6 1 85 5 0 85 6 0 86 10 2 79 14 4 75 19 9 62 32 17 40 28 18 43 7 23 46 8 23 44 0 24 48 1 25 51 2 24 45 2 24 48 0 21 42 1 19 41 0 15 34 1 12 30 1 14 31 0 15 36 2 15 34 1 14 33 1 14 31 4 19 40 4 19 40 11 28 48 11 29 51 19 33 59 22 36 62 24 35 53 25 33 46 34 34 44 53 40 34 54 36 32 70 29 37 70 30 38 76 37 20 80 37 20 66 18 6 61 11 2 62 12 3 62 14 4 65 17 5 70 22 8 72 26 10 78 36 14 78 36 14 79 37 15 77 36 14 75 30 11 75 30 11 66 18 4 64 14 3 63 13 2 62 12 3 66 18 6 71 28 11 73 30 14 80 35 38 81 35 38 64 32 33 65 33 34 43 32 28 41 32 27 18 25 35 4 19 38 3 20 38 0 20 41 1 22 43 0 20 39 2 20 40 0 21 42 1 23 46 0 17 35 1 16 35 1 17 33 1 16 37 2 20 42 1 22 43 0 22 43 0 18 40 3 18 37 13 20 38 13 20 38 
3 0 81 4 1 82 5 0 82 8 1 81 4 0 79 6 1 81 7 3 80 6 2 79 6 1 81 5 1 78 8 1 81 8 1 81 9 0 83 8 1 81 6 1 81 8 1 78 12 1 80 13 4 69 15 6 69 13 10 63 11 11 63 16 13 56 22 20 42 19 21 42 6 22 45 7 22 45 0 24 46 2 24 48 1 23 47 1 23 46 1 19 41 1 19 39 1 16 35 1 14 30 1 14 33 0 17 37 1 16 37 1 18 36 1 16 35 5 20 43 5 20 41 7 25 45 8 26 48 14 29 52 15 31 56 17 30 49 16 28 44 21 31 41 37 32 38 41 32 35 64 29 33 65 31 32 73 31 15 74 31 14 66 18 6 62 12 3 63 13 2 64 14 3 66 18 6 70 24 8 74 28 12 78 36 14 77 36 16 79 38 16 78 37 15 77 32 13 75 32 13 68 20 8 64 14 3 64 14 5 62 12 3 67 17 6 71 25 10 71 24 14 71 29 30 71 29 30 48 29 33 48 29 35 28 29 34 25 28 33 11 23 37 4 21 39 3 21 41 0 20 44 0 21 42 1 21 45 1 22 43 3 24 45 0 22 45 1 19 39 2 17 38 0 17 37 0 17 35 1 18 38 2 18 41 2 18 41 1 19 41 2 19 37 8 19 37 10 18 39 
6 0 74 6 0 72 9 1 74 11 1 74 8 0 75 11 1 74 11 1 74 11 1 74 12 0 72 11 1 72 12 0 72 13 1 75 12 0 76 13 1 77 12 2 75 15 2 71 18 3 72 28 12 48 30 16 39 18 20 43 8 23 44 7 23 46 2 24 47 2 24 47 4 22 44 1 21 45 0 21 42 2 20 42 2 20 40 1 19 39 0 18 40 0 18 40 0 16 36 2 15 32 0 15 34 2 19 39 1 19 39 1 19 41 2 20 42 0 21 42 0 21 40 1 22 43 1 23 46 1 21 45 1 22 43 0 21 42 2 20 42 5 22 40 11 23 39 15 24 39 58 31 24 57 30 23 69 21 7 68 21 5 64 14 3 64 14 5 64 14 5 62 14 4 67 19 7 73 30 13 74 31 12 77 36 14 77 36 16 79 38 16 79 38 16 76 35 17 77 34 15 67 21 6 66 16 5 64 16 6 62 12 3 63 15 3 67 19 7 65 18 8 54 21 14 54 21 14 17 23 35 15 25 37 4 23 40 0 21 42 0 21 42 0 18 40 1 22 43 1 23 46 1 23 46 1 21 45 0 22 45 0 25 47 0 25 47 0 25 47 1 23 46 0 19 40 0 18 38 0 16 32 0 14 33 2 15 34 0 17 37 1 18 38 1 18 36 2 19 39 
9 1 74 9 1 74 9 1 74 11 1 74 11 1 72 10 0 71 10 0 69 10 1 68 11 1 70 12 0 72 13 1 73 12 0 72 13 1 73 13 2 71 13 2 71 16 4 66 18 4 65 22 12 46 27 13 38 14 21 40 8 23 44 7 23 46 1 23 47 0 25 47 0 21 42 1 22 43 1 22 43 1 22 43 2 20 44 2 20 42 1 18 38 2 17 38 0 17 35 0 15 34 1 18 36 2 20 40 1 19 39 2 23 44 3 21 43 1 22 43 1 22 43 1 22 43 2 23 44 2 22 46 0 22 43 1 22 43 3 21 43 3 21 41 11 24 41 16 26 38 57 32 25 56 31 24 70 24 9 68 25 9 67 17 6 65 15 6 65 15 6 65 15 8 67 19 9 72 29 12 75 29 13 76 35 15 74 36 15 78 37 15 76 38 15 76 33 14 75 34 14 68 22 9 65 17 5 65 15 4 63 13 4 65 17 5 69 21 9 68 22 7 56 26 16 56 26 16 16 26 38 16 24 37 2 23 44 0 22 43 1 22 43 0 21 42 0 20 44 2 22 47 1 23 44 0 22 43 1 23 44 1 23 46 2 24 47 0 21 44 1 23 47 2 20 42 1 19 39 0 14 33 0 15 34 1 16 37 1 18 38 2 18 41 1 18 38 0 18 38 
17 0 70 17 0 70 19 0 64 16 1 66 16 1 66 16 1 68 16 1 66 17 2 69 16 0 67 16 1 66 17 0 68 20 3 58 22 4 54 29 14 35 30 15 36 11 16 36 7 18 36 3 18 37 1 18 38 1 19 41 0 20 44 2 23 42 0 20 44 0 21 42 0 20 44 0 21 42 3 23 47 1 23 46 6 22 45 4 22 44 1 18 38 0 17 35 0 17 37 0 15 38 2 20 42 6 26 50 3 25 48 6 28 51 6 28 51 1 26 48 4 24 48 3 25 48 3 25 49 3 25 48 1 27 50 3 25 49 1 25 49 2 26 50 2 27 49 10 28 48 60 51 36 58 49 34 81 51 23 85 52 21 75 32 15 70 27 11 66 20 7 65 15 4 66 18 6 69 21 9 68 22 7 70 24 9 71 25 9 71 25 9 71 25 10 68 25 9 69 23 8 67 19 9 65 17 5 66 18 6 66 20 5 70 27 11 76 40 18 79 43 21 79 55 27 79 55 29 8 26 46 9 27 47 2 24 48 2 24 48 0 25 46 1 23 46 0 20 44 0 18 40 2 20 40 0 24 46 1 23 46 0 20 44 3 21 43 0 21 42 1 19 41 0 22 45 0 25 45 1 22 43 0 21 42 1 22 43 1 22 43 1 19 41 2 20 42 1 19 39 
18 1 69 17 0 70 14 2 66 15 0 65 17 1 66 18 2 67 17 0 68 16 1 70 15 0 67 17 0 68 17 1 64 18 4 57 18 4 55 29 14 35 29 14 37 10 15 34 9 18 35 3 18 37 0 18 38 2 20 40 1 21 45 2 23 44 1 21 45 1 22 43 0 21 42 0 22 45 1 23 47 1 23 46 5 23 45 5 23 47 0 17 37 0 17 33 1 16 35 0 17 37 1 22 43 4 24 48 4 24 48 6 26 50 3 28 48 3 25 48 3 25 48 3 25 48 4 24 48 3 25 49 1 25 49 2 24 48 1 25 49 2 27 49 6 26 50 11 29 49 61 49 35 58 49 32 80 50 26 85 51 23 73 32 14 69 26 10 67 19 7 65 17 5 67 19 7 67 21 8 69 21 7 71 25 10 70 24 8 71 25 9 71 25 10 71 23 9 70 24 9 66 18 4 64 16 6 66 18 6 66 20 7 72 29 12 77 41 19 77 42 20 81 57 29 80 54 27 9 26 46 9 26 46 2 24 48 2 24 48 1 23 47 0 24 46 0 20 44 2 20 42 0 19 40 2 24 48 1 23 47 0 22 43 0 21 42 1 19 41 2 20 42 0 22 45 0 24 46 1 23 44 0 20 41 0 21 42 0 21 42 0 20 41 2 19 39 0 18 38 
27 2 86 26 1 85 26 1 84 26 1 85 25 0 81 26 1 82 27 1 72 29 2 69 31 8 54 31 12 31 26 14 36 6 21 40 5 22 42 1 23 47 0 26 49 1 23 44 2 24 47 0 22 45 1 23 46 2 22 46 1 22 43 1 19 41 1 16 35 1 16 37 0 18 40 2 20 40 3 25 48 3 25 48 6 26 50 6 28 52 3 25 48 1 23 46 0 20 44 1 19 41 1 19 39 1 18 38 1 18 36 2 20 42 0 22 43 2 20 42 3 21 45 5 27 50 6 28 51 9 31 54 11 31 56 10 31 52 10 28 52 9 30 51 19 37 61 16 34 58 6 26 50 6 28 51 39 39 37 41 40 36 71 56 33 83 64 34 88 61 31 91 61 27 90 60 24 87 56 25 87 56 25 84 53 22 87 54 23 87 53 25 86 53 22 86 56 22 88 55 22 88 57 26 88 58 24 87 61 28 89 64 33 77 60 34 58 52 36 52 50 38 7 25 47 8 25 45 2 24 47 1 26 48 2 24 48 2 24 47 2 24 45 2 24 47 1 23 46 0 25 47 1 23 44 0 21 42 1 19 41 1 19 39 0 20 41 1 22 43 1 23 46 0 25 47 1 26 48 0 24 48 0 24 48 0 24 48 0 24 48 2 24 47 1 19 41 1 19 41 
26 1 85 25 0 84 25 0 84 25 0 86 25 2 84 25 0 81 28 2 75 27 2 68 30 9 52 31 12 32 27 15 37 6 21 42 6 21 42 2 24 48 1 23 47 1 23 46 1 23 46 1 23 46 0 22 43 1 22 43 0 20 44 2 20 42 0 15 36 1 16 37 2 21 38 1 19 43 3 25 48 3 28 50 5 27 51 5 27 51 1 25 49 0 24 46 1 21 45 2 21 38 0 20 39 0 17 35 0 17 37 0 20 41 0 21 42 0 22 43 0 21 42 4 26 49 6 28 51 9 31 54 11 31 56 10 30 54 8 29 50 11 29 53 17 35 57 16 36 60 6 28 51 4 26 49 39 39 39 42 41 36 73 59 33 83 64 32 88 62 29 93 60 25 90 60 26 89 56 25 86 55 24 87 53 25 86 52 24 86 53 22 87 54 23 88 55 24 88 55 24 88 57 26 91 58 25 87 61 28 88 63 32 76 61 32 59 53 39 53 49 38 7 24 42 8 25 45 1 26 46 0 24 48 0 27 48 1 23 47 0 24 48 1 23 44 2 24 48 2 24 47 1 23 47 1 19 41 0 21 42 1 19 39 1 19 41 1 22 43 2 24 47 0 25 47 1 25 49 0 25 47 0 25 47 3 25 48 1 23 47 1 23 46 1 19 39 2 18 41 
29 1 86 29 1 85 30 4 78 30 4 78 29 10 56 28 10 50 19 12 45 12 13 43 9 13 38 8 13 33 8 15 34 3 21 43 3 21 45 1 23 46 1 25 49 0 24 46 0 25 47 1 23 46 2 22 46 2 20 42 2 20 40 0 16 39 1 16 37 1 16 39 1 19 41 1 19 41 2 24 47 0 24 48 1 26 48 3 25 48 1 25 49 1 23 47 3 25 48 4 24 48 3 25 48 4 25 46 6 24 48 1 22 43 1 22 43 2 20 42 0 20 39 2 23 42 4 22 44 8 26 50 11 29 51 15 33 57 21 39 63 23 39 64 29 43 69 26 40 66 18 36 58 20 35 58 16 29 45 13 26 42 20 29 38 22 29 37 32 33 35 39 38 36 45 38 32 54 40 27 59 43 30 66 49 33 66 49 33 72 53 36 71 54 36 72 56 41 72 56 41 61 52 45 59 51 48 50 48 51 41 45 54 32 40 51 13 31 45 13 30 46 3 25 48 2 24 47 0 26 49 1 26 48 0 24 48 0 24 48 0 24 46 0 21 42 0 22 43 1 23 46 0 22 45 0 22 43 2 20 42 1 19 39 0 18 38 1 21 45 3 21 45 1 21 45 1 22 43 1 23 46 0 25 47 0 24 50 3 25 49 1 23 47 3 23 47 1 23 46 
29 1 85 29 1 85 31 3 78 31 3 77 31 11 48 32 14 38 18 15 34 8 16 35 4 15 33 3 16 35 1 18 36 1 22 43 1 21 45 1 23 47 0 25 47 0 25 47 2 24 48 0 22 45 0 21 42 2 20 42 2 19 39 1 18 38 2 15 34 2 17 38 2 20 42 2 20 42 2 24 47 0 24 48 3 25 48 0 25 47 1 26 48 1 26 48 2 27 49 5 27 51 5 26 53 4 26 49 6 26 50 4 22 44 2 23 44 1 19 39 1 19 39 2 20 42 2 20 42 8 26 48 11 28 54 18 34 59 25 41 67 28 42 68 31 45 71 32 44 68 25 37 61 22 37 60 5 23 45 4 22 44 2 19 39 1 16 35 15 25 37 22 29 37 31 31 33 44 35 30 47 38 29 59 47 35 59 47 35 68 54 41 71 55 42 67 54 46 68 55 49 54 50 51 49 48 53 36 44 57 24 39 60 16 32 55 2 24 47 0 24 48 0 24 48 2 24 47 1 23 47 1 23 46 2 24 47 0 25 47 1 22 43 1 19 41 2 20 42 0 22 45 0 22 45 1 22 43 1 22 43 2 18 41 1 19 41 0 21 42 0 22 45 1 22 43 0 21 42 1 23 46 0 24 48 0 24 48 0 24 48 1 23 47 0 24 48 0 25 47 
32 10 59 32 10 59 17 15 55 16 15 55 12 16 45 12 17 39 6 19 38 2 17 36 1 17 33 0 14 33 0 18 38 3 25 48 2 24 47 7 29 53 7 29 52 5 27 50 5 27 51 2 22 46 4 22 44 2 20 40 4 20 43 1 19 39 1 18 36 0 17 35 2 20 42 0 21 42 4 24 48 4 25 46 5 27 51 6 28 52 9 29 53 10 30 54 15 33 57 18 36 60 17 35 59 19 35 60 16 36 60 14 32 54 13 31 55 6 24 46 5 26 47 3 23 47 2 22 46 5 23 47 4 24 48 7 27 51 9 29 54 9 29 53 13 33 57 14 32 56 9 29 53 9 29 54 3 21 41 3 19 42 2 20 42 0 18 38 7 22 41 8 24 40 12 24 38 17 24 34 19 28 37 32 35 42 32 35 40 55 54 62 56 55 61 51 55 64 51 55 66 27 39 53 21 35 48 15 32 50 11 32 53 8 29 50 0 25 47 0 24 46 0 21 42 0 21 42 0 24 50 2 24 47 1 26 46 0 25 47 2 24 47 0 22 46 3 23 47 3 23 47 4 26 49 2 22 46 2 24 45 2 23 44 2 24 45 1 22 43 0 22 45 2 20 42 2 20 40 2 20 44 0 20 44 1 22 43 2 23 42 1 23 44 1 23 47 2 24 48 
32 16 43 34 15 43 7 22 43 7 24 44 4 21 41 1 19 41 1 19 39 2 19 39 0 17 35 0 15 34 0 18 38 3 25 48 4 26 49 11 31 56 12 32 57 8 30 54 7 27 52 3 24 45 4 22 46 4 22 44 4 20 43 2 19 39 1 18 38 1 18 38 2 20 42 2 20 42 4 24 48 4 25 46 9 29 53 8 28 52 14 32 56 17 33 56 20 36 59 24 40 63 26 41 64 30 40 65 28 40 66 22 36 62 22 36 62 9 29 53 8 28 52 2 26 50 3 25 48 1 23 46 3 23 47 0 22 45 1 23 46 1 23 47 3 25 48 3 25 48 0 25 47 0 25 47 0 21 42 2 20 42 1 19 39 0 20 39 3 21 43 0 22 43 1 22 43 1 18 38 4 19 38 16 27 45 15 26 44 47 54 70 46 55 72 42 54 76 42 55 74 13 34 55 6 27 48 4 26 49 3 25 48 3 25 48 0 24 48 2 24 47 1 19 41 3 20 40 2 24 47 1 23 46 1 25 49 0 24 48 0 25 47 0 25 47 3 25 48 5 25 49 5 25 49 4 26 49 4 24 48 5 25 49 3 25 48 2 23 44 0 22 43 2 20 42 1 19 41 1 19 41 3 19 42 3 21 43 3 21 43 1 23 46 0 24 46 1 26 48 
