P3
100 50
255
42 26 73 43 23 72 46 27 73 46 27 73 44 26 74 43 25 73 40 24 71 41 25 74 50 26 74 56 29 72 56 29 70 55 29 66 61 36 58 71 50 21 73 49 21 72 49 18 71 50 21 65 47 23 66 48 26 49 43 47 40 38 60 34 41 59 27 46 60 28 46 60 29 49 60 28 48 57 30 40 49 29 39 48 27 40 46 29 42 48 32 42 51 31 42 48 37 43 43 39 41 38 51 36 39 62 31 39 56 33 41 41 38 45 40 39 45 30 45 48 30 45 48 18 43 40 18 45 40 23 39 29 24 36 24 21 51 39 21 59 46 28 56 42 39 52 42 32 52 41 27 53 42 26 54 42 59 49 24 59 49 24 71 50 21 73 50 19 71 50 19 73 50 19 65 59 35 56 67 50 59 70 56 63 72 67 66 72 68 72 72 72 72 74 73 61 60 65 62 62 64 64 62 49 66 61 42 39 31 46 25 14 46 16 12 45 8 8 42 10 11 42 16 18 43 22 23 43 68 62 40 67 62 40 66 51 44 66 51 44 51 50 48 49 51 50 41 60 66 32 64 75 29 63 72 21 62 68 17 58 64 8 39 44 8 39 44 0 54 64 0 54 66 23 49 66 26 47 66 59 34 53 73 30 47 71 45 48 72 59 43 59 55 43 37 49 39 36 47 39 
43 25 75 43 25 73 39 25 74 40 26 75 38 25 71 39 25 76 40 27 73 40 26 75 44 27 72 44 27 72 50 31 63 61 42 48 64 43 42 73 53 26 72 55 25 71 56 25 74 55 25 70 55 24 71 56 25 48 49 43 32 45 53 32 39 47 31 35 44 29 38 47 23 45 56 25 45 54 23 41 51 24 41 51 22 45 51 23 46 52 28 45 53 31 46 51 36 41 47 42 37 41 52 35 43 62 30 43 55 32 42 33 34 39 31 34 39 29 44 47 28 46 48 18 50 47 15 49 48 18 44 41 21 43 40 22 49 42 29 52 42 35 48 38 42 43 29 39 45 33 32 56 43 30 54 41 68 54 25 69 54 25 71 54 24 71 54 24 71 54 24 72 55 25 64 57 28 58 61 32 51 64 34 35 70 37 35 70 38 40 69 41 41 71 43 65 67 46 67 66 45 57 47 48 54 41 50 45 37 52 41 37 52 30 27 48 16 17 38 27 23 38 55 45 43 56 47 42 38 43 37 41 43 38 52 61 34 55 66 36 47 53 39 44 49 42 35 55 54 33 58 63 30 61 64 30 65 69 28 63 69 18 59 65 15 58 65 37 40 59 37 39 60 57 44 53 59 44 51 56 33 59 54 29 59 61 41 50 66 54 40 60 45 42 47 29 45 44 30 45 
44 26 74 42 26 73 38 24 73 37 25 73 37 25 73 35 26 73 42 26 73 42 26 73 42 26 73 41 25 74 48 32 61 63 43 42 65 47 37 72 55 25 71 56 25 72 55 25 72 57 26 72 57 24 73 57 24 47 50 39 31 46 51 31 40 45 33 32 38 29 38 45 22 44 55 21 44 52 24 42 52 23 43 52 21 48 55 19 48 54 27 46 53 28 45 52 37 40 45 42 37 44 51 36 43 63 31 42 55 34 43 32 33 38 31 34 39 27 44 51 26 44 48 17 51 50 14 53 50 17 47 45 17 46 44 28 47 43 32 49 41 36 46 37 45 38 28 41 42 34 32 56 42 32 56 42 71 58 26 72 57 26 71 56 25 71 56 23 72 57 26 73 56 26 64 58 26 58 57 26 46 62 25 22 69 25 25 70 27 31 68 34 30 70 35 68 68 40 67 67 39 56 43 50 49 35 52 48 40 55 47 45 58 34 33 49 21 20 38 33 30 39 68 54 41 62 52 40 28 38 39 29 37 39 48 64 28 51 69 31 44 55 38 43 49 39 34 53 51 30 54 58 32 59 66 34 65 70 30 65 71 20 64 73 21 66 72 50 36 59 48 34 59 65 43 46 69 44 47 53 33 60 48 31 65 57 41 52 63 53 41 61 43 43 49 23 48 47 25 48 
53 27 74 53 30 76 45 26 72 46 27 73 39 25 74 38 25 71 39 25 74 41 25 74 39 26 72 42 26 73 49 28 61 64 28 40 65 33 36 72 45 24 71 42 24 71 51 27 70 49 28 60 48 34 63 50 34 41 45 44 28 43 48 26 39 45 27 36 43 25 38 44 21 46 53 22 45 51 30 37 45 29 38 45 20 51 56 18 51 56 25 48 54 26 47 52 35 39 48 40 35 42 51 35 46 63 33 45 55 34 43 33 32 40 31 34 41 26 45 51 27 46 52 19 50 53 18 52 54 25 41 41 27 39 39 30 45 38 34 50 40 35 48 38 40 46 36 39 47 36 37 50 41 35 51 40 59 49 37 59 49 39 69 48 29 71 49 26 72 47 27 74 47 26 65 42 24 58 41 23 46 52 24 24 69 28 27 69 29 43 71 31 43 69 30 63 55 44 60 56 44 48 36 46 44 30 45 52 41 55 54 51 60 52 46 50 51 41 40 44 35 40 37 26 42 34 28 42 21 40 36 21 40 34 44 61 27 47 64 28 45 54 33 41 47 35 39 52 42 36 54 42 33 50 44 29 46 53 35 45 55 48 44 61 47 43 60 62 47 52 62 47 50 58 48 47 58 48 49 54 32 44 54 27 44 59 39 41 65 49 36 64 43 42 63 30 47 59 28 46 
58 29 73 57 28 72 50 27 73 51 28 74 40 26 75 41 25 72 38 25 71 38 24 73 41 25 74 42 26 71 49 25 61 63 18 39 64 22 34 73 36 27 74 38 26 71 46 26 72 46 29 56 42 41 55 45 43 39 42 47 27 40 48 26 39 45 22 37 42 23 41 45 21 46 53 25 46 51 36 35 40 34 35 39 18 51 56 18 53 57 22 50 54 26 47 52 35 39 48 39 33 43 51 33 45 60 32 44 55 33 45 33 32 40 34 34 42 27 46 53 27 46 52 22 53 55 19 52 57 29 39 41 33 34 36 33 44 38 35 51 41 37 50 41 38 50 40 39 49 40 38 48 40 39 49 41 49 45 42 50 44 44 69 46 30 71 45 28 71 42 26 73 40 25 67 34 25 60 31 23 48 46 25 27 70 27 27 68 26 50 71 30 50 70 33 56 47 42 58 48 46 44 31 41 41 26 45 53 43 54 60 54 64 62 54 51 67 53 40 54 43 41 18 9 40 17 13 38 18 41 33 19 42 32 40 60 25 46 62 26 41 53 33 41 49 34 38 51 33 39 54 35 34 46 36 27 34 40 39 33 45 65 31 55 65 29 55 69 54 47 71 54 47 51 50 48 50 50 48 53 30 36 55 26 31 59 35 33 65 45 36 67 42 38 70 34 46 69 33 47 
66 31 73 64 32 73 61 30 74 60 29 71 56 29 72 56 29 74 50 27 73 50 27 71 45 28 73 44 27 72 51 24 59 63 20 39 65 21 36 74 26 24 71 26 21 71 34 26 70 33 25 54 38 38 51 41 42 35 40 46 26 40 49 24 43 50 19 44 49 22 43 48 27 42 49 27 40 46 35 33 38 35 34 39 17 50 55 18 52 54 23 48 53 22 47 52 34 38 47 40 35 42 49 36 46 58 38 47 50 37 46 34 33 39 33 33 43 25 45 52 25 45 52 20 49 53 20 49 53 29 37 40 33 33 35 32 42 41 30 46 45 30 46 45 32 49 43 31 47 44 33 45 45 32 44 44 50 41 46 48 42 46 67 34 29 70 33 25 72 29 23 73 28 23 65 28 22 58 28 20 47 40 21 27 61 28 31 60 29 59 61 39 59 61 37 40 46 36 40 46 34 31 25 39 26 17 38 48 42 46 63 56 50 55 43 45 45 32 41 37 26 42 14 7 41 15 10 40 16 33 27 17 34 28 43 54 24 48 58 24 44 45 31 44 41 32 37 52 31 33 58 29 37 49 37 44 34 43 52 36 46 69 42 47 67 42 46 56 43 37 56 43 37 53 42 36 53 42 36 59 30 35 57 24 33 65 37 36 69 47 36 69 46 38 73 45 42 70 44 43 
71 33 72 70 32 71 69 30 74 68 31 72 70 31 75 69 31 72 61 30 72 61 28 73 53 28 70 46 27 72 55 25 59 64 19 39 67 19 35 73 17 20 74 15 19 68 22 25 68 22 25 53 33 42 50 34 44 32 38 50 23 41 51 20 47 56 16 51 55 22 47 51 32 37 41 32 37 43 38 33 37 34 32 37 19 50 53 19 50 53 20 48 52 21 46 51 33 37 46 38 32 42 45 38 45 55 43 47 50 39 45 34 31 38 35 34 40 23 47 51 25 45 52 22 47 51 19 47 50 32 37 41 36 34 37 31 40 45 27 42 47 26 45 49 22 48 47 25 46 49 27 40 48 27 40 49 49 39 48 47 40 48 67 22 27 69 20 24 72 17 20 73 17 20 64 20 19 58 24 22 47 35 21 27 53 26 33 53 28 68 54 43 68 54 41 22 47 26 22 45 25 14 16 31 12 8 35 46 38 36 66 55 37 44 33 41 24 11 39 19 10 41 11 6 36 11 8 35 13 25 21 14 26 22 45 47 25 51 51 25 48 37 31 47 33 32 34 52 28 27 63 27 39 52 34 61 33 47 66 41 47 71 55 42 71 55 40 43 32 26 42 31 27 54 34 25 55 35 26 62 27 34 64 26 39 67 37 39 71 48 42 72 49 41 71 54 38 69 53 40 
70 36 69 71 36 68 69 30 74 70 32 73 67 30 73 68 30 71 65 29 73 62 30 71 57 28 72 52 25 66 56 23 54 65 18 36 66 19 29 72 16 19 72 15 21 67 20 26 67 21 24 51 34 42 49 36 46 34 43 52 24 44 53 19 48 54 16 49 56 21 44 50 29 38 43 29 37 40 34 33 38 35 33 38 19 50 55 18 49 54 19 48 52 20 48 52 31 42 48 38 38 46 46 41 47 53 44 47 48 42 44 31 29 34 32 33 38 22 47 52 21 46 53 21 46 50 20 48 51 32 37 40 33 32 37 28 39 41 23 40 47 23 44 47 22 48 47 25 46 51 26 43 50 26 45 51 47 40 47 46 39 46 65 23 27 67 21 24 70 18 22 72 16 19 66 20 23 60 24 24 49 34 27 37 55 31 42 54 32 65 49 49 65 46 48 28 40 38 28 40 38 25 25 37 26 19 35 48 38 36 58 45 37 37 27 36 18 9 36 15 10 33 9 5 32 10 8 30 19 25 21 16 25 22 45 48 21 51 49 26 46 36 27 45 31 30 38 47 30 36 55 33 47 47 37 65 40 44 66 45 44 69 49 40 69 49 40 45 32 26 46 31 26 58 32 31 59 34 30 63 31 36 65 30 37 67 38 40 70 48 37 72 50 39 71 54 38 69 51 37 
70 47 57 70 46 60 71 30 74 69 31 72 69 30 74 69 30 74 69 31 72 70 31 75 63 26 60 58 24 51 62 20 40 66 16 27 67 18 22 71 16 19 73 16 23 68 22 25 67 21 24 46 40 44 45 43 48 32 49 56 26 55 59 23 50 57 22 44 55 23 43 52 22 35 44 23 36 44 30 34 37 32 33 37 17 48 51 18 49 52 15 50 54 14 49 53 25 53 56 30 54 58 41 51 52 51 47 46 43 41 42 24 25 27 21 29 31 15 48 55 14 49 53 19 47 50 20 45 49 27 37 39 32 33 37 25 36 42 20 37 45 21 41 48 20 47 54 20 49 55 21 56 60 22 57 61 43 44 49 42 43 48 64 23 27 67 20 26 69 18 23 72 17 23 69 17 29 65 18 36 67 34 41 65 59 43 63 54 45 49 27 66 51 26 66 39 22 66 37 22 65 54 46 43 59 54 34 44 31 40 37 17 42 23 11 35 5 4 22 5 4 22 3 2 18 7 5 18 29 24 20 29 24 20 46 41 21 46 44 21 43 30 24 39 25 25 56 24 37 62 28 44 66 40 43 68 61 35 69 52 36 62 31 36 62 32 34 56 33 27 54 34 27 67 26 42 68 25 44 70 40 42 69 44 40 67 47 38 66 50 34 67 50 34 69 48 31 69 47 34 
70 49 56 72 46 57 69 31 72 70 32 73 67 29 70 67 29 70 64 30 67 66 30 68 60 25 55 59 25 52 61 22 43 65 18 28 68 17 24 72 17 22 73 17 20 66 21 26 67 22 27 46 40 44 42 41 46 32 50 54 24 53 57 23 51 55 20 47 54 23 43 52 23 37 46 23 37 46 32 33 37 30 33 38 20 48 51 22 47 51 18 49 52 17 48 51 26 51 55 35 53 55 43 49 49 47 46 44 44 43 41 26 27 29 22 30 32 15 49 51 17 48 51 17 45 48 19 44 48 27 36 41 29 34 40 23 36 44 20 39 46 23 43 52 19 48 56 20 49 57 21 54 59 21 54 59 42 43 48 41 45 48 65 24 30 68 22 25 68 18 21 69 16 22 68 18 27 66 19 35 63 34 39 65 57 44 64 53 47 44 26 64 45 24 65 38 23 64 39 24 65 55 43 45 60 51 34 45 27 39 34 16 40 20 11 32 6 3 24 6 3 22 4 3 21 7 5 19 28 23 19 28 23 19 47 42 20 49 44 24 45 30 27 47 25 28 55 28 37 64 32 45 65 39 40 71 59 35 68 52 36 63 31 34 62 31 36 57 32 28 56 32 30 67 29 40 68 27 41 70 40 42 71 43 40 68 46 35 67 49 35 66 49 33 70 48 34 69 46 32 
70 63 35 71 58 41 69 33 69 70 34 70 59 25 52 58 24 51 44 20 44 39 16 44 55 25 59 65 30 72 69 28 62 72 23 44 70 22 38 73 17 26 72 19 25 61 20 28 63 22 30 39 36 43 34 37 42 27 45 49 24 49 54 19 50 53 16 54 57 22 53 56 29 49 56 28 47 53 30 32 45 31 34 43 42 40 41 41 40 38 35 39 42 31 41 43 47 48 40 57 54 39 50 46 37 46 42 41 42 41 39 30 32 31 29 33 32 37 45 47 37 46 45 20 40 41 15 39 39 27 34 44 32 34 46 29 44 51 26 50 54 23 51 54 15 53 56 17 52 54 20 49 53 19 48 52 41 42 47 43 42 48 65 24 32 67 22 29 56 14 18 52 10 12 61 21 21 68 29 30 66 34 37 64 41 51 59 36 52 12 13 57 14 13 57 39 30 51 38 29 50 60 32 47 68 31 48 36 17 37 14 8 34 11 6 29 6 2 25 6 3 22 6 3 22 8 5 22 27 22 18 27 22 18 52 46 24 57 51 27 66 35 43 68 29 48 68 44 44 70 52 40 70 50 41 73 46 37 67 43 31 57 32 28 55 31 27 70 25 48 70 26 49 64 46 32 65 49 33 64 39 34 65 35 33 69 41 37 69 44 39 70 42 38 71 40 37 69 40 36 
70 63 35 72 59 42 70 34 70 70 34 70 60 25 55 58 24 51 43 19 45 40 16 42 56 26 60 67 30 73 68 28 62 71 22 43 71 23 37 71 18 26 71 18 26 64 21 28 61 20 26 39 37 42 37 38 43 30 45 48 23 48 52 18 51 56 16 53 59 21 52 55 30 51 56 28 47 53 31 33 45 34 34 46 41 39 40 43 39 38 34 40 40 31 41 43 47 48 40 57 51 37 51 46 42 47 43 42 42 40 41 30 32 31 31 32 34 36 46 47 36 46 47 18 39 42 18 37 41 25 35 44 30 34 46 27 44 51 24 49 54 22 51 55 16 51 55 17 52 54 19 50 53 19 49 51 41 40 46 42 41 47 64 24 32 69 24 31 55 13 15 53 11 13 61 19 20 69 29 29 68 33 39 62 41 50 56 35 50 13 15 56 12 13 57 39 29 53 39 29 53 60 31 49 68 32 46 36 17 39 17 7 32 13 5 29 7 4 25 8 5 24 6 3 22 7 4 21 26 21 15 27 22 18 54 46 25 56 50 26 66 35 43 70 28 48 69 43 44 69 53 40 71 51 40 71 47 35 67 43 31 57 32 28 57 33 31 69 26 46 69 24 45 64 46 32 63 47 31 64 39 34 66 37 33 68 40 36 69 44 39 72 44 40 70 41 37 68 39 35 
71 45 44 69 45 45 57 41 42 57 38 42 44 26 64 40 24 69 40 23 68 39 23 68 39 35 70 42 43 73 46 38 61 58 35 45 63 29 43 72 20 32 72 20 32 61 21 29 61 21 29 40 35 41 36 37 42 28 41 47 25 44 48 20 48 51 15 49 50 21 46 50 28 43 48 28 46 50 23 56 63 26 55 61 29 27 28 28 26 27 24 24 24 24 22 23 32 31 27 39 36 31 37 33 30 33 31 32 30 28 29 26 25 23 26 24 27 34 32 33 33 33 33 25 27 26 24 26 25 21 50 54 20 55 59 25 44 50 27 40 46 24 43 47 18 46 49 18 46 49 19 47 51 17 47 49 40 41 46 41 40 46 65 25 34 66 23 32 52 13 16 49 8 12 57 21 21 66 30 32 62 31 46 51 31 68 54 30 66 57 25 62 57 26 60 46 16 42 49 16 45 30 13 45 27 12 43 44 14 42 54 15 42 43 13 37 33 10 36 25 9 35 13 3 28 15 7 28 28 23 19 28 23 17 54 40 29 59 42 32 67 41 42 71 40 46 70 51 37 71 57 31 66 47 30 60 31 33 62 32 34 68 27 45 68 27 45 68 53 34 68 51 33 69 47 34 69 45 33 67 30 38 66 25 41 66 34 37 63 43 32 64 45 31 69 42 31 70 42 31 
69 40 44 67 40 45 54 40 39 55 39 39 41 26 67 39 23 70 38 25 71 37 23 72 37 37 73 37 44 73 45 40 62 57 37 46 60 33 42 72 21 30 72 21 30 59 22 29 58 21 29 37 35 40 35 36 41 28 42 45 23 44 47 20 45 49 17 48 51 20 45 50 31 42 48 27 45 49 22 60 63 24 59 63 26 26 28 25 25 25 24 24 24 23 21 22 29 28 26 38 33 29 36 30 30 31 29 30 28 27 25 24 23 21 24 24 24 33 31 32 33 31 32 25 25 25 24 24 22 21 49 53 19 59 61 25 49 53 26 39 45 24 42 46 16 44 47 17 45 48 18 46 50 18 46 49 41 40 48 41 40 46 62 24 35 67 24 34 52 13 16 46 10 10 56 20 22 68 32 36 61 30 48 51 29 68 53 28 67 64 28 64 65 27 64 48 13 43 48 13 45 29 10 42 21 10 42 44 13 44 59 16 43 47 15 39 35 11 37 30 10 35 13 5 28 16 7 28 31 24 18 28 23 17 53 39 30 58 41 33 68 42 43 71 42 46 69 50 35 69 58 26 65 46 29 58 32 33 61 30 35 69 26 46 70 27 47 70 55 32 71 57 31 70 47 33 70 43 32 66 28 39 66 23 42 64 34 36 63 43 32 65 46 32 69 43 30 66 43 29 
55 28 59 59 30 58 66 58 35 65 57 36 49 29 66 44 27 71 37 37 71 36 41 73 31 54 72 26 63 71 36 55 62 56 36 45 57 31 40 62 16 26 61 16 23 64 24 35 64 23 37 42 35 42 40 37 44 29 42 48 18 46 50 20 51 54 16 54 57 21 50 54 28 43 48 27 46 50 22 57 59 22 55 60 22 40 42 23 38 41 27 31 32 31 29 30 29 28 26 25 24 22 26 25 23 26 25 23 25 24 20 27 26 24 26 24 25 26 24 25 27 26 24 23 19 20 21 20 18 18 46 49 18 53 57 23 48 52 23 44 47 21 46 51 17 50 55 14 49 51 16 45 49 16 45 49 32 35 42 34 35 40 61 25 37 66 24 36 67 21 32 66 20 31 62 26 36 61 31 41 51 37 50 34 46 68 39 44 66 61 25 51 62 26 52 50 22 45 50 22 45 37 20 39 32 19 37 38 14 38 39 13 40 36 13 42 33 10 38 27 11 38 17 8 29 18 9 26 30 25 19 31 24 18 60 33 38 66 34 45 66 40 39 68 43 38 70 43 36 67 43 33 65 37 36 64 26 41 66 30 42 71 46 41 70 45 40 66 36 36 65 35 35 58 33 28 56 33 27 57 26 31 57 25 36 61 35 34 64 44 33 67 43 33 69 40 32 68 39 31 
55 24 66 55 28 63 72 60 34 72 62 35 49 32 66 46 28 70 37 42 72 35 47 73 27 61 71 25 69 72 36 57 62 53 36 46 54 31 41 57 14 24 56 15 23 66 26 37 67 25 37 45 35 44 40 37 46 26 44 46 18 47 51 17 51 53 15 55 57 18 51 56 25 44 48 25 46 51 20 55 59 20 55 59 21 45 47 20 44 46 28 34 34 31 31 31 26 26 26 24 22 23 24 22 23 25 23 24 26 25 23 28 26 27 28 26 29 26 24 25 25 23 24 20 20 20 21 17 18 20 44 48 18 51 58 20 48 52 23 47 51 19 48 52 14 52 53 14 49 53 15 46 51 15 46 49 31 34 41 30 33 38 62 26 38 67 25 37 69 25 38 72 24 38 66 28 39 57 34 44 49 38 52 29 51 65 32 48 63 61 26 48 61 26 48 51 26 47 50 25 47 40 23 39 37 23 38 37 18 40 34 11 39 32 12 40 30 12 38 29 11 35 20 9 26 20 11 28 30 25 19 30 25 19 64 30 44 69 32 49 68 40 39 66 41 36 67 37 37 67 36 34 65 32 39 67 25 45 69 31 44 70 51 36 70 51 36 64 28 38 65 27 38 52 31 26 51 30 25 54 25 29 56 25 31 59 35 31 66 44 33 65 43 32 70 39 34 68 39 33 
57 29 70 57 29 67 69 51 37 71 51 40 55 37 59 54 35 63 35 50 69 29 55 70 24 62 71 23 66 72 36 56 63 54 38 49 56 33 43 60 16 29 59 15 28 65 27 42 65 27 40 45 35 44 40 34 44 26 43 50 20 49 55 19 50 55 17 50 55 20 49 53 24 45 50 23 47 51 19 54 58 20 56 56 20 48 51 22 47 51 29 35 35 32 31 29 26 24 25 21 21 23 24 22 23 27 25 26 26 24 25 27 25 28 28 26 27 24 22 23 24 22 23 26 22 21 24 22 23 19 43 47 16 50 52 21 47 48 24 42 46 21 45 49 16 50 52 17 50 55 18 49 52 17 48 51 33 33 41 29 32 39 61 27 41 66 25 39 72 25 41 71 24 40 64 31 42 57 33 46 44 41 50 24 54 62 25 54 62 37 49 61 36 48 60 39 41 54 39 38 52 49 24 43 53 20 41 33 22 39 20 23 38 19 32 48 14 35 52 14 30 46 20 12 33 21 13 34 45 24 33 45 24 33 67 41 42 70 44 45 71 35 45 71 36 43 70 34 44 69 31 42 67 34 41 66 35 40 65 36 38 59 39 32 61 38 32 55 31 29 54 30 28 52 31 26 50 31 24 53 27 28 56 25 31 64 36 32 68 49 32 67 43 33 65 33 34 64 32 33 
57 28 74 58 30 70 70 44 45 70 44 43 59 38 57 57 38 58 34 56 67 27 61 70 25 66 72 23 67 70 35 55 62 55 39 50 55 34 43 59 18 32 60 18 32 65 27 42 65 27 40 44 34 45 41 35 45 27 44 51 21 50 54 21 50 54 19 48 52 20 48 52 23 44 49 22 46 50 18 53 57 18 53 57 22 50 54 22 50 54 29 34 37 34 30 31 26 24 25 21 21 21 23 23 23 28 26 27 28 26 27 27 25 26 27 25 26 23 21 22 24 22 23 24 22 25 25 23 24 17 43 44 18 49 52 21 45 49 25 40 45 23 44 47 18 49 52 17 48 53 16 50 52 16 49 56 33 33 41 33 33 41 60 28 41 67 26 42 68 24 41 72 25 41 64 30 46 59 33 46 42 42 52 18 57 62 18 57 62 20 63 69 23 64 68 31 50 57 31 48 56 53 26 45 61 19 41 30 26 40 12 31 38 8 41 50 3 51 61 6 42 54 18 13 35 22 14 35 51 22 42 52 23 43 69 46 40 72 50 39 72 36 46 72 30 50 73 30 47 72 31 47 70 35 42 68 45 39 64 39 35 50 29 26 53 29 27 49 30 23 49 30 23 50 31 24 50 31 24 53 27 30 58 27 33 62 37 30 69 51 31 69 42 33 67 30 37 64 29 35 
60 29 71 59 31 69 70 38 49 70 38 49 62 42 51 61 46 51 39 53 64 29 59 70 25 64 69 23 66 72 35 55 62 54 40 53 57 37 49 65 21 38 62 21 37 66 28 43 66 28 43 40 35 42 36 35 41 26 43 50 20 49 53 19 48 52 20 48 52 24 43 49 28 39 43 26 41 46 17 51 53 18 52 54 20 51 53 20 51 54 27 35 37 31 31 31 31 29 30 26 24 25 28 27 25 29 28 26 30 28 29 30 29 27 29 28 26 26 26 26 25 27 24 27 28 30 25 29 30 18 42 44 17 48 51 24 39 42 27 37 39 24 39 44 18 46 49 17 46 50 15 49 51 16 50 52 34 34 42 33 33 41 61 27 41 67 26 42 69 26 43 73 26 42 64 30 46 56 34 47 40 43 52 17 57 59 19 59 61 28 63 69 29 64 70 30 55 62 30 54 64 39 38 54 43 32 49 20 36 49 8 42 51 8 48 58 4 54 65 9 45 59 27 18 45 29 19 44 59 28 44 60 28 43 68 48 39 70 50 39 70 37 46 73 32 50 72 31 47 73 32 48 70 34 44 65 36 40 61 35 36 50 29 26 50 29 26 48 31 24 48 29 23 49 30 23 48 31 23 52 26 27 56 25 31 62 37 30 73 52 33 67 43 31 60 28 31 59 28 33 
66 30 74 65 30 72 66 27 58 67 28 59 69 52 42 69 56 37 41 54 60 33 55 68 27 60 67 24 65 71 33 56 64 50 44 56 56 42 57 71 26 46 71 26 46 65 28 45 66 30 44 43 32 46 39 33 43 25 42 49 18 47 53 23 44 49 23 41 45 28 38 40 35 29 33 33 31 36 18 47 51 19 47 51 16 54 57 14 52 55 26 36 38 30 32 31 33 31 36 35 33 34 37 33 32 34 33 31 34 32 33 33 29 28 32 31 29 30 34 33 30 34 33 27 37 38 28 39 41 22 41 45 19 43 47 29 34 38 33 28 34 28 33 37 21 40 44 18 43 47 16 47 50 14 47 52 36 35 43 36 34 45 62 30 45 67 28 46 70 27 46 71 26 46 61 33 48 51 37 50 38 45 53 16 56 58 19 57 60 38 63 70 40 63 69 24 62 71 25 63 72 13 56 62 11 51 59 4 58 68 3 61 73 2 59 70 4 56 69 11 50 65 38 27 59 41 28 58 70 37 46 68 37 45 72 50 39 71 52 37 72 37 44 73 32 48 72 34 47 72 34 47 67 31 43 61 24 41 57 25 36 46 27 23 46 27 23 48 31 23 48 29 22 49 30 23 49 30 23 52 27 30 55 24 29 63 38 31 72 51 32 63 41 28 53 27 28 52 26 29 
66 31 73 65 30 70 66 26 61 67 27 62 70 52 42 71 56 37 50 49 55 41 47 61 30 57 64 20 64 67 30 57 64 43 50 60 47 45 58 62 34 49 62 35 50 58 34 48 58 34 50 34 37 44 35 35 45 23 44 49 17 48 51 20 45 49 23 41 45 28 37 42 36 30 34 32 31 36 19 47 50 20 45 49 17 52 56 14 52 55 28 40 40 32 33 35 35 35 35 38 36 37 37 36 34 37 36 34 37 36 34 36 34 35 35 34 32 35 37 36 31 35 34 29 37 39 31 36 39 23 38 43 20 39 43 30 31 35 33 28 32 28 33 37 20 41 44 18 42 46 13 46 51 15 46 49 30 37 47 28 37 44 55 33 46 60 31 49 61 33 48 61 35 48 51 37 52 43 43 53 32 46 55 22 51 57 24 51 58 37 54 64 36 55 62 28 62 71 27 61 70 19 57 66 16 57 63 9 58 65 5 58 66 9 51 65 10 47 63 20 43 61 43 26 58 47 27 55 71 40 46 69 40 45 72 43 39 72 42 40 73 35 46 70 32 45 73 37 47 70 39 44 66 35 43 63 24 42 61 25 39 53 24 29 53 24 29 52 26 25 51 27 27 48 29 23 48 29 23 52 26 27 54 25 30 63 35 31 71 48 30 63 41 30 54 25 29 57 26 31 
70 32 71 71 30 72 70 29 73 70 29 71 74 52 41 71 56 35 68 32 46 68 22 48 41 47 59 24 61 67 23 62 67 22 63 69 23 60 66 33 56 62 30 55 62 38 51 59 37 50 59 19 48 52 14 48 50 14 47 52 12 47 49 19 44 48 21 39 43 27 37 39 34 29 33 32 32 34 21 40 46 21 42 45 14 49 53 14 49 53 30 44 45 34 42 44 40 44 43 44 42 43 47 43 42 47 43 42 49 45 44 50 46 45 49 45 44 40 39 37 40 39 37 35 33 34 33 31 32 25 30 33 22 30 32 28 28 30 33 27 31 27 32 35 19 38 42 18 39 44 11 45 47 11 45 47 14 45 48 11 45 47 31 46 53 35 45 54 31 48 56 31 50 57 24 51 58 16 55 60 25 50 57 40 39 53 40 38 52 35 32 49 35 32 49 31 56 61 32 57 61 28 61 68 26 63 69 19 52 59 15 46 51 24 34 46 32 21 37 41 24 42 60 27 54 63 29 53 71 44 37 72 45 36 72 17 46 72 12 46 70 27 46 71 33 44 70 45 40 72 53 36 69 39 37 70 22 46 73 20 46 72 15 47 72 17 48 60 19 33 57 21 35 50 26 26 46 27 23 50 23 28 53 23 31 61 31 33 71 40 37 68 33 37 59 23 37 61 23 34 
70 32 73 73 30 73 70 29 71 70 29 71 71 53 39 72 57 36 68 30 43 68 24 47 41 47 59 24 61 67 23 62 67 20 64 67 23 62 67 30 55 62 32 57 64 37 50 59 37 50 58 19 48 52 15 49 51 14 47 52 12 46 48 16 44 47 22 40 42 26 37 41 34 29 33 32 32 34 22 41 45 22 41 47 14 48 50 12 50 53 30 45 48 35 45 46 42 44 43 45 43 44 47 43 42 49 45 42 49 45 44 50 46 45 49 45 44 42 38 37 44 40 37 34 33 31 36 32 33 28 29 33 24 29 33 29 27 32 33 27 31 27 32 35 20 39 45 17 41 43 9 44 46 10 43 48 12 45 50 15 46 49 32 46 55 35 45 54 33 47 56 29 49 56 22 53 58 15 54 59 26 48 59 41 38 55 40 36 53 34 31 48 36 32 49 31 56 61 33 58 63 27 62 66 27 64 70 20 53 58 14 47 52 24 34 44 32 21 35 40 23 42 61 27 54 61 29 52 72 45 38 71 44 37 71 17 43 71 14 47 71 28 47 71 33 46 73 46 39 71 52 35 71 40 38 72 19 47 72 19 47 72 17 48 72 15 47 59 21 36 58 22 36 49 28 23 47 28 22 50 23 28 53 23 31 61 31 33 73 39 38 66 34 37 60 22 37 62 24 37 
63 11 60 62 10 59 64 14 65 65 12 64 68 32 46 72 37 44 71 35 39 71 35 39 70 23 43 71 16 45 54 29 51 32 52 61 29 56 65 22 61 66 21 62 66 21 60 65 21 60 65 20 59 64 22 61 68 18 55 61 16 54 57 19 47 48 22 40 44 27 34 40 35 29 33 36 30 34 32 42 44 32 42 44 50 48 49 50 48 49 46 44 45 45 44 42 47 43 42 46 42 41 45 41 40 46 42 41 46 42 41 45 41 40 45 41 40 41 35 35 40 34 34 35 31 30 34 30 29 31 27 28 27 25 26 33 29 30 33 29 30 26 31 34 18 37 41 17 41 45 15 50 54 13 51 54 16 53 59 15 55 57 16 54 57 15 54 59 18 53 57 20 50 58 36 38 51 52 27 48 60 21 48 73 14 46 69 16 46 43 23 60 43 23 60 45 19 54 46 21 53 31 22 43 26 24 37 43 26 42 51 26 45 58 37 36 67 48 31 67 47 36 69 39 47 70 41 46 62 51 31 59 53 29 69 32 40 69 28 42 71 36 43 69 38 43 71 24 44 72 11 42 73 22 41 71 35 35 72 36 36 72 41 36 72 39 34 72 16 43 72 16 43 71 15 42 73 14 44 63 21 35 61 23 34 63 26 34 62 27 34 66 26 37 70 27 44 68 28 39 
61 11 60 62 9 61 65 13 62 64 14 65 69 33 47 72 36 46 70 33 40 70 34 38 70 23 43 69 16 46 56 31 53 32 52 59 28 55 62 21 61 63 21 60 65 21 60 65 20 61 65 21 61 63 20 59 64 18 55 61 16 54 57 19 47 51 21 39 43 27 34 40 37 27 35 36 31 37 32 40 43 33 43 45 49 49 49 53 49 50 50 46 47 46 45 43 47 43 42 43 42 40 46 42 41 46 42 41 46 42 43 47 43 42 45 41 42 40 34 34 40 34 34 36 32 31 35 31 32 29 27 28 29 25 26 30 29 27 31 30 28 27 32 35 18 37 43 17 41 45 15 50 54 15 50 54 15 55 57 16 53 59 15 52 58 15 52 58 18 51 56 18 51 56 37 39 54 55 27 49 62 22 49 73 14 46 68 14 46 44 22 60 40 23 59 46 20 55 45 19 54 31 22 41 27 23 38 43 26 42 52 27 46 59 39 40 66 49 31 66 46 35 70 39 47 68 41 46 61 53 30 60 54 30 71 31 40 71 29 39 72 37 43 70 39 44 70 23 43 71 12 40 70 21 40 72 36 36 71 37 36 74 39 35 71 40 35 72 16 43 72 16 41 70 14 43 73 14 42 63 20 37 61 23 34 61 25 35 62 26 36 65 25 36 68 25 45 69 27 39 
63 18 59 60 18 58 56 13 56 57 14 57 65 20 49 66 21 50 70 42 38 71 48 34 71 27 42 71 15 44 69 16 44 67 18 47 64 21 48 54 30 52 53 31 52 22 57 61 23 57 66 19 58 63 19 59 61 19 59 61 20 57 63 19 56 62 19 57 60 25 50 55 33 40 46 33 40 46 38 42 45 37 42 45 48 46 47 51 47 48 48 46 47 48 46 47 47 46 44 48 47 45 48 44 43 45 41 40 46 41 45 45 41 40 44 40 39 34 30 29 33 29 28 36 32 33 36 32 33 29 27 28 29 24 28 27 32 36 25 39 42 23 42 48 17 52 56 15 53 56 17 52 56 16 51 55 16 54 57 15 53 56 36 40 52 38 37 51 58 23 45 64 18 44 66 18 44 69 16 44 71 15 44 73 12 45 70 15 47 45 25 62 46 26 63 48 22 35 50 24 37 59 40 36 59 45 36 63 36 41 67 31 41 63 30 49 61 27 52 62 34 49 60 45 42 60 45 40 66 42 32 66 41 34 62 35 54 59 34 56 50 38 38 48 41 35 47 37 46 45 34 50 53 28 47 69 17 39 70 18 40 74 16 40 71 16 39 71 38 33 72 39 34 71 28 35 70 27 36 62 17 38 62 14 38 64 26 47 70 39 55 73 34 55 72 23 52 72 24 48 
60 18 58 61 19 57 55 14 56 56 14 54 64 19 50 64 19 48 70 42 38 71 49 35 72 28 41 71 15 44 70 13 45 71 12 42 68 15 45 58 26 50 59 27 50 24 57 62 26 57 62 20 58 61 19 59 61 19 58 63 19 60 62 20 59 64 18 59 63 23 52 56 32 41 48 33 42 49 38 43 46 39 43 44 49 47 48 47 46 44 47 45 46 50 46 47 48 46 47 50 46 47 47 46 44 45 41 42 46 42 41 43 41 42 43 39 38 29 29 27 32 28 29 33 31 32 35 33 34 29 27 28 25 27 26 25 33 36 23 38 43 22 46 50 16 53 59 14 54 56 16 54 57 15 52 58 17 52 56 16 54 57 39 38 52 42 35 51 63 19 46 73 14 46 73 14 46 71 15 44 73 14 44 72 13 43 69 15 47 45 25 60 45 25 60 49 23 34 50 24 33 60 41 34 63 47 34 66 37 39 67 31 41 66 28 51 61 24 58 62 28 53 59 45 42 62 47 42 67 40 33 67 40 33 59 38 57 59 35 57 48 39 40 44 39 33 42 40 43 40 36 50 52 29 47 69 16 42 69 15 41 72 12 38 72 14 39 71 41 31 71 41 33 71 32 35 71 30 36 62 17 38 61 11 38 68 26 48 71 40 58 72 34 57 73 23 52 72 24 50 
64 33 49 63 32 50 60 23 54 60 23 56 66 23 53 63 22 52 71 47 37 72 54 32 72 31 39 69 16 42 70 15 46 71 12 42 71 15 44 71 16 45 68 18 45 59 24 48 59 25 49 29 49 58 21 54 59 20 55 61 18 57 62 19 59 61 19 56 64 20 55 59 22 53 58 22 53 56 22 52 54 23 52 56 20 46 47 19 44 48 38 46 48 45 45 47 47 45 46 47 45 46 46 45 43 43 43 41 42 41 39 36 35 33 35 34 32 29 28 26 28 26 27 20 32 32 18 34 34 19 45 46 19 47 50 18 47 51 18 49 52 16 49 54 15 54 53 18 51 56 26 45 51 28 45 53 56 24 47 57 25 48 64 20 45 65 19 45 69 14 43 73 14 44 70 14 43 70 14 43 71 16 45 69 21 45 67 22 45 55 38 46 58 38 47 66 36 34 65 35 33 64 31 48 63 31 54 57 26 44 55 24 39 61 26 48 66 31 55 68 36 49 67 51 28 65 48 30 45 46 51 43 43 51 62 38 51 66 38 50 52 29 47 48 27 46 36 31 51 26 38 54 28 40 56 32 49 59 38 44 58 59 27 48 57 28 48 72 21 40 71 20 37 63 15 37 64 15 34 67 28 47 68 30 51 70 48 60 70 64 68 72 52 64 70 31 52 71 29 51 
65 38 47 66 38 50 63 29 56 63 29 56 62 26 52 64 23 53 69 47 36 72 56 31 71 31 39 71 18 44 71 16 45 72 13 43 70 14 43 70 14 43 71 15 44 70 13 45 70 14 43 29 47 57 23 52 58 20 55 59 18 58 60 16 57 61 18 57 62 17 56 61 18 58 60 18 58 60 16 55 60 16 55 60 11 42 45 12 43 46 35 45 46 42 46 47 45 45 45 47 46 44 46 44 45 43 41 42 41 40 36 34 33 31 35 31 32 31 27 28 30 26 25 15 33 37 15 35 36 13 48 52 14 53 58 15 52 58 17 52 56 14 52 55 14 51 57 19 50 55 30 42 54 29 42 51 68 15 45 68 15 43 73 14 44 71 12 42 71 15 40 73 14 44 70 14 43 70 14 41 70 16 42 66 21 42 66 24 44 58 42 42 60 42 42 69 40 34 71 40 35 64 28 54 59 23 59 54 22 46 49 22 37 60 29 47 67 32 54 70 37 48 71 51 26 65 50 29 34 47 56 35 48 57 63 40 48 68 39 44 55 27 49 48 22 49 34 32 54 21 36 55 23 46 60 19 63 66 28 55 64 54 33 52 54 33 50 71 12 40 69 13 40 63 11 34 60 12 34 68 33 53 72 39 58 71 56 63 72 72 72 71 55 65 71 32 53 71 32 53 
68 42 45 67 40 47 64 30 57 65 31 58 64 28 56 64 27 58 70 45 40 72 51 32 68 37 42 67 28 47 71 23 47 68 18 45 70 17 45 70 14 43 71 15 44 58 24 48 58 23 47 26 49 57 23 54 59 21 54 59 20 55 59 20 53 58 23 52 58 23 53 61 16 55 60 17 57 59 17 55 58 16 54 57 14 49 53 16 49 54 34 45 51 37 45 48 42 40 41 43 38 35 45 41 38 44 43 41 41 39 40 31 29 30 31 29 32 34 32 35 32 31 36 17 43 44 17 43 44 15 50 52 17 52 56 19 50 55 18 49 54 25 45 54 37 35 48 41 35 49 51 28 48 51 30 47 73 14 44 70 16 42 72 13 43 70 14 43 70 15 46 71 16 47 69 21 45 68 27 45 68 27 43 71 29 43 66 28 41 60 34 47 61 33 48 56 33 51 58 34 50 54 27 60 53 25 65 50 25 55 47 24 53 58 31 50 70 39 47 70 41 45 66 44 33 62 42 35 37 47 57 37 47 59 65 44 39 68 43 38 57 28 50 52 23 54 35 28 61 31 31 65 25 36 64 18 51 60 22 51 59 37 47 59 35 48 57 55 32 50 53 32 49 59 14 37 60 12 36 68 40 55 70 48 60 72 59 66 71 69 70 68 55 64 61 32 50 60 32 54 
69 45 43 69 43 46 67 33 60 67 33 58 66 32 59 66 32 57 71 43 40 70 47 33 66 41 45 64 37 52 65 32 51 67 25 49 67 21 47 72 13 41 70 14 41 46 33 51 45 34 51 25 52 59 21 54 59 20 53 58 19 53 55 21 49 53 29 46 54 26 49 55 16 54 57 17 55 58 16 54 57 17 54 60 17 55 58 18 53 57 33 46 54 38 42 53 40 36 35 42 31 27 46 38 36 45 43 44 41 39 40 27 27 27 29 29 31 37 36 41 37 36 41 20 50 52 16 51 53 14 52 55 13 51 54 19 48 54 21 49 53 37 36 50 62 20 44 63 19 44 73 15 40 73 13 41 73 14 42 73 14 42 70 14 41 72 13 41 70 16 48 69 19 48 64 29 49 62 39 45 67 38 43 72 31 39 69 32 40 62 23 54 62 23 54 45 27 67 44 28 67 48 27 66 48 27 68 48 27 66 45 27 65 58 37 54 70 45 40 68 44 40 61 34 39 58 35 41 38 45 61 38 48 60 66 50 34 69 51 31 58 30 52 54 23 55 42 24 66 34 24 74 28 31 64 13 41 52 17 46 54 21 60 65 20 61 63 38 48 57 37 50 58 59 17 39 61 13 39 69 45 58 73 58 65 71 61 69 72 66 70 64 54 63 49 34 55 52 35 54 
70 46 42 69 45 45 67 33 60 66 32 59 67 33 60 66 33 60 70 40 42 71 44 35 66 41 45 65 39 52 66 33 50 66 26 50 68 26 50 69 21 47 70 22 48 36 39 48 36 38 51 22 51 57 21 52 57 20 49 55 24 47 53 34 40 52 46 33 50 41 37 51 34 40 52 34 42 53 23 50 57 20 51 56 17 55 58 17 55 56 25 50 55 29 48 55 35 39 40 38 34 33 41 37 36 42 41 39 39 39 37 33 33 33 33 33 33 31 39 42 33 38 42 20 49 53 16 49 54 26 43 51 29 43 52 35 37 49 41 33 48 50 29 48 66 18 44 66 16 43 73 13 39 72 13 41 70 14 41 71 15 42 69 19 44 66 18 40 68 27 41 66 28 39 65 32 43 65 35 45 66 33 44 71 31 40 67 29 42 54 24 58 54 24 58 43 28 67 44 28 67 44 28 67 44 28 67 49 28 67 51 26 65 60 36 50 70 46 36 63 44 38 47 38 43 49 39 47 46 43 60 47 43 60 66 47 33 70 49 30 57 30 49 53 24 55 41 23 65 37 25 73 31 29 68 25 35 60 26 39 56 32 50 62 32 49 59 50 45 51 51 44 51 52 23 43 50 21 41 67 34 51 72 41 56 68 44 58 64 48 59 57 47 58 41 45 57 39 45 57 
70 48 37 70 45 41 68 34 61 66 33 60 67 33 57 68 36 60 69 36 43 72 38 37 69 40 45 67 40 49 65 37 51 65 33 56 64 32 53 65 33 54 64 32 53 20 45 50 20 45 52 17 46 52 19 48 54 26 43 53 32 40 51 54 27 46 73 13 41 69 15 41 66 18 42 61 22 43 32 42 51 33 43 53 16 51 55 17 52 56 17 52 56 13 53 55 25 43 45 32 37 40 34 39 35 34 36 31 37 38 33 42 41 39 40 42 41 24 43 49 24 43 47 20 48 52 18 47 53 43 32 48 51 28 46 62 18 43 71 12 42 72 13 41 71 15 42 70 14 41 71 15 42 70 14 41 71 17 40 69 17 39 66 24 44 64 25 46 68 44 34 67 48 31 67 37 37 68 27 45 66 27 45 68 27 45 65 26 47 44 28 67 42 25 67 39 26 69 41 26 67 39 27 67 41 26 65 52 27 66 59 27 64 66 36 46 72 46 29 60 46 37 22 45 53 26 43 53 56 37 57 57 35 56 63 44 30 64 45 28 53 28 47 53 22 54 44 23 64 38 25 71 38 25 71 38 26 66 42 28 64 52 31 50 52 30 51 70 35 39 71 35 37 39 36 45 33 35 47 60 20 44 69 14 43 62 18 41 56 21 43 40 36 50 20 61 65 24 59 63 
70 48 37 70 45 40 69 33 61 69 35 60 67 34 61 67 35 59 70 37 46 71 36 40 69 38 44 67 40 47 66 38 52 63 34 56 62 33 55 60 33 50 62 33 53 18 46 50 20 45 50 18 47 51 17 48 51 28 41 50 38 38 50 53 26 45 71 12 40 70 14 41 64 19 42 60 20 44 36 38 51 35 37 50 24 47 53 23 48 53 21 49 53 21 48 55 31 40 45 36 37 39 36 36 36 37 36 34 40 36 35 44 40 39 41 39 42 29 39 48 29 40 46 28 42 51 25 44 51 45 31 48 53 26 45 63 17 43 72 13 43 73 13 41 71 15 42 71 15 42 71 15 44 70 15 44 70 21 42 71 22 44 63 24 43 63 24 43 67 42 38 68 46 35 68 38 40 68 29 47 69 28 46 68 27 43 65 28 46 45 27 65 46 28 66 42 27 68 42 27 70 40 28 68 40 28 68 54 28 65 64 30 63 64 36 48 71 45 32 56 46 37 22 47 52 27 46 53 58 37 56 58 37 56 64 44 33 63 44 29 55 28 47 53 22 54 44 23 64 40 25 68 41 26 67 42 28 64 44 29 62 54 34 46 54 34 46 66 35 40 66 35 40 38 38 48 32 38 50 53 26 45 63 21 45 58 23 43 54 22 43 44 36 51 20 59 64 20 60 62 
71 51 27 70 49 30 69 38 54 69 38 56 67 34 61 67 34 61 70 32 47 71 30 44 69 40 44 68 44 44 65 40 46 65 33 57 58 35 55 42 38 53 42 38 53 14 44 52 15 46 49 12 43 46 12 46 48 42 29 46 63 17 43 66 16 43 72 13 41 74 14 42 71 15 40 71 12 40 71 11 39 73 13 41 75 12 41 70 12 37 66 16 41 66 18 42 60 20 44 57 24 43 58 23 43 58 26 41 61 24 41 62 20 40 62 20 40 69 15 41 67 14 40 69 13 40 73 13 41 71 13 38 70 14 39 72 14 39 73 13 39 70 14 41 70 14 41 69 16 44 67 24 51 66 23 50 68 41 50 67 41 50 51 24 39 46 23 39 61 24 55 63 26 59 67 30 63 72 32 66 71 31 55 73 32 38 71 31 40 69 34 67 69 32 66 60 30 66 61 31 67 54 29 68 54 29 69 64 31 62 68 32 58 58 34 50 47 34 41 40 39 45 12 53 55 18 51 56 62 35 50 64 36 51 60 40 42 60 40 39 56 28 50 56 23 54 55 21 45 56 21 43 62 24 45 72 31 45 70 36 37 71 50 23 69 48 21 38 35 46 41 35 47 18 49 54 16 51 55 17 57 59 18 59 61 32 50 50 47 42 38 35 45 44 13 51 52 16 53 59 
71 50 29 72 49 31 68 37 55 70 37 56 68 34 59 68 34 59 70 31 49 71 30 44 72 39 46 69 45 45 67 40 49 63 34 56 58 34 56 42 38 53 43 39 54 15 46 49 13 46 51 10 44 46 13 44 47 42 29 46 60 20 44 66 16 43 69 13 40 69 13 40 70 14 41 70 14 41 72 14 39 70 12 37 72 12 38 72 12 38 69 16 42 66 16 41 60 21 42 57 24 45 56 25 43 58 26 41 62 25 42 63 21 41 64 21 41 69 15 39 67 14 42 72 12 38 72 12 38 70 14 41 73 13 39 72 13 41 70 14 39 73 14 42 73 14 42 71 17 43 67 24 52 65 25 52 68 41 50 67 40 47 49 25 41 46 24 37 61 25 53 63 26 59 66 29 62 70 33 66 70 30 56 71 31 39 72 32 41 71 31 68 68 30 67 60 30 68 62 30 67 54 29 68 54 29 68 61 30 62 67 33 57 59 32 51 47 34 41 40 39 45 13 52 57 20 51 54 66 35 53 62 35 50 61 39 42 60 40 41 57 27 51 56 23 54 56 22 47 56 21 43 60 26 43 70 32 45 70 35 39 69 50 20 69 48 21 38 36 49 42 36 48 19 50 53 14 52 55 15 59 60 17 58 60 31 51 50 47 43 40 36 46 47 13 51 54 15 52 58 
72 28 41 70 30 39 71 41 31 71 41 31 69 47 34 69 47 34 70 33 41 70 27 46 69 38 44 69 45 41 67 40 47 62 32 58 60 34 59 52 40 60 52 39 59 18 43 50 17 44 51 21 41 48 21 40 47 51 26 47 70 17 47 66 22 47 66 24 48 67 22 45 70 16 40 70 14 39 71 13 38 71 13 38 71 13 38 72 13 41 70 14 41 71 15 40 71 13 38 72 14 39 71 12 40 72 13 41 70 14 39 72 14 39 72 14 39 72 14 39 72 12 40 72 13 41 71 13 38 70 15 38 71 13 38 72 18 44 69 21 47 69 24 53 66 33 60 67 33 60 67 33 60 66 33 60 71 41 53 70 40 50 72 29 48 72 27 48 45 22 50 34 19 48 37 21 50 45 20 49 53 18 48 68 18 45 69 21 47 70 29 63 70 29 61 71 31 66 69 32 66 68 33 63 69 35 62 70 36 53 71 38 49 43 40 47 13 43 45 16 47 49 17 57 59 23 54 57 67 37 45 68 36 47 61 34 49 60 33 50 67 30 47 70 29 47 63 36 43 60 40 41 64 41 35 68 41 22 65 36 28 58 18 42 60 18 40 16 45 53 15 43 54 16 53 59 20 55 59 10 39 43 7 32 36 35 34 40 58 35 43 45 35 46 21 34 50 19 37 51 
70 28 40 71 31 40 70 41 33 71 41 33 69 47 34 70 48 34 70 32 45 73 26 46 68 37 42 68 44 40 66 39 46 66 33 60 60 35 57 52 40 60 53 40 60 19 44 51 18 45 52 21 41 48 21 40 47 51 26 48 67 17 46 67 21 47 64 24 48 68 20 44 70 14 39 70 14 39 73 13 39 71 11 39 73 13 41 72 14 39 72 13 41 72 14 39 72 14 39 73 13 39 71 13 38 72 14 39 71 13 38 72 14 39 72 13 41 72 13 43 73 15 40 72 14 39 72 12 38 71 13 38 72 13 41 70 17 43 69 21 47 69 27 51 66 33 60 67 33 58 67 33 60 67 33 60 68 41 50 67 40 49 71 30 48 70 27 47 44 21 47 33 18 47 39 20 50 44 19 48 53 18 48 69 19 46 69 21 47 71 30 64 70 29 63 69 32 66 71 31 66 69 34 64 69 32 63 71 37 54 73 37 49 42 41 47 13 43 43 15 46 48 16 57 59 21 55 56 67 37 45 68 38 46 58 34 48 58 34 48 68 31 48 71 30 48 66 36 44 59 41 41 62 42 35 67 42 22 65 36 28 58 18 42 62 20 42 16 45 53 14 44 54 18 53 59 18 56 57 10 39 43 7 32 36 34 34 42 60 34 43 45 35 46 18 34 49 20 38 50 
69 38 44 69 38 44 67 33 57 67 32 56 69 30 48 71 30 46 66 28 41 65 27 42 66 37 41 67 43 39 65 40 46 62 32 60 57 33 57 56 33 59 57 33 57 49 34 57 48 35 55 49 34 53 50 35 54 59 29 53 62 28 53 61 29 52 60 31 51 59 30 50 60 29 47 61 28 47 64 22 44 64 22 44 68 16 39 69 17 40 70 14 39 73 14 44 71 12 40 69 13 40 68 14 38 72 14 39 73 14 42 72 14 38 73 13 41 73 13 39 71 15 42 71 18 44 70 17 45 68 24 49 67 27 53 67 28 55 65 29 55 67 31 57 67 33 60 66 34 58 68 34 61 68 34 61 70 37 56 70 39 55 70 29 47 69 26 43 57 25 48 53 25 50 51 21 45 49 20 42 45 17 42 35 15 42 36 16 43 45 21 45 46 20 45 68 21 57 67 21 57 70 35 42 68 38 38 70 40 40 71 41 43 41 42 46 13 42 46 15 46 49 23 54 59 28 51 57 69 38 44 69 38 44 68 40 39 70 41 37 63 33 45 60 29 45 63 35 34 63 40 26 65 35 33 57 26 44 53 25 48 43 26 62 42 26 62 12 45 52 12 45 52 17 55 58 20 55 59 6 35 39 2 30 31 28 33 37 48 36 40 42 39 48 36 47 67 34 47 64 
68 42 45 69 39 47 66 29 62 67 29 66 68 24 51 69 23 49 66 25 41 64 26 39 66 37 41 68 44 40 65 39 48 62 32 60 61 31 59 58 32 59 60 31 59 59 30 58 60 30 56 56 32 54 58 32 57 60 32 55 60 32 54 58 30 52 60 32 54 57 32 53 57 32 51 60 33 52 62 24 45 63 25 46 69 16 42 67 17 42 71 15 40 69 13 40 70 14 41 70 14 41 72 12 40 72 14 39 71 12 40 72 13 41 69 13 38 72 14 39 70 14 41 70 17 43 70 20 47 67 27 53 65 31 56 67 33 58 65 33 57 66 33 60 69 33 61 69 35 62 67 33 60 68 34 61 71 36 58 69 36 55 70 27 44 70 26 41 60 25 47 59 25 49 54 22 45 50 18 39 40 16 38 24 14 39 27 14 40 38 19 39 40 18 39 67 17 52 67 17 54 70 34 36 68 40 29 70 40 38 69 40 42 39 43 42 12 43 46 15 44 50 24 53 59 31 50 57 70 37 44 70 39 44 70 43 34 71 43 32 60 34 43 56 29 46 63 35 31 68 39 23 61 33 32 54 21 52 49 22 55 38 27 69 38 27 69 10 45 49 11 44 49 17 55 56 19 57 60 6 36 38 1 29 32 22 32 34 44 35 38 43 42 50 40 51 69 38 49 67 
66 35 51 63 34 54 58 28 62 58 28 62 41 21 48 38 20 46 49 21 43 50 21 43 58 35 41 62 43 39 57 37 48 52 27 59 49 29 57 50 30 58 53 29 61 52 29 58 51 28 57 51 31 56 54 31 57 55 31 55 56 30 55 56 32 54 56 31 53 56 31 53 55 32 52 56 31 52 59 30 50 59 30 50 62 27 47 60 27 48 62 28 45 61 27 44 63 26 43 63 26 44 63 25 46 65 26 47 65 25 51 71 26 59 72 25 59 74 24 61 71 25 61 72 26 62 71 27 62 70 30 64 69 32 65 69 32 63 70 33 64 69 32 65 69 33 61 68 33 63 70 33 64 69 32 63 68 31 62 68 34 61 60 39 44 61 40 45 54 36 50 51 34 52 53 26 45 58 18 42 52 17 41 45 17 42 43 17 42 37 20 39 37 20 38 37 18 46 36 20 47 60 29 35 65 33 34 66 37 39 66 42 40 51 40 46 34 38 49 40 40 50 53 43 51 57 42 49 70 43 36 70 43 36 65 40 35 67 40 31 64 29 35 66 25 39 60 27 46 53 28 49 51 26 55 45 24 63 41 27 63 29 33 58 29 33 60 12 47 49 13 47 49 15 50 54 15 50 54 5 34 38 1 31 33 17 33 33 33 34 36 31 40 47 31 47 62 27 47 58 
66 32 56 64 31 58 53 27 62 54 28 63 25 18 49 22 18 45 38 18 43 41 19 42 52 32 41 57 41 41 53 35 47 44 27 61 44 28 57 44 27 59 44 27 59 48 29 59 45 29 58 50 30 57 49 29 57 54 30 56 55 31 55 56 31 53 56 31 53 56 32 54 55 32 52 55 31 55 55 32 50 54 33 50 56 33 49 56 33 49 55 34 49 56 34 47 58 34 47 56 33 43 58 34 50 58 34 50 64 32 56 73 33 70 72 32 69 71 33 72 71 33 72 73 32 72 72 31 71 73 32 72 71 30 70 72 32 69 69 32 65 69 32 65 69 32 63 69 34 64 69 34 64 69 34 64 68 33 66 68 33 65 56 47 48 53 50 45 48 42 52 44 38 52 54 29 48 62 16 44 62 20 44 58 20 43 57 19 44 39 17 40 38 19 39 21 19 43 17 19 42 54 28 37 59 30 34 63 39 39 63 42 39 54 38 48 48 35 52 53 36 52 69 36 43 69 38 43 71 44 33 71 44 33 64 39 32 62 39 33 69 28 34 73 23 35 55 22 53 48 23 65 43 21 67 39 26 72 35 27 68 27 35 54 27 35 54 13 47 49 14 45 48 12 45 50 11 46 50 5 34 38 1 31 33 12 32 33 25 35 34 22 37 40 22 45 53 24 47 53 
50 22 47 50 21 49 43 22 53 42 21 52 38 23 54 38 23 54 49 20 48 53 19 44 54 33 42 56 40 41 51 35 48 42 27 60 43 28 61 41 27 60 42 28 61 44 27 59 43 28 59 44 28 57 46 27 57 45 29 56 49 31 57 53 30 56 51 32 54 52 30 53 52 30 53 51 32 54 53 32 51 55 33 54 57 32 53 57 32 53 60 32 55 59 34 55 62 32 58 64 31 58 65 32 61 65 30 60 67 32 65 70 32 71 72 31 71 71 33 70 72 31 71 72 31 73 71 30 70 72 32 69 71 30 70 71 30 70 69 31 70 69 31 70 71 31 66 69 31 68 69 32 66 69 32 66 69 31 68 71 31 68 59 49 50 59 51 48 42 51 60 36 50 59 37 45 56 41 38 55 40 33 49 35 24 40 33 25 40 19 35 51 18 34 50 18 35 55 19 36 54 46 25 42 54 23 39 64 35 40 66 43 37 62 41 38 59 41 39 60 39 38 69 38 36 68 38 36 68 39 35 69 40 36 67 35 36 65 33 36 62 25 42 59 21 44 46 22 56 38 21 63 38 23 66 42 25 70 36 28 65 20 38 50 19 37 49 16 50 52 17 50 55 18 46 49 18 46 50 13 38 42 11 35 37 17 37 38 24 38 38 21 39 41 18 43 50 20 43 51 
33 13 40 34 11 39 31 12 40 31 15 42 51 26 58 53 27 62 62 23 52 65 22 49 60 32 46 54 38 41 48 34 51 40 26 62 41 27 62 39 28 60 38 27 59 41 27 62 41 27 60 41 28 58 41 27 60 39 28 58 41 28 56 43 29 55 46 30 56 48 30 56 50 30 57 48 30 54 53 31 52 53 31 52 57 32 54 59 31 54 60 29 60 62 31 63 67 31 69 69 31 70 72 31 71 69 31 70 70 32 73 68 32 70 71 30 72 71 30 70 70 32 71 69 31 70 69 31 72 69 31 72 69 31 72 69 31 72 67 29 70 67 30 71 68 30 71 72 31 71 69 33 71 69 31 70 70 32 71 70 32 71 62 50 52 60 53 47 35 60 64 26 63 71 23 60 66 18 57 62 17 48 53 13 30 37 12 32 39 1 48 58 1 48 56 21 53 68 19 53 65 39 23 49 45 15 43 63 32 40 69 42 35 69 42 31 68 43 21 69 43 26 66 36 28 67 36 31 71 36 40 69 37 40 68 28 37 64 27 35 53 23 47 48 21 52 37 21 58 29 21 60 34 22 62 45 22 66 35 25 59 12 40 44 13 40 47 19 54 58 19 54 58 23 44 49 24 43 50 22 41 45 19 43 45 22 42 43 21 41 42 20 41 44 14 43 47 19 39 48 
39 13 38 39 13 40 32 18 43 32 18 41 52 27 57 57 26 58 63 25 50 66 22 45 59 31 45 54 37 47 48 34 51 39 27 63 41 27 63 39 28 62 39 28 62 38 27 59 40 26 59 40 27 57 40 27 57 37 27 54 37 24 50 41 27 52 43 27 53 45 29 56 48 30 56 49 31 57 52 29 57 53 30 56 56 30 59 59 31 56 60 30 64 60 30 66 66 30 68 69 31 72 69 30 74 71 30 70 69 32 73 69 31 70 71 30 70 68 32 70 70 32 71 69 31 72 69 31 70 69 31 72 68 32 70 69 31 72 68 30 71 68 30 71 68 30 71 68 30 71 68 31 72 69 31 70 68 31 72 69 31 70 59 48 52 58 49 54 35 58 64 30 63 70 25 60 66 20 59 66 16 49 56 11 38 45 12 41 47 2 50 60 1 51 60 21 49 61 21 49 61 34 26 47 40 17 43 57 34 40 70 42 38 66 43 35 61 43 33 60 41 34 65 34 39 66 33 40 68 35 44 70 34 44 65 29 39 65 30 36 55 23 47 50 20 54 39 22 56 31 23 60 40 24 61 45 25 62 37 28 57 11 40 46 9 40 43 19 54 60 17 55 58 19 43 47 21 42 47 17 41 43 18 39 44 19 40 43 19 38 42 15 41 42 14 44 46 17 40 46 
54 14 38 52 17 39 33 31 44 32 30 41 62 24 49 67 23 50 68 23 43 69 27 37 59 31 46 51 34 52 48 33 56 43 27 64 41 27 63 40 26 61 40 26 62 39 28 62 37 26 60 36 25 57 35 26 57 27 19 42 22 15 33 29 19 43 39 26 54 41 28 58 45 28 64 47 27 64 52 26 71 51 28 70 52 27 69 53 27 74 52 29 71 52 27 69 60 29 73 62 30 71 65 28 69 68 29 73 69 31 72 69 31 70 68 30 71 69 31 70 69 30 74 69 31 72 69 31 72 70 32 73 68 30 71 68 29 73 68 31 74 66 29 72 67 30 71 66 29 70 65 30 72 65 28 71 63 31 72 65 30 72 51 36 65 50 37 63 39 56 64 37 62 67 32 62 70 27 64 72 23 63 71 14 60 73 13 60 70 5 60 67 6 58 69 24 38 51 24 37 53 19 31 45 17 31 42 47 38 39 66 42 38 51 40 46 36 37 55 43 35 59 61 28 71 62 27 69 63 29 54 62 30 54 62 38 36 61 38 32 55 25 49 53 22 53 47 26 59 43 28 57 45 30 53 52 29 47 40 32 47 6 37 40 7 38 41 17 58 60 16 57 59 8 39 42 6 37 42 5 36 39 5 36 39 6 37 42 5 36 39 7 38 41 8 42 44 13 41 44 
53 15 40 52 17 39 37 29 44 38 30 45 60 27 48 64 26 51 69 27 41 68 28 39 56 32 48 50 33 52 47 31 58 41 26 65 41 27 62 39 28 62 39 28 62 38 27 61 41 27 63 36 25 59 38 24 57 27 19 42 21 16 36 31 21 46 37 26 56 41 28 58 47 26 65 47 26 67 52 27 69 52 27 69 52 26 71 53 27 72 54 27 72 54 27 70 59 28 72 63 31 72 64 29 71 66 29 73 67 30 73 68 30 71 68 30 71 71 30 72 67 30 71 70 29 71 69 30 74 69 31 72 69 31 72 68 30 71 68 30 71 67 30 73 67 30 73 66 31 71 66 31 73 65 30 72 62 30 69 62 30 71 55 36 66 52 38 64 43 51 64 39 56 63 32 59 66 27 62 68 23 61 70 14 61 71 13 60 68 10 54 63 10 54 63 27 36 53 30 35 54 18 32 43 16 31 38 47 37 36 64 40 36 53 40 49 40 37 58 44 34 59 64 29 71 63 28 70 61 28 57 62 29 56 61 37 33 62 40 29 58 26 47 56 23 50 49 26 54 47 29 55 46 28 50 46 32 47 40 34 46 9 38 42 8 39 42 16 56 58 18 58 60 7 42 44 8 39 44 7 38 41 7 38 41 8 37 41 8 37 41 9 38 42 13 41 45 16 39 45 
49 21 43 49 21 43 66 18 44 68 18 47 45 41 56 39 46 56 55 47 45 59 46 38 49 36 53 46 29 61 44 29 62 39 27 63 44 26 64 43 27 64 41 27 63 44 26 64 44 27 63 45 27 65 45 27 67 40 25 66 36 24 62 35 23 63 34 23 63 38 26 66 47 26 67 48 25 67 50 27 69 50 27 71 56 27 73 57 28 74 55 28 71 55 28 71 50 27 69 49 26 72 49 26 70 50 27 71 53 27 72 60 27 70 61 28 71 66 29 73 67 30 73 67 29 70 68 30 71 70 32 71 72 32 69 69 31 70 71 30 70 69 31 72 68 31 72 68 29 73 62 27 69 63 31 72 61 28 71 59 28 72 60 27 70 59 26 69 51 27 53 49 27 48 37 36 50 24 45 50 22 47 52 21 49 53 22 46 50 32 22 33 32 22 33 63 30 61 63 28 60 18 28 38 2 31 29 42 37 34 65 41 37 62 38 52 58 34 66 58 33 65 66 29 72 61 29 70 51 26 68 50 24 69 68 42 27 70 44 21 67 32 30 67 26 30 69 29 30 70 30 31 51 32 36 20 34 43 18 37 43 12 41 45 12 43 48 22 51 57 23 50 57 18 46 49 17 45 48 18 43 47 15 43 46 19 45 46 22 46 48 27 42 47 37 33 48 41 33 46 
49 21 44 52 20 43 67 17 44 69 16 44 43 41 55 39 46 56 54 46 44 57 47 38 51 37 54 45 29 58 45 30 63 41 26 65 41 27 62 40 26 61 42 28 64 44 27 63 43 27 63 45 27 67 45 27 67 40 25 64 38 23 64 36 24 64 37 25 65 39 24 63 45 27 67 48 27 68 49 26 68 50 27 69 55 26 70 55 26 70 55 28 71 55 28 73 51 28 72 49 26 72 50 27 71 51 28 74 54 28 73 62 29 72 62 29 72 67 30 73 66 29 72 69 28 70 68 30 71 70 32 71 71 30 70 71 30 70 71 33 72 69 31 72 68 31 72 68 30 71 65 28 72 65 30 72 59 28 70 57 28 72 59 28 70 60 27 70 50 26 52 49 27 48 36 35 49 25 46 51 22 46 50 21 49 53 22 45 51 29 21 32 33 23 34 66 26 61 62 27 60 18 28 38 1 29 33 42 38 37 67 42 37 62 38 52 58 34 66 58 34 68 64 29 71 64 29 71 50 25 67 51 26 68 69 41 27 69 43 20 69 31 30 64 28 30 68 29 30 70 30 30 52 32 34 19 33 42 18 37 44 12 43 48 9 42 47 23 50 57 23 50 57 18 46 49 18 46 49 18 44 45 16 44 45 19 45 46 21 47 48 28 41 47 37 33 48 44 34 45 
46 30 43 45 34 50 24 53 61 25 54 62 25 59 68 27 59 70 52 53 45 60 53 37 49 36 54 42 27 66 41 26 67 40 25 66 38 25 68 37 24 68 38 26 66 39 26 70 41 25 70 45 26 71 45 27 67 43 26 70 42 25 69 39 23 68 35 24 66 38 23 64 33 21 61 33 21 61 24 14 49 24 14 48 38 23 66 39 23 62 51 25 70 54 27 70 53 27 72 53 28 70 49 28 71 44 27 71 46 28 70 45 26 71 45 26 71 51 28 70 53 27 72 60 27 70 61 28 71 66 31 71 66 29 70 68 30 69 69 31 72 70 32 73 67 29 70 66 29 72 62 29 72 64 29 71 62 29 72 61 30 71 59 28 70 58 29 73 53 28 68 49 28 67 57 26 57 66 24 44 63 27 41 61 29 32 62 30 35 65 26 47 65 26 47 33 30 49 34 29 52 9 29 38 1 30 34 40 36 37 64 40 40 64 35 53 64 33 65 63 32 64 62 30 67 59 29 63 54 29 48 54 31 51 66 35 32 69 35 33 46 26 37 40 23 39 57 26 44 66 27 48 42 30 44 5 33 37 9 38 42 14 52 55 13 53 55 19 43 53 20 42 55 14 45 48 13 44 47 14 45 47 17 47 49 14 45 47 13 44 46 16 44 47 27 43 43 31 45 46 
