P3
100 50
255
8 32 6 5 27 6 0 17 1 0 16 3 0 17 0 0 17 0 0 17 0 1 18 2 3 17 0 3 17 2 0 17 0 0 17 1 0 17 1 0 17 1 0 17 1 0 17 1 0 17 1 1 18 2 0 17 1 1 15 0 2 16 1 3 15 1 2 16 1 0 17 0 0 17 0 1 20 1 3 25 4 6 30 6 13 39 12 9 38 10 31 52 33 34 53 34 45 55 46 47 57 48 51 57 53 52 57 51 52 59 52 45 57 47 43 56 46 40 56 43 39 57 43 38 55 39 38 56 40 37 55 39 37 53 40 39 57 43 39 57 45 41 57 44 41 57 46 40 56 43 38 56 40 38 56 42 41 57 44 38 56 42 22 55 26 23 56 25 21 54 23 21 56 24 19 54 21 20 55 22 19 54 21 19 54 21 21 55 22 20 53 22 18 51 20 16 46 20 17 45 20 8 37 6 8 37 6 8 32 6 6 30 4 14 31 13 18 32 17 32 40 29 47 48 42 48 49 44 50 52 49 50 50 48 53 53 53 52 52 52 52 52 52 54 54 54 52 54 51 52 54 49 46 52 40 43 51 36 41 49 36 39 47 36 34 41 33 23 23 25 22 22 22 16 18 17 17 19 18 19 37 23 19 37 23 19 35 25 22 34 24 17 40 24 17 44 25 14 32 20 
7 31 5 5 27 6 1 18 2 0 17 1 0 17 1 2 16 1 0 17 1 1 18 0 1 18 2 0 17 1 0 17 0 0 17 1 0 17 1 0 17 0 0 17 1 1 18 2 0 17 1 0 16 0 1 18 2 0 17 1 0 17 1 0 17 1 3 17 2 2 16 0 3 16 0 3 20 2 4 23 4 6 28 7 16 40 16 15 41 16 42 54 42 42 54 42 45 57 47 44 56 46 50 57 50 52 57 53 51 58 51 49 59 51 46 57 49 41 57 44 41 58 42 42 56 43 41 55 42 42 56 43 39 55 42 40 57 41 40 56 43 41 57 44 39 57 43 39 57 43 39 57 41 35 56 39 33 56 36 32 57 35 22 55 26 24 54 26 20 53 24 19 54 22 20 55 22 20 54 19 20 54 21 23 52 22 19 52 21 21 54 23 19 53 20 17 47 19 16 46 20 11 42 10 9 40 9 12 29 10 13 30 12 18 30 16 21 31 22 35 40 33 48 49 44 50 51 46 51 52 47 50 53 46 50 52 47 51 52 47 54 54 54 53 53 53 52 54 53 52 54 51 50 52 47 47 53 43 42 50 39 42 49 41 36 46 37 27 34 26 27 34 27 24 26 23 21 26 22 22 33 25 23 33 24 18 29 21 17 28 20 18 34 23 17 41 27 17 30 21 
3 27 3 3 25 2 1 18 0 1 18 0 0 17 1 1 18 2 0 17 1 0 17 0 0 17 1 0 17 1 0 17 0 0 17 1 1 18 2 0 17 0 0 17 1 0 17 1 0 17 1 3 17 2 0 17 0 0 17 0 1 18 2 0 17 0 0 17 1 1 18 2 0 19 0 1 18 2 1 18 2 7 24 8 24 43 23 25 44 24 56 58 53 56 56 54 43 57 44 40 56 43 45 57 47 48 57 52 53 58 52 56 56 54 53 58 52 47 57 46 48 58 47 46 58 48 48 58 47 46 57 43 47 57 48 44 56 44 42 54 40 37 54 38 35 53 37 35 53 37 37 55 39 34 55 36 21 54 23 21 54 23 21 54 23 21 54 23 20 53 22 19 56 22 19 54 22 19 54 21 21 52 21 24 50 23 19 52 23 19 54 22 19 52 21 16 46 18 17 48 17 17 47 19 16 46 18 22 30 19 22 29 21 26 28 25 28 28 28 40 40 38 52 52 50 51 52 47 50 51 43 49 52 43 47 51 37 45 51 39 51 52 47 51 53 50 51 51 49 52 52 52 53 53 53 51 53 52 51 53 50 48 54 44 45 52 44 36 53 35 36 50 35 30 37 30 30 37 30 24 26 25 24 24 24 15 21 17 13 20 13 16 27 21 21 34 27 17 28 22 
4 26 3 4 23 1 1 18 2 1 18 0 1 18 0 1 18 0 0 17 0 1 18 2 0 17 1 0 16 3 1 18 2 0 17 1 1 18 2 1 18 0 1 17 4 1 18 0 0 16 0 0 17 1 2 16 1 2 19 3 1 18 2 1 18 0 1 18 0 3 20 1 3 20 4 5 22 4 7 26 6 10 31 12 26 48 25 26 45 26 46 58 48 47 59 49 38 56 42 37 56 37 42 56 43 43 57 44 45 55 46 48 53 46 44 56 44 43 55 41 41 55 40 39 51 37 40 52 38 43 57 42 42 56 43 42 56 41 41 55 42 33 54 35 31 53 32 32 53 34 32 56 34 30 55 33 20 54 21 22 55 24 19 54 22 21 55 22 21 55 22 21 54 25 19 54 21 19 54 21 19 52 21 19 52 21 18 53 21 19 56 22 19 52 21 17 47 19 17 47 19 16 46 18 16 46 20 21 33 21 21 31 20 25 30 24 27 27 27 40 40 38 52 52 50 50 52 47 50 53 46 50 51 45 48 51 42 49 52 43 49 51 48 50 52 47 49 51 48 50 52 49 52 52 50 53 53 53 51 53 50 47 53 49 46 53 46 39 53 40 40 52 40 31 41 32 31 43 33 23 32 27 25 30 26 18 25 18 17 23 19 17 28 22 21 34 25 19 25 21 
4 17 0 4 18 1 2 19 1 2 19 1 2 19 1 1 20 1 1 18 0 2 19 1 1 18 0 4 18 1 3 17 0 0 17 0 1 18 0 2 16 0 0 17 0 1 18 0 0 17 0 1 18 0 0 17 0 0 17 1 1 18 0 2 19 1 2 19 1 9 26 8 11 33 12 16 40 16 22 51 21 26 52 25 32 55 35 33 57 35 26 55 27 27 55 32 28 56 31 27 55 30 24 54 26 22 52 24 21 50 20 19 45 16 21 46 17 24 47 21 23 46 20 12 39 6 11 41 7 29 51 30 30 49 29 35 53 37 37 54 36 27 51 27 19 48 18 23 49 20 19 54 21 19 54 21 18 55 21 20 55 22 21 54 23 20 53 22 19 54 22 19 54 21 19 54 22 20 55 22 18 55 21 19 56 22 19 54 21 20 54 21 18 51 20 16 46 18 15 45 17 16 46 20 17 46 18 14 39 10 15 38 12 21 31 22 27 27 27 40 40 40 53 53 53 52 52 52 52 52 52 51 53 52 54 56 53 53 53 53 47 53 43 46 52 42 45 51 41 44 50 40 50 50 48 51 51 51 52 52 52 52 52 52 52 52 52 54 54 52 52 54 53 36 52 39 38 54 41 28 51 33 27 50 34 25 36 28 25 30 26 23 28 24 22 28 24 21 27 23 
4 18 1 4 17 0 1 18 0 3 17 0 1 18 0 3 17 0 3 17 0 4 18 1 1 18 0 2 19 1 3 17 0 1 18 0 2 19 1 1 18 0 0 17 0 1 18 0 0 17 0 0 17 0 1 18 0 2 16 1 1 18 2 1 18 0 4 18 3 7 26 7 11 33 12 16 40 16 21 50 22 23 52 24 34 55 36 33 54 35 25 55 27 27 55 30 28 56 31 27 55 30 24 54 26 22 52 24 20 49 19 18 44 17 21 46 17 23 46 20 22 46 20 11 41 5 11 41 7 31 50 30 32 50 28 35 52 34 36 53 35 27 49 26 20 49 19 20 50 22 19 54 21 20 55 22 19 54 21 20 53 22 19 54 21 19 54 22 21 54 23 21 55 22 20 55 23 20 55 23 21 55 22 20 55 23 18 53 21 17 54 21 19 52 21 16 46 18 15 45 17 16 46 18 15 45 17 14 40 13 12 38 11 22 32 21 27 27 29 41 39 42 53 53 53 51 51 51 51 53 52 53 53 53 53 53 53 52 54 53 46 51 44 46 52 42 45 51 41 44 52 41 49 51 46 52 52 52 50 52 51 52 52 52 53 53 53 52 54 53 49 54 50 37 53 40 38 54 41 27 50 32 27 50 34 23 34 28 26 31 27 24 30 26 24 29 25 22 28 24 
8 19 2 7 18 1 6 19 1 6 19 1 5 18 0 5 18 0 5 18 0 5 18 0 5 18 0 5 20 1 4 19 0 4 19 0 4 19 0 4 19 0 4 19 0 2 19 1 5 18 1 5 19 2 5 20 1 17 36 14 18 37 17 40 52 40 46 56 47 31 53 32 17 51 18 17 50 19 19 50 19 20 51 19 20 53 22 21 54 23 20 53 22 22 53 22 21 54 23 20 53 22 20 53 22 19 53 20 19 50 19 18 44 15 21 47 18 22 46 20 21 45 19 20 44 18 20 45 16 21 47 20 20 46 19 17 48 17 18 49 18 18 52 19 20 55 23 20 54 21 21 55 22 20 54 21 20 55 23 20 55 23 19 54 21 21 55 22 19 54 22 19 54 22 19 54 21 19 54 21 18 51 20 17 50 19 19 48 20 16 44 19 15 45 17 16 46 20 15 45 17 16 45 17 17 46 18 14 45 14 14 45 14 18 35 17 20 30 21 20 27 20 23 23 23 29 33 32 43 43 43 45 43 44 52 52 52 51 51 51 53 53 53 51 53 52 51 53 50 49 54 48 42 52 41 38 51 34 40 52 40 41 53 43 45 52 45 52 52 52 52 54 53 52 54 53 52 52 52 52 54 53 51 56 52 36 52 42 32 50 38 30 47 37 26 43 33 25 36 30 
7 20 2 7 20 2 6 19 1 7 20 2 5 18 0 7 18 1 6 19 1 6 19 1 5 18 0 5 20 1 4 19 0 5 18 1 4 18 1 3 17 0 3 17 0 3 17 0 4 18 1 5 18 1 6 19 1 17 36 16 19 38 18 39 53 40 46 56 48 31 53 32 18 52 19 19 50 18 18 52 19 20 51 20 18 53 20 20 55 23 21 52 21 21 52 21 21 54 23 21 54 23 19 52 21 19 53 20 19 48 17 16 45 15 19 45 18 22 48 23 21 47 20 19 45 16 19 45 16 21 47 20 21 47 20 19 48 20 18 49 17 21 52 21 21 55 22 20 53 22 19 54 22 20 55 22 20 55 22 19 54 21 19 54 21 19 54 21 19 54 22 20 55 22 20 55 22 19 54 22 18 53 21 18 51 20 16 49 20 13 46 19 15 45 19 14 47 20 16 45 17 16 44 19 15 45 19 13 43 15 12 43 12 16 35 16 19 29 18 21 28 21 22 24 21 31 33 30 44 44 44 45 45 45 52 52 52 53 53 53 51 51 51 53 53 51 51 53 48 52 55 48 43 54 40 37 51 34 40 52 40 42 52 43 45 52 45 52 52 52 52 52 52 52 52 52 52 52 52 51 53 52 52 54 53 38 51 42 32 50 38 29 46 36 24 44 35 24 35 29 
19 23 8 19 23 8 18 20 6 18 22 7 13 20 4 13 20 4 7 20 2 6 19 1 7 18 1 7 20 2 6 19 1 6 19 1 7 18 1 6 19 1 7 20 3 7 22 3 10 27 8 37 51 38 37 51 34 49 54 48 48 53 49 28 53 31 24 53 25 24 50 23 22 48 21 22 48 21 29 53 29 25 51 24 16 50 17 15 49 14 20 54 21 20 54 21 20 54 21 20 55 22 19 54 24 19 54 21 17 50 19 18 47 17 21 47 18 21 47 20 22 48 21 17 50 19 19 50 18 20 54 21 19 54 21 20 54 21 18 53 20 19 53 20 21 55 22 20 55 22 20 55 22 18 53 21 20 54 21 20 53 22 28 54 29 28 52 30 16 51 19 16 47 15 16 46 18 16 46 20 16 46 20 17 47 21 13 46 17 15 45 17 16 46 20 16 45 15 16 46 18 18 47 19 17 48 17 14 45 14 14 45 14 14 44 18 16 44 19 16 42 17 16 42 15 18 37 18 25 27 24 27 29 24 30 30 30 29 31 30 49 49 49 49 49 49 51 51 51 52 52 54 50 52 49 51 53 50 48 54 50 46 53 45 41 53 43 34 52 38 36 52 39 46 51 45 46 51 47 52 52 50 52 52 52 53 53 51 51 51 51 47 52 48 43 52 47 36 49 42 
21 23 9 20 24 9 20 22 8 18 22 7 14 21 5 17 21 6 7 18 1 7 18 1 8 19 2 8 19 2 7 18 1 8 19 2 7 18 1 7 20 2 7 20 2 8 23 4 13 27 10 39 56 40 40 57 41 53 58 54 55 57 54 30 54 32 22 52 24 21 50 22 22 46 22 25 49 23 29 51 28 26 50 26 16 47 15 17 48 14 18 53 21 19 54 21 19 54 21 21 54 23 19 54 21 21 55 22 17 50 19 17 48 17 20 46 19 22 48 21 20 49 19 18 52 19 18 52 19 20 57 24 20 55 22 20 53 22 20 55 23 19 54 21 18 54 18 19 54 21 19 54 22 19 54 22 20 54 21 22 53 21 28 52 30 29 53 31 17 48 17 15 46 14 15 45 17 15 45 17 15 45 19 16 46 20 16 46 18 15 45 17 16 47 16 17 46 18 17 46 18 21 47 20 23 49 24 14 43 15 14 45 14 16 46 18 16 46 18 15 45 17 14 43 12 18 37 17 21 26 20 22 27 23 27 27 27 26 26 24 48 48 48 47 47 47 51 51 49 51 53 52 52 54 53 53 53 53 48 53 49 44 54 45 40 51 43 29 52 34 33 51 37 45 51 47 45 51 47 48 50 49 51 53 52 53 52 50 53 51 52 49 53 52 45 54 49 34 50 40 
22 23 5 21 24 7 19 22 5 19 22 5 17 21 4 19 22 5 15 22 4 16 21 1 13 20 4 12 21 4 10 22 2 13 20 2 12 21 2 12 24 4 16 29 11 31 45 32 34 48 35 47 57 48 46 56 48 45 55 46 44 56 46 35 56 39 30 55 34 26 51 29 17 47 19 21 50 22 26 56 30 25 53 28 18 52 19 17 52 19 19 50 19 17 50 19 20 53 24 23 54 23 23 53 25 22 53 22 18 51 20 18 51 20 21 52 20 21 52 21 22 51 21 18 53 21 18 53 20 20 53 22 20 55 23 26 54 29 28 54 29 22 53 22 16 51 18 17 50 19 17 50 19 19 52 21 23 53 25 23 54 23 27 53 26 24 52 27 18 47 19 17 48 17 16 46 18 15 45 17 15 45 17 15 45 17 16 46 20 15 45 17 15 45 19 19 49 25 17 50 21 22 51 23 24 50 25 15 46 15 14 45 14 13 46 17 14 44 16 16 46 18 16 49 18 18 46 21 20 44 22 19 42 22 18 39 20 20 38 22 30 37 30 30 37 29 36 38 35 40 40 40 45 47 46 51 51 51 51 51 51 49 54 50 48 53 49 42 53 45 44 54 46 38 54 44 39 52 43 35 52 44 35 50 43 47 51 50 49 51 50 51 51 51 51 53 50 46 51 47 
22 23 5 21 24 5 19 22 5 19 22 5 19 22 5 19 22 5 18 23 3 17 22 2 16 21 1 13 20 2 16 21 1 16 21 1 14 21 3 13 25 3 22 33 16 45 58 48 45 58 48 51 56 52 49 55 51 41 55 42 37 54 38 38 56 42 37 58 41 28 53 31 16 47 15 20 50 22 26 56 28 26 56 28 18 53 21 18 53 20 18 51 20 17 50 21 23 53 25 24 53 25 22 52 24 21 51 23 20 53 22 19 54 22 23 54 20 21 56 23 19 54 21 20 55 23 20 53 22 18 51 20 19 53 20 29 54 32 32 54 31 22 51 23 17 48 17 14 47 16 14 47 16 19 50 19 23 53 25 23 53 25 23 53 25 25 54 26 18 47 17 17 46 18 16 46 18 15 45 17 15 45 17 15 45 19 16 46 18 16 44 19 18 47 19 20 50 22 22 51 23 22 50 25 21 50 22 16 45 15 14 45 14 12 45 14 16 46 18 18 49 18 20 53 22 19 52 23 18 51 20 18 51 20 16 47 16 14 47 16 20 28 15 17 29 17 28 30 25 32 32 32 43 43 41 50 50 50 52 52 52 53 51 54 51 53 52 54 54 52 49 54 50 36 54 40 36 54 42 28 52 39 28 52 38 41 52 46 47 52 48 50 52 49 51 51 51 53 51 52 
20 23 4 19 22 3 19 22 5 19 22 5 18 21 4 19 22 3 16 21 1 17 22 2 15 20 0 13 21 0 16 21 1 15 19 2 18 27 8 22 39 20 30 43 26 45 57 47 44 56 44 36 53 37 36 53 35 31 53 32 30 56 31 29 55 28 29 55 30 23 52 22 16 47 16 17 47 19 22 52 26 21 51 23 21 52 21 19 52 21 16 50 17 17 50 19 24 55 24 25 54 26 22 52 24 22 52 24 23 52 24 23 52 22 20 53 22 20 53 22 22 53 22 18 52 19 18 52 19 23 53 25 22 55 26 26 54 29 28 54 29 21 50 22 17 50 19 19 50 19 21 51 23 25 54 26 36 55 36 36 55 36 38 56 40 39 56 40 29 53 31 27 50 30 17 50 21 16 49 18 15 45 17 13 44 13 15 45 17 17 46 18 19 47 24 27 52 30 27 52 30 28 54 29 28 53 31 18 51 20 17 50 19 17 48 17 16 47 16 17 48 17 17 48 17 17 47 19 18 48 20 16 49 20 16 46 18 16 46 18 16 37 18 16 37 18 24 29 25 28 28 30 33 33 33 38 37 35 41 41 41 45 45 45 47 47 47 52 54 53 51 53 52 44 53 48 43 52 47 39 52 43 40 53 46 40 53 44 39 52 45 41 52 46 43 52 49 47 51 50 
17 22 2 18 23 1 19 22 3 18 21 2 19 22 3 19 22 3 15 20 0 15 20 0 15 20 0 16 21 1 15 20 0 14 22 1 22 34 14 34 53 34 36 54 38 44 56 46 42 54 40 23 52 24 21 52 21 22 52 24 23 53 25 20 53 22 19 54 22 17 50 21 14 47 18 16 47 16 16 47 16 18 49 18 20 51 20 18 51 22 16 50 17 15 49 16 24 55 24 25 55 27 24 54 26 23 52 24 22 50 25 24 49 27 24 50 23 22 51 23 21 52 21 16 51 18 17 51 16 27 56 28 28 56 31 22 55 24 20 53 22 18 51 20 17 50 21 18 51 22 25 54 26 30 55 33 45 55 47 49 54 48 56 58 57 55 57 54 40 56 43 38 56 40 24 54 26 19 55 19 16 50 17 12 42 14 13 44 13 17 47 19 20 48 23 33 52 33 34 53 34 31 56 34 31 56 34 21 54 23 20 55 23 17 50 19 18 49 18 16 46 18 15 45 17 14 44 16 16 46 18 16 46 20 15 45 17 17 45 20 15 45 17 15 45 17 21 28 21 24 24 24 22 22 22 22 22 20 30 30 30 38 38 38 42 44 43 51 51 53 51 51 51 52 52 54 53 53 53 49 53 52 51 53 50 36 53 45 30 52 39 31 51 40 32 49 39 40 51 45 
17 22 2 19 22 3 19 22 3 18 21 2 18 23 3 17 20 1 16 21 0 16 21 1 16 21 1 13 21 0 14 22 1 14 22 1 23 35 15 33 54 37 37 53 40 45 55 46 42 54 44 23 52 24 22 52 24 23 53 25 23 54 23 19 52 21 18 53 21 18 49 18 16 46 18 16 46 18 16 47 16 18 48 20 26 52 27 27 53 28 16 51 19 19 50 19 30 56 31 32 56 34 31 55 33 30 54 32 28 52 30 27 51 29 27 51 29 24 53 25 23 52 24 16 52 16 17 52 19 26 55 27 26 54 29 22 53 22 18 53 20 21 51 25 23 51 26 25 53 28 30 56 31 33 55 34 46 56 47 48 55 47 50 57 50 50 57 50 35 56 37 33 57 35 22 55 26 19 54 21 18 49 17 13 44 13 12 45 16 16 46 18 18 48 22 28 51 31 30 52 31 29 54 32 27 55 32 20 53 24 18 51 20 15 50 18 17 48 17 16 47 16 15 44 14 14 43 15 14 43 15 13 41 16 15 41 16 15 41 16 15 39 17 15 40 18 22 27 23 24 23 21 23 23 23 22 24 23 29 29 29 36 36 36 37 37 37 44 44 44 45 45 45 50 50 50 50 50 50 50 52 51 51 53 52 40 53 46 37 52 45 37 52 45 36 51 44 41 52 46 
19 22 5 18 22 5 17 22 2 18 23 3 16 21 1 14 22 1 16 21 1 13 21 0 17 22 2 15 20 0 14 26 2 14 28 3 24 37 19 41 55 42 42 56 43 47 57 49 46 56 48 24 55 24 21 54 23 20 53 22 21 54 23 16 46 18 15 45 17 16 45 17 16 45 17 16 46 18 15 45 17 21 47 22 39 56 40 39 56 40 20 53 22 20 53 22 46 56 47 51 56 52 55 57 54 56 58 55 47 58 50 37 55 41 34 55 38 30 55 34 30 55 33 20 55 22 20 55 22 20 54 21 20 53 22 17 50 19 18 49 18 30 53 33 38 56 40 40 56 43 46 56 48 48 55 48 43 56 46 39 55 42 30 55 33 31 56 34 21 54 23 18 53 20 19 54 21 20 53 22 18 49 18 15 44 16 16 44 19 16 47 16 17 47 19 15 48 19 15 48 17 17 47 19 17 47 19 17 46 18 15 45 17 15 45 19 15 45 17 13 42 12 12 38 9 11 37 8 9 33 7 9 32 6 14 24 13 12 24 12 20 22 17 20 22 17 23 23 21 23 23 23 22 22 22 24 24 24 23 25 22 22 22 22 24 24 24 25 25 25 27 27 27 45 45 45 44 44 44 51 51 51 51 51 51 53 53 53 52 52 52 50 55 51 44 55 49 36 51 44 
19 23 6 19 22 5 16 21 0 17 22 2 14 22 1 16 21 1 15 20 0 14 22 1 14 22 1 16 20 3 14 26 4 13 28 5 23 38 19 41 55 42 42 55 45 49 56 49 43 55 45 23 54 23 23 54 23 21 52 21 19 52 21 19 48 20 17 46 18 18 47 19 17 47 19 18 46 21 17 46 18 23 49 24 37 54 38 39 56 40 21 54 23 23 54 23 48 55 48 51 56 52 52 57 53 54 56 53 45 56 48 35 56 41 34 55 36 30 55 33 27 55 30 19 54 22 20 53 22 18 51 20 18 53 23 16 49 18 15 48 19 28 53 31 37 56 37 40 57 41 44 56 46 43 56 46 40 56 43 39 55 42 30 55 33 28 56 31 20 54 21 18 53 21 17 52 20 18 51 20 17 47 19 14 43 15 14 43 15 14 44 18 12 45 18 15 45 17 13 46 17 15 45 17 14 47 18 15 43 18 14 42 17 14 42 17 14 42 17 11 40 12 10 36 9 10 34 8 9 32 6 8 30 7 12 22 11 12 22 11 20 21 16 17 22 16 21 23 20 22 22 20 21 23 20 23 23 23 23 23 23 23 23 23 24 24 24 23 23 23 26 26 26 42 42 42 42 42 42 47 47 47 48 48 48 52 52 52 52 52 50 50 52 49 44 53 48 40 53 46 
19 22 3 16 20 3 16 20 3 14 21 5 8 19 2 12 21 2 17 22 2 16 21 1 13 20 2 12 19 1 16 30 7 17 37 10 27 44 25 45 55 47 42 54 44 30 54 32 28 52 30 25 49 23 25 49 25 20 46 17 19 45 16 27 49 26 28 50 29 33 52 32 34 51 32 35 52 36 38 51 34 38 52 35 38 52 37 38 50 36 37 55 41 38 55 39 51 56 52 54 56 51 42 55 45 34 55 38 30 55 33 23 54 23 21 54 23 18 54 18 19 53 20 17 51 18 17 50 19 17 47 19 17 47 19 13 47 14 15 46 12 15 49 14 15 51 15 18 52 19 18 52 19 18 53 20 18 53 20 18 54 18 19 52 21 20 54 21 15 50 18 16 49 18 15 45 17 15 45 17 10 39 9 7 33 4 6 30 4 5 27 4 5 27 4 5 28 2 4 28 4 5 27 4 4 28 6 3 25 4 2 24 1 3 22 2 1 18 0 3 17 0 2 16 0 1 18 2 4 21 3 3 22 3 4 23 4 3 22 2 11 23 9 12 24 10 15 20 16 17 19 18 20 20 20 21 21 21 22 22 22 25 23 24 24 23 21 23 23 23 23 23 23 23 23 23 22 22 22 26 26 26 26 26 26 43 43 43 50 48 49 50 50 50 52 52 52 52 52 52 
17 21 4 17 20 1 14 21 3 16 20 3 12 19 1 9 21 1 16 20 3 14 21 3 14 22 1 12 19 1 15 30 7 18 36 10 26 43 24 45 55 47 41 55 42 28 52 30 28 52 30 25 49 25 24 48 22 19 45 16 18 44 17 26 48 25 30 49 29 31 50 30 34 51 32 35 52 33 37 51 34 38 52 35 38 52 37 38 52 37 38 54 41 38 54 41 51 57 53 51 56 52 44 56 44 37 55 39 30 55 33 25 55 27 21 54 25 20 54 21 19 53 20 17 50 19 18 51 20 16 46 18 16 46 18 15 44 14 13 47 14 16 50 17 15 50 17 17 52 19 17 52 19 19 53 20 16 53 19 17 55 18 19 52 21 20 54 21 17 50 19 16 51 19 15 46 15 14 44 16 10 39 9 8 33 4 7 30 1 7 26 4 4 28 4 4 28 4 4 28 4 5 27 4 5 27 4 4 26 3 2 24 1 2 21 2 1 18 0 1 18 2 0 17 1 1 18 2 5 22 4 4 21 3 4 23 3 4 23 3 11 23 9 12 24 10 17 19 14 18 18 16 20 20 20 22 22 24 22 22 22 23 23 23 23 23 23 23 23 23 24 24 24 23 23 25 23 23 23 26 26 28 28 28 28 44 44 44 47 47 47 50 50 50 51 51 51 52 52 52 
12 21 4 10 19 2 7 18 1 8 19 2 6 19 1 8 20 0 13 20 4 12 21 4 13 20 4 13 20 4 13 31 7 12 35 9 25 44 24 40 57 41 40 58 42 39 57 45 39 55 42 39 55 42 39 57 43 38 56 42 37 55 41 36 53 37 34 51 33 31 48 29 27 46 24 25 49 23 19 48 18 22 48 19 27 46 24 29 47 25 31 50 30 33 50 31 28 50 29 28 50 29 26 50 28 25 49 25 23 49 24 20 49 21 18 47 19 15 46 12 13 47 12 16 50 17 15 49 16 15 49 14 15 49 16 17 52 20 19 54 21 21 52 21 22 50 25 21 52 20 18 53 21 19 52 21 20 54 21 17 52 20 14 44 18 14 44 18 16 44 19 15 45 17 16 44 19 17 46 18 15 44 16 11 40 10 10 32 9 7 18 2 4 17 0 1 18 0 4 18 1 1 18 2 1 18 0 1 18 2 1 18 2 1 18 0 0 17 0 1 18 0 2 19 3 4 18 3 4 21 3 4 23 3 6 23 5 5 24 4 7 26 6 9 24 5 9 29 4 10 29 7 12 26 11 14 21 13 15 20 14 18 18 18 19 19 19 22 22 20 22 22 22 23 23 21 23 23 23 23 23 23 22 22 22 22 22 22 22 22 22 28 28 28 33 33 33 39 39 39 
11 20 1 9 20 3 7 18 1 9 18 1 8 20 0 7 19 0 13 20 4 13 20 2 13 22 5 13 20 2 15 30 7 15 35 10 24 43 21 40 56 43 38 56 42 39 57 43 39 55 42 37 58 43 39 57 43 37 55 41 37 55 41 38 52 35 37 51 34 31 50 30 27 47 22 25 47 24 21 47 18 22 48 19 29 48 26 28 47 25 33 50 31 33 50 31 28 50 27 27 51 29 26 48 25 25 49 27 24 48 24 19 48 20 19 48 20 15 46 15 15 46 14 15 49 16 15 49 16 15 49 16 14 48 15 17 52 19 20 53 22 21 52 21 23 49 22 22 51 23 20 53 22 19 54 22 18 53 20 19 52 23 15 44 16 16 45 17 15 45 19 15 45 17 15 45 21 15 45 19 15 44 16 11 40 10 9 31 8 5 18 1 5 18 1 4 18 1 5 19 2 2 19 3 4 17 0 0 17 1 0 17 1 0 17 1 0 17 1 1 18 2 1 18 0 4 18 1 4 21 3 4 21 3 5 22 3 5 22 3 6 23 4 5 24 4 9 28 6 11 31 6 12 26 9 14 22 11 18 20 17 18 18 18 19 19 19 21 23 22 22 22 22 24 24 24 24 24 24 23 23 23 24 22 23 23 23 23 21 21 21 28 28 28 33 33 33 40 40 40 
16 42 13 13 37 11 11 26 5 11 26 5 11 20 3 10 21 5 16 25 8 13 24 7 10 21 4 7 18 2 10 25 6 9 27 3 19 36 17 39 57 41 38 56 42 40 57 41 39 55 42 39 57 43 39 57 43 38 56 42 38 56 44 33 52 33 32 51 31 24 46 23 17 42 12 22 45 19 28 50 27 28 50 29 30 49 29 31 50 30 34 53 34 34 53 33 31 55 33 28 53 32 24 53 25 22 52 24 20 53 22 20 51 20 19 50 19 16 46 18 16 47 16 18 53 20 20 54 21 18 49 17 16 50 17 18 53 21 19 54 22 20 54 21 21 52 21 20 53 22 22 53 22 20 54 21 19 52 23 18 53 21 15 45 17 16 46 18 16 46 18 16 46 18 16 46 18 13 46 19 15 44 16 15 44 14 10 34 8 5 18 1 4 17 0 2 16 0 4 18 1 2 16 0 3 17 0 0 17 1 3 17 0 3 17 0 3 17 0 1 18 0 1 18 0 2 19 1 1 18 0 1 18 0 3 20 2 2 19 1 4 21 2 4 21 2 9 26 8 12 27 6 15 28 11 17 30 12 16 27 10 15 26 12 14 25 11 16 18 15 16 18 15 20 20 20 20 20 20 22 22 22 23 25 24 22 24 23 23 23 23 24 24 24 25 25 25 28 28 28 
16 49 18 16 42 15 12 27 6 12 27 6 13 21 6 14 20 6 16 24 9 17 25 10 9 22 4 6 19 2 8 21 3 8 23 4 18 37 18 39 57 41 38 56 42 39 57 43 39 57 45 38 56 42 38 56 42 39 57 43 39 57 43 33 52 33 29 53 31 22 45 19 12 41 10 19 44 15 32 51 31 30 52 31 32 49 30 32 51 31 33 54 37 34 55 38 31 55 33 30 55 33 25 54 26 21 54 23 19 54 22 20 54 21 17 52 20 17 47 19 16 46 18 19 54 21 20 55 22 17 51 18 18 49 17 17 52 22 19 54 21 23 54 22 19 53 20 19 52 21 22 53 22 20 53 22 21 55 22 18 53 20 16 46 20 16 46 18 16 44 19 15 45 17 16 46 18 15 45 17 15 45 17 15 45 17 11 35 11 3 17 2 4 19 0 3 17 0 4 18 1 4 18 1 3 17 0 3 17 0 3 17 0 2 16 0 3 17 0 3 17 0 1 18 2 0 19 0 1 18 2 0 17 0 3 17 0 0 17 0 6 21 2 7 22 3 10 25 6 11 26 5 16 31 10 17 30 10 17 30 10 14 27 9 14 25 9 14 16 13 14 16 11 19 19 19 19 19 19 22 22 22 23 23 23 23 23 23 23 23 23 22 22 22 23 23 23 23 23 23 
21 54 27 20 49 21 14 43 15 16 42 15 22 31 14 23 30 14 24 31 15 24 33 16 16 23 7 14 22 7 14 22 7 10 21 4 16 31 10 21 45 19 23 49 22 27 55 30 27 55 30 26 54 31 27 55 30 28 56 33 29 55 30 27 49 26 25 47 24 23 45 24 20 44 18 23 47 21 26 48 27 24 48 24 22 46 22 22 46 20 23 49 22 24 50 23 22 52 24 21 54 25 21 54 23 19 54 22 18 52 19 19 50 19 16 49 20 16 44 19 16 46 20 20 53 22 19 54 21 8 42 9 10 41 9 18 51 20 21 55 22 20 54 21 18 53 21 21 52 21 20 53 22 18 53 21 20 53 22 19 52 21 16 46 18 16 46 18 16 44 19 16 46 20 15 45 17 16 46 18 16 46 18 15 45 17 12 36 10 7 22 1 7 20 2 5 19 2 4 18 1 3 17 0 4 18 1 3 17 0 3 17 0 3 17 0 1 18 2 1 18 0 0 17 1 0 17 0 1 18 2 0 17 0 1 17 4 0 17 1 1 20 1 2 19 0 6 20 3 6 20 3 8 23 4 9 24 1 8 23 4 7 21 4 7 21 6 7 18 4 8 18 7 10 20 11 12 17 11 19 19 19 19 19 17 21 21 21 21 21 21 22 22 22 23 23 23 22 22 22 
26 54 31 24 54 30 19 52 21 20 51 20 28 37 20 29 38 19 31 35 18 27 34 18 22 26 11 18 22 7 17 21 7 14 23 6 15 29 6 10 40 6 13 42 11 18 53 21 20 54 21 19 54 22 21 55 22 20 55 23 21 54 23 21 47 20 22 46 22 24 46 25 26 48 27 25 47 26 23 47 23 22 46 22 16 45 15 16 45 15 16 50 15 15 49 14 19 53 20 20 53 22 21 54 23 19 54 22 17 52 20 16 49 18 16 49 20 15 45 17 16 46 18 19 54 22 19 54 21 5 36 4 7 36 5 17 51 18 20 55 23 19 54 22 21 52 21 21 51 23 19 52 21 20 54 19 20 54 21 19 52 21 15 45 17 16 46 18 15 45 17 16 46 18 15 45 17 15 45 17 15 45 17 15 45 19 12 36 12 8 23 2 7 22 1 5 18 0 5 18 0 1 18 0 3 17 0 1 18 0 3 17 2 2 16 0 0 17 1 0 16 3 0 17 0 2 16 1 0 17 0 0 17 1 1 18 0 1 18 2 2 19 1 1 18 0 3 17 2 3 17 0 4 18 1 3 17 0 3 17 0 4 17 0 1 18 0 3 17 0 4 18 1 6 18 4 7 17 6 15 17 14 16 18 15 19 19 17 20 20 20 23 23 23 23 23 23 23 23 23 
26 54 29 25 54 26 19 52 23 21 50 22 24 39 16 25 40 17 20 37 18 22 37 18 20 33 15 17 32 11 16 25 6 14 23 6 13 26 6 12 32 5 13 36 8 17 48 16 18 49 17 19 54 22 19 54 22 21 54 23 21 54 23 20 46 19 22 46 22 21 45 21 23 49 22 23 47 23 23 49 22 19 48 20 17 48 17 17 47 19 16 50 15 16 51 18 19 53 20 19 54 22 19 52 21 18 52 19 17 50 19 18 49 17 16 46 18 15 45 17 16 46 18 20 53 22 19 54 22 10 45 12 12 43 11 17 51 18 20 53 22 20 53 22 21 51 23 20 54 21 19 52 21 19 54 22 18 53 20 19 52 21 16 46 18 14 47 20 16 47 16 15 45 17 16 47 16 16 46 18 16 46 18 15 45 19 13 37 13 9 24 1 9 24 1 7 20 2 7 18 1 4 19 0 4 18 1 4 18 1 3 18 0 1 18 0 4 18 1 4 18 1 3 17 0 2 16 1 0 17 0 0 17 1 1 18 0 1 18 0 3 17 0 3 17 0 3 17 0 3 17 0 3 17 0 4 18 1 3 17 0 5 17 3 4 18 1 4 18 1 4 18 1 6 18 4 7 18 4 11 18 11 12 17 11 16 18 15 17 19 14 19 21 18 20 20 20 21 21 21 
26 52 25 25 51 26 21 50 22 22 48 21 11 40 10 10 44 11 13 41 16 12 40 15 14 44 16 14 44 16 14 32 6 12 26 3 11 23 1 12 19 1 11 23 1 12 39 8 14 41 10 19 54 21 19 54 21 19 54 21 21 54 23 23 48 19 20 46 19 17 46 18 16 45 15 19 48 18 19 53 20 19 53 20 19 54 21 22 56 23 20 54 21 18 53 21 20 54 21 18 53 21 18 48 20 16 46 18 16 46 18 14 44 16 14 44 16 16 46 20 17 46 18 21 54 23 20 55 23 19 54 21 19 54 21 21 54 23 19 52 21 20 53 22 19 52 21 19 54 22 20 54 21 19 54 21 19 54 21 19 52 21 17 45 20 14 47 18 15 45 19 15 45 19 16 46 20 16 46 20 15 45 19 16 46 18 14 39 10 13 29 2 13 25 1 11 20 3 11 20 1 5 18 0 8 19 2 5 18 0 5 18 1 5 18 1 6 19 2 4 18 1 4 18 1 3 17 0 2 19 1 1 18 0 1 18 0 1 18 0 0 19 0 1 18 0 2 19 1 1 18 0 1 18 0 2 19 1 4 18 1 4 19 0 4 18 1 5 18 1 4 19 0 4 19 0 2 19 0 5 18 1 5 18 1 9 20 6 13 19 9 15 17 12 18 18 18 19 19 19 
24 43 24 21 43 22 20 44 22 19 43 19 13 42 12 14 40 11 15 37 14 14 36 13 13 37 15 14 38 14 12 30 8 11 23 1 11 23 1 12 19 3 11 23 3 13 33 8 13 36 7 19 48 18 20 46 17 17 50 19 17 51 18 17 48 17 20 46 19 18 47 19 18 47 17 20 51 19 18 52 19 18 53 21 20 54 21 21 54 23 19 52 21 18 51 20 18 51 20 18 51 20 18 48 20 17 48 17 15 46 15 16 43 12 15 46 15 17 46 18 15 48 19 19 54 22 19 54 22 19 54 22 19 52 21 18 53 21 18 53 21 20 55 22 19 54 21 20 53 22 20 54 21 20 53 22 18 53 20 18 53 21 15 45 17 16 46 18 15 45 17 17 46 18 16 46 18 14 44 16 16 44 19 15 45 17 15 39 13 13 29 3 13 27 2 12 19 1 13 20 2 7 18 1 8 19 2 7 18 1 6 19 1 5 18 0 6 17 0 5 18 0 6 19 2 4 18 1 4 18 1 4 18 1 3 17 2 2 19 3 2 19 1 0 19 0 1 18 0 4 18 1 5 18 1 3 17 0 5 20 1 5 18 1 5 18 0 4 19 0 5 18 1 6 19 2 6 19 1 6 19 1 6 19 2 11 19 8 11 19 6 13 18 11 17 19 14 19 20 15 
14 17 8 17 20 11 17 28 14 17 28 14 15 39 17 14 38 14 17 21 6 17 21 6 12 15 4 9 15 5 12 21 4 12 24 4 12 24 4 12 21 2 13 20 2 13 20 4 14 21 3 16 25 8 17 24 6 14 40 11 13 43 15 17 48 17 17 50 21 18 52 19 20 55 22 19 52 21 18 51 20 19 52 21 19 52 21 18 51 20 17 47 19 17 47 19 15 45 19 16 44 19 15 45 17 14 44 16 15 44 16 15 44 16 15 46 15 18 48 20 18 49 18 20 51 20 18 51 20 18 52 19 18 52 19 19 52 21 19 53 20 19 52 21 20 54 21 19 54 21 18 53 21 18 53 21 19 54 22 18 51 20 17 47 19 14 47 18 15 45 19 15 45 17 15 45 17 14 47 18 15 45 17 15 45 17 14 38 12 11 29 3 12 27 4 15 20 0 14 22 1 13 20 2 12 20 0 10 19 2 10 19 2 7 18 1 6 17 0 5 18 1 6 19 1 6 19 1 6 19 1 7 18 2 4 17 0 5 18 1 4 17 0 4 18 1 4 18 1 5 18 1 5 18 0 6 19 1 7 18 1 7 18 1 6 19 1 8 19 2 9 20 3 10 19 2 10 19 2 11 19 4 10 18 3 11 19 4 11 19 6 13 20 4 14 21 5 15 21 9 
15 18 7 14 22 9 17 28 14 17 28 14 14 36 15 16 38 17 19 23 8 19 23 8 15 18 7 12 15 4 13 21 6 16 23 5 14 23 6 13 22 5 11 20 3 12 21 4 14 21 3 16 25 6 15 24 3 13 37 11 12 41 11 14 45 14 14 45 14 17 48 17 17 50 19 19 50 19 19 50 19 17 50 19 17 50 19 17 50 21 15 45 17 16 46 20 14 44 18 13 43 15 14 43 15 16 42 17 14 43 13 15 44 16 17 46 18 19 49 21 18 48 20 18 52 19 18 51 20 17 51 18 17 51 18 17 51 18 16 51 19 17 52 20 20 53 22 18 53 21 18 53 21 20 53 22 20 53 22 19 52 21 17 47 19 16 49 18 15 45 17 16 46 18 15 45 19 15 45 19 14 44 20 15 45 17 16 39 11 10 28 2 14 28 3 15 20 0 15 20 0 13 20 4 13 21 0 11 20 1 11 20 1 8 19 2 6 19 1 5 20 1 6 19 0 6 19 1 7 20 3 6 19 2 5 18 1 7 18 2 4 17 0 4 18 1 4 18 3 5 19 2 6 19 2 7 20 2 7 20 2 10 21 4 9 20 3 10 21 4 10 21 4 10 21 4 11 19 4 12 21 4 12 21 4 12 20 7 12 21 2 15 22 6 15 22 6 16 22 10 
22 30 7 21 29 6 21 25 8 18 27 6 13 30 11 10 31 12 26 31 8 28 33 11 24 32 8 22 30 7 22 24 11 18 21 10 15 21 9 14 21 5 12 20 5 11 20 1 11 20 3 8 19 2 7 18 1 6 19 2 9 18 1 8 21 3 8 23 4 7 24 5 6 30 4 9 33 7 9 38 10 10 39 11 12 41 13 11 41 13 13 39 12 12 41 13 8 34 7 6 32 5 10 29 7 13 28 7 15 39 13 18 51 20 18 51 20 21 54 23 23 53 25 20 53 22 20 55 22 16 50 17 16 49 18 11 42 8 11 41 5 11 41 5 9 40 6 15 46 12 17 51 18 17 52 20 18 53 21 17 52 20 17 50 19 17 51 18 16 46 18 16 46 18 16 46 20 15 45 17 15 45 19 15 45 17 14 37 11 11 25 0 13 25 1 15 20 0 16 21 1 13 20 2 12 19 1 10 19 0 11 20 1 11 20 1 8 19 2 7 18 1 6 19 1 6 19 1 8 19 3 8 19 2 12 21 4 11 20 3 10 19 2 11 20 3 7 18 2 4 19 0 13 22 5 11 24 6 20 29 12 30 34 19 30 34 17 25 32 16 25 29 14 15 24 7 15 22 6 18 25 7 18 25 7 25 29 14 25 32 16 25 29 14 23 27 12 27 31 16 
25 30 7 20 28 4 22 25 6 19 28 9 11 30 11 11 30 11 27 32 9 26 31 8 24 29 7 22 30 7 21 25 10 19 22 11 17 21 7 13 20 2 13 21 6 12 21 2 11 19 4 7 18 1 6 19 2 7 20 3 7 18 2 9 20 4 7 22 3 7 26 4 6 30 4 8 32 6 10 39 11 10 39 9 12 41 13 11 41 13 11 39 14 12 41 13 8 32 6 8 32 6 10 30 5 12 27 6 14 39 10 17 50 21 18 51 20 21 56 26 21 54 23 21 54 23 19 54 22 17 50 19 17 51 16 12 43 9 10 40 6 10 41 7 11 42 8 14 45 13 18 52 19 17 52 20 18 51 20 18 52 19 18 51 20 17 50 19 16 46 18 15 45 19 15 45 19 15 45 17 16 44 19 16 44 19 14 38 12 12 26 3 13 25 1 15 20 0 15 20 0 13 21 0 12 19 1 12 19 1 11 20 1 10 19 0 7 18 1 6 17 0 5 18 0 7 20 2 7 18 1 8 19 2 12 21 4 10 19 2 10 19 2 11 20 3 7 18 1 5 18 1 10 21 5 11 22 5 22 29 13 31 35 18 30 35 15 25 29 14 24 31 15 16 23 7 19 23 8 20 24 9 21 25 10 23 30 14 27 31 14 25 29 12 25 29 14 26 30 15 
24 27 8 21 29 8 23 28 8 19 27 6 14 20 6 16 20 6 21 29 5 23 28 6 20 28 7 22 27 7 14 18 4 12 13 5 12 15 4 16 20 6 19 22 11 29 33 18 27 33 19 25 32 16 25 32 16 24 33 16 23 32 15 21 30 13 19 31 11 13 26 6 7 21 4 5 22 4 3 20 2 5 19 2 2 19 1 2 19 3 2 19 3 1 19 3 6 20 3 7 22 3 14 27 9 19 31 11 19 39 14 21 47 20 26 50 28 37 55 41 38 54 41 38 56 42 40 56 43 25 53 28 25 53 28 17 54 21 18 53 20 12 43 9 6 36 2 8 38 4 7 37 1 8 38 4 8 40 3 8 40 3 17 48 16 17 48 16 14 44 18 15 45 17 15 45 17 15 45 19 15 45 19 16 46 20 15 38 12 13 23 0 13 22 1 12 20 0 13 21 0 13 20 2 13 20 2 13 20 2 10 22 0 11 20 1 7 20 2 7 18 1 6 19 1 7 18 1 8 19 2 5 18 0 7 18 1 8 19 2 6 19 1 6 19 1 10 21 4 10 21 4 22 29 13 29 33 18 30 32 18 30 34 17 30 34 19 27 34 18 29 33 18 30 34 19 30 34 19 32 34 20 33 35 21 31 33 19 31 33 19 32 34 20 31 33 19 31 33 19 
23 28 6 20 28 7 22 27 7 22 27 7 16 20 6 16 18 7 22 27 5 22 27 5 21 26 6 21 26 6 15 17 4 10 11 5 11 14 5 16 19 10 19 22 11 30 34 19 31 35 20 30 34 19 30 34 19 26 35 18 26 35 18 24 33 16 23 32 15 12 25 7 6 20 3 5 19 2 1 18 0 3 17 2 2 16 1 2 16 1 1 15 0 0 16 3 6 19 2 7 20 3 15 26 9 19 30 13 21 39 17 23 47 23 28 50 27 39 55 42 40 56 43 40 56 43 40 56 43 26 55 27 26 54 31 21 54 27 20 55 23 9 43 10 7 37 3 6 36 0 7 37 1 6 36 0 7 37 1 7 37 3 16 47 15 15 49 16 15 44 16 16 44 19 15 45 17 14 44 18 14 44 18 16 46 20 14 37 9 10 22 0 12 21 0 12 20 0 13 21 0 13 20 2 13 20 2 13 20 2 12 21 2 11 20 3 6 17 0 9 18 1 6 19 1 7 18 2 7 18 1 7 18 1 6 17 0 6 19 2 4 19 0 6 19 1 10 21 4 10 21 5 23 29 15 31 35 21 29 33 18 30 34 19 28 35 19 28 36 15 31 33 19 34 35 21 33 35 21 34 36 22 35 37 23 33 35 21 33 35 21 32 34 20 31 35 20 31 35 20 
19 24 4 20 25 5 17 25 4 18 25 7 19 27 6 22 27 7 22 27 7 21 29 6 21 26 6 18 26 5 19 27 6 20 28 7 21 26 6 18 22 7 16 20 5 12 18 8 15 17 6 16 24 9 15 23 8 21 27 13 26 30 16 15 23 8 12 23 7 9 22 4 4 18 1 3 17 0 3 17 0 3 17 0 1 18 0 0 17 0 3 17 2 3 17 2 10 18 5 12 18 6 12 18 6 12 18 6 13 21 6 13 24 8 24 32 19 39 46 39 38 48 39 40 56 43 40 56 45 37 55 39 38 56 40 24 54 26 18 53 20 17 51 18 16 50 17 17 51 18 14 48 15 13 47 12 13 44 12 15 46 14 16 49 18 16 47 16 15 46 15 16 45 17 15 45 19 15 45 21 13 46 17 13 43 15 14 34 9 11 18 0 12 19 1 12 19 1 12 19 1 12 19 1 11 18 0 11 18 0 11 18 0 9 18 1 10 19 2 8 19 2 7 18 1 6 19 2 5 18 0 7 18 1 5 18 0 5 18 0 7 18 1 7 18 1 7 18 1 6 19 1 11 22 5 10 23 5 16 25 8 17 26 9 14 25 8 16 23 7 18 22 8 18 22 7 16 23 7 19 26 10 19 26 10 24 28 13 23 29 15 20 27 11 14 23 6 15 24 7 
19 23 6 19 24 4 19 23 6 17 24 6 21 29 6 20 28 5 22 27 5 22 27 5 21 26 6 20 24 9 25 30 8 24 32 8 21 29 6 18 22 7 15 19 5 8 11 2 6 12 2 9 20 4 10 21 4 20 26 12 22 26 12 11 22 6 9 20 6 7 20 3 4 19 0 3 17 0 1 18 0 2 16 0 0 17 0 0 16 0 2 14 0 2 14 0 12 18 4 14 18 4 12 15 4 10 13 4 11 14 3 10 16 4 20 26 16 38 45 38 39 46 39 40 56 43 39 55 42 38 56 42 39 55 42 25 54 26 19 54 21 20 55 23 19 54 22 19 53 20 18 51 20 17 50 19 16 47 15 16 47 15 15 48 17 17 48 17 15 45 19 16 45 17 15 45 17 12 45 18 15 45 17 14 43 13 14 34 9 14 18 1 12 19 1 10 19 0 10 19 0 12 18 4 11 20 1 11 20 1 11 20 1 9 20 3 12 21 2 8 20 0 7 18 1 7 20 2 6 19 1 6 19 1 5 18 0 5 18 0 7 18 1 7 20 2 8 19 2 5 20 1 7 18 2 6 19 2 9 20 4 11 22 6 11 22 5 12 18 4 9 20 3 12 19 3 11 20 1 14 21 3 13 22 5 20 27 11 20 29 12 16 22 8 7 18 2 8 19 2 
19 27 6 20 24 7 18 25 7 20 24 7 17 19 6 16 18 4 17 21 6 18 20 6 18 25 7 19 27 6 25 28 7 23 31 8 23 32 5 23 28 6 20 24 7 16 20 5 16 20 6 13 19 5 12 18 4 20 24 10 21 25 11 13 19 7 11 17 5 9 17 4 3 15 1 5 16 2 3 17 2 3 17 0 2 16 1 0 17 1 8 16 1 6 17 3 15 21 7 18 22 8 14 18 4 12 15 4 10 16 4 12 16 2 19 25 15 32 37 31 34 39 33 46 56 48 46 56 48 38 54 43 39 55 42 25 53 28 20 53 22 21 54 23 20 55 23 19 54 21 20 54 21 19 53 20 16 51 19 16 49 18 16 50 17 16 50 17 16 46 18 15 46 15 14 44 16 15 45 17 13 43 15 15 41 12 13 33 6 14 18 1 11 18 0 12 21 2 12 19 1 10 19 2 10 19 0 12 21 2 11 20 1 10 17 0 14 18 3 10 18 3 7 18 1 7 18 1 5 18 0 6 19 1 7 18 2 6 17 1 8 19 2 8 19 2 7 18 1 7 18 1 6 17 0 9 18 1 7 18 1 9 20 3 9 20 3 10 19 2 11 20 1 10 19 2 11 20 3 10 22 2 10 21 4 15 24 5 16 25 8 12 21 4 10 18 3 9 18 1 
22 27 5 22 27 5 18 26 3 21 25 8 11 12 4 10 11 5 12 14 3 14 15 7 21 26 6 22 27 7 20 28 5 22 30 7 25 30 8 26 31 8 26 31 8 23 28 8 22 26 9 16 18 5 16 18 5 17 21 6 18 22 7 14 18 4 12 15 4 9 12 3 8 11 2 6 12 0 3 17 2 3 17 2 2 16 3 2 16 1 12 15 4 12 16 2 19 27 6 19 27 4 15 22 4 15 19 5 14 18 4 15 17 4 20 21 13 28 30 27 30 32 29 55 57 54 53 55 54 37 55 41 38 54 41 26 54 29 23 53 25 21 54 23 20 55 22 19 54 21 19 52 21 19 54 22 19 52 21 20 53 22 16 51 19 21 50 20 16 46 18 15 43 18 15 43 18 15 44 16 13 42 12 12 35 7 12 32 5 12 19 1 10 19 0 12 19 1 11 20 1 7 18 1 11 20 3 10 19 0 13 21 0 12 19 3 12 19 1 8 19 2 9 18 1 6 19 1 6 19 1 6 17 0 6 19 1 7 19 0 7 18 1 7 18 1 6 19 1 6 19 1 6 19 1 6 19 1 6 17 0 6 17 0 8 19 2 5 18 0 7 18 1 7 18 1 7 18 1 8 19 2 8 19 2 8 19 2 10 19 2 11 20 3 8 19 2 8 19 2 
22 27 7 20 25 5 19 23 8 18 22 5 17 19 6 15 19 5 15 19 4 16 20 5 18 20 6 18 22 7 20 24 7 23 28 6 24 29 9 24 33 6 23 31 7 21 29 6 23 28 6 19 23 6 20 25 5 20 24 7 21 26 6 18 20 6 16 20 3 15 17 4 11 14 5 9 15 3 5 15 4 6 17 1 9 20 3 9 20 3 19 23 6 18 22 5 19 23 6 20 25 5 17 21 6 15 19 4 13 17 3 12 15 6 18 21 14 23 28 24 27 32 26 48 55 48 48 54 50 37 55 41 38 56 42 26 55 27 23 53 25 21 54 23 18 53 21 19 54 22 19 54 21 18 53 20 20 55 23 19 52 21 17 50 19 18 51 20 16 46 18 15 45 19 15 45 19 15 45 19 14 38 12 12 32 5 12 28 2 15 19 2 13 20 2 12 19 1 13 20 2 8 19 2 8 20 0 10 19 0 10 19 0 10 19 0 10 19 0 9 18 1 7 18 1 6 19 1 7 18 1 8 19 2 7 20 2 5 18 0 7 18 1 7 18 1 5 18 0 5 18 0 6 19 1 7 18 1 7 18 1 9 18 1 6 19 1 6 17 0 7 18 2 8 19 3 7 20 2 8 19 2 10 19 2 8 19 2 8 19 3 10 19 0 11 20 1 10 19 0 
18 26 5 17 21 6 13 14 6 14 18 4 23 31 7 25 34 7 21 29 8 21 29 8 16 18 5 11 14 3 16 20 5 19 23 6 19 27 6 24 32 8 23 31 8 24 29 6 22 30 7 26 35 8 25 34 7 24 32 8 23 31 7 23 31 7 25 30 7 21 26 6 16 20 5 15 18 7 10 11 5 12 15 4 22 27 7 22 27 7 27 32 9 27 32 9 18 22 5 17 21 4 16 20 5 15 19 4 13 15 4 10 11 5 14 17 10 21 26 19 22 32 23 33 49 36 34 50 37 36 54 38 36 54 38 21 54 23 18 53 20 19 54 22 19 54 21 19 52 21 19 54 22 20 53 22 20 53 22 17 52 20 16 49 18 19 50 19 15 45 17 15 45 19 15 45 19 16 46 18 14 34 9 14 24 0 15 23 0 16 21 0 16 19 0 13 21 0 13 21 0 10 19 0 10 19 0 9 18 1 7 18 1 6 19 1 6 17 0 6 17 0 6 19 1 6 19 1 6 17 0 7 18 1 7 18 1 6 19 1 5 18 0 6 19 1 6 17 0 5 18 0 7 20 2 8 19 2 7 18 1 7 18 1 7 18 1 8 19 2 6 19 1 6 19 1 6 17 0 8 20 0 10 19 2 11 20 1 10 19 0 12 19 1 13 20 2 15 19 2 
20 28 7 18 22 7 13 15 4 15 17 6 22 30 6 22 30 7 23 28 6 22 27 7 15 19 4 13 15 2 16 20 5 17 21 6 20 24 7 20 24 7 21 26 6 21 26 6 23 26 7 24 29 9 25 28 9 22 30 7 21 29 6 24 29 7 23 28 6 22 27 7 19 23 8 16 20 6 14 16 5 14 18 4 19 27 6 21 25 8 23 31 8 23 31 7 15 22 6 15 19 4 17 21 6 14 18 4 12 14 3 10 11 5 14 17 8 21 26 19 22 29 21 30 42 30 31 41 30 32 54 33 32 54 33 21 54 25 19 52 21 19 52 21 19 54 22 19 52 21 19 53 20 20 54 21 19 53 20 19 54 22 16 49 20 19 49 21 15 45 17 15 45 17 15 45 19 15 44 16 14 34 9 13 22 1 14 22 1 16 19 2 13 20 2 13 21 0 12 20 0 10 19 2 10 19 0 6 17 0 6 19 1 8 19 2 8 19 2 5 18 1 7 18 2 6 19 2 5 18 0 6 17 0 6 19 1 6 19 2 4 17 0 6 17 0 6 19 1 7 18 1 4 17 0 7 18 1 8 19 2 8 19 2 6 19 1 7 18 1 6 19 1 7 18 1 6 17 0 6 19 1 8 19 2 10 19 0 11 20 1 11 18 0 13 20 2 15 19 2 
22 30 7 19 23 6 11 12 4 13 15 4 21 26 6 18 26 5 23 31 7 25 30 8 16 20 5 14 16 5 14 16 3 15 19 5 15 17 6 10 11 5 12 14 3 17 21 6 16 20 5 14 16 3 15 19 5 14 17 6 14 17 6 18 20 6 18 23 3 18 26 5 22 27 7 20 28 7 20 28 7 22 27 7 19 27 4 18 25 7 13 19 5 15 19 5 14 21 5 17 21 4 13 17 3 12 16 2 10 11 3 9 10 4 12 15 6 16 22 10 16 22 10 12 18 6 14 17 8 16 49 18 19 50 19 18 51 20 19 52 21 21 52 21 21 51 23 19 54 22 17 54 20 21 52 21 17 50 21 19 49 21 15 45 19 15 45 17 15 45 17 15 43 18 15 44 16 13 43 15 11 31 6 12 19 1 15 19 2 15 20 0 16 21 1 10 19 2 10 19 0 10 19 0 10 19 2 7 18 1 7 18 1 9 17 2 9 15 1 6 17 0 5 18 0 3 17 0 4 18 1 5 18 1 7 18 1 6 17 0 7 18 1 7 18 1 6 19 1 5 18 0 6 19 1 5 18 1 5 18 1 6 17 1 5 18 0 6 17 0 6 17 1 7 18 1 7 18 1 5 18 0 6 19 1 8 21 1 12 19 1 13 20 2 12 19 1 13 21 0 
24 29 6 18 25 7 10 11 3 14 14 4 20 24 7 20 25 5 23 31 7 22 30 7 16 20 5 13 16 5 14 18 4 16 18 5 13 16 5 11 12 4 13 14 6 18 20 6 16 20 6 15 17 4 16 18 5 14 17 6 15 17 6 17 21 6 19 24 4 20 25 5 20 28 7 20 28 7 19 27 4 22 27 7 18 26 5 21 25 8 15 19 5 14 18 3 16 20 5 17 21 6 13 17 3 12 15 4 11 13 2 10 9 4 13 14 6 17 20 9 17 20 11 12 18 8 13 19 7 16 49 20 18 49 18 18 51 20 19 53 20 18 51 20 19 52 23 19 52 21 19 54 21 19 52 21 19 50 19 16 49 18 16 44 19 16 45 17 14 44 16 15 45 19 14 45 14 14 43 15 12 31 9 12 19 1 13 20 2 15 20 0 15 20 0 9 18 1 10 19 2 10 19 0 8 20 0 7 18 1 8 19 2 9 17 2 9 17 2 6 17 0 5 18 0 5 18 0 5 18 1 5 18 1 7 18 1 6 17 0 6 19 1 5 18 0 5 18 0 5 18 0 6 21 2 5 18 0 4 18 1 6 19 2 5 18 1 5 19 2 6 19 2 7 20 2 6 19 1 7 18 1 6 17 0 11 18 0 12 19 1 12 19 1 13 20 2 13 20 2 
19 23 8 14 21 5 16 20 5 16 20 5 15 17 6 15 17 4 22 27 7 19 27 4 18 26 5 18 22 5 14 18 4 13 15 2 15 17 4 14 18 3 15 19 5 12 15 4 13 15 2 14 16 5 14 16 5 20 25 3 19 27 3 14 16 5 12 14 3 15 19 5 19 23 6 18 22 7 17 21 6 16 20 3 15 23 2 16 20 3 16 20 5 15 19 5 14 14 2 11 13 2 13 14 6 12 15 6 14 17 8 17 20 9 17 20 9 16 22 10 19 23 9 14 20 8 14 20 8 14 20 8 14 20 8 15 21 9 16 22 10 13 19 7 12 18 6 16 30 13 19 52 21 19 53 20 19 52 21 18 51 20 15 45 17 15 45 17 15 44 16 15 43 18 13 43 15 13 44 12 12 32 7 14 18 1 15 19 2 15 20 0 16 21 1 15 19 2 15 20 0 12 19 1 11 18 0 12 19 1 11 18 0 15 19 5 15 21 9 14 20 6 12 18 6 11 19 6 10 16 4 10 18 5 4 18 1 5 18 1 5 18 0 7 18 1 8 20 0 10 19 0 10 19 0 10 19 0 10 19 2 8 19 2 7 18 1 6 17 1 6 19 2 6 19 1 6 19 1 8 20 0 10 18 3 10 19 0 10 19 0 12 19 1 14 18 1 13 20 2 
20 23 6 18 22 5 16 20 5 14 21 5 15 17 4 14 17 6 21 26 4 19 27 6 17 24 6 18 23 3 14 18 3 13 16 5 13 17 3 16 20 6 15 19 4 13 15 4 12 15 4 14 16 3 12 16 2 20 25 5 20 25 5 14 18 4 12 14 3 15 19 5 16 23 5 17 21 4 17 21 6 14 21 5 17 21 4 15 23 2 13 20 4 15 19 4 12 15 4 12 14 3 12 13 5 13 14 6 16 17 9 17 20 9 18 21 10 16 22 10 18 21 10 14 20 8 14 20 8 14 20 8 16 19 8 17 20 9 15 21 7 14 20 8 13 19 7 13 32 12 19 52 21 20 51 20 20 51 20 17 50 21 15 45 17 15 45 19 15 45 19 15 45 19 13 42 12 13 42 12 13 31 7 14 18 1 13 20 2 15 20 0 14 22 1 16 20 3 16 21 1 11 18 0 13 20 2 11 19 0 12 19 3 16 20 6 17 21 7 14 20 6 13 19 5 11 17 5 9 17 4 6 17 3 5 18 1 4 19 0 5 18 0 7 18 1 8 19 2 9 18 1 8 20 0 9 18 1 10 19 0 10 19 0 8 19 2 7 18 1 7 18 4 7 18 1 9 18 1 10 19 2 10 19 0 11 20 1 11 20 3 9 21 1 13 20 2 13 21 0 
20 25 5 18 22 5 17 21 4 18 22 5 18 25 7 18 26 5 15 19 4 16 18 5 14 21 5 16 20 3 16 20 5 16 20 5 16 20 5 15 19 5 15 19 4 15 19 4 13 20 4 16 18 4 15 19 4 16 20 5 17 19 5 14 18 4 13 15 4 13 20 2 16 20 3 14 21 5 15 19 4 15 22 6 15 19 5 15 19 4 14 18 4 13 17 3 10 11 5 9 10 4 13 16 7 14 17 6 19 23 9 22 29 13 20 26 12 15 21 9 17 20 9 16 22 10 17 20 9 19 23 9 17 23 9 23 30 14 25 32 16 16 22 8 14 17 8 14 29 10 17 47 19 19 48 18 19 52 21 18 53 21 14 44 18 15 43 18 15 45 17 14 44 18 14 44 16 14 44 16 14 32 8 15 20 0 14 21 3 13 20 2 15 20 0 13 21 0 15 20 0 12 19 1 12 19 1 11 18 0 10 19 0 12 18 4 13 16 5 16 19 8 16 19 8 16 19 8 12 18 6 11 19 6 7 18 2 6 17 1 8 16 1 6 17 1 6 17 0 9 18 1 9 18 1 8 19 2 6 19 1 6 17 0 8 19 2 7 18 1 8 19 2 9 18 1 6 17 1 7 18 1 7 18 1 11 20 1 11 18 0 12 19 1 13 21 0 12 19 1 
19 23 6 20 24 7 17 21 6 16 23 5 18 26 5 19 27 6 13 17 3 14 16 3 15 19 4 16 20 3 17 21 6 14 21 3 16 20 5 13 17 3 15 19 4 13 20 4 16 20 5 16 20 5 15 19 4 15 19 5 16 20 6 15 17 3 12 15 4 13 16 7 15 19 4 14 18 3 15 19 4 16 20 5 13 17 3 13 17 3 13 17 3 13 17 2 13 10 5 10 9 5 13 16 7 16 19 8 18 24 10 23 30 14 20 27 11 18 21 10 16 19 8 15 21 7 19 23 9 20 24 10 19 25 11 24 31 13 26 33 15 16 22 8 14 17 8 13 27 10 17 48 17 19 48 18 19 52 21 16 51 19 14 44 18 16 44 19 15 46 15 16 46 18 15 44 16 16 45 17 13 31 7 11 20 1 13 20 2 15 19 2 12 19 1 12 19 1 13 21 0 12 19 1 12 19 1 11 18 0 12 19 3 11 18 2 11 17 5 14 20 8 17 20 9 16 19 8 11 19 6 12 18 6 10 16 2 10 16 2 7 18 1 6 17 0 7 18 1 7 18 1 9 18 1 7 20 0 9 18 1 8 19 2 9 18 1 6 17 0 7 20 2 7 20 2 6 19 1 5 18 1 7 18 1 7 19 0 12 21 2 12 20 0 12 19 1 13 20 2 
18 22 7 17 21 4 15 22 4 15 22 4 19 24 4 19 24 4 15 19 4 14 18 3 16 20 5 17 21 4 16 20 5 14 18 3 15 19 4 12 16 2 13 17 3 11 17 3 13 17 3 14 18 3 15 19 4 15 19 5 16 20 5 14 18 3 15 17 4 14 18 3 14 18 3 14 18 3 15 17 4 14 17 6 15 19 5 15 19 4 13 17 3 14 18 4 15 16 8 16 17 9 18 22 8 19 25 11 20 26 12 21 28 12 21 27 13 19 25 11 21 25 11 20 27 11 21 27 13 15 21 9 18 21 10 20 24 9 19 26 10 16 19 8 13 16 5 14 28 11 16 47 16 16 46 18 18 53 21 17 52 20 16 45 17 15 45 17 15 45 19 14 44 18 15 45 19 16 44 19 13 36 10 11 27 1 11 25 2 12 19 1 14 18 1 10 19 0 13 17 0 10 19 2 11 18 0 7 18 1 8 19 2 8 19 2 9 17 4 13 19 7 15 21 9 17 20 9 16 22 8 16 22 8 15 21 7 15 21 7 14 22 7 13 19 5 12 20 5 14 20 6 14 20 6 13 19 5 11 17 3 10 16 2 10 16 2 10 19 2 9 18 1 9 21 1 10 19 0 10 19 0 10 19 0 10 19 0 12 19 1 13 20 2 13 20 2 13 21 0 
17 21 4 15 19 4 13 20 4 16 20 5 19 24 4 20 23 6 15 19 4 15 19 4 17 21 6 16 20 5 16 20 5 13 19 5 14 18 4 13 17 3 13 15 4 12 13 5 12 15 4 13 17 3 13 17 3 15 19 4 15 19 4 14 18 3 13 17 2 14 18 4 15 17 3 13 17 3 10 18 3 12 19 3 15 19 4 13 20 4 14 18 4 11 17 5 15 21 9 18 22 8 19 26 10 20 29 12 22 29 13 21 28 12 21 28 12 22 29 13 21 28 12 23 30 12 23 30 14 14 20 8 16 19 8 17 20 9 15 21 9 14 17 8 13 16 7 12 26 9 14 45 14 14 47 16 18 53 21 17 52 20 15 45 17 14 44 16 15 45 19 15 45 17 15 45 19 15 45 19 13 38 9 11 31 4 11 26 3 12 19 1 11 18 0 10 19 0 11 18 0 11 18 0 11 18 0 7 18 1 7 18 1 8 19 2 9 18 1 12 18 4 15 21 9 17 20 9 20 24 10 18 24 10 20 24 9 20 24 10 18 21 10 17 20 9 15 21 9 17 20 9 15 21 9 14 20 8 11 17 5 10 16 2 10 16 2 9 17 2 8 16 1 8 20 0 10 19 0 11 20 1 10 19 0 11 20 1 12 19 1 13 20 2 12 19 1 13 20 2 
16 20 5 15 19 4 15 19 4 15 19 4 16 20 5 16 20 5 16 20 5 15 19 5 14 18 4 14 17 6 15 19 4 15 19 4 13 17 3 12 14 3 11 13 2 11 13 2 11 13 2 13 15 4 12 15 4 13 17 3 14 18 4 13 17 3 14 18 4 14 18 3 14 18 3 15 19 5 13 19 5 12 18 4 13 16 5 14 16 3 12 15 4 11 17 7 19 22 11 17 23 9 19 25 11 21 30 13 21 27 13 20 26 12 20 26 12 20 24 10 19 25 11 23 30 14 25 29 14 20 24 9 19 26 10 20 26 12 20 26 12 18 22 8 13 14 6 13 26 9 14 43 15 17 46 18 26 52 27 25 51 26 17 47 21 17 46 18 14 44 16 12 43 12 15 45 17 16 44 19 13 41 16 11 37 10 12 32 7 12 21 2 11 20 1 10 22 0 11 23 3 8 19 2 8 20 0 7 18 1 7 18 1 8 16 1 9 17 2 13 19 5 18 22 8 18 22 8 19 26 10 20 26 12 25 27 13 24 28 13 19 26 10 22 26 12 19 25 11 18 24 10 16 22 8 14 20 8 14 17 6 10 16 4 12 15 4 10 16 4 10 16 2 10 19 0 12 21 2 10 19 0 10 19 0 11 20 1 10 19 0 11 20 1 11 20 1 13 20 2 
