P3
100 50
255
0 24 48 0 26 51 0 27 54 1 29 51 0 27 54 0 28 52 0 27 54 1 28 55 1 27 54 1 27 52 1 23 46 4 22 46 0 21 42 1 19 43 1 17 40 0 15 36 1 16 39 1 16 37 0 16 36 0 15 36 0 15 36 2 22 47 2 24 48 3 27 53 3 29 54 1 25 51 1 23 46 2 24 48 1 23 46 1 22 43 0 18 38 1 19 41 1 16 37 1 16 37 0 15 36 1 16 37 12 21 36 18 24 38 19 32 38 18 54 40 13 56 39 11 63 41 13 62 40 13 66 40 13 66 40 13 69 40 14 69 40 13 70 38 12 68 39 13 68 39 12 67 38 10 63 37 8 56 30 9 55 29 7 53 27 7 52 29 12 66 34 12 66 34 11 61 32 11 61 32 14 68 36 14 69 37 17 73 38 16 71 39 20 71 40 22 71 41 22 71 39 22 71 41 21 70 40 16 69 39 17 66 34 21 67 38 22 69 37 21 49 27 23 37 22 35 43 32 58 54 45 59 54 48 62 53 46 60 51 44 48 41 33 47 40 32 48 44 32 48 45 30 50 51 37 55 51 39 58 54 42 60 58 43 59 57 42 60 57 42 59 56 41 53 50 35 51 49 36 59 57 44 59 57 44 57 55 42 56 54 41 54 52 39 52 50 37 51 51 41 
1 25 49 0 26 51 0 30 56 2 28 55 0 29 55 2 28 55 0 27 54 1 28 55 0 27 56 1 28 55 1 23 46 1 21 45 1 22 43 2 20 44 0 18 40 2 14 36 0 16 36 1 16 39 1 16 37 0 15 36 0 16 36 2 22 47 2 24 48 3 27 53 4 30 57 2 26 50 1 21 45 2 22 46 0 22 45 2 20 44 0 18 40 0 18 40 0 15 36 0 15 36 1 16 37 0 15 36 15 21 35 20 24 33 18 37 35 19 58 39 17 60 40 10 66 41 11 67 42 13 67 41 13 68 39 13 67 43 10 69 39 13 67 41 13 67 41 11 67 40 12 66 40 10 63 35 6 54 28 7 52 29 6 48 24 5 47 25 12 63 32 12 66 34 11 61 32 10 60 31 13 68 37 15 71 36 16 71 39 18 72 38 20 71 40 22 71 39 24 70 41 23 69 40 24 70 42 20 69 40 19 70 39 23 69 40 25 68 40 20 49 29 18 36 22 33 43 32 58 53 47 60 55 49 64 57 49 65 56 49 47 39 36 47 40 34 47 43 32 48 44 32 50 51 37 53 51 38 56 54 39 58 56 41 60 57 42 60 57 40 56 55 37 49 46 31 50 48 33 55 56 40 57 55 42 55 53 41 55 53 40 52 50 37 50 48 36 50 50 38 
1 23 47 0 24 48 1 22 49 0 24 48 0 27 54 1 28 55 0 26 51 1 25 51 2 28 53 1 28 55 1 27 52 1 27 52 1 23 47 1 21 46 0 20 44 0 20 44 2 20 44 0 18 40 0 18 42 0 14 35 1 13 35 0 16 39 2 19 39 0 18 40 2 18 41 1 17 40 2 17 38 1 17 40 1 19 41 1 19 41 1 25 51 1 25 51 16 25 40 14 23 38 13 42 40 13 48 41 13 54 40 12 56 41 12 61 40 11 65 42 11 67 42 11 67 42 10 65 42 13 69 44 14 68 42 13 69 44 12 68 43 14 68 42 15 70 41 15 70 41 15 68 40 13 68 39 11 66 37 11 66 37 11 64 38 11 66 37 7 55 31 7 55 29 10 60 33 9 59 32 13 66 36 15 70 39 17 71 39 20 71 40 20 71 40 17 70 40 17 70 40 16 71 40 16 70 38 19 70 39 17 71 37 18 69 38 17 71 39 33 54 37 45 48 41 53 53 45 67 62 56 67 62 56 71 64 56 68 59 52 46 41 35 44 41 34 36 33 24 34 31 22 34 31 22 34 31 22 39 37 25 42 40 28 45 43 30 49 45 33 47 43 31 42 40 28 39 39 27 48 46 34 45 45 33 49 47 35 46 46 34 45 45 33 45 45 35 40 40 32 
0 22 45 1 21 46 2 22 47 0 22 46 0 27 54 0 27 54 0 24 48 1 27 52 1 29 53 1 28 57 1 26 56 0 28 52 1 25 49 0 20 44 0 20 44 3 23 47 0 20 44 2 18 43 2 20 42 0 15 34 2 14 36 0 15 36 0 15 36 0 15 36 1 13 35 2 14 36 0 15 34 1 18 38 1 16 37 1 17 40 1 27 54 1 29 53 19 29 39 20 30 40 19 50 42 17 58 42 11 64 44 9 67 43 9 67 43 9 67 43 9 67 43 9 67 42 9 67 43 14 68 44 14 68 42 12 68 43 12 67 44 13 69 42 15 69 43 17 70 42 15 70 41 15 70 41 11 70 40 11 70 40 13 72 42 12 71 39 4 52 28 5 53 29 9 59 32 10 60 35 13 66 36 14 69 38 17 71 39 19 70 39 17 71 39 15 70 38 15 70 39 14 69 37 14 71 38 17 71 39 17 70 40 15 69 37 15 69 37 39 57 41 51 51 43 59 56 51 70 66 57 71 64 56 73 64 55 68 61 53 44 41 34 45 40 34 32 29 20 27 27 17 30 27 18 29 26 17 34 32 20 37 35 23 41 39 26 46 43 28 46 43 28 37 37 25 37 37 27 44 42 30 44 40 29 44 44 34 46 46 36 45 45 35 44 44 34 38 38 30 
0 20 44 2 22 46 0 22 45 0 22 46 1 27 52 1 27 54 1 25 51 0 25 50 1 27 52 0 27 54 0 25 50 0 24 50 1 25 51 3 25 48 3 24 51 0 24 48 2 24 48 1 23 46 1 23 47 1 16 37 1 16 39 0 15 34 0 15 34 1 13 35 2 14 36 2 14 38 2 14 38 2 17 38 10 23 39 9 25 38 11 41 49 7 42 48 14 46 43 13 48 44 12 59 43 13 61 45 10 65 42 8 65 48 8 66 44 9 67 45 8 66 44 9 67 43 11 66 43 10 68 46 9 66 47 10 65 46 8 62 46 8 59 42 9 58 39 9 58 37 8 57 36 12 61 39 12 66 40 13 69 42 13 69 42 13 69 40 9 62 36 10 60 35 10 65 36 10 64 38 10 66 37 14 69 40 15 70 39 16 69 39 15 70 39 14 69 38 14 71 39 12 69 37 12 69 37 14 67 39 13 67 35 14 67 37 14 67 39 42 60 46 57 57 49 61 58 49 68 63 57 69 62 56 66 59 51 61 54 46 27 28 23 28 27 23 30 27 20 28 28 20 36 34 22 38 34 23 43 39 27 49 45 33 52 46 34 49 46 31 47 43 31 37 37 25 39 36 29 37 37 29 37 37 27 41 38 29 43 41 29 40 40 28 42 40 28 39 39 27 
1 21 45 1 21 45 0 20 44 1 23 46 0 26 53 0 26 53 0 26 51 0 24 50 1 27 52 0 27 54 2 24 48 0 21 42 1 25 49 3 30 57 2 28 55 1 28 55 1 27 52 0 24 50 0 26 49 0 18 40 2 20 42 0 15 34 1 14 33 2 15 34 2 15 34 2 14 36 0 15 36 6 19 38 19 27 40 18 32 41 15 57 45 16 57 43 8 67 47 8 65 46 8 65 46 8 65 50 10 64 48 8 65 46 8 65 46 7 66 46 8 65 46 11 66 47 8 65 46 7 65 51 7 63 50 5 58 48 5 57 45 3 50 40 3 45 35 3 46 36 4 46 34 5 54 35 10 68 44 12 68 43 12 68 41 11 70 42 12 68 41 13 69 44 10 68 43 10 69 41 10 69 41 13 69 42 13 69 42 12 68 41 12 68 39 11 68 36 13 70 38 11 67 38 12 68 39 10 64 38 10 64 38 12 61 39 12 60 38 43 61 49 64 61 54 64 61 54 64 59 53 65 58 52 57 54 49 51 48 43 9 14 10 8 14 12 26 27 19 29 29 21 44 40 29 48 44 32 54 48 34 61 56 37 60 54 38 53 50 33 51 45 31 38 34 23 36 36 26 34 34 24 33 33 23 37 33 22 38 34 23 40 36 25 40 36 25 42 40 28 
1 19 39 1 19 43 0 20 44 2 22 46 1 25 51 1 25 51 2 24 48 0 24 48 2 28 53 1 29 53 5 29 55 9 29 54 4 28 52 4 30 57 3 29 54 1 27 52 1 27 54 2 23 50 2 24 48 20 23 38 17 23 39 16 19 34 17 20 35 13 21 34 13 20 36 9 25 40 5 32 41 8 32 42 15 40 47 12 41 45 11 51 42 12 49 41 7 61 45 7 59 46 7 64 47 7 64 47 8 65 50 8 65 46 8 65 48 6 64 50 8 65 50 8 65 48 8 65 50 7 65 51 7 66 48 7 61 48 7 59 47 2 49 41 1 46 39 1 44 37 2 43 35 5 51 38 10 65 42 11 65 42 7 58 41 8 59 40 10 65 42 10 65 42 9 67 42 9 67 43 9 67 42 10 69 41 10 68 43 12 68 43 10 68 43 9 67 42 11 66 43 9 67 45 10 68 44 9 64 45 7 65 43 9 62 42 9 60 43 28 60 47 40 60 51 46 58 54 58 61 54 51 56 49 35 44 39 33 44 38 6 22 21 4 22 22 17 29 25 19 29 28 27 34 27 30 37 30 35 38 27 38 40 29 37 38 30 35 37 26 33 35 24 26 27 19 25 26 20 24 25 17 23 24 18 24 25 19 25 26 18 26 29 20 27 28 22 27 32 25 
0 15 36 1 16 39 2 18 41 1 19 43 3 21 45 0 22 45 0 22 45 1 21 45 5 27 51 8 28 55 13 34 63 15 39 67 12 33 60 8 29 56 8 29 56 3 27 53 2 26 52 1 21 45 3 21 43 49 30 32 50 29 34 43 30 37 43 30 37 35 30 37 30 28 39 22 43 44 14 57 48 11 58 48 6 61 55 5 58 52 2 36 38 3 34 39 4 49 42 4 49 42 7 61 48 10 64 50 8 64 51 7 65 53 6 64 52 5 60 54 6 62 53 7 65 53 6 63 56 7 65 51 7 65 50 6 64 50 5 61 48 4 53 47 3 48 45 3 45 43 2 43 39 4 50 40 7 61 45 7 60 44 3 49 39 7 50 41 5 58 50 4 57 49 6 64 49 7 66 48 8 65 48 7 64 45 7 64 45 7 64 45 8 65 46 7 64 49 6 64 50 7 63 50 6 64 52 5 63 51 5 63 51 3 59 50 3 59 50 4 57 47 3 56 46 18 58 49 45 65 53 34 55 46 1 32 27 2 31 29 1 36 38 1 37 37 1 35 36 1 35 36 0 29 27 0 26 25 1 21 20 1 15 18 1 15 16 3 15 15 2 14 10 7 13 11 6 15 12 5 14 13 5 14 11 4 13 10 3 12 9 4 14 13 6 17 13 6 21 18 
2 14 36 1 16 39 2 18 41 1 19 41 2 22 46 0 22 46 0 22 45 1 21 45 5 27 51 6 27 54 12 36 64 14 38 66 11 35 61 8 32 58 8 30 54 5 29 55 6 28 52 3 24 45 2 23 44 53 32 31 56 31 34 47 32 35 48 32 35 41 30 36 40 30 38 26 42 41 14 55 47 13 58 51 6 61 56 3 58 53 1 36 38 0 35 37 4 46 42 4 47 40 6 56 45 7 61 48 7 60 50 5 61 52 6 59 51 5 56 51 4 57 49 6 59 51 6 59 53 7 60 50 5 61 50 6 59 49 4 60 51 4 53 47 3 49 46 2 47 44 2 44 42 4 49 44 8 62 48 7 60 44 4 49 42 5 51 41 5 58 48 6 59 49 7 64 49 7 65 50 7 66 48 9 63 47 6 65 47 8 65 48 8 65 50 6 64 52 6 62 51 5 63 51 6 64 52 4 61 52 5 63 51 4 60 51 3 59 50 4 57 47 4 57 47 17 58 50 40 61 52 30 55 49 2 33 28 1 33 30 2 36 37 1 37 35 1 35 36 0 34 35 0 28 29 0 27 28 0 25 22 1 17 17 1 17 17 2 16 16 3 17 17 6 18 18 7 19 17 5 17 13 5 15 14 5 20 17 8 20 18 6 22 19 8 24 23 8 28 26 
0 15 34 1 16 37 1 16 37 2 17 40 1 21 45 0 21 48 0 20 44 1 21 45 2 24 48 3 25 49 11 35 61 14 38 66 15 41 66 21 41 68 21 41 68 25 40 69 23 37 63 22 33 51 22 33 51 85 36 22 85 36 22 84 34 23 83 36 20 87 35 22 89 35 23 60 40 29 31 43 41 23 48 44 7 61 61 4 58 58 3 41 44 4 39 43 1 28 35 0 27 34 1 25 35 1 26 33 2 31 35 2 33 36 1 30 36 1 26 33 1 26 31 0 25 32 0 26 33 1 28 35 3 28 35 1 32 37 2 33 38 4 50 47 4 54 51 5 60 55 5 64 58 4 64 56 5 65 57 4 64 54 5 62 55 5 62 55 5 64 58 4 64 56 5 62 56 4 64 56 6 63 57 3 62 58 5 61 58 3 62 56 4 63 59 4 63 59 6 62 59 4 60 61 2 61 59 5 61 58 3 62 58 3 62 58 3 62 58 4 60 59 4 60 59 4 58 58 5 56 57 4 52 52 3 41 42 1 40 39 2 33 35 2 32 34 1 32 35 1 32 37 0 31 33 2 32 32 1 32 35 1 32 35 3 34 36 1 36 38 3 43 43 5 54 51 4 53 49 0 38 39 1 39 40 18 67 61 21 71 62 30 80 68 35 86 71 28 78 67 
2 15 34 2 15 34 0 15 38 2 17 40 0 22 45 1 21 45 1 21 45 1 21 45 2 24 48 4 26 49 11 35 61 14 38 64 19 40 69 20 41 68 21 41 68 23 40 68 23 37 64 23 34 52 26 34 53 86 34 21 85 36 22 83 34 20 85 33 20 87 35 22 87 38 23 59 41 31 31 43 39 25 47 44 6 60 60 4 58 58 3 40 46 3 41 44 1 28 35 0 29 35 0 27 36 1 26 33 0 29 35 4 33 37 2 31 37 1 26 33 1 26 33 0 26 33 0 26 33 3 28 35 0 28 32 2 31 37 2 33 36 4 50 47 4 55 50 5 60 54 5 65 57 5 65 55 4 64 56 4 64 56 4 64 56 5 62 55 6 63 56 4 64 56 5 62 55 6 61 56 4 63 57 6 62 59 4 63 57 4 63 57 5 62 56 2 63 58 5 61 58 4 60 59 3 62 60 4 60 57 2 61 57 3 62 58 4 60 57 4 60 59 4 60 59 4 58 60 3 58 55 3 53 52 2 40 41 2 40 41 1 32 34 0 33 34 3 33 35 1 32 35 1 32 35 0 31 34 1 32 35 1 32 35 0 34 36 1 39 40 4 42 43 3 53 50 5 54 51 1 39 40 1 40 39 20 67 61 21 71 62 30 80 68 35 86 69 27 77 68 
54 45 46 35 35 43 6 19 38 5 20 43 2 22 46 3 21 45 0 24 46 0 24 48 1 28 55 1 29 53 21 42 71 27 47 74 31 51 78 36 53 83 35 47 71 35 36 56 44 36 47 71 32 25 71 34 25 83 34 20 81 33 19 83 34 20 86 33 19 80 34 21 78 32 19 56 23 14 37 18 12 29 24 21 11 42 47 6 41 47 1 30 34 1 28 35 0 24 34 0 25 32 0 25 32 0 25 30 1 26 33 0 25 32 2 27 34 1 26 33 0 26 33 1 26 33 1 26 33 1 26 31 1 26 33 1 28 37 1 30 36 1 42 48 2 45 52 2 46 55 3 52 59 4 53 58 5 55 62 6 57 61 4 58 60 6 57 61 4 60 61 4 59 62 3 61 62 3 61 62 4 59 62 5 58 64 5 56 60 3 56 60 4 55 59 3 53 60 4 54 61 7 56 61 6 55 59 12 60 62 12 60 62 8 57 62 7 56 60 6 53 61 4 51 59 4 51 59 5 45 57 3 46 55 3 41 52 4 44 54 3 47 58 4 48 57 1 38 47 3 36 43 1 30 36 1 29 33 0 27 34 0 28 31 0 28 32 2 29 36 1 36 40 4 55 56 4 53 58 6 65 59 5 64 58 15 65 62 16 66 65 11 59 61 7 55 57 7 55 59 
54 45 46 35 35 45 4 19 38 5 20 41 2 22 46 2 22 47 1 23 47 0 25 47 1 28 55 1 29 53 21 42 69 30 47 75 33 50 76 36 53 83 36 48 72 35 36 54 44 36 49 71 34 25 71 33 24 83 33 22 83 33 22 84 34 23 83 34 20 81 33 21 75 31 18 55 25 15 36 17 13 28 23 20 7 42 46 7 40 45 0 29 35 1 28 35 2 25 33 0 25 32 1 26 31 1 26 33 0 25 32 1 26 33 0 25 32 0 25 32 1 26 33 0 26 33 0 25 32 0 26 33 2 25 33 0 29 35 0 30 38 1 40 45 2 45 51 4 48 57 4 51 59 6 53 61 3 56 60 3 56 60 4 57 61 5 58 62 4 60 61 4 60 61 5 61 62 5 61 62 4 59 62 4 57 61 3 56 62 4 55 59 4 55 59 5 54 59 5 54 59 7 56 60 7 56 60 12 60 60 11 61 60 8 57 61 8 57 61 5 53 57 6 50 59 6 50 61 3 45 57 3 46 53 3 41 50 4 44 52 3 47 58 5 49 60 2 36 45 1 35 44 2 29 36 0 27 34 1 28 35 1 28 35 0 28 34 1 29 33 2 35 40 4 53 57 4 53 57 8 63 60 5 66 61 14 64 61 15 65 62 10 58 58 8 53 58 7 55 57 
100 88 72 95 86 71 91 81 69 80 69 63 48 43 47 40 40 48 5 27 50 5 25 52 4 24 49 0 24 48 13 21 40 19 22 39 14 26 38 11 29 39 18 29 35 29 33 36 43 31 31 84 34 23 84 34 25 83 34 20 85 33 22 84 35 21 84 35 21 63 25 16 54 21 12 47 18 12 40 17 11 36 16 9 27 17 15 23 19 16 2 25 31 2 25 31 0 25 32 1 26 33 1 25 35 0 25 32 2 27 34 2 27 34 1 24 30 1 26 33 1 26 33 0 26 33 1 26 33 0 26 35 1 26 33 1 28 37 1 28 37 1 28 37 0 29 37 0 33 42 2 36 46 2 42 50 2 55 59 2 55 59 4 57 61 3 56 62 5 54 59 4 55 59 4 57 63 3 56 60 4 54 61 3 53 60 4 53 60 4 52 62 7 54 60 13 61 61 12 60 62 14 63 60 13 61 61 11 59 63 11 59 61 10 60 61 11 58 64 7 46 51 4 39 43 2 35 42 3 28 35 1 30 38 1 38 46 2 36 46 1 28 35 3 28 35 0 27 36 1 28 35 0 28 32 1 26 31 0 28 32 0 25 32 2 25 33 2 25 33 1 26 31 3 32 38 2 31 37 4 42 53 3 43 53 5 47 59 4 48 61 2 46 59 2 46 59 2 46 59 
106 93 76 105 92 73 102 89 73 91 77 68 54 45 48 46 44 47 5 27 51 6 28 51 1 25 49 2 24 48 11 19 38 16 17 35 13 21 34 9 26 33 16 27 31 29 31 30 41 31 29 85 36 22 83 34 20 83 34 20 84 34 23 84 35 21 84 35 21 63 25 14 50 21 13 46 19 10 40 15 10 38 15 9 29 14 9 27 16 12 1 24 30 2 22 31 1 26 33 2 27 34 1 26 33 2 25 33 1 26 33 1 26 33 0 25 32 0 26 33 3 26 34 0 25 32 1 26 31 2 27 34 1 26 33 1 28 35 1 28 37 2 27 34 2 27 34 2 31 39 2 35 44 3 41 50 5 56 60 4 55 59 5 55 62 5 55 62 4 53 60 5 52 60 5 56 60 4 57 61 3 53 60 3 52 59 3 50 58 4 51 61 9 54 60 13 61 61 14 60 58 14 63 60 14 62 62 10 60 61 10 60 61 10 59 63 11 59 61 5 44 49 3 36 41 3 32 38 1 24 32 1 28 35 1 38 47 3 36 45 1 24 32 1 24 30 1 26 33 2 27 31 1 26 33 0 25 30 1 26 33 1 24 32 1 24 32 0 23 31 1 26 33 1 28 35 2 29 36 1 39 52 2 38 52 1 45 58 2 44 60 2 45 62 1 43 57 0 43 59 
110 94 78 108 95 78 110 94 78 105 92 76 85 75 65 82 72 63 58 46 56 58 46 56 35 26 45 32 23 40 17 25 36 11 26 33 9 28 34 6 30 34 27 31 30 61 34 27 66 33 26 84 35 20 83 33 22 85 33 20 82 33 19 78 32 19 77 30 20 61 24 15 48 19 11 49 20 12 51 23 11 49 26 12 49 32 16 50 32 18 42 40 27 43 41 28 22 34 34 20 35 32 4 28 32 1 24 32 1 26 33 2 27 34 1 26 33 1 26 33 1 26 33 1 26 33 1 26 33 1 26 33 1 26 33 0 25 32 0 26 35 2 27 34 1 26 33 1 28 37 0 30 38 0 34 44 2 42 52 1 44 53 0 47 57 3 47 58 2 44 58 4 48 61 1 47 60 2 49 59 3 45 59 3 47 60 3 47 60 1 48 58 6 50 61 9 57 61 10 58 62 12 60 62 12 60 62 7 54 60 9 54 60 6 53 59 6 53 59 5 44 51 3 40 46 3 33 41 2 25 33 1 26 31 1 30 38 2 31 39 1 26 33 0 26 35 2 35 44 2 36 46 3 33 43 3 33 41 0 28 39 0 23 31 2 25 31 0 25 30 1 26 33 1 31 41 2 31 39 2 44 58 3 43 55 1 44 60 2 46 59 1 44 60 2 44 58 0 42 56 
108 95 78 109 96 79 109 98 78 108 96 80 104 92 76 102 89 73 86 58 57 86 56 56 56 28 42 52 24 39 19 28 35 8 29 34 7 31 35 4 32 35 34 32 33 78 34 23 79 35 22 83 34 20 82 33 19 86 34 21 85 32 24 73 31 19 73 29 18 56 22 12 47 18 10 51 23 11 55 28 9 58 31 14 63 41 20 63 42 21 65 47 25 67 49 27 32 39 32 33 40 32 9 28 32 1 26 33 2 25 33 1 26 33 0 25 32 2 25 33 1 26 33 1 26 33 0 25 32 1 26 33 1 26 33 1 26 33 0 25 32 2 25 33 1 26 33 0 27 34 0 27 34 0 30 38 1 35 45 1 35 47 0 42 56 1 43 57 1 43 59 2 41 58 1 43 59 1 43 57 3 42 57 0 42 58 2 44 58 1 45 58 3 47 58 6 53 59 5 54 59 10 58 62 11 59 61 6 50 59 5 52 60 5 49 58 6 50 59 5 46 52 2 39 45 2 35 40 1 26 33 1 26 33 0 27 34 2 27 34 0 27 34 2 27 34 3 41 52 2 42 54 1 37 49 2 39 48 1 31 39 0 25 30 0 25 30 0 25 32 0 27 34 2 30 41 1 31 41 1 45 58 2 46 57 1 44 60 1 45 58 0 44 57 3 42 57 2 41 56 
106 81 76 104 79 74 100 75 68 96 70 69 86 60 71 86 60 73 78 48 82 78 48 82 67 35 76 68 33 75 48 34 57 43 34 51 37 34 43 36 32 33 52 33 27 81 35 22 82 34 22 82 33 19 83 33 22 84 35 21 84 35 21 64 26 17 61 24 15 53 20 13 48 18 10 60 31 15 75 43 20 77 47 19 87 61 34 86 63 32 85 62 31 85 62 31 64 53 31 64 53 31 19 34 31 6 26 33 5 25 32 1 24 32 0 25 32 2 25 31 0 25 32 1 26 33 0 25 30 0 26 33 1 26 31 1 26 31 0 25 32 0 25 32 0 26 33 1 26 33 3 28 35 0 29 35 1 30 38 2 32 43 1 38 54 1 39 52 1 45 58 2 44 58 1 48 58 3 47 58 4 48 61 3 47 60 2 46 57 3 45 57 3 46 55 4 45 51 4 45 51 7 54 60 7 54 60 7 54 60 8 56 60 6 49 55 6 47 53 5 38 45 4 34 42 3 32 38 1 28 35 2 31 37 4 43 48 5 42 48 2 32 40 3 33 41 3 39 51 2 42 52 4 42 53 3 41 52 1 34 43 1 26 33 0 26 33 0 29 37 1 28 37 2 32 42 1 31 41 1 37 49 0 38 47 3 42 57 2 44 58 1 43 57 2 41 58 0 42 58 
101 69 70 99 63 67 94 53 59 85 47 62 67 27 64 67 28 72 68 39 106 66 37 104 78 41 108 82 41 109 78 40 79 78 38 72 70 36 52 67 33 32 72 33 28 82 34 22 85 33 22 84 35 21 83 34 20 85 33 20 83 33 22 54 21 12 50 20 12 50 20 12 49 19 11 69 38 17 90 57 24 94 64 26 111 82 48 107 81 46 102 74 37 101 73 36 98 68 32 97 69 32 32 39 31 11 29 33 5 25 32 1 26 33 2 25 33 2 25 31 0 25 32 0 27 33 0 25 32 1 26 33 1 26 30 0 25 29 0 25 30 0 25 32 1 26 33 1 24 32 0 25 32 1 26 33 1 26 33 0 29 37 1 35 47 2 36 48 4 48 59 1 48 58 3 50 60 5 52 62 5 52 60 5 54 58 3 50 58 4 47 54 4 42 51 2 35 42 2 36 46 2 49 57 3 50 60 10 58 58 10 58 58 8 46 47 7 42 44 4 32 36 1 26 33 1 28 35 0 31 36 4 39 43 9 60 63 7 58 59 4 39 45 4 39 45 3 40 49 3 41 52 4 44 56 3 45 57 0 36 48 0 27 36 0 26 37 2 30 41 2 32 42 2 32 42 0 32 41 0 30 38 1 29 40 1 38 54 2 41 56 1 40 57 1 40 57 2 41 58 
97 59 70 94 56 67 93 52 70 90 46 73 74 33 77 76 32 83 71 39 106 70 39 107 78 41 110 77 40 107 76 40 86 74 40 77 74 37 55 71 33 30 75 34 28 85 33 22 84 35 21 83 33 22 84 35 21 80 32 20 81 33 21 51 21 11 49 19 11 50 20 12 52 22 14 73 41 18 93 63 27 98 70 33 108 84 48 107 81 46 105 77 40 104 76 39 101 71 35 99 71 34 50 48 35 31 41 33 26 37 33 20 35 32 21 35 35 14 32 34 11 30 34 1 26 31 1 24 30 1 26 31 2 25 33 1 26 33 1 26 33 2 25 33 0 25 32 0 25 30 2 25 31 2 25 31 1 26 33 2 26 36 1 33 44 0 33 42 3 43 53 3 43 53 4 44 54 4 47 56 6 46 56 3 46 53 4 44 52 2 41 48 2 39 47 2 32 40 0 33 38 3 43 51 4 44 52 12 53 55 11 52 56 7 42 46 6 40 42 2 30 33 0 25 32 2 27 32 0 29 35 4 35 40 5 53 55 5 49 52 2 36 45 3 36 43 3 39 51 2 42 52 2 44 56 2 46 57 1 38 47 2 30 41 1 31 41 1 33 44 2 34 45 1 35 45 1 35 47 2 32 43 1 34 43 1 38 54 4 41 57 1 39 52 0 40 52 1 37 53 
86 32 64 94 37 80 104 46 105 104 46 107 96 44 110 93 44 109 80 41 108 81 41 111 74 42 109 73 42 110 69 40 104 67 39 100 77 37 63 84 35 21 84 34 23 85 33 22 84 34 23 83 34 20 86 34 23 70 31 16 73 29 20 48 19 11 47 17 9 55 25 14 62 30 15 85 54 26 106 77 35 107 79 40 107 83 49 106 82 48 109 83 50 109 83 50 107 79 42 108 78 42 101 75 40 98 72 37 88 68 35 84 65 35 72 58 32 51 49 34 42 44 33 4 28 30 6 27 32 1 26 33 1 25 35 0 24 31 2 27 32 1 24 32 2 24 35 2 27 32 0 25 32 0 25 32 0 25 32 1 26 33 0 23 31 0 23 31 1 26 33 1 24 32 2 33 38 4 33 41 3 30 37 0 27 34 1 26 33 0 25 32 0 25 32 2 25 31 1 26 31 0 25 32 1 24 32 7 38 43 6 37 42 2 31 37 2 29 36 2 27 34 2 25 33 1 26 33 1 24 32 2 25 33 2 25 33 1 26 33 0 30 40 0 30 38 2 41 56 1 43 57 2 44 60 1 43 59 1 43 59 0 42 58 1 43 59 2 41 56 0 42 56 2 41 56 2 42 54 2 40 51 3 41 52 1 39 52 1 39 52 1 34 43 1 29 40 1 29 40 
89 33 70 95 38 83 106 46 108 101 46 104 97 45 111 95 44 111 82 42 112 81 42 109 72 41 109 71 40 108 68 39 97 69 38 95 77 38 59 85 35 24 86 34 21 85 33 20 84 35 21 83 34 20 84 35 21 69 26 17 67 27 17 49 21 10 49 18 13 57 28 12 65 34 16 86 55 26 108 76 35 108 79 39 109 83 48 109 83 48 109 83 50 108 82 49 106 80 43 106 80 43 102 76 41 100 74 39 93 70 38 86 65 34 75 61 34 58 51 32 44 44 32 8 29 34 8 27 31 1 26 31 1 26 33 1 26 31 1 26 33 0 25 32 0 25 32 2 25 31 1 24 32 1 26 33 0 25 32 1 24 32 0 25 30 1 26 31 1 26 33 1 24 32 2 31 39 1 31 39 1 28 35 1 26 33 2 27 34 1 25 35 2 27 32 1 24 32 1 26 33 0 26 33 0 25 30 6 37 40 5 36 39 3 31 35 1 28 35 2 27 34 0 25 32 1 24 32 0 25 32 1 26 33 0 25 32 1 26 33 2 31 39 1 29 40 3 39 55 2 42 54 0 42 56 0 41 55 0 42 56 1 40 55 2 41 56 1 43 57 0 42 56 1 45 56 2 44 58 2 42 54 3 43 53 2 40 53 2 40 51 2 34 45 2 32 40 2 31 39 
110 49 109 110 49 109 109 48 108 106 48 109 96 45 112 93 44 110 84 41 110 86 43 112 68 38 108 66 39 110 74 37 70 75 36 57 80 35 38 84 32 19 82 32 21 83 34 20 84 34 23 85 36 22 84 35 21 47 18 10 48 18 10 47 20 11 50 20 12 75 44 16 90 57 22 100 68 30 109 76 31 110 78 40 107 81 46 107 83 45 108 82 47 108 82 47 108 83 52 108 84 50 108 82 49 108 82 49 108 82 49 110 81 49 104 80 42 101 73 36 84 65 35 28 38 30 25 36 30 1 26 33 2 27 32 1 24 32 2 25 31 1 26 33 1 26 33 2 27 32 2 25 33 1 26 31 1 26 33 0 25 32 1 26 33 0 25 32 2 25 33 1 26 33 0 25 32 2 27 34 1 26 33 2 27 34 2 27 34 0 27 34 2 25 33 1 26 31 0 25 32 1 26 33 1 26 33 0 26 33 0 26 33 1 26 33 2 27 34 1 24 32 2 25 33 1 26 33 1 26 31 1 26 33 1 26 33 1 26 33 0 25 32 0 25 32 0 23 31 1 24 32 0 25 32 1 26 33 0 26 33 1 28 37 3 33 41 2 39 48 2 42 52 3 51 61 4 51 59 5 52 58 5 52 60 4 51 61 4 51 61 4 51 59 4 51 59 5 48 55 
109 48 108 109 49 109 109 48 108 107 49 110 94 45 110 92 43 109 84 43 111 85 44 112 69 39 109 66 39 110 72 37 70 76 34 54 80 34 37 83 33 22 85 33 20 83 33 22 83 34 20 85 35 24 84 35 21 47 18 10 49 19 11 47 20 9 49 18 13 74 44 18 89 59 21 100 68 30 109 77 36 109 77 38 110 81 47 109 80 46 108 82 47 108 82 47 109 82 53 108 84 50 107 81 48 110 81 49 108 82 49 107 83 47 104 78 41 100 72 33 84 65 35 30 37 30 26 38 28 1 26 33 2 27 34 1 26 33 1 26 33 1 26 33 1 26 33 0 24 34 1 26 31 0 25 32 2 25 33 1 26 31 1 26 33 0 25 32 0 25 32 0 25 32 1 24 32 0 26 29 1 24 30 0 23 29 1 26 33 1 26 33 1 26 33 0 25 32 1 26 31 0 25 30 1 26 33 1 26 33 2 25 33 1 26 33 1 26 33 0 26 33 0 24 31 0 25 32 1 24 32 1 26 33 0 25 32 1 26 33 1 24 32 0 25 30 0 23 29 0 25 30 3 28 35 1 25 35 1 28 37 0 29 37 2 32 42 3 40 49 3 41 52 5 52 60 4 51 61 5 52 58 5 52 60 6 50 61 3 49 62 3 50 58 4 52 62 3 47 56 
99 45 107 95 44 110 84 43 111 86 44 110 86 43 112 84 43 111 72 41 111 71 40 108 69 40 98 69 38 95 84 35 39 87 35 22 84 35 20 83 34 20 84 34 23 84 35 21 80 32 20 68 28 18 68 28 18 48 18 10 48 18 10 69 39 15 72 40 17 94 61 26 106 74 33 107 75 36 106 77 35 109 77 38 110 82 43 109 81 42 107 82 42 110 82 45 109 81 42 109 81 42 110 80 42 110 80 44 109 81 44 110 81 47 108 82 45 106 82 46 106 80 45 101 75 40 96 73 39 57 51 29 56 50 28 18 34 33 12 32 33 3 28 32 0 27 31 2 27 32 2 27 34 1 26 33 0 26 33 4 27 33 1 26 33 0 28 32 2 27 31 0 28 32 31 31 31 33 32 30 54 33 28 65 35 27 42 32 30 20 30 32 16 30 33 2 27 32 1 26 33 0 27 31 1 26 33 1 26 33 0 25 32 1 26 33 1 26 33 1 26 33 1 26 33 1 26 33 0 25 32 1 24 32 0 25 32 1 26 33 0 24 31 1 26 33 0 25 30 1 24 30 1 26 33 1 26 33 1 26 33 1 26 33 1 26 33 0 26 33 1 28 35 3 36 43 6 36 44 12 58 56 9 58 55 11 61 60 10 60 59 12 64 62 12 62 59 11 61 58 
100 45 110 95 44 111 84 43 109 86 43 112 88 43 110 84 43 111 71 40 110 73 40 111 69 38 97 68 39 97 82 36 39 86 34 20 86 34 20 83 34 20 83 34 20 82 33 19 81 33 19 68 28 18 72 30 18 48 18 10 48 18 10 69 38 17 73 41 18 92 62 24 105 73 34 107 75 34 106 76 38 109 77 36 109 81 44 109 81 42 109 81 41 110 82 45 110 80 42 110 80 44 110 82 43 109 81 44 109 81 44 108 82 49 109 81 44 109 81 44 109 80 46 99 75 39 95 72 40 56 50 28 56 50 28 17 36 34 12 32 33 3 28 32 0 27 31 2 27 34 1 26 33 2 27 34 2 25 33 1 26 33 1 26 33 0 26 35 2 27 32 1 26 31 30 32 31 36 32 31 53 34 28 65 34 29 43 34 29 19 29 31 15 29 32 0 25 32 1 26 33 1 26 33 0 26 33 1 26 33 2 27 34 0 25 32 0 26 33 1 26 33 1 26 33 0 25 32 1 26 33 1 26 33 1 26 33 1 24 30 0 25 32 2 25 33 2 25 33 1 24 32 1 26 31 1 26 31 1 26 33 1 26 33 0 27 36 0 26 33 1 30 36 4 37 42 2 37 41 12 58 58 10 56 54 11 61 60 12 62 61 12 62 61 13 65 61 10 60 57 
76 40 110 73 40 109 71 39 112 67 40 109 69 39 111 66 39 110 72 41 111 71 40 108 77 38 65 76 37 56 83 34 30 85 33 22 85 33 20 83 33 22 86 34 21 83 33 22 74 30 19 52 22 14 53 23 15 48 19 11 49 19 11 82 51 20 87 57 23 101 69 30 109 77 36 108 76 35 110 78 37 110 78 39 109 80 40 108 79 39 109 80 40 109 80 40 109 79 41 111 81 43 110 80 42 111 81 45 110 82 45 109 80 46 110 81 47 108 82 47 110 82 45 106 80 45 105 79 44 96 73 41 96 73 41 81 65 39 80 64 39 44 46 33 35 43 32 22 37 32 12 30 30 12 30 32 8 29 32 7 28 33 2 27 32 0 27 34 4 27 33 6 27 32 62 35 28 73 36 27 77 34 25 78 34 21 74 34 24 71 34 25 65 35 27 47 32 29 45 31 30 1 26 33 2 25 33 3 26 34 0 25 32 2 25 33 2 25 33 1 26 33 0 25 32 0 25 32 1 26 33 0 25 32 1 26 33 0 25 32 1 26 33 1 24 32 2 25 33 0 25 30 1 24 32 0 25 32 1 26 33 1 26 33 1 26 33 0 27 34 1 28 35 0 29 35 2 29 36 4 35 40 4 33 39 3 38 42 5 38 43 7 51 52 9 59 60 9 59 60 
69 39 111 67 40 109 65 39 110 65 39 110 60 38 111 60 37 109 70 39 109 70 41 108 79 37 51 82 37 44 81 34 28 85 33 20 83 33 22 85 33 22 84 35 21 82 34 22 74 30 19 49 19 11 48 18 10 48 18 10 47 18 10 87 57 21 94 62 24 105 70 32 109 77 36 109 77 39 111 79 38 110 78 37 109 80 40 109 80 40 111 79 40 109 80 40 109 81 42 108 80 41 109 81 42 109 81 42 107 81 44 107 81 46 108 82 47 108 82 47 107 81 46 110 81 47 109 80 46 108 80 43 107 81 46 101 75 40 103 74 40 59 54 34 47 48 34 31 41 33 14 33 31 14 32 32 10 30 31 10 31 34 0 28 32 2 27 34 8 27 33 6 27 32 78 35 28 84 37 27 83 35 21 82 34 22 84 35 20 88 36 23 81 35 22 62 33 27 52 31 26 0 25 32 0 25 32 1 24 32 0 25 32 0 25 32 1 24 30 0 25 30 1 26 31 1 26 31 0 24 31 1 24 32 1 26 31 0 25 30 1 24 32 3 23 32 1 24 32 1 25 35 1 26 33 1 26 33 1 26 33 2 27 34 1 26 33 1 26 33 0 27 34 0 27 31 2 27 32 1 26 31 1 26 33 1 30 36 2 31 35 6 47 49 9 59 60 8 60 58 
67 40 111 68 41 112 71 40 108 71 41 111 71 41 111 72 41 109 76 42 93 79 42 94 84 35 38 83 34 29 83 33 24 85 33 20 84 35 21 83 34 20 80 32 20 72 28 17 66 26 16 48 19 11 48 18 10 60 28 15 58 29 15 97 65 27 103 71 32 106 74 33 109 77 36 109 77 36 110 78 37 111 79 38 110 78 37 110 78 37 109 77 36 110 79 35 110 78 37 111 79 38 111 79 40 109 79 41 110 80 44 109 81 44 109 81 44 109 83 46 109 81 44 109 80 46 107 81 46 108 82 47 108 82 45 106 80 45 104 80 46 91 72 40 85 68 40 78 64 38 70 59 37 63 57 33 52 49 30 40 44 29 11 31 32 11 31 32 31 31 31 32 32 32 77 34 25 86 36 25 84 35 21 83 33 22 84 35 21 87 35 22 81 33 21 59 28 23 50 26 22 1 24 30 4 24 31 2 25 33 2 25 31 1 26 33 2 24 35 0 25 32 1 26 33 1 26 33 4 24 33 1 26 33 1 26 33 0 25 32 0 25 32 0 25 32 1 26 33 2 27 34 0 27 36 1 26 33 2 27 32 0 28 32 0 28 32 2 27 34 2 27 34 0 27 34 1 26 31 0 26 33 1 26 33 0 28 32 0 28 32 4 33 39 3 36 41 4 37 42 
66 39 110 71 40 110 76 41 109 75 42 111 78 41 110 76 41 107 86 41 84 85 42 87 84 36 26 85 33 20 84 32 19 83 34 20 85 33 20 86 34 21 79 33 20 65 27 16 62 25 17 47 18 10 49 19 11 62 34 13 65 34 14 103 71 32 107 75 34 108 76 37 108 76 37 108 79 37 112 79 36 107 78 36 110 78 37 110 78 37 110 78 37 110 78 37 109 77 36 110 78 37 109 80 40 108 80 40 109 79 41 109 81 44 109 81 44 109 81 44 107 81 44 110 81 47 110 81 47 108 82 47 108 82 47 107 83 49 109 83 48 107 81 46 106 80 45 106 77 43 106 76 40 95 71 35 79 60 30 66 54 30 19 34 31 18 33 30 45 31 30 46 35 31 82 34 22 85 33 22 86 34 21 83 34 20 86 34 21 86 34 21 78 32 19 57 24 15 51 24 17 5 25 32 4 25 30 0 25 32 1 26 33 0 25 32 1 26 33 1 26 33 2 25 33 0 24 31 1 26 33 0 25 32 1 26 33 0 25 32 1 26 33 0 25 32 1 26 33 1 26 33 0 26 33 1 26 33 2 27 32 0 28 32 0 25 32 1 26 33 0 25 32 0 26 33 1 26 33 2 25 33 1 26 33 1 24 30 0 25 30 1 24 32 1 24 32 1 24 32 
67 40 111 69 39 113 71 40 110 74 41 110 82 42 112 82 42 104 86 40 68 86 41 64 84 34 25 84 32 18 85 33 22 83 35 21 86 34 21 83 34 20 76 29 19 57 23 14 56 21 15 49 19 11 48 19 11 76 45 17 76 44 19 104 72 31 110 77 36 107 75 34 108 76 35 109 77 36 110 78 37 110 78 37 109 77 36 109 77 36 111 78 37 110 79 35 110 78 37 109 77 36 107 78 36 109 80 40 110 81 41 109 79 41 108 80 41 109 81 44 109 81 44 109 81 44 107 81 44 110 82 45 109 81 44 107 81 46 108 82 47 109 83 48 107 81 46 105 79 44 105 79 42 98 74 40 92 69 37 81 62 32 45 43 30 45 43 30 62 33 27 61 33 29 82 34 22 84 34 23 83 34 20 83 33 22 83 34 20 87 35 22 77 30 20 51 21 13 46 21 16 4 24 31 4 24 31 1 26 33 0 27 31 0 25 32 1 26 31 1 26 33 1 26 33 0 25 32 1 26 33 1 26 33 0 25 32 1 26 33 0 25 32 1 26 33 1 26 33 1 26 33 1 26 33 1 26 33 2 27 32 2 27 32 1 26 33 1 26 33 1 25 35 2 27 34 0 26 33 1 26 33 0 25 32 0 27 34 0 26 29 1 26 31 1 24 30 1 25 35 
67 40 111 65 38 109 65 38 109 71 40 110 85 43 107 89 42 97 88 37 33 90 37 31 85 33 20 82 32 21 83 34 20 85 33 20 84 35 21 82 34 22 68 28 20 44 17 10 47 18 14 49 20 12 49 21 10 96 64 25 96 64 25 108 75 34 108 76 35 109 76 35 108 76 35 108 76 37 109 77 36 109 77 36 111 78 37 110 78 37 110 78 37 109 78 34 109 77 36 110 77 34 110 79 35 109 78 34 112 79 38 109 80 40 109 80 40 109 79 41 109 81 42 107 81 44 109 81 44 109 81 44 109 81 44 108 80 43 109 81 42 107 81 46 108 82 47 108 82 49 108 82 49 108 82 49 107 81 48 103 77 42 87 61 28 86 60 27 89 35 23 88 36 23 84 35 21 82 34 20 83 34 20 83 34 20 83 33 22 84 34 23 71 31 19 42 17 10 38 17 12 3 24 29 3 23 30 1 26 31 0 24 34 2 25 33 2 25 33 1 26 33 0 25 32 0 25 32 0 25 32 1 26 33 0 25 32 0 25 32 4 24 33 1 26 33 2 27 34 1 26 33 2 25 33 0 25 32 1 26 31 2 25 31 2 27 34 1 26 33 1 26 33 1 26 33 1 26 33 0 25 32 1 24 32 0 27 31 2 27 32 1 26 33 1 26 33 0 25 32 
69 39 111 69 39 109 66 39 110 70 39 106 83 42 98 83 41 89 87 37 30 89 36 28 84 34 23 84 35 21 86 34 21 83 34 19 81 33 21 78 32 19 65 27 18 46 19 12 47 18 10 54 26 12 54 26 15 99 67 28 100 68 29 109 76 33 108 76 35 109 77 36 108 76 35 108 76 35 109 77 36 109 77 36 110 78 37 110 78 37 109 77 36 109 77 36 109 77 36 111 78 35 110 78 37 110 77 36 110 78 37 112 78 40 112 80 41 108 78 40 109 79 41 109 81 42 109 81 42 109 79 41 108 80 43 109 79 43 109 81 44 108 79 45 109 81 44 111 83 46 109 80 46 107 81 46 107 81 46 101 75 40 90 57 26 88 57 26 86 37 23 85 36 22 83 33 22 85 33 20 83 34 20 84 35 21 80 32 22 76 32 21 67 29 18 43 16 9 38 19 13 2 25 31 4 24 31 1 26 33 1 26 33 1 26 33 1 26 33 1 26 33 0 25 32 2 25 31 0 25 32 1 26 33 1 26 33 4 24 33 1 26 33 0 25 32 1 26 33 1 26 33 1 26 33 1 26 33 0 25 30 0 25 32 0 25 32 2 27 34 1 26 31 1 26 31 1 26 33 2 27 34 0 25 32 1 26 31 1 26 31 1 26 33 1 26 33 1 26 33 
78 41 110 77 42 110 72 41 108 71 40 100 79 39 76 76 37 68 84 32 19 85 33 20 85 33 22 83 34 20 86 34 21 83 34 20 73 29 20 61 24 15 56 23 14 47 18 10 52 22 11 64 36 14 67 36 16 108 77 33 108 77 33 106 77 35 110 78 39 107 78 38 108 76 35 110 78 39 109 80 40 110 78 39 109 77 36 106 77 35 109 77 38 110 78 39 112 80 39 110 77 36 111 79 38 110 78 39 110 78 39 109 77 36 109 77 36 110 78 37 109 80 38 108 79 37 110 78 39 108 79 39 110 80 42 109 79 41 109 79 41 109 79 41 109 80 40 111 79 41 109 77 36 109 77 38 107 78 44 105 72 39 93 48 25 92 48 23 84 35 21 83 33 22 83 34 20 82 33 19 83 34 20 84 34 23 70 27 18 57 23 14 55 22 13 47 18 10 43 19 15 2 25 31 3 26 32 0 26 33 2 27 34 1 26 33 1 26 31 2 27 34 0 25 30 0 25 32 1 26 33 1 26 33 0 24 31 2 27 34 0 25 32 1 26 33 1 26 33 1 26 33 0 25 32 1 26 33 1 26 31 1 26 33 1 26 33 1 26 33 1 26 33 1 26 31 1 26 33 1 26 31 0 26 33 1 26 31 1 26 33 1 26 31 1 26 33 0 25 32 
80 43 113 78 41 110 75 40 108 74 41 98 79 38 70 80 38 62 84 32 19 83 34 19 85 33 20 85 33 20 84 35 21 86 34 21 69 29 19 59 25 16 55 22 15 48 19 11 54 24 13 71 41 17 69 41 19 109 77 36 109 77 36 108 76 35 109 77 36 108 76 35 107 75 36 107 78 36 110 78 37 108 79 37 109 77 38 109 77 39 109 77 38 109 77 38 110 78 37 110 78 37 110 78 37 109 77 36 106 77 35 109 77 36 110 79 35 110 78 37 109 77 36 110 78 39 111 79 40 111 79 41 108 79 39 109 79 41 109 79 41 108 79 39 109 80 40 111 79 38 109 77 36 110 76 38 106 78 41 104 69 37 92 46 23 92 47 26 84 35 21 84 35 21 84 32 21 82 33 19 84 32 21 84 32 21 68 28 18 55 22 13 56 22 13 47 18 10 42 19 13 5 25 32 6 26 33 1 30 36 1 29 33 1 28 35 3 28 35 2 27 34 0 27 34 1 26 33 2 27 34 1 26 33 0 25 32 0 25 32 0 25 32 0 25 32 1 26 33 0 25 32 1 24 32 0 25 32 0 25 30 0 23 31 0 25 32 0 25 32 1 26 33 1 26 31 2 26 36 1 26 31 0 27 31 1 26 33 1 26 33 0 27 31 2 27 32 1 26 33 
92 43 109 92 43 108 92 42 105 90 41 86 85 36 22 87 35 22 83 34 20 82 33 19 83 34 20 83 33 22 82 34 22 81 33 21 64 26 17 44 17 10 45 18 9 48 19 11 59 30 16 95 65 27 97 65 26 109 77 36 110 78 37 109 76 35 108 76 37 108 76 35 107 75 34 110 77 36 107 78 36 109 77 38 109 75 37 109 77 36 108 76 35 108 76 37 111 80 36 110 78 39 108 76 35 108 76 35 107 78 36 109 77 36 110 77 36 109 77 36 109 77 36 109 77 36 110 79 35 107 78 36 111 78 37 111 79 38 108 76 35 111 76 36 109 77 36 109 77 36 109 77 36 103 74 32 99 65 28 97 58 29 88 36 25 88 36 25 83 34 20 82 33 19 85 33 20 83 34 20 81 33 23 79 33 20 60 26 16 44 16 12 45 18 11 47 18 10 42 18 14 2 30 34 5 28 34 8 49 51 7 49 48 7 49 48 8 50 49 4 44 46 4 39 45 4 34 42 1 26 33 1 26 33 0 25 32 0 25 32 0 25 32 0 25 32 0 25 32 3 23 32 0 26 33 1 26 31 0 25 32 0 25 32 1 26 33 2 27 34 1 26 33 1 26 31 1 26 33 1 26 33 2 27 34 2 27 34 1 26 31 0 27 31 1 26 31 1 26 33 
91 45 110 92 43 109 89 43 105 89 41 83 85 35 26 87 35 24 85 33 20 85 33 22 83 34 20 82 33 19 81 33 21 83 33 22 63 25 14 44 17 10 44 17 10 48 19 11 60 31 15 97 65 26 97 65 27 110 78 39 110 78 37 108 76 35 109 77 36 109 76 35 107 75 34 108 76 35 110 78 39 109 77 38 106 77 35 108 76 37 108 76 35 108 76 37 110 78 39 110 78 39 108 79 37 109 77 38 109 77 36 108 76 35 109 78 34 109 77 36 110 78 37 110 78 37 109 77 36 110 78 37 110 77 34 109 77 36 109 77 36 111 77 39 110 78 37 110 77 36 109 78 34 106 74 35 99 65 28 97 58 27 89 35 25 88 34 22 83 34 20 84 35 21 83 34 20 83 34 20 81 33 19 78 32 19 62 25 16 42 17 10 44 17 10 49 20 12 43 19 15 4 27 33 5 28 34 6 50 51 8 48 48 7 49 48 7 49 48 6 44 47 4 39 45 4 35 40 1 26 33 1 26 33 1 26 31 0 25 32 3 23 32 0 25 32 1 24 32 1 25 35 2 25 33 0 25 32 1 26 33 1 26 33 0 25 32 1 26 33 0 26 33 1 26 33 1 26 33 0 27 31 2 26 36 2 27 32 1 26 31 0 27 34 1 26 33 2 27 34 
107 47 109 102 44 92 95 41 65 90 39 58 85 34 17 86 34 21 84 32 19 82 33 19 86 34 20 83 34 19 66 28 15 58 26 15 52 22 14 46 19 12 54 25 11 69 38 17 78 48 22 108 76 37 108 76 35 109 77 36 109 77 36 109 77 36 110 77 36 109 77 36 107 75 34 108 76 35 108 76 35 108 76 35 109 77 38 110 78 39 108 76 37 109 77 38 108 79 39 107 78 38 109 77 36 107 75 34 108 76 35 108 76 35 109 77 36 111 79 38 110 78 37 107 75 34 109 78 34 109 77 36 111 77 39 109 77 36 109 77 36 109 77 36 110 78 37 108 76 35 105 76 32 99 65 28 92 47 26 91 44 24 83 33 22 83 34 20 83 33 22 83 33 22 86 34 21 84 35 20 67 27 19 56 23 14 54 21 14 48 18 10 46 17 9 42 18 8 41 18 12 24 35 29 24 35 29 19 62 55 16 61 58 12 63 56 15 60 55 8 56 56 4 52 56 5 46 52 2 34 45 1 31 39 1 24 32 0 25 32 1 26 33 0 25 32 0 26 33 2 24 35 0 25 32 1 24 32 1 24 32 1 26 33 0 25 32 0 25 32 1 26 33 1 24 32 1 26 33 1 26 33 1 26 33 2 27 34 2 27 34 2 27 34 1 26 31 2 27 34 
109 48 108 103 46 91 95 42 62 91 39 52 83 34 20 83 34 20 83 34 20 81 31 20 84 35 21 86 34 21 65 27 16 57 24 15 51 21 13 45 18 11 55 27 13 71 41 17 81 50 22 108 76 35 109 77 39 110 78 37 111 78 35 110 79 35 109 77 36 108 76 35 107 75 34 107 75 34 108 76 35 106 77 35 107 78 38 108 79 39 109 77 38 110 78 39 107 77 39 105 77 37 108 76 37 107 75 34 108 76 35 108 76 35 109 77 38 110 78 37 110 78 37 109 78 34 109 77 36 109 78 34 111 78 37 109 77 36 110 79 35 110 78 37 109 77 36 108 76 35 107 76 32 100 64 32 92 45 25 89 42 24 84 35 21 84 35 21 83 33 22 83 34 20 83 34 20 86 34 21 65 27 16 54 21 14 51 21 13 49 19 11 47 20 11 41 16 9 38 19 12 27 37 29 25 36 28 18 63 56 19 62 55 16 62 59 16 61 56 9 57 57 6 53 59 6 47 51 3 36 45 3 33 41 1 24 32 0 25 32 0 25 32 0 25 30 0 24 31 1 26 33 0 25 32 0 25 32 0 25 32 0 25 32 0 25 32 0 25 32 0 25 32 0 25 32 0 25 30 1 26 33 1 25 35 1 26 33 1 26 33 1 26 31 1 26 31 1 26 33 
108 48 100 100 43 75 86 36 29 86 36 27 84 32 19 83 34 20 85 33 20 82 32 21 82 34 22 81 33 21 55 22 13 47 18 12 50 22 11 53 25 11 70 39 18 94 64 26 97 67 29 108 78 40 109 77 38 110 78 37 110 79 35 109 78 34 109 77 36 109 77 36 108 76 35 108 76 35 110 77 36 109 77 36 109 77 36 109 77 38 107 77 39 111 79 40 107 75 36 108 76 35 108 76 35 107 75 34 109 77 36 110 78 39 110 78 39 109 77 38 110 78 37 110 78 37 109 77 36 109 77 36 109 77 36 106 79 36 109 77 36 109 77 36 108 76 35 104 70 32 99 65 28 95 56 27 90 37 23 88 36 23 84 32 19 83 34 20 85 33 22 84 32 19 83 33 22 79 33 20 58 24 15 46 17 11 47 18 12 47 18 12 44 17 10 32 15 8 33 16 9 31 21 12 32 19 11 27 47 38 28 48 39 18 53 49 14 55 51 7 42 44 4 34 42 2 33 38 1 31 39 2 29 36 0 26 33 1 26 33 0 25 32 0 25 32 1 26 33 2 25 33 1 26 33 1 26 33 1 26 33 1 26 33 0 25 32 0 25 32 0 26 33 1 24 32 1 26 31 1 26 33 1 26 33 2 25 33 0 25 32 1 26 33 2 25 33 1 26 33 
106 48 98 98 42 69 85 33 19 87 35 21 84 32 21 83 33 22 83 34 20 83 34 20 81 33 21 82 32 23 51 21 11 44 17 10 50 22 11 56 29 12 73 46 19 102 70 29 105 73 32 107 78 38 110 78 39 108 76 35 110 78 37 109 77 36 109 77 36 108 76 35 107 75 34 109 76 35 109 77 36 109 77 36 109 77 36 108 76 37 110 80 42 109 80 40 107 75 36 108 76 35 107 75 34 108 76 35 108 76 35 111 79 40 109 77 38 108 76 37 108 76 35 109 77 36 109 77 36 110 78 37 110 78 37 110 78 37 108 79 37 109 77 36 108 76 35 103 69 32 97 61 25 93 51 26 89 35 25 87 35 24 83 34 20 85 33 19 82 33 19 83 34 20 78 31 21 78 32 19 56 22 13 42 17 10 45 18 11 47 18 10 44 17 10 31 12 6 29 12 5 34 14 7 34 14 7 31 43 33 31 43 33 18 49 44 13 52 49 7 36 42 2 27 34 3 28 35 0 29 35 0 29 35 1 26 31 1 26 31 1 24 32 0 25 30 1 26 33 0 25 30 0 25 30 0 25 30 1 24 30 0 25 30 1 24 30 1 24 30 0 25 30 0 25 30 1 26 33 0 24 34 2 25 33 1 26 33 2 25 33 1 26 33 0 25 32 0 25 32 
99 43 72 93 39 55 84 35 21 83 34 20 83 34 20 83 34 20 84 35 21 84 35 21 71 28 19 67 27 19 50 20 12 46 17 11 56 28 14 68 40 16 82 53 23 106 74 33 107 75 34 107 78 36 109 77 38 110 77 36 110 77 36 109 77 36 109 77 36 109 77 36 109 77 36 108 76 35 108 76 35 109 77 36 111 78 35 109 77 36 110 78 39 110 78 39 109 77 36 110 77 36 108 76 35 108 76 35 108 76 35 110 78 37 109 77 38 108 76 35 108 76 35 110 78 37 109 77 36 109 77 36 110 77 36 110 79 35 110 78 37 107 75 34 103 74 32 99 63 29 93 51 26 92 45 25 87 35 22 85 35 24 85 33 22 81 33 19 84 35 21 86 32 20 66 28 19 66 28 19 54 21 12 46 17 11 46 17 11 44 17 10 40 15 10 30 13 6 30 13 6 35 15 8 34 14 7 34 30 21 33 29 20 25 44 38 22 52 44 11 40 38 4 33 37 2 30 34 2 29 36 1 28 35 1 28 35 0 27 34 0 25 32 1 24 32 1 26 33 0 25 32 1 26 31 1 26 31 1 26 31 0 25 30 2 27 32 3 28 33 1 26 31 2 27 32 2 27 34 0 26 33 2 27 32 0 25 30 1 26 31 1 26 31 0 26 33 2 26 36 
92 39 45 91 36 39 85 33 22 84 32 19 83 34 20 83 34 19 85 33 19 87 35 22 58 24 15 55 22 15 48 19 11 46 17 9 63 35 14 82 51 23 92 62 28 109 77 38 109 77 36 106 77 35 109 77 36 108 76 35 110 77 36 108 79 37 107 78 36 110 77 36 108 76 35 108 76 35 108 75 34 108 76 35 108 79 39 108 79 39 108 76 37 109 77 38 109 77 36 110 78 37 108 76 35 109 77 36 109 77 36 108 76 35 109 77 36 106 74 33 109 77 36 110 78 37 110 78 37 109 77 38 109 77 36 108 79 39 107 78 36 107 75 36 106 74 33 98 59 30 91 42 25 89 40 23 87 35 22 87 35 22 83 33 22 84 32 19 86 34 21 84 35 21 56 22 13 52 22 14 50 20 12 49 19 11 45 18 11 39 16 10 36 16 7 30 13 6 31 12 6 37 14 8 35 14 9 37 14 8 36 16 9 31 41 32 30 50 39 17 43 40 10 40 42 6 37 39 0 29 33 0 28 34 0 29 33 0 27 34 1 26 33 1 26 33 1 24 32 0 25 32 1 26 31 0 27 31 0 27 31 1 26 31 2 27 32 0 28 32 0 28 32 0 28 32 2 27 32 0 27 34 2 27 31 1 26 33 1 26 31 1 26 31 1 26 30 1 29 32 
89 38 37 87 36 32 85 33 20 83 34 20 83 34 20 82 32 21 83 35 23 83 34 20 55 22 13 52 22 14 48 18 10 46 19 12 69 38 17 91 58 23 96 66 28 106 77 37 108 76 37 109 77 36 109 77 36 109 77 36 110 78 37 110 78 37 109 77 36 107 78 36 110 78 37 109 76 35 109 76 35 108 76 35 107 78 38 108 79 39 107 78 38 109 77 38 109 77 36 109 77 36 110 77 36 109 77 36 108 76 35 110 78 37 108 77 33 108 76 35 108 76 35 109 77 36 110 78 39 109 77 38 109 77 38 108 79 37 108 79 39 101 68 33 102 68 31 96 54 29 91 39 25 89 37 23 88 34 22 86 34 21 85 33 22 84 35 21 82 34 22 82 34 22 52 22 12 48 21 12 48 19 11 47 19 8 42 17 10 36 16 9 35 16 10 32 13 7 32 11 6 37 14 8 35 15 8 36 16 9 35 15 8 34 29 23 32 37 30 16 34 34 7 35 36 5 33 36 1 28 35 0 29 35 1 29 33 1 29 33 0 27 31 1 26 33 0 26 33 1 26 33 1 26 31 0 28 32 0 28 32 0 28 32 0 28 32 2 27 32 0 28 32 0 29 33 1 29 32 0 28 32 0 28 32 1 26 33 1 26 31 0 27 30 0 27 34 0 28 32 
86 34 20 83 34 19 84 34 23 82 33 19 82 33 19 82 33 19 79 33 20 80 34 21 50 20 12 46 17 13 49 20 12 48 21 12 76 46 20 101 69 28 103 71 32 108 76 35 109 77 38 109 77 38 107 75 37 109 77 38 108 78 40 108 76 35 110 77 36 110 78 37 108 79 39 109 77 38 108 76 35 109 77 38 106 77 37 106 77 37 109 77 36 109 77 36 109 77 36 110 78 37 107 78 38 108 79 39 108 76 35 109 77 36 108 76 35 108 76 35 109 77 36 109 80 40 109 77 38 108 79 39 108 79 39 108 76 35 108 76 35 98 62 28 96 57 26 92 45 25 88 36 23 88 36 23 86 37 23 87 35 22 83 34 20 85 33 22 75 31 20 77 30 20 48 17 12 44 17 10 47 20 11 46 19 12 38 18 11 35 18 10 33 16 9 31 14 7 32 13 9 35 14 9 37 14 8 36 12 8 37 14 6 36 15 10 36 16 9 18 24 20 8 29 30 5 29 31 0 29 35 0 27 34 1 28 35 0 29 35 0 27 34 0 25 32 1 28 35 0 28 32 2 27 32 0 28 32 2 27 32 2 27 32 0 29 35 1 32 37 2 32 34 2 33 36 1 32 34 0 28 32 1 29 33 3 28 33 0 28 32 0 27 34 1 28 35 1 28 37 
85 33 19 83 34 20 83 34 20 84 35 21 83 33 22 83 34 20 72 30 18 73 29 20 49 19 11 47 18 10 54 26 12 57 29 15 80 50 22 103 71 32 106 74 33 106 77 35 109 77 36 105 76 34 108 76 37 110 78 37 110 78 39 108 76 35 108 76 35 110 78 39 109 77 38 110 78 39 109 77 36 108 76 35 106 77 37 109 77 38 109 77 36 109 77 36 110 77 36 109 77 36 107 78 38 108 76 37 110 77 36 110 77 36 109 77 36 109 76 35 108 76 35 110 78 39 110 78 39 108 79 39 109 77 38 106 74 33 105 73 34 98 59 26 94 52 27 91 44 24 87 35 22 88 36 23 87 35 22 87 35 21 84 35 21 84 35 21 70 27 18 68 28 18 46 19 12 45 18 9 47 20 11 49 22 11 44 24 13 41 24 14 40 23 13 32 13 7 33 14 8 34 14 7 35 15 8 35 15 8 35 15 8 34 15 8 35 16 9 21 21 19 15 27 25 11 27 27 1 28 35 2 30 33 0 29 33 2 30 34 0 30 32 0 28 32 1 29 32 0 29 35 1 28 35 0 30 32 1 29 32 1 29 32 0 31 33 2 33 35 1 32 34 0 34 35 2 34 33 3 33 33 3 33 35 3 33 33 4 34 34 3 33 35 2 32 34 2 31 35 
83 33 22 82 33 19 83 33 22 84 35 21 86 34 23 81 33 21 54 21 12 54 21 14 48 19 11 47 18 12 73 43 17 82 51 22 94 64 30 109 77 36 107 75 36 108 76 35 108 76 35 109 77 38 108 77 33 109 77 38 107 78 38 109 77 38 107 75 36 108 79 39 109 80 40 110 78 39 108 76 35 109 77 36 108 76 37 107 75 34 109 77 36 110 78 37 108 76 35 108 76 35 110 78 37 107 75 36 109 78 34 109 77 36 109 77 36 108 76 35 109 77 36 109 77 36 108 76 37 109 77 38 108 79 39 104 72 33 104 71 30 94 48 25 92 41 24 89 37 23 88 36 23 89 35 23 87 35 22 86 37 23 87 35 22 88 36 23 47 18 10 47 20 11 47 18 10 47 18 10 52 29 15 55 32 16 63 41 18 67 47 20 59 41 17 33 19 8 34 17 9 32 13 7 32 13 7 35 15 8 37 14 8 35 14 9 38 15 9 35 15 8 33 16 9 23 22 18 5 31 30 3 32 30 0 34 33 0 33 34 0 33 35 0 34 35 0 31 33 1 30 34 2 34 31 1 36 32 0 34 33 1 32 34 1 32 34 0 31 33 1 32 34 1 35 36 1 36 32 10 45 39 10 45 39 16 54 43 17 55 44 11 46 39 6 41 35 4 39 35 
83 33 22 83 34 20 82 33 19 83 34 20 85 36 22 81 33 21 54 21 14 55 22 13 48 19 11 47 18 12 73 41 18 81 52 20 94 64 28 110 77 36 108 76 35 108 76 35 107 76 32 109 77 39 108 76 35 111 79 40 107 78 38 109 77 39 107 75 36 107 78 38 109 80 40 110 78 37 109 77 36 108 76 35 108 76 35 108 76 35 108 76 35 109 77 36 108 76 35 109 77 36 109 76 35 108 76 35 110 77 36 109 77 36 109 77 36 108 76 35 108 76 35 109 77 36 110 78 37 107 78 38 109 77 38 104 72 33 103 71 30 95 49 26 91 39 25 90 38 25 88 36 23 86 37 22 87 35 24 87 35 22 86 37 23 87 35 22 48 19 11 47 18 12 47 18 10 47 18 10 53 27 14 55 32 16 62 41 20 66 49 21 59 41 17 35 18 10 35 18 10 32 13 7 32 13 7 34 14 7 35 15 8 37 14 8 37 14 8 35 14 9 34 17 10 23 22 20 4 30 29 5 31 32 0 34 33 0 33 34 0 34 35 0 34 33 1 31 33 1 29 32 2 34 31 1 36 32 0 33 32 1 33 32 1 32 35 1 31 33 1 32 34 1 35 34 1 35 36 10 45 39 9 46 39 16 54 43 16 54 43 11 46 39 7 39 34 3 38 34 
83 33 22 85 33 20 83 34 20 81 33 19 76 32 21 73 30 21 46 17 9 46 17 11 54 25 11 57 25 14 91 61 27 102 70 31 104 75 35 109 77 36 109 77 36 105 76 34 109 77 38 109 77 36 107 78 38 108 76 35 107 75 34 107 78 38 106 77 37 108 76 37 108 76 37 108 76 35 109 77 36 109 77 38 108 76 35 108 76 35 108 76 35 108 76 35 109 77 36 108 76 35 109 77 36 109 77 36 109 77 38 108 76 35 109 77 36 107 75 34 109 77 36 108 76 35 109 77 36 107 75 34 108 76 35 97 58 27 98 54 25 92 41 24 90 38 25 89 37 23 88 36 23 86 37 23 88 36 23 85 36 22 71 32 17 73 31 19 47 18 10 47 18 12 48 21 12 48 20 9 61 39 18 70 50 23 72 53 23 72 53 23 73 54 24 70 50 23 66 44 20 38 20 10 37 20 10 31 12 8 31 12 6 35 14 9 35 11 7 34 14 7 34 13 8 34 15 9 30 17 11 25 20 16 3 33 31 5 34 32 0 35 29 0 36 32 0 35 31 2 34 31 0 35 29 0 35 29 1 36 30 3 35 30 1 36 29 1 36 29 1 37 27 1 39 26 2 38 26 11 47 33 9 47 32 9 45 31 9 45 31 3 39 25 2 35 24 1 37 23 
83 34 20 82 32 21 83 33 22 81 33 19 76 32 21 73 30 21 47 18 10 47 18 10 54 24 13 53 25 11 92 59 26 103 71 32 106 74 33 109 77 38 109 77 36 109 77 36 109 77 36 109 77 36 109 77 36 108 76 37 107 75 34 107 78 38 106 77 35 108 76 37 108 76 37 108 76 35 108 76 37 109 77 39 108 76 35 108 76 35 109 77 36 109 77 36 107 75 34 108 76 35 109 77 36 109 77 36 110 76 38 109 77 36 108 76 35 107 75 34 108 76 35 108 76 35 109 77 36 109 77 36 108 75 34 98 57 27 96 55 27 91 42 27 91 38 24 90 36 24 88 36 23 88 36 23 88 36 22 84 35 21 72 29 20 72 29 20 48 18 10 46 17 9 46 19 10 47 20 9 61 39 18 69 52 24 72 53 23 73 54 22 72 51 22 70 50 23 65 45 21 36 19 11 36 19 9 31 12 8 32 11 8 34 14 7 35 15 8 35 14 9 33 14 7 35 16 10 31 16 11 26 23 18 4 33 29 4 35 30 0 35 29 1 36 32 2 34 29 0 32 31 1 36 29 0 35 28 2 34 29 0 35 29 1 36 29 1 36 29 1 37 27 2 38 26 1 39 26 9 47 32 9 47 32 9 45 31 10 46 32 3 39 25 2 35 24 0 36 24 
