P3
100 50
255
54 59 62 56 60 63 55 60 63 57 61 62 56 60 63 55 59 62 55 60 63 54 59 62 55 59 62 51 59 61 51 59 62 42 54 66 40 54 65 36 48 36 34 44 19 34 45 15 32 43 11 32 43 11 33 44 12 32 43 11 29 42 14 32 43 11 30 40 13 31 40 9 33 29 17 34 25 16 48 38 28 55 45 35 51 36 29 41 28 22 34 25 18 23 24 6 23 24 6 23 26 7 23 26 7 50 49 44 54 53 49 62 64 63 66 66 66 66 66 66 65 65 65 66 68 67 65 67 66 65 67 66 64 66 65 63 64 66 63 65 64 62 63 65 62 63 65 60 64 65 53 58 62 47 57 59 39 45 43 27 35 22 33 36 25 39 43 29 42 45 34 65 65 65 65 65 63 64 66 63 64 66 65 64 64 64 63 64 66 60 64 67 58 62 63 62 63 65 65 65 65 63 65 64 59 63 64 59 63 64 59 63 64 58 62 63 53 58 62 52 57 61 47 55 57 47 55 57 47 55 57 51 56 60 51 54 59 53 57 58 55 56 58 53 57 60 52 56 57 52 56 59 52 56 59 50 55 59 47 55 58 50 55 59 48 56 59 48 56 59 49 57 60 48 56 59 50 55 61 50 55 59 52 56 57 52 57 60 51 56 60 51 56 60 47 52 58 45 49 58 
46 55 60 48 57 64 48 57 62 50 57 63 49 56 62 47 56 63 46 55 60 43 53 52 46 52 52 43 54 58 43 54 58 38 50 46 36 48 44 35 44 25 32 43 13 32 43 13 32 43 11 32 43 11 33 42 11 33 44 12 32 43 11 32 43 11 29 40 8 30 41 9 27 30 11 25 26 10 44 36 23 51 41 32 47 36 30 41 27 24 35 26 17 23 26 5 24 27 8 34 40 28 36 40 26 59 58 54 62 61 59 65 65 65 65 67 66 65 67 66 64 65 67 65 67 66 65 67 66 65 65 67 62 63 67 61 65 68 60 64 65 61 65 66 60 64 65 60 64 65 54 59 62 48 56 58 42 50 52 36 45 42 41 47 45 48 50 45 51 53 50 65 67 66 65 65 65 66 66 66 66 66 66 64 66 65 64 66 65 60 64 65 60 64 65 61 62 64 62 64 63 63 65 64 59 63 64 58 62 65 58 62 63 61 62 64 49 57 60 48 56 59 45 54 53 46 52 52 49 55 55 53 57 60 57 58 62 54 58 61 55 59 62 55 59 60 56 57 59 57 58 62 56 57 61 54 57 62 51 56 60 51 56 59 48 56 59 49 57 60 48 56 59 48 56 59 48 56 59 50 55 59 53 56 61 53 57 60 55 59 60 54 60 60 51 56 62 49 54 60 
42 52 62 44 54 63 45 55 64 45 55 64 44 54 63 41 54 63 42 53 59 37 49 47 38 50 46 38 52 55 38 53 56 36 48 36 33 46 29 34 44 19 32 43 9 32 43 11 32 43 11 32 43 11 32 43 11 32 43 13 32 43 11 32 43 11 30 39 12 32 41 12 23 31 7 22 27 5 43 35 22 51 41 32 47 36 30 40 26 23 35 26 17 22 25 6 25 30 10 41 46 39 44 47 40 63 63 63 66 66 66 66 66 66 66 66 66 66 66 66 64 66 65 65 67 66 63 65 64 64 65 67 61 65 68 60 64 65 61 65 66 60 64 67 60 64 65 60 64 63 54 60 60 49 57 60 45 53 56 41 50 55 44 52 55 55 56 60 56 57 59 65 65 65 65 65 63 65 65 65 65 65 65 65 65 65 64 66 65 61 65 66 60 64 65 61 65 66 64 65 67 63 64 66 60 64 65 60 64 65 59 63 64 59 63 64 48 57 62 47 55 58 43 52 51 42 51 46 50 56 54 55 59 60 57 58 60 54 58 59 57 58 62 55 59 60 54 58 59 55 59 60 54 58 59 52 57 61 51 56 60 51 56 60 50 55 59 48 56 59 48 56 59 47 57 59 48 56 59 51 56 60 55 59 62 55 59 60 56 57 61 54 59 62 49 57 59 50 55 59 
37 50 41 39 49 48 40 51 47 39 51 47 39 50 44 37 49 39 36 48 34 35 46 29 34 45 28 35 47 33 35 47 33 33 45 23 33 45 21 34 45 15 32 43 11 32 43 11 32 43 11 32 43 11 33 44 12 32 43 11 32 43 11 33 42 11 31 40 11 31 40 9 23 29 3 20 25 3 28 31 12 32 33 15 34 32 17 34 30 19 35 32 25 37 40 31 40 44 30 54 56 53 55 57 54 64 64 64 66 66 66 63 64 66 63 64 66 62 66 67 61 65 66 61 65 66 61 65 66 62 66 67 60 64 65 61 65 66 61 62 66 60 64 65 59 63 66 58 63 66 53 58 62 48 55 61 44 52 55 40 49 54 44 51 57 47 55 57 50 55 58 66 66 66 65 65 65 66 64 65 65 65 65 64 66 65 64 66 65 61 65 64 59 63 64 62 63 65 62 63 65 59 63 64 62 62 64 59 63 64 56 60 63 55 60 63 45 54 59 45 52 58 43 52 47 43 53 44 50 54 53 54 58 61 57 58 62 55 59 60 53 57 60 55 58 63 55 59 62 54 58 59 55 59 62 52 57 61 49 57 60 49 57 60 48 58 60 48 56 59 50 57 63 48 55 61 51 56 62 49 57 60 53 58 61 53 58 61 54 58 61 54 60 60 51 56 60 50 55 59 
33 45 23 34 45 28 33 46 28 34 47 30 34 46 24 33 43 16 32 43 13 32 43 11 33 43 9 32 43 11 33 44 12 32 43 11 33 44 10 31 42 10 32 43 11 30 44 11 32 41 10 33 42 11 32 43 11 34 43 12 32 43 9 31 41 14 31 40 9 30 41 11 20 29 2 17 27 2 17 25 1 16 24 1 20 28 7 27 34 18 34 40 26 51 56 52 53 58 54 63 64 66 63 64 66 64 66 65 62 66 65 64 65 67 62 66 67 61 65 66 63 64 66 59 64 67 60 66 66 59 65 65 60 64 67 60 64 65 59 63 64 60 64 65 57 62 65 55 60 63 51 56 60 47 54 60 43 54 58 41 50 57 42 53 57 42 53 57 44 53 58 65 65 65 66 66 68 65 65 65 64 66 65 64 64 64 65 65 65 63 65 64 59 63 64 60 64 65 60 64 65 59 63 64 59 63 64 55 63 65 53 58 62 52 57 60 45 53 55 44 52 55 46 54 43 46 53 45 50 55 49 55 59 62 55 59 62 54 58 61 55 59 62 56 60 61 55 59 62 54 58 59 54 58 59 51 56 60 52 57 61 48 56 59 49 57 60 48 56 59 49 56 62 48 58 60 49 54 60 51 56 60 52 57 63 55 56 61 54 58 61 54 58 61 51 56 62 49 57 59 
34 44 19 34 46 22 33 45 23 34 46 26 31 45 22 32 43 13 30 43 13 32 43 9 33 44 12 33 42 11 33 44 14 32 43 11 32 43 11 32 43 11 33 44 14 33 44 12 32 43 13 32 43 11 32 43 11 33 44 12 32 43 11 32 43 11 30 39 10 29 38 9 19 29 4 17 25 2 19 27 4 19 28 7 27 31 14 37 40 29 42 45 36 55 60 56 55 60 56 63 65 64 62 66 67 64 65 67 63 64 66 62 63 65 61 65 66 60 64 65 60 64 65 60 64 65 61 65 66 60 64 67 60 64 65 60 64 65 60 64 65 60 64 65 55 60 63 55 60 63 49 57 60 46 56 58 44 53 58 41 50 55 42 51 56 42 53 57 47 54 62 65 65 65 66 66 66 65 65 67 64 66 65 65 65 65 65 65 65 62 64 63 59 63 64 59 63 64 60 64 65 59 63 64 59 63 64 57 63 63 52 55 60 52 57 61 44 54 56 43 51 54 44 51 43 44 52 39 49 54 48 54 58 61 55 59 62 55 59 62 54 58 61 54 58 61 55 59 62 54 58 59 54 58 59 51 56 62 48 55 61 49 56 62 48 57 62 48 56 59 51 56 62 51 56 60 51 56 60 52 57 63 52 57 61 52 56 59 53 57 60 55 60 63 51 56 60 52 57 61 
32 43 11 31 42 10 32 43 11 31 42 12 33 44 12 33 44 12 32 43 11 32 43 11 32 43 13 32 43 11 32 43 11 31 42 8 34 43 12 33 42 11 33 44 14 32 43 13 32 43 11 33 44 12 32 43 11 32 43 11 30 44 11 30 44 11 28 37 8 30 39 10 20 28 4 17 25 2 28 35 17 35 42 26 48 49 41 65 67 66 64 66 65 64 66 65 64 66 65 63 64 66 61 65 66 60 64 65 60 64 67 62 63 65 63 64 66 61 65 66 61 65 66 60 64 67 60 64 67 60 64 67 60 64 67 59 63 64 57 61 64 56 61 64 51 56 60 48 56 59 48 56 59 47 55 58 43 52 57 40 49 54 44 52 55 50 55 59 52 57 60 66 66 66 66 66 66 66 66 66 66 66 66 66 66 66 65 65 65 62 63 65 60 64 65 60 64 65 59 63 64 58 62 63 56 60 63 55 59 60 46 56 58 47 55 58 42 51 50 40 50 49 39 50 33 41 50 31 47 54 46 53 58 61 54 58 61 55 59 62 54 58 61 53 58 61 54 58 61 52 57 60 51 56 60 50 55 59 51 56 60 51 56 59 51 56 60 51 56 60 52 57 61 51 56 62 49 57 60 49 56 62 52 57 61 52 57 61 54 57 62 53 58 61 54 58 61 54 58 61 
32 43 11 33 44 12 31 42 10 33 44 12 32 43 11 33 44 12 32 43 11 32 43 11 31 42 10 33 44 12 32 43 11 33 44 12 34 43 12 31 42 10 32 43 9 32 43 11 32 43 13 33 44 14 33 42 11 32 43 11 33 44 12 33 44 14 28 37 10 27 37 10 22 30 6 18 26 3 29 35 21 38 44 30 50 51 45 66 66 66 65 67 66 65 65 67 65 65 65 61 65 66 62 66 67 60 65 68 63 64 66 61 62 66 62 63 65 62 63 68 60 64 65 59 63 66 59 63 64 59 63 64 59 63 64 57 61 64 56 60 63 55 60 63 51 56 60 49 57 60 48 56 59 45 55 57 43 50 56 39 48 53 43 53 55 48 53 56 49 54 57 66 66 66 65 65 65 67 67 67 66 66 66 65 67 66 66 66 66 61 65 66 60 64 65 58 62 63 59 63 64 58 62 63 56 61 64 53 58 61 44 53 58 43 54 56 42 51 50 41 52 48 41 49 34 39 51 31 47 52 45 55 59 62 54 58 61 54 58 61 54 58 61 54 58 61 54 58 61 52 57 61 52 57 61 52 57 61 51 56 60 51 56 60 49 57 60 50 58 61 50 58 61 50 55 61 49 57 60 49 57 59 53 58 62 52 57 63 53 58 62 53 58 62 52 57 61 53 58 61 
33 42 11 33 42 11 33 44 12 36 47 13 34 45 13 32 43 11 32 43 11 32 43 11 31 42 10 34 45 13 33 44 10 35 46 14 35 46 12 33 44 12 31 42 10 32 43 11 32 43 11 32 43 11 32 43 11 33 44 12 33 44 12 34 43 12 29 38 9 28 37 8 24 32 9 21 29 8 51 52 44 67 67 67 66 66 66 68 68 68 66 66 68 61 65 66 62 66 67 63 65 64 63 64 66 59 63 66 59 63 64 57 62 65 53 61 64 53 61 63 56 61 64 54 59 62 51 59 62 50 58 60 47 57 59 48 56 59 46 56 58 47 55 58 48 55 63 47 54 60 46 54 57 42 51 56 38 48 50 35 46 50 38 43 49 39 39 41 41 42 44 65 65 65 67 67 67 66 66 66 67 67 67 64 65 67 65 67 66 61 65 66 61 65 66 55 60 63 53 58 62 52 57 61 48 58 60 47 55 58 39 50 56 41 48 54 41 52 48 42 53 49 41 50 33 40 49 28 48 56 43 56 60 61 54 58 61 50 58 61 49 57 60 49 57 60 48 57 62 52 57 60 52 57 61 51 56 60 53 58 62 52 57 61 49 57 60 49 57 60 49 57 60 49 57 60 49 56 62 50 58 61 48 55 61 48 55 61 46 55 60 46 55 60 46 55 62 49 56 64 
32 43 13 32 43 11 33 44 12 35 46 14 34 45 13 32 43 13 31 42 10 32 43 11 32 43 9 33 44 10 34 45 13 35 46 14 34 45 13 33 44 12 31 42 10 31 42 10 32 41 10 32 43 11 31 42 10 32 43 13 33 44 12 34 43 14 28 37 8 29 38 9 24 32 11 23 31 10 50 53 44 66 66 64 66 66 68 67 67 67 67 67 69 62 66 67 62 66 67 65 65 65 64 65 67 59 63 66 59 63 64 57 63 63 54 59 62 54 59 63 56 62 62 54 59 62 52 57 61 50 58 61 48 56 59 49 56 62 48 56 59 48 56 59 48 56 59 48 56 59 45 53 56 43 53 55 40 49 54 36 45 50 38 43 47 40 40 40 43 43 45 66 66 66 65 65 65 65 65 63 66 64 65 64 65 67 64 66 65 61 65 66 61 65 66 56 61 64 52 57 61 52 57 61 48 56 58 47 55 57 39 48 53 38 47 52 40 51 47 40 51 47 41 50 33 41 50 29 48 56 45 56 60 63 54 59 62 49 57 60 52 57 61 50 58 61 50 58 61 53 58 62 53 58 62 53 58 62 53 58 62 49 59 61 50 58 61 51 59 62 49 57 60 49 57 60 51 56 60 49 57 60 49 56 62 47 58 62 47 56 63 45 56 62 47 56 63 47 56 63 
31 40 9 32 41 10 31 40 11 30 39 12 31 42 12 36 47 13 37 48 14 39 50 16 38 49 15 33 44 14 34 43 16 29 38 11 29 38 11 32 43 13 36 47 13 38 49 15 37 51 16 38 49 15 34 45 13 34 45 13 29 38 11 28 37 8 28 37 8 28 37 10 47 53 41 53 55 50 57 61 60 63 64 66 63 64 66 65 67 66 62 66 67 62 66 67 63 67 68 61 65 68 59 63 64 59 68 67 61 65 66 62 63 65 59 63 66 57 62 65 56 61 64 52 60 62 48 56 59 49 57 60 48 56 59 47 55 58 47 55 58 46 56 58 43 52 57 43 52 57 41 50 59 39 50 54 37 40 45 31 32 34 32 33 35 36 36 36 37 37 39 51 51 51 53 53 53 66 66 66 65 65 65 61 65 66 61 65 66 56 62 62 56 61 64 51 59 62 49 56 62 47 54 60 43 52 57 43 52 57 40 48 51 43 48 52 45 52 45 45 52 45 40 49 28 39 47 24 40 51 43 45 54 61 46 55 62 49 56 62 51 56 60 52 57 61 51 56 62 47 56 61 48 55 61 49 56 62 51 56 62 51 56 62 50 57 63 50 57 63 48 55 61 49 57 60 49 57 60 50 58 61 49 57 60 50 57 63 49 56 62 48 55 61 49 56 62 49 56 62 
30 41 11 30 41 11 30 39 10 28 37 10 31 40 11 36 47 15 37 48 16 40 51 17 39 50 16 33 44 14 33 43 9 29 38 9 28 37 10 34 43 14 37 48 16 39 50 16 40 52 16 38 49 15 36 47 15 35 46 14 27 36 9 27 36 9 27 36 7 28 37 8 49 55 45 58 58 56 62 63 65 64 66 65 64 65 67 61 65 66 61 65 66 61 65 66 62 66 67 59 63 66 58 62 65 61 65 66 61 65 64 61 65 66 61 65 66 59 63 64 56 61 64 54 59 63 48 56 59 47 56 61 48 55 61 48 56 59 47 54 60 48 55 61 43 52 57 42 51 56 41 50 55 39 48 53 34 39 43 30 31 33 31 31 33 34 34 36 37 37 39 50 50 50 50 50 50 66 66 66 65 65 65 62 63 65 61 65 66 56 61 64 54 59 62 49 57 60 47 55 58 45 53 56 41 50 57 41 50 55 41 49 52 40 47 53 43 50 43 46 51 45 40 50 26 38 48 23 40 52 42 43 53 63 45 54 61 50 57 63 49 57 60 51 56 60 49 57 60 47 56 61 47 54 60 48 55 61 49 56 62 49 56 62 49 56 62 49 56 62 48 55 61 52 57 61 49 57 60 49 56 62 49 57 60 50 57 63 50 55 61 51 56 62 52 57 61 50 58 61 
29 38 9 29 38 9 30 39 10 29 38 9 28 39 9 29 39 12 29 38 9 30 39 10 30 39 12 29 38 9 29 38 9 29 38 11 28 37 8 32 38 10 29 38 9 30 39 10 30 39 10 30 39 10 29 38 9 28 36 12 27 38 8 28 37 10 27 36 9 27 36 7 52 57 50 60 64 65 60 64 65 61 65 66 63 64 66 61 65 66 60 66 66 59 63 64 59 65 65 50 60 62 50 60 62 51 59 62 52 59 65 55 60 64 54 59 62 54 59 63 53 58 61 52 57 61 47 55 58 47 54 60 44 54 56 45 54 59 39 48 53 40 49 56 40 49 54 40 49 54 37 42 46 33 37 40 34 35 39 32 32 32 33 33 33 33 33 33 34 34 34 40 40 40 39 39 39 59 61 60 59 60 62 57 63 63 61 62 64 52 60 62 50 55 59 45 53 56 41 46 50 42 47 51 40 44 47 40 44 47 43 44 48 44 45 49 48 53 46 49 54 47 40 50 26 38 48 23 43 50 42 49 56 62 49 56 62 48 55 61 48 57 62 48 55 61 48 57 62 49 56 62 48 55 61 50 58 61 48 56 59 51 56 62 49 56 62 49 56 62 49 56 62 48 56 59 48 55 61 50 57 63 50 58 61 50 58 61 50 58 61 49 57 60 49 57 60 48 57 62 
28 37 8 29 38 9 28 37 8 28 37 8 28 38 11 25 35 8 27 36 9 27 36 9 27 36 9 28 37 8 28 37 10 28 37 8 28 37 8 28 37 10 27 36 7 28 37 8 26 35 8 27 36 9 26 35 8 27 36 9 29 38 9 28 37 8 26 35 8 26 35 8 51 56 50 60 64 65 61 65 66 61 65 68 62 66 67 60 64 67 60 64 65 60 64 65 58 64 64 49 57 60 49 57 60 49 57 60 47 58 60 49 59 61 51 59 62 53 58 64 52 57 60 50 58 61 48 55 61 47 55 58 44 53 58 45 55 57 37 48 54 36 47 53 39 50 56 40 51 53 34 39 42 32 33 35 31 32 34 33 33 33 33 33 33 33 33 33 34 34 32 36 36 36 35 35 35 57 58 62 56 60 61 58 62 63 58 62 63 50 58 61 47 55 58 44 52 55 41 46 50 40 45 48 41 43 42 41 42 44 42 43 47 41 42 44 52 55 48 52 55 46 42 50 29 36 49 23 45 53 42 52 57 63 48 56 59 48 55 61 47 56 61 45 56 62 46 55 62 51 56 60 48 55 61 51 56 60 50 55 59 50 57 63 48 55 61 48 55 61 50 57 63 49 56 62 50 57 65 48 55 61 50 57 63 49 57 60 49 57 60 50 58 61 50 58 61 50 58 61 
27 36 9 28 38 11 31 37 11 28 37 6 28 37 8 28 37 8 28 37 8 28 37 8 27 36 7 29 38 9 28 37 8 29 38 9 28 37 10 29 38 7 28 39 9 28 37 8 28 37 8 31 37 11 29 37 13 29 37 13 29 42 22 30 42 22 23 28 5 20 28 5 46 52 48 55 61 61 58 62 63 59 63 64 58 62 65 57 61 62 56 62 62 51 59 61 52 57 61 43 52 57 44 52 55 42 52 54 42 50 53 44 51 57 44 51 57 42 51 56 43 52 57 43 52 57 42 51 56 42 51 56 41 48 54 42 51 58 37 44 50 35 44 49 35 40 43 35 40 43 34 34 34 33 33 33 33 33 33 33 33 33 33 33 33 34 34 34 33 33 33 34 34 34 34 34 34 48 48 48 48 48 48 53 57 58 55 60 63 49 54 57 42 50 53 43 48 52 40 44 47 41 44 49 46 46 48 46 46 48 46 48 47 47 47 49 48 51 42 46 52 42 42 50 27 39 48 21 44 52 41 49 56 62 49 56 62 48 55 61 50 57 63 48 55 61 49 57 60 50 58 61 50 58 61 50 57 63 49 57 60 49 57 60 51 56 59 48 52 61 42 53 57 46 55 60 53 58 61 52 57 61 51 59 62 53 57 60 52 57 61 53 58 62 53 58 62 53 58 62 
29 37 13 30 40 15 29 38 11 28 37 8 28 37 6 28 37 8 27 38 8 28 37 8 29 38 7 27 38 6 27 38 8 29 38 9 29 38 9 28 37 10 29 38 9 28 37 8 28 37 6 29 40 10 30 38 14 29 39 14 31 43 31 32 44 34 17 25 2 17 25 2 41 50 45 50 58 61 53 61 63 58 63 66 56 61 64 54 59 62 54 59 62 49 57 60 47 54 60 41 48 54 41 50 57 39 46 52 38 45 51 38 47 52 38 49 53 37 48 52 38 49 55 38 49 55 38 49 55 39 48 55 39 48 57 39 48 55 38 43 47 38 43 47 33 34 36 31 32 34 33 33 33 33 33 33 33 33 33 33 33 33 33 33 33 33 33 33 34 34 34 33 33 33 33 33 33 40 40 40 40 40 40 49 54 57 52 60 63 45 53 56 40 48 51 41 46 50 44 45 49 45 46 48 48 48 48 49 49 49 50 52 51 51 51 53 48 51 42 45 51 39 40 48 25 39 49 22 45 53 42 51 56 60 50 58 61 49 56 62 49 57 60 48 57 62 50 58 61 52 57 61 50 57 63 50 58 61 48 56 59 50 58 61 52 57 61 45 54 61 38 52 61 46 55 62 54 59 62 55 59 60 53 58 61 52 57 61 52 57 61 52 57 61 56 59 64 56 60 61 
31 41 30 33 43 32 30 41 27 28 39 22 30 39 20 28 37 16 30 35 13 29 33 10 28 33 10 29 33 10 28 32 9 28 32 9 29 31 7 28 31 10 30 29 8 28 36 15 29 40 23 29 40 26 30 40 29 30 42 28 33 45 41 34 46 42 24 35 21 23 33 22 41 50 45 50 55 58 50 58 60 53 58 61 50 58 60 52 57 61 49 57 60 47 54 60 46 53 59 42 50 53 44 49 53 44 47 52 43 47 50 43 46 51 42 47 51 39 47 50 39 47 50 39 44 48 38 43 47 36 41 45 35 45 47 35 43 46 34 39 42 37 41 44 33 33 33 33 33 33 33 33 33 33 33 33 32 32 32 32 32 32 33 33 33 34 34 34 33 33 33 33 33 33 33 33 33 39 39 39 38 38 38 48 52 55 52 57 61 43 48 52 41 44 49 41 45 48 44 45 47 45 46 48 48 49 51 49 49 51 50 50 52 50 50 50 48 51 40 46 52 38 42 50 29 39 49 22 45 53 42 50 57 63 51 59 62 50 58 61 51 59 62 50 58 61 50 57 63 50 57 63 50 58 61 47 56 61 47 56 63 45 59 62 46 57 63 44 55 61 39 54 61 41 54 60 49 56 62 51 58 64 51 59 62 50 58 61 53 58 62 53 58 62 50 57 63 50 58 61 
37 51 60 38 52 61 33 48 53 30 44 47 29 39 40 29 34 28 28 31 24 28 25 10 28 25 10 28 25 10 29 26 9 27 24 9 26 22 10 25 21 9 26 20 8 26 31 27 30 43 49 30 45 52 31 45 54 32 46 55 35 52 60 37 51 60 36 49 55 35 48 56 43 48 51 45 49 48 45 50 53 46 51 55 44 51 57 44 55 59 43 54 58 44 52 55 43 51 54 46 47 49 47 48 50 48 50 49 49 49 51 46 47 49 46 47 49 43 44 46 40 41 43 36 37 39 33 34 36 32 33 35 32 32 32 32 32 32 33 33 33 32 32 34 34 34 34 33 33 35 32 32 32 33 33 31 33 33 33 33 33 33 33 33 33 33 33 33 33 33 33 32 32 32 33 33 33 36 36 36 35 37 36 43 48 51 47 52 56 41 45 48 38 39 43 44 45 47 49 51 50 50 50 50 51 51 51 51 51 51 50 50 52 50 50 50 48 51 40 48 51 40 42 50 27 39 50 20 46 54 43 52 57 63 48 56 59 51 58 64 50 58 61 50 57 63 50 58 61 49 56 62 49 56 62 41 53 65 39 53 64 38 52 63 40 53 62 40 53 61 38 53 56 39 52 60 38 52 61 39 53 62 49 56 64 51 56 62 50 58 61 50 58 61 44 54 63 40 53 61 
36 50 59 37 50 59 33 48 55 30 43 49 29 40 42 27 32 28 27 29 24 29 23 11 29 23 11 29 23 9 29 23 11 26 22 10 26 20 8 24 18 6 22 18 6 27 29 26 27 40 46 29 42 50 32 45 54 33 46 55 35 49 58 37 50 59 36 49 57 37 52 59 43 51 54 46 52 52 45 50 53 46 51 54 47 52 56 46 56 58 46 53 59 47 52 56 46 51 54 48 48 50 48 48 48 49 51 50 49 51 50 48 50 49 48 49 51 45 46 48 42 43 45 38 39 41 32 33 35 32 33 35 33 33 33 33 33 31 33 33 33 33 33 35 32 32 32 34 34 34 34 34 34 33 33 33 33 33 33 33 33 33 35 35 35 33 33 33 33 33 33 32 32 32 32 32 32 35 35 35 36 36 36 42 46 49 45 50 53 41 45 46 42 43 45 45 46 48 48 49 51 49 49 49 50 50 50 51 51 51 51 51 49 50 50 50 44 50 36 44 51 35 42 51 30 42 52 27 47 54 46 51 58 64 51 56 62 52 57 61 51 59 62 50 58 61 50 58 61 48 55 61 47 54 60 39 53 56 37 51 52 40 54 57 38 52 55 39 51 51 38 50 46 38 50 48 39 51 49 38 50 50 45 55 57 44 54 56 48 55 61 47 56 61 42 55 63 40 53 61 
32 45 54 31 44 52 30 44 53 32 42 52 28 37 44 23 27 26 25 23 24 29 16 10 30 17 11 28 15 9 30 15 10 23 12 8 23 12 8 23 12 8 24 14 5 23 23 23 22 33 39 26 36 45 29 43 52 29 43 52 30 44 53 31 43 55 39 52 61 39 52 60 45 55 57 48 56 58 46 50 53 44 48 49 49 50 52 54 55 57 54 54 56 54 54 54 54 54 54 54 54 52 54 52 53 54 54 56 53 53 53 52 52 52 51 51 51 49 49 49 46 46 46 40 40 40 33 33 33 34 34 34 33 33 35 34 34 34 33 33 33 33 33 33 32 32 32 32 32 32 33 33 33 33 33 33 32 32 32 33 33 33 33 33 33 34 34 34 34 34 34 32 32 32 31 31 31 31 31 31 31 32 27 36 38 37 39 40 42 47 48 50 53 55 54 50 52 51 48 50 49 47 49 48 51 51 51 50 50 52 50 51 53 51 51 51 37 44 26 39 43 28 46 52 40 48 56 45 50 56 54 52 57 63 53 58 62 54 59 63 53 58 61 54 58 61 54 59 63 41 54 62 40 53 61 37 50 33 37 49 27 38 50 30 41 50 33 37 47 22 34 45 15 34 45 15 34 44 17 34 44 20 36 48 44 36 48 46 36 53 61 38 52 61 38 52 61 38 52 61 
32 47 54 31 44 53 30 45 52 30 43 52 29 36 44 25 26 28 25 24 22 29 16 10 29 16 8 28 15 9 29 16 10 25 14 10 23 12 8 23 12 8 22 11 5 22 22 24 22 33 39 23 36 44 30 45 52 29 43 52 29 43 52 29 43 52 38 52 61 40 54 63 45 55 57 48 56 58 46 50 53 46 47 51 48 49 51 54 55 57 54 56 55 54 54 54 53 53 53 54 54 54 54 54 54 54 54 54 53 53 53 52 52 52 53 53 53 49 49 51 46 46 46 41 41 41 33 33 33 33 33 31 33 33 33 32 32 32 33 33 33 32 32 32 34 34 34 33 33 33 33 33 33 33 33 33 33 33 33 33 33 33 33 33 33 33 33 33 34 34 34 31 31 31 31 31 31 30 30 30 30 32 31 34 38 37 40 41 43 48 48 50 53 53 53 50 52 51 48 50 49 48 49 51 49 49 51 50 50 50 50 50 50 51 51 53 40 44 30 39 43 26 45 51 39 48 53 46 50 56 52 52 57 61 53 58 62 53 58 62 51 59 61 56 60 63 53 58 61 41 54 62 40 53 62 38 51 31 39 51 27 37 49 29 39 50 33 36 48 24 34 43 14 32 43 11 34 44 17 34 44 19 37 49 45 38 50 46 39 53 62 39 52 61 38 52 61 38 52 61 
35 48 57 32 46 55 32 45 54 30 42 54 25 38 46 21 30 37 22 27 30 20 19 17 22 18 17 22 14 11 22 14 12 21 16 13 21 16 13 19 19 19 20 21 23 19 26 32 23 32 39 24 37 45 29 43 52 29 43 54 33 47 56 32 46 55 39 53 64 36 53 61 50 55 59 53 57 58 55 57 56 55 55 55 57 57 57 58 58 58 56 56 56 54 54 54 53 53 53 53 53 53 54 52 53 53 53 53 54 54 54 49 49 49 48 48 48 46 46 46 46 46 46 41 41 41 34 34 34 34 34 34 32 32 32 33 33 33 33 33 33 33 33 33 33 33 33 32 32 32 32 32 32 33 33 33 34 34 34 33 33 33 34 34 34 34 34 34 34 34 34 28 28 28 29 29 29 28 28 28 28 28 28 35 35 35 37 37 37 50 50 50 56 56 56 56 56 58 57 57 57 56 56 56 52 52 52 52 54 53 53 55 54 53 55 54 40 47 29 39 49 24 39 50 34 38 50 38 43 54 50 49 56 62 47 56 65 46 55 62 46 55 62 38 52 53 39 53 54 37 47 20 39 49 22 37 47 20 36 49 19 34 45 13 33 44 12 31 42 10 33 42 11 33 42 11 31 42 10 31 42 12 32 43 11 32 43 9 32 43 13 32 43 13 30 41 9 33 42 13 
35 48 57 34 47 56 31 45 54 30 44 53 25 38 46 21 30 35 23 28 32 20 19 17 22 18 17 23 15 12 21 16 12 21 16 13 21 15 15 23 19 20 18 22 23 20 27 33 23 32 39 26 36 46 30 43 52 30 43 52 32 46 55 33 47 56 37 51 60 38 50 64 48 56 59 53 57 56 55 56 58 56 56 56 57 57 57 58 58 58 56 56 56 53 53 53 54 54 54 53 53 53 53 53 53 53 53 53 54 54 54 49 49 49 48 48 48 47 47 47 45 45 45 41 41 41 34 34 34 33 33 33 31 33 32 32 32 32 33 33 33 33 33 33 34 34 34 33 33 33 33 33 33 33 33 35 33 33 33 33 33 33 34 34 34 34 34 34 34 34 34 29 29 29 29 29 29 28 28 28 28 28 28 35 35 35 37 37 37 50 50 50 56 56 58 56 56 56 57 57 57 55 55 57 51 51 53 52 52 52 52 54 53 52 54 53 43 51 30 40 48 25 39 50 34 38 50 38 44 53 50 47 56 63 48 57 64 48 57 64 46 55 60 38 52 53 41 52 54 38 48 21 39 49 22 38 48 21 38 49 19 35 46 14 32 43 11 32 43 11 32 43 11 32 43 11 31 42 10 31 42 10 31 42 10 31 42 10 32 43 13 33 44 14 31 42 12 32 41 12 
52 57 61 50 55 59 44 54 56 37 50 59 35 48 57 31 44 53 30 43 52 26 39 47 26 39 47 27 37 46 26 37 43 25 38 44 25 35 44 28 38 48 29 39 48 30 43 52 31 44 53 33 47 56 35 49 58 38 48 58 45 54 61 44 55 61 53 58 62 53 58 64 50 55 58 50 56 56 54 55 57 57 55 56 57 57 57 56 56 56 56 56 56 54 54 54 52 52 52 53 53 53 53 53 53 54 54 54 54 54 54 48 48 48 46 46 46 45 45 45 45 45 45 42 42 42 35 35 35 34 34 34 31 31 31 31 31 31 33 33 33 33 33 33 32 32 32 33 33 33 33 33 33 34 34 34 33 33 33 33 33 33 34 34 34 34 34 34 33 33 33 28 28 28 28 28 28 28 28 28 29 29 29 30 30 30 31 31 31 47 47 47 56 56 58 58 58 60 60 61 63 61 62 64 64 65 67 64 64 64 66 64 65 65 65 65 40 48 27 37 46 17 38 49 19 39 50 20 38 50 28 40 51 35 39 50 34 38 50 28 38 50 28 37 50 22 40 51 21 37 46 17 36 47 17 33 44 14 33 44 12 33 44 12 32 43 11 31 42 12 32 43 13 33 44 14 31 42 10 31 42 10 32 43 11 32 41 12 33 44 12 33 42 13 29 40 10 30 39 10 
52 57 61 53 58 62 46 53 59 40 50 59 36 49 58 31 45 56 31 45 56 28 40 52 28 43 50 26 39 48 26 39 48 26 39 48 27 40 49 27 41 50 29 42 51 30 44 53 32 46 55 34 47 56 37 50 59 35 50 57 44 55 61 45 56 62 54 59 63 54 58 61 50 55 59 49 54 57 53 57 56 57 57 57 57 57 57 57 57 57 56 56 56 53 53 53 53 53 53 54 54 54 53 53 53 54 54 54 53 53 53 46 46 46 44 44 44 45 45 45 46 46 46 42 42 42 35 35 35 34 34 34 31 31 31 31 31 31 33 33 33 33 33 33 33 33 33 33 33 33 33 33 33 32 32 32 33 33 33 33 33 33 34 34 34 35 35 35 33 33 33 28 28 28 28 28 28 28 28 28 28 28 30 30 30 30 30 30 30 46 46 46 57 57 59 58 60 59 61 62 64 59 63 64 65 67 66 67 67 67 68 66 67 68 66 67 40 48 24 35 44 17 38 47 20 39 48 17 38 50 26 38 51 33 38 50 30 39 49 25 40 48 24 38 49 17 38 47 18 35 46 14 35 46 12 33 44 12 31 42 10 31 42 10 32 43 11 32 43 9 32 43 11 32 43 11 31 42 10 31 42 10 32 43 11 33 42 13 32 43 11 33 42 13 30 39 10 28 37 8 
54 60 60 56 60 63 54 58 61 56 60 63 54 57 62 48 56 59 49 57 60 48 56 59 47 55 58 44 54 56 44 53 58 45 52 58 45 53 56 44 53 58 43 54 60 39 52 60 36 50 59 37 51 60 39 52 61 39 52 60 60 60 62 59 60 62 44 55 61 45 54 63 47 55 58 48 57 56 54 58 59 58 56 57 55 55 55 56 56 56 56 56 56 54 54 54 54 54 54 53 53 53 53 53 53 52 52 52 52 52 52 45 45 45 41 41 41 44 44 44 45 45 45 42 42 42 37 37 37 34 34 34 32 32 32 32 32 32 32 32 32 32 32 32 33 33 33 32 32 32 33 33 33 33 33 33 32 32 32 33 33 33 33 33 33 34 34 34 34 34 34 28 28 28 28 28 28 28 28 28 28 28 28 27 29 28 28 28 28 42 44 43 52 54 53 58 60 59 64 66 65 65 67 66 69 67 68 67 67 67 66 66 66 68 68 68 37 46 19 34 43 12 34 45 13 33 44 14 36 45 18 36 46 19 36 46 19 36 47 17 35 46 16 33 44 12 35 44 13 34 43 12 33 44 10 32 43 11 32 43 9 32 43 11 31 42 10 31 42 10 31 41 14 30 41 11 31 42 10 31 42 10 31 42 10 31 42 10 29 40 10 30 39 10 29 38 9 28 37 8 
51 57 57 57 58 62 59 60 64 62 62 62 60 61 63 54 59 62 55 61 61 54 59 62 53 58 61 52 57 61 52 57 61 53 56 61 52 57 61 49 56 62 46 55 62 41 54 62 38 52 61 39 53 62 39 52 61 42 52 61 62 62 62 62 62 62 41 54 62 40 53 61 47 55 58 46 56 57 53 57 58 55 57 56 56 56 56 56 56 56 55 55 55 53 53 53 53 53 53 54 54 54 55 55 55 51 51 51 52 52 52 44 44 44 42 42 42 44 44 44 45 45 45 42 42 42 37 37 37 36 36 36 32 32 32 33 33 33 32 32 32 33 33 33 33 33 33 33 33 33 33 33 33 32 32 32 33 33 33 33 33 33 34 34 34 34 34 34 33 33 33 28 28 28 28 28 28 28 28 28 28 28 28 28 28 28 27 29 28 41 43 40 50 51 53 58 59 61 66 66 66 67 67 67 66 66 64 67 67 67 67 67 67 65 65 65 37 47 20 31 42 10 33 44 12 33 44 14 34 45 13 36 47 15 35 45 18 34 45 13 34 45 15 32 43 11 32 43 11 31 42 10 31 42 12 31 42 10 32 43 13 32 43 11 32 43 11 32 43 11 32 43 11 32 43 11 32 43 11 32 43 11 32 43 11 31 42 10 29 38 9 29 38 9 28 37 8 30 39 10 
48 56 58 54 59 63 53 58 62 57 61 62 56 60 61 52 57 61 52 57 61 49 56 62 47 57 59 52 57 61 51 56 60 50 58 61 52 57 61 51 59 62 52 57 61 47 56 61 41 54 62 44 54 63 43 53 62 45 56 62 63 61 64 62 60 61 39 50 54 36 51 54 45 53 55 47 55 58 54 55 59 57 57 57 56 56 56 55 55 55 55 55 55 53 53 53 53 53 53 53 53 53 53 53 53 48 48 48 47 47 47 44 44 44 43 43 43 44 44 44 45 45 45 42 42 42 37 37 37 37 37 37 36 38 37 36 38 37 41 42 44 42 43 45 35 36 38 34 34 34 34 34 34 32 32 32 32 32 32 33 33 33 34 34 34 35 35 35 33 33 33 29 29 29 28 28 28 29 29 29 28 28 28 28 28 28 29 29 29 39 39 39 43 44 46 54 54 56 66 66 66 66 66 66 67 67 67 65 67 66 67 67 67 67 67 67 35 45 18 31 42 10 33 44 12 34 43 14 33 44 14 34 45 13 32 43 11 32 43 13 33 42 11 32 43 13 32 43 11 31 42 10 31 42 10 31 42 10 31 42 10 31 42 10 32 43 11 32 43 11 31 42 12 30 40 13 31 42 10 31 42 10 29 40 10 29 40 10 30 39 8 31 40 11 28 37 8 27 36 9 
44 54 55 48 57 62 49 57 60 52 57 61 49 56 62 49 57 60 49 56 62 42 53 59 42 53 59 51 56 60 52 57 61 50 58 61 48 58 60 55 59 62 58 59 61 53 58 61 45 56 60 46 55 62 43 54 60 47 56 61 62 62 62 61 61 61 35 47 47 37 49 49 44 52 54 47 55 58 51 55 58 58 58 58 56 56 56 55 55 55 56 56 56 53 53 53 53 53 53 52 52 52 51 51 51 44 44 44 44 44 44 43 43 43 43 43 43 45 45 45 45 45 45 43 43 43 38 38 38 39 39 39 42 42 42 42 43 45 53 54 56 53 54 56 37 38 40 34 35 37 35 35 35 32 32 32 32 32 32 33 33 33 33 33 33 35 35 35 33 33 33 28 28 28 28 28 28 28 28 28 28 28 28 29 29 31 29 29 31 34 34 34 38 38 38 51 51 51 66 66 66 66 66 66 67 67 67 65 67 66 66 66 68 66 66 68 34 44 17 30 41 9 32 43 13 32 41 10 32 43 11 32 43 11 32 43 11 34 43 12 33 42 13 32 43 11 32 43 13 33 42 11 31 42 10 31 42 10 31 42 10 31 42 10 30 41 11 31 42 8 31 42 10 31 42 8 32 41 10 30 41 9 27 38 8 28 39 9 31 40 9 31 40 11 29 38 9 27 36 9 
42 51 46 44 53 50 45 54 51 47 53 51 45 51 47 44 51 44 44 53 50 42 53 59 40 53 59 52 57 63 49 57 60 49 56 62 48 55 63 51 59 62 54 59 62 50 58 61 52 57 63 49 56 62 48 55 61 50 58 61 60 60 60 61 61 63 34 45 37 34 45 37 41 51 53 44 53 58 51 55 56 56 56 58 55 55 55 55 55 55 55 55 55 53 53 53 51 51 51 50 50 50 49 49 49 44 44 44 43 43 43 43 43 43 42 42 42 44 44 44 46 46 46 45 45 45 46 46 46 47 47 47 52 52 52 50 52 51 56 57 59 56 57 59 44 45 47 42 43 45 38 39 41 36 36 38 35 35 35 33 33 33 33 33 33 34 34 34 33 33 33 28 28 28 28 28 28 29 29 29 29 29 29 29 29 29 29 29 29 40 40 38 46 46 46 56 56 56 66 66 66 67 67 67 67 66 64 66 66 66 67 67 67 66 66 64 35 45 18 31 42 10 31 42 10 31 42 10 33 42 13 32 42 8 32 41 10 33 44 12 35 46 12 33 44 12 33 44 12 33 44 12 33 44 12 33 44 12 34 45 13 31 42 10 31 42 12 32 43 11 32 43 11 33 44 12 31 40 9 30 41 9 31 42 12 31 40 11 32 41 12 31 40 11 30 39 10 28 37 10 
39 50 33 38 50 36 38 51 34 36 49 32 34 46 26 32 43 13 32 43 26 37 50 56 37 52 57 49 56 62 48 56 59 47 56 63 46 57 63 47 56 63 46 55 62 54 59 62 60 62 61 59 60 62 53 58 62 54 59 62 59 61 60 60 60 60 29 40 24 31 39 24 34 48 48 37 50 58 49 54 57 56 56 58 55 55 55 54 54 54 54 54 54 54 54 54 52 52 52 45 45 45 44 44 44 43 41 42 42 42 42 41 41 41 41 41 41 43 43 43 46 46 46 49 51 50 56 58 57 59 61 60 65 65 65 66 66 66 63 63 63 62 63 65 54 59 62 54 59 63 45 49 52 41 45 48 37 38 42 33 33 35 33 33 33 35 35 35 33 33 33 27 29 28 28 28 28 30 30 30 29 29 31 29 29 29 29 29 29 47 49 48 62 60 61 63 63 63 66 66 66 66 66 66 67 67 65 66 66 66 66 66 66 65 67 66 36 45 16 32 41 10 31 42 12 32 41 12 31 42 12 30 39 10 32 43 13 37 48 16 37 48 16 36 47 13 37 48 14 33 47 14 34 48 13 37 51 16 37 48 16 32 46 13 29 42 12 34 45 13 36 47 17 34 45 13 31 40 11 32 43 13 36 45 14 36 47 13 31 40 11 32 41 12 29 38 9 28 37 10 
37 49 29 37 50 33 36 47 33 34 47 30 36 45 24 30 43 13 33 45 21 36 50 51 36 50 51 47 57 59 47 54 60 45 54 59 44 53 58 45 56 60 45 54 59 52 57 61 58 59 63 57 58 62 53 56 61 53 58 62 56 60 61 55 59 60 31 40 23 29 40 23 36 47 43 36 50 51 49 53 54 57 57 57 56 56 56 53 53 53 53 53 53 53 53 53 51 51 51 43 43 43 43 43 43 44 44 44 44 44 44 44 44 44 43 43 43 45 45 45 47 47 47 51 51 51 59 59 59 60 60 60 66 66 66 66 66 68 60 62 61 61 62 64 53 58 61 52 57 61 46 50 53 41 44 49 37 38 42 32 32 34 33 33 33 34 34 34 33 33 33 29 29 29 28 28 30 30 30 30 31 29 30 29 29 29 28 28 28 49 49 49 61 61 61 63 63 63 66 66 66 66 66 66 66 66 66 66 66 66 65 65 67 66 66 66 34 44 17 30 41 11 31 40 11 31 40 11 30 39 10 30 39 10 31 42 10 36 47 15 34 48 15 33 47 14 35 46 12 35 46 14 35 46 14 35 49 14 37 48 16 34 45 13 31 42 12 32 43 11 36 47 17 32 46 11 32 41 12 33 42 13 36 45 14 35 46 14 30 39 10 30 39 10 29 38 9 28 37 10 
39 50 18 38 49 17 35 46 14 31 42 10 31 42 12 32 43 13 32 42 15 34 44 20 31 45 20 35 49 49 38 48 49 34 47 40 36 47 39 35 49 49 36 52 52 42 53 57 46 56 65 45 55 64 46 57 63 46 55 64 38 51 60 39 52 60 27 36 9 30 36 8 32 36 11 26 36 11 47 50 41 57 57 59 56 56 56 53 53 53 52 52 52 50 50 50 48 48 48 40 40 40 40 40 40 48 50 49 51 51 51 56 56 56 58 58 58 62 62 62 65 65 65 65 65 65 65 65 65 66 66 66 67 67 67 66 66 66 57 61 62 56 60 61 48 56 58 49 54 58 44 54 56 43 52 57 38 42 45 32 32 32 33 33 33 34 34 34 32 32 32 28 28 28 28 28 28 29 29 29 30 30 30 28 28 28 27 27 27 51 51 51 66 66 66 66 66 66 65 65 65 66 66 66 65 65 65 65 65 65 67 67 67 65 65 65 32 40 16 27 36 7 28 37 8 28 37 10 27 36 7 28 37 8 27 36 9 26 34 10 28 37 8 30 40 13 31 40 13 31 41 14 31 40 11 27 36 9 26 34 10 27 36 9 28 37 8 28 37 10 30 38 14 30 41 11 34 45 13 33 44 14 29 39 12 29 38 11 28 37 10 28 37 10 28 37 8 28 37 8 
40 49 18 39 48 17 36 45 16 32 43 13 32 43 11 32 43 11 33 44 14 35 43 20 32 44 20 36 50 50 37 49 47 36 49 42 35 46 38 36 51 48 37 51 54 41 52 58 45 55 64 45 55 64 47 56 63 46 55 64 38 51 59 38 53 60 27 35 11 27 36 9 28 36 12 28 36 12 48 48 40 58 56 57 55 55 57 54 54 54 52 52 52 49 49 49 48 48 48 40 40 40 40 40 40 47 49 48 51 51 51 57 57 57 59 59 59 61 61 61 64 64 64 65 65 65 66 66 66 65 65 65 64 64 64 65 65 65 56 60 61 57 61 60 50 55 59 46 54 57 45 53 56 43 52 57 38 42 43 33 33 33 34 34 34 34 34 34 33 33 33 28 28 28 28 28 28 29 29 29 30 30 30 27 27 27 26 26 26 51 51 51 66 66 66 66 66 66 65 65 65 68 66 67 66 66 66 66 66 66 66 66 66 67 67 67 32 41 14 27 36 9 27 36 7 29 35 9 28 37 10 29 38 11 27 36 9 28 37 10 28 36 12 30 41 11 32 41 12 30 40 13 30 41 11 28 36 12 26 34 10 27 36 9 28 37 8 27 37 10 28 38 11 31 42 12 35 44 13 33 44 14 30 39 12 28 38 11 27 36 9 27 36 9 27 36 7 28 37 8 
38 49 17 38 48 14 36 47 17 34 45 15 34 45 13 34 45 13 33 44 12 32 43 11 33 44 12 31 42 10 32 43 11 32 43 11 32 43 11 31 42 12 31 42 10 34 44 19 32 44 24 32 44 22 30 42 20 31 41 17 25 35 10 27 35 11 29 34 11 27 35 11 28 37 10 28 36 12 47 50 39 56 56 56 56 56 58 53 53 53 52 52 52 45 45 45 48 48 48 61 61 61 62 62 62 64 66 65 65 65 65 65 65 65 64 66 65 63 65 64 64 65 67 63 64 66 62 63 65 61 62 64 56 60 63 56 60 61 47 55 57 49 54 57 40 49 54 38 47 52 32 37 40 29 30 32 29 30 32 32 32 32 33 33 33 33 33 33 32 32 32 28 28 28 26 26 26 33 33 33 33 33 33 49 49 49 55 55 55 59 60 62 63 64 66 64 66 65 66 66 66 66 66 66 67 67 67 67 67 67 66 66 66 66 66 66 51 56 50 50 55 48 33 41 18 28 37 8 27 36 9 27 36 7 27 36 9 27 38 8 28 37 10 27 36 7 28 36 12 27 36 7 28 37 8 28 37 8 27 36 7 28 37 8 28 37 10 27 37 10 28 37 8 28 37 8 27 36 7 27 36 9 29 38 11 28 37 10 28 38 11 30 36 10 28 37 8 28 37 6 
39 50 18 38 49 17 37 48 16 34 45 15 34 45 15 32 43 11 33 44 12 32 43 11 31 42 10 32 41 10 31 42 10 31 42 10 31 42 10 31 42 12 31 42 12 31 44 18 32 44 22 32 44 24 32 41 20 31 40 19 27 36 9 27 36 9 27 36 9 27 36 9 28 37 10 27 36 9 46 49 40 57 57 59 56 56 58 53 53 53 52 52 52 46 46 46 48 48 48 61 61 61 61 61 61 64 66 65 65 67 66 64 66 65 65 67 66 64 66 65 63 64 66 63 64 66 61 62 64 61 62 64 56 60 63 56 60 61 47 55 57 49 54 58 40 50 52 37 48 52 32 36 39 28 29 31 29 30 32 32 32 32 33 33 33 33 33 33 32 32 32 26 28 27 28 28 28 33 33 33 33 33 33 49 49 47 54 54 56 59 60 62 65 65 67 63 65 64 66 66 64 66 66 66 66 66 66 66 68 67 67 67 67 66 66 66 51 56 49 48 53 46 34 42 19 27 37 10 27 37 10 26 37 7 28 37 8 27 38 8 28 37 8 28 37 6 28 37 10 27 36 9 29 38 9 28 37 8 27 36 7 27 36 9 28 37 10 28 37 10 28 37 10 27 36 9 26 35 8 27 36 9 28 37 10 27 36 9 28 37 8 28 37 10 27 36 7 28 37 8 
39 50 18 40 51 21 33 47 14 34 45 15 33 44 12 34 45 13 33 44 12 32 43 11 32 43 13 31 42 10 33 42 11 33 42 13 31 42 10 33 42 11 35 44 15 34 45 15 35 46 16 34 44 17 34 45 15 34 43 14 27 36 9 28 37 10 27 36 7 27 36 9 27 36 9 28 36 12 46 49 40 57 57 57 55 56 58 52 52 52 53 55 54 57 61 60 56 60 61 60 64 65 59 63 64 61 65 66 59 63 64 59 63 64 57 61 64 56 60 63 54 58 61 54 59 62 53 58 61 53 58 61 56 60 63 55 59 62 56 60 63 56 60 63 55 59 60 57 58 60 59 59 59 58 58 58 59 59 59 60 60 60 59 59 59 59 59 61 59 59 59 54 54 52 54 54 54 57 59 58 56 58 57 55 56 58 56 56 58 57 58 60 58 59 61 61 63 62 65 67 66 65 65 63 66 66 66 65 65 65 66 66 66 66 66 66 54 59 62 54 60 60 49 51 50 46 48 45 41 46 39 34 44 35 32 43 27 28 40 16 28 40 16 27 37 12 28 37 10 28 37 8 28 37 8 28 37 8 29 38 9 26 37 7 28 37 8 28 37 8 28 37 8 28 37 8 27 36 7 28 37 8 27 37 13 28 38 11 31 42 28 31 42 28 35 46 40 36 46 45 
39 50 18 40 51 21 36 47 15 33 44 14 33 42 13 34 45 13 33 44 14 32 43 11 32 43 11 32 43 13 33 42 11 31 42 10 31 42 10 33 44 12 35 46 16 34 45 15 36 47 15 35 46 16 34 45 13 33 44 14 27 36 7 28 37 10 27 37 10 27 36 9 28 37 10 28 37 10 47 50 39 58 58 58 55 55 57 51 51 51 53 53 53 58 62 61 59 63 64 59 63 64 60 64 65 58 62 65 57 62 65 56 61 64 56 61 64 54 59 62 53 58 61 53 58 61 53 58 61 52 57 60 55 60 63 54 59 62 59 60 64 58 62 65 59 60 62 59 61 60 61 63 62 61 63 62 63 63 65 63 63 63 64 64 64 63 63 63 63 63 63 58 58 58 58 58 58 57 61 60 60 61 63 57 58 60 58 58 60 58 58 58 57 59 58 61 63 62 64 66 65 64 66 65 67 67 67 66 66 66 67 65 66 66 66 66 57 63 63 56 60 63 51 53 52 49 49 47 42 47 43 33 44 36 33 44 30 30 39 18 29 39 14 28 37 10 28 37 10 27 38 8 28 37 8 27 36 7 28 37 8 27 38 8 27 37 10 28 37 8 28 37 8 28 37 10 28 37 8 28 37 10 28 36 12 27 37 13 31 41 30 31 42 28 35 47 47 37 48 50 
38 49 17 38 49 19 37 48 18 36 47 17 34 45 15 33 44 14 34 43 14 31 42 10 32 43 9 31 42 10 32 41 12 31 42 10 31 42 10 32 43 11 33 44 12 35 44 15 34 45 15 34 45 13 33 42 13 31 41 14 29 35 9 27 36 9 27 36 9 27 36 9 29 37 14 30 38 15 46 49 40 57 57 55 54 54 54 50 50 50 52 53 55 55 60 64 54 59 62 53 58 61 52 57 60 52 57 61 53 58 62 55 60 64 55 60 63 57 61 62 58 62 63 61 62 64 61 62 64 62 63 65 62 63 65 63 64 66 64 65 67 63 64 66 63 65 64 65 65 65 65 65 65 65 65 65 66 66 66 65 65 65 65 65 65 63 65 64 62 63 65 60 61 63 61 62 64 61 62 64 59 63 66 62 62 64 58 62 63 57 61 62 58 59 61 57 61 62 59 63 64 61 65 64 65 66 70 64 66 65 63 65 64 63 64 66 56 60 63 58 62 65 44 53 58 43 50 58 40 51 53 37 51 54 34 48 49 33 43 42 31 41 40 28 39 33 29 40 34 28 30 16 29 30 16 27 28 12 29 26 11 28 25 8 29 26 9 28 25 10 25 23 8 28 22 8 23 21 6 27 25 10 31 42 38 29 41 39 32 43 45 30 44 45 33 46 52 35 48 56 
37 48 16 38 49 19 38 49 17 38 49 19 36 47 15 33 44 12 32 43 11 31 42 10 31 40 9 32 43 11 31 42 10 31 42 10 32 43 11 32 43 11 36 43 12 33 44 14 34 43 12 35 41 13 31 42 12 29 39 12 29 35 9 27 36 9 27 36 9 27 36 9 28 37 16 31 39 18 47 50 43 59 57 58 55 55 55 50 50 50 52 53 55 52 60 63 50 58 61 45 55 57 46 56 58 47 55 58 48 56 59 53 58 61 56 60 63 58 62 63 64 65 67 64 65 67 65 65 65 66 66 66 65 65 65 66 66 66 66 66 66 66 66 66 66 66 66 66 66 66 65 65 65 66 66 66 65 65 65 65 65 65 66 66 66 63 65 64 64 66 65 62 63 65 60 64 65 59 63 64 60 64 65 59 63 64 60 64 67 58 62 63 56 60 61 56 62 62 59 63 64 60 64 65 64 65 67 64 65 67 59 63 64 62 63 65 57 61 62 56 60 61 43 54 60 38 50 62 38 52 61 38 52 61 34 51 59 32 46 55 32 46 55 29 42 50 29 42 50 29 26 21 30 25 22 29 20 13 27 18 11 28 19 10 28 19 10 26 17 8 24 15 6 25 14 8 23 12 6 24 15 10 29 43 52 30 44 53 27 44 52 29 43 52 33 46 55 34 47 56 
37 47 20 35 48 18 37 48 16 36 47 15 35 46 14 32 43 11 32 43 11 32 41 10 31 42 10 33 42 11 32 43 11 32 43 11 32 43 13 32 41 10 30 44 11 33 42 11 34 43 12 32 43 13 29 38 11 28 38 11 27 36 9 27 36 9 28 38 14 29 39 15 34 42 31 33 43 34 47 52 48 55 56 58 53 55 54 46 46 46 47 48 50 46 54 57 47 54 60 48 58 60 49 57 60 55 59 62 54 59 62 58 62 63 61 62 64 62 63 65 64 66 65 66 66 66 65 65 65 66 66 64 67 67 67 65 65 65 66 66 66 66 66 66 66 66 66 65 65 65 66 66 66 66 66 66 65 65 65 66 66 66 66 66 66 66 66 66 64 66 65 63 64 66 64 65 67 64 65 67 61 65 66 60 64 65 61 65 66 56 62 62 56 60 63 53 59 59 53 58 61 55 59 60 60 61 65 58 64 64 59 63 64 59 63 66 56 60 63 56 60 63 44 53 62 37 51 60 37 51 60 36 50 59 35 48 57 31 44 53 30 44 53 29 42 51 30 43 51 28 23 20 27 22 19 30 19 13 28 18 9 28 18 9 28 17 11 25 16 9 24 13 9 26 12 9 22 11 5 23 15 12 24 34 43 24 35 41 30 45 52 29 43 52 32 45 54 33 46 55 
37 47 22 37 50 20 36 47 17 34 45 15 34 43 14 32 41 12 31 42 10 31 42 10 32 43 11 33 42 11 33 44 14 31 42 10 31 42 12 31 42 10 32 41 10 32 42 8 32 41 10 30 39 10 27 36 9 25 36 6 26 35 8 26 35 8 31 40 21 31 40 19 37 46 43 38 47 52 47 52 55 51 55 58 49 50 52 42 43 45 43 44 46 43 51 54 43 51 54 52 57 60 54 59 62 63 64 66 64 66 65 66 66 66 66 66 66 65 65 65 66 66 66 66 66 66 66 66 66 66 66 66 65 65 65 66 66 66 66 66 66 65 65 65 66 66 66 66 66 66 66 66 66 66 66 66 64 66 65 66 66 66 65 65 65 66 66 66 65 65 65 65 65 65 66 66 66 63 65 64 63 64 66 63 64 66 60 64 65 55 60 63 55 59 62 51 56 59 46 54 57 49 54 57 55 59 62 53 59 59 57 61 64 58 62 65 55 59 62 55 59 62 43 53 62 38 52 61 36 50 59 35 48 57 33 47 56 29 42 51 29 42 50 30 43 52 28 42 51 26 18 15 27 19 17 27 16 10 29 16 10 29 16 10 29 16 10 25 14 8 23 12 8 23 12 6 23 12 6 23 12 8 18 27 34 18 25 31 28 42 51 29 43 54 29 43 54 28 43 50 
41 47 21 43 48 16 41 48 17 40 45 13 38 43 13 34 40 12 34 40 12 32 43 13 33 42 11 30 44 11 32 43 11 32 41 10 33 42 13 32 43 13 32 43 13 31 42 10 34 40 12 33 37 10 31 37 9 30 37 6 33 38 8 32 36 9 35 41 27 35 41 27 37 45 47 39 48 53 47 52 56 52 56 57 51 51 53 44 45 47 46 47 49 48 53 56 49 54 57 56 60 63 56 60 63 64 64 66 64 66 65 65 65 65 65 65 65 66 66 66 65 65 65 64 66 65 64 66 65 65 67 66 64 65 67 64 64 64 65 65 65 65 65 65 65 65 65 65 65 65 65 65 65 65 65 67 65 65 65 65 65 65 65 65 65 65 67 66 63 65 64 63 64 66 64 65 67 63 64 66 63 64 66 61 63 62 60 64 67 55 60 63 53 58 61 51 56 60 46 54 57 46 54 57 52 57 61 53 58 62 56 61 64 56 61 64 53 57 58 54 55 57 43 54 60 37 51 60 38 51 60 35 49 58 34 47 56 30 43 52 29 44 51 30 43 52 32 42 51 24 20 19 25 21 22 26 16 14 28 17 13 29 15 12 26 15 11 24 15 10 23 13 11 24 13 9 22 15 9 23 15 12 18 27 34 17 26 33 29 43 52 29 42 51 29 43 54 29 44 51 
54 43 21 57 43 14 54 43 11 49 43 9 45 42 9 36 35 7 37 37 11 32 43 13 34 43 14 33 42 11 34 43 12 31 42 10 31 42 12 31 42 12 32 43 13 34 38 11 34 37 10 38 37 7 42 37 7 44 38 6 53 42 14 52 41 13 45 51 51 45 51 51 41 51 53 41 50 57 47 52 55 52 53 55 51 52 54 50 52 51 54 54 54 62 64 63 62 62 62 66 66 66 66 66 66 66 66 66 66 66 66 62 63 65 62 63 65 62 63 65 64 65 69 60 64 65 61 65 66 60 64 65 61 65 66 63 64 66 64 65 67 65 65 65 64 64 64 65 65 65 65 65 65 63 65 64 63 64 66 62 63 65 61 62 64 61 65 66 58 64 64 59 65 65 59 63 64 61 65 66 59 63 64 57 61 62 56 60 63 52 57 60 49 57 59 47 54 60 43 51 54 44 51 57 41 51 53 42 51 56 53 58 62 54 59 62 46 51 45 47 49 44 42 53 55 40 53 61 40 53 61 37 49 61 34 48 57 31 41 51 29 43 52 30 43 52 30 43 52 18 25 31 18 26 29 19 18 16 21 17 16 20 16 13 21 16 13 20 14 14 21 15 15 19 17 18 16 20 21 18 22 25 18 27 32 18 27 34 29 42 50 30 43 52 29 41 53 30 43 52 
55 43 19 58 45 13 52 41 9 46 40 8 43 38 6 35 35 9 35 38 11 35 44 15 34 43 16 34 43 14 34 45 15 33 44 14 33 42 13 33 42 13 35 41 13 35 37 13 39 35 8 41 37 8 45 36 5 46 37 6 54 43 11 54 44 9 47 49 44 46 48 43 41 46 49 40 47 53 48 52 53 52 53 55 53 54 56 52 54 53 54 55 57 64 66 65 63 65 64 64 66 65 65 65 65 65 67 66 64 64 62 63 65 64 61 65 66 61 65 66 62 63 65 60 64 65 60 64 65 60 64 65 60 64 65 60 64 65 64 65 67 63 65 64 66 66 66 65 65 67 65 65 67 62 63 65 59 65 65 60 64 65 59 63 64 61 65 66 60 64 65 60 64 65 58 64 64 58 64 64 58 63 66 57 61 64 56 60 63 52 57 60 50 55 59 46 54 57 43 52 57 42 49 55 41 50 55 45 50 56 50 60 62 52 57 61 48 51 44 46 48 43 43 52 57 41 54 62 40 53 61 38 52 61 35 48 57 30 43 52 31 44 52 29 43 52 29 43 52 20 27 33 20 27 33 21 21 23 22 20 21 22 18 17 22 16 16 22 18 17 23 19 18 21 19 20 21 22 27 20 23 28 20 29 34 20 29 34 30 43 52 29 43 52 31 44 52 30 45 52 
60 42 2 58 43 2 44 30 3 29 17 5 27 19 8 24 28 13 30 33 16 48 46 31 47 45 32 50 47 32 50 47 32 47 45 30 46 44 31 43 41 28 42 40 27 45 27 15 49 15 5 49 15 3 49 16 1 51 20 0 60 45 2 61 47 2 61 39 2 60 41 1 48 41 23 40 40 30 47 48 43 50 51 53 53 54 56 60 64 63 62 63 65 64 66 65 61 65 64 59 63 64 61 62 64 61 65 66 59 63 64 59 63 64 57 62 65 59 63 66 58 62 63 61 62 64 59 63 64 60 64 65 60 64 67 60 64 65 60 64 65 60 64 65 64 65 67 63 64 66 63 64 66 62 66 69 60 64 65 60 64 65 59 63 64 60 64 65 59 63 64 57 61 62 58 62 63 57 61 62 56 60 63 56 60 63 56 60 63 51 56 60 50 54 57 45 53 56 41 50 55 41 50 55 38 49 55 39 48 55 45 54 59 45 54 59 41 47 37 39 45 33 51 53 50 53 55 54 50 55 58 47 56 61 45 56 60 38 51 60 36 50 59 33 46 55 32 46 55 29 43 52 30 43 52 27 40 49 25 40 47 25 38 46 28 37 46 27 37 46 24 37 46 25 38 46 26 39 47 27 40 49 29 43 52 30 44 53 35 48 57 31 48 55 41 52 58 45 54 63 
61 41 4 61 43 3 45 29 3 29 17 5 26 20 4 24 28 11 28 32 17 47 45 32 48 45 28 50 47 32 49 47 32 47 45 30 47 45 30 44 40 28 42 40 27 44 28 15 49 15 3 48 16 3 49 15 3 51 20 2 61 47 2 60 47 3 59 39 2 62 40 3 47 42 23 42 42 32 47 46 44 51 51 53 54 55 57 60 64 67 63 64 68 60 64 65 59 65 65 60 64 63 59 63 64 60 64 65 60 66 66 59 63 64 58 62 63 58 64 64 58 62 63 59 63 64 58 64 64 59 63 66 60 64 65 59 63 64 59 63 64 59 63 64 64 65 67 64 65 67 61 65 64 59 63 62 60 64 65 59 63 64 59 63 66 60 64 67 60 64 65 57 61 64 57 61 62 56 60 61 55 59 62 55 59 60 55 60 63 51 56 60 50 55 59 47 52 55 42 51 56 41 50 55 38 47 54 39 50 54 45 55 57 43 54 60 42 48 36 42 44 33 50 52 49 53 54 56 50 55 58 51 56 62 44 53 62 37 49 61 37 50 59 32 45 54 33 46 55 31 44 53 29 43 54 29 39 48 25 40 47 27 37 46 26 37 43 24 37 45 26 36 45 25 38 46 27 40 48 27 40 49 30 43 52 29 43 52 33 47 58 33 47 58 41 52 58 45 54 61 
54 38 2 56 40 6 37 31 5 16 18 5 20 22 8 27 34 16 26 33 15 24 28 14 26 28 15 49 46 31 49 45 33 33 33 21 29 29 17 36 36 24 38 38 26 42 25 17 44 11 4 48 16 5 54 23 3 53 25 1 62 45 2 59 44 1 61 39 2 61 39 2 56 44 4 54 45 2 56 54 41 54 59 62 50 60 62 53 61 64 53 58 61 50 55 58 48 54 54 36 42 38 36 42 38 48 53 56 50 54 57 52 57 60 54 58 61 55 59 60 55 59 62 57 61 64 55 61 61 56 60 63 56 60 63 55 60 63 55 60 63 56 61 64 56 60 63 56 60 61 57 61 62 57 61 62 58 59 61 55 59 62 55 60 63 55 60 63 54 59 62 54 58 61 56 60 63 56 60 61 56 60 63 52 56 59 51 56 59 46 54 57 41 51 53 43 51 54 39 48 53 41 50 55 39 50 56 42 51 56 53 57 58 53 57 58 46 48 37 44 46 33 43 45 31 40 42 28 50 51 45 57 58 62 52 57 61 49 56 62 45 56 60 39 52 61 37 51 62 37 51 60 37 51 60 42 53 59 45 56 62 46 55 62 47 54 60 47 54 60 48 56 59 49 56 62 51 56 60 52 57 61 54 58 61 53 58 61 61 61 61 58 59 61 61 61 61 62 62 62 
56 37 4 59 41 3 36 28 5 17 19 8 20 24 9 26 33 15 27 31 16 26 28 15 25 29 15 49 47 32 48 46 33 32 32 20 30 30 18 36 36 24 38 39 25 42 25 15 42 12 4 44 15 1 51 23 1 53 27 2 60 45 2 59 44 1 61 38 4 62 38 4 57 43 4 54 45 2 53 55 41 54 59 62 51 59 62 51 59 61 51 59 61 49 54 57 47 52 55 35 41 37 36 43 36 47 55 57 50 55 59 53 58 61 53 58 61 54 59 62 56 60 63 56 60 63 54 59 63 56 60 63 56 60 63 55 59 62 56 60 63 56 60 63 57 61 64 56 60 63 56 60 63 57 61 64 56 62 62 55 60 63 55 60 63 54 59 62 55 60 63 54 59 62 53 58 61 54 59 62 55 61 61 52 56 59 50 55 58 46 54 57 43 51 54 42 49 55 41 50 55 41 51 53 39 50 56 42 51 56 55 56 58 54 58 59 47 48 40 45 47 34 41 43 30 41 44 27 49 50 44 57 58 62 54 58 61 48 56 59 45 56 62 39 52 61 37 51 60 37 51 60 38 52 61 44 55 61 44 55 61 46 53 59 47 54 60 46 54 57 49 54 60 48 55 61 52 57 61 51 56 62 53 58 61 54 57 62 60 62 61 60 60 62 62 62 62 61 61 61 
45 31 2 42 30 4 30 28 7 22 26 11 20 27 11 23 30 12 22 29 13 23 27 12 23 27 12 28 26 13 29 27 14 25 29 14 26 30 15 25 28 11 23 25 12 35 18 8 45 11 2 47 15 4 49 15 3 50 17 2 57 34 3 57 34 0 62 43 3 61 43 3 52 35 5 50 33 5 56 49 39 58 59 61 54 58 61 46 56 58 45 55 57 40 50 51 40 50 49 23 29 19 23 29 19 26 31 24 27 34 27 41 46 49 47 55 58 47 55 57 51 56 60 52 57 60 52 57 61 55 59 62 55 60 63 55 60 63 55 59 62 56 60 63 54 59 62 54 59 62 52 60 62 55 60 63 55 60 63 55 60 63 54 59 62 55 60 63 54 59 62 54 59 63 52 57 60 51 56 59 52 57 60 47 52 56 46 54 57 43 51 54 41 51 53 41 50 55 41 50 55 40 49 54 41 49 52 43 50 56 50 58 60 51 59 61 45 48 37 45 47 36 38 40 19 38 38 12 46 48 37 56 60 63 54 58 61 53 58 61 47 54 60 38 52 63 37 50 59 44 55 61 45 54 61 53 58 61 54 58 61 51 56 60 50 55 59 50 55 59 48 56 59 51 56 60 46 53 59 47 55 58 50 57 63 53 58 62 53 58 61 52 56 59 54 58 61 54 58 61 
