P3
100 50
255
96 106 108 87 98 104 84 97 103 48 66 78 45 61 74 16 33 53 8 24 49 4 22 46 1 21 46 3 23 47 3 25 49 2 24 47 2 22 47 3 23 47 16 24 45 14 25 45 7 27 51 6 26 50 4 24 49 2 22 47 0 22 46 0 20 44 0 20 44 2 20 44 0 20 44 0 24 50 1 23 47 1 18 38 0 16 39 1 13 35 0 13 32 1 13 35 1 16 39 0 18 38 0 20 44 1 22 43 1 23 47 0 25 47 0 25 50 1 27 52 1 27 54 1 28 55 2 28 53 1 28 55 0 27 54 0 27 54 1 27 54 0 24 50 0 23 49 1 21 45 0 20 45 2 17 38 1 17 40 0 15 36 0 16 34 0 18 35 0 16 36 1 18 34 4 23 37 2 28 43 8 37 55 6 37 55 8 34 51 7 34 53 4 30 45 4 30 45 5 28 44 4 27 41 6 25 42 5 24 39 4 23 38 4 22 36 5 21 37 9 15 37 15 17 40 62 11 52 62 11 52 92 4 62 94 3 62 101 4 57 106 2 53 107 2 61 106 1 67 103 0 71 97 0 74 97 1 73 100 0 72 100 0 73 98 1 72 98 1 72 99 1 74 99 1 76 103 0 79 108 0 82 107 1 75 110 1 69 111 1 72 107 1 73 108 2 77 96 1 101 
98 106 109 85 98 104 86 97 103 54 71 81 50 68 80 19 36 56 10 26 51 6 24 48 2 22 47 2 24 48 0 26 51 0 24 50 3 21 45 1 21 45 18 25 44 17 24 42 9 27 49 8 29 50 5 25 50 2 24 48 1 23 46 0 22 45 0 20 44 1 21 45 1 21 45 1 25 51 0 24 48 0 18 42 2 18 41 2 14 36 0 13 32 0 14 35 0 15 36 0 16 39 1 19 41 0 20 44 1 23 47 0 24 48 1 27 52 0 28 52 1 28 57 3 30 57 3 29 56 0 27 54 1 28 55 1 28 55 1 27 54 1 25 51 1 25 51 1 21 45 2 20 44 1 17 40 1 17 42 0 16 36 2 15 34 3 14 36 2 14 36 0 15 36 1 16 37 3 21 45 4 31 61 4 30 57 4 28 54 4 28 54 1 18 44 2 19 47 2 17 46 2 16 45 0 17 43 0 14 40 1 15 41 2 17 38 3 15 37 8 14 38 17 14 41 70 9 53 68 9 53 102 2 64 107 1 63 110 1 58 112 0 56 110 2 62 105 0 66 102 1 69 100 0 75 101 0 78 98 1 72 98 1 70 100 0 72 98 0 73 99 1 76 100 2 79 104 1 80 105 1 80 109 1 76 111 1 72 112 0 74 111 1 72 109 1 77 98 0 101 
85 96 102 78 91 97 78 93 98 64 81 91 63 81 91 66 79 88 66 78 90 60 72 84 53 66 82 43 58 77 22 40 62 16 37 58 5 25 50 5 25 50 5 23 45 5 23 47 3 24 45 2 22 46 9 21 43 15 23 42 12 24 46 9 27 51 4 26 50 0 27 54 0 27 54 1 27 50 0 28 52 0 20 44 1 21 45 0 16 39 0 15 36 1 16 37 3 15 37 2 17 36 1 17 40 1 19 41 1 23 47 1 23 47 1 23 47 1 23 46 1 27 52 2 26 52 0 26 51 1 25 51 0 26 51 0 26 53 1 27 54 0 27 54 0 26 53 1 22 49 0 24 48 2 20 42 1 19 41 1 19 43 0 20 44 1 17 40 1 18 38 1 18 38 1 13 35 0 16 39 2 20 42 2 20 44 2 18 41 2 18 41 1 16 39 1 16 39 2 18 43 2 19 45 4 20 46 6 22 48 20 19 51 48 11 52 57 11 58 76 4 77 80 4 76 92 2 72 93 2 69 100 0 72 102 2 72 102 1 69 105 0 67 101 1 71 100 0 70 100 0 73 98 0 75 98 0 73 100 0 72 99 1 74 99 1 76 98 2 76 99 0 82 100 1 83 100 1 84 100 1 83 102 1 81 104 1 82 108 0 85 110 2 87 109 0 89 106 1 94 
80 93 101 76 89 98 76 91 98 69 86 96 68 85 95 79 92 101 86 95 104 77 90 99 70 83 91 54 67 83 28 45 63 23 40 60 6 26 51 4 26 50 2 22 46 3 23 48 0 20 45 2 20 42 12 20 41 19 22 41 15 26 46 12 28 53 9 29 53 2 29 56 1 28 55 0 27 54 1 27 52 2 22 46 0 22 45 1 17 40 0 15 36 2 14 36 1 16 37 0 15 36 1 17 42 1 19 41 2 22 46 1 23 47 0 22 43 0 22 43 0 24 50 1 25 51 1 25 51 1 25 51 0 26 51 2 26 54 1 28 55 0 29 55 0 27 54 1 25 51 0 24 48 1 19 43 1 21 45 0 20 45 1 21 46 1 19 41 0 17 37 2 14 36 0 15 36 0 15 34 0 15 34 2 17 38 0 15 36 3 15 37 0 17 37 0 15 36 2 18 41 3 21 45 7 23 49 10 25 54 29 19 54 64 11 57 73 8 64 100 2 89 99 1 86 98 0 77 98 0 73 98 0 75 100 0 73 99 3 74 99 1 74 98 0 73 98 1 72 99 1 74 97 1 72 99 1 74 100 0 72 98 1 72 100 0 75 98 0 75 99 0 83 99 0 83 98 0 83 98 0 83 100 1 84 103 1 84 104 0 85 107 1 93 110 0 95 110 1 94 
75 88 96 72 85 94 71 85 94 63 72 79 60 71 75 77 87 96 81 90 99 78 88 97 76 86 96 67 79 91 54 68 81 51 64 81 41 57 73 41 57 73 14 35 56 16 34 56 3 25 49 2 22 47 6 24 48 9 24 45 8 24 47 4 24 48 7 25 49 9 25 50 9 25 48 3 25 48 3 23 47 0 24 50 1 25 49 1 19 43 0 18 42 0 15 36 0 14 33 2 14 36 0 15 36 2 14 36 1 19 41 2 18 41 0 22 45 1 21 46 1 23 47 2 24 48 1 25 51 0 26 51 1 27 52 0 27 54 0 28 52 1 25 51 0 26 51 1 25 51 1 25 49 2 24 48 1 25 49 0 24 50 1 25 49 0 22 46 0 21 42 0 17 37 2 15 34 0 14 35 0 15 34 0 15 38 1 13 35 0 15 36 4 16 40 4 14 39 26 14 50 35 15 52 48 15 62 53 14 71 64 10 70 81 5 70 84 4 75 100 2 89 99 1 88 98 1 78 99 0 80 99 1 76 98 1 72 98 0 73 99 2 73 100 0 73 98 0 73 97 1 72 98 0 73 97 0 72 100 0 73 99 1 74 104 1 72 102 1 67 104 0 77 104 0 77 103 2 80 102 1 79 102 1 81 104 1 82 104 1 84 105 1 88 106 0 88 103 1 87 
70 84 93 67 80 88 67 82 89 56 61 64 53 57 60 70 77 83 77 86 93 78 88 97 80 90 102 80 90 100 80 90 99 80 89 96 77 87 99 79 89 99 30 45 64 28 43 62 5 27 51 0 24 48 0 24 50 2 26 52 3 23 48 0 20 44 4 20 43 17 20 39 15 22 40 4 21 39 6 21 42 1 28 55 1 28 55 1 23 47 0 20 45 1 16 39 3 16 35 2 13 33 0 11 31 1 12 32 0 17 37 0 17 37 1 23 47 1 23 47 1 23 46 2 22 46 0 26 51 0 27 54 0 27 54 1 28 57 0 27 54 1 23 47 1 25 51 1 25 51 1 25 49 3 29 54 2 28 53 0 29 55 2 29 56 0 24 50 2 22 46 1 19 41 0 16 32 0 15 36 1 14 33 2 14 36 2 14 36 2 15 34 7 14 40 8 15 41 53 12 54 69 9 60 89 3 74 100 1 84 100 0 86 97 0 84 98 0 85 97 1 90 95 0 88 99 1 78 98 2 76 98 1 72 98 1 72 100 0 73 100 0 73 100 0 73 101 1 74 101 1 73 99 1 74 99 1 74 99 2 73 102 0 74 110 1 66 109 0 67 109 0 67 108 2 68 108 0 75 104 0 77 107 0 78 104 2 78 106 2 81 102 0 83 103 2 82 98 0 85 
73 84 90 73 82 87 73 82 87 55 59 60 55 54 59 65 73 76 69 78 83 76 85 92 81 91 100 80 90 100 80 90 100 80 90 100 78 87 96 78 86 97 47 61 74 47 60 76 27 42 63 22 40 62 8 28 52 3 25 49 2 24 47 1 19 43 3 21 43 12 20 41 10 21 43 4 22 42 1 22 41 7 25 49 8 26 50 2 22 47 1 22 43 1 17 40 0 15 36 0 12 34 1 9 30 1 12 30 1 16 39 1 16 39 1 19 43 1 19 41 1 21 45 1 21 46 2 24 48 0 24 48 0 26 51 1 25 51 4 26 50 6 31 53 5 29 55 8 29 56 4 28 54 3 29 54 2 28 55 2 28 53 1 27 54 0 24 50 1 21 46 2 20 42 1 17 40 1 17 42 4 16 40 6 16 41 23 13 47 23 12 44 42 9 62 39 9 61 66 8 69 77 6 72 87 2 83 95 0 90 93 0 91 91 1 89 93 0 91 94 0 94 94 1 92 99 1 86 98 0 83 99 1 76 100 2 77 101 1 74 99 1 76 99 1 78 103 2 80 101 0 78 98 0 79 100 0 75 99 1 78 99 1 78 107 1 73 106 0 75 108 0 76 108 2 77 104 1 84 104 0 85 98 0 85 94 0 88 91 1 89 89 0 92 89 0 92 82 1 94 
81 85 86 84 86 85 86 86 88 54 54 54 49 49 51 58 62 65 61 66 70 71 78 84 81 91 100 82 91 100 80 88 99 79 89 99 77 87 97 78 88 97 78 88 97 77 85 96 58 68 80 54 65 83 21 38 56 0 21 42 2 20 44 2 20 44 1 21 45 1 21 45 1 21 45 0 20 44 1 23 47 15 20 39 16 21 40 5 20 41 3 21 43 2 20 42 0 18 40 1 13 35 1 8 27 1 9 32 1 19 39 1 17 40 1 14 33 2 15 34 0 20 44 1 21 46 1 21 45 1 21 45 0 22 45 3 21 45 6 26 51 15 36 63 15 36 65 14 35 62 14 34 61 5 29 55 4 30 57 4 25 52 3 23 48 3 23 48 1 21 45 1 21 45 1 21 45 3 20 46 6 20 49 14 19 49 58 10 60 57 9 59 96 0 97 97 1 98 95 1 98 94 0 97 88 1 98 85 1 97 83 1 99 80 0 99 82 0 100 86 0 99 86 0 99 95 0 94 95 0 94 97 0 81 98 1 80 99 1 78 100 2 79 102 0 83 105 0 92 103 1 87 100 1 83 99 0 83 100 1 84 100 0 86 105 1 86 105 2 85 105 1 90 103 0 89 98 1 94 96 2 99 83 1 101 72 1 107 72 1 107 69 1 112 68 0 109 54 0 111 
82 83 87 80 82 81 81 82 84 55 53 56 48 48 48 57 61 64 60 65 69 70 77 85 81 91 100 80 90 100 79 89 98 79 89 99 79 87 98 79 89 98 77 87 96 78 87 96 59 71 85 57 69 83 24 41 59 7 25 47 4 22 46 1 21 45 0 20 44 2 22 46 0 22 45 0 22 45 0 20 44 16 21 43 14 21 40 6 21 40 3 21 43 3 19 42 2 18 41 2 14 36 1 7 31 1 9 32 0 16 39 0 16 39 0 15 36 2 15 34 2 20 44 1 21 45 1 22 43 0 20 44 0 22 45 2 22 46 7 27 52 15 36 65 14 35 64 11 35 61 13 34 61 9 30 57 9 31 55 2 26 52 4 25 52 1 22 51 0 22 46 7 22 45 9 20 48 10 19 52 16 18 56 23 17 55 57 6 62 58 7 64 91 1 99 89 0 95 88 1 96 88 1 96 84 0 96 81 1 98 78 0 99 75 1 98 76 0 98 82 0 98 82 0 98 92 1 96 92 1 96 95 1 85 93 0 81 95 0 81 96 1 82 100 0 86 104 1 90 99 1 88 98 0 87 97 1 88 97 1 90 99 1 88 100 0 90 101 1 87 96 0 90 96 1 91 91 1 97 90 2 102 78 0 102 70 1 107 68 1 107 68 2 112 64 0 112 57 0 115 
70 71 73 56 57 59 56 57 61 45 45 45 43 44 46 50 51 53 53 54 58 67 75 78 83 93 102 81 91 101 80 90 100 79 89 99 80 89 98 80 89 98 77 87 96 78 87 96 77 85 96 77 85 96 54 66 78 41 52 70 20 38 58 1 21 46 0 22 46 0 24 46 1 23 47 1 21 45 0 22 45 0 20 44 1 21 45 0 20 44 1 21 45 10 18 39 14 17 34 9 14 33 3 11 30 1 14 31 2 13 35 1 12 34 2 14 36 1 16 35 0 18 40 1 19 43 0 21 42 1 21 45 2 22 46 3 21 45 5 25 50 10 31 58 11 32 59 13 37 65 15 39 67 28 45 73 28 45 73 17 37 64 16 37 64 11 32 63 6 29 63 36 19 64 62 11 70 70 8 85 87 0 107 83 0 104 58 1 98 61 0 103 53 1 99 53 1 99 54 0 98 55 0 101 51 0 95 50 1 93 45 0 91 36 1 85 41 1 87 54 0 94 58 1 96 68 1 98 68 1 96 72 0 99 70 0 99 73 1 101 74 0 100 80 0 99 85 1 99 87 2 106 87 1 110 84 1 109 76 0 109 76 2 115 63 0 109 64 0 110 53 1 112 50 1 110 46 0 111 44 1 109 48 0 110 51 2 111 53 1 111 53 1 109 50 0 111 42 0 110 
67 71 70 57 58 62 56 57 59 45 47 46 44 44 46 51 51 53 52 53 57 66 73 79 83 93 102 81 91 101 80 90 99 80 90 99 79 88 97 79 87 98 79 88 97 77 85 96 75 85 94 77 85 96 53 64 82 39 52 69 19 36 56 1 23 46 1 23 46 1 25 49 1 23 47 1 21 45 0 22 45 1 21 45 1 21 45 0 20 44 2 20 44 11 18 37 14 15 33 9 14 33 4 12 31 4 12 31 0 11 33 1 12 32 0 15 36 1 13 35 1 17 40 1 19 41 2 23 44 0 20 44 0 20 44 0 20 44 5 27 51 10 31 58 12 33 62 16 37 68 13 37 65 28 45 71 26 46 73 17 37 64 16 36 60 8 31 62 6 29 60 33 20 64 61 11 70 71 7 83 86 0 107 83 0 104 59 2 99 59 1 101 51 0 97 52 0 98 55 1 99 53 1 99 51 2 94 50 0 95 45 0 91 36 1 85 41 1 87 56 2 96 57 0 95 68 1 98 68 1 98 70 0 98 69 0 97 72 0 99 74 0 99 80 0 99 85 1 99 87 0 104 87 1 108 85 2 110 75 1 112 77 1 110 63 1 108 64 0 110 54 2 110 51 2 111 47 1 110 45 2 110 49 0 110 52 0 110 52 0 111 51 2 111 50 1 110 40 1 110 
63 63 65 58 58 60 57 59 58 47 49 48 47 47 49 47 49 48 46 50 53 63 70 76 84 94 103 80 93 102 81 91 100 80 89 98 80 89 98 79 89 98 79 88 97 78 88 97 76 84 95 78 85 93 66 78 90 59 75 88 30 47 65 1 19 43 2 20 44 1 21 45 3 21 45 0 20 44 1 21 45 1 21 45 1 21 45 0 22 45 0 21 42 1 21 45 1 19 43 1 19 43 0 18 40 3 20 40 13 21 40 11 19 38 3 16 33 4 15 35 2 20 42 1 19 41 0 20 44 0 21 44 2 24 47 1 27 52 2 28 55 6 30 56 13 37 63 39 55 80 39 55 81 34 49 78 35 50 81 38 19 64 39 16 60 44 6 81 49 0 92 46 0 91 44 1 91 41 1 90 40 0 91 40 0 88 37 2 86 35 0 86 40 0 88 40 0 88 43 0 90 44 1 90 40 0 88 37 2 84 34 0 83 36 0 83 39 0 85 44 1 90 44 1 90 47 0 99 50 0 97 50 0 99 51 1 100 49 1 100 47 1 100 48 0 102 47 0 106 47 2 107 47 1 110 47 0 112 44 1 109 45 2 110 45 2 110 44 0 111 43 1 111 42 0 110 42 0 110 42 0 108 40 1 110 39 1 110 40 0 112 39 1 110 42 0 112 44 1 109 
63 64 66 57 57 59 57 57 59 48 48 50 47 45 46 47 48 50 47 49 48 63 70 76 81 94 102 81 91 100 82 91 100 81 90 97 79 89 98 79 89 98 79 88 97 78 88 98 75 83 94 77 85 98 68 78 90 61 73 87 30 47 67 1 19 43 2 20 44 0 20 44 1 21 45 0 22 45 0 20 44 2 22 46 0 20 44 1 21 45 0 20 44 0 20 44 2 20 42 1 19 43 0 18 40 2 18 41 12 20 39 13 20 39 5 16 34 5 16 36 1 18 44 2 20 42 1 21 45 0 22 43 0 24 48 0 28 52 2 28 55 5 32 59 15 36 63 38 53 82 39 55 80 37 48 80 35 48 80 38 19 64 37 14 60 46 5 81 51 2 94 46 1 94 43 0 90 43 0 90 40 0 91 40 0 91 37 1 88 39 0 89 40 2 89 40 0 89 43 0 90 41 1 90 40 0 88 38 0 85 36 1 83 35 0 84 39 1 86 43 0 90 46 2 89 49 1 100 51 1 100 51 1 98 49 1 100 49 1 100 48 0 99 47 0 104 48 1 107 48 1 107 49 1 111 46 0 109 46 0 109 45 2 110 45 2 110 44 2 112 43 1 109 42 0 110 42 0 112 43 1 111 40 1 110 38 2 110 39 0 109 40 1 110 42 0 110 44 2 110 
61 62 64 58 58 60 56 57 59 52 52 54 51 51 53 56 59 64 57 62 66 67 76 81 82 92 101 82 92 101 80 90 100 80 90 99 81 89 100 81 89 100 78 88 97 78 88 97 77 86 95 76 84 95 60 76 89 52 71 86 28 46 68 1 21 46 0 21 48 2 23 50 2 23 50 0 20 44 1 23 46 1 21 45 0 20 44 1 22 43 0 20 44 2 20 42 1 17 40 1 18 38 0 17 37 2 17 38 2 20 40 1 19 41 1 19 41 1 19 41 8 19 39 11 18 36 13 31 45 15 34 48 21 45 55 27 54 61 25 55 57 26 58 53 28 57 52 37 53 52 37 53 52 28 26 66 28 26 65 25 5 64 26 4 68 24 2 64 27 1 66 26 1 69 28 0 74 29 1 78 27 0 81 32 0 83 30 1 83 30 1 85 30 1 85 31 2 86 30 1 83 30 1 83 33 0 87 33 0 89 35 2 93 37 1 97 38 1 96 41 1 98 38 0 99 38 0 99 38 0 99 37 0 98 39 2 98 39 1 100 39 1 102 40 2 105 39 0 107 39 0 109 43 1 111 38 0 111 38 0 109 40 1 110 38 1 107 38 0 109 38 1 107 39 2 108 38 2 110 39 0 109 39 1 110 37 0 108 39 2 108 39 1 110 43 1 111 43 1 111 
60 61 63 56 57 59 56 57 59 53 55 54 52 52 54 58 61 66 62 63 68 69 76 84 83 93 102 80 90 99 80 90 99 80 90 99 80 88 99 80 88 99 78 86 97 79 88 97 77 85 96 77 85 96 60 76 89 48 70 84 25 47 68 0 21 45 2 22 47 0 26 49 1 25 51 1 23 46 0 20 44 1 21 45 1 21 46 1 21 45 0 20 44 2 20 44 1 19 41 1 17 40 1 18 38 1 17 40 2 18 41 1 19 41 2 18 41 0 21 42 10 19 36 12 19 37 13 33 44 13 37 49 24 47 55 30 58 62 30 60 58 29 63 49 31 61 51 36 53 47 36 52 49 29 22 64 27 22 63 24 4 67 24 2 67 23 1 65 22 0 62 23 1 66 27 1 72 27 1 74 29 1 78 29 1 78 29 0 82 30 1 83 29 0 82 29 0 84 30 1 83 29 2 83 34 1 88 34 1 88 36 1 95 38 0 99 39 1 100 38 0 99 38 2 100 35 1 96 37 1 99 36 2 99 37 1 99 39 1 100 38 2 102 39 0 106 40 1 107 40 1 110 42 0 110 40 1 110 38 0 111 40 0 112 38 2 108 37 0 108 36 0 106 36 1 105 39 2 108 38 0 109 39 1 110 38 0 109 40 1 110 41 2 111 43 1 111 43 1 111 
60 62 61 53 54 56 53 53 55 54 55 57 56 56 56 68 75 81 71 80 87 79 86 96 82 92 102 82 92 101 81 91 100 80 90 99 81 89 100 79 89 99 79 87 98 80 86 98 70 84 95 69 83 96 48 70 83 33 59 76 17 42 64 1 27 52 0 25 50 2 23 50 0 24 50 1 25 49 0 24 50 1 21 46 1 21 45 1 21 45 0 22 45 1 19 41 1 17 40 1 19 41 1 19 41 1 17 40 0 20 41 1 21 45 5 22 40 4 22 42 40 55 58 45 59 60 63 77 77 66 82 79 63 86 76 59 87 73 58 89 71 59 92 71 56 91 69 55 87 63 53 87 62 33 73 49 32 72 48 28 45 52 25 42 50 26 19 60 24 6 66 23 1 63 21 1 62 22 2 65 25 0 66 23 0 68 28 1 78 27 0 79 28 1 80 28 1 80 28 1 80 30 1 81 30 1 85 30 1 85 31 1 89 33 0 89 34 1 90 34 0 89 33 0 89 34 0 94 34 1 92 33 0 91 34 0 94 34 0 95 35 1 96 36 2 99 36 1 101 35 0 102 36 1 105 36 1 105 37 1 107 37 1 107 36 0 106 35 0 105 37 1 109 37 1 107 37 1 109 36 0 108 37 0 108 38 2 110 37 1 109 40 2 111 38 0 109 40 1 108 
60 62 61 51 51 53 51 51 51 57 57 59 56 57 59 73 82 89 79 89 98 81 90 99 81 91 100 80 90 99 80 90 99 80 90 99 79 88 97 79 89 98 79 88 97 80 89 98 66 82 95 64 82 96 41 62 81 25 52 73 13 39 62 2 28 55 1 27 54 0 24 50 1 25 51 0 25 50 0 24 50 0 22 45 1 21 45 1 21 45 1 21 45 0 18 40 0 16 39 1 19 41 2 18 41 1 19 41 1 22 43 3 21 45 3 20 36 4 21 41 57 76 72 65 85 76 89 102 92 96 108 94 86 107 88 77 107 81 77 107 79 76 109 82 75 109 82 64 108 72 66 108 72 34 103 40 37 103 41 29 70 40 27 67 41 26 30 59 26 8 70 23 3 62 21 2 58 21 2 58 22 1 60 22 0 62 27 1 75 28 1 78 27 0 77 28 1 78 28 1 78 27 0 79 28 1 82 30 1 85 30 1 85 30 1 85 32 0 86 28 0 83 30 1 85 32 2 90 30 0 86 31 1 89 33 0 91 33 0 91 32 2 92 32 1 94 35 1 96 35 1 98 36 1 101 36 1 101 37 1 109 37 2 106 37 0 106 36 0 106 37 1 109 37 1 109 38 1 107 36 0 108 35 2 109 36 0 108 37 1 109 36 0 108 37 1 107 39 1 110 
64 68 71 61 64 69 62 65 70 69 72 77 67 74 80 78 87 94 82 91 100 82 92 101 82 92 101 81 92 98 82 92 101 80 90 99 80 90 99 81 89 100 71 85 96 70 84 95 56 75 90 55 74 89 29 51 72 12 40 64 7 33 60 1 26 56 0 26 51 2 22 47 0 22 46 0 26 51 1 27 50 0 24 48 0 24 48 1 21 45 1 21 45 2 20 42 1 17 40 0 18 40 1 19 41 1 19 41 3 21 45 5 26 45 37 59 57 37 59 57 68 88 76 72 92 80 79 100 81 83 105 82 84 106 85 84 108 86 79 107 82 71 106 76 68 105 72 65 105 70 65 105 70 36 105 42 37 103 41 33 86 40 31 82 39 28 58 46 25 44 50 24 22 61 24 1 71 26 1 69 24 1 71 26 0 73 29 0 82 28 1 80 28 1 80 28 1 80 27 0 77 28 1 80 27 1 74 25 0 68 26 0 74 28 0 77 30 1 83 30 1 83 30 1 83 29 1 86 30 0 86 31 2 86 29 0 84 32 2 88 31 1 89 31 1 89 32 2 90 31 0 93 35 1 96 35 1 98 36 1 105 35 0 104 36 0 106 37 2 106 37 1 109 37 1 107 36 0 108 36 0 108 34 1 106 35 2 106 36 1 105 35 0 102 37 2 106 35 0 105 
69 74 78 70 79 84 71 78 84 80 89 96 80 90 99 82 92 101 83 93 102 83 93 103 82 92 101 81 91 101 80 90 100 81 90 99 79 89 98 78 88 97 62 80 92 64 82 92 46 69 87 43 69 86 16 42 65 0 26 53 0 25 55 2 28 53 0 26 49 0 22 45 0 25 47 1 27 52 1 27 54 0 26 51 0 26 51 1 23 47 1 21 45 0 20 44 2 20 42 1 17 42 2 17 40 1 17 40 4 22 46 12 31 48 70 95 76 71 96 77 78 102 80 80 104 82 73 102 72 70 101 67 81 106 77 91 110 91 82 108 83 67 102 70 66 103 69 61 101 64 65 103 66 37 106 43 39 105 43 36 100 39 35 101 40 29 87 36 26 79 33 29 41 57 31 2 84 30 1 85 30 1 85 30 1 83 30 1 85 30 1 85 29 0 84 29 0 82 28 1 80 28 0 77 23 1 65 19 2 57 22 0 64 25 1 75 27 0 79 29 2 83 29 0 82 28 1 82 28 1 82 29 0 84 30 1 83 30 1 85 29 1 85 27 2 83 29 0 84 30 0 86 31 0 93 32 1 95 34 2 103 35 0 102 36 0 106 36 0 106 36 3 110 37 1 109 37 1 107 37 1 107 35 0 104 32 0 99 36 1 101 33 1 98 35 1 98 35 0 104 
72 79 85 73 82 87 74 83 88 79 90 96 81 91 100 83 93 102 81 94 102 83 93 102 80 93 101 81 91 100 81 91 101 80 88 99 73 87 96 74 88 99 58 80 93 60 78 92 35 60 80 32 57 77 11 37 60 1 27 54 0 29 53 0 28 52 0 25 50 1 23 46 1 23 47 0 26 51 1 29 53 2 23 50 1 25 51 0 22 46 1 21 45 0 21 42 2 20 42 2 18 43 2 18 41 8 20 42 17 24 43 26 33 49 74 98 82 73 98 79 78 103 81 79 103 79 73 102 71 71 101 67 80 104 78 90 109 89 81 107 82 68 103 71 66 103 69 61 103 65 62 104 64 36 105 42 36 105 40 36 100 40 36 100 40 31 88 37 28 81 35 28 47 53 28 13 72 29 10 76 30 1 83 30 1 83 29 0 84 32 0 83 29 2 83 28 1 82 29 2 81 29 0 80 26 1 69 22 0 64 26 1 69 26 2 78 28 0 77 30 1 83 28 0 84 29 2 83 29 1 86 30 1 85 29 1 85 29 0 84 30 1 85 30 2 87 31 2 84 31 1 87 31 0 93 34 0 95 35 0 102 35 0 102 35 0 104 35 0 104 35 2 107 37 1 107 33 0 105 38 1 107 36 0 102 35 3 102 34 0 99 35 1 98 36 0 98 33 1 102 
85 96 102 84 94 103 83 96 104 84 94 103 84 94 103 83 93 103 83 93 103 80 93 101 80 93 101 82 92 101 76 89 97 73 87 96 55 77 91 56 78 91 42 70 84 44 70 85 8 34 59 2 29 56 1 28 55 2 28 55 1 28 55 0 27 54 1 27 54 0 24 48 1 25 49 0 26 49 0 26 51 0 22 46 2 22 46 0 20 45 0 20 44 1 21 45 3 21 45 5 19 45 13 21 42 23 22 40 60 29 47 62 38 52 80 109 87 80 110 86 73 104 73 71 102 71 72 103 72 73 102 71 76 105 74 82 106 84 78 107 79 69 106 75 65 105 71 53 107 58 55 107 59 36 102 38 34 103 38 38 102 41 39 103 42 34 93 39 29 86 35 30 65 41 26 47 48 27 30 61 28 1 82 28 1 82 27 0 81 28 1 82 29 2 83 28 0 84 31 0 82 29 2 83 29 1 85 30 1 83 30 1 83 30 0 86 30 1 83 29 0 82 29 2 83 29 0 82 29 0 84 30 1 85 30 1 85 33 3 93 34 0 95 33 0 94 35 1 98 34 0 97 35 0 100 34 0 95 35 1 98 34 0 97 35 1 98 35 1 98 33 1 98 35 1 96 35 1 98 32 0 97 34 0 97 35 0 100 35 1 98 35 0 97 33 2 96 33 2 96 
84 97 103 83 96 104 82 95 103 81 94 102 84 94 103 81 94 102 80 93 101 80 93 101 78 91 100 79 89 98 74 88 97 69 86 94 54 76 90 54 76 89 39 65 82 40 66 81 8 34 57 2 29 56 1 28 55 1 28 55 0 27 54 2 28 53 1 27 54 0 24 48 1 25 49 1 25 51 0 25 50 1 21 46 1 21 46 2 20 44 1 21 45 6 22 47 10 22 46 15 23 46 22 22 46 32 24 48 66 31 55 68 41 58 76 108 84 78 108 84 70 103 72 69 103 70 69 100 66 69 100 66 71 102 70 76 105 77 74 105 74 66 106 72 63 105 69 52 104 56 52 104 56 35 101 37 36 100 39 38 102 42 39 103 43 32 93 36 28 87 33 29 69 42 26 51 45 28 32 59 32 1 81 31 2 82 31 2 84 30 1 83 30 1 85 30 0 86 30 1 83 30 1 83 29 0 82 30 1 85 30 1 85 30 1 83 30 1 85 29 0 82 29 0 84 30 1 83 30 1 83 30 0 86 33 1 86 32 1 94 34 0 97 35 1 98 36 0 98 35 1 98 35 1 96 33 1 98 35 1 98 34 0 99 32 0 99 35 0 100 34 0 97 35 1 98 35 1 98 35 1 98 33 1 98 35 1 96 33 2 96 35 1 98 32 1 95 33 1 98 
83 96 104 83 96 102 85 95 105 82 95 103 84 94 103 77 91 100 76 91 98 66 84 96 60 79 93 56 78 92 49 75 90 46 72 87 42 63 80 39 62 78 2 23 50 0 24 50 2 28 55 1 28 55 2 28 55 1 28 55 1 27 54 1 27 54 1 27 54 0 24 48 2 24 48 0 19 43 1 21 46 1 21 45 3 21 45 9 21 43 10 21 43 36 22 47 52 23 53 70 29 63 97 40 85 99 41 91 108 48 108 102 56 103 54 95 55 55 93 56 56 105 58 54 106 58 44 90 41 40 87 35 41 91 40 43 97 45 41 100 44 39 103 42 37 100 43 32 96 36 32 93 36 32 98 34 33 98 34 37 101 40 40 101 42 34 93 37 30 89 35 30 84 34 32 82 33 35 52 46 43 7 69 38 6 73 30 1 83 30 1 83 31 1 87 30 0 86 29 1 86 30 1 85 30 1 83 30 1 83 30 1 83 30 1 83 30 1 83 30 1 85 29 2 83 29 0 82 32 0 83 31 0 93 34 0 94 34 0 97 34 0 99 35 0 100 35 1 98 35 1 96 34 0 97 35 0 100 35 1 98 34 0 97 34 0 97 35 1 98 34 0 97 35 0 100 34 2 101 34 0 97 33 0 96 33 0 93 30 1 91 30 0 88 31 1 89 34 0 95 
84 97 105 83 96 104 85 96 102 82 95 103 83 93 102 77 91 100 76 90 101 66 84 96 59 78 92 55 77 91 49 75 90 46 72 87 41 62 79 41 64 80 1 23 47 0 24 52 2 28 55 2 28 53 2 27 57 2 28 55 1 28 55 2 28 55 1 27 54 0 24 50 1 23 47 1 21 45 0 19 44 4 21 47 1 21 45 9 21 45 11 22 44 37 21 48 50 24 51 69 29 64 95 38 83 99 41 91 109 48 108 100 54 101 54 94 57 54 94 57 53 105 57 56 108 62 44 92 42 39 86 34 43 93 40 42 97 42 42 99 44 38 102 42 38 102 41 31 94 37 33 94 37 32 97 33 32 97 33 39 100 40 40 101 42 35 92 39 30 87 34 31 85 33 32 82 31 35 52 46 42 6 68 41 6 72 30 1 81 30 1 83 30 1 85 31 2 86 30 1 85 29 0 84 29 2 83 28 1 82 30 1 83 29 2 83 29 0 84 30 1 83 29 2 83 30 1 85 30 1 85 32 2 92 34 0 94 34 0 95 35 0 100 34 0 99 33 1 100 34 0 97 35 0 100 35 0 100 36 2 99 35 1 98 35 1 96 34 0 97 34 2 99 34 0 97 34 0 97 35 0 100 34 0 97 32 1 94 31 1 91 31 1 87 31 1 91 34 0 95 
71 88 98 58 80 94 61 80 94 50 76 91 51 74 90 48 74 89 49 75 90 48 74 89 48 75 86 42 65 81 25 51 68 20 42 63 0 15 36 1 16 37 1 25 49 1 25 49 1 27 54 0 26 53 1 27 54 0 27 54 0 25 50 0 23 47 2 24 48 1 21 45 3 21 45 11 22 44 11 21 46 51 22 50 52 23 51 60 31 79 61 30 87 56 35 100 55 38 109 67 40 109 83 42 110 86 44 110 98 46 112 97 47 110 94 44 107 95 44 110 54 67 73 50 70 69 41 85 49 38 90 44 37 91 41 34 93 39 34 88 39 32 80 40 34 86 40 37 101 41 36 100 40 33 95 32 32 97 31 36 102 38 38 104 42 34 95 36 32 89 34 30 89 35 29 86 33 56 69 60 95 39 102 93 38 96 79 28 59 82 29 59 45 8 78 47 7 80 38 3 95 35 1 98 34 0 94 32 1 94 32 0 90 30 1 85 30 1 85 29 0 85 30 0 86 31 1 89 31 1 91 33 2 95 34 0 95 35 1 98 34 0 97 35 1 96 31 1 91 31 1 91 31 1 89 32 2 90 33 0 91 33 0 91 30 0 88 31 1 89 31 1 89 31 1 89 34 0 94 34 0 95 32 0 97 32 0 97 35 1 98 35 1 96 35 1 98 36 2 97 
72 89 99 58 80 93 60 79 93 50 76 91 48 74 87 49 75 90 49 75 90 48 74 89 51 74 90 42 65 81 27 50 66 19 42 60 1 16 37 0 15 36 3 25 49 1 25 49 1 27 54 1 28 55 0 28 52 1 27 52 0 26 51 0 23 47 2 24 48 4 22 46 3 21 45 11 22 44 11 23 45 52 23 53 53 23 51 59 30 78 60 31 87 57 34 102 57 37 109 66 39 110 83 42 110 86 44 110 97 45 109 95 46 111 94 44 107 94 43 109 56 67 73 50 70 69 42 86 50 39 91 43 35 92 41 34 92 42 32 88 39 33 80 38 32 85 41 38 102 42 38 99 40 31 96 32 31 96 30 37 103 39 34 103 40 30 93 36 30 89 35 29 88 34 32 86 36 55 68 59 94 38 101 95 37 96 80 29 60 79 30 59 45 8 78 44 6 79 37 2 92 33 1 98 36 1 95 32 1 94 33 0 91 30 1 85 30 1 85 30 0 86 30 0 86 31 1 91 32 2 90 32 1 95 34 0 95 34 0 97 34 0 97 35 1 96 31 1 91 30 1 91 31 1 91 31 1 89 32 2 92 31 1 89 30 0 88 31 1 89 33 0 89 31 1 89 34 0 94 34 0 97 32 0 97 35 1 98 35 1 98 35 1 98 35 0 100 35 1 98 
55 78 92 53 76 90 53 75 89 47 73 88 47 73 88 38 65 82 34 61 78 25 50 70 14 39 61 11 33 54 7 25 47 6 24 44 2 20 44 1 21 45 1 27 52 0 26 51 1 25 51 0 24 48 0 24 48 2 24 48 4 24 49 8 25 51 15 25 50 39 23 50 40 24 53 51 29 76 51 29 76 64 36 95 63 35 96 65 36 102 66 37 103 60 37 107 60 38 110 64 38 111 70 40 110 70 40 110 72 41 111 71 40 110 73 40 109 73 40 109 59 46 100 58 45 99 58 50 97 58 49 92 58 51 95 57 53 90 53 51 90 48 50 91 54 65 85 72 109 75 73 108 76 42 101 43 41 102 45 30 92 25 26 88 23 29 88 30 30 90 36 34 86 38 37 82 39 63 68 64 107 45 108 105 45 105 101 44 99 100 43 96 85 35 96 85 35 96 72 25 77 67 21 68 52 13 80 40 5 87 38 2 89 32 1 94 34 0 94 34 0 95 34 0 95 33 2 96 35 1 95 32 0 99 32 1 95 34 0 97 34 0 97 35 1 98 32 0 97 32 1 95 32 0 97 34 0 95 34 0 94 32 2 92 30 1 85 30 1 85 30 1 85 32 0 85 29 0 82 31 1 87 32 2 92 34 0 94 34 0 94 34 0 95 35 1 98 35 0 100 
50 76 91 51 74 88 50 76 89 47 73 86 49 72 86 34 61 78 30 57 76 19 41 64 4 26 50 3 23 47 2 18 41 1 19 41 0 22 45 0 22 46 0 26 51 1 25 51 0 24 50 0 24 48 0 23 47 2 22 47 4 24 48 11 27 52 20 27 53 50 24 53 52 25 58 66 33 88 63 33 87 66 39 110 66 39 110 69 39 109 68 38 108 63 37 110 61 38 110 61 40 109 65 38 107 63 39 113 63 37 110 63 37 108 67 40 111 67 40 111 61 38 110 60 38 110 65 37 111 66 35 111 64 38 111 65 40 108 60 39 108 52 39 108 62 56 100 81 109 86 82 110 85 44 105 48 45 104 50 26 86 22 22 84 17 27 87 27 27 90 33 34 86 38 39 82 39 64 69 65 111 46 110 109 47 110 107 47 109 108 48 110 100 42 100 99 44 99 82 32 70 77 28 60 55 13 76 42 5 82 40 5 89 33 1 98 35 1 98 35 1 98 35 0 100 33 1 98 35 1 98 35 1 98 33 1 98 35 1 98 34 0 95 36 0 98 33 1 98 33 1 100 35 0 100 35 1 98 34 0 95 34 0 94 30 1 85 28 1 82 30 1 85 28 0 84 28 1 82 29 0 82 33 0 87 34 1 92 34 1 92 32 1 95 36 0 100 35 1 96 
40 63 79 25 48 66 24 50 67 20 38 58 19 36 56 14 35 56 11 33 56 7 29 53 2 24 48 1 23 47 2 20 44 1 22 43 1 21 45 1 21 45 2 18 43 3 21 43 5 20 43 8 20 42 26 22 45 38 24 50 45 28 62 54 33 74 57 34 80 68 35 90 70 37 90 73 38 102 73 38 102 69 39 111 70 39 109 71 40 110 70 40 110 66 39 110 63 37 110 63 37 110 60 38 110 60 38 111 61 38 110 61 38 110 69 39 111 67 40 111 69 39 109 68 41 110 74 41 110 76 41 109 76 41 109 74 42 109 67 40 107 60 39 108 64 55 100 81 111 83 81 111 85 46 105 49 47 106 52 33 98 34 31 96 32 32 93 36 31 90 34 40 79 48 56 69 59 75 61 78 109 48 107 109 48 107 107 47 109 107 47 109 100 46 108 97 45 107 91 40 97 87 36 92 73 31 94 68 28 91 65 23 89 59 18 76 53 14 77 40 5 85 37 4 85 32 2 92 31 1 89 30 0 90 31 1 89 31 1 89 32 2 92 31 0 93 33 2 96 34 0 95 35 1 96 32 1 95 32 1 94 33 0 93 32 0 85 31 2 86 29 0 82 29 0 84 30 1 83 30 1 85 30 0 86 30 0 88 33 0 93 34 0 97 32 0 97 33 1 98 
32 58 75 12 32 57 11 33 54 2 17 38 1 16 37 2 18 43 1 19 43 1 21 46 1 23 47 0 22 45 0 20 44 1 21 45 1 21 45 0 21 42 2 15 34 2 17 38 10 18 41 11 17 41 42 24 48 59 25 50 71 30 70 85 37 89 81 36 93 78 41 108 78 41 108 79 42 111 79 42 111 70 40 110 70 40 112 70 40 110 70 41 108 66 39 110 65 39 112 62 39 111 56 35 110 57 37 109 60 36 110 63 37 110 69 39 109 70 38 111 74 41 110 74 41 110 82 42 112 83 44 109 83 44 111 82 43 110 74 41 110 61 38 108 67 56 99 81 109 84 80 110 84 47 106 52 44 107 50 40 104 43 36 104 43 32 95 38 30 91 34 49 74 53 67 61 71 83 57 86 109 48 108 110 49 109 107 47 109 107 47 109 99 44 109 100 45 110 95 44 110 94 43 110 90 42 104 86 40 104 80 36 87 74 28 64 66 23 66 41 6 74 41 5 77 30 2 86 31 2 86 30 1 85 30 1 85 30 0 86 33 0 89 33 0 91 32 1 95 34 0 95 34 0 97 32 1 95 33 2 96 35 1 95 33 1 86 31 1 87 29 2 83 29 2 83 30 1 83 30 1 83 31 1 87 32 2 92 32 1 94 32 1 95 32 0 97 34 0 97 
23 46 64 8 29 50 8 28 52 0 21 40 1 17 40 1 21 46 1 21 46 1 21 46 0 23 49 1 21 48 0 20 45 3 21 45 3 19 42 4 20 43 24 19 42 24 19 42 40 25 54 43 26 58 62 31 65 77 32 73 80 37 83 88 38 97 87 39 97 84 43 109 87 42 109 83 42 110 85 42 111 76 40 110 75 39 109 77 41 111 75 39 109 71 40 110 69 39 109 65 38 109 64 36 110 64 38 111 62 39 111 63 37 108 66 39 108 67 40 111 72 41 111 72 41 109 87 42 109 92 43 109 89 45 108 87 46 106 81 45 106 71 46 101 68 62 90 67 109 69 64 109 68 45 106 49 44 104 50 39 105 41 38 104 42 33 94 37 31 89 38 50 73 55 66 57 78 84 53 87 108 48 108 109 49 109 107 47 111 106 47 111 98 46 110 100 46 108 95 44 110 94 43 109 88 42 107 86 41 106 83 38 95 78 35 80 73 31 81 58 19 84 57 18 83 49 10 75 47 11 75 39 5 79 33 2 78 31 2 84 32 0 86 30 0 88 34 1 92 31 1 89 34 1 92 33 0 91 31 1 89 33 0 89 29 0 84 30 1 85 28 0 84 30 1 85 31 1 89 31 1 91 31 1 91 31 0 93 32 1 94 35 1 96 35 1 96 33 1 98 
0 20 44 0 22 45 1 21 45 1 21 45 0 20 44 0 24 48 0 26 49 0 24 50 0 24 48 2 22 46 3 21 45 5 21 46 11 19 40 11 19 42 62 26 52 61 25 51 95 38 83 99 39 90 102 43 101 102 46 111 101 45 110 98 46 110 97 45 107 96 45 111 95 44 110 93 44 110 93 44 110 84 42 108 84 42 108 82 41 109 82 41 109 78 41 110 75 39 109 73 40 109 74 41 112 72 39 110 69 39 111 67 40 109 66 39 110 65 39 110 64 38 109 65 39 112 93 42 109 103 44 110 99 48 105 97 51 100 89 54 94 82 59 85 70 71 73 40 106 44 40 106 42 40 101 42 40 101 42 37 103 41 36 105 42 33 94 37 30 87 34 46 67 60 64 50 86 80 48 95 109 48 108 109 49 109 105 47 108 106 48 109 102 46 107 103 47 110 96 45 111 94 45 111 91 45 110 90 44 109 88 43 110 85 43 109 87 42 107 85 41 102 85 40 97 76 29 61 78 29 61 45 9 70 42 5 72 34 2 78 30 1 83 31 2 84 29 0 82 31 0 82 31 0 80 32 0 83 29 0 82 30 1 83 30 1 83 29 0 82 32 2 92 32 1 94 31 2 95 35 1 98 35 1 98 34 0 95 35 1 98 35 1 98 35 1 98 35 1 98 
0 20 45 1 22 43 0 22 45 1 21 45 0 22 45 3 23 48 3 25 49 5 27 51 7 27 54 6 26 50 15 23 46 22 24 49 33 24 53 33 24 53 73 31 67 75 31 67 99 41 91 102 42 94 104 44 104 104 45 109 104 45 111 101 45 110 99 47 109 97 45 111 97 45 111 94 45 110 94 45 110 87 42 109 88 43 110 84 41 110 83 42 110 79 42 111 76 41 109 75 42 111 75 42 111 74 41 110 71 40 108 72 41 109 67 40 109 69 39 109 66 44 108 66 46 107 89 53 101 91 55 99 87 60 93 84 65 87 80 66 83 72 71 76 66 79 69 40 104 43 40 104 44 40 101 41 39 100 40 39 103 43 41 102 42 34 93 37 30 87 34 44 73 55 57 55 77 73 54 86 102 49 103 102 49 103 102 46 109 102 46 109 97 45 111 97 45 111 90 44 109 88 43 110 87 42 111 87 42 109 84 43 109 88 43 110 88 43 108 89 41 103 86 41 100 80 34 73 80 34 73 56 18 77 56 16 79 45 9 79 43 7 77 37 5 80 33 2 80 33 2 80 29 2 83 29 0 80 30 1 85 29 0 84 32 0 85 29 0 84 31 1 89 33 0 91 32 1 95 35 0 100 35 0 97 36 0 98 36 0 98 35 1 98 33 2 96 36 0 98 
0 22 45 1 21 45 1 21 46 2 22 46 1 23 47 7 23 46 8 24 47 14 30 55 23 37 63 37 33 58 60 26 53 71 30 62 99 39 90 99 40 86 109 48 108 109 48 108 109 49 109 112 48 109 111 46 110 111 49 112 107 47 109 104 45 109 104 45 109 101 46 111 101 47 109 98 46 110 98 46 110 98 46 112 97 45 111 94 43 112 90 43 111 84 43 111 82 43 110 82 42 112 80 41 108 78 41 110 79 43 107 78 41 110 72 42 104 73 43 103 72 65 96 73 68 98 66 83 75 63 88 69 54 96 60 45 102 47 44 101 46 41 102 43 41 101 47 51 101 52 50 100 51 35 101 37 35 101 37 46 98 49 47 99 50 36 93 40 31 90 34 34 82 40 36 76 49 53 70 64 80 52 90 83 51 90 92 42 111 90 44 109 81 41 111 81 41 112 73 40 109 71 40 108 74 41 110 75 40 108 79 44 110 86 44 108 89 44 109 95 44 111 94 43 109 95 44 110 94 44 105 93 42 98 93 43 96 78 32 71 75 28 62 56 18 69 41 5 75 36 4 77 31 0 80 30 1 83 31 2 84 28 1 80 29 0 84 30 1 83 35 2 91 35 0 92 36 0 96 37 2 96 37 0 98 37 0 98 37 1 99 36 0 98 37 1 99 37 0 98 
0 22 45 1 21 45 0 20 44 2 22 46 2 22 46 12 24 46 15 25 50 24 31 59 33 37 66 45 35 62 66 29 60 73 32 66 101 41 92 99 39 90 108 48 108 108 48 108 107 47 107 109 48 108 108 48 108 110 49 109 106 48 109 106 46 110 105 44 111 103 44 108 102 46 109 100 44 109 102 43 109 99 44 109 98 43 108 93 42 108 93 44 110 89 44 109 86 44 110 84 43 111 83 42 108 82 43 110 82 43 110 81 42 109 73 51 100 73 51 100 72 70 92 70 73 92 61 85 71 57 89 65 50 97 55 43 102 48 42 101 47 40 101 44 43 100 47 52 102 53 53 103 54 33 99 35 34 100 36 46 100 48 49 99 50 39 93 41 32 91 35 33 85 39 34 78 45 49 69 58 71 57 80 75 55 83 84 46 103 82 47 101 77 46 105 76 45 105 72 40 107 69 40 107 71 41 103 75 41 102 77 41 102 84 42 105 85 43 107 89 43 107 91 45 109 88 43 98 89 44 99 90 44 90 90 44 91 79 34 73 71 30 64 58 20 69 44 9 75 39 8 76 34 3 79 33 2 82 31 2 84 33 1 84 29 0 82 29 0 84 31 1 89 34 1 92 36 0 96 38 2 100 37 1 99 37 1 99 38 0 99 38 0 99 37 1 99 36 1 101 
2 22 46 1 23 46 1 21 45 9 21 45 8 18 43 48 24 50 61 25 51 80 32 70 97 39 87 103 44 98 108 48 108 110 49 109 110 49 108 109 48 108 110 48 111 109 48 108 109 48 107 111 50 110 110 50 110 111 47 108 111 47 108 107 46 106 109 45 106 105 39 103 105 38 105 104 34 104 103 32 102 105 38 105 107 36 104 106 39 106 107 41 103 107 45 108 109 48 108 108 48 110 106 48 109 102 48 108 94 44 105 90 52 103 69 104 71 71 105 72 58 106 64 56 108 62 43 104 45 34 103 40 36 102 41 35 99 39 36 95 37 33 90 39 41 93 45 66 108 68 64 109 70 31 92 33 29 93 33 48 102 52 50 104 52 41 100 44 34 98 38 32 93 36 29 88 34 28 87 33 27 86 28 26 86 32 38 78 44 36 77 43 50 66 63 50 65 62 60 46 81 65 41 89 58 41 60 54 42 42 57 41 52 65 42 70 67 42 74 67 39 88 65 39 84 59 44 39 59 44 39 59 45 34 60 48 34 70 46 62 74 45 73 73 42 86 71 37 97 72 35 86 70 28 66 65 23 71 42 5 85 44 5 86 30 1 85 30 1 85 34 0 94 35 1 95 38 0 101 39 2 107 39 0 106 41 0 104 40 1 107 39 0 106 39 0 106 36 0 108 
2 22 46 2 22 46 1 22 43 7 22 45 9 21 43 49 25 51 61 25 51 80 32 70 99 40 88 102 42 96 109 48 108 109 48 107 110 49 109 109 48 108 109 48 108 111 50 110 109 48 108 109 48 108 110 49 109 110 49 109 108 47 107 110 45 109 108 43 107 105 38 105 104 37 104 104 33 103 103 33 103 107 38 105 107 38 105 107 40 107 108 41 108 107 45 108 109 47 110 109 48 108 105 47 108 103 47 110 95 45 106 91 51 101 70 105 72 70 103 72 58 107 62 56 108 60 40 103 46 37 103 41 37 101 41 34 98 38 34 95 38 32 89 38 41 93 45 63 108 69 66 108 70 29 93 33 32 92 32 48 102 52 46 103 52 41 98 43 34 98 37 31 94 37 30 87 34 28 87 31 27 86 28 26 85 29 37 77 43 38 78 44 50 66 63 50 66 63 59 48 80 64 40 88 56 41 60 54 42 42 57 41 52 66 41 73 65 41 75 67 39 88 66 39 82 61 43 41 59 44 39 60 47 38 60 48 34 70 45 64 72 46 73 70 42 83 70 39 98 71 34 85 71 26 65 64 22 70 44 5 86 43 4 83 31 2 86 31 2 86 34 1 92 35 1 95 37 0 103 37 2 106 40 1 107 43 2 106 39 1 104 39 0 107 37 0 106 35 2 107 
14 22 45 51 25 52 53 24 52 83 36 78 87 38 85 100 43 98 105 46 104 105 46 102 107 48 106 108 47 106 109 48 108 108 47 107 107 47 107 109 48 108 109 48 108 109 48 108 109 48 108 111 47 108 111 50 110 109 48 108 107 36 106 103 22 99 102 21 98 99 18 97 97 18 97 93 16 96 94 15 94 94 17 95 95 16 95 103 22 99 103 22 99 108 32 104 107 40 107 107 41 105 109 47 110 108 48 110 107 47 109 104 49 104 84 62 83 85 64 83 77 63 80 76 64 78 68 65 76 64 62 73 74 85 79 82 107 85 73 106 77 59 105 66 52 104 56 40 106 45 40 106 45 59 106 64 59 106 64 68 105 72 67 106 75 52 102 53 40 99 41 33 92 36 27 86 32 27 84 29 28 87 31 27 86 30 29 83 31 29 83 33 42 60 34 42 60 36 52 49 34 57 44 36 61 44 36 61 41 34 58 41 33 51 41 32 55 42 33 65 46 39 66 46 37 79 49 39 77 49 37 76 46 35 74 48 35 64 44 33 61 44 34 62 45 38 61 46 41 62 45 51 61 42 72 62 40 78 57 32 98 57 32 98 65 24 68 66 25 69 45 7 82 43 6 86 43 3 102 40 1 108 44 3 109 45 2 109 44 1 108 47 1 109 44 1 108 41 2 108 
15 21 45 59 25 52 58 25 52 95 39 84 100 40 91 107 46 105 109 48 108 109 48 108 111 47 108 109 48 108 108 48 108 109 48 108 107 47 109 106 46 108 109 49 109 108 48 108 110 49 109 109 48 108 110 49 109 109 48 108 106 33 104 104 16 100 101 16 97 96 13 95 97 14 94 92 15 95 91 14 94 93 14 93 95 14 93 101 18 96 102 19 97 104 31 104 105 38 105 107 42 106 109 48 108 109 48 108 110 49 109 106 51 106 86 56 84 86 57 87 80 57 83 80 57 83 72 59 79 68 59 78 79 83 86 90 109 90 80 108 83 63 108 69 57 106 61 38 104 43 36 104 43 65 107 69 61 107 68 69 106 73 71 108 75 49 103 54 39 98 42 32 91 33 26 83 28 26 87 30 27 88 31 25 86 29 27 84 31 28 85 32 42 61 31 40 60 32 53 50 31 58 45 29 61 43 29 65 41 29 59 41 31 49 40 25 54 42 28 63 47 31 66 47 32 80 50 39 80 50 39 76 46 35 77 47 36 65 43 30 60 42 32 58 44 31 59 47 31 60 48 48 63 44 74 62 41 80 61 36 101 58 36 100 70 28 66 70 28 66 49 8 84 47 6 85 44 2 100 42 0 108 44 1 109 45 2 109 45 2 109 47 1 109 44 1 108 43 1 109 
72 34 81 84 40 93 84 39 94 94 43 102 93 41 103 100 46 108 99 45 107 102 46 109 106 47 111 105 47 108 107 45 108 106 46 110 106 46 108 105 45 107 109 48 108 111 47 108 110 49 109 109 48 108 109 48 108 109 48 108 107 45 108 106 41 107 106 39 106 106 39 106 104 39 105 93 27 98 94 26 99 88 17 93 90 19 95 93 19 96 95 21 98 98 28 101 101 31 103 105 35 105 109 48 108 110 49 109 108 48 108 110 49 108 103 50 102 104 52 101 101 51 100 101 51 100 91 52 97 90 53 96 76 70 80 61 86 64 57 87 59 48 88 51 46 88 52 48 81 50 47 80 49 51 96 53 49 96 52 48 97 50 48 98 49 40 94 44 39 89 40 48 83 50 54 71 55 56 70 57 62 67 63 59 65 61 37 52 23 37 51 25 49 46 29 49 46 29 58 44 31 62 42 31 58 42 29 57 43 30 60 44 31 68 49 35 70 48 35 75 49 36 76 49 32 76 48 36 76 46 35 71 48 34 72 46 33 67 43 31 63 41 30 63 45 33 60 48 32 62 50 38 65 50 43 64 48 48 61 46 53 60 45 52 64 38 73 65 40 72 59 31 92 63 31 98 65 25 87 65 22 78 53 11 83 43 5 92 43 4 95 38 0 99 38 0 101 46 4 106 
86 38 90 93 45 107 93 45 107 92 42 105 93 45 107 94 44 107 96 44 108 99 45 107 103 44 108 104 46 107 105 47 108 105 46 110 106 46 108 106 46 108 108 48 108 108 48 108 109 48 108 109 48 108 109 48 108 108 47 107 109 48 108 108 49 107 108 48 108 109 48 108 107 45 110 95 29 100 96 30 101 89 21 96 88 20 95 93 21 97 92 20 96 97 25 99 99 29 102 103 36 107 108 48 108 109 49 109 110 48 111 110 48 111 109 48 107 109 49 109 108 49 107 110 49 108 99 51 101 97 51 98 73 65 76 50 78 55 50 79 51 45 82 48 46 79 48 52 74 53 51 75 53 45 92 48 45 92 46 41 95 43 38 95 42 39 91 42 39 87 39 50 79 51 63 68 62 66 66 68 72 59 76 68 56 68 42 41 21 43 40 23 53 41 27 52 43 28 59 41 31 61 41 30 56 42 31 53 44 29 63 45 31 75 49 36 76 50 37 79 50 36 81 49 38 74 46 35 75 47 35 73 46 35 72 45 34 66 44 31 65 41 31 62 44 32 58 46 30 61 49 35 65 52 35 65 52 36 62 48 35 63 49 36 64 45 75 64 43 76 68 41 96 68 38 100 74 32 80 75 29 68 59 18 78 41 6 88 39 3 90 37 1 97 38 0 99 50 3 107 
94 41 97 94 44 105 95 43 105 94 46 108 94 44 105 96 44 108 99 45 107 99 45 107 101 45 108 105 46 110 106 46 108 106 46 108 107 47 109 107 47 109 110 49 109 109 48 108 109 48 108 110 49 109 108 47 107 109 48 108 108 48 110 109 49 109 106 48 109 108 47 107 107 47 109 102 40 105 102 40 105 98 36 103 99 34 102 100 35 103 100 35 103 104 39 105 105 38 105 106 41 105 109 48 108 109 48 108 111 50 110 109 48 108 110 49 109 109 48 107 108 49 107 109 49 109 104 49 106 103 50 102 91 55 93 80 63 81 79 65 82 76 65 79 78 64 79 80 61 80 80 61 81 78 68 77 76 68 79 74 72 77 74 72 77 76 69 76 74 67 75 79 62 80 86 57 85 87 56 87 89 53 89 83 53 81 43 40 23 44 38 22 45 37 24 45 37 26 56 42 31 60 44 31 64 46 32 68 49 35 70 48 35 75 49 36 76 50 37 77 47 36 77 47 37 73 45 34 73 45 34 67 43 31 66 44 31 65 47 33 65 47 35 65 47 33 65 49 34 67 50 34 73 51 37 72 50 36 70 48 37 68 48 37 61 44 54 63 43 52 66 44 65 66 44 67 72 39 70 73 38 71 63 28 84 53 22 98 51 17 91 49 12 81 48 12 86 45 4 98 
97 46 105 97 45 107 97 45 107 97 45 107 94 46 108 100 44 107 101 45 108 100 44 107 99 45 107 101 45 108 108 46 109 106 46 108 108 47 107 107 47 107 108 48 108 109 48 108 109 48 108 110 49 109 109 48 108 110 49 109 112 48 108 110 49 108 109 48 108 108 48 110 108 48 108 109 48 107 110 49 109 110 49 109 110 49 109 110 49 109 111 50 110 110 49 108 109 48 108 110 49 109 109 48 108 109 49 109 109 48 108 108 48 110 109 48 108 109 48 108 109 49 109 110 49 109 109 48 107 109 47 110 110 49 108 109 48 108 109 48 108 109 48 108 109 48 108 109 48 108 109 48 108 111 46 110 109 47 110 109 47 110 111 46 110 109 47 110 109 48 108 109 48 108 108 48 110 107 48 106 102 47 102 95 46 93 47 40 22 47 40 22 37 30 20 38 31 21 51 41 29 54 45 30 72 49 35 80 51 37 80 50 39 76 46 35 76 48 36 72 45 34 73 45 33 71 44 33 70 43 32 60 42 32 60 42 32 65 52 36 65 53 37 68 52 36 70 51 34 73 50 36 80 51 37 79 49 38 78 46 35 77 47 36 66 44 31 63 44 30 61 47 36 62 48 35 70 48 61 74 45 75 68 41 92 60 37 105 61 32 90 62 25 66 62 24 73 43 5 88 
101 45 106 103 44 108 101 45 108 101 45 108 101 45 108 104 46 107 105 45 107 105 47 108 102 46 107 105 47 108 106 46 106 106 46 108 110 49 109 109 48 108 110 49 109 109 48 108 109 48 108 109 48 108 109 48 108 109 48 108 108 48 108 109 48 108 109 48 108 109 48 108 109 48 107 109 48 108 110 49 109 109 48 108 109 49 109 110 48 111 110 49 106 110 49 108 109 48 108 109 47 110 110 49 108 109 48 107 109 48 108 110 49 109 109 47 110 109 48 108 109 48 108 109 49 109 110 49 109 110 49 108 110 48 111 111 47 108 108 49 107 109 48 108 108 48 108 109 48 108 112 48 109 109 48 108 107 45 108 109 48 108 109 48 108 110 49 109 108 47 107 109 48 108 109 48 108 109 48 108 105 48 103 99 47 93 46 40 24 46 41 22 39 32 22 38 31 21 47 39 26 50 42 29 62 44 30 67 48 33 69 47 34 71 47 35 70 47 33 68 44 32 70 43 32 66 44 33 65 45 34 63 45 33 62 46 31 68 50 36 70 54 38 73 51 37 73 50 36 75 49 34 79 49 38 76 48 36 76 46 36 77 47 36 63 43 32 63 43 32 62 48 35 62 48 37 70 52 52 76 53 63 70 45 85 63 38 106 65 35 97 65 31 81 67 29 86 56 19 97 
108 46 109 109 48 108 107 47 107 109 48 108 109 48 108 109 48 108 109 47 112 109 47 110 109 48 108 109 48 108 110 49 109 109 47 110 109 48 108 110 49 109 110 49 109 109 48 108 110 49 109 109 48 108 109 48 108 110 49 109 109 48 108 109 48 108 110 49 109 109 48 108 109 48 108 110 49 109 109 48 108 110 49 109 108 48 108 110 49 108 110 49 109 109 48 108 109 49 109 110 49 109 110 49 109 109 48 108 109 48 108 109 48 108 110 49 109 108 48 108 109 48 108 109 49 109 112 48 109 109 48 108 109 48 108 110 49 109 110 49 109 110 49 109 110 49 109 109 48 108 109 48 108 109 48 108 109 49 109 108 47 107 109 48 108 109 48 108 109 48 107 110 49 109 110 49 109 108 47 106 104 46 104 95 46 93 43 37 23 43 37 21 41 32 23 40 33 23 42 33 24 42 35 25 46 38 25 48 40 27 53 41 27 64 45 31 65 46 32 63 41 28 64 42 29 59 47 31 60 48 34 68 52 37 66 53 36 74 51 37 77 51 36 78 50 38 78 49 35 77 47 36 75 47 36 74 46 34 71 44 33 72 45 34 60 40 29 61 41 30 63 50 34 63 50 34 72 59 40 79 64 43 75 51 77 70 39 109 70 39 109 73 40 109 75 39 109 79 40 105 
108 46 111 108 48 108 107 47 107 109 48 107 109 48 108 109 48 108 109 48 108 109 48 108 109 48 108 109 48 108 110 49 109 109 48 108 109 48 108 110 49 109 109 48 108 109 48 108 110 49 109 110 49 109 109 48 108 109 48 108 109 48 108 109 48 108 109 48 108 109 48 108 109 48 108 108 50 109 110 50 110 109 48 108 107 47 107 109 48 108 111 50 110 109 48 108 109 48 108 109 48 108 109 48 108 110 49 109 111 47 108 110 49 109 109 48 108 108 48 108 109 48 108 108 48 108 109 48 108 110 49 109 109 48 108 110 49 109 109 48 108 109 49 109 108 48 108 109 48 108 109 48 108 109 48 108 108 48 108 109 48 108 109 48 108 110 49 109 109 48 108 108 47 107 109 48 108 108 49 107 102 47 102 95 46 91 44 38 24 45 37 24 41 34 24 42 34 23 43 35 24 44 36 25 47 40 24 47 39 26 53 41 27 61 43 29 61 43 29 61 43 31 59 43 30 62 48 35 61 48 32 69 53 38 70 53 37 76 50 35 77 49 37 78 48 37 77 49 37 75 47 36 73 46 35 71 44 33 67 45 32 68 44 32 63 45 31 64 46 32 64 52 36 64 52 36 71 58 41 72 61 41 74 50 76 72 38 112 73 40 109 76 41 109 78 41 108 82 40 106 
109 48 108 108 49 107 108 46 109 110 49 109 109 48 108 109 48 108 110 49 109 109 48 108 110 49 109 109 48 108 110 49 109 109 48 108 109 48 108 111 50 110 109 48 108 110 49 109 109 48 108 109 48 108 108 47 107 110 49 109 109 48 108 108 48 108 109 48 108 108 48 108 110 49 109 110 49 109 109 48 108 109 48 108 109 48 108 108 48 108 110 49 108 109 48 108 110 49 109 108 50 109 108 48 108 109 48 108 109 48 107 109 48 107 110 50 110 109 48 108 108 47 107 109 48 108 109 48 108 109 48 107 109 48 108 109 48 108 108 47 107 110 49 109 109 48 108 110 49 109 110 49 109 110 49 109 108 48 108 109 49 109 108 48 108 110 49 109 110 49 109 109 48 108 110 49 109 108 49 107 105 48 103 97 45 93 50 37 29 48 39 30 42 34 23 41 34 24 45 36 27 47 39 28 48 38 29 49 39 29 47 37 25 45 37 24 48 40 27 54 45 30 54 45 28 60 48 32 60 48 32 77 51 36 79 49 38 77 47 36 75 47 35 75 47 35 74 46 34 71 44 33 71 44 33 67 43 33 58 42 29 56 42 31 71 60 42 73 60 43 71 58 39 70 57 38 66 53 36 62 50 34 71 45 72 85 42 111 83 42 110 83 42 110 84 43 111 86 44 110 
108 48 110 108 47 107 109 47 110 109 48 108 110 49 109 110 49 109 110 49 109 109 48 108 109 48 108 109 48 108 109 48 108 109 48 108 109 48 108 109 48 108 110 49 109 109 48 108 109 48 108 109 48 108 108 47 107 108 47 107 109 48 108 109 48 108 108 48 108 109 48 108 108 48 108 109 48 108 110 49 109 108 48 108 110 49 109 110 49 109 109 47 110 109 48 108 110 49 109 108 48 108 109 48 108 109 48 108 110 49 109 109 48 108 110 49 109 109 48 108 109 48 108 109 48 108 109 48 108 109 48 107 110 49 109 109 48 108 109 48 108 109 48 108 110 49 109 109 48 108 110 49 109 109 48 108 109 48 108 109 48 108 109 49 109 109 48 108 108 47 107 109 48 108 107 49 108 108 49 107 104 46 104 98 46 94 50 37 28 51 38 30 41 35 23 40 34 22 47 37 25 48 40 27 47 39 28 49 39 27 47 37 25 45 37 26 48 38 28 55 45 33 54 45 30 60 48 32 61 48 32 78 50 36 80 51 37 76 48 37 75 47 35 75 47 35 74 47 36 68 45 31 67 43 31 67 43 31 57 43 32 56 42 29 72 61 43 72 59 40 69 58 40 70 57 40 65 54 36 60 51 34 72 46 71 83 42 108 84 43 111 84 43 111 83 42 110 85 43 109 
107 46 106 109 48 108 108 48 108 109 48 108 109 48 108 110 49 109 109 48 108 110 49 109 110 49 109 110 49 109 109 48 108 110 49 109 109 48 108 110 49 109 110 49 109 109 48 108 110 49 109 109 48 108 110 49 109 110 49 109 109 48 108 108 48 108 108 47 107 109 48 108 110 49 109 108 48 108 110 49 109 110 49 109 109 48 108 110 48 111 109 49 111 109 48 108 108 48 110 108 46 109 107 47 109 106 48 107 107 47 109 108 46 109 107 47 109 107 47 109 107 49 110 107 47 109 108 48 110 107 47 109 110 48 111 108 46 109 107 47 109 107 47 109 108 48 110 108 48 110 108 48 110 108 48 110 108 48 108 109 48 108 109 48 108 110 49 109 109 48 108 109 48 108 109 48 108 108 47 106 110 49 108 109 48 108 105 48 103 106 48 107 41 35 21 39 36 21 38 31 21 34 30 19 45 37 26 51 41 29 51 41 29 51 41 29 50 40 28 48 41 25 48 40 27 47 39 28 48 40 29 55 46 31 57 45 31 63 47 32 65 46 32 63 43 32 61 41 30 62 44 30 60 51 34 65 52 36 79 64 45 78 63 44 65 49 34 67 49 35 73 47 34 76 48 36 67 43 33 60 42 30 63 46 39 69 51 47 71 48 66 78 40 99 78 40 99 75 40 108 
109 45 106 110 49 109 109 48 108 110 49 109 109 48 108 110 49 109 109 48 108 109 48 108 109 48 108 109 48 108 109 48 108 109 48 108 109 48 108 109 48 108 109 48 108 109 48 108 109 48 108 110 49 109 109 48 108 109 48 108 109 48 108 109 48 108 109 48 108 109 48 108 110 49 109 110 49 109 110 49 109 109 48 108 110 49 109 109 47 110 108 48 110 108 48 110 108 48 110 108 48 110 108 48 110 109 49 111 107 47 107 107 47 109 107 47 109 106 48 109 108 48 110 107 47 109 109 47 110 107 47 109 108 48 110 108 48 110 107 47 109 108 48 110 108 48 110 107 47 109 108 48 108 108 48 108 109 47 110 109 48 108 111 47 108 110 49 109 110 49 109 109 48 108 110 49 109 110 49 109 110 49 109 109 48 107 106 47 105 106 47 105 40 34 22 40 34 20 37 30 20 38 31 23 45 37 26 49 41 28 51 41 29 48 40 27 50 40 28 49 39 27 49 39 27 47 39 28 47 39 26 54 45 30 57 45 31 63 47 34 66 47 33 63 43 32 61 41 30 62 44 30 61 49 35 65 53 37 78 63 44 78 63 42 65 49 34 66 48 34 75 49 36 76 48 36 66 44 33 60 42 30 62 48 39 70 51 45 71 46 65 78 40 97 78 40 97 77 42 110 
