P3
100 50
255
21 23 18 24 26 21 25 27 22 20 22 17 19 21 18 19 21 16 19 21 16 17 19 16 13 13 11 12 14 9 14 16 11 16 18 15 16 22 20 16 21 17 15 37 34 15 38 32 5 35 25 2 34 23 10 35 29 14 37 27 23 43 34 31 51 42 38 53 46 62 67 63 65 70 66 88 84 83 85 83 84 88 88 88 88 90 89 90 88 89 89 89 89 89 91 90 90 90 90 90 88 89 88 88 88 89 87 88 85 85 85 84 85 80 76 78 75 74 79 75 44 58 45 44 56 42 29 46 28 26 43 24 16 39 13 7 30 2 7 32 3 5 30 1 8 33 4 13 40 5 13 40 5 19 47 7 20 48 8 34 52 30 35 52 33 49 58 53 59 64 67 47 52 55 34 42 44 35 43 46 37 42 46 35 43 46 33 41 44 35 40 44 33 38 42 32 40 43 32 37 41 31 36 40 20 25 28 15 19 22 16 20 23 18 22 25 21 26 29 31 39 41 34 39 42 32 40 42 34 39 43 31 39 42 31 39 41 35 40 44 34 42 45 36 44 47 40 45 49 49 54 58 65 70 73 49 56 62 4 17 34 5 17 33 0 13 30 0 13 30 1 8 27 0 7 26 1 13 29 4 16 30 9 16 26 11 18 24 12 20 22 21 21 21 20 20 18 24 21 16 
21 23 18 21 23 18 20 22 17 18 20 15 17 19 16 15 17 12 15 17 12 14 16 13 15 15 13 15 17 12 16 18 13 16 20 19 22 28 28 20 29 28 8 32 34 9 33 37 4 30 31 2 28 29 22 38 38 34 44 43 59 60 62 81 77 78 84 78 80 88 86 87 88 86 87 88 88 88 90 90 90 89 89 89 90 90 90 88 90 89 89 89 89 90 90 90 88 90 89 89 89 91 89 89 91 90 90 90 89 89 89 90 90 90 87 85 88 86 86 86 84 84 84 81 81 81 65 70 64 60 67 59 32 49 30 6 32 5 8 31 3 6 31 2 11 36 6 23 49 10 23 49 10 24 51 8 24 51 10 28 47 27 29 46 28 53 62 57 69 75 75 54 59 62 40 45 48 39 44 48 37 45 48 36 44 47 35 43 46 35 43 46 33 41 44 33 41 44 31 39 42 31 36 40 22 26 29 14 18 21 17 18 22 15 19 22 19 24 27 32 40 43 34 39 42 34 42 44 34 42 45 36 44 47 37 45 48 35 43 46 33 41 44 39 47 50 47 52 56 51 59 62 61 69 72 46 55 60 3 14 32 4 16 32 1 12 30 0 11 29 0 3 22 0 1 19 7 7 17 9 8 14 18 17 13 29 22 12 31 25 13 33 29 17 35 29 15 36 30 18 
18 20 15 19 21 16 19 21 16 16 18 13 17 20 13 15 17 14 15 17 12 16 17 12 16 16 14 18 18 16 20 22 19 17 23 19 19 29 31 18 30 30 12 31 35 12 32 33 18 36 38 20 38 38 38 48 49 47 55 57 66 66 66 81 81 81 82 82 82 87 87 87 88 88 88 89 89 89 89 89 89 89 89 89 89 89 89 89 89 89 89 89 89 89 89 89 90 90 90 90 90 90 89 89 89 90 90 90 90 88 89 90 90 92 87 87 87 87 87 87 83 83 83 83 83 83 70 75 69 64 74 66 36 53 37 8 34 5 8 34 5 8 33 3 13 38 6 24 51 10 23 50 9 22 47 8 21 46 6 27 44 25 30 44 27 50 59 54 62 67 70 54 59 62 42 50 53 44 49 52 41 49 52 42 50 52 36 44 47 36 44 46 34 42 45 35 43 46 31 39 42 31 39 42 23 28 31 19 25 25 20 24 27 20 25 28 24 30 30 33 41 43 33 41 44 35 43 45 35 43 45 38 46 49 37 44 50 40 48 51 44 49 53 46 51 55 50 55 61 53 58 62 56 64 66 43 52 57 4 15 33 6 15 32 1 14 30 0 11 31 0 6 22 1 4 23 8 8 18 10 9 14 20 16 13 29 22 12 30 24 12 34 28 16 34 26 13 32 25 15 
15 17 12 15 16 11 14 16 11 15 17 12 16 16 14 17 18 13 16 18 13 19 19 19 19 21 18 21 26 22 24 28 29 21 31 32 12 29 36 12 29 37 25 30 34 22 29 35 71 65 65 76 70 72 82 80 81 87 85 86 87 87 87 89 89 89 89 89 89 89 89 89 89 89 89 89 89 89 90 90 90 90 90 90 90 90 90 89 89 89 89 89 89 89 89 89 89 89 89 89 89 89 90 90 90 89 89 89 89 89 91 89 89 91 89 89 89 90 90 90 89 89 89 89 89 87 86 88 87 84 86 85 49 64 45 11 43 6 12 42 8 15 45 7 19 47 9 25 50 11 25 50 11 17 33 7 17 33 7 32 41 24 33 42 23 41 47 45 45 52 58 52 60 63 62 67 71 62 67 71 60 65 68 58 63 66 40 45 49 40 45 49 37 42 46 37 42 46 36 41 44 36 41 44 34 42 45 33 38 42 34 39 43 34 39 43 33 41 44 34 42 45 34 42 45 34 42 45 36 44 46 42 50 53 46 51 55 60 65 68 66 70 73 61 66 69 57 60 65 51 58 64 42 51 56 30 43 51 0 11 29 1 12 32 1 12 30 2 13 31 2 11 28 0 12 28 11 12 16 15 14 12 20 17 10 22 17 11 24 20 11 26 19 9 23 21 9 20 17 10 
15 17 12 14 16 13 15 15 13 16 16 14 16 16 14 17 17 15 17 19 14 18 20 17 20 22 17 20 25 21 24 30 30 20 30 31 12 31 37 11 30 37 22 29 35 24 29 35 70 64 64 76 67 70 82 80 81 87 85 86 87 87 87 88 88 88 89 89 89 89 89 89 88 88 88 89 89 89 88 88 88 89 89 89 89 89 89 90 90 90 89 89 89 89 89 89 89 89 89 89 89 89 89 89 89 88 88 88 89 89 89 89 89 89 90 90 90 90 90 90 89 89 89 88 88 88 86 86 86 85 85 85 47 64 45 10 42 5 13 45 8 15 45 7 18 46 6 24 49 10 24 50 11 18 34 7 16 35 7 31 43 23 35 42 24 42 48 46 44 53 58 54 62 65 62 70 73 60 68 71 61 66 70 58 63 66 38 46 48 38 46 49 35 43 46 35 43 46 37 42 46 35 43 45 33 41 44 32 39 45 32 40 43 34 39 42 33 41 44 34 42 45 34 42 44 36 44 47 35 43 45 41 49 52 43 51 53 60 65 68 66 70 73 60 65 69 55 63 66 50 58 61 44 51 57 33 42 51 0 11 29 0 11 29 0 13 30 0 12 28 1 13 27 2 11 28 9 12 17 16 12 11 17 16 11 22 18 9 22 19 10 23 19 8 24 20 9 20 17 10 
17 22 18 21 26 22 21 25 24 22 31 30 22 31 30 23 33 35 22 33 35 18 34 34 14 31 38 18 31 39 19 26 34 32 35 40 69 58 62 69 59 60 88 88 88 86 88 87 90 88 89 88 88 88 88 88 88 89 89 89 89 89 89 89 89 89 90 90 90 89 89 89 88 88 88 88 88 88 89 89 89 89 89 89 89 89 89 89 89 89 89 89 89 89 89 89 89 89 89 89 89 89 89 89 89 89 89 89 90 88 89 89 89 89 87 87 87 87 87 87 86 86 86 83 85 84 64 74 65 60 72 58 36 59 31 11 48 7 15 45 7 17 45 7 19 45 8 21 49 9 19 47 7 29 37 14 29 37 16 34 42 19 35 45 21 36 43 35 34 42 44 39 49 51 45 55 57 46 56 58 47 55 58 49 57 60 52 60 63 56 61 65 63 68 71 63 68 71 62 67 70 62 67 70 60 65 68 59 63 66 60 65 68 62 67 70 62 67 70 63 67 70 63 68 71 62 67 70 63 68 71 52 60 62 51 59 62 49 54 58 46 56 58 46 55 60 44 53 58 38 42 51 22 29 39 16 26 36 1 12 30 1 12 30 1 12 30 0 13 30 1 12 30 0 11 29 1 12 30 1 12 30 2 7 27 2 3 21 1 2 20 0 2 17 1 4 21 2 11 28 
16 21 17 21 25 24 21 26 22 24 30 30 24 30 30 23 33 34 21 32 36 18 33 36 14 33 39 17 32 39 20 27 35 32 35 40 69 58 62 69 59 60 87 87 87 86 86 84 87 87 87 89 87 88 88 88 90 89 89 91 89 89 89 89 89 89 88 88 88 89 89 89 89 89 89 90 90 90 88 88 88 90 90 90 89 89 89 89 89 89 88 88 88 89 89 89 89 89 89 88 88 88 89 89 89 89 89 89 90 88 89 89 89 89 87 87 87 86 86 86 84 84 84 84 84 84 65 75 66 59 71 57 36 61 32 15 47 8 15 47 8 17 45 7 17 45 7 21 47 8 20 46 7 28 36 13 27 37 13 34 44 19 35 45 20 36 43 36 35 40 43 42 47 51 47 55 58 46 55 60 47 57 59 48 58 60 53 61 64 54 59 63 63 68 71 63 68 72 64 68 71 64 67 72 61 65 68 59 64 67 61 66 69 61 66 69 62 67 70 62 67 70 63 68 72 63 68 71 62 67 70 51 59 61 50 58 61 48 56 59 47 54 60 46 53 59 44 53 58 36 45 50 21 32 38 16 26 38 2 14 30 1 12 30 0 11 29 0 11 29 0 11 29 0 13 29 0 11 29 0 11 29 1 8 26 0 3 20 2 3 21 1 3 18 2 5 22 0 11 29 
15 30 35 13 28 33 13 28 35 9 28 34 8 27 33 15 26 30 16 23 31 22 22 24 30 22 19 41 36 33 63 63 63 67 69 68 84 82 83 84 82 83 87 87 89 87 89 88 89 89 89 89 89 89 89 89 89 89 89 89 89 89 89 89 89 89 89 89 89 90 90 90 88 88 88 89 89 89 90 90 90 89 89 89 88 88 88 89 89 89 88 88 88 89 89 89 89 89 89 88 88 88 88 88 88 87 87 87 86 86 86 85 87 84 84 86 85 83 85 84 74 77 70 71 76 69 29 52 26 17 46 15 23 43 18 27 42 23 37 48 32 57 56 51 48 50 39 21 33 13 20 32 12 28 36 13 28 36 15 30 38 15 30 38 15 29 39 30 31 39 41 35 40 43 37 42 46 40 45 48 44 52 55 46 54 56 46 54 57 46 54 57 47 57 59 46 55 60 47 54 60 48 56 59 46 54 57 46 54 57 47 55 58 47 57 59 47 54 60 46 55 60 49 54 60 46 55 60 48 56 59 45 53 56 44 52 55 43 51 53 42 50 53 38 45 51 35 40 44 32 36 39 26 29 36 22 25 34 1 13 29 1 12 30 3 11 30 0 13 30 0 13 29 0 12 28 0 13 30 1 13 29 1 6 25 1 2 20 1 2 20 2 5 24 0 3 22 0 9 26 
13 32 39 11 28 35 10 29 35 8 27 33 7 26 32 14 25 29 15 22 28 22 22 24 31 22 17 47 39 37 70 68 69 76 74 75 86 86 86 87 87 87 89 89 89 91 89 90 87 89 88 87 89 88 89 89 89 88 88 88 90 90 90 90 90 90 90 90 90 90 90 90 89 89 89 89 89 89 89 89 89 89 89 89 89 89 89 88 88 88 89 89 89 89 89 89 90 90 90 89 89 89 87 87 87 87 87 87 86 86 84 85 83 84 85 85 85 85 85 85 70 75 68 70 75 68 24 49 20 11 40 9 21 41 16 29 40 24 41 49 36 63 60 55 51 52 44 22 31 12 23 30 12 28 36 15 28 36 13 29 37 14 29 37 14 31 38 30 32 38 36 31 39 41 33 41 43 37 45 47 43 51 54 43 51 54 45 52 58 45 52 58 45 52 58 46 53 59 45 53 56 46 54 57 45 53 56 44 52 55 44 53 58 45 54 59 46 53 59 45 52 58 44 53 58 46 53 59 46 56 58 42 52 54 43 53 55 42 50 53 42 50 53 37 45 48 33 38 42 32 35 40 29 29 37 22 25 32 2 13 31 1 12 30 1 12 30 1 13 29 0 12 28 1 12 30 3 12 29 1 13 29 1 6 25 2 0 21 1 2 22 0 6 22 0 5 24 1 8 26 
24 29 32 22 30 33 21 28 34 29 27 28 29 27 28 22 30 17 20 33 13 16 29 9 12 27 4 33 41 28 67 67 65 69 69 67 74 74 74 77 73 74 82 81 79 81 81 81 87 87 87 90 90 90 89 89 89 88 88 88 90 90 90 90 90 90 89 89 89 88 88 88 88 88 88 89 89 89 89 89 89 89 89 89 89 89 89 89 89 89 88 88 88 88 88 88 86 86 86 86 86 86 86 86 86 85 85 85 84 84 82 85 84 82 80 83 66 79 82 65 70 79 62 68 76 61 28 53 23 15 45 9 39 52 32 58 57 52 63 59 56 64 59 55 55 54 49 34 35 29 32 35 28 33 43 18 33 43 18 31 39 16 30 38 15 30 40 31 35 41 41 35 41 41 32 40 43 33 41 43 34 42 45 33 41 44 35 43 46 35 43 46 38 46 49 38 46 49 39 47 50 38 48 50 40 48 51 39 47 50 41 49 52 41 49 52 39 49 51 39 47 50 39 47 50 39 44 48 38 43 47 36 41 45 36 41 44 34 42 45 35 40 44 32 40 43 34 39 43 32 38 38 30 35 29 35 36 30 44 35 30 44 34 32 18 16 27 18 16 29 5 12 28 1 13 29 3 12 29 3 11 30 0 7 25 0 3 22 2 5 24 1 8 26 1 7 23 1 4 23 
25 29 30 26 31 34 27 31 34 37 29 27 37 27 25 25 34 13 21 37 8 13 33 5 5 30 1 30 44 27 66 67 62 66 68 65 71 71 71 69 69 69 79 79 79 79 79 79 88 88 88 90 90 90 90 90 90 89 89 89 89 89 89 89 89 89 89 89 89 89 89 89 89 89 89 88 88 88 89 89 89 89 89 87 90 90 90 88 88 88 89 89 89 87 87 85 85 85 85 85 85 85 83 83 83 85 85 85 84 85 80 83 84 78 79 82 61 79 82 61 68 77 60 65 76 60 32 52 24 19 46 11 43 54 37 69 64 61 68 63 60 64 61 56 59 54 51 36 36 34 37 36 34 35 45 18 35 45 20 31 41 16 31 39 16 33 40 32 36 40 41 34 39 42 31 39 42 33 38 42 30 38 40 30 38 40 31 39 41 31 39 42 35 43 46 35 43 46 36 44 47 36 44 47 38 46 49 37 45 48 38 46 49 38 46 49 37 45 48 36 44 47 36 44 47 34 42 45 34 42 45 33 38 42 30 38 41 31 39 42 33 38 42 32 40 42 34 39 43 33 39 37 32 40 29 39 41 30 59 43 30 60 42 32 24 16 27 23 15 26 4 13 30 1 12 30 1 13 29 0 11 29 1 8 26 1 4 23 0 4 23 0 7 23 1 8 26 1 4 21 
30 32 31 28 29 31 28 29 31 32 26 26 31 25 25 26 32 20 26 34 19 22 33 17 15 32 14 33 43 32 62 62 60 64 66 63 69 69 69 69 69 69 75 75 75 76 76 76 80 80 80 82 82 82 84 84 84 87 87 87 86 86 86 89 89 89 89 89 89 87 87 87 87 87 87 88 88 88 88 88 86 89 89 89 87 87 87 87 87 87 86 86 86 86 86 86 85 85 83 84 84 82 80 82 69 81 83 72 80 81 65 80 83 66 80 83 64 81 84 65 77 83 73 79 82 75 47 60 43 36 51 32 54 60 50 72 66 66 63 59 56 50 46 43 46 42 41 34 33 31 34 33 31 30 40 16 30 38 17 32 42 18 34 42 19 33 43 34 36 42 42 33 41 43 33 41 44 32 42 44 32 40 42 30 38 41 32 40 43 33 38 42 36 41 45 33 41 44 34 42 45 34 42 45 34 42 45 34 42 45 37 42 46 35 43 46 35 43 46 35 43 46 34 42 45 32 40 43 32 40 43 30 40 42 31 39 42 35 40 44 32 40 43 32 40 42 34 39 43 33 39 37 34 42 31 38 42 28 49 42 23 49 42 26 36 33 24 39 32 26 29 27 28 28 26 27 17 15 26 12 10 24 7 10 27 1 8 26 0 9 26 2 9 28 1 8 27 0 5 24 
31 31 31 28 26 27 28 28 28 27 25 26 25 25 25 28 28 26 30 30 28 27 32 26 25 35 24 37 44 36 58 58 56 61 61 61 68 68 68 69 69 69 72 72 72 71 71 71 73 73 73 72 72 72 79 79 79 83 83 83 87 87 87 89 89 89 89 89 89 89 89 89 89 89 89 89 89 89 89 89 89 85 85 85 86 86 86 84 84 84 84 84 84 84 84 84 83 83 83 83 84 76 75 78 57 76 80 57 78 81 52 77 81 56 83 86 69 82 85 68 87 87 87 87 87 89 63 65 60 55 57 52 64 65 60 73 72 70 59 58 56 36 35 33 36 32 31 33 29 26 32 31 27 25 32 14 25 31 17 33 43 18 35 45 20 36 46 37 36 44 46 34 43 42 34 42 44 33 41 44 33 38 41 32 40 43 32 40 43 33 38 42 33 38 42 32 40 42 31 39 41 34 39 43 32 40 43 31 39 42 34 39 43 33 41 44 32 40 43 33 38 42 31 39 42 35 40 44 33 38 42 31 39 42 34 39 43 33 41 43 33 41 44 35 40 44 35 40 44 33 42 39 35 43 32 35 44 27 39 45 17 38 44 16 49 49 25 48 48 24 55 42 26 55 39 24 37 21 21 23 10 20 13 11 25 1 12 30 0 11 29 2 10 29 0 11 31 2 9 27 
34 34 34 30 30 30 32 32 32 29 29 29 27 31 30 31 31 31 32 32 30 28 33 29 27 32 26 35 37 32 45 47 44 46 48 45 54 54 54 54 54 54 59 59 59 59 59 59 65 65 65 65 65 65 73 73 73 77 77 77 80 80 80 84 84 84 85 85 85 89 89 89 88 88 88 87 87 87 88 88 88 86 86 84 86 86 86 81 84 77 82 83 77 78 80 69 79 81 67 79 82 63 76 80 57 79 80 62 81 84 63 81 84 65 83 85 74 83 85 74 86 86 86 87 87 87 58 59 54 50 53 46 63 59 56 72 68 65 58 54 53 35 31 30 35 31 30 32 28 27 32 28 25 22 26 12 22 26 12 33 43 18 34 44 19 35 45 36 36 45 44 35 43 45 37 42 46 35 43 46 32 40 42 32 40 43 33 40 46 35 40 44 35 40 43 32 40 42 32 40 42 31 39 42 33 41 44 31 39 42 32 40 43 32 39 45 34 39 45 34 39 43 34 39 43 34 39 43 33 41 44 35 40 44 34 39 43 33 41 43 34 42 45 34 42 45 34 42 45 33 42 39 29 41 31 28 40 26 29 39 12 27 40 12 37 43 15 35 44 15 43 36 17 42 37 18 34 27 17 24 19 15 20 18 19 15 19 22 14 17 26 8 14 30 6 13 31 2 13 31 
37 37 37 39 39 39 37 37 37 38 38 38 37 37 39 36 36 36 35 35 35 32 32 32 30 30 30 29 29 29 26 26 26 26 26 26 28 28 28 28 28 28 40 40 40 40 40 40 53 53 53 55 55 55 61 61 61 66 66 66 70 70 70 75 75 73 78 78 78 88 88 88 88 88 88 84 84 84 84 84 84 85 85 85 86 86 86 79 81 68 79 80 64 74 79 49 71 77 39 74 77 46 77 81 56 81 84 63 88 89 84 88 89 84 84 84 84 87 87 87 83 83 83 84 84 84 49 55 45 36 44 29 54 54 46 68 61 55 55 50 46 33 29 26 33 29 26 32 28 27 32 28 27 14 17 8 16 17 11 31 39 18 33 43 19 34 44 35 36 45 44 36 44 46 39 44 48 37 42 45 33 41 43 32 40 42 34 42 45 35 43 46 34 42 44 36 41 44 35 40 44 35 40 43 33 41 44 31 39 42 33 38 42 32 40 43 32 40 43 32 40 43 33 41 44 36 41 45 34 42 45 35 43 46 33 43 45 35 43 45 36 44 47 36 44 47 37 45 48 31 41 40 24 35 27 19 35 22 7 30 1 9 29 1 17 30 0 17 32 0 22 33 3 21 30 1 26 32 4 28 35 4 34 29 9 39 27 11 31 26 20 22 20 31 20 20 32 0 18 38 
39 37 38 38 38 40 38 38 38 38 38 38 38 38 38 36 36 36 35 35 35 33 33 33 31 31 31 28 28 28 27 27 27 27 27 27 29 29 29 29 29 29 40 40 40 38 38 38 50 50 50 50 50 50 57 57 57 60 60 60 65 65 65 70 70 70 73 73 73 83 83 83 83 83 85 82 82 80 83 83 83 84 84 82 83 83 81 80 83 66 78 80 59 74 77 48 73 77 44 75 78 47 79 83 60 81 84 67 87 87 85 87 88 83 85 85 85 85 85 87 82 82 80 83 83 81 51 54 45 39 45 31 53 53 45 68 60 57 55 50 46 34 30 29 33 29 28 31 27 24 29 28 26 16 17 12 16 17 12 32 40 17 33 43 19 36 43 35 36 44 46 36 44 46 38 43 47 37 42 45 34 42 45 36 41 44 36 41 44 37 42 46 36 41 45 36 41 45 34 42 45 34 42 44 33 43 45 34 42 45 34 42 44 34 42 44 35 43 45 35 43 45 34 42 45 36 41 45 33 43 45 34 42 44 34 42 45 36 44 46 36 44 47 36 44 47 37 45 48 31 41 40 23 36 27 18 34 21 7 30 1 9 29 1 17 32 1 17 31 0 21 32 2 19 32 2 24 33 6 28 32 5 29 31 7 35 28 9 30 26 17 20 21 26 16 21 27 6 19 35 
38 38 38 36 36 38 38 38 38 36 36 36 38 38 38 38 38 38 37 37 37 38 38 38 39 37 38 38 36 37 38 38 38 38 38 38 37 37 37 37 37 37 32 32 32 32 32 32 27 27 27 26 26 26 26 26 26 26 26 26 29 29 29 33 33 33 38 38 38 53 53 53 53 53 53 70 70 70 70 70 68 69 75 39 69 73 40 71 75 40 72 76 41 83 82 61 85 85 73 85 85 77 86 86 86 85 85 85 84 84 84 85 85 85 84 84 84 84 84 84 71 75 58 71 76 56 56 55 50 51 50 48 54 51 46 56 51 47 50 45 41 40 34 34 39 35 34 34 29 26 33 29 26 22 18 15 21 20 16 33 41 18 32 45 19 34 44 35 38 43 46 36 44 46 38 43 47 35 43 46 34 42 45 33 41 43 36 44 46 36 44 46 36 44 47 37 42 46 45 50 54 48 54 54 54 59 63 55 63 66 54 62 64 54 62 64 53 58 61 41 46 49 40 48 51 37 45 48 36 43 49 34 42 44 35 43 45 36 44 46 36 44 47 38 43 47 36 44 47 30 42 40 21 37 27 14 37 21 2 28 1 1 27 2 12 31 1 12 31 1 14 33 1 15 32 0 17 32 1 17 32 1 18 31 1 18 32 0 19 32 2 20 31 1 21 30 3 32 26 12 
37 39 38 38 38 38 38 38 38 37 37 37 38 38 38 38 38 38 38 38 38 38 38 38 38 38 38 37 37 37 38 38 38 38 38 38 37 37 37 37 37 37 31 31 31 32 32 32 27 27 27 26 26 26 26 26 26 25 25 25 29 29 29 33 33 33 38 38 38 52 52 52 56 56 56 69 69 67 70 70 68 68 74 38 69 73 38 71 75 40 72 76 39 79 81 60 84 85 71 85 85 77 87 85 86 86 84 87 84 84 84 83 85 84 83 85 84 86 86 86 70 77 59 69 77 56 55 58 49 50 51 45 54 51 46 58 50 47 51 46 43 41 36 33 39 34 31 32 28 25 32 28 25 21 17 16 21 20 18 33 41 20 33 45 21 34 44 35 36 44 46 36 44 46 37 45 48 35 45 47 34 41 47 35 43 46 37 45 48 36 44 47 35 43 46 36 43 49 43 51 54 48 53 56 54 57 62 57 62 66 56 61 64 57 62 65 52 57 60 43 47 50 40 48 51 39 44 48 36 45 50 33 43 44 34 42 44 36 44 46 37 45 48 38 43 47 36 44 47 32 42 41 21 37 27 17 35 21 2 28 1 2 28 1 12 31 1 11 30 0 15 32 0 15 30 1 17 32 1 17 32 1 18 31 1 18 32 0 21 32 0 22 33 3 21 32 2 32 26 10 
38 38 38 38 38 38 38 38 38 37 37 37 38 38 38 38 38 38 38 38 38 38 38 38 37 37 37 38 38 38 38 38 38 38 38 38 38 38 38 37 37 37 37 37 37 37 37 37 39 39 39 38 38 38 37 37 37 37 37 37 37 37 39 34 34 34 33 33 33 29 29 29 30 30 30 33 33 33 33 33 33 34 34 34 34 34 34 75 75 73 90 91 86 85 85 85 85 85 85 84 84 86 85 85 87 85 84 82 82 83 75 80 82 71 69 75 49 69 74 51 44 58 25 42 56 23 54 57 46 58 57 55 57 53 50 55 50 46 50 47 42 41 38 33 39 36 29 30 26 23 29 28 24 15 14 12 14 13 11 18 22 8 18 22 7 30 35 31 37 42 45 35 43 46 37 45 48 36 44 47 37 45 48 36 44 47 36 44 47 39 44 48 37 42 46 38 43 47 46 54 57 49 58 63 46 46 48 41 40 38 41 41 41 40 44 47 44 48 49 50 58 61 48 56 59 35 43 46 36 44 47 32 40 42 33 38 42 34 42 45 37 45 48 37 45 47 36 44 47 30 40 39 22 38 27 17 35 23 1 27 0 1 27 2 2 28 1 3 29 2 9 29 1 9 29 1 10 30 2 11 30 2 11 30 2 11 30 2 11 30 2 10 30 2 11 31 3 8 28 0 
38 38 38 38 38 38 38 38 38 38 38 38 38 38 38 38 38 38 37 37 37 38 38 38 37 37 37 38 38 38 38 38 38 37 37 37 38 38 38 37 37 37 38 38 38 37 37 37 38 38 38 38 38 38 38 38 38 38 38 38 36 36 36 35 35 35 33 33 33 29 29 29 30 30 32 33 33 33 33 33 33 35 35 35 34 34 34 76 76 74 89 90 84 86 86 84 85 85 85 85 85 85 84 84 84 84 84 82 83 83 73 79 82 71 68 74 48 68 74 48 45 58 28 40 57 23 54 57 46 57 58 53 57 53 50 54 49 46 50 45 42 41 38 33 38 34 31 30 26 25 29 25 22 14 14 12 16 12 13 19 21 10 18 22 8 28 34 30 35 43 45 35 43 45 37 45 48 36 44 47 39 44 48 37 45 48 36 44 47 38 46 48 36 44 46 37 45 48 48 53 57 49 56 62 45 47 46 42 41 39 41 41 41 42 46 45 43 47 48 50 58 61 47 55 58 37 42 46 35 43 46 33 41 44 31 39 42 35 43 46 37 45 48 36 44 47 36 44 47 30 40 39 20 37 27 15 36 21 2 28 1 2 28 1 2 28 0 4 27 1 9 29 1 9 29 1 9 29 1 12 31 1 12 28 1 12 31 3 10 29 1 10 31 0 10 30 2 8 28 0 
37 37 37 38 38 38 37 37 37 38 38 38 38 38 38 38 38 38 38 38 38 38 38 38 37 37 37 38 38 38 38 38 38 38 38 38 38 38 38 38 38 38 38 38 38 38 38 38 37 37 37 37 37 37 37 37 37 38 38 38 37 37 37 38 38 38 37 37 37 34 34 34 33 33 33 31 31 29 31 31 29 41 41 39 41 41 41 74 74 74 85 85 85 84 85 80 82 83 78 80 82 71 77 80 59 78 81 60 79 82 61 80 83 66 85 88 81 85 86 81 40 53 36 34 49 30 59 62 55 68 67 65 50 50 42 33 33 23 32 36 21 33 41 20 28 35 19 18 17 13 19 18 14 32 28 25 32 28 25 10 23 6 5 19 2 21 32 26 32 40 42 34 42 44 35 45 47 37 45 48 36 44 47 36 44 47 37 45 48 35 45 47 38 43 47 36 43 49 42 46 49 45 49 52 45 32 26 46 22 12 45 23 10 41 21 12 44 31 25 45 55 57 45 55 57 37 45 48 35 43 46 34 42 45 35 43 46 36 44 47 36 44 47 35 43 46 34 42 45 31 41 40 24 37 28 16 34 20 1 27 2 2 28 1 1 27 0 2 28 1 4 29 0 6 29 1 3 29 0 3 29 0 4 28 2 3 28 0 3 28 0 4 29 0 4 30 5 2 28 1 
37 37 37 38 38 38 38 38 38 38 38 38 38 38 38 38 38 38 38 38 38 37 37 37 38 38 38 38 38 38 38 38 38 38 38 38 38 38 38 38 38 38 38 38 38 38 38 38 39 39 39 37 37 37 37 37 37 37 37 37 38 38 38 38 38 38 37 37 37 34 34 34 34 34 34 29 29 27 29 29 29 42 42 42 43 43 43 75 75 77 85 85 87 83 84 79 82 83 77 80 82 68 77 79 57 76 78 57 79 83 60 79 82 63 87 87 85 86 86 84 39 53 36 31 48 30 61 61 59 71 67 66 49 48 43 29 31 18 31 35 18 32 42 18 28 35 17 16 16 14 15 16 11 34 30 27 34 30 27 7 21 4 3 20 2 21 32 26 30 38 40 34 42 45 36 44 47 38 46 48 39 44 48 36 44 47 39 44 48 36 43 49 35 43 46 35 43 46 43 46 51 43 47 48 44 29 22 46 20 7 45 19 6 42 20 6 45 28 21 45 55 57 43 52 57 35 45 47 35 43 45 35 42 48 35 43 45 35 42 48 35 43 46 34 42 45 34 41 47 30 39 36 21 37 27 16 34 22 2 28 3 0 28 0 0 28 0 0 29 1 5 30 1 4 30 1 3 29 2 1 27 0 2 28 1 3 27 1 4 28 2 3 27 1 3 27 1 2 28 1 
39 39 39 38 38 38 37 37 37 37 37 37 36 36 36 38 38 38 38 38 38 37 37 37 38 38 38 37 37 37 36 36 36 38 38 38 37 37 37 37 37 37 37 37 37 37 37 37 37 37 37 37 37 37 37 37 37 36 36 36 34 34 34 33 33 33 33 33 31 31 31 31 31 31 31 29 29 29 28 28 28 61 61 61 60 60 58 72 74 61 78 80 66 78 81 64 77 79 58 79 80 62 81 82 68 80 82 68 84 84 76 83 84 76 85 85 83 86 86 88 24 41 22 16 35 15 60 62 57 74 70 69 51 51 43 25 29 14 29 37 16 36 46 21 29 39 15 21 22 14 20 21 13 34 30 27 33 29 28 7 19 7 4 18 3 20 31 25 28 39 35 32 42 41 35 43 45 37 45 48 36 44 47 35 43 45 38 46 49 35 45 47 35 43 46 35 43 46 40 44 45 43 44 46 45 31 22 49 23 10 46 23 9 46 23 9 46 29 21 43 54 58 43 53 54 35 43 46 36 44 47 36 44 47 36 43 49 36 44 47 39 44 48 37 45 48 38 43 47 29 40 36 16 34 22 12 33 16 2 28 1 3 27 1 2 28 1 1 27 0 2 28 1 3 27 1 2 28 1 0 29 1 2 28 0 2 28 1 1 27 0 1 27 2 1 27 0 0 26 0 
38 38 38 38 38 38 38 38 38 38 38 38 38 38 38 38 38 38 38 38 38 38 38 38 37 37 37 38 38 38 38 38 38 38 38 38 37 37 37 37 37 37 38 38 38 37 37 37 38 38 38 37 37 37 37 37 37 36 36 36 33 33 33 31 31 31 30 30 32 29 29 29 28 28 30 29 29 29 29 29 29 70 71 66 70 71 66 73 76 57 74 76 54 74 76 52 75 78 49 78 80 59 82 84 73 83 86 77 85 87 86 85 87 86 86 84 85 85 85 85 14 36 15 4 28 6 58 61 54 75 71 68 50 50 40 21 28 10 28 36 13 37 47 22 36 44 21 22 25 14 22 26 12 33 29 26 34 30 29 7 17 6 4 17 0 19 30 22 26 39 30 32 42 41 36 44 46 36 44 47 36 44 47 36 44 46 36 44 47 36 44 47 36 44 47 36 44 46 40 44 45 40 44 43 45 32 23 48 25 11 47 25 11 48 25 9 47 30 20 44 53 60 43 51 54 35 43 45 34 42 45 36 43 49 36 44 46 36 44 47 38 43 47 36 44 47 36 44 46 28 40 36 14 32 16 10 31 12 1 27 0 1 27 0 1 27 0 2 28 1 2 28 1 2 28 1 1 27 0 2 28 1 2 28 1 2 28 3 2 28 0 0 29 1 1 27 0 1 27 0 
38 38 38 38 38 38 38 38 38 37 37 37 37 37 37 38 38 38 38 38 38 38 38 38 38 38 38 38 38 38 37 37 37 37 37 37 37 37 37 38 38 38 37 37 37 37 37 37 35 35 35 34 34 34 33 33 33 33 33 33 31 31 31 28 28 28 30 30 30 33 33 31 32 32 30 27 27 27 26 26 26 71 74 57 73 74 56 76 78 57 76 79 58 78 80 66 79 82 65 81 83 70 83 84 79 85 86 80 84 86 83 84 84 84 73 75 70 74 76 73 12 34 11 7 26 4 46 49 42 58 57 53 42 46 32 25 32 14 29 37 14 34 44 19 32 40 17 25 32 16 24 31 13 30 30 20 29 30 22 9 17 6 7 15 4 13 27 14 16 34 20 27 39 35 36 44 47 37 45 48 36 44 47 37 45 48 35 43 45 36 44 46 35 43 46 35 43 45 39 43 44 41 45 46 46 32 23 48 25 11 47 24 10 45 23 9 46 29 19 43 52 57 43 52 57 36 45 44 35 43 46 37 45 48 36 44 47 36 44 47 38 43 47 36 44 46 35 45 44 26 42 32 13 39 12 10 36 9 3 32 2 1 32 1 0 29 1 0 29 1 2 28 1 0 28 3 1 27 0 2 28 1 1 30 2 2 31 3 0 31 0 3 32 2 2 31 3 2 28 3 
37 37 37 38 38 38 38 38 38 38 38 38 38 38 38 38 38 38 38 38 38 37 37 37 38 38 38 38 38 38 38 38 38 37 37 37 37 37 37 38 38 38 37 37 37 37 37 37 33 33 33 32 32 32 30 30 30 28 28 28 29 29 31 27 27 29 30 30 28 38 39 33 36 37 32 25 25 25 24 24 24 72 77 45 75 78 47 76 80 57 77 82 62 81 84 73 85 86 80 84 84 82 84 84 84 84 84 84 83 85 84 82 84 83 59 66 58 58 68 57 10 32 11 3 27 5 32 38 24 39 42 31 34 41 25 31 39 16 31 39 16 31 39 15 30 40 16 29 37 14 27 37 13 26 30 16 26 30 15 10 15 8 9 14 8 6 23 7 6 30 8 21 37 26 36 44 46 38 43 46 39 44 48 36 44 47 33 40 46 33 43 45 34 44 46 35 43 46 42 43 45 44 44 46 45 31 22 46 23 9 45 23 9 44 22 9 43 29 20 43 52 57 43 52 57 38 43 46 35 43 46 38 43 46 37 45 48 38 43 47 37 45 48 35 46 42 33 44 38 25 43 27 11 43 4 9 41 2 4 35 3 6 35 4 1 30 2 0 29 1 1 30 2 2 28 1 0 29 1 0 29 1 2 31 3 4 35 4 4 35 3 4 35 3 4 33 3 2 26 0 
38 38 38 38 38 38 38 38 38 37 37 37 38 38 36 37 37 37 37 37 37 36 36 36 38 38 36 37 37 37 37 37 37 37 37 37 36 36 36 37 37 37 35 35 35 35 35 35 31 31 31 30 30 30 30 30 30 29 29 29 31 31 29 33 33 33 34 34 32 43 44 36 42 44 33 28 28 26 29 29 27 75 79 54 76 78 56 78 81 62 80 82 68 83 84 76 85 85 83 85 85 83 84 84 86 83 84 79 80 80 78 75 77 72 45 57 45 45 57 43 9 28 8 4 26 5 30 36 22 37 40 29 33 40 22 30 40 16 28 40 16 31 41 16 31 41 17 29 39 15 29 39 15 27 31 14 26 30 15 11 16 9 10 15 9 7 24 6 4 30 5 17 35 19 28 40 36 30 40 39 34 42 44 33 43 44 33 41 44 33 41 43 38 44 44 37 42 48 42 43 45 42 44 43 44 31 22 47 24 8 46 24 10 46 22 10 46 29 22 44 54 56 41 50 55 36 44 47 38 43 47 36 44 46 38 43 46 35 43 45 34 44 45 30 43 36 26 42 32 18 42 20 9 41 4 8 40 3 6 37 3 3 39 3 2 33 2 2 31 3 2 31 1 1 30 2 2 31 3 1 30 2 2 31 1 3 32 2 4 33 3 4 33 3 4 33 3 2 26 0 
37 37 37 37 37 37 38 38 38 37 37 37 36 36 36 36 36 36 38 38 38 37 37 37 37 37 37 37 37 37 38 38 38 37 37 37 33 33 33 33 33 33 29 29 29 28 28 28 29 29 29 27 29 28 28 30 29 29 29 27 36 37 31 45 47 36 49 51 38 63 66 45 60 63 44 40 42 31 41 42 34 83 85 74 84 84 74 85 86 81 86 86 86 85 85 85 84 84 84 84 84 82 83 83 83 78 80 77 58 67 50 53 62 45 2 28 1 2 28 1 8 26 4 11 26 5 22 31 12 26 33 15 29 37 16 31 41 17 32 41 20 33 43 18 33 43 18 34 44 19 33 43 18 26 34 13 26 35 14 16 17 11 14 14 12 6 25 6 1 27 0 3 29 4 4 29 7 13 31 15 28 40 36 28 39 35 35 40 46 35 40 44 36 44 47 37 42 46 40 44 45 43 45 44 50 33 25 54 26 14 51 25 10 47 24 8 47 30 20 43 53 55 42 52 54 38 43 47 37 42 46 35 43 46 35 43 46 25 40 33 23 39 29 14 36 15 4 35 3 3 34 3 3 37 4 4 38 5 2 44 4 5 46 6 3 39 3 4 38 5 4 35 1 4 35 3 3 34 3 3 32 2 2 31 1 3 29 2 3 29 4 1 30 2 1 30 0 2 28 1 
38 38 38 37 37 37 37 37 37 37 37 37 37 37 37 37 37 37 37 37 37 37 37 37 37 37 37 36 36 36 37 37 37 36 36 36 32 32 32 33 33 33 28 28 28 28 28 28 30 30 30 30 30 28 30 30 30 30 31 26 38 39 33 46 47 39 48 50 39 59 62 43 55 58 41 45 46 40 44 45 39 83 85 74 82 83 75 84 85 80 84 84 82 85 85 83 83 83 83 83 83 81 82 82 80 79 80 75 62 69 53 55 64 47 4 30 1 5 29 3 10 28 6 12 27 6 24 33 12 28 35 17 31 39 18 34 42 19 33 43 18 33 43 16 35 43 19 33 43 18 31 44 18 28 36 15 28 36 15 16 18 13 15 15 13 6 23 5 2 28 1 2 28 3 4 28 6 9 32 12 25 38 29 26 39 32 30 40 41 30 40 41 33 41 43 36 42 42 39 43 44 39 43 42 46 34 22 48 27 10 47 25 11 43 24 7 44 30 19 42 51 56 41 52 54 34 42 44 35 43 45 32 42 43 32 42 43 23 39 29 19 37 23 11 35 13 2 33 1 2 33 2 4 35 3 2 36 3 4 45 5 3 45 7 2 36 3 2 36 3 4 35 4 4 35 3 4 33 3 2 31 1 1 30 0 1 30 2 0 28 0 2 28 1 3 29 2 0 29 1 
38 38 38 37 37 37 37 37 37 38 38 38 37 37 37 37 37 37 38 38 38 36 36 36 35 35 35 33 33 33 29 29 29 28 28 28 30 28 29 28 28 28 28 28 28 28 28 26 42 44 33 44 46 35 39 40 32 37 39 28 46 47 39 58 60 47 51 52 44 33 33 31 38 38 38 72 72 72 72 72 72 84 84 84 84 84 82 84 84 84 83 83 85 80 81 75 79 81 70 78 80 66 75 78 57 77 80 63 75 80 73 68 75 67 22 39 21 21 38 20 26 35 16 26 33 15 33 41 18 35 45 21 34 44 19 34 44 19 33 43 18 32 42 18 32 42 18 34 44 19 33 43 18 37 47 22 36 46 21 16 19 12 15 16 10 8 22 5 2 26 2 1 27 0 0 28 0 0 28 0 1 27 0 3 27 1 5 29 7 5 29 7 15 33 17 15 33 19 22 38 27 24 40 30 19 32 14 13 29 3 13 27 2 11 27 1 15 30 11 29 44 39 29 42 35 10 31 14 10 31 14 4 30 5 5 27 4 2 28 1 2 28 1 1 27 0 2 28 1 2 28 0 0 29 1 2 28 3 1 27 0 0 26 1 0 27 2 1 27 2 2 28 3 1 27 2 2 28 0 0 28 0 2 28 1 2 28 1 2 28 1 2 28 1 1 27 0 0 29 1 
38 38 38 37 37 37 38 38 38 38 38 38 37 37 37 38 38 38 38 38 38 36 36 36 35 35 35 33 33 33 29 29 29 29 29 29 29 29 29 28 28 28 28 28 28 28 28 28 42 43 35 44 46 35 40 42 31 36 38 27 47 49 38 57 59 48 50 51 43 34 34 32 38 38 38 72 72 72 72 72 72 83 83 83 83 83 83 84 84 84 85 85 87 81 82 74 79 79 69 78 79 65 74 77 56 75 78 61 74 80 70 69 77 66 22 39 20 20 39 20 26 33 15 29 34 14 32 42 18 34 44 19 34 44 19 34 44 19 33 43 18 32 42 18 32 42 18 34 44 20 34 44 19 36 47 17 37 47 22 17 18 10 14 15 10 6 23 5 1 27 0 1 27 2 1 27 0 0 29 1 1 27 2 3 27 3 5 29 7 6 30 8 15 33 17 14 32 18 21 39 27 26 39 30 18 31 13 13 27 4 12 28 2 12 26 3 16 30 13 30 45 40 29 42 35 10 31 16 9 32 14 5 29 7 3 29 4 2 28 1 0 29 1 2 28 1 2 28 1 3 29 4 1 30 2 0 29 1 2 26 2 1 27 0 1 27 2 1 27 2 2 28 1 1 27 2 3 27 1 2 28 3 2 28 3 1 27 0 2 28 1 2 28 1 1 27 0 3 29 2 
37 37 37 38 38 38 37 37 37 37 37 37 36 36 36 31 31 31 30 30 30 31 31 31 30 30 28 29 29 29 28 28 28 32 32 30 39 41 30 38 41 32 27 29 24 28 31 24 58 63 43 62 67 47 41 42 37 28 28 28 46 48 37 65 68 47 54 57 40 24 24 24 32 32 34 85 85 85 85 85 85 81 82 74 82 81 76 75 76 58 73 75 51 73 77 52 74 78 53 76 79 60 81 83 72 82 83 75 83 85 84 75 80 76 23 42 23 23 42 23 15 28 10 12 25 7 27 36 15 31 41 17 33 41 17 33 43 19 33 41 17 33 41 18 31 41 16 31 41 16 32 40 17 34 44 19 36 44 21 23 25 14 21 22 14 21 22 16 19 22 15 9 28 8 1 36 3 2 36 3 2 36 3 1 36 3 3 36 5 3 36 5 2 35 6 4 37 6 4 37 6 5 38 7 4 35 3 4 33 3 4 35 4 4 39 6 2 37 4 6 39 8 5 42 9 2 37 4 3 38 6 3 34 3 1 34 5 2 32 4 3 32 2 0 30 2 1 30 2 1 30 2 1 30 2 3 29 0 2 28 3 2 28 1 1 27 0 0 28 0 0 29 1 2 28 1 0 28 0 1 27 0 2 28 1 3 28 0 3 29 0 5 30 1 5 30 1 5 30 1 
38 38 38 38 38 38 38 38 38 36 36 36 36 36 38 32 32 32 30 30 30 30 30 30 29 29 27 29 29 29 29 29 29 32 33 28 41 44 33 39 42 31 29 32 25 28 31 24 58 66 45 64 69 49 42 43 35 25 27 26 46 48 37 65 68 47 55 57 43 23 23 25 30 30 32 86 86 86 87 87 87 81 82 76 80 81 75 74 76 54 72 75 46 72 75 48 74 78 51 77 80 61 83 84 76 83 84 76 86 86 86 78 80 77 25 44 24 24 43 23 14 27 7 12 25 5 27 35 14 29 38 19 32 42 17 34 44 19 34 43 16 32 42 18 31 41 17 32 40 17 31 41 17 34 44 19 34 44 19 23 25 14 21 22 14 21 22 17 21 21 19 13 30 11 4 38 5 2 37 4 2 37 4 2 37 4 1 36 3 2 37 4 2 37 5 1 36 3 1 36 3 3 36 5 2 35 4 3 34 2 2 35 4 1 41 4 2 40 3 3 38 5 2 39 5 3 38 5 1 38 4 0 35 2 1 34 3 0 33 4 0 33 2 1 32 1 1 31 3 1 30 0 1 30 0 0 29 1 2 28 1 1 27 0 2 28 3 2 28 0 0 28 0 1 27 0 1 27 0 2 28 1 2 28 1 4 28 2 4 28 2 5 30 1 5 30 1 5 30 1 
37 37 37 33 33 33 32 32 32 31 31 31 30 30 32 30 30 28 30 30 28 31 32 27 33 34 29 31 31 29 26 26 24 34 35 27 55 68 42 57 68 38 24 26 23 25 25 25 49 53 38 53 57 40 41 42 36 34 33 31 40 41 36 45 46 40 47 48 40 44 44 42 50 50 48 81 81 83 82 82 82 72 76 49 72 75 48 76 78 54 76 80 57 80 83 66 83 85 74 83 84 78 83 83 81 82 82 80 83 83 85 71 76 72 6 30 6 6 30 6 6 24 2 5 24 2 23 32 11 28 37 16 30 40 16 31 43 19 32 40 16 31 41 17 30 40 16 25 33 12 24 33 12 30 38 15 30 39 18 28 30 19 28 27 22 34 33 28 42 37 34 23 34 20 3 29 4 3 34 3 6 44 7 6 44 7 12 49 8 12 48 12 17 51 16 17 51 14 18 50 13 16 50 15 18 49 15 17 47 13 11 48 7 8 46 7 6 44 7 3 45 7 3 44 4 3 45 5 2 44 4 2 44 6 2 42 5 4 42 3 3 43 6 5 43 6 3 41 4 3 39 3 2 31 1 1 32 1 0 29 0 0 29 1 0 28 0 0 28 0 1 27 0 1 27 0 1 32 1 4 35 3 4 35 3 3 37 4 8 35 4 13 39 2 13 37 3 8 33 3 
36 36 36 32 32 32 31 31 31 29 29 29 27 27 27 29 29 29 28 28 28 31 33 30 32 37 30 31 33 28 25 26 21 33 39 29 63 79 43 62 77 44 24 24 24 25 25 25 46 50 36 49 53 39 42 43 35 36 36 34 38 38 36 39 41 38 42 43 38 51 52 47 55 55 55 79 79 79 79 79 79 70 74 39 70 74 39 77 81 56 79 82 61 84 84 74 85 86 81 83 83 81 83 83 83 83 83 83 79 81 80 69 74 68 1 25 0 2 26 2 3 25 4 4 23 1 24 33 12 28 36 15 30 40 16 32 42 17 30 42 18 32 42 18 30 38 15 23 30 12 23 30 12 28 36 13 28 36 13 31 32 24 31 30 25 40 36 33 46 42 41 27 33 21 1 25 3 3 34 3 6 47 7 7 48 8 15 51 13 15 51 13 23 55 18 24 56 19 22 54 17 22 54 17 18 52 15 20 52 15 16 50 13 8 46 9 5 47 9 4 46 6 4 46 6 1 46 5 2 47 6 1 46 5 2 47 6 3 45 5 4 46 6 4 45 5 4 44 7 3 41 4 2 33 2 1 32 1 0 28 3 1 27 0 2 28 3 2 28 1 1 27 0 1 27 0 3 34 3 6 37 5 5 36 4 5 39 4 9 39 3 17 43 8 14 42 4 8 33 3 
32 32 32 29 29 29 30 28 31 30 30 28 28 30 27 26 26 26 26 26 24 35 46 30 45 65 37 36 49 31 24 24 24 30 31 26 49 56 38 48 56 35 36 37 32 36 37 31 43 45 34 43 46 37 39 41 36 40 40 38 49 50 44 59 62 53 62 64 51 67 70 53 71 74 57 77 77 77 76 76 76 78 79 61 78 81 62 82 82 72 82 82 74 83 83 81 85 85 83 81 81 79 74 79 73 65 70 66 41 55 42 32 49 33 1 27 2 1 27 2 13 27 10 11 28 12 34 38 24 39 41 27 39 41 27 34 38 24 30 34 19 26 29 12 25 27 13 21 28 12 22 26 11 32 34 23 31 32 24 35 34 30 39 36 31 42 38 35 45 40 37 28 31 22 9 20 6 13 32 10 14 48 11 18 48 12 23 53 17 22 54 17 24 54 18 26 53 18 29 56 21 30 57 22 27 54 19 23 53 17 22 52 16 16 47 13 14 48 13 5 47 7 6 47 7 6 46 9 5 47 7 6 47 7 6 47 7 5 46 6 6 47 7 5 46 6 6 44 5 5 43 4 3 38 5 2 37 4 2 36 3 4 35 3 4 35 4 4 35 3 9 39 5 9 39 5 10 40 4 10 42 5 10 42 5 14 41 6 12 42 4 15 43 3 13 40 5 11 38 7 
29 29 27 29 29 29 29 27 28 29 31 28 29 31 28 26 26 24 23 25 24 38 53 32 53 80 37 43 59 33 25 23 24 29 31 28 39 45 33 41 44 33 43 46 37 43 46 37 42 43 37 40 43 36 42 42 40 42 40 41 57 58 50 71 73 59 73 74 58 76 82 54 77 81 58 74 74 74 75 75 75 84 85 77 82 84 73 84 84 82 82 84 83 84 84 86 84 84 84 80 80 78 71 73 70 58 65 57 16 38 17 14 36 15 2 28 1 3 27 3 18 30 18 17 29 17 39 40 32 44 44 34 39 41 30 33 36 25 29 31 20 21 21 11 22 22 12 20 26 12 21 25 11 34 30 27 34 30 29 40 36 33 41 37 34 43 39 36 44 39 36 28 29 23 14 20 10 17 32 11 21 51 15 24 50 15 28 54 19 27 53 18 27 54 19 26 53 18 32 59 24 34 60 25 30 56 21 26 53 18 25 52 17 19 50 16 18 49 15 9 47 8 8 46 9 6 46 9 5 46 6 6 47 7 8 46 7 4 46 6 3 45 5 4 45 5 5 43 6 4 41 7 4 42 5 4 41 7 5 41 5 5 41 5 3 39 3 5 41 5 9 44 4 10 45 5 13 43 5 13 43 7 14 45 4 17 45 7 13 43 5 11 41 5 13 40 5 14 41 8 
29 29 29 28 28 26 28 28 28 32 44 30 32 49 31 27 29 24 23 25 22 35 46 32 46 66 38 41 53 33 29 34 28 33 35 30 39 42 33 40 43 36 41 43 38 40 43 36 47 50 43 47 52 45 52 55 46 54 57 48 64 66 55 73 77 62 76 78 64 81 84 65 81 83 69 79 79 79 78 78 78 84 85 80 83 84 78 82 82 80 82 84 83 72 74 71 64 69 63 56 66 57 44 56 44 38 52 37 10 34 10 10 34 10 2 28 0 3 27 1 24 36 24 29 37 26 44 44 36 49 46 39 49 46 39 46 46 38 38 38 30 28 24 15 27 27 17 28 30 19 29 31 20 30 29 27 30 29 27 42 37 34 43 38 35 40 36 35 39 35 32 28 27 22 17 20 13 18 31 13 22 49 14 22 49 14 19 51 14 20 50 14 17 51 14 16 50 13 20 54 17 22 54 17 21 51 15 17 51 14 19 51 14 15 49 14 12 48 12 8 46 7 9 45 7 6 47 7 7 48 8 7 48 8 6 47 7 4 46 6 4 46 6 7 45 6 4 44 7 4 44 7 5 43 6 3 44 4 5 43 4 5 43 6 5 41 3 6 42 6 9 44 4 10 45 5 11 46 6 13 45 6 15 45 7 17 45 7 14 44 6 11 43 4 15 42 9 27 50 24 
28 28 28 27 27 25 26 26 26 39 73 38 40 78 37 30 40 31 28 26 27 31 33 30 36 41 34 38 44 34 42 53 36 39 50 33 37 40 33 34 39 32 36 36 36 37 37 39 60 61 53 64 67 56 70 78 57 74 82 59 77 82 62 81 85 70 83 85 72 88 88 86 86 87 82 84 82 83 83 83 83 84 84 84 84 84 84 81 81 81 80 82 79 48 60 50 29 46 28 20 39 19 1 27 2 1 27 2 1 27 2 2 28 1 2 26 2 2 28 1 38 45 37 43 45 40 55 50 46 58 50 47 62 57 54 66 61 57 55 50 46 35 32 23 36 32 23 38 38 30 41 38 31 26 22 21 24 23 21 43 38 35 45 41 40 36 32 29 32 28 25 27 26 24 21 22 17 20 31 15 23 50 15 19 51 12 9 47 8 8 46 7 5 45 8 5 46 4 4 46 6 3 45 5 5 46 6 5 46 6 6 47 7 6 46 9 6 46 9 5 46 6 6 47 7 8 46 7 7 48 8 7 48 8 6 47 7 4 46 6 4 46 6 2 47 6 3 45 5 4 46 6 4 46 6 4 46 6 5 46 6 4 46 6 6 47 7 6 47 7 9 47 6 11 48 7 12 47 7 15 47 8 13 48 6 15 47 8 15 45 7 11 41 7 19 44 12 52 64 54 
27 38 30 27 29 28 27 29 26 39 66 35 39 70 38 32 44 32 28 35 28 32 37 30 33 39 29 36 44 33 43 49 35 41 49 38 41 44 37 40 43 36 45 47 42 45 47 42 65 69 55 67 70 59 72 79 61 78 82 65 80 84 69 82 85 74 83 84 76 87 87 85 87 86 82 83 83 83 83 83 83 82 82 82 82 82 82 65 70 66 62 67 61 35 49 36 21 42 23 14 36 15 1 27 2 0 28 0 0 28 0 0 28 0 2 28 3 2 28 1 45 48 41 49 49 47 56 51 48 55 50 46 59 54 50 64 59 56 53 48 44 37 34 25 37 37 27 40 40 32 41 38 31 26 22 19 23 22 20 44 39 36 45 40 37 37 33 30 29 28 26 24 23 21 22 23 18 20 33 16 19 51 12 17 51 14 8 49 9 7 48 8 5 47 7 5 45 8 4 46 6 4 45 5 4 46 6 5 46 6 4 46 6 5 45 8 5 45 8 5 46 6 4 46 6 6 47 7 6 47 7 5 46 6 8 46 7 4 45 5 3 45 5 3 45 5 3 45 5 4 45 5 4 45 5 5 45 8 4 46 8 3 45 5 5 45 8 4 45 5 8 46 7 7 45 6 11 46 6 12 49 5 14 46 9 14 46 7 12 47 7 9 43 6 15 45 11 54 65 61 
26 67 35 31 33 30 31 33 30 34 41 34 35 42 35 37 54 36 38 57 35 32 46 31 26 33 25 28 35 28 36 36 36 40 42 39 55 57 52 55 58 51 69 81 57 69 81 57 77 84 66 77 85 64 83 86 77 86 87 81 86 86 84 85 85 85 85 85 85 84 84 84 83 83 83 84 84 86 83 83 85 77 79 76 77 79 76 22 41 22 3 29 4 2 28 1 1 27 0 0 29 1 2 28 1 1 27 2 1 27 0 2 28 3 3 29 2 1 25 0 60 61 56 66 65 63 57 53 50 53 48 44 56 48 45 55 47 45 51 46 42 47 44 37 46 43 38 44 41 36 44 41 34 24 20 19 22 20 21 44 40 37 49 44 41 34 29 26 22 21 17 22 21 19 21 22 17 19 32 15 9 50 10 11 49 8 8 49 9 7 48 8 3 45 7 3 44 4 4 46 6 5 46 6 4 46 6 3 44 4 2 42 5 3 40 6 5 39 6 3 44 4 2 44 4 4 46 6 2 47 6 2 44 4 3 43 6 1 41 4 3 40 6 3 40 6 1 41 4 2 42 5 2 42 5 2 42 7 0 42 4 2 42 5 2 39 5 2 40 3 4 40 4 5 41 5 9 45 7 10 48 7 10 46 8 6 47 7 9 47 8 10 48 9 16 51 18 61 74 82 
27 68 36 30 35 31 29 34 28 38 40 35 35 42 35 37 54 35 37 59 36 32 46 29 27 32 25 30 35 29 36 36 36 39 41 38 52 57 50 53 58 51 68 80 56 69 81 59 76 83 65 76 83 65 82 88 78 86 88 83 86 87 82 86 86 86 85 85 83 82 84 83 83 83 85 84 84 84 84 84 84 77 79 76 77 79 76 24 41 23 4 28 4 3 29 4 1 27 0 1 27 0 1 27 2 2 28 3 2 26 0 2 28 1 0 28 0 1 27 0 59 60 55 69 65 66 57 53 50 54 49 43 54 49 46 54 49 45 52 47 43 47 44 37 47 44 39 42 41 36 46 43 38 22 21 17 24 20 19 45 40 37 48 43 40 33 29 28 22 21 19 21 21 19 23 22 18 18 32 15 12 50 9 11 49 10 6 47 7 9 47 10 3 45 5 4 44 7 3 45 5 4 45 5 2 44 6 2 44 6 3 43 6 1 38 4 3 40 6 2 44 6 3 44 4 4 47 4 2 47 6 2 44 4 3 43 6 3 41 4 1 41 6 3 40 6 1 41 4 1 41 4 2 42 5 2 42 5 2 42 5 2 42 5 2 40 3 2 40 3 3 41 4 5 41 5 9 45 7 10 48 7 11 47 9 10 46 8 10 46 8 9 47 8 15 52 18 64 74 83 
33 46 36 31 59 36 30 59 37 20 31 23 19 26 19 32 37 33 37 42 36 45 47 42 46 48 45 52 60 49 60 78 56 64 79 56 67 82 59 68 83 60 83 86 79 82 88 78 86 86 86 85 87 86 84 86 85 85 85 83 83 83 83 84 84 84 83 83 83 82 83 77 79 82 73 74 79 57 75 80 58 77 79 78 77 77 77 22 39 20 4 28 4 3 29 2 2 28 0 2 28 0 2 26 0 2 28 1 1 27 0 2 28 3 6 23 5 5 24 5 73 69 66 81 76 72 75 67 64 71 63 60 65 55 53 54 49 46 54 48 48 58 48 47 45 42 37 19 20 14 19 20 15 41 36 33 42 37 34 49 44 40 50 45 42 32 28 27 19 18 16 18 17 15 16 16 14 11 25 8 2 37 4 3 39 3 4 45 5 4 44 7 5 46 6 5 48 5 6 44 5 6 44 7 4 38 3 1 34 3 0 30 2 1 27 2 0 29 1 1 32 0 2 33 2 3 38 5 2 38 2 1 35 2 2 33 1 3 34 3 3 34 3 3 39 3 3 43 6 6 44 5 8 42 5 10 44 7 15 45 11 15 45 11 19 46 13 19 46 13 24 48 16 25 49 17 27 51 17 24 51 16 29 49 21 32 47 26 43 56 46 60 73 81 60 71 77 39 40 44 
32 45 35 31 59 36 30 58 35 23 30 23 21 26 22 33 38 34 37 42 38 40 45 41 46 48 43 51 59 48 60 78 54 62 80 58 69 84 61 68 83 60 82 88 78 81 86 79 84 86 83 87 87 85 85 85 85 84 84 86 84 84 84 84 84 84 83 83 81 79 82 73 80 83 72 75 78 57 75 78 59 77 77 75 76 78 77 22 39 20 3 27 1 2 29 0 3 29 2 2 28 1 0 29 1 1 27 2 1 27 0 2 28 1 5 24 5 5 24 5 73 69 66 82 77 74 74 66 64 71 63 60 63 55 52 53 48 45 53 48 45 53 48 45 47 42 38 18 19 11 18 19 13 42 37 34 42 37 34 49 44 41 50 45 42 31 27 24 21 17 16 18 18 16 15 17 12 11 25 8 4 39 6 3 41 4 4 45 5 3 43 6 5 46 6 7 45 6 5 46 6 6 44 7 3 38 5 3 34 3 1 32 1 1 27 2 0 29 1 1 32 1 3 33 5 2 37 4 2 37 4 1 35 2 2 33 2 2 33 2 3 34 3 4 38 5 4 42 5 6 42 6 9 43 8 10 44 9 15 45 11 14 44 10 18 45 12 19 46 13 24 48 16 26 50 18 26 50 16 25 51 16 30 50 22 31 46 25 44 57 47 61 74 82 59 70 76 39 40 44 
24 29 25 36 52 41 36 52 39 33 38 34 33 33 33 44 61 45 49 66 50 53 72 53 57 79 56 62 81 61 72 85 68 74 84 73 83 85 82 84 86 81 84 84 82 83 83 81 86 84 85 83 83 83 84 84 82 83 83 81 80 83 72 77 81 64 75 82 64 75 82 64 78 82 65 80 84 69 81 83 70 78 78 80 77 77 79 42 47 43 32 34 31 23 33 24 18 32 19 13 32 12 2 28 1 1 30 2 2 28 0 5 29 5 31 39 28 31 39 28 69 64 60 72 67 63 63 55 53 60 52 50 57 52 49 58 50 48 55 50 47 52 47 44 46 41 38 21 20 18 21 20 16 47 42 39 45 42 37 47 42 39 47 42 39 33 29 28 22 21 19 18 20 17 14 16 13 12 26 9 4 39 6 6 42 6 5 46 6 5 46 6 7 48 8 7 48 6 5 46 6 6 44 5 3 37 4 3 32 4 2 31 3 2 28 1 3 32 4 11 41 7 12 42 8 12 46 9 12 46 9 9 47 8 8 46 7 9 47 10 8 46 7 11 47 9 14 46 9 16 48 11 17 47 11 25 52 17 31 55 21 32 56 22 40 61 28 39 63 29 30 54 20 27 53 18 26 50 16 24 52 14 27 41 15 31 32 14 32 36 21 31 42 26 34 40 26 39 26 18 
22 27 23 38 51 41 38 51 41 36 38 37 36 38 37 48 62 47 51 70 51 56 78 55 58 84 57 66 85 63 74 86 72 76 86 75 85 87 86 85 87 84 84 84 84 84 84 82 84 84 84 83 83 85 83 83 81 81 83 78 78 81 70 75 82 64 74 82 61 74 82 61 77 82 60 81 85 71 82 86 72 77 77 79 79 79 79 46 46 48 35 35 35 27 34 26 21 33 19 13 30 11 3 29 2 1 30 0 4 28 2 7 31 7 34 39 32 34 41 33 67 62 58 72 64 61 59 54 51 56 51 48 56 51 48 59 51 48 57 52 48 54 49 46 45 41 38 21 19 20 21 20 16 47 42 39 47 42 39 47 42 39 45 41 40 32 28 27 22 21 19 20 19 17 14 16 11 12 26 11 6 44 7 6 44 7 5 46 6 6 47 7 5 46 6 6 47 7 5 45 8 7 45 6 5 34 4 2 31 3 2 31 1 3 29 4 5 31 2 13 43 9 14 44 10 14 49 9 17 49 12 9 47 8 7 48 8 10 48 9 9 47 8 12 46 9 15 47 10 14 48 13 19 49 13 23 50 15 32 58 23 31 55 21 43 64 31 40 64 30 31 57 22 29 55 20 25 53 15 23 50 15 26 40 14 31 32 14 31 34 15 29 38 19 29 36 18 38 24 15 
30 32 31 40 56 46 42 55 45 45 68 50 45 70 49 57 78 59 60 81 62 69 86 70 76 86 77 82 84 79 81 83 80 82 84 81 83 83 83 83 85 82 80 82 81 82 84 81 79 82 71 75 83 68 75 84 67 75 84 67 77 83 69 81 85 71 81 85 71 82 85 78 84 87 80 83 83 81 82 82 80 79 79 81 79 79 79 46 46 44 36 36 34 34 36 33 34 34 32 30 35 31 28 35 27 23 33 22 14 31 12 20 33 15 56 57 52 55 56 51 58 53 49 55 52 47 48 43 39 43 43 33 48 45 38 50 45 42 49 44 41 44 43 39 45 40 36 34 30 27 34 30 27 48 43 40 49 43 43 42 38 37 41 37 34 31 27 28 22 21 17 23 19 16 22 18 17 15 23 12 2 26 2 0 26 0 2 33 2 2 33 2 5 39 4 5 39 6 10 44 7 12 46 9 12 44 7 12 42 8 12 42 8 12 43 9 14 44 10 17 47 9 17 47 11 17 49 12 17 49 10 12 47 7 13 47 10 12 49 8 11 48 7 11 47 11 13 48 6 16 48 11 21 48 13 21 48 13 24 51 16 26 52 17 38 59 26 38 59 26 37 58 25 37 58 25 33 54 21 28 52 18 29 48 16 29 45 16 26 47 16 22 48 13 23 44 13 37 23 14 
32 34 33 42 58 47 43 56 46 47 79 55 48 81 54 61 85 63 66 85 66 74 86 74 81 86 80 84 86 83 85 85 85 83 85 84 83 83 83 83 83 83 84 84 84 81 83 82 74 82 67 72 83 66 73 82 61 71 83 61 75 84 67 83 86 75 84 87 78 85 87 84 85 87 86 84 84 84 83 83 85 79 81 80 79 81 80 46 46 46 35 35 37 37 37 37 38 38 38 37 37 37 37 37 35 30 35 29 15 32 14 22 36 21 62 61 59 61 60 58 53 48 44 52 47 43 43 43 33 40 42 29 42 42 32 46 43 38 46 43 38 45 41 40 43 39 36 38 34 31 39 34 31 48 43 40 48 43 40 43 38 35 41 36 33 30 26 25 23 22 20 22 21 19 24 20 19 15 20 13 1 20 1 2 21 1 0 28 0 2 28 1 6 35 4 5 36 5 12 44 5 13 47 10 15 47 8 15 47 10 14 46 9 17 47 11 20 48 10 19 49 11 17 47 9 17 49 12 17 49 10 14 49 9 12 46 9 12 46 9 11 48 7 11 48 7 13 47 10 16 48 9 19 49 13 21 48 13 24 50 15 24 50 15 34 58 24 33 57 23 38 59 26 42 61 29 35 54 24 30 51 20 31 52 19 27 51 17 25 51 16 22 50 12 22 46 14 35 22 14 
39 52 42 47 71 55 48 71 53 61 82 65 62 85 67 73 85 73 74 84 75 80 85 79 81 86 82 84 84 84 84 84 84 82 84 83 77 84 77 77 82 76 73 84 68 72 83 67 73 86 68 73 84 68 77 85 70 81 85 71 82 85 76 83 85 80 84 85 80 85 85 83 84 84 84 81 81 81 81 81 81 64 64 64 64 64 64 43 43 43 37 37 37 37 37 37 38 36 37 37 37 37 36 36 34 34 36 33 27 34 26 30 35 28 53 52 50 53 52 48 53 48 45 52 47 44 37 41 27 33 37 20 37 39 25 41 43 29 41 42 28 38 38 28 35 38 29 35 36 28 36 36 28 39 39 31 39 39 31 36 32 29 34 30 27 26 25 23 22 21 19 23 22 20 27 23 20 19 22 15 7 17 6 6 18 4 1 27 2 2 28 1 4 33 3 4 33 3 8 39 5 10 41 7 10 42 5 10 42 5 12 44 7 14 44 8 14 44 8 15 45 9 14 44 8 12 44 7 12 44 7 9 43 6 9 43 8 11 45 8 11 47 9 10 48 9 15 47 8 13 47 10 16 48 11 18 48 12 22 49 14 23 50 15 29 53 19 29 53 19 34 55 22 35 56 23 33 52 20 31 52 21 32 51 19 32 51 21 30 51 18 28 49 18 30 46 17 35 20 13 
43 72 52 56 83 64 55 84 64 75 86 78 78 88 80 83 85 82 86 84 85 84 85 87 84 84 84 84 84 86 84 82 83 81 83 80 71 83 69 70 82 68 61 81 54 63 83 55 74 85 69 76 87 71 84 87 80 86 87 82 86 84 85 84 84 84 84 84 84 83 83 83 82 82 82 79 79 81 78 78 78 49 49 49 48 48 48 39 41 40 37 38 33 37 37 37 36 38 37 37 37 37 37 37 37 36 36 36 38 36 37 40 38 39 43 43 43 43 43 41 53 48 45 55 47 45 32 34 20 25 33 12 30 40 16 35 45 20 34 42 19 30 38 17 31 38 20 33 40 22 34 38 21 31 35 21 32 34 21 29 25 22 26 25 21 24 20 19 20 19 17 27 23 22 29 28 24 24 23 21 14 15 10 12 17 11 2 28 3 2 28 1 2 31 1 5 30 1 4 35 4 5 34 3 7 38 4 9 39 5 7 41 6 10 42 5 10 42 5 10 40 6 10 42 5 6 40 5 7 38 4 4 38 3 3 39 3 9 45 7 10 46 8 11 47 9 11 47 9 11 47 9 14 49 9 13 48 8 19 49 11 19 49 11 22 50 12 21 49 11 27 51 17 29 50 17 31 52 19 34 51 19 36 52 23 38 52 26 37 51 25 34 47 21 34 44 19 35 20 13 
