P3
100 50
255
38 44 106 38 44 106 38 44 106 39 45 107 38 44 106 38 44 106 37 43 105 38 44 106 38 44 106 38 44 106 38 44 106 33 36 89 31 35 83 34 37 90 38 44 106 38 44 106 38 44 106 38 44 106 38 44 106 38 44 104 38 44 106 38 44 106 38 44 106 35 41 99 31 35 83 31 35 83 37 42 100 38 44 106 38 44 106 38 44 106 38 44 106 38 44 106 38 44 106 37 43 105 38 44 106 38 44 106 33 36 87 31 35 83 32 38 90 38 44 106 38 44 104 38 44 104 38 44 106 38 44 106 38 44 106 38 44 106 38 44 106 38 44 106 37 41 102 31 35 83 31 35 83 37 42 100 38 44 106 38 44 106 38 44 106 38 44 104 38 44 106 39 45 107 38 44 106 38 44 106 38 44 106 34 38 86 31 35 83 32 38 90 38 44 106 38 44 106 38 44 106 38 44 106 38 44 106 38 44 106 38 44 106 38 44 106 38 44 106 36 41 99 31 35 83 31 35 83 36 41 99 38 44 106 38 44 106 38 44 104 38 44 104 38 44 106 38 44 106 38 43 107 38 44 106 38 44 104 32 38 90 31 35 83 31 37 87 38 44 106 38 44 104 38 44 104 38 44 106 38 43 107 38 44 106 38 44 106 38 44 106 38 44 106 36 42 100 32 36 84 
39 45 107 38 44 106 38 44 106 38 44 106 39 45 107 38 44 106 38 44 106 39 45 107 38 44 106 38 44 106 38 44 106 33 36 89 31 35 83 34 37 90 38 44 106 38 44 106 38 44 106 38 44 106 38 44 106 38 44 104 38 44 106 38 44 106 38 44 106 35 41 99 31 35 83 31 35 83 37 42 100 38 44 106 38 44 106 38 44 106 38 44 106 38 44 106 38 44 104 38 44 106 38 44 106 38 44 106 33 36 87 31 35 83 32 38 90 38 44 106 38 44 106 38 44 102 38 44 104 38 44 106 38 44 106 38 44 106 38 44 106 38 44 104 37 41 102 31 35 83 31 35 83 37 42 100 38 44 106 38 44 106 38 44 106 38 43 107 38 44 106 39 45 107 38 44 106 37 43 105 39 45 107 34 38 86 31 35 83 32 38 90 38 44 106 38 44 106 38 44 106 38 44 106 38 44 104 38 44 106 38 44 104 38 44 106 38 44 106 36 41 99 31 35 83 31 35 83 36 41 99 38 44 106 38 44 106 38 44 104 38 44 104 38 44 106 38 44 106 38 44 106 38 44 106 38 44 106 32 37 92 31 35 83 31 37 87 38 44 106 38 44 104 38 44 104 38 44 106 38 43 107 38 44 106 38 44 106 38 44 106 38 44 106 36 42 100 32 36 84 
38 44 106 38 44 106 38 44 106 38 44 106 38 44 106 38 44 106 38 44 106 38 44 106 38 44 104 39 45 105 37 43 105 33 36 87 30 34 82 34 37 90 38 44 106 38 44 106 38 44 106 38 44 106 38 44 106 38 44 104 38 44 106 38 44 104 38 44 106 36 41 99 31 35 83 31 34 85 37 42 100 38 44 106 38 43 107 38 43 107 38 44 106 38 44 106 39 43 106 38 44 106 38 44 106 38 44 106 33 36 89 31 35 83 32 38 90 38 44 106 38 44 106 38 44 106 38 44 106 38 44 106 38 44 106 38 44 106 38 44 106 38 44 106 37 41 102 31 35 83 30 34 82 37 42 100 38 44 106 39 43 106 38 44 106 38 44 106 38 44 106 39 45 107 37 43 105 38 44 106 38 44 106 34 37 88 32 36 84 34 37 90 38 44 104 38 44 106 38 44 104 38 44 104 38 44 106 38 44 106 38 44 106 38 44 106 39 45 107 37 42 100 30 34 82 31 35 83 37 42 100 38 44 106 38 44 106 38 44 106 38 44 106 38 44 106 38 44 106 38 44 104 38 44 106 38 44 104 32 38 90 31 35 83 31 37 87 38 44 106 38 44 106 38 44 104 38 44 106 38 44 106 38 44 106 38 44 104 38 44 106 39 45 105 36 42 100 31 35 83 
38 44 106 38 44 104 38 44 106 38 44 106 38 44 104 38 44 106 38 44 104 38 44 106 38 44 106 38 44 106 38 44 106 33 36 87 31 35 83 34 37 90 37 43 105 38 44 106 38 44 106 38 44 106 38 44 106 38 44 106 38 44 104 38 43 107 38 44 106 36 41 99 31 35 83 31 34 85 37 42 100 38 44 104 38 44 104 38 44 106 38 44 106 38 44 106 38 44 106 38 44 106 38 44 106 38 44 106 34 37 90 31 35 83 32 38 90 38 44 106 38 44 106 38 44 106 38 44 104 38 44 106 38 44 106 38 44 104 38 44 106 38 44 106 36 42 102 31 35 83 31 35 83 37 42 100 38 44 106 38 44 106 38 44 106 38 44 106 38 44 106 38 44 106 37 43 105 38 44 106 38 44 106 34 37 88 31 35 83 34 37 90 38 44 106 38 44 106 38 44 106 38 44 104 38 44 106 38 44 106 38 44 104 38 44 106 38 44 106 36 41 99 31 35 83 31 35 83 36 41 99 38 44 106 38 44 106 38 44 106 38 44 106 38 44 106 38 44 104 38 43 107 38 44 106 38 44 104 32 38 90 31 35 83 31 37 89 38 44 106 38 44 104 38 44 104 38 44 106 38 44 106 38 44 106 38 44 104 38 44 106 38 44 106 36 42 100 32 36 84 
38 44 106 38 44 106 38 44 106 38 44 106 38 44 106 38 44 106 38 44 106 38 44 106 38 44 106 38 44 106 38 44 106 33 36 87 32 36 84 33 36 89 38 44 106 38 44 106 38 44 106 38 44 106 38 44 106 38 44 106 38 44 104 38 44 104 38 44 106 36 41 99 31 35 83 31 35 82 37 42 100 38 44 104 38 44 104 38 44 106 38 44 106 38 44 104 39 45 107 38 44 106 38 44 106 38 44 106 34 37 90 31 35 83 32 38 90 38 44 106 38 44 104 38 44 106 38 44 104 38 44 104 38 44 104 38 44 104 38 44 106 38 44 104 36 42 102 30 34 82 31 35 83 37 42 100 38 44 106 40 46 108 38 44 106 38 44 106 38 44 106 38 44 106 38 44 106 38 44 106 38 44 106 34 37 88 31 35 83 34 37 90 38 43 107 38 44 106 38 44 106 38 44 106 38 44 106 38 44 106 38 44 104 38 44 104 38 44 106 36 41 99 31 35 83 31 35 83 37 42 100 39 45 107 38 44 106 38 44 106 38 44 106 38 44 106 38 44 104 38 43 107 38 44 104 38 44 106 32 38 90 31 35 83 31 37 87 38 44 106 38 44 106 38 44 106 38 44 106 38 44 106 38 44 106 38 44 104 38 44 104 38 44 106 36 42 100 31 35 83 
38 44 106 38 44 106 38 44 106 38 44 106 38 44 106 38 44 106 38 44 106 38 44 106 38 44 106 38 44 106 38 44 106 33 36 89 31 35 83 33 36 91 38 44 106 38 44 106 38 44 106 38 44 104 38 44 106 38 44 104 38 44 106 38 44 104 38 44 106 36 41 99 31 35 83 31 35 83 37 42 100 38 44 106 38 44 104 38 44 106 38 44 106 38 44 106 39 45 107 38 44 106 38 44 106 38 44 106 34 37 90 31 35 83 32 38 90 38 44 106 38 44 106 38 44 106 38 44 104 38 44 106 38 44 106 38 44 104 38 44 106 38 44 106 36 42 102 31 35 83 31 35 83 37 42 100 39 45 107 38 44 106 38 44 106 38 44 106 38 44 106 39 45 107 38 44 106 37 43 105 38 44 106 34 37 88 31 35 83 34 37 90 38 44 106 38 44 106 38 44 106 38 44 106 38 44 106 38 44 106 38 44 104 38 44 106 38 44 106 36 41 99 31 35 83 30 34 82 37 42 100 38 44 106 38 44 106 38 44 106 38 44 106 38 44 106 38 44 106 38 44 106 38 44 104 38 44 106 32 38 90 31 35 83 31 37 89 38 44 106 38 44 106 38 44 104 38 44 106 38 43 107 38 44 106 38 44 104 38 44 106 38 44 106 36 42 100 32 36 84 
38 44 106 38 44 106 38 44 106 38 44 106 38 44 106 38 44 106 38 44 106 38 44 106 38 44 106 38 44 106 39 45 107 33 36 89 31 35 83 34 37 92 38 44 106 38 44 106 38 44 106 38 44 106 38 44 106 38 44 106 38 44 104 38 44 106 38 44 106 36 41 99 31 35 83 31 35 83 37 42 100 38 44 106 38 44 106 38 44 106 38 44 106 38 44 106 39 43 106 38 44 106 38 44 106 38 44 106 33 36 89 31 35 83 32 38 90 38 44 106 38 44 106 38 44 106 38 44 106 38 44 106 38 44 106 38 44 106 38 44 106 38 44 106 36 42 102 31 35 83 30 34 82 39 44 102 38 44 106 40 44 107 39 45 107 39 45 107 38 44 106 38 44 106 38 44 106 38 44 106 38 44 104 33 36 91 32 36 84 33 36 89 38 44 104 38 44 106 38 44 106 38 44 104 38 44 106 38 44 106 38 44 104 38 44 106 39 45 107 36 41 99 31 35 83 31 35 83 36 41 99 38 44 106 38 44 106 39 45 107 38 44 106 38 44 106 38 44 106 38 44 106 38 44 106 38 44 104 32 38 90 31 35 83 31 37 89 38 44 106 38 44 106 38 44 104 38 44 106 38 43 107 38 44 106 38 44 104 38 44 106 39 45 107 36 42 100 31 35 83 
38 44 106 38 44 106 38 44 104 38 44 106 38 44 106 38 44 106 38 44 106 38 44 104 38 44 106 39 45 107 38 44 106 33 36 87 31 35 83 34 37 90 38 44 106 38 44 106 38 44 106 38 44 106 38 44 106 38 44 106 38 44 104 38 44 104 38 44 106 36 41 99 31 35 83 31 35 83 37 41 102 38 44 106 38 44 104 38 44 106 38 44 106 38 44 106 39 43 106 38 44 106 38 44 106 38 44 106 32 35 88 31 35 83 32 38 90 38 44 106 38 44 106 38 44 106 38 44 106 38 44 106 38 44 106 38 44 106 38 44 106 38 44 106 37 41 102 32 36 84 30 34 82 37 42 100 39 45 107 41 42 106 39 45 107 38 44 106 38 44 106 38 44 106 38 44 106 39 45 107 38 44 106 32 35 86 32 36 84 33 36 89 38 44 104 38 44 106 38 44 104 38 44 104 38 44 106 38 44 106 38 44 106 38 44 106 38 44 106 37 42 100 31 35 83 32 36 84 37 42 100 38 44 106 38 44 106 38 44 106 38 44 106 38 44 106 38 44 106 38 44 104 38 44 106 38 44 104 32 38 90 31 35 83 31 37 87 38 44 106 38 44 106 38 44 106 38 44 106 38 44 106 38 44 106 38 44 104 38 44 106 38 44 106 36 42 100 32 36 84 
38 44 106 38 44 106 38 44 106 38 44 106 38 44 106 38 44 106 38 44 106 38 44 106 38 44 106 39 45 107 38 44 106 33 36 87 31 35 83 34 37 90 38 44 106 38 44 106 38 44 106 38 44 104 38 44 106 38 44 104 38 44 106 38 44 104 38 44 106 36 41 99 31 35 82 31 35 83 37 42 100 38 44 106 38 44 106 38 44 106 38 44 106 38 44 104 38 44 106 38 44 106 38 44 106 38 44 106 34 37 90 31 35 83 32 38 90 38 44 106 38 44 106 38 44 104 38 44 106 38 44 106 38 44 106 38 44 106 38 44 104 38 44 106 36 42 102 31 35 83 31 35 83 36 41 99 38 44 106 38 44 106 39 45 107 38 44 106 38 44 106 38 44 106 39 44 108 39 45 107 38 44 102 33 36 91 32 36 83 33 36 89 38 44 104 38 44 106 38 44 106 38 44 104 38 44 106 38 44 106 38 44 104 38 44 106 38 44 106 36 41 99 31 35 83 30 34 82 37 42 100 37 43 105 38 44 106 38 44 106 38 44 106 38 44 106 38 43 107 38 44 104 38 44 104 38 44 106 32 38 90 31 35 83 31 37 89 38 44 106 38 44 104 38 44 104 38 44 106 38 44 106 38 44 106 38 44 104 38 44 104 38 44 106 36 42 100 32 36 84 
38 44 106 38 44 106 38 44 104 38 44 106 38 44 106 38 44 106 38 44 106 38 44 104 38 44 104 38 44 104 39 45 107 34 37 88 32 36 84 34 37 90 38 44 106 38 44 106 38 44 106 38 44 106 38 44 106 38 44 106 38 44 104 38 44 106 38 44 106 36 41 99 31 35 83 31 35 83 37 42 100 38 44 106 38 44 104 38 44 104 38 44 106 38 43 107 39 45 107 38 44 106 38 44 106 38 44 106 34 37 90 31 35 83 32 38 90 38 44 106 38 44 106 38 44 104 38 44 106 38 44 104 38 44 104 38 44 106 38 44 104 38 44 106 37 43 103 31 35 83 31 35 83 37 42 100 38 44 106 39 45 107 37 43 105 39 45 107 38 44 106 38 44 106 39 45 107 38 44 106 38 44 104 33 36 89 31 35 83 34 37 90 38 44 106 38 44 106 38 44 106 38 44 106 38 44 106 38 44 106 38 44 104 38 44 106 38 44 106 36 41 99 32 36 84 31 35 83 36 41 99 39 45 107 38 44 106 39 45 107 38 44 106 38 44 106 38 44 106 38 44 106 38 44 104 38 44 106 32 38 90 31 35 83 31 37 87 38 44 106 38 44 106 38 44 104 38 44 106 38 44 106 38 44 106 38 44 104 38 44 104 39 45 107 36 42 100 31 35 83 
38 44 106 37 43 105 38 44 106 38 44 106 38 44 106 38 44 106 37 43 105 38 44 106 38 44 106 38 44 106 38 44 106 33 36 87 31 35 83 34 37 90 38 44 106 38 44 106 39 43 106 38 44 106 38 44 106 38 44 106 38 44 106 38 44 106 38 44 106 36 41 99 31 34 85 32 35 86 37 42 100 38 44 106 38 44 106 38 44 106 38 44 106 38 44 106 38 44 104 38 44 106 38 44 106 39 45 107 33 36 87 31 35 83 34 37 90 38 44 106 39 45 107 38 44 106 38 44 106 38 44 106 38 44 106 39 45 107 38 44 106 38 44 106 35 41 101 31 35 83 31 35 83 37 42 100 38 44 106 38 44 106 36 44 106 38 44 106 38 44 106 38 44 106 38 44 106 38 44 106 38 44 106 33 36 87 32 36 84 32 38 90 38 44 106 38 44 106 38 44 106 38 44 106 38 44 106 38 44 106 38 44 106 38 44 106 38 44 106 36 41 99 32 36 84 31 35 83 36 41 99 38 44 106 38 44 106 38 44 106 38 44 104 38 44 106 38 44 106 38 44 104 38 44 104 38 44 106 32 38 90 30 34 82 30 38 87 38 44 106 38 44 104 39 43 106 38 44 104 38 44 106 38 44 104 39 43 104 39 45 105 38 44 106 35 41 99 31 35 83 
38 44 106 38 44 106 38 44 106 38 44 106 38 44 106 38 44 106 38 44 106 38 44 106 38 44 106 38 44 106 37 43 105 32 35 86 31 35 83 34 37 90 38 44 106 38 44 106 38 44 106 38 44 106 39 43 106 38 44 106 38 43 107 38 44 106 38 44 106 36 41 99 31 35 83 31 35 83 36 40 101 38 44 106 38 44 106 38 44 104 38 44 106 38 44 106 38 44 106 38 43 107 38 44 106 38 44 106 34 37 88 31 35 83 34 37 90 38 44 106 38 44 106 38 44 106 38 44 106 39 45 107 38 44 106 38 44 106 38 44 106 38 44 106 36 42 102 30 34 82 32 36 84 38 43 101 38 44 106 38 44 106 38 44 106 38 44 106 38 44 106 38 44 106 38 44 104 38 44 106 39 45 107 33 36 87 31 35 83 32 38 90 38 44 106 38 44 106 38 44 106 38 44 106 38 44 106 38 44 106 38 44 106 38 44 106 38 44 106 36 41 99 31 35 83 32 36 84 36 41 99 37 43 105 38 44 106 39 45 107 39 45 105 38 44 106 38 44 106 38 44 104 38 44 104 38 44 106 32 38 90 31 35 83 31 37 87 38 44 106 38 44 104 38 42 105 38 44 104 38 44 106 38 44 104 38 42 103 38 44 104 38 44 106 36 42 100 32 36 84 
38 44 106 38 44 106 38 44 106 38 44 106 38 44 106 38 44 106 38 44 106 38 44 106 38 44 106 39 45 107 37 43 105 33 36 87 30 34 82 34 37 90 37 43 105 38 44 106 38 44 106 38 44 106 38 44 106 38 44 106 38 44 106 38 44 106 38 44 106 36 41 99 31 35 83 31 35 83 35 40 98 38 44 106 38 44 106 36 42 104 38 44 106 38 44 106 38 44 104 38 44 104 38 44 106 39 45 107 33 36 87 31 35 83 34 37 90 38 44 104 38 44 106 38 44 106 37 43 105 38 44 106 38 44 106 38 44 106 38 44 106 38 44 106 35 41 101 31 35 83 31 35 83 37 42 100 38 44 104 38 44 104 38 44 106 38 44 106 38 44 104 38 44 106 38 44 106 38 44 106 38 44 106 33 36 87 31 35 83 32 38 90 38 44 106 38 44 106 38 44 106 38 44 106 38 44 106 38 44 106 38 44 106 38 44 106 38 44 106 37 42 100 30 34 82 32 36 84 36 41 99 38 44 106 38 44 106 39 45 107 39 45 105 38 44 106 38 44 106 38 44 104 38 44 104 38 44 106 32 38 90 30 34 82 31 37 87 38 44 106 38 44 104 38 44 106 38 44 104 38 44 106 37 43 103 38 44 104 39 45 105 38 44 106 36 42 100 31 35 83 
38 44 106 38 44 106 38 44 106 38 44 106 38 44 106 38 44 106 38 44 106 38 44 106 38 44 106 38 44 106 38 44 106 33 36 87 31 35 83 34 37 90 38 44 106 38 44 106 38 44 106 38 44 106 36 44 106 36 44 106 38 44 106 38 44 106 38 44 106 36 41 99 31 35 83 32 36 84 37 42 100 38 44 106 38 44 106 38 44 106 38 44 106 38 44 106 38 44 106 38 44 106 38 44 106 38 44 104 34 37 88 31 35 83 34 37 90 38 44 106 38 44 106 38 44 106 37 43 105 38 44 106 38 44 106 38 44 106 38 44 106 38 44 106 37 42 100 32 36 84 31 35 83 37 42 100 38 44 104 37 43 103 38 44 106 38 44 106 38 44 106 37 43 105 37 43 105 38 44 106 39 45 107 33 36 87 30 34 82 31 37 89 38 44 106 38 44 106 38 44 106 38 44 106 38 44 106 38 44 106 38 44 106 38 44 106 38 44 106 36 41 99 31 35 83 31 35 83 36 41 99 39 45 107 39 45 107 37 43 105 37 43 103 38 44 106 38 44 106 38 44 104 37 43 103 38 44 106 32 38 90 31 35 83 33 36 87 38 44 106 38 44 104 38 44 106 37 43 103 38 44 106 39 45 105 38 44 104 38 44 104 37 43 105 37 43 101 30 34 82 
38 44 106 38 44 106 38 44 106 38 44 106 38 44 106 38 44 106 38 44 106 38 44 106 38 44 106 38 44 106 38 44 106 33 36 87 31 35 83 34 37 90 38 44 106 38 44 106 36 44 106 38 44 106 38 44 106 38 44 106 38 44 104 38 44 106 38 44 106 36 41 99 31 35 83 32 36 84 38 42 103 38 44 106 39 45 107 39 45 105 38 44 106 38 44 106 38 44 104 38 44 104 38 44 106 38 44 106 34 37 88 31 35 83 34 37 90 38 44 104 38 44 106 38 44 106 38 44 106 38 44 106 38 44 106 38 44 106 38 44 106 38 44 106 37 42 100 30 34 82 31 35 83 37 42 100 37 43 103 38 44 104 38 44 106 38 44 106 38 44 106 38 44 106 38 44 106 38 44 106 38 44 106 33 36 87 31 35 83 32 38 90 38 44 106 38 44 106 38 44 106 38 44 106 38 44 106 38 44 106 38 44 106 38 44 106 38 44 106 36 41 99 32 36 84 31 35 83 36 41 99 38 44 106 38 44 106 38 44 104 39 45 105 38 44 106 38 44 106 38 44 104 38 44 104 38 44 106 32 38 90 31 35 83 33 36 87 37 43 105 38 44 104 37 43 105 38 44 104 38 44 106 37 43 103 38 44 104 38 44 104 38 44 106 36 42 100 31 35 83 
38 44 106 38 44 106 38 44 106 38 44 106 38 44 106 38 44 106 38 44 106 38 44 106 38 44 106 39 45 107 38 44 106 33 36 87 30 34 82 33 36 89 37 43 105 38 44 106 38 44 104 38 44 106 38 44 106 38 44 106 38 44 104 38 44 106 38 44 106 36 41 97 31 35 83 31 35 83 37 42 100 38 44 106 38 44 106 38 44 104 38 44 104 38 44 104 38 44 106 38 44 106 38 44 106 38 44 104 34 37 88 31 35 83 34 37 90 38 44 106 38 44 106 38 44 106 38 44 106 38 44 106 38 44 106 38 44 106 38 44 106 38 44 106 37 42 100 31 35 83 32 36 84 36 42 100 38 44 104 38 44 104 37 43 103 38 44 104 38 44 104 38 44 106 38 44 106 38 44 106 38 44 106 34 37 88 31 35 83 31 37 89 38 44 106 38 44 106 38 44 106 38 44 106 38 44 106 38 44 106 38 44 106 38 44 106 38 44 106 37 42 100 31 35 83 32 36 84 36 41 99 38 44 106 38 44 104 38 44 104 38 44 104 38 44 106 38 44 106 38 44 104 38 44 104 38 44 106 32 38 90 31 35 83 33 36 87 38 44 106 38 44 104 38 44 106 38 44 104 38 44 106 38 44 104 37 43 103 38 44 104 38 44 106 36 42 100 30 34 82 
37 43 103 38 44 104 36 42 102 37 43 103 37 43 103 36 42 102 38 44 104 37 43 103 38 44 106 38 44 106 38 44 106 32 35 86 31 35 83 33 36 89 38 44 106 38 44 106 39 43 104 38 44 104 38 44 106 38 43 107 38 44 106 38 44 104 38 44 104 36 41 97 31 35 83 30 34 81 37 42 100 37 43 103 37 43 105 38 44 104 38 44 106 38 44 104 38 44 104 37 43 103 39 45 107 38 44 106 34 37 88 30 34 82 35 38 91 38 44 106 38 44 104 38 44 104 38 42 103 39 43 104 39 45 105 36 45 104 38 44 104 38 42 103 36 41 99 30 34 82 31 35 83 36 42 100 38 44 104 38 44 104 38 44 104 38 44 104 38 44 106 38 44 106 38 44 104 38 44 106 38 44 106 33 36 87 30 34 82 32 38 90 38 44 106 38 44 106 38 44 106 38 44 106 38 44 106 38 44 106 38 44 106 38 44 106 38 44 106 36 41 99 31 35 83 32 36 84 36 41 99 38 44 106 39 45 105 37 43 103 38 44 104 38 44 106 38 44 106 38 44 104 38 44 104 39 45 107 32 38 90 30 34 82 33 36 87 38 44 106 38 44 104 38 44 106 38 44 104 38 44 106 38 44 104 38 44 104 38 44 104 38 44 106 36 42 100 32 36 84 
38 44 104 38 44 104 38 44 104 38 44 104 38 44 104 38 44 104 38 44 104 38 44 104 38 44 106 38 44 106 39 45 107 33 36 87 31 35 83 33 36 89 38 44 106 38 44 106 38 44 104 38 44 104 39 43 104 38 43 107 38 44 104 38 44 104 38 44 104 36 41 97 31 35 83 32 36 84 37 42 100 38 44 104 39 45 105 38 44 104 38 44 106 38 44 106 38 44 106 38 44 106 38 44 106 38 44 106 34 37 88 31 35 83 34 37 90 38 44 106 39 43 104 38 44 104 37 43 103 37 43 103 39 43 104 38 42 103 39 43 104 38 44 104 36 41 99 31 35 83 31 35 83 36 42 100 38 44 104 38 44 104 38 44 104 38 44 104 38 44 106 38 44 106 38 44 106 39 45 107 38 44 106 34 37 88 31 35 83 32 38 90 38 44 106 38 44 106 38 44 106 38 44 106 38 44 106 38 44 106 38 44 106 38 44 106 38 44 106 36 41 99 30 34 82 32 36 84 37 42 100 38 44 106 38 44 104 38 44 104 38 44 104 38 44 106 38 44 106 38 44 104 38 44 104 38 44 106 32 38 90 31 35 83 32 35 86 37 43 105 38 44 104 39 45 107 39 45 105 38 44 106 38 44 104 38 42 103 37 43 103 37 43 105 34 40 98 31 35 83 
38 44 106 38 44 104 38 44 104 38 44 106 38 44 106 38 44 104 38 44 104 38 44 106 38 44 104 36 44 106 39 45 105 31 37 85 32 35 86 31 37 89 39 45 107 38 44 106 38 44 104 38 44 106 38 44 106 37 43 105 39 45 107 37 43 103 38 44 104 36 41 97 31 35 83 31 35 83 37 42 100 38 44 104 38 44 106 38 44 104 38 44 104 38 44 104 38 42 105 39 43 104 38 44 106 39 45 105 34 37 88 31 35 83 34 37 90 38 42 103 38 44 106 37 43 105 38 44 104 37 43 103 38 44 106 37 43 103 38 44 106 38 44 104 36 41 99 30 34 82 31 35 82 36 42 100 38 42 105 38 44 104 38 44 106 37 43 101 39 45 105 38 44 104 38 44 104 38 44 104 38 44 104 34 37 88 29 33 81 34 37 90 38 44 106 38 44 106 38 44 106 38 44 106 38 44 106 38 44 106 38 44 106 38 44 106 37 43 103 36 41 99 31 35 83 31 35 83 37 42 100 38 44 104 38 44 104 38 44 104 37 43 103 38 44 104 38 44 104 38 44 106 37 43 103 38 44 106 32 38 90 31 35 83 34 37 90 38 44 104 37 43 105 38 44 104 39 45 105 38 44 106 38 44 104 39 45 107 38 43 107 39 45 105 37 42 100 31 35 83 
38 44 104 38 44 106 38 44 106 38 44 104 38 44 104 38 44 106 38 44 106 38 44 104 38 44 106 38 44 104 38 44 106 33 36 89 31 35 83 34 37 90 38 44 106 38 44 104 37 43 105 38 44 106 38 44 106 39 45 105 38 44 104 38 44 104 39 43 104 36 41 97 30 34 82 30 34 82 36 41 99 38 44 104 38 44 106 38 44 104 37 43 103 38 44 104 40 44 107 38 42 103 38 44 106 38 44 106 34 37 88 31 35 83 34 37 90 38 43 107 38 44 106 38 44 106 38 44 106 38 44 106 38 44 104 38 44 106 38 44 104 38 44 106 37 42 98 31 35 83 30 34 82 36 42 100 39 43 104 37 43 103 37 43 103 38 44 104 38 44 104 37 43 103 38 44 104 38 44 104 38 44 104 33 36 87 30 34 82 33 36 89 38 44 106 38 44 106 38 44 106 37 43 105 38 44 106 38 44 106 38 44 106 37 43 105 38 44 104 36 41 99 31 35 83 30 34 82 37 42 100 38 44 104 38 44 104 38 44 104 39 45 105 38 44 104 38 44 106 38 44 104 38 44 104 38 44 104 32 38 90 31 35 83 33 36 87 40 45 109 37 43 103 37 43 105 37 43 103 38 44 106 38 44 104 38 44 106 39 45 107 37 43 105 36 41 99 31 35 83 
38 44 104 38 44 106 38 44 106 38 44 104 38 44 104 38 44 106 38 44 106 38 44 104 38 44 106 38 44 102 38 44 106 32 35 88 30 34 82 34 37 90 37 43 105 39 45 105 38 44 106 37 43 105 39 45 107 38 42 103 39 45 105 38 44 104 38 44 104 35 40 96 31 35 83 31 35 83 37 42 100 38 44 104 39 45 107 38 44 104 37 43 103 38 44 104 38 44 106 38 42 103 38 44 106 38 44 104 34 37 88 31 35 83 34 37 90 38 44 104 37 43 103 38 44 104 38 44 106 37 43 103 39 45 105 38 44 104 38 44 104 38 44 106 37 42 100 31 35 83 31 35 83 36 41 99 38 44 106 38 44 106 38 42 103 38 44 104 38 44 104 38 44 104 38 44 104 38 44 104 38 44 104 33 36 87 30 34 82 33 36 89 38 44 106 38 42 105 39 45 107 38 42 105 39 43 106 38 44 106 39 43 106 38 44 106 39 45 105 36 41 99 31 35 83 30 34 82 36 41 99 38 44 104 38 44 104 38 44 104 38 44 104 38 44 104 37 43 103 37 43 105 38 44 104 38 44 106 31 37 89 31 35 83 33 36 89 38 44 104 37 43 105 38 44 106 37 43 103 38 44 106 38 44 104 37 43 105 38 44 106 38 44 106 37 42 100 31 35 82 
39 45 105 38 44 106 38 44 106 38 44 104 38 44 104 38 44 106 38 44 106 39 45 105 38 44 102 38 44 104 37 43 105 33 36 87 30 34 82 34 37 90 38 44 106 38 44 106 38 44 104 38 44 106 38 44 106 38 44 106 38 44 106 37 43 103 38 44 104 36 41 97 30 34 82 31 35 83 36 41 99 38 44 104 38 44 106 38 44 104 38 44 104 38 44 104 38 44 106 39 43 104 38 44 106 38 44 106 33 36 87 32 36 84 33 36 89 37 43 105 37 43 105 38 44 106 38 44 104 38 44 106 38 44 106 38 44 106 38 44 106 38 44 104 37 42 100 31 35 82 32 34 83 37 42 100 39 45 107 38 44 106 38 42 105 38 44 106 37 43 103 38 44 104 36 42 102 37 43 103 38 44 104 33 36 87 31 35 83 33 36 89 38 44 106 38 44 106 38 44 106 38 44 106 38 44 106 38 44 106 38 44 106 38 44 106 37 43 103 36 41 99 31 35 83 32 36 84 36 41 99 38 44 104 38 44 104 37 43 103 38 44 104 38 44 104 37 43 105 38 44 104 37 43 103 38 44 104 32 38 90 31 35 83 32 35 88 38 44 104 38 44 106 38 44 104 38 44 104 38 44 104 38 44 106 38 44 106 37 43 105 38 44 104 36 41 97 30 34 82 
38 44 106 38 44 104 38 44 104 38 44 106 38 44 106 37 43 103 38 44 104 39 45 107 35 43 105 38 44 106 38 44 106 33 36 87 30 34 82 34 37 90 37 43 105 38 44 104 37 43 103 38 44 106 38 44 106 38 44 106 38 44 106 38 44 104 38 44 104 36 41 97 30 34 82 31 35 83 36 41 99 37 43 103 38 44 106 38 44 104 37 43 103 38 44 104 38 44 106 37 43 103 38 44 106 37 43 105 34 37 88 31 35 83 32 38 90 38 44 106 38 44 106 38 44 106 38 44 104 38 44 106 38 44 106 38 44 106 37 43 105 38 44 104 36 41 99 32 34 83 31 35 83 37 42 100 38 44 104 40 44 105 38 42 103 38 44 102 38 44 104 38 44 104 38 44 104 38 44 104 38 44 104 33 36 87 31 35 83 33 36 89 38 44 106 38 44 106 38 44 106 38 44 106 38 44 106 38 44 106 38 44 106 38 44 106 38 44 104 36 41 99 31 35 83 29 33 81 36 41 99 37 43 103 38 44 104 39 45 105 38 44 104 38 44 104 37 43 105 37 43 103 36 42 102 38 44 104 31 37 89 30 34 82 33 36 89 39 45 105 38 44 106 38 44 104 38 44 104 39 45 105 38 44 106 38 44 106 38 44 106 38 44 106 36 41 99 32 35 86 
39 45 107 38 44 104 38 44 104 38 44 106 38 44 106 38 44 104 38 44 104 38 44 106 38 44 106 38 42 103 37 43 105 33 36 89 31 35 83 33 36 87 38 44 106 38 42 103 38 44 106 38 44 106 37 43 105 39 43 104 40 46 106 37 43 103 38 44 104 36 41 97 31 35 83 31 35 83 36 41 99 38 44 104 38 44 106 37 43 103 38 44 104 38 44 104 38 44 106 37 43 103 38 44 106 39 45 105 34 37 88 32 36 84 32 38 90 38 44 104 38 44 104 37 43 103 38 44 106 38 44 104 38 44 104 38 44 104 38 44 104 38 44 106 36 41 97 31 35 83 31 33 81 36 42 100 39 43 104 37 43 103 39 43 104 38 44 104 37 43 103 38 44 104 38 44 104 38 44 104 37 43 103 33 36 87 30 34 82 32 35 88 38 44 106 38 44 106 38 44 106 38 44 106 38 44 106 38 44 106 38 44 106 38 44 106 37 43 103 37 42 100 30 34 82 30 34 82 37 42 100 38 44 104 37 43 103 38 44 104 38 44 104 39 45 105 38 44 104 37 43 105 38 44 104 38 44 106 31 37 89 31 35 83 33 36 89 38 44 104 38 44 106 38 44 106 38 44 104 37 43 105 38 44 104 38 44 106 39 45 105 38 44 106 37 42 100 30 34 82 
37 43 105 38 44 104 39 45 105 38 44 106 37 43 105 37 43 103 38 44 104 39 45 107 37 43 105 39 43 104 38 44 106 33 36 89 30 34 82 34 37 88 37 43 105 39 43 104 38 44 106 38 44 106 38 44 106 38 44 104 37 43 103 38 44 104 39 43 104 36 41 97 30 34 82 31 35 83 36 41 99 38 44 104 37 43 105 38 44 104 38 44 104 38 44 104 39 45 107 38 44 104 38 44 106 38 44 106 34 37 88 32 36 84 31 37 89 37 42 106 37 43 105 38 44 106 37 43 105 38 44 106 37 43 103 38 44 106 37 43 103 38 44 106 36 41 99 31 35 83 31 35 82 37 42 100 38 44 106 37 43 105 38 44 106 38 44 104 37 43 103 38 44 104 38 44 104 38 44 104 38 44 104 34 37 88 31 35 83 33 36 89 38 44 106 39 45 107 37 43 105 39 45 107 38 44 106 37 43 105 38 44 106 38 44 106 38 44 104 36 41 99 31 35 83 30 34 82 36 41 99 38 44 104 37 43 103 38 44 104 38 44 104 38 44 104 38 44 106 38 44 104 38 44 104 37 43 103 31 37 89 32 36 84 33 36 87 38 43 107 37 43 103 39 45 107 38 44 104 38 44 106 36 42 102 38 44 106 39 45 107 37 43 105 37 42 98 31 35 83 
38 44 104 38 44 106 38 44 106 38 44 104 38 44 104 38 44 106 38 44 106 38 44 104 35 44 103 38 44 106 39 43 107 33 36 87 32 34 83 34 37 90 37 43 103 38 44 106 37 43 103 37 43 105 38 44 106 38 44 106 38 44 106 38 44 104 38 44 104 36 41 97 31 35 83 30 34 82 36 41 99 39 45 105 38 44 106 37 43 103 38 44 104 37 43 103 38 44 106 38 44 104 37 43 105 35 44 103 32 38 88 31 35 83 32 38 90 36 45 104 37 43 105 38 44 106 37 43 103 37 43 103 37 43 105 38 44 104 38 44 106 38 44 104 36 41 99 31 35 83 32 36 84 36 42 100 38 42 105 38 44 104 37 43 105 38 44 104 38 44 104 39 45 105 38 44 104 38 44 104 38 44 104 33 36 87 32 36 84 32 35 88 39 43 106 37 43 105 39 43 106 37 43 105 38 44 106 38 42 105 38 44 106 38 42 105 38 44 104 36 41 99 31 35 83 31 35 83 36 41 99 37 43 103 38 44 104 37 43 103 38 44 104 39 45 105 37 43 103 38 44 106 38 44 104 38 44 106 31 37 89 31 35 83 33 36 89 38 44 104 38 44 106 37 43 103 37 43 103 38 44 106 38 44 104 38 44 106 38 44 104 38 44 106 36 41 97 31 35 83 
38 44 104 37 46 105 38 44 104 37 43 103 38 44 104 38 44 104 38 42 103 38 44 104 38 44 104 38 44 104 38 44 106 33 36 87 30 34 82 33 36 89 39 45 107 38 44 104 38 44 104 38 44 106 39 43 104 38 44 104 38 42 103 38 44 104 38 44 104 36 41 97 31 35 83 32 36 84 37 42 100 37 43 103 38 44 104 38 44 106 38 44 104 39 43 106 39 43 106 38 44 104 37 43 103 38 44 104 34 37 90 31 35 83 34 37 90 38 44 106 38 44 106 38 44 106 38 44 106 37 43 105 38 44 106 38 44 106 37 43 105 38 44 106 37 42 100 31 35 83 32 36 84 37 42 100 37 43 103 38 44 104 37 43 105 38 44 106 37 43 103 39 43 104 38 44 104 38 42 105 38 44 104 33 36 87 32 36 84 33 36 89 37 43 105 38 44 106 38 42 105 38 44 106 37 43 105 39 43 106 37 43 105 38 44 106 37 43 105 38 43 101 31 35 83 31 35 82 36 41 99 39 43 104 38 44 104 38 44 106 39 43 104 39 43 104 38 44 106 37 43 103 38 44 104 38 44 104 31 37 89 31 35 83 32 35 86 38 44 104 39 45 105 37 43 105 38 44 104 37 43 103 37 43 103 38 44 104 38 44 104 38 44 104 36 42 100 30 34 82 
37 43 103 38 44 104 38 44 104 37 43 103 37 43 103 39 45 105 39 43 104 38 44 104 37 43 103 38 44 104 37 43 105 33 36 87 32 36 84 33 36 89 38 44 106 37 43 103 38 44 104 38 44 106 38 44 104 39 43 104 37 43 103 38 44 104 38 44 104 36 41 97 30 34 82 30 34 82 37 42 100 38 44 104 39 43 104 39 45 107 40 44 105 39 43 106 38 42 105 37 43 103 38 44 104 38 44 104 34 37 90 32 36 84 31 37 89 38 44 106 37 43 105 38 44 106 38 44 106 38 44 106 39 45 107 38 44 106 37 43 105 38 44 106 36 42 100 32 34 83 31 35 83 36 41 99 37 43 103 38 42 103 37 43 105 38 42 105 37 43 103 38 44 104 37 43 103 38 42 105 38 44 104 33 36 87 32 36 84 33 36 89 38 42 105 39 45 107 38 44 106 39 43 106 37 43 105 39 43 106 37 43 105 39 43 106 38 44 106 36 41 99 30 34 82 30 34 82 36 41 99 38 42 103 38 44 106 38 44 106 38 42 103 38 42 103 38 44 106 36 42 102 37 43 103 38 44 104 32 38 90 31 35 83 33 36 87 38 44 104 38 44 104 37 43 105 38 44 104 37 43 103 38 44 104 37 43 103 38 44 104 38 44 104 36 42 100 30 34 82 
39 43 104 37 43 103 38 42 103 38 44 104 38 44 104 39 43 104 38 44 104 38 44 104 38 44 104 38 44 104 38 44 106 33 36 87 31 35 83 33 36 89 37 43 105 38 44 104 38 44 104 38 44 106 39 45 105 39 43 104 38 44 104 38 44 104 38 44 104 36 41 97 31 35 83 32 36 84 37 42 100 37 43 103 37 43 103 38 44 106 39 43 104 39 43 106 38 44 106 39 45 105 38 44 104 39 45 105 34 37 90 31 35 83 34 37 90 37 43 105 37 43 105 38 44 106 37 43 105 37 43 105 38 44 106 38 44 106 38 44 106 38 44 106 36 41 99 30 34 82 31 35 83 36 41 99 38 44 104 38 42 103 37 43 103 37 43 103 39 43 104 37 43 103 38 44 104 38 44 106 35 44 103 32 35 86 30 34 82 31 37 89 37 43 105 38 44 106 37 43 105 38 44 106 38 44 106 39 43 106 37 43 105 38 44 106 38 44 106 35 40 98 32 36 84 30 34 82 36 41 99 39 43 104 37 43 103 38 44 106 39 43 104 38 42 103 38 44 106 39 45 105 38 44 104 38 44 104 31 37 89 31 35 83 32 35 86 38 44 104 38 44 104 38 44 106 37 43 103 37 43 103 37 43 103 39 43 104 39 45 105 38 44 104 36 42 100 31 35 83 
39 45 105 37 43 103 38 44 104 38 44 104 38 44 104 37 43 103 38 42 103 37 43 103 39 45 105 37 43 103 38 44 106 33 36 87 31 35 83 34 37 90 37 43 105 37 43 103 39 45 105 36 44 106 38 42 103 37 43 103 38 42 103 38 44 104 37 43 103 36 41 97 30 34 82 30 34 82 36 42 100 38 42 103 39 45 105 37 43 105 37 43 103 37 43 105 38 42 105 40 44 107 38 44 104 38 42 103 31 37 87 31 35 83 32 38 90 38 44 104 38 44 106 38 44 106 38 44 106 38 44 106 37 43 105 37 43 105 38 44 106 38 44 106 36 42 100 30 34 82 30 34 82 35 41 99 38 42 103 38 44 104 38 44 104 39 43 104 37 43 103 38 44 104 38 44 104 40 44 107 37 43 103 33 36 87 31 35 83 34 37 90 37 43 105 38 44 106 39 43 106 39 45 107 38 44 106 38 44 106 38 42 105 39 45 107 38 44 106 36 41 99 31 35 83 31 35 83 36 41 99 39 43 104 38 44 104 38 44 106 38 42 103 39 43 104 38 44 106 38 44 104 37 43 103 38 44 104 31 37 89 31 35 83 33 36 87 39 43 104 38 44 104 38 44 106 39 43 104 38 42 103 38 44 104 39 43 104 38 44 104 38 44 104 36 42 100 31 35 83 
39 45 105 37 43 103 37 43 103 38 44 104 38 44 104 38 44 104 37 43 103 38 44 104 38 44 104 38 44 104 38 44 106 33 36 87 31 35 83 33 36 89 38 44 106 39 45 105 38 44 104 37 43 105 39 45 105 39 43 104 38 44 104 37 43 103 38 44 104 36 41 97 31 35 83 31 35 83 36 41 99 38 44 104 38 42 103 38 44 106 38 44 104 38 44 106 38 42 105 36 44 106 38 44 104 38 42 103 33 36 87 31 35 83 34 37 90 40 42 103 38 44 106 38 44 106 37 43 105 38 44 106 39 45 107 38 44 106 38 44 106 37 43 105 36 41 99 31 35 83 28 34 82 36 41 99 38 44 104 38 44 104 39 43 104 37 43 103 38 44 104 39 43 104 37 43 103 38 44 106 37 43 103 33 36 87 31 35 83 33 36 89 38 42 105 39 43 106 38 44 106 38 44 106 39 43 106 38 44 106 37 43 105 37 43 105 38 44 106 36 41 99 30 34 82 30 34 82 36 41 97 38 42 103 38 44 104 37 43 103 38 42 103 39 43 104 38 44 106 38 44 104 37 43 103 38 44 104 31 37 89 31 35 83 33 36 87 38 42 103 37 43 103 38 44 106 39 43 104 38 42 103 38 44 104 38 42 103 38 44 104 38 44 104 35 41 99 30 34 82 
37 43 103 39 43 104 38 44 104 37 43 103 38 44 104 37 43 103 38 44 104 38 44 104 38 44 104 38 44 104 36 42 104 32 35 86 31 35 83 33 36 89 38 44 106 38 44 104 38 44 104 37 43 105 38 44 104 38 42 103 38 44 104 37 43 103 38 44 104 36 41 97 31 35 83 30 34 82 36 41 99 37 43 103 39 43 104 37 43 105 37 43 103 37 43 105 38 42 103 38 44 106 38 44 104 38 42 103 34 37 88 31 35 83 31 38 90 38 44 104 38 44 106 37 43 105 39 45 107 38 44 106 37 43 105 38 44 106 37 43 105 37 43 105 35 41 99 31 33 82 30 34 82 36 41 99 37 43 103 38 42 103 38 44 104 38 42 103 37 43 103 38 44 104 38 44 104 38 44 106 41 43 104 33 36 87 30 34 82 34 37 90 37 43 105 39 43 106 38 44 106 39 43 106 37 43 105 37 43 105 37 43 105 36 44 106 37 43 105 36 41 99 30 34 82 30 34 82 35 40 96 38 42 103 38 44 104 37 43 101 38 42 103 39 43 104 38 44 106 38 44 104 38 44 104 38 44 104 31 37 89 31 35 83 33 36 87 37 43 103 38 44 104 38 44 106 37 43 103 38 44 104 38 44 104 39 43 104 38 44 104 38 44 106 35 41 99 30 34 82 
37 43 103 38 42 103 37 43 103 37 43 103 38 44 104 39 45 105 37 43 103 38 44 104 39 45 105 38 44 104 37 43 105 32 35 86 30 34 82 33 36 89 38 44 106 38 44 104 38 44 104 36 44 106 38 42 103 38 44 104 38 42 103 38 44 104 37 43 103 36 41 97 31 35 83 31 35 83 35 41 99 38 42 103 39 45 105 39 43 106 38 44 104 38 44 106 38 44 104 38 44 106 37 43 103 37 43 103 34 38 86 30 34 82 34 37 90 38 44 104 38 44 106 37 43 105 37 43 105 38 44 106 37 43 105 37 43 105 38 44 106 38 44 106 36 41 99 31 35 83 30 34 82 37 42 100 37 43 103 39 43 104 38 44 106 38 44 106 37 43 103 39 43 104 37 43 103 37 43 105 37 43 103 33 36 87 31 35 83 33 36 89 37 43 105 38 42 105 37 43 105 38 44 106 38 44 106 38 42 105 38 42 105 38 44 106 37 43 103 36 41 99 30 34 82 31 35 83 36 41 97 38 42 105 37 43 103 38 44 104 38 42 103 39 43 104 37 43 105 37 43 103 37 43 103 38 44 104 32 38 90 31 35 83 31 34 85 37 43 103 38 44 104 37 43 105 37 43 103 37 43 103 37 43 103 38 44 104 38 44 104 38 44 106 36 42 100 31 35 83 
37 43 103 38 44 104 38 44 104 37 43 103 38 44 104 39 43 104 37 43 103 37 41 102 38 44 104 38 44 104 38 44 106 33 36 87 31 35 83 34 37 90 38 44 106 37 43 103 38 44 104 37 43 105 38 44 104 39 43 104 37 43 103 37 43 103 37 43 103 36 41 97 31 35 83 30 34 82 35 40 98 38 44 104 39 43 104 38 44 106 38 44 104 36 44 106 40 44 105 38 43 107 37 43 103 37 43 103 34 38 86 30 34 82 33 36 89 38 44 104 37 43 105 37 43 105 37 43 105 38 44 106 37 43 105 37 43 105 38 44 106 37 43 105 37 42 100 31 35 83 31 35 83 35 41 99 41 43 104 37 43 103 39 45 107 38 44 106 39 45 105 37 43 103 38 44 104 38 44 106 38 44 104 33 36 87 30 34 82 33 36 89 37 43 105 38 44 106 38 44 106 37 43 105 38 42 105 35 43 105 38 42 105 38 44 106 38 44 104 35 40 98 31 35 83 30 34 82 36 41 97 38 42 105 37 43 105 38 44 104 39 43 104 39 43 104 37 43 105 38 44 104 37 43 103 38 44 104 31 37 89 31 35 83 33 36 87 37 43 103 37 43 103 37 43 105 36 42 102 39 45 105 37 43 103 37 43 103 38 44 104 37 42 106 36 42 100 31 35 83 
37 43 103 39 43 104 38 42 103 39 45 105 38 44 104 39 43 104 37 43 103 38 44 104 39 45 105 37 43 103 39 45 107 33 36 87 31 35 83 34 37 90 37 43 105 35 44 103 38 44 104 38 42 103 41 42 106 38 44 104 39 43 104 38 44 104 38 44 104 36 41 97 31 35 83 31 35 83 35 41 99 39 43 104 38 44 104 38 42 103 38 44 104 38 44 104 38 42 103 37 43 103 39 43 106 38 44 104 35 37 88 31 35 83 34 37 90 38 44 106 38 44 104 38 44 104 37 43 103 37 43 103 38 44 104 37 43 103 38 44 104 37 43 103 37 42 100 30 34 82 30 34 82 37 42 100 37 43 103 38 44 104 38 42 103 38 44 104 38 44 104 38 44 106 37 43 103 38 44 104 38 44 104 33 36 87 31 35 83 33 36 89 37 43 103 35 44 103 38 42 103 37 43 103 40 42 103 37 43 103 39 43 104 38 44 104 38 44 106 37 42 100 31 35 83 30 34 82 36 41 99 39 45 105 38 44 104 37 43 103 37 43 103 37 43 105 37 43 105 36 42 102 37 43 103 37 43 103 32 38 88 30 34 82 33 36 87 37 43 103 37 43 103 37 43 105 39 43 104 38 44 104 37 43 103 37 43 103 38 44 104 38 44 104 36 41 99 31 35 83 
38 44 104 38 44 104 38 42 103 37 43 103 38 44 104 39 43 104 37 41 102 37 43 103 38 44 104 38 44 104 38 44 106 32 35 86 30 34 82 34 37 90 38 42 105 35 44 103 37 43 103 38 42 103 38 44 106 38 42 103 38 44 104 38 44 104 38 44 104 36 41 97 31 35 83 30 34 82 36 41 99 39 43 104 37 43 103 39 43 104 38 44 104 37 43 103 37 43 103 37 43 103 38 44 106 38 44 104 33 36 87 30 34 82 33 36 89 38 44 106 38 44 104 38 44 104 38 44 104 37 43 103 38 44 104 38 44 104 37 43 103 38 44 104 36 41 99 31 35 83 30 34 82 36 41 99 38 44 104 38 44 104 38 42 103 38 44 104 37 43 103 38 44 106 38 44 104 37 43 103 37 43 103 34 37 88 31 35 83 33 36 89 38 42 103 39 43 104 39 43 104 37 43 103 38 44 104 38 44 104 37 43 103 38 44 104 38 44 106 36 41 99 30 34 82 31 35 83 36 41 99 37 43 103 38 44 104 38 44 104 38 44 104 38 44 106 38 44 106 38 44 104 38 44 104 39 45 105 33 39 89 30 34 82 32 35 86 37 43 103 39 43 104 38 44 106 37 43 103 37 43 103 38 44 104 37 43 103 39 45 105 38 44 104 37 42 100 30 34 82 
37 43 103 39 43 104 38 44 104 37 41 102 37 43 103 39 43 104 37 43 103 37 43 103 39 43 104 37 43 103 39 43 106 32 35 86 30 34 82 33 36 89 37 43 105 38 44 104 38 44 104 38 42 103 38 42 105 38 44 104 37 43 103 38 44 104 37 43 103 36 41 97 30 34 82 30 34 82 36 42 100 39 43 104 38 44 104 38 44 104 39 43 104 39 43 104 38 44 104 37 43 103 38 44 106 37 43 103 34 37 88 30 34 82 33 36 89 38 44 106 37 43 103 36 42 102 38 44 104 38 42 103 37 43 103 38 42 103 37 43 103 37 43 103 37 42 100 30 34 82 31 35 83 37 42 100 37 43 103 38 44 104 38 42 103 37 43 103 38 44 104 36 42 104 37 43 103 37 43 103 37 43 103 33 36 87 30 34 82 33 36 89 38 44 104 37 43 103 38 44 104 38 44 104 38 44 104 37 43 103 38 44 104 37 43 103 38 44 106 35 41 99 30 34 82 31 35 83 36 41 99 39 43 104 38 44 104 38 44 104 36 42 102 38 44 106 38 44 106 38 44 104 38 44 104 37 43 103 31 37 87 33 37 85 33 36 87 37 43 103 37 43 103 37 43 105 38 42 103 38 44 104 38 44 104 37 43 103 37 43 103 39 45 105 37 42 100 30 34 82 
37 43 103 37 43 103 37 41 102 37 43 103 38 42 103 37 43 103 39 43 104 38 42 103 38 44 104 38 42 103 38 44 106 34 37 88 31 35 83 31 37 89 38 42 105 37 43 103 37 43 103 38 42 103 38 42 105 38 44 104 38 42 103 38 44 104 37 43 103 36 41 97 31 35 83 30 34 82 36 41 99 38 42 103 36 42 102 38 44 104 37 43 103 38 44 104 38 44 104 36 45 104 38 44 106 38 44 104 33 36 87 31 35 83 34 37 90 38 44 106 38 42 103 38 44 104 39 43 104 37 43 103 40 44 105 37 43 103 39 43 104 38 44 104 36 41 99 31 35 83 30 34 82 35 40 98 39 45 105 37 43 103 38 42 103 38 44 104 38 44 104 37 43 105 37 43 103 37 43 103 37 43 103 33 36 87 30 34 82 33 36 89 38 44 104 38 44 104 38 44 104 38 44 104 38 42 103 38 44 104 38 42 103 38 42 103 38 44 106 35 41 99 31 35 83 30 34 82 36 41 99 39 43 104 38 44 104 38 44 104 38 44 104 37 43 105 37 43 105 38 44 104 37 43 103 37 43 103 31 37 87 30 34 82 32 35 86 37 43 103 37 43 103 37 43 105 38 42 103 37 43 103 37 43 103 38 44 104 38 44 104 38 44 104 37 43 101 30 34 82 
37 43 103 37 43 103 37 43 103 39 43 104 36 42 102 38 42 103 37 43 103 38 42 103 39 43 104 38 44 104 39 43 106 33 36 87 31 35 83 34 37 90 38 44 106 38 42 103 37 43 103 38 42 103 37 43 105 39 43 104 38 42 103 38 44 104 37 43 103 36 41 97 30 34 82 30 34 82 36 41 99 37 43 103 37 43 103 39 43 104 38 44 104 38 42 103 38 44 104 36 45 104 38 44 106 38 44 104 31 37 87 31 35 83 32 38 90 38 44 106 37 43 103 38 44 104 37 43 103 39 43 104 37 43 103 38 42 103 37 43 103 37 43 103 37 42 100 30 34 82 31 35 83 37 42 100 37 43 103 38 44 104 38 42 103 37 43 103 37 43 103 37 43 105 38 44 104 37 43 103 37 43 103 33 36 87 30 34 82 33 36 89 39 43 104 38 44 104 39 43 104 36 42 102 38 44 104 37 43 103 37 43 103 37 43 103 38 44 106 35 41 99 30 34 82 30 34 82 36 41 99 39 43 104 37 43 103 37 43 103 37 43 103 37 43 105 36 42 104 37 43 103 38 44 104 38 44 104 31 37 87 31 35 83 32 35 86 37 43 103 38 42 103 37 43 105 37 43 103 37 43 103 37 43 103 38 44 104 37 43 103 38 44 104 36 41 99 31 35 83 
40 44 105 37 43 103 37 41 102 36 45 104 39 43 104 39 43 104 37 43 103 37 43 103 37 43 103 38 42 103 38 44 106 33 36 87 31 35 83 32 38 90 38 44 106 38 44 104 38 44 104 37 43 103 38 42 105 39 43 104 37 43 103 37 43 103 38 42 103 35 42 97 31 35 83 31 33 82 36 41 99 40 44 105 38 42 103 37 43 103 38 44 104 38 44 104 37 43 103 37 43 103 38 42 105 38 44 104 31 37 87 31 35 83 31 37 89 38 44 106 38 44 104 38 44 104 38 44 104 39 43 104 38 44 104 39 43 104 37 43 103 38 44 104 36 41 99 31 35 83 30 34 82 36 41 99 38 44 104 37 43 103 38 42 103 38 44 104 37 43 103 37 43 105 38 44 104 37 43 103 37 43 103 33 36 87 30 34 82 33 36 89 38 44 104 39 43 104 37 43 103 38 42 103 38 42 103 37 43 103 37 43 103 37 43 103 38 44 106 35 41 99 30 34 82 30 34 82 36 41 99 38 42 103 38 44 104 36 42 102 38 44 104 36 42 104 38 44 106 38 44 104 38 44 104 37 43 103 32 38 88 31 35 83 33 36 87 37 43 103 37 43 103 37 43 105 38 42 103 38 44 104 38 44 104 37 43 103 37 43 103 39 43 104 36 42 100 30 34 82 
37 43 103 38 44 104 38 42 103 39 43 104 37 43 103 37 43 103 38 44 104 39 43 104 37 43 103 37 43 103 37 43 105 34 37 88 31 35 83 33 36 89 38 44 106 39 43 104 36 42 102 37 43 103 40 41 105 38 44 104 37 43 103 38 44 104 38 42 103 35 42 97 30 34 82 30 34 82 36 41 99 37 43 103 39 43 104 38 44 104 37 43 103 38 42 103 38 44 104 37 43 103 38 42 105 38 44 104 33 36 87 31 35 83 33 36 89 37 43 105 38 44 104 37 43 103 38 42 103 37 43 103 40 42 103 38 44 104 38 42 103 37 43 103 37 42 100 30 34 82 31 35 83 37 42 100 37 43 103 38 44 104 38 42 103 37 43 103 38 44 104 37 43 105 37 43 103 38 44 104 38 44 104 33 36 87 30 34 82 33 36 89 38 44 104 37 43 103 38 44 104 39 43 104 36 42 102 39 43 104 38 44 104 38 42 103 38 44 106 36 41 99 30 34 82 30 34 82 36 41 99 37 43 103 38 44 104 37 43 103 37 43 103 37 43 105 37 43 105 37 43 103 38 44 104 39 45 105 31 37 87 30 34 82 32 35 86 37 43 103 36 45 104 38 44 106 38 42 103 37 43 103 38 44 104 37 43 103 38 44 104 37 43 103 35 41 99 31 35 83 
39 43 104 37 43 103 38 44 104 38 42 103 38 42 103 39 45 105 36 45 104 38 44 104 38 44 104 38 44 104 37 43 105 32 35 86 31 35 83 32 38 90 38 44 106 37 43 103 37 43 103 38 42 103 37 43 105 39 43 104 37 43 103 37 43 103 37 43 103 36 41 97 31 35 83 30 34 82 36 41 99 38 44 104 38 42 103 37 43 103 38 44 104 38 44 104 38 44 104 38 44 104 38 44 106 39 43 104 33 36 87 29 35 83 33 36 89 38 42 105 38 44 104 38 44 104 36 42 102 38 42 103 38 44 104 39 43 104 38 44 104 37 43 103 36 41 99 31 35 83 30 34 82 36 41 99 38 44 104 38 44 104 38 42 103 38 44 104 37 43 103 38 44 106 37 43 103 37 43 103 37 43 103 32 35 86 31 35 83 33 36 89 37 43 103 39 43 104 37 43 103 38 44 104 36 45 104 38 44 104 37 43 103 38 44 104 37 43 105 35 40 98 30 34 82 30 34 82 36 41 99 37 43 103 37 43 103 38 44 104 38 44 104 37 43 105 39 45 107 37 43 103 38 44 104 36 42 102 31 37 87 31 35 83 33 36 87 37 43 103 38 42 103 37 43 105 38 44 104 38 44 104 37 43 103 37 43 103 37 43 103 39 43 104 36 42 100 30 34 82 
37 43 103 38 44 104 38 44 104 38 44 104 38 42 103 39 43 106 38 44 104 39 43 104 38 42 103 38 42 103 37 43 105 32 35 86 31 35 83 31 37 89 38 44 106 38 44 106 38 42 103 37 43 105 38 42 103 37 43 105 37 43 103 38 42 103 41 42 106 36 41 97 29 33 81 30 34 82 36 41 99 38 44 106 37 43 103 38 44 104 37 43 103 37 43 103 37 43 103 38 44 104 37 43 103 37 43 103 33 36 87 31 35 83 32 38 90 37 43 103 37 43 103 37 43 103 38 44 104 39 43 104 38 44 104 37 43 103 37 43 103 37 43 103 37 42 100 31 35 83 30 34 82 36 41 99 38 44 104 38 44 104 38 44 104 37 43 103 37 43 105 37 43 105 37 43 103 38 44 104 37 43 103 33 36 87 30 34 82 33 36 89 36 45 104 39 43 104 38 42 103 38 44 104 37 43 103 41 43 104 41 43 104 38 44 104 37 43 103 36 41 99 31 35 83 29 33 81 36 41 99 38 44 104 38 42 103 37 43 103 38 42 103 37 43 103 37 43 103 38 42 103 37 43 103 38 42 103 31 37 87 30 34 82 32 35 86 38 42 103 37 43 103 37 43 103 37 43 103 38 42 103 38 44 104 38 44 104 38 44 104 37 43 103 35 41 99 30 34 82 
39 43 104 39 43 104 39 43 104 38 42 103 37 43 103 37 43 103 38 44 104 37 43 103 38 44 104 37 43 103 38 44 106 33 36 87 30 34 82 33 36 89 37 43 105 37 43 103 37 43 103 38 42 103 37 43 103 39 43 104 38 42 103 37 43 103 39 43 104 36 41 97 31 35 83 31 35 82 36 41 97 38 44 104 37 43 103 38 44 104 37 43 103 38 44 104 37 43 103 39 45 105 37 43 103 38 44 104 33 36 87 30 34 82 32 38 90 37 43 103 38 42 103 37 43 103 37 43 103 38 42 103 37 43 103 37 43 103 38 42 103 35 44 103 37 42 100 31 35 83 30 34 82 36 41 99 38 44 104 38 44 104 37 43 103 37 43 103 37 43 105 39 43 106 37 43 103 37 43 103 37 43 103 33 36 87 30 34 82 31 37 89 38 44 104 37 43 103 38 42 103 38 44 104 38 42 103 38 42 103 38 42 103 38 42 103 38 42 103 36 41 99 30 34 82 30 34 82 36 41 99 37 43 103 37 43 103 38 42 103 36 45 104 37 43 103 37 43 103 39 43 104 39 43 104 38 42 103 31 37 87 31 35 83 33 36 87 38 44 104 37 43 103 37 43 103 37 43 103 37 43 103 37 43 103 37 43 103 38 44 104 38 42 103 36 41 99 32 34 83 
38 42 103 37 43 103 37 43 103 37 43 103 38 44 104 39 43 104 39 43 104 37 43 103 38 44 104 35 44 103 38 44 106 32 35 86 31 35 83 33 36 89 37 43 103 41 43 104 37 43 103 38 42 103 37 43 105 38 44 104 37 43 103 38 42 105 38 44 104 35 40 96 30 34 82 31 35 82 35 40 96 37 43 103 37 43 103 38 44 104 37 43 103 38 44 104 37 43 103 37 43 103 37 43 103 38 44 104 33 36 87 30 34 82 31 37 89 38 44 104 38 44 104 38 44 104 38 44 104 37 43 103 37 43 103 37 43 103 37 43 103 37 43 103 36 41 99 31 35 83 30 34 82 36 41 99 37 43 103 38 44 104 37 43 103 37 43 103 38 44 106 38 44 104 38 44 104 38 44 104 38 44 104 33 36 87 31 35 83 34 37 90 39 43 104 38 44 104 37 43 103 38 44 104 38 42 103 37 43 103 36 42 102 37 43 103 38 42 103 36 41 99 30 34 82 30 34 82 36 41 97 35 44 103 39 43 104 37 43 103 38 42 103 37 43 103 37 43 103 37 43 103 37 43 103 39 43 104 31 37 87 30 34 82 33 36 87 37 43 103 37 43 103 37 43 103 37 43 103 38 44 104 37 43 103 37 43 103 39 43 104 38 44 104 37 42 100 31 35 83 
38 44 104 38 44 104 39 43 104 38 42 103 37 43 105 37 43 103 38 42 105 37 41 102 36 42 102 37 43 103 37 43 105 33 36 87 30 34 82 33 36 87 38 44 104 38 44 104 38 42 105 38 44 104 37 43 103 37 43 105 38 44 104 38 42 103 38 42 103 36 41 99 30 34 82 30 34 82 36 41 99 37 43 105 37 43 103 37 43 103 37 43 103 37 43 103 37 43 103 38 44 104 37 43 103 38 44 104 34 37 88 29 33 81 32 38 90 38 44 104 37 43 103 37 43 103 37 43 103 37 43 103 37 43 103 37 43 103 39 43 104 38 44 104 36 41 99 31 35 83 30 34 82 38 43 101 37 43 103 38 44 104 37 43 103 38 44 104 37 43 103 37 43 103 37 43 103 38 42 103 37 43 103 32 35 86 31 35 83 33 36 89 39 43 104 37 43 103 37 43 103 37 43 103 38 42 103 37 43 103 37 43 103 36 42 102 38 44 104 36 41 99 31 35 83 31 35 83 36 40 101 37 43 103 37 43 103 37 43 103 37 43 103 38 44 104 37 43 103 37 43 103 38 42 103 38 42 103 32 38 88 30 34 82 33 36 87 37 43 103 37 43 103 37 43 103 37 43 103 38 44 104 37 43 103 37 43 103 38 44 104 37 43 103 35 41 99 31 35 83 
38 42 103 38 42 103 37 43 103 37 43 103 38 42 105 38 42 103 37 43 105 38 44 104 38 44 104 37 43 103 37 43 103 32 35 86 31 35 83 31 37 87 37 43 103 37 43 103 37 43 103 38 44 104 37 43 105 38 42 103 38 44 104 37 43 105 38 42 103 35 42 97 32 36 84 30 34 82 37 42 100 38 44 106 37 43 103 37 43 103 38 44 104 37 43 103 37 43 103 37 43 103 38 44 104 37 43 103 33 36 87 30 34 82 31 37 89 37 43 103 38 44 104 39 43 104 38 44 104 37 43 103 37 43 103 37 43 103 37 43 103 37 43 103 36 41 99 31 35 83 31 35 83 36 41 99 38 44 104 38 44 104 38 44 104 37 43 103 37 43 103 39 43 104 38 44 104 37 43 103 38 44 104 33 36 87 30 34 82 31 37 89 38 42 103 37 43 103 37 43 103 37 43 103 38 42 103 37 43 103 37 43 103 37 43 103 36 42 102 36 41 99 31 33 82 30 34 82 36 41 97 37 43 103 38 42 103 38 44 104 38 44 104 37 43 103 37 43 103 38 44 104 38 42 103 39 43 104 31 37 87 31 35 83 32 35 86 38 42 103 37 43 103 37 43 103 37 43 103 38 42 103 38 44 104 38 44 104 37 43 103 37 43 103 36 41 99 30 34 82 
37 43 103 39 43 104 39 43 104 38 44 104 37 43 103 37 43 103 36 42 102 38 42 103 39 43 104 38 42 103 38 44 104 34 37 88 30 34 82 31 37 87 37 43 103 38 44 104 37 43 103 37 43 103 37 43 103 37 43 105 35 44 103 37 43 103 38 44 104 36 41 97 31 35 83 31 35 82 36 41 97 37 43 103 37 43 103 37 43 103 37 43 103 38 44 104 38 44 104 37 43 103 37 43 103 37 43 103 34 37 88 31 35 83 31 37 89 38 44 104 37 43 103 37 43 103 37 43 103 37 43 103 37 43 103 37 43 103 37 43 103 38 44 104 36 41 99 30 34 82 30 34 82 36 41 99 37 43 103 37 43 103 37 43 103 37 43 103 37 43 103 37 43 103 37 43 103 37 43 103 37 43 103 32 35 86 30 34 82 33 36 89 38 42 103 36 42 102 37 43 103 37 43 103 39 43 104 37 43 103 37 43 103 35 44 103 37 43 103 35 40 98 31 35 83 30 34 82 36 40 101 38 44 104 37 41 102 38 44 104 38 42 103 37 43 103 37 43 103 37 43 103 37 43 103 38 42 103 31 37 87 30 34 82 32 35 86 38 42 103 37 43 103 37 43 103 37 43 103 38 42 103 38 44 104 38 44 104 39 43 104 38 42 103 35 40 98 31 35 83 
38 44 104 37 43 103 37 43 103 38 44 104 38 42 103 38 42 103 38 42 103 39 43 104 37 43 103 38 44 104 38 44 104 32 35 86 30 34 82 33 36 87 38 44 104 38 44 104 37 43 103 37 43 105 37 43 105 37 43 105 37 43 105 37 43 105 37 43 105 36 41 97 30 34 82 30 34 81 36 41 97 37 43 103 37 43 103 37 43 103 37 43 103 37 43 103 37 43 103 38 44 104 37 43 103 37 43 103 33 36 87 30 34 82 31 37 89 37 43 103 36 45 104 39 43 104 38 44 104 38 44 104 38 42 103 37 43 103 37 43 103 38 42 103 36 41 99 31 35 83 30 34 82 36 41 99 37 43 103 38 44 104 37 43 103 37 43 103 37 43 103 37 43 103 38 44 104 39 43 104 37 43 103 33 36 87 31 35 83 33 36 89 37 43 103 37 43 103 37 43 103 37 43 103 38 44 104 37 43 103 37 43 103 37 43 103 37 43 103 34 40 98 30 34 82 31 35 83 36 41 97 37 43 103 39 43 104 38 44 104 35 44 103 38 44 104 38 44 104 38 42 103 38 42 103 39 43 104 32 38 88 30 34 82 33 36 87 39 43 104 37 43 103 37 43 103 37 43 103 38 42 103 37 43 103 37 43 103 39 43 104 38 44 104 36 41 99 31 35 83 
39 43 104 37 43 103 38 42 103 38 42 103 38 44 104 37 43 105 37 43 103 37 43 103 38 44 104 37 43 103 37 43 103 33 36 87 30 34 82 33 36 87 37 43 103 38 42 103 37 43 103 37 43 103 38 44 104 35 43 105 38 42 103 37 43 103 37 41 102 34 41 96 31 35 83 31 35 83 37 42 100 37 43 105 38 44 104 37 43 103 37 43 103 37 43 103 37 43 103 37 43 103 38 44 104 37 43 103 34 37 88 30 34 82 31 37 89 38 44 104 37 43 103 37 43 103 38 44 104 38 44 104 39 43 104 37 43 103 37 43 103 37 43 103 36 41 99 31 35 83 31 35 83 36 41 99 36 42 102 36 42 102 37 43 103 38 44 104 37 43 103 39 43 104 37 43 103 37 43 103 37 43 103 33 36 87 30 34 82 33 36 89 38 44 104 38 44 104 38 44 104 37 43 103 38 44 104 37 43 103 37 43 103 37 43 103 37 43 103 35 41 99 31 35 83 31 33 82 37 39 98 37 43 103 38 42 103 38 42 103 38 42 103 37 43 103 37 43 103 38 42 103 37 43 103 38 42 103 31 37 87 30 34 82 33 36 87 37 43 103 37 43 103 37 43 103 37 43 103 38 44 104 37 43 103 37 43 103 38 44 104 38 44 104 35 40 98 30 34 82 
