P3
100 50
255
52 38 11 54 40 13 53 39 12 53 39 12 53 39 12 54 40 13 54 40 13 54 40 13 53 39 12 53 39 12 52 37 6 52 36 2 53 37 4 53 39 10 53 39 12 53 39 12 54 40 13 53 39 10 52 36 2 51 35 2 53 38 9 52 38 12 53 39 13 54 40 14 53 39 13 53 39 13 53 39 12 53 39 12 53 39 12 53 39 12 54 40 13 53 39 12 52 38 11 51 35 1 54 35 2 53 38 7 53 39 12 54 40 13 53 39 12 53 39 12 54 40 13 53 39 12 53 39 12 52 38 11 54 40 13 54 40 13 53 39 12 53 39 12 54 40 13 53 39 12 54 40 13 53 39 12 53 39 12 53 39 12 52 38 11 54 40 13 53 39 12 53 39 13 52 38 12 17 7 5 12 4 2 13 3 4 13 3 4 12 11 9 10 33 27 9 34 28 8 33 27 10 33 27 10 33 27 8 33 27 8 33 27 9 32 26 10 33 27 10 33 27 10 33 25 8 34 25 11 34 26 11 34 26 10 33 25 8 34 25 8 34 25 10 33 27 10 33 27 10 33 25 10 33 27 9 30 23 10 22 18 11 10 8 11 2 3 13 3 4 13 3 4 12 3 4 12 2 3 12 3 4 13 1 3 13 3 2 12 3 6 12 2 3 13 3 4 12 1 5 
54 40 14 53 39 13 53 39 12 54 40 13 53 39 12 53 39 12 53 39 12 53 39 12 53 39 12 53 39 12 54 37 7 52 36 2 52 37 4 53 39 12 54 40 13 54 40 13 53 39 12 52 38 9 51 35 2 51 35 2 53 37 11 53 39 13 54 39 16 54 40 14 54 40 13 53 39 12 53 39 12 53 39 12 54 40 13 54 40 13 53 39 12 53 39 12 52 38 11 51 35 1 52 36 2 53 37 11 53 39 12 53 39 13 52 38 11 54 40 13 53 39 13 53 39 12 53 39 12 53 39 12 54 40 13 53 39 13 54 40 13 53 39 12 53 39 12 53 39 12 53 39 12 53 39 12 53 39 12 53 39 12 53 39 12 53 39 12 53 39 13 53 39 13 52 36 11 15 5 4 12 3 4 13 3 4 13 3 4 12 10 11 8 33 27 8 33 27 10 33 27 10 33 27 10 33 27 10 33 27 10 33 27 8 33 27 10 33 27 11 34 28 9 34 28 11 34 28 8 34 25 9 34 28 8 33 27 11 34 28 8 33 27 10 33 27 11 34 28 9 34 28 9 32 24 9 35 26 8 34 25 8 33 27 9 26 20 13 12 10 10 4 4 13 3 4 11 5 5 12 3 4 12 3 4 13 3 4 12 2 3 12 2 3 12 3 4 14 2 4 
53 39 12 53 39 12 52 38 11 53 39 12 53 39 12 53 39 12 53 39 12 53 39 12 54 40 13 53 39 13 52 37 6 52 36 2 52 37 6 53 39 13 54 40 13 53 39 13 53 39 12 54 41 9 53 37 4 52 36 2 53 39 10 54 40 13 53 39 13 52 38 11 53 39 12 54 40 13 53 39 12 53 39 12 53 39 12 53 39 12 53 39 12 53 39 13 53 39 12 51 35 2 52 36 2 52 38 11 53 39 12 53 39 13 54 40 13 53 39 12 54 40 13 53 39 12 54 40 13 53 39 12 54 40 13 53 39 12 54 40 13 54 40 13 53 39 12 54 40 13 53 39 12 54 40 13 53 39 12 54 40 13 53 39 12 53 39 12 54 40 14 54 40 13 50 38 12 15 5 6 12 4 2 9 3 3 13 3 4 12 12 12 10 35 29 10 33 27 10 33 27 10 33 27 11 34 28 10 33 27 11 34 28 10 33 27 10 33 27 10 33 27 9 32 26 10 33 27 10 33 27 9 34 28 11 34 28 10 33 27 10 33 27 10 33 27 8 33 27 10 33 27 8 33 27 11 34 28 11 34 28 11 34 28 10 33 27 11 34 26 10 29 23 10 16 14 13 7 9 13 3 4 12 2 3 14 2 2 13 4 5 13 3 4 12 3 4 12 3 4 
54 40 13 54 40 13 53 39 12 54 40 13 54 40 13 53 39 12 54 40 13 53 39 12 54 40 13 53 39 12 52 37 4 52 36 2 52 37 6 53 39 13 54 40 13 53 39 13 53 39 12 53 39 10 52 36 2 52 36 2 54 39 10 53 39 12 53 39 12 53 39 12 53 39 12 53 39 12 53 39 12 53 39 12 53 39 13 54 40 14 52 38 12 53 39 12 52 38 11 51 35 1 51 35 2 53 37 11 54 40 13 53 39 12 55 41 15 55 41 14 53 39 12 53 39 12 53 39 12 53 39 12 53 39 12 54 40 13 52 38 11 53 39 12 53 39 12 54 40 13 53 39 12 53 39 12 53 39 12 54 40 13 53 39 12 54 40 13 53 39 12 52 38 11 50 38 12 15 5 6 14 4 5 12 3 4 12 2 3 11 11 11 10 33 27 10 33 27 10 33 27 8 35 28 10 33 27 10 33 27 8 33 27 10 33 27 10 33 27 10 33 27 10 33 27 10 33 27 11 34 28 11 34 28 9 34 28 9 34 28 8 33 27 11 34 28 9 34 28 9 34 28 9 34 28 8 33 27 10 33 27 8 33 27 9 35 26 10 33 25 10 33 27 10 33 25 10 33 25 9 26 20 11 13 12 13 4 7 12 3 4 12 3 4 13 3 4 13 3 4 
53 39 12 53 39 12 53 39 12 53 39 12 54 40 13 52 38 11 53 39 12 54 40 13 53 39 12 54 40 14 52 37 6 51 35 2 51 36 5 53 39 13 54 40 14 52 38 12 54 40 13 53 39 10 52 36 2 52 36 2 53 38 9 53 39 12 52 38 11 53 39 13 54 40 13 54 40 13 53 39 12 53 39 12 53 39 13 53 39 13 53 39 13 53 39 12 52 38 11 52 36 2 51 35 2 52 38 9 53 39 13 52 38 11 53 39 13 54 40 13 54 40 13 53 39 12 54 40 13 53 39 12 53 39 12 54 40 13 54 40 13 53 39 12 54 40 13 53 39 12 53 39 12 52 38 11 53 39 12 53 39 12 53 39 12 53 39 12 53 39 12 54 40 13 51 37 11 15 5 6 12 3 4 12 3 4 13 3 4 12 10 11 10 33 27 10 33 27 8 33 27 8 33 27 9 34 28 8 33 27 8 33 27 10 33 27 8 33 27 11 34 28 8 33 27 11 38 31 12 42 34 12 42 34 11 41 33 10 35 29 10 33 27 8 33 27 11 41 33 12 42 34 11 42 34 11 41 33 10 35 29 10 33 27 8 34 25 11 34 26 8 34 25 9 32 24 9 35 26 11 34 26 10 33 25 9 30 23 11 22 18 12 10 11 12 3 6 13 3 4 
53 39 12 53 39 12 52 38 11 53 39 12 52 38 11 53 39 12 53 39 12 52 38 11 54 40 13 53 39 12 52 37 4 52 36 2 52 37 6 53 39 12 54 40 13 53 39 12 53 39 12 53 39 10 52 36 2 52 36 2 52 38 11 53 39 12 53 39 12 53 39 12 53 39 12 54 40 13 53 39 12 51 40 12 51 40 12 52 38 11 52 38 11 53 39 13 52 38 11 52 36 2 51 35 2 53 38 9 53 39 13 53 39 12 53 39 13 54 40 13 53 39 12 53 39 12 53 39 12 55 41 14 54 40 13 53 39 12 53 39 12 53 39 12 52 38 11 53 39 12 54 40 13 53 39 12 55 41 14 54 40 13 53 39 12 52 38 11 53 39 12 53 39 12 51 37 11 14 4 5 12 2 3 13 3 4 14 4 5 12 10 11 8 33 27 9 34 28 10 33 27 10 33 27 10 33 27 10 35 29 10 35 29 9 36 29 11 34 28 10 33 27 10 37 30 11 42 34 10 43 34 11 42 34 11 42 34 11 41 33 10 35 29 12 39 32 11 42 34 13 43 35 11 42 34 12 42 34 9 39 31 10 33 27 10 33 27 10 33 25 10 33 25 11 32 27 9 34 28 10 33 27 10 33 27 10 33 27 10 33 25 10 33 25 9 28 22 10 21 17 
54 40 13 53 39 12 53 39 12 53 39 12 54 40 13 53 39 12 54 40 13 53 39 12 53 39 12 53 39 13 52 37 6 51 35 2 51 36 5 53 39 13 53 39 13 53 39 13 53 39 12 52 38 9 51 35 2 51 35 2 52 38 11 54 40 14 53 39 12 53 39 12 51 40 12 53 39 12 53 39 12 54 40 13 53 39 12 53 39 12 53 39 12 52 40 14 53 39 12 52 36 2 50 34 1 52 37 8 53 39 13 54 40 13 53 39 13 53 39 12 53 39 12 54 40 13 53 39 12 54 40 13 53 39 12 53 39 12 53 39 12 53 39 12 53 39 12 54 40 13 53 39 12 54 40 13 53 39 12 53 39 12 53 39 12 53 39 12 54 40 13 53 39 12 51 37 11 15 5 4 14 4 5 14 4 5 14 4 5 12 10 11 10 33 27 8 33 27 8 33 27 8 33 27 12 37 31 11 41 33 11 42 34 10 41 33 12 37 31 8 33 27 10 40 32 11 41 33 11 41 33 12 42 34 11 42 34 12 43 35 10 35 29 11 41 33 13 43 35 11 41 33 11 42 34 11 41 33 10 41 33 9 34 28 10 33 27 10 33 27 8 33 27 9 34 28 10 33 25 11 34 26 8 34 25 11 34 26 9 34 28 10 33 27 8 34 25 8 34 25 
53 39 12 53 39 12 53 39 12 53 39 12 53 39 12 53 39 12 53 39 12 54 40 13 54 40 13 52 38 11 52 37 4 52 36 2 52 37 6 53 39 12 53 39 12 54 40 13 54 40 13 52 38 11 51 35 1 52 36 2 53 38 9 53 39 12 53 39 12 53 39 13 54 40 13 54 40 13 53 39 12 53 39 12 53 39 13 53 39 13 52 38 12 53 39 12 52 38 11 50 34 0 51 35 2 53 39 10 53 39 13 52 38 11 54 40 14 52 38 11 54 40 13 53 39 12 53 39 12 52 38 11 53 39 12 53 39 12 53 39 12 54 40 13 53 39 12 53 39 12 53 39 12 54 40 13 53 39 12 54 40 13 55 41 14 54 40 13 54 40 13 53 39 12 52 38 12 17 7 6 13 3 4 11 2 3 13 3 4 13 9 8 10 33 27 10 33 27 8 33 27 9 36 29 11 41 33 11 41 33 11 41 33 12 42 34 11 41 33 10 37 30 13 40 33 11 41 33 10 41 33 12 42 34 11 42 34 11 41 33 12 37 31 11 41 33 13 40 33 12 42 34 11 41 33 10 40 32 11 42 34 9 34 28 11 34 28 10 33 27 11 34 28 10 33 27 10 33 25 8 34 25 11 34 26 12 35 27 11 34 28 7 34 27 10 33 27 11 34 28 
54 40 13 53 39 12 53 39 12 54 40 13 54 40 13 53 39 12 53 39 12 53 39 12 53 39 12 53 39 13 52 37 6 51 35 1 51 36 5 53 39 13 53 39 12 53 39 13 53 39 13 52 38 12 51 35 1 51 35 1 53 38 9 54 40 14 54 40 13 53 39 13 53 39 12 53 39 12 53 39 12 53 39 12 53 39 13 54 40 14 53 39 13 53 39 12 52 38 11 52 36 2 51 35 2 54 38 12 53 39 12 53 39 12 53 39 13 54 40 13 52 38 11 53 39 12 53 39 12 52 38 11 53 39 12 53 39 12 53 39 12 53 39 12 54 40 13 54 40 13 53 39 12 53 39 12 53 39 12 53 39 12 53 39 12 52 38 11 53 39 12 50 39 11 54 40 14 17 7 5 12 2 3 12 2 3 12 3 4 13 9 8 10 33 27 10 33 27 10 33 27 12 37 31 11 41 33 11 42 34 11 41 33 11 41 33 11 41 33 11 38 31 11 41 33 12 42 34 11 42 34 12 42 34 12 42 34 14 41 34 11 38 31 11 42 34 12 42 34 11 42 34 11 42 34 11 42 34 12 42 34 9 34 28 9 34 30 10 33 27 10 33 27 8 33 27 9 32 26 8 34 25 10 33 25 8 34 25 8 33 27 9 32 26 10 33 27 8 33 27 
53 39 12 53 39 12 53 39 12 52 38 11 53 39 12 53 39 12 53 39 12 53 39 12 53 39 12 53 39 12 52 37 4 51 35 1 51 36 5 53 39 13 53 39 12 53 39 13 53 39 12 52 38 11 52 36 3 52 36 3 52 38 11 54 40 14 54 40 13 53 39 12 53 39 12 54 40 13 53 39 12 53 39 12 53 39 12 53 39 12 53 39 12 53 39 13 52 38 11 51 35 2 52 36 2 53 39 12 53 39 12 53 39 13 53 39 12 53 39 12 53 39 12 53 39 12 53 39 12 54 40 13 53 39 12 52 38 11 54 40 13 53 39 12 53 39 12 53 39 12 52 38 11 53 39 12 53 39 12 54 40 13 54 40 13 53 39 12 54 40 13 51 40 12 54 40 13 20 11 6 13 3 4 13 3 4 12 3 4 13 7 7 10 33 27 10 33 27 10 33 27 12 37 31 11 41 33 12 42 34 10 41 33 11 42 34 11 41 33 10 37 30 10 40 32 11 41 33 11 42 34 11 41 33 12 42 34 10 41 33 13 38 32 11 41 33 12 42 34 11 41 33 11 41 33 10 41 33 11 42 34 10 35 29 9 34 28 7 34 27 9 34 28 8 33 27 9 34 28 7 34 27 9 34 28 7 32 26 10 33 27 10 33 27 8 33 27 8 34 25 
53 39 12 53 39 12 53 39 12 52 38 11 53 39 12 53 39 12 53 39 13 53 39 12 54 38 12 53 39 13 52 37 6 51 35 1 53 36 6 51 40 12 51 39 13 55 41 15 53 39 13 51 37 10 52 36 3 52 36 2 52 36 10 53 39 13 53 39 13 53 39 13 53 39 13 53 39 13 53 39 13 53 39 13 53 39 13 53 39 13 55 41 15 53 39 13 51 37 10 52 36 3 52 36 3 50 39 9 53 39 12 53 39 13 53 39 13 53 39 13 54 40 14 53 39 13 51 39 13 53 39 13 54 40 14 53 39 13 53 39 13 51 39 13 53 39 12 53 39 13 53 39 12 53 39 12 53 39 13 53 39 13 53 39 12 53 39 13 52 38 11 53 39 12 53 39 13 23 12 6 12 1 5 13 2 6 12 3 4 13 7 9 10 33 27 10 33 27 10 33 27 11 38 31 12 42 34 11 41 33 11 41 33 12 42 34 12 42 32 11 38 29 11 41 31 11 41 31 10 40 30 12 42 32 12 42 32 11 41 31 11 38 31 12 42 34 11 41 33 11 41 33 11 41 33 11 41 33 12 42 34 9 34 28 8 33 27 8 33 27 10 33 27 11 32 27 10 33 27 9 34 28 10 33 27 11 34 28 11 34 28 10 33 27 10 33 27 10 33 27 
53 39 12 53 39 12 53 39 13 53 39 12 53 39 13 53 39 12 53 39 12 53 39 12 53 39 12 54 38 12 52 37 4 51 35 2 52 35 5 51 40 12 53 39 12 52 38 11 50 39 11 52 38 9 52 36 3 52 36 3 53 38 9 53 39 12 53 39 12 53 39 12 53 39 13 53 39 13 53 39 13 53 39 13 53 39 13 53 39 13 53 39 13 53 39 13 52 38 11 51 35 2 51 35 2 52 38 11 53 39 12 52 38 11 52 38 11 53 39 12 50 38 12 53 39 13 52 38 12 53 39 13 53 39 13 51 39 13 53 39 13 52 38 12 53 39 13 53 39 12 54 38 13 53 39 13 54 40 13 51 40 12 53 39 13 53 39 12 51 40 12 54 40 13 52 38 11 28 18 8 14 2 4 13 3 4 12 1 7 11 5 7 9 32 26 10 33 27 10 33 27 11 38 31 10 40 32 12 42 34 10 40 32 11 41 33 12 42 34 11 38 31 11 41 33 11 41 33 12 42 34 12 42 34 11 41 33 11 41 33 11 38 31 11 41 33 12 42 34 13 43 35 11 41 33 12 42 34 12 42 34 9 34 28 9 34 28 7 34 27 9 34 28 8 33 27 10 33 27 10 33 27 10 33 27 8 33 27 10 33 27 10 33 27 10 33 27 10 33 27 
53 39 12 54 40 13 53 39 13 53 39 12 53 39 13 54 40 13 53 39 12 53 39 12 53 39 12 53 39 12 52 37 4 52 36 3 52 37 6 51 40 12 53 39 12 52 38 11 54 38 13 52 38 11 51 35 1 51 35 2 53 37 11 53 39 13 53 39 13 53 39 13 53 39 13 52 38 12 53 39 13 53 39 13 52 38 12 52 38 12 53 39 13 52 38 12 52 38 9 51 35 1 51 35 2 52 38 11 53 39 12 53 39 13 53 39 13 53 39 13 53 39 13 53 39 13 51 39 13 53 39 13 53 39 13 53 39 13 52 38 12 51 39 13 53 39 13 53 39 12 54 38 13 53 39 13 54 40 13 51 40 12 52 38 12 52 38 11 51 39 13 54 40 13 53 39 12 34 22 8 12 2 3 13 3 2 12 2 3 14 5 6 9 32 26 10 33 27 10 33 27 11 38 31 11 41 33 11 41 33 11 41 33 11 41 33 11 41 33 12 39 32 10 40 32 11 41 33 12 42 34 12 42 34 12 42 34 12 42 34 12 39 32 11 41 33 11 41 33 11 41 33 12 42 34 11 41 33 12 42 34 10 35 29 7 34 27 9 34 28 10 33 27 10 33 27 11 34 28 12 35 29 10 33 27 10 33 27 10 33 27 11 34 28 10 33 27 10 33 27 
53 39 13 52 38 12 53 39 12 53 39 12 53 39 12 53 39 12 52 38 12 53 39 13 53 39 12 53 39 12 52 37 4 51 35 2 51 36 5 50 38 12 53 39 13 53 39 13 50 38 12 52 38 12 51 35 1 51 35 2 52 38 11 52 38 12 53 39 13 53 39 13 53 39 13 53 39 13 52 38 12 53 39 13 53 39 13 53 39 13 52 38 12 53 39 13 53 37 11 52 36 3 52 36 3 52 36 10 53 39 12 54 40 14 53 39 13 53 39 12 54 40 14 51 37 11 53 39 13 53 39 13 52 38 12 53 39 13 53 39 13 53 39 13 52 38 11 52 38 12 53 39 12 52 38 11 54 40 14 53 39 13 53 39 12 53 39 13 53 39 13 54 38 12 53 39 12 36 24 10 13 3 4 13 3 4 13 3 4 13 7 7 10 31 26 10 33 27 8 33 27 11 38 31 11 41 33 11 41 33 11 41 33 11 41 33 12 42 34 11 38 31 11 41 33 11 41 33 11 41 33 11 41 33 12 42 34 12 42 34 10 37 30 11 41 33 11 41 33 12 42 34 12 42 34 11 41 33 11 41 33 9 34 28 10 33 27 10 33 27 8 33 27 8 33 27 10 33 27 11 34 28 8 33 27 8 33 27 10 33 27 11 34 28 10 33 27 10 33 27 
53 39 13 53 39 13 53 39 12 53 39 12 53 39 12 55 41 14 53 39 13 52 38 12 51 40 12 53 37 12 52 37 6 51 35 1 52 35 5 52 38 12 52 37 14 52 38 12 54 38 12 52 38 9 51 35 2 51 35 2 52 37 8 52 38 11 53 39 12 53 39 12 53 39 13 53 39 13 53 39 13 53 39 13 54 40 14 53 39 13 53 39 13 54 40 14 52 38 11 51 35 2 51 35 2 51 37 10 53 39 12 53 39 13 52 38 12 53 39 12 52 38 12 53 39 13 53 39 13 53 39 13 52 38 12 53 39 13 53 39 13 53 39 13 53 39 12 54 40 14 53 39 12 53 39 12 54 40 14 53 39 13 52 38 11 53 39 13 52 38 12 52 38 12 53 37 12 39 28 10 12 2 1 11 0 4 11 2 3 12 6 8 10 31 26 10 33 27 8 33 27 11 38 31 11 41 33 11 41 33 11 41 33 11 41 33 11 41 33 10 37 30 10 40 32 12 42 34 12 42 34 12 42 34 11 41 33 12 42 34 10 37 30 11 41 33 11 41 33 10 40 32 11 41 33 12 42 34 11 41 33 9 34 28 10 33 27 10 33 27 10 33 27 11 34 28 10 33 27 8 33 27 7 34 27 9 34 28 10 33 27 11 34 28 10 33 27 10 33 27 
53 39 12 53 39 12 53 39 13 51 37 11 52 38 12 52 38 12 53 39 12 53 39 13 52 41 13 52 38 12 52 37 4 50 35 2 52 36 3 53 39 12 53 39 12 53 39 12 51 39 13 52 38 11 51 35 2 52 36 2 53 37 11 53 39 13 53 39 13 52 38 12 52 38 12 53 39 13 53 39 13 52 38 12 53 39 13 53 39 13 53 39 13 53 39 13 53 38 9 51 35 1 51 35 2 53 37 11 53 39 12 52 38 12 53 39 13 52 38 12 54 40 14 52 38 12 52 38 12 52 38 12 54 40 14 52 38 12 53 39 13 52 38 12 53 39 13 53 39 12 53 39 13 51 39 13 53 39 12 52 38 11 53 39 13 51 40 12 53 39 12 53 38 15 53 39 13 42 30 8 14 4 3 12 2 3 12 4 2 12 3 4 10 29 25 11 34 28 8 33 27 11 38 31 11 41 33 11 41 33 12 42 34 11 41 33 12 42 32 10 37 28 10 40 30 11 41 31 11 41 31 11 41 31 12 42 32 12 42 32 10 37 30 11 41 33 11 41 33 11 41 33 12 42 34 11 41 33 11 41 33 9 34 28 11 34 28 11 34 28 10 35 29 10 35 29 8 33 27 10 33 27 10 33 27 10 33 27 10 33 27 11 34 28 10 33 27 10 33 27 
53 39 13 52 38 12 52 38 12 53 39 13 52 38 12 53 39 13 52 38 11 52 38 12 53 39 13 53 37 12 52 38 11 53 36 6 53 38 9 53 39 12 54 38 13 52 38 11 54 38 13 52 38 11 52 36 3 52 36 3 53 37 11 53 39 13 53 39 13 53 39 13 53 39 13 52 38 12 53 39 13 52 38 12 53 39 13 53 39 13 52 38 12 53 39 13 52 38 11 51 35 2 51 35 2 49 38 10 52 38 11 52 38 11 53 39 12 51 37 10 53 39 13 53 39 13 52 38 12 52 38 12 53 39 13 54 40 14 53 39 13 53 39 13 52 38 12 53 39 12 52 38 12 51 39 13 53 39 12 53 39 12 52 38 12 51 42 13 52 38 12 53 39 12 53 39 13 48 36 12 15 5 4 14 2 4 13 3 4 13 3 4 9 28 24 10 33 27 8 33 27 11 38 31 10 40 32 12 42 34 11 41 33 11 41 33 11 41 33 11 38 31 10 40 32 11 41 33 11 41 33 12 42 34 12 42 34 11 41 33 10 37 30 10 40 32 10 40 32 12 42 34 12 42 34 11 41 33 11 41 33 9 34 28 10 35 29 13 40 33 13 43 35 11 41 33 12 39 32 11 34 28 10 33 27 8 33 27 10 33 27 10 33 27 10 33 27 10 33 27 
52 38 12 52 38 12 53 39 12 52 37 14 52 38 11 53 39 13 52 38 12 52 38 12 51 39 13 53 39 13 51 39 13 53 39 13 51 39 13 52 38 11 52 38 12 52 38 11 53 39 13 52 38 9 52 36 3 52 36 3 53 38 9 53 39 13 53 39 12 53 39 13 53 39 13 53 39 13 53 39 13 53 39 13 52 38 12 53 39 13 53 39 13 52 38 12 53 39 12 52 36 3 51 35 2 50 39 9 53 39 12 53 39 13 53 39 13 52 38 12 52 38 12 52 38 12 53 39 13 53 39 13 53 39 13 52 38 12 52 38 12 52 38 12 51 40 12 53 39 13 53 39 12 52 41 13 51 39 13 53 39 13 52 38 11 51 39 13 51 37 11 53 39 12 53 39 12 54 40 13 19 8 6 11 2 3 13 3 4 12 2 3 9 28 24 10 33 27 8 33 27 11 38 31 11 41 33 11 41 33 12 42 34 11 41 33 12 42 34 11 38 31 10 40 32 12 42 34 11 41 33 11 41 33 13 43 35 11 41 33 10 37 30 11 41 33 11 41 33 11 41 33 12 42 34 11 41 33 10 40 32 9 34 28 11 41 33 12 42 34 10 41 33 11 42 34 10 41 33 11 38 31 8 33 27 10 33 27 11 34 28 10 33 27 10 33 27 10 33 27 
53 39 13 53 39 13 52 38 12 52 38 12 52 38 12 53 39 13 51 37 11 53 39 13 52 38 11 52 38 9 53 39 12 53 39 12 53 39 13 53 39 12 52 38 11 52 38 12 53 39 10 53 39 10 51 35 2 51 35 1 51 37 10 53 39 12 52 38 12 53 39 12 52 38 12 53 39 13 53 39 12 53 39 13 52 38 11 52 38 12 52 38 12 52 38 12 51 37 10 50 36 1 51 35 2 53 38 7 50 38 12 52 38 12 52 38 11 52 38 11 52 38 12 52 38 12 53 39 12 52 38 12 53 39 12 53 39 13 53 39 13 52 38 12 53 39 13 52 38 12 52 38 12 53 39 13 53 39 13 54 40 14 52 38 12 53 39 13 53 39 13 52 38 12 53 39 12 51 40 12 22 11 7 11 2 3 12 1 5 13 3 4 10 25 18 10 33 27 8 33 27 12 39 30 11 41 31 11 41 33 11 42 34 11 41 33 12 42 34 9 39 31 10 40 30 11 41 33 12 42 32 12 42 34 11 41 33 11 41 33 11 38 29 11 41 33 11 41 33 11 41 33 11 41 33 12 42 34 11 41 33 10 37 28 11 42 34 10 41 33 10 41 33 11 41 33 10 40 32 10 40 32 11 34 28 10 33 27 9 35 26 10 36 27 11 34 26 10 33 25 
53 39 13 52 38 12 53 39 13 52 38 12 52 38 11 52 38 12 53 39 13 52 38 12 53 39 12 53 39 12 52 38 12 52 38 11 52 38 12 52 38 11 52 38 12 53 39 12 52 38 12 50 39 11 51 35 2 51 35 1 51 37 10 53 39 12 50 38 12 53 39 12 53 39 13 53 39 13 53 39 13 53 39 13 53 39 13 52 38 11 53 39 13 53 39 13 51 37 10 51 35 2 51 35 2 53 39 12 52 38 12 53 39 12 52 38 12 53 39 12 52 38 11 52 38 12 53 39 13 53 39 13 53 39 12 53 39 12 52 38 12 54 40 14 52 38 12 53 39 13 52 38 12 53 39 13 52 38 12 53 39 13 52 38 12 53 39 13 52 38 12 52 38 12 53 39 13 53 39 13 25 15 6 11 2 3 13 3 4 12 2 3 9 24 19 10 33 27 10 33 27 11 38 29 11 41 31 11 41 33 11 41 33 11 41 33 11 41 33 9 39 31 11 41 31 11 41 33 11 41 31 11 41 33 11 41 33 12 42 34 11 38 31 11 41 33 11 41 33 11 41 33 12 42 34 12 42 34 10 40 32 9 36 29 10 40 32 11 41 33 11 41 33 11 41 33 11 41 33 10 40 32 8 33 27 10 37 30 11 41 31 11 41 31 13 40 31 9 36 27 
53 39 13 51 37 11 52 38 12 53 39 12 52 38 12 53 39 12 52 38 12 52 38 12 52 38 12 53 39 12 53 39 13 51 37 11 53 39 12 52 38 12 53 39 12 53 39 12 50 39 11 52 38 11 51 35 2 50 35 2 51 37 10 53 39 12 54 38 12 51 40 12 53 39 13 52 38 11 53 39 13 52 38 11 52 38 12 52 38 12 52 38 12 52 38 11 52 36 10 51 35 2 51 35 2 51 37 10 50 38 14 52 38 11 51 39 13 50 38 12 53 39 13 53 39 13 53 39 12 53 39 12 53 39 13 52 38 12 52 38 12 53 39 12 52 38 12 53 39 13 52 38 12 53 39 13 52 38 12 54 40 14 52 38 12 53 39 13 51 40 12 52 38 12 51 39 13 52 38 12 32 20 8 11 2 3 12 2 3 12 2 3 11 23 19 10 33 27 10 33 27 12 39 30 11 41 31 11 41 33 11 41 33 11 41 33 11 41 33 9 39 31 10 40 30 11 41 33 12 42 32 12 42 34 11 41 33 11 41 33 10 37 30 11 41 33 11 41 33 11 41 31 11 41 31 12 42 34 11 41 33 10 37 30 13 43 35 11 41 33 11 41 33 11 41 33 11 41 33 12 39 32 8 35 28 11 41 33 10 41 33 12 42 34 12 42 34 10 41 33 
52 38 12 52 38 12 52 38 11 52 38 12 53 39 12 52 38 12 53 39 12 52 38 12 53 39 13 52 38 12 52 38 12 52 38 12 53 39 12 52 38 12 52 38 12 52 38 11 52 38 11 52 38 12 52 37 8 51 36 7 52 38 11 53 39 13 52 38 12 52 38 12 52 38 11 52 38 12 53 39 13 53 39 13 52 38 12 53 39 12 52 38 12 53 39 13 52 38 11 51 35 2 51 35 2 52 38 11 53 39 12 53 39 13 52 38 12 52 38 11 52 38 12 53 39 13 52 38 12 53 39 12 52 38 12 52 38 11 51 37 11 53 39 13 52 38 12 52 38 12 53 39 13 53 39 13 53 39 13 52 38 12 52 38 12 51 37 11 52 38 11 51 37 11 51 39 13 53 39 13 37 26 8 11 2 3 12 2 3 13 3 4 11 20 17 8 34 25 10 33 27 11 38 31 10 42 31 10 41 33 11 41 33 11 41 33 11 41 33 9 39 31 10 40 30 11 41 33 11 41 31 11 41 33 11 41 33 11 41 33 10 37 30 11 41 33 12 42 34 11 41 33 12 42 34 12 42 34 11 41 33 9 36 29 12 42 34 11 41 33 10 41 33 11 41 33 13 40 33 9 39 31 13 38 32 10 41 33 11 41 33 11 41 33 11 41 33 10 41 33 
52 38 12 53 39 12 53 39 13 53 39 12 52 38 12 53 39 12 52 38 12 53 39 13 52 38 12 53 39 13 53 39 13 53 39 13 52 38 12 52 38 12 53 39 12 52 38 12 53 39 12 53 39 13 53 37 11 52 38 11 53 39 12 53 39 12 54 38 12 53 39 12 53 39 13 52 38 12 52 38 11 54 40 14 52 38 12 52 38 12 53 39 13 52 38 11 52 38 11 51 35 1 50 34 1 51 37 10 52 38 12 53 39 13 52 38 12 52 38 12 52 38 12 53 39 13 52 38 12 53 39 12 52 38 12 53 39 12 51 37 11 52 38 12 53 39 13 52 38 12 52 38 12 52 38 12 54 40 14 53 39 13 53 39 13 53 39 13 51 39 13 52 38 11 51 39 13 52 38 12 44 32 10 13 3 4 12 3 4 12 3 4 11 17 15 8 34 25 10 33 27 11 38 31 10 42 31 11 41 33 11 41 33 12 42 32 11 41 33 9 39 31 11 41 31 11 41 33 11 41 31 11 41 33 11 41 33 11 41 33 10 37 30 11 41 33 11 41 33 11 41 33 12 42 34 11 41 33 11 41 33 9 36 29 11 41 33 10 40 32 11 42 34 11 41 33 11 41 33 10 40 32 9 39 31 11 41 33 11 41 33 12 42 34 10 41 33 11 41 33 
53 39 13 52 38 12 52 38 11 53 39 13 51 37 10 52 38 12 53 39 13 52 38 12 52 38 12 52 38 12 52 38 11 52 38 12 53 39 13 51 37 11 53 39 10 51 36 13 53 39 12 52 38 11 53 39 12 53 37 12 53 39 12 53 39 12 53 39 12 53 39 12 54 40 13 53 39 13 52 38 12 53 39 13 53 39 12 52 38 12 53 39 12 52 38 12 53 37 11 51 34 4 51 35 2 53 37 11 53 39 13 52 38 12 53 39 12 52 38 12 52 38 12 53 39 13 53 39 12 54 40 13 52 38 12 51 37 11 52 38 12 53 39 12 52 38 12 52 38 12 53 39 13 53 39 13 53 39 13 52 38 12 52 38 12 52 38 12 53 39 13 52 38 12 52 38 12 52 38 12 47 35 11 12 3 4 12 2 3 12 3 4 11 13 12 10 33 25 10 33 27 11 38 31 11 41 33 11 41 33 11 42 34 11 41 31 11 41 33 9 39 31 10 40 30 11 41 33 11 41 31 11 41 33 11 41 33 10 40 32 10 37 28 11 41 33 10 40 32 11 41 33 11 41 33 11 41 33 10 40 32 10 37 28 12 42 34 11 41 33 10 41 33 11 41 33 11 41 33 10 40 32 8 38 30 11 41 33 11 41 33 11 41 33 12 42 34 11 41 33 
52 38 12 52 38 12 52 38 12 51 37 10 52 38 12 53 39 13 52 38 12 53 39 13 53 39 13 53 39 13 52 38 12 52 38 12 53 39 13 51 37 11 52 38 12 52 38 12 53 39 12 51 39 13 54 40 13 53 39 12 53 39 12 52 37 14 51 39 13 52 38 12 52 38 12 52 38 12 52 38 11 52 38 12 52 38 12 52 38 12 52 38 12 53 39 13 52 38 12 52 37 8 52 37 8 52 38 12 52 38 12 53 39 13 52 38 12 52 38 12 52 38 11 52 38 12 52 38 12 52 38 12 51 37 10 53 39 12 53 39 13 52 38 12 52 38 12 52 38 12 52 38 12 54 40 14 53 39 13 53 39 13 53 39 13 52 38 12 51 39 13 53 39 13 51 39 13 53 39 13 53 39 13 14 4 3 12 3 4 12 4 2 12 8 9 10 33 25 9 32 26 11 36 30 11 41 33 11 41 33 10 41 33 11 41 31 11 41 33 9 39 31 10 40 30 11 41 33 11 41 31 11 41 33 11 41 33 11 41 33 11 38 31 10 40 32 12 42 34 11 41 33 12 42 34 12 42 34 10 40 32 10 37 30 11 41 33 10 41 33 11 41 33 11 41 33 11 41 33 12 39 32 9 39 31 13 40 33 10 40 32 11 41 33 11 41 33 11 41 33 
53 39 13 52 38 12 53 39 13 52 38 12 52 38 12 52 38 12 53 39 13 54 40 14 52 38 12 53 39 13 52 38 12 52 38 12 52 38 11 52 38 12 52 38 12 52 38 11 52 38 12 50 38 12 51 39 13 49 37 11 52 38 12 52 38 12 51 39 13 53 39 13 54 40 14 52 38 12 52 38 12 53 39 12 53 39 13 53 39 12 52 38 12 52 38 12 52 38 12 52 38 12 53 39 13 53 39 13 52 38 12 51 37 11 52 38 12 51 37 11 53 39 13 53 39 13 53 39 12 52 38 12 52 38 11 53 39 13 55 41 15 53 39 13 52 38 12 52 38 12 52 38 12 53 39 13 53 39 13 53 39 13 53 39 13 52 38 12 52 38 11 50 39 11 51 37 11 52 38 11 54 38 12 19 9 7 13 3 4 12 3 4 12 6 8 10 33 25 10 33 27 12 37 31 11 41 33 11 41 33 11 41 33 11 41 31 10 40 32 9 39 31 10 40 30 11 41 33 11 41 31 11 41 33 11 41 33 11 41 33 10 37 30 11 41 33 11 41 33 11 41 31 10 40 30 11 41 33 11 41 33 10 37 30 12 42 34 11 41 33 11 41 33 10 40 32 10 40 32 11 38 31 9 39 31 12 42 34 11 41 33 11 41 33 11 41 33 10 40 32 
53 39 13 52 38 12 53 39 13 52 38 12 53 39 13 52 38 12 52 38 12 53 39 13 52 38 12 53 39 13 53 39 13 52 38 12 52 38 12 52 38 12 52 38 12 51 37 11 53 39 13 53 39 13 52 38 12 52 38 12 52 38 12 51 37 11 52 38 12 52 38 12 53 39 13 52 38 12 52 38 12 53 39 13 52 38 12 52 38 12 52 38 12 52 38 12 52 38 12 51 37 11 53 39 13 51 37 11 51 37 11 52 38 12 53 39 13 52 38 12 52 38 12 53 39 12 52 38 12 52 38 12 53 39 12 52 38 12 52 38 12 52 38 12 51 37 11 53 39 12 52 38 12 52 38 12 53 39 12 52 38 12 54 40 14 51 37 11 53 39 13 54 40 13 52 38 12 53 39 12 51 37 11 28 15 7 12 2 3 12 2 3 12 3 4 10 33 25 8 33 27 11 38 31 10 40 32 9 39 31 11 41 31 10 40 32 11 41 33 10 37 30 10 40 32 11 41 33 10 40 32 11 41 33 10 40 32 11 41 33 12 39 32 11 41 33 11 41 33 12 42 34 10 40 32 11 41 33 11 41 33 11 36 30 11 41 33 11 41 33 11 41 33 11 41 33 11 41 33 10 40 32 9 39 31 11 41 33 10 40 32 11 41 33 11 41 33 11 41 33 
53 39 13 52 38 12 52 38 12 52 38 12 52 38 12 52 38 12 52 38 12 53 39 13 52 38 12 52 38 12 52 38 12 52 38 12 52 38 12 52 38 12 51 37 11 52 38 12 52 38 12 52 38 12 52 38 12 53 39 13 54 40 14 52 38 12 51 37 11 51 37 11 52 38 12 52 38 12 52 38 12 53 39 13 52 38 12 52 38 12 53 39 13 53 39 13 53 39 13 53 39 13 53 39 13 52 38 12 51 37 11 51 37 11 53 39 13 52 38 12 52 38 12 51 37 10 52 38 12 52 38 11 53 39 13 53 39 13 52 38 12 52 37 14 52 38 12 52 38 12 53 39 13 53 39 12 53 39 13 52 38 12 51 37 10 52 38 12 52 38 12 52 38 12 49 37 11 51 40 12 52 38 12 35 23 9 13 3 4 13 3 4 12 2 3 10 31 24 11 34 28 11 38 31 11 41 33 11 41 33 11 41 31 11 41 33 10 40 32 10 37 30 12 39 32 11 41 33 10 40 32 11 41 33 12 42 34 12 42 34 10 37 30 11 41 33 11 41 33 11 41 33 11 41 33 11 41 33 11 41 33 11 36 30 10 40 32 11 41 33 10 40 32 11 41 33 11 41 33 10 40 32 9 39 31 11 41 33 10 40 30 11 41 33 11 41 33 11 41 31 
52 38 12 52 38 12 52 38 12 53 39 13 52 38 12 52 38 12 52 38 12 52 38 12 52 38 12 52 38 12 52 38 12 52 38 12 53 39 13 52 38 12 52 38 12 52 38 12 52 38 12 52 38 11 53 39 13 53 39 12 52 38 11 52 38 12 53 39 12 52 38 12 53 39 13 53 39 13 52 38 12 53 39 13 53 39 13 52 38 12 53 39 13 52 38 12 52 38 12 52 38 12 51 37 11 52 38 12 53 39 13 52 38 12 53 39 13 52 38 12 53 39 13 52 38 12 53 39 13 52 38 12 53 39 12 52 38 12 53 39 12 52 38 12 53 39 13 52 38 12 52 38 12 52 38 11 53 39 13 53 39 13 52 38 11 52 38 12 53 39 13 52 38 12 52 38 12 53 39 13 52 38 11 41 28 9 12 3 4 13 3 4 13 3 4 10 27 21 8 31 25 12 37 31 11 41 33 11 41 33 11 41 31 10 40 32 11 41 33 10 37 30 13 40 33 11 41 33 11 41 33 12 42 34 11 41 33 10 40 32 10 37 30 10 40 32 10 40 32 10 40 32 11 41 33 12 42 34 11 41 33 10 35 29 10 40 32 11 41 33 10 40 32 11 41 33 10 40 32 11 41 33 9 39 31 12 42 34 11 41 33 10 40 32 10 40 32 11 41 33 
51 37 11 52 38 12 52 38 12 52 38 12 53 39 13 53 39 13 51 37 11 53 39 13 53 39 13 53 39 13 53 39 13 52 38 12 52 38 12 52 38 12 52 38 12 52 38 12 51 37 10 52 38 12 54 40 13 52 38 12 52 38 12 52 38 11 52 38 12 53 39 12 53 39 13 53 39 13 52 38 12 52 38 12 53 39 13 52 38 12 51 37 11 53 39 13 52 38 12 52 38 12 52 38 12 52 38 12 52 38 12 52 38 12 52 38 12 52 38 12 53 39 13 52 38 12 52 38 12 52 38 11 52 38 12 52 38 12 53 39 12 52 38 12 52 38 12 53 39 12 52 38 12 52 38 12 52 38 11 53 39 13 53 39 13 52 38 12 50 38 12 53 39 13 50 38 12 54 40 14 52 38 11 46 34 10 12 3 4 12 3 4 13 3 4 12 24 20 9 32 26 10 37 30 11 41 33 11 41 33 12 42 34 11 41 31 11 41 33 10 37 30 11 38 31 11 41 33 11 41 33 10 40 32 10 40 32 10 40 32 10 37 30 11 41 33 11 41 33 11 41 33 10 40 32 11 41 33 11 41 33 11 36 30 11 41 33 11 41 33 11 41 33 11 41 33 11 41 33 10 40 32 10 40 32 11 41 33 12 42 34 11 41 31 10 40 30 11 41 33 
52 38 12 52 38 12 53 39 13 52 38 12 52 38 12 52 38 12 51 37 11 52 38 12 52 38 12 53 39 13 52 38 12 52 38 12 51 37 11 52 38 12 52 38 12 52 38 12 52 38 12 53 39 12 53 39 13 52 38 11 53 39 12 52 38 12 52 38 11 53 39 13 51 37 11 52 38 12 52 38 12 51 37 11 53 39 13 54 40 14 52 38 12 52 38 12 52 38 12 52 38 12 52 38 12 53 39 13 52 38 12 52 38 12 51 37 11 53 39 13 52 38 12 52 38 12 52 38 12 52 38 11 52 38 12 52 38 12 52 38 11 52 38 12 52 38 12 53 39 12 52 38 12 53 39 13 52 38 11 52 38 12 52 38 12 52 38 12 52 38 12 53 39 12 52 38 12 52 38 12 52 38 12 51 35 10 17 7 5 12 1 5 12 3 4 11 20 17 9 32 26 10 37 30 11 41 33 11 41 33 10 40 32 11 41 31 10 40 32 11 38 31 11 41 33 11 41 33 11 41 33 12 42 34 10 40 32 11 41 33 11 38 31 12 42 34 10 40 32 11 41 33 11 41 33 11 41 33 11 41 33 11 36 30 10 40 32 11 41 33 11 41 33 11 41 33 11 41 33 11 41 33 9 39 31 11 41 33 11 41 31 11 41 33 11 41 33 11 41 31 
52 38 12 52 38 12 52 38 12 51 37 11 52 38 12 52 38 12 52 38 12 51 37 11 52 38 12 52 38 12 52 38 12 51 37 11 53 39 13 52 38 12 52 38 12 53 39 13 53 39 12 52 38 12 53 39 12 53 39 13 52 38 12 52 38 11 52 38 12 52 38 11 52 38 12 52 38 12 52 38 12 52 38 12 52 38 12 52 38 12 52 38 12 52 38 12 52 38 12 52 38 12 52 38 12 52 38 12 52 38 12 52 38 12 52 38 12 53 39 13 52 38 11 52 38 12 53 39 12 52 38 12 52 38 12 52 38 12 52 38 12 53 39 13 53 39 13 51 37 11 52 38 12 52 38 11 53 39 13 52 38 12 52 38 11 52 38 12 50 40 13 53 39 12 52 38 12 51 37 11 51 37 11 52 38 12 24 11 5 12 1 5 12 3 4 11 17 15 9 32 26 11 38 31 10 40 32 10 40 32 11 41 33 11 41 31 11 41 33 12 37 31 11 41 33 10 40 32 11 41 33 11 41 33 10 40 32 12 42 34 10 37 30 11 41 33 11 41 33 11 41 33 11 41 33 10 40 32 11 41 33 11 36 30 11 41 33 12 42 34 11 41 33 11 41 33 11 41 33 10 40 32 9 39 31 10 40 32 11 41 33 11 41 33 11 41 33 11 41 33 
52 38 12 52 38 12 52 38 12 52 38 12 51 37 11 52 38 12 52 38 12 51 37 11 53 39 13 52 38 12 52 38 12 53 39 13 52 38 12 52 38 12 52 38 12 52 38 12 52 38 12 52 38 12 52 38 12 52 38 12 51 37 11 51 37 11 52 38 12 52 38 12 53 39 13 53 39 13 52 38 12 51 37 11 52 38 12 52 38 12 52 38 12 52 38 12 52 38 12 52 38 12 52 38 12 53 39 13 53 39 13 53 39 13 52 38 12 52 38 12 52 38 12 52 38 12 52 38 12 52 38 12 52 38 12 52 38 11 52 38 12 53 39 12 52 38 12 51 37 11 52 38 12 51 37 10 52 38 12 53 39 13 51 37 10 53 39 13 49 37 11 51 40 12 52 38 12 51 37 11 53 39 12 52 38 12 27 17 8 12 3 4 13 3 4 12 14 13 9 32 26 10 37 30 10 41 33 10 40 32 11 41 33 11 41 31 10 40 32 10 37 30 12 39 32 9 39 31 11 41 33 10 40 32 11 41 33 11 41 33 11 38 31 10 40 32 11 41 33 11 41 33 11 41 33 11 41 33 12 42 34 10 35 29 11 41 33 11 41 33 10 40 32 11 41 33 10 40 32 10 40 32 9 39 31 11 41 33 11 41 33 11 41 31 11 41 31 11 41 33 
52 38 12 53 39 13 52 38 12 52 38 12 51 37 11 53 39 13 52 38 12 53 39 13 51 37 11 52 38 12 52 38 12 52 38 12 53 39 13 52 38 12 52 38 12 52 38 12 52 38 12 52 38 12 52 38 12 53 39 13 54 40 14 52 38 12 52 38 12 52 38 12 52 38 12 52 38 12 52 38 12 52 38 12 53 39 13 53 39 13 52 38 12 52 38 12 52 38 12 52 38 12 52 38 12 52 38 12 52 38 12 52 38 12 52 38 12 52 38 12 53 39 13 52 38 12 53 39 12 52 37 14 53 39 13 52 38 11 52 37 14 52 38 11 52 38 12 52 38 11 52 38 12 51 37 11 53 39 12 52 38 12 51 37 11 52 38 12 52 38 12 53 39 13 52 38 11 52 38 12 52 38 12 51 40 12 32 22 10 12 3 4 12 2 3 11 11 11 11 32 27 12 37 31 11 41 33 10 40 32 11 40 35 11 41 31 11 41 33 11 38 31 13 40 33 11 41 33 10 40 32 10 40 32 11 41 33 12 42 34 10 37 30 11 41 33 10 40 32 10 40 32 10 40 32 10 40 32 11 41 33 10 35 29 10 40 32 11 41 33 11 41 33 11 41 33 12 42 34 10 40 32 9 39 31 11 41 33 10 40 32 10 40 32 11 41 33 11 41 33 
53 39 13 50 38 12 52 38 12 52 38 12 49 37 11 52 38 12 53 39 13 52 38 12 50 38 12 52 38 12 50 38 12 52 38 12 50 38 12 52 38 12 49 37 11 52 38 12 52 38 12 52 38 12 52 38 12 52 38 12 52 38 12 52 38 12 52 38 12 52 38 12 52 38 12 53 39 13 53 39 13 52 38 12 53 39 13 53 39 13 52 38 12 52 38 12 53 37 12 51 39 13 52 38 12 50 38 12 50 38 12 52 38 12 50 38 12 51 39 13 50 38 12 52 38 12 52 38 12 53 39 13 50 38 12 51 39 13 49 37 11 52 38 12 52 38 12 52 38 12 52 38 12 52 38 12 52 38 12 53 39 13 53 39 13 52 38 12 49 37 11 52 38 12 52 38 12 52 38 12 50 38 12 51 39 13 42 29 10 12 2 3 11 2 3 13 4 5 10 33 27 10 37 30 11 41 33 10 40 32 10 41 33 11 41 31 10 40 32 10 37 30 12 39 30 10 40 32 11 41 33 11 41 31 10 40 32 11 41 33 12 38 29 12 42 32 11 41 33 10 40 32 10 40 32 11 41 31 12 42 32 10 36 27 10 40 32 11 41 33 11 41 33 11 41 33 11 41 33 12 39 32 11 38 31 10 40 32 11 41 33 10 40 32 10 40 32 10 40 32 
52 38 12 50 38 12 52 38 12 52 38 12 50 38 12 52 38 12 52 38 12 52 38 12 51 37 11 50 38 12 52 38 12 49 37 11 52 38 12 50 38 12 52 38 12 50 38 12 52 38 12 52 38 12 52 38 12 52 38 12 52 38 12 51 37 11 52 38 12 52 38 12 51 37 11 52 38 12 52 38 12 52 38 12 52 38 12 53 39 13 53 39 13 52 38 12 51 39 13 52 38 12 50 38 12 52 38 12 50 38 12 49 37 11 52 38 12 52 38 12 53 39 13 50 38 12 49 37 11 50 38 12 52 38 12 52 38 12 52 38 12 51 39 13 52 38 12 52 38 12 53 39 13 51 37 11 53 39 13 51 37 11 52 38 12 52 38 12 52 38 12 51 39 13 53 39 12 52 38 12 50 39 11 52 38 12 47 35 11 15 5 6 11 2 3 12 3 4 10 33 27 10 37 30 11 41 33 10 40 32 10 40 32 11 41 31 11 41 33 10 37 30 12 39 30 11 41 33 11 41 33 11 41 31 11 41 33 10 40 32 10 37 28 10 40 32 12 42 32 11 41 33 10 40 30 11 41 33 11 41 31 8 35 26 11 41 33 10 40 32 12 42 34 11 41 33 12 42 34 10 40 32 10 37 30 11 41 33 11 41 33 11 41 33 11 41 33 11 41 33 
50 38 12 52 38 12 50 38 12 49 37 11 51 37 11 50 38 12 50 38 12 50 38 12 51 39 13 51 37 11 50 38 12 52 38 12 50 38 12 52 38 12 50 38 12 52 38 12 52 38 12 52 38 12 52 38 12 52 38 12 53 39 13 52 38 12 52 38 12 52 38 12 53 39 13 52 38 12 52 38 12 51 37 11 51 37 11 52 38 12 52 38 12 52 38 12 52 38 12 50 38 12 51 39 13 49 37 11 51 37 11 52 38 12 52 38 12 50 38 12 53 39 13 50 38 12 49 37 11 50 38 12 53 39 13 52 38 12 52 38 12 49 37 11 52 38 12 52 38 12 52 38 12 52 38 12 52 38 12 52 38 12 52 38 12 52 38 12 50 38 12 53 37 12 51 40 12 52 38 12 51 37 11 50 38 12 51 37 11 16 6 4 12 2 3 11 2 3 9 30 25 11 36 30 10 40 32 11 41 33 10 40 32 10 40 32 11 41 33 10 37 30 11 38 29 10 40 32 11 41 33 10 40 30 11 41 33 11 41 33 11 37 28 11 41 31 10 40 32 10 40 30 11 41 33 11 41 31 10 40 32 10 36 27 11 41 33 10 40 32 12 42 34 11 41 33 11 41 33 10 40 32 12 39 32 10 40 32 11 41 33 11 41 33 10 40 32 11 41 33 
50 38 12 52 38 12 50 38 12 50 38 12 52 38 12 50 38 12 50 38 12 50 38 12 52 38 12 51 39 13 52 38 12 50 38 12 52 38 12 50 38 12 52 38 12 50 38 12 51 37 11 52 38 12 53 39 13 51 37 11 52 38 12 52 38 12 51 37 11 52 38 12 53 39 13 52 38 12 52 38 12 52 38 12 51 37 11 52 38 12 53 39 13 52 38 12 52 38 12 49 37 11 52 38 12 50 38 12 49 37 11 51 37 11 49 37 11 52 38 12 50 38 12 52 38 12 51 37 11 52 38 12 50 38 12 50 38 12 50 38 12 52 38 12 51 37 11 52 38 12 52 38 12 51 37 11 52 38 12 52 38 12 52 38 12 52 38 12 53 39 13 52 38 12 53 39 12 53 39 13 51 36 13 52 38 12 53 39 13 23 12 6 12 2 3 12 3 4 10 27 21 11 36 30 10 40 32 11 41 33 10 40 32 10 40 32 10 40 32 11 38 31 12 39 30 10 40 32 11 41 33 11 41 31 11 41 33 11 41 33 10 37 28 11 41 31 11 41 31 10 40 32 11 41 33 10 40 32 11 41 31 10 37 28 10 40 32 11 41 33 11 41 33 10 40 32 11 41 33 12 39 32 12 39 32 10 40 32 10 40 32 11 41 33 10 40 32 10 40 32 
50 38 12 52 38 12 50 38 12 50 38 12 52 38 12 50 38 12 50 38 12 50 38 12 49 37 11 52 38 12 50 38 12 52 38 12 50 38 12 52 38 12 49 37 11 53 39 13 52 38 12 52 38 12 52 38 12 51 37 11 52 38 12 52 38 12 52 38 12 52 38 12 52 38 12 52 38 12 52 38 12 52 38 12 51 37 11 52 38 12 53 39 13 52 38 12 50 38 12 52 38 12 50 38 12 51 37 11 52 38 12 51 39 13 52 38 12 50 38 12 50 38 12 52 38 12 52 38 12 52 38 12 51 39 13 49 37 11 49 37 11 52 38 12 52 38 12 52 38 12 51 37 11 52 38 12 52 38 12 53 39 13 52 38 12 52 38 12 52 38 12 52 38 12 50 38 12 51 37 11 52 38 12 52 38 12 52 38 12 31 21 9 12 2 3 11 2 3 11 22 18 11 38 31 10 40 32 10 40 32 10 40 32 11 41 33 11 41 33 10 37 30 11 38 29 11 41 33 10 40 32 11 41 31 11 41 33 10 40 32 11 37 28 11 41 31 10 40 30 10 40 32 11 41 33 12 42 34 10 40 30 10 36 27 11 41 33 10 40 32 11 41 33 11 41 33 10 40 32 11 38 31 11 38 31 11 41 33 11 41 33 11 41 33 11 41 33 10 40 32 
49 37 11 51 37 11 50 38 12 50 38 12 51 37 11 50 38 12 50 38 12 48 36 10 52 38 12 51 39 13 51 37 11 49 37 11 52 38 12 51 39 13 52 38 12 49 37 11 52 38 12 52 38 12 53 39 13 51 37 11 52 38 12 52 38 12 52 38 12 52 38 12 52 38 12 52 38 12 52 38 12 51 37 11 52 38 12 52 38 12 51 37 11 52 38 12 52 38 12 48 36 10 50 38 12 50 38 12 52 38 12 52 38 12 52 38 12 50 38 12 52 38 12 50 38 12 49 37 11 50 38 12 52 38 12 52 38 12 52 38 12 50 38 12 52 38 12 51 37 11 52 38 12 52 38 12 52 38 12 51 37 11 52 38 12 52 38 12 52 38 12 52 38 12 50 38 14 52 38 12 51 37 11 52 38 12 52 38 12 38 26 10 13 3 2 13 3 4 12 18 14 10 37 30 11 41 33 10 40 32 10 40 32 11 41 33 11 41 33 10 37 30 12 39 30 11 41 33 10 40 32 11 41 31 11 41 33 11 41 33 10 37 28 10 40 30 11 41 33 12 42 32 10 40 32 11 41 31 11 41 33 9 36 27 11 41 33 10 40 32 10 40 32 10 40 32 10 40 32 10 40 32 11 38 31 10 40 32 11 41 33 12 42 34 10 40 32 10 40 32 
51 37 11 49 37 11 52 38 12 52 38 12 50 38 12 52 38 12 51 37 11 51 37 11 50 38 12 52 38 12 50 38 12 52 38 12 51 39 13 51 37 11 49 37 11 52 38 12 52 38 12 51 37 11 52 38 12 51 37 11 52 38 12 52 38 12 51 37 11 52 38 12 51 37 11 52 38 12 52 38 12 52 38 12 52 38 12 52 38 12 52 38 12 51 37 11 49 37 11 50 38 12 52 38 12 52 38 12 50 38 12 52 38 12 50 38 12 52 38 12 52 38 12 50 38 12 50 38 12 49 37 11 51 37 11 52 38 12 52 38 12 50 38 12 52 38 12 52 38 12 51 37 11 52 38 12 52 38 12 52 38 12 51 37 11 52 38 12 52 38 12 50 38 12 51 36 13 50 38 12 49 37 11 52 38 12 50 38 12 43 31 9 14 4 3 11 2 3 13 13 11 10 37 28 12 39 30 9 40 32 10 40 32 11 41 33 10 40 32 10 37 30 12 39 30 11 41 33 11 41 33 10 40 30 10 40 32 11 41 33 11 37 28 10 40 32 10 40 30 11 41 33 11 41 31 11 41 33 11 41 31 10 36 27 10 40 32 11 41 33 11 41 33 10 40 32 10 40 32 9 39 31 11 38 31 11 41 33 10 40 32 11 41 33 9 39 31 10 40 32 
51 37 11 49 37 11 52 38 12 52 38 12 49 37 11 52 38 12 52 38 12 51 37 11 51 37 11 49 37 11 52 38 12 49 37 11 52 38 12 49 37 11 53 39 13 49 37 11 52 38 12 51 37 11 52 38 12 53 39 13 52 38 12 52 38 12 51 37 11 52 38 12 52 38 12 52 38 12 52 38 12 52 38 12 52 38 12 52 38 12 52 38 12 52 38 12 51 37 11 52 38 12 49 37 11 52 38 12 52 38 12 51 39 13 51 37 11 48 38 11 50 38 12 51 37 11 52 38 12 51 37 11 50 38 12 50 38 12 50 38 12 51 37 11 51 37 11 51 37 11 51 37 11 52 38 12 51 37 11 52 38 12 52 38 12 52 38 12 52 38 12 50 38 12 50 39 11 50 38 12 50 38 12 52 38 12 50 39 11 47 35 11 16 6 4 11 2 3 11 10 8 10 37 28 10 40 30 11 41 33 10 40 32 10 40 32 10 40 32 11 38 31 12 39 30 10 40 32 11 41 33 10 40 30 11 41 33 11 41 33 9 36 27 10 40 30 10 40 32 11 41 33 10 40 32 11 41 31 10 40 30 9 36 27 11 41 33 11 41 33 11 41 33 10 40 32 11 41 33 11 38 31 11 38 31 11 41 33 10 40 32 11 41 33 12 42 34 10 40 32 
52 38 12 51 37 11 52 38 12 52 38 12 51 37 11 51 37 11 52 38 12 52 38 12 51 37 11 52 38 12 51 37 11 51 37 11 52 38 12 52 38 12 52 38 12 52 38 12 53 39 13 52 38 12 52 38 12 52 38 12 52 38 12 51 37 11 52 38 12 52 38 12 52 38 12 53 39 13 52 38 12 51 37 11 51 37 11 51 37 11 52 38 12 52 38 12 52 38 12 52 38 12 52 38 12 52 38 12 52 38 12 52 38 12 51 37 11 52 38 12 51 37 11 51 37 11 52 37 14 51 37 11 52 38 12 52 38 11 51 37 11 52 37 14 52 38 12 52 38 12 51 37 11 52 38 12 51 37 11 52 38 12 51 37 11 52 38 12 52 38 12 52 38 12 51 37 11 51 37 11 51 37 11 52 38 12 51 37 11 51 37 11 20 9 7 13 3 4 12 6 6 10 37 28 10 40 30 11 41 33 10 40 30 10 40 30 12 39 32 10 37 30 12 39 32 10 40 32 12 39 32 10 40 32 10 40 32 10 40 32 10 36 27 10 40 32 11 41 33 9 39 31 10 40 32 10 40 32 10 40 30 10 36 27 11 41 33 11 41 31 10 40 32 11 41 31 11 41 31 12 39 32 11 38 29 10 40 32 10 40 32 10 40 30 11 41 33 11 41 31 
52 38 12 52 38 12 52 38 12 51 37 11 52 38 12 52 38 12 52 38 12 51 37 11 52 38 12 51 37 11 52 38 12 51 37 11 51 37 11 52 38 12 52 38 12 51 37 11 51 37 11 52 38 12 52 38 12 51 37 11 52 38 12 52 38 12 52 38 12 52 38 12 52 38 12 52 38 12 52 38 12 52 38 12 51 37 11 52 38 12 52 38 12 52 38 12 52 38 12 51 37 11 52 38 12 51 37 11 52 38 12 51 37 11 51 37 11 52 38 12 52 38 11 52 38 12 52 38 12 51 37 11 51 37 11 51 37 11 51 37 11 52 38 12 52 38 12 51 37 11 52 38 12 52 38 12 52 38 12 52 38 12 51 37 11 52 38 12 52 38 12 52 38 12 51 37 11 52 38 12 51 37 11 52 38 12 51 37 11 53 39 13 23 12 6 12 2 1 12 6 6 9 36 27 10 40 30 11 41 33 10 40 30 12 39 30 10 40 32 10 37 30 10 40 32 11 41 33 10 40 32 10 40 32 11 41 33 11 41 33 11 37 28 10 40 32 10 40 32 11 41 33 10 40 32 10 40 32 11 41 31 10 36 27 11 41 31 11 41 33 12 39 30 11 41 33 10 40 32 10 40 30 11 38 31 11 41 31 10 40 32 10 40 30 11 41 33 10 40 30 
52 38 12 51 37 11 52 38 12 52 38 12 51 37 11 52 38 12 52 38 12 51 37 11 51 37 11 52 38 12 51 37 11 52 38 12 51 37 11 51 37 11 51 37 11 51 37 11 52 38 12 52 38 12 52 38 12 51 37 11 52 38 12 52 38 12 51 37 11 52 38 12 51 37 11 51 37 11 51 37 11 51 37 11 50 36 10 52 38 12 52 38 12 52 38 12 51 37 11 51 37 11 50 36 10 51 37 11 51 37 11 51 37 11 51 37 11 51 37 11 51 37 11 52 38 12 52 38 12 51 37 11 51 37 11 52 38 12 51 37 11 52 38 12 53 39 13 52 38 12 52 38 12 50 36 10 51 37 11 51 37 11 52 38 12 52 38 12 51 37 11 52 38 12 51 37 11 51 37 11 52 38 12 51 37 11 52 38 12 52 38 12 30 20 8 12 3 4 12 3 4 10 35 29 10 40 32 10 40 32 11 41 33 10 40 30 11 41 33 10 37 30 11 38 31 11 41 33 11 41 33 11 41 33 11 41 33 10 40 32 10 36 27 10 39 34 10 40 32 10 40 30 11 41 33 10 40 32 11 41 31 10 36 27 11 41 33 11 41 31 10 40 32 11 41 31 11 41 31 12 39 32 11 38 29 9 39 31 10 40 32 10 40 30 11 41 33 10 40 30 
52 38 12 51 37 11 51 37 11 51 37 11 51 37 11 52 38 12 52 38 12 51 37 11 50 36 10 51 37 11 53 39 13 51 37 11 52 38 12 52 38 12 52 38 12 52 38 12 52 38 12 52 38 12 51 37 11 52 38 12 51 37 11 51 37 11 51 37 11 51 37 11 52 38 12 52 38 12 52 38 12 52 38 12 52 38 12 52 38 12 51 37 11 52 38 12 51 37 11 52 38 12 53 39 13 52 38 12 51 37 11 52 38 12 53 39 13 52 38 12 51 36 13 51 37 11 52 38 12 52 38 12 52 38 12 52 38 12 50 36 10 52 38 12 52 38 12 53 39 13 51 37 11 51 37 11 51 37 11 51 37 11 51 37 11 52 38 12 51 37 11 52 38 12 52 38 12 51 37 11 51 37 11 51 37 11 52 38 12 52 38 12 40 29 11 14 4 5 12 3 4 11 34 26 11 41 33 10 40 32 11 41 31 11 41 31 10 40 32 10 37 30 11 38 31 10 40 32 10 40 32 10 40 32 10 40 32 10 40 32 11 37 28 10 40 32 10 40 30 10 40 30 11 41 33 10 40 32 11 41 31 10 35 29 10 40 32 11 41 31 12 39 32 11 41 31 10 40 30 10 40 32 10 37 28 11 41 33 11 41 33 10 40 30 10 40 32 11 41 31 
51 37 11 51 37 11 51 37 11 52 38 12 52 38 12 51 37 11 52 38 12 51 37 11 51 37 11 51 37 11 51 37 11 51 37 11 50 36 10 52 38 12 52 38 12 51 37 11 51 37 11 52 38 12 52 38 12 52 38 12 52 38 12 53 39 13 53 39 13 52 38 12 51 37 11 52 38 12 51 37 11 50 36 10 51 37 11 52 38 12 51 37 11 52 38 12 51 37 11 52 38 12 51 37 11 52 38 12 52 38 12 52 38 12 51 37 11 52 38 12 51 37 11 50 36 10 52 38 12 52 38 12 51 37 11 52 38 12 52 38 12 52 38 11 52 38 12 52 38 12 52 38 12 52 38 12 51 37 11 52 38 12 52 38 12 51 37 11 51 37 11 51 37 11 51 37 11 52 38 12 52 38 12 51 37 11 52 38 12 51 37 11 43 30 11 13 3 4 12 2 3 10 31 24 11 41 31 10 40 30 10 40 30 10 40 30 12 42 34 10 37 30 11 38 31 10 40 32 11 41 33 12 42 34 12 42 34 10 40 32 11 37 28 10 40 32 10 40 30 10 40 30 11 41 33 10 40 32 11 41 31 10 35 29 11 41 31 11 41 33 12 39 30 10 40 32 11 41 33 9 39 29 10 37 30 10 40 30 11 41 33 9 39 29 10 40 32 11 41 31 
50 36 10 53 39 13 52 38 12 52 38 12 51 37 11 52 38 12 52 38 12 52 38 12 52 38 12 51 37 11 51 37 11 51 37 11 51 37 11 51 37 11 51 37 11 51 37 11 51 37 11 52 38 12 51 37 11 51 37 11 52 38 12 52 38 12 51 37 11 51 37 11 51 37 11 50 36 10 51 37 11 52 38 12 52 38 12 52 38 12 52 38 12 52 38 12 51 37 11 52 38 12 51 37 11 52 38 12 51 37 11 52 38 12 52 38 12 51 37 11 52 38 12 52 38 12 52 38 12 51 37 11 52 38 12 51 37 11 51 37 11 51 37 11 51 37 11 52 38 12 51 37 11 52 38 12 51 37 11 52 38 12 52 38 12 52 38 12 52 38 12 51 37 11 50 36 10 52 38 12 52 38 12 51 37 11 52 38 12 51 37 11 46 34 12 13 3 4 12 2 3 12 29 23 10 40 30 10 40 30 10 40 32 9 41 30 10 40 32 10 37 30 12 39 32 11 41 33 10 40 32 10 40 32 11 41 33 11 41 33 10 35 29 10 40 32 10 40 30 10 40 30 11 41 33 10 40 30 11 41 29 10 35 29 10 40 30 10 40 32 10 40 30 11 41 33 11 41 33 12 39 30 10 37 30 10 40 30 10 40 32 11 41 31 10 40 32 10 40 30 
52 38 12 52 38 12 52 38 12 52 38 12 51 37 11 52 38 12 52 38 12 52 38 12 51 37 11 51 37 11 52 38 12 52 38 12 51 37 11 52 38 12 52 38 12 52 38 12 51 37 11 52 38 12 51 37 11 51 37 11 52 38 12 51 37 11 51 37 11 51 37 11 52 38 12 51 37 11 52 38 12 52 38 12 52 38 12 52 38 12 52 38 12 52 38 12 52 38 12 51 37 11 52 38 12 51 37 11 52 38 12 52 38 12 52 38 12 51 37 11 51 36 13 52 38 12 51 37 11 51 37 11 52 38 12 52 38 12 52 38 12 51 36 13 52 38 12 52 38 12 51 37 11 52 38 12 52 38 12 51 37 11 51 37 11 51 37 11 52 38 12 51 37 11 52 38 12 52 38 12 52 38 12 51 37 11 52 38 12 52 38 12 49 39 12 14 4 3 12 3 4 12 29 21 11 41 33 11 41 33 10 40 30 11 41 33 12 39 32 10 37 30 11 38 31 10 40 32 12 39 32 10 40 32 10 40 32 10 40 32 11 36 30 10 40 32 10 40 30 11 41 31 10 40 30 10 40 30 11 41 31 10 35 29 11 41 33 11 41 31 12 39 32 10 40 30 11 41 31 9 39 31 11 38 29 10 40 32 10 40 32 11 41 31 11 41 33 11 41 31 
52 38 12 52 38 12 53 39 13 51 37 11 52 38 12 51 37 11 51 37 11 52 38 12 51 37 11 51 37 11 52 38 12 51 37 11 51 37 11 51 37 11 52 38 12 51 37 11 51 37 11 51 37 11 52 38 12 51 37 11 52 38 12 53 39 13 52 38 12 51 37 11 52 38 12 51 37 11 52 38 12 51 37 11 53 39 13 52 38 12 51 37 11 52 38 12 52 38 12 51 37 11 52 38 12 51 37 11 51 37 11 51 37 11 52 38 12 51 37 11 52 38 12 51 37 11 51 37 11 52 38 12 52 38 12 52 38 12 52 38 12 51 37 11 51 37 11 51 37 11 51 37 11 52 38 12 52 38 12 52 38 12 52 38 12 52 38 12 52 38 12 52 38 12 51 37 11 51 37 11 51 37 11 51 37 11 51 37 11 52 38 12 50 38 12 17 7 6 11 2 5 12 27 22 13 40 33 13 40 33 12 39 32 10 40 30 10 40 32 10 37 30 10 40 32 11 41 33 10 40 32 10 40 32 10 41 33 11 41 33 10 35 29 10 40 32 11 41 31 9 39 29 10 40 30 10 40 30 10 40 30 10 35 29 10 40 30 11 41 33 10 40 30 10 40 32 11 41 33 12 39 30 10 37 30 10 40 30 10 40 32 10 40 30 11 41 33 11 41 31 
