P3
100 50
255
60 1 5 63 1 4 62 0 3 61 1 3 46 1 6 63 1 4 64 2 3 65 1 2 57 2 5 44 2 6 45 2 9 44 2 6 44 2 6 44 2 6 44 2 6 45 3 7 45 3 7 43 2 6 45 3 7 44 2 6 46 1 6 65 1 1 63 1 2 63 1 2 57 2 5 45 3 7 45 3 7 44 2 6 44 2 6 44 3 7 45 3 7 57 2 5 64 0 1 63 1 2 63 1 2 45 3 5 44 2 4 45 3 5 44 2 6 44 2 6 45 3 5 45 3 7 44 2 4 52 2 3 64 2 3 63 1 6 65 0 4 62 0 1 64 2 3 63 1 2 48 3 6 44 2 6 44 2 6 44 2 6 44 2 6 45 3 7 45 3 7 45 3 7 43 2 6 44 2 6 45 3 7 43 2 6 55 3 7 66 2 3 65 0 4 65 0 4 49 2 8 43 2 6 44 2 6 45 3 5 45 3 5 44 2 4 44 2 6 44 2 6 44 2 6 44 2 6 44 2 6 44 2 6 44 2 6 44 2 6 46 1 6 45 3 7 44 2 6 44 2 6 41 1 9 33 1 14 33 1 14 33 1 14 40 0 8 44 2 6 44 2 6 60 1 5 66 2 3 63 2 1 66 2 3 63 1 4 63 1 2 63 1 2 63 1 2 65 1 2 
60 1 3 63 1 2 63 3 3 63 1 4 44 2 6 62 1 6 64 2 5 66 2 3 58 2 5 45 3 7 45 3 7 46 1 4 46 1 6 44 2 6 44 2 4 44 2 6 44 2 6 44 2 6 45 3 7 48 1 7 44 2 4 63 1 4 65 1 2 63 1 2 56 1 4 43 2 6 45 3 7 44 2 6 44 2 6 45 3 7 44 2 6 57 2 5 62 2 4 65 0 4 63 1 4 45 0 7 44 2 6 47 2 7 44 3 7 44 2 6 44 2 6 45 3 7 44 2 6 53 3 6 66 2 3 63 1 4 66 0 2 63 1 4 63 1 2 64 2 3 48 2 5 44 2 6 44 2 6 44 2 6 44 2 6 45 3 7 45 3 7 45 3 7 43 2 6 44 2 6 44 2 6 46 4 6 53 3 6 66 1 5 62 0 1 63 1 2 49 3 6 44 2 6 45 2 9 45 3 7 45 3 7 45 3 5 44 2 6 44 2 6 44 2 6 44 2 6 44 2 6 44 2 6 44 2 6 44 2 6 46 1 6 45 3 7 44 2 6 44 2 6 40 0 9 33 1 14 32 0 13 32 2 14 41 1 9 44 2 6 45 3 7 62 2 4 66 2 3 64 2 3 66 1 5 66 1 5 65 1 2 63 1 2 63 1 2 63 1 2 
61 2 6 66 2 3 66 2 3 61 2 4 44 2 6 63 1 4 66 0 4 64 2 3 58 2 3 44 2 6 44 2 6 43 1 5 44 2 6 44 2 6 45 3 7 44 2 6 44 2 6 45 3 7 44 2 6 44 2 6 44 2 6 63 1 4 64 2 3 63 1 4 57 2 5 44 2 6 44 2 6 44 2 6 44 2 6 44 2 6 45 3 7 56 1 4 63 1 2 63 1 2 63 1 4 47 2 7 44 2 6 44 2 6 44 2 6 44 2 6 47 2 5 45 3 7 44 2 6 53 3 6 66 1 5 66 2 3 63 1 2 63 1 4 63 1 2 64 2 3 47 2 7 45 3 7 46 1 4 44 2 4 44 2 6 44 2 6 45 3 7 45 3 7 46 4 8 44 2 6 43 2 6 44 2 6 56 1 4 65 1 2 65 1 2 66 1 5 48 2 5 44 1 8 44 2 6 45 3 7 45 3 7 48 2 5 43 3 4 44 2 6 44 2 6 47 2 7 44 2 6 47 2 7 44 2 4 44 2 4 45 3 7 45 3 7 44 2 6 46 1 6 38 1 9 33 1 12 32 0 13 32 0 13 42 3 8 44 2 6 45 3 5 62 2 4 63 1 2 63 1 2 64 2 3 63 1 2 64 2 3 63 1 2 64 2 3 63 1 2 
59 0 4 63 1 2 65 1 2 61 2 4 46 4 8 63 1 4 66 1 5 64 2 3 58 2 3 45 3 7 44 2 6 45 3 7 45 3 7 44 2 6 45 3 7 44 2 6 46 1 6 45 3 7 45 3 7 45 3 7 45 3 7 66 1 5 64 2 3 64 2 5 56 1 4 44 2 6 45 3 7 44 2 6 46 1 6 44 2 6 43 1 5 57 2 5 64 2 3 63 1 2 63 1 4 46 1 6 45 3 7 43 2 6 44 2 6 44 2 6 43 1 5 44 1 8 46 1 6 53 3 4 63 1 2 65 1 2 64 2 3 66 2 2 63 1 4 64 2 5 47 2 5 44 3 7 44 2 6 44 2 6 45 3 7 44 2 6 44 2 6 44 2 6 44 2 6 44 2 6 44 2 6 44 2 6 57 2 5 65 1 2 63 1 4 65 1 2 48 2 5 44 1 8 44 2 6 44 2 6 56 1 4 65 1 2 61 2 6 47 2 7 43 1 5 44 2 6 43 2 6 44 2 6 44 2 6 45 3 7 44 2 6 45 3 7 44 2 6 46 1 6 38 1 9 32 0 11 32 0 13 32 0 13 41 0 6 44 2 6 47 2 5 63 1 4 63 1 2 63 1 2 64 2 3 65 3 4 66 2 3 65 1 2 66 2 3 66 2 3 
61 2 6 64 2 3 64 2 3 61 2 4 44 2 6 61 1 3 66 1 5 63 1 2 58 2 3 44 2 6 45 3 7 45 3 7 44 2 6 43 2 6 44 2 6 45 3 7 45 3 7 44 2 6 44 2 6 44 2 6 44 2 6 63 1 4 63 1 2 65 0 4 56 1 4 44 2 6 44 3 7 45 3 7 44 2 6 46 1 6 45 3 7 57 2 5 63 1 2 64 2 3 63 1 4 47 2 7 44 2 6 44 2 6 44 2 6 44 2 6 44 1 8 44 2 6 45 3 7 54 2 6 65 1 2 63 1 2 63 1 2 66 2 3 64 2 5 64 2 5 48 3 6 44 2 6 44 2 6 45 3 5 44 2 6 45 3 5 44 2 6 45 0 5 46 1 6 45 3 7 45 3 7 45 3 7 56 1 4 63 1 2 66 2 3 65 1 2 50 1 5 44 2 6 44 2 6 50 1 7 65 0 4 63 3 3 63 1 2 52 2 5 44 2 6 45 3 7 46 1 4 44 2 6 44 2 6 44 2 6 44 2 4 44 2 6 44 2 6 44 2 6 36 0 10 34 2 15 32 0 11 33 1 14 44 1 8 45 3 7 47 2 5 63 1 4 63 1 2 63 1 4 65 0 4 63 1 2 63 1 2 63 1 2 64 2 3 65 3 4 
60 1 5 63 1 2 63 1 2 60 1 3 45 3 7 62 2 4 63 1 4 65 3 4 58 2 3 44 2 6 46 1 6 44 2 6 44 2 6 44 2 6 44 2 6 45 3 7 45 3 7 44 2 6 43 2 6 44 2 6 44 2 6 63 1 4 66 2 3 64 2 5 57 2 5 45 0 5 44 3 7 45 3 7 45 3 7 44 2 6 44 2 6 57 2 5 64 2 3 63 1 2 62 0 3 45 3 7 47 2 7 44 2 6 44 2 6 44 2 6 45 2 12 44 2 6 45 3 7 53 3 6 65 0 4 64 2 3 65 1 2 65 1 2 67 1 3 66 1 5 47 2 7 44 2 6 46 1 6 45 3 7 44 3 7 44 2 6 45 3 7 44 2 6 44 2 6 46 1 6 44 2 6 44 2 6 57 2 5 64 2 3 65 3 4 63 1 2 48 2 5 44 1 8 44 2 4 51 2 6 66 1 7 64 2 5 63 1 2 54 2 6 44 2 6 44 2 6 44 2 6 45 3 7 44 2 6 46 1 6 44 2 6 44 2 6 44 2 6 44 2 6 36 0 10 32 0 13 34 2 13 33 1 12 45 3 7 44 2 6 49 3 6 63 1 2 63 1 2 64 2 5 63 1 4 63 1 2 64 2 3 63 1 2 63 1 2 65 3 4 
60 1 5 63 1 2 64 2 3 61 1 3 45 3 7 62 2 4 64 2 5 63 1 2 58 2 3 44 2 6 44 2 6 45 3 7 45 3 7 44 2 6 44 2 6 43 2 6 44 2 6 44 2 6 44 2 6 44 3 7 48 3 8 66 1 5 66 0 2 63 1 4 57 2 5 43 1 5 44 2 6 45 3 7 44 3 7 44 2 6 44 2 6 58 2 5 63 1 2 65 1 2 63 1 4 46 1 6 44 2 6 44 2 6 45 3 7 44 2 6 44 3 9 45 3 7 45 3 7 52 2 3 63 1 2 64 2 5 66 1 5 64 2 5 63 1 2 63 1 4 47 2 5 44 2 6 44 2 4 44 2 6 45 3 7 44 2 6 46 1 6 44 2 6 44 2 6 44 2 6 43 2 6 43 1 5 56 1 4 65 1 2 64 2 3 65 0 4 48 2 5 44 3 7 44 2 6 51 2 6 63 1 2 66 2 3 66 1 5 53 1 5 43 2 6 45 3 7 43 2 6 44 2 6 44 2 6 45 3 7 45 3 7 44 2 6 44 2 6 44 2 6 35 2 11 33 1 14 32 0 11 31 1 11 45 3 5 46 1 6 52 3 7 65 1 2 65 1 2 63 1 2 63 1 4 64 2 3 63 1 2 62 0 1 64 2 3 63 1 2 
60 1 5 63 1 2 64 2 3 62 2 4 44 2 6 61 1 3 64 2 5 64 2 3 61 2 4 44 2 6 44 2 6 44 2 6 45 3 7 45 3 7 44 2 6 44 2 6 46 1 6 45 3 7 47 2 7 42 3 6 44 2 6 65 0 4 63 1 2 64 2 5 57 2 5 46 1 6 43 2 6 45 3 7 45 3 7 44 2 6 45 3 7 57 1 4 64 2 3 64 2 3 63 1 4 45 3 7 44 2 6 43 1 5 43 1 5 43 1 5 45 3 7 44 2 6 44 2 6 53 1 5 62 0 3 65 1 2 64 2 3 64 2 5 66 2 3 65 0 4 47 2 5 44 2 6 46 1 6 44 2 6 45 3 5 45 3 7 47 2 7 45 3 7 46 4 8 44 2 6 44 2 6 44 2 6 55 3 5 65 1 2 65 1 2 66 2 3 48 2 5 44 3 7 43 2 6 51 2 6 62 0 1 65 1 2 65 1 2 52 2 5 44 2 6 46 4 8 44 2 6 44 2 6 43 2 6 44 2 6 44 2 6 45 3 7 45 3 7 45 3 5 34 1 12 33 1 14 31 0 10 33 1 12 44 2 6 45 3 7 51 2 6 67 3 4 65 1 2 65 1 2 63 1 4 63 1 2 64 2 3 62 0 1 63 1 2 63 1 2 
60 1 5 64 2 3 64 2 3 62 2 4 44 2 6 62 0 3 63 1 4 63 1 2 58 2 3 45 3 7 44 2 6 44 2 6 44 2 6 44 2 6 45 3 7 45 3 7 45 0 5 43 2 6 47 2 7 43 2 6 44 2 6 63 1 4 64 2 3 63 1 4 56 1 4 44 2 6 45 3 7 44 2 6 44 2 6 44 2 6 44 2 6 57 2 5 63 1 2 63 1 2 62 2 4 46 1 6 44 2 6 44 2 6 44 2 6 44 2 6 44 2 4 46 1 6 44 2 6 52 2 5 63 1 4 66 2 3 65 0 4 62 2 4 63 1 4 58 2 3 44 2 4 45 3 7 43 1 5 44 2 6 45 3 7 45 3 7 44 2 6 44 2 6 44 2 6 44 2 6 44 2 6 44 2 6 57 2 5 66 2 3 63 1 2 63 2 1 48 2 5 44 2 6 44 2 6 51 2 6 64 2 5 63 3 5 65 0 4 53 3 6 43 2 6 44 2 6 46 1 6 47 2 7 44 2 6 43 2 6 44 2 6 44 2 6 45 3 7 44 2 6 34 1 12 32 0 13 32 0 11 34 1 10 44 2 6 43 1 5 52 2 5 64 3 2 64 2 5 64 2 3 64 2 3 63 1 2 66 2 3 66 2 3 65 1 2 66 2 3 
60 1 5 63 1 2 63 1 2 61 1 3 45 3 7 62 2 4 63 1 4 63 1 2 56 2 2 45 3 7 44 2 6 45 3 7 44 2 6 44 2 6 44 2 6 44 2 6 44 3 7 45 3 7 46 1 6 47 2 7 46 1 6 60 1 3 64 2 3 66 1 5 53 3 4 44 2 6 45 3 7 46 1 6 43 1 5 45 3 7 45 3 7 57 1 4 63 1 2 63 1 2 63 1 4 47 2 7 44 2 6 44 2 6 44 2 6 44 2 6 44 2 6 46 4 8 45 3 7 52 2 5 62 0 1 66 2 2 65 0 4 48 3 6 48 3 8 47 2 7 44 2 6 44 2 6 45 3 7 44 1 8 44 2 6 44 2 6 44 2 6 44 2 6 44 2 6 46 1 6 44 2 6 45 3 7 57 2 5 66 2 3 64 2 3 63 1 2 48 2 5 45 3 7 45 3 7 49 3 6 65 0 4 64 3 2 64 2 5 52 3 6 44 2 4 44 2 6 44 2 6 45 3 5 44 4 5 47 2 7 45 3 7 45 3 7 44 2 6 43 1 5 34 1 12 33 1 14 32 0 11 36 1 8 44 1 8 46 4 8 53 3 6 64 2 3 63 1 6 65 1 2 65 1 2 65 3 6 63 1 2 63 1 2 63 1 2 63 1 2 
59 3 6 63 1 4 63 1 2 61 3 2 44 2 6 53 3 6 62 2 2 63 1 6 47 2 7 44 2 6 43 2 6 47 2 7 46 1 4 48 2 5 52 2 5 54 2 4 58 2 5 61 0 5 63 1 4 61 1 1 60 0 2 60 1 5 61 0 5 58 2 5 57 0 7 60 1 5 60 1 5 60 1 5 64 2 5 59 3 4 54 2 4 60 1 3 63 1 2 64 2 5 63 3 5 44 2 6 43 3 4 44 2 6 45 3 7 44 2 6 44 2 6 44 2 6 44 2 6 53 3 6 63 1 4 65 1 2 65 1 2 49 3 5 44 2 6 44 2 6 46 1 6 44 2 6 44 2 6 44 2 6 44 2 6 44 2 6 43 2 6 44 2 6 44 2 6 44 2 6 44 2 6 44 2 6 54 4 5 65 0 4 63 1 4 62 0 1 48 2 5 43 2 6 44 2 6 49 3 6 63 2 1 65 1 2 66 2 3 53 3 6 44 2 6 43 1 5 44 2 6 43 2 6 43 2 6 44 2 6 45 3 7 44 2 6 45 3 7 44 2 6 33 0 11 33 1 14 32 0 13 33 2 10 44 2 6 44 2 6 52 2 5 65 3 4 63 1 2 63 1 4 63 1 4 64 2 3 66 2 3 64 2 3 63 1 2 64 2 5 
52 2 5 63 1 2 62 2 2 54 4 7 44 3 7 50 1 5 54 2 6 56 1 4 57 2 5 61 2 4 62 2 4 62 2 4 62 2 4 57 1 4 52 1 6 48 1 7 46 1 8 41 1 10 39 1 12 36 0 12 36 0 12 35 2 13 31 0 10 33 0 11 35 2 13 33 1 12 33 1 12 36 0 12 36 0 10 41 1 10 44 1 10 53 2 9 61 2 4 65 1 2 63 1 2 45 3 7 46 1 6 43 2 6 43 2 6 44 2 6 44 2 6 45 3 7 45 3 7 53 3 6 63 1 2 65 1 2 65 1 2 48 2 5 44 2 6 44 2 6 44 2 6 46 1 6 44 2 6 44 2 6 44 2 6 44 2 6 44 2 6 44 2 6 44 2 6 44 2 6 44 2 6 45 3 7 54 2 6 66 2 3 62 2 4 66 1 5 48 1 7 44 2 6 45 3 7 51 2 6 63 1 2 65 1 2 64 2 3 52 2 5 44 2 6 44 2 6 43 1 5 44 2 6 44 2 6 46 1 6 44 3 7 44 2 6 44 2 6 44 2 6 34 1 12 31 1 13 31 1 13 34 1 10 44 2 6 44 2 6 54 2 6 64 2 3 63 1 2 64 2 5 64 2 5 63 1 2 67 3 4 64 2 5 63 1 2 64 2 5 
59 0 2 63 1 2 62 0 1 63 1 4 63 1 4 62 2 4 57 0 6 54 1 7 50 1 7 43 0 9 38 1 9 35 2 11 30 0 10 32 0 13 33 1 12 33 1 14 32 0 13 32 0 13 33 1 12 32 2 12 31 1 11 32 0 11 33 1 12 32 2 12 32 0 13 31 1 11 32 2 12 33 1 12 33 1 12 32 0 13 31 1 11 32 1 9 33 1 12 41 1 10 56 1 7 62 2 4 54 2 4 46 1 6 44 2 6 43 2 6 43 2 6 44 2 6 44 1 8 49 3 6 64 2 3 66 1 5 62 2 4 48 1 7 44 2 6 44 2 6 44 2 6 44 2 6 44 2 6 44 2 6 44 2 6 44 2 6 43 2 6 45 3 7 44 2 6 44 2 6 44 2 6 45 3 7 53 1 5 63 1 2 63 3 3 62 1 6 47 2 7 45 3 7 42 3 6 49 3 6 64 2 3 63 1 2 64 2 3 53 3 6 44 2 6 44 2 6 44 2 6 44 2 6 44 2 6 44 2 6 44 2 6 44 2 6 44 2 6 44 2 6 33 1 12 33 1 14 32 0 13 34 1 10 44 2 6 44 2 6 54 2 6 64 2 3 64 2 3 63 1 4 64 2 3 63 1 2 62 2 4 63 3 5 63 1 4 64 2 5 
44 1 8 43 0 9 42 1 9 38 0 11 36 0 12 32 0 13 32 0 11 32 0 13 32 0 13 33 1 12 32 0 11 31 0 12 33 1 14 33 1 14 32 0 13 33 1 12 32 1 9 32 0 11 32 0 13 32 2 14 33 1 14 33 0 13 32 0 11 31 1 11 32 2 12 32 2 12 32 2 14 32 2 14 31 1 13 32 0 13 32 0 13 32 2 14 33 3 15 31 1 9 33 1 12 40 0 9 53 0 6 60 1 5 51 2 5 44 2 6 43 2 6 44 2 4 44 2 6 45 3 7 51 2 6 54 2 6 47 2 5 44 2 6 44 2 6 44 2 6 44 2 6 44 2 6 44 2 6 44 2 6 44 2 6 44 2 6 44 2 4 44 3 7 44 2 6 44 2 6 43 2 6 44 2 6 48 2 5 62 0 3 62 0 1 58 2 5 44 2 4 44 2 6 47 2 7 48 2 5 65 3 4 64 0 1 63 1 2 52 2 5 44 2 6 44 2 6 44 2 6 45 3 7 44 2 6 46 1 6 44 2 6 47 2 7 44 2 6 45 3 7 33 1 12 33 1 14 32 0 13 34 1 10 44 2 6 43 1 5 56 1 4 63 1 2 64 2 3 63 1 4 63 1 2 63 1 2 66 2 3 65 1 2 63 1 4 63 1 2 
31 1 13 32 2 12 34 1 12 32 0 13 33 1 12 32 0 13 32 0 13 32 0 13 32 0 13 33 1 14 33 1 14 32 2 14 32 2 14 32 0 13 32 0 11 32 0 13 33 1 12 32 2 12 31 1 13 32 0 13 33 0 11 32 0 11 32 0 11 33 1 12 32 0 11 32 0 11 29 2 11 32 0 13 32 0 13 31 1 11 32 0 13 32 0 13 31 1 13 32 2 14 31 1 13 33 1 12 33 1 14 41 1 10 60 1 7 56 1 6 44 2 4 43 2 6 44 2 6 44 2 6 44 2 6 44 2 6 46 1 6 45 3 5 46 1 6 44 2 6 43 2 6 44 2 6 44 2 6 44 2 6 44 2 6 44 2 6 43 2 6 43 3 4 45 3 7 43 2 6 43 2 6 44 2 6 44 2 4 46 4 6 46 1 4 44 2 6 44 2 6 44 2 6 44 2 6 49 3 6 66 2 3 64 2 3 64 2 3 53 3 6 44 2 6 43 2 6 44 2 6 44 2 6 44 2 6 44 2 6 44 2 6 44 2 6 43 2 6 44 3 7 33 1 12 32 0 13 31 1 13 35 2 11 44 2 6 45 3 7 58 2 5 64 2 3 64 2 3 64 2 5 64 2 3 63 1 2 63 1 4 65 0 4 65 1 2 63 1 2 
32 0 13 32 2 14 32 0 11 33 1 14 31 1 11 32 0 13 32 0 13 31 1 11 31 1 13 32 0 13 32 2 14 33 3 15 32 0 11 32 0 11 33 1 12 39 0 10 42 0 10 47 2 9 51 2 8 55 2 8 57 2 7 57 0 6 60 1 3 60 1 3 60 1 7 59 0 4 56 1 6 54 1 7 52 1 8 44 1 8 38 1 9 32 0 13 32 0 11 32 0 13 32 0 13 32 0 13 32 0 11 32 2 12 36 0 10 53 2 7 56 1 6 47 2 7 48 2 5 47 2 7 44 2 6 44 2 4 43 2 6 45 2 9 44 2 6 44 2 6 44 2 6 43 2 6 44 2 6 44 2 6 44 2 6 43 2 6 46 1 4 43 2 6 45 3 7 44 2 6 44 2 6 44 2 6 44 2 6 44 1 8 45 3 7 44 3 7 44 2 6 44 2 6 45 3 7 49 3 6 66 2 3 65 1 2 63 1 2 52 2 5 44 2 6 44 2 6 44 2 6 44 2 6 44 2 6 45 3 7 44 2 6 44 2 6 44 2 6 44 2 6 33 1 12 32 0 13 32 0 11 38 0 11 44 2 6 44 2 6 58 2 5 63 1 2 63 1 2 64 2 3 63 1 2 63 1 2 64 2 5 66 2 3 64 0 1 64 2 3 
32 0 11 32 0 13 32 0 11 31 0 10 33 1 14 32 0 13 33 1 12 35 2 13 38 0 11 42 0 10 47 1 11 50 1 5 57 2 7 61 2 4 63 1 2 65 1 2 66 1 5 64 2 3 65 0 4 65 0 4 65 1 2 65 0 4 64 2 3 65 1 2 64 2 5 63 2 1 63 1 4 66 2 3 65 1 2 63 1 2 64 2 5 62 2 4 51 2 8 37 2 9 33 0 9 32 0 11 32 0 13 33 1 14 31 1 11 32 2 14 46 1 8 57 1 4 46 1 6 45 3 7 44 2 6 44 2 6 44 2 6 46 1 8 44 2 6 44 2 6 44 2 6 43 2 6 43 2 6 44 2 6 44 2 6 44 2 6 44 2 6 44 2 6 44 2 6 44 2 6 44 2 6 44 2 6 44 2 6 44 2 6 45 3 7 44 2 6 44 2 6 44 2 6 44 2 6 48 2 5 63 1 2 65 1 2 65 1 2 52 2 5 44 2 6 45 3 7 44 2 6 43 2 6 43 2 6 44 2 6 45 3 7 45 3 7 44 2 6 43 2 6 32 0 11 32 0 13 32 0 11 36 1 8 44 2 6 44 2 6 60 1 3 64 2 5 63 1 2 63 1 2 63 1 2 63 1 2 63 1 4 63 1 4 63 1 2 66 2 3 
46 1 8 48 3 8 50 1 7 51 0 7 53 0 6 57 0 7 60 1 3 62 2 4 63 1 2 66 2 3 64 2 3 63 1 2 63 1 2 63 1 2 63 1 2 63 1 2 63 1 2 64 3 2 63 1 4 63 1 4 65 1 2 63 1 2 66 2 3 64 2 5 66 1 5 62 2 2 62 0 3 62 2 4 65 0 4 63 2 1 64 2 5 63 1 2 64 2 3 63 1 4 51 2 8 33 1 12 32 0 13 32 0 13 32 0 11 33 0 11 33 1 16 39 2 10 55 0 5 47 2 7 44 2 4 45 3 7 45 3 5 43 2 6 44 2 6 44 2 6 44 2 6 44 2 6 44 2 6 43 2 6 44 2 6 46 1 6 43 2 6 44 2 6 44 2 6 43 2 6 44 2 6 45 3 7 43 2 6 46 1 4 44 2 6 44 2 6 45 3 7 44 2 6 47 2 5 48 2 5 63 1 2 64 2 5 63 1 2 52 2 5 44 2 6 44 2 6 44 2 6 44 2 6 44 2 6 45 3 7 47 2 7 44 2 6 45 3 7 43 2 6 32 0 11 32 0 13 32 0 11 38 3 10 44 2 6 44 2 6 61 2 4 64 2 5 63 1 2 63 1 2 63 1 2 63 1 2 63 1 4 63 1 2 64 2 5 65 1 2 
63 1 4 65 0 4 63 1 4 63 1 4 63 1 4 65 0 4 65 0 4 62 0 3 64 2 5 64 2 5 63 1 4 63 1 4 63 1 4 63 1 4 63 1 4 64 2 5 63 1 4 63 1 4 62 0 3 64 2 5 63 1 4 63 1 4 63 1 4 63 1 4 63 1 2 67 3 4 64 2 5 64 2 5 63 1 2 64 2 3 64 2 3 63 1 2 64 2 3 63 1 2 66 2 3 61 0 5 41 1 10 32 0 13 33 1 12 33 1 14 33 1 12 30 0 12 37 2 9 53 1 5 47 2 5 43 2 6 43 2 6 44 2 4 44 2 6 44 3 7 43 2 6 44 2 6 44 2 6 44 2 6 43 2 6 43 2 6 45 4 8 44 2 6 44 2 6 44 3 7 43 3 4 43 2 6 44 2 6 44 2 6 43 2 6 44 2 4 43 3 4 44 2 6 43 2 6 46 1 6 56 1 6 63 1 4 58 2 3 44 3 7 44 2 6 44 4 5 45 3 7 46 1 6 44 2 6 44 2 6 44 2 6 45 3 7 44 2 6 43 2 6 33 1 12 32 2 14 33 0 11 37 2 9 44 2 6 44 2 6 62 2 4 62 0 3 63 1 2 63 1 2 64 2 3 64 2 3 63 1 2 63 1 2 63 1 2 63 1 2 
64 2 5 63 1 4 65 0 4 63 1 4 63 1 4 63 1 4 63 1 4 64 0 3 63 1 4 64 2 5 64 2 5 64 2 5 63 1 4 64 2 5 64 2 5 63 1 4 64 2 5 63 1 4 63 1 4 64 2 5 64 2 5 64 2 5 64 2 5 63 1 4 65 0 4 64 2 5 65 0 4 65 3 6 63 1 4 63 1 4 63 1 2 64 2 5 64 2 3 63 1 4 64 2 3 65 0 4 62 0 3 48 1 7 32 0 13 32 2 12 32 0 11 32 0 13 32 2 12 36 0 10 52 1 8 44 1 8 44 2 6 45 4 8 44 2 6 43 2 6 44 2 4 44 2 6 43 2 6 44 2 4 44 2 6 44 3 9 44 2 6 42 1 5 44 2 6 45 3 7 43 2 6 44 2 6 44 2 6 45 3 5 45 3 7 43 2 6 44 2 4 45 3 7 43 2 6 44 2 6 44 1 8 44 2 4 47 2 7 45 3 7 45 3 7 44 2 6 44 2 6 43 2 6 43 2 6 43 2 6 44 2 6 43 1 5 45 3 7 42 1 5 33 1 12 32 0 13 33 1 12 36 1 8 44 2 6 44 2 6 61 1 3 64 2 5 65 1 2 63 1 2 63 1 2 63 1 2 64 2 3 64 2 3 64 2 3 64 2 3 
64 2 5 63 1 4 63 1 4 65 0 4 63 1 4 63 1 4 64 2 5 65 0 4 64 2 5 64 2 5 63 1 4 64 2 5 63 1 4 64 2 5 64 2 5 63 1 4 63 1 4 64 2 5 63 1 4 63 1 4 63 1 4 63 1 4 63 1 4 63 1 4 62 0 1 63 1 2 65 1 2 64 0 1 63 1 2 63 1 4 64 2 3 63 1 2 63 1 2 63 1 4 63 3 3 64 2 5 63 1 4 66 2 3 56 1 7 34 0 14 33 1 14 30 0 12 32 0 13 32 0 13 33 1 12 51 2 6 45 4 8 43 1 5 44 2 6 44 2 6 44 3 7 44 2 6 44 2 4 44 2 6 43 2 6 45 3 7 44 2 4 43 2 6 45 3 7 44 2 6 51 2 5 53 3 6 44 2 4 43 2 6 44 2 6 45 3 5 44 2 6 44 2 6 44 2 4 44 3 7 44 2 6 44 2 6 44 2 6 45 3 7 44 2 6 43 1 5 47 2 7 45 4 8 46 1 6 44 2 4 44 2 6 44 2 6 44 2 6 43 2 8 33 1 12 32 0 13 33 1 14 38 1 9 44 2 6 44 2 6 62 2 4 63 1 4 63 1 2 63 1 2 64 2 3 63 1 2 63 1 2 63 1 2 63 1 4 63 1 2 
65 0 4 63 1 4 63 1 4 63 1 4 65 0 4 64 2 5 63 1 4 62 0 3 63 1 4 63 1 4 64 2 5 63 1 4 63 1 4 63 1 4 63 1 4 63 1 4 62 0 3 64 2 5 64 2 5 63 1 4 63 1 4 63 1 4 63 1 4 63 1 4 63 1 2 63 1 2 65 0 4 62 0 1 63 1 4 64 2 3 60 1 5 55 0 5 54 2 6 62 1 6 65 1 2 63 1 2 66 2 3 64 2 3 64 2 5 57 1 4 37 1 11 32 2 14 31 1 11 31 1 13 32 2 12 37 1 13 51 2 6 45 3 5 42 1 5 44 2 6 43 2 6 44 2 6 44 2 6 44 2 6 44 2 6 44 2 6 45 3 7 44 2 6 44 1 8 51 2 6 63 1 2 65 1 2 60 1 5 43 2 6 45 3 7 43 2 6 44 2 6 44 2 6 43 2 6 43 3 4 44 2 6 44 2 4 42 3 6 43 2 6 45 3 7 43 2 6 44 2 6 43 2 6 44 2 6 47 0 6 44 2 6 44 2 6 44 2 6 43 2 8 32 0 13 32 0 13 32 0 11 38 1 9 44 2 6 44 2 6 61 1 3 64 2 5 63 1 2 65 3 4 63 1 2 62 2 2 63 1 4 63 1 2 63 1 4 65 0 4 
65 3 6 63 1 4 63 1 4 63 1 4 63 1 4 63 1 4 64 2 5 64 2 5 63 1 4 63 1 4 64 2 5 63 1 4 63 1 4 63 1 4 63 1 4 63 1 4 63 1 4 64 2 5 63 1 4 64 2 5 63 1 4 63 1 4 63 1 4 63 1 4 63 1 4 65 0 4 62 0 3 62 0 3 63 1 4 45 0 9 33 0 11 32 0 11 32 0 13 35 2 11 48 1 9 61 1 3 65 1 2 63 1 4 63 1 2 63 1 2 57 1 4 38 0 11 31 1 11 31 1 9 32 2 14 33 1 12 37 1 11 44 2 6 44 2 6 44 2 6 44 2 6 44 2 4 44 1 8 44 3 7 44 2 6 43 2 6 44 1 8 44 2 6 43 2 6 54 2 6 63 1 2 62 2 1 63 1 2 44 2 6 44 2 6 44 3 7 45 3 7 45 3 7 44 2 6 46 1 6 44 3 7 45 3 7 44 2 6 46 4 8 44 2 6 43 2 6 43 2 6 46 1 6 43 3 4 44 2 6 44 2 6 44 2 6 45 3 7 43 2 8 32 0 11 33 1 12 33 1 14 38 1 8 43 2 6 45 3 7 62 2 4 64 2 5 63 1 2 63 1 2 63 1 2 63 1 2 64 2 5 63 1 2 64 2 5 63 1 2 
63 1 4 64 2 5 63 1 4 63 1 4 64 2 5 64 2 5 63 1 4 64 2 5 63 1 4 63 1 4 63 1 4 63 1 4 63 1 4 64 2 5 63 1 4 63 1 4 64 2 5 64 2 5 65 3 6 63 1 4 64 2 5 63 1 4 63 1 4 64 2 5 63 1 2 64 2 3 63 1 2 61 1 3 37 1 11 33 1 12 33 1 14 31 1 11 32 2 14 32 0 13 31 1 13 41 1 10 61 0 5 63 1 2 63 1 4 66 1 5 64 3 2 61 2 4 38 0 11 30 0 12 32 2 12 32 0 13 32 2 12 37 0 12 43 2 6 44 2 6 44 2 6 43 1 5 44 1 8 44 3 7 44 2 6 44 2 3 43 1 3 44 2 6 43 2 6 57 2 7 63 1 2 64 2 5 65 3 4 45 3 7 44 2 6 43 2 6 44 2 6 44 2 6 45 3 7 44 2 6 44 2 6 43 2 6 46 1 6 44 2 6 45 3 7 44 2 6 44 2 6 44 2 6 42 1 5 43 2 6 44 2 6 44 2 6 44 2 4 41 2 7 32 0 13 32 0 11 32 0 11 40 0 8 44 2 6 47 2 7 62 2 4 63 1 4 62 0 1 65 1 2 63 1 2 66 2 3 62 0 1 63 1 2 63 1 2 64 2 3 
63 1 4 64 2 5 63 1 4 63 1 4 64 2 5 64 2 5 63 1 4 63 1 4 62 0 3 63 1 4 64 2 5 63 1 4 63 1 4 64 2 5 63 1 4 63 1 4 63 1 4 63 1 4 64 2 5 64 2 5 63 1 4 62 0 3 63 1 4 63 1 4 63 1 2 63 1 2 64 2 5 47 2 9 31 1 11 34 0 14 33 1 12 32 2 14 31 1 13 32 0 11 32 0 13 33 1 12 35 2 11 59 3 6 63 1 4 65 1 2 64 2 3 63 1 4 60 2 1 37 2 9 33 1 16 33 1 14 32 0 11 32 0 13 38 0 11 43 2 6 44 2 6 44 2 4 43 2 6 44 2 6 45 3 7 43 2 6 43 2 6 44 2 6 43 2 6 57 2 5 62 2 4 63 1 4 63 1 2 47 2 7 44 2 6 44 2 6 45 3 7 44 2 6 44 2 6 44 2 6 45 3 7 44 2 4 44 2 6 45 3 7 44 2 6 43 2 6 44 2 6 44 2 6 46 1 6 43 2 8 44 2 6 44 2 6 43 2 6 41 1 9 32 0 13 33 1 12 30 0 12 41 1 9 43 4 7 45 3 7 62 2 4 64 2 5 63 3 3 65 3 4 62 2 2 64 2 3 63 1 2 63 1 2 65 0 4 64 2 3 
63 1 4 62 0 3 62 0 3 63 1 4 63 1 4 63 1 4 63 1 4 63 1 4 63 1 4 62 0 3 63 1 4 62 0 3 63 1 4 63 1 4 63 1 4 63 1 4 64 2 5 63 1 4 64 2 5 63 1 4 63 1 4 63 1 4 63 1 4 63 1 4 63 3 5 66 2 3 56 1 6 32 2 14 33 1 14 32 0 11 32 0 11 33 1 12 34 1 12 30 2 14 31 1 11 32 0 15 32 0 13 37 1 11 61 2 6 63 1 4 65 3 6 65 0 4 63 1 4 61 2 4 38 0 13 32 2 10 32 0 11 33 0 11 32 0 11 37 2 9 44 2 6 43 2 6 44 1 8 44 2 6 44 2 6 43 2 6 44 1 8 44 3 7 43 1 5 56 1 4 63 1 2 65 1 2 62 2 4 44 2 6 44 2 6 44 3 7 45 4 8 43 2 6 44 2 6 43 2 6 44 2 6 43 2 6 44 2 6 47 2 7 45 3 7 44 2 6 45 3 5 60 1 3 63 1 2 57 1 4 44 2 6 44 2 6 43 2 6 40 0 8 31 1 13 32 0 11 31 1 13 40 0 8 45 3 7 45 3 7 63 1 4 63 1 4 63 1 2 62 2 2 65 1 2 63 1 2 63 3 3 63 3 5 63 1 4 64 2 3 
62 2 4 64 2 5 63 1 4 65 0 4 63 1 4 63 1 4 63 1 4 62 2 4 64 2 5 66 1 5 62 2 4 65 0 4 63 1 4 62 0 3 63 1 4 63 1 4 63 1 4 63 1 4 63 1 2 65 0 4 63 1 4 63 1 2 64 2 3 64 2 3 63 3 5 61 0 5 37 1 13 30 0 10 33 1 14 33 3 15 34 1 12 52 1 6 56 1 4 34 1 10 31 1 11 33 1 12 31 1 13 33 1 14 37 1 11 63 3 5 63 1 4 63 1 2 62 0 1 63 1 2 57 1 4 33 1 12 32 0 13 32 2 12 32 2 12 32 0 11 38 1 9 44 2 6 48 2 5 45 3 7 44 2 6 44 2 6 43 2 6 44 2 6 44 2 6 55 3 5 62 2 4 66 1 5 62 0 3 44 2 6 44 2 6 44 2 6 44 2 6 44 2 6 44 2 6 44 2 6 44 2 6 44 2 6 44 2 6 44 2 6 44 2 6 44 2 6 52 2 5 62 0 1 64 2 3 63 1 4 48 2 5 44 2 6 44 2 6 41 1 9 33 1 14 33 1 12 32 0 11 39 2 9 43 2 6 46 4 8 63 1 2 63 1 4 64 2 5 63 1 2 64 2 5 62 0 3 63 1 4 62 0 3 63 1 4 63 1 4 
65 0 4 61 1 3 62 0 3 63 1 4 62 2 4 64 2 5 62 2 4 65 0 4 63 1 4 63 1 4 62 2 4 64 2 5 64 2 5 63 1 4 63 1 4 64 2 5 63 1 4 63 1 2 64 2 5 64 2 5 63 3 3 64 2 3 63 1 2 62 2 4 64 2 3 48 1 7 33 1 12 31 1 13 32 2 14 32 0 13 50 0 9 63 1 2 62 0 3 59 0 4 38 0 11 32 2 14 33 1 14 29 1 13 32 0 11 58 3 6 63 1 2 63 1 2 64 2 5 63 1 2 64 2 5 54 2 6 33 1 14 31 1 13 33 1 14 32 0 11 33 3 13 50 1 5 63 1 2 63 3 5 48 2 4 44 2 6 43 1 5 44 2 6 44 2 6 56 1 4 64 2 5 63 1 4 63 1 4 44 2 6 44 2 6 44 2 6 44 2 6 44 2 6 44 2 6 44 2 6 44 2 6 44 2 6 44 2 6 44 2 6 45 3 7 44 2 6 52 2 5 63 1 2 62 0 1 64 2 5 48 2 5 44 2 6 44 2 6 40 0 8 33 1 14 32 0 11 32 0 11 41 1 9 44 2 6 47 2 7 62 2 2 65 0 4 63 1 4 63 1 2 64 2 5 64 2 5 63 1 4 63 1 4 63 1 4 63 1 4 
64 2 5 63 1 4 63 1 4 63 1 4 63 1 4 64 4 6 65 0 4 63 1 4 63 1 4 63 1 4 63 1 4 63 1 4 63 1 4 64 2 5 63 1 4 63 1 4 64 2 3 65 1 2 62 2 4 63 1 2 63 1 2 63 1 4 63 1 2 63 1 2 59 0 4 33 0 11 33 1 12 32 0 15 32 0 13 38 0 11 62 2 4 63 1 4 63 1 2 63 1 4 60 1 3 37 0 10 32 0 11 31 1 11 36 0 12 62 2 4 65 0 4 63 1 4 64 2 3 64 2 5 63 1 2 65 1 2 51 2 6 31 1 13 32 0 15 33 1 12 30 0 14 33 1 14 56 0 5 64 2 3 54 2 6 45 3 5 44 2 6 44 3 7 43 2 6 56 1 4 64 2 5 63 1 4 63 1 4 46 1 6 44 2 6 44 2 6 44 2 6 44 2 6 44 2 6 44 2 6 44 2 6 44 2 6 45 3 7 45 3 7 44 2 6 45 3 7 52 2 5 62 0 1 63 1 2 63 1 4 48 2 5 44 2 6 44 2 6 41 1 9 32 0 13 34 2 13 32 0 11 41 1 9 44 2 6 46 4 8 65 1 2 63 1 4 63 1 4 64 2 3 62 0 3 63 1 4 64 2 5 63 1 4 63 1 4 64 2 5 
63 1 4 63 3 5 65 0 4 63 1 4 65 0 4 63 1 4 63 1 4 63 1 4 64 2 5 63 1 4 62 0 3 62 0 3 64 2 5 62 2 4 63 1 4 64 2 5 62 0 1 63 1 4 62 2 4 65 1 2 62 2 2 64 2 5 63 1 4 63 1 2 43 2 10 32 0 11 33 1 12 32 0 13 33 1 12 56 1 6 65 1 2 62 2 4 62 2 2 63 1 4 62 0 3 61 2 4 48 1 7 44 1 10 59 0 6 64 2 3 64 2 3 62 2 2 62 2 2 65 1 2 63 1 4 63 1 4 62 2 4 47 0 8 32 0 13 32 0 13 33 1 12 33 1 12 36 0 12 57 1 4 55 3 7 45 3 7 44 2 6 44 2 6 44 2 6 54 2 4 64 2 5 63 1 4 63 1 4 44 2 6 44 2 6 44 2 6 44 2 6 44 2 6 44 2 6 44 2 6 44 2 6 44 2 6 43 1 5 44 2 6 44 2 6 44 2 6 54 4 7 62 0 1 63 1 2 63 1 4 48 2 5 44 2 6 44 2 6 40 0 8 33 1 14 32 0 11 32 0 11 41 1 9 43 2 6 46 1 6 63 1 2 65 3 6 63 3 5 64 2 3 62 2 4 63 1 4 63 1 4 63 1 4 64 2 5 64 2 5 
63 1 4 62 0 3 63 1 4 63 1 4 63 1 4 64 2 5 63 1 4 63 1 4 63 1 4 63 1 4 63 1 4 64 2 5 63 1 4 62 0 3 63 1 4 63 1 4 63 1 2 63 1 2 64 2 3 61 1 3 63 3 3 63 3 5 62 2 2 60 1 5 34 0 14 33 1 12 33 1 12 32 0 11 42 0 10 63 3 2 64 0 3 62 2 4 63 1 4 64 2 3 62 2 4 63 1 4 63 1 4 64 2 3 63 3 5 62 2 4 62 0 1 63 1 2 62 2 4 63 1 4 63 1 4 63 1 2 62 0 3 63 1 4 41 0 8 33 1 12 30 0 10 32 2 14 32 0 11 41 1 10 54 2 6 44 2 6 44 2 6 44 2 6 44 2 6 54 2 4 63 1 4 64 2 5 63 1 4 45 3 7 44 2 6 44 2 6 44 2 6 44 2 6 44 2 6 44 2 6 44 2 6 44 2 6 44 2 6 44 2 6 44 2 6 44 2 6 52 2 5 65 3 4 63 1 2 63 1 4 47 2 5 44 2 6 44 2 6 40 0 8 32 0 13 31 1 11 31 1 11 39 2 9 44 2 6 47 2 7 63 3 3 62 2 4 64 4 6 63 3 3 62 2 4 63 1 4 63 1 4 62 0 3 62 0 3 64 2 5 
62 0 3 62 0 3 66 1 5 63 1 4 62 2 4 63 1 4 65 0 4 62 0 3 65 0 4 63 1 4 63 1 4 64 2 5 65 0 4 63 1 4 66 1 5 64 2 5 63 3 5 63 3 3 63 1 2 64 2 3 63 1 2 64 2 7 64 0 3 43 0 9 32 0 13 32 0 13 33 1 12 33 1 14 61 2 6 65 1 2 64 4 4 64 2 5 62 2 4 63 1 4 64 2 3 63 3 3 65 0 4 62 2 2 62 0 1 63 1 4 63 1 2 62 2 4 63 1 4 63 1 4 64 2 3 62 2 4 66 1 5 62 2 2 63 1 6 39 2 10 30 0 12 32 0 13 32 2 12 32 2 12 40 0 8 44 2 6 44 3 7 44 5 8 44 3 7 53 1 3 64 2 5 61 2 4 62 0 3 45 3 7 44 2 6 44 2 6 44 2 6 44 2 6 44 2 6 44 2 6 44 2 6 44 2 6 44 2 6 44 2 6 44 2 6 44 2 6 52 2 5 63 1 2 63 1 2 64 2 5 47 2 5 45 3 7 44 2 6 40 0 8 32 0 13 32 2 12 29 2 11 38 3 9 44 2 6 47 2 7 63 1 2 63 1 4 64 2 5 62 0 1 63 1 4 63 1 4 63 1 4 62 0 3 63 1 4 63 1 4 
61 0 2 64 2 5 63 1 4 63 1 4 63 1 4 62 0 3 63 1 4 61 0 2 63 1 4 63 1 4 62 2 4 62 0 3 63 1 4 63 1 4 63 1 4 62 0 3 63 1 2 65 0 4 64 2 5 63 1 2 63 1 2 65 1 2 57 2 7 32 0 11 32 0 11 32 2 14 32 0 13 42 0 10 63 1 2 63 1 4 65 1 2 62 2 2 63 1 2 63 1 4 63 1 2 64 2 5 63 2 1 62 0 3 54 2 6 50 1 5 55 0 5 62 2 4 63 1 2 63 1 2 64 2 5 62 2 4 63 1 4 63 1 2 62 2 2 61 2 4 32 0 11 33 1 12 33 1 12 31 0 12 32 0 15 43 2 8 44 2 6 44 2 6 44 2 6 56 1 4 63 1 4 62 2 4 64 2 5 45 3 7 44 2 6 44 2 6 44 2 6 44 2 6 44 2 6 44 2 6 44 2 6 44 2 6 45 3 7 44 2 6 44 2 6 45 3 7 53 3 6 63 1 2 62 0 1 63 1 4 47 2 5 44 2 6 43 1 5 40 0 8 32 0 13 31 1 11 31 1 11 39 2 9 44 2 6 50 1 7 65 1 2 65 0 4 63 1 4 63 1 2 64 2 5 63 1 4 63 1 4 63 1 4 64 2 5 63 1 4 
63 1 4 63 1 4 63 1 4 63 1 4 62 2 4 63 1 4 64 2 5 63 1 4 65 3 6 63 1 4 63 1 4 64 2 5 63 1 4 62 2 4 63 1 4 63 1 4 64 2 3 63 1 4 62 2 2 63 1 4 64 2 3 63 1 2 43 2 10 33 1 14 32 0 11 31 1 13 33 2 10 57 0 6 65 0 4 62 2 2 62 0 3 65 1 2 63 1 4 63 1 4 63 1 2 63 1 2 60 1 5 42 0 10 31 1 13 32 0 13 32 0 11 35 2 11 57 0 6 63 1 4 62 2 2 65 1 1 63 1 4 62 2 4 63 1 4 63 1 2 52 1 6 33 1 14 33 1 12 31 1 9 32 0 11 33 1 12 44 3 7 45 3 7 43 2 6 55 0 3 63 3 5 62 2 4 62 2 4 47 2 7 44 2 6 44 2 6 44 2 6 44 2 6 44 2 6 44 2 6 44 2 6 44 2 6 45 3 7 44 2 6 44 2 6 44 2 6 51 1 4 64 2 3 63 1 2 63 1 4 47 2 5 44 2 6 44 2 6 40 0 8 32 0 13 31 1 11 31 1 11 39 2 9 43 1 5 49 2 8 63 3 3 63 3 5 63 1 4 62 2 2 63 1 4 64 2 5 64 2 5 63 1 4 62 0 3 63 1 4 
62 0 3 63 1 4 64 2 5 63 1 4 62 0 3 64 2 5 63 1 4 64 2 5 62 0 3 62 0 3 63 1 4 63 1 4 63 1 4 63 1 4 63 1 4 63 1 4 62 0 1 63 3 3 63 1 4 63 3 5 62 0 3 58 2 5 34 1 10 31 1 13 33 1 14 32 0 13 42 1 9 65 0 4 62 2 4 63 1 2 65 3 4 63 1 4 63 1 4 63 1 2 62 0 3 62 2 4 40 0 9 31 1 11 32 0 13 32 0 15 33 1 12 32 0 13 34 1 10 60 1 5 63 1 4 63 1 4 63 1 2 63 3 3 63 1 4 64 2 3 63 3 5 46 0 10 32 0 13 30 0 12 31 1 11 32 0 11 34 1 12 44 2 6 43 2 6 54 2 4 62 2 4 64 2 3 63 1 4 44 2 6 44 2 6 44 2 6 44 2 6 44 2 6 44 2 6 44 2 6 44 2 6 44 2 6 44 2 6 45 3 7 44 1 8 44 2 6 53 3 6 62 2 2 63 1 4 63 1 2 47 2 5 43 2 6 43 2 6 40 0 8 31 1 13 31 1 11 31 1 13 41 1 9 44 2 6 48 2 4 63 1 4 65 0 4 64 2 5 63 1 4 63 1 4 63 3 5 63 1 4 63 1 4 63 1 4 63 1 4 
63 1 4 62 0 3 64 2 5 63 1 4 63 1 4 63 1 4 63 1 4 63 1 4 64 2 5 64 2 5 63 1 4 62 0 3 63 1 4 64 2 5 64 2 5 63 1 4 64 2 3 62 0 1 63 3 5 63 1 2 63 1 4 45 2 11 33 2 10 29 1 13 32 0 13 32 0 11 57 2 5 65 1 2 63 1 4 61 1 1 63 1 4 65 1 2 62 0 1 63 1 4 62 0 3 51 0 5 30 0 10 32 0 13 32 0 13 31 1 11 31 1 11 32 2 12 32 0 11 42 1 9 62 0 1 64 2 5 62 2 4 61 1 1 65 0 4 63 1 4 63 1 4 63 1 2 39 2 10 30 0 12 33 1 14 31 0 12 29 1 13 37 0 8 44 2 6 52 1 6 63 1 2 63 1 4 61 2 4 42 1 5 44 2 6 44 2 6 44 2 6 44 2 6 44 2 6 44 2 6 44 2 6 44 2 6 44 2 6 44 2 6 43 1 5 44 1 8 52 2 5 63 1 2 63 1 4 62 0 3 48 2 5 43 2 6 44 3 7 38 1 9 31 1 11 31 1 13 31 1 13 40 0 8 43 2 6 48 2 4 63 1 4 62 0 3 63 1 4 63 3 5 63 1 4 63 1 4 63 1 4 63 1 4 63 1 4 63 1 4 
63 1 4 64 2 5 63 1 4 63 1 4 63 1 4 63 1 4 61 0 2 63 1 4 63 1 4 63 1 4 63 1 4 63 1 4 63 1 4 63 1 4 61 0 2 63 1 4 63 1 2 63 1 4 63 3 5 65 0 4 61 0 5 34 1 12 32 0 11 32 0 13 32 0 11 42 2 10 63 1 4 63 1 4 63 1 4 62 0 3 63 1 2 65 1 2 63 1 4 63 1 4 64 4 4 37 1 11 33 1 14 31 1 13 30 2 14 33 1 12 32 0 11 31 1 13 32 2 14 31 0 10 60 1 5 63 1 4 63 2 1 63 1 2 63 1 2 63 1 2 62 2 2 63 1 2 58 2 5 34 1 10 32 0 11 32 0 13 29 2 11 32 2 14 41 2 7 44 2 6 54 2 6 56 1 4 47 2 5 47 1 4 44 2 6 44 2 6 44 2 6 44 2 6 44 2 6 44 2 6 44 2 6 44 2 6 44 2 6 44 2 6 45 3 7 44 2 6 51 2 5 63 1 2 63 1 2 63 1 4 48 2 5 43 2 6 42 1 5 38 1 8 31 1 13 33 1 12 31 1 13 41 1 9 43 2 6 51 2 5 64 0 3 63 1 4 65 0 4 63 3 5 63 1 4 63 1 4 63 1 4 62 0 3 63 1 4 63 1 4 
63 1 4 63 1 4 62 0 3 63 1 4 63 1 4 63 1 4 63 1 4 63 1 4 63 1 4 63 1 4 63 1 4 63 1 4 64 2 5 63 1 4 63 1 4 63 1 4 63 1 2 65 1 2 63 1 4 63 1 2 50 1 7 32 0 11 33 1 12 32 0 13 31 0 15 57 0 6 63 1 4 63 1 2 64 2 5 63 1 4 63 1 2 62 2 4 62 0 3 62 2 4 61 2 6 32 0 11 32 2 12 31 1 13 33 1 16 32 2 12 32 0 11 31 1 11 33 1 12 33 1 12 52 1 6 62 2 4 64 2 3 63 1 4 64 0 3 63 1 2 63 1 4 63 1 4 62 2 4 53 2 7 32 0 11 33 1 12 33 0 13 32 2 12 31 1 11 43 2 6 44 2 6 44 2 4 44 2 6 44 2 6 44 2 6 44 2 6 44 2 6 44 2 6 44 2 6 44 2 6 44 2 6 44 2 6 45 3 7 43 2 6 43 2 6 43 2 6 52 1 6 63 1 2 64 0 1 64 2 3 48 2 5 44 2 6 43 2 6 38 1 8 31 1 13 32 0 13 32 0 13 41 1 9 46 1 6 51 2 5 62 2 4 61 2 4 63 1 4 66 1 5 62 2 4 63 3 5 63 1 4 64 2 5 63 1 4 63 1 4 
63 1 4 63 1 4 63 1 4 63 1 4 63 1 4 62 0 3 63 1 4 64 2 5 63 1 4 62 0 3 63 1 4 63 1 4 64 2 5 63 1 4 63 1 4 63 1 4 64 2 3 63 1 2 64 2 5 62 2 4 33 2 10 33 1 12 31 1 13 33 2 10 39 2 10 63 1 4 64 2 3 63 3 5 62 0 3 62 0 3 63 1 2 64 2 3 64 2 5 63 3 5 56 1 6 33 1 14 31 1 13 32 0 11 31 1 13 32 0 13 32 0 11 32 2 12 32 0 11 32 0 11 47 2 9 64 2 3 63 3 5 63 1 2 63 1 4 63 1 2 64 2 5 64 2 3 65 1 2 62 0 3 45 2 9 32 0 13 32 2 14 31 1 11 31 1 11 34 1 10 44 2 6 46 1 6 42 3 6 43 2 6 44 2 6 44 2 6 44 2 6 44 2 6 44 2 6 44 2 6 44 2 6 44 2 6 44 3 7 44 2 6 44 2 6 44 2 6 53 3 6 62 2 4 63 1 4 62 0 1 48 2 5 44 2 6 43 2 6 38 1 8 33 1 14 33 1 12 33 1 14 41 1 9 44 2 6 52 2 5 63 1 4 63 1 4 63 1 4 63 1 4 63 1 4 63 3 5 64 2 5 64 2 5 63 1 4 63 1 4 
64 2 5 63 1 4 63 1 4 64 2 5 63 1 4 63 1 4 62 0 3 63 1 4 62 0 3 63 1 4 63 1 4 64 2 5 63 1 4 63 1 4 63 1 4 63 1 4 62 2 2 63 1 4 62 0 1 50 1 7 31 1 13 31 1 11 31 1 13 32 0 11 57 1 4 63 1 4 61 1 3 62 0 3 63 1 4 61 3 2 64 2 3 63 1 2 63 1 2 62 2 4 51 0 5 33 1 16 31 1 11 32 0 11 33 1 14 32 2 14 32 2 12 30 0 12 31 1 11 31 1 11 43 2 10 63 1 2 62 2 4 63 1 4 64 4 6 63 1 2 63 1 4 63 1 2 63 1 2 64 2 5 62 0 1 35 2 11 32 0 13 32 2 12 31 1 11 32 0 11 37 1 11 45 4 8 44 2 6 44 2 6 44 2 6 44 2 6 44 2 6 44 2 6 44 2 6 44 2 6 44 2 6 44 2 6 45 0 5 44 2 6 44 2 6 43 2 6 50 2 2 63 1 4 63 3 3 61 1 3 47 2 7 44 2 6 44 2 6 39 2 9 32 0 13 32 0 11 32 0 13 42 3 8 44 2 6 51 2 5 62 0 3 62 2 4 62 2 4 62 2 4 63 1 4 63 1 4 64 2 5 63 1 4 63 1 4 62 0 3 
64 2 5 62 0 3 63 1 4 64 2 5 63 1 4 64 2 5 64 2 5 62 0 3 63 1 4 63 1 4 63 1 4 63 1 4 63 1 4 63 1 4 63 1 4 64 2 5 62 2 4 63 1 4 61 1 3 37 1 11 33 1 12 32 2 12 31 1 11 39 2 10 64 2 5 63 1 4 63 1 2 66 2 3 61 1 1 63 1 2 63 1 2 61 1 3 61 1 3 63 1 4 51 2 6 32 0 13 32 0 11 32 0 13 32 2 14 32 2 14 29 2 11 33 1 12 31 1 13 33 1 14 42 1 9 63 1 4 63 1 2 65 1 2 62 2 4 61 1 3 64 2 3 63 1 6 62 0 3 64 2 5 62 0 1 57 2 7 32 2 12 31 1 13 32 0 13 32 2 12 31 0 15 41 1 9 45 3 7 44 2 6 44 2 6 44 2 6 44 2 6 44 2 6 44 2 6 44 2 6 44 2 6 44 2 6 44 2 6 44 2 6 44 4 5 45 3 7 48 3 6 58 2 5 63 1 4 53 3 6 47 2 7 44 2 6 44 2 6 37 2 9 31 1 11 32 0 11 33 1 12 43 2 8 44 2 6 52 2 5 63 1 4 63 1 4 62 2 4 63 1 4 63 1 4 63 1 4 64 2 5 63 1 4 63 1 4 63 1 4 
62 0 3 64 2 5 64 2 5 62 0 3 63 1 4 64 2 5 63 1 4 64 2 5 62 0 3 63 1 4 63 1 4 62 0 3 63 1 4 63 1 4 63 1 4 64 2 5 62 2 4 63 1 2 53 1 5 31 1 13 32 2 14 32 0 13 31 1 13 54 2 6 63 1 2 65 0 4 63 1 4 63 1 4 63 1 4 65 1 2 63 1 2 64 2 3 62 2 4 63 1 4 56 1 7 32 0 11 31 1 13 30 0 12 31 1 13 33 1 14 32 0 13 34 2 13 31 1 11 32 2 14 45 0 9 64 2 5 62 2 2 62 0 1 60 0 2 64 2 3 64 0 1 64 2 5 63 1 4 62 0 1 63 1 4 63 1 4 50 1 5 32 0 13 30 0 12 30 0 12 32 0 11 33 0 11 44 2 4 43 2 6 44 2 6 44 2 6 44 2 6 44 2 6 44 2 6 44 2 6 44 2 6 44 2 6 43 2 6 44 2 6 44 2 6 44 2 6 44 2 6 44 2 6 44 4 5 44 2 6 45 3 7 44 2 6 44 2 6 38 3 9 31 1 13 31 1 11 32 0 13 43 2 6 44 2 6 54 2 6 64 2 5 63 1 4 62 2 4 63 1 4 64 2 5 63 1 4 62 0 3 62 0 3 63 1 4 63 1 4 
63 1 4 62 0 3 63 1 4 64 2 5 63 1 4 63 1 4 63 1 4 63 1 4 64 2 5 63 2 1 66 2 2 63 1 2 63 1 2 64 2 3 62 2 4 63 1 4 64 2 3 64 2 5 38 0 11 31 1 13 31 1 13 31 1 13 37 1 11 64 2 3 62 0 3 62 0 3 63 1 4 63 1 4 63 3 5 63 1 4 63 1 4 63 1 4 64 2 3 63 1 2 61 0 5 33 1 12 31 1 13 31 1 13 31 1 13 31 1 13 31 1 13 32 0 13 31 1 11 32 0 13 51 2 8 62 1 6 63 1 4 62 2 4 63 1 4 63 1 4 63 1 4 63 1 4 63 1 4 63 1 4 63 1 4 63 1 4 63 1 4 43 2 10 31 1 13 32 2 12 33 1 14 31 1 11 37 1 11 43 1 5 43 2 6 43 2 6 44 2 6 44 2 6 44 1 8 42 1 5 43 2 6 44 2 6 44 2 6 44 2 6 44 2 6 44 2 6 44 2 6 44 2 6 44 2 6 44 2 6 43 1 5 44 3 7 44 2 6 38 1 9 30 0 12 33 1 12 31 1 13 42 1 7 44 2 6 54 2 4 64 2 5 63 1 4 62 2 2 63 1 4 63 1 4 63 1 4 62 2 4 63 1 4 63 1 4 63 1 4 
63 1 4 63 1 4 63 1 4 63 1 4 63 1 4 63 1 4 62 0 3 62 0 3 63 1 4 63 1 2 63 1 4 62 0 1 63 1 4 64 2 3 63 1 4 63 1 2 62 2 2 56 1 6 32 0 11 30 0 10 31 1 13 31 1 11 50 1 7 61 1 3 63 1 4 63 1 4 63 1 4 62 2 4 64 2 5 63 1 4 63 1 4 63 1 4 63 1 6 63 1 2 62 2 2 39 2 10 33 1 12 32 0 10 32 0 11 33 1 14 34 2 15 31 1 11 29 1 13 34 1 12 60 1 5 63 1 2 62 0 1 62 2 2 63 1 4 63 1 4 62 0 3 64 2 5 63 1 4 63 1 4 63 1 4 63 1 4 62 2 2 63 1 6 34 3 11 33 1 14 31 1 11 32 0 13 31 1 11 38 1 9 44 2 6 45 3 7 43 2 6 45 3 7 44 2 6 44 2 4 45 3 7 44 2 6 44 2 6 44 2 6 44 2 6 44 2 6 44 2 6 44 2 6 44 2 6 44 2 6 43 2 6 43 2 6 45 3 7 37 2 9 31 1 13 31 1 11 31 1 13 44 1 8 44 2 6 54 2 4 63 1 4 65 0 4 62 2 2 63 1 4 63 1 4 62 2 4 63 1 4 63 3 5 63 1 4 63 1 4 
63 1 4 63 1 4 63 1 4 63 1 4 64 2 5 63 3 5 63 1 4 63 1 4 63 1 4 64 2 3 61 1 3 63 1 2 63 1 4 62 0 1 63 1 2 62 0 1 63 1 4 42 1 9 33 1 12 31 1 13 31 1 11 34 2 13 60 1 5 63 3 5 63 1 4 63 1 4 63 1 4 62 2 4 63 1 4 63 1 4 63 1 4 62 2 4 63 1 2 63 1 4 63 1 4 50 1 7 32 2 12 31 1 11 31 1 13 31 1 11 31 0 15 32 0 11 32 0 13 41 0 9 63 1 2 61 1 1 62 2 2 62 0 3 63 1 4 63 1 4 63 1 4 62 0 3 63 1 4 63 1 4 63 1 4 63 1 4 62 2 2 63 1 4 58 1 7 32 2 12 33 1 12 30 0 12 31 1 11 33 1 12 41 2 7 44 2 6 44 2 6 44 2 6 42 1 5 44 2 6 44 2 4 44 2 6 44 2 6 44 2 6 44 2 6 44 2 6 44 2 6 44 2 6 44 2 6 44 2 6 43 1 5 44 2 6 44 2 6 38 1 9 30 2 14 33 1 12 32 0 13 43 2 8 44 2 6 54 2 4 63 1 4 63 1 4 63 1 2 63 1 4 63 1 4 62 2 4 65 0 4 63 1 4 63 3 5 60 0 2 
65 0 4 63 1 4 62 0 3 63 1 4 65 0 4 63 1 4 63 1 4 63 1 4 63 1 4 64 2 5 63 1 2 63 2 1 63 1 2 64 2 3 61 1 3 63 1 2 57 0 6 34 1 12 32 0 13 31 1 11 32 2 14 47 0 8 63 3 5 63 1 2 63 1 4 64 2 5 63 1 4 64 2 5 61 1 3 63 1 4 63 1 4 64 2 5 63 1 4 62 0 3 62 0 1 62 2 4 41 1 10 31 1 11 31 1 11 31 1 13 31 1 13 32 0 11 33 0 11 57 1 4 63 1 2 63 1 4 63 1 4 64 2 3 63 1 4 64 2 5 63 1 4 64 2 5 63 1 4 63 1 4 64 2 5 63 1 4 63 1 2 63 1 4 63 3 5 52 1 6 32 0 13 31 1 13 32 0 13 31 1 13 34 1 10 43 2 6 42 1 5 44 2 6 43 2 6 43 2 6 44 2 6 44 2 4 44 2 6 44 2 6 44 2 6 44 2 6 44 2 6 44 2 6 44 2 6 44 2 6 44 3 7 43 2 6 44 3 7 35 2 9 30 0 12 31 1 13 31 1 11 42 1 7 44 2 6 54 2 4 63 3 5 63 1 4 63 1 2 63 1 4 63 1 4 62 0 3 62 0 3 63 3 5 63 1 4 63 1 4 
63 1 4 63 1 4 63 1 4 64 2 5 63 1 4 62 0 3 63 1 4 63 1 4 64 2 5 63 1 4 65 1 2 63 1 2 64 3 2 63 1 4 63 1 4 63 1 2 44 1 10 31 1 13 31 1 11 32 0 13 32 0 11 61 2 6 63 1 2 62 0 3 63 3 5 63 1 4 62 0 3 62 0 3 63 1 4 62 0 3 63 1 4 63 1 4 62 2 4 63 1 4 63 1 4 62 0 3 60 1 3 38 1 9 31 1 13 33 1 14 31 0 15 35 2 13 57 0 6 64 2 3 62 2 4 61 1 0 63 1 4 63 1 4 63 1 4 64 2 5 63 1 4 63 1 4 63 1 4 63 1 4 64 2 5 63 1 4 63 1 4 63 1 4 62 0 1 62 0 1 44 1 10 32 0 13 32 0 13 31 0 10 31 1 13 36 0 10 44 2 6 42 2 3 44 2 6 44 2 6 44 2 6 44 2 6 44 2 6 44 2 6 44 2 6 44 2 6 44 2 6 44 2 6 44 2 6 44 2 6 44 2 6 44 2 6 44 2 6 38 1 9 31 1 13 32 0 13 32 0 11 43 2 8 44 2 6 53 1 3 62 2 4 63 1 4 63 1 2 63 1 4 63 1 4 64 2 5 63 1 4 62 2 4 63 1 4 64 0 3 
62 0 3 62 2 4 62 2 4 63 3 5 63 1 4 62 0 3 63 1 4 62 2 4 63 1 4 63 1 4 63 1 4 62 0 3 63 1 2 63 1 4 64 2 3 61 2 6 33 2 10 32 0 13 32 2 14 31 1 11 41 1 10 63 1 4 63 1 4 62 2 2 64 2 5 63 1 4 63 1 4 63 1 4 63 1 4 62 0 3 63 1 4 62 2 4 64 2 3 63 1 4 62 2 4 65 0 4 63 1 4 61 3 2 51 0 5 47 2 9 51 2 6 61 1 3 63 3 5 63 1 4 62 2 4 62 2 4 63 1 6 64 2 5 62 0 3 63 1 4 63 1 4 63 1 4 63 1 4 63 1 4 63 1 4 63 1 4 62 2 2 64 2 3 63 3 3 62 0 3 61 1 3 34 1 12 32 0 13 32 0 11 31 1 13 30 0 12 40 0 8 44 2 6 44 2 6 44 2 6 44 2 6 44 2 6 44 2 6 44 2 6 44 2 6 44 2 6 44 2 6 44 2 6 44 2 6 44 2 6 43 2 6 43 2 6 44 2 6 38 3 10 31 1 13 31 1 13 31 1 11 43 2 8 43 2 6 54 2 4 63 3 5 63 1 4 65 1 2 63 1 4 62 0 3 63 1 4 63 1 4 63 1 4 63 1 4 63 1 4 
62 0 3 62 2 4 63 3 5 62 2 4 63 1 4 63 1 4 63 1 4 63 1 4 63 1 4 63 1 6 64 2 5 64 2 5 63 1 4 63 1 4 63 1 4 47 0 8 31 1 11 32 0 13 31 1 13 32 2 12 56 1 6 62 2 4 63 1 2 63 1 4 64 2 5 63 1 4 63 1 4 63 1 4 63 1 4 62 0 3 63 1 4 61 1 3 63 1 4 63 1 2 63 1 2 63 1 4 63 1 2 62 0 3 63 1 4 63 1 4 62 0 3 63 1 4 63 3 5 64 2 5 63 1 2 63 1 4 65 1 2 62 0 3 64 2 5 62 0 3 63 1 4 63 1 4 64 2 5 62 0 3 63 1 4 63 1 4 63 1 2 63 2 1 63 1 4 63 1 4 61 1 3 53 0 6 33 1 14 32 2 14 31 1 13 32 0 13 31 0 10 43 2 8 43 2 8 44 2 6 44 2 6 43 2 6 44 2 6 44 2 6 44 2 6 44 2 6 44 2 6 44 2 6 44 2 6 44 2 6 44 2 6 44 2 6 44 2 6 37 2 9 32 2 12 32 0 13 32 0 11 43 2 8 43 2 6 54 2 4 63 3 5 63 1 4 63 1 2 63 1 4 63 1 4 63 1 4 63 1 4 62 0 3 63 1 4 63 1 4 
62 2 4 62 2 4 64 4 6 61 1 3 63 1 4 63 1 4 63 1 4 63 1 4 63 3 5 64 2 5 65 1 2 63 1 2 63 1 4 64 2 3 62 2 4 36 0 12 31 1 13 32 0 13 32 0 13 39 2 10 63 3 5 64 2 3 63 1 4 62 0 3 63 3 5 64 2 5 62 0 3 64 2 5 62 0 3 64 2 5 63 1 4 62 0 3 65 1 2 65 1 2 62 2 2 63 1 4 63 1 4 62 2 4 63 3 5 62 2 4 61 1 1 62 0 3 62 2 2 63 1 6 62 2 4 62 2 2 63 1 4 63 1 2 63 1 4 63 1 4 63 1 4 63 1 4 63 1 4 63 1 4 63 1 4 63 1 4 63 1 4 63 1 2 63 1 4 65 0 4 63 1 2 63 2 1 46 1 6 32 0 13 30 0 12 31 1 11 31 0 10 36 0 10 43 2 8 43 2 6 43 2 6 42 1 5 44 2 6 44 2 6 44 2 6 44 2 6 44 2 6 44 2 6 44 2 6 44 2 6 44 2 6 43 2 6 44 2 6 38 1 9 31 1 11 30 0 12 32 2 12 43 0 7 44 2 6 54 2 4 62 2 4 65 0 4 63 1 2 62 2 4 63 1 4 63 1 4 63 1 4 63 1 4 63 1 4 62 2 4 
