P3
100 50
255
23 3 15 23 3 15 21 3 15 23 3 15 23 3 15 23 3 15 23 3 15 24 4 16 23 3 15 23 3 15 23 3 15 23 3 15 23 3 15 23 3 15 23 3 15 23 3 15 23 3 15 23 3 15 23 3 15 23 3 15 23 3 15 23 3 15 23 3 15 23 3 15 23 3 15 21 3 15 21 3 15 23 3 15 23 3 15 21 3 15 21 3 15 23 3 15 23 3 15 23 3 15 23 3 15 23 3 15 23 3 15 23 3 15 23 3 15 23 3 15 23 3 15 23 3 15 23 3 15 23 3 15 23 3 15 23 3 15 23 3 15 23 3 15 23 3 15 23 3 15 21 3 15 23 3 15 23 3 15 23 3 15 23 3 15 21 3 15 24 4 16 22 4 16 23 3 15 21 3 15 24 4 16 24 4 16 24 4 16 23 3 15 23 3 15 23 3 15 23 3 15 23 3 15 109 98 106 255 255 255 255 255 255 255 255 255 255 255 255 255 255 255 255 255 255 255 255 255 255 255 255 255 255 255 255 255 255 255 255 255 255 255 255 255 255 255 255 255 255 255 255 255 255 255 255 255 255 255 255 255 255 255 255 255 255 255 255 255 255 255 255 255 255 255 255 255 255 255 255 255 255 255 255 255 255 255 255 255 255 255 255 255 255 255 255 255 255 255 255 255 
23 3 15 21 3 15 23 3 15 21 3 15 23 3 15 23 3 15 23 3 15 23 3 15 23 3 15 23 3 15 23 3 15 23 3 15 23 3 15 23 3 15 23 3 15 23 3 15 23 3 15 23 3 15 23 3 15 23 3 15 23 3 15 23 3 15 23 3 15 23 3 15 23 3 15 23 3 15 23 3 15 23 3 15 23 3 15 23 3 15 23 3 15 23 3 15 23 3 15 23 3 15 23 3 15 23 3 15 23 3 15 23 3 15 23 3 15 21 3 15 23 3 15 23 3 15 23 3 15 23 3 15 23 3 15 23 3 15 23 3 15 23 3 15 23 3 15 21 3 15 23 3 15 23 3 15 23 3 15 23 3 15 21 3 15 24 2 15 24 4 16 24 4 16 23 3 15 21 3 15 23 3 15 23 3 15 23 3 15 23 3 15 21 3 15 23 3 15 23 3 15 23 3 15 109 98 106 255 255 255 255 255 255 255 255 255 255 255 255 255 255 255 255 255 255 255 255 255 255 255 255 255 255 255 255 255 255 255 255 255 255 255 255 255 255 255 255 255 255 255 255 255 255 255 255 255 255 255 255 255 255 255 255 255 255 255 255 255 255 255 255 255 255 255 255 255 255 255 255 255 255 255 255 255 255 255 255 255 255 255 255 255 255 255 255 255 255 255 255 255 
21 3 15 23 3 15 23 3 15 23 3 15 23 3 15 24 4 16 24 4 16 23 3 15 23 3 15 23 3 15 24 4 16 23 3 15 23 3 15 24 4 16 23 3 15 23 3 15 23 3 15 23 3 15 23 3 15 23 3 15 23 3 15 23 3 15 23 3 15 23 3 15 23 3 15 23 3 15 23 3 15 23 3 15 23 3 15 23 3 15 23 3 15 23 3 15 23 3 15 23 3 15 21 3 15 21 3 15 23 3 15 23 3 15 23 3 15 23 3 15 23 3 15 23 3 15 23 3 15 23 3 15 23 3 15 23 3 15 23 3 15 23 3 15 21 3 15 23 3 15 23 3 15 23 3 15 23 3 15 23 3 15 23 3 15 23 3 15 22 2 14 23 3 15 23 3 15 23 3 15 23 3 15 23 3 15 23 3 15 23 3 15 21 3 15 23 3 15 23 3 15 23 3 15 109 98 106 255 255 255 255 255 255 255 255 255 255 255 255 255 255 255 255 255 255 255 255 255 255 255 255 255 255 255 255 255 255 255 255 255 255 255 255 255 255 255 255 255 255 255 255 255 255 255 255 255 255 255 255 255 255 255 255 255 255 255 255 255 255 255 255 255 255 255 255 255 255 255 255 255 255 255 255 255 255 255 255 255 255 255 255 255 255 255 255 255 255 255 255 255 
21 3 15 23 3 15 23 3 15 23 3 15 21 3 15 23 3 15 23 3 15 23 3 15 23 3 15 23 3 15 23 3 15 23 3 15 23 3 15 23 3 15 23 3 15 23 3 15 23 3 15 23 3 15 23 3 15 23 3 15 23 3 15 23 3 15 23 3 15 23 3 15 23 3 15 21 3 15 21 3 15 23 3 15 23 3 15 21 3 15 21 3 15 23 3 15 23 3 15 23 3 15 23 3 15 23 3 15 23 3 15 23 3 15 23 3 15 23 3 15 23 3 15 23 3 15 23 3 15 23 3 15 23 3 15 23 3 15 23 3 15 23 3 15 21 3 15 23 3 15 23 3 15 23 3 15 23 3 15 21 3 15 23 3 15 23 3 15 23 3 15 23 3 15 23 3 15 23 3 15 23 3 15 23 3 15 23 3 15 23 3 15 23 3 15 23 3 15 23 3 15 23 3 15 109 98 106 255 255 255 255 255 255 255 255 255 255 255 255 255 255 255 255 255 255 255 255 255 255 255 255 255 255 255 255 255 255 255 255 255 255 255 255 255 255 255 255 255 255 255 255 255 255 255 255 255 255 255 255 255 255 255 255 255 255 255 255 255 255 255 255 255 255 255 255 255 255 255 255 255 255 255 255 255 255 255 255 255 255 255 255 255 255 255 255 255 255 255 255 255 
23 3 15 21 3 15 23 3 15 23 3 15 23 3 15 23 3 15 23 3 15 24 4 16 23 3 15 23 3 15 23 3 15 22 2 14 22 2 14 23 3 15 23 3 15 23 3 15 23 3 15 23 3 15 23 3 15 23 3 15 23 3 15 23 3 15 23 3 15 23 3 15 23 3 15 23 3 15 23 3 15 23 3 15 23 3 15 23 3 15 23 3 15 23 3 15 23 3 15 23 3 15 23 3 15 23 3 15 23 3 15 23 3 15 23 3 15 23 3 15 23 3 15 23 3 15 23 3 15 23 3 15 23 3 15 23 3 15 23 3 15 23 3 15 23 3 15 21 3 15 23 3 15 23 3 15 23 3 15 23 3 15 23 3 15 23 3 15 23 3 15 23 3 15 23 3 15 23 3 15 23 3 15 23 3 15 23 3 15 23 3 15 23 3 15 23 3 15 23 3 15 23 3 15 109 98 106 255 255 255 255 255 255 255 255 255 255 255 255 255 255 255 255 255 255 255 255 255 255 255 255 255 255 255 255 255 255 255 255 255 255 255 255 255 255 255 255 255 255 255 255 255 255 255 255 255 255 255 255 255 255 255 255 255 255 255 255 255 255 255 255 255 255 255 255 255 255 255 255 255 255 255 255 255 255 255 255 255 255 255 255 255 255 255 255 255 255 255 255 255 
23 3 15 21 3 15 23 3 15 23 3 15 23 3 15 23 3 15 23 3 15 25 5 17 23 3 15 23 3 15 23 3 15 24 4 16 24 4 16 23 3 15 23 3 15 23 3 15 23 3 15 23 3 15 23 3 15 23 3 15 23 3 15 23 3 15 23 3 15 23 3 15 23 3 15 23 3 15 23 3 15 23 3 15 23 3 15 23 3 15 23 3 15 23 3 15 23 3 15 23 3 15 21 3 15 21 3 15 23 3 15 23 3 15 23 3 15 23 3 15 23 3 15 23 3 15 23 3 15 23 3 15 23 3 15 23 3 15 23 3 15 23 3 15 23 3 15 23 3 15 23 3 15 23 3 15 23 3 15 23 3 15 23 3 15 21 3 15 23 3 15 23 3 15 24 4 16 24 4 16 23 3 15 23 3 15 23 3 15 23 3 15 21 3 15 23 3 15 23 3 15 23 3 15 109 98 106 255 255 255 255 255 255 255 255 255 255 255 255 255 255 255 255 255 255 255 255 255 255 255 255 255 255 255 255 255 255 255 255 255 255 255 255 255 255 255 255 255 255 255 255 255 255 255 255 255 255 255 255 255 255 255 255 255 255 255 255 255 255 255 255 255 255 255 255 255 255 255 255 255 255 255 255 255 255 255 255 255 255 255 255 255 255 255 255 255 255 255 255 255 
23 3 15 23 3 15 21 3 15 23 3 15 23 3 15 23 3 15 23 3 15 23 3 15 23 3 15 23 3 15 23 3 15 23 3 15 23 3 15 23 3 15 23 3 15 23 3 15 23 3 15 23 3 15 23 3 15 23 3 15 23 3 15 23 3 15 23 3 15 23 3 15 21 3 15 23 3 15 23 3 15 21 3 15 21 3 15 23 3 15 23 3 15 21 3 15 23 3 15 23 3 15 23 3 15 23 3 15 23 3 15 23 3 15 23 3 15 21 3 15 23 3 15 23 3 15 23 3 15 23 3 15 23 3 15 23 3 15 23 3 15 23 3 15 23 3 15 23 3 15 23 3 15 23 3 15 23 3 15 23 3 15 21 3 15 21 3 15 23 3 15 23 3 15 23 3 15 23 3 15 21 3 15 23 3 15 23 3 15 24 4 16 21 3 15 23 3 15 23 3 15 23 3 15 109 98 106 255 255 255 255 255 255 255 255 255 255 255 255 255 255 255 255 255 255 255 255 255 255 255 255 255 255 255 255 255 255 255 255 255 255 255 255 255 255 255 255 255 255 255 255 255 255 255 255 255 255 255 255 255 255 255 255 255 255 255 255 255 255 255 255 255 255 255 255 255 255 255 255 255 255 255 255 255 255 255 255 255 255 255 255 255 255 255 255 255 255 255 255 255 
21 3 15 23 3 15 23 3 15 21 3 15 23 3 15 24 4 16 24 4 16 23 3 15 23 3 15 23 3 15 23 3 15 23 3 15 23 3 15 23 3 15 23 3 15 23 3 15 23 3 15 23 3 15 23 3 15 23 3 15 23 3 15 23 3 15 23 3 15 23 3 15 23 3 15 23 3 15 23 3 15 23 3 15 23 3 15 23 3 15 23 3 15 23 3 15 23 3 15 23 3 15 23 3 15 23 3 15 23 3 15 23 3 15 23 3 15 23 3 15 23 3 15 23 3 15 23 3 15 23 3 15 23 3 15 23 3 15 23 3 15 23 3 15 21 3 15 23 3 15 21 3 15 23 3 15 23 3 15 24 2 15 23 3 15 23 3 15 23 3 15 23 3 15 23 3 15 23 3 15 21 3 15 23 3 15 21 3 15 23 3 15 23 3 15 23 3 15 23 3 15 23 3 15 109 98 106 255 255 255 255 255 255 255 255 255 255 255 255 255 255 255 255 255 255 255 255 255 255 255 255 255 255 255 255 255 255 255 255 255 255 255 255 255 255 255 255 255 255 255 255 255 255 255 255 255 255 255 255 255 255 255 255 255 255 255 255 255 255 255 255 255 255 255 255 255 255 255 255 255 255 255 255 255 255 255 255 255 255 255 255 255 255 255 255 255 255 255 255 255 
23 3 15 23 3 15 21 3 15 21 3 15 21 3 15 23 3 15 23 3 15 23 3 15 24 4 16 21 3 15 23 3 15 23 3 15 22 4 16 21 3 15 22 1 16 23 3 15 23 3 15 24 2 15 23 3 15 23 3 15 23 3 15 23 3 15 23 3 15 23 3 15 23 3 15 23 3 15 21 3 15 23 3 15 21 3 15 21 5 16 24 4 16 24 4 16 21 3 15 23 3 15 23 3 15 23 3 15 21 3 15 23 3 15 23 3 15 23 3 15 21 3 15 23 3 15 21 3 15 23 3 15 21 3 15 23 3 15 21 3 15 23 3 15 21 3 15 23 3 15 23 3 15 21 3 15 21 3 15 23 3 15 23 3 15 21 3 15 23 3 15 23 3 15 21 3 15 23 3 15 23 3 15 23 3 15 23 3 15 21 3 15 21 3 15 23 3 15 21 3 15 21 3 15 109 98 106 255 255 255 255 255 255 255 255 255 255 255 255 255 255 255 255 255 255 255 255 255 255 255 255 255 255 255 255 255 255 255 255 255 255 255 255 255 255 255 255 255 255 255 255 255 255 255 255 255 255 255 255 255 255 255 255 255 255 255 255 255 255 255 255 255 255 255 255 255 255 255 255 255 255 255 255 255 255 255 255 255 255 255 255 255 255 255 255 255 255 255 255 255 
23 3 15 23 3 15 21 3 15 21 3 15 21 3 15 23 3 15 23 3 15 23 3 15 24 4 16 23 3 15 24 4 16 23 3 15 24 4 16 29 5 21 29 5 21 24 4 16 23 3 15 23 3 15 23 3 15 23 3 15 23 3 15 23 3 15 23 3 15 23 3 15 22 4 16 23 3 15 23 3 15 24 4 16 25 2 18 27 3 17 24 4 16 20 4 15 23 3 15 23 3 15 24 4 16 22 4 16 24 4 16 24 4 16 23 3 15 21 3 15 23 3 15 23 3 15 23 3 15 23 3 15 23 3 15 23 3 15 23 3 15 23 3 15 21 3 15 23 3 15 23 3 15 21 3 15 21 3 15 23 3 15 23 3 15 21 3 15 23 3 15 23 3 15 23 3 15 23 3 15 23 3 15 23 3 15 23 3 15 23 3 15 21 3 15 21 3 15 23 3 15 21 3 15 109 98 106 255 255 255 255 255 255 255 255 255 255 255 255 255 255 255 255 255 255 255 255 255 255 255 255 255 255 255 255 255 255 255 255 255 255 255 255 255 255 255 255 255 255 255 255 255 255 255 255 255 255 255 255 255 255 255 255 255 255 255 255 255 255 255 255 255 255 255 255 255 255 255 255 255 255 255 255 255 255 255 255 255 255 255 255 255 255 255 255 255 255 255 255 255 
23 3 15 23 3 15 21 3 15 21 3 15 21 3 15 23 3 15 23 3 15 23 3 15 21 3 15 20 2 14 24 4 16 22 4 16 25 3 16 34 3 21 33 4 24 26 4 17 23 3 15 23 3 15 23 3 15 23 3 15 23 3 15 23 3 15 23 3 15 23 3 15 23 2 17 23 3 15 21 3 15 24 3 18 31 4 21 31 4 21 24 3 18 21 3 15 23 3 15 21 3 15 21 3 15 23 3 15 23 3 15 23 3 15 21 3 15 23 3 15 21 3 15 23 3 15 21 3 15 23 3 15 21 3 15 23 3 15 21 3 15 23 3 15 23 3 15 23 3 15 23 3 15 23 3 15 23 3 15 23 3 15 23 3 15 23 3 15 21 3 15 24 2 15 23 3 15 23 3 15 21 3 15 21 3 15 23 3 15 23 3 15 23 3 15 23 3 15 23 3 15 23 3 15 109 98 106 255 255 255 255 255 255 255 255 255 255 255 255 255 255 255 255 255 255 255 255 255 255 255 255 255 255 255 255 255 255 255 255 255 255 255 255 255 255 255 255 255 255 255 255 255 255 255 255 255 255 255 255 255 255 255 255 255 255 255 255 255 255 255 255 255 255 255 255 255 255 255 255 255 255 255 255 255 255 255 255 255 255 255 255 255 255 255 255 255 255 255 255 255 
23 3 15 23 3 15 21 3 15 21 3 15 21 3 15 23 3 15 23 3 15 23 3 15 21 3 15 20 4 15 21 3 15 23 3 15 26 4 17 33 4 22 32 5 24 26 3 19 23 3 15 23 3 15 23 3 15 23 3 15 23 3 15 23 3 15 21 3 15 23 3 15 23 3 15 23 3 15 23 3 15 26 4 17 31 4 21 29 5 21 25 5 17 23 3 15 23 3 15 23 3 15 23 3 15 23 3 15 23 3 15 21 3 15 21 3 15 23 3 15 23 3 15 23 3 15 23 3 15 23 3 15 23 3 15 23 3 15 23 3 15 23 3 15 23 3 15 23 3 15 23 3 15 23 3 15 23 3 15 23 3 15 23 3 15 23 3 15 23 3 15 23 3 15 23 3 15 23 3 15 23 3 15 21 3 15 23 3 15 23 3 15 23 3 15 23 3 15 21 3 15 23 3 15 109 98 106 255 255 255 255 255 255 255 255 255 255 255 255 255 255 255 255 255 255 255 255 255 255 255 255 255 255 255 255 255 255 255 255 255 255 255 255 255 255 255 255 255 255 255 255 255 255 255 255 255 255 255 255 255 255 255 255 255 255 255 255 255 255 255 255 255 255 255 255 255 255 255 255 255 255 255 255 255 255 255 255 255 255 255 255 255 255 255 255 255 255 255 255 255 
23 3 15 23 3 15 21 3 15 21 3 15 21 3 15 23 3 15 23 3 15 23 3 15 21 3 15 24 4 16 24 4 16 24 2 15 25 3 16 31 4 21 30 3 22 25 2 18 21 3 15 23 3 15 23 3 15 21 3 15 23 3 15 23 3 15 21 3 15 23 3 15 23 3 15 21 3 15 23 3 15 25 4 19 32 5 22 33 4 22 24 4 16 21 3 15 23 3 15 23 3 15 23 3 15 24 4 16 24 4 16 21 3 15 21 3 15 23 3 15 21 3 15 23 3 15 21 3 15 23 3 15 21 3 15 23 3 15 21 3 15 23 3 15 23 3 15 23 3 15 23 3 15 23 3 15 23 3 15 23 3 15 23 3 15 23 3 15 23 3 15 23 3 15 21 3 15 23 3 15 23 3 15 23 3 15 23 3 15 23 3 15 23 3 15 21 3 15 23 3 15 23 3 15 110 97 106 255 255 255 255 255 255 255 255 255 255 255 255 255 255 255 255 255 255 255 255 255 255 255 255 255 255 255 255 255 255 255 255 255 255 255 255 255 255 255 255 255 255 255 255 255 255 255 255 255 255 255 255 255 255 255 255 255 255 255 255 255 255 255 255 255 255 255 255 255 255 255 255 255 255 255 255 255 255 255 255 255 255 255 255 255 255 255 255 255 255 255 255 255 
23 3 15 23 3 15 21 3 15 21 3 15 21 3 15 23 3 15 23 3 15 23 3 15 21 3 15 23 3 15 24 4 16 24 4 16 25 3 16 31 4 21 32 3 23 26 3 19 23 3 15 21 3 15 23 3 15 23 3 15 21 3 15 23 3 15 23 3 15 21 3 15 23 3 15 21 3 17 23 3 15 26 3 19 31 4 23 31 4 23 24 4 16 24 4 16 23 3 15 21 3 15 21 3 15 23 3 15 23 3 15 23 3 15 21 3 15 23 3 15 23 3 15 23 3 15 23 3 15 23 3 15 23 3 15 23 3 15 23 3 15 23 3 15 23 3 15 23 3 15 23 3 15 23 3 15 23 3 15 23 3 15 23 3 15 23 3 15 23 3 15 23 3 15 21 3 15 21 3 15 23 3 15 23 3 15 24 2 15 21 3 15 23 3 15 23 3 15 23 3 15 23 3 15 109 98 106 255 255 255 255 255 255 255 255 255 255 255 255 255 255 255 255 255 255 255 255 255 255 255 255 255 255 255 255 255 255 255 255 255 255 255 255 255 255 255 255 255 255 255 255 255 255 255 255 255 255 255 255 255 255 255 255 255 255 255 255 255 255 255 255 255 255 255 255 255 255 255 255 255 255 255 255 255 255 255 255 255 255 255 255 255 255 255 255 255 255 255 255 255 
23 3 15 23 3 15 21 3 15 21 3 15 21 3 15 23 3 15 23 3 15 23 3 15 21 3 15 21 3 15 21 3 15 23 3 15 25 3 16 31 4 21 31 4 23 25 2 18 23 3 15 21 3 15 23 3 15 23 3 15 21 3 15 21 3 15 23 3 15 21 3 15 23 3 15 23 3 15 23 3 15 26 4 17 31 4 23 31 4 21 25 3 16 21 3 15 23 3 15 23 3 15 23 3 15 21 3 15 23 3 15 23 3 15 23 3 15 21 3 15 21 3 15 23 3 15 21 3 15 23 3 15 21 3 15 23 3 15 21 3 15 23 3 15 21 3 15 23 3 15 23 3 15 21 3 15 21 3 15 23 3 15 23 3 15 21 3 15 23 3 15 23 3 15 23 3 15 23 3 15 23 3 15 23 3 15 23 3 15 23 3 15 21 3 15 23 3 15 21 3 15 23 3 15 109 98 106 255 255 255 255 255 255 255 255 255 255 255 255 255 255 255 255 255 255 255 255 255 255 255 255 255 255 255 255 255 255 255 255 255 255 255 255 255 255 255 255 255 255 255 255 255 255 255 255 255 255 255 255 255 255 255 255 255 255 255 255 255 255 255 255 255 255 255 255 255 255 255 255 255 255 255 255 255 255 255 255 255 255 255 255 255 255 255 255 255 255 255 255 255 
23 3 15 23 3 15 21 3 15 21 3 15 21 3 15 23 3 15 23 3 15 23 3 15 23 3 15 23 3 15 23 3 15 23 3 15 26 4 17 32 5 22 31 4 23 25 4 19 21 3 15 23 3 15 21 3 15 21 3 15 23 3 15 21 3 15 21 3 15 23 3 15 23 3 15 23 2 17 23 3 14 26 4 17 31 4 21 31 4 21 24 4 16 24 4 16 21 3 15 23 3 15 23 3 15 23 3 15 21 3 15 23 3 15 23 3 15 23 3 15 23 3 15 23 3 15 23 3 15 23 3 15 23 3 15 23 3 15 23 3 15 23 3 15 21 3 15 23 3 15 23 3 15 21 3 15 21 3 15 23 3 15 23 3 15 21 3 15 21 3 15 23 3 15 23 3 15 23 3 15 23 3 15 21 3 15 23 3 15 23 3 15 21 3 15 23 3 15 23 3 15 21 3 15 109 98 106 255 255 255 255 255 255 255 255 255 255 255 255 255 255 255 255 255 255 255 255 255 255 255 255 255 255 255 255 255 255 255 255 255 255 255 255 255 255 255 255 255 255 255 255 255 255 255 255 255 255 255 255 255 255 255 255 255 255 255 255 255 255 255 255 255 255 255 255 255 255 255 255 255 255 255 255 255 255 255 255 255 255 255 255 255 255 255 255 255 255 255 255 255 
23 3 15 23 3 15 23 3 15 23 3 15 23 3 15 23 3 15 23 3 15 23 3 15 23 3 15 23 3 15 21 3 15 23 3 15 26 4 17 31 4 21 31 4 23 25 2 18 23 3 15 23 3 15 23 3 15 23 3 15 23 3 15 23 3 15 23 3 15 23 3 15 23 3 15 21 3 15 23 3 15 26 4 17 31 4 21 31 4 23 25 3 16 23 3 15 23 3 15 23 3 15 23 3 15 23 3 15 23 3 15 23 3 15 23 3 15 23 3 15 23 3 15 23 3 15 23 3 15 23 3 15 23 3 15 23 3 15 23 3 15 23 3 15 23 3 15 23 3 15 23 3 15 23 3 15 23 3 15 23 3 15 23 3 15 23 3 15 23 3 15 23 3 15 23 3 15 23 3 15 23 3 15 23 3 15 23 3 15 23 3 15 21 3 15 21 3 15 21 3 15 23 3 15 109 98 106 255 255 255 255 255 255 255 255 255 255 255 255 255 255 255 255 255 255 255 255 255 255 255 255 255 255 255 255 255 255 255 255 255 255 255 255 255 255 255 255 255 255 255 255 255 255 255 255 255 255 255 255 255 255 255 255 255 255 255 255 255 255 255 255 255 255 255 255 255 255 255 255 255 255 255 255 255 255 255 255 255 255 255 255 255 255 255 255 255 255 255 255 255 
23 3 15 23 3 15 23 3 15 23 3 15 23 3 15 23 3 15 23 3 15 23 3 15 23 3 15 23 3 15 21 3 15 23 3 15 25 3 16 31 4 21 31 4 23 26 3 19 23 3 15 23 3 15 21 3 15 23 3 15 23 3 15 23 3 15 23 3 15 21 3 15 21 3 15 23 3 15 23 3 15 25 5 17 31 4 21 31 4 23 24 4 16 23 3 15 23 3 15 23 3 15 23 3 15 23 3 15 23 3 15 23 3 15 23 3 15 23 3 15 23 3 15 23 3 15 23 3 15 23 3 15 23 3 15 23 3 15 23 3 15 23 3 15 23 3 15 23 3 15 23 3 15 23 3 15 23 3 15 23 3 15 23 3 15 23 3 15 23 3 15 23 3 15 23 3 15 23 3 15 23 3 15 23 3 15 23 3 15 23 3 15 21 3 15 21 3 15 21 3 15 23 3 15 109 98 106 255 255 255 255 255 255 255 255 255 255 255 255 255 255 255 255 255 255 255 255 255 255 255 255 255 255 255 255 255 255 255 255 255 255 255 255 255 255 255 255 255 255 255 255 255 255 255 255 255 255 255 255 255 255 255 255 255 255 255 255 255 255 255 255 255 255 255 255 255 255 255 255 255 255 255 255 255 255 255 255 255 255 255 255 255 255 255 255 255 255 255 255 255 
23 3 15 23 3 15 23 3 15 23 3 15 23 3 15 23 3 15 23 3 15 23 3 15 23 3 15 23 3 15 21 3 15 23 3 15 25 3 16 31 4 21 31 4 23 26 3 19 21 3 15 23 3 15 23 3 15 23 3 15 23 3 15 21 3 15 23 3 15 23 3 15 23 3 15 21 3 15 21 3 15 26 4 17 31 4 21 31 4 23 24 4 16 23 3 15 23 3 15 23 3 15 23 3 15 23 3 15 23 3 15 23 3 15 23 3 15 23 3 15 23 3 15 23 3 15 23 3 15 23 3 15 23 3 15 23 3 15 23 3 15 23 3 15 23 3 15 23 3 15 23 3 15 23 3 15 23 3 15 23 3 15 23 3 15 23 3 15 23 3 15 23 3 15 23 3 15 23 3 15 23 3 15 23 3 15 23 3 15 23 3 15 21 3 15 21 3 15 21 3 15 23 3 15 109 98 106 255 255 255 255 255 255 255 255 255 255 255 255 255 255 255 255 255 255 255 255 255 255 255 255 255 255 255 255 255 255 255 255 255 255 255 255 255 255 255 255 255 255 255 255 255 255 255 255 255 255 255 255 255 255 255 255 255 255 255 255 255 255 255 255 255 255 255 255 255 255 255 255 255 255 255 255 255 255 255 255 255 255 255 255 255 255 255 255 255 255 255 255 255 
23 3 15 23 3 15 23 3 15 23 3 15 23 3 15 23 3 15 23 3 15 23 3 15 23 3 15 23 3 15 21 3 15 23 3 15 26 4 17 31 4 21 31 4 23 25 2 18 23 3 15 23 3 15 23 3 15 23 3 15 23 3 15 23 3 15 23 3 15 23 3 15 21 3 15 23 3 15 23 3 15 26 4 17 31 4 21 31 4 23 25 3 16 23 3 15 23 3 15 23 3 15 23 3 15 23 3 15 23 3 15 23 3 15 23 3 15 23 3 15 23 3 15 23 3 15 23 3 15 23 3 15 23 3 15 23 3 15 23 3 15 23 3 15 23 3 15 23 3 15 23 3 15 23 3 15 23 3 15 23 3 15 23 3 15 23 3 15 23 3 15 23 3 15 23 3 15 23 3 15 23 3 15 23 3 15 23 3 15 23 3 15 21 3 15 21 3 15 21 3 15 23 3 15 109 98 106 255 255 255 255 255 255 255 255 255 255 255 255 255 255 255 255 255 255 255 255 255 255 255 255 255 255 255 255 255 255 255 255 255 255 255 255 255 255 255 255 255 255 255 255 255 255 255 255 255 255 255 255 255 255 255 255 255 255 255 255 255 255 255 255 255 255 255 255 255 255 255 255 255 255 255 255 255 255 255 255 255 255 255 255 255 255 255 255 255 255 255 255 255 
23 3 15 23 3 15 23 3 15 23 3 15 23 3 15 23 3 15 23 3 15 23 3 15 23 3 15 23 3 15 21 3 15 23 3 15 26 4 17 31 4 21 31 4 23 25 2 18 23 3 15 23 3 15 23 3 15 23 3 15 23 3 15 23 3 15 23 3 15 23 3 15 23 3 15 23 3 15 20 4 15 27 3 17 31 4 21 31 4 23 24 4 16 23 3 15 23 3 15 23 3 15 23 3 15 23 3 15 23 3 15 23 3 15 23 3 15 23 3 15 23 3 15 23 3 15 23 3 15 23 3 15 23 3 15 23 3 15 23 3 15 23 3 15 23 3 15 23 3 15 23 3 15 23 3 15 23 3 15 23 3 15 23 3 15 23 3 15 23 3 15 23 3 15 23 3 15 23 3 15 23 3 15 23 3 15 23 3 15 23 3 15 21 3 15 21 3 15 21 3 15 23 3 15 109 98 106 255 255 255 255 255 255 255 255 255 255 255 255 255 255 255 255 255 255 255 255 255 255 255 255 255 255 255 255 255 255 255 255 255 255 255 255 255 255 255 255 255 255 255 255 255 255 255 255 255 255 255 255 255 255 255 255 255 255 255 255 255 255 255 255 255 255 255 255 255 255 255 255 255 255 255 255 255 255 255 255 255 255 255 255 255 255 255 255 255 255 255 255 255 
23 3 15 23 3 15 23 3 15 23 3 15 23 3 15 23 3 15 23 3 15 23 3 15 23 3 15 23 3 15 21 3 15 23 3 15 25 3 16 31 4 21 31 4 23 26 3 19 21 3 15 23 3 15 23 3 15 23 3 15 23 3 15 21 3 15 23 3 15 23 3 15 21 3 15 24 2 15 23 3 15 25 5 17 31 4 21 31 4 23 25 3 16 23 3 15 23 3 15 23 3 15 23 3 15 23 3 15 23 3 15 23 3 15 23 3 15 23 3 15 23 3 15 23 3 15 23 3 15 23 3 15 23 3 15 23 3 15 23 3 15 23 3 15 23 3 15 23 3 15 23 3 15 23 3 15 23 3 15 23 3 15 23 3 15 23 3 15 23 3 15 23 3 15 23 3 15 23 3 15 23 3 15 23 3 15 23 3 15 23 3 15 21 3 15 21 3 15 21 3 15 23 3 15 109 98 106 255 255 255 255 255 255 255 255 255 255 255 255 255 255 255 255 255 255 255 255 255 255 255 255 255 255 255 255 255 255 255 255 255 255 255 255 255 255 255 255 255 255 255 255 255 255 255 255 255 255 255 255 255 255 255 255 255 255 255 255 255 255 255 255 255 255 255 255 255 255 255 255 255 255 255 255 255 255 255 255 255 255 255 255 255 255 255 255 255 255 255 255 255 
23 3 15 23 3 15 23 3 15 23 3 15 23 3 15 23 3 15 23 3 15 23 3 15 23 3 15 23 3 15 21 3 15 23 3 15 25 3 16 31 4 21 31 4 23 26 3 19 23 3 15 23 3 15 21 3 15 23 3 15 23 3 15 23 3 15 23 3 15 21 3 15 23 3 15 21 3 15 23 3 15 26 4 17 31 4 21 31 4 23 25 3 16 23 3 15 23 3 15 23 3 15 23 3 15 23 3 15 23 3 15 23 3 15 23 3 15 23 3 15 23 3 15 23 3 15 23 3 15 23 3 15 23 3 15 23 3 15 23 3 15 23 3 15 23 3 15 23 3 15 23 3 15 23 3 15 23 3 15 23 3 15 23 3 15 23 3 15 21 3 15 21 3 15 21 3 15 21 3 15 21 3 15 21 3 15 21 3 15 21 3 15 21 3 15 21 3 15 21 3 15 23 3 15 109 98 106 255 255 255 255 255 255 255 255 255 255 255 255 255 255 255 255 255 255 255 255 255 255 255 255 255 255 255 255 255 255 255 255 255 255 255 255 255 255 255 255 255 255 255 255 255 255 255 255 255 255 255 255 255 255 255 255 255 255 255 255 255 255 255 255 255 255 255 255 255 255 255 255 255 255 255 255 255 255 255 255 255 255 255 255 255 255 255 255 255 255 255 255 255 
23 3 15 23 3 15 23 3 15 23 3 15 23 3 15 23 3 15 23 3 15 23 3 15 23 3 15 23 3 15 21 3 15 23 3 15 26 4 17 31 4 21 31 4 23 25 2 18 23 3 15 23 3 15 23 3 15 23 3 15 23 3 15 23 3 15 23 3 15 23 3 15 21 3 15 21 3 15 23 3 15 25 5 17 31 4 21 31 4 23 24 4 16 23 3 15 23 3 15 23 3 15 23 3 15 23 3 15 23 3 15 23 3 15 23 3 15 23 3 15 23 3 15 23 3 15 23 3 15 23 3 15 23 3 15 23 3 15 23 3 15 23 3 15 23 3 15 23 3 15 23 3 15 23 3 15 23 3 15 23 3 15 23 3 15 23 3 15 21 3 15 21 3 15 21 3 15 21 3 15 21 3 15 21 3 15 21 3 15 21 3 15 21 3 15 21 3 15 21 3 15 23 3 15 109 98 106 255 255 255 255 255 255 255 255 255 255 255 255 255 255 255 255 255 255 255 255 255 255 255 255 255 255 255 255 255 255 255 255 255 255 255 255 255 255 255 255 255 255 255 255 255 255 255 255 255 255 255 255 255 255 255 255 255 255 255 255 255 255 255 255 255 255 255 255 255 255 255 255 255 255 255 255 255 255 255 255 255 255 255 255 255 255 255 255 255 255 255 255 255 
23 3 15 23 3 15 23 3 15 23 3 15 23 3 15 23 3 15 23 3 15 23 3 15 23 3 15 23 3 15 21 3 15 23 3 15 25 3 16 31 4 23 31 4 23 25 2 18 23 3 15 23 2 17 23 3 15 23 3 15 23 3 15 23 3 15 23 3 15 23 2 17 21 3 15 23 3 15 23 3 15 26 4 17 31 4 21 31 4 23 24 3 18 21 3 15 23 3 15 23 3 15 23 3 15 23 3 15 23 3 15 23 3 15 23 3 15 23 3 15 23 3 15 23 3 15 23 3 15 23 3 15 23 2 17 23 3 15 23 3 15 23 2 17 23 3 15 23 3 15 23 3 15 23 3 15 23 3 15 23 3 15 23 3 15 23 3 15 23 3 15 23 3 15 23 3 15 23 3 15 23 3 15 23 3 15 23 3 15 23 3 15 21 3 15 23 3 15 23 3 15 23 3 15 109 98 106 255 255 255 255 255 255 255 255 255 255 255 255 255 255 255 255 255 255 255 255 255 255 255 255 255 255 255 255 255 255 255 255 255 255 255 255 255 255 255 255 255 255 255 255 255 255 255 255 255 255 255 255 255 255 255 255 255 255 255 255 255 255 255 255 255 255 255 255 255 255 255 255 255 255 255 255 255 255 255 255 255 255 255 255 255 255 255 255 255 255 255 255 255 
23 3 15 23 3 15 23 3 15 23 3 15 23 3 15 23 3 15 23 3 15 23 3 15 24 2 15 21 3 15 23 3 15 20 4 15 25 3 16 31 4 23 31 4 23 25 2 18 23 3 15 23 3 15 23 3 15 23 3 15 23 3 15 23 3 15 23 3 15 23 3 15 21 3 15 23 3 15 23 3 15 26 4 17 31 4 21 31 4 23 24 3 18 21 3 15 23 3 15 23 3 15 23 3 15 23 3 15 23 3 15 23 3 15 23 3 15 23 3 15 23 2 17 23 3 15 23 3 15 23 2 17 23 3 15 23 3 15 23 3 15 23 3 15 23 3 15 23 3 15 23 3 15 23 3 15 23 3 15 23 3 15 23 3 15 23 3 15 23 3 15 23 3 15 23 3 15 23 3 15 23 3 15 23 3 15 23 3 15 23 3 15 21 3 15 23 3 15 23 3 15 23 3 15 109 98 106 255 255 255 255 255 255 255 255 255 255 255 255 255 255 255 255 255 255 255 255 255 255 255 255 255 255 255 255 255 255 255 255 255 255 255 255 255 255 255 255 255 255 255 255 255 255 255 255 255 255 255 255 255 255 255 255 255 255 255 255 255 255 255 255 255 255 255 255 255 255 255 255 255 255 255 255 255 255 255 255 255 255 255 255 255 255 255 255 255 255 255 255 255 
23 3 15 23 3 15 23 3 15 23 3 15 23 3 15 23 3 15 23 3 15 23 3 15 23 3 15 23 3 15 23 3 15 23 3 15 26 2 16 31 4 23 32 3 23 25 2 18 23 3 15 23 3 15 23 3 15 23 3 15 23 3 15 23 3 15 23 3 15 23 3 15 21 3 15 23 3 15 23 3 15 26 4 17 31 4 21 31 4 23 24 3 18 21 3 15 23 3 15 23 3 15 23 3 15 23 3 15 23 3 15 23 3 15 23 3 15 23 3 15 23 3 15 23 3 15 23 3 15 23 3 15 23 3 15 23 2 17 23 3 15 23 3 15 23 3 15 23 3 15 23 3 15 23 3 15 23 3 15 23 3 15 23 3 15 23 3 15 23 3 15 23 3 15 23 3 15 23 3 15 23 3 15 23 3 15 23 3 15 23 3 15 21 3 15 23 3 15 23 3 15 23 3 15 109 98 106 255 255 255 255 255 255 255 255 255 255 255 255 255 255 255 255 255 255 255 255 255 255 255 255 255 255 255 255 255 255 255 255 255 255 255 255 255 255 255 255 255 255 255 255 255 255 255 255 255 255 255 255 255 255 255 255 255 255 255 255 255 255 255 255 255 255 255 255 255 255 255 255 255 255 255 255 255 255 255 255 255 255 255 255 255 255 255 255 255 255 255 255 255 
23 3 15 23 3 15 23 3 15 23 3 15 23 3 15 23 3 15 23 3 15 23 3 15 21 3 15 23 3 15 21 3 15 23 3 15 24 4 16 31 4 23 31 4 23 25 2 18 23 3 15 23 3 15 23 3 15 23 3 15 23 3 15 23 3 15 23 3 15 23 3 15 21 3 15 23 3 15 23 3 15 26 4 17 31 4 21 31 4 23 24 3 18 21 3 15 23 3 15 23 3 15 23 3 15 23 3 15 23 3 15 23 3 15 23 3 15 23 3 15 23 3 15 23 3 15 23 3 15 23 2 17 23 3 15 23 3 15 23 3 15 23 2 17 23 3 15 23 3 15 23 3 15 23 3 15 23 3 15 23 3 15 23 3 15 23 3 15 23 3 15 23 3 15 23 3 15 23 3 15 23 3 15 23 3 15 23 3 15 23 3 15 21 3 15 23 3 15 23 3 15 23 3 15 109 98 106 255 255 255 255 255 255 255 255 255 255 255 255 255 255 255 255 255 255 255 255 255 255 255 255 255 255 255 255 255 255 255 255 255 255 255 255 255 255 255 255 255 255 255 255 255 255 255 255 255 255 255 255 255 255 255 255 255 255 255 255 255 255 255 255 255 255 255 255 255 255 255 255 255 255 255 255 255 255 255 255 255 255 255 255 255 255 255 255 255 255 255 255 255 
23 3 15 23 3 15 23 3 15 23 3 15 23 3 15 23 3 15 23 3 15 23 3 15 23 3 15 21 3 15 23 3 15 21 3 15 25 3 16 31 4 23 31 4 23 25 2 18 23 3 14 23 3 15 23 2 17 23 3 15 23 2 19 23 3 15 23 3 15 23 3 15 21 3 15 23 3 15 23 3 15 26 4 17 31 4 21 31 4 23 24 3 18 21 3 15 23 3 15 23 3 15 23 3 15 23 3 15 23 3 15 23 3 15 23 3 15 23 3 15 23 3 15 23 3 15 23 2 17 23 3 14 23 3 15 23 3 15 23 3 15 23 3 15 23 3 15 23 3 15 23 3 15 23 3 15 23 3 15 23 3 15 23 3 15 23 3 15 23 3 15 23 3 15 23 3 15 23 3 15 23 3 15 23 3 15 23 3 15 23 3 15 21 3 15 23 3 15 23 3 15 23 3 15 109 98 106 255 255 255 255 255 255 255 255 255 255 255 255 255 255 255 255 255 255 255 255 255 255 255 255 255 255 255 255 255 255 255 255 255 255 255 255 255 255 255 255 255 255 255 255 255 255 255 255 255 255 255 255 255 255 255 255 255 255 255 255 255 255 255 255 255 255 255 255 255 255 255 255 255 255 255 255 255 255 255 255 255 255 255 255 255 255 255 255 255 255 255 255 255 
23 3 15 23 3 15 23 3 15 23 3 15 23 3 15 23 3 15 23 3 15 23 3 15 21 3 15 23 3 15 23 3 15 23 3 15 25 3 16 31 4 23 31 4 23 25 2 18 23 3 15 23 2 17 23 2 17 23 3 15 23 3 15 23 3 15 23 3 15 23 2 17 21 3 15 23 3 15 23 3 15 26 4 17 31 4 21 31 4 23 24 3 18 21 3 15 23 3 15 23 3 15 23 3 15 23 3 15 23 3 15 23 3 15 23 3 15 23 3 15 23 3 15 23 3 15 23 3 15 23 3 15 23 3 15 23 3 15 23 3 15 23 3 15 23 3 15 23 3 15 23 3 15 23 3 15 23 3 15 23 3 15 23 3 15 23 3 15 23 3 15 23 3 15 23 3 15 23 3 15 23 3 15 23 3 15 23 3 15 23 3 15 21 3 15 23 3 15 23 3 15 23 3 15 109 98 106 255 255 255 255 255 255 255 255 255 255 255 255 255 255 255 255 255 255 255 255 255 255 255 255 255 255 255 255 255 255 255 255 255 255 255 255 255 255 255 255 255 255 255 255 255 255 255 255 255 255 255 255 255 255 255 255 255 255 255 255 255 255 255 255 255 255 255 255 255 255 255 255 255 255 255 255 255 255 255 255 255 255 255 255 255 255 255 255 255 255 255 255 255 
23 3 15 23 3 15 23 3 15 23 3 15 23 3 15 23 3 15 23 3 15 23 3 15 21 3 15 23 3 15 23 3 15 23 3 15 24 4 16 31 4 23 31 4 23 25 2 18 23 3 15 23 2 17 23 3 15 23 3 15 23 3 15 23 3 15 23 3 15 23 2 17 21 3 15 23 3 15 23 3 15 26 4 17 31 4 21 31 4 23 24 3 18 21 3 15 23 3 15 23 3 15 23 3 15 23 3 15 23 3 15 23 3 15 23 3 15 23 3 15 23 3 15 23 3 15 23 3 15 23 3 15 23 3 15 23 3 15 23 2 17 23 3 15 23 3 15 23 3 15 23 3 15 23 3 15 23 3 15 23 3 15 23 3 15 23 3 15 23 3 15 23 3 15 23 3 15 23 3 15 23 3 15 23 3 15 23 3 15 23 3 15 21 3 15 23 3 15 23 3 15 23 3 15 109 98 106 255 255 255 255 255 255 255 255 255 255 255 255 255 255 255 255 255 255 255 255 255 255 255 255 255 255 255 255 255 255 255 255 255 255 255 255 255 255 255 255 255 255 255 255 255 255 255 255 255 255 255 255 255 255 255 255 255 255 255 255 255 255 255 255 255 255 255 255 255 255 255 255 255 255 255 255 255 255 255 255 255 255 255 255 255 255 255 255 255 255 255 255 255 
23 3 15 23 3 15 23 3 15 23 3 15 23 3 15 23 3 15 23 3 15 23 3 15 21 3 15 23 3 15 23 3 15 23 3 15 25 3 16 32 3 23 31 4 23 25 2 18 23 3 15 23 3 15 23 3 15 23 3 15 23 3 15 23 3 15 23 3 15 23 3 15 21 3 15 23 3 15 23 3 15 26 4 17 31 4 21 31 4 23 24 3 18 21 3 15 23 3 15 23 3 15 23 3 15 23 3 15 23 3 15 23 3 15 23 3 15 23 3 15 23 3 15 23 2 17 23 3 15 23 3 15 23 3 15 23 3 15 23 3 15 23 3 15 23 3 15 23 3 15 23 3 15 23 3 15 23 3 15 23 3 15 23 3 15 23 3 15 23 3 15 23 3 15 23 3 15 23 3 15 23 3 15 23 3 15 23 3 15 23 3 15 21 3 15 23 3 15 23 3 15 23 3 15 109 98 106 255 255 255 255 255 255 255 255 255 255 255 255 255 255 255 255 255 255 255 255 255 255 255 255 255 255 255 255 255 255 255 255 255 255 255 255 255 255 255 255 255 255 255 255 255 255 255 255 255 255 255 255 255 255 255 255 255 255 255 255 255 255 255 255 255 255 255 255 255 255 255 255 255 255 255 255 255 255 255 255 255 255 255 255 255 255 255 255 255 255 255 255 255 
23 3 15 23 3 15 23 3 15 23 3 15 23 3 15 23 3 15 23 3 15 23 3 15 21 3 15 23 3 15 23 3 15 23 3 15 25 3 16 31 4 21 31 4 21 25 2 18 23 3 15 23 3 15 23 3 15 23 3 15 23 3 15 23 3 15 23 3 15 23 3 15 23 3 15 23 2 17 23 3 15 26 4 17 31 4 21 31 4 23 24 4 16 21 3 15 23 3 15 23 3 15 23 3 15 23 3 15 23 3 15 23 3 15 23 3 15 23 3 15 23 3 15 23 3 15 23 3 15 23 3 15 23 3 15 23 3 15 23 3 15 23 3 15 23 3 15 23 3 15 23 3 15 23 3 15 23 3 15 23 3 15 23 3 15 23 3 15 23 3 15 23 3 15 23 3 15 23 3 15 23 3 15 23 3 15 23 3 15 23 3 15 21 3 15 21 3 15 21 3 15 23 3 15 109 98 106 255 255 255 255 255 255 255 255 255 255 255 255 255 255 255 255 255 255 255 255 255 255 255 255 255 255 255 255 255 255 255 255 255 255 255 255 255 255 255 255 255 255 255 255 255 255 255 255 255 255 255 255 255 255 255 255 255 255 255 255 255 255 255 255 255 255 255 255 255 255 255 255 255 255 255 255 255 255 255 255 255 255 255 255 255 255 255 255 255 255 255 255 255 
23 3 15 23 3 15 23 3 15 23 3 15 23 3 15 23 3 15 23 3 15 23 3 15 21 3 15 23 3 15 23 3 15 23 3 15 25 3 16 31 4 21 31 4 21 25 2 18 23 3 15 23 3 15 23 3 15 23 3 15 23 3 15 23 3 15 23 3 15 23 3 15 23 3 15 23 3 15 23 3 15 26 4 17 31 4 21 31 4 21 24 4 16 21 3 15 23 3 15 23 3 15 23 3 15 23 3 15 23 3 15 23 3 15 23 3 15 23 3 15 23 3 15 23 3 15 23 3 15 23 3 15 23 3 15 23 3 15 23 3 15 23 3 15 23 3 15 23 3 15 23 3 15 23 3 15 23 3 15 23 3 15 23 3 15 23 3 15 23 3 15 23 3 15 23 3 15 23 3 15 23 3 15 23 3 15 23 3 15 23 3 15 21 3 15 21 3 15 21 3 15 23 3 15 109 98 106 255 255 255 255 255 255 255 255 255 255 255 255 255 255 255 255 255 255 255 255 255 255 255 255 255 255 255 255 255 255 255 255 255 255 255 255 255 255 255 255 255 255 255 255 255 255 255 255 255 255 255 255 255 255 255 255 255 255 255 255 255 255 255 255 255 255 255 255 255 255 255 255 255 255 255 255 255 255 255 255 255 255 255 255 255 255 255 255 255 255 255 255 255 
23 3 15 23 3 15 23 3 15 23 3 15 23 3 15 23 3 15 23 3 15 23 3 15 21 3 15 23 3 15 23 3 15 23 3 15 25 3 16 31 4 21 31 4 21 25 2 18 23 3 15 23 3 15 23 3 15 23 3 15 23 3 15 23 3 15 23 3 15 23 3 15 23 3 15 23 3 15 23 3 15 26 4 17 31 4 21 31 4 23 24 4 16 21 3 15 23 3 15 23 3 15 23 3 15 23 3 15 23 3 15 23 3 15 23 3 15 23 3 15 23 3 15 23 3 15 23 3 15 23 3 15 23 3 15 23 3 15 23 3 15 23 3 15 23 3 15 23 3 15 23 3 15 23 3 15 23 3 15 23 3 15 23 3 15 23 3 15 23 3 15 23 3 15 23 3 15 23 3 15 23 3 15 23 3 15 23 3 15 23 3 15 21 3 15 21 3 15 21 3 15 23 3 15 109 98 106 255 255 255 255 255 255 255 255 255 255 255 255 255 255 255 255 255 255 255 255 255 255 255 255 255 255 255 255 255 255 255 255 255 255 255 255 255 255 255 255 255 255 255 255 255 255 255 255 255 255 255 255 255 255 255 255 255 255 255 255 255 255 255 255 255 255 255 255 255 255 255 255 255 255 255 255 255 255 255 255 255 255 255 255 255 255 255 255 255 255 255 255 255 
23 3 15 23 3 15 23 3 15 23 3 15 23 3 15 23 3 15 23 3 15 23 3 15 21 3 15 23 3 15 23 3 15 23 3 15 25 3 16 31 4 21 31 4 21 25 2 18 23 3 15 23 3 15 23 3 15 23 3 15 23 3 15 23 3 15 23 3 15 23 3 15 23 3 15 23 2 17 23 3 15 26 4 17 31 4 21 31 4 21 24 3 18 21 3 15 23 3 15 23 3 15 23 3 15 23 3 15 23 3 15 23 3 15 23 3 15 23 3 15 23 3 15 23 3 15 23 3 15 23 3 15 23 3 15 23 3 15 23 3 15 23 3 15 23 3 15 23 3 15 23 3 15 23 3 15 23 3 15 23 3 15 23 3 15 23 3 15 23 3 15 23 3 15 23 3 15 23 3 15 23 3 15 23 3 15 23 3 15 23 3 15 21 3 15 21 3 15 21 3 15 23 3 15 109 98 106 255 255 255 255 255 255 255 255 255 255 255 255 255 255 255 255 255 255 255 255 255 255 255 255 255 255 255 255 255 255 255 255 255 255 255 255 255 255 255 255 255 255 255 255 255 255 255 255 255 255 255 255 255 255 255 255 255 255 255 255 255 255 255 255 255 255 255 255 255 255 255 255 255 255 255 255 255 255 255 255 255 255 255 255 255 255 255 255 255 255 255 255 255 
23 3 15 23 3 15 23 3 15 23 3 15 23 3 15 23 3 15 23 3 15 23 3 15 21 3 15 23 3 15 23 3 15 23 3 15 25 3 16 31 4 21 31 4 21 25 2 18 23 3 15 23 3 15 23 3 15 23 3 15 23 3 15 23 3 15 23 3 15 23 3 15 23 3 15 23 3 15 23 3 15 26 4 17 31 4 21 31 4 21 24 4 16 21 3 15 23 3 15 23 3 15 23 3 15 23 3 15 23 3 15 23 3 15 23 3 15 23 3 15 23 3 15 23 3 15 23 3 15 23 3 15 23 3 15 23 3 15 23 3 15 23 3 15 23 3 15 23 3 15 23 3 15 23 3 15 23 3 15 23 3 15 23 3 15 23 3 15 23 3 15 23 3 15 23 3 15 23 3 15 23 3 15 23 3 15 23 3 15 23 3 15 21 3 15 21 3 15 21 3 15 23 3 15 109 98 106 255 255 255 255 255 255 255 255 255 255 255 255 255 255 255 255 255 255 255 255 255 255 255 255 255 255 255 255 255 255 255 255 255 255 255 255 255 255 255 255 255 255 255 255 255 255 255 255 255 255 255 255 255 255 255 255 255 255 255 255 255 255 255 255 255 255 255 255 255 255 255 255 255 255 255 255 255 255 255 255 255 255 255 255 255 255 255 255 255 255 255 255 255 
23 3 15 23 3 15 23 3 15 23 3 15 23 3 15 23 3 15 23 3 15 23 3 15 21 3 15 23 3 15 23 3 15 23 3 15 25 3 16 31 4 21 31 4 21 25 2 18 23 3 15 23 3 15 23 3 15 23 3 15 23 3 15 23 3 15 23 3 15 23 3 15 23 3 15 23 3 15 23 3 14 26 4 17 31 4 21 31 4 21 24 3 18 21 3 15 23 3 15 23 3 15 23 3 15 23 3 15 23 3 15 23 3 15 23 3 15 23 3 15 23 3 15 23 3 15 23 3 15 23 3 15 23 3 15 23 3 15 23 3 15 23 3 15 23 3 15 23 3 15 23 3 15 23 3 15 23 3 15 23 3 15 23 3 15 23 3 15 23 3 15 23 3 15 23 3 15 23 3 15 23 3 15 23 3 15 23 3 15 23 3 15 21 3 15 21 3 15 21 3 15 23 3 15 109 98 106 255 255 255 255 255 255 255 255 255 255 255 255 255 255 255 255 255 255 255 255 255 255 255 255 255 255 255 255 255 255 255 255 255 255 255 255 255 255 255 255 255 255 255 255 255 255 255 255 255 255 255 255 255 255 255 255 255 255 255 255 255 255 255 255 255 255 255 255 255 255 255 255 255 255 255 255 255 255 255 255 255 255 255 255 255 255 255 255 255 255 255 255 255 
23 3 15 23 3 15 23 3 15 23 3 15 23 3 15 23 3 15 23 3 15 23 3 15 21 3 15 23 3 15 23 3 15 23 3 15 25 3 16 31 4 21 31 4 21 25 2 18 23 3 15 23 3 15 23 3 15 23 3 15 23 3 15 23 3 15 23 3 15 23 3 15 23 3 15 23 3 15 23 3 15 26 4 17 31 4 21 31 4 21 24 3 20 21 3 15 23 3 15 23 3 15 23 3 15 23 3 15 23 3 15 23 3 15 23 3 15 23 3 15 23 3 15 23 3 15 23 3 15 23 3 15 23 3 15 23 3 15 23 3 15 23 3 15 23 3 15 23 3 15 23 3 15 23 3 15 23 3 15 23 3 15 23 3 15 23 3 15 23 3 15 23 3 15 23 3 15 23 3 15 23 3 15 23 3 15 23 3 15 23 3 15 21 3 15 21 3 15 21 3 15 23 3 15 109 98 106 255 255 255 255 255 255 255 255 255 255 255 255 255 255 255 255 255 255 255 255 255 255 255 255 255 255 255 255 255 255 255 255 255 255 255 255 255 255 255 255 255 255 255 255 255 255 255 255 255 255 255 255 255 255 255 255 255 255 255 255 255 255 255 255 255 255 255 255 255 255 255 255 255 255 255 255 255 255 255 255 255 255 255 255 255 255 255 255 255 255 255 255 255 
23 3 15 23 3 15 23 3 15 23 3 15 23 3 15 23 3 15 23 3 15 23 3 15 21 3 15 23 3 15 23 3 15 23 3 15 25 3 16 31 4 21 31 4 21 25 2 18 23 3 15 23 3 15 23 3 15 23 3 15 23 3 15 23 3 15 23 3 15 23 3 15 23 3 15 23 3 15 23 3 14 26 4 17 31 4 21 31 4 21 24 3 18 21 3 15 23 3 15 23 3 15 23 3 15 23 3 15 23 3 15 23 3 15 23 3 15 23 3 15 23 3 15 23 3 15 23 3 15 23 3 15 23 3 15 23 3 15 23 3 15 23 3 15 23 3 15 23 3 15 23 3 15 23 3 15 23 3 15 23 3 15 23 3 15 23 3 15 23 3 15 23 3 15 23 3 15 23 3 15 23 3 15 23 3 15 23 3 15 23 3 15 21 3 15 21 3 15 21 3 15 23 3 15 109 98 106 255 255 255 255 255 255 255 255 255 255 255 255 255 255 255 255 255 255 255 255 255 255 255 255 255 255 255 255 255 255 255 255 255 255 255 255 255 255 255 255 255 255 255 255 255 255 255 255 255 255 255 255 255 255 255 255 255 255 255 255 255 255 255 255 255 255 255 255 255 255 255 255 255 255 255 255 255 255 255 255 255 255 255 255 255 255 255 255 255 255 255 255 255 
23 3 15 23 3 15 23 3 15 23 3 15 23 3 15 23 3 15 23 3 15 23 3 15 21 3 15 21 3 15 23 3 15 21 3 15 25 3 16 31 4 21 31 4 21 25 3 16 21 3 15 24 4 16 24 4 16 21 3 15 23 3 15 25 4 19 23 3 15 21 3 15 21 3 15 23 3 15 21 3 15 25 5 17 31 4 21 31 4 21 24 4 16 23 3 15 23 3 15 23 3 15 23 3 15 23 3 15 23 3 15 23 3 15 23 3 15 23 3 15 23 3 15 23 3 15 23 3 15 23 3 15 23 3 15 23 3 15 23 3 15 23 3 15 23 3 15 23 3 15 23 3 15 23 3 15 23 3 15 23 3 15 23 3 15 23 3 15 23 3 15 23 3 15 23 3 15 23 3 15 23 3 15 23 3 15 23 3 15 23 3 15 21 3 15 21 3 15 21 3 15 23 3 15 109 98 106 255 255 255 255 255 255 255 255 255 255 255 255 255 255 255 255 255 255 255 255 255 255 255 255 255 255 255 255 255 255 255 255 255 255 255 255 255 255 255 255 255 255 255 255 255 255 255 255 255 255 255 255 255 255 255 255 255 255 255 255 255 255 255 255 255 255 255 255 255 255 255 255 255 255 255 255 255 255 255 255 255 255 255 255 255 255 255 255 255 255 255 255 255 
23 3 15 23 3 15 23 3 15 23 3 15 23 3 15 23 3 15 23 3 15 23 3 15 21 3 15 21 3 15 23 3 15 21 3 15 25 3 16 31 4 21 31 4 23 25 2 18 21 3 15 23 3 15 21 3 15 23 3 15 28 4 20 32 5 22 28 4 20 22 4 16 21 3 15 23 3 15 21 3 15 25 5 17 31 4 21 31 4 21 24 4 16 23 3 15 23 3 15 23 3 15 23 3 15 23 3 15 23 3 15 23 3 15 23 3 15 23 3 15 23 3 15 23 3 15 23 3 15 23 3 15 23 3 15 23 3 15 23 3 15 23 3 15 23 3 15 23 3 15 23 3 15 23 3 15 23 3 15 23 3 15 23 3 15 23 3 15 23 3 15 23 3 15 23 3 15 23 3 15 23 3 15 23 3 15 23 3 15 23 3 15 21 3 15 21 3 15 21 3 15 23 3 15 109 98 106 255 255 255 255 255 255 255 255 255 255 255 255 255 255 255 255 255 255 255 255 255 255 255 255 255 255 255 255 255 255 255 255 255 255 255 255 255 255 255 255 255 255 255 255 255 255 255 255 255 255 255 255 255 255 255 255 255 255 255 255 255 255 255 255 255 255 255 255 255 255 255 255 255 255 255 255 255 255 255 255 255 255 255 255 255 255 255 255 255 255 255 255 255 
23 3 15 23 3 15 23 3 15 23 3 15 23 3 15 23 3 15 23 3 15 23 3 15 21 3 15 21 3 15 23 3 15 21 3 15 25 3 16 31 4 21 31 4 23 25 2 18 21 3 15 21 3 15 21 3 15 23 3 15 32 3 21 33 4 22 28 4 20 23 3 15 21 3 15 23 3 15 21 3 15 25 5 17 31 4 21 31 4 21 24 4 16 23 3 15 23 3 15 23 3 15 23 3 15 23 3 15 23 3 15 23 3 15 23 3 15 23 3 15 23 3 15 23 3 15 23 3 15 23 3 15 23 3 15 23 3 15 23 3 15 23 3 15 23 3 15 23 3 15 23 3 15 23 3 15 23 3 15 23 3 15 23 3 15 23 3 15 23 3 15 23 3 15 23 3 15 23 3 15 23 3 15 23 3 15 23 3 15 23 3 15 21 3 15 21 3 15 21 3 15 23 3 15 109 98 106 255 255 255 255 255 255 255 255 255 255 255 255 255 255 255 255 255 255 255 255 255 255 255 255 255 255 255 255 255 255 255 255 255 255 255 255 255 255 255 255 255 255 255 255 255 255 255 255 255 255 255 255 255 255 255 255 255 255 255 255 255 255 255 255 255 255 255 255 255 255 255 255 255 255 255 255 255 255 255 255 255 255 255 255 255 255 255 255 255 255 255 255 255 
23 3 15 23 3 15 23 3 15 23 3 15 23 3 15 23 3 15 23 3 15 23 3 15 21 3 15 21 3 15 23 3 15 21 3 15 25 3 16 31 4 21 31 4 21 25 3 16 21 3 15 21 3 15 23 3 15 24 4 16 28 4 20 31 4 21 28 4 20 21 3 15 21 3 15 23 3 15 21 3 15 25 5 17 31 4 21 31 4 21 24 4 16 23 3 15 23 3 15 23 3 15 23 3 15 23 3 15 23 3 15 23 3 15 23 3 15 23 3 15 23 3 15 23 3 15 23 3 15 23 3 15 23 3 15 23 3 15 23 3 15 23 3 15 23 3 15 23 3 15 23 3 15 23 3 15 23 3 15 23 3 15 23 3 15 23 3 15 23 3 15 23 3 15 23 3 15 23 3 15 23 3 15 23 3 15 23 3 15 23 3 15 21 3 15 21 3 15 21 3 15 23 3 15 109 98 106 255 255 255 255 255 255 255 255 255 255 255 255 255 255 255 255 255 255 255 255 255 255 255 255 255 255 255 255 255 255 255 255 255 255 255 255 255 255 255 255 255 255 255 255 255 255 255 255 255 255 255 255 255 255 255 255 255 255 255 255 255 255 255 255 255 255 255 255 255 255 255 255 255 255 255 255 255 255 255 255 255 255 255 255 255 255 255 255 255 255 255 255 255 
23 3 15 23 3 15 23 3 15 23 3 15 23 3 15 23 3 15 23 3 15 23 3 15 21 3 15 21 3 15 23 3 15 21 3 15 25 3 16 31 4 21 31 4 21 25 3 16 23 3 15 24 4 16 20 4 15 23 3 15 28 4 20 31 4 21 28 4 20 21 3 15 21 3 15 23 3 15 21 3 15 25 5 17 31 4 21 31 4 21 24 4 16 23 3 15 23 3 15 23 3 15 23 3 15 23 3 15 23 3 15 23 3 15 23 3 15 23 3 15 23 3 15 23 3 15 23 3 15 23 3 15 23 3 15 23 3 15 23 3 15 23 3 15 23 3 15 23 3 15 23 3 15 23 3 15 23 3 15 23 3 15 23 3 15 23 3 15 23 3 15 23 3 15 23 3 15 23 3 15 23 3 15 23 3 15 23 3 15 23 3 15 21 3 15 21 3 15 21 3 15 23 3 15 109 98 106 255 255 255 255 255 255 255 255 255 255 255 255 255 255 255 255 255 255 255 255 255 255 255 255 255 255 255 255 255 255 255 255 255 255 255 255 255 255 255 255 255 255 255 255 255 255 255 255 255 255 255 255 255 255 255 255 255 255 255 255 255 255 255 255 255 255 255 255 255 255 255 255 255 255 255 255 255 255 255 255 255 255 255 255 255 255 255 255 255 255 255 255 255 
23 3 15 23 3 15 23 3 15 23 3 15 23 3 15 23 3 15 23 3 15 23 3 15 21 3 15 21 3 15 23 3 15 21 3 15 25 3 16 31 4 21 31 4 23 25 2 18 21 3 15 23 3 15 21 3 15 21 3 15 28 4 20 31 4 21 29 5 21 24 4 16 21 3 15 23 3 15 21 3 15 25 5 17 31 4 21 31 4 21 24 4 16 23 3 15 23 3 15 23 3 15 23 3 15 23 3 15 23 3 15 23 3 15 23 3 15 23 3 15 23 3 15 23 3 15 23 3 15 23 3 15 23 3 15 23 3 15 23 3 15 23 3 15 23 3 15 23 3 15 23 3 15 23 3 15 23 3 15 23 3 15 23 3 15 23 3 15 23 3 15 23 3 15 23 3 15 23 3 15 23 3 15 23 3 15 23 3 15 23 3 15 21 3 15 21 3 15 21 3 15 23 3 15 109 98 106 255 255 255 255 255 255 255 255 255 255 255 255 255 255 255 255 255 255 255 255 255 255 255 255 255 255 255 255 255 255 255 255 255 255 255 255 255 255 255 255 255 255 255 255 255 255 255 255 255 255 255 255 255 255 255 255 255 255 255 255 255 255 255 255 255 255 255 255 255 255 255 255 255 255 255 255 255 255 255 255 255 255 255 255 255 255 255 255 255 255 255 255 255 
23 3 15 23 3 15 23 3 15 23 3 15 23 3 15 23 3 15 23 3 15 23 3 15 21 3 15 21 3 15 23 3 15 21 3 15 25 3 16 31 4 21 31 4 23 25 2 18 21 3 17 21 3 15 21 3 15 21 3 15 28 4 20 30 3 22 28 4 20 23 3 15 21 3 15 23 3 15 21 3 15 25 5 17 31 4 21 31 4 21 24 4 16 23 3 15 23 3 15 23 3 15 23 3 15 23 3 15 23 3 15 23 3 15 23 3 15 23 3 15 23 3 15 23 3 15 23 3 15 23 3 15 23 3 15 23 3 15 23 3 15 23 3 15 23 3 15 23 3 15 23 3 15 23 3 15 23 3 15 23 3 15 23 3 15 23 3 15 23 3 15 23 3 15 23 3 15 23 3 15 23 3 15 23 3 15 23 3 15 23 3 15 21 3 15 21 3 15 21 3 15 23 3 15 109 98 106 255 255 255 255 255 255 255 255 255 255 255 255 255 255 255 255 255 255 255 255 255 255 255 255 255 255 255 255 255 255 255 255 255 255 255 255 255 255 255 255 255 255 255 255 255 255 255 255 255 255 255 255 255 255 255 255 255 255 255 255 255 255 255 255 255 255 255 255 255 255 255 255 255 255 255 255 255 255 255 255 255 255 255 255 255 255 255 255 255 255 255 255 255 
23 3 15 23 3 15 23 3 15 23 3 15 23 3 15 23 3 15 23 3 15 23 3 15 21 3 15 21 3 15 23 3 15 21 3 15 25 3 16 31 4 21 31 4 21 25 3 16 24 3 18 23 3 15 21 3 15 23 3 15 28 4 20 32 5 24 28 4 20 23 3 15 21 3 15 23 3 15 21 3 15 25 5 17 31 4 21 31 4 21 24 4 16 23 3 15 23 3 15 23 3 15 23 3 15 23 3 15 23 3 15 23 3 15 23 3 15 23 3 15 23 3 15 23 3 15 23 3 15 23 3 15 23 3 15 23 3 15 23 3 15 23 3 15 23 3 15 23 3 15 23 3 15 23 3 15 23 3 15 23 3 15 23 3 15 23 3 15 23 3 15 23 3 15 23 3 15 23 3 15 23 3 15 23 3 15 23 3 15 23 3 15 21 3 15 21 3 15 21 3 15 23 3 15 109 98 106 255 255 255 255 255 255 255 255 255 255 255 255 255 255 255 255 255 255 255 255 255 255 255 255 255 255 255 255 255 255 255 255 255 255 255 255 255 255 255 255 255 255 255 255 255 255 255 255 255 255 255 255 255 255 255 255 255 255 255 255 255 255 255 255 255 255 255 255 255 255 255 255 255 255 255 255 255 255 255 255 255 255 255 255 255 255 255 255 255 255 255 255 255 
23 3 15 23 3 15 23 3 15 23 3 15 23 3 15 23 3 15 23 3 15 23 3 15 21 3 15 23 3 15 21 3 15 23 3 15 24 4 16 31 4 21 31 4 23 25 2 18 23 3 15 23 3 15 21 3 15 23 3 15 28 4 20 31 4 21 28 4 20 23 3 15 21 3 15 23 3 15 23 3 15 26 4 17 31 4 21 31 4 21 24 4 16 21 3 15 23 3 15 21 3 15 21 3 15 23 3 15 23 3 15 21 3 15 21 3 15 22 5 15 23 3 15 23 3 15 23 3 15 23 3 15 23 3 15 23 3 15 23 3 15 23 3 15 23 3 15 23 3 15 23 3 15 23 3 15 23 3 15 23 3 15 23 3 15 23 3 15 23 3 15 23 3 15 23 3 15 23 3 15 23 3 15 23 3 15 23 3 15 23 3 15 21 3 15 21 3 15 21 3 15 23 3 15 109 98 106 255 255 255 255 255 255 255 255 255 255 255 255 255 255 255 255 255 255 255 255 255 255 255 255 255 255 255 255 255 255 255 255 255 255 255 255 255 255 255 255 255 255 255 255 255 255 255 255 255 255 255 255 255 255 255 255 255 255 255 255 255 255 255 255 255 255 255 255 255 255 255 255 255 255 255 255 255 255 255 255 255 255 255 255 255 255 255 255 255 255 255 255 255 
23 3 15 23 3 15 23 3 15 23 3 15 23 3 15 23 3 15 23 3 15 23 3 15 21 3 15 23 3 15 21 3 15 23 3 15 24 4 16 31 4 21 31 4 21 25 3 16 23 3 15 23 3 15 21 3 15 23 3 15 28 4 20 31 4 21 28 4 20 23 3 15 21 3 15 23 3 15 23 3 15 26 4 17 31 4 23 31 4 21 24 3 18 21 3 15 21 3 15 21 3 15 23 3 15 23 3 15 23 3 15 20 4 15 21 3 15 21 3 15 23 3 15 23 3 15 23 3 15 23 3 15 23 3 15 23 3 15 23 3 15 23 3 15 23 3 15 23 3 15 23 3 15 23 3 15 23 3 15 23 3 15 23 3 15 23 3 15 23 3 15 23 3 15 23 3 15 23 3 15 23 3 15 23 3 15 23 3 15 23 3 15 21 3 15 21 3 15 21 3 15 23 3 15 109 98 106 255 255 255 255 255 255 255 255 255 255 255 255 255 255 255 255 255 255 255 255 255 255 255 255 255 255 255 255 255 255 255 255 255 255 255 255 255 255 255 255 255 255 255 255 255 255 255 255 255 255 255 255 255 255 255 255 255 255 255 255 255 255 255 255 255 255 255 255 255 255 255 255 255 255 255 255 255 255 255 255 255 255 255 255 255 255 255 255 255 255 255 255 255 
