P3
100 50
255
62 47 14 62 47 14 63 47 14 63 47 14 63 47 14 64 44 7 62 43 3 63 43 6 64 48 15 62 47 14 61 46 13 63 47 14 62 46 13 62 47 16 63 46 16 63 47 14 63 48 15 61 46 15 62 45 15 62 47 14 64 47 17 63 46 16 63 46 16 63 46 16 63 46 16 62 45 15 63 46 16 62 45 15 64 48 15 62 46 13 62 47 16 62 47 14 63 47 14 63 46 16 63 47 14 63 43 6 64 42 3 63 43 6 62 47 14 62 45 15 62 46 13 62 47 16 61 45 12 61 42 2 62 43 3 62 46 12 62 45 15 61 46 17 62 47 14 62 47 16 63 45 5 61 42 2 62 42 5 62 45 15 63 47 14 62 47 14 62 47 14 62 46 12 62 43 3 63 44 4 62 46 12 62 46 13 62 47 14 63 47 14 62 45 15 60 45 12 62 46 13 62 47 14 63 47 14 62 47 14 61 46 15 61 46 15 61 45 11 62 43 3 62 43 3 62 46 12 63 46 16 64 48 15 62 46 13 63 47 14 62 44 6 63 44 4 61 43 5 63 48 17 62 45 15 62 46 13 60 45 12 61 45 11 63 44 4 62 43 3 62 46 12 62 47 14 62 45 15 63 47 14 62 47 16 62 44 6 62 43 3 62 42 5 62 46 13 62 45 15 
63 47 14 62 47 14 63 47 14 61 46 13 62 46 13 63 43 6 62 43 3 61 43 5 63 47 14 62 47 14 61 46 13 64 48 15 62 47 16 63 47 14 62 47 14 61 46 15 62 45 15 63 47 14 61 46 13 63 46 16 63 46 16 63 46 16 63 46 16 62 45 15 63 46 16 63 46 16 63 46 16 63 46 16 64 48 15 64 48 15 62 47 16 63 47 14 63 47 14 62 45 15 62 46 13 63 43 6 64 42 3 62 42 5 62 47 16 61 44 14 63 46 16 61 46 15 62 46 13 62 43 3 62 43 3 62 46 12 63 47 14 62 47 14 62 47 14 62 47 16 62 44 4 62 43 3 62 42 5 63 46 16 63 47 14 62 47 14 61 46 13 62 46 12 62 43 3 61 42 2 62 46 12 62 46 13 62 47 14 63 47 14 62 45 15 63 48 15 63 47 14 61 46 13 63 47 14 62 47 14 61 46 15 62 47 16 62 46 12 62 43 3 62 43 3 62 46 12 62 47 16 63 48 15 63 46 16 63 47 14 62 44 6 63 41 2 62 42 5 63 46 16 62 45 15 62 46 13 62 47 14 62 46 12 61 42 2 62 43 3 63 47 13 62 48 13 64 47 17 62 46 13 61 46 15 61 43 5 63 44 4 64 44 7 63 47 14 62 45 15 
63 47 14 63 47 14 63 47 14 63 47 14 62 45 15 62 44 6 64 42 3 63 44 4 60 45 12 62 45 15 63 48 15 63 47 14 62 45 15 63 47 14 62 45 15 63 46 16 62 45 15 62 45 15 63 47 14 61 45 12 62 45 15 63 47 14 62 46 13 62 45 15 63 47 14 63 47 14 63 46 16 63 47 14 63 47 14 63 48 15 64 48 15 64 48 15 64 48 15 61 46 15 64 48 15 63 45 7 61 42 2 63 43 6 63 47 14 63 46 16 62 45 15 63 47 14 62 46 13 62 43 1 62 43 3 62 46 13 62 47 14 62 47 14 62 45 15 62 45 15 63 43 8 62 43 3 63 43 6 63 47 14 63 46 16 63 47 14 63 47 14 61 45 11 62 43 3 61 42 2 62 46 12 63 47 13 63 47 14 63 47 14 63 47 14 63 47 14 63 47 14 63 47 14 63 47 14 63 47 14 63 46 16 63 46 16 62 46 12 61 42 0 62 43 3 62 46 13 64 48 15 63 46 16 63 47 14 62 47 16 62 44 6 61 42 2 63 43 6 62 45 15 62 47 14 63 46 16 62 47 14 62 46 12 61 42 2 63 44 2 63 44 11 63 46 16 62 45 15 62 46 13 64 48 15 63 43 6 62 43 3 63 43 6 63 46 16 62 46 13 
62 46 13 63 47 14 64 48 15 63 47 14 62 45 15 62 44 6 62 43 3 63 43 6 63 47 14 61 46 13 62 45 15 63 47 14 62 45 15 64 48 15 63 47 14 63 46 16 63 47 14 62 45 15 62 45 15 63 46 16 64 48 15 63 47 14 63 46 16 63 47 14 62 46 13 63 46 16 63 46 16 63 46 16 63 47 14 62 47 14 63 47 14 62 46 13 62 46 13 62 47 16 63 47 14 61 43 5 61 42 2 63 43 6 62 46 13 63 47 14 63 47 14 63 47 14 62 46 12 60 41 1 61 42 2 64 45 12 62 46 13 62 48 13 63 47 14 62 47 16 62 44 6 63 43 6 62 42 5 63 47 14 63 47 14 63 47 14 63 47 14 61 45 11 62 43 3 62 43 3 61 45 11 62 45 15 63 47 14 63 46 16 62 46 13 62 46 13 63 46 16 63 47 14 62 45 15 62 46 13 64 48 15 62 45 15 61 45 11 61 42 2 62 43 3 62 46 12 62 46 13 63 47 14 62 45 15 62 47 16 62 44 6 61 42 2 62 42 5 62 45 15 63 47 14 63 47 14 62 47 14 62 46 12 61 42 2 62 43 3 63 44 11 63 47 14 63 46 16 61 46 13 63 47 14 62 42 5 64 42 3 63 45 7 62 45 15 63 47 14 
64 48 15 63 47 14 62 46 13 63 47 14 62 46 13 63 43 6 62 43 3 62 42 5 62 47 14 62 47 14 62 45 15 62 47 16 62 45 15 62 45 15 61 45 12 63 47 14 62 46 13 63 47 14 63 46 18 62 45 15 62 45 15 63 47 14 62 45 15 62 45 15 63 47 14 63 46 16 63 46 16 63 47 14 63 47 14 62 47 14 63 47 14 62 46 13 63 47 14 62 47 16 63 47 14 61 43 5 62 43 3 62 43 3 62 45 15 62 45 15 64 48 15 63 46 16 61 45 12 63 43 6 61 42 2 64 45 12 62 45 15 62 47 14 62 45 15 61 46 15 62 44 6 61 42 2 63 44 4 62 45 15 63 47 14 62 45 15 63 47 14 61 45 9 61 42 2 62 43 3 61 45 12 62 45 15 63 47 14 64 48 15 62 45 15 63 47 14 62 45 15 62 45 15 63 47 14 63 47 14 63 47 14 63 47 13 62 46 12 61 42 0 62 43 3 62 46 12 63 46 16 63 46 16 63 47 14 61 46 15 63 45 7 62 43 3 62 42 5 63 47 14 63 47 14 63 46 16 62 47 16 62 46 12 62 43 3 61 42 2 64 46 10 65 49 16 62 45 15 63 47 14 63 46 16 61 43 5 61 42 2 61 43 5 62 46 13 62 45 15 
63 47 14 63 47 14 63 47 14 63 47 14 62 46 13 62 44 6 60 41 1 62 42 5 64 48 15 61 46 13 63 47 14 62 45 17 63 47 14 63 46 16 63 47 14 62 45 15 62 45 17 62 45 15 63 47 14 64 48 15 62 45 15 62 45 15 63 47 14 63 47 14 63 46 16 63 47 14 64 48 15 63 47 14 63 47 14 62 47 14 63 47 14 63 47 14 63 47 14 62 47 16 62 46 13 62 44 6 62 43 3 62 42 5 63 47 14 62 46 13 63 46 16 62 45 15 61 45 11 62 43 3 62 43 3 62 46 12 61 46 15 62 47 14 63 46 16 63 47 14 62 42 5 63 44 4 62 42 5 63 47 14 64 48 15 63 47 14 63 47 14 61 45 11 62 43 3 62 43 3 61 45 12 63 46 16 63 46 16 62 46 13 63 46 16 62 45 15 62 45 15 62 45 15 63 46 16 62 45 17 62 45 15 62 45 15 62 46 12 61 42 2 62 43 3 61 45 12 62 46 13 63 47 14 63 47 14 62 47 16 62 44 6 61 42 2 62 42 7 62 45 15 64 48 15 63 47 14 62 47 14 62 46 12 61 43 3 59 41 1 63 44 12 63 46 16 63 48 17 63 47 14 62 45 17 61 43 5 63 44 4 62 42 5 63 47 14 62 45 15 
63 47 14 63 47 14 63 47 14 62 46 13 63 47 14 61 43 5 63 41 4 62 42 5 62 47 14 62 46 13 62 47 14 62 45 15 63 46 16 64 48 15 62 45 15 63 47 14 63 46 16 63 46 16 62 45 15 63 47 14 64 48 15 62 46 13 63 47 14 62 45 15 61 45 12 63 47 14 62 45 15 63 46 16 62 46 13 61 46 13 64 48 15 63 47 14 63 47 14 62 47 16 63 47 14 61 43 5 63 44 4 63 44 4 63 46 16 63 47 14 62 46 13 63 47 14 61 45 12 61 41 4 61 42 2 61 45 11 61 46 13 61 46 15 63 47 13 62 45 15 63 44 4 62 43 3 62 42 5 63 47 14 62 46 13 63 47 14 63 47 14 62 46 12 62 43 3 61 42 2 62 46 13 62 46 13 63 46 16 62 46 13 63 47 14 62 46 13 63 47 14 62 46 13 63 47 14 63 47 14 63 47 14 63 47 13 62 46 12 61 42 2 62 43 3 61 45 11 63 46 16 62 45 15 62 45 15 61 46 15 61 43 5 61 42 0 63 43 6 63 47 14 63 46 16 63 47 14 62 47 14 62 47 14 61 45 11 61 45 11 62 45 15 62 46 13 63 46 16 61 46 13 61 46 17 64 44 7 61 42 2 61 43 5 62 47 14 62 45 15 
62 46 13 62 46 13 63 47 14 63 47 14 63 47 14 61 43 5 60 41 1 62 42 5 62 47 14 63 47 14 61 46 15 63 46 16 63 46 16 62 45 15 62 45 15 63 46 16 63 47 14 62 45 17 63 47 13 62 45 15 63 47 14 63 46 16 63 46 16 63 47 14 62 45 15 63 46 16 63 47 14 63 46 16 62 46 13 62 47 14 63 47 14 63 47 14 63 47 14 63 48 17 63 47 14 61 43 5 60 41 1 63 43 6 63 47 14 62 45 15 63 47 13 63 46 16 63 47 13 62 43 3 61 42 2 64 45 12 64 48 15 61 46 15 63 47 14 62 47 14 62 44 6 61 42 2 63 44 4 62 45 15 63 47 14 63 46 16 63 47 14 62 46 10 61 42 2 62 43 3 62 46 12 62 45 15 64 48 15 63 47 14 62 45 15 62 46 13 63 47 14 63 47 14 62 45 15 62 45 15 62 45 15 62 45 15 61 45 11 62 43 3 62 43 3 61 45 12 62 45 15 62 45 15 63 47 14 60 45 14 62 44 6 61 42 2 62 42 5 63 47 14 63 47 14 62 46 13 61 46 13 62 47 16 62 47 16 63 48 15 63 46 16 63 47 14 62 45 15 60 47 13 62 47 16 62 44 6 62 43 3 62 44 6 63 47 14 62 45 15 
63 47 14 63 47 14 62 46 13 62 46 13 62 46 13 61 43 5 62 43 3 62 43 3 62 45 15 63 48 15 62 45 15 62 45 15 63 46 16 62 45 15 62 45 15 64 48 14 63 46 16 63 47 14 62 45 15 62 45 15 62 45 15 62 45 15 62 45 15 63 47 14 63 47 14 62 45 15 65 49 16 62 46 13 63 47 14 63 48 15 63 47 14 63 47 14 63 47 14 62 47 16 62 46 13 61 43 5 62 43 3 62 42 5 62 45 15 62 45 15 62 45 15 63 47 14 61 45 12 61 42 2 61 42 2 64 45 12 62 45 15 62 47 18 62 45 15 62 47 14 61 43 5 61 42 2 63 43 6 61 45 12 63 47 14 62 46 13 64 48 15 63 47 13 62 43 3 61 42 2 61 45 11 62 45 15 63 47 14 62 45 15 62 46 13 62 46 13 62 45 15 63 47 14 63 47 14 62 46 13 64 47 17 62 45 15 62 46 12 63 44 2 62 43 3 61 45 12 63 46 16 64 48 15 62 45 15 61 46 13 62 44 6 61 42 2 62 42 5 63 46 16 63 46 16 62 46 13 61 46 15 61 46 15 61 46 13 61 46 13 62 45 15 62 45 15 62 47 14 61 46 15 62 46 13 61 43 5 62 43 3 61 43 5 63 47 14 62 47 16 
61 45 12 62 46 13 62 46 13 63 47 14 62 46 13 61 43 5 61 42 2 63 44 2 62 45 15 62 47 16 62 45 15 62 45 15 64 48 15 61 44 14 62 46 13 64 47 17 63 46 16 63 46 16 63 46 16 63 47 14 63 47 14 63 46 16 63 47 14 63 47 14 62 45 15 63 47 14 63 47 14 63 46 16 62 46 13 62 47 14 63 47 14 63 47 14 62 46 13 61 46 15 63 47 14 62 44 6 61 41 4 63 43 6 63 47 14 62 46 13 64 48 15 62 46 13 62 46 12 62 43 1 61 41 4 61 45 11 61 46 15 61 46 15 63 47 14 62 46 13 63 44 4 61 42 2 63 43 6 63 47 14 62 45 15 63 47 14 63 47 14 63 47 13 62 43 3 61 42 2 61 45 12 62 45 15 62 45 15 63 47 14 62 45 15 63 46 16 62 46 13 62 45 15 63 46 16 62 46 13 62 46 13 63 46 16 62 46 12 61 42 2 61 42 2 61 45 11 62 45 15 62 45 15 62 46 13 61 46 15 62 44 6 61 42 2 63 43 6 63 47 14 62 46 13 62 46 13 62 47 14 63 47 14 63 47 13 62 45 15 63 47 14 62 47 14 62 47 14 61 46 15 62 47 14 61 43 5 60 41 1 60 42 4 61 46 13 62 45 15 
62 47 16 63 46 16 61 46 13 62 47 16 62 46 13 61 43 5 62 43 3 62 42 5 62 47 16 61 46 15 61 46 15 62 47 14 63 46 16 62 45 15 62 47 16 62 47 14 62 47 16 61 46 15 62 45 15 62 46 13 63 46 16 63 47 14 63 47 14 62 45 15 62 45 15 62 46 13 63 47 14 63 47 14 61 46 13 62 47 16 61 46 15 62 46 13 61 46 15 63 47 14 62 46 13 62 44 8 62 43 3 62 42 5 63 46 16 62 45 15 62 45 15 61 46 13 61 45 12 61 42 2 62 43 3 62 46 13 62 45 15 63 46 16 63 47 14 63 47 14 62 44 6 61 42 2 62 42 5 62 46 13 62 45 15 63 47 14 62 47 16 61 45 11 61 42 2 61 42 2 62 46 12 64 45 12 62 46 13 62 45 15 61 46 15 63 46 16 62 45 15 62 46 12 61 46 13 62 45 15 63 46 16 62 47 14 61 45 11 61 42 2 61 42 2 62 46 12 61 46 15 62 47 14 61 46 17 62 47 16 62 44 6 62 43 1 62 44 6 61 46 13 61 44 14 62 45 15 63 46 16 63 46 16 63 47 14 63 47 14 63 47 14 64 48 15 63 47 14 63 46 16 61 46 15 61 43 5 64 42 3 62 42 5 63 47 14 62 45 15 
61 46 15 62 45 15 62 47 14 62 47 16 62 46 12 61 43 5 61 42 2 62 42 5 62 47 16 62 46 13 61 46 15 63 47 14 63 47 14 62 45 15 62 47 16 61 46 15 61 46 13 61 46 13 63 46 16 63 47 14 63 47 14 62 47 14 62 45 15 63 46 16 62 45 15 63 47 14 62 47 14 62 45 15 61 46 15 61 46 15 61 46 15 62 45 15 61 46 13 63 47 14 62 46 13 61 43 5 60 41 1 63 43 6 65 48 18 63 46 16 62 45 15 61 46 13 61 45 12 61 42 2 61 42 2 62 46 12 63 47 14 62 46 13 62 45 15 62 45 15 62 44 6 62 43 3 63 43 6 62 45 15 62 45 15 63 47 14 62 47 14 61 45 11 61 41 4 62 43 3 62 46 12 62 46 13 62 46 13 62 45 15 61 46 15 63 46 16 63 46 16 62 45 15 61 46 13 62 45 15 62 45 17 62 47 18 61 45 11 61 42 2 61 42 0 61 45 11 61 46 15 61 46 15 61 46 13 62 47 16 62 44 6 61 42 2 61 43 7 61 46 13 63 47 14 63 47 14 62 46 13 63 47 14 61 44 14 61 44 14 62 45 15 63 46 16 61 46 13 62 46 13 63 46 16 62 42 5 63 41 2 61 43 5 61 46 13 63 46 16 
61 46 15 62 45 15 62 47 14 62 47 16 62 46 13 61 43 5 60 43 0 62 42 5 61 48 16 62 46 13 61 46 15 63 46 16 62 47 16 62 47 16 62 45 15 61 45 12 63 46 16 62 45 15 61 46 15 63 48 17 62 45 15 62 46 13 61 46 13 62 45 15 63 46 18 61 46 13 62 45 15 62 46 13 62 47 14 62 47 14 62 47 16 62 46 13 61 46 15 62 46 13 62 45 15 61 43 7 61 42 2 63 43 6 62 45 15 62 45 15 62 45 15 61 46 13 62 46 13 61 42 2 61 42 2 62 46 13 62 46 13 62 45 15 62 45 15 63 46 16 61 43 5 61 42 2 61 41 4 63 46 16 63 47 14 63 46 16 61 46 15 61 45 12 61 42 2 61 42 2 61 45 12 63 46 16 62 45 17 62 45 15 61 46 15 63 47 14 62 46 13 63 47 14 62 47 14 62 45 15 62 45 15 61 46 13 61 45 11 61 42 2 62 43 3 61 45 11 62 47 18 62 47 16 62 47 16 61 46 15 62 44 8 62 43 3 61 43 5 60 45 14 62 46 13 62 46 13 62 46 13 63 47 14 61 44 14 62 45 15 63 46 16 62 45 15 62 47 16 62 46 12 63 47 14 61 43 5 62 43 3 62 44 6 61 46 15 62 46 13 
62 47 16 62 45 15 61 46 13 63 48 17 63 47 14 61 43 5 61 42 2 62 42 5 61 46 15 62 46 13 62 45 15 63 46 16 62 47 16 63 48 15 61 46 15 62 46 13 61 44 14 62 47 16 61 46 15 62 47 14 62 46 13 62 47 14 63 46 16 61 46 13 61 46 15 62 46 13 61 46 13 63 47 14 61 46 15 61 46 15 61 46 15 63 46 16 62 47 14 63 47 14 63 47 14 62 44 6 61 42 2 62 42 5 62 45 15 63 46 16 62 47 16 61 46 13 62 46 13 61 42 2 61 42 2 61 45 12 62 46 13 62 45 15 64 47 17 63 46 16 61 43 5 61 42 2 62 42 5 63 46 16 62 45 15 63 46 16 62 47 14 61 45 12 61 42 2 61 42 2 61 45 11 60 45 12 63 47 14 62 46 13 61 46 15 62 45 15 62 45 15 62 47 16 62 47 14 62 45 15 63 46 16 62 47 16 61 45 11 62 43 3 60 41 1 61 45 12 62 47 16 63 48 15 61 46 15 61 46 13 61 43 5 61 42 2 62 44 6 62 47 14 63 46 16 62 45 15 62 45 15 63 46 16 63 47 14 63 47 14 63 47 14 63 47 14 62 45 15 62 47 14 62 47 14 61 43 5 62 43 3 61 43 5 61 46 13 62 46 13 
61 46 15 62 45 15 62 47 14 62 47 16 62 46 13 61 43 5 63 41 2 63 43 6 62 47 16 62 45 15 61 46 15 61 45 12 62 47 14 62 47 16 61 46 15 62 45 15 62 45 15 61 46 13 61 46 15 62 47 16 62 46 13 62 47 14 63 46 16 61 46 13 61 46 15 63 47 14 61 46 15 63 47 14 62 47 16 61 46 15 62 47 16 62 45 15 62 47 14 62 46 13 63 47 14 62 44 6 61 42 2 63 43 6 63 46 16 62 45 15 61 46 15 61 46 13 61 45 12 60 41 1 61 42 2 62 46 13 63 46 16 63 46 16 63 46 16 63 47 14 62 44 6 62 43 3 63 43 6 63 46 16 62 46 13 63 46 16 62 47 14 61 45 11 61 42 2 60 41 1 62 46 13 61 46 15 63 47 14 63 49 14 61 46 15 63 47 14 62 46 13 61 46 13 62 47 14 62 47 16 62 47 16 61 46 15 61 45 11 61 42 2 61 42 0 62 46 12 62 47 14 62 47 16 61 46 13 61 46 13 61 43 5 61 42 2 61 43 5 61 46 13 61 46 15 62 47 16 61 46 15 61 46 15 61 46 13 61 46 13 61 46 13 61 46 13 61 46 15 62 47 14 62 47 14 62 44 6 62 43 3 61 43 5 62 47 14 62 47 14 
61 46 15 62 45 15 62 47 14 62 47 16 61 46 13 61 43 5 61 41 4 62 42 5 62 47 16 62 45 15 61 46 15 61 46 13 61 46 15 62 47 16 61 46 15 61 46 13 61 46 15 62 47 16 61 46 15 61 46 15 62 47 16 62 46 13 61 46 15 61 46 13 60 45 16 60 45 14 63 46 16 62 47 14 61 46 13 61 46 13 62 47 16 63 47 14 62 47 16 62 46 13 62 45 15 61 43 7 61 42 2 62 42 5 63 46 16 61 46 15 61 46 15 61 46 13 61 45 12 62 43 3 61 42 0 61 45 12 62 45 15 62 45 15 62 46 13 61 45 12 61 43 5 61 41 4 61 41 4 62 45 15 62 45 15 63 47 14 62 47 14 61 45 12 60 41 1 62 43 3 61 45 11 62 47 14 63 47 14 62 47 14 61 46 15 62 45 15 60 45 14 61 46 15 61 46 13 62 47 16 60 45 14 62 47 14 61 45 11 62 43 3 61 42 2 61 45 11 61 46 15 61 46 15 61 46 15 61 46 17 62 44 8 61 42 2 61 43 5 61 46 15 61 46 13 62 47 14 61 46 13 62 47 14 61 46 15 61 46 15 61 46 15 61 46 15 61 46 13 61 46 15 62 47 14 61 43 5 61 42 2 61 43 5 61 46 13 62 45 15 
62 47 16 62 45 15 62 47 14 62 47 16 61 46 15 61 43 7 60 41 1 62 42 5 61 46 15 62 47 16 62 45 15 60 47 15 61 46 15 61 46 13 61 46 15 62 47 14 61 46 15 61 46 15 62 47 16 61 46 13 61 46 13 61 46 15 62 45 17 62 47 14 62 47 14 62 46 13 61 46 15 62 47 14 62 47 16 61 46 15 61 46 15 62 45 15 62 47 14 62 46 13 62 46 13 61 43 5 61 42 2 62 42 5 62 45 15 61 46 15 61 46 15 62 47 14 62 46 13 59 40 0 61 42 2 62 46 13 62 46 13 62 45 15 62 46 13 63 46 16 62 44 6 61 42 2 62 42 5 63 47 14 64 47 17 63 46 16 61 46 15 61 45 11 61 42 2 61 42 2 62 46 13 62 47 16 62 46 13 60 45 12 62 47 14 63 47 14 61 46 15 61 46 15 62 47 14 61 46 15 61 46 15 61 46 15 61 45 11 62 43 3 61 42 2 61 45 12 62 47 14 62 47 16 62 47 16 61 46 13 61 43 7 62 43 3 61 43 5 61 46 17 61 46 13 61 46 13 60 45 12 62 47 14 61 46 15 62 47 16 62 47 16 61 46 15 62 47 14 61 46 13 62 47 16 59 44 5 61 42 2 61 43 5 61 46 13 62 45 15 
62 47 16 63 46 16 62 47 14 61 46 15 62 47 14 61 43 5 60 41 0 62 44 6 61 46 15 60 45 12 61 46 15 60 45 14 62 47 16 62 47 16 61 46 15 61 46 15 60 45 14 61 46 13 62 47 16 61 46 15 61 46 13 61 46 13 61 46 15 61 46 13 61 46 15 61 46 15 62 47 16 61 46 13 61 46 13 61 46 15 61 46 15 63 47 14 62 47 16 62 46 13 62 46 13 62 44 8 61 42 2 62 42 5 63 46 16 61 46 15 61 46 15 61 46 13 61 45 12 61 42 2 61 42 2 61 45 12 62 46 13 62 45 15 62 45 15 62 45 15 61 43 5 61 42 2 62 42 5 62 45 15 62 45 15 62 46 13 62 47 16 62 46 12 61 41 4 61 42 2 62 46 13 62 47 16 61 46 13 60 45 12 61 46 13 63 47 14 60 45 14 62 47 16 62 47 14 61 46 15 61 46 15 62 47 16 61 45 11 62 43 3 62 43 3 61 45 11 61 46 13 61 46 15 61 46 13 61 46 13 62 44 6 61 42 2 61 43 5 61 46 15 61 46 15 61 46 15 61 46 15 61 46 15 61 46 13 61 46 13 62 47 14 62 47 14 62 47 14 61 46 13 61 46 17 61 43 5 61 42 2 61 43 5 62 47 14 61 46 15 
61 46 15 61 46 15 63 48 15 61 46 15 61 46 13 60 42 4 61 42 2 61 43 5 61 46 13 61 46 15 61 46 13 61 46 15 62 47 14 62 47 16 61 46 15 62 46 13 61 46 13 62 45 15 61 46 15 62 47 14 62 47 14 62 45 17 60 45 12 62 47 14 62 45 15 61 46 13 61 46 13 61 46 15 62 47 16 63 47 14 63 46 16 60 45 14 62 45 15 61 46 15 62 47 16 61 43 7 61 42 2 61 43 5 62 47 16 61 46 15 61 46 15 61 46 15 61 45 11 61 42 2 61 42 2 61 46 13 62 45 15 61 48 14 61 46 15 63 48 15 61 43 5 61 41 4 61 43 5 61 46 15 62 47 16 61 46 15 61 46 15 61 45 11 62 43 3 62 43 3 61 45 9 61 46 15 61 46 15 62 47 16 61 46 15 61 46 15 62 46 13 61 46 15 62 47 16 61 46 15 62 45 15 61 46 15 61 45 11 61 41 4 62 43 3 61 45 11 61 46 15 62 45 15 62 45 15 62 45 15 62 44 6 61 42 2 61 43 5 61 46 15 61 46 15 61 46 15 61 46 15 61 46 15 61 46 15 61 46 15 61 46 15 61 46 15 62 45 15 62 47 16 61 46 15 62 44 6 61 41 4 62 42 5 62 45 15 61 46 13 
62 47 16 62 47 16 63 48 15 61 46 15 61 46 13 61 43 5 61 42 2 61 43 5 61 46 13 61 46 15 61 46 13 61 46 15 61 46 15 61 46 15 61 46 15 61 46 15 61 46 15 61 46 15 61 46 15 61 46 15 62 45 15 62 47 16 62 45 15 62 46 13 60 45 14 61 46 15 61 46 13 61 46 15 61 46 15 63 47 14 60 43 13 61 46 15 62 45 15 61 46 15 62 47 16 61 43 7 61 42 2 62 42 5 61 46 15 62 46 13 61 46 15 61 46 15 61 45 12 63 44 4 61 42 2 61 45 12 62 45 15 61 46 13 61 46 15 61 46 13 61 43 5 61 41 4 61 43 5 61 46 15 62 47 16 61 46 15 61 46 15 61 45 11 62 43 3 61 42 2 62 46 10 61 46 13 61 46 13 62 45 15 61 46 15 61 46 13 61 46 15 61 46 17 62 47 16 61 46 13 62 46 13 61 46 15 61 45 11 61 42 2 62 43 3 61 45 11 61 46 15 62 47 16 62 45 15 61 46 15 61 43 5 61 42 2 60 42 4 61 46 15 61 46 15 61 47 12 61 46 15 62 45 15 61 46 15 61 46 15 61 47 12 61 46 15 62 47 14 60 45 14 61 46 13 61 43 5 61 42 2 61 43 5 62 45 15 61 47 12 
61 46 15 61 46 15 62 47 14 61 46 15 61 46 13 60 42 4 61 42 2 61 43 5 61 46 15 61 46 15 61 46 15 61 46 15 62 47 16 62 47 16 62 47 16 61 46 15 61 46 15 61 46 15 62 47 16 62 47 16 61 46 15 61 46 15 61 44 14 61 46 15 61 46 15 63 46 16 61 46 15 61 46 15 63 46 16 62 46 13 61 46 15 62 47 16 61 46 15 62 47 16 61 46 15 61 43 7 62 43 3 62 42 5 61 46 15 61 46 15 62 45 15 60 45 14 61 45 11 61 41 4 62 43 3 61 45 12 62 45 15 61 46 15 62 47 16 61 46 15 62 42 5 61 41 4 60 42 4 61 46 15 62 47 16 61 46 15 61 46 13 62 46 12 62 43 3 60 41 1 61 45 11 62 47 14 61 46 13 62 47 16 63 46 16 62 47 16 61 46 15 62 45 15 61 46 15 61 46 15 63 46 16 61 46 15 61 45 11 60 40 3 62 42 5 61 45 12 61 46 15 61 46 15 61 46 15 61 46 15 61 43 5 61 42 2 62 42 5 62 47 16 61 46 13 61 46 15 62 46 13 61 46 15 62 45 15 61 46 13 61 46 15 61 46 13 63 46 16 63 46 16 62 45 15 61 43 5 61 41 4 62 42 5 62 45 15 61 46 15 
61 46 15 61 46 15 62 47 14 61 46 15 61 46 13 61 43 5 62 43 3 62 44 6 61 46 15 62 47 16 61 46 15 61 46 15 61 46 15 61 46 15 62 45 15 61 46 15 62 45 15 61 46 15 62 47 16 61 46 15 61 46 15 63 47 14 61 46 15 61 46 15 62 45 15 61 46 15 61 46 17 62 47 16 63 46 16 62 47 14 61 46 15 62 47 16 61 46 15 61 46 15 62 47 16 62 42 7 61 42 2 61 43 5 61 46 15 61 46 13 61 46 15 61 46 15 61 45 11 62 43 3 62 43 3 60 45 12 64 45 15 62 47 16 63 46 16 61 46 15 61 43 5 61 42 2 61 43 5 61 46 15 62 47 16 62 47 16 62 47 16 61 45 11 61 42 2 61 42 2 60 44 11 62 45 15 61 46 15 61 46 15 62 46 13 62 45 15 62 47 16 61 46 13 61 46 15 61 46 13 63 47 14 61 46 15 61 45 11 61 42 2 61 42 2 61 45 12 61 46 15 61 46 15 62 47 16 62 47 16 62 44 6 63 41 2 61 41 4 61 46 15 61 46 15 62 46 13 61 46 15 62 46 13 61 46 13 62 45 15 61 46 13 61 46 15 61 46 17 61 46 15 61 47 12 61 43 5 61 42 0 58 43 4 61 46 15 61 46 15 
60 45 14 61 46 15 61 46 13 61 46 15 62 47 14 61 43 5 60 41 1 61 43 5 62 47 16 61 46 15 61 46 15 61 46 15 61 46 15 61 46 13 62 46 13 61 46 15 62 45 15 61 46 13 62 47 14 61 46 15 61 46 15 60 45 12 61 46 15 62 45 15 61 46 13 61 46 13 62 46 13 62 47 14 62 45 15 61 46 13 61 46 15 61 46 15 61 46 15 62 47 16 61 46 15 61 41 6 62 43 3 60 42 4 60 45 14 61 46 13 61 46 15 62 47 16 61 45 11 60 41 1 61 42 2 61 45 12 62 45 15 61 46 15 61 46 15 62 45 15 61 43 5 61 42 2 60 42 6 61 46 15 61 46 13 61 46 15 62 47 14 61 45 11 60 41 1 62 42 5 60 44 10 62 45 15 61 46 15 61 46 15 62 45 15 63 46 16 61 45 12 62 47 14 60 45 14 61 46 13 62 46 13 61 46 15 61 45 11 62 43 3 61 42 2 61 45 12 61 46 15 60 45 14 61 46 15 61 46 15 61 43 5 62 40 1 62 42 5 61 46 15 61 46 15 61 46 13 62 45 15 61 46 13 62 46 13 61 46 15 62 46 13 61 46 15 62 46 13 63 46 18 62 45 15 61 43 5 62 43 3 62 42 5 62 45 15 61 46 15 
61 46 15 61 46 15 61 46 13 61 46 15 61 46 15 61 43 5 62 43 3 60 42 4 61 46 15 61 46 15 61 46 15 62 47 16 61 46 15 61 46 15 61 46 15 60 45 14 60 45 14 60 45 14 62 47 16 61 46 15 61 46 13 61 46 13 62 46 13 61 46 15 62 47 14 61 45 12 61 46 15 61 46 13 62 45 15 63 47 14 61 46 15 61 46 15 60 45 14 61 46 15 61 46 15 60 42 6 60 41 1 62 42 5 61 46 15 61 46 15 63 46 16 61 46 15 61 45 11 61 41 4 60 42 2 61 45 12 62 45 15 62 45 15 61 46 15 61 46 15 61 43 5 61 42 2 60 42 4 61 46 15 61 46 15 61 46 15 61 46 15 61 45 11 61 42 2 62 43 3 62 46 12 62 46 13 62 46 13 62 45 15 61 46 13 62 47 16 61 46 15 63 46 16 61 46 15 62 47 16 62 45 15 61 46 15 61 45 11 61 41 4 60 40 3 61 45 12 61 46 15 61 46 15 61 46 15 61 46 15 61 43 5 61 42 2 61 41 4 61 46 15 61 46 13 61 46 15 61 46 13 62 45 15 61 46 15 62 46 13 61 46 15 61 46 13 60 45 14 61 46 15 61 46 15 61 43 5 61 42 2 61 43 5 63 46 16 61 46 15 
62 47 16 61 46 15 60 45 12 61 46 15 61 46 15 61 43 5 59 40 0 61 43 5 61 46 15 61 46 15 61 46 15 61 46 15 61 46 13 60 45 14 61 46 15 61 46 13 61 46 13 61 46 15 61 46 15 60 45 12 61 46 15 61 46 15 61 46 15 61 46 15 62 45 15 61 44 14 62 47 16 62 45 15 61 46 15 62 46 13 62 45 15 60 45 14 62 45 15 63 48 17 60 45 14 61 43 7 60 41 1 62 42 5 60 45 14 62 46 13 61 46 15 61 46 15 62 46 13 60 41 1 61 42 2 61 45 12 62 45 15 61 46 15 62 45 15 63 46 16 61 43 5 61 42 2 61 43 5 61 46 15 61 46 15 61 46 15 61 46 15 60 44 10 60 41 1 61 42 2 62 46 12 61 46 13 61 45 11 62 45 15 61 46 15 60 47 15 61 44 14 62 45 15 61 46 13 61 46 13 61 45 12 61 46 15 61 45 11 62 43 3 61 42 2 61 45 12 61 46 15 61 46 15 62 45 15 61 46 15 61 43 5 61 42 2 61 43 5 61 46 15 61 46 15 61 47 12 61 46 15 61 46 15 62 45 15 61 46 15 61 47 12 61 46 15 62 46 13 61 46 15 62 47 14 61 43 7 63 41 2 62 43 3 61 46 15 62 47 16 
61 46 15 60 45 14 62 47 14 61 46 15 61 46 15 61 43 5 61 42 2 60 42 4 61 46 15 61 46 15 61 46 13 63 48 17 62 47 16 61 46 15 61 46 15 63 46 16 60 45 14 62 45 15 61 46 15 61 46 15 62 47 16 60 45 14 61 46 15 61 44 14 61 46 15 61 46 15 61 45 12 60 45 14 61 46 15 62 46 13 62 45 15 60 45 14 62 45 15 60 45 14 60 45 14 61 43 7 61 42 2 60 42 4 61 46 15 60 45 14 61 46 15 62 47 16 62 46 12 60 41 1 61 42 2 61 45 12 61 44 14 62 45 15 60 45 14 62 45 15 61 43 5 61 42 2 61 43 5 61 46 15 61 46 15 62 47 16 61 46 15 61 45 11 61 42 2 61 42 2 63 44 12 60 45 12 61 46 13 63 46 16 61 46 15 62 45 17 61 44 14 61 46 13 61 46 13 61 46 13 62 45 15 61 46 15 61 45 11 61 41 4 61 41 4 61 45 12 61 46 15 61 44 14 62 45 15 62 45 15 61 43 5 61 42 2 61 43 5 60 45 14 61 46 15 61 46 15 61 46 15 61 46 15 61 46 15 61 46 15 61 46 15 61 46 15 61 47 12 61 46 15 61 46 15 60 42 6 62 43 3 62 42 5 64 47 17 61 46 15 
61 46 15 61 46 15 62 47 16 61 46 15 62 45 15 62 44 6 61 41 4 62 44 6 62 46 13 63 46 16 61 44 14 61 46 13 61 46 13 61 46 15 61 46 13 61 46 13 60 45 14 61 46 17 61 46 15 61 46 15 62 45 15 61 44 14 61 44 14 62 45 15 62 45 15 61 44 14 62 45 15 62 45 15 61 46 15 61 45 12 61 44 14 60 45 14 61 46 15 63 46 16 61 46 15 61 43 7 59 40 0 61 41 4 61 46 13 63 48 17 60 45 14 60 45 12 60 44 11 60 41 1 61 42 2 62 46 13 60 45 14 61 46 15 61 44 14 61 46 15 61 43 5 61 42 2 62 42 7 61 46 15 62 46 13 62 45 15 62 47 16 60 44 11 61 42 2 61 42 2 60 44 10 62 45 15 63 48 17 60 45 14 62 46 13 61 46 15 61 46 15 61 46 15 60 45 14 63 46 16 62 45 15 60 45 14 61 45 11 62 43 3 60 41 1 61 45 12 60 45 14 61 46 15 60 45 14 62 45 15 61 43 5 61 42 2 60 42 4 62 45 15 61 46 13 61 46 17 61 46 15 63 46 16 60 45 14 60 45 14 62 45 15 61 46 15 61 46 15 62 45 15 62 46 13 61 43 5 60 40 3 60 42 4 61 46 15 61 46 13 
61 46 15 61 46 15 61 46 15 61 46 15 61 44 14 61 43 5 61 41 4 60 42 4 61 44 14 63 46 16 62 45 15 61 46 13 61 46 13 60 45 14 61 46 15 61 46 13 61 46 15 60 45 14 61 46 15 60 45 14 61 44 14 61 44 14 62 45 15 61 44 14 62 45 15 62 45 15 62 45 15 61 44 14 61 46 15 62 46 13 62 45 15 61 46 15 61 46 13 62 45 15 61 46 15 62 44 8 60 40 3 60 42 4 61 46 15 61 46 15 61 46 13 62 45 15 61 45 12 59 40 0 61 41 4 61 45 12 62 45 15 61 46 15 62 47 16 60 45 14 61 43 5 60 40 3 61 43 7 60 45 14 61 46 15 61 46 15 61 46 15 61 45 12 61 42 2 61 42 2 60 44 11 64 47 17 61 46 15 60 45 14 61 44 14 60 45 14 62 47 14 61 46 13 61 46 13 62 45 15 62 45 15 61 46 15 60 44 11 61 41 4 61 42 0 60 43 13 61 46 15 61 46 15 60 45 14 62 45 15 61 43 5 61 42 2 60 42 4 61 45 12 61 46 15 60 43 13 62 47 16 61 46 15 61 44 14 61 46 15 61 46 15 61 46 15 61 46 15 62 46 13 62 45 15 60 42 4 60 40 3 61 41 4 61 44 14 62 46 13 
61 46 15 61 46 15 61 46 15 62 47 16 62 46 13 61 43 5 61 41 4 60 42 4 61 44 14 62 46 12 62 45 17 61 46 15 60 45 12 60 45 14 60 45 14 60 45 12 61 46 15 62 47 16 60 45 14 61 46 15 61 44 14 61 44 14 62 45 15 62 45 15 61 44 14 62 45 15 62 45 15 61 44 14 61 46 15 61 46 15 62 47 16 62 45 15 60 45 14 63 47 14 61 46 15 61 43 7 61 42 0 62 42 5 62 46 13 59 44 13 60 45 14 61 46 13 63 44 12 61 42 2 60 40 3 61 45 12 61 44 14 61 46 15 61 46 15 61 46 13 62 44 6 61 42 2 61 43 5 62 45 15 61 46 15 61 46 15 61 46 15 62 46 13 60 41 1 62 43 3 62 46 13 62 45 15 61 46 15 60 45 14 63 46 16 61 46 15 60 45 12 61 46 15 61 46 15 62 45 15 62 45 15 61 46 15 60 44 10 61 42 2 62 43 3 61 45 11 61 46 15 61 46 15 60 45 14 63 46 16 62 44 6 62 43 3 61 43 5 62 46 13 61 46 15 62 45 15 61 46 15 61 46 15 62 45 15 59 44 13 61 46 15 62 47 14 61 44 14 62 46 13 63 46 16 61 43 7 60 41 1 60 42 4 62 47 16 61 46 15 
61 46 15 60 45 14 61 46 15 60 45 14 62 45 15 61 43 5 62 43 3 61 43 3 61 44 14 61 44 14 61 44 14 61 46 13 60 45 12 60 45 14 61 46 15 61 46 15 60 45 14 60 45 14 61 46 15 60 45 14 62 45 15 62 45 15 62 45 15 62 46 13 61 44 14 62 46 13 62 45 15 63 46 16 61 46 15 62 47 14 61 46 15 61 44 14 61 46 13 60 45 14 61 46 13 60 42 6 61 41 4 61 43 5 61 46 15 61 46 15 60 45 12 61 46 15 61 45 12 60 41 1 61 41 4 60 44 11 61 46 15 60 45 14 62 46 13 61 46 15 61 43 3 61 42 2 61 43 7 62 45 15 61 46 15 61 46 15 63 46 16 60 44 11 62 43 3 61 42 2 62 46 13 61 45 12 60 45 14 61 46 17 62 45 15 60 45 14 61 46 15 60 45 14 60 45 14 61 44 14 63 46 16 60 45 14 60 44 11 60 41 1 61 42 2 61 45 11 60 45 14 60 45 14 60 45 14 62 45 15 61 43 5 60 41 1 61 43 5 62 45 15 61 46 15 61 46 15 59 44 13 61 44 14 61 46 15 61 46 15 62 45 15 61 46 13 60 45 14 62 46 13 62 46 13 61 43 5 60 40 3 61 41 4 62 45 15 62 45 15 
60 45 14 62 47 16 61 46 15 61 46 15 62 46 13 61 43 5 60 40 3 60 42 4 61 44 14 62 45 15 61 44 14 60 45 14 61 46 15 61 46 15 60 45 14 61 46 15 61 46 15 60 45 14 60 45 14 61 46 15 62 45 15 62 46 13 61 44 14 61 45 12 61 44 14 62 46 13 62 45 15 61 44 14 62 45 15 61 46 15 60 47 15 61 44 14 61 46 17 61 46 13 61 46 15 60 42 6 61 41 4 61 43 5 61 46 13 61 46 15 60 45 14 61 46 13 60 44 11 61 42 2 61 41 4 61 45 12 60 45 14 62 47 14 62 46 13 61 47 12 60 42 4 61 42 2 60 42 6 61 44 14 60 45 14 60 45 14 61 44 14 60 44 11 61 42 2 61 42 2 61 45 12 62 45 15 62 47 16 61 46 15 63 46 16 60 45 14 61 46 13 61 46 15 61 46 15 62 45 15 62 46 13 59 44 13 61 45 12 61 42 2 60 41 0 60 44 11 61 46 15 61 46 15 61 46 15 62 45 15 61 43 5 61 42 2 61 43 5 61 44 14 61 46 15 59 44 13 60 45 14 63 46 16 60 45 14 62 47 16 62 46 13 61 46 15 62 46 13 61 45 12 62 45 15 61 43 7 60 41 1 61 43 7 60 45 12 61 46 15 
61 46 15 60 45 14 60 45 14 60 45 14 62 45 15 61 43 5 61 42 2 60 42 4 61 44 14 62 45 15 61 45 12 61 46 13 61 46 15 61 46 15 60 45 14 60 45 14 61 46 15 60 45 14 60 45 14 62 47 16 61 44 14 62 46 13 62 45 15 62 46 13 61 44 14 61 45 12 62 45 15 61 44 14 62 45 15 61 46 13 61 46 15 61 44 14 62 47 14 59 46 14 60 45 12 60 42 6 61 42 2 60 40 3 64 48 15 61 46 13 60 45 12 60 45 12 63 44 12 61 41 4 60 40 3 60 44 11 61 44 14 61 46 17 61 46 15 61 46 15 61 43 3 61 42 2 60 42 6 62 45 15 60 45 12 61 46 15 61 46 15 61 45 12 60 41 1 61 41 4 61 45 11 62 45 15 61 46 15 61 46 15 61 45 12 61 46 15 61 46 15 60 45 14 61 46 15 61 44 14 62 45 15 61 46 15 60 44 10 60 41 1 60 40 3 60 44 11 60 45 14 60 45 14 60 45 14 62 45 15 61 43 5 61 42 2 61 43 5 62 46 13 62 47 16 62 45 15 60 45 14 60 45 14 63 46 16 58 43 12 61 46 13 61 46 15 62 47 16 61 44 14 62 46 13 61 43 5 60 41 1 63 43 8 62 46 13 61 44 14 
61 46 15 60 45 14 61 46 15 61 46 15 62 45 15 61 43 5 61 41 4 60 42 4 61 44 14 62 46 13 62 46 13 60 45 16 61 46 15 61 46 15 61 46 15 60 45 14 61 46 15 62 47 16 60 45 14 61 46 15 61 44 14 61 44 14 61 44 14 62 45 15 62 45 15 62 45 15 61 44 14 61 44 14 60 43 13 60 45 12 61 46 15 62 45 15 61 44 14 61 46 13 60 45 14 61 43 7 60 40 3 60 42 4 61 46 15 60 45 16 61 46 15 61 45 12 61 45 12 61 42 2 60 40 3 62 46 13 61 44 14 61 46 15 60 45 14 61 46 13 61 43 5 60 40 3 61 43 7 60 45 14 60 45 14 61 46 15 59 44 13 61 45 12 60 41 1 61 42 2 60 44 8 63 46 16 62 47 16 62 47 16 62 45 15 60 45 14 61 46 13 60 45 14 61 46 15 61 44 14 62 45 17 60 45 14 61 45 11 60 41 1 61 42 2 61 45 11 61 46 15 60 45 14 60 45 14 61 44 14 62 44 6 60 41 1 60 42 4 61 45 12 61 46 15 61 44 14 61 46 15 61 46 15 62 45 15 61 46 15 61 46 15 61 46 15 61 46 15 61 44 14 61 44 14 61 43 5 61 42 0 61 43 5 61 46 15 59 44 13 
60 45 14 60 45 14 60 45 14 60 45 14 61 44 14 59 41 3 60 41 1 60 42 4 62 45 15 62 46 13 62 45 15 60 45 12 59 44 13 61 46 15 61 46 15 60 45 14 61 46 15 61 46 15 61 46 15 61 46 15 62 45 15 61 44 14 62 45 15 62 45 15 62 45 15 62 45 15 62 45 15 63 46 16 60 45 14 61 46 13 61 46 15 62 45 15 61 45 12 62 47 16 61 46 15 61 43 7 61 42 2 62 42 5 60 45 12 60 45 14 60 45 14 60 45 14 61 45 12 60 41 1 61 42 2 61 45 12 61 46 15 60 45 14 62 45 15 60 45 14 61 43 5 60 41 1 61 41 4 61 46 15 61 44 14 62 45 15 61 46 15 60 44 11 61 42 2 61 42 2 62 46 13 62 45 15 61 46 15 61 46 15 62 46 13 60 45 14 60 45 12 61 46 13 61 46 15 62 46 13 62 45 15 60 45 16 60 44 11 61 42 2 60 41 1 62 46 13 60 45 14 61 46 15 60 45 14 61 44 14 61 43 5 60 41 1 60 42 4 61 44 14 62 47 16 61 46 13 60 45 14 62 45 15 61 46 15 60 45 14 61 44 14 61 46 15 61 46 15 62 46 13 63 46 16 61 43 5 60 41 1 60 42 6 63 46 16 61 45 11 
61 46 15 61 46 15 61 46 15 61 46 15 61 46 15 61 43 7 60 41 1 60 42 4 61 44 14 61 46 15 61 46 15 61 46 15 60 45 14 59 44 13 61 46 15 60 45 14 60 45 14 61 46 15 60 45 14 60 45 14 60 45 14 60 45 14 60 45 14 60 45 14 61 46 15 60 45 14 60 45 14 62 45 15 60 45 14 61 46 15 63 46 16 60 45 14 60 45 14 61 46 15 61 46 15 62 44 8 61 41 4 61 41 4 60 45 14 60 45 14 61 46 15 60 45 14 59 44 11 60 40 3 61 42 2 60 45 12 60 45 14 60 45 14 60 45 14 62 45 15 60 42 4 61 42 2 64 41 7 61 46 15 60 45 14 61 44 14 63 47 14 61 45 11 60 41 1 61 41 4 61 45 12 61 44 14 61 46 15 61 46 15 61 44 14 60 45 14 62 47 16 60 45 14 60 45 14 61 46 15 60 45 14 61 46 15 61 45 11 60 40 3 61 42 2 61 45 12 61 46 15 62 47 16 60 45 14 59 44 13 61 43 5 60 40 3 60 42 6 60 45 14 61 46 15 60 45 14 60 45 14 61 46 15 61 46 15 61 46 15 61 46 15 60 45 14 61 46 15 60 45 14 60 45 14 60 42 4 61 42 2 60 42 4 60 45 14 61 46 15 
60 45 14 60 45 14 60 45 14 60 45 14 61 46 15 60 42 6 61 42 2 61 43 5 61 44 14 60 45 14 60 45 14 61 46 15 60 45 14 60 45 14 60 45 14 60 45 14 61 46 15 61 46 15 60 45 14 60 45 14 60 45 14 61 46 15 61 46 15 61 46 15 61 46 15 61 44 14 61 44 14 61 46 15 61 46 15 61 46 15 61 46 15 61 46 15 61 44 14 61 46 15 61 46 15 61 43 7 61 42 2 61 43 5 61 46 15 60 45 14 59 44 13 60 45 14 60 45 12 60 41 1 60 41 1 60 45 12 61 46 15 61 46 15 60 45 14 61 44 14 60 42 4 61 42 2 61 41 6 60 45 14 60 45 14 61 46 15 60 45 14 61 45 11 60 41 1 61 41 4 61 45 12 62 45 15 60 45 14 60 45 14 60 45 14 61 46 15 60 45 14 62 45 15 61 44 14 60 45 14 61 44 14 61 44 14 61 45 12 60 40 3 60 40 3 60 44 11 61 46 15 61 46 15 60 45 14 60 45 14 60 42 4 60 40 3 61 43 7 60 45 14 61 46 15 60 45 14 62 45 15 61 46 15 60 45 14 61 44 14 60 43 13 61 46 15 60 45 14 61 46 15 61 46 13 61 43 7 61 42 2 62 44 8 60 45 14 60 45 12 
61 46 15 61 46 15 61 46 15 61 46 15 61 46 15 60 42 6 60 41 1 60 42 4 62 45 15 60 45 14 61 46 15 60 45 14 61 46 15 61 46 15 61 46 15 61 46 15 61 46 15 61 46 15 60 45 14 61 46 15 60 45 14 59 44 13 60 45 14 60 45 14 60 45 14 61 46 15 60 45 14 60 45 14 60 45 14 60 45 14 60 47 15 61 46 15 62 45 15 60 43 13 61 46 15 60 42 6 61 41 4 60 42 4 60 45 14 61 46 15 60 45 14 60 45 14 61 45 12 62 43 3 60 41 1 60 44 11 59 44 13 60 45 14 61 46 15 60 45 14 61 43 5 62 43 3 61 43 7 61 44 14 61 44 14 60 45 12 61 46 15 61 45 11 61 41 4 61 42 2 60 44 11 60 45 14 59 44 13 60 45 14 61 46 15 61 46 15 60 45 14 60 45 14 60 45 16 61 44 14 61 44 14 60 45 14 60 44 11 60 41 1 61 41 4 60 44 11 60 45 14 60 45 14 60 45 14 61 46 15 61 43 5 61 41 4 60 42 6 60 45 14 61 46 15 61 46 15 60 47 15 60 45 14 60 45 14 61 44 14 61 46 15 61 46 15 60 45 14 61 46 15 61 46 13 61 43 5 61 41 4 60 42 6 60 45 14 61 46 13 
60 45 14 60 45 14 60 45 14 60 45 14 60 45 14 61 43 7 61 42 2 60 42 4 62 45 15 60 45 14 60 45 14 60 45 14 61 46 15 60 45 14 61 46 15 60 45 14 61 46 15 60 45 14 61 46 15 60 45 14 61 46 15 60 45 14 60 45 14 62 47 16 61 46 15 60 45 14 60 45 14 62 45 15 60 45 14 60 45 14 60 45 14 61 46 15 60 45 14 61 46 15 62 45 15 61 43 7 61 41 4 60 42 6 60 45 14 61 46 15 60 45 14 61 46 15 61 45 12 61 41 4 60 41 1 60 44 11 60 45 14 60 45 14 60 45 14 61 46 15 61 43 5 60 41 1 61 43 7 62 45 15 61 44 14 61 46 13 61 46 15 60 44 10 60 40 3 61 42 2 61 45 12 60 45 14 60 45 14 61 46 15 62 47 16 60 45 14 61 46 15 60 45 14 60 45 14 61 46 15 60 47 15 61 46 15 60 44 11 61 41 4 60 40 3 61 45 12 60 45 14 60 45 14 61 46 15 60 45 14 61 43 5 60 40 3 60 42 6 61 46 15 61 46 15 60 45 14 59 46 14 62 47 16 61 46 15 61 44 14 60 45 14 60 45 14 60 45 14 61 46 15 61 46 15 61 43 5 61 42 2 60 42 4 61 46 15 60 45 14 
60 45 14 60 45 14 61 46 15 61 46 15 60 45 14 61 43 7 61 42 2 61 43 5 61 44 14 60 45 14 60 45 14 60 45 14 61 46 15 60 45 14 60 45 14 60 45 14 61 46 15 60 45 14 61 46 15 60 45 14 61 44 14 60 45 14 60 45 14 61 46 15 60 45 14 60 45 14 60 45 14 60 45 14 59 44 13 59 44 13 61 44 14 60 45 14 61 46 15 60 45 14 61 46 15 60 42 6 60 41 1 62 42 5 60 45 14 61 44 14 61 44 14 62 45 15 60 44 11 60 41 1 60 41 1 60 45 12 61 46 15 60 45 14 60 45 14 61 44 14 59 41 3 60 41 1 59 41 5 60 45 14 60 45 14 61 46 13 60 45 14 61 45 11 61 41 4 60 41 1 60 44 11 60 45 14 60 45 14 60 45 14 61 46 15 61 46 15 60 45 14 61 46 15 60 45 14 61 46 15 62 45 15 61 46 15 61 45 11 59 39 2 62 42 5 59 44 11 61 46 15 61 46 15 60 45 14 60 45 14 61 43 5 60 40 3 60 42 6 61 46 15 61 46 15 61 46 15 61 44 14 60 45 14 60 45 14 60 47 15 61 46 15 60 45 14 61 46 13 60 45 14 60 45 14 61 43 7 61 42 2 60 42 4 60 45 14 60 45 14 
61 46 15 60 45 14 60 45 14 61 46 15 61 46 15 60 42 6 60 41 1 61 43 5 61 44 14 60 45 14 61 46 15 61 46 15 60 45 14 61 46 15 60 45 14 60 45 14 60 45 14 61 46 15 61 46 15 60 45 14 60 45 14 60 45 14 59 44 13 61 46 15 61 46 15 61 46 15 60 45 14 61 46 15 61 44 14 60 45 14 60 45 14 62 47 16 60 45 14 60 45 14 61 46 15 61 43 7 61 41 4 61 41 4 59 44 13 61 44 14 61 44 14 61 44 14 60 44 11 61 42 2 61 42 2 59 44 11 60 45 14 61 46 15 60 45 14 61 44 14 60 42 4 61 42 2 60 42 6 60 45 14 62 47 16 60 45 14 60 45 14 61 45 11 60 41 1 60 40 3 61 45 12 61 46 15 61 46 15 61 46 15 61 46 15 61 46 15 61 46 15 60 45 14 61 44 14 60 45 14 60 43 13 61 44 14 60 44 10 59 41 3 61 42 2 60 44 11 60 45 14 61 46 15 61 46 15 61 46 15 60 42 4 61 41 4 59 41 5 61 46 15 60 45 14 61 46 15 62 45 15 61 46 15 61 46 15 60 47 15 60 45 14 60 45 14 61 46 13 60 45 14 61 46 15 61 43 7 62 43 3 60 42 4 60 45 14 60 45 14 
60 45 14 60 45 14 61 46 15 61 46 15 60 45 14 60 42 6 61 42 2 61 43 5 62 45 15 60 45 14 60 45 14 60 45 14 60 45 14 60 45 14 60 45 14 60 45 14 60 45 14 60 45 14 60 45 14 61 46 15 60 45 14 61 44 14 62 45 15 61 46 15 60 45 14 61 46 15 59 44 13 61 46 15 62 45 15 60 45 14 60 45 14 60 45 14 60 45 14 59 44 13 61 46 15 62 42 7 61 41 4 61 43 7 60 45 14 60 45 14 60 45 14 60 45 14 60 44 11 60 42 4 60 41 1 60 44 11 60 45 14 61 46 15 60 45 14 62 47 16 60 42 4 60 41 1 60 42 6 61 46 15 61 46 15 59 44 13 60 45 12 62 46 13 60 41 1 61 41 4 59 44 11 61 46 15 60 45 14 60 45 14 61 46 15 60 45 14 60 45 14 61 46 15 60 45 14 62 45 15 59 44 13 60 45 14 61 45 11 60 40 3 60 40 3 60 44 11 60 45 14 61 46 15 60 45 14 61 46 15 60 42 4 60 40 3 61 43 7 60 45 14 60 45 14 61 44 14 62 45 15 59 44 13 61 46 15 61 44 14 60 45 14 61 46 15 61 46 15 60 45 14 60 45 14 59 41 3 61 42 2 60 42 4 61 46 15 60 45 14 
60 45 14 59 44 13 60 45 14 62 47 16 58 43 12 60 42 6 61 42 2 61 43 5 62 45 15 60 45 14 60 45 14 60 45 14 61 46 15 61 46 15 60 45 14 61 46 15 60 45 14 61 46 15 60 45 14 60 45 14 61 44 14 61 46 15 59 44 13 61 46 15 61 46 15 61 46 15 60 45 14 61 46 15 60 45 14 61 46 15 61 46 15 61 46 15 60 45 14 60 45 14 61 44 14 61 43 7 62 40 1 61 43 5 61 46 15 60 45 14 60 45 14 61 46 15 63 44 12 60 41 1 60 41 1 61 45 12 60 45 14 61 46 15 60 45 14 60 45 14 61 43 5 61 42 2 60 42 6 60 45 14 61 46 15 60 45 14 60 45 12 60 44 11 60 41 0 61 41 4 60 44 11 61 46 15 61 46 15 60 45 14 60 45 14 60 45 14 60 45 14 61 46 15 61 46 15 60 45 14 60 45 14 60 45 14 61 45 12 61 42 2 61 41 4 61 45 12 60 45 14 61 46 15 60 45 14 60 45 14 60 42 4 60 40 3 60 42 6 61 46 15 60 45 14 61 46 15 60 45 14 60 45 14 60 45 14 61 46 15 61 46 15 61 46 15 60 45 12 59 44 13 61 46 15 60 42 6 60 41 1 60 42 4 60 45 14 60 45 14 
60 45 14 61 46 15 60 45 14 61 46 15 61 46 15 60 42 4 61 42 2 60 42 4 61 46 15 60 45 14 61 44 14 61 46 13 61 44 14 60 45 14 62 45 15 60 45 14 60 45 14 62 45 15 60 45 14 62 45 15 60 47 15 60 45 14 61 44 14 60 45 14 62 45 15 61 46 15 61 46 15 60 45 14 60 45 14 61 46 15 60 45 14 60 45 14 61 46 15 60 45 14 60 45 14 61 43 7 61 41 4 61 43 3 61 44 14 62 47 16 60 45 14 61 44 14 61 45 12 59 41 3 61 41 4 60 44 11 59 44 13 60 45 14 61 46 15 60 45 14 60 42 4 60 41 1 60 42 6 60 45 14 60 45 14 61 46 15 61 44 14 60 44 11 60 41 1 60 41 1 60 44 11 60 45 14 61 44 14 60 45 14 59 44 13 60 45 14 59 44 13 60 45 14 60 45 14 61 46 15 60 45 14 60 45 14 60 44 11 61 41 4 60 40 3 60 44 11 61 46 15 61 46 15 61 46 15 62 47 14 60 42 6 61 41 4 60 42 4 61 46 17 60 45 14 60 45 14 61 46 15 60 45 14 62 47 16 61 46 15 60 45 14 61 46 15 61 46 15 60 45 14 61 46 15 61 41 6 62 43 3 61 41 6 60 45 14 62 45 15 
61 46 15 62 47 16 61 46 15 60 45 14 61 46 15 61 43 7 63 41 2 61 43 5 61 46 15 61 46 15 59 44 13 61 46 13 61 46 15 61 46 15 62 45 15 60 45 14 59 44 13 62 45 15 60 45 14 60 45 14 60 45 14 60 45 14 60 45 14 60 45 14 62 45 15 60 43 13 60 45 14 60 45 14 60 45 14 61 46 15 60 45 14 60 45 14 61 46 15 60 45 14 60 45 14 61 43 7 60 40 3 61 43 3 60 45 14 61 46 15 60 45 14 61 44 14 61 45 12 60 40 3 60 40 3 59 43 10 61 46 15 60 45 14 61 46 15 60 45 14 60 42 4 60 41 1 61 41 6 60 43 13 60 45 14 60 45 14 60 45 14 60 44 11 59 41 1 60 41 1 60 44 11 61 44 14 60 45 14 63 44 14 60 45 14 61 44 14 60 45 14 61 44 14 60 45 14 61 46 15 61 46 15 60 45 14 60 44 11 60 40 3 60 40 3 60 44 11 60 45 14 60 45 14 60 45 14 60 45 12 60 42 6 61 41 4 61 43 5 60 45 16 60 45 14 61 46 15 60 45 14 59 44 13 60 45 14 60 45 14 60 45 14 60 45 14 61 44 14 61 46 15 60 45 14 61 43 5 60 40 3 58 42 6 58 45 13 62 45 15 
60 45 14 60 45 14 62 47 16 61 46 15 60 45 14 60 42 6 60 41 1 60 42 4 60 45 14 62 47 16 60 45 14 60 45 14 61 46 15 60 43 13 61 46 15 61 46 15 60 45 14 61 46 15 61 44 14 60 45 14 60 45 14 60 45 14 60 45 14 60 45 14 61 46 15 60 45 14 60 45 14 60 45 14 60 45 14 60 45 14 60 45 14 60 45 14 61 46 15 60 45 14 60 45 14 60 42 6 61 41 4 60 42 4 60 45 14 61 46 15 60 45 14 60 45 14 61 45 12 59 39 2 60 40 3 59 44 11 62 45 15 61 46 15 61 46 15 61 46 15 61 43 5 61 42 2 61 41 6 60 45 14 60 45 14 60 45 14 60 45 14 61 45 12 61 42 2 59 40 0 61 45 12 60 45 14 60 45 14 60 45 14 61 46 15 58 45 13 60 45 14 60 45 14 60 45 14 60 45 14 60 45 14 59 44 13 60 44 11 60 40 3 59 39 2 60 44 11 61 46 15 60 45 14 59 44 13 61 46 15 60 42 6 61 41 4 60 42 4 60 45 14 60 45 14 61 46 15 61 46 15 60 45 14 61 46 15 60 45 14 60 45 14 60 45 14 61 44 14 60 45 14 63 44 14 61 41 4 60 40 3 60 42 6 60 45 14 60 45 14 
60 45 14 60 45 14 60 45 14 60 45 14 61 46 15 61 43 7 61 42 2 59 41 3 60 45 14 61 46 15 61 44 14 60 45 14 60 45 14 60 45 14 60 45 14 60 45 14 60 45 14 60 45 14 61 46 15 60 45 14 60 45 14 60 45 14 61 44 14 60 45 14 61 46 15 61 46 15 60 45 14 61 44 14 61 46 15 61 46 15 60 45 14 60 45 14 61 46 15 61 46 15 61 46 15 60 42 6 60 40 3 60 42 4 61 46 15 60 45 14 60 45 14 60 45 14 60 44 11 61 41 4 60 40 3 60 44 11 60 45 14 60 45 14 61 46 15 60 45 14 61 43 5 60 41 1 60 40 5 61 44 14 60 45 14 60 45 14 61 46 15 60 44 11 58 40 0 60 41 1 60 44 11 61 46 15 61 46 15 60 45 14 60 45 14 60 45 14 60 45 14 59 44 13 60 45 14 60 45 14 59 44 13 60 45 14 60 44 11 60 40 3 61 41 4 60 44 11 60 45 14 61 46 15 61 46 15 60 45 14 60 42 6 61 41 4 59 41 3 60 45 14 61 46 15 60 45 14 60 45 14 60 45 14 60 45 14 60 45 14 60 45 14 62 47 16 60 45 14 60 45 14 61 46 15 60 42 6 60 41 1 61 41 6 60 45 14 62 45 15 
60 45 14 61 46 15 60 45 14 60 45 14 61 46 15 60 42 6 60 41 1 60 42 4 60 45 14 61 44 14 61 46 15 60 45 14 59 44 13 62 45 15 60 45 14 60 45 14 60 45 14 60 45 14 61 44 14 61 46 15 60 45 14 60 45 14 60 45 14 61 46 15 60 45 14 60 45 14 60 45 14 60 45 14 61 46 15 61 46 15 60 45 14 60 45 14 61 46 15 61 46 15 61 46 15 60 42 6 61 41 4 60 42 6 60 45 14 60 45 14 60 45 14 60 45 14 60 44 11 59 39 2 60 40 3 60 44 11 60 45 14 60 45 14 60 45 14 61 46 15 60 42 4 60 41 1 60 42 6 60 45 14 61 46 15 60 45 14 61 46 15 60 44 11 60 41 1 60 40 3 60 44 11 60 45 14 60 45 14 60 45 14 60 45 14 60 45 14 60 45 14 61 46 15 60 45 14 59 44 13 59 44 13 60 45 14 60 44 11 59 39 2 60 40 3 60 44 11 60 45 14 60 45 14 61 46 15 61 46 15 60 42 6 60 40 3 60 42 6 60 45 14 60 45 14 60 45 14 61 46 15 60 45 14 60 45 14 61 46 15 60 45 14 60 45 14 61 46 15 60 45 14 60 45 14 60 42 6 60 41 1 61 41 6 60 45 14 61 44 14 
59 44 13 59 44 13 60 45 14 60 45 14 60 45 14 60 42 6 60 41 1 60 42 4 61 46 15 60 45 14 60 45 14 60 45 14 60 45 14 61 46 15 61 46 15 60 45 14 60 45 14 61 46 15 60 45 14 60 45 14 60 45 14 60 45 14 61 44 14 61 46 15 60 45 14 62 45 15 60 45 14 60 45 14 60 45 14 60 45 14 60 45 14 60 45 14 60 45 14 60 45 14 60 45 14 60 42 6 60 40 3 60 42 6 60 45 14 60 45 14 60 45 14 60 45 14 60 44 11 60 40 3 60 40 3 61 45 12 60 45 14 60 45 14 60 45 14 59 44 13 60 42 4 60 41 1 59 41 5 61 46 15 60 45 14 60 45 14 64 45 15 59 43 10 58 38 1 61 41 4 60 44 11 59 44 13 60 45 14 60 45 14 61 46 15 62 45 15 60 45 14 61 46 15 60 45 14 60 45 14 60 45 14 60 45 14 61 45 12 59 39 2 60 40 3 60 44 11 60 45 14 61 46 15 60 45 14 60 45 14 60 42 4 59 39 2 60 42 6 60 45 14 60 45 14 60 45 14 60 45 14 60 45 14 61 46 15 60 45 14 60 45 14 60 45 14 60 45 14 61 44 14 61 44 14 60 42 4 60 40 3 60 40 5 60 45 14 60 45 14 
60 45 14 60 45 14 60 45 14 60 45 14 60 45 14 61 41 6 60 40 3 61 41 6 60 45 14 60 45 14 60 45 14 60 45 14 61 46 15 60 45 14 60 45 14 60 45 14 60 45 14 60 45 14 61 46 15 60 45 14 60 45 14 60 45 14 60 45 14 61 44 14 60 45 14 61 46 15 60 45 14 60 45 14 60 45 14 60 45 14 60 45 14 60 45 14 60 45 14 60 45 14 60 45 14 61 43 7 60 40 3 61 43 7 61 46 15 60 45 14 60 45 14 61 44 14 60 44 11 60 40 3 59 39 2 60 44 11 60 45 14 60 45 14 60 45 14 60 45 14 60 42 4 60 41 1 61 41 6 61 44 14 60 45 14 61 46 15 60 45 14 60 44 11 60 40 3 60 40 3 60 44 11 60 45 14 60 45 14 59 44 13 60 45 14 60 45 14 60 45 14 60 45 14 60 45 14 59 44 13 60 45 14 60 45 14 60 44 11 59 39 2 60 40 3 60 44 11 60 45 14 61 46 15 60 45 14 60 45 14 60 42 4 60 40 3 59 41 5 60 45 14 60 45 14 60 45 14 60 45 14 60 45 14 60 45 14 60 45 14 60 45 14 60 45 14 60 45 14 61 44 14 61 44 14 60 42 4 59 41 3 60 40 5 61 46 15 60 45 14 
60 45 14 60 45 14 60 45 14 59 44 13 60 45 14 60 42 6 60 40 3 60 42 6 59 44 13 61 44 14 60 45 14 60 45 14 59 44 13 60 45 14 60 45 14 60 45 14 60 45 14 60 45 14 60 45 14 60 45 14 60 45 14 60 45 14 60 45 14 61 44 14 60 45 14 59 44 13 59 44 13 60 45 14 60 45 14 60 45 14 60 45 14 60 45 14 60 45 14 60 45 14 59 44 13 60 42 6 61 41 4 60 41 8 61 44 14 60 45 14 61 46 15 61 44 14 60 44 11 59 41 3 59 39 2 59 44 11 62 45 15 60 45 14 60 45 14 61 46 15 60 42 4 60 41 1 60 40 5 61 44 14 60 45 14 60 45 14 60 45 14 60 44 11 59 41 3 60 40 3 62 43 11 60 45 14 60 45 14 60 45 14 61 44 14 60 45 14 60 45 14 60 45 14 60 45 14 61 46 15 60 45 14 59 44 13 61 45 12 59 39 2 60 40 3 59 43 10 60 45 14 60 45 14 61 46 15 60 45 14 60 42 4 60 40 3 59 41 5 60 45 14 60 45 14 60 45 14 61 46 15 60 45 14 60 45 14 60 45 14 60 45 14 60 45 14 60 45 14 59 46 14 63 46 16 60 42 6 61 42 2 60 40 5 62 45 15 60 45 14 
