P3
100 50
255
73 83 59 75 74 53 79 37 15 78 37 15 79 37 15 79 37 15 82 37 16 79 37 15 80 38 16 79 37 15 80 38 16 80 38 16 79 37 15 79 37 15 79 37 15 79 37 15 79 37 15 79 38 16 79 37 15 75 67 46 73 83 59 74 82 61 70 82 58 71 83 61 72 81 60 72 82 58 73 83 59 73 83 59 71 83 59 70 82 58 79 43 21 79 37 15 79 38 16 79 37 15 80 37 18 80 77 60 82 89 73 83 90 74 83 89 75 83 92 75 83 91 76 82 91 74 83 90 72 82 91 74 63 61 46 26 12 1 31 21 9 27 13 2 27 13 2 26 14 0 89 88 83 97 99 94 74 69 63 27 15 3 25 13 0 26 12 1 50 42 31 98 99 93 85 79 79 37 13 26 33 11 23 34 10 23 34 12 25 35 12 22 35 11 24 34 10 23 33 11 23 35 11 24 35 11 24 35 11 24 34 10 23 33 11 23 35 11 24 35 11 24 33 9 22 34 10 23 35 11 24 35 11 24 34 10 23 35 11 24 41 13 27 44 13 28 40 12 26 34 12 24 35 11 24 34 11 21 35 11 24 35 11 24 33 11 23 35 11 24 35 11 24 35 12 22 35 12 22 34 10 23 35 11 24 41 13 27 176 165 171 255 255 255 254 255 255 255 255 255 
73 82 61 75 69 45 79 36 17 79 37 15 79 38 16 79 37 15 78 37 15 80 38 16 79 37 15 79 37 15 79 37 15 79 37 15 80 38 16 80 38 16 80 38 16 79 37 15 79 36 17 79 36 17 79 37 15 74 72 49 70 82 58 73 82 61 73 81 58 71 83 61 72 81 60 71 83 61 72 81 60 73 82 61 70 82 58 72 80 57 79 37 15 79 36 17 79 37 15 79 37 15 79 37 15 82 67 48 80 91 74 82 91 74 83 90 74 83 90 74 83 90 72 83 90 74 83 90 74 84 91 75 77 84 66 29 20 5 29 17 5 25 13 1 26 12 1 27 15 1 89 88 84 97 98 93 36 28 15 26 14 0 26 14 0 26 14 2 85 82 77 96 99 92 64 51 58 36 13 23 34 11 21 35 11 24 34 12 24 33 11 23 34 10 23 34 10 23 34 10 23 35 11 24 35 11 24 35 11 24 35 11 24 35 11 24 35 11 24 34 10 23 35 11 24 35 11 24 34 10 23 34 10 23 35 11 24 34 10 23 42 14 28 42 14 28 40 14 27 33 11 23 34 10 23 34 12 24 35 12 22 35 11 24 34 10 23 34 10 23 35 12 22 35 12 22 35 12 22 34 10 23 35 11 24 67 44 54 255 255 255 255 255 255 255 255 255 255 255 255 
72 82 58 76 61 38 80 38 16 79 36 17 81 36 15 78 37 15 79 38 16 78 37 15 79 37 15 80 38 16 79 37 15 79 37 15 80 38 16 79 37 15 79 37 15 79 37 15 80 38 16 78 37 15 77 41 17 73 78 55 74 84 60 71 83 59 71 83 59 74 84 60 72 82 58 73 83 59 70 82 58 70 82 58 73 83 59 72 74 52 78 37 15 79 37 15 79 37 15 79 37 15 79 37 13 80 52 31 85 89 74 82 88 74 83 90 74 83 90 74 83 89 75 83 90 74 81 90 73 83 90 72 83 90 74 47 43 31 28 16 4 26 14 0 26 14 2 26 12 1 89 88 84 67 64 55 26 14 0 26 12 1 26 14 2 49 40 31 97 99 94 91 89 90 38 14 27 33 11 23 35 11 24 35 12 22 34 12 24 35 12 22 34 12 24 37 11 24 36 12 25 35 11 24 34 12 24 34 12 24 35 11 24 34 10 23 34 10 23 35 11 24 35 11 24 35 11 24 34 10 23 34 10 23 34 10 23 35 11 24 42 14 28 42 14 28 41 13 27 34 12 24 34 12 24 34 13 22 35 11 24 33 11 23 33 9 22 34 10 23 35 12 22 33 11 23 35 12 22 35 11 24 34 13 22 173 164 169 255 255 255 255 255 255 255 255 255 254 255 255 
71 83 59 77 53 29 79 36 17 80 38 16 78 37 15 79 37 15 79 36 17 79 36 17 79 37 15 79 37 15 80 38 16 79 37 15 79 37 15 79 37 15 80 38 16 80 38 16 79 37 15 80 38 16 79 44 24 73 83 59 71 83 61 73 82 61 73 82 61 73 83 59 72 81 60 73 83 59 71 83 61 71 81 57 73 82 61 74 68 44 80 38 16 79 38 16 78 37 15 80 38 16 79 36 17 80 44 22 83 86 69 82 90 75 81 90 73 82 90 75 83 90 74 82 91 74 82 91 74 81 90 73 82 91 74 74 78 63 33 20 11 26 14 0 25 13 1 26 14 0 80 79 74 29 20 5 25 13 0 26 14 2 28 14 1 78 75 70 98 96 97 60 47 54 33 11 23 33 11 23 35 12 22 35 12 22 35 11 24 35 11 24 35 11 24 34 10 23 33 11 23 35 11 24 35 11 24 35 11 24 35 11 24 35 11 24 34 10 23 35 11 24 35 11 24 34 10 23 34 10 23 34 10 23 35 11 24 33 9 22 41 13 27 42 14 28 41 13 27 35 13 25 35 11 24 33 11 23 35 12 22 33 11 23 34 10 23 34 10 23 35 12 22 35 11 24 34 12 24 35 14 23 90 73 81 255 255 255 255 255 255 255 255 255 255 255 255 255 255 255 
72 82 58 79 47 26 78 37 17 79 37 15 79 36 17 79 36 17 79 36 17 79 36 17 79 37 15 79 37 15 79 37 15 79 37 15 79 37 15 79 37 15 79 37 15 79 37 15 79 37 15 80 38 14 77 49 28 71 83 61 73 83 59 71 83 59 70 82 58 70 82 58 72 81 60 70 82 58 72 81 60 71 80 59 71 83 61 76 60 35 79 37 13 79 37 15 79 37 15 80 38 16 80 38 16 81 38 19 81 72 55 82 89 73 82 91 74 82 89 73 82 91 74 83 90 74 83 90 74 82 89 73 83 90 74 82 91 74 46 43 28 26 14 2 26 12 1 23 14 0 40 30 18 26 14 2 27 13 2 26 14 2 48 40 29 95 97 92 88 84 81 39 18 27 34 10 23 35 11 24 34 10 23 37 11 24 35 11 24 35 11 24 34 12 24 35 11 24 34 10 23 34 12 24 33 11 23 34 10 23 34 10 23 34 12 24 35 11 24 35 11 24 34 10 23 34 10 23 34 10 23 35 11 24 35 11 24 34 10 23 41 13 27 42 14 28 41 13 27 34 12 24 34 10 23 34 12 24 33 11 23 33 11 23 34 12 24 34 12 24 35 11 24 34 10 23 34 10 23 35 11 24 200 194 198 255 255 255 255 255 255 255 255 255 255 255 255 255 255 255 
71 83 59 78 40 19 78 37 17 79 37 15 78 37 15 79 36 17 79 36 17 79 37 15 79 37 15 80 38 16 81 39 17 79 37 15 79 37 15 79 37 15 80 38 16 79 37 15 80 38 16 79 37 15 74 56 34 72 82 58 71 83 59 71 83 59 73 83 59 73 83 59 72 81 60 72 82 58 72 82 58 72 81 60 73 83 59 78 51 30 79 37 15 79 37 15 78 36 12 79 37 15 79 38 16 79 37 15 80 52 31 81 88 72 82 89 73 81 90 73 83 90 74 82 91 74 83 90 74 84 91 75 82 89 73 83 90 74 74 78 61 27 15 3 27 15 3 26 14 0 27 13 0 26 14 2 26 12 1 32 20 8 89 88 83 98 99 94 50 38 42 36 13 23 34 10 23 34 12 24 34 10 23 33 11 23 35 11 24 34 10 23 33 11 23 33 9 22 34 10 23 34 12 24 34 12 24 34 12 24 34 10 23 34 12 24 35 11 24 34 10 23 35 11 24 35 11 24 34 10 23 35 11 24 33 9 22 35 11 24 41 13 27 42 14 28 41 13 27 33 11 23 34 10 23 34 12 24 34 12 24 34 12 24 34 12 24 34 10 23 34 10 23 36 12 25 35 11 24 88 71 79 255 255 255 254 254 254 255 255 255 255 255 255 255 255 255 255 255 255 
73 76 55 79 37 15 79 37 15 79 37 15 79 37 15 78 37 17 79 38 16 79 37 15 80 38 16 79 37 15 79 37 15 79 37 15 80 38 16 79 37 15 79 37 15 79 37 15 81 39 17 80 38 16 73 67 45 73 83 59 70 82 58 72 81 60 72 81 60 72 82 58 71 83 59 70 82 58 72 82 58 72 81 60 72 82 58 79 44 24 81 39 17 79 37 15 79 38 16 79 37 15 78 37 15 79 36 17 79 38 18 81 78 61 83 90 74 84 91 75 83 90 74 81 90 73 82 91 74 84 91 75 83 90 74 82 91 74 81 90 73 45 39 25 26 14 2 26 14 0 26 14 0 27 13 0 28 16 4 74 71 64 96 98 93 73 67 69 35 12 22 34 10 23 34 12 24 33 11 23 35 11 24 36 13 23 33 13 24 34 10 23 34 12 24 36 12 25 33 11 23 33 11 23 34 10 23 35 11 24 34 10 23 34 10 23 35 11 24 34 10 23 34 10 23 35 11 24 35 11 24 34 10 23 34 10 23 35 11 24 41 13 27 42 14 28 41 13 27 34 12 24 35 11 24 34 10 23 34 12 24 33 11 23 34 12 24 35 12 22 37 11 24 34 10 23 33 11 23 199 195 196 255 255 255 254 254 254 255 255 255 255 255 255 255 255 255 255 255 255 
74 69 49 79 37 15 80 38 16 80 38 16 81 36 15 80 38 16 79 37 15 79 37 15 79 37 15 79 37 15 79 37 15 79 37 15 79 37 15 79 37 15 79 37 15 79 37 15 79 37 15 79 37 15 74 73 52 73 83 59 73 83 59 73 82 61 73 83 59 70 82 58 72 82 58 70 82 60 73 83 59 70 82 58 70 80 56 77 41 19 78 36 14 79 37 15 79 37 13 80 38 16 79 38 16 79 37 13 78 37 15 80 53 34 81 88 72 80 91 74 82 89 73 83 90 74 82 91 74 81 90 73 82 91 74 82 89 73 82 89 73 69 71 57 26 12 1 28 14 3 26 14 0 27 15 1 54 47 37 95 97 94 90 89 87 41 21 30 36 12 25 34 12 24 34 10 23 35 11 24 35 11 24 32 12 23 34 12 24 34 13 22 34 10 23 35 11 24 35 11 24 34 10 23 35 11 24 33 11 23 34 12 24 34 12 24 34 10 23 34 10 23 33 9 22 34 10 23 34 10 23 35 11 24 34 10 23 35 11 24 40 12 26 43 15 29 42 14 28 34 12 24 35 11 24 34 10 23 34 12 24 34 12 24 33 11 23 34 12 24 35 11 24 35 13 25 62 42 51 255 255 255 255 255 255 255 255 255 255 255 255 255 255 255 255 255 255 255 255 255 
75 63 41 77 36 14 79 37 15 80 38 16 78 37 15 82 37 16 78 37 15 82 37 16 80 38 16 79 37 15 79 37 15 79 37 15 80 38 16 79 37 15 79 37 15 78 36 14 79 37 15 79 37 15 73 78 56 72 81 60 72 82 58 71 83 59 71 83 59 70 82 58 70 82 58 72 81 60 70 82 58 72 82 58 73 72 51 80 37 18 79 37 15 80 37 18 79 36 17 79 37 15 77 36 16 79 36 17 79 36 17 81 38 19 81 78 61 81 90 73 82 89 73 82 91 74 83 90 74 81 90 73 82 91 74 83 90 74 83 90 74 82 89 73 37 29 16 26 14 0 26 14 0 38 28 18 93 94 89 96 98 93 55 43 47 34 10 23 34 10 23 34 10 23 35 11 24 34 10 23 35 11 24 34 12 24 34 12 24 34 13 22 33 11 23 34 12 24 34 12 24 35 11 24 35 11 24 34 12 24 34 10 23 35 11 24 34 10 23 34 10 23 35 11 24 33 9 22 34 10 23 35 11 24 35 11 24 35 11 24 42 14 28 42 14 28 41 13 27 33 11 23 33 11 23 35 11 24 33 11 23 33 11 23 33 11 23 33 11 24 33 11 23 35 11 24 172 163 168 255 255 255 255 255 255 255 255 255 255 255 255 255 255 255 255 255 255 255 255 255 
77 55 32 79 36 17 80 38 16 79 37 15 79 37 15 80 38 16 79 36 17 80 38 16 79 37 15 79 37 15 79 37 15 79 37 15 79 37 15 79 37 15 79 37 15 79 37 15 79 37 15 78 40 19 70 82 58 73 82 61 70 82 58 71 83 59 70 82 58 70 82 58 73 83 59 70 82 60 72 82 58 72 82 58 72 67 45 79 36 17 79 37 15 78 37 17 78 37 15 79 37 15 78 37 15 79 37 15 81 36 15 79 37 15 81 56 34 82 91 74 81 90 73 81 90 73 86 90 75 82 91 74 83 90 74 81 90 73 83 90 74 81 90 73 63 61 48 26 14 0 34 21 12 87 88 83 97 99 96 67 58 61 34 10 23 34 10 24 35 11 24 35 11 24 34 12 24 33 11 23 35 11 24 35 12 22 34 12 24 34 10 23 35 11 24 35 11 24 34 12 24 34 10 23 35 11 24 34 12 24 34 12 24 34 12 24 34 10 23 35 11 24 35 11 24 35 11 24 35 11 24 35 11 24 34 10 23 34 10 23 41 13 27 41 13 27 41 13 27 34 12 24 33 11 23 35 11 24 33 11 23 35 11 24 34 12 24 34 12 25 34 10 23 62 42 53 255 255 255 255 255 255 255 255 255 255 255 255 255 255 255 255 255 255 255 255 255 255 255 255 
78 43 21 80 37 18 79 37 15 79 37 15 82 37 16 78 37 15 81 36 17 81 36 15 79 37 15 79 37 15 79 37 15 79 37 15 79 37 15 79 37 15 79 37 15 79 37 15 79 37 15 76 48 26 70 82 58 70 82 58 71 83 59 73 83 59 73 83 59 70 82 58 70 82 58 71 83 59 71 83 59 71 83 61 74 62 38 79 37 15 78 37 15 79 37 15 80 38 16 79 37 15 79 38 16 79 36 17 81 36 15 80 38 16 79 36 17 82 85 68 81 90 73 83 90 74 83 90 74 82 91 74 82 91 74 83 90 74 81 88 72 81 90 73 75 79 64 31 21 9 83 84 79 96 98 93 73 64 65 38 16 28 34 13 22 34 10 23 33 11 23 33 11 23 33 11 23 35 11 24 34 10 23 34 12 24 34 10 23 34 10 23 34 12 24 34 12 24 33 11 23 35 11 24 35 11 24 33 11 23 34 10 23 34 10 23 35 11 24 34 10 23 35 11 24 34 10 23 34 10 23 33 9 22 34 10 23 35 11 24 40 12 26 43 15 29 41 13 27 34 10 23 34 12 24 35 11 24 33 11 23 34 10 23 34 12 24 34 12 24 33 11 23 171 165 169 255 255 255 255 255 255 255 255 255 255 255 255 255 255 255 255 255 255 255 255 255 255 255 255 
79 37 15 80 37 18 79 37 13 79 37 15 78 37 17 79 37 15 79 37 13 79 36 17 79 37 15 80 38 16 80 38 16 79 37 15 79 37 15 79 37 15 79 37 15 79 37 15 79 36 17 76 58 36 72 82 58 70 82 58 70 82 58 73 82 61 73 82 61 70 82 58 73 83 59 69 81 57 71 83 59 70 82 58 75 53 30 78 38 13 79 37 15 78 36 12 78 37 17 79 38 18 79 37 15 79 36 17 79 37 15 79 37 15 79 37 15 80 59 38 82 88 74 82 89 73 83 90 74 82 89 73 82 91 74 83 90 74 83 90 74 83 90 74 81 88 72 88 90 85 96 98 93 78 74 75 35 14 23 34 13 22 34 13 22 33 11 23 33 12 19 35 11 24 33 11 23 33 11 23 33 13 24 34 12 24 34 10 23 33 11 23 34 10 23 34 10 23 34 12 24 34 10 23 34 10 23 33 11 23 34 12 24 33 11 23 35 11 24 34 10 23 35 11 24 35 11 24 35 11 24 35 11 24 35 11 24 35 11 24 41 13 27 43 15 29 41 13 27 35 11 24 34 12 24 34 10 23 34 12 24 37 11 24 34 12 24 33 11 23 62 42 53 255 255 255 254 254 254 255 255 255 255 255 255 255 255 255 255 255 255 255 255 255 255 255 255 255 255 255 
80 68 46 81 59 38 80 47 28 79 43 21 79 41 18 79 38 16 79 37 15 78 36 14 79 37 15 79 37 15 79 37 15 79 37 15 81 36 15 78 36 14 79 37 15 79 37 15 80 38 16 74 62 40 70 82 58 70 82 58 72 81 60 72 81 60 72 82 58 71 83 59 70 83 57 71 83 61 70 82 60 73 83 59 77 45 22 79 37 15 79 37 15 80 38 16 78 37 15 79 37 15 80 38 16 80 37 18 78 37 15 79 37 15 81 36 17 79 44 22 83 85 71 82 90 75 82 89 73 83 90 74 82 91 74 83 90 74 83 90 72 82 89 73 83 90 74 88 94 84 80 71 74 37 16 25 34 12 24 33 11 23 35 12 22 33 11 24 35 12 22 34 12 24 34 10 23 33 11 23 34 10 23 33 11 23 34 12 24 35 12 22 33 11 23 34 10 23 34 10 23 35 11 24 34 12 24 34 12 24 34 12 24 34 10 23 34 10 23 35 11 24 36 12 25 34 10 23 34 10 23 35 11 24 35 11 24 34 10 23 40 14 27 42 14 28 40 14 27 34 10 23 34 10 23 34 10 23 33 11 23 34 10 23 34 10 23 34 12 24 173 164 169 254 255 255 255 255 255 255 255 255 255 255 255 255 255 255 255 255 255 255 255 255 255 255 255 255 255 255 
83 90 74 82 91 74 82 91 74 81 88 72 82 85 68 80 83 66 81 80 62 81 69 53 81 64 44 79 58 39 80 55 35 79 50 32 80 47 28 80 44 22 79 41 18 78 35 16 79 37 13 75 60 37 72 81 60 70 82 60 72 82 58 73 83 59 70 82 58 70 82 58 70 82 58 73 83 59 72 81 60 72 80 57 77 39 18 79 37 15 79 37 13 79 37 15 78 37 15 79 37 15 80 38 16 79 36 17 79 38 16 78 37 15 78 36 14 79 41 20 83 76 58 82 91 74 81 88 72 82 89 73 82 89 73 82 91 74 82 89 73 82 89 73 82 89 73 75 76 68 36 16 25 33 11 23 33 11 23 33 11 24 33 13 24 33 9 22 34 10 23 34 12 24 35 11 24 34 13 22 36 13 23 34 12 24 33 11 23 34 10 23 34 10 23 34 12 24 33 11 23 33 11 23 35 11 24 34 10 23 35 11 24 33 11 23 34 10 23 35 11 24 35 11 24 34 10 23 34 10 23 34 10 23 35 11 24 35 11 24 40 12 26 43 15 29 40 14 27 33 11 23 33 9 22 34 10 23 34 12 24 34 10 23 34 12 24 35 12 22 228 226 227 255 255 255 255 255 255 255 255 255 253 255 254 255 255 255 255 255 255 255 255 255 255 255 255 255 255 255 
80 91 74 82 91 74 82 91 74 82 89 73 82 89 73 81 90 73 81 90 73 83 90 74 81 88 72 82 91 74 81 90 71 82 89 73 82 89 73 82 86 69 83 85 71 79 82 65 80 79 61 81 79 64 79 88 69 78 87 68 77 86 65 77 86 67 75 84 65 76 85 64 75 84 65 76 83 65 75 84 63 76 79 58 79 48 28 80 48 27 82 47 27 79 48 27 80 49 29 78 51 30 82 57 37 80 61 44 81 65 49 80 73 55 81 80 62 82 86 69 82 89 73 81 90 73 82 91 74 83 90 74 83 90 74 83 90 74 82 91 74 81 90 73 82 89 73 67 64 57 34 10 23 34 10 23 35 11 24 32 10 22 34 12 24 35 11 24 34 10 23 34 12 24 34 10 23 33 11 23 36 12 25 35 11 24 34 10 23 33 11 23 35 11 24 34 12 24 33 11 23 33 11 23 34 10 23 34 10 23 34 10 23 34 12 24 35 11 24 35 11 24 35 11 24 34 10 23 34 10 23 34 10 23 35 11 24 34 10 23 41 13 27 41 13 27 40 12 26 33 11 23 34 12 24 34 10 23 33 11 23 34 10 23 34 10 23 118 103 110 255 255 255 255 253 254 255 255 255 255 255 255 255 255 255 255 255 255 255 255 255 255 255 255 255 255 255 255 255 255 
82 89 73 82 91 74 81 90 73 81 90 73 81 90 73 81 90 73 82 89 73 82 89 73 80 91 74 80 88 73 81 90 73 83 90 74 82 89 73 83 90 74 80 88 73 81 90 73 81 90 73 79 90 73 82 91 74 82 89 73 81 90 73 82 88 74 82 91 74 80 89 72 82 90 75 82 91 74 82 91 74 82 89 73 80 89 72 81 89 74 81 89 74 82 91 74 80 89 72 81 90 73 83 90 74 82 91 74 82 91 74 82 89 73 82 89 73 82 89 73 83 90 74 81 90 73 81 90 73 83 90 74 82 89 73 81 90 73 82 91 74 82 88 74 82 89 73 66 61 57 33 13 22 33 13 24 35 11 24 34 12 24 33 11 23 34 12 24 34 12 24 33 11 23 34 10 23 34 12 24 34 10 23 34 10 23 35 11 24 32 12 23 34 12 24 34 10 23 34 10 23 34 10 23 34 12 24 34 12 24 35 13 25 34 10 23 34 10 23 35 11 24 36 12 25 34 10 23 34 10 23 34 10 23 34 10 23 35 11 24 41 13 27 41 15 28 41 13 27 33 11 23 33 11 23 34 12 24 34 12 24 33 11 23 34 10 23 227 225 226 255 255 255 255 255 255 255 255 255 255 255 255 255 255 255 255 255 255 255 255 255 255 255 255 255 255 255 255 255 255 
81 90 73 83 90 74 82 89 73 80 89 72 84 91 75 83 90 74 80 89 72 81 90 73 83 90 74 82 91 74 81 90 73 81 90 73 81 90 73 81 90 73 81 88 72 82 91 74 82 89 73 82 91 74 81 90 73 83 90 74 82 91 74 82 89 73 82 91 74 81 90 71 82 89 73 82 91 74 82 90 75 80 91 74 82 89 73 82 89 73 82 91 74 81 90 73 81 90 73 82 91 74 82 89 73 81 90 73 82 89 73 82 89 73 81 89 74 82 91 74 82 89 73 82 89 73 81 90 73 82 91 74 83 90 74 81 90 73 81 90 73 82 90 75 84 91 75 54 44 45 33 12 21 33 11 23 34 10 23 34 12 24 35 11 24 34 12 24 34 12 24 35 11 24 34 10 23 34 12 24 34 10 23 33 11 23 35 11 24 34 12 24 34 12 24 34 10 23 34 10 23 35 11 24 34 12 24 34 12 24 34 12 24 35 11 24 35 11 24 35 11 24 36 12 25 34 10 23 34 10 23 34 10 23 34 10 23 34 10 23 41 13 27 44 13 28 41 13 27 34 12 24 34 12 24 34 10 23 34 12 24 33 11 23 88 73 80 254 255 255 255 255 255 255 255 255 255 255 255 254 254 254 255 255 255 255 255 255 255 255 255 255 255 255 255 255 255 255 255 255 
81 90 73 82 91 74 82 91 74 82 89 73 82 89 73 82 89 73 80 89 72 81 90 73 83 90 74 81 88 70 82 89 73 82 91 74 81 90 73 81 90 73 81 90 73 81 90 73 79 90 73 82 89 73 81 89 74 80 91 74 81 90 73 82 89 73 82 89 73 82 91 74 81 90 73 82 89 73 83 90 74 82 89 73 82 88 74 82 91 74 83 90 72 82 91 74 79 90 73 81 90 73 82 89 73 83 90 74 82 91 74 83 90 74 80 89 72 80 89 72 83 89 75 82 89 73 82 89 73 84 88 73 82 91 74 82 89 73 83 90 74 83 90 74 80 84 70 42 22 31 33 11 23 34 12 24 34 10 23 34 12 24 33 9 22 34 10 23 33 11 23 34 10 23 35 11 24 34 12 24 34 10 23 34 12 24 34 10 23 35 11 24 34 10 23 34 12 24 34 12 24 34 12 24 36 12 25 35 11 24 35 11 24 33 11 23 35 11 24 35 11 24 34 10 23 33 9 22 35 11 24 34 10 23 34 10 23 34 10 23 40 12 26 44 12 27 40 12 26 34 12 24 35 11 24 34 10 23 34 10 23 35 11 24 186 180 184 255 255 255 255 255 255 255 255 255 254 254 254 255 255 255 255 255 255 255 253 254 255 255 255 255 255 255 255 255 255 255 255 255 
82 88 74 81 90 73 81 90 73 82 89 71 81 90 71 82 91 74 82 89 73 83 89 75 82 89 73 82 88 74 81 90 73 82 91 74 83 90 74 82 89 73 82 89 73 81 90 73 82 89 71 81 90 73 83 90 74 83 90 74 82 91 74 82 89 73 84 91 75 81 90 73 81 89 76 82 89 73 82 89 73 82 89 73 82 89 73 82 91 72 81 88 72 81 90 73 82 91 74 80 89 72 82 89 73 81 90 73 82 91 74 82 90 75 82 89 73 82 89 73 83 90 72 82 89 73 82 88 74 83 90 74 83 90 74 82 91 74 81 90 73 83 90 74 60 52 49 34 12 24 34 12 24 34 10 23 34 11 21 33 9 22 34 10 23 34 10 23 34 11 21 35 11 24 33 11 23 33 11 23 35 11 24 33 11 23 34 10 23 34 13 22 35 11 24 33 11 23 33 11 23 33 11 23 35 11 24 35 11 24 34 10 23 33 11 23 34 10 23 34 10 23 34 10 23 34 10 23 34 10 23 34 10 23 35 11 24 35 11 24 39 13 26 42 14 28 40 12 26 36 10 23 34 10 23 34 13 22 34 11 21 62 42 51 254 254 254 255 255 255 255 255 255 255 255 255 255 255 255 255 255 255 255 255 255 254 254 254 255 255 255 255 255 255 255 255 255 255 255 255 
82 89 73 82 91 74 82 91 74 82 89 73 82 89 73 83 90 74 81 90 73 81 90 73 82 89 73 82 88 74 80 89 72 81 90 73 81 90 73 82 89 73 82 90 75 82 91 74 82 89 73 81 89 74 82 89 73 82 91 72 81 88 72 82 88 74 82 89 73 82 88 74 82 88 74 82 89 71 81 90 73 83 90 74 82 89 73 81 89 74 82 88 74 81 90 73 84 91 75 82 88 74 82 89 73 81 90 73 81 90 73 81 89 74 82 89 73 82 89 73 82 89 73 81 90 73 81 90 73 82 89 73 83 91 76 82 91 74 81 90 73 70 72 61 36 16 25 36 12 25 34 12 24 33 12 21 34 10 23 33 11 24 33 11 24 34 12 25 35 11 24 33 11 23 35 13 25 34 11 21 35 12 22 33 13 24 34 10 23 35 11 24 33 11 23 34 10 23 34 10 23 34 10 23 33 11 23 32 10 22 34 12 24 35 11 24 34 10 23 35 11 24 36 12 25 34 10 23 34 10 23 34 10 23 34 10 23 34 10 23 39 13 26 42 16 29 41 13 27 34 12 24 33 12 21 35 12 22 35 12 22 172 163 168 255 255 253 255 255 255 255 255 255 255 255 255 255 255 255 255 255 255 254 254 254 255 255 255 255 255 255 255 255 255 255 255 255 255 255 255 
80 89 72 81 90 73 80 89 72 81 90 73 83 90 74 82 89 73 80 89 72 83 90 74 81 90 73 83 90 74 81 90 73 81 90 73 83 90 74 81 89 74 81 90 73 82 89 73 83 90 72 81 90 73 81 90 73 81 90 73 81 90 73 81 90 73 82 91 74 81 87 73 81 89 74 81 90 73 81 89 74 82 89 73 82 89 73 81 88 72 81 90 73 82 89 73 82 89 73 81 90 73 81 90 73 82 91 74 82 91 74 80 89 72 84 88 73 82 89 71 82 89 73 80 88 73 81 87 73 79 90 73 83 90 72 80 89 72 69 69 61 38 17 26 34 12 24 33 11 23 34 12 24 34 12 24 34 13 22 34 13 22 33 11 23 33 11 23 35 13 25 33 11 23 34 12 24 34 12 24 34 12 24 34 10 23 35 11 24 34 12 24 35 11 24 34 12 24 33 11 23 33 11 23 34 12 24 34 12 24 35 11 24 34 12 24 34 10 23 35 11 24 34 10 23 34 10 23 33 9 22 34 10 23 35 11 24 35 11 24 40 14 27 42 14 28 40 14 27 34 13 22 35 11 24 34 10 23 34 10 23 227 225 228 255 255 255 255 255 255 255 255 255 255 255 255 255 255 255 255 255 255 255 255 255 255 255 255 255 255 255 255 255 255 255 255 255 255 255 255 
67 69 55 76 80 65 79 86 70 81 88 72 81 90 73 82 91 74 84 88 74 82 91 74 81 90 73 81 90 73 82 91 74 81 90 73 83 92 75 82 89 71 81 90 73 82 91 74 81 90 73 82 89 73 82 89 73 82 89 73 81 90 73 81 90 71 80 89 70 81 90 73 81 90 73 82 89 73 83 90 74 82 89 73 81 88 72 82 89 73 82 89 73 82 91 72 83 90 74 82 89 71 83 90 74 82 89 73 84 88 73 80 91 74 82 91 74 81 90 73 82 89 73 83 90 74 82 88 74 82 91 74 75 79 65 54 44 43 35 11 24 33 12 21 33 11 23 34 12 24 34 12 24 34 12 24 33 11 23 33 11 23 34 12 24 34 12 24 34 12 24 34 10 23 35 11 24 33 12 21 34 10 23 33 9 22 34 10 23 33 11 23 33 12 21 33 11 23 35 11 24 34 11 21 34 13 22 33 11 23 35 11 24 33 12 21 34 10 23 34 10 23 34 10 23 35 11 24 34 10 23 34 10 23 35 11 24 35 11 24 40 14 27 44 13 28 41 13 27 34 12 24 34 10 23 34 12 24 116 103 110 255 255 255 255 255 255 255 255 255 255 255 255 255 255 255 255 255 255 255 255 255 255 255 255 255 255 255 255 255 255 255 255 255 255 255 255 255 255 255 
26 14 0 28 14 3 31 19 5 32 22 10 37 29 16 44 38 24 48 45 30 58 56 41 63 65 51 69 73 58 73 77 62 76 83 67 81 88 72 82 88 74 81 89 74 81 89 74 82 89 73 82 89 73 82 89 73 83 90 74 82 89 73 83 90 74 81 90 73 81 90 73 81 90 73 81 90 73 82 88 74 82 89 73 82 89 73 82 89 73 81 90 73 80 89 72 81 88 72 79 90 73 82 91 74 82 89 73 82 89 73 82 89 73 82 88 74 82 89 73 81 90 73 74 76 65 61 56 52 49 34 37 36 15 24 33 11 23 35 11 24 35 11 24 34 12 24 34 12 24 33 12 21 33 12 21 35 13 25 33 11 23 34 12 24 33 11 23 34 12 24 33 9 22 34 12 24 34 12 24 34 12 24 34 10 23 34 12 24 34 12 24 34 12 24 33 11 23 34 10 23 34 10 23 34 12 24 33 11 23 33 11 23 34 12 24 34 10 23 34 10 23 35 11 24 35 11 24 34 10 23 34 10 23 35 11 24 34 10 23 40 14 27 43 15 29 42 14 28 34 12 24 35 11 24 34 12 24 199 194 198 255 255 255 255 255 255 255 255 255 255 255 255 255 255 255 255 255 255 255 255 255 255 255 255 255 255 255 255 255 255 255 255 255 255 255 255 255 255 255 
77 74 65 78 75 68 77 74 67 75 75 67 77 74 67 79 76 71 78 77 72 78 77 72 80 79 74 82 81 76 84 85 80 89 88 84 95 96 91 95 97 92 94 97 90 91 96 89 91 94 85 91 94 87 90 93 86 89 92 81 89 92 81 87 93 81 86 92 80 86 92 78 85 91 79 85 91 77 83 89 75 84 90 76 84 90 76 84 90 76 78 81 70 71 74 63 71 71 63 70 70 60 67 67 59 63 60 55 64 54 52 57 49 47 54 42 44 43 27 30 36 15 24 34 12 25 34 10 23 33 11 23 34 12 24 33 11 23 33 11 23 34 10 23 32 10 22 33 11 23 34 12 24 33 11 23 34 12 24 34 12 24 33 11 23 33 11 23 33 11 23 33 11 23 34 12 24 34 12 24 35 12 22 34 12 24 34 12 24 34 12 24 35 11 24 33 12 21 34 13 22 34 12 24 33 11 23 35 12 22 35 12 22 33 11 23 34 10 23 35 11 24 35 11 24 34 10 23 35 11 24 35 11 24 35 11 24 36 12 25 40 14 27 43 15 29 41 13 27 33 11 23 34 12 24 61 41 50 255 255 255 255 255 255 255 255 255 255 255 255 255 255 255 255 255 255 255 255 255 255 255 255 255 255 255 255 255 255 255 255 255 255 255 255 255 255 255 255 255 255 
97 97 95 96 98 95 96 98 95 97 98 93 96 96 94 96 97 92 96 99 92 96 98 93 97 97 95 96 96 94 97 97 95 97 99 94 96 99 92 96 98 93 95 97 92 97 97 95 98 97 93 96 98 95 95 97 94 98 99 94 97 96 92 97 97 95 96 96 94 96 98 93 97 98 93 95 96 91 91 92 87 80 75 72 61 49 53 41 21 30 33 11 23 33 11 23 32 10 22 34 10 23 34 12 24 33 11 23 33 11 23 34 10 23 35 11 24 33 11 23 34 10 23 35 12 22 34 10 23 33 11 23 35 11 24 35 12 22 34 13 22 33 11 23 35 11 24 34 10 23 35 11 24 35 11 24 34 10 23 34 10 23 34 10 23 35 11 24 34 10 23 34 10 23 35 11 24 35 12 22 34 10 23 33 11 23 33 11 23 33 11 23 33 11 23 33 11 23 33 11 23 34 12 24 34 10 23 34 10 23 33 11 23 34 12 24 35 11 24 34 10 23 35 11 24 36 12 25 35 11 24 34 10 23 35 11 24 35 11 24 41 13 27 44 13 28 41 13 27 34 10 23 34 12 24 144 133 139 255 255 255 255 255 255 255 255 255 255 255 255 255 255 255 255 255 255 255 255 255 255 255 255 255 255 255 255 255 255 255 255 255 255 255 255 255 255 255 255 255 255 
76 70 70 85 81 80 89 88 86 89 89 87 89 89 87 92 94 89 95 95 93 96 97 92 96 98 93 97 97 95 96 96 94 96 96 94 97 97 95 97 97 95 97 99 94 95 97 92 97 98 93 95 97 92 96 97 92 96 97 92 94 94 92 91 90 88 86 82 81 76 70 70 62 50 54 51 36 41 38 17 26 34 11 21 34 10 23 34 10 23 33 11 23 31 11 22 35 9 20 35 11 24 34 10 23 33 11 23 33 11 23 32 12 23 33 11 23 35 11 24 34 13 22 33 11 23 34 11 21 35 11 24 34 10 23 35 12 22 34 10 23 33 11 23 35 11 24 34 10 23 34 10 23 33 9 22 34 11 21 34 11 21 35 11 24 34 10 23 34 10 23 34 10 23 34 10 23 34 10 23 33 11 23 33 11 23 32 10 22 34 12 24 34 12 24 35 11 24 33 9 22 33 11 23 34 12 24 33 11 23 34 12 24 35 11 24 34 10 23 33 9 22 34 10 23 34 10 23 34 10 23 34 10 23 34 10 23 35 11 24 41 13 27 42 14 28 41 13 27 34 10 23 34 13 22 226 224 225 255 255 255 255 255 255 255 255 255 255 255 255 255 255 255 255 255 255 255 255 255 255 255 255 255 255 255 255 255 255 255 255 255 255 255 255 255 255 255 255 255 255 
34 10 23 34 12 24 34 12 24 35 13 25 37 15 27 38 17 26 40 20 31 41 21 32 44 24 35 46 29 37 51 34 42 53 38 45 56 41 48 62 45 53 65 48 56 59 44 51 56 41 48 54 37 45 48 31 39 43 23 32 41 19 31 38 16 28 35 11 24 34 10 23 34 11 21 33 11 23 33 11 23 34 10 23 35 11 24 32 11 20 34 12 24 32 12 23 34 11 21 34 11 21 33 11 23 34 10 23 35 11 24 33 11 23 33 11 23 34 12 25 33 11 23 34 10 23 34 11 21 34 10 23 34 10 23 35 11 24 34 10 23 34 12 24 34 10 23 34 10 23 34 10 23 34 10 23 34 10 23 34 10 23 34 10 23 35 11 24 33 13 24 33 13 24 34 12 24 33 11 23 34 11 21 34 12 24 34 12 24 34 12 24 32 10 22 33 9 22 34 10 23 34 12 24 33 11 23 32 10 22 33 11 23 34 10 23 34 10 23 34 10 23 35 11 24 34 10 23 33 9 22 34 10 23 34 10 23 34 10 23 41 13 27 42 14 28 40 14 27 34 12 24 88 73 80 254 255 255 255 255 255 254 255 255 255 255 255 255 255 255 255 255 255 255 255 255 255 255 255 255 255 255 255 255 255 255 255 255 255 255 255 255 255 255 255 255 255 255 255 255 
33 11 23 33 12 21 34 12 24 34 13 22 34 10 23 34 11 21 34 10 23 33 12 21 33 11 23 34 10 23 33 11 23 34 12 24 36 12 25 43 15 29 44 13 28 35 13 25 34 12 24 33 11 23 34 12 24 32 10 22 33 11 23 33 11 23 33 13 24 34 10 23 34 10 23 33 11 23 33 12 21 34 13 20 33 11 23 34 10 23 34 10 23 34 12 24 33 11 23 33 11 23 33 11 23 33 11 23 34 13 22 33 12 21 33 11 23 35 11 24 33 11 23 35 14 23 34 12 24 34 11 21 34 12 24 34 12 24 34 11 21 33 11 23 34 10 23 34 10 23 34 11 21 34 11 21 34 10 23 34 10 23 34 10 23 34 10 23 34 12 24 34 12 24 34 12 24 35 11 24 34 10 23 33 11 23 33 11 23 37 11 24 33 11 23 34 10 23 33 11 23 34 12 24 35 11 24 35 11 24 32 10 22 34 12 24 34 10 23 34 10 23 34 10 23 34 10 23 33 9 22 34 10 23 34 10 23 35 11 24 41 13 25 42 14 28 43 12 27 34 10 23 173 164 169 255 255 255 255 255 255 255 255 255 255 255 255 255 255 255 255 255 255 255 255 255 255 255 255 255 255 255 255 255 255 255 255 255 255 255 255 255 255 255 255 255 255 255 255 255 
34 12 24 33 11 23 33 11 23 34 12 24 33 11 23 33 11 23 34 12 24 33 11 23 34 10 23 35 11 24 35 11 24 34 10 23 35 11 24 42 14 28 42 14 28 35 11 24 33 11 23 34 12 24 33 11 23 33 11 23 33 11 23 33 11 23 35 13 25 33 11 23 34 12 24 33 11 23 35 11 24 35 11 24 34 12 24 33 11 23 33 11 23 34 10 23 34 10 23 34 10 23 34 10 23 34 10 23 34 10 23 34 10 23 34 10 23 34 10 23 34 10 23 34 10 23 34 12 24 34 12 24 34 12 24 33 11 23 34 10 23 36 12 25 35 11 24 35 11 24 34 10 23 34 10 23 34 10 23 34 10 23 34 10 23 35 11 24 34 10 23 34 10 23 34 10 23 34 10 23 34 10 23 34 10 23 34 10 23 34 10 23 34 12 24 33 11 23 35 11 24 34 10 23 33 9 22 34 10 23 34 12 24 34 12 24 34 11 21 34 10 24 34 10 23 34 10 23 34 10 23 35 12 22 35 11 25 34 11 21 39 13 26 41 13 27 41 14 29 35 11 24 229 225 226 255 255 255 255 255 255 254 254 254 255 255 255 255 255 255 255 255 255 255 255 255 255 255 255 255 255 255 255 255 255 255 255 255 255 255 255 255 255 255 255 255 255 255 255 255 
34 12 24 33 11 23 33 11 23 34 12 24 34 12 24 33 11 23 34 12 24 34 12 24 34 10 23 34 10 23 34 10 23 34 10 23 36 12 25 42 14 28 42 14 28 36 12 25 33 11 23 34 12 24 34 12 24 34 12 24 34 12 24 33 11 23 34 12 24 33 11 23 33 11 23 34 10 23 33 11 23 34 10 23 33 11 23 33 11 23 34 10 23 34 10 23 35 11 24 34 10 23 34 10 23 35 11 24 34 10 23 35 11 24 34 10 23 34 10 23 33 11 23 34 12 24 34 10 23 34 10 23 34 10 23 34 10 23 33 11 23 33 11 23 34 10 23 34 10 23 34 10 23 34 10 23 34 10 23 35 11 24 34 10 23 34 10 23 35 11 24 35 11 24 35 11 24 35 11 24 35 11 24 35 11 24 35 11 24 34 10 23 35 11 24 33 11 23 34 10 23 34 12 24 33 11 23 34 10 23 34 12 24 34 10 23 35 11 24 35 11 24 35 11 24 34 10 23 35 11 24 35 12 22 33 9 23 34 10 23 41 13 27 41 13 27 41 13 28 104 87 97 255 255 255 255 255 255 255 255 255 254 255 255 255 255 255 255 255 255 255 255 255 255 255 255 255 255 255 255 255 255 255 255 255 255 255 255 255 255 255 255 255 255 255 255 255 255 255 255 
33 11 23 33 11 23 34 12 24 33 11 23 34 12 24 33 11 23 33 11 23 33 11 23 35 11 24 33 13 24 33 11 24 34 11 21 36 12 25 42 14 28 42 14 29 36 12 25 34 10 23 35 11 24 34 10 23 34 10 23 34 10 23 35 11 24 34 10 23 35 11 24 34 12 24 34 12 24 35 11 24 34 12 24 36 10 23 34 10 23 35 11 24 34 12 24 35 11 24 34 10 23 34 10 23 35 11 24 34 10 23 35 11 24 34 10 23 35 11 24 33 11 23 33 11 23 35 11 24 34 10 23 34 10 23 34 10 23 33 11 23 34 12 24 34 10 23 35 11 24 34 10 23 34 10 23 34 10 23 34 10 23 34 10 23 35 11 24 34 10 23 34 10 23 34 10 23 34 10 23 34 10 23 34 10 23 34 10 23 35 11 24 34 10 23 34 12 24 34 10 23 35 13 25 33 11 23 34 10 23 34 12 24 34 10 23 35 11 24 35 11 24 34 10 23 34 10 23 34 11 21 34 10 23 34 10 23 33 9 22 41 13 27 42 14 28 40 14 27 171 165 169 255 255 255 255 255 255 255 255 255 255 255 255 255 255 255 255 255 255 255 255 255 255 255 255 255 255 255 255 255 255 255 255 255 255 255 255 255 255 255 255 255 255 255 255 255 255 255 255 
33 11 23 33 11 23 33 11 23 33 11 23 33 11 23 33 11 23 33 11 23 34 12 24 34 11 21 33 11 23 33 11 23 34 10 23 36 13 23 42 14 28 42 14 28 35 12 22 35 11 24 34 10 23 34 10 23 35 11 24 35 11 24 35 11 24 34 10 23 34 10 23 34 10 23 34 10 23 34 12 24 34 12 24 34 10 23 34 10 23 34 10 23 33 11 23 34 10 23 35 11 24 35 11 24 34 10 23 34 10 23 35 11 24 35 11 24 35 11 24 34 10 23 34 10 23 33 11 23 34 12 24 34 12 24 33 11 23 34 10 23 34 10 23 34 10 23 34 10 23 34 10 23 34 10 23 34 10 23 34 10 23 34 10 23 35 11 24 34 10 23 34 10 23 34 10 23 34 10 23 34 10 23 34 10 23 34 10 23 34 10 23 33 11 23 34 12 24 35 11 24 34 10 23 34 10 23 34 10 23 33 11 23 33 11 23 34 10 23 34 11 21 33 9 22 34 10 23 35 11 24 34 10 23 34 10 23 34 10 23 40 14 27 42 14 28 40 14 27 241 239 240 255 255 255 255 255 255 255 255 255 254 254 254 255 255 255 255 255 255 255 255 255 255 255 255 255 255 255 255 255 255 255 255 255 255 255 255 255 255 255 255 255 255 255 255 255 255 255 255 
34 10 23 34 10 23 34 10 23 35 11 24 35 11 24 34 10 23 35 11 24 35 11 24 34 10 23 34 10 23 34 10 23 34 10 23 36 13 23 42 14 28 42 14 28 36 12 25 33 11 23 33 11 23 34 12 24 33 11 23 33 11 23 33 11 23 33 11 23 35 13 25 33 11 23 33 11 23 34 10 23 35 11 24 33 11 23 33 11 23 33 11 23 34 10 23 35 11 24 34 10 23 36 12 25 34 10 23 34 10 23 34 10 23 34 10 23 34 10 23 36 12 25 35 11 24 33 11 23 34 12 24 34 12 24 33 11 23 34 10 23 35 11 24 34 10 23 35 11 24 34 10 23 34 10 23 34 10 23 35 11 24 34 10 23 35 11 24 33 9 22 35 11 24 34 10 23 34 10 23 35 11 24 34 10 23 34 10 23 35 11 24 33 11 23 34 12 24 34 10 23 34 10 23 35 11 24 34 10 23 34 12 24 34 12 24 34 10 23 34 10 23 34 11 21 34 10 23 35 11 24 35 11 24 34 11 21 35 11 24 40 12 26 42 14 28 110 89 98 255 255 255 255 255 255 254 254 254 253 255 254 255 255 255 255 255 255 255 255 255 255 255 255 255 255 255 255 255 255 255 255 255 255 255 255 255 255 255 255 255 255 255 255 255 255 255 255 255 255 255 
34 10 23 34 10 23 34 10 23 35 11 24 34 10 23 35 11 24 34 10 23 34 10 23 34 12 24 35 11 24 35 11 24 34 10 23 36 12 25 42 14 28 42 14 28 36 12 25 34 12 24 33 11 23 33 11 23 33 11 23 33 11 23 33 11 23 33 11 23 33 11 23 33 11 23 34 12 24 34 10 23 34 10 23 33 11 23 34 12 24 33 11 23 34 10 23 34 10 23 34 10 23 35 11 24 34 10 23 34 10 23 35 11 24 34 10 23 34 10 23 34 12 24 33 11 23 34 10 23 34 10 23 34 10 23 34 10 23 33 11 23 34 12 24 34 10 23 35 11 24 34 10 23 34 10 23 34 10 23 35 11 24 35 11 24 34 10 23 34 10 23 34 10 23 35 11 24 34 10 23 34 10 23 35 11 24 35 11 24 35 11 24 35 11 24 33 11 23 34 10 23 34 12 24 33 11 23 34 10 23 33 11 23 35 11 24 35 11 24 34 10 23 34 10 23 34 10 23 34 10 23 34 10 23 34 10 23 34 10 23 41 13 27 42 14 28 174 165 170 255 255 255 255 255 255 255 255 255 255 255 255 255 255 255 255 255 255 255 255 255 255 255 255 255 255 255 255 255 255 255 255 255 255 255 255 255 255 255 255 255 255 255 255 255 255 255 255 255 255 255 
35 11 24 35 11 24 34 11 21 34 11 21 35 11 24 34 10 23 34 10 23 35 12 22 34 10 23 35 11 24 36 12 25 35 12 22 36 12 26 42 14 28 42 14 28 35 11 24 34 10 23 35 11 24 34 10 23 34 10 23 35 11 24 35 11 24 35 11 24 34 10 23 34 10 23 35 11 24 33 11 23 33 11 23 33 11 23 34 10 23 34 10 23 34 10 23 34 10 23 34 10 23 34 10 23 35 11 24 35 11 24 34 10 23 34 10 23 34 10 23 33 11 23 33 11 23 34 10 23 35 11 24 35 11 24 35 11 24 34 12 24 33 11 23 34 10 23 34 10 23 34 10 23 34 10 23 35 11 24 35 11 24 34 10 23 34 10 23 35 11 24 35 11 24 34 10 23 35 11 24 36 12 25 34 10 23 34 10 23 34 10 23 34 10 23 33 11 23 34 10 23 34 12 24 33 11 23 34 10 23 34 12 24 35 11 24 34 10 23 34 11 21 34 10 23 34 10 24 34 10 23 34 10 23 34 10 23 33 10 20 40 14 27 44 13 28 242 240 241 255 255 255 255 255 255 255 255 255 254 254 254 255 255 255 255 255 255 255 255 255 255 255 255 255 255 255 255 255 255 255 255 255 255 255 255 255 255 255 255 255 255 255 255 255 255 255 255 255 255 255 
117 102 109 117 101 111 118 102 112 117 101 111 118 103 110 119 104 111 117 102 109 118 102 112 118 103 110 115 102 111 116 103 110 118 103 110 118 103 110 124 104 115 125 105 114 119 104 111 117 101 111 118 102 112 117 101 111 118 102 112 117 101 111 117 101 111 118 102 112 117 101 111 114 103 111 119 102 112 48 24 37 34 10 23 35 11 24 33 11 23 33 9 22 36 10 23 34 10 23 34 10 23 35 11 24 35 11 24 35 11 24 34 10 23 34 10 23 34 10 23 35 11 24 34 10 23 33 11 23 33 11 23 33 11 23 33 11 23 35 11 24 34 10 23 34 10 23 36 12 25 35 11 24 34 10 23 33 9 22 34 10 23 34 10 23 34 10 23 35 11 24 34 10 23 34 10 23 34 10 23 33 9 22 34 10 23 34 10 23 33 9 22 33 11 23 34 12 24 34 10 23 34 10 23 34 10 23 34 10 23 34 12 24 33 11 23 34 10 23 33 9 22 34 10 23 34 11 21 34 10 23 35 11 24 35 11 24 34 10 23 40 14 27 97 74 84 255 255 255 255 255 255 255 255 255 255 255 255 255 255 255 255 255 255 255 255 255 255 255 255 255 255 255 255 255 255 255 255 255 255 255 255 255 255 255 255 255 255 255 255 255 255 255 255 255 255 255 255 255 255 
255 255 255 255 255 255 255 255 255 255 255 255 255 255 255 255 255 255 255 255 255 255 255 255 255 255 255 255 255 255 255 255 255 255 255 255 255 255 255 255 255 255 255 255 255 255 255 255 255 255 255 255 253 254 255 253 254 255 254 255 255 255 255 255 255 255 255 255 255 254 254 254 255 255 255 226 226 228 34 10 23 35 12 22 34 12 24 34 12 24 35 11 24 34 12 24 35 11 24 35 11 24 34 10 23 35 11 24 34 10 23 34 10 23 35 11 24 35 11 24 34 10 23 34 12 24 34 10 23 33 11 23 33 11 23 34 10 23 33 11 23 34 10 23 34 10 23 34 10 23 34 10 23 34 10 23 34 10 23 34 10 23 34 10 23 34 10 23 34 10 23 35 11 24 34 10 23 34 10 23 34 10 23 34 10 23 34 10 23 34 10 23 33 11 23 33 11 23 33 11 23 33 11 23 35 11 24 33 9 22 34 10 23 34 10 23 35 11 24 33 12 21 32 10 22 34 10 23 34 12 24 35 12 22 34 12 24 33 11 23 40 12 26 174 165 168 255 255 255 255 255 255 254 254 254 255 255 255 254 254 254 255 255 255 255 255 255 255 255 255 255 255 255 255 255 255 255 255 255 255 255 255 255 255 255 255 255 255 255 255 255 255 255 255 255 255 255 255 255 255 
255 255 255 255 255 255 255 255 255 255 255 255 255 255 255 255 255 255 255 255 255 255 255 255 255 255 255 255 255 255 255 255 255 255 255 255 255 255 255 255 255 255 255 255 255 255 255 255 255 255 255 255 255 255 255 255 255 255 255 255 255 255 255 255 255 255 255 255 255 255 255 255 255 255 255 89 72 80 33 11 23 35 12 22 34 10 23 36 10 23 34 10 23 35 11 24 34 10 23 34 10 23 34 10 23 35 11 24 34 10 23 34 10 23 35 11 24 34 10 23 34 12 24 34 10 23 34 12 24 34 10 23 34 10 23 34 12 24 34 10 23 33 11 23 34 10 23 34 10 23 34 10 23 34 10 23 34 10 23 34 10 23 34 10 23 34 10 23 34 12 24 33 11 23 32 10 22 33 11 23 33 11 23 34 12 24 33 11 23 33 11 23 34 10 23 34 10 23 34 10 23 34 10 23 33 11 23 34 12 24 33 11 23 33 11 23 34 11 21 34 10 23 34 12 24 34 10 23 35 12 22 34 10 23 34 10 23 34 10 23 40 14 27 229 225 226 255 255 255 255 255 255 255 255 255 255 255 255 255 255 255 255 255 255 255 255 255 255 255 255 255 255 255 255 255 255 255 255 255 255 255 255 255 255 255 255 255 255 255 255 255 255 255 255 255 255 255 255 255 255 
255 255 255 255 255 255 255 255 255 255 255 255 255 255 255 255 255 255 255 255 255 255 255 255 255 255 255 255 255 255 255 255 255 255 255 255 255 255 255 255 255 255 255 255 255 255 255 255 255 255 255 255 255 255 255 255 255 255 255 255 255 254 255 255 255 255 255 255 255 255 255 255 172 163 168 34 12 24 34 10 23 33 11 23 34 12 24 34 11 21 34 10 23 33 11 23 34 10 23 34 10 23 34 10 23 33 9 22 34 10 23 33 9 22 34 10 23 34 10 23 33 11 23 34 10 23 34 12 24 34 10 23 34 10 23 34 12 24 34 10 23 34 12 24 34 10 23 34 10 23 34 10 23 34 10 23 34 10 23 34 10 23 34 10 23 34 10 23 34 10 23 34 10 23 34 10 23 35 11 24 34 10 23 35 11 24 34 10 23 35 11 24 33 11 23 33 11 23 34 12 24 34 12 24 34 10 23 34 10 23 34 10 23 35 11 24 33 12 21 34 10 23 33 11 23 34 13 22 33 11 23 34 10 23 34 10 23 33 11 23 80 58 70 255 255 255 255 255 255 255 255 255 255 255 255 255 255 255 255 255 255 255 255 255 255 255 255 255 255 255 255 255 255 255 255 255 255 255 255 255 255 255 255 255 255 255 255 255 255 255 255 255 255 255 255 255 255 255 255 255 
255 255 255 255 255 255 255 255 255 255 255 255 255 255 255 255 255 255 255 255 255 255 255 255 255 255 255 255 255 255 255 255 255 255 255 255 255 255 255 255 255 255 255 255 255 255 255 255 255 255 255 255 255 255 255 255 255 255 255 255 255 255 255 255 255 255 255 255 255 227 225 226 62 42 51 33 11 23 34 10 23 34 10 23 33 11 23 34 11 21 34 12 24 34 10 23 34 10 23 34 10 23 34 10 23 35 11 24 34 10 23 34 10 23 34 10 23 34 10 23 34 10 23 33 11 23 34 10 23 33 11 23 33 11 23 34 10 23 34 12 24 34 10 23 34 10 23 34 10 23 34 10 23 34 10 23 34 10 23 34 10 23 34 10 23 34 10 23 33 11 23 33 11 23 33 11 23 34 12 24 33 11 23 33 11 23 33 11 23 33 11 23 34 12 24 34 12 24 33 11 23 33 11 23 35 11 24 35 11 24 35 11 24 34 10 23 34 12 24 34 10 23 33 11 23 33 11 23 33 11 23 35 11 24 35 11 24 34 10 23 134 119 126 254 255 255 255 255 255 255 255 255 255 255 255 255 255 255 255 255 255 255 255 255 255 255 255 255 255 255 255 255 255 255 255 255 255 255 255 255 255 255 255 255 255 255 255 255 255 255 255 255 255 255 255 255 255 255 255 255 
255 255 255 255 255 255 255 255 255 255 255 255 255 255 255 255 255 255 255 255 255 255 255 255 255 255 255 255 255 255 255 255 255 255 255 255 255 255 255 255 255 255 255 255 255 255 255 255 255 255 255 255 255 255 255 255 255 255 255 255 253 255 254 255 255 255 255 255 255 116 103 110 33 11 23 34 10 23 34 10 23 33 11 23 35 11 24 33 11 23 34 11 21 35 11 24 35 11 24 34 10 23 34 10 23 34 10 23 34 10 23 34 10 23 34 10 23 35 11 24 34 10 23 33 11 23 34 10 23 33 11 23 33 11 23 34 10 23 34 12 24 34 10 23 34 10 23 34 10 23 34 10 23 34 10 23 34 10 23 34 10 23 34 10 23 34 10 23 33 11 23 33 11 23 33 11 23 34 12 24 34 12 24 34 12 24 34 12 24 33 11 23 34 10 23 35 11 24 34 10 23 34 10 23 34 12 24 33 11 23 33 11 23 34 12 24 34 12 24 34 12 24 34 10 23 33 11 23 33 11 23 35 11 24 34 10 23 35 11 24 200 194 198 255 255 255 254 254 254 255 255 255 254 255 255 255 255 255 254 254 254 253 253 253 255 255 255 255 255 255 255 255 255 255 255 255 255 255 255 255 255 255 255 255 255 255 255 255 255 255 255 255 255 255 255 255 255 255 255 255 
255 255 255 255 255 255 255 255 255 255 255 255 255 255 255 255 255 255 255 255 255 255 255 255 255 255 255 255 255 255 255 255 255 255 255 255 255 255 255 255 255 255 255 255 255 255 255 255 254 254 254 255 255 255 255 255 255 255 255 255 255 255 255 254 254 255 172 163 168 35 12 22 33 11 23 35 11 24 34 12 24 34 10 23 34 12 24 33 11 23 34 11 21 33 11 23 34 10 23 34 10 23 34 10 23 33 9 22 34 10 23 34 10 23 33 9 22 34 10 23 33 11 23 34 10 23 34 12 24 34 10 23 34 10 23 34 12 24 34 10 23 34 12 24 34 10 23 34 10 23 34 10 23 34 10 23 34 10 23 34 10 23 34 10 23 34 10 23 34 10 23 34 10 23 35 11 24 34 10 23 34 10 23 34 10 23 34 10 23 34 10 23 34 10 23 34 10 23 35 11 24 34 10 23 33 11 23 33 11 23 33 11 23 33 11 23 35 11 24 33 12 21 34 10 23 33 11 23 33 11 23 34 10 23 34 10 23 49 27 39 255 253 254 255 255 255 255 255 255 255 255 255 254 255 255 255 255 255 255 255 255 255 255 255 255 255 255 255 255 255 255 255 255 255 255 255 255 255 255 255 255 255 255 255 255 255 255 255 255 255 255 255 255 255 255 255 255 255 255 255 
255 255 255 255 255 255 255 255 255 255 255 255 255 255 255 255 255 255 255 255 255 255 255 255 255 255 255 255 255 255 255 255 255 255 255 255 255 255 255 255 255 255 255 255 255 255 255 255 255 255 255 254 255 255 255 255 255 255 255 255 255 255 255 242 240 243 62 42 53 34 10 23 33 11 23 33 11 23 33 12 21 34 10 23 33 11 23 34 10 23 35 12 22 35 11 24 34 10 23 34 10 23 34 10 23 35 11 24 34 10 23 35 11 24 34 10 23 34 10 23 34 12 24 34 10 23 34 12 24 34 10 23 34 10 23 34 12 24 34 10 23 33 11 23 34 10 23 34 10 23 34 10 23 34 10 23 34 10 23 34 10 23 34 10 23 34 10 23 33 11 23 33 11 23 34 12 24 33 11 23 33 11 23 33 11 23 33 11 23 34 12 24 33 11 23 33 11 23 34 12 24 33 11 23 34 10 23 34 10 23 34 10 23 34 10 23 35 11 24 34 10 23 33 12 21 34 12 24 34 10 23 35 11 24 34 11 21 102 86 96 255 255 255 255 255 255 255 255 255 255 255 255 255 255 255 255 255 255 255 255 255 255 255 255 255 255 255 255 255 255 255 255 255 255 255 255 255 255 255 255 255 255 255 255 255 255 255 255 255 255 255 255 255 255 255 255 255 255 255 255 
255 255 255 255 255 255 255 255 255 255 255 255 255 255 255 255 255 255 255 255 255 255 255 255 255 255 255 255 255 255 255 255 255 255 255 255 255 255 255 255 255 255 255 255 255 255 255 255 255 255 255 255 255 255 255 255 255 255 255 255 255 255 255 130 117 124 33 11 23 34 10 23 34 10 23 33 11 23 34 13 22 33 11 23 34 12 24 33 11 23 34 10 23 34 10 23 35 11 24 34 10 23 34 10 23 33 9 22 34 10 23 33 9 22 34 10 23 35 11 24 34 10 23 34 12 24 34 10 23 33 11 23 33 11 23 34 10 23 33 11 23 34 10 23 34 10 23 34 10 23 34 10 23 34 10 23 34 10 23 34 10 23 34 10 23 34 10 23 34 10 23 35 11 24 34 10 23 34 10 23 34 10 23 34 10 23 34 10 23 34 10 23 34 10 23 35 11 24 34 10 23 34 10 23 33 11 23 34 12 24 33 11 23 33 11 23 34 10 23 34 10 23 33 13 24 33 12 21 34 10 23 34 10 23 34 10 23 171 165 169 255 255 255 255 255 255 255 255 255 255 255 255 254 254 254 255 255 255 255 255 255 255 255 255 255 255 255 255 255 255 255 255 255 255 255 255 255 255 255 255 255 255 255 255 255 255 255 255 255 255 255 255 255 255 255 255 255 255 255 255 
255 255 255 255 255 255 255 255 255 255 255 255 255 255 255 255 255 255 255 255 255 255 255 255 255 255 255 255 255 255 255 255 255 255 255 255 255 255 255 255 255 255 255 255 255 255 255 255 255 255 255 255 255 255 255 255 255 255 255 255 227 225 226 33 11 23 33 12 21 33 11 23 34 10 23 34 10 23 34 10 23 34 10 23 34 10 23 34 10 23 34 10 23 34 10 23 33 11 23 34 10 23 33 11 23 33 11 23 34 10 23 35 11 24 33 11 23 35 11 24 34 10 23 34 10 23 34 10 23 34 10 23 35 11 24 34 10 23 35 11 24 34 10 23 34 10 23 34 10 23 34 10 23 34 10 23 34 10 23 34 10 23 34 10 23 34 10 23 34 10 23 34 10 23 34 10 23 34 10 23 34 10 23 34 10 23 34 10 23 34 10 23 33 11 23 34 10 23 33 11 23 34 10 23 33 11 23 34 10 23 34 10 23 33 11 23 33 11 23 33 11 23 34 10 23 33 11 23 33 9 22 35 11 24 35 11 25 214 210 211 255 255 255 255 255 255 255 255 255 255 255 255 255 255 255 255 255 255 255 255 255 255 255 255 255 255 255 255 255 255 255 255 255 255 255 255 255 255 255 255 255 255 255 255 255 255 255 255 255 255 255 255 255 255 255 255 255 255 255 255 
255 255 255 255 255 255 255 255 255 255 255 255 255 255 255 255 255 255 255 255 255 255 255 255 255 255 255 255 255 255 255 255 255 255 255 255 255 255 255 255 255 255 255 255 255 255 255 255 255 255 255 255 255 255 255 255 255 255 255 255 63 42 51 33 11 23 34 10 23 33 11 23 34 10 23 34 10 23 34 10 23 34 10 23 34 10 23 34 10 23 34 10 23 34 10 23 34 10 23 33 11 23 35 11 24 34 10 23 33 11 23 33 11 23 34 10 23 33 11 23 34 10 23 34 10 23 34 10 23 34 10 23 33 9 22 36 12 25 34 10 23 34 10 23 34 10 23 34 10 23 34 10 23 34 10 23 34 10 23 34 10 23 34 10 23 34 10 23 34 10 23 34 10 23 34 10 23 34 10 23 34 10 23 34 10 23 34 10 23 34 10 23 33 11 23 34 10 23 33 11 23 34 10 23 33 11 23 34 10 23 33 11 23 34 10 23 34 10 23 33 11 23 33 11 23 33 11 23 33 11 23 33 11 23 62 42 53 255 255 255 255 255 255 255 255 255 255 255 255 255 255 255 255 255 255 255 255 255 255 255 255 255 255 255 255 255 255 255 255 255 255 255 255 255 255 255 255 255 255 255 255 255 255 255 255 255 255 255 255 255 255 255 255 255 255 255 255 255 255 255 
255 255 255 255 255 255 255 255 255 255 255 255 255 255 255 255 255 255 255 255 255 255 255 255 255 255 255 255 255 255 255 255 255 255 255 255 255 255 255 255 255 255 255 255 255 255 255 255 254 255 255 255 255 255 255 255 255 143 132 138 33 12 21 33 12 21 33 11 23 34 10 23 34 10 23 34 10 23 34 10 23 34 10 23 34 10 23 34 10 23 34 10 23 34 10 23 34 10 23 33 11 23 34 10 23 35 11 24 33 11 23 33 11 23 34 10 23 33 11 23 34 10 23 34 10 23 35 11 24 34 10 23 34 10 23 35 11 24 34 10 23 35 11 24 35 11 24 35 11 24 34 10 23 34 10 23 34 10 23 34 10 23 34 10 23 35 11 24 34 10 23 34 10 23 34 10 23 34 10 23 34 10 23 34 10 23 34 10 23 34 10 23 34 10 23 33 11 23 33 11 23 34 10 23 34 10 23 33 11 23 33 11 23 34 10 23 34 10 23 34 10 23 34 12 24 33 11 23 32 10 22 34 11 21 103 88 95 255 255 255 255 255 255 255 255 255 255 255 255 255 255 255 255 255 255 255 255 255 255 255 255 255 255 255 255 255 255 255 255 255 255 255 255 255 255 255 255 255 255 255 255 255 255 255 255 255 255 255 255 255 255 255 255 255 255 255 255 255 255 255 
255 255 255 255 255 255 255 255 255 255 255 255 255 255 255 255 255 255 255 255 255 255 255 255 255 255 255 255 255 255 255 255 255 255 255 255 255 255 255 255 255 255 255 255 255 255 255 255 255 255 255 255 253 254 227 225 226 33 11 23 34 10 23 34 11 21 34 10 23 34 12 24 34 10 23 34 10 23 34 10 23 34 10 23 34 10 23 34 10 23 34 10 23 34 10 23 34 10 23 34 12 24 34 10 23 34 10 23 33 11 23 33 11 23 34 10 23 33 11 23 34 10 23 34 10 23 34 10 23 34 10 23 34 10 23 34 10 23 34 10 23 34 10 23 35 11 24 34 10 23 35 11 24 34 10 23 35 11 24 34 10 23 35 11 24 34 10 23 34 10 23 34 10 23 34 10 23 34 10 23 34 10 23 34 10 23 34 10 23 34 10 23 34 10 23 33 11 23 33 11 23 34 10 23 34 10 23 33 11 23 33 11 23 34 10 23 35 11 24 33 11 23 33 11 23 34 10 23 33 11 23 34 11 21 172 163 166 255 255 255 255 255 255 255 255 255 255 255 255 255 255 255 255 255 255 255 255 255 255 255 255 255 255 255 255 255 255 255 255 255 255 255 255 255 255 255 255 255 255 255 255 255 255 255 255 255 255 255 255 255 255 255 255 255 255 255 255 255 255 255 
255 255 255 255 255 255 255 255 255 255 255 255 255 255 255 255 255 255 255 255 255 255 255 255 255 255 255 255 255 255 255 255 255 255 255 255 255 255 255 255 255 255 255 255 255 255 255 255 255 255 255 254 255 255 104 87 95 34 10 24 33 11 23 33 11 23 34 12 24 36 10 23 34 10 23 34 10 23 34 10 23 34 10 23 34 10 23 34 10 23 34 10 23 34 10 23 33 11 23 34 10 23 33 11 23 33 11 23 34 10 23 34 10 23 34 12 24 34 10 23 34 10 23 35 11 24 34 10 23 34 10 23 34 10 23 35 11 24 35 11 24 34 10 23 34 10 23 35 11 24 34 10 23 35 11 24 34 10 23 35 11 24 34 10 23 35 11 24 34 10 23 34 10 23 34 10 23 34 10 23 34 10 23 34 10 23 34 10 23 34 10 23 33 11 23 34 10 23 34 10 23 33 11 23 33 11 23 34 10 23 34 10 23 33 11 23 34 10 23 34 10 23 34 10 23 34 10 23 34 12 24 34 11 21 214 210 211 255 255 255 255 255 255 255 255 255 255 255 255 255 255 255 255 255 255 255 255 255 255 255 255 255 255 255 255 255 255 255 255 255 255 255 255 255 255 255 255 255 255 255 255 255 255 255 255 255 255 255 255 255 255 255 255 255 255 255 255 255 255 255 
255 255 255 255 255 255 255 255 255 255 255 255 255 255 255 255 255 255 255 255 255 255 255 255 255 255 255 255 255 255 255 255 255 255 255 255 255 255 255 255 255 255 255 255 255 255 255 255 254 255 255 172 163 166 35 12 22 33 11 24 33 11 23 33 11 23 34 11 21 34 10 23 34 10 23 34 10 23 34 10 23 34 10 23 34 10 23 34 10 23 34 10 23 34 10 23 33 11 23 35 11 24 33 11 23 34 12 24 34 10 23 34 10 23 32 10 22 34 10 23 35 11 24 33 9 22 34 10 23 34 10 23 35 11 24 34 10 23 34 10 23 34 10 23 34 10 23 34 10 23 35 11 24 35 11 24 35 11 24 34 10 23 35 11 24 34 10 23 34 10 23 34 10 23 34 10 23 34 10 23 34 10 23 34 10 23 34 10 23 34 10 23 33 11 23 34 10 23 34 10 23 33 11 23 33 11 23 34 10 23 34 10 23 33 11 23 32 12 23 34 12 24 34 12 24 34 10 23 34 10 23 48 27 36 255 255 255 255 255 255 255 255 255 255 255 255 255 255 255 255 255 255 255 255 255 255 255 255 255 255 255 255 255 255 255 255 255 255 255 255 255 255 255 255 255 255 255 255 255 255 255 255 255 255 255 255 255 255 255 255 255 255 255 255 255 255 255 255 255 255 
