P3
100 50
255
28 0 12 32 2 14 31 1 13 20 0 9 21 1 10 21 1 10 19 0 8 23 2 11 32 0 13 33 1 14 24 1 9 20 1 7 21 2 8 20 1 7 20 0 9 28 0 12 32 0 13 29 1 13 20 0 9 20 1 7 21 1 10 20 1 7 24 1 9 32 0 13 32 0 13 23 0 10 20 1 7 21 2 8 20 0 9 20 0 9 31 1 11 32 0 13 31 0 15 21 2 8 21 2 8 20 0 9 20 1 7 23 0 10 32 2 12 32 0 11 22 1 10 19 0 6 20 0 9 20 0 9 21 2 8 30 0 12 32 1 9 30 0 12 43 0 19 79 2 34 83 4 36 72 3 31 49 2 22 45 1 18 33 1 14 24 1 9 20 0 9 21 1 10 19 0 8 21 1 10 30 0 10 31 1 13 29 1 13 21 0 7 32 2 14 72 3 31 83 3 38 67 3 30 41 0 16 33 1 14 23 2 11 19 0 6 20 1 7 21 2 8 22 1 8 29 0 11 59 1 25 104 3 47 92 1 42 20 1 7 22 1 8 20 1 7 20 0 9 20 1 7 32 0 13 24 1 11 21 1 10 21 2 8 18 1 7 21 2 8 21 1 10 20 1 7 20 1 7 22 1 8 21 0 7 21 2 8 19 0 6 23 0 8 33 1 14 33 1 14 
29 1 13 33 1 14 31 1 13 21 1 10 19 0 8 20 0 9 20 0 9 23 0 10 32 0 13 33 1 14 23 0 8 21 2 8 21 2 8 21 2 8 21 1 10 29 1 13 33 1 14 29 1 13 20 0 9 20 1 7 20 0 9 21 2 8 24 1 9 33 1 14 32 0 11 23 0 10 20 0 9 20 1 7 20 1 7 20 1 7 30 0 10 32 0 13 31 1 11 21 2 8 21 2 8 21 0 9 22 1 8 22 1 10 33 1 12 32 2 14 21 0 7 20 0 9 20 0 9 21 1 10 21 1 10 31 1 13 32 2 14 76 3 33 108 2 48 108 2 48 108 2 48 109 3 49 108 2 48 109 3 49 104 3 45 83 1 37 51 2 24 22 1 10 20 1 7 18 1 7 31 1 11 32 0 13 28 0 12 43 1 21 103 2 46 110 3 47 109 4 47 108 2 48 104 3 47 54 0 23 23 0 8 20 0 9 21 1 10 20 0 9 21 0 9 29 2 11 98 3 43 110 2 51 91 4 39 21 2 8 20 0 9 20 1 7 21 2 8 20 0 9 71 2 31 94 4 42 49 2 22 22 1 8 20 0 9 20 0 9 21 1 10 21 0 7 20 1 7 20 1 7 20 1 7 21 0 9 21 2 8 22 1 8 33 1 12 32 0 13 
29 1 13 32 0 13 30 0 12 21 1 10 20 0 9 21 1 10 21 1 10 23 0 10 32 0 13 33 1 14 23 0 8 21 2 8 20 1 7 20 1 7 20 0 9 29 1 13 32 0 13 29 1 13 20 0 9 20 1 7 21 1 10 20 1 7 24 1 9 32 0 13 33 1 14 25 2 12 21 2 8 20 1 7 21 1 10 20 0 9 30 0 10 32 0 13 29 1 13 21 2 8 21 2 8 20 1 7 20 1 7 22 1 10 31 0 10 32 0 13 23 2 11 20 1 7 18 1 9 20 1 7 18 1 7 31 1 13 46 2 19 107 4 49 109 3 49 109 3 49 108 2 48 109 4 47 110 2 51 108 2 48 109 3 49 109 3 49 109 2 48 83 3 38 22 1 10 21 0 9 28 1 10 32 0 13 30 0 10 97 2 42 109 3 49 108 2 48 109 4 47 109 3 49 109 3 49 107 4 49 71 2 30 24 1 11 21 0 7 20 0 9 22 1 8 34 0 14 110 3 49 106 3 46 89 1 39 22 1 8 20 0 9 20 0 9 21 1 10 20 0 9 71 2 33 109 3 49 107 4 49 83 3 38 22 1 10 20 0 9 21 1 10 21 0 7 20 0 9 20 0 9 20 0 9 21 0 7 22 1 10 23 0 10 32 0 13 32 0 13 
29 1 13 32 0 13 30 0 12 21 1 10 20 0 9 20 0 9 20 0 9 23 0 10 33 1 14 32 0 13 23 0 8 21 2 8 21 2 8 20 1 7 20 0 9 28 0 12 32 0 13 28 0 12 20 0 9 20 1 7 20 0 9 20 1 7 23 0 8 33 1 14 32 0 11 23 0 10 20 0 9 20 1 7 20 1 7 21 2 8 30 0 10 33 1 14 31 1 11 21 2 8 21 2 8 28 2 13 37 1 15 61 3 27 79 2 36 92 2 40 87 3 39 65 3 28 23 1 13 21 2 8 20 1 7 30 0 10 66 2 28 108 2 48 110 4 50 107 4 49 109 4 47 108 2 48 109 3 49 109 3 49 109 3 49 110 4 50 110 3 49 110 3 49 56 1 24 21 1 10 28 1 10 33 1 14 48 1 19 108 3 46 109 3 49 110 3 47 108 2 48 109 3 49 106 3 48 108 2 48 108 2 50 80 3 37 24 1 9 21 2 8 20 1 7 33 1 14 109 3 49 109 3 51 89 4 43 20 0 9 21 2 8 21 2 8 20 1 7 21 1 10 72 1 31 107 4 49 110 3 49 109 3 49 56 2 25 20 1 7 20 0 9 21 0 9 21 1 10 21 1 10 20 0 9 20 1 7 20 1 7 22 1 8 32 0 11 32 2 14 
28 0 12 31 1 13 30 0 12 20 0 9 21 1 10 21 1 10 20 0 9 23 2 11 34 2 15 32 0 13 24 1 9 21 2 8 21 2 8 19 0 6 20 0 9 29 1 13 32 0 13 28 0 12 20 0 9 21 2 8 20 0 9 20 1 7 23 0 8 32 0 13 33 1 14 24 1 9 21 2 8 19 0 6 20 1 7 21 1 10 30 0 12 33 1 12 31 1 13 38 1 18 84 2 38 104 3 47 109 3 49 108 2 48 108 2 48 108 2 48 107 1 47 108 2 48 89 3 40 27 1 12 19 2 8 31 1 11 68 2 29 110 3 49 108 2 48 108 2 48 109 3 49 108 2 48 109 3 51 109 3 49 109 3 49 109 3 49 108 2 50 109 2 46 82 3 35 21 0 9 29 2 11 32 2 14 52 0 22 108 2 48 109 3 49 109 3 49 109 3 49 109 4 47 109 3 49 108 2 48 110 3 49 109 3 49 87 2 41 26 0 11 22 1 10 30 0 12 84 2 38 108 2 48 91 3 41 19 2 8 20 1 7 20 1 5 20 1 7 20 0 9 69 3 31 109 3 49 108 2 48 109 4 47 82 2 39 20 1 7 21 2 8 20 1 7 20 1 7 20 1 7 21 0 9 20 1 7 22 0 12 24 1 11 32 0 13 32 0 13 
29 1 13 32 2 14 31 1 13 20 0 9 20 0 9 21 1 10 20 0 9 22 1 10 33 1 14 32 0 13 23 0 8 21 2 8 21 2 8 20 1 7 19 0 8 28 0 12 33 1 14 29 1 13 20 0 9 20 1 7 20 0 9 20 1 7 24 1 9 33 1 14 32 0 13 23 0 8 20 0 9 20 0 9 21 2 8 20 1 7 30 0 12 32 0 13 45 0 20 101 3 44 108 2 48 109 3 49 108 2 48 111 1 46 108 2 48 110 3 49 108 2 50 109 2 48 109 3 51 64 1 28 18 1 9 29 2 11 48 1 21 106 3 48 110 3 49 109 3 49 109 4 47 109 3 49 109 3 49 109 3 49 109 4 47 110 3 47 109 3 49 109 4 47 80 3 35 21 2 8 28 1 10 32 2 14 33 1 14 105 4 46 107 4 49 109 3 49 108 2 48 109 3 49 107 4 49 106 3 48 108 3 44 108 2 50 108 2 48 60 2 26 20 1 7 29 1 13 43 0 17 99 2 45 90 2 40 20 0 9 20 0 9 20 0 9 21 0 9 20 1 7 70 1 30 109 4 47 108 2 48 108 2 48 82 2 37 20 1 7 21 2 8 20 1 7 21 2 8 20 1 7 20 0 9 21 2 8 20 1 7 23 2 9 33 1 12 33 1 14 
29 1 13 33 1 14 32 2 14 20 0 9 20 0 9 20 0 9 20 0 9 23 0 10 32 0 13 33 1 14 23 0 8 21 2 8 21 2 8 20 1 7 21 1 10 29 1 13 33 1 14 29 1 13 20 0 9 20 1 7 21 1 10 21 2 8 23 0 8 33 1 14 33 1 14 23 0 8 20 1 7 20 1 7 19 0 6 20 0 9 30 0 12 32 0 11 82 3 35 109 3 49 108 2 50 107 4 49 109 3 49 108 2 48 109 3 49 109 3 51 109 3 51 109 3 49 109 3 49 87 3 39 20 1 7 31 1 9 33 1 14 73 3 31 108 2 48 107 4 49 110 3 49 108 3 46 109 3 49 108 2 48 110 3 49 109 3 49 108 2 48 108 2 48 55 1 25 20 1 7 29 1 13 32 2 14 28 1 10 53 1 23 108 2 48 109 4 47 109 3 49 109 3 49 109 3 49 110 3 49 109 3 49 107 4 49 109 3 49 79 2 36 20 0 9 28 1 10 33 0 13 32 0 13 47 3 20 19 0 6 21 1 10 21 1 10 21 2 8 20 1 7 72 1 31 109 3 49 108 3 46 109 3 49 56 2 25 21 2 6 21 2 8 19 2 10 20 0 9 20 0 9 22 1 10 21 2 8 21 0 7 23 0 10 33 1 14 33 1 14 
29 1 13 32 0 13 31 1 13 21 1 10 21 1 10 20 0 9 21 1 10 24 1 11 32 0 13 32 2 14 24 1 9 20 1 7 20 1 7 21 2 8 21 0 9 28 0 12 33 1 14 28 0 12 20 0 9 20 1 7 21 1 10 20 1 7 24 1 9 32 0 13 32 0 13 24 1 9 20 0 9 20 0 9 22 3 9 20 1 7 30 0 12 32 0 13 95 3 42 108 2 48 109 3 49 109 3 49 110 3 49 110 3 49 109 3 49 109 4 47 109 2 48 109 3 49 110 3 49 82 3 35 21 0 7 29 1 13 32 2 14 33 1 14 54 3 22 78 1 33 100 3 44 109 3 49 109 3 49 109 3 49 109 3 49 108 2 48 108 2 48 104 1 46 59 0 24 63 1 26 69 0 29 71 0 30 73 0 32 70 1 30 92 2 40 108 2 48 110 3 49 109 3 49 107 4 49 108 2 48 108 2 48 109 3 49 109 3 49 84 2 38 27 1 12 32 0 13 33 1 14 29 1 13 20 0 9 22 1 8 20 0 9 20 0 9 20 1 7 20 1 7 71 2 31 109 3 49 108 2 50 92 1 44 22 1 10 20 0 9 20 0 9 19 2 8 20 0 9 21 1 10 20 1 7 20 0 9 21 2 8 23 0 8 32 0 13 33 1 14 
31 0 8 33 1 14 30 0 12 20 0 9 20 0 9 20 0 9 21 1 10 22 1 10 32 2 14 31 1 13 23 0 8 20 1 7 21 2 8 19 2 8 20 1 7 28 0 12 32 0 11 28 0 12 21 1 10 20 1 7 20 0 9 19 3 6 24 1 9 32 0 11 32 0 11 22 1 8 21 2 8 21 2 8 20 1 7 20 1 7 29 2 11 32 2 12 92 1 42 109 3 49 109 3 49 110 3 49 110 3 49 108 2 48 109 3 49 109 3 49 109 3 49 107 4 49 110 3 47 57 1 26 32 0 13 52 0 22 61 1 27 67 1 29 76 1 32 87 1 38 98 0 41 109 2 48 108 2 48 109 2 48 109 1 50 109 2 48 113 3 50 112 2 49 111 1 48 111 1 48 111 1 48 111 1 48 112 0 48 111 1 48 111 1 48 112 0 48 109 2 48 109 3 49 109 3 49 109 3 49 109 3 49 107 4 49 110 3 49 108 1 47 107 0 46 103 0 45 103 2 46 93 1 42 71 2 33 21 0 7 18 1 9 20 0 9 18 1 9 20 1 7 71 2 31 108 2 48 109 3 49 88 4 40 37 1 15 18 1 9 20 1 7 20 1 7 21 0 9 21 0 9 21 1 10 21 1 10 20 0 9 22 1 8 32 2 14 32 1 16 
28 0 12 33 1 14 30 0 10 20 1 7 22 1 8 20 0 9 20 0 9 24 1 9 32 0 13 33 1 14 24 1 11 20 0 9 20 0 9 21 2 8 21 2 8 30 0 10 32 0 13 30 0 12 21 2 8 20 1 7 21 1 10 20 1 7 24 1 11 33 1 12 33 1 14 24 0 13 21 1 10 20 0 9 21 1 10 22 1 8 29 1 13 32 0 13 70 1 30 109 3 49 108 2 48 109 3 49 107 4 49 108 2 48 109 3 49 107 4 49 109 3 49 107 1 47 109 3 49 105 2 47 106 0 46 108 1 47 112 2 49 111 1 48 112 2 49 111 1 48 111 1 48 110 0 49 111 1 50 111 0 47 111 1 48 111 1 48 112 0 48 112 0 48 111 1 48 110 3 49 111 1 48 111 1 48 113 1 49 111 1 48 109 2 48 111 1 48 109 2 48 108 2 48 106 3 48 109 3 49 109 3 49 109 3 49 109 2 48 111 1 48 111 1 48 111 1 48 112 0 48 112 0 48 93 1 40 21 0 9 20 0 9 20 0 9 20 0 9 21 2 8 71 2 31 108 2 48 109 3 49 109 3 49 95 3 42 37 1 15 21 0 7 20 0 9 20 0 9 21 2 8 20 1 7 21 1 10 20 0 9 22 1 10 32 0 13 32 0 11 
31 1 11 33 1 14 30 0 12 19 0 6 22 1 8 21 1 10 21 0 9 23 0 10 33 1 12 33 1 12 22 1 8 20 1 7 21 2 6 22 1 10 20 0 11 28 0 12 31 1 13 30 0 12 20 0 9 21 0 9 20 1 7 20 0 9 24 1 11 32 0 11 33 1 14 24 1 9 21 2 8 21 2 8 20 1 7 20 1 7 28 1 10 32 0 13 32 0 11 80 3 37 109 3 49 109 3 49 107 4 49 108 2 48 108 2 48 109 3 49 109 3 49 108 3 46 108 3 46 109 2 48 109 3 49 111 1 48 111 1 48 111 1 48 110 0 49 111 1 48 112 2 49 112 2 51 112 0 50 109 2 48 109 2 48 110 3 49 111 1 48 111 1 48 111 1 48 111 1 48 110 0 47 111 1 48 112 2 49 111 1 48 109 2 48 111 1 48 108 2 48 108 2 48 109 3 49 109 3 49 109 3 49 110 4 50 109 3 49 111 1 48 110 0 47 111 1 48 111 1 48 111 1 48 91 1 39 21 0 11 20 1 7 21 2 8 20 1 7 21 2 8 71 2 31 109 3 49 109 3 49 109 3 49 109 3 49 99 3 41 22 1 10 20 1 7 18 1 7 20 0 9 21 1 10 21 0 9 20 0 9 31 1 13 65 3 28 79 2 34 
28 1 10 33 1 14 29 1 15 21 1 10 19 2 10 20 1 7 20 0 9 60 2 27 98 3 43 105 4 46 101 4 45 89 3 40 77 2 33 62 2 27 45 2 21 38 2 16 32 0 13 30 0 12 20 0 9 21 0 9 21 1 12 20 1 7 24 1 11 32 2 14 32 2 12 23 0 8 20 1 7 20 1 7 26 0 11 38 0 15 65 1 27 84 0 34 100 1 45 109 2 48 109 2 48 109 2 48 111 1 48 109 3 49 109 3 49 109 3 49 109 3 49 109 3 49 107 4 49 109 3 49 109 3 49 109 3 49 110 3 49 111 1 48 112 2 49 111 1 48 110 0 47 111 1 48 108 2 48 108 2 48 106 3 48 109 3 49 109 3 49 108 1 47 110 3 49 108 1 47 111 1 48 111 1 48 110 0 47 112 0 48 111 1 48 111 1 48 108 2 48 108 2 48 106 3 48 109 3 49 109 3 49 110 3 49 109 3 49 109 3 49 109 2 48 112 2 49 111 1 48 112 0 48 93 1 40 21 0 9 18 1 9 20 1 7 21 2 8 21 0 7 72 3 32 108 2 48 108 2 48 109 3 49 107 4 49 100 3 46 23 2 11 18 1 7 21 2 8 21 0 7 20 1 7 59 1 25 89 1 39 101 2 48 109 3 49 108 2 48 
30 0 12 32 2 14 31 1 13 21 2 8 20 0 9 20 1 7 61 1 26 108 2 48 110 5 48 109 3 49 108 2 48 108 2 48 109 3 49 109 3 49 109 3 49 110 3 47 92 2 38 44 1 20 22 1 8 20 1 7 20 0 9 21 2 8 23 0 8 32 2 14 35 1 15 42 1 17 59 1 25 83 2 35 104 1 46 111 1 50 112 0 50 110 0 47 111 1 50 110 0 47 111 1 48 111 1 48 110 0 49 109 3 49 106 3 48 107 4 49 109 4 47 109 3 49 108 2 48 107 5 45 109 4 47 109 3 49 107 4 51 109 3 49 112 2 49 112 2 49 113 1 51 109 2 48 109 3 49 109 3 49 107 4 49 108 2 48 109 3 49 108 2 48 108 2 48 109 3 49 109 2 48 109 2 48 111 1 48 111 1 48 111 1 48 111 1 48 108 2 48 108 2 48 109 3 49 109 3 49 109 3 49 109 3 49 109 3 49 108 2 48 109 3 49 109 3 49 109 2 48 111 1 48 92 0 39 20 1 7 21 1 10 22 1 10 21 0 9 22 1 8 72 1 31 110 3 49 109 3 49 107 4 49 109 3 49 100 3 46 21 1 10 20 0 9 21 1 10 21 2 8 22 1 8 61 1 27 109 3 49 108 2 48 106 3 48 108 2 48 
30 0 12 32 0 13 31 1 13 20 1 7 20 1 7 24 1 11 96 4 43 106 3 48 107 4 49 106 5 49 109 3 49 109 3 49 109 3 51 107 4 49 108 2 48 107 4 49 109 3 51 98 3 43 28 2 15 21 0 9 21 0 9 27 1 12 55 1 24 85 1 37 98 1 42 108 1 47 111 1 48 110 3 49 108 2 48 108 2 48 108 2 50 110 3 49 109 2 48 111 1 48 112 0 50 112 2 49 111 1 48 109 2 46 108 3 46 106 3 48 110 3 49 108 2 48 109 3 49 109 3 49 106 3 48 110 3 49 108 2 48 108 3 46 110 3 49 111 1 48 110 0 49 108 2 48 108 2 48 109 3 49 108 2 48 109 3 49 107 1 47 109 3 49 106 3 48 106 3 48 108 2 48 109 3 49 109 2 48 112 2 49 112 0 48 111 1 48 108 2 48 107 4 49 109 3 49 109 3 49 109 3 49 109 3 49 109 3 49 108 2 48 108 2 48 109 3 49 108 2 48 108 2 48 93 1 40 21 0 5 22 1 10 20 0 9 20 0 9 21 2 8 71 2 31 108 2 48 108 2 48 108 3 46 108 2 48 99 2 43 22 2 11 20 1 7 20 1 7 20 0 9 20 1 7 61 1 26 109 3 49 108 2 48 109 3 49 109 3 49 
30 0 10 32 0 11 29 1 13 20 0 9 21 1 10 37 1 15 106 3 50 107 4 51 109 3 49 108 2 48 107 1 47 109 3 49 110 3 49 110 4 50 106 3 48 108 2 48 109 3 49 109 3 51 75 2 31 58 0 24 87 1 36 109 2 48 109 2 48 109 3 49 109 3 49 108 2 48 106 3 50 109 3 49 109 3 49 106 3 48 106 3 48 108 2 48 108 2 48 111 1 50 112 2 49 111 1 48 109 2 48 112 0 48 109 3 49 108 2 48 109 3 49 109 3 49 109 3 49 109 3 49 108 2 48 108 2 48 108 2 48 108 2 48 110 3 49 111 1 46 111 1 48 108 2 48 109 3 49 106 3 48 108 3 46 106 3 48 108 2 48 108 2 48 109 3 49 109 3 49 109 3 49 106 3 48 109 3 49 109 2 48 111 1 48 111 1 48 109 2 48 108 2 48 109 3 49 107 4 49 109 3 49 109 3 49 106 3 48 106 3 48 108 2 48 108 2 48 109 3 49 109 3 49 92 2 40 20 0 9 20 0 9 21 1 10 20 0 9 20 1 7 72 3 32 109 3 49 109 3 49 106 3 48 109 3 49 100 3 44 21 0 9 20 0 9 19 2 8 20 0 9 22 1 8 63 1 26 107 4 49 106 3 48 109 3 49 107 4 49 
28 2 11 32 2 14 28 0 12 20 0 9 20 0 9 31 1 13 102 3 47 109 3 49 106 3 48 109 4 47 108 2 48 108 2 48 107 4 51 107 4 49 109 3 49 109 3 49 109 3 49 108 2 48 109 2 48 109 2 48 110 0 47 108 1 47 109 3 49 108 3 46 109 3 49 109 3 49 109 3 49 109 3 49 107 4 49 109 3 49 110 3 49 109 3 49 109 3 49 108 2 48 112 2 47 111 1 50 111 1 48 111 1 48 110 0 47 109 3 49 106 3 48 108 2 48 109 3 51 106 3 48 108 3 46 108 3 46 109 3 49 109 4 47 108 2 50 111 1 48 110 0 47 111 1 48 108 2 48 106 3 48 110 3 47 108 2 48 109 3 49 109 3 49 109 3 49 107 4 49 108 2 48 108 2 48 106 3 48 109 2 48 111 1 48 111 1 48 109 2 48 106 3 48 109 3 49 107 4 49 109 3 49 109 3 49 108 2 48 109 3 49 108 2 48 108 2 48 109 3 49 106 3 48 92 2 40 20 0 11 21 0 7 19 0 6 21 2 8 21 2 8 71 2 31 106 3 48 107 4 49 108 2 48 108 3 46 99 2 43 22 1 10 21 0 9 21 2 8 21 0 9 21 1 10 61 1 27 108 2 48 109 3 49 107 4 49 108 2 48 
30 0 10 31 1 13 32 2 14 20 0 9 21 2 8 20 0 9 77 2 35 106 3 48 109 3 49 108 2 48 106 3 48 109 3 49 109 3 49 106 3 48 108 2 48 109 3 49 109 3 49 109 3 49 109 2 48 110 0 47 111 1 48 106 3 48 107 4 49 107 4 49 106 3 48 106 3 48 106 3 48 106 3 48 106 3 48 106 3 48 106 3 48 106 3 48 106 3 48 109 2 48 111 1 48 111 1 48 111 1 48 112 0 48 111 1 48 109 2 48 111 1 48 111 1 48 107 4 49 107 4 49 107 4 49 109 3 49 108 2 48 109 3 49 109 1 51 111 1 48 112 0 48 112 2 49 109 2 48 109 3 49 107 4 49 107 4 49 108 2 48 106 3 48 108 2 48 108 2 48 109 3 49 109 3 49 108 2 48 109 2 48 110 0 47 111 1 48 111 1 48 111 1 48 109 2 48 109 3 49 108 2 48 106 3 48 108 2 48 108 2 48 106 3 50 109 3 49 109 3 49 109 3 49 91 3 41 20 0 9 20 1 7 21 2 8 21 1 10 20 0 9 72 1 31 109 3 49 106 3 48 108 2 48 106 3 48 100 3 44 22 1 10 20 1 7 20 0 9 20 1 7 21 0 9 64 0 26 109 2 48 108 2 48 108 2 48 105 4 48 
28 1 10 32 2 14 29 1 13 20 1 7 22 1 10 20 0 9 20 0 9 82 2 37 106 3 48 109 3 49 110 4 50 108 2 48 108 2 48 108 2 48 109 3 49 108 2 48 106 3 48 108 2 48 109 2 48 109 0 46 111 1 48 106 3 48 106 3 48 108 2 48 108 2 48 109 3 49 109 3 49 108 2 48 107 4 49 106 3 48 105 2 47 106 3 48 106 3 48 109 2 48 111 1 48 111 1 48 110 0 47 110 0 47 111 1 48 110 0 47 110 0 47 111 1 48 109 2 48 107 4 49 107 4 49 106 3 48 108 2 48 109 2 48 111 1 50 111 1 48 111 1 48 109 2 48 111 1 48 109 2 48 109 2 48 108 2 48 107 4 49 107 4 49 106 3 48 109 2 48 106 3 48 106 3 48 108 5 50 111 1 48 111 1 48 110 0 47 111 1 48 110 0 47 110 0 47 111 1 48 108 2 48 109 3 49 109 3 49 107 4 49 108 1 47 106 3 48 109 3 49 109 3 49 92 2 40 20 1 7 20 1 7 22 1 8 20 0 9 20 0 9 73 0 30 112 2 49 108 2 48 106 3 48 109 3 49 99 2 43 21 0 9 20 1 7 21 1 10 21 2 8 20 0 9 59 1 25 112 0 48 110 0 47 109 2 48 108 2 48 
29 1 13 32 0 11 30 0 12 21 0 9 18 1 7 21 0 7 20 1 7 37 1 15 87 1 40 108 1 47 109 3 49 109 2 48 109 3 49 107 1 47 109 3 49 106 3 48 109 3 49 109 2 48 111 1 48 112 0 48 111 1 48 106 3 48 109 3 49 109 3 49 107 4 49 107 4 49 107 4 49 107 4 49 107 4 49 106 3 48 106 3 48 106 3 48 109 3 49 109 2 48 111 1 48 108 1 47 110 0 47 110 0 47 110 0 47 110 0 47 111 1 48 111 1 48 110 0 47 110 0 47 108 2 48 110 3 49 110 3 49 111 1 48 111 1 50 110 0 47 111 1 48 111 1 48 111 1 48 111 1 48 112 0 48 109 2 48 109 3 49 110 3 49 106 3 48 109 2 48 107 4 49 106 3 48 108 2 48 110 3 49 110 0 47 110 0 47 110 0 47 111 1 48 111 1 48 111 1 48 111 1 48 108 2 48 106 3 48 107 4 49 107 4 49 108 2 48 109 3 49 108 2 48 91 1 39 20 1 7 20 1 7 21 2 8 21 1 10 20 0 9 74 1 31 110 0 47 109 3 49 106 3 48 109 3 49 99 2 43 23 2 11 20 1 7 21 1 10 20 1 7 21 1 10 61 1 26 110 0 47 111 1 48 111 1 48 110 0 47 
28 1 10 32 0 11 30 0 12 20 0 9 27 1 12 49 0 21 86 0 37 109 2 48 111 1 48 109 0 46 111 1 48 110 0 47 111 1 48 111 1 48 109 2 48 109 2 48 112 2 49 111 1 48 110 0 47 112 0 48 111 1 48 108 2 48 108 2 48 109 3 49 109 3 49 108 2 48 109 3 49 109 3 49 108 2 48 108 2 48 108 2 48 107 1 47 109 2 48 110 0 47 112 0 48 110 0 47 110 0 47 111 1 48 111 1 48 111 1 48 111 1 48 111 1 48 112 2 49 113 3 50 112 2 49 111 1 48 110 0 47 111 1 48 111 1 48 111 1 48 110 0 47 110 0 47 111 1 48 110 0 47 110 0 47 111 1 48 110 0 47 111 1 48 109 3 49 109 3 49 108 2 48 110 3 49 111 1 48 111 1 48 111 1 48 110 0 47 111 1 48 109 2 48 111 1 48 110 0 47 111 1 48 112 2 49 112 2 49 109 2 48 108 2 48 109 3 49 108 2 48 111 1 48 92 0 39 19 0 6 20 1 7 18 1 7 21 1 10 20 0 9 72 1 31 111 1 48 111 1 48 109 2 48 106 3 48 99 2 43 22 1 10 21 2 8 20 0 9 20 1 7 20 0 9 59 0 24 111 1 48 111 1 48 111 0 47 110 0 47 
29 2 11 32 2 14 34 0 14 60 0 25 99 2 43 111 1 48 108 1 47 111 1 48 111 1 48 111 1 48 110 0 47 109 2 48 111 1 48 111 1 48 110 0 47 112 0 48 110 0 47 111 1 48 113 1 49 112 0 48 111 1 48 110 0 47 105 2 47 109 3 49 109 3 49 108 2 48 108 2 48 108 2 48 108 2 48 108 2 48 108 2 48 108 2 48 111 1 48 111 1 48 111 1 48 112 0 48 111 1 48 111 1 48 111 1 48 111 1 48 111 1 48 111 1 48 109 2 48 109 2 48 111 1 48 111 1 48 111 1 48 111 1 48 110 0 47 110 0 47 112 0 48 110 3 49 111 1 48 111 1 48 111 1 48 110 0 47 108 1 47 111 1 48 110 0 47 112 2 49 111 1 48 110 0 47 111 1 48 109 2 48 112 0 48 111 1 48 111 1 48 111 1 48 112 2 49 111 1 48 111 1 48 110 0 47 110 0 47 109 0 46 111 1 48 111 1 48 109 2 48 110 0 47 93 1 40 19 2 8 20 1 7 20 1 7 21 1 10 20 0 9 74 1 31 111 1 48 111 1 48 111 1 48 109 3 49 99 2 43 22 1 10 20 1 7 20 0 9 20 1 7 20 0 9 60 0 25 111 1 48 111 1 48 109 2 48 110 0 47 
37 0 17 72 1 31 101 0 42 110 3 49 110 0 47 110 0 47 110 0 47 111 1 46 110 0 47 112 2 49 108 1 47 111 1 48 110 0 47 110 0 47 109 2 48 109 2 48 108 1 47 110 0 47 110 0 47 108 1 47 109 2 48 110 0 47 110 0 47 108 1 47 109 2 48 109 2 48 108 1 47 109 2 48 111 1 48 110 0 47 111 1 48 111 1 48 109 2 48 111 1 48 111 1 48 111 1 48 109 2 48 111 1 48 110 0 47 111 1 48 111 1 48 111 1 48 108 1 47 109 2 48 111 1 48 111 1 48 111 1 48 111 1 48 110 0 47 111 1 48 111 1 48 108 1 47 109 2 48 112 2 49 111 1 48 111 1 50 110 0 47 111 1 48 111 1 48 109 2 48 107 1 47 109 2 48 108 1 47 110 0 47 109 2 48 109 2 48 110 0 47 111 1 48 109 2 48 108 1 47 107 1 47 111 1 48 110 0 47 109 2 48 108 2 48 109 2 48 111 1 48 110 0 47 92 0 39 21 2 8 20 1 7 20 1 7 21 0 9 20 0 9 71 0 30 110 0 47 111 1 48 108 2 48 107 1 47 99 2 43 22 1 10 21 2 8 20 0 9 20 1 7 21 0 9 63 1 26 112 2 49 110 0 47 110 0 47 108 1 47 
100 1 45 108 1 47 108 0 49 110 0 49 111 0 47 111 1 48 109 2 48 111 1 48 110 0 47 110 0 47 110 0 47 111 0 47 109 2 48 105 2 47 107 4 49 108 2 48 106 3 48 108 2 48 111 1 48 108 1 47 109 2 48 112 0 48 110 0 47 111 1 48 111 1 48 111 1 48 110 0 47 111 1 48 111 1 48 110 0 47 111 1 48 111 1 48 111 1 48 109 2 48 109 2 48 111 1 48 110 0 47 110 0 47 111 1 48 110 0 47 111 1 48 109 2 48 111 1 48 110 0 47 110 0 47 108 1 47 110 0 47 107 0 46 111 1 48 111 1 48 109 2 48 110 0 47 111 1 48 110 0 47 111 1 48 110 0 49 111 1 48 109 2 48 106 3 48 109 3 49 106 3 48 107 1 47 108 2 48 110 0 47 110 0 47 111 1 48 109 2 48 110 0 47 110 0 47 110 0 47 111 1 48 110 0 47 108 2 48 106 3 48 106 3 48 106 3 48 109 3 49 109 2 48 92 0 39 20 1 7 21 2 8 20 1 7 20 0 9 20 0 9 72 1 31 111 1 48 109 2 48 106 3 48 106 3 48 98 3 43 22 1 10 20 1 7 20 0 9 20 1 7 20 0 9 63 1 26 111 1 48 108 1 47 110 0 47 110 0 47 
109 3 49 106 3 48 107 4 49 110 3 49 108 1 47 110 0 45 111 1 48 110 0 47 107 0 46 111 1 48 112 0 48 111 1 48 106 3 48 109 3 49 108 2 48 109 3 49 105 2 47 108 2 48 109 3 49 109 2 48 109 2 48 110 0 47 111 1 48 110 0 47 111 1 48 110 0 47 111 1 48 111 1 48 111 1 48 111 1 48 110 0 47 111 1 48 111 1 48 110 0 47 110 0 47 111 1 48 110 0 47 111 1 48 112 2 49 109 2 48 111 1 48 111 1 48 111 1 48 109 2 48 109 2 48 108 2 48 108 2 48 109 2 48 112 2 49 111 1 48 110 0 47 111 1 48 110 0 47 111 1 48 110 0 47 108 2 51 109 2 48 108 2 48 106 3 48 108 2 48 107 4 49 106 3 48 107 4 49 108 2 48 108 1 47 109 2 48 110 0 47 109 2 48 111 1 48 111 1 48 111 1 48 110 0 47 109 4 47 108 2 48 107 4 49 108 2 48 108 2 48 109 4 47 90 2 40 20 1 7 21 2 8 21 2 8 20 0 9 21 1 10 72 1 31 112 2 49 109 2 48 108 2 48 109 3 49 100 3 44 22 1 10 20 1 7 20 0 9 20 1 7 20 0 9 61 1 26 111 1 48 110 0 47 108 1 47 108 1 47 
106 3 48 106 3 48 107 4 49 109 3 49 109 3 49 108 2 48 109 2 48 108 2 48 111 1 48 111 1 48 109 2 48 109 2 48 107 4 49 106 3 48 108 2 48 106 3 48 105 4 48 108 2 48 105 4 48 108 2 48 106 3 48 107 1 47 111 1 48 111 1 48 110 0 47 111 1 48 109 2 48 111 1 48 111 1 48 108 1 47 110 0 47 110 0 47 109 2 48 109 2 48 109 2 48 109 2 48 109 2 48 109 2 48 111 1 48 110 0 47 111 1 48 110 0 47 111 1 48 108 2 48 109 3 49 108 2 48 108 2 48 106 3 48 109 3 49 110 3 49 109 2 48 109 2 48 110 0 47 112 2 49 109 2 48 111 1 48 109 2 48 106 3 48 106 3 48 108 2 48 107 4 49 107 4 49 107 4 49 106 3 48 105 4 48 108 1 47 110 0 47 111 1 48 108 1 47 111 1 48 110 0 47 110 3 49 106 3 48 108 2 48 108 2 48 108 2 48 106 3 48 109 3 49 91 3 41 22 1 8 20 1 7 21 2 8 20 0 9 22 1 8 72 1 31 110 0 47 109 2 48 106 3 48 106 3 48 99 2 47 22 1 10 21 1 10 20 0 8 19 2 8 20 1 7 60 2 26 106 3 48 107 1 47 109 2 48 110 0 47 
108 2 48 108 2 48 109 3 49 107 4 49 107 4 49 109 3 49 108 2 48 109 2 48 112 0 48 109 2 48 111 1 48 109 2 48 107 1 47 108 2 48 109 2 48 106 3 48 110 3 49 109 3 49 109 3 49 109 3 49 109 3 49 109 3 49 110 3 49 109 2 48 111 1 48 112 0 48 110 3 49 109 2 48 111 1 48 109 2 48 109 2 48 109 2 48 108 2 48 109 3 49 106 3 48 106 3 48 106 3 48 108 2 48 109 2 48 108 1 47 112 0 48 110 0 47 109 2 48 106 3 48 106 3 48 108 2 48 109 3 49 107 4 49 106 3 48 108 2 48 108 2 48 108 2 48 109 2 48 110 0 47 111 1 48 113 0 48 109 2 48 108 2 48 109 3 49 109 3 49 107 4 49 108 2 48 109 2 48 109 3 49 108 2 48 109 3 49 109 2 48 110 0 47 110 0 47 109 2 48 111 1 48 109 2 48 109 3 49 108 2 48 106 3 48 105 4 48 107 1 47 107 1 47 89 3 40 22 1 8 20 1 7 20 1 7 21 1 10 20 1 7 74 1 31 111 1 48 111 1 48 109 3 49 106 3 48 99 2 43 22 1 10 21 2 8 20 1 7 21 2 8 20 1 7 60 2 26 108 5 50 106 3 48 111 1 48 110 0 47 
108 2 48 106 3 48 106 3 48 106 3 48 106 3 48 108 2 48 106 3 48 106 3 48 109 2 48 109 2 48 109 0 46 108 2 48 108 2 48 106 3 48 106 3 48 106 3 48 110 4 50 109 3 49 109 3 49 107 4 49 109 3 49 107 4 49 106 3 48 109 2 48 110 3 49 111 1 48 110 0 47 109 2 48 107 1 47 105 2 47 107 1 47 108 2 48 106 3 48 107 4 49 106 3 48 106 3 48 108 2 48 108 2 48 109 2 48 111 1 48 111 1 48 109 2 48 108 1 47 108 2 48 106 3 48 108 2 48 106 3 48 109 3 49 107 4 49 106 3 48 109 3 49 108 2 48 110 4 50 111 1 48 111 1 48 108 1 47 109 2 48 106 3 48 106 3 48 109 3 49 106 3 48 106 3 48 107 1 47 109 3 49 106 3 48 108 2 48 108 2 48 109 2 48 109 2 48 111 1 48 110 0 47 108 2 48 109 3 49 106 3 48 106 3 48 108 2 48 108 2 48 106 3 48 90 2 40 19 0 6 21 2 8 20 1 7 21 1 10 21 0 7 74 1 31 111 1 48 111 1 48 111 1 48 108 2 48 99 2 43 23 0 10 21 2 8 20 1 7 21 1 12 21 0 7 60 2 26 108 2 48 105 4 48 108 2 48 111 1 48 
108 2 48 106 3 48 106 3 48 106 3 48 106 3 48 106 3 48 106 3 48 106 3 48 108 2 48 108 1 47 111 1 48 110 3 49 107 1 47 106 3 48 106 3 48 108 2 48 107 4 49 109 2 48 106 3 48 108 2 48 108 2 48 107 4 49 106 3 48 109 2 48 111 1 48 111 1 48 109 2 48 108 2 48 106 3 48 109 3 49 109 3 49 106 3 48 106 3 48 106 3 48 108 2 48 108 2 48 108 2 48 108 2 48 108 2 48 111 1 48 112 0 48 111 1 48 108 2 48 108 2 48 107 4 49 109 3 49 109 3 49 109 3 49 110 3 49 108 2 48 108 2 48 108 2 48 108 2 48 109 2 48 110 0 47 110 0 47 108 1 47 108 2 48 106 3 48 106 3 48 106 3 48 107 4 49 106 3 48 106 3 48 106 3 48 106 3 48 108 2 48 108 2 48 111 1 48 108 1 47 111 1 48 110 0 47 108 2 48 106 3 48 106 3 48 106 3 48 108 2 48 108 2 48 89 3 40 21 2 8 20 1 7 21 2 8 20 0 9 20 1 7 73 0 30 111 1 48 111 1 48 111 1 48 109 2 48 99 2 43 22 1 10 20 1 7 21 0 7 21 1 10 20 1 7 60 2 26 109 3 49 108 2 48 108 2 48 112 2 49 
106 3 48 108 2 48 108 2 48 108 2 48 106 3 48 106 3 48 108 2 48 108 2 48 108 2 48 111 1 48 108 1 47 111 1 48 111 1 48 108 2 48 106 3 48 106 3 48 109 3 49 109 3 49 106 3 48 108 2 48 108 2 48 108 2 48 108 2 48 106 3 48 109 2 48 110 0 47 109 2 48 108 2 48 107 4 49 109 3 49 107 4 49 106 3 48 107 4 49 108 2 48 109 3 49 109 3 49 108 2 48 108 2 48 108 2 48 109 2 48 110 0 47 109 2 48 108 1 47 109 3 49 108 2 48 106 3 48 108 2 48 110 4 50 106 3 48 106 3 48 108 2 48 108 5 50 106 3 48 107 1 47 108 1 47 111 1 48 109 2 48 111 1 48 109 2 48 106 3 48 107 4 49 109 3 49 108 2 48 108 2 48 106 3 48 108 2 48 106 3 48 108 2 48 108 2 48 110 0 47 108 1 47 110 0 47 111 1 48 109 2 48 106 3 48 106 3 48 106 5 49 107 4 49 90 2 40 20 1 7 21 2 8 20 1 7 19 0 8 20 1 7 73 2 32 110 0 47 111 1 48 110 0 47 109 2 48 100 1 45 22 1 10 20 1 7 22 1 10 21 2 8 20 1 7 60 2 26 108 2 48 106 3 48 108 2 48 110 0 47 
106 3 48 108 2 48 106 3 48 109 3 49 109 3 49 107 4 49 110 3 49 107 4 49 109 2 48 110 0 47 111 1 48 111 1 48 111 1 48 110 0 47 110 0 47 108 2 48 109 3 49 107 4 49 108 2 48 106 3 48 106 3 48 105 4 48 106 3 48 109 2 48 111 1 48 110 0 47 108 1 47 108 2 48 106 3 48 108 2 48 108 2 48 106 3 48 108 2 48 109 3 49 106 3 48 108 2 48 109 3 49 108 2 48 108 1 47 111 1 48 110 0 47 109 2 48 109 2 48 108 2 48 107 1 47 106 3 48 108 2 48 108 2 48 108 2 48 106 3 48 108 2 48 109 3 49 108 2 48 108 2 48 108 1 47 110 0 47 109 2 48 111 1 48 111 1 48 107 1 47 106 3 48 106 3 48 108 2 48 108 2 48 106 3 48 109 3 49 108 2 48 109 3 49 106 3 48 111 1 48 108 1 47 108 1 47 110 0 47 110 0 47 109 2 48 108 2 48 109 3 49 110 4 50 90 4 41 20 1 7 20 1 7 20 1 7 21 0 9 21 2 8 72 1 31 109 2 48 111 1 48 110 0 47 108 1 47 101 0 44 22 1 10 20 0 9 20 0 9 20 1 7 20 1 7 60 2 26 109 3 49 109 3 49 108 1 47 108 1 47 
111 1 48 108 2 48 106 3 48 106 3 48 106 3 48 108 2 48 108 2 48 108 2 48 110 0 47 109 2 48 111 1 48 108 1 47 112 2 49 110 0 47 108 1 47 110 0 47 109 2 48 106 3 48 108 2 48 106 3 48 108 2 48 108 2 48 108 2 48 111 1 48 111 1 48 109 2 48 108 1 47 109 3 49 106 3 48 109 3 49 109 3 49 107 4 49 106 3 48 105 2 47 106 3 48 106 3 48 108 2 48 109 2 48 111 0 47 110 0 47 108 1 47 111 1 48 112 0 48 110 0 47 109 3 49 109 3 49 109 3 49 106 3 48 109 2 48 108 2 48 109 3 49 106 3 48 108 2 48 109 2 48 108 1 47 108 1 47 112 0 48 111 1 48 111 1 48 110 0 47 107 1 47 106 3 48 106 3 48 106 3 48 109 3 49 106 3 48 108 2 48 110 3 49 109 2 48 109 2 48 108 1 47 111 1 48 111 1 48 109 2 48 111 1 48 111 1 48 108 2 48 106 3 48 90 2 40 21 2 8 21 2 8 21 0 7 21 1 10 21 2 8 72 1 31 111 1 48 109 0 46 110 0 47 110 0 47 101 0 44 21 2 8 20 1 7 18 1 7 21 0 7 20 1 7 60 2 26 108 2 48 108 2 48 111 1 48 109 2 48 
109 0 46 110 0 47 111 1 48 108 2 48 108 2 48 108 2 48 108 2 48 109 2 48 109 2 48 112 2 49 111 1 48 108 1 47 111 1 48 110 0 47 110 0 47 111 1 48 109 2 48 109 2 48 109 2 48 108 2 48 108 2 48 109 2 48 110 0 47 110 0 47 111 1 48 108 1 47 111 1 48 106 3 48 106 3 48 106 3 48 107 4 49 106 3 48 109 3 49 105 2 47 108 2 48 109 3 49 107 4 49 109 2 48 108 1 47 110 0 47 109 2 48 110 0 47 108 1 47 110 0 47 110 0 47 111 1 48 111 1 48 108 2 48 108 2 48 106 3 48 108 2 48 106 3 48 108 2 48 108 1 47 111 1 48 109 2 48 109 2 48 111 1 48 110 0 47 110 0 47 110 0 47 109 2 48 106 3 48 107 4 49 106 3 48 108 2 48 107 4 49 108 2 48 108 1 47 111 1 48 109 2 48 110 0 47 110 0 47 109 2 48 111 1 48 111 1 48 112 0 48 109 2 48 90 2 40 21 2 8 20 1 7 21 0 7 20 0 9 18 1 7 73 0 30 110 0 47 111 1 48 110 0 47 111 1 48 99 1 42 22 1 10 20 1 7 19 2 8 21 1 10 21 2 8 61 1 26 109 2 48 111 1 48 111 1 48 109 2 48 
109 2 48 110 0 47 109 2 48 110 0 47 109 2 48 108 1 47 110 0 47 108 1 47 110 0 47 111 1 48 111 1 48 111 1 48 110 0 47 110 0 47 109 2 48 109 2 48 108 1 47 108 1 47 111 1 48 111 1 48 110 0 47 109 2 48 112 2 49 110 0 47 108 1 47 111 1 48 112 0 48 111 1 48 108 2 48 107 4 49 108 2 48 108 2 48 109 3 49 108 2 48 111 1 48 110 0 47 110 0 47 108 2 48 109 2 48 111 1 48 111 1 48 111 1 48 111 1 48 111 1 48 110 0 47 111 1 48 110 0 47 111 1 48 109 2 48 108 2 48 109 3 49 110 0 47 108 1 47 109 2 48 111 1 48 110 0 47 111 1 48 110 0 47 111 1 48 110 0 47 111 1 48 110 0 47 110 3 49 108 2 48 108 2 48 109 3 49 108 2 48 111 1 48 110 0 47 109 2 48 109 2 48 109 2 48 111 1 48 108 2 48 109 2 48 110 0 47 110 0 47 110 0 47 94 0 39 21 0 7 20 0 9 20 1 7 21 2 8 19 2 8 72 1 31 111 1 48 111 1 48 111 1 48 108 1 47 101 0 42 22 1 10 21 0 7 20 1 7 20 0 9 20 0 9 60 0 26 109 2 48 110 0 47 111 1 48 109 2 48 
108 1 47 112 0 48 109 2 48 109 2 48 108 1 47 108 1 47 107 0 46 109 2 48 108 1 47 108 1 47 109 2 48 111 1 48 111 1 48 108 1 47 108 1 47 112 0 48 109 2 48 111 1 48 110 0 47 111 1 48 111 1 48 111 1 48 110 0 47 111 1 48 110 0 47 110 0 47 109 2 48 110 0 47 109 2 48 108 1 47 109 2 48 109 2 48 109 2 48 109 2 48 111 1 48 109 2 48 109 2 48 109 2 48 109 2 48 111 1 48 111 1 48 111 1 48 111 1 48 111 1 48 111 1 48 111 1 48 111 1 48 110 0 47 110 0 47 109 2 48 111 1 48 108 1 47 111 1 48 108 1 47 111 1 48 111 1 48 110 0 47 110 0 47 111 1 48 108 1 47 110 0 47 109 2 48 111 1 48 108 1 47 109 2 48 111 1 48 110 0 47 111 1 48 111 1 48 109 2 48 108 1 47 111 1 48 109 0 46 110 0 47 110 0 47 108 1 47 110 0 47 109 2 48 92 2 40 21 2 8 20 0 9 22 3 9 20 1 7 20 1 7 71 0 30 109 2 48 109 2 48 112 0 48 110 0 47 99 1 42 21 1 10 21 2 8 20 1 7 21 1 10 21 0 9 61 1 27 111 1 48 111 1 48 110 0 47 111 1 48 
111 1 48 112 0 48 110 0 47 108 1 47 110 0 47 111 1 48 108 1 47 110 0 47 112 0 48 108 1 47 108 2 48 108 2 48 112 2 49 111 1 48 111 1 48 109 2 48 109 2 48 111 1 48 111 1 48 110 0 47 110 0 47 110 0 47 108 1 47 110 0 47 111 1 48 108 1 47 109 2 48 110 0 47 110 0 47 109 2 48 108 1 47 110 0 47 108 1 47 108 1 47 110 0 47 111 1 48 111 1 48 108 1 47 109 2 48 111 1 48 111 1 48 111 1 48 111 1 48 110 0 47 109 2 48 108 1 47 111 1 48 111 1 48 111 1 48 111 1 48 112 0 48 109 2 48 111 1 48 109 2 48 108 1 47 111 1 48 111 1 48 111 1 48 112 0 48 111 1 48 109 2 48 110 0 47 109 2 48 109 2 48 110 0 47 110 0 47 111 1 48 111 1 48 110 0 47 110 0 47 110 0 47 111 1 48 110 0 47 108 1 47 110 0 47 108 1 47 109 2 48 108 1 47 91 1 39 20 1 7 20 0 9 20 1 7 20 1 7 20 1 7 73 0 30 110 0 47 111 1 48 109 2 48 109 2 48 101 0 42 23 2 11 19 0 6 21 2 8 21 0 9 21 0 9 60 0 26 110 0 47 108 1 47 109 2 48 110 0 47 
108 1 47 109 0 46 109 2 48 109 2 48 109 2 48 111 1 48 108 1 47 108 1 47 111 1 48 111 1 48 110 0 47 111 1 48 109 2 48 111 1 48 111 1 48 111 1 48 109 2 48 110 0 47 108 1 47 110 0 47 111 1 48 108 1 47 109 2 48 108 1 47 109 2 48 110 0 47 110 0 47 111 1 48 108 1 47 110 0 47 109 2 48 110 0 47 112 2 49 111 1 48 109 2 48 110 0 47 108 1 47 108 1 47 108 1 47 111 1 48 111 1 48 110 0 47 111 1 48 111 1 48 111 1 48 110 0 47 108 1 47 110 0 47 110 0 47 110 0 47 111 1 48 108 1 47 111 1 48 110 0 47 109 2 48 110 0 47 111 1 48 111 1 48 110 0 47 109 2 48 110 0 47 111 1 48 110 0 47 108 1 47 111 1 48 111 1 48 110 0 47 110 0 47 109 2 48 108 1 47 110 0 47 110 0 47 108 1 47 110 0 47 110 0 47 112 0 48 110 0 47 110 0 47 92 0 39 20 1 7 20 0 9 20 1 7 20 1 7 20 1 7 71 0 30 109 2 48 110 3 49 109 2 48 110 0 47 99 1 42 22 1 10 21 2 8 20 1 7 20 0 9 21 1 10 60 0 26 110 0 47 111 1 48 110 0 47 110 0 47 
110 0 47 110 0 47 111 1 48 109 2 48 111 1 48 110 0 47 111 1 48 109 2 48 105 4 48 106 3 48 106 3 48 109 2 48 112 2 49 109 2 48 110 3 49 112 0 48 111 1 48 108 1 47 110 0 47 111 1 48 111 1 48 110 0 47 110 0 47 110 0 47 110 0 47 110 0 47 111 1 48 108 1 47 110 0 47 109 2 48 111 1 48 110 0 47 108 1 47 107 1 47 108 1 47 110 0 47 110 0 47 109 2 48 109 2 48 111 1 48 109 2 48 109 2 48 108 1 47 109 2 48 109 2 48 109 2 48 110 0 47 111 1 48 109 2 48 109 2 48 109 2 48 111 1 48 109 2 48 111 1 48 110 0 47 111 1 48 111 0 47 109 2 48 109 2 48 109 2 48 110 0 47 112 0 48 109 0 46 110 0 47 109 2 48 110 0 47 110 0 47 111 1 48 110 0 47 108 1 47 108 2 48 108 2 48 111 1 48 111 1 48 110 0 47 108 1 47 110 0 47 110 0 47 91 1 39 21 0 7 20 0 9 21 2 8 18 1 7 19 0 6 71 2 31 106 3 48 108 2 48 109 2 48 109 2 48 99 1 42 22 1 10 21 2 8 20 1 7 21 1 10 21 1 10 61 1 27 111 1 48 110 0 47 111 1 48 110 0 47 
110 0 47 108 1 47 109 2 48 108 1 47 108 1 47 109 2 48 108 2 48 108 2 48 106 3 48 105 4 48 108 2 48 108 2 48 108 2 48 108 2 48 110 0 47 110 0 47 110 0 47 110 0 47 111 1 48 109 2 48 110 0 47 110 0 47 111 1 48 110 0 47 110 0 47 109 2 48 108 1 47 110 0 47 111 1 48 109 2 48 109 2 48 110 0 47 110 0 47 111 1 48 110 0 47 111 1 48 111 1 48 108 2 48 108 2 48 105 2 47 106 3 48 106 3 48 108 2 48 109 2 48 108 1 47 109 2 48 112 2 49 109 2 48 109 2 48 108 1 47 109 2 48 110 0 47 111 1 48 111 0 47 110 0 47 108 1 47 109 2 48 110 0 47 108 1 47 111 1 48 109 2 48 108 1 47 108 1 47 109 0 46 109 2 48 109 2 48 109 2 48 110 0 47 110 0 47 111 1 48 108 1 47 108 2 48 109 2 48 109 2 48 110 0 47 110 0 47 111 1 48 110 0 47 92 0 39 18 1 7 21 0 9 20 1 7 20 1 7 21 2 8 71 2 31 107 4 49 106 3 48 107 4 49 108 2 48 101 3 44 22 1 10 22 1 8 20 1 7 20 0 9 20 0 9 63 0 27 108 1 47 110 0 47 110 0 47 108 1 47 
111 1 48 111 1 48 111 1 48 108 1 47 110 0 47 109 2 48 108 2 48 106 3 48 106 3 48 108 2 48 106 3 48 105 4 48 106 3 48 108 2 48 107 1 47 108 1 47 110 0 47 110 0 47 110 0 47 110 0 47 111 1 48 111 1 48 109 2 48 108 2 48 109 2 48 108 2 48 110 3 49 109 2 48 108 1 47 109 2 48 108 1 47 109 2 48 108 1 47 109 0 46 108 1 47 112 0 48 109 2 48 110 3 49 108 2 48 108 2 48 108 2 48 109 3 49 109 3 49 105 4 48 109 3 49 112 0 48 111 1 48 110 0 47 111 1 48 108 1 47 108 1 47 111 1 48 109 2 48 109 2 48 109 2 48 109 2 48 109 2 48 109 2 48 111 1 48 112 0 48 111 1 48 109 2 48 108 1 47 112 0 48 111 1 48 109 2 48 109 2 48 110 0 47 108 1 47 109 2 48 111 1 48 110 0 47 109 2 48 109 2 48 109 2 48 110 3 49 110 0 47 110 0 47 91 1 39 21 0 7 21 1 10 20 1 7 20 1 7 20 1 7 70 1 30 107 4 49 109 3 49 108 2 48 106 3 48 98 3 43 22 1 10 21 2 8 22 1 8 20 0 9 20 0 9 58 0 25 111 1 48 111 1 48 111 1 48 111 1 48 
109 2 48 109 2 48 109 2 48 109 2 48 110 0 47 108 1 47 106 3 48 105 4 48 108 2 48 106 3 48 106 3 48 108 2 48 106 3 48 106 3 48 106 3 48 108 2 48 109 2 48 111 1 48 109 2 48 111 1 48 110 0 47 109 2 48 106 3 48 106 3 48 107 4 49 106 3 48 107 4 49 106 3 48 106 3 48 108 2 48 108 2 48 105 4 48 110 3 49 109 2 48 108 1 47 110 0 47 109 2 48 106 3 48 105 4 48 106 3 48 106 3 48 106 3 48 106 3 48 108 2 48 106 3 48 106 3 48 109 2 48 111 1 48 110 0 47 110 0 47 109 2 48 108 1 47 108 1 47 108 2 48 106 3 48 108 2 48 107 4 49 106 3 48 106 3 48 108 1 47 109 2 48 108 1 47 109 2 48 111 1 48 112 0 48 110 0 47 109 2 48 108 1 47 111 1 48 108 1 47 109 2 48 108 1 47 109 2 48 108 2 48 106 3 48 104 3 47 108 2 48 108 2 48 91 1 39 22 0 7 21 1 10 20 3 9 20 1 7 21 0 7 71 2 31 106 3 48 105 4 48 106 3 48 106 3 48 98 3 43 22 1 10 21 2 8 20 1 7 20 0 9 21 1 10 60 2 27 111 1 48 109 2 48 108 1 47 111 1 48 
106 5 49 106 3 48 107 1 47 108 1 47 109 2 48 108 1 47 108 2 48 108 2 48 107 4 49 107 4 49 108 2 48 106 3 48 108 2 48 106 3 48 106 3 48 104 1 46 106 3 48 108 1 47 110 0 47 110 0 47 108 1 47 107 1 47 107 4 49 106 3 48 106 3 48 106 3 48 106 3 48 106 3 48 106 3 48 106 3 48 106 3 48 106 3 48 108 2 48 109 2 48 110 0 47 110 0 47 108 2 48 106 3 48 108 2 48 106 3 48 106 3 48 106 3 48 106 3 48 106 3 48 106 3 48 106 3 48 106 3 48 109 3 49 110 0 47 109 2 48 109 2 48 112 0 48 108 2 48 106 3 48 106 3 48 106 3 48 106 3 48 106 3 48 108 2 48 106 3 48 106 3 48 108 2 48 109 2 46 110 0 47 108 1 47 110 0 47 112 2 49 109 2 48 108 1 47 108 1 47 109 2 48 108 2 48 109 3 49 106 3 48 106 3 48 106 3 48 108 2 48 106 3 48 91 1 39 20 1 7 20 1 7 20 1 7 19 2 8 19 2 8 71 2 31 108 2 48 108 2 48 106 3 48 106 3 48 98 3 43 22 1 10 20 0 9 20 1 7 21 0 7 21 0 7 61 1 26 109 2 48 108 1 47 111 1 46 109 2 48 
106 3 48 106 3 48 106 3 48 108 2 48 111 1 48 111 1 48 108 2 48 106 3 48 108 2 48 107 4 49 106 3 48 108 2 48 106 3 48 106 3 48 108 2 48 106 3 48 106 3 48 106 3 48 108 1 47 109 2 48 108 1 47 106 3 48 106 3 48 107 4 49 106 3 48 106 3 48 106 3 48 106 3 48 105 2 47 106 3 48 106 3 48 106 3 48 107 1 47 109 2 48 109 2 48 111 1 48 108 2 48 105 4 48 106 3 48 108 2 48 108 2 48 106 3 48 108 2 48 106 3 48 108 2 48 106 3 48 106 3 48 105 2 47 108 2 48 111 1 48 109 2 48 111 1 48 106 3 48 108 2 48 106 3 48 108 2 48 106 3 48 106 3 48 108 2 48 109 3 49 106 3 48 106 3 48 106 3 48 108 1 47 111 1 48 108 1 47 111 1 48 111 1 48 111 1 48 107 1 47 106 3 48 106 3 48 106 3 48 105 2 47 108 2 48 106 3 48 106 3 48 105 4 48 89 1 39 20 0 9 21 2 8 21 2 8 20 1 7 22 1 8 71 2 31 106 3 48 108 2 48 106 3 48 107 4 49 99 4 46 22 1 10 20 1 7 20 1 7 20 0 9 20 1 7 59 1 26 108 1 47 107 0 46 111 1 48 109 2 48 
108 2 48 105 4 48 106 3 48 108 2 48 110 0 47 110 3 49 108 1 47 107 1 47 106 3 48 106 3 48 108 2 48 106 3 48 108 2 48 108 2 48 107 4 49 106 3 48 108 2 48 106 3 48 108 2 48 109 2 48 108 1 47 109 3 49 105 2 47 106 3 48 106 3 48 106 3 48 106 3 48 106 3 48 106 3 48 106 3 48 106 3 48 106 3 48 106 3 48 108 2 48 110 0 47 111 1 48 108 1 47 108 2 48 105 4 48 106 3 48 106 3 48 106 3 48 106 3 48 106 3 48 106 3 48 106 3 48 106 3 48 106 3 48 108 2 48 110 0 47 108 1 47 109 2 48 106 3 48 108 2 48 106 3 48 106 3 48 107 4 49 108 2 48 106 3 48 106 3 48 108 2 48 106 3 48 106 3 48 109 2 48 109 2 48 108 1 47 108 1 47 109 2 48 108 2 48 106 3 48 106 3 48 108 2 48 106 3 48 106 3 48 108 2 48 106 3 48 106 3 48 104 3 47 89 3 40 21 2 8 21 0 9 20 1 7 21 0 11 20 1 7 71 2 31 109 2 48 108 3 46 106 3 48 106 3 48 98 3 43 22 1 8 18 1 7 20 1 7 20 1 7 21 2 8 26 0 11 78 1 33 110 0 47 109 2 48 106 3 48 
108 2 48 106 3 48 106 3 48 109 2 48 110 0 47 108 1 47 107 0 46 109 2 48 108 2 48 108 2 48 106 3 48 106 3 48 106 3 48 106 3 48 106 3 48 106 3 48 105 4 48 106 3 48 107 1 47 108 1 47 108 1 47 106 3 48 106 3 48 108 2 48 106 3 48 106 3 48 106 3 48 108 2 48 108 2 48 106 3 48 107 4 49 106 3 48 107 4 49 108 2 48 108 1 47 108 1 47 108 1 47 108 1 47 107 1 47 106 3 48 106 3 48 104 3 47 106 3 48 107 4 49 106 3 48 105 4 48 106 3 48 106 3 48 108 2 48 109 2 48 108 1 47 111 1 48 108 2 48 108 2 48 106 3 48 106 3 48 106 3 48 108 3 46 106 3 48 106 3 48 107 4 49 106 3 48 106 3 48 108 2 48 108 1 47 108 1 47 106 3 48 108 2 48 106 3 48 106 3 48 106 3 48 106 3 48 107 4 47 106 3 48 106 3 48 106 3 48 106 3 48 106 3 48 90 2 40 21 2 8 20 0 9 20 0 9 20 1 7 20 0 9 72 1 33 108 2 48 107 4 49 106 3 46 107 4 49 98 3 43 22 1 10 20 0 9 19 2 10 19 2 10 20 0 9 21 2 8 23 0 10 97 0 43 105 3 50 106 4 44 
106 3 48 106 3 48 106 3 48 107 1 47 109 2 48 108 1 47 111 1 48 108 1 47 109 2 48 109 2 48 106 3 48 106 3 48 106 3 48 106 3 48 106 3 48 106 3 48 107 4 49 108 2 48 108 2 48 110 0 47 110 0 47 108 1 47 106 3 48 106 3 48 106 3 48 107 4 49 106 3 48 106 3 48 106 3 48 106 3 48 106 3 48 106 3 48 108 2 48 107 1 47 110 0 47 108 1 47 108 1 47 110 0 47 109 2 48 108 1 47 106 3 48 106 3 48 105 2 47 106 3 48 106 3 48 106 3 48 106 3 48 108 2 48 109 2 48 109 2 48 109 2 48 111 1 48 108 1 47 108 2 48 107 4 49 106 3 48 106 3 48 109 2 46 106 3 48 106 3 48 108 2 48 109 3 49 105 4 48 108 2 48 110 0 47 108 1 47 108 2 48 106 3 48 106 3 48 106 3 48 106 3 48 106 3 48 108 2 48 106 3 48 106 3 48 106 3 48 106 3 48 108 2 48 91 1 39 20 0 9 20 0 9 18 1 9 20 0 9 20 1 7 71 0 30 109 2 46 107 1 47 106 3 48 107 4 49 98 3 43 21 1 10 21 2 8 20 0 9 20 0 9 20 1 5 21 2 8 20 1 7 73 2 32 107 4 49 108 2 48 
106 3 48 106 3 48 107 1 47 110 0 47 108 1 47 107 0 46 109 2 48 111 1 48 108 1 47 108 1 47 109 2 48 106 3 48 106 3 48 106 3 48 106 3 48 108 2 48 108 2 48 105 2 47 107 1 47 108 2 48 111 1 48 107 0 46 109 2 48 108 2 48 108 2 48 107 1 47 108 2 48 106 3 48 106 3 48 108 2 48 108 2 48 108 2 48 108 2 48 108 1 47 108 1 47 108 1 47 112 2 49 110 0 47 108 1 47 109 2 48 110 0 47 109 2 48 106 3 48 105 4 48 105 4 48 108 2 48 106 3 48 108 2 48 110 0 47 109 2 48 108 1 47 108 1 47 110 0 47 108 2 48 108 2 48 106 3 48 108 2 48 106 3 48 108 2 48 106 3 48 108 2 48 108 2 48 106 3 48 109 2 48 108 1 47 108 2 48 105 2 47 106 3 48 106 3 48 109 3 49 106 3 48 106 3 48 106 3 48 106 3 48 106 3 48 105 2 47 107 1 47 108 1 47 92 2 40 22 1 8 21 2 8 20 0 9 20 1 7 20 1 7 72 1 31 109 2 48 109 2 48 108 1 47 108 2 48 100 3 44 22 0 12 21 2 8 21 2 8 20 1 7 21 2 8 20 1 7 20 0 9 70 1 30 106 3 46 106 3 48 
106 3 48 109 2 48 110 0 47 109 2 48 109 2 48 109 2 48 109 2 48 109 2 48 107 0 46 108 1 47 109 2 48 112 0 48 108 2 48 106 3 48 108 2 48 106 3 48 106 3 48 108 2 48 111 1 48 110 0 47 108 1 47 109 2 48 109 2 48 108 1 47 108 1 47 109 2 48 108 1 47 108 1 47 109 2 48 107 0 46 109 2 48 108 1 47 111 1 48 109 2 48 108 1 47 107 0 46 110 0 47 111 1 48 109 2 48 110 0 47 107 0 46 108 1 47 109 2 48 108 2 48 108 2 48 108 2 48 107 1 47 108 1 47 108 1 47 110 0 47 110 0 47 110 0 47 108 1 47 108 1 47 108 1 47 108 1 47 108 2 48 107 1 47 107 4 49 106 3 48 108 2 48 106 3 48 109 2 48 108 1 47 108 1 47 108 2 48 106 3 48 108 2 48 108 2 48 106 3 48 105 4 48 105 4 48 106 3 46 109 3 49 109 3 49 108 2 48 108 1 47 110 0 47 91 1 39 20 1 7 21 2 8 20 0 9 20 0 9 21 2 8 71 0 30 112 0 48 107 1 47 106 3 46 63 0 27 39 1 16 20 0 9 20 1 7 21 2 8 20 1 7 21 1 10 20 0 9 20 0 9 71 2 31 106 3 46 106 3 48 
110 0 47 108 1 47 108 1 47 108 1 47 108 1 47 109 2 48 108 1 47 110 0 47 108 1 47 108 1 47 108 1 47 107 0 46 108 1 47 111 1 48 108 2 48 108 2 48 108 1 47 108 1 47 108 2 48 107 1 47 109 2 48 108 1 47 108 1 47 108 1 47 108 1 47 108 1 47 108 1 47 108 1 47 108 1 47 108 1 47 108 1 47 108 1 47 109 2 48 107 0 46 108 1 47 110 0 47 107 0 46 108 1 47 111 1 48 112 0 48 111 1 48 108 1 47 108 1 47 111 1 48 108 1 47 108 1 47 108 1 47 108 1 47 108 1 47 108 1 47 110 0 47 110 0 47 109 2 48 109 2 48 110 0 47 108 1 47 111 1 48 109 2 48 109 2 48 108 2 48 109 2 48 109 2 48 110 0 45 108 1 47 110 0 47 109 2 48 108 2 48 107 4 49 106 3 48 106 3 48 105 2 47 106 3 48 105 2 47 108 2 48 108 1 47 110 0 47 108 1 47 108 1 47 93 1 40 20 0 9 21 2 8 20 0 9 21 2 8 20 1 7 71 0 32 110 0 49 110 0 47 53 1 23 21 2 8 21 2 8 20 0 11 21 2 8 21 0 9 20 0 9 19 0 6 20 0 9 20 0 9 71 0 30 106 3 48 106 3 46 
110 0 47 110 0 47 108 1 47 110 0 47 110 0 47 107 1 47 108 1 47 109 2 48 108 1 47 108 1 47 111 1 48 108 1 47 108 1 47 108 2 48 109 2 48 110 0 47 107 0 46 107 0 46 108 1 47 107 1 47 107 1 47 108 2 48 110 0 47 108 1 47 108 1 47 108 1 47 109 1 50 109 2 48 110 0 47 109 2 46 107 1 47 111 0 47 108 1 47 107 0 46 108 1 47 111 1 48 109 2 48 108 1 47 108 1 47 111 1 48 108 1 47 108 1 47 109 2 48 108 1 47 110 0 47 111 0 47 110 0 47 109 2 48 108 1 47 108 1 47 108 1 47 109 2 48 108 1 47 108 1 47 108 1 47 108 1 47 108 1 47 110 0 47 110 0 47 110 0 47 110 0 47 109 2 48 111 1 48 110 3 49 109 2 48 108 2 48 108 2 48 106 3 46 106 3 46 108 2 48 106 3 48 106 3 48 108 2 48 108 1 47 109 2 48 110 0 47 110 0 47 108 1 47 90 0 38 20 1 7 20 1 7 20 0 9 19 2 8 19 0 6 70 1 30 111 1 48 96 1 41 24 1 11 21 2 8 21 2 8 20 1 7 20 1 7 20 1 7 20 1 7 20 1 7 20 1 7 21 2 8 71 0 30 108 1 47 108 2 48 
111 1 48 108 1 47 108 1 47 107 0 46 108 1 47 109 2 48 109 2 48 110 0 47 110 0 47 108 1 47 110 0 47 108 1 47 108 1 47 108 1 47 109 2 48 108 1 47 108 1 47 109 2 48 107 1 47 106 3 48 108 2 48 108 2 48 108 2 48 109 2 48 110 0 47 110 0 47 108 1 47 109 2 48 108 1 47 108 1 47 109 2 46 108 1 47 108 2 48 108 1 47 108 1 47 108 1 47 110 0 47 108 1 47 108 1 47 110 0 47 107 1 47 110 0 47 110 0 47 110 0 47 108 1 47 108 1 47 110 0 47 110 0 47 109 2 48 110 0 47 108 1 47 109 2 48 110 0 47 110 0 47 108 1 47 110 0 47 107 0 46 108 1 47 110 0 47 111 1 48 108 1 47 109 2 48 108 1 47 105 2 47 106 3 48 106 3 48 106 3 48 106 3 48 106 3 48 108 2 48 108 2 48 109 2 48 108 1 47 109 2 48 109 2 48 108 1 47 108 1 47 107 1 47 90 2 40 21 0 9 21 2 8 20 1 7 21 0 7 20 1 7 71 2 31 109 2 48 91 1 39 22 1 10 21 2 8 20 1 7 20 1 7 20 1 7 21 2 8 20 1 7 20 1 7 20 1 7 20 1 7 71 0 30 109 2 48 108 1 47 
