P3
100 50
255
9 30 23 8 29 22 8 29 22 9 30 25 9 30 23 9 30 23 27 20 28 61 1 37 23 22 28 9 30 23 10 31 24 9 30 25 7 30 22 8 29 22 9 30 23 8 29 22 7 30 22 8 29 22 8 29 22 8 30 27 49 9 36 60 3 38 61 1 35 31 17 30 9 30 23 10 29 25 9 30 23 7 30 24 9 30 25 9 36 29 25 88 69 28 100 78 27 100 80 27 99 79 27 99 77 14 50 40 8 31 25 8 29 24 9 30 23 8 31 23 14 46 35 27 101 78 41 61 60 61 1 35 63 4 36 63 2 36 61 1 35 67 2 42 75 2 45 75 2 45 64 2 39 61 1 35 62 2 36 60 3 38 62 2 36 71 3 44 75 2 45 72 1 43 62 2 36 62 2 38 62 2 36 61 1 37 66 2 39 75 2 45 74 1 44 66 2 39 61 1 35 60 3 38 62 2 36 62 2 38 61 1 37 62 2 36 62 2 36 62 2 36 62 2 36 62 2 36 62 2 36 62 2 36 62 2 36 62 2 36 62 2 36 62 2 38 62 2 36 63 2 36 62 2 36 73 2 44 75 2 45 73 2 44 62 2 36 62 2 36 62 2 36 62 2 36 59 2 35 62 2 36 59 2 35 62 2 36 62 2 36 61 1 35 62 2 36 62 2 38 
9 30 23 9 30 23 8 29 22 8 29 24 8 31 23 8 31 21 8 29 24 53 7 36 34 18 31 8 29 22 9 30 25 9 30 25 8 31 25 9 30 25 9 30 23 8 29 22 9 30 23 6 29 23 9 30 23 8 29 24 23 24 29 60 3 38 62 2 36 60 3 36 26 21 28 9 30 23 10 31 26 8 31 25 9 28 22 8 29 24 14 46 35 25 93 72 26 99 79 27 98 80 27 99 79 23 84 66 8 31 25 9 29 27 9 30 25 9 30 21 9 30 23 21 82 64 40 60 61 62 2 38 62 2 38 62 2 36 63 2 36 67 3 40 75 2 45 75 2 45 64 2 39 62 2 36 62 2 36 60 3 38 62 2 36 70 2 43 77 2 45 73 2 44 62 2 36 62 2 38 62 2 36 62 2 38 64 2 39 75 2 45 75 2 45 64 2 39 62 2 36 62 2 38 62 2 36 60 3 38 62 0 37 62 2 36 62 2 36 62 2 36 62 2 36 62 2 36 62 2 36 62 2 36 62 2 36 62 2 36 62 2 36 63 1 38 63 2 36 62 2 36 62 2 36 73 2 44 75 2 45 71 3 44 62 2 36 62 2 36 62 2 36 59 2 35 62 2 36 62 2 36 62 2 36 62 2 36 62 2 36 62 2 36 62 2 36 62 2 38 
8 31 25 18 27 26 11 27 26 35 59 37 75 103 52 92 120 59 97 127 63 95 114 59 73 80 49 18 40 27 9 30 23 8 29 22 8 31 23 8 31 23 8 31 23 8 31 23 7 30 22 8 29 22 9 30 23 8 29 24 10 29 23 48 8 35 62 2 38 62 2 36 52 6 35 14 29 26 8 31 25 8 29 24 8 29 22 9 30 25 8 31 23 12 48 38 27 96 75 26 100 77 27 101 78 27 101 78 14 47 38 9 30 25 9 30 23 9 30 21 8 29 22 15 55 44 41 61 62 61 1 37 62 2 38 59 2 35 63 3 37 66 2 39 75 2 45 75 2 45 64 2 39 62 2 36 62 2 36 60 3 38 62 2 36 70 2 43 77 2 45 73 2 44 62 2 36 62 2 38 61 1 35 60 3 38 64 2 39 74 1 44 78 3 46 66 2 39 62 2 36 60 3 38 62 2 36 62 2 38 62 2 38 60 3 36 62 2 36 62 2 36 62 2 36 62 2 36 62 2 36 62 2 36 62 2 36 62 2 36 60 3 36 62 2 38 62 2 36 60 3 36 62 2 36 73 2 44 75 2 45 71 3 44 62 2 36 59 2 35 62 2 36 62 2 36 62 2 36 63 3 37 62 2 36 61 1 35 62 2 36 62 2 36 62 2 36 62 2 38 
9 30 25 11 27 24 79 84 52 113 143 69 112 143 67 111 143 68 112 142 68 112 142 68 113 143 69 107 137 67 35 59 35 8 29 24 8 31 25 7 30 22 8 29 24 8 29 22 8 29 22 9 30 23 8 29 22 8 29 24 8 29 24 24 21 28 61 1 37 62 2 36 62 2 38 35 17 33 8 31 23 9 30 25 10 31 26 10 29 25 9 30 25 9 30 25 15 53 42 27 101 78 27 99 77 26 99 79 22 79 64 8 31 25 9 30 25 8 31 25 9 30 25 18 66 52 40 60 61 62 2 40 62 2 38 62 2 36 63 2 36 66 1 41 75 2 45 75 2 45 64 2 39 61 1 35 62 2 36 60 3 38 62 2 36 71 3 44 75 2 45 73 2 44 62 2 36 62 2 38 62 2 36 62 2 38 66 2 39 75 2 45 75 2 45 64 2 39 62 2 36 62 2 38 62 2 36 61 1 37 62 2 38 62 2 36 62 2 36 62 2 36 62 2 36 62 2 36 62 2 36 62 2 36 62 2 36 62 2 36 62 2 36 62 2 38 62 2 36 62 2 36 62 2 36 73 2 44 75 2 45 73 2 44 62 2 36 62 2 36 62 2 36 62 2 36 63 3 37 62 2 36 62 2 36 62 2 36 62 2 36 62 2 36 61 1 35 62 2 38 
10 31 24 62 87 45 111 143 68 112 142 70 112 144 69 112 144 69 115 143 69 111 143 70 113 143 69 113 143 71 108 138 66 25 48 30 10 31 24 8 29 24 8 29 24 9 30 23 8 31 23 8 29 22 9 30 25 9 30 23 9 30 25 10 29 25 51 7 34 62 2 36 61 1 37 61 7 41 11 27 24 8 29 22 9 30 23 9 28 24 9 30 25 8 29 24 9 28 24 17 64 48 30 99 78 27 99 77 27 101 78 16 58 46 10 31 26 9 30 25 12 42 32 25 93 72 41 61 62 62 2 38 62 2 38 62 2 36 63 3 37 64 2 39 75 2 45 75 2 45 64 2 39 61 1 35 62 2 36 60 3 38 62 2 36 71 3 44 75 2 45 73 2 44 62 2 36 62 2 38 62 2 36 62 2 38 66 2 39 75 2 45 75 2 45 66 2 39 60 3 36 63 3 39 62 2 36 60 3 38 62 2 38 62 2 36 62 2 36 62 2 36 62 2 36 62 2 36 62 2 36 62 2 36 62 2 36 62 2 36 62 2 36 62 2 38 62 2 36 62 2 36 62 2 36 71 3 44 75 2 45 73 2 44 62 2 36 62 2 36 62 2 36 62 2 36 62 2 36 62 2 36 62 2 36 62 2 36 62 2 36 62 2 36 61 1 35 62 2 38 
43 66 38 111 143 68 112 142 68 112 142 68 113 143 69 112 142 68 113 143 69 111 143 68 111 143 68 112 142 68 112 142 68 82 109 54 9 30 23 8 31 25 9 30 23 8 31 23 8 29 20 8 29 24 8 31 25 9 30 23 10 29 25 9 30 25 29 19 28 60 3 36 60 3 38 71 3 42 25 22 29 8 29 22 9 30 23 7 30 24 9 30 25 10 31 26 9 30 25 9 30 25 17 65 51 26 98 76 27 101 78 25 97 75 22 83 65 21 78 61 25 97 75 26 100 77 41 59 61 62 2 36 62 2 38 62 2 38 62 2 38 67 3 38 75 2 45 75 2 45 64 2 39 62 2 36 62 2 36 60 3 38 62 2 36 70 2 43 75 2 45 72 1 43 62 2 36 62 2 38 62 2 36 61 1 37 66 2 39 75 2 45 75 2 45 66 2 39 62 2 36 62 2 38 62 2 36 60 3 38 61 1 37 61 1 35 62 2 36 62 2 36 62 2 36 62 2 36 62 2 36 62 2 36 62 2 36 62 2 36 62 2 36 60 3 38 60 3 36 60 3 36 62 2 36 71 3 44 75 2 45 73 2 44 62 2 36 62 2 36 60 3 36 62 2 36 62 2 36 61 1 35 64 3 37 62 2 36 62 2 36 62 2 36 61 1 35 62 2 38 
101 130 66 111 143 70 113 143 69 112 142 68 112 142 68 112 144 69 112 142 70 113 143 69 112 142 68 111 141 67 111 141 69 105 134 67 21 45 29 9 30 25 8 29 24 9 30 25 8 29 24 8 31 23 8 29 24 8 29 24 8 29 22 8 31 23 9 30 25 53 9 36 59 2 37 70 2 41 51 11 37 9 30 25 8 29 24 10 31 24 8 29 24 7 28 23 9 29 27 8 29 24 8 31 25 19 70 55 27 99 77 28 100 78 26 100 77 27 101 78 27 101 78 27 99 77 42 60 62 62 2 36 62 2 36 60 3 35 62 2 36 66 2 39 75 2 45 75 2 45 64 2 39 62 2 36 62 2 36 60 3 38 62 2 36 70 2 43 75 2 45 73 2 44 62 2 36 62 2 38 62 2 36 62 2 38 64 2 39 75 2 45 77 2 45 66 2 39 60 3 36 62 2 38 62 2 36 62 2 38 58 2 37 62 2 36 62 2 36 62 2 36 62 2 36 62 2 36 62 2 36 62 2 36 62 2 36 62 2 36 62 2 36 60 3 38 60 3 36 60 3 36 62 2 36 73 2 44 75 2 45 73 2 44 62 2 36 62 2 36 60 3 36 61 1 35 62 2 36 62 2 36 61 1 35 62 2 36 62 2 36 62 2 36 62 2 36 62 2 38 
111 143 68 112 142 68 112 142 70 112 142 68 111 142 66 112 142 68 112 142 68 112 142 70 111 141 67 112 142 68 112 142 68 111 143 68 43 68 39 9 30 23 8 29 22 8 29 22 8 29 24 16 26 27 17 27 26 9 30 23 7 30 22 9 30 23 9 29 27 30 20 29 63 1 38 72 1 41 74 3 47 20 26 26 9 28 24 9 30 25 8 29 24 9 30 25 9 30 25 8 31 25 10 31 26 7 30 24 20 77 60 28 100 78 27 101 78 26 98 76 27 99 79 27 101 78 41 61 60 63 3 37 62 2 36 62 3 35 63 2 36 66 2 39 75 2 45 75 2 45 64 2 39 61 1 35 62 2 36 60 3 38 62 2 36 71 3 44 75 2 45 73 2 44 62 2 36 62 2 38 61 1 35 62 2 38 66 2 39 74 1 44 75 2 45 64 2 39 61 1 35 61 1 37 62 2 36 62 2 38 62 2 38 62 2 36 62 2 36 62 2 36 62 2 36 62 2 36 62 2 36 62 2 36 62 2 36 62 2 36 60 3 36 62 2 38 62 2 36 62 2 36 60 3 36 73 2 44 75 2 45 73 2 44 62 2 36 62 2 36 61 1 35 62 2 36 62 2 36 60 3 36 62 2 36 59 2 35 62 2 36 62 2 36 63 3 37 62 2 38 
112 142 68 113 143 69 113 143 69 112 142 68 112 142 68 113 143 69 112 142 68 112 142 68 112 142 68 111 143 70 112 142 68 113 143 69 43 68 38 9 30 23 9 28 24 9 30 25 19 25 25 52 9 36 47 14 35 8 29 22 8 31 23 9 30 25 8 31 23 12 28 25 53 7 35 72 1 45 75 2 45 41 20 35 8 31 25 8 29 22 10 29 23 8 29 22 9 30 25 9 30 25 9 30 25 9 30 25 10 33 27 20 81 63 26 100 77 27 101 78 28 100 78 27 99 77 41 59 61 62 2 38 61 1 35 61 1 37 62 2 36 67 3 40 75 2 45 75 2 45 66 2 39 62 2 36 62 2 36 61 1 37 62 2 36 70 2 43 75 2 45 71 3 44 62 2 38 62 2 36 62 2 38 62 2 36 66 2 39 75 2 45 75 2 45 66 2 39 61 1 35 60 3 38 62 2 36 59 2 37 61 1 37 61 1 35 62 2 36 61 1 35 62 2 36 62 2 36 62 2 36 62 2 36 62 2 36 62 2 36 62 2 36 62 2 36 62 2 36 62 2 36 62 2 38 73 2 44 75 2 45 73 2 44 61 1 35 62 2 36 62 2 36 61 1 35 62 2 36 62 2 36 62 2 36 63 3 37 62 2 36 62 2 36 62 2 36 62 2 36 
112 142 68 113 143 69 112 142 68 113 143 69 113 143 69 112 142 68 112 142 68 112 142 68 112 142 68 111 143 68 113 143 69 110 140 68 33 57 33 8 29 22 9 28 22 9 30 25 58 4 38 64 2 39 72 4 45 16 26 27 9 30 23 8 29 22 8 29 24 8 29 22 29 19 28 70 2 43 75 2 45 57 34 54 7 30 22 9 30 23 9 30 25 9 30 25 8 29 24 8 29 22 9 30 23 7 30 22 9 30 25 13 44 36 27 101 78 27 99 77 27 99 77 26 100 77 42 60 62 61 1 37 61 4 37 61 1 37 62 2 36 64 2 39 75 2 45 75 2 45 66 2 39 62 2 36 61 1 35 62 2 38 62 2 36 70 2 43 75 2 45 71 3 44 62 2 38 62 2 36 62 2 38 62 2 36 66 2 39 75 2 45 75 2 45 66 2 39 62 2 36 62 2 38 63 2 36 63 1 38 60 3 38 62 2 36 60 3 36 62 2 36 62 2 36 62 2 36 60 3 36 62 2 36 62 2 36 62 2 36 62 2 36 62 2 36 62 2 36 62 2 36 62 2 38 73 2 44 75 2 45 73 2 44 61 1 35 62 2 36 62 2 36 62 2 36 62 2 36 61 1 35 62 2 36 63 3 37 62 2 36 62 2 36 62 2 36 62 2 36 
111 141 67 112 142 68 113 143 69 112 142 68 112 142 68 112 142 68 113 143 69 113 143 69 112 142 68 112 142 70 113 143 69 98 127 61 14 36 24 9 30 25 9 30 25 9 30 23 53 7 35 64 3 37 75 2 45 46 14 35 8 31 23 9 30 23 9 30 25 8 29 24 12 27 24 64 7 40 74 1 44 58 37 56 15 51 39 9 30 23 8 29 24 7 30 24 9 28 22 8 31 23 9 30 23 8 29 22 8 29 24 11 38 31 26 98 76 27 99 77 27 99 77 26 100 77 42 60 62 64 2 39 61 1 35 62 2 38 62 2 36 66 2 39 75 2 45 75 2 45 66 2 39 62 2 36 61 1 35 62 2 38 62 2 36 71 3 44 75 2 45 71 3 44 62 2 38 62 2 36 62 2 38 62 2 36 66 2 39 75 2 45 75 2 45 66 2 39 62 2 36 60 3 38 62 2 36 60 3 38 61 1 37 62 2 36 62 2 36 62 2 36 60 3 36 62 2 36 62 2 36 62 2 36 62 2 36 62 2 36 62 2 36 62 2 36 62 2 36 62 2 36 62 2 38 73 2 44 75 2 45 73 2 44 62 2 36 60 3 36 62 2 36 62 2 36 62 2 36 62 2 36 62 2 36 62 2 36 62 2 36 62 2 36 62 2 36 62 2 36 
112 142 68 112 142 68 113 143 69 112 142 68 112 142 68 113 143 69 111 141 67 112 142 68 112 142 68 113 143 69 112 144 69 46 71 41 9 30 23 10 31 26 9 30 25 9 30 25 51 7 34 64 2 39 74 1 44 71 3 44 13 28 25 9 30 23 9 30 23 9 30 23 9 30 23 35 19 32 76 3 46 58 37 56 21 82 64 9 30 23 8 29 24 8 28 26 9 30 23 8 29 24 9 30 25 8 31 25 8 29 24 16 64 50 27 99 77 27 99 77 25 99 76 26 100 77 39 59 60 61 1 37 60 3 36 62 2 38 62 2 36 64 2 39 75 2 45 75 2 45 66 2 39 62 2 36 61 1 35 62 2 38 62 2 36 71 3 44 75 2 45 71 3 44 62 2 38 62 2 36 62 2 38 62 2 36 66 2 39 75 2 45 75 2 45 66 2 39 60 3 36 62 2 38 62 2 36 62 2 38 61 1 37 62 2 36 61 1 35 62 2 36 61 1 35 62 2 36 62 2 36 62 2 36 62 2 36 62 2 36 62 2 36 62 2 36 62 2 36 62 2 36 62 2 38 73 2 44 75 2 45 73 2 44 60 3 36 61 1 35 62 2 36 60 3 36 61 1 35 61 1 35 62 2 36 62 2 36 62 2 36 62 2 36 62 2 36 62 2 36 
112 142 68 111 141 67 112 142 68 112 142 68 113 143 69 112 142 68 112 142 68 112 142 68 113 143 69 111 143 68 91 121 61 9 32 24 9 30 23 8 29 24 8 29 24 8 29 24 46 11 33 65 3 40 74 1 44 73 2 46 43 14 34 9 30 25 9 30 23 9 30 25 7 30 24 10 29 25 64 7 42 56 37 56 25 97 75 13 46 35 8 29 20 8 29 24 8 29 24 8 29 24 12 39 32 14 52 41 18 69 54 26 98 76 27 99 77 27 99 77 28 100 78 26 100 77 44 59 62 62 2 38 60 3 36 63 1 38 62 2 36 66 2 39 75 2 45 75 2 45 66 2 39 62 2 36 61 1 35 62 2 38 62 2 36 70 2 43 75 2 45 71 3 44 62 2 38 62 2 36 62 2 38 62 2 36 66 2 39 75 2 45 75 2 45 64 2 39 62 2 36 62 2 38 62 2 36 62 2 38 62 2 38 61 1 35 62 2 36 62 2 36 62 2 36 62 2 36 61 1 35 62 2 36 61 1 35 62 2 36 62 2 36 62 2 36 62 2 36 62 2 36 62 2 38 73 2 44 75 2 45 73 2 44 61 1 35 60 3 36 63 3 37 62 2 36 61 1 35 62 2 36 63 3 37 61 1 35 62 2 36 62 2 36 62 2 36 62 2 36 
111 141 67 112 142 68 112 142 68 111 141 67 112 142 68 112 142 68 112 142 68 112 142 68 111 143 68 105 136 66 32 55 35 9 30 23 8 29 22 8 29 22 9 30 23 8 29 22 40 13 32 65 3 40 78 3 46 76 3 46 61 6 38 15 25 24 8 29 22 9 30 23 8 29 24 8 29 22 37 19 33 56 37 57 27 101 78 19 70 55 7 30 22 8 31 23 9 28 24 9 30 25 11 38 31 25 93 72 27 99 77 27 99 77 26 100 77 26 100 77 27 101 78 26 100 77 40 60 61 59 2 37 62 2 36 59 2 37 62 2 36 65 1 38 75 2 45 75 2 45 66 2 39 62 2 36 62 2 36 61 1 37 62 2 36 70 2 43 75 2 45 71 3 44 62 2 38 62 2 36 62 2 38 62 2 36 66 2 39 75 2 45 75 2 45 64 2 39 61 1 35 60 3 38 62 2 36 60 3 38 62 2 38 62 2 36 62 2 36 62 2 36 60 3 36 62 2 36 62 2 36 62 2 36 62 2 36 62 2 36 62 2 36 62 2 36 62 2 36 62 2 36 62 2 38 73 2 44 75 2 45 73 2 44 60 3 36 62 2 36 62 2 36 60 3 36 62 2 36 62 2 36 62 2 36 62 2 36 62 2 36 62 2 36 62 2 36 62 2 36 
112 142 68 111 141 67 112 142 68 111 141 67 112 142 68 112 142 68 112 142 68 111 141 67 112 142 68 64 91 48 9 30 25 7 28 23 9 30 25 9 30 23 8 29 24 8 29 24 31 18 28 66 2 39 75 2 45 74 1 46 66 2 39 38 14 30 7 28 23 9 30 23 10 29 25 9 30 23 13 29 26 49 41 54 27 99 77 25 92 74 11 37 28 8 29 22 9 30 25 8 29 24 9 30 25 19 73 57 27 99 77 29 98 77 27 101 78 27 99 77 27 99 77 26 100 77 41 59 61 62 2 38 59 2 35 63 1 38 62 2 36 68 4 41 75 2 45 75 2 45 66 2 39 62 2 36 61 1 35 62 2 38 62 2 36 70 2 43 75 2 45 71 3 44 62 2 38 62 2 36 62 2 38 62 2 36 66 2 39 75 2 45 74 1 44 66 2 39 59 2 35 62 2 38 62 2 36 62 2 38 63 1 38 62 2 36 60 3 36 62 2 36 62 2 36 62 2 36 60 3 36 62 2 36 62 2 36 62 2 36 62 2 36 62 2 36 62 2 36 62 2 36 62 2 38 73 2 44 75 2 45 73 2 44 61 1 35 62 2 36 62 2 36 61 1 35 62 2 36 61 1 35 60 0 34 62 2 36 62 2 36 62 2 36 62 2 36 61 1 35 
112 142 68 112 142 68 112 142 68 111 141 67 112 142 68 112 142 68 112 142 68 111 141 67 98 124 61 17 37 28 9 30 23 8 29 24 8 29 24 8 29 24 9 30 25 8 29 22 27 20 28 66 2 39 77 2 45 75 2 45 63 3 39 56 5 36 13 28 25 9 30 25 9 30 23 8 29 24 8 29 24 27 45 45 26 100 77 27 99 77 15 57 45 10 29 27 8 29 24 9 30 25 10 31 26 11 42 34 27 99 77 27 101 78 26 100 77 26 100 77 27 99 77 26 100 77 42 60 62 62 2 38 62 2 36 61 1 37 62 2 36 66 2 39 75 2 45 75 2 45 66 2 39 62 2 36 61 1 35 62 2 38 62 2 36 71 3 44 75 2 45 71 3 44 62 2 38 62 2 36 62 2 38 62 2 36 66 2 39 75 2 45 76 3 46 64 2 39 62 2 36 63 3 39 62 2 36 62 2 38 62 2 38 62 2 36 62 2 36 62 2 36 62 2 36 62 2 36 62 2 36 61 1 35 62 2 36 61 1 35 62 2 36 62 2 36 62 2 36 62 2 36 62 2 38 73 2 44 75 2 45 73 2 44 62 2 36 62 2 36 62 2 36 62 2 36 62 2 36 61 1 35 61 1 35 62 2 36 62 2 36 62 2 36 62 2 36 62 2 36 
113 141 67 112 142 68 113 141 67 113 143 69 111 141 67 112 144 69 112 142 68 109 134 66 74 42 47 19 24 27 8 29 24 9 30 25 9 30 23 8 29 22 8 31 23 9 30 23 22 23 27 64 2 39 75 2 45 75 2 45 64 2 39 61 1 35 31 17 30 8 29 24 8 29 22 7 30 24 8 29 24 10 33 25 24 96 76 28 100 80 24 87 68 10 33 25 8 29 22 8 29 24 9 30 25 9 30 23 22 81 63 28 100 78 25 99 76 27 99 77 26 99 79 27 99 79 40 60 61 62 2 38 62 2 38 60 3 38 62 2 38 67 3 40 75 2 45 76 3 46 66 2 39 61 1 39 62 2 36 61 1 37 60 3 36 70 2 43 75 2 45 73 2 44 62 2 36 61 1 37 62 2 36 62 2 38 64 2 39 75 2 45 74 1 44 66 2 39 61 1 35 61 1 35 62 2 36 62 2 36 62 2 36 62 2 36 62 2 36 62 2 36 61 1 37 61 1 35 61 1 35 61 1 35 62 2 36 63 3 39 62 2 36 61 1 35 62 2 36 62 2 36 61 1 35 73 2 44 75 2 45 73 2 44 62 2 36 62 2 36 62 2 36 62 2 38 62 2 38 62 2 36 62 2 36 62 2 36 61 1 35 61 1 35 61 1 35 62 2 38 
111 143 68 112 144 69 112 142 68 112 144 69 112 142 68 112 142 68 111 143 68 91 84 55 61 1 35 44 10 34 9 30 23 9 30 25 8 29 24 8 29 22 8 29 22 9 30 25 16 26 25 66 2 39 75 2 45 75 2 47 63 3 39 62 2 36 58 5 35 11 27 24 9 30 23 8 29 22 9 30 25 7 30 22 16 62 49 26 98 78 26 100 77 12 48 38 8 29 22 8 29 24 9 30 25 8 31 25 14 52 39 27 99 77 27 101 78 27 99 77 26 100 77 27 99 77 42 60 62 62 2 36 62 2 38 60 3 36 62 2 36 65 3 40 74 1 44 76 3 46 66 2 39 63 3 39 62 2 36 62 2 38 59 2 35 70 2 43 75 2 45 72 1 43 62 2 36 62 2 38 61 1 35 62 2 38 64 2 39 75 2 45 75 2 45 66 2 39 61 1 35 60 0 34 61 1 35 62 2 36 62 2 36 62 2 36 62 2 36 62 2 36 60 3 36 62 2 36 62 2 36 61 4 39 62 2 36 62 2 36 62 2 36 62 2 36 62 2 36 62 2 36 62 2 36 73 2 44 75 2 45 73 2 44 61 1 37 61 1 35 62 2 36 62 2 36 62 2 36 62 2 36 62 2 36 62 2 38 62 2 36 62 2 36 62 2 36 62 2 38 
112 142 68 111 143 67 112 142 68 111 143 68 110 142 66 111 141 67 107 127 64 65 12 42 60 3 38 60 3 36 20 24 27 8 31 23 8 29 22 8 29 22 9 30 25 8 31 25 15 27 25 65 3 40 74 1 44 73 0 43 64 3 37 60 3 36 62 2 36 34 18 31 9 30 23 8 31 23 8 29 24 9 30 23 11 38 29 25 93 72 27 101 78 21 78 61 7 30 24 9 30 23 9 30 25 10 29 25 9 30 23 26 91 71 27 99 77 27 99 77 27 99 77 27 99 77 42 62 63 62 2 36 62 3 35 60 3 36 62 2 36 67 3 40 75 2 45 75 2 45 66 2 39 62 2 38 62 2 36 62 2 38 60 3 36 71 3 44 75 2 45 73 2 44 62 2 36 61 1 37 62 2 36 62 2 38 64 2 39 75 2 45 75 2 45 66 2 39 61 1 35 62 2 38 62 2 36 62 2 36 62 2 38 62 2 36 62 2 38 62 2 36 62 2 36 62 2 36 62 2 38 62 2 38 61 1 37 61 1 35 62 2 36 62 2 36 62 2 36 62 2 36 62 2 36 73 2 44 75 2 45 73 2 44 63 3 39 62 2 36 62 2 36 62 2 36 62 2 36 62 2 36 62 2 36 62 2 38 62 2 36 62 2 36 63 3 37 61 1 37 
110 142 67 110 140 66 112 142 70 112 142 70 111 141 69 110 142 67 69 48 45 63 3 37 61 1 35 60 3 38 48 13 37 8 31 25 10 31 26 8 29 22 9 30 23 8 29 22 10 29 25 61 4 37 73 2 44 74 1 44 64 3 37 62 2 38 62 2 36 56 5 36 10 26 23 9 30 23 7 30 24 8 29 22 8 29 22 18 62 49 27 99 77 27 99 77 11 41 33 8 29 22 9 30 23 9 30 25 8 29 24 15 59 44 26 99 79 27 99 77 27 99 77 27 99 77 41 61 62 61 1 35 60 3 36 62 2 36 62 2 36 65 3 40 75 2 45 75 2 45 66 2 39 62 2 38 62 2 36 62 2 36 60 3 36 70 2 43 75 2 45 73 2 44 61 1 35 62 2 38 61 1 35 61 1 37 64 2 39 75 2 45 75 2 45 66 2 39 62 2 36 62 2 38 63 3 37 63 3 39 61 1 37 62 2 38 61 1 35 62 2 38 61 1 35 60 3 36 60 3 38 61 1 35 62 2 38 62 2 36 62 2 36 62 2 36 62 2 36 62 2 36 62 2 36 73 2 44 75 2 45 73 2 44 62 2 36 62 2 36 62 2 36 62 2 38 62 2 38 62 2 36 62 2 36 62 2 36 61 1 35 62 2 36 62 2 36 62 2 38 
111 141 67 112 142 70 115 143 69 111 141 67 112 142 68 83 110 55 16 26 25 60 3 36 62 2 38 62 2 36 70 2 43 16 28 26 8 29 22 8 29 24 8 29 22 7 30 24 8 29 22 59 5 37 75 2 45 75 2 45 64 2 39 62 2 36 63 2 36 60 3 38 32 16 27 8 29 22 9 30 23 8 29 22 8 29 24 9 35 26 26 95 74 26 100 77 19 70 55 10 29 23 8 29 24 8 29 24 9 30 23 10 37 28 26 95 74 26 100 77 27 99 77 27 99 77 40 60 61 62 2 36 62 2 38 62 2 36 62 2 36 65 3 40 75 2 45 75 2 45 68 4 41 62 2 36 62 2 36 62 2 36 59 2 35 70 2 43 75 2 45 73 2 44 61 1 35 62 2 38 61 1 35 61 1 37 64 2 39 75 2 45 75 2 45 66 2 37 62 2 36 62 2 36 62 2 36 62 2 36 61 1 37 62 2 36 62 2 36 60 3 38 63 3 37 62 2 38 62 2 36 62 2 36 60 3 38 62 2 36 62 2 36 62 2 36 62 2 36 62 2 36 62 2 36 73 2 44 75 2 45 73 2 44 62 2 36 62 2 36 62 2 36 62 2 38 62 2 38 62 2 36 62 2 36 62 2 36 62 2 36 61 1 35 62 2 36 62 2 38 
113 143 69 111 141 67 112 142 70 112 142 70 105 134 67 38 31 21 8 29 22 29 17 29 62 2 36 61 1 37 73 2 44 37 19 35 9 30 23 9 30 21 9 30 23 9 30 23 8 29 24 48 10 35 75 2 45 75 2 45 63 2 36 62 2 36 60 3 36 61 1 35 55 6 35 10 29 25 8 29 22 9 30 25 10 31 26 9 30 23 20 68 54 26 98 76 27 95 74 11 34 28 9 30 25 9 29 27 9 30 23 9 30 23 18 66 52 26 98 76 27 99 79 27 99 79 40 60 61 62 2 38 62 2 38 62 2 38 61 1 37 68 2 40 75 2 45 75 2 45 66 2 39 62 2 36 62 2 36 61 1 35 60 3 36 70 2 43 75 2 45 73 2 44 62 2 36 61 1 37 62 2 36 62 2 38 64 2 39 75 2 45 75 2 45 66 2 39 61 1 35 62 2 36 62 2 36 61 1 35 62 2 38 62 2 36 61 1 35 62 2 38 61 1 37 62 2 38 62 2 36 62 2 36 62 2 36 62 2 38 62 2 36 61 1 35 62 2 36 62 2 36 61 1 35 73 2 44 75 2 45 73 2 44 61 1 37 62 2 36 62 2 36 62 2 36 62 2 36 62 2 36 62 2 36 62 2 38 62 2 36 62 2 36 62 2 36 61 1 37 
110 142 67 113 143 69 111 143 68 115 143 69 65 64 36 31 6 10 16 20 19 11 27 26 47 9 32 61 1 39 70 2 43 41 16 35 8 29 22 8 29 22 8 29 24 9 30 23 9 28 26 28 20 31 73 2 44 75 2 45 64 3 37 60 3 36 61 1 35 61 1 35 59 2 37 32 18 31 9 28 24 7 28 21 8 29 22 8 29 22 7 37 27 26 91 71 27 99 79 17 57 46 9 30 23 8 29 22 9 30 23 8 29 24 11 38 31 26 94 73 26 100 77 27 99 77 41 59 61 62 1 35 60 3 38 62 2 36 61 1 35 64 2 39 75 2 45 75 2 45 66 2 39 62 2 36 61 1 35 62 2 36 59 2 35 70 2 43 75 2 45 72 1 43 62 2 36 62 2 38 61 1 35 62 2 38 64 2 39 75 2 45 75 2 45 66 2 39 62 2 36 62 2 36 61 1 35 62 2 36 62 2 38 62 2 36 62 2 36 62 2 36 62 2 38 61 4 37 60 3 36 62 2 36 62 2 36 62 2 36 62 2 36 62 2 36 62 2 36 62 2 36 62 2 36 73 2 44 75 2 45 73 2 44 61 1 37 62 2 36 62 2 36 62 2 36 62 2 36 61 1 35 61 1 35 61 1 37 62 2 36 62 2 36 62 2 36 62 2 38 
114 142 68 112 142 70 112 142 68 89 103 52 37 13 13 32 7 10 31 9 11 13 28 25 16 24 26 57 3 35 73 2 44 46 14 37 8 29 24 7 30 22 8 29 22 9 30 23 8 31 23 10 29 25 61 7 41 77 2 45 64 2 39 60 3 38 61 1 37 62 2 40 62 2 36 59 8 41 12 29 23 9 30 23 8 29 22 8 29 22 9 29 27 20 68 54 25 99 76 23 86 67 9 32 26 9 30 21 8 31 23 8 29 22 8 29 24 21 75 62 27 99 77 29 98 77 41 59 61 61 1 35 63 3 37 63 3 37 60 3 36 66 2 39 74 1 44 75 2 45 66 2 39 62 2 36 61 1 35 61 1 35 60 3 36 70 2 43 75 2 45 73 2 44 62 2 36 61 1 37 62 2 36 62 2 38 64 2 39 75 2 45 74 1 44 66 2 39 61 1 35 61 1 35 61 1 35 61 1 35 62 2 36 62 2 36 62 2 38 62 2 36 61 4 37 62 2 36 62 2 36 60 3 38 62 2 36 62 2 36 62 2 36 62 2 36 62 2 36 62 2 36 62 2 36 73 2 44 75 2 45 73 2 44 62 2 36 62 2 36 61 1 35 61 1 37 61 1 37 62 2 36 62 2 36 62 2 36 60 0 34 61 1 35 62 2 36 62 2 38 
111 141 69 111 141 69 108 140 67 46 32 21 32 5 10 32 5 10 32 6 9 19 17 18 8 29 24 31 19 29 71 3 44 49 14 38 8 29 22 8 29 24 8 29 24 8 29 24 8 29 22 9 30 25 31 21 30 74 1 44 63 2 36 61 1 35 61 1 37 60 3 38 60 3 36 70 2 43 35 19 32 8 29 22 9 30 25 9 30 23 8 29 22 10 33 27 25 97 73 27 99 77 13 49 39 8 29 24 9 30 25 7 28 23 8 29 24 11 43 32 26 99 79 27 99 77 46 43 52 62 2 36 62 2 36 60 3 38 62 2 36 66 2 37 75 2 45 75 2 45 66 2 39 61 1 37 62 2 36 62 2 36 61 1 35 71 3 44 75 2 45 71 3 44 62 2 36 62 2 36 62 2 36 60 3 36 64 2 39 75 2 45 75 2 45 66 2 39 62 3 35 61 1 35 62 2 36 62 2 36 61 1 35 62 2 36 62 2 36 62 2 38 62 2 36 62 2 36 62 2 38 62 2 36 62 2 36 62 2 36 60 3 36 61 1 35 62 2 36 61 1 35 62 2 36 70 2 43 75 2 45 73 2 44 62 2 36 62 2 38 62 3 35 62 2 36 62 2 36 62 2 36 62 2 36 62 2 36 60 3 36 62 2 36 61 1 37 61 1 35 
111 141 67 110 142 67 70 71 37 32 5 10 32 5 10 32 5 10 32 6 9 29 9 11 9 28 24 10 29 23 57 11 40 50 12 37 9 30 23 8 29 24 8 29 22 8 29 24 8 29 24 9 30 25 8 31 25 64 7 42 64 2 39 60 3 36 62 2 36 59 2 35 62 2 36 70 2 43 64 7 40 13 28 25 8 29 22 8 29 22 9 28 24 8 29 22 18 66 52 27 99 79 22 79 62 9 32 24 8 31 25 9 30 25 8 29 24 8 29 24 22 83 65 32 86 73 57 13 40 62 2 38 61 1 37 60 3 38 60 3 36 64 2 39 74 1 44 75 2 47 66 2 39 61 1 35 61 1 35 62 2 38 62 2 36 70 2 43 75 2 45 71 3 44 61 1 35 61 1 35 62 2 36 60 3 36 64 2 39 75 2 45 75 2 45 66 2 37 62 2 36 61 1 37 62 2 36 62 2 36 62 2 38 62 2 36 62 2 36 62 2 36 62 2 38 62 2 36 62 2 36 62 2 38 62 2 38 62 3 35 60 3 36 62 2 36 62 2 36 62 2 36 61 1 35 70 2 43 74 1 44 72 1 43 62 2 36 62 2 36 62 2 38 62 2 38 62 2 36 62 2 36 62 2 36 62 2 38 61 4 37 61 1 35 61 1 35 62 2 38 
110 140 66 99 125 64 34 9 12 32 6 9 32 5 10 32 5 10 32 5 10 33 7 10 14 23 18 9 30 25 17 26 25 53 10 38 8 29 22 9 30 23 9 30 25 8 31 25 8 29 24 9 30 23 8 31 23 35 19 32 64 2 39 60 3 36 59 2 35 62 2 36 62 2 36 70 2 41 75 2 45 31 21 30 10 31 24 8 29 24 9 30 25 7 30 24 9 39 29 26 98 78 27 96 77 15 35 33 9 31 28 8 29 22 8 28 26 8 29 22 23 58 52 56 18 43 62 2 36 60 3 38 62 2 36 60 3 36 63 1 38 63 1 38 75 2 45 75 2 45 66 2 39 62 2 36 62 2 36 62 2 36 62 2 36 70 2 43 75 2 45 70 2 43 61 1 35 61 1 35 62 2 36 60 3 36 64 2 39 74 1 44 75 2 45 67 3 40 62 2 36 61 1 35 62 2 36 62 2 38 62 2 36 61 1 37 62 2 38 62 2 36 62 2 38 62 2 38 62 2 36 62 2 36 62 2 36 62 2 36 60 3 36 62 2 36 62 2 36 62 2 36 61 1 35 71 3 44 74 1 44 72 1 43 62 2 36 62 2 36 62 2 36 62 2 36 62 2 38 62 2 36 62 2 36 62 2 36 60 3 38 62 2 36 62 2 36 62 2 38 
109 140 70 46 101 70 30 20 21 32 5 10 32 6 9 32 5 10 32 7 11 32 6 9 22 16 16 8 29 20 8 29 24 23 24 28 9 30 23 8 29 24 8 29 22 9 30 25 9 28 22 9 30 23 8 29 22 10 29 27 58 4 36 62 2 36 62 2 38 62 2 36 62 2 38 72 1 43 75 2 45 54 29 50 9 32 24 9 30 25 9 30 21 9 28 24 8 29 24 19 72 56 26 98 78 43 22 37 9 30 25 8 29 24 8 29 22 10 29 25 56 6 35 62 2 38 61 1 37 62 2 36 59 2 35 61 1 35 62 2 36 64 2 39 75 2 45 74 1 44 66 2 39 62 2 38 62 2 36 62 2 36 62 2 36 71 3 44 75 2 45 71 3 44 61 1 35 61 1 35 62 2 36 60 3 36 64 2 39 75 2 45 75 2 45 66 2 39 62 2 36 61 1 35 62 2 36 62 2 36 62 2 38 61 1 35 62 2 36 62 2 38 62 2 36 62 2 36 62 2 38 62 2 36 62 3 35 62 2 38 60 3 36 62 2 36 62 2 36 62 2 36 62 2 36 71 3 44 75 2 45 73 2 44 62 2 38 62 2 36 62 2 36 62 2 36 62 2 38 62 2 36 62 2 38 62 2 36 60 3 38 62 2 36 62 2 38 62 2 38 
74 118 69 24 87 70 28 48 39 32 6 9 32 6 9 31 6 10 33 6 11 29 7 10 31 9 12 8 27 21 9 28 24 9 30 23 9 30 25 8 29 22 9 28 24 8 29 24 7 30 24 8 29 24 8 31 23 7 28 23 31 19 31 62 2 36 62 2 38 60 3 38 62 2 36 70 2 43 75 2 45 58 36 57 15 55 44 9 28 22 8 29 24 8 29 22 7 28 23 11 38 31 27 96 75 58 13 42 45 10 32 24 22 27 26 21 28 52 6 34 61 1 37 61 1 35 59 2 35 62 2 38 59 2 35 62 2 36 62 2 38 64 2 39 75 2 45 74 1 44 66 2 39 62 2 36 62 2 38 61 1 35 61 1 35 70 2 43 75 2 45 71 3 44 62 2 36 62 2 36 62 2 36 60 3 36 64 2 39 75 2 45 75 2 45 66 2 37 62 2 38 61 1 35 62 2 36 62 2 38 62 2 36 62 2 36 62 2 36 62 2 38 62 2 36 62 2 36 62 2 36 62 2 36 62 2 38 62 3 35 60 3 36 62 2 36 62 2 36 62 2 36 62 2 36 70 2 43 75 2 45 72 1 43 62 2 36 62 2 38 62 2 40 62 2 36 62 2 36 62 2 36 62 2 36 62 2 38 59 2 35 62 2 38 61 1 35 61 1 35 
26 89 68 24 87 68 24 75 60 32 5 10 33 7 10 33 7 10 32 5 10 32 6 9 33 7 10 13 26 19 8 29 24 8 29 22 9 30 25 8 29 22 9 30 23 8 29 22 8 29 22 9 28 24 8 29 24 8 29 24 13 27 27 53 7 36 61 1 35 60 3 36 60 3 36 71 3 44 75 2 45 58 37 56 23 84 68 10 31 24 8 29 24 9 30 23 9 30 23 8 29 24 19 71 58 58 13 42 62 2 38 62 2 38 61 1 37 61 1 37 62 2 36 62 2 36 60 3 38 62 2 36 61 1 35 61 1 37 60 3 36 66 2 39 74 1 44 75 2 45 66 2 39 61 1 35 62 2 36 62 2 36 62 2 36 70 2 43 75 2 45 71 3 44 62 2 36 61 1 35 62 2 36 60 3 36 64 2 39 76 3 46 75 2 45 66 2 39 62 2 36 62 2 36 62 2 36 61 1 35 62 2 36 62 2 36 62 2 38 62 2 36 62 2 38 62 2 36 62 2 36 62 2 38 62 3 35 62 2 36 60 3 36 61 1 35 62 2 36 61 1 35 61 1 35 70 2 43 74 1 44 72 1 43 62 2 36 62 2 36 62 2 40 62 2 36 62 2 36 62 2 36 62 2 36 62 2 36 61 4 37 62 2 36 62 2 36 61 1 35 
25 88 69 25 88 69 23 88 68 29 17 17 31 6 10 33 7 10 32 5 10 32 5 10 33 7 10 20 19 17 10 31 26 8 29 24 8 29 22 8 29 22 9 28 22 8 29 24 9 30 23 9 28 24 8 29 22 8 29 22 8 29 22 33 17 30 62 2 36 62 2 36 62 2 36 70 2 43 74 1 44 56 37 56 28 97 76 16 54 43 8 29 22 8 29 24 8 29 22 8 29 24 10 40 30 56 10 39 61 1 35 62 2 38 61 1 37 62 2 36 62 2 36 60 3 38 60 3 38 61 2 34 61 1 35 61 1 37 60 3 36 64 2 39 75 2 45 75 2 45 66 1 41 62 2 36 62 2 36 62 2 36 62 2 38 70 2 43 75 2 45 71 3 44 62 2 36 62 2 36 62 2 36 60 3 36 64 2 39 75 2 45 75 2 45 66 2 39 62 2 36 62 2 36 62 2 36 61 1 35 62 2 38 62 2 36 62 2 38 62 2 36 62 2 36 62 2 38 62 2 36 62 2 36 62 2 36 62 2 38 60 3 36 61 1 35 62 2 36 61 1 35 61 1 35 71 3 44 74 1 44 72 1 43 62 2 36 62 2 38 62 2 36 62 2 36 62 2 38 62 2 36 62 2 38 62 3 35 60 3 36 61 1 35 62 2 38 63 3 37 
24 87 70 25 88 67 24 88 71 29 44 39 32 5 10 32 7 10 33 6 11 31 6 9 32 5 10 24 12 12 10 29 23 8 29 22 9 30 23 8 29 24 8 29 22 8 29 24 8 29 22 9 30 23 9 30 23 8 29 22 7 30 22 11 27 24 56 6 35 60 3 38 60 3 36 70 2 41 77 2 45 57 36 55 26 100 77 22 83 65 10 31 26 8 29 24 9 30 23 9 28 22 8 29 22 40 13 30 62 2 38 59 2 35 62 2 36 59 2 35 62 2 38 62 2 36 59 2 37 60 3 36 62 2 36 61 1 37 61 1 35 64 2 39 74 1 44 75 2 45 66 2 39 62 2 36 62 2 38 63 3 37 61 1 35 70 2 43 75 2 45 71 3 44 62 2 36 62 2 36 62 2 36 60 3 36 64 2 39 76 3 46 75 2 45 66 2 39 62 2 36 62 2 36 62 2 36 61 1 37 62 2 38 62 2 36 62 2 38 62 2 38 62 2 36 62 2 36 62 2 36 62 2 36 62 2 36 62 2 36 60 3 36 62 2 36 62 2 36 62 2 36 62 2 36 70 2 43 75 2 45 73 2 44 62 2 36 62 2 36 62 2 36 62 2 38 62 3 33 62 2 38 62 3 35 62 2 38 59 2 35 61 1 35 62 2 36 62 2 38 
24 89 69 24 87 70 24 87 68 25 65 54 32 5 10 32 7 10 31 6 10 33 6 11 32 6 9 31 9 11 12 27 22 8 31 23 8 29 22 9 30 23 8 29 24 8 29 24 8 29 24 9 30 21 9 28 22 9 30 23 7 28 23 10 29 23 38 13 32 61 1 35 62 2 36 70 2 43 75 2 45 56 37 57 27 99 77 26 98 76 16 49 40 7 28 23 8 29 24 8 29 22 8 29 22 13 28 25 59 4 36 60 3 36 62 2 38 61 1 35 62 2 36 62 2 36 62 2 36 62 2 38 62 2 36 62 2 36 61 1 35 66 4 41 74 1 44 75 2 45 64 2 39 61 4 37 61 1 35 59 2 35 62 2 36 70 2 43 75 2 45 71 3 44 62 2 36 62 2 36 61 1 35 59 2 35 64 2 39 75 2 45 75 2 45 64 2 39 61 1 35 62 2 36 61 1 35 59 2 35 61 1 35 62 2 36 62 2 36 61 1 35 61 1 35 61 1 35 61 1 35 62 2 36 62 2 36 62 2 36 58 3 35 62 2 36 59 2 35 62 1 35 62 2 36 70 2 43 75 2 45 71 3 44 61 1 37 62 2 36 62 2 36 62 2 36 62 2 36 61 1 35 62 2 36 62 2 38 62 2 36 62 2 38 62 2 36 62 2 38 
24 88 71 25 86 70 24 87 68 24 81 64 32 12 14 32 6 9 32 6 9 32 5 10 32 6 9 32 5 10 16 22 18 8 29 22 8 29 22 8 29 24 8 29 22 9 30 25 9 30 21 9 28 24 8 29 22 9 28 22 8 29 24 8 29 24 13 28 25 59 4 36 62 2 36 73 2 44 75 2 45 59 38 57 27 99 77 27 99 77 24 83 65 10 33 25 9 30 23 8 29 22 8 29 22 8 29 24 38 14 30 59 2 37 60 3 36 59 2 35 62 2 36 62 2 36 62 2 36 62 2 38 62 2 36 62 2 36 61 1 35 65 3 40 74 3 45 75 2 45 64 2 41 62 2 36 61 1 37 60 3 36 62 2 36 71 3 44 75 2 45 70 2 43 62 2 36 62 2 36 62 2 36 60 3 36 64 2 39 75 2 45 75 2 45 64 2 39 62 2 36 62 2 36 61 1 35 59 2 35 61 1 35 62 2 36 62 2 36 62 2 38 62 2 36 62 2 38 62 2 36 62 2 38 62 2 36 62 2 38 60 3 36 61 1 35 60 3 36 61 1 35 61 1 35 71 3 44 74 1 44 71 3 44 61 1 37 61 1 37 61 1 35 62 2 36 62 2 36 62 2 36 61 1 37 62 2 38 62 2 36 62 2 38 61 1 35 62 2 38 
23 86 69 25 88 69 24 87 68 24 85 67 30 29 27 32 7 10 32 6 9 31 6 10 32 6 9 33 7 10 33 14 20 16 26 27 8 29 24 8 29 22 8 29 24 8 29 24 8 29 22 8 29 24 8 29 24 8 31 21 8 29 24 8 29 24 8 29 22 37 14 30 60 3 36 70 2 43 75 2 45 56 37 56 28 97 76 26 98 78 26 98 76 16 52 40 8 29 20 8 29 24 8 29 22 7 30 22 14 26 26 60 3 38 62 2 36 62 2 36 62 2 36 62 2 36 62 2 36 62 2 38 62 2 36 62 2 36 62 2 36 65 3 40 74 1 44 74 1 44 64 2 39 60 3 36 61 1 35 60 3 36 61 1 37 70 2 43 75 2 45 70 2 43 61 1 35 61 1 35 61 1 35 60 3 36 64 2 39 75 2 45 75 2 45 64 2 39 61 1 35 61 1 35 62 2 36 60 3 36 61 1 35 62 2 36 60 0 34 61 1 35 62 2 36 62 2 36 62 2 36 61 1 35 61 1 35 61 1 35 60 3 36 62 2 36 60 3 36 61 1 35 61 1 35 71 3 44 74 1 44 71 3 44 62 2 36 62 2 38 62 2 36 61 1 35 62 2 36 62 2 36 62 2 38 61 1 35 61 1 35 61 1 35 62 2 36 62 2 38 
24 87 70 23 88 68 25 88 69 24 87 68 27 47 38 31 6 9 32 6 9 32 5 10 31 6 10 32 5 10 41 5 17 69 5 42 16 26 25 8 29 24 8 31 25 8 29 24 7 30 24 8 29 24 8 29 22 8 29 22 8 29 22 8 29 24 8 29 24 15 27 25 59 4 35 70 2 43 73 2 44 59 35 57 26 100 77 26 98 78 28 100 78 24 89 69 10 33 27 9 28 24 9 28 22 9 30 23 8 29 24 36 15 30 60 3 36 61 1 35 62 2 36 62 2 36 62 2 36 62 2 38 62 2 36 62 2 36 62 2 36 64 2 39 74 3 45 74 1 44 64 2 39 62 2 36 62 2 36 60 3 36 61 2 34 70 2 43 75 2 45 70 2 43 61 1 35 62 2 36 62 2 36 59 2 35 64 2 39 75 2 45 75 2 45 64 2 39 62 2 36 62 2 36 61 1 35 59 2 35 61 1 35 62 2 36 62 2 36 62 2 36 62 2 36 62 2 36 61 1 35 61 1 35 62 2 36 62 2 36 60 3 36 62 2 36 60 3 36 62 2 36 62 2 36 70 2 43 74 1 44 70 2 43 61 1 35 61 1 35 60 0 34 61 1 35 62 2 36 62 2 36 62 2 36 62 2 36 62 2 36 62 2 36 62 2 36 63 3 37 
24 88 71 23 88 68 24 87 68 24 87 68 26 64 51 32 5 10 32 6 9 32 6 9 33 7 10 32 6 9 33 6 11 72 4 45 17 26 25 6 29 21 8 29 22 9 30 23 7 30 22 8 29 24 7 28 21 10 29 23 8 29 24 9 28 24 8 29 24 9 30 23 41 14 31 70 2 43 75 2 45 57 35 56 26 98 76 27 99 79 26 98 76 25 99 76 16 56 45 9 30 25 8 29 22 6 32 23 6 29 23 15 25 26 58 5 35 59 2 37 62 2 36 62 2 36 62 2 36 62 2 38 62 2 36 62 2 36 62 2 36 64 2 39 75 2 45 75 2 45 64 2 39 60 3 38 62 2 36 59 2 37 62 2 38 71 3 44 75 2 45 70 2 43 61 1 35 62 2 36 62 2 36 59 2 35 64 2 39 75 2 45 75 2 45 64 2 39 62 2 36 62 2 36 61 1 35 59 2 35 61 1 35 62 2 36 62 2 36 62 2 36 62 2 36 62 2 36 61 1 35 61 1 35 62 2 36 62 2 36 62 2 36 62 2 36 60 3 36 60 3 36 62 2 36 70 2 43 74 1 44 70 2 43 62 2 36 62 2 36 62 2 36 61 1 35 61 1 35 61 1 35 61 1 35 62 2 36 61 1 35 61 1 35 61 1 35 62 2 36 
23 88 68 24 87 68 25 88 69 25 86 68 26 81 62 33 8 12 32 6 9 31 6 10 32 6 9 32 5 10 32 5 10 69 3 41 24 23 28 9 30 23 8 29 22 8 29 22 7 30 22 8 29 22 8 29 24 18 26 28 9 30 25 7 30 24 7 30 22 8 29 24 16 25 24 70 2 41 75 4 46 58 37 56 26 98 74 26 98 78 26 99 79 27 99 77 25 90 70 9 30 23 8 29 22 8 29 24 8 29 24 8 29 24 36 15 30 62 2 38 62 2 36 62 2 36 61 1 35 62 2 38 62 2 36 61 1 35 62 2 36 64 2 39 73 2 44 75 2 45 64 2 39 62 2 36 62 2 36 59 2 35 62 2 36 70 2 43 75 2 45 70 2 43 61 1 35 61 1 35 61 1 35 60 3 36 64 2 39 75 2 45 75 2 45 64 2 39 61 1 35 61 1 35 62 2 36 60 3 36 61 1 35 62 2 36 60 0 34 61 1 35 62 2 36 62 2 36 62 2 36 61 1 35 61 1 35 61 1 35 62 2 36 62 2 36 60 3 36 59 2 35 61 1 35 71 3 44 74 1 44 71 3 44 61 1 37 61 1 35 61 1 35 61 1 35 61 1 35 62 2 36 62 2 36 62 2 38 61 1 35 61 1 35 61 1 35 61 1 35 
25 88 69 24 87 68 24 89 69 24 89 69 24 85 67 31 15 16 32 5 10 33 6 11 32 6 9 32 5 10 31 6 10 67 3 37 28 21 29 8 29 22 10 31 24 8 29 22 8 29 24 8 29 22 7 30 24 33 19 32 9 30 25 8 29 24 8 29 22 8 29 24 9 28 22 48 13 35 75 2 45 56 37 56 26 98 74 26 98 78 26 98 78 26 98 74 25 99 76 16 56 45 7 30 22 8 29 22 8 29 24 8 29 24 12 26 26 56 6 35 61 1 35 62 2 36 61 1 35 62 2 38 61 1 35 61 1 35 62 2 36 64 2 39 75 2 45 74 2 42 64 2 39 59 2 37 62 2 36 60 3 36 62 2 36 69 1 42 75 2 45 70 2 43 62 2 36 62 2 36 62 2 36 60 3 36 64 2 39 75 2 45 75 2 45 64 2 39 62 2 36 62 2 36 61 1 35 59 2 35 61 1 35 62 2 36 62 2 38 62 2 36 62 2 38 62 2 36 62 2 38 62 2 36 62 2 38 62 2 36 62 2 36 61 1 35 60 3 36 59 2 35 61 1 35 71 3 44 74 1 44 71 3 44 62 2 36 62 2 36 61 1 35 62 2 36 62 2 36 62 2 36 62 2 36 62 2 36 62 2 36 61 1 35 61 1 37 61 1 35 
23 86 67 24 87 68 25 86 68 24 87 68 24 87 68 31 27 24 31 6 10 32 5 12 33 6 11 32 5 10 33 6 11 59 4 33 31 19 29 8 29 24 8 29 22 8 29 22 8 29 24 9 28 24 8 27 21 41 16 35 23 22 28 9 28 22 9 28 22 8 29 22 9 30 25 21 25 28 71 3 44 58 37 56 26 98 76 27 99 79 26 97 79 26 98 76 27 99 77 23 85 70 10 33 25 7 30 22 8 29 22 9 30 25 9 30 23 36 15 32 61 1 35 62 2 36 61 1 35 62 2 38 61 1 35 61 1 35 62 2 36 64 2 39 74 3 45 74 1 44 65 3 40 61 1 37 62 3 35 60 3 38 62 2 36 70 2 43 75 2 45 71 3 44 62 2 36 62 2 36 61 1 35 59 2 35 64 2 39 75 2 45 75 2 45 64 2 39 61 1 35 62 2 36 61 1 35 59 2 35 61 1 35 62 2 36 62 2 36 61 1 35 61 1 35 61 1 35 61 1 35 62 2 36 62 2 36 62 2 36 62 1 35 62 2 36 59 2 35 59 2 35 62 2 36 70 2 43 75 2 45 71 3 44 61 1 35 61 1 35 62 2 36 62 2 36 62 2 36 62 2 36 62 2 36 62 2 36 61 1 35 61 1 35 61 1 37 62 2 36 
25 86 68 24 89 69 25 90 70 25 88 69 24 87 68 30 39 34 32 6 9 32 5 10 32 5 10 31 6 10 32 6 9 52 5 25 34 18 31 8 29 24 8 29 24 8 29 22 7 27 25 8 29 24 8 29 22 36 20 33 52 9 36 8 29 24 7 28 21 8 29 22 8 29 24 8 29 24 54 11 38 56 37 56 26 98 76 26 98 76 27 99 77 26 98 78 26 98 78 27 99 77 16 58 44 8 29 24 9 30 25 9 30 25 8 29 24 8 29 22 53 7 36 59 2 37 60 3 36 62 2 38 61 1 35 63 2 36 62 2 36 66 2 39 75 2 45 75 2 45 64 2 39 62 2 36 62 2 36 62 2 36 62 2 36 70 2 41 75 2 45 70 2 43 61 1 35 62 2 36 62 2 36 61 1 35 64 2 39 75 2 45 73 2 44 66 2 39 59 2 35 62 1 35 61 1 35 61 1 35 60 0 34 62 2 36 62 2 36 61 1 35 62 2 36 61 1 35 61 1 35 62 2 36 61 1 35 62 2 36 61 1 35 62 2 38 62 2 36 62 2 36 61 1 35 71 3 44 74 1 44 70 2 43 60 3 36 62 2 36 60 3 36 62 2 36 60 3 36 61 1 35 59 2 35 62 2 36 59 2 35 62 2 36 62 2 36 60 3 36 
24 87 68 24 87 68 24 87 68 23 88 68 24 87 68 29 52 42 32 6 9 32 5 10 32 7 11 31 6 10 32 5 10 48 5 24 37 19 33 8 29 24 8 29 22 8 29 22 8 29 22 8 29 22 8 29 22 23 24 28 62 2 38 20 21 25 8 28 26 8 29 24 8 31 23 8 29 24 26 23 30 55 38 54 27 99 79 27 99 79 26 98 76 27 99 77 26 98 76 27 99 79 23 90 72 11 34 26 8 29 24 8 29 24 8 27 23 7 30 22 40 13 30 61 4 37 61 1 35 62 2 36 60 3 36 61 1 35 62 2 36 64 2 39 73 2 44 75 2 45 64 2 39 59 2 35 62 2 36 60 3 36 59 2 35 70 2 41 75 2 45 70 2 43 60 3 36 62 2 36 59 2 35 59 2 35 64 2 39 73 2 44 74 3 45 64 2 39 60 3 36 60 3 36 61 1 35 62 2 36 62 2 36 62 2 36 61 1 35 62 2 36 61 1 35 62 2 36 62 2 36 61 1 35 62 2 36 61 1 35 62 2 36 62 2 36 62 2 36 62 2 36 61 1 35 70 2 43 73 0 43 71 3 44 59 2 35 61 1 35 59 2 35 59 2 35 62 2 36 62 2 36 60 3 36 62 2 36 60 2 40 59 2 35 62 2 38 60 3 36 
24 89 69 23 88 68 24 87 68 24 87 68 24 87 68 26 58 47 32 7 11 31 6 10 31 6 10 32 5 10 32 5 10 43 5 20 39 16 34 8 29 22 8 29 22 8 29 22 8 29 24 8 29 22 8 29 22 13 30 24 64 2 39 44 11 32 8 29 24 8 29 22 7 28 21 7 30 24 9 28 24 41 44 51 26 98 78 26 98 76 26 98 76 25 97 75 26 98 76 26 100 77 26 98 76 28 29 34 8 31 25 7 28 21 8 31 23 10 29 25 47 9 32 59 2 37 60 3 36 59 2 35 61 1 37 59 2 37 59 2 35 64 2 39 74 1 44 74 3 45 63 1 38 59 2 35 60 3 36 60 3 36 61 1 35 69 3 41 73 2 44 70 2 43 60 3 36 61 1 35 59 2 35 60 3 36 64 2 39 74 3 45 73 2 44 64 2 39 59 2 35 60 3 36 60 3 36 59 2 35 59 2 35 58 1 34 62 2 36 61 1 35 62 2 36 62 2 36 62 2 36 62 2 36 61 1 35 62 2 36 62 2 36 61 1 35 62 2 36 60 0 34 61 1 35 70 2 43 75 2 45 71 3 44 59 2 35 61 1 35 59 2 35 61 1 35 59 2 35 61 1 35 59 2 35 61 1 35 59 2 35 62 2 36 60 3 36 61 1 35 
24 87 68 25 88 69 23 88 68 24 87 68 24 87 68 26 64 51 32 5 10 33 6 11 32 5 10 32 5 10 32 5 10 40 7 18 44 15 35 8 29 22 8 29 20 9 28 22 9 30 25 8 29 24 9 28 24 8 29 24 59 4 36 58 3 35 17 26 25 8 29 24 9 28 24 9 30 25 8 29 24 17 42 38 26 100 77 26 98 76 27 99 77 28 100 78 27 99 77 26 98 76 26 98 76 55 15 41 20 24 27 8 29 24 9 30 25 29 19 28 61 1 35 59 2 35 62 3 35 59 2 37 61 1 35 59 2 35 61 2 34 64 2 39 72 1 43 75 2 45 64 2 39 59 2 35 61 1 35 60 0 34 59 2 35 70 2 41 74 3 45 70 2 43 59 2 35 61 1 35 60 3 36 59 2 35 62 0 37 73 2 44 75 2 45 64 2 39 61 1 35 60 3 36 62 2 36 61 1 35 59 2 35 59 2 35 61 1 35 62 2 36 61 1 35 62 2 36 62 2 36 61 1 35 62 2 36 61 1 35 63 3 39 60 3 38 62 1 35 61 1 35 61 1 35 70 2 41 75 2 45 71 3 44 62 2 36 59 2 35 59 2 35 62 2 36 59 2 35 61 1 35 61 1 35 59 2 35 62 2 36 59 2 35 61 1 35 59 2 35 
24 87 68 25 86 68 23 88 68 25 86 68 24 87 68 25 71 58 32 5 10 31 6 10 33 6 11 31 6 10 32 5 10 37 6 14 48 13 37 9 30 23 8 29 22 10 29 23 8 29 22 8 29 24 8 29 24 8 29 24 53 7 35 59 2 35 37 14 30 8 29 22 8 29 24 10 29 25 9 30 23 8 29 24 24 89 69 26 98 76 26 98 76 27 99 77 26 98 78 25 99 76 28 97 76 57 14 41 58 3 35 52 6 34 51 7 34 60 3 35 60 0 34 60 3 36 61 1 37 60 3 36 61 1 35 59 2 35 59 2 37 64 2 39 75 2 45 75 2 45 63 1 38 62 1 35 62 2 36 60 3 36 62 2 36 68 2 40 73 2 44 71 3 44 60 3 36 62 2 36 59 2 35 59 2 35 64 2 39 73 2 44 75 2 45 64 2 39 63 3 37 60 3 36 60 3 36 62 2 36 60 3 36 61 1 35 59 2 35 59 2 35 59 2 35 59 2 35 59 2 35 59 2 35 59 2 35 59 2 35 62 2 36 59 2 35 62 2 36 61 1 35 59 2 35 70 2 43 75 2 45 71 3 44 62 2 36 59 2 35 59 2 35 62 2 36 60 3 36 62 2 36 62 2 36 60 3 36 59 2 37 61 1 35 60 3 36 61 1 35 
24 87 68 24 87 68 24 87 68 24 87 68 24 87 68 24 75 60 32 5 10 33 6 11 32 5 10 31 6 10 32 6 7 35 5 13 53 10 37 8 29 22 8 29 24 8 29 22 8 29 24 8 29 24 8 29 24 8 29 22 44 12 33 60 3 36 59 2 35 12 29 23 8 29 22 8 29 24 8 29 24 9 28 22 16 53 45 26 98 76 25 98 78 25 99 76 26 98 76 24 98 73 28 97 76 57 14 41 62 2 36 59 2 34 62 2 36 61 1 35 61 1 35 59 2 35 60 3 36 59 2 35 59 2 35 59 2 35 59 2 35 64 2 39 73 2 44 75 2 45 64 2 39 60 3 36 61 1 35 62 1 35 60 3 36 70 2 41 73 2 44 70 2 43 59 2 35 61 1 35 59 2 35 60 3 36 65 3 40 73 2 44 74 1 44 66 2 39 62 2 36 62 2 36 62 2 36 61 1 35 61 1 35 60 0 34 60 3 36 59 2 35 60 3 36 60 3 36 60 3 36 60 3 36 59 2 35 60 3 36 62 2 36 59 4 36 62 2 36 59 2 35 59 2 35 70 2 43 74 1 44 70 2 43 60 3 36 62 2 36 60 3 36 62 2 36 60 3 36 62 2 36 60 3 36 62 2 36 59 2 35 59 2 35 62 2 36 60 3 36 
24 87 68 22 87 67 24 87 68 23 88 68 24 87 68 25 79 63 33 6 11 33 6 11 33 6 11 32 6 9 33 7 10 35 6 11 57 8 37 8 29 24 8 29 24 9 30 23 8 29 24 7 28 21 8 29 24 8 29 24 33 17 30 61 1 35 59 2 35 36 15 32 9 30 23 9 30 25 7 30 22 8 29 24 10 35 29 24 89 69 27 99 77 25 98 78 26 98 76 26 100 77 28 97 76 57 14 41 60 3 36 61 1 35 61 1 35 59 2 35 60 3 36 61 1 35 62 2 38 62 2 36 61 1 35 62 2 36 60 3 36 64 2 39 75 2 45 75 2 45 64 2 39 61 1 35 62 2 36 60 3 36 62 2 36 70 2 41 75 2 45 71 3 44 61 4 37 61 1 35 59 2 35 60 3 36 64 2 39 73 2 44 73 2 44 63 3 39 59 2 35 59 2 35 61 1 35 61 1 35 61 1 35 63 3 37 60 3 36 60 3 36 60 3 36 60 3 36 60 3 36 60 3 36 60 3 36 60 3 36 62 2 38 59 2 37 60 3 36 59 2 35 60 3 36 71 3 42 74 1 44 71 3 44 60 3 36 62 2 36 60 3 36 60 3 36 62 2 36 61 1 35 59 2 35 61 1 35 59 2 35 62 2 36 59 2 34 59 2 35 
24 87 68 24 87 68 24 87 68 24 87 68 23 88 68 24 82 67 32 7 11 32 5 10 33 6 11 32 6 9 32 6 9 35 6 11 59 6 36 9 30 25 8 29 24 9 30 23 8 29 22 8 29 22 7 30 24 8 29 22 26 21 27 62 2 36 59 2 35 56 6 35 11 27 24 8 29 22 8 29 22 8 29 22 8 29 24 16 60 47 28 97 76 26 98 76 29 98 77 26 98 78 26 98 74 56 13 40 61 1 37 61 1 35 60 3 36 62 2 36 59 2 37 62 2 36 60 3 38 61 1 35 62 2 38 61 1 37 63 1 38 64 2 39 74 1 44 75 2 45 64 2 39 59 2 35 62 2 36 62 2 36 61 1 35 72 1 41 75 2 45 70 2 43 61 1 35 62 2 36 62 2 36 61 1 35 64 2 39 75 2 45 73 2 44 67 3 40 58 3 35 60 3 36 59 2 35 59 2 35 62 2 36 62 2 36 59 2 35 59 2 35 59 2 35 59 2 35 59 2 35 59 2 35 59 2 35 59 2 35 61 1 35 59 2 35 60 3 36 58 3 35 60 3 36 70 2 43 74 3 45 71 3 44 59 2 35 61 1 35 59 2 35 61 1 35 59 2 35 61 1 35 59 2 35 62 2 36 59 2 35 61 1 35 62 2 36 59 2 35 
24 87 68 24 87 68 24 87 68 24 87 68 23 86 67 24 87 70 32 5 10 32 5 10 31 6 9 32 5 10 31 6 10 33 6 11 59 5 37 11 27 24 7 28 21 8 29 22 9 29 27 8 29 24 8 29 22 8 29 22 21 22 26 59 2 35 59 2 35 61 1 35 32 16 29 8 29 22 9 28 22 8 29 22 9 30 23 9 35 26 24 92 71 26 98 78 25 99 76 26 98 76 26 98 76 56 13 40 59 2 35 62 1 35 62 2 36 61 1 35 60 3 36 59 2 35 59 2 35 60 3 36 59 2 35 60 3 36 61 1 35 64 2 39 75 4 46 75 2 45 64 2 39 59 2 35 60 3 36 62 2 36 60 3 36 70 2 43 74 1 44 70 2 41 59 2 35 59 2 35 59 2 35 59 2 35 64 3 37 73 2 42 75 2 45 64 2 39 62 2 36 60 3 36 60 3 36 59 2 37 61 1 35 60 3 36 59 2 35 61 1 35 61 1 35 60 3 36 60 3 36 60 3 36 58 1 34 61 1 35 60 3 36 60 3 36 59 2 37 60 3 36 59 2 35 71 3 42 74 1 44 70 2 43 61 1 35 59 2 35 59 2 35 60 3 36 59 2 35 59 2 35 59 2 35 59 2 35 59 2 35 59 2 35 59 2 35 59 2 35 
24 87 68 24 87 68 24 87 68 25 88 69 24 87 68 24 87 70 32 5 10 32 5 10 31 6 10 32 7 11 32 5 10 32 5 10 59 4 35 12 28 25 7 28 21 8 29 24 7 30 24 8 29 24 8 29 22 8 29 22 15 25 26 59 2 35 60 3 36 62 2 36 53 7 35 9 28 24 8 29 22 8 29 24 8 29 24 8 29 20 17 65 49 28 97 76 26 98 76 26 98 76 26 98 76 56 13 40 59 2 35 58 3 35 59 2 35 60 3 36 60 3 36 59 2 35 61 1 35 62 2 36 61 1 35 62 2 36 61 1 35 64 2 39 76 3 46 75 2 45 64 2 39 59 2 35 60 3 36 59 2 35 60 3 36 70 2 43 74 1 44 70 2 43 61 1 35 59 2 35 59 2 35 59 2 35 64 2 39 74 1 44 74 1 44 64 2 39 59 2 35 62 2 36 59 2 35 62 2 36 61 1 35 60 3 36 59 2 35 59 2 35 62 2 36 62 2 36 58 3 35 59 2 35 62 2 36 59 2 35 59 2 35 59 2 35 60 3 38 60 3 36 59 2 35 70 2 41 74 1 44 72 4 45 59 2 35 59 2 35 59 2 35 59 2 35 59 2 35 59 2 35 59 2 35 61 1 35 59 2 35 60 3 36 61 4 37 60 3 36 
