P3
100 50
255
98 28 30 99 27 30 98 26 29 100 25 29 97 25 28 98 26 29 97 27 29 97 27 29 99 27 30 97 27 29 98 28 30 98 28 30 96 26 28 97 25 28 98 26 29 97 27 29 97 27 29 98 26 29 98 28 30 97 25 28 97 27 29 97 27 29 98 26 29 96 26 28 97 27 29 97 27 29 97 27 27 97 27 29 97 27 29 98 28 28 97 27 29 97 27 29 98 26 27 98 26 29 97 27 29 97 27 27 97 27 27 99 27 30 96 26 28 97 27 27 98 28 30 97 27 29 97 27 29 97 27 29 97 27 29 97 27 29 97 27 29 97 27 29 97 27 29 97 27 29 97 27 29 97 27 29 96 49 21 96 71 14 97 72 15 97 72 15 96 71 14 97 50 22 97 27 29 97 27 29 96 26 28 97 27 29 97 27 29 97 27 29 97 27 27 98 26 29 97 29 26 95 63 16 98 72 15 96 71 14 97 72 15 97 42 22 98 28 28 98 41 24 96 38 24 97 27 27 97 60 18 97 73 13 97 72 15 96 71 14 94 72 14 97 38 24 97 27 27 98 28 30 97 27 29 98 26 29 197 168 170 254 254 254 255 255 255 255 255 255 255 255 255 255 255 255 255 255 255 255 255 255 255 255 255 255 255 255 255 255 255 255 255 255 255 255 255 255 255 255 
97 27 29 96 26 28 97 27 29 99 27 30 96 26 28 97 27 29 98 28 30 97 27 29 96 28 29 97 27 29 99 27 30 98 28 30 97 27 29 97 27 29 97 27 29 96 26 28 99 27 30 96 26 28 97 27 29 98 26 29 97 27 29 98 26 29 98 26 29 98 28 30 97 27 29 98 28 30 98 28 30 96 26 28 97 27 29 97 27 29 97 27 29 97 27 29 98 26 29 98 26 27 97 27 27 96 26 28 97 27 29 97 27 27 97 27 27 98 28 30 98 28 30 98 26 29 98 28 30 96 26 28 97 27 29 97 27 29 97 27 29 97 27 29 97 27 29 97 27 29 97 27 29 96 26 28 96 49 21 97 72 15 97 72 15 97 72 15 97 72 15 96 49 21 98 28 30 98 28 30 96 26 28 97 27 29 98 28 30 98 26 29 98 26 29 99 27 30 98 35 26 95 70 13 97 72 15 97 73 13 94 72 15 96 62 16 98 61 17 97 72 15 96 71 14 98 64 18 97 63 17 97 73 13 96 71 14 96 71 14 97 72 16 97 38 24 98 26 29 98 28 28 98 27 31 157 113 114 255 255 255 255 255 255 255 255 255 255 255 255 255 255 255 255 255 255 255 255 255 255 255 255 255 255 255 255 255 255 255 255 255 255 255 255 255 255 255 255 255 255 
98 26 29 97 27 29 98 26 29 101 26 30 99 27 30 97 27 29 98 26 29 98 28 30 99 27 30 97 27 29 98 26 29 97 27 29 98 26 29 98 26 29 97 27 29 96 26 28 97 27 29 98 28 30 98 26 29 97 27 29 98 28 30 97 27 29 97 27 29 96 26 28 97 27 29 97 27 29 97 27 29 97 27 29 97 27 29 98 28 30 98 28 30 96 26 28 98 28 28 97 27 29 98 26 29 98 26 27 98 26 27 97 27 29 96 26 28 98 28 28 97 27 29 98 28 30 97 27 29 97 27 29 97 27 29 97 27 29 98 26 29 97 27 29 97 27 29 97 27 29 97 27 29 97 27 29 96 49 21 97 72 15 98 73 16 97 72 15 97 72 15 97 50 22 97 27 29 97 27 29 97 27 29 97 27 29 96 26 28 99 27 30 96 26 26 98 28 28 99 37 26 97 73 13 97 72 15 97 73 13 97 72 15 96 69 14 98 72 15 96 71 14 98 73 16 97 71 14 96 70 13 96 71 14 97 72 15 97 72 15 97 73 13 96 38 24 97 25 26 97 27 29 117 56 55 235 227 225 255 255 255 255 255 255 255 255 255 255 255 255 255 255 255 255 255 255 255 255 255 255 255 255 255 255 255 255 255 255 255 255 255 255 255 255 255 255 255 255 255 255 
97 27 29 97 27 29 97 27 29 97 27 29 95 27 28 97 27 29 97 27 29 96 26 28 97 27 29 98 26 29 97 25 28 97 27 29 98 28 30 97 27 29 96 26 28 98 26 29 98 26 29 96 26 28 97 27 29 97 27 29 98 26 29 96 26 28 97 27 29 99 27 30 97 27 29 97 27 27 97 27 29 97 27 29 97 27 29 97 27 29 98 28 28 97 27 29 97 27 29 97 27 27 98 26 27 98 26 29 99 27 30 96 28 27 98 28 28 97 27 29 97 27 29 97 27 29 97 27 29 98 28 30 97 27 29 97 27 29 97 27 29 97 27 29 97 27 29 97 27 29 97 27 29 97 27 29 96 49 21 97 72 15 97 72 15 97 72 15 96 71 14 97 50 22 97 27 29 98 28 30 98 28 30 97 27 29 97 27 29 97 27 29 98 26 29 99 27 30 96 36 25 97 73 13 94 72 12 96 71 14 95 70 13 97 72 15 97 72 15 96 71 14 96 71 14 97 72 15 97 73 13 95 70 13 97 72 15 97 73 13 96 71 14 97 38 24 98 28 28 96 26 28 195 169 170 255 255 255 254 254 254 255 255 253 255 255 255 255 255 255 255 255 255 255 255 255 255 255 255 255 255 255 255 255 255 255 255 255 255 255 255 255 255 255 255 255 255 255 255 255 
97 27 29 98 26 29 97 27 29 98 26 29 97 27 29 100 28 31 97 27 29 99 27 30 98 26 29 99 27 30 97 27 29 96 26 28 97 27 29 98 26 29 96 24 27 97 27 29 97 27 29 96 28 29 97 27 29 98 28 30 96 26 28 97 27 29 96 28 29 96 26 28 98 28 30 97 27 29 97 27 29 97 27 29 97 27 29 98 28 30 95 25 27 98 28 30 98 28 30 97 27 29 97 27 29 98 28 30 97 27 29 97 27 29 97 27 29 97 27 29 97 27 29 100 25 29 98 28 30 96 26 28 98 28 30 97 27 29 97 27 29 97 27 29 97 27 29 98 28 30 96 26 28 97 27 29 97 50 22 96 71 14 97 72 15 96 71 14 97 72 15 98 48 21 96 26 28 97 27 29 97 27 29 96 26 28 97 27 29 98 26 29 99 27 28 98 26 27 96 36 26 98 72 13 97 72 15 97 72 15 97 72 15 96 71 15 97 71 14 96 71 14 98 74 14 97 72 15 97 71 14 97 72 16 96 71 14 97 72 15 96 71 14 98 39 25 96 26 28 157 113 112 255 255 255 255 255 255 255 255 255 254 255 255 255 255 255 255 255 255 255 255 255 255 255 255 255 255 255 255 255 255 255 255 255 255 255 255 255 255 255 255 255 255 255 255 255 255 255 255 
98 26 29 97 27 29 97 27 29 97 27 29 97 27 29 97 27 29 97 25 28 98 26 29 98 26 29 96 26 28 97 25 28 99 27 30 97 27 29 98 26 29 97 27 29 97 27 29 98 26 29 97 27 29 97 27 29 98 26 29 97 27 29 99 27 30 98 26 29 97 27 29 98 28 30 96 26 28 97 27 27 97 27 29 98 28 30 97 27 27 97 27 29 97 27 29 98 28 30 97 27 29 97 29 30 97 27 29 98 26 29 97 25 28 98 28 30 98 26 29 97 27 29 98 28 30 97 27 29 97 27 29 97 27 29 97 27 29 99 27 30 96 26 28 97 27 29 96 26 28 97 27 29 97 27 29 97 50 22 97 72 15 97 72 15 97 72 15 97 72 15 96 49 21 97 27 29 97 27 29 97 27 29 97 27 29 97 27 29 97 27 29 98 26 27 97 27 27 96 36 25 97 71 14 97 72 15 98 72 15 97 72 15 97 71 14 96 71 14 97 72 15 96 71 14 96 71 14 97 73 13 97 72 15 96 71 14 96 71 14 96 71 15 96 38 24 117 56 55 234 228 228 255 255 255 254 254 254 255 255 255 255 255 255 255 255 255 255 255 255 255 255 255 255 255 255 255 255 255 255 255 255 255 255 255 255 255 255 255 255 255 255 255 255 255 255 255 255 255 255 
98 26 29 97 27 29 98 26 29 97 27 29 100 25 29 97 27 29 98 26 29 99 27 30 97 27 29 98 26 29 97 27 29 99 27 30 97 27 29 97 27 29 97 25 28 98 26 29 97 27 29 97 27 29 98 28 30 97 27 29 96 26 28 97 27 29 97 27 29 96 26 28 96 26 28 97 27 29 98 26 29 97 25 28 96 26 28 97 27 29 97 27 29 97 27 29 97 27 29 97 27 29 97 27 29 97 27 29 96 26 28 97 27 29 97 27 29 97 27 29 97 27 29 97 27 29 96 26 28 97 27 27 97 27 27 97 27 29 98 28 30 98 28 30 97 27 29 96 26 28 98 28 30 96 26 28 96 49 21 97 72 15 96 71 14 96 71 14 94 72 14 98 48 21 97 27 29 97 27 29 97 27 29 97 27 29 98 26 29 99 27 30 97 27 29 97 27 29 96 36 25 97 72 15 96 71 14 97 72 15 97 72 15 96 71 14 97 70 15 97 71 14 98 72 15 97 72 15 95 73 15 96 71 14 97 72 16 97 73 13 97 71 14 96 37 23 195 169 168 255 255 255 255 255 255 255 255 255 254 254 254 255 255 255 255 255 255 255 255 255 255 255 255 255 255 255 255 255 255 255 255 255 255 255 255 255 255 255 255 255 255 255 255 255 255 255 255 255 255 255 
98 26 29 98 28 30 98 26 29 96 26 28 98 26 29 96 26 28 98 28 30 98 28 30 97 27 29 98 26 29 96 28 29 98 28 30 98 26 29 97 27 29 97 25 28 97 27 29 97 27 29 97 27 29 97 25 28 97 27 29 97 27 29 98 26 29 98 28 30 98 28 30 97 27 29 97 27 29 97 27 29 97 27 29 96 24 27 97 27 29 97 27 29 97 27 29 97 27 29 96 26 28 97 27 29 98 28 30 97 27 29 97 27 29 97 27 29 97 27 29 96 26 28 97 27 29 98 28 30 96 26 28 96 26 28 97 27 27 96 26 28 97 27 29 97 27 29 98 28 30 97 27 29 97 27 29 96 49 21 97 72 15 97 72 15 96 71 14 96 71 14 96 49 21 97 27 29 98 28 30 97 27 29 97 27 29 99 27 30 98 26 29 97 27 29 97 27 29 96 36 25 96 71 14 96 71 14 95 70 13 97 72 15 96 71 14 98 72 13 96 71 14 94 72 14 98 72 15 96 71 14 97 73 13 98 72 15 97 71 14 96 71 14 155 123 110 255 255 255 255 255 255 255 255 255 254 254 252 254 254 254 255 255 255 255 255 255 255 255 255 255 255 255 255 255 255 255 255 255 255 255 255 255 255 255 255 255 255 255 255 255 255 255 255 255 255 255 255 255 255 
98 28 30 97 27 29 97 27 29 96 26 28 97 27 29 97 27 29 98 26 29 96 26 28 97 27 29 99 27 30 97 27 29 98 26 29 97 27 29 97 27 29 97 27 29 98 26 29 96 26 28 98 28 30 96 26 28 97 27 29 97 27 29 97 27 29 97 27 29 97 27 29 97 27 29 98 28 30 97 27 29 97 27 29 97 27 29 98 26 29 97 27 29 97 27 29 97 27 29 96 26 28 96 26 28 98 28 30 97 27 29 97 27 29 97 27 29 97 27 29 97 27 29 97 27 29 96 26 28 98 28 30 96 26 28 97 27 29 97 27 29 95 25 27 97 27 29 96 26 28 97 27 29 97 27 29 96 49 21 96 71 14 96 71 14 97 72 15 96 71 14 96 49 21 96 26 28 98 26 29 98 26 29 96 26 28 98 26 29 97 25 28 97 27 29 97 27 29 96 36 25 97 72 15 97 72 15 96 71 14 97 72 15 96 71 14 96 71 14 96 71 14 97 73 13 98 72 15 98 72 15 96 71 14 97 70 15 97 72 16 116 94 44 236 231 227 255 255 255 255 255 253 255 255 253 255 255 255 254 255 255 254 254 254 255 255 255 255 255 255 255 255 255 255 255 255 255 255 255 255 255 255 255 255 255 255 255 255 255 255 255 255 255 255 255 255 255 255 255 255 
97 27 29 99 27 30 96 26 28 97 27 29 97 27 29 97 27 29 98 26 29 96 26 28 97 27 29 97 27 29 97 25 28 97 25 28 96 26 28 97 27 29 96 26 28 97 25 28 98 28 30 97 27 29 98 28 30 97 27 29 97 27 29 97 27 29 97 27 29 97 27 29 96 26 28 97 27 29 97 27 29 96 26 28 97 27 29 97 27 29 98 28 30 97 27 29 96 26 28 97 27 29 97 27 29 95 25 27 97 27 29 97 27 29 96 26 28 97 27 29 97 27 29 96 26 28 97 27 29 97 27 29 97 27 29 97 27 29 96 26 28 96 26 28 98 28 30 98 28 30 97 27 29 96 26 28 95 48 20 96 71 14 97 72 15 96 71 14 97 72 15 96 49 21 96 26 28 97 25 28 97 25 28 96 26 28 97 27 29 98 26 29 97 27 29 96 26 28 96 36 25 97 72 15 97 72 15 96 71 14 96 71 14 96 71 14 93 71 13 97 72 15 96 71 14 96 71 14 97 73 13 97 71 12 98 72 15 97 73 13 186 174 148 255 255 253 255 255 255 254 255 255 255 255 255 255 255 255 255 255 255 255 255 255 255 255 255 255 255 255 255 255 255 255 255 255 255 255 255 255 255 255 255 255 255 255 255 255 255 255 255 255 255 255 255 255 255 255 255 255 
97 27 29 98 26 29 97 27 29 98 26 27 96 26 28 96 26 28 98 26 29 97 27 29 97 27 29 97 27 29 95 25 27 97 27 29 97 27 29 96 26 28 96 26 28 97 27 29 97 27 29 97 27 29 97 27 29 97 27 29 97 27 29 96 26 28 97 27 29 97 27 29 98 28 30 98 26 29 98 28 30 97 27 29 98 26 29 97 27 29 97 27 29 98 26 29 97 27 29 96 26 28 97 27 29 98 28 30 97 27 29 97 27 29 97 27 29 97 27 29 96 26 28 97 27 29 97 27 29 97 27 29 97 27 29 96 26 28 96 26 28 97 27 29 97 27 29 97 27 29 97 27 29 97 27 29 96 49 21 97 72 15 96 71 14 96 71 14 97 72 15 98 48 21 96 26 28 97 27 29 97 27 29 96 26 28 96 26 28 98 26 29 97 27 29 97 27 29 96 36 25 96 71 14 96 71 14 96 71 14 96 71 14 96 71 14 96 72 12 96 71 14 94 72 14 97 72 15 98 72 15 98 72 15 96 71 14 136 117 74 255 255 255 254 254 254 255 255 255 255 255 255 255 255 255 255 255 255 255 255 255 255 255 253 255 255 255 255 255 255 255 255 255 255 255 255 255 255 255 255 255 255 255 255 255 255 255 255 255 255 255 255 255 255 255 255 255 255 255 255 
96 26 28 97 27 29 97 27 29 97 27 27 97 27 29 96 26 26 97 27 29 97 27 29 97 27 29 98 28 30 97 27 29 97 27 29 97 27 29 97 27 29 97 27 29 97 27 29 97 27 29 96 26 28 97 27 29 97 27 29 96 26 28 98 28 30 97 27 29 97 27 29 97 27 29 97 27 29 97 27 29 97 27 29 97 27 29 98 26 29 97 27 29 99 27 30 97 27 29 97 27 29 97 27 29 97 27 29 98 28 30 97 27 29 97 27 29 97 27 29 97 27 29 97 27 29 97 27 29 97 27 29 96 26 28 97 27 29 97 27 29 96 26 28 97 27 29 97 27 29 98 28 30 97 27 29 96 49 21 96 71 14 96 71 14 96 71 14 96 71 14 98 48 21 97 27 29 98 26 29 97 27 29 97 27 29 97 25 28 98 26 29 97 27 29 98 28 30 96 36 25 97 72 15 96 71 14 97 72 15 97 72 15 98 73 16 96 71 15 97 72 15 96 71 15 97 73 13 97 72 15 96 71 14 97 71 12 235 232 225 255 255 255 255 255 255 255 255 253 254 254 254 254 254 254 255 255 255 254 254 254 255 255 255 255 255 255 255 255 255 255 255 255 255 255 255 255 255 255 255 255 255 255 255 255 255 255 255 255 255 255 255 255 255 255 255 255 255 255 255 
96 26 28 97 27 29 96 26 28 98 28 28 97 27 29 97 27 27 97 27 29 96 26 28 97 27 29 98 28 30 97 25 28 97 27 29 98 26 29 96 26 28 97 27 29 98 26 29 97 27 29 96 26 28 96 26 28 96 26 28 97 27 29 97 27 29 96 26 28 97 27 29 96 26 28 97 27 29 97 27 29 96 26 28 96 26 28 97 27 29 98 26 29 97 27 29 97 27 29 96 26 28 97 27 29 97 27 29 97 27 29 97 27 29 97 27 29 97 27 29 96 26 28 97 27 29 97 27 27 96 26 28 98 28 30 96 26 28 96 26 28 97 27 29 97 27 29 97 27 29 98 28 30 97 27 29 97 50 22 97 72 15 97 72 15 96 71 14 95 73 15 96 49 21 97 27 29 97 27 29 97 27 29 97 27 29 96 26 28 98 28 30 97 27 29 97 27 29 96 36 25 97 72 15 97 72 15 95 70 13 96 71 14 97 72 15 96 71 14 96 71 14 94 72 14 97 73 13 95 73 15 96 71 14 174 163 133 255 255 255 255 255 255 255 255 255 254 254 254 255 255 255 254 254 254 255 255 255 255 255 255 255 255 253 255 255 255 255 255 255 255 255 255 255 255 255 255 255 255 255 255 255 255 255 255 255 255 255 255 255 255 255 255 255 255 255 255 255 255 255 
96 26 28 97 27 29 96 26 28 97 27 25 97 27 29 97 27 27 97 27 29 96 26 28 96 26 28 97 27 29 97 27 29 96 26 28 96 26 28 95 27 28 97 27 29 96 26 28 97 27 29 96 28 29 97 27 29 97 27 29 97 27 29 96 26 28 95 27 28 97 27 29 98 26 29 97 27 29 97 27 29 97 27 29 97 27 29 96 26 28 97 27 29 97 27 29 96 26 28 96 26 28 97 27 29 97 27 29 97 27 29 96 26 28 97 27 29 96 26 28 95 25 27 96 26 28 97 27 29 96 26 26 97 27 27 96 26 28 96 26 28 97 27 29 97 27 29 97 27 29 96 26 28 97 27 29 96 49 21 96 71 14 97 72 15 96 71 14 94 72 14 95 48 20 96 26 28 97 27 29 97 27 29 96 26 28 96 26 28 97 27 29 96 26 28 96 26 28 96 36 25 96 71 14 97 72 15 96 71 14 96 71 14 97 72 15 96 71 14 96 71 14 96 71 15 96 71 14 98 72 15 117 94 44 252 255 255 255 255 255 255 255 255 253 255 252 255 255 255 255 255 255 255 255 255 255 255 255 255 255 255 255 255 255 255 255 255 255 255 255 255 255 255 255 255 255 255 255 255 255 255 255 255 255 255 255 255 255 255 255 255 255 255 255 255 255 255 255 255 255 
97 27 29 97 27 27 96 26 28 96 26 28 96 26 26 97 27 29 96 26 28 97 27 29 97 27 29 97 27 29 97 27 29 96 26 28 98 28 30 97 27 29 96 26 28 97 27 29 97 27 29 96 26 28 96 26 28 97 25 28 96 28 29 97 27 29 96 26 28 97 27 29 97 27 29 97 27 29 96 26 28 95 25 27 97 27 29 97 27 29 97 27 29 97 27 29 97 27 29 97 27 29 97 27 29 96 26 28 97 27 29 96 26 28 96 26 28 97 27 29 96 26 28 96 26 28 96 26 28 96 26 28 97 27 29 96 26 28 96 26 28 97 27 29 96 26 28 96 26 28 97 27 29 97 27 29 96 49 21 95 70 13 97 72 15 97 72 15 97 72 15 96 49 21 96 26 28 97 27 29 96 26 28 98 28 30 97 27 29 97 27 29 97 25 28 99 27 30 99 37 26 96 71 14 95 70 13 96 71 14 96 71 14 96 71 14 97 72 15 96 72 12 97 72 15 96 71 14 96 71 14 234 234 226 255 254 255 254 254 254 255 255 255 255 255 255 255 255 255 255 255 255 255 255 255 255 255 255 255 255 255 255 255 255 255 255 255 255 255 255 255 255 255 255 255 255 255 255 255 255 255 255 255 255 255 255 255 255 255 255 255 255 255 255 255 255 255 255 255 255 
96 26 28 97 27 27 97 27 29 96 26 28 97 27 27 97 27 29 97 27 29 96 26 28 97 25 28 98 28 30 97 27 29 96 26 28 97 27 29 98 26 29 97 27 29 97 27 29 96 26 28 97 27 29 96 26 28 97 27 29 96 26 28 97 27 29 97 27 29 96 26 28 98 26 29 97 27 29 95 25 27 97 27 29 96 26 28 97 25 28 96 26 28 97 27 29 96 26 28 96 26 28 97 27 29 97 27 29 97 27 29 97 27 29 97 27 29 96 26 28 96 26 28 97 27 29 96 26 28 96 26 26 97 27 29 97 27 29 96 26 26 97 27 29 97 27 29 98 28 30 97 27 29 97 27 29 96 49 21 96 71 14 96 71 14 96 71 14 96 71 14 96 49 21 97 27 29 98 26 29 97 27 29 97 27 29 97 27 29 96 26 28 97 25 28 97 27 29 98 36 25 96 71 14 96 71 14 97 72 15 96 71 14 96 71 14 97 72 15 96 71 14 96 71 15 96 71 14 177 163 136 255 255 255 255 255 255 255 255 255 255 255 255 255 255 255 255 255 255 255 255 255 255 255 255 255 255 255 255 255 255 255 255 255 255 255 255 255 255 255 255 255 255 255 255 255 255 255 255 255 255 255 255 255 255 255 255 255 255 255 255 255 255 255 255 255 255 255 255 255 
97 27 29 96 26 26 96 26 28 96 26 28 97 27 29 96 26 28 98 28 30 95 25 27 98 28 30 96 26 28 98 28 30 97 27 29 96 26 28 96 26 28 95 27 28 97 25 28 97 27 29 97 27 29 97 27 29 95 27 28 98 26 29 97 27 29 96 26 28 96 26 28 98 28 30 97 27 29 97 27 29 97 27 29 97 27 29 97 27 29 98 28 30 97 27 29 98 28 30 98 28 30 97 27 29 96 26 28 96 26 28 96 26 28 97 27 29 96 26 28 97 27 29 97 27 29 97 27 29 97 27 29 97 27 29 97 27 29 97 27 29 97 27 29 96 26 28 97 27 29 97 27 29 96 26 28 96 49 21 96 71 14 96 71 14 97 72 15 96 71 14 96 51 22 96 26 28 97 27 29 97 27 29 96 28 29 96 26 28 96 26 28 97 25 28 96 26 28 99 37 26 95 70 13 97 72 15 96 71 14 96 71 14 96 71 14 95 70 13 94 72 14 94 72 14 116 94 44 255 255 255 255 255 255 255 255 255 255 255 255 255 255 255 255 255 255 255 255 255 255 255 255 255 255 255 255 255 255 255 255 255 255 255 255 255 255 255 255 255 255 255 255 255 255 255 255 255 255 255 255 255 255 255 255 255 255 255 255 255 255 255 255 255 255 255 255 255 255 255 255 
97 27 29 96 26 28 97 27 29 96 26 28 97 27 29 97 27 29 98 28 30 97 27 29 97 25 28 96 28 29 97 27 29 97 27 29 97 25 28 96 26 28 96 26 28 97 27 29 96 26 28 97 27 29 97 27 29 96 26 28 97 27 29 96 26 28 96 26 28 97 27 29 96 28 29 97 27 29 96 26 28 97 27 29 97 27 29 96 28 29 96 26 28 97 27 29 96 26 28 96 26 28 96 26 28 97 27 29 98 28 30 98 28 30 97 27 29 96 26 28 97 27 29 96 26 26 97 27 29 97 27 29 97 27 27 96 26 28 96 26 26 97 27 29 95 25 27 97 27 29 97 27 29 97 27 29 96 49 21 96 71 14 96 71 14 96 71 14 96 71 14 96 49 21 97 27 29 96 26 28 97 27 29 97 27 29 97 27 29 96 26 28 96 26 28 97 27 29 96 36 25 97 72 15 96 71 14 96 71 14 96 71 14 96 71 14 96 71 14 96 71 14 94 72 15 236 233 226 255 255 255 255 255 255 255 255 255 255 255 253 255 255 255 255 255 255 255 255 255 255 255 255 255 255 255 255 255 255 255 255 255 255 255 255 255 255 255 255 255 255 255 255 255 255 255 255 255 255 255 255 255 255 255 255 255 255 255 255 255 255 255 255 255 255 255 255 255 255 255 255 
98 28 30 96 26 28 97 27 29 97 27 29 96 26 28 96 26 28 97 27 29 97 27 29 96 26 28 97 27 29 96 28 29 97 25 28 97 27 29 97 27 29 97 27 29 97 27 29 96 26 28 97 27 29 96 26 28 97 27 29 96 26 28 96 26 28 97 27 29 97 27 29 96 26 28 97 27 29 97 27 29 96 26 28 97 27 29 96 26 28 97 27 29 97 27 29 97 27 29 98 28 30 97 27 29 96 26 28 97 27 29 96 26 28 95 25 27 97 27 29 97 27 29 96 26 28 98 28 30 97 27 29 96 26 28 98 28 30 97 27 29 95 25 27 97 27 29 95 27 28 98 26 29 96 26 28 96 49 21 97 72 15 96 71 14 97 72 15 96 71 14 96 49 21 96 26 28 97 27 29 97 27 29 96 26 28 96 26 28 97 27 29 96 26 28 97 27 29 97 37 26 97 72 15 96 71 14 95 70 13 96 71 14 96 71 14 97 72 15 95 70 13 176 162 135 255 255 255 255 255 255 255 255 255 255 255 253 255 255 255 255 255 255 255 255 255 255 255 255 255 255 255 255 255 255 255 255 255 255 255 255 255 255 255 255 255 255 255 255 255 255 255 255 255 255 255 255 255 255 255 255 255 255 255 255 255 255 255 255 255 255 255 255 255 255 255 255 255 255 255 
96 26 28 96 26 28 96 26 28 96 26 28 96 26 28 96 26 28 97 27 29 96 26 28 97 27 29 96 26 28 96 28 29 97 27 29 97 25 28 96 28 29 96 26 28 97 27 29 97 27 29 97 27 29 96 26 28 96 26 28 97 27 29 97 27 29 97 27 29 96 26 28 97 27 29 96 26 28 96 26 28 96 26 28 96 26 28 96 26 28 96 26 28 98 28 30 97 27 29 97 27 29 97 27 29 97 27 29 96 26 28 97 27 29 96 26 28 96 26 28 96 26 28 97 27 29 97 27 29 97 27 29 96 26 28 97 27 29 96 26 28 96 26 28 97 27 29 97 27 29 96 26 28 97 27 29 96 49 21 96 71 14 95 70 13 96 71 14 93 71 13 96 49 21 97 27 29 96 26 28 96 28 29 97 27 29 96 26 28 97 27 29 97 27 29 96 26 28 96 36 25 96 71 14 96 71 14 96 71 14 96 71 14 95 70 13 96 71 14 116 94 44 254 255 255 255 255 255 255 255 255 255 255 255 255 255 255 255 255 255 255 255 255 255 255 255 255 255 255 255 255 255 255 255 255 255 255 255 255 255 255 255 255 255 255 255 255 255 255 255 255 255 255 255 255 255 255 255 255 255 255 255 255 255 255 255 255 255 255 255 255 255 255 255 255 255 255 255 255 255 
97 27 29 96 26 28 97 27 29 97 27 29 96 26 28 95 25 25 96 26 28 96 26 26 96 26 28 97 27 29 97 27 29 97 27 29 97 25 28 96 26 28 96 26 28 97 27 29 96 26 28 97 27 29 96 26 28 96 26 28 97 27 29 97 27 29 97 27 29 96 26 28 97 27 29 96 26 28 96 26 28 97 27 29 96 26 28 97 27 29 96 26 28 97 27 29 97 27 29 95 25 27 96 26 28 97 27 29 97 27 29 97 27 29 97 27 29 97 27 29 96 26 28 96 26 28 96 26 28 96 26 28 96 26 28 97 27 29 96 26 28 96 26 28 96 26 28 96 26 28 97 27 29 96 26 28 96 49 21 96 71 14 96 71 14 96 71 14 96 71 14 96 49 21 98 26 29 96 26 28 96 26 28 97 27 29 97 25 28 96 26 28 97 27 29 96 26 28 96 36 25 97 72 15 96 71 14 96 71 14 96 71 14 96 71 14 94 72 15 225 221 212 255 255 255 255 255 255 255 255 255 255 255 253 255 255 255 255 255 255 255 255 255 255 255 255 255 255 255 255 255 255 255 255 255 255 255 255 255 255 255 255 255 255 255 255 255 255 255 255 255 255 255 255 255 255 255 255 255 255 255 255 255 255 255 255 255 255 255 255 255 255 255 255 255 255 255 255 255 255 
97 27 29 96 26 28 96 26 28 96 26 28 96 26 28 96 26 26 96 26 28 96 26 26 97 27 29 96 26 28 96 26 28 96 26 28 96 26 28 97 27 29 96 26 28 96 26 28 97 27 29 97 27 29 96 26 28 97 27 29 97 27 29 96 26 28 97 27 29 96 26 28 97 25 28 96 26 28 97 27 29 97 27 29 97 27 29 97 25 28 96 26 28 96 26 28 97 27 29 97 27 29 96 26 28 97 27 29 96 26 28 97 27 29 97 27 29 95 25 27 97 27 29 95 25 27 97 27 29 97 27 27 97 27 29 97 27 29 96 26 26 97 27 29 97 27 29 95 27 28 98 26 29 95 27 28 98 48 21 96 71 14 97 72 15 96 71 14 96 71 14 97 50 22 96 26 28 97 27 29 96 26 28 96 26 28 96 26 28 97 27 29 98 28 30 96 26 28 95 35 24 97 72 15 96 71 14 96 71 14 96 71 14 96 71 14 165 152 118 255 255 255 254 254 254 255 255 255 255 255 255 255 255 255 255 255 255 254 255 255 255 255 255 255 255 255 255 255 255 255 255 255 255 255 255 255 255 255 255 255 255 255 255 255 255 255 255 255 255 255 255 255 255 255 255 255 255 255 255 255 255 255 255 255 255 255 255 255 255 255 255 255 255 255 255 255 255 255 255 255 
97 27 29 95 25 27 96 26 28 96 26 28 96 26 28 97 27 29 96 26 28 96 26 28 96 26 28 96 26 28 97 27 29 97 27 29 97 27 29 96 26 28 96 26 28 96 26 28 97 27 29 97 27 29 97 27 29 96 26 28 96 26 28 96 26 28 96 26 28 97 27 29 96 26 28 97 27 29 97 27 29 97 27 29 97 27 29 97 27 29 97 27 29 98 28 30 97 27 29 96 26 28 97 27 29 97 27 29 96 26 28 96 26 28 96 26 28 96 26 28 96 26 28 96 26 28 96 26 28 97 27 29 96 26 28 97 27 29 98 28 30 96 26 28 97 25 26 96 26 26 96 26 28 98 26 29 95 50 21 95 70 13 96 71 14 94 72 14 96 71 14 96 49 21 97 27 29 96 26 28 96 26 28 97 27 29 96 26 28 97 27 29 97 25 26 96 26 28 96 36 26 97 72 15 94 72 14 96 71 14 93 71 13 116 94 44 243 243 243 255 255 255 255 255 255 255 255 255 255 255 255 255 255 255 255 255 255 254 254 254 255 255 255 255 255 255 255 255 255 255 255 255 255 255 255 255 255 255 255 255 255 255 255 255 255 255 255 255 255 255 255 255 255 255 255 255 255 255 255 255 255 255 255 255 255 255 255 255 255 255 255 255 255 255 255 255 255 255 255 255 
97 27 29 98 28 30 96 26 28 97 27 29 96 26 28 98 28 30 96 26 28 97 27 29 96 26 28 96 26 28 96 26 28 96 26 28 97 27 29 96 26 28 96 26 28 97 27 29 96 26 28 97 27 29 96 26 28 96 26 28 96 26 28 97 27 29 96 26 28 97 27 29 96 26 28 97 27 29 98 28 30 98 28 30 97 27 29 97 27 29 97 27 29 96 26 28 97 27 29 97 27 29 97 27 29 96 26 28 96 26 28 96 26 28 96 26 28 96 26 28 97 27 29 97 27 29 96 26 28 96 26 28 97 27 29 97 27 29 96 26 28 97 27 29 96 26 28 96 26 28 95 25 27 96 26 26 96 49 21 97 72 15 97 72 15 95 70 14 96 71 14 96 49 21 96 26 28 97 27 29 97 27 29 97 27 29 96 26 28 97 27 29 96 26 28 97 25 28 97 37 26 96 71 14 96 71 14 97 71 14 96 71 15 194 186 165 255 255 255 254 254 254 255 255 255 255 255 255 255 255 255 255 255 255 255 255 255 255 255 255 255 255 255 255 255 255 255 255 255 255 255 255 255 255 255 255 255 255 255 255 255 255 255 255 255 255 255 255 255 255 255 255 255 255 255 255 255 255 255 255 255 255 255 255 255 255 255 255 255 255 255 255 255 255 255 255 255 255 255 255 
96 26 28 97 27 29 97 27 29 97 27 29 96 26 28 96 26 28 96 26 28 96 26 28 97 27 29 96 26 28 97 27 29 96 26 28 98 28 30 97 27 29 97 27 29 96 26 28 97 27 29 96 26 28 96 26 28 96 26 28 96 26 28 97 27 29 96 26 28 97 27 29 97 27 29 97 27 29 97 27 27 97 27 27 96 26 28 97 27 29 96 26 28 96 26 26 95 25 27 97 27 29 96 26 28 96 26 28 96 26 26 96 26 26 96 26 26 96 26 26 97 27 29 96 26 28 97 27 29 97 27 29 97 27 29 97 27 29 96 26 28 96 26 28 96 26 28 97 27 29 97 27 29 96 26 28 96 49 21 96 71 14 95 70 13 96 71 14 96 71 14 96 49 21 96 26 28 97 27 29 96 26 28 96 26 28 97 27 29 97 27 29 96 26 28 96 26 28 96 36 25 96 71 14 96 71 14 96 71 14 155 139 103 255 255 255 255 255 255 255 255 255 255 255 255 255 255 255 255 255 255 255 255 255 255 255 255 255 255 255 255 255 255 255 255 255 255 255 255 255 255 255 255 255 255 255 255 255 255 255 255 255 255 255 255 255 255 255 255 255 255 255 255 255 255 255 255 255 255 255 255 255 255 255 255 255 255 255 255 255 255 255 255 255 255 255 255 255 255 255 
96 26 28 96 26 28 96 26 28 97 27 29 96 26 28 96 26 28 97 27 29 97 27 29 96 26 28 96 26 28 96 26 28 97 27 29 96 26 28 96 26 28 96 26 28 96 26 28 96 26 28 96 26 28 96 26 28 96 26 28 97 27 29 97 27 29 97 27 29 97 27 29 96 26 28 97 27 29 96 26 28 96 26 28 96 26 28 97 27 29 96 26 28 97 27 29 97 27 29 97 27 29 97 27 29 97 27 29 96 26 28 96 26 28 96 26 28 96 26 28 96 26 28 96 26 28 96 26 28 96 26 28 97 27 29 97 27 29 97 27 29 97 27 29 96 26 26 96 26 26 96 26 28 97 27 29 96 49 21 96 71 14 96 71 14 96 71 14 97 72 15 95 48 20 97 27 29 97 27 29 96 26 28 96 26 28 96 26 28 96 26 28 96 26 26 97 27 29 96 36 25 96 71 15 97 72 15 116 94 44 236 231 225 255 255 255 255 255 255 255 255 255 255 255 255 255 255 255 255 255 255 254 254 254 255 255 255 255 255 255 255 255 255 255 255 255 255 255 255 255 255 255 255 255 255 255 255 255 255 255 255 255 255 255 255 255 255 255 255 255 255 255 255 255 255 255 255 255 255 255 255 255 255 255 255 255 255 255 255 255 255 255 255 255 255 255 255 255 255 255 
96 26 28 97 27 29 97 27 29 96 26 28 96 26 28 97 27 29 97 27 29 97 27 29 96 26 28 96 26 28 96 26 28 97 27 29 97 27 29 97 27 29 96 26 28 97 27 29 96 26 28 96 26 28 97 27 29 96 26 28 97 27 29 97 27 29 96 26 28 96 26 28 97 27 29 97 27 27 97 27 27 96 26 26 96 26 28 96 26 28 96 26 28 96 26 26 97 27 29 96 26 28 97 27 29 96 26 28 98 28 30 97 27 29 97 27 29 96 26 28 96 26 28 96 26 28 96 26 28 96 26 28 97 27 29 96 26 28 97 27 29 96 26 28 97 27 27 96 26 28 96 26 28 96 26 28 96 49 21 96 71 14 96 71 14 95 70 13 96 71 14 96 49 21 96 26 28 98 28 30 96 26 28 96 26 28 96 26 28 96 26 28 97 27 29 96 25 29 95 35 25 96 71 14 94 72 15 194 186 165 255 253 254 254 255 255 255 255 255 255 255 255 255 255 255 255 255 255 255 255 255 255 255 255 255 255 255 255 255 255 255 255 255 255 255 255 255 255 255 255 255 255 255 255 255 255 255 255 255 255 255 255 255 255 255 255 255 255 255 255 255 255 255 255 255 255 255 255 255 255 255 255 255 255 255 255 255 255 255 255 255 255 255 255 255 255 255 255 255 255 
97 27 29 97 27 29 97 27 29 97 27 29 97 27 29 97 27 29 96 26 28 96 26 28 96 26 28 96 26 28 97 27 29 97 27 29 97 27 29 96 26 28 96 26 28 97 27 29 96 26 28 96 26 28 96 26 28 96 26 28 97 27 29 96 26 28 96 26 28 96 26 28 96 26 28 97 27 29 96 26 28 96 26 28 96 26 28 97 27 29 96 26 28 97 27 29 97 27 29 97 27 29 97 27 29 96 26 28 96 26 26 96 26 26 97 27 27 96 26 26 96 26 28 96 26 28 96 26 28 96 26 28 97 27 29 96 26 28 96 26 28 96 26 28 96 26 28 97 25 28 96 26 28 96 26 28 96 49 21 96 71 14 93 71 13 96 71 14 96 71 14 95 48 20 96 26 28 97 27 29 96 26 28 97 27 29 96 26 28 95 25 27 97 25 28 96 26 28 96 36 26 96 71 14 155 139 105 255 255 255 255 255 255 255 255 255 255 255 255 255 255 255 255 255 255 254 254 254 255 255 255 254 254 254 255 255 255 255 255 255 255 255 255 255 255 255 255 255 255 255 255 255 255 255 255 255 255 255 255 255 255 255 255 255 255 255 255 255 255 255 255 255 255 255 255 255 255 255 255 255 255 255 255 255 255 255 255 255 255 255 255 255 255 255 255 255 255 255 255 255 
96 26 28 96 26 28 95 25 27 96 26 28 95 25 27 96 26 28 96 26 28 96 26 28 97 27 29 96 26 28 96 26 28 97 27 29 96 26 28 96 26 28 96 26 28 96 26 28 96 26 28 96 26 28 97 27 29 95 25 27 96 26 28 96 26 28 96 26 28 96 26 28 96 26 28 97 27 29 96 26 28 96 26 28 95 25 27 97 27 29 96 26 28 97 27 29 96 26 28 97 27 29 96 26 28 96 26 28 96 26 28 98 28 30 97 27 29 96 26 28 97 27 29 96 26 28 96 26 28 96 26 28 96 26 28 96 26 28 96 26 28 96 26 28 96 26 28 96 26 26 96 26 28 97 27 29 96 49 21 95 70 13 94 72 15 96 71 15 96 71 14 96 49 21 97 27 29 96 26 28 96 26 28 96 26 28 96 26 28 95 25 27 97 27 29 96 26 28 95 35 25 117 95 45 235 232 223 255 255 255 255 255 255 255 255 255 255 255 255 255 255 255 255 255 255 255 255 255 255 255 255 255 255 255 255 255 255 255 255 255 255 255 255 255 255 255 255 255 255 255 255 255 255 255 255 255 255 255 255 255 255 255 255 255 255 255 255 255 255 255 255 255 255 255 255 255 255 255 255 255 255 255 255 255 255 255 255 255 255 255 255 255 255 255 255 255 255 255 255 255 
96 26 28 97 27 29 96 26 28 96 26 28 97 27 29 96 26 28 97 27 29 96 26 28 96 26 28 96 26 28 96 26 28 97 27 29 97 27 29 97 27 29 96 26 28 96 26 28 96 26 28 96 26 28 97 27 29 96 26 28 97 27 29 96 26 28 96 26 28 96 26 28 96 26 28 96 26 28 97 27 29 97 27 29 96 26 28 96 26 28 97 27 29 96 26 28 96 26 28 96 26 28 96 26 28 96 26 28 96 26 28 97 27 29 96 26 28 96 26 28 96 26 28 96 26 28 96 26 28 97 27 29 96 26 28 98 28 30 97 27 29 96 26 28 96 26 26 96 28 29 96 26 28 96 26 28 96 49 21 96 71 14 96 71 14 95 70 13 94 69 12 96 49 21 96 26 28 97 27 29 96 26 28 96 26 28 97 27 29 96 26 28 97 27 29 97 25 28 95 35 24 196 185 165 255 255 255 255 255 255 255 255 253 255 253 254 255 255 255 255 255 255 255 255 255 255 255 255 255 255 255 255 255 255 255 255 255 255 255 255 255 255 255 255 255 255 255 255 255 255 255 255 255 255 255 255 255 255 255 255 255 255 255 255 255 255 255 255 255 255 255 255 255 255 255 255 255 255 255 255 255 255 255 255 255 255 255 255 255 255 255 255 255 255 255 255 255 255 255 255 
97 27 29 96 26 28 97 27 29 96 26 28 97 27 29 96 26 28 97 27 29 96 26 28 96 26 28 96 26 28 96 26 28 96 26 28 96 26 28 96 26 28 96 26 28 96 26 28 97 27 29 96 26 28 97 27 29 96 26 28 97 27 29 96 26 28 96 26 28 96 26 28 96 26 28 96 26 28 98 28 30 97 27 29 97 27 29 97 27 29 97 27 29 97 27 29 97 27 29 97 27 29 97 27 29 95 25 27 96 26 28 97 27 29 96 26 28 95 25 27 96 26 28 96 26 28 96 26 28 96 26 28 96 26 28 96 26 28 97 27 29 95 25 27 96 26 28 96 26 28 96 26 28 96 26 28 95 48 20 95 70 13 96 71 14 96 71 14 93 71 13 96 49 21 96 26 26 96 25 29 97 27 29 96 26 28 96 28 27 96 26 26 96 26 26 97 27 29 155 113 114 255 255 255 255 255 255 255 255 255 255 255 255 255 255 255 255 255 255 255 255 255 255 255 255 255 255 255 255 255 255 255 255 255 255 255 255 255 255 255 255 255 255 255 255 255 255 255 255 255 255 255 255 255 255 255 255 255 255 255 255 255 255 255 255 255 255 255 255 255 255 255 255 255 255 255 255 255 255 255 255 255 255 255 255 255 255 255 255 255 255 255 255 255 255 255 255 255 255 255 
97 27 29 96 26 28 96 26 28 96 26 28 96 26 28 96 26 28 96 26 28 97 27 29 97 27 29 97 27 29 96 26 28 96 26 28 96 26 28 96 26 28 97 27 29 97 27 29 96 26 28 97 27 29 96 26 28 96 26 28 96 26 28 96 26 28 96 26 28 96 26 28 96 26 28 96 26 28 96 26 28 96 26 28 96 26 28 96 26 28 96 26 28 96 26 28 96 26 28 97 27 29 98 28 30 96 26 28 96 26 28 96 26 28 96 26 28 96 26 28 96 26 28 96 26 28 96 26 28 97 27 29 96 26 28 97 27 29 96 26 28 96 26 28 97 27 29 96 26 28 96 26 28 97 27 29 96 49 21 95 70 13 96 71 14 96 71 14 95 70 13 95 48 20 96 26 26 98 28 30 96 26 28 97 27 29 97 27 27 96 26 26 96 26 28 116 54 55 236 227 228 255 255 255 255 255 255 255 255 255 255 255 255 255 255 255 255 255 255 255 255 255 255 255 255 255 255 255 255 255 255 255 255 255 255 255 255 255 255 255 255 255 255 255 255 255 255 255 255 255 255 255 255 255 255 255 255 255 255 255 255 255 255 255 255 255 255 255 255 255 255 255 255 255 255 255 255 255 255 255 255 255 255 255 255 255 255 255 255 255 255 255 255 255 255 255 255 255 255 255 
96 26 28 96 26 28 97 27 29 96 26 28 95 25 27 96 26 28 97 27 29 97 27 29 96 26 28 96 26 28 96 26 28 96 26 28 96 26 28 96 26 28 96 26 28 96 26 28 96 26 28 96 26 28 97 27 29 96 26 28 96 26 28 96 26 28 95 25 27 97 27 29 96 26 28 97 27 29 97 27 29 97 27 29 96 26 28 96 26 28 96 26 28 96 26 28 96 26 28 96 26 28 96 26 28 96 26 28 96 26 28 96 26 28 96 26 28 97 27 29 95 25 27 96 26 28 97 27 29 96 26 28 96 26 28 96 26 28 96 26 28 97 27 29 96 26 28 96 26 28 96 26 28 97 27 29 95 48 20 96 71 14 96 71 14 96 71 14 95 70 13 96 49 21 96 26 28 97 27 29 96 26 28 96 26 28 96 26 28 95 27 26 96 26 28 185 155 153 255 255 255 254 254 254 255 255 255 254 255 255 255 253 254 255 255 255 255 255 255 255 255 255 255 255 255 255 255 255 255 255 255 255 255 255 255 255 255 255 255 255 255 255 255 255 255 255 255 255 255 255 255 255 255 255 255 255 255 255 255 255 255 255 255 255 255 255 255 255 255 255 255 255 255 255 255 255 255 255 255 255 255 255 255 255 255 255 255 255 255 255 255 255 255 255 255 255 255 255 255 255 
97 27 29 97 27 29 96 26 28 97 27 29 97 27 29 96 26 28 96 26 28 96 26 28 96 26 28 96 26 28 96 26 28 96 26 28 96 26 28 96 26 28 96 26 28 96 26 28 97 27 29 96 26 28 96 26 28 96 26 28 97 27 29 96 26 28 97 27 29 96 26 28 96 26 28 97 27 29 97 27 29 95 25 27 96 26 28 96 26 28 96 26 28 96 26 28 97 27 29 97 27 29 96 26 28 96 26 28 96 26 28 96 26 28 96 26 28 96 26 28 96 28 29 97 27 29 96 26 28 95 25 27 96 26 28 97 27 29 97 27 29 97 27 29 96 26 28 96 26 28 96 26 28 96 26 28 96 49 21 95 70 13 95 70 13 95 70 13 96 71 15 96 49 21 96 38 24 94 54 19 96 49 21 96 28 27 95 25 27 95 27 28 137 82 85 254 255 255 255 255 255 255 255 255 255 255 253 255 255 255 255 255 255 255 255 255 255 255 255 255 255 255 255 255 255 255 255 255 255 255 255 255 255 255 255 255 255 255 255 255 255 255 255 255 255 255 255 255 255 255 255 255 255 255 255 255 255 255 255 255 255 255 255 255 255 255 255 255 255 255 255 255 255 255 255 255 255 255 255 255 255 255 255 255 255 255 255 255 255 255 255 255 255 255 255 255 255 255 255 255 
96 26 28 96 26 28 96 26 28 96 26 28 96 26 28 96 26 28 96 26 28 96 26 28 96 26 28 96 26 28 96 26 28 96 26 28 96 26 28 96 26 28 96 26 28 96 26 28 96 26 28 95 25 27 96 26 28 96 26 28 96 26 28 96 26 28 96 26 28 96 26 28 96 26 28 96 26 28 97 27 29 96 26 28 96 26 28 96 26 28 97 27 29 96 26 28 96 26 28 97 27 29 96 26 28 97 27 29 96 26 28 96 26 28 96 26 28 97 27 29 95 25 27 96 26 28 96 26 28 96 26 28 96 26 28 96 26 28 96 26 28 95 27 28 96 26 28 95 25 27 96 26 28 96 26 28 96 49 21 95 70 13 96 71 14 95 70 13 96 71 14 96 62 17 95 70 14 98 72 15 94 72 14 94 59 17 96 28 29 95 27 28 236 227 228 255 255 255 255 255 255 255 255 255 255 255 255 255 255 255 255 255 253 255 255 255 255 255 255 255 255 255 255 255 255 255 255 255 255 255 255 255 255 255 255 255 255 255 255 255 255 255 255 255 255 255 255 255 255 255 255 255 255 255 255 255 255 255 255 255 255 255 255 255 255 255 255 255 255 255 255 255 255 255 255 255 255 255 255 255 255 255 255 255 255 255 255 255 255 255 255 255 255 255 255 255 255 255 255 255 
97 27 29 96 26 28 96 26 28 95 25 27 96 26 28 96 26 28 97 27 29 96 26 28 96 26 28 96 26 28 97 27 29 97 27 29 97 27 29 97 27 29 96 26 28 96 26 28 96 26 28 96 26 28 96 26 28 96 26 28 96 26 28 96 26 28 96 26 28 96 26 28 96 26 28 96 26 28 97 27 29 98 28 30 96 26 28 96 26 28 96 26 28 96 26 28 96 26 28 97 27 29 97 27 29 96 26 28 96 26 28 96 26 28 96 26 28 96 26 28 96 26 28 96 26 28 95 27 28 96 26 28 96 26 28 96 26 28 97 27 29 95 27 28 96 26 28 96 26 28 96 26 28 96 26 28 96 49 21 96 71 14 96 71 14 96 71 14 94 72 14 96 71 15 94 72 14 96 71 14 94 72 14 96 70 13 94 36 25 174 140 141 255 255 255 255 255 255 255 255 255 255 255 255 255 255 255 254 254 254 255 255 255 255 255 255 255 255 255 255 255 255 255 255 255 255 255 255 255 255 255 255 255 255 255 255 255 255 255 255 255 255 255 255 255 255 255 255 255 255 255 255 255 255 255 255 255 255 255 255 255 255 255 255 255 255 255 255 255 255 255 255 255 255 255 255 255 255 255 255 255 255 255 255 255 255 255 255 255 255 255 255 255 255 255 255 255 255 255 255 
95 25 27 96 26 28 96 26 28 96 26 28 96 26 28 97 27 29 96 26 28 97 27 29 96 26 28 96 26 28 96 26 28 96 26 28 96 26 28 96 26 28 96 26 28 96 26 28 96 26 28 96 26 28 97 27 29 96 26 28 96 26 28 96 26 28 96 26 28 97 27 29 96 26 28 96 26 28 96 26 28 96 26 28 97 27 29 96 26 28 96 26 28 97 27 29 96 26 28 96 26 28 96 26 28 96 26 28 97 27 29 97 27 29 96 26 28 96 26 28 95 27 28 95 27 28 95 27 28 96 28 29 95 25 27 96 26 28 96 26 28 96 26 28 96 26 28 96 26 28 96 26 28 96 26 28 96 49 21 95 70 13 95 70 13 95 70 13 96 71 14 96 71 14 94 72 14 95 70 13 95 70 14 95 70 13 116 67 53 254 255 255 255 255 255 255 255 255 255 255 253 254 255 255 255 255 255 255 255 255 255 255 255 255 255 255 255 255 255 255 255 255 255 255 255 255 255 255 255 255 255 255 255 255 255 255 255 255 255 255 255 255 255 255 255 255 255 255 255 255 255 255 255 255 255 255 255 255 255 255 255 255 255 255 255 255 255 255 255 255 255 255 255 255 255 255 255 255 255 255 255 255 255 255 255 255 255 255 255 255 255 255 255 255 255 255 255 255 255 255 
96 26 28 97 27 29 96 26 28 96 26 28 95 25 27 96 26 28 96 26 28 96 26 28 96 26 28 96 26 28 96 26 28 96 26 28 96 26 28 96 26 28 96 26 28 96 26 28 96 26 28 95 25 27 96 26 28 96 26 28 96 26 28 96 26 28 96 26 28 96 26 28 96 26 28 96 26 28 96 26 28 96 26 28 96 26 28 95 25 27 96 26 28 96 26 28 96 26 28 96 26 28 95 27 28 93 27 28 94 28 29 96 28 29 96 26 28 96 26 28 96 26 28 96 26 28 97 27 29 96 26 28 96 28 29 96 28 29 95 27 28 96 26 28 96 26 28 96 26 28 95 25 27 96 26 28 95 48 20 96 71 14 95 70 13 96 71 14 96 71 15 95 71 11 95 70 14 96 70 13 96 71 14 96 71 15 235 232 225 254 254 254 255 255 255 255 255 253 254 255 255 255 255 253 255 255 255 255 255 255 255 255 255 254 254 255 255 255 255 255 255 255 255 255 255 255 255 255 255 255 255 255 255 255 255 255 255 255 255 255 255 255 255 255 255 255 255 255 255 255 255 255 255 255 255 255 255 255 255 255 255 255 255 255 255 255 255 255 255 255 255 255 255 255 255 255 255 255 255 255 255 255 255 255 255 255 255 255 255 255 255 255 255 255 255 255 255 255 255 255 
96 26 28 98 26 29 95 25 27 96 26 28 96 26 28 96 26 28 96 26 28 96 26 28 95 27 28 97 27 29 97 27 29 94 26 27 97 27 29 96 26 28 95 25 27 96 26 28 96 26 28 96 26 28 96 26 28 96 26 28 95 27 28 96 26 28 95 27 28 95 27 28 96 26 28 96 26 28 96 26 28 96 26 28 96 26 28 96 26 28 96 26 28 96 26 28 95 25 27 96 26 28 96 26 28 96 26 28 96 26 28 96 26 28 96 26 28 96 26 28 95 25 27 96 26 28 96 26 28 95 25 27 96 26 28 96 26 28 96 26 28 96 26 28 96 28 29 96 26 28 95 27 28 97 27 29 95 48 20 95 70 13 95 70 16 95 70 13 95 70 14 95 70 13 97 72 16 95 70 13 96 70 13 176 162 135 255 255 255 255 255 255 255 255 255 255 255 255 255 255 255 255 255 255 255 255 255 255 255 255 255 255 255 255 255 255 255 255 255 255 255 255 255 255 255 255 255 255 255 255 255 255 255 255 255 255 255 255 255 255 255 255 255 255 255 255 255 255 255 255 255 255 255 255 255 255 255 255 255 255 255 255 255 255 255 255 255 255 255 255 255 255 255 255 255 255 255 255 255 255 255 255 255 255 255 255 255 255 255 255 255 255 255 255 255 255 255 255 255 255 
95 27 28 96 26 28 96 26 28 96 26 28 97 27 29 97 27 29 95 27 28 95 27 28 96 26 28 97 25 28 96 26 28 96 26 28 96 26 28 97 25 28 97 27 29 96 26 28 96 26 28 96 26 28 96 26 28 96 26 28 95 27 28 96 26 28 96 26 28 96 26 28 95 27 28 96 26 28 96 26 28 96 26 28 96 26 28 96 26 28 95 25 27 95 27 28 95 25 27 97 27 29 96 26 28 96 26 28 96 26 28 96 26 28 96 26 28 95 25 27 96 26 28 96 26 28 96 26 28 96 26 28 96 26 28 96 26 28 95 27 28 95 27 28 96 26 28 96 26 28 96 26 28 97 27 29 95 48 20 95 70 13 95 70 14 95 70 13 96 71 15 93 71 14 94 69 12 93 71 13 115 94 41 254 255 255 254 255 255 255 255 255 255 255 255 255 255 255 255 255 255 255 255 255 255 255 255 255 255 255 255 255 255 255 255 255 255 255 255 255 255 255 255 255 255 255 255 255 255 255 255 255 255 255 255 255 255 255 255 255 255 255 255 255 255 255 255 255 255 255 255 255 255 255 255 255 255 255 255 255 255 255 255 255 255 255 255 255 255 255 255 255 255 255 255 255 255 255 255 255 255 255 255 255 255 255 255 255 255 255 255 255 255 255 255 255 255 255 255 255 
96 28 29 97 27 29 96 26 28 96 26 28 96 26 28 96 26 28 96 26 28 96 26 28 98 28 30 97 25 28 97 25 28 98 28 30 96 26 28 96 26 28 95 25 27 97 27 29 96 26 28 96 26 28 95 27 28 96 26 28 96 26 28 96 26 28 96 26 28 96 26 28 96 26 28 96 26 28 96 26 28 96 26 28 96 26 28 95 25 27 96 26 28 96 26 28 97 27 29 96 26 28 96 26 28 96 26 28 97 27 29 96 26 28 96 26 28 96 26 28 95 27 28 96 28 29 97 27 29 96 26 28 96 26 28 96 26 28 96 26 28 96 26 28 96 26 28 96 26 28 96 26 28 95 25 27 95 48 20 95 70 13 95 70 14 95 70 13 94 69 12 96 71 14 96 71 15 95 70 14 235 232 225 255 255 255 253 255 254 255 255 253 255 255 255 255 255 255 255 255 255 255 255 255 255 255 255 255 255 255 255 255 255 255 255 255 255 255 255 255 255 255 255 255 255 255 255 255 255 255 255 255 255 255 255 255 255 255 255 255 255 255 255 255 255 255 255 255 255 255 255 255 255 255 255 255 255 255 255 255 255 255 255 255 255 255 255 255 255 255 255 255 255 255 255 255 255 255 255 255 255 255 255 255 255 255 255 255 255 255 255 255 255 255 255 255 255 255 255 255 
96 26 28 96 26 28 96 26 28 96 26 28 96 26 28 96 26 28 96 26 28 96 26 28 95 25 27 96 26 28 95 27 28 95 25 27 96 26 28 96 26 28 96 26 28 96 26 28 95 27 28 95 27 28 95 27 28 95 25 27 96 26 28 95 25 27 96 26 28 96 26 28 95 27 28 97 27 29 96 26 28 96 26 28 97 27 29 96 26 28 96 26 28 96 28 29 95 25 27 96 26 28 96 26 28 97 27 29 96 26 28 96 26 28 96 26 28 96 26 28 96 26 28 96 26 28 96 26 28 96 26 28 96 26 28 96 26 28 96 26 28 96 26 28 96 26 28 96 28 29 96 26 28 96 26 28 94 49 20 95 70 14 95 70 13 95 70 13 94 69 13 96 71 15 96 71 15 173 162 134 255 255 255 255 255 255 254 254 254 255 255 255 255 255 255 255 255 255 255 255 255 255 255 255 255 255 255 255 255 255 255 255 255 255 255 255 255 255 255 255 255 255 255 255 255 255 255 255 255 255 255 255 255 255 255 255 255 255 255 255 255 255 255 255 255 255 255 255 255 255 255 255 255 255 255 255 255 255 255 255 255 255 255 255 255 255 255 255 255 255 255 255 255 255 255 255 255 255 255 255 255 255 255 255 255 255 255 255 255 255 255 255 255 255 255 255 255 255 255 255 
95 27 28 95 27 28 96 26 28 96 26 28 96 26 28 96 26 28 96 26 28 96 26 28 95 27 28 96 26 28 96 26 28 96 26 28 95 27 28 95 27 28 96 26 28 96 26 28 94 26 27 95 27 28 96 26 28 97 27 29 96 26 28 96 26 28 96 26 28 95 25 27 96 26 28 96 26 28 96 26 28 96 26 28 97 27 29 97 27 29 96 26 28 97 27 29 96 26 28 96 26 28 96 26 28 96 26 28 96 26 28 96 26 28 97 27 29 96 26 28 96 26 28 96 26 28 96 26 28 97 27 29 95 25 27 96 26 28 96 26 28 97 27 29 95 25 27 96 28 29 96 26 28 96 26 28 94 49 20 95 70 14 95 70 13 95 70 13 93 71 14 92 70 12 116 94 44 255 255 255 255 255 255 255 255 255 254 255 255 255 255 255 255 255 255 255 255 255 255 255 255 255 255 255 255 255 255 255 255 255 255 255 255 255 255 255 255 255 255 255 255 255 255 255 255 255 255 255 255 255 255 255 255 255 255 255 255 255 255 255 255 255 255 255 255 255 255 255 255 255 255 255 255 255 255 255 255 255 255 255 255 255 255 255 255 255 255 255 255 255 255 255 255 255 255 255 255 255 255 255 255 255 255 255 255 255 255 255 255 255 255 255 255 255 255 255 255 255 255 255 
96 26 28 96 26 28 97 27 29 97 27 29 96 26 28 96 26 28 96 26 28 95 27 28 95 25 27 96 26 28 96 26 28 95 27 28 95 25 27 97 27 29 96 26 28 95 27 28 96 26 28 95 27 28 96 26 28 95 27 28 96 26 28 96 26 28 96 26 28 96 26 28 95 27 28 95 25 27 96 26 28 96 26 28 96 26 28 96 26 28 96 26 28 95 27 28 96 26 28 96 26 28 96 26 28 95 27 28 95 27 28 98 28 30 97 27 29 95 25 27 94 26 27 95 27 28 96 26 28 96 26 28 95 25 27 96 26 28 96 26 28 96 26 28 96 26 28 97 27 29 96 26 28 96 26 28 96 49 21 96 71 15 96 71 14 96 71 15 96 70 13 95 70 13 236 231 225 254 255 255 254 255 255 255 255 255 255 255 255 255 255 255 255 255 255 255 255 255 255 255 255 255 255 255 255 255 255 255 255 255 255 255 255 255 255 255 255 255 255 255 255 255 255 255 255 255 255 255 255 255 255 255 255 255 255 255 255 255 255 255 255 255 255 255 255 255 255 255 255 255 255 255 255 255 255 255 255 255 255 255 255 255 255 255 255 255 255 255 255 255 255 255 255 255 255 255 255 255 255 255 255 255 255 255 255 255 255 255 255 255 255 255 255 255 255 255 255 255 255 255 
97 27 29 95 25 27 97 27 29 95 25 27 96 26 28 96 26 28 97 27 29 97 27 29 96 26 28 96 26 28 96 26 28 96 26 28 95 27 28 96 26 28 97 27 29 96 26 28 96 26 28 96 26 28 97 25 28 95 27 28 96 26 28 95 27 28 96 26 28 96 26 28 97 25 28 96 26 28 95 25 27 96 26 28 96 26 28 96 26 28 96 26 28 96 24 27 96 26 28 96 26 28 95 27 28 95 27 28 95 27 28 94 26 27 96 26 28 96 26 28 96 26 28 96 26 28 96 26 28 95 25 27 96 26 28 97 27 29 96 28 29 94 26 27 95 25 27 96 26 28 95 25 27 96 26 28 95 48 20 95 70 13 95 70 13 96 71 15 96 71 14 166 153 121 255 255 253 255 255 255 255 255 255 255 255 255 254 254 254 255 255 255 255 255 255 255 255 255 255 255 255 255 255 255 255 255 255 255 255 255 255 255 255 255 255 255 255 255 255 255 255 255 255 255 255 255 255 255 255 255 255 255 255 255 255 255 255 255 255 255 255 255 255 255 255 255 255 255 255 255 255 255 255 255 255 255 255 255 255 255 255 255 255 255 255 255 255 255 255 255 255 255 255 255 255 255 255 255 255 255 255 255 255 255 255 255 255 255 255 255 255 255 255 255 255 255 255 255 255 255 
96 26 28 96 26 28 96 26 28 97 27 29 96 26 28 96 26 28 96 26 28 95 27 28 96 26 28 94 26 27 96 26 28 96 26 28 96 26 28 95 25 27 96 26 28 96 26 28 96 26 28 95 25 27 98 28 30 94 26 27 97 27 29 95 27 28 96 26 28 95 27 28 96 28 29 96 26 28 96 26 28 96 26 28 96 26 28 96 26 28 96 26 28 94 26 27 96 26 28 97 27 29 95 27 28 95 27 28 95 27 28 95 27 28 96 26 28 96 26 28 97 27 29 96 26 28 96 26 28 96 26 28 97 27 29 96 26 28 96 26 28 95 25 27 95 27 28 96 26 28 95 27 28 96 26 28 95 48 20 95 70 13 95 70 13 96 71 15 115 93 44 245 244 240 255 255 255 255 255 255 255 255 255 255 255 255 254 254 252 255 255 255 255 255 255 255 255 255 255 255 255 255 255 255 255 255 255 255 255 255 255 255 255 255 255 255 255 255 255 255 255 255 255 255 255 255 255 255 255 255 255 255 255 255 255 255 255 255 255 255 255 255 255 255 255 255 255 255 255 255 255 255 255 255 255 255 255 255 255 255 255 255 255 255 255 255 255 255 255 255 255 255 255 255 255 255 255 255 255 255 255 255 255 255 255 255 255 255 255 255 255 255 255 255 255 255 255 255 255 255 
96 26 28 96 26 28 96 26 28 96 26 28 96 26 28 96 26 28 96 26 28 96 26 28 96 26 28 95 27 28 96 26 28 97 25 28 96 26 28 96 26 28 96 26 28 95 27 28 96 26 28 96 26 28 96 26 28 96 26 28 96 26 28 96 26 28 96 26 28 96 26 28 96 26 28 96 26 28 96 26 28 96 26 28 96 26 28 95 27 28 96 26 28 96 26 28 95 27 28 96 26 28 96 26 28 96 26 28 96 26 28 96 26 28 96 26 28 95 27 28 96 26 28 96 26 28 96 26 28 96 26 28 96 26 28 96 26 28 96 26 28 96 26 28 96 26 28 96 26 28 96 26 28 95 27 28 94 49 20 95 70 13 95 70 13 94 69 13 203 196 178 254 254 254 254 255 255 255 255 255 254 254 254 255 255 253 255 255 255 255 255 255 255 255 255 255 255 255 255 255 255 255 255 255 255 255 255 255 255 255 255 255 255 255 255 255 255 255 255 255 255 255 255 255 255 255 255 255 255 255 255 255 255 255 255 255 255 255 255 255 255 255 255 255 255 255 255 255 255 255 255 255 255 255 255 255 255 255 255 255 255 255 255 255 255 255 255 255 255 255 255 255 255 255 255 255 255 255 255 255 255 255 255 255 255 255 255 255 255 255 255 255 255 255 255 255 255 255 255 255 
96 26 28 96 26 28 95 27 28 96 26 28 95 27 28 97 25 28 95 27 28 96 26 28 95 27 28 96 26 28 96 26 28 95 27 28 96 26 28 96 26 28 97 25 28 95 27 28 96 26 28 96 26 28 96 26 28 95 27 28 95 27 28 93 27 28 96 26 28 96 26 28 96 26 28 96 26 28 96 26 28 96 26 28 95 27 28 96 26 28 93 27 28 96 26 28 96 26 28 96 26 28 96 26 28 96 26 28 96 26 28 96 26 28 96 26 28 96 26 28 95 27 28 96 26 28 95 27 28 96 26 28 96 26 28 96 26 28 93 27 28 95 27 28 95 27 28 96 26 28 97 27 27 95 27 28 95 48 20 95 70 13 95 70 13 155 139 105 255 255 255 255 255 253 255 255 255 254 254 254 254 254 254 255 255 255 255 255 255 255 255 255 255 255 255 255 255 255 255 255 255 255 255 255 255 255 255 255 255 255 255 255 255 255 255 255 255 255 255 255 255 255 255 255 255 255 255 255 255 255 255 255 255 255 255 255 255 255 255 255 255 255 255 255 255 255 255 255 255 255 255 255 255 255 255 255 255 255 255 255 255 255 255 255 255 255 255 255 255 255 255 255 255 255 255 255 255 255 255 255 255 255 255 255 255 255 255 255 255 255 255 255 255 255 255 255 255 255 255 255 
96 26 28 96 26 28 96 26 28 96 26 28 96 26 28 96 26 28 96 26 28 96 26 28 96 26 28 95 27 28 97 25 28 96 26 28 96 26 28 95 27 28 95 27 28 96 26 28 95 27 28 95 27 28 95 27 28 95 27 28 95 27 28 96 26 28 96 26 28 96 26 28 96 26 28 96 26 28 95 27 28 96 26 28 95 27 28 96 26 28 95 27 28 96 26 28 97 25 28 96 26 28 96 26 28 96 26 28 96 26 28 96 26 28 96 26 28 97 25 28 96 26 28 96 26 28 96 26 28 95 27 28 96 26 28 95 27 28 96 26 28 96 26 28 95 25 27 94 26 27 96 26 28 96 26 28 95 48 22 96 69 14 115 93 44 235 232 225 252 254 253 255 255 255 255 255 255 253 255 254 255 255 255 255 255 255 254 255 255 255 255 255 255 255 255 255 255 255 255 255 255 255 255 255 255 255 255 255 255 255 255 255 255 255 255 255 255 255 255 255 255 255 255 255 255 255 255 255 255 255 255 255 255 255 255 255 255 255 255 255 255 255 255 255 255 255 255 255 255 255 255 255 255 255 255 255 255 255 255 255 255 255 255 255 255 255 255 255 255 255 255 255 255 255 255 255 255 255 255 255 255 255 255 255 255 255 255 255 255 255 255 255 255 255 255 255 255 255 255 255 
95 27 28 95 27 28 96 26 28 96 26 28 96 26 28 95 27 28 96 26 28 95 27 28 96 26 28 95 27 28 95 27 28 96 26 28 96 26 28 95 27 28 96 26 28 96 26 28 96 26 28 96 26 28 93 27 28 95 27 28 95 27 28 95 27 28 95 27 28 95 27 28 95 27 28 96 26 28 95 27 28 96 26 28 95 27 28 96 26 28 95 27 28 96 26 28 96 26 28 96 26 28 95 27 28 95 27 28 95 27 28 95 27 28 96 26 28 96 26 28 95 27 28 96 26 28 95 27 28 96 26 28 95 27 28 96 26 28 95 27 28 96 26 28 96 26 28 95 25 27 96 28 29 97 27 29 95 48 20 93 71 13 194 186 163 254 254 254 255 253 254 254 254 254 255 255 255 255 255 255 255 255 255 255 255 255 255 255 255 255 255 255 255 255 255 255 255 255 255 255 255 255 255 255 255 255 255 255 255 255 255 255 255 255 255 255 255 255 255 255 255 255 255 255 255 255 255 255 255 255 255 255 255 255 255 255 255 255 255 255 255 255 255 255 255 255 255 255 255 255 255 255 255 255 255 255 255 255 255 255 255 255 255 255 255 255 255 255 255 255 255 255 255 255 255 255 255 255 255 255 255 255 255 255 255 255 255 255 255 255 255 255 255 255 255 255 255 255 255 255 
