P3
100 50
255
35 17 17 35 17 17 36 18 16 35 17 17 35 17 17 35 17 17 35 17 17 35 17 15 34 16 16 35 17 17 35 17 17 35 17 17 35 17 17 34 16 16 35 17 17 35 17 17 35 17 17 35 15 16 35 17 15 35 17 17 35 17 17 35 17 15 36 16 17 35 17 17 35 17 17 36 16 17 35 17 17 34 14 15 35 17 17 35 17 17 35 17 17 35 17 17 35 17 17 36 18 18 35 17 17 35 17 17 35 17 17 36 18 18 35 17 17 35 17 17 35 17 17 35 17 17 36 18 18 35 17 17 35 17 17 36 18 18 35 17 17 35 17 17 35 17 17 35 17 17 35 17 17 35 17 17 35 17 17 35 17 17 35 17 17 35 15 16 35 17 17 35 17 17 35 17 17 34 16 14 35 17 17 35 17 17 35 17 17 25 6 8 24 5 7 23 4 6 26 7 9 35 17 17 36 16 17 88 63 22 102 75 22 102 76 25 102 77 23 103 76 23 102 77 23 102 77 23 102 77 23 102 77 23 102 77 23 104 77 24 103 77 26 102 76 25 102 77 23 102 77 23 103 78 24 103 78 24 102 77 23 103 78 24 102 77 23 103 76 23 102 71 7 102 68 4 103 71 10 102 76 25 103 78 24 102 77 23 102 77 23 102 77 23 102 77 23 103 78 24 
35 17 17 35 17 17 36 18 16 35 17 15 35 17 17 35 17 17 35 17 17 35 17 15 35 17 17 36 18 18 35 17 17 34 16 16 35 17 17 35 17 17 35 17 17 35 17 17 35 17 17 35 17 15 35 17 17 35 17 17 35 17 17 35 17 17 36 18 16 35 17 17 35 17 17 35 17 17 35 17 17 35 17 17 34 16 16 35 17 17 35 17 17 35 17 17 36 18 18 34 16 16 35 17 17 35 17 17 35 17 17 35 17 17 35 17 17 35 17 17 35 17 17 35 17 17 35 17 17 35 17 17 35 17 17 35 17 17 35 17 17 35 17 17 35 17 17 35 17 17 35 17 17 35 17 17 35 17 17 34 16 16 35 17 17 35 17 17 35 17 17 35 17 17 35 17 17 35 17 15 34 16 16 34 16 16 36 18 18 25 6 8 24 5 7 24 5 7 27 8 10 35 17 15 36 16 17 92 68 22 103 75 25 102 76 25 102 77 23 102 77 23 102 77 23 103 76 23 102 77 23 103 78 24 103 78 24 102 77 23 102 77 23 102 77 23 102 77 23 103 78 24 102 77 23 102 77 23 102 76 25 102 76 25 103 78 24 103 76 23 102 71 7 103 69 5 102 70 9 102 76 25 102 77 23 102 77 23 102 77 23 101 76 22 102 77 23 102 76 25 
35 17 17 35 17 17 35 17 17 34 16 16 35 17 17 35 17 17 35 17 17 36 18 18 35 17 15 36 18 16 35 17 17 35 17 17 35 17 17 35 17 17 35 17 17 35 17 17 35 17 17 35 17 17 35 17 17 35 17 17 35 17 17 35 17 17 35 17 17 35 17 17 34 16 16 35 17 17 35 17 17 34 16 16 35 17 17 35 17 17 35 17 17 35 17 17 35 17 17 35 17 17 36 18 18 36 18 18 35 17 17 35 17 17 35 17 17 35 17 17 35 17 17 35 17 17 35 17 17 35 17 17 35 17 17 36 18 18 34 16 16 35 17 17 35 17 15 35 17 17 35 17 17 36 16 17 35 15 16 35 17 17 35 17 17 35 17 15 35 17 17 35 17 17 35 17 17 36 18 16 35 17 15 35 16 18 35 17 17 23 4 6 24 5 7 24 5 7 29 9 11 35 17 17 36 18 16 96 70 21 104 77 24 102 76 25 104 76 26 103 75 25 103 76 23 102 74 24 104 77 24 102 76 25 102 77 23 102 77 23 103 78 24 103 76 23 104 77 24 103 78 24 102 77 23 103 75 27 103 75 25 103 78 24 104 77 24 101 76 22 102 71 7 102 68 4 103 71 10 103 78 24 102 77 23 102 77 23 102 76 25 103 77 26 102 76 25 103 77 26 
35 17 17 35 17 17 35 17 17 35 17 17 34 16 16 34 16 16 35 17 17 35 17 17 36 18 16 36 18 16 36 18 18 35 17 17 35 17 17 35 17 17 35 17 17 35 17 17 35 17 17 35 17 17 34 16 16 35 17 17 35 17 17 35 17 17 35 17 17 35 17 17 34 16 16 35 17 17 35 17 17 35 17 17 35 17 17 35 17 17 35 17 17 35 17 17 35 17 17 35 17 17 35 17 17 35 17 17 35 17 17 35 17 17 35 17 17 35 17 17 35 17 17 35 17 17 35 17 17 35 17 17 35 17 17 35 17 17 35 17 17 34 16 16 35 17 15 35 17 17 35 17 17 35 17 17 35 17 17 34 16 16 35 17 17 35 17 15 35 17 17 35 17 17 35 17 17 35 17 15 35 17 17 35 17 17 33 15 15 23 4 6 24 5 7 24 5 7 30 10 11 34 16 14 37 19 15 98 72 23 103 76 23 103 78 24 103 76 23 103 76 23 103 75 25 103 76 23 102 76 25 103 78 24 102 76 25 102 76 25 103 78 24 102 76 25 102 76 25 102 77 23 103 78 24 103 78 24 102 76 25 102 77 23 102 77 23 102 77 23 101 71 7 103 69 5 101 69 8 102 77 23 103 76 23 103 76 23 102 76 25 102 76 25 102 76 25 103 77 26 
36 18 18 35 17 17 34 16 16 35 17 17 35 17 17 35 17 17 35 17 17 35 17 17 35 17 15 34 16 14 35 17 17 34 16 16 35 17 17 35 17 17 35 17 17 36 18 18 35 17 17 35 17 17 35 17 17 35 17 17 36 18 18 35 17 17 35 17 17 35 17 17 35 17 17 35 17 17 35 17 17 35 17 17 35 17 17 35 17 17 35 17 17 35 17 17 35 17 17 36 18 18 35 17 17 34 16 16 35 17 17 35 17 17 35 17 17 35 17 17 35 17 17 35 17 17 35 17 17 34 16 16 36 18 18 35 17 17 34 16 16 35 17 17 35 17 17 35 17 17 35 17 17 36 16 17 36 16 17 35 17 17 35 17 17 36 18 18 35 17 17 35 17 17 35 17 15 36 18 16 35 17 17 34 16 16 33 15 15 25 6 8 23 4 6 24 5 7 29 10 12 35 17 17 39 21 19 97 71 22 102 76 25 102 77 23 103 75 25 103 75 25 103 78 24 102 76 25 102 77 23 102 76 25 102 77 23 102 77 23 103 76 23 102 77 23 103 78 24 104 76 26 103 76 21 102 76 25 102 77 23 104 77 24 103 75 25 102 76 25 101 69 8 102 69 2 101 69 8 102 77 23 100 74 23 102 77 23 103 77 26 102 76 25 102 76 25 102 76 25 
35 17 17 35 17 17 35 17 17 35 17 17 35 17 17 35 17 17 35 17 17 35 17 17 35 17 15 35 17 15 35 17 17 35 17 17 35 17 17 34 16 16 35 17 17 35 17 17 35 17 17 36 18 18 35 17 17 34 16 16 35 17 17 35 17 17 35 17 17 35 17 17 35 17 17 35 17 17 35 17 17 35 17 17 35 17 17 35 17 17 35 17 17 37 19 19 35 17 17 35 17 17 35 17 17 36 18 18 35 17 17 35 17 17 35 17 17 35 17 17 35 17 17 34 16 16 35 17 17 35 17 17 35 17 17 35 17 17 36 18 18 35 17 17 36 18 18 35 17 17 35 17 17 35 17 17 35 17 17 36 18 18 34 16 16 35 17 17 35 17 17 36 18 18 36 18 16 35 17 15 35 17 17 36 18 18 32 14 14 24 5 7 24 5 9 24 5 7 31 12 14 35 17 17 39 21 17 100 74 23 102 76 25 103 77 26 102 77 23 102 76 25 102 76 25 102 76 25 102 77 23 102 77 23 102 77 23 102 76 25 102 77 23 102 77 23 102 76 25 102 77 23 102 77 21 103 78 24 102 77 23 102 77 23 104 77 24 102 77 23 102 70 9 102 68 4 101 69 8 102 77 23 102 77 23 102 77 23 102 76 25 102 76 25 102 76 25 103 77 26 
36 18 18 35 17 17 35 17 17 36 18 18 36 18 18 35 17 17 35 17 17 35 17 17 34 16 14 35 17 15 35 17 17 35 17 17 36 18 18 35 17 17 35 17 17 35 17 17 35 17 17 35 17 17 34 16 16 35 17 17 35 17 17 35 17 17 35 17 17 36 18 18 36 18 18 35 17 17 35 17 17 35 17 17 35 17 17 35 17 17 35 17 17 35 17 17 35 17 17 34 16 16 36 18 18 35 17 17 35 17 17 34 16 16 35 17 17 35 17 17 35 17 17 35 17 17 34 16 16 35 17 17 35 17 17 36 18 18 35 17 17 35 17 17 35 17 17 35 17 17 36 18 18 35 17 17 34 16 16 35 17 17 36 18 18 35 17 17 35 17 17 36 18 18 35 17 15 34 16 14 34 16 16 35 17 17 32 14 14 23 4 6 22 3 5 23 4 6 32 14 14 36 18 18 43 24 18 102 76 25 102 77 23 102 77 23 101 75 24 102 77 23 102 77 23 102 77 23 102 76 25 102 76 25 102 76 25 103 78 24 102 77 23 102 77 23 102 77 23 102 76 25 102 77 23 102 77 23 102 77 23 102 76 25 103 78 24 102 77 23 102 72 8 102 68 4 101 69 8 102 77 23 104 77 24 103 76 23 102 76 25 101 75 24 102 76 25 102 76 25 
35 17 17 34 16 16 35 17 17 35 17 17 35 17 17 35 17 17 35 17 17 34 16 16 35 17 15 35 17 15 35 17 17 35 17 17 36 18 18 35 17 17 34 16 16 35 17 17 35 17 17 35 17 17 35 17 17 35 17 17 35 17 17 35 17 17 35 17 17 35 17 17 34 16 16 35 17 17 35 17 17 35 17 17 36 18 18 35 17 17 35 17 17 36 18 18 35 17 17 35 17 17 35 17 17 35 17 17 34 16 16 36 18 18 35 17 17 35 17 17 35 17 17 35 17 17 35 17 17 35 17 17 35 17 17 35 17 17 35 17 17 35 17 17 35 17 17 35 17 17 34 16 16 35 17 17 36 18 18 35 17 17 36 18 18 35 17 17 35 17 17 35 17 17 35 17 15 35 17 17 35 17 17 35 17 17 30 12 12 24 5 7 25 4 9 24 5 7 32 14 14 34 16 16 44 24 17 102 77 23 102 77 23 102 76 25 102 77 23 101 75 24 102 76 25 101 75 24 103 78 24 102 77 23 102 77 23 103 77 26 103 78 24 103 76 23 103 76 23 103 78 24 102 77 23 103 76 23 104 77 24 102 77 23 102 77 23 104 79 25 101 70 6 103 68 4 104 72 11 103 78 24 103 78 24 103 78 24 103 77 26 102 76 25 101 75 24 103 77 26 
35 17 17 34 16 16 35 17 17 36 18 18 35 17 17 35 17 17 36 18 18 35 17 17 35 17 15 35 17 15 36 18 18 35 17 17 35 17 17 34 16 16 34 16 16 35 17 17 35 17 17 36 18 18 35 17 17 35 17 17 34 16 16 35 17 17 35 17 17 35 17 17 35 17 17 35 17 17 35 17 17 35 17 17 35 17 17 35 17 17 35 17 17 35 17 17 35 17 17 35 17 17 35 17 17 35 17 17 35 17 17 35 17 17 35 17 17 36 18 18 34 16 16 35 17 17 35 17 17 35 17 17 35 17 17 34 16 16 36 18 18 35 17 17 36 16 17 36 18 18 35 17 17 35 17 15 35 17 15 35 17 17 34 16 16 35 15 16 36 18 18 36 18 18 35 17 15 35 17 17 35 17 17 35 17 15 30 11 13 24 5 7 25 5 7 23 4 6 32 13 15 35 17 15 49 29 18 102 77 23 103 78 24 103 78 24 102 76 25 102 77 23 102 76 25 102 77 23 102 76 25 102 77 23 101 75 24 102 77 23 102 76 25 102 77 21 102 76 25 102 76 25 102 76 25 102 77 23 102 77 23 102 76 25 103 76 21 102 77 23 101 70 6 102 68 4 102 70 9 104 78 27 104 79 25 102 77 23 102 76 25 102 76 25 102 76 25 102 76 25 
35 17 17 35 17 17 35 17 17 36 18 18 35 17 17 35 17 17 35 17 17 35 17 17 36 18 16 35 17 15 35 17 17 35 17 17 36 18 18 34 16 16 35 17 17 35 17 17 35 17 17 35 17 17 35 17 17 34 16 16 35 17 17 34 16 16 35 17 17 36 18 18 34 16 16 35 17 17 35 17 17 35 17 17 35 17 17 35 17 17 35 17 17 35 17 17 34 16 16 35 17 17 35 17 17 35 17 17 35 17 17 34 16 16 35 17 17 35 17 17 36 18 18 35 17 17 35 17 17 35 17 17 35 17 17 35 17 17 35 17 17 34 16 16 35 17 17 33 15 15 35 17 17 35 17 15 35 17 15 35 17 17 35 17 17 35 17 17 35 17 17 35 17 17 35 17 15 35 16 18 35 17 17 35 17 13 28 9 11 25 6 8 25 5 7 24 5 7 31 15 15 37 17 16 52 33 19 103 75 25 102 77 23 103 78 24 102 77 23 102 76 25 102 77 23 102 76 25 102 77 23 102 76 25 102 77 23 101 75 24 103 75 27 102 77 23 103 78 24 103 76 23 103 75 25 103 78 24 102 77 23 103 76 23 102 76 25 102 76 25 102 70 9 103 68 2 102 70 9 103 78 24 102 76 25 102 77 23 102 76 25 102 76 25 103 77 26 102 76 25 
35 17 17 35 17 17 34 16 16 35 17 17 35 17 17 35 17 17 35 17 17 35 17 17 35 17 17 35 17 17 35 17 17 35 17 17 34 16 16 36 18 18 35 17 17 35 17 17 35 17 17 35 17 17 35 17 13 35 17 17 35 17 15 35 17 17 35 17 17 35 17 15 35 17 17 35 17 17 35 17 17 34 16 16 35 17 17 34 16 16 34 16 16 35 17 17 34 16 16 35 17 17 34 16 16 35 17 17 35 17 17 35 17 17 35 17 17 35 17 17 35 17 17 35 17 17 36 18 18 35 17 17 35 17 17 35 17 17 35 17 17 35 17 17 35 17 17 35 17 17 34 16 16 35 17 17 34 16 16 35 17 17 35 17 17 35 17 17 35 17 17 35 17 17 36 18 16 35 17 15 35 17 17 34 16 16 29 10 12 24 5 7 23 4 8 24 5 7 35 15 14 34 16 16 56 35 16 102 77 23 103 75 25 102 77 21 102 77 21 102 77 23 102 77 21 103 78 24 102 76 25 102 76 25 101 76 22 102 76 25 102 76 25 103 78 24 102 76 25 102 76 25 102 77 23 102 76 25 101 75 24 102 76 25 102 76 25 102 76 25 102 70 9 102 68 4 101 69 8 102 77 23 102 76 25 101 76 22 102 76 25 102 76 25 102 77 23 101 75 24 
35 17 17 35 17 17 35 17 17 35 17 17 35 17 17 35 17 17 35 17 17 35 17 17 35 17 17 35 17 17 35 17 17 36 18 18 34 16 16 35 17 17 35 17 17 35 17 17 35 17 15 35 17 17 35 17 17 35 17 17 35 17 15 35 17 15 35 17 15 34 16 16 35 17 17 34 16 16 35 17 17 35 17 17 36 18 18 34 16 16 35 17 17 35 17 17 35 17 17 34 16 16 35 17 17 35 17 17 35 17 17 35 17 17 35 17 17 35 17 17 34 16 16 35 17 17 34 16 16 34 16 16 35 17 17 35 17 17 35 17 17 36 18 18 35 17 17 36 16 17 35 17 15 35 17 17 35 17 15 35 17 17 36 16 17 35 17 17 36 18 18 35 17 17 34 16 16 35 17 17 34 16 16 35 17 17 28 9 11 24 5 7 24 5 9 24 5 7 35 15 16 35 17 17 62 40 19 102 77 23 103 76 23 102 77 23 103 78 24 101 75 24 103 78 24 102 76 25 102 76 25 103 78 24 102 76 25 103 78 24 102 76 25 102 77 23 102 76 25 102 76 25 102 77 23 102 76 25 102 76 25 102 76 25 103 75 25 102 76 25 101 70 6 102 68 4 101 69 8 102 76 25 102 76 25 103 75 25 102 76 25 103 75 25 102 76 25 102 76 25 
35 17 17 34 16 16 35 17 17 35 17 17 35 17 17 36 18 18 35 17 17 35 17 17 35 17 17 34 16 16 35 17 17 35 17 17 35 17 17 34 16 16 36 18 18 35 17 17 35 17 17 36 18 16 35 16 18 36 18 16 35 17 17 34 16 16 35 17 15 35 17 17 35 17 17 35 17 17 35 17 17 35 17 17 35 17 17 35 17 17 35 17 17 34 16 16 35 17 15 35 17 15 35 17 15 36 18 16 35 17 15 34 16 14 35 17 15 35 17 15 35 17 17 35 17 17 35 17 17 35 17 17 34 16 16 34 16 16 35 17 17 35 17 17 35 17 17 35 17 17 36 16 17 35 17 15 35 17 17 36 16 15 35 17 17 35 17 17 35 17 17 35 17 17 35 17 17 35 17 15 35 17 15 35 17 15 28 9 11 24 5 7 24 5 7 25 6 8 34 14 15 35 17 17 67 45 21 102 76 25 103 75 25 102 76 25 102 76 25 101 75 24 102 77 23 102 76 27 102 76 25 102 77 23 102 76 25 102 77 23 102 76 25 102 77 23 101 75 24 101 75 24 102 76 25 102 76 25 102 76 25 102 76 25 103 75 25 102 76 25 101 69 10 102 68 4 101 69 8 102 77 23 102 76 25 103 76 23 102 76 25 102 77 23 102 76 25 102 76 25 
35 17 17 34 16 16 35 17 17 35 17 17 35 17 17 34 16 16 35 17 17 35 17 17 34 16 16 35 17 17 35 17 17 35 17 17 35 17 17 35 17 17 35 17 17 35 17 17 35 17 17 35 17 17 34 16 16 35 17 17 35 17 17 34 16 16 35 17 17 35 17 17 36 18 18 34 16 16 36 18 18 35 17 17 34 16 16 35 17 17 35 17 17 34 16 16 35 17 17 35 17 17 34 16 16 34 16 16 35 17 17 35 17 17 35 17 17 35 17 17 35 17 17 35 17 17 35 17 17 35 17 17 35 17 17 36 18 18 35 17 17 35 17 17 35 17 17 35 17 17 35 17 17 34 16 16 35 17 17 34 16 16 35 17 17 35 17 17 35 17 17 35 17 17 34 16 16 35 17 17 34 16 14 36 18 18 27 9 9 23 4 6 24 5 9 24 5 7 34 14 15 34 16 14 69 48 21 103 77 26 102 76 25 102 77 23 103 77 26 102 76 25 101 75 24 101 75 24 102 76 25 102 77 23 101 76 22 102 77 23 103 77 26 102 76 25 102 76 25 101 75 24 101 75 24 102 76 25 102 76 25 101 75 24 102 76 25 102 76 25 102 70 9 101 67 3 102 70 9 102 76 25 101 75 24 102 76 25 102 76 25 102 76 25 102 76 25 102 76 25 
35 17 17 34 16 16 35 17 17 35 17 17 35 17 17 34 16 16 35 17 17 35 17 17 35 17 17 35 17 17 35 17 17 35 17 17 35 17 17 35 17 17 34 16 16 35 17 17 34 16 16 35 17 17 35 17 17 35 17 17 35 17 17 36 18 18 36 18 18 35 17 17 35 17 17 35 17 17 34 16 16 35 17 17 35 17 17 34 16 16 35 17 17 35 17 17 35 17 17 35 17 17 35 17 17 35 17 17 34 16 16 35 17 17 37 19 19 35 17 17 35 17 17 35 17 17 35 17 17 35 17 17 35 17 17 35 17 17 34 16 16 34 16 16 35 17 17 35 17 17 35 17 17 34 16 16 35 17 17 34 16 16 35 17 17 35 17 17 35 17 17 35 17 17 35 17 15 35 16 18 36 18 16 35 17 17 26 7 9 24 5 7 24 3 8 25 6 8 34 14 15 34 16 14 74 51 20 102 77 23 102 76 25 102 77 23 102 76 25 101 75 24 102 76 25 101 75 24 101 75 24 102 76 25 100 75 21 102 77 23 102 76 25 102 76 25 102 76 25 101 75 24 102 76 25 102 76 25 103 77 26 102 76 25 102 76 25 102 76 25 101 71 9 102 68 4 101 69 8 101 75 24 102 76 25 102 76 25 102 76 25 102 76 25 103 77 26 102 76 25 
35 17 17 35 17 17 33 15 15 36 18 18 35 17 17 35 17 17 35 17 17 35 17 17 35 17 17 36 18 18 35 17 17 35 17 17 35 17 17 35 17 17 33 15 15 35 17 17 35 17 17 35 17 17 34 16 14 35 17 17 35 17 17 34 16 16 35 17 17 35 17 15 35 17 17 34 16 16 35 17 17 35 17 17 35 17 17 34 16 16 34 16 16 35 17 17 35 17 15 35 17 15 35 17 15 35 17 15 35 17 15 35 17 15 35 17 15 35 17 15 36 18 18 35 17 17 34 16 16 35 17 17 35 17 17 35 17 17 35 17 17 34 16 16 35 17 17 35 17 17 36 16 17 35 17 15 35 17 17 36 16 15 35 17 17 35 17 17 35 17 17 35 17 17 35 17 15 35 17 17 35 17 15 34 16 16 25 6 8 24 5 7 24 4 6 26 7 9 37 17 18 35 17 17 77 54 22 101 76 22 101 75 24 103 77 26 101 75 24 101 75 24 101 75 24 101 75 24 102 76 27 101 75 24 102 76 25 101 75 24 101 75 24 102 76 25 102 76 25 102 76 25 100 74 23 102 76 25 102 77 23 102 76 25 102 76 25 102 76 25 100 70 10 99 68 3 101 69 8 103 78 24 101 75 24 102 77 23 101 75 24 101 75 24 101 76 22 102 76 25 
35 17 17 35 17 17 35 17 17 35 17 17 35 17 17 35 17 17 35 17 17 35 17 17 35 17 17 34 16 16 35 17 17 35 17 17 35 17 17 34 16 16 35 17 17 35 17 17 36 18 16 35 17 17 35 17 17 35 17 17 35 17 17 35 17 13 35 16 18 35 17 17 35 17 17 35 17 17 35 17 17 35 17 17 35 17 17 35 17 17 34 16 16 34 16 16 34 16 16 36 18 18 34 16 16 35 17 17 35 17 17 34 16 16 34 16 16 34 16 16 35 17 17 35 17 17 35 17 17 35 17 17 35 17 17 35 17 17 36 18 18 35 17 17 35 17 17 36 16 17 35 17 15 35 17 17 35 17 15 35 17 17 36 16 17 35 17 17 35 17 17 35 17 17 35 17 17 35 16 18 36 18 16 35 17 17 24 5 7 23 4 6 25 4 9 26 7 9 36 16 17 35 17 17 80 56 22 101 75 24 102 76 25 101 76 22 102 76 25 101 75 24 102 76 25 102 76 25 102 76 27 101 75 24 102 76 25 102 76 25 101 75 24 101 75 24 101 75 24 101 76 22 101 75 24 101 75 24 102 77 23 102 76 25 102 76 25 102 76 25 100 72 7 100 69 4 101 69 8 101 75 24 103 77 26 102 76 25 102 76 25 102 74 24 102 76 25 102 76 25 
35 17 17 34 16 16 35 17 17 34 16 16 35 17 17 35 17 17 35 17 17 35 17 17 35 17 17 35 17 17 35 17 17 34 16 16 35 17 17 34 16 16 35 17 17 35 17 17 34 16 16 35 17 15 35 17 17 35 17 15 35 17 17 35 17 17 36 18 16 35 17 17 35 17 17 35 17 17 35 17 17 35 17 17 35 17 17 35 17 17 35 17 17 35 17 17 34 16 16 35 17 17 35 17 17 34 16 16 35 17 17 36 18 18 35 17 17 35 17 17 34 16 16 34 16 16 35 17 17 35 17 17 35 17 17 35 17 17 35 17 17 35 17 17 35 17 17 35 17 17 34 16 16 35 17 17 34 16 16 35 17 17 35 17 17 35 17 17 35 17 17 35 17 17 35 17 17 35 17 17 35 17 15 34 16 14 23 4 6 24 5 7 24 4 6 27 9 9 35 15 14 34 15 17 81 57 19 101 75 24 101 76 22 101 75 24 101 75 24 102 77 23 101 75 24 102 76 25 102 76 25 101 75 24 102 76 25 101 75 24 102 76 25 101 75 24 102 76 25 102 77 23 102 76 25 101 75 24 102 77 23 102 76 25 102 76 25 102 76 25 101 71 9 102 68 4 103 69 8 102 77 23 102 76 25 101 76 22 102 76 25 102 77 23 101 75 24 102 76 25 
34 16 16 35 17 17 35 17 17 35 17 17 36 16 17 35 17 17 35 17 17 35 17 17 34 16 16 34 16 16 35 17 17 35 17 17 35 17 17 34 16 16 36 18 18 35 17 17 35 15 16 34 16 16 35 17 17 35 17 17 35 17 17 34 16 16 35 17 17 35 17 17 35 17 17 35 17 17 35 17 17 35 17 17 34 16 16 36 18 16 35 17 17 34 16 16 35 17 17 34 16 16 35 17 17 35 17 17 35 17 17 34 16 16 35 17 17 35 17 17 37 15 17 36 16 17 36 16 17 34 16 16 35 17 17 34 16 16 35 17 17 34 16 16 35 17 17 35 17 17 35 17 17 35 17 15 35 17 15 35 17 17 35 17 17 35 17 17 35 17 17 34 16 16 34 16 16 34 16 16 35 17 17 34 16 16 25 6 8 24 5 7 23 4 6 28 10 10 35 17 17 36 16 17 85 61 23 102 76 25 102 75 22 101 75 24 102 76 25 102 76 25 101 75 24 102 76 25 102 76 25 102 76 25 102 77 23 102 77 23 102 76 25 101 76 22 101 75 24 102 76 25 101 75 24 101 75 24 103 78 24 101 75 24 101 75 24 100 74 23 100 70 8 100 69 4 100 70 8 102 76 25 101 75 24 102 76 25 101 75 24 102 77 23 102 76 25 102 76 25 
35 17 17 35 15 16 35 17 17 35 17 17 34 16 16 35 15 16 35 17 17 34 16 16 35 17 17 35 17 17 35 17 17 34 16 16 35 17 17 35 17 17 35 17 17 35 17 17 34 16 16 35 17 17 35 17 17 34 16 16 34 16 16 35 17 17 36 18 18 35 17 17 35 17 17 35 17 17 34 16 16 35 17 17 35 17 17 35 17 17 35 17 17 34 16 14 34 16 16 35 17 17 35 17 17 35 17 17 35 17 17 35 17 17 35 17 17 34 16 16 35 17 17 35 17 17 36 18 18 35 17 17 35 17 17 35 17 17 34 16 16 35 17 17 35 17 17 34 16 16 35 17 17 35 17 17 35 17 17 34 16 16 35 17 17 34 16 16 35 17 17 35 17 17 35 17 17 35 17 17 35 17 17 34 16 16 24 5 7 24 5 7 22 6 7 28 9 11 35 17 17 36 16 15 87 62 21 102 76 25 101 75 24 101 75 24 101 75 24 101 75 24 102 76 25 102 76 25 102 76 25 102 76 25 102 76 25 102 76 25 102 76 25 102 77 23 101 75 24 101 76 22 101 75 24 101 75 24 101 75 24 102 76 25 102 76 25 101 75 24 101 71 9 100 69 4 101 71 9 102 77 23 101 75 24 102 77 23 102 76 25 101 75 24 102 76 25 102 76 25 
35 17 17 34 16 16 35 17 17 35 17 17 37 15 17 34 16 16 35 17 17 35 15 16 34 16 16 34 16 16 35 17 17 35 17 17 35 17 17 35 17 17 35 17 17 35 17 17 32 16 16 35 17 17 34 16 16 36 16 17 35 15 16 35 17 17 35 17 17 35 17 17 34 16 16 35 17 17 35 17 17 36 18 16 36 18 18 35 17 17 35 17 17 35 17 17 35 17 17 34 16 16 35 17 17 34 16 16 34 16 16 34 16 16 36 18 18 34 16 16 36 18 18 34 16 16 35 17 17 34 16 16 35 17 17 35 17 17 34 16 16 35 17 17 36 18 18 34 16 16 34 16 16 35 17 17 34 16 16 34 16 16 35 17 17 35 17 17 35 17 17 35 17 17 35 17 17 35 17 17 34 16 16 34 16 16 24 5 7 23 4 6 24 5 7 28 10 10 36 16 17 38 18 17 92 65 22 102 76 25 102 74 24 101 75 24 101 75 24 102 76 25 101 75 24 102 76 25 101 75 24 102 76 25 101 75 24 100 74 23 102 77 23 101 75 24 102 76 25 102 77 23 101 75 24 102 76 25 102 76 25 102 76 25 102 76 25 101 75 24 100 70 8 100 69 4 100 70 10 101 75 24 102 76 25 101 75 24 103 77 26 101 75 24 102 76 25 102 77 23 
35 17 17 36 16 17 35 17 17 34 16 16 35 17 17 36 16 17 35 17 17 35 17 17 35 17 17 35 17 17 35 17 17 34 16 16 35 17 17 35 17 17 33 15 15 35 17 17 36 16 17 35 17 17 35 17 17 35 17 17 35 17 17 34 16 16 35 17 17 35 15 16 35 17 17 35 17 17 34 16 16 34 16 16 35 17 17 35 17 17 34 16 14 36 18 18 35 17 17 36 18 18 35 17 17 34 16 16 34 16 16 35 17 17 35 17 17 34 16 16 35 17 17 35 17 17 35 17 17 35 17 17 35 17 17 35 17 17 35 17 17 35 17 17 34 16 16 34 16 16 35 17 17 35 17 17 35 17 17 35 17 17 35 17 17 34 16 16 34 16 16 35 17 17 35 17 17 35 17 17 36 18 18 33 15 15 24 5 7 24 5 7 25 6 8 29 10 12 36 16 17 39 20 16 94 67 24 102 76 25 101 75 24 102 76 25 101 76 22 101 75 24 102 76 25 101 75 24 101 75 26 102 76 25 101 75 24 101 75 24 101 75 24 102 77 23 101 75 24 101 75 24 102 76 25 101 75 24 101 75 24 101 76 22 101 75 24 101 75 24 100 70 8 100 69 4 100 70 8 102 76 25 102 77 23 102 77 23 102 76 25 101 75 24 102 76 25 102 77 23 
35 17 17 35 17 17 34 16 16 35 17 17 35 17 17 35 17 17 33 15 15 35 17 17 35 17 17 34 16 16 35 17 17 35 17 17 34 16 16 35 17 17 35 17 17 34 16 16 35 17 17 35 17 17 34 16 16 35 17 17 35 17 17 34 16 16 35 17 17 35 17 17 34 16 16 35 17 15 35 17 17 35 17 17 35 17 17 35 17 17 35 17 17 34 16 16 35 17 17 35 17 17 35 17 17 33 15 15 35 17 17 35 17 17 35 17 17 35 17 17 34 16 16 35 17 17 34 16 16 35 17 17 35 17 17 35 17 17 36 18 18 35 17 17 35 17 15 35 17 17 34 16 16 35 17 17 34 16 16 35 17 17 35 17 17 35 17 15 35 17 17 34 16 16 35 17 17 35 17 17 35 17 17 33 15 15 24 5 7 24 5 7 24 4 5 29 10 12 35 15 16 40 22 18 98 71 24 101 75 24 102 74 24 102 75 20 102 77 23 101 75 24 102 77 23 102 76 25 102 76 27 101 75 24 101 75 24 102 76 25 102 77 23 102 77 23 102 76 25 101 76 22 101 75 26 101 75 24 102 76 25 102 76 25 102 77 23 102 76 25 100 70 6 101 70 5 100 70 8 101 75 24 102 76 25 101 75 24 102 76 25 102 76 25 102 76 25 101 75 24 
35 17 17 35 17 17 35 17 17 33 15 15 34 16 16 35 17 17 36 18 18 34 16 16 34 16 16 35 17 17 34 16 16 35 17 17 35 17 17 35 17 17 35 17 17 35 17 17 36 16 17 35 17 17 35 17 17 35 17 17 35 17 17 34 16 16 35 17 17 35 17 17 35 17 17 34 16 16 34 16 16 34 16 16 35 17 15 34 16 16 35 17 17 33 15 15 35 17 17 34 16 16 35 17 17 35 17 17 35 17 17 35 17 17 35 17 17 35 17 17 35 17 17 35 17 17 34 16 16 34 16 16 35 17 17 34 16 16 35 17 17 35 17 17 35 17 17 35 17 17 35 17 17 35 17 17 35 17 17 35 17 17 35 17 17 35 17 17 34 16 16 35 17 17 35 17 17 35 17 17 35 17 17 33 15 15 23 4 6 23 4 6 24 5 7 30 11 15 35 17 15 42 23 17 100 74 23 101 75 24 102 76 25 102 77 23 102 76 25 101 75 24 102 77 23 102 77 23 102 77 23 102 77 23 101 75 24 101 75 24 101 75 24 102 76 25 101 75 24 101 75 24 101 76 22 101 75 24 101 75 24 102 77 23 100 74 23 101 75 24 100 70 8 99 68 3 100 70 10 100 74 23 100 74 23 101 75 24 102 76 25 101 75 24 102 76 25 102 76 25 
35 17 17 34 16 16 34 16 16 35 17 17 35 17 17 35 17 17 35 17 17 35 17 17 36 18 18 34 16 16 34 16 16 35 17 17 34 16 16 35 17 17 35 17 17 35 17 17 34 16 16 35 17 17 35 17 17 36 16 17 36 16 17 35 17 17 35 17 17 35 17 17 35 17 15 36 18 18 34 16 16 34 16 16 34 16 16 35 17 17 34 16 16 35 17 17 36 18 18 35 17 17 35 17 17 35 17 17 34 16 16 34 16 16 35 17 17 34 16 16 35 17 17 35 17 17 35 17 17 35 17 17 35 17 17 34 16 16 34 16 16 35 17 17 34 16 16 35 17 17 35 17 17 35 17 15 34 16 14 36 18 18 35 17 17 34 16 16 34 16 16 36 18 18 36 18 18 35 17 17 34 16 16 32 14 14 24 5 7 24 5 7 23 4 8 31 11 12 35 17 15 44 25 18 102 74 24 101 73 23 99 76 24 102 74 24 100 74 23 101 75 24 102 76 25 101 75 24 102 76 25 101 75 24 102 76 25 101 75 24 101 76 22 102 77 23 101 75 24 103 78 24 102 76 25 100 74 23 101 75 24 102 76 25 101 75 24 102 77 23 101 71 9 100 69 4 101 71 9 101 75 24 102 76 25 102 76 25 102 76 25 102 76 25 101 75 24 102 76 25 
34 16 16 35 17 17 34 16 16 35 17 17 35 17 17 36 18 18 34 16 16 35 17 17 34 16 16 35 17 17 34 16 16 35 17 17 35 17 17 35 17 17 35 17 17 35 17 17 35 17 17 35 17 17 35 17 17 35 17 17 35 17 17 34 16 16 34 16 16 36 16 17 35 17 17 34 16 16 35 17 15 34 16 16 35 17 17 34 16 16 35 17 17 35 17 17 34 16 16 34 16 16 35 17 17 35 17 17 35 17 17 34 16 16 35 17 17 34 16 16 36 14 16 35 15 16 36 16 17 34 16 16 34 16 16 34 16 16 35 17 17 34 16 16 36 18 18 34 16 16 35 17 17 34 16 16 35 17 17 34 16 16 35 17 17 34 16 16 34 16 16 34 16 16 35 17 17 34 16 16 35 17 17 32 14 14 24 5 7 24 5 7 24 5 7 31 13 13 36 18 18 47 27 16 101 75 24 102 74 24 101 75 24 101 75 26 101 75 24 101 75 24 101 75 24 101 75 24 101 75 24 101 75 24 101 76 22 101 75 24 101 75 24 101 76 22 102 76 25 101 75 24 100 74 23 101 75 24 102 77 23 102 76 25 101 75 24 102 76 25 100 70 8 99 68 3 100 70 8 102 76 25 101 75 24 102 76 25 102 76 25 102 76 25 102 76 25 101 75 24 
34 16 16 35 17 17 35 17 17 35 17 17 35 17 17 35 17 17 35 17 17 35 17 17 34 16 16 35 17 17 34 16 16 34 16 16 34 16 16 35 17 17 34 16 16 35 17 17 35 17 17 35 17 17 35 17 17 35 17 17 35 17 17 35 17 17 35 17 17 34 16 16 35 17 17 36 18 18 35 17 17 36 18 18 34 16 16 35 17 17 35 17 17 34 16 16 35 17 17 35 17 17 34 16 16 35 17 17 35 17 17 35 17 17 35 17 17 35 17 17 34 16 16 35 17 17 34 16 16 34 16 16 35 17 17 35 17 17 35 17 17 35 17 17 35 17 17 35 17 17 35 17 17 34 16 16 34 16 16 34 16 16 36 18 18 35 17 17 34 16 16 35 17 17 35 17 17 35 17 17 35 17 17 30 12 12 24 5 7 23 4 6 24 5 7 32 12 13 34 16 16 39 20 14 59 34 14 68 44 16 81 57 21 91 67 23 97 71 22 100 74 23 101 76 22 101 75 26 101 75 24 103 75 25 102 77 23 101 75 24 102 76 25 101 75 24 102 76 25 102 77 23 102 75 22 99 76 24 102 74 24 102 77 23 101 75 24 102 76 25 99 69 7 100 69 4 100 70 10 101 75 24 101 75 24 102 76 25 102 76 25 101 75 24 100 74 23 102 76 25 
35 17 17 35 17 17 35 17 17 35 17 17 34 16 16 34 16 16 35 17 17 35 17 17 35 17 17 34 16 16 35 17 17 34 16 16 34 16 16 34 16 16 34 16 16 36 18 18 35 17 17 35 17 17 34 16 16 34 16 16 35 17 17 35 17 17 35 17 17 35 17 17 35 17 17 35 17 17 35 17 17 35 17 17 35 17 17 35 17 17 35 17 17 35 17 17 34 16 16 34 16 16 35 17 17 35 17 17 36 18 18 34 16 16 34 16 16 35 17 17 35 17 17 36 18 18 35 17 17 34 16 16 35 17 17 35 17 17 34 16 16 34 16 16 34 16 16 34 16 16 34 16 16 34 16 16 34 16 16 35 17 17 35 17 17 35 17 17 35 17 17 34 16 16 34 16 16 35 17 17 35 17 17 30 12 12 24 5 7 25 6 8 23 4 6 33 15 15 35 17 15 32 14 14 24 5 7 24 5 7 24 6 6 25 7 7 29 8 7 36 16 9 56 35 14 80 56 20 98 72 23 101 76 22 102 74 24 101 75 24 102 74 24 102 76 25 100 77 25 102 74 26 101 75 24 103 75 25 101 75 24 102 76 25 101 75 24 102 76 25 100 70 8 102 68 4 102 70 9 102 76 25 102 76 25 102 77 23 102 76 25 101 75 24 102 76 25 102 76 25 
34 16 16 33 15 15 34 16 16 35 17 17 35 17 17 35 17 17 35 17 17 34 16 16 35 17 17 34 16 16 34 16 16 36 18 18 35 17 17 34 16 16 34 16 16 33 15 15 34 16 16 34 16 16 34 16 16 36 18 18 35 17 17 36 18 18 34 16 16 34 16 16 34 16 16 36 18 18 35 17 17 34 16 16 35 17 17 34 16 16 35 17 17 35 17 17 35 17 17 35 17 17 35 17 17 35 17 17 34 16 16 34 16 16 35 17 17 35 17 17 36 18 18 34 16 16 35 17 17 35 17 17 34 16 16 34 16 16 34 16 16 36 18 18 35 17 17 35 17 17 35 17 17 34 16 16 36 18 18 35 17 17 35 17 17 35 17 17 34 16 16 34 16 16 35 17 17 35 17 17 35 17 17 30 12 12 24 5 7 23 4 6 25 4 9 32 14 14 37 17 16 31 13 13 25 5 7 24 5 7 23 4 6 24 5 7 25 5 6 23 5 5 24 5 7 25 5 7 30 10 11 61 40 13 97 71 22 101 75 24 101 75 24 102 75 22 101 75 24 102 75 22 101 75 26 101 76 22 102 76 25 102 74 24 102 76 25 101 75 24 100 70 8 102 68 4 101 69 10 101 75 24 103 78 24 103 77 26 101 75 24 102 76 25 101 75 24 100 74 23 
34 16 16 35 17 17 35 17 17 34 16 16 35 17 17 35 17 17 35 17 17 35 17 17 34 16 16 35 17 17 34 16 16 35 17 17 34 16 16 35 17 17 36 18 18 34 16 16 35 17 17 35 17 17 35 17 17 35 17 17 35 17 17 35 17 17 35 17 17 35 17 17 34 16 16 35 17 17 35 17 17 35 17 17 34 16 16 35 17 17 35 17 17 34 16 16 36 18 18 35 17 17 34 16 16 35 17 17 34 16 16 35 17 17 35 17 17 35 17 17 34 16 16 34 16 16 34 16 16 35 17 17 34 16 16 35 17 17 35 17 17 35 17 17 35 17 17 35 17 17 35 17 17 34 16 16 34 16 16 35 17 17 34 16 16 34 16 16 35 17 17 34 16 16 35 17 17 35 17 17 34 16 16 29 11 11 24 5 7 24 5 7 24 4 6 33 15 15 36 16 17 30 11 13 23 4 8 24 5 7 22 6 9 24 4 6 24 5 7 24 5 9 24 5 7 24 5 7 25 5 6 24 5 7 34 13 8 87 64 22 101 75 24 101 75 24 102 76 25 101 75 24 101 76 22 101 76 22 101 75 24 101 75 24 102 76 25 101 75 24 100 70 6 100 69 5 100 70 10 102 76 25 101 75 24 101 75 24 101 75 24 101 75 24 101 75 24 102 76 25 
34 16 16 35 17 17 35 17 17 34 16 16 35 17 17 35 17 17 35 17 17 35 17 17 36 18 18 35 17 17 35 17 17 34 16 16 35 17 17 36 18 18 35 17 17 34 16 16 35 17 17 34 16 16 34 16 16 34 16 16 34 16 16 35 17 17 34 16 16 35 17 17 34 16 16 34 16 16 35 17 17 36 18 18 34 16 16 35 17 17 35 17 17 35 17 17 34 16 16 35 17 17 35 17 17 33 15 15 35 17 17 35 17 17 35 17 17 34 16 16 36 18 18 34 16 16 35 17 17 35 17 17 35 17 17 34 16 16 35 17 17 34 16 16 34 16 16 34 16 16 35 17 17 34 16 16 34 16 16 35 17 17 35 17 17 35 17 17 35 17 17 35 17 17 35 17 17 35 17 17 35 17 17 27 9 9 23 4 6 23 4 6 25 5 7 33 15 15 36 16 17 31 13 13 25 6 10 24 5 7 23 4 6 23 4 6 23 4 6 24 5 7 24 5 7 25 5 6 24 4 6 24 4 6 24 5 7 30 10 9 81 59 20 101 75 26 101 75 24 101 75 24 101 75 24 102 76 25 102 76 25 101 75 26 101 75 24 101 75 24 100 70 8 102 68 4 101 69 8 101 75 24 101 75 24 101 75 24 101 75 24 101 75 24 101 75 24 103 77 26 
33 15 15 34 16 16 34 16 16 35 17 17 34 16 16 35 17 17 35 17 17 34 16 16 34 16 16 34 16 16 35 17 17 35 17 17 35 17 17 34 16 16 34 16 16 35 17 17 34 16 16 34 16 16 35 17 17 35 17 17 35 17 17 35 17 17 34 16 16 34 16 16 34 16 16 35 17 17 33 15 15 34 16 16 35 17 17 35 17 17 33 15 15 35 17 17 34 16 16 35 17 17 35 17 17 34 16 16 34 16 16 34 16 16 35 17 17 35 17 17 35 17 17 35 17 17 34 16 16 35 17 17 35 17 17 34 16 16 35 17 17 34 16 16 35 17 17 35 17 17 35 17 17 36 18 18 34 16 16 35 17 17 35 17 17 35 17 17 35 17 17 34 16 16 34 16 16 35 17 17 35 17 17 27 9 9 24 5 7 24 5 7 23 4 6 34 16 14 35 17 17 22 9 16 13 3 14 11 3 14 15 2 12 16 3 10 21 4 10 22 3 7 24 5 7 24 5 9 24 5 7 24 5 7 25 5 7 25 5 7 34 13 10 88 64 20 102 77 23 101 75 26 101 76 22 101 75 24 102 75 22 101 75 24 100 74 23 101 75 26 99 69 7 101 67 3 102 70 11 101 75 24 102 76 25 100 74 23 102 76 25 100 74 23 100 74 23 101 75 24 
35 17 17 34 16 16 35 17 17 34 16 16 34 16 16 34 16 16 35 17 17 34 16 16 34 16 16 35 17 17 34 16 16 34 16 16 34 16 16 34 16 16 34 16 16 34 16 16 34 16 16 35 17 17 34 16 16 35 17 17 35 17 17 34 16 16 35 17 17 34 16 16 35 17 17 34 16 16 35 17 17 34 16 16 34 16 16 35 17 17 34 16 16 34 16 16 34 16 16 35 17 17 35 17 17 35 17 17 34 16 16 35 17 17 34 16 16 35 17 17 35 17 17 35 17 17 34 16 16 33 15 15 34 16 16 35 17 17 35 17 17 35 17 17 35 17 17 35 17 17 35 17 17 34 16 16 34 16 16 34 16 16 34 16 16 34 16 16 34 16 16 35 17 17 35 17 17 34 16 16 35 17 17 27 9 9 23 4 6 23 4 6 24 5 7 34 14 15 35 17 17 20 7 17 9 0 17 9 0 17 8 0 16 9 0 17 9 0 17 10 2 17 14 2 12 21 4 10 23 4 6 24 5 7 22 6 7 24 5 7 23 4 8 47 25 12 101 73 23 102 77 23 99 76 24 100 75 21 100 74 23 101 75 24 101 75 26 100 74 23 100 70 8 99 68 4 100 70 10 100 74 23 101 75 24 99 73 22 101 75 24 102 76 25 101 75 24 102 76 25 
34 16 16 35 17 17 34 16 16 34 16 16 35 17 17 36 18 18 34 16 16 34 16 16 33 15 15 34 16 16 36 18 18 34 16 16 35 17 17 35 17 17 35 17 17 34 16 16 35 17 17 34 16 16 35 17 17 34 16 16 35 17 17 34 16 16 34 16 16 34 16 16 35 17 17 35 17 17 35 17 17 35 17 17 35 17 17 36 18 18 35 17 17 34 16 16 35 17 17 34 16 16 34 16 16 34 16 16 35 17 17 34 16 16 35 17 17 34 16 16 34 16 16 35 17 17 35 17 17 35 17 17 35 17 17 35 17 17 34 16 16 35 17 17 35 17 17 36 18 18 34 16 16 34 16 16 34 16 16 35 17 17 35 17 17 35 17 17 35 17 17 34 16 16 35 17 17 35 17 17 35 17 17 26 8 8 23 4 6 24 5 7 25 6 8 34 16 16 34 16 16 17 7 16 8 1 17 8 1 17 6 2 17 8 2 16 8 0 16 8 2 16 8 1 17 8 1 17 16 3 12 24 3 8 23 4 6 25 5 7 25 6 8 25 6 8 82 59 18 100 77 25 101 75 24 100 74 23 98 75 23 102 77 23 101 75 24 102 76 25 100 70 8 100 66 2 101 69 10 102 76 25 101 75 24 101 75 24 101 75 24 102 76 25 102 76 25 101 75 24 
35 17 17 34 16 16 34 16 16 34 16 16 35 17 17 35 17 17 35 17 17 34 16 16 34 16 16 35 17 17 35 17 17 34 16 16 34 16 16 35 17 17 35 17 17 34 16 16 34 16 16 34 16 16 35 17 17 35 17 17 34 16 16 35 17 17 34 16 16 34 16 16 34 16 16 34 16 16 35 17 17 35 17 17 34 16 16 34 16 16 34 16 16 34 16 16 34 16 16 35 17 17 34 16 16 35 17 17 35 17 17 35 17 17 35 17 17 34 16 16 35 17 17 35 17 17 34 16 16 35 17 17 34 16 16 34 16 16 36 18 18 35 17 17 34 16 16 34 16 16 35 17 17 35 17 17 35 17 17 35 17 17 35 17 17 35 17 17 34 16 16 34 16 16 35 17 17 35 17 17 35 17 17 26 7 9 24 5 7 24 5 7 25 6 8 36 16 15 35 17 17 17 5 15 10 2 13 18 2 12 16 3 12 10 2 13 8 1 17 8 0 16 8 1 17 7 0 16 9 0 17 18 2 12 24 5 7 23 4 6 24 5 7 25 6 8 53 32 15 99 76 24 101 75 24 100 75 21 100 77 25 100 74 23 101 75 24 101 75 24 100 70 8 99 68 4 99 69 9 101 75 24 101 75 24 101 75 24 101 75 24 102 76 25 102 76 25 101 75 24 
35 17 17 34 16 16 34 16 16 34 16 16 35 17 17 35 17 17 35 17 17 34 16 16 35 17 17 35 17 17 34 16 16 34 16 16 35 17 17 34 16 16 34 16 16 35 17 17 34 16 16 34 16 16 36 18 18 35 17 17 34 16 16 35 17 17 33 15 15 34 16 16 35 17 17 35 17 17 35 17 17 35 17 17 33 15 15 33 15 15 35 17 17 34 16 16 34 16 16 34 16 16 34 16 16 34 16 16 34 16 16 34 16 16 35 17 17 35 17 17 34 16 16 34 16 16 35 17 17 35 17 17 35 17 17 35 17 17 35 17 17 33 15 15 35 17 17 35 17 17 34 16 16 34 16 16 34 16 16 34 16 16 35 17 17 35 17 17 34 16 14 35 17 17 34 16 16 34 16 16 35 17 17 25 6 8 24 5 7 24 5 7 26 6 8 33 15 15 30 12 12 25 6 8 23 4 8 24 6 6 24 5 7 24 3 8 12 1 15 8 1 17 8 1 17 9 2 18 8 1 17 12 1 15 22 6 9 24 4 6 24 5 7 23 4 6 31 12 8 94 70 22 100 75 21 101 75 24 100 74 23 100 75 21 102 74 26 101 75 24 99 69 7 101 67 4 99 69 7 101 75 24 102 76 25 100 74 23 101 75 24 101 75 24 101 75 24 100 75 21 
35 17 17 34 16 16 34 16 16 35 17 17 34 16 16 35 17 17 35 17 17 34 16 16 35 17 17 34 16 16 34 16 16 34 16 16 33 15 15 34 16 16 35 17 17 35 17 17 35 17 17 34 16 16 34 16 16 36 18 18 35 17 17 34 16 16 35 17 17 34 16 16 35 17 17 34 16 16 35 17 17 35 17 17 34 16 16 35 17 17 35 17 17 34 16 16 34 16 16 34 16 16 35 17 17 34 16 16 33 15 15 34 16 16 34 16 16 34 16 16 35 17 17 35 17 17 35 17 17 34 16 16 33 15 15 34 16 16 35 17 17 35 17 17 35 17 17 35 17 17 34 16 16 35 17 17 35 17 17 35 17 17 34 16 16 34 16 16 34 16 16 35 17 17 34 16 16 35 17 15 35 17 15 25 6 8 24 5 7 24 5 7 23 4 6 25 6 8 24 5 7 23 2 7 24 5 11 24 5 7 24 5 7 22 3 7 21 4 10 9 0 17 8 1 17 9 0 17 11 0 16 6 0 15 18 3 10 24 5 7 24 5 7 24 5 7 24 5 9 85 62 20 102 76 27 102 76 25 101 75 24 101 75 24 101 75 24 100 74 23 99 69 7 99 68 4 100 70 10 101 75 24 101 75 24 101 75 24 101 75 24 100 74 23 101 75 26 101 76 22 
35 17 17 34 16 16 34 16 16 35 17 17 34 16 16 35 17 17 35 17 17 34 16 16 35 17 17 35 17 17 35 17 17 34 16 16 35 17 17 35 17 17 34 16 16 34 16 16 34 16 16 35 17 17 34 16 16 34 16 16 35 17 17 34 16 16 35 17 17 35 17 17 34 16 16 35 17 17 36 18 18 34 16 16 34 16 16 33 15 15 34 16 16 35 17 17 36 18 18 35 17 17 35 17 17 34 16 16 35 17 17 34 16 16 33 15 15 34 16 16 34 16 16 35 17 17 35 17 17 35 17 17 34 16 16 34 16 16 35 17 17 35 17 17 34 16 16 34 16 16 35 17 17 34 16 16 34 16 16 35 17 17 35 17 17 35 17 17 34 16 16 35 17 17 34 16 16 34 16 16 35 17 15 25 6 8 23 4 6 24 5 7 24 5 7 24 5 7 23 4 6 25 7 7 24 5 9 26 4 7 25 5 7 22 4 4 24 4 6 9 1 16 8 0 16 8 1 17 8 1 17 8 1 17 18 2 12 25 6 10 25 5 7 24 5 7 24 5 7 80 56 18 101 75 26 98 75 23 101 75 24 99 76 24 102 74 24 101 75 24 100 70 8 102 68 4 99 69 9 101 75 24 102 76 25 102 76 25 101 75 24 101 75 24 101 75 24 101 75 24 
35 17 17 34 16 16 35 17 17 35 17 17 34 16 16 34 16 16 35 17 17 34 16 16 34 16 16 34 16 16 34 16 16 35 17 17 36 18 18 34 16 16 34 16 16 35 17 17 34 16 16 34 16 16 35 17 17 34 16 16 35 17 17 35 17 17 34 16 16 35 17 17 35 17 17 35 17 17 34 16 16 35 17 17 34 16 16 34 16 16 35 17 17 34 16 16 34 16 16 34 16 16 35 17 17 35 17 17 35 17 17 35 17 17 35 17 17 34 16 16 34 16 16 34 16 16 34 16 16 35 17 17 35 17 17 35 17 17 34 16 16 33 15 15 35 17 17 34 16 16 33 15 15 35 17 17 34 16 16 34 16 16 34 16 16 34 16 16 35 17 15 35 17 15 34 16 16 30 12 12 25 6 8 23 4 6 24 5 9 24 5 7 24 4 6 21 5 6 24 5 9 24 5 7 25 4 9 25 5 7 24 5 7 24 5 7 23 4 8 8 0 16 8 1 17 8 2 16 8 0 16 7 0 16 14 2 12 23 4 6 25 4 9 25 6 8 24 5 7 77 53 19 101 75 24 98 75 23 101 75 24 98 75 23 102 74 24 100 74 23 100 70 8 101 67 4 99 69 7 100 74 23 101 75 24 101 75 24 100 74 23 100 74 23 100 74 23 101 75 24 
34 16 16 34 16 16 35 17 17 35 17 17 34 16 16 34 16 16 35 17 17 35 17 17 35 17 17 34 16 16 34 16 16 34 16 16 34 16 16 34 16 16 35 17 17 35 17 17 35 17 17 34 16 16 35 17 17 34 16 16 34 16 16 35 17 17 35 17 17 34 16 16 34 16 16 34 16 16 35 17 17 36 18 18 34 16 16 35 17 17 35 17 17 35 17 17 35 17 17 35 17 17 34 16 16 34 16 16 34 16 16 34 16 16 35 17 17 36 18 18 36 18 18 34 16 16 34 16 16 34 16 16 34 16 16 34 16 16 34 16 16 35 17 17 34 16 16 35 17 17 35 17 17 35 17 17 34 16 16 34 16 16 34 16 16 34 16 16 31 13 13 26 7 9 25 6 8 24 5 7 23 4 6 23 4 6 23 4 6 23 4 6 24 5 7 24 5 7 24 4 6 24 5 7 22 3 5 23 4 6 24 5 7 22 3 7 12 2 13 9 0 17 9 0 19 8 1 17 7 0 16 8 1 17 16 3 13 24 3 8 24 5 7 23 4 6 23 4 6 77 53 17 103 78 24 101 75 24 99 76 24 102 77 23 102 76 25 101 75 24 99 69 7 99 68 4 100 70 10 101 75 24 101 75 24 101 75 24 101 75 24 101 75 24 100 75 21 101 75 24 
34 16 16 34 16 16 35 17 17 35 17 17 34 16 16 34 16 16 35 17 17 35 17 17 34 16 16 35 17 17 35 17 17 34 16 16 34 16 16 35 17 17 35 17 17 35 17 17 35 17 17 36 18 18 34 16 16 34 16 16 34 16 16 34 16 16 34 16 16 35 17 17 34 16 16 35 17 17 35 17 17 34 16 16 35 17 17 33 15 15 34 16 16 36 18 18 35 17 17 35 17 17 35 17 17 35 17 17 35 17 17 34 16 16 34 16 16 34 16 16 34 16 16 33 15 15 35 17 17 34 16 16 34 16 16 34 16 16 34 16 16 36 18 18 34 16 16 34 16 16 34 16 16 35 17 17 35 17 17 34 15 17 28 9 11 25 6 8 24 5 9 23 4 6 23 4 6 23 4 6 23 4 6 24 5 7 24 5 7 24 5 7 24 5 9 25 5 7 23 4 6 23 4 6 24 5 7 24 5 9 18 3 10 10 2 15 7 0 16 7 0 16 9 0 17 8 1 17 8 1 17 8 1 17 9 1 16 23 4 6 23 4 8 24 5 7 23 4 6 78 54 18 100 74 23 100 74 23 102 74 24 100 74 23 102 74 24 101 75 24 99 69 7 101 67 3 100 70 10 101 75 24 103 77 26 100 74 23 101 75 24 101 75 24 101 75 24 102 76 25 
34 16 16 34 16 16 35 17 17 35 17 17 34 16 16 34 16 16 35 17 17 35 17 17 35 17 17 34 16 16 35 17 17 35 17 17 34 16 16 34 16 16 35 17 17 33 15 15 35 17 17 34 16 16 34 16 16 34 16 16 34 16 16 35 17 17 34 16 16 35 17 17 35 17 17 34 16 16 34 16 16 35 17 17 34 16 16 34 16 16 35 17 17 35 17 17 34 16 16 34 16 16 34 16 16 35 17 17 35 17 17 35 17 17 35 17 17 35 17 17 34 16 16 34 16 16 34 16 16 34 16 16 34 16 16 34 16 16 33 15 15 34 16 16 34 16 16 35 17 17 33 15 15 31 13 13 26 7 9 24 5 7 23 4 6 23 4 6 23 4 6 23 4 6 23 4 6 23 4 6 23 4 8 23 4 6 24 5 7 24 5 9 24 5 7 24 3 8 25 7 7 21 5 8 16 3 12 9 0 17 9 1 16 8 1 17 8 1 17 7 0 16 8 0 16 9 0 17 9 0 17 7 1 15 8 0 16 21 5 8 24 5 7 23 4 8 23 4 8 81 58 17 101 75 24 101 75 24 102 75 22 101 75 26 101 75 24 101 75 24 100 70 8 99 68 4 99 69 9 101 75 24 101 75 24 101 75 24 100 74 23 101 75 24 101 75 24 101 75 24 
34 16 16 36 18 18 35 17 17 35 17 17 35 17 17 34 16 16 34 16 16 35 17 17 34 16 16 34 16 16 34 16 16 34 16 16 34 16 16 34 16 16 34 16 16 35 17 17 35 17 17 34 16 16 35 17 17 34 16 16 36 18 18 34 16 16 33 15 15 35 17 17 34 16 16 35 17 17 35 17 17 34 16 16 34 16 16 34 16 16 34 16 16 34 16 16 34 16 16 35 17 17 34 16 14 34 16 16 34 16 16 34 16 16 34 16 16 34 16 14 35 17 17 34 16 16 34 16 16 35 17 17 34 16 16 34 16 16 34 16 16 32 14 14 29 10 12 26 7 9 21 5 6 26 6 8 23 4 6 24 5 7 22 6 7 21 5 6 26 6 8 23 4 6 24 5 7 23 4 8 24 5 7 24 5 7 23 4 8 24 5 7 24 4 6 20 3 9 14 2 14 9 0 17 6 2 17 8 0 16 9 0 17 8 0 16 9 0 17 9 0 17 9 0 17 8 0 16 9 2 18 7 0 16 8 2 16 16 3 10 24 5 7 24 5 7 24 5 7 88 63 22 98 75 23 100 74 23 100 74 23 100 74 23 100 74 23 101 75 24 100 68 7 100 66 3 100 68 9 101 75 24 101 75 24 101 75 24 100 74 23 100 74 23 100 74 23 101 75 24 
35 17 17 35 17 15 35 17 15 35 17 17 35 17 15 34 16 14 35 17 17 34 16 14 35 17 17 35 17 17 35 17 17 34 16 16 35 17 17 34 16 16 35 17 17 35 17 17 34 16 16 34 16 16 34 16 16 34 16 16 34 16 16 35 17 17 35 17 17 35 17 17 34 16 16 34 16 16 35 17 17 35 17 17 35 17 17 35 17 17 35 17 17 35 17 17 35 17 15 34 16 16 35 17 15 34 16 16 34 16 16 35 17 17 35 17 17 35 17 15 33 15 15 34 16 16 32 14 14 30 12 12 28 10 10 27 8 10 24 5 7 24 5 7 24 5 9 24 5 7 25 5 7 23 4 8 23 4 10 24 5 7 24 5 7 23 5 5 23 4 6 23 4 6 23 4 6 24 5 7 23 4 6 24 5 7 23 4 8 18 2 12 12 1 15 9 1 16 8 1 17 7 0 16 8 0 16 11 0 16 8 1 17 7 0 16 8 0 16 8 1 17 9 0 17 8 1 17 8 1 17 7 0 16 7 1 15 15 2 12 24 5 7 24 5 7 27 9 9 92 68 24 100 74 23 100 74 25 101 75 24 101 75 24 102 77 23 101 76 22 100 70 10 100 69 5 101 69 10 102 74 24 101 76 22 101 75 24 101 75 24 101 75 24 101 75 24 100 74 23 
29 10 12 30 11 13 31 12 14 31 13 13 31 13 13 32 14 14 32 14 14 32 14 14 32 14 14 32 14 14 32 14 14 32 14 14 32 14 14 33 15 15 32 14 14 31 13 13 33 15 15 32 14 14 32 14 14 32 14 14 31 13 13 31 13 13 32 14 14 31 13 13 32 14 14 32 14 14 32 13 15 32 14 14 31 12 14 32 14 14 31 12 14 31 13 13 31 13 13 31 13 13 29 10 12 29 11 11 28 9 11 28 10 8 26 7 9 25 7 7 25 6 8 24 5 7 24 5 7 24 5 7 23 4 6 23 4 6 23 4 6 23 4 6 24 5 7 22 6 7 23 4 8 23 4 8 25 6 8 24 5 9 23 4 8 24 5 7 24 5 7 25 5 7 26 4 7 22 3 5 22 6 9 14 2 12 9 0 17 8 0 16 10 1 18 7 0 16 8 1 17 8 1 17 9 0 17 9 1 16 8 1 17 5 1 16 8 1 17 8 1 17 8 0 16 8 1 17 9 0 17 9 0 17 8 1 17 14 2 14 23 4 6 24 5 7 34 15 9 95 72 22 101 75 24 100 74 23 100 74 23 101 75 24 100 74 23 100 74 23 99 69 7 98 67 3 99 69 9 100 74 25 101 73 23 101 75 24 100 74 23 100 74 23 101 75 24 100 74 23 
23 4 6 23 4 6 23 4 6 23 4 6 24 5 7 23 4 6 23 4 6 23 4 6 23 4 6 24 5 7 23 4 6 23 4 6 23 4 6 23 4 6 23 4 6 23 4 6 24 5 7 22 3 5 24 5 7 24 5 7 24 5 7 24 5 7 24 5 7 24 5 7 23 4 6 22 3 5 24 5 7 24 5 7 24 5 7 24 5 7 24 5 7 23 4 6 24 5 7 24 5 7 23 4 6 24 5 7 23 4 6 23 4 6 24 5 7 23 4 6 24 5 7 22 3 5 23 4 6 24 5 7 24 5 7 23 4 6 24 5 7 24 5 7 23 4 6 24 5 7 23 4 6 24 5 7 24 5 7 24 5 7 23 4 6 23 4 6 23 4 6 23 4 6 18 2 12 13 1 15 8 0 16 8 1 17 8 2 16 8 1 17 8 1 17 8 2 16 8 1 17 8 1 17 9 0 17 8 0 16 8 1 17 8 1 17 8 1 17 9 0 17 8 1 17 8 1 17 8 0 16 8 2 16 8 0 16 14 2 14 24 5 7 25 5 7 42 22 11 100 74 23 101 75 24 101 75 26 100 75 21 100 74 23 100 75 21 101 75 24 99 69 7 102 68 5 100 68 9 100 74 23 98 75 23 101 76 22 100 74 23 101 75 24 101 75 24 101 75 24 
23 4 6 24 5 7 23 4 6 24 5 7 24 5 7 24 5 7 23 4 6 24 5 7 24 5 7 24 5 7 25 6 8 24 5 7 24 5 7 23 4 6 24 5 7 25 6 8 24 5 7 24 5 7 24 5 7 24 5 7 23 4 6 24 5 7 24 5 7 23 4 6 24 5 7 25 6 8 24 5 7 23 4 6 23 4 6 24 5 7 23 4 6 23 4 6 24 5 7 24 5 7 23 4 6 23 4 6 23 4 6 24 5 7 24 5 7 24 5 7 23 4 8 23 4 8 23 4 6 23 4 6 24 5 7 23 4 6 23 4 6 22 3 5 25 7 7 24 5 9 23 4 8 24 5 7 24 6 6 23 4 6 23 4 8 20 3 9 13 3 14 8 0 15 9 2 18 8 1 17 8 1 17 8 1 17 8 1 17 8 1 17 8 0 18 8 1 17 8 1 17 7 0 18 8 1 17 8 1 17 8 1 17 8 1 17 7 0 16 9 0 17 7 0 18 8 1 17 8 1 17 8 1 17 10 0 15 12 2 13 24 5 7 24 4 6 52 31 14 99 73 22 101 75 24 100 74 23 100 74 23 101 75 24 100 74 25 101 75 24 101 72 16 100 69 5 101 71 17 100 74 23 97 76 21 100 74 23 100 74 23 100 74 23 101 75 24 101 75 24 
23 4 6 23 4 6 24 5 7 23 4 6 24 5 7 24 5 7 24 5 7 23 4 6 23 4 6 23 4 6 23 4 6 23 4 6 24 5 7 23 4 6 23 4 6 24 5 7 23 4 6 24 5 7 23 4 6 23 4 6 24 5 7 23 4 6 24 5 7 24 5 7 24 5 7 23 4 6 24 5 7 23 4 6 24 5 7 23 4 6 23 4 6 23 4 6 23 4 6 23 4 6 24 5 7 24 5 7 23 4 6 24 5 7 24 5 7 24 5 7 24 4 6 23 4 6 23 4 6 23 4 6 23 4 6 24 5 7 24 5 7 23 4 6 23 4 8 24 5 7 24 5 7 24 5 9 20 3 9 15 2 12 9 1 16 7 3 18 8 1 17 8 1 17 8 0 16 8 0 16 9 2 18 8 0 16 9 1 16 6 2 17 9 0 17 8 1 17 8 1 17 8 1 17 8 1 17 8 1 17 8 1 17 8 0 16 8 2 16 8 1 17 8 0 16 8 1 17 8 1 17 8 1 19 8 1 17 11 0 14 23 4 8 23 4 6 60 38 15 99 73 22 100 75 21 102 76 25 100 74 23 100 74 25 101 75 24 100 74 23 98 75 23 101 73 23 100 74 23 100 74 23 101 75 24 102 76 25 101 75 24 101 75 24 101 75 24 101 75 24 
24 5 7 24 5 7 24 5 7 24 5 7 24 5 9 23 4 6 23 4 6 23 4 8 24 5 7 23 4 6 23 4 6 23 4 6 24 5 7 23 4 6 24 5 7 23 4 6 24 5 7 24 5 7 23 4 6 23 4 6 24 5 7 23 4 6 23 4 6 24 5 7 23 4 6 23 4 6 24 5 7 23 4 6 24 5 7 23 4 6 23 4 6 23 4 6 24 5 7 23 4 6 25 6 10 23 4 6 24 5 7 24 5 7 24 5 7 24 5 7 24 5 7 24 5 7 24 5 7 24 5 7 23 4 6 24 5 7 24 5 7 24 5 7 22 5 11 19 4 11 13 1 13 10 2 17 6 2 17 8 1 17 7 0 16 8 1 19 8 0 15 10 0 16 8 1 17 8 1 17 8 1 17 7 0 16 8 1 19 8 1 17 8 1 17 7 0 18 8 0 16 8 1 17 8 1 17 8 1 17 7 0 16 7 0 16 8 1 17 8 1 17 9 0 17 6 2 17 7 0 16 9 2 18 7 0 18 10 2 17 24 5 7 23 4 6 70 47 16 101 75 24 100 74 23 101 75 24 100 74 23 100 74 23 98 75 23 99 73 22 101 76 22 99 75 27 101 75 24 100 74 23 100 74 23 101 75 24 101 75 24 100 74 23 101 75 24 100 74 23 
24 5 7 24 5 7 24 5 7 23 4 6 24 5 7 24 5 7 22 3 5 23 4 6 23 4 6 23 4 6 24 5 7 23 4 6 24 5 7 23 4 6 23 4 6 23 4 6 22 3 5 24 5 7 23 4 6 23 4 6 23 4 6 24 5 7 23 4 6 23 4 6 23 4 6 23 4 6 25 6 8 23 4 6 24 5 7 23 4 6 24 5 7 23 4 6 24 5 7 23 4 6 23 4 8 23 4 6 23 4 6 23 4 6 25 6 8 23 4 6 24 5 7 23 4 6 23 4 6 23 4 8 20 3 9 16 3 12 14 2 14 12 1 15 9 1 16 8 1 17 8 1 17 8 1 17 9 0 17 9 1 16 9 0 17 7 0 16 8 2 16 8 1 17 7 0 16 8 2 16 7 0 16 8 1 17 8 1 17 7 0 16 8 0 16 9 0 17 8 0 16 7 0 16 9 1 14 9 0 17 7 0 16 7 0 16 8 1 17 8 1 17 7 0 18 9 0 17 9 0 17 8 1 17 8 0 16 9 0 17 25 5 7 23 4 6 77 53 19 101 73 23 100 74 23 102 74 26 100 74 23 99 73 24 101 76 22 100 75 21 99 73 22 101 76 22 101 73 23 100 74 23 100 74 23 98 75 23 100 74 23 100 74 23 100 74 23 100 74 23 
