P3
100 50
255
82 43 2 82 43 2 82 43 0 82 43 0 81 42 0 82 43 0 81 42 0 81 42 0 83 44 1 82 43 0 82 43 0 83 44 1 82 43 0 83 44 1 83 44 3 81 42 0 81 42 0 82 43 0 82 43 2 81 42 0 81 42 0 82 43 0 82 43 0 82 43 0 82 43 0 82 43 0 81 42 0 81 42 0 81 42 0 82 43 0 81 42 0 81 42 0 82 43 0 82 43 0 81 42 0 82 43 0 83 44 3 82 43 0 82 43 0 81 42 0 81 42 0 82 43 0 82 43 0 82 43 0 81 42 0 82 43 2 82 43 0 82 43 0 81 42 0 83 41 0 82 43 0 82 43 0 72 40 0 56 38 0 54 39 0 55 37 1 64 38 1 81 42 0 71 34 5 27 5 17 21 3 15 19 3 13 18 2 12 19 3 14 18 2 13 25 3 16 25 2 18 24 3 18 18 2 13 18 2 13 18 2 13 17 4 14 21 3 15 25 2 18 25 2 18 20 2 14 18 2 12 18 2 13 20 4 15 19 3 14 24 4 16 26 3 19 24 4 16 18 2 13 19 3 13 18 2 13 18 2 12 20 2 14 26 3 19 25 2 18 20 2 14 18 2 13 18 0 12 19 3 13 19 3 14 25 5 17 25 5 17 24 3 18 19 3 13 18 2 13 
82 43 2 82 43 0 82 43 0 82 43 0 80 41 0 81 42 1 82 43 0 83 44 1 82 43 0 83 44 1 81 42 0 82 43 4 81 42 0 82 43 2 82 43 2 82 43 0 82 43 2 81 42 1 81 42 1 82 43 0 82 43 2 82 43 0 82 43 0 83 44 1 81 42 0 82 43 0 82 43 0 82 43 0 81 42 0 82 43 0 82 43 0 81 42 0 82 43 0 82 43 0 81 42 0 82 43 0 81 42 1 81 42 0 82 43 2 82 43 0 82 43 2 82 43 0 82 43 0 81 42 0 84 42 0 81 44 2 81 42 0 82 43 0 83 44 3 83 41 0 84 42 0 82 43 0 57 37 0 54 38 2 56 38 2 55 37 0 77 42 0 83 41 0 52 22 12 25 2 18 20 2 14 19 3 13 18 2 12 18 2 13 18 2 13 25 3 16 25 2 18 24 3 18 18 2 12 18 2 13 17 1 12 19 3 14 20 2 14 25 5 17 25 2 18 21 3 15 18 2 13 19 3 14 19 3 14 18 2 13 24 4 16 25 2 18 25 5 17 19 3 14 19 3 14 18 2 13 19 3 14 21 3 15 26 3 19 27 4 20 20 2 14 19 3 14 18 2 13 18 2 12 18 2 13 24 4 16 26 4 17 24 3 18 18 2 12 18 2 13 
81 42 0 81 42 1 82 43 2 82 43 0 82 43 0 82 43 0 81 42 0 82 43 0 81 42 1 82 43 0 82 44 0 81 42 0 82 43 0 82 43 0 81 42 1 82 43 0 82 43 0 82 43 0 80 41 0 82 43 0 81 42 0 82 43 0 81 42 0 82 43 0 81 42 0 82 43 0 82 43 0 81 42 0 82 43 0 81 42 0 82 43 0 82 43 0 82 43 0 82 43 0 82 43 0 81 42 0 82 43 0 82 43 0 82 43 2 82 43 0 82 43 2 82 43 0 82 43 2 82 43 0 82 43 2 81 42 1 82 43 0 82 43 0 80 43 0 82 43 0 81 42 0 70 41 1 54 38 2 53 38 0 53 37 1 63 39 1 81 42 0 74 38 2 28 6 18 25 2 18 20 2 14 18 2 12 18 2 12 19 3 14 19 3 14 25 5 17 26 3 19 24 1 17 18 2 13 18 2 13 18 2 13 19 3 13 20 2 14 26 3 19 26 3 19 21 3 15 18 2 13 19 3 13 19 3 14 18 2 13 24 4 16 25 2 18 23 2 17 18 2 12 19 3 14 18 2 13 18 2 13 19 1 13 26 3 19 25 3 16 19 1 13 18 2 12 17 1 12 18 2 12 18 2 13 23 3 15 26 4 17 24 3 18 18 2 12 17 1 12 
81 42 0 81 42 1 81 42 0 81 42 0 82 43 0 82 43 2 82 43 0 82 43 0 81 42 0 82 43 2 82 43 0 82 43 0 81 42 1 82 43 0 82 43 0 81 42 3 81 42 0 80 41 0 81 42 1 81 42 0 83 44 1 81 42 0 81 42 1 81 42 1 82 43 0 83 44 1 81 42 1 82 43 2 82 43 0 82 43 2 81 42 0 82 43 2 81 42 1 81 42 0 82 43 2 81 42 0 81 42 0 82 43 0 82 43 0 82 43 0 82 43 2 82 43 0 81 42 1 83 44 1 82 43 2 82 43 2 81 42 0 81 42 0 83 44 1 81 42 0 78 43 1 56 38 0 53 37 1 53 38 0 56 38 2 75 42 1 82 43 0 46 19 10 25 2 18 26 3 19 21 3 15 19 3 13 18 2 12 18 2 13 18 2 13 25 3 16 26 3 19 24 3 18 18 2 12 18 2 13 18 2 13 19 3 14 20 4 15 25 3 16 25 4 19 20 2 14 19 3 13 19 3 14 19 3 13 18 2 12 24 4 16 26 3 21 24 4 16 17 1 12 18 2 13 19 3 13 19 3 14 20 2 14 25 3 16 25 3 16 20 2 14 20 4 14 19 3 14 20 4 14 18 2 12 24 4 16 26 3 19 24 4 16 19 3 13 19 3 14 
83 44 1 82 43 2 82 43 0 81 42 0 81 42 0 81 42 1 81 42 1 81 42 0 82 43 0 81 42 1 81 42 1 81 42 0 82 43 0 81 42 0 82 43 0 81 42 0 81 42 1 81 42 0 82 43 0 81 42 1 82 43 0 81 42 1 82 43 0 82 43 0 81 42 0 81 42 1 82 43 2 82 43 0 82 43 0 82 43 2 82 43 0 81 42 1 81 42 1 81 42 0 80 41 0 81 42 0 81 42 1 82 43 0 81 42 1 81 42 0 82 43 2 82 43 2 81 42 0 80 41 0 82 43 0 83 41 0 81 44 2 81 42 1 81 42 0 82 43 2 63 39 1 54 38 2 52 36 0 53 37 1 63 39 3 82 43 2 68 35 2 22 5 13 25 5 17 25 2 18 20 2 14 18 2 12 18 2 12 18 2 13 18 2 13 25 3 16 26 3 19 25 4 19 18 2 12 18 2 13 18 2 13 18 2 13 20 4 15 25 3 16 25 4 19 20 2 14 18 2 12 18 2 13 19 3 13 18 2 12 24 4 16 27 4 22 24 4 16 18 2 13 19 3 14 19 3 13 18 2 13 20 2 14 26 4 17 26 4 17 20 2 14 19 3 13 18 2 13 17 1 11 18 2 12 24 4 16 26 3 19 24 4 16 18 2 12 18 2 13 
83 44 5 81 42 0 82 44 0 81 42 1 81 42 0 82 43 0 82 43 2 82 43 2 81 42 1 82 43 0 81 42 0 82 43 0 82 43 0 81 42 1 81 42 0 82 43 0 81 42 0 81 42 1 81 42 0 80 41 0 81 42 1 81 42 1 82 43 2 83 44 3 81 42 0 81 42 1 81 42 1 82 43 0 81 42 0 81 43 0 81 42 1 81 42 0 82 43 0 82 43 2 82 44 0 82 43 0 81 42 0 82 43 0 82 43 2 83 44 1 82 43 2 81 42 1 81 42 1 80 41 0 82 43 0 83 41 0 81 44 2 80 43 0 81 42 1 70 41 1 53 37 3 52 36 0 53 38 0 57 37 0 79 44 2 80 43 1 30 10 11 19 3 14 25 2 18 26 4 17 20 2 14 18 2 12 19 3 13 19 3 14 18 2 13 24 4 16 26 3 19 24 1 17 18 2 13 18 2 13 19 3 14 18 2 12 20 2 14 25 2 18 25 2 18 20 2 14 18 2 13 18 2 12 18 2 13 19 3 14 24 4 16 25 2 18 24 3 18 18 2 12 18 2 13 19 3 14 19 3 14 20 2 14 25 2 18 25 3 16 20 2 14 18 2 12 19 3 14 19 3 13 18 2 12 24 4 16 26 3 19 25 3 16 19 3 13 18 2 13 
81 42 0 81 42 0 81 42 0 81 42 0 82 43 2 83 44 3 81 42 0 81 42 1 81 42 0 82 43 2 82 43 0 82 43 4 82 43 2 82 43 0 82 43 2 82 43 4 81 42 0 81 42 0 81 42 0 81 42 0 81 42 0 82 43 2 82 43 2 82 43 2 81 42 0 81 42 0 82 43 0 82 43 2 82 43 0 82 43 0 82 43 2 82 43 0 81 42 0 81 42 1 82 43 0 81 42 0 82 43 2 81 42 1 82 43 2 83 44 1 82 43 2 82 43 0 82 43 2 82 43 0 82 43 0 82 43 0 81 44 0 82 43 0 73 41 2 57 37 4 55 37 0 55 37 0 56 36 1 75 42 1 84 42 2 49 21 7 18 2 13 20 2 14 25 5 17 26 4 17 21 3 15 19 3 13 19 3 13 18 2 13 18 2 13 25 3 16 26 3 19 24 3 18 19 3 13 18 2 13 18 2 13 18 2 13 20 2 14 25 5 17 25 2 18 20 2 14 18 2 13 18 2 13 18 2 13 19 3 14 24 4 16 25 2 18 22 2 14 17 1 12 18 2 13 18 2 13 17 1 12 20 2 14 25 2 18 26 3 19 20 2 14 18 2 13 19 3 14 17 4 13 18 2 12 25 3 16 25 4 19 25 3 16 19 3 14 19 3 14 
81 42 0 81 42 0 81 42 1 81 42 0 82 43 0 82 43 2 81 42 1 82 43 0 81 42 1 81 42 1 80 41 0 81 42 0 81 42 1 82 43 0 82 43 0 81 42 1 81 42 1 82 43 0 82 43 0 81 42 1 81 42 1 81 42 0 82 43 0 82 43 2 81 42 1 81 42 1 82 43 2 81 42 1 82 43 2 81 42 1 81 42 1 81 42 1 80 41 0 81 42 1 81 42 1 81 42 1 80 41 0 81 42 1 81 42 0 82 43 0 82 43 0 81 42 1 81 42 1 81 42 0 81 42 1 82 43 0 83 41 1 75 42 1 56 38 0 55 37 1 53 37 1 55 37 1 68 40 1 81 42 0 69 34 4 20 4 14 18 2 13 21 3 15 25 4 19 25 3 16 21 3 15 18 2 12 18 2 12 18 2 13 18 2 13 25 3 16 26 3 19 23 2 17 18 2 13 18 2 13 19 3 14 17 4 14 20 2 14 27 4 20 26 3 19 21 3 15 19 3 13 19 3 14 18 2 13 18 2 13 24 4 16 26 3 19 23 3 15 18 2 13 18 2 12 19 3 14 18 2 12 21 3 15 26 3 19 26 3 19 21 3 15 18 2 13 18 2 13 16 3 13 18 2 12 25 3 16 25 4 19 24 2 15 18 2 13 18 2 12 
81 42 1 81 42 1 81 42 0 80 41 0 82 43 2 81 42 1 81 42 1 81 42 1 82 43 2 82 43 2 82 43 2 81 42 1 82 43 2 82 43 0 81 42 0 82 43 0 82 43 2 81 42 1 81 42 0 81 42 3 82 43 2 81 42 1 81 42 1 81 42 3 82 43 0 81 42 1 81 42 1 82 43 2 81 42 0 81 42 1 82 43 0 82 43 2 80 43 0 81 42 0 81 44 0 80 43 0 83 42 0 82 43 0 82 43 0 82 43 0 84 42 0 82 43 0 80 43 1 83 41 1 83 41 0 80 43 1 76 40 4 56 38 0 53 37 1 56 38 0 54 38 2 61 37 0 81 44 0 73 37 1 28 8 10 18 2 13 18 2 13 20 2 14 25 2 18 26 6 18 19 3 14 18 2 12 19 3 13 18 2 13 17 4 14 25 3 16 25 4 19 25 2 18 18 2 13 18 2 13 18 2 12 19 3 13 20 3 13 24 4 16 26 3 19 20 2 14 19 3 13 18 2 13 19 3 13 19 3 13 24 4 16 25 2 18 24 4 16 18 2 13 18 2 12 19 3 13 19 3 13 20 2 14 25 3 16 25 3 16 19 1 13 19 3 14 19 3 13 19 3 14 19 3 13 24 4 16 26 4 17 24 4 16 19 3 14 18 2 12 
82 43 0 82 43 0 81 42 1 81 42 0 81 42 1 81 42 1 82 43 2 82 43 2 81 42 1 82 43 2 81 42 1 82 43 2 82 43 2 82 43 2 82 43 2 81 42 1 82 43 0 82 43 2 81 42 1 81 42 0 81 42 0 82 43 2 80 41 0 82 43 0 81 42 1 81 42 1 82 43 0 81 42 0 81 42 0 81 42 0 83 44 3 81 42 1 80 41 0 81 42 0 83 41 0 81 42 1 83 41 1 82 43 4 82 43 2 81 42 1 81 42 1 82 44 0 81 42 1 81 42 1 85 43 3 74 42 1 58 38 1 53 37 1 53 37 1 53 37 1 57 37 0 79 42 0 78 40 3 30 9 8 18 2 12 19 2 12 18 2 13 22 2 13 25 2 18 26 3 19 19 3 14 18 2 12 18 2 12 18 2 13 19 3 14 25 3 16 26 3 19 24 3 18 19 3 14 19 3 14 18 2 12 18 2 12 20 4 14 25 3 16 26 3 19 20 2 14 19 3 13 19 3 14 19 3 14 19 3 13 24 4 16 25 2 18 24 4 16 18 2 12 18 2 12 18 2 12 18 2 12 21 3 15 25 3 16 26 4 17 20 2 14 19 3 14 19 3 13 19 3 14 18 2 12 24 4 16 25 3 16 24 4 16 18 2 13 18 2 12 
81 42 1 81 42 3 81 42 0 82 43 2 81 42 1 82 43 2 82 43 2 80 41 0 82 43 2 81 42 1 81 42 1 82 43 2 81 42 0 81 42 1 81 42 1 80 41 0 82 43 2 81 42 1 81 42 0 82 43 0 81 42 0 82 43 0 81 42 0 82 43 2 80 41 0 82 43 0 81 42 0 82 43 0 81 42 0 81 42 0 82 43 2 82 43 0 82 43 0 82 43 0 82 43 2 81 42 1 81 42 0 83 41 1 82 43 0 81 42 0 81 42 1 80 43 0 83 41 0 81 42 1 65 40 0 56 38 2 53 37 1 54 38 2 52 36 0 56 38 2 77 42 2 79 41 2 38 12 11 18 2 12 19 1 13 19 3 13 19 3 13 20 4 15 25 2 18 26 3 19 19 3 14 18 2 12 18 2 12 18 2 13 19 3 14 24 4 16 24 1 17 24 3 18 17 1 12 19 3 14 18 2 12 19 3 13 21 4 14 25 3 16 25 2 18 19 3 14 18 2 12 18 2 13 18 2 13 19 3 13 24 4 16 26 3 19 24 4 16 17 1 11 19 3 13 17 4 13 19 3 13 20 2 14 24 4 16 25 3 16 20 2 14 19 3 14 19 3 13 18 2 13 19 3 13 24 4 16 26 4 17 24 4 16 18 2 13 18 2 12 
81 42 0 81 42 1 81 42 1 82 43 0 82 43 2 80 41 0 82 43 2 82 43 2 81 42 1 82 43 2 81 42 1 81 42 1 81 42 0 81 42 0 81 42 1 81 42 0 82 43 0 81 42 1 82 43 4 82 43 0 81 42 0 81 42 0 81 42 1 81 42 1 82 43 0 81 42 1 81 42 0 82 43 0 83 41 0 80 41 0 81 42 1 83 44 1 81 42 1 81 42 1 81 44 2 82 43 2 81 42 1 81 42 1 82 44 0 81 42 1 81 42 0 82 43 0 75 42 1 61 39 0 55 37 1 54 38 2 55 37 1 55 37 1 61 39 0 78 41 0 75 40 2 37 11 14 23 3 15 16 3 13 18 2 12 17 1 12 19 2 12 21 4 14 24 3 20 25 4 19 19 3 14 18 2 12 19 3 13 18 2 13 17 4 14 24 4 16 25 2 18 24 3 18 19 3 14 19 3 14 18 2 12 18 2 12 20 3 13 24 4 16 26 3 19 20 2 14 18 2 12 18 2 12 18 2 13 19 3 14 24 4 16 25 2 18 23 3 15 18 2 12 17 1 11 17 1 11 18 2 12 20 4 15 26 4 17 26 4 17 17 4 14 19 3 14 19 3 13 18 2 13 18 2 12 24 4 16 25 3 16 24 4 16 18 2 13 19 3 13 
83 44 1 82 43 0 82 43 0 81 42 1 82 43 2 80 41 0 82 43 2 81 42 1 81 42 1 81 42 1 81 42 1 82 43 2 81 42 0 81 42 1 81 42 1 81 42 0 81 42 0 81 42 3 81 43 0 80 41 0 81 42 1 81 42 1 81 42 0 82 43 2 81 42 1 81 42 1 82 43 0 81 42 1 81 42 1 83 41 0 81 42 0 84 42 2 83 41 0 82 43 2 81 42 0 83 44 3 81 42 0 81 42 1 81 42 0 83 41 0 77 42 0 63 39 1 56 38 2 55 37 1 56 38 2 53 37 1 53 38 0 61 39 0 77 42 0 71 37 0 35 10 14 26 3 19 24 3 18 18 2 12 18 2 12 18 2 12 18 2 12 20 3 13 25 5 17 25 2 18 20 2 14 19 3 13 18 2 12 18 2 13 19 3 14 25 5 17 25 2 18 24 3 18 18 2 13 19 3 14 19 3 13 19 3 13 22 2 13 25 3 16 26 3 19 19 3 14 19 3 13 18 2 12 18 2 13 18 2 13 24 4 16 25 2 18 24 4 16 18 2 12 19 3 13 17 4 13 18 2 12 20 2 14 25 5 17 26 4 17 19 1 13 19 3 14 18 2 12 18 2 13 18 2 12 24 4 16 26 4 17 24 4 16 18 2 13 19 3 13 
81 42 1 82 43 2 82 43 0 80 41 0 81 42 1 82 43 2 81 42 1 82 43 2 82 43 2 81 42 1 81 42 1 81 42 1 81 42 1 82 43 0 82 43 2 82 43 0 81 42 1 82 43 0 81 43 0 81 42 1 81 42 1 81 42 1 81 42 1 81 42 0 82 43 0 82 43 2 82 43 2 80 41 0 82 43 0 81 42 0 81 42 0 80 43 1 81 42 0 81 42 1 81 42 0 81 44 2 80 43 0 84 42 0 76 41 1 65 40 0 54 38 2 53 37 1 55 37 0 53 37 1 53 37 1 56 38 0 69 40 0 80 41 0 60 28 5 23 7 10 24 2 15 26 2 18 23 2 17 19 3 14 19 3 14 17 4 13 18 2 13 20 4 15 25 5 17 25 3 16 19 3 14 20 4 14 16 3 12 19 3 14 18 2 13 24 4 16 26 3 19 24 3 18 18 2 13 18 2 13 18 2 12 19 3 13 19 3 13 26 4 17 27 4 20 20 2 14 18 2 12 18 2 13 18 2 13 18 2 12 24 4 16 25 2 18 24 4 16 19 3 13 18 2 12 18 2 12 19 3 13 19 3 14 26 4 17 26 4 17 20 4 15 18 2 13 19 3 13 18 2 13 18 2 12 24 4 16 26 4 17 24 4 16 19 3 14 19 3 13 
81 42 3 82 43 0 82 43 2 80 41 0 81 42 1 83 44 3 81 42 1 81 42 1 81 42 1 82 43 2 82 43 2 81 42 1 81 42 1 81 42 0 83 44 1 81 42 1 81 42 0 81 42 1 82 43 0 81 42 1 81 42 1 82 43 0 81 42 1 81 42 1 81 42 0 82 43 0 81 42 1 81 42 1 82 43 0 80 43 1 82 43 2 81 42 1 82 43 0 80 43 0 82 43 2 83 41 1 76 41 1 62 38 0 56 38 0 53 38 0 53 37 1 53 37 1 53 37 1 55 36 3 60 38 1 76 41 1 80 43 1 48 22 7 21 4 12 18 2 12 24 4 16 24 4 16 24 4 16 17 4 14 19 3 13 17 4 14 16 3 13 20 2 14 25 2 18 24 4 16 19 3 14 18 2 12 18 2 12 18 2 13 19 3 14 25 5 17 26 3 19 24 3 18 18 2 13 18 2 13 18 2 12 18 2 12 20 3 13 25 3 16 26 3 19 20 2 14 18 2 12 19 3 14 18 2 13 18 2 12 24 4 16 26 3 19 24 4 16 18 2 12 19 3 13 19 3 13 19 3 13 20 2 14 25 3 16 25 3 16 19 1 13 18 2 13 18 2 12 18 2 13 18 2 12 24 4 16 25 3 16 24 4 16 18 2 13 18 2 12 
81 42 0 80 41 0 81 42 0 81 42 1 82 43 2 81 42 1 81 42 1 82 43 2 81 42 1 82 43 2 81 42 1 81 42 1 83 44 3 81 42 0 82 43 0 82 43 2 81 42 1 81 42 0 82 43 0 81 42 1 81 42 0 82 43 2 81 42 1 81 42 1 80 41 0 81 42 3 82 43 0 82 43 0 81 42 0 82 43 2 82 43 2 81 42 0 81 42 0 77 42 0 68 38 0 58 38 1 54 36 0 53 37 1 55 37 1 55 37 1 55 36 3 55 36 3 56 38 0 70 43 0 81 42 3 68 33 5 29 9 10 18 2 13 18 2 12 18 2 12 24 4 16 26 3 19 22 4 16 19 3 13 18 2 13 18 2 12 19 3 13 19 3 14 25 3 15 26 3 19 20 2 14 18 2 12 18 2 12 17 4 14 19 1 13 24 4 16 25 2 18 24 3 18 17 1 12 19 3 14 18 2 12 18 2 12 21 4 14 25 5 17 26 3 19 21 3 15 18 2 12 19 3 14 18 2 12 19 3 13 24 4 16 26 3 19 24 4 16 19 3 14 18 2 12 19 3 13 19 3 13 19 1 13 25 3 16 25 3 16 20 2 14 18 2 13 19 3 13 19 3 14 19 3 13 24 4 16 25 3 16 23 3 15 18 2 13 18 2 12 
81 42 0 81 42 1 80 41 0 81 42 0 81 42 0 81 42 0 82 43 0 82 43 0 81 42 0 81 42 1 81 42 1 82 43 2 83 41 1 81 42 1 81 42 0 81 42 0 81 42 0 81 42 1 81 42 1 80 43 1 81 42 1 81 42 1 81 42 0 81 42 0 81 42 1 81 42 1 81 42 1 81 42 1 81 42 0 81 42 1 76 41 1 69 39 1 58 38 1 54 36 0 53 37 3 54 36 0 55 37 1 52 36 0 53 38 0 53 37 1 57 37 0 67 39 2 80 43 0 75 40 2 48 20 9 19 3 14 17 4 14 18 2 13 18 2 13 16 3 13 24 4 15 27 4 20 23 2 17 18 2 13 19 3 14 18 2 12 18 2 13 21 4 14 26 4 17 26 4 17 20 2 14 18 2 13 18 2 13 16 3 13 18 2 12 24 4 16 26 4 17 24 4 16 18 2 12 18 2 12 18 2 13 19 3 13 20 2 14 25 5 17 25 2 18 20 2 14 18 2 12 19 3 13 19 3 13 19 3 13 25 3 16 25 3 16 24 4 16 19 3 13 18 2 12 18 2 12 19 3 13 20 3 13 26 3 19 25 3 16 20 2 14 18 2 13 18 2 12 19 3 13 18 2 12 24 4 16 25 2 18 24 4 16 18 2 13 18 2 12 
81 42 1 81 42 0 82 43 0 81 42 3 82 43 2 81 43 0 81 42 0 82 43 2 81 42 1 82 43 0 81 42 0 81 42 1 82 43 0 81 44 2 81 42 1 82 43 2 81 42 1 82 43 2 81 42 1 80 43 1 82 43 0 81 42 0 82 43 2 79 42 0 81 42 0 80 43 1 74 40 2 69 40 0 63 41 0 58 38 1 56 38 2 52 36 0 55 37 1 53 37 1 53 37 1 53 37 1 52 36 0 52 36 0 57 37 0 70 41 1 80 43 1 74 38 2 48 20 9 29 6 16 24 2 15 19 3 14 19 3 13 18 2 12 19 3 13 18 2 12 25 3 16 26 3 19 23 3 15 19 3 14 18 2 13 19 3 13 18 2 13 20 3 11 26 4 17 26 3 19 19 3 14 18 2 13 18 2 13 16 4 14 18 2 12 24 4 16 25 5 17 24 4 16 19 3 13 18 2 13 18 2 12 19 3 14 20 3 13 25 4 19 27 5 18 20 2 14 20 4 14 18 2 13 18 2 12 18 2 13 25 3 16 25 2 18 23 3 15 19 3 14 19 3 13 18 2 12 18 2 12 20 3 13 24 3 18 25 5 17 19 1 13 18 2 13 16 3 12 19 3 14 18 2 12 23 3 15 25 3 16 24 4 16 18 2 13 19 3 13 
82 43 2 81 42 1 81 42 1 81 42 1 82 43 0 82 43 2 81 42 1 81 44 2 81 44 2 81 42 1 81 42 1 82 43 2 82 43 0 81 42 0 80 41 0 81 42 1 81 42 1 80 41 0 81 42 1 81 42 1 77 42 0 76 41 1 69 40 0 64 38 1 61 39 2 56 38 0 55 37 1 53 37 1 52 36 2 53 37 1 53 37 1 52 36 0 53 37 1 53 37 1 55 37 1 54 38 2 63 39 1 75 42 1 78 41 0 74 38 2 43 19 7 26 7 11 20 2 14 25 2 18 25 2 18 19 2 12 19 1 13 19 3 13 19 3 14 19 2 12 24 4 16 27 5 18 24 4 16 19 3 13 19 3 16 19 3 13 19 3 14 19 2 12 25 3 16 25 2 18 21 3 15 19 3 14 18 2 13 18 2 13 18 2 12 24 4 16 25 3 16 23 3 15 18 2 12 18 2 12 19 3 14 18 2 12 19 3 14 26 4 17 26 3 19 20 2 14 19 3 13 19 3 13 18 2 13 18 2 12 25 3 16 26 4 17 24 3 18 18 2 12 19 3 13 18 2 12 18 2 12 20 3 13 26 3 19 25 3 16 20 2 14 19 3 14 19 3 14 19 3 14 18 2 12 24 4 15 26 4 17 24 4 16 18 2 13 18 2 13 
73 41 2 73 41 2 72 40 1 73 41 2 73 41 2 72 40 1 73 41 2 72 40 1 69 40 0 69 39 1 69 39 1 69 39 1 67 39 0 68 38 0 65 40 0 63 39 1 61 39 2 58 38 3 56 38 0 55 37 0 53 37 1 53 37 1 53 38 0 53 37 3 53 37 3 53 37 1 53 37 1 53 37 1 53 38 0 53 37 1 55 37 1 55 37 1 56 38 0 64 39 0 70 41 1 80 43 0 80 41 0 68 33 5 41 17 7 19 3 14 18 2 13 17 1 11 20 3 13 25 2 18 24 1 17 20 2 14 17 4 14 18 2 13 19 3 13 19 3 13 25 3 16 25 5 17 23 3 15 19 3 13 19 3 14 19 3 13 19 3 14 20 2 14 25 3 16 25 2 18 20 2 14 19 3 14 19 3 14 18 2 13 18 2 12 24 2 15 25 3 16 23 3 15 19 3 13 18 2 13 18 2 13 18 2 13 19 3 13 25 3 16 26 4 17 21 3 15 19 3 13 18 2 12 18 2 12 18 2 13 24 2 15 25 2 18 23 3 15 19 3 14 17 1 11 18 2 12 18 2 12 20 3 13 25 2 18 26 6 18 20 2 14 19 3 14 18 2 13 18 2 13 19 3 13 25 5 17 26 4 17 23 3 15 18 2 13 20 3 13 
53 37 1 53 37 1 53 37 1 53 37 1 54 36 0 53 37 1 53 37 1 53 37 1 52 36 0 53 37 1 53 37 1 53 37 1 53 37 1 52 36 0 53 37 1 54 38 2 53 37 1 54 38 2 52 36 0 53 37 1 54 38 2 52 36 0 53 37 1 52 36 0 56 38 2 55 37 1 53 37 1 52 38 3 56 38 2 60 38 0 65 39 2 75 41 3 80 43 1 79 42 0 72 36 2 56 24 9 35 10 16 22 4 16 18 2 12 16 3 13 19 3 14 19 1 13 20 2 14 26 3 19 26 3 19 19 3 13 18 2 12 19 3 14 17 4 14 18 2 13 24 3 18 25 5 17 23 3 15 19 3 13 19 3 13 19 3 13 18 2 13 21 3 15 25 2 18 26 3 19 21 3 15 18 2 13 18 2 13 18 2 13 19 3 13 25 3 16 25 3 16 23 3 15 19 3 13 18 2 13 18 2 13 18 2 13 19 3 13 26 4 17 26 4 17 19 1 13 18 2 12 19 3 13 20 4 14 19 3 14 25 3 16 25 2 18 23 3 15 18 2 13 18 2 12 18 2 12 18 2 12 20 3 13 26 3 19 25 5 17 19 1 13 19 3 14 19 3 13 18 2 13 18 2 12 24 4 16 26 3 19 25 3 16 19 3 14 18 2 12 
53 37 1 52 36 0 53 37 1 53 37 1 52 36 0 53 37 1 53 37 1 55 37 1 55 37 1 52 36 0 53 37 1 53 37 1 55 37 1 55 37 1 53 37 1 53 37 1 53 37 1 54 38 2 53 37 1 55 37 1 53 37 1 51 35 0 53 37 1 53 37 1 56 38 0 60 38 0 68 40 0 73 41 0 79 44 2 81 42 1 80 43 0 75 40 2 59 29 5 36 16 9 20 3 11 25 4 19 26 4 17 22 4 16 19 2 12 17 1 11 18 2 12 18 2 13 20 3 13 25 2 18 24 4 16 19 3 14 18 2 12 18 2 12 18 2 13 19 3 13 24 4 16 26 4 16 23 3 15 18 2 12 20 4 14 18 2 12 18 2 13 21 3 15 25 2 18 26 3 19 20 2 14 19 3 14 19 3 14 18 2 13 18 2 12 23 3 15 25 3 16 24 4 16 19 3 13 18 2 12 18 2 13 18 2 12 19 3 14 26 4 17 26 3 19 20 2 14 18 2 12 18 2 12 18 2 13 18 2 12 24 4 16 26 4 17 24 3 18 18 2 12 18 2 12 19 3 13 18 2 12 20 3 13 26 3 19 26 4 17 19 1 13 18 2 13 18 2 12 19 3 13 19 3 14 24 4 16 26 3 19 24 2 15 18 2 13 18 2 12 
53 37 1 52 36 0 53 37 1 53 38 0 53 37 1 52 36 0 53 37 1 52 36 0 53 37 1 53 37 1 53 37 3 53 37 3 53 37 1 55 37 1 55 37 1 56 38 2 58 38 1 60 38 0 62 40 1 65 39 2 69 39 1 70 41 1 75 41 3 78 40 1 79 42 0 79 42 0 80 43 1 81 42 1 73 37 3 51 21 10 33 11 13 21 4 10 16 3 12 18 2 13 16 3 13 24 4 16 27 3 19 24 3 18 17 4 13 17 4 13 19 3 13 19 3 13 20 3 13 25 2 18 25 2 18 21 3 15 18 2 12 16 3 13 19 3 13 19 3 13 24 4 16 25 2 18 23 3 15 18 2 12 18 2 12 19 3 13 19 3 14 20 2 14 26 3 19 26 3 19 19 3 14 18 2 13 18 2 13 15 3 13 18 2 12 25 5 17 25 5 17 23 3 15 18 2 12 19 3 14 19 3 13 19 3 14 20 3 13 25 4 19 26 4 17 20 2 14 20 3 13 19 3 14 19 3 13 19 3 14 24 4 16 26 3 19 23 3 15 18 2 13 19 3 13 18 2 12 18 2 12 20 3 13 25 4 19 25 5 17 19 1 13 18 2 13 19 2 12 18 2 13 19 3 13 24 4 16 26 3 19 25 3 16 18 2 13 19 2 12 
75 42 1 73 41 0 73 41 0 73 41 2 74 42 1 74 42 1 73 41 0 74 42 1 75 43 2 74 41 0 76 41 1 77 42 0 77 42 0 80 43 1 81 42 0 84 42 0 81 42 0 81 42 0 81 42 0 81 42 0 81 42 0 82 43 0 80 43 1 81 42 0 78 40 1 61 29 4 47 20 9 31 9 12 26 2 18 26 4 17 19 3 14 18 2 12 19 2 12 16 3 13 18 2 13 24 4 16 26 4 17 24 4 16 17 1 11 18 5 15 19 3 13 18 2 13 22 2 13 25 3 16 25 2 18 20 2 14 20 2 14 16 3 12 19 3 13 19 2 12 25 3 16 25 2 18 23 3 15 19 3 13 18 2 12 19 3 13 18 2 13 20 2 14 26 3 19 26 3 19 20 2 14 18 2 13 18 2 13 17 4 14 17 1 11 24 4 16 26 4 17 24 4 16 18 2 12 18 2 12 18 2 13 19 3 13 20 2 14 25 5 17 25 2 18 20 2 14 19 2 12 19 3 13 19 3 13 18 2 12 24 4 16 26 4 17 24 4 16 18 2 12 19 3 13 18 2 12 19 3 13 20 3 13 25 2 18 25 3 16 20 2 14 18 2 13 19 3 14 19 3 14 19 3 13 23 3 15 24 2 15 26 2 16 19 3 14 18 2 13 
59 29 5 61 30 2 62 31 3 66 32 5 67 33 5 70 35 5 72 38 3 72 38 1 73 38 0 74 38 2 77 39 3 74 39 1 76 38 2 76 38 2 76 38 0 73 39 2 74 38 2 71 35 1 68 33 3 63 29 4 60 28 7 53 24 10 43 15 11 28 10 10 19 3 13 18 2 13 18 2 13 20 2 14 25 3 16 25 3 16 19 3 14 19 3 13 19 3 14 19 3 13 18 2 12 23 3 15 26 4 17 23 3 15 17 1 11 19 3 13 18 2 12 18 2 13 20 3 13 26 4 17 25 2 20 19 1 13 18 2 13 19 3 13 19 3 14 20 4 14 24 4 16 25 3 16 24 4 16 19 3 13 18 2 13 18 2 12 18 2 13 20 2 14 25 2 18 27 4 20 19 3 14 18 2 12 18 2 13 19 3 14 18 2 12 24 4 16 25 5 17 23 3 15 18 2 12 18 2 12 19 3 14 18 2 12 19 3 13 25 3 16 26 4 17 20 3 13 18 2 12 17 1 11 19 3 13 18 2 12 24 4 16 25 3 16 24 4 16 18 2 12 18 2 13 18 2 13 19 3 14 20 2 14 26 4 17 26 4 17 20 2 14 17 1 11 19 3 14 19 3 13 18 2 12 24 4 16 25 3 16 23 3 15 19 3 14 18 2 13 
21 4 14 20 4 14 16 3 12 18 2 13 18 2 12 24 4 16 26 4 17 24 2 15 20 4 14 21 4 12 21 4 10 22 5 11 23 6 16 27 6 15 29 6 16 21 4 14 19 3 13 17 1 11 18 2 12 19 1 13 24 4 16 24 4 16 24 1 17 16 3 12 15 3 13 18 2 15 19 3 13 20 2 14 25 5 17 26 4 17 19 3 14 18 2 12 18 2 13 19 3 13 18 2 12 25 3 16 25 3 16 23 3 15 18 2 12 18 2 12 18 2 12 18 2 13 19 2 12 25 3 16 25 3 16 20 2 14 19 3 14 16 3 13 18 2 12 18 2 13 24 4 16 23 5 17 24 4 16 19 3 13 19 3 14 17 1 11 18 2 13 21 3 15 26 3 19 25 2 18 19 3 14 18 2 13 19 3 13 18 2 12 18 2 12 24 4 16 23 3 15 24 3 18 18 2 12 18 2 12 18 2 13 18 2 12 19 3 13 26 4 17 26 4 17 21 4 14 18 2 13 18 2 13 19 3 14 18 2 13 24 4 16 25 2 18 23 3 15 18 2 13 19 2 12 18 2 12 19 3 13 20 2 14 25 3 16 25 3 16 20 4 15 18 2 13 18 2 13 19 3 13 18 2 12 23 3 15 25 3 16 24 4 16 18 2 13 19 3 14 
19 3 14 19 3 16 19 3 13 18 2 12 17 4 14 23 3 15 25 3 16 24 4 16 18 2 12 16 3 12 18 2 12 17 1 11 23 3 15 25 5 17 26 4 16 19 1 13 19 2 10 19 3 13 17 4 14 19 3 14 24 4 16 27 5 18 24 3 18 18 2 12 18 2 13 18 2 13 18 2 12 19 3 14 26 4 17 25 3 16 19 3 14 18 2 12 18 2 13 18 2 12 18 2 12 24 4 16 25 3 16 23 3 15 18 2 12 19 3 13 18 2 12 19 3 14 21 4 14 25 3 16 25 3 16 19 1 13 18 2 12 19 3 14 18 2 12 18 2 13 24 4 16 25 4 19 23 3 15 18 2 12 19 3 14 19 3 13 18 2 13 20 2 14 25 4 19 24 3 18 20 4 15 18 2 12 18 2 12 18 2 13 19 3 13 24 4 16 25 5 17 23 3 15 18 2 12 19 3 13 16 3 13 18 2 12 20 3 13 25 5 17 24 4 16 20 3 13 18 2 13 18 2 13 18 2 13 18 2 13 24 4 16 25 2 18 24 4 16 18 2 13 19 3 13 19 3 13 19 3 13 19 1 13 25 3 16 25 3 16 21 3 15 17 1 12 18 2 13 18 2 12 18 2 12 23 3 15 26 4 17 23 3 15 18 2 13 18 2 13 
19 3 14 18 2 13 20 2 14 18 2 13 19 3 13 23 3 15 25 2 18 24 4 16 19 3 13 18 2 12 18 2 12 18 2 12 19 3 13 26 4 17 26 3 21 20 2 14 19 3 13 18 2 12 18 2 13 15 2 12 24 4 16 25 5 17 21 3 17 19 3 14 19 3 14 19 3 13 19 4 11 20 3 13 25 3 16 26 4 17 19 3 14 18 2 12 18 2 13 19 3 13 17 4 13 24 4 16 26 4 17 24 4 16 18 2 12 18 2 12 18 2 12 18 2 13 21 4 14 26 4 17 25 3 16 20 2 14 18 2 12 18 2 13 18 2 12 18 2 13 24 4 16 25 2 18 23 3 15 17 1 11 19 3 14 19 3 13 19 3 14 21 3 15 26 3 19 25 2 18 19 3 14 18 2 12 18 2 13 18 2 13 18 2 13 24 4 16 25 5 17 23 3 15 19 3 13 18 2 12 18 2 13 18 2 12 19 3 13 25 3 16 25 3 16 20 3 13 18 2 12 18 2 12 18 2 12 18 2 12 24 4 16 26 4 17 24 4 16 16 0 10 18 2 13 19 3 14 19 3 14 20 2 14 25 3 16 25 3 16 20 2 14 18 2 12 18 2 13 19 3 13 18 2 12 24 4 16 25 3 16 24 4 16 18 2 13 18 2 13 
20 4 15 19 3 14 18 2 12 18 2 12 18 2 12 24 4 16 26 3 19 23 3 15 15 2 12 17 4 13 19 3 14 18 2 13 20 2 14 26 3 19 26 4 17 20 3 13 19 3 13 19 3 14 19 3 14 18 2 12 23 3 15 26 4 17 24 4 16 18 2 13 18 2 13 17 1 11 17 4 13 19 3 13 25 5 17 24 4 16 19 3 14 19 3 13 18 2 13 17 1 11 18 2 12 25 3 16 26 4 17 24 4 16 18 2 12 19 3 13 19 3 13 18 2 13 20 3 13 26 4 17 25 2 18 19 3 14 16 3 13 18 2 12 18 2 13 18 2 12 24 4 16 26 4 17 24 4 16 18 2 12 17 1 12 19 3 13 18 2 13 19 1 13 26 3 19 27 4 20 21 3 15 19 3 14 18 3 10 18 2 12 18 2 12 24 4 16 26 4 17 23 2 17 18 2 12 18 2 12 19 3 14 19 3 13 19 3 13 25 3 16 26 4 17 20 3 13 18 2 12 18 2 12 18 2 12 19 3 13 24 4 16 25 3 16 24 4 16 19 3 13 18 2 13 19 3 14 19 3 14 20 2 14 25 3 16 25 3 16 19 1 13 18 2 12 18 2 13 19 2 12 17 4 13 24 2 15 25 5 17 25 3 16 17 4 14 19 3 14 
19 3 14 19 2 12 18 2 12 18 2 13 18 2 13 25 3 16 25 2 18 23 3 15 19 3 14 16 3 12 17 1 11 18 2 12 19 3 13 25 3 16 25 4 21 19 1 13 18 2 13 18 2 13 18 2 12 19 3 13 22 4 18 26 4 17 23 2 19 19 3 13 18 2 12 18 2 13 17 4 13 19 3 14 25 3 16 25 5 17 19 3 14 19 3 13 18 2 13 18 2 12 18 2 12 24 4 16 26 4 17 24 4 16 20 4 14 18 2 12 18 2 12 18 2 13 21 4 14 24 2 15 26 3 19 20 2 14 18 2 13 19 3 13 18 2 13 18 2 12 24 4 16 24 4 16 24 4 16 19 3 13 19 3 14 18 2 12 18 2 13 21 3 15 25 4 19 25 4 19 21 3 15 18 2 12 18 2 12 18 2 12 18 2 12 25 5 17 25 3 16 23 3 15 18 2 12 18 2 12 19 3 14 18 2 12 18 2 12 26 4 17 25 3 16 21 4 14 18 2 13 18 2 13 18 2 13 18 2 13 24 4 16 26 3 19 23 3 15 16 0 11 19 3 13 19 3 13 18 2 12 20 2 14 24 2 15 26 4 17 19 1 13 18 2 13 17 1 12 19 3 13 18 2 12 24 4 16 26 4 17 24 4 16 17 1 12 18 2 13 
19 3 14 19 3 16 20 3 13 18 2 13 18 2 12 24 4 16 26 3 19 26 4 17 18 2 13 18 2 12 18 2 13 18 2 13 19 3 13 25 4 19 25 4 19 20 2 14 17 1 11 19 3 13 17 1 12 17 4 14 25 3 16 26 4 17 23 2 17 17 4 13 18 2 12 20 2 14 15 4 12 19 2 12 26 2 16 25 3 16 20 2 14 19 3 13 18 2 13 18 2 12 17 4 13 24 4 16 25 3 16 23 3 15 18 2 12 18 2 12 19 3 13 18 2 13 20 3 13 25 3 16 26 4 17 20 2 14 18 2 13 18 2 12 19 3 14 19 3 14 24 4 16 25 3 16 24 4 16 18 2 12 19 3 14 17 1 11 19 3 14 20 2 14 26 3 19 25 2 18 21 3 15 18 2 12 19 3 14 18 2 13 18 2 13 24 3 18 25 3 16 24 4 16 18 2 12 19 3 13 17 1 12 19 3 13 19 3 13 25 3 16 25 3 16 20 3 13 19 3 14 18 2 13 18 2 13 19 3 14 24 4 16 26 3 19 24 4 16 18 2 13 20 3 13 18 2 12 18 2 12 20 2 14 25 3 16 25 3 16 18 2 13 19 3 14 18 2 13 18 2 12 19 3 13 23 3 15 25 3 16 23 3 15 18 2 13 17 1 12 
20 2 14 17 1 14 18 2 12 19 3 13 18 2 12 24 4 16 26 3 19 23 3 15 17 1 12 19 3 13 19 3 14 15 2 11 19 3 14 27 5 17 25 4 19 20 2 14 18 2 13 19 3 14 18 1 11 18 2 12 23 3 15 26 4 17 23 3 15 19 3 13 18 2 12 19 3 13 15 3 13 20 2 14 26 4 17 25 5 17 19 3 14 18 2 12 17 1 12 17 1 11 19 3 13 25 3 16 26 4 17 24 4 16 19 3 13 18 2 12 18 2 12 18 2 13 21 4 14 25 3 16 27 5 18 19 3 14 16 3 12 18 2 13 18 2 12 19 3 14 24 4 16 26 3 21 24 4 16 18 2 12 18 2 13 19 3 13 18 2 13 20 2 14 25 2 18 26 3 19 21 3 15 19 3 13 18 2 12 18 2 12 18 2 12 23 3 15 26 4 17 23 3 15 18 2 12 18 2 12 16 3 13 18 2 12 19 3 13 26 6 18 26 4 17 20 3 13 18 2 12 18 2 12 18 2 12 18 2 12 24 4 16 26 4 17 23 3 15 18 2 12 18 2 13 18 2 13 18 2 13 20 2 14 26 4 17 25 3 16 19 1 13 18 2 12 18 2 13 18 2 12 19 3 13 25 5 17 26 4 17 24 4 16 18 2 13 18 2 13 
19 3 13 18 2 12 17 4 14 19 3 13 18 2 13 24 4 16 25 3 16 23 3 15 19 3 14 19 3 13 18 2 12 18 2 12 18 2 12 26 4 17 25 3 16 20 2 14 18 2 12 18 2 12 18 2 12 19 3 13 22 2 14 26 4 17 23 3 15 18 2 12 18 2 13 18 2 13 18 2 12 20 2 14 26 4 17 24 4 16 19 3 14 18 2 12 18 2 13 18 2 12 17 4 13 25 3 16 25 3 16 24 4 16 18 2 12 19 3 13 18 2 12 18 2 13 20 3 13 25 3 16 25 3 16 19 1 13 18 2 12 18 2 12 19 3 13 18 2 12 24 4 16 25 3 16 23 3 15 18 2 12 18 2 13 18 2 12 18 2 12 20 3 13 25 3 16 26 4 17 20 4 15 18 2 12 18 2 12 19 3 14 17 1 11 25 5 17 25 3 16 24 4 16 19 3 13 18 2 12 19 3 13 18 2 13 20 3 13 24 4 16 26 4 17 20 2 14 18 2 12 19 3 13 18 2 12 18 2 12 24 4 16 26 4 17 24 4 16 18 2 12 18 2 12 19 3 13 18 2 12 20 2 14 26 3 19 25 2 18 19 3 14 18 2 13 18 2 12 17 1 11 18 2 12 24 4 16 25 3 16 23 3 15 18 2 12 18 2 13 
19 3 13 18 2 12 17 1 12 18 2 12 18 2 13 23 3 15 25 3 16 23 3 15 19 3 14 18 2 12 18 2 12 18 2 12 16 3 12 25 3 16 25 5 17 21 3 15 17 1 11 18 2 12 18 2 12 19 3 13 24 4 16 24 4 16 24 4 16 18 2 12 19 3 14 17 1 12 19 3 13 20 4 15 26 4 17 25 5 17 19 3 14 18 2 12 18 2 13 18 2 12 18 2 12 24 4 16 25 3 16 23 3 15 17 1 11 18 2 12 18 2 12 18 2 13 19 3 13 24 4 16 25 3 16 20 2 14 18 2 12 18 2 12 17 1 11 19 3 13 24 4 16 25 3 16 23 3 15 19 3 13 19 3 14 18 2 12 19 3 13 20 3 13 25 3 16 26 4 17 19 3 14 18 2 12 18 2 12 19 3 14 18 2 12 25 3 16 25 3 16 24 4 16 19 3 13 19 2 12 17 4 13 18 2 13 19 3 13 25 3 16 25 3 16 20 2 14 19 3 13 19 3 13 18 2 12 18 2 12 25 5 17 26 4 17 23 3 15 18 2 12 18 2 12 19 3 13 19 3 14 20 2 14 26 4 17 25 3 16 19 3 14 18 2 13 18 2 12 19 3 13 18 2 12 24 4 16 24 4 16 23 3 15 18 2 12 18 2 13 
19 3 14 18 2 12 18 2 13 18 2 12 19 3 14 23 3 15 25 3 16 23 3 15 19 3 14 19 3 13 18 2 12 19 3 13 20 3 13 25 3 16 25 3 16 20 2 14 19 3 13 18 2 12 18 2 12 19 3 13 23 3 15 25 3 16 24 2 15 18 2 12 18 2 13 18 2 13 18 2 12 20 2 14 25 3 16 24 4 16 20 2 14 19 3 13 16 4 14 19 3 13 18 2 12 24 4 16 25 3 16 24 4 16 19 3 13 18 2 12 18 2 12 17 1 12 20 3 13 25 3 16 26 4 17 20 2 14 19 3 13 18 2 12 18 2 12 18 2 12 24 4 16 26 4 17 24 4 16 18 2 12 18 2 13 18 2 12 18 2 12 20 3 13 26 4 17 26 4 17 21 3 15 19 3 13 18 2 12 18 2 13 18 2 12 24 4 16 26 4 17 23 3 15 19 3 13 18 2 12 19 3 13 19 1 13 19 3 13 25 3 16 25 3 16 20 2 14 18 2 12 18 2 12 17 1 11 18 2 12 23 3 15 25 3 16 24 4 16 18 2 12 19 3 13 18 2 12 18 2 12 20 2 14 25 2 18 25 2 18 19 3 14 18 2 12 19 3 13 18 2 12 18 2 12 25 5 17 25 5 17 22 2 14 19 3 13 18 2 13 
18 2 13 18 2 12 17 4 14 18 2 12 18 2 13 24 4 16 25 3 16 23 3 15 18 2 13 18 2 12 19 3 13 18 2 12 19 3 13 25 5 17 24 2 15 20 4 15 18 2 12 18 2 12 18 2 12 18 2 12 24 4 16 25 5 17 23 3 15 18 2 12 19 3 14 19 3 14 18 2 12 20 4 15 25 3 16 25 5 17 19 3 14 18 2 12 19 3 14 19 3 13 17 1 11 24 4 16 25 3 16 23 3 15 17 1 11 19 3 13 18 2 12 18 2 13 19 3 13 25 5 17 25 3 16 19 1 13 18 2 12 18 2 12 19 3 13 18 2 12 24 4 16 26 4 17 24 4 16 18 2 12 17 1 12 19 3 13 19 3 13 20 3 13 25 3 16 25 3 16 19 3 14 17 4 13 19 3 13 19 3 14 18 2 12 25 1 15 25 3 16 23 3 15 18 2 12 17 1 11 18 2 12 18 2 13 21 4 14 26 4 17 26 4 17 21 3 15 19 3 13 18 2 12 18 2 12 19 3 13 24 4 16 26 4 17 24 4 16 18 2 12 18 2 12 18 2 12 19 3 13 20 2 14 26 4 17 25 3 16 19 3 14 18 2 13 18 2 12 18 2 12 18 2 12 23 3 15 25 5 17 24 4 16 19 3 13 18 2 13 
19 3 14 17 4 13 18 2 13 19 3 13 18 2 13 24 4 16 25 3 16 24 4 16 18 2 13 19 3 13 18 2 12 18 2 12 19 3 13 25 3 16 25 5 17 20 2 14 18 2 12 18 2 12 19 3 13 18 2 12 23 3 15 25 3 16 25 3 16 18 2 12 19 3 14 18 2 13 18 2 12 22 2 14 25 5 17 25 3 16 19 3 14 19 3 13 18 2 13 18 2 12 17 4 13 25 3 16 26 4 17 25 5 17 18 2 12 18 2 12 18 2 12 18 2 13 20 3 13 25 3 16 25 3 16 20 2 14 18 2 12 17 1 11 19 3 13 18 2 12 24 4 16 25 3 16 23 3 15 18 2 12 19 3 14 19 3 13 18 2 12 21 4 14 26 4 17 26 4 17 21 3 15 18 2 12 18 2 12 18 2 13 18 2 12 23 3 15 25 3 16 24 4 16 19 3 13 19 3 13 18 2 12 19 3 14 20 3 13 25 3 16 25 3 16 20 2 14 17 1 11 18 2 12 18 2 12 19 3 13 24 4 16 25 3 16 23 3 15 20 4 14 19 3 13 18 2 12 18 2 12 20 2 14 25 3 16 25 3 16 19 3 14 18 2 13 19 3 13 18 2 12 16 3 12 24 4 16 25 5 17 24 4 16 16 3 12 18 2 13 
19 3 14 18 2 12 18 2 12 19 3 14 18 2 13 23 3 15 26 4 17 24 4 16 19 3 14 17 1 11 19 3 13 19 3 13 21 4 14 26 4 17 24 4 16 21 3 15 18 2 12 18 2 12 18 2 12 18 2 12 24 4 16 25 5 17 24 4 16 18 2 12 18 2 13 18 2 13 19 3 13 20 4 15 25 3 16 25 3 16 19 3 14 17 4 13 18 2 13 18 2 12 19 3 13 24 4 16 25 3 16 23 3 15 18 2 12 18 2 12 18 2 12 18 2 13 19 3 13 25 5 17 25 3 16 21 3 15 17 1 11 19 3 13 18 2 12 18 2 12 22 2 14 26 4 17 24 4 16 18 2 12 18 2 13 19 3 13 17 1 11 20 3 13 25 3 16 26 4 17 19 3 14 18 2 12 18 2 12 18 2 13 18 2 12 26 2 16 25 3 16 23 3 15 18 2 12 18 2 12 19 2 12 19 3 14 19 3 13 25 3 16 26 4 17 20 2 14 18 2 12 19 3 13 18 2 12 18 2 12 23 3 15 25 3 16 23 3 15 18 2 12 18 2 12 18 2 12 18 2 12 20 2 14 25 2 18 25 2 18 18 2 13 18 2 12 18 2 12 18 2 12 18 2 12 23 3 15 25 5 17 23 3 15 18 2 12 18 2 13 
18 2 13 18 2 12 18 2 12 19 3 14 19 3 14 23 3 15 25 3 16 23 3 15 18 2 13 18 2 12 18 2 12 19 3 13 20 3 13 25 5 17 25 5 17 19 3 14 18 2 12 17 1 11 19 3 13 18 2 12 24 4 16 25 3 16 22 2 14 17 1 11 19 3 14 18 2 13 18 2 12 19 1 13 25 5 17 26 4 17 19 3 14 18 2 12 18 2 13 18 2 12 19 2 12 24 4 16 25 3 16 23 3 15 18 2 12 18 2 12 18 2 12 18 2 13 19 2 12 24 2 15 25 3 16 20 2 14 17 1 11 18 2 12 18 2 12 19 3 13 24 4 16 26 4 17 23 3 15 18 2 12 17 1 12 17 1 11 19 3 13 20 3 13 25 3 16 25 3 16 20 4 15 18 2 12 18 2 12 18 2 13 18 2 12 23 3 15 25 3 16 23 3 15 18 2 12 18 2 12 18 2 12 17 4 14 19 3 13 25 3 16 26 4 17 20 2 14 18 2 12 18 2 12 18 2 12 19 3 13 23 3 15 25 3 16 23 3 15 18 2 12 18 2 12 18 2 12 19 3 14 19 1 13 26 4 17 25 3 16 19 3 14 18 2 13 18 2 12 18 2 12 17 1 11 24 4 16 26 4 17 25 5 17 20 4 14 18 2 13 
19 3 14 16 5 13 18 2 12 18 2 13 18 2 13 24 4 16 26 4 17 24 4 16 17 1 12 17 1 11 19 3 13 19 3 13 21 4 14 25 3 16 25 5 17 21 3 15 18 2 12 17 1 11 18 2 12 18 2 12 23 3 15 26 4 17 24 4 16 19 3 13 18 2 13 17 1 12 18 2 12 20 4 15 26 4 17 25 3 16 19 3 14 15 2 11 19 3 14 19 3 13 18 2 12 24 4 16 25 3 16 24 4 16 18 2 12 19 3 13 18 2 12 18 2 13 19 3 13 26 4 17 25 3 16 20 2 14 19 3 13 18 2 12 19 3 13 19 3 13 24 4 16 25 3 16 23 3 15 18 2 12 18 2 13 17 1 11 19 3 13 20 3 13 25 3 16 25 3 16 19 3 14 18 2 12 17 1 11 18 2 13 18 2 12 24 4 16 26 4 17 23 3 15 19 3 13 19 3 13 18 2 12 19 3 14 19 3 13 26 4 17 25 3 16 19 1 13 18 2 12 19 3 13 18 2 12 18 2 12 23 3 15 26 4 17 24 4 16 18 2 12 18 2 12 18 2 12 18 2 12 20 2 14 25 2 18 25 2 18 18 2 13 18 2 13 19 3 13 19 3 13 18 2 12 24 4 16 26 4 17 24 4 16 18 2 12 18 2 13 
19 3 14 19 3 13 19 3 13 18 2 12 18 2 12 24 4 16 26 4 17 23 3 15 18 2 12 18 2 12 18 2 12 18 2 12 20 3 13 25 3 16 26 4 17 19 3 14 19 3 14 19 3 13 19 3 13 18 2 12 23 3 15 26 3 19 23 3 15 19 3 14 18 2 12 19 3 13 18 2 12 20 2 14 26 4 17 26 4 17 19 3 14 18 2 12 18 2 13 18 2 12 18 2 12 23 3 15 25 5 17 22 4 16 19 3 13 19 3 13 19 3 13 19 3 13 19 3 13 24 2 15 25 3 16 20 2 14 18 2 12 18 2 12 19 3 13 18 2 12 24 4 16 25 3 16 23 3 15 18 2 12 18 2 12 18 2 12 17 1 12 20 2 14 26 4 17 25 5 17 20 4 15 18 2 12 18 2 12 18 2 13 18 2 12 24 4 16 25 3 16 24 4 16 18 2 12 18 2 12 18 2 12 18 2 12 19 3 14 26 4 17 25 3 16 20 2 14 19 3 13 18 2 13 18 2 12 18 2 12 23 3 15 25 3 16 23 3 15 19 3 13 18 2 12 18 2 12 18 2 13 19 3 13 26 3 19 26 4 17 19 3 14 18 2 12 18 2 12 17 1 11 18 2 12 24 4 16 25 3 16 23 3 15 18 2 12 18 2 12 
19 3 14 18 2 12 18 2 12 19 3 13 19 3 13 23 3 15 25 3 16 24 4 16 19 3 13 18 2 12 18 2 12 18 2 12 20 3 13 26 4 17 26 4 17 19 3 14 19 3 14 18 2 12 18 2 12 19 3 13 24 4 16 25 2 18 24 4 16 18 2 13 19 3 13 19 3 13 17 1 11 19 1 13 26 4 17 25 3 16 19 3 14 19 3 13 18 2 13 18 2 12 18 2 12 24 4 16 25 5 17 23 3 15 18 2 12 18 2 12 18 2 12 18 2 12 20 3 13 25 3 16 25 3 16 19 3 14 18 2 12 19 3 13 18 2 12 18 2 12 23 3 15 26 4 17 24 3 18 18 2 13 18 2 12 19 3 13 18 2 12 21 4 14 25 3 16 24 4 16 19 3 14 18 2 12 19 3 13 18 2 13 18 2 12 25 5 17 25 3 16 23 3 15 18 2 12 19 3 13 18 2 12 18 2 12 19 3 14 26 4 17 26 4 17 19 1 13 18 2 12 18 2 13 18 2 12 18 2 12 24 4 16 26 4 17 24 4 16 18 2 12 19 3 13 19 3 14 18 2 12 20 4 15 25 3 16 26 3 19 19 3 14 19 3 13 18 2 12 18 2 12 17 1 11 23 3 15 26 4 17 23 3 15 19 3 13 18 2 12 
19 3 14 19 3 13 18 2 12 17 1 11 18 2 12 24 4 16 25 3 16 23 3 15 18 2 12 17 1 11 19 3 13 19 3 13 20 3 13 25 3 16 25 3 16 19 3 14 19 3 14 18 2 12 18 2 12 18 2 12 24 4 16 25 2 18 24 4 16 17 1 12 18 2 12 18 2 12 19 3 13 20 2 14 26 4 17 25 5 17 19 3 14 18 2 12 18 2 13 18 2 12 16 3 12 24 4 16 25 3 16 23 3 15 19 3 13 18 2 12 17 1 11 18 2 12 20 3 13 25 3 16 26 4 17 19 1 13 18 2 12 18 2 12 19 2 12 18 2 12 23 3 15 26 4 17 24 4 16 18 2 12 19 3 13 19 3 13 18 2 13 20 2 14 25 3 16 25 5 17 19 3 14 18 2 12 18 2 12 18 2 13 18 2 12 24 4 16 25 3 16 24 4 16 18 2 12 18 2 12 18 2 12 18 2 12 19 3 14 26 4 17 25 3 16 20 2 14 18 2 12 19 3 14 18 2 12 19 3 13 24 4 16 25 3 16 24 4 16 18 2 12 19 3 13 18 2 13 18 2 12 20 4 15 26 4 17 25 2 18 18 2 13 19 3 13 18 2 12 19 3 13 18 2 12 24 4 16 25 3 16 24 4 16 19 3 13 18 2 12 
19 3 14 19 3 13 18 2 12 19 3 13 19 3 13 24 4 16 25 3 16 23 3 15 18 2 12 18 2 12 18 2 12 18 2 12 20 3 13 26 4 17 27 5 18 19 3 14 18 2 13 17 1 11 18 2 12 18 2 12 24 4 16 25 2 18 24 4 16 18 2 13 18 2 12 18 2 12 18 2 12 20 2 14 25 5 17 25 3 16 20 4 15 18 2 12 18 2 13 19 3 13 18 2 12 23 3 15 25 3 16 24 4 16 19 3 13 19 3 13 18 2 12 19 3 13 19 3 13 25 3 16 25 3 16 19 3 14 19 3 13 18 2 12 18 2 12 17 4 13 24 4 16 25 3 16 24 4 16 18 2 12 18 2 12 18 2 12 18 2 13 17 1 12 25 3 16 25 3 16 19 3 14 17 1 11 18 2 12 18 2 13 18 2 12 24 4 16 25 3 16 23 3 15 17 1 11 18 2 12 18 2 12 18 2 12 19 3 14 25 3 16 25 3 16 20 2 14 18 2 12 19 3 14 18 2 12 19 3 13 23 3 15 25 3 16 24 4 16 18 2 12 19 3 13 18 2 12 18 2 13 19 3 13 25 2 18 25 3 16 18 2 13 18 2 12 18 2 12 17 1 11 18 2 12 24 4 16 25 3 16 24 4 16 18 2 12 18 2 12 
19 3 14 19 3 13 18 2 12 18 2 12 18 2 12 23 3 15 26 4 17 23 3 15 18 2 12 19 3 13 18 2 12 19 3 13 20 3 13 26 4 17 26 4 17 19 3 14 18 2 13 18 2 12 18 2 12 19 3 13 24 4 16 26 3 19 23 3 15 18 2 13 18 2 12 19 3 13 18 2 12 20 2 14 25 3 16 25 5 17 19 3 14 18 2 12 17 4 14 16 3 12 16 3 12 24 4 16 25 5 17 23 3 15 18 2 12 18 2 12 19 3 13 18 2 12 20 3 13 25 3 16 26 4 17 19 3 14 18 2 12 18 2 12 18 2 12 17 1 11 24 4 16 26 4 17 24 3 18 18 2 13 18 2 12 19 3 13 19 3 14 19 3 13 25 3 16 25 3 16 19 3 14 18 2 12 18 2 12 18 2 13 18 2 12 23 3 15 25 3 16 24 4 16 18 2 12 19 3 13 18 2 12 19 3 13 19 3 14 25 3 16 26 4 17 20 2 14 19 3 13 18 2 13 18 2 12 18 2 12 23 3 15 25 3 16 24 4 16 18 2 12 18 2 12 18 2 12 18 2 13 19 3 13 25 2 18 26 4 17 18 2 13 17 1 11 17 1 11 18 2 12 18 2 12 24 4 16 25 3 16 24 4 16 18 2 12 19 3 13 
19 3 14 17 1 11 18 2 12 17 1 11 19 3 13 23 3 15 25 3 16 23 3 15 18 2 12 17 1 11 17 1 11 19 3 13 21 4 14 25 3 16 25 3 16 19 3 14 19 3 14 19 3 13 18 2 12 18 2 12 22 2 14 26 3 19 24 4 16 19 3 14 18 2 12 18 2 12 18 2 12 20 2 14 26 4 17 25 3 16 19 3 14 18 2 12 18 2 13 18 2 12 19 3 13 24 4 16 25 5 17 23 3 15 17 1 11 18 2 12 18 2 12 18 2 12 19 3 13 26 4 17 24 4 16 20 2 14 15 2 11 18 2 12 18 2 12 16 3 12 24 4 16 24 2 15 21 3 17 18 2 12 18 2 12 18 2 12 18 2 13 20 3 13 26 4 17 25 5 17 21 5 16 18 2 12 17 1 11 17 1 12 18 2 12 24 4 16 26 4 17 23 3 15 18 2 12 18 2 12 18 2 12 18 2 12 19 3 14 26 4 17 25 3 16 20 2 14 19 3 13 16 0 11 18 2 12 19 3 13 23 3 15 25 3 16 24 4 16 18 2 12 20 4 14 17 1 12 17 1 11 19 3 14 25 3 16 25 2 18 18 2 13 18 2 12 18 2 12 18 2 12 17 1 11 24 4 16 25 3 16 24 4 16 18 2 12 17 1 11 
20 4 15 18 2 12 18 2 12 18 2 12 18 2 12 23 3 15 25 3 16 24 4 16 19 3 13 18 2 12 19 3 13 18 2 12 20 3 13 25 3 16 25 3 16 18 2 13 18 2 13 18 2 12 17 1 11 19 3 13 24 4 16 25 2 18 24 4 16 18 2 13 18 2 12 18 2 12 18 2 12 20 2 14 25 3 16 25 5 17 19 3 14 18 2 12 19 3 14 18 2 12 18 2 12 23 3 15 25 3 16 23 3 15 18 2 12 18 2 12 18 2 12 18 2 12 19 3 13 26 4 17 25 3 16 19 3 14 18 2 12 18 2 12 18 2 12 18 2 12 24 4 16 25 3 16 22 4 16 18 3 10 18 2 12 19 3 13 19 3 14 20 2 14 26 4 17 25 2 18 20 4 15 18 2 12 17 1 11 18 2 13 19 3 13 24 4 16 25 3 16 23 3 15 18 2 12 19 3 13 16 0 10 18 2 12 20 4 15 25 3 16 25 3 16 20 2 14 18 2 12 18 2 13 18 2 12 19 3 13 22 2 14 25 3 16 24 4 16 18 2 12 19 3 13 17 1 12 18 2 12 19 3 14 25 3 16 25 2 18 18 2 13 18 2 12 19 3 13 18 2 12 18 2 12 24 4 16 26 4 17 23 3 15 18 2 12 18 2 12 
20 4 15 18 2 12 18 2 12 18 2 12 17 1 11 23 3 15 26 4 17 23 3 15 18 2 12 19 3 13 19 3 13 18 2 12 20 3 13 25 3 16 26 4 17 19 3 14 18 2 13 19 3 13 18 2 12 19 3 13 23 3 15 25 2 18 24 4 16 18 2 13 18 2 12 18 2 12 18 2 12 20 2 14 25 3 16 25 3 16 19 3 14 18 2 12 19 3 14 18 2 12 18 2 12 24 4 16 26 4 17 23 3 15 18 2 12 18 2 12 18 2 12 18 2 12 20 3 13 25 3 16 25 3 16 20 2 14 19 3 13 18 2 12 20 3 13 17 4 13 25 3 16 25 3 16 24 3 18 18 2 12 18 2 12 17 1 11 17 1 12 20 4 14 25 3 16 27 3 17 19 3 14 18 2 12 18 2 12 18 2 13 18 2 12 24 4 16 26 4 17 24 4 16 18 2 12 18 2 12 18 2 12 18 2 12 19 3 14 26 4 17 26 4 17 20 2 14 18 2 12 19 3 14 18 2 12 18 2 12 24 4 16 25 3 16 24 4 16 18 2 12 18 2 12 18 2 12 19 3 14 20 4 14 25 2 18 26 4 17 19 3 14 18 2 12 18 2 12 18 2 12 19 3 13 23 3 15 25 3 16 24 4 16 19 3 13 19 3 13 
19 3 14 18 2 12 19 3 13 19 3 13 17 1 11 24 4 16 25 3 16 23 3 15 18 2 12 18 2 12 18 2 12 18 2 12 20 2 14 25 3 16 26 4 17 19 3 14 18 2 12 19 3 13 18 2 12 18 2 12 24 4 16 26 4 17 24 4 16 17 1 11 18 2 13 19 3 13 19 3 13 19 3 13 25 3 16 24 4 16 19 3 14 18 2 12 20 4 15 18 2 12 18 2 12 24 4 16 25 3 16 23 3 15 18 2 12 18 2 13 20 4 14 18 2 13 18 2 13 24 1 17 26 4 17 19 3 14 18 2 12 17 1 11 17 1 11 18 2 12 24 4 16 26 4 17 23 3 15 19 3 13 19 3 14 19 3 13 18 2 12 20 3 13 26 4 17 25 3 16 19 3 14 18 2 12 18 2 12 18 2 12 19 3 13 23 3 15 25 3 16 22 2 14 18 2 12 18 2 12 19 3 13 18 2 12 19 3 13 26 4 17 26 4 17 21 3 15 18 2 12 19 3 13 18 2 12 18 2 12 24 4 16 24 4 16 25 5 17 19 3 13 19 3 13 19 3 13 18 2 12 20 2 14 25 3 16 25 3 16 20 2 14 17 1 11 19 3 13 19 3 13 18 2 12 22 2 14 25 3 16 24 4 16 19 3 13 18 2 12 
19 3 14 18 2 12 18 2 12 19 3 13 18 2 12 24 4 16 26 4 17 24 4 16 17 1 11 19 3 13 18 2 12 19 3 13 19 3 13 26 4 17 25 3 16 19 1 13 19 3 16 18 3 10 18 2 12 17 1 11 23 3 15 25 3 16 23 3 15 17 1 11 18 2 13 19 3 13 19 3 13 18 2 12 25 3 16 25 5 17 19 3 14 17 1 11 17 1 11 19 3 13 17 1 11 24 4 16 26 4 17 23 3 15 18 2 12 19 3 13 19 3 13 17 1 11 19 3 13 26 4 17 26 4 17 19 3 14 18 2 12 18 2 12 17 1 11 18 2 12 24 4 16 26 4 17 24 4 16 18 2 12 18 2 13 17 1 11 18 2 12 20 3 13 25 3 16 25 3 16 19 3 14 17 1 11 18 2 12 18 2 12 18 2 12 24 4 16 25 3 16 24 4 16 18 2 13 18 2 12 18 2 12 17 1 11 19 3 13 25 3 16 26 4 17 19 1 13 17 1 11 17 1 11 18 2 13 18 2 12 25 5 17 26 4 17 24 4 16 18 2 12 17 1 11 18 2 12 18 2 12 20 2 14 26 4 17 25 3 16 19 1 13 18 2 12 19 3 13 18 2 12 18 2 12 23 3 15 24 2 15 24 4 16 19 3 13 18 2 12 
