P3
100 50
255
66 2 39 64 2 39 69 2 43 79 2 48 80 3 49 68 2 40 66 2 39 65 3 40 64 2 39 65 3 40 75 2 45 80 3 49 75 2 45 65 3 40 64 2 39 63 1 38 64 2 39 69 3 41 80 3 49 79 2 48 69 3 41 65 4 38 64 2 39 65 3 40 63 1 38 76 3 46 80 3 47 75 2 45 64 2 39 64 2 39 64 2 39 65 3 40 70 4 42 80 3 49 79 2 48 69 3 41 64 2 39 66 2 39 66 2 39 64 2 39 76 1 44 80 3 49 74 1 44 66 2 39 64 3 37 64 2 39 65 4 38 67 3 40 80 3 49 80 3 47 68 4 41 65 4 38 64 2 39 66 2 39 65 3 40 75 2 45 80 3 49 75 2 45 64 2 39 65 3 40 64 2 39 64 2 39 68 2 40 79 2 48 80 3 49 70 2 41 64 2 39 65 3 40 64 2 39 64 2 39 76 3 46 79 3 49 77 2 45 65 3 40 64 2 39 64 2 39 64 2 39 68 4 41 80 3 49 80 3 49 68 2 40 66 2 39 64 2 39 65 3 40 67 3 40 78 3 46 80 3 49 75 2 45 65 3 40 66 2 39 66 2 39 64 2 39 68 1 42 79 2 48 80 3 49 68 2 40 66 2 39 65 3 40 64 2 39 64 2 39 
64 2 39 66 2 39 69 2 43 78 1 47 80 3 49 68 2 40 66 2 39 64 2 39 64 2 39 64 2 39 75 2 45 80 3 49 75 2 45 64 2 39 65 3 40 64 2 39 64 2 39 68 2 40 79 2 48 80 3 49 69 3 41 65 4 38 65 1 38 64 2 39 63 1 38 77 2 45 80 3 47 75 2 45 64 2 39 65 3 40 64 2 39 64 2 39 69 3 41 79 2 48 80 3 49 69 3 41 64 2 39 66 2 39 66 2 39 64 2 39 78 3 46 79 2 48 75 2 45 66 2 39 64 2 39 64 2 39 64 2 39 68 2 40 80 3 49 80 3 49 68 2 40 64 2 39 64 2 39 67 3 40 64 2 39 75 2 45 79 2 48 76 3 46 64 2 39 65 3 40 63 1 38 64 2 39 67 3 40 79 2 48 80 3 49 69 3 41 68 2 40 64 2 39 64 2 39 66 2 39 78 3 46 80 3 49 75 2 45 64 2 39 64 2 39 65 3 40 64 2 39 67 3 40 81 2 49 79 2 48 69 3 41 67 3 40 64 2 39 64 2 39 64 2 39 75 2 45 80 3 49 75 2 45 64 2 39 64 2 39 65 3 40 66 2 39 68 1 42 80 3 49 79 2 48 69 3 41 66 2 39 64 2 39 63 1 38 64 2 39 
64 2 39 66 2 39 68 1 42 79 2 48 80 3 49 69 3 41 64 2 39 66 2 39 64 2 39 64 2 39 76 3 46 80 3 49 75 2 45 65 3 40 63 1 38 65 3 40 64 2 39 69 3 41 79 2 48 79 2 48 70 2 41 64 3 37 64 2 39 64 2 39 67 3 40 74 1 44 80 3 47 77 2 45 64 2 39 65 3 40 64 2 39 64 2 39 68 2 40 80 3 49 79 2 48 68 2 40 64 2 39 66 2 39 66 2 39 64 2 39 77 2 45 80 3 49 75 2 45 66 2 39 64 2 39 66 2 39 66 2 39 69 3 41 80 3 49 79 2 48 68 2 40 64 2 39 65 3 40 66 2 39 64 2 39 75 2 45 79 2 48 75 2 45 66 4 41 64 2 39 63 1 38 64 2 39 68 2 40 79 2 48 80 3 49 72 1 41 65 3 40 64 2 39 64 2 39 64 2 39 76 3 46 78 2 48 78 3 46 64 2 39 64 2 39 64 2 39 65 3 40 68 2 40 80 3 49 80 3 49 69 3 41 64 2 39 66 2 39 63 1 38 64 2 39 75 2 45 79 2 48 76 3 46 64 2 39 64 2 39 64 2 39 67 3 40 68 1 42 80 3 49 80 3 49 68 2 40 66 2 39 64 2 39 64 2 39 64 2 39 
66 2 39 64 2 39 69 2 43 80 3 49 79 2 48 69 3 41 64 2 39 66 2 39 64 2 39 65 3 40 75 2 45 78 1 47 75 2 45 65 3 40 65 3 40 65 3 40 64 2 39 68 2 40 79 2 48 79 2 48 69 3 41 65 4 38 64 2 39 64 2 39 64 2 39 75 2 45 80 3 47 75 2 45 64 2 39 64 2 39 64 2 39 64 2 39 68 2 40 79 2 48 80 3 49 68 2 40 64 2 39 66 2 39 66 2 39 64 2 39 77 2 45 79 2 48 75 2 45 66 2 39 64 2 39 66 2 39 66 2 39 70 4 42 79 3 49 79 2 48 68 2 40 64 2 39 65 3 40 66 2 39 63 1 38 75 2 45 80 3 49 75 2 45 65 3 40 64 2 39 63 1 38 66 2 39 68 4 41 79 3 49 80 3 49 69 3 41 67 3 40 66 2 39 64 2 39 66 2 39 77 2 45 80 3 49 76 3 46 64 2 39 65 3 40 64 2 39 64 2 39 67 3 40 79 2 48 79 2 48 69 3 41 66 2 39 65 3 40 64 2 39 66 2 39 76 3 46 79 3 49 75 2 45 65 3 40 64 2 39 62 2 38 67 3 40 68 1 42 79 2 48 80 3 49 69 3 41 66 2 39 65 3 40 64 2 39 65 3 40 
66 2 39 64 2 39 69 2 43 79 2 48 79 2 48 69 3 41 65 3 40 66 2 39 65 3 40 64 2 39 75 2 45 79 2 48 75 2 45 64 2 39 64 2 39 64 2 39 64 2 39 69 3 41 78 1 47 79 2 48 69 3 41 65 4 38 66 2 39 65 3 40 64 2 39 76 3 46 78 3 46 75 2 45 65 3 40 64 2 39 64 2 39 62 0 37 68 2 40 79 2 48 80 3 49 69 3 41 64 2 39 66 2 39 66 2 39 64 2 39 77 2 45 79 2 48 75 2 45 66 2 39 64 2 39 66 2 39 64 2 39 68 2 40 80 3 49 79 2 48 68 2 40 64 2 39 64 2 39 67 3 40 63 1 38 75 2 45 79 2 48 76 3 46 64 2 39 64 2 39 63 1 38 64 2 39 69 3 41 80 3 49 80 3 49 70 2 41 64 2 39 64 2 39 64 2 39 64 2 39 74 1 44 80 3 49 75 2 45 64 2 39 65 3 40 66 4 41 63 1 38 68 4 41 80 3 49 79 2 48 69 3 41 66 2 39 64 2 39 64 2 39 65 3 40 75 2 45 80 3 49 75 2 45 65 3 40 63 1 38 65 3 40 66 2 39 68 1 42 80 3 49 80 3 49 68 2 40 66 2 39 64 2 39 64 2 39 64 2 39 
65 3 40 66 2 39 69 2 43 79 2 48 80 3 49 68 2 40 66 2 39 64 2 39 65 3 40 64 2 39 74 1 44 79 2 48 74 1 44 64 2 39 64 2 39 64 2 39 63 1 38 69 3 41 79 2 48 80 3 49 69 3 41 64 3 37 64 2 39 64 2 39 66 2 39 75 2 45 80 3 47 77 2 45 64 2 39 64 2 39 64 2 39 65 3 40 68 2 40 80 3 49 79 2 48 68 2 40 64 2 39 66 2 39 66 2 39 64 2 39 77 2 45 79 2 48 75 2 45 66 2 39 64 2 39 64 2 39 65 3 40 68 2 40 80 3 49 80 3 47 69 3 41 65 3 40 64 2 39 66 2 39 64 2 39 75 2 45 80 3 49 75 2 45 64 2 39 64 2 39 64 2 39 65 3 40 68 2 40 79 2 48 80 3 49 69 3 41 66 2 39 64 2 39 64 2 39 66 2 39 76 3 46 78 1 47 76 3 46 65 3 40 63 1 38 65 3 40 63 1 38 67 3 40 79 0 47 78 2 48 69 3 41 64 2 39 65 3 40 65 3 40 64 2 39 75 2 45 79 2 48 75 2 45 64 2 39 65 3 40 64 2 39 64 2 39 68 1 42 80 3 49 81 4 50 69 3 41 66 2 39 65 3 40 64 2 39 64 2 39 
64 2 39 66 2 39 68 2 40 79 3 49 79 2 48 68 2 40 64 2 39 64 2 39 64 2 39 64 2 39 75 2 45 80 3 49 75 2 45 65 3 40 65 3 40 64 2 39 64 2 39 68 2 40 79 2 48 79 2 48 69 3 41 64 2 39 64 2 39 64 2 39 65 3 40 74 1 44 79 3 49 75 2 45 66 2 39 64 2 39 64 2 39 64 2 39 69 3 41 79 2 48 80 3 49 69 3 41 64 2 39 64 2 39 64 2 39 65 3 40 77 2 45 80 3 49 75 2 45 64 2 39 63 1 38 63 1 38 64 2 39 68 2 40 79 2 48 80 3 49 68 4 41 65 3 40 64 2 39 65 3 40 64 2 39 74 3 45 79 2 48 77 2 45 64 2 39 65 3 40 65 3 40 64 2 39 68 2 40 80 3 49 79 2 48 69 3 41 64 2 39 64 2 39 64 2 39 64 2 39 75 2 45 79 3 49 75 2 45 64 2 39 65 3 40 64 2 39 65 3 40 68 2 40 78 2 48 78 2 48 69 3 41 64 3 37 63 1 38 64 3 37 64 2 39 75 2 45 79 2 48 76 1 44 66 2 39 65 3 40 65 3 40 63 3 39 67 3 40 80 3 49 79 2 48 67 3 40 65 3 40 64 2 39 64 2 39 64 2 39 
64 2 39 64 2 39 69 3 41 80 3 49 79 2 48 68 2 40 63 1 38 64 2 39 65 3 40 64 2 39 75 2 45 80 3 49 76 3 46 65 3 40 64 2 39 64 2 39 64 2 39 68 2 40 80 3 49 79 2 48 69 3 41 63 1 38 64 2 39 63 1 38 65 3 40 77 2 45 79 2 48 74 2 42 64 2 39 64 2 39 65 3 40 64 2 39 68 2 40 80 3 49 79 2 48 68 2 40 64 2 39 64 2 39 64 2 39 64 2 39 78 3 46 79 2 48 75 2 45 64 2 39 66 2 39 64 2 39 64 2 39 68 4 41 79 4 47 80 3 49 68 2 40 64 2 39 64 2 39 64 2 39 65 3 40 75 2 45 80 3 49 77 2 45 64 2 39 64 2 39 64 2 39 65 3 40 69 3 41 80 3 49 79 2 48 68 2 40 63 1 38 64 2 39 64 2 39 64 2 39 75 2 45 78 2 48 75 2 45 64 2 39 64 2 39 64 2 39 68 4 41 68 4 41 79 2 48 80 3 49 68 2 40 64 3 37 66 2 39 64 2 39 64 2 39 75 2 45 80 3 49 77 2 45 64 2 39 64 2 39 64 2 39 64 2 39 66 2 39 79 2 48 79 2 48 67 3 40 65 3 40 64 2 39 65 3 40 65 3 40 
63 1 38 64 2 39 68 2 40 79 2 48 80 3 49 69 3 41 65 3 40 65 3 40 64 2 39 64 2 39 74 1 44 80 3 49 74 1 44 65 3 40 64 3 37 64 2 39 64 2 39 67 0 41 79 2 48 79 2 48 68 1 42 64 2 39 64 2 39 64 3 37 64 2 39 78 3 46 79 1 49 76 3 46 65 3 40 64 2 39 65 3 40 64 2 39 68 1 42 80 3 47 79 2 46 69 3 41 64 2 39 64 2 39 63 1 38 64 2 39 77 2 45 80 3 49 75 2 45 65 3 40 64 2 39 64 2 41 64 2 39 68 2 40 79 2 48 80 1 48 68 2 40 65 3 40 64 2 39 64 2 39 64 2 39 74 3 45 80 3 49 75 2 45 67 3 40 65 3 40 64 2 39 66 2 39 68 2 40 80 3 49 80 3 49 68 4 41 64 2 39 66 2 39 64 2 39 64 2 39 74 1 44 80 3 49 75 2 45 65 3 40 65 3 40 64 2 39 64 4 40 68 2 40 79 2 48 79 2 48 69 3 41 64 2 39 65 3 40 64 2 39 63 1 38 75 2 45 78 1 47 78 3 46 64 2 39 64 2 39 64 2 39 63 1 38 68 4 41 79 2 48 80 3 49 67 3 40 64 2 39 64 2 39 64 2 39 64 2 39 
64 2 39 64 2 39 69 3 41 80 3 49 80 3 49 69 3 41 64 2 39 64 2 39 65 3 40 64 2 39 76 3 46 80 3 49 74 1 44 64 2 39 63 1 38 64 2 39 64 2 39 68 2 40 79 2 48 79 2 48 69 2 43 65 3 40 64 3 37 63 1 38 64 2 39 75 2 45 78 2 48 75 2 45 66 4 41 64 2 39 64 2 39 63 2 36 69 3 41 80 3 47 79 4 47 69 3 41 64 2 39 64 2 39 64 2 39 64 2 39 77 2 45 79 2 48 74 1 44 64 2 39 64 2 39 63 1 38 64 2 39 67 1 39 80 3 49 81 2 49 68 2 40 65 3 40 64 2 39 64 2 39 63 3 39 75 2 45 79 2 48 74 1 44 65 3 40 64 2 39 63 1 38 66 2 39 69 3 41 80 3 49 79 0 47 69 3 41 64 2 39 65 3 40 64 2 39 65 3 40 76 3 46 80 3 49 75 2 45 65 3 40 64 2 39 65 3 40 64 2 39 68 2 40 79 3 49 79 3 49 69 3 41 64 5 37 65 3 42 65 4 38 65 1 38 75 2 45 80 3 49 75 2 45 64 2 39 63 1 38 64 2 39 65 3 40 68 4 41 79 2 48 80 3 49 67 3 40 64 2 39 65 3 40 63 1 38 64 2 39 
65 3 40 64 2 39 68 2 40 80 3 49 79 2 48 68 2 40 65 3 40 64 2 39 64 2 39 64 2 39 74 1 44 80 3 49 75 2 45 64 2 39 64 2 39 64 2 39 64 2 39 68 2 40 80 3 49 80 3 49 68 1 42 64 2 39 64 3 37 64 2 39 63 1 38 75 2 45 79 3 49 76 3 46 65 3 40 65 3 40 64 2 39 64 3 37 68 2 40 79 2 46 78 3 46 67 1 39 64 2 39 64 2 39 63 1 38 64 2 39 77 2 45 79 2 48 75 2 45 64 2 39 67 1 39 64 2 39 64 2 39 65 3 40 79 3 49 79 2 48 67 3 40 67 3 40 64 2 39 64 2 39 65 3 40 75 2 45 80 3 49 75 2 45 64 2 39 64 2 39 64 2 39 67 3 40 68 2 40 79 2 48 81 2 49 69 3 41 64 2 39 65 3 40 64 2 39 65 3 40 75 2 45 81 4 50 75 2 45 64 2 39 65 3 40 63 1 38 66 2 39 68 1 42 80 3 49 80 3 49 67 3 40 64 2 39 66 2 37 64 2 39 67 3 40 75 2 45 80 3 49 75 2 45 65 3 40 65 3 40 64 2 39 64 2 39 67 3 40 79 2 48 79 2 48 68 4 41 65 3 40 63 1 38 65 3 40 64 2 39 
65 3 40 64 2 39 69 3 41 80 3 49 79 2 48 68 2 40 64 2 39 64 2 39 64 2 39 64 2 39 75 2 45 79 2 48 75 2 45 64 2 39 64 2 39 65 3 40 65 3 40 69 3 41 80 3 49 80 3 49 69 2 43 65 3 40 64 2 39 65 4 38 64 2 39 77 2 45 80 2 50 75 2 45 65 3 40 64 2 39 64 2 39 64 2 39 69 2 43 80 3 47 80 3 47 69 3 41 65 3 40 64 2 39 64 2 39 64 2 39 77 2 45 79 2 48 75 2 45 64 2 39 66 2 39 64 2 39 64 2 39 68 4 41 81 2 49 79 2 48 65 3 40 64 2 39 64 2 39 64 2 39 63 3 39 75 2 45 79 2 48 75 2 45 64 2 39 67 1 39 64 2 39 67 3 40 68 2 40 80 3 49 80 3 49 69 5 42 65 3 40 66 2 39 64 2 39 65 3 40 75 2 45 80 3 49 75 2 45 64 2 39 64 2 39 64 2 39 67 3 40 67 3 40 79 2 48 79 2 48 69 3 41 66 2 39 64 2 39 63 1 38 65 3 40 76 3 46 81 4 50 77 2 45 64 2 39 64 2 39 65 3 40 65 3 40 66 2 39 80 3 49 79 2 48 68 4 41 64 2 39 65 3 40 65 3 40 64 2 39 
64 2 39 64 2 39 68 2 40 79 2 48 80 3 49 69 3 41 64 2 39 63 1 38 64 2 39 65 3 40 75 2 45 80 3 49 74 1 44 64 2 39 64 2 39 65 3 40 65 3 40 68 2 40 79 2 48 80 3 49 68 2 40 64 2 39 64 2 39 64 2 39 65 3 40 77 2 45 80 3 49 75 3 43 65 3 40 64 2 39 65 3 40 64 2 39 68 2 40 79 2 48 79 2 48 69 3 41 65 3 40 64 2 39 64 2 39 65 3 40 77 2 45 80 3 49 74 1 44 64 2 39 65 3 40 64 2 39 64 2 39 68 1 42 79 2 48 81 4 50 67 3 40 64 3 37 64 2 39 65 3 40 64 2 39 75 2 45 79 2 48 75 2 45 64 2 39 64 2 39 65 3 40 64 2 39 69 3 41 81 4 50 79 2 48 69 3 41 63 1 38 64 2 39 64 2 39 64 2 39 75 2 45 80 3 49 76 3 46 64 2 39 67 3 40 64 2 39 64 3 37 69 3 41 80 3 47 79 3 49 69 3 41 64 3 37 64 2 39 65 4 38 64 2 39 75 2 45 80 3 49 77 2 45 64 2 39 65 3 40 64 2 39 64 2 39 68 4 41 80 3 49 79 2 48 67 3 40 65 3 40 64 2 39 63 1 38 64 2 39 
65 3 40 64 2 39 67 3 40 79 2 48 80 3 49 69 3 41 64 2 39 64 2 39 65 3 40 64 2 39 75 2 45 78 1 47 75 2 45 64 2 39 63 2 36 64 2 39 64 2 39 67 0 41 79 2 48 79 2 48 70 4 42 64 2 39 64 2 39 64 2 39 65 3 40 76 3 46 78 2 48 75 2 45 66 2 39 64 2 39 64 2 39 64 2 39 68 2 40 80 3 49 79 2 48 68 2 40 65 3 40 65 3 40 64 2 39 65 3 40 78 3 46 79 2 48 74 1 44 63 1 38 62 0 37 65 1 38 64 2 39 69 3 41 80 3 49 80 3 49 69 3 41 65 3 40 63 1 38 63 3 39 64 2 39 74 1 44 80 3 49 75 2 45 64 2 39 66 2 39 64 2 39 64 2 39 68 2 40 80 3 49 79 2 48 68 2 40 64 2 39 64 2 39 63 1 38 64 2 39 75 2 45 79 2 48 75 2 45 64 2 39 66 2 39 65 3 40 66 2 39 68 1 42 80 3 49 80 3 49 69 3 41 64 2 39 65 1 36 64 2 39 64 2 39 76 3 46 80 3 49 78 3 46 66 2 39 64 2 39 64 2 39 63 3 39 67 3 40 79 2 48 79 2 48 67 3 40 64 2 39 65 3 40 64 2 39 65 3 40 
64 3 37 64 4 38 68 2 40 80 2 52 79 2 48 68 2 40 64 2 39 65 3 40 65 3 40 65 3 40 75 2 45 80 3 47 75 2 45 65 3 40 64 2 39 64 2 39 64 2 39 68 2 40 79 2 48 79 2 48 68 2 40 65 3 40 64 2 39 63 1 38 64 2 39 77 4 47 80 3 49 76 3 46 64 2 39 64 2 39 64 2 39 63 1 38 68 2 40 80 4 50 80 3 49 69 3 41 64 2 39 65 3 40 63 1 38 65 3 40 76 3 46 79 2 48 75 2 45 63 1 38 65 3 40 64 2 39 64 2 39 67 1 39 79 2 48 78 1 47 67 3 40 64 3 37 65 3 40 64 2 39 64 2 39 75 2 45 81 4 48 75 2 45 64 2 39 64 2 39 64 2 39 64 2 39 69 3 41 79 2 46 80 3 47 68 2 40 64 2 39 64 2 39 63 1 38 64 2 39 75 2 45 79 2 48 75 2 45 64 2 39 64 2 39 63 2 36 64 3 37 68 4 41 80 3 47 80 3 49 68 2 40 62 0 37 63 1 38 64 2 39 64 2 39 76 3 46 79 2 48 75 2 45 64 2 39 63 1 38 64 2 39 64 2 39 68 4 41 80 3 49 79 2 48 67 3 40 64 2 39 64 2 39 65 3 40 64 2 39 
65 1 38 63 3 37 68 2 40 79 3 49 80 3 49 69 3 41 64 2 39 65 3 40 64 2 39 64 2 39 75 2 45 79 2 48 75 2 45 63 1 38 64 2 39 64 2 39 63 1 38 69 3 41 79 2 48 79 2 48 69 3 41 64 2 39 64 2 39 64 2 39 63 1 38 76 3 46 79 2 48 75 2 45 66 2 39 64 2 39 63 3 39 64 2 39 68 2 40 79 2 48 80 3 49 69 3 41 64 2 39 64 2 39 65 3 40 64 2 39 75 2 45 80 3 49 75 2 45 64 2 39 64 2 39 64 2 39 63 1 38 68 2 40 79 2 48 80 3 49 68 2 40 64 3 37 65 3 40 64 2 39 64 2 39 75 2 45 80 3 47 75 2 45 64 2 39 65 3 40 64 2 39 64 2 39 68 2 40 80 2 50 79 1 49 69 3 41 64 2 39 64 2 39 64 2 39 64 2 39 75 2 45 79 2 48 76 3 46 63 1 38 64 2 39 65 4 38 65 4 38 67 3 40 79 2 48 79 2 46 68 2 40 63 1 38 67 3 40 65 3 40 64 2 39 76 3 46 79 2 48 76 3 46 64 2 39 64 2 39 64 3 37 64 2 39 68 1 42 80 3 47 80 1 48 67 3 40 63 2 36 64 2 39 63 1 38 64 2 39 
64 2 39 66 2 39 68 2 40 81 4 50 80 3 47 68 2 40 64 2 39 65 3 40 64 2 39 64 2 39 76 3 46 78 1 47 75 2 45 64 2 39 64 2 39 64 2 39 64 2 39 68 2 40 79 2 48 79 2 48 68 2 40 64 2 39 65 3 40 64 2 39 64 2 39 76 3 46 79 2 48 75 2 45 65 3 40 64 2 39 63 3 39 64 2 39 67 3 40 79 2 48 80 3 49 69 3 41 64 2 39 64 2 39 64 2 39 64 2 39 76 3 46 79 2 48 75 2 45 65 3 40 64 2 39 64 2 39 64 2 39 68 2 40 79 2 46 81 4 48 68 2 40 64 2 39 63 1 38 64 2 39 65 3 40 75 2 45 79 2 48 75 2 45 64 2 39 65 3 40 65 3 40 64 2 39 68 2 40 79 2 48 77 0 46 68 2 40 64 2 39 65 3 40 63 1 38 66 2 39 76 3 46 80 1 48 77 2 45 64 2 39 66 2 39 64 3 37 63 1 38 67 3 40 79 2 46 80 3 49 67 3 40 64 3 37 64 2 39 64 2 39 64 2 39 75 2 45 79 2 46 75 2 45 64 2 39 64 2 39 64 2 39 64 2 39 67 3 40 78 1 47 79 2 46 68 4 41 64 2 39 64 3 37 64 2 39 64 2 39 
63 1 38 66 2 39 69 3 41 79 2 46 80 3 47 68 2 40 64 2 39 64 2 39 63 1 38 64 2 39 75 2 45 79 2 48 75 2 45 65 3 40 64 2 39 64 2 39 65 3 40 69 3 41 79 2 48 80 3 49 68 2 40 64 2 39 64 2 39 65 3 40 64 2 39 76 3 46 79 2 48 74 1 44 64 2 39 64 2 39 64 2 39 66 2 39 68 2 40 79 2 48 79 2 48 68 2 40 64 2 39 65 3 40 63 1 38 65 3 40 75 2 45 79 2 48 76 3 46 64 2 39 63 1 38 66 2 39 64 2 39 69 3 41 79 2 46 80 3 47 67 3 40 64 2 39 64 2 39 64 2 39 63 1 38 75 2 45 79 2 48 74 1 44 65 4 38 64 2 39 64 2 39 65 3 40 68 2 40 79 2 48 80 3 49 68 2 40 64 2 39 64 2 39 64 2 39 64 2 39 75 2 45 79 2 48 75 2 45 64 2 39 65 3 40 63 2 36 64 3 37 68 2 40 79 2 48 79 2 44 68 2 40 63 1 38 64 2 41 65 3 40 65 3 40 75 2 45 80 2 50 75 2 45 64 2 39 64 2 39 64 2 39 64 2 39 67 3 40 79 2 48 79 2 46 68 2 40 65 3 40 66 2 39 65 3 40 64 3 37 
64 2 39 64 2 39 68 1 44 78 2 48 79 2 48 68 2 40 64 2 39 64 2 39 64 2 39 64 2 39 75 2 45 79 2 46 75 2 45 64 2 39 64 2 39 64 2 39 65 3 40 69 3 41 79 2 48 80 3 49 68 2 40 64 2 39 64 2 39 64 2 39 64 2 39 75 2 45 80 3 49 75 2 45 64 2 39 64 2 39 64 2 39 63 3 39 67 3 40 79 2 48 80 3 49 70 4 42 64 2 39 64 2 39 65 3 40 64 2 39 76 3 46 79 2 48 75 2 45 63 1 38 63 1 38 63 1 38 65 3 40 68 2 40 80 3 47 79 2 46 68 2 40 64 2 39 64 2 39 64 2 39 64 2 39 75 2 45 79 2 48 75 2 45 65 4 38 63 1 38 64 2 39 64 2 39 68 2 40 80 3 49 79 2 48 69 3 41 65 3 40 64 2 39 65 3 40 63 1 38 76 3 46 79 2 48 75 2 45 63 1 38 64 2 39 65 4 38 63 1 38 68 2 40 79 2 46 79 2 48 68 2 40 64 3 37 64 2 39 64 2 39 64 2 39 76 3 46 79 1 49 76 3 46 64 2 39 64 2 39 64 2 39 64 2 39 67 2 42 81 4 48 79 2 48 67 3 40 63 3 37 65 3 40 63 3 39 64 2 39 
66 2 39 64 2 39 70 2 41 79 2 46 79 2 48 69 3 41 63 1 38 64 2 39 64 2 39 64 2 39 75 2 45 80 3 47 75 2 45 64 2 39 64 2 39 64 2 39 64 2 39 68 2 40 79 2 48 79 2 48 68 2 40 64 2 39 64 2 39 63 1 38 64 2 39 77 4 47 80 3 49 76 3 46 63 1 38 64 2 39 64 2 39 64 2 39 68 2 40 79 2 48 80 3 49 68 2 40 64 2 39 65 3 40 64 2 39 64 2 39 77 4 47 80 3 49 73 0 43 64 2 39 64 2 39 64 2 39 63 1 38 68 2 40 79 2 46 79 2 46 68 2 40 64 2 39 64 2 39 64 2 39 64 2 39 75 2 45 79 2 48 74 1 44 64 2 39 64 2 39 64 2 39 64 2 39 69 3 41 79 2 46 79 2 46 69 3 41 62 0 37 63 1 38 64 2 39 64 2 39 75 2 45 79 2 48 75 2 45 64 2 39 64 2 39 64 3 37 65 4 38 68 2 40 79 3 49 79 2 44 68 2 40 63 3 39 65 3 40 64 4 40 63 1 38 76 3 46 79 2 46 75 2 45 65 3 40 64 2 39 63 1 38 64 2 39 67 3 40 79 2 48 80 3 49 66 2 39 64 3 37 64 2 39 65 3 40 63 3 39 
64 2 39 64 3 37 69 3 41 80 3 49 79 2 48 69 3 41 64 2 39 64 2 39 64 2 39 64 2 39 75 2 45 79 2 48 75 2 45 64 2 39 64 2 39 64 2 39 64 2 39 68 2 40 79 2 48 79 2 48 69 3 41 64 2 39 64 2 39 64 2 39 64 2 39 75 2 45 80 3 49 75 2 45 64 2 39 64 2 39 64 2 39 63 3 39 68 2 40 81 2 49 81 4 50 67 3 40 64 2 39 65 3 40 64 2 39 63 1 38 76 3 46 79 2 48 75 2 45 64 2 39 64 2 39 66 2 39 63 1 38 68 2 40 79 2 48 79 2 48 67 3 40 64 3 37 64 2 39 64 2 39 64 2 39 75 2 45 80 3 47 76 3 46 63 1 38 64 2 39 64 2 39 64 2 39 68 2 40 79 2 48 80 3 49 69 3 41 64 2 39 64 2 39 63 1 38 64 2 39 75 2 45 79 2 48 75 2 45 65 3 40 63 1 38 64 3 37 63 1 38 68 2 40 81 4 48 80 3 49 68 2 40 64 3 37 66 2 39 64 2 39 64 2 39 75 2 45 80 3 49 75 2 45 64 2 39 64 2 39 64 3 37 64 2 39 67 3 40 78 2 48 80 3 49 67 2 42 64 2 39 64 2 39 64 2 39 64 2 39 
64 2 39 63 1 38 68 2 40 78 2 48 79 2 46 69 3 41 64 2 39 64 2 39 64 2 39 65 3 40 75 2 45 79 2 48 75 2 45 64 2 39 64 2 39 64 2 39 64 2 39 68 2 40 79 2 48 79 2 48 69 3 41 64 2 39 64 2 39 64 2 39 64 2 39 75 2 45 80 3 49 75 2 45 64 2 39 64 2 39 64 2 39 64 2 39 67 3 40 80 3 49 79 2 48 68 2 40 64 2 39 64 2 39 64 2 39 64 2 39 76 3 46 79 2 48 75 2 45 64 2 39 63 1 38 65 3 40 64 2 39 69 3 41 79 2 48 79 2 48 68 2 40 63 2 36 64 2 39 64 2 39 63 1 38 75 2 45 79 2 46 75 2 45 64 2 39 65 3 40 65 3 40 64 2 39 68 2 40 79 1 49 79 1 49 68 2 40 65 3 40 64 2 39 64 2 39 66 2 39 76 3 46 80 1 48 77 4 47 64 2 39 66 2 39 65 4 38 63 3 37 69 3 41 79 4 47 78 2 48 67 1 39 63 1 38 65 1 38 64 2 39 65 3 40 75 2 45 79 2 48 75 2 45 63 1 38 64 2 39 64 2 39 64 2 39 68 1 42 80 3 49 80 3 47 67 3 40 65 3 40 64 2 39 64 2 39 63 1 38 
37 16 31 61 3 41 69 3 41 80 1 48 80 3 47 69 3 41 65 4 38 66 2 37 66 2 39 64 3 37 74 1 44 79 2 48 75 2 45 64 3 37 64 3 37 65 3 40 65 3 40 69 3 41 79 3 49 79 2 46 68 2 40 64 2 39 65 3 40 64 2 39 64 2 39 75 2 45 79 2 46 75 2 45 65 3 40 64 2 39 64 2 39 65 3 40 68 2 40 79 2 48 79 2 46 69 3 41 64 3 37 64 2 39 64 2 39 64 2 39 75 2 45 79 2 46 75 2 47 63 1 38 64 2 39 64 3 37 64 2 39 68 2 40 79 2 46 79 2 46 68 4 41 63 1 38 64 2 39 64 2 39 64 2 39 75 2 45 79 2 48 75 2 45 64 2 39 64 2 39 64 2 39 64 2 39 68 2 40 78 3 46 78 3 46 68 2 40 64 2 39 64 2 39 64 2 39 63 1 38 77 2 45 79 2 46 75 2 45 64 3 37 64 2 39 64 2 39 64 2 39 68 4 41 79 2 48 79 2 46 69 3 41 64 2 39 64 2 39 64 2 39 65 3 40 76 3 46 78 3 46 75 2 45 65 1 38 63 3 39 64 2 39 63 1 38 68 2 40 79 2 48 79 2 46 67 3 40 64 2 39 65 3 40 64 2 39 64 2 39 
8 31 25 23 24 28 58 8 37 79 2 46 78 2 48 69 3 39 66 2 37 63 2 36 64 2 39 64 2 39 75 2 45 79 2 46 77 2 45 64 2 39 63 1 38 64 2 39 64 2 39 68 2 40 80 3 47 79 2 48 69 3 41 63 1 38 64 2 39 64 2 39 64 2 39 76 3 46 80 3 47 76 3 46 64 2 39 64 2 39 64 2 39 64 2 39 69 3 41 80 3 49 79 2 46 68 2 40 64 3 37 64 2 39 64 2 39 64 3 37 76 3 46 79 2 46 75 2 45 63 1 38 63 1 38 64 2 39 64 2 39 68 2 40 79 2 48 80 3 49 67 3 40 65 3 40 63 1 38 65 3 40 64 2 39 75 2 45 80 3 49 73 0 43 65 3 40 64 2 39 65 3 40 64 2 39 66 4 41 79 1 49 79 1 49 70 2 41 65 3 40 66 2 39 63 3 39 64 2 39 75 2 45 79 2 46 76 3 46 65 3 40 64 2 39 64 2 39 64 3 37 67 3 40 79 2 48 79 2 46 68 2 40 64 2 39 63 2 36 64 2 39 64 2 39 76 3 46 79 2 46 75 2 45 64 2 39 64 2 39 64 2 39 64 2 39 66 2 39 80 3 47 79 2 46 68 4 41 64 2 39 65 3 40 64 2 39 64 2 39 
9 30 23 8 31 23 13 29 26 52 14 39 76 3 46 69 3 41 63 3 39 64 2 39 64 2 39 64 2 39 73 2 46 79 4 47 76 3 46 63 1 38 65 4 38 64 3 37 63 1 38 69 3 41 79 4 47 79 2 48 68 2 40 63 1 38 64 2 39 64 2 39 64 2 39 76 3 46 80 3 47 75 2 45 63 1 38 64 2 39 64 2 39 63 1 38 68 2 40 79 2 48 79 2 46 69 3 41 65 4 38 64 2 39 64 2 39 63 2 36 76 3 46 79 2 46 75 2 45 64 2 39 64 2 39 64 2 39 64 2 39 69 3 41 79 2 48 80 3 49 67 3 40 63 1 38 64 2 39 64 2 39 63 1 38 75 2 45 80 3 49 75 2 45 64 2 39 64 2 39 64 2 39 63 3 39 68 2 40 79 2 48 79 2 48 69 3 41 64 2 39 64 2 39 63 3 39 63 1 38 75 2 45 79 2 46 75 2 45 64 2 39 65 3 40 64 2 39 64 2 39 67 3 40 78 2 48 80 3 49 68 2 40 64 2 39 63 1 38 64 2 39 64 2 39 75 2 45 79 2 46 76 3 46 63 1 38 64 2 39 64 2 39 64 2 39 70 2 41 78 1 45 79 1 49 67 3 40 63 1 38 65 3 40 64 2 39 64 3 36 
11 32 27 9 32 26 10 31 26 8 31 23 32 22 31 60 6 38 64 2 39 64 2 39 64 2 39 64 2 39 73 2 44 78 3 46 74 3 45 64 2 39 64 2 39 64 3 37 65 3 40 68 2 40 79 4 47 79 2 48 69 3 41 64 2 39 63 1 38 63 1 38 64 2 39 75 2 45 79 2 46 75 2 45 64 2 39 64 2 39 64 2 39 64 2 39 68 2 40 80 3 49 79 2 46 68 2 40 64 2 39 64 2 39 64 2 39 65 3 40 76 3 46 80 3 49 74 1 44 64 2 39 64 2 39 64 3 37 64 2 39 67 3 40 78 3 46 79 2 46 68 2 40 64 2 39 65 3 40 65 3 40 65 3 40 75 2 45 79 2 48 74 1 44 64 2 39 63 1 38 63 3 39 64 2 39 67 3 40 79 2 48 79 3 49 69 1 40 63 3 39 64 2 39 63 1 38 65 3 40 77 2 45 80 3 47 75 2 45 64 3 37 64 2 39 64 2 39 65 4 38 68 2 40 80 5 48 78 1 45 68 2 40 64 2 39 64 3 37 64 2 39 63 1 38 76 3 46 80 3 47 75 2 45 64 2 39 64 2 39 64 2 39 65 3 40 65 3 40 79 2 46 80 3 49 67 3 40 63 1 38 63 1 38 64 2 39 64 3 37 
10 31 24 11 30 24 9 30 23 9 30 23 9 32 26 14 29 26 49 11 36 63 1 38 62 2 36 64 2 39 75 2 45 79 2 46 77 2 45 64 2 39 64 3 37 63 1 38 64 2 39 68 2 40 79 2 48 79 2 46 69 3 41 64 2 39 64 2 39 64 2 39 63 1 38 75 2 45 80 3 47 76 3 46 64 2 39 64 2 39 64 2 39 64 2 39 68 2 40 80 3 49 79 2 46 68 2 40 64 2 39 64 2 39 65 3 40 64 2 39 75 2 45 79 2 48 75 2 45 64 2 39 63 1 38 63 2 36 64 2 39 68 2 40 79 2 46 79 2 46 67 3 40 64 2 39 64 2 39 64 2 39 64 2 39 74 1 44 79 2 48 75 2 45 64 2 39 63 1 38 64 2 39 64 2 39 69 3 41 79 3 49 79 2 48 69 3 41 64 2 39 63 3 39 64 2 39 64 2 39 77 2 45 79 2 46 75 2 45 64 3 37 65 3 40 64 2 39 65 3 40 68 2 40 78 2 48 78 1 47 69 3 41 64 2 39 65 3 40 64 2 39 63 1 38 75 2 45 80 3 47 76 3 46 64 2 39 65 3 40 64 2 39 64 2 39 70 2 41 79 2 46 79 2 46 67 3 40 64 2 39 64 2 39 64 2 39 64 2 39 
10 31 26 9 32 26 8 31 23 8 31 23 10 31 24 10 31 26 11 30 24 32 20 30 59 4 36 65 4 38 73 2 44 79 2 48 75 2 45 65 4 38 64 2 39 64 2 39 64 3 37 68 2 40 79 3 49 79 2 46 68 2 40 64 2 39 64 2 39 64 2 39 64 2 39 75 2 45 79 2 46 75 2 45 63 1 38 64 2 39 64 2 39 63 1 38 68 2 40 79 2 48 79 2 46 69 3 41 65 3 40 64 2 39 64 3 37 64 2 39 75 2 45 80 3 49 75 2 45 63 1 38 66 2 39 64 2 39 64 2 39 68 2 40 80 3 49 79 2 48 67 3 40 64 2 39 64 2 39 63 1 38 65 3 40 75 2 45 79 2 48 76 3 46 64 2 39 64 2 39 64 2 39 63 3 39 68 4 41 80 1 46 79 2 46 68 2 40 64 2 39 66 2 39 63 3 39 64 2 39 75 2 45 80 3 47 75 2 45 64 2 39 64 2 39 64 2 39 64 3 37 67 3 40 78 3 46 80 3 47 69 3 41 64 2 39 64 3 37 65 3 40 64 2 39 75 2 45 79 2 46 74 1 44 64 2 39 64 2 39 63 1 38 64 2 39 65 3 40 80 3 49 80 3 47 67 3 40 63 1 38 64 2 39 63 1 38 65 3 40 
32 20 30 10 31 24 9 30 23 8 31 23 10 31 26 10 31 26 10 31 24 9 32 26 17 27 28 50 10 34 75 2 45 79 2 48 74 3 45 65 3 40 64 2 39 64 2 39 65 3 40 68 2 40 78 2 48 80 3 47 68 2 40 63 1 38 64 2 39 64 2 39 64 2 39 74 1 44 79 2 46 75 2 45 64 2 39 64 2 39 64 2 39 64 2 39 69 3 41 80 3 49 79 2 46 68 2 40 64 2 39 64 2 39 65 4 38 64 2 39 75 2 45 79 2 48 74 1 44 64 2 39 64 2 39 63 1 38 64 2 39 68 4 41 78 2 48 80 3 49 68 2 40 66 2 39 64 2 39 63 1 38 65 3 40 74 1 44 79 2 48 75 2 45 64 2 39 65 3 40 64 2 39 65 3 40 68 2 40 78 2 48 79 2 48 69 1 40 64 2 39 65 3 40 63 3 39 64 2 39 75 2 45 79 2 46 75 2 45 64 2 39 64 2 39 64 2 39 64 2 39 68 4 41 80 3 49 79 2 48 69 3 41 63 1 38 64 2 39 64 2 39 64 2 39 75 2 45 79 2 46 76 3 46 64 2 39 66 4 41 63 1 38 64 2 39 68 2 40 79 2 46 79 2 46 68 4 41 64 2 39 64 2 39 64 2 39 64 2 39 
63 3 39 46 12 36 14 29 26 9 30 23 10 31 26 10 31 26 9 30 25 10 31 26 9 32 22 10 31 24 41 16 35 78 2 48 75 2 45 64 2 39 64 2 39 63 2 36 62 0 37 67 1 39 79 2 46 79 2 48 68 2 40 64 2 39 64 2 39 64 2 39 64 2 39 75 2 45 80 3 47 75 2 45 65 3 40 64 2 39 64 2 39 65 3 40 68 2 40 79 2 48 79 2 46 69 3 41 64 2 39 64 2 39 64 3 37 64 2 39 75 2 47 79 2 48 74 1 44 64 2 39 66 2 39 64 3 37 63 1 38 68 2 40 79 2 46 79 2 46 67 3 40 64 2 39 64 2 39 64 2 39 64 2 39 75 2 45 80 3 49 75 2 45 63 1 38 65 3 40 64 2 39 64 2 39 68 4 41 79 1 49 78 2 49 69 3 41 64 2 39 64 2 39 65 3 40 64 2 39 77 2 45 79 2 46 75 2 45 65 4 38 64 2 39 63 1 38 64 3 37 67 3 40 79 2 48 78 1 45 68 2 40 64 2 39 64 2 39 64 2 39 64 4 40 79 2 46 80 5 48 75 2 45 64 2 39 65 3 40 63 1 38 64 2 39 67 3 40 79 2 46 80 3 49 68 4 41 64 2 39 64 2 39 64 2 39 65 4 38 
63 3 39 63 2 36 62 5 38 30 23 31 8 31 25 8 31 23 9 32 26 9 32 24 9 32 24 8 31 23 9 30 21 23 27 30 64 7 40 62 0 37 64 2 39 64 2 39 66 2 39 68 2 40 78 2 48 79 2 46 68 1 42 65 4 38 64 2 39 66 2 39 64 2 39 75 2 45 79 4 47 74 2 42 64 2 39 64 2 39 63 1 38 64 2 39 67 3 40 79 2 46 79 2 46 68 2 40 64 2 39 64 2 39 63 1 38 64 2 39 75 2 45 80 3 49 74 1 44 64 2 39 64 2 39 64 2 39 62 2 38 68 2 40 80 3 49 79 2 48 68 2 40 62 2 38 64 2 39 63 1 38 63 1 38 74 1 44 79 2 48 75 2 45 64 2 39 63 1 38 65 3 40 63 1 38 68 2 40 80 3 49 79 2 48 69 3 41 64 2 39 64 2 39 65 3 40 64 2 39 75 2 45 80 3 49 75 2 45 64 2 39 64 2 39 64 4 40 66 4 41 68 4 41 80 3 47 79 2 48 68 2 40 64 2 39 63 1 38 63 1 38 64 2 39 76 3 46 79 4 47 75 2 45 65 3 40 64 2 39 64 2 39 64 2 39 69 3 41 78 2 48 80 3 49 67 3 40 64 2 39 64 2 39 65 4 38 64 2 39 
64 2 39 65 3 40 68 1 42 78 2 48 52 14 39 15 30 27 10 31 24 7 30 22 8 31 23 8 31 23 10 31 24 9 32 24 11 30 24 39 14 33 63 3 37 64 2 39 63 3 39 68 4 41 80 3 47 79 3 49 68 2 40 64 2 39 64 2 39 64 2 39 63 3 39 77 2 45 79 2 46 75 4 46 64 2 39 64 2 39 64 2 39 63 1 38 68 2 40 79 2 48 79 3 49 68 2 40 64 2 39 65 3 40 64 2 39 65 3 40 76 3 46 79 2 48 75 2 45 64 2 39 64 2 39 64 2 39 64 2 39 69 3 41 80 3 49 80 3 49 68 2 40 64 2 39 64 2 39 64 2 39 64 2 39 75 2 45 79 2 46 75 2 45 63 1 38 64 2 39 64 2 39 64 2 39 68 2 40 80 3 49 79 2 48 69 3 41 64 2 39 64 2 39 64 2 39 63 1 38 75 2 45 78 2 48 75 2 45 63 1 38 65 3 40 64 2 39 63 1 38 67 3 40 79 2 48 79 2 46 68 2 40 64 3 37 64 2 39 64 2 39 64 2 39 74 1 44 80 3 47 76 3 46 65 3 40 64 2 39 63 1 38 64 2 39 68 4 41 80 3 49 79 2 48 68 4 41 64 2 39 64 2 39 64 2 39 65 3 40 
63 3 39 63 1 38 69 3 41 80 3 49 79 2 48 57 8 38 21 25 28 9 32 26 9 32 24 8 31 25 10 31 24 8 31 23 8 31 25 8 31 25 24 21 28 59 5 37 64 3 37 68 2 40 80 4 50 78 3 46 69 3 41 64 2 39 63 2 36 64 3 37 63 1 38 77 2 45 78 2 48 75 2 45 64 2 39 64 2 39 63 1 38 64 3 37 67 3 40 79 2 48 79 2 48 69 3 41 63 1 38 64 2 39 64 2 39 64 2 39 75 2 45 79 2 48 75 2 45 64 2 39 63 1 38 63 1 38 63 1 38 68 2 40 79 2 48 80 3 49 67 3 40 64 2 39 64 2 39 65 3 40 63 1 38 75 2 45 79 2 46 75 2 45 64 2 39 64 2 39 64 2 39 65 3 40 69 3 41 80 3 49 79 2 48 69 3 41 63 1 38 64 2 39 63 1 38 64 2 39 75 2 45 78 2 48 75 2 45 63 1 38 63 1 38 63 1 38 63 1 38 66 2 39 79 2 46 79 2 48 69 3 41 65 3 40 64 2 39 65 3 40 64 2 39 74 1 44 79 2 46 76 3 46 64 2 39 64 2 39 66 2 39 63 1 38 66 2 39 78 1 47 79 4 47 68 4 41 64 2 39 64 2 39 64 2 39 64 2 39 
63 1 38 64 3 37 69 3 41 79 2 46 80 3 47 69 3 41 62 2 36 39 14 33 11 30 26 8 31 23 9 32 26 10 31 26 9 32 24 10 31 22 10 31 26 13 28 25 46 13 32 67 3 40 78 2 48 79 2 48 68 2 40 64 3 37 66 2 39 64 3 36 64 2 39 75 2 45 79 2 46 75 2 47 64 2 39 63 1 38 63 1 38 64 3 37 67 3 40 79 2 48 78 2 48 69 3 41 64 2 39 64 2 39 64 2 39 65 3 40 74 1 44 80 3 49 74 1 44 64 2 39 64 2 39 64 2 39 65 3 40 68 2 40 80 3 49 79 2 48 67 3 40 65 3 40 64 2 39 64 2 39 64 2 39 75 2 45 78 1 47 76 3 46 63 1 38 64 2 39 64 2 39 64 2 39 68 2 40 79 2 48 79 2 48 69 3 41 64 2 39 65 3 40 63 1 38 63 1 38 75 2 45 78 2 48 75 2 45 64 2 39 64 2 39 64 2 39 63 1 38 66 2 39 79 2 48 78 1 47 69 3 41 64 3 37 64 2 39 64 2 39 64 2 39 75 2 45 80 3 47 74 1 44 63 1 38 64 2 39 64 2 39 63 1 38 68 2 40 80 3 47 78 2 48 68 4 41 63 1 38 64 2 39 64 2 39 64 2 39 
66 4 41 63 2 36 68 1 42 80 3 49 79 2 48 68 2 40 64 3 37 64 2 39 53 7 36 16 26 25 9 32 26 9 32 26 10 31 26 10 31 24 9 32 26 11 30 26 9 32 24 31 21 32 75 4 46 79 3 49 67 3 40 64 3 37 64 2 41 64 2 39 64 2 39 75 2 45 78 2 48 75 2 45 64 2 39 64 2 39 64 2 39 63 1 38 67 3 40 80 3 47 79 4 47 68 2 40 64 2 39 63 1 38 63 1 38 64 2 39 76 3 46 80 3 49 75 2 45 64 2 39 64 2 39 64 2 39 63 1 38 68 2 40 79 2 48 79 2 48 67 3 40 64 2 39 64 2 39 65 3 40 64 2 39 76 3 46 79 2 48 75 2 45 65 3 40 64 2 39 64 2 39 64 2 39 68 2 40 81 4 50 79 2 48 69 3 41 64 2 39 63 1 38 64 2 39 64 2 39 75 2 45 79 2 48 75 2 45 64 2 39 64 2 39 64 4 40 64 2 39 67 3 40 80 3 49 79 2 48 68 2 40 64 3 37 64 2 39 64 2 39 64 2 39 75 2 45 78 3 46 75 2 45 64 2 39 64 2 39 64 2 39 63 1 38 67 3 40 79 2 48 79 2 48 68 4 41 64 2 39 65 3 40 63 2 36 63 1 38 
66 2 39 65 4 38 66 2 39 79 4 47 79 0 47 68 2 40 63 2 36 63 3 39 65 4 38 63 3 37 41 16 35 9 30 25 10 31 24 10 31 24 6 32 23 10 31 26 10 31 26 10 31 26 18 28 29 57 12 41 68 4 41 64 3 37 63 1 38 65 3 40 64 2 39 74 1 44 80 1 48 74 3 45 63 1 38 64 2 39 64 2 39 64 2 39 67 3 40 80 3 47 79 2 46 68 2 40 64 3 37 64 3 37 63 1 38 64 2 39 75 2 45 79 2 46 75 2 45 63 1 38 64 2 39 64 2 39 64 2 39 68 2 40 79 2 48 78 1 47 67 3 40 64 2 39 64 2 39 63 1 38 64 2 39 75 2 45 79 2 46 75 2 45 64 2 39 65 3 40 64 2 39 64 2 39 68 2 40 79 2 48 79 2 48 69 3 41 65 3 40 63 1 38 65 3 40 64 2 39 75 2 45 79 2 48 75 2 45 63 1 38 64 2 39 63 3 39 64 2 39 67 3 40 78 1 45 80 3 49 68 2 40 64 2 39 64 2 39 64 2 39 63 2 36 75 2 47 79 3 49 76 3 46 63 2 36 64 2 39 62 2 38 64 2 39 67 3 40 79 2 48 78 2 48 67 3 40 64 2 39 64 3 37 64 2 39 65 3 40 
64 3 37 64 2 39 68 2 38 79 2 48 78 3 46 69 3 41 63 1 38 63 3 39 64 3 37 63 3 39 74 3 45 59 10 42 17 27 26 10 31 24 9 30 23 9 32 26 9 32 24 10 31 24 8 31 23 11 30 26 32 19 29 61 4 37 64 2 39 64 3 37 63 2 36 75 2 45 79 2 48 76 3 46 65 3 40 64 2 39 63 1 38 63 1 38 68 2 40 79 2 46 78 3 46 69 3 41 63 2 36 64 3 37 65 3 40 64 3 37 75 2 45 79 2 46 75 2 45 64 2 39 64 2 39 64 2 39 63 1 38 68 2 40 79 2 48 79 3 49 67 3 40 64 2 39 64 2 39 64 2 39 64 2 39 75 2 45 79 2 46 73 0 43 64 2 39 63 1 38 64 2 39 64 2 39 68 2 40 79 2 48 78 1 47 69 3 41 64 2 39 63 1 38 64 2 39 64 2 39 75 2 45 80 3 49 75 2 45 64 2 39 64 2 39 64 2 39 64 2 39 67 3 40 79 2 48 79 2 46 68 2 40 65 4 38 64 2 39 64 2 39 64 3 37 75 2 45 79 3 49 75 2 45 64 3 37 64 2 39 64 2 39 64 2 39 68 2 40 78 2 48 78 3 46 67 3 40 63 1 38 64 2 39 66 2 39 63 1 38 
64 2 39 64 2 39 68 3 45 78 2 49 79 2 48 69 3 41 64 2 39 65 4 38 64 3 37 65 1 38 74 1 44 80 3 49 69 4 44 29 22 30 10 31 26 10 31 24 9 32 26 9 32 26 9 30 23 9 32 26 10 31 26 18 27 26 50 10 37 64 2 39 66 2 39 75 2 45 79 2 48 74 3 45 64 2 39 64 2 39 64 2 39 64 3 37 67 3 40 80 3 49 79 2 48 68 2 40 64 3 37 64 3 37 64 2 39 64 3 37 76 3 46 79 2 46 75 2 45 64 2 39 64 2 39 63 1 38 64 2 39 69 1 40 80 3 49 79 3 49 67 3 40 64 2 39 64 2 39 64 2 39 64 2 39 74 1 44 79 2 48 75 2 45 64 2 39 63 1 38 63 1 38 63 1 38 69 3 41 79 2 48 79 2 48 69 3 41 63 1 38 64 2 39 64 2 39 64 2 39 76 3 46 78 2 48 75 2 45 64 2 39 65 3 40 64 2 39 64 2 39 68 4 41 79 2 46 79 2 48 69 3 41 63 1 38 64 2 39 64 2 39 64 3 37 76 3 46 79 2 48 75 2 45 64 3 37 65 4 38 66 2 39 64 2 41 67 3 40 79 4 47 81 2 49 67 3 40 64 2 39 64 2 39 64 2 39 65 3 40 
64 3 37 64 2 39 68 4 41 79 2 48 78 2 48 68 2 40 64 2 39 63 1 38 64 3 37 64 3 37 74 3 45 78 2 48 74 1 46 65 4 38 44 12 33 13 29 28 9 30 25 8 31 23 9 32 24 9 32 24 8 31 25 9 30 23 11 30 28 38 15 31 63 3 39 75 2 47 79 2 48 74 1 44 65 4 38 64 2 39 64 3 37 64 2 39 67 3 40 79 4 47 78 3 44 69 3 41 66 2 39 64 2 39 63 1 38 64 2 39 77 2 45 79 2 48 75 2 45 63 1 38 63 1 38 64 2 39 64 2 39 67 3 40 79 3 49 79 2 48 67 3 40 64 2 39 63 1 38 65 3 40 64 2 39 75 2 45 78 2 48 76 3 46 63 1 38 63 1 38 64 2 39 64 2 39 68 2 40 78 3 46 78 2 48 68 2 40 63 2 36 65 4 38 64 2 39 63 1 38 75 2 45 78 2 48 75 2 45 64 3 37 63 1 38 64 2 39 64 2 39 66 2 39 79 2 48 79 2 48 69 3 41 64 2 39 64 2 39 64 2 39 64 3 37 74 1 44 78 2 48 76 3 46 65 3 40 64 2 39 64 3 37 64 2 39 67 3 38 80 3 49 79 2 48 66 2 39 65 4 38 64 2 39 66 2 37 64 3 37 
64 3 37 64 2 39 67 3 40 79 2 48 79 2 48 69 3 41 64 2 39 65 3 40 64 3 37 64 3 37 74 3 45 79 2 48 74 3 47 64 2 39 64 3 37 55 6 35 10 31 24 9 30 23 10 31 24 10 31 26 8 31 25 9 30 23 8 31 23 9 30 23 17 25 27 61 7 39 78 2 48 73 2 44 65 3 40 65 3 42 63 3 37 64 2 39 66 1 41 78 1 47 78 2 48 68 2 40 64 2 39 64 2 39 64 2 39 64 2 39 75 2 45 79 3 49 74 3 45 64 2 39 64 2 39 64 2 39 64 2 39 68 2 40 79 2 48 78 2 48 67 3 40 64 2 39 63 1 38 64 2 39 64 2 39 75 2 45 78 2 48 75 2 45 63 1 38 64 2 39 64 2 39 64 2 39 68 2 40 79 4 47 78 2 48 68 2 40 64 2 39 64 3 37 64 2 39 64 2 39 75 2 45 78 2 48 75 2 45 64 2 39 64 2 39 64 2 39 65 3 40 68 4 41 79 3 49 79 2 48 68 2 40 64 2 39 64 2 39 63 2 36 64 2 39 75 2 45 79 3 49 76 3 46 64 3 37 64 2 39 64 2 39 64 2 39 67 3 40 79 1 49 71 4 45 53 10 37 53 7 36 65 3 40 64 3 37 64 2 39 
64 3 37 63 1 38 68 2 40 78 2 48 78 2 48 68 2 40 64 2 39 64 2 39 64 3 37 64 3 37 74 3 45 79 3 49 73 2 46 64 3 37 63 2 36 61 6 38 16 26 27 10 31 26 10 31 24 10 31 26 10 31 24 9 30 23 9 32 26 10 31 24 9 30 23 12 29 23 44 17 36 71 3 44 63 1 38 65 4 38 64 3 37 64 2 39 65 3 40 79 2 48 78 2 48 68 3 37 63 3 39 64 2 39 64 2 39 64 2 39 75 2 45 78 2 48 74 3 45 65 3 40 64 2 39 63 1 38 64 2 39 67 3 40 78 1 47 79 2 48 67 3 40 63 1 38 63 1 38 64 2 39 65 3 40 75 2 45 79 3 49 75 2 45 64 2 39 63 1 38 64 3 37 64 2 39 68 2 40 78 2 48 78 2 48 68 2 38 63 2 36 64 3 37 64 2 39 64 2 39 75 2 45 78 3 46 74 1 44 65 4 38 63 1 38 64 2 39 64 2 39 67 3 40 78 2 48 80 3 47 68 2 40 64 2 39 63 1 38 64 2 39 65 3 40 75 2 45 78 2 48 75 2 45 63 2 36 64 2 39 64 2 39 64 2 39 68 2 40 65 8 43 16 28 26 8 31 25 13 30 24 42 13 33 64 3 37 64 2 39 
63 3 37 64 2 39 67 3 40 79 2 48 78 2 48 68 2 40 63 1 38 63 1 38 63 2 36 64 3 37 73 2 44 80 3 49 75 2 45 64 2 39 64 2 39 63 3 41 46 13 34 13 30 24 9 32 26 6 32 23 9 32 26 10 31 26 8 31 23 9 30 23 10 31 24 9 32 26 8 31 25 25 23 28 56 7 36 64 2 39 64 2 39 65 4 38 68 2 40 78 2 48 79 4 47 68 4 41 62 2 38 63 1 38 64 2 39 63 1 38 75 2 45 79 2 48 74 1 44 64 2 39 63 1 38 64 2 39 64 2 39 68 2 40 78 2 48 78 2 48 68 2 40 64 2 39 64 2 39 67 3 40 64 2 39 74 1 44 78 2 48 75 2 45 62 2 38 64 2 39 64 2 39 64 2 39 68 2 40 78 3 46 78 2 48 68 2 40 63 1 38 63 2 36 64 3 37 64 2 39 75 2 45 78 2 48 75 2 45 64 2 39 64 2 39 64 2 39 65 4 38 67 3 40 79 2 48 80 3 49 68 2 40 63 1 38 63 2 36 64 3 37 64 3 37 75 2 45 79 3 49 75 2 45 64 2 39 64 2 39 64 3 37 64 2 39 67 3 40 33 20 30 8 29 24 8 31 23 9 32 24 12 28 25 57 6 37 64 3 37 
64 3 37 64 2 39 68 0 39 78 2 48 78 2 48 69 3 41 63 1 38 64 2 39 64 3 37 63 2 36 73 2 44 79 2 48 73 2 44 65 4 38 64 2 39 64 3 37 63 2 36 45 13 34 10 29 25 8 31 25 8 31 23 10 31 24 9 32 26 7 30 22 9 32 24 9 32 26 9 32 26 8 31 25 14 29 26 45 12 33 64 2 39 64 2 39 66 2 39 80 3 47 78 2 48 67 1 39 62 2 38 64 2 39 64 2 39 63 1 38 75 2 45 80 1 48 75 2 45 64 2 39 63 1 38 64 2 39 64 2 39 68 2 40 78 2 48 78 2 48 68 2 40 64 2 39 64 2 39 63 1 38 64 2 39 75 2 45 78 2 48 74 1 44 64 2 39 64 2 39 64 3 37 65 3 40 68 2 40 79 3 49 78 2 48 68 2 38 65 4 38 63 2 36 64 2 39 64 2 39 75 2 45 78 3 46 75 2 45 64 3 37 64 2 39 64 2 39 64 2 39 67 3 40 79 2 48 79 2 46 68 2 40 64 2 39 64 2 39 64 2 39 64 3 37 75 2 45 78 2 48 75 2 45 65 3 40 64 2 39 64 3 37 64 2 39 66 2 39 23 24 28 10 31 22 9 32 24 9 32 26 9 30 25 43 14 34 64 2 39 
63 3 37 64 2 39 68 4 41 79 2 48 78 2 48 69 3 41 64 2 39 64 2 39 64 3 37 64 3 37 73 2 44 78 2 48 74 3 45 63 1 38 64 3 37 64 3 37 63 2 36 67 3 40 59 10 40 11 30 26 9 30 25 8 31 23 8 31 23 8 31 25 9 32 26 9 32 26 9 32 24 10 31 26 9 32 24 8 29 22 27 22 29 59 4 36 67 1 39 79 4 47 79 2 48 68 2 40 64 2 39 63 1 38 64 2 39 64 2 39 75 2 45 79 2 48 74 3 45 64 2 39 64 2 39 64 2 39 64 2 39 67 3 40 79 2 48 79 2 48 66 2 39 64 2 39 64 2 39 64 2 39 64 2 39 76 3 46 78 2 48 75 2 45 63 1 38 64 2 39 64 2 39 64 2 39 69 3 41 78 3 46 78 2 48 69 3 41 63 1 38 64 3 37 64 3 37 63 1 38 75 2 45 78 2 48 75 2 45 64 2 39 63 1 38 64 2 39 64 2 39 67 3 40 79 3 49 79 2 48 68 2 40 64 2 39 64 3 37 63 2 36 63 1 38 75 2 45 78 2 48 76 3 46 64 3 37 64 2 39 63 1 38 63 1 38 67 2 42 40 19 36 8 31 23 9 30 25 11 30 24 7 33 24 30 20 29 64 2 39 
64 3 37 63 1 38 68 4 41 78 2 48 79 2 48 68 2 40 64 2 39 62 0 37 64 3 37 64 3 37 73 2 44 79 2 48 74 3 45 64 3 37 64 3 37 64 2 39 63 3 39 68 4 41 79 4 47 64 7 42 17 27 28 9 32 24 9 32 24 9 30 23 11 32 27 9 32 26 9 32 26 7 32 26 9 30 25 10 31 26 10 31 24 13 29 26 45 13 37 78 2 48 78 2 48 68 2 40 65 3 40 63 1 38 64 2 39 65 3 40 75 2 45 78 2 48 74 3 45 64 2 39 64 2 39 64 2 39 64 2 39 69 3 41 79 2 48 78 2 48 67 3 40 64 2 39 65 3 40 66 2 39 64 2 39 74 3 45 79 2 48 74 3 45 64 2 39 64 2 39 64 2 39 64 2 39 68 2 40 78 2 48 77 1 47 68 2 40 64 3 37 64 3 37 64 2 39 64 2 39 75 2 45 78 3 46 76 3 46 63 2 36 64 2 39 64 2 39 64 2 39 67 3 40 78 2 48 79 2 48 68 2 40 63 1 38 64 2 39 64 2 39 64 2 39 75 2 45 78 2 48 76 3 46 64 3 37 64 2 39 64 2 39 64 2 39 68 3 43 58 12 40 10 31 26 7 30 22 8 31 21 9 30 25 17 27 28 64 3 37 
64 3 37 64 2 39 66 2 39 79 2 48 78 2 48 69 3 41 63 1 38 63 1 38 64 3 37 64 3 37 73 2 44 77 1 47 75 2 45 63 1 38 63 2 36 63 2 36 63 3 37 68 2 40 78 2 48 79 2 46 58 7 38 14 28 28 9 32 24 9 32 24 9 32 26 8 31 23 9 32 26 10 31 24 8 31 23 8 31 25 8 31 23 10 31 24 8 28 26 33 21 33 68 6 43 65 3 40 64 2 39 64 2 39 64 2 39 63 1 38 75 2 45 79 3 49 74 1 44 64 2 39 63 1 38 64 2 39 63 1 38 67 3 40 78 2 48 79 2 48 67 3 40 64 2 39 64 2 39 63 1 38 64 2 39 75 2 45 79 2 48 73 2 44 66 2 39 64 2 39 64 2 39 64 2 39 68 2 40 79 4 47 77 1 47 68 2 40 64 3 37 64 3 37 64 2 39 64 2 39 74 1 44 78 2 48 74 1 44 64 2 39 63 1 38 64 2 39 63 1 38 66 2 39 79 2 48 79 2 48 68 2 40 63 1 38 64 2 39 65 4 38 63 2 36 75 2 45 78 2 48 74 1 44 64 2 39 64 2 39 64 3 37 64 2 39 67 2 42 72 4 45 16 28 26 10 31 24 8 31 23 10 31 26 10 31 26 59 4 36 
64 3 37 65 1 38 67 2 42 78 1 47 79 2 48 68 2 38 64 3 37 64 4 38 64 3 37 64 3 37 74 3 45 78 2 48 72 4 45 64 2 39 66 2 37 64 2 39 64 3 37 66 5 39 60 9 40 39 18 35 25 22 29 14 29 26 8 31 21 9 32 24 9 32 24 9 30 25 8 31 23 8 31 23 8 31 25 10 31 24 10 31 24 9 30 23 8 31 25 10 31 26 13 30 24 16 28 26 20 25 28 27 22 29 39 16 32 49 9 33 65 14 45 49 52 61 68 11 46 61 4 37 59 4 36 59 5 37 57 6 37 60 6 38 72 4 43 73 5 46 62 5 38 63 3 37 63 2 36 64 2 39 63 1 38 74 3 43 79 3 49 75 2 45 64 3 37 64 3 37 64 3 37 64 4 40 67 2 42 79 2 46 79 2 46 70 2 41 63 2 36 63 2 36 62 2 36 64 4 40 74 1 44 78 3 46 75 2 45 64 2 39 63 1 38 64 3 37 63 3 37 67 3 40 79 2 46 79 2 48 67 1 39 63 1 38 64 3 37 65 4 38 63 3 39 75 2 45 79 2 48 75 2 45 64 2 39 64 2 39 64 2 39 64 3 37 67 2 42 78 3 46 24 25 29 9 32 24 10 31 26 10 31 26 9 32 26 48 13 37 
66 2 37 64 3 37 67 3 40 79 2 46 78 2 48 68 1 42 62 2 38 65 4 38 64 3 37 63 3 37 73 2 44 78 1 47 75 4 46 65 3 40 63 3 37 42 13 33 27 22 28 10 29 25 8 31 25 8 31 23 9 30 23 9 30 25 6 32 23 9 32 24 9 32 24 10 31 26 9 30 25 8 31 25 10 31 26 9 32 26 8 30 27 8 31 23 8 31 25 8 31 25 8 31 23 9 32 26 9 32 26 10 31 26 7 30 24 9 30 25 6 36 28 23 86 67 25 89 72 19 65 52 9 34 28 7 30 24 9 32 24 9 32 24 8 31 23 10 31 24 9 30 25 8 31 25 9 30 25 14 29 26 20 25 28 25 23 28 34 20 33 40 19 36 37 14 32 42 13 33 50 12 37 57 7 36 67 3 40 78 2 48 79 2 46 69 3 41 64 3 37 64 2 39 62 2 38 64 3 36 74 1 44 80 3 47 74 1 44 64 2 39 66 2 36 64 2 39 65 4 38 66 2 39 79 2 46 80 3 49 68 4 41 64 2 39 66 2 39 64 2 39 63 2 36 75 2 47 76 3 46 75 2 47 62 5 37 64 2 39 64 2 39 62 2 38 67 3 40 79 1 49 36 18 34 10 31 24 9 30 23 10 31 24 10 31 24 38 15 33 
62 2 36 64 3 37 68 4 41 79 2 46 78 3 46 67 3 40 63 2 36 64 2 39 64 2 39 64 2 41 72 4 45 79 3 49 64 7 42 36 18 32 10 29 23 9 30 23 9 32 24 9 30 23 9 32 24 10 31 24 8 31 23 8 31 23 10 31 26 8 31 25 9 32 26 10 31 26 10 31 24 10 31 24 9 32 24 10 31 24 9 30 25 10 31 24 10 31 26 10 30 28 10 31 24 9 32 26 10 31 26 10 31 24 8 31 25 9 30 23 10 36 27 23 84 68 27 92 72 24 91 73 22 85 66 15 57 45 10 35 29 9 32 24 9 30 25 10 31 22 9 30 25 9 32 24 9 32 24 8 31 23 10 31 26 10 31 26 9 30 23 9 32 24 9 32 26 10 31 24 9 30 23 10 31 24 11 30 26 18 28 29 24 25 30 25 22 29 35 17 31 44 12 33 49 9 35 56 5 36 72 4 43 78 2 48 75 2 47 62 2 36 65 3 40 64 3 37 64 2 39 67 3 38 78 2 48 79 2 48 68 2 40 65 4 38 64 2 39 63 1 38 64 2 39 75 2 45 78 2 48 75 2 45 65 3 40 63 3 37 64 2 39 63 1 38 67 1 39 80 3 49 44 15 37 8 31 23 8 31 25 9 30 23 8 31 25 29 19 30 
64 3 37 64 2 39 68 1 42 80 2 50 78 2 48 69 3 41 63 3 39 65 4 38 66 2 39 64 3 37 63 8 40 30 22 33 10 31 26 10 31 24 9 30 23 8 31 23 10 33 25 9 32 26 9 32 26 9 32 24 10 31 24 9 32 26 9 32 24 9 30 25 9 32 26 8 31 23 10 30 28 9 30 23 11 30 26 10 31 26 10 31 26 9 32 24 9 32 26 10 31 26 10 31 24 9 32 24 9 32 26 9 32 24 9 30 23 9 32 26 10 33 27 22 80 65 25 93 72 24 92 71 27 92 72 26 90 73 23 82 64 16 57 43 10 33 25 9 30 23 10 31 24 9 29 27 10 31 24 9 30 23 9 30 23 10 31 24 8 31 23 10 31 24 8 31 25 8 31 25 9 30 25 8 31 25 10 29 23 9 30 23 9 32 24 8 31 23 9 32 24 9 32 24 8 29 22 9 30 23 18 26 28 26 24 29 34 20 33 39 14 33 49 11 34 59 5 37 64 4 38 65 3 42 75 4 46 75 4 44 67 3 40 64 3 37 63 2 36 64 3 37 64 3 37 75 2 45 76 3 48 74 3 45 64 3 37 63 3 37 64 2 39 62 2 38 68 2 40 79 2 48 57 11 40 8 31 23 9 30 23 9 30 25 8 31 25 17 27 26 
