P3
100 50
255
64 2 39 63 1 38 64 2 39 64 2 39 64 2 39 64 2 39 64 2 39 64 2 39 64 2 39 65 3 40 64 2 39 65 3 40 64 2 39 64 2 39 65 3 40 66 4 41 63 1 38 65 3 40 64 2 39 64 2 39 64 2 39 64 2 39 66 2 39 64 2 39 64 2 39 66 2 39 64 2 39 64 2 39 66 2 39 66 2 39 67 3 40 66 2 39 66 2 39 66 2 39 66 2 39 67 3 40 64 2 39 66 2 39 66 2 39 64 2 39 64 2 39 66 2 39 66 2 39 64 2 39 64 2 39 64 2 39 64 2 39 64 2 39 64 2 39 64 2 39 64 2 39 64 2 39 66 2 39 66 2 39 64 2 39 64 2 39 64 2 39 64 2 39 64 2 39 64 2 39 64 2 39 64 2 39 64 2 39 64 2 39 64 2 39 64 2 39 65 3 40 64 2 39 64 2 39 65 3 40 64 2 39 65 3 40 64 2 39 65 3 40 64 2 39 64 2 39 64 2 39 64 2 39 64 2 39 67 3 40 66 4 41 66 2 39 64 2 39 64 2 39 64 2 39 64 2 39 64 2 39 64 2 39 64 2 39 64 2 39 64 2 39 64 2 39 64 2 39 64 2 39 65 3 40 64 2 39 64 2 39 65 3 40 64 2 39 64 2 39 
64 2 39 64 2 39 64 2 39 64 2 39 66 2 39 64 2 39 64 2 39 64 2 39 64 2 39 64 2 39 64 2 39 66 2 39 64 2 39 64 2 39 65 3 40 65 3 40 64 2 39 64 2 39 64 2 39 64 2 39 64 2 39 64 2 39 64 2 39 64 2 39 64 2 39 64 2 39 64 2 39 64 2 39 65 3 40 64 2 39 64 2 39 64 2 39 64 2 39 65 3 40 64 2 39 65 3 40 64 2 39 64 2 39 64 2 39 64 2 39 64 2 39 64 2 39 64 2 39 64 2 39 66 2 39 64 2 39 64 2 39 65 3 40 64 2 39 64 2 39 64 2 39 66 2 39 64 2 39 64 2 39 66 2 39 66 2 39 66 2 39 64 2 39 64 2 39 64 2 39 64 2 39 64 2 39 65 3 40 64 2 39 64 2 39 64 2 39 64 2 39 64 2 39 65 3 40 64 2 39 64 2 39 63 1 38 66 2 39 64 2 39 65 3 40 64 2 39 64 2 39 64 2 39 66 2 39 64 2 39 67 3 40 63 1 38 67 3 40 64 2 39 64 2 39 64 2 39 64 2 39 64 2 39 64 2 39 64 2 39 64 2 39 64 2 39 64 2 39 64 2 39 65 3 40 64 2 39 64 2 39 65 3 40 64 2 39 64 2 39 
64 2 39 65 3 40 64 2 39 65 3 40 66 2 39 64 2 39 64 2 39 64 2 39 65 3 40 64 2 39 64 2 39 66 2 39 64 2 39 64 2 39 64 2 39 63 1 38 65 3 40 64 2 39 64 2 39 64 2 39 64 2 39 64 2 39 64 2 39 64 2 39 64 2 39 64 2 39 64 2 39 64 2 39 65 3 40 64 2 39 65 3 40 64 2 39 64 2 39 64 2 39 63 1 38 64 2 39 64 2 39 64 2 39 64 2 39 64 2 39 64 2 39 64 2 39 64 2 39 64 2 39 64 2 39 64 2 39 64 2 39 66 2 39 67 3 40 64 2 39 64 2 39 64 2 39 66 2 39 66 2 39 64 2 39 64 2 39 64 2 39 64 2 39 64 2 39 64 2 39 64 2 39 64 2 39 64 2 39 64 2 39 64 2 39 65 3 40 64 2 39 64 2 39 64 2 39 67 3 40 64 2 39 64 2 39 65 3 40 64 2 39 64 2 39 64 2 39 64 2 39 67 3 40 64 2 39 66 2 39 64 2 39 65 1 38 65 3 40 64 2 39 64 2 39 64 2 39 64 2 39 64 2 39 64 2 39 64 2 39 64 2 39 64 2 39 65 3 40 64 2 39 64 2 39 64 2 39 64 2 39 64 2 39 64 2 39 64 2 39 
64 2 39 65 3 40 65 3 40 64 2 39 64 2 39 63 1 38 64 2 39 64 2 39 64 2 39 64 2 39 65 3 40 64 2 39 64 2 39 64 2 39 64 2 39 63 1 38 65 3 40 64 2 39 64 2 39 64 2 39 64 2 39 64 2 39 66 2 39 64 2 39 64 2 39 66 2 39 64 2 39 64 2 39 66 2 39 66 2 39 66 2 39 66 2 39 66 2 39 66 2 39 66 2 39 66 2 39 66 2 39 64 2 39 64 2 39 66 2 39 66 2 39 64 2 39 64 2 39 66 2 39 64 2 39 64 2 39 64 2 39 64 2 39 64 2 39 64 2 39 64 2 39 64 2 39 64 2 39 64 2 39 66 2 39 66 2 39 66 2 39 64 2 39 64 2 39 64 2 39 64 2 39 65 3 40 64 2 39 64 2 39 64 2 39 64 2 39 64 2 39 64 2 39 65 3 40 65 3 40 64 2 39 64 2 39 63 1 38 64 2 39 65 3 40 64 2 39 64 2 39 65 3 40 67 3 40 64 2 39 66 2 39 64 2 39 65 3 40 64 2 39 64 2 39 64 2 39 64 2 39 64 2 39 64 2 39 64 2 39 64 2 39 64 2 39 66 2 39 66 2 39 66 2 39 66 2 39 66 2 39 65 1 38 65 1 38 66 2 39 
64 2 39 65 3 40 64 2 39 64 2 39 65 3 40 65 3 40 64 2 39 65 3 40 64 2 39 64 2 39 64 2 39 64 2 39 64 2 39 64 2 39 66 2 39 65 3 40 64 2 39 66 2 39 64 2 39 64 2 39 64 2 39 66 2 39 64 2 39 64 2 39 64 2 39 64 2 39 66 2 39 64 2 39 66 2 39 66 2 39 66 2 39 67 3 40 67 3 40 66 2 39 67 3 40 66 2 39 64 2 39 64 2 39 64 2 39 64 2 39 64 2 39 64 2 39 64 2 39 64 2 39 66 2 39 64 2 39 64 2 39 64 2 39 63 1 38 64 2 39 64 2 39 66 2 39 66 2 39 66 2 39 64 2 39 64 2 39 64 2 39 65 3 40 65 3 40 64 2 39 64 2 39 64 2 39 64 2 39 64 2 39 64 2 39 65 3 40 63 1 38 64 2 39 64 2 39 65 3 40 64 2 39 64 2 39 66 2 39 65 3 40 65 3 40 64 2 39 65 3 40 64 2 39 64 2 39 65 1 38 64 2 39 64 2 39 65 3 40 64 2 39 64 2 39 64 2 39 64 2 39 64 2 39 64 2 39 64 2 39 64 2 39 64 2 39 64 2 39 64 2 39 64 2 39 64 2 39 64 2 39 64 2 39 64 2 39 64 2 39 
64 2 39 65 3 40 64 2 39 65 3 40 64 2 39 64 2 39 65 3 40 66 2 39 67 3 40 65 3 40 64 2 39 65 3 40 64 2 39 64 2 39 66 2 39 65 3 40 65 3 40 65 1 38 65 3 40 64 2 39 64 2 39 65 3 40 63 1 38 64 2 39 64 2 39 64 2 39 65 3 40 64 2 39 64 2 39 64 2 39 64 2 39 64 2 39 66 4 41 64 2 39 66 4 41 63 1 38 64 2 39 66 2 39 66 2 39 64 2 39 64 2 39 66 2 39 66 2 39 64 2 39 64 2 39 64 2 39 64 2 39 64 2 39 64 2 39 64 2 39 64 2 39 64 2 39 66 2 39 66 2 39 64 2 39 64 2 39 64 2 39 64 2 39 64 2 39 64 2 39 64 2 39 64 2 39 64 2 39 64 2 39 64 2 39 64 2 39 64 2 39 64 2 39 65 3 40 64 2 39 64 2 39 64 2 39 64 2 39 64 2 39 64 2 39 64 2 39 64 2 39 64 2 39 64 2 39 65 3 40 65 3 40 66 4 41 64 2 39 63 1 38 64 2 39 64 2 39 64 2 39 64 2 39 64 2 39 64 2 39 64 2 39 64 2 39 64 2 39 64 2 39 65 3 40 64 2 39 64 2 39 65 3 40 65 3 40 65 3 40 
66 2 39 66 2 39 66 2 39 66 2 39 65 3 40 64 2 39 66 2 39 64 2 39 64 2 39 66 2 39 67 3 40 66 2 39 64 2 39 65 3 40 64 3 37 64 3 37 64 2 39 64 2 39 65 3 40 65 3 40 64 2 39 64 2 39 67 3 40 64 2 39 64 2 39 64 2 39 66 2 39 64 2 39 64 2 39 64 2 39 64 2 39 65 3 40 63 1 38 64 2 39 64 2 39 64 2 39 65 3 40 64 2 39 64 2 39 65 3 40 64 2 39 64 2 39 64 2 39 64 2 39 64 2 39 64 2 39 64 2 39 64 2 39 64 2 39 64 2 39 64 2 39 64 2 39 64 2 39 64 2 39 65 3 40 63 1 38 65 3 40 64 2 39 63 1 38 64 2 39 64 2 39 65 3 40 65 3 40 64 2 39 64 2 39 63 3 39 65 3 40 66 2 39 64 2 39 64 2 39 63 1 38 64 2 39 65 3 40 64 2 39 65 3 40 65 3 40 64 2 39 64 2 39 64 2 39 66 2 39 64 2 39 64 2 39 66 2 39 64 2 39 65 3 40 64 2 39 63 1 38 65 3 40 64 2 39 66 2 39 64 2 39 65 3 40 64 2 39 64 2 39 64 2 39 64 2 39 64 2 39 64 2 39 65 3 40 64 2 39 
64 2 39 66 2 39 66 2 39 66 2 39 67 1 39 64 2 39 65 1 38 66 2 39 63 1 38 64 2 39 64 2 39 63 1 38 66 2 37 64 2 39 64 2 39 65 3 40 67 3 40 66 2 39 65 1 38 64 2 39 65 3 40 64 2 39 65 3 40 65 3 40 64 4 40 64 2 39 64 2 39 65 3 40 64 2 39 64 2 39 64 2 39 65 3 40 63 1 38 64 2 39 64 2 39 64 2 39 67 3 40 63 1 38 64 2 39 64 2 39 64 2 39 64 2 39 64 2 39 64 2 39 65 3 40 65 3 40 64 2 39 64 2 39 64 2 39 64 2 39 64 2 39 64 2 39 64 2 39 64 2 39 65 1 38 66 2 39 64 2 39 65 3 40 64 2 39 64 2 39 64 2 39 66 2 39 64 2 39 66 2 39 64 2 39 64 2 39 65 3 40 63 1 38 64 2 39 64 2 39 64 2 39 64 2 39 65 3 40 64 2 39 64 2 39 64 2 39 64 2 39 66 2 39 64 2 39 65 3 40 66 2 39 65 3 40 64 2 39 64 2 39 64 2 39 64 2 39 64 2 39 64 2 39 65 3 40 64 2 39 66 2 39 66 2 39 63 1 38 64 2 39 64 2 39 65 3 40 64 2 39 65 3 40 64 2 39 64 2 39 
64 2 39 64 2 39 64 2 39 64 2 39 65 3 40 66 2 39 64 2 39 65 3 40 66 2 39 63 1 38 64 2 39 66 2 39 64 2 39 64 2 39 63 1 38 64 2 39 65 3 40 64 2 39 63 1 38 64 2 39 64 2 39 66 2 39 64 2 39 64 2 39 65 1 38 64 2 39 64 2 39 65 3 40 64 2 39 64 2 39 64 2 39 64 2 39 64 2 39 64 2 39 64 2 39 64 2 39 64 2 39 64 2 39 64 2 39 65 3 40 64 2 39 64 2 39 64 2 39 64 2 39 65 3 40 64 2 39 65 3 40 64 2 39 64 2 39 64 2 39 64 2 39 64 2 39 64 2 39 64 2 39 65 3 40 65 3 40 64 2 39 64 2 39 64 2 39 67 3 40 64 2 39 64 2 39 65 3 40 64 2 39 64 2 39 64 2 39 66 2 39 64 2 39 64 2 39 66 4 41 64 2 39 64 2 39 64 2 39 65 3 40 63 1 38 65 3 40 65 3 40 64 2 39 65 3 40 64 2 39 64 2 39 64 2 39 64 2 39 64 2 39 64 2 39 63 1 38 64 2 39 64 2 39 64 2 39 64 2 39 66 2 39 65 3 40 64 2 39 64 2 39 64 2 39 64 2 39 64 2 39 64 2 39 64 2 39 65 3 40 
65 3 40 64 2 39 64 2 39 64 2 39 65 3 40 65 3 40 64 2 39 64 2 39 64 2 39 64 2 39 66 2 39 64 2 39 64 2 39 64 2 39 64 2 39 64 2 39 64 2 39 64 2 39 64 2 39 65 4 38 64 2 39 64 2 39 64 2 39 64 2 39 64 2 39 65 1 38 63 1 38 66 2 39 64 2 39 64 2 39 64 2 39 64 2 39 64 2 39 64 2 39 64 2 39 64 2 39 64 2 39 64 2 39 64 2 39 65 3 40 64 2 39 66 2 39 66 2 39 66 2 39 63 1 38 64 2 39 64 2 39 65 3 40 64 2 39 64 2 39 64 2 39 65 3 40 65 3 40 65 3 40 64 2 39 63 1 38 64 2 39 65 3 40 64 2 39 64 2 39 64 2 39 66 2 39 64 2 39 64 2 39 64 2 39 64 2 39 64 2 39 64 2 39 64 2 39 65 3 40 65 3 40 65 3 40 64 2 39 64 2 39 63 1 38 64 2 39 65 3 40 64 2 39 65 3 40 64 2 39 64 2 39 64 2 39 64 2 39 65 3 40 64 2 39 64 2 39 64 2 39 65 3 40 64 2 39 65 3 40 62 0 37 66 2 39 64 2 39 64 2 39 64 2 39 64 2 39 65 3 40 64 2 39 64 2 39 64 2 39 
64 2 39 64 2 39 64 2 39 64 2 39 64 2 39 66 2 39 64 2 39 64 2 39 64 2 39 64 2 39 64 2 39 63 1 38 65 3 40 64 2 39 65 3 40 64 2 39 64 3 37 64 3 37 64 2 39 64 2 39 66 2 39 66 2 39 65 3 40 64 2 39 66 2 39 64 2 39 64 2 39 64 2 39 63 1 38 64 2 39 64 2 39 63 1 38 64 2 39 64 2 39 64 2 39 64 2 39 64 2 39 64 2 39 64 2 39 64 2 39 64 2 39 64 2 39 64 2 39 64 2 39 64 2 39 64 2 39 65 3 40 64 2 39 64 2 39 64 2 39 64 2 39 64 2 39 64 2 39 64 2 39 64 2 39 64 2 39 64 2 39 64 2 39 63 1 38 64 2 39 64 2 39 64 2 39 65 1 38 63 1 38 65 3 40 64 2 39 65 3 40 63 1 38 64 2 39 65 3 40 64 2 39 63 1 38 64 2 39 64 2 39 64 2 39 64 2 39 65 3 40 65 3 40 65 3 40 65 3 40 64 2 39 64 2 39 63 1 38 64 2 39 64 2 39 64 2 39 64 2 39 64 2 39 64 2 39 64 2 39 64 2 39 66 2 39 64 2 39 64 2 39 64 2 39 65 3 40 65 3 40 64 2 39 64 2 39 64 2 39 
64 2 39 64 2 39 64 2 39 64 2 39 65 3 40 65 3 40 64 2 39 64 2 39 63 1 38 64 2 39 64 2 39 65 3 40 64 3 37 65 4 38 64 2 39 64 2 39 64 2 39 65 3 40 64 3 37 64 3 37 64 2 39 63 3 39 64 2 39 64 2 39 66 2 39 64 2 39 64 2 39 64 2 39 64 2 39 65 3 40 64 2 39 64 2 39 64 2 39 65 3 40 64 2 39 64 2 39 66 2 39 67 3 40 66 2 39 64 2 39 64 2 39 64 2 39 64 2 39 64 2 39 64 2 39 64 2 39 63 1 38 64 2 39 64 2 39 65 3 40 65 3 40 64 2 39 63 1 38 64 2 39 64 2 39 64 2 39 64 2 39 64 2 39 64 2 39 66 2 39 65 3 40 64 2 39 64 2 39 65 3 40 65 3 40 66 2 39 65 3 40 64 2 39 64 2 39 65 3 40 65 3 40 65 3 40 64 2 39 64 2 39 64 2 39 64 2 39 64 2 39 64 2 39 64 2 39 64 2 39 64 2 39 63 1 38 64 2 39 64 2 39 65 3 40 64 2 39 64 2 39 65 3 40 64 2 39 64 2 39 66 2 39 62 0 37 64 2 39 64 2 39 64 2 39 64 2 39 64 2 39 64 2 39 64 2 39 64 2 39 
64 2 39 63 1 38 64 2 39 62 0 37 64 2 39 65 3 40 64 2 39 65 3 40 64 2 39 65 3 40 64 2 39 64 2 39 63 1 38 64 2 39 65 4 38 63 2 36 64 2 39 64 2 39 64 2 39 65 3 40 64 2 39 65 3 40 65 3 40 64 2 39 64 2 39 65 3 40 64 2 39 63 1 38 64 2 39 64 2 39 64 2 39 63 1 38 64 2 39 64 2 39 64 2 39 64 2 39 64 2 39 65 3 40 64 2 39 64 2 39 64 2 39 65 3 40 64 2 39 64 2 39 64 2 39 64 2 39 64 2 39 64 2 39 64 2 39 64 2 39 64 2 39 64 2 39 65 3 40 64 2 39 66 2 39 66 2 39 64 2 39 65 3 40 64 2 39 65 3 40 66 2 39 65 3 40 64 2 39 65 3 40 65 3 40 64 2 39 64 2 39 65 3 40 64 2 39 64 2 39 64 2 39 63 1 38 65 3 40 64 2 39 64 2 39 65 3 40 64 2 39 64 2 39 64 2 39 66 2 39 64 2 39 64 2 39 66 2 39 64 2 39 65 3 40 65 3 40 64 2 39 64 2 39 64 2 39 64 2 39 66 2 39 66 2 39 65 3 40 64 2 39 64 2 39 63 1 38 63 1 38 64 2 39 65 3 40 65 3 40 
64 2 39 64 2 39 64 2 39 64 2 39 64 2 39 64 2 39 64 2 39 64 2 39 64 2 39 63 1 38 64 2 39 65 3 40 64 2 39 66 2 39 66 2 39 66 2 39 64 2 39 65 3 40 64 2 39 65 1 38 65 3 40 64 2 39 64 2 39 66 2 39 64 2 39 65 3 40 64 2 39 64 2 39 65 3 40 64 2 39 64 2 39 64 2 39 65 3 40 64 2 39 64 2 39 64 2 39 64 2 39 65 3 40 64 2 39 64 2 39 64 2 39 65 3 40 64 2 39 64 2 39 64 2 39 65 3 40 65 3 40 65 3 40 64 2 39 64 2 39 64 2 39 64 2 39 64 2 39 64 2 39 65 3 40 64 2 39 65 3 40 64 2 39 64 2 39 64 2 39 64 2 39 63 1 38 64 2 39 64 2 39 66 2 39 63 1 38 64 2 39 64 2 39 64 2 39 64 2 39 64 2 39 64 2 39 65 3 40 65 3 40 64 2 39 65 3 40 64 2 39 65 1 38 64 2 39 64 2 39 66 2 39 65 3 40 63 1 38 64 2 39 64 2 39 66 4 41 64 2 39 64 2 39 64 2 39 66 2 39 64 2 39 65 3 40 64 2 39 64 2 39 64 2 39 64 2 39 64 2 39 64 2 39 65 3 40 64 2 39 
63 3 39 64 2 39 64 2 39 64 2 39 66 2 39 63 1 38 64 2 39 65 3 40 67 3 40 65 3 40 65 3 40 64 2 39 66 2 39 63 1 38 67 3 40 64 2 39 64 2 39 63 3 39 66 2 39 63 1 38 66 2 39 64 2 39 65 1 38 66 2 39 64 2 39 64 2 39 66 2 39 64 2 39 67 3 40 64 2 39 64 2 39 64 2 39 65 3 40 64 2 39 63 1 38 66 2 39 63 1 38 64 2 39 64 2 39 66 4 41 65 3 40 64 2 39 64 2 39 64 2 39 64 2 39 64 2 39 64 2 39 63 1 38 64 2 39 64 2 39 64 2 39 64 2 39 64 2 39 64 2 39 64 2 39 64 2 39 65 4 38 65 4 38 64 3 37 65 4 38 64 2 39 64 2 39 64 2 39 66 2 39 64 2 39 66 2 39 63 1 38 64 2 39 64 2 39 65 3 40 64 2 39 63 1 38 64 2 39 65 3 40 65 3 40 65 3 40 64 2 39 64 2 39 63 1 38 63 1 38 64 2 39 65 3 40 64 2 39 64 2 39 65 3 40 64 2 39 64 2 39 64 2 39 64 2 39 64 2 39 63 1 38 64 2 39 65 3 40 66 2 39 64 2 39 63 1 38 64 2 39 63 3 39 64 2 39 65 3 40 
65 3 40 66 2 39 66 2 39 64 2 39 63 1 38 64 2 39 66 2 39 64 2 39 65 3 40 64 2 39 63 1 38 64 2 39 64 2 39 64 2 39 64 2 39 64 2 39 64 2 39 64 2 39 64 2 39 64 2 39 64 2 39 64 2 39 64 2 39 64 2 39 64 2 39 64 2 39 64 2 39 64 2 39 63 1 38 64 2 39 64 2 39 64 2 39 64 2 39 64 2 39 65 3 40 64 2 39 63 1 38 64 2 39 64 2 39 64 2 39 65 3 40 64 2 39 64 2 39 64 2 39 63 1 38 63 1 38 63 3 39 63 3 39 63 1 38 64 2 39 65 3 40 67 3 40 65 3 40 65 3 40 65 3 40 65 3 40 65 3 40 64 2 39 64 2 39 64 2 39 64 2 39 63 1 38 64 2 39 64 2 39 63 1 38 65 3 40 63 1 38 65 1 38 66 2 39 64 2 39 64 2 39 66 2 39 64 2 39 65 3 40 64 2 39 64 2 39 64 2 39 64 2 39 63 3 39 65 3 40 64 2 39 63 1 38 64 2 39 64 2 39 67 3 40 64 2 39 66 2 39 64 2 39 67 3 40 65 3 40 63 1 38 64 2 39 64 2 39 63 1 38 62 2 38 64 2 39 64 2 39 64 2 39 66 2 39 64 2 39 
64 2 39 65 3 40 64 2 39 64 4 40 62 0 37 64 2 39 65 3 40 64 2 39 64 2 39 64 2 39 64 2 39 63 1 38 64 2 39 63 1 38 64 2 39 67 3 40 64 2 39 65 1 38 63 1 38 65 3 40 64 2 39 68 4 41 63 1 38 64 2 39 66 2 39 66 2 39 64 2 39 67 3 40 64 2 39 64 2 39 64 2 39 64 2 39 64 2 39 64 2 39 64 2 39 64 2 39 64 2 39 64 2 39 64 2 39 64 2 39 65 3 40 64 2 39 64 2 39 63 1 38 65 3 40 63 3 39 65 3 40 65 3 40 64 2 39 64 2 39 63 1 38 65 3 40 65 4 38 64 3 37 64 3 37 64 3 37 64 2 39 64 2 39 64 2 39 63 1 38 64 2 39 66 2 39 64 2 39 64 2 39 64 2 39 63 3 39 63 1 38 64 2 39 64 2 39 64 2 39 64 2 39 64 2 39 65 3 40 64 2 39 64 2 39 64 2 39 64 4 40 64 2 39 65 3 40 65 3 40 63 1 38 64 2 39 64 2 39 64 2 39 64 2 39 64 2 39 64 2 39 64 2 39 63 1 38 64 2 39 64 2 39 64 2 39 64 2 39 64 2 39 64 2 39 63 1 38 64 2 39 65 3 40 66 2 39 64 2 39 
64 2 39 64 2 39 64 2 39 64 2 39 64 2 39 64 2 39 65 3 40 64 2 39 63 1 38 66 2 39 65 3 40 63 1 38 66 2 39 64 2 39 64 2 39 63 1 38 64 2 39 64 2 39 65 3 40 64 2 39 64 2 39 64 2 39 65 3 40 64 2 39 64 2 39 64 2 39 64 2 39 64 2 39 64 2 39 65 3 40 65 3 40 63 1 38 64 2 39 65 3 40 63 1 38 64 2 39 64 2 39 64 2 39 63 1 38 64 2 39 65 3 40 63 1 38 64 2 39 63 1 38 63 1 38 65 3 40 64 2 39 64 2 39 64 2 39 64 2 39 65 3 40 64 2 39 65 3 40 64 2 39 64 2 39 64 2 39 64 2 39 64 2 39 64 2 39 64 2 39 64 2 39 65 3 40 64 2 39 64 2 39 65 3 40 65 3 40 64 2 39 65 3 40 63 3 39 64 2 39 64 2 39 64 4 40 64 2 39 65 3 40 64 2 39 64 2 39 63 3 39 64 2 39 63 3 39 66 2 39 64 2 39 66 2 39 64 2 39 63 1 38 63 1 38 65 3 40 64 2 39 64 2 39 64 2 39 66 2 39 66 2 39 66 2 39 63 1 38 66 2 39 64 2 39 64 2 39 63 1 38 64 2 39 64 4 40 64 2 39 
65 3 40 64 2 39 64 2 39 64 2 39 63 1 38 64 2 39 64 2 39 64 2 39 64 2 39 66 2 39 64 2 39 63 1 38 64 2 39 65 3 40 64 2 39 62 2 38 66 2 39 64 2 39 64 2 39 64 2 39 64 2 39 64 2 39 64 2 39 65 3 40 65 3 40 63 1 38 64 2 39 64 2 39 66 2 39 64 2 39 65 3 40 64 2 39 64 2 39 64 2 39 63 1 38 67 3 40 63 1 38 64 2 39 63 1 38 64 2 39 65 3 40 64 2 39 64 2 39 64 2 39 64 2 39 64 2 39 63 1 38 64 2 39 64 2 39 64 2 39 64 2 39 66 2 39 64 2 39 64 2 39 64 2 39 64 2 39 64 2 39 65 3 40 64 2 39 64 2 39 68 2 40 64 2 39 66 2 39 64 4 40 64 2 39 66 4 41 64 2 39 65 3 40 66 2 39 64 2 39 64 2 39 65 1 38 64 2 39 64 2 39 65 3 40 64 2 39 64 2 39 64 2 39 64 2 39 63 3 39 64 2 39 64 2 39 66 2 39 65 3 40 64 2 39 64 2 39 64 2 39 63 1 38 64 2 39 64 2 39 64 2 39 64 2 39 64 2 39 64 2 39 65 3 40 64 2 39 65 3 40 64 2 39 64 2 39 64 2 39 
65 3 40 64 2 39 63 1 38 63 1 38 64 2 39 64 2 39 64 2 39 66 2 39 64 2 39 64 2 39 64 2 39 67 3 40 66 2 39 66 2 39 67 3 40 64 2 39 64 2 39 63 1 38 64 2 39 64 2 39 64 2 39 65 3 40 64 2 39 64 2 39 64 2 39 65 3 40 63 1 38 64 2 39 67 1 39 63 1 38 64 2 39 65 3 40 64 2 39 64 2 39 64 2 39 67 1 39 63 1 38 64 2 39 64 2 39 64 2 39 64 2 39 65 3 40 64 2 39 64 2 39 64 2 39 63 3 39 64 2 39 66 2 39 64 2 39 64 2 39 64 2 39 65 3 40 65 3 40 64 2 39 63 1 38 63 1 38 64 2 39 64 2 39 64 2 39 64 2 39 65 3 40 63 1 38 64 2 39 64 2 39 66 2 39 66 2 39 64 2 39 64 2 39 63 1 38 64 2 39 64 2 39 63 1 38 64 2 39 65 3 40 65 3 40 64 2 39 63 1 38 63 1 38 64 2 39 64 2 39 64 2 39 63 3 39 64 2 39 66 2 39 64 2 39 65 3 40 65 3 40 64 2 39 64 2 39 65 3 40 64 2 39 64 2 39 64 2 39 64 2 39 63 1 38 64 2 39 64 2 39 62 0 37 65 3 40 64 2 39 
64 2 39 64 2 39 65 3 40 64 2 39 64 2 39 64 2 39 64 2 39 64 2 39 63 1 38 66 2 39 64 2 39 63 1 38 64 2 39 64 2 39 64 2 39 64 2 39 64 2 39 63 1 38 65 3 40 64 2 39 64 2 39 64 2 39 64 2 39 63 1 38 65 3 40 64 2 39 65 3 40 63 1 38 63 1 38 64 2 39 64 2 39 64 2 39 64 2 39 65 3 40 65 3 40 63 1 38 64 2 39 64 2 39 65 3 40 63 1 38 64 2 39 64 2 39 64 2 39 64 2 39 64 2 39 63 1 38 64 2 39 64 2 39 64 2 39 63 1 38 64 2 39 64 2 39 64 2 39 66 4 41 64 2 39 64 2 39 65 3 40 64 2 39 64 2 39 63 1 38 63 1 38 64 2 39 63 1 38 64 2 39 63 1 38 66 2 39 63 3 39 64 2 39 63 3 39 63 1 38 64 2 39 62 2 38 64 2 39 64 2 39 65 3 40 64 2 39 64 2 39 64 2 39 64 2 39 64 2 39 64 2 39 64 2 39 65 3 40 64 2 39 64 2 39 65 3 40 64 2 39 64 2 39 64 2 39 64 2 39 65 1 38 65 3 40 65 3 40 64 2 39 64 2 39 63 1 38 63 1 38 64 2 39 64 2 39 65 3 40 
65 3 40 64 2 39 64 2 39 64 2 39 65 3 40 65 3 40 64 2 39 64 2 39 64 2 39 65 3 40 64 2 39 64 2 39 64 2 39 66 2 39 64 2 39 65 3 40 66 2 39 64 2 39 64 2 39 64 2 39 64 2 39 64 2 39 64 2 39 64 2 39 63 1 38 63 1 38 64 2 39 65 3 40 63 1 38 65 3 40 65 3 40 64 2 39 64 2 39 65 3 40 63 1 38 63 1 38 63 1 38 64 2 39 65 3 40 64 2 39 65 3 40 64 2 39 64 2 39 64 2 39 64 2 39 63 3 39 64 2 39 64 2 39 64 2 39 64 2 39 64 2 39 65 3 40 64 2 39 65 3 40 64 2 39 63 1 38 65 3 40 65 3 40 63 1 38 64 2 39 65 3 40 63 1 38 62 2 38 64 2 39 64 2 39 64 2 39 66 2 39 64 2 39 64 2 39 64 2 39 64 2 39 64 2 39 64 2 39 64 2 39 64 2 39 64 2 39 65 3 40 64 2 39 64 2 39 64 2 39 64 2 39 64 2 39 64 2 39 64 2 39 64 2 39 66 2 39 64 2 39 65 1 38 64 2 39 64 2 39 63 1 38 63 1 38 63 1 38 65 3 40 63 1 38 65 3 40 64 2 39 64 2 39 64 2 39 64 2 39 
64 2 39 64 2 39 64 2 39 64 2 39 65 3 40 63 1 38 65 3 40 65 3 40 64 2 39 64 2 39 64 2 39 64 2 39 63 1 38 64 2 39 65 3 40 64 2 39 64 2 39 64 2 39 64 2 39 64 2 39 64 2 39 65 3 40 65 3 40 64 2 39 63 1 38 63 1 38 64 2 39 64 2 39 64 2 39 64 2 39 63 1 38 64 2 39 64 2 39 64 2 39 64 2 39 64 2 39 64 2 39 65 3 40 65 3 40 64 2 39 64 2 39 65 3 40 64 2 39 64 2 39 64 2 39 64 2 39 64 2 39 63 3 39 64 2 39 63 3 39 64 2 39 64 2 39 65 3 40 65 3 40 65 3 40 63 1 38 64 2 39 63 2 36 63 1 38 64 2 39 64 2 39 64 2 39 64 2 39 64 2 39 65 3 40 63 1 38 64 2 39 64 2 39 64 2 39 64 2 39 64 2 39 64 2 39 64 2 39 64 2 39 64 3 37 64 2 39 65 3 40 64 2 39 64 2 39 64 2 39 64 2 39 64 2 39 64 2 39 64 2 39 64 2 39 64 3 37 65 3 40 63 1 38 63 2 36 63 2 36 64 2 39 63 2 36 64 2 39 64 2 39 64 2 39 63 1 38 64 2 39 64 2 39 64 2 39 64 2 39 
64 2 39 64 2 39 64 2 39 64 2 39 64 2 39 63 1 38 63 1 38 64 2 39 64 2 39 64 2 39 64 2 39 64 2 39 63 1 38 63 2 36 64 2 39 64 2 39 64 2 39 64 2 39 64 2 39 64 2 41 64 2 39 63 1 38 64 2 39 64 2 39 64 2 39 64 2 39 64 2 39 64 2 39 64 2 39 64 2 39 64 2 39 64 2 39 64 2 39 64 2 39 64 2 39 63 1 38 63 1 38 64 2 39 63 1 38 63 1 38 63 1 38 65 3 40 64 2 39 64 2 39 64 2 39 64 2 39 64 2 39 65 3 40 64 2 39 64 2 39 64 2 39 64 2 39 65 3 40 64 2 39 65 4 38 64 2 39 65 3 40 64 2 39 64 2 39 64 3 37 63 1 38 64 2 39 63 1 38 63 1 38 64 2 39 64 2 39 64 2 39 63 1 38 64 2 39 62 0 37 64 2 39 64 2 39 64 2 39 65 3 40 65 3 40 65 3 40 64 2 39 64 2 39 63 1 38 64 2 39 65 3 40 64 2 39 64 2 39 63 1 38 64 2 39 64 2 39 65 3 40 64 2 39 64 2 39 63 1 38 63 1 38 64 2 39 64 2 39 64 2 39 64 2 39 64 2 39 64 2 39 65 3 40 64 2 39 63 1 38 
64 2 39 64 2 39 65 3 40 64 2 39 64 2 39 64 2 39 64 2 39 64 2 39 65 3 40 64 2 39 64 2 39 64 2 39 64 2 39 65 3 40 64 3 37 64 2 39 64 2 39 64 2 39 65 3 40 65 3 40 64 2 39 64 2 39 63 1 38 63 1 38 64 2 39 65 3 40 65 3 40 64 2 39 63 1 38 64 2 39 64 2 39 64 2 39 64 2 39 64 2 39 64 2 39 64 2 39 64 2 39 65 3 40 64 2 39 64 2 39 64 2 39 64 2 39 63 1 38 64 2 39 64 2 39 64 2 39 64 2 39 63 3 39 64 2 39 63 3 39 64 2 39 64 2 39 64 3 37 64 2 39 64 2 39 64 2 39 64 2 39 64 3 37 64 2 39 65 3 40 65 3 40 63 1 38 65 3 40 65 3 40 65 3 40 65 3 40 65 3 40 64 2 39 64 2 39 64 2 39 64 2 39 64 2 39 65 3 40 65 3 40 64 2 39 63 1 38 64 2 39 64 3 37 64 2 39 64 2 39 64 2 39 64 2 41 64 2 39 64 2 39 64 3 37 63 1 38 64 3 37 64 3 37 65 3 40 64 2 39 63 2 36 64 2 39 64 2 39 64 2 39 64 2 39 64 2 39 63 1 38 64 2 39 64 2 39 64 2 39 
64 2 39 64 2 39 63 1 38 64 2 39 64 2 39 64 2 39 64 2 39 64 2 39 64 2 39 64 2 39 63 1 38 64 2 39 65 3 40 64 2 41 65 3 40 65 3 40 65 3 40 64 2 39 63 1 38 64 2 39 65 3 40 64 2 39 64 2 39 64 2 39 64 2 39 64 2 39 63 1 38 65 3 40 64 2 39 65 3 40 63 1 38 64 2 39 63 1 38 64 2 39 63 1 38 64 2 39 65 3 40 63 1 38 64 2 39 64 2 39 64 2 39 65 3 40 64 2 39 64 2 39 64 2 39 64 2 39 63 3 39 64 2 39 63 3 39 64 2 39 64 2 39 63 1 38 63 1 38 64 2 39 64 3 37 64 2 39 64 2 39 64 2 39 63 1 38 65 3 40 64 2 39 64 2 39 64 2 39 65 3 40 64 2 39 64 2 39 65 3 40 64 2 39 64 2 39 64 2 39 63 1 38 63 1 38 64 3 37 64 2 41 64 2 39 64 2 39 64 2 39 64 2 41 65 3 40 65 3 40 64 2 39 64 2 39 64 3 37 64 2 39 64 2 39 64 2 39 64 2 39 65 3 40 64 2 39 64 2 39 63 1 38 64 2 39 64 2 39 64 2 39 64 2 39 64 2 39 64 2 39 64 2 39 64 2 39 64 2 39 
64 2 39 63 1 38 64 2 39 64 2 39 64 2 39 63 1 38 63 1 38 64 2 39 64 2 39 64 2 39 64 2 39 64 2 39 63 1 38 64 2 41 64 2 39 64 2 39 65 3 40 64 2 39 65 3 40 65 3 40 64 2 39 64 2 39 64 2 39 64 2 39 64 2 39 64 2 39 64 2 39 64 2 39 63 1 38 64 2 39 65 3 40 65 3 40 65 3 40 64 2 39 64 2 39 64 2 39 64 2 39 64 2 39 63 1 38 65 3 40 64 2 39 64 2 39 64 2 39 63 1 38 64 2 39 64 2 39 64 2 39 64 2 39 63 1 38 64 2 39 64 2 39 64 2 39 64 2 39 63 1 38 64 3 37 64 2 39 64 2 39 64 2 39 64 2 39 64 2 39 64 2 39 64 2 39 63 1 38 63 1 38 63 1 38 64 2 39 65 3 40 64 2 39 64 2 39 64 2 39 64 2 39 64 2 39 64 3 37 64 2 41 65 3 40 65 3 40 64 2 39 64 2 39 64 2 39 64 2 39 64 2 39 64 2 39 64 2 39 63 1 38 64 2 39 64 2 39 65 3 40 64 2 39 64 2 39 64 2 39 64 2 39 64 2 39 64 2 39 65 3 40 64 2 39 64 2 39 64 2 39 64 2 39 64 2 39 64 2 39 
63 1 38 64 2 39 64 2 39 63 1 38 64 2 39 64 2 39 63 1 38 65 3 40 64 2 39 64 2 39 64 2 39 64 2 39 65 3 40 65 4 38 64 2 39 64 3 37 64 2 39 63 1 38 64 3 37 64 2 39 64 2 39 64 2 39 64 2 39 63 1 38 63 1 38 64 2 39 64 2 39 65 3 40 63 1 38 64 2 39 63 1 38 64 2 39 64 2 39 64 2 39 63 1 38 64 2 39 64 2 39 64 2 39 64 2 39 65 3 40 65 3 40 65 3 40 64 2 39 64 2 39 64 2 39 64 2 39 65 3 40 65 3 40 64 2 39 63 1 38 64 2 39 65 3 40 63 2 36 63 1 38 65 3 40 64 2 39 65 3 40 64 3 37 64 2 39 64 2 39 64 2 39 65 3 40 64 2 39 64 2 39 64 2 39 64 2 39 65 3 40 64 2 39 62 0 37 63 1 38 64 2 39 64 2 39 64 2 39 64 2 39 64 2 39 64 2 39 65 3 40 64 2 39 64 2 39 64 2 39 64 2 39 64 2 39 64 2 39 65 3 40 64 2 39 64 2 39 65 3 40 63 1 38 63 1 38 64 2 39 64 2 39 63 1 38 64 2 39 64 2 39 64 2 39 64 2 39 65 3 40 64 2 39 64 2 39 64 2 39 
64 2 39 64 2 39 64 2 39 64 2 39 64 2 39 65 3 40 64 2 39 65 3 40 64 2 39 63 1 38 63 1 38 64 2 39 64 3 37 64 3 37 64 2 39 65 4 38 63 1 38 64 3 37 65 3 40 64 2 39 64 2 39 64 2 39 63 1 38 64 2 39 65 3 40 64 2 39 64 2 39 64 2 39 64 2 39 64 2 39 64 2 39 65 3 40 64 2 39 64 2 39 64 2 39 64 2 39 65 3 40 64 2 39 64 2 39 64 2 39 64 2 39 64 2 39 65 3 40 64 2 39 63 1 38 64 2 39 64 4 40 65 3 40 64 4 40 63 1 38 63 1 38 64 2 39 63 1 38 64 2 39 64 3 37 65 3 40 63 1 38 65 3 40 64 2 39 64 3 37 63 1 38 65 3 40 64 2 39 64 2 39 64 2 39 64 2 39 63 1 38 64 2 39 64 2 39 64 2 39 64 2 39 63 1 38 64 2 39 64 2 39 63 1 38 64 2 39 64 2 39 63 2 36 64 2 39 64 2 39 64 2 39 64 2 39 63 1 38 64 2 39 64 2 39 63 1 38 65 3 40 64 2 39 64 2 39 64 2 39 64 2 39 64 2 39 64 2 39 64 2 39 64 2 39 64 2 39 64 2 39 63 1 38 64 2 39 65 3 40 
64 2 39 64 2 39 64 2 39 64 2 39 64 2 39 65 3 40 64 2 39 64 2 39 65 3 40 64 2 39 63 1 38 64 2 39 64 2 39 64 2 39 65 3 40 63 2 36 64 2 39 64 3 37 63 1 40 64 3 37 65 3 40 64 2 39 64 2 39 65 3 40 64 2 39 63 1 38 64 2 39 64 2 39 63 1 38 64 2 39 64 2 39 64 2 39 64 2 39 64 2 39 64 2 39 63 1 38 64 2 39 64 2 39 63 1 38 64 2 39 63 1 38 63 1 38 64 2 39 64 2 39 64 2 39 65 3 40 64 2 39 63 1 38 64 2 39 64 2 39 64 2 39 64 2 39 64 2 39 64 2 39 65 3 40 65 3 40 64 2 39 65 4 38 64 2 39 63 1 38 64 2 39 66 4 41 64 2 39 63 1 38 63 1 38 64 2 39 64 2 39 64 2 39 63 1 38 64 2 39 63 1 38 64 2 39 64 2 39 64 2 39 65 4 38 64 2 39 66 4 41 64 2 39 63 1 38 64 2 39 64 2 39 64 2 39 64 3 37 64 2 39 64 2 39 63 1 38 63 1 38 64 2 39 64 2 39 64 2 39 63 1 38 64 2 39 64 2 39 64 2 39 63 1 38 64 2 39 64 2 39 64 2 39 64 2 39 63 1 38 
64 2 39 63 1 38 64 2 39 64 2 39 64 2 39 64 2 39 64 2 39 64 2 39 64 2 39 64 2 39 63 1 38 64 2 39 64 2 39 63 1 38 64 2 39 65 3 40 63 1 38 64 2 39 64 2 39 63 1 38 64 2 39 64 2 39 64 2 39 64 2 39 64 2 41 64 2 39 64 3 37 63 1 38 65 3 40 64 2 39 63 1 38 65 3 40 65 3 40 64 2 39 64 2 39 64 2 39 64 2 39 65 1 38 64 2 39 64 2 39 64 2 39 63 1 38 64 4 40 64 2 39 64 2 39 64 2 39 63 2 36 64 2 39 65 3 40 64 3 37 64 2 39 64 2 39 64 2 39 64 2 39 64 2 39 64 3 37 64 2 39 64 2 39 64 3 37 64 2 39 64 2 39 64 2 39 64 2 39 64 2 39 64 2 39 64 2 39 65 3 40 65 3 40 64 3 37 66 4 41 64 2 39 64 2 39 63 1 38 65 3 40 64 2 39 64 3 37 64 2 39 64 3 37 64 2 39 64 2 39 64 3 37 64 2 39 64 2 39 64 2 39 64 2 39 64 2 39 63 1 38 65 3 40 64 2 39 64 2 39 63 1 38 64 2 39 64 2 39 64 2 39 64 2 39 64 2 39 64 2 39 64 2 39 64 2 39 63 1 38 
64 2 39 64 2 39 65 3 40 64 2 39 64 2 39 65 3 40 64 2 39 64 2 39 63 1 38 64 2 39 64 2 39 64 2 39 64 2 39 64 2 39 64 2 39 64 2 39 64 2 39 63 1 38 64 2 39 65 3 40 64 3 37 63 1 38 65 3 40 64 2 39 63 1 38 64 2 39 64 2 39 64 2 39 64 2 39 64 2 39 64 2 39 65 3 40 64 2 39 64 2 39 64 2 39 64 2 39 64 2 39 64 2 39 64 2 39 63 1 38 65 3 40 64 2 39 64 2 39 64 2 39 64 2 39 64 3 37 64 2 39 64 2 39 64 2 39 64 2 39 64 3 37 63 1 38 63 1 38 64 3 37 64 2 39 63 1 38 63 2 36 64 2 39 63 1 38 63 1 38 64 2 39 64 2 39 64 2 39 64 2 39 64 2 39 64 2 39 64 2 39 65 3 40 64 3 37 63 1 38 64 2 39 64 2 39 64 2 39 63 1 38 64 2 39 64 3 37 64 2 39 64 2 39 64 2 39 64 2 39 64 2 39 64 2 39 64 2 39 64 2 39 64 2 39 64 2 39 64 2 39 64 2 39 64 2 39 64 2 39 64 2 39 64 2 39 64 2 39 64 2 39 64 2 39 64 2 39 64 2 39 64 2 39 64 2 39 64 2 39 
64 2 39 63 1 38 64 2 39 64 2 39 64 2 39 64 2 39 64 2 39 64 2 39 62 0 37 64 2 39 63 1 38 65 3 40 63 1 38 66 4 41 64 2 39 65 3 40 65 3 40 64 2 39 64 2 39 64 2 39 64 2 39 65 3 40 64 2 39 64 2 39 64 2 39 64 2 39 64 2 39 64 3 37 64 2 39 64 2 39 63 1 38 63 1 38 64 2 39 63 1 38 65 3 40 64 2 39 64 2 39 64 2 39 64 2 39 64 2 39 64 2 39 63 1 38 64 2 39 63 1 38 64 2 39 64 3 37 64 2 39 64 2 39 64 2 39 64 2 39 65 4 38 64 2 39 63 1 38 64 3 37 63 1 38 64 2 39 64 3 37 64 2 39 64 2 39 64 2 39 63 1 38 64 2 39 64 2 39 63 1 38 64 2 39 63 1 38 65 3 40 64 2 39 64 3 37 63 1 38 64 2 39 63 1 38 65 3 40 64 2 39 64 2 39 64 3 37 64 3 37 64 2 39 64 2 39 64 3 37 64 2 39 64 2 39 64 3 37 64 2 39 64 2 39 64 2 39 64 2 39 66 4 41 64 2 39 64 2 39 64 2 39 64 2 39 64 2 39 63 1 38 63 1 38 64 2 39 64 2 39 64 2 39 64 2 39 64 2 39 
65 3 40 64 2 39 63 1 38 64 2 39 64 2 39 64 2 39 63 1 38 64 2 39 64 2 39 64 2 39 63 1 38 64 2 39 64 2 39 65 3 40 65 3 40 64 2 39 64 2 39 64 2 39 63 1 38 63 1 38 64 2 39 64 2 39 64 2 39 64 2 39 63 1 38 64 3 37 64 3 37 64 2 39 64 2 39 63 1 38 64 2 39 63 1 38 64 2 39 64 2 39 64 2 39 64 2 39 64 2 39 64 2 39 64 2 39 64 2 39 64 2 39 64 2 39 64 2 39 64 2 39 64 2 39 63 1 38 64 3 37 64 2 39 64 2 39 64 3 37 64 2 39 64 2 39 64 2 39 64 2 39 63 1 38 64 3 37 64 2 39 64 2 39 66 5 39 64 2 39 63 1 38 64 2 39 63 1 38 65 3 40 63 1 38 64 2 39 64 2 39 64 2 39 64 3 37 64 2 39 64 2 39 63 1 38 63 1 38 64 2 39 64 2 39 64 3 37 64 2 39 63 1 38 63 1 38 63 1 38 64 2 39 64 2 39 63 2 36 64 2 39 64 2 39 64 2 39 64 3 37 65 4 38 63 2 36 64 3 37 64 2 39 64 2 39 64 2 39 64 2 39 65 3 40 64 2 39 64 2 39 63 1 38 64 2 39 64 2 39 
63 1 38 64 2 39 65 3 40 64 2 39 64 2 39 65 3 40 64 2 39 63 1 38 65 3 40 64 2 39 64 2 39 64 2 39 64 2 39 64 2 39 64 2 39 64 2 39 63 1 38 64 2 39 64 2 39 65 3 40 64 3 37 63 2 36 64 2 39 64 2 39 64 2 39 64 2 39 63 1 38 63 1 38 64 2 39 64 2 39 64 2 39 65 3 40 64 2 39 64 2 39 64 2 39 64 2 39 64 2 39 63 1 38 64 2 39 64 2 39 64 2 39 64 2 39 64 2 39 63 1 38 64 2 39 65 3 40 64 3 37 64 2 39 64 2 39 64 3 37 64 2 39 64 2 39 64 2 39 64 2 39 64 2 39 63 2 36 64 2 39 64 2 39 64 3 37 64 2 39 64 2 39 64 2 39 64 2 39 64 2 39 64 2 39 64 2 39 64 2 39 65 3 40 64 3 37 64 2 39 64 2 39 63 1 38 64 2 39 64 2 39 64 2 39 64 3 37 64 2 39 64 3 37 63 1 38 63 1 38 64 2 39 64 2 39 64 2 39 63 1 38 63 2 36 64 3 37 64 2 39 64 2 39 64 2 39 64 2 39 64 3 37 64 3 37 64 2 39 64 2 39 64 2 39 64 2 39 64 2 39 64 2 39 64 2 39 64 2 39 
63 1 38 63 1 38 65 3 40 64 2 39 64 2 39 63 1 38 65 3 40 64 2 39 64 2 39 64 2 39 64 2 39 64 2 39 65 3 40 64 2 39 65 3 40 64 2 39 65 3 40 63 1 38 64 2 39 65 3 40 64 3 37 64 2 39 64 2 39 64 2 39 65 4 38 63 2 36 64 2 39 64 2 39 64 2 39 65 3 40 64 2 39 65 3 40 64 2 39 64 2 39 64 2 39 64 2 39 64 2 39 64 2 39 64 2 39 64 2 39 64 2 39 64 2 39 64 2 39 64 2 39 63 1 38 64 3 37 64 2 39 64 2 39 64 2 39 64 2 39 64 3 37 64 2 39 63 1 38 63 2 36 64 2 39 64 2 39 64 3 37 63 1 38 64 2 39 64 2 39 63 1 38 64 2 39 64 2 39 64 2 39 64 2 39 64 2 39 64 2 39 64 2 39 64 3 37 63 1 38 64 2 39 64 2 39 64 2 39 63 1 38 65 3 40 64 3 37 64 2 39 64 3 37 64 2 39 64 2 39 64 3 37 64 2 39 64 2 39 64 3 37 64 2 39 64 2 39 64 3 37 64 3 37 64 3 37 63 2 36 63 1 38 63 1 38 64 2 39 64 2 39 65 3 40 64 2 39 63 1 38 63 1 38 64 2 39 63 1 38 
64 3 37 64 3 37 64 3 37 65 4 38 64 2 39 64 2 39 63 1 38 63 1 38 65 3 40 63 1 38 64 2 39 64 2 39 64 2 39 64 2 39 64 2 39 63 1 38 64 2 39 63 1 38 64 2 39 64 2 39 64 2 39 64 2 39 64 2 39 64 2 39 64 2 39 63 2 36 64 3 37 64 3 37 64 2 39 64 2 39 64 2 39 64 2 39 65 3 40 64 2 39 64 2 39 64 2 39 64 2 39 63 1 38 65 3 40 64 2 39 63 1 38 64 2 39 64 2 39 64 2 39 64 2 39 64 3 37 64 2 39 65 3 40 64 2 39 64 2 39 64 3 37 64 2 39 63 1 38 64 3 37 64 2 39 64 2 39 64 3 37 64 2 39 65 3 40 64 2 39 64 2 39 63 1 38 64 2 39 64 2 39 64 2 39 64 2 39 64 2 39 64 2 39 64 3 37 63 1 38 64 2 39 64 2 39 64 2 39 63 1 38 62 0 37 65 4 38 64 2 39 64 2 39 64 2 39 64 2 39 64 2 39 63 1 38 64 2 39 64 2 39 63 2 36 64 3 37 63 1 38 63 1 38 64 2 39 64 2 39 64 3 37 64 3 37 64 2 39 64 2 39 64 2 39 64 2 39 64 2 39 64 2 39 64 2 39 64 2 39 
64 3 37 64 3 37 64 3 37 64 3 37 64 2 39 64 2 39 64 2 39 63 1 38 64 2 39 64 2 39 64 2 39 64 2 39 63 1 38 64 2 39 64 2 39 64 2 39 63 1 38 64 2 39 64 2 39 64 2 39 64 3 37 65 4 38 63 1 38 63 1 38 64 3 37 64 3 37 63 1 38 65 3 40 64 2 39 64 2 39 63 1 38 64 2 39 64 2 39 62 0 37 64 2 39 65 3 40 64 2 39 63 3 39 64 2 39 63 1 38 64 2 39 64 2 39 66 2 39 64 2 39 64 2 39 64 2 39 64 3 37 65 3 40 64 2 39 64 3 37 64 2 39 64 2 39 64 2 39 65 3 40 63 1 38 64 3 37 64 2 39 64 2 39 64 3 37 64 2 39 64 2 39 64 2 39 65 3 40 64 2 39 65 3 40 65 3 40 64 2 39 65 3 40 65 4 38 65 3 40 64 2 39 64 2 39 63 1 38 66 4 41 63 1 38 64 3 37 64 2 39 64 2 39 64 2 39 64 3 37 64 2 39 64 2 39 64 3 37 64 2 39 64 3 37 64 3 37 64 3 37 64 3 37 64 3 37 64 3 37 64 3 37 63 2 36 64 2 39 63 1 38 64 2 39 64 2 39 64 2 39 64 2 39 64 2 39 64 2 39 
64 2 39 63 1 38 64 3 37 64 3 37 64 3 37 64 3 37 64 2 39 64 2 39 64 2 39 64 2 39 64 3 37 64 3 37 63 1 38 65 3 40 65 3 40 63 1 38 65 3 40 65 3 40 63 1 38 64 2 39 64 2 39 64 2 39 64 2 39 64 2 39 64 2 39 64 2 39 64 2 39 64 2 39 64 2 39 65 4 38 64 2 39 64 2 39 64 2 39 64 2 39 64 3 37 63 1 38 63 2 36 64 2 39 63 1 38 64 3 36 64 2 39 63 2 36 64 2 39 65 4 38 64 2 39 64 2 39 64 2 39 63 1 38 64 2 39 64 2 39 64 2 39 64 2 39 63 1 38 64 2 39 63 1 38 63 1 38 64 2 39 64 2 39 64 2 39 64 2 39 63 1 38 64 2 39 64 2 39 64 2 39 64 3 37 64 3 37 64 3 37 64 3 37 65 3 40 63 1 38 63 1 38 65 3 40 64 2 39 64 3 37 64 3 37 64 3 37 64 2 39 65 3 40 64 2 39 63 1 38 64 2 39 63 1 38 64 2 39 64 2 39 64 2 39 64 2 39 63 1 38 64 3 37 64 2 39 64 2 39 65 3 40 63 1 38 64 2 39 64 2 39 64 3 37 63 1 38 64 2 39 64 2 39 64 2 39 64 3 37 
64 2 39 64 2 39 63 1 38 63 2 36 64 2 39 64 2 39 64 3 37 65 4 38 64 3 37 64 3 37 64 2 39 64 2 39 63 1 38 64 2 39 65 3 40 63 1 38 64 2 39 65 3 40 64 2 39 63 1 38 64 2 39 64 2 39 64 2 39 64 2 39 64 2 39 64 2 39 64 2 39 64 2 39 64 2 39 63 2 36 64 3 37 64 2 39 64 2 39 65 4 38 64 3 37 63 1 38 64 2 39 64 3 37 64 2 39 63 1 38 64 2 39 65 3 40 64 3 37 64 2 39 62 0 37 64 2 39 63 1 38 64 2 39 64 2 39 64 2 39 63 1 38 64 2 39 64 2 39 64 2 39 64 2 39 63 1 38 64 2 39 63 1 38 64 2 39 64 2 39 64 2 39 64 2 39 64 2 39 64 2 39 63 2 36 64 3 37 65 4 38 64 3 37 64 2 39 64 2 39 63 1 38 64 2 39 64 2 39 64 2 39 63 2 36 63 2 36 64 2 39 64 2 39 64 2 39 64 2 39 62 0 37 63 1 38 64 3 37 63 1 38 64 2 39 64 2 39 63 2 36 63 1 38 65 4 38 64 2 39 64 3 37 64 2 39 64 2 39 64 2 39 64 3 37 64 2 39 64 2 39 63 2 36 64 2 39 64 3 37 
64 2 39 64 2 39 64 2 39 64 2 39 64 2 39 63 1 38 64 3 37 63 2 36 64 3 37 64 3 37 64 2 39 64 2 39 63 1 38 64 2 39 64 2 39 64 2 39 63 1 38 64 2 39 64 2 39 64 2 39 64 2 39 64 2 39 64 2 39 64 2 39 64 2 39 64 2 39 64 2 39 64 2 39 64 2 39 64 2 39 63 2 36 63 1 38 64 2 39 64 3 37 64 2 39 64 2 39 64 2 39 64 3 37 64 3 37 63 1 40 64 3 37 63 1 38 64 3 37 64 2 39 64 2 39 64 2 39 64 2 39 64 2 39 64 2 39 63 1 38 64 2 39 64 2 39 63 1 38 64 2 39 64 2 39 64 2 39 64 2 39 64 2 39 64 2 39 64 2 39 64 3 37 63 2 36 64 3 37 65 4 38 64 2 39 64 2 39 64 2 39 64 2 39 62 0 37 65 3 40 64 2 39 63 1 38 64 2 39 65 3 40 64 2 39 64 3 37 63 1 38 64 3 37 63 1 38 64 2 39 64 3 37 63 1 38 64 2 39 65 3 40 64 2 39 64 2 39 63 1 38 64 2 39 64 2 39 65 3 40 64 2 39 64 2 39 64 2 39 64 2 39 64 2 39 64 3 37 64 2 39 64 3 37 64 2 39 63 1 38 
64 2 39 64 2 39 64 2 39 64 2 39 64 3 37 64 3 37 65 3 40 64 2 39 64 2 39 65 3 40 64 3 37 64 3 37 64 2 39 64 2 39 64 2 39 64 2 39 63 1 38 65 3 40 64 2 39 63 1 38 64 2 39 64 2 39 64 2 39 64 2 39 64 2 39 64 2 39 64 2 39 64 2 39 64 2 39 64 3 37 64 3 37 64 2 39 63 1 38 64 3 37 64 3 37 64 2 39 64 2 39 64 2 39 64 2 39 64 3 37 64 2 39 64 2 39 63 1 38 64 2 39 64 2 39 63 1 38 64 2 39 64 2 39 64 2 39 64 2 39 64 2 39 63 1 38 64 2 39 63 1 38 62 0 37 64 2 39 64 2 39 64 2 39 64 2 39 65 3 40 64 3 37 64 3 37 64 3 37 64 3 37 64 2 39 64 2 39 65 3 40 64 2 39 63 1 38 65 3 40 64 2 39 64 2 39 64 2 39 64 2 39 64 2 39 62 0 37 64 3 37 64 2 39 64 2 39 64 3 37 64 2 39 64 2 41 64 3 37 64 2 39 63 1 38 63 1 38 63 1 38 64 3 37 64 2 39 64 3 37 63 1 38 63 1 38 64 3 37 63 1 38 64 2 39 64 2 39 64 2 39 64 3 37 64 2 39 64 2 39 
65 3 40 64 2 39 64 2 39 65 3 40 64 3 37 64 3 37 64 2 39 64 2 39 63 1 38 64 2 39 64 3 37 64 3 37 64 2 39 63 1 38 64 2 39 64 2 39 64 2 39 64 2 39 63 1 38 65 3 40 64 2 39 64 2 39 64 2 39 64 2 39 64 2 39 64 2 39 64 2 39 64 2 39 63 1 38 63 2 36 64 3 37 65 3 40 64 2 39 64 3 37 64 3 37 64 2 39 64 3 37 64 2 41 64 3 37 64 2 39 63 2 36 64 2 39 64 2 39 64 3 37 64 2 39 64 2 39 63 1 38 63 1 38 63 1 38 64 2 39 64 2 39 64 2 39 64 2 39 65 3 40 64 2 39 64 2 39 64 2 39 64 2 39 63 1 38 64 2 39 63 2 36 66 5 39 64 3 37 64 3 37 64 2 39 64 2 39 64 2 39 65 3 40 64 2 39 64 2 39 64 2 39 64 2 39 63 1 38 64 2 39 65 3 40 64 2 39 65 3 40 65 4 38 63 1 40 64 2 39 64 3 37 64 2 39 63 1 38 64 3 37 63 1 38 64 2 39 64 3 37 63 1 38 65 4 38 64 2 39 64 2 39 63 1 38 63 2 36 64 2 39 64 2 39 64 2 39 64 3 37 64 2 39 64 3 37 63 1 38 
63 1 38 65 4 38 63 2 36 64 2 39 64 2 39 64 2 39 64 3 37 64 3 37 64 3 37 65 4 38 64 2 39 64 2 39 64 2 39 63 1 38 64 2 39 63 1 38 64 2 39 63 1 38 64 2 39 64 2 39 64 2 39 64 2 39 64 2 39 64 2 39 64 2 39 64 2 39 64 2 39 64 2 39 64 2 39 64 3 37 64 2 39 64 2 39 64 2 39 64 2 39 64 3 37 64 2 39 63 1 38 64 2 39 64 2 39 64 3 37 64 2 39 63 1 38 64 3 37 63 1 38 63 1 38 64 2 39 64 2 39 65 3 40 64 2 39 64 2 39 64 2 39 63 1 38 64 2 39 64 2 39 64 2 39 64 2 39 64 2 39 64 2 39 63 1 38 64 2 39 64 3 37 64 3 37 64 3 37 64 3 37 64 2 39 65 3 40 64 2 39 64 2 39 64 3 37 64 2 39 64 2 39 65 3 40 64 2 39 64 2 39 64 2 39 64 2 39 65 3 40 63 1 38 64 2 39 64 3 37 63 1 38 64 2 39 64 3 37 64 2 39 64 2 39 63 1 38 63 1 38 64 2 39 64 2 39 64 2 39 64 2 39 64 2 39 64 2 39 64 2 39 64 2 39 64 2 39 64 3 37 64 2 39 63 2 36 64 2 39 
65 4 38 64 3 37 64 3 37 64 2 39 64 2 39 64 2 39 64 3 37 64 3 37 63 2 36 64 3 37 63 1 38 64 2 39 65 3 40 64 2 39 64 2 39 64 2 39 64 2 39 63 1 38 64 2 39 64 2 39 64 2 39 64 2 39 64 2 39 64 2 39 64 2 39 64 2 39 64 2 39 64 2 39 64 2 39 64 3 37 65 4 38 64 2 39 63 1 38 64 3 37 64 3 37 63 1 38 65 3 40 64 3 37 64 2 39 64 2 39 64 2 39 64 3 37 64 3 37 63 2 36 64 2 39 64 2 39 64 2 39 64 2 39 64 2 39 63 1 38 64 2 39 63 1 38 63 1 38 64 2 39 65 3 40 63 1 38 64 2 39 64 2 39 64 2 39 64 2 39 64 2 39 64 2 39 64 2 39 62 0 37 64 3 37 65 4 38 64 3 37 64 3 37 64 3 37 64 3 37 64 2 39 64 2 39 64 2 39 64 2 39 63 1 38 64 2 39 64 2 39 64 3 37 64 2 39 63 1 38 64 2 39 64 2 39 64 2 39 64 2 39 64 2 39 65 4 38 64 2 39 64 3 37 63 1 38 65 4 38 64 2 39 64 2 39 64 2 41 64 3 37 64 2 39 64 2 39 64 2 39 64 2 39 63 2 36 64 2 39 
64 3 37 64 3 37 64 2 39 64 2 39 64 3 37 64 3 37 64 2 39 64 2 39 65 3 40 64 2 39 64 3 37 64 3 37 64 2 39 64 2 39 64 2 39 64 2 39 63 1 38 65 3 40 64 2 39 65 3 40 64 2 39 64 2 39 64 2 39 64 2 39 64 2 39 64 2 39 64 2 39 64 2 39 64 2 39 64 2 39 64 3 37 64 2 39 63 1 38 63 2 36 64 2 39 64 2 39 63 1 38 63 1 38 64 2 39 65 4 38 64 3 37 64 3 37 64 2 39 64 3 37 64 2 39 64 2 39 63 1 38 64 2 39 64 2 39 64 2 39 63 1 38 64 2 39 64 2 39 64 2 39 64 2 39 64 2 39 64 2 39 64 2 39 63 1 38 63 1 38 64 2 39 64 2 39 63 1 38 64 2 39 64 3 37 64 3 37 64 3 37 64 3 37 63 2 36 64 3 37 64 3 37 64 2 39 64 2 39 64 2 39 63 1 38 64 2 39 64 2 39 64 2 39 65 3 40 64 2 39 64 2 39 64 2 39 64 2 39 64 2 39 64 2 39 63 1 38 64 2 39 63 1 38 65 4 38 64 2 39 63 1 38 64 2 39 64 2 39 64 3 37 63 1 38 64 3 37 63 1 38 64 2 39 65 3 40 64 3 37 
64 2 39 64 2 39 64 2 39 64 2 39 64 2 39 64 2 39 64 3 37 64 2 39 64 2 39 64 3 37 65 3 40 64 2 39 64 2 39 63 1 38 63 1 38 64 2 39 65 3 40 64 2 39 64 2 39 64 2 39 63 1 38 63 1 38 64 2 39 64 2 39 64 2 39 64 2 39 64 2 39 63 1 38 64 3 37 63 2 36 64 2 39 64 2 39 64 3 37 64 3 37 64 3 37 65 3 40 64 2 39 64 2 39 64 2 39 64 2 39 63 1 38 64 2 39 64 2 39 63 1 38 64 2 39 64 2 39 63 1 38 64 2 39 65 3 40 64 2 39 64 2 39 64 2 39 63 2 36 64 2 39 64 3 37 64 2 39 64 3 37 64 2 39 64 3 37 63 1 38 65 3 40 63 1 38 64 2 39 64 2 39 65 3 40 65 3 40 64 2 39 64 2 39 64 2 39 64 2 39 64 2 39 63 1 38 64 2 39 63 1 38 63 1 38 64 2 39 63 1 38 64 2 39 64 2 39 63 1 38 64 2 39 64 2 39 64 2 39 65 3 40 64 2 39 64 2 39 65 3 40 64 2 39 64 2 39 64 2 39 64 2 39 63 1 38 64 3 37 64 3 37 64 3 37 64 3 37 65 3 40 64 2 39 64 2 39 64 2 39 
64 2 39 63 1 38 64 2 39 64 2 39 64 2 39 64 2 39 64 2 39 65 3 40 63 1 38 64 2 39 64 2 39 64 2 39 64 2 39 64 2 39 64 2 39 63 1 38 63 1 38 63 1 38 63 1 38 64 2 39 64 2 39 64 2 39 64 2 39 64 2 39 63 1 38 65 3 40 64 2 39 64 2 39 63 1 38 64 2 39 64 3 37 64 3 37 65 3 40 65 3 40 64 2 39 65 4 38 64 2 39 63 1 38 65 3 40 64 2 39 64 2 39 64 2 39 64 2 39 64 2 39 66 4 41 65 3 40 63 1 38 64 2 39 63 1 38 64 2 39 64 2 39 64 2 39 64 2 39 64 3 37 63 1 38 63 2 36 63 1 38 64 3 37 64 2 39 63 2 36 65 3 40 64 2 39 64 2 39 64 2 39 65 3 40 64 2 39 64 2 39 64 2 39 63 1 38 64 2 39 64 2 39 63 1 38 64 2 39 64 2 39 63 1 38 64 2 39 63 1 38 64 2 39 63 1 38 64 2 39 64 2 39 63 1 38 63 1 38 64 2 39 66 4 41 63 1 38 63 1 38 63 1 38 63 1 38 64 2 39 63 1 38 64 2 39 64 3 37 64 3 37 63 2 36 64 3 37 63 1 38 64 2 39 63 1 38 64 2 39 
63 1 38 64 2 39 64 2 39 63 1 38 64 2 39 64 3 37 64 2 39 64 2 39 64 2 39 63 1 38 64 3 37 64 2 39 63 1 38 64 2 39 65 3 40 63 1 38 63 1 38 64 2 39 64 2 39 64 2 39 65 3 40 66 4 41 64 2 39 64 2 39 63 1 38 64 2 39 64 2 39 64 2 39 64 2 39 64 3 37 63 2 36 64 2 39 63 1 38 64 3 37 64 3 37 64 2 39 64 2 39 63 1 38 64 2 39 64 2 39 63 1 38 64 2 39 65 3 40 64 2 39 64 2 39 65 3 40 64 2 39 64 2 39 63 1 38 65 3 40 65 3 40 64 2 39 64 3 37 64 2 39 64 3 37 63 1 38 63 2 36 65 3 40 64 3 37 64 2 39 64 2 39 64 2 39 64 2 39 64 2 39 64 2 39 64 2 39 64 2 39 64 2 39 64 2 39 64 2 39 64 2 39 63 1 38 64 2 39 64 2 39 64 2 39 65 3 40 63 1 38 65 3 40 63 1 38 64 2 39 64 2 39 64 2 39 63 1 38 64 2 39 64 2 39 64 2 39 64 2 39 63 1 38 63 1 38 64 2 39 63 1 38 64 2 39 64 2 39 63 1 38 63 1 38 64 2 39 63 2 36 63 2 36 64 3 37 64 3 37 
63 1 38 63 1 38 64 2 39 64 2 39 64 2 39 64 2 39 64 2 39 64 2 39 64 2 39 63 1 38 64 2 39 64 2 39 64 2 39 63 1 38 63 1 38 64 2 39 65 3 40 64 2 39 64 2 39 64 2 39 64 2 39 64 2 39 64 2 39 64 2 39 63 1 38 64 2 39 64 2 39 64 2 39 65 4 38 63 1 38 64 2 39 64 3 37 64 3 37 64 3 37 64 2 41 64 3 37 64 2 39 63 1 38 64 2 39 64 2 39 64 2 39 65 3 40 64 2 39 62 0 37 64 2 39 64 2 39 65 3 40 64 2 39 64 2 39 64 2 39 64 2 39 64 2 39 64 2 39 63 2 36 64 2 39 64 3 37 64 2 39 64 3 37 63 1 38 64 3 37 64 2 39 64 2 39 64 2 39 64 2 39 64 2 39 63 1 38 63 1 38 64 2 39 63 1 38 64 2 39 64 2 39 64 2 39 65 3 40 63 1 38 64 2 39 63 1 38 63 1 38 64 2 39 64 2 39 64 2 39 64 2 39 64 2 39 63 1 38 64 2 39 64 2 39 64 2 39 64 2 39 63 1 38 63 1 38 64 2 39 64 2 39 63 1 38 64 2 39 64 2 39 63 1 38 63 1 38 64 3 37 63 2 36 63 2 36 64 3 37 
