P3
100 50
255
10 0 24 10 0 24 10 0 24 11 1 25 12 0 24 11 1 25 10 0 24 13 0 26 11 1 25 11 1 25 11 1 25 12 0 24 10 0 24 11 1 25 12 0 24 11 1 25 10 1 22 14 2 26 11 1 25 10 0 24 10 0 24 9 0 23 10 0 24 11 1 25 10 0 24 11 1 25 11 1 25 10 0 24 10 0 24 11 1 25 11 1 25 10 0 24 10 0 24 9 0 23 12 2 26 10 0 24 12 0 24 10 0 24 11 1 25 11 1 26 11 1 25 11 2 23 12 0 24 12 0 24 11 2 23 14 5 26 41 20 27 63 36 29 71 42 28 73 44 30 72 43 27 72 43 29 71 43 31 72 43 29 72 43 29 72 43 29 71 43 29 72 43 27 60 35 28 32 19 26 17 5 27 12 0 24 10 0 25 10 0 24 10 0 24 11 2 23 11 1 25 11 2 23 11 1 25 11 1 25 12 0 24 13 0 24 11 1 25 10 0 24 12 0 22 11 1 25 11 2 23 11 1 25 12 0 24 43 24 26 72 43 29 72 43 29 72 43 29 70 42 28 72 43 29 42 21 26 12 0 24 11 1 26 10 0 24 11 1 25 12 0 24 11 1 25 10 0 24 11 1 25 10 0 24 10 0 24 11 1 25 10 0 24 11 1 25 11 1 25 
11 1 25 11 1 25 11 1 25 11 1 25 10 0 24 10 0 25 13 1 25 10 0 25 11 1 25 11 1 25 10 0 24 11 1 25 12 0 24 11 1 25 11 1 25 20 7 24 43 23 25 28 12 25 11 1 26 10 0 24 11 1 25 10 0 24 9 0 23 10 0 24 11 1 25 10 0 24 10 0 24 11 1 25 11 1 25 10 0 24 10 0 24 10 0 24 11 1 25 11 1 25 10 0 24 10 0 24 13 1 25 12 0 24 10 0 25 9 0 24 10 1 22 10 0 24 13 1 25 19 6 24 49 27 29 70 40 29 71 43 29 73 44 30 72 43 29 74 42 29 72 43 29 72 43 29 71 43 29 71 43 29 72 42 31 69 41 29 46 26 27 25 11 26 10 0 24 12 0 24 13 1 25 10 0 24 11 1 25 11 1 25 11 1 26 10 1 22 10 0 24 9 1 24 12 2 26 11 1 25 11 1 25 11 2 23 11 1 25 10 0 24 13 1 25 10 0 24 11 1 25 11 1 25 33 15 27 71 42 28 72 43 29 73 44 28 72 43 29 71 43 29 50 29 28 11 1 25 12 0 24 11 1 25 12 0 24 12 0 24 12 0 24 12 0 24 10 0 24 10 0 24 10 0 24 10 0 24 11 1 25 11 1 25 11 1 25 10 0 24 
11 1 25 13 1 25 12 0 24 11 1 25 11 1 25 9 0 23 11 1 25 11 1 25 11 1 25 10 0 24 9 0 23 10 0 24 17 4 24 30 14 25 57 32 28 72 42 31 41 22 26 11 1 25 10 0 24 12 0 24 10 0 24 10 0 24 11 1 25 11 1 25 10 0 24 11 1 25 11 1 25 11 1 25 10 0 24 11 1 25 11 1 25 10 0 24 11 1 25 11 1 25 10 0 24 10 0 24 11 1 25 10 0 24 11 1 25 10 0 24 13 1 25 27 13 26 52 31 28 72 42 31 71 43 29 71 43 29 72 43 29 72 43 29 72 43 29 73 44 30 72 43 29 73 44 30 70 42 30 58 33 28 38 17 24 15 3 25 13 1 25 11 2 23 10 0 24 13 1 25 11 1 25 11 1 25 11 1 25 11 1 26 10 0 24 10 0 24 11 1 25 11 1 26 11 2 23 12 0 24 13 1 25 10 0 24 11 1 25 10 0 24 11 1 25 13 1 25 12 0 24 20 7 25 66 40 27 73 44 30 72 42 31 70 42 30 72 43 29 60 32 28 12 3 24 10 1 22 10 0 24 10 0 24 10 0 25 11 1 25 13 1 25 11 1 25 10 0 24 10 0 24 11 1 25 11 1 25 11 1 25 11 1 25 10 0 24 11 1 25 
11 1 25 10 0 24 11 1 25 11 1 25 10 0 24 11 2 21 10 0 24 12 0 24 11 1 25 11 1 25 23 9 26 43 24 26 65 38 29 72 43 29 72 43 29 46 26 28 11 0 23 13 1 25 10 0 24 10 0 24 10 0 24 11 1 25 11 1 25 11 1 25 11 1 25 10 0 24 10 0 24 11 1 25 11 1 25 10 0 24 11 1 25 10 0 24 10 0 24 10 0 24 11 1 25 10 0 24 12 0 24 10 0 24 15 3 25 37 17 26 61 36 29 71 43 29 71 43 29 70 42 28 72 43 27 71 43 29 72 43 29 73 44 30 72 43 29 72 43 29 68 40 29 47 25 27 23 9 26 10 0 24 11 1 25 9 0 23 11 1 25 10 0 24 11 1 25 10 0 24 11 1 25 10 0 24 11 1 25 10 0 24 10 0 24 11 1 25 10 0 24 11 1 25 10 0 24 10 0 24 12 2 26 11 1 25 11 1 25 12 2 26 11 1 25 11 1 25 14 2 26 57 33 29 72 43 29 71 43 31 72 43 29 73 44 30 67 39 28 22 8 23 12 0 24 11 1 25 12 0 24 11 1 25 11 1 25 10 0 25 11 1 25 10 0 24 10 0 24 11 1 25 10 0 24 10 0 24 11 1 25 11 1 25 10 0 24 11 1 25 
10 0 24 11 1 25 11 1 25 12 0 24 11 1 25 12 0 24 13 1 25 16 4 24 34 17 27 58 33 28 69 41 29 71 42 28 74 42 29 72 43 29 55 29 28 15 3 25 10 0 24 12 0 24 11 1 25 12 0 24 10 0 24 10 0 24 10 0 24 11 1 26 11 1 25 10 1 22 11 1 25 10 0 24 10 0 25 11 1 26 11 1 25 10 0 24 10 0 24 11 1 25 11 1 25 12 0 24 17 5 29 40 21 25 64 37 28 72 42 31 72 43 29 73 44 30 72 43 29 72 43 29 72 42 31 71 43 29 72 43 29 73 45 31 61 34 27 37 20 28 16 4 26 10 0 25 11 1 25 11 1 25 11 1 25 12 0 24 12 0 24 11 1 25 11 1 25 11 1 25 10 0 24 11 1 25 11 1 25 11 1 25 11 1 25 11 1 25 10 0 24 10 0 24 10 0 24 10 0 24 13 1 25 11 2 23 11 1 25 11 1 25 12 0 24 11 1 25 43 22 27 72 43 29 72 43 29 72 43 29 72 43 29 71 41 30 29 13 26 11 1 25 10 0 24 12 0 24 10 0 24 9 0 23 10 0 24 11 1 25 11 1 25 9 1 24 11 1 25 11 1 25 11 1 25 10 0 24 10 0 24 11 1 25 11 1 25 11 1 25 
10 0 24 10 0 24 11 1 25 11 2 23 13 1 25 30 14 25 53 29 27 67 39 28 72 43 29 72 43 29 72 43 29 72 44 30 72 43 29 63 36 29 17 5 25 12 0 24 12 0 24 10 0 24 13 1 25 14 0 26 11 1 25 12 2 26 12 0 24 11 1 25 9 1 24 11 1 25 10 0 24 11 1 25 11 1 25 12 0 24 10 1 22 11 1 25 13 1 25 11 1 26 18 5 25 47 27 28 65 38 29 72 43 29 71 43 29 72 43 29 71 44 27 73 44 30 72 43 29 73 44 30 72 43 29 69 41 29 48 26 28 25 11 24 14 2 24 11 1 25 11 1 25 10 0 24 12 0 24 11 1 25 11 1 25 11 1 25 11 1 25 11 1 25 11 1 25 12 0 24 11 1 25 10 0 24 11 1 25 9 0 23 11 1 25 10 0 24 10 0 24 11 1 25 10 0 24 11 1 25 11 1 25 12 0 24 12 0 24 12 0 24 10 0 24 29 13 26 69 41 29 73 44 30 72 43 29 72 43 29 73 44 30 44 24 26 11 2 23 11 1 26 10 0 24 10 0 24 11 1 25 11 0 23 10 2 25 11 1 25 10 0 24 11 1 25 10 0 24 10 0 24 10 0 24 11 1 25 11 1 25 11 1 25 9 0 23 10 0 24 
11 1 25 13 1 25 23 9 26 42 23 27 66 38 27 71 43 29 72 43 27 72 43 29 71 43 29 72 43 29 71 43 29 72 43 29 67 40 29 19 6 24 11 1 25 11 1 25 11 1 25 12 0 24 12 0 24 10 0 24 10 0 24 13 1 23 10 0 24 10 1 22 10 0 24 10 0 24 11 2 23 11 2 23 12 0 24 10 2 25 10 0 24 10 0 24 20 5 24 43 22 27 71 41 30 71 43 29 73 41 30 72 44 30 72 43 29 72 43 29 72 43 29 72 43 29 70 42 30 65 36 30 42 21 28 16 4 24 12 0 24 13 1 25 10 2 25 12 0 24 11 1 26 11 1 25 10 0 24 10 0 24 11 1 25 10 0 24 10 0 24 11 1 25 10 0 24 10 0 24 11 1 25 11 1 25 11 1 25 9 0 23 10 0 24 11 1 25 11 1 25 11 1 25 13 1 25 11 1 25 10 0 24 10 0 25 12 2 26 10 0 24 17 5 25 66 39 28 74 42 29 72 43 29 72 42 31 71 43 29 58 33 28 10 2 25 12 0 22 11 0 23 10 0 24 10 0 24 11 1 25 10 0 24 10 0 24 12 0 24 12 0 24 10 0 24 10 0 24 10 0 24 11 1 25 11 1 25 11 1 25 10 0 24 10 0 24 11 1 25 
39 19 28 57 34 28 70 42 30 72 43 29 72 43 29 72 44 30 71 44 27 71 44 27 72 43 29 72 43 29 72 43 29 68 40 28 30 14 25 13 1 25 11 1 25 10 0 24 12 0 24 10 0 24 11 1 25 11 1 25 10 0 24 11 1 25 11 2 23 12 0 24 10 0 24 10 0 24 12 0 24 10 0 24 10 0 24 11 1 25 15 3 25 38 21 27 66 39 28 72 43 29 73 43 32 73 44 30 71 43 31 71 44 27 71 42 28 72 43 29 71 42 28 60 32 28 34 17 27 14 2 24 10 0 24 9 1 24 11 2 23 9 1 25 12 0 24 11 1 26 12 0 24 10 0 24 11 1 25 11 1 25 10 0 24 10 0 24 10 0 24 10 0 24 11 1 25 11 1 25 11 1 25 11 1 25 10 0 24 11 1 25 10 0 24 11 1 25 10 0 24 11 1 25 11 1 25 11 1 26 12 0 24 9 1 24 12 0 24 12 2 26 54 28 27 70 44 29 72 43 29 72 43 29 72 43 29 66 39 28 20 7 24 10 0 25 11 1 25 10 0 24 10 0 24 11 1 25 13 1 25 10 0 24 12 0 24 10 0 24 11 1 25 12 0 24 11 1 25 11 1 25 11 1 25 9 0 23 10 0 24 11 1 25 11 1 25 11 1 25 
73 44 30 72 43 29 72 43 29 72 43 29 71 43 29 73 44 30 72 43 29 72 43 29 71 43 29 72 43 29 63 36 29 32 15 25 11 1 25 12 0 25 11 1 26 11 1 25 10 0 24 10 0 24 10 1 22 10 0 24 11 1 25 11 1 25 11 1 25 11 1 25 11 2 23 11 2 23 10 0 24 11 2 21 14 2 26 37 17 26 66 39 28 71 43 29 72 43 29 72 43 29 71 43 29 73 41 28 72 43 29 72 42 31 70 42 28 53 29 27 27 10 26 12 3 24 11 1 25 10 0 24 13 1 25 11 1 25 13 1 25 12 0 22 11 1 25 10 0 24 10 0 24 11 1 25 11 1 25 11 1 25 10 0 24 10 0 24 10 0 24 10 0 24 11 1 25 11 1 25 10 0 24 10 0 24 10 0 24 9 0 23 10 0 24 10 0 24 10 0 24 10 0 24 12 0 24 10 0 25 10 0 24 10 2 25 12 0 24 40 21 27 71 41 30 72 43 29 72 43 29 71 43 29 72 43 29 34 17 27 10 0 24 10 0 24 11 1 25 10 0 24 10 0 24 10 0 24 12 0 24 10 0 24 11 1 25 10 0 24 12 0 24 11 1 25 10 0 24 10 0 24 10 0 24 10 0 24 10 0 24 11 1 25 10 0 24 10 0 24 
74 42 29 72 43 29 72 43 29 71 43 29 72 44 30 71 43 29 72 43 29 69 39 28 53 29 27 25 12 22 15 2 22 10 0 24 11 1 25 10 0 25 10 0 24 11 1 25 11 1 25 10 0 24 10 1 22 12 0 24 10 0 24 10 0 24 10 2 26 10 0 25 12 0 24 11 1 25 13 1 25 26 9 25 58 33 28 72 43 29 71 43 29 71 42 28 72 43 29 72 43 29 73 44 30 70 40 29 73 44 30 54 30 26 25 11 24 13 4 25 11 1 25 10 0 25 11 1 25 10 0 24 13 1 25 12 0 24 10 0 24 10 0 24 12 0 24 11 1 26 11 1 25 12 0 24 11 1 25 12 0 24 11 1 25 11 1 25 11 1 25 11 1 25 12 0 24 11 1 25 10 0 24 10 0 24 11 1 25 10 0 24 11 1 25 11 1 25 10 0 24 10 0 24 10 1 22 11 1 25 11 2 23 12 2 27 24 10 27 69 41 29 72 43 29 72 42 31 72 42 31 73 44 30 49 28 27 9 0 23 10 0 24 11 1 25 13 1 25 12 0 24 12 0 24 10 0 24 11 1 25 10 0 24 10 0 24 11 1 25 10 0 24 11 1 25 11 1 25 10 0 24 10 0 24 11 1 25 10 0 24 10 0 24 10 0 24 11 1 25 
70 44 29 72 44 30 71 43 29 74 42 29 73 44 30 59 34 29 36 19 27 16 3 23 11 1 25 10 1 22 10 0 24 10 0 24 10 0 25 11 1 25 13 1 25 12 0 24 11 1 25 10 0 24 12 0 24 12 0 24 11 2 23 10 0 24 10 0 24 10 0 24 11 1 25 17 3 26 47 25 27 73 44 30 72 43 29 71 43 31 72 42 31 71 42 28 72 42 31 72 43 29 71 43 29 54 30 28 24 10 25 11 1 25 11 1 25 11 2 23 13 1 25 10 2 25 11 1 25 11 1 26 11 1 25 10 0 24 11 2 23 10 1 22 10 0 24 10 0 24 10 0 24 10 0 24 10 0 24 10 0 24 12 0 24 11 1 25 11 1 25 12 0 24 10 0 24 10 0 24 11 1 25 11 1 25 10 0 24 11 1 25 10 0 24 11 1 25 10 0 24 11 1 25 10 0 24 11 1 26 10 0 24 15 3 25 62 35 28 71 42 28 71 43 29 71 43 29 72 43 29 64 37 28 16 4 24 11 3 26 10 0 24 10 0 24 12 0 24 11 1 25 10 2 25 12 0 24 11 1 25 10 0 24 10 0 24 10 0 24 10 0 24 10 0 24 11 1 25 11 1 25 11 1 25 10 0 24 11 1 25 11 1 25 11 1 25 11 1 25 
72 43 29 71 42 28 63 36 29 40 21 25 22 8 25 11 1 25 10 0 25 12 0 24 12 0 24 11 1 25 11 1 25 12 0 24 12 0 24 11 1 25 11 1 25 11 1 25 11 1 25 11 1 25 11 1 25 10 0 25 11 0 23 11 1 25 11 1 25 13 0 26 35 18 28 66 40 27 72 43 29 71 43 29 72 42 31 71 43 29 71 43 29 71 43 31 71 41 30 50 29 26 22 8 25 11 1 25 13 1 25 10 0 24 11 2 23 10 0 24 10 0 24 11 1 25 10 0 25 12 0 24 13 1 25 11 1 25 14 0 25 11 1 25 11 1 26 11 1 25 13 1 25 13 1 25 11 1 25 10 0 24 10 0 24 10 0 24 10 0 24 10 0 24 10 0 24 11 1 25 10 0 24 10 0 24 10 0 24 10 0 24 10 0 24 10 0 24 10 0 24 10 0 24 11 1 25 12 0 24 11 1 26 46 26 27 72 43 29 72 43 29 72 43 29 71 43 29 70 40 29 24 10 25 11 1 25 10 0 24 11 1 25 10 0 24 10 0 24 11 1 25 11 1 25 11 1 25 10 0 24 10 0 24 11 1 25 10 0 24 12 0 24 9 1 24 10 0 24 10 0 24 11 1 25 11 1 25 11 1 25 11 1 25 10 0 24 10 0 24 
46 26 27 23 9 24 12 3 24 9 1 24 10 0 24 10 0 24 10 0 24 10 0 24 10 0 24 10 0 24 10 0 24 11 1 25 12 0 24 10 0 24 10 0 24 11 1 25 11 1 25 11 2 23 10 0 24 11 1 25 10 0 24 11 1 25 18 5 25 53 29 25 72 43 29 71 43 29 71 41 30 72 43 29 72 43 29 72 43 29 71 43 29 58 35 29 29 13 26 12 0 24 10 0 24 12 0 24 10 0 24 10 0 24 11 1 25 10 0 24 10 0 24 10 0 24 11 1 25 11 1 25 11 1 25 11 1 25 10 0 24 11 1 25 11 1 25 10 0 24 10 0 24 11 1 25 10 0 24 10 0 24 11 1 25 10 0 24 10 0 24 10 0 24 10 0 24 11 1 25 11 2 23 11 1 25 10 0 24 11 1 25 10 1 22 10 0 24 11 1 26 13 1 23 11 2 23 11 1 25 30 12 26 71 41 30 74 42 29 72 44 30 72 42 31 71 43 29 41 20 27 12 0 24 10 2 25 11 1 25 11 1 26 11 1 25 13 1 25 10 1 22 10 0 24 11 1 25 10 0 24 11 1 25 10 0 24 11 1 25 10 0 24 11 1 25 10 0 24 10 0 24 11 1 25 10 0 24 10 0 24 11 1 25 10 0 24 10 0 24 
12 0 24 10 0 24 10 0 24 9 1 24 10 0 24 10 0 24 10 0 24 11 1 25 10 0 24 11 1 25 10 0 24 9 0 23 11 1 25 12 0 24 12 0 24 10 0 24 12 0 24 11 1 25 10 0 24 13 1 23 11 2 23 26 12 27 65 38 27 74 42 31 72 43 29 72 42 31 72 43 29 71 43 29 71 42 28 69 41 30 37 17 26 13 4 25 10 0 24 13 1 25 11 2 23 11 1 25 10 0 24 10 0 24 10 0 24 10 0 24 10 0 24 11 1 25 10 0 24 10 0 24 11 1 25 10 0 24 11 1 25 10 0 24 9 0 23 9 0 23 11 1 25 10 0 24 10 0 24 10 0 24 10 0 24 10 0 24 10 0 24 11 1 25 10 0 24 11 1 25 13 1 25 10 0 24 11 2 23 12 0 24 11 1 25 10 0 24 10 0 24 11 1 25 11 1 25 15 3 25 63 36 29 74 42 29 72 43 29 73 41 28 71 42 28 55 29 28 16 2 25 10 2 25 10 0 25 13 1 25 10 0 24 10 1 22 11 1 25 11 1 25 10 0 24 11 1 25 10 0 24 11 1 25 10 0 24 11 1 25 10 0 24 11 1 25 10 0 24 11 1 25 10 0 24 11 1 25 10 0 24 10 0 24 11 1 25 10 0 24 
12 0 25 10 0 24 11 1 26 12 0 24 10 0 24 10 0 24 11 1 25 10 0 24 11 1 25 10 0 24 11 1 25 10 0 24 12 0 24 12 0 24 11 1 25 10 2 26 11 1 26 10 0 24 10 0 24 12 0 24 35 15 26 70 42 28 71 43 29 71 43 29 72 43 29 73 44 30 72 43 29 71 42 28 50 29 26 18 5 23 11 1 25 10 0 24 11 1 25 10 0 24 10 0 24 11 1 25 10 0 24 11 1 25 11 1 25 11 1 25 11 1 25 10 0 24 11 1 25 10 0 24 10 0 24 10 0 24 10 0 24 10 0 24 9 0 23 11 1 25 11 1 25 11 1 25 11 1 25 11 1 25 10 0 24 10 0 24 10 0 24 11 1 25 10 0 24 9 0 23 10 0 24 10 0 24 10 0 24 10 0 24 11 1 25 13 1 25 12 0 24 11 1 25 12 0 24 45 23 26 71 42 28 73 44 30 72 43 29 74 42 31 68 40 29 19 6 24 11 1 26 13 1 25 11 1 25 10 0 24 12 0 24 11 1 25 10 0 24 11 1 25 10 0 24 11 1 25 10 0 24 11 1 25 10 0 24 11 1 25 10 0 24 11 1 25 11 1 25 10 0 24 11 1 25 10 0 24 11 1 25 10 0 24 10 0 24 10 0 24 
12 0 24 10 0 24 11 2 23 10 0 24 10 0 24 10 0 24 11 1 25 11 1 25 12 2 26 11 1 25 10 0 24 10 0 24 11 1 26 11 1 25 13 1 25 10 2 25 12 0 24 10 0 24 13 1 25 41 22 26 71 42 28 71 41 30 72 43 29 72 43 29 72 43 29 71 43 29 66 39 32 29 13 24 11 2 23 11 1 25 9 0 23 10 0 24 13 1 25 12 0 24 10 0 24 11 1 25 10 0 24 9 0 23 11 1 25 10 0 24 10 0 24 10 0 24 9 0 23 11 1 25 13 1 25 10 0 24 12 0 24 12 0 24 11 1 25 10 0 24 12 0 24 11 1 25 10 0 24 10 0 24 11 1 25 10 0 24 11 1 25 11 1 25 10 0 24 11 1 25 11 1 25 11 2 23 11 2 23 10 0 24 12 2 26 11 2 23 11 1 25 10 0 24 20 7 24 70 42 30 71 43 31 71 41 30 71 43 31 72 43 29 36 19 27 11 1 25 11 1 25 11 1 25 10 0 24 12 0 24 12 0 24 10 0 24 12 0 24 11 1 25 11 1 25 10 0 24 11 1 25 10 0 24 11 1 25 10 0 24 11 1 25 10 0 24 10 0 24 10 0 24 10 0 24 11 1 25 10 0 24 10 0 24 10 0 24 11 1 25 
12 0 24 10 0 24 11 1 25 11 1 25 11 1 25 11 1 25 10 0 24 10 0 24 10 0 24 9 0 23 11 1 25 11 1 25 11 1 25 11 2 23 10 0 24 11 0 23 10 1 22 12 2 26 49 28 27 71 43 31 72 43 29 71 43 29 73 41 28 72 43 29 71 42 28 51 27 27 17 5 27 12 0 24 11 1 25 10 0 24 11 1 25 12 0 24 13 1 23 11 1 25 12 0 24 10 0 24 11 1 25 9 0 23 10 0 24 10 0 24 10 0 24 11 1 25 10 0 24 11 1 25 10 0 24 12 0 24 11 1 25 10 0 24 12 0 24 12 0 24 10 0 24 12 0 24 11 1 25 10 0 24 10 0 24 10 0 24 11 1 25 11 1 25 10 0 24 10 0 24 10 0 24 12 0 25 11 1 25 10 0 24 10 0 24 12 0 24 12 0 24 12 3 24 61 33 29 72 44 30 72 43 29 71 43 29 72 43 29 55 31 27 14 2 24 11 1 25 11 1 25 10 0 24 10 0 24 10 0 25 13 1 25 13 1 25 9 0 23 10 0 25 10 0 24 11 1 25 10 0 24 11 1 25 10 0 24 11 1 25 10 0 24 11 1 25 10 0 24 10 0 24 10 0 24 11 1 25 10 0 24 10 0 24 10 0 24 11 1 25 
10 0 24 13 1 25 12 0 22 11 1 25 11 1 25 10 0 24 11 1 25 9 0 23 11 1 25 10 0 24 11 1 25 10 0 24 11 1 25 12 0 24 13 1 25 10 0 24 12 3 24 54 30 28 71 41 30 73 43 32 71 43 29 72 43 29 72 44 30 71 41 30 34 17 27 14 2 24 13 1 23 12 0 24 10 0 24 10 1 22 10 0 25 11 1 25 10 0 25 12 0 24 10 0 25 11 1 25 10 0 24 11 1 25 10 0 24 10 0 24 10 0 24 10 0 24 11 1 25 11 1 25 10 0 24 10 0 24 10 0 24 11 1 25 10 0 24 11 1 25 10 0 24 10 0 24 10 0 24 11 1 25 10 0 24 11 1 25 10 0 24 10 0 24 10 0 24 11 1 25 10 0 24 12 0 24 11 1 25 11 1 25 10 0 24 13 1 25 12 0 22 39 20 26 75 43 30 72 43 29 71 43 29 72 43 29 72 40 29 20 7 25 10 0 24 10 0 24 12 0 24 11 2 23 11 1 25 11 1 25 11 1 25 12 0 22 11 1 25 11 1 25 11 1 25 10 0 24 11 1 25 10 0 24 11 1 25 10 0 24 11 1 25 10 0 24 11 1 25 10 0 24 11 1 25 10 0 24 11 1 25 10 0 24 10 0 24 10 0 24 
10 0 24 11 1 25 10 0 24 10 0 24 10 0 24 11 1 25 10 0 24 10 0 24 10 0 24 10 0 24 10 0 24 11 1 25 10 0 24 10 0 24 12 0 24 12 3 24 51 27 27 72 43 29 71 42 28 71 41 30 72 43 29 72 43 29 67 39 28 24 10 25 10 0 25 11 2 23 11 2 23 10 0 24 11 1 25 11 1 25 11 1 25 10 0 24 10 0 24 11 1 25 12 0 24 10 0 24 10 0 24 10 0 24 11 1 25 10 0 24 10 0 24 10 0 24 10 0 24 11 1 25 11 1 25 11 1 25 11 1 25 10 0 24 11 1 25 10 0 24 11 1 25 10 0 24 10 0 24 11 1 25 10 0 24 11 1 25 10 0 24 11 1 25 10 0 24 11 1 25 11 1 25 12 0 24 14 0 25 10 0 24 10 0 24 11 1 25 24 10 25 68 40 28 72 43 29 71 42 28 72 43 27 71 43 29 42 21 26 10 0 24 10 0 24 10 0 24 10 0 24 11 1 26 10 0 24 12 0 24 10 0 24 11 1 25 12 0 24 12 0 24 11 1 25 10 0 24 11 1 25 10 0 24 11 1 25 10 0 24 11 1 25 10 0 24 10 0 24 11 1 25 10 0 24 11 1 25 10 0 24 10 0 24 11 1 25 10 0 24 
11 1 25 12 0 24 11 1 25 12 0 24 10 0 24 10 0 24 10 0 24 10 0 24 11 1 25 10 0 24 10 0 24 10 0 24 11 2 23 10 0 24 15 1 26 49 28 27 71 43 31 71 43 29 72 43 29 71 42 28 71 43 29 65 38 27 20 7 25 10 0 24 11 1 25 11 2 23 12 0 24 10 0 24 12 0 22 11 1 25 12 0 24 11 1 25 11 1 25 11 1 25 11 1 25 13 1 25 10 0 24 10 0 24 10 0 24 11 1 25 11 1 25 10 0 24 10 0 24 10 0 24 10 0 24 10 0 24 10 0 24 11 1 25 10 0 24 10 0 24 11 1 25 11 1 25 10 0 24 11 1 25 10 0 24 10 0 24 10 0 24 10 0 24 10 0 24 10 0 24 11 1 25 11 1 25 12 0 24 10 2 25 10 0 24 15 3 25 53 29 27 71 43 29 72 43 29 72 43 29 72 42 31 60 35 28 14 2 24 11 1 25 11 1 25 10 0 24 11 1 25 12 0 24 13 1 25 11 1 25 10 0 24 12 0 24 11 1 25 11 1 25 11 1 25 10 0 24 11 1 25 10 0 24 11 1 25 10 0 24 11 1 25 10 0 24 10 0 24 10 0 24 11 1 25 10 0 24 10 0 24 11 1 25 10 0 24 10 0 24 
10 0 24 10 0 24 11 1 25 10 0 24 12 0 24 10 0 24 12 0 24 10 0 24 11 2 23 10 0 24 11 1 25 10 2 26 12 0 24 13 0 26 46 26 27 72 42 31 71 43 29 74 42 29 72 43 29 72 42 31 65 38 29 21 8 26 9 0 23 11 1 25 10 0 24 13 1 25 11 1 25 13 1 25 10 0 24 11 1 25 10 0 24 10 0 24 11 1 25 11 1 25 10 0 24 11 1 25 11 1 25 10 0 24 10 0 24 11 1 25 10 0 24 10 0 24 10 0 24 11 1 25 10 0 24 11 1 25 10 0 24 10 0 24 10 0 24 10 0 24 11 1 25 11 1 25 10 0 24 11 1 25 10 0 24 11 1 25 11 1 25 10 0 24 10 0 24 11 1 25 13 1 25 11 1 25 11 1 25 10 0 24 10 0 24 29 13 26 70 40 29 71 43 29 72 42 31 72 43 27 71 42 28 30 14 27 11 1 25 10 0 25 10 0 24 9 0 23 10 0 24 10 0 24 11 1 25 11 1 25 11 1 25 11 1 25 10 0 24 10 0 24 12 0 24 9 0 21 11 1 25 11 2 23 11 1 25 10 0 24 9 1 24 11 2 23 11 1 25 13 1 25 13 1 25 11 1 25 11 1 25 10 0 24 14 2 26 19 13 47 
10 0 24 10 0 24 12 0 24 10 0 24 10 1 22 12 0 24 11 1 26 11 2 23 12 0 24 10 0 24 10 0 24 10 0 24 11 1 25 43 23 25 72 43 29 72 42 31 72 43 29 72 42 31 72 42 31 59 34 29 19 6 24 10 0 24 11 2 23 11 1 25 11 1 25 10 0 24 11 1 25 11 1 26 11 1 25 10 0 24 10 0 24 10 0 24 11 1 25 11 1 25 10 0 24 11 1 25 11 1 25 10 0 24 10 0 24 11 1 25 10 0 24 11 1 25 10 0 24 11 1 25 11 1 25 10 0 24 10 0 24 10 0 24 10 0 24 10 0 24 11 1 25 11 1 25 11 1 25 11 1 25 11 1 25 10 0 24 10 0 24 10 0 24 11 1 25 10 0 24 10 0 24 11 2 23 10 0 24 12 0 24 12 2 26 65 38 29 71 42 26 72 43 29 74 42 29 72 43 29 45 25 26 10 2 25 11 1 25 11 2 23 12 0 24 10 0 24 10 0 24 11 1 25 10 0 24 11 1 25 10 0 24 10 0 24 10 0 24 10 0 24 10 2 25 12 0 24 11 2 23 12 0 24 12 0 24 13 1 25 10 0 24 9 0 23 10 0 24 10 0 24 13 1 25 10 0 24 10 0 24 12 2 27 26 27 71 30 34 82 
11 1 25 11 1 25 10 0 24 10 0 24 10 0 24 10 0 24 11 1 25 11 1 26 10 0 24 10 0 24 10 0 25 12 0 24 35 18 26 70 42 30 72 42 31 72 43 29 71 43 29 71 43 29 65 38 27 18 7 24 11 1 25 13 0 24 11 1 25 11 1 25 13 0 26 10 0 25 11 1 25 10 0 24 11 1 25 10 0 24 11 1 25 10 0 24 10 0 24 11 1 25 10 0 24 11 1 25 10 0 24 10 0 24 12 2 26 11 1 25 11 1 25 11 1 25 10 0 24 11 1 25 10 0 24 10 0 24 10 0 24 10 0 24 10 0 24 10 0 24 10 0 24 11 1 25 11 1 25 10 0 24 11 1 25 11 1 25 10 0 24 10 0 24 11 1 25 11 1 25 12 0 24 10 0 24 12 0 24 12 0 24 42 23 25 72 43 29 71 43 29 72 43 29 72 43 29 65 37 26 17 6 23 11 1 25 11 2 23 13 1 25 11 2 23 10 0 24 10 0 24 11 1 25 11 1 25 10 0 24 11 1 25 10 0 24 10 0 24 9 0 23 10 0 24 12 0 24 12 0 24 10 0 24 10 0 24 12 0 24 11 1 26 11 2 23 10 0 24 11 2 23 13 1 25 10 2 25 17 10 43 33 36 91 38 43 101 30 36 84 
11 1 25 9 0 23 12 0 24 10 0 24 11 1 25 11 1 25 11 1 25 11 1 25 10 0 25 11 1 25 12 0 22 31 13 25 72 44 30 72 43 29 70 42 28 72 43 27 73 43 32 64 37 28 16 2 25 10 0 24 13 1 25 10 1 22 12 0 24 11 1 25 10 0 25 11 1 25 11 1 25 11 1 25 11 1 25 11 1 25 10 0 24 10 0 24 10 0 24 10 0 24 11 1 25 10 0 24 11 1 25 9 0 23 10 0 24 10 0 24 10 0 24 9 0 23 11 1 25 11 1 25 10 0 24 11 1 25 11 1 25 10 0 24 10 0 24 11 1 25 11 1 25 10 0 24 10 0 24 10 0 24 10 0 24 11 1 25 11 1 25 10 0 24 10 0 24 11 1 25 10 0 24 10 0 24 10 0 24 20 7 24 71 41 30 72 42 31 72 43 29 71 43 29 71 41 30 31 13 25 12 0 24 11 2 23 10 0 25 12 0 24 11 1 25 10 2 25 11 1 25 12 2 26 11 1 25 10 0 24 11 1 25 11 1 25 10 0 24 11 1 25 11 1 25 11 1 25 10 0 24 12 0 24 10 0 24 12 0 24 13 1 25 10 0 24 11 1 25 11 1 25 13 1 25 22 17 57 37 43 105 38 43 107 38 43 101 31 35 83 
10 0 24 10 0 24 10 0 24 12 0 24 10 0 24 12 0 24 13 1 25 10 1 22 10 0 24 12 0 22 22 8 25 69 39 28 72 43 29 71 42 28 73 44 30 71 43 29 66 39 28 17 5 25 11 1 25 10 0 24 11 1 25 10 0 24 12 0 24 11 1 25 10 0 24 13 1 25 13 1 25 10 0 24 12 2 26 10 0 24 11 1 25 11 1 25 10 0 24 10 0 24 10 0 24 10 0 24 10 0 24 10 0 24 10 0 24 11 1 25 12 2 26 11 1 25 10 0 24 10 0 24 10 0 24 11 1 25 11 1 25 10 0 24 10 0 24 11 1 25 11 1 25 10 0 24 10 0 24 11 1 25 11 1 25 10 0 24 10 0 24 11 1 25 10 0 24 10 0 24 11 1 25 9 1 24 15 1 26 54 30 26 73 44 30 71 43 31 71 41 30 71 41 30 57 32 27 10 2 25 10 0 24 12 0 24 11 1 26 11 1 25 11 2 23 10 0 25 10 0 24 10 0 24 11 1 25 11 1 25 11 1 25 11 1 25 10 0 24 10 0 24 10 0 24 10 0 25 11 2 23 9 1 24 13 1 25 11 2 23 11 1 25 10 1 22 10 0 24 12 2 27 28 26 73 38 43 107 38 44 106 40 44 105 36 41 97 31 34 85 
10 0 24 10 0 24 11 1 25 10 0 24 12 0 24 11 1 25 13 1 25 11 1 25 11 1 25 14 2 24 64 37 28 74 42 29 74 42 31 71 42 28 70 41 27 72 42 31 28 12 25 11 2 23 12 0 24 11 1 25 10 0 24 12 0 24 11 1 25 10 2 25 12 0 24 12 0 22 11 1 25 10 0 24 10 0 24 10 0 24 11 1 25 11 1 25 10 0 24 10 0 24 10 0 24 10 0 24 10 0 24 10 0 24 11 1 25 12 2 26 10 0 24 10 0 24 10 0 24 11 1 25 11 1 25 11 1 25 11 1 25 11 1 25 11 1 25 10 0 24 10 0 24 11 1 25 11 1 25 11 1 25 11 1 25 10 0 24 10 0 24 11 1 25 10 0 24 11 1 25 10 0 24 10 1 22 33 16 26 71 43 29 71 42 28 72 43 29 72 43 29 69 41 29 20 7 24 12 0 24 11 1 25 10 1 22 13 1 25 10 0 24 10 0 24 10 0 24 10 0 24 10 0 24 10 0 24 10 0 24 10 0 24 10 0 24 11 1 25 9 0 23 12 0 24 11 1 25 10 0 24 11 1 25 9 1 24 13 1 25 11 1 25 10 0 24 15 6 35 32 33 87 39 45 107 39 45 107 39 45 107 40 44 108 37 42 100 32 35 86 
10 0 24 10 0 24 10 0 24 12 0 24 13 1 25 10 0 24 12 0 24 11 1 25 12 0 24 49 28 27 72 42 31 72 43 27 72 43 29 71 41 30 72 43 29 37 18 24 10 0 24 11 1 25 9 0 23 10 0 24 10 0 24 10 0 24 12 2 26 11 1 25 13 0 26 10 0 24 10 0 24 10 0 24 10 0 24 10 0 24 11 1 25 10 0 24 10 0 24 11 1 25 10 0 24 10 0 24 11 1 25 11 1 25 11 1 25 10 0 24 10 0 24 10 0 24 11 1 25 11 1 25 11 1 25 10 0 24 10 0 24 11 1 25 11 1 25 10 0 24 10 0 24 10 0 24 11 1 25 10 0 24 10 0 24 10 0 24 11 1 25 10 0 24 11 1 25 11 1 25 12 0 24 12 3 24 64 37 30 72 43 29 72 43 29 71 42 28 71 44 27 45 25 27 11 1 25 13 1 23 12 0 24 12 0 25 11 1 25 11 1 25 10 0 24 10 0 24 10 0 24 10 0 24 10 0 24 11 1 25 10 0 24 10 0 24 10 0 24 10 0 24 10 0 24 11 1 25 11 2 23 12 2 26 12 0 24 13 1 23 10 0 24 19 13 47 36 38 95 40 44 107 38 44 106 40 44 105 36 44 107 39 43 106 37 42 100 30 34 82 
12 2 26 10 0 24 10 0 24 10 0 24 11 1 26 11 1 25 13 1 25 10 1 22 35 18 26 71 44 27 72 43 29 72 42 31 72 42 31 72 43 29 40 21 27 10 0 24 12 0 24 11 1 26 11 1 25 11 1 25 12 0 24 12 0 24 13 1 25 10 0 24 11 1 25 11 1 25 11 1 25 11 1 25 10 0 24 10 0 24 10 0 24 10 0 24 10 0 24 10 0 24 11 1 25 12 2 26 10 0 24 11 1 25 11 1 25 10 0 24 10 0 24 10 0 24 11 1 25 9 0 23 10 0 24 10 0 24 11 1 25 10 0 24 10 0 24 10 0 24 9 0 23 10 0 24 9 0 23 12 2 26 11 1 25 11 1 25 10 0 24 10 0 24 11 1 25 10 0 24 11 1 25 45 25 27 71 41 30 71 43 31 72 42 31 72 42 32 61 36 29 15 3 23 12 0 24 11 2 23 12 0 24 10 0 24 12 0 24 10 0 24 11 1 25 10 0 24 11 1 25 12 2 26 11 1 25 10 0 24 11 1 25 11 1 25 10 0 24 11 1 25 13 1 23 11 1 25 10 0 24 10 0 24 13 1 25 11 3 27 22 20 59 37 41 102 38 43 107 36 44 106 38 44 106 40 44 108 38 43 107 38 44 106 37 41 102 31 34 85 
10 0 24 12 0 25 10 0 24 10 0 24 10 2 25 10 0 24 12 0 24 24 10 25 70 40 29 71 43 29 72 43 29 72 42 31 72 43 29 57 32 28 11 2 23 10 0 25 11 1 25 10 0 24 10 0 25 12 0 24 11 1 25 11 1 25 10 0 24 10 0 24 10 0 24 11 1 25 11 1 25 11 1 25 10 0 24 10 0 24 10 0 24 10 0 24 10 0 24 10 0 24 10 0 24 9 0 23 10 0 24 11 1 25 10 0 24 12 0 24 10 0 24 11 1 25 10 0 24 10 0 24 10 0 24 11 1 25 11 1 25 10 0 24 12 0 24 12 0 24 12 0 24 12 0 24 10 0 25 11 1 25 11 1 25 10 0 24 11 1 25 10 0 24 11 1 25 11 1 25 19 6 24 69 41 29 72 43 29 72 43 29 71 42 28 72 42 31 32 15 25 11 1 26 10 0 24 12 0 24 10 0 24 11 1 25 11 1 25 10 2 25 11 1 25 10 0 24 11 1 25 10 0 24 12 2 26 9 0 23 10 0 24 10 0 24 10 1 22 12 0 24 10 0 24 11 1 25 11 1 25 12 0 24 12 2 27 27 25 72 38 42 105 39 45 107 39 45 107 39 45 107 39 43 106 39 45 107 38 44 106 40 44 107 36 42 100 31 35 83 
11 1 26 12 0 24 13 1 25 12 0 24 10 0 24 9 0 23 14 5 26 63 36 27 72 43 29 71 42 28 72 42 31 73 44 30 66 37 29 17 5 25 10 0 24 11 2 23 12 0 24 11 1 25 10 0 24 13 1 25 10 0 24 10 0 24 11 1 25 11 1 25 11 1 25 9 0 23 9 0 23 10 0 24 11 1 25 10 0 24 10 0 24 10 0 24 11 1 25 10 0 24 10 0 24 11 1 25 12 0 24 11 1 25 10 0 24 10 0 24 10 0 24 11 1 25 10 0 24 10 0 24 10 0 24 10 0 24 12 2 26 11 1 25 10 0 24 10 0 24 11 1 25 11 1 25 11 1 26 10 0 24 11 1 25 12 0 24 11 1 25 11 2 23 10 0 24 12 0 24 56 31 27 70 42 28 70 42 28 73 41 28 73 41 28 53 29 25 12 2 26 10 0 24 11 1 25 10 0 24 11 1 25 9 0 23 11 1 25 10 0 24 10 0 24 10 2 25 11 1 25 11 1 25 11 2 23 11 1 25 12 0 24 11 1 25 10 1 22 12 0 24 11 1 25 12 0 24 11 1 25 10 0 25 26 25 69 39 45 107 39 45 107 38 44 106 39 45 107 39 45 107 39 45 107 37 43 105 38 44 106 38 44 106 38 43 101 31 35 83 
10 0 25 12 0 24 13 1 25 11 1 25 11 0 23 10 0 25 46 26 25 71 42 28 71 43 29 70 42 28 72 43 29 71 41 30 27 11 24 13 1 25 11 1 25 9 0 24 11 1 25 11 1 25 12 0 24 10 0 24 10 0 24 9 0 23 11 1 25 11 1 25 10 0 24 9 0 23 10 0 24 10 0 24 10 0 24 10 0 24 11 1 25 10 0 24 9 0 23 10 0 24 11 1 25 10 0 24 12 0 24 10 0 24 11 1 25 10 0 24 11 1 25 10 0 24 10 0 24 11 1 25 10 0 24 11 1 25 11 1 25 11 1 25 10 0 24 10 0 24 10 0 24 11 1 25 12 0 24 10 0 24 12 0 24 11 1 25 10 0 24 10 0 25 10 0 24 29 13 26 70 42 28 72 43 29 71 41 30 71 43 29 70 40 29 20 7 25 13 1 25 11 1 25 12 0 24 11 1 25 10 0 24 11 1 25 11 1 25 10 0 24 12 0 24 11 1 25 11 1 25 12 0 22 9 0 23 11 1 25 10 0 24 11 1 25 10 0 24 10 0 24 11 1 25 11 1 25 12 2 29 25 26 70 34 37 90 37 43 105 38 44 106 39 45 107 39 45 107 38 44 106 39 45 107 38 44 106 39 45 107 38 44 106 37 42 100 31 35 83 
10 0 24 11 1 25 11 1 25 10 0 24 10 0 24 30 14 25 70 42 28 70 44 31 72 43 29 73 44 30 70 42 28 40 21 27 10 0 24 12 0 24 12 0 24 10 0 24 12 0 24 12 0 24 10 2 25 12 0 24 10 0 24 9 0 23 11 1 25 11 1 25 10 0 24 10 0 24 10 0 24 10 0 24 10 0 24 10 0 24 10 0 24 11 1 25 10 0 24 10 0 24 10 0 24 10 0 24 9 0 23 11 1 25 10 0 24 13 1 25 10 0 24 10 0 24 10 0 24 11 1 25 11 1 25 11 1 25 11 1 25 11 1 25 11 1 25 10 0 24 10 0 24 11 1 25 10 0 24 10 0 24 11 2 23 11 1 25 10 0 24 11 1 25 16 2 25 63 36 27 71 42 28 71 42 28 72 43 29 71 41 30 45 25 27 11 1 25 11 1 25 10 0 24 11 1 25 11 1 25 10 0 24 10 0 24 11 1 25 10 0 24 10 0 24 11 1 25 13 0 24 10 0 24 11 2 23 10 0 24 10 0 24 12 2 26 12 0 24 11 1 25 12 0 24 13 4 31 27 30 75 32 35 86 32 38 90 38 43 107 40 44 107 38 42 105 39 45 107 39 45 107 38 44 106 39 45 107 38 44 106 39 45 107 36 42 100 31 35 83 
11 1 25 11 1 25 10 0 24 11 1 25 16 4 26 63 36 27 72 43 29 71 42 28 71 42 28 71 42 28 58 33 29 10 0 24 11 1 25 12 0 24 13 1 23 10 0 24 12 0 24 12 0 24 11 1 25 11 1 25 12 2 26 11 1 25 10 0 24 11 1 25 11 1 25 11 1 25 10 0 24 10 0 24 10 0 24 11 1 25 9 0 23 11 1 25 10 0 24 11 1 25 10 0 24 11 1 25 11 1 25 10 0 24 10 0 24 12 0 24 11 1 25 10 0 24 10 0 24 11 1 25 11 1 25 10 0 24 10 0 24 11 1 25 11 1 25 10 0 24 10 0 24 11 1 25 11 1 25 10 1 22 14 0 25 10 0 24 10 0 25 9 0 23 41 22 26 71 41 30 72 43 29 72 43 29 70 42 28 65 38 29 13 1 25 14 0 25 10 0 24 10 2 23 10 0 24 11 1 25 10 0 24 11 1 25 9 0 23 10 0 24 10 0 24 11 1 25 10 0 24 13 1 25 11 1 25 10 0 24 10 1 22 10 1 22 12 0 24 10 0 24 15 6 37 37 42 100 34 37 90 32 36 84 32 38 88 40 44 107 35 43 105 41 47 109 39 45 107 39 45 107 38 44 106 39 45 107 38 44 106 39 45 107 36 42 100 31 35 83 
9 0 23 11 1 25 10 0 24 11 1 25 47 25 27 73 43 32 71 42 28 71 42 28 72 43 29 67 39 27 19 6 26 11 2 23 11 1 25 11 1 25 11 1 25 13 1 25 11 1 25 11 1 25 10 0 24 11 1 25 11 1 25 11 1 25 11 1 25 11 1 25 11 1 25 11 1 25 11 1 25 10 0 24 10 0 24 11 1 25 10 0 24 11 1 25 10 0 24 12 2 26 10 0 24 10 0 24 13 1 25 11 1 25 10 0 24 10 0 24 11 1 25 11 1 25 10 0 24 10 0 24 10 0 24 11 1 25 11 1 25 11 1 25 10 0 24 10 0 24 10 0 24 11 1 25 11 1 25 11 2 23 9 0 23 10 0 24 12 0 24 21 8 25 68 40 29 71 42 28 71 41 30 72 43 29 70 42 30 34 17 27 11 2 23 10 0 24 10 0 24 11 1 25 10 0 24 12 0 24 10 0 24 11 1 25 11 0 23 11 1 25 11 1 25 12 0 24 9 0 23 9 0 23 12 0 24 12 0 24 10 0 24 10 0 24 11 1 25 16 9 42 37 40 95 38 44 106 32 38 90 32 35 86 35 38 91 38 44 106 38 43 107 38 44 106 39 45 107 38 44 106 38 44 106 38 44 106 39 45 107 38 44 106 37 43 101 32 36 84 
11 1 25 12 0 22 10 0 24 30 14 24 70 41 27 72 43 29 71 41 30 71 42 28 71 42 28 33 15 27 10 0 24 10 0 24 11 1 25 11 1 25 11 1 25 10 1 22 12 0 24 11 1 25 10 0 24 11 2 23 10 0 24 10 0 24 11 1 25 11 1 25 11 1 25 11 1 25 11 1 25 9 0 23 11 1 25 10 0 24 10 0 24 10 0 24 10 0 24 10 0 24 10 0 24 11 1 25 12 0 24 10 0 24 11 1 25 10 0 24 12 2 26 11 1 25 10 0 24 10 0 24 10 0 24 11 1 25 11 1 25 9 0 23 10 0 24 10 0 24 10 0 24 9 0 23 12 0 24 10 1 22 11 1 25 11 2 23 13 1 25 56 31 27 71 43 29 70 42 30 71 42 28 70 42 28 54 30 28 13 1 23 11 2 23 10 0 24 11 1 25 12 0 24 10 0 24 12 2 26 10 0 24 12 0 24 12 0 24 10 0 24 11 1 25 10 0 24 11 1 26 11 1 25 12 0 24 11 1 25 11 1 26 11 1 25 14 4 31 33 38 94 37 43 105 39 45 107 34 37 92 29 35 85 32 38 90 38 44 106 39 43 106 40 46 108 38 44 106 39 45 107 38 44 106 39 45 107 39 45 107 39 45 107 37 43 101 31 35 83 
12 0 24 10 0 24 15 3 23 66 38 27 72 43 29 72 42 31 71 42 28 72 44 30 50 29 26 10 0 24 9 1 24 10 0 24 11 1 25 12 0 24 11 1 25 11 1 25 11 1 25 12 0 24 12 0 25 10 0 24 11 1 25 11 1 25 10 0 24 10 0 24 10 0 24 10 0 24 9 0 23 11 1 25 10 0 24 10 0 24 12 2 26 10 0 24 11 1 25 10 0 24 11 1 25 10 0 24 10 0 24 11 1 25 11 1 25 12 0 24 10 0 24 10 0 24 10 0 24 11 1 25 10 0 24 10 0 24 10 0 24 10 0 24 12 0 24 12 0 24 12 0 24 12 0 24 10 0 24 12 0 24 13 1 25 10 0 24 36 19 27 70 43 26 71 42 26 71 43 29 70 42 28 71 38 29 20 7 25 10 1 22 12 0 24 10 0 24 10 0 25 11 1 25 12 0 24 11 1 25 10 0 24 12 0 24 13 1 25 10 0 24 10 0 24 10 0 24 11 1 25 11 1 25 10 0 24 11 1 25 11 1 25 15 2 28 35 34 91 39 45 107 38 44 106 38 44 106 34 37 90 32 36 84 33 36 89 38 44 104 39 45 107 38 44 104 39 45 107 37 45 107 38 44 106 39 45 107 39 45 107 38 44 106 35 44 101 32 36 84 
12 0 24 10 0 24 48 26 28 71 42 28 71 42 28 71 41 30 71 43 29 64 37 28 16 4 24 10 1 20 12 0 24 10 0 24 11 1 25 10 0 24 11 1 25 10 0 24 11 1 25 10 0 24 11 1 25 11 1 25 11 1 25 11 1 25 10 0 24 10 0 24 11 1 25 11 1 25 10 0 24 10 0 24 10 0 24 11 1 25 11 1 25 11 1 25 11 1 25 11 1 25 10 0 24 10 0 24 11 1 25 10 0 24 11 1 25 10 0 24 11 1 25 11 1 25 10 0 24 10 0 24 12 0 24 11 1 25 11 1 26 9 1 24 10 0 24 12 0 24 11 1 26 11 1 25 11 1 25 10 1 22 10 0 24 16 4 26 66 38 27 71 41 30 73 41 30 72 43 29 72 43 27 42 19 25 12 0 24 10 0 24 12 0 24 11 1 25 9 1 24 11 1 25 11 1 25 11 2 23 10 0 24 11 2 23 10 0 24 11 1 25 12 0 24 12 0 24 10 0 24 10 1 22 10 0 24 10 0 24 12 3 30 32 35 86 40 44 107 39 45 107 38 44 106 38 44 106 32 38 90 31 35 83 33 39 91 38 44 106 38 44 106 38 44 106 38 44 106 38 44 106 39 45 107 38 44 106 38 44 106 39 45 107 37 42 100 32 36 84 
11 2 23 28 12 25 69 41 27 70 42 30 72 43 29 70 43 26 71 42 28 32 15 25 10 0 24 11 1 25 12 0 24 11 1 25 10 0 24 10 0 24 10 0 24 10 0 24 10 0 24 10 0 24 10 0 24 10 0 24 11 1 25 10 0 24 10 0 24 11 1 25 10 0 24 10 0 24 11 1 25 10 0 24 11 1 25 11 1 25 11 1 25 9 0 23 10 0 24 10 0 24 11 1 25 11 1 25 10 0 24 10 0 24 10 0 24 10 0 24 11 1 25 10 0 24 11 1 25 10 0 24 11 0 23 11 1 25 11 1 25 10 1 22 11 1 25 10 0 24 10 0 24 10 0 24 10 2 25 9 1 24 10 1 22 46 26 27 71 42 28 71 41 30 71 41 30 71 42 28 67 39 28 16 2 25 11 1 25 12 0 24 12 0 24 12 0 24 12 0 24 10 0 24 12 0 24 10 1 22 10 0 24 11 1 25 10 0 25 11 2 23 11 1 25 13 1 25 11 0 23 10 0 25 12 0 25 13 3 28 28 29 77 39 45 107 38 44 106 38 43 107 39 45 107 38 44 104 32 38 90 31 35 83 32 38 90 38 44 106 39 45 107 38 44 106 38 44 106 38 44 106 38 44 106 38 44 106 38 44 106 39 45 107 37 42 100 31 35 83 
12 2 26 60 35 28 70 42 30 71 42 28 71 42 28 72 42 31 50 29 28 11 1 25 10 0 24 10 0 24 11 1 25 11 1 25 10 0 24 10 0 24 10 0 24 10 0 24 10 0 24 10 0 24 10 0 24 10 0 24 10 0 24 10 0 24 11 1 25 10 0 24 9 0 23 10 0 24 10 0 24 10 0 24 11 1 25 10 0 24 10 0 24 10 0 24 10 0 24 11 1 25 11 1 25 11 1 25 11 1 25 11 1 25 10 0 24 11 1 25 11 1 25 11 1 25 11 1 25 10 0 24 11 1 26 11 1 25 11 1 25 14 1 27 11 1 25 11 1 25 11 1 25 11 1 25 11 1 25 11 1 25 23 9 24 68 40 29 72 42 31 70 41 27 70 42 28 71 42 28 33 16 26 10 1 22 11 1 25 12 0 24 11 1 25 11 1 25 11 1 25 11 1 25 10 0 24 10 0 24 10 0 24 12 0 24 10 1 22 12 2 26 12 0 24 10 0 24 10 0 24 13 1 23 12 0 24 27 25 72 38 44 106 40 44 107 36 44 106 38 44 106 39 45 107 38 44 106 31 37 89 31 34 85 32 38 90 39 45 107 39 45 107 39 45 107 39 45 107 39 45 107 38 44 106 38 44 106 38 44 106 38 44 106 37 42 100 30 34 82 
43 22 27 72 43 29 71 42 28 70 42 28 71 42 28 66 38 27 19 6 24 10 0 24 10 0 25 12 2 26 12 0 24 10 0 24 10 0 24 10 0 24 10 0 24 10 0 24 10 0 24 10 0 24 10 0 24 10 0 24 11 1 25 10 0 24 10 0 24 10 0 24 11 1 25 11 1 25 10 0 24 10 0 24 10 0 24 10 0 24 10 0 24 12 2 26 11 1 25 10 0 24 10 0 24 11 1 25 10 0 24 10 0 24 10 0 24 10 0 24 10 0 24 10 0 24 10 0 24 10 0 24 10 0 25 10 0 24 11 1 25 12 0 24 11 1 25 11 1 25 9 0 23 11 1 25 13 1 25 14 2 26 58 35 29 71 42 28 70 42 30 70 42 28 70 42 30 55 29 28 10 0 24 13 1 25 11 1 25 11 1 25 11 1 25 11 1 25 10 1 22 9 0 23 11 1 25 11 1 25 10 0 24 10 0 24 11 1 25 12 0 24 10 0 24 14 1 27 12 0 24 12 0 24 25 24 66 36 44 106 38 44 106 38 44 106 38 44 106 38 44 106 39 45 107 38 44 106 31 37 89 31 35 83 32 38 90 38 44 106 39 45 105 38 44 106 38 44 106 38 44 106 38 44 106 38 44 106 38 44 106 38 44 106 37 42 100 31 35 83 
69 41 29 71 42 28 72 43 29 70 42 30 71 42 28 35 18 26 11 1 25 12 0 24 10 0 24 11 0 23 11 2 23 13 1 25 10 0 24 11 1 25 10 0 24 11 1 25 10 0 24 11 1 25 10 0 24 10 0 24 10 0 24 10 0 24 10 0 24 9 0 23 10 0 24 11 1 25 10 0 24 10 0 24 10 0 24 10 0 24 11 1 25 11 1 25 10 0 24 10 0 24 11 1 25 10 0 24 11 1 25 11 1 25 10 0 24 11 1 25 10 0 24 11 1 25 10 0 24 11 1 25 11 1 25 12 0 24 11 2 23 10 1 22 12 2 26 10 0 24 10 0 25 10 1 22 10 0 24 38 19 25 72 43 29 70 42 30 74 42 29 71 43 31 67 39 28 24 7 25 10 0 24 10 0 24 10 0 24 9 1 25 13 1 25 10 0 24 10 0 24 10 0 24 11 1 25 11 1 25 10 0 24 11 1 25 10 0 25 14 0 25 9 1 24 10 0 24 11 1 25 20 14 50 37 43 103 39 45 107 39 45 107 39 44 108 35 43 105 38 44 106 38 44 106 38 44 104 32 38 90 31 34 85 32 38 90 38 44 106 38 44 106 38 44 106 38 44 106 38 44 106 39 45 107 38 44 106 38 44 106 39 45 107 37 42 100 32 36 84 
72 42 31 71 42 28 71 43 31 71 42 28 60 35 28 11 1 25 11 2 23 12 0 24 12 0 24 10 0 24 10 0 24 10 0 24 11 1 25 11 1 25 11 1 25 11 1 25 10 0 24 11 1 25 11 1 25 11 1 25 10 0 24 10 0 24 11 1 25 11 1 25 10 0 24 10 0 24 10 0 24 11 1 25 11 1 25 11 1 25 10 0 24 10 0 24 10 0 24 11 1 25 10 0 24 10 0 24 11 1 25 10 0 24 10 0 24 10 0 24 10 0 24 11 1 25 10 0 24 10 0 24 12 0 24 12 0 24 11 1 25 11 2 23 11 1 26 10 0 24 10 0 24 11 1 25 17 5 25 65 37 26 71 43 29 71 42 28 72 42 31 71 42 28 42 21 28 11 1 25 11 1 25 10 2 25 10 1 22 11 2 23 12 0 24 10 0 24 10 0 24 12 0 25 10 1 22 11 1 25 11 1 25 12 0 25 10 0 24 13 1 23 11 1 25 11 1 25 16 7 38 37 43 103 38 44 106 38 44 106 38 44 104 39 45 107 39 45 107 38 44 106 37 43 105 38 44 106 32 38 90 31 34 85 33 39 91 37 43 105 38 44 106 38 44 106 38 44 106 38 44 106 39 45 107 38 44 106 38 44 106 39 45 107 36 41 99 32 36 84 
70 42 28 71 41 30 72 43 29 69 41 29 27 10 26 10 0 24 12 0 24 10 0 24 11 1 25 11 1 25 11 2 23 10 0 24 10 0 24 10 0 24 10 0 24 10 0 24 10 0 24 10 0 24 10 0 24 10 0 24 10 0 24 10 0 24 10 0 24 11 1 25 10 0 24 10 0 24 11 1 25 10 0 24 10 0 24 10 0 24 11 1 25 10 0 24 11 1 25 10 0 24 11 1 25 10 0 24 10 0 24 10 0 24 11 1 25 11 1 25 10 0 24 11 1 25 10 0 24 11 1 25 12 0 24 13 1 21 10 0 24 11 2 23 10 1 22 11 1 25 12 0 24 12 0 24 47 27 28 71 42 28 72 43 29 71 43 31 71 42 28 59 34 29 14 2 26 10 1 22 11 1 25 12 0 24 10 0 24 9 0 24 13 0 24 12 0 24 10 0 24 12 0 24 12 0 24 11 1 25 12 0 24 10 0 24 9 0 24 13 1 25 11 1 25 13 4 31 33 36 87 38 44 106 38 44 106 40 44 105 38 44 104 38 44 106 38 44 106 38 44 106 38 44 106 38 44 106 32 38 90 31 35 83 31 37 89 38 44 106 38 44 104 38 44 106 38 44 106 38 44 106 39 45 107 38 44 106 38 44 106 39 45 107 37 42 100 32 36 84 
71 42 28 72 42 31 70 42 28 48 27 26 12 0 24 11 1 25 12 0 24 11 1 25 11 1 25 10 0 25 10 0 24 12 0 24 10 0 24 10 0 24 10 0 24 10 0 24 10 0 24 10 0 24 10 0 24 10 0 24 10 0 24 11 1 25 10 0 24 10 0 24 11 1 25 10 0 24 10 0 24 11 1 25 10 0 24 11 1 25 10 0 24 10 0 24 10 0 24 11 1 25 10 0 24 11 1 25 10 0 24 11 1 25 10 0 24 11 1 25 11 1 25 10 0 24 11 1 25 10 0 24 11 1 25 11 1 25 10 0 24 10 0 24 10 1 22 11 1 25 14 0 25 22 10 22 70 40 29 71 41 30 71 41 30 71 42 28 71 41 30 29 13 26 11 1 25 10 0 24 10 0 24 12 2 26 12 0 24 9 1 24 10 0 24 11 1 25 11 1 25 13 1 25 12 0 25 11 1 25 12 0 24 11 1 25 10 0 24 11 1 25 10 0 25 25 26 70 37 42 100 36 44 106 38 44 106 38 44 106 38 44 104 38 44 104 39 45 107 36 44 106 38 44 106 38 44 106 31 37 89 31 34 85 32 38 90 38 44 106 39 45 107 39 45 107 38 44 106 39 45 107 38 44 106 38 44 106 38 44 106 38 44 106 37 42 100 31 35 83 
71 42 26 72 43 29 66 39 28 17 6 23 10 0 24 10 0 24 10 0 24 10 0 24 11 1 25 11 1 25 10 0 24 10 0 24 10 0 24 11 1 25 11 1 25 10 0 24 11 1 25 10 0 24 10 0 24 11 1 25 10 0 24 10 0 24 10 0 24 10 0 24 10 0 24 10 0 24 10 0 24 10 0 24 10 0 24 10 0 24 11 1 25 10 0 24 9 0 23 10 0 24 11 1 25 10 0 24 11 1 25 11 1 25 10 0 24 11 1 25 10 0 24 11 1 25 10 0 24 10 0 24 9 0 23 12 0 24 10 2 25 11 1 25 11 1 25 11 1 25 16 4 26 61 33 29 71 43 29 72 43 29 72 43 29 72 43 29 46 24 26 10 0 24 10 0 24 10 0 24 10 0 24 10 0 24 10 0 24 10 0 24 11 1 25 10 0 24 11 1 25 10 0 24 12 0 22 13 1 25 13 1 25 10 0 24 12 0 24 10 2 25 23 22 62 31 35 83 36 41 99 38 44 106 38 44 106 38 44 106 38 44 106 38 44 106 38 44 106 38 44 106 38 44 106 38 44 106 31 37 89 31 35 83 34 37 90 38 44 106 38 44 106 38 44 106 38 44 106 38 44 106 38 44 106 38 44 106 38 44 106 38 44 106 37 42 100 31 35 83 
71 41 30 71 43 29 38 18 27 11 1 25 11 1 25 11 1 25 10 0 24 10 0 24 11 1 25 10 0 24 10 0 24 10 0 24 11 1 25 10 0 24 11 1 25 10 0 24 10 0 24 10 0 24 10 0 24 10 0 24 10 0 24 10 0 24 11 1 25 10 0 24 11 1 25 10 0 24 11 1 25 10 0 24 10 0 24 10 0 24 11 1 25 10 0 24 9 0 23 11 1 25 10 0 24 10 0 24 10 0 24 9 0 23 11 1 25 10 0 24 10 0 24 10 0 24 11 1 25 10 0 24 10 2 25 9 1 24 10 0 24 10 0 24 13 1 25 12 0 24 41 22 26 71 41 30 71 42 28 72 43 29 71 42 28 67 38 30 16 3 23 10 0 24 10 0 24 9 0 23 11 1 25 10 0 24 11 1 25 9 0 23 11 1 25 10 0 24 10 0 24 11 1 25 13 1 25 11 1 25 10 0 25 10 1 22 10 0 24 22 20 57 31 35 83 32 36 84 36 40 101 38 44 106 38 44 106 38 44 106 38 44 106 38 44 106 38 44 106 38 44 106 38 44 106 38 44 106 31 37 89 31 35 83 34 37 90 38 44 106 38 44 106 38 44 106 38 44 106 38 44 106 38 44 106 38 44 106 38 44 104 38 44 106 37 42 100 31 35 83 
69 43 28 62 35 28 16 2 25 11 1 25 10 0 24 10 0 24 10 0 24 10 0 24 10 0 24 11 1 25 11 1 25 10 0 24 11 1 25 11 1 25 10 0 24 10 0 24 10 0 24 10 0 24 10 0 24 11 1 25 11 1 25 10 0 24 11 1 25 10 0 24 11 1 25 10 0 24 11 1 25 11 1 25 11 1 25 10 0 24 11 1 25 10 0 24 11 1 25 10 0 24 10 0 24 10 0 24 10 0 24 10 0 24 10 0 24 11 1 25 10 0 24 10 0 24 10 0 24 11 1 25 12 0 24 10 0 25 11 1 26 10 0 24 12 0 24 20 7 24 67 40 29 71 41 30 70 41 27 70 42 28 71 41 30 34 17 27 10 0 24 10 0 24 11 1 26 11 2 23 10 0 24 10 0 24 11 1 25 10 0 24 11 1 25 10 0 24 11 1 25 10 0 24 12 0 24 10 1 22 12 0 24 12 0 24 19 13 47 36 41 97 30 34 82 31 35 83 36 41 99 38 44 106 38 44 106 38 44 106 38 44 106 38 44 104 38 44 106 38 44 106 38 44 106 38 44 106 31 37 89 31 35 83 34 37 90 38 44 106 38 44 106 38 44 106 38 44 106 38 44 106 38 44 106 38 44 106 38 44 104 38 44 106 37 42 100 31 35 83 
71 43 29 33 15 27 12 0 24 10 0 24 11 1 25 10 0 24 10 0 24 11 1 25 11 1 25 10 0 24 10 0 24 11 1 25 10 0 24 11 1 25 10 0 24 10 0 24 11 1 25 10 0 24 10 0 24 12 2 26 10 0 24 11 1 25 10 0 24 11 1 25 10 0 24 11 1 25 10 0 24 10 0 24 10 0 24 11 1 25 10 0 24 11 1 25 10 0 24 11 1 25 11 1 25 10 0 24 10 0 24 10 0 24 11 1 25 10 0 24 11 1 25 10 0 24 11 1 25 10 0 24 12 0 24 10 0 24 12 0 24 12 0 24 11 1 25 55 30 26 71 42 28 70 42 28 70 42 30 70 41 27 56 31 27 14 2 24 10 0 24 11 1 25 10 0 24 10 0 24 10 0 24 10 0 24 10 0 24 10 0 24 11 1 25 10 0 24 11 1 25 10 0 24 11 1 25 12 0 24 10 0 24 15 9 37 34 39 95 36 41 97 31 35 82 31 35 83 36 40 101 38 44 106 38 44 106 38 44 106 38 44 106 38 44 106 38 44 106 38 44 106 38 44 106 38 44 106 31 37 89 31 35 83 34 37 90 38 44 106 38 44 106 38 44 106 38 44 106 38 44 106 38 44 106 38 44 106 38 44 106 38 44 106 37 42 100 31 35 83 
59 34 27 12 2 26 13 1 25 10 0 24 11 1 25 11 1 25 11 1 25 10 0 24 11 1 25 10 0 24 11 1 25 11 1 25 10 0 24 10 0 24 10 0 24 11 1 25 10 0 24 10 0 24 10 0 24 10 0 24 10 0 24 10 0 24 10 0 24 10 0 24 10 0 24 10 0 24 10 0 24 10 0 24 11 1 25 10 0 24 10 0 24 11 1 25 11 1 25 10 0 24 11 1 25 10 0 24 12 2 26 11 1 25 10 0 24 11 1 25 10 0 24 11 1 25 10 0 24 10 0 24 10 1 22 11 1 25 11 2 23 10 0 24 40 21 27 70 42 28 72 43 29 72 43 29 71 42 28 69 41 29 22 8 25 11 1 25 11 1 25 10 0 24 11 1 25 10 0 24 10 0 24 11 1 25 10 0 24 10 0 24 10 0 24 10 0 24 10 0 24 11 1 25 11 0 23 11 2 23 11 3 26 33 36 91 39 43 107 35 42 97 31 35 83 31 35 83 36 40 101 38 44 106 38 44 106 38 44 106 38 44 106 38 44 106 38 44 106 38 44 106 38 44 106 38 44 106 31 37 89 31 35 83 34 37 90 38 44 106 38 44 106 38 44 106 38 44 106 38 44 106 38 44 106 38 44 106 38 44 106 38 44 106 37 42 100 31 35 83 
31 13 25 10 0 24 12 0 25 11 2 23 10 0 24 10 0 24 10 0 24 11 1 25 10 0 24 10 0 24 11 1 25 11 1 25 10 0 24 10 0 24 10 0 24 11 1 25 11 1 25 12 2 26 10 0 24 9 0 23 10 0 24 10 0 24 10 0 24 9 0 23 10 0 24 10 0 24 10 0 24 10 0 24 10 0 24 10 0 24 10 0 24 11 1 25 10 0 24 11 1 25 11 1 25 10 0 24 11 1 25 10 0 24 11 1 25 10 0 24 11 1 25 10 0 24 10 0 24 10 0 24 10 1 22 12 0 24 10 0 24 19 6 26 69 41 29 71 43 29 72 43 29 71 42 28 71 43 29 41 20 25 11 1 25 12 0 24 12 0 24 11 1 26 11 1 25 11 1 25 11 1 25 11 1 25 10 0 24 11 1 25 10 0 24 11 1 25 10 0 24 10 0 24 10 0 24 12 2 27 28 29 75 38 44 104 38 44 106 37 42 100 31 35 83 32 36 84 36 41 99 38 44 106 38 44 106 38 44 106 38 44 106 38 44 104 38 44 106 38 44 106 38 44 106 38 44 106 31 37 89 31 35 83 34 37 90 38 44 106 38 44 106 38 44 106 38 44 106 38 44 106 38 44 106 38 44 106 38 44 104 38 44 106 37 42 100 31 35 83 
