P3
100 50
255
118 88 28 118 88 28 119 89 29 118 88 28 117 87 27 117 80 10 117 79 6 117 80 9 117 87 25 117 87 27 118 88 28 118 88 28 116 85 21 117 79 4 116 78 3 117 86 22 118 88 28 117 87 27 118 88 28 118 88 28 119 82 12 116 78 3 116 82 11 117 87 27 118 88 28 118 88 28 117 87 27 116 85 20 117 79 4 117 79 6 117 86 22 117 87 27 117 87 25 117 87 27 118 88 28 119 89 29 118 88 28 117 87 27 118 88 26 118 88 26 118 88 28 119 89 29 117 86 21 116 78 3 117 79 4 117 86 22 117 87 25 118 88 28 118 88 28 118 88 28 117 80 9 117 79 4 117 80 9 118 88 28 118 88 28 116 86 26 117 87 27 116 85 21 116 78 3 116 78 3 117 86 22 118 88 28 118 88 28 118 88 28 117 87 27 116 82 11 117 79 4 118 81 11 119 89 29 117 87 27 117 87 27 118 86 27 117 86 21 117 79 4 116 78 5 117 86 22 118 88 28 118 88 28 118 88 28 118 88 28 118 81 11 116 78 3 117 80 9 117 87 27 117 87 27 118 88 28 117 87 27 117 86 22 117 79 4 116 78 3 116 85 21 117 87 27 118 88 28 118 88 28 117 87 27 115 81 9 117 79 4 116 82 10 117 87 27 118 88 28 
118 88 28 117 87 27 118 88 28 119 89 29 117 87 27 119 80 11 117 79 6 118 81 10 117 87 27 118 88 28 118 88 28 118 88 28 116 85 21 117 79 4 117 79 4 116 85 21 118 88 28 118 88 26 117 87 27 118 88 26 118 81 11 117 79 4 116 82 10 119 89 29 118 88 28 118 88 28 117 87 27 117 86 21 117 79 4 117 79 6 117 86 22 118 88 28 117 87 25 118 88 26 117 87 27 118 88 28 118 88 28 117 87 27 117 87 27 117 87 27 117 87 27 117 87 27 117 86 21 117 79 4 117 79 4 117 86 22 117 87 25 117 87 27 118 88 28 118 88 28 118 81 10 117 79 4 117 81 7 118 88 28 118 88 28 118 87 30 118 88 28 117 86 22 116 78 3 117 79 4 117 86 22 118 88 28 117 87 27 118 88 28 117 87 27 115 81 10 117 79 4 119 82 12 119 89 29 118 88 28 117 87 27 117 87 27 117 86 21 117 79 4 117 79 6 118 86 25 117 87 27 117 87 27 116 85 28 118 88 28 118 81 10 116 78 3 118 81 10 118 88 28 118 88 28 118 88 28 117 87 27 116 85 20 116 78 3 117 79 4 117 86 22 117 87 27 117 87 27 118 88 28 117 87 27 115 81 9 117 79 4 116 82 10 118 88 28 118 88 28 
117 87 27 117 87 27 119 89 29 117 87 27 116 86 26 118 79 10 117 79 6 118 81 10 118 88 26 117 87 27 117 87 27 119 89 27 116 85 21 117 79 6 116 78 3 116 85 21 117 87 27 118 88 26 118 88 28 117 87 25 118 81 10 117 79 4 116 82 11 117 87 27 117 87 27 118 88 28 117 87 27 116 85 20 115 77 2 117 79 4 117 86 21 117 87 27 117 87 27 118 88 28 118 88 28 117 87 27 117 87 27 117 87 27 119 89 29 118 88 28 117 87 27 117 87 27 117 86 21 117 79 4 117 79 4 117 86 22 118 88 28 118 88 28 118 88 28 117 87 27 117 80 9 116 78 3 117 80 9 117 87 27 117 87 27 117 87 27 118 88 28 117 86 22 117 79 4 117 79 4 117 86 22 118 88 28 117 87 27 118 88 28 117 87 27 117 83 12 116 78 3 118 81 11 119 89 29 117 87 27 117 87 27 117 87 27 117 87 25 116 83 16 118 83 17 117 87 25 116 86 26 117 87 27 117 87 27 118 88 28 118 81 11 117 79 4 119 82 11 119 89 27 118 88 26 118 88 28 117 87 27 117 86 22 118 80 5 117 79 4 116 85 21 117 87 27 118 88 28 118 88 28 117 87 27 115 81 9 116 78 3 116 82 10 117 87 27 117 87 27 
117 87 27 118 88 28 118 88 28 118 88 28 117 87 27 117 80 10 116 78 5 118 81 10 118 88 26 117 87 27 118 88 28 117 87 27 116 85 21 117 79 4 117 79 4 117 86 22 117 87 27 118 88 26 118 88 28 116 86 24 118 81 11 117 79 4 117 83 11 118 88 28 118 88 28 118 88 28 118 88 28 116 85 20 117 79 4 117 79 4 117 86 21 117 87 27 118 88 28 118 88 28 117 87 27 117 87 27 118 88 28 117 87 27 117 87 27 117 87 27 116 86 26 117 87 27 116 85 21 117 79 4 116 78 3 117 86 22 117 87 27 118 88 28 118 88 28 118 88 28 118 81 10 117 79 4 119 82 12 117 87 27 118 88 28 118 88 26 118 88 28 116 85 21 117 79 4 116 78 3 117 86 22 117 87 27 117 87 27 117 87 27 117 87 27 115 81 10 117 79 4 118 81 11 118 88 28 117 87 27 117 87 27 118 86 27 117 87 27 118 88 26 118 88 26 118 88 28 117 85 24 117 87 27 117 86 29 118 88 28 118 81 11 117 79 4 118 81 10 117 87 27 117 87 27 118 88 28 118 88 28 117 86 22 118 80 5 117 79 4 118 87 23 117 87 27 117 87 27 117 87 27 118 88 28 115 81 9 117 79 4 116 82 10 118 88 28 118 88 28 
117 87 27 118 88 28 117 87 27 117 87 27 118 88 28 118 81 11 117 79 6 118 81 10 117 87 27 117 87 27 118 88 28 117 87 27 117 86 22 116 78 3 117 79 4 117 86 21 117 87 27 117 87 27 117 87 27 117 87 27 117 80 10 117 79 6 116 82 11 118 88 28 116 86 26 117 87 27 118 88 28 115 84 19 117 79 4 117 79 6 118 87 23 118 88 28 117 87 27 117 87 27 118 88 28 117 87 27 118 88 28 117 87 27 118 88 28 117 87 27 118 88 28 117 87 27 117 86 22 117 79 4 117 79 4 116 85 21 117 87 27 117 87 27 117 87 27 118 88 28 117 80 9 117 79 4 119 82 12 117 87 27 117 87 27 118 88 26 118 88 28 116 85 21 117 79 4 117 79 4 117 86 22 117 87 27 118 88 28 117 87 27 117 87 27 115 81 10 116 78 3 117 80 10 117 87 27 117 87 27 118 88 28 118 86 27 117 87 27 117 87 27 118 88 26 117 87 27 119 87 28 118 88 28 117 87 27 117 87 27 118 81 11 117 79 4 116 79 8 117 87 27 118 88 28 117 87 27 118 88 28 117 86 22 116 78 3 117 79 4 117 86 22 117 87 27 118 88 28 117 87 27 117 87 27 116 82 10 117 79 4 115 81 9 118 88 28 117 87 27 
117 87 27 117 87 27 117 87 27 117 87 27 118 88 28 117 83 12 116 78 5 117 80 9 118 88 26 117 87 27 117 87 27 117 87 27 116 85 21 117 79 4 117 79 4 117 86 22 118 88 28 118 88 28 118 88 26 118 88 28 118 81 11 117 79 4 116 82 11 118 88 28 117 87 27 118 88 28 117 87 27 115 84 19 117 79 4 117 79 4 117 86 21 117 87 27 118 88 28 117 87 27 117 87 27 117 87 27 117 87 27 117 87 27 117 87 27 118 88 28 118 88 28 118 88 28 117 86 22 117 79 4 117 79 4 116 85 21 116 86 26 117 87 27 117 87 27 119 89 29 116 79 8 117 80 2 118 81 11 118 88 28 117 87 27 118 88 28 118 88 28 116 85 21 116 78 3 117 79 4 116 85 21 118 88 28 118 88 28 118 88 28 117 87 27 116 82 11 117 79 4 118 81 11 117 87 27 118 88 28 117 87 27 117 87 27 118 88 26 117 87 27 118 86 25 118 88 28 118 88 28 117 87 27 118 88 28 117 87 27 117 80 9 117 79 4 117 80 9 118 88 28 117 87 27 117 87 27 117 87 27 116 85 20 116 78 3 117 79 4 117 86 22 118 88 28 117 87 27 118 88 28 117 87 27 116 82 10 115 77 2 116 82 10 118 88 28 117 87 27 
117 87 27 118 88 28 118 88 28 117 87 27 117 87 27 118 81 10 117 79 4 118 81 11 117 87 27 117 86 29 117 87 27 117 87 27 118 88 26 118 87 23 117 85 24 118 88 24 117 87 27 117 87 27 117 87 27 118 88 28 115 81 10 117 79 4 118 81 11 117 88 28 117 87 27 117 87 27 118 88 28 116 85 20 117 79 4 116 78 3 117 86 22 118 88 28 117 87 27 117 87 27 117 87 27 117 87 27 118 88 28 117 87 27 118 88 28 117 87 27 117 87 27 118 88 28 117 86 22 116 78 3 116 78 3 116 85 21 118 88 28 118 88 28 118 88 28 117 87 27 117 80 10 116 78 5 117 80 10 117 87 27 118 88 28 117 87 27 120 90 30 116 85 21 116 78 5 116 78 3 116 85 21 118 88 28 118 88 28 118 88 28 118 88 28 116 82 11 117 79 6 118 81 11 117 87 27 118 88 28 117 87 27 117 87 27 117 87 27 119 89 29 118 88 28 117 87 27 118 88 28 117 87 27 117 87 27 118 88 28 118 81 11 117 79 4 117 80 9 117 87 27 117 87 27 117 87 27 117 87 27 116 85 21 116 78 3 117 79 4 117 86 22 117 87 27 117 87 27 118 88 28 118 88 28 116 79 8 116 78 3 118 81 10 118 88 28 117 87 27 
116 86 26 117 87 27 117 87 27 117 87 27 118 88 28 116 79 8 117 79 4 118 81 11 118 88 28 117 87 27 118 86 27 117 87 27 117 87 27 117 87 27 117 87 27 117 87 27 119 89 29 118 88 28 118 88 28 117 87 27 118 81 11 117 79 4 116 82 11 117 87 25 117 87 27 119 89 29 118 88 28 116 85 20 117 79 4 117 79 4 117 86 22 118 88 28 117 87 27 117 87 27 117 87 27 117 87 27 118 88 28 116 86 26 117 87 27 117 87 27 118 88 28 117 87 27 115 84 20 116 78 3 116 78 3 117 86 22 117 87 27 117 87 27 118 88 28 117 87 27 116 79 9 117 79 6 118 81 11 117 87 27 118 88 28 118 88 28 118 88 28 116 85 21 117 79 6 116 78 3 117 86 22 118 88 28 118 88 28 117 87 27 117 87 27 115 81 10 116 78 5 117 80 10 118 88 28 118 88 28 118 88 28 119 89 29 118 88 28 117 87 27 117 87 27 117 87 27 118 88 28 117 87 27 118 88 28 117 87 27 116 82 11 117 79 4 117 80 9 117 87 27 117 87 27 117 87 27 116 87 27 116 86 22 117 79 4 116 78 5 117 86 22 118 88 28 117 87 27 118 88 28 117 87 27 117 80 9 117 79 4 116 79 8 117 87 27 117 87 27 
117 87 27 118 88 28 117 87 27 118 88 28 117 87 27 117 80 9 118 80 5 117 80 10 117 87 27 118 88 28 117 87 27 117 87 27 118 88 28 117 87 27 117 87 27 118 88 28 117 87 27 117 87 27 118 88 28 117 87 27 117 80 10 116 78 5 116 82 11 117 87 27 117 87 27 117 87 27 118 88 28 116 85 20 117 79 4 116 78 3 117 86 22 118 88 28 118 88 28 117 87 27 118 88 28 117 87 27 116 86 26 118 88 28 117 87 27 118 88 28 117 87 27 117 87 27 116 85 21 116 78 3 117 79 4 117 86 22 117 87 27 117 87 27 117 87 27 117 87 27 117 80 10 116 78 5 118 81 11 117 87 27 118 88 28 118 88 28 117 87 27 116 85 21 117 79 6 117 79 4 117 86 22 118 88 28 117 87 27 117 87 27 118 88 28 116 82 11 117 79 6 118 81 11 117 87 27 117 87 27 117 87 27 117 87 27 118 88 28 117 87 27 117 87 27 118 88 28 117 87 27 117 87 27 117 87 27 117 87 27 118 81 11 117 79 4 117 80 9 117 87 27 117 87 27 118 88 28 117 87 27 117 86 22 116 78 5 117 79 6 116 85 21 116 86 26 117 87 27 117 87 27 118 88 26 117 80 9 117 79 6 117 80 9 118 88 28 118 88 28 
117 87 27 116 86 26 117 87 27 118 88 28 117 87 27 117 80 9 117 79 4 118 81 11 116 87 27 117 87 27 117 87 27 117 87 27 119 89 29 116 88 25 117 87 27 117 87 25 117 87 27 117 87 27 117 87 27 118 88 28 118 81 11 117 79 4 116 82 11 117 87 27 117 87 27 117 87 27 117 87 27 116 85 20 116 78 3 116 78 3 117 86 22 117 87 27 117 87 27 117 87 27 118 88 28 118 88 28 117 87 27 117 87 27 117 87 27 117 87 27 118 88 28 115 85 25 116 85 21 116 78 3 117 79 4 117 86 22 117 87 27 118 88 28 118 88 28 117 87 27 118 81 11 117 79 6 118 81 11 117 87 27 115 86 26 118 88 28 118 88 28 116 85 21 117 79 6 116 78 3 116 85 21 117 87 27 118 88 28 117 87 27 117 87 27 116 82 11 115 77 4 118 81 11 118 88 28 118 88 28 117 87 27 117 87 27 118 88 28 117 87 27 117 87 27 118 88 28 117 87 27 117 87 27 117 87 27 117 87 27 116 79 9 116 78 3 117 80 9 117 87 27 117 87 27 117 87 27 117 87 27 118 84 21 117 79 4 116 78 5 117 86 22 118 88 28 117 87 27 117 87 27 117 87 27 117 80 9 116 78 5 117 80 10 117 87 27 117 87 27 
117 87 27 117 87 27 118 88 28 117 87 27 117 87 27 117 80 9 116 78 3 117 80 10 117 87 27 118 88 28 117 87 27 118 88 28 117 87 27 118 88 28 117 87 27 117 87 27 118 88 28 117 87 27 118 88 28 117 87 27 117 80 10 116 78 3 118 81 11 118 88 28 117 87 27 117 87 27 118 88 28 116 85 20 115 77 2 116 78 3 117 86 22 117 87 27 117 87 27 117 87 27 117 87 27 118 88 28 117 87 27 118 88 28 117 87 27 118 88 28 117 87 27 117 87 27 115 84 20 116 78 3 117 79 4 117 86 22 118 88 28 117 87 27 117 87 27 117 87 27 117 80 10 116 78 5 118 81 11 118 88 28 117 87 27 117 87 27 118 88 28 115 84 20 116 78 5 117 79 4 116 85 21 118 88 28 117 87 27 117 87 27 117 87 27 115 81 10 116 78 5 118 81 11 117 87 27 117 87 27 118 88 28 117 87 27 117 87 27 117 87 27 117 87 27 117 87 27 117 87 27 117 87 27 117 87 27 117 87 27 116 82 11 117 79 4 118 81 10 117 87 27 118 88 28 118 88 28 118 88 28 117 86 22 116 78 3 117 79 6 116 85 21 118 88 28 117 87 27 118 88 28 117 87 27 117 80 9 117 79 6 118 81 11 117 87 27 118 88 28 
117 87 27 117 87 27 117 87 27 117 87 27 117 87 27 118 81 10 116 78 3 117 80 10 118 88 28 118 88 28 117 87 27 117 87 27 118 88 28 118 88 28 117 87 27 117 87 27 117 87 27 118 88 28 117 87 27 117 87 27 115 81 10 116 78 5 119 80 11 116 87 27 117 87 27 118 88 28 118 88 28 116 85 20 117 79 6 116 78 3 117 86 22 118 88 28 116 86 26 118 88 28 117 87 27 117 87 27 117 87 27 117 87 27 117 87 27 117 87 27 118 88 28 117 87 27 115 84 20 116 78 5 116 78 5 117 86 22 118 88 28 117 87 27 117 87 27 116 86 26 118 81 11 116 78 5 118 81 11 118 88 28 117 87 27 117 87 27 117 87 27 116 85 21 117 79 6 116 78 3 116 85 21 117 87 27 117 87 27 117 87 27 117 87 27 116 82 11 116 78 5 117 80 10 118 88 28 117 87 27 117 87 27 117 87 27 117 87 27 117 87 27 117 87 27 117 87 27 117 87 27 117 87 27 117 87 27 117 87 27 115 81 10 117 79 4 117 80 9 117 87 27 117 87 27 117 87 27 117 87 27 116 85 21 117 79 4 116 78 3 116 85 21 118 88 28 116 86 26 117 87 27 117 87 27 116 79 9 116 78 5 117 80 10 117 87 27 118 88 28 
117 87 27 115 86 26 117 87 27 116 87 27 117 87 27 115 81 9 116 78 3 117 80 10 117 87 27 117 87 27 117 87 27 117 87 27 117 87 27 117 87 27 117 87 27 118 88 28 117 87 27 117 87 27 117 87 27 117 87 27 117 80 10 117 79 4 116 82 11 117 87 25 118 88 28 117 87 27 117 87 27 116 85 20 116 78 5 117 79 6 117 86 22 117 87 27 117 87 27 117 87 27 116 86 26 117 87 27 117 87 27 117 87 27 117 87 27 118 88 28 117 87 27 117 87 27 116 85 21 115 77 4 117 79 6 117 86 22 117 87 27 116 86 26 118 88 28 116 87 27 118 81 11 117 79 6 115 81 10 118 88 28 118 88 28 118 89 29 117 87 27 116 85 21 117 79 6 117 79 4 116 85 21 117 87 27 117 87 27 117 87 27 117 87 27 115 81 10 116 78 5 118 81 11 117 87 27 117 87 27 117 87 27 117 87 27 117 87 27 117 87 27 119 89 29 117 87 27 117 87 27 117 87 27 117 87 27 117 87 27 115 81 10 117 79 4 116 82 10 116 87 27 116 87 27 118 88 28 117 87 27 116 85 21 116 78 3 116 78 5 116 85 21 118 88 28 118 88 28 117 87 27 118 88 28 117 80 9 117 79 6 117 80 10 118 88 28 117 87 27 
117 88 28 116 87 27 117 87 27 117 88 28 118 88 28 115 81 9 116 78 3 117 80 10 117 86 29 117 87 27 118 88 28 116 87 27 116 87 27 117 86 29 116 87 27 116 87 27 117 87 27 117 87 27 117 87 27 117 87 27 118 81 11 116 78 3 116 82 11 117 87 27 117 87 27 116 86 26 117 87 27 116 85 21 115 77 4 116 78 5 117 86 22 117 87 27 117 87 27 116 86 26 117 87 27 117 87 27 117 87 27 117 87 27 117 87 27 116 86 26 116 86 26 117 87 27 117 86 22 117 79 6 116 78 5 116 85 21 117 87 27 118 88 28 118 88 28 116 87 27 115 81 10 116 78 5 115 81 10 115 86 26 117 87 27 117 88 28 118 88 28 116 85 21 116 78 5 117 79 4 116 85 21 118 88 28 117 87 27 117 87 27 117 87 27 115 81 10 115 77 4 117 80 10 117 87 27 117 87 27 117 87 27 117 87 27 117 87 27 118 88 28 117 87 27 117 87 27 117 87 27 119 89 29 117 87 27 117 87 27 115 81 10 117 79 4 116 82 10 117 87 27 118 88 28 117 87 27 117 87 27 116 85 21 115 77 4 116 78 5 116 85 21 116 86 26 117 87 27 117 87 27 118 88 28 117 80 9 117 79 6 117 80 10 117 87 27 118 88 28 
117 87 27 117 87 27 117 87 27 116 86 26 117 87 27 118 81 11 116 78 5 117 80 10 118 88 28 117 87 27 116 86 26 117 87 27 117 87 27 117 87 27 116 86 26 117 87 27 117 87 27 117 87 27 117 87 27 117 87 27 115 81 10 116 78 3 115 81 10 118 88 28 117 87 27 118 86 29 117 87 27 116 85 20 115 79 3 118 78 6 117 86 22 117 87 27 117 87 27 117 87 27 117 87 27 117 87 27 117 87 27 117 87 27 117 87 27 117 87 27 117 87 27 117 87 27 116 85 21 114 78 4 116 78 5 116 85 21 117 87 27 117 87 27 116 86 26 117 87 27 117 80 9 116 78 5 118 82 8 118 88 28 117 87 27 118 88 28 117 87 27 116 85 21 116 78 3 116 78 3 116 85 21 116 85 28 117 87 27 117 87 27 117 88 28 116 82 11 115 77 4 116 82 11 118 88 28 117 87 27 117 87 27 118 88 28 117 87 27 118 88 28 117 87 27 117 87 27 117 87 27 117 87 27 117 87 27 117 87 27 114 80 9 115 77 2 115 81 9 117 87 27 118 88 28 118 88 28 117 87 27 117 86 22 117 79 6 116 78 5 116 85 21 117 87 27 117 87 27 117 87 27 117 87 27 115 81 9 117 79 6 118 81 11 117 87 27 116 86 26 
117 87 27 117 87 27 117 87 27 117 87 27 117 87 27 117 80 10 117 79 6 118 81 11 117 87 27 117 87 27 117 87 27 117 87 27 117 87 27 118 88 28 116 86 26 117 87 27 117 87 27 117 87 27 117 87 27 118 87 30 115 81 10 115 77 4 115 81 10 117 87 25 115 86 26 116 87 27 115 86 26 117 83 20 116 78 5 116 78 5 117 86 22 116 87 27 117 87 27 117 87 27 117 87 27 117 87 27 117 87 27 117 87 27 117 87 27 117 87 27 117 87 27 118 88 28 116 85 21 115 79 5 116 78 5 117 86 22 117 87 27 117 87 27 117 87 27 117 87 27 116 79 8 116 78 5 115 81 9 117 87 27 117 87 27 117 87 27 116 86 26 115 84 20 117 79 6 116 78 5 116 85 21 117 87 27 117 87 27 117 87 27 116 87 27 117 83 12 116 78 5 115 81 10 117 87 27 118 88 28 117 87 27 116 86 26 117 87 27 117 87 27 118 88 28 117 87 27 117 87 27 117 87 27 116 86 26 117 87 27 115 81 10 117 79 4 114 80 8 117 87 27 117 87 27 118 88 28 117 87 27 117 86 22 116 78 5 116 78 3 117 86 22 117 87 27 118 88 28 118 88 28 117 87 27 115 81 9 115 77 4 117 80 10 117 87 27 117 87 27 
116 86 26 117 87 27 116 86 26 118 88 28 117 87 27 117 80 10 116 78 5 117 80 10 116 86 26 116 86 26 117 87 27 117 87 27 118 88 28 117 87 27 118 88 28 117 87 27 117 87 27 117 87 27 117 87 27 117 87 27 116 82 11 115 77 4 116 82 11 117 87 27 117 86 29 118 88 28 117 87 25 115 84 19 116 80 6 115 79 3 116 85 20 119 87 28 118 88 28 118 88 28 117 87 27 117 87 27 117 87 27 116 86 26 117 87 27 117 87 27 116 86 26 116 86 26 116 85 21 115 79 5 115 77 4 116 85 21 117 87 27 116 86 26 116 86 26 117 87 27 117 80 9 116 78 5 116 82 10 117 87 27 118 88 28 117 87 27 118 88 28 116 85 21 116 78 7 116 78 5 117 85 24 117 87 27 118 87 30 117 87 27 117 87 27 115 81 10 116 78 5 116 82 11 118 88 28 117 87 27 117 87 27 117 87 27 117 87 27 116 86 26 117 87 27 118 88 28 118 88 28 117 87 27 116 86 26 118 88 28 115 81 10 117 79 4 116 82 10 117 87 27 117 87 27 117 87 27 117 87 27 116 85 21 117 80 2 116 78 3 116 85 21 118 88 28 117 87 27 117 87 27 117 87 27 115 81 10 116 78 5 116 79 9 118 88 28 117 87 27 
118 88 28 118 88 28 117 87 27 117 87 27 116 86 26 116 79 9 116 78 5 117 80 10 117 87 27 117 87 27 117 87 27 117 87 27 117 87 27 117 87 27 117 87 27 118 88 28 116 86 26 117 86 29 116 86 26 117 87 27 115 81 10 115 77 2 116 82 11 117 87 27 116 87 27 117 85 26 117 87 27 115 84 20 119 77 5 115 79 3 116 84 23 117 87 27 117 87 27 117 87 27 117 87 27 116 86 26 117 87 27 117 87 27 118 88 28 117 87 27 117 87 27 117 87 27 117 86 22 115 79 5 116 78 5 115 84 20 117 87 27 117 87 27 118 88 28 117 87 27 117 80 9 116 78 5 117 80 10 117 87 27 117 87 27 117 87 27 117 87 27 117 86 22 117 79 6 117 79 6 117 86 22 117 86 29 117 86 29 116 86 26 117 87 27 114 80 9 116 78 5 115 81 10 118 88 28 116 86 26 117 87 27 117 87 27 117 87 27 117 87 27 117 87 27 117 87 27 117 87 27 116 86 26 118 88 28 117 87 27 116 82 11 116 78 3 115 81 9 118 88 28 117 87 27 117 87 27 117 87 27 115 84 20 116 78 3 117 79 4 116 85 21 117 87 27 117 87 27 118 88 28 117 87 27 115 81 9 115 77 2 117 80 10 117 87 27 117 87 27 
116 86 26 117 87 27 117 87 27 117 87 27 117 87 27 116 79 9 117 79 6 117 80 10 115 85 25 116 86 26 117 87 27 116 86 26 117 87 27 116 86 26 117 87 27 117 87 27 117 87 27 117 87 27 117 87 27 118 88 28 115 81 10 116 78 5 115 81 10 117 87 27 118 86 25 116 87 27 117 87 27 116 85 20 114 78 4 116 78 3 119 85 24 117 87 27 117 87 27 116 86 26 117 87 27 117 87 27 117 87 27 117 87 27 117 87 27 117 87 27 117 87 27 117 87 27 116 85 21 115 79 5 115 77 4 116 85 21 117 87 27 118 88 28 116 86 26 118 88 28 116 79 8 117 79 6 116 79 9 117 87 27 117 87 27 117 87 27 117 87 27 115 84 20 117 79 6 116 78 3 116 85 21 117 87 27 116 86 26 117 87 27 117 87 27 116 82 11 116 78 5 116 82 11 116 86 26 117 87 27 117 87 27 117 87 27 116 86 26 116 86 26 117 87 27 117 87 27 117 87 27 118 88 28 117 87 27 118 88 28 115 81 10 116 78 3 115 81 9 117 87 27 116 86 26 116 86 26 117 87 27 115 84 20 116 78 5 117 79 6 115 84 20 118 88 28 117 87 27 117 87 27 117 87 27 115 81 9 116 78 5 117 80 10 116 86 26 117 87 27 
116 86 26 116 86 26 117 87 27 117 87 27 117 87 27 117 80 10 115 77 4 117 80 10 117 87 27 117 87 27 116 86 26 117 87 27 116 86 26 116 86 26 117 87 27 117 87 27 117 87 27 117 87 27 116 86 26 116 86 26 115 81 10 115 77 4 115 81 10 117 87 27 116 86 26 117 87 27 116 86 26 115 84 19 117 79 4 116 78 5 119 85 24 116 86 26 117 87 27 117 87 27 116 86 26 117 87 27 117 87 27 117 87 27 117 87 27 118 88 28 117 87 27 117 87 27 117 86 22 116 80 6 116 78 5 117 86 22 117 87 27 116 86 26 117 87 27 117 87 27 117 80 9 116 78 3 116 82 11 116 86 26 117 87 27 116 86 26 117 87 27 115 84 20 117 79 4 116 78 3 116 85 21 117 86 29 117 87 27 116 86 26 117 87 27 115 81 10 116 78 5 117 80 10 116 86 26 116 86 26 117 87 27 117 87 27 117 87 27 117 87 27 117 87 27 117 87 27 117 87 27 116 86 26 117 87 27 116 86 26 116 82 11 117 79 4 115 81 9 117 87 27 117 87 27 117 87 27 117 87 27 115 84 20 116 78 5 116 78 5 116 85 21 117 87 27 116 86 26 117 87 27 116 86 26 114 80 9 116 78 5 116 79 9 117 87 27 117 87 27 
117 87 27 117 87 27 116 86 26 118 88 28 117 87 27 117 80 10 116 78 5 117 80 10 116 86 26 117 87 27 117 87 27 116 86 26 116 86 26 117 87 27 117 87 27 116 86 26 116 85 28 116 85 28 117 87 27 117 87 27 115 81 10 116 79 1 115 81 10 117 87 27 117 87 27 118 88 28 115 86 28 117 85 24 115 79 5 118 80 9 116 84 23 117 87 27 117 87 27 118 88 28 117 87 27 116 86 26 116 86 26 117 87 27 118 88 28 117 87 27 117 87 27 117 87 27 116 85 21 114 78 4 116 78 5 116 85 21 117 87 27 117 87 27 118 88 28 117 87 27 117 80 9 116 78 3 115 81 10 118 88 28 117 87 27 116 86 26 117 87 27 116 85 21 116 78 5 117 79 4 117 86 22 116 85 28 117 86 29 117 87 27 117 87 27 114 80 9 116 78 5 117 80 10 117 87 27 116 86 26 117 87 27 117 87 27 116 86 26 117 87 27 117 87 27 118 88 28 117 87 27 117 87 27 117 87 27 116 86 26 115 81 10 115 77 2 115 81 9 117 87 27 118 88 28 116 86 26 116 86 26 115 84 20 116 78 5 116 78 3 116 85 21 116 86 26 117 87 27 115 85 25 117 87 27 115 81 9 116 79 1 117 80 10 116 85 28 116 86 26 
117 87 27 117 87 27 117 87 27 116 86 26 117 87 27 117 80 10 115 77 4 117 80 10 117 87 27 117 87 27 116 86 26 118 88 28 117 87 27 117 87 27 117 87 27 116 86 26 117 87 27 117 87 27 116 86 26 117 87 27 115 81 10 115 77 4 115 81 10 117 87 27 117 86 29 116 85 28 115 86 26 118 86 27 116 85 21 116 86 22 117 87 27 116 85 28 118 88 28 116 86 26 118 88 28 117 87 27 117 87 27 117 87 27 116 86 26 117 87 27 117 87 27 117 87 27 116 85 21 115 79 5 116 78 5 116 85 21 117 87 27 117 87 27 117 87 27 117 87 27 117 80 9 117 80 2 116 79 9 116 86 26 116 86 26 116 86 26 117 87 27 116 85 21 114 76 5 115 77 4 117 86 22 117 87 27 116 86 26 118 88 28 117 87 27 114 80 9 116 78 5 117 80 10 117 87 27 116 86 26 116 86 26 116 86 26 117 87 27 117 87 27 118 88 28 117 87 27 116 86 26 117 87 27 117 87 27 117 87 27 115 81 10 116 78 3 115 81 9 117 87 27 117 87 27 117 87 27 117 87 27 116 85 21 116 79 1 117 79 4 116 85 21 118 88 28 117 87 27 117 87 27 117 87 27 115 81 10 116 78 5 116 79 9 118 88 28 117 87 27 
118 88 28 116 86 26 118 88 28 117 87 27 116 86 26 116 79 9 116 78 5 117 80 10 116 86 26 117 87 27 117 87 27 117 87 27 116 86 26 117 87 27 117 87 27 116 86 26 117 87 27 116 86 26 116 86 26 116 86 26 116 82 11 116 80 6 117 83 12 118 88 28 117 87 27 117 87 27 117 87 27 116 86 26 117 87 27 116 86 26 117 87 27 117 87 27 118 88 28 116 86 26 117 87 27 116 86 26 118 88 28 117 87 27 117 87 27 117 87 27 117 87 27 117 87 27 116 85 21 116 78 5 116 78 5 116 84 23 117 87 27 116 86 26 117 87 27 117 87 27 117 80 10 116 78 5 115 81 10 116 85 28 117 87 27 116 86 26 117 87 27 116 85 21 117 79 4 116 78 5 117 86 22 116 86 26 116 86 26 117 87 27 117 86 29 115 81 10 116 78 5 116 82 11 117 87 27 116 86 26 117 87 27 118 88 28 117 87 27 117 87 27 116 86 26 116 85 28 116 85 28 116 86 26 117 87 27 117 87 27 115 81 10 116 78 5 115 81 10 117 87 27 117 87 27 117 87 27 117 87 27 116 85 21 117 79 6 115 77 4 116 85 21 116 86 26 116 86 26 117 87 27 116 87 27 114 79 11 116 78 5 117 80 10 117 87 27 117 87 27 
118 88 28 116 86 26 116 86 26 116 86 26 117 87 27 117 80 10 115 77 4 117 80 10 116 86 26 116 86 26 117 87 27 117 87 27 116 86 26 117 87 27 116 86 26 117 87 27 117 87 27 116 86 26 117 87 27 116 86 26 115 81 10 115 79 5 116 82 11 117 87 27 116 86 26 117 87 27 116 86 26 117 87 27 117 87 27 117 87 27 116 86 26 116 86 26 117 87 27 117 87 27 117 87 27 117 87 27 118 88 28 117 87 27 117 87 27 118 88 28 116 86 26 117 87 27 116 85 21 116 78 5 116 78 5 117 85 24 117 87 27 117 87 27 117 87 27 117 87 27 116 79 9 117 79 6 116 82 11 117 86 29 118 88 28 118 88 28 116 86 26 115 84 20 117 79 4 117 79 4 116 85 21 117 87 27 118 88 28 117 87 25 116 85 28 116 82 11 115 77 4 115 81 10 116 85 28 117 87 27 116 86 26 117 87 27 117 87 27 117 87 27 117 87 27 117 87 27 117 87 27 117 87 27 117 87 27 117 87 27 114 80 9 116 78 5 115 81 10 117 87 27 118 88 28 118 88 28 117 87 27 116 85 21 116 78 5 116 78 5 116 85 21 116 86 26 117 87 27 117 87 27 117 87 27 115 81 10 115 77 4 116 79 9 117 86 29 117 87 27 
117 87 27 117 87 27 117 87 27 117 87 27 117 87 27 116 79 9 116 78 5 118 81 11 117 87 27 116 86 26 116 86 26 116 86 26 117 87 27 116 86 26 116 86 26 116 86 26 117 87 27 116 85 28 117 87 27 117 87 27 115 81 10 115 79 3 115 81 10 118 88 28 116 86 26 116 86 26 117 87 27 116 86 26 117 87 27 116 86 26 117 87 27 116 86 26 116 86 26 118 88 28 117 87 27 117 87 27 116 86 26 116 86 26 116 86 26 116 86 26 117 87 27 117 87 27 116 85 21 115 77 4 116 78 5 115 83 22 117 87 27 117 87 27 116 85 28 118 88 28 116 79 9 116 78 5 115 81 10 117 86 29 117 87 27 117 86 29 118 88 28 115 84 20 116 78 5 117 79 6 116 84 23 116 86 26 116 85 28 116 86 26 115 84 27 115 81 10 115 77 4 115 80 12 117 86 29 116 86 26 116 86 26 116 85 28 116 86 26 117 86 29 117 87 27 116 85 28 116 85 28 116 86 26 117 86 29 117 87 27 115 81 10 116 78 5 115 81 10 117 87 27 117 87 27 116 86 26 117 87 27 115 84 20 116 78 5 116 78 5 115 84 20 116 86 26 117 87 27 117 87 27 117 87 27 114 80 9 115 79 5 115 81 10 116 85 28 116 86 26 
117 87 27 116 86 26 116 86 26 116 86 26 116 86 26 116 79 9 116 78 5 117 80 10 117 87 27 116 86 26 116 86 26 117 87 27 116 86 26 116 86 26 116 86 26 117 87 27 118 88 28 116 85 28 117 87 27 116 86 26 116 82 11 116 80 6 116 82 11 117 87 27 117 87 27 116 86 26 117 87 27 116 86 26 116 86 26 117 87 27 117 87 27 117 87 27 118 88 28 117 87 27 116 86 26 118 88 28 117 87 27 117 87 27 116 86 26 117 87 27 116 86 26 117 87 27 116 85 21 115 77 4 116 78 5 116 84 23 117 87 27 117 87 27 117 87 27 117 87 27 117 80 9 116 78 5 116 82 11 117 87 27 117 87 27 117 87 27 116 86 26 116 85 21 116 78 3 117 80 2 115 84 20 118 88 28 117 87 27 118 88 28 117 87 27 115 81 10 116 78 5 115 81 10 116 86 26 116 86 26 117 87 27 117 86 29 117 87 27 116 86 26 115 85 25 117 87 27 117 87 27 116 86 26 116 86 26 117 87 27 114 80 9 116 78 5 114 80 9 117 87 27 117 87 27 116 86 26 117 87 27 115 84 20 115 79 5 116 78 5 116 85 21 117 87 27 117 87 27 117 87 27 117 87 27 117 80 10 117 79 6 117 80 10 118 87 30 116 86 26 
117 87 27 117 87 27 115 85 25 117 87 27 117 87 27 116 79 9 116 78 5 117 80 10 117 87 27 117 87 27 117 87 27 116 86 26 117 87 27 116 86 26 116 86 26 117 87 27 116 86 26 116 86 26 116 86 26 117 87 27 114 80 9 114 78 4 115 81 10 116 86 26 116 85 28 117 87 27 116 85 28 117 87 27 116 86 26 116 85 28 116 86 26 116 85 28 116 86 26 117 87 27 117 87 27 116 86 26 116 86 26 116 86 26 116 86 26 117 87 27 117 87 27 116 86 26 116 85 21 116 78 5 116 78 5 117 85 24 116 86 26 117 87 27 117 86 29 116 86 26 117 80 10 116 78 5 115 81 10 116 85 28 116 86 26 116 85 28 117 87 27 115 84 20 116 78 5 116 78 5 116 85 21 116 86 26 116 86 26 116 86 26 116 86 26 115 81 9 116 78 5 115 81 10 115 84 27 117 87 27 117 87 27 116 86 26 117 87 27 117 87 27 116 86 26 117 87 27 117 87 27 117 87 27 117 87 27 117 87 27 114 80 9 116 78 5 114 80 9 118 88 28 117 87 27 117 87 27 116 86 26 116 85 21 115 79 5 116 78 3 115 84 20 116 86 26 117 87 27 117 87 27 117 87 27 117 80 10 116 78 5 117 80 10 117 86 29 115 85 25 
117 87 27 116 86 26 117 87 27 117 87 27 117 87 27 116 79 9 116 78 5 116 79 9 116 86 26 116 86 26 117 87 27 117 87 27 116 86 26 117 87 27 117 87 27 118 88 28 116 86 26 117 87 27 116 86 26 116 86 26 115 81 10 115 79 5 115 81 10 117 87 27 116 86 26 116 86 26 117 87 27 117 87 27 117 87 27 117 87 27 117 87 27 117 87 27 117 87 27 117 87 27 117 87 27 116 86 26 117 87 27 117 87 27 116 86 26 117 87 27 117 87 27 116 86 26 116 85 21 116 78 5 115 77 4 116 84 23 116 86 26 116 86 26 117 87 27 117 87 27 117 80 9 116 78 5 115 81 10 117 87 27 117 87 27 117 87 27 116 86 26 116 85 21 117 79 4 116 78 3 116 85 21 116 86 26 116 86 26 117 87 27 116 86 26 116 82 11 117 79 6 115 81 9 117 87 27 116 86 26 116 86 26 116 86 26 116 86 26 116 85 28 117 87 27 115 84 27 115 84 27 116 86 26 116 85 28 117 87 27 115 81 10 115 77 4 114 80 9 117 87 27 117 87 27 117 87 27 116 86 26 117 86 22 116 78 5 117 79 4 116 85 21 117 87 27 116 86 26 117 87 27 118 88 28 115 81 9 112 78 4 114 81 10 116 87 27 116 86 24 
116 86 26 116 86 26 117 87 27 117 87 27 117 87 27 116 79 9 117 79 6 116 79 9 116 86 26 117 87 27 117 87 27 116 86 26 117 87 27 116 86 26 116 86 26 117 87 27 116 86 26 116 86 26 116 86 26 117 87 27 114 80 9 116 80 6 116 82 11 116 86 26 117 87 27 116 85 28 116 86 26 117 86 29 116 85 28 116 86 26 116 85 28 116 86 26 116 86 26 116 86 26 117 87 27 116 86 26 115 85 25 117 87 27 117 87 27 116 86 26 115 85 25 116 86 26 116 85 21 117 79 6 116 78 5 115 83 22 116 86 26 117 87 27 117 87 27 116 86 26 117 80 9 115 77 4 115 81 10 116 86 26 116 86 26 116 86 26 116 86 26 115 84 20 116 78 5 115 77 4 116 85 21 116 86 26 116 86 26 116 86 26 116 86 26 114 80 9 115 77 4 114 79 11 117 86 29 117 87 27 116 86 24 116 86 26 116 86 26 117 87 27 116 86 26 117 87 27 117 87 27 116 86 26 117 87 27 116 86 26 115 81 10 116 78 5 114 80 9 116 86 26 117 87 27 116 86 26 116 86 26 116 85 21 117 79 6 117 79 4 116 85 21 117 87 27 116 86 26 117 87 27 118 88 28 114 80 8 115 79 3 115 81 10 116 86 26 117 87 25 
116 86 26 117 87 27 116 86 26 117 87 27 117 87 27 118 81 11 116 78 5 117 80 10 116 86 26 117 87 27 116 86 26 116 86 26 117 87 27 115 85 25 117 87 27 115 85 25 116 86 26 116 85 28 116 86 26 116 86 26 114 80 9 116 80 4 114 80 9 115 85 25 117 87 27 117 87 27 116 86 26 117 87 27 117 87 27 117 87 27 116 86 26 117 87 27 117 87 27 117 87 27 116 86 26 116 86 26 117 87 27 117 87 27 116 86 26 116 86 26 116 86 26 116 86 26 115 84 20 115 77 4 116 78 5 115 83 22 116 86 26 116 86 26 117 87 25 117 87 27 117 80 9 116 78 5 115 81 10 118 88 28 116 86 26 117 87 25 117 87 27 115 84 20 115 77 4 116 78 3 114 83 19 116 86 26 117 87 27 117 87 27 116 85 28 115 81 10 117 79 6 115 81 10 116 85 28 116 86 26 116 86 26 116 86 26 116 86 26 116 86 26 117 87 27 116 85 28 116 85 28 117 87 27 116 86 26 116 86 26 115 81 10 116 78 5 114 80 9 117 87 27 117 87 27 116 86 26 118 88 28 116 85 21 116 78 5 117 79 4 116 85 21 117 87 27 117 87 27 117 87 27 115 86 26 115 81 9 116 78 3 116 79 9 116 86 26 116 86 26 
115 86 26 115 86 26 117 86 29 116 85 28 117 87 27 115 81 10 115 79 5 115 81 10 117 87 27 117 87 27 116 86 26 118 88 28 116 85 28 117 87 27 117 87 27 116 85 28 117 87 27 117 87 27 116 86 26 116 87 27 115 81 10 115 79 5 116 82 11 118 88 28 117 87 27 116 87 27 115 86 26 117 87 27 116 86 26 116 87 27 116 85 28 116 85 28 116 86 26 116 86 26 114 88 29 117 87 27 117 86 29 117 87 27 117 87 27 115 86 26 116 86 26 116 86 26 116 85 21 114 78 4 115 79 5 115 83 22 116 85 28 117 86 29 116 86 24 117 87 27 116 79 8 116 78 5 117 80 10 117 87 27 116 85 28 116 86 24 116 86 26 115 84 20 115 77 4 117 77 5 116 85 21 117 87 27 117 87 27 116 87 27 117 87 27 114 79 11 115 77 4 114 79 11 117 87 27 114 85 27 117 87 27 117 87 27 116 86 26 116 86 26 118 88 28 116 86 26 117 87 27 117 87 27 116 86 26 116 86 26 117 80 10 116 78 5 114 80 9 115 86 26 116 86 26 117 87 27 116 86 26 115 84 20 117 79 6 115 77 4 115 84 20 116 86 26 117 87 27 117 87 27 116 86 26 115 81 10 116 78 5 114 80 9 117 87 27 116 86 24 
115 86 26 116 87 27 117 86 29 116 85 28 116 86 26 114 80 9 114 78 4 115 81 10 117 86 29 117 87 27 115 86 28 117 87 27 116 86 26 115 86 26 117 87 27 116 86 26 117 87 27 115 86 28 116 86 26 116 86 26 114 80 9 115 77 4 116 82 11 117 87 27 116 87 27 116 86 26 116 86 26 116 87 27 116 86 26 117 87 27 117 87 27 116 86 26 117 87 27 117 87 27 117 86 29 117 87 27 116 85 28 117 87 27 117 87 27 117 87 27 116 86 26 116 87 27 116 85 21 116 78 5 115 77 4 116 84 23 115 86 28 116 85 28 116 86 26 116 85 28 115 81 9 114 78 4 115 81 10 117 87 27 116 87 27 117 87 27 117 87 27 115 84 20 116 78 5 117 77 5 117 86 22 116 86 26 116 86 26 116 86 26 115 86 26 115 81 10 115 77 4 117 80 10 116 85 28 117 87 27 117 86 29 115 86 26 116 87 27 116 87 27 115 86 26 116 86 26 117 87 27 116 86 26 116 86 26 116 86 26 114 80 9 115 79 5 116 79 9 116 86 26 117 87 27 116 86 26 116 86 26 115 84 20 115 79 5 114 78 4 115 84 20 114 85 27 116 86 26 116 87 27 117 87 27 115 81 10 115 79 5 116 79 9 116 86 24 116 86 26 
115 86 26 116 87 27 116 85 28 116 86 26 116 86 26 114 80 9 115 79 5 115 81 10 115 86 28 115 86 26 117 87 27 116 85 28 116 86 26 116 86 26 115 86 26 115 86 26 116 86 26 116 86 26 116 86 26 117 87 27 113 80 9 115 79 5 117 80 10 117 87 27 116 85 28 116 85 28 116 85 28 117 87 27 116 87 27 117 87 27 117 87 27 115 86 26 115 86 26 115 85 25 116 85 28 117 87 27 116 85 28 116 87 27 116 86 26 116 86 26 116 86 26 115 86 26 116 85 21 116 78 5 115 77 4 115 83 22 116 87 29 116 85 28 115 86 26 115 86 26 116 79 8 117 79 6 117 80 10 116 86 26 115 86 28 115 86 26 117 87 27 115 84 20 115 79 5 116 78 5 116 85 21 116 86 26 116 86 26 116 86 26 116 86 26 114 79 11 116 78 5 115 80 12 117 87 27 116 85 28 117 87 27 116 86 26 118 88 28 117 87 27 117 87 27 116 86 26 117 87 27 117 87 27 115 85 25 116 86 26 115 81 10 116 78 5 114 80 9 117 87 27 116 86 26 116 86 26 117 87 27 115 84 20 116 78 5 115 77 4 115 84 20 117 87 27 116 86 26 116 86 26 116 85 28 113 79 8 116 78 5 114 80 9 116 88 25 115 86 26 
115 86 26 116 87 27 116 86 26 117 87 27 117 87 27 114 80 9 115 79 5 115 81 10 115 87 24 116 85 28 115 86 26 117 88 28 115 86 26 115 86 28 116 85 28 115 86 26 115 86 26 114 85 25 117 87 27 116 86 26 116 79 9 115 77 4 115 80 12 118 86 25 116 87 29 116 86 26 117 87 27 115 86 26 116 86 26 117 87 27 116 86 26 117 87 27 117 87 27 118 88 28 115 84 27 116 87 27 116 85 28 115 86 26 116 86 26 116 86 26 117 87 27 116 86 26 115 84 20 115 79 5 115 79 5 115 83 22 116 85 28 116 85 28 116 86 26 116 86 26 116 79 9 116 78 5 116 79 9 116 86 24 117 87 27 117 87 27 116 86 26 115 84 20 114 78 4 115 79 5 115 84 20 117 87 27 116 86 26 116 86 26 116 86 26 117 80 10 116 78 5 115 81 10 115 86 26 117 87 27 118 86 27 116 86 26 115 86 26 116 87 27 115 86 26 116 87 27 117 88 28 115 86 26 115 86 26 116 86 26 115 81 10 116 78 5 113 80 9 115 86 26 116 86 26 115 85 25 117 87 27 115 84 20 114 78 4 114 78 4 115 84 20 115 86 28 116 87 27 115 86 28 117 87 27 114 80 9 114 78 4 117 80 10 116 86 26 117 87 27 
115 86 26 116 87 27 117 87 27 116 86 26 117 87 27 114 80 9 114 78 4 116 82 11 116 86 26 116 86 26 116 87 27 117 87 27 116 85 28 116 87 27 116 86 26 116 85 28 117 87 27 117 87 27 116 86 26 116 86 26 114 80 9 115 79 5 117 80 12 117 87 27 116 86 26 117 87 27 115 86 26 117 87 27 117 87 27 116 86 26 116 87 27 116 85 28 117 87 27 115 86 26 117 86 29 116 87 27 117 85 28 116 86 26 117 87 27 115 86 26 116 86 26 116 86 26 116 85 21 114 78 4 114 78 4 116 84 23 116 85 28 116 85 28 116 86 26 116 86 26 116 79 8 116 79 8 118 81 11 116 86 26 116 86 26 116 86 26 116 87 27 115 84 20 114 78 4 115 79 5 116 85 21 115 86 26 115 85 25 116 86 26 116 87 27 115 81 10 115 77 4 116 79 9 117 87 27 116 86 26 116 86 26 116 87 27 116 86 26 117 87 27 117 87 27 116 86 26 117 87 27 117 87 27 117 87 27 117 87 27 115 81 10 116 78 5 113 80 9 116 86 26 116 87 27 116 87 27 116 86 26 115 84 20 117 77 5 116 78 5 116 85 21 117 87 27 117 86 29 117 87 27 116 85 28 114 80 9 117 79 6 114 80 9 115 86 26 115 86 26 
115 86 26 116 87 27 117 86 29 116 86 26 117 87 27 115 81 10 115 79 5 115 81 10 114 85 25 115 86 26 116 85 28 117 87 27 117 87 27 117 87 27 115 86 28 116 88 25 115 86 26 114 88 29 115 86 28 115 86 26 115 80 12 114 78 4 114 81 12 116 86 26 117 87 27 116 87 27 116 87 27 116 86 26 116 86 26 115 86 28 116 85 28 117 86 29 116 86 26 116 86 26 116 87 29 115 86 26 116 85 28 115 85 25 116 86 26 115 86 26 116 86 26 114 85 25 114 83 19 116 78 5 116 78 5 114 82 21 115 86 28 117 86 29 116 87 27 116 87 27 114 80 9 115 79 5 115 81 10 116 85 28 116 87 27 115 86 28 116 87 27 115 84 20 115 79 5 114 78 4 116 85 21 115 86 26 116 86 26 116 86 26 117 88 28 114 79 11 116 76 4 115 80 12 115 85 25 116 85 28 117 87 27 116 87 27 115 85 25 117 87 27 116 86 26 116 87 27 115 86 26 115 86 26 115 86 26 115 86 26 115 81 10 115 79 5 113 79 8 115 86 26 115 86 26 117 87 27 115 86 26 115 84 20 115 79 5 116 80 6 116 85 21 115 86 28 117 87 27 115 86 28 117 87 27 115 81 10 115 79 5 116 79 9 116 86 26 116 85 28 
116 87 27 115 86 26 116 85 28 116 85 28 116 86 26 114 80 9 115 79 5 114 80 9 115 86 28 116 86 26 115 86 26 115 86 28 116 87 27 116 87 27 117 87 27 116 87 27 116 86 26 116 85 28 116 85 28 117 87 27 115 80 12 114 78 4 115 80 12 116 85 28 116 86 26 117 87 27 117 87 27 115 86 26 117 87 27 116 86 26 115 86 26 117 87 27 116 86 26 116 86 26 117 86 29 117 87 27 116 85 28 119 87 28 116 86 26 118 88 28 116 86 26 116 87 27 115 84 20 115 77 4 115 77 4 116 84 23 114 85 27 116 85 28 115 86 28 113 87 26 114 80 9 116 80 6 114 81 10 116 87 29 116 87 29 116 86 26 116 87 27 115 84 20 114 78 4 115 79 5 116 85 21 116 87 27 116 86 26 115 86 26 116 86 26 115 81 10 114 78 4 115 81 10 115 86 28 116 87 27 116 85 28 117 87 27 116 86 26 116 86 26 117 87 27 117 87 27 115 85 25 117 87 27 115 85 25 116 86 26 114 80 9 115 79 5 115 81 10 115 86 26 117 87 27 116 86 26 115 86 26 114 84 20 116 78 5 116 78 5 115 84 20 117 87 27 117 87 27 116 86 26 117 87 27 115 81 10 116 78 5 114 80 9 116 85 28 115 86 28 
117 88 28 115 86 26 116 85 28 117 86 29 116 86 26 114 80 9 114 78 4 114 80 9 116 87 27 116 87 27 115 86 26 115 86 26 115 86 26 115 86 28 115 86 26 115 86 28 118 88 28 115 86 28 116 85 28 116 85 28 114 79 11 115 79 3 115 80 12 116 85 28 116 85 28 116 85 28 117 87 27 116 86 26 116 87 27 116 86 26 117 87 27 116 87 27 115 86 26 116 86 26 117 86 29 117 87 27 115 86 28 117 87 27 115 86 26 116 86 26 116 86 26 116 86 26 116 85 21 114 78 4 114 78 4 115 83 22 116 85 28 116 85 28 114 85 25 116 87 27 114 80 9 114 78 4 117 80 10 116 85 28 115 86 26 115 86 26 116 87 27 115 84 20 114 78 4 115 79 5 116 85 21 116 87 27 117 87 27 116 87 27 115 86 26 114 79 11 116 78 5 115 80 12 116 86 26 116 87 29 116 87 27 115 86 26 116 86 26 116 86 26 115 85 25 117 87 27 116 86 26 116 86 26 116 86 26 116 86 26 115 81 10 115 79 5 114 80 9 115 86 26 115 86 26 115 86 26 116 87 27 115 84 20 115 77 4 114 78 4 116 85 21 115 86 28 116 86 26 116 87 27 117 87 27 114 80 9 114 78 4 115 81 10 116 85 28 115 84 27 
116 85 28 117 87 27 117 87 27 115 86 28 117 86 29 114 80 9 115 77 4 115 81 10 115 86 26 116 87 27 114 85 25 115 86 26 115 86 26 116 87 27 116 87 27 116 87 27 116 86 26 117 86 29 116 86 26 116 85 28 115 81 10 115 77 4 114 79 11 116 87 27 116 86 26 117 87 27 115 86 26 116 86 26 117 88 28 116 86 26 116 86 26 115 86 26 117 86 29 117 86 29 116 85 28 116 85 28 116 85 28 115 84 27 116 85 28 116 85 28 116 85 28 115 86 26 116 85 21 115 79 5 115 77 4 114 84 22 114 85 27 116 87 27 116 85 28 117 87 27 116 79 9 116 78 5 117 80 10 116 87 27 118 86 27 115 86 26 116 86 26 115 84 20 114 78 4 115 79 5 115 83 22 115 86 26 116 85 28 116 85 28 116 85 28 115 80 12 116 78 5 115 80 12 116 87 29 115 86 26 115 86 26 116 85 28 116 86 26 116 86 26 116 87 27 115 86 26 115 86 26 116 87 27 116 86 26 116 86 26 116 79 11 115 79 5 114 80 9 116 85 28 115 86 26 116 85 28 116 86 26 115 84 20 114 78 4 116 78 5 115 84 20 116 86 26 117 87 27 116 85 28 116 85 28 114 80 9 116 78 5 115 81 10 116 85 28 116 85 28 
116 85 28 116 86 26 117 87 27 115 86 28 116 85 28 114 80 9 116 78 5 114 80 9 117 87 27 117 87 27 116 86 26 116 86 26 116 86 26 117 87 27 116 86 26 116 86 26 115 86 28 116 87 27 115 86 28 115 86 26 114 80 9 115 79 5 115 81 10 115 86 26 115 86 26 116 86 26 115 86 26 115 86 26 116 86 26 114 85 25 115 86 26 118 88 28 117 86 29 117 86 29 116 85 28 118 87 30 116 85 28 115 84 27 116 85 28 116 85 28 117 87 27 115 86 26 115 84 20 115 79 5 116 78 5 115 85 23 116 87 29 116 87 27 116 85 28 115 86 26 116 79 9 115 77 4 116 79 9 116 87 27 116 86 26 115 86 26 116 87 29 115 84 20 114 77 6 116 78 5 115 83 22 116 86 26 117 87 27 116 86 26 115 84 27 114 79 11 117 79 6 115 80 12 115 86 28 116 86 26 116 86 26 116 85 28 117 87 27 117 87 27 116 86 26 116 86 26 116 86 26 116 86 26 116 86 26 116 86 26 114 80 9 115 79 5 114 80 6 117 86 29 116 85 28 117 87 27 117 87 27 115 84 20 114 78 4 116 78 5 115 84 20 116 86 26 116 86 26 116 85 28 116 85 28 114 80 9 115 77 4 114 80 9 116 85 28 117 86 29 
116 85 28 116 86 26 116 86 26 115 86 28 116 85 28 114 80 9 115 77 4 114 80 9 116 86 26 117 87 27 116 86 26 116 86 26 116 86 26 116 86 26 116 86 26 116 86 26 115 86 28 115 86 26 115 86 30 115 86 28 114 80 9 114 78 4 115 81 10 115 86 26 116 86 26 116 85 28 116 87 29 117 87 27 115 86 26 116 85 28 116 85 28 115 86 26 116 85 28 116 85 28 116 85 28 116 85 28 117 86 29 117 86 29 116 85 28 116 85 28 116 86 26 115 86 26 116 85 21 114 78 4 116 78 5 114 84 22 116 87 27 115 86 28 116 85 28 115 86 26 116 79 9 115 77 4 115 81 10 114 88 27 117 87 27 115 86 26 116 86 26 115 84 20 114 78 4 115 79 5 116 84 23 115 86 26 116 85 28 116 85 28 115 86 28 115 80 12 114 78 4 115 80 12 116 85 28 116 86 26 116 86 26 116 84 27 115 86 26 113 84 24 115 86 26 115 86 26 115 86 26 115 86 26 115 86 26 115 86 26 116 79 9 115 79 5 114 80 9 116 85 28 115 86 26 116 85 28 116 86 26 115 84 20 114 78 4 115 77 4 115 84 20 117 87 27 116 86 26 116 85 28 117 86 29 115 81 10 115 77 4 115 78 8 116 85 28 116 85 28 
116 85 28 117 87 27 116 86 26 115 86 28 116 85 28 115 81 10 116 78 5 114 80 9 116 86 26 116 86 26 116 86 26 116 86 26 116 86 26 116 86 26 116 86 26 116 86 26 117 86 29 117 86 29 116 85 28 115 84 27 115 81 10 116 78 5 115 80 12 116 87 27 115 86 26 115 86 28 116 85 28 117 87 27 115 86 26 116 87 29 116 85 28 116 86 26 115 86 28 115 86 28 115 86 28 115 86 28 115 86 28 115 86 28 116 87 29 115 86 28 117 87 27 115 86 28 115 84 20 115 79 5 114 76 3 115 85 23 115 86 26 116 85 28 116 85 28 116 86 26 114 80 9 115 77 4 114 80 9 115 86 26 116 86 26 115 86 26 114 85 27 115 84 20 114 78 4 115 77 4 115 83 22 116 85 28 116 86 26 116 86 26 116 85 28 115 80 12 116 78 5 115 80 12 113 87 28 115 86 26 116 86 26 116 87 29 116 87 27 116 86 26 116 86 26 117 87 27 116 86 26 116 86 26 116 86 26 115 86 26 113 78 10 114 78 4 114 80 9 116 85 28 117 87 27 116 85 28 116 86 26 115 84 20 115 79 5 116 78 5 115 84 20 115 85 25 116 86 26 116 85 28 116 85 28 114 80 9 115 79 5 117 78 9 115 86 28 116 85 28 
115 84 27 116 86 26 117 87 27 115 86 28 115 84 27 115 81 10 115 77 4 114 80 9 115 86 28 115 86 28 115 86 28 115 86 28 115 86 28 115 86 28 115 86 28 115 86 28 116 85 28 116 86 26 116 85 28 116 85 28 114 80 9 115 77 4 115 80 12 115 86 26 117 87 27 116 85 28 115 86 28 116 87 27 116 86 26 116 85 28 115 86 28 116 87 27 117 86 29 117 86 29 116 85 28 116 85 28 116 85 28 117 86 29 115 84 27 117 86 29 117 87 27 115 86 28 116 85 21 114 78 4 114 76 3 114 84 22 116 86 26 116 85 28 116 85 28 116 86 26 116 79 9 116 78 5 114 80 9 116 87 27 116 86 26 117 88 28 115 87 24 115 84 20 115 79 5 116 78 5 116 84 23 116 85 28 116 85 28 116 85 28 116 85 28 114 79 11 115 77 4 115 80 12 116 85 28 116 86 26 113 87 26 116 85 28 115 86 28 115 86 28 115 86 28 116 85 28 116 85 28 115 86 28 115 86 28 116 87 29 114 80 9 114 78 4 114 80 8 116 85 28 116 85 28 117 87 27 117 87 27 115 84 20 114 78 4 116 78 5 116 85 21 117 87 27 117 87 27 116 85 28 116 85 28 114 80 9 115 77 4 116 79 9 116 85 28 116 85 28 
116 85 28 116 86 26 116 86 26 115 86 28 117 86 29 114 80 9 115 77 4 114 80 9 115 86 28 116 87 29 115 86 28 115 86 28 115 86 28 115 86 28 114 85 27 115 86 28 115 86 26 115 86 26 115 86 26 114 85 27 114 80 9 114 78 4 114 80 9 116 87 27 115 86 26 116 85 28 116 85 28 116 86 26 114 85 25 116 85 28 114 85 27 116 86 26 116 85 28 116 85 28 116 85 28 116 85 28 116 85 28 116 85 28 117 86 29 116 85 28 116 86 26 115 86 26 115 84 20 113 77 3 114 76 3 114 84 22 117 87 27 116 85 28 116 85 28 116 86 26 114 80 9 115 77 4 114 80 9 115 86 26 115 86 26 115 86 26 115 84 27 114 82 21 114 78 4 113 77 3 115 84 20 115 86 28 117 87 27 116 86 26 117 85 28 115 80 12 115 77 4 115 80 12 113 87 28 116 86 26 116 86 26 116 85 28 115 84 27 116 85 28 116 85 28 116 85 28 117 86 29 116 85 28 116 85 28 116 85 28 116 79 9 114 78 4 114 80 9 116 85 28 115 86 26 116 85 28 116 86 26 115 84 20 114 78 4 116 78 5 115 84 20 116 86 26 116 86 26 116 85 28 115 84 27 115 81 10 113 77 3 116 79 9 115 86 28 116 85 28 
115 84 27 116 86 26 116 86 26 114 85 27 116 85 28 113 79 8 115 77 4 114 80 9 115 86 28 115 86 28 115 86 28 115 86 28 115 86 28 115 86 28 114 85 27 115 86 28 115 86 28 115 86 28 116 87 27 116 87 29 115 81 10 114 78 4 114 79 11 116 87 27 116 85 28 115 86 28 115 86 28 116 85 28 115 86 28 116 85 28 115 86 28 115 86 28 113 84 26 115 86 28 115 86 28 115 86 28 115 86 28 115 86 28 115 86 28 115 86 28 115 86 26 115 86 26 115 84 20 115 79 5 116 78 5 116 84 23 116 85 28 116 86 26 115 86 28 116 86 26 114 80 9 115 77 4 115 81 10 115 86 26 116 87 27 115 86 26 115 86 26 115 84 20 114 77 6 115 77 4 116 85 21 116 85 28 116 86 26 115 84 27 115 86 28 114 79 11 114 78 4 113 78 10 116 85 28 116 86 26 116 86 26 117 86 29 114 85 27 115 86 28 114 85 27 115 86 28 114 85 27 114 85 27 115 86 28 114 85 27 113 78 10 114 78 4 115 81 10 115 84 27 116 86 26 116 85 28 116 86 26 115 84 20 113 77 3 115 77 4 115 84 20 116 86 26 115 85 25 116 85 28 116 85 28 115 81 10 115 77 4 114 80 9 116 85 28 115 86 28 
116 85 28 116 86 26 116 86 26 115 86 28 116 85 28 114 80 9 116 78 5 114 80 9 115 84 27 116 85 28 116 85 28 117 86 29 116 85 28 116 85 28 116 85 28 117 86 29 116 85 28 115 84 27 116 85 30 116 85 28 114 79 11 116 78 5 115 80 12 113 84 24 115 86 28 116 85 28 115 86 28 117 86 29 115 86 28 116 84 27 115 86 28 116 85 28 116 85 28 117 86 29 116 85 28 116 85 28 116 85 28 115 84 27 116 85 28 115 84 27 115 86 28 115 86 26 116 85 21 114 78 4 115 77 4 115 83 22 116 84 27 116 86 26 115 86 28 116 86 26 113 79 8 115 77 4 114 80 9 117 87 27 115 86 26 114 85 25 115 85 25 114 83 19 114 78 4 114 78 4 115 84 20 115 86 28 117 86 29 116 85 28 116 85 28 114 79 11 115 77 4 115 80 12 116 87 29 115 86 26 115 86 26 116 85 28 116 85 28 116 85 28 115 86 28 115 86 28 115 86 28 115 86 28 116 85 28 116 85 28 116 79 8 114 78 4 115 81 10 116 85 28 115 86 26 116 86 26 116 86 26 115 84 20 114 78 4 115 77 4 115 84 20 116 86 26 116 86 26 116 85 28 115 84 27 113 79 8 115 77 4 114 80 9 116 85 28 115 86 28 
116 86 26 117 86 29 114 85 27 115 84 27 116 87 29 116 79 9 114 78 4 115 81 10 116 85 28 116 85 28 116 85 28 115 84 27 116 85 28 115 84 27 116 85 28 115 84 27 114 85 27 117 86 29 116 85 28 115 85 25 114 80 9 116 78 5 115 80 12 116 85 28 117 87 27 116 85 28 116 85 28 117 86 29 116 85 28 115 84 27 116 85 28 116 86 26 116 85 28 115 84 27 117 86 29 116 85 28 117 86 29 117 86 29 116 85 28 116 85 28 116 85 28 116 86 26 114 84 20 114 78 4 114 78 4 114 84 22 116 86 26 116 86 26 117 86 29 115 86 28 114 80 9 115 77 4 114 80 9 115 86 28 117 86 29 115 84 27 116 85 28 115 84 20 116 78 5 115 77 4 115 83 22 116 86 26 116 85 28 114 85 25 116 86 26 114 79 11 114 78 4 114 79 11 116 85 28 115 86 28 115 86 28 115 86 26 116 85 28 116 85 28 116 85 28 116 85 28 117 86 29 115 84 27 116 85 28 116 86 26 116 79 11 116 76 4 114 80 9 116 85 28 116 85 28 116 85 28 116 85 28 115 83 22 116 78 5 115 77 4 114 83 19 115 84 27 116 86 26 115 85 25 116 86 26 114 80 9 115 79 5 115 81 10 115 85 25 115 85 25 
116 87 27 115 86 28 115 86 28 115 86 28 116 85 28 114 80 9 115 77 4 116 79 9 116 86 26 117 87 27 116 86 26 115 85 25 117 87 27 116 86 26 115 85 25 117 87 27 115 86 28 116 85 28 116 86 26 116 85 28 114 79 11 116 78 5 115 80 12 116 85 28 116 85 28 115 84 27 114 85 27 115 85 25 116 86 26 115 86 28 115 84 27 116 85 28 116 85 28 115 84 27 116 85 28 116 85 28 115 84 27 116 85 28 116 85 28 116 85 28 116 85 28 115 86 28 115 84 20 115 79 5 114 78 4 115 83 22 114 85 25 116 86 26 116 86 26 115 86 28 114 80 9 115 79 5 113 78 10 116 85 28 117 86 29 115 86 28 116 85 28 115 84 20 116 78 5 114 78 4 115 83 22 115 85 25 116 85 28 116 86 26 115 86 28 114 79 11 115 79 5 115 80 12 115 84 27 114 85 25 115 86 28 117 86 29 116 85 28 116 86 26 115 84 27 116 85 28 116 86 26 116 85 28 115 86 28 116 86 26 113 78 10 114 78 4 113 79 8 116 85 28 116 85 28 115 84 27 115 86 28 114 84 22 116 78 5 115 77 4 115 84 20 115 85 25 116 86 24 116 86 26 116 86 26 114 80 9 114 78 4 115 81 10 116 86 26 114 85 27 
116 86 26 114 85 27 116 85 28 115 86 28 116 85 28 114 80 9 116 78 5 115 81 10 116 85 28 116 85 28 115 84 27 115 84 27 116 85 28 116 85 28 115 84 27 115 84 27 115 86 28 115 84 27 116 86 26 116 85 28 113 78 10 114 78 4 114 79 11 116 85 28 116 85 28 116 87 29 117 87 27 117 87 27 117 87 27 115 85 25 114 85 27 116 85 28 115 86 28 114 85 27 115 86 28 115 86 28 114 85 27 115 86 28 115 86 28 116 87 29 116 85 28 115 86 28 115 84 20 113 77 3 113 77 3 115 83 22 116 87 27 115 85 25 116 85 28 115 86 28 116 79 9 115 79 5 113 79 8 117 86 29 116 85 28 115 84 27 117 85 28 114 83 19 114 78 4 113 77 3 115 83 22 115 86 26 116 85 28 115 85 25 116 85 28 114 79 11 114 78 4 116 79 11 116 87 29 115 86 26 116 85 28 114 85 27 117 86 29 115 86 28 116 85 28 116 85 28 115 86 28 115 84 27 116 85 30 115 84 27 114 80 9 115 79 5 114 80 9 115 86 28 113 87 28 115 84 27 114 85 27 115 83 22 115 77 4 115 77 4 116 85 21 115 86 28 115 86 28 116 86 26 116 85 28 114 80 9 113 77 3 117 80 12 116 86 26 116 85 28 
117 87 27 115 86 26 115 86 28 115 86 28 117 86 29 115 81 10 115 77 6 114 80 9 117 86 29 116 85 28 115 84 27 115 84 27 115 84 27 116 85 28 116 85 28 115 84 27 115 86 28 116 85 28 115 84 27 116 86 26 114 80 9 113 77 3 115 80 12 115 84 27 116 86 26 114 83 26 115 84 27 115 84 27 115 84 27 116 85 28 115 84 27 115 85 25 115 86 28 115 86 28 115 86 28 115 86 28 115 86 28 114 85 27 114 85 27 115 86 28 117 86 29 115 84 27 113 83 19 114 78 4 114 78 4 114 84 22 115 84 27 116 86 26 116 86 26 115 86 28 115 78 8 114 78 4 113 78 10 116 85 28 115 86 28 116 85 28 116 85 28 115 84 20 116 80 6 114 78 4 115 83 22 115 86 26 117 86 29 117 87 27 115 86 26 114 79 11 115 79 5 115 80 12 115 84 27 115 86 28 115 86 28 116 86 26 114 85 27 116 86 26 115 84 27 115 86 26 116 85 28 117 85 28 115 86 28 117 86 29 114 79 11 116 78 5 113 79 8 115 86 26 114 85 27 116 85 28 116 85 28 114 83 19 114 76 3 113 77 3 115 84 20 116 86 26 115 86 28 116 86 26 116 85 30 114 80 9 114 78 4 115 81 10 115 86 28 115 86 28 
