P3
100 50
255
24 4 16 18 2 13 17 4 13 16 3 12 16 3 12 16 3 13 15 2 11 15 2 11 16 3 12 15 2 11 15 2 11 23 3 15 23 3 15 21 3 15 16 3 12 18 2 12 16 3 12 15 2 11 16 3 12 17 1 11 16 3 12 16 3 12 16 3 12 19 2 12 24 4 16 24 4 16 20 3 13 18 2 13 17 1 11 17 1 11 18 2 13 17 1 12 15 2 11 16 3 12 16 3 12 15 2 11 23 3 15 23 3 15 21 3 15 17 1 12 15 2 11 16 3 12 16 3 12 15 2 11 16 3 12 15 2 11 15 2 11 15 2 11 19 3 13 24 4 16 23 3 15 18 2 12 15 2 12 15 2 11 16 3 12 16 3 12 17 4 13 16 3 12 16 3 12 18 2 12 19 3 13 23 3 15 24 4 16 21 3 15 15 2 11 16 3 12 15 2 11 17 1 11 15 2 11 17 1 11 15 2 11 16 3 12 17 1 11 19 3 13 23 3 15 24 4 16 19 3 14 17 1 11 16 3 12 18 2 12 16 3 12 17 1 11 17 1 11 18 2 12 16 3 12 15 2 11 23 3 15 23 3 15 21 3 15 16 3 13 18 2 12 16 3 12 16 3 12 15 2 11 17 1 11 16 3 12 16 3 12 15 2 11 15 2 11 15 2 11 
26 6 18 18 2 13 16 3 12 16 3 12 15 2 11 15 2 12 16 3 12 16 3 12 18 2 12 16 3 12 16 3 12 23 3 15 24 4 16 23 3 15 16 3 12 15 2 11 15 2 11 16 3 12 16 3 12 16 3 12 15 2 11 15 2 11 18 2 12 19 3 14 22 4 16 24 4 16 20 4 14 15 2 12 15 2 11 14 1 10 17 1 12 16 3 13 16 3 12 15 2 11 16 3 12 16 3 12 22 2 14 23 3 15 21 3 15 17 1 12 15 2 11 16 3 12 16 3 12 15 2 11 15 2 11 16 3 12 15 2 11 15 2 11 19 3 13 23 3 15 23 3 15 19 3 13 16 3 13 16 3 12 16 3 12 15 2 11 16 3 12 16 3 12 16 3 12 18 2 12 17 1 11 23 3 15 24 4 16 20 2 14 16 3 12 15 2 11 15 2 11 18 1 11 16 3 12 17 1 11 15 2 11 15 2 11 18 2 12 19 3 13 23 3 15 23 3 15 18 2 13 17 1 11 15 2 11 18 2 12 15 2 11 17 1 11 17 1 11 18 2 12 17 4 13 15 2 11 23 3 15 24 4 16 20 2 14 16 3 13 17 1 11 18 2 12 15 2 11 18 2 12 17 1 11 15 2 11 15 2 11 16 3 12 16 3 12 15 2 11 
24 4 16 18 2 13 16 3 12 17 1 11 16 3 12 16 3 12 16 3 12 15 2 11 15 2 11 16 3 12 15 2 11 21 3 15 24 4 16 21 3 15 15 2 11 16 3 12 15 2 11 16 3 12 16 3 12 16 3 12 16 3 12 15 2 11 15 2 11 17 1 11 24 4 16 24 4 16 18 2 13 16 3 12 18 2 12 14 1 10 15 2 11 16 3 12 16 3 12 15 2 11 15 2 11 15 2 11 21 3 15 24 4 16 21 3 15 15 2 11 14 1 10 16 3 13 16 3 12 15 2 11 16 3 12 17 4 13 15 2 12 17 4 13 19 3 13 23 3 15 24 4 16 19 3 14 15 2 11 16 3 12 16 3 12 15 2 11 15 2 11 15 2 11 16 3 12 15 2 11 16 3 12 23 3 15 24 4 16 21 3 15 16 3 12 16 3 12 15 2 11 16 3 12 16 3 12 16 3 12 16 3 12 15 2 11 16 3 12 19 3 14 24 4 16 24 4 16 18 2 13 15 2 11 15 2 11 15 2 11 16 3 12 16 3 12 18 2 12 16 3 12 15 2 11 16 3 13 22 4 16 23 3 15 20 2 14 15 2 11 18 2 12 15 2 11 17 1 11 17 1 11 17 4 14 18 2 12 16 3 12 15 2 11 16 3 12 15 2 11 
24 4 16 18 2 13 15 2 11 18 2 12 16 3 12 16 3 12 17 4 13 15 2 11 15 2 11 16 3 12 15 2 11 21 3 15 23 3 15 21 3 15 16 3 12 15 2 11 16 3 12 16 3 12 15 2 11 15 2 11 15 2 11 15 2 11 16 3 12 18 2 12 24 4 16 24 4 16 18 2 13 15 2 11 17 1 11 16 3 12 16 3 12 14 1 10 16 3 12 15 2 11 15 2 11 15 2 11 21 3 15 24 4 16 21 3 15 15 2 11 16 3 12 16 3 12 16 3 12 15 2 11 15 2 11 17 4 13 15 2 11 16 3 12 18 2 12 23 3 15 24 4 16 18 2 13 15 2 11 16 3 12 16 3 12 16 3 13 16 3 12 16 3 12 15 2 11 15 2 11 15 2 11 23 3 15 23 3 15 21 3 15 16 3 12 17 4 13 14 1 10 15 2 11 15 2 11 16 3 12 17 4 13 16 3 12 15 2 11 19 3 14 23 3 15 24 4 16 18 2 13 16 3 12 15 2 11 15 2 11 15 2 11 16 3 12 17 1 11 15 2 11 16 3 12 16 3 12 21 3 15 24 4 16 21 3 15 16 3 13 18 2 12 16 3 12 17 1 11 17 1 11 16 3 12 18 1 11 15 2 11 15 2 11 16 3 12 16 3 12 
23 3 15 19 3 14 15 2 11 17 1 11 16 3 12 17 4 13 15 2 11 16 3 12 16 3 12 16 3 12 15 2 11 21 3 15 23 3 15 21 3 15 15 2 11 16 3 12 15 2 11 16 3 12 15 2 11 17 4 13 16 3 12 17 4 13 15 2 11 18 2 12 23 3 15 23 3 15 18 2 13 15 2 11 19 3 13 16 3 12 15 2 11 16 3 12 16 3 12 15 2 11 15 2 11 16 3 12 21 3 15 24 4 16 21 3 15 15 2 11 15 2 11 16 3 12 16 3 13 15 2 11 15 2 11 16 3 13 16 3 12 16 3 12 18 2 12 24 3 18 24 3 18 19 3 13 15 2 11 16 3 12 15 2 11 15 2 12 15 2 11 16 3 12 16 3 12 15 2 11 15 2 11 23 3 15 23 3 15 21 3 15 16 3 12 16 3 12 16 3 12 16 3 12 16 3 12 15 2 11 15 2 11 14 1 10 16 3 12 19 3 14 24 4 16 25 5 17 18 2 13 15 2 11 15 2 11 16 3 12 16 3 12 15 2 11 17 1 11 16 3 12 15 2 11 15 2 11 21 3 15 24 4 16 21 3 15 15 2 11 17 1 11 16 3 12 18 2 12 15 2 12 15 2 12 18 2 12 17 4 13 16 3 12 15 2 11 15 2 11 
23 3 15 18 2 13 15 2 11 18 2 12 15 2 11 16 3 12 16 3 12 15 2 11 16 3 12 16 3 12 15 2 11 21 3 15 23 3 15 21 3 15 16 3 12 15 2 11 16 3 12 16 3 12 15 2 11 15 2 11 15 2 11 15 2 11 16 3 12 19 3 13 24 4 16 23 3 15 19 3 14 15 2 11 18 2 12 15 2 11 16 3 12 15 2 11 15 2 11 15 2 11 15 2 11 16 3 12 21 3 15 24 4 16 21 3 15 15 2 11 16 3 12 15 2 11 15 2 12 16 3 12 16 3 12 15 2 12 17 4 13 16 3 12 18 2 12 24 4 16 23 3 15 18 2 13 16 3 13 15 2 11 15 2 11 16 3 13 15 2 11 15 2 11 16 3 12 15 2 11 16 3 12 23 3 15 24 4 16 21 3 15 15 2 11 15 2 11 15 2 11 15 2 11 15 2 11 16 3 12 16 3 12 16 3 12 16 3 12 19 3 14 24 4 16 23 3 15 19 3 14 16 3 12 15 2 11 15 2 11 16 3 12 16 3 12 15 2 12 16 3 13 16 3 12 16 2 15 21 3 15 23 3 15 20 2 14 16 3 12 16 3 12 15 2 12 18 3 10 15 2 11 16 3 12 17 1 11 16 3 12 15 2 11 15 2 11 15 2 11 
23 3 15 18 2 13 15 2 11 18 2 12 16 3 12 16 3 12 16 3 12 14 1 10 16 3 12 16 3 12 16 3 12 21 3 15 23 3 15 21 3 15 15 2 11 16 3 12 15 2 11 16 3 12 15 2 11 15 2 11 16 3 12 15 2 11 15 2 11 18 2 12 23 3 15 24 4 16 19 3 14 15 2 11 18 2 12 15 2 11 15 2 11 16 3 12 15 2 11 15 2 11 15 2 11 16 3 12 21 3 15 24 4 16 21 3 15 15 2 11 15 2 11 16 3 12 15 2 11 16 3 12 15 2 11 17 4 13 15 2 11 17 4 13 18 2 12 24 4 16 23 3 15 19 3 14 16 3 12 15 2 12 15 2 11 15 2 11 15 2 11 15 2 11 16 3 12 15 2 11 16 3 12 23 3 15 24 4 16 21 3 15 16 3 12 15 2 11 14 1 10 16 3 12 15 2 11 15 2 11 16 3 12 16 3 12 15 2 11 19 3 14 25 5 17 24 4 16 19 3 14 16 3 12 15 2 11 16 3 12 15 2 11 16 3 12 15 2 11 15 2 11 14 1 10 16 3 12 21 3 15 24 4 16 23 3 15 15 2 11 16 3 12 16 3 10 17 1 12 15 2 11 15 2 11 15 2 11 16 3 12 15 2 11 16 3 12 17 4 13 
24 4 16 18 2 13 16 3 12 18 2 12 15 2 11 15 2 11 16 3 12 16 3 12 16 3 12 16 3 12 15 2 11 21 3 15 24 4 16 21 3 15 15 2 11 15 2 11 16 3 12 15 2 11 15 2 11 16 3 12 15 2 11 16 3 12 15 2 11 18 2 12 23 3 15 24 4 16 19 3 14 15 2 11 17 1 11 15 2 11 16 3 12 17 4 13 16 3 12 15 2 11 15 2 11 16 3 12 21 3 15 24 4 16 21 3 15 15 2 11 15 2 11 15 2 11 16 3 12 15 2 11 15 2 11 16 3 12 15 2 11 16 3 12 18 2 13 23 3 15 23 3 15 18 2 13 16 3 13 16 3 12 16 3 12 16 3 12 15 2 11 16 3 12 16 3 12 15 2 11 15 2 11 23 3 15 23 3 15 21 3 15 15 2 11 15 2 11 16 3 12 15 2 11 15 2 11 15 2 11 16 3 12 15 2 11 16 3 12 18 2 13 22 2 14 23 3 15 18 2 13 16 3 12 15 2 11 15 2 11 18 2 12 16 3 12 15 2 11 16 3 12 16 3 12 16 3 12 21 3 15 24 4 16 20 2 14 16 3 12 16 3 12 15 2 12 18 2 12 17 1 11 18 2 12 15 2 11 16 3 12 15 2 11 16 3 12 15 2 11 
23 3 15 18 2 13 15 2 11 18 2 12 16 3 12 15 2 11 16 3 12 15 2 11 16 3 12 15 2 11 16 3 12 21 3 15 23 3 15 21 3 15 16 3 12 15 2 11 15 2 11 15 2 11 14 1 10 15 2 11 15 2 11 15 2 11 15 2 11 18 2 12 23 3 15 23 3 15 19 3 14 16 3 12 18 2 12 15 2 11 15 2 11 15 2 11 16 3 12 15 2 11 15 2 11 15 2 11 21 3 15 24 4 16 21 3 15 15 2 11 15 2 11 16 3 12 15 2 11 16 3 12 15 2 11 16 3 12 15 2 11 15 2 11 18 2 12 23 3 15 24 4 15 19 3 14 16 3 12 16 3 13 15 2 11 16 3 12 16 3 12 16 3 12 15 2 11 15 2 11 15 2 11 23 3 15 23 3 15 21 3 15 16 3 12 15 2 11 15 2 11 15 2 11 15 2 11 16 3 12 16 3 12 16 3 12 15 2 11 19 3 14 24 4 16 24 4 16 18 2 13 16 3 12 15 2 11 15 2 11 18 2 12 15 2 11 15 2 12 16 3 13 15 2 11 15 1 14 21 3 15 23 3 15 20 2 14 19 3 13 15 2 11 15 2 11 17 1 12 16 3 12 17 1 11 15 4 12 15 2 11 16 3 12 15 2 11 16 3 12 
23 3 15 18 2 13 15 2 11 17 1 11 15 2 11 15 2 11 15 2 11 16 3 12 16 3 12 15 2 11 16 3 12 21 3 15 23 3 15 21 3 15 16 3 12 15 2 11 15 2 11 15 2 11 15 2 11 16 3 12 16 3 12 16 3 12 15 2 11 19 3 13 24 4 16 24 4 16 19 3 14 15 2 11 17 1 11 16 3 12 15 2 11 15 2 11 16 3 12 15 2 11 15 2 11 15 2 11 21 3 15 24 4 16 21 3 15 15 2 11 14 1 10 15 2 11 15 2 11 16 3 12 16 3 12 15 2 11 16 3 12 16 3 12 19 3 13 24 4 16 24 4 16 19 3 14 16 3 13 15 2 11 15 2 9 16 3 12 15 2 11 15 2 11 16 3 12 15 2 11 16 3 12 23 3 15 24 4 16 21 3 15 16 3 12 16 3 12 16 3 12 15 2 11 16 3 12 15 2 11 15 2 11 15 2 11 16 3 12 18 2 13 23 3 15 24 4 16 18 2 13 16 3 12 16 3 12 16 3 12 17 1 11 16 3 12 15 2 11 14 1 10 15 2 11 16 3 12 21 3 15 23 3 15 21 3 15 17 1 11 15 2 11 15 2 12 18 2 12 15 2 11 18 2 12 16 3 12 15 2 11 15 2 11 15 2 11 15 2 11 
23 3 15 18 2 12 16 3 12 16 3 12 15 2 11 17 4 13 15 2 11 16 3 12 15 2 11 15 2 11 15 2 11 21 3 15 24 4 16 21 3 15 14 1 11 16 3 12 16 3 12 15 2 11 15 2 11 16 3 12 16 3 12 15 2 11 16 3 12 19 3 13 24 4 16 24 4 16 19 3 13 15 2 11 16 3 12 16 3 12 16 3 13 16 3 12 15 2 11 15 2 11 15 2 11 15 2 11 21 3 15 24 4 16 21 3 15 15 2 11 15 2 11 15 2 11 15 2 11 16 3 12 16 3 12 15 2 11 15 2 11 15 2 11 18 2 12 23 3 15 23 3 15 18 2 13 15 2 11 16 3 12 16 3 12 16 3 12 15 2 11 15 2 11 17 4 13 16 3 12 15 2 11 21 3 15 23 3 15 20 2 14 15 2 11 15 2 11 15 2 11 15 2 11 16 3 12 15 2 11 16 3 12 15 2 11 15 2 11 18 2 12 23 3 15 23 3 15 18 2 13 15 2 11 15 2 11 15 2 11 15 2 11 15 2 12 16 3 12 16 3 12 15 2 11 16 3 12 20 2 14 23 3 15 21 3 15 18 2 12 18 2 12 15 2 11 19 3 13 16 3 12 15 2 11 15 2 11 15 2 11 15 2 12 15 2 12 16 3 13 
23 3 15 18 2 13 15 2 11 15 2 11 15 2 12 15 2 11 15 2 11 16 3 12 18 2 12 16 3 12 18 2 12 21 3 15 23 3 15 21 3 15 15 2 12 15 2 11 17 4 13 15 2 11 16 3 12 16 3 12 16 3 12 15 2 11 17 4 13 17 1 11 23 3 15 23 3 15 19 3 13 15 2 11 15 2 11 16 3 12 15 2 12 16 3 12 15 2 11 16 3 12 14 1 10 16 3 12 21 3 15 23 3 15 21 3 15 15 2 11 15 2 11 15 2 11 15 2 11 15 2 11 15 2 11 15 2 11 16 3 12 15 2 11 18 2 12 24 2 15 23 3 15 18 2 13 15 2 11 15 2 11 15 2 11 17 1 11 15 2 11 15 2 11 16 3 12 16 3 12 15 2 11 21 3 15 23 3 15 21 3 15 15 2 11 16 3 12 15 2 11 15 2 11 15 2 11 16 3 12 15 2 11 17 4 13 15 2 11 19 3 13 24 4 16 24 4 16 18 2 13 15 2 11 16 3 12 15 2 11 16 3 12 16 3 13 15 2 11 15 2 11 16 3 12 15 2 11 21 3 15 24 4 16 21 3 15 16 3 12 18 2 12 16 3 12 16 3 12 15 2 11 16 3 12 15 2 11 18 2 12 15 2 11 16 3 12 19 3 13 
23 3 15 18 2 13 15 2 11 15 2 11 16 3 13 14 1 10 15 2 11 16 3 12 15 2 11 15 2 11 16 3 12 23 3 15 24 4 16 21 3 15 15 2 12 16 3 12 15 2 11 15 2 11 16 3 12 15 2 11 17 4 13 15 2 11 15 2 11 18 2 12 24 4 16 24 4 16 19 3 13 15 2 11 15 2 11 16 3 12 15 2 12 16 3 12 15 2 11 16 3 12 15 2 11 15 2 11 20 2 14 24 4 16 21 3 15 16 3 12 15 2 11 15 2 11 15 2 11 16 3 12 16 3 12 15 2 11 15 2 11 16 3 12 18 2 12 23 3 15 23 3 15 19 3 14 16 3 12 15 2 11 17 1 11 17 1 11 15 2 11 15 2 11 15 2 11 16 3 12 15 2 11 20 2 14 24 4 16 21 3 15 16 3 12 15 2 11 15 2 11 16 3 12 16 3 12 16 3 12 16 3 12 15 2 11 15 2 11 18 2 12 23 3 15 23 3 15 19 3 14 16 3 12 15 2 11 15 2 11 15 2 11 15 2 12 16 3 12 15 2 11 15 2 11 16 3 12 21 3 15 23 3 15 21 3 15 16 3 12 15 2 11 16 3 12 15 2 11 16 3 12 16 3 12 17 1 11 15 2 11 15 2 11 15 2 11 15 2 11 
23 3 15 18 2 12 16 3 12 15 2 11 17 4 13 15 2 11 16 3 12 15 2 11 18 2 12 15 2 11 16 3 12 21 3 15 23 3 15 21 3 15 16 3 13 15 2 11 15 2 11 15 2 11 16 3 12 15 2 11 16 3 12 15 2 11 16 3 12 18 2 12 24 4 16 23 3 15 19 3 13 15 2 11 15 2 11 15 2 11 15 2 12 14 1 10 15 2 11 15 2 11 16 3 12 15 2 11 21 3 15 24 4 16 20 2 14 16 3 12 16 3 12 15 2 11 15 2 11 14 1 10 16 3 12 15 2 11 16 3 12 16 3 12 18 2 12 23 3 15 24 4 16 17 1 12 15 2 11 15 2 11 15 2 11 15 2 11 16 3 12 15 2 11 16 3 12 15 2 11 15 2 11 21 3 15 23 3 15 21 3 15 15 2 11 16 3 12 16 3 12 15 2 11 16 3 12 15 2 11 16 3 12 16 3 12 15 2 11 18 2 12 23 3 15 23 3 15 18 2 13 15 2 11 16 3 12 15 2 11 15 2 11 16 3 13 16 3 12 16 3 12 15 2 11 16 3 12 21 3 15 23 3 15 21 3 15 16 3 12 15 2 11 15 2 11 18 2 12 16 3 12 17 1 11 17 1 11 15 2 11 15 2 11 15 2 11 15 2 11 
24 4 16 18 2 12 15 2 11 16 3 12 15 2 11 17 4 13 15 2 11 16 3 12 18 2 12 15 2 11 14 1 10 21 3 15 24 4 16 22 4 16 17 4 14 15 2 11 15 2 11 16 3 12 15 2 11 15 2 11 15 2 11 16 3 12 16 3 12 18 2 12 24 4 16 24 4 16 18 2 12 15 2 11 16 3 12 15 2 11 15 2 12 16 3 12 15 2 11 16 3 12 15 2 11 15 2 11 21 3 15 23 3 15 21 3 15 16 3 12 15 2 11 15 2 11 15 2 11 16 3 12 15 2 11 15 2 11 15 2 11 15 2 11 16 3 12 23 3 15 23 3 15 18 2 13 15 2 11 15 2 11 16 3 12 18 2 12 16 3 12 15 2 11 16 3 12 15 2 11 15 2 11 22 4 16 23 3 15 21 3 15 17 4 13 15 2 11 15 2 11 16 3 12 15 2 11 15 2 11 16 3 12 15 2 11 15 2 11 18 2 12 23 3 15 23 3 15 18 2 13 15 2 11 16 3 12 15 2 11 15 2 11 16 3 13 16 3 12 15 2 11 16 3 12 15 2 11 21 3 15 23 3 15 21 3 15 15 2 11 16 3 12 15 2 11 17 1 11 16 3 12 17 1 11 18 2 12 16 3 13 15 2 11 15 2 11 18 2 12 
23 3 15 18 2 13 15 2 11 16 3 12 14 1 11 15 2 11 15 2 11 15 2 11 17 4 13 16 3 12 15 2 11 24 4 16 24 4 16 21 3 15 15 2 12 15 2 11 16 3 12 16 3 12 15 2 11 15 2 11 15 2 11 15 2 11 15 2 11 18 2 12 23 3 15 24 4 16 19 3 13 15 2 11 15 2 11 15 2 11 15 2 12 15 2 11 16 3 12 16 3 12 15 2 11 15 2 11 21 3 15 24 4 16 21 3 15 15 2 11 15 2 11 15 2 11 15 2 11 15 2 11 16 3 12 15 2 11 15 2 11 15 2 11 18 2 12 22 2 14 23 3 15 19 3 14 16 3 12 16 3 12 16 3 12 17 4 13 15 2 11 15 2 11 15 2 11 15 2 11 15 2 11 21 3 15 24 4 16 21 3 15 15 2 11 16 3 12 15 2 11 16 3 12 16 3 12 16 3 12 15 2 11 15 2 11 15 2 11 19 3 13 24 4 16 23 3 15 18 2 13 15 2 11 15 2 11 16 3 12 15 2 11 15 2 12 16 3 12 15 2 11 16 3 12 15 2 11 21 3 15 23 3 15 21 3 15 16 3 12 15 2 11 15 2 11 16 3 12 16 3 12 15 2 11 18 2 12 16 3 13 15 2 12 15 2 12 17 1 11 
23 3 15 18 2 13 15 2 11 16 3 12 14 1 11 15 2 11 15 2 11 15 2 11 17 1 11 15 2 11 18 2 12 21 3 15 23 3 15 21 3 15 16 3 13 16 3 12 15 2 11 17 4 13 16 3 12 15 2 11 17 4 13 15 2 11 16 3 12 19 3 13 25 5 17 23 3 15 19 3 13 16 3 12 15 2 11 15 2 11 14 1 11 16 3 12 16 3 12 15 2 11 15 2 11 15 2 11 21 3 15 24 4 16 21 3 15 17 4 13 16 3 12 15 2 11 15 2 11 16 3 12 16 3 12 15 2 11 16 3 12 16 3 12 18 2 12 23 3 15 23 3 15 18 2 13 15 2 11 15 2 11 15 2 11 15 2 11 15 2 11 15 2 11 16 3 12 15 2 11 16 3 12 21 3 15 23 3 15 21 3 15 16 3 12 15 2 11 16 3 12 16 3 12 15 2 11 15 2 11 15 2 11 15 2 11 16 3 12 19 3 13 23 3 15 23 3 15 18 2 13 15 2 11 16 3 12 15 2 11 16 3 12 16 3 13 15 2 11 15 2 11 15 2 11 15 2 11 22 4 16 23 3 15 21 3 15 15 2 11 17 1 11 15 2 11 16 3 12 15 2 11 17 4 13 15 2 11 17 4 13 16 3 12 15 2 11 15 2 11 
23 3 15 20 4 14 16 3 12 16 3 12 15 2 11 16 3 12 16 3 12 15 2 11 15 2 11 16 3 12 15 2 11 21 3 15 24 4 16 20 2 14 16 3 13 15 2 11 15 2 11 16 3 12 15 2 11 16 3 12 16 3 12 16 3 12 15 2 11 18 2 12 24 4 16 24 4 16 18 2 12 15 2 11 16 3 12 15 2 11 16 3 13 15 2 11 16 3 12 16 3 12 14 1 10 15 2 11 21 3 15 24 4 16 22 4 16 15 2 11 15 2 11 15 2 11 15 2 11 15 2 11 15 2 11 15 2 11 15 2 11 15 2 11 16 3 12 23 3 15 24 4 16 18 2 13 16 3 12 15 2 11 14 3 11 14 3 11 15 2 11 15 2 11 16 3 12 16 3 12 16 3 12 21 3 15 23 3 15 20 2 14 16 3 12 16 3 12 15 2 11 15 2 11 15 2 11 15 2 11 16 3 12 15 2 11 15 2 11 18 2 12 23 3 15 23 3 15 18 2 13 15 2 11 15 2 11 15 2 11 15 2 11 15 2 12 16 3 12 16 3 12 16 3 12 15 2 11 21 3 15 23 3 15 21 3 15 18 2 12 17 1 11 15 2 11 18 2 12 16 3 12 16 3 12 16 3 12 18 2 12 15 2 11 15 2 11 16 3 12 
24 4 16 18 2 13 15 2 11 16 3 12 15 2 11 16 3 12 15 2 11 16 3 12 15 2 11 16 3 12 15 2 11 21 3 15 24 4 16 21 3 15 15 2 11 16 3 12 15 2 11 14 1 10 16 3 12 15 2 11 15 2 11 15 2 11 15 2 11 19 3 13 23 3 15 22 2 14 19 3 14 16 3 12 15 2 11 15 2 11 16 3 12 15 2 11 16 3 12 16 3 12 16 3 12 15 2 11 21 3 15 23 3 15 20 2 14 15 2 11 16 3 12 16 3 12 16 3 12 15 2 11 15 2 11 16 3 12 15 2 11 16 3 12 18 2 12 24 4 16 24 4 16 18 2 12 16 3 12 16 3 12 15 2 11 15 2 11 15 2 11 16 3 12 15 2 11 16 3 12 15 2 11 21 3 15 23 3 15 21 3 15 16 3 12 16 3 12 15 2 11 16 3 12 15 2 11 15 2 11 14 1 10 16 3 12 16 3 12 19 3 13 23 3 15 24 4 16 18 2 13 15 2 11 14 1 10 16 3 12 16 3 12 18 2 12 17 1 11 16 3 12 15 2 11 15 2 11 21 3 15 24 4 16 21 3 15 15 2 11 15 2 11 14 1 10 16 3 12 15 2 11 16 3 12 15 2 11 16 3 12 15 2 11 16 3 12 15 2 11 
23 3 15 18 2 13 15 2 11 15 2 11 15 2 11 16 3 12 15 2 11 16 3 12 16 3 12 16 3 12 15 2 11 21 3 15 23 3 15 20 2 14 15 2 11 16 3 12 16 3 12 16 3 12 15 2 11 16 3 12 15 2 11 16 3 12 14 1 10 17 1 11 23 3 15 23 3 15 18 2 13 15 2 11 15 2 11 17 4 13 16 3 12 15 2 11 16 3 12 15 2 11 16 3 12 15 2 11 21 3 15 23 3 15 22 4 16 15 2 11 16 3 12 15 2 11 15 2 11 16 3 12 14 1 10 16 3 12 16 3 12 15 2 11 18 2 12 24 4 16 24 4 16 18 2 12 16 3 12 15 2 11 15 2 11 15 2 11 16 3 12 15 2 11 15 2 11 15 2 11 15 2 11 21 3 15 24 4 16 21 3 15 16 3 12 15 2 11 16 3 12 15 2 11 15 2 11 15 2 11 15 2 11 15 2 11 16 3 12 19 3 13 23 3 15 24 4 16 18 2 13 15 2 11 15 2 11 15 2 11 15 2 11 16 3 12 15 2 11 16 3 12 15 2 11 15 2 11 21 3 15 24 4 16 21 3 15 15 2 11 15 2 11 15 2 11 16 3 12 15 2 11 15 2 11 15 2 11 15 2 11 15 2 11 15 2 11 16 3 12 
23 3 15 18 2 13 15 2 11 16 3 12 16 3 12 15 2 11 15 2 11 15 2 11 16 3 12 16 3 12 15 2 11 21 3 15 24 4 16 20 2 14 15 2 11 16 3 12 15 2 11 15 2 11 15 2 11 15 2 11 15 2 11 15 2 11 16 3 12 19 3 13 24 4 16 23 3 15 18 2 13 15 2 11 15 2 11 15 2 11 15 2 11 15 2 11 16 3 12 17 4 13 16 3 12 15 2 11 21 3 15 23 3 15 19 1 13 15 2 11 15 2 11 16 3 12 15 2 11 16 3 12 15 2 11 15 2 11 16 3 12 16 3 12 18 2 12 23 3 15 23 3 15 18 2 12 15 2 11 15 2 11 15 2 11 15 2 11 16 3 12 16 3 12 15 2 11 15 2 11 15 2 11 21 3 15 23 3 15 21 3 15 16 3 12 15 2 11 15 2 11 16 3 12 16 3 12 15 2 11 15 2 11 15 2 11 15 2 11 19 3 13 23 3 15 23 3 15 18 2 13 15 2 11 15 2 11 16 3 12 15 2 11 16 3 12 15 2 11 15 2 11 15 2 11 15 2 11 21 3 15 24 4 16 21 3 15 15 2 11 15 2 11 15 2 11 16 3 12 15 2 11 16 3 12 15 2 11 18 2 12 18 2 12 15 2 11 15 2 11 
23 3 15 18 2 12 15 2 11 14 1 11 15 2 12 15 2 11 16 3 12 15 2 11 14 1 10 15 2 11 15 2 11 21 3 15 24 4 16 21 3 15 15 2 11 16 3 12 15 2 11 15 2 11 15 2 11 15 2 11 16 3 12 14 1 10 15 2 11 17 1 11 24 4 16 23 3 15 18 2 13 15 2 11 15 2 11 15 2 11 16 3 12 16 3 12 16 3 12 15 2 11 15 2 11 15 2 11 21 3 15 23 3 15 21 3 15 15 2 11 15 2 11 16 3 12 15 2 11 16 3 12 15 2 11 15 2 11 15 2 11 16 3 12 19 3 13 24 4 16 24 4 16 17 1 11 15 2 11 15 2 11 16 3 12 16 3 12 15 2 11 15 2 11 15 2 11 16 3 12 15 2 11 21 3 15 24 4 16 21 3 15 16 3 12 15 2 11 16 3 12 15 2 11 16 3 12 15 2 11 15 2 11 15 2 11 16 3 12 19 3 13 23 3 15 24 4 16 18 2 13 15 2 11 16 3 12 15 2 11 15 2 11 15 2 11 16 3 12 15 2 11 16 3 12 15 2 11 21 3 15 23 3 15 22 4 16 16 3 12 15 2 11 16 3 12 15 2 11 15 2 11 16 3 12 15 2 11 16 3 12 16 3 12 16 3 12 15 2 11 
24 4 16 18 2 12 15 2 11 16 3 13 16 3 13 15 2 11 16 3 12 15 2 11 15 2 11 16 3 12 16 3 12 21 3 15 24 4 16 21 3 15 15 2 11 15 2 11 16 3 12 16 3 12 14 1 10 16 3 12 15 2 11 16 3 12 16 3 12 18 2 12 24 4 16 23 3 15 18 2 13 17 4 13 16 3 12 16 3 12 15 2 11 14 1 10 16 3 12 16 3 12 16 3 12 15 2 11 21 3 15 23 3 15 21 3 15 15 2 11 16 3 12 15 2 11 15 2 11 15 2 11 15 2 11 16 3 12 15 2 11 15 2 11 18 2 12 23 3 15 23 3 15 18 2 12 15 2 11 15 2 11 15 2 11 15 2 11 15 2 11 16 3 12 15 2 11 15 2 11 15 2 11 21 3 15 23 3 15 21 3 15 15 2 11 15 2 11 15 2 11 16 3 12 16 3 12 15 2 11 15 2 11 15 2 11 14 1 10 19 3 13 23 3 15 23 3 15 18 2 13 15 2 11 15 2 11 16 3 12 16 3 12 15 2 11 15 2 11 15 2 11 16 3 12 15 2 11 21 3 15 24 4 16 21 3 15 15 2 11 16 3 12 15 2 11 16 3 12 15 2 11 14 1 10 15 2 11 18 2 12 18 2 12 15 2 11 17 4 13 
23 3 15 19 3 14 15 2 11 15 2 11 16 3 12 15 2 11 15 2 11 15 2 11 15 2 11 15 2 11 16 3 12 20 2 14 23 3 15 21 3 15 16 3 12 15 2 11 15 2 11 16 3 12 15 2 11 16 3 12 15 2 11 15 2 11 15 2 11 18 2 12 24 4 16 23 3 15 18 2 13 16 3 12 17 4 13 16 3 12 15 2 11 16 3 12 15 2 11 15 2 11 15 2 11 15 2 11 21 3 15 24 4 16 21 3 15 16 3 12 16 3 12 15 2 11 16 3 12 15 2 11 15 2 11 17 4 13 15 2 11 15 2 11 20 4 14 24 4 16 25 5 17 18 2 12 15 2 11 15 2 11 17 4 13 16 3 12 15 2 11 15 2 11 15 2 11 16 3 12 15 2 11 21 3 15 24 4 16 21 3 15 15 2 11 15 2 11 16 3 12 15 2 11 15 2 11 15 2 11 16 3 12 15 2 11 16 3 12 19 3 13 23 3 15 24 4 16 18 2 13 15 2 11 16 3 12 15 2 11 16 3 12 17 1 11 17 1 11 16 3 12 16 3 12 15 2 11 21 3 15 25 5 17 21 3 15 16 3 12 15 2 11 16 3 12 15 2 11 17 4 13 14 1 10 16 3 12 16 3 12 16 3 12 15 2 11 15 2 11 
23 3 15 18 2 13 15 2 11 16 3 12 16 3 12 15 2 11 15 2 11 15 2 11 15 2 11 15 2 11 16 3 12 21 3 15 23 3 15 21 3 15 16 3 12 15 2 11 15 2 11 15 2 11 15 2 11 15 2 11 15 2 11 15 2 11 16 3 12 18 2 12 23 3 15 23 3 15 18 2 13 15 2 11 16 3 12 15 2 11 15 2 11 16 3 12 16 3 12 15 2 11 15 2 11 15 2 11 21 3 15 23 3 15 20 2 14 15 2 11 15 2 11 15 2 11 16 3 12 15 2 11 15 2 11 15 2 11 15 2 11 15 2 11 19 3 13 24 4 16 23 3 15 17 1 11 15 2 11 15 2 11 15 2 11 15 2 11 15 2 11 15 2 11 15 2 11 15 2 11 16 3 12 21 3 15 24 4 16 20 2 14 15 2 11 16 3 12 15 2 11 16 3 12 14 1 10 15 2 11 15 2 11 15 2 11 15 2 11 19 3 13 23 3 15 23 3 15 18 2 13 15 2 11 14 1 10 16 3 12 16 3 12 15 2 11 15 2 11 15 2 11 16 3 12 15 2 11 21 3 15 24 4 16 21 3 15 15 2 11 15 2 11 15 2 11 14 1 10 15 2 11 15 2 11 15 2 11 18 2 12 15 2 11 16 3 12 15 2 11 
23 3 15 18 2 13 15 2 11 15 2 11 15 2 11 15 2 11 15 2 11 14 1 10 15 2 11 15 2 11 16 3 12 21 3 15 24 4 16 21 3 15 15 2 11 15 2 11 15 2 11 16 3 12 15 2 11 16 3 12 15 2 11 16 3 12 15 2 11 18 2 12 23 3 15 23 3 15 18 2 13 15 2 11 15 2 11 15 2 11 15 2 11 16 3 12 15 2 11 15 2 11 15 2 11 15 2 11 21 3 15 24 4 16 21 3 15 16 3 12 15 2 11 15 2 11 15 2 11 15 2 11 16 3 12 15 2 11 15 2 11 15 2 11 19 3 13 24 4 16 24 4 16 18 2 12 15 2 11 15 2 11 15 2 11 15 2 11 15 2 11 15 2 11 15 2 11 16 3 12 15 2 11 21 3 15 24 4 16 21 3 15 16 3 12 16 3 12 15 2 11 15 2 11 15 2 11 14 1 10 14 1 10 14 1 10 16 3 12 19 3 13 23 3 15 24 4 16 18 2 13 15 2 11 15 2 11 16 3 12 14 1 10 15 2 11 15 2 11 15 2 11 15 2 11 17 4 13 21 3 15 23 3 15 21 3 15 15 2 11 15 2 11 16 3 12 15 2 11 16 3 12 15 2 11 16 3 12 15 2 11 15 2 11 15 2 11 16 3 12 
24 4 16 18 2 13 15 2 11 15 2 11 16 3 12 15 2 11 15 2 11 16 3 12 15 2 11 16 3 12 16 3 12 21 3 15 23 3 15 21 3 15 15 2 11 15 2 11 15 2 11 15 2 11 17 4 13 15 2 11 15 2 11 15 2 11 15 2 11 18 2 12 23 3 15 23 3 15 18 2 12 15 2 11 15 2 11 15 2 11 15 2 11 15 2 11 15 2 11 15 2 11 15 2 11 16 3 12 21 3 15 24 4 16 20 2 14 14 1 10 15 2 11 14 1 10 16 3 12 15 2 11 16 3 12 15 2 11 16 3 12 15 2 11 16 3 12 24 4 16 23 3 15 18 2 12 16 3 12 15 2 11 15 2 11 15 2 11 15 2 11 15 2 11 15 2 11 15 2 11 15 2 11 21 3 15 23 3 15 21 3 15 15 2 11 15 2 11 16 3 12 15 2 11 15 2 11 15 2 11 16 3 12 16 3 12 15 2 11 18 2 12 24 4 16 23 3 15 18 2 13 15 2 11 15 2 11 15 2 11 15 2 11 16 3 12 15 2 11 16 3 12 16 3 12 15 2 11 21 3 15 23 3 15 21 3 15 15 2 11 15 2 11 15 2 11 15 2 11 15 2 11 15 2 11 15 2 11 16 3 12 16 3 12 16 3 12 15 2 11 
24 4 16 18 2 13 15 2 11 16 3 12 15 2 11 16 3 12 16 3 12 15 2 11 15 2 11 15 2 11 15 2 11 20 2 14 24 4 16 21 3 15 15 2 11 15 2 11 16 3 12 15 2 11 14 1 10 15 2 11 14 1 10 15 2 11 15 2 11 19 3 13 22 2 14 23 3 15 18 2 12 15 2 11 15 2 11 16 3 12 16 3 12 15 2 11 16 3 12 15 2 11 16 3 12 16 3 12 21 3 15 23 3 15 21 3 15 15 2 11 16 3 12 15 2 11 16 3 12 15 2 11 16 3 12 16 3 12 15 2 11 16 3 12 16 3 12 24 4 16 23 3 15 18 2 12 16 3 12 15 2 11 15 2 11 15 2 11 15 2 11 15 2 11 15 2 11 15 2 11 15 2 11 21 3 15 23 3 15 21 3 15 15 2 11 15 2 11 15 2 11 17 4 13 16 3 12 15 2 11 16 3 12 15 2 11 16 3 12 18 2 12 23 3 15 23 3 15 18 2 13 16 3 12 15 2 11 15 2 11 15 2 11 16 3 12 15 2 11 15 2 11 15 2 11 15 2 11 21 3 15 23 3 15 21 3 15 15 2 11 16 3 12 15 2 11 17 4 13 16 3 12 16 3 12 16 3 12 15 2 11 15 2 11 15 2 11 15 2 11 
24 4 16 18 2 13 15 2 11 16 3 12 16 3 12 15 2 11 15 2 11 15 2 11 16 3 12 15 2 11 15 2 11 22 4 16 24 4 16 21 3 15 16 3 12 15 2 11 16 3 12 15 2 11 15 2 11 15 2 11 15 2 11 16 3 12 15 2 11 18 2 12 24 4 16 24 4 16 18 2 12 15 2 11 16 3 12 15 2 11 15 2 11 15 2 11 16 3 12 15 2 11 16 3 12 15 2 11 21 3 15 23 3 15 21 3 15 15 2 11 14 1 10 15 2 11 15 2 11 15 2 11 15 2 11 15 2 11 15 2 11 14 1 10 16 3 12 24 4 16 23 3 15 18 2 12 16 3 12 15 2 11 15 2 11 15 2 11 15 2 11 15 2 11 15 2 11 15 2 11 15 2 11 21 3 15 23 3 15 21 3 15 15 2 11 15 2 11 16 3 12 16 3 12 15 2 11 17 4 13 15 2 11 15 2 11 16 3 12 18 2 12 23 3 15 23 3 15 18 2 13 16 3 12 15 2 11 15 2 11 15 2 11 15 2 11 15 2 11 17 4 13 16 3 12 15 2 11 21 3 15 23 3 15 21 3 15 15 2 11 15 2 11 16 3 12 15 2 11 15 2 11 15 2 11 16 3 12 15 2 11 16 3 12 15 2 11 15 2 11 
23 3 15 19 3 14 15 2 11 15 2 11 16 3 12 15 2 11 15 2 11 15 2 11 15 2 11 15 2 11 15 2 11 21 3 15 25 5 17 22 4 16 15 2 11 15 2 11 15 2 11 16 3 12 15 2 11 16 3 12 15 2 11 16 3 12 15 2 11 18 2 12 24 4 16 24 4 16 18 2 12 15 2 11 16 3 12 16 3 12 15 2 11 15 2 11 15 2 11 15 2 11 16 3 12 15 2 11 21 3 15 24 4 16 21 3 15 15 2 11 15 2 11 16 3 12 16 3 12 16 3 12 15 2 11 16 3 12 14 1 10 16 3 12 16 3 12 24 4 16 23 3 15 18 2 12 16 3 12 15 2 11 15 2 11 15 2 11 15 2 9 15 2 11 15 2 12 15 2 12 15 2 9 21 4 14 23 3 15 21 3 17 16 3 12 16 3 12 15 2 11 16 3 12 16 3 12 16 3 12 15 2 11 16 3 12 15 2 11 18 2 12 24 4 16 23 3 15 18 2 13 15 2 11 15 2 11 15 2 11 16 3 12 15 2 11 15 2 11 16 3 12 15 2 11 15 2 11 21 3 15 23 3 15 19 1 13 15 2 11 15 2 11 15 2 11 15 2 11 15 2 11 15 2 11 15 2 11 16 3 12 16 3 12 15 2 11 16 3 12 
23 3 15 18 2 13 16 3 12 15 2 11 17 4 13 16 3 12 16 3 12 15 2 11 16 3 12 15 2 11 16 3 12 21 3 15 23 3 15 20 2 14 16 3 12 15 2 11 16 3 12 15 2 11 15 2 11 15 2 11 15 2 11 15 2 11 15 2 11 19 3 13 23 3 15 24 4 16 19 3 13 15 2 11 16 3 12 15 2 11 15 2 11 16 3 12 16 3 12 16 3 12 16 3 12 16 3 12 21 3 15 24 4 16 21 3 15 14 1 10 16 3 12 15 2 11 15 2 11 16 3 12 15 2 11 16 3 12 15 2 11 15 2 11 16 3 12 24 4 16 23 3 15 18 2 12 16 3 12 15 2 11 15 2 11 15 2 11 15 2 11 15 2 11 15 2 11 15 2 11 15 2 11 21 3 15 23 3 15 21 3 15 15 2 11 16 3 12 16 3 12 16 3 12 16 3 12 15 2 11 15 2 11 15 2 11 15 2 11 18 2 12 24 4 16 23 3 15 18 2 13 15 2 11 15 2 11 15 2 11 15 2 11 16 3 12 15 2 11 15 2 11 15 2 11 15 2 11 21 3 15 23 3 15 21 3 15 14 1 10 15 2 11 15 2 11 16 3 12 15 2 11 15 2 11 16 3 12 15 2 11 16 3 12 15 2 11 16 3 12 
23 3 15 18 2 13 15 2 11 16 3 12 15 2 11 17 4 13 16 3 12 15 2 11 15 2 11 16 3 12 15 2 11 21 3 15 23 3 15 21 3 15 15 2 11 15 2 11 16 3 12 16 3 12 15 2 11 16 3 12 15 2 11 16 3 12 15 2 11 19 3 13 23 3 15 24 4 16 18 2 12 15 2 11 15 2 11 15 2 11 14 1 10 15 2 11 16 3 12 15 2 11 15 2 11 16 3 12 21 3 15 25 5 17 21 3 15 15 2 11 15 2 11 16 3 12 16 3 12 16 3 12 15 2 11 15 2 11 15 2 11 15 2 11 16 3 12 24 4 16 23 3 15 18 2 12 16 3 12 15 2 11 15 2 11 15 2 11 15 2 11 15 2 11 15 2 11 15 2 11 15 2 11 21 3 15 23 3 15 21 3 15 15 2 11 15 2 11 17 4 13 16 3 12 16 3 12 16 3 12 15 2 11 16 3 12 16 3 12 18 2 12 23 3 15 23 3 15 18 2 13 16 3 12 15 2 11 15 2 11 15 2 11 15 2 11 15 2 11 16 3 12 16 3 12 15 2 11 21 3 15 23 3 15 20 2 14 16 3 12 15 2 11 16 3 12 15 2 11 15 2 11 16 3 12 15 2 11 15 2 11 15 2 11 15 2 11 15 2 11 
23 3 15 18 2 13 15 2 11 15 2 11 16 3 12 16 3 12 15 2 11 15 2 11 16 3 12 15 2 11 16 3 12 21 3 15 24 4 16 21 3 15 16 3 12 15 2 11 15 2 11 15 2 11 16 3 12 15 2 11 15 2 11 16 3 12 15 2 11 18 2 12 24 4 16 23 3 15 17 1 11 15 2 11 16 3 12 15 2 11 15 2 11 15 2 11 15 2 11 15 2 11 15 2 11 15 2 11 21 3 15 23 3 15 20 2 14 15 2 11 15 2 11 16 3 12 16 3 12 16 3 12 15 2 11 16 3 12 16 3 12 16 3 12 16 3 12 24 4 16 23 3 15 18 2 12 16 3 12 15 2 11 15 2 11 15 2 11 15 2 11 15 2 11 15 2 11 15 2 11 15 2 11 21 3 15 23 3 15 21 3 15 16 3 12 15 2 11 15 2 11 15 2 11 16 3 12 16 3 12 15 2 11 15 2 11 16 3 12 18 2 12 23 3 15 23 3 15 18 2 13 16 3 12 15 2 11 15 2 11 16 3 12 15 2 11 15 2 11 15 2 11 15 2 11 15 2 11 21 3 15 24 4 16 21 3 15 15 2 11 15 2 11 15 2 11 15 2 11 15 2 11 15 2 11 15 2 11 15 2 11 15 2 11 15 2 11 16 3 12 
23 3 15 19 3 14 15 2 11 15 2 11 16 3 12 16 3 12 16 3 12 15 2 11 15 2 11 15 2 11 14 1 10 21 3 15 24 4 16 21 3 15 15 2 11 15 2 11 16 3 12 15 2 11 16 3 12 15 2 11 15 2 11 15 2 11 15 2 11 19 3 13 24 4 16 23 3 15 18 2 12 15 2 11 16 3 12 16 3 12 15 2 11 15 2 11 16 3 12 15 2 11 16 3 12 15 2 11 21 3 15 23 3 15 21 3 15 15 2 11 15 2 11 15 2 11 15 2 11 15 2 11 16 3 12 15 2 11 15 2 11 15 2 11 16 3 12 24 4 16 23 3 15 18 2 12 16 3 12 15 2 11 15 2 11 15 2 11 15 2 11 15 2 11 15 2 11 15 2 11 15 2 11 21 3 15 23 3 15 21 3 15 15 2 11 15 2 11 16 3 12 15 2 11 15 2 11 16 3 12 15 2 11 16 3 12 15 2 11 18 2 12 24 4 16 23 3 15 18 2 13 15 2 11 15 2 11 15 2 11 15 2 11 15 2 11 15 2 11 16 3 12 15 2 11 15 2 11 21 3 15 23 3 15 21 3 15 16 3 12 15 2 11 16 3 12 16 3 12 15 2 11 16 3 12 15 2 11 16 3 12 16 3 12 15 2 9 15 2 12 
23 3 15 18 2 13 15 2 11 15 2 11 15 2 11 15 2 11 16 3 12 15 2 11 16 3 12 16 3 12 17 1 11 21 3 15 23 3 15 21 3 15 16 3 12 15 2 11 15 2 11 15 2 11 15 2 11 15 2 11 15 2 11 16 3 12 16 3 12 18 2 12 24 4 16 24 4 16 18 2 13 16 3 12 16 3 12 15 2 11 15 2 11 15 2 11 15 2 11 15 2 11 15 2 11 16 3 12 21 3 15 23 3 15 21 3 15 15 2 11 16 3 12 14 1 10 15 2 11 15 2 11 15 2 11 15 2 11 16 3 12 14 1 10 16 3 12 24 4 16 23 3 15 19 3 13 15 2 11 14 1 10 17 4 13 15 2 11 15 2 11 15 2 11 15 2 11 15 2 11 15 2 11 21 3 15 23 3 15 21 3 15 16 3 12 15 2 11 15 2 11 15 2 11 16 3 12 16 3 12 16 3 12 15 2 11 15 2 11 19 3 13 24 4 16 24 4 16 18 2 13 16 3 12 15 2 11 15 2 11 15 2 11 15 2 11 16 3 12 14 1 10 16 3 12 15 2 11 21 3 15 23 3 15 21 3 15 15 2 11 15 2 11 15 2 11 15 2 11 14 1 10 16 3 12 16 3 12 15 2 11 15 2 11 15 2 11 15 2 11 
24 4 16 19 3 14 15 2 11 16 3 12 15 2 11 16 3 12 15 2 11 15 2 11 15 2 11 15 2 11 17 4 13 21 3 15 24 4 16 21 3 15 15 2 11 15 2 11 15 2 11 15 2 11 15 2 11 15 2 11 15 2 11 15 2 11 16 3 12 18 2 12 23 3 15 23 3 15 18 2 13 14 1 10 15 2 11 17 4 13 16 3 12 15 2 11 15 2 11 15 2 11 16 3 12 16 3 12 21 3 15 24 4 16 21 3 15 16 3 12 15 2 11 16 3 12 16 3 12 15 2 11 16 3 12 15 2 11 15 2 11 16 3 12 16 3 12 23 3 15 23 3 15 19 3 13 15 2 11 15 2 11 16 3 12 16 3 12 15 2 11 15 2 11 15 2 11 15 2 11 15 2 11 21 3 15 23 3 15 21 3 15 16 3 12 16 3 12 15 2 11 16 3 12 15 2 11 16 3 12 16 3 12 15 2 11 15 2 11 19 3 13 24 4 16 24 4 16 17 1 12 15 2 11 15 2 11 15 2 11 15 2 11 15 2 11 15 2 11 15 2 11 16 3 12 15 2 11 21 3 15 23 3 15 21 3 15 15 2 11 15 2 11 15 2 11 16 3 12 15 2 11 15 2 11 15 2 11 15 2 11 15 2 12 15 2 11 15 2 11 
24 4 16 18 2 13 16 3 12 16 3 12 15 2 11 15 2 11 15 2 11 16 3 12 16 3 12 17 1 11 15 2 11 21 3 15 23 3 15 23 3 15 17 1 11 14 1 10 16 3 12 15 2 11 16 3 12 15 2 11 15 2 11 16 3 12 15 2 11 18 2 12 23 3 15 23 3 15 18 2 13 16 3 12 15 2 11 15 2 11 15 2 11 16 3 12 15 2 11 15 2 11 15 2 11 16 3 12 21 3 15 23 3 15 21 3 15 16 3 12 15 2 11 16 3 12 16 3 12 15 2 11 16 3 12 15 2 11 15 2 11 16 3 12 16 3 12 23 3 15 24 4 16 18 2 12 15 2 11 16 3 12 16 3 12 15 2 11 15 2 11 15 2 11 15 2 11 15 2 11 15 2 11 21 3 15 23 3 15 21 3 15 15 2 11 16 3 12 15 2 11 15 2 11 16 3 12 15 2 11 15 2 11 16 3 12 16 3 12 19 3 13 23 3 15 23 3 15 18 2 13 16 3 12 15 2 11 15 2 11 15 2 11 15 2 11 16 3 12 15 2 11 15 2 11 14 1 10 20 2 14 24 4 16 21 3 15 16 3 12 16 3 12 14 1 10 15 2 11 16 3 12 15 2 11 15 2 11 15 2 12 16 3 12 15 2 11 15 2 11 
24 4 16 18 2 13 15 2 11 15 2 11 15 2 11 15 2 11 15 2 11 15 2 11 16 3 12 16 3 12 15 2 11 21 3 15 23 3 15 21 3 15 16 3 12 16 3 12 15 2 11 15 2 11 15 2 11 15 2 11 15 2 11 15 2 11 15 2 11 18 2 12 24 4 16 23 3 15 18 2 13 15 2 11 15 2 11 16 3 12 15 2 11 15 2 11 15 2 11 16 3 12 15 2 11 14 1 10 20 2 14 24 4 16 21 3 15 15 2 11 15 2 11 15 2 11 15 2 11 16 3 12 14 1 10 15 2 11 15 2 11 15 2 11 16 3 12 23 3 15 23 3 15 19 3 13 15 2 11 15 2 11 16 3 12 16 3 12 15 2 11 15 2 11 15 2 11 15 2 11 15 2 11 21 3 15 23 3 15 21 3 15 15 2 11 15 2 11 16 3 12 15 2 11 15 2 11 16 3 12 15 2 11 16 3 12 15 2 11 19 3 13 24 4 16 24 4 16 18 2 13 16 3 12 15 2 11 15 2 11 15 2 11 16 3 12 15 2 11 15 2 11 16 3 12 15 2 11 21 3 15 23 3 15 20 2 14 16 3 12 17 4 13 15 2 11 15 2 11 15 2 11 16 3 12 15 2 11 15 2 11 15 2 11 16 3 12 15 2 11 
23 3 15 18 2 13 15 2 11 15 2 11 15 2 11 15 2 11 16 3 12 15 2 11 15 2 11 15 2 11 17 1 11 21 3 15 24 4 16 21 3 15 16 3 12 15 2 11 15 2 11 15 2 11 15 2 11 15 2 11 15 2 11 15 2 11 15 2 11 18 2 12 23 3 15 23 3 15 18 2 13 16 3 12 16 3 12 15 2 11 16 3 12 16 3 12 15 2 11 16 3 12 15 2 11 15 2 11 20 2 14 24 4 16 21 3 15 15 2 11 15 2 11 15 2 11 15 2 11 15 2 11 15 2 11 15 2 11 15 2 11 15 2 11 16 3 12 24 4 16 24 4 16 18 2 12 15 2 11 15 2 11 16 3 12 14 1 10 15 2 11 15 2 11 15 2 11 15 2 11 15 2 11 21 3 15 23 3 15 21 3 15 15 2 11 15 2 11 15 2 11 16 3 12 15 2 11 15 2 11 15 2 11 16 3 12 15 2 11 19 3 13 24 4 16 24 4 16 18 2 13 16 3 12 15 2 11 15 2 11 15 2 11 15 2 11 15 2 11 15 2 11 15 2 11 16 3 12 20 2 14 23 3 15 21 3 15 15 2 11 15 2 11 16 3 12 16 3 12 15 2 11 15 2 11 16 3 12 15 2 11 15 2 12 16 3 12 14 1 10 
23 3 15 19 3 14 16 3 12 16 3 12 15 2 11 15 2 11 16 3 12 16 3 12 16 3 12 16 3 12 19 2 12 21 3 15 23 3 15 21 3 15 15 2 11 15 2 11 15 2 11 15 2 11 15 2 11 16 3 12 15 2 11 15 2 11 15 2 11 18 2 12 23 3 15 24 4 16 19 3 14 15 2 11 15 2 11 16 3 12 16 3 12 15 2 11 15 2 11 15 2 11 15 2 11 16 3 12 21 3 15 24 4 16 21 3 15 16 3 12 16 3 12 15 2 11 16 3 12 15 2 11 16 3 12 15 2 11 16 3 12 15 2 11 16 3 12 23 3 15 24 4 16 19 3 13 15 2 11 15 2 11 15 2 11 16 3 12 15 2 11 15 2 11 15 2 11 15 2 11 15 2 11 21 3 15 23 3 15 21 3 15 15 2 11 15 2 11 16 3 12 15 2 11 15 2 11 15 2 11 15 2 11 15 2 11 16 3 12 19 3 13 23 3 15 23 3 15 18 2 13 16 3 12 15 2 11 15 2 11 15 2 11 16 3 12 15 2 11 16 3 12 15 2 11 15 2 11 21 3 15 24 4 16 21 3 15 15 2 11 15 2 11 15 2 11 16 3 12 15 2 11 15 2 11 16 3 12 15 2 11 16 3 12 15 2 11 15 2 11 
23 3 15 18 2 13 15 2 11 16 3 12 15 2 11 16 3 12 16 3 12 17 4 13 16 3 12 15 2 11 14 1 10 20 2 14 22 2 14 22 4 16 15 2 11 16 3 12 15 2 11 15 2 11 15 2 11 16 3 12 15 2 11 15 2 11 15 2 11 18 2 12 24 4 16 24 4 16 18 2 13 16 3 12 15 2 11 15 2 11 15 2 11 15 2 11 15 2 11 15 2 11 15 2 11 16 3 12 21 3 15 24 4 16 21 3 15 15 2 11 15 2 11 16 3 12 16 3 12 15 2 11 16 3 12 15 2 11 15 2 11 16 3 12 16 3 12 23 3 15 24 4 16 18 2 12 15 2 11 16 3 12 15 2 11 15 2 11 15 2 11 15 2 11 15 2 11 15 2 11 15 2 11 21 3 15 23 3 15 21 3 15 15 2 11 15 2 11 15 2 11 16 3 12 15 2 11 15 2 11 16 3 12 15 2 11 15 2 11 19 3 13 24 4 16 24 4 16 17 1 12 15 2 11 15 2 11 15 2 11 15 2 11 15 2 11 14 1 10 15 2 11 15 2 11 16 3 12 20 2 14 23 3 15 20 2 14 16 3 12 15 2 11 16 3 12 15 2 11 15 2 11 16 3 12 15 2 11 15 2 11 16 3 12 16 3 12 15 2 11 
23 3 15 17 1 12 15 2 11 15 2 11 15 2 11 15 2 11 15 2 11 16 3 12 15 2 11 18 2 12 15 2 11 21 3 15 24 4 16 21 3 15 18 2 12 16 3 12 15 2 11 15 2 11 15 2 11 16 3 12 15 2 11 16 3 12 15 2 11 19 3 13 23 3 15 22 2 14 18 2 13 15 2 11 15 2 11 16 3 12 16 3 12 16 3 12 16 3 12 15 2 11 14 1 10 16 3 12 21 3 15 24 4 16 21 3 15 15 2 11 15 2 11 15 2 11 15 2 11 15 2 11 15 2 11 15 2 11 15 2 11 15 2 11 16 3 12 23 3 15 24 4 16 18 2 12 15 2 11 16 3 12 15 2 11 16 3 12 15 2 11 15 2 11 15 2 11 15 2 11 15 2 11 21 3 15 23 3 15 21 3 15 15 2 11 16 3 12 15 2 11 15 2 11 15 2 11 15 2 11 15 2 11 15 2 11 15 2 11 19 3 13 24 4 16 24 4 16 18 2 13 16 3 12 15 2 11 15 2 11 15 2 11 16 3 12 15 2 11 16 3 12 15 2 11 15 2 11 20 2 14 24 4 16 21 3 15 15 2 11 16 3 12 15 2 11 14 1 10 15 2 11 15 2 11 15 2 11 15 2 11 16 3 12 16 3 12 15 2 11 
23 3 15 18 2 13 15 2 11 15 2 11 16 3 12 15 2 11 15 2 11 17 1 11 15 2 11 15 2 11 15 2 11 21 3 15 23 3 15 21 3 15 15 2 11 15 2 11 15 2 11 16 3 12 15 2 11 16 3 12 15 2 11 16 3 12 15 2 11 18 2 12 23 3 15 23 3 15 18 2 12 15 2 11 15 2 11 16 3 12 16 3 12 16 3 12 15 2 11 15 2 11 16 3 12 16 3 12 21 3 15 23 3 15 21 3 15 15 2 11 15 2 11 15 2 11 15 2 11 15 2 11 15 2 11 15 2 11 15 2 11 15 2 11 16 3 12 23 3 15 24 4 16 19 3 13 15 2 11 16 3 12 16 3 12 15 2 11 16 3 12 15 2 11 15 2 11 16 3 12 16 3 12 21 3 15 23 3 15 20 2 14 16 3 12 15 2 11 16 3 12 15 2 11 15 2 11 16 3 12 15 2 11 16 3 12 15 2 11 18 2 12 21 3 15 23 3 15 18 2 12 15 2 11 15 2 11 15 2 11 15 2 11 15 2 11 15 2 11 15 2 11 15 2 11 16 3 12 21 3 15 23 3 15 20 2 14 15 2 11 15 2 11 15 2 11 14 1 10 15 2 11 17 4 13 15 2 11 16 3 12 16 3 12 16 3 12 15 2 11 
23 3 15 18 2 13 16 3 12 15 2 11 16 3 12 15 2 11 15 2 11 15 2 11 15 2 11 16 3 12 16 3 12 21 3 15 23 3 15 20 2 14 15 2 11 15 2 11 15 2 11 15 2 11 15 2 11 16 3 12 15 2 11 16 3 12 15 2 11 18 2 12 22 2 14 23 3 15 18 2 12 16 3 12 15 2 11 16 3 12 15 2 11 15 2 11 15 2 11 15 2 11 16 3 12 16 3 12 21 3 15 23 3 15 21 3 15 15 2 11 15 2 11 15 2 11 15 2 11 15 2 11 15 2 11 15 2 11 15 2 11 15 2 11 17 4 13 23 3 15 24 4 16 19 3 13 15 2 11 15 2 11 16 3 12 16 3 12 16 3 12 16 3 12 15 2 11 15 2 11 15 2 11 21 3 15 24 4 16 21 3 15 15 2 11 15 2 11 15 2 11 15 2 11 15 2 11 15 2 11 15 2 11 15 2 11 15 2 11 18 2 12 21 3 15 23 3 15 18 2 12 15 2 11 15 2 11 15 2 11 15 2 11 15 2 11 16 3 12 15 2 11 15 2 11 15 2 11 21 3 15 23 3 15 21 3 15 16 3 12 15 2 11 15 2 11 15 2 11 15 2 11 15 2 11 15 2 11 15 2 11 14 1 10 15 2 11 16 3 12 
23 3 15 19 3 14 16 3 12 16 3 12 15 2 11 15 2 11 16 3 12 16 3 12 15 2 11 15 2 11 14 1 10 21 3 15 21 3 15 21 3 15 16 3 12 16 3 12 15 2 11 16 3 12 15 2 11 15 2 11 15 2 11 15 2 11 15 2 11 18 2 12 23 3 15 23 3 15 18 2 12 15 2 11 15 2 11 15 2 11 15 2 11 15 2 11 15 2 11 15 2 11 16 3 12 16 3 12 21 3 15 23 3 15 21 3 15 15 2 11 15 2 11 15 2 11 15 2 11 15 2 11 15 2 11 15 2 11 15 2 11 15 2 11 16 3 12 23 3 15 23 3 15 19 3 13 15 2 11 15 2 11 16 3 12 14 1 10 16 3 12 16 3 12 15 2 11 15 2 11 15 2 11 21 3 15 24 4 16 21 3 15 16 3 12 15 2 11 16 3 12 14 1 10 14 1 10 16 3 12 15 2 11 16 3 12 15 2 11 18 2 12 21 3 15 23 3 15 18 2 12 15 2 11 15 2 11 15 2 11 15 2 11 15 2 11 15 2 11 15 2 11 15 2 11 16 3 12 21 3 15 23 3 15 20 2 14 15 2 11 15 2 11 15 2 11 15 2 11 15 2 11 16 3 12 15 2 11 15 2 11 15 2 11 16 3 12 16 3 12 
24 4 16 19 3 14 16 3 12 16 3 12 15 2 11 18 2 12 15 2 11 15 2 11 16 3 12 16 3 12 16 3 12 21 3 15 21 3 15 21 3 15 16 3 12 16 3 12 15 2 11 15 2 11 15 2 11 16 3 12 15 2 11 15 2 11 15 2 11 18 2 12 24 4 16 23 3 15 17 1 11 15 2 11 15 2 11 15 2 11 15 2 11 15 2 11 15 2 11 15 2 11 16 3 12 16 3 12 21 3 15 23 3 15 21 3 15 15 2 11 15 2 11 15 2 11 15 2 11 15 2 11 15 2 11 15 2 11 15 2 11 15 2 11 16 3 12 22 2 14 24 4 16 18 2 12 15 2 11 16 3 12 16 3 12 15 2 11 16 3 12 15 2 11 15 2 11 16 3 12 16 3 12 21 3 15 23 3 15 20 2 14 15 2 11 15 2 11 15 2 11 15 2 11 15 2 11 15 2 11 15 2 11 15 2 11 15 2 11 18 2 12 21 3 15 23 3 15 18 2 12 15 2 11 15 2 11 15 2 11 15 2 11 15 2 11 16 3 12 15 2 11 15 2 11 15 2 11 21 3 15 23 3 15 20 2 14 15 2 11 15 2 11 15 2 11 15 2 11 15 2 11 16 3 12 15 2 11 15 2 11 15 2 11 16 3 12 16 3 12 
23 3 15 18 2 13 16 3 12 15 2 11 15 2 11 17 1 11 16 3 12 16 3 12 16 3 12 16 3 12 16 3 12 21 3 15 21 3 15 21 3 15 16 3 12 16 3 12 15 2 11 16 3 12 15 2 11 15 2 11 15 2 11 15 2 11 15 2 11 18 2 12 24 4 16 24 4 16 18 2 12 16 3 12 15 2 11 16 3 12 15 2 11 15 2 11 15 2 11 15 2 11 16 3 12 16 3 12 21 3 15 23 3 15 21 3 15 15 2 11 15 2 11 15 2 11 15 2 11 15 2 11 15 2 11 15 2 11 15 2 11 15 2 11 17 4 13 24 4 16 23 3 15 18 2 12 15 2 11 15 2 11 15 2 11 15 2 11 16 3 12 15 2 11 15 2 11 16 3 12 16 3 12 21 3 15 23 3 15 20 2 14 15 2 11 15 2 11 16 3 12 15 2 11 15 2 11 16 3 12 15 2 11 15 2 11 15 2 11 18 2 12 21 3 15 23 3 15 18 2 12 15 2 11 15 2 11 15 2 11 15 2 11 15 2 11 16 3 12 15 2 11 15 2 11 15 2 11 21 3 15 23 3 15 21 3 15 15 2 11 15 2 11 15 2 11 16 3 12 15 2 11 14 1 10 15 2 11 15 2 11 16 3 12 15 2 11 16 3 12 
23 3 15 19 3 14 15 2 11 16 3 12 15 2 11 15 2 11 15 2 11 15 2 11 15 2 11 15 2 11 14 1 10 21 3 15 21 3 15 21 3 15 16 3 12 16 3 12 15 2 11 15 2 11 15 2 11 16 3 12 15 2 11 15 2 11 15 2 11 18 2 12 23 3 15 23 3 15 18 2 12 16 3 12 15 2 11 15 2 11 14 1 10 15 2 11 15 2 11 15 2 11 16 3 12 16 3 12 21 3 15 23 3 15 21 3 15 15 2 11 15 2 11 15 2 11 15 2 11 15 2 11 15 2 11 15 2 11 15 2 11 15 2 11 16 3 12 23 3 15 23 3 15 18 2 12 16 3 12 16 3 12 15 2 11 15 2 11 16 3 12 16 3 12 15 2 11 15 2 11 15 2 11 21 3 15 24 4 16 21 3 15 16 3 12 16 3 12 15 2 11 16 3 12 16 3 12 15 2 11 16 3 12 16 3 12 15 2 11 18 2 12 21 3 15 23 3 15 18 2 12 15 2 11 15 2 11 15 2 11 15 2 11 15 2 11 15 2 11 15 2 11 15 2 11 16 3 12 21 3 15 23 3 15 21 3 15 15 2 11 15 2 11 15 2 11 15 2 11 15 2 11 15 2 11 15 2 11 15 2 11 15 2 11 15 2 11 15 2 11 
23 3 15 18 2 13 16 3 12 15 2 11 16 3 12 14 1 10 15 2 11 15 2 11 15 2 11 16 3 12 16 3 12 21 3 15 23 3 15 20 2 14 15 2 11 15 2 11 15 2 11 15 2 11 15 2 11 15 2 11 15 2 11 15 2 11 15 2 11 18 2 12 24 4 16 23 3 15 18 2 12 15 2 11 16 3 12 16 3 12 16 3 12 15 2 11 15 2 11 15 2 11 16 3 12 16 3 12 21 3 15 23 3 15 21 3 15 15 2 11 15 2 11 15 2 11 15 2 11 15 2 11 15 2 11 15 2 11 15 2 11 15 2 11 16 3 12 24 4 16 23 3 15 18 2 12 16 3 12 16 3 12 16 3 12 15 2 11 16 3 12 16 3 12 15 2 11 15 2 11 15 2 11 21 3 15 24 4 16 21 3 15 15 2 11 15 2 11 15 2 11 15 2 11 15 2 11 15 2 11 15 2 11 15 2 11 15 2 11 18 2 12 21 3 15 23 3 15 18 2 12 15 2 11 15 2 11 15 2 11 15 2 11 15 2 11 16 3 12 15 2 11 15 2 11 15 2 11 21 3 15 23 3 15 20 2 14 15 2 11 15 2 11 15 2 11 15 2 11 15 2 11 16 3 12 16 3 12 15 2 11 16 3 12 15 2 11 15 2 11 
23 3 15 18 2 13 15 2 11 15 2 11 16 3 12 15 2 11 15 2 11 17 1 11 15 2 11 15 2 11 15 2 11 21 3 15 23 3 15 21 3 15 15 2 11 15 2 11 15 2 11 15 2 11 15 2 11 15 2 11 15 2 11 15 2 11 15 2 11 18 2 12 23 3 15 24 4 16 18 2 12 16 3 12 15 2 11 16 3 12 16 3 12 16 3 12 15 2 11 15 2 11 16 3 12 16 3 12 21 3 15 23 3 15 21 3 15 15 2 11 15 2 11 15 2 11 15 2 11 15 2 11 15 2 11 15 2 11 15 2 11 15 2 11 17 4 13 23 3 15 23 3 15 18 2 12 16 3 12 16 3 12 15 2 11 15 2 11 16 3 12 15 2 11 15 2 11 16 3 12 16 3 12 21 3 15 23 3 15 20 2 14 15 2 11 16 3 12 15 2 11 15 2 11 15 2 11 15 2 11 16 3 12 15 2 11 15 2 11 18 2 12 21 3 15 23 3 15 18 2 12 15 2 11 15 2 11 15 2 11 15 2 11 15 2 11 15 2 11 15 2 11 15 2 11 16 3 12 21 3 15 23 3 15 21 3 15 15 2 11 15 2 11 15 2 11 15 2 11 15 2 11 15 2 11 15 2 11 15 2 11 15 2 11 15 2 11 15 2 11 
