P3
100 50
255
90 98 77 91 100 79 92 102 78 90 102 80 86 95 74 45 22 32 39 13 26 41 15 28 51 17 33 71 60 58 91 103 81 91 100 79 90 102 80 93 102 81 68 61 55 48 16 31 50 16 32 48 16 31 40 13 28 39 13 26 40 14 27 39 13 26 42 14 28 49 17 32 50 16 32 42 14 28 41 13 27 39 13 26 41 15 28 41 13 27 48 16 31 50 16 32 49 17 32 40 14 27 40 14 27 40 14 27 40 12 26 45 14 29 52 24 36 81 81 69 91 101 77 78 79 65 46 23 33 41 13 28 40 14 27 47 15 30 50 16 32 72 61 57 92 101 80 92 101 80 91 100 79 92 101 80 69 60 55 50 16 33 50 16 32 43 15 29 40 14 27 40 14 27 39 13 26 40 14 27 48 16 31 50 16 32 47 14 31 39 13 26 39 13 26 39 13 26 68 59 54 92 101 80 92 101 80 92 101 80 91 101 77 67 57 55 41 13 27 40 14 27 41 13 27 48 16 31 49 17 32 47 16 31 38 12 25 41 13 27 41 13 27 54 37 43 82 86 69 91 99 78 75 68 62 71 64 58 93 102 81 93 103 79 94 102 81 91 100 79 70 59 55 50 16 32 48 15 32 40 14 27 40 14 27 41 13 27 40 14 27 42 14 28 50 16 32 50 16 32 
89 97 76 91 100 79 91 100 79 90 102 80 87 95 74 45 22 32 43 12 30 43 15 29 48 16 31 70 61 56 91 100 79 91 100 79 91 103 81 89 101 77 68 61 55 48 15 32 50 16 32 48 15 32 41 13 27 42 14 28 40 12 26 41 13 27 42 14 28 49 17 32 50 16 33 44 13 28 40 14 27 40 14 27 39 13 26 40 12 26 48 16 31 51 17 33 49 17 32 40 14 27 39 13 26 40 14 27 40 12 26 42 14 28 81 79 67 90 102 78 91 103 81 89 101 79 79 81 67 41 13 27 37 13 26 48 16 31 49 17 32 72 61 57 91 100 79 91 100 79 93 101 80 90 102 80 69 59 57 50 16 32 50 16 32 42 14 28 41 13 27 40 12 26 41 13 27 39 15 28 48 16 31 50 16 33 47 14 31 40 14 27 41 15 28 40 14 27 69 60 55 91 100 79 92 101 80 91 100 79 92 102 78 67 57 55 40 12 26 39 13 26 42 14 28 49 17 32 50 16 32 47 16 32 40 12 26 40 13 28 43 22 31 87 94 76 92 102 78 91 101 77 92 101 80 89 98 79 92 102 78 92 102 78 92 101 80 90 102 80 71 62 57 50 16 32 48 16 31 40 14 27 40 14 27 40 12 27 40 14 25 42 14 28 50 16 32 51 17 33 
89 97 76 91 100 79 93 102 81 90 102 80 87 94 76 44 21 31 40 14 27 42 14 28 50 16 32 71 60 56 92 101 80 90 102 80 92 101 80 92 101 80 67 60 54 48 15 32 50 16 32 47 16 31 39 13 26 41 13 27 40 14 27 40 14 27 42 14 28 50 16 32 50 16 32 42 14 28 41 13 27 41 13 27 40 12 27 39 12 27 48 15 32 50 16 32 48 16 31 39 12 27 39 13 24 40 14 27 40 14 27 40 14 27 89 96 78 92 102 78 91 100 79 91 100 79 89 93 76 43 20 30 40 14 27 48 15 32 50 16 32 72 61 57 92 101 80 92 101 80 92 101 80 90 102 80 70 60 58 50 15 35 51 17 34 42 14 28 40 13 30 40 14 27 40 14 27 41 13 27 48 16 31 51 17 34 48 15 32 40 14 27 41 13 27 40 14 27 68 61 55 92 101 80 92 101 80 91 100 79 92 102 78 67 58 53 41 13 27 39 13 26 41 13 27 48 16 31 50 16 32 48 16 31 40 14 27 40 14 27 53 34 38 93 102 81 91 100 79 92 102 78 91 100 79 92 101 80 90 102 80 91 100 79 90 99 78 92 101 80 71 60 56 48 16 31 48 15 32 40 14 27 40 14 27 39 13 26 40 14 27 42 14 28 50 16 32 49 16 33 
89 97 76 92 101 80 91 100 79 89 101 79 87 94 76 44 21 31 41 15 28 42 14 28 50 16 32 71 60 56 92 101 80 89 101 79 90 102 80 92 101 80 68 61 55 48 15 32 50 16 32 47 16 31 40 14 27 39 13 26 40 14 27 39 13 26 42 14 28 50 16 32 50 16 32 42 14 28 40 12 26 41 13 27 39 13 26 40 12 27 47 14 31 50 16 33 48 16 31 41 13 27 40 12 26 40 14 27 41 15 28 42 14 26 90 99 78 92 102 78 92 101 80 92 100 79 88 96 75 44 21 31 41 13 27 48 15 32 50 16 32 72 61 57 92 101 80 92 101 80 92 101 80 92 101 80 69 59 57 50 16 33 50 16 33 42 14 28 40 13 28 40 14 27 40 14 27 41 13 27 47 15 30 50 16 30 48 16 31 40 14 27 40 12 26 40 14 27 67 60 54 92 101 80 92 101 80 92 101 80 92 102 78 68 59 54 41 13 27 40 14 27 41 13 27 48 16 31 50 16 32 48 16 31 40 14 27 40 14 27 54 35 39 93 102 81 91 100 79 93 103 79 93 102 81 92 101 80 90 102 80 92 101 80 93 102 81 92 101 80 71 60 56 49 17 32 48 15 32 40 14 27 40 14 27 39 13 26 40 14 27 42 14 28 50 16 32 49 16 33 
88 96 75 92 101 80 91 100 79 91 103 81 87 94 76 45 22 32 40 14 27 43 15 29 50 16 32 72 61 57 91 100 79 90 102 80 91 100 79 91 100 79 66 59 53 49 15 32 50 16 32 47 16 31 41 13 27 41 13 27 39 13 26 40 14 27 42 14 28 50 16 32 50 16 32 42 14 28 41 13 27 40 12 26 40 14 27 38 14 27 48 15 32 50 16 32 48 16 31 40 14 27 39 13 26 40 14 25 41 13 27 42 14 28 90 98 77 91 100 79 92 102 78 91 100 79 86 95 74 45 22 32 40 14 27 48 15 32 50 16 32 72 61 57 92 101 80 92 101 80 92 101 80 90 102 80 69 59 57 50 16 32 50 16 33 43 15 29 40 14 27 40 14 27 40 14 27 41 13 27 48 16 31 51 17 33 47 14 31 40 14 27 40 12 26 40 14 27 68 61 55 92 101 80 90 99 78 92 101 80 92 102 78 67 58 53 41 13 27 40 14 27 41 13 27 48 16 31 50 16 32 47 15 30 40 14 27 40 14 27 53 34 38 92 101 80 92 101 80 92 102 78 92 101 80 91 100 79 90 102 80 91 100 79 93 102 81 91 100 79 71 60 56 50 16 32 48 15 32 40 14 27 40 14 27 39 13 26 40 14 27 42 14 28 50 16 32 49 16 33 
89 97 76 92 101 80 92 101 80 89 101 79 87 94 76 44 21 31 40 14 27 42 14 28 50 16 32 71 60 56 92 101 80 90 102 80 90 102 80 92 101 80 67 60 54 48 15 32 50 16 32 47 16 31 39 13 26 40 14 27 40 14 27 38 12 25 42 14 28 50 16 33 50 16 33 42 14 28 39 11 25 41 13 27 41 15 28 39 13 26 47 15 30 50 16 33 48 16 31 40 12 24 49 28 35 59 45 45 53 37 40 45 17 31 89 98 77 92 102 78 91 100 79 91 100 79 89 93 76 44 21 31 41 13 27 48 15 32 50 16 32 72 61 57 92 101 80 92 101 80 92 101 80 92 101 80 69 59 57 50 16 32 50 16 33 43 15 29 40 14 27 40 14 27 39 13 26 41 13 27 48 16 31 50 16 33 48 15 32 40 14 27 41 13 27 40 14 27 68 61 55 92 101 80 92 101 80 91 100 79 92 101 80 68 59 54 41 13 27 39 13 26 41 13 27 47 15 30 50 16 32 47 15 30 40 14 27 39 13 26 54 35 39 92 101 80 91 100 79 92 102 78 91 100 79 93 102 81 90 102 80 94 103 82 91 100 79 91 100 79 71 60 56 50 16 32 48 15 32 40 14 27 40 14 27 40 14 27 39 13 26 42 14 28 50 16 32 49 16 33 
89 97 76 92 101 80 92 101 80 91 103 81 87 94 76 44 21 31 40 14 27 42 14 28 50 16 32 71 60 56 92 101 80 90 102 80 89 101 79 92 101 80 67 60 54 48 15 32 50 16 32 46 15 30 40 14 27 39 13 26 40 14 27 40 14 27 42 14 28 50 16 33 50 16 33 42 14 28 41 13 27 41 13 27 40 14 27 40 14 27 47 16 31 49 17 32 49 16 33 50 31 37 86 94 73 92 101 80 92 102 77 75 71 62 89 98 77 91 100 79 92 102 78 92 102 78 88 96 75 45 21 34 40 14 27 48 15 32 50 16 32 72 61 57 92 101 80 92 101 80 92 101 80 90 102 80 69 60 55 50 16 32 50 16 32 43 15 29 40 14 27 40 14 27 39 13 26 41 13 27 47 15 30 50 16 30 47 15 30 41 15 28 40 12 26 40 14 27 66 59 53 93 102 81 91 100 79 91 101 77 90 99 78 67 58 53 41 13 27 39 13 26 41 13 27 48 16 31 50 16 32 48 16 31 40 14 27 39 13 26 55 36 40 92 101 80 92 101 80 92 102 78 91 100 79 92 101 80 92 101 80 93 102 81 93 102 81 89 101 79 72 61 57 50 16 32 48 15 32 40 14 27 40 14 27 39 13 26 40 14 27 42 14 28 50 16 32 49 16 33 
89 97 76 94 103 82 93 102 81 89 101 79 87 94 76 45 22 32 40 14 27 43 15 29 50 16 32 72 61 57 91 100 79 90 102 80 91 100 79 91 100 79 67 60 54 49 15 32 50 16 32 47 16 31 40 12 26 40 12 26 40 14 27 40 14 27 42 14 28 50 16 32 50 16 32 42 14 28 41 13 27 41 13 27 42 14 28 40 14 27 46 15 30 52 15 32 47 16 32 72 68 59 91 103 81 90 102 80 90 102 80 92 102 78 91 100 79 91 100 79 92 102 78 92 101 80 86 93 75 43 22 31 41 13 27 48 15 32 50 16 32 72 61 57 92 101 80 92 101 80 92 101 80 92 101 80 69 60 55 50 16 32 50 16 32 43 15 29 40 14 27 40 14 27 41 15 28 41 13 27 47 15 30 50 16 32 48 15 32 41 15 28 40 12 26 39 13 26 68 61 55 91 100 79 93 102 81 92 102 78 93 102 81 68 59 54 39 11 25 40 14 27 41 13 27 47 15 30 50 16 32 48 16 31 40 14 27 39 13 26 54 35 39 91 100 79 92 101 80 91 101 77 92 101 80 93 102 81 92 101 80 93 102 81 90 102 80 90 102 80 70 59 55 50 16 32 48 15 32 40 14 27 39 13 26 39 13 26 40 14 27 42 14 28 50 16 32 49 16 33 
89 97 76 92 101 80 92 101 80 90 102 80 87 94 76 44 21 31 41 15 28 42 14 28 50 16 32 71 60 56 92 101 80 89 101 79 90 102 80 92 101 80 67 60 54 48 15 32 50 16 32 47 16 31 39 13 26 40 14 27 40 14 27 40 14 27 42 14 28 50 16 32 50 16 32 42 14 28 41 13 27 41 13 27 39 13 26 40 14 27 48 16 31 50 16 32 49 15 31 75 76 62 91 100 79 90 102 82 90 102 80 92 102 78 90 102 80 92 101 80 93 102 81 92 101 80 87 95 74 45 22 32 40 14 27 48 15 32 50 16 32 72 61 57 92 101 80 92 101 80 92 101 80 90 102 80 69 60 55 50 16 32 50 16 32 42 14 28 40 14 27 39 13 26 40 14 27 41 13 27 48 16 31 50 16 33 47 14 33 39 13 26 41 13 27 40 14 27 67 60 54 93 102 81 92 101 80 92 102 78 91 100 79 68 59 54 41 13 27 40 14 27 41 13 27 47 15 30 50 16 32 46 14 29 41 15 28 39 13 26 52 33 37 92 101 80 92 101 80 91 101 77 89 101 79 92 101 80 91 100 79 91 100 79 89 101 79 89 101 79 71 60 56 50 16 32 48 15 32 40 14 27 40 14 27 39 13 26 40 14 27 42 14 28 50 16 32 49 16 33 
88 96 75 91 100 79 92 101 80 90 102 80 87 94 76 44 21 31 40 14 27 42 14 28 50 16 32 71 60 56 92 101 80 90 102 80 91 100 79 91 100 79 67 60 54 48 15 32 50 16 32 47 16 31 39 13 26 40 12 26 39 13 26 40 14 27 42 14 28 50 16 32 50 16 32 42 14 28 41 13 27 40 12 26 41 15 28 41 15 28 47 16 31 50 16 32 48 16 31 74 74 62 93 102 81 91 101 77 91 100 79 90 102 80 91 100 79 91 101 77 92 101 80 92 101 80 86 95 76 45 22 32 40 14 27 48 15 32 50 16 32 72 61 57 92 101 80 92 101 80 92 101 80 92 101 80 70 61 56 49 15 31 50 16 32 42 14 28 40 14 27 39 13 26 39 13 26 41 13 27 47 15 30 50 16 32 47 15 30 40 14 27 41 13 27 40 14 27 67 60 54 91 100 79 92 101 80 91 101 77 92 101 80 68 59 54 41 13 27 40 14 27 41 13 27 48 16 31 50 16 32 47 15 30 39 13 26 40 14 27 54 35 39 91 100 79 92 101 80 92 102 78 90 102 80 92 101 80 92 101 80 90 102 80 89 101 79 89 101 79 71 60 56 50 16 32 48 15 32 40 14 27 40 14 27 40 14 27 39 13 26 42 14 28 50 16 32 49 16 33 
90 98 77 92 101 80 89 101 79 91 100 79 87 94 76 44 21 31 41 15 28 42 14 28 49 17 32 71 60 56 90 99 78 92 101 80 91 101 77 90 102 80 68 61 55 47 16 32 51 17 34 47 16 31 40 14 27 41 13 27 40 14 27 39 13 26 42 14 28 49 17 32 50 16 32 42 14 28 41 13 27 40 14 27 39 13 26 40 14 27 47 14 31 49 17 32 48 16 31 75 75 63 90 102 80 92 101 80 91 100 79 92 101 80 91 100 79 92 101 80 89 101 79 91 100 79 87 94 76 44 21 31 40 14 27 47 15 30 50 16 32 70 61 56 92 101 80 91 100 79 92 101 80 91 100 79 69 60 55 50 16 32 50 16 32 42 14 29 40 12 26 40 14 27 41 15 28 40 14 25 48 16 31 50 16 33 47 16 31 41 13 28 40 14 27 41 13 27 67 60 54 90 102 78 90 102 80 92 101 80 91 103 81 66 58 55 40 14 27 39 13 26 41 13 27 47 15 30 50 16 32 48 16 31 40 14 27 40 14 27 52 36 39 91 100 79 91 100 79 91 100 79 91 100 79 91 100 79 91 100 79 92 101 80 92 101 80 90 102 80 71 60 58 50 16 32 48 16 31 40 14 27 41 13 27 40 14 27 40 14 27 42 14 28 50 16 32 50 16 32 
89 97 76 91 100 79 90 102 80 91 100 79 86 93 75 45 22 32 39 13 26 43 15 29 49 17 32 71 60 56 92 101 80 91 100 79 91 101 77 91 100 79 67 60 54 47 15 30 50 16 32 49 17 32 38 14 27 39 13 24 40 14 27 40 14 27 42 14 28 50 16 32 50 16 32 42 14 28 40 14 27 41 13 27 40 14 27 41 15 28 48 15 32 49 17 32 49 17 32 75 75 63 90 102 80 92 101 80 92 101 80 92 101 80 92 101 80 91 100 79 89 101 79 92 101 80 87 94 76 45 22 32 39 13 26 47 14 31 50 16 33 69 60 55 92 101 80 92 101 80 90 102 80 92 101 80 69 60 53 51 17 33 51 17 33 42 14 28 40 14 27 40 14 27 41 13 28 40 12 26 47 16 31 50 16 32 47 14 31 41 13 27 40 14 27 40 14 27 67 60 54 90 102 80 92 101 80 89 101 79 89 101 79 66 58 55 40 14 27 41 15 28 40 14 27 48 16 31 51 17 33 48 16 31 40 14 27 40 14 27 54 35 39 91 100 79 91 100 79 89 101 79 91 100 79 91 100 79 91 100 79 92 101 80 92 101 80 92 101 80 71 60 58 50 16 32 48 16 31 40 14 27 41 13 27 40 14 27 39 13 26 42 14 28 50 16 32 50 16 32 
90 98 77 91 100 79 89 101 79 92 101 80 86 93 75 45 22 32 40 14 27 42 14 28 49 17 32 71 60 56 91 100 79 92 101 80 91 100 79 89 101 79 68 61 55 48 16 31 50 16 33 47 16 31 40 14 27 41 13 27 40 14 27 40 14 27 45 14 29 49 17 32 50 16 32 42 14 28 41 13 27 39 13 26 39 13 26 40 14 27 47 14 31 49 17 32 48 16 31 76 76 64 90 102 80 92 101 80 91 100 79 92 101 80 91 100 79 92 101 80 90 102 80 91 100 79 87 94 76 45 22 32 41 13 27 48 16 31 52 15 32 71 62 57 89 101 79 92 101 80 92 101 80 91 100 79 68 60 57 49 16 33 50 16 32 44 13 29 41 13 28 40 14 27 40 14 27 39 13 26 45 14 29 49 17 32 47 14 31 41 13 25 41 13 27 40 12 26 68 59 54 90 102 80 93 101 80 89 101 79 92 101 80 66 58 55 40 14 27 41 13 27 40 14 27 49 15 31 51 17 33 47 15 30 40 14 27 39 13 26 52 36 39 92 101 80 92 101 80 91 100 79 91 100 79 90 102 80 91 100 79 91 100 79 89 101 79 92 101 80 71 60 58 50 16 32 48 16 31 40 14 27 41 13 27 39 13 26 40 14 27 42 14 28 50 16 32 50 16 32 
88 96 75 92 101 80 89 101 79 91 100 79 86 93 75 44 21 31 39 13 26 43 15 29 49 17 32 71 60 56 91 100 79 92 101 80 89 101 79 92 101 80 67 60 54 48 16 31 50 16 33 47 16 32 40 12 24 40 14 27 40 14 27 41 13 27 42 14 28 50 16 32 49 17 32 42 14 28 40 14 27 40 12 26 40 12 26 40 14 27 48 15 32 49 17 32 48 16 31 74 74 62 90 102 80 92 101 80 91 100 79 91 100 79 92 101 80 91 100 79 89 101 79 92 101 80 86 93 75 44 21 31 39 13 26 48 16 31 50 16 32 70 61 56 91 100 79 91 100 79 90 102 80 92 101 80 68 60 57 49 17 32 50 16 33 44 13 28 40 14 27 40 13 28 39 13 26 40 14 27 47 15 30 49 15 32 47 16 31 40 12 26 42 14 28 41 13 27 67 60 54 90 102 78 89 101 79 91 100 79 91 100 79 65 57 54 40 14 27 41 13 27 41 13 27 46 14 29 49 17 32 48 16 31 42 14 28 41 13 27 55 34 39 90 102 80 91 100 79 90 102 80 91 100 79 89 101 79 91 100 79 92 101 80 90 102 80 89 101 79 70 60 58 50 16 32 48 16 31 40 14 27 41 13 27 40 14 27 39 13 26 42 14 28 50 16 32 50 16 32 
89 97 76 91 100 79 89 101 79 92 101 80 87 94 76 44 21 31 40 14 27 43 15 29 49 17 32 70 59 55 91 100 79 91 100 79 89 101 79 91 100 79 69 62 54 61 45 48 79 77 65 73 69 60 48 25 35 39 12 27 40 14 27 40 14 27 45 13 28 50 16 32 50 16 32 41 15 28 41 13 27 40 14 27 40 12 26 40 14 27 47 14 31 49 17 32 48 16 31 76 76 64 92 101 80 93 102 81 92 101 80 92 101 80 91 100 79 91 100 79 89 101 79 91 100 79 87 94 76 44 21 31 41 15 28 47 14 31 50 16 33 71 62 57 91 100 79 92 101 80 90 102 80 91 100 79 69 59 57 49 16 33 49 16 35 42 14 28 40 13 28 41 13 28 43 17 28 49 23 34 49 18 33 49 15 32 48 16 31 40 14 27 39 13 26 41 13 27 66 59 53 92 102 78 89 101 79 91 100 79 92 101 80 66 58 55 41 15 28 39 11 25 41 13 27 48 16 31 50 16 32 47 15 30 40 14 27 38 12 25 52 36 39 92 101 80 92 101 80 92 101 80 91 100 79 89 101 79 91 100 79 93 102 81 89 101 79 90 102 80 71 61 59 50 16 32 48 16 31 40 14 27 41 13 27 40 14 27 39 13 26 42 14 28 50 16 32 50 16 32 
89 97 76 91 100 79 89 101 79 92 101 80 86 93 75 45 22 32 39 13 26 42 14 28 49 17 32 71 60 56 91 100 79 91 100 79 91 101 77 90 102 82 84 88 71 89 101 79 91 100 79 90 99 78 81 85 70 44 18 31 40 14 27 40 12 26 42 14 28 50 16 32 50 16 32 42 14 28 40 14 27 41 13 27 42 14 28 41 15 28 49 16 33 49 17 32 48 16 31 75 75 63 91 100 79 91 100 79 91 100 79 91 100 79 92 101 80 91 100 79 88 100 78 92 101 80 87 94 76 44 21 31 40 12 26 47 14 31 52 15 33 70 61 56 90 102 80 91 100 79 91 100 79 92 101 80 68 60 57 50 16 32 50 16 32 42 14 29 41 13 27 50 29 36 83 87 70 90 99 80 87 89 75 57 34 42 47 14 31 38 14 27 40 12 26 40 14 25 68 59 54 92 101 80 92 101 80 92 101 80 89 101 79 67 57 55 41 13 27 41 15 28 41 13 27 47 15 30 49 17 32 47 15 30 40 14 27 41 13 27 55 36 40 91 100 79 90 99 78 89 101 79 91 100 79 89 101 79 91 100 79 90 99 78 89 101 79 90 99 78 71 60 58 50 16 32 48 16 31 40 14 27 41 13 27 39 13 26 40 14 27 42 14 28 50 16 32 50 16 32 
87 95 74 91 100 79 89 101 79 91 100 79 86 93 75 45 22 32 40 14 27 42 14 28 49 17 32 70 59 55 91 100 79 91 100 79 89 101 79 92 101 80 91 100 79 90 102 80 89 101 79 90 102 80 91 101 77 51 32 38 40 14 27 40 14 27 42 14 28 49 17 32 50 16 32 42 14 28 41 13 27 40 14 27 41 13 27 40 14 27 47 14 31 50 16 32 48 16 31 75 75 63 92 101 80 91 100 79 91 100 79 91 100 79 91 100 79 91 100 79 90 102 80 91 100 79 87 94 76 44 21 31 40 14 27 48 16 31 50 16 32 71 62 57 90 99 78 91 100 79 89 101 79 91 100 79 69 60 55 50 17 36 49 15 32 42 14 29 41 15 28 80 82 69 92 101 80 92 102 78 90 99 78 82 83 69 47 16 32 40 12 26 41 13 27 40 12 26 67 60 54 89 101 79 90 99 78 88 100 78 89 101 79 65 57 54 39 13 26 40 14 27 39 13 26 48 16 31 50 16 32 48 16 31 40 14 27 39 13 26 53 37 40 92 101 80 91 100 79 91 100 79 91 100 79 93 102 81 92 101 80 91 100 79 92 101 80 90 99 78 71 60 58 50 16 32 48 16 31 40 14 27 41 13 27 40 14 27 39 13 26 42 14 28 50 16 32 50 16 32 
89 97 76 92 101 80 89 101 79 92 101 80 86 93 75 44 21 31 39 13 26 42 14 28 49 17 32 70 59 55 92 101 80 91 100 79 91 100 79 89 101 79 91 100 79 89 101 79 91 100 79 88 100 78 92 102 78 52 35 41 40 14 27 40 14 27 42 14 28 50 16 32 50 16 32 42 14 28 41 13 27 40 12 26 41 13 27 40 14 27 48 15 32 50 16 32 48 16 31 75 75 63 91 100 79 92 101 80 92 101 80 91 100 79 92 101 80 90 99 78 89 101 79 91 100 79 86 93 75 44 21 31 39 13 26 47 14 31 50 16 33 71 62 57 90 99 78 92 101 80 91 100 79 91 100 79 71 62 57 50 16 32 49 16 33 41 13 28 43 20 30 86 93 75 90 102 78 89 101 79 91 101 77 89 98 77 47 15 30 42 14 28 39 13 26 41 15 28 66 59 53 91 100 79 89 101 79 88 100 78 92 101 80 65 57 54 40 14 27 40 12 26 39 13 26 48 16 31 51 17 33 47 15 30 39 13 26 40 14 27 53 34 38 90 99 78 91 100 79 89 101 79 91 100 79 91 100 79 91 100 79 91 100 79 91 100 79 88 100 78 72 61 59 50 16 32 48 16 31 40 14 27 41 13 27 40 14 27 40 14 27 42 14 28 50 16 32 50 16 32 
88 95 77 91 101 77 91 100 79 91 100 79 87 94 76 44 21 31 40 14 27 42 14 28 49 17 32 71 60 56 91 100 79 92 101 80 92 101 80 91 100 79 89 101 79 89 101 79 91 100 79 91 100 79 91 100 79 52 36 39 39 13 26 40 12 27 42 14 28 49 17 32 50 16 32 42 14 29 41 15 26 41 13 27 40 14 27 41 13 28 47 16 31 49 17 32 47 16 32 74 74 62 92 101 82 89 101 79 92 101 80 91 100 79 89 101 79 91 100 79 91 100 79 90 99 78 86 93 75 43 20 30 40 14 27 47 14 31 49 15 31 71 60 56 91 100 79 92 101 80 91 100 79 91 100 79 69 60 55 50 16 32 49 16 33 42 14 28 44 21 31 86 93 75 92 101 80 92 101 80 91 100 79 88 97 76 48 15 32 41 13 27 40 14 27 40 14 27 67 60 54 88 100 78 91 100 79 91 101 77 90 99 78 66 58 55 39 13 26 40 12 27 40 13 28 48 16 31 50 16 33 47 14 31 39 13 26 40 14 27 52 36 39 89 101 79 90 102 78 92 101 80 90 99 78 91 100 79 92 101 80 92 102 78 92 101 80 89 101 79 72 61 59 50 16 32 49 15 31 41 13 25 41 13 27 40 14 27 40 14 27 42 14 28 49 17 32 50 16 32 
88 95 77 90 99 78 91 100 79 92 101 80 86 93 75 45 22 32 39 13 26 42 14 28 49 17 32 70 59 55 91 100 79 91 100 79 91 100 79 91 100 79 89 101 79 91 100 79 89 101 79 91 100 79 92 101 80 52 36 39 41 13 27 40 13 28 44 13 28 50 16 32 48 16 31 42 14 29 40 12 26 41 15 28 41 15 28 41 13 27 48 16 31 49 15 32 47 15 30 73 75 62 91 100 79 91 100 79 91 100 79 92 101 80 90 102 80 92 101 80 91 100 79 91 100 79 87 94 76 45 22 32 39 13 26 47 14 31 50 16 32 71 60 56 91 100 79 91 100 79 90 99 78 91 100 79 70 61 56 50 16 32 49 16 33 42 14 28 44 21 31 86 93 75 91 100 79 90 99 78 91 100 79 88 97 76 48 15 32 40 12 26 39 13 26 40 14 27 67 60 54 89 101 79 95 100 80 89 101 79 91 100 81 66 59 53 40 14 27 39 13 26 40 13 28 48 15 32 49 15 31 48 16 31 41 13 27 40 14 27 52 36 39 91 100 79 91 100 79 91 100 79 91 100 79 89 101 79 90 99 78 90 102 78 90 99 78 92 102 78 70 59 55 49 17 32 47 15 30 39 13 26 41 13 27 40 14 27 39 13 26 42 14 28 49 15 31 50 16 32 
88 96 75 91 100 79 92 101 80 91 100 79 86 93 75 44 21 31 40 14 27 42 14 28 50 18 33 70 59 55 90 99 78 92 101 80 92 101 80 91 100 79 92 101 80 89 101 79 92 101 80 91 103 81 90 99 78 51 35 38 41 13 27 39 13 26 42 14 28 49 17 32 48 16 31 42 14 28 40 14 27 41 13 25 40 14 27 40 12 26 48 16 31 48 16 31 48 16 31 75 75 63 91 101 77 88 100 80 91 100 79 88 100 78 92 101 80 90 99 78 91 100 79 91 100 79 86 93 75 45 22 32 40 14 27 47 14 31 50 16 32 71 60 56 90 99 78 92 101 80 90 99 78 91 100 79 68 59 54 49 15 31 49 16 33 42 14 28 44 21 31 86 93 75 91 100 79 91 100 79 91 100 79 88 97 76 47 14 31 41 13 27 40 14 27 39 13 26 67 60 54 89 101 79 89 101 79 91 101 77 92 101 80 67 60 54 54 35 41 66 56 54 59 47 47 50 22 36 49 15 31 47 16 31 40 14 27 41 13 27 52 36 39 91 100 79 91 100 79 91 100 79 92 101 80 89 101 79 91 100 79 89 101 79 89 101 79 92 101 80 70 60 58 50 16 32 50 16 32 39 13 26 39 13 26 39 11 25 39 12 27 43 15 29 50 16 32 49 17 32 
88 96 75 91 100 79 90 99 78 91 100 79 85 92 74 44 21 31 39 13 26 42 14 28 49 17 32 71 60 56 91 100 79 90 99 78 92 101 80 90 99 78 89 101 79 90 99 78 88 100 78 92 101 80 91 100 79 52 36 39 40 12 27 41 13 27 42 14 28 49 16 33 50 17 34 41 15 28 39 13 26 40 14 27 41 13 28 62 54 51 83 85 71 83 85 71 64 48 49 77 75 62 91 100 79 91 100 79 90 99 78 90 102 80 92 101 80 91 100 79 91 100 79 90 99 78 87 94 76 44 21 31 40 14 27 48 15 32 50 16 32 70 59 55 91 100 79 91 100 79 92 101 80 91 100 79 69 60 55 50 16 32 50 17 34 42 14 28 44 21 31 86 93 75 90 99 78 91 100 79 91 100 79 88 97 76 48 15 32 41 13 27 39 13 26 39 13 26 67 60 54 89 101 79 89 101 77 91 100 79 91 100 79 77 77 65 87 94 76 91 100 79 92 102 78 77 78 64 50 18 31 47 16 31 40 14 27 40 14 27 52 36 39 89 101 77 90 99 78 91 100 79 89 101 77 91 100 79 90 99 78 92 101 80 89 101 79 92 101 80 69 64 58 73 64 59 85 89 72 79 80 66 52 33 37 40 14 27 40 14 27 42 14 28 50 16 32 56 28 40 
88 96 75 91 101 77 91 100 79 91 100 79 86 93 75 44 21 31 39 13 26 42 14 28 50 18 33 70 59 55 91 100 79 90 99 78 90 102 80 92 101 80 90 99 78 89 101 79 91 100 79 89 101 79 92 101 80 51 35 38 39 13 26 40 12 24 42 14 28 50 16 32 50 16 32 46 23 31 46 25 34 42 15 30 53 37 40 91 100 79 91 100 79 90 102 78 90 99 78 85 94 73 90 99 78 89 101 79 92 101 80 89 101 79 91 100 79 91 100 79 91 100 79 90 99 78 86 93 75 43 20 30 39 13 26 48 15 32 50 16 32 71 60 56 91 100 79 91 100 79 91 100 79 91 100 79 69 60 55 49 15 31 49 16 33 42 14 28 44 21 31 87 94 76 91 100 79 91 100 79 91 100 79 88 97 76 48 15 32 41 13 27 39 13 26 40 14 27 67 60 54 89 101 79 89 101 79 88 100 78 89 101 79 89 101 79 89 101 79 92 102 78 92 102 78 92 101 80 58 32 43 47 14 31 40 12 26 40 12 26 54 35 39 91 100 79 90 102 80 89 101 79 92 101 80 91 101 77 91 100 79 92 101 80 90 99 78 91 100 79 89 97 76 91 100 79 89 101 79 91 100 79 87 95 74 45 24 31 39 13 24 43 15 29 48 16 31 60 39 46 
88 95 77 91 100 79 92 101 80 91 100 79 86 93 75 45 22 32 41 15 28 42 14 28 48 16 31 71 60 56 90 99 78 90 99 78 91 100 79 91 100 79 88 100 78 91 100 79 89 101 79 90 99 78 91 100 79 52 36 39 40 12 26 40 14 27 44 13 28 49 17 32 64 45 47 88 92 75 89 97 76 74 74 62 68 63 57 92 101 80 89 101 79 88 100 78 89 101 79 88 100 78 89 101 79 92 101 80 92 101 80 90 102 80 91 100 79 91 100 79 92 101 80 91 100 79 87 94 76 44 21 31 39 13 26 48 15 32 50 16 32 71 60 56 92 101 80 90 99 78 92 101 80 90 99 78 68 59 54 49 15 31 49 16 33 42 14 28 44 21 31 86 93 75 91 100 79 91 100 79 90 99 78 88 97 76 48 15 32 41 13 27 40 14 27 40 14 27 67 60 54 89 101 79 92 101 82 91 100 79 89 101 77 91 100 79 90 99 78 91 100 79 91 100 81 91 101 77 58 35 43 48 17 33 41 13 27 40 14 27 52 36 39 92 102 78 90 102 78 90 102 80 91 100 79 90 99 78 91 100 79 92 101 80 90 102 82 89 101 77 90 99 78 92 102 78 91 101 77 90 99 78 91 101 77 51 32 36 39 13 26 42 14 29 48 17 32 60 37 45 
88 95 77 91 100 79 91 100 79 91 100 79 86 93 75 44 21 31 40 14 27 42 14 28 49 17 32 70 59 55 90 99 78 90 99 78 92 101 80 91 100 79 89 101 79 89 101 79 91 100 79 89 101 79 90 99 78 52 36 39 39 13 26 39 13 26 44 13 28 53 25 39 89 99 75 92 101 80 90 99 78 92 102 78 87 96 75 89 101 77 89 101 79 91 100 79 90 99 78 90 99 78 91 101 77 88 100 78 91 100 79 91 100 79 88 100 78 91 100 79 91 100 79 91 100 79 86 93 75 44 21 31 40 14 27 48 15 32 50 16 32 72 61 57 91 100 79 91 100 79 91 100 79 91 100 79 69 60 55 50 16 32 49 16 33 42 14 28 44 21 31 86 93 75 91 100 79 91 100 79 91 100 79 88 97 76 48 15 32 40 12 26 39 13 26 40 14 27 67 60 54 89 101 79 91 100 79 89 101 79 92 101 80 91 100 79 90 99 78 90 100 76 92 101 80 92 101 80 59 36 44 46 15 31 40 14 27 41 13 27 52 36 39 91 101 77 89 101 79 90 99 78 91 100 79 89 101 79 93 101 78 89 101 79 91 100 79 90 100 76 89 101 77 91 100 79 92 101 82 92 101 80 91 100 79 53 34 40 41 13 27 41 13 27 48 15 32 59 36 44 
88 96 75 91 100 79 91 100 79 91 100 79 86 93 75 44 21 31 39 13 26 43 15 29 49 17 32 70 59 55 92 101 80 90 99 78 90 99 78 92 101 80 89 101 79 88 100 78 91 100 79 91 100 79 90 99 78 52 36 39 39 13 26 41 13 27 42 14 28 59 35 48 91 101 77 90 99 78 91 100 79 91 100 79 91 101 77 91 100 79 91 100 79 90 102 80 88 100 78 90 100 76 88 100 78 91 101 77 91 100 79 91 100 79 89 101 79 90 99 78 92 101 80 91 100 79 87 94 76 44 21 31 40 14 27 48 15 32 50 16 32 71 60 56 90 99 78 91 100 79 90 99 78 91 100 79 70 61 56 50 16 32 49 16 33 42 14 28 44 21 31 86 93 75 92 101 80 91 100 79 91 100 79 88 97 76 47 14 31 41 13 27 40 14 27 39 13 26 67 60 54 88 100 78 90 102 80 90 99 78 88 100 78 91 101 77 91 101 77 89 101 79 92 102 78 90 99 78 59 36 42 47 14 31 39 13 26 41 13 27 53 34 38 92 100 77 89 101 79 92 101 80 91 100 79 88 100 76 92 100 79 92 102 78 92 102 78 88 100 78 89 101 79 92 101 80 91 100 79 91 100 79 91 100 79 53 32 37 41 13 27 43 15 30 48 16 31 59 38 45 
88 96 75 90 99 78 91 100 79 92 101 80 86 94 73 57 45 45 82 86 69 89 98 79 73 68 62 73 62 58 91 101 76 90 102 80 90 99 78 92 102 78 90 99 78 91 100 79 91 100 79 91 100 79 91 100 79 52 36 39 39 13 26 40 14 27 41 13 27 60 37 45 91 100 79 91 100 79 91 100 79 91 100 79 92 101 80 91 100 79 90 99 78 91 100 79 91 100 79 92 101 80 91 100 79 91 100 79 91 100 79 91 100 79 90 99 78 91 100 79 92 101 80 90 99 78 87 94 76 44 21 31 40 14 27 47 14 31 49 17 32 71 60 56 91 100 79 90 99 78 90 99 78 91 100 79 69 60 55 49 17 32 49 17 32 42 14 29 44 21 31 86 93 75 91 100 79 91 100 79 90 100 76 88 97 76 48 15 32 39 13 26 40 12 26 41 13 27 67 59 56 91 100 79 91 100 79 89 101 79 89 101 79 91 100 79 90 99 78 89 101 79 89 101 79 91 100 79 59 36 42 46 15 31 41 13 28 40 14 27 51 35 38 92 101 80 91 100 79 92 101 80 91 100 79 91 100 79 91 100 79 91 100 79 92 101 80 90 99 78 91 100 79 91 100 79 92 100 79 88 100 78 91 100 79 52 33 37 40 14 27 42 14 28 49 17 32 60 37 45 
87 95 74 91 100 79 91 100 79 90 99 78 88 97 76 89 93 76 91 101 77 90 99 78 91 101 77 87 96 77 91 100 79 91 100 79 90 99 78 92 102 78 90 99 78 91 100 79 91 100 79 90 99 78 92 101 80 51 35 38 39 13 26 39 13 26 42 14 28 59 36 44 91 100 79 91 100 79 91 100 79 90 99 78 91 100 79 92 101 80 91 100 79 90 99 78 91 100 79 90 99 78 90 99 78 91 100 79 91 100 79 91 100 79 91 100 79 91 100 79 91 100 79 90 99 78 86 93 75 44 21 31 40 14 27 47 14 31 49 17 32 71 60 56 90 99 78 91 100 79 91 100 79 91 100 79 69 60 55 49 17 32 49 17 32 42 14 29 44 21 31 86 93 75 91 100 79 91 100 79 90 100 76 86 98 74 47 14 31 41 13 28 39 13 26 39 13 24 67 59 56 91 100 79 91 100 79 90 99 78 91 100 79 91 100 79 91 100 79 90 99 78 90 99 78 90 99 78 62 42 44 70 56 56 79 79 67 65 58 52 55 36 40 89 101 77 92 101 80 90 99 78 92 101 80 91 100 79 91 100 79 91 100 79 91 100 79 90 99 78 92 101 80 90 99 78 89 101 79 92 101 80 91 100 79 52 33 37 40 14 27 42 14 28 48 17 32 60 37 45 
89 97 76 91 100 79 91 100 79 91 100 79 91 101 77 91 100 79 89 101 79 90 99 78 91 100 81 90 99 78 90 100 76 91 100 79 90 99 78 91 101 77 91 100 79 91 100 79 91 100 79 90 99 78 91 100 79 51 35 38 40 14 27 39 13 26 42 14 28 59 36 44 91 100 79 90 99 78 91 100 79 91 100 79 90 99 78 92 101 80 91 100 79 91 100 79 91 100 79 90 99 78 91 100 79 91 100 79 91 100 79 90 99 78 91 100 79 91 100 79 91 100 79 90 99 78 87 94 76 44 21 31 40 14 27 48 15 32 49 17 32 71 60 56 91 100 79 90 99 78 91 100 79 91 100 79 69 60 55 49 17 32 49 17 32 42 14 29 44 21 31 86 93 75 91 100 79 91 100 79 90 102 80 88 97 76 48 15 32 40 14 27 41 13 27 40 12 27 67 60 54 89 101 79 90 99 78 92 101 80 90 99 78 90 99 78 90 99 78 91 100 79 91 100 79 91 100 79 85 89 72 90 99 78 91 100 79 90 99 80 83 91 70 89 101 79 91 100 79 88 100 80 90 99 78 92 101 80 91 100 79 91 100 79 92 101 80 91 100 79 91 100 79 91 100 79 89 101 79 91 100 79 91 100 79 52 33 37 40 14 27 42 14 28 48 17 32 60 37 45 
89 97 76 91 100 79 91 100 79 90 99 78 88 100 78 90 99 78 90 99 78 90 102 80 91 100 79 92 101 80 91 100 79 91 100 79 91 100 79 90 100 76 91 100 79 91 100 79 90 99 78 90 99 78 90 99 78 52 36 39 39 13 26 41 15 28 43 15 29 58 35 43 91 100 79 91 100 79 91 100 79 91 100 79 91 100 79 92 101 80 90 99 78 92 101 80 90 99 78 91 100 79 90 99 78 90 99 78 91 100 79 91 100 79 90 99 78 89 98 77 91 100 79 92 101 80 86 93 75 44 21 31 40 14 27 48 15 32 48 16 31 71 60 56 91 100 79 91 100 79 91 100 79 92 101 80 69 60 55 49 17 32 49 17 32 42 14 29 44 21 31 86 93 75 91 100 79 91 100 79 91 100 79 88 97 76 47 14 31 48 27 36 53 34 38 42 19 29 68 58 56 91 100 79 89 101 79 91 100 79 91 100 79 89 101 79 89 101 79 91 100 79 91 100 79 89 101 79 91 100 81 90 99 78 89 101 79 91 100 79 91 101 77 91 100 79 88 100 78 90 102 80 92 101 80 92 101 80 91 100 79 92 101 80 90 99 78 90 99 78 90 99 78 90 99 78 91 100 79 88 100 78 91 100 79 52 33 37 40 14 27 42 14 28 49 17 32 60 37 45 
88 96 75 91 100 79 91 100 79 91 100 79 90 99 78 90 99 78 91 100 79 90 100 76 88 100 78 92 102 78 91 100 79 91 101 77 91 100 79 90 100 76 91 100 79 91 100 79 92 101 80 90 99 78 90 99 78 51 35 38 41 15 28 39 13 26 42 14 28 59 36 44 91 100 79 90 99 78 91 100 79 90 99 78 90 99 78 90 99 78 91 100 79 91 100 79 91 100 79 91 100 79 91 100 79 91 100 79 93 102 81 90 99 78 91 100 79 90 99 78 91 100 79 91 100 79 86 93 75 43 20 30 39 13 26 48 15 32 49 17 32 71 60 56 91 100 79 91 100 79 91 100 79 90 99 78 69 60 55 49 17 32 49 17 32 42 14 29 44 21 31 86 93 75 91 100 79 91 100 79 89 101 77 88 97 76 73 59 56 89 101 79 90 99 78 86 93 75 73 70 61 91 100 79 89 101 79 90 99 78 90 99 78 89 101 79 88 100 78 91 100 79 90 99 78 90 102 80 91 101 77 91 100 79 90 99 78 90 100 76 91 100 79 90 99 78 91 101 77 90 99 78 90 99 78 91 100 79 91 100 79 91 100 79 92 101 80 90 99 78 90 99 78 90 99 78 92 100 79 90 102 80 91 100 79 52 33 37 41 13 27 42 14 28 50 16 32 60 37 45 
88 96 75 90 99 78 91 100 79 92 101 80 91 100 79 91 100 79 92 101 80 89 101 79 91 100 79 91 100 79 89 101 79 89 101 79 90 99 78 91 101 77 91 100 79 91 100 79 90 99 78 91 100 79 90 99 78 52 36 39 39 13 26 39 13 26 43 15 29 58 35 43 90 99 78 91 100 79 91 100 79 91 100 79 92 101 80 91 100 79 90 99 78 90 99 78 92 101 80 91 100 79 91 100 79 92 101 80 91 100 79 91 100 79 91 100 79 90 99 78 90 99 78 91 100 79 86 93 75 44 21 31 39 13 26 47 14 31 49 17 32 70 59 55 92 101 80 90 99 78 92 101 80 91 100 79 69 60 55 49 17 32 49 17 32 42 14 29 44 21 31 86 93 75 91 100 79 91 100 79 92 102 78 90 99 78 91 101 77 90 99 80 90 99 78 90 100 76 90 99 78 88 100 78 91 100 79 90 99 78 90 99 78 90 99 78 90 99 78 90 99 78 92 101 80 91 100 79 91 100 79 90 99 78 91 101 77 91 100 79 90 99 78 89 101 79 92 100 79 92 101 80 91 100 79 92 101 80 91 100 79 92 101 80 91 100 79 91 100 79 90 99 78 91 100 79 89 101 79 89 101 79 91 100 79 50 34 37 41 13 27 42 14 28 49 17 32 60 37 45 
88 96 75 90 99 78 91 100 79 91 100 79 90 99 78 90 100 76 90 99 78 91 100 79 91 100 79 91 100 79 89 101 79 92 101 80 90 99 78 91 101 77 92 101 80 90 99 78 91 100 79 91 100 79 91 100 79 52 36 39 39 13 26 40 14 27 42 14 28 59 36 44 92 101 80 91 100 79 91 100 79 90 99 78 91 100 79 93 102 81 90 99 78 92 101 80 91 100 79 92 101 80 90 99 78 91 100 79 91 100 79 90 99 78 91 100 79 90 99 78 91 100 79 91 100 79 86 93 75 45 22 32 40 14 27 47 14 31 49 17 32 71 60 56 91 100 79 91 100 79 90 99 78 91 100 79 69 60 55 49 17 32 49 17 32 42 14 29 44 21 31 86 93 75 91 100 79 91 100 79 91 101 77 90 99 78 91 100 79 88 100 78 90 99 78 92 100 79 92 101 80 93 103 79 91 100 79 91 100 79 90 99 78 91 100 79 91 100 79 90 99 78 90 99 78 90 99 78 91 100 79 88 100 78 90 99 78 92 100 79 91 100 79 90 102 78 91 100 79 90 99 78 91 100 79 91 100 79 90 99 78 91 100 79 91 100 79 91 100 79 89 98 77 90 99 78 89 101 79 88 100 78 91 100 79 50 34 37 41 13 27 42 14 28 49 17 32 60 37 45 
88 96 75 93 102 81 91 100 79 90 99 78 92 101 80 88 100 78 91 100 79 91 101 77 91 101 77 90 99 78 91 101 77 91 100 79 90 99 78 92 102 78 90 99 78 90 99 78 92 101 80 91 100 79 92 101 80 51 35 38 39 13 26 39 13 26 43 15 29 59 36 44 90 99 78 92 101 80 91 100 79 91 100 79 90 99 78 90 99 78 93 102 81 91 100 79 90 99 78 91 100 79 90 99 78 90 99 78 92 101 80 91 100 79 91 100 79 90 99 78 90 99 78 91 100 79 86 93 75 44 21 31 40 14 27 47 14 31 48 16 31 71 60 56 90 99 78 91 100 79 91 100 79 91 100 79 69 60 55 49 17 32 49 17 32 42 14 29 44 21 31 86 93 75 91 100 79 91 100 79 90 99 78 90 99 78 91 100 79 91 100 79 91 100 79 88 100 78 88 100 78 91 100 79 90 99 78 89 101 79 89 101 79 90 99 78 90 99 78 89 101 79 88 100 78 90 99 78 88 100 76 91 100 79 91 100 79 91 101 77 91 100 79 91 100 79 90 99 78 91 101 77 91 100 79 91 100 79 91 100 79 90 99 78 91 100 79 91 100 79 91 100 79 91 100 79 91 100 79 89 101 79 89 101 79 52 33 37 41 13 27 42 14 28 50 16 32 60 37 45 
89 97 76 91 100 79 91 100 79 90 99 78 90 99 78 91 100 79 90 99 78 90 99 78 90 99 78 90 99 78 91 100 79 91 100 79 90 99 78 91 101 77 91 101 77 90 99 78 88 100 78 89 101 79 91 100 79 52 35 41 40 13 28 41 13 27 44 13 28 60 34 43 90 99 80 92 100 79 91 101 77 91 100 79 90 99 78 90 99 78 90 99 78 91 100 79 90 99 78 92 101 80 91 100 79 90 99 78 90 99 78 90 99 78 90 99 78 91 100 79 90 99 78 93 102 81 85 92 74 44 21 31 41 13 27 48 16 31 49 17 32 71 60 56 90 99 78 90 99 78 90 99 78 90 99 78 69 59 57 49 16 33 49 16 33 42 14 28 45 22 32 86 93 75 89 101 79 89 101 79 91 100 79 91 100 79 91 100 79 91 100 79 90 99 78 90 99 78 91 100 79 91 100 79 90 99 78 91 100 79 91 100 79 90 99 78 91 100 79 91 100 79 91 100 79 91 100 79 91 100 79 91 100 79 89 98 77 90 99 78 89 98 77 90 99 78 91 100 79 90 99 78 91 100 79 92 101 80 91 100 79 90 99 78 91 100 79 91 100 79 90 99 78 91 100 79 88 100 78 90 99 78 88 100 78 53 32 37 40 13 28 41 13 27 50 16 32 59 36 44 
89 96 78 90 100 76 91 100 79 91 101 77 90 99 78 90 99 78 90 99 78 90 99 78 90 99 78 91 100 79 91 100 79 90 99 78 90 99 78 88 100 78 92 101 80 91 100 79 91 100 79 91 100 79 91 101 77 55 41 40 65 54 52 79 77 65 67 58 53 61 42 46 91 100 79 91 100 79 90 99 78 91 100 79 91 100 79 90 99 78 91 100 79 91 100 79 91 100 79 90 99 78 91 100 79 91 100 79 91 100 79 89 101 79 91 100 79 90 99 78 91 100 79 91 100 79 84 93 74 44 21 31 41 13 27 48 16 31 49 17 32 71 60 56 90 99 78 91 100 79 91 100 79 90 99 78 69 60 55 50 16 32 50 17 34 42 14 28 44 21 31 86 94 73 88 100 78 92 101 80 91 100 79 91 100 79 91 100 79 92 101 80 91 100 79 90 99 78 91 100 79 91 100 79 90 99 78 90 99 78 91 100 79 91 100 79 90 99 78 91 100 79 92 101 80 91 100 79 92 101 80 91 100 79 90 99 78 90 99 78 91 100 79 91 100 79 91 100 79 91 100 79 91 100 79 91 100 79 91 100 79 90 99 78 91 100 79 90 99 78 91 100 79 90 99 78 89 101 79 91 100 81 91 101 77 52 33 39 40 14 27 42 14 29 50 16 32 60 37 45 
90 99 78 89 101 79 88 100 78 90 102 80 91 100 79 91 100 79 90 99 78 91 100 79 91 100 79 91 100 79 90 99 78 90 99 78 89 101 79 90 99 78 88 100 78 88 100 78 89 101 79 89 98 79 90 99 78 80 82 68 88 100 78 91 100 79 87 100 80 81 83 69 89 101 81 89 101 79 90 99 78 89 101 79 91 100 79 91 100 79 91 100 79 91 100 79 91 100 79 90 99 78 92 101 80 90 99 78 90 99 78 91 100 79 90 99 78 91 100 79 90 99 78 92 101 80 86 93 75 45 22 32 41 13 27 48 16 31 49 17 32 71 60 56 90 99 78 90 99 78 91 100 79 90 99 78 69 60 55 49 17 32 49 17 32 42 14 29 46 20 31 84 93 74 88 100 80 91 100 79 90 99 78 91 100 79 90 99 78 90 99 78 90 99 78 90 99 78 90 99 78 91 100 79 90 99 78 92 101 80 89 98 77 90 99 78 90 99 78 90 99 78 91 100 79 91 100 79 90 99 78 91 100 79 90 99 78 92 101 80 90 99 78 90 99 78 91 100 79 90 99 78 90 99 78 91 100 79 91 100 79 90 99 78 92 101 80 90 99 78 89 98 77 90 99 78 92 100 79 90 99 78 89 98 79 52 33 37 40 14 27 42 14 28 49 17 32 60 37 45 
89 101 79 91 100 79 91 100 79 91 100 79 90 99 78 91 100 79 91 100 79 90 99 78 90 99 78 91 100 79 91 100 79 90 99 78 89 101 79 90 99 78 91 101 77 91 101 77 91 100 79 88 99 82 91 100 79 90 99 78 91 101 77 91 100 79 89 101 79 90 99 78 88 100 78 90 99 78 90 99 78 91 100 79 90 99 78 91 100 79 90 99 78 91 100 79 91 100 79 90 99 78 91 100 79 90 99 78 91 100 79 91 100 79 89 101 79 91 100 79 90 99 78 89 101 79 86 93 75 44 21 31 41 13 27 48 16 31 49 17 32 71 60 56 90 99 78 90 99 78 90 99 78 90 99 78 70 59 55 48 16 31 50 16 33 43 15 29 44 20 33 86 94 73 91 100 81 90 99 78 90 99 78 91 100 79 92 101 80 91 100 79 92 101 80 91 100 79 91 100 79 91 100 79 90 99 78 91 100 79 91 100 79 90 99 78 90 99 78 90 99 78 91 100 79 90 99 78 90 99 78 90 99 78 92 101 80 90 99 78 90 99 78 91 100 79 90 99 78 92 101 80 91 100 79 90 99 78 91 100 79 91 100 79 91 100 79 90 99 78 90 99 78 90 99 78 90 99 78 90 99 80 90 99 78 52 33 39 39 13 26 43 15 27 48 15 32 59 38 43 
90 99 78 89 101 79 91 100 79 90 99 78 90 99 78 90 99 78 90 99 78 91 100 79 90 99 78 90 99 78 90 99 78 90 99 78 91 100 79 90 99 78 88 100 78 91 100 79 90 100 76 90 99 78 90 99 78 91 100 79 90 100 76 90 99 78 91 100 79 88 100 78 91 100 81 91 100 79 91 100 79 90 99 78 90 99 78 90 99 78 91 100 79 90 99 78 91 100 79 91 100 79 90 99 78 90 99 78 91 100 79 88 100 78 91 100 79 91 100 79 91 100 79 90 99 78 86 95 76 44 21 31 41 13 27 48 16 31 49 17 32 71 60 56 90 99 78 91 100 79 91 100 79 90 99 78 68 59 54 49 15 31 50 17 34 41 13 25 44 20 33 84 93 74 90 99 78 90 99 78 90 99 78 90 99 78 90 99 78 90 99 78 90 99 78 90 99 78 90 99 78 91 100 79 91 100 79 90 99 78 91 100 79 90 99 78 90 99 78 90 99 78 90 99 78 92 101 80 91 100 79 91 100 79 90 99 78 91 100 79 91 100 79 92 101 80 91 100 79 90 99 78 91 100 79 91 100 79 92 101 80 90 99 78 90 99 78 90 99 78 90 99 78 90 99 78 91 100 79 90 99 78 90 99 78 52 33 37 39 13 26 42 14 28 50 16 32 62 36 45 
88 100 78 90 99 78 90 99 78 90 99 78 90 99 78 90 99 78 90 99 78 91 100 79 91 100 79 91 100 79 90 99 78 91 100 79 88 100 78 91 100 79 90 99 78 90 102 80 90 99 78 89 101 79 90 100 76 90 99 78 91 101 77 90 99 78 88 100 78 90 99 78 90 99 78 91 100 79 89 98 79 90 99 78 89 98 77 90 99 78 91 100 79 90 99 78 90 99 78 90 99 78 90 99 78 91 100 79 90 99 78 91 100 79 89 98 77 91 100 79 91 100 79 90 99 78 86 93 75 44 21 31 41 13 27 47 15 30 48 16 31 71 60 56 90 99 78 90 99 78 90 99 78 90 99 78 74 67 59 75 68 60 90 99 78 85 89 72 60 46 46 88 92 75 88 100 76 90 98 77 91 100 79 90 99 78 91 100 79 90 99 78 91 100 79 90 99 78 91 100 79 90 99 78 91 100 79 90 99 78 90 99 78 92 101 80 89 98 77 91 100 79 90 99 78 91 100 79 90 99 78 90 99 78 90 99 78 90 99 78 90 99 78 91 100 79 90 99 78 90 99 78 91 100 79 91 100 79 91 100 79 91 100 79 90 99 78 90 99 78 91 100 79 90 99 78 89 101 79 88 100 76 92 100 77 50 33 39 51 32 38 58 44 44 57 34 42 59 36 44 
91 100 79 89 99 74 89 98 77 88 100 78 89 98 77 90 99 78 91 100 79 91 100 79 89 98 77 89 98 77 89 98 77 90 99 78 88 100 78 91 100 79 88 100 80 91 100 79 90 99 78 90 99 78 91 100 79 90 99 78 88 100 78 91 100 79 87 101 78 90 100 76 91 100 79 90 100 76 89 98 77 90 99 78 91 100 79 90 99 78 89 98 77 91 100 79 90 99 78 91 100 79 90 99 78 90 99 78 90 99 78 91 100 79 89 101 79 88 97 76 91 100 79 89 101 79 85 92 74 44 21 31 41 13 27 48 16 31 49 17 32 71 60 56 90 99 78 90 99 78 90 99 78 90 99 78 87 94 76 91 100 81 87 101 78 90 97 79 87 96 75 88 97 76 90 99 78 89 101 79 90 99 78 90 99 78 91 100 79 90 99 78 91 100 79 91 100 79 90 99 78 90 99 78 91 100 79 89 98 77 92 101 80 90 99 78 90 99 78 90 99 78 91 100 79 90 99 78 90 99 78 90 99 78 92 101 80 91 100 79 89 98 77 90 99 78 90 99 78 90 99 78 91 100 79 91 100 79 91 100 79 92 101 80 90 99 78 89 98 77 90 99 78 89 98 77 90 99 78 89 98 77 90 99 78 71 69 57 90 99 80 91 99 76 88 97 76 75 71 62 
89 98 77 88 100 78 90 99 78 91 100 81 91 100 79 90 99 78 90 99 78 90 99 78 90 99 78 90 99 78 89 98 77 90 99 78 89 98 77 88 100 78 90 99 80 90 99 78 89 101 79 91 100 79 91 100 79 88 100 80 91 100 79 90 99 78 89 98 77 90 99 78 91 100 79 90 99 78 91 100 79 86 98 76 90 99 78 91 100 79 90 99 78 93 102 81 89 98 77 90 99 78 91 100 79 90 99 78 91 100 79 89 98 77 91 100 79 89 98 77 89 98 77 91 100 79 86 93 75 44 21 31 41 13 27 47 15 30 48 16 31 71 60 56 90 99 78 90 99 78 90 99 78 90 99 78 88 100 78 88 100 78 90 99 80 91 100 79 91 100 79 89 101 77 91 100 79 89 98 77 91 100 79 90 99 78 91 100 79 90 99 78 91 100 79 90 99 78 90 99 78 90 99 78 90 99 78 90 99 78 90 99 78 91 100 79 90 99 78 90 99 78 90 99 78 91 100 79 90 99 78 92 101 80 90 99 78 89 98 77 90 99 78 90 99 78 89 98 77 91 100 79 90 99 78 89 98 77 91 100 79 90 99 78 90 99 78 90 99 78 91 100 79 91 100 79 90 99 78 91 100 79 91 100 79 87 99 77 91 99 76 88 100 80 88 100 78 88 100 78 
91 100 79 91 100 79 90 99 78 91 100 79 91 100 79 89 98 77 92 101 80 91 100 79 89 98 77 91 100 79 90 99 78 90 99 78 90 99 78 90 99 78 89 98 77 91 100 79 90 99 78 91 100 79 89 98 77 90 99 78 89 98 77 91 100 79 89 98 77 91 100 79 90 99 78 91 100 79 89 98 77 90 99 78 90 99 78 91 100 79 91 100 79 90 99 78 91 100 79 91 100 79 90 99 78 91 100 79 90 99 78 90 99 78 90 99 78 91 100 79 91 100 79 90 99 78 86 93 75 43 22 31 40 12 26 47 15 30 48 16 31 70 59 55 90 99 78 90 99 78 87 99 77 91 100 79 89 98 77 90 99 78 89 98 77 90 99 78 90 99 78 91 100 79 90 99 78 90 99 78 90 99 78 90 99 78 90 99 78 90 99 78 90 99 78 89 98 77 90 99 78 90 99 78 90 99 78 90 99 78 90 99 78 90 99 78 91 100 79 88 97 76 90 99 78 90 99 78 90 99 78 90 99 78 91 100 79 91 100 79 90 99 78 90 99 78 91 100 79 90 99 78 91 100 79 91 100 79 90 99 78 90 99 78 91 100 79 90 99 78 90 99 78 91 100 79 90 99 78 90 99 78 90 99 78 90 99 78 91 100 79 90 99 78 91 100 79 90 99 78 
91 100 79 91 100 79 90 99 78 91 100 79 91 100 79 90 99 78 90 99 78 91 100 79 90 99 78 91 100 79 90 99 78 90 99 78 90 99 78 91 100 79 90 99 78 90 99 78 90 99 78 89 98 77 90 99 78 91 100 79 90 99 78 90 99 78 91 100 79 90 99 78 90 99 78 90 99 78 90 99 78 90 99 78 90 99 78 90 99 78 91 100 79 90 99 78 91 100 79 90 99 78 90 99 78 90 99 78 91 100 79 91 100 79 91 100 79 90 99 78 91 100 79 90 99 78 86 94 73 44 21 31 39 13 26 47 15 30 50 16 32 71 60 56 90 99 78 91 101 77 91 101 77 91 100 79 90 99 78 90 99 78 91 100 79 90 99 78 91 100 79 90 99 78 90 99 78 90 99 78 89 98 77 90 99 78 90 99 78 90 99 78 91 100 79 90 99 78 90 99 78 90 99 78 90 99 78 91 100 79 90 99 78 90 99 78 89 98 77 90 99 78 90 99 78 90 99 78 91 100 79 90 99 78 90 99 78 91 100 79 91 100 79 90 99 78 90 99 78 91 100 79 91 100 79 90 99 78 90 99 78 90 99 78 90 99 78 90 99 78 91 100 79 91 100 79 91 100 79 90 99 78 91 100 79 90 99 78 90 99 78 90 99 78 90 99 78 90 99 78 
91 100 79 91 100 79 91 100 79 90 99 78 91 100 79 89 98 77 90 99 78 91 100 79 90 99 78 89 98 77 90 99 78 90 99 78 91 100 79 90 99 78 90 99 78 91 100 79 91 100 79 91 100 79 90 99 78 91 100 79 90 99 78 91 100 79 91 100 79 92 101 80 90 99 78 91 100 79 90 99 78 91 100 79 90 99 78 90 99 78 91 100 79 90 99 78 91 100 79 90 99 78 91 100 79 89 98 77 92 101 80 88 100 78 89 98 77 90 99 78 91 101 77 91 100 79 86 93 75 42 21 30 38 12 25 49 17 32 50 16 32 69 58 54 88 100 76 90 99 78 89 101 79 88 100 78 91 100 79 91 100 79 90 99 78 90 99 78 91 100 79 90 99 78 90 99 78 91 100 79 91 100 79 90 99 78 90 99 78 90 99 78 90 99 78 90 99 78 90 99 78 90 99 78 90 99 78 89 98 77 90 99 78 90 99 78 90 99 78 90 99 78 90 99 78 90 99 78 91 100 79 91 100 79 90 99 78 91 100 79 91 100 79 90 99 78 90 99 78 91 100 79 91 100 79 91 100 79 91 100 79 91 100 79 91 100 79 91 100 79 90 99 78 90 99 78 90 99 78 91 100 79 91 100 79 90 99 78 90 99 78 90 99 78 90 99 78 90 99 78 
90 99 78 90 99 78 90 99 78 89 98 77 91 100 79 90 99 78 89 98 77 88 97 76 90 99 78 92 101 80 89 98 77 89 98 77 90 99 78 90 99 78 90 99 78 90 99 78 91 100 79 90 99 78 89 98 77 89 98 77 91 100 79 91 100 79 90 99 78 89 98 77 91 100 79 91 100 79 91 100 79 89 98 77 91 100 79 89 98 77 90 99 78 91 100 79 90 99 78 91 100 79 90 99 78 90 99 78 90 99 78 89 101 79 90 100 76 90 99 78 90 99 78 89 101 79 86 93 75 55 39 42 75 75 63 83 87 70 68 54 53 72 63 58 91 100 79 88 100 78 88 100 78 90 99 80 90 99 78 90 99 78 91 100 79 90 99 78 89 98 77 90 99 78 91 100 79 90 99 78 90 99 78 90 99 78 90 99 78 90 99 78 91 100 79 90 99 78 91 100 79 90 99 78 90 99 78 90 99 78 88 97 76 90 99 78 90 99 78 90 99 78 91 100 79 90 99 78 91 100 79 90 99 78 89 98 77 90 99 78 90 99 78 91 100 79 90 99 78 90 99 78 91 100 79 90 99 78 90 99 78 90 99 78 90 99 78 89 98 77 90 99 78 89 98 77 91 100 79 89 98 77 90 99 78 90 99 78 91 100 79 91 100 79 89 98 77 90 99 78 
91 100 79 89 98 77 89 98 77 90 99 78 91 100 79 89 98 77 90 99 78 91 100 79 90 99 78 90 99 78 90 99 78 91 100 79 91 100 79 90 99 78 90 99 78 91 100 79 91 100 79 89 98 77 91 100 79 91 100 79 90 99 78 90 99 78 90 99 78 90 99 78 91 100 79 90 99 78 90 99 78 89 98 77 90 99 78 90 99 78 90 99 78 91 100 79 90 99 78 90 99 78 92 101 80 90 99 78 90 99 78 90 99 80 91 100 79 89 98 77 89 101 77 89 98 77 87 96 75 84 91 73 91 101 77 87 99 75 91 101 77 88 93 73 90 99 78 90 99 78 89 98 77 90 99 78 89 98 77 91 100 79 89 98 77 90 99 78 91 100 79 90 99 78 89 98 77 90 99 78 91 100 79 90 99 78 91 100 79 91 100 79 90 99 78 91 100 79 91 100 79 91 100 79 90 99 78 91 100 79 90 99 78 89 98 77 91 100 79 91 100 79 90 99 78 91 100 79 90 99 78 90 99 78 89 98 77 90 99 78 91 100 79 90 99 78 90 99 78 91 100 79 90 99 78 89 98 77 90 99 78 90 99 78 91 100 79 91 100 79 91 100 79 90 99 78 90 99 78 91 100 79 90 99 78 91 100 79 89 98 77 90 99 78 90 99 78 90 99 78 
90 99 78 90 99 78 89 98 77 90 99 78 90 99 78 90 99 78 89 98 77 90 99 78 91 100 79 89 98 77 90 99 78 91 100 79 91 100 79 90 99 78 89 98 77 91 100 79 89 98 77 90 99 78 89 98 77 91 100 79 90 99 78 91 100 79 91 100 79 90 99 78 90 99 78 91 100 79 90 99 78 90 99 78 92 101 80 89 98 77 90 99 78 90 99 78 91 100 79 90 99 78 91 100 79 89 98 77 91 100 79 91 100 79 90 99 78 90 99 80 87 99 77 89 101 77 90 99 78 88 100 78 87 99 77 88 100 76 91 101 77 90 100 76 90 100 76 90 99 78 91 100 79 89 98 77 90 99 78 90 99 78 91 100 79 90 99 78 89 98 77 90 99 78 90 99 78 91 100 79 89 98 77 91 100 79 89 98 77 90 99 78 90 99 78 89 98 77 89 98 77 90 99 78 91 100 79 90 99 78 90 99 78 92 101 80 90 99 78 89 98 77 90 99 78 90 99 78 91 100 79 89 98 77 89 98 77 90 99 78 90 99 78 90 99 78 90 99 78 89 98 77 91 100 79 90 99 78 90 99 78 91 100 79 90 99 78 90 99 78 90 99 78 89 98 77 90 99 78 92 101 80 89 98 77 90 99 78 90 99 78 90 99 78 90 99 78 90 99 78 
89 98 77 90 99 78 91 100 79 90 99 78 90 99 78 90 99 78 90 99 78 91 100 79 89 98 77 89 98 77 90 99 78 91 100 79 90 99 78 90 99 78 90 99 78 89 98 77 90 99 78 91 100 79 91 100 79 89 98 77 89 98 77 90 99 78 91 100 79 89 98 77 91 100 79 89 98 77 89 98 77 90 99 78 91 100 79 90 99 78 90 99 78 91 100 79 91 100 79 90 99 78 90 99 78 90 99 78 89 98 77 90 99 78 90 99 80 89 98 77 91 100 79 91 101 77 90 99 78 90 99 78 88 100 78 91 100 79 89 98 77 90 99 78 88 100 78 90 99 80 90 99 78 90 99 78 90 99 78 91 100 79 90 99 78 90 99 78 89 98 77 90 99 78 91 100 79 91 100 79 89 98 77 91 100 79 90 99 78 89 98 77 91 100 79 90 99 78 91 100 79 90 99 78 90 99 78 89 98 77 90 99 78 90 99 78 89 98 77 90 99 78 90 99 78 91 100 79 90 99 78 90 99 78 90 99 78 89 98 77 90 99 78 89 98 77 89 98 77 89 98 77 91 100 79 91 100 79 91 100 79 89 98 77 91 100 79 90 99 78 89 98 77 90 99 78 89 98 77 90 99 78 91 100 79 89 98 77 90 99 78 91 100 79 89 98 77 90 99 78 
90 99 78 90 99 78 90 99 78 91 100 79 91 100 79 89 98 77 91 100 79 90 99 78 90 99 78 91 100 79 90 99 78 92 101 80 89 98 77 90 99 78 90 99 78 90 99 78 89 98 77 90 99 78 90 99 78 89 98 77 90 99 78 90 99 78 90 99 78 90 99 78 90 99 78 90 99 78 90 99 78 89 98 77 89 98 77 90 99 78 90 99 78 89 98 77 90 99 78 91 100 79 91 100 79 88 97 76 89 101 79 89 98 77 90 99 80 88 100 76 90 99 78 90 99 78 90 99 78 89 99 75 90 99 78 91 101 77 88 100 78 90 99 78 90 100 76 90 99 78 89 99 75 90 99 78 90 99 78 90 99 78 91 100 79 90 99 78 91 100 79 89 98 77 89 98 77 90 99 78 90 99 78 91 100 79 90 99 78 90 99 78 90 99 78 91 100 79 89 98 77 91 100 79 90 99 78 90 99 78 90 99 78 89 98 77 90 99 78 89 98 77 90 99 78 89 98 77 90 99 78 89 98 77 90 99 78 90 99 78 91 100 79 90 99 78 90 99 78 90 99 78 90 99 78 90 99 78 90 99 78 90 99 78 90 99 78 90 99 78 90 99 78 90 99 78 90 99 78 90 99 78 90 99 78 91 100 79 91 100 79 90 99 78 89 98 77 89 98 77 
