P3
100 50
255
57 2 34 57 2 34 57 2 34 57 2 34 57 2 34 57 2 34 57 2 34 57 2 34 57 2 34 57 2 34 57 2 34 57 2 34 57 2 34 57 2 34 56 1 33 58 3 35 57 2 34 58 3 35 57 2 34 58 3 35 57 2 34 57 2 34 57 2 34 57 2 34 57 2 34 57 2 34 57 2 34 57 2 34 57 2 34 57 2 34 57 2 34 57 2 34 57 2 34 57 2 34 57 2 34 57 2 34 57 2 34 57 2 34 57 2 34 57 2 34 57 2 34 57 2 34 57 2 34 57 2 34 57 2 34 57 2 34 57 2 34 57 2 34 57 2 34 57 2 34 57 2 34 57 2 34 57 2 34 57 2 34 59 4 36 56 1 33 57 2 34 112 56 69 122 65 72 122 65 72 121 65 74 122 65 72 101 34 43 89 16 27 87 15 26 90 17 28 88 15 26 88 16 27 88 15 26 89 16 27 89 16 27 89 16 27 88 15 26 89 16 27 89 16 27 89 16 27 89 15 28 89 16 27 84 37 45 122 65 74 121 65 74 122 65 74 122 65 74 107 44 53 90 17 28 89 16 27 89 16 27 89 16 27 89 16 27 89 16 27 88 15 26 88 16 27 116 66 57 131 88 69 130 89 69 130 89 71 129 91 70 131 88 69 129 88 70 130 89 69 
57 2 34 57 2 34 58 3 35 57 2 34 57 2 34 57 2 34 57 2 34 57 2 34 57 2 34 57 2 34 57 2 34 57 2 34 57 2 34 57 2 34 57 2 34 57 2 34 57 2 34 57 2 34 57 2 34 57 2 34 57 2 34 57 2 34 57 2 34 57 2 34 57 2 34 57 2 34 57 2 34 57 2 34 57 2 34 57 2 34 57 2 34 57 2 34 57 2 34 57 2 34 57 2 34 57 2 34 57 2 34 57 2 34 57 2 34 57 2 34 57 2 34 57 2 34 57 2 34 57 2 34 57 2 34 57 2 34 57 2 34 57 2 34 57 2 34 57 2 34 57 2 34 57 2 34 57 2 34 57 2 34 58 3 35 57 2 34 64 8 37 121 64 73 122 65 72 123 66 75 122 65 74 122 62 70 94 24 34 88 16 27 89 16 25 89 16 27 89 16 27 89 16 27 88 16 27 90 17 28 89 16 27 89 16 27 88 16 27 87 15 26 89 16 27 88 15 26 89 16 27 82 14 25 60 25 31 122 65 74 121 66 72 121 65 74 121 65 74 116 56 64 90 17 28 88 15 26 89 16 27 89 16 27 89 16 27 88 15 26 89 16 27 88 16 27 113 58 51 131 90 72 131 90 70 130 89 71 130 89 69 130 89 69 130 89 69 131 90 72 
57 2 34 57 2 34 57 2 34 57 2 34 57 2 34 57 2 34 57 2 34 57 2 34 57 2 34 57 2 34 57 2 34 57 2 34 56 1 33 58 3 35 57 2 34 57 2 34 57 2 34 57 2 34 57 2 34 57 2 34 57 2 34 57 2 34 57 2 34 57 2 34 57 2 34 57 2 34 57 2 34 57 2 34 57 2 34 57 2 34 57 2 34 57 2 34 57 2 34 57 2 34 57 2 34 57 2 34 57 2 34 57 2 34 57 2 34 57 2 34 57 2 34 57 2 34 57 2 34 57 2 34 57 2 34 57 2 34 57 2 34 57 2 34 57 2 34 57 2 34 57 2 34 57 2 34 57 2 34 57 2 34 56 2 34 56 2 34 83 28 51 123 66 73 121 64 71 122 65 72 122 65 72 116 55 63 88 15 26 88 16 27 89 16 25 89 16 27 89 16 27 89 16 27 89 16 27 89 16 27 88 15 26 89 16 27 90 17 28 90 17 28 89 16 27 89 16 27 89 15 30 70 12 24 42 13 18 121 64 73 122 65 74 121 65 74 122 65 74 120 63 70 92 20 31 89 16 27 89 16 27 89 16 27 88 15 26 89 16 27 88 15 26 88 15 26 111 53 49 129 88 70 129 88 68 129 88 68 130 89 69 130 89 71 127 89 68 129 88 70 
57 2 34 57 2 34 58 3 35 57 2 34 57 2 34 57 2 34 57 2 34 57 2 34 57 2 34 57 2 34 57 2 34 57 2 34 57 2 34 57 2 34 58 3 35 57 2 34 57 2 34 57 2 34 57 2 34 57 2 34 57 2 34 57 2 34 57 2 34 57 2 34 57 2 34 57 2 34 57 2 34 57 2 34 57 2 34 57 2 34 57 2 34 57 2 34 57 2 34 57 2 34 57 2 34 57 2 34 57 2 34 57 2 34 57 2 34 57 2 34 57 2 34 57 2 34 57 2 34 57 2 34 57 2 34 57 2 34 57 2 34 57 2 34 57 2 34 57 2 34 57 2 34 57 2 34 57 2 33 57 2 34 57 2 34 56 1 33 104 46 61 122 65 72 121 66 72 122 65 72 122 65 72 106 40 50 91 15 27 88 15 26 88 15 24 88 16 27 89 16 27 88 18 28 89 16 27 86 14 25 89 17 28 88 16 27 89 16 27 89 16 27 89 16 27 88 16 27 89 16 27 50 7 14 34 7 14 105 54 61 121 66 72 122 65 72 122 65 74 122 65 74 99 29 40 88 15 26 89 16 27 91 15 27 90 17 28 89 16 27 90 17 28 89 16 27 105 44 43 127 89 68 129 88 70 130 89 71 130 89 69 131 90 70 130 89 69 130 89 71 
57 2 34 57 2 34 58 3 35 57 2 34 57 2 34 57 2 34 57 2 34 57 2 34 57 2 34 57 2 34 57 2 34 57 2 34 57 2 34 58 3 35 57 2 34 57 2 34 57 2 34 57 2 34 58 3 35 58 3 35 57 2 34 57 2 34 57 2 34 57 2 34 57 2 34 57 2 34 57 2 34 57 2 34 57 2 34 57 2 34 57 2 34 57 2 34 57 2 34 57 2 34 57 2 34 57 2 34 57 2 34 57 2 34 57 2 34 57 2 34 57 2 34 57 2 34 57 2 34 57 2 34 57 2 34 57 2 34 57 2 34 57 2 34 57 2 34 57 2 34 57 2 34 57 2 34 58 3 35 57 2 34 57 2 34 62 7 38 121 64 73 121 64 71 121 65 74 122 65 72 121 66 72 96 26 36 89 16 27 89 16 27 89 16 27 89 16 27 89 16 27 88 16 27 88 16 27 88 15 26 89 16 27 89 16 27 88 15 26 88 16 27 89 16 27 88 15 26 84 16 27 36 7 11 30 5 9 92 45 51 122 65 74 122 65 74 121 65 74 122 65 74 108 42 52 89 16 27 89 16 27 88 15 26 89 16 27 89 16 27 88 15 26 88 15 26 98 32 36 129 91 70 131 90 72 130 89 69 129 88 68 130 89 69 130 89 69 130 89 71 
57 2 34 57 2 34 57 2 34 57 2 34 57 2 34 57 2 34 57 2 34 57 2 34 57 2 34 57 2 34 57 2 34 57 2 34 57 2 34 57 2 34 57 2 34 58 3 35 57 2 34 58 3 35 57 2 34 58 3 35 57 2 34 57 2 34 57 2 34 57 2 34 57 2 34 57 2 34 57 2 34 57 2 34 57 2 34 57 2 34 57 2 34 57 2 34 57 2 34 57 2 34 57 2 34 57 2 34 57 2 34 57 2 34 57 2 34 57 2 34 57 2 34 57 2 34 57 2 34 57 2 34 57 2 34 57 2 34 57 2 34 57 2 34 57 2 34 57 2 34 57 2 34 57 2 34 57 2 34 57 2 34 57 2 34 77 21 46 121 64 73 122 65 72 120 64 73 121 66 72 119 62 69 90 17 28 88 16 27 88 16 27 89 16 27 88 15 26 88 15 26 88 16 27 88 15 26 89 16 27 89 16 27 89 16 27 89 16 27 89 16 27 89 16 27 89 16 27 70 13 20 29 4 8 30 5 8 84 44 45 121 64 71 120 65 71 121 66 72 122 65 72 114 52 63 90 17 28 89 16 27 88 15 26 88 16 27 88 15 26 89 16 27 90 17 28 94 24 32 129 86 67 130 89 71 130 89 71 129 88 68 130 89 69 128 90 71 130 89 71 
57 2 34 57 2 34 58 3 35 57 2 34 57 2 34 57 2 34 57 2 34 57 2 34 57 2 34 57 2 34 57 2 34 57 2 34 57 2 34 57 2 34 57 2 34 57 2 34 58 3 35 57 2 34 57 2 34 57 2 34 57 2 34 57 2 34 57 2 34 57 2 34 57 2 34 57 2 34 57 2 34 57 2 34 57 2 34 57 2 34 57 2 34 57 2 34 57 2 34 57 2 34 57 2 34 57 2 34 57 2 34 57 2 34 57 2 34 57 2 34 57 2 34 57 2 34 57 2 34 57 2 34 57 2 34 57 2 34 57 2 34 57 2 34 57 2 34 57 2 34 57 2 34 57 2 34 57 2 34 57 2 34 57 2 34 97 40 57 121 64 73 123 66 73 122 65 74 122 65 74 111 48 57 88 16 27 87 15 26 87 15 26 88 14 27 89 16 27 88 15 26 89 15 28 89 16 27 87 15 26 88 16 27 88 16 27 87 15 26 88 15 26 88 16 27 88 16 27 61 12 18 32 5 10 31 6 9 83 48 42 121 66 72 120 64 75 121 65 74 122 65 72 120 64 73 93 21 32 88 16 27 89 16 27 89 16 27 89 16 27 89 16 27 89 16 27 91 19 30 127 84 67 130 89 69 127 89 68 130 89 71 130 89 69 129 88 70 128 90 71 
57 2 34 57 2 34 57 2 34 57 2 34 57 2 34 57 2 34 57 2 34 57 2 34 57 2 34 57 2 34 57 2 34 57 2 34 57 2 34 57 2 34 57 2 34 56 1 33 57 2 34 57 2 34 57 2 34 57 2 34 57 2 34 57 2 34 57 2 34 57 2 34 57 2 34 57 2 34 57 2 34 57 2 34 57 2 34 57 2 34 57 2 34 57 2 34 57 2 34 57 2 34 57 2 34 57 2 34 57 2 34 57 2 34 57 2 34 57 2 34 57 2 34 57 2 34 57 2 34 57 2 34 57 2 34 57 2 34 57 2 34 57 2 34 57 2 34 57 2 34 57 2 34 57 2 34 56 2 34 57 2 34 59 4 35 116 58 70 122 65 72 121 65 74 121 63 75 122 65 74 99 31 42 88 16 27 91 15 27 89 17 28 89 15 30 90 17 28 88 15 26 88 14 27 88 16 27 88 16 27 89 16 27 89 17 28 87 15 26 87 15 26 88 16 27 89 17 28 61 12 18 30 5 8 29 7 10 82 49 40 123 68 73 121 66 72 121 65 74 122 65 74 122 65 74 100 30 40 87 15 26 89 16 27 88 15 26 87 15 26 88 16 27 89 16 27 89 17 28 123 80 64 127 89 68 128 87 65 129 87 71 129 88 68 130 89 71 128 87 69 
57 2 34 57 2 34 57 2 34 57 2 34 57 2 34 57 2 34 57 2 34 57 2 34 57 2 34 57 2 34 57 2 34 57 2 34 57 2 34 57 2 34 57 2 34 57 2 34 57 2 34 57 2 34 57 2 34 57 2 34 57 2 34 57 2 34 57 2 34 57 2 34 57 2 34 57 2 34 57 2 34 57 2 34 57 2 34 57 2 34 57 2 34 57 2 34 57 2 34 57 2 34 57 2 34 57 2 34 57 2 34 57 2 34 57 2 34 57 2 34 57 2 34 57 2 34 57 2 34 57 2 34 57 2 34 57 2 34 57 2 34 57 2 34 57 2 34 57 2 34 57 2 34 57 2 34 56 2 34 57 2 34 75 19 44 122 65 72 122 65 72 121 65 74 122 65 74 116 61 67 92 20 31 88 15 26 87 14 25 88 16 27 88 15 26 88 15 26 88 15 26 88 16 27 88 16 27 88 16 27 88 15 26 88 16 27 89 16 27 88 16 27 89 16 27 87 15 26 62 11 18 31 6 10 30 5 9 82 49 40 125 74 71 121 64 73 122 65 72 122 65 72 122 65 74 107 44 53 90 14 27 89 16 25 89 16 27 89 16 27 90 16 29 89 16 27 88 15 26 121 73 63 130 89 69 131 88 71 130 89 69 130 89 69 130 89 69 128 90 71 
57 2 34 57 2 34 57 2 34 57 2 34 57 2 34 57 2 34 57 2 34 57 2 34 57 2 34 57 2 34 57 2 34 57 2 34 57 2 34 57 2 34 57 2 34 57 2 34 57 2 34 57 2 34 57 2 34 57 2 34 57 2 34 57 2 34 57 2 34 57 2 34 57 2 34 57 2 34 57 2 34 57 2 34 57 2 34 57 2 34 57 2 34 57 2 34 57 2 34 57 2 34 57 2 34 57 2 34 57 2 34 57 2 34 57 2 34 57 2 34 57 2 34 57 2 34 57 2 34 57 2 34 57 2 34 57 2 34 57 2 34 57 2 34 57 2 34 57 2 34 57 2 34 57 2 34 54 3 34 57 2 34 97 40 57 121 66 72 122 64 76 122 65 72 120 64 73 110 49 57 89 16 27 89 17 28 88 16 27 90 17 28 89 16 27 87 14 25 89 16 27 89 16 27 89 16 27 89 16 27 88 15 26 88 15 26 87 15 26 88 16 27 87 15 26 88 16 27 63 12 21 29 7 10 29 4 10 80 47 40 127 80 72 122 65 72 121 64 73 122 65 72 122 65 72 115 58 67 88 15 26 88 16 27 89 16 27 87 15 26 87 15 27 88 16 27 88 15 26 113 60 52 129 88 70 129 88 70 130 89 69 129 88 68 130 89 71 129 88 70 
57 2 34 57 2 34 57 2 34 57 2 34 57 2 34 57 2 34 57 2 34 57 2 34 57 2 34 57 2 34 57 2 34 57 2 34 57 2 34 57 2 34 57 2 34 57 2 34 57 2 34 57 2 34 57 2 34 57 2 34 57 2 34 57 2 34 57 2 34 57 2 34 57 2 34 57 2 34 57 2 34 57 2 34 57 2 34 57 2 34 57 2 34 57 2 34 57 2 34 57 2 34 57 2 34 57 2 34 57 2 34 57 2 34 57 2 34 57 2 34 57 2 34 57 2 34 57 2 34 57 2 34 57 2 34 57 2 34 57 2 34 57 2 34 57 2 34 57 2 34 57 2 34 57 2 34 57 2 34 60 5 36 112 56 67 121 66 72 121 65 74 121 64 73 121 66 72 101 31 42 89 16 27 88 16 27 88 16 27 91 15 27 88 16 27 88 16 27 88 16 27 90 17 28 87 15 26 88 16 27 87 17 27 89 16 27 88 16 27 89 16 27 87 15 26 88 16 27 63 10 18 27 5 8 31 6 10 79 46 39 129 86 69 123 66 73 123 66 73 121 64 71 122 65 72 119 66 74 93 21 32 89 16 27 89 16 27 88 15 26 89 15 28 89 16 27 88 16 27 107 49 47 130 89 67 130 89 69 129 88 70 129 88 70 129 88 70 129 88 68 
57 2 34 57 2 34 57 2 34 57 2 34 57 2 34 57 2 34 57 2 34 57 2 34 57 2 34 57 2 34 57 2 34 57 2 34 57 2 34 57 2 34 57 2 34 57 2 34 57 2 34 57 2 34 57 2 34 57 2 34 57 2 34 57 2 34 57 2 34 57 2 34 57 2 34 57 2 34 57 2 34 57 2 34 57 2 34 57 2 34 57 2 34 57 2 34 57 2 34 57 2 34 57 2 34 57 2 34 57 2 34 57 2 34 57 2 34 57 2 34 57 2 34 57 2 34 57 2 34 57 2 34 57 2 34 57 2 34 57 2 34 57 2 34 57 2 34 57 2 34 57 2 34 57 2 34 57 2 34 78 20 44 122 65 72 119 66 74 122 66 75 121 65 74 117 60 67 89 16 27 89 16 27 89 16 27 88 16 27 87 15 26 89 16 27 89 16 27 88 15 26 89 16 27 89 16 27 88 15 26 89 16 27 90 17 28 87 15 26 88 16 27 88 16 27 89 16 27 63 10 18 32 5 10 30 5 9 78 45 38 130 89 71 122 70 74 121 66 72 122 65 72 121 65 74 121 66 72 103 37 47 88 16 27 86 14 25 87 15 26 87 15 26 87 15 26 87 15 26 104 42 43 130 89 69 130 89 69 130 89 71 129 88 68 127 89 70 129 88 68 
57 2 34 57 2 34 57 2 34 57 2 34 57 2 34 57 2 34 57 2 34 57 2 34 57 2 34 57 2 34 57 2 34 57 2 34 57 2 34 57 2 34 57 2 34 57 2 34 57 2 34 57 2 34 57 2 34 57 2 34 57 2 34 57 2 34 57 2 34 57 2 34 57 2 34 57 2 34 57 2 34 57 2 34 57 2 34 57 2 34 57 2 34 57 2 34 57 2 34 57 2 34 57 2 34 57 2 34 57 2 34 57 2 34 57 2 34 57 2 34 57 2 34 57 2 34 57 2 34 57 2 34 57 2 34 57 2 34 57 2 34 57 2 34 57 2 34 57 2 34 57 2 34 57 2 34 57 2 34 100 42 57 123 66 73 122 65 74 119 63 72 121 64 73 108 45 54 88 16 27 88 16 27 88 15 26 90 14 26 88 16 27 88 16 27 88 16 27 89 16 27 86 16 26 89 16 27 87 15 26 87 15 26 88 16 27 88 15 26 87 15 26 88 16 27 88 16 27 64 11 21 30 5 9 31 6 10 74 44 34 130 89 69 124 75 71 119 63 72 122 65 74 123 66 75 121 64 71 109 47 58 90 17 28 88 16 27 88 16 27 89 15 28 88 16 27 89 16 27 100 35 39 129 88 70 130 89 71 129 88 70 130 89 69 129 88 70 129 88 70 
57 2 34 57 2 34 57 2 34 57 2 34 57 2 34 57 2 34 57 2 34 57 2 34 57 2 34 57 2 34 57 2 34 57 2 34 57 2 34 57 2 34 57 2 34 57 2 34 57 2 34 57 2 34 57 2 34 57 2 34 57 2 34 57 2 34 57 2 34 57 2 34 57 2 34 57 2 34 57 2 34 57 2 34 57 2 34 57 2 34 57 2 34 57 2 34 57 2 34 57 2 34 57 2 34 57 2 34 57 2 34 57 2 34 57 2 34 57 2 34 57 2 34 57 2 34 57 2 34 57 2 34 57 2 34 57 2 34 57 2 34 57 2 34 57 2 34 57 2 34 57 2 34 57 2 34 59 2 34 116 59 68 121 64 71 120 65 71 121 65 74 122 65 74 97 29 42 88 16 27 89 16 27 89 16 27 89 16 27 88 16 27 88 16 27 88 15 26 88 15 26 88 16 27 87 15 26 88 16 27 88 15 26 88 16 27 89 16 27 87 15 26 88 15 26 89 16 27 66 10 19 32 7 10 31 6 10 73 43 35 129 88 68 127 84 68 122 65 74 122 65 74 121 65 74 121 66 72 120 63 72 89 17 29 87 15 26 88 16 27 88 16 28 88 16 27 89 16 27 93 26 33 128 85 68 129 88 70 130 89 71 129 88 68 131 90 70 129 88 70 
57 2 34 57 2 34 57 2 34 57 2 34 57 2 34 57 2 34 57 2 34 57 2 34 57 2 34 57 2 34 57 2 34 57 2 34 57 2 34 57 2 34 57 2 34 57 2 34 57 2 34 57 2 34 57 2 34 57 2 34 57 2 34 57 2 34 57 2 34 57 2 34 57 2 34 57 2 34 57 2 34 57 2 34 57 2 34 57 2 34 57 2 34 57 2 34 57 2 34 57 2 34 57 2 34 57 2 34 57 2 34 57 2 34 57 2 34 57 2 34 57 2 34 57 2 34 57 2 34 57 2 34 57 2 34 57 2 34 57 2 34 57 2 34 57 2 34 57 2 34 57 2 34 57 2 34 82 20 43 122 65 72 120 65 71 121 65 74 121 66 72 119 59 69 91 19 30 88 14 27 88 16 27 88 16 27 88 15 26 88 15 26 88 16 27 88 16 27 88 16 27 87 15 26 89 16 27 88 15 26 89 17 28 87 17 27 87 15 26 88 16 27 87 15 26 89 17 28 64 11 19 30 5 9 30 5 8 71 40 35 129 88 68 128 90 71 122 67 72 121 64 73 122 65 74 120 65 71 122 65 74 97 25 37 89 17 28 91 15 27 87 15 26 89 16 27 89 15 28 91 21 29 127 81 65 130 87 68 130 89 71 130 87 70 129 88 70 130 89 69 
57 2 34 57 2 34 57 2 34 57 2 34 57 2 34 57 2 34 57 2 34 57 2 34 57 2 34 57 2 34 57 2 34 57 2 34 57 2 34 57 2 34 57 2 34 57 2 34 57 2 34 57 2 34 57 2 34 57 2 34 57 2 34 57 2 34 57 2 34 57 2 34 57 2 34 57 2 34 57 2 34 57 2 34 57 2 34 57 2 34 57 2 34 57 2 34 57 2 34 57 2 34 57 2 34 57 2 34 57 2 34 57 2 34 57 2 34 57 2 34 57 2 34 57 2 34 57 2 34 57 2 34 57 2 34 57 2 34 57 2 34 57 2 34 57 2 34 57 2 34 57 2 34 57 2 34 103 43 55 121 64 73 122 65 74 121 64 73 121 64 71 108 47 55 89 16 27 88 16 28 88 16 27 87 15 26 87 15 26 89 16 27 89 16 27 88 16 27 87 15 26 88 15 26 87 15 26 89 16 27 88 16 27 89 16 27 87 15 26 88 15 26 87 15 26 89 16 27 68 12 21 31 5 8 31 6 9 70 39 34 129 88 70 129 88 68 124 73 72 121 64 71 121 65 74 119 66 72 122 65 74 106 43 52 87 15 26 88 15 26 87 15 26 89 16 27 87 15 26 88 16 27 123 77 62 129 88 70 128 90 69 129 88 70 129 88 70 129 88 70 
57 2 34 57 2 34 57 2 34 57 2 34 57 2 34 57 2 34 57 2 34 57 2 34 57 2 34 57 2 34 57 2 34 57 2 34 57 2 34 57 2 34 57 2 34 57 2 34 57 2 34 57 2 34 57 2 34 57 2 34 57 2 34 57 2 34 57 2 34 57 2 34 57 2 34 57 2 34 57 2 34 57 2 34 57 2 34 57 2 34 57 2 34 57 2 34 57 2 34 57 2 34 57 2 34 57 2 34 57 2 34 57 2 34 57 2 34 57 2 34 57 2 34 57 2 34 57 2 34 57 2 34 58 1 34 57 2 34 58 3 35 57 2 33 57 2 34 57 1 36 58 3 35 66 7 35 121 61 71 121 65 74 122 65 71 121 65 74 122 65 74 98 31 40 87 14 25 89 16 27 89 16 27 87 15 26 88 16 27 88 16 27 88 15 26 88 15 26 88 15 26 88 16 27 88 16 27 88 15 26 89 16 27 87 15 26 88 16 27 88 15 26 89 16 27 87 15 26 67 11 20 29 7 9 30 5 9 69 38 33 131 90 72 131 90 70 126 79 73 120 64 73 121 65 74 122 65 72 120 64 73 114 54 64 89 16 27 89 16 27 88 16 27 88 15 24 90 17 28 88 15 26 120 70 59 129 88 68 127 89 68 129 88 70 129 88 70 130 89 71 
57 2 34 57 2 34 57 2 34 57 2 34 57 2 34 57 2 34 57 2 34 57 2 34 57 2 34 57 2 34 57 2 34 57 2 34 57 2 34 57 2 34 57 2 34 57 2 34 57 2 34 57 2 34 57 2 34 57 2 34 57 2 34 57 2 34 57 2 34 57 2 34 57 2 34 57 2 34 57 2 34 57 2 34 57 2 34 57 2 34 57 2 34 57 2 34 57 2 34 57 2 34 57 2 34 57 2 34 57 2 34 57 2 34 57 2 34 57 2 34 57 2 34 57 2 34 57 2 34 57 2 34 57 2 34 56 2 34 57 2 34 57 2 34 57 2 34 58 3 35 58 3 35 88 27 45 121 64 73 121 65 74 120 65 71 122 65 72 119 62 71 90 18 29 88 15 26 89 16 27 87 15 26 88 15 26 89 16 27 88 15 26 88 16 27 88 16 27 88 16 27 89 16 27 89 16 27 87 15 26 88 16 27 88 15 26 89 16 27 88 16 27 88 16 27 89 16 27 69 12 19 29 7 9 30 5 9 65 36 32 129 88 70 130 89 71 129 86 70 121 65 74 119 63 72 121 65 74 122 65 74 120 63 72 94 24 35 89 16 27 88 16 27 88 16 27 87 15 26 88 15 26 115 62 54 130 89 69 130 89 69 130 89 71 129 88 70 129 88 70 
57 2 34 57 2 34 57 2 34 57 2 34 57 2 34 57 2 34 57 2 34 57 2 34 57 2 34 57 2 34 57 2 34 57 2 34 57 2 34 57 2 34 57 2 34 57 2 34 57 2 34 57 2 34 57 2 34 57 2 34 57 2 34 57 2 34 57 2 34 57 2 34 57 2 34 57 2 34 57 2 34 57 2 34 57 2 34 57 2 34 57 2 34 57 2 34 57 2 34 57 2 34 57 2 34 57 2 34 57 2 34 57 2 34 57 2 34 57 2 34 57 2 34 57 2 34 57 2 34 57 2 34 57 2 33 58 1 34 57 2 34 57 2 34 56 3 33 57 2 34 63 4 34 110 48 59 122 65 74 121 66 72 121 65 74 122 65 72 107 46 54 87 15 26 89 13 25 88 16 27 88 16 27 89 16 27 88 15 26 88 15 26 88 16 27 87 15 26 88 16 27 87 14 25 89 16 27 88 16 27 87 15 26 88 15 26 89 16 27 87 15 26 88 16 27 88 15 26 71 11 21 30 5 9 30 5 9 65 36 32 129 88 70 130 89 71 129 88 68 122 70 74 121 63 75 122 65 74 120 64 73 121 64 73 102 36 46 86 14 25 88 15 26 86 14 25 90 14 26 89 16 27 110 55 50 129 88 70 129 88 70 129 88 70 129 88 70 128 90 69 
57 2 34 57 2 34 57 2 34 57 2 34 57 2 34 57 2 34 57 2 34 57 2 34 57 2 34 57 2 34 57 2 34 57 2 34 57 2 34 57 2 34 57 2 34 57 2 34 57 2 34 57 2 34 57 2 34 57 2 34 57 2 34 57 2 34 57 2 34 57 2 34 57 2 34 57 2 34 57 2 34 57 2 34 57 2 34 57 2 34 57 2 34 57 2 34 57 2 34 57 2 34 57 2 34 57 2 34 57 2 34 57 2 34 57 2 34 57 2 34 57 2 34 57 2 34 57 2 34 57 2 34 57 2 34 57 2 34 58 1 34 57 2 34 56 2 34 56 2 34 76 14 37 120 60 70 120 64 73 121 66 72 120 64 73 122 65 74 95 28 37 88 15 26 88 15 26 87 15 26 88 15 26 88 16 27 89 17 28 88 16 27 88 15 26 88 15 26 89 16 27 88 16 27 87 15 26 89 16 27 89 16 27 88 16 27 87 15 26 88 15 26 88 15 26 88 16 27 69 12 21 30 5 9 28 6 9 65 34 29 129 88 68 128 87 67 129 88 68 124 75 71 121 65 74 120 63 72 121 64 73 120 65 71 112 51 59 88 16 27 89 16 27 88 16 27 88 16 27 89 16 27 107 47 46 127 89 70 129 88 70 129 88 70 130 89 71 130 89 71 
57 2 34 57 2 34 57 2 34 57 2 34 57 2 34 57 2 34 57 2 34 57 2 34 57 2 34 57 2 34 57 2 34 57 2 34 57 2 34 57 2 34 57 2 34 57 2 34 57 2 34 57 2 34 57 2 34 57 2 34 57 2 34 57 2 34 57 2 34 57 2 34 57 2 34 57 2 34 57 2 34 57 2 34 57 2 34 57 2 34 57 2 34 57 2 34 57 2 34 57 2 34 57 2 34 57 2 34 57 2 34 57 2 34 57 2 34 57 2 34 57 2 34 57 2 34 57 2 34 57 2 34 56 2 34 57 2 34 57 2 34 57 2 33 56 2 34 57 2 33 96 34 47 120 64 73 121 66 72 119 63 72 121 64 71 116 59 68 87 15 26 90 17 28 88 15 26 88 15 26 88 15 26 87 15 26 87 15 26 88 16 27 89 16 27 89 16 27 87 14 25 88 16 27 88 16 27 89 16 27 88 15 26 89 17 28 88 16 27 89 16 27 89 16 27 87 15 26 70 13 20 31 6 10 30 5 9 64 30 28 130 89 71 129 87 71 129 88 70 127 83 70 119 63 72 121 64 71 120 64 73 120 65 71 118 61 68 92 20 31 88 15 26 88 15 26 89 16 27 88 15 26 103 39 40 131 88 71 130 89 71 128 87 69 129 88 70 130 89 71 
57 2 34 57 2 34 57 2 34 57 2 34 57 2 34 57 2 34 57 2 34 57 2 34 57 2 34 57 2 34 57 2 34 57 2 34 57 2 34 57 2 34 57 2 34 57 2 34 57 2 34 57 2 34 57 2 34 57 2 34 57 2 34 57 2 34 57 2 34 57 2 34 57 2 34 57 2 34 57 2 34 57 2 34 57 2 34 57 2 34 57 2 34 57 2 34 57 2 34 57 2 34 57 2 34 57 2 34 57 2 34 57 2 34 57 2 34 57 2 34 57 2 34 57 2 34 57 2 34 57 2 34 57 2 34 56 2 34 57 2 34 56 3 33 57 2 33 63 4 32 113 53 61 121 64 73 121 66 72 121 64 73 119 63 72 109 46 55 87 15 26 88 15 26 88 16 27 87 14 25 88 16 27 90 17 28 88 15 26 88 15 26 87 15 26 88 16 27 87 15 26 89 16 27 88 15 26 87 15 26 88 16 27 90 17 28 88 15 26 88 16 27 88 16 27 89 16 27 69 12 21 31 6 9 30 6 6 61 30 27 129 88 70 129 88 68 130 87 68 128 86 70 121 66 72 121 66 72 121 64 73 121 66 72 121 64 73 97 27 37 88 16 27 88 15 26 90 17 28 88 15 26 96 29 36 130 89 71 126 87 70 129 88 68 130 89 71 130 89 69 
57 2 34 57 2 34 57 2 34 57 2 34 57 2 34 57 2 34 57 2 34 57 2 34 57 2 34 57 2 34 57 2 34 57 2 34 57 2 34 57 2 34 57 2 34 57 2 34 57 2 34 57 2 34 57 2 34 57 2 34 57 2 34 57 2 34 57 2 34 57 2 34 57 2 34 57 2 34 57 2 34 57 2 34 57 2 34 57 2 34 57 2 34 57 2 34 57 2 34 57 2 34 57 2 34 57 2 34 57 2 34 57 2 34 57 2 34 57 2 34 57 2 34 57 2 34 57 2 34 57 2 34 56 2 34 57 2 33 57 2 34 57 2 33 58 3 34 80 17 36 120 63 70 121 64 73 121 66 72 121 64 71 120 64 73 97 27 37 90 14 26 89 16 27 88 16 27 87 15 26 88 16 27 88 15 26 88 15 26 88 15 26 88 16 27 88 16 27 87 15 26 88 15 26 88 15 26 87 15 26 87 15 26 89 16 27 88 15 26 87 15 26 87 15 26 87 14 25 69 12 21 30 5 8 32 6 9 59 30 26 127 89 70 129 88 70 129 88 70 129 88 70 123 73 72 121 65 74 121 65 74 120 65 71 120 64 75 104 41 50 87 15 26 88 16 27 88 15 26 88 16 27 88 16 27 128 87 69 127 88 71 127 89 68 129 88 70 129 88 70 
57 2 34 57 2 34 57 2 34 57 2 34 57 2 34 57 2 34 57 2 34 57 2 34 57 2 34 57 2 34 57 2 34 57 2 34 57 2 34 57 2 34 57 2 34 57 2 34 57 2 34 57 2 34 57 2 34 57 2 34 57 2 34 57 2 34 57 2 34 57 2 34 57 2 34 57 2 34 57 2 34 57 2 34 57 2 34 57 2 34 57 2 34 57 2 34 57 2 34 57 2 34 57 2 34 57 2 34 57 2 34 57 2 34 57 2 34 57 2 34 57 2 34 57 2 34 57 2 34 57 2 34 57 2 34 57 2 34 56 2 34 56 2 34 59 4 35 100 34 44 121 64 73 120 64 73 120 63 70 118 65 73 117 60 69 89 17 28 89 16 27 88 15 26 88 16 27 87 15 26 88 15 26 88 16 27 88 16 27 86 14 25 89 16 27 88 15 26 89 16 27 88 16 27 87 15 26 88 15 26 88 15 26 87 15 26 87 15 26 89 16 27 88 15 26 87 15 26 71 11 19 31 6 9 31 6 9 58 28 26 127 89 70 129 88 68 128 90 71 131 86 65 126 79 71 120 64 73 122 65 72 121 64 71 121 64 73 115 58 67 88 16 28 87 15 26 89 16 27 87 15 26 90 17 28 125 82 65 129 88 70 129 88 68 129 88 70 127 89 70 
57 2 34 57 2 34 57 2 34 57 2 34 57 2 34 57 2 34 57 2 34 57 2 34 57 2 34 57 2 34 57 2 34 57 2 34 57 2 34 57 2 34 57 2 34 57 2 34 57 2 34 57 2 34 57 2 34 57 2 34 57 2 34 57 2 34 57 2 34 56 2 34 57 2 34 57 2 34 57 2 34 57 2 34 57 2 34 57 2 34 57 2 34 57 2 34 57 2 34 56 2 34 58 1 34 57 2 34 56 2 34 57 2 34 57 2 34 57 2 34 57 2 34 56 2 34 56 2 34 57 2 34 56 2 34 57 2 34 58 3 34 56 1 32 71 7 31 114 53 61 121 64 73 123 66 73 121 64 73 121 64 73 103 40 49 88 16 27 88 16 27 88 16 27 89 16 27 88 16 27 87 15 26 88 16 27 87 15 26 88 16 27 87 15 26 88 16 27 88 16 27 87 15 26 88 16 27 88 16 27 88 16 27 88 16 27 89 17 28 88 16 27 87 15 26 88 16 27 73 13 21 30 5 8 30 5 8 55 27 24 127 89 70 129 88 70 130 87 70 129 88 70 128 86 70 121 66 72 121 64 73 122 65 74 118 65 73 119 63 72 93 23 34 88 15 26 88 15 26 87 14 25 89 16 27 121 73 59 129 88 70 130 89 71 129 88 70 129 88 70 
56 2 34 57 2 34 57 2 34 57 2 34 57 2 34 57 2 34 58 1 34 57 2 34 56 2 34 54 3 34 57 2 34 56 2 34 57 2 34 57 2 34 57 2 34 56 2 34 56 2 34 57 2 34 57 2 34 57 2 34 57 2 34 56 2 34 57 2 34 57 2 34 57 2 34 57 2 34 57 2 34 57 2 34 57 2 34 57 2 34 57 2 34 57 2 34 57 2 34 56 2 34 57 2 34 56 2 34 57 2 34 56 2 34 57 2 34 57 2 34 56 2 34 56 2 34 57 2 34 57 2 34 57 2 34 57 2 33 56 2 34 57 3 35 86 17 35 120 63 72 120 64 75 121 64 71 121 64 73 120 63 72 97 27 38 88 16 27 89 17 28 87 15 26 87 15 26 87 15 26 89 17 28 88 16 27 88 16 27 87 15 26 87 15 26 88 16 27 88 16 27 87 15 26 89 16 27 88 15 26 88 15 26 88 15 26 89 16 27 88 15 26 88 15 26 88 15 26 73 13 21 31 6 10 30 5 9 53 25 22 131 88 69 129 88 68 130 87 70 127 89 70 127 89 70 122 70 72 122 65 74 121 65 74 122 65 72 121 64 71 104 38 48 90 17 28 88 16 27 87 15 26 89 16 27 113 63 54 129 88 70 130 87 70 127 89 70 128 87 69 
56 2 34 56 2 34 56 2 34 57 2 34 57 2 34 57 2 34 57 2 34 57 2 34 57 2 34 57 2 34 57 2 34 57 2 34 57 2 34 57 2 34 57 2 34 56 2 34 56 2 34 57 2 34 57 2 34 57 2 34 58 1 34 57 2 34 57 2 34 56 2 34 57 2 34 57 2 34 57 2 34 57 2 34 57 2 34 57 2 34 56 2 34 57 2 34 57 2 34 57 2 34 57 2 34 56 2 34 57 2 34 57 2 34 56 2 34 56 2 34 57 2 34 57 2 34 56 2 34 57 2 34 55 2 32 56 2 34 57 2 34 64 5 33 104 38 48 120 64 73 120 65 71 120 63 72 121 64 73 113 56 65 89 17 29 88 15 26 88 15 26 88 15 26 88 16 27 88 15 26 87 15 26 88 16 27 87 15 26 88 16 27 88 16 27 88 16 27 88 16 27 87 15 26 89 17 28 86 14 25 87 15 26 88 16 27 87 15 26 88 16 27 88 16 27 88 16 27 73 13 21 28 6 9 30 5 9 52 24 23 128 90 69 128 87 69 126 88 69 129 88 68 128 87 69 119 68 65 123 63 73 121 64 73 120 64 75 121 64 71 112 52 62 88 14 27 88 16 27 87 15 26 88 15 26 107 49 45 130 89 69 129 88 70 127 89 70 129 88 70 
57 2 34 57 2 34 57 2 34 56 2 34 56 2 34 56 2 34 56 2 34 57 2 34 56 2 34 57 2 34 57 2 34 57 2 34 57 2 34 57 2 34 57 2 34 56 2 34 56 2 34 57 2 34 57 2 34 57 2 34 57 2 34 57 2 34 57 2 34 57 2 34 57 2 34 57 2 34 57 2 34 56 2 34 58 1 34 57 2 34 57 2 34 57 2 34 58 1 34 57 2 34 57 2 34 56 2 34 57 2 34 56 2 34 56 2 34 57 2 34 57 2 34 57 2 34 57 2 34 56 2 34 58 3 34 57 2 34 56 2 34 72 9 30 115 55 63 122 65 72 121 65 74 123 63 73 120 64 73 105 39 49 88 14 27 86 14 25 87 15 26 88 15 26 88 15 26 89 16 27 87 15 26 88 16 27 87 15 26 87 15 26 88 16 27 88 16 27 87 15 26 88 16 27 89 17 28 87 15 26 88 16 27 88 16 27 88 16 27 87 15 26 87 15 26 88 16 27 74 14 22 31 4 9 27 7 8 51 22 24 127 89 68 128 87 69 129 88 70 129 88 70 127 89 68 117 64 58 121 66 72 120 65 71 120 64 73 121 64 73 120 65 71 91 19 30 88 15 26 89 16 27 87 15 26 101 39 40 129 88 70 129 88 70 130 89 71 129 88 70 
57 2 34 57 2 34 57 2 34 56 2 34 56 2 34 57 2 34 57 2 34 57 2 34 56 2 34 56 2 34 56 2 34 56 2 34 57 2 34 57 2 34 57 2 34 57 2 34 57 2 34 57 2 34 57 2 34 57 2 34 57 2 34 57 2 34 57 2 34 57 2 34 57 2 34 56 2 34 57 2 34 57 2 34 57 2 34 57 2 34 57 2 34 57 2 34 57 2 34 56 2 34 57 2 34 57 2 34 57 2 34 56 2 34 56 2 34 57 2 34 57 2 34 57 2 34 57 2 34 56 2 34 56 3 33 56 1 32 58 3 34 90 24 36 119 63 72 120 64 73 118 65 71 120 63 72 119 64 70 92 22 33 87 15 26 88 16 27 88 16 27 87 15 26 88 15 26 88 15 26 87 15 26 88 16 27 86 14 25 87 15 26 87 15 26 87 15 26 87 15 26 88 16 27 89 16 27 88 15 26 89 16 27 88 15 26 89 16 27 88 15 26 88 15 26 88 15 26 82 14 25 36 7 11 29 7 9 47 21 22 127 89 70 129 88 70 127 89 70 127 89 70 128 90 71 118 70 56 117 57 65 121 64 71 120 64 73 120 64 73 120 63 72 101 36 44 88 15 26 88 16 27 88 16 27 98 32 36 127 89 70 126 88 69 129 88 70 129 88 70 
57 2 34 57 2 34 57 2 34 57 2 34 57 2 34 57 2 34 57 2 34 57 2 34 57 2 34 57 2 34 56 2 34 57 2 34 57 2 34 57 2 34 57 2 34 57 2 34 57 2 34 57 2 34 57 2 34 57 2 34 56 2 34 57 2 34 57 2 34 57 2 34 57 2 34 57 2 34 56 2 34 57 2 34 57 2 34 57 2 34 57 2 34 57 2 34 56 2 34 57 2 34 56 2 34 57 2 34 57 2 34 57 2 34 56 2 34 56 2 34 57 2 34 57 2 34 56 2 34 57 2 34 57 2 33 56 2 34 69 7 32 106 43 52 120 63 72 121 64 73 120 64 73 120 64 73 114 54 62 88 16 27 87 15 26 87 15 26 88 16 27 88 16 27 88 16 27 88 16 27 87 15 26 88 16 27 87 15 26 88 16 27 87 15 26 87 15 26 87 15 26 86 14 25 87 15 26 88 16 27 87 15 26 87 15 26 89 17 28 87 15 26 87 15 26 87 15 26 89 16 27 42 7 11 31 6 9 47 18 20 127 89 70 127 89 70 129 88 70 129 88 70 127 89 68 124 78 63 105 42 51 121 66 72 124 64 74 119 63 72 121 66 72 111 51 61 88 15 26 87 15 26 88 15 26 94 24 32 129 88 70 129 88 70 127 89 70 129 88 70 
56 2 34 57 2 34 57 2 34 57 2 34 56 2 34 56 2 34 56 2 34 56 2 34 56 2 34 56 2 34 56 2 34 56 2 34 57 2 34 57 2 34 57 2 34 57 2 34 57 2 34 57 2 34 57 2 34 57 2 34 57 2 34 57 2 34 57 2 34 57 2 34 56 2 34 57 2 34 57 2 34 57 2 34 57 2 34 57 2 34 57 2 34 57 2 34 57 2 34 57 2 34 57 2 34 57 2 34 57 2 34 56 2 34 57 2 34 57 2 34 56 2 34 56 2 34 57 2 34 57 2 34 57 2 33 58 3 35 81 14 31 116 59 66 119 64 70 121 64 73 120 65 71 121 65 74 102 34 45 88 15 26 88 15 26 90 17 28 88 16 27 88 16 27 88 16 27 88 16 27 87 15 26 86 14 25 88 16 27 87 15 26 87 15 26 87 15 26 88 16 27 87 15 26 88 16 27 87 15 26 87 15 26 87 15 26 88 16 27 87 15 26 87 15 26 87 15 26 88 16 27 49 10 15 31 6 9 44 18 17 127 89 70 128 87 69 126 88 69 129 88 70 128 87 69 127 86 68 95 27 38 121 64 73 120 64 73 120 64 73 120 63 72 117 60 69 91 19 30 88 16 27 90 14 26 91 19 30 123 80 64 130 89 71 127 89 70 129 88 70 
57 2 34 56 2 34 56 2 34 56 2 34 57 2 34 57 2 34 58 1 34 56 2 34 57 2 34 56 2 34 56 2 34 56 2 34 57 2 34 57 2 34 57 2 34 56 2 34 56 2 34 57 2 34 57 2 34 57 2 34 56 2 34 57 2 34 56 2 34 57 2 34 57 2 34 57 2 34 57 2 34 57 2 34 57 2 34 57 2 34 57 2 34 57 2 34 57 2 34 57 2 34 56 2 34 57 2 34 56 2 34 57 2 34 57 2 34 57 2 34 57 2 34 56 2 34 56 2 34 57 2 34 57 2 34 62 3 33 98 32 42 121 64 71 120 64 73 119 63 72 120 65 71 120 63 72 91 19 31 88 16 27 87 15 26 88 15 26 88 16 27 88 16 27 89 16 27 88 15 26 87 15 26 88 16 27 87 15 26 88 16 27 86 14 25 87 15 26 88 16 27 87 15 26 88 16 27 86 14 25 87 15 26 88 16 27 87 15 26 88 16 27 87 15 26 88 16 27 89 16 25 63 12 19 30 5 9 43 17 16 129 88 70 128 87 67 130 87 70 130 87 70 129 88 70 129 88 70 94 24 32 118 61 68 121 64 73 121 66 72 120 65 71 121 66 72 99 32 41 87 14 25 88 16 27 88 16 27 119 71 57 127 89 70 129 88 70 129 88 70 
57 2 34 56 2 34 56 2 34 57 2 34 56 2 34 56 2 34 56 2 34 56 2 34 57 2 34 57 2 34 57 2 34 57 2 34 57 2 34 57 2 34 57 2 34 57 2 34 57 2 34 57 2 34 57 2 34 57 2 34 57 2 34 57 2 34 56 2 34 57 2 34 57 2 34 57 2 34 56 2 34 57 2 34 57 2 34 57 2 34 57 2 34 57 2 34 57 2 34 57 2 34 57 2 34 57 2 34 57 2 34 58 3 35 56 2 34 56 2 34 56 2 34 56 2 34 56 2 34 58 3 35 57 2 34 74 10 27 107 46 54 121 64 73 121 66 72 120 63 72 121 65 74 112 51 59 87 15 26 88 16 27 87 15 26 87 15 26 87 15 26 87 15 26 87 15 26 88 16 27 87 15 26 88 16 27 88 15 26 87 15 26 88 16 27 87 15 26 87 16 24 88 15 26 87 15 26 88 16 27 88 15 26 87 15 26 88 16 27 89 16 27 88 16 27 86 14 25 88 15 26 77 14 25 31 6 10 41 15 16 129 88 70 130 89 71 129 88 68 129 86 69 128 90 71 127 89 70 100 36 37 107 46 54 121 65 74 119 66 72 120 64 73 120 64 73 110 47 56 88 15 26 88 16 27 87 17 27 113 60 52 128 87 69 127 89 70 127 89 70 
57 2 34 56 2 34 56 2 34 57 2 34 57 2 34 57 2 34 57 2 34 57 2 34 56 2 34 56 2 34 56 2 34 56 2 34 57 2 34 57 2 34 56 2 34 57 2 34 57 2 34 56 2 34 57 2 34 57 2 34 56 2 34 58 1 34 57 2 34 54 3 34 58 1 34 57 2 34 57 2 34 58 1 34 56 2 34 57 2 34 57 2 34 57 2 34 57 2 34 57 2 34 57 2 34 56 2 34 57 2 33 55 1 33 56 2 34 57 2 34 55 1 33 56 2 34 57 2 34 56 2 34 59 2 34 86 18 31 118 61 68 119 63 72 120 64 73 120 64 73 119 63 72 98 30 41 87 15 26 89 16 27 87 15 26 87 15 26 86 14 25 88 16 27 88 15 26 88 15 26 87 15 26 88 16 27 88 15 26 88 15 26 88 15 26 88 17 25 87 15 26 89 16 27 87 15 26 88 15 26 88 16 27 88 15 26 88 15 26 88 16 27 88 15 26 87 15 26 89 16 27 84 14 25 31 4 9 41 15 16 125 87 68 129 88 70 129 88 68 130 89 71 126 88 69 128 87 69 104 44 43 96 28 39 119 64 70 122 65 74 120 64 73 122 65 72 118 58 68 89 17 28 87 15 26 88 15 26 111 53 49 129 88 70 128 86 70 128 87 69 
57 2 34 56 2 34 56 2 34 57 2 34 57 2 34 57 2 34 57 2 34 57 2 34 56 2 34 56 2 34 56 2 34 56 2 34 57 2 34 56 2 34 57 2 34 57 2 34 57 2 34 57 2 34 56 2 34 57 2 34 57 2 34 56 2 34 56 2 34 56 2 34 57 2 34 57 2 34 56 2 34 57 2 34 57 2 34 57 2 34 57 2 34 57 2 34 57 2 34 57 2 34 57 2 34 57 2 34 53 2 33 56 2 34 56 2 34 56 2 34 56 2 34 56 1 33 56 2 34 56 2 34 66 6 32 99 32 39 119 66 74 121 64 73 118 65 73 120 63 70 115 59 68 90 18 29 87 15 26 88 16 27 88 16 27 87 15 26 87 15 26 86 16 26 87 15 26 88 15 26 87 15 26 87 15 26 89 16 27 88 16 27 87 15 26 88 15 26 87 15 26 88 16 27 87 15 26 87 15 26 88 16 27 87 15 26 88 16 27 87 15 26 87 15 26 87 15 26 88 16 28 88 16 27 41 6 12 40 14 15 127 86 68 129 88 70 125 89 67 129 88 70 129 88 70 127 89 70 108 53 48 89 19 29 117 60 69 122 65 74 120 63 72 121 64 71 121 65 74 98 28 39 88 16 27 88 15 26 104 42 43 127 89 70 129 88 70 129 88 70 
57 2 34 56 2 34 56 2 34 57 2 34 57 2 34 57 2 34 57 2 34 57 2 34 56 2 34 56 2 34 56 2 34 56 2 34 57 2 34 57 2 34 57 2 34 57 2 34 57 2 34 57 2 34 57 2 34 57 2 34 57 2 34 58 1 34 57 2 34 57 2 34 57 2 34 57 2 34 57 2 34 57 2 34 57 2 34 57 2 34 57 2 34 56 2 34 56 2 34 57 2 34 57 2 34 57 2 34 56 2 34 57 2 34 56 2 34 56 2 34 57 2 34 54 3 34 57 2 34 56 2 34 78 11 29 109 48 56 120 64 73 120 64 73 120 65 71 121 64 71 108 47 55 88 15 26 87 15 26 88 16 27 88 16 27 87 15 26 86 14 25 88 16 27 87 15 26 87 15 26 87 15 26 87 15 26 88 16 27 88 15 26 87 15 26 87 15 27 88 16 27 87 17 27 88 16 27 88 15 26 87 15 26 88 15 26 88 15 26 87 15 26 88 15 26 87 15 26 87 15 27 88 16 27 57 12 19 39 15 15 124 86 67 129 88 68 128 87 69 129 88 70 126 88 69 127 89 70 110 60 53 88 16 27 109 48 56 120 65 70 121 64 73 120 64 73 120 64 73 105 44 52 88 16 27 88 16 27 97 32 38 129 88 70 128 87 69 128 87 69 
57 2 34 56 2 34 56 2 34 57 2 34 56 2 34 56 2 34 56 2 34 56 2 34 57 2 34 57 2 34 57 2 34 57 2 34 57 2 34 57 2 34 57 2 34 57 2 34 57 2 34 57 2 34 57 2 34 57 2 34 56 2 34 57 2 34 56 2 34 56 2 34 57 2 34 57 2 34 56 2 34 56 2 34 56 2 34 57 2 34 57 2 34 57 2 34 57 2 34 57 2 34 57 2 34 56 2 34 58 1 34 56 2 34 57 2 34 57 2 34 56 2 36 57 2 34 56 2 34 59 3 32 90 19 33 116 59 68 119 63 72 121 65 74 121 64 71 120 65 71 96 26 36 87 15 26 88 15 26 88 15 26 87 15 26 87 15 26 88 16 27 87 15 26 88 16 27 87 15 26 88 16 27 87 15 26 88 15 26 89 16 27 88 17 25 87 15 26 87 15 26 87 15 27 89 17 28 87 15 26 87 15 26 87 15 26 88 16 27 87 15 26 87 15 26 87 15 26 87 15 26 89 16 27 68 12 23 39 13 16 126 85 67 129 88 66 128 87 69 127 89 70 129 88 70 127 89 70 118 70 58 87 15 26 100 34 44 121 64 71 120 64 73 121 65 74 122 65 74 113 56 63 89 17 28 88 16 27 93 23 31 127 86 68 128 87 69 129 88 70 
57 2 34 56 2 34 56 2 34 57 2 34 56 2 34 56 2 34 56 2 34 56 2 34 57 2 34 57 2 34 57 2 34 57 2 34 57 2 34 56 2 34 57 2 34 57 2 34 57 2 34 57 2 34 56 2 34 57 2 34 57 2 34 57 2 34 57 2 34 58 1 34 57 2 34 57 2 34 56 2 34 57 2 34 57 2 34 57 2 34 57 2 34 57 2 34 57 2 34 57 2 34 57 2 34 57 2 34 57 2 34 57 2 34 57 2 34 57 2 34 57 2 34 56 2 34 57 2 34 66 6 31 97 31 41 119 64 70 121 65 74 121 64 71 118 63 69 118 58 66 89 17 28 87 15 26 88 15 26 88 16 27 88 16 27 87 15 26 87 15 26 88 16 27 88 16 27 87 15 26 88 16 27 87 15 26 88 16 27 87 15 27 88 15 26 86 16 26 88 15 24 88 15 26 87 17 27 88 16 27 88 15 26 88 16 27 88 16 27 88 15 26 88 16 27 86 16 26 87 15 26 87 15 26 79 13 23 40 14 15 127 84 67 128 87 67 128 87 69 127 89 70 127 89 70 129 88 70 125 82 66 90 17 26 91 19 33 116 63 71 120 64 73 119 64 70 120 64 73 119 64 70 94 24 35 87 15 26 90 18 29 127 81 65 129 88 70 129 88 70 
57 2 34 56 2 34 56 2 34 57 2 34 56 2 34 56 2 34 56 2 34 56 2 34 57 2 34 57 2 34 57 2 34 57 2 34 57 2 34 57 2 34 56 2 34 57 2 34 57 2 34 56 2 34 57 2 34 57 2 34 56 2 34 57 2 34 57 2 34 56 2 34 57 2 34 57 2 34 57 2 34 56 2 34 57 2 34 57 2 34 57 2 34 56 2 34 56 2 34 57 2 34 57 2 34 57 2 34 57 2 33 57 2 34 57 2 34 56 1 33 57 2 34 57 2 34 57 2 33 80 13 30 108 46 57 120 65 71 119 63 72 119 64 70 120 64 73 108 45 54 86 14 25 88 15 26 87 15 26 87 15 26 88 15 26 87 15 26 88 16 27 89 16 27 89 17 28 87 15 26 87 15 27 87 15 26 87 15 26 86 16 26 88 16 27 87 15 26 88 15 26 88 16 27 87 15 26 87 15 26 87 15 26 87 15 26 87 15 26 87 15 26 87 15 26 87 15 26 87 15 26 86 16 26 83 16 25 47 15 16 123 86 67 129 88 70 127 86 68 128 87 69 129 88 70 128 87 69 128 87 69 91 20 28 89 17 28 113 56 63 120 64 73 120 65 71 121 65 74 120 64 73 100 34 44 88 16 28 89 17 28 123 77 62 129 88 68 127 89 70 
57 2 34 56 2 34 56 2 34 57 2 34 57 2 34 57 2 34 57 2 34 57 2 34 56 2 34 56 2 34 56 2 34 56 2 34 57 2 34 57 2 34 57 2 34 57 2 34 57 2 34 57 2 34 57 2 34 57 2 34 57 2 34 57 2 34 57 2 34 57 2 34 57 2 34 57 2 34 56 2 34 56 2 34 57 2 34 57 2 34 57 2 34 57 2 34 57 2 34 57 2 34 57 2 34 57 2 34 58 3 34 56 2 34 56 2 34 57 2 34 55 1 33 57 2 34 60 3 35 90 18 30 118 62 71 120 64 75 119 64 70 120 64 73 121 64 71 94 26 37 87 15 26 87 16 24 87 15 26 86 14 25 87 15 26 87 15 26 87 15 26 87 15 26 87 15 26 87 14 25 89 16 27 89 16 27 84 14 25 88 17 25 88 16 27 88 16 27 87 15 26 87 15 26 88 16 27 87 15 26 88 15 26 87 15 26 87 15 26 88 15 26 87 15 26 88 16 27 87 16 24 87 15 26 88 15 24 61 16 21 125 83 67 129 88 70 127 89 70 128 87 69 127 86 66 128 87 69 129 88 66 96 26 34 88 17 25 107 44 53 121 66 72 119 63 72 120 64 73 119 63 72 107 47 57 87 17 28 88 15 26 118 69 55 128 87 69 128 87 69 
57 2 34 57 2 34 57 2 34 57 2 34 56 2 34 56 2 34 56 2 34 56 2 34 56 2 34 56 2 34 56 2 34 56 2 34 57 2 34 57 2 34 57 2 34 57 2 34 57 2 34 57 2 34 57 2 34 57 2 34 56 2 34 57 2 34 57 2 34 57 2 34 57 2 34 56 2 34 56 2 34 56 2 34 57 2 34 57 2 34 57 2 34 57 2 34 57 2 34 57 2 34 57 2 34 57 2 34 56 2 34 56 3 33 57 2 33 56 2 34 57 2 34 56 2 34 64 6 31 96 30 40 119 63 72 120 64 75 120 64 73 120 64 73 116 61 67 88 16 27 86 14 25 87 15 26 88 15 26 88 16 27 88 15 26 87 13 26 87 15 26 87 15 26 88 15 26 87 15 26 89 16 27 86 14 28 69 7 30 88 17 25 87 15 26 88 15 26 87 15 27 87 15 26 87 15 26 87 15 27 88 16 27 88 15 26 88 16 28 87 15 26 88 16 27 88 16 27 87 13 26 87 15 26 87 17 27 71 16 21 123 85 66 128 87 69 130 89 71 130 87 70 127 89 70 127 89 70 126 88 67 99 37 38 88 15 26 93 25 36 121 65 74 120 63 72 120 64 73 120 64 73 117 60 69 87 17 27 86 14 25 113 60 54 128 87 67 129 88 70 
57 2 34 57 2 34 57 2 34 57 2 34 57 2 34 57 2 34 57 2 34 57 2 34 57 2 34 57 2 34 57 2 34 57 2 34 57 2 34 57 2 34 57 2 34 57 2 34 57 2 34 57 2 34 57 2 34 57 2 34 56 2 34 57 2 34 57 2 34 56 2 34 57 2 34 57 2 34 57 2 34 57 2 34 57 2 34 57 2 34 57 2 34 57 2 34 57 2 34 57 2 34 57 2 34 57 2 34 55 1 33 56 2 34 56 2 34 56 2 34 56 2 34 57 2 34 64 4 30 107 44 52 121 64 73 119 63 72 119 64 70 120 64 73 106 45 53 87 15 26 87 17 27 87 15 26 87 15 27 86 16 26 87 15 26 88 16 27 87 15 27 87 15 26 88 15 26 86 16 26 89 16 27 76 12 29 58 2 31 87 15 26 88 16 27 87 15 27 86 14 25 87 15 26 88 16 27 88 16 27 87 15 27 86 16 26 88 15 26 87 15 26 88 17 25 88 14 27 87 15 27 87 15 26 87 15 26 86 21 29 124 83 65 129 88 70 126 88 69 128 87 69 128 87 69 126 88 69 129 88 68 106 51 48 87 15 26 88 16 27 118 61 68 117 64 72 120 64 73 119 64 70 119 63 72 94 24 34 86 14 26 109 51 47 127 89 70 128 87 69 
57 2 34 57 2 34 57 2 34 57 2 34 57 2 34 57 2 34 57 2 34 57 2 34 57 2 34 57 2 34 57 2 34 57 2 34 57 2 34 57 2 34 57 2 34 57 2 34 57 2 34 57 2 34 57 2 34 57 2 34 56 2 34 56 2 34 56 2 34 56 2 34 57 2 34 57 2 34 57 2 34 57 2 34 57 2 34 57 2 34 57 2 34 57 2 34 57 2 34 57 2 34 57 2 34 57 2 34 56 2 34 57 2 34 56 2 34 56 2 34 56 2 34 56 2 34 58 3 34 106 46 58 120 64 73 120 63 72 119 64 70 121 65 74 99 29 40 87 15 26 85 15 25 88 15 26 87 15 27 86 14 25 88 16 27 87 15 26 87 15 26 87 15 26 89 16 27 87 15 26 88 16 27 65 5 31 56 3 33 83 12 28 87 15 26 86 16 26 88 17 25 87 17 27 88 15 26 88 15 26 88 16 27 87 15 27 87 15 26 90 14 27 88 14 27 88 15 26 88 15 26 87 15 26 88 16 27 88 16 27 120 81 64 126 88 69 129 88 70 129 86 69 129 88 68 126 88 69 129 88 70 112 59 53 88 16 27 88 16 27 109 48 56 117 64 72 121 65 74 120 65 71 121 64 71 103 40 49 87 15 27 102 44 43 129 88 70 126 88 69 
57 2 34 57 2 34 57 2 34 57 2 34 56 2 34 56 2 34 56 2 34 56 2 34 56 2 34 56 2 34 56 2 34 56 2 34 57 2 34 57 2 34 57 2 34 57 2 34 57 2 34 57 2 34 57 2 34 57 2 34 57 2 34 57 2 34 57 2 34 57 2 34 57 2 34 56 2 34 56 2 34 57 2 34 57 2 34 57 2 34 57 2 34 57 2 34 57 2 34 57 2 34 57 2 34 57 2 34 55 1 33 56 1 32 56 2 34 56 2 34 57 2 34 57 2 33 54 4 33 81 24 43 119 64 70 120 64 73 120 64 73 112 55 64 88 16 28 86 16 26 87 15 26 88 15 26 87 15 26 88 15 26 88 16 27 88 16 27 86 16 26 89 16 27 87 15 26 88 16 27 82 11 29 57 2 33 56 2 34 71 7 33 88 16 28 89 15 28 87 15 26 88 15 26 85 15 26 88 16 27 89 16 25 86 14 26 87 15 26 87 15 27 87 15 27 87 15 27 87 15 26 86 14 25 87 14 25 87 15 26 119 69 58 128 87 69 129 88 70 126 88 69 126 88 67 128 87 69 128 85 68 116 66 55 87 15 26 88 14 27 103 37 47 119 64 70 119 63 72 120 64 73 119 63 72 112 52 62 86 14 25 99 37 38 127 89 68 127 89 70 
57 2 34 57 2 34 57 2 34 57 2 34 56 2 34 56 2 34 56 2 34 56 2 34 56 2 34 56 2 34 56 2 34 56 2 34 57 2 34 57 2 34 57 2 34 57 2 34 57 2 34 57 2 34 57 2 34 57 2 34 57 2 34 57 2 34 57 2 34 57 2 34 56 2 34 57 2 34 57 2 34 56 2 34 57 2 34 57 2 34 57 2 34 57 2 34 57 2 34 57 2 34 57 2 34 57 2 34 58 3 35 57 2 34 57 2 34 56 2 34 57 2 34 57 2 34 55 1 33 56 3 33 88 25 42 106 43 52 104 41 50 91 23 34 86 14 25 88 16 27 87 15 27 88 14 27 89 16 27 87 14 25 88 15 26 87 14 25 88 16 28 88 14 27 87 15 26 87 15 26 67 7 32 55 1 33 57 2 34 56 2 34 74 11 32 88 16 27 87 15 26 87 15 26 86 14 25 87 15 26 89 16 27 86 14 26 87 14 25 87 15 26 88 15 26 88 16 27 86 14 25 87 15 26 87 15 26 88 16 27 109 52 45 128 87 69 129 88 70 127 86 68 129 88 70 127 89 70 128 87 67 121 75 60 88 15 26 86 14 26 95 25 36 120 64 73 120 64 73 119 63 72 120 64 73 116 56 64 87 15 26 97 31 35 127 86 68 128 87 69 
57 2 34 57 2 34 57 2 34 57 2 34 57 2 34 57 2 34 57 2 34 57 2 34 57 2 34 57 2 34 57 2 34 57 2 34 57 2 34 57 2 34 57 2 34 57 2 34 57 2 34 57 2 34 57 2 34 57 2 34 56 2 34 56 2 34 56 2 34 56 2 34 56 2 34 57 2 34 57 2 34 57 2 34 57 2 34 57 2 34 57 2 34 57 2 34 57 2 34 57 2 34 57 2 34 57 2 34 56 3 33 54 3 34 57 2 34 54 3 34 57 2 34 56 2 34 57 2 34 56 2 34 56 3 33 69 7 32 79 12 29 82 14 27 85 13 25 87 15 26 89 17 28 88 16 27 88 15 26 87 15 26 87 15 26 88 16 27 87 15 27 88 14 27 87 15 26 81 13 28 58 3 35 56 2 34 56 2 34 56 2 34 55 1 33 65 7 31 78 11 28 84 13 27 85 14 28 87 15 26 87 15 27 87 15 26 86 14 25 88 15 26 87 15 26 86 16 26 87 15 26 88 16 27 88 16 27 87 15 26 100 38 39 127 85 69 128 87 67 129 88 70 128 87 69 128 87 69 128 87 67 122 79 63 90 18 29 86 14 26 88 16 27 116 56 66 120 63 72 120 64 73 119 63 72 110 48 59 87 15 26 96 34 37 128 87 69 126 88 69 
57 2 34 57 2 34 57 2 34 57 2 34 57 2 34 57 2 34 57 2 34 57 2 34 57 2 34 57 2 34 57 2 34 57 2 34 57 2 34 57 2 34 57 2 34 57 2 34 57 2 34 57 2 34 57 2 34 57 2 34 58 1 34 56 2 34 56 2 34 57 2 34 56 2 34 57 2 34 57 2 34 57 2 34 57 2 34 57 2 34 57 2 34 57 2 34 57 2 34 57 2 34 57 2 34 57 2 34 56 2 34 56 2 34 56 2 34 56 2 34 55 1 33 56 2 34 56 2 34 55 1 33 57 2 33 56 1 33 56 2 34 56 2 34 74 9 31 87 15 27 88 15 26 87 15 26 87 15 26 88 15 26 88 15 26 87 15 26 86 16 26 86 14 26 87 15 27 69 7 32 57 2 34 56 2 34 56 2 34 56 2 34 55 1 33 56 1 33 57 2 34 58 3 35 78 11 28 88 16 28 87 15 26 88 16 27 88 16 28 88 15 26 87 15 27 86 14 26 86 16 26 88 16 27 88 15 26 87 17 27 94 24 32 126 83 67 127 86 66 127 89 70 127 89 70 127 86 68 128 87 67 126 84 68 98 33 37 89 15 28 85 15 25 96 26 36 114 57 64 120 63 70 113 58 64 91 21 32 87 15 26 110 55 50 130 89 71 129 88 68 
57 2 34 57 2 34 57 2 34 57 2 34 56 2 34 56 2 34 56 2 34 56 2 34 56 2 34 56 2 34 56 2 34 56 2 34 57 2 34 57 2 34 57 2 34 57 2 34 57 2 34 57 2 34 57 2 34 57 2 34 57 2 34 57 2 34 56 2 34 57 2 34 56 2 34 57 2 34 57 2 34 56 2 34 57 2 34 57 2 34 57 2 34 57 2 34 57 2 34 57 2 34 57 2 34 57 2 34 55 2 32 57 2 34 56 1 33 56 2 34 54 3 34 57 2 31 56 2 34 57 2 34 56 1 33 57 2 34 54 3 34 58 3 32 84 13 27 87 15 26 87 15 27 87 15 26 88 16 27 87 15 26 86 16 24 89 16 27 87 15 26 87 15 27 82 14 27 57 3 35 56 0 35 56 2 34 57 2 34 57 2 33 57 2 33 57 2 34 57 2 33 62 3 31 86 14 26 87 15 26 87 15 26 87 15 27 87 15 26 87 15 26 87 15 26 86 14 25 88 15 26 87 15 26 87 15 26 87 15 26 88 16 28 121 78 62 126 88 67 128 87 67 128 87 67 128 87 69 128 87 69 126 88 67 117 67 56 89 18 26 88 16 28 88 16 27 89 17 28 93 19 32 90 16 29 87 14 25 96 31 37 126 85 67 129 86 67 129 88 68 
57 2 34 57 2 34 57 2 34 57 2 34 57 2 34 57 2 34 57 2 34 57 2 34 57 2 34 57 2 34 57 2 34 57 2 34 57 2 34 57 2 34 57 2 34 57 2 34 57 2 34 57 2 34 57 2 34 57 2 34 57 2 34 57 2 34 57 2 34 57 2 34 57 2 34 57 2 34 57 2 34 57 2 34 57 2 34 57 2 34 57 2 34 57 2 34 57 2 34 57 2 34 57 2 34 57 2 34 57 2 34 57 2 34 57 2 34 57 2 34 57 2 34 57 2 34 57 2 34 57 2 34 56 2 34 57 2 33 56 2 36 69 7 30 87 15 26 87 15 26 86 14 26 87 15 26 86 14 26 87 15 26 88 16 27 88 14 27 87 17 27 86 14 25 70 8 29 57 2 33 56 3 33 58 3 35 57 2 34 56 2 34 58 3 35 57 2 33 55 2 32 70 8 31 88 16 27 88 16 27 87 15 26 86 14 25 87 15 26 87 15 26 87 15 26 88 16 27 87 14 25 86 14 26 87 15 26 87 17 27 90 14 26 114 66 56 125 87 66 126 88 69 128 87 69 129 88 68 128 87 69 128 87 67 128 87 69 109 54 49 89 19 29 87 15 26 87 15 26 87 15 26 87 15 27 95 30 34 120 77 60 128 87 67 128 87 69 126 88 67 
57 2 34 57 2 34 57 2 34 57 2 34 57 2 34 57 2 34 57 2 34 57 2 34 57 2 34 57 2 34 57 2 34 57 2 34 57 2 34 57 2 34 57 2 34 57 2 34 57 2 34 57 2 34 57 2 34 57 2 34 57 2 34 57 2 34 57 2 34 57 2 34 57 2 34 57 2 34 57 2 34 57 2 34 57 2 34 57 2 34 57 2 34 57 2 34 57 2 34 57 2 34 57 2 34 57 2 34 57 2 34 57 2 34 57 2 34 57 2 34 57 2 34 57 2 34 57 2 34 57 2 34 56 2 34 57 2 34 58 3 35 81 13 26 87 16 24 86 14 25 86 14 26 87 15 26 87 15 26 88 15 26 86 16 26 88 15 26 88 16 27 85 13 25 60 4 33 56 2 34 56 2 34 56 2 34 57 2 34 56 2 36 57 2 34 57 2 34 57 2 33 83 12 26 88 16 27 87 15 26 87 15 26 88 16 27 87 15 26 87 15 26 87 15 26 87 15 26 88 16 27 87 15 27 89 16 27 86 14 25 87 15 26 107 52 47 127 86 68 128 86 70 128 87 67 128 87 69 127 89 68 128 87 67 126 88 69 129 88 68 124 78 63 110 50 49 102 44 43 105 45 45 114 61 53 126 84 68 129 88 70 128 87 67 130 87 70 127 89 70 
