P3
100 50
255
59 2 35 59 2 35 59 2 35 59 2 35 59 2 35 59 2 35 59 2 35 59 2 35 59 2 35 59 2 35 59 2 35 59 2 35 63 1 38 73 2 44 73 2 44 63 1 38 59 2 35 59 2 35 59 2 35 59 2 35 70 2 41 73 2 44 68 2 40 59 2 35 59 2 35 59 2 35 59 2 35 63 1 38 73 2 44 73 2 44 63 2 36 59 2 35 59 2 35 59 2 35 59 2 35 68 1 42 73 2 44 70 2 41 59 2 35 59 2 35 59 2 35 59 2 35 62 2 36 73 2 44 73 2 44 62 2 36 59 2 35 59 2 35 59 2 35 59 2 35 69 2 43 74 1 44 70 2 41 61 1 35 59 2 35 59 2 35 59 2 35 59 2 35 59 2 35 59 2 35 59 2 35 59 2 35 59 2 35 59 2 35 59 2 35 69 2 43 73 2 44 69 3 41 59 2 35 59 2 35 59 2 35 59 2 35 64 2 39 73 2 44 73 2 44 63 1 38 59 2 35 59 2 35 59 2 35 59 2 35 59 2 35 59 2 35 59 2 35 59 2 35 60 3 36 59 2 35 59 2 35 64 2 39 71 3 44 73 2 44 62 2 38 58 3 35 59 2 35 59 2 35 59 2 35 21 22 26 8 29 24 8 29 22 8 29 24 8 29 22 
59 2 35 59 2 35 59 2 35 59 2 35 59 2 35 59 2 35 59 2 35 59 2 35 59 2 35 59 2 35 59 2 35 59 2 35 63 1 38 73 2 44 73 2 44 63 1 38 59 2 35 59 2 35 59 2 35 59 2 35 70 2 41 73 2 44 68 2 40 59 2 35 59 2 35 59 2 35 59 2 35 63 1 38 73 2 44 73 2 44 63 2 36 59 2 35 59 2 35 59 2 35 59 2 35 69 2 43 73 2 44 69 1 40 59 2 35 59 2 35 59 2 35 59 2 35 62 2 36 73 2 44 73 2 44 62 2 36 59 2 35 59 2 35 59 2 35 59 2 35 70 2 43 73 2 44 70 2 41 59 2 35 59 2 35 59 2 35 59 2 35 59 2 35 59 2 35 59 2 35 59 2 35 59 2 35 59 2 35 59 2 35 59 2 35 69 2 43 73 2 44 69 3 41 59 2 35 59 2 35 59 2 35 59 2 35 63 1 38 73 2 44 73 2 44 63 1 38 59 2 35 59 2 35 59 2 35 59 2 35 59 2 35 59 2 35 59 2 35 59 2 35 59 2 35 59 2 35 59 2 35 64 2 39 73 2 44 74 1 44 63 1 38 59 2 35 61 1 35 59 2 35 59 2 35 16 24 26 8 29 24 8 29 22 8 29 24 8 29 22 
59 2 35 59 2 35 59 2 35 59 2 35 59 2 35 59 2 35 59 2 35 59 2 35 59 2 35 59 2 35 59 2 35 59 2 35 63 1 38 73 2 44 73 2 44 63 1 38 59 2 35 59 2 35 59 2 35 59 2 35 70 2 41 73 2 44 71 0 40 57 3 35 59 2 35 59 2 35 59 2 35 63 1 38 73 2 44 73 2 44 62 2 36 59 2 35 59 2 35 58 1 34 59 2 35 69 2 43 73 2 44 70 2 43 59 2 35 59 2 35 59 2 35 59 2 35 62 2 36 73 2 44 73 2 44 62 2 36 59 2 35 59 2 35 59 2 35 59 2 35 72 1 43 73 2 44 69 3 41 59 2 35 59 2 35 59 2 35 59 2 35 59 2 35 59 2 35 59 2 35 59 2 35 59 2 35 59 2 35 59 2 35 59 2 35 69 2 43 73 2 44 69 3 41 59 2 35 59 2 35 59 2 35 59 2 35 63 1 38 73 2 44 73 2 44 64 2 39 59 2 35 58 1 34 59 2 35 59 2 35 59 2 35 59 2 35 59 2 35 59 2 35 59 2 35 60 3 36 59 2 35 63 1 38 71 3 44 73 2 44 62 2 38 59 2 35 59 2 35 58 3 35 59 2 35 14 26 24 8 29 24 8 29 24 8 28 26 8 29 22 
59 2 35 59 2 35 59 2 35 59 2 35 59 2 35 59 2 35 59 2 35 59 2 35 59 2 35 59 2 35 59 2 35 59 2 35 63 1 38 73 2 44 73 2 44 63 1 38 59 2 35 59 2 35 59 2 35 59 2 35 70 2 41 73 2 44 68 2 40 59 2 35 59 2 35 59 2 35 59 2 35 62 2 38 73 2 44 73 2 44 62 2 36 59 2 35 59 2 35 58 1 34 60 3 36 69 2 43 73 2 44 70 2 41 59 2 35 58 1 34 59 2 35 59 2 35 62 2 36 73 2 44 73 2 44 62 2 36 59 2 35 59 2 35 59 2 35 59 2 35 69 2 43 73 2 44 69 3 41 59 2 35 59 2 35 59 2 35 59 2 35 59 2 35 59 2 35 59 2 35 59 2 35 59 2 35 59 2 35 59 2 35 59 2 35 69 2 43 73 2 44 69 3 41 59 2 35 59 2 35 59 2 35 59 2 35 64 2 39 73 2 44 73 2 44 63 1 38 59 2 35 59 2 35 59 2 35 59 2 35 59 2 35 59 2 35 59 2 35 59 2 35 59 2 35 59 2 35 59 2 35 63 1 38 73 2 44 74 3 45 63 1 38 61 1 35 59 2 35 59 2 35 58 3 35 12 27 24 8 29 22 8 29 24 8 29 24 8 29 22 
59 2 35 59 2 35 59 2 35 59 2 35 59 2 35 59 2 35 59 2 35 59 2 35 59 2 35 59 2 35 59 2 35 59 2 35 62 2 38 73 2 44 73 2 44 62 2 38 59 2 35 59 2 35 59 2 35 59 2 35 70 2 41 73 2 44 68 2 40 59 2 35 59 2 35 59 2 35 59 2 35 63 1 38 73 2 44 73 2 44 62 2 36 59 2 35 59 2 35 59 2 35 59 2 35 69 3 41 73 2 44 70 2 41 59 2 35 59 2 35 58 3 35 59 2 35 63 1 38 73 2 44 73 2 44 62 2 36 59 2 35 59 2 35 59 2 35 59 2 35 69 2 43 73 2 44 70 2 41 59 2 35 59 2 35 59 2 35 59 2 35 59 2 35 59 2 35 59 2 35 59 2 35 59 2 35 59 2 35 59 2 35 59 2 35 68 1 42 73 2 44 69 2 43 59 2 35 59 2 37 59 2 35 59 2 35 62 2 38 73 2 44 73 2 44 63 2 36 59 2 35 59 2 35 59 2 35 59 2 35 59 2 35 59 2 35 59 2 35 59 2 35 59 2 35 58 3 35 59 2 35 62 2 38 73 2 46 73 2 44 63 2 36 59 2 35 59 2 35 61 1 35 55 4 35 9 28 24 8 29 22 7 28 21 9 28 24 12 27 24 
59 2 35 60 3 36 59 2 35 59 2 35 59 2 35 59 2 35 59 2 35 58 1 34 59 2 35 58 1 34 60 3 36 59 2 35 63 3 39 73 2 44 73 2 44 62 2 38 59 2 35 59 2 35 59 2 37 59 2 35 70 2 43 73 2 44 68 2 40 59 2 35 59 2 35 59 2 35 59 2 35 63 1 38 73 2 44 73 2 44 62 2 36 59 2 35 59 2 35 59 2 35 59 2 35 69 3 41 73 2 44 70 2 41 59 2 35 59 2 35 59 2 35 59 2 35 62 2 36 73 2 42 73 2 44 63 2 36 59 2 35 58 3 35 59 2 35 59 2 35 69 2 43 73 2 44 70 2 41 59 2 35 59 2 35 59 2 35 59 2 35 59 2 35 59 2 35 59 2 35 59 2 35 59 2 35 59 2 35 59 2 35 59 2 35 69 2 43 73 2 44 69 3 41 59 2 35 59 2 35 59 2 35 59 2 35 62 2 38 73 2 44 73 2 44 63 2 36 59 2 35 59 2 35 59 2 35 59 2 35 59 2 35 59 2 35 59 2 35 59 2 35 59 2 35 59 2 35 59 2 35 63 1 38 73 2 44 73 2 44 63 1 38 59 2 35 61 1 35 59 2 35 54 5 34 9 28 24 7 28 21 10 29 23 8 29 24 11 26 23 
59 2 35 59 2 35 59 2 35 59 2 35 59 2 35 59 2 35 59 2 35 59 2 35 59 2 35 59 2 35 59 2 35 59 2 35 62 2 38 73 2 44 73 2 44 63 3 39 59 2 35 59 2 35 59 2 37 59 2 35 70 2 43 73 2 44 68 2 40 59 2 35 59 2 35 59 2 35 59 2 35 63 1 38 73 2 44 73 2 44 62 2 36 59 2 35 59 2 35 59 2 35 59 2 35 69 3 41 73 2 44 70 2 41 59 2 35 59 2 35 59 2 35 59 2 35 62 2 36 73 2 44 73 2 44 62 2 38 59 2 35 59 2 35 59 2 35 59 2 35 69 2 43 73 2 44 70 2 41 59 2 35 59 2 35 60 3 36 59 2 35 59 2 35 59 2 35 59 2 35 59 2 35 59 2 35 59 2 35 59 2 35 59 2 35 69 2 43 73 2 44 69 2 43 59 2 35 59 2 37 59 2 35 59 2 35 62 2 38 73 2 44 73 2 44 63 1 38 59 2 37 59 2 35 59 2 37 59 2 35 59 2 35 59 2 35 59 2 35 59 2 35 59 2 35 59 2 35 59 2 35 63 1 38 73 2 44 73 2 44 63 1 38 59 2 37 59 2 35 58 3 35 50 7 34 8 29 22 8 29 24 8 29 22 8 29 24 12 27 24 
59 2 35 59 2 35 59 2 35 59 2 35 59 2 35 59 2 35 59 2 35 59 2 35 59 2 35 59 2 35 59 2 35 59 2 35 63 3 39 73 2 44 73 2 44 62 2 38 59 2 35 59 2 35 59 2 35 59 2 35 70 2 41 73 2 44 68 2 40 59 2 35 59 2 35 59 2 35 59 2 35 63 1 38 73 2 44 73 2 44 62 2 36 59 2 35 59 2 35 59 2 37 59 2 35 69 2 43 73 2 44 70 2 43 59 2 35 59 2 37 59 2 35 59 2 35 62 2 38 73 2 44 73 2 44 62 2 36 59 2 35 59 2 35 60 3 36 59 2 35 69 2 43 73 2 44 70 2 41 59 2 35 58 1 34 59 2 35 59 2 35 59 2 35 59 2 35 59 2 35 59 2 35 59 2 35 59 2 35 59 2 35 59 2 35 68 1 42 73 2 44 69 2 43 59 2 35 59 2 37 59 2 35 59 2 35 62 2 38 73 2 44 73 2 44 63 2 36 59 2 35 59 2 35 59 2 35 59 2 35 59 2 35 59 2 35 59 2 35 59 2 35 59 2 35 59 2 35 59 2 35 63 1 38 73 2 44 73 2 44 63 1 38 59 2 37 59 2 35 59 2 35 43 10 31 8 29 22 8 29 24 8 29 22 8 29 22 14 26 24 
59 2 35 59 2 35 60 3 36 59 2 35 58 1 34 59 2 35 58 1 34 59 2 35 59 2 35 59 2 35 59 2 35 59 2 35 63 3 39 73 2 44 73 2 44 62 2 38 59 2 35 59 2 35 59 2 35 59 2 35 70 2 41 73 2 44 68 2 40 59 2 35 59 2 35 59 2 35 59 2 35 63 1 38 73 2 44 73 2 44 62 2 36 59 2 35 59 2 35 59 2 37 59 2 35 69 2 43 73 2 44 70 2 43 59 2 35 59 2 37 59 2 35 59 2 35 62 2 38 73 2 44 73 2 44 62 2 36 59 2 35 59 2 35 59 2 35 58 1 34 69 2 43 73 2 44 70 2 41 59 2 35 59 2 35 60 3 36 59 2 35 59 2 35 59 2 35 59 2 35 59 2 35 59 2 35 59 2 35 59 2 35 59 2 35 68 1 42 73 2 44 69 3 41 59 2 35 59 2 35 59 2 35 59 2 35 62 2 38 73 2 44 73 2 44 63 2 36 59 2 35 59 2 35 59 2 35 59 2 35 59 2 35 59 2 35 59 2 35 59 2 35 59 2 35 58 3 35 59 2 35 62 2 38 73 2 44 73 2 44 63 1 38 59 2 35 59 2 35 59 2 35 37 13 29 8 29 22 8 29 24 8 29 22 7 28 21 14 26 24 
59 2 35 59 2 35 58 1 34 59 2 35 60 3 36 59 2 35 59 2 35 59 2 35 59 2 35 59 2 35 59 2 35 59 2 35 62 2 38 73 2 44 73 2 44 63 3 39 59 2 35 59 2 35 59 2 37 59 2 35 70 2 43 73 2 44 68 2 40 59 2 35 59 2 35 59 2 35 59 2 35 63 1 38 73 2 44 73 2 44 62 2 36 59 2 35 59 2 35 59 2 35 59 2 35 69 3 41 73 2 44 70 2 41 59 2 35 59 2 35 59 2 35 59 2 35 62 2 36 73 2 44 73 2 44 62 2 38 59 2 35 59 2 35 59 2 35 59 2 35 69 2 43 73 2 44 70 2 41 60 3 36 59 2 35 58 1 34 59 2 35 59 2 35 59 2 35 59 2 35 59 2 35 59 2 35 59 2 35 59 2 35 59 2 35 69 2 43 73 2 44 69 3 41 59 2 35 59 2 35 59 2 35 59 2 35 62 2 38 73 2 44 73 2 44 63 1 38 59 2 37 59 2 35 59 2 37 59 2 35 59 2 35 59 2 35 59 2 35 59 2 35 59 2 35 58 3 35 59 2 35 62 2 38 73 2 46 73 2 44 63 2 36 59 2 35 59 2 35 58 1 34 32 16 29 8 29 20 8 29 24 8 29 22 9 28 22 12 27 24 
59 2 35 59 2 35 59 2 35 59 2 35 59 2 35 59 2 35 59 2 35 59 2 35 59 2 35 58 1 34 60 3 36 59 2 35 63 3 39 73 2 44 73 2 44 62 2 38 59 2 35 59 2 35 59 2 37 59 2 35 70 2 43 73 2 44 68 2 40 59 2 35 59 2 35 59 2 35 59 2 35 63 1 38 73 2 44 73 2 44 62 2 36 59 2 35 59 2 35 59 2 35 59 2 35 69 3 41 73 2 44 70 2 41 59 2 35 59 2 35 58 3 35 59 2 35 63 2 36 73 2 42 73 2 44 62 2 36 59 2 35 59 2 35 59 2 35 59 2 35 69 2 43 73 2 44 70 2 41 59 2 35 59 2 35 59 2 35 59 2 35 59 2 35 59 2 35 59 2 35 59 2 35 59 2 35 59 2 35 59 2 35 59 2 35 69 2 43 73 2 44 69 2 43 59 2 35 59 2 37 59 2 35 59 2 35 62 2 38 73 2 44 73 2 44 63 2 36 59 2 35 59 2 35 59 2 35 59 2 35 59 2 35 59 2 35 59 2 35 59 2 35 59 2 35 59 2 35 59 2 35 62 2 38 73 2 44 73 2 44 62 2 38 59 2 35 59 2 35 58 1 34 26 19 27 8 29 22 9 30 25 7 28 21 8 29 22 13 28 25 
59 2 35 59 2 35 59 2 35 59 2 35 59 2 35 59 2 35 58 1 34 59 2 35 59 2 35 59 2 35 59 2 35 59 2 35 62 2 38 73 2 44 73 2 44 62 2 38 59 2 35 59 2 35 59 2 35 59 2 35 70 2 41 73 2 44 68 2 40 59 2 35 59 2 35 59 2 35 59 2 35 63 1 38 73 2 44 73 2 44 62 2 36 59 2 35 59 2 35 59 2 35 59 2 35 69 3 41 73 2 44 70 2 41 59 2 35 59 2 35 59 2 35 59 2 35 62 2 38 73 2 44 73 2 44 63 2 36 59 2 35 58 3 35 60 3 36 59 2 35 68 1 42 73 2 44 70 2 41 59 2 35 59 2 35 60 3 36 59 2 35 59 2 35 59 2 35 59 2 35 59 2 35 59 2 35 59 2 35 59 2 35 59 2 35 68 1 42 73 2 44 69 3 41 59 2 35 59 2 35 59 2 35 59 2 35 62 2 38 73 2 44 73 2 44 63 2 36 59 2 35 59 2 35 59 2 35 59 2 35 59 2 35 59 2 35 59 2 35 59 2 35 59 2 35 59 2 35 59 2 35 63 1 38 73 2 44 73 2 44 62 2 38 59 2 35 58 3 35 58 1 34 22 21 27 8 29 22 8 27 23 9 28 22 8 29 22 11 26 23 
59 2 35 59 2 35 59 2 35 59 2 35 59 2 35 59 2 35 59 2 35 59 2 35 59 2 37 59 2 35 59 2 35 59 2 35 63 2 36 73 2 44 73 2 44 63 1 38 60 3 36 59 2 35 59 2 35 59 2 35 69 2 43 73 2 44 69 3 41 59 2 35 59 2 35 59 2 35 59 2 35 63 1 38 73 2 44 73 2 44 62 2 38 59 2 35 59 2 35 59 2 35 59 2 35 70 2 41 73 2 44 70 2 43 59 2 35 59 2 35 59 2 35 59 2 35 62 2 36 73 2 44 73 2 44 62 2 36 59 2 35 59 2 35 59 2 35 59 2 35 70 2 43 73 2 44 70 2 41 59 2 35 59 2 35 59 2 35 59 2 35 59 2 35 59 2 35 59 2 35 59 2 35 59 2 35 59 2 35 59 2 35 59 2 35 69 3 41 73 2 44 69 2 43 59 2 35 59 2 35 59 2 35 59 2 35 63 1 38 73 2 44 73 2 44 63 1 38 59 2 35 59 2 35 59 2 35 59 2 35 59 2 35 58 3 35 59 2 35 59 2 35 59 2 35 59 2 35 59 2 35 62 2 38 73 2 44 73 2 44 62 2 36 59 2 35 61 1 35 59 2 35 19 24 27 8 29 24 8 29 24 7 28 21 6 27 20 11 27 24 
59 2 35 59 2 35 59 2 35 59 2 35 59 2 35 59 2 35 59 2 35 59 2 35 59 2 35 59 2 37 59 2 35 59 2 35 63 2 36 73 2 44 73 2 44 63 1 38 59 2 35 59 2 35 59 2 35 59 2 35 69 3 41 74 3 45 69 2 43 59 2 35 59 2 35 59 2 35 59 2 35 63 1 38 73 2 44 73 2 42 62 2 36 59 2 35 59 2 35 59 2 35 59 2 35 69 1 40 72 1 43 70 2 41 59 2 35 60 3 36 60 3 36 59 2 35 62 2 36 73 2 44 73 2 44 62 2 36 59 2 35 60 3 36 59 2 35 59 2 35 70 2 43 73 2 44 70 2 41 59 2 35 59 2 35 59 2 35 59 2 35 59 2 35 59 2 35 59 2 35 59 2 35 59 2 35 59 2 35 59 2 35 59 2 35 68 1 42 73 2 44 68 2 40 59 2 35 59 2 35 59 2 35 59 2 35 63 1 38 73 2 44 73 2 44 63 1 38 59 2 35 59 2 35 59 2 35 59 2 35 59 2 35 58 3 35 59 2 35 59 2 35 59 2 35 59 2 35 59 2 35 62 2 38 73 2 44 73 2 44 63 1 38 58 3 35 59 2 35 59 2 37 14 26 26 8 29 22 8 29 22 8 29 24 8 27 23 11 27 26 
59 2 35 59 2 35 59 2 35 59 2 35 59 2 35 59 2 35 59 2 35 59 2 35 59 2 37 59 2 35 59 2 35 59 2 35 63 2 36 73 2 44 73 2 44 63 1 38 60 3 36 59 2 35 59 2 35 59 2 35 68 1 42 73 2 44 69 3 41 59 2 35 59 2 35 59 2 35 59 2 35 63 1 38 73 2 44 73 2 44 62 2 38 59 2 35 59 2 35 59 2 35 59 2 35 69 1 42 73 2 44 70 2 41 59 2 35 60 3 36 58 1 34 59 2 35 62 2 36 73 2 44 73 2 44 62 2 36 59 2 35 58 1 34 59 2 35 59 2 35 70 2 43 73 2 44 70 2 41 59 2 35 59 2 35 59 2 35 59 2 35 59 2 35 59 2 35 59 2 35 59 2 35 59 2 35 59 2 35 59 2 35 59 2 35 69 3 41 73 2 44 67 0 41 59 2 35 59 2 35 59 2 35 59 2 35 63 2 36 73 2 44 73 2 44 63 2 36 59 2 35 59 2 35 59 2 35 59 2 35 59 2 35 58 3 35 59 2 35 59 2 35 59 2 35 59 2 35 59 2 35 62 2 38 73 2 44 73 2 44 64 2 39 58 3 35 59 2 35 59 2 34 9 28 22 8 29 22 9 30 23 7 28 23 10 29 23 15 25 24 
59 2 35 59 2 35 59 2 35 59 2 35 59 2 35 59 2 35 59 2 35 59 2 35 59 2 37 59 2 35 59 2 35 59 2 35 63 2 36 73 2 44 73 2 44 63 1 38 59 2 35 59 2 35 59 2 35 59 2 35 69 3 41 73 2 44 69 3 41 59 2 35 59 2 35 59 2 35 59 2 35 63 1 38 73 2 44 73 2 42 62 3 35 59 2 35 58 1 34 59 2 35 59 2 35 70 2 43 74 3 45 70 2 41 59 2 35 59 2 35 59 2 35 59 2 35 62 2 36 73 2 44 73 2 44 62 2 36 59 2 35 59 2 35 59 2 35 59 2 35 70 2 43 73 2 44 70 2 41 59 2 35 59 2 35 59 2 35 59 2 35 59 2 35 59 2 35 59 2 35 59 2 35 59 2 35 59 2 35 59 2 35 60 3 36 68 1 42 73 2 44 69 3 41 60 3 36 59 2 35 59 2 35 59 2 35 63 2 36 73 2 44 73 2 44 63 2 36 59 2 35 59 2 35 59 2 35 59 2 35 59 2 35 59 2 35 59 2 35 59 2 35 59 2 35 59 2 35 59 2 35 63 1 38 74 1 44 73 2 44 63 3 37 59 2 35 59 2 37 58 3 35 11 27 24 8 27 21 8 27 21 7 28 21 17 22 25 11 26 23 
59 2 35 59 2 35 59 2 35 59 2 35 59 2 35 59 2 35 59 2 35 59 2 35 59 2 35 59 2 37 59 2 35 59 2 35 63 2 36 73 2 44 73 2 44 63 2 36 59 2 35 59 2 35 59 2 35 59 2 35 68 2 40 73 2 44 69 3 41 59 2 35 59 2 35 59 2 35 59 2 35 63 1 38 73 2 44 73 2 44 62 2 38 59 2 35 59 2 35 59 2 35 59 2 35 70 2 43 73 2 44 70 2 41 59 2 35 59 2 35 59 2 35 59 2 35 62 2 36 73 2 44 73 2 44 62 2 36 59 2 35 59 2 35 59 2 35 59 2 35 70 2 43 73 2 44 70 2 41 59 2 35 59 2 35 59 2 35 59 2 35 59 2 35 59 2 35 59 2 35 59 2 35 59 2 35 59 2 35 59 2 35 59 2 35 69 2 43 73 2 44 67 1 39 59 2 35 60 3 36 59 2 35 59 2 35 63 2 36 73 2 44 73 2 44 63 2 36 59 2 35 59 2 35 59 2 35 59 2 35 59 2 35 59 2 35 59 2 35 59 2 35 59 2 35 59 2 35 59 2 35 63 1 38 73 2 44 73 2 42 63 2 36 59 2 35 58 3 35 59 2 35 37 13 29 11 27 26 9 30 23 9 28 22 42 10 31 9 28 24 
59 2 35 59 2 35 59 2 35 59 2 35 59 2 35 59 2 35 59 2 35 59 2 35 59 2 35 59 2 35 59 2 35 59 2 35 63 2 36 73 2 44 73 2 44 63 2 36 59 2 35 59 2 35 59 2 35 58 3 35 69 1 42 73 2 44 69 3 41 59 2 35 59 2 35 59 2 35 59 2 35 63 1 38 73 2 44 73 2 42 62 2 36 59 2 35 59 2 35 59 2 35 59 2 35 70 2 43 73 2 44 70 2 41 59 2 35 59 2 35 59 2 35 59 2 35 62 2 36 74 3 45 74 3 45 62 2 36 59 2 35 59 2 35 59 2 35 59 2 35 70 2 43 73 2 44 70 2 41 59 2 35 59 2 35 59 2 35 59 2 35 59 2 35 59 2 35 59 2 35 59 2 35 59 2 35 59 2 35 59 2 35 59 2 35 68 2 40 73 2 44 68 1 42 60 3 36 59 2 35 59 2 35 59 2 35 63 2 36 73 2 44 73 2 44 63 2 36 59 2 35 59 2 35 59 2 35 59 2 35 59 2 35 59 2 35 59 2 35 59 2 35 59 2 35 59 2 35 59 2 35 63 1 38 72 1 41 71 3 44 64 2 39 58 3 35 59 2 35 59 2 35 58 1 34 57 4 34 51 6 35 57 2 34 50 7 34 11 30 26 
59 2 35 59 2 35 59 2 35 59 2 35 59 2 35 59 2 35 59 2 35 59 2 35 59 2 35 59 2 35 59 2 35 59 2 35 63 1 38 73 2 44 73 2 42 63 1 38 59 2 35 59 2 35 59 2 35 58 3 35 70 2 41 72 1 43 68 1 42 59 2 35 59 2 35 59 2 35 59 2 35 63 1 38 73 2 44 73 2 44 62 2 38 59 2 35 59 2 35 59 2 35 59 2 35 70 2 41 73 2 44 70 2 41 59 2 35 59 2 35 59 2 35 59 2 35 62 2 36 72 1 43 72 1 43 62 2 36 59 2 35 59 2 35 59 2 35 59 2 35 70 2 43 73 2 44 70 2 41 59 2 35 59 2 35 59 2 35 59 2 35 59 2 35 59 2 35 59 2 35 59 2 35 59 2 35 59 2 35 59 2 35 59 2 35 69 2 43 73 2 44 68 2 40 59 2 35 59 2 35 59 2 35 59 2 35 63 1 38 73 2 44 73 2 44 63 1 38 59 2 35 59 2 35 59 2 35 59 2 35 59 2 35 59 2 35 59 2 35 59 2 35 59 2 35 59 2 35 59 2 35 63 1 38 73 2 44 73 2 44 63 3 37 59 2 35 58 3 35 59 2 35 58 3 35 59 2 37 58 3 35 59 2 35 48 8 32 8 29 22 
59 2 35 59 2 35 59 2 35 59 2 35 59 2 35 59 2 35 59 2 35 59 2 35 59 2 35 59 2 35 59 2 35 59 2 35 63 2 36 73 2 44 73 2 44 63 2 36 59 2 35 59 2 35 59 2 35 57 3 35 69 1 42 73 2 44 69 3 41 59 2 35 59 2 35 59 2 35 59 2 35 63 1 38 73 2 44 73 2 42 62 2 36 59 2 35 59 2 35 59 2 35 59 2 35 69 1 40 73 2 44 70 2 43 59 2 35 60 3 36 59 2 35 59 2 35 62 2 36 73 2 44 73 2 44 62 2 36 59 2 35 59 2 35 59 2 35 59 2 35 70 2 43 73 2 44 70 2 41 59 2 35 59 2 35 59 2 35 59 2 35 59 2 35 59 2 35 59 2 35 59 2 35 59 2 35 59 2 35 59 2 35 59 2 35 69 3 41 73 2 44 69 2 43 59 2 35 59 2 35 59 2 35 59 2 35 63 1 38 73 2 44 73 2 44 63 1 38 59 2 35 59 2 35 59 2 35 59 2 35 59 2 35 59 2 35 59 2 35 59 2 35 59 2 35 59 2 35 59 2 35 63 1 38 73 2 44 74 3 45 62 2 38 58 3 35 59 2 35 59 2 35 59 2 35 59 2 35 61 1 35 59 2 37 45 12 31 8 29 24 
59 2 35 59 2 35 59 2 35 59 2 35 59 2 35 59 2 35 59 2 35 59 2 35 59 2 35 59 2 35 59 2 35 59 2 35 63 2 36 73 2 44 73 2 44 63 1 38 59 2 35 59 2 35 59 2 35 59 2 35 69 3 41 73 2 44 68 2 40 59 2 35 59 2 35 59 2 35 59 2 35 62 2 38 71 3 44 73 2 44 62 2 36 59 2 35 59 2 35 59 2 35 59 2 35 68 2 40 73 2 44 70 2 41 59 2 35 59 2 35 59 2 35 59 2 35 62 2 36 73 2 44 73 2 44 62 2 36 59 2 35 59 2 35 59 2 35 59 2 35 69 2 43 73 2 44 69 3 41 59 2 35 59 2 35 59 2 35 59 2 35 59 2 35 59 2 35 59 2 35 59 2 35 59 2 35 59 2 35 59 2 35 59 2 35 68 2 40 73 2 44 69 3 41 59 2 35 59 2 35 59 2 35 59 2 35 63 1 38 73 2 44 73 2 44 62 2 36 59 2 35 59 2 35 59 2 35 59 2 35 59 2 35 59 2 35 59 2 35 59 2 35 59 2 35 59 2 35 59 2 35 62 2 38 73 2 44 73 2 44 62 2 38 59 2 35 59 2 35 59 2 35 59 2 35 59 2 35 59 2 35 59 2 35 40 11 31 7 28 23 
59 2 35 59 2 35 59 2 35 59 2 35 59 2 35 59 2 35 59 2 35 59 2 35 59 2 35 59 2 35 59 2 35 59 2 35 63 2 36 73 2 44 73 2 44 63 1 38 59 2 35 59 2 35 59 2 35 59 2 35 69 3 41 73 2 44 68 2 40 59 2 35 59 2 35 59 2 35 59 2 35 62 2 38 73 2 44 73 2 44 62 2 36 59 2 35 59 2 35 59 2 35 59 2 35 68 2 40 73 2 44 70 2 41 59 2 35 59 2 35 59 2 35 59 2 35 62 2 36 73 2 44 73 2 44 62 2 36 59 2 35 59 2 35 59 2 35 59 2 35 69 2 43 73 2 44 69 3 41 59 2 35 59 2 35 59 2 35 59 2 35 59 2 35 59 2 35 59 2 35 59 2 35 59 2 35 59 2 35 59 2 35 59 2 35 68 2 40 73 2 44 69 3 41 59 2 35 59 2 35 59 2 35 59 2 35 63 1 38 73 2 44 73 2 44 62 2 36 59 2 35 59 2 35 59 2 35 59 2 35 59 2 35 59 2 35 59 2 35 59 2 35 59 2 35 59 2 35 59 2 35 62 2 38 73 2 44 73 2 44 62 2 38 59 2 35 59 2 35 59 2 35 59 2 35 59 2 35 59 2 35 59 2 35 37 13 29 8 29 22 
59 2 35 59 2 35 59 2 35 59 2 35 59 2 35 59 2 35 59 2 35 59 2 35 59 2 35 59 2 35 59 2 35 59 2 35 63 2 36 73 2 44 73 2 44 63 1 38 59 2 35 59 2 35 59 2 35 59 2 35 69 3 41 73 2 44 68 2 40 59 2 35 59 2 35 59 2 35 59 2 35 62 2 38 73 2 44 73 2 44 62 2 36 59 2 35 59 2 35 59 2 35 59 2 35 68 2 40 73 2 44 70 2 41 59 2 35 59 2 35 59 2 35 59 2 35 62 2 36 73 2 44 73 2 44 62 2 36 59 2 35 59 2 35 59 2 35 59 2 35 70 2 43 73 2 44 70 2 41 59 2 35 59 2 35 59 2 35 59 2 35 59 2 35 59 2 35 59 2 35 59 2 35 59 2 35 59 2 35 59 2 35 59 2 35 68 2 40 73 2 44 69 3 41 59 2 35 59 2 35 59 2 35 59 2 35 63 1 38 73 2 44 73 2 44 62 2 36 59 2 35 59 2 35 59 2 35 59 2 35 59 2 35 59 2 35 59 2 35 59 2 35 59 2 35 59 2 35 59 2 35 62 2 38 73 2 44 73 2 44 62 2 38 59 2 35 59 2 35 59 2 35 59 2 35 59 2 35 58 1 34 59 2 35 33 15 29 8 29 20 
59 2 35 59 2 35 59 2 35 59 2 35 59 2 35 59 2 35 59 2 35 59 2 35 59 2 35 59 2 35 59 2 35 59 2 35 63 2 36 73 2 44 73 2 44 63 1 38 59 2 35 59 2 35 59 2 35 59 2 35 69 3 41 73 2 44 68 2 40 59 2 35 59 2 35 59 2 35 59 2 35 62 2 38 73 2 44 73 2 44 62 2 36 59 2 35 59 2 35 59 2 35 59 2 35 68 2 40 73 2 44 70 2 41 59 2 35 59 2 35 59 2 35 59 2 35 62 2 36 73 2 44 73 2 44 62 2 36 59 2 35 59 2 35 59 2 35 59 2 35 70 2 43 73 2 44 70 2 41 59 2 35 59 2 35 59 2 35 59 2 35 59 2 35 59 2 35 59 2 35 59 2 35 59 2 35 59 2 35 59 2 35 59 2 35 68 2 40 73 2 44 69 3 41 59 2 35 59 2 35 59 2 35 59 2 35 63 1 38 73 2 44 73 2 44 62 2 36 59 2 35 59 2 35 59 2 35 59 2 35 59 2 35 59 2 35 59 2 35 59 2 35 59 2 35 59 2 35 59 2 35 62 2 38 73 2 44 73 2 44 62 2 38 59 2 35 59 2 35 59 2 35 59 2 35 59 2 35 58 1 34 59 2 35 28 18 27 7 28 21 
59 2 35 59 2 35 59 2 35 59 2 35 59 2 35 59 2 35 59 2 35 59 2 35 59 2 35 59 2 35 59 2 35 59 2 35 63 2 36 73 2 44 73 2 44 63 1 38 59 2 35 59 2 35 59 2 35 59 2 35 69 3 41 73 2 44 68 2 40 59 2 35 59 2 35 59 2 35 59 2 35 62 2 38 73 2 44 73 2 44 62 2 36 59 2 35 59 2 35 59 2 35 59 2 35 68 2 40 73 2 44 70 2 41 59 2 35 59 2 35 59 2 35 59 2 35 62 2 36 73 2 44 73 2 44 62 2 36 59 2 35 59 2 35 59 2 35 59 2 35 70 2 43 73 2 44 70 2 41 59 2 35 59 2 35 59 2 35 59 2 35 59 2 35 59 2 35 59 2 35 59 2 35 59 2 35 59 2 35 59 2 35 59 2 35 68 2 40 73 2 44 69 3 41 59 2 35 59 2 35 59 2 35 59 2 35 63 1 38 73 2 44 73 2 44 62 2 36 59 2 35 59 2 35 59 2 35 59 2 35 59 2 35 59 2 35 59 2 35 59 2 35 59 2 35 59 2 35 59 2 35 62 2 38 73 2 44 73 2 44 62 2 38 59 2 35 59 2 35 59 2 35 59 2 35 59 2 35 59 2 35 58 1 34 25 20 27 10 27 21 
59 2 35 59 2 35 59 2 35 59 2 35 59 2 35 59 2 35 59 2 35 59 2 35 59 2 35 59 2 35 59 2 35 59 2 35 63 2 36 73 2 44 73 2 44 63 1 38 59 2 35 59 2 35 59 2 35 59 2 35 69 3 41 73 2 44 68 2 40 59 2 35 59 2 35 59 2 35 59 2 35 62 2 38 73 2 44 73 2 44 62 2 36 59 2 35 59 2 35 59 2 35 59 2 35 68 2 40 73 2 44 70 2 41 59 2 35 59 2 35 59 2 35 59 2 35 62 2 36 73 2 44 73 2 44 62 2 36 59 2 35 59 2 35 59 2 35 59 2 35 70 2 43 73 2 44 70 2 41 59 2 35 59 2 35 59 2 35 59 2 35 59 2 35 59 2 35 59 2 35 59 2 35 59 2 35 59 2 35 59 2 35 59 2 35 68 2 40 73 2 44 69 3 41 59 2 35 59 2 35 59 2 35 59 2 35 63 1 38 73 2 44 73 2 44 62 2 36 59 2 35 59 2 35 59 2 35 59 2 35 59 2 35 59 2 35 59 2 35 59 2 35 59 2 35 59 2 35 59 2 35 62 2 38 73 2 44 73 2 44 62 2 38 59 2 35 59 2 35 59 2 35 59 2 35 59 2 35 58 1 34 59 2 35 21 22 26 8 29 22 
59 2 35 59 2 35 59 2 35 59 2 35 59 2 35 59 2 35 59 2 35 59 2 35 59 2 35 59 2 35 59 2 35 59 2 35 63 2 36 73 2 44 73 2 44 63 1 38 59 2 35 59 2 35 59 2 35 59 2 35 69 3 41 73 2 44 68 2 40 59 2 35 59 2 35 59 2 35 59 2 35 62 2 38 73 2 44 73 2 44 62 2 36 59 2 35 59 2 35 59 2 35 59 2 35 68 2 40 73 2 44 70 2 41 59 2 35 59 2 35 59 2 35 59 2 35 62 2 36 73 2 44 73 2 44 62 2 36 59 2 35 59 2 35 59 2 35 59 2 35 69 2 43 73 2 44 69 3 41 59 2 35 59 2 35 59 2 35 59 2 35 59 2 35 59 2 35 59 2 35 59 2 35 59 2 35 59 2 35 59 2 35 59 2 35 68 2 40 73 2 44 69 3 41 59 2 35 59 2 35 59 2 35 59 2 35 63 1 38 73 2 44 73 2 44 62 2 36 59 2 35 59 2 35 59 2 35 59 2 35 59 2 35 59 2 35 59 2 35 59 2 35 59 2 35 59 2 35 59 2 35 62 2 38 73 2 44 73 2 44 62 2 38 59 2 35 59 2 35 59 2 35 59 2 35 59 2 35 59 2 35 59 2 35 19 23 26 8 29 22 
59 2 35 59 2 35 59 2 35 59 2 35 59 2 35 59 2 35 59 2 35 59 2 35 59 2 35 59 2 35 59 2 35 59 2 35 63 2 36 73 2 44 73 2 44 63 1 38 59 2 35 59 2 35 59 2 35 59 2 35 69 3 41 73 2 44 68 2 40 59 2 35 59 2 35 59 2 35 59 2 35 62 2 38 71 3 44 73 2 44 62 2 36 59 2 35 59 2 35 59 2 35 59 2 35 68 2 40 73 2 44 70 2 41 59 2 35 59 2 35 59 2 35 59 2 35 62 2 36 73 2 44 73 2 44 62 2 36 59 2 35 59 2 35 59 2 35 59 2 35 69 2 43 73 2 44 69 3 41 59 2 35 59 2 35 59 2 35 59 2 35 59 2 35 59 2 35 59 2 35 59 2 35 59 2 35 59 2 35 59 2 35 59 2 35 68 2 40 73 2 44 69 3 41 59 2 35 59 2 35 59 2 35 59 2 35 63 1 38 73 2 44 73 2 44 62 2 36 59 2 35 59 2 35 59 2 35 59 2 35 59 2 35 59 2 35 59 2 35 59 2 35 59 2 35 59 2 35 59 2 35 62 2 38 73 2 44 73 2 44 62 2 38 59 2 35 59 2 35 59 2 35 59 2 35 59 2 35 58 1 34 59 2 35 18 23 26 7 28 23 
59 2 35 59 2 35 59 2 35 59 2 35 59 2 35 59 2 35 59 2 35 59 2 35 59 2 35 59 2 35 59 2 35 59 2 35 62 2 36 73 2 42 73 2 44 62 2 38 59 2 35 59 2 35 59 2 35 59 2 35 68 2 40 73 2 44 68 2 40 59 2 35 59 2 35 59 2 35 59 2 35 62 2 38 73 2 44 73 2 44 62 2 36 59 2 35 59 2 35 59 2 35 59 2 35 69 3 41 73 2 44 70 2 41 59 2 35 59 2 35 59 2 35 58 1 34 62 2 36 73 2 44 73 2 44 62 2 36 59 2 35 59 2 35 59 2 35 59 2 35 69 2 43 73 2 44 69 3 41 59 2 35 59 2 35 59 2 35 59 2 35 59 2 35 59 2 35 59 2 35 59 2 35 59 2 35 59 2 35 59 2 35 59 2 35 68 2 40 73 2 44 69 2 43 59 2 35 58 1 34 59 2 35 59 2 35 62 2 38 73 2 42 71 3 44 62 2 36 59 2 35 58 1 34 59 2 35 59 2 35 59 2 35 59 2 35 59 2 35 59 2 35 59 2 35 59 2 35 59 2 35 62 2 36 73 2 44 73 2 44 62 2 36 59 2 35 59 2 35 59 2 35 59 2 35 59 2 35 58 1 36 59 2 35 16 24 26 8 29 24 
59 2 35 59 2 35 59 2 35 59 2 35 59 2 35 59 2 35 59 2 35 59 2 35 59 2 35 59 2 35 59 2 35 59 2 35 62 2 36 73 2 42 73 2 44 62 2 38 59 2 35 59 2 35 59 2 35 59 2 35 68 2 40 73 2 44 68 2 40 59 2 35 59 2 35 59 2 35 59 2 35 62 2 38 73 2 44 73 2 44 62 2 36 59 2 35 59 2 35 59 2 35 59 2 35 68 2 40 73 2 44 70 2 41 59 2 35 59 2 35 59 2 35 59 2 35 62 2 36 73 2 44 73 2 44 62 2 36 58 1 34 59 2 35 59 2 35 59 2 35 69 2 43 73 2 44 69 3 41 59 2 35 59 2 35 59 2 35 59 2 35 59 2 35 59 2 35 59 2 35 59 2 35 59 2 35 59 2 35 59 2 35 59 2 35 68 1 42 73 2 44 69 2 43 59 2 35 58 1 34 59 2 35 59 2 35 63 1 38 71 3 44 71 3 44 62 2 36 59 2 35 59 2 35 59 4 36 59 2 35 59 2 35 58 3 35 58 3 35 59 2 35 59 2 35 59 2 35 58 3 35 62 2 36 73 2 44 73 2 44 62 2 36 59 2 35 59 2 35 59 2 35 59 2 35 59 2 35 59 2 35 59 2 35 14 24 23 8 29 24 
59 2 35 59 2 35 59 2 35 59 2 35 59 2 35 59 2 35 59 2 35 59 2 35 59 2 35 59 2 35 59 2 35 59 2 35 62 2 36 73 2 42 73 2 44 62 2 38 59 2 35 59 2 35 59 2 35 59 2 35 68 2 40 73 2 44 68 2 40 59 2 35 59 2 35 59 2 35 59 2 35 62 2 38 73 2 44 73 2 44 62 2 36 59 2 35 59 2 35 59 2 35 59 2 35 68 2 40 73 2 44 70 2 41 59 2 35 59 2 35 59 2 35 59 2 35 62 2 36 73 2 44 73 2 44 62 2 36 58 1 34 59 2 35 59 2 35 59 2 35 69 2 43 73 2 44 69 3 41 59 2 35 59 2 35 59 2 35 59 2 35 58 3 35 58 3 35 59 2 35 59 2 35 58 3 35 58 3 35 59 2 35 59 2 35 68 2 40 73 2 44 68 2 40 59 2 35 59 2 35 59 2 35 59 2 35 63 2 36 72 1 43 72 1 43 63 1 38 59 2 35 59 2 35 59 2 35 59 2 35 59 2 35 59 2 35 59 2 35 59 2 35 58 3 35 59 2 35 59 2 35 62 2 36 73 2 44 73 2 44 62 2 36 59 2 35 59 2 35 59 2 35 59 2 35 59 2 35 59 2 35 59 2 35 11 26 23 9 28 24 
59 2 35 59 2 35 59 2 35 59 2 35 59 2 35 59 2 35 59 2 35 59 2 35 59 2 35 59 2 35 59 2 35 59 2 35 62 2 36 73 2 42 73 2 44 62 2 38 59 2 35 59 2 35 59 2 35 59 2 35 68 2 40 73 2 44 68 2 40 59 2 35 59 2 35 59 2 35 59 2 35 62 2 38 73 2 44 73 2 44 62 2 36 59 2 35 59 2 35 59 2 35 59 2 35 69 3 41 73 2 44 70 2 41 59 2 35 59 2 35 59 2 35 58 1 34 62 2 36 73 2 44 73 2 44 62 2 36 59 2 35 59 2 35 59 2 35 59 2 35 69 2 43 73 2 44 69 3 41 59 2 35 59 2 35 59 2 35 59 2 35 59 2 35 59 2 35 59 2 35 59 2 35 59 2 35 59 2 35 59 2 35 59 2 37 68 1 42 73 2 44 68 1 42 59 2 35 59 2 35 59 2 35 59 2 35 63 3 37 74 1 44 73 2 44 62 2 38 58 3 35 59 2 35 59 2 35 58 3 35 59 2 35 59 2 35 59 2 35 59 2 35 61 1 35 59 2 35 58 3 35 62 2 36 73 2 44 73 2 44 62 2 36 59 2 35 59 2 35 59 2 35 59 2 35 59 2 35 58 1 34 59 2 35 11 27 24 9 28 22 
59 2 35 59 2 35 59 2 35 59 2 35 59 2 35 59 2 35 59 2 35 59 2 35 59 2 35 59 2 35 59 2 35 59 2 35 62 2 36 73 2 42 73 2 44 62 2 38 59 2 35 59 2 35 59 2 35 59 2 35 68 2 40 73 2 44 68 2 40 59 2 35 59 2 35 59 2 35 59 2 35 62 2 38 73 2 44 73 2 44 62 2 36 59 2 35 59 2 35 59 2 35 59 2 35 69 3 41 73 2 44 70 2 41 59 2 35 59 2 35 59 2 35 58 1 34 62 2 36 73 2 44 73 2 44 62 2 36 59 2 35 59 2 35 59 2 35 59 2 35 69 2 43 73 2 44 69 3 41 59 2 35 59 2 35 59 2 35 59 2 35 58 3 35 58 3 35 59 2 35 59 2 35 58 3 35 58 3 35 59 2 35 59 2 35 68 2 40 73 2 44 68 2 40 59 2 35 59 2 35 59 2 35 59 2 35 62 2 36 73 2 42 74 1 44 62 2 38 59 2 35 59 2 35 59 2 35 59 2 35 59 2 35 59 2 35 59 2 35 59 2 35 61 1 35 59 2 35 58 3 35 62 2 36 73 2 44 73 2 44 62 2 36 59 2 35 59 2 35 59 2 35 59 2 35 59 2 35 59 2 35 58 3 35 8 27 23 9 28 22 
59 2 35 59 2 35 59 2 35 59 2 35 59 2 35 59 2 35 59 2 35 59 2 35 59 2 35 59 2 35 59 2 35 59 2 35 62 2 36 73 2 42 73 2 44 62 2 38 59 2 35 59 2 35 59 2 35 59 2 35 68 2 40 73 2 44 68 2 40 59 2 35 59 2 35 59 2 35 59 2 35 62 2 38 73 2 44 73 2 44 62 2 36 59 2 35 58 3 35 59 2 35 59 2 35 68 2 40 73 2 44 70 2 41 58 3 35 58 3 35 59 2 35 59 2 35 62 2 36 73 2 44 73 2 44 62 2 36 58 1 34 59 2 35 59 2 35 59 2 35 69 2 43 73 2 44 69 3 41 59 2 35 59 2 35 59 2 35 59 2 35 59 2 35 59 2 35 59 2 35 59 2 35 59 2 35 59 2 35 59 2 35 59 2 37 68 1 42 73 2 44 68 1 42 59 2 35 59 2 35 59 2 35 59 2 35 59 2 35 66 2 39 66 2 39 59 2 35 59 2 35 59 2 35 58 1 34 59 2 35 59 2 35 59 2 35 59 2 35 59 2 35 58 3 35 59 2 35 59 2 35 62 2 36 73 2 44 73 2 44 62 2 36 59 2 35 59 2 35 59 2 35 59 2 35 59 2 35 59 2 35 57 3 35 7 28 23 9 28 22 
59 2 35 59 2 35 59 2 35 59 2 35 59 2 35 59 2 35 59 2 35 59 2 35 59 2 35 59 2 35 59 2 35 59 2 35 62 2 36 73 2 42 73 2 44 62 2 38 59 2 35 59 2 35 59 2 35 59 2 35 68 2 40 73 2 44 68 2 40 59 2 35 59 2 35 59 2 35 59 2 35 62 2 38 73 2 44 73 2 44 62 2 36 59 2 35 58 3 35 59 2 35 59 2 35 68 2 40 71 3 44 70 2 41 58 3 35 58 3 35 59 2 35 59 2 35 62 2 36 73 2 44 73 2 44 62 2 36 58 1 34 59 2 35 59 2 35 59 2 35 69 2 43 73 2 44 69 3 41 59 2 35 59 2 35 59 2 35 59 2 35 59 2 35 59 2 35 59 2 35 59 2 35 59 2 35 59 2 35 59 2 35 59 2 35 68 2 40 74 3 45 68 2 40 58 1 34 59 2 35 59 2 35 59 2 35 59 2 35 58 1 34 58 3 35 57 2 34 59 2 35 59 2 35 59 2 35 58 3 35 59 2 35 58 3 35 58 3 35 59 2 35 59 2 35 59 2 35 58 3 35 62 2 36 73 2 44 73 2 44 62 2 36 59 2 35 59 2 35 59 2 35 59 2 35 59 2 35 59 2 35 54 3 34 9 28 24 8 29 22 
59 2 35 59 2 35 59 2 35 59 2 35 59 2 35 59 2 35 59 2 35 59 2 35 59 2 35 59 2 35 59 2 35 59 2 35 62 2 36 73 2 42 73 2 44 62 2 38 59 2 35 59 2 35 59 2 35 59 2 35 68 2 40 73 2 44 68 2 40 59 2 35 59 2 35 59 2 35 59 2 35 62 2 38 73 2 44 73 2 44 62 2 36 59 2 35 58 3 35 59 2 35 59 2 35 69 3 41 71 3 44 70 2 41 58 3 35 57 3 35 59 2 35 58 1 34 62 2 36 73 2 44 73 2 44 62 2 36 59 2 35 59 2 35 59 2 35 59 2 35 69 2 43 73 2 44 69 3 41 59 2 35 59 2 35 59 2 35 59 2 35 59 2 35 59 2 35 59 2 35 59 2 35 59 2 35 59 2 35 59 2 35 59 2 35 68 2 40 74 3 45 68 1 42 58 1 34 59 2 35 59 2 35 59 2 35 62 2 36 57 2 34 59 3 32 59 2 35 59 2 35 56 2 34 58 1 34 58 1 34 59 2 35 59 2 35 59 2 35 59 2 35 59 2 35 59 2 35 59 2 35 62 2 36 73 2 44 73 2 44 62 2 36 59 2 35 59 2 35 59 2 35 59 2 35 59 2 35 58 1 36 54 5 35 9 28 24 8 29 22 
59 2 35 59 2 35 59 2 35 59 2 35 59 2 35 59 2 35 59 2 35 59 2 35 59 2 35 58 3 35 58 3 35 59 4 36 62 2 36 73 2 44 73 2 44 62 2 36 59 2 35 59 2 35 61 1 35 59 2 35 69 3 41 73 2 44 68 2 40 59 2 35 59 2 35 59 2 35 59 2 35 60 3 38 71 3 44 73 2 44 62 2 38 59 2 35 59 2 35 58 3 35 61 1 35 68 2 40 74 3 45 68 2 40 59 2 35 58 3 35 58 1 34 57 2 34 62 2 36 70 2 43 73 2 44 60 3 36 58 3 35 58 3 35 58 3 35 59 2 35 68 1 42 72 1 43 68 2 40 59 2 35 59 2 35 59 2 35 59 2 35 59 2 35 58 3 35 59 2 35 59 2 35 58 3 35 58 3 35 58 3 35 59 2 35 69 1 42 73 2 44 69 1 40 58 1 34 58 3 35 59 2 35 58 3 35 59 2 35 59 2 35 59 2 35 58 3 35 58 3 35 59 2 35 59 2 35 59 2 35 59 2 35 57 2 34 59 2 35 60 3 36 59 2 35 59 2 35 58 1 34 63 2 36 71 3 44 73 2 44 62 2 36 58 3 35 59 2 35 59 2 35 59 2 35 59 2 35 59 2 34 52 6 34 7 28 23 9 28 22 
58 1 34 59 2 35 59 2 35 58 1 34 59 2 35 59 2 35 58 1 34 59 2 35 59 2 35 58 3 35 58 3 35 58 3 35 62 2 36 73 2 44 73 2 44 62 2 36 59 2 35 58 3 35 59 2 35 58 3 35 69 3 41 71 3 44 68 2 40 58 3 35 59 2 35 59 2 35 58 3 35 63 1 38 73 2 44 71 3 44 62 2 38 59 2 35 58 3 35 59 2 35 59 2 35 68 2 40 75 2 45 69 3 41 58 3 35 59 2 35 59 2 35 58 3 35 62 2 36 73 2 44 70 2 43 62 2 36 57 2 34 57 0 33 59 2 35 59 2 35 68 1 42 72 1 43 68 2 40 59 2 35 59 2 35 59 2 35 58 3 35 58 1 34 59 2 35 58 3 35 57 2 34 59 2 35 59 2 35 58 3 35 58 3 35 68 1 42 74 1 44 68 2 40 57 2 34 59 2 35 58 3 35 59 2 35 59 2 35 59 2 35 59 2 35 59 2 35 59 2 35 59 2 35 59 2 35 59 2 35 59 2 35 57 2 34 59 2 35 59 2 35 59 2 35 58 1 34 59 2 35 63 2 36 71 3 44 71 3 44 62 2 36 59 2 35 58 3 35 58 3 35 59 2 35 58 3 35 59 2 35 51 7 34 7 28 23 9 28 22 
58 1 34 58 1 34 58 1 34 58 1 34 58 1 34 58 1 34 58 1 34 58 1 34 59 2 35 58 3 35 58 3 35 58 3 35 63 3 37 73 2 44 73 2 44 62 2 36 59 2 35 59 2 35 59 2 35 59 2 35 69 3 41 73 2 44 68 2 40 60 0 34 58 3 35 58 1 34 59 2 35 62 2 38 71 3 44 72 1 43 62 2 38 58 3 35 59 2 35 58 3 35 58 1 34 69 3 41 73 2 44 70 2 41 57 2 34 58 3 35 58 3 35 58 3 35 60 3 36 73 2 44 71 3 44 62 2 36 57 2 34 59 2 35 59 2 35 59 2 35 68 1 42 72 1 43 68 2 40 59 2 35 58 3 35 58 3 35 58 3 35 59 2 35 59 2 35 58 3 35 58 3 35 59 2 35 59 2 35 58 3 35 59 2 35 69 1 42 71 3 44 68 2 40 58 1 34 59 2 35 59 2 35 58 3 35 59 2 35 58 3 35 59 2 35 59 2 35 59 2 35 59 2 35 58 3 35 59 2 35 59 2 35 57 2 34 59 2 35 59 2 35 59 2 35 59 2 35 59 2 35 62 2 36 71 3 44 71 3 44 62 2 36 58 3 35 58 3 35 58 3 35 59 2 35 58 3 35 58 3 35 50 7 34 7 28 23 9 28 22 
59 2 35 58 1 34 59 2 35 59 2 35 58 1 34 58 1 34 59 2 35 58 1 34 59 2 35 58 3 35 58 3 35 58 3 35 62 2 36 73 2 44 73 2 44 62 2 36 59 2 35 58 3 35 59 2 35 58 3 35 68 2 40 71 3 44 68 2 40 57 2 34 59 2 35 58 3 35 58 1 34 62 2 38 70 2 43 71 3 44 60 3 38 59 2 35 58 3 35 58 3 35 57 0 33 68 2 40 73 2 44 68 2 40 61 1 35 57 2 34 57 2 34 57 2 34 62 2 36 72 1 43 71 3 44 62 2 36 58 3 35 59 2 35 59 2 35 59 2 35 68 1 42 72 1 43 68 2 40 59 2 35 58 3 35 57 3 35 58 3 35 58 3 35 58 3 35 59 2 35 59 2 35 58 3 35 59 2 35 59 2 35 58 3 35 68 1 42 71 3 44 68 2 40 58 1 34 58 3 35 59 2 35 59 2 35 59 2 35 58 3 35 58 3 35 59 2 35 59 2 35 58 3 35 58 3 35 59 2 35 58 1 34 57 2 34 59 2 35 59 2 35 59 2 35 58 3 35 59 2 35 62 2 36 71 3 44 71 3 44 62 2 36 59 2 35 58 3 35 58 3 35 59 2 35 58 3 35 58 3 35 47 9 34 7 28 23 8 29 22 
59 2 35 59 2 35 59 2 35 59 2 35 59 2 35 59 2 35 59 2 35 59 2 35 59 2 35 58 3 35 58 3 35 58 3 35 62 2 36 73 2 44 73 2 44 62 2 36 58 3 35 58 3 35 59 2 35 58 3 35 68 2 40 71 3 44 68 2 40 57 2 34 58 3 35 58 1 34 59 2 35 62 2 38 71 3 44 70 2 43 62 2 38 58 3 35 59 2 35 57 2 34 59 2 35 68 2 40 73 2 44 69 3 41 57 2 34 57 2 34 60 3 36 58 3 35 62 2 36 71 3 44 73 2 44 62 2 36 57 2 34 58 3 35 58 3 35 59 2 35 68 1 42 72 1 43 68 2 40 59 2 35 59 2 35 59 2 35 58 3 35 58 3 35 58 3 35 58 1 34 59 2 35 58 3 35 58 1 34 59 2 35 59 2 35 68 1 42 73 2 44 68 2 40 58 1 34 59 2 35 59 2 35 58 3 35 59 2 35 58 3 35 58 3 35 59 2 35 59 2 35 58 3 35 58 3 35 59 2 35 58 1 34 58 3 35 59 2 35 59 2 35 59 2 35 58 3 35 58 3 35 62 2 36 71 3 44 73 2 44 62 2 36 58 3 35 59 2 35 59 2 35 61 1 35 59 2 35 58 3 35 45 10 34 7 28 23 8 29 24 
59 2 35 59 2 35 59 2 35 59 2 35 59 2 35 59 2 35 59 2 35 59 2 35 59 2 35 57 2 34 58 3 35 58 3 35 62 2 36 72 1 43 73 2 44 62 2 36 58 3 35 57 2 34 58 3 35 59 2 35 68 2 40 73 2 44 68 2 40 57 2 34 58 3 35 59 2 35 58 1 34 62 2 38 70 2 43 73 2 44 62 2 38 58 3 35 58 3 35 57 2 34 56 1 33 68 2 40 73 2 44 69 3 41 58 3 35 58 3 35 59 2 35 58 3 35 62 2 36 71 3 44 73 2 44 60 3 36 57 2 34 57 2 34 57 3 35 58 3 35 68 1 42 72 1 43 68 2 40 59 2 35 59 2 35 59 2 35 58 3 35 58 1 34 59 2 35 58 3 35 57 2 34 59 2 35 59 2 35 58 3 35 57 3 35 68 1 42 73 2 44 68 2 40 57 2 34 58 3 35 58 3 35 59 2 35 58 3 35 58 3 35 58 3 35 59 2 35 59 2 35 58 3 35 58 3 35 58 3 35 59 2 35 58 3 35 59 2 35 59 2 35 59 2 35 58 3 35 58 3 35 62 2 36 71 3 44 73 2 44 62 2 36 59 2 35 59 2 35 59 2 35 59 2 35 61 1 35 58 3 35 44 10 34 8 27 23 8 29 24 
59 2 35 58 1 34 59 2 35 59 2 35 58 1 34 59 2 35 59 2 35 59 2 35 59 2 35 57 2 34 58 3 35 57 2 34 62 2 36 72 1 43 73 2 44 62 2 36 58 3 35 57 2 34 59 2 35 58 3 35 69 1 40 71 3 44 68 2 40 57 2 34 59 2 35 57 2 34 59 2 35 62 2 38 72 4 45 73 0 43 60 3 38 59 2 35 58 3 35 58 3 35 59 2 35 69 3 41 70 2 43 69 3 41 57 2 34 57 2 34 59 2 35 57 2 34 62 2 36 72 4 45 73 2 44 62 2 36 58 3 35 59 2 35 57 3 35 58 3 35 68 1 42 72 1 43 68 2 40 58 3 35 58 3 35 58 3 35 58 3 35 59 2 35 59 2 35 58 3 35 58 3 35 59 2 35 59 2 35 58 3 35 59 2 35 68 1 42 71 3 44 68 2 40 58 1 34 59 2 35 58 3 35 58 3 35 58 3 35 59 2 35 57 3 35 58 3 35 58 3 35 57 3 35 59 2 35 58 3 35 59 2 35 58 3 35 59 2 35 58 3 35 58 3 35 58 3 35 57 2 34 62 2 36 71 3 44 73 2 44 62 2 36 58 3 35 59 2 35 59 2 35 59 2 35 59 2 35 58 3 35 44 11 32 8 27 23 9 28 24 
58 1 34 59 2 35 58 1 34 58 1 34 59 2 35 58 1 34 58 1 34 58 1 34 59 2 35 57 2 34 57 2 34 57 2 34 62 2 36 72 1 43 72 1 43 62 2 36 58 3 35 56 1 33 58 3 35 58 3 35 68 2 40 71 3 44 68 2 40 57 2 34 59 2 35 59 2 35 59 2 35 60 3 38 71 3 44 73 2 44 62 2 38 59 2 35 58 3 35 57 2 34 57 2 34 69 3 41 72 1 43 69 3 41 57 2 34 58 3 35 58 3 35 57 2 34 60 3 36 73 2 44 71 3 44 62 2 36 58 3 35 59 2 35 58 3 35 59 2 35 69 1 42 72 1 43 68 2 40 58 3 35 58 3 35 58 3 35 59 2 35 59 2 35 58 3 35 59 2 35 59 2 35 58 3 35 58 3 35 58 3 35 59 2 35 68 1 42 73 2 44 68 2 40 58 1 34 58 3 35 59 2 35 58 3 35 58 3 35 59 2 35 58 3 35 58 3 35 58 3 35 58 3 35 59 2 35 58 3 35 59 2 35 58 3 35 59 2 35 58 3 35 59 4 36 57 2 34 57 2 34 61 1 35 71 3 44 71 3 44 62 2 36 59 2 35 58 3 35 58 3 35 59 2 35 58 3 35 58 3 35 44 11 32 8 27 23 11 27 24 
58 3 35 58 3 35 58 3 35 58 3 35 58 3 35 58 3 35 58 3 35 58 3 35 58 3 35 57 2 34 58 3 35 58 1 34 62 2 38 70 2 43 71 3 44 62 2 38 58 1 34 58 3 35 57 2 34 58 3 35 68 2 40 71 3 44 68 2 40 57 2 34 57 2 34 58 3 35 59 2 35 62 2 38 71 3 44 72 1 43 62 2 36 58 3 35 59 2 35 59 2 35 58 1 34 68 2 40 70 2 43 69 3 41 58 3 35 57 2 34 58 3 35 59 2 35 62 2 36 70 2 43 72 1 43 62 2 36 58 3 35 59 2 35 59 2 35 59 2 35 69 3 41 73 2 44 68 2 40 58 1 34 58 1 34 58 1 34 58 3 35 58 3 35 58 3 35 58 3 35 58 3 35 58 3 35 58 3 35 58 3 35 57 2 34 68 1 42 73 2 44 68 2 40 58 3 35 58 3 35 58 3 35 58 3 35 58 3 35 58 3 35 58 3 35 58 3 35 58 3 35 58 3 35 58 3 35 58 3 35 58 1 34 59 2 35 59 2 35 58 3 35 58 1 34 58 3 35 58 3 35 62 2 38 70 2 43 70 2 43 62 2 36 57 2 34 57 2 34 58 3 35 59 2 35 61 1 35 57 2 34 44 11 32 8 27 21 8 27 23 
58 1 34 57 2 34 57 2 34 57 2 34 57 2 34 57 2 34 57 2 34 58 1 34 58 3 35 57 2 34 58 3 35 58 1 34 62 2 38 70 2 43 71 3 44 62 2 38 57 2 34 58 3 35 57 2 34 59 2 35 68 2 40 71 3 44 68 2 40 57 2 34 57 2 34 58 3 35 58 3 35 63 3 39 69 1 42 71 3 44 62 2 36 57 2 34 59 2 35 59 2 35 58 1 34 68 2 40 70 2 43 69 3 41 58 3 35 57 2 34 58 3 35 59 2 35 62 2 36 70 2 43 72 1 43 62 2 36 58 3 35 59 2 35 59 2 35 59 2 35 68 2 40 72 1 43 68 2 40 58 1 34 58 1 34 59 2 35 58 3 35 58 3 35 57 2 34 59 2 35 57 2 34 59 2 35 58 3 35 58 3 35 57 2 34 68 1 42 73 2 44 68 2 40 58 3 35 58 3 35 58 3 35 58 3 35 59 2 35 59 2 35 58 3 35 58 3 35 58 3 35 58 3 35 58 3 35 58 3 35 57 2 34 59 2 35 58 3 35 59 2 35 57 2 34 59 2 35 58 3 35 62 2 38 71 3 44 70 2 43 62 2 36 58 3 35 58 3 35 58 3 35 58 1 34 57 2 34 57 2 34 44 11 32 8 27 21 8 27 23 
58 3 35 57 2 34 58 3 35 58 3 35 58 3 35 58 3 35 57 2 34 58 3 35 58 3 35 57 2 34 58 3 35 58 1 34 62 2 38 70 2 43 71 3 44 62 2 38 57 2 34 58 3 35 58 1 34 61 1 35 68 2 40 73 2 44 68 2 40 58 1 34 57 2 34 58 3 35 59 2 35 62 2 38 71 3 44 72 1 43 62 2 36 57 2 34 59 2 35 59 2 35 58 1 34 68 2 40 70 2 43 69 3 41 58 3 35 57 2 34 58 3 35 59 2 35 62 2 36 70 2 43 70 2 43 62 2 36 58 3 35 58 3 35 57 2 34 59 2 35 68 2 40 72 1 43 68 2 40 56 1 33 59 2 35 59 2 35 58 3 35 58 3 35 59 2 35 57 2 34 59 2 35 57 2 34 58 3 35 58 3 35 57 2 34 68 1 42 73 2 44 68 2 40 58 3 35 58 3 35 58 3 35 58 3 35 58 3 35 58 3 35 58 3 35 58 3 35 58 3 35 58 3 35 59 2 35 59 2 35 57 2 34 59 2 35 58 3 35 59 2 35 57 2 34 59 2 35 58 3 35 62 2 38 73 2 44 74 1 44 62 2 36 58 3 35 57 2 34 57 2 34 58 3 35 58 3 35 57 2 34 45 10 32 8 27 21 8 27 23 
58 3 35 58 3 35 57 2 34 59 2 35 59 2 35 57 2 34 58 3 35 58 3 35 58 3 35 57 2 34 58 3 35 58 1 34 62 2 38 70 2 43 71 3 44 62 2 38 57 2 34 58 3 35 57 2 34 59 2 35 68 2 40 71 3 44 68 2 40 58 1 34 57 2 34 58 3 35 59 2 35 62 2 38 70 2 43 72 1 43 62 2 36 58 3 35 59 2 35 59 2 35 58 1 34 68 2 40 70 2 43 69 3 41 58 3 35 57 2 34 58 3 35 59 2 35 62 2 36 70 2 43 70 2 43 62 2 36 58 3 35 58 3 35 58 1 34 59 2 35 68 2 40 70 2 43 68 2 40 58 1 34 58 1 34 58 3 35 58 3 35 58 3 35 58 3 35 58 3 35 58 3 35 58 3 35 58 3 35 58 3 35 57 2 34 68 1 42 73 2 44 68 2 40 58 3 35 58 3 35 58 3 35 58 3 35 58 3 35 58 3 35 58 3 35 58 3 35 58 3 35 58 3 35 58 3 35 58 3 35 58 1 34 59 2 35 59 2 35 58 3 35 58 1 34 58 3 35 58 3 35 62 2 38 73 2 44 70 2 43 62 2 36 58 3 35 58 3 35 57 3 35 58 1 34 57 2 34 58 1 34 45 10 32 7 28 21 8 27 23 
59 2 35 57 2 34 58 3 35 57 2 34 57 2 34 58 3 35 57 2 34 59 2 35 58 3 35 57 2 34 58 3 35 58 1 34 62 2 38 70 2 43 71 3 44 62 2 38 58 1 34 58 3 35 57 2 34 58 3 35 68 2 40 71 3 44 68 2 40 57 2 34 57 2 34 58 3 35 58 3 35 62 2 38 70 2 43 70 2 43 62 2 36 58 3 35 59 2 35 59 2 35 58 1 34 68 2 40 70 2 43 69 3 41 58 3 35 57 2 34 58 3 35 58 3 35 62 2 36 70 2 43 70 2 43 62 2 36 59 2 35 58 3 35 58 3 35 58 3 35 69 3 41 72 1 43 68 2 40 57 2 34 57 2 34 59 2 35 58 3 35 58 3 35 58 3 35 58 3 35 58 3 35 58 3 35 58 3 35 58 3 35 57 2 34 68 1 42 73 2 44 68 2 40 58 3 35 58 3 35 58 3 35 58 3 35 58 3 35 58 3 35 58 3 35 58 3 35 58 3 35 58 3 35 58 3 35 58 3 35 58 1 34 59 2 35 59 2 35 58 3 35 58 1 34 58 3 35 58 3 35 62 2 38 71 3 44 72 1 43 60 3 36 57 2 34 58 1 34 58 1 34 57 2 34 59 2 35 58 1 34 47 9 32 7 28 21 8 27 23 
58 3 35 58 3 35 58 3 35 58 3 35 58 3 35 58 3 35 58 3 35 58 3 35 58 3 35 57 2 34 58 3 35 58 1 34 62 2 38 70 2 43 71 3 44 62 2 38 58 1 34 58 3 35 57 2 34 58 3 35 68 2 40 71 3 44 68 2 40 57 2 34 57 2 34 58 3 35 58 3 35 62 2 38 71 3 44 70 2 43 62 2 36 57 2 34 59 2 35 59 2 35 58 1 34 68 2 40 70 2 43 69 3 41 58 3 35 57 2 34 58 3 35 58 3 35 62 2 36 70 2 43 70 2 43 62 2 36 59 2 35 58 3 35 59 2 35 58 3 35 69 3 41 72 4 45 68 2 40 58 1 34 57 2 34 57 2 34 58 3 35 58 3 35 59 2 35 57 2 34 59 2 35 57 2 34 58 3 35 58 3 35 57 2 34 68 1 42 73 2 44 68 2 40 58 3 35 58 3 35 58 3 35 58 3 35 58 3 35 58 3 35 58 3 35 58 3 35 58 3 35 58 3 35 59 2 35 59 2 35 57 2 34 59 2 35 58 3 35 59 2 35 57 2 34 59 2 35 58 3 35 62 2 38 72 1 43 70 2 43 61 1 35 58 3 35 58 3 35 58 3 35 59 2 35 58 3 35 58 1 34 47 9 32 7 28 21 8 27 23 
