P3
100 50
255
39 19 18 38 18 17 38 18 17 37 17 16 37 17 16 38 18 17 38 18 17 38 18 17 36 16 15 37 17 16 37 17 16 37 19 19 37 17 16 37 17 16 38 18 17 38 18 17 38 18 17 38 18 17 38 18 19 39 19 20 38 18 17 38 18 17 37 17 16 38 18 17 38 18 17 38 18 17 36 16 17 25 5 7 26 4 7 26 6 8 26 6 8 37 17 18 38 18 17 38 18 17 37 17 16 37 17 16 37 19 17 38 18 17 37 17 16 38 18 17 38 18 17 38 18 17 38 18 17 37 17 16 38 18 17 38 18 17 38 18 17 38 18 17 37 17 16 38 18 17 38 18 17 38 18 17 37 17 16 37 17 16 38 18 19 37 17 16 38 18 17 38 18 17 37 18 14 31 11 12 26 4 7 26 6 8 26 5 10 37 17 18 36 18 18 107 73 9 109 75 4 110 77 8 110 81 25 112 83 27 111 82 26 111 82 26 111 82 26 112 83 27 111 82 26 111 82 26 110 81 25 112 83 27 110 81 25 111 82 26 110 77 10 111 74 4 110 77 10 111 82 26 109 83 26 111 82 26 111 82 26 110 80 20 110 76 5 108 74 3 110 81 21 111 82 26 111 82 26 109 83 26 111 82 26 111 76 10 111 74 4 110 77 10 111 81 27 108 83 26 
38 18 17 38 18 17 37 17 16 37 17 16 38 18 17 38 18 17 37 17 16 39 18 17 37 17 16 38 18 17 36 18 16 39 18 17 36 18 14 38 18 17 38 17 16 37 17 18 38 18 19 36 18 16 38 18 17 36 18 16 37 19 17 37 17 16 37 17 18 36 18 18 37 17 16 38 18 17 38 18 19 28 8 9 26 6 8 25 5 7 27 5 8 29 9 10 38 18 19 36 18 16 38 18 17 37 17 18 38 18 17 37 17 16 38 17 16 37 17 16 38 18 17 37 17 16 37 17 16 37 17 16 37 17 16 37 17 16 38 18 17 38 18 17 38 18 17 38 18 17 38 18 17 37 17 16 38 18 17 38 18 17 37 17 18 38 18 17 37 17 16 38 18 17 37 17 16 29 9 11 25 5 7 26 6 8 27 7 9 37 17 18 41 20 19 110 75 9 108 74 3 109 76 9 111 82 26 112 83 27 112 83 27 110 81 25 110 81 25 112 83 27 112 83 27 111 82 26 110 81 25 112 83 27 111 82 26 111 82 26 109 76 9 108 74 3 109 76 9 112 83 27 109 83 26 111 82 26 111 82 26 111 81 21 109 75 4 109 75 4 110 81 21 111 82 26 111 82 26 109 83 26 111 82 26 109 76 9 111 74 4 109 76 9 112 82 28 109 83 26 
38 18 17 37 17 16 38 18 17 38 18 17 37 17 16 38 18 17 37 19 17 37 17 16 38 18 17 37 19 17 38 18 17 38 18 19 38 18 17 38 18 17 37 17 16 37 19 17 38 18 17 38 18 17 37 17 18 37 17 18 38 18 17 38 18 19 37 17 16 37 19 17 37 17 16 37 17 16 37 17 18 35 15 16 25 5 7 25 5 7 26 6 8 25 5 6 28 8 10 34 14 15 37 17 18 38 20 18 36 18 16 37 17 16 37 17 16 37 17 16 37 17 16 37 17 16 38 18 17 37 17 16 37 17 18 38 18 17 37 17 16 38 18 19 38 18 19 38 18 19 37 17 16 37 17 16 38 18 17 37 17 16 38 18 19 38 18 17 37 17 16 38 18 17 37 17 18 29 9 11 25 5 7 27 7 9 28 8 9 37 17 18 47 27 18 109 76 9 111 74 4 111 76 10 110 81 25 111 82 26 111 82 26 110 81 25 111 82 26 111 82 26 111 82 26 109 80 24 111 82 26 111 82 26 111 82 26 110 81 25 109 76 9 109 75 4 109 76 9 110 81 25 109 83 26 109 83 26 111 82 26 110 79 22 108 74 3 109 75 4 111 81 21 111 82 26 111 82 26 109 83 26 111 82 26 109 76 9 111 74 4 109 76 9 111 81 27 109 83 26 
39 19 18 39 19 18 38 18 17 37 17 16 38 18 17 37 19 17 38 18 17 38 18 17 38 18 17 38 18 17 38 18 17 37 17 16 37 17 18 37 17 18 37 19 15 37 18 14 36 18 16 36 18 16 38 17 16 37 17 16 36 18 16 38 18 17 37 17 18 36 18 16 37 17 16 38 18 17 38 18 17 36 18 18 30 12 12 25 5 7 26 6 8 25 5 7 24 5 7 25 5 7 27 6 11 30 10 12 31 11 12 32 12 13 33 13 14 33 13 14 33 13 14 34 14 15 34 14 15 33 15 15 34 14 13 35 15 16 37 17 19 37 17 18 38 18 17 38 18 17 38 18 17 37 17 16 38 18 19 38 18 17 38 18 19 38 19 15 37 17 16 38 18 17 37 17 18 28 8 10 26 6 8 26 6 8 29 9 11 37 17 16 54 32 18 108 75 8 111 74 4 111 76 10 109 82 27 109 83 26 109 83 26 109 83 26 109 83 26 109 83 26 108 82 25 110 83 28 111 82 26 111 82 26 112 83 27 110 81 25 109 76 9 109 75 4 110 77 10 111 82 26 109 83 26 108 82 25 111 82 26 110 80 20 109 75 4 109 75 4 111 81 21 111 82 26 110 81 25 111 82 26 111 82 26 109 76 9 110 73 3 109 76 9 109 82 27 110 84 27 
37 17 16 38 18 17 37 17 16 37 17 16 38 18 19 38 18 17 38 18 17 38 18 17 37 17 16 37 19 17 38 18 17 38 18 17 36 18 16 38 18 17 36 18 16 38 18 19 38 18 19 37 19 19 38 18 19 37 17 16 38 18 17 38 18 17 38 18 17 38 18 17 36 18 16 38 18 17 37 17 16 38 18 17 38 17 16 30 10 12 25 5 7 26 6 8 27 5 8 26 6 8 26 6 8 26 6 8 25 5 7 26 6 8 27 5 8 26 6 8 26 6 8 26 6 8 25 5 7 26 6 8 26 6 8 25 5 7 26 6 8 30 10 11 37 17 16 37 17 16 37 17 16 37 17 16 38 18 19 38 18 17 38 18 19 37 17 16 38 18 17 38 18 17 37 17 18 27 7 9 26 6 8 26 6 8 29 9 11 38 18 17 61 38 20 109 76 9 111 74 4 109 76 9 109 83 26 110 84 27 108 82 25 110 84 27 108 82 25 109 83 26 108 82 25 109 83 26 111 82 26 111 82 26 109 80 24 109 80 24 109 76 9 108 74 3 109 76 9 111 82 26 109 83 26 109 83 26 111 82 26 110 79 22 109 75 4 108 74 3 111 81 21 111 82 26 110 84 27 111 82 26 109 83 26 109 76 9 110 73 3 109 76 9 108 81 26 111 82 26 
36 16 15 37 17 16 37 17 16 38 18 17 37 17 16 38 18 17 38 18 17 37 17 16 38 18 17 38 18 19 38 18 19 40 18 20 37 17 16 37 19 17 38 18 17 38 18 17 38 18 17 37 17 16 38 18 17 37 19 17 37 17 16 38 18 17 38 18 17 37 17 16 32 16 16 34 16 16 34 16 16 30 14 15 29 13 14 27 12 15 23 8 11 24 5 9 26 6 8 26 5 10 26 6 8 26 6 8 26 6 8 26 6 8 26 6 8 26 6 8 26 6 8 26 4 7 26 6 8 26 6 8 26 6 8 26 6 8 25 5 7 25 5 7 26 6 8 33 13 12 38 18 17 37 17 18 38 18 19 37 17 18 39 19 20 37 17 16 38 18 17 38 18 17 37 17 18 27 7 9 25 5 7 25 5 7 30 10 11 37 17 18 68 44 20 109 76 9 108 74 3 109 76 9 111 81 27 112 83 27 111 82 26 111 82 26 111 82 26 112 83 27 110 81 25 111 81 27 110 81 25 111 82 26 111 82 26 111 82 26 110 77 10 108 74 3 110 77 10 110 84 27 110 84 27 109 83 26 111 82 26 110 80 20 109 75 4 108 74 3 111 81 21 111 82 26 108 82 25 111 82 26 108 82 25 109 76 9 109 75 4 109 76 9 109 82 27 111 82 26 
38 18 17 38 18 17 38 18 17 37 17 16 36 18 18 37 17 18 36 18 18 38 18 17 38 18 17 39 18 17 37 17 16 37 17 16 37 17 18 37 17 18 36 16 17 35 17 17 34 16 16 31 15 15 29 13 14 28 12 13 25 10 13 22 10 12 21 9 11 19 7 11 19 8 12 17 6 10 17 6 12 17 6 10 17 6 10 17 6 12 16 7 10 17 6 12 18 6 8 25 6 8 25 5 7 25 5 7 26 6 8 26 6 8 26 6 8 25 5 7 26 6 8 26 6 8 25 5 7 26 6 8 24 5 7 24 5 7 25 5 7 26 6 8 26 6 8 25 5 7 33 13 14 38 18 17 38 18 17 38 18 19 39 19 20 38 18 19 37 17 18 37 17 16 36 16 17 26 6 8 25 5 7 25 5 7 31 11 12 38 18 17 69 48 21 109 76 9 108 74 3 109 76 9 111 81 27 111 81 27 111 82 26 111 82 26 111 82 26 111 82 26 110 80 26 110 80 26 111 82 26 110 81 25 110 81 25 110 81 25 109 76 9 108 74 3 110 77 10 108 82 25 108 82 25 110 81 25 111 82 26 110 79 22 109 75 4 108 74 3 109 80 20 110 81 25 109 83 26 111 82 26 108 82 25 109 76 9 109 75 4 110 77 10 108 81 26 110 81 25 
38 18 17 38 18 17 38 18 17 37 17 16 38 18 19 36 18 18 35 17 17 33 15 15 30 14 15 27 12 15 26 11 14 24 9 12 21 9 11 19 8 12 18 8 9 18 7 11 17 6 10 16 5 9 17 6 10 17 6 10 16 5 9 18 7 11 17 6 10 17 6 10 17 6 10 17 6 10 17 6 10 16 5 9 17 6 10 17 6 12 17 6 10 17 6 10 17 6 10 17 6 10 18 6 10 19 7 9 20 5 8 20 5 8 18 6 8 21 6 9 21 6 9 22 6 9 20 5 8 21 6 9 22 6 9 23 7 10 25 6 8 26 6 8 26 6 8 26 6 8 26 6 8 36 16 17 38 19 15 37 17 18 38 18 19 38 18 19 37 17 18 37 17 18 35 15 16 26 6 8 25 5 7 25 5 7 31 11 12 37 17 16 76 53 21 108 74 10 107 74 3 109 76 9 111 81 27 110 81 25 111 82 26 111 82 26 110 81 25 110 81 25 111 82 26 110 80 26 111 82 26 110 81 25 111 82 26 111 82 26 110 77 10 108 74 3 109 76 9 109 83 26 109 83 26 111 82 26 111 82 26 110 80 20 108 74 3 109 75 4 110 81 21 111 82 26 109 83 26 111 82 26 108 82 25 109 76 9 108 74 3 110 77 10 108 81 26 111 82 26 
38 18 17 38 18 17 35 15 16 25 10 13 20 8 12 19 7 11 18 7 11 18 6 10 17 5 9 16 5 9 18 6 10 18 6 10 17 6 10 17 6 10 16 5 9 18 6 10 16 5 9 18 7 11 17 6 10 18 6 10 16 5 9 17 6 10 17 6 10 17 6 10 16 5 9 17 6 10 16 5 9 17 6 10 17 6 10 16 7 10 18 6 10 16 5 9 16 7 8 18 6 10 18 6 10 18 8 9 18 6 10 18 6 10 18 6 10 18 6 10 18 6 10 17 6 10 17 6 10 17 6 10 15 6 11 18 7 11 18 6 10 24 5 9 25 5 7 25 5 6 26 6 8 29 9 11 38 18 19 37 17 16 38 18 17 38 18 17 38 18 19 37 17 18 34 14 15 25 5 7 25 5 7 26 5 10 33 13 15 37 17 18 81 57 23 110 77 10 108 74 3 110 75 9 110 80 26 111 82 26 110 81 25 111 82 26 110 81 25 110 81 25 111 82 26 111 82 26 109 83 26 111 82 26 109 83 26 109 82 27 109 75 11 108 74 3 109 76 9 111 82 26 109 83 26 112 83 27 111 82 26 110 79 22 109 75 4 109 75 4 112 80 21 110 80 26 111 82 26 111 82 26 110 81 25 109 76 9 108 73 5 110 77 10 110 81 25 109 83 26 
37 17 18 22 10 12 17 5 9 17 6 10 17 6 10 16 5 9 16 5 9 17 6 10 16 5 9 17 6 10 17 6 10 17 6 10 17 6 10 17 6 10 16 5 9 17 6 10 16 5 9 17 6 10 17 6 10 17 6 10 17 6 10 17 6 10 17 6 10 17 6 10 17 6 10 17 6 10 17 6 10 17 6 10 17 6 10 17 6 10 17 6 10 17 6 10 17 6 10 20 5 10 25 5 7 24 5 7 27 5 8 26 6 8 26 6 8 25 5 7 25 5 7 25 5 7 24 5 7 19 7 7 18 6 10 16 5 9 17 5 9 18 6 10 24 5 7 26 7 9 25 5 7 26 6 8 36 16 17 38 18 17 38 18 17 37 17 16 37 17 18 37 17 18 33 13 14 25 5 7 25 4 9 25 5 7 33 13 14 37 17 18 86 62 24 109 76 9 107 72 4 111 78 11 111 82 26 111 82 26 110 80 26 111 82 26 110 81 25 112 83 27 111 82 26 111 82 26 108 81 26 110 81 25 109 83 26 108 82 25 109 76 9 108 73 5 110 77 10 111 81 27 109 83 26 111 81 27 110 81 25 109 80 22 108 74 3 108 74 3 109 80 22 111 82 26 110 80 26 111 82 26 111 82 26 108 74 10 109 75 4 109 76 9 111 82 26 108 81 26 
20 8 12 17 6 10 17 7 8 18 7 11 17 6 10 16 5 9 17 6 10 17 6 10 17 6 10 17 6 10 17 6 10 17 6 10 17 6 10 17 8 11 18 6 10 17 6 10 16 7 10 17 6 10 16 5 9 17 6 10 17 6 10 16 5 9 18 7 11 16 5 9 19 8 12 16 5 9 17 6 10 17 6 10 17 6 12 17 5 9 18 7 11 17 6 10 21 6 9 24 5 9 24 4 5 26 6 8 25 5 7 25 5 7 26 4 7 25 5 7 24 5 7 25 5 7 25 5 7 25 5 7 20 5 8 19 7 11 17 6 10 17 6 10 21 6 9 26 6 8 25 5 7 27 5 8 31 11 12 37 17 16 37 17 16 37 17 16 38 18 19 38 18 17 33 13 15 26 6 8 25 5 7 25 5 7 34 14 15 38 18 17 93 69 25 109 76 9 109 75 4 110 77 10 111 82 26 110 81 25 111 82 26 111 82 26 110 81 25 111 82 26 111 82 26 110 80 26 109 83 26 111 81 27 108 82 25 107 80 25 109 75 11 107 73 2 110 77 10 111 81 27 109 83 26 110 80 26 110 81 25 111 80 23 108 74 3 108 74 3 111 80 23 111 82 26 111 81 27 110 80 26 110 81 25 109 76 9 108 74 3 109 76 9 110 81 25 108 82 25 
17 6 12 17 6 10 18 6 6 17 6 10 17 6 10 17 6 10 17 6 10 16 5 9 17 6 10 16 5 9 18 7 11 17 6 10 17 6 10 17 6 10 17 6 10 17 6 10 17 6 10 17 6 10 18 7 11 17 6 10 17 6 10 16 5 9 17 6 10 17 6 10 16 5 9 17 6 10 17 6 10 17 6 10 17 6 10 17 7 8 17 6 10 18 6 10 26 6 8 27 5 8 25 5 7 26 6 8 26 6 8 25 6 8 26 6 8 26 6 8 26 6 8 25 5 7 25 5 7 26 4 7 23 7 8 18 7 11 17 6 10 17 6 10 17 6 10 25 5 7 25 5 7 26 6 8 28 8 10 36 16 15 37 17 16 37 17 16 38 18 19 37 17 18 34 14 15 26 6 8 25 5 7 27 5 8 36 16 17 38 18 17 102 74 24 108 74 10 110 73 5 111 76 12 112 83 27 110 80 26 111 82 26 110 81 25 110 81 25 111 81 27 112 83 27 110 81 25 109 83 26 111 82 26 108 81 26 109 83 26 109 75 11 108 73 5 109 76 9 111 82 26 111 82 26 109 83 26 110 81 25 111 80 23 108 74 3 109 75 4 111 79 20 110 80 26 111 82 26 109 80 24 111 81 27 109 76 9 109 75 4 109 76 9 110 80 26 109 83 26 
18 6 10 17 6 10 18 6 10 18 7 11 19 7 11 22 7 12 20 5 10 21 6 11 20 5 10 20 5 10 21 6 11 18 6 10 18 6 10 17 6 10 17 6 10 18 6 10 18 6 10 17 6 10 17 6 10 16 7 10 18 7 11 17 6 10 17 6 10 18 7 11 17 6 10 19 8 12 17 6 10 17 6 10 17 7 8 17 6 10 17 6 10 18 6 10 25 5 7 26 6 8 27 5 8 25 5 7 26 6 8 26 6 8 26 4 7 26 4 7 26 6 8 27 5 8 26 4 7 25 5 7 26 6 8 17 6 12 17 5 9 17 6 10 17 6 10 24 5 7 25 5 7 25 5 7 27 7 9 38 18 19 37 17 16 38 18 19 38 18 17 38 18 17 31 11 12 26 6 8 26 6 8 26 5 10 35 15 16 38 18 17 107 80 25 109 76 7 111 74 4 109 74 8 110 81 25 110 81 25 111 82 26 111 82 26 109 79 25 110 81 25 110 81 25 110 81 25 109 82 27 110 80 26 109 83 26 109 83 26 109 76 9 109 75 4 108 75 8 111 82 26 109 83 26 111 82 26 110 81 25 109 78 21 107 73 2 108 74 3 110 81 21 110 80 26 111 81 27 111 82 26 111 81 27 109 75 11 108 73 5 109 76 9 111 82 26 108 82 25 
17 6 10 16 5 9 17 6 10 21 6 9 25 5 7 25 5 7 27 5 8 26 6 8 26 6 8 27 5 8 25 5 7 25 5 7 23 4 8 18 6 8 17 5 9 17 6 10 17 6 10 16 5 9 18 7 11 18 6 10 17 6 10 17 6 10 17 6 10 16 5 9 17 6 10 17 6 10 17 6 10 16 5 9 17 6 10 17 6 10 17 6 10 18 6 10 25 5 6 25 6 10 25 5 7 26 6 8 26 6 8 26 6 8 26 6 8 25 5 7 26 6 8 26 4 7 27 5 8 26 6 8 25 6 8 17 6 14 17 6 10 17 6 10 16 7 10 24 5 9 26 6 8 25 5 7 27 6 11 37 17 18 38 18 17 38 18 19 38 18 17 37 17 18 30 10 11 25 5 7 27 5 8 27 7 8 36 16 15 41 22 18 108 81 26 107 76 9 107 74 5 107 78 10 111 82 26 111 81 27 110 80 26 110 81 25 110 81 25 111 82 26 110 81 25 111 82 26 108 82 25 110 81 25 108 82 25 109 83 26 108 74 10 109 75 4 108 75 6 110 81 25 111 82 26 112 81 27 110 84 27 110 79 22 109 75 4 108 74 3 109 80 22 110 81 25 110 81 25 109 80 24 110 81 25 109 76 9 109 75 4 108 75 8 111 82 26 107 80 25 
17 6 10 16 5 9 17 5 9 27 5 8 27 5 8 26 6 8 25 5 7 26 6 8 25 5 7 26 6 8 25 5 7 27 5 8 26 6 8 24 5 9 17 6 10 16 7 10 18 6 10 17 6 10 17 6 10 18 6 10 17 6 10 17 6 10 17 6 10 17 6 10 17 6 10 17 6 10 17 6 10 17 6 10 17 6 10 17 6 10 16 5 11 17 5 9 24 5 7 26 6 8 25 5 7 25 4 9 26 6 8 25 5 7 25 5 7 26 6 8 27 5 8 27 5 8 27 5 8 25 5 7 21 6 9 17 6 10 17 6 10 16 5 9 17 6 10 25 6 10 25 5 7 27 5 8 27 7 9 37 17 18 38 18 17 37 17 18 38 18 17 37 17 16 29 9 11 25 5 7 25 4 9 26 6 8 36 18 18 45 25 18 110 81 25 110 81 21 108 77 12 109 80 20 110 81 25 110 81 25 110 81 25 110 80 26 111 82 26 110 81 25 110 81 25 111 82 26 110 84 27 111 82 26 108 82 25 108 82 25 109 76 9 107 72 4 109 76 9 110 81 25 111 82 26 109 82 27 110 81 25 111 80 23 110 73 3 109 75 4 110 79 22 111 82 26 110 80 26 111 82 26 111 82 26 108 75 8 108 74 3 109 76 9 111 82 26 108 82 25 
17 6 10 17 6 10 21 5 8 27 5 8 25 5 7 25 5 7 26 6 8 25 5 7 26 6 8 26 6 8 26 6 8 26 6 8 26 6 7 25 5 7 18 6 10 17 5 9 16 5 9 17 6 10 16 5 9 17 6 10 17 6 10 16 5 9 17 6 10 16 5 9 17 6 10 17 6 10 16 5 9 17 6 10 17 6 10 16 5 9 17 6 10 17 6 10 18 5 12 24 5 9 24 4 6 27 5 8 25 5 7 25 5 7 26 6 8 26 6 8 25 5 7 25 5 7 26 6 8 23 7 8 17 6 10 16 7 8 17 6 10 17 4 11 18 7 11 26 7 11 26 6 8 24 5 7 26 6 8 37 17 18 38 18 17 36 16 17 38 18 17 38 18 19 28 8 10 25 5 7 25 5 6 27 7 9 37 19 17 50 28 17 110 81 25 108 82 23 108 81 26 111 82 26 111 82 26 110 81 25 110 81 25 110 81 25 111 82 26 110 81 25 111 81 27 111 82 26 109 83 26 110 81 23 108 82 25 109 83 26 109 75 11 109 75 4 108 75 8 111 81 27 110 81 25 110 81 25 107 81 24 110 79 22 108 74 3 108 74 3 109 80 20 109 79 25 111 81 27 111 82 26 110 81 25 108 75 8 107 72 4 109 76 9 111 82 26 108 81 26 
17 6 12 17 6 10 23 4 8 25 6 8 25 5 7 25 5 7 26 4 7 25 5 7 25 5 7 25 5 7 25 5 7 25 5 7 25 5 6 25 5 7 19 7 9 17 6 10 17 6 10 17 5 9 17 6 10 18 6 10 17 6 10 17 6 10 16 5 9 16 5 9 17 6 10 17 6 10 19 7 11 18 6 10 17 6 10 17 6 10 17 6 10 17 6 10 16 5 9 17 6 10 18 6 10 21 6 11 21 6 9 21 6 9 21 6 9 21 6 9 21 6 9 21 6 11 20 5 10 17 6 10 16 5 9 19 7 11 16 5 9 17 6 10 24 7 13 26 6 8 26 6 8 26 6 8 28 8 9 37 17 16 38 18 17 38 18 19 37 17 16 38 18 19 27 7 8 25 5 7 26 6 8 27 7 8 38 18 17 55 33 19 111 82 26 110 80 26 111 81 27 110 81 25 111 82 26 111 81 27 111 82 26 110 80 26 111 82 26 110 80 26 111 82 26 110 81 25 110 81 25 109 83 26 110 81 25 110 81 25 109 76 9 109 75 4 109 76 9 111 82 26 109 83 26 111 82 26 111 82 26 110 79 22 109 75 4 108 74 3 109 80 22 110 81 25 111 82 26 110 81 25 110 81 25 108 75 8 107 75 2 110 77 10 110 81 25 111 82 26 
16 5 9 17 5 9 18 6 8 27 5 8 25 5 7 26 6 8 26 6 8 25 5 7 25 5 7 26 6 8 26 6 8 25 5 7 26 6 7 26 6 8 17 7 8 16 5 9 18 6 10 17 6 10 18 6 10 17 6 10 16 7 10 16 7 10 16 5 9 18 7 11 17 6 10 17 6 10 17 6 10 17 6 10 17 6 10 17 6 10 17 6 10 17 6 10 16 7 10 16 5 9 17 6 10 17 6 10 18 6 10 17 6 10 17 6 10 16 5 9 16 7 10 17 6 10 16 5 9 18 6 10 17 6 10 17 6 10 17 6 10 17 6 10 28 8 10 24 4 6 26 6 8 26 6 8 32 12 13 37 17 18 37 17 16 37 17 18 38 18 17 37 17 18 27 7 9 25 5 7 26 6 8 30 10 12 37 17 16 61 38 20 110 81 25 111 81 27 110 81 25 109 83 26 112 83 27 111 82 26 111 82 26 111 81 27 110 81 25 110 80 26 110 81 25 110 81 25 109 80 24 108 82 25 111 82 26 110 81 25 109 76 9 107 73 2 109 76 9 111 82 26 109 83 26 111 82 26 111 82 26 109 78 21 108 74 3 107 73 2 109 80 22 110 81 25 111 82 26 111 82 26 110 81 25 109 76 9 108 74 2 109 76 9 110 81 25 111 82 26 
17 6 10 18 6 10 18 6 10 24 5 9 26 6 8 25 5 7 24 5 7 26 6 8 25 6 8 25 5 7 25 5 7 26 6 8 25 4 9 22 6 9 17 6 10 16 5 9 16 5 9 18 7 11 17 6 10 17 6 10 17 6 10 17 6 10 16 5 9 17 6 10 17 6 10 18 7 11 17 6 10 15 4 8 16 5 9 16 5 9 18 7 11 17 6 10 17 5 9 16 5 9 17 6 10 17 6 10 17 6 10 17 6 10 18 6 10 18 6 10 18 6 10 16 7 10 17 6 10 17 6 10 17 6 10 19 8 12 19 7 11 32 14 14 25 5 7 25 5 7 24 5 7 27 7 9 37 17 18 37 17 18 37 17 16 37 17 18 38 18 17 36 16 17 27 7 9 25 5 7 25 5 7 30 10 12 37 19 17 66 44 21 110 81 25 110 80 26 111 82 26 108 82 23 110 81 25 112 83 27 110 81 25 111 81 27 110 81 25 110 81 25 110 81 25 111 82 26 110 81 25 109 83 26 110 81 25 111 82 26 109 76 9 109 75 4 109 76 9 111 82 26 109 83 26 110 81 25 110 81 25 110 79 22 108 74 3 109 75 4 109 80 22 110 81 25 110 81 25 111 82 26 111 82 26 109 76 9 109 75 4 109 76 9 110 80 26 110 81 25 
17 6 10 17 6 10 17 4 11 18 6 10 24 5 7 25 5 7 25 5 7 24 5 7 25 5 7 25 5 7 26 4 7 24 5 7 22 6 9 17 7 8 18 8 9 19 7 11 17 6 10 17 6 10 17 6 10 17 6 10 17 6 10 17 6 10 17 6 10 17 6 10 18 7 11 17 6 10 16 5 9 16 5 9 18 7 11 17 6 10 17 6 10 17 6 10 17 6 10 17 6 10 17 6 10 17 6 10 17 6 10 16 5 9 17 6 10 18 7 11 16 5 9 17 6 10 17 6 10 16 5 9 16 5 9 20 8 12 33 15 15 28 8 10 27 5 8 25 4 9 27 5 7 31 11 12 37 17 16 38 18 19 37 17 16 37 17 18 38 18 17 37 17 18 26 6 8 25 5 7 26 6 8 31 11 13 37 17 18 73 49 21 111 81 27 109 79 25 110 81 25 110 81 23 111 82 26 109 80 24 110 81 25 110 81 25 110 81 25 111 82 26 112 83 27 109 80 24 110 81 25 107 81 24 110 81 25 109 80 24 109 76 9 108 74 3 108 75 8 111 82 26 108 82 25 110 81 25 111 82 26 110 79 22 108 74 3 107 73 2 109 80 22 111 82 26 110 81 25 110 81 25 108 82 25 109 76 9 107 72 4 108 75 8 109 79 25 109 83 26 
16 5 9 17 6 10 17 6 10 17 6 10 17 6 10 18 6 10 17 6 10 18 6 10 18 6 10 17 6 10 17 6 10 17 6 10 16 5 9 17 6 10 17 6 10 17 6 10 17 5 9 17 6 10 18 7 11 17 6 10 17 6 10 17 6 10 17 6 10 16 5 9 17 6 10 17 6 10 16 5 9 16 5 9 16 7 10 17 6 10 17 6 10 17 6 10 16 5 9 17 6 10 17 6 10 18 6 10 17 6 10 17 6 10 16 5 9 17 6 10 16 7 10 18 7 11 21 9 11 22 10 12 30 14 14 36 18 18 31 11 12 26 6 8 25 4 9 25 4 9 27 7 9 36 16 17 37 17 16 37 17 18 37 17 16 38 18 17 38 18 17 36 16 17 26 6 8 26 6 8 26 6 8 32 12 13 37 17 18 81 57 23 110 81 25 108 82 25 108 82 25 108 82 25 108 82 25 109 83 26 108 82 25 109 83 26 108 82 25 107 81 24 108 82 25 108 82 25 110 81 25 108 82 25 110 81 25 110 81 25 109 76 9 109 75 4 109 76 9 111 82 26 108 82 25 111 82 26 110 81 25 110 79 22 107 73 2 109 75 4 109 80 22 111 82 26 111 82 26 109 83 26 109 83 26 108 75 8 108 73 5 110 75 9 109 82 27 108 82 25 
17 6 10 17 6 14 16 5 9 16 5 9 17 6 10 18 6 10 18 6 10 17 6 10 17 6 10 17 6 10 17 6 10 17 6 10 17 6 10 17 6 10 16 5 9 17 6 10 17 6 10 16 7 12 17 6 10 17 6 10 17 6 10 17 6 10 17 6 10 17 6 10 17 6 10 17 6 10 17 6 10 17 6 10 17 6 10 16 5 9 18 6 10 16 5 9 18 7 11 17 6 10 20 8 12 20 8 12 23 8 11 25 10 13 28 12 15 31 15 16 31 15 18 34 16 16 36 16 17 38 18 17 37 17 16 36 16 15 27 7 9 25 5 7 25 5 7 25 4 9 34 14 16 37 17 18 38 18 17 39 19 20 38 18 17 37 17 18 38 18 17 35 15 16 25 5 7 25 5 7 26 5 10 34 14 15 37 17 18 85 59 24 108 82 23 108 82 25 108 81 26 108 81 26 108 82 25 108 82 25 108 82 25 108 82 25 108 81 26 109 83 26 108 82 25 109 83 26 111 82 26 109 83 26 111 82 26 111 82 26 109 76 9 107 73 2 108 75 8 110 81 25 107 81 24 110 81 25 110 81 25 109 78 21 108 74 3 107 73 2 109 80 22 110 81 25 109 83 26 108 82 25 108 82 25 109 76 9 107 72 4 106 75 8 108 81 26 108 82 25 
27 13 13 16 5 11 17 6 10 18 6 10 17 6 10 17 6 10 17 6 10 17 6 10 16 7 10 17 6 10 17 6 10 17 6 10 17 6 10 17 6 10 17 6 10 17 6 10 18 7 13 18 7 13 17 6 12 18 5 12 17 6 10 17 6 10 18 7 11 18 7 11 18 8 9 20 8 10 22 10 12 25 10 13 27 13 13 29 13 14 33 14 16 36 16 17 36 16 17 37 17 18 37 17 18 37 17 18 37 17 16 37 17 18 33 18 15 38 18 19 37 17 16 37 17 18 37 17 16 37 19 19 37 17 18 32 12 14 26 4 6 25 5 7 25 5 7 30 10 11 37 17 18 36 18 16 39 19 18 38 18 17 38 18 17 37 17 18 38 18 17 33 13 14 25 5 7 25 5 7 27 5 8 34 14 15 37 17 16 90 65 24 110 81 25 108 82 25 110 81 25 110 80 26 108 82 25 109 83 26 108 81 26 109 83 26 108 81 26 108 82 25 109 83 26 108 82 25 110 81 25 108 82 25 110 81 25 110 81 25 109 76 9 108 74 3 109 76 9 109 80 24 108 82 25 110 81 25 110 81 25 110 79 22 108 74 3 108 74 3 108 79 21 110 81 25 108 82 25 106 79 24 108 81 26 109 75 11 109 74 6 109 76 9 108 81 26 108 82 25 
37 17 16 31 15 16 19 8 12 17 6 10 17 6 10 16 7 10 17 6 10 17 6 10 17 6 10 17 6 10 17 6 10 16 7 10 16 5 9 17 6 10 18 7 11 17 8 11 23 8 13 25 10 13 28 12 15 31 12 14 32 14 14 32 14 14 35 17 17 36 16 17 37 17 16 37 17 16 38 18 17 38 18 17 37 17 16 37 17 16 37 17 16 38 18 17 37 17 18 37 17 18 38 16 18 37 17 18 37 19 19 37 19 17 37 17 16 38 18 17 38 18 17 37 17 16 36 16 17 37 17 18 36 18 16 34 14 15 26 6 8 25 6 8 28 7 12 35 15 16 38 18 17 37 17 18 37 17 18 38 18 17 38 18 17 37 17 18 37 17 16 33 13 14 26 6 8 26 5 10 26 6 8 35 15 16 37 17 16 95 68 25 110 80 26 109 83 26 109 83 26 108 81 26 109 83 26 108 82 25 109 82 27 108 82 25 109 82 27 108 82 25 109 82 27 108 82 25 110 81 25 108 82 25 110 81 25 110 81 25 108 75 8 108 74 3 109 76 9 110 81 25 109 83 26 110 81 25 110 81 25 109 78 21 108 74 3 108 74 3 109 80 22 110 81 25 108 82 25 109 82 27 108 81 26 108 74 10 108 73 5 108 75 8 109 82 27 108 82 25 
37 19 19 36 18 18 35 17 17 32 13 15 26 10 13 24 9 12 21 9 11 22 10 12 23 11 13 26 12 12 30 14 15 32 14 14 36 16 17 35 17 15 36 16 17 36 18 18 38 19 15 37 19 17 38 18 17 36 18 16 37 17 16 37 17 16 38 18 17 38 18 17 38 19 15 38 18 17 37 17 18 37 17 18 37 17 16 37 17 18 38 18 17 37 17 16 38 18 17 37 17 18 37 17 16 38 18 17 37 17 18 37 17 18 38 18 19 37 17 18 37 17 18 36 16 17 38 18 19 36 16 17 37 17 16 37 17 16 35 15 14 32 12 11 36 16 15 38 18 17 38 18 17 37 17 16 37 17 18 38 18 17 36 16 15 37 17 16 36 16 17 31 11 13 25 5 7 25 5 7 25 5 7 35 15 16 38 18 19 99 73 24 109 82 27 108 81 26 108 81 26 110 81 25 108 81 26 108 81 26 108 82 25 108 82 25 108 82 25 108 82 25 108 81 26 108 81 26 108 82 25 108 82 25 111 81 27 111 81 27 109 76 9 107 72 4 108 75 8 108 81 26 108 82 25 108 81 26 108 82 25 109 80 22 107 73 2 107 74 5 109 80 22 110 81 25 109 82 27 110 81 25 107 82 26 109 75 11 108 74 3 108 75 8 110 83 28 110 80 26 
36 16 17 37 17 16 37 17 18 37 17 18 36 18 18 37 19 19 37 17 18 37 17 18 37 17 18 37 17 16 38 18 17 37 17 16 38 18 17 38 18 19 37 17 16 38 18 17 38 18 17 37 17 18 38 18 17 38 18 17 37 17 18 38 18 17 37 17 16 38 18 17 37 17 16 38 18 17 38 18 19 37 17 18 37 17 18 37 17 18 37 17 18 38 18 19 37 17 16 38 18 19 38 18 19 36 16 17 37 19 19 38 18 19 37 17 18 37 17 18 37 17 18 37 17 18 37 17 18 38 18 19 38 18 17 37 17 16 37 17 16 37 17 16 37 17 16 37 17 16 38 18 17 38 18 17 37 17 18 38 18 17 38 18 17 37 17 16 37 17 18 30 10 12 25 5 7 25 5 7 26 6 8 37 15 18 41 22 18 102 74 24 108 81 26 109 82 27 107 81 24 110 81 25 108 82 25 108 82 25 108 81 26 108 81 26 108 81 26 108 81 26 108 82 25 108 82 25 108 82 25 108 82 25 110 80 26 110 80 26 108 75 8 108 73 5 108 75 8 109 82 27 108 82 25 110 81 25 108 82 25 109 80 22 108 74 3 107 73 2 110 79 22 108 82 25 109 83 26 107 80 25 108 81 26 108 75 8 108 74 3 110 77 10 106 80 23 109 83 26 
38 18 17 37 17 16 37 17 16 37 17 16 37 17 16 37 17 16 38 18 19 38 18 17 38 18 19 37 17 18 36 16 17 38 18 19 37 17 16 37 17 16 38 19 15 36 18 16 37 17 18 36 16 17 37 17 16 37 17 16 38 18 19 37 17 18 37 17 18 38 18 17 37 18 14 38 18 17 37 17 18 37 17 18 38 19 15 37 17 18 37 17 18 37 17 18 38 18 17 37 17 16 38 18 19 37 17 16 37 17 18 37 17 18 37 17 18 37 17 18 39 19 20 37 17 18 38 18 19 38 20 20 37 17 16 37 17 16 37 17 16 38 18 17 37 17 16 37 17 16 38 18 17 37 17 16 38 18 19 38 18 17 39 19 18 38 18 17 38 18 19 30 10 12 26 6 8 26 6 8 26 6 8 37 17 16 44 24 17 103 77 26 108 82 25 109 82 27 108 82 25 108 82 25 108 81 26 108 81 26 109 83 26 108 82 25 107 81 24 108 82 25 108 81 26 108 81 26 107 81 24 110 81 25 108 81 26 110 80 26 108 75 8 108 73 5 108 75 8 109 82 27 108 81 26 108 81 26 110 81 25 109 80 22 108 73 5 107 72 4 109 80 22 110 80 26 110 80 26 110 80 26 109 80 24 108 75 8 110 73 5 108 75 8 109 82 27 108 82 25 
38 18 17 37 17 16 36 18 16 37 17 16 38 18 17 37 17 16 37 17 18 37 17 18 38 18 19 37 17 18 36 18 16 37 19 17 37 17 18 38 18 19 37 17 18 36 16 17 37 17 18 38 18 17 38 18 17 38 18 17 37 17 19 37 17 18 37 17 18 38 18 19 36 16 15 37 18 14 37 17 16 37 17 18 37 17 16 37 17 16 37 17 16 37 17 18 37 17 18 37 17 18 38 18 19 37 17 16 37 17 18 37 17 18 37 17 18 38 18 19 38 18 19 37 17 18 37 17 18 37 17 18 36 18 16 37 17 16 37 17 16 37 17 16 37 19 17 37 19 17 37 19 17 38 18 17 38 18 19 37 17 16 38 18 17 37 17 16 37 17 18 29 9 11 26 6 8 26 6 8 25 5 7 37 17 16 49 29 18 106 79 26 108 82 23 110 81 25 108 81 26 108 82 25 108 81 26 108 81 26 108 82 25 108 82 25 108 82 25 108 82 25 108 81 26 108 81 26 109 83 26 110 81 25 108 81 26 110 80 26 108 75 8 108 73 5 109 76 9 108 81 26 108 82 25 108 82 25 108 82 25 109 80 22 108 74 3 107 73 2 109 80 20 108 82 25 111 82 26 111 82 26 110 80 26 107 77 13 107 74 5 108 77 12 108 81 26 108 81 26 
37 17 16 38 18 17 37 17 16 37 19 17 36 18 16 36 18 18 37 17 19 37 17 18 37 17 18 37 17 16 37 19 17 37 19 17 36 18 14 37 17 16 37 17 16 37 17 16 37 19 17 37 17 16 37 17 18 36 18 18 38 18 17 37 17 16 38 18 17 37 17 16 37 17 16 37 17 16 37 17 16 37 17 16 36 16 17 37 17 18 37 17 16 38 18 17 36 16 17 34 14 16 36 16 17 37 17 18 37 17 18 37 17 18 37 17 18 38 18 19 37 17 18 37 17 18 37 17 18 37 17 18 35 17 15 37 17 16 38 18 17 38 18 17 37 19 17 37 19 17 37 19 17 37 17 16 36 16 17 37 17 16 37 17 16 37 17 16 37 17 18 29 9 11 24 4 6 25 5 7 26 6 8 37 17 16 55 33 20 107 80 25 110 81 25 108 82 23 110 80 26 107 80 25 108 82 25 108 82 25 108 81 26 107 80 25 108 81 26 108 81 26 108 82 25 107 81 24 110 81 25 108 82 25 108 81 26 108 81 26 108 75 8 107 72 4 108 75 8 107 80 25 107 80 25 108 81 26 108 82 23 108 79 21 108 74 3 107 72 4 108 79 21 108 81 26 111 80 25 110 80 26 108 82 25 110 81 25 108 79 23 110 81 25 107 81 24 108 82 25 
37 17 16 36 18 16 36 18 16 38 18 17 38 18 17 37 17 16 37 17 16 38 18 17 37 17 16 37 17 16 37 17 16 38 18 17 37 17 16 35 20 17 37 19 17 37 17 16 37 17 16 37 19 17 37 19 17 38 18 17 37 17 16 37 17 16 37 17 18 38 18 19 37 17 18 36 16 17 38 18 19 38 18 19 39 19 20 37 17 16 38 18 17 36 16 15 27 7 9 26 6 8 27 7 8 37 17 19 37 17 18 37 17 18 37 17 18 37 17 18 37 17 18 37 17 18 38 18 19 37 19 19 37 17 16 37 17 16 37 17 16 37 17 16 38 18 17 38 18 17 37 17 16 38 18 17 38 18 19 38 18 17 37 17 16 37 17 16 37 17 18 28 8 10 25 5 7 25 5 7 27 7 9 38 18 17 59 36 22 110 81 25 108 82 25 110 81 25 108 81 26 107 80 25 108 82 25 108 82 25 108 81 26 108 81 26 108 81 26 108 81 26 107 81 24 108 82 25 111 82 26 108 82 25 108 81 26 107 80 25 108 75 8 108 73 5 109 76 9 110 80 26 108 82 25 108 82 25 111 82 26 109 80 22 108 74 3 108 74 3 109 80 22 110 81 25 108 82 25 111 82 26 108 81 26 108 81 26 108 82 25 107 80 25 109 82 27 107 81 24 
37 19 17 36 18 16 36 16 15 37 17 16 37 17 16 38 18 19 37 17 19 38 18 19 37 17 18 37 17 16 38 18 19 37 19 19 38 18 19 36 16 17 37 19 17 37 17 18 33 15 15 34 14 15 37 17 16 38 18 17 38 18 19 37 17 16 38 18 17 37 17 18 29 8 13 26 6 8 28 8 9 37 17 18 38 18 17 38 18 17 37 17 18 33 13 14 26 6 8 25 5 7 25 5 7 35 15 16 36 18 18 38 18 19 37 17 18 38 18 19 37 17 18 37 17 18 37 17 18 37 17 18 37 17 16 38 18 17 37 17 16 37 17 16 38 18 17 38 18 17 37 17 16 38 18 17 38 18 19 38 18 17 37 17 16 38 18 17 36 16 17 27 7 9 25 5 7 25 5 7 28 8 10 38 18 17 64 39 17 109 80 24 110 81 25 108 82 25 110 80 26 108 81 26 107 80 25 108 81 26 108 82 25 108 82 25 108 82 25 107 81 24 108 81 26 108 81 26 110 81 25 108 82 25 108 81 26 107 80 25 108 75 8 108 73 5 108 75 8 110 80 26 107 80 25 110 80 26 108 82 25 108 79 21 108 73 5 107 72 4 109 78 21 108 82 25 107 80 25 110 81 25 110 81 25 107 80 25 107 80 25 111 80 26 110 80 26 108 81 26 
37 17 18 37 17 18 37 17 18 37 17 18 37 17 16 37 17 18 37 17 18 37 17 18 38 18 19 38 18 17 38 18 17 37 17 16 36 18 16 36 16 15 38 18 17 31 11 12 25 5 7 25 4 9 29 9 10 37 17 16 37 17 18 38 18 17 37 17 16 34 14 15 25 5 7 25 5 7 26 6 7 34 14 15 37 17 16 37 17 16 37 17 18 33 13 14 25 5 7 26 6 8 26 6 8 35 15 16 37 17 18 38 18 19 37 17 18 37 17 18 37 17 18 37 17 18 37 17 18 37 17 18 38 18 17 38 18 17 37 17 16 38 18 17 37 17 16 37 17 16 37 17 16 37 17 16 37 17 18 38 18 17 37 17 16 38 18 17 36 16 17 26 6 8 25 5 7 25 5 7 29 9 11 38 18 17 67 43 19 109 80 24 108 82 25 107 80 25 108 82 25 108 83 27 108 82 25 107 81 24 107 80 25 108 81 26 108 81 26 108 81 26 108 82 25 108 82 25 110 81 25 110 81 25 106 81 25 108 81 26 108 75 8 108 73 5 109 76 9 109 79 25 108 82 25 108 82 25 108 82 25 108 79 21 109 75 4 105 72 3 109 80 22 110 81 25 110 81 25 108 82 25 108 81 26 108 82 25 107 80 25 110 80 26 110 81 23 110 81 25 
38 18 17 37 17 16 38 18 17 37 17 18 38 18 17 38 18 19 37 17 16 36 16 17 31 11 12 32 12 13 37 17 19 37 17 16 36 18 16 37 17 16 38 18 19 29 9 11 26 6 8 26 6 8 27 7 9 37 17 16 37 17 16 38 18 17 37 17 18 34 14 15 25 5 7 25 5 7 25 5 7 33 13 14 37 17 16 36 16 17 37 17 18 33 13 14 25 5 7 26 6 8 25 5 7 35 15 17 37 17 16 37 17 16 37 18 14 37 17 16 37 17 18 36 16 17 38 19 15 38 18 17 37 17 18 37 17 18 38 18 17 38 18 17 37 17 18 37 18 14 37 17 16 37 17 18 38 18 17 37 17 18 37 17 18 38 18 17 35 15 14 25 5 7 26 6 8 25 5 7 30 10 11 38 18 17 74 48 21 111 82 26 110 81 25 108 82 25 110 81 25 109 79 25 110 80 26 110 81 25 110 80 26 109 80 24 109 79 25 109 79 27 110 81 25 109 79 25 110 81 25 108 82 25 109 79 25 107 80 25 108 74 11 107 72 4 109 75 11 108 81 26 109 82 27 109 79 25 107 80 25 108 79 21 108 73 5 107 72 4 108 79 21 110 80 26 110 81 25 110 80 26 109 79 25 110 80 26 110 81 25 110 81 25 109 80 24 110 80 26 
37 17 16 37 17 16 37 17 16 37 17 18 37 17 16 38 18 19 37 17 18 27 7 9 25 5 7 25 5 7 31 11 13 37 17 16 38 18 17 38 18 19 38 18 19 29 10 12 25 5 7 25 5 7 28 8 10 38 18 17 38 18 17 37 17 16 37 17 18 34 14 15 25 5 7 26 6 8 25 5 7 33 13 14 37 17 16 38 18 19 37 17 18 33 13 14 25 5 7 26 6 8 25 5 7 31 11 13 37 17 18 36 16 15 37 17 18 38 18 17 37 17 18 37 17 18 37 17 16 38 18 17 37 17 16 37 17 18 38 18 17 36 16 15 37 17 19 37 17 16 36 16 15 37 17 18 38 18 17 37 17 18 38 18 19 36 16 15 34 14 13 25 5 7 25 5 7 26 6 8 31 11 12 38 18 17 80 53 24 110 80 26 111 80 26 107 81 24 110 81 25 109 79 25 109 79 25 109 80 24 110 80 26 110 80 26 110 81 25 109 80 24 110 80 26 110 81 25 110 80 26 107 80 25 109 79 27 107 80 25 108 74 10 107 72 4 110 77 10 108 82 25 110 80 26 106 79 24 110 80 26 109 78 21 108 73 5 107 72 4 110 79 22 110 80 26 110 80 26 110 81 25 110 81 25 110 81 25 111 81 27 109 79 25 109 79 25 110 81 25 
37 17 18 37 17 16 37 17 18 37 17 18 37 17 18 37 17 18 36 16 18 26 6 8 25 5 7 26 6 8 30 10 11 38 18 17 37 19 17 37 17 18 38 18 19 27 8 10 26 6 8 26 6 8 27 7 9 38 18 17 37 17 16 38 18 17 37 17 18 34 14 15 25 5 7 25 5 7 26 6 8 33 13 14 37 17 16 38 18 19 38 18 19 33 13 14 25 5 7 25 5 7 26 6 8 29 9 11 38 18 19 37 17 18 37 17 18 37 17 16 37 17 18 39 19 20 37 17 16 37 17 16 37 17 16 37 17 16 37 17 18 37 17 18 37 17 18 39 19 18 37 17 18 38 18 19 37 17 18 37 17 18 38 18 19 38 18 17 33 13 12 24 4 6 25 5 7 26 6 8 31 11 12 38 18 17 84 58 23 110 80 26 110 80 26 107 81 24 110 81 25 109 79 25 109 79 25 109 80 24 110 81 25 110 80 26 109 79 25 110 81 25 110 81 25 111 81 27 110 81 25 108 82 25 110 81 25 110 80 26 108 74 10 107 72 4 109 76 9 106 81 24 108 81 26 107 80 25 107 80 25 109 78 21 107 72 4 107 72 4 108 79 21 108 81 26 109 79 25 110 80 26 109 79 25 110 80 26 110 81 25 110 81 25 110 81 25 109 80 24 
38 18 19 37 17 18 37 17 18 38 18 19 37 17 18 38 18 17 36 16 17 26 6 7 26 6 8 25 5 7 30 10 11 37 17 16 36 18 16 37 17 16 37 17 18 28 8 10 25 5 7 25 5 7 27 7 9 38 18 17 38 18 17 37 17 16 37 17 18 34 14 15 25 5 7 26 6 8 25 5 7 33 13 14 38 18 17 36 16 17 37 17 18 33 13 14 25 5 7 25 5 7 26 6 8 29 9 11 37 17 18 37 17 18 37 17 18 37 17 16 38 18 20 37 17 18 35 15 16 30 10 11 35 15 16 37 17 18 37 17 18 37 17 16 37 17 18 38 18 19 37 17 16 36 16 17 38 18 19 38 18 19 38 18 19 38 18 17 34 14 15 25 5 7 25 5 7 26 6 8 31 11 13 38 18 19 92 65 22 110 80 26 109 79 25 108 81 26 110 81 25 109 80 24 111 82 26 109 79 25 110 81 25 110 81 25 109 79 25 110 80 26 110 80 26 109 80 24 109 79 25 110 80 26 108 82 25 110 80 26 105 74 9 107 72 4 108 74 10 107 80 25 108 81 26 110 80 26 109 79 25 108 79 21 107 72 4 108 73 5 108 79 21 109 79 25 110 81 25 110 81 25 109 80 24 110 81 25 109 79 25 110 80 26 109 79 25 110 80 26 
37 17 18 34 14 15 28 8 9 29 9 10 36 16 17 38 18 17 37 17 16 25 5 7 26 6 8 25 5 7 29 9 10 37 17 16 37 17 16 37 17 16 37 17 18 28 9 11 24 4 6 26 6 8 27 7 9 37 17 16 38 18 17 37 17 16 37 17 18 34 14 15 25 5 7 26 6 8 25 5 7 33 13 14 38 18 17 37 17 18 37 17 18 33 13 14 25 5 7 26 6 8 25 5 7 29 9 11 37 17 16 38 18 17 37 17 16 37 17 18 38 18 19 36 16 18 27 7 8 25 5 7 26 6 7 35 15 16 37 17 18 38 18 17 37 17 16 37 17 18 30 10 11 27 7 9 32 12 13 37 17 18 37 17 18 36 16 15 33 13 14 26 6 8 25 5 7 25 5 7 31 11 13 37 17 18 96 69 22 111 81 27 107 80 25 109 79 25 107 80 25 108 82 25 110 80 26 110 81 25 110 81 25 109 79 25 110 80 26 110 81 25 109 79 25 109 80 24 109 79 25 110 80 26 107 80 25 110 80 26 106 75 8 107 72 4 108 75 8 108 82 25 107 80 25 110 80 26 110 80 26 108 79 21 107 72 4 107 72 4 108 79 21 110 80 26 110 80 26 109 79 25 110 80 26 110 80 26 110 81 25 110 81 25 109 80 24 110 81 25 
37 17 18 26 6 7 25 5 7 24 4 6 31 11 12 37 17 16 37 17 16 27 6 11 25 5 7 24 4 6 30 10 11 38 18 17 38 18 17 37 17 18 38 18 19 29 10 12 26 6 8 26 6 8 27 7 9 37 17 16 37 17 16 38 18 17 37 17 18 34 14 15 25 5 7 25 5 7 26 6 8 33 13 14 37 17 16 38 18 19 37 17 18 33 13 14 25 5 7 25 5 7 25 5 7 29 9 11 37 17 16 37 17 16 37 17 16 37 17 18 38 18 19 34 14 15 26 6 8 25 5 7 26 6 8 33 13 14 37 17 18 37 17 16 38 18 17 34 14 15 26 6 8 26 5 10 25 5 7 35 15 16 37 17 18 38 18 17 32 12 13 25 5 7 25 5 7 25 5 7 31 11 12 38 18 17 101 73 25 110 80 26 108 81 26 109 79 25 109 82 27 108 82 25 110 81 25 109 79 25 110 80 26 109 80 24 110 81 25 109 79 25 110 80 26 110 81 25 109 79 25 108 81 26 109 79 25 109 79 25 108 75 8 108 73 5 108 74 10 106 81 27 107 80 25 107 80 25 107 80 25 109 78 21 107 72 4 107 72 4 108 79 21 108 81 26 109 80 24 109 80 24 109 79 25 110 80 26 110 81 25 110 81 25 110 80 26 109 79 25 
37 17 18 25 5 7 25 5 7 27 7 9 29 9 11 37 17 18 36 16 15 26 5 10 25 5 7 25 5 7 30 10 11 37 17 16 36 18 16 37 17 18 38 18 19 28 8 10 25 5 7 26 6 8 28 8 10 38 18 17 38 18 17 37 17 16 37 17 18 34 14 15 25 5 7 26 6 8 25 5 7 33 13 14 37 17 16 37 17 18 38 18 19 32 12 13 26 6 8 26 6 8 25 5 7 29 9 11 37 17 16 37 17 18 37 17 16 37 17 18 37 17 18 34 14 15 25 5 7 25 5 7 26 6 8 33 13 14 38 18 19 37 17 16 37 17 18 33 13 14 25 5 7 25 4 9 26 6 8 35 15 16 38 18 19 38 18 17 31 11 12 25 5 7 26 6 8 25 5 7 32 12 13 40 21 17 103 75 25 109 79 25 107 80 25 110 81 25 107 80 25 107 81 24 109 80 24 109 79 25 109 80 24 110 81 25 111 81 27 109 79 25 109 80 24 110 80 26 110 81 25 107 81 24 109 80 24 107 80 25 109 75 11 107 72 4 108 74 10 108 81 26 109 79 25 107 80 25 110 80 26 109 78 21 108 73 5 108 73 5 110 79 22 110 80 26 110 80 26 109 79 25 110 81 25 109 80 24 110 80 26 109 79 25 110 81 25 110 81 25 
37 17 18 26 6 8 26 6 8 25 5 7 30 10 12 38 18 17 36 16 15 27 7 9 25 5 7 26 6 8 29 9 11 36 16 17 38 18 17 37 17 16 30 10 11 24 5 7 25 5 7 25 5 7 26 6 8 38 18 17 37 17 16 38 18 17 37 17 18 34 14 15 25 5 7 25 5 7 25 5 7 33 13 14 38 18 17 37 17 18 37 17 18 33 13 14 26 6 8 25 5 7 26 6 8 29 9 11 37 17 18 37 17 18 36 16 17 37 17 18 37 17 18 34 14 15 25 5 7 26 6 8 25 5 7 32 12 13 37 17 18 38 18 19 38 18 19 33 13 14 25 5 7 25 5 7 25 5 7 34 14 15 37 17 18 37 17 16 30 10 11 25 5 7 25 5 7 25 5 7 32 12 14 42 23 19 106 76 24 109 79 25 107 80 25 110 81 25 107 80 25 107 80 25 109 79 25 110 81 25 109 79 25 109 80 24 110 81 25 110 80 26 109 80 24 109 80 24 109 79 25 107 80 25 109 79 25 107 80 25 108 74 10 107 72 4 108 75 8 108 82 23 108 81 26 110 80 26 108 81 26 108 79 21 108 73 5 106 71 3 107 78 20 109 79 25 109 80 24 108 79 23 110 80 26 109 79 25 110 81 25 110 81 25 110 80 26 109 79 25 
37 17 16 26 6 7 26 6 8 25 5 7 29 9 11 38 18 19 37 17 16 27 7 9 25 5 7 25 5 7 30 10 11 37 17 16 39 19 18 37 17 16 27 7 9 25 5 7 25 5 7 25 5 7 27 7 9 38 18 17 38 18 19 37 17 18 37 17 18 34 14 15 25 5 7 25 5 7 25 5 6 33 13 14 37 17 16 38 18 17 38 18 19 33 13 14 25 5 7 25 5 7 25 5 7 29 9 10 37 17 18 37 17 18 37 17 18 37 17 18 37 17 18 34 14 15 25 5 7 26 6 8 25 5 7 33 13 14 37 17 16 37 17 18 37 17 16 33 13 14 25 5 7 25 5 7 25 5 7 34 14 15 37 17 18 38 19 15 29 8 13 25 5 7 25 5 7 25 5 7 31 13 13 44 25 19 106 79 26 110 80 26 111 82 24 107 80 25 107 80 25 107 80 25 107 80 25 108 81 26 107 80 25 107 80 25 107 80 25 107 80 25 107 80 25 108 81 26 107 81 24 107 81 24 108 81 26 106 79 24 107 73 9 108 73 5 108 75 8 107 81 24 107 80 25 110 80 26 108 81 26 108 79 21 110 73 5 108 73 5 108 79 21 110 80 26 110 80 26 107 80 25 110 80 26 110 80 26 108 81 26 110 80 26 109 79 25 107 80 25 
37 17 16 25 5 7 26 6 8 25 5 7 29 9 11 37 17 18 36 16 15 27 7 9 25 5 7 25 5 7 30 10 11 37 17 16 38 18 17 37 17 16 28 8 10 25 5 7 26 6 8 26 6 8 26 6 8 37 17 16 37 17 16 38 18 19 37 17 16 34 14 15 25 5 7 25 5 7 25 5 7 33 13 14 38 18 17 37 17 16 37 17 18 33 13 14 25 5 7 25 5 7 26 6 8 30 10 12 37 17 18 37 17 18 37 17 18 37 17 18 37 17 18 34 14 15 25 5 7 26 6 8 26 6 8 33 13 14 37 17 16 37 17 18 37 17 16 33 13 14 25 5 7 26 6 8 26 6 8 34 14 15 37 17 18 37 18 14 28 7 12 25 5 7 25 5 7 25 5 7 31 11 13 47 27 18 108 82 25 108 81 26 107 80 25 107 80 25 107 80 25 107 80 25 107 80 25 108 81 26 107 80 25 109 79 25 108 81 26 110 80 26 107 80 25 108 81 26 109 83 26 107 81 24 108 81 26 107 80 25 108 74 10 107 72 4 108 75 8 107 81 24 109 79 25 107 80 25 108 81 26 108 79 21 107 72 4 107 72 4 108 79 21 109 79 25 107 80 25 107 80 25 107 80 25 108 81 26 107 80 25 108 81 26 109 79 25 107 80 25 
36 16 17 26 6 8 25 5 7 26 6 8 31 11 13 38 18 19 36 16 15 26 6 8 26 6 8 25 5 7 31 11 12 38 18 17 37 17 16 37 17 16 27 7 9 25 5 7 25 5 7 26 6 8 25 5 7 38 18 17 38 18 19 38 18 19 37 17 16 33 13 14 25 5 7 25 5 7 25 5 7 33 13 14 35 15 16 37 17 16 37 17 18 33 13 14 26 6 8 25 5 7 25 5 7 29 9 11 37 17 18 37 17 18 37 17 18 37 17 18 37 17 18 35 15 16 25 5 7 26 6 8 25 5 7 33 13 14 37 17 16 37 17 18 37 17 16 33 13 14 25 5 7 25 5 7 25 5 7 33 13 14 36 16 17 37 17 16 27 7 9 25 5 7 26 6 8 25 5 7 32 10 13 54 32 19 108 81 26 107 80 25 108 81 26 107 81 24 106 79 24 106 79 24 107 80 25 107 80 25 107 80 25 107 80 25 107 80 25 108 81 26 108 81 26 108 81 26 108 81 26 107 80 25 107 80 25 107 80 25 108 74 10 107 72 4 108 74 10 107 80 25 110 79 25 107 80 25 110 80 26 109 78 21 106 73 4 107 74 5 109 78 21 109 79 25 108 81 26 108 81 26 107 80 25 108 81 26 108 81 26 107 80 25 109 79 25 108 81 26 
37 17 18 26 6 8 25 5 7 26 6 8 30 10 12 37 17 18 37 17 16 26 6 8 25 5 7 25 5 7 30 10 11 38 18 17 37 17 16 37 17 16 27 7 9 25 5 7 25 5 7 27 7 9 27 7 9 37 17 16 37 17 18 38 18 17 37 17 16 33 13 14 26 6 8 26 6 8 25 5 7 33 13 14 37 17 18 37 17 16 38 18 19 34 14 15 25 5 7 25 5 7 26 6 8 29 9 11 37 17 18 37 17 18 37 17 18 38 18 19 37 17 18 34 14 15 26 6 8 25 5 7 25 5 7 33 13 14 37 17 16 37 17 18 37 17 16 33 13 14 25 5 7 25 5 7 26 6 8 34 14 15 37 17 16 37 17 18 27 7 9 25 5 7 25 5 7 25 5 7 31 11 13 61 38 20 107 80 25 108 81 26 108 81 26 108 82 25 107 80 25 107 80 25 108 81 26 107 80 25 107 80 25 109 82 27 108 81 26 107 80 25 107 80 25 108 81 26 107 80 25 107 80 25 107 80 25 106 79 24 107 73 9 107 72 4 108 74 10 107 80 25 107 80 25 109 79 25 107 80 25 107 78 20 107 72 4 108 73 5 108 79 21 107 80 25 107 80 25 107 80 25 107 80 25 107 80 25 108 81 26 108 81 26 108 81 26 107 80 25 
37 17 16 25 5 7 25 5 7 26 6 8 29 9 11 36 16 17 37 17 16 26 6 8 25 5 7 25 5 7 30 10 11 38 18 17 37 17 18 38 18 17 28 8 10 25 5 7 25 5 7 25 5 7 27 7 9 37 17 16 38 18 19 37 17 16 38 18 17 35 15 16 25 5 7 26 6 8 26 6 8 34 14 15 37 17 18 37 17 16 38 18 19 37 17 18 26 6 8 25 5 7 25 5 7 29 9 11 37 17 18 36 16 17 38 18 19 37 17 18 38 18 19 34 14 15 24 4 6 26 6 8 25 5 7 33 13 14 37 17 16 37 17 18 37 17 16 33 13 14 25 5 7 25 5 7 25 5 7 34 14 15 38 18 17 37 17 18 26 6 8 25 5 7 25 5 7 25 5 7 31 11 13 66 44 20 107 81 24 107 80 25 107 80 25 107 80 25 107 80 25 107 80 25 107 80 25 107 80 25 109 79 25 108 81 26 110 80 26 107 80 25 106 79 24 108 81 26 108 81 26 107 80 25 108 81 26 107 80 25 108 74 10 107 72 4 109 75 11 108 81 26 107 80 25 107 80 25 107 80 25 107 78 20 108 73 5 109 72 4 108 79 21 109 79 25 108 81 26 107 80 25 107 80 25 109 82 27 107 80 25 107 80 25 106 79 24 107 80 25 
36 16 15 26 6 8 26 6 8 26 6 8 29 9 11 37 17 18 36 16 15 26 6 8 25 5 7 25 5 7 30 10 11 38 18 17 37 17 18 37 17 16 27 7 9 25 5 7 26 6 8 25 5 7 28 8 9 38 18 17 38 18 19 37 17 18 37 17 18 37 17 16 28 8 10 26 6 7 30 10 12 36 16 15 37 17 18 37 17 16 37 17 18 36 16 17 28 8 10 25 5 7 25 5 7 30 10 12 37 17 18 37 17 18 36 16 17 38 18 19 37 17 18 34 14 15 25 5 7 26 6 8 25 5 7 33 13 14 37 17 16 37 17 18 37 17 16 33 13 14 25 5 7 25 5 7 25 5 7 34 14 15 38 18 17 37 17 18 25 5 7 25 5 7 26 6 8 26 6 8 33 15 15 72 48 20 108 81 26 108 81 26 109 83 26 107 80 25 107 80 25 106 79 24 108 81 26 108 81 26 107 80 25 107 80 25 108 81 26 108 81 26 107 80 25 107 80 25 109 82 27 107 80 25 108 81 26 107 80 25 108 74 10 107 72 4 108 74 10 107 80 25 107 80 25 109 79 25 107 80 25 108 79 21 106 71 3 107 72 4 108 79 21 110 79 25 107 80 25 107 80 25 107 80 25 107 80 25 107 80 25 108 81 26 107 80 25 107 80 25 
37 17 18 25 5 7 25 5 7 27 7 9 29 9 11 37 17 18 37 17 16 26 6 8 26 6 8 25 5 7 30 10 11 37 17 16 37 17 18 38 18 17 26 6 8 26 6 8 26 6 8 26 6 8 35 15 16 37 17 16 37 17 16 37 17 18 38 18 19 37 17 16 37 17 18 36 16 17 36 16 17 38 18 17 37 17 16 36 16 15 37 17 18 36 16 17 27 7 9 24 4 6 26 6 8 30 10 12 37 17 18 37 17 18 37 17 18 37 17 18 37 17 18 34 14 15 25 5 7 26 6 8 26 6 8 33 13 14 37 17 16 37 17 18 37 17 16 33 13 14 25 5 7 26 6 8 26 6 8 34 14 15 37 17 16 35 15 16 25 5 7 25 5 7 25 5 7 29 9 11 37 17 18 77 52 21 106 79 24 107 80 25 108 82 25 107 81 24 108 81 26 107 80 25 107 80 25 107 80 25 107 80 25 108 81 26 107 80 25 107 80 25 107 80 25 106 79 24 107 80 25 107 80 25 106 79 24 107 80 25 107 73 9 107 72 4 107 73 9 107 80 25 107 80 25 106 79 24 107 80 25 108 77 20 107 72 4 107 72 4 109 80 22 107 80 25 108 81 26 107 80 25 107 80 25 108 81 26 108 81 26 107 80 25 106 81 25 107 80 25 
37 17 18 24 3 8 26 6 8 25 4 9 30 10 12 37 17 18 38 18 17 27 7 9 25 5 7 26 6 8 33 13 14 38 18 17 38 18 19 38 18 17 28 8 10 25 5 7 25 5 7 27 7 9 37 17 18 37 17 16 38 18 17 38 18 19 37 17 18 37 17 16 36 16 17 37 17 16 37 17 18 37 17 16 38 18 17 38 18 17 37 17 18 37 17 18 28 8 10 25 5 7 25 5 7 33 13 14 37 17 18 37 17 18 37 17 18 37 17 18 37 17 18 34 14 15 25 5 7 26 6 8 25 5 7 33 13 14 37 17 16 37 17 18 37 17 16 33 13 14 25 5 7 25 5 7 26 6 8 35 15 16 36 16 15 34 14 15 25 5 7 26 6 8 26 6 8 31 11 13 37 17 16 81 57 23 107 80 25 106 79 24 108 82 25 107 80 25 107 80 27 106 81 25 107 80 25 107 80 25 107 80 25 109 79 25 107 80 25 109 79 25 107 80 25 107 80 25 108 81 26 108 81 26 106 79 24 108 81 26 107 73 9 107 72 4 108 74 10 108 81 26 108 81 26 107 80 25 109 79 25 108 77 20 107 72 4 108 73 5 108 79 21 107 80 25 107 80 25 110 80 26 106 79 24 107 80 25 109 79 25 107 80 25 107 80 25 107 80 25 
37 17 16 25 5 7 25 5 7 26 6 8 29 8 13 37 17 18 37 17 16 35 15 16 32 12 13 33 13 14 37 17 18 37 17 18 38 18 19 37 17 18 28 8 10 25 5 7 26 6 8 27 7 9 36 16 15 38 18 19 38 18 17 37 17 18 37 17 18 38 18 19 37 17 18 36 18 18 36 16 17 37 17 18 37 17 16 37 19 17 37 17 18 37 17 18 36 16 17 31 11 12 32 14 14 37 17 16 37 17 18 37 17 18 39 19 18 37 17 16 38 18 19 34 14 15 25 5 7 25 4 9 25 5 7 33 13 12 37 17 16 37 17 18 37 17 18 33 13 12 26 6 7 25 5 7 25 4 9 34 14 15 36 16 15 33 13 14 26 6 8 26 6 8 25 5 7 32 12 11 37 17 18 85 59 22 106 79 24 107 80 25 108 82 25 107 81 24 107 80 25 107 80 25 109 79 25 107 80 25 106 81 25 107 80 25 109 79 25 109 79 25 107 80 25 108 81 26 107 80 25 108 81 26 107 80 25 107 80 25 108 74 10 108 73 5 106 72 8 107 80 25 107 80 25 107 80 25 107 80 25 107 78 20 108 73 5 106 71 3 108 79 21 107 80 25 107 80 25 108 81 26 108 81 26 107 80 25 107 80 25 107 80 25 107 80 25 107 80 25 
33 13 14 25 5 7 26 6 8 26 6 8 29 9 11 38 18 19 37 17 18 37 17 18 37 17 16 37 17 16 37 17 16 37 17 18 38 18 19 37 17 18 27 7 9 25 5 7 26 6 8 27 7 9 37 17 16 37 17 18 36 18 16 37 17 18 37 17 18 36 16 15 37 17 18 37 17 16 37 17 18 37 17 16 38 18 19 37 17 18 36 16 17 31 11 12 30 10 11 35 15 16 37 17 18 37 17 19 37 17 18 37 17 18 37 17 18 38 18 17 37 17 16 33 13 12 25 4 9 25 5 7 24 5 7 33 13 14 36 18 18 35 17 17 36 16 15 33 13 14 24 5 7 26 5 10 25 5 7 34 14 15 37 17 18 34 14 15 25 5 7 25 5 7 24 4 6 33 13 14 37 17 18 88 63 23 107 80 25 107 80 25 107 81 24 107 81 24 107 80 25 106 79 24 107 80 25 108 81 26 108 81 26 107 80 25 107 80 25 107 80 25 107 80 25 108 81 26 107 80 25 107 80 25 107 80 25 108 81 26 108 74 10 106 71 3 108 74 10 107 80 25 107 80 25 108 81 26 108 81 26 108 79 21 106 71 3 107 72 4 109 80 22 108 81 26 107 81 24 107 80 25 107 80 25 107 80 25 107 80 25 108 81 26 109 82 27 107 80 25 
