P3
100 50
255
20 1 7 21 2 8 20 1 7 21 2 8 20 1 7 21 2 8 20 1 7 20 1 7 20 1 7 21 2 8 20 1 7 20 1 7 20 1 7 21 2 8 21 2 8 20 1 7 20 0 9 21 2 8 20 1 7 20 0 9 20 0 9 20 1 7 21 2 8 20 0 9 21 1 10 20 0 9 20 0 9 20 0 9 20 0 9 20 0 9 20 0 9 21 1 10 20 1 7 20 1 7 20 1 7 20 1 7 20 1 7 20 1 7 20 1 7 20 1 7 21 1 10 20 0 9 23 0 10 32 0 13 32 0 13 22 1 10 20 0 9 20 0 9 21 2 8 20 1 7 19 0 6 20 1 7 20 1 7 21 2 8 21 2 8 20 1 7 20 1 7 22 1 10 31 1 13 30 0 12 23 2 9 20 1 7 21 2 8 20 0 9 20 0 9 21 2 8 22 3 9 20 1 7 21 2 8 20 1 7 21 2 8 21 1 10 24 1 9 32 0 11 33 1 12 23 2 9 21 2 8 21 1 10 20 0 9 20 0 9 29 2 11 33 1 12 29 1 13 21 0 9 20 1 7 20 1 7 21 2 8 20 0 9 20 1 7 20 1 7 20 1 7 20 1 7 20 1 7 20 1 7 20 1 7 21 2 8 20 1 7 20 1 7 20 1 7 20 1 7 
20 1 7 20 1 7 20 1 7 20 1 7 19 0 6 21 2 8 21 2 8 20 1 7 20 1 7 20 1 7 20 1 7 20 1 7 20 1 7 20 1 7 21 2 8 20 1 7 21 2 8 20 1 7 20 1 7 20 1 7 21 2 8 21 2 8 20 1 7 21 2 8 21 1 10 20 0 9 20 0 9 21 1 10 20 0 9 20 0 9 20 0 9 19 0 8 20 1 7 20 1 7 19 0 6 21 2 8 20 1 7 20 1 7 20 1 7 20 1 7 20 0 9 20 0 9 23 0 10 31 1 13 33 1 14 22 1 10 20 0 9 21 1 10 20 1 7 20 1 7 20 1 7 21 2 8 21 2 8 20 1 7 20 1 7 20 1 7 20 1 7 23 2 11 33 1 14 32 0 13 23 0 8 20 1 7 20 1 7 20 0 9 20 0 9 19 0 6 21 2 8 20 1 7 20 1 7 20 1 7 20 1 7 20 0 9 24 1 9 33 1 12 33 1 12 22 1 8 20 1 7 19 0 6 20 1 7 20 0 9 27 0 9 33 1 12 29 1 13 21 0 9 20 1 7 20 1 7 20 1 7 21 1 10 20 1 7 20 1 7 20 1 7 20 1 7 20 1 7 20 1 7 20 1 7 20 1 7 19 0 6 20 1 7 20 1 7 20 1 7 
20 1 7 20 1 7 21 2 8 21 2 8 19 0 6 21 2 8 19 0 6 20 1 7 21 2 8 20 1 7 19 0 6 20 1 7 20 1 7 20 1 7 20 1 7 21 2 8 20 1 7 20 1 7 21 2 8 21 2 8 21 2 8 20 1 7 20 1 7 21 2 8 20 0 9 20 0 9 21 1 10 20 0 9 20 0 9 20 0 9 20 0 9 20 0 9 20 1 7 21 2 8 20 1 7 20 1 7 20 1 7 21 2 8 20 1 7 20 1 7 21 1 10 20 0 9 23 0 10 31 1 13 33 1 14 22 1 10 20 0 9 20 0 9 21 2 8 20 1 7 20 1 7 21 2 8 20 1 7 20 1 7 21 2 8 20 1 7 21 2 8 23 2 11 29 1 13 31 1 13 20 1 7 22 1 8 21 2 8 21 1 10 20 0 9 20 1 7 21 2 8 20 1 7 21 2 8 20 1 7 20 1 7 20 0 9 23 0 10 32 0 11 33 1 12 23 2 9 20 1 7 20 1 7 20 1 7 21 2 8 28 1 10 33 1 12 28 0 12 21 0 9 20 1 7 20 1 7 19 0 6 20 0 9 20 1 7 20 1 7 20 1 7 20 1 7 20 1 7 20 1 7 20 1 7 20 1 7 21 2 8 21 2 8 20 1 7 20 1 7 
20 1 7 20 1 7 21 2 8 20 1 7 20 1 7 21 2 8 20 1 7 21 2 8 20 1 7 20 1 7 20 1 7 19 0 6 21 2 8 20 1 7 20 1 7 20 1 7 20 0 9 21 2 8 20 1 7 20 0 9 20 0 9 21 2 8 21 2 8 21 1 10 20 0 9 21 1 10 20 0 9 20 0 9 20 0 9 20 0 9 21 1 10 20 0 9 20 1 7 21 2 8 20 1 7 20 1 7 21 2 8 20 1 7 20 1 7 21 2 8 20 0 9 20 0 9 24 1 11 32 0 13 32 0 13 21 0 9 21 1 10 21 1 10 21 2 8 21 2 8 20 1 7 20 1 7 20 1 7 21 2 8 20 1 7 20 1 7 20 1 7 23 0 10 32 0 13 31 1 13 23 0 8 21 2 8 18 1 7 20 0 9 20 0 9 20 1 7 20 1 7 20 1 7 20 1 7 20 1 7 19 0 6 20 0 9 23 0 10 32 0 13 33 1 14 22 1 8 20 1 7 21 2 8 20 1 7 21 2 8 28 1 10 32 0 11 29 1 13 22 1 10 21 2 8 20 1 7 21 2 8 20 0 9 20 1 7 20 1 7 20 1 7 20 1 7 20 1 7 20 1 7 20 1 7 21 2 8 20 1 7 20 1 7 20 1 7 21 2 8 
19 0 6 20 1 7 20 1 7 20 1 7 21 2 8 21 2 8 20 1 7 20 1 7 20 1 7 20 1 7 20 1 7 20 1 7 20 1 7 21 2 8 20 1 7 21 2 8 20 1 7 20 0 9 20 0 9 20 1 7 21 2 8 21 1 10 20 0 9 20 1 7 21 1 10 20 0 9 21 1 10 20 0 9 20 0 9 20 0 9 20 0 9 20 0 9 20 1 7 21 2 8 20 1 7 20 1 7 20 1 7 20 1 7 21 2 8 20 1 7 21 1 10 20 0 9 24 1 11 32 2 14 32 0 13 22 1 10 21 1 10 20 0 9 21 2 8 20 1 7 20 1 7 20 1 7 21 2 8 21 2 8 20 1 7 19 0 6 21 2 8 23 2 11 33 1 14 32 2 14 22 0 7 20 1 7 20 1 7 21 1 10 20 0 9 20 1 7 20 1 7 20 1 7 21 2 8 20 1 7 20 1 7 20 0 9 23 0 8 32 0 11 33 1 12 23 2 9 20 1 7 20 1 7 22 3 9 21 2 8 28 1 10 31 1 11 29 1 13 20 0 9 19 0 6 19 0 6 21 2 8 19 0 8 20 1 7 20 1 7 20 1 7 21 2 8 20 1 7 20 1 7 20 1 7 20 1 7 21 2 8 20 1 7 20 1 7 20 1 7 
20 1 7 20 1 7 20 1 7 21 2 8 21 2 8 20 1 7 20 1 7 20 1 7 21 2 8 20 1 7 21 2 8 20 1 7 20 1 7 21 2 8 21 2 8 21 2 8 20 1 7 20 1 7 19 0 6 19 0 6 20 1 7 20 1 7 20 1 7 20 1 7 20 0 9 20 0 9 20 0 9 21 1 10 21 1 10 20 0 9 21 1 10 20 0 9 20 1 7 20 1 7 20 1 7 21 2 8 21 2 8 20 1 7 20 1 7 20 1 7 20 0 9 21 1 10 23 0 10 30 0 12 31 1 13 22 1 10 20 0 9 21 1 10 20 1 7 21 2 8 21 2 8 20 1 7 20 1 7 21 2 8 20 1 7 21 2 8 20 1 7 22 1 10 32 0 13 31 1 13 23 2 9 20 1 7 22 1 8 20 0 9 20 0 9 20 1 7 20 1 7 20 1 7 21 2 8 20 1 7 20 1 7 20 0 9 23 0 8 33 1 12 32 0 11 22 1 8 20 1 7 20 1 7 20 0 9 20 0 9 29 2 11 32 2 12 28 0 12 21 1 10 20 1 7 21 2 8 20 1 7 20 0 9 20 1 7 20 1 7 20 1 7 21 2 8 20 1 7 21 2 8 20 1 7 20 1 7 20 1 7 20 1 7 20 1 7 20 1 7 
20 0 9 20 0 9 21 1 10 20 0 9 20 1 7 20 1 7 20 1 7 21 2 8 21 2 8 20 1 7 20 1 7 19 0 6 20 1 7 20 1 7 21 2 8 20 1 7 20 1 7 20 0 9 20 1 7 20 0 9 20 0 9 20 1 7 20 0 9 20 1 7 20 1 7 21 2 8 20 1 7 20 1 7 20 1 7 21 2 8 20 1 7 20 1 7 20 1 7 20 1 7 21 2 8 20 1 7 21 2 8 20 1 7 20 1 7 20 1 7 21 2 8 21 2 8 22 1 10 33 1 14 32 0 13 22 1 10 20 1 7 20 1 7 20 0 9 20 0 9 21 1 10 20 0 9 20 0 9 20 0 9 20 0 9 21 1 10 22 2 11 22 1 10 32 0 13 31 1 13 23 0 10 20 0 9 20 0 9 20 0 9 20 0 9 20 0 9 20 1 7 20 1 7 20 1 7 20 1 7 20 0 9 20 0 9 23 2 11 32 2 14 33 1 14 23 2 11 21 1 10 20 0 9 20 0 9 21 1 10 28 0 12 32 0 13 30 0 12 21 2 8 20 1 7 20 1 7 21 2 8 20 1 7 20 1 7 21 1 10 21 2 8 20 0 11 20 1 7 20 1 7 20 0 9 22 3 9 20 0 9 20 0 9 20 0 9 20 0 9 
20 0 9 20 0 9 20 0 9 21 1 10 20 1 7 20 1 7 21 2 8 21 2 8 20 1 7 21 2 8 20 1 7 21 2 8 20 1 7 21 2 8 20 1 7 21 2 8 21 2 8 20 1 7 20 1 7 20 1 7 22 3 9 21 2 8 18 0 5 20 1 7 19 0 6 20 1 7 20 1 7 20 1 7 21 2 8 21 2 8 20 1 7 20 1 7 21 2 8 21 2 8 21 2 8 20 1 7 21 2 8 21 2 8 20 1 7 20 1 7 20 1 7 20 1 7 23 2 11 32 0 13 32 0 13 22 1 10 20 1 7 20 1 7 21 1 10 20 0 9 20 0 9 20 0 9 20 0 9 21 1 10 20 0 9 20 0 9 20 0 9 22 1 10 33 1 14 30 0 12 23 0 10 21 1 10 21 1 10 20 0 9 20 0 9 21 1 10 21 2 8 21 2 8 20 1 7 20 1 7 20 0 9 21 1 10 22 1 10 32 2 14 34 2 15 22 1 10 20 0 9 21 1 10 20 0 9 21 1 10 28 0 12 31 1 13 28 0 12 20 1 7 20 1 7 20 1 7 21 2 8 20 1 7 20 1 7 20 1 7 20 0 9 21 2 8 20 0 9 20 0 9 21 2 8 20 0 9 21 1 10 20 0 9 20 0 9 20 0 9 
21 2 8 20 1 7 21 2 8 20 1 7 20 0 9 20 0 9 20 0 9 20 0 9 20 1 7 20 1 7 20 1 7 21 2 8 20 1 7 20 1 7 20 1 7 20 1 7 20 1 7 22 3 9 20 1 7 21 2 8 20 1 7 20 1 7 21 2 8 20 1 7 20 1 7 19 0 6 20 1 7 20 1 7 20 1 7 20 1 7 21 2 8 20 1 7 21 2 8 19 0 6 20 1 7 20 1 7 20 1 7 20 1 7 20 1 7 20 1 7 21 2 8 20 1 7 22 1 10 32 0 13 32 0 13 22 1 10 20 1 7 21 2 8 20 0 9 20 0 9 21 1 10 20 0 9 20 0 9 20 0 9 20 0 9 20 0 9 20 0 9 21 0 9 32 0 13 32 2 14 24 1 11 20 0 9 20 0 9 21 1 10 20 0 9 20 0 9 21 2 8 21 2 8 20 1 7 20 1 7 21 1 10 20 0 9 22 1 10 31 1 13 33 1 14 23 2 11 21 1 10 21 1 10 21 1 10 20 0 9 28 0 12 31 1 13 28 0 12 20 1 7 20 1 7 20 1 7 21 2 8 21 2 8 20 0 9 20 1 7 20 0 9 20 0 9 21 2 8 21 2 8 20 0 9 19 0 6 21 1 10 20 0 9 20 0 9 20 0 9 
21 2 8 20 1 7 20 1 7 21 2 8 20 0 9 21 1 10 20 0 9 20 0 9 20 1 7 21 2 8 20 1 7 21 2 8 20 1 7 20 1 7 20 1 7 21 2 8 21 2 8 21 2 8 20 1 7 20 1 7 19 0 6 21 2 8 20 1 7 20 1 7 21 2 8 20 1 7 20 1 7 21 2 8 22 3 9 20 1 7 20 1 7 21 2 8 20 1 7 20 1 7 19 0 6 20 1 7 20 1 7 20 1 7 20 1 7 20 1 7 20 1 7 21 2 8 22 1 10 33 1 14 33 1 14 23 2 11 20 1 7 20 1 7 21 1 10 21 1 10 20 0 9 20 0 9 20 0 9 21 1 10 20 0 9 20 0 9 20 0 9 21 0 9 33 1 14 31 1 13 25 2 12 20 0 9 21 1 10 21 1 10 20 0 9 20 0 9 20 1 7 20 1 7 21 2 8 20 1 7 20 0 9 20 0 9 23 2 11 30 0 12 32 0 13 23 2 11 21 1 10 20 0 9 20 0 9 20 0 9 28 1 10 32 0 13 30 0 12 21 2 8 21 2 8 20 1 7 21 1 10 20 1 7 20 1 7 20 0 9 20 1 7 20 0 9 20 0 9 20 1 7 20 0 9 21 2 8 20 0 9 20 0 9 20 0 9 21 1 10 
20 1 7 20 1 7 20 1 7 21 2 8 20 0 9 19 0 8 20 0 9 20 0 9 21 2 8 20 1 7 20 1 7 20 1 7 21 2 8 21 2 8 20 1 7 21 2 8 20 1 7 20 0 9 20 1 7 20 0 9 20 0 9 21 2 8 20 0 9 20 1 7 20 1 7 21 2 8 21 2 8 21 2 8 21 2 8 21 2 8 20 1 7 21 2 8 21 2 8 21 2 8 20 1 7 21 2 8 20 1 7 20 1 7 20 1 7 20 1 7 20 1 7 20 1 7 23 2 11 32 0 13 32 0 13 22 1 10 20 1 7 20 1 7 21 1 10 20 0 9 20 0 9 21 1 10 21 1 10 20 0 9 20 0 9 20 0 9 20 0 9 24 3 12 32 0 13 32 2 14 23 0 10 20 0 9 20 0 9 20 0 9 20 0 9 20 0 9 20 1 7 21 2 8 20 1 7 20 1 7 20 0 9 20 0 9 22 1 10 31 1 13 32 0 13 22 1 10 20 0 9 20 0 9 21 1 10 20 0 9 28 1 10 32 0 13 30 0 12 21 2 8 20 1 7 20 1 7 20 0 9 20 1 7 20 0 9 20 1 7 20 0 9 20 1 7 20 1 7 20 0 9 20 1 7 19 0 8 20 0 9 19 0 8 20 0 9 20 0 9 
21 2 8 20 1 7 22 3 9 20 1 7 21 1 10 20 0 9 20 0 9 20 0 9 20 1 7 20 1 7 21 2 8 21 2 8 20 1 7 20 1 7 20 1 7 21 2 8 20 1 7 20 0 9 20 1 7 21 1 10 20 0 9 20 1 7 20 0 9 20 1 7 20 1 7 20 1 7 20 1 7 20 1 7 20 1 7 20 1 7 20 1 7 20 1 7 20 1 7 20 1 7 20 1 7 21 2 8 20 1 7 20 1 7 20 1 7 20 1 7 21 2 8 20 1 7 22 1 10 32 0 13 32 0 13 22 1 10 21 2 8 21 2 8 20 0 9 21 1 10 20 0 9 20 0 9 20 0 9 20 0 9 20 0 9 21 1 10 20 0 9 22 1 10 33 1 14 30 0 12 23 0 10 20 0 9 20 0 9 20 0 9 20 0 9 20 0 9 21 2 8 21 2 8 19 0 6 20 1 7 21 1 10 19 0 8 22 1 10 31 1 13 33 1 14 23 2 11 20 0 9 21 1 10 21 1 10 21 1 10 29 2 11 31 1 13 28 0 12 20 1 7 19 0 6 21 2 8 20 0 9 20 1 7 20 0 9 20 1 7 19 0 8 20 0 9 20 1 7 20 1 7 20 0 9 20 1 7 20 0 9 20 0 9 21 1 10 20 0 9 
20 0 9 20 0 9 20 0 9 20 0 9 21 2 8 20 1 7 20 1 7 21 2 8 20 1 7 20 1 7 20 1 7 20 1 7 20 1 7 20 1 7 20 1 7 20 1 7 21 2 8 21 2 8 20 1 7 20 1 7 20 1 7 21 2 8 19 0 6 19 0 6 19 0 6 19 0 6 20 1 7 20 1 7 20 1 7 20 1 7 20 1 7 20 1 7 20 1 7 21 2 8 20 1 7 20 1 7 20 1 7 21 2 8 21 2 8 20 1 7 20 1 7 20 1 7 22 1 10 33 1 14 33 1 14 23 2 11 21 2 8 20 1 7 21 1 10 20 0 9 20 0 9 20 0 9 20 0 9 20 0 9 21 1 10 20 0 9 20 0 9 23 2 11 32 0 13 31 1 13 23 0 10 20 0 9 20 0 9 20 0 9 20 0 9 20 0 9 20 1 7 20 1 7 21 2 8 20 1 7 20 0 9 20 0 9 24 3 12 32 2 14 33 1 14 24 3 12 20 0 9 20 0 9 20 0 9 21 1 10 28 1 10 31 1 11 29 1 13 21 2 8 20 1 7 21 2 8 20 0 9 20 0 9 20 1 7 20 0 9 21 2 8 20 1 7 20 0 9 20 1 7 20 0 9 20 0 9 20 0 9 20 0 9 20 0 9 20 0 9 
20 0 9 21 1 10 20 0 9 20 0 9 20 1 7 20 1 7 20 1 7 22 3 9 21 2 8 20 1 7 20 1 7 19 0 6 20 1 7 20 1 7 21 2 8 20 1 7 20 1 7 20 1 7 20 1 7 21 2 8 21 2 8 20 1 7 21 2 8 20 1 7 21 2 8 20 1 7 21 2 8 21 2 8 20 1 7 20 1 7 21 2 8 20 1 7 21 2 8 21 2 8 20 1 7 20 1 7 20 1 7 20 1 7 21 2 8 20 1 7 20 1 7 21 2 8 22 1 10 31 0 12 32 0 13 22 1 10 20 1 7 21 2 8 20 0 9 21 1 10 20 0 9 20 0 9 20 0 9 20 0 9 21 1 10 21 1 10 20 0 9 22 1 10 32 0 13 31 1 13 25 2 12 20 0 9 21 1 10 21 1 10 21 1 10 20 0 9 20 1 7 21 2 8 20 1 7 20 1 7 21 1 10 20 0 9 22 1 10 32 2 14 32 0 13 23 2 11 20 0 9 21 1 10 20 0 9 20 0 9 28 1 10 32 0 11 30 0 12 20 1 7 20 1 7 20 1 7 20 0 9 20 0 9 20 0 9 20 1 7 20 0 9 20 0 9 20 1 5 20 0 9 20 1 7 20 0 9 20 0 9 20 0 9 20 0 9 20 0 9 
20 1 7 19 0 6 20 0 9 21 2 8 21 1 10 20 1 7 20 1 7 20 1 7 22 3 9 21 2 8 21 2 8 21 2 8 20 0 9 20 0 9 20 0 9 21 1 10 20 1 7 18 1 9 20 0 9 20 1 7 19 0 6 21 1 10 20 0 9 19 2 8 20 0 9 21 2 8 20 0 9 20 0 9 21 2 8 20 0 9 20 0 9 20 0 9 20 0 9 21 1 10 20 0 9 21 1 10 22 2 11 20 0 9 21 1 10 21 1 10 20 1 7 21 2 8 23 0 10 31 1 13 32 0 13 22 1 10 20 1 7 20 1 7 21 2 8 20 1 7 20 0 9 20 0 9 22 1 10 20 0 9 20 1 7 21 0 7 20 0 9 23 2 9 31 1 13 30 0 10 23 0 10 20 1 7 20 0 9 20 0 9 20 0 9 21 2 8 21 0 9 20 3 9 21 2 8 20 0 9 21 2 8 21 2 8 23 2 11 30 0 10 31 1 11 23 2 11 20 0 9 20 1 7 20 1 7 21 1 10 28 0 12 31 1 11 29 1 13 20 1 7 20 1 7 20 1 7 21 2 8 20 1 7 21 2 8 20 0 9 20 1 7 20 1 7 20 0 9 21 1 10 20 1 7 20 0 9 20 0 9 20 1 7 21 2 8 20 0 9 
21 2 8 20 1 7 20 1 7 20 0 9 21 2 8 21 1 10 21 2 8 21 2 8 21 1 10 20 0 9 20 0 9 20 0 9 20 1 7 20 1 7 20 1 7 20 1 7 20 0 9 20 1 7 20 1 7 20 0 9 20 0 9 21 2 8 21 2 8 21 0 9 19 0 8 20 0 9 20 0 9 20 0 9 20 1 7 21 1 10 20 0 9 20 0 9 20 0 9 19 0 8 21 1 10 20 0 9 20 0 9 20 0 9 21 1 10 20 0 9 20 0 9 20 1 7 24 1 9 31 1 11 33 1 12 22 1 8 21 2 8 21 1 10 21 0 7 18 1 7 21 1 10 18 1 9 21 1 10 20 0 9 19 0 6 20 1 7 19 0 6 24 1 9 31 1 11 32 0 13 22 1 10 21 0 9 20 1 7 21 2 8 19 2 10 20 0 9 20 0 9 20 0 9 21 0 7 19 2 8 21 2 8 20 1 7 22 1 8 32 2 14 31 1 13 23 2 9 21 2 8 20 0 9 21 1 10 20 1 7 28 0 12 32 2 12 29 1 13 21 2 8 20 1 7 20 1 7 20 1 7 21 2 8 20 1 7 20 0 9 21 1 10 21 1 10 20 0 9 20 0 9 20 1 7 20 1 7 20 0 9 20 1 7 20 1 7 20 0 9 
21 2 8 21 2 8 20 1 7 20 0 9 21 2 8 20 0 9 20 1 7 20 1 7 20 0 9 20 0 9 20 0 9 20 0 9 20 1 7 20 1 7 21 2 8 20 1 7 20 1 7 20 0 9 18 1 9 20 1 7 20 1 7 21 1 10 20 0 9 20 1 7 21 1 10 20 0 9 20 0 9 20 1 7 20 0 9 21 2 8 20 0 9 20 0 9 20 0 9 20 0 9 21 1 10 20 0 9 20 0 9 20 0 9 21 1 10 20 0 9 20 0 9 20 0 9 23 0 10 31 1 11 32 0 11 23 2 11 20 0 9 20 0 9 20 1 7 20 1 7 24 1 11 32 2 14 24 1 11 21 1 10 20 1 7 20 1 7 20 0 9 22 1 10 32 2 12 32 0 13 22 1 8 21 1 10 20 1 7 20 0 9 21 1 10 20 0 9 20 1 7 21 1 10 20 0 9 20 1 7 19 0 8 20 1 7 22 1 10 31 1 11 31 1 11 23 2 11 20 0 9 21 2 8 20 1 7 20 0 9 28 0 12 31 1 11 28 0 12 20 1 7 20 0 9 20 1 7 20 1 7 20 1 7 21 1 10 20 0 9 21 2 8 21 2 8 21 2 8 20 1 7 21 2 8 21 1 10 21 2 8 21 1 10 20 0 9 20 1 7 
20 1 7 20 1 7 21 1 10 21 2 8 20 0 9 20 1 7 20 1 7 20 1 7 20 0 9 20 0 9 20 0 9 20 0 9 20 1 7 20 1 7 20 1 7 19 0 6 21 1 10 19 0 6 21 0 7 20 0 9 26 0 11 27 0 9 24 1 9 20 0 9 20 1 7 20 0 9 21 2 8 20 0 9 20 1 7 20 0 9 20 1 5 20 0 9 20 0 9 21 1 10 21 1 10 21 1 10 22 2 11 21 1 10 21 1 10 21 1 10 21 2 8 20 1 7 23 0 8 30 0 10 32 0 11 22 1 8 21 2 8 21 2 8 21 2 8 19 0 6 28 0 12 30 0 12 29 1 13 21 0 9 19 0 6 21 2 8 20 0 9 23 0 8 32 0 13 31 1 11 23 0 8 20 1 7 20 0 9 20 0 9 20 0 9 20 0 9 20 0 9 21 1 10 21 2 8 18 1 7 21 2 8 20 1 7 22 1 8 30 0 12 31 1 13 23 2 9 20 1 7 20 0 9 20 0 9 20 1 7 28 0 12 32 2 14 29 1 13 20 1 7 20 0 9 21 2 8 20 1 7 20 1 7 21 2 8 20 0 9 20 1 7 20 1 7 21 1 10 21 1 10 21 2 8 22 2 11 20 1 7 20 0 9 21 1 10 20 1 7 
20 1 7 20 1 7 21 1 10 21 2 8 20 0 9 20 1 7 20 1 7 21 2 8 21 2 8 21 2 8 20 1 7 21 2 8 21 1 10 20 0 9 20 0 9 20 0 9 21 1 10 20 1 7 21 2 8 22 2 11 28 2 13 32 0 11 30 0 10 21 1 10 20 0 9 20 0 9 20 0 9 20 1 7 20 0 11 20 1 7 21 2 8 20 1 7 20 0 9 19 0 8 20 0 9 21 1 10 20 0 9 20 0 9 20 0 9 20 0 9 20 0 9 20 0 9 24 1 11 32 2 14 32 0 13 22 1 10 20 0 9 20 0 9 20 1 7 20 1 7 30 0 12 32 0 13 28 0 12 19 2 10 21 2 8 21 0 7 20 1 7 24 1 9 34 2 15 32 2 14 23 0 10 21 2 8 20 0 9 20 1 7 20 0 9 20 0 9 20 0 9 18 1 9 21 2 8 20 1 7 21 2 8 20 1 7 22 1 10 32 2 12 32 2 12 22 1 10 20 0 9 21 2 8 21 2 8 20 0 9 29 1 13 30 0 12 29 1 13 21 2 8 20 0 9 19 0 6 19 0 6 20 1 7 21 2 8 20 0 9 20 1 7 20 1 7 20 0 9 20 0 9 20 1 7 21 1 10 21 2 8 20 0 9 20 0 9 21 2 8 
20 1 7 21 2 8 20 1 7 19 0 8 20 1 7 19 0 8 19 0 6 20 1 7 20 1 7 21 2 8 20 1 7 20 1 7 20 0 9 20 0 9 20 0 9 20 0 9 20 1 7 18 1 9 20 0 9 19 0 6 28 2 11 31 0 12 27 1 12 20 1 7 20 1 7 20 0 9 20 1 7 21 1 10 21 2 8 20 0 9 20 1 7 21 2 8 20 0 9 20 0 9 20 0 9 21 1 10 19 0 8 20 0 9 21 1 10 20 0 9 21 1 10 21 2 8 25 2 10 31 1 11 32 0 11 22 1 8 20 1 7 20 0 9 21 0 7 19 2 8 28 0 12 31 0 12 28 0 12 21 0 9 21 2 8 20 1 7 20 1 7 23 2 11 31 1 11 32 0 13 22 1 8 20 0 9 19 0 6 21 2 8 18 1 9 24 1 9 32 2 14 23 2 9 21 2 8 20 0 9 21 2 8 19 2 8 22 1 8 31 1 13 31 1 13 23 2 9 20 1 7 20 0 9 22 2 11 20 1 7 28 0 12 31 1 13 28 0 12 21 2 8 20 0 9 21 2 8 20 0 9 20 1 7 20 0 9 20 0 9 20 1 7 21 2 8 21 2 8 19 0 6 21 2 8 20 0 9 20 1 7 21 1 10 20 0 9 20 1 7 
20 1 7 20 1 7 20 1 7 20 0 9 20 1 7 21 1 10 20 1 7 20 1 7 21 2 8 21 2 8 19 0 6 20 1 7 21 1 10 20 0 9 20 0 9 20 0 9 21 0 9 20 1 7 20 1 7 20 0 9 28 0 12 31 1 11 29 2 11 21 1 10 20 1 5 19 0 6 20 1 7 22 3 9 20 1 7 20 1 7 20 0 9 19 0 6 20 0 9 21 1 10 20 0 9 21 1 10 20 0 9 20 0 9 21 1 10 20 0 9 20 0 9 20 0 9 23 0 10 31 1 11 33 1 12 22 1 10 20 0 9 20 0 9 21 2 8 18 1 7 29 1 13 31 1 13 29 1 13 18 1 9 21 0 7 21 2 8 20 0 9 24 1 11 31 1 11 32 0 11 22 1 8 21 0 9 20 0 9 20 0 9 21 0 9 27 0 11 31 1 13 30 0 12 19 2 8 20 1 7 20 1 7 20 1 7 22 1 10 31 1 11 31 1 11 22 1 10 20 0 9 20 1 7 20 1 7 20 0 9 28 0 12 31 1 13 28 0 12 21 1 10 20 0 9 20 1 7 20 0 9 19 0 6 21 2 8 20 0 9 20 0 9 20 0 9 20 0 9 20 0 9 21 2 8 21 2 8 20 0 9 20 1 7 20 1 7 21 1 10 
20 1 7 21 2 8 20 0 9 20 1 7 20 0 9 21 2 8 20 1 7 20 1 7 21 1 10 21 1 10 20 0 9 19 0 8 20 1 7 21 2 8 21 2 8 20 1 7 20 1 7 20 0 9 18 1 9 19 2 8 27 0 9 31 1 13 28 0 12 20 1 7 20 1 7 20 1 7 21 2 8 19 0 8 20 1 7 20 1 7 20 0 9 21 2 8 20 0 9 20 0 9 21 1 10 21 1 10 20 0 9 20 0 9 20 0 9 20 0 9 21 2 8 21 2 8 23 0 10 31 1 13 32 0 13 22 1 10 21 2 8 21 2 8 20 1 7 21 2 8 29 1 13 32 0 13 28 0 12 22 1 10 18 1 7 21 0 7 20 1 7 23 2 9 31 1 13 32 2 12 23 0 10 21 2 8 21 1 10 21 2 8 20 0 9 28 0 12 32 2 12 28 0 12 20 0 9 21 2 8 20 0 9 20 1 7 23 2 9 32 2 14 32 2 14 24 3 10 20 1 7 20 0 9 20 0 9 19 0 6 27 0 11 31 1 13 28 0 12 20 0 9 20 0 9 21 2 8 20 0 9 20 1 7 21 2 8 21 1 10 20 1 7 20 1 7 20 0 9 20 0 9 20 1 7 20 0 9 19 0 8 20 1 7 20 1 7 20 0 9 
20 1 7 20 0 9 20 1 7 20 0 9 21 1 10 20 1 7 20 0 9 20 1 7 20 1 7 21 1 10 20 1 7 21 2 8 20 0 9 20 1 7 20 0 9 20 1 7 20 1 7 20 1 7 20 0 9 19 0 8 28 0 12 33 0 11 28 0 14 20 0 9 20 0 9 20 0 9 20 1 7 20 0 9 19 0 8 20 1 7 20 0 9 20 0 9 20 0 9 20 1 7 20 1 7 20 0 9 21 1 10 20 0 9 21 1 10 21 2 8 20 1 7 21 2 8 22 1 8 31 1 11 31 1 13 22 1 10 20 0 9 20 0 9 20 1 7 20 1 7 28 0 12 31 1 13 29 1 13 20 1 7 20 1 7 20 0 9 20 0 9 22 1 10 31 1 13 32 2 14 23 0 8 20 1 7 20 1 7 21 2 8 20 1 7 27 0 11 31 1 13 28 0 12 20 1 7 20 1 7 20 1 7 20 0 9 23 2 11 30 0 12 31 1 13 22 1 10 20 0 9 20 0 9 21 1 10 20 0 9 28 0 12 33 0 13 28 0 12 20 0 9 21 2 8 21 0 7 20 0 9 21 2 8 18 1 7 20 0 9 20 0 9 20 0 9 19 0 6 20 1 7 19 0 6 20 0 9 22 1 10 18 1 9 20 0 9 21 0 9 
20 1 7 20 1 7 20 1 7 21 2 8 20 1 7 21 2 8 21 2 8 20 1 7 21 2 8 20 0 9 21 2 8 20 1 7 20 0 9 21 2 8 20 0 9 21 2 8 20 0 9 20 0 9 21 2 8 20 1 7 28 0 12 33 0 13 29 1 13 21 1 10 20 0 9 20 1 7 20 1 7 20 0 9 20 0 9 21 2 8 20 1 7 20 0 9 21 2 8 21 2 8 20 0 9 20 0 9 21 2 8 20 1 7 20 1 7 20 1 7 20 1 7 20 1 7 22 1 8 31 1 11 32 2 14 22 1 10 20 0 9 20 0 9 20 0 9 20 0 9 27 0 9 31 1 13 28 1 10 20 0 9 21 1 10 21 2 8 21 1 10 23 0 10 31 1 13 31 1 13 21 0 7 20 1 7 20 1 7 20 1 7 20 1 7 30 2 14 31 1 13 28 0 12 20 1 7 20 1 7 20 1 7 21 1 10 23 2 11 31 1 13 31 1 13 22 1 10 21 1 10 20 0 9 21 1 10 20 0 9 28 0 12 31 1 13 30 0 12 20 0 9 21 2 8 21 2 8 21 0 9 21 2 8 20 1 7 21 1 10 20 0 9 20 0 9 20 1 7 20 1 7 21 2 8 21 1 10 20 0 9 20 0 9 20 0 9 20 0 9 
20 0 9 21 2 8 20 0 9 21 2 8 20 1 7 20 0 9 21 2 8 20 0 9 20 1 7 20 0 9 19 0 6 20 1 7 20 0 9 21 2 8 20 0 9 21 2 8 21 1 10 20 0 9 20 0 9 19 0 6 29 1 13 32 0 11 28 0 12 20 0 9 20 0 9 21 2 8 20 0 9 21 2 8 20 1 7 20 0 9 20 1 7 21 1 10 20 1 7 20 1 7 20 0 9 20 0 9 20 1 7 20 1 7 21 1 10 20 0 9 20 0 9 20 0 9 22 1 10 31 1 13 32 2 12 22 1 8 20 1 7 20 1 7 20 1 7 20 1 7 28 0 12 31 1 13 28 0 12 21 2 8 20 1 7 21 1 10 20 1 7 22 1 8 31 1 11 31 1 11 21 0 9 20 0 9 21 1 10 20 0 9 20 1 7 28 0 12 30 0 12 28 0 12 20 1 7 20 1 7 20 1 7 21 1 10 22 1 10 31 1 13 32 2 14 22 1 10 21 1 10 20 0 9 20 0 9 21 1 10 28 0 12 31 1 13 30 0 12 20 0 9 19 0 6 21 2 8 21 0 9 20 1 7 19 0 6 21 1 10 20 0 9 21 1 10 21 2 8 20 1 7 20 1 7 21 1 10 18 1 9 21 1 10 20 0 9 20 0 9 
20 0 9 21 2 8 20 0 9 20 1 7 20 1 7 20 0 9 20 1 7 20 0 9 20 1 7 20 0 9 21 2 8 21 2 8 21 1 10 20 1 7 21 1 10 21 2 8 20 1 7 20 0 9 20 0 9 20 0 9 28 0 12 32 0 11 28 0 12 20 0 9 21 2 8 21 1 10 20 0 9 21 2 8 21 2 8 20 0 9 20 0 9 20 1 7 20 0 9 20 1 7 21 1 10 20 0 9 20 0 9 20 0 9 20 0 9 20 1 7 20 0 9 20 0 9 22 1 10 31 1 13 31 1 11 22 1 8 20 1 7 20 1 7 20 1 7 20 1 7 28 0 12 31 1 13 28 0 12 20 1 7 20 1 7 20 0 11 20 1 7 23 2 9 31 1 11 32 2 12 23 0 10 20 0 9 20 0 9 20 0 9 21 2 8 28 0 12 31 1 13 27 0 11 20 1 7 20 1 7 21 2 8 20 0 9 22 1 10 31 1 13 31 1 13 21 0 9 20 0 9 20 0 9 21 1 10 21 1 10 28 0 12 32 0 13 29 1 13 20 0 9 20 1 7 20 1 7 20 0 9 20 1 7 20 0 9 21 2 8 20 1 7 19 0 6 21 1 10 21 1 10 20 0 9 22 1 8 26 0 11 23 0 10 21 1 10 20 0 9 
20 1 7 20 1 7 21 2 8 21 2 8 21 2 8 21 2 8 20 1 7 21 2 8 21 1 10 21 2 8 21 1 10 20 0 9 20 1 7 20 0 9 20 1 7 20 0 9 21 1 10 20 0 9 20 1 7 20 0 9 28 0 12 32 0 13 28 0 12 21 2 8 20 1 7 20 0 9 20 0 9 20 1 7 22 3 9 22 2 11 20 0 9 21 2 8 21 1 10 21 2 8 20 1 7 20 1 7 20 1 7 20 1 7 20 0 9 20 1 7 20 0 9 20 0 9 22 1 10 31 1 13 31 1 11 22 1 8 20 1 7 20 1 7 20 0 9 20 0 9 28 1 10 31 1 11 29 2 11 20 0 9 19 0 8 21 2 6 20 1 7 24 1 9 31 1 11 31 1 11 23 2 11 20 0 9 20 0 9 20 0 9 21 2 8 28 0 12 31 1 13 28 0 12 21 2 8 22 3 9 19 0 6 21 1 10 21 0 9 31 1 13 30 0 12 22 1 10 20 0 9 21 1 10 21 1 10 21 1 10 28 0 12 31 0 12 29 1 13 21 1 10 21 2 8 19 0 6 20 0 9 20 1 7 20 0 9 20 1 7 21 2 8 21 2 8 20 0 9 20 0 9 20 0 9 27 1 10 34 2 15 29 1 13 20 0 9 20 0 9 
20 1 7 20 0 9 20 1 7 21 1 10 20 0 9 20 1 7 20 0 9 20 1 7 20 0 9 21 2 8 21 1 10 20 0 9 20 1 7 20 0 9 20 1 7 21 1 10 20 0 9 20 0 9 21 2 8 19 0 8 29 2 11 31 1 13 28 0 12 19 0 8 20 1 7 21 1 10 21 2 8 20 0 9 20 0 9 21 2 8 20 0 9 21 2 8 20 1 7 20 1 7 20 0 9 21 1 10 20 1 7 21 2 8 20 0 9 20 0 9 20 0 9 20 0 9 22 1 10 31 1 13 32 2 12 22 1 8 20 1 7 20 1 7 20 0 9 20 0 9 28 1 10 31 1 11 28 1 10 21 1 10 20 0 9 21 2 8 20 1 7 22 1 8 31 1 11 30 0 10 21 0 9 21 1 10 20 0 9 21 1 10 20 1 7 28 0 12 30 0 12 28 0 12 20 1 7 20 1 7 21 2 8 20 0 9 23 2 11 31 1 13 32 2 14 22 1 10 21 1 10 20 0 9 20 0 9 20 0 9 28 0 12 31 1 13 28 0 12 20 0 9 20 1 7 20 1 7 21 1 10 18 0 5 21 2 8 21 1 10 20 0 9 20 0 9 20 1 7 21 2 8 21 2 8 28 0 12 33 1 14 28 0 12 20 0 9 20 0 9 
21 1 10 20 0 9 21 1 10 20 0 9 20 0 9 20 0 9 20 0 9 20 0 9 20 0 9 19 0 6 20 0 9 20 0 9 20 1 7 20 0 9 21 2 8 20 0 9 21 1 10 20 0 9 20 0 9 19 0 8 28 1 10 31 1 11 28 0 12 20 0 9 20 0 9 21 2 8 20 1 7 22 2 11 20 0 9 20 1 7 20 1 7 21 1 10 20 0 9 20 0 9 21 1 10 20 0 9 20 1 7 20 1 7 20 0 9 21 1 10 20 1 7 20 1 7 22 1 8 31 1 11 32 2 14 22 1 10 20 0 9 20 0 9 19 0 6 21 2 8 28 0 12 31 1 11 28 0 12 20 1 7 20 1 7 19 0 8 20 0 9 22 1 10 31 1 13 31 1 13 23 0 8 20 1 7 20 1 7 21 2 8 20 1 7 29 1 13 31 1 13 27 0 11 20 1 7 20 1 7 21 2 8 20 0 9 23 2 11 31 1 13 31 1 13 21 0 9 21 1 10 20 0 9 21 1 10 21 1 10 29 1 13 31 1 13 28 0 12 20 0 9 21 2 8 20 1 7 20 0 9 20 1 7 20 1 7 21 1 10 20 0 9 20 0 9 21 2 8 20 1 7 20 1 7 28 0 12 32 0 13 29 1 13 19 0 8 21 1 10 
20 1 7 21 2 8 20 1 7 21 2 8 20 1 7 21 2 8 20 1 7 20 1 7 20 0 9 21 2 8 21 1 10 21 1 10 21 2 8 19 0 8 21 2 8 21 1 10 20 0 9 21 1 12 21 2 8 20 0 9 28 0 12 31 1 13 28 1 10 20 1 7 20 0 9 21 2 8 21 1 10 20 0 9 20 0 9 20 0 9 21 2 8 21 1 10 20 0 9 20 1 7 20 1 7 21 2 8 20 1 7 21 1 10 20 0 9 21 2 8 20 1 7 21 2 8 22 1 8 31 1 11 31 1 13 22 1 10 20 0 9 20 0 9 20 0 9 20 0 9 28 1 10 32 2 12 29 2 11 20 0 9 20 0 9 20 1 7 20 0 9 24 1 11 30 0 12 31 1 13 23 2 9 21 2 8 20 1 7 21 2 8 20 1 7 27 0 11 31 1 13 28 0 12 21 2 8 21 2 8 19 0 6 20 0 9 22 1 10 31 1 13 31 1 13 22 1 10 20 0 9 20 0 9 20 0 9 21 1 10 28 0 12 31 1 13 29 1 13 19 0 8 19 0 6 20 1 7 20 0 9 20 1 7 22 1 8 22 2 11 20 0 9 20 0 9 20 1 7 20 1 7 20 1 7 28 0 12 29 1 13 28 0 12 20 0 9 20 0 9 
21 2 8 19 0 6 21 2 8 20 1 7 20 0 9 21 1 10 20 0 9 20 0 9 20 0 9 21 1 10 20 1 7 20 1 7 21 2 8 21 2 8 21 1 10 20 0 9 20 1 7 20 0 9 21 2 8 20 1 7 29 1 13 30 0 12 28 1 10 20 0 9 20 0 9 20 0 9 19 0 8 20 0 9 20 0 9 20 0 9 20 0 9 20 0 9 21 1 10 21 2 8 20 0 9 20 1 7 19 0 6 20 0 9 20 1 7 21 1 10 21 2 8 21 2 8 23 2 11 31 1 13 31 1 13 22 1 10 19 0 6 20 1 7 20 0 9 20 0 9 30 0 12 31 1 11 29 1 13 20 0 9 20 0 9 20 0 9 20 0 9 22 1 10 31 1 13 31 1 13 23 2 11 20 0 9 21 1 10 20 0 9 21 2 8 28 1 10 32 2 14 27 0 11 20 0 9 20 0 9 21 2 8 20 1 7 23 2 11 31 1 13 32 0 13 23 2 11 20 0 9 20 0 9 21 1 10 20 0 9 28 1 10 32 2 12 29 1 13 21 2 8 20 0 9 20 1 7 20 0 9 20 0 9 20 0 9 20 0 9 21 1 10 21 1 10 20 1 7 19 0 6 20 1 7 28 1 10 31 1 11 29 1 13 20 1 7 20 0 9 
19 0 8 20 0 9 22 2 11 20 0 9 20 1 7 21 2 8 20 1 7 20 1 7 20 0 9 20 0 9 20 1 7 20 1 7 20 1 7 21 2 8 21 1 10 20 0 9 20 0 9 19 0 6 22 1 10 20 1 7 28 0 12 31 1 11 27 1 12 20 1 7 20 1 7 20 1 7 21 2 8 20 1 7 20 1 7 20 1 7 19 0 6 20 1 7 21 2 8 20 0 9 21 2 8 20 0 9 21 1 10 21 2 8 20 0 9 20 1 7 20 1 7 20 1 7 23 2 11 31 1 13 31 1 13 22 1 10 20 1 7 20 1 7 20 1 7 21 2 8 28 0 12 31 1 11 28 0 12 21 1 10 20 0 9 20 1 7 21 1 10 22 1 10 32 2 14 31 1 13 22 1 10 20 0 9 20 0 9 20 0 9 21 2 8 28 0 12 30 0 10 28 0 12 20 0 9 20 0 9 21 2 8 19 0 6 22 1 10 31 1 13 32 0 13 23 2 11 21 1 10 21 1 10 20 0 9 21 1 10 29 2 11 31 1 11 30 2 14 20 0 9 21 2 8 21 2 8 20 0 9 20 0 9 20 1 7 19 0 6 20 1 7 19 0 6 20 0 9 20 0 9 20 0 9 28 0 12 31 1 13 27 0 9 21 2 8 20 0 9 
20 1 7 20 1 7 21 2 8 20 1 7 20 0 9 20 0 9 20 0 9 20 0 9 21 1 10 20 0 9 20 1 7 20 1 7 20 1 7 21 2 8 21 1 10 21 1 10 20 0 9 21 2 8 20 1 7 19 0 8 28 1 10 31 1 13 28 0 12 20 1 7 20 1 7 21 2 8 22 3 9 20 1 7 21 2 8 20 1 7 20 1 7 20 1 7 21 2 8 20 0 9 20 1 7 20 0 9 20 0 9 20 1 7 21 1 10 20 1 7 21 2 8 19 0 6 22 1 10 30 0 12 31 1 13 22 1 10 21 2 8 19 0 6 20 0 9 20 0 9 30 0 12 31 1 11 27 0 11 20 0 9 20 1 7 20 0 9 21 1 10 22 1 10 32 2 14 31 1 13 22 1 10 20 0 9 20 0 9 20 0 9 20 1 7 29 2 11 32 2 14 29 2 11 20 0 9 20 1 7 20 0 9 20 1 7 22 1 10 32 2 14 33 1 14 22 1 10 20 0 9 20 0 9 21 1 10 20 0 9 28 0 12 31 1 11 28 0 12 21 2 8 20 0 9 21 2 8 20 0 9 21 2 8 20 0 9 20 0 9 20 0 9 20 0 9 19 0 6 20 1 7 21 2 8 28 1 10 31 1 11 27 0 11 21 1 10 20 1 7 
20 0 9 20 0 9 20 0 9 20 0 9 21 2 8 20 1 7 20 1 7 21 2 8 21 1 10 21 1 10 21 2 8 19 0 6 20 1 7 21 2 8 20 0 9 20 0 9 20 0 9 21 2 8 20 0 9 19 0 8 28 1 10 31 1 11 28 0 12 21 2 8 20 0 9 21 1 10 20 0 9 21 1 10 20 0 9 20 0 9 20 0 9 20 0 9 20 0 9 20 1 7 20 0 9 20 1 7 20 1 7 20 0 9 20 1 7 20 0 9 20 1 7 20 1 7 22 1 10 30 0 12 31 1 13 22 1 10 21 2 8 20 1 7 20 0 9 20 1 7 26 0 11 31 1 13 28 1 10 20 1 7 20 0 9 20 0 11 20 0 9 22 1 10 30 0 12 31 1 13 22 1 10 20 0 9 20 0 9 20 0 9 20 1 7 27 0 11 31 1 11 29 1 13 21 2 6 20 0 9 21 2 8 21 2 8 22 1 10 31 1 13 32 0 13 22 1 10 20 0 9 20 0 9 20 0 9 20 0 9 29 2 11 31 1 11 28 0 12 20 1 7 21 1 10 20 1 7 21 1 10 20 0 9 22 3 9 20 1 7 21 2 8 20 1 7 20 0 9 20 0 9 20 0 9 29 1 13 32 2 14 28 1 10 19 0 6 20 0 9 
20 0 9 20 0 9 20 0 9 21 1 10 21 2 8 20 1 7 20 1 7 20 1 7 21 2 8 20 1 7 20 0 9 20 0 9 20 0 9 20 0 9 20 1 7 20 1 7 21 2 8 20 0 9 21 0 9 20 1 7 28 0 12 31 1 11 27 1 10 20 0 9 20 0 9 21 1 10 20 0 9 20 0 9 21 1 10 20 0 9 20 0 9 20 0 9 20 0 9 20 1 7 20 0 9 20 1 7 21 2 8 20 0 9 20 1 7 20 0 9 20 1 7 21 2 8 23 2 11 31 1 13 31 1 13 22 1 10 20 1 7 20 1 7 19 0 6 20 0 9 32 0 13 31 1 13 29 1 13 20 0 9 21 2 8 21 1 10 20 0 9 22 1 10 31 1 13 31 1 13 22 1 10 19 0 8 20 0 9 20 0 9 20 1 7 29 2 11 32 2 14 30 3 10 20 0 9 21 2 8 20 0 9 20 1 7 22 1 10 31 1 13 32 0 13 23 2 11 20 0 9 20 0 9 20 0 9 20 0 9 28 1 10 31 1 11 28 0 12 19 0 6 20 0 9 21 2 8 20 0 9 20 0 9 20 0 9 21 1 10 21 1 10 20 0 9 21 2 8 20 1 7 19 0 6 28 1 10 31 1 11 28 0 12 20 0 9 20 1 7 
20 1 7 21 2 8 22 3 9 20 1 7 21 1 10 20 0 9 21 1 10 20 0 9 21 2 8 20 1 7 20 0 9 21 1 10 20 0 9 20 0 9 20 1 7 21 2 8 20 1 7 20 0 9 19 0 6 21 2 8 28 0 12 31 1 13 29 2 11 20 0 9 20 1 7 20 1 7 20 1 7 21 2 8 21 2 8 20 1 7 20 1 7 20 1 7 21 2 8 19 0 8 20 1 7 20 0 9 20 0 9 21 2 8 21 1 10 20 1 7 19 0 6 21 2 8 22 1 10 31 1 13 32 2 14 22 1 10 20 1 7 21 2 8 19 0 8 20 1 7 28 0 12 31 1 13 28 1 10 21 1 10 21 1 10 20 1 7 20 0 9 22 1 10 32 2 14 31 1 13 23 2 11 20 0 9 20 0 9 20 0 9 21 2 8 29 1 13 31 1 11 28 0 12 20 1 7 20 0 9 21 2 8 22 3 9 23 2 11 31 1 13 34 2 15 22 1 10 20 0 9 21 1 10 20 0 9 20 0 9 28 0 12 31 1 11 29 1 13 20 1 7 19 0 8 19 0 6 20 0 9 19 0 6 21 2 8 21 2 8 20 1 7 20 1 7 20 0 9 20 0 9 20 0 9 29 1 13 31 1 13 28 1 10 21 2 8 20 0 9 
20 0 9 20 0 9 20 0 9 20 0 9 20 1 7 21 2 8 21 2 8 20 1 7 21 2 8 21 2 8 22 2 11 19 0 8 21 1 10 20 0 9 20 1 7 20 1 7 20 0 9 19 2 8 21 1 10 21 2 8 28 0 12 31 1 11 28 0 12 21 2 8 19 0 6 21 2 8 21 2 8 20 1 7 21 2 8 20 1 7 20 1 7 21 2 8 20 1 7 20 0 9 20 1 7 21 1 10 21 1 10 20 1 7 22 2 11 20 1 7 20 1 7 20 1 7 22 1 10 31 1 13 31 1 13 21 0 9 21 2 8 21 2 8 20 0 9 20 1 7 30 0 10 31 1 11 28 1 10 20 0 9 20 0 9 20 0 9 21 1 10 23 2 11 30 0 12 30 0 12 22 1 10 20 0 9 21 1 10 21 1 10 19 0 6 28 1 10 31 1 13 28 0 12 20 0 9 20 1 7 21 1 10 21 2 8 23 2 11 32 0 13 31 1 13 24 1 11 20 0 9 21 1 10 21 1 10 21 1 10 28 1 10 31 1 11 28 0 12 20 0 9 21 2 8 20 1 7 20 0 9 20 0 9 20 0 9 20 0 9 21 1 10 20 0 9 20 1 7 20 1 7 21 2 8 29 2 11 32 2 12 28 0 12 21 1 10 20 1 7 
21 2 8 19 0 6 20 1 7 20 1 7 21 1 10 20 0 9 19 0 8 19 0 8 20 1 7 19 0 6 20 0 9 21 1 10 20 0 9 21 1 10 20 1 7 21 2 8 20 0 9 21 2 8 20 1 7 20 0 9 28 1 10 31 1 13 28 2 13 20 1 7 20 0 9 20 0 9 21 1 10 21 1 10 20 0 9 21 1 10 20 0 9 21 1 10 20 0 9 20 1 7 20 0 9 21 2 8 20 1 7 21 1 10 20 1 7 20 0 9 20 1 7 19 0 6 21 0 9 31 1 13 32 2 14 22 1 10 21 2 8 20 1 7 21 1 10 20 0 9 28 0 12 32 2 14 27 0 9 20 0 11 21 1 10 19 0 6 20 0 9 22 1 10 32 2 14 31 1 13 23 2 11 20 0 9 20 0 9 20 0 9 20 1 7 28 1 10 31 1 13 27 0 11 20 0 9 20 0 9 20 1 7 20 1 7 22 1 10 33 1 14 31 1 13 23 0 10 21 1 10 20 0 9 21 1 10 20 0 9 28 1 10 31 1 11 29 1 13 21 2 8 20 0 9 20 1 7 20 0 9 20 0 9 20 1 7 19 0 6 18 0 5 20 1 7 20 0 9 20 0 9 20 0 9 27 0 11 31 1 13 29 2 11 20 0 9 20 1 7 
20 0 9 19 0 6 20 1 7 20 0 9 22 2 11 20 1 7 21 2 8 20 0 9 20 0 9 21 2 8 20 0 9 20 1 7 20 1 7 20 0 9 20 1 7 20 0 9 20 1 7 20 1 7 21 1 10 21 1 10 27 0 11 30 0 12 27 0 11 20 0 9 20 0 9 20 0 9 21 1 10 20 0 9 21 1 10 20 0 9 21 1 10 20 0 9 21 2 8 20 0 9 20 0 9 20 0 11 20 0 9 18 1 9 21 2 8 21 2 8 20 0 9 20 1 7 22 1 8 31 1 11 31 1 13 22 1 10 20 0 9 20 1 7 20 0 9 20 1 7 31 1 13 32 2 12 28 1 10 20 0 9 21 2 8 20 0 9 21 2 8 22 1 10 31 1 13 31 1 11 22 1 8 21 1 10 19 0 8 20 1 7 21 1 10 27 0 11 31 1 13 28 0 12 20 0 9 21 1 10 20 0 9 20 0 9 23 0 8 31 1 11 31 1 13 22 1 10 18 1 9 20 0 9 20 1 7 20 1 7 27 0 11 30 0 12 28 1 10 20 1 7 20 1 7 20 1 7 20 0 9 20 0 9 20 0 9 20 0 9 20 0 9 21 1 10 20 0 9 20 0 9 20 0 9 28 0 12 31 1 13 29 2 11 20 0 9 20 1 7 
20 0 9 20 1 7 20 0 9 20 0 9 21 1 10 21 2 8 21 2 8 20 0 9 20 0 9 20 1 7 20 0 9 22 3 9 22 3 9 21 1 10 20 1 7 20 0 9 20 1 7 20 0 9 21 2 8 20 0 9 28 0 12 31 1 13 28 0 12 20 0 9 21 1 10 20 0 9 22 2 11 20 0 9 21 1 10 20 0 9 20 0 9 20 0 9 20 0 9 20 1 7 20 1 7 21 2 8 21 2 8 20 0 9 21 2 8 20 0 9 20 0 9 21 2 8 21 0 7 30 0 10 31 1 13 22 1 10 20 0 9 21 2 8 20 1 7 20 0 9 30 0 10 31 1 13 28 0 12 21 2 8 20 0 9 20 1 7 20 0 9 23 2 9 31 1 11 31 1 13 22 1 10 20 1 7 21 2 8 20 0 9 20 1 7 28 1 10 31 1 11 27 0 9 20 1 7 20 1 7 20 1 7 21 2 8 23 0 8 32 2 12 32 2 12 22 1 10 18 1 9 20 1 7 20 1 7 20 1 7 28 0 12 31 1 13 28 1 10 21 2 8 21 2 8 20 1 7 20 0 9 20 0 9 20 0 9 20 0 9 18 1 9 18 1 9 18 1 9 19 2 10 20 0 9 29 1 13 30 0 10 28 1 10 20 0 9 20 0 9 
20 1 7 20 1 7 20 1 7 20 0 9 19 0 6 21 2 8 21 2 8 20 0 9 20 0 9 20 1 7 20 0 9 21 2 8 21 2 8 21 1 10 20 1 7 20 0 9 20 0 9 20 1 7 20 0 9 21 2 8 28 0 12 30 0 12 29 1 13 19 0 8 20 0 9 20 0 9 20 0 9 19 0 8 20 0 9 20 0 9 20 0 9 21 1 10 18 1 9 20 0 9 20 1 7 18 1 9 21 1 10 20 1 7 21 1 10 20 1 5 20 0 9 20 1 7 22 1 8 32 2 12 31 1 13 23 2 11 20 0 9 20 1 7 20 1 7 20 0 9 31 1 11 31 1 13 29 1 13 21 2 8 20 0 9 21 2 8 20 1 7 22 1 10 31 1 13 31 1 11 22 1 8 20 0 9 20 0 9 21 2 8 20 0 9 28 0 12 31 1 13 28 0 12 20 0 9 20 0 9 20 0 9 20 0 9 24 1 9 30 0 12 32 2 14 22 1 10 18 1 9 20 0 9 20 0 9 20 1 7 28 1 10 31 1 11 28 0 12 20 0 9 20 0 9 21 1 10 21 2 8 21 2 8 21 1 10 20 0 9 20 0 9 20 0 9 21 1 10 20 0 9 20 0 9 28 0 12 31 1 11 28 0 12 21 2 8 20 0 9 
20 0 9 20 0 9 20 0 9 20 0 9 23 3 12 20 1 7 21 1 10 20 0 9 20 0 9 20 1 7 19 0 8 20 1 7 20 1 7 20 0 9 19 0 6 20 0 9 20 1 7 20 0 9 22 3 7 21 1 10 29 2 11 31 1 13 28 0 12 20 0 9 20 0 9 20 0 9 20 0 9 21 1 10 20 0 9 20 0 9 21 1 10 20 0 9 18 1 7 20 1 7 20 0 9 18 1 9 20 0 9 20 1 7 19 2 8 20 1 7 20 0 9 20 1 7 22 1 8 31 1 11 31 1 13 22 1 10 20 0 9 20 1 7 21 2 8 20 0 9 31 1 11 31 1 13 28 0 12 19 0 6 20 0 9 21 2 8 20 1 7 22 1 10 31 1 13 31 1 11 22 1 8 20 0 9 20 0 9 20 1 7 20 1 7 28 1 10 31 1 11 28 1 10 20 1 7 21 2 8 20 1 7 20 1 7 22 1 8 31 1 11 31 1 13 22 1 10 20 0 9 20 0 9 20 1 7 21 2 8 29 2 11 31 1 11 28 0 12 20 0 9 20 0 9 21 1 10 20 1 7 20 1 7 20 0 9 21 1 10 20 0 9 21 1 10 20 0 9 20 0 9 21 1 10 28 0 12 31 1 13 28 0 12 20 1 7 20 1 7 
20 1 7 20 1 7 20 0 9 20 1 7 19 0 6 21 2 8 20 1 7 20 1 7 20 0 9 20 1 7 21 1 10 20 1 7 20 1 7 21 1 10 21 2 8 20 0 9 20 1 7 20 1 7 20 0 9 20 1 7 28 0 12 31 1 11 28 0 12 20 0 9 20 0 9 20 0 9 20 0 9 20 0 9 21 1 10 21 1 10 20 0 9 20 0 9 20 0 9 21 0 9 21 0 9 20 1 7 19 2 8 19 2 8 21 2 8 18 1 9 20 0 9 21 2 8 22 1 8 31 1 11 32 2 14 22 1 10 20 0 9 20 1 7 21 1 10 20 1 7 30 0 12 30 0 10 29 2 11 20 0 9 20 1 7 20 0 9 20 0 9 22 1 8 31 1 11 31 1 13 21 0 9 20 1 7 20 1 7 20 0 9 20 0 9 29 1 13 32 2 14 27 0 11 20 0 9 20 0 9 20 0 9 21 1 10 22 1 8 31 1 11 31 1 13 22 1 10 20 0 9 19 0 8 20 1 7 20 1 7 27 0 11 31 1 13 29 2 11 20 1 7 20 1 7 21 2 8 20 0 9 20 0 9 20 0 9 20 0 9 20 0 9 19 2 10 17 0 8 19 2 10 20 0 9 29 1 13 31 1 13 28 1 10 20 0 9 21 2 8 
20 1 7 20 0 9 19 0 8 20 0 9 19 0 6 20 0 9 20 0 9 20 0 9 20 0 9 20 1 7 20 0 9 20 1 7 21 2 8 20 0 9 21 2 8 21 1 10 21 2 8 19 0 6 21 1 10 20 0 9 28 1 8 31 1 13 29 2 11 20 0 9 21 1 10 20 0 9 20 0 9 20 0 9 20 0 9 20 0 9 20 0 9 20 0 9 20 0 9 21 0 9 20 0 9 20 1 7 20 0 9 20 0 9 19 0 8 22 3 9 20 0 9 20 1 7 22 1 8 31 1 11 31 1 13 22 1 10 20 0 9 20 1 7 20 0 9 20 1 7 29 0 11 31 1 11 28 1 10 21 1 10 21 2 8 20 0 9 20 0 9 22 1 8 30 0 10 31 1 13 22 1 10 19 0 6 21 2 8 21 1 10 19 0 6 29 2 11 31 1 11 29 2 11 20 1 7 20 1 7 20 1 7 21 2 8 23 2 9 31 1 13 31 1 13 22 1 10 21 1 10 20 0 9 20 0 9 21 2 8 28 0 12 30 0 12 28 1 10 20 1 7 20 1 7 20 1 7 20 0 9 20 0 9 20 0 9 20 0 9 20 0 9 20 0 9 20 0 9 22 2 11 20 0 9 28 0 12 31 1 11 29 2 11 20 0 9 21 1 10 
21 2 8 21 1 10 20 0 9 20 1 7 20 1 7 21 2 8 20 0 9 22 3 9 20 0 9 19 0 6 20 0 9 20 1 7 20 1 7 20 0 9 22 3 9 20 0 9 20 1 5 20 0 9 21 2 8 20 0 9 27 0 11 31 1 11 28 0 12 20 0 9 19 0 8 20 0 9 19 0 8 20 0 9 20 0 9 20 0 9 20 0 9 20 0 9 20 1 7 17 0 6 21 1 10 27 0 11 30 2 14 23 0 12 21 2 8 20 1 5 20 0 9 20 1 7 22 1 8 30 0 10 31 1 13 22 1 10 20 0 9 20 1 7 21 1 10 21 2 8 30 0 12 31 1 11 28 1 10 20 0 9 20 1 7 22 2 11 20 1 7 22 1 10 31 1 13 32 2 12 22 1 8 20 0 9 20 0 9 20 1 7 20 0 9 28 0 12 31 1 13 28 0 12 20 0 9 19 0 8 21 1 10 20 0 9 22 1 8 31 1 11 31 1 11 22 1 10 20 0 9 20 1 7 20 1 7 21 2 8 28 1 10 31 1 11 29 1 13 20 0 9 20 0 9 20 0 9 20 1 7 21 2 8 20 0 9 20 0 9 21 1 10 20 0 9 21 1 10 20 0 9 20 0 9 28 0 12 31 1 11 28 1 10 20 0 9 20 0 9 
21 2 8 20 0 9 20 0 9 21 2 8 20 1 7 20 0 9 20 0 9 21 2 8 20 0 9 20 1 7 20 0 9 20 1 7 20 1 7 20 0 9 21 2 8 20 0 9 19 0 6 19 0 6 20 0 9 21 1 10 28 0 12 31 1 13 28 0 12 20 0 9 20 0 9 21 1 10 21 1 10 21 1 10 21 1 10 20 0 9 21 1 10 21 1 10 20 1 7 20 0 9 20 0 9 27 1 12 32 0 11 28 1 10 18 1 9 20 1 7 20 0 9 20 1 7 22 1 8 30 0 10 31 1 13 21 0 9 20 0 9 20 1 7 20 1 7 20 0 9 31 1 11 31 1 13 26 0 10 20 1 7 20 0 9 20 1 7 21 1 10 23 2 9 31 1 11 31 1 13 22 1 10 20 1 7 21 2 8 20 0 9 20 1 7 28 1 10 30 0 10 28 1 10 19 0 6 20 1 7 19 0 6 20 1 7 23 2 9 30 0 10 31 1 13 22 1 10 20 0 9 20 0 9 20 1 7 21 2 8 29 2 11 30 0 10 28 0 12 20 0 9 20 0 9 21 1 10 20 1 7 21 2 8 20 0 9 20 0 9 20 0 9 20 0 9 20 0 9 20 0 9 21 1 10 29 1 13 31 1 13 28 0 12 20 1 7 20 1 7 
20 1 7 20 0 9 20 0 9 21 1 10 20 1 7 21 2 8 21 2 8 20 0 9 20 1 7 20 1 7 22 1 8 20 1 7 20 1 7 20 0 9 20 1 7 22 1 8 20 0 9 20 1 7 20 0 9 20 0 9 28 0 12 31 1 13 27 1 10 17 0 8 21 1 10 20 0 9 20 0 9 20 0 9 21 1 10 20 0 9 20 0 9 20 0 9 21 2 8 20 1 7 20 0 9 28 0 12 32 0 11 29 2 11 20 0 9 20 0 9 21 2 8 20 0 9 23 0 8 30 0 12 32 0 13 21 0 7 20 0 9 18 1 7 20 1 7 20 0 9 30 0 12 30 0 12 27 0 11 21 1 10 20 0 9 20 1 7 20 1 7 21 0 9 31 1 11 31 1 11 22 1 10 20 0 9 20 1 7 20 0 9 21 2 8 26 0 11 31 1 13 28 1 10 20 0 9 21 1 10 21 2 8 20 0 9 23 2 11 31 1 11 32 0 13 23 2 9 20 0 9 21 2 8 20 0 9 20 1 7 28 0 12 31 1 13 28 1 10 20 0 9 20 0 9 18 1 7 20 0 9 21 1 10 19 0 8 20 0 9 20 1 7 20 1 7 21 2 6 21 2 8 20 1 7 27 0 11 32 2 14 28 0 12 20 0 9 20 0 9 
21 2 8 20 0 9 20 0 9 20 0 9 20 1 7 20 1 7 20 1 7 21 1 10 20 0 9 17 2 7 21 2 8 20 1 7 21 1 10 20 0 9 21 2 8 20 1 7 21 1 10 20 0 9 20 1 7 20 0 9 28 0 12 31 1 11 28 0 12 20 0 9 20 0 9 21 1 10 20 0 9 20 0 9 20 0 9 20 0 9 18 1 9 20 0 9 20 0 9 21 1 10 20 1 7 28 1 10 32 0 13 28 0 12 20 1 7 21 2 8 21 2 8 20 0 9 22 1 8 31 1 13 32 2 14 22 1 8 20 0 9 20 1 7 20 0 9 20 1 7 31 1 13 31 1 13 28 0 12 20 0 9 20 1 7 20 0 9 21 2 8 21 0 9 31 1 11 31 1 11 22 1 10 21 1 10 20 1 7 20 0 9 20 0 9 28 0 12 31 1 11 28 1 10 20 0 9 20 0 9 17 0 6 20 0 9 21 0 7 32 2 14 31 1 11 22 1 10 19 0 6 20 0 9 20 1 7 20 0 9 29 1 13 31 1 13 29 1 13 20 0 9 20 0 9 20 0 9 20 0 9 21 1 10 20 0 9 20 0 9 20 0 9 20 0 9 20 0 9 21 2 8 20 1 7 28 1 10 31 1 13 28 0 12 20 0 9 20 0 9 
21 2 8 20 0 9 20 0 9 20 0 9 20 1 7 20 1 7 21 2 8 20 0 9 20 0 9 21 0 9 21 2 8 18 1 7 20 0 9 20 0 9 21 1 10 20 1 7 20 0 9 20 0 9 20 1 7 18 1 9 28 0 12 31 1 11 30 0 12 20 0 9 20 0 9 20 0 9 20 0 9 20 0 9 18 1 9 20 0 9 20 0 9 20 0 9 20 1 7 19 0 6 19 0 6 27 0 9 32 0 13 28 0 12 21 1 10 20 0 9 20 1 7 20 0 9 22 1 8 31 1 13 31 1 13 22 1 8 20 0 9 20 1 7 20 0 9 20 1 7 28 0 12 31 1 13 27 0 11 20 0 9 20 1 7 21 1 10 20 1 7 24 3 10 32 2 12 31 1 11 22 1 8 19 0 6 20 1 7 21 2 8 20 1 7 28 0 12 31 1 13 28 0 12 21 1 10 20 1 7 18 1 7 20 0 9 22 1 8 31 1 13 31 1 11 23 2 11 20 1 7 20 0 9 20 1 7 20 0 9 27 0 11 31 1 11 28 0 12 20 0 9 20 0 9 20 0 9 19 0 6 20 0 9 20 0 9 20 0 9 20 1 7 20 1 7 21 2 8 20 1 7 20 0 9 28 0 12 31 1 13 28 0 12 20 0 9 20 0 9 
21 2 8 20 0 9 20 0 9 20 0 9 20 1 7 21 2 8 20 1 7 21 1 10 21 1 10 21 1 10 21 0 7 21 1 10 22 1 10 30 0 12 31 1 13 21 1 10 20 0 9 18 1 7 20 0 9 19 2 10 28 0 12 31 1 13 27 0 9 20 0 9 20 0 9 20 0 9 20 0 9 20 0 9 20 0 9 21 1 10 18 1 9 20 0 9 20 1 7 20 0 9 20 0 9 28 0 12 31 1 11 29 2 11 20 1 7 20 0 9 19 0 6 20 0 9 23 2 9 31 1 13 32 2 14 22 1 8 20 0 9 20 1 7 20 1 7 20 0 9 28 0 12 31 1 13 28 0 12 20 0 9 20 0 9 20 1 7 20 0 9 22 1 10 30 0 12 32 2 14 22 1 10 20 0 9 20 0 9 19 0 8 20 0 9 27 1 12 31 1 13 28 0 12 20 0 9 20 0 9 21 1 10 21 1 10 23 2 9 31 1 13 31 1 11 22 1 10 20 1 7 20 0 9 20 1 7 18 1 9 27 0 11 31 1 13 28 0 12 21 1 10 20 0 9 19 2 10 20 0 9 20 0 9 20 1 7 20 1 7 20 1 7 21 2 8 20 0 9 19 0 8 20 0 9 28 1 10 31 1 13 28 0 12 21 1 10 20 0 9 
