P3
100 50
255
61 65 68 61 65 68 62 65 70 55 43 53 45 5 31 48 5 32 46 6 32 49 6 34 46 6 33 49 6 33 45 7 32 47 7 34 49 4 35 62 3 51 72 1 57 72 1 59 73 0 56 73 0 58 69 0 57 70 1 56 71 0 58 73 0 58 72 1 57 67 0 54 58 1 46 58 1 46 68 1 55 70 1 56 71 0 56 69 0 55 71 0 58 71 0 58 71 0 58 72 2 56 72 1 57 71 0 56 62 0 49 57 0 45 59 0 48 71 0 58 72 1 59 71 0 58 71 0 56 72 1 57 71 0 56 71 0 56 71 0 58 72 1 59 69 0 55 57 0 45 57 0 45 70 1 56 72 1 57 73 0 56 71 0 56 71 0 56 71 0 56 72 1 57 74 1 57 72 1 59 71 0 56 63 1 50 57 1 46 61 2 50 71 0 56 71 0 56 71 0 56 72 1 57 72 1 57 71 0 56 72 1 57 71 0 56 71 0 58 69 0 57 58 1 46 58 1 46 67 0 53 71 0 56 72 1 57 74 1 57 73 0 58 72 1 59 71 0 58 72 2 56 71 2 57 71 0 58 61 2 50 58 1 46 60 1 49 71 0 58 71 0 56 72 1 57 70 1 56 70 0 55 72 1 59 72 1 57 71 0 58 71 0 58 71 0 56 71 0 58 
62 66 69 60 65 68 61 65 68 62 63 67 50 25 44 46 6 32 46 6 33 46 6 32 46 6 32 45 7 32 46 6 33 46 6 30 46 6 32 49 6 34 69 0 55 73 2 60 73 0 58 69 0 57 71 0 58 70 1 58 71 0 58 73 0 56 70 1 56 69 0 55 58 0 48 56 0 45 68 1 55 70 0 55 72 1 57 71 0 56 72 1 59 72 1 57 72 1 57 71 0 58 71 0 56 72 1 59 62 0 49 58 1 46 59 0 48 72 1 59 71 0 56 72 1 57 71 0 58 72 1 59 71 0 58 71 0 58 72 1 57 71 0 56 69 0 55 58 1 46 58 1 46 70 1 56 72 1 57 71 0 56 71 0 56 70 0 55 71 0 56 71 0 56 72 1 57 72 1 59 72 1 57 63 1 50 57 1 46 60 1 49 71 0 56 72 1 57 71 0 56 72 1 57 72 1 57 71 0 56 72 1 57 72 1 57 71 0 58 68 1 55 57 0 45 58 2 47 68 1 54 70 1 58 72 1 57 72 1 57 71 0 56 71 0 58 72 1 59 72 1 59 71 0 56 70 0 55 60 1 49 58 1 46 60 1 49 71 0 58 72 2 56 72 1 59 71 0 56 71 0 58 71 0 60 72 1 61 71 0 56 71 0 56 71 0 56 72 1 57 
61 65 68 62 66 67 62 66 67 61 66 69 57 61 64 47 12 36 46 6 33 46 6 32 45 5 32 45 7 32 46 6 33 46 6 32 45 7 32 47 7 34 50 5 36 69 0 54 74 0 59 72 1 57 72 1 59 71 0 56 71 0 58 72 1 57 71 0 58 66 2 54 58 1 46 58 1 46 67 0 56 73 0 58 71 2 57 70 0 55 71 2 59 72 1 59 71 0 58 71 0 56 71 0 56 71 0 56 62 0 49 58 1 46 60 1 49 71 0 56 72 1 57 70 0 55 71 0 58 72 1 59 71 0 58 72 1 59 71 0 56 71 0 56 67 0 54 56 0 45 57 0 45 68 1 55 71 0 56 71 0 56 70 1 56 73 0 56 71 0 56 72 1 57 70 1 56 72 1 59 71 0 56 62 0 49 58 2 47 60 1 49 72 1 57 71 0 56 72 1 57 71 0 56 71 0 56 71 0 56 71 0 56 71 0 56 70 1 56 69 2 56 58 1 46 58 1 46 69 0 55 71 0 56 72 1 59 71 0 56 71 0 56 72 1 57 71 0 56 74 0 59 71 0 58 71 0 58 60 1 49 57 1 46 59 0 48 70 0 57 71 0 56 72 1 57 72 3 58 70 1 56 71 0 58 73 0 55 71 0 58 72 1 59 72 1 57 73 2 58 
63 64 68 62 66 67 61 65 66 60 65 68 62 66 67 55 34 49 46 6 33 45 5 31 46 6 32 45 5 32 46 6 32 46 6 33 45 5 31 46 6 33 46 6 33 49 6 36 66 2 52 72 1 57 70 1 58 71 0 56 72 1 57 71 0 58 72 1 57 69 0 55 58 1 46 58 1 46 69 0 54 70 1 56 71 2 59 72 1 57 73 0 58 71 0 56 71 0 56 72 1 57 71 0 56 71 0 60 62 0 49 57 0 45 60 1 49 71 0 58 72 1 59 69 0 57 71 0 56 72 1 57 71 2 57 72 1 57 72 1 59 69 0 57 69 0 55 57 0 45 57 0 45 69 0 55 72 1 57 71 0 56 72 1 57 72 1 57 71 0 56 71 0 56 71 2 57 72 1 59 70 0 55 61 2 50 57 1 46 60 1 49 71 0 56 72 1 57 71 0 56 71 0 56 71 0 56 72 1 57 71 0 56 71 0 56 71 0 58 69 0 54 58 1 46 58 1 46 68 1 55 72 1 59 71 0 56 71 0 58 72 1 57 72 1 57 71 0 58 73 0 58 72 1 59 72 1 57 60 1 49 57 1 46 62 3 51 70 1 56 72 1 57 71 2 57 71 0 58 72 1 59 70 1 58 70 0 55 71 0 56 71 0 56 70 0 55 72 1 59 
61 65 68 61 65 68 62 66 67 62 68 68 62 66 69 61 62 66 49 14 38 46 6 32 45 6 33 46 6 33 46 6 32 45 5 31 46 6 33 46 6 32 46 6 32 46 6 33 52 5 39 69 0 55 73 0 56 72 1 57 72 1 59 72 1 57 71 2 57 68 0 53 58 1 46 57 0 45 68 0 57 69 0 57 72 1 57 70 1 56 71 0 58 75 1 60 70 0 55 73 2 58 72 1 57 71 0 60 62 0 49 57 0 45 59 0 48 72 1 59 72 1 59 72 1 59 71 0 56 71 0 56 71 0 56 71 0 56 71 0 58 73 2 60 68 1 55 58 1 46 57 1 46 69 2 56 71 0 56 72 1 57 71 0 56 71 0 56 72 1 57 70 0 55 72 1 57 71 0 58 71 0 56 60 1 49 57 1 46 61 2 50 72 1 57 71 0 56 70 0 55 71 0 56 71 0 56 72 1 57 72 1 57 71 0 56 71 0 56 68 1 54 58 1 46 57 1 46 68 1 55 72 1 57 73 0 56 73 0 58 72 1 59 72 1 59 72 1 59 72 1 57 72 1 57 71 0 56 60 1 49 58 1 46 60 1 49 69 0 57 71 0 56 72 1 59 72 1 57 71 0 58 71 0 58 70 1 58 71 0 58 72 1 57 71 0 56 71 0 56 
61 67 67 62 66 69 60 65 68 61 65 66 61 65 68 61 65 68 55 43 55 47 7 33 46 6 33 46 6 32 46 6 33 47 7 33 46 6 33 46 6 32 46 6 30 45 6 33 45 5 31 56 4 42 71 0 56 71 0 56 71 0 56 70 0 55 71 0 58 68 1 54 57 0 45 57 0 45 66 2 54 70 0 55 72 1 57 72 1 57 71 0 58 69 2 56 71 0 58 71 0 56 71 0 56 71 0 56 62 0 49 58 1 46 60 1 49 71 0 56 71 0 56 72 1 57 71 0 58 72 1 59 72 1 59 70 0 57 71 0 56 72 1 57 69 0 55 58 1 46 58 1 46 69 0 55 71 0 56 71 0 56 72 1 57 72 1 57 72 1 57 70 0 55 74 1 57 70 1 58 71 0 56 61 2 50 56 0 45 61 2 50 72 1 57 72 1 57 71 0 56 71 0 56 70 0 55 72 1 57 71 0 56 71 0 56 72 1 57 69 0 55 57 0 47 58 1 46 70 1 56 71 0 56 71 0 56 71 0 58 71 0 58 72 1 59 72 1 57 72 1 57 72 1 57 71 0 58 60 1 49 58 1 46 60 1 49 71 0 58 73 0 56 71 0 56 72 1 57 72 1 59 72 1 59 73 0 56 71 0 60 72 1 61 72 1 59 71 0 56 
62 66 69 62 66 69 61 65 68 61 65 68 61 65 68 61 65 68 61 65 66 48 19 41 46 6 30 47 7 33 46 6 32 47 7 33 46 6 33 46 6 32 47 7 31 46 6 33 46 6 33 46 6 32 56 4 42 71 0 56 73 2 58 72 1 57 71 0 58 68 1 54 57 1 46 58 1 46 68 1 55 72 1 57 74 0 56 72 1 57 69 0 57 72 1 59 72 1 57 71 0 58 71 0 56 72 1 59 62 0 49 58 1 46 59 0 48 72 1 59 71 0 56 71 0 56 72 1 59 69 0 57 72 1 59 72 1 59 70 1 56 71 0 56 68 1 55 57 0 45 56 0 44 67 0 54 71 0 56 72 1 57 71 0 56 71 0 56 71 0 56 73 0 56 72 1 57 70 1 58 71 0 56 61 2 50 57 0 45 60 1 49 71 0 56 71 0 56 71 0 56 72 1 57 72 1 57 71 0 56 71 0 56 71 0 56 71 0 58 69 0 55 57 0 45 58 1 46 68 1 54 72 1 59 71 0 56 72 1 57 71 0 56 71 0 60 72 1 59 71 0 58 72 1 57 72 1 57 60 1 49 58 1 46 60 1 49 71 0 56 71 0 58 72 1 57 71 0 58 71 0 56 71 0 58 72 1 57 72 1 57 71 0 56 71 0 56 71 0 56 
61 65 68 61 64 69 61 65 68 62 66 69 61 65 66 61 66 69 62 66 69 56 49 57 46 6 33 46 6 33 46 6 32 46 6 32 48 5 33 49 6 34 45 7 32 46 6 33 47 7 34 46 6 33 46 6 32 60 3 46 71 0 58 71 0 58 72 1 59 67 0 53 58 1 46 58 1 46 69 0 55 74 1 57 70 1 56 72 1 57 71 0 58 71 0 56 71 0 58 72 2 56 72 1 57 71 0 56 62 0 49 57 0 45 59 0 48 71 0 58 71 0 58 72 1 59 71 0 56 70 0 55 72 1 57 72 1 57 71 0 58 71 0 58 69 0 55 55 2 46 59 2 47 68 1 55 71 0 56 71 0 56 70 1 56 70 0 55 72 1 57 72 1 57 70 0 55 69 0 57 72 1 57 63 1 50 58 1 46 60 1 49 71 0 56 71 0 56 72 1 57 71 0 56 72 1 57 72 1 57 71 0 56 73 2 58 71 0 60 68 1 55 58 1 46 56 0 45 68 1 54 71 2 57 70 1 56 71 2 57 72 1 57 71 0 56 71 0 58 71 0 56 71 0 58 72 1 59 60 1 49 58 1 46 60 1 49 72 1 59 71 0 56 70 1 56 72 3 58 71 0 58 69 0 57 71 0 58 70 0 57 72 1 57 72 1 57 71 0 56 
60 64 67 61 64 69 62 67 70 61 64 69 61 65 68 60 65 68 62 66 67 61 65 68 48 19 39 48 5 33 46 6 32 46 6 32 46 6 32 46 6 32 46 6 32 48 5 32 46 6 32 46 6 32 46 6 32 47 7 34 64 2 49 72 1 57 71 0 58 68 1 54 58 1 46 57 0 45 68 1 55 72 1 57 71 2 57 71 2 59 72 2 62 71 0 56 72 1 59 72 1 57 71 0 56 71 0 56 61 2 50 58 1 46 59 0 48 72 1 57 72 1 57 72 1 57 70 0 55 71 0 56 72 1 57 70 0 55 71 0 56 71 0 56 70 0 54 58 1 46 57 1 46 69 0 55 72 1 57 71 2 59 71 0 58 71 0 56 71 0 56 72 1 57 71 0 56 69 2 56 71 0 56 62 0 49 56 0 45 60 1 49 72 1 57 71 0 56 71 0 56 72 1 57 71 0 56 72 1 57 71 2 57 71 0 56 71 0 56 69 0 55 57 1 46 59 2 47 67 0 54 71 0 56 73 2 60 71 2 57 71 0 56 70 1 56 71 0 58 73 2 58 71 0 56 72 1 57 60 1 49 57 1 46 62 0 47 70 0 55 72 1 57 71 0 56 71 0 56 70 0 55 71 2 57 69 0 55 71 2 57 70 0 55 69 0 55 71 2 57 
57 47 58 61 65 68 61 65 66 61 65 68 62 66 69 62 65 70 61 65 68 62 66 69 56 49 57 47 7 33 45 5 31 46 6 32 47 7 33 46 6 32 46 6 33 47 7 33 46 6 32 46 6 32 45 5 31 45 6 33 50 5 36 70 1 56 71 2 59 68 0 54 57 0 47 58 1 46 68 1 54 71 2 57 71 0 58 72 1 57 71 0 56 74 0 59 71 0 58 71 0 58 71 0 56 72 1 57 62 0 49 57 0 45 59 0 48 71 0 58 72 1 57 72 1 57 71 0 56 71 0 56 72 1 57 71 0 56 72 1 57 72 1 57 68 1 54 57 1 46 57 0 45 68 1 55 70 1 56 72 1 59 70 1 58 69 0 55 70 1 56 71 0 56 72 1 57 70 1 56 72 1 57 60 1 49 58 1 46 60 1 49 72 1 57 72 1 57 71 0 56 71 0 56 71 0 56 71 0 56 71 0 56 71 0 56 71 0 56 69 0 55 57 1 46 59 0 46 68 1 55 71 0 56 71 0 56 70 0 57 70 1 56 71 0 56 72 1 59 71 0 56 71 0 56 71 0 56 62 0 49 57 1 46 60 1 47 73 0 56 71 0 56 72 1 57 71 0 56 70 1 56 72 1 57 71 0 56 71 0 56 72 1 57 71 0 56 70 0 55 
49 17 38 60 64 67 61 65 68 62 66 69 61 65 68 62 66 67 61 65 68 61 65 68 60 64 67 50 18 39 46 6 32 46 6 32 46 6 32 46 6 33 46 6 32 45 5 31 46 6 32 46 6 32 46 6 32 46 6 32 46 7 28 55 5 42 71 0 58 69 2 53 58 1 46 58 1 46 69 2 55 71 2 57 71 0 58 73 0 56 72 1 57 72 1 57 71 0 56 71 0 56 72 1 57 71 0 58 60 1 49 57 1 46 60 1 49 71 0 56 72 1 57 71 0 56 71 0 56 72 1 57 72 1 57 72 1 57 72 1 57 72 1 57 70 1 55 56 0 45 57 1 46 70 0 55 71 0 56 72 1 59 70 1 58 71 0 56 72 1 57 71 0 56 71 0 56 71 0 56 70 1 56 60 1 49 58 1 46 60 1 49 70 0 55 71 0 56 71 0 56 70 1 56 72 1 57 70 0 55 70 1 56 72 1 57 72 1 57 69 0 55 57 1 46 58 1 46 68 1 54 72 1 57 71 0 56 72 1 57 71 0 56 72 1 57 71 0 58 72 1 57 70 1 56 71 0 56 62 0 49 58 1 46 60 1 47 74 1 57 71 2 57 72 1 57 70 1 56 72 1 57 71 0 56 71 2 57 72 1 57 72 1 57 71 0 56 70 1 56 
46 6 33 55 43 53 62 66 69 61 65 68 62 66 69 61 65 68 61 65 68 62 66 69 62 66 67 55 48 56 45 6 33 46 6 32 45 5 31 45 7 32 46 6 32 46 6 32 45 7 32 48 5 33 46 6 33 47 7 34 46 6 33 47 7 33 61 2 48 66 2 54 56 1 43 58 2 47 68 1 55 72 1 57 71 0 56 71 0 56 71 0 56 71 0 56 70 1 58 71 0 58 72 1 57 71 2 57 60 1 49 58 1 46 60 1 49 69 0 59 72 1 57 72 1 57 71 0 56 71 0 56 71 0 56 72 1 57 71 0 56 72 1 57 69 0 54 57 0 45 58 1 46 67 0 54 70 0 55 69 0 57 72 1 57 70 0 55 71 2 57 69 0 55 73 0 56 73 0 56 71 0 56 60 1 49 58 1 46 60 1 49 71 0 56 73 2 58 72 1 57 71 0 56 71 0 56 71 0 56 71 0 56 72 1 57 71 0 56 69 0 55 57 1 46 56 0 47 68 1 54 71 0 56 73 0 58 70 0 55 72 1 57 70 1 56 72 1 59 71 0 56 71 0 56 72 1 57 61 2 50 58 1 46 59 0 46 72 1 57 70 0 55 72 1 57 71 0 56 71 0 56 70 1 56 74 1 57 70 0 55 71 0 56 72 1 57 72 1 57 
45 7 32 49 16 37 60 64 67 64 65 69 61 65 66 61 65 68 60 65 68 60 65 68 62 66 69 61 65 68 48 16 37 46 6 32 46 6 33 45 5 32 46 6 33 45 5 31 46 6 33 46 6 33 46 6 32 47 7 34 47 7 33 46 6 32 48 5 33 64 2 51 57 1 46 57 1 46 68 0 56 72 1 59 70 0 55 70 1 56 72 1 59 73 0 56 72 1 57 71 0 56 70 0 55 72 1 59 60 1 49 57 0 45 60 1 49 71 0 56 71 0 56 71 0 56 72 1 57 72 1 57 71 0 56 72 1 57 71 0 56 71 0 56 68 1 55 57 1 46 59 2 47 68 1 55 71 2 57 71 0 56 70 1 56 71 2 59 71 0 56 71 0 56 71 0 56 72 1 57 70 1 56 63 1 50 57 1 46 60 1 49 71 0 56 70 0 55 71 0 56 71 0 56 72 1 57 72 1 57 71 0 56 71 0 56 71 0 58 69 0 55 57 1 46 56 0 45 68 1 52 72 1 57 73 0 56 71 0 60 71 0 56 72 1 57 71 0 58 72 1 57 71 0 56 71 0 56 60 1 49 56 0 45 59 2 47 71 2 57 72 1 57 70 1 56 69 0 55 71 0 56 72 1 57 71 0 56 71 0 56 71 2 57 71 0 56 70 1 56 
45 7 32 45 5 32 57 45 57 61 65 68 62 66 69 61 65 68 60 65 68 61 65 68 61 65 68 62 66 69 53 37 50 46 6 33 48 5 32 46 6 32 46 6 33 46 6 33 48 5 32 46 6 32 49 6 34 46 6 32 46 6 33 46 6 32 46 6 32 54 4 39 57 0 47 58 1 46 68 1 55 71 0 58 72 1 59 70 1 56 71 0 58 71 0 56 72 1 59 72 1 59 71 0 56 70 1 56 63 1 50 58 1 46 59 0 48 72 1 59 71 0 56 71 0 56 71 0 56 71 0 56 71 0 56 72 1 57 71 0 56 72 1 57 69 0 55 57 1 46 57 1 46 68 1 55 71 0 56 72 1 57 70 1 56 71 0 58 71 2 57 72 1 57 70 1 56 74 1 57 70 0 55 62 0 49 56 0 45 59 0 48 71 0 56 71 0 56 70 0 55 70 1 56 71 0 56 72 1 57 71 2 57 71 0 56 71 0 56 69 0 55 55 0 44 57 0 45 68 1 54 71 0 56 71 0 56 72 1 59 70 1 56 71 0 56 71 0 58 71 0 56 72 1 57 71 0 56 61 2 50 55 2 46 60 1 47 71 0 56 69 2 56 71 0 56 71 0 56 71 0 56 72 1 57 72 1 57 71 0 56 70 0 55 71 0 56 72 1 57 
46 6 32 46 6 33 49 17 40 62 66 69 61 65 68 61 65 66 61 65 68 62 66 69 61 66 69 60 65 68 59 62 67 45 7 32 46 6 32 46 6 32 45 5 31 46 6 33 46 6 33 46 6 32 44 6 31 46 6 33 46 6 32 46 6 32 46 6 33 46 6 32 54 2 41 57 0 47 68 1 55 71 0 56 71 0 58 71 0 56 71 0 56 71 0 58 71 0 58 72 1 57 71 2 57 71 0 56 60 1 49 58 1 46 58 0 48 72 1 57 70 0 55 71 0 56 72 1 57 71 0 56 71 0 56 71 0 56 71 0 56 71 0 56 68 1 55 58 1 46 57 0 45 69 0 55 71 0 56 73 0 56 71 0 56 71 0 58 71 0 56 71 0 56 72 1 57 69 0 55 73 0 56 60 1 49 58 1 46 59 0 48 72 1 57 72 1 57 71 0 56 72 1 57 71 0 56 71 0 56 72 1 57 72 1 57 71 0 56 68 0 54 57 1 46 59 0 46 67 0 54 71 0 56 72 1 59 70 0 55 71 0 56 72 1 57 72 1 59 71 0 56 72 1 57 72 1 57 61 2 50 57 0 45 59 2 47 72 1 57 71 2 57 71 0 56 71 2 57 70 1 56 72 1 57 71 0 56 71 0 56 72 1 57 71 0 56 70 1 56 
46 6 33 45 5 32 46 6 32 58 51 59 61 65 68 61 65 68 61 65 68 61 66 69 61 65 68 61 65 66 61 65 68 52 29 45 45 6 33 47 7 34 46 6 32 48 5 33 46 6 32 48 5 33 46 6 32 47 7 33 46 6 32 46 6 32 45 6 33 47 7 33 49 6 36 57 0 43 68 1 55 71 0 56 72 1 59 71 0 56 71 0 56 73 0 56 71 0 60 73 0 58 71 0 56 70 1 56 63 0 49 58 1 46 60 1 49 70 0 55 71 0 56 72 1 57 72 1 57 71 0 56 72 1 57 71 0 56 71 0 56 71 0 56 69 0 55 58 1 46 57 1 46 66 1 57 70 0 55 71 0 56 71 0 56 72 1 59 71 0 56 70 1 56 71 0 56 72 1 57 70 0 55 61 2 50 57 1 46 60 1 49 71 0 56 71 0 56 72 1 57 71 0 56 71 0 56 71 0 56 69 0 55 70 0 55 71 0 56 69 0 54 57 1 46 58 1 46 67 0 54 71 0 56 71 0 56 70 1 56 71 0 56 71 0 56 72 1 59 71 0 56 71 0 56 72 1 57 60 1 49 58 1 46 59 2 47 70 1 56 72 1 57 70 1 56 72 1 57 71 0 56 72 1 57 71 0 56 70 1 56 71 0 56 70 1 56 72 1 57 
46 6 30 46 6 32 46 6 32 50 25 44 60 65 68 61 65 68 63 64 68 61 65 66 61 65 68 60 64 67 60 66 66 58 51 59 45 7 32 46 6 32 46 6 32 46 6 32 46 6 32 46 6 32 46 6 32 46 6 32 46 6 32 46 6 32 46 6 32 46 6 32 46 6 32 53 3 40 68 1 55 72 1 57 71 0 56 72 1 57 72 1 57 71 0 56 72 1 57 71 0 58 71 0 56 71 0 56 62 0 49 58 1 46 59 0 46 70 0 55 71 0 56 71 2 57 70 1 56 71 0 56 71 0 56 72 1 57 71 0 56 72 1 57 68 1 54 56 0 45 58 1 46 68 0 53 70 1 56 72 1 57 71 0 56 71 0 56 70 1 56 71 0 56 71 0 56 70 1 56 71 0 58 60 1 49 56 0 45 60 1 49 71 0 56 71 0 56 70 0 55 72 1 57 70 1 56 72 1 57 70 1 56 72 1 57 70 0 55 68 1 55 57 0 45 57 0 45 67 0 53 71 0 56 72 1 57 71 0 56 70 1 56 71 0 56 70 1 56 71 2 57 72 1 57 70 1 56 59 0 48 58 1 46 58 0 47 70 1 56 72 1 57 71 0 58 69 0 57 71 0 56 72 1 59 73 0 56 72 1 57 71 0 56 72 1 57 71 0 58 
46 6 33 46 6 32 46 6 32 46 11 35 58 57 63 61 66 69 62 66 67 61 65 66 61 65 68 61 65 68 61 65 68 59 63 66 49 15 39 45 7 32 48 5 32 46 6 32 46 6 32 46 6 32 46 6 32 46 6 32 46 6 32 46 6 32 46 6 32 46 6 32 45 7 32 48 5 33 68 1 54 71 0 56 72 1 59 71 0 58 69 0 55 71 0 56 71 0 56 71 2 57 72 1 57 71 0 56 62 0 49 57 1 46 59 0 48 71 2 57 71 0 56 71 0 56 71 2 57 71 2 57 71 0 56 71 0 56 71 0 56 70 1 56 68 1 55 56 0 45 56 0 45 68 1 55 71 0 56 70 1 56 70 1 56 71 0 56 70 1 56 71 0 56 71 0 56 70 1 58 71 0 56 60 1 49 56 0 45 61 2 48 70 1 56 70 1 56 71 0 56 71 0 56 71 0 56 71 0 56 71 0 56 71 0 56 70 0 57 68 1 54 56 0 45 57 1 46 68 1 54 71 0 56 71 0 58 70 1 56 70 1 56 71 0 56 71 0 56 70 0 55 74 0 59 71 0 58 60 1 49 56 0 45 59 0 48 72 1 59 71 0 56 70 1 56 71 0 58 71 0 56 70 1 56 72 1 57 71 0 56 71 0 56 72 1 57 72 1 57 
46 6 32 46 6 32 46 6 33 45 7 32 52 36 49 62 65 70 60 65 68 61 65 66 61 65 68 64 65 67 60 65 68 60 64 67 51 37 50 45 5 32 46 6 32 46 6 32 46 6 32 46 6 32 46 6 32 46 6 32 46 6 32 46 6 32 46 6 32 46 6 32 45 5 32 46 6 32 59 2 43 69 0 57 71 0 58 70 1 56 69 2 56 71 0 58 71 0 56 71 2 57 71 2 57 71 0 56 61 2 48 57 1 46 58 0 48 71 0 56 71 0 56 70 0 55 73 0 56 71 2 57 71 0 56 71 0 56 71 0 56 71 2 57 69 0 55 56 0 45 59 0 46 68 1 55 71 0 56 73 0 56 71 0 56 71 0 56 70 1 56 71 0 56 72 1 57 69 0 55 72 1 59 60 1 49 57 1 46 60 1 49 71 0 56 71 0 56 71 0 56 70 1 56 71 0 56 70 1 56 71 0 56 71 0 56 72 1 57 68 1 54 56 0 45 56 0 45 68 1 54 71 0 56 71 0 56 70 1 56 69 2 56 71 0 56 71 0 56 71 2 57 71 2 57 71 0 56 60 1 47 57 1 46 60 1 49 71 0 56 72 1 57 71 0 58 71 0 56 69 0 55 72 1 59 71 0 56 72 1 57 71 0 56 70 0 55 72 1 57 
45 5 32 46 6 32 49 6 34 46 6 33 46 12 36 59 63 66 60 64 67 61 65 68 61 65 68 61 65 66 62 66 69 61 65 68 59 58 63 47 9 34 44 5 32 47 7 33 46 6 32 46 6 32 46 6 32 46 6 32 46 6 32 46 6 32 46 6 32 46 6 32 46 6 32 45 7 32 48 5 33 66 1 55 71 0 58 73 0 56 71 0 56 71 2 57 69 0 57 70 0 55 70 1 56 71 0 56 60 1 47 58 1 46 59 1 49 72 1 57 72 1 57 71 0 56 71 2 57 70 1 56 71 0 56 70 0 55 72 1 57 69 0 55 68 0 53 56 0 45 56 0 45 67 0 53 71 0 56 72 1 57 71 0 56 69 0 55 70 1 56 71 0 56 71 0 56 69 0 55 72 1 57 60 1 49 57 1 46 60 1 47 70 1 56 71 2 57 70 1 56 72 1 57 71 0 56 71 0 56 72 1 57 70 1 56 70 1 56 68 1 55 56 0 45 57 1 46 65 0 54 71 0 56 71 0 56 71 2 57 72 0 55 72 1 57 72 1 59 71 0 58 71 0 58 71 0 58 59 0 48 57 0 45 61 2 50 72 1 57 70 1 56 71 0 56 71 0 58 70 1 56 71 0 56 70 1 56 71 0 58 71 0 56 70 1 56 71 0 56 
48 5 32 46 6 32 46 6 32 46 6 32 45 6 33 58 48 59 60 64 67 60 65 68 61 65 68 61 65 68 61 65 68 60 65 68 60 64 67 50 21 41 46 6 32 46 6 32 46 6 32 46 6 32 46 6 32 46 6 32 46 6 32 46 6 32 46 6 32 46 6 32 45 7 32 46 6 32 45 7 32 61 2 46 70 1 58 71 0 56 71 2 57 72 0 55 70 0 55 69 0 55 70 0 55 71 0 56 59 0 48 56 0 45 58 0 48 69 0 55 72 1 57 69 0 55 70 1 56 70 1 56 73 0 56 71 0 56 70 1 56 71 0 56 67 0 53 57 0 45 55 2 46 66 2 54 70 0 55 71 0 56 69 0 55 70 1 56 70 1 56 70 0 55 71 0 56 70 1 58 71 0 56 60 1 49 57 1 46 61 2 50 71 0 56 72 1 57 70 1 56 70 1 56 70 1 56 69 0 55 71 0 56 70 0 55 70 1 58 68 1 54 56 0 45 56 0 45 66 2 54 71 0 56 71 0 58 70 1 56 69 2 56 70 1 55 70 1 56 69 0 55 71 2 57 70 1 58 60 1 49 57 1 46 59 1 49 72 1 57 71 2 57 71 0 56 71 0 56 70 1 56 72 1 57 70 0 55 70 1 56 71 0 56 71 2 57 70 0 57 
46 6 32 46 6 33 44 6 31 45 6 33 46 6 33 51 28 46 59 64 67 60 65 68 61 65 68 61 65 68 60 65 68 60 65 68 63 64 68 54 42 52 45 5 31 48 5 32 46 6 32 46 6 32 46 6 32 46 6 32 46 6 32 46 6 32 46 6 32 46 6 32 45 5 32 48 5 32 45 7 32 49 6 34 70 1 58 69 0 55 70 1 58 70 1 56 71 0 56 69 0 57 70 1 56 70 1 56 60 1 49 57 1 46 59 2 47 71 2 57 71 0 56 71 0 56 71 2 57 71 0 56 71 0 56 70 0 55 72 1 57 70 0 55 69 0 55 58 1 46 56 0 45 69 0 55 71 0 56 71 0 56 71 0 56 71 0 56 70 1 55 72 1 57 71 0 56 70 1 55 71 0 56 60 1 49 55 0 44 60 1 49 69 2 56 70 1 56 71 0 56 71 0 56 71 0 56 70 1 56 70 1 56 70 1 56 71 0 58 68 1 54 57 1 46 57 1 46 67 0 53 70 0 55 70 0 55 70 1 56 71 0 56 72 1 57 71 0 58 71 0 58 72 1 57 71 0 58 60 1 49 57 1 46 60 1 49 70 1 56 70 1 56 71 0 56 70 1 56 71 2 57 71 0 56 70 1 56 70 1 56 70 1 56 71 2 59 71 0 58 
46 8 33 45 5 31 45 5 31 46 6 33 46 6 33 48 8 34 59 63 66 60 65 68 60 64 67 61 67 67 61 65 68 61 65 68 60 65 68 59 60 64 49 11 36 44 6 31 46 6 32 46 6 32 46 6 32 46 6 32 46 6 32 46 6 32 46 6 32 46 6 32 45 7 32 46 6 33 46 7 36 48 5 32 60 3 46 72 1 57 70 1 58 71 2 57 69 1 58 71 0 58 71 2 57 70 1 56 60 1 47 57 0 45 58 1 46 69 0 55 71 0 56 70 1 56 70 1 56 71 2 57 69 0 55 71 0 56 72 1 57 69 0 55 68 1 55 57 1 46 56 0 45 69 0 55 69 0 55 70 1 56 73 0 56 70 1 56 70 1 58 70 0 55 71 0 56 70 1 56 72 1 57 60 1 49 57 1 46 60 1 49 71 0 56 69 0 55 71 0 56 69 0 55 70 1 56 70 1 56 70 1 56 70 1 56 71 0 56 67 0 54 57 1 46 57 1 46 68 1 55 71 0 56 71 0 56 70 1 56 69 0 55 70 1 56 71 0 56 70 1 56 70 1 56 71 0 56 60 1 49 57 1 46 58 0 48 71 0 56 70 1 56 71 2 57 71 0 56 70 1 56 71 2 57 71 0 56 70 1 56 70 1 56 70 1 56 70 1 56 
45 6 33 45 7 32 46 5 35 46 6 32 46 6 33 45 6 33 55 45 54 60 64 65 61 65 68 61 65 68 61 65 68 62 66 69 61 65 68 59 64 67 50 23 42 44 6 31 46 6 32 46 6 32 46 6 32 46 6 32 46 6 32 46 6 32 46 6 32 46 6 32 45 6 33 46 6 33 46 6 32 48 5 32 49 6 36 70 1 58 69 0 55 71 0 56 72 1 57 70 1 56 71 0 56 71 2 57 60 1 49 57 1 46 59 0 48 69 0 55 71 0 56 71 0 56 70 0 55 70 1 56 71 0 56 72 1 57 72 1 57 70 1 56 68 1 54 57 1 46 58 1 46 68 1 54 69 0 55 70 1 56 71 0 56 72 1 57 70 1 56 72 1 57 72 1 57 70 1 56 71 0 56 60 1 49 56 0 45 60 1 49 70 1 56 70 1 56 68 1 55 70 1 56 70 1 56 71 0 56 70 1 56 70 1 56 71 0 58 68 1 54 58 1 46 57 0 45 67 0 53 71 0 56 71 0 56 72 1 57 72 1 57 70 1 56 71 0 56 71 0 56 71 0 56 71 0 56 60 1 49 58 1 46 59 0 48 70 1 56 71 0 56 71 2 56 70 1 56 71 2 57 70 1 56 70 1 56 69 0 57 70 1 56 70 1 56 70 1 56 
46 6 32 48 5 32 46 6 33 46 6 32 46 6 33 47 7 34 50 25 44 60 64 67 60 64 65 61 64 69 60 65 68 62 66 69 60 65 68 60 65 68 55 42 52 46 6 32 45 5 31 45 7 32 45 6 33 46 6 32 46 6 32 46 6 32 46 6 33 46 6 32 44 6 31 46 6 32 45 5 31 46 6 33 48 5 33 62 3 49 70 1 56 71 2 57 70 0 55 70 1 56 71 0 56 71 0 56 60 1 49 58 1 44 58 1 46 70 1 56 70 1 56 70 0 55 71 2 57 70 1 56 71 2 57 71 2 57 71 2 57 71 0 56 70 1 56 57 1 46 56 0 45 68 1 54 70 1 56 72 0 55 70 1 56 71 0 56 70 1 56 69 0 55 70 1 56 71 2 57 71 0 56 59 0 48 57 1 46 60 1 49 70 1 56 70 1 56 72 1 57 69 0 55 70 1 56 70 0 55 70 1 56 69 0 55 71 0 56 68 0 54 56 0 45 58 1 44 68 1 54 72 1 57 71 0 56 71 0 58 70 1 56 71 0 56 71 2 57 71 0 56 69 2 56 71 0 56 59 1 49 58 1 46 59 0 48 71 2 57 69 0 55 71 2 57 69 0 55 70 1 56 70 1 56 70 1 56 70 1 58 71 0 56 71 0 56 70 1 56 
45 6 33 48 5 33 45 5 31 46 6 32 46 6 32 44 6 31 47 7 33 60 61 65 62 66 69 61 65 68 61 65 68 61 65 68 60 64 67 60 64 67 59 60 65 46 8 33 45 7 32 44 6 31 45 5 31 46 6 32 46 6 32 45 5 31 46 6 32 46 6 32 45 7 32 46 6 32 45 6 33 45 6 33 46 6 32 54 4 39 70 1 58 70 1 56 71 2 57 72 1 57 71 0 56 70 1 56 60 1 49 56 0 45 60 1 49 69 0 57 69 2 56 70 1 56 70 1 56 71 2 57 73 0 56 71 0 56 71 2 57 71 2 57 70 1 55 56 0 45 58 1 46 69 2 56 69 0 55 72 1 57 71 0 56 71 2 57 69 0 55 70 1 56 71 0 56 71 0 56 71 0 56 59 0 48 56 0 45 60 1 49 70 1 56 71 2 57 70 1 56 70 1 56 71 2 57 70 1 56 69 0 55 70 1 56 70 1 56 67 0 54 56 0 45 56 1 43 68 1 54 70 1 56 70 1 56 70 1 56 70 1 56 73 2 58 70 1 56 71 0 56 70 1 56 72 1 57 59 1 49 56 0 45 59 1 49 70 1 58 70 1 56 70 1 56 70 1 56 69 0 55 70 0 55 71 0 56 70 1 56 71 0 58 70 1 56 70 1 56 
46 6 33 45 6 33 44 6 31 46 6 32 45 5 31 44 6 31 46 6 32 57 45 55 60 64 67 61 65 66 62 66 69 61 65 68 61 65 68 61 65 68 60 64 67 49 22 41 45 5 32 46 6 32 46 6 32 46 6 32 46 6 32 45 7 32 45 7 32 44 6 31 46 6 32 46 6 32 44 5 32 46 6 32 46 6 32 47 7 33 69 2 55 70 0 55 71 0 56 71 0 56 70 1 56 70 3 57 59 0 48 56 0 45 60 1 49 70 1 56 69 0 55 71 0 56 69 0 55 70 1 56 69 0 55 69 0 55 69 0 55 71 2 57 67 0 54 57 1 46 57 0 45 68 1 54 71 2 57 71 0 56 69 0 55 72 1 57 71 2 57 69 0 55 70 1 56 70 0 55 71 0 56 62 3 51 55 0 44 58 0 48 70 1 56 71 2 57 70 1 56 71 2 57 69 0 55 70 1 56 68 0 54 70 1 56 70 1 56 67 0 53 56 0 47 57 0 45 68 0 57 71 0 56 69 2 56 71 0 56 70 0 55 70 1 56 70 1 56 70 0 55 70 1 56 70 0 55 60 1 49 56 0 45 59 2 47 70 1 58 69 0 55 69 0 55 70 1 56 70 0 55 70 0 55 70 1 56 71 0 56 70 1 56 69 0 57 70 0 55 
45 5 32 44 6 31 45 7 32 46 6 32 46 6 32 46 6 33 46 6 33 49 24 43 60 64 67 61 65 66 60 65 68 61 65 68 61 65 68 61 65 68 60 65 68 53 40 50 44 5 32 46 6 33 46 6 32 45 5 31 45 5 32 45 5 31 46 6 32 43 8 32 46 6 32 46 6 32 45 5 31 45 5 31 45 5 32 45 6 33 59 2 43 69 0 55 71 0 56 70 0 55 70 1 56 72 1 57 60 1 49 58 0 45 59 0 48 70 1 56 71 0 56 71 0 56 70 1 56 70 1 56 70 1 56 70 1 56 70 1 56 70 1 56 67 0 53 58 1 46 57 0 45 67 0 54 71 2 57 71 0 56 71 0 56 70 1 56 69 0 55 71 0 56 69 0 55 70 1 56 72 1 57 63 1 50 56 0 45 62 0 49 70 1 56 70 0 55 70 1 56 70 1 56 71 2 57 70 1 56 70 0 55 70 1 56 71 2 57 68 1 54 56 0 45 56 0 45 67 0 53 69 2 56 71 0 56 71 0 56 69 2 56 70 1 56 70 1 56 71 0 56 70 0 55 73 0 56 60 1 49 57 1 46 59 1 49 71 0 58 71 0 56 70 1 56 70 1 56 70 1 56 69 0 55 70 1 56 70 1 56 71 1 55 71 2 57 70 1 56 
46 7 34 46 6 33 44 6 31 44 6 31 45 6 33 44 6 31 45 7 32 46 12 36 60 61 65 61 65 68 61 65 68 58 66 68 60 65 68 59 64 67 61 65 68 59 58 64 48 5 32 48 5 33 46 6 32 46 8 33 46 6 33 45 7 32 45 5 31 45 7 32 46 6 32 46 6 32 46 6 32 46 6 32 46 6 33 45 5 31 50 5 36 69 0 55 70 1 58 70 1 58 71 0 58 71 2 57 60 1 47 58 1 46 59 0 48 70 1 55 70 1 56 69 0 55 70 1 56 71 0 56 71 0 56 69 0 55 70 1 56 70 1 56 69 0 55 56 0 45 56 0 45 65 1 53 70 1 56 70 1 56 71 0 56 71 0 56 69 0 55 71 2 57 70 1 56 69 0 55 69 0 55 60 1 49 58 0 45 59 1 49 70 1 56 71 0 56 69 0 55 70 1 56 70 1 56 69 0 55 70 0 55 69 0 55 70 1 56 68 1 55 57 0 45 58 0 48 67 0 53 72 1 57 71 0 58 71 0 56 69 0 55 69 0 55 71 0 56 69 0 55 71 0 56 70 1 56 60 1 49 56 0 45 59 0 48 68 0 54 70 1 56 69 0 55 71 2 57 69 0 55 70 1 56 70 1 56 70 1 56 70 1 56 73 0 55 69 0 55 
55 52 59 49 17 38 50 5 36 48 5 32 42 6 32 48 5 32 44 5 32 45 7 32 55 45 56 60 64 67 61 67 67 61 65 66 60 64 67 59 64 67 60 64 67 61 65 68 46 17 37 44 6 31 46 6 33 46 6 32 44 6 31 46 6 32 46 6 32 45 5 31 46 6 32 45 5 31 45 7 32 46 6 33 45 5 31 46 6 32 46 6 32 64 2 51 71 0 58 69 0 55 71 0 56 71 0 58 60 1 47 57 2 44 59 1 49 73 0 56 71 2 57 69 0 55 69 0 55 71 0 56 70 1 56 69 0 55 70 1 56 70 1 56 68 1 54 57 1 46 57 0 45 67 0 54 70 0 55 71 0 56 69 2 56 70 1 56 70 1 56 71 0 56 71 0 56 70 1 56 70 1 56 60 1 49 57 0 45 58 0 47 69 0 55 70 1 56 69 0 55 71 2 57 70 1 56 70 1 56 69 0 55 70 1 56 69 2 56 68 1 54 56 0 45 55 2 46 65 1 53 71 2 57 70 1 56 70 1 56 69 2 56 71 2 57 71 0 56 70 1 56 71 0 56 70 1 56 59 1 49 57 1 46 58 0 48 70 1 56 70 1 56 70 1 56 72 1 57 70 1 56 71 2 57 70 0 55 70 1 56 71 0 56 71 1 55 70 1 56 
61 65 68 61 62 66 54 26 48 51 4 38 44 6 31 45 5 31 45 5 31 45 6 33 51 26 45 61 65 68 61 65 66 61 65 68 61 65 68 60 64 67 61 65 68 60 64 67 51 33 47 45 7 32 45 6 33 46 6 32 45 7 32 45 7 32 44 6 29 46 6 32 45 7 30 46 6 32 45 6 33 45 6 33 45 7 32 45 5 29 46 6 32 51 4 40 70 1 55 68 0 54 69 0 55 70 1 56 62 0 47 57 0 43 58 1 46 69 0 55 71 0 56 70 1 56 70 1 56 71 2 57 70 1 56 70 1 56 71 0 56 71 2 57 68 1 55 57 1 46 57 1 46 68 1 54 71 0 56 71 0 56 70 1 56 70 1 56 71 2 57 72 1 57 70 1 56 70 1 56 71 0 56 59 0 48 57 0 45 58 0 48 69 0 55 71 2 57 71 2 57 70 1 56 70 1 56 69 0 55 68 0 54 71 2 57 71 2 59 68 1 54 57 1 46 56 0 45 67 0 53 70 1 56 70 1 56 69 0 57 69 0 55 69 0 55 71 0 56 69 0 55 72 1 57 69 0 55 60 1 49 57 1 46 59 1 49 69 0 55 69 0 55 70 1 56 71 2 57 70 1 56 71 0 56 71 0 56 70 1 56 70 1 55 71 2 57 72 1 57 
61 66 69 59 64 67 60 65 68 60 41 60 51 6 37 46 6 32 45 5 32 46 6 33 48 10 35 59 63 64 59 65 65 60 65 68 61 65 68 60 64 67 59 64 67 60 65 68 58 48 57 45 7 32 45 6 35 46 6 32 45 5 31 44 6 31 46 6 32 46 6 32 44 4 30 45 7 32 45 5 31 46 6 32 44 6 31 45 5 32 45 5 31 46 6 32 61 2 46 70 1 58 69 0 57 70 1 55 60 0 51 56 0 45 61 2 48 71 0 56 68 1 55 70 1 56 72 1 57 71 0 56 70 1 56 72 1 57 71 0 56 70 1 56 68 1 54 56 0 45 57 0 45 64 1 54 70 1 56 71 0 56 70 1 56 70 0 55 69 0 55 71 0 56 70 1 56 71 2 57 70 1 56 60 1 49 58 1 46 59 0 48 70 1 56 70 1 56 72 1 57 70 1 56 71 2 57 70 0 55 70 1 56 70 1 56 71 0 56 67 0 53 57 1 46 56 0 45 68 1 55 70 1 55 71 0 56 69 0 55 71 0 56 71 0 56 71 0 56 70 1 56 71 0 56 70 1 56 60 1 49 57 1 46 58 0 48 71 0 58 70 0 55 70 1 56 70 1 56 69 0 55 69 0 55 70 1 56 70 2 53 70 1 56 70 1 56 71 0 56 
60 64 65 60 64 67 60 64 67 60 64 67 62 50 62 51 12 41 45 7 32 45 6 33 47 7 33 58 53 59 59 63 66 63 64 68 59 64 67 61 65 66 60 64 67 61 65 68 60 59 64 47 8 35 45 5 31 45 7 32 46 6 32 44 5 32 44 6 31 45 7 32 45 5 31 46 6 32 46 6 32 45 5 31 46 6 32 46 6 32 45 5 31 46 6 32 48 5 35 69 0 54 69 0 55 70 0 55 59 0 48 56 0 45 59 2 47 69 2 56 70 1 56 71 0 56 70 0 55 71 2 57 71 0 56 70 1 56 71 0 56 70 1 56 68 1 55 56 0 45 58 1 46 68 1 54 70 1 56 70 1 56 70 1 56 70 1 56 70 1 56 70 1 56 70 1 56 70 1 56 70 1 56 60 1 49 57 1 46 59 1 49 71 0 56 70 1 56 70 1 56 70 1 56 71 0 56 71 0 56 71 0 56 70 1 56 70 1 56 68 1 54 57 1 46 56 0 45 68 1 54 70 1 56 71 2 57 71 2 57 70 1 56 70 1 56 69 0 55 70 1 56 70 1 56 69 0 55 60 1 49 57 1 46 59 2 47 70 1 56 70 1 56 71 2 57 69 0 54 70 1 56 71 0 56 70 1 56 69 0 55 69 0 55 69 0 55 70 1 56 
60 64 67 60 64 67 61 65 68 61 64 69 59 63 64 59 57 62 47 18 40 45 5 31 46 6 33 53 35 49 61 65 68 59 64 67 60 64 67 61 65 68 62 66 69 60 64 65 60 64 67 48 19 39 45 5 31 44 6 31 44 6 31 45 7 32 44 6 31 45 5 31 46 6 32 45 7 32 45 7 32 46 6 32 44 4 30 45 7 32 46 8 33 45 5 31 46 6 33 58 3 43 70 1 56 70 1 55 61 2 50 55 0 44 59 0 46 71 0 56 70 1 56 71 0 56 70 1 56 70 0 55 71 2 57 69 0 55 70 1 56 69 0 55 68 1 55 57 1 46 58 1 46 67 0 53 70 1 56 69 0 55 70 1 56 71 2 57 71 0 56 70 1 56 71 2 57 70 0 55 69 0 55 60 1 49 57 1 46 60 1 47 70 1 56 71 2 57 69 2 56 70 1 56 70 1 56 70 0 55 70 1 56 69 0 55 70 1 56 66 0 52 56 0 45 56 0 45 67 0 53 69 0 55 70 1 56 69 0 55 70 1 56 69 0 55 69 0 55 69 0 55 70 1 56 69 0 55 60 1 49 56 0 45 60 1 49 71 2 57 70 1 56 70 1 56 71 0 56 71 0 56 69 0 54 70 1 56 70 1 56 69 0 55 70 1 56 69 0 55 
58 56 61 59 64 67 58 63 66 59 63 66 60 64 67 60 64 65 59 60 64 49 24 43 46 6 32 48 19 39 60 64 67 60 64 67 59 63 66 60 64 65 60 64 65 60 64 67 60 64 67 53 35 49 46 6 32 45 6 33 45 7 32 46 6 32 45 5 31 45 5 31 45 7 32 46 6 32 46 6 32 44 6 31 44 6 31 45 5 31 46 6 32 44 6 31 45 7 32 49 6 34 68 1 54 71 2 57 58 2 47 57 1 46 58 1 46 71 2 59 70 1 56 70 1 56 70 1 56 70 0 55 71 2 57 70 1 56 70 1 56 70 1 56 68 1 55 56 0 45 57 0 45 67 0 53 69 0 55 69 0 55 70 1 56 70 1 56 71 2 57 72 1 57 71 0 56 70 1 56 69 0 55 60 1 49 57 1 46 58 0 48 70 0 55 70 1 56 70 0 55 70 1 56 71 0 56 69 0 55 71 0 56 70 1 56 70 1 56 68 1 54 57 1 46 57 1 46 67 0 53 70 1 56 70 1 56 70 1 56 69 0 55 70 1 56 70 1 56 70 1 56 69 0 55 69 0 55 59 0 48 56 0 45 59 2 47 70 1 56 69 0 55 70 1 56 70 1 56 70 1 56 70 1 56 70 1 56 70 1 56 70 1 56 70 1 56 70 1 56 
46 8 33 57 54 61 60 66 66 60 64 65 60 64 67 60 65 68 60 64 67 61 62 66 52 31 46 45 7 32 58 57 62 60 64 67 61 65 68 60 65 68 59 64 67 60 64 67 60 64 67 56 49 57 45 7 32 46 6 33 46 6 32 45 5 31 46 6 32 44 6 31 45 5 31 45 7 32 44 6 31 46 6 32 46 6 32 45 7 32 44 6 31 46 6 32 45 7 32 46 6 32 56 4 42 71 2 59 60 1 47 56 0 45 58 0 48 70 1 56 70 1 56 69 0 55 69 0 55 70 1 56 70 1 56 70 1 56 71 0 56 70 1 56 67 0 54 56 0 45 58 1 46 68 1 54 70 1 56 70 1 56 69 0 55 70 1 56 70 1 56 70 1 56 70 1 56 70 0 55 70 0 57 60 1 49 56 0 45 59 0 46 70 1 56 70 1 56 69 0 55 69 0 55 70 1 56 70 1 56 70 1 56 69 0 55 70 1 56 68 1 54 56 0 45 56 0 45 68 1 54 70 1 56 69 0 55 70 1 56 70 1 56 70 1 56 70 1 56 70 1 56 69 0 55 70 1 56 60 1 49 56 0 45 60 1 49 69 0 55 71 2 57 70 1 56 70 0 55 71 0 56 70 1 56 70 1 56 70 1 56 70 1 56 69 0 55 69 0 55 
46 6 32 47 7 33 56 53 60 60 63 68 61 65 68 60 64 65 60 66 66 60 64 67 59 63 66 54 31 49 56 46 55 59 64 67 60 65 68 60 64 67 60 64 67 61 65 66 60 64 65 60 61 65 47 13 37 44 6 31 44 6 31 45 5 31 45 5 31 46 6 32 46 6 32 46 6 32 46 6 32 46 6 32 46 6 32 45 5 31 46 6 32 45 5 31 46 6 32 44 6 31 46 6 32 66 2 52 62 0 49 57 1 46 59 0 48 71 2 56 69 0 55 70 1 56 69 0 55 70 1 56 69 0 55 70 1 56 70 0 55 70 1 56 68 1 55 57 1 46 58 1 46 68 1 54 70 1 56 70 1 56 70 1 56 70 1 56 70 1 55 71 0 56 70 1 56 70 1 56 70 0 55 59 0 48 55 0 44 61 0 48 70 1 56 69 0 55 70 1 56 70 1 56 70 1 56 70 1 56 69 0 55 70 1 56 70 1 56 68 1 54 57 1 46 56 0 45 68 1 54 69 0 55 70 1 56 70 1 56 70 1 56 70 1 56 71 2 57 69 0 55 70 1 56 70 1 56 59 0 48 56 0 45 58 1 46 70 1 56 69 0 55 70 1 56 70 1 56 70 1 56 70 1 56 69 0 55 69 0 55 69 0 55 70 1 56 69 0 55 
44 5 32 45 5 31 47 12 36 56 51 57 60 64 67 59 65 65 61 65 68 60 65 69 59 65 65 60 64 65 53 46 54 61 65 68 60 64 67 59 63 66 60 64 65 60 63 68 60 64 65 60 64 65 50 23 42 45 7 32 44 6 31 45 5 31 45 5 31 46 6 33 46 6 32 46 6 32 45 5 31 46 6 32 45 5 31 45 5 31 45 5 31 46 6 32 45 5 31 46 6 32 44 6 31 50 5 38 60 1 49 56 0 45 58 1 46 70 1 58 69 0 55 70 1 56 70 1 56 70 0 55 70 1 56 70 1 56 70 1 56 70 1 56 68 1 55 57 1 46 57 0 45 68 1 54 69 0 55 70 1 56 70 1 56 70 1 56 71 0 56 70 0 55 69 0 55 70 1 56 70 1 58 60 1 49 55 0 44 60 1 47 70 1 56 70 1 56 70 1 56 70 1 56 70 1 56 70 1 56 70 1 56 69 0 55 69 0 55 67 0 53 56 0 45 56 0 45 67 0 53 70 1 56 70 1 56 69 0 55 69 0 55 70 1 56 69 0 55 70 1 56 69 0 55 69 0 55 60 1 49 56 0 45 59 1 49 70 1 56 69 0 55 70 1 56 69 0 55 70 1 56 69 0 55 70 1 56 70 1 56 69 0 55 70 1 56 70 1 56 
44 6 31 45 7 32 45 5 31 48 14 38 59 54 61 59 64 67 60 64 67 59 63 66 60 64 67 59 63 64 57 52 58 61 65 68 61 64 69 61 65 68 60 64 67 58 63 67 60 64 67 60 64 65 53 37 50 45 5 31 46 6 32 46 6 32 45 5 31 44 5 32 46 6 32 46 6 32 46 6 32 45 5 31 46 6 32 45 5 31 45 5 31 46 6 32 45 5 31 45 5 31 44 6 31 45 7 32 55 2 44 57 1 46 57 0 47 71 0 56 70 0 55 70 1 56 70 1 56 69 0 55 69 0 55 70 1 56 69 0 55 70 1 56 68 1 55 57 1 46 58 1 46 67 0 53 69 0 55 70 1 56 70 1 56 71 2 57 70 1 56 70 1 56 69 0 55 70 1 56 70 1 56 60 1 49 56 0 45 59 0 48 68 0 54 69 0 55 70 1 56 70 1 56 70 1 56 70 1 56 70 1 56 70 1 56 69 0 55 67 0 53 56 0 45 57 1 46 67 0 53 70 1 56 70 1 56 70 1 56 71 2 57 70 1 56 70 1 56 70 1 56 70 1 56 70 1 56 60 1 49 57 1 46 59 2 47 69 0 55 69 0 55 70 1 56 70 1 56 70 1 56 70 1 56 69 0 55 69 0 55 69 0 55 70 1 56 70 1 56 
45 5 31 44 5 32 44 6 31 45 5 32 47 14 35 60 57 64 60 64 67 59 62 67 58 63 66 60 64 67 62 63 67 60 61 65 61 65 68 63 64 68 60 64 65 60 64 67 59 63 66 60 64 65 58 55 62 47 7 33 46 6 32 45 7 32 48 5 33 46 6 33 45 5 31 45 5 31 46 6 32 46 6 32 45 5 31 46 6 32 46 6 32 45 5 31 46 6 32 45 7 32 45 5 31 45 5 31 47 4 34 58 1 46 58 0 48 70 0 55 70 1 56 70 1 56 70 1 56 69 2 56 68 1 55 70 1 56 69 0 55 69 0 55 67 0 54 57 1 46 57 0 45 68 1 54 69 0 55 70 1 56 70 1 56 69 0 55 70 1 56 70 1 56 70 1 56 72 1 57 69 0 55 60 1 49 56 0 45 58 2 49 69 0 55 69 0 55 70 1 56 70 1 56 70 1 56 70 1 56 69 0 55 69 0 55 70 1 56 67 0 53 57 1 46 56 0 45 68 1 54 69 0 55 70 1 56 69 0 55 70 1 56 70 1 56 69 0 55 70 1 56 70 1 56 69 0 55 60 1 49 57 1 46 59 2 47 71 2 57 69 0 55 70 1 56 69 0 55 70 1 56 69 0 55 69 0 55 70 1 56 69 0 55 69 0 55 70 1 56 
46 6 32 46 6 32 45 5 31 45 7 32 45 7 32 48 15 36 60 61 66 60 64 67 59 62 67 60 64 65 58 63 66 58 57 63 59 64 67 61 65 66 59 64 67 60 64 67 59 63 66 59 63 66 60 64 67 48 10 33 46 6 32 45 5 31 45 7 32 46 6 32 45 5 31 46 6 32 46 6 32 46 6 32 45 5 31 45 5 31 45 5 31 46 6 32 45 5 32 46 6 32 46 6 32 45 5 32 46 6 32 55 3 42 59 2 47 68 0 54 69 0 55 70 1 56 70 1 56 70 0 55 69 2 56 70 1 56 71 2 57 70 1 56 68 1 54 56 0 45 55 0 44 67 0 53 70 1 56 70 1 56 70 1 56 69 0 55 69 0 55 70 1 56 69 0 55 69 0 55 69 0 55 59 0 48 56 0 45 58 0 50 70 1 56 69 0 55 70 1 56 70 1 56 71 2 57 71 2 57 69 0 55 70 1 56 69 0 55 67 0 53 57 1 46 56 0 45 65 1 53 70 1 56 70 1 56 69 0 55 69 0 55 70 1 56 70 1 56 69 2 56 69 0 55 69 0 55 60 1 47 56 0 45 58 0 48 70 1 56 70 1 56 70 1 56 70 1 56 70 1 56 69 0 55 70 1 56 70 0 57 70 1 56 70 1 56 70 1 56 
45 5 32 44 5 32 45 5 31 45 7 32 44 4 30 45 5 31 51 24 43 59 64 67 60 64 67 62 66 69 59 63 64 60 59 64 60 64 67 60 64 67 60 64 67 60 64 65 62 66 69 61 65 68 60 64 67 50 25 44 46 6 32 45 5 31 44 6 31 44 6 31 45 5 31 45 5 31 46 6 32 46 6 32 45 5 31 45 5 31 45 5 31 45 5 31 44 6 31 46 6 33 46 6 32 44 5 32 45 5 31 50 3 37 58 0 48 69 0 55 70 1 56 69 2 56 69 0 55 71 2 57 70 1 56 69 0 55 70 1 56 69 0 55 68 1 54 56 0 45 56 0 45 67 0 53 70 1 56 70 1 56 70 1 56 69 0 55 69 0 55 69 0 55 70 1 56 70 1 56 69 0 55 60 1 49 56 0 45 59 0 50 69 0 55 70 1 56 69 0 55 69 0 55 69 0 55 70 1 56 70 1 56 69 0 55 70 1 56 68 1 54 57 1 46 56 0 45 65 1 53 69 0 55 70 1 56 70 1 56 70 0 55 70 1 56 69 0 55 70 1 56 70 1 56 69 0 55 59 2 47 56 0 45 58 0 48 69 0 55 69 0 55 69 0 55 69 0 55 69 0 55 70 1 56 68 1 55 70 1 58 69 0 55 69 0 55 70 1 56 
45 7 32 46 6 32 45 7 32 45 7 32 44 4 30 44 6 31 46 6 32 55 34 49 59 64 67 61 65 68 60 64 67 59 63 64 60 64 67 60 64 67 60 64 67 60 64 65 60 64 67 60 64 67 60 64 67 54 37 53 45 7 32 45 7 32 46 6 32 46 6 32 45 5 31 46 6 32 46 6 32 45 5 31 45 5 31 45 5 31 46 6 32 46 6 32 44 6 29 47 4 31 45 7 32 45 5 32 45 5 31 45 5 31 57 2 44 70 1 56 69 0 55 69 0 55 70 1 56 69 0 55 70 0 55 70 1 56 70 1 56 69 0 55 68 1 54 57 1 46 56 0 45 68 1 54 70 1 56 69 0 55 70 1 56 69 0 55 70 1 56 70 1 56 70 1 56 69 0 55 69 0 55 60 1 49 56 0 45 59 1 49 70 1 56 71 2 57 69 0 55 69 0 55 69 0 55 69 0 55 69 0 55 69 0 55 70 1 56 67 0 53 55 0 44 56 0 45 65 1 53 71 2 57 70 1 56 70 1 56 71 0 56 69 0 55 71 0 56 70 1 56 70 1 56 70 1 56 59 2 47 57 1 46 59 1 49 70 1 56 69 0 55 70 1 56 69 0 55 70 1 56 69 0 55 69 2 56 70 1 56 70 1 56 69 0 55 70 1 56 
44 6 31 45 7 32 45 7 32 45 7 32 46 6 32 44 6 31 44 5 32 44 8 36 56 46 55 60 64 67 60 64 67 60 61 65 59 63 64 59 63 66 60 64 67 59 63 66 60 64 67 60 64 67 59 63 66 56 49 57 45 6 35 45 5 31 44 6 31 45 5 31 46 6 32 45 5 31 47 7 33 45 5 31 46 6 32 45 5 31 45 5 31 45 5 31 45 5 31 44 4 30 46 6 32 45 5 31 45 5 31 46 6 32 51 4 40 69 0 55 70 1 56 70 1 56 70 1 56 69 0 55 70 1 56 70 1 56 69 2 56 71 2 57 68 1 54 56 0 45 56 0 45 67 0 53 70 1 56 69 0 55 69 0 55 70 1 56 69 0 55 70 1 56 69 0 55 69 0 55 70 1 56 60 1 49 56 0 45 59 1 49 69 0 55 69 0 55 69 0 55 70 1 56 69 0 55 70 1 56 70 1 56 70 1 56 69 0 55 65 1 53 56 0 45 57 1 46 65 1 53 71 2 57 69 0 55 69 0 55 70 1 56 69 0 55 69 0 55 68 0 54 70 1 56 69 0 55 60 1 47 56 0 45 59 1 49 69 0 55 70 1 56 69 0 55 70 1 56 70 1 56 70 1 56 70 1 56 71 1 55 69 0 57 70 1 56 70 1 56 
46 6 32 45 5 31 46 6 32 45 7 32 45 7 32 45 5 31 45 5 31 46 6 33 45 10 34 57 54 61 60 64 65 60 64 67 58 63 67 60 64 65 60 64 65 58 63 66 60 64 67 60 64 65 59 64 67 58 63 67 45 7 32 46 6 32 45 6 33 45 7 32 46 6 32 46 6 32 45 5 31 45 5 31 45 5 31 45 5 31 45 5 31 45 5 31 45 7 32 46 6 32 45 7 32 45 5 31 44 5 32 46 6 32 48 5 33 68 1 54 70 1 56 70 1 56 70 1 56 69 0 55 70 1 56 71 0 56 71 2 57 70 1 56 67 0 53 57 1 46 57 1 46 68 1 54 70 1 56 69 0 55 70 1 56 70 1 56 70 1 56 68 0 54 69 0 55 70 1 56 69 0 55 60 1 49 56 0 45 58 0 48 70 1 56 69 0 55 71 2 57 71 2 57 70 1 56 70 1 56 69 0 55 70 1 56 70 1 56 64 0 52 57 2 44 57 1 46 66 2 54 70 1 56 69 0 55 70 1 56 70 1 56 69 0 55 70 1 56 69 0 55 70 1 56 70 1 56 59 0 46 55 0 44 59 1 49 70 1 56 69 0 55 70 1 56 69 0 55 70 1 56 69 0 55 69 0 55 69 0 57 70 1 56 71 0 56 70 1 56 
44 4 31 46 6 32 44 6 31 46 6 32 45 7 32 45 7 32 45 6 33 45 5 31 44 6 31 48 16 37 59 58 63 60 64 65 59 63 66 59 63 64 58 64 64 60 64 65 59 63 66 60 64 65 58 63 66 59 65 65 48 19 41 44 6 31 46 6 33 44 6 31 46 6 32 45 5 31 44 4 30 45 5 31 45 5 31 46 6 32 45 5 31 46 6 32 46 6 32 46 6 32 45 5 31 46 8 33 45 5 32 44 6 31 45 5 31 64 2 53 70 1 56 70 1 56 70 1 56 70 1 56 69 0 55 70 1 56 69 0 55 68 1 55 68 1 54 55 0 44 56 0 45 67 0 53 70 1 56 70 1 56 69 0 55 68 0 54 70 1 56 70 1 56 69 0 55 70 1 56 70 1 56 59 0 48 56 0 45 59 2 47 69 0 55 69 0 55 70 1 56 70 1 56 70 1 56 70 1 56 69 0 55 70 1 56 70 1 56 65 1 53 56 1 43 56 1 43 66 2 54 68 0 54 70 1 56 70 1 56 71 2 57 70 1 56 70 1 56 69 0 55 69 0 55 70 1 56 59 2 47 56 0 45 59 1 49 70 1 56 70 1 56 70 1 56 70 1 56 69 0 55 69 0 55 68 1 55 68 1 55 70 1 56 69 0 57 69 0 57 
46 6 32 44 4 30 46 6 32 46 6 32 44 6 31 46 6 32 45 5 31 45 7 32 44 6 29 45 5 31 49 29 41 61 65 68 59 64 67 60 64 67 60 64 67 60 64 67 61 65 68 59 63 66 60 64 67 61 65 68 52 34 48 46 6 32 46 6 32 46 6 32 46 6 32 45 5 31 46 6 32 45 5 31 45 5 31 45 5 31 47 7 33 46 6 32 45 5 31 46 6 32 46 6 32 46 6 32 46 3 30 44 6 31 46 6 32 55 3 41 69 0 55 69 0 55 71 0 56 69 0 55 70 1 56 69 0 55 70 1 56 69 0 55 68 1 54 55 0 44 56 0 45 67 0 53 69 0 55 69 0 55 70 1 56 70 1 56 70 1 56 70 1 56 69 0 55 71 2 57 70 1 56 59 0 48 57 1 46 60 1 47 70 1 56 70 1 56 70 1 56 70 1 56 69 0 55 70 1 56 70 1 56 69 0 55 70 1 56 66 2 54 57 2 44 56 1 43 64 0 52 68 1 55 69 0 55 69 0 55 70 1 56 70 1 56 70 1 56 69 0 55 70 1 56 69 0 55 58 1 46 55 0 44 58 0 48 69 0 55 70 1 56 70 1 56 69 0 55 70 1 56 70 1 56 69 2 56 70 0 55 69 0 55 70 1 58 70 1 56 
45 5 31 45 7 32 45 5 31 44 4 30 45 5 32 45 7 32 46 6 30 44 6 31 45 7 32 45 7 32 45 5 31 55 45 54 58 63 66 59 63 66 59 63 64 58 63 66 59 62 67 60 64 67 60 63 68 59 64 67 55 48 56 46 6 32 48 5 32 45 5 31 44 4 30 45 5 31 46 6 32 46 6 32 46 6 32 46 6 32 45 5 31 45 5 31 45 6 33 44 6 31 45 5 31 44 6 31 44 4 30 45 5 31 45 5 31 48 5 33 70 1 56 71 2 57 70 1 56 70 1 56 70 1 56 70 1 56 70 1 56 70 1 56 67 0 53 56 0 45 57 1 46 67 0 53 69 0 55 69 0 55 68 0 54 69 0 55 71 2 57 69 0 55 70 1 56 70 1 56 70 1 56 60 1 49 55 0 44 59 2 45 70 1 56 69 0 55 69 0 55 70 1 56 69 0 55 70 1 56 70 1 56 70 1 56 70 1 56 66 2 54 54 1 43 57 2 44 65 1 53 69 2 56 69 0 55 69 0 55 70 1 56 71 0 56 69 0 55 70 1 56 69 0 55 71 0 56 58 1 46 56 0 45 59 1 49 71 2 57 70 1 56 70 1 56 69 0 55 69 0 55 69 0 55 70 1 56 70 1 56 70 1 56 69 0 55 70 1 56 
45 5 31 44 4 30 44 6 31 44 6 31 45 7 32 43 5 30 44 6 31 44 6 31 44 6 31 46 6 32 44 6 31 48 10 35 57 55 60 59 65 65 61 65 68 60 64 65 60 64 65 59 63 64 60 64 67 59 63 66 58 58 60 45 7 32 45 7 32 44 6 31 44 6 31 44 6 31 44 6 31 44 6 31 45 7 32 44 6 31 45 5 31 45 5 31 46 6 32 45 5 31 46 6 32 45 7 32 46 6 32 44 6 31 45 5 31 45 5 31 63 1 48 71 0 56 68 1 55 70 1 56 69 0 54 69 2 56 70 0 55 69 0 55 69 0 54 58 2 47 56 0 45 67 0 53 70 1 56 69 0 55 69 0 55 71 0 56 69 0 55 69 0 55 70 1 56 70 1 56 70 1 56 59 0 48 56 0 45 58 1 46 70 1 56 69 0 55 70 1 56 70 1 56 69 0 55 69 0 55 70 1 56 70 1 56 69 0 59 67 0 53 57 1 46 56 0 45 65 1 53 69 0 55 70 1 56 69 0 55 70 1 56 70 1 56 70 1 56 69 0 54 69 0 55 69 0 55 58 1 46 56 0 45 58 1 46 69 0 55 69 2 56 69 0 55 69 0 54 69 0 55 70 1 56 70 1 56 69 0 55 68 0 54 68 0 54 70 1 56 
44 6 31 43 5 30 45 5 31 45 5 31 46 6 32 44 6 31 44 6 31 47 7 33 46 6 32 44 6 31 45 5 31 44 6 31 47 18 38 60 61 65 59 64 67 59 63 64 59 64 67 59 63 66 59 63 66 59 64 67 58 62 65 47 15 36 46 6 32 46 6 32 46 8 33 45 7 32 44 6 31 44 6 31 44 6 31 45 7 32 46 6 32 46 6 32 44 6 31 46 6 32 43 5 30 42 7 31 44 6 31 45 7 32 45 7 32 45 5 31 54 4 39 68 1 55 70 1 56 68 0 54 69 0 54 69 0 55 70 0 55 69 0 54 67 0 53 56 0 45 57 1 46 68 1 54 70 1 56 70 1 56 69 0 55 69 0 55 70 1 56 70 1 56 69 0 55 69 0 55 70 1 56 59 0 48 57 1 46 58 0 48 69 0 55 69 0 55 69 0 55 69 0 55 70 1 56 69 0 55 70 1 56 70 1 56 69 0 55 65 1 53 56 1 43 56 0 45 65 1 53 69 0 55 70 1 56 70 1 56 70 1 56 71 2 57 70 1 56 70 1 56 70 1 56 70 1 56 58 1 46 57 1 46 58 1 46 70 1 56 70 1 56 70 1 56 69 0 55 70 1 56 70 1 56 70 1 56 70 1 56 69 0 55 69 0 55 69 0 55 
