P3
100 50
255
99 99 97 91 94 85 83 90 74 81 90 73 83 90 74 95 98 91 98 99 94 97 99 96 98 99 94 98 98 96 97 99 94 97 99 96 98 98 96 96 98 93 98 99 94 98 99 93 39 30 15 26 14 2 26 14 2 37 29 16 98 99 94 83 91 76 83 91 76 83 90 74 80 72 53 79 37 15 80 38 16 64 32 11 24 14 2 26 14 2 25 13 0 70 65 61 52 43 34 28 14 1 33 23 13 89 86 81 97 99 94 59 52 42 26 14 0 24 15 0 26 14 0 51 49 34 37 27 15 27 15 1 26 14 2 26 14 0 35 25 15 96 98 93 72 67 61 27 15 3 67 65 52 83 90 74 82 89 73 83 90 72 83 90 74 82 91 74 83 90 74 83 90 74 82 90 75 83 90 74 82 91 74 81 90 73 82 91 74 83 89 75 83 90 74 81 73 54 81 46 27 81 36 15 79 37 15 80 38 16 79 37 15 79 37 15 79 37 15 79 37 15 79 37 15 78 40 19 73 83 59 72 82 58 73 82 61 73 82 61 74 82 61 73 82 61 73 83 59 73 82 63 73 83 59 72 82 58 78 42 20 80 39 17 81 36 15 80 38 16 78 37 15 73 76 55 74 84 60 73 83 59 73 83 59 73 83 59 73 83 59 73 83 59 73 83 59 73 83 59 
97 98 93 92 95 86 83 90 74 81 90 73 84 91 75 95 98 91 98 99 94 96 98 95 100 101 96 97 97 95 98 100 95 97 99 96 97 99 96 97 97 95 97 98 93 98 100 95 39 29 19 27 15 1 27 15 1 38 28 16 97 99 94 84 90 76 83 90 74 81 90 73 81 73 54 82 37 14 79 37 15 64 31 12 29 13 0 27 13 0 26 12 1 60 53 45 30 18 6 27 13 4 26 14 0 64 57 51 97 99 96 86 85 80 27 15 3 26 14 2 26 14 0 31 19 5 34 25 10 24 14 2 26 14 2 27 13 0 36 26 14 96 98 93 71 68 61 26 14 2 30 18 4 58 56 41 81 90 73 82 90 75 83 89 75 83 90 74 80 89 72 83 90 74 82 91 74 81 90 73 83 90 74 80 91 75 83 90 74 81 90 73 83 90 74 82 89 73 82 85 66 81 60 41 80 39 19 79 36 17 79 37 15 79 37 15 80 38 14 80 38 16 78 37 15 78 47 26 74 82 61 73 83 59 72 82 58 73 83 59 72 82 58 73 83 59 73 83 59 73 82 61 71 83 59 73 78 55 79 38 16 79 37 15 79 37 15 79 37 15 80 45 23 72 80 57 72 82 58 71 83 59 72 82 58 71 83 59 73 83 59 72 82 58 71 83 59 74 82 59 
98 98 96 92 95 86 83 90 74 81 90 73 82 89 73 94 97 90 98 99 94 97 99 94 98 99 94 98 99 94 97 99 96 97 99 96 98 99 94 97 99 94 97 100 93 99 100 94 39 30 15 25 13 0 25 13 1 40 28 16 97 98 93 84 91 75 82 89 73 82 89 73 80 71 54 79 36 17 79 37 15 66 31 9 26 14 0 27 13 0 27 13 0 59 52 44 30 18 6 27 13 2 26 14 2 59 55 44 97 99 96 98 100 95 48 40 29 26 14 0 27 13 0 26 12 1 26 13 4 26 12 1 26 12 0 25 13 1 36 24 10 98 100 95 72 69 60 26 14 0 27 13 0 26 14 2 75 77 66 83 90 74 82 91 74 82 90 75 82 89 73 82 91 72 83 90 74 82 91 74 83 90 74 81 90 73 81 90 73 83 90 74 83 90 74 82 91 74 84 90 78 82 91 74 83 84 66 80 54 37 79 38 16 78 37 15 79 37 15 79 36 17 79 37 15 77 56 35 70 82 60 70 82 58 72 82 58 72 81 60 73 83 59 73 83 59 72 81 60 73 81 60 70 82 60 73 71 48 79 37 15 81 39 17 79 37 15 80 38 16 77 49 27 70 82 58 72 82 58 74 84 60 74 84 60 70 82 58 73 83 59 71 83 59 73 83 59 71 83 59 
99 99 97 92 95 86 83 90 74 82 91 74 82 89 73 94 97 90 98 98 96 96 98 93 98 99 94 97 98 93 96 98 95 96 98 95 98 99 94 97 97 95 97 99 94 97 99 96 38 30 17 26 14 2 25 13 0 38 28 16 97 99 94 83 89 75 82 89 73 83 90 74 80 72 53 79 38 16 79 36 17 66 31 12 27 15 3 25 13 0 26 14 0 59 52 44 30 18 6 26 12 1 26 14 0 61 54 44 94 99 93 96 98 95 80 81 76 29 15 4 26 14 2 26 14 2 26 14 2 26 14 0 26 14 2 28 14 1 35 25 13 95 100 94 73 70 63 26 14 0 26 14 0 26 14 2 81 76 72 96 97 91 82 90 75 85 89 74 82 89 73 83 90 74 82 89 73 83 90 72 82 89 73 82 88 74 82 89 73 83 90 74 81 90 73 81 90 73 82 91 74 82 91 74 83 90 74 82 89 73 82 81 63 81 54 35 78 37 15 79 36 17 79 36 17 74 62 40 72 82 58 73 83 59 73 83 59 71 83 61 70 82 60 70 82 58 72 81 60 70 82 58 71 83 59 75 63 39 79 37 15 79 37 15 79 37 15 79 37 13 75 55 31 72 81 60 73 83 59 70 82 58 73 83 59 71 83 59 73 83 59 71 83 59 72 82 58 71 81 57 
97 98 93 91 94 85 81 90 73 82 90 69 82 88 74 92 97 91 96 98 95 97 97 95 98 100 95 97 98 93 98 99 94 97 99 94 97 99 94 97 99 94 97 99 94 97 99 94 39 29 17 26 14 0 26 14 0 38 28 16 97 99 96 83 89 75 83 90 74 83 92 75 82 70 54 78 37 15 79 37 15 66 31 12 26 12 1 24 15 0 26 14 0 58 51 41 29 16 7 26 12 1 26 12 1 59 55 44 97 97 97 97 98 93 95 97 92 53 41 27 26 12 1 26 14 0 27 13 0 25 11 0 26 14 0 26 12 1 31 19 7 69 66 59 63 59 50 27 14 0 26 14 2 27 15 1 78 77 72 97 98 93 96 98 93 87 93 81 82 91 74 82 91 74 84 90 76 83 90 74 83 90 74 82 91 74 82 89 73 85 89 74 82 89 73 83 90 74 83 90 72 82 91 74 84 91 75 82 89 73 83 90 74 82 89 73 82 77 58 81 54 35 80 38 16 75 69 47 71 84 58 72 82 58 71 80 59 71 80 59 72 81 60 72 82 58 72 82 58 73 83 59 73 82 61 77 57 33 79 37 15 79 37 15 79 37 15 79 37 15 76 61 40 70 82 60 72 82 58 73 82 61 71 83 59 73 83 59 70 82 60 72 82 58 73 83 59 71 83 61 
98 99 94 91 94 85 81 90 73 82 89 73 83 90 74 94 97 90 98 99 94 98 99 94 97 99 94 97 99 96 97 98 93 96 98 95 97 99 94 96 98 93 96 98 93 96 98 93 39 29 17 26 14 0 27 15 1 38 28 16 97 99 94 84 91 75 82 89 73 81 90 73 81 69 53 79 37 15 80 38 16 66 31 12 27 13 0 25 11 0 26 14 0 59 52 44 29 17 5 27 13 2 26 14 0 61 54 46 95 99 98 97 97 95 98 101 94 85 57 43 48 22 7 26 12 1 26 14 2 25 13 0 25 13 1 26 13 4 26 12 1 27 13 0 26 14 0 27 13 0 26 14 2 27 13 2 37 27 15 47 37 28 51 44 34 57 53 44 59 57 44 79 83 68 82 88 74 83 90 72 82 89 73 82 89 73 83 90 74 82 88 74 82 89 73 82 89 73 83 90 74 81 90 73 82 91 74 83 89 75 81 90 73 83 90 74 83 89 75 83 90 74 81 80 62 77 82 62 73 82 61 73 83 59 72 81 60 70 82 58 73 82 61 71 83 59 73 82 61 72 82 58 70 82 58 78 50 29 79 37 15 80 35 14 78 37 17 79 36 17 74 69 47 73 83 59 71 83 59 69 81 57 70 82 58 70 82 58 71 83 61 73 82 61 73 81 58 70 83 57 
96 98 95 91 94 85 81 90 73 82 91 74 82 89 73 95 98 91 96 98 93 95 100 94 96 98 93 96 98 95 96 99 92 97 98 93 97 99 94 97 99 94 97 99 94 97 99 94 39 29 17 26 14 0 26 14 0 37 27 15 97 99 94 83 90 74 82 91 74 82 91 74 81 69 53 79 37 15 80 38 16 66 31 11 27 15 3 26 12 1 26 14 2 60 54 42 29 17 5 25 13 1 26 12 1 59 55 44 97 99 94 96 98 93 97 99 94 84 56 42 78 37 15 55 42 26 28 14 1 27 13 2 26 12 1 27 13 2 25 13 1 26 14 2 27 15 1 26 14 0 26 14 2 25 13 1 25 13 0 26 12 1 27 13 0 27 13 0 25 13 1 31 19 7 64 62 49 82 91 74 82 91 74 83 92 75 81 90 73 82 89 73 82 89 73 82 91 74 81 90 73 82 91 74 82 89 73 83 89 75 81 90 73 83 90 74 84 88 73 82 91 74 83 90 74 82 91 74 81 90 73 78 87 68 75 84 63 70 82 58 73 83 59 71 83 59 70 82 58 70 82 58 71 81 57 78 46 23 79 38 16 79 37 15 78 35 16 80 39 17 73 76 55 72 81 60 73 83 59 70 82 58 70 82 58 71 83 61 72 81 60 70 82 58 72 82 58 73 83 59 
97 99 96 90 93 84 81 90 73 82 91 74 81 88 72 92 97 90 95 100 94 97 99 94 97 98 93 98 100 97 97 99 94 96 98 93 97 99 94 97 99 94 97 99 94 97 99 94 39 29 17 25 13 0 26 14 0 38 28 16 97 99 96 82 91 74 82 91 74 82 91 74 82 70 54 79 36 17 79 37 15 73 35 14 30 14 1 25 11 0 29 17 5 71 68 61 27 20 4 26 14 0 27 13 0 61 54 44 97 99 94 97 99 94 97 98 93 85 56 40 79 37 15 80 73 54 38 31 15 26 14 2 25 13 1 25 13 0 26 14 2 26 13 4 24 14 2 26 14 2 26 14 0 26 14 0 26 14 0 26 14 2 26 12 1 26 14 0 26 14 0 28 11 1 26 14 0 42 34 21 74 77 60 82 89 73 82 91 74 82 89 73 82 91 74 82 90 75 81 90 73 82 88 74 83 90 74 82 91 72 83 90 74 83 90 74 82 89 73 83 90 74 83 89 75 83 90 74 81 90 73 81 90 73 80 91 74 80 89 70 77 86 65 72 84 60 71 83 59 71 83 59 74 76 54 79 38 16 79 36 17 79 37 15 80 37 18 80 39 19 71 81 57 72 81 60 69 81 57 73 83 59 70 82 58 71 83 61 69 81 59 72 82 58 73 83 59 71 83 61 
96 98 95 91 94 87 82 89 73 83 90 74 83 90 74 95 98 91 98 99 94 97 99 96 94 99 93 98 100 95 97 99 94 97 100 93 97 99 94 98 100 95 97 99 94 96 98 93 39 29 17 25 13 0 25 13 0 36 26 14 98 98 96 84 90 76 83 90 74 82 89 73 81 69 53 79 37 15 80 38 16 79 37 15 66 31 12 60 53 43 80 77 72 85 84 79 29 17 5 26 14 2 27 13 2 59 55 46 97 97 95 97 98 93 98 99 94 83 54 38 80 38 16 80 73 54 64 62 49 27 13 0 26 12 1 26 14 2 30 18 6 65 60 54 45 35 23 26 12 1 25 13 0 25 13 1 29 17 3 28 19 4 28 16 4 26 14 2 25 13 1 25 13 0 27 13 2 27 15 1 33 21 9 57 55 40 81 88 72 83 90 74 83 90 74 83 90 74 82 91 74 82 89 73 82 91 74 80 89 72 83 90 74 81 90 73 82 89 71 83 90 72 81 90 73 82 91 74 81 90 73 83 90 74 81 90 73 82 89 71 82 91 74 81 90 71 76 88 68 75 84 63 74 67 48 79 36 17 78 37 15 80 38 16 79 37 15 75 43 20 72 82 58 72 82 58 72 82 58 72 82 58 70 84 59 69 83 58 70 82 60 73 82 61 70 82 58 72 82 58 
97 99 94 94 97 90 83 89 75 83 91 70 85 91 77 96 99 92 98 99 93 97 97 95 97 99 94 97 99 94 97 99 94 97 99 94 97 99 94 97 99 94 96 98 93 97 99 94 39 29 17 26 14 0 25 13 0 37 27 15 97 98 93 84 91 75 82 89 73 82 89 73 82 71 53 79 37 15 80 38 16 81 36 17 80 38 16 96 93 88 97 99 94 84 83 78 28 18 6 26 12 1 26 12 3 58 53 49 96 98 93 97 99 96 97 99 94 84 53 35 78 37 15 81 72 55 83 90 74 44 38 22 26 14 0 26 14 2 39 27 15 97 98 93 72 69 62 25 15 5 26 14 2 27 13 2 75 75 67 93 92 88 90 91 86 87 88 83 85 86 78 82 79 74 75 72 67 69 65 56 75 71 62 25 13 1 38 31 15 66 67 53 82 88 74 82 89 73 83 90 74 82 88 74 83 89 75 83 89 75 81 90 71 83 90 74 83 92 75 83 90 74 82 89 73 83 89 75 81 90 73 83 90 74 82 89 73 83 90 74 83 90 74 82 91 72 83 90 74 82 89 73 83 87 73 81 74 56 82 56 39 80 45 26 80 38 16 78 42 20 71 79 56 71 81 57 70 82 58 72 82 58 73 83 59 70 82 58 70 82 58 70 82 58 69 83 58 71 83 59 
96 98 95 96 98 93 93 96 89 92 95 88 95 98 91 96 98 93 97 98 93 98 98 96 95 100 94 96 98 93 97 98 93 98 99 94 97 99 94 96 98 93 97 99 94 96 98 93 39 29 17 26 14 0 26 14 0 38 28 16 97 98 93 84 90 76 82 89 73 82 89 73 82 71 53 81 36 15 78 37 15 79 37 15 78 37 15 94 95 89 98 98 96 85 84 80 29 17 3 27 13 0 26 14 0 61 54 46 96 98 93 96 98 93 96 98 93 83 52 34 79 37 15 83 72 52 82 91 74 70 72 58 33 21 7 27 15 0 65 43 29 96 99 92 72 67 61 27 13 0 27 15 3 26 14 2 78 77 72 96 98 93 97 99 94 96 98 93 97 97 95 95 97 92 97 99 94 96 98 95 89 88 84 26 14 2 26 12 1 28 14 1 68 64 53 82 88 74 82 89 73 82 89 71 82 89 73 83 89 75 83 90 74 82 89 73 81 90 73 82 89 73 82 89 73 82 91 74 83 90 74 84 91 75 83 90 74 82 90 75 83 90 74 82 91 74 82 89 73 82 89 73 84 88 74 82 88 74 81 90 73 83 87 72 81 80 62 81 70 50 76 79 58 73 82 61 70 82 58 69 81 57 73 82 61 72 81 60 73 83 59 70 82 58 72 81 60 73 81 58 
98 99 94 97 98 93 97 97 97 97 99 94 96 98 95 98 99 94 97 98 93 97 97 95 96 98 93 96 98 95 98 98 96 98 98 96 96 98 93 96 98 93 96 98 93 96 98 93 39 29 17 26 14 0 25 13 0 38 28 16 96 98 95 84 90 76 82 89 73 83 90 74 82 71 53 81 36 15 79 37 15 79 37 15 80 37 18 94 95 90 98 99 94 85 84 80 30 18 6 26 14 0 25 13 0 61 54 44 99 100 95 98 100 95 97 99 94 82 51 33 79 36 17 79 72 53 82 89 73 83 90 74 82 83 67 78 37 15 84 53 33 97 97 95 79 76 71 24 14 2 26 14 2 27 15 3 84 83 78 95 97 92 97 99 94 97 98 93 96 98 93 97 99 94 98 98 96 97 99 96 88 89 84 26 14 2 26 13 4 26 14 0 65 60 54 69 66 59 44 38 24 72 76 61 82 89 73 83 89 75 82 89 73 82 91 74 83 90 72 81 89 74 81 90 73 83 90 74 82 91 74 84 91 75 82 91 74 82 89 73 81 90 73 83 90 74 82 91 74 82 91 74 82 89 73 82 89 73 82 88 74 83 90 74 82 91 74 82 90 75 81 90 73 82 89 73 82 89 73 79 88 69 81 85 68 75 84 63 74 83 62 71 83 63 74 84 60 76 61 40 
97 98 93 97 98 93 98 99 94 97 98 93 97 98 93 96 98 93 97 99 94 97 98 93 97 98 93 96 98 93 97 99 94 97 98 93 96 98 95 97 97 95 96 98 95 97 99 94 42 32 22 27 13 0 26 14 0 40 30 20 98 100 97 83 91 76 82 91 74 81 88 72 81 70 50 79 37 15 78 38 13 79 37 15 80 38 14 96 97 92 96 97 92 84 83 79 29 17 5 26 14 2 26 14 0 61 54 46 95 97 92 97 99 94 97 98 93 81 48 31 79 36 17 79 61 41 83 90 74 83 90 74 81 75 59 79 37 15 83 54 38 96 98 93 95 97 92 59 55 46 34 24 12 61 57 46 96 98 93 96 98 93 97 98 92 96 98 93 98 99 94 98 98 96 98 99 94 97 100 93 87 86 84 26 14 0 26 14 0 26 14 2 65 61 52 69 66 59 24 14 2 30 18 6 48 40 27 82 86 71 82 89 73 82 89 73 81 90 73 81 88 72 82 90 75 81 90 73 83 92 75 82 89 73 82 89 73 82 89 73 82 89 73 81 90 73 83 92 75 81 90 73 81 89 74 84 88 73 82 89 73 82 89 73 82 89 73 83 90 74 82 89 73 82 89 73 82 89 73 81 89 74 82 91 74 81 89 74 82 90 75 81 88 72 80 87 69 80 73 55 
96 97 92 99 100 95 97 98 93 98 99 94 96 98 93 97 98 93 97 98 93 97 99 94 97 99 94 97 98 93 96 97 92 97 99 94 97 99 94 96 98 93 99 99 97 98 100 95 72 67 61 30 18 4 31 19 7 74 71 64 97 97 95 87 89 76 81 88 72 81 85 70 81 48 29 78 36 14 79 37 15 82 37 18 79 37 15 96 97 92 96 98 93 84 83 78 29 17 3 26 14 0 26 12 1 61 54 46 97 99 94 97 99 94 97 98 93 83 47 31 79 37 15 80 38 16 83 58 38 80 62 42 78 42 20 80 38 16 83 54 38 97 98 93 98 98 96 97 99 94 97 98 93 97 99 94 97 97 95 96 98 93 95 97 94 97 99 94 98 99 94 97 97 95 97 98 93 98 98 96 87 90 83 27 13 0 26 14 2 26 14 0 68 61 53 69 66 59 27 13 2 26 14 0 27 15 1 83 84 78 89 95 83 86 92 80 82 91 74 82 89 73 83 89 75 82 91 74 80 92 72 83 89 75 82 91 74 82 89 73 85 89 75 83 90 74 81 90 73 82 89 73 82 89 73 82 89 73 83 90 74 82 89 73 83 90 74 83 90 74 83 90 74 83 90 74 80 91 74 82 91 74 82 89 73 82 90 75 81 90 73 82 88 74 81 90 73 82 89 73 
98 99 94 98 99 94 97 98 93 98 99 94 97 98 93 96 98 93 97 99 94 97 98 93 97 98 93 96 98 93 97 99 94 97 98 93 98 98 96 96 98 93 97 99 94 96 98 93 97 99 96 91 92 87 89 88 84 97 98 93 96 98 95 88 70 58 80 42 21 80 43 24 79 37 15 78 35 16 80 38 16 78 36 14 79 37 15 97 97 95 97 97 95 87 88 82 31 19 7 26 14 0 27 13 2 63 58 52 97 98 93 96 98 93 97 99 94 82 47 27 79 36 17 79 36 17 80 37 18 79 37 15 79 36 17 78 37 15 85 56 40 98 99 94 98 99 94 96 98 93 97 98 93 97 99 96 97 97 95 97 98 93 97 99 96 97 98 93 97 98 93 98 99 93 97 98 93 97 99 96 88 87 82 24 15 0 27 13 2 26 14 0 66 62 53 84 83 78 33 21 9 26 12 1 38 26 12 94 93 89 94 99 93 96 98 93 91 97 87 85 91 77 84 91 75 82 91 72 82 89 73 80 88 73 82 91 74 82 91 74 82 91 74 83 92 75 82 89 73 82 89 73 83 89 75 82 91 74 81 90 73 81 88 72 82 89 73 81 90 73 79 90 73 82 89 73 84 90 76 82 89 73 81 88 72 83 90 74 81 90 73 83 90 72 82 90 75 81 87 73 
98 99 94 97 98 93 98 99 94 96 97 92 96 98 93 98 99 94 97 98 93 96 98 93 97 99 94 97 98 93 97 98 93 97 99 94 97 99 96 98 99 94 97 97 95 96 98 93 96 98 93 97 99 94 97 99 96 96 98 95 97 97 95 87 69 57 79 37 15 80 37 18 77 36 14 79 37 15 79 37 15 78 37 17 78 36 14 97 98 93 97 98 93 98 98 96 64 61 54 29 17 5 42 32 22 90 91 85 96 98 93 96 98 93 97 98 93 81 46 27 79 37 15 79 37 15 79 37 13 78 36 14 79 37 15 79 37 15 83 56 39 96 98 93 96 98 95 96 98 93 98 99 94 97 97 95 96 98 95 95 97 94 97 99 96 95 97 94 96 98 95 97 98 93 97 97 95 96 98 95 93 94 89 30 20 8 26 14 0 27 15 3 75 75 67 98 99 94 87 86 81 71 68 61 90 91 86 97 98 93 98 99 94 96 98 93 97 99 96 97 98 93 96 98 93 88 94 84 83 91 76 83 90 74 81 90 73 82 89 73 82 89 71 82 89 73 81 90 73 82 91 74 81 89 74 81 89 74 82 91 74 80 91 74 82 91 74 83 90 74 82 89 73 81 89 74 82 91 74 80 89 70 81 90 73 82 89 73 81 88 72 81 90 71 82 89 73 82 89 73 
98 99 94 97 98 93 97 98 93 96 97 92 96 98 93 97 98 93 98 99 94 96 98 93 97 99 94 97 98 93 97 98 93 96 98 93 96 98 93 96 98 95 97 99 96 97 98 93 98 99 94 96 98 93 97 97 95 96 98 95 97 98 93 88 69 55 79 36 17 79 37 15 80 38 16 79 37 15 78 35 16 79 37 15 80 38 16 97 99 96 97 98 93 97 99 96 97 97 95 96 97 92 96 98 93 96 98 95 98 98 96 96 98 93 96 98 95 80 43 25 80 37 18 78 37 15 78 37 15 79 36 17 79 36 17 78 37 17 86 57 43 96 98 95 96 98 93 98 99 94 97 99 96 97 99 94 97 99 96 98 97 95 98 98 96 97 99 94 97 98 93 97 99 94 96 98 93 97 99 94 96 98 93 81 78 71 52 45 35 72 69 62 96 97 92 98 98 96 97 99 94 97 98 93 97 98 93 97 99 96 97 99 94 96 98 93 98 99 94 97 98 93 96 98 93 96 97 92 97 99 94 94 97 88 86 92 80 83 92 75 80 89 72 81 90 73 82 89 73 82 88 74 82 89 73 82 89 73 81 87 73 83 89 75 81 90 73 82 89 73 82 89 73 81 89 74 82 91 72 81 90 73 81 90 73 82 89 73 82 91 74 83 90 74 81 88 72 82 91 74 
97 98 93 97 98 93 96 97 92 97 98 93 97 98 93 96 98 93 96 98 93 97 98 93 97 98 93 96 98 93 96 98 93 97 98 93 97 98 93 96 98 93 97 98 93 96 98 93 95 97 94 97 98 93 98 99 94 97 99 96 96 98 93 88 66 53 79 37 15 78 35 16 78 37 15 81 36 15 79 37 15 79 37 15 78 40 19 96 98 95 96 98 93 97 99 94 97 97 95 96 98 93 97 98 93 96 96 96 96 98 93 96 98 93 96 97 92 80 43 24 78 37 15 78 36 14 77 36 14 79 36 17 79 37 15 78 37 15 85 57 43 96 96 94 96 98 93 96 98 95 96 98 93 97 99 94 98 98 96 97 99 96 96 97 92 97 98 93 96 98 93 96 98 93 97 98 93 98 97 92 97 99 96 97 98 93 96 98 93 96 98 93 96 96 94 98 99 94 96 98 93 97 98 93 97 97 95 96 98 93 96 98 93 96 98 93 97 99 94 96 97 92 97 98 93 96 98 93 98 99 94 97 98 93 96 98 93 95 97 92 91 96 89 87 93 83 85 91 77 82 89 73 82 89 73 82 89 73 82 89 73 81 90 73 80 89 72 82 89 73 82 89 71 81 90 73 82 89 73 82 88 74 81 87 73 81 90 73 81 89 74 82 90 75 83 90 74 82 89 73 
97 97 95 97 97 95 96 96 94 97 97 95 96 98 93 97 98 93 97 98 93 95 97 92 96 98 93 97 98 93 97 98 93 96 98 93 98 100 95 96 98 93 96 98 95 96 97 92 96 96 94 98 99 94 97 99 96 96 98 95 98 97 95 86 64 50 79 37 15 81 36 17 78 37 17 77 36 14 78 37 17 78 37 15 78 41 22 97 98 93 96 98 93 95 97 92 97 98 93 96 98 93 97 99 96 97 97 95 97 97 95 97 97 95 95 97 92 80 43 24 80 37 18 79 36 17 79 37 15 79 37 15 81 36 17 78 36 14 85 57 43 96 98 95 96 98 93 96 97 91 84 92 79 84 90 76 93 95 90 88 87 82 48 39 30 39 29 19 39 31 20 43 33 23 43 36 26 47 39 28 49 41 30 50 44 32 53 44 35 55 48 40 45 37 26 46 38 27 66 61 55 70 67 60 77 72 66 77 77 69 80 79 77 83 82 77 84 84 82 88 89 83 88 89 84 92 93 88 93 94 89 98 99 94 97 98 93 97 97 95 98 99 94 97 99 94 97 98 93 95 98 91 90 93 84 87 90 79 82 89 73 82 91 74 81 90 73 81 90 73 82 90 75 82 88 74 81 89 74 81 90 73 83 89 75 82 89 73 82 89 73 81 89 74 81 90 73 82 88 74 
98 98 96 96 96 94 97 97 95 96 96 94 97 98 93 95 97 92 96 98 93 97 98 93 97 98 93 96 98 93 96 98 93 96 97 92 96 96 94 97 96 94 98 99 94 98 98 96 96 98 93 96 98 95 96 98 93 96 96 94 98 99 94 86 64 50 79 37 15 78 37 15 79 37 15 79 37 15 78 37 15 79 37 15 80 43 24 96 98 93 97 98 93 97 97 95 95 97 92 97 98 93 97 97 95 97 97 95 97 97 95 98 98 96 95 96 90 80 42 23 79 37 15 79 36 17 79 37 15 78 37 15 78 37 17 79 37 15 84 58 43 96 98 95 96 96 94 87 91 77 82 91 74 82 89 73 86 92 80 45 37 26 26 14 2 27 13 2 26 14 2 27 15 3 27 13 2 24 12 0 25 13 0 25 11 0 27 15 1 26 14 2 26 14 2 26 12 1 26 14 2 27 13 0 26 12 0 26 12 1 24 15 0 26 14 2 26 12 1 25 11 0 27 13 2 26 14 2 26 14 2 25 13 0 29 17 5 32 20 6 35 25 13 38 28 18 43 30 21 44 36 25 46 37 28 50 41 32 52 46 34 51 45 33 55 53 40 67 71 54 80 87 71 81 90 73 82 89 73 80 91 74 82 89 73 81 87 73 81 90 71 83 90 74 82 89 73 81 90 73 
96 98 93 96 96 94 95 97 92 92 95 86 90 95 88 96 97 92 97 98 93 96 98 93 97 98 93 96 98 95 95 97 94 97 97 95 96 98 93 96 97 92 97 98 93 97 98 93 97 98 93 97 98 93 98 99 94 96 98 93 96 98 93 85 61 49 79 37 15 78 37 17 79 36 17 81 44 25 78 57 38 79 46 27 81 46 27 96 98 95 96 98 93 96 98 93 95 97 94 95 97 94 95 97 94 96 98 93 96 98 95 95 97 94 96 97 92 82 41 23 78 37 19 79 37 15 81 36 15 77 36 14 79 37 15 78 36 14 86 60 45 98 98 96 97 99 94 86 92 78 82 91 74 81 90 73 84 90 76 45 37 26 27 13 2 26 14 0 29 13 0 26 14 0 26 14 0 25 13 0 26 14 2 26 14 0 26 12 1 26 14 2 26 14 0 26 12 1 27 13 2 26 14 2 27 13 2 25 13 1 26 14 2 27 13 0 26 14 0 26 14 0 26 12 1 26 14 0 26 14 0 27 15 1 24 12 0 27 13 0 26 14 0 25 13 1 27 13 0 27 15 3 27 13 0 25 13 0 25 13 0 26 14 0 26 14 2 26 14 2 27 15 3 36 28 17 46 40 28 57 58 42 67 69 55 76 83 65 80 87 71 81 90 73 81 90 73 81 90 73 
96 96 94 98 99 94 85 93 80 82 89 73 81 90 73 91 94 85 97 98 93 97 99 94 98 99 94 98 99 94 96 98 95 97 97 95 96 98 93 98 99 94 96 97 92 97 98 93 97 98 93 97 98 93 98 99 94 96 98 93 97 98 93 85 62 48 79 36 17 80 38 16 81 40 20 82 86 69 81 90 73 83 87 72 81 52 34 96 98 93 96 98 93 96 98 93 96 98 95 96 98 95 96 96 94 97 97 95 96 96 96 97 98 92 95 96 91 81 43 22 78 37 17 78 37 17 78 36 14 79 37 15 78 36 14 78 36 14 87 61 48 96 96 94 96 96 94 85 91 77 81 89 74 81 90 73 84 90 76 84 86 75 46 37 28 33 23 11 35 23 11 31 21 9 33 21 7 31 19 7 30 18 4 30 18 4 27 15 1 25 13 1 26 14 0 26 14 0 26 12 1 25 13 0 26 14 2 27 13 0 26 12 1 25 13 0 26 14 0 26 14 0 26 14 2 26 12 1 26 12 1 27 13 0 26 14 0 25 13 0 25 13 0 25 13 0 27 13 0 26 12 3 25 13 0 25 13 1 26 14 0 26 14 0 26 14 0 26 14 2 27 13 0 26 12 1 26 12 1 26 14 0 26 12 1 30 18 6 37 27 15 43 36 20 50 44 30 57 55 40 
97 98 93 97 98 93 84 90 76 80 89 72 81 90 71 87 90 79 94 99 95 96 98 93 95 95 93 97 98 92 96 98 93 97 97 95 96 98 93 97 98 93 98 99 94 98 99 94 96 97 92 97 98 93 96 97 92 96 98 93 96 97 92 83 60 46 79 36 17 79 36 17 79 51 30 81 90 73 81 88 72 82 88 74 84 66 52 95 97 94 97 97 95 97 97 95 97 98 93 94 99 93 96 98 93 96 98 93 96 96 94 98 98 96 95 94 90 80 42 21 78 37 17 78 35 16 78 35 16 79 36 17 79 37 15 79 37 15 86 63 49 95 97 92 98 98 96 85 91 77 82 89 73 82 91 74 84 90 76 95 98 91 98 99 94 96 98 93 97 98 93 95 95 93 93 94 89 92 93 88 91 91 89 78 77 72 25 16 1 26 14 2 25 13 0 36 24 12 79 76 71 80 77 70 77 74 67 73 74 68 72 69 62 70 65 59 66 63 54 62 58 47 61 54 46 58 51 41 53 46 36 51 42 33 46 39 29 44 36 25 41 33 22 39 29 19 39 27 15 37 24 15 33 23 11 33 21 9 32 20 8 29 17 5 27 15 1 26 12 1 27 13 4 25 13 1 25 13 1 25 13 1 26 12 1 26 14 0 27 13 0 26 14 0 26 12 1 27 13 0 
97 97 95 97 97 95 85 89 75 81 89 74 80 89 72 85 91 79 96 96 94 96 96 94 95 97 92 97 97 95 97 98 93 96 98 95 96 98 93 96 97 92 97 98 93 97 98 93 97 98 93 97 98 93 97 98 93 96 98 93 97 97 95 85 58 41 79 37 15 79 37 15 79 50 32 81 90 73 82 91 74 82 89 73 82 69 53 97 98 93 96 97 92 96 98 95 96 98 93 96 98 97 96 98 93 93 98 92 97 97 95 97 97 95 95 94 90 80 42 21 78 36 14 77 36 14 79 37 15 79 36 17 79 37 15 78 36 14 86 64 51 96 98 95 97 98 93 84 90 78 82 89 73 81 90 73 84 92 79 96 98 93 97 98 93 95 97 92 97 98 93 97 98 93 96 98 95 96 98 93 96 98 95 53 46 38 26 14 2 26 14 2 26 14 0 59 55 46 96 98 93 97 97 95 97 98 93 97 98 93 97 98 93 97 98 93 96 96 94 96 98 93 96 98 95 96 96 94 97 98 92 96 98 93 95 97 94 98 99 94 97 98 93 96 98 95 97 98 93 97 98 93 96 96 94 97 98 93 96 98 95 95 97 94 96 96 94 96 97 91 92 93 88 89 90 85 88 89 84 85 86 81 84 83 78 82 81 76 81 80 75 80 77 72 78 75 68 76 73 64 
96 98 93 97 97 95 84 90 76 81 88 72 81 88 72 86 92 80 95 97 92 94 99 93 97 99 94 96 96 94 96 97 92 96 98 93 97 98 93 96 98 93 96 98 93 96 98 93 95 97 92 96 98 93 96 98 93 96 97 92 95 97 96 85 56 40 78 36 14 81 36 15 79 51 30 81 89 74 83 90 74 81 90 73 82 69 53 96 97 91 97 98 93 97 98 93 96 98 93 97 97 95 96 98 93 95 97 94 97 98 93 98 99 94 97 93 90 79 41 22 79 37 15 79 37 15 77 36 14 79 37 15 79 37 15 79 37 15 86 64 51 97 97 95 97 98 93 85 91 79 82 89 73 80 89 72 84 90 76 95 97 92 96 98 93 96 96 94 98 99 94 96 98 93 96 98 95 96 98 93 88 87 82 27 15 3 26 14 0 26 14 0 34 22 10 93 94 89 96 98 93 96 96 94 96 96 94 98 98 96 96 98 93 96 98 95 97 98 93 97 98 93 93 94 89 88 89 84 84 83 81 80 76 75 77 71 71 75 69 69 74 68 68 72 63 64 75 66 69 75 69 71 77 71 73 80 76 75 82 76 76 84 80 79 87 83 82 87 86 84 90 89 87 92 91 89 93 94 89 95 96 91 96 97 92 96 98 95 95 97 94 97 98 93 94 99 93 96 98 93 
96 98 93 96 98 93 84 90 76 81 88 72 81 88 72 85 91 77 97 98 93 96 98 95 96 98 93 96 98 95 97 98 93 96 97 92 97 98 93 95 97 92 95 97 92 96 98 93 96 98 93 96 98 93 96 98 93 97 98 93 95 97 92 84 55 39 79 37 15 80 37 18 80 52 31 81 90 73 81 88 72 80 89 72 83 69 56 96 98 95 95 97 92 97 98 93 95 97 92 95 97 92 96 98 93 97 98 93 95 97 92 97 97 95 94 93 88 79 41 20 79 37 15 79 37 15 79 36 17 80 38 16 79 37 15 79 37 15 87 65 52 96 97 92 97 99 96 85 91 77 82 89 73 80 89 72 85 91 77 97 99 96 95 97 92 96 96 94 96 97 92 96 97 91 96 98 95 96 98 93 53 49 40 25 13 0 25 13 1 26 14 0 67 63 52 97 98 93 97 97 95 98 97 95 96 99 92 97 98 93 93 98 92 91 93 88 73 67 67 56 41 46 46 26 37 35 13 25 35 11 24 34 10 23 33 11 23 34 10 23 34 10 23 32 11 20 34 11 21 34 11 21 35 11 24 34 10 23 33 11 23 33 11 23 34 13 22 33 11 23 41 15 28 49 22 31 48 25 33 45 28 36 50 33 41 54 39 46 59 44 49 60 49 53 65 54 58 70 61 64 
96 98 97 97 98 93 83 89 75 82 88 74 80 89 72 86 92 78 97 96 94 96 98 93 96 98 93 97 97 95 96 98 93 95 97 92 96 97 92 97 99 94 96 98 93 96 98 93 96 98 93 96 98 93 96 98 93 97 98 93 97 98 93 84 52 37 78 37 17 79 37 15 78 50 28 80 88 73 82 88 74 81 88 72 84 72 58 96 98 93 96 98 93 95 97 92 94 96 91 95 97 94 96 98 93 94 97 90 92 95 88 94 96 91 94 93 88 81 40 20 79 36 17 79 37 15 78 37 15 79 37 15 80 38 16 79 36 17 86 68 56 97 99 94 96 98 95 84 90 76 82 88 74 81 90 73 83 91 76 97 97 95 97 98 93 96 97 92 94 96 91 97 98 93 97 98 93 86 85 80 32 20 8 26 12 1 26 14 0 35 25 13 89 89 87 95 97 92 97 97 95 96 98 95 97 98 93 87 83 82 58 46 50 38 17 26 34 10 23 34 12 24 34 12 24 33 11 23 34 12 24 34 10 23 33 11 23 34 12 24 34 12 24 33 11 23 34 10 23 34 12 24 35 11 24 34 12 24 34 12 24 34 10 23 35 11 25 36 10 23 40 14 27 45 14 29 41 13 27 35 11 24 34 12 24 34 12 25 33 11 23 34 12 24 34 10 23 34 10 23 
96 96 94 96 97 92 84 91 75 81 88 72 81 88 72 86 92 78 97 98 93 97 98 93 96 98 93 96 98 93 95 97 94 96 98 93 98 99 94 95 97 92 98 100 95 96 98 93 96 98 93 96 98 93 96 98 93 97 98 93 97 98 93 84 52 37 79 37 15 78 35 16 80 49 29 79 90 73 81 90 73 79 87 72 85 73 59 96 98 93 95 97 92 96 99 92 97 98 93 96 98 93 93 95 90 83 89 75 82 89 73 87 90 79 94 94 86 79 38 18 78 36 14 78 36 14 77 36 14 78 37 15 80 38 16 79 37 15 88 70 56 96 98 95 98 97 93 83 89 75 84 88 73 80 89 72 84 90 76 95 97 92 96 98 93 97 98 93 96 98 93 96 98 95 95 97 92 62 55 47 25 13 1 25 13 1 26 14 2 63 59 50 96 97 92 96 98 93 96 98 93 86 85 83 54 39 46 35 15 26 34 10 23 34 13 22 33 11 23 34 10 23 34 10 23 33 12 21 36 12 25 34 10 24 34 12 24 34 10 24 34 12 24 34 13 22 33 9 22 35 12 22 34 13 22 34 10 23 34 12 24 33 11 23 33 9 22 34 10 23 39 13 26 42 14 28 41 13 27 34 12 24 34 13 22 33 12 21 34 11 21 34 12 24 34 12 24 35 11 24 
95 97 92 95 97 92 84 90 76 79 90 73 81 90 73 85 91 79 96 98 95 96 98 93 96 97 92 97 97 95 97 98 93 96 96 94 95 97 94 95 97 94 92 95 88 92 95 88 95 97 92 96 98 95 95 97 92 98 98 96 96 98 95 85 59 44 79 37 15 79 38 16 78 50 29 82 89 73 81 88 72 81 88 72 86 80 66 98 98 96 96 98 95 96 98 93 96 97 92 96 98 93 87 93 83 81 88 72 81 88 72 81 88 72 90 91 83 78 37 17 78 37 17 79 37 15 79 37 13 77 36 14 79 37 15 78 35 16 88 70 60 96 97 92 96 98 93 84 90 78 80 89 72 81 88 72 83 91 76 95 97 92 96 96 94 95 97 92 96 98 95 97 97 95 91 93 88 30 20 10 26 12 1 25 13 1 31 19 7 91 91 89 95 97 92 91 91 89 62 52 53 35 11 25 34 12 24 34 12 24 34 12 24 34 12 24 33 11 23 33 11 23 34 12 24 34 12 24 33 11 23 33 11 23 33 11 23 33 11 23 33 11 23 33 11 23 33 11 23 33 11 23 34 10 23 33 11 23 34 10 23 34 10 23 34 10 23 34 10 23 42 14 28 43 15 29 41 13 27 33 11 23 33 11 23 33 11 23 34 10 23 34 12 24 35 11 24 33 11 23 
96 98 93 95 97 92 83 89 75 81 90 73 81 88 72 88 91 80 97 99 96 95 97 94 96 98 93 95 97 94 97 98 93 96 97 92 97 98 93 89 92 81 82 88 74 82 89 73 87 93 81 95 97 92 96 98 93 96 96 94 95 97 94 89 77 65 77 36 14 78 37 17 80 52 31 81 88 72 81 87 73 81 89 74 89 91 80 95 97 94 100 97 92 98 97 95 96 98 95 96 98 93 88 91 80 81 90 73 82 89 73 82 89 73 91 91 83 79 38 18 77 36 16 78 36 14 81 36 15 79 37 15 78 35 16 78 37 15 87 71 58 96 98 93 96 98 93 85 91 77 81 88 72 81 87 73 85 91 77 95 97 92 95 97 94 96 98 93 94 99 93 96 98 93 69 64 58 27 15 3 26 14 2 26 14 0 57 50 40 97 97 95 93 94 88 53 38 45 34 12 24 33 11 23 33 11 23 34 12 24 33 11 23 34 12 24 34 12 24 34 12 24 34 12 24 34 12 24 34 10 23 34 10 23 34 10 23 34 10 23 34 10 23 34 10 23 34 10 23 34 10 23 35 11 24 34 10 23 34 10 23 34 10 23 34 10 23 34 12 24 39 13 26 41 13 27 41 13 27 37 11 24 34 10 23 33 11 23 35 11 24 36 10 21 35 12 22 33 11 23 
96 97 92 95 98 91 83 89 75 82 89 73 81 88 72 87 90 79 98 97 93 95 96 91 95 97 92 95 97 94 95 97 94 94 96 91 96 98 93 84 90 76 81 90 73 81 90 73 86 92 80 96 96 94 98 97 93 95 97 92 96 98 93 95 96 91 84 55 39 78 35 16 79 52 31 80 89 72 82 89 71 81 90 71 91 94 87 92 97 93 97 96 92 95 97 94 93 98 94 95 97 92 89 92 83 81 88 72 82 89 73 81 88 72 91 91 83 79 38 18 78 37 17 78 36 14 80 35 14 79 37 15 77 36 14 78 37 19 90 74 61 95 97 94 96 98 95 84 90 76 81 90 73 81 90 73 84 90 76 96 98 93 96 98 95 95 97 92 95 97 92 95 97 92 42 34 23 26 12 1 26 12 3 29 15 4 88 89 83 96 96 94 61 49 53 34 10 23 34 12 24 33 11 23 34 10 23 35 11 24 34 10 23 34 10 23 36 12 25 34 10 23 35 11 24 34 10 23 34 10 23 34 10 23 34 10 23 35 11 24 34 10 23 35 11 24 34 10 23 34 10 23 33 9 22 34 10 23 34 10 23 34 10 23 33 13 24 35 11 24 40 14 27 42 14 28 41 13 25 35 11 24 34 10 23 34 10 23 34 11 21 34 11 21 35 12 22 34 10 23 
98 97 95 96 96 94 82 90 75 82 89 73 81 90 73 87 90 79 97 98 93 97 98 93 96 97 92 96 98 93 96 98 95 95 97 94 97 98 93 83 89 75 82 88 74 82 89 73 87 90 79 96 96 94 96 95 91 96 98 95 96 98 95 95 97 94 96 97 92 88 71 61 83 66 50 82 88 74 81 87 73 82 89 73 89 94 87 97 96 94 95 98 91 96 98 95 96 97 92 96 98 95 89 92 83 80 89 72 82 89 73 81 88 72 93 90 83 79 38 18 78 37 17 79 37 15 78 35 16 78 37 15 79 38 16 77 36 14 91 74 66 95 97 94 96 99 92 85 91 79 81 90 73 81 90 73 84 90 76 94 99 93 95 97 94 96 98 93 96 98 95 88 87 83 25 15 3 26 12 1 27 13 2 42 34 23 95 97 94 89 90 85 39 19 31 34 11 21 34 12 24 34 10 23 34 10 23 35 11 24 34 10 23 35 11 24 35 11 24 35 11 24 34 10 23 35 11 24 35 11 24 35 11 24 34 10 23 34 10 23 34 10 23 35 11 24 34 10 23 35 11 24 34 10 23 33 11 23 34 10 23 35 11 24 32 10 22 33 13 24 41 13 27 42 14 28 43 12 27 34 10 23 34 10 23 34 12 24 34 10 23 34 10 23 34 10 23 32 12 23 
97 97 95 97 98 93 83 89 75 81 88 72 79 88 71 85 91 79 96 98 95 97 97 95 96 97 92 96 96 94 96 97 92 96 98 93 98 97 93 84 90 76 81 88 72 82 88 74 86 92 78 97 98 93 96 96 94 96 98 95 97 97 95 96 98 93 94 96 93 97 98 93 93 95 90 82 89 71 82 89 73 81 90 73 91 94 85 97 97 95 96 98 95 94 96 91 97 98 93 95 97 94 88 94 82 80 89 72 81 88 72 81 88 72 91 88 81 79 38 18 79 36 17 78 36 14 80 37 18 78 37 17 81 36 17 78 35 16 88 74 65 95 97 94 95 97 92 86 90 76 81 87 73 82 89 73 85 91 77 96 98 93 97 99 94 95 97 92 95 97 94 69 65 56 26 14 0 26 14 0 23 14 0 68 64 55 97 99 94 74 65 68 34 12 24 34 13 22 34 10 23 33 11 23 34 12 24 34 12 24 34 12 24 33 11 23 34 12 24 33 11 23 33 11 23 33 11 23 34 10 23 34 10 23 34 10 23 35 11 24 34 10 23 34 10 23 34 10 23 34 10 23 34 12 24 35 11 24 34 10 23 34 10 23 33 11 23 33 11 23 40 14 27 42 14 28 41 13 27 33 11 23 33 11 23 33 11 23 34 10 23 34 10 23 34 10 23 34 12 24 
96 98 93 96 97 92 83 89 75 82 89 73 81 90 73 85 91 77 96 98 93 95 97 94 96 96 94 96 96 94 97 98 93 97 98 93 96 97 91 83 89 75 81 88 72 83 87 72 85 91 79 96 98 95 95 96 90 97 97 95 96 98 95 95 97 94 96 96 94 95 97 92 92 95 88 80 89 72 81 89 74 81 90 73 91 94 87 96 97 92 96 98 93 95 97 94 96 96 94 96 96 94 88 91 80 82 89 73 81 88 72 82 89 73 91 88 81 77 36 16 78 36 14 78 36 14 78 35 16 79 36 17 77 34 15 79 37 15 89 75 66 96 97 92 97 97 95 93 96 89 82 89 73 81 90 73 89 95 83 98 99 94 96 98 93 95 97 92 96 96 94 46 37 28 25 13 0 25 13 0 27 15 3 86 87 81 96 96 94 55 40 47 34 10 23 33 12 21 33 11 24 34 10 23 33 11 23 33 11 23 33 11 23 33 11 23 33 11 23 33 11 23 34 12 24 34 12 24 34 10 23 35 11 24 34 10 23 34 10 23 34 10 23 34 10 23 34 10 23 35 11 24 34 10 23 33 11 23 35 11 24 34 10 23 35 11 24 33 11 23 40 14 27 42 14 28 40 12 24 34 10 23 34 10 23 33 11 23 34 11 21 34 10 23 34 10 23 33 11 23 
95 97 92 96 97 92 83 89 77 82 88 74 81 88 72 87 90 79 95 97 92 96 98 93 96 98 93 95 97 92 97 97 95 97 97 95 95 97 92 85 91 77 81 88 72 82 89 73 85 91 77 96 98 93 96 97 92 94 99 93 97 98 93 95 97 92 97 98 93 96 96 94 94 97 88 81 88 72 82 88 74 81 88 72 89 95 85 96 98 93 96 98 93 97 97 95 97 98 93 96 97 92 87 95 84 82 89 73 81 88 72 81 88 72 92 87 81 78 37 17 79 37 15 79 36 17 79 36 17 78 35 16 79 36 17 78 35 16 87 77 67 95 97 92 95 97 92 95 97 94 94 96 91 95 96 91 97 98 93 95 97 94 97 97 95 96 98 95 93 93 91 33 23 13 25 13 1 25 13 1 36 26 16 94 96 91 96 98 93 43 26 34 34 12 24 34 11 21 33 11 23 34 10 23 34 10 23 34 10 23 34 10 23 34 10 23 34 10 23 34 10 23 34 10 23 34 10 23 34 11 21 34 10 23 34 10 23 34 10 23 34 11 21 34 11 21 34 11 21 34 10 23 33 12 21 34 12 24 34 10 23 34 11 21 33 12 21 33 11 23 41 13 27 42 14 26 41 13 27 35 11 24 34 11 21 34 12 24 34 10 23 34 10 23 35 11 24 34 12 24 
155 157 154 156 156 154 146 154 143 146 152 142 145 151 141 149 152 145 146 146 144 95 97 94 94 96 91 96 98 93 95 97 94 95 97 94 96 98 93 83 91 76 82 88 74 81 88 72 85 91 79 97 97 95 96 97 92 97 97 95 95 95 93 95 97 92 95 97 94 95 97 94 95 96 91 82 88 74 81 90 73 81 89 74 91 96 89 96 96 94 96 98 95 95 97 94 96 98 93 96 97 92 89 92 83 80 89 72 81 88 72 81 88 72 91 86 80 77 36 16 78 36 12 78 37 17 77 36 16 77 36 16 78 36 14 80 38 16 89 79 70 98 97 93 97 98 93 97 97 95 97 98 93 96 96 94 97 97 95 95 97 94 96 97 92 96 96 94 79 76 71 27 15 3 26 14 2 25 13 1 55 48 40 96 96 94 94 96 91 36 15 24 34 11 21 34 10 23 103 86 94 117 102 109 118 103 110 117 102 109 118 103 110 118 103 110 118 103 110 118 103 110 117 102 109 117 102 109 117 102 109 117 102 109 117 101 111 117 101 111 117 102 109 117 102 109 117 102 109 117 101 111 118 102 112 117 102 109 117 102 109 117 101 111 115 102 111 116 103 110 121 104 112 124 104 115 124 104 113 118 103 110 119 102 112 117 102 109 117 102 109 115 103 107 118 103 110 117 102 109 
255 255 255 255 255 255 255 255 255 255 255 255 255 255 255 255 255 255 255 255 255 135 137 134 94 96 91 95 97 92 96 96 94 97 96 92 97 98 93 83 89 77 81 90 73 80 89 72 85 91 79 95 97 92 96 98 93 95 97 92 97 98 93 96 98 95 97 97 95 95 97 92 96 98 95 92 95 88 86 92 82 90 93 84 96 98 95 96 97 92 96 97 92 95 97 94 94 96 91 94 96 93 89 92 81 81 88 72 81 88 72 83 90 72 91 87 78 78 37 15 78 35 16 78 36 14 77 35 13 77 36 16 77 36 16 77 36 14 91 78 69 94 96 91 95 97 92 96 96 94 95 97 94 97 97 95 95 98 91 97 98 93 97 98 93 96 98 93 67 64 55 25 13 0 27 13 2 25 13 0 73 70 63 96 97 91 86 85 83 35 11 24 35 11 24 62 42 53 226 224 225 254 254 254 255 255 255 255 255 255 255 255 255 255 255 255 255 255 255 255 255 255 255 255 255 255 255 255 255 255 255 255 255 255 255 255 255 255 255 255 255 255 255 255 255 255 255 255 255 255 255 255 255 255 255 255 255 255 255 255 255 255 255 255 255 255 255 255 255 255 255 255 255 255 255 255 255 255 255 255 255 255 255 255 255 255 255 255 255 255 255 255 255 255 255 255 255 255 255 255 
255 255 255 255 255 255 255 255 255 255 255 255 255 255 255 255 255 255 255 255 255 215 217 216 96 98 93 95 97 94 96 97 92 96 97 92 96 97 92 83 89 75 81 88 72 81 90 73 84 90 78 96 96 94 95 97 92 96 96 94 95 97 94 96 97 92 96 97 92 93 98 92 95 97 92 96 97 92 95 98 91 94 97 90 94 99 93 96 98 93 95 97 94 95 97 92 97 98 93 95 97 92 86 92 80 81 88 72 81 90 73 81 88 72 92 85 79 79 36 17 79 36 17 79 37 15 77 36 14 77 36 14 79 37 15 75 37 14 91 81 72 96 98 95 96 97 92 95 97 92 96 98 93 95 97 94 96 98 93 97 98 93 95 97 92 94 99 93 52 45 35 27 15 3 26 14 2 29 17 3 83 82 77 96 98 93 76 71 68 33 11 23 33 12 21 118 103 110 255 255 255 255 255 255 255 255 255 255 255 255 255 255 255 255 255 255 255 255 255 255 255 255 255 255 255 255 255 255 255 255 255 255 255 255 255 255 255 255 255 255 255 255 255 255 255 255 255 255 255 255 255 255 255 255 255 255 255 255 255 255 255 255 255 255 255 255 255 255 255 255 255 255 255 255 255 255 255 255 255 255 255 255 255 255 255 255 255 255 255 255 255 255 255 255 255 255 255 255 255 255 
255 255 255 255 255 255 255 255 255 255 255 255 255 255 255 255 255 255 255 255 255 255 255 255 134 136 133 95 97 94 96 97 92 96 97 92 94 96 91 84 90 76 80 89 72 79 88 71 84 90 78 96 98 95 97 98 93 95 97 94 95 97 92 96 98 93 96 97 92 93 98 94 96 96 94 96 97 92 97 97 95 95 95 93 95 97 92 96 97 92 97 98 93 96 97 92 96 97 92 97 98 93 86 92 82 78 89 72 80 89 72 81 88 72 90 83 73 77 36 14 79 36 19 78 35 16 79 36 17 78 36 14 79 37 15 78 36 14 90 81 72 96 96 94 96 97 92 94 96 91 96 98 93 95 95 93 95 97 92 95 97 94 95 97 94 95 97 92 37 27 17 26 14 2 25 13 0 36 23 14 93 95 90 96 98 93 68 59 62 34 11 21 33 11 23 227 225 226 255 255 255 253 253 253 255 255 255 255 255 255 255 255 255 255 255 255 255 255 255 255 255 255 255 255 255 255 255 255 255 255 255 255 255 255 255 255 255 255 255 255 255 255 255 255 255 255 255 255 255 255 255 255 255 255 255 255 255 255 255 255 255 255 255 255 255 255 255 255 255 255 255 255 255 255 255 255 255 255 255 255 255 255 255 255 255 255 255 255 255 255 255 255 255 255 255 255 255 255 255 255 
255 255 255 255 255 255 255 255 255 255 255 255 255 255 255 255 255 255 255 255 255 254 254 254 215 215 215 96 97 92 96 97 92 97 98 93 95 97 92 82 90 75 80 89 72 80 89 72 85 91 79 96 97 92 97 97 95 96 96 94 95 97 92 95 97 92 95 97 92 96 96 94 96 96 94 96 96 94 97 97 95 97 97 95 96 96 94 96 97 92 96 97 92 96 96 94 96 96 94 95 96 91 88 91 82 80 89 72 82 89 73 81 88 72 91 84 74 77 36 14 79 37 15 78 36 14 80 35 16 77 35 13 78 35 16 78 35 16 92 83 76 96 97 92 95 97 92 96 96 94 96 96 94 96 96 94 95 95 93 96 98 93 94 96 93 91 92 87 28 16 4 23 13 1 26 14 0 46 37 28 97 97 95 95 97 92 61 50 56 34 12 24 118 103 110 255 255 255 255 255 255 255 255 255 255 255 255 255 255 255 255 255 255 255 255 255 255 255 255 255 255 255 255 255 255 255 255 255 255 255 255 255 255 255 255 255 255 255 255 255 255 255 255 255 255 255 255 255 255 255 255 255 255 255 255 255 255 255 255 255 255 255 255 255 255 255 255 255 255 255 255 255 255 255 255 255 255 255 255 255 255 255 255 255 255 255 255 255 255 255 255 255 255 255 255 255 255 255 255 255 
255 255 255 255 255 255 255 255 255 255 255 255 255 255 255 255 255 255 255 255 255 255 255 255 255 255 255 135 135 133 96 97 92 97 98 93 94 96 91 82 90 75 81 90 73 79 88 71 85 91 79 96 97 92 97 97 95 96 96 94 96 96 94 95 97 94 95 97 92 96 96 94 96 96 94 94 96 93 96 97 92 96 96 94 95 95 93 95 95 93 97 98 93 96 96 94 95 95 93 96 96 94 88 91 82 80 89 72 80 89 72 81 88 72 90 81 72 78 36 14 78 35 16 78 36 14 78 36 14 78 35 16 78 35 16 77 36 16 91 84 76 96 97 92 96 97 92 95 95 93 96 96 94 96 96 94 95 97 94 95 95 93 95 97 92 81 80 75 26 12 1 24 15 0 25 13 1 61 57 48 95 95 93 96 97 92 56 41 46 36 10 21 227 225 228 255 255 255 255 255 255 255 255 255 255 255 255 255 255 255 255 255 255 255 255 255 255 255 255 255 255 255 255 255 255 255 255 255 255 255 255 255 255 255 255 255 255 255 255 255 255 255 255 255 255 255 255 255 255 255 255 255 255 255 255 255 255 255 255 255 255 255 255 255 255 255 255 255 255 255 255 255 255 255 255 255 255 255 255 255 255 255 255 255 255 255 255 255 255 255 255 255 255 255 255 255 255 255 255 255 
255 255 255 255 255 255 255 255 255 255 255 255 255 255 255 255 255 255 255 255 255 255 255 255 255 255 255 215 215 215 96 97 92 96 96 94 95 97 92 84 90 76 80 89 72 80 89 72 83 89 77 95 97 94 96 97 92 94 96 93 96 96 94 97 97 95 96 96 96 95 95 93 96 97 92 96 96 94 96 96 96 96 96 94 95 97 92 95 97 92 95 97 94 95 97 92 96 96 94 96 97 92 90 93 86 81 87 73 81 90 73 80 89 72 89 80 71 78 36 12 78 37 17 78 35 16 79 37 15 78 36 12 79 37 15 79 37 15 92 85 77 95 97 92 96 97 92 95 96 91 96 97 92 95 97 92 95 97 94 96 96 94 93 98 94 66 63 56 29 13 0 27 13 0 26 12 1 74 71 64 96 97 92 96 97 92 48 28 37 116 103 112 255 255 255 255 255 255 254 254 254 255 255 255 255 255 255 255 255 255 255 255 255 255 255 255 255 255 255 255 255 255 255 255 255 255 255 255 255 255 255 255 255 255 255 255 255 255 255 255 255 255 255 255 255 255 255 255 255 255 255 255 255 255 255 255 255 255 255 255 255 255 255 255 255 255 255 255 255 255 255 255 255 255 255 255 255 255 255 255 255 255 255 255 255 255 255 255 255 255 255 255 255 255 255 255 255 255 255 255 
255 255 255 255 255 255 255 255 255 255 255 255 255 255 255 255 255 255 255 255 255 255 255 255 255 255 255 255 255 255 136 136 134 95 95 93 96 97 92 84 90 76 81 88 72 80 89 72 85 91 79 97 97 95 95 97 92 96 96 94 97 97 95 96 97 91 96 97 92 96 97 92 95 95 93 96 97 92 96 97 92 95 97 94 93 98 94 95 97 92 94 96 93 95 97 94 95 97 94 97 98 93 95 97 92 86 92 82 82 88 74 88 94 82 91 84 76 77 36 16 78 35 16 78 36 14 78 36 14 78 35 16 78 36 14 79 37 15 90 85 79 95 96 91 94 96 91 95 97 92 96 97 92 96 98 93 96 96 94 94 94 92 96 97 92 59 52 42 26 12 1 27 13 2 26 12 1 81 82 76 95 97 96 97 98 93 37 16 25 227 225 226 255 255 255 254 254 254 255 255 255 255 255 255 255 255 255 255 255 255 255 255 255 255 255 255 255 255 255 255 255 255 255 255 255 255 255 255 255 255 255 255 255 255 255 255 255 255 255 255 255 255 255 255 255 255 255 255 255 255 255 255 255 255 255 255 255 255 255 255 255 255 255 255 255 255 255 255 255 255 255 255 255 255 255 255 255 255 255 255 255 255 255 255 255 255 255 255 255 255 255 255 255 255 255 255 255 255 255 255 
255 255 255 255 255 255 255 255 255 255 255 255 255 255 255 255 255 255 255 255 255 255 255 255 255 255 255 255 255 255 215 215 215 96 96 94 96 97 92 84 90 78 81 90 73 80 89 72 86 92 80 95 97 92 95 97 92 96 98 93 96 97 92 94 96 93 93 98 92 98 99 94 95 97 94 92 97 90 91 94 87 93 96 89 96 96 94 97 97 95 97 97 95 95 96 91 95 95 93 95 95 95 94 94 94 95 97 92 96 97 92 96 96 94 92 87 83 78 37 17 78 35 16 78 37 15 78 35 16 77 36 16 78 35 16 79 36 17 95 92 87 95 95 93 97 98 93 95 95 93 95 95 93 96 97 92 95 96 91 95 97 92 96 97 92 50 42 31 26 14 2 26 12 1 26 14 0 88 90 87 96 98 95 92 92 90 118 103 110 255 255 255 255 255 253 255 255 253 255 255 255 255 255 255 255 255 255 255 255 255 255 255 255 255 255 255 255 255 255 255 255 255 255 255 255 255 255 255 255 255 255 255 255 255 255 255 255 255 255 255 255 255 255 255 255 255 255 255 255 255 255 255 255 255 255 255 255 255 255 255 255 255 255 255 255 255 255 255 255 255 255 255 255 255 255 255 255 255 255 255 255 255 255 255 255 255 255 255 255 255 255 255 255 255 255 255 255 255 255 255 
255 255 255 255 255 255 255 255 255 255 255 255 255 255 255 255 255 255 255 255 255 255 255 255 255 255 255 255 255 255 255 255 255 135 135 135 95 97 94 93 96 89 86 92 82 88 90 79 94 96 93 95 95 93 96 96 94 95 97 92 94 96 95 95 97 94 96 96 94 95 95 93 94 96 91 84 90 76 81 89 74 82 88 74 93 95 90 96 95 93 96 96 94 95 96 91 96 96 94 96 97 92 94 96 91 90 93 84 84 90 78 91 94 87 95 94 90 83 47 31 78 36 14 78 36 14 79 36 17 78 37 17 78 36 14 83 51 36 94 96 91 94 96 91 96 97 92 96 96 94 95 97 92 89 92 83 86 92 80 92 95 88 96 96 94 42 32 23 25 13 0 25 13 1 31 19 7 94 96 91 96 97 92 87 86 84 226 224 225 255 255 255 253 255 254 255 255 255 255 255 255 255 255 255 255 255 255 255 255 255 255 255 255 255 255 255 255 255 255 255 255 255 255 255 255 255 255 255 255 255 255 255 255 255 255 255 255 255 255 255 255 255 255 255 255 255 255 255 255 255 255 255 255 255 255 255 255 255 255 255 255 255 255 255 255 255 255 255 255 255 255 255 255 255 255 255 255 255 255 255 255 255 255 255 255 255 255 255 255 255 255 255 255 255 255 255 255 255 255 255 
255 255 255 255 255 255 255 255 255 255 255 255 255 255 255 255 255 255 255 255 255 255 255 255 255 255 255 255 255 255 255 255 255 215 215 215 95 97 94 95 97 92 95 97 96 94 96 93 95 95 93 97 97 95 96 97 92 96 96 94 95 97 92 95 97 92 95 98 91 96 96 94 94 95 89 80 88 75 81 88 72 79 88 71 91 94 87 96 96 94 97 96 92 96 97 92 95 97 92 97 98 93 91 94 85 80 89 72 81 88 72 82 88 74 94 96 91 91 86 80 80 45 26 78 37 15 78 36 14 76 35 13 82 45 26 94 87 81 95 96 91 95 97 94 96 96 94 95 95 93 90 93 84 83 90 74 81 88 72 82 88 74 94 96 91 35 25 15 25 13 1 23 13 1 41 31 21 96 96 94 95 97 94 156 156 154 255 254 255 255 255 255 255 255 255 254 254 254 255 255 255 255 255 255 255 255 255 255 255 255 255 255 255 255 255 255 255 255 255 255 255 255 255 255 255 255 255 255 255 255 255 255 255 255 255 255 255 255 255 255 255 255 255 255 255 255 255 255 255 255 255 255 255 255 255 255 255 255 255 255 255 255 255 255 255 255 255 255 255 255 255 255 255 255 255 255 255 255 255 255 255 255 255 255 255 255 255 255 255 255 255 255 255 255 255 255 255 255 255 255 
255 255 255 255 255 255 255 255 255 255 255 255 255 255 255 255 255 255 255 255 255 255 255 255 255 255 255 255 255 255 255 255 255 255 255 255 136 136 134 96 98 95 95 96 91 95 97 94 96 96 94 95 96 91 96 96 94 96 97 92 96 97 92 94 96 91 94 96 91 96 97 92 92 95 88 80 89 72 81 87 73 80 89 72 91 94 85 96 98 93 94 96 91 95 95 93 96 97 92 94 96 91 89 92 81 80 89 72 80 89 72 81 89 74 93 95 90 94 96 91 93 92 87 88 74 63 86 64 51 89 71 59 91 90 85 95 97 92 95 97 92 96 96 94 95 96 91 95 97 94 89 92 81 81 88 72 81 88 72 80 89 72 95 96 91 30 18 6 26 14 2 26 14 2 48 42 30 95 97 94 95 97 94 235 235 235 255 255 255 255 255 255 255 255 255 255 254 255 255 255 255 255 255 255 255 255 255 255 255 255 255 255 255 255 255 255 255 255 255 255 255 255 255 255 255 255 255 255 255 255 255 255 255 255 255 255 255 255 255 255 255 255 255 255 255 255 255 255 255 255 255 255 255 255 255 255 255 255 255 255 255 255 255 255 255 255 255 255 255 255 255 255 255 255 255 255 255 255 255 255 255 255 255 255 255 255 255 255 255 255 255 255 255 255 255 255 255 255 255 255 
255 255 255 255 255 255 255 255 255 255 255 255 255 255 255 255 255 255 255 255 255 255 255 255 255 255 255 255 255 255 255 255 255 254 254 254 216 216 216 94 96 91 95 96 91 94 96 91 95 97 94 95 97 94 94 96 91 95 96 91 96 97 92 95 97 92 96 97 92 94 96 91 92 95 88 81 88 72 82 88 74 81 88 72 91 94 85 94 96 91 94 96 91 95 97 92 96 97 92 95 97 92 89 92 83 81 88 72 81 90 73 81 88 72 93 95 90 95 96 91 95 97 92 95 97 92 95 97 92 96 96 94 95 97 92 93 95 92 96 97 92 96 96 94 95 95 93 95 96 91 88 91 82 79 88 71 81 88 72 80 89 72 92 94 89 27 15 1 26 14 2 26 14 2 56 49 39 95 97 94 156 156 154 255 255 255 255 255 255 255 255 255 255 255 255 254 254 254 255 255 255 255 255 255 255 255 255 255 255 255 255 255 255 255 255 255 255 255 255 255 255 255 255 255 255 255 255 255 255 255 255 255 255 255 255 255 255 255 255 255 255 255 255 255 255 255 255 255 255 255 255 255 255 255 255 255 255 255 255 255 255 255 255 255 255 255 255 255 255 255 255 255 255 255 255 255 255 255 255 255 255 255 255 255 255 255 255 255 255 255 255 255 255 255 255 255 255 255 255 255 
255 255 255 255 255 255 255 255 255 255 255 255 255 255 255 255 255 255 255 255 255 255 255 255 255 255 255 255 255 255 255 255 255 255 255 255 255 255 255 136 136 134 94 96 93 96 97 92 96 97 92 96 97 92 95 97 92 95 97 94 95 95 93 95 97 92 95 96 91 95 97 94 91 94 87 81 87 75 82 89 73 81 88 72 88 94 84 93 95 90 95 96 90 92 97 91 94 96 93 95 96 90 89 92 83 80 87 71 81 87 73 79 88 71 93 95 90 96 97 92 94 96 93 95 95 93 96 98 95 95 97 92 95 97 94 95 97 92 94 96 93 95 97 94 96 97 92 96 96 94 88 91 82 81 90 73 81 87 73 80 89 72 86 85 80 26 12 1 26 14 0 25 13 0 60 55 49 97 98 93 216 215 213 255 255 255 255 255 255 255 255 255 255 255 255 255 255 255 255 255 255 255 255 255 255 255 255 255 255 255 255 255 255 255 255 255 255 255 255 255 255 255 255 255 255 255 255 255 255 255 255 255 255 255 255 255 255 255 255 255 255 255 255 255 255 255 255 255 255 255 255 255 255 255 255 255 255 255 255 255 255 255 255 255 255 255 255 255 255 255 255 255 255 255 255 255 255 255 255 255 255 255 255 255 255 255 255 255 255 255 255 255 255 255 255 255 255 255 255 255 
255 255 255 255 255 255 255 255 255 255 255 255 255 255 255 255 255 255 255 255 255 255 255 255 255 255 255 255 255 255 255 255 255 255 255 255 255 255 253 214 214 214 95 98 91 96 97 92 96 96 94 96 96 94 95 97 92 94 96 91 96 96 94 96 97 92 95 97 92 95 97 92 92 95 88 80 89 72 81 88 72 81 88 72 87 93 81 96 98 93 95 96 91 95 97 92 94 96 91 94 96 91 86 92 82 80 89 72 81 87 75 81 89 74 93 96 89 94 96 91 94 96 93 96 98 93 94 96 91 95 97 92 95 96 91 94 96 93 96 98 95 95 97 94 95 95 93 95 97 94 88 91 82 80 88 73 80 87 71 80 89 72 76 76 68 26 12 1 25 13 1 26 14 0 66 61 55 132 137 133 255 255 255 255 255 255 255 255 255 255 255 255 255 255 255 254 254 254 255 255 255 255 255 255 255 255 255 255 255 255 255 255 255 255 255 255 255 255 255 255 255 255 255 255 255 255 255 255 255 255 255 255 255 255 255 255 255 255 255 255 255 255 255 255 255 255 255 255 255 255 255 255 255 255 255 255 255 255 255 255 255 255 255 255 255 255 255 255 255 255 255 255 255 255 255 255 255 255 255 255 255 255 255 255 255 255 255 255 255 255 255 255 255 255 255 255 255 255 255 255 
