P3
100 50
255
13 55 79 13 55 79 14 56 80 13 55 79 13 55 79 13 55 79 12 54 78 13 55 79 13 55 79 13 55 79 13 55 79 13 55 79 14 56 80 11 56 79 15 55 80 14 56 80 13 55 79 14 56 80 13 55 79 13 55 79 13 55 79 14 56 80 14 56 80 13 55 79 14 56 80 14 56 80 14 56 80 14 56 80 13 55 79 13 55 79 13 55 79 13 55 79 13 55 79 14 56 80 11 56 79 14 56 80 13 55 79 13 55 79 13 55 79 14 56 80 13 55 79 14 56 80 13 55 79 14 56 80 13 55 79 14 56 80 13 55 79 14 56 80 13 55 79 13 55 79 14 56 80 11 56 79 11 56 79 10 55 78 13 55 79 28 37 46 27 38 44 27 37 46 14 56 81 14 56 80 13 55 79 61 29 34 79 23 24 77 21 22 76 22 22 77 21 22 77 21 22 79 20 22 77 21 22 77 21 22 77 21 22 78 22 23 77 21 22 78 22 23 77 21 22 77 21 22 77 21 22 77 21 22 77 21 22 79 20 22 77 23 23 77 21 22 77 21 22 79 20 22 77 21 22 77 21 22 77 21 22 77 21 22 77 21 22 76 20 21 77 21 22 77 21 22 77 21 22 77 21 22 77 21 22 77 21 22 78 22 23 78 22 23 77 21 22 77 21 22 
13 55 79 13 55 79 14 56 80 13 55 79 12 54 78 14 56 80 14 56 80 14 56 80 13 55 79 13 55 79 13 55 79 14 56 80 13 55 79 13 55 79 12 54 78 13 55 79 11 56 79 13 55 79 12 57 80 14 56 80 13 55 79 12 54 78 13 55 79 13 55 79 14 56 80 13 55 79 14 56 80 14 56 80 14 56 80 13 55 79 13 55 79 13 58 81 14 56 80 13 55 79 14 54 79 13 55 79 14 56 80 13 55 79 14 56 80 13 55 79 14 56 80 14 56 80 13 55 79 13 55 79 13 55 79 13 55 79 13 55 79 13 55 79 13 55 79 13 55 79 14 56 80 12 57 80 13 55 79 12 57 80 14 55 75 29 38 47 28 37 44 26 39 48 13 55 79 13 55 79 14 56 80 64 28 32 77 21 22 77 21 22 78 22 23 77 21 22 77 21 22 77 23 23 77 21 22 77 21 22 77 21 22 78 22 23 78 22 23 77 21 22 77 21 22 78 22 23 80 21 23 77 21 22 78 22 23 77 21 22 78 22 23 78 22 23 77 21 22 77 21 22 77 21 22 77 21 22 78 22 23 77 21 22 77 21 22 77 21 22 77 21 22 78 22 23 77 21 22 77 21 22 76 20 21 77 21 22 78 22 23 77 21 22 77 21 22 77 21 22 
13 55 79 13 55 80 13 55 79 13 55 79 14 56 80 13 55 79 13 55 79 14 56 80 13 55 79 13 55 79 14 56 80 14 56 80 11 56 79 12 54 78 12 57 80 13 55 79 14 56 80 13 55 79 13 55 79 13 55 79 13 55 79 13 55 79 13 55 79 13 55 79 14 56 80 13 55 79 12 54 78 14 56 80 13 55 79 12 54 78 12 57 80 13 55 79 13 55 79 14 56 80 13 55 79 14 54 79 13 55 79 14 56 80 13 55 79 14 56 80 13 55 79 13 55 79 14 56 80 13 55 79 11 56 79 13 55 79 13 55 79 14 56 80 13 55 79 13 55 79 14 56 80 13 55 79 13 55 79 13 55 79 16 53 72 28 36 47 26 36 45 25 42 52 12 54 78 13 55 79 11 56 79 65 29 33 77 21 22 78 22 23 77 21 22 77 21 22 77 21 22 77 21 22 77 21 22 77 21 22 77 21 22 77 21 22 78 22 23 77 21 22 77 21 22 78 22 23 77 21 22 77 21 22 78 22 23 77 21 22 79 20 22 78 22 23 77 21 22 77 21 22 77 21 22 77 21 22 77 21 22 77 21 22 78 22 23 77 21 22 77 21 22 78 22 23 77 21 22 77 21 22 78 22 23 77 21 22 77 21 22 77 21 22 77 21 22 78 22 23 
14 56 80 13 55 79 13 55 79 13 55 79 13 55 79 13 55 79 13 55 79 13 55 79 14 56 80 13 55 79 13 55 79 13 55 79 13 55 79 13 55 79 12 54 78 14 56 80 12 54 78 11 56 79 14 54 79 11 56 79 12 54 78 14 56 80 13 55 79 12 54 78 13 55 79 14 56 80 13 55 79 13 55 79 13 55 79 13 55 79 13 55 79 13 55 79 14 56 80 11 56 79 13 55 79 12 57 80 14 56 80 14 56 80 13 55 79 13 55 79 13 55 79 13 55 79 13 55 79 12 54 78 12 57 80 15 57 81 14 56 80 13 55 79 13 55 79 13 55 79 13 55 79 13 55 79 13 55 77 14 56 80 16 51 71 27 38 44 27 37 46 24 42 52 13 55 79 11 56 79 12 57 80 66 27 32 77 21 22 77 21 22 78 22 23 79 20 22 76 20 21 78 19 21 77 21 22 77 21 22 77 21 22 78 22 23 77 21 22 77 21 22 78 22 23 77 21 22 78 22 23 77 21 22 77 21 22 77 21 22 79 20 22 77 21 22 77 21 22 77 21 22 77 21 22 77 21 22 77 21 22 77 21 22 77 21 22 77 21 22 78 22 23 77 21 22 77 21 22 77 21 22 77 21 22 77 21 22 77 21 22 76 20 21 77 21 22 78 22 23 
14 56 80 14 56 80 14 56 80 13 55 79 14 56 80 11 56 79 11 57 80 12 54 78 14 56 80 13 55 79 12 57 80 13 55 79 14 56 80 14 56 80 13 55 79 13 55 79 13 55 79 14 56 80 13 55 79 13 55 79 14 56 80 13 55 79 14 56 80 13 55 79 13 55 79 11 56 79 14 56 80 12 54 78 12 54 78 13 55 79 13 55 79 13 55 79 14 56 80 13 55 79 11 56 79 12 57 80 13 55 79 14 56 80 13 55 79 12 54 78 13 55 79 13 55 79 13 55 79 13 55 79 13 55 79 13 55 79 12 57 80 13 55 79 13 55 79 13 55 79 14 56 80 13 55 79 12 54 78 13 55 79 17 50 69 26 36 45 27 37 46 24 42 52 13 55 79 12 57 80 11 56 79 68 26 30 77 21 22 77 21 22 77 21 22 80 21 23 76 22 22 79 20 22 77 21 22 77 21 22 77 21 22 78 22 23 77 21 22 78 22 23 78 22 23 77 21 22 78 22 23 78 22 23 77 21 22 77 21 22 78 22 23 78 22 23 76 20 21 79 20 22 77 21 22 77 21 22 77 21 22 77 21 22 78 22 23 78 22 23 77 21 22 78 22 23 77 21 22 77 21 22 77 21 22 77 21 22 77 21 22 77 21 22 77 21 22 77 21 22 
13 55 77 14 56 80 13 55 79 13 55 79 14 56 80 13 55 79 13 55 79 13 55 79 14 56 80 13 55 79 13 55 79 13 55 79 13 55 79 13 55 79 14 56 80 13 55 79 13 55 79 13 55 79 14 56 80 13 55 79 14 56 80 13 55 79 13 55 79 14 56 80 13 55 79 11 56 79 13 55 79 13 55 79 14 56 80 14 56 80 14 56 80 14 56 80 13 55 79 13 55 79 13 55 79 13 55 79 13 55 79 14 56 80 13 55 79 13 55 79 13 55 79 13 55 79 13 55 79 12 54 78 13 55 79 14 56 80 13 55 79 13 55 79 14 56 80 11 56 79 14 56 80 14 56 80 11 56 79 13 55 79 19 48 66 28 36 47 27 38 44 23 42 56 14 56 80 13 55 77 13 55 79 69 24 27 77 21 22 79 20 22 78 22 23 76 22 22 78 22 23 75 21 21 77 21 22 77 21 22 77 21 22 77 21 22 78 22 23 77 21 22 78 22 23 77 21 22 79 20 22 77 21 22 77 21 22 77 21 22 77 21 22 78 22 23 77 21 22 77 21 22 77 21 22 77 21 22 77 21 22 77 21 22 77 21 22 78 22 23 78 22 23 77 21 22 77 21 22 77 21 22 77 21 22 78 22 23 77 21 22 77 21 22 77 21 22 77 21 22 
14 56 80 13 55 79 13 55 79 13 55 79 13 55 79 13 55 79 13 55 79 13 55 79 13 55 79 13 55 79 13 55 79 13 55 79 13 55 79 13 55 79 14 56 80 13 55 79 14 56 80 12 54 78 13 55 79 13 55 79 13 55 79 13 55 79 14 56 80 13 55 79 13 55 79 13 55 79 14 56 80 14 56 80 13 55 79 13 55 79 13 55 79 13 55 79 13 55 79 14 56 80 14 56 80 13 55 79 13 55 79 13 55 79 13 55 79 13 55 79 13 55 79 13 55 79 13 55 79 14 56 80 13 55 79 14 56 80 13 55 79 13 55 79 13 55 79 13 55 79 13 55 79 14 56 80 14 56 80 12 57 80 20 49 67 28 37 46 27 36 45 21 43 56 14 56 80 13 55 79 14 55 77 70 25 28 77 21 22 77 21 22 77 21 22 77 21 22 77 21 22 77 21 22 76 20 21 78 22 23 77 21 22 77 21 22 77 21 22 77 21 22 78 22 23 77 21 22 78 22 23 78 22 23 77 21 22 78 22 23 77 21 22 77 21 22 77 21 22 77 21 22 77 21 22 77 21 22 77 21 22 77 21 22 77 21 22 77 21 22 77 21 22 77 21 22 77 21 22 76 20 21 77 21 22 77 21 22 77 21 22 78 22 23 77 21 22 77 21 22 
13 55 79 13 55 79 13 55 79 13 55 79 13 55 79 13 55 79 13 55 79 13 55 79 13 55 79 13 55 79 13 55 79 13 55 79 15 57 81 13 55 79 13 55 79 13 55 79 13 55 79 14 56 80 14 56 80 14 56 80 14 56 80 13 55 79 14 56 80 13 55 79 13 55 79 12 54 78 14 56 80 13 55 79 13 55 79 13 55 79 13 55 79 13 55 79 13 55 79 14 56 80 14 56 80 13 55 79 13 55 79 13 55 79 13 55 79 13 55 79 13 55 79 14 56 80 14 56 80 13 55 79 14 56 80 13 55 79 13 55 79 14 56 80 13 55 79 13 55 79 13 55 79 14 56 80 14 56 80 12 57 78 19 48 64 28 36 47 27 36 45 22 44 58 13 55 79 12 54 76 16 54 77 71 25 28 79 20 22 77 21 22 79 20 22 77 21 22 79 20 22 79 20 22 77 21 22 77 21 22 77 21 22 77 21 22 77 21 22 77 21 22 77 21 22 77 21 22 77 21 22 77 21 22 77 21 22 78 22 23 77 21 22 77 21 22 77 21 22 77 21 22 77 21 22 77 21 22 77 21 22 77 21 22 77 21 22 77 21 22 77 21 22 77 21 22 78 22 23 78 22 23 77 21 22 77 21 22 77 21 22 77 21 22 77 21 22 77 21 22 
13 55 79 13 55 79 13 55 79 13 55 79 13 55 79 13 55 79 13 55 79 13 55 79 13 55 79 13 55 79 13 55 79 13 55 79 14 56 80 14 56 80 13 55 79 15 57 81 12 54 78 13 55 79 13 55 79 14 56 80 13 55 79 13 55 79 13 55 79 13 55 79 13 55 79 12 54 78 12 54 78 13 55 79 13 55 79 13 55 79 13 55 79 13 55 79 13 55 79 13 55 79 13 55 79 12 54 78 13 55 79 12 54 78 13 55 79 13 55 79 12 54 78 13 55 79 13 55 79 13 55 79 13 55 79 13 55 79 14 56 80 14 56 80 13 55 79 13 55 79 14 56 80 13 55 79 13 55 79 11 56 79 19 46 63 27 35 46 27 36 45 21 44 60 13 55 80 13 55 79 16 54 77 71 25 28 77 21 22 77 21 22 77 21 22 77 21 22 77 21 22 77 21 22 77 21 22 78 22 23 77 21 22 77 21 22 77 21 22 77 21 22 79 23 24 77 21 22 78 22 23 78 22 23 78 22 23 77 21 22 77 21 22 77 21 22 77 21 22 77 21 22 77 21 22 77 21 22 77 21 22 77 21 22 77 21 22 77 21 22 77 21 22 77 21 22 77 21 22 77 21 22 77 21 22 77 21 22 77 21 22 77 21 22 77 21 22 77 21 22 
13 55 79 13 55 79 13 55 79 13 55 79 13 55 79 13 55 79 13 55 79 13 55 79 13 55 79 13 55 79 13 55 79 13 55 79 14 56 80 13 55 79 13 55 79 13 55 79 13 55 79 14 56 80 13 55 79 13 55 79 12 54 78 14 56 80 14 56 80 13 55 79 14 56 80 13 55 79 13 55 79 13 55 79 14 56 80 13 55 79 13 55 79 14 56 80 14 56 80 13 55 79 12 54 78 13 55 79 14 56 80 13 55 79 13 55 79 13 55 79 13 55 79 13 55 79 13 55 79 13 55 79 13 55 79 13 55 79 13 55 79 13 55 79 13 55 79 13 55 79 13 55 79 13 55 79 13 55 79 12 54 76 20 46 59 27 36 43 28 37 46 21 47 62 13 55 79 13 55 79 16 54 75 73 24 27 77 21 22 77 21 22 77 21 22 77 21 22 77 21 22 77 21 22 76 20 21 77 21 22 77 21 22 77 21 22 77 21 22 77 21 22 78 22 23 76 20 21 77 21 22 77 21 22 77 21 22 77 21 22 77 21 22 77 21 22 77 21 22 77 21 22 77 21 22 77 21 22 77 21 22 77 21 22 77 21 22 77 21 22 77 21 22 77 21 22 77 21 22 77 21 22 77 21 22 77 21 22 77 21 22 77 21 22 77 21 22 77 21 22 
13 55 79 13 55 79 13 55 79 13 55 79 13 55 79 13 55 79 13 55 79 13 55 79 13 55 79 13 55 79 13 55 79 13 55 79 14 56 80 13 55 79 13 55 79 13 55 79 13 55 79 13 55 79 14 56 80 13 55 79 13 55 79 13 55 79 13 55 79 13 55 79 13 55 79 13 55 79 13 55 79 14 56 80 13 55 79 13 55 79 13 55 79 13 55 79 13 55 79 13 55 79 13 55 79 13 55 79 13 55 79 13 55 79 14 56 80 13 55 79 13 55 79 13 55 79 13 55 79 14 56 80 13 55 79 14 56 80 12 54 78 14 56 80 14 56 80 13 55 79 13 55 79 14 56 80 14 56 78 14 56 80 19 45 60 28 37 46 27 37 46 19 46 63 14 56 80 14 56 80 17 53 75 73 24 27 77 21 22 77 21 22 77 21 22 77 21 22 77 21 22 77 21 22 77 21 22 77 21 22 77 21 22 77 21 22 77 21 22 77 21 22 77 21 22 78 22 23 77 21 22 78 22 23 77 21 22 77 21 22 77 21 22 77 21 22 77 21 22 77 21 22 77 21 22 77 21 22 77 21 22 77 21 22 77 21 22 77 21 22 77 21 22 77 21 22 77 21 22 77 21 22 77 21 22 77 21 22 77 21 22 77 21 22 77 21 22 77 21 22 
13 55 79 13 55 79 13 55 79 13 55 79 13 55 79 13 55 79 13 55 79 13 55 79 13 55 79 13 55 79 13 55 79 13 55 79 14 56 80 13 55 79 14 56 80 13 55 79 13 55 79 13 55 79 13 55 79 13 55 79 13 55 79 13 55 79 14 56 80 13 55 79 14 56 80 13 55 79 14 56 80 13 55 79 14 56 80 13 55 79 13 55 79 13 55 79 13 55 79 13 55 79 13 55 79 14 56 80 13 55 79 13 55 79 13 55 79 12 54 78 13 55 79 14 56 80 13 55 79 13 55 79 13 55 79 13 55 79 13 55 79 13 55 79 12 54 78 13 55 79 12 54 78 14 56 80 12 54 78 13 55 79 20 43 57 28 37 46 27 37 46 18 47 65 13 55 79 12 54 78 16 52 74 73 23 24 77 21 22 77 21 22 77 21 22 77 21 22 77 21 22 77 21 22 76 20 21 77 21 22 77 21 22 77 21 22 77 21 22 77 21 22 77 21 22 77 21 22 77 21 22 77 21 22 77 21 22 77 21 22 77 21 22 77 21 22 78 22 23 77 21 22 77 21 22 77 21 22 77 21 22 77 21 22 77 21 22 77 21 22 77 21 22 77 21 22 77 21 22 77 21 22 77 21 22 77 21 22 77 21 22 77 21 22 77 21 22 77 21 22 
13 55 79 13 55 79 13 55 79 13 55 79 13 55 79 13 55 79 13 55 79 13 55 79 13 55 79 13 55 79 13 55 79 13 55 79 12 54 78 13 55 79 13 55 79 13 55 79 13 55 79 13 55 79 13 55 79 13 55 79 13 55 79 13 55 79 13 55 79 13 55 79 13 55 79 13 55 79 12 54 78 13 55 79 13 55 79 13 55 79 13 55 79 13 55 79 13 55 79 13 55 79 13 55 79 13 55 79 13 55 79 13 55 79 13 55 79 13 55 79 13 55 79 13 55 79 13 55 79 13 55 79 13 55 79 13 55 79 13 55 79 13 55 79 13 55 79 13 55 79 13 55 79 13 55 79 13 55 79 13 55 79 22 43 60 26 37 43 27 37 46 17 48 66 13 55 79 13 55 79 17 52 72 74 22 24 77 21 22 77 21 22 77 21 20 79 20 22 77 21 22 77 21 22 77 21 22 77 21 22 77 21 22 77 21 22 77 21 22 77 21 22 77 21 22 77 21 22 77 21 22 76 20 21 77 21 22 77 21 22 78 22 23 76 20 21 77 21 22 77 21 22 77 21 22 77 21 22 77 21 22 77 21 22 77 21 22 77 21 22 77 21 22 77 21 22 76 20 21 77 21 22 77 21 22 77 21 22 77 21 22 76 20 21 77 21 22 76 20 21 
14 56 80 13 55 79 13 55 79 13 55 79 13 55 79 13 55 79 13 55 79 13 55 79 13 55 79 13 55 79 13 55 79 13 55 79 13 55 79 13 55 79 13 55 79 12 54 78 12 54 78 12 54 78 13 55 79 13 55 79 13 55 79 13 55 79 13 55 79 13 55 79 12 54 78 13 55 79 13 55 79 13 55 79 12 54 78 13 55 79 13 55 79 13 55 79 13 55 79 13 55 79 13 55 79 13 55 79 12 54 78 12 54 78 12 54 78 12 54 78 12 54 78 13 55 79 13 55 79 13 55 79 13 55 79 13 55 79 13 55 79 13 55 79 13 55 79 13 55 79 13 55 79 13 55 79 14 56 80 14 56 80 22 44 57 27 38 44 27 37 46 17 50 69 13 55 77 12 54 76 17 52 72 74 22 24 77 21 22 76 22 22 77 21 20 77 21 22 77 21 22 77 21 22 77 21 22 76 20 21 77 21 22 77 21 22 77 21 22 77 21 22 77 21 22 77 21 22 77 21 22 77 21 22 77 21 22 77 21 22 77 21 22 77 21 22 77 21 22 77 21 22 77 21 22 77 21 22 77 21 22 77 21 22 77 21 22 77 21 22 77 21 22 77 21 22 77 21 22 77 21 22 77 21 22 77 21 22 76 20 21 77 21 22 77 21 22 78 22 23 
12 54 78 12 54 78 13 55 79 10 55 78 13 55 79 13 55 79 13 55 79 13 55 79 13 55 79 14 56 80 12 54 78 13 55 79 11 56 79 14 56 80 13 55 79 13 55 79 12 54 78 13 55 79 12 54 78 14 54 79 13 55 79 13 55 79 12 54 78 12 54 78 13 55 79 13 55 79 13 55 79 13 55 79 13 55 79 13 55 79 13 55 79 14 54 79 13 55 79 13 55 79 13 55 79 13 55 79 13 55 79 12 54 78 13 55 79 12 54 78 13 55 79 12 54 78 13 55 79 13 55 79 13 55 79 13 55 79 12 54 78 13 55 79 13 55 79 13 55 79 13 55 79 14 56 80 13 55 79 13 55 79 22 44 57 25 38 44 27 37 46 19 50 70 12 54 76 13 55 77 19 51 72 74 22 24 77 21 22 77 23 23 77 21 22 77 21 22 77 21 22 79 20 22 77 21 22 77 21 22 76 22 22 77 21 22 77 21 22 77 21 22 77 21 22 77 21 22 77 21 22 77 21 22 77 21 22 77 21 22 77 21 22 77 21 22 77 21 22 77 21 22 79 20 22 76 22 22 77 21 22 77 21 22 77 21 22 77 21 22 77 21 22 77 21 22 76 20 21 77 21 22 77 21 22 77 21 22 77 21 22 77 21 22 77 21 22 77 21 22 
13 55 79 14 54 79 12 54 78 14 54 79 14 56 80 13 55 79 13 55 79 14 54 79 12 54 78 13 55 79 14 54 79 12 54 78 13 55 79 13 55 79 13 55 79 13 55 79 13 55 79 12 54 78 13 55 79 12 54 78 15 57 81 13 55 79 13 55 79 13 55 79 13 55 79 12 54 78 13 55 79 12 54 78 13 55 79 13 55 79 13 55 79 13 53 78 14 54 79 12 54 78 13 55 79 13 55 79 13 55 79 13 55 79 13 55 79 13 55 79 13 55 79 13 55 79 13 55 79 13 55 79 13 55 79 12 54 78 13 55 79 13 55 79 13 55 79 13 55 79 13 55 79 12 54 78 12 54 78 13 55 79 23 42 56 27 36 43 27 36 45 18 51 70 13 55 77 14 55 77 17 52 72 77 22 25 77 21 22 76 22 22 77 21 22 77 21 22 77 21 22 77 21 22 78 22 23 76 20 21 77 21 22 76 22 22 75 21 21 77 21 22 77 21 22 77 21 22 77 21 22 77 21 22 77 21 22 77 21 22 77 21 22 77 21 22 77 21 22 77 21 22 77 21 22 77 21 22 77 21 22 77 21 22 77 21 22 77 21 22 76 22 22 79 20 22 77 21 22 77 21 22 77 21 22 79 20 22 77 21 22 77 21 22 77 21 22 77 21 22 
13 55 79 12 54 78 13 55 79 12 54 78 12 54 78 13 55 79 13 55 79 13 55 79 13 55 79 12 54 78 11 53 77 13 55 79 13 53 78 12 54 78 13 55 79 12 54 78 12 54 78 12 54 78 13 55 79 11 56 79 13 55 79 12 54 78 12 54 78 12 54 78 13 55 79 13 55 79 13 55 79 13 55 79 13 55 79 14 56 80 12 54 78 13 53 78 13 55 79 13 55 79 12 54 78 13 55 79 12 54 78 13 55 79 13 55 79 13 55 79 12 54 78 13 55 79 13 55 79 12 54 78 12 54 78 13 55 79 14 56 80 13 55 79 13 55 79 13 55 79 13 55 79 13 55 79 13 55 79 12 54 78 23 41 53 27 36 43 26 36 45 17 50 69 13 55 77 13 55 77 20 51 71 76 21 24 77 21 22 77 21 22 76 22 22 77 21 22 77 21 22 77 21 22 77 21 22 77 21 22 77 21 22 77 21 22 77 21 22 77 21 22 77 21 22 77 21 22 77 21 22 77 21 22 77 21 22 77 21 22 77 21 22 77 21 22 77 21 22 77 21 22 77 21 22 77 21 22 77 21 22 76 22 22 77 21 22 77 21 22 77 21 22 77 21 22 77 21 22 75 21 21 77 21 22 77 21 22 76 20 21 76 22 22 77 21 22 76 22 22 
13 55 79 14 56 80 13 55 79 12 57 80 13 53 78 14 56 80 13 55 79 12 54 78 13 55 79 12 54 78 13 55 79 13 55 79 13 55 79 12 54 78 13 55 79 13 55 79 13 55 79 12 54 78 13 55 79 13 55 79 13 55 79 13 55 79 13 55 79 13 55 79 13 55 79 13 55 79 12 54 78 14 56 80 13 55 79 13 55 79 13 55 79 13 53 78 12 54 78 15 55 80 13 55 79 13 55 79 13 55 79 13 55 79 13 55 79 14 56 80 13 55 79 13 55 79 15 57 81 12 54 78 13 55 79 12 54 78 12 54 78 12 54 78 12 54 78 14 56 80 12 54 78 13 55 79 13 55 79 12 54 78 23 41 53 27 36 45 28 37 46 16 51 71 13 55 79 13 55 77 22 50 71 77 21 24 77 21 22 79 20 22 75 21 21 77 21 22 77 21 22 77 21 22 77 21 22 77 21 22 77 21 22 77 21 22 77 21 22 76 22 22 77 21 22 77 21 22 77 21 22 77 21 22 77 21 22 77 21 22 77 21 22 77 21 22 77 21 22 77 21 22 77 21 22 77 21 22 77 21 22 77 21 22 76 22 22 77 21 22 77 21 22 77 21 22 76 22 22 77 21 22 77 21 22 77 21 22 79 20 22 77 21 22 76 22 22 76 22 22 
13 55 79 12 54 78 13 55 79 13 55 79 13 55 79 14 54 79 13 55 79 13 55 79 12 54 78 12 54 78 10 55 78 13 55 79 12 54 78 13 55 79 13 55 79 13 55 79 13 55 79 11 53 77 13 55 79 12 54 78 13 55 79 13 53 78 13 55 79 13 55 79 14 56 80 11 56 79 13 55 79 14 56 80 13 55 79 12 54 78 13 55 79 14 56 80 13 55 79 13 55 79 12 54 78 13 55 79 13 55 79 13 55 79 13 55 79 12 54 78 13 55 79 13 55 79 13 55 79 13 55 79 12 54 78 12 54 78 12 54 78 12 54 78 12 54 78 12 54 78 13 55 79 13 55 79 13 55 79 12 54 78 24 40 53 28 37 46 27 36 45 16 51 71 13 55 79 13 55 79 22 49 68 76 22 22 77 21 22 79 20 22 75 21 21 77 21 22 77 21 22 77 21 22 77 21 22 77 21 22 77 21 22 77 21 22 76 22 22 77 21 22 77 21 22 77 21 22 77 21 22 77 21 22 77 21 22 77 21 22 77 21 22 77 21 22 77 21 22 77 21 22 77 21 22 77 21 22 77 21 22 77 21 22 77 21 22 76 22 22 77 21 22 77 21 22 77 21 22 76 20 21 77 21 22 77 21 22 77 21 22 77 21 22 77 21 22 77 21 22 
12 54 78 13 55 79 12 54 78 13 53 78 12 54 78 11 56 79 13 55 79 13 55 79 10 55 78 12 54 78 11 53 77 13 55 79 13 55 79 13 55 79 13 53 78 13 55 79 13 55 79 11 56 79 13 55 79 13 55 79 14 56 80 14 54 79 13 55 79 13 55 79 13 55 79 11 56 79 12 54 78 11 53 77 12 54 78 13 55 79 13 53 78 12 54 78 13 53 78 12 54 78 13 53 78 13 55 79 13 55 79 13 55 79 12 54 78 13 55 79 13 55 79 12 54 78 13 55 79 13 55 79 12 54 78 13 55 79 12 54 78 14 56 80 13 55 79 13 55 79 13 55 79 13 55 79 10 55 78 13 55 79 25 39 50 27 36 45 27 36 45 15 52 71 13 55 79 13 55 79 23 49 66 76 22 22 76 22 22 77 21 22 76 22 22 77 21 22 77 21 22 76 20 21 77 21 22 77 21 22 77 21 22 76 22 22 77 21 22 76 22 22 77 21 22 77 21 22 77 21 22 77 21 22 77 21 22 77 21 22 77 21 22 77 21 22 77 21 22 77 21 22 77 21 22 77 21 22 76 22 22 77 21 22 77 21 22 77 21 22 77 21 22 77 21 22 76 20 21 77 21 22 76 20 21 76 20 21 77 21 22 76 20 21 77 21 22 77 21 22 
14 54 79 13 53 78 13 55 79 11 56 79 13 55 79 13 55 79 13 55 79 12 54 78 13 55 79 12 54 78 15 55 80 13 55 79 11 53 77 14 56 80 13 55 79 13 55 79 12 54 78 12 54 78 11 53 77 12 54 78 12 54 78 13 55 79 13 55 79 13 55 79 13 55 79 11 56 79 13 55 79 13 55 79 14 54 79 11 56 79 13 55 79 12 54 78 14 54 79 10 55 78 13 55 79 14 54 79 13 55 79 12 54 78 12 54 78 13 55 79 12 54 78 13 55 79 12 54 78 13 55 79 12 54 78 12 54 78 13 55 79 12 54 78 13 55 79 13 55 79 12 54 78 13 55 79 12 54 78 10 55 78 24 38 47 27 36 45 27 36 45 15 52 71 13 55 79 13 55 79 26 47 66 75 21 21 76 22 22 77 21 22 76 20 21 77 21 22 76 22 22 78 19 21 77 21 22 77 21 22 76 22 22 78 19 21 77 21 22 77 21 22 76 20 21 78 22 23 77 21 22 77 21 22 77 21 22 77 21 22 77 21 22 77 21 22 77 21 22 77 21 22 77 21 22 77 21 22 77 21 22 77 21 22 77 21 22 76 22 22 77 21 22 77 21 22 77 21 22 77 21 22 76 22 22 77 21 22 74 23 22 77 21 22 77 21 22 77 21 22 
13 55 79 13 55 79 12 54 78 13 55 79 13 55 79 13 55 79 13 55 79 13 55 79 13 55 79 12 54 78 13 55 79 13 55 79 12 54 78 13 55 79 10 55 78 12 54 78 13 55 79 13 53 78 13 55 79 12 54 78 12 54 78 13 55 79 14 54 79 13 55 79 11 56 79 12 54 78 11 56 79 13 55 79 12 54 78 13 55 79 13 55 79 13 55 79 12 54 78 12 54 78 13 55 79 13 55 79 12 54 78 12 54 78 12 54 78 13 55 79 12 54 78 12 54 78 12 54 78 12 54 78 13 55 79 13 55 79 12 54 78 13 55 79 11 53 77 13 55 79 12 54 78 13 55 79 13 54 76 13 55 79 25 39 48 27 36 45 27 36 45 16 53 72 13 53 78 11 53 77 28 45 63 76 22 22 77 21 22 77 21 22 77 21 22 77 21 22 77 21 22 76 20 21 77 21 22 77 21 22 77 21 22 76 22 22 77 21 22 77 21 22 77 21 22 77 21 22 77 21 22 77 21 22 77 21 22 77 21 22 77 21 22 77 21 22 77 21 22 77 21 22 77 21 22 77 21 22 76 22 22 77 21 22 77 21 22 77 21 22 77 21 22 77 21 22 77 21 22 77 21 22 77 21 22 74 23 22 77 21 22 77 23 23 77 21 22 78 22 23 
13 55 79 12 54 78 13 55 79 13 55 79 13 53 78 12 54 78 13 55 79 13 55 79 13 53 78 13 55 79 11 56 79 12 57 80 13 55 79 13 55 79 13 55 79 12 54 78 12 54 78 13 55 79 11 53 77 12 54 78 12 54 78 13 55 79 13 55 79 12 54 78 12 54 78 13 55 79 12 54 78 14 54 79 13 55 79 13 55 79 12 54 78 12 54 78 13 55 79 14 54 79 12 54 78 13 55 79 13 55 79 12 54 78 12 54 78 13 55 79 13 55 79 12 54 78 12 54 78 13 55 79 12 54 78 13 55 79 13 55 79 13 55 79 13 55 79 12 54 78 12 54 78 12 54 78 13 55 77 11 53 77 26 39 48 27 36 45 28 37 44 14 52 75 13 55 77 12 54 76 30 46 61 76 21 24 77 23 23 75 20 23 76 20 23 77 21 22 76 20 21 77 21 20 77 21 22 77 21 22 77 21 22 77 21 22 77 21 22 77 21 22 77 21 22 76 22 22 77 21 22 77 21 22 76 22 22 77 21 22 76 22 22 77 21 22 76 22 22 77 21 22 76 22 22 77 21 22 77 21 22 76 22 22 76 22 22 77 21 22 77 21 22 76 22 22 77 21 22 77 21 22 77 21 22 77 21 22 77 21 22 77 21 22 77 21 22 77 21 22 
13 55 79 12 54 78 12 54 78 10 55 78 12 54 78 13 55 79 13 55 79 14 56 80 12 54 78 12 54 78 12 54 78 14 54 79 12 54 78 12 54 78 12 54 78 12 54 78 13 55 79 13 55 79 12 54 78 14 56 80 14 54 79 13 55 79 12 54 78 12 54 78 12 54 78 12 54 78 13 55 79 12 54 78 13 55 79 13 55 79 13 55 79 13 55 79 12 54 78 13 55 79 12 54 78 12 54 78 13 55 79 12 54 78 13 55 79 13 55 79 13 55 79 13 55 79 12 54 78 13 55 79 13 55 79 13 55 79 13 55 79 13 55 79 12 54 78 12 54 78 12 54 78 13 55 79 13 55 77 15 55 80 25 38 47 27 37 46 27 36 43 14 52 73 13 55 77 12 54 76 32 44 60 77 21 22 76 20 23 76 20 21 76 20 21 75 21 21 76 22 22 76 22 22 77 21 24 77 21 22 77 21 24 77 21 24 76 22 22 77 21 22 77 21 22 77 21 22 77 21 22 77 21 22 77 21 22 77 21 22 77 21 22 77 21 22 77 21 22 77 21 22 76 22 22 77 21 22 76 22 22 77 21 22 77 21 22 76 22 22 77 21 22 76 22 22 77 21 22 77 21 22 77 21 22 77 21 22 77 21 22 77 21 22 77 21 22 77 21 22 
13 55 79 12 54 78 12 54 78 13 53 78 13 55 79 13 53 78 12 54 78 13 55 79 12 54 78 12 54 78 12 54 78 13 55 79 12 54 78 12 54 78 12 54 78 12 54 78 12 54 78 12 54 78 13 55 79 13 55 79 13 53 78 12 54 78 13 55 79 10 55 78 13 55 79 13 55 79 14 56 80 13 53 78 13 55 79 13 55 79 13 55 79 14 54 79 13 55 79 12 54 78 13 55 79 14 54 79 13 55 79 12 54 78 13 55 79 12 54 78 14 56 80 13 55 79 12 54 78 13 55 79 12 54 78 12 54 78 12 54 78 12 54 78 13 55 79 12 54 78 14 56 80 12 54 78 12 54 76 13 55 79 25 38 47 27 36 45 27 36 43 14 52 73 13 55 77 13 55 79 34 43 58 77 21 22 77 21 22 76 22 22 75 20 23 76 22 22 77 21 22 76 21 24 77 21 24 77 21 22 76 21 24 77 21 22 76 22 22 77 21 22 77 21 22 77 21 22 76 22 22 76 22 22 76 22 22 77 21 22 76 22 22 77 21 22 76 22 22 76 22 22 76 22 22 77 21 22 76 22 22 77 21 22 77 21 22 76 22 22 77 21 22 76 22 22 77 21 22 77 21 22 77 21 22 77 21 22 77 21 22 77 21 22 77 21 22 77 21 22 
12 54 78 12 54 78 12 54 78 13 55 79 13 55 79 13 55 79 15 55 80 12 54 78 13 55 79 12 54 78 12 54 78 13 55 79 13 55 79 12 54 78 12 54 78 12 54 78 12 54 78 12 54 78 12 54 78 13 55 79 13 55 79 11 56 79 12 54 78 12 54 78 12 54 78 12 54 78 13 53 78 13 53 78 12 54 78 12 54 78 13 53 78 12 54 78 13 55 79 13 55 79 12 54 78 11 53 77 13 55 79 12 54 78 12 54 78 13 55 79 14 56 80 12 54 78 12 54 78 13 55 79 13 55 79 14 56 80 13 55 79 12 54 78 13 55 79 12 54 78 14 56 80 13 55 79 13 55 77 12 54 78 26 39 48 28 37 46 27 36 45 15 53 74 13 55 77 14 56 80 37 43 59 76 20 21 77 21 22 75 21 21 78 22 23 78 22 23 75 21 21 77 21 22 77 21 22 76 22 22 77 21 22 77 21 22 77 21 22 77 21 22 78 19 21 75 21 21 77 21 22 77 21 22 77 21 22 77 21 22 77 21 22 77 21 22 77 21 22 77 21 22 77 21 22 77 21 22 77 21 22 77 21 22 77 21 22 77 21 22 77 21 22 77 21 22 77 21 22 77 21 22 77 21 22 77 21 22 77 21 22 77 21 22 77 21 22 77 21 22 
13 55 79 13 55 79 14 54 79 11 56 79 13 55 79 13 55 79 12 54 78 11 56 79 12 54 78 12 54 78 12 54 78 12 54 78 13 55 79 12 54 78 14 56 80 12 54 78 12 54 78 12 54 78 13 55 79 12 54 78 12 54 78 13 55 79 14 54 79 13 55 79 13 53 78 11 56 79 13 55 79 12 54 78 13 55 79 13 55 79 13 55 79 12 54 78 13 55 79 13 53 78 13 55 79 13 55 79 12 54 78 13 55 79 12 54 78 12 54 78 12 54 78 12 54 78 13 55 79 13 55 79 13 55 79 12 54 78 12 54 78 12 54 78 12 54 78 13 55 79 12 54 78 13 55 79 13 53 78 11 53 77 26 39 47 26 36 45 26 36 45 14 52 73 13 55 79 14 54 79 28 44 60 54 28 31 68 23 28 73 22 21 76 20 21 75 21 19 77 21 22 77 21 22 76 21 24 77 21 22 77 21 22 77 21 22 76 22 22 76 22 22 77 21 22 77 21 22 76 22 22 76 22 22 76 22 22 76 22 22 76 22 22 76 22 22 76 22 22 76 22 22 77 21 22 77 21 22 77 21 22 77 21 22 77 21 22 77 21 22 77 21 22 77 21 22 77 21 22 77 21 22 77 21 22 77 21 22 77 21 22 77 21 22 77 21 22 77 21 22 
13 55 79 13 55 79 12 54 78 13 55 79 10 55 78 12 54 78 12 54 78 13 55 79 12 54 78 12 54 78 12 54 78 13 55 79 12 54 78 13 55 79 12 54 78 13 55 79 12 54 78 13 55 79 12 54 78 12 54 78 13 53 78 12 54 78 13 55 79 12 54 78 12 54 78 12 54 78 13 55 79 12 54 78 14 54 79 12 54 78 12 54 78 13 55 79 13 53 78 12 54 78 12 54 78 12 54 78 12 54 78 12 54 78 12 54 78 13 55 79 13 55 79 12 54 78 12 54 78 12 54 78 12 54 78 12 54 78 13 55 79 13 55 79 12 54 78 12 54 78 12 54 78 13 55 79 13 53 78 13 55 79 25 38 46 27 37 46 26 36 45 15 53 74 12 54 78 14 54 79 18 47 63 26 37 43 27 36 45 29 36 42 42 31 37 61 26 30 72 22 23 77 21 22 77 21 22 76 22 22 77 21 22 77 21 22 77 21 22 76 22 22 74 22 24 77 23 23 77 21 22 77 21 22 77 21 22 77 21 22 77 21 22 77 21 22 77 21 22 77 21 22 77 21 22 77 21 22 76 22 22 77 21 22 77 21 22 76 22 22 77 21 22 77 21 22 77 21 22 77 21 22 77 21 22 77 21 22 77 21 22 77 21 22 77 21 22 77 21 22 
14 54 79 12 54 78 10 55 78 11 53 77 11 56 79 11 56 79 11 53 77 12 54 78 14 56 80 14 54 79 12 54 78 13 55 79 12 54 78 12 54 78 12 54 78 12 54 78 12 54 78 12 54 78 13 55 79 12 54 78 12 54 78 13 55 79 14 56 80 11 53 77 14 54 79 13 55 79 12 54 78 13 55 79 13 55 79 13 55 79 13 55 79 13 55 79 12 54 78 12 54 78 13 55 79 12 54 78 13 55 79 12 54 78 12 54 78 13 55 79 12 54 78 12 54 78 12 54 78 13 55 79 12 54 78 12 54 78 11 53 77 12 54 78 13 55 79 12 54 78 14 56 80 12 54 78 12 54 78 13 55 77 27 37 46 27 36 45 26 36 45 15 53 74 13 55 79 13 55 79 18 46 60 28 38 47 28 37 46 27 36 45 26 36 45 27 35 46 34 33 39 66 24 28 76 22 22 77 21 22 76 21 24 77 21 24 76 22 22 77 21 22 75 21 21 75 21 21 77 21 22 76 22 22 77 21 22 76 22 22 77 21 22 76 22 22 77 21 22 76 22 22 77 21 22 77 21 22 76 22 22 77 21 22 77 21 22 76 22 22 77 21 22 77 21 22 76 22 22 76 22 22 76 22 22 76 22 22 76 22 22 76 22 22 76 22 22 76 22 22 
12 54 78 13 55 79 13 53 78 13 55 79 12 54 78 12 54 78 12 54 78 12 54 78 13 55 79 10 55 78 13 55 79 13 53 78 13 55 79 13 55 79 12 54 78 13 55 79 12 54 78 12 54 78 12 54 78 13 55 79 12 54 78 13 55 79 13 55 79 12 54 78 13 55 79 12 54 78 13 55 79 13 53 78 12 54 78 12 54 78 13 53 78 13 55 79 12 54 78 13 55 79 12 54 78 12 54 78 13 55 79 12 54 78 12 54 78 12 54 78 13 55 79 12 54 78 13 55 79 12 54 78 12 54 78 13 55 79 14 56 80 13 55 79 13 55 79 12 54 78 12 54 78 13 55 79 13 55 79 13 55 77 27 37 46 27 36 45 27 37 46 14 52 71 13 55 80 14 54 79 20 46 61 27 36 43 26 36 45 26 37 43 27 36 43 27 36 45 26 36 45 30 34 43 58 27 32 75 21 21 76 20 21 76 20 23 76 20 21 76 20 21 77 21 22 77 21 22 77 21 22 77 21 22 77 21 22 76 22 22 77 21 22 76 22 22 77 21 22 77 21 22 76 22 22 77 21 22 77 21 22 77 21 22 77 21 22 77 21 22 77 21 22 76 22 22 76 22 22 76 22 22 76 22 22 76 22 22 76 22 22 76 22 22 76 22 22 76 22 22 
13 54 76 15 56 78 13 53 78 12 54 78 12 54 78 12 54 78 12 54 78 12 54 78 13 55 77 12 54 76 12 55 74 10 55 78 11 56 79 13 55 79 13 55 79 12 54 78 13 55 79 12 54 78 12 54 78 12 54 78 12 54 76 12 54 78 12 54 78 13 55 79 12 54 78 13 55 79 13 55 79 13 53 78 13 54 76 13 54 76 12 54 76 12 54 76 12 54 78 12 54 78 12 54 78 12 54 78 12 54 78 15 55 80 13 55 80 13 55 79 11 54 73 13 53 78 12 54 78 13 53 78 13 54 76 12 54 78 14 55 77 12 54 78 13 53 78 10 55 78 13 54 76 13 55 77 12 54 76 12 54 78 26 35 44 28 35 43 27 37 47 13 54 74 12 54 76 13 55 79 19 45 60 26 37 43 26 37 43 27 36 43 27 36 45 27 36 45 27 36 43 27 36 45 27 34 42 63 24 27 77 21 24 75 21 21 76 20 21 75 20 23 75 20 23 75 21 21 77 21 22 77 21 22 77 21 22 77 21 22 77 21 22 77 21 22 77 21 22 77 21 22 77 21 22 77 21 22 77 21 22 77 21 22 77 21 22 77 21 22 77 21 22 77 21 22 77 21 22 77 21 22 76 22 22 77 21 22 76 22 22 77 21 22 77 21 22 77 21 22 
13 54 76 13 55 77 12 54 78 10 55 78 13 55 77 12 54 76 13 55 79 12 54 76 12 54 78 12 54 78 12 54 78 12 54 76 12 54 78 12 54 78 12 54 78 12 54 78 12 54 76 12 54 76 12 54 76 12 54 78 12 54 78 13 55 79 13 55 79 12 54 78 12 54 78 12 54 78 12 54 78 13 55 77 13 54 76 13 54 76 13 54 76 12 54 76 14 56 78 13 55 77 13 55 77 12 54 76 12 54 78 12 55 74 12 54 76 12 54 78 12 54 78 14 55 77 12 54 76 12 54 76 13 55 77 13 55 77 12 54 78 12 54 78 13 55 77 13 55 77 13 53 78 12 54 76 12 54 76 13 54 76 27 36 45 27 36 43 27 37 47 15 53 74 12 54 78 13 55 77 17 50 57 24 44 43 26 41 44 28 39 45 27 38 44 27 37 46 27 36 43 27 36 43 26 37 43 35 34 40 72 22 23 77 21 22 76 20 21 76 22 20 77 21 22 76 20 21 77 21 22 77 21 22 77 21 22 77 21 22 77 21 22 77 21 22 77 21 22 77 21 22 77 21 22 77 21 22 77 21 22 77 21 22 76 22 22 79 20 22 77 21 22 76 22 22 77 21 22 75 21 21 79 20 22 74 23 22 77 21 22 77 21 22 75 21 21 77 21 22 
12 54 78 12 55 74 13 55 77 12 54 76 13 55 77 12 54 76 13 54 76 12 54 76 12 54 76 12 54 76 12 54 76 12 54 78 13 55 77 12 54 76 12 54 76 12 54 76 12 54 78 12 54 78 13 55 79 12 54 78 12 54 76 12 54 76 13 55 77 12 54 76 12 54 78 13 55 79 14 56 80 13 53 78 11 56 77 12 54 76 14 56 78 13 55 77 12 54 76 12 54 76 12 54 78 12 54 78 12 54 76 13 55 77 12 54 76 12 54 76 13 53 78 12 54 78 12 54 78 12 54 76 13 55 80 12 54 78 13 55 77 13 55 77 12 54 76 14 55 77 13 55 77 10 55 76 13 55 77 13 53 78 28 37 44 26 35 44 25 38 47 15 53 74 13 55 79 12 54 78 16 53 59 20 51 43 21 52 44 21 51 41 24 44 42 27 38 44 27 36 43 27 36 43 27 37 46 28 37 46 55 28 33 76 21 24 77 21 22 76 22 22 76 20 23 76 20 21 77 21 22 77 21 22 77 21 22 77 21 22 77 21 22 77 21 22 77 21 22 77 21 22 76 22 22 79 20 22 76 22 22 76 22 22 77 21 22 77 21 22 77 21 22 77 21 22 76 22 22 77 21 22 75 21 21 77 21 22 77 21 22 75 21 21 77 21 22 76 22 22 
12 54 78 12 54 76 13 55 77 12 54 78 12 54 78 12 54 76 12 54 76 12 54 78 12 54 76 13 54 76 13 55 77 13 54 74 12 54 78 12 54 78 11 53 77 12 54 78 12 54 76 13 55 77 12 54 76 12 54 76 13 55 77 13 55 79 13 55 79 13 55 77 13 55 77 12 54 76 12 54 76 12 54 78 12 54 76 12 54 76 11 53 77 12 54 78 13 55 77 13 55 77 12 54 76 11 53 75 12 54 78 11 56 79 12 54 78 12 54 76 12 54 76 11 56 77 12 54 76 12 54 76 14 55 77 14 54 79 13 54 76 12 54 76 13 55 77 12 54 78 12 54 76 12 54 78 13 54 76 12 53 75 27 36 43 27 36 43 26 39 48 14 52 75 12 54 76 12 54 78 17 52 56 21 51 41 21 52 44 21 51 41 21 51 43 24 44 43 27 36 43 26 36 45 26 36 45 26 37 43 28 35 41 74 22 24 76 22 22 77 21 24 76 22 22 77 21 22 77 21 22 77 21 22 77 21 22 77 21 22 77 21 22 77 21 22 77 21 22 77 21 22 76 22 22 76 22 22 79 20 22 74 23 22 76 22 22 76 22 22 77 21 22 74 23 22 76 22 22 75 21 21 77 21 22 76 20 21 75 21 21 77 21 22 75 21 21 76 22 22 
12 54 76 13 55 79 13 55 77 12 54 76 12 54 78 13 55 79 12 54 76 12 54 76 14 55 77 14 55 77 13 55 77 12 54 76 13 55 77 13 55 77 12 54 76 12 54 76 12 54 76 13 55 77 12 54 76 12 54 76 12 54 78 12 54 76 12 54 76 13 55 77 12 54 76 12 54 76 13 55 77 12 54 76 13 54 76 13 54 76 12 54 78 11 53 77 13 55 79 12 54 76 12 54 76 12 54 76 12 54 78 12 54 76 12 54 76 12 54 79 13 54 76 12 54 76 12 54 76 14 56 80 10 55 78 13 54 76 13 55 79 13 53 78 12 54 78 12 54 76 12 54 78 13 55 77 13 55 79 12 53 73 27 36 43 28 37 44 24 38 47 17 48 68 19 46 63 21 43 57 24 45 50 23 50 45 21 53 42 21 51 43 21 51 43 20 51 43 24 39 42 27 36 45 27 36 43 27 36 45 27 36 45 62 26 28 79 20 22 75 21 21 77 21 20 75 21 21 76 22 22 76 22 22 76 22 22 76 22 22 76 22 22 76 22 22 76 22 22 76 22 22 76 22 22 74 23 22 76 22 22 76 22 22 75 21 21 75 21 21 76 20 21 75 21 21 76 22 22 75 21 21 77 21 22 73 22 21 76 20 21 76 22 22 75 21 21 76 22 22 
13 55 77 12 54 79 12 54 78 14 56 78 12 54 78 13 55 77 12 54 76 12 54 76 13 54 76 13 53 78 12 54 78 12 54 76 12 54 76 12 54 76 12 54 76 12 54 76 13 55 77 14 55 77 13 54 76 13 54 76 12 54 76 13 55 77 13 55 77 12 54 76 12 54 76 13 55 77 12 54 76 12 54 76 13 55 77 14 56 78 13 55 77 12 54 76 13 55 77 12 54 76 12 54 76 13 55 77 14 55 77 13 55 77 12 54 76 12 54 78 13 55 77 12 54 76 12 54 78 12 54 76 13 54 76 12 54 76 13 55 77 13 55 77 13 53 78 13 54 76 16 52 74 17 50 67 19 46 63 22 44 57 26 37 43 26 37 43 28 35 45 26 37 43 26 36 45 26 37 43 28 38 47 26 36 45 22 47 43 21 51 41 21 51 43 20 51 43 23 45 43 26 37 43 27 36 43 26 36 45 27 36 45 49 30 36 73 22 21 77 21 22 75 21 21 75 21 21 76 22 22 76 22 22 76 22 22 76 22 22 76 22 22 76 22 22 76 22 22 76 22 22 76 22 22 79 20 22 76 22 22 76 22 22 75 21 21 76 20 21 75 21 21 75 21 21 75 21 21 76 22 22 75 21 21 75 21 21 75 21 21 75 21 21 77 21 22 75 21 21 
23 40 50 23 40 56 20 43 57 19 45 60 18 47 63 17 48 66 15 50 70 15 51 73 14 52 75 13 54 74 12 54 76 10 55 78 13 54 76 13 54 76 12 54 76 12 54 76 12 54 76 12 54 76 12 54 76 12 54 76 12 54 76 11 53 75 13 55 77 13 55 77 11 53 77 12 54 76 14 55 77 13 53 78 12 54 76 12 54 76 13 55 77 13 55 77 12 54 76 12 54 76 12 54 76 12 54 76 12 54 76 13 53 78 13 55 77 12 54 76 13 55 77 13 54 76 13 54 76 14 52 73 16 49 68 19 46 65 21 44 58 23 42 56 23 41 53 26 38 50 24 37 43 27 38 44 28 35 43 27 36 43 26 36 45 27 36 45 27 38 44 26 37 43 28 35 45 27 36 45 27 36 43 27 36 45 25 38 46 21 52 44 21 51 41 21 51 41 24 49 45 26 35 40 26 37 43 27 36 43 26 37 43 36 34 39 75 21 19 76 22 22 76 22 22 75 21 21 75 21 21 75 21 21 75 21 21 75 21 21 75 21 21 75 21 21 75 21 21 75 21 21 76 22 22 76 22 22 77 21 22 76 22 22 75 21 21 75 21 21 76 20 21 75 21 21 75 21 21 75 21 21 76 22 22 76 20 21 73 22 21 77 21 22 75 21 21 75 21 21 
26 36 45 27 38 44 28 39 45 27 36 45 28 37 44 27 36 43 27 36 43 29 36 44 27 36 43 26 36 45 26 36 45 25 39 48 23 41 53 22 42 53 21 43 56 20 43 57 19 45 60 18 46 60 19 48 64 18 47 63 16 49 68 15 50 69 15 52 71 14 52 73 13 54 76 12 54 76 12 54 78 12 54 78 13 55 77 12 54 76 14 55 77 15 53 74 14 51 70 16 49 68 17 49 64 18 47 61 19 47 61 21 44 58 21 43 56 23 41 53 25 39 50 25 35 44 26 36 45 27 36 43 26 37 43 27 36 43 26 36 45 25 36 42 26 35 44 26 37 43 27 35 46 27 36 43 27 36 45 26 37 43 26 36 45 27 36 45 28 37 46 27 36 45 26 35 44 27 36 45 29 36 46 25 36 42 27 38 44 21 51 43 21 53 42 22 52 42 20 51 45 27 38 44 27 36 43 27 36 45 26 37 43 27 36 43 75 21 21 76 22 22 72 21 20 76 22 22 75 21 21 75 21 21 75 21 21 75 21 21 75 21 21 75 21 21 75 21 21 75 21 21 76 22 22 77 21 22 77 21 22 76 22 22 75 21 21 76 20 21 76 20 21 75 21 21 75 21 21 75 21 21 75 21 21 75 21 21 75 21 21 75 21 21 75 21 21 75 21 21 
27 36 45 27 36 45 27 36 45 27 36 45 26 36 45 27 36 45 28 37 46 28 37 46 27 36 43 27 36 43 27 36 43 26 37 43 27 36 43 28 37 44 28 37 44 27 36 43 27 36 43 26 37 43 27 36 43 27 36 43 27 36 45 27 36 45 28 37 46 28 37 44 27 38 44 26 37 43 25 36 42 26 37 43 27 36 45 27 36 43 27 36 43 27 36 45 27 36 45 27 36 43 28 37 44 27 36 45 26 37 43 26 37 43 26 36 45 26 36 45 26 37 43 27 36 43 27 36 45 27 36 43 28 37 46 27 36 43 27 36 43 27 36 43 26 37 43 26 37 43 27 36 45 28 35 45 26 35 44 27 36 43 27 36 43 26 36 45 27 36 45 27 36 43 27 36 43 27 36 43 27 36 45 24 37 45 27 38 42 20 51 43 21 53 42 21 51 41 21 51 41 25 40 45 27 36 43 26 37 43 27 36 45 28 37 46 72 22 23 76 22 22 75 19 20 75 21 21 75 21 21 73 22 21 76 22 22 76 22 22 73 22 21 76 22 22 75 21 21 75 21 21 76 22 22 76 22 22 75 21 21 75 21 21 76 22 22 75 21 21 77 21 22 76 22 22 77 21 22 77 21 22 76 22 22 76 22 22 76 22 22 75 21 21 75 21 21 76 22 22 
27 36 43 26 36 45 27 36 45 26 36 45 26 37 43 26 35 42 25 36 42 26 36 45 26 37 43 27 36 45 27 36 45 26 35 44 26 36 45 25 35 44 27 36 45 27 36 45 26 36 45 26 36 45 26 36 45 27 36 45 28 37 44 27 36 43 26 35 42 27 36 45 28 37 44 27 36 43 27 36 43 28 37 44 27 36 43 27 36 45 27 36 45 27 36 43 27 36 43 27 36 45 27 36 45 28 37 44 27 36 43 27 36 45 27 36 43 27 36 43 27 36 43 26 35 42 26 35 44 26 35 42 26 37 43 27 36 43 27 36 45 28 37 46 28 37 46 26 36 45 26 37 43 26 37 43 26 37 43 27 36 45 26 37 43 27 36 43 27 38 44 27 36 45 27 36 45 27 36 45 26 36 45 27 36 43 23 48 44 21 53 40 21 51 43 21 51 43 21 51 41 25 40 43 27 36 43 26 36 45 27 36 45 26 36 46 69 23 25 76 22 22 76 20 21 77 21 22 77 21 22 75 21 21 77 21 22 76 20 21 76 22 22 77 21 22 77 23 23 76 20 21 75 21 21 75 21 21 75 21 21 75 19 20 75 21 21 77 18 20 76 22 22 75 21 21 77 21 22 77 21 22 76 22 22 74 20 20 76 22 22 75 21 21 76 22 22 76 22 22 
26 36 45 27 36 45 26 36 45 26 37 43 27 36 45 27 36 45 27 36 45 26 36 45 26 37 43 27 36 43 27 36 43 26 37 43 27 38 44 26 36 45 26 36 45 26 37 43 27 36 43 29 36 46 27 36 45 27 36 43 26 35 42 27 36 43 27 36 43 26 35 40 27 36 41 27 36 43 27 36 45 26 35 44 27 36 43 27 36 45 27 36 45 27 36 43 28 37 44 28 37 46 26 35 44 27 36 43 27 36 45 28 37 46 28 37 46 26 36 45 26 37 43 26 37 43 26 37 43 25 36 42 27 36 43 26 37 43 27 36 43 27 36 41 26 37 43 26 35 40 27 36 43 27 36 43 28 37 44 27 36 45 27 36 45 28 35 45 26 35 44 27 36 45 25 38 44 26 40 43 23 43 42 24 49 43 20 50 42 21 51 41 20 52 41 20 49 44 20 51 43 24 44 43 27 36 41 26 36 45 27 36 45 26 36 46 66 24 26 76 20 21 76 22 22 77 23 23 75 21 21 76 22 22 76 22 22 75 21 21 75 21 21 75 21 21 76 22 22 75 21 21 76 20 21 76 20 21 76 22 22 76 22 22 76 20 21 77 21 22 76 20 21 76 22 22 75 19 20 77 21 22 75 21 21 76 22 22 75 21 21 75 21 21 76 22 22 75 21 21 
26 35 42 28 37 44 25 35 44 27 36 45 26 37 43 27 36 43 27 36 43 27 36 43 27 36 43 27 36 43 27 36 43 26 37 43 27 36 43 27 36 43 27 36 45 26 35 42 27 36 43 27 37 46 27 36 43 26 35 42 27 36 45 27 36 45 27 36 45 27 36 45 28 37 46 26 37 43 25 36 42 26 37 43 27 36 45 26 35 44 27 36 45 27 36 45 27 36 45 27 36 45 27 36 45 26 35 44 26 36 45 27 36 45 27 36 45 27 36 45 27 36 43 27 36 43 27 36 43 27 36 43 26 37 43 27 36 43 27 36 45 27 36 45 27 35 46 27 36 43 26 37 43 27 36 41 27 38 44 24 40 40 24 42 42 23 45 43 22 47 43 21 51 43 21 51 43 21 51 43 19 51 40 21 51 41 21 51 43 21 52 44 21 51 43 20 51 43 20 52 41 23 45 43 27 36 43 27 36 45 26 36 45 26 36 45 65 24 28 75 21 21 76 22 22 76 22 22 75 21 21 75 21 21 76 22 22 76 22 22 76 22 22 75 21 21 75 21 21 76 22 22 76 22 22 76 22 22 75 19 20 77 23 23 76 22 22 76 20 21 76 22 22 75 21 21 76 20 21 77 21 22 76 22 22 75 21 21 76 22 22 76 22 22 76 22 22 75 21 21 
25 43 43 23 41 43 26 41 44 25 39 42 25 38 44 27 38 44 26 37 43 26 37 43 26 36 45 27 36 45 27 36 45 26 36 45 27 36 45 26 37 43 23 36 44 26 37 43 27 36 45 27 36 43 27 36 43 26 37 43 26 35 44 26 35 44 27 36 45 28 37 44 28 37 44 27 36 43 26 35 42 27 36 43 27 36 45 27 36 43 28 37 44 27 36 45 27 36 45 27 36 43 26 35 42 26 35 44 26 37 43 26 37 43 26 37 43 26 37 43 26 37 43 26 37 43 26 37 43 27 36 43 24 37 43 25 38 44 26 40 43 25 40 43 24 42 42 24 46 43 22 49 42 20 50 42 21 51 43 20 52 41 20 52 41 21 52 44 21 51 43 19 51 40 21 51 41 21 51 43 19 50 42 21 51 43 21 51 41 22 52 42 21 53 42 21 51 41 21 51 43 21 48 41 25 36 42 28 35 43 27 36 45 26 37 43 64 25 28 77 21 22 76 22 22 73 22 21 76 22 22 76 22 22 74 20 20 75 21 21 75 21 21 75 21 21 77 23 23 75 21 21 75 21 21 76 20 21 76 22 22 76 20 21 75 21 21 75 21 21 76 22 22 75 21 21 77 21 22 76 20 21 75 21 21 75 21 21 75 21 21 75 21 21 75 21 21 75 21 21 
20 52 41 21 51 41 20 52 41 21 51 43 21 51 43 21 51 43 23 50 43 20 50 42 20 47 42 21 46 42 23 45 42 23 45 42 23 45 43 24 44 43 23 43 42 23 41 43 25 40 43 25 38 44 25 38 44 26 37 43 26 37 43 27 38 44 26 37 43 26 37 43 26 37 43 27 36 43 27 36 43 27 36 45 27 36 43 27 36 43 27 36 43 27 38 44 27 38 44 27 38 44 26 37 43 24 37 43 25 39 42 25 39 42 25 40 43 26 42 42 24 44 43 23 45 42 22 47 41 23 48 44 22 49 40 21 51 41 21 53 42 20 52 41 20 52 41 20 52 41 21 51 41 20 52 41 20 51 43 20 51 43 20 51 43 21 51 41 21 51 41 21 51 41 21 53 42 20 52 41 21 51 41 21 51 43 21 51 43 21 51 41 21 51 41 21 51 43 21 51 43 20 52 41 25 38 44 27 36 43 26 36 45 27 36 43 65 24 28 75 21 21 75 20 23 75 21 21 75 21 21 75 21 21 75 21 21 75 21 21 75 21 21 75 21 21 75 21 21 75 21 21 76 20 21 75 21 21 74 20 20 76 20 21 75 21 21 75 21 21 76 22 22 76 20 21 76 20 21 76 20 21 75 21 21 76 22 22 75 21 21 76 22 22 76 22 22 75 21 21 
21 51 43 21 51 43 21 51 43 21 51 43 20 52 41 21 51 41 20 52 41 20 52 41 20 52 41 21 51 41 21 51 41 21 51 41 21 51 41 21 53 42 20 51 43 21 51 41 21 51 41 21 51 43 21 51 43 21 51 41 22 52 44 21 51 43 22 49 42 23 50 43 23 50 43 22 49 42 22 49 42 22 49 42 23 48 42 22 49 42 21 48 41 22 49 42 23 50 43 21 51 43 20 50 42 21 51 43 21 51 41 21 51 41 21 51 41 21 51 41 21 51 43 21 51 43 21 51 41 21 50 45 19 51 40 20 51 43 20 51 43 20 51 43 20 50 42 21 51 41 20 52 41 20 52 39 20 51 43 21 51 43 20 51 43 21 51 41 20 51 43 20 51 43 20 51 43 20 51 43 19 51 40 21 53 42 21 51 43 19 52 43 21 53 42 20 51 43 19 51 40 21 51 43 24 42 42 26 37 43 27 36 43 26 37 43 64 25 28 75 21 21 75 21 21 76 20 21 75 21 21 75 21 21 77 23 23 76 20 21 76 22 22 75 19 20 76 22 22 75 21 21 75 21 21 75 21 21 76 22 22 77 21 22 76 20 21 75 21 21 74 20 20 75 21 21 76 20 21 75 19 20 75 21 21 74 20 20 76 22 22 75 21 21 75 21 21 75 21 21 
20 52 41 19 51 40 19 50 42 19 50 42 20 52 41 20 50 40 21 51 41 21 51 41 21 51 43 21 51 43 21 51 43 19 50 42 21 51 41 21 51 41 21 51 43 21 51 41 20 50 40 20 51 45 20 52 41 19 50 42 22 52 44 22 52 44 22 52 44 21 51 43 21 51 43 21 51 43 21 51 43 21 51 43 21 51 41 21 51 43 21 51 43 21 51 41 21 51 41 21 51 43 21 51 43 21 51 41 21 51 39 20 52 41 21 51 41 21 51 41 21 51 43 20 52 41 20 52 41 20 51 43 21 51 41 21 51 41 21 51 43 21 51 43 21 51 43 20 50 40 20 52 41 20 52 41 21 51 43 21 51 41 21 51 41 19 52 43 21 51 43 21 51 41 21 51 41 21 51 41 19 50 44 21 51 43 22 52 42 22 52 42 20 52 41 19 51 40 21 51 41 21 51 41 21 46 42 26 37 43 27 36 43 25 36 42 64 25 28 75 21 21 77 21 22 76 22 22 76 22 22 75 19 20 73 22 21 76 20 21 76 22 22 74 20 20 77 21 22 75 21 21 73 22 21 76 22 22 75 21 21 76 22 22 76 22 22 76 22 22 76 22 22 75 21 21 76 20 21 76 20 21 75 21 21 75 21 21 75 21 21 75 21 21 76 22 22 75 21 21 
22 52 44 20 51 45 19 51 40 20 52 41 20 50 42 20 51 43 21 51 43 21 51 41 20 51 43 20 50 42 21 51 41 20 51 43 22 52 42 19 51 40 20 51 43 19 52 43 20 52 41 21 52 44 20 52 41 20 52 41 21 51 43 21 51 39 20 52 41 20 51 43 19 51 40 20 52 41 22 52 42 21 51 41 20 50 42 24 51 42 22 52 44 21 51 41 20 52 41 20 51 43 20 52 41 20 52 41 21 51 43 20 50 40 20 52 41 21 53 42 20 50 38 21 51 43 21 51 43 19 50 42 20 52 39 21 51 41 21 53 42 21 53 42 20 52 41 21 51 41 21 51 41 20 52 41 21 51 41 20 51 43 21 52 44 21 51 43 21 51 41 21 51 41 21 51 41 20 52 41 21 51 43 21 52 44 22 52 42 21 51 39 21 51 41 19 51 40 21 51 43 21 51 43 20 49 44 25 36 42 26 37 43 25 35 44 66 24 26 75 21 19 76 21 24 75 21 21 77 21 22 75 21 21 76 22 22 77 21 24 75 21 21 75 20 23 76 20 21 76 20 19 76 21 24 75 21 21 76 22 22 76 22 22 75 20 23 75 20 23 76 22 22 75 19 20 76 22 22 75 19 20 75 20 23 76 20 21 77 21 20 76 20 21 77 21 20 76 22 22 
20 51 43 20 52 41 20 52 41 20 51 43 21 51 41 21 51 41 20 52 41 20 52 41 21 51 41 21 51 41 20 52 41 24 51 44 20 51 43 21 51 41 20 50 40 20 50 40 21 51 43 20 51 43 20 50 42 21 51 41 21 51 43 20 50 40 20 52 41 19 51 40 20 52 41 20 52 41 21 51 41 21 51 43 21 51 41 21 51 41 21 51 43 20 51 43 23 50 43 21 51 41 21 53 42 21 52 44 20 51 43 21 51 39 23 50 43 21 51 41 20 52 41 20 51 43 21 51 43 21 51 43 21 51 41 21 51 41 21 51 43 20 52 41 21 51 41 21 51 41 21 51 41 20 52 41 20 51 43 22 52 42 21 51 43 20 50 42 19 51 40 21 51 41 21 53 42 20 52 41 21 51 43 21 51 43 21 51 43 19 51 40 21 51 41 19 50 42 21 51 43 20 52 41 21 51 41 24 39 46 27 36 43 26 35 42 64 22 24 74 19 22 75 21 19 75 21 21 74 20 20 79 20 22 76 20 21 76 22 20 76 20 21 75 20 23 76 22 22 76 22 22 76 21 24 76 22 22 76 22 22 77 21 24 77 21 24 75 21 21 75 21 21 76 20 21 76 20 21 75 21 21 76 22 22 75 21 19 75 21 21 76 20 21 75 21 21 74 20 20 
21 51 43 20 52 41 20 51 43 20 50 40 21 51 41 21 52 44 21 51 41 20 52 41 20 52 41 20 50 40 20 52 41 21 53 42 20 52 41 21 51 41 21 51 43 21 51 41 21 51 43 21 51 41 21 51 43 21 51 43 21 52 44 21 51 43 19 50 42 20 52 41 20 51 43 20 51 43 21 51 43 19 50 42 20 52 41 18 51 40 20 52 41 21 51 41 22 52 42 19 50 42 21 51 41 21 51 43 19 51 40 20 52 41 20 52 41 20 52 41 21 51 41 21 51 43 20 52 41 21 51 43 21 51 43 19 51 40 21 51 43 20 52 41 21 51 41 21 53 42 21 51 43 20 52 41 21 51 41 21 51 43 21 51 41 21 51 41 20 52 41 20 52 41 20 52 41 21 51 41 21 51 41 20 51 43 20 51 43 21 51 41 21 51 39 20 51 43 20 52 41 20 50 42 21 51 41 23 45 43 27 36 43 25 36 42 64 23 29 76 21 24 75 21 21 77 21 22 77 21 24 75 21 21 75 20 23 77 21 22 76 20 23 74 20 20 76 22 22 72 21 20 75 20 23 75 21 21 75 21 21 75 21 21 75 21 21 75 21 21 76 21 24 75 21 21 76 22 22 77 23 23 76 22 22 73 19 19 75 21 21 76 22 22 76 22 22 75 21 21 
22 52 44 19 51 40 20 52 41 20 50 40 21 51 43 23 50 43 21 51 41 21 51 43 20 52 41 21 51 41 21 52 44 21 53 42 20 52 41 21 51 43 20 52 39 20 52 41 20 52 41 21 51 43 21 51 41 21 51 41 21 51 41 20 52 41 19 51 40 22 52 40 22 52 42 21 53 42 19 51 40 21 51 43 20 52 41 20 52 41 20 50 40 20 52 41 21 51 43 20 51 43 20 52 41 21 51 43 20 50 42 21 51 41 21 51 43 20 52 41 21 53 42 21 51 43 19 51 40 20 51 43 20 51 43 21 51 43 22 52 44 21 51 41 20 51 43 21 51 41 21 51 43 20 52 41 20 52 41 20 52 41 20 52 41 20 52 41 21 51 43 21 51 41 19 52 41 20 51 43 19 50 42 21 51 41 20 50 42 21 51 43 21 51 43 21 51 43 19 52 41 21 51 43 20 52 41 19 48 43 26 35 42 25 36 42 60 25 29 75 21 21 75 21 21 75 21 21 77 21 22 75 21 21 75 21 21 76 20 19 75 21 21 75 20 23 75 21 21 76 20 21 76 22 22 74 20 20 75 21 21 76 20 21 76 20 21 74 19 22 75 21 21 76 22 22 75 21 19 75 21 21 75 21 21 75 21 21 76 20 21 75 21 21 75 21 21 75 21 21 
