P3
100 50
255
60 1 49 69 0 54 74 0 59 76 1 60 75 1 60 75 1 60 76 1 60 74 0 59 75 1 60 75 0 59 75 1 60 65 1 51 60 2 50 63 1 50 73 0 58 74 0 59 74 0 59 74 0 59 74 0 59 74 0 59 75 1 60 74 0 59 74 0 59 72 1 57 59 1 51 60 1 47 70 1 56 74 0 59 75 1 60 74 0 59 75 1 60 74 0 59 74 0 59 74 0 59 73 0 58 74 0 59 63 1 50 59 0 48 64 2 53 74 0 59 75 1 60 75 1 60 74 0 59 75 2 58 73 0 58 74 0 59 75 0 59 75 0 59 70 1 56 58 0 48 60 1 49 70 0 55 74 0 59 75 1 60 75 1 60 75 1 60 75 1 60 75 1 60 75 1 60 74 0 59 75 1 60 63 1 50 58 0 48 65 1 53 74 0 59 72 1 59 74 0 59 75 1 60 75 1 60 74 0 59 76 1 60 75 1 60 76 1 60 71 0 56 59 0 48 60 1 49 70 1 56 75 1 60 74 0 59 75 1 60 76 2 61 75 1 60 76 1 60 74 0 59 74 0 59 75 1 60 63 1 52 59 0 48 60 1 49 75 1 60 74 0 59 74 0 59 74 0 59 75 1 60 75 1 60 74 0 59 75 1 60 74 0 59 71 0 56 59 0 46 
58 0 48 71 0 56 73 0 58 74 0 59 74 0 59 75 1 60 76 1 60 74 0 59 72 1 59 75 1 60 75 1 60 64 2 51 59 0 48 63 1 50 74 0 59 75 1 60 74 0 59 74 0 59 74 0 59 74 0 59 75 1 60 75 1 60 74 0 59 70 1 56 57 0 45 60 1 47 70 1 56 75 1 60 75 1 60 75 1 60 75 1 60 74 0 59 74 0 59 74 0 59 73 0 58 75 1 60 63 1 52 60 1 49 64 2 51 73 0 58 75 1 60 73 0 58 75 1 60 75 1 60 76 2 61 74 0 59 75 1 60 74 0 59 72 1 59 59 1 49 60 1 49 72 1 57 75 1 60 74 0 59 74 0 59 75 1 60 74 0 59 74 0 59 74 0 59 75 1 60 73 0 58 63 1 50 60 1 49 64 0 52 74 0 59 74 0 59 75 0 59 74 0 59 74 0 59 75 1 60 75 1 60 74 0 59 75 1 60 71 0 56 60 1 49 60 1 49 70 1 56 73 0 58 75 1 60 74 0 59 74 0 59 74 0 59 75 1 60 74 0 59 73 0 58 74 0 61 63 1 50 59 0 48 62 0 49 75 1 60 75 1 60 74 0 59 74 0 59 75 1 60 74 0 59 74 0 59 75 1 60 74 0 59 71 0 56 59 0 46 
58 0 48 70 1 56 74 0 59 76 1 60 74 0 59 75 1 60 75 1 60 74 0 59 75 1 60 75 1 60 74 0 59 63 1 50 59 0 48 63 1 50 75 1 60 75 1 60 74 0 59 75 1 60 74 0 59 74 0 59 76 1 60 74 0 59 75 1 60 71 0 56 60 1 49 60 1 49 70 1 56 74 0 59 74 0 59 75 1 60 74 0 59 74 0 59 74 0 59 75 1 60 74 0 59 75 1 60 63 1 52 59 1 49 63 1 50 74 0 59 74 0 59 75 0 59 74 0 59 75 1 60 74 0 59 74 0 59 74 0 59 74 0 59 72 1 59 59 0 46 58 0 48 70 0 55 75 1 60 74 0 59 74 0 59 75 1 60 75 1 60 75 1 60 73 0 58 74 0 59 74 0 59 63 1 50 59 2 47 64 0 53 74 0 59 75 1 60 74 0 59 75 1 60 75 1 60 75 1 60 75 1 60 74 0 59 75 1 60 71 0 56 59 0 46 60 1 47 70 0 55 75 1 60 74 0 59 74 0 59 76 1 60 76 1 60 76 1 60 75 1 60 75 1 60 73 0 58 63 1 52 59 1 49 63 0 49 74 0 59 72 1 59 74 0 59 75 1 60 75 1 60 74 0 59 75 1 60 74 0 59 73 0 58 71 0 58 59 0 46 
60 1 49 69 0 55 74 0 59 75 0 59 74 0 59 74 0 59 74 0 59 75 1 60 75 1 60 74 0 59 74 0 59 63 1 50 60 1 49 63 1 50 74 0 59 75 1 60 75 1 60 75 1 60 75 1 60 74 0 59 74 0 59 75 1 60 74 0 59 72 1 57 60 1 49 59 0 46 70 1 56 74 0 59 75 1 60 75 1 60 75 1 60 75 1 60 75 1 60 75 1 60 75 1 60 74 0 59 63 1 50 59 2 47 63 1 50 74 0 59 74 0 59 74 0 59 75 1 60 75 1 60 75 1 60 74 0 59 75 0 59 74 0 59 70 0 55 59 0 48 59 1 49 71 0 56 75 1 60 75 1 60 75 1 60 74 0 59 75 1 60 75 1 60 75 1 60 74 0 59 75 1 60 63 1 50 60 1 47 64 2 53 74 0 59 75 1 60 74 0 59 75 1 60 74 0 59 75 1 60 75 1 60 74 0 59 74 0 59 70 1 56 60 1 47 59 2 47 70 1 56 75 1 60 74 0 59 74 0 59 75 1 60 75 1 60 75 1 60 74 0 59 74 0 59 75 1 60 63 1 52 60 1 49 62 0 49 74 0 59 75 1 60 74 0 59 74 0 59 74 0 59 74 0 59 75 1 60 75 1 60 75 1 60 71 0 56 59 0 48 
59 1 49 70 1 56 74 0 59 75 0 59 75 1 60 74 0 59 74 0 59 76 2 61 73 0 58 75 1 60 76 2 61 62 0 49 60 1 49 62 0 49 74 0 59 75 1 60 74 0 59 74 0 59 74 0 59 74 0 59 74 0 59 75 1 60 74 0 59 70 0 55 60 1 47 60 1 49 69 0 55 75 1 60 75 1 60 75 1 60 75 1 60 75 1 60 75 1 60 76 2 61 74 0 59 74 0 59 63 1 52 60 1 49 63 1 50 75 1 60 75 0 59 75 1 60 75 1 60 75 0 59 75 1 60 75 1 60 74 0 59 74 0 59 70 1 56 59 1 49 58 0 48 71 0 56 74 0 59 74 0 59 74 0 59 74 0 59 75 1 60 74 0 59 74 0 59 74 0 59 75 1 60 62 0 49 60 1 45 64 0 52 74 0 59 75 1 60 74 0 59 74 0 59 74 0 59 75 1 60 74 0 59 75 1 60 74 0 59 71 0 56 59 0 46 60 1 47 69 0 55 75 1 60 74 0 59 73 0 58 75 1 60 74 0 59 75 1 60 75 1 60 74 0 59 75 1 60 63 1 52 60 1 49 63 1 50 75 1 60 75 1 60 74 0 59 75 1 60 74 0 59 75 1 60 75 1 60 74 0 59 74 0 59 71 0 56 60 1 49 
58 1 46 73 0 56 75 1 60 75 1 60 73 0 58 75 1 60 75 1 60 74 0 59 74 0 59 74 0 59 75 1 60 63 1 50 61 2 50 64 2 51 74 0 59 73 0 58 74 0 59 74 0 59 74 0 59 75 1 60 75 1 60 74 0 59 74 0 59 70 0 55 59 0 48 60 1 47 70 1 56 74 0 59 75 1 60 74 0 59 74 0 59 75 1 60 74 0 59 75 1 60 75 1 60 74 0 59 63 1 50 59 0 46 61 2 50 75 0 59 74 0 59 74 0 59 74 0 59 74 0 59 74 0 59 73 2 60 74 0 59 76 2 61 71 0 56 59 0 48 60 1 49 71 0 56 74 0 59 74 0 59 73 0 58 75 1 60 74 0 59 74 0 59 74 0 59 75 1 60 75 0 59 63 1 50 59 0 48 63 1 50 75 0 59 74 0 59 75 1 60 74 0 59 74 0 59 75 1 60 74 0 59 74 0 59 75 1 60 70 1 56 59 0 46 58 0 48 69 0 55 74 0 59 74 0 59 74 0 59 74 0 59 74 0 59 75 1 60 74 0 59 74 0 59 74 0 59 63 1 52 59 0 48 63 1 50 74 0 59 74 0 59 75 1 60 73 0 58 75 1 60 75 1 60 75 1 60 75 1 60 75 1 60 71 0 58 60 1 47 
58 1 46 70 0 55 75 1 60 74 0 59 74 0 59 75 1 60 74 0 59 75 1 60 74 0 59 74 0 59 74 0 59 63 1 50 60 1 49 63 1 50 75 1 60 74 0 59 75 1 60 74 0 59 75 1 60 75 1 60 75 1 60 74 0 59 73 0 58 70 1 56 59 2 47 59 0 48 70 1 56 74 0 59 74 0 59 75 1 60 74 0 59 74 0 59 74 0 59 75 1 60 74 0 59 75 1 60 62 0 49 60 1 47 63 1 50 76 1 60 75 1 60 75 0 59 73 0 58 74 0 59 75 0 59 75 1 60 75 1 60 75 1 60 72 1 59 59 2 47 59 0 48 70 1 56 74 0 59 74 0 59 74 0 59 75 1 60 74 0 59 74 0 59 75 1 60 74 0 59 75 1 60 61 2 50 60 1 47 63 1 50 74 0 59 74 0 59 74 0 59 72 1 59 74 0 59 74 0 59 74 0 59 76 2 61 74 0 59 70 1 56 60 1 47 57 0 47 69 0 55 74 0 59 74 0 59 75 1 60 75 1 60 75 1 60 75 1 60 74 0 59 74 0 59 74 0 59 63 1 52 60 1 49 63 1 50 75 1 60 75 1 60 74 0 59 74 0 59 75 1 60 75 1 60 75 1 60 74 0 59 74 0 59 71 0 58 59 0 46 
60 1 49 70 1 56 75 1 60 74 0 59 75 1 60 74 0 59 75 1 60 75 1 60 75 1 60 74 0 59 75 1 60 63 1 50 59 0 48 63 1 50 74 0 59 74 0 59 74 0 59 75 1 60 74 0 59 75 1 60 75 1 60 75 1 60 74 0 59 69 0 55 58 0 48 60 1 47 70 1 56 74 0 59 74 0 59 73 0 58 75 1 60 73 0 58 74 0 59 74 0 59 74 0 59 74 0 59 62 0 51 58 0 48 64 2 51 74 0 59 74 0 59 75 1 60 75 0 59 73 2 60 74 0 59 76 2 61 75 1 60 75 0 59 71 0 58 59 0 46 60 1 49 72 1 57 74 0 59 74 0 59 74 0 59 76 2 61 74 0 59 75 1 60 74 0 59 74 0 59 75 1 60 63 1 50 58 0 50 63 1 48 75 1 60 75 1 60 74 0 59 74 0 59 75 1 60 75 1 60 74 0 59 74 0 59 75 1 60 70 0 55 59 0 46 60 1 49 70 1 56 75 1 60 75 1 60 74 0 59 74 0 59 74 0 59 73 0 58 75 1 60 74 0 59 71 0 58 65 3 54 59 0 48 63 1 50 74 0 59 76 1 60 73 0 58 74 0 59 74 0 59 74 0 59 74 0 59 73 0 58 73 0 58 72 1 57 60 1 49 
59 1 49 70 1 56 74 0 59 76 1 60 74 0 59 74 0 59 74 0 59 74 0 59 74 0 59 75 1 60 75 1 60 63 1 50 59 0 48 63 1 50 75 1 60 75 1 60 75 1 60 74 0 59 75 1 60 74 0 59 75 1 60 74 0 59 74 0 59 70 1 56 59 2 47 60 1 49 69 0 55 74 0 59 74 0 59 75 1 60 75 1 60 74 0 59 75 1 60 75 1 60 75 1 60 74 0 59 62 0 49 60 1 47 63 1 50 74 0 59 74 0 59 74 0 59 73 0 58 73 0 58 74 0 59 75 1 60 75 1 60 74 0 59 72 1 57 59 1 49 61 0 48 70 0 55 74 0 59 74 0 59 75 1 60 74 0 59 75 1 60 74 0 59 75 1 60 75 1 60 74 0 59 62 0 49 60 1 49 64 1 48 74 0 59 75 1 60 74 0 59 75 1 60 75 1 60 74 0 59 75 1 60 75 1 60 74 0 59 69 0 55 60 1 47 58 0 50 71 2 57 74 0 59 75 1 60 74 0 59 74 0 59 74 0 59 74 0 59 75 1 60 75 1 60 72 1 59 63 1 52 59 0 48 61 0 48 75 1 60 74 0 59 75 1 60 73 0 58 75 1 60 74 0 59 74 0 59 75 1 60 75 1 60 71 0 56 59 0 48 
58 0 48 69 0 55 72 1 59 72 1 59 75 1 60 75 1 60 75 1 60 74 0 59 74 0 59 75 1 60 74 0 59 63 1 50 60 1 49 64 2 51 74 0 59 74 0 59 75 1 60 75 1 60 73 0 58 74 0 59 74 0 59 75 1 60 75 1 60 70 1 56 59 1 49 58 1 46 70 1 56 75 1 60 74 0 59 74 0 59 74 0 59 74 0 59 73 0 58 76 2 61 76 2 61 74 0 59 63 1 52 57 0 47 63 1 50 74 0 59 74 0 59 75 1 60 72 1 59 74 0 59 75 1 60 75 1 60 72 1 59 73 0 58 71 0 56 59 1 49 60 1 49 70 1 56 74 0 59 74 0 59 74 0 59 73 0 58 74 0 59 74 0 59 73 0 58 74 0 59 73 0 58 62 0 49 59 1 49 64 1 48 73 0 58 74 0 59 74 0 59 74 0 59 75 1 60 74 0 59 75 1 60 74 0 59 75 1 60 70 0 55 60 1 47 60 0 51 68 1 55 73 0 58 75 1 60 74 0 59 72 1 59 72 1 59 73 0 58 74 0 59 75 1 60 76 2 61 63 1 52 59 0 48 63 1 50 74 0 59 74 0 59 75 1 60 74 0 59 74 0 59 75 1 60 75 1 60 74 0 59 75 1 60 72 1 59 60 1 47 
59 2 47 70 1 56 72 1 59 73 0 58 74 0 59 74 0 59 73 0 58 74 0 59 73 2 60 74 0 59 74 0 59 63 1 50 60 1 45 63 1 50 74 0 59 75 1 60 74 0 59 74 0 59 74 1 57 74 0 59 74 0 59 74 0 59 72 1 59 69 0 55 59 0 48 60 1 49 69 0 55 74 0 59 74 0 59 74 0 59 74 0 59 75 1 60 72 1 59 74 0 59 74 0 59 75 0 59 63 1 50 57 1 46 63 1 50 74 0 59 74 0 59 73 0 58 74 0 59 73 2 60 74 0 59 73 0 58 74 0 59 74 0 59 70 1 58 59 1 49 59 2 47 70 1 56 74 0 59 74 0 59 72 1 59 74 0 59 75 1 60 75 1 60 73 2 60 74 0 59 71 0 58 62 0 49 59 0 46 63 1 50 74 0 59 73 0 58 71 0 58 72 1 59 74 0 59 74 0 59 75 1 60 74 0 59 74 0 59 70 1 56 59 2 47 60 1 47 69 0 55 74 0 59 74 0 59 73 2 60 74 0 59 74 0 59 74 0 59 75 1 60 74 0 59 74 0 59 63 1 50 59 0 48 62 0 49 74 0 59 75 1 60 75 1 60 74 0 59 74 0 59 74 0 59 75 1 60 74 0 59 74 0 59 71 0 56 59 0 46 
58 1 46 70 1 56 75 1 60 75 1 60 73 0 58 74 0 59 75 1 60 75 1 60 71 0 58 75 1 60 74 0 59 63 1 50 60 1 47 63 1 50 73 0 58 74 0 59 75 1 60 74 0 59 74 0 59 75 1 60 74 0 59 75 0 59 74 0 59 69 2 56 61 2 50 60 1 49 68 1 55 74 0 59 74 0 59 74 0 59 75 1 60 74 0 59 72 1 59 75 1 60 74 0 59 72 1 59 63 1 50 59 2 47 63 1 50 73 2 60 74 0 59 73 0 58 74 0 59 73 0 58 76 1 60 74 0 59 72 1 59 74 0 59 70 1 56 60 1 47 59 2 47 71 2 57 74 0 59 75 1 60 74 0 59 75 1 60 74 0 59 74 0 59 74 0 59 74 0 59 75 1 60 61 2 50 59 0 46 63 0 49 74 0 59 74 0 59 74 0 59 72 1 59 74 0 59 74 0 59 72 1 59 74 0 59 74 0 59 70 1 56 58 1 46 58 1 46 69 0 55 73 0 58 75 1 60 72 1 59 74 0 59 74 0 59 75 1 60 75 1 60 74 0 59 74 0 59 62 0 49 59 0 48 62 0 49 74 0 59 74 0 59 75 1 60 74 0 59 74 0 59 75 0 59 74 0 59 74 0 59 74 0 59 73 0 56 58 0 45 
58 1 46 73 0 56 74 0 59 74 0 59 75 1 60 74 0 59 74 0 59 74 0 59 73 2 60 74 0 59 74 0 59 63 1 50 59 0 48 64 2 51 74 0 59 74 0 59 74 0 59 75 1 60 74 0 61 74 0 59 75 1 60 74 0 59 73 0 58 69 0 55 60 1 49 58 0 48 69 0 55 75 1 60 74 0 59 73 2 60 73 2 60 74 0 59 74 0 59 74 0 59 74 0 59 75 1 60 63 1 50 58 1 46 63 1 50 74 0 59 73 2 60 73 2 60 75 0 59 73 0 58 75 1 60 74 0 59 75 1 60 75 1 60 72 1 57 58 2 47 60 1 47 70 1 56 71 0 58 74 0 59 74 0 59 74 0 59 71 0 58 73 0 58 74 0 59 74 0 59 73 0 58 62 0 49 58 1 46 63 1 50 74 0 59 71 0 58 74 0 59 74 0 59 72 1 59 74 0 59 74 0 59 74 0 59 72 1 59 71 0 56 59 0 46 59 0 46 68 0 54 74 0 59 74 0 59 73 2 60 75 1 60 74 0 59 74 0 59 74 0 59 73 0 58 75 1 60 63 1 50 60 1 49 62 0 49 74 0 59 74 0 59 75 1 60 75 1 60 72 1 59 75 1 60 75 1 60 74 0 59 72 1 59 70 1 56 60 1 47 
59 2 47 69 0 55 73 0 58 73 0 58 74 0 59 74 0 59 75 1 60 75 1 60 72 1 59 75 1 60 74 0 59 63 1 50 60 1 47 63 1 50 75 1 60 74 0 59 74 0 59 74 0 59 74 0 59 74 0 59 74 0 59 72 1 59 74 0 59 69 0 55 60 1 49 57 1 48 69 0 55 74 0 59 75 1 60 74 0 59 72 1 59 73 0 58 75 1 60 75 1 60 74 0 59 74 0 59 63 1 50 59 0 46 62 0 49 72 1 59 75 1 60 74 0 59 73 2 60 73 0 58 74 0 59 74 0 59 75 1 60 74 0 59 69 0 57 58 0 48 59 0 46 71 0 56 73 2 60 74 0 59 74 0 59 74 0 59 72 1 59 74 0 59 73 0 58 74 0 59 74 0 59 64 0 50 58 1 46 63 1 50 75 1 60 74 0 59 74 0 59 74 0 59 71 0 58 75 1 60 74 0 59 74 0 59 74 0 59 71 0 56 59 0 46 59 2 47 69 0 55 73 0 58 74 0 59 72 1 59 75 1 60 74 0 59 75 1 60 75 1 60 74 0 59 74 0 59 63 1 50 59 0 48 63 1 50 74 0 59 74 0 59 75 1 60 74 0 59 74 0 59 74 0 59 76 2 61 75 1 60 74 0 59 70 1 56 59 0 46 
58 1 46 70 1 56 72 1 59 74 0 59 74 0 59 75 1 60 73 0 58 74 0 59 73 2 60 74 0 59 74 0 59 63 1 50 58 1 46 64 2 51 73 0 58 74 0 59 74 0 59 75 1 60 74 0 59 72 1 59 74 0 59 74 0 59 74 0 59 69 0 55 60 1 49 59 1 49 69 2 56 74 0 59 74 0 59 74 0 59 74 0 59 75 1 60 74 0 59 72 1 59 74 0 59 75 1 60 63 1 50 59 2 47 64 0 50 75 0 59 71 2 59 72 1 59 74 0 59 74 0 59 74 0 59 75 1 60 74 0 59 74 0 59 71 0 58 58 0 48 59 0 46 70 1 56 74 0 59 74 0 59 74 0 59 74 0 59 73 0 58 73 2 60 74 0 59 74 0 59 74 0 59 63 1 50 59 2 47 61 2 50 71 2 59 71 0 58 75 1 60 74 0 59 74 0 59 74 0 59 72 1 59 72 1 59 74 0 59 70 1 56 60 1 47 59 0 46 70 1 56 74 0 59 74 0 59 72 1 59 74 0 59 74 0 59 74 0 59 74 0 59 75 1 60 74 0 59 63 1 50 61 2 50 62 0 49 74 0 59 76 2 61 74 0 59 74 0 59 74 0 59 72 1 59 75 0 59 73 0 58 74 0 59 70 1 56 59 0 46 
59 2 47 70 1 56 72 1 59 74 0 59 74 0 59 74 0 59 75 1 60 75 1 60 73 2 60 74 0 59 75 1 60 63 1 50 59 2 45 63 1 50 74 0 59 74 0 59 74 0 59 74 0 59 75 2 58 72 1 59 75 1 60 74 0 59 74 0 59 69 0 55 60 1 49 59 1 49 69 0 55 73 0 58 75 1 60 74 0 59 73 0 58 75 1 60 73 0 58 72 1 59 72 1 59 74 0 59 61 2 50 59 0 46 63 1 50 74 0 59 74 0 59 72 1 59 75 1 60 75 1 60 74 0 59 74 0 59 74 0 59 76 2 61 70 0 55 58 1 46 59 0 46 69 0 55 74 0 59 72 1 59 75 1 60 75 1 60 74 0 59 72 1 59 72 1 59 75 1 60 74 0 59 62 0 49 58 1 46 63 1 50 76 2 61 74 0 59 74 0 59 74 0 59 72 1 59 76 2 61 75 1 60 74 0 59 75 1 60 70 1 56 59 2 47 60 1 47 69 0 55 74 0 59 74 0 59 73 2 60 75 1 60 74 0 59 74 0 59 74 0 59 74 0 59 73 0 58 64 2 51 60 1 49 61 0 48 74 0 59 74 0 59 74 0 59 75 1 60 72 1 59 75 1 60 74 0 59 73 0 58 72 1 59 70 1 56 60 1 47 
58 1 46 69 0 55 71 0 58 74 0 59 73 0 58 74 0 59 74 0 59 74 0 59 72 1 59 74 0 59 74 0 59 63 1 50 59 2 47 63 1 50 75 1 60 74 0 59 73 0 58 75 1 60 74 0 59 72 1 59 72 1 59 71 0 58 72 1 59 70 1 56 59 1 49 59 1 49 70 0 55 71 0 58 71 0 58 74 0 59 76 2 61 72 1 59 74 0 59 74 0 59 75 1 60 74 0 59 63 1 50 58 1 46 63 1 50 75 0 59 75 1 60 74 0 59 75 1 60 72 1 59 75 1 60 74 0 59 74 0 59 74 0 59 70 1 56 60 1 47 58 1 46 70 1 56 74 0 59 74 0 59 74 0 59 73 0 58 75 1 60 74 0 59 75 1 60 74 0 59 74 0 59 62 0 49 59 2 47 63 1 50 75 1 60 71 0 58 71 0 58 75 1 60 74 0 59 73 0 58 69 0 57 75 1 60 73 0 58 70 1 56 59 2 47 58 1 46 71 2 57 74 0 59 74 0 59 72 1 59 74 0 59 74 0 59 74 0 59 74 0 59 74 0 59 74 0 59 63 1 50 61 2 50 63 1 50 75 1 60 74 0 59 74 0 59 73 2 60 75 1 60 73 0 58 74 0 59 72 1 59 73 0 58 71 2 57 60 1 47 
59 2 47 72 1 57 74 0 59 74 0 59 74 0 59 73 0 58 74 0 59 74 0 59 73 2 60 75 1 60 74 0 59 63 1 50 59 1 49 63 1 50 74 0 59 74 0 59 74 0 59 75 1 60 73 0 58 73 2 60 75 1 60 74 0 59 72 1 59 70 1 56 59 0 48 58 0 48 70 1 56 74 0 59 74 0 58 76 2 61 74 0 59 72 1 59 75 1 60 74 0 59 75 1 60 74 0 59 63 1 50 59 0 46 63 1 50 75 1 60 73 2 60 72 1 59 74 0 59 74 0 59 74 0 59 74 0 59 74 0 59 74 0 59 70 1 58 58 0 48 59 2 47 69 0 55 72 1 59 74 0 59 74 0 59 72 1 59 75 1 60 74 0 59 74 0 59 74 0 59 75 0 59 60 1 49 60 1 47 63 0 49 74 0 59 74 0 59 74 0 59 72 1 59 74 0 59 74 0 59 73 0 58 75 1 60 74 0 59 69 0 55 59 0 46 60 1 47 69 0 55 74 0 59 74 0 59 72 1 59 75 1 60 75 1 60 75 1 60 74 0 59 74 0 59 75 1 60 64 2 51 60 1 49 63 1 50 74 0 59 74 0 59 74 0 59 72 1 59 72 1 59 74 0 59 71 2 59 74 0 59 72 1 59 69 0 55 58 1 46 
59 2 47 70 1 56 73 0 58 75 1 60 74 0 59 74 0 59 75 2 58 74 0 59 75 1 60 74 0 59 74 0 59 63 1 50 59 0 48 63 1 50 74 0 59 73 0 58 74 1 57 74 0 59 74 0 59 74 0 59 72 1 59 72 1 59 74 0 59 71 2 57 59 0 48 60 1 47 70 1 56 72 1 59 74 0 59 74 0 59 73 0 58 74 0 59 72 1 59 73 0 58 72 1 59 74 0 59 62 0 49 57 0 45 63 1 50 74 1 57 74 0 59 74 0 59 73 0 56 72 1 59 72 1 59 73 2 60 74 0 59 72 1 59 70 1 55 59 2 47 58 1 46 70 1 55 72 3 60 74 0 59 75 1 60 76 2 61 74 0 59 74 0 59 74 0 59 74 0 59 72 1 59 62 0 49 59 2 47 63 1 50 73 0 58 75 1 60 75 0 59 75 1 60 75 1 60 74 0 59 74 0 59 73 2 60 71 2 59 69 0 55 59 0 48 57 0 45 70 1 56 74 0 59 74 0 59 74 0 59 74 0 59 73 0 58 73 0 58 74 1 57 74 0 59 72 1 61 63 1 50 58 0 48 61 2 50 74 0 59 74 0 59 73 2 60 74 0 59 74 0 59 75 1 60 75 1 60 74 0 59 74 0 59 71 0 56 59 2 47 
59 2 47 70 1 56 74 0 59 74 0 59 73 0 58 72 1 59 74 0 59 74 0 59 72 1 59 75 1 60 75 1 60 63 1 50 58 0 48 64 2 51 73 2 60 74 1 57 73 0 58 74 0 59 75 1 60 72 1 59 72 1 59 74 0 59 75 1 60 69 0 55 59 1 49 59 2 47 68 0 54 74 0 59 73 0 58 74 1 57 71 0 58 74 0 59 72 1 59 74 0 59 73 0 58 75 1 60 61 2 50 58 0 48 62 0 49 75 1 60 74 0 59 73 2 60 75 2 58 73 0 58 72 1 57 74 0 59 71 0 56 73 0 58 71 2 57 58 2 47 60 1 45 70 1 56 75 1 60 72 1 59 74 0 59 74 0 59 73 0 58 74 0 59 74 0 59 74 0 59 75 1 60 62 0 49 60 1 47 63 1 50 74 0 59 74 0 59 75 1 60 74 0 59 72 1 57 72 1 61 74 0 59 75 1 60 74 0 59 70 1 58 59 2 47 59 0 46 69 0 55 74 0 59 74 0 59 74 0 59 74 0 59 74 0 59 74 0 59 74 1 57 75 0 59 74 0 59 63 1 50 58 0 48 62 0 49 74 0 59 73 0 58 74 0 59 74 0 59 74 1 57 74 1 57 72 1 57 74 0 59 74 0 59 70 1 56 60 1 49 
58 1 46 70 1 56 75 2 58 73 0 58 74 0 59 74 0 59 74 0 59 75 1 60 74 0 59 74 0 59 75 2 58 63 1 50 58 2 49 64 0 50 74 0 59 75 0 59 72 1 57 74 0 59 74 0 59 74 0 59 72 1 59 72 1 59 74 0 59 70 1 56 59 0 46 58 0 45 69 0 55 72 1 59 72 1 59 75 1 60 72 1 59 75 1 60 74 0 59 72 1 59 74 0 59 73 0 58 61 2 50 58 1 46 63 1 52 73 0 58 74 0 59 73 2 58 74 0 61 73 0 58 72 1 59 72 1 59 74 0 59 72 1 59 70 1 56 58 1 46 57 0 47 69 0 55 74 0 59 74 0 59 73 2 60 74 0 59 74 0 59 73 0 58 72 1 59 73 0 58 74 0 59 63 1 50 58 0 48 63 1 50 74 0 59 74 0 58 74 0 59 74 0 59 74 0 61 74 0 59 74 1 57 75 1 60 74 0 59 68 0 57 59 1 49 58 1 46 70 1 56 74 1 57 74 1 57 74 0 59 74 0 61 74 1 57 75 1 60 73 0 58 74 0 59 74 0 59 64 2 51 59 0 46 61 2 50 74 0 59 74 0 59 74 0 59 75 1 60 71 0 58 73 0 58 74 0 59 74 0 59 74 1 57 70 0 55 59 0 46 
58 1 46 70 1 56 74 0 59 74 0 59 74 0 59 72 1 59 75 1 60 72 1 59 72 1 59 74 0 59 72 1 57 64 2 51 58 0 48 63 1 50 75 1 60 73 2 60 72 1 57 75 1 60 74 0 59 72 1 59 74 0 59 75 1 60 73 2 60 69 0 55 58 1 46 58 1 46 69 0 55 72 1 59 74 1 57 74 0 59 72 1 57 75 2 58 75 1 60 74 0 59 74 0 59 75 1 60 62 0 49 58 0 48 62 0 51 74 0 59 74 0 59 74 0 59 75 1 60 71 0 58 73 0 58 74 0 59 74 0 59 73 0 58 70 1 55 58 0 48 57 0 45 69 0 55 74 0 59 74 0 59 74 0 59 75 1 60 74 0 59 71 0 58 74 0 59 74 0 59 72 1 59 61 2 50 59 0 46 63 1 50 74 0 59 74 0 59 74 0 59 75 0 59 75 1 60 74 0 59 75 1 60 74 0 61 75 1 60 70 0 55 58 1 46 59 2 47 70 1 56 74 1 57 74 1 57 74 0 59 75 1 60 74 1 57 75 1 60 74 0 59 73 0 58 74 0 59 61 1 52 58 1 46 60 1 49 74 0 59 74 0 59 72 1 57 75 1 60 72 1 57 71 0 60 72 1 59 73 0 58 73 0 58 71 0 56 59 2 47 
58 0 48 69 0 55 74 0 59 73 0 58 74 0 59 74 0 59 73 0 58 74 0 59 74 0 59 73 0 58 74 1 57 63 1 50 57 1 48 64 0 50 74 0 59 76 3 59 72 1 59 72 1 59 76 1 60 74 0 59 72 1 59 73 0 58 75 1 60 69 0 55 59 1 49 59 2 47 70 1 56 74 0 59 75 0 59 73 2 58 75 1 60 74 0 59 73 0 58 72 1 59 73 0 58 75 0 59 63 1 50 59 2 47 63 1 50 74 0 59 74 0 59 74 0 59 74 0 59 72 1 59 74 0 59 75 1 60 74 0 59 74 0 59 69 0 57 57 0 47 58 1 46 70 1 56 74 0 59 74 0 59 75 1 60 74 0 59 73 0 58 74 0 59 73 0 58 72 1 59 72 1 59 62 0 49 58 1 46 63 0 49 74 0 59 74 0 59 73 0 58 74 0 59 75 2 58 74 0 59 74 1 57 74 0 59 74 1 57 69 0 55 58 1 46 59 2 47 70 2 53 74 0 59 75 1 60 74 1 57 74 0 59 74 0 59 74 0 59 74 0 59 74 0 59 74 0 59 63 1 52 58 1 46 63 1 50 71 0 58 74 0 59 75 2 58 72 1 59 74 1 57 73 2 60 72 1 57 74 0 59 74 0 59 71 0 56 60 1 49 
58 1 46 70 1 56 74 0 59 73 0 58 74 0 59 74 0 59 74 0 59 72 1 59 71 0 58 75 1 60 72 1 57 63 1 50 59 1 49 62 0 49 74 0 59 72 1 57 75 1 60 74 0 59 74 0 59 72 1 59 75 0 59 72 1 59 74 0 59 69 0 55 59 1 49 58 1 46 69 0 55 72 1 59 73 0 58 73 2 60 72 1 59 72 1 59 73 0 58 74 0 59 72 1 59 75 1 60 60 0 51 57 0 45 62 0 49 75 1 60 74 0 59 71 0 56 73 0 58 73 0 56 72 1 59 75 1 60 73 0 56 72 1 59 70 1 56 59 1 49 58 0 48 71 2 57 74 0 59 73 0 58 74 0 59 73 0 58 72 1 59 76 2 61 74 0 59 73 0 58 73 2 60 62 0 49 59 0 48 64 0 50 75 1 60 72 1 59 73 0 58 74 0 59 76 1 60 75 2 58 73 0 58 73 0 60 73 2 60 69 2 56 60 1 49 59 2 47 70 1 56 73 0 58 73 0 58 74 0 59 74 1 57 74 0 59 75 1 60 74 1 56 75 1 60 75 1 60 63 1 50 58 1 46 63 1 50 75 1 60 74 0 59 75 1 60 74 0 59 73 2 60 73 0 58 74 0 59 74 0 59 74 1 57 70 1 56 58 1 46 
59 2 47 69 0 55 74 0 59 73 0 58 74 0 59 73 0 58 73 0 58 74 0 59 73 0 58 74 0 59 74 0 59 63 1 50 58 0 48 64 2 51 75 1 60 74 0 59 74 1 57 74 0 59 74 0 59 74 0 59 74 0 59 75 0 59 72 1 59 69 0 55 58 0 48 58 1 46 69 0 55 74 0 59 75 2 58 72 1 59 74 1 57 72 1 57 74 0 59 72 1 59 74 0 59 74 0 59 61 2 50 59 2 47 63 1 50 73 0 58 74 0 59 72 1 59 75 2 58 73 0 58 74 0 59 75 1 60 75 1 60 75 0 57 70 1 56 58 0 48 58 0 50 70 1 56 74 0 59 74 0 59 74 0 59 73 2 60 74 0 59 73 0 58 73 0 58 76 1 60 74 0 59 60 1 49 59 2 47 63 1 50 74 0 59 73 0 58 74 0 59 73 0 58 72 1 59 72 1 57 73 0 56 74 0 59 74 1 57 70 1 56 58 1 46 60 1 47 69 0 55 74 0 59 74 0 59 73 0 58 74 0 59 75 1 60 74 0 59 73 0 56 74 0 59 74 0 59 62 0 49 58 0 48 60 1 49 74 0 59 73 0 58 74 0 59 74 0 59 74 1 57 73 0 58 74 0 59 73 0 58 73 0 58 69 0 55 60 1 47 
58 1 46 68 0 54 74 0 59 74 0 59 75 1 60 74 0 59 73 0 56 74 0 59 74 0 59 74 0 59 74 0 59 63 1 50 59 0 48 62 0 49 72 1 59 74 1 57 75 1 60 73 0 58 74 0 59 74 0 59 75 0 59 74 0 59 75 1 60 70 1 56 58 1 46 58 1 46 69 0 55 73 0 58 73 0 58 75 0 59 74 0 59 72 1 59 74 0 59 73 2 60 74 0 59 72 1 59 63 1 50 59 2 47 62 0 51 74 0 59 74 1 57 74 0 59 74 0 59 72 1 59 73 0 58 74 0 59 74 1 57 74 0 59 70 1 56 58 0 48 58 1 46 71 2 57 73 0 58 74 0 59 72 1 59 73 0 58 74 0 59 74 0 59 74 0 59 74 0 59 73 0 58 62 3 51 58 1 46 63 1 50 74 0 59 74 0 59 74 0 59 73 0 58 72 1 59 72 1 57 72 1 59 74 0 59 75 1 60 69 0 55 57 0 47 59 2 47 69 0 55 75 1 60 74 0 59 74 0 59 74 0 61 74 1 57 74 0 59 74 0 59 73 0 58 74 0 61 64 2 51 58 0 48 63 1 50 73 0 58 73 2 60 74 0 59 74 0 59 74 0 59 73 0 58 75 1 60 74 0 59 73 0 58 71 0 56 58 0 48 
59 1 49 69 0 55 74 0 59 72 1 57 74 0 59 73 0 56 72 0 57 72 0 55 75 1 60 75 1 60 73 0 58 63 1 50 59 2 47 60 1 49 75 2 58 72 1 59 73 2 60 73 0 58 75 2 58 74 1 57 73 0 58 74 1 57 74 0 59 70 0 55 58 1 46 57 0 47 70 1 56 72 1 57 72 1 59 74 0 59 73 0 58 70 0 54 72 1 57 74 1 57 70 1 55 65 3 52 55 2 44 53 3 40 54 4 42 60 5 45 60 3 44 59 4 44 62 3 49 66 2 52 71 0 56 72 1 57 72 1 59 74 0 59 70 0 57 58 1 46 58 1 46 71 0 56 71 0 56 72 1 59 75 0 59 71 2 57 74 0 61 73 0 58 72 1 59 73 0 56 75 1 60 62 0 49 60 1 47 63 1 50 72 1 57 74 0 59 72 1 59 74 0 59 74 1 57 72 1 59 72 1 57 72 1 59 74 0 59 69 0 55 58 1 46 58 0 48 69 0 55 72 1 59 74 0 59 70 1 58 72 1 59 72 1 59 73 2 60 72 1 59 72 1 59 71 0 58 63 1 50 57 1 46 62 0 49 74 0 59 74 0 59 74 0 59 74 0 59 72 1 59 72 1 59 73 0 58 73 0 58 73 0 58 70 1 56 58 1 46 
59 2 47 69 0 55 72 1 59 74 0 59 74 0 59 73 0 56 73 0 58 74 1 57 74 0 61 74 0 59 74 0 59 62 3 51 58 1 44 62 0 49 72 1 57 75 1 60 74 0 59 74 0 59 72 1 59 72 1 59 75 1 60 74 1 57 72 1 59 70 1 56 59 2 47 58 2 47 70 3 57 70 1 58 72 1 57 72 1 57 71 2 57 67 3 55 61 2 46 52 5 37 47 7 33 46 6 32 49 6 34 46 6 33 46 6 32 47 7 33 47 7 33 46 6 32 46 6 32 47 7 34 48 5 33 52 5 37 56 4 42 62 3 49 66 2 54 59 0 46 58 1 46 70 1 56 73 0 58 73 2 60 74 0 59 73 0 56 74 1 57 73 0 58 73 0 58 73 0 56 72 1 59 60 1 49 60 1 47 63 1 50 73 2 60 74 0 59 71 0 58 75 1 60 73 0 58 71 0 58 72 1 59 71 0 58 71 0 58 70 1 56 58 1 46 58 1 46 70 1 56 73 2 60 72 1 59 75 1 60 72 1 59 72 1 59 72 1 59 72 1 59 72 1 59 73 0 58 63 1 50 58 1 46 63 1 50 75 1 60 73 0 58 74 0 59 71 2 59 73 0 58 72 1 59 72 1 59 73 2 60 74 0 59 70 1 56 58 1 46 
58 1 46 70 1 58 74 1 57 74 0 59 73 0 58 72 1 59 74 1 57 73 0 56 74 0 59 72 1 59 74 0 61 63 1 50 58 1 46 61 1 52 72 1 59 75 1 60 72 1 57 74 1 57 74 0 61 74 1 57 72 2 56 64 2 49 60 3 46 55 3 41 48 3 34 48 5 33 49 6 36 49 4 33 50 5 34 50 5 36 50 5 36 50 5 36 47 7 34 46 6 33 48 5 33 46 6 32 46 6 32 46 6 33 46 6 33 46 6 32 46 6 33 49 6 34 49 6 34 47 7 33 48 5 33 48 5 32 46 6 32 46 6 32 49 6 34 49 4 35 57 2 44 68 1 54 71 0 58 74 0 59 72 1 59 71 0 60 75 2 58 71 2 59 73 0 58 72 1 59 74 0 59 63 1 50 59 0 48 64 2 51 72 1 59 73 0 58 73 2 60 73 0 58 73 2 60 74 0 59 74 0 59 72 1 59 74 0 61 69 0 55 59 2 47 58 1 46 69 2 56 74 0 59 72 1 59 74 0 59 72 1 59 74 0 59 72 1 59 72 1 59 71 0 58 73 0 58 63 1 50 58 1 46 60 1 49 72 1 59 72 1 59 72 1 59 72 1 59 72 1 59 74 0 59 74 0 59 72 1 59 72 1 59 69 0 55 58 1 46 
58 1 46 69 0 55 71 0 58 73 2 60 72 1 59 74 0 58 73 0 58 72 1 59 75 1 60 73 0 58 74 1 57 61 2 50 59 2 47 61 2 50 72 1 59 74 0 59 72 1 59 72 1 57 64 2 51 55 5 40 50 5 36 46 6 33 47 7 33 46 6 32 46 6 33 49 6 34 46 6 33 46 6 32 46 6 32 48 5 32 46 6 32 46 6 32 48 5 32 48 5 33 46 6 33 47 7 34 46 6 32 46 6 33 46 6 32 48 5 32 48 6 30 46 6 33 46 6 33 48 5 32 46 6 33 49 6 34 49 6 33 48 5 33 49 6 34 47 7 34 46 6 33 50 5 36 62 3 49 74 1 57 74 0 59 73 0 58 74 1 56 74 0 61 74 0 59 75 2 58 72 1 59 60 1 49 59 2 47 63 1 50 72 1 57 75 1 60 72 1 59 74 0 59 72 1 59 74 0 59 74 1 57 72 1 59 72 1 59 70 1 56 58 1 46 59 2 47 68 1 55 74 0 59 71 0 58 72 1 59 72 1 59 71 0 58 71 2 59 71 0 58 73 2 60 74 0 59 63 1 50 59 2 47 60 1 49 72 1 59 72 1 59 71 0 58 74 0 59 72 1 59 73 2 60 71 0 58 73 0 58 73 0 58 70 1 56 58 1 46 
59 1 49 70 1 56 72 1 59 74 1 57 74 0 59 72 1 57 71 0 58 74 0 59 73 0 55 71 0 58 72 1 59 63 1 50 57 1 46 61 1 52 72 1 57 73 0 58 62 3 47 51 6 37 48 5 32 48 5 33 50 7 34 49 6 33 49 6 33 47 7 34 47 7 34 46 6 33 46 6 32 47 7 33 46 6 33 47 7 33 49 6 33 48 5 33 46 6 33 48 5 32 48 5 32 49 6 34 48 5 33 47 4 32 48 5 32 48 5 32 49 6 33 49 6 33 49 6 33 48 5 32 49 6 34 47 7 33 48 5 32 49 6 34 47 7 34 46 6 32 46 6 32 47 7 33 47 7 34 51 6 35 63 4 50 72 1 59 74 0 59 72 1 59 72 1 59 73 0 58 72 1 59 62 0 49 58 1 46 63 1 50 72 1 57 74 0 59 73 0 58 75 1 60 73 0 56 72 1 59 72 1 57 73 0 58 72 1 61 69 0 55 59 2 47 58 0 48 69 0 55 72 1 59 72 1 59 71 0 58 70 0 57 71 0 58 73 0 58 72 1 59 72 1 59 74 0 59 63 1 50 59 2 47 60 1 49 71 0 58 71 0 58 72 1 59 72 1 59 74 0 59 74 0 59 73 0 58 71 0 58 73 0 58 70 1 56 59 2 47 
58 1 46 69 0 55 72 1 59 73 2 60 71 0 58 73 2 62 74 0 59 71 0 56 72 1 59 71 0 58 74 1 57 61 2 50 59 2 47 61 2 50 65 1 51 51 4 36 46 6 32 46 6 33 48 5 32 46 6 33 46 6 33 46 6 33 49 4 33 46 6 30 46 6 32 47 4 31 48 8 34 46 6 32 47 7 34 48 8 35 48 8 34 47 7 33 49 6 36 49 6 34 47 7 34 46 6 32 48 5 32 46 6 32 46 6 32 47 7 34 47 7 34 47 7 34 47 7 34 47 7 34 47 7 33 48 5 33 48 5 32 47 7 34 47 7 34 46 6 32 46 6 30 46 6 33 49 6 34 46 6 33 46 8 33 51 6 37 67 3 55 72 1 59 73 0 58 72 1 59 72 1 59 62 0 49 58 0 48 64 2 51 73 2 60 72 1 59 72 1 59 72 1 59 73 0 56 72 1 57 71 0 58 75 1 60 74 0 59 69 0 55 60 2 50 58 0 48 68 0 54 72 1 59 74 0 59 72 1 59 72 1 59 72 1 59 75 0 59 74 0 59 71 0 58 73 2 60 63 1 50 58 1 46 61 2 50 73 2 60 72 1 59 72 1 59 74 0 59 74 0 59 72 1 59 71 0 58 73 2 60 72 1 59 70 1 56 58 1 46 
57 1 46 69 0 55 71 0 58 72 1 59 72 1 59 72 1 59 72 1 59 71 0 56 75 1 60 72 1 59 72 1 57 60 1 49 59 4 46 54 4 41 48 5 33 46 6 33 46 6 33 46 6 33 46 6 32 49 6 33 49 6 33 48 5 33 49 6 34 47 7 33 46 5 35 45 5 31 47 7 33 47 7 34 48 5 33 46 6 33 48 5 32 48 5 32 45 5 32 46 6 33 48 5 33 47 5 29 46 6 33 46 6 32 46 6 33 47 7 33 46 6 32 46 6 32 46 6 33 49 6 33 46 6 33 46 6 32 46 6 32 46 6 33 47 7 34 47 7 34 46 6 33 47 7 34 48 5 33 46 6 32 46 6 32 46 6 32 49 6 34 58 3 42 71 0 56 72 1 59 72 1 59 62 0 49 58 0 48 62 0 49 72 1 59 72 1 59 74 0 59 75 1 60 74 0 59 72 1 59 73 2 60 74 0 59 71 2 59 69 0 55 57 0 45 57 0 45 70 1 56 72 1 59 72 1 59 72 1 59 71 0 58 73 2 60 72 1 59 72 1 59 71 0 58 72 1 59 61 2 50 59 2 47 61 2 50 71 0 58 72 1 59 72 1 59 75 0 59 71 0 58 73 2 60 72 1 59 73 2 60 74 0 59 71 0 56 56 0 45 
58 1 46 70 1 56 72 1 59 72 1 59 73 2 60 72 1 59 71 0 58 72 1 61 71 0 56 72 1 57 72 1 59 59 0 48 50 5 36 47 7 33 49 6 34 48 5 33 49 6 34 46 6 32 46 6 33 48 5 32 49 6 33 46 6 33 47 7 33 46 6 32 48 5 33 47 7 34 48 5 33 46 6 33 48 5 35 48 5 33 46 6 30 48 5 32 49 6 33 47 7 34 46 6 33 48 5 32 46 6 32 46 5 35 46 6 33 46 6 32 45 5 31 46 6 33 47 7 34 46 6 33 46 6 32 46 6 33 46 6 33 47 7 34 46 6 32 47 7 34 47 7 34 48 5 33 46 6 32 48 5 32 46 6 33 46 6 33 47 7 33 48 5 32 50 5 36 64 2 51 71 0 58 62 0 49 58 1 46 63 1 50 73 2 58 72 1 59 72 1 59 72 1 59 71 0 58 74 0 59 74 1 57 74 0 59 72 1 59 69 0 55 58 1 46 57 0 45 69 2 56 71 0 58 72 1 59 71 0 58 72 1 59 74 0 59 71 0 58 73 0 58 72 1 59 71 0 58 62 3 51 59 0 46 60 1 49 74 0 59 74 0 59 72 1 59 74 0 58 74 0 59 72 1 59 72 1 59 74 0 59 74 0 59 69 0 55 58 1 46 
57 0 45 69 0 55 74 0 59 72 1 59 72 1 59 74 0 59 73 0 56 74 1 57 72 1 57 74 1 57 70 1 56 52 5 37 46 6 33 49 6 33 46 6 33 46 6 33 49 6 33 47 7 33 49 6 34 48 5 32 46 6 33 46 6 33 46 6 33 46 6 33 46 6 33 46 6 33 46 6 33 46 6 33 48 5 33 49 6 34 46 6 33 46 6 33 46 6 33 46 6 33 46 6 33 49 6 34 48 5 33 47 7 34 47 7 33 46 6 32 46 6 33 46 6 33 47 7 33 46 6 30 46 6 33 46 6 32 46 6 32 46 6 33 49 6 34 48 5 32 47 4 31 46 6 33 48 5 33 47 7 34 48 5 33 47 7 34 46 6 32 46 6 32 47 7 33 48 5 32 58 3 42 60 0 51 59 2 47 63 1 50 74 0 59 70 1 58 72 1 57 73 0 58 73 0 56 72 1 59 75 1 60 72 1 57 74 1 57 68 1 55 59 2 47 58 1 46 69 0 55 72 1 59 74 0 59 72 1 59 72 1 57 71 0 58 72 1 59 74 1 57 75 1 60 74 0 59 63 1 52 58 0 48 63 1 50 72 1 57 72 1 57 72 1 57 73 0 58 71 0 58 71 0 58 74 0 59 72 1 59 71 2 59 69 2 56 59 2 47 
59 2 47 69 2 56 72 1 59 74 1 57 71 0 58 72 1 59 72 1 57 74 0 59 71 0 58 71 0 56 51 4 36 46 6 33 46 6 33 46 6 32 45 6 33 48 5 33 47 7 33 48 5 32 48 5 33 46 6 32 46 6 33 46 6 33 46 6 33 46 6 33 46 6 33 46 6 33 46 6 33 46 6 33 47 7 34 47 7 34 48 5 33 48 5 33 46 6 32 46 6 32 46 6 33 46 6 32 49 6 33 46 6 32 46 6 33 49 6 33 48 8 34 50 18 39 53 28 47 56 40 53 56 40 53 55 39 52 52 27 46 50 16 40 48 8 34 48 5 33 49 5 32 48 5 32 47 7 34 47 7 33 49 6 33 47 7 33 48 5 32 47 7 33 47 7 34 47 7 34 49 6 33 51 5 34 57 2 44 61 2 50 74 0 59 73 0 58 74 0 59 74 0 59 71 0 58 71 0 56 72 1 59 74 0 59 72 1 57 68 1 54 58 1 46 58 1 46 70 1 56 72 1 59 72 1 59 73 2 60 72 1 57 72 1 59 74 0 59 75 0 57 72 1 59 72 1 59 63 1 50 58 1 46 60 1 49 72 1 57 74 1 57 71 0 56 71 0 56 72 1 57 72 1 59 74 0 59 72 1 57 74 1 57 70 1 58 58 2 47 
59 2 47 68 1 55 72 1 59 73 0 56 71 0 58 71 0 58 72 1 57 72 1 59 72 1 57 57 5 44 47 4 31 46 6 33 46 6 32 46 6 33 48 5 32 47 7 33 46 6 33 46 6 33 46 6 32 46 6 33 46 6 33 46 6 33 46 6 33 46 6 33 46 6 33 46 6 33 46 6 33 46 6 33 46 6 32 46 6 33 47 7 34 49 6 33 46 6 33 46 6 32 46 6 32 46 6 32 46 6 33 46 6 33 48 9 36 54 33 50 59 56 63 64 65 69 62 65 70 63 67 70 62 66 69 60 65 68 63 67 70 63 67 70 60 55 62 53 36 52 50 12 37 49 6 34 46 6 33 49 6 34 48 5 32 46 6 33 48 5 33 46 6 32 46 6 32 49 6 33 49 6 33 49 6 34 47 6 36 58 3 43 72 1 59 72 1 57 73 0 58 72 1 57 72 1 59 72 1 57 72 1 57 74 0 59 71 0 58 70 0 54 59 0 48 58 1 46 68 0 54 72 2 56 72 1 59 71 2 59 72 1 59 74 0 59 74 0 59 74 0 59 71 0 58 72 1 59 62 0 49 58 1 46 61 2 50 71 0 58 72 1 59 74 0 59 72 1 59 70 0 57 72 1 59 75 1 60 74 0 59 71 0 58 68 0 54 58 1 46 
57 0 45 69 0 55 74 0 59 71 0 58 74 0 59 71 0 56 74 1 57 71 0 58 64 2 49 45 7 32 48 5 32 47 7 34 47 7 33 46 6 33 46 6 32 46 6 32 46 6 33 46 6 33 46 6 32 48 5 33 46 6 33 46 6 33 46 6 33 46 6 33 46 6 33 46 6 33 46 6 33 46 6 33 46 6 33 46 6 32 46 6 32 46 6 32 46 6 32 46 6 32 49 6 33 46 6 33 47 7 34 52 20 41 59 54 58 63 67 66 62 67 70 63 67 70 62 66 67 62 66 65 63 68 71 62 66 67 64 68 69 63 67 70 62 68 68 63 67 68 60 63 68 56 38 52 46 14 37 49 6 33 49 6 34 47 7 33 46 6 32 46 6 32 49 6 34 46 6 33 46 6 32 45 6 33 46 6 32 48 5 33 61 2 46 72 1 57 73 0 56 72 1 59 72 1 59 74 1 57 72 1 59 70 1 58 74 0 59 69 0 54 58 0 48 58 1 46 69 0 55 72 1 57 71 0 58 72 1 59 72 1 59 74 0 59 72 1 57 70 0 57 72 1 59 73 0 58 64 2 51 58 1 46 62 0 49 74 0 59 72 1 59 72 1 59 71 1 55 72 1 57 74 0 59 73 2 60 71 0 58 71 0 56 69 0 55 58 0 48 
59 2 47 70 1 56 71 0 58 71 0 58 74 0 59 72 1 57 72 1 59 70 1 56 49 6 36 48 5 32 47 7 34 46 6 32 48 5 32 47 7 34 46 6 32 46 6 32 46 6 33 48 5 33 47 7 33 46 6 33 46 6 33 46 6 33 46 6 33 46 6 33 46 6 33 46 6 33 46 6 33 46 6 33 46 6 30 48 8 35 47 7 33 46 6 32 46 6 32 46 6 32 49 6 34 49 6 33 51 26 45 62 63 67 61 67 67 62 67 70 61 66 69 62 66 69 62 67 70 62 66 69 62 66 65 62 66 69 62 66 69 62 66 67 62 67 70 62 66 69 61 66 69 62 66 69 62 61 66 53 30 48 47 7 34 46 6 33 48 5 32 46 6 33 47 7 33 46 6 32 46 6 32 46 6 32 45 6 33 46 6 33 46 6 32 59 4 46 72 1 59 71 0 58 71 2 57 71 2 57 72 1 59 71 0 56 73 2 60 69 2 56 57 0 45 58 1 46 68 0 54 73 0 56 72 1 59 74 0 59 74 0 59 75 1 60 74 1 57 72 1 59 74 1 57 73 0 60 60 0 51 59 2 47 60 1 49 71 0 58 72 1 59 72 1 59 74 0 59 72 1 57 72 1 59 72 1 57 72 1 59 71 0 58 69 2 56 58 1 46 
58 1 46 69 0 55 72 1 59 74 0 59 71 0 58 72 1 59 71 0 60 54 4 39 47 7 34 48 5 32 46 6 33 48 5 32 46 6 32 46 6 33 46 6 32 46 6 32 46 6 33 46 6 33 49 6 33 46 6 33 46 6 33 46 6 33 46 6 33 46 6 33 46 6 33 46 6 33 46 6 33 46 6 33 46 6 32 45 6 33 44 6 31 46 6 32 46 6 32 48 5 32 48 5 33 53 26 45 61 65 68 63 67 70 62 66 69 62 66 69 62 67 71 63 67 70 62 66 69 63 67 70 61 66 69 62 67 71 62 66 69 62 66 69 63 67 70 63 67 70 61 66 69 60 68 70 62 66 69 61 65 68 60 57 64 49 16 37 49 6 34 49 6 34 49 6 33 46 6 33 46 6 33 46 6 33 46 6 33 46 6 33 46 6 32 46 6 33 50 5 36 57 5 43 62 3 49 69 0 54 71 2 57 72 1 57 71 0 58 69 2 55 57 0 45 57 0 45 68 1 55 71 1 55 72 1 59 71 0 58 72 1 59 74 0 59 72 1 59 71 0 58 72 1 57 72 1 57 63 1 50 58 1 46 60 1 49 73 2 58 72 1 57 72 1 59 73 0 58 72 1 57 72 1 59 74 0 59 71 2 59 74 1 57 68 0 56 59 1 49 
58 1 46 70 1 56 72 1 57 73 0 58 72 1 59 72 1 57 65 2 49 49 6 34 46 6 33 47 7 34 46 6 32 49 6 34 46 6 33 46 6 32 46 6 33 46 6 33 46 8 33 45 10 34 48 5 33 48 5 32 46 6 33 46 6 33 46 6 33 46 6 33 46 6 33 46 6 33 46 6 33 46 6 33 48 5 32 46 6 33 46 6 33 46 6 32 48 5 33 47 7 34 49 17 38 61 65 68 62 66 67 62 66 69 62 67 70 62 66 67 62 66 69 60 65 68 62 66 69 63 67 68 63 67 68 61 66 69 62 66 69 62 66 69 63 67 70 62 66 69 61 67 67 61 67 67 62 63 68 56 42 55 52 23 43 46 8 33 46 6 32 48 5 33 45 5 31 46 6 30 46 6 32 46 6 32 47 7 34 46 6 32 46 6 33 48 5 33 48 5 32 46 6 33 49 6 33 48 5 32 51 4 36 56 6 43 61 2 48 67 0 51 58 1 46 59 1 49 67 0 54 71 0 58 73 0 58 73 0 58 72 1 57 73 0 58 71 0 58 74 1 57 72 1 57 72 1 59 63 0 49 58 1 46 60 1 49 71 0 58 72 1 59 71 0 58 73 0 58 72 1 59 74 1 57 74 0 59 70 1 58 72 1 57 69 2 56 54 2 40 
58 1 46 68 1 55 72 1 59 73 2 58 72 1 59 72 1 57 50 5 36 46 6 33 46 6 32 46 6 32 48 5 32 48 5 33 47 7 34 46 6 32 46 6 33 48 9 36 53 25 47 48 5 32 48 5 33 49 6 33 46 6 33 46 6 33 46 6 33 46 6 33 46 6 33 46 6 33 46 6 33 46 6 33 47 7 34 46 6 32 49 6 34 46 6 33 46 6 33 48 10 35 59 54 61 61 67 67 62 66 69 63 67 70 61 66 69 61 66 69 62 66 69 61 66 69 62 66 69 61 67 67 61 67 67 63 67 70 61 66 69 62 67 70 62 68 68 61 67 67 61 62 67 54 36 50 49 11 36 47 7 33 46 6 30 49 7 31 49 6 34 45 6 33 47 7 34 46 6 32 46 6 32 45 7 32 46 6 33 45 5 32 46 6 32 46 6 32 48 5 32 45 7 32 46 6 33 45 6 33 45 5 32 45 6 33 47 7 33 47 7 34 50 3 37 57 2 42 68 1 55 71 0 58 74 0 59 73 0 58 72 1 57 73 0 58 72 1 59 72 1 57 74 0 61 74 0 59 62 0 49 58 1 46 62 0 49 72 1 59 72 0 57 72 1 59 72 1 59 74 1 57 74 1 56 71 2 59 72 1 59 63 4 50 50 5 34 44 5 32 
58 0 48 68 0 54 71 0 58 72 1 57 73 0 56 65 1 51 48 5 33 46 6 32 46 6 33 45 5 31 46 6 32 46 6 32 46 6 32 48 5 33 49 6 33 57 45 55 48 14 38 46 6 32 46 6 33 46 6 33 46 6 33 46 6 32 46 6 32 46 6 32 46 6 33 46 6 33 46 6 33 46 6 32 48 5 32 45 5 32 49 6 33 46 6 33 47 7 34 54 33 50 62 67 70 61 66 69 62 65 70 60 65 69 61 66 69 61 66 69 60 66 66 60 65 68 60 68 70 62 66 69 61 65 66 61 66 69 61 66 69 61 66 69 63 67 68 55 43 55 50 16 40 46 6 33 46 6 32 46 6 32 46 6 32 46 6 32 46 6 32 46 6 32 46 6 32 46 6 32 46 6 33 46 6 32 46 6 32 46 6 33 46 6 33 46 6 32 46 6 32 46 6 33 46 6 32 46 6 32 46 6 32 46 6 32 46 6 32 46 6 32 46 6 32 46 6 32 50 5 36 61 2 46 71 0 56 71 0 58 74 1 56 74 0 59 74 0 59 74 0 59 73 0 58 74 0 61 64 0 50 57 0 45 60 1 49 72 1 57 72 1 59 71 0 58 72 1 59 71 0 56 71 0 56 70 1 58 56 4 42 46 6 32 46 6 33 46 6 33 
58 1 46 69 0 55 72 1 59 74 0 59 72 1 59 56 4 42 45 5 32 46 6 32 47 7 33 46 6 33 45 5 31 45 5 31 46 6 33 48 5 32 56 40 53 55 37 51 46 6 32 47 7 34 47 7 34 45 5 31 46 6 33 46 6 32 46 6 32 46 6 32 46 6 33 46 6 33 46 6 33 46 6 32 46 6 32 46 6 33 46 6 33 46 6 32 47 12 34 60 57 64 61 66 69 62 66 67 62 67 70 60 65 68 62 66 69 61 66 69 62 67 70 61 65 68 56 35 50 49 11 34 46 6 33 49 14 38 54 33 48 59 54 61 53 30 46 49 6 33 49 6 34 46 6 32 46 6 32 46 6 32 46 6 32 46 6 32 46 6 32 46 6 32 46 6 32 46 6 32 46 6 33 46 6 32 46 6 32 46 6 33 46 6 33 46 6 32 46 6 32 46 6 33 46 6 32 46 6 32 46 6 32 46 6 32 46 6 32 46 6 32 46 6 32 46 6 32 45 6 33 46 6 33 49 6 34 59 4 44 70 1 55 72 1 57 72 1 59 72 2 56 74 1 57 73 0 56 61 2 50 58 0 48 60 1 49 72 1 57 72 1 59 71 0 58 73 0 58 70 1 56 69 0 54 50 3 35 46 6 33 47 7 34 48 5 32 46 6 32 
58 0 48 68 1 55 71 0 58 72 1 57 66 2 54 48 5 33 46 6 32 49 6 34 48 5 32 48 5 33 45 7 32 46 6 32 46 6 33 53 30 46 60 63 68 49 11 36 46 6 33 48 5 32 45 7 32 48 5 32 46 6 32 46 6 33 46 6 33 46 6 33 46 6 32 46 6 32 46 6 32 46 6 33 46 6 32 46 6 30 46 6 32 46 6 32 56 38 52 61 65 68 60 65 68 63 67 68 61 66 69 61 66 69 62 66 69 63 67 70 64 63 68 52 25 44 47 7 33 49 6 33 45 7 32 46 6 32 46 6 33 47 7 33 48 5 33 47 7 33 48 5 33 49 6 33 46 6 32 46 6 32 46 6 32 46 6 32 46 6 32 46 6 32 46 6 32 46 6 32 46 6 33 46 6 32 46 6 32 46 6 33 46 6 33 46 6 32 46 6 32 46 6 33 46 6 32 46 6 32 46 6 32 46 6 32 46 6 32 46 6 32 46 6 32 46 6 32 46 6 33 48 5 32 46 6 32 46 6 32 49 6 34 59 4 43 69 2 55 74 0 59 72 1 57 71 0 58 60 0 51 58 1 46 60 1 49 71 0 58 72 1 57 72 1 59 71 0 58 69 0 54 49 4 35 48 5 33 46 6 32 45 5 31 46 6 30 48 5 33 
58 0 48 68 1 55 70 1 56 72 1 57 61 3 44 48 5 32 46 6 32 47 7 34 46 6 32 46 6 32 47 7 33 46 6 33 51 22 42 62 61 66 54 38 51 45 7 32 46 6 33 45 5 31 45 5 31 48 8 34 46 6 32 46 6 33 46 6 33 46 6 33 46 6 32 46 6 32 46 6 32 46 6 33 46 6 33 46 6 33 46 6 32 47 9 34 61 62 66 61 65 68 60 65 68 61 67 67 61 64 69 61 65 68 62 66 69 60 65 68 52 34 48 48 5 33 45 7 32 48 5 32 49 6 33 46 6 32 46 6 33 47 7 34 48 5 35 49 6 34 46 6 32 46 6 32 46 6 32 46 6 32 46 6 32 46 6 32 46 6 32 46 6 32 46 6 32 46 6 32 46 6 33 46 6 32 46 6 32 46 6 33 46 6 33 46 6 32 46 6 32 46 6 33 46 6 32 46 6 32 46 6 32 46 6 32 46 6 32 46 6 32 46 6 32 46 6 32 46 6 33 46 6 32 46 6 32 47 7 33 46 6 33 46 6 32 49 6 34 60 3 46 70 1 56 73 0 56 61 1 52 57 0 47 59 0 48 71 0 58 72 1 57 73 0 56 70 1 55 51 4 36 46 6 32 47 7 33 46 6 32 46 6 32 46 6 33 45 5 29 
58 0 48 69 2 55 73 0 58 71 0 58 49 6 36 46 6 32 47 7 34 48 5 32 46 6 32 47 7 34 45 6 33 47 9 34 59 56 63 62 63 67 47 13 37 47 7 33 46 6 32 46 6 33 47 7 34 46 6 32 46 6 32 46 6 33 46 6 33 46 6 33 46 6 32 46 6 32 46 6 32 46 6 33 49 6 33 46 6 32 45 5 31 53 25 47 62 66 69 61 66 69 60 65 69 61 64 71 62 65 70 62 66 69 63 67 70 59 57 62 48 10 35 46 6 32 47 7 34 46 6 32 46 6 33 46 6 33 47 7 33 46 6 33 46 6 32 46 6 32 46 6 32 47 7 34 46 6 32 46 6 32 46 6 32 46 6 32 46 6 32 46 6 32 46 6 32 46 6 32 46 6 33 46 6 32 46 6 32 46 6 33 46 6 33 46 6 32 46 6 32 46 6 33 46 6 32 46 6 32 46 6 32 46 6 32 46 6 32 46 6 32 46 6 32 46 6 32 48 5 32 48 5 32 46 6 32 46 6 32 46 6 32 48 5 32 47 4 31 48 5 33 51 6 37 65 2 49 61 2 50 57 0 45 61 2 50 70 1 56 73 0 56 72 1 57 51 6 39 46 6 32 46 6 32 46 5 35 48 5 33 46 6 33 46 6 32 45 7 32 
58 1 46 68 0 57 74 1 57 68 1 55 47 7 33 46 6 32 45 5 31 46 6 33 48 5 32 46 6 33 46 6 33 57 41 54 60 65 68 57 45 57 48 5 32 46 6 33 45 7 32 46 6 33 47 7 34 48 5 32 46 6 32 46 6 33 46 6 33 46 6 33 46 6 32 46 6 32 46 6 32 46 6 33 46 6 33 46 6 33 45 7 32 56 46 55 61 66 69 63 67 70 62 67 70 60 65 68 62 66 69 61 65 68 63 67 70 52 28 44 46 6 33 45 7 32 48 5 33 46 6 33 47 7 34 46 6 32 46 6 30 49 6 34 45 5 31 47 7 33 46 6 32 47 7 34 46 6 32 46 6 32 46 6 32 46 6 32 46 6 32 46 6 32 46 6 32 46 6 32 46 6 33 46 6 32 46 6 32 46 6 33 46 6 33 46 6 32 46 6 32 46 6 33 46 6 32 46 6 32 46 6 32 46 6 32 46 6 32 46 6 32 46 6 32 46 6 32 46 6 33 44 5 32 46 6 33 47 7 33 46 6 32 48 5 32 47 7 34 44 6 31 45 5 31 46 6 32 51 6 39 57 2 44 60 0 51 71 0 58 73 0 56 56 4 43 46 6 32 46 6 32 48 5 32 48 5 32 46 6 32 47 7 31 46 6 33 45 5 31 
57 1 48 70 0 55 70 1 56 59 2 43 46 6 33 46 6 32 46 6 32 47 7 34 46 6 32 46 6 32 49 17 38 61 65 68 61 62 66 50 21 41 48 5 32 47 7 34 47 7 33 46 6 33 47 7 33 48 5 33 46 6 33 46 6 32 46 6 32 46 6 32 46 6 33 46 6 33 46 6 33 46 6 32 45 7 32 46 6 32 48 10 35 62 66 69 60 65 68 61 65 68 62 66 69 61 66 69 61 66 69 63 67 68 60 58 63 45 7 32 47 7 34 46 6 33 46 6 32 48 5 33 49 6 34 49 6 34 47 7 33 47 7 34 46 6 32 46 6 32 46 6 32 48 5 33 46 6 32 46 6 32 46 6 32 46 6 32 46 6 32 46 6 32 46 6 32 46 6 32 46 6 33 46 6 32 46 6 32 46 6 33 46 6 33 46 6 32 46 6 32 46 6 33 46 6 32 46 6 32 46 6 32 46 6 32 46 6 32 46 6 32 46 6 32 46 6 32 46 6 32 46 6 32 46 6 32 48 5 32 48 5 32 46 6 33 49 6 34 46 6 32 46 6 32 44 6 31 46 6 32 46 6 32 53 3 40 71 0 56 66 1 55 46 6 32 46 6 32 45 5 31 46 6 32 45 7 32 47 7 33 46 6 33 45 5 31 46 6 32 
58 1 46 67 0 54 71 0 58 52 5 41 46 6 32 45 5 31 48 5 33 46 6 32 46 6 32 48 8 34 58 56 61 62 66 67 58 53 60 47 7 34 46 6 30 47 7 34 46 6 32 45 6 33 46 6 32 45 5 32 46 6 33 46 6 32 46 6 32 46 6 32 46 6 33 46 6 33 46 6 33 46 6 32 46 6 33 45 5 31 51 24 43 62 66 69 61 66 69 62 66 69 61 67 67 62 66 67 62 66 69 61 66 69 55 41 54 46 6 32 47 7 33 47 7 34 46 6 33 46 6 33 49 6 34 46 6 32 45 5 32 46 6 32 42 6 32 45 5 31 49 6 34 46 6 32 46 6 32 46 6 32 46 6 32 46 6 32 46 6 32 46 6 32 46 6 32 46 6 32 46 6 33 46 6 32 46 6 32 46 6 33 46 6 33 46 6 32 46 6 32 46 6 33 46 6 32 46 6 32 46 6 32 46 6 32 46 6 32 46 6 32 46 6 32 46 6 32 48 5 33 46 6 33 47 7 33 45 7 32 46 6 32 46 6 33 46 6 32 48 5 32 46 6 32 46 6 33 47 4 32 46 6 33 45 5 31 52 5 37 49 6 34 45 5 31 46 6 32 46 6 32 44 5 32 46 6 32 46 6 30 46 6 32 48 5 33 45 5 31 
