P3
100 50
255
38 40 99 36 41 99 36 41 99 35 41 99 38 40 99 35 41 99 36 41 99 36 41 99 36 41 97 36 41 99 35 41 99 30 34 82 30 32 80 31 35 83 36 41 97 35 42 96 36 41 99 36 41 97 36 41 99 36 41 97 36 41 99 36 41 97 36 41 99 36 41 97 36 41 97 35 41 99 36 41 97 36 41 97 36 41 99 35 41 99 35 42 97 36 41 99 36 41 99 36 41 97 36 41 97 36 41 99 31 35 83 28 32 77 31 35 83 36 41 97 36 41 99 36 41 99 35 41 99 36 41 99 36 41 99 35 41 99 36 41 99 35 41 99 36 41 99 35 41 99 35 41 99 36 41 99 36 41 99 36 41 99 35 41 99 36 41 99 36 41 97 36 41 99 38 40 97 36 41 99 35 41 99 35 42 97 36 41 99 36 41 97 35 41 99 35 41 99 36 41 99 36 41 99 36 41 99 36 41 99 36 41 99 35 41 99 36 41 97 33 38 93 29 33 78 28 32 77 34 39 94 36 41 97 35 41 99 36 41 99 36 41 99 36 41 99 36 41 97 36 41 97 34 41 96 36 41 97 31 34 85 30 32 80 31 35 83 36 41 97 36 41 99 38 40 99 36 41 99 36 41 99 38 40 99 36 41 99 36 41 99 36 41 99 36 41 99 36 41 99 
36 41 99 36 41 99 36 41 99 35 41 99 38 40 99 35 41 99 36 41 99 36 41 99 37 42 98 36 41 99 36 41 97 30 34 82 29 32 77 30 34 82 35 40 98 35 40 98 36 41 99 36 41 97 36 41 99 36 41 97 36 41 99 36 41 97 36 41 99 36 41 97 35 41 99 36 41 97 36 41 99 36 41 99 35 42 97 35 42 97 36 41 99 36 41 97 37 39 98 36 41 97 35 42 97 33 42 99 31 35 83 30 33 78 31 35 83 36 41 97 35 41 99 35 41 99 36 41 99 36 41 99 36 41 99 36 41 99 36 41 99 36 41 99 35 41 99 36 41 99 36 41 99 36 41 99 36 41 99 36 41 99 36 41 99 36 41 99 36 41 99 36 41 97 36 41 99 35 42 97 36 41 97 36 41 99 33 42 97 36 41 99 35 41 99 36 41 99 36 41 99 36 41 99 36 41 99 36 41 99 35 41 99 35 41 99 36 41 97 35 38 93 28 32 77 30 33 78 34 39 94 35 42 97 36 41 99 36 41 99 36 41 97 35 42 97 36 41 99 36 41 99 36 41 99 36 41 99 31 35 83 29 32 77 30 34 82 36 41 97 36 41 99 35 41 99 36 41 99 36 41 99 36 41 99 36 41 99 36 41 99 35 41 99 36 41 99 36 41 99 
35 41 99 36 41 99 36 41 99 36 41 99 35 40 98 35 41 99 36 41 99 36 41 99 35 40 96 36 41 97 35 40 96 30 34 82 28 32 77 31 35 83 36 41 97 35 40 96 35 42 97 36 41 97 35 40 96 36 41 97 35 40 96 36 41 97 34 41 96 36 41 97 35 40 98 36 41 99 36 41 99 35 40 96 35 40 98 36 41 97 36 41 97 36 41 99 36 41 99 36 41 97 34 41 96 34 40 98 30 34 82 29 32 77 31 35 82 36 41 97 36 41 97 36 41 97 36 41 97 36 41 97 36 41 97 36 41 97 35 40 96 36 41 97 36 41 99 35 40 98 36 41 99 35 40 98 34 40 98 38 43 101 35 40 98 35 41 99 36 41 99 35 41 99 36 41 99 36 41 99 36 41 99 33 42 99 35 40 98 36 41 99 36 41 99 34 40 98 35 41 99 35 41 99 36 41 99 35 41 99 36 41 99 35 41 99 36 41 99 33 38 93 30 33 78 29 31 79 33 38 93 36 41 99 36 40 101 35 41 99 35 40 96 35 41 99 35 42 97 34 41 96 36 41 99 36 41 99 31 35 83 28 32 79 30 34 81 35 42 97 35 40 98 36 41 99 37 42 100 36 41 97 35 41 101 36 41 99 34 41 96 36 41 97 35 40 96 35 42 97 
36 41 97 36 41 99 37 42 98 36 41 99 36 41 99 36 41 97 36 41 99 36 41 97 37 42 100 35 40 98 35 40 96 31 35 83 29 32 77 30 34 82 39 41 98 35 40 96 35 40 96 36 41 97 36 41 97 35 42 97 35 42 97 36 41 97 36 41 97 36 41 97 36 41 99 36 41 97 36 41 99 36 41 97 36 41 99 36 41 96 36 41 97 36 41 99 35 40 98 36 41 99 34 41 95 34 40 100 30 34 82 29 31 79 31 35 83 36 41 99 35 42 97 35 40 98 36 41 97 35 42 97 34 41 96 36 41 97 36 41 99 35 42 97 36 41 97 35 42 97 36 41 97 37 42 98 36 41 97 35 42 97 36 41 97 36 41 97 36 41 99 35 41 99 36 41 99 34 40 98 36 41 99 36 41 99 35 41 99 36 41 99 36 41 99 35 41 99 36 41 99 35 41 99 36 41 99 36 41 99 36 41 99 36 41 99 35 40 98 33 38 93 28 32 77 29 32 77 33 38 93 35 42 97 35 40 98 35 41 99 36 41 97 35 40 98 35 42 97 36 41 97 35 40 98 36 41 99 32 36 84 28 32 79 30 34 82 36 41 97 35 40 96 36 41 97 36 41 97 35 40 96 36 41 99 36 41 97 36 41 97 36 41 97 36 41 97 35 42 97 
36 41 99 36 41 97 35 40 98 36 41 97 35 40 96 36 41 99 36 41 97 36 41 99 35 40 96 36 41 97 35 40 96 31 35 83 29 33 78 31 35 83 35 41 99 36 41 99 36 41 97 35 42 97 36 41 97 36 41 97 36 41 97 35 40 96 36 41 97 35 42 97 35 40 98 36 41 97 36 41 99 36 41 97 35 40 98 36 41 97 36 41 97 35 40 98 36 41 99 34 40 98 35 40 96 34 41 96 31 35 83 30 33 78 31 35 83 35 40 98 35 40 96 37 42 98 36 41 97 35 40 96 36 41 97 36 41 97 35 40 96 35 40 96 36 41 97 35 42 97 36 41 97 36 41 97 36 41 97 34 41 96 36 41 97 36 41 97 34 40 98 36 41 99 36 41 99 36 41 99 36 41 99 35 41 99 36 41 99 36 41 99 36 41 97 35 40 96 36 41 97 36 41 97 35 40 96 36 41 97 36 41 97 35 42 97 35 42 97 33 38 93 28 32 77 28 32 77 33 38 93 35 42 97 35 41 99 36 41 99 36 41 97 35 41 99 36 41 97 34 41 96 36 41 99 36 41 99 30 34 82 29 33 80 30 34 82 36 41 99 36 41 99 35 40 98 36 41 99 36 41 97 36 41 97 36 41 97 35 40 96 36 41 97 36 41 97 36 41 97 
36 41 97 36 41 97 35 42 97 36 41 97 36 41 97 36 41 97 36 41 97 35 42 97 35 40 98 36 41 97 35 42 97 30 34 82 29 32 77 31 35 83 37 42 98 36 41 97 36 41 97 36 41 97 35 40 96 36 41 97 35 42 97 36 41 97 36 41 97 36 41 97 36 41 99 35 40 96 36 41 99 35 40 96 35 40 98 35 40 96 36 41 97 36 41 99 35 40 96 35 41 99 36 41 97 35 41 99 31 35 83 29 32 75 31 34 85 36 41 99 36 41 97 34 41 96 35 41 99 36 41 97 34 39 95 35 41 99 35 42 97 35 40 96 36 41 99 36 41 99 36 41 99 36 41 99 35 41 99 36 41 99 35 40 98 35 41 99 35 40 98 36 41 99 35 40 98 36 41 99 36 41 99 36 41 99 36 41 99 36 41 99 35 42 97 35 42 97 36 41 97 36 41 97 38 40 97 36 41 97 36 41 97 35 42 97 35 40 95 32 37 92 29 32 77 29 32 77 33 38 93 35 40 96 37 39 96 36 41 99 35 40 96 36 42 100 35 40 96 35 42 97 36 41 99 34 40 98 29 35 83 28 32 79 31 35 80 35 41 99 35 40 98 36 41 99 36 41 99 36 41 99 34 40 98 35 40 96 36 41 97 36 41 97 36 41 97 36 41 97 
35 40 96 34 39 95 35 42 97 36 41 97 35 40 96 36 41 97 36 41 97 35 42 97 36 41 99 36 41 97 35 42 97 31 35 83 30 33 78 31 35 83 36 41 97 36 41 97 35 40 96 36 41 97 35 40 96 35 42 97 36 41 97 36 41 97 36 41 97 36 41 97 36 41 97 37 42 100 36 41 97 36 41 99 36 41 97 36 41 99 36 41 99 36 41 97 35 42 97 36 41 97 36 41 99 34 40 98 32 36 84 30 33 78 31 35 83 36 41 99 35 42 97 36 41 99 36 41 97 35 42 97 34 41 96 35 40 96 36 41 99 35 42 97 35 40 96 36 41 97 36 41 97 36 41 97 35 42 97 36 41 97 36 41 97 35 42 97 36 41 99 36 41 99 36 41 99 35 40 98 36 41 99 36 41 99 36 41 99 36 41 99 35 42 97 33 40 95 35 42 97 36 41 97 35 40 96 36 41 97 35 42 97 35 42 97 35 40 96 35 38 93 29 32 77 28 32 77 34 37 92 36 41 97 35 42 97 34 40 98 36 41 97 36 41 99 35 42 97 36 41 97 36 41 97 36 41 97 31 35 83 29 32 77 30 34 82 35 42 97 35 40 96 36 41 97 36 41 99 36 41 99 35 42 97 35 40 96 36 41 97 36 41 97 36 41 97 36 41 97 
36 41 97 36 41 97 35 40 96 36 41 97 36 41 97 36 41 97 36 41 97 36 41 97 36 41 97 36 41 97 35 40 96 31 35 83 28 32 77 30 34 82 35 41 99 36 41 99 35 42 97 36 41 97 36 41 97 36 41 97 36 41 97 36 41 97 35 42 97 36 41 97 36 41 97 35 40 98 36 41 97 35 40 98 36 41 97 35 40 98 35 40 98 36 41 97 35 42 97 36 41 97 36 41 97 36 41 99 31 35 82 28 32 77 32 36 84 36 41 96 36 41 97 36 41 97 36 41 97 36 41 97 36 41 97 36 41 97 35 40 96 36 41 97 35 40 96 35 42 97 35 40 96 36 41 97 35 40 96 35 42 97 36 41 97 36 41 97 34 40 98 36 41 99 36 41 99 36 41 99 36 41 99 35 41 99 36 41 99 36 41 99 36 41 97 36 41 97 36 41 97 36 41 97 36 41 97 36 41 97 35 42 97 35 42 97 36 41 97 33 38 93 28 32 77 29 32 77 33 38 94 35 42 97 36 41 97 35 41 99 34 41 96 35 40 98 36 41 97 35 40 96 34 41 96 35 42 97 30 34 82 29 32 77 31 35 82 35 40 96 35 40 96 36 41 97 36 41 99 35 40 98 35 40 98 36 41 99 35 40 96 35 42 97 36 41 97 36 41 97 
35 40 96 35 40 96 36 41 97 36 41 97 36 41 97 34 39 95 36 41 97 35 40 96 35 40 98 36 41 99 36 41 97 30 34 82 30 33 78 29 33 81 38 40 97 36 41 97 36 41 97 35 40 96 36 41 97 35 42 97 35 42 97 36 41 97 36 41 97 37 42 98 36 41 97 36 41 99 36 41 97 35 40 98 35 40 96 35 39 100 36 41 99 37 42 98 34 41 96 36 41 97 36 41 97 35 40 96 31 35 83 28 32 77 31 35 83 36 41 97 37 42 98 35 42 97 34 40 98 36 41 97 36 41 97 35 41 99 35 42 97 36 41 97 36 41 97 35 42 97 36 41 97 37 42 98 36 41 97 35 42 97 36 41 97 36 41 97 36 41 99 35 41 99 35 40 98 35 41 99 36 41 99 36 41 99 34 40 98 36 41 99 35 42 97 35 40 96 35 42 97 36 41 97 34 41 96 36 41 97 36 41 97 36 41 97 34 41 96 33 38 93 29 33 78 29 32 77 33 38 94 34 41 96 35 42 97 36 41 97 35 42 97 35 40 96 36 41 97 35 42 97 35 40 96 35 42 97 31 35 83 29 32 77 30 34 81 35 40 98 36 41 99 35 40 98 35 40 98 36 41 97 36 41 99 36 41 99 36 41 97 35 42 97 36 41 97 36 41 97 
35 42 97 35 40 96 36 41 97 36 41 97 36 41 97 34 41 96 35 40 96 35 40 96 36 41 97 36 41 97 36 41 97 30 34 82 28 32 77 30 34 82 35 40 96 35 40 96 36 41 97 34 41 96 36 41 97 35 40 96 36 41 97 37 42 98 36 41 97 35 42 97 36 41 97 35 40 96 36 41 97 36 41 99 36 41 97 35 40 98 36 41 99 36 41 97 35 41 99 35 40 98 35 40 96 35 40 96 31 35 83 28 32 77 31 35 83 35 40 96 36 41 97 36 41 97 36 41 97 36 41 97 36 41 97 36 41 97 35 40 96 36 41 97 37 42 98 36 41 97 35 40 96 35 40 96 35 42 97 36 41 97 36 41 97 35 42 97 36 41 99 35 41 99 36 41 99 36 41 99 36 41 99 32 41 98 35 40 98 36 41 99 36 41 97 36 41 97 35 42 97 36 41 97 35 42 97 36 41 97 35 42 97 36 41 97 36 41 97 33 38 93 29 32 77 29 32 77 34 39 94 35 40 96 36 41 97 35 42 97 34 41 96 36 41 97 35 40 96 35 40 96 36 41 97 32 41 96 30 34 82 28 32 77 30 34 82 34 40 98 35 40 98 36 41 97 36 41 99 36 41 97 35 42 97 35 40 96 35 40 96 35 42 97 36 41 97 35 40 96 
37 42 100 35 40 96 35 41 99 36 41 97 35 42 97 38 43 101 36 41 97 35 40 96 35 42 97 36 41 97 36 41 97 32 34 83 29 32 77 31 35 83 34 41 96 34 39 95 35 40 96 34 40 98 34 41 96 35 41 101 36 41 97 35 40 98 36 41 97 35 40 96 35 40 96 37 42 98 36 41 97 36 41 97 35 40 96 35 40 96 36 41 97 35 40 96 36 41 99 38 40 97 35 40 96 35 40 98 31 33 81 29 31 79 31 35 83 36 41 97 36 41 97 35 40 98 37 42 98 36 41 97 35 40 98 36 41 97 36 41 97 35 40 96 36 41 97 35 40 96 36 41 97 36 41 97 35 40 96 36 41 97 36 41 97 35 40 96 35 42 97 35 42 97 35 41 99 35 42 97 35 41 99 35 42 97 35 42 97 35 42 97 36 41 97 35 42 97 35 40 96 36 41 99 36 41 99 36 41 97 34 41 96 36 41 97 35 42 97 34 39 94 28 32 77 29 32 77 34 39 94 36 41 97 36 41 97 35 40 98 36 41 97 35 40 98 35 40 98 35 42 97 36 41 99 36 41 99 34 37 90 29 33 78 31 37 87 35 42 96 35 40 98 35 42 96 35 41 99 35 40 98 35 42 97 36 41 99 35 40 96 36 41 97 36 41 97 36 41 97 
35 40 96 35 40 96 36 41 97 34 40 100 35 40 96 35 42 97 35 40 98 36 41 97 35 42 97 35 40 96 36 41 97 30 34 82 29 32 77 33 35 84 35 40 96 36 41 97 36 41 97 36 41 99 35 40 96 37 39 98 36 41 97 34 40 98 36 41 97 36 41 97 36 41 97 35 40 96 36 41 97 35 40 96 34 39 95 35 40 96 35 40 96 35 40 96 36 41 97 36 41 97 34 40 98 35 40 96 31 35 82 30 33 78 31 35 83 35 42 97 35 40 96 35 40 96 36 41 97 36 41 99 36 41 97 35 40 96 36 41 99 36 41 97 35 40 96 36 41 97 34 41 96 36 41 97 34 40 98 36 41 97 36 41 97 35 40 96 36 41 97 37 42 98 36 41 97 36 41 97 35 40 96 35 40 96 35 40 96 36 41 97 36 41 97 35 40 96 35 40 96 36 41 97 36 41 97 36 41 97 35 40 96 36 41 97 35 42 97 33 38 93 28 32 77 28 32 79 33 39 91 36 41 97 35 42 97 36 41 97 36 41 99 36 41 97 34 40 98 37 39 98 35 40 98 36 41 99 35 40 95 36 41 97 36 41 97 34 41 96 35 40 96 34 40 98 34 40 98 35 40 96 34 41 96 35 40 96 35 40 96 38 40 97 36 41 97 36 41 97 
36 43 98 34 41 96 37 39 96 36 41 97 37 39 98 36 41 97 35 41 99 33 40 95 35 42 97 37 39 96 34 41 96 31 35 83 29 32 77 31 35 83 36 41 97 35 40 96 34 41 96 35 42 97 35 42 97 36 41 97 35 42 97 35 40 96 34 41 96 35 40 96 36 41 97 36 41 97 36 41 97 35 40 96 36 41 97 36 41 97 36 41 97 35 40 96 35 40 96 36 41 97 36 41 97 36 41 97 31 35 83 28 32 77 32 36 84 36 41 97 36 41 97 36 41 97 36 41 97 35 40 98 36 41 97 35 40 96 36 41 99 36 41 97 35 40 96 35 40 96 35 40 96 35 41 99 36 41 97 34 40 98 36 41 97 34 41 96 36 41 97 35 40 96 36 41 97 36 41 97 36 41 97 35 40 96 36 41 97 35 40 96 35 40 96 35 40 96 36 41 97 35 40 96 35 40 96 35 40 96 36 41 97 35 40 96 36 41 97 34 37 92 29 33 78 30 31 77 35 38 93 35 40 98 34 41 96 36 41 97 34 40 98 34 41 96 35 40 98 34 41 96 38 40 97 35 41 99 35 42 97 35 41 99 36 41 97 36 41 97 35 40 96 36 41 97 35 40 96 35 40 98 36 41 97 36 41 99 34 41 96 35 42 97 34 41 96 35 42 97 
36 41 97 37 42 98 35 42 97 35 39 100 35 42 97 36 41 97 36 41 97 36 41 97 36 41 97 36 41 97 34 41 96 30 34 82 29 32 77 31 35 83 36 41 97 35 40 96 36 41 99 35 40 96 35 40 96 35 40 96 34 41 96 35 40 96 36 41 99 35 39 100 36 41 97 36 41 97 36 41 97 36 41 97 36 41 97 38 43 99 36 41 97 36 41 97 36 41 97 35 40 96 37 42 98 35 42 97 32 34 82 29 33 78 31 35 83 35 40 96 36 41 97 36 41 99 34 39 95 36 41 97 36 41 99 35 40 96 35 40 96 35 40 96 35 42 97 34 39 95 34 40 98 35 40 96 35 41 99 36 41 97 33 38 96 36 41 97 35 40 96 36 41 97 35 40 96 35 40 98 35 40 96 36 41 99 35 40 96 36 41 97 36 41 97 36 41 97 35 42 97 36 41 97 36 41 97 34 41 96 36 41 97 36 41 97 35 42 97 32 37 92 29 32 77 29 33 78 34 39 95 36 41 99 34 41 96 36 41 99 35 42 97 35 41 99 34 41 96 35 40 96 34 41 96 35 40 96 34 41 96 36 41 97 36 41 97 35 40 96 36 41 97 35 40 96 36 41 97 37 42 98 35 40 96 36 41 99 36 41 97 34 41 96 35 40 96 36 41 97 
35 41 99 36 41 97 35 40 98 36 41 97 36 41 97 36 41 97 34 40 98 36 41 97 35 40 96 34 41 96 33 42 97 31 35 83 29 32 77 31 35 83 35 40 96 35 40 96 37 39 100 36 41 97 33 42 99 36 41 97 35 40 98 35 40 96 36 40 101 36 40 101 36 41 97 35 40 96 35 40 96 36 41 97 34 39 95 36 41 97 34 39 95 36 41 97 36 41 97 36 41 97 35 40 95 36 41 97 31 35 82 29 33 78 31 35 83 35 40 96 36 41 97 36 41 99 35 40 96 35 40 96 35 40 98 36 41 97 36 41 97 36 41 97 35 40 96 38 40 99 35 40 96 36 41 99 36 41 97 34 40 98 36 41 97 34 41 96 36 41 97 35 40 96 36 41 97 35 40 98 35 40 96 35 40 98 37 42 98 35 40 96 35 40 96 36 41 97 35 42 97 36 41 97 36 41 97 35 42 97 35 40 96 36 41 97 34 41 96 33 38 93 26 33 77 29 31 79 33 38 93 35 41 99 35 40 96 35 40 96 35 41 101 35 42 97 35 42 97 35 42 97 35 40 98 34 41 96 35 40 96 36 41 99 35 40 98 36 41 97 36 41 99 35 40 98 36 41 99 35 40 98 35 40 98 36 41 97 36 41 97 36 41 97 37 42 98 35 40 96 
36 40 101 36 41 97 36 41 97 35 41 99 36 41 97 35 41 99 35 40 96 35 40 96 35 40 96 35 42 97 35 40 96 30 34 82 28 32 77 30 34 82 34 41 96 36 41 97 34 41 96 36 41 97 34 41 96 36 41 97 32 41 96 36 41 97 34 41 96 33 42 97 35 40 96 35 40 96 34 39 95 35 40 96 35 40 96 35 40 96 35 40 96 36 41 97 35 40 96 35 40 95 36 41 97 34 41 96 31 35 83 28 32 77 29 35 83 36 41 97 36 41 97 35 40 96 36 41 97 35 40 98 36 41 97 35 40 96 35 40 98 35 40 96 36 41 97 36 41 97 36 41 99 35 40 96 36 41 99 36 41 97 37 39 96 35 40 96 35 40 96 36 41 97 35 40 96 35 40 96 35 40 96 36 41 97 35 40 96 35 40 96 36 41 97 36 41 97 36 41 97 36 41 97 34 39 95 35 40 96 35 40 96 35 40 96 36 41 97 32 39 93 29 32 77 29 32 77 34 39 94 37 39 98 35 40 96 35 40 96 36 40 101 36 41 99 35 42 97 35 40 96 35 42 97 35 40 96 35 40 96 36 41 97 36 41 97 35 40 96 35 40 96 36 41 99 35 40 98 36 41 97 36 41 99 35 40 96 35 40 96 34 41 96 35 40 96 36 41 97 
36 41 99 35 42 96 36 41 99 36 41 99 35 40 95 36 41 97 36 41 99 35 42 97 35 40 96 35 42 97 35 40 96 31 35 83 26 33 77 30 34 82 35 40 96 34 41 96 35 40 96 34 40 98 35 40 98 35 40 98 36 41 99 36 41 99 35 40 96 35 40 96 36 41 97 36 41 97 36 41 97 36 41 97 36 41 97 35 40 96 35 40 96 35 40 96 35 40 96 35 42 97 35 40 98 36 41 97 28 34 82 26 33 77 29 35 83 35 41 99 35 40 96 35 40 96 35 40 96 35 40 98 36 41 97 35 40 96 36 41 99 36 41 97 36 41 97 35 40 96 35 40 96 36 41 99 36 41 97 36 41 97 35 40 96 35 40 96 37 42 98 36 41 97 36 41 97 35 40 96 35 40 96 35 40 96 36 41 97 35 40 96 36 41 97 35 40 96 35 40 96 36 41 97 35 40 96 36 41 97 37 42 98 36 41 97 35 42 97 32 37 92 25 32 76 29 32 77 33 38 93 34 41 96 35 40 96 36 40 101 35 40 96 36 41 97 36 41 99 34 41 96 34 41 96 36 41 97 35 42 97 36 41 97 35 42 97 35 40 96 35 42 97 36 41 99 36 41 99 35 42 97 36 41 97 34 41 96 35 40 96 35 40 96 37 39 96 36 41 97 
36 41 97 37 42 98 36 41 97 36 41 99 34 41 96 35 40 96 35 39 100 36 41 97 33 40 95 34 41 96 35 40 96 30 34 82 28 32 77 31 35 83 36 41 97 35 40 96 36 41 97 36 41 97 37 39 96 35 41 99 35 40 96 35 41 99 35 40 96 35 42 97 36 41 97 36 41 97 35 40 96 36 41 97 36 41 97 35 40 96 35 40 96 36 41 97 36 41 97 36 41 97 34 41 95 33 40 95 31 35 83 29 31 79 28 36 82 33 42 99 36 41 97 35 40 98 35 40 96 35 40 96 36 41 99 35 40 96 34 39 95 35 40 96 35 40 96 36 41 97 36 41 97 35 40 96 36 41 97 36 41 97 36 41 97 35 40 96 34 41 96 35 42 97 35 41 99 34 41 96 34 40 98 35 42 97 35 42 97 34 41 96 35 40 96 35 42 97 36 41 97 35 40 98 36 41 99 36 41 97 35 42 97 35 40 96 36 41 97 32 37 92 29 32 77 30 33 78 33 39 91 35 40 96 35 40 96 36 41 97 35 40 98 35 40 98 35 42 97 34 40 98 32 41 98 34 41 96 36 41 97 34 39 95 35 42 97 35 40 98 34 41 96 36 41 97 36 41 97 35 41 99 35 40 98 35 42 97 34 41 96 34 41 96 36 41 97 35 40 96 
36 41 97 35 40 96 36 41 97 35 40 96 35 40 96 35 40 96 35 40 96 36 41 97 35 40 96 35 40 96 34 41 96 30 34 82 29 32 77 30 34 82 36 41 97 36 41 97 36 41 97 36 41 97 37 42 98 35 40 96 35 40 96 36 41 97 35 40 96 35 40 96 35 40 96 35 40 96 35 40 96 35 40 96 36 41 97 35 40 96 35 40 96 35 40 96 34 41 96 38 40 97 35 40 96 36 41 97 31 33 82 29 32 77 29 35 83 35 40 96 35 40 96 35 40 96 35 40 96 35 40 96 36 41 97 36 41 97 36 41 97 36 41 97 36 41 97 35 40 96 35 40 96 35 40 96 36 41 97 35 40 96 35 40 96 35 40 96 35 40 96 36 41 97 35 40 96 36 41 97 35 40 96 35 40 96 36 41 97 36 41 97 35 40 96 36 41 97 35 40 96 36 41 97 35 40 96 37 42 98 36 41 97 36 41 97 34 41 96 33 38 93 28 32 77 26 33 77 33 38 93 35 42 97 35 40 96 35 40 96 34 39 95 36 41 97 36 41 97 35 40 96 36 41 97 36 41 97 36 41 97 35 40 96 35 40 96 35 40 96 36 41 97 35 40 96 35 40 96 36 41 97 35 40 96 36 41 97 36 41 97 36 41 97 36 41 97 36 41 97 
37 42 98 36 41 97 36 41 97 36 41 97 35 40 96 36 41 97 36 41 97 36 41 97 35 40 96 36 41 97 36 41 97 31 35 83 29 32 77 30 34 82 37 42 98 36 41 97 36 41 97 35 40 96 35 40 96 34 39 95 35 40 96 36 41 97 35 40 96 35 40 96 35 40 96 36 41 97 36 41 97 36 41 97 36 41 97 35 40 96 36 41 97 35 40 96 35 40 96 35 42 97 34 41 96 36 41 97 31 35 83 28 32 77 31 35 83 35 40 96 36 41 97 35 40 96 35 40 96 34 39 95 35 40 96 35 40 96 35 40 96 36 41 97 35 40 96 36 41 97 36 41 97 37 42 98 35 40 96 36 41 97 35 40 96 35 40 96 36 41 97 36 41 97 35 42 97 37 42 98 35 40 96 36 41 97 35 40 96 35 42 97 37 42 98 36 41 97 35 40 96 35 40 96 35 40 96 35 40 96 36 41 97 36 41 97 34 41 96 33 38 93 28 32 77 26 33 77 33 38 93 34 41 96 35 40 96 36 41 97 35 40 96 35 40 96 35 40 96 36 41 97 35 40 96 36 41 97 36 41 97 36 41 97 36 41 97 35 40 96 36 41 97 35 40 96 35 40 96 35 40 96 36 41 97 35 40 96 36 41 97 35 40 96 35 40 96 35 40 96 
35 40 96 35 40 96 35 40 96 36 41 97 35 40 96 35 40 96 35 40 96 35 40 96 34 41 96 35 40 96 36 41 97 31 35 83 26 33 77 29 33 81 34 41 96 36 41 97 36 41 97 36 41 97 35 40 96 35 40 96 35 40 96 35 40 96 36 41 97 35 40 96 36 41 97 35 40 96 36 41 97 35 40 96 36 41 97 36 41 97 35 40 96 35 40 96 35 40 96 34 41 96 35 40 96 36 41 97 31 35 83 28 32 77 31 35 83 35 40 96 35 40 96 35 40 96 36 41 97 35 40 96 35 40 96 35 40 96 36 41 97 35 40 96 35 40 96 36 41 97 35 40 96 35 40 96 35 40 96 36 41 97 34 39 95 36 41 97 34 41 96 35 40 96 34 41 96 36 41 97 36 41 97 35 42 97 34 39 95 34 39 95 36 41 97 37 42 98 34 39 95 36 41 97 34 41 96 36 41 97 35 42 97 35 40 96 34 41 96 33 38 93 28 32 77 28 32 77 33 38 93 34 41 96 36 41 97 34 39 95 36 41 97 36 41 97 36 41 97 35 40 96 36 41 97 35 40 96 35 40 96 35 40 96 35 40 96 35 40 96 35 40 96 35 40 96 34 41 96 34 41 96 36 41 97 35 42 97 35 40 96 36 41 97 35 40 96 35 40 96 
36 41 97 36 41 97 36 41 97 35 40 96 35 40 96 36 41 97 35 40 96 35 40 96 36 41 97 36 41 97 34 39 95 30 34 82 30 34 79 31 35 83 34 41 96 35 40 96 35 40 96 35 40 96 35 40 96 35 40 96 35 40 96 34 39 95 35 40 96 36 41 97 35 40 96 36 41 97 35 40 96 36 41 97 36 41 97 36 41 97 36 41 97 35 40 96 36 41 97 35 40 96 35 40 96 35 40 96 32 34 83 28 32 77 29 35 83 34 41 96 36 41 97 35 40 96 35 40 96 36 41 97 35 40 96 36 41 97 36 41 97 35 40 96 35 40 96 35 40 96 35 40 96 36 41 97 35 40 96 36 41 97 36 41 97 35 40 96 35 40 96 36 41 97 35 42 97 35 40 96 35 40 96 35 40 96 36 41 97 35 42 97 35 40 96 35 40 96 35 42 97 35 40 96 36 41 97 36 41 97 35 40 96 35 40 96 35 42 97 33 38 93 28 32 77 29 32 77 34 39 94 35 40 96 35 40 96 35 40 96 35 40 96 35 40 96 35 40 96 36 41 97 36 41 97 35 40 96 35 40 96 36 41 97 35 40 96 36 41 97 35 40 96 35 40 96 35 40 96 35 40 96 34 41 96 35 40 96 36 41 97 36 41 97 36 41 97 36 41 97 
35 40 96 36 41 97 36 41 97 35 40 96 35 40 96 35 40 96 35 40 96 35 40 96 35 40 96 35 40 96 36 41 97 31 35 83 29 32 77 29 33 81 35 40 96 35 40 96 35 40 96 36 41 97 36 41 97 36 41 97 35 40 96 36 41 97 37 42 98 35 40 96 36 41 97 35 40 96 36 41 97 35 40 96 37 42 98 36 41 97 36 41 97 35 40 96 35 42 97 34 41 96 35 40 96 35 40 96 32 34 83 28 32 77 30 36 84 35 40 96 36 41 97 35 40 96 36 41 97 35 40 96 36 41 97 35 40 96 36 41 97 35 40 96 35 40 96 36 41 97 35 40 96 35 40 96 35 40 96 36 41 97 36 41 97 35 40 96 36 41 97 35 40 96 35 40 96 35 40 96 35 40 96 35 40 96 35 40 96 36 41 97 35 40 96 34 41 96 35 40 96 35 42 97 36 41 97 35 40 96 36 41 97 35 40 96 34 41 96 33 38 93 29 33 78 29 32 77 33 38 93 35 40 96 35 40 96 35 40 96 36 41 97 35 40 96 36 41 97 36 41 97 35 40 96 35 40 96 36 41 97 34 39 95 36 41 97 35 40 96 36 41 97 35 40 96 35 40 96 35 42 97 36 41 97 35 42 97 35 40 96 36 41 97 35 40 96 35 40 96 
36 41 97 35 40 96 35 40 96 35 40 96 36 41 97 35 40 96 35 40 96 35 40 96 36 41 97 36 41 97 35 42 97 30 34 82 30 33 78 31 35 83 35 40 96 38 40 97 35 40 96 36 41 97 36 41 97 35 40 96 35 40 96 35 40 96 35 40 96 35 40 96 36 41 97 35 40 96 34 39 95 36 41 97 36 41 97 36 41 97 35 40 96 35 40 96 35 40 96 35 42 97 36 41 97 35 40 96 31 35 83 28 32 77 31 35 83 34 41 96 35 40 96 37 42 98 34 39 95 35 40 96 34 39 95 35 40 96 35 40 96 36 41 97 35 40 96 35 40 96 35 40 96 35 40 96 35 40 96 36 41 97 35 40 96 35 40 96 35 40 96 35 40 96 36 41 97 35 40 96 36 41 97 36 41 97 35 40 96 35 40 96 34 39 95 36 41 97 37 39 96 36 41 97 34 39 95 34 41 96 36 41 97 35 40 96 35 40 96 32 37 92 29 32 77 29 32 77 33 38 93 35 40 96 35 40 96 35 40 96 36 41 97 35 40 96 36 41 97 35 40 96 35 40 96 35 40 96 36 41 97 35 40 96 35 40 96 36 41 97 35 40 96 35 42 97 35 40 96 35 40 96 35 42 97 35 40 96 35 40 96 37 42 98 35 40 96 37 42 98 
36 41 97 36 41 97 35 40 96 35 40 96 35 40 96 34 39 95 35 40 96 35 40 96 35 40 96 36 41 97 36 41 97 30 34 82 29 32 77 30 34 82 35 40 96 36 41 97 35 40 96 36 41 97 36 41 97 36 41 97 35 40 96 35 40 96 36 41 97 36 41 97 35 40 96 35 40 96 36 41 97 35 40 96 36 41 97 35 40 96 36 41 97 35 40 96 35 40 96 35 40 96 38 40 97 35 40 96 31 35 83 29 32 77 31 35 83 35 40 96 35 40 96 35 40 96 35 40 96 35 40 96 36 41 97 36 41 97 35 40 96 35 40 96 35 40 96 35 40 96 35 40 96 36 41 97 34 39 95 36 41 97 35 40 96 37 42 98 35 40 96 35 40 96 35 40 96 34 39 95 37 42 98 36 41 97 35 40 96 35 40 96 35 40 96 36 41 97 36 41 97 34 39 95 35 40 96 35 40 96 36 41 97 35 40 96 35 40 96 33 38 93 29 32 77 29 32 77 34 39 94 36 41 97 36 41 97 36 41 97 36 41 97 35 40 96 34 39 95 36 41 97 35 40 96 35 40 96 35 40 96 36 41 97 35 40 96 35 40 96 36 41 97 35 40 96 36 41 97 36 41 97 35 40 96 35 40 96 36 41 97 35 40 96 36 41 97 36 41 97 
36 41 97 36 41 97 35 40 96 35 40 96 35 40 96 35 40 96 35 40 96 35 40 96 35 40 96 35 40 96 36 41 97 30 34 82 28 32 77 30 34 82 34 41 96 36 41 97 36 41 97 36 41 97 35 40 96 35 40 96 35 40 96 35 40 96 35 40 96 35 40 96 34 39 95 35 40 96 35 40 96 35 40 96 35 40 96 35 40 96 35 40 96 34 39 95 35 42 97 35 40 96 35 40 96 34 41 96 31 35 83 29 32 77 29 35 83 35 40 96 36 41 97 36 41 97 36 41 97 36 41 97 35 40 96 35 40 96 35 40 96 35 40 96 35 40 96 36 41 97 35 40 96 36 41 97 35 40 96 35 40 96 35 40 96 36 41 97 36 41 97 35 40 96 36 41 97 35 40 96 35 40 96 35 40 96 35 40 96 35 40 96 35 40 96 35 40 96 35 40 96 36 41 97 36 41 97 35 40 96 35 40 96 35 40 96 35 40 96 33 38 93 29 32 77 29 32 77 33 38 93 35 40 96 35 40 96 35 40 96 35 40 96 35 40 96 35 40 96 35 40 96 35 40 96 35 40 96 36 41 97 35 40 96 35 40 96 35 40 96 36 41 97 36 41 97 35 40 96 36 41 97 35 40 96 35 40 96 35 40 96 37 42 98 35 40 96 35 40 96 
36 41 97 35 40 96 35 40 96 35 40 96 35 40 96 35 40 96 36 41 97 36 41 97 35 40 96 35 40 96 36 41 97 31 35 83 28 32 77 30 34 82 35 40 96 34 39 95 35 40 96 35 40 96 35 40 96 36 41 97 35 40 96 35 40 96 36 41 97 35 40 96 36 41 97 35 40 96 36 41 97 36 41 97 35 40 96 35 40 96 36 41 97 35 40 96 35 40 96 35 40 96 35 40 96 35 40 96 30 34 82 28 32 77 31 35 83 35 40 96 35 40 96 35 40 96 35 40 96 35 40 96 36 41 97 35 40 96 35 40 96 36 41 97 35 40 96 35 40 96 35 40 96 36 41 97 35 40 96 36 41 97 35 40 96 36 41 97 35 40 96 36 41 97 35 40 96 34 39 95 35 40 96 35 40 96 36 41 97 35 40 96 35 40 96 37 42 98 35 40 96 36 41 97 35 40 96 35 40 96 35 40 96 35 40 96 35 40 96 32 37 92 28 33 75 29 32 77 35 38 93 36 41 97 35 40 96 35 39 100 35 40 96 35 40 96 35 40 96 35 40 96 35 40 96 35 40 96 35 40 96 35 40 96 36 41 97 35 40 96 35 40 96 35 40 96 35 40 96 35 40 96 36 41 97 36 41 97 35 40 96 35 40 96 36 41 97 35 40 96 
35 40 96 36 41 97 36 41 97 35 40 96 35 40 96 36 41 97 36 41 97 35 40 96 35 40 96 35 40 96 36 41 97 31 35 83 29 33 78 30 34 82 35 40 96 36 41 97 35 40 96 35 40 96 35 40 96 35 40 96 35 40 96 35 40 96 35 40 96 36 41 97 35 40 96 35 40 96 35 40 96 35 40 96 35 40 96 35 40 96 34 39 95 35 40 96 35 40 96 35 40 96 36 41 97 37 42 98 30 34 82 28 32 77 31 35 83 36 41 97 35 40 96 36 41 97 35 40 96 34 39 95 36 41 97 35 40 96 33 38 94 35 40 96 35 40 96 35 40 96 35 40 96 36 41 97 35 40 96 36 41 97 36 41 97 35 40 96 36 41 97 34 39 95 35 40 96 36 41 97 35 40 96 35 40 96 35 40 96 35 40 96 36 41 97 35 40 96 35 40 96 36 41 97 35 40 96 35 40 96 36 41 97 35 40 96 35 40 98 32 37 92 29 33 78 29 31 79 35 38 93 35 40 96 35 40 98 35 40 96 35 40 96 35 40 96 35 40 96 35 40 96 35 40 96 35 40 96 35 40 96 35 40 96 36 41 97 35 40 96 36 41 97 35 40 96 36 41 97 36 41 97 36 41 97 36 41 97 35 40 96 35 40 96 36 41 97 36 41 97 
35 40 96 35 40 96 36 41 97 36 41 97 35 40 96 35 40 96 35 40 96 35 40 96 35 40 96 36 41 97 36 41 97 30 34 82 28 32 77 30 34 82 35 40 96 35 40 96 35 40 96 36 41 97 34 39 95 36 41 97 36 41 97 35 40 96 35 40 96 35 40 96 36 41 97 35 40 96 35 40 96 35 40 96 35 40 96 35 40 96 35 40 96 35 40 96 35 40 96 35 40 96 35 40 96 35 40 96 30 34 82 28 32 77 31 35 83 35 40 96 35 40 96 35 40 96 35 40 96 35 40 96 35 40 96 35 40 96 36 41 97 36 41 97 34 39 95 35 40 96 35 40 96 35 40 96 35 40 96 35 40 96 36 41 97 35 40 96 36 41 97 36 41 97 35 40 96 35 40 96 35 40 96 36 41 97 35 40 96 36 41 97 35 40 96 35 40 96 35 40 96 35 40 96 36 41 97 35 40 96 36 41 97 35 40 96 35 40 95 32 37 92 29 33 78 29 32 77 35 38 93 35 40 96 36 41 97 35 40 98 35 40 96 35 40 96 36 41 97 36 41 97 36 41 97 36 41 97 35 40 96 35 40 96 35 40 96 35 40 96 36 41 97 35 40 96 35 40 96 35 40 96 35 40 96 36 41 97 36 41 97 35 40 96 35 40 96 36 41 97 
35 40 96 35 40 96 35 40 96 36 41 97 35 40 96 35 40 96 35 40 96 35 40 96 35 40 96 35 40 96 35 40 96 30 34 82 28 32 77 30 34 82 35 40 96 35 40 96 35 40 96 34 39 95 35 40 96 35 40 96 35 40 96 35 40 96 35 40 96 36 41 97 36 41 97 35 40 96 35 40 96 35 40 96 35 40 96 36 41 97 36 41 97 35 40 96 35 40 96 35 40 96 35 40 96 35 40 96 30 34 82 28 32 77 31 35 83 35 40 96 35 40 96 35 40 96 36 41 97 35 40 96 35 40 96 34 39 95 35 40 96 35 40 96 36 41 97 36 41 97 35 40 96 35 40 96 35 40 96 35 40 96 35 40 96 35 40 96 35 40 96 35 40 96 35 40 96 35 40 96 35 40 96 35 40 96 35 40 96 35 40 96 36 41 97 35 40 96 35 40 96 35 40 96 35 40 96 35 40 96 35 40 96 36 41 97 35 40 96 33 38 93 28 32 77 29 32 77 35 38 93 35 40 96 35 40 98 35 40 98 36 41 97 36 41 97 35 40 96 35 40 96 35 40 96 35 40 96 36 41 97 36 41 97 35 40 96 35 40 96 35 40 96 35 40 96 36 41 97 35 40 96 36 41 97 35 40 96 35 40 96 35 40 96 35 40 96 35 40 96 
35 40 96 36 41 97 35 40 96 35 40 96 36 41 97 36 41 97 35 40 96 35 40 96 35 40 96 35 40 96 35 40 96 30 34 82 29 33 78 30 34 82 35 40 96 36 41 97 36 41 97 35 40 96 35 40 96 36 41 97 36 41 97 35 40 96 35 40 96 35 40 96 35 40 96 36 41 97 35 40 96 35 40 96 36 41 97 36 41 97 36 41 97 35 40 96 35 40 96 35 40 96 35 40 96 36 41 97 30 34 82 28 32 77 31 35 83 36 41 97 35 40 96 35 40 96 36 41 97 35 40 96 35 40 96 35 40 96 36 41 97 36 41 97 35 40 96 35 40 96 35 40 96 35 40 96 34 39 95 35 40 96 35 40 96 36 41 97 36 41 97 35 40 96 36 41 97 35 40 96 35 40 96 35 40 96 36 41 97 36 41 97 35 40 96 35 40 96 35 40 96 36 41 97 34 39 95 35 40 96 36 41 97 35 40 96 35 40 98 33 38 93 27 31 76 29 32 77 35 38 91 35 40 96 35 40 96 35 40 96 35 40 96 35 40 96 35 40 96 35 40 96 35 40 96 35 40 96 35 40 96 35 40 96 36 41 97 35 40 96 35 40 96 35 40 96 36 41 97 35 40 96 36 41 97 35 40 96 37 42 98 35 40 96 35 40 96 34 39 95 
35 40 96 34 39 95 35 40 96 35 40 96 34 39 95 35 40 96 35 40 96 35 40 96 35 40 96 35 40 96 35 40 96 30 34 82 28 32 77 30 34 82 35 40 96 35 40 96 35 40 96 35 40 96 35 40 96 35 40 96 35 40 96 35 40 96 35 40 96 36 41 97 35 40 96 36 41 97 35 40 96 35 40 96 36 41 97 36 41 97 36 41 97 35 40 96 35 40 96 35 40 96 35 40 96 35 40 96 30 34 82 28 32 77 31 35 83 35 40 96 35 40 96 35 40 96 35 40 96 35 40 96 35 40 96 34 39 95 35 40 96 35 40 96 35 40 96 36 41 97 35 40 96 35 40 96 35 40 96 36 41 97 35 40 96 35 40 96 35 40 96 35 40 96 35 40 96 35 40 96 35 40 96 35 40 96 35 40 96 35 40 96 35 40 96 35 40 96 36 41 97 36 41 97 34 39 95 35 40 96 35 40 96 36 41 97 35 40 95 32 37 92 27 31 76 29 32 77 35 38 91 35 40 96 36 41 97 35 40 96 35 40 96 35 40 96 35 40 96 35 40 96 35 40 96 35 40 96 35 40 96 35 40 96 36 41 97 35 40 96 35 40 96 35 40 96 35 40 96 35 40 96 35 40 96 34 39 95 35 40 96 36 41 97 37 42 98 34 39 95 
35 40 96 36 41 97 36 41 97 34 39 95 35 40 96 35 40 96 35 40 96 36 41 97 35 40 96 34 39 95 35 40 96 30 34 82 28 32 77 30 34 82 35 40 96 35 40 96 35 40 96 35 40 96 35 40 96 35 40 96 36 41 97 35 40 96 35 40 96 35 40 96 35 40 96 35 40 96 35 40 96 35 40 96 35 40 96 35 40 96 35 40 96 35 40 96 35 40 96 35 40 96 36 41 97 35 40 96 30 34 82 28 32 77 31 35 83 35 40 96 36 41 97 35 40 96 35 40 96 35 40 96 35 40 96 35 40 96 35 40 96 35 40 96 34 39 95 36 41 97 35 40 96 35 40 96 35 40 96 36 41 97 35 40 96 35 40 96 36 41 97 35 40 96 35 40 96 35 40 96 35 40 96 35 40 96 35 40 96 36 41 97 35 40 96 35 40 96 36 41 97 36 41 97 35 40 96 35 40 96 35 40 96 35 40 96 35 40 96 33 38 93 28 32 77 29 32 77 35 38 93 35 40 96 35 40 96 35 40 96 35 40 96 35 40 96 35 40 96 35 40 96 35 40 96 35 40 96 35 40 96 35 40 96 36 41 97 35 40 96 34 39 95 35 40 96 35 40 96 36 41 97 35 40 96 35 40 96 35 40 96 35 40 96 35 40 96 34 39 95 
35 40 96 35 40 96 35 40 96 35 40 96 36 41 97 35 40 96 35 40 96 35 40 96 35 40 96 35 40 96 35 40 96 30 34 82 28 32 77 30 34 82 35 40 96 35 40 96 35 40 96 35 40 96 35 40 96 36 41 97 35 40 96 35 40 96 36 41 97 35 40 96 35 40 96 34 39 95 35 40 96 35 40 96 35 40 96 35 40 96 35 40 96 36 41 97 35 40 96 35 40 96 35 40 96 36 41 97 30 34 82 28 32 77 31 35 83 36 41 97 35 40 96 35 40 96 35 40 96 35 40 96 36 41 97 35 40 96 35 40 96 36 41 97 36 41 97 36 41 97 36 41 97 36 41 97 35 40 96 35 40 96 35 40 96 35 40 96 35 40 96 36 41 97 35 40 96 35 40 96 35 40 96 35 40 96 36 41 97 35 40 96 35 40 96 34 39 95 36 41 97 37 42 98 35 40 96 35 40 96 35 40 96 35 40 96 35 40 96 33 38 93 28 32 77 29 32 77 34 37 90 35 40 96 35 40 96 35 40 96 35 40 96 35 40 96 35 40 96 35 40 96 35 40 96 35 40 96 35 40 96 35 40 96 36 41 97 36 41 97 35 40 96 35 40 96 35 40 96 35 40 96 35 40 96 35 40 96 36 41 97 35 40 96 35 40 96 36 41 97 
35 40 96 35 40 96 35 40 96 36 41 97 35 40 96 35 40 96 35 40 96 35 40 96 35 40 98 35 40 96 35 40 96 30 34 82 28 32 77 31 35 83 35 40 96 35 40 96 35 40 96 35 40 96 35 40 96 35 40 96 35 40 96 35 40 98 35 40 96 35 40 96 35 40 95 35 40 96 36 41 97 35 40 96 35 40 98 36 41 99 35 40 98 35 39 100 35 40 96 35 40 96 36 41 97 35 40 96 30 34 81 29 32 77 30 34 82 36 41 97 35 40 96 35 40 96 35 40 96 35 40 96 35 40 96 35 40 96 35 40 96 35 40 96 35 40 96 35 40 96 35 40 96 35 40 96 35 40 96 35 40 96 36 41 97 35 40 96 36 41 97 36 41 97 35 40 96 36 41 97 35 40 96 35 40 96 35 40 96 35 40 96 35 40 96 35 40 96 35 40 96 35 40 96 35 40 96 35 40 96 35 40 96 35 40 96 35 40 98 32 37 92 28 32 77 28 32 77 33 39 91 35 40 96 36 41 97 35 40 96 35 40 96 35 40 96 35 40 96 35 40 96 35 40 96 35 40 96 35 40 96 35 40 96 35 40 96 35 40 95 36 41 97 35 40 96 35 40 96 36 41 97 35 40 98 35 40 96 36 41 97 35 40 96 35 40 96 36 41 97 
36 41 97 35 40 96 34 39 95 35 40 96 34 39 95 35 40 96 35 40 96 35 40 96 35 40 96 35 40 96 35 40 95 30 34 82 28 33 75 30 34 82 35 40 96 35 40 95 35 40 96 35 40 96 35 40 96 35 40 96 35 40 96 35 40 96 35 40 98 35 40 96 35 40 98 35 40 98 35 40 98 35 40 96 35 40 96 36 41 97 36 41 97 35 40 96 36 41 97 35 40 96 36 41 97 36 41 97 30 34 82 29 32 77 31 35 83 35 40 96 35 40 96 35 40 96 35 40 96 35 40 96 35 40 96 35 40 96 35 40 96 35 40 96 35 40 96 35 40 96 35 40 96 35 40 96 36 41 97 35 40 96 35 40 96 36 41 97 35 40 96 35 40 96 36 41 97 35 40 96 35 40 96 35 40 96 35 40 96 35 40 96 35 40 96 35 40 96 35 40 96 35 40 96 35 40 96 35 40 96 35 40 96 35 40 96 35 40 96 32 38 90 28 32 77 28 32 77 33 39 91 35 40 96 36 41 97 35 40 96 35 40 96 35 40 96 35 40 96 35 40 96 35 40 96 35 40 96 35 40 96 35 40 96 35 40 96 35 40 96 35 40 96 35 40 96 35 40 96 35 40 96 35 40 96 35 40 96 36 41 97 35 40 96 35 40 96 35 40 96 
35 40 96 35 40 96 35 40 96 35 40 96 35 40 96 35 40 96 35 40 96 35 40 96 35 40 96 34 39 95 36 41 97 30 34 82 28 32 77 29 33 81 35 40 96 35 40 96 35 40 96 35 40 96 35 40 96 35 40 96 35 40 96 35 40 96 35 40 96 35 40 96 35 40 96 35 40 96 35 40 96 35 40 96 35 40 96 35 40 96 36 41 97 35 40 96 35 40 96 35 40 96 35 40 96 35 40 96 30 34 82 29 32 77 31 35 83 35 40 96 35 40 96 35 40 96 35 40 96 35 40 96 35 40 96 35 40 96 35 40 96 35 40 96 35 40 96 35 40 96 35 40 96 35 40 96 35 40 96 35 40 96 35 40 96 35 40 96 35 40 96 35 40 96 35 40 96 35 40 96 35 40 96 35 40 96 35 40 96 36 41 97 35 40 96 35 40 96 35 40 96 35 40 96 35 40 96 35 40 96 35 40 96 35 40 96 35 40 96 33 38 93 28 32 77 28 32 77 33 38 93 35 40 96 35 40 96 35 40 96 35 40 96 34 39 95 36 41 97 35 40 96 35 40 96 36 41 97 34 39 95 35 40 96 35 40 96 35 40 98 35 40 96 35 40 96 35 40 96 35 40 96 35 40 95 35 40 96 35 40 96 35 40 96 35 40 96 35 40 96 
35 40 96 35 40 96 36 41 97 36 41 97 35 40 96 35 40 96 35 40 96 34 39 95 36 41 97 35 40 96 35 40 98 30 34 82 28 32 79 31 35 82 36 41 97 34 39 95 35 40 96 35 40 96 35 40 96 35 40 96 35 40 96 35 40 96 35 40 96 35 40 96 35 40 96 35 40 96 34 39 95 35 40 96 35 40 96 35 40 96 36 41 97 35 40 96 35 40 96 35 40 96 35 40 96 35 40 96 31 35 82 29 32 77 30 34 82 35 40 96 35 40 96 35 40 96 35 40 96 35 40 96 35 40 96 35 40 96 35 40 96 35 40 96 36 41 97 35 40 96 36 41 97 35 40 96 35 40 96 35 40 96 35 40 96 35 40 96 35 40 96 35 40 96 35 40 96 35 40 96 35 40 96 35 40 96 35 40 96 35 40 96 35 40 96 35 40 96 35 40 96 35 40 96 35 40 96 35 40 96 35 40 96 35 40 96 35 40 96 33 39 91 28 32 77 28 32 77 33 39 91 35 40 96 35 40 96 35 40 96 35 40 96 35 40 96 35 40 96 35 40 96 35 40 96 35 40 96 35 40 96 35 40 96 35 40 96 36 41 99 35 40 96 35 40 96 35 40 96 35 40 96 36 41 96 35 40 96 35 40 96 35 40 96 36 41 97 35 40 96 
35 40 96 35 40 96 35 40 96 35 40 96 35 40 96 35 40 96 35 40 96 34 39 95 35 40 96 35 40 96 36 41 97 30 34 82 28 32 77 30 34 82 36 41 97 35 40 96 35 40 96 35 40 96 35 40 96 35 40 96 35 40 96 35 40 96 35 40 96 35 40 96 35 40 96 35 40 96 35 40 96 35 40 96 35 40 96 35 40 96 35 40 96 35 40 96 34 39 95 35 40 96 34 39 95 34 39 95 30 34 81 29 32 77 31 35 83 35 40 96 35 40 96 35 40 96 35 40 96 35 40 96 35 40 96 35 40 96 35 40 96 35 40 96 35 40 96 35 40 96 36 41 97 35 40 96 35 40 96 35 40 96 35 40 96 35 40 96 35 40 96 35 40 96 35 40 96 35 40 96 35 40 96 35 40 96 35 40 96 35 40 96 35 40 96 35 40 96 35 40 96 35 40 96 35 40 96 35 40 96 35 40 96 35 40 96 35 40 98 33 38 94 28 32 77 28 32 79 33 39 91 35 40 96 35 40 96 35 40 96 35 40 96 35 40 96 35 40 96 35 40 96 35 40 96 35 40 96 35 40 96 35 40 96 35 40 96 35 40 96 35 40 96 35 40 96 35 40 96 35 40 96 35 40 96 35 40 96 35 40 96 35 40 96 35 40 96 36 41 97 
35 40 96 35 40 96 35 40 96 35 40 96 35 40 96 35 40 96 35 40 96 35 40 96 35 40 96 35 40 96 35 40 96 30 34 82 28 32 77 30 34 82 35 40 96 35 40 96 35 40 96 35 40 96 35 40 96 35 40 96 35 40 96 35 40 96 35 40 96 35 40 96 35 40 96 35 40 96 35 40 96 35 40 96 36 41 97 35 40 96 35 40 96 35 40 96 36 41 97 35 40 96 35 40 96 36 41 97 31 35 83 29 32 77 31 35 83 35 40 96 35 40 96 35 40 96 35 40 96 35 40 96 35 40 96 35 40 96 35 40 96 35 40 96 34 39 95 36 41 97 35 40 96 35 40 96 34 39 95 35 40 96 36 41 97 35 40 96 35 40 96 35 40 96 35 40 96 35 40 96 35 40 96 35 40 96 35 40 96 36 41 97 35 40 96 35 40 96 35 40 96 35 40 96 35 40 96 35 40 96 35 40 96 35 40 96 35 40 96 33 38 93 28 32 77 28 32 77 33 39 91 35 40 98 35 40 96 35 40 98 35 40 96 35 40 96 35 40 96 35 40 96 35 40 96 35 40 96 35 40 96 35 40 96 35 40 96 35 40 96 35 40 96 35 40 96 35 40 96 35 40 96 35 40 96 35 40 96 35 40 96 35 40 96 35 40 96 35 40 96 
35 40 96 35 40 96 35 40 96 36 41 97 35 40 96 35 40 96 35 40 96 35 40 96 35 40 96 35 40 95 35 40 96 30 34 81 28 32 77 30 34 81 35 40 96 35 40 96 35 40 96 35 40 98 35 40 96 35 40 96 35 40 96 35 40 96 35 40 96 35 40 96 36 41 97 35 40 96 35 40 96 35 40 96 35 40 96 35 40 96 34 39 95 35 40 96 35 40 96 35 40 96 35 40 96 35 40 96 30 34 82 29 32 77 31 35 83 35 40 96 35 40 96 35 40 96 35 40 96 35 40 96 35 40 96 35 40 96 35 40 96 35 40 96 35 40 96 35 40 96 35 40 96 35 40 96 36 41 97 35 40 96 35 40 96 36 41 97 35 40 96 35 40 96 36 41 97 35 40 96 35 40 96 35 40 96 35 40 96 35 40 96 35 40 96 35 40 96 35 40 96 35 40 96 35 40 96 35 40 96 35 40 96 35 40 96 35 40 98 33 38 93 28 32 77 28 32 79 33 39 91 35 40 96 35 40 98 35 40 96 35 40 96 35 40 96 35 40 96 35 40 96 35 40 96 35 40 96 35 40 96 35 40 96 35 40 96 35 40 96 36 41 97 35 40 96 35 40 96 36 41 97 35 40 96 35 40 96 35 40 96 36 41 97 34 39 95 35 40 96 
36 41 97 35 40 96 34 39 95 35 40 96 34 39 95 35 40 96 35 40 96 35 40 96 35 40 98 35 40 96 35 40 96 30 34 82 28 32 77 31 35 83 35 40 98 35 40 96 35 40 96 35 40 96 35 40 98 35 40 96 35 40 96 35 40 96 35 40 96 35 40 96 36 41 97 35 40 96 35 40 96 35 40 96 35 40 96 35 40 96 35 40 96 35 40 96 35 40 96 35 40 96 35 40 96 35 40 96 30 34 81 28 31 76 30 34 82 34 39 95 35 40 96 35 40 96 35 40 96 35 40 96 35 40 96 35 40 96 35 40 96 35 40 96 36 41 97 34 39 95 35 40 96 35 40 96 35 40 96 35 40 96 35 40 96 35 40 96 36 41 97 36 41 97 35 40 96 36 41 97 35 40 96 35 40 96 35 40 96 35 40 96 35 40 96 35 40 96 35 40 96 35 40 96 35 40 96 35 40 96 35 40 96 35 40 96 35 40 96 33 38 93 28 32 77 28 32 77 33 38 93 35 40 96 35 40 96 35 40 96 35 40 96 35 40 96 35 40 96 35 40 96 35 40 96 35 40 96 35 40 96 35 40 96 35 40 96 35 40 96 35 40 96 35 40 96 35 40 96 35 40 96 35 40 96 35 40 96 34 39 95 36 41 97 35 40 96 35 40 96 
35 40 96 35 40 96 35 40 96 35 40 96 35 40 96 36 41 97 35 40 96 35 40 96 35 40 96 35 40 96 34 39 94 33 38 93 32 38 86 34 39 95 36 41 97 34 39 95 35 40 96 35 40 96 35 40 96 35 40 96 35 40 96 35 40 96 35 40 96 35 40 96 36 41 97 35 40 96 35 40 96 36 41 97 35 40 96 34 39 95 35 40 96 35 40 96 35 40 96 35 40 96 35 40 96 35 40 96 30 34 81 28 32 77 30 34 81 35 40 96 35 40 96 35 40 96 35 40 96 35 40 96 35 40 96 35 40 96 35 40 96 35 40 96 34 39 95 35 40 96 35 40 96 35 40 96 35 40 96 35 40 96 35 40 96 35 40 96 35 40 96 35 40 96 35 40 96 35 40 96 35 40 96 35 40 96 35 40 96 35 40 96 34 39 95 35 40 96 35 40 96 35 40 96 35 40 96 34 39 95 35 40 96 35 40 96 35 40 96 33 39 91 28 32 77 28 32 77 33 39 91 35 40 96 35 40 96 35 40 96 35 40 96 35 40 96 35 40 96 35 40 96 35 40 96 35 40 96 35 40 96 35 40 96 35 40 96 36 41 97 35 40 96 35 40 96 35 40 96 35 40 96 36 41 97 35 40 96 36 41 97 35 40 96 35 40 96 35 40 96 
35 40 96 35 40 96 35 40 96 35 40 96 35 40 96 35 40 96 35 40 96 35 40 96 35 40 96 35 40 96 35 40 96 36 41 97 34 39 94 35 40 96 35 40 96 35 40 96 35 40 96 35 40 96 35 40 96 35 40 96 35 40 96 35 40 96 35 40 96 35 40 96 36 41 97 35 40 96 35 40 96 35 40 96 35 40 96 36 41 97 35 40 96 35 40 96 35 40 96 35 40 96 35 40 96 35 40 96 30 34 82 28 32 77 30 34 81 35 40 96 35 40 96 35 40 96 35 40 96 35 40 96 35 40 96 35 40 96 35 40 96 35 40 96 35 40 96 35 40 96 35 40 96 35 40 96 35 40 96 35 40 96 35 40 96 35 40 96 35 40 96 34 39 95 35 40 96 34 39 95 35 40 96 35 40 96 35 40 96 35 40 96 36 41 97 35 40 96 36 41 97 35 40 96 35 40 96 36 41 97 35 40 96 35 40 96 35 40 96 33 39 91 28 32 77 28 32 77 33 39 91 35 40 96 35 40 96 35 40 96 35 40 96 35 40 96 35 40 96 35 40 96 35 40 96 35 40 96 35 40 96 35 40 96 35 40 96 35 40 96 36 41 97 35 40 96 35 40 96 36 41 97 35 40 96 35 40 96 35 40 96 35 40 96 35 40 96 35 40 96 
35 40 96 35 40 96 35 40 96 35 40 96 35 40 96 34 39 95 35 40 96 35 40 96 35 40 98 35 40 96 35 40 96 36 41 99 35 40 96 35 40 95 35 40 96 35 40 96 35 40 96 35 40 96 35 40 96 35 40 96 35 40 96 35 40 96 35 40 96 35 40 96 35 40 96 35 40 96 35 40 96 35 40 96 35 40 96 35 40 96 35 40 96 35 40 96 35 40 96 35 40 96 35 40 96 35 40 96 30 34 82 28 32 79 30 34 81 35 40 96 35 40 96 35 40 96 35 40 96 35 40 96 35 40 96 35 40 96 35 40 96 35 40 96 36 41 97 35 40 96 35 40 96 35 40 96 35 40 96 35 40 96 35 40 96 35 40 96 35 40 96 35 40 96 35 40 96 35 40 96 35 40 96 34 39 95 35 40 96 35 40 96 35 40 96 35 40 96 34 39 95 35 40 96 35 40 96 35 40 96 35 40 96 35 40 96 35 40 96 33 39 91 28 32 77 28 32 77 33 39 91 35 40 96 35 40 96 35 40 96 35 40 96 35 40 96 35 40 96 35 40 96 35 40 96 35 40 96 35 40 96 35 40 96 35 40 96 35 40 96 36 41 97 35 40 96 35 40 96 36 41 97 35 40 96 35 40 96 35 40 96 35 40 96 35 40 96 35 40 96 
35 40 96 35 40 96 35 40 96 35 40 96 35 40 96 35 40 96 35 40 96 35 40 96 35 40 96 35 40 96 35 40 95 34 39 95 35 40 98 35 40 96 35 40 95 35 40 96 35 40 96 35 40 96 35 40 96 35 40 96 35 40 96 35 40 96 35 40 96 35 40 96 35 40 96 35 40 96 35 40 96 36 41 97 35 40 96 35 40 96 35 40 96 36 41 97 35 40 96 35 40 96 35 40 96 35 40 96 30 34 81 28 32 77 30 34 82 35 40 96 35 40 96 35 40 96 35 40 96 35 40 96 35 40 96 35 40 96 35 40 96 35 40 96 35 40 96 35 40 96 35 40 96 35 40 96 35 40 96 35 40 96 35 40 96 35 40 96 35 40 96 35 40 96 35 40 96 35 40 96 35 40 96 36 41 97 35 40 96 35 40 96 34 39 95 35 40 96 35 40 96 35 40 96 35 40 96 35 40 96 35 40 96 35 40 96 35 40 96 33 39 91 28 32 77 28 32 77 33 39 91 35 40 96 35 40 96 35 40 96 35 40 96 35 40 96 35 40 96 35 40 96 35 40 96 35 40 96 35 40 96 35 40 96 35 40 96 35 40 96 35 40 96 35 40 96 35 40 96 35 40 96 35 40 96 35 40 96 35 40 96 35 40 96 35 40 96 35 40 96 
35 40 96 35 40 96 35 40 96 35 40 96 35 40 96 35 40 96 35 40 96 35 40 96 35 40 96 35 40 96 35 40 96 35 40 96 35 40 96 35 40 95 35 40 96 35 40 98 35 40 96 35 40 96 35 40 96 35 40 96 35 40 96 35 40 96 35 40 96 35 40 96 35 40 96 35 40 96 34 39 95 35 40 96 35 40 96 35 40 96 35 40 96 35 40 96 35 40 96 35 40 96 35 40 96 35 40 96 30 34 81 28 32 77 30 34 82 35 40 96 35 40 96 35 40 96 35 40 96 35 40 96 35 40 96 35 40 96 35 40 96 35 40 96 35 40 96 35 40 96 35 40 96 35 40 96 35 40 96 35 40 96 35 40 96 35 40 96 35 40 96 36 41 97 35 40 96 36 41 97 35 40 96 35 40 96 35 40 96 36 41 97 36 41 97 35 40 96 35 40 96 35 40 96 36 41 97 36 41 97 35 40 96 35 40 96 35 40 96 33 39 91 28 32 77 28 32 77 33 39 91 35 40 96 35 40 96 35 40 96 35 40 96 35 40 96 35 40 96 35 40 96 35 40 96 35 40 96 35 40 96 35 40 96 35 40 96 35 40 96 35 40 96 35 40 96 35 40 96 35 40 96 35 40 96 35 40 96 34 39 95 35 40 96 36 41 97 35 40 96 
35 40 96 35 40 96 36 41 97 35 40 96 35 40 96 35 40 96 35 40 96 35 40 96 35 40 96 35 40 96 35 40 96 35 40 95 35 40 98 35 40 96 35 40 96 35 40 96 35 40 96 35 40 96 35 40 96 35 40 96 35 40 96 35 40 96 35 40 96 35 40 96 35 40 96 35 40 96 35 40 96 35 40 96 35 40 96 37 42 98 35 40 96 35 40 96 35 40 96 35 40 96 35 40 96 35 40 96 30 34 81 28 32 77 30 34 81 35 40 96 35 40 96 35 40 96 35 40 96 35 40 96 35 40 96 35 40 96 35 40 96 35 40 96 35 40 96 35 40 96 34 39 95 34 39 95 35 40 96 35 40 96 35 40 96 35 40 96 35 40 96 35 40 96 35 40 96 35 40 96 35 40 96 36 41 97 35 40 96 35 40 96 35 40 96 35 40 96 35 40 96 35 40 96 35 40 96 35 40 96 35 40 96 35 40 96 35 40 96 33 39 91 28 32 77 28 32 77 33 39 91 35 40 96 35 40 96 35 40 96 35 40 96 35 40 96 35 40 96 35 40 96 35 40 96 35 40 96 35 40 96 35 40 96 35 40 96 35 40 96 35 40 96 35 40 96 35 40 96 35 40 96 35 40 96 35 40 96 34 39 95 35 40 96 36 41 97 35 40 96 
35 40 96 35 40 96 35 40 96 35 40 96 35 40 96 35 40 96 35 40 96 35 40 96 35 40 96 35 40 95 35 40 96 35 40 95 35 40 98 34 39 95 35 40 96 35 40 96 35 40 96 35 40 96 35 40 96 35 40 96 35 40 96 35 40 96 35 40 96 35 40 96 35 40 96 36 41 97 35 40 96 35 40 96 35 40 96 35 40 96 35 40 96 35 40 96 35 40 96 35 40 96 35 40 96 35 40 96 30 34 81 28 32 77 30 34 82 35 40 96 35 40 96 35 40 96 35 40 96 35 40 96 35 40 96 35 40 96 35 40 96 35 40 96 35 40 96 35 40 96 35 40 96 35 40 96 35 40 96 35 40 96 35 40 96 35 40 96 35 40 96 35 40 96 35 40 96 35 40 96 35 40 96 34 39 95 35 40 96 35 40 96 35 40 96 35 40 96 35 40 96 35 40 96 35 40 96 35 40 96 35 40 96 36 41 97 35 40 96 33 39 91 28 32 77 28 32 77 33 39 91 35 40 96 35 40 96 35 40 96 35 40 96 35 40 96 35 40 96 35 40 96 35 40 96 35 40 96 35 40 96 35 40 96 35 40 96 35 40 96 35 40 96 35 40 96 35 40 96 35 40 96 35 40 96 35 40 96 35 40 96 35 40 96 35 40 96 35 40 96 
35 40 96 35 40 96 34 39 95 35 40 96 35 40 96 35 40 96 35 40 96 35 40 96 35 40 98 35 40 96 35 40 96 35 40 96 35 40 96 35 40 96 35 40 95 35 40 96 35 40 96 35 40 96 35 40 96 35 40 96 35 40 96 35 40 96 35 40 96 35 40 96 35 40 96 36 41 97 35 40 96 35 40 96 35 40 96 35 40 96 35 40 96 35 40 96 35 40 98 35 40 96 35 40 96 35 40 96 30 34 81 28 32 77 30 34 82 35 40 96 35 40 96 35 40 96 35 40 96 35 40 96 35 40 96 35 40 96 35 40 96 35 40 96 35 40 96 35 40 96 36 41 97 36 41 97 35 40 96 35 40 96 35 40 96 35 40 96 35 40 96 35 40 96 35 40 96 34 39 95 35 40 96 35 40 96 35 40 96 35 40 96 35 40 96 35 40 96 35 40 96 35 40 96 35 40 96 35 40 96 35 40 96 35 40 96 35 40 96 33 39 91 28 32 77 28 32 77 33 39 91 35 40 96 35 40 96 35 40 96 35 40 96 35 40 96 35 40 96 35 40 96 35 40 96 35 40 96 35 40 96 35 40 96 35 40 96 35 40 96 35 40 96 35 40 96 35 40 96 35 40 96 35 40 96 35 40 96 35 40 96 35 40 96 35 40 96 35 40 96 
