P3
100 50
255
9 20 66 14 22 71 12 20 67 11 19 66 8 21 65 12 22 71 11 21 70 14 22 71 10 20 69 37 37 109 31 35 99 11 21 70 13 21 70 12 23 69 10 23 68 9 20 66 10 21 67 10 21 67 12 20 67 9 22 67 12 24 66 11 23 65 11 25 64 11 24 66 10 30 65 10 30 63 9 32 63 9 32 64 8 31 65 25 47 84 8 73 69 4 75 67 7 72 64 11 44 63 14 35 62 10 42 57 11 45 57 15 45 55 18 47 55 18 46 57 18 46 57 18 46 57 18 46 57 21 48 55 26 51 58 32 79 61 33 94 63 38 94 65 36 79 62 44 66 63 44 70 61 47 70 62 47 70 62 49 72 62 61 82 63 88 102 67 92 107 68 93 105 69 88 102 67 60 81 62 45 68 62 42 62 60 42 64 61 41 61 59 48 69 60 82 96 70 88 103 70 47 65 65 30 45 66 26 40 66 25 40 63 20 33 67 15 31 65 9 29 64 8 28 63 6 26 61 6 21 60 9 24 63 7 22 61 3 18 61 3 18 61 2 20 60 2 20 60 2 20 60 2 19 62 3 20 63 4 21 65 4 21 65 3 20 64 3 22 64 3 20 66 3 21 69 4 22 70 1 23 70 1 22 69 1 23 72 4 28 74 2 31 75 4 33 77 2 30 77 
7 18 63 12 20 67 9 20 65 8 19 64 7 18 63 10 21 67 8 21 66 12 20 67 8 19 64 35 36 103 29 33 96 8 21 66 11 19 66 11 19 66 11 19 65 7 18 64 6 17 62 6 19 63 9 20 65 8 19 64 9 22 66 8 23 62 7 22 61 8 23 62 7 26 59 6 29 60 10 30 63 8 31 63 8 31 62 8 57 62 8 75 68 5 77 66 10 59 63 9 32 63 9 34 64 3 38 57 2 39 57 2 39 55 12 44 55 19 46 55 19 47 58 18 46 57 17 47 57 18 47 55 17 46 54 19 66 58 21 97 61 37 93 64 52 96 61 66 86 61 45 71 62 47 70 62 46 69 61 47 70 62 45 70 64 51 75 62 75 94 66 93 105 69 92 106 70 92 103 69 74 93 65 47 68 61 45 66 61 42 62 61 37 58 59 65 79 64 92 107 68 65 77 65 30 45 66 25 40 61 25 40 63 22 36 62 16 32 55 16 32 58 7 27 60 9 28 60 7 26 58 7 26 59 5 24 57 2 21 54 2 20 56 2 21 54 3 22 54 3 22 54 2 21 54 5 20 59 5 20 61 2 19 62 3 21 61 3 20 63 2 21 64 2 21 64 2 20 66 3 24 67 3 24 69 2 27 68 3 28 69 3 30 75 4 31 76 4 31 76 
9 20 65 14 22 71 11 19 66 11 19 66 8 19 64 13 21 70 12 20 69 13 21 70 10 20 69 37 37 107 33 34 99 12 20 67 13 21 70 13 21 70 13 21 70 9 20 66 10 21 67 10 21 67 10 21 66 10 22 64 12 23 68 11 23 65 11 25 64 11 23 63 7 30 62 8 31 63 8 31 63 11 30 63 9 36 65 4 69 61 5 75 67 6 73 66 12 45 62 8 31 63 8 31 63 6 34 58 5 35 59 3 39 55 4 40 54 5 43 56 16 46 57 20 48 59 18 46 57 19 47 58 18 46 57 15 52 58 14 99 58 24 95 63 39 96 63 93 107 58 75 95 60 50 74 61 47 70 62 46 69 61 44 69 63 48 69 62 46 69 61 58 81 63 87 103 67 94 106 68 91 106 67 82 97 66 54 77 61 42 62 60 35 59 59 63 79 66 94 106 70 63 79 66 27 42 61 25 40 61 26 41 64 21 38 58 18 33 54 16 31 54 12 27 56 12 26 53 9 24 55 9 24 55 4 23 55 2 21 53 2 21 54 4 23 56 1 20 53 2 22 55 3 22 54 2 21 54 4 23 56 5 23 63 6 21 60 2 19 62 3 20 63 3 20 64 3 22 65 4 21 65 4 22 68 3 31 68 4 29 69 2 30 69 3 31 71 4 31 74 
8 19 64 12 20 69 10 18 64 11 19 65 7 18 63 12 20 67 12 20 67 13 21 70 9 20 65 37 37 107 32 33 98 9 20 66 11 22 68 10 20 69 10 21 67 7 18 63 8 19 64 8 19 64 9 20 65 10 23 65 11 24 66 10 23 65 8 23 62 8 24 60 7 27 60 8 31 62 8 31 63 8 31 63 6 43 61 5 75 65 6 76 66 5 66 61 6 31 61 6 31 61 7 31 59 4 35 56 3 34 55 4 37 56 1 36 55 2 38 54 5 41 55 7 44 53 16 46 56 17 45 56 19 46 57 21 45 57 12 88 60 14 99 58 26 96 60 90 103 59 92 106 55 87 103 58 61 83 62 46 69 59 47 70 62 44 69 63 47 70 62 47 70 62 50 73 63 78 94 67 93 105 69 91 106 67 89 103 67 62 80 64 37 58 61 61 80 61 93 106 60 65 83 59 29 47 61 25 42 60 24 41 61 21 36 57 18 34 57 17 31 57 14 28 54 14 25 53 10 25 54 9 24 55 4 23 53 1 21 54 3 22 54 2 23 54 2 22 55 2 21 53 2 21 54 2 21 54 1 22 53 3 23 56 4 25 56 3 23 58 4 22 60 2 21 63 2 21 63 3 22 65 3 22 65 3 24 67 3 33 69 4 34 68 3 33 67 3 33 71 
6 18 60 9 20 66 7 18 63 6 19 64 7 19 61 9 20 65 11 22 68 12 20 67 10 18 64 35 36 103 30 31 95 8 19 64 9 20 66 9 20 66 9 20 66 6 18 60 8 19 65 6 18 60 8 20 62 7 23 59 7 25 63 7 22 61 7 23 59 8 23 62 4 27 58 7 30 61 6 29 60 4 29 60 7 50 57 5 73 60 7 74 67 3 52 56 4 32 54 3 31 53 3 33 57 3 34 55 3 34 54 2 35 54 4 37 56 2 37 56 3 39 53 4 40 56 4 42 55 17 47 58 18 46 57 18 47 55 14 82 59 13 98 57 15 94 65 33 81 103 80 99 69 93 105 57 92 104 58 75 92 60 48 71 63 46 69 61 46 69 61 46 69 61 44 69 63 48 71 61 63 82 63 86 101 68 93 105 67 91 104 60 65 85 60 57 80 60 93 105 57 68 84 58 31 48 56 23 47 57 19 46 57 16 46 57 19 34 53 15 31 54 15 29 55 13 27 54 12 27 56 10 26 59 1 24 55 3 22 54 3 22 54 2 22 55 4 23 56 2 21 54 2 22 55 3 24 53 2 25 56 4 25 56 2 26 54 4 25 54 3 23 56 3 20 63 3 20 63 3 22 64 2 21 64 3 21 67 3 26 67 2 30 67 4 34 68 4 34 68 
7 18 63 9 19 68 7 18 63 8 19 64 6 17 62 11 19 68 11 19 66 12 20 67 10 18 64 35 36 103 29 33 96 9 20 66 10 21 67 10 21 67 11 19 66 7 19 61 8 19 64 6 17 62 9 22 66 6 21 60 10 24 63 9 23 62 7 22 61 5 23 61 6 29 60 6 29 60 7 30 61 5 31 58 4 59 56 4 70 58 3 73 63 3 45 57 3 34 55 4 32 54 4 32 54 3 31 55 2 32 56 4 32 54 3 36 55 4 35 55 4 37 56 2 38 54 3 40 56 4 42 55 16 46 56 18 46 57 14 79 57 13 98 57 15 97 59 7 68 113 10 71 134 55 91 87 92 105 59 93 105 57 85 100 59 58 79 62 43 68 62 45 68 60 44 69 63 42 64 61 38 60 58 45 68 60 74 91 55 92 105 59 92 103 60 84 100 61 92 106 55 70 89 61 31 48 56 25 47 58 19 48 56 18 45 56 18 35 55 17 32 55 15 29 55 15 26 54 7 27 54 12 27 56 3 24 55 3 22 54 2 23 54 3 22 55 4 23 55 1 20 52 3 22 55 4 23 55 2 22 55 3 24 55 1 24 55 3 24 55 3 24 55 3 23 56 3 23 56 4 24 61 2 24 63 4 23 63 5 24 66 4 27 68 4 35 66 3 33 67 
8 19 64 13 21 68 11 18 64 11 19 66 8 19 64 10 21 67 12 20 67 12 20 67 9 20 65 34 35 102 31 32 96 9 20 65 12 20 67 10 21 67 13 21 68 7 18 63 8 19 65 8 19 64 8 21 63 9 25 61 11 25 64 9 22 64 6 24 60 4 23 56 5 29 57 5 28 59 5 28 59 6 32 57 4 63 59 3 69 55 5 71 61 2 38 54 3 31 55 3 31 55 3 31 53 5 31 56 4 30 53 1 31 55 4 32 54 3 34 55 3 36 55 2 38 54 3 38 57 3 40 56 6 44 55 18 46 57 13 59 56 15 97 57 13 98 57 12 77 69 3 65 140 4 72 137 34 92 78 58 100 60 45 97 59 35 94 66 37 94 62 37 93 64 35 94 62 36 79 62 37 70 61 36 61 58 35 59 59 50 72 59 87 102 59 93 105 59 93 105 57 79 95 59 28 48 57 23 47 57 18 46 57 19 46 57 19 34 55 18 33 54 15 31 54 12 28 53 7 28 55 3 31 53 3 27 55 3 24 55 2 23 54 3 24 55 3 24 55 2 23 54 1 24 55 2 25 56 2 26 54 4 25 56 4 25 56 2 26 54 3 27 55 1 29 53 3 29 54 3 29 54 7 32 62 6 29 60 6 29 61 5 31 64 3 33 69 4 33 67 
9 20 66 14 20 70 12 20 67 13 21 68 12 20 66 13 20 72 14 22 71 14 22 71 13 21 70 37 37 109 32 33 97 12 20 67 11 21 70 14 22 71 14 22 71 10 21 67 10 21 67 10 21 67 12 23 68 11 25 64 12 24 66 10 24 63 10 26 62 9 28 61 7 30 61 7 30 62 7 30 62 7 32 62 6 68 63 5 75 65 4 70 60 5 37 58 5 31 56 1 31 55 2 30 54 3 29 54 4 28 54 3 31 55 3 31 53 4 32 56 3 34 55 3 34 52 5 36 56 2 38 54 4 44 54 10 44 56 15 57 56 13 98 57 15 97 59 11 80 59 13 69 106 12 94 58 12 97 58 12 97 56 14 96 56 25 96 62 34 95 62 28 95 62 35 94 64 37 94 62 35 94 64 41 75 61 35 59 59 37 58 59 37 58 59 67 87 62 93 105 59 86 103 59 18 46 57 19 47 58 20 47 56 19 47 58 13 39 56 9 36 55 4 35 55 5 33 55 1 32 53 4 32 54 2 30 54 4 25 54 1 25 53 3 27 55 3 27 55 3 27 53 2 28 55 3 27 55 3 27 53 2 28 55 3 27 53 1 27 52 3 29 54 2 28 51 3 29 56 2 28 53 5 31 56 7 28 55 4 31 58 6 31 61 3 34 65 3 33 69 
11 19 65 13 21 68 9 20 65 10 21 67 11 19 66 13 21 70 13 21 68 13 21 70 12 20 69 35 36 103 29 33 94 9 19 68 13 21 70 13 21 70 13 21 70 10 18 65 9 20 65 9 20 65 10 23 65 10 24 63 11 22 67 10 24 61 8 26 62 6 24 60 8 28 61 8 29 60 5 28 59 8 34 61 3 66 57 3 69 57 4 67 56 4 35 56 3 31 55 3 31 55 1 29 53 3 29 54 2 28 53 3 29 54 3 31 55 1 32 53 5 33 55 3 34 54 4 37 56 5 38 57 3 41 54 3 43 55 16 44 56 11 85 58 14 96 58 14 94 57 9 75 63 15 97 57 15 97 59 12 97 56 15 97 57 15 97 57 20 96 58 17 97 58 16 96 57 15 97 57 15 97 59 24 95 61 35 64 59 35 60 57 37 58 59 35 60 57 93 105 57 94 106 60 21 48 57 19 46 57 18 47 55 19 46 57 9 41 56 2 38 54 2 38 54 4 37 56 5 33 57 2 32 58 2 30 54 4 28 54 2 28 53 3 29 54 3 29 54 3 29 54 4 30 55 3 29 54 3 29 52 3 29 56 2 30 54 2 27 57 3 29 54 4 30 53 4 30 55 4 30 55 3 31 55 3 31 55 2 33 54 4 32 54 4 31 58 5 30 60 
9 20 66 14 22 71 9 20 66 12 20 67 8 19 64 14 22 71 11 22 68 14 22 71 12 20 67 35 38 105 33 34 98 11 22 68 14 22 71 14 22 71 14 22 71 12 20 67 12 20 67 10 21 67 11 22 67 11 23 65 12 23 68 10 23 65 10 26 62 8 24 60 7 30 62 7 30 61 6 29 61 9 37 61 8 71 60 4 70 58 3 66 57 5 33 55 3 31 52 3 31 53 3 29 54 3 27 53 3 27 53 1 29 53 1 29 53 2 30 52 4 32 54 3 34 54 2 35 54 4 37 56 4 42 55 4 42 55 3 43 55 8 77 58 14 96 56 14 94 57 13 71 57 12 97 58 14 96 58 13 76 59 13 66 58 13 81 58 11 71 59 14 67 59 12 68 59 13 78 56 15 97 57 16 98 58 19 73 60 37 58 59 33 57 59 19 47 58 88 104 59 92 106 57 28 53 57 19 48 56 17 46 54 16 46 57 3 39 55 2 37 56 5 36 56 1 34 53 1 32 53 4 32 54 4 30 55 3 27 53 2 26 54 3 27 53 2 26 52 3 27 53 3 27 55 3 27 55 3 27 53 3 27 55 1 27 54 2 26 54 3 27 55 2 28 53 2 26 52 3 29 54 2 28 53 2 30 54 3 31 55 3 31 53 5 33 57 6 33 60 
11 21 70 15 25 78 14 21 73 13 23 72 13 21 70 17 24 76 15 22 74 18 23 78 15 22 74 35 38 107 31 35 98 14 24 75 16 23 77 15 22 74 18 25 79 14 22 71 15 21 71 13 23 72 13 26 71 11 26 67 15 27 69 13 26 68 12 28 64 9 27 65 7 30 62 13 33 68 7 33 60 9 39 63 3 69 57 3 69 55 4 65 57 4 30 57 3 31 55 2 30 54 4 30 55 1 27 52 2 26 52 3 29 54 0 30 54 3 31 53 4 32 54 3 34 54 3 36 55 4 37 56 4 40 56 4 42 55 4 41 57 4 67 56 8 92 58 13 95 57 9 78 57 13 98 59 14 96 56 14 79 59 12 68 55 13 66 58 14 67 59 11 67 58 14 67 59 12 68 57 13 95 57 13 98 57 18 87 59 26 56 58 18 47 55 17 45 56 79 100 59 90 103 57 33 62 60 18 48 58 18 48 59 14 47 56 3 41 54 3 41 54 3 41 54 3 39 55 2 39 55 4 44 56 4 42 55 4 40 56 2 40 53 3 41 54 4 42 55 3 43 55 4 44 54 3 50 56 3 50 56 4 53 57 3 54 57 5 56 57 2 58 55 3 59 56 4 61 55 4 61 55 4 63 57 3 63 55 3 69 57 4 70 56 3 69 55 4 70 56 
46 43 122 48 44 129 48 45 124 48 45 126 49 46 127 49 46 127 48 44 128 49 45 129 47 43 128 54 48 134 53 49 134 48 46 129 51 46 130 49 45 129 49 45 129 48 44 128 48 44 128 50 46 130 47 45 128 46 45 123 48 47 127 48 47 125 45 47 122 45 47 122 45 47 121 46 48 122 44 48 119 39 49 108 9 70 62 4 70 58 5 65 57 4 32 56 3 31 55 3 31 53 3 29 54 3 27 55 3 27 53 3 29 54 3 31 55 3 31 53 4 32 54 3 34 54 2 35 54 3 36 55 3 39 55 4 42 55 3 43 55 4 56 54 6 90 56 13 98 56 12 80 57 10 89 57 15 97 57 12 77 57 10 62 60 13 66 58 14 65 58 14 65 58 11 67 58 9 64 58 14 84 58 13 98 57 17 97 60 21 78 61 10 73 56 14 78 54 31 97 61 32 91 59 12 85 58 6 80 57 8 77 58 8 75 58 4 76 56 3 76 56 3 74 56 5 69 55 3 69 57 3 71 56 4 70 56 6 70 56 4 70 56 3 71 56 4 70 56 3 69 55 4 70 56 4 70 56 3 69 55 4 70 56 4 70 56 4 70 56 5 71 57 4 70 56 4 70 58 4 70 56 3 69 55 2 70 55 5 69 55 4 70 58 3 69 55 4 70 56 
8 19 64 12 20 69 8 19 65 8 19 64 9 17 63 11 19 66 12 20 67 13 21 68 11 19 65 33 33 103 29 33 96 9 20 65 11 22 68 10 21 66 9 20 66 8 20 62 8 20 62 8 20 62 9 22 64 8 23 62 10 24 63 8 23 62 5 23 59 5 23 61 4 27 58 5 28 59 3 29 54 6 34 56 4 65 57 4 70 56 3 64 57 3 31 55 2 30 54 3 31 55 1 29 53 4 27 58 2 26 52 3 29 54 2 30 54 6 32 55 4 32 54 4 35 55 2 35 54 4 35 55 3 39 55 5 43 56 4 42 55 3 50 56 5 89 56 12 97 55 8 80 56 12 87 57 13 98 57 8 82 55 4 59 56 10 66 57 13 66 58 12 65 59 10 63 57 3 58 55 9 78 57 13 98 57 15 97 57 14 96 58 12 97 58 11 96 57 10 95 56 7 91 57 5 85 56 7 86 57 4 82 58 4 79 58 4 78 55 3 76 56 4 72 57 2 68 56 3 67 53 2 65 54 3 66 57 4 65 57 4 65 57 3 65 54 3 65 54 2 65 54 2 63 56 1 60 56 3 59 56 3 59 56 2 58 55 3 58 55 3 54 55 3 54 55 3 54 55 3 54 55 3 51 55 4 52 56 3 50 56 4 47 54 3 47 56 5 45 55 
12 20 66 14 22 71 9 20 66 12 20 67 12 20 67 10 20 69 13 21 70 14 22 71 10 21 67 35 36 103 33 34 99 11 22 68 13 21 68 14 22 71 11 21 70 9 20 66 9 19 68 10 21 66 11 23 65 11 23 63 12 24 66 10 23 65 7 27 60 8 24 60 6 29 60 7 30 62 6 29 60 7 33 60 3 66 58 3 69 55 3 66 55 3 34 54 3 31 53 3 31 53 0 28 52 2 28 53 4 28 56 2 28 53 4 30 55 3 31 53 4 32 54 3 36 55 2 35 54 4 37 56 4 37 54 4 42 53 3 43 55 3 46 55 3 86 56 5 96 53 4 87 57 7 79 57 15 97 57 12 88 58 4 55 58 4 59 56 5 62 56 4 59 56 3 58 55 3 58 55 4 65 57 11 96 57 15 97 57 13 78 56 13 62 56 11 60 57 10 59 56 6 56 55 5 53 55 6 49 55 6 49 56 5 48 55 7 47 55 5 45 57 4 42 55 2 39 55 4 37 56 3 35 56 3 34 54 3 31 53 3 29 54 2 28 55 4 28 54 2 26 52 3 27 53 2 28 53 4 28 56 2 28 53 3 29 54 2 28 51 2 30 54 2 28 55 2 28 51 3 29 54 4 30 53 2 28 53 2 30 54 4 30 55 4 32 56 3 29 52 
7 20 64 11 21 70 8 20 62 12 20 67 10 19 62 13 21 68 12 20 69 13 21 70 13 22 65 31 34 101 30 34 97 9 20 66 12 20 69 14 20 68 12 20 66 10 18 64 10 18 64 10 21 66 10 24 63 9 24 63 9 23 62 10 22 62 8 24 60 7 23 59 6 29 61 8 28 63 5 31 58 5 32 59 2 63 56 4 70 56 5 67 56 1 38 54 4 32 54 3 31 53 3 29 54 2 28 53 2 26 54 1 29 53 4 30 55 3 31 53 2 33 54 3 36 55 4 35 55 2 37 56 3 39 55 3 43 55 4 46 58 4 55 58 4 82 56 5 95 57 4 91 56 7 76 58 10 97 55 11 90 58 4 58 60 5 56 57 3 59 56 3 58 55 5 57 55 4 55 58 5 66 59 11 96 57 15 97 59 17 82 58 17 47 57 18 46 57 10 44 54 4 44 54 4 42 55 4 42 55 3 38 57 3 38 57 4 37 56 2 35 54 5 33 55 3 31 55 4 28 54 1 29 53 3 29 54 3 29 54 2 28 53 2 28 53 4 28 54 3 29 56 3 29 54 3 29 54 3 29 54 3 29 54 5 29 55 5 31 54 2 30 54 4 32 56 4 30 53 3 31 55 3 29 54 4 32 56 4 32 54 2 33 54 4 32 54 2 33 54 
8 21 66 13 21 68 11 19 66 10 21 66 9 20 66 12 23 69 13 21 68 14 22 71 12 20 69 34 34 104 29 34 98 13 21 68 14 20 72 14 22 69 14 20 68 12 20 67 12 20 67 10 21 67 11 22 67 10 24 63 12 25 67 10 23 65 8 24 60 7 25 61 6 29 60 8 31 62 6 29 60 7 33 58 5 61 58 4 70 56 5 68 57 5 41 57 3 31 55 3 31 53 3 31 53 3 29 54 5 26 55 1 29 53 3 29 54 4 32 54 3 34 55 3 36 55 4 35 55 2 37 56 2 38 54 3 43 55 5 45 55 3 70 53 3 88 57 4 96 57 3 93 57 3 74 56 2 97 55 4 91 56 4 60 57 3 57 57 4 59 56 5 56 57 4 55 58 3 54 57 2 58 55 11 90 58 11 96 55 8 89 56 4 49 55 6 42 54 6 42 56 4 42 55 3 41 54 2 39 55 3 39 55 2 38 54 4 35 55 3 34 54 2 33 53 3 29 52 3 27 53 2 28 53 3 27 53 3 27 55 3 27 55 2 28 53 2 28 53 3 29 54 2 28 53 3 27 53 3 27 53 3 29 54 3 27 53 3 29 56 3 29 54 3 29 54 3 29 54 3 29 52 3 29 54 3 31 53 4 30 53 3 31 55 2 30 54 4 30 55 
7 19 61 12 20 67 7 18 63 6 18 60 8 16 62 11 19 66 11 19 65 12 20 67 8 19 64 32 33 98 30 31 95 10 18 64 9 20 65 9 20 65 11 19 65 7 18 63 9 20 65 7 19 61 6 21 60 6 22 58 7 22 61 9 23 62 8 24 58 4 25 56 3 27 55 3 29 56 5 32 59 3 31 55 5 54 58 5 68 57 3 69 55 3 46 55 3 31 53 2 30 54 3 31 53 2 28 53 2 28 55 3 29 54 4 30 57 4 32 56 4 35 55 3 36 55 1 37 53 1 38 54 3 39 55 3 43 53 3 46 53 4 78 55 3 88 55 2 97 55 4 94 56 4 79 56 2 97 55 3 93 55 3 62 56 3 54 55 5 56 57 2 56 58 2 53 56 3 51 55 4 52 56 1 84 56 6 86 57 3 86 56 4 48 57 5 43 56 2 42 54 4 40 54 2 37 56 5 38 53 4 37 56 3 34 54 3 34 54 2 33 54 4 30 53 4 28 54 2 26 52 1 27 52 2 26 54 3 27 53 4 25 54 4 25 54 4 25 54 2 26 54 2 26 54 2 26 54 3 27 55 2 28 55 3 27 55 2 28 53 2 26 52 4 30 55 4 28 56 3 27 53 2 28 53 2 28 53 2 28 53 3 29 54 3 27 55 2 28 53 
7 18 63 13 21 68 7 18 63 8 19 64 8 19 64 12 20 67 10 21 67 12 20 67 10 18 64 32 33 98 28 32 95 10 18 64 9 20 66 10 21 67 9 20 66 8 19 64 8 19 64 7 18 63 8 21 63 7 23 57 11 23 63 8 22 61 5 23 59 5 24 57 2 26 54 4 30 55 4 30 53 4 30 55 3 48 54 2 70 55 4 70 56 4 52 56 2 30 54 3 31 53 3 31 53 3 29 54 3 29 54 2 28 51 4 32 54 4 32 56 5 33 54 3 36 53 3 39 55 2 38 54 3 39 55 5 43 56 3 75 55 3 87 54 4 89 56 3 95 56 3 95 56 4 82 58 4 94 56 2 94 55 4 63 57 4 53 57 4 55 58 4 52 56 3 50 56 4 49 55 4 49 55 3 78 55 4 87 59 6 86 57 2 50 54 3 41 52 2 39 55 4 37 56 4 35 56 2 33 53 2 33 54 4 32 54 2 30 52 2 28 53 1 27 52 4 25 54 1 24 55 3 24 55 3 24 55 4 23 55 4 23 55 3 22 54 2 23 54 3 24 55 2 23 54 1 24 55 0 23 54 3 24 55 4 25 56 1 25 53 5 26 55 2 25 56 3 27 53 3 27 53 2 26 52 2 28 53 3 27 53 1 27 54 4 25 54 2 26 54 
6 18 60 11 19 66 6 17 62 7 18 63 5 17 59 10 18 65 8 19 64 11 19 66 9 17 63 32 33 98 27 31 94 10 18 65 11 20 63 11 19 65 8 19 64 6 18 60 7 19 61 6 18 60 9 23 62 6 22 58 8 23 62 8 24 60 4 23 56 5 24 56 2 26 52 2 26 52 2 30 54 3 31 55 5 45 55 3 69 55 5 68 57 5 57 55 3 31 53 4 32 54 4 32 54 4 30 55 3 29 52 3 31 55 3 31 55 3 34 55 3 36 55 4 37 56 3 39 55 3 39 55 4 37 56 3 64 56 4 87 59 3 88 55 3 83 56 4 94 56 3 95 54 2 87 54 5 93 55 4 96 57 4 65 57 3 54 57 4 54 55 3 52 56 4 49 55 2 50 54 4 49 55 4 73 55 4 87 57 4 87 57 5 55 56 2 38 54 4 37 56 3 36 55 3 34 55 4 32 53 2 30 52 4 30 55 3 29 54 3 27 53 1 27 54 4 23 55 2 23 54 2 21 53 3 22 54 2 21 54 3 22 54 3 22 55 3 22 54 3 22 54 3 22 55 3 24 55 2 22 55 3 24 53 3 24 53 2 26 54 2 25 56 3 27 55 3 27 55 4 28 54 3 29 54 2 28 53 4 28 54 3 29 54 2 28 55 2 28 53 
7 18 63 13 21 68 10 18 64 8 19 64 9 17 63 11 19 66 12 20 66 12 20 67 9 20 66 32 33 98 31 32 96 10 18 64 12 20 69 11 19 66 10 21 67 6 17 62 8 19 64 8 19 64 8 21 63 8 24 60 9 23 62 6 24 62 5 24 57 7 23 57 2 25 56 5 28 59 4 30 55 4 32 56 1 38 54 6 69 58 4 70 56 1 60 54 4 32 54 2 32 56 4 32 54 2 30 54 4 28 52 2 30 54 3 31 55 4 32 54 3 36 55 3 38 57 4 37 54 3 39 55 3 41 54 3 83 54 4 87 57 3 86 56 5 60 55 3 93 57 5 97 56 1 91 56 4 94 56 4 96 55 5 71 57 4 53 57 3 54 57 3 52 56 5 50 56 4 48 57 2 49 55 4 65 57 4 87 57 3 86 56 4 59 54 6 39 58 3 36 55 3 36 55 4 32 56 3 31 53 2 30 52 3 29 54 2 28 53 3 27 53 2 26 54 3 24 55 5 21 54 3 22 54 3 22 55 3 22 55 3 22 52 3 22 54 2 21 53 4 23 55 3 22 54 3 24 55 4 25 56 3 24 51 4 25 54 2 26 52 4 28 54 4 28 54 3 29 54 3 29 52 3 29 54 3 29 54 3 29 52 3 29 54 3 29 54 3 29 52 
9 17 63 13 21 68 8 19 64 8 19 65 9 17 63 12 20 67 11 19 66 12 20 67 9 20 66 32 32 102 31 32 97 11 19 66 12 20 67 12 20 67 12 20 67 8 19 64 8 19 64 8 19 64 8 23 64 8 23 62 13 22 65 11 23 63 7 22 61 7 23 59 7 30 64 6 29 60 9 30 61 7 31 59 1 36 55 3 66 57 3 69 57 4 65 57 4 35 55 3 34 55 4 32 56 3 31 53 3 29 52 3 31 55 3 31 53 2 33 53 3 36 55 2 38 54 2 39 55 2 38 54 3 54 55 2 87 54 3 88 57 3 72 54 4 52 56 4 90 55 1 96 54 5 93 55 3 93 55 3 95 54 4 72 57 4 53 57 3 54 57 3 51 55 2 50 54 5 50 56 3 47 56 4 61 55 3 86 58 4 87 57 6 63 57 2 38 54 4 37 56 5 33 55 3 31 53 3 29 54 3 29 54 2 28 53 2 28 53 3 27 55 4 25 56 1 24 55 5 21 54 4 20 54 4 20 54 4 20 53 3 19 53 5 21 54 2 21 53 1 21 54 3 22 54 4 25 54 3 24 53 4 25 54 2 26 54 3 27 53 4 28 52 2 28 53 3 29 54 4 30 55 3 34 54 3 31 55 1 29 53 3 31 55 3 31 53 4 31 52 
10 18 64 13 21 68 8 19 64 8 19 64 7 18 63 12 20 67 10 21 67 12 20 67 11 19 65 32 33 100 30 34 97 10 18 65 12 20 67 11 19 66 12 20 67 8 19 64 8 19 64 8 19 64 8 23 64 7 23 59 11 25 64 8 22 61 8 22 59 8 22 59 4 29 59 5 28 59 5 29 57 5 33 55 4 35 56 2 63 55 3 69 57 4 65 57 3 39 55 4 35 55 2 33 54 5 33 57 2 30 52 4 30 53 3 31 53 3 34 54 4 37 56 4 40 56 5 41 55 3 39 55 3 69 55 6 87 55 4 87 57 3 58 55 3 52 56 4 87 57 3 95 54 1 96 54 4 96 55 3 95 54 3 74 56 5 54 58 3 54 57 3 50 56 5 50 56 4 49 55 2 49 55 3 52 56 5 83 57 4 88 55 5 62 55 3 39 55 3 36 55 4 32 56 4 32 54 3 29 54 2 28 53 2 28 53 4 28 54 2 26 54 3 23 56 1 20 52 4 20 53 3 19 52 4 20 54 4 20 53 4 20 54 2 21 53 2 21 53 3 22 54 3 22 54 3 24 53 2 23 52 2 25 56 2 26 54 4 28 54 3 29 54 2 30 54 4 30 55 3 46 55 3 71 58 5 57 55 3 36 55 5 33 57 2 33 54 4 32 54 
10 18 64 12 20 67 9 20 65 11 19 66 8 19 64 12 20 67 10 21 67 13 21 70 12 20 67 32 33 98 29 33 97 11 19 66 13 21 68 11 19 66 14 22 69 8 19 64 9 20 65 8 19 64 9 22 64 9 23 60 10 22 64 10 26 62 8 24 58 6 24 62 6 31 61 5 28 59 6 31 61 5 31 56 3 34 55 4 59 56 4 70 56 4 68 54 2 44 56 4 35 56 2 35 54 2 33 54 4 32 54 3 31 53 4 32 56 3 34 54 4 37 54 3 39 55 3 43 55 1 44 53 6 81 58 4 88 55 2 80 54 2 49 55 3 51 55 2 80 56 4 96 55 2 97 55 3 95 54 3 95 56 4 75 57 4 53 57 6 54 58 3 52 56 3 53 54 4 75 57 4 82 56 4 77 57 5 86 54 3 87 54 3 47 56 2 38 54 4 35 55 5 33 55 4 30 53 3 29 54 3 29 54 3 27 53 3 27 53 3 27 55 3 24 55 3 22 54 5 21 54 4 20 53 5 21 54 1 22 53 3 22 54 2 23 54 3 22 54 2 21 53 3 22 54 2 25 56 1 25 53 2 26 54 2 26 54 4 28 54 3 29 54 3 29 54 3 31 55 3 58 55 4 73 55 3 77 54 2 68 56 4 42 55 3 31 53 3 31 55 
9 18 61 12 20 67 9 17 63 10 18 64 9 17 63 12 20 67 12 20 66 11 19 66 9 20 65 32 33 98 31 32 96 10 18 64 12 20 66 11 19 65 10 21 66 8 19 64 8 19 64 8 20 62 8 20 60 8 22 59 9 23 60 7 25 61 7 23 57 5 24 57 5 28 60 5 29 57 4 30 55 5 33 55 2 33 54 6 56 55 4 70 58 6 70 56 3 51 55 4 35 55 3 34 54 3 34 55 5 32 53 5 33 55 4 32 56 3 34 54 2 38 54 4 40 54 2 42 50 4 52 56 3 87 54 3 86 56 4 72 59 4 49 55 3 52 56 4 72 57 4 95 54 4 96 55 3 95 54 4 96 57 3 78 55 4 54 55 3 54 55 3 52 59 3 52 56 4 84 57 2 87 56 4 87 57 5 85 56 3 87 54 3 51 55 2 37 56 3 36 55 3 34 54 4 30 53 2 28 53 2 28 53 3 27 53 1 25 51 3 24 53 3 24 55 6 21 54 3 19 53 4 20 54 3 19 53 5 19 54 4 20 53 4 20 54 3 19 52 4 20 53 4 23 55 3 24 55 3 24 53 3 24 53 2 26 54 3 27 53 2 28 55 3 29 54 2 30 54 4 59 56 3 69 55 3 63 55 3 71 56 3 69 57 3 51 53 4 32 56 
7 19 61 11 19 65 6 17 62 8 20 62 5 17 59 9 21 63 9 17 63 11 19 65 11 20 63 31 32 97 29 31 92 6 17 62 8 19 65 7 20 64 7 18 63 6 18 60 9 17 63 5 17 59 6 19 61 8 24 60 9 23 60 9 23 58 3 24 55 4 23 55 5 26 55 3 29 54 3 31 52 2 32 56 4 32 54 5 50 55 4 76 56 3 74 56 5 57 55 3 35 56 2 33 53 4 35 56 4 32 56 4 32 54 4 32 54 3 36 55 5 38 57 3 41 54 4 41 57 2 57 54 5 85 56 4 88 55 3 64 56 4 49 55 3 52 56 3 64 56 2 97 55 3 95 54 4 96 55 3 95 56 4 84 55 3 54 57 3 54 57 4 53 57 4 49 55 5 71 57 8 87 58 5 85 56 4 84 57 2 82 57 1 55 55 2 37 56 4 35 56 2 30 54 3 29 54 2 28 53 4 25 54 4 25 54 1 25 53 3 22 54 2 21 54 5 18 53 3 15 53 4 16 54 4 16 54 3 17 54 3 17 54 3 17 54 2 16 53 4 18 53 4 20 53 1 20 53 5 21 55 2 21 53 3 24 55 4 25 54 4 25 54 2 26 54 3 29 54 3 63 55 4 67 56 2 57 54 2 68 56 3 69 55 6 70 56 4 67 56 
6 18 60 11 22 68 7 18 63 7 18 63 7 19 61 9 20 65 9 20 65 9 20 65 8 19 64 31 32 97 30 31 95 8 19 64 11 19 66 8 19 65 9 20 66 7 18 63 7 18 63 7 19 61 8 20 62 6 22 58 10 24 59 7 26 59 6 22 56 5 25 58 2 26 52 6 29 60 4 32 54 2 33 54 4 32 54 10 43 60 3 78 57 4 78 55 3 65 54 3 36 55 5 36 54 3 36 55 3 34 55 3 34 55 3 34 55 1 36 55 5 38 55 3 41 54 4 42 55 3 59 56 3 86 56 5 85 56 3 63 55 2 49 55 4 53 57 4 58 58 5 93 55 4 96 55 4 97 53 4 96 55 4 87 57 4 55 56 4 53 57 3 52 56 4 49 54 4 66 55 3 88 55 4 79 56 5 74 56 4 84 57 4 61 55 1 37 53 3 34 52 2 30 52 2 28 53 2 26 52 3 24 53 1 24 56 2 23 54 3 22 54 3 19 53 3 17 52 3 15 53 3 15 53 3 15 53 3 15 53 2 16 53 3 17 54 4 18 55 4 18 53 4 20 53 2 21 54 3 22 54 3 22 54 1 25 53 2 26 54 2 26 54 2 28 53 4 30 55 3 62 58 3 69 55 3 69 55 5 69 55 5 65 57 4 67 56 3 69 57 
9 18 61 12 20 67 9 17 63 10 18 64 7 18 63 11 19 65 11 19 65 9 20 65 8 19 64 30 34 98 28 32 95 8 19 64 9 20 66 9 22 67 9 20 65 7 19 61 7 19 61 7 19 61 9 21 63 7 22 61 10 24 63 9 25 61 3 26 57 6 27 58 5 28 59 7 31 59 5 31 56 6 35 53 1 34 53 12 38 63 5 74 56 3 78 55 4 70 56 3 41 54 3 39 55 3 36 53 3 36 55 4 35 55 3 36 55 3 36 55 3 39 55 3 41 54 4 42 55 4 61 55 3 86 56 5 89 56 2 63 55 4 49 54 3 54 57 2 56 56 3 88 55 4 96 55 5 97 56 4 96 57 3 90 55 4 59 56 6 57 58 4 55 58 2 50 54 5 62 56 5 85 56 4 78 55 3 63 55 3 86 56 5 68 57 3 38 57 4 35 55 3 31 53 4 30 57 2 26 52 4 25 54 2 26 54 3 24 55 2 21 54 5 21 55 3 17 52 3 15 53 3 15 53 4 16 54 2 16 53 2 16 53 5 17 55 4 18 53 3 19 53 4 20 53 3 22 55 3 22 54 3 24 53 3 24 53 4 28 54 3 29 54 3 29 54 3 27 53 3 36 55 3 41 52 2 37 56 3 36 55 3 36 53 3 36 55 3 41 54 
12 20 67 12 22 71 12 20 67 12 20 67 11 19 65 13 21 70 13 21 70 13 21 70 13 21 68 31 34 101 31 35 96 10 21 67 14 22 69 14 20 68 12 20 69 9 20 66 11 19 65 9 21 63 10 21 67 10 23 65 11 24 66 9 29 62 8 29 60 8 28 61 8 29 60 6 29 61 8 29 60 6 31 61 6 34 55 14 33 65 15 65 66 4 78 55 5 74 56 4 44 54 3 39 55 4 37 54 3 36 53 4 35 55 2 35 54 4 37 54 2 39 55 3 43 53 3 43 55 4 64 56 5 85 56 4 88 55 3 63 55 2 50 54 3 54 57 2 56 56 5 77 57 4 96 55 4 96 55 4 96 55 4 91 56 4 63 57 3 58 55 4 55 56 2 49 55 4 56 52 2 85 55 5 85 56 5 61 58 3 86 56 1 79 57 3 38 57 4 35 55 3 31 55 3 29 52 3 27 53 1 25 51 3 24 53 3 24 53 3 22 54 4 20 53 4 18 53 3 17 54 2 14 52 4 16 54 2 16 53 3 17 54 4 16 54 4 18 53 4 20 54 3 22 54 2 21 54 3 24 55 2 26 54 2 26 52 2 28 53 2 28 53 3 31 53 2 30 52 3 31 53 3 34 55 5 33 55 4 35 55 3 34 55 2 34 55 4 32 54 
8 19 64 11 21 70 8 19 64 10 18 64 10 18 65 12 20 67 12 20 66 12 20 67 11 19 66 33 34 99 31 33 94 12 20 67 9 19 68 12 20 67 11 19 66 8 19 64 10 18 64 8 20 62 10 22 64 10 24 59 10 24 63 8 27 60 6 29 61 7 30 62 6 29 60 5 28 59 5 31 58 4 35 55 3 34 55 3 58 55 4 79 56 4 78 55 3 76 56 4 48 57 2 38 52 3 38 57 3 36 53 3 36 55 3 36 55 2 37 56 3 41 54 4 44 56 3 46 53 4 65 57 3 87 54 6 86 57 3 63 55 4 49 55 4 54 55 4 59 56 3 66 57 4 96 55 4 96 57 3 95 54 4 94 56 4 65 57 3 58 55 1 57 58 3 51 55 5 50 55 5 80 57 3 86 56 4 61 55 4 82 56 3 81 55 2 42 52 4 37 54 4 32 54 4 30 53 2 26 52 2 26 52 3 24 53 3 24 53 5 21 54 3 22 54 4 18 53 2 16 53 3 17 52 3 17 54 3 17 54 4 18 53 4 18 53 2 21 54 1 22 53 3 22 54 4 25 56 3 24 53 3 27 53 2 28 53 3 29 52 3 31 53 3 31 55 3 31 53 2 33 54 3 34 54 5 36 56 3 34 54 2 35 54 3 34 52 3 34 54 
9 20 65 14 22 71 12 20 67 12 20 67 11 19 65 13 21 70 11 22 68 11 21 70 12 20 67 32 33 98 32 33 97 12 20 67 13 21 68 13 21 70 14 20 68 10 18 64 11 19 66 10 21 66 10 21 66 11 24 66 12 25 67 10 30 63 8 29 60 6 29 61 7 30 61 7 30 61 6 30 58 6 32 57 4 41 57 5 76 58 3 82 60 3 81 57 4 81 61 4 59 56 4 42 55 2 38 54 4 37 56 5 38 55 6 37 57 3 39 55 3 41 54 2 44 56 3 48 54 2 63 55 4 88 55 4 84 55 3 63 55 3 48 54 3 54 57 3 58 55 5 60 57 4 90 55 4 96 57 3 96 52 3 95 54 4 73 55 5 56 57 5 56 57 4 53 57 5 50 56 3 76 56 3 86 58 4 67 56 5 80 57 4 84 57 4 47 56 3 36 55 4 32 54 3 29 52 4 28 54 2 26 54 3 24 53 5 24 54 2 21 53 4 20 53 4 18 53 5 18 53 4 18 55 3 17 54 2 16 51 4 18 53 3 19 53 2 21 53 3 22 54 3 24 55 2 26 52 2 28 53 3 29 54 3 29 56 3 31 53 3 31 53 3 34 55 4 35 55 3 36 55 4 40 56 5 53 55 3 62 56 5 67 56 4 67 56 4 67 56 
7 16 57 13 21 67 9 17 63 10 18 64 9 18 61 11 19 65 9 20 65 9 22 67 9 21 63 30 31 95 29 33 96 8 19 64 11 19 66 9 20 65 11 19 65 7 19 61 8 19 64 7 19 61 8 20 62 8 22 59 10 24 63 7 28 59 5 26 53 5 29 57 6 30 58 4 32 53 5 33 55 4 35 55 4 55 56 4 82 58 4 79 56 3 76 56 4 79 56 5 62 56 5 43 56 3 39 55 2 38 54 2 38 54 5 38 57 3 39 55 5 43 56 2 45 54 4 49 55 3 63 55 5 85 56 2 86 53 4 66 55 1 48 54 3 69 55 3 89 54 5 86 54 4 92 54 4 97 53 3 95 54 5 96 55 3 77 54 6 57 58 5 56 57 4 53 57 5 50 56 5 69 55 2 87 56 2 75 56 3 76 56 4 84 55 4 54 55 3 36 53 3 34 54 4 30 53 2 28 53 3 27 53 4 24 57 4 23 55 3 22 55 3 22 54 5 20 53 4 18 53 1 16 55 2 16 53 3 17 52 4 18 53 6 20 55 3 22 54 2 23 54 4 25 54 2 28 55 3 27 53 3 29 54 2 30 52 3 31 53 5 31 54 4 35 55 3 51 55 4 66 53 3 76 56 4 78 55 5 78 59 4 78 55 3 78 55 3 77 54 
43 41 116 46 43 120 42 39 116 43 41 116 43 40 117 45 42 119 44 41 118 45 42 119 44 41 118 51 43 128 54 46 129 45 41 117 46 42 119 46 42 119 45 42 119 42 42 116 44 40 117 43 41 116 43 42 118 41 41 113 46 44 119 42 42 114 40 43 114 41 41 113 43 51 113 44 50 110 44 50 110 41 50 109 15 72 66 4 82 60 5 80 57 5 80 60 5 83 59 4 72 57 5 43 56 3 43 53 3 40 56 2 38 54 2 38 52 6 39 56 4 42 55 4 44 54 4 49 55 4 61 54 3 87 54 3 87 54 4 70 56 2 52 53 4 94 56 2 97 57 2 97 55 1 96 54 3 95 54 3 95 54 4 96 55 4 83 54 3 58 55 4 55 56 3 52 56 3 54 57 5 60 54 4 90 55 3 76 56 4 72 57 3 86 56 4 61 55 4 37 54 4 35 56 3 31 53 3 29 52 3 27 53 2 26 54 3 24 53 3 22 54 3 22 54 4 20 53 5 19 54 3 16 51 4 17 52 6 20 55 5 21 54 4 21 51 2 21 51 3 27 55 3 27 53 3 29 54 4 30 55 3 29 54 4 32 54 2 35 54 4 52 56 3 72 54 4 77 57 3 78 57 2 77 56 5 71 57 4 66 55 3 63 55 3 63 55 3 59 56 
7 18 63 13 21 67 8 20 62 10 18 64 9 17 63 11 19 68 12 20 66 12 20 67 11 19 65 32 33 97 31 32 96 11 19 65 10 21 67 12 20 67 13 21 68 7 18 63 8 19 64 8 20 60 10 22 64 9 21 59 10 26 62 8 29 60 3 29 56 5 31 56 6 32 59 7 33 58 5 33 55 4 40 56 6 80 57 4 82 58 2 61 55 3 74 56 4 84 59 3 78 57 6 46 56 3 41 52 3 41 54 3 39 53 3 39 55 4 40 56 4 42 55 4 44 54 3 48 53 4 59 54 4 89 56 4 90 55 3 81 55 5 50 55 6 92 55 4 97 53 5 85 56 3 81 55 5 96 55 3 95 54 4 96 55 4 89 56 4 59 54 4 59 56 5 55 56 3 54 57 4 61 55 3 90 55 4 82 56 4 71 54 3 86 56 2 70 57 4 37 54 3 34 54 3 31 55 3 29 54 1 27 52 3 27 55 3 24 53 3 24 53 5 19 54 3 22 55 4 21 51 5 18 52 4 20 54 1 20 52 3 22 54 3 22 52 3 24 53 3 27 53 3 27 53 3 29 54 4 30 55 3 31 53 4 36 57 4 59 56 2 77 54 4 78 55 4 76 56 4 64 54 4 52 56 2 42 54 6 39 56 3 39 55 4 40 56 1 38 56 
12 20 66 14 22 69 12 21 64 12 20 66 11 19 65 13 21 68 13 21 68 14 22 71 14 22 69 32 33 100 33 34 98 11 19 66 12 20 69 13 21 70 11 22 68 8 19 64 12 20 66 10 22 64 11 22 68 11 23 61 13 25 65 9 29 62 5 28 59 7 30 61 6 29 60 6 32 59 5 36 56 5 50 56 6 81 58 5 80 59 5 53 57 4 72 57 4 82 58 4 82 58 3 51 55 4 42 55 4 42 55 3 40 56 4 40 54 4 42 55 4 42 53 5 45 55 3 47 56 5 55 54 4 90 55 3 90 56 4 82 56 3 51 55 5 85 56 2 94 55 4 80 54 4 59 54 3 88 55 4 96 55 4 94 56 1 91 55 4 61 55 5 57 55 4 55 56 3 53 54 5 57 55 4 91 57 5 89 56 4 67 56 6 86 57 4 75 57 2 38 54 4 35 53 3 31 52 4 30 55 4 28 54 3 27 55 4 25 54 3 24 53 3 22 55 5 21 54 2 21 53 4 20 54 5 20 53 4 20 54 2 21 53 3 24 53 1 25 51 3 27 53 2 28 53 3 31 55 2 33 54 4 37 56 5 67 56 5 77 55 3 76 56 4 66 55 4 47 54 3 39 53 5 41 55 4 42 55 3 41 54 3 41 52 4 42 55 4 41 57 
10 18 64 13 21 68 11 19 65 11 19 65 10 18 65 12 20 66 12 20 67 12 20 67 12 20 66 32 33 98 31 32 96 12 20 67 11 19 66 12 20 67 13 21 68 8 19 64 11 19 65 11 20 63 10 22 64 9 23 60 11 27 63 8 31 63 6 31 61 6 29 60 6 32 59 5 33 55 2 38 54 4 49 55 4 82 58 4 79 59 4 49 55 4 66 55 4 84 57 3 86 56 3 60 54 4 44 56 4 42 55 4 42 55 4 41 57 4 42 55 3 41 52 4 44 54 4 49 55 3 51 53 4 90 55 4 95 54 3 88 55 3 52 57 4 78 55 4 94 56 3 90 56 5 72 55 2 80 56 4 89 56 4 95 54 5 93 55 5 62 55 2 58 55 4 55 56 4 54 55 4 53 57 5 85 58 2 87 54 5 69 55 6 86 57 5 81 55 2 40 53 6 34 56 4 32 54 3 29 52 3 29 54 3 27 55 3 27 53 3 24 53 3 24 55 3 22 52 2 21 54 2 21 53 3 19 52 5 21 54 2 21 53 2 26 54 1 27 52 3 27 53 3 29 52 3 31 53 3 34 55 4 66 53 4 78 55 3 76 56 4 59 54 4 40 54 6 39 56 4 40 56 4 39 58 4 37 54 3 41 54 4 42 55 4 40 56 3 39 55 
11 19 66 14 22 69 12 20 67 11 19 66 11 19 65 13 20 72 13 21 68 13 21 70 12 20 67 33 34 99 32 33 98 12 20 66 13 21 70 13 21 68 14 20 68 11 19 65 11 19 66 10 21 66 10 23 65 14 23 64 12 27 66 10 30 63 6 29 60 7 30 61 6 29 61 7 33 60 2 38 54 2 49 55 5 83 61 6 80 57 5 48 54 3 58 55 5 85 56 3 86 56 3 69 55 4 42 55 4 42 53 4 42 53 5 41 55 2 42 52 4 42 53 2 44 56 3 48 54 3 48 53 3 87 54 3 96 52 4 92 54 4 55 56 3 88 55 3 95 54 4 96 55 5 97 56 5 96 55 3 95 54 4 94 56 3 95 56 4 65 57 6 58 56 3 58 55 3 54 57 4 53 57 3 81 55 3 88 55 4 70 56 3 86 56 5 84 55 4 44 54 2 37 56 2 33 54 4 31 52 3 29 54 2 26 52 3 27 51 3 27 53 3 24 53 4 23 55 2 21 53 5 21 55 2 20 56 4 23 55 3 24 53 2 26 54 4 28 54 4 30 55 2 30 52 5 33 55 2 58 55 4 78 55 4 76 54 4 59 54 5 38 55 4 42 55 3 41 52 5 41 53 3 41 54 3 43 55 4 42 55 4 42 55 4 42 55 3 43 55 
8 17 60 12 20 69 10 19 62 10 18 64 8 16 62 12 20 67 10 18 64 12 20 67 10 18 64 31 32 96 30 31 95 10 18 64 12 20 66 9 20 66 11 19 65 9 18 61 8 19 64 9 21 61 9 23 62 7 23 59 8 26 62 6 29 61 6 27 56 5 31 56 5 33 57 4 37 56 2 38 54 4 49 55 5 83 59 5 80 57 3 48 54 3 51 55 5 85 56 3 86 56 4 78 55 4 44 54 3 40 56 4 42 55 5 43 56 4 42 55 4 42 55 2 45 54 3 48 54 4 49 55 3 83 54 3 95 56 4 94 56 3 59 56 4 90 55 4 96 57 3 95 56 4 94 56 4 95 54 4 96 55 3 95 58 4 96 55 4 70 56 5 56 57 5 57 55 5 55 56 4 53 57 4 78 55 3 88 55 4 72 57 4 83 54 4 84 55 4 52 54 1 36 55 4 35 55 4 30 53 2 28 53 5 26 53 2 26 52 2 26 52 3 24 53 2 23 52 3 22 54 3 22 55 3 22 54 2 23 54 4 25 54 3 27 53 3 29 54 4 30 55 3 31 53 4 47 54 3 77 54 3 76 56 3 60 54 3 39 55 2 38 54 3 39 53 5 41 57 4 42 55 5 43 56 2 40 53 5 43 56 4 42 53 4 42 53 4 42 55 
7 19 61 12 20 66 9 18 61 9 18 61 8 17 60 10 18 64 10 18 64 10 18 64 10 18 64 31 32 97 30 32 93 10 18 64 10 18 64 10 18 64 10 18 64 9 18 61 9 18 61 9 23 62 9 23 62 8 22 57 7 27 60 7 30 61 7 28 57 4 32 54 3 34 54 2 38 54 2 38 54 3 50 56 4 82 60 5 81 55 3 48 54 5 48 57 3 78 55 5 86 54 4 82 56 4 49 55 2 42 52 4 42 55 3 41 54 4 42 55 5 41 55 2 45 54 3 48 54 4 49 55 3 76 56 3 95 56 3 95 54 3 64 56 3 83 56 3 95 56 3 95 54 5 93 55 4 91 56 3 86 56 3 93 55 4 95 54 5 77 57 5 57 55 5 57 55 3 57 57 3 54 57 5 72 54 4 92 54 3 76 56 4 78 55 3 87 54 3 58 53 3 36 55 5 33 54 3 31 53 2 28 53 1 27 52 3 27 53 1 25 51 3 24 51 4 25 54 3 23 56 4 23 56 3 22 54 2 23 54 3 27 53 4 29 51 3 29 52 3 31 55 4 35 55 3 74 56 4 77 58 3 65 54 2 38 54 3 41 54 4 42 55 4 42 55 4 42 55 4 42 55 4 42 55 4 42 53 4 42 53 5 43 54 3 43 55 3 43 53 
9 18 61 9 20 65 8 16 62 7 19 61 8 17 60 11 19 65 10 18 64 10 18 65 9 17 63 30 31 95 29 30 94 10 18 64 10 18 65 11 19 65 10 18 65 8 17 60 9 18 61 8 22 61 9 21 59 7 23 59 8 27 60 5 28 59 3 29 54 4 32 54 3 36 55 3 39 55 3 39 53 4 52 54 4 84 57 3 83 54 2 53 56 4 47 54 4 73 55 6 86 57 4 84 55 3 58 55 3 43 53 4 42 53 4 42 53 4 42 55 4 42 55 4 44 54 3 48 54 4 49 55 3 66 55 4 96 55 2 97 55 4 73 55 5 72 55 3 95 54 3 87 54 5 65 57 4 61 55 3 63 55 3 90 55 3 95 54 3 81 55 3 59 56 5 57 55 4 56 54 5 54 58 5 68 57 4 92 54 3 75 55 5 71 57 3 87 54 4 65 57 5 38 55 4 35 55 3 31 53 4 30 55 3 27 53 2 26 52 2 28 53 2 26 52 2 25 56 3 24 53 3 24 55 2 23 54 4 25 54 3 27 53 2 28 53 3 29 52 4 32 54 3 48 54 4 77 57 4 76 56 3 43 53 2 39 55 2 39 55 5 43 56 3 43 53 4 42 53 4 42 55 4 42 53 5 43 56 3 43 55 4 42 53 2 42 52 4 44 54 
8 17 60 13 21 68 10 18 64 10 18 64 9 17 63 12 20 67 11 19 66 11 19 66 10 18 64 31 32 97 30 31 95 10 18 64 12 20 67 11 19 66 11 19 66 11 19 65 10 18 64 9 23 62 10 24 63 8 24 60 8 31 62 7 30 61 7 31 59 6 32 57 4 35 55 2 40 53 4 42 53 5 50 55 5 85 58 4 84 55 4 75 57 1 74 57 5 80 57 1 86 55 5 85 56 4 68 54 5 45 55 5 43 54 5 43 54 4 42 55 5 43 54 4 44 52 4 49 55 4 49 55 6 58 54 4 96 55 3 95 56 4 84 55 3 66 55 3 95 56 4 91 56 3 83 54 5 86 54 4 88 55 3 95 56 4 94 56 4 89 56 4 59 54 5 57 55 5 57 55 2 53 54 3 64 56 6 90 56 3 81 55 3 74 56 3 86 56 4 73 55 2 37 56 6 34 55 5 31 56 3 31 55 2 28 53 3 27 55 2 28 53 2 26 52 2 25 56 1 25 53 1 25 53 3 24 55 3 27 55 2 28 53 3 29 52 4 30 53 4 35 56 6 68 55 4 77 57 4 72 57 4 68 54 4 68 54 3 67 53 5 68 57 4 68 54 4 68 54 2 68 54 4 68 54 4 67 56 2 69 52 5 68 57 4 68 54 4 67 56 
10 18 64 12 20 69 10 18 64 10 18 64 10 18 64 12 20 67 11 19 66 13 21 68 12 20 66 32 33 98 31 32 96 13 19 67 13 21 68 12 20 67 12 20 67 10 18 64 8 19 64 10 22 62 11 23 63 10 24 63 8 28 61 7 30 61 7 28 59 6 30 58 5 36 56 5 41 55 4 42 53 4 49 55 3 86 58 1 85 52 6 81 58 4 82 56 5 78 58 5 85 56 3 86 56 6 75 57 4 47 54 4 47 54 4 42 53 3 41 52 4 42 51 4 42 53 4 47 53 4 49 55 3 50 56 3 91 53 3 95 54 5 93 55 4 61 55 4 96 55 3 93 55 4 91 56 5 96 55 3 94 53 4 92 52 4 95 54 5 91 56 3 62 56 5 57 55 5 57 55 3 54 57 4 63 57 4 89 56 7 83 57 3 77 54 3 87 54 4 79 56 3 39 55 3 34 55 3 31 53 3 31 53 4 28 54 2 26 52 3 29 52 3 27 53 6 27 54 2 26 54 3 24 53 3 24 53 5 26 55 3 29 54 3 29 52 5 31 54 4 40 56 4 75 57 2 76 53 6 70 56 2 77 54 3 76 56 3 77 54 5 77 55 4 77 57 4 77 58 3 78 57 4 78 55 3 77 54 4 78 55 2 76 53 4 78 55 4 77 57 
7 15 61 11 19 65 9 17 63 9 18 61 9 18 61 10 18 64 11 19 65 11 19 66 10 18 64 31 32 96 30 31 95 10 18 64 10 18 65 10 18 64 10 18 64 7 19 61 7 19 61 8 22 61 8 22 61 6 22 58 8 29 60 6 29 61 5 31 58 3 33 57 5 38 55 3 40 56 3 43 53 5 48 55 4 84 57 4 84 55 2 80 54 5 85 56 3 81 55 5 85 56 5 85 56 5 81 55 3 51 55 3 46 55 3 46 53 3 43 53 4 42 53 4 42 53 3 43 53 3 48 53 3 48 51 3 81 55 3 93 55 4 95 54 4 67 56 4 91 56 4 94 56 5 92 57 5 95 57 4 95 54 5 91 56 3 95 54 6 92 55 3 65 54 5 57 55 5 57 55 6 56 57 3 59 56 3 90 56 3 88 55 3 78 57 6 86 57 5 84 55 3 43 53 5 36 56 4 32 54 4 32 54 3 29 54 3 27 53 3 29 52 3 27 55 3 27 53 2 26 52 3 24 53 1 24 55 4 25 54 3 29 52 3 29 52 3 31 53 4 52 56 2 77 54 2 68 54 3 76 56 4 76 56 3 76 56 5 77 57 3 77 54 3 77 54 4 78 53 4 78 55 2 77 54 3 76 56 3 76 56 4 78 55 4 78 55 3 77 54 
11 19 65 14 22 69 11 19 66 11 19 65 10 19 62 14 22 69 13 21 68 12 20 67 12 20 66 32 33 97 31 32 96 11 19 66 13 21 68 12 20 67 13 21 67 12 21 64 11 19 65 10 22 64 11 23 65 11 25 62 11 31 64 7 30 61 7 30 61 9 30 61 6 34 58 4 40 52 4 42 53 6 51 54 4 82 58 6 86 57 7 82 59 4 84 55 4 82 56 5 84 55 5 86 54 4 84 57 4 59 56 2 49 55 3 48 54 4 42 55 4 42 53 3 43 53 4 44 52 4 47 54 4 49 55 4 68 54 2 94 55 3 95 56 4 78 55 4 85 53 3 95 54 3 93 55 3 95 54 4 96 55 3 93 57 2 94 53 3 95 54 3 70 53 5 57 55 3 58 55 4 56 54 3 57 57 5 91 56 4 88 55 3 77 54 5 86 54 3 87 54 4 49 55 3 36 53 4 32 53 4 32 54 3 29 52 3 27 53 3 29 54 4 28 54 2 26 52 2 26 52 4 25 54 3 24 53 1 25 53 3 29 52 4 30 53 3 31 55 3 60 53 4 77 57 4 70 56 3 77 54 4 78 55 4 78 55 4 76 54 4 77 57 4 77 57 3 76 56 2 76 53 2 76 53 4 78 55 4 78 55 4 78 55 3 78 55 4 77 57 
9 18 61 12 20 66 9 18 61 8 20 62 9 18 61 12 20 66 11 19 65 11 19 65 10 19 62 31 32 96 31 33 94 10 18 64 9 20 65 8 19 64 9 20 65 7 19 61 8 19 64 8 22 59 8 22 61 9 23 60 8 28 61 7 28 59 3 29 54 4 32 56 3 36 55 4 40 54 5 55 56 5 79 56 5 85 56 3 86 56 4 79 56 5 85 56 5 86 54 3 81 55 3 86 56 5 85 56 3 69 57 3 48 53 3 48 53 5 43 56 3 41 54 2 42 54 3 43 53 5 45 53 3 48 53 4 56 54 4 94 56 4 95 54 4 84 55 5 79 54 2 94 53 6 92 55 4 95 54 4 95 54 3 94 53 4 94 56 3 95 54 5 74 55 5 56 57 5 57 55 5 57 55 5 55 56 2 88 53 4 89 56 4 78 55 6 82 54 5 85 56 4 54 53 6 37 55 2 33 54 3 31 55 4 28 54 3 27 53 2 28 51 1 29 53 4 25 52 2 26 52 2 26 52 3 27 53 4 28 54 2 28 53 3 29 52 4 32 54 4 67 58 5 77 55 2 71 53 4 78 55 4 77 57 4 78 55 3 77 54 4 78 55 5 77 55 4 78 55 5 77 55 4 78 55 4 77 57 4 77 57 4 77 57 4 77 57 3 76 56 
9 18 61 11 19 65 9 18 59 7 19 61 8 17 60 11 19 65 10 18 64 12 20 66 8 20 62 28 32 95 29 33 94 7 18 63 11 19 65 10 18 64 10 18 64 9 18 59 10 19 62 8 22 59 9 23 62 7 23 59 8 27 60 7 28 59 6 29 60 4 32 53 4 37 54 4 47 56 4 82 60 5 80 59 5 83 57 3 86 56 5 74 56 3 53 54 3 53 54 4 64 56 3 86 56 3 87 54 5 79 54 4 49 54 5 50 55 3 43 53 4 42 55 4 42 53 4 42 53 4 44 54 3 48 54 2 49 55 2 85 55 4 95 54 4 92 54 3 77 54 4 94 56 4 84 57 4 61 54 5 62 56 5 67 56 4 91 56 3 95 54 4 77 57 5 57 55 5 57 55 6 56 57 4 54 53 4 84 55 4 91 56 3 65 54 1 79 55 5 85 56 5 60 54 1 37 53 5 33 54 3 31 53 2 30 52 3 29 54 4 28 54 3 27 51 2 28 53 3 27 53 3 27 51 3 27 53 1 27 52 3 27 53 4 32 54 3 34 54 4 67 56 3 77 54 5 50 55 5 43 56 4 44 56 4 42 55 4 42 55 4 44 54 3 43 53 4 42 53 4 42 53 4 42 55 4 42 55 4 44 56 4 41 57 3 41 54 2 40 51 
8 17 60 12 20 66 9 17 63 6 18 60 8 17 60 10 18 64 10 18 64 11 19 65 9 17 63 31 32 97 30 32 93 10 18 64 10 18 64 11 20 63 10 18 64 8 17 60 9 21 63 8 22 57 9 23 60 6 22 58 8 29 60 6 29 60 4 30 57 5 33 54 3 36 55 4 66 55 5 83 59 3 74 58 5 71 57 4 85 53 4 77 57 3 48 53 3 48 54 5 55 56 4 84 57 3 86 56 4 83 54 4 52 52 3 48 53 4 44 54 4 42 53 6 44 55 4 42 55 4 42 53 3 48 54 4 48 57 3 69 55 4 95 54 3 94 53 4 83 54 3 95 54 4 91 56 4 64 56 2 57 54 4 61 55 4 91 56 4 95 54 4 82 56 5 57 55 3 58 55 3 58 55 4 54 55 3 81 55 3 93 57 5 67 56 4 70 56 5 85 56 4 70 56 4 37 54 4 35 55 3 31 53 3 29 54 3 27 53 2 28 51 2 28 53 3 27 53 4 25 54 2 26 54 2 26 52 3 27 53 4 28 54 2 30 52 2 33 53 4 68 54 5 77 57 4 44 54 4 37 56 5 38 55 3 36 53 3 39 55 4 37 54 3 39 55 4 37 54 4 37 54 5 38 55 4 37 54 5 38 55 4 37 54 4 35 55 3 36 55 
9 17 63 13 21 68 10 19 62 8 19 64 9 17 63 12 20 66 11 19 66 12 20 67 11 19 65 31 32 97 31 32 96 10 18 65 13 19 67 12 20 67 11 19 66 8 19 64 9 20 65 7 21 60 11 23 63 10 24 61 9 29 62 7 30 61 7 30 62 6 32 59 6 32 59 5 68 57 4 82 58 4 67 58 4 63 59 4 85 53 5 81 55 3 50 56 3 48 54 5 50 55 5 78 58 3 87 54 6 87 55 4 59 54 2 47 53 2 45 52 5 41 53 3 41 54 4 42 55 4 42 53 5 43 52 3 48 53 2 51 55 5 93 55 3 95 54 3 88 55 6 93 58 4 95 54 3 93 55 4 84 57 4 71 54 2 87 54 2 94 53 3 87 54 4 59 54 5 57 55 3 58 55 3 54 55 5 77 55 6 92 57 4 70 56 4 66 55 3 86 56 3 76 56 2 38 54 3 34 54 4 32 54 3 29 52 3 27 53 3 29 52 3 27 51 3 27 51 2 26 52 2 26 52 4 25 52 2 26 52 3 28 50 2 30 52 3 34 54 4 68 54 3 77 54 5 45 55 4 35 53 4 37 54 3 39 53 5 38 55 3 39 55 4 37 54 3 36 55 4 37 54 4 37 56 2 37 56 3 36 53 3 36 53 3 34 52 3 34 52 
9 17 63 14 22 69 10 18 64 10 18 64 10 18 64 13 21 68 12 20 67 12 20 67 12 20 66 31 32 97 32 33 97 10 18 65 13 21 68 12 20 67 12 20 67 9 18 61 10 22 64 10 22 62 11 23 61 10 24 61 10 30 63 9 29 62 8 28 61 7 30 61 7 31 59 5 68 57 7 82 59 7 69 58 5 53 57 4 84 55 5 86 54 3 58 53 3 48 54 4 49 54 5 68 57 3 87 54 1 84 54 3 69 55 5 43 54 4 42 53 4 42 53 4 42 55 4 42 53 4 42 55 4 42 53 4 47 56 5 48 55 3 69 55 4 89 56 5 91 56 4 76 56 5 83 57 3 93 55 3 95 54 4 95 54 4 95 54 4 94 56 4 90 55 4 61 54 3 58 55 3 58 55 3 54 57 5 74 55 4 94 56 4 76 56 3 60 54 5 86 54 4 82 58 4 40 54 5 36 56 3 34 54 3 29 52 3 29 54 2 28 51 3 27 53 2 28 53 4 25 52 4 25 54 4 25 52 2 26 54 3 29 54 3 29 54 3 31 53 3 64 56 4 76 54 4 49 55 3 34 54 4 37 54 1 37 53 4 37 54 2 38 52 5 38 55 5 38 55 4 37 54 5 38 55 2 38 54 3 36 53 3 36 55 4 35 56 4 35 55 
10 18 64 13 21 68 11 19 65 11 19 65 10 18 64 13 21 68 13 19 67 13 21 68 12 20 66 32 33 98 31 33 94 11 19 66 12 20 67 13 21 67 12 20 67 9 21 63 10 21 67 9 21 63 11 23 65 12 21 62 13 27 66 10 30 63 7 30 61 7 30 61 9 30 61 5 56 59 6 81 58 4 77 57 7 50 56 5 78 58 6 87 55 5 68 57 5 48 55 5 48 55 5 60 55 2 86 53 4 85 53 4 78 55 4 44 54 4 42 53 4 42 55 4 40 54 4 40 54 3 41 54 3 41 54 6 44 57 3 47 56 3 53 54 5 85 56 3 86 56 4 79 56 3 52 56 3 54 55 4 66 55 4 91 56 3 95 54 4 95 54 3 93 55 3 65 54 5 57 55 6 58 56 4 53 57 3 69 57 2 94 55 4 80 54 4 55 58 5 86 54 5 86 54 5 45 53 5 36 56 2 33 53 4 32 54 4 28 54 3 27 53 3 27 53 2 28 53 2 26 52 4 25 52 4 25 52 3 27 55 4 28 54 4 28 54 3 29 52 5 53 55 5 72 54 5 57 55 5 33 54 5 33 54 2 35 54 3 36 53 4 35 55 4 35 55 4 35 55 3 34 54 3 34 54 5 33 54 2 33 53 2 33 53 2 33 54 4 32 54 
9 17 63 12 20 67 10 18 64 10 18 64 9 18 61 11 19 66 11 19 65 12 20 66 11 19 65 32 33 98 31 33 94 9 17 64 11 19 65 11 19 65 12 19 65 10 19 62 9 20 65 9 21 63 10 22 62 9 23 60 12 26 63 10 29 62 8 29 60 9 30 61 8 29 60 4 35 56 6 78 58 6 81 60 7 76 58 4 75 57 4 84 57 5 80 57 4 49 54 5 48 54 3 53 54 5 80 57 5 85 56 3 83 56 5 48 55 4 42 55 4 42 53 4 42 55 2 38 54 5 38 55 3 41 50 3 43 55 4 44 54 5 48 54 4 71 54 5 86 54 4 84 55 4 64 56 4 52 54 2 57 54 4 88 55 4 95 54 4 95 54 4 94 56 5 69 55 5 57 55 5 56 57 4 54 55 4 66 55 6 93 58 5 83 57 2 49 55 4 84 55 4 84 55 4 49 54 3 36 53 4 35 56 3 31 52 3 27 51 3 27 51 3 29 52 3 27 51 2 26 52 2 26 52 2 26 52 2 26 54 2 26 52 3 27 53 2 28 53 5 43 54 4 68 54 4 65 57 4 32 54 6 34 55 4 35 55 3 34 54 3 34 54 3 34 54 6 34 55 5 33 54 4 35 55 4 35 55 3 34 54 3 34 55 3 31 53 4 30 53 
