P3
100 50
255
35 11 24 36 12 25 34 12 24 36 12 25 40 13 28 39 12 27 36 9 24 36 9 24 36 9 26 35 8 25 35 8 25 35 8 23 35 8 23 38 5 32 54 7 41 53 6 40 33 4 26 31 4 19 31 4 19 28 4 18 30 3 18 30 3 18 29 2 17 30 3 20 30 3 20 31 2 20 31 2 20 32 3 21 31 2 22 33 4 24 35 3 27 46 2 35 58 3 43 56 4 43 40 3 37 56 4 42 58 3 42 48 3 42 44 4 41 45 5 42 255 255 255 255 255 255 255 255 255 255 255 255 255 255 255 255 255 255 255 255 255 255 255 255 255 255 255 255 255 255 255 255 255 255 255 255 255 255 255 255 255 255 255 255 255 255 255 255 255 255 255 255 255 255 255 255 255 255 255 255 37 3 30 44 4 38 58 3 42 56 4 43 53 6 42 39 2 35 38 5 34 48 4 39 56 4 42 56 4 42 57 5 44 56 4 42 55 5 43 43 3 40 36 6 34 33 4 32 34 4 28 34 4 28 33 5 27 31 3 25 29 4 23 32 5 24 29 2 21 29 5 21 28 4 20 28 3 22 28 4 20 28 4 20 27 3 19 30 5 27 30 5 27 27 3 19 27 5 18 26 4 17 26 4 17 26 4 16 26 4 17 26 4 17 27 5 18 26 4 17 
33 14 20 35 11 24 33 11 24 35 8 23 38 11 26 34 7 22 34 7 22 35 8 23 35 8 23 35 8 23 34 7 22 35 8 23 34 7 22 49 5 38 57 7 45 49 5 40 32 5 22 32 5 20 31 4 21 30 3 18 30 3 18 29 2 17 27 3 17 28 1 18 30 3 20 30 1 19 32 3 21 31 2 20 32 3 23 35 3 26 35 3 26 49 3 39 58 3 42 54 4 42 45 4 38 59 4 43 56 4 42 46 4 42 44 4 41 45 5 42 255 255 255 255 255 255 255 255 255 255 255 255 255 255 255 255 255 255 255 255 255 255 255 255 255 255 255 255 255 255 255 255 255 255 255 255 255 255 255 255 255 255 255 255 255 255 255 255 255 255 255 255 255 255 255 255 255 255 255 255 37 4 31 49 3 39 56 4 42 56 4 42 46 4 40 39 5 32 39 4 34 55 5 42 56 6 43 58 6 45 55 5 42 50 4 41 43 4 35 40 3 36 40 5 35 36 6 34 38 5 34 36 6 32 35 5 31 36 6 34 34 6 31 34 6 31 33 5 30 31 5 30 32 4 29 33 5 30 31 5 32 33 5 30 30 5 27 34 5 35 35 6 34 30 5 27 33 5 30 33 5 30 33 5 30 32 4 27 32 4 27 33 5 28 33 5 30 33 5 28 
33 9 23 35 8 23 33 9 23 35 9 22 34 7 22 34 7 24 35 8 23 33 9 23 34 7 22 34 7 22 35 7 22 35 8 25 39 5 30 54 4 42 54 4 41 37 5 28 29 5 19 31 4 19 30 4 17 29 2 17 28 4 18 27 3 17 30 3 20 30 3 18 27 3 19 28 1 18 30 3 22 30 3 22 33 4 24 33 4 26 32 2 26 51 3 41 58 3 42 50 2 40 48 2 38 58 3 43 55 3 42 43 3 38 44 4 41 44 4 41 255 255 255 255 255 255 255 255 255 255 255 255 255 255 255 255 255 255 255 255 255 255 255 255 255 255 255 255 255 255 255 255 255 255 255 255 255 255 255 255 255 255 255 255 255 255 255 255 255 255 255 255 255 255 255 255 255 255 255 255 38 3 33 54 4 42 58 3 42 56 4 43 43 3 37 39 5 32 41 4 38 57 5 43 58 3 43 48 6 42 38 4 31 35 3 27 35 3 27 35 3 27 32 3 25 31 2 22 30 3 20 30 3 20 26 2 16 27 3 17 26 2 16 27 3 16 26 2 15 24 2 14 25 4 13 25 3 15 25 3 15 25 3 15 25 4 13 29 4 23 29 4 25 25 4 13 26 4 16 25 3 15 26 2 15 25 4 13 25 4 13 24 3 12 25 3 15 24 3 12 
32 8 22 34 7 22 35 9 22 34 7 22 36 8 23 35 8 23 35 8 23 34 7 24 34 7 22 34 7 22 33 6 23 34 7 24 51 5 41 54 4 42 46 5 39 32 3 21 30 3 18 29 2 17 29 2 17 26 2 16 26 2 16 29 2 17 30 3 18 29 2 17 30 3 20 30 3 18 31 4 21 31 4 23 32 3 23 33 4 26 36 4 28 55 3 42 56 4 42 48 4 40 52 4 42 59 4 43 52 4 42 43 3 38 43 3 40 44 4 41 255 255 255 255 255 255 255 255 255 255 255 255 255 255 255 255 255 255 255 255 255 255 255 255 255 255 255 255 255 255 255 255 255 255 255 255 255 255 255 255 255 255 255 255 255 255 255 255 255 255 255 255 255 255 255 255 255 255 255 255 40 4 32 56 4 43 57 2 42 54 2 40 39 5 32 43 4 35 54 2 40 58 3 42 48 2 38 45 5 39 36 3 30 35 3 26 33 3 27 33 4 26 32 3 23 31 4 23 30 3 18 29 2 17 28 4 18 27 3 17 27 3 17 27 3 16 26 2 15 26 4 16 26 4 16 26 2 15 25 3 15 26 2 15 24 3 12 31 3 25 30 5 26 26 5 14 26 4 16 25 1 14 25 3 15 25 4 13 25 4 13 24 3 12 25 3 15 24 3 12 
34 7 22 34 7 22 34 7 22 34 7 24 34 7 22 34 7 22 34 7 24 34 6 21 33 6 23 35 7 22 34 5 23 47 3 38 54 2 40 51 3 41 35 3 24 30 3 18 28 4 18 30 3 18 28 1 16 30 4 17 27 3 17 28 4 18 30 3 18 29 2 17 30 3 20 30 3 18 32 3 21 31 4 23 32 3 25 35 3 26 35 2 29 57 2 42 57 3 39 45 3 39 56 4 43 56 4 42 51 5 42 41 4 38 43 3 40 45 3 41 255 255 255 255 255 255 255 255 255 255 255 255 255 255 255 255 255 255 255 255 255 255 255 255 255 255 255 255 255 255 255 255 255 255 255 255 255 255 255 255 255 255 255 255 255 255 255 255 255 255 255 255 255 255 255 255 255 255 255 255 46 5 39 57 2 41 58 3 42 48 4 39 39 5 32 50 3 39 58 3 42 52 4 42 38 3 33 42 4 41 34 4 28 33 3 27 33 4 26 32 3 25 32 3 23 30 3 20 29 2 17 29 3 16 28 4 17 27 3 16 27 3 16 26 2 15 26 3 13 26 4 16 25 4 13 25 3 15 24 3 12 25 3 15 25 4 13 28 3 24 29 4 25 25 4 13 27 5 17 25 3 15 26 2 15 24 3 12 25 4 13 25 4 13 26 4 16 25 4 13 
30 6 22 32 5 24 33 6 23 32 5 22 32 5 22 33 6 21 33 6 21 32 5 22 30 6 20 33 6 23 46 5 39 51 3 41 51 3 43 37 5 29 30 3 18 29 2 17 27 3 17 27 3 16 27 1 14 26 2 15 27 3 17 29 2 17 29 2 17 29 2 17 30 3 18 29 2 19 29 2 19 31 2 22 33 3 27 35 3 26 39 2 33 56 4 42 57 2 42 42 2 37 56 4 42 56 4 42 48 4 40 42 5 39 45 3 41 44 4 39 254 254 254 254 254 254 255 255 255 254 255 255 255 255 255 255 255 255 255 255 255 255 255 255 255 255 255 255 255 255 255 255 255 255 255 255 255 255 255 255 255 255 255 255 255 255 255 255 255 255 255 255 255 255 255 255 255 255 255 255 50 4 41 57 2 42 55 3 41 48 2 39 47 3 36 59 3 42 54 2 41 39 2 33 33 3 27 42 4 41 33 3 27 33 4 26 32 3 23 31 2 22 30 3 20 30 3 18 29 2 17 27 3 17 27 3 17 27 3 17 26 2 15 26 2 15 25 4 13 25 3 15 25 4 13 26 4 16 25 3 15 25 3 16 25 4 13 29 4 25 30 5 26 25 3 15 24 2 14 26 2 15 25 3 15 24 3 12 25 4 13 25 4 13 25 3 15 24 3 12 
31 4 21 32 5 22 32 5 22 31 7 23 32 5 20 36 5 21 32 5 20 32 5 20 33 4 24 44 5 36 52 6 42 50 6 42 39 2 33 27 5 18 28 1 16 29 3 16 27 3 16 26 2 15 27 3 16 26 2 15 27 3 17 26 2 16 29 2 17 29 2 17 30 3 18 30 3 20 31 2 20 32 3 23 34 2 25 35 3 26 43 4 35 58 3 45 56 4 43 40 5 35 57 2 41 59 3 42 47 3 39 44 2 38 41 4 38 45 3 39 255 255 255 255 255 255 255 255 255 255 255 255 255 255 255 255 255 255 255 255 255 255 255 255 255 255 255 255 255 255 255 255 255 255 255 255 255 255 255 255 255 255 255 255 255 255 255 255 255 255 255 255 255 255 255 255 255 255 255 255 57 2 42 58 3 42 56 4 42 55 3 41 58 3 43 54 4 41 46 2 35 35 3 27 35 3 26 41 3 40 35 3 26 32 3 23 31 3 25 31 2 20 29 2 17 29 2 17 26 2 16 26 2 15 27 3 16 26 2 15 27 3 16 26 3 13 25 4 13 24 3 12 24 3 12 25 4 13 24 3 12 25 2 12 24 3 12 30 3 22 29 4 26 24 3 12 25 4 13 25 2 12 25 4 13 24 3 12 24 3 12 24 3 12 25 4 13 24 3 12 
41 19 32 41 19 31 41 19 31 42 20 32 41 19 31 42 21 30 41 12 30 43 4 33 49 3 40 52 4 42 51 3 41 38 4 29 27 3 17 29 3 16 29 3 16 29 2 17 27 3 16 25 1 14 25 1 14 27 4 14 26 2 15 28 2 15 27 3 16 28 1 16 29 2 17 30 3 18 32 3 21 32 3 23 33 4 26 34 4 28 44 3 35 57 2 42 58 6 44 51 10 40 56 4 42 57 2 42 45 3 39 45 5 40 44 4 39 49 5 41 255 255 255 255 255 255 255 255 255 255 255 255 255 255 255 255 255 255 255 255 255 255 255 255 255 255 255 255 255 255 255 255 255 255 255 255 255 255 255 255 255 255 255 255 255 255 255 255 255 255 255 255 255 255 255 255 255 255 255 255 55 3 42 57 2 41 54 4 41 52 2 37 49 3 39 40 4 32 35 3 27 35 3 26 34 2 25 40 4 40 32 3 25 31 4 23 30 3 20 30 3 20 27 3 17 27 3 17 25 1 14 26 2 15 26 2 15 26 2 15 26 2 15 26 3 13 25 4 13 24 3 12 25 4 13 25 4 13 25 3 15 25 4 13 25 4 13 29 4 23 29 4 25 25 4 13 25 4 13 25 4 13 26 3 13 25 4 13 24 3 12 23 2 11 26 4 16 24 3 12 
56 37 43 55 34 41 54 33 40 56 30 41 54 28 41 53 14 43 52 4 42 51 3 41 52 4 42 49 3 40 36 4 25 29 5 19 30 3 18 26 2 18 27 3 16 27 4 14 25 1 14 26 2 15 26 2 15 27 3 16 26 2 15 27 3 16 27 3 16 30 3 18 29 2 17 28 4 18 34 3 21 31 2 22 32 3 25 35 3 27 49 5 40 56 4 43 56 4 42 56 9 43 57 2 41 55 3 42 41 1 36 41 4 37 43 3 38 51 3 41 254 254 254 255 255 255 255 255 255 254 254 254 255 255 255 255 255 255 255 255 255 255 255 255 255 255 255 255 255 255 255 255 255 255 255 255 255 255 255 255 255 255 255 255 255 255 255 255 255 255 255 255 255 255 255 255 255 255 255 255 55 3 42 55 3 42 44 3 37 36 4 28 35 3 27 36 3 30 35 3 27 34 2 25 33 4 26 40 6 39 31 2 22 31 4 21 30 3 18 29 3 16 29 2 17 28 2 15 26 2 15 26 2 15 26 3 13 26 3 13 26 3 13 25 2 12 25 4 13 24 3 12 24 3 10 24 3 12 25 4 13 25 4 13 24 3 10 31 4 23 29 4 25 24 3 12 25 4 13 25 2 12 26 5 14 24 3 12 24 3 12 24 3 10 24 3 12 24 3 10 
55 12 42 52 11 41 50 9 41 52 5 41 54 4 42 51 3 43 51 3 43 50 4 41 40 4 32 33 4 22 30 3 18 27 3 17 27 3 17 29 2 17 26 2 15 29 3 16 26 2 15 25 2 12 26 3 13 26 2 15 26 2 15 26 2 15 27 3 16 29 2 17 29 2 17 30 3 20 30 1 19 33 4 24 35 3 27 35 2 29 51 4 40 58 4 40 55 3 41 55 3 42 58 3 42 49 5 41 41 4 38 41 4 37 44 4 39 56 4 43 255 255 255 254 254 254 255 255 255 255 255 255 255 255 255 255 255 255 255 255 255 255 255 255 255 255 255 255 255 255 255 255 255 255 255 255 255 255 255 255 255 255 255 255 255 255 255 255 255 255 255 255 255 255 255 255 255 255 255 255 55 3 42 54 4 42 39 3 31 33 4 26 37 5 28 35 3 26 35 3 26 34 2 25 31 3 25 37 6 38 31 2 22 31 4 19 30 3 18 29 2 17 29 3 16 26 2 16 26 2 15 26 2 15 26 2 15 26 4 16 26 2 15 26 3 13 24 3 12 24 3 12 25 4 11 26 5 14 26 3 13 24 3 12 25 4 13 31 4 23 30 5 26 25 4 13 26 5 14 25 4 13 26 3 13 25 4 13 25 4 13 24 3 12 25 3 15 25 4 13 
57 5 43 56 6 44 55 5 42 56 6 43 55 5 42 48 4 39 40 4 32 37 5 28 32 5 22 32 5 20 31 4 19 30 3 20 31 3 18 31 4 19 30 3 18 28 4 18 28 1 16 26 2 15 26 2 16 28 1 16 27 3 17 29 3 16 28 1 16 29 2 17 28 4 18 30 3 22 32 3 25 32 3 25 35 3 26 36 2 27 53 3 40 56 4 42 49 3 40 44 2 38 44 2 38 41 4 38 42 2 37 40 3 36 45 3 41 54 2 41 255 255 255 255 255 255 255 255 255 255 255 255 255 255 255 255 255 255 255 255 255 255 255 255 255 255 255 255 255 255 255 255 255 255 255 255 255 255 255 255 255 255 255 255 255 255 255 255 255 255 255 255 255 255 255 255 255 255 255 255 55 3 42 54 4 42 36 4 28 34 2 26 35 3 26 32 2 26 32 3 25 32 4 26 31 4 23 39 5 38 32 3 23 30 3 20 31 3 18 30 3 18 27 3 16 26 2 15 26 2 15 25 4 13 26 3 13 24 0 13 26 4 16 26 4 16 25 2 12 25 4 13 25 4 13 25 4 13 26 3 13 25 4 13 25 4 13 29 4 23 29 4 25 25 2 12 26 5 14 25 4 13 25 4 13 25 4 11 25 4 11 25 4 13 25 3 15 24 3 12 
44 5 36 44 5 36 42 6 34 39 5 30 36 4 27 33 4 24 34 5 23 33 6 23 33 6 23 32 5 22 33 4 24 32 3 21 30 3 20 30 3 18 30 3 18 29 2 17 30 2 16 27 3 17 27 3 17 29 2 17 28 1 16 30 3 18 30 3 18 31 3 18 31 2 20 32 3 23 33 4 26 35 3 26 35 3 27 37 2 32 55 3 41 57 2 42 43 3 37 41 4 35 40 3 37 39 4 36 40 5 37 39 4 37 51 3 41 59 4 43 255 255 255 255 255 255 255 255 255 255 255 255 255 255 255 255 255 255 255 255 255 255 255 255 255 255 255 255 255 255 255 255 255 255 255 255 255 255 255 255 255 255 255 255 255 255 255 255 255 255 255 255 255 255 255 255 255 255 255 255 53 3 40 50 4 40 35 3 26 32 2 26 35 3 24 32 3 25 31 2 24 31 2 22 30 3 20 38 4 37 29 2 19 29 2 19 29 3 16 26 2 16 26 3 13 26 3 13 25 2 12 25 4 13 26 3 13 25 2 12 25 4 13 26 5 14 25 2 12 24 3 10 24 4 13 25 4 13 24 3 12 25 4 13 25 4 13 28 5 23 30 5 26 25 4 13 25 3 15 25 4 13 26 2 15 25 4 13 25 4 13 26 3 13 25 4 13 24 3 12 
34 5 23 37 6 24 34 5 23 34 5 23 33 6 23 31 4 23 33 4 24 32 5 20 33 6 21 32 5 20 31 4 19 31 4 19 28 4 18 30 3 18 30 3 18 29 2 17 27 3 16 27 3 17 28 2 15 28 1 18 30 3 18 29 2 17 30 2 16 30 3 18 31 2 20 32 3 23 35 3 26 35 3 26 36 4 28 39 3 31 57 2 42 56 4 42 41 4 37 40 3 36 40 3 37 40 3 37 40 3 36 41 4 38 56 4 43 58 3 42 255 255 255 255 255 255 255 255 255 255 255 255 255 255 255 255 255 255 255 255 255 255 255 255 255 255 255 255 255 255 255 255 255 255 255 255 255 255 255 255 255 255 255 255 255 255 255 255 255 255 255 255 255 255 255 255 255 255 255 255 54 4 41 44 3 35 33 1 24 33 4 24 32 5 24 32 3 23 31 4 23 31 2 20 30 3 20 39 6 37 30 3 18 29 2 17 27 3 16 27 3 16 26 5 14 27 4 14 25 4 13 25 4 13 25 3 15 25 4 13 24 3 12 25 4 11 24 3 12 25 4 13 24 3 12 26 3 13 26 2 15 26 3 13 26 3 13 29 4 23 32 4 26 26 3 13 25 4 13 26 3 13 26 3 13 25 4 13 25 4 13 26 3 13 26 2 15 25 4 13 
33 4 24 33 4 24 33 4 24 32 3 23 33 4 24 32 3 21 34 5 23 32 3 21 33 1 22 30 3 22 31 4 21 31 2 20 31 4 19 30 3 18 28 4 18 28 4 18 27 3 17 29 2 17 27 3 16 30 3 18 29 2 17 30 3 18 28 1 18 29 2 17 31 4 21 31 2 22 34 2 23 35 3 27 35 3 27 44 3 35 55 3 41 55 3 41 39 4 34 40 3 37 41 4 37 42 2 37 42 2 37 52 2 39 55 3 42 55 3 42 254 254 254 255 255 255 255 255 255 255 255 255 255 255 255 255 255 255 255 255 255 255 255 255 255 255 255 255 255 255 255 255 255 255 255 255 255 255 255 255 255 255 255 255 255 255 255 255 255 255 255 255 255 255 255 255 255 255 255 255 54 4 42 38 4 31 32 3 25 32 4 26 32 3 23 33 4 24 31 2 22 32 3 21 30 3 20 39 6 37 29 2 17 29 2 17 27 3 16 26 2 15 25 4 13 25 4 13 25 4 11 24 3 12 24 3 12 25 3 15 24 3 12 25 4 13 24 3 10 24 3 12 25 4 13 24 3 12 25 4 13 25 4 13 25 4 13 29 4 23 29 4 25 24 3 12 26 3 13 24 3 12 25 4 13 25 2 10 26 3 11 23 2 11 25 4 13 26 3 11 
32 5 22 34 5 23 33 4 24 33 4 24 31 4 23 32 3 23 33 4 24 31 2 22 30 3 20 31 2 20 30 3 20 28 4 20 28 4 20 29 2 17 29 2 17 30 3 18 27 3 17 27 3 17 28 4 18 30 3 18 29 2 19 30 3 18 30 3 20 31 4 21 31 2 20 32 3 25 35 6 28 35 3 27 34 4 28 48 4 40 58 3 42 51 3 41 38 3 33 39 4 34 41 4 38 42 2 37 50 2 40 58 3 42 58 3 43 55 3 42 254 254 254 255 255 255 255 255 255 255 255 255 255 255 255 255 255 255 255 255 255 255 255 255 255 255 255 255 255 255 255 255 255 255 255 255 255 255 255 255 255 255 255 255 255 255 255 255 255 255 255 255 255 255 255 255 255 255 255 255 49 3 39 35 3 26 34 3 21 33 4 24 31 2 22 32 3 23 31 2 20 30 3 20 29 2 17 36 5 36 29 2 17 27 3 16 27 3 16 25 5 16 25 4 13 25 4 13 25 4 13 24 3 12 24 3 12 25 4 13 25 4 13 25 4 11 25 4 13 24 3 12 25 4 11 26 3 13 26 3 13 26 3 13 26 3 11 28 3 22 32 5 24 26 3 13 24 2 14 23 2 11 25 4 13 25 4 13 24 3 12 25 4 13 24 3 12 24 3 12 
32 5 20 31 4 19 31 4 19 31 4 19 32 6 19 30 3 20 31 2 20 30 2 17 32 4 19 30 3 20 29 2 19 30 3 20 28 4 20 28 4 20 27 3 17 29 5 19 28 4 18 26 2 15 26 2 16 28 4 18 30 3 20 30 3 20 30 3 20 30 3 20 31 4 23 32 3 23 31 2 24 35 3 27 36 4 28 49 3 40 59 5 41 51 5 44 38 5 34 40 3 36 44 2 38 53 3 40 56 1 40 58 3 43 55 5 42 57 2 41 255 255 255 255 255 255 255 255 255 255 255 255 255 255 255 255 255 255 255 255 255 255 255 255 255 255 255 255 255 255 255 255 255 255 255 255 255 255 255 255 255 255 255 255 255 255 255 255 255 255 255 255 255 255 255 255 255 255 255 255 44 3 37 34 2 23 32 3 23 32 3 23 31 2 22 32 3 23 30 3 20 28 4 18 29 2 17 37 6 37 27 3 16 27 3 19 25 4 13 25 3 15 24 3 12 25 2 12 24 3 12 24 3 12 25 4 13 25 4 13 25 4 13 24 3 12 25 4 13 25 4 11 24 3 12 24 3 12 24 3 12 24 3 12 24 3 12 28 3 22 30 5 26 24 3 10 25 4 13 25 4 13 25 4 13 24 3 12 24 3 12 24 3 10 26 5 14 24 3 10 
32 5 20 33 4 22 33 5 20 33 5 20 32 5 22 31 4 19 32 5 20 31 4 21 30 3 20 28 4 20 28 4 20 28 4 20 30 3 20 30 3 20 28 4 18 27 3 17 29 2 19 26 2 16 27 3 17 30 3 18 30 3 20 30 3 20 30 3 20 30 3 20 28 3 22 31 4 23 35 3 26 36 4 28 36 3 30 49 3 39 54 4 41 48 2 39 46 2 37 53 3 41 57 2 41 55 3 39 54 2 40 48 4 40 52 5 41 57 2 41 255 255 255 255 255 255 255 255 255 255 255 255 255 255 255 255 255 255 255 255 255 255 255 255 255 255 255 255 255 255 255 255 255 255 255 255 255 255 255 255 255 255 255 255 255 255 255 255 255 255 255 255 255 255 255 255 255 255 255 255 38 4 31 33 4 26 32 3 21 32 3 23 32 3 23 30 3 20 30 3 18 31 3 18 29 2 17 36 5 36 27 3 16 27 3 17 26 2 15 26 4 16 27 1 12 26 3 13 25 4 13 26 3 13 25 4 13 24 3 10 26 3 13 26 3 13 25 4 13 25 2 10 24 3 12 24 3 12 26 2 15 25 4 13 25 4 13 28 3 22 30 5 26 26 3 13 25 4 13 26 3 13 25 3 15 24 3 12 24 3 12 24 3 12 27 4 14 24 3 10 
33 4 22 33 4 22 32 3 21 33 4 24 33 4 24 32 5 24 31 4 23 31 4 23 31 4 23 31 4 23 31 4 23 30 6 22 29 4 23 28 3 22 29 5 21 28 3 22 28 4 20 27 4 20 28 4 20 30 3 20 31 4 21 31 4 21 31 4 23 31 4 21 31 4 23 32 4 26 33 4 24 35 2 29 35 2 29 53 3 40 57 2 41 55 5 42 58 3 42 57 2 42 56 4 42 50 4 41 43 6 40 42 5 38 54 4 41 55 0 40 254 255 255 255 255 255 255 255 255 255 254 255 255 255 255 255 255 255 255 255 255 255 255 255 255 255 255 255 255 255 255 255 255 255 255 255 255 255 255 255 255 255 255 255 255 255 255 255 255 255 255 255 255 255 255 255 255 255 255 255 34 2 26 33 4 26 33 4 22 32 3 23 31 4 23 30 3 20 30 3 20 29 2 17 30 3 18 35 6 36 26 4 17 26 2 16 25 3 15 27 3 16 25 1 14 26 3 13 25 4 13 26 3 13 24 3 12 25 3 15 27 4 14 26 3 13 24 3 12 25 2 12 25 4 13 25 3 15 25 4 13 25 3 15 25 4 13 28 3 24 31 6 27 25 4 13 26 3 13 25 4 13 27 6 15 26 3 13 26 3 13 25 4 13 25 3 15 25 1 14 
34 2 23 34 2 23 32 3 23 33 4 26 33 4 24 32 5 24 31 3 25 33 4 24 33 4 22 33 4 22 29 4 23 29 4 25 29 4 25 31 4 23 28 3 22 28 5 23 29 5 21 28 3 22 29 4 23 28 3 22 29 4 25 29 4 25 29 4 25 31 3 25 33 5 27 34 4 28 36 4 27 34 4 30 38 5 36 55 3 41 55 3 41 47 6 40 45 3 39 43 6 40 43 6 40 41 6 39 41 7 42 49 5 40 56 4 42 51 4 40 254 254 254 254 254 254 255 255 255 255 255 255 255 255 255 255 255 255 255 255 255 255 255 255 255 255 255 255 255 255 255 255 255 255 255 255 255 255 255 255 255 255 255 255 255 255 255 255 255 255 255 255 255 255 255 255 255 255 255 255 31 2 22 31 2 22 32 3 21 31 4 21 31 2 20 30 3 20 30 3 20 30 3 20 29 3 16 35 6 34 27 3 16 26 2 15 26 3 13 27 4 14 25 3 15 25 3 15 26 3 13 25 4 13 25 4 13 26 3 13 25 4 13 26 3 13 25 4 13 25 2 12 25 4 13 26 2 15 26 2 16 26 3 13 25 4 13 31 4 23 30 5 27 26 3 13 25 3 15 25 4 13 25 3 15 26 5 14 24 3 12 25 4 13 25 3 15 25 4 13 
33 4 22 32 5 22 31 4 23 30 5 26 30 5 24 31 6 27 30 5 26 32 4 26 29 6 24 33 5 27 31 6 27 30 5 26 30 5 26 31 6 27 28 3 22 29 4 23 28 3 24 28 3 22 30 5 24 31 3 25 31 3 26 32 4 26 32 4 26 33 5 27 30 5 26 33 5 30 34 4 30 34 5 33 39 4 34 55 3 41 54 4 41 37 4 33 37 4 35 41 6 39 42 6 42 41 5 41 42 6 42 54 4 41 57 2 41 47 3 36 255 255 255 255 255 255 255 255 255 255 255 255 255 255 255 255 255 255 255 255 255 255 255 255 255 255 255 255 255 255 255 255 255 255 255 255 255 255 255 255 255 255 255 255 255 255 255 255 255 255 255 255 255 255 255 255 255 255 255 255 30 1 21 31 2 22 31 4 21 32 3 21 31 4 19 30 3 20 29 2 17 29 2 17 26 2 16 35 6 36 27 3 16 26 2 16 26 2 15 26 2 16 26 3 13 25 4 13 25 4 13 26 3 13 25 4 13 26 3 13 26 5 14 25 4 13 25 4 13 27 4 14 24 3 12 25 3 15 26 3 13 26 4 16 26 3 13 28 3 22 29 4 25 25 4 13 25 3 15 25 4 13 25 3 15 25 4 13 25 4 13 25 4 13 25 3 15 24 3 12 
43 2 34 40 4 30 40 3 34 40 3 34 38 5 34 35 5 31 38 5 32 35 6 34 33 5 30 33 5 30 31 6 28 33 5 27 29 4 26 30 5 26 29 4 23 29 4 23 28 3 24 30 5 26 30 5 24 29 6 26 29 4 25 30 5 26 31 3 25 32 4 27 33 5 28 34 4 32 33 4 34 34 5 33 43 3 37 55 3 42 52 5 41 37 4 33 39 5 38 41 5 41 40 6 41 35 4 36 45 5 40 57 2 41 55 3 41 39 2 33 254 254 254 254 254 254 255 255 255 255 255 255 255 255 255 255 255 255 255 255 255 255 255 255 255 255 255 255 255 255 255 255 255 255 255 255 255 255 255 255 255 255 255 255 255 255 255 255 255 255 255 255 255 255 255 255 255 255 255 255 32 3 23 33 4 24 32 3 21 31 2 20 30 3 20 30 1 19 30 3 18 27 3 17 29 2 17 36 6 34 26 2 15 27 3 16 27 3 16 27 3 17 26 3 13 27 4 14 26 2 15 27 3 16 26 2 15 27 3 16 27 3 16 26 2 15 26 2 15 26 2 15 27 3 16 27 3 17 27 3 17 27 3 16 26 2 15 31 3 25 32 4 26 26 2 15 26 2 16 26 2 15 27 3 19 26 2 15 27 3 17 26 3 13 27 3 17 26 2 15 
52 5 41 52 5 41 51 3 41 50 4 41 51 3 41 51 3 41 51 4 40 50 4 40 51 3 43 52 5 41 49 3 40 49 3 39 49 3 40 50 4 41 48 4 40 45 5 40 45 5 40 44 4 39 43 3 38 42 5 38 41 4 37 40 3 36 39 2 35 40 5 35 39 4 34 39 4 36 39 6 37 39 5 38 43 3 38 55 3 41 49 5 41 35 6 34 40 6 41 40 6 41 38 4 39 41 4 38 49 5 41 55 3 41 53 3 40 37 3 30 255 255 255 255 255 255 255 255 255 254 254 254 255 255 255 255 255 255 255 255 255 255 255 255 255 255 255 255 255 255 255 255 255 255 255 255 255 255 255 255 255 255 255 255 255 255 255 255 255 255 255 255 255 255 255 255 255 255 255 255 40 5 37 40 6 39 39 6 37 38 5 36 38 5 36 36 5 36 37 6 37 38 5 36 36 6 34 37 6 38 34 5 33 35 6 34 34 5 35 35 6 34 34 5 33 34 4 32 33 5 30 34 4 30 34 6 31 34 6 31 34 6 31 35 5 31 34 6 31 33 5 30 33 5 28 33 4 32 34 6 31 33 5 30 32 4 29 34 5 33 36 5 36 33 5 30 33 5 30 33 5 30 34 5 33 33 5 30 33 5 30 33 5 30 34 5 33 33 5 30 
45 4 38 45 3 39 47 5 41 49 3 40 50 4 41 48 4 40 49 5 41 49 5 41 49 3 40 52 2 40 49 3 40 52 4 42 50 2 40 50 2 42 49 3 40 49 3 40 51 3 43 48 4 40 51 3 41 51 4 40 52 5 41 52 4 42 51 3 41 52 4 42 51 3 41 53 3 41 53 3 41 54 4 42 49 5 41 53 3 41 39 4 37 33 6 37 38 7 41 40 6 41 38 5 34 38 5 34 53 3 40 55 3 41 45 4 38 36 4 28 255 255 255 254 254 254 254 255 255 255 255 255 255 255 255 255 255 255 255 255 255 255 255 255 255 255 255 255 255 255 255 255 255 255 255 255 255 255 255 255 255 255 255 255 255 255 255 255 255 255 255 255 255 255 255 255 255 255 255 255 30 3 20 30 1 19 31 2 20 29 2 17 29 2 17 29 2 17 29 3 16 27 3 16 26 2 15 34 5 35 26 2 15 26 4 16 25 4 11 25 4 13 25 4 13 24 3 10 24 3 12 26 3 13 25 4 13 26 3 13 25 4 13 25 4 13 26 3 13 24 3 12 23 2 9 26 3 13 25 4 13 26 3 13 24 3 10 29 4 23 29 4 25 26 3 13 25 3 15 25 4 13 24 2 14 24 3 12 25 4 13 25 4 11 25 4 13 25 4 11 
28 3 22 31 4 23 29 5 21 28 3 22 30 11 30 28 21 39 29 22 40 26 22 39 28 21 39 30 18 40 31 17 40 31 17 42 31 15 41 33 13 38 32 6 33 34 6 31 38 5 32 38 5 32 36 6 32 40 5 35 40 5 37 40 5 37 41 6 39 44 7 40 45 5 40 46 4 40 48 4 40 48 4 40 39 6 37 33 4 34 35 6 34 35 6 37 38 7 41 38 4 39 35 4 35 40 3 34 55 3 41 54 4 41 38 1 32 35 3 27 255 255 255 255 255 255 255 255 255 255 255 255 255 255 255 255 255 255 255 255 255 255 255 255 255 255 255 255 255 255 255 255 255 255 255 255 255 255 255 255 255 255 255 255 255 255 255 255 255 255 255 255 255 255 255 255 255 255 255 255 32 3 21 32 3 21 30 3 18 30 3 20 30 3 18 29 2 19 27 3 17 29 2 17 27 3 16 35 6 34 26 2 15 26 2 15 27 4 14 26 3 13 25 4 13 25 2 12 24 3 12 26 3 13 24 3 12 26 3 13 25 4 13 25 2 12 24 3 12 25 2 12 26 3 13 26 2 15 26 3 13 26 2 15 28 2 13 31 4 23 31 3 25 26 3 13 26 3 13 26 3 13 26 3 13 26 3 13 26 3 13 26 2 15 26 2 15 26 3 13 
29 4 23 29 4 23 29 4 23 30 3 22 29 4 23 29 4 23 30 5 26 28 9 28 29 12 31 29 15 38 29 22 40 29 22 40 27 24 41 27 23 38 27 23 40 28 11 30 30 5 26 28 4 26 29 5 27 30 5 27 33 5 30 31 4 35 30 5 35 31 6 38 31 5 40 33 6 39 33 4 34 31 5 32 32 6 33 30 4 31 32 6 31 38 6 43 38 7 41 36 5 36 35 5 33 48 4 40 55 3 41 51 4 40 35 2 29 33 3 27 255 255 255 255 255 255 255 255 255 255 255 255 255 255 255 255 255 255 255 255 255 255 255 255 255 255 255 255 255 255 255 255 255 255 255 255 255 255 255 255 255 255 255 255 255 255 255 255 255 255 255 255 255 255 255 255 255 255 255 255 30 2 17 32 3 21 30 2 17 30 3 18 29 2 17 29 2 17 27 3 16 27 3 16 27 3 16 34 5 35 27 3 16 27 4 14 26 3 13 26 2 15 24 3 12 25 2 10 26 3 13 25 4 13 26 3 13 27 4 14 26 5 14 26 3 13 25 4 13 26 3 13 26 3 13 25 4 13 26 3 13 23 3 12 26 2 15 29 4 23 31 3 25 26 3 13 26 2 15 26 3 13 26 3 13 26 3 11 26 3 13 26 3 11 26 3 11 26 3 11 
29 4 25 29 6 24 29 4 25 29 4 23 31 4 23 29 4 25 29 6 26 29 6 26 33 5 27 31 6 25 31 6 27 30 8 31 30 13 32 28 16 38 27 22 42 28 19 38 30 6 30 30 4 29 33 5 28 33 5 28 30 5 34 30 6 42 32 8 40 30 6 40 31 7 41 31 5 40 32 3 33 33 4 34 34 5 35 30 4 33 34 5 35 37 6 40 37 6 40 34 3 34 35 4 35 53 3 41 54 4 41 47 3 38 35 3 27 35 3 27 255 255 255 255 255 255 255 255 255 254 255 255 255 255 255 255 255 255 255 255 255 255 255 255 255 255 255 255 255 255 255 255 255 255 255 255 255 255 255 255 255 255 255 255 255 255 255 255 255 255 255 255 255 255 255 255 255 255 255 255 31 2 20 31 2 20 30 3 20 30 3 18 28 1 16 28 4 18 29 3 16 28 4 17 26 4 16 34 5 33 27 4 14 25 4 13 25 2 12 25 3 15 26 3 11 26 3 11 26 3 13 26 3 13 26 3 13 26 3 13 26 3 13 26 3 13 26 3 13 26 3 13 25 4 13 26 3 13 24 1 11 26 3 13 26 5 14 31 4 23 30 5 26 26 3 13 26 3 13 27 4 14 26 3 13 25 2 10 26 3 13 26 3 13 26 3 13 26 3 13 
28 5 21 26 5 22 27 6 21 29 5 21 27 4 22 28 5 23 27 6 21 26 7 27 29 6 24 30 5 26 30 7 25 30 6 22 30 5 26 28 6 29 30 18 40 29 22 38 30 8 31 27 5 26 30 6 28 30 5 27 30 6 38 30 6 40 31 6 36 32 5 36 31 7 41 31 5 40 30 4 33 30 4 33 33 4 32 31 5 34 37 6 40 37 6 40 36 5 36 34 5 35 40 3 36 54 2 40 54 3 44 38 3 33 36 4 28 36 4 28 255 255 255 255 255 255 255 255 255 255 255 255 255 255 255 255 255 255 255 255 255 255 255 255 255 255 255 255 255 255 255 255 255 255 255 255 255 255 255 255 255 255 255 255 255 255 255 255 255 255 255 255 255 255 255 255 255 255 255 255 30 3 18 30 3 18 29 2 17 28 2 15 27 3 16 27 3 16 26 2 15 26 3 13 25 2 12 34 5 33 26 3 13 26 3 13 24 3 12 27 4 14 24 3 10 25 2 10 25 4 13 24 3 10 24 3 12 24 3 12 24 3 12 25 4 13 24 3 10 24 3 12 24 1 9 26 3 13 25 1 14 26 3 11 26 3 13 31 4 23 31 4 23 25 2 12 26 3 13 25 2 12 25 2 12 25 2 8 25 4 13 25 4 11 25 4 13 24 3 10 
26 6 18 27 6 21 27 6 21 28 8 20 27 7 19 27 7 19 26 8 24 25 7 23 25 7 21 24 6 22 24 7 23 26 8 24 26 7 26 27 10 29 29 21 42 27 18 37 28 4 28 27 5 26 26 7 27 27 5 28 29 5 37 30 6 38 28 3 32 28 3 33 30 6 40 32 6 41 30 4 33 30 4 31 30 4 33 31 5 34 37 6 38 36 5 39 34 5 35 34 5 35 40 3 36 52 2 40 51 4 40 36 3 30 35 3 27 35 3 27 255 255 255 255 255 255 255 255 255 255 255 255 255 255 255 255 255 255 255 255 255 255 255 255 255 255 255 255 255 255 255 255 255 255 255 255 255 255 255 255 255 255 255 255 255 255 255 255 255 255 255 255 255 255 255 255 255 255 255 255 31 4 19 30 3 18 29 2 17 29 3 16 27 3 16 27 3 16 27 3 16 26 3 13 26 3 13 34 5 33 26 3 13 26 3 13 24 4 13 26 3 13 26 3 11 25 4 13 25 2 10 26 3 11 26 3 11 26 3 13 25 2 12 26 3 11 25 2 10 26 3 11 24 3 10 25 4 13 24 3 12 25 4 13 25 4 13 29 5 21 29 4 25 25 4 13 25 2 12 26 3 13 25 2 12 24 0 13 25 4 13 24 3 12 25 4 13 25 4 11 
28 6 19 25 7 19 27 6 21 27 6 21 27 7 19 27 6 21 25 7 21 28 7 22 26 8 22 27 6 21 28 7 24 25 7 21 28 11 27 28 21 39 29 22 40 28 9 28 26 4 25 27 5 26 28 4 26 25 6 26 29 6 35 30 6 38 28 4 26 28 4 36 30 6 40 30 5 37 30 4 31 30 4 33 31 5 32 32 5 38 35 6 37 31 5 34 34 3 34 34 6 31 43 2 36 53 3 40 50 3 39 36 4 28 35 3 27 34 2 26 255 255 255 255 255 255 255 255 255 255 255 255 255 255 255 255 255 255 255 255 255 255 255 255 255 255 255 255 255 255 255 255 255 255 255 255 255 255 255 255 255 255 255 255 255 255 255 255 255 255 255 255 255 255 255 255 255 255 255 255 28 1 16 29 2 17 28 2 15 28 2 15 25 1 15 25 1 14 25 1 14 26 3 13 25 4 13 34 5 33 26 3 13 25 4 13 24 3 12 25 4 13 24 3 10 25 4 11 24 1 9 25 2 10 25 2 10 25 2 12 24 1 11 25 2 10 25 2 10 25 2 10 25 2 10 25 2 12 25 4 13 26 3 13 25 2 12 31 4 23 32 5 24 25 2 12 26 3 13 26 3 11 26 3 13 25 2 10 25 4 13 25 4 11 25 4 13 24 3 10 
27 7 19 27 7 19 26 5 20 27 6 21 28 7 22 27 7 19 27 5 18 28 5 21 27 6 21 27 6 23 25 7 21 26 10 23 26 22 39 27 23 38 29 12 31 26 5 22 27 5 26 26 4 25 28 4 26 27 5 26 26 5 38 26 5 38 26 4 27 26 5 38 30 6 40 31 4 35 32 3 33 33 4 32 32 5 36 35 6 37 32 5 38 30 4 31 31 5 32 35 5 33 45 3 41 55 3 41 51 4 40 35 3 27 35 3 27 35 3 27 255 255 255 255 255 255 255 255 255 255 255 255 255 255 255 255 255 255 255 255 255 255 255 255 255 255 255 255 255 255 255 255 255 255 255 255 255 255 255 255 255 255 255 255 255 255 255 255 255 255 255 255 255 255 255 255 255 255 255 255 30 3 18 30 3 18 29 2 17 29 3 16 27 3 16 28 4 18 27 3 16 26 3 13 26 3 13 35 5 33 27 3 16 26 3 13 26 3 13 26 2 15 25 4 13 26 3 13 25 4 13 25 4 13 24 3 12 25 4 13 25 4 13 25 4 13 24 3 12 25 4 13 25 2 12 26 3 13 26 2 15 26 3 13 27 3 16 31 4 23 32 4 26 26 3 13 26 3 13 27 4 14 26 3 13 25 2 12 25 4 13 25 4 13 25 3 15 25 4 11 
24 6 20 27 7 19 27 7 19 28 8 20 28 8 20 27 7 19 27 7 19 25 7 21 27 7 19 25 7 21 26 9 27 26 22 37 26 23 40 27 12 31 27 6 23 26 5 22 27 6 25 27 6 25 27 5 26 27 5 28 30 6 40 26 5 36 27 4 30 27 6 39 29 5 39 30 5 34 30 4 31 29 4 33 32 5 38 34 4 38 34 4 40 32 3 31 33 4 34 34 4 30 44 4 38 53 3 40 51 4 40 35 3 27 35 3 27 35 3 27 255 255 255 255 255 255 255 255 255 255 255 255 255 255 255 255 255 255 255 255 255 255 255 255 255 255 255 255 255 255 255 255 255 255 255 255 255 255 255 255 255 255 255 255 255 255 255 255 255 255 255 255 255 255 255 255 255 255 255 255 29 2 17 29 3 16 29 3 16 26 2 15 26 3 13 26 3 13 26 2 15 26 2 15 25 4 13 34 5 33 27 4 14 26 2 15 26 3 11 26 3 13 25 4 11 25 4 13 23 2 11 25 4 13 25 4 13 24 3 12 25 4 13 25 4 13 25 4 13 25 4 13 25 2 12 26 3 13 25 4 13 27 4 14 24 3 12 31 4 23 30 5 26 23 2 11 26 3 13 26 3 13 25 2 12 24 1 9 26 3 13 26 3 13 26 2 15 25 2 12 
26 9 25 27 6 21 27 6 21 26 5 20 27 7 19 26 8 22 27 6 21 28 7 24 27 7 19 28 7 24 24 21 38 25 24 40 26 12 29 25 7 23 25 7 23 27 6 23 24 6 20 26 5 22 26 4 25 26 4 25 29 5 41 27 6 39 27 6 39 27 5 41 28 4 38 27 3 29 28 4 30 30 5 37 34 4 38 32 5 40 34 5 35 33 5 30 32 3 31 32 4 29 43 3 37 53 3 40 51 4 40 37 3 30 33 4 26 33 4 26 255 255 255 255 255 255 255 255 255 255 255 255 255 255 255 255 255 255 255 255 255 255 255 255 255 255 255 255 255 255 255 255 255 255 255 255 255 255 255 255 255 255 255 255 255 255 255 255 255 255 255 255 255 255 255 255 255 255 255 255 29 3 16 28 1 16 27 3 16 26 3 13 26 3 13 26 2 15 26 3 13 26 2 15 26 5 14 34 5 33 26 3 13 26 3 13 24 3 12 26 3 13 24 3 10 25 4 11 26 3 13 26 3 11 25 2 12 26 3 13 25 2 12 26 3 13 25 2 10 25 2 12 26 3 11 25 2 12 26 3 13 25 2 12 26 3 13 31 4 23 32 5 24 26 3 13 26 3 13 27 4 14 26 3 13 25 2 10 27 4 14 26 3 11 26 3 11 25 2 10 
27 8 27 25 7 21 24 6 22 26 8 22 25 7 23 27 7 18 27 6 21 28 8 20 25 7 21 25 21 38 24 26 41 26 15 32 28 7 22 26 5 22 27 4 22 26 5 22 27 4 22 28 7 22 27 5 26 27 5 26 27 6 37 26 4 40 27 6 39 28 4 38 27 4 32 27 3 29 29 4 34 32 5 38 33 6 39 32 5 38 36 5 37 33 5 30 32 4 29 32 4 29 39 4 34 55 3 39 53 3 40 43 2 34 35 3 26 35 3 26 255 255 255 255 255 255 255 255 255 255 255 255 255 255 255 255 255 255 255 255 255 255 255 255 255 255 255 255 255 255 255 255 255 255 255 255 255 255 255 255 255 255 255 255 255 255 255 255 255 255 255 255 255 255 255 255 255 255 255 255 29 2 17 29 3 16 28 4 17 25 3 15 26 3 13 28 4 17 26 2 15 26 2 15 25 4 13 33 4 32 26 2 15 26 3 13 27 4 14 25 2 12 25 4 13 24 4 13 26 3 13 26 3 13 25 2 12 26 3 13 26 3 13 26 3 13 26 3 13 26 3 13 25 2 10 27 4 14 26 3 13 25 1 15 25 2 12 31 4 23 31 3 25 25 2 12 25 1 14 25 2 12 26 3 13 25 2 10 25 2 12 25 2 10 26 2 15 26 3 13 
25 9 19 24 8 19 26 8 20 25 7 21 26 9 19 25 8 18 26 6 18 25 9 20 26 19 37 26 25 39 27 16 33 24 7 17 27 6 21 26 7 26 26 5 20 27 6 23 26 5 22 26 5 22 26 4 25 26 5 24 26 4 25 26 3 31 27 3 27 27 3 27 27 5 28 27 5 28 30 6 38 32 5 38 31 4 37 32 3 33 36 6 34 32 4 27 32 4 29 31 3 26 34 4 30 53 3 40 54 2 40 48 2 38 37 3 28 37 3 28 255 255 255 255 255 255 255 255 255 255 255 253 255 255 255 255 255 255 255 255 255 255 255 255 255 255 255 255 255 255 255 255 255 255 255 255 255 255 255 255 255 255 255 255 255 255 255 255 255 255 255 255 255 255 255 255 255 255 255 255 29 3 16 27 1 14 26 3 13 25 4 13 25 2 12 27 3 16 25 2 12 25 2 12 25 4 13 33 5 30 26 3 13 28 2 15 26 3 11 26 3 13 24 3 10 24 3 10 24 3 10 25 4 11 25 4 11 25 4 11 24 3 10 24 3 10 25 4 11 24 3 10 25 2 10 26 3 11 26 3 13 25 2 12 26 3 11 30 3 20 32 5 24 25 2 12 26 3 13 26 3 13 25 2 12 25 2 10 27 4 12 26 3 11 26 3 13 25 2 10 
24 8 19 24 8 19 22 9 18 24 8 18 24 8 19 24 8 19 25 9 20 22 20 34 23 25 40 24 18 32 25 7 19 24 7 17 25 7 19 25 7 19 28 8 20 26 6 18 26 5 20 26 5 22 26 5 22 27 6 25 26 4 25 26 5 24 28 2 27 24 5 25 27 3 29 29 4 33 32 6 41 31 7 41 28 4 28 29 5 31 36 5 36 32 4 27 33 5 28 30 5 26 33 3 27 44 4 38 53 3 40 53 3 41 49 4 37 36 4 27 255 255 255 255 255 255 255 255 255 255 255 255 255 255 255 255 255 255 255 255 255 255 255 255 255 255 255 255 255 255 255 255 255 255 255 255 255 255 255 255 255 255 255 255 255 255 255 255 255 255 255 255 255 255 255 255 255 255 255 255 29 3 14 29 3 16 26 2 15 27 4 14 25 2 12 26 2 15 26 3 13 25 4 13 26 3 13 33 5 30 26 2 15 24 1 11 25 4 11 25 4 13 24 3 10 24 3 10 26 3 11 25 2 10 26 3 11 25 2 10 25 2 10 26 3 11 25 2 10 25 2 10 25 4 11 26 3 13 25 3 15 26 3 13 25 4 11 30 3 22 29 4 23 24 3 10 25 4 13 25 2 10 24 3 12 25 4 11 25 2 10 24 3 10 26 2 15 25 2 10 
24 7 17 24 8 19 24 8 18 24 8 18 23 7 18 23 7 18 26 20 34 25 27 40 25 17 30 24 8 18 25 8 18 25 8 18 24 6 18 23 6 16 25 8 18 24 6 18 24 4 16 25 4 19 24 3 18 25 4 21 25 4 23 27 2 23 25 4 23 26 2 24 26 4 27 29 5 37 31 7 41 28 4 36 26 2 24 28 6 29 36 3 32 31 3 25 32 4 26 32 4 26 32 4 26 33 3 27 50 3 39 51 3 41 53 3 40 51 4 40 255 255 255 254 254 254 255 255 255 255 255 255 255 255 255 255 255 255 255 255 255 255 255 255 255 255 255 255 255 255 255 255 255 255 255 255 255 255 255 255 255 255 255 255 255 255 255 255 255 255 255 255 255 255 255 255 255 255 255 255 28 2 15 28 2 13 28 2 13 26 3 13 26 3 11 25 2 12 26 3 13 25 2 12 26 3 13 33 4 32 26 3 13 24 0 13 23 2 9 26 5 14 25 4 9 23 2 9 24 3 10 25 4 11 25 4 11 24 3 10 24 3 10 25 4 11 25 4 11 24 3 10 25 2 10 26 3 11 25 4 11 25 1 14 25 2 12 31 4 21 31 6 25 24 1 11 26 3 13 24 3 10 24 5 11 26 3 11 25 4 11 24 3 10 28 2 13 24 1 9 
24 8 18 26 9 19 25 7 19 23 7 17 23 7 18 24 20 35 25 24 40 22 18 32 24 7 15 25 5 16 25 5 16 25 8 18 23 6 16 26 6 18 26 6 17 25 8 18 25 3 16 25 4 21 25 4 21 25 2 20 25 2 20 25 4 23 26 3 23 26 5 24 29 4 33 30 6 40 31 5 40 27 3 25 26 2 24 29 3 28 35 5 33 30 5 26 31 3 25 32 4 26 32 4 29 30 3 22 37 3 30 53 3 40 54 2 40 55 3 41 254 255 255 255 255 255 254 255 255 255 255 255 255 255 255 255 255 255 255 255 255 255 255 255 255 255 255 255 255 255 255 255 255 255 255 255 255 255 255 255 255 255 255 255 255 255 255 255 255 255 255 255 255 255 255 255 255 255 255 255 27 3 16 27 3 16 26 3 13 26 3 13 26 3 13 27 5 17 25 4 13 25 2 12 26 3 13 34 5 33 26 2 15 26 3 13 25 2 12 26 3 11 25 4 13 25 4 11 25 4 13 25 2 12 25 4 13 25 4 13 26 3 13 26 3 13 24 3 12 24 1 11 26 3 13 25 2 10 26 3 11 27 4 14 26 3 13 30 3 22 31 3 25 26 3 13 26 3 13 26 3 13 25 4 13 25 1 14 25 4 13 25 4 11 26 3 13 26 3 13 
25 9 19 24 8 18 23 7 17 24 8 18 24 18 30 27 26 40 23 19 33 24 9 16 24 7 15 23 8 15 25 5 16 27 7 18 26 7 13 26 6 17 24 7 17 24 7 17 26 4 17 26 3 19 24 3 18 23 5 21 26 3 21 25 2 20 27 4 22 27 3 25 28 4 36 32 7 39 28 5 33 26 3 23 27 3 25 30 5 27 36 6 32 30 2 24 32 4 26 29 1 23 32 4 26 31 4 23 31 2 22 37 3 28 49 3 40 54 4 41 255 255 255 255 255 255 255 255 255 255 255 255 255 255 255 255 255 255 255 255 255 255 255 255 255 255 255 255 255 255 255 255 255 255 255 255 255 255 255 255 255 255 255 255 255 255 255 255 255 255 255 255 255 255 255 255 255 255 255 255 26 2 15 27 4 14 25 2 12 26 3 13 25 4 13 25 3 15 26 3 13 25 2 12 26 3 13 33 5 30 26 3 13 26 2 15 26 3 13 26 3 13 24 3 12 25 4 11 25 2 12 26 3 13 26 3 13 28 2 13 26 3 13 26 3 13 28 2 13 27 4 14 25 2 10 26 5 14 26 3 13 25 2 12 26 3 11 31 4 21 29 4 23 26 3 11 26 3 13 26 3 13 26 3 13 25 4 13 25 1 14 25 4 13 26 3 13 25 2 12 
24 8 18 25 9 19 25 7 19 23 15 28 24 23 39 24 20 35 24 8 18 24 7 15 24 7 17 24 7 15 24 7 15 25 5 14 25 5 16 26 6 17 26 4 16 26 4 17 26 3 19 25 2 18 25 2 18 25 4 21 25 2 20 26 3 21 26 3 21 28 5 33 31 7 41 29 6 35 26 2 26 27 4 24 28 3 22 32 4 27 36 6 34 31 3 25 30 3 22 30 2 24 29 4 23 31 2 20 33 4 24 32 3 23 34 2 23 38 4 31 255 255 255 255 255 255 255 255 255 255 255 255 255 255 255 255 255 255 255 255 255 255 255 255 255 255 255 255 255 255 255 255 255 255 255 255 255 255 255 255 255 255 255 255 255 255 255 255 255 255 255 255 255 255 255 255 255 255 255 255 27 3 16 26 3 13 25 2 12 26 3 13 25 2 12 26 2 15 25 2 12 27 4 12 26 3 13 34 5 33 27 3 16 26 3 13 26 3 13 27 3 16 25 2 12 26 3 11 26 3 13 26 3 13 27 4 14 27 4 14 26 3 13 26 3 13 26 3 13 25 2 12 26 3 11 25 2 12 25 4 13 27 4 14 26 3 13 31 4 23 32 4 27 26 3 13 26 3 13 26 3 13 26 3 13 26 3 13 25 2 12 26 3 11 27 4 14 26 3 11 
24 8 19 23 10 19 25 14 28 25 24 40 24 22 36 24 8 19 24 7 17 26 6 17 23 6 16 23 6 16 26 6 15 25 5 16 25 5 14 25 5 16 26 4 16 25 3 16 26 4 17 25 2 18 26 3 19 26 3 21 25 4 19 26 5 22 26 4 27 28 6 42 29 5 41 27 4 30 28 3 24 26 3 21 28 3 22 29 4 25 36 6 32 30 3 22 31 4 23 31 4 21 31 2 20 30 3 20 32 3 21 30 3 20 32 3 23 32 3 21 255 255 255 255 255 255 254 255 255 254 254 254 255 255 255 255 255 255 255 255 255 255 255 255 255 255 255 255 255 255 255 255 255 255 255 255 255 255 255 255 255 255 255 255 255 255 255 255 255 255 255 255 255 255 255 255 255 255 255 255 26 3 11 26 3 13 25 4 13 24 3 10 26 3 11 27 4 14 26 3 13 25 2 12 28 2 13 34 6 31 27 4 14 26 3 13 26 3 13 25 2 12 25 2 12 25 2 10 26 3 11 26 3 11 25 2 10 26 3 11 26 3 11 25 2 10 25 2 10 25 2 10 26 3 11 26 3 13 26 3 11 26 3 13 24 3 10 31 4 23 31 4 23 26 3 13 25 2 12 26 3 13 26 3 13 27 1 12 26 3 11 27 1 10 25 2 10 24 1 9 
24 8 18 25 14 28 26 26 38 26 24 38 23 10 20 25 8 18 25 8 18 23 6 14 25 5 14 25 5 14 24 7 17 25 5 14 26 6 15 24 4 15 25 3 15 25 3 16 26 4 17 25 2 18 25 2 18 26 3 21 26 3 19 26 3 23 28 4 36 30 6 38 30 5 35 34 5 33 33 4 32 34 5 33 31 5 30 33 4 32 37 6 38 34 4 30 34 4 30 35 5 31 38 5 32 35 5 33 37 4 31 37 5 29 36 3 30 37 5 29 255 255 255 254 254 254 254 254 254 255 255 255 255 255 255 255 255 255 255 255 255 255 255 255 255 255 255 255 255 255 255 255 255 255 255 255 255 255 255 255 255 255 255 255 255 255 255 255 255 255 255 255 255 255 255 255 255 255 255 255 32 4 27 32 4 26 31 3 25 32 4 26 32 5 24 32 4 26 33 4 26 32 4 26 32 4 26 35 4 35 32 4 27 32 4 26 32 4 26 32 4 29 31 3 25 32 4 26 31 3 25 32 4 26 31 3 25 33 5 27 32 4 26 31 3 25 33 5 27 32 4 26 32 4 26 33 5 27 32 4 27 32 4 27 32 4 26 34 4 30 34 4 28 32 4 26 32 4 26 32 4 26 34 5 27 31 3 25 32 4 26 31 3 25 32 4 27 31 3 25 
24 12 24 25 24 40 24 23 39 25 12 22 24 7 17 25 5 16 23 6 16 25 5 14 24 7 15 24 7 15 23 6 14 25 5 14 25 5 14 25 3 15 25 3 16 24 4 16 26 4 17 23 5 19 25 4 19 27 3 19 26 3 19 27 5 28 30 6 40 30 6 38 28 4 26 30 4 29 31 3 25 32 4 27 29 4 25 30 4 29 36 5 36 32 3 25 30 5 27 32 5 24 33 3 27 32 4 26 34 2 25 35 3 26 33 3 27 32 3 25 254 255 255 255 255 255 255 255 255 255 255 255 255 255 255 255 255 255 255 255 255 255 255 255 255 255 255 255 255 255 255 255 255 255 255 255 255 255 255 255 255 255 255 255 255 255 255 255 255 255 255 255 255 255 255 255 255 255 255 255 29 5 21 27 3 19 28 4 20 28 4 20 28 4 20 29 4 23 28 4 20 30 3 20 28 4 20 34 5 33 31 4 19 31 4 21 28 4 20 29 5 21 28 4 18 28 4 20 29 5 19 28 4 18 28 4 20 28 4 20 28 4 20 28 4 20 28 4 18 28 4 18 29 5 19 30 3 20 30 3 20 28 4 20 27 3 19 32 4 27 35 3 27 27 3 19 30 3 20 30 3 20 31 4 21 27 3 17 27 3 19 29 2 17 27 3 19 27 3 19 
26 24 38 22 24 37 23 11 23 25 8 18 26 6 15 24 7 15 23 6 16 23 6 14 25 5 14 23 6 16 22 5 13 24 4 13 26 4 16 24 2 15 25 3 15 24 2 15 25 3 16 26 4 17 24 3 18 27 4 22 25 4 21 29 5 37 30 6 42 29 5 31 26 3 19 28 4 20 26 3 21 28 3 22 27 2 21 30 5 26 35 5 33 28 4 17 29 2 17 30 3 20 30 3 18 29 2 17 29 2 17 30 4 17 30 2 17 30 2 17 255 255 255 255 255 255 255 255 255 255 255 255 255 255 255 255 255 255 255 255 255 255 255 255 255 255 255 255 255 255 255 255 255 255 255 255 255 255 255 255 255 255 255 255 255 255 255 255 255 255 255 255 255 255 255 255 255 255 255 255 25 2 12 26 3 13 25 2 10 26 3 13 25 2 10 26 3 13 26 3 13 25 2 12 25 2 12 33 5 30 27 4 12 26 3 13 25 2 12 26 3 13 26 3 13 26 3 13 25 2 10 25 2 10 26 3 13 26 3 13 26 3 13 25 2 12 25 2 10 26 3 11 25 2 10 26 3 11 25 2 12 26 3 13 25 4 13 31 4 23 31 4 23 25 2 12 25 2 12 26 3 13 26 3 11 25 2 10 25 2 10 25 2 10 26 3 13 24 1 9 
25 24 38 25 13 25 24 7 17 24 7 15 24 7 15 23 6 14 22 5 15 23 6 14 24 4 13 23 6 14 25 5 14 26 3 13 26 4 16 24 4 13 25 3 15 25 3 15 25 3 16 26 4 17 25 3 16 26 4 17 27 4 30 30 6 40 30 5 35 26 3 23 27 4 20 26 3 21 27 2 21 27 2 21 30 3 20 29 4 25 34 4 30 28 4 18 29 2 17 29 2 17 28 4 18 27 3 16 29 2 17 29 3 16 30 3 18 31 3 18 254 255 255 255 255 255 255 255 255 255 255 255 255 255 255 255 255 255 255 255 255 255 255 255 255 255 255 255 255 255 255 255 255 255 255 255 255 255 255 255 255 255 255 255 255 255 255 255 255 255 255 255 255 255 255 255 255 255 255 255 26 3 13 25 2 10 26 3 11 25 2 10 26 3 13 26 2 15 27 4 14 26 3 13 26 3 13 34 6 31 26 3 13 26 3 13 26 3 13 26 3 13 26 3 13 25 2 12 26 3 13 26 3 13 25 2 12 27 4 14 26 3 13 25 2 12 26 3 13 25 2 12 26 3 13 26 3 13 26 3 13 26 3 13 25 2 12 31 4 23 31 4 23 25 4 13 26 3 13 26 3 13 26 3 13 26 3 13 26 3 11 24 1 11 27 4 14 26 3 13 
26 13 23 23 8 15 24 7 15 26 6 15 23 6 14 23 6 14 25 5 14 25 5 14 25 5 14 25 5 14 25 4 13 25 4 13 25 3 15 24 4 15 25 3 16 26 4 17 25 3 16 27 3 17 25 2 18 26 3 21 30 6 38 29 5 37 28 4 28 29 2 21 26 3 21 28 4 20 29 2 21 27 3 19 27 3 19 30 5 24 34 4 30 27 3 17 30 3 18 29 2 17 29 2 17 29 3 16 29 3 16 29 3 16 29 2 17 29 3 16 255 255 255 255 255 255 255 255 255 255 255 255 255 255 255 255 255 255 255 255 255 255 255 255 255 255 255 255 255 255 255 255 255 255 255 255 255 255 255 255 255 255 255 255 255 255 255 255 255 255 255 255 255 255 255 255 255 255 255 255 26 3 13 26 3 13 26 3 11 26 3 13 25 2 12 26 3 13 27 4 14 27 4 14 25 2 12 34 5 33 27 4 14 26 3 13 26 3 13 26 3 13 26 3 13 26 3 13 25 2 12 26 3 13 26 3 13 26 3 13 27 4 14 27 4 14 26 3 13 26 3 13 26 3 13 26 3 13 26 3 13 27 4 14 26 3 13 29 4 23 30 2 24 26 3 13 25 2 12 26 3 13 26 3 13 26 3 13 26 3 11 26 3 13 26 3 13 26 3 13 
25 8 16 24 7 17 24 7 15 25 5 14 23 6 14 27 6 15 24 4 13 25 5 14 26 5 14 27 6 15 25 5 14 26 5 14 25 3 16 24 4 15 24 4 15 25 3 16 26 2 16 25 3 16 26 3 19 29 5 31 30 6 38 28 5 33 26 3 21 28 3 22 27 3 19 28 3 24 27 3 19 27 3 19 27 3 19 29 4 23 35 5 31 27 3 16 28 4 17 27 3 17 27 3 16 26 2 15 27 3 16 29 3 14 29 3 16 28 2 15 255 255 255 255 255 255 255 255 255 255 255 255 255 255 255 255 255 255 255 255 255 255 255 255 255 255 255 255 255 255 255 255 255 255 255 255 255 255 255 255 255 255 255 255 255 255 255 255 255 255 255 255 255 255 255 255 255 255 255 255 26 3 11 25 4 13 24 1 9 24 3 12 26 3 11 25 4 11 26 3 13 25 4 13 26 3 11 33 5 30 26 3 13 25 2 12 26 3 13 26 3 13 25 2 12 26 3 13 26 3 11 25 2 8 27 4 12 26 3 13 25 2 12 26 3 11 25 2 8 25 2 10 26 3 11 25 4 13 24 3 12 26 3 11 26 3 11 31 4 23 32 4 26 26 3 13 26 3 13 25 2 12 26 3 13 26 3 11 25 2 10 26 3 11 26 3 13 25 2 8 
23 7 17 23 6 14 23 6 14 25 5 14 25 5 14 24 4 13 24 4 13 26 5 14 24 4 13 25 4 13 25 4 13 25 4 13 25 3 16 25 3 15 25 5 17 27 3 16 25 3 16 26 4 17 26 1 22 30 6 40 31 6 38 30 4 29 27 3 19 28 4 20 26 3 19 28 3 22 27 3 19 29 2 17 30 3 18 28 3 22 35 5 31 26 2 15 27 3 16 28 2 15 28 4 17 26 3 13 26 2 15 27 4 14 30 4 17 28 2 13 255 255 255 255 255 255 255 255 255 255 255 255 255 255 255 255 255 255 255 255 255 255 255 255 255 255 255 255 255 255 255 255 255 255 255 255 255 255 255 255 255 255 255 255 255 255 255 255 255 255 255 255 255 255 255 255 255 255 255 255 25 2 10 24 3 10 26 3 11 24 3 10 24 1 9 25 4 11 27 4 12 24 3 10 26 3 11 34 6 31 25 2 12 25 2 10 26 3 11 25 2 12 25 2 10 24 1 7 25 2 10 25 2 10 25 2 10 25 2 10 26 3 11 26 3 11 25 2 10 25 2 10 25 4 11 26 3 11 25 2 10 26 3 11 26 3 11 29 2 19 31 4 23 25 2 12 25 2 12 26 3 11 25 2 10 26 3 11 25 2 10 26 3 11 26 3 13 27 4 14 
26 6 15 26 6 15 23 6 14 26 7 13 25 6 12 25 4 11 25 6 12 24 4 13 25 5 14 25 4 13 25 3 15 26 2 15 25 4 13 25 3 15 25 3 16 25 3 15 26 2 16 26 3 19 28 3 32 32 9 38 31 6 36 36 5 36 28 4 20 26 3 19 26 3 19 26 3 19 28 4 18 29 2 17 28 4 18 28 3 22 34 4 30 27 3 16 28 4 17 25 1 14 27 3 16 26 3 13 27 4 14 26 3 13 27 3 16 26 3 13 255 255 255 255 255 255 255 255 255 255 255 255 255 255 255 255 255 255 255 255 255 255 255 255 255 255 255 255 255 255 255 255 255 255 255 255 255 255 255 255 255 255 255 255 255 255 255 255 255 255 255 255 255 255 255 255 255 255 255 255 26 3 11 25 2 10 24 1 9 27 4 12 26 3 11 26 3 13 25 2 10 26 3 13 26 3 13 33 5 30 26 3 13 25 2 12 25 2 12 25 2 12 24 1 9 25 2 10 25 2 10 25 2 10 26 3 11 26 3 11 26 3 11 25 2 10 26 3 11 26 3 11 25 2 10 25 2 12 25 2 12 25 4 11 26 3 11 30 3 22 31 4 23 24 3 10 26 3 13 25 2 12 26 3 11 24 1 9 25 2 8 25 2 8 26 3 13 26 3 11 
24 7 17 25 5 16 25 6 12 25 5 14 24 5 11 24 4 13 23 4 10 24 5 11 24 4 15 25 2 12 27 4 14 27 3 16 25 3 15 24 2 15 26 4 17 26 2 16 26 4 17 27 4 24 31 5 40 30 6 38 32 3 31 38 7 39 33 4 32 27 3 19 28 4 18 28 4 20 29 2 19 28 4 18 27 3 17 29 4 23 33 3 29 27 3 16 28 4 17 25 1 14 25 2 12 27 4 14 26 3 13 25 2 10 27 4 14 26 3 13 255 255 255 255 255 255 255 255 255 255 255 255 255 255 255 255 255 255 255 255 255 255 255 255 255 255 255 255 255 255 255 255 255 255 255 255 255 255 255 255 255 255 255 255 255 255 255 255 255 255 255 255 255 255 255 255 255 255 255 255 25 2 10 26 3 11 25 2 8 26 3 11 25 2 10 25 2 12 26 3 11 26 3 13 26 3 9 33 5 28 25 2 12 25 2 10 26 3 11 26 3 13 26 3 11 25 2 10 26 3 11 25 2 10 25 2 10 26 3 11 26 3 11 26 3 11 25 2 10 25 2 10 26 3 11 26 3 11 26 3 11 25 4 11 25 2 10 28 4 20 31 4 21 26 3 11 27 4 14 25 2 12 25 2 12 25 2 10 25 2 10 25 2 10 26 3 13 25 2 10 
26 6 15 25 5 14 25 5 14 24 5 11 25 6 12 24 5 11 24 5 11 24 4 13 25 2 12 25 2 12 24 2 14 25 3 15 25 3 16 25 3 16 25 3 15 27 5 18 26 2 18 30 5 35 28 6 42 29 4 33 31 3 25 37 6 38 38 7 39 33 3 27 28 3 22 28 3 22 27 3 19 27 3 17 27 3 17 28 3 22 34 4 30 27 3 16 26 2 15 26 2 15 25 4 13 26 3 13 25 4 13 26 3 11 27 4 14 25 2 10 255 255 255 255 255 255 255 255 255 255 255 255 255 255 255 255 255 255 255 255 255 255 255 255 255 255 255 255 255 255 255 255 255 255 255 255 255 255 255 255 255 255 255 255 255 255 255 255 255 255 255 255 255 255 255 255 255 255 255 255 26 3 13 25 2 12 25 2 10 25 2 10 25 2 12 26 3 13 26 3 13 26 3 13 27 4 14 33 5 30 26 3 13 26 3 13 26 3 13 26 3 13 26 3 11 26 3 11 25 2 12 25 2 10 26 3 11 26 3 13 26 3 13 25 2 10 25 2 10 26 3 13 26 3 11 26 3 11 25 2 12 26 3 13 27 1 12 32 5 24 31 4 23 26 3 13 25 2 12 27 4 12 26 3 13 25 2 10 26 3 13 25 2 10 27 4 14 25 2 10 
