P3
100 50
255
29 9 37 33 8 40 32 9 38 32 9 38 29 9 37 33 7 42 32 7 39 34 9 41 32 7 39 47 8 53 45 8 52 35 8 43 35 7 45 38 6 43 37 7 43 34 9 41 36 9 44 35 8 41 36 9 44 36 9 42 41 7 44 37 7 43 34 7 42 35 8 43 35 8 43 35 8 43 39 7 46 38 8 44 41 9 48 39 9 47 60 8 70 37 7 45 39 7 48 38 7 48 40 9 53 40 9 51 37 9 50 38 9 53 38 9 57 36 8 57 37 9 60 36 9 62 20 9 67 18 12 76 18 12 76 19 10 57 19 9 59 18 10 59 19 9 61 18 9 62 24 13 73 24 14 75 21 11 71 19 10 67 21 13 73 22 12 75 19 13 73 23 13 76 27 13 75 27 13 75 26 12 74 21 14 58 24 11 55 28 9 54 25 8 50 30 14 41 34 14 42 33 14 42 34 16 42 38 16 39 40 16 40 56 28 43 67 39 53 66 35 50 50 22 37 49 22 37 48 21 38 49 21 36 50 22 37 53 22 37 52 24 39 53 22 38 57 25 40 63 32 47 68 40 54 66 42 55 65 43 55 66 42 55 66 42 55 66 44 57 67 43 56 65 41 55 66 43 53 66 42 55 67 43 57 66 44 57 65 43 56 67 43 57 67 43 57 66 44 57 
48 8 58 51 7 58 49 7 57 49 7 57 52 8 59 49 7 57 50 8 58 50 8 58 49 7 57 57 8 64 56 9 64 48 6 56 47 7 57 49 7 57 49 7 57 46 7 54 47 7 57 47 8 55 48 8 58 48 8 58 49 7 55 46 7 54 49 7 57 46 6 56 47 8 55 47 8 55 49 7 57 48 9 56 47 7 57 49 5 54 62 8 70 47 7 57 46 8 57 46 8 59 48 8 60 45 7 58 46 8 59 46 7 60 46 9 61 47 8 61 45 8 62 47 8 63 35 10 68 19 10 75 19 10 75 19 10 67 17 8 55 18 10 59 19 9 61 19 11 62 19 11 62 22 12 72 25 13 75 21 11 71 19 11 70 24 14 77 22 14 74 22 13 76 28 14 76 28 14 76 26 14 76 24 12 58 23 11 57 25 10 53 27 9 51 27 6 45 31 12 42 32 13 41 33 15 41 35 15 40 35 16 38 36 17 37 55 27 42 65 39 52 64 36 50 49 21 36 48 20 35 48 22 35 49 21 36 48 21 36 51 23 38 51 23 38 53 22 38 54 23 41 54 23 38 59 28 43 67 36 51 67 41 54 67 41 54 65 42 52 68 42 55 66 43 53 65 41 54 67 41 54 67 41 54 66 40 53 67 39 53 66 38 52 66 38 52 66 38 52 
21 7 30 26 8 34 21 6 29 23 8 31 22 7 30 25 7 33 23 7 33 25 7 33 25 7 31 42 6 50 40 7 50 22 6 32 23 7 34 24 6 32 25 7 33 24 9 32 22 7 30 22 7 30 23 8 31 23 8 31 23 7 33 23 8 31 23 8 31 21 7 30 22 7 30 22 7 30 26 8 34 23 7 33 26 8 32 27 8 36 56 9 64 23 7 34 24 8 35 24 8 37 23 8 37 23 8 37 22 7 36 19 8 40 22 8 43 21 9 45 20 8 44 20 9 49 18 8 45 19 11 70 17 11 75 20 10 73 21 9 57 20 11 58 18 8 60 18 8 60 20 10 62 19 9 62 25 11 72 25 13 77 20 10 70 21 11 72 24 14 75 24 14 75 25 13 77 25 13 75 26 14 76 24 11 65 24 11 55 22 9 52 25 9 48 26 9 45 27 10 46 31 12 44 32 13 41 34 15 43 35 15 40 36 17 39 39 16 34 54 28 41 66 38 52 63 35 49 49 22 39 44 20 36 43 19 35 46 19 38 47 20 37 47 20 37 47 20 37 48 21 38 48 21 38 47 20 35 49 20 38 51 23 38 55 24 40 56 29 44 61 33 47 64 36 51 64 38 51 64 40 53 67 41 54 67 41 54 64 40 53 66 42 55 66 42 55 65 41 54 
21 7 32 27 7 34 23 7 33 25 7 31 23 8 31 26 8 34 25 7 33 26 6 33 25 7 33 45 8 51 40 7 50 23 8 31 27 9 35 28 8 36 26 8 34 22 6 32 25 7 33 23 7 33 22 6 32 25 7 33 26 8 34 25 7 33 23 7 33 23 7 33 24 6 32 23 7 33 26 6 33 25 5 32 26 7 35 25 7 33 56 7 63 26 7 35 26 7 35 23 7 36 25 8 40 23 8 37 23 8 39 23 6 38 23 7 43 23 7 43 21 9 45 22 10 48 18 8 45 18 10 61 20 11 76 17 11 75 18 11 63 18 9 56 19 10 57 20 10 60 18 8 60 19 9 61 20 11 64 22 12 73 25 13 75 21 11 71 23 11 75 25 13 75 26 15 75 25 13 77 25 14 74 27 13 72 23 10 56 22 9 53 24 9 50 25 8 50 24 8 44 27 7 42 33 14 42 32 13 41 34 16 42 32 13 32 36 15 32 38 17 34 55 27 42 67 39 54 66 35 50 44 20 34 46 19 36 46 19 38 44 20 36 45 21 37 48 21 38 46 22 36 49 20 38 49 20 38 48 21 38 48 21 38 48 19 37 48 21 36 48 21 38 51 23 38 50 22 37 53 22 38 55 24 40 56 25 40 57 26 41 59 28 43 62 31 46 63 32 47 
22 7 30 26 6 33 22 8 33 23 7 33 21 7 30 26 8 34 25 7 31 25 7 33 25 7 33 44 9 49 39 7 46 23 8 31 25 7 33 25 7 33 26 6 33 22 6 32 23 7 33 23 7 33 23 7 33 23 7 33 25 7 33 25 7 33 23 8 31 23 7 33 22 6 32 23 7 33 26 8 34 27 7 34 27 7 32 27 7 35 57 8 64 24 8 34 28 9 37 23 7 36 25 8 40 23 8 37 22 7 36 23 8 37 22 8 41 21 7 40 20 8 44 23 9 45 18 8 45 19 8 48 20 11 76 16 11 75 19 10 65 19 10 55 19 10 55 19 10 57 19 9 59 19 9 59 19 9 59 19 9 62 22 10 76 24 13 71 21 13 72 25 13 75 25 15 76 24 12 74 25 13 77 25 13 77 22 10 58 21 10 53 24 9 50 24 9 48 25 9 45 24 8 44 27 7 42 29 10 40 30 10 37 32 13 32 33 15 31 35 14 31 37 16 33 57 29 43 67 37 49 64 33 48 44 20 34 41 17 33 43 19 35 43 19 35 45 18 35 46 19 34 45 21 37 46 19 34 47 20 37 48 19 37 48 19 37 47 20 37 48 21 38 49 20 38 51 20 36 50 22 37 51 23 38 51 23 38 51 23 38 52 21 36 52 21 36 53 22 37 
22 7 30 28 8 33 22 6 32 23 8 31 24 6 30 27 7 32 22 8 33 26 8 34 23 7 33 46 7 52 42 6 50 24 9 32 25 7 33 27 9 35 24 6 32 22 6 32 23 7 33 23 7 33 24 6 32 25 7 33 25 7 33 25 7 33 23 8 31 22 6 32 25 7 31 25 7 33 26 8 34 25 7 33 26 7 35 27 7 34 56 7 62 26 8 34 25 7 31 25 6 34 24 8 37 23 8 37 23 7 34 23 8 37 23 9 42 22 8 41 23 9 42 23 9 45 20 8 44 18 8 45 20 12 69 17 11 73 20 11 76 19 10 55 20 9 52 18 9 54 19 10 55 18 9 56 18 10 59 20 10 60 19 10 63 22 12 72 23 13 74 24 12 76 25 15 75 24 12 74 25 13 75 25 13 75 23 10 63 19 11 52 21 9 49 22 7 46 24 10 46 24 7 43 23 6 40 27 8 36 27 9 35 28 10 34 31 12 31 31 12 31 32 13 32 34 16 32 58 27 43 66 35 50 64 33 48 43 19 33 39 16 34 38 15 33 40 17 35 40 17 35 40 17 35 42 18 34 41 17 33 43 19 35 43 19 35 43 19 33 45 18 35 46 19 36 47 20 35 46 19 36 46 19 36 46 19 36 46 19 36 46 19 36 48 21 38 49 20 38 
21 8 28 22 6 32 21 7 30 21 8 28 19 7 29 22 7 30 23 8 31 23 8 31 22 7 30 44 7 50 39 8 49 22 7 30 23 8 31 24 9 32 22 7 30 21 7 30 20 6 29 20 6 29 22 8 31 23 8 31 23 8 31 25 7 31 21 7 30 21 7 30 21 7 30 20 8 30 23 7 33 22 7 30 23 7 33 25 7 33 57 8 64 23 7 33 23 8 31 21 8 34 23 7 36 21 8 34 21 7 33 20 7 35 22 9 37 17 8 37 18 8 42 20 9 43 17 10 43 18 8 43 18 10 57 16 10 74 18 12 76 18 11 63 19 10 53 18 9 56 18 9 56 18 9 56 19 9 59 19 9 61 19 9 62 19 10 63 23 13 74 25 13 77 24 12 74 22 14 74 25 13 75 25 13 75 23 12 68 21 10 52 21 8 51 21 10 44 21 9 45 23 7 43 24 9 42 24 8 37 26 10 36 27 9 33 28 10 32 30 13 31 31 14 30 31 12 31 33 14 33 56 28 42 66 36 48 62 31 46 43 20 36 38 17 34 40 17 35 40 17 33 38 17 34 40 17 35 39 16 32 39 16 34 39 17 30 39 16 34 39 16 32 41 16 35 41 17 33 42 18 34 43 19 35 44 20 36 43 19 35 43 19 35 46 19 34 46 19 36 
22 7 28 23 7 33 22 7 30 22 8 31 21 7 30 23 8 31 23 8 31 25 7 31 23 8 31 44 7 50 40 8 47 23 8 31 23 8 31 23 7 33 23 8 31 21 7 30 23 8 31 21 7 30 22 8 31 23 7 33 24 6 30 22 9 29 22 7 30 20 6 29 22 8 31 21 7 30 23 7 33 23 8 31 26 6 34 27 7 34 57 8 64 26 8 34 24 8 34 22 6 33 24 8 37 22 8 34 21 7 33 22 8 34 21 8 38 18 7 39 20 9 41 22 8 43 17 7 42 19 9 44 19 9 46 17 11 71 19 13 77 18 12 74 17 8 53 18 9 54 18 9 56 20 8 56 18 9 56 20 11 58 19 10 55 19 9 59 19 11 62 22 11 71 24 14 75 23 13 74 23 13 76 24 12 76 26 12 73 19 10 55 21 9 49 21 9 47 21 9 47 23 9 44 22 8 41 24 7 39 26 10 36 25 10 33 25 9 35 27 13 30 29 12 31 30 13 31 30 13 31 32 13 32 57 29 44 67 35 48 66 36 48 66 32 46 62 31 46 60 29 44 58 30 44 57 29 44 56 28 42 56 28 43 55 27 41 55 27 42 53 25 40 52 24 39 51 24 39 50 23 40 50 23 38 48 21 38 48 21 38 47 23 37 47 23 39 50 24 37 
20 6 29 24 6 32 20 6 29 21 7 30 20 6 29 22 6 32 23 8 31 22 7 30 20 8 30 43 6 49 39 8 49 23 8 31 23 8 31 23 7 33 23 8 31 21 7 30 21 7 30 21 7 30 21 7 30 22 6 32 22 7 30 22 9 29 21 6 29 21 7 30 20 6 29 21 7 30 22 6 32 23 8 31 23 7 33 26 8 32 58 7 64 24 9 32 23 7 33 22 8 33 22 8 34 23 9 34 20 7 33 21 7 33 21 8 36 18 7 37 19 8 38 22 8 41 18 9 40 17 7 41 19 9 43 18 10 59 18 12 76 18 12 74 17 9 60 20 9 52 18 9 54 18 9 52 18 9 56 18 9 56 19 9 59 19 11 58 18 8 60 18 10 59 21 11 71 25 13 77 25 13 75 24 12 74 24 12 74 21 12 59 20 9 51 22 10 50 21 9 47 21 9 45 21 7 40 21 8 38 24 8 37 25 11 34 26 11 34 26 11 32 27 12 31 27 12 31 29 12 31 30 13 31 32 13 32 50 23 40 62 31 46 65 35 47 66 34 49 66 34 49 67 35 50 66 35 50 67 37 49 66 36 48 67 37 49 67 36 51 66 36 48 66 35 50 65 37 49 66 36 48 67 37 49 66 36 48 66 36 48 67 37 49 66 35 50 67 36 51 
22 7 30 25 7 33 22 6 32 22 7 30 22 8 31 25 7 33 23 7 33 25 7 33 23 7 33 45 8 52 39 7 48 23 7 33 25 7 33 24 6 32 25 7 33 21 7 30 22 6 32 23 8 31 22 6 32 25 7 33 23 7 33 24 6 30 22 7 30 23 8 31 22 7 30 23 8 31 25 7 33 23 7 33 26 6 33 26 6 33 57 8 64 24 6 32 22 8 33 23 7 33 24 8 35 22 8 34 23 9 35 22 8 34 23 8 37 21 8 38 21 8 38 23 9 42 19 8 40 19 9 43 18 8 43 19 9 46 18 12 74 20 11 74 19 11 70 18 9 52 18 9 52 17 10 54 19 10 57 18 9 56 18 10 57 19 9 59 19 9 59 19 10 57 18 10 59 22 11 71 24 12 74 25 13 77 26 14 76 25 12 68 21 10 52 21 10 50 20 8 44 24 8 45 21 7 40 21 7 40 23 8 37 23 9 35 25 10 33 24 11 31 26 11 32 26 11 30 28 10 32 26 12 29 29 15 32 30 13 29 36 15 32 40 17 35 39 16 34 39 18 33 40 17 35 43 20 38 44 21 37 47 23 39 50 23 38 55 24 40 56 25 41 59 26 45 59 28 43 59 28 43 59 28 43 60 29 44 59 31 45 59 31 45 60 32 46 60 32 46 
22 8 31 26 8 34 23 7 33 22 7 30 21 6 29 25 7 33 25 7 33 25 7 33 22 6 32 46 9 53 40 8 49 23 7 33 26 8 34 24 8 34 24 8 34 22 8 31 22 6 32 21 7 30 22 8 31 23 7 33 25 7 33 22 7 30 22 7 30 23 8 31 23 8 31 23 8 31 26 7 35 22 8 33 25 7 33 27 7 34 56 7 63 23 7 34 25 7 31 24 8 34 25 7 33 23 7 34 24 8 35 21 7 33 24 7 39 22 7 38 22 7 36 21 7 40 20 9 41 18 8 42 17 7 42 19 9 46 19 9 59 19 10 73 19 10 73 20 11 66 19 10 53 18 9 56 18 9 56 18 8 58 19 9 59 19 9 59 19 9 59 19 9 59 19 9 59 21 10 66 24 12 74 25 13 75 24 12 74 25 13 75 19 8 51 20 9 49 21 9 45 22 10 46 22 8 43 22 9 39 23 8 39 23 8 37 24 10 35 23 9 32 24 11 29 26 11 32 26 12 29 27 12 31 26 11 30 29 12 30 30 13 31 30 13 29 32 13 32 31 12 31 33 14 33 32 14 30 33 15 31 34 16 32 36 15 32 36 15 32 36 15 32 36 15 32 36 15 32 36 15 32 36 15 32 37 16 33 38 17 34 37 16 33 39 16 36 39 16 34 
21 7 30 26 8 34 22 7 30 22 7 30 22 7 30 25 7 33 26 8 34 26 8 34 22 6 32 44 7 50 40 8 49 23 8 31 25 7 33 25 7 33 25 7 33 22 7 30 23 7 33 23 8 31 23 8 31 25 7 33 26 8 34 23 8 31 22 7 30 22 7 30 22 7 30 23 8 31 25 6 34 22 8 33 25 7 33 27 7 34 58 7 64 25 7 33 26 8 34 23 7 33 26 8 34 24 8 34 23 7 33 21 6 35 22 7 36 22 8 34 22 9 35 22 8 41 18 7 37 17 8 39 18 8 42 19 9 43 18 8 45 19 10 73 20 11 76 19 10 73 19 10 57 20 9 52 18 9 54 19 10 57 18 9 56 19 10 57 18 8 58 19 10 57 19 9 59 18 9 56 21 10 66 25 14 74 24 12 74 25 13 75 20 11 58 19 8 48 20 8 44 19 9 44 19 8 40 19 8 38 22 8 41 23 8 37 22 8 34 24 10 35 22 10 30 24 11 31 24 11 29 23 10 27 26 12 29 27 12 31 26 11 30 30 13 31 30 13 31 31 14 30 33 12 31 31 13 29 32 14 30 32 14 30 33 15 31 34 16 30 34 16 32 34 16 32 36 15 32 36 15 32 37 16 33 36 15 32 37 16 31 37 16 31 38 15 33 40 15 34 
21 7 30 26 8 34 22 6 32 23 8 31 22 6 32 27 7 34 25 7 33 25 7 33 23 7 33 45 8 52 40 8 49 23 7 33 25 6 34 25 7 33 27 7 35 23 8 31 22 6 32 22 7 30 25 7 33 24 6 32 23 7 33 24 6 30 23 8 31 22 7 30 23 8 31 23 8 31 25 6 34 23 7 33 25 7 33 27 7 34 56 7 63 23 8 31 25 7 33 23 7 33 25 7 33 24 9 32 23 7 33 22 8 34 22 7 36 21 7 33 23 8 37 22 8 43 19 8 40 17 6 38 19 8 42 17 7 42 18 8 43 18 9 52 21 12 75 20 11 78 20 10 71 19 8 51 17 8 51 18 9 56 19 10 57 19 10 57 18 9 56 19 10 57 19 10 55 18 9 56 18 9 56 22 11 71 23 13 74 24 12 74 20 11 64 20 9 49 20 8 46 19 9 44 18 8 42 20 9 39 19 8 38 23 8 39 22 7 36 22 8 33 23 10 30 23 11 31 23 10 30 23 12 29 24 11 29 27 10 29 25 10 29 26 11 30 27 13 30 27 13 30 30 13 31 30 13 31 30 13 31 31 14 30 30 13 29 31 14 32 32 13 32 33 14 33 32 14 30 34 13 32 35 14 31 32 14 30 33 14 33 35 14 31 35 14 31 36 15 32 
21 8 28 25 7 33 24 6 30 22 7 30 21 7 30 25 7 31 24 6 30 25 7 31 22 7 30 45 8 51 38 7 48 22 8 31 25 7 33 23 7 34 23 8 31 21 7 30 21 7 30 22 8 31 22 7 30 22 6 32 22 8 31 22 7 30 22 7 30 22 8 31 20 6 29 21 7 30 23 7 33 22 7 30 25 7 31 27 7 34 56 7 63 22 7 30 23 8 31 22 6 32 22 6 32 22 7 30 23 7 33 21 7 32 21 8 34 23 9 35 23 7 34 19 8 38 19 8 38 18 7 39 22 9 39 15 7 44 19 9 44 20 8 44 18 10 69 20 11 74 20 11 76 19 9 61 21 10 53 18 9 54 18 9 54 18 9 56 21 9 55 18 9 56 19 10 55 18 9 56 18 9 56 19 10 57 22 11 69 24 12 74 23 13 73 17 9 48 21 9 47 19 9 43 18 8 43 19 8 40 21 8 38 22 9 39 19 9 34 22 8 34 23 9 32 22 9 29 22 9 29 22 9 29 21 9 29 21 8 26 23 10 28 24 9 28 24 11 29 26 12 29 24 11 29 25 10 29 25 10 29 26 12 29 26 11 30 27 13 30 27 12 31 28 11 30 31 14 32 30 13 31 30 13 31 31 12 31 30 13 31 30 11 30 31 12 31 32 13 32 
20 6 29 25 7 33 22 7 30 22 7 30 21 8 28 23 8 31 24 9 32 23 8 31 23 8 31 45 8 51 38 6 47 22 7 30 23 7 34 23 8 31 26 8 32 21 7 30 21 7 30 21 7 32 23 8 31 23 8 31 23 8 31 22 7 30 22 7 30 21 7 30 21 7 30 21 8 28 25 7 33 25 7 29 26 8 34 25 7 31 56 7 62 24 9 32 22 7 30 23 7 33 23 8 31 21 7 30 23 7 33 23 7 33 21 7 32 22 8 34 22 8 34 20 7 35 17 6 38 18 9 40 18 7 39 19 8 40 20 9 43 19 9 44 20 9 52 19 10 73 20 11 76 20 11 74 21 9 55 18 9 52 20 8 54 18 9 54 17 8 53 20 8 54 19 10 57 18 9 54 20 8 56 18 9 54 18 9 56 21 11 72 23 13 76 18 9 54 19 8 48 18 8 45 18 8 43 17 7 41 17 8 39 19 10 39 18 8 35 21 7 33 21 9 33 21 9 31 22 9 29 21 9 29 21 9 29 21 9 29 21 8 26 22 9 27 23 10 28 22 11 28 22 9 27 23 10 28 22 9 29 22 11 28 23 10 28 23 10 28 25 10 29 24 9 28 23 10 28 24 11 29 23 10 28 24 11 29 24 11 29 23 10 28 24 11 29 24 11 29 
21 8 28 23 8 31 21 8 28 21 7 30 20 6 29 23 7 33 23 8 31 25 7 31 22 7 30 43 8 50 37 7 45 22 7 30 23 7 33 22 6 32 23 7 33 20 6 29 21 9 31 21 7 30 22 8 31 22 8 31 23 8 31 22 7 30 21 8 28 20 8 30 21 8 28 21 8 28 23 8 31 22 7 30 23 8 31 24 8 34 56 7 63 22 8 33 22 7 30 22 7 30 24 6 32 23 7 33 21 6 29 23 8 31 22 8 34 22 8 34 22 8 34 22 7 36 20 7 35 18 7 37 18 7 37 19 8 40 22 8 43 18 8 43 20 8 44 20 10 62 20 11 74 19 10 75 20 11 68 19 8 51 20 9 52 19 7 53 18 9 54 18 9 54 20 8 56 17 8 55 18 9 52 19 7 53 19 10 55 24 12 74 23 13 76 20 10 62 18 10 49 17 9 46 16 9 43 18 8 43 18 8 42 18 9 40 18 9 38 18 8 35 22 8 34 18 10 33 21 10 27 21 10 27 21 9 29 21 9 29 21 8 28 22 9 29 22 9 27 22 9 26 23 10 28 23 10 28 22 9 26 23 10 27 22 9 27 23 12 29 21 10 27 21 9 29 23 10 28 22 9 27 22 9 27 22 9 27 22 9 27 22 9 27 23 10 28 23 10 28 
21 7 30 25 7 33 21 7 30 22 7 30 22 6 32 24 6 32 25 7 31 26 8 32 21 7 30 45 8 51 39 7 48 23 7 33 25 7 33 25 7 33 25 7 33 21 7 30 22 7 30 21 7 30 22 7 30 22 8 31 22 8 31 21 6 29 22 7 28 21 6 29 22 7 30 22 7 30 25 7 33 22 7 30 25 7 33 25 7 33 57 8 63 22 7 30 24 6 30 25 7 33 23 7 33 22 7 30 22 8 33 22 6 32 23 7 34 23 7 34 23 9 35 22 7 36 21 8 36 18 9 38 18 9 40 17 8 39 22 8 43 19 8 42 20 8 44 20 9 49 21 11 72 21 12 75 19 10 75 22 10 60 20 9 51 19 8 51 18 9 52 18 9 54 20 8 54 18 9 56 18 9 54 20 8 54 17 9 60 24 12 74 24 12 76 22 11 71 19 8 48 19 8 48 19 9 44 18 8 42 17 7 41 17 8 39 18 9 40 17 8 37 20 7 35 19 9 34 17 10 28 20 9 26 21 10 27 22 9 29 20 9 26 20 8 28 21 9 29 22 9 27 23 10 28 22 9 27 22 9 26 23 10 28 22 9 27 21 9 29 21 10 27 20 9 26 22 9 27 22 9 27 22 9 27 22 9 27 22 9 27 22 9 27 23 10 28 22 9 27 
22 7 30 27 7 34 25 7 31 26 8 32 22 8 31 25 7 33 26 8 34 26 7 35 25 7 31 48 6 52 40 8 49 26 8 34 26 7 35 27 7 34 23 7 33 23 8 31 23 7 34 23 7 33 23 7 33 24 8 34 25 7 33 23 7 33 23 8 31 25 7 31 22 7 30 23 7 33 26 8 34 26 8 34 25 7 33 28 8 35 57 8 64 27 7 32 26 8 34 26 6 33 27 7 35 26 8 34 23 7 33 22 6 32 23 7 34 23 7 36 24 8 37 24 8 37 23 7 36 23 8 37 23 10 40 23 8 41 24 9 42 23 8 41 22 8 44 23 8 49 33 10 64 23 11 73 24 12 74 22 11 71 22 8 57 22 9 52 24 8 53 20 9 52 21 10 53 21 9 57 17 8 53 21 9 55 19 10 63 25 13 75 23 13 74 24 12 74 17 8 53 17 9 48 18 7 47 18 8 43 19 9 43 16 9 42 17 8 39 17 8 37 17 8 37 18 8 33 16 8 32 17 9 32 19 10 31 20 8 28 20 9 26 21 10 27 22 9 29 21 9 29 20 8 28 20 8 28 20 8 28 21 9 29 20 9 26 21 10 27 23 10 28 22 9 27 22 9 27 22 9 27 21 8 26 22 9 27 22 9 27 22 9 27 22 9 27 23 10 28 
23 8 31 27 7 34 22 7 30 21 7 30 24 9 30 25 7 33 25 7 31 26 8 34 24 9 32 44 7 51 39 7 48 23 7 33 27 9 35 26 8 34 25 7 33 23 8 31 23 7 33 23 8 31 23 7 33 26 8 34 26 8 32 25 7 33 23 8 31 22 6 33 25 7 31 25 7 33 26 8 34 25 7 33 26 6 33 27 7 34 56 7 62 26 8 34 25 7 33 25 7 31 26 6 33 22 8 33 25 7 31 22 7 30 24 8 34 24 5 33 25 9 36 24 8 37 22 7 36 22 9 37 23 8 37 23 8 39 23 7 43 23 8 41 24 8 44 24 8 44 48 9 64 27 8 64 22 12 75 22 12 73 22 10 72 21 9 59 21 10 53 22 9 53 21 9 57 18 9 54 18 9 54 20 8 54 23 14 71 24 14 75 23 11 75 24 12 76 22 11 67 20 9 51 17 9 46 18 8 43 18 8 43 20 9 43 17 8 39 18 9 38 17 8 37 17 8 35 17 7 32 18 8 32 17 9 32 17 10 28 20 9 26 20 8 28 20 9 26 21 9 29 20 8 28 20 8 28 20 8 28 20 9 26 21 10 27 22 9 27 22 9 27 22 9 29 22 9 27 21 10 27 21 10 27 22 9 27 23 10 28 20 9 26 20 9 26 22 9 27 
22 7 30 25 7 33 22 7 30 23 7 33 22 7 30 25 7 33 26 8 32 26 8 34 25 7 33 46 7 52 43 8 50 23 8 31 26 8 34 26 8 34 25 7 33 23 8 31 23 8 31 23 8 31 23 7 33 27 7 34 26 8 32 24 9 32 24 8 34 23 8 31 25 7 31 25 7 31 26 8 34 25 7 33 26 7 35 28 8 35 57 8 64 26 8 34 26 6 33 26 8 34 27 7 34 23 7 33 23 7 34 23 7 33 23 7 33 24 6 32 23 7 33 25 9 36 23 7 36 23 7 36 23 9 35 23 8 37 23 8 41 22 8 43 24 8 44 24 9 42 50 9 67 34 8 56 23 11 61 22 10 74 23 12 72 21 11 74 20 9 65 18 9 54 20 9 52 21 8 52 18 10 51 21 10 66 23 13 74 24 12 74 22 11 71 24 12 74 22 10 74 20 9 51 17 9 46 19 7 43 18 8 43 18 7 41 17 7 41 20 6 39 19 8 38 17 8 35 17 7 32 16 8 32 18 8 33 16 8 31 18 9 30 18 9 28 21 9 29 19 10 27 21 10 27 21 10 27 21 9 29 21 10 27 21 10 27 22 9 27 21 8 26 22 9 27 23 10 28 22 9 27 21 8 26 21 8 26 21 8 26 23 10 28 22 9 27 21 8 26 
27 7 34 30 7 36 28 8 35 27 7 35 28 8 36 28 8 36 31 8 36 31 7 39 30 7 36 46 7 52 43 8 50 30 7 36 29 9 37 31 8 37 29 9 37 29 9 36 28 8 36 27 7 34 28 7 38 30 7 36 30 7 35 28 8 36 27 7 34 27 7 35 27 7 32 27 7 35 31 8 37 27 7 34 30 7 36 29 9 36 58 7 63 27 7 34 29 6 35 25 7 33 27 7 35 27 7 35 27 7 34 27 7 34 26 8 34 27 7 34 27 7 35 26 7 35 24 8 37 24 8 37 23 7 36 24 8 35 25 9 38 25 8 40 24 7 41 24 8 44 50 9 65 33 7 52 25 9 48 19 9 61 22 12 73 20 11 74 19 10 73 21 10 68 18 9 54 18 9 52 22 9 62 27 13 75 24 12 74 24 12 74 19 9 61 22 11 71 23 11 73 20 11 58 17 9 46 18 8 45 16 9 43 18 8 43 18 8 45 18 7 41 17 7 41 17 8 37 16 7 34 17 8 35 17 8 35 16 8 32 16 6 31 16 6 30 16 6 30 17 8 29 15 5 29 15 6 27 17 8 29 17 8 29 16 7 26 20 8 28 20 8 28 20 9 26 20 9 26 19 8 25 20 9 26 19 8 25 19 8 25 19 8 25 20 9 26 19 8 25 
55 8 62 56 7 62 54 7 59 51 8 61 53 9 60 55 8 63 54 7 61 53 6 60 53 9 62 59 8 67 56 9 64 52 8 59 52 8 59 55 8 60 53 9 60 53 9 60 53 9 60 52 8 59 52 8 61 54 7 61 56 7 63 53 9 62 52 7 62 54 7 61 55 6 61 54 7 61 58 9 65 55 8 62 58 7 63 57 8 63 65 9 74 56 7 63 59 10 65 57 8 63 60 9 66 57 8 63 58 9 64 59 8 64 57 8 64 58 9 65 57 8 64 59 8 67 59 8 65 60 6 64 58 7 66 58 7 66 59 8 65 59 8 67 60 8 70 62 8 68 64 9 74 60 8 72 59 9 70 59 8 74 41 11 73 22 10 72 21 12 75 24 12 74 25 11 72 26 12 71 26 15 75 25 14 74 26 12 74 23 11 73 47 9 68 29 10 66 26 12 74 23 9 68 18 10 49 20 8 44 18 8 45 19 9 44 19 9 44 18 8 42 18 8 42 18 9 40 18 7 37 18 8 33 18 7 37 16 7 34 16 8 32 16 8 32 17 9 32 17 7 31 17 7 31 16 7 28 17 8 29 16 7 28 16 7 26 16 7 26 17 8 27 17 8 27 16 7 24 17 8 25 17 8 25 16 7 24 15 6 23 16 7 24 16 7 24 16 7 24 
20 6 29 25 7 31 21 7 30 22 7 30 20 6 29 25 7 31 24 6 30 23 8 31 23 8 31 44 7 50 39 7 46 23 8 31 23 8 31 25 7 31 23 8 31 21 6 27 22 7 30 21 8 28 22 7 30 22 7 30 24 9 32 22 7 30 21 6 29 21 7 30 21 6 29 21 7 30 25 7 31 23 8 31 23 7 33 26 8 32 55 6 61 23 8 31 25 7 31 22 7 30 25 7 31 20 6 29 21 6 29 22 7 30 24 6 30 22 6 32 23 7 33 25 7 33 23 7 33 21 7 32 22 8 34 22 7 36 23 6 38 23 8 37 22 9 39 21 7 40 49 9 62 35 8 49 24 10 45 22 8 43 24 9 48 21 8 51 19 10 67 23 13 74 25 14 74 26 12 73 23 13 74 28 14 75 24 13 73 20 10 60 17 9 48 18 7 49 23 11 75 23 11 73 19 8 51 19 9 46 18 8 45 19 9 46 18 8 43 18 8 43 15 8 42 17 8 39 19 8 38 18 9 38 18 8 35 17 8 37 18 8 35 17 9 32 17 7 31 18 8 32 17 8 29 16 7 28 16 7 28 16 7 28 15 6 25 16 7 26 16 7 26 15 6 23 18 7 24 15 6 23 15 6 23 16 7 24 15 6 23 16 7 24 16 7 24 16 7 24 
23 8 31 29 9 36 24 6 30 25 7 33 23 8 31 27 7 34 25 7 31 26 8 34 25 7 31 45 6 51 40 8 49 25 7 31 26 8 34 26 8 34 26 8 32 23 8 31 25 7 31 23 8 31 25 7 33 25 7 31 27 7 34 25 7 31 25 7 31 23 8 31 25 7 31 26 8 32 26 8 34 27 7 34 27 7 34 28 8 36 57 8 64 25 7 31 25 7 33 26 8 34 27 7 34 25 7 33 25 7 31 23 8 31 26 8 32 25 7 31 25 7 33 27 7 34 25 7 33 23 7 33 24 8 35 23 7 33 24 8 37 24 8 37 24 7 39 23 8 41 50 7 61 34 7 48 24 9 42 24 8 44 22 8 44 21 9 47 20 8 46 21 8 52 23 10 64 27 13 72 25 14 74 26 12 74 19 9 59 17 9 48 19 8 50 17 9 50 20 10 63 24 12 74 22 11 67 18 8 45 19 8 48 18 8 45 18 7 47 17 10 44 19 9 44 18 8 42 17 7 41 18 9 40 18 7 39 17 8 35 17 7 34 17 7 32 16 6 31 16 6 31 17 8 29 17 7 31 17 8 29 16 7 28 17 8 27 15 6 25 16 7 26 15 6 23 15 6 23 16 7 24 16 7 24 16 7 24 16 7 24 16 7 24 16 7 24 16 7 24 
23 8 31 26 6 33 22 7 30 22 7 28 23 8 31 26 8 34 25 7 31 25 7 33 26 8 32 45 8 52 40 8 49 23 8 31 25 7 33 25 7 33 25 7 33 22 7 30 25 7 31 23 8 31 23 8 31 25 7 33 25 7 33 23 8 31 23 8 31 23 8 31 22 8 31 25 7 31 26 8 34 24 6 32 26 6 33 29 6 34 57 6 63 23 7 33 26 8 34 25 7 33 27 7 34 23 7 33 24 6 30 22 7 30 24 6 30 25 7 31 25 7 33 26 8 34 23 7 33 23 7 33 23 7 34 22 8 34 23 7 36 24 8 37 26 7 37 22 7 38 50 7 60 33 8 47 23 8 41 25 8 42 23 9 44 22 8 44 20 8 44 21 9 45 23 8 47 22 9 52 21 9 55 24 9 52 20 8 46 18 10 49 19 8 50 18 7 47 20 9 52 25 14 74 26 12 74 19 8 48 19 8 48 19 8 48 18 8 45 18 8 45 18 9 62 19 11 70 18 11 65 18 10 61 17 8 53 18 7 37 15 9 35 17 7 34 15 7 31 14 6 30 16 7 28 15 5 29 16 7 28 15 6 27 17 8 27 16 7 28 17 8 27 16 7 24 15 6 23 16 7 24 17 8 25 16 7 24 16 7 24 16 7 24 18 7 24 18 7 24 
22 7 30 27 7 34 23 8 31 25 7 31 23 8 31 25 5 32 27 9 35 26 8 34 25 7 31 46 7 52 40 8 49 25 7 33 27 7 34 27 7 34 26 8 34 24 6 30 26 8 32 23 8 31 24 6 32 25 7 31 25 7 33 24 6 30 25 7 31 23 8 31 25 7 31 25 7 31 28 8 35 26 8 34 25 7 33 29 9 36 56 7 62 26 8 34 29 6 34 25 7 33 26 8 34 25 7 33 25 7 31 22 7 30 25 7 31 25 7 33 25 7 33 25 7 33 24 6 32 23 7 33 22 6 32 22 8 33 24 8 37 23 7 36 26 7 39 24 8 37 51 8 61 32 7 47 24 9 42 24 7 41 24 7 41 23 8 41 24 10 43 22 7 46 23 8 47 20 8 46 20 8 44 23 8 47 20 8 46 17 9 46 17 9 46 18 7 47 17 9 48 24 11 67 23 11 73 20 10 60 19 8 48 18 7 47 18 10 49 17 9 50 18 12 74 17 13 74 19 10 73 18 12 74 17 11 75 17 8 51 17 6 36 18 8 35 17 7 34 17 9 32 16 6 30 17 7 31 17 8 29 16 6 30 16 7 26 16 7 26 17 8 27 14 5 22 15 6 23 15 8 24 15 8 24 17 6 23 17 6 23 17 6 23 16 7 24 15 8 24 
21 8 28 25 7 31 21 7 30 22 7 30 20 7 27 24 6 30 23 8 31 23 8 31 21 6 29 44 7 48 37 7 45 23 8 31 22 7 30 22 7 30 22 7 30 20 7 27 23 8 31 21 8 28 21 7 30 22 7 30 22 7 30 22 8 31 22 8 31 21 7 30 21 6 27 22 7 30 25 7 31 22 8 31 23 8 31 26 6 31 57 8 63 22 7 30 25 7 31 24 6 30 26 8 34 21 7 30 20 7 27 22 7 28 21 8 28 22 7 30 21 6 29 24 9 32 22 7 30 21 7 30 22 7 30 22 8 31 23 7 34 23 7 34 23 7 34 23 7 34 50 8 58 31 7 41 23 8 37 23 8 39 22 7 40 23 8 37 22 9 39 22 7 38 20 9 41 21 9 45 19 10 41 21 9 45 20 8 44 18 8 45 16 10 46 20 8 46 19 9 46 19 10 57 25 10 75 22 12 73 20 9 51 17 9 50 17 9 48 18 10 51 19 10 73 19 10 73 18 9 54 17 9 58 17 12 76 17 10 61 17 6 38 17 8 35 16 7 34 17 9 33 17 7 31 17 7 31 16 6 30 17 8 29 16 7 26 16 7 26 16 7 26 16 7 24 18 7 24 16 7 24 17 8 25 16 7 24 16 7 24 16 7 24 17 8 25 16 7 24 
20 6 29 25 7 31 22 7 30 22 7 30 20 6 29 24 6 30 24 6 30 23 8 31 22 6 32 44 7 50 39 7 46 23 8 31 25 7 29 25 7 31 23 8 31 22 7 30 22 7 26 20 8 30 22 7 30 21 7 30 23 8 31 23 8 31 23 8 31 21 7 30 22 7 28 21 6 29 25 7 31 25 7 31 25 7 31 23 8 31 55 8 62 24 9 32 25 7 33 22 7 30 26 8 32 22 7 30 22 7 30 22 7 30 21 7 30 24 6 30 23 8 31 23 8 31 23 8 31 21 7 30 23 7 33 22 7 28 25 7 33 23 7 33 23 7 36 23 7 34 49 7 57 32 8 40 21 7 33 24 8 35 23 7 36 21 7 40 18 7 37 21 7 40 22 8 41 21 7 40 19 8 42 22 8 43 19 9 43 16 9 42 18 8 45 20 8 46 18 8 43 19 8 48 22 11 71 24 12 74 19 10 57 18 7 47 19 8 50 17 9 48 20 9 69 20 11 76 18 9 52 18 7 47 19 11 70 18 10 61 18 9 40 19 8 38 17 8 35 17 7 32 17 7 31 17 7 32 16 6 30 17 8 29 16 7 26 16 7 26 17 8 27 16 7 24 15 6 23 18 7 24 18 7 24 15 6 23 16 7 24 16 7 24 15 6 23 16 7 24 
20 7 27 25 7 31 21 8 28 21 7 30 20 6 29 25 7 31 23 8 31 23 8 31 22 7 30 43 6 49 38 8 46 22 7 30 22 7 30 22 7 30 22 7 30 21 8 28 20 5 28 21 8 28 22 7 30 24 6 30 23 8 31 21 7 30 21 8 28 20 8 30 21 8 28 23 5 29 25 7 31 23 8 31 26 8 34 26 8 32 55 8 62 22 7 30 22 7 30 22 7 30 24 6 30 20 6 29 21 7 30 21 7 30 21 7 30 22 7 30 22 7 30 22 7 30 22 7 30 21 7 30 22 7 30 22 7 30 23 7 33 22 7 30 22 8 34 22 8 34 48 8 58 29 8 39 26 7 35 23 7 36 23 9 35 22 8 34 20 6 39 21 8 38 18 9 38 21 7 40 21 8 38 23 8 39 18 7 39 17 8 39 18 8 43 20 8 46 18 8 43 19 9 44 20 11 58 25 14 74 22 11 69 20 9 51 17 8 51 17 9 48 19 10 63 20 11 74 17 8 61 17 10 44 19 10 67 17 10 62 17 8 39 18 7 37 17 7 34 17 8 35 17 7 32 16 6 31 16 6 30 17 8 29 15 6 25 16 7 26 16 7 26 15 6 23 15 6 23 16 7 24 16 7 24 16 7 24 16 7 24 16 7 24 16 7 24 16 7 24 
22 7 30 27 7 34 23 8 31 24 6 28 22 7 30 26 8 34 25 7 33 25 7 33 25 7 31 44 7 50 39 7 48 25 7 31 26 8 34 26 8 34 25 6 34 22 7 30 24 6 30 23 8 31 25 7 31 25 7 33 25 7 33 23 8 31 22 7 30 22 7 30 26 8 32 24 6 30 28 8 35 26 8 34 26 6 33 27 7 34 56 6 65 26 8 34 26 6 33 25 7 33 26 8 34 22 7 30 23 8 31 22 7 30 25 7 31 22 6 32 25 7 33 25 7 31 24 6 30 21 7 30 25 7 33 25 7 31 26 6 33 25 7 33 25 7 33 23 7 33 50 8 58 32 8 42 24 8 35 24 8 35 24 7 39 23 7 34 22 7 36 23 8 37 23 8 39 23 9 42 22 8 41 23 8 41 22 7 40 22 8 43 20 8 44 22 7 46 21 9 47 23 8 47 21 9 49 23 12 70 25 14 74 21 11 63 20 9 49 19 7 45 20 11 58 18 9 72 19 10 67 21 9 45 19 10 67 19 10 65 18 8 42 19 8 40 18 8 35 17 7 34 17 7 32 18 8 33 17 7 31 17 7 31 16 7 26 17 8 27 15 6 25 15 6 23 16 7 24 16 7 24 16 7 24 16 7 24 15 6 23 16 7 24 16 7 24 18 7 24 
22 7 30 26 8 34 23 8 31 23 8 31 21 6 29 25 7 31 25 7 33 26 8 34 24 6 30 45 8 51 40 8 49 25 7 31 26 6 33 24 6 32 26 8 34 23 8 31 23 8 31 21 6 29 24 6 30 23 8 31 24 9 32 23 8 31 23 8 31 23 8 31 22 7 30 22 7 30 25 7 33 25 7 31 26 8 34 28 8 35 55 8 62 25 7 31 26 8 34 24 6 30 25 7 33 24 6 32 21 6 29 22 7 30 22 7 30 23 8 31 25 7 31 25 7 31 25 7 31 21 6 29 24 6 30 23 8 31 26 6 33 25 7 33 25 7 33 26 8 34 49 7 57 33 8 40 23 7 34 25 6 38 24 8 37 24 8 35 23 9 35 22 8 34 24 9 40 22 7 36 21 6 35 24 7 41 20 9 39 22 8 41 22 8 44 23 8 47 21 10 44 21 9 47 23 8 47 27 10 62 25 14 74 26 12 74 23 10 53 19 8 48 21 10 53 20 12 72 20 11 74 18 10 51 20 10 60 21 10 68 18 8 42 18 7 39 15 9 37 17 7 34 17 7 32 18 8 33 16 7 28 16 6 30 16 7 26 16 7 26 16 7 24 18 7 24 19 8 25 17 8 25 16 7 24 15 6 23 16 7 24 18 5 23 16 7 24 16 7 24 
22 8 31 25 7 31 21 7 30 23 8 31 22 7 28 25 7 31 25 7 31 25 7 31 22 7 30 44 7 50 39 7 46 22 7 30 25 7 31 26 8 32 24 9 32 22 7 30 22 7 30 22 7 30 23 8 31 22 7 30 25 7 31 22 7 30 22 7 30 21 8 28 22 7 30 22 7 30 25 7 31 24 6 30 23 7 33 27 7 32 56 7 62 22 7 30 23 8 31 26 6 31 25 7 33 24 6 30 22 7 30 21 7 30 21 7 30 22 7 30 23 8 31 22 7 30 23 8 31 21 8 28 22 7 30 22 7 30 23 7 33 22 7 30 24 6 30 22 7 30 49 7 57 33 9 41 23 7 33 25 7 33 23 7 33 22 8 33 22 8 33 23 9 35 22 8 34 22 8 34 21 8 34 22 7 38 20 7 37 18 7 37 19 8 40 23 9 44 21 9 45 21 9 45 20 8 44 38 8 60 25 10 69 26 12 73 21 11 63 20 8 48 24 9 48 20 9 65 20 11 74 18 10 70 19 11 70 19 11 71 19 9 44 18 9 38 18 8 35 18 8 35 17 7 32 17 7 31 18 8 32 16 7 28 17 8 27 17 8 27 16 7 26 15 6 23 16 7 24 18 7 24 15 6 23 16 7 24 15 6 23 17 6 23 16 7 24 16 9 25 
21 7 30 26 8 34 25 7 31 23 8 31 23 8 31 25 7 31 25 7 33 26 8 34 24 6 30 44 7 50 40 8 49 25 7 31 27 7 34 26 6 33 26 8 34 22 7 30 25 7 31 25 7 31 23 8 31 25 7 31 26 8 32 23 8 31 22 8 31 22 7 30 25 7 31 25 7 31 27 7 34 24 6 30 27 9 35 27 7 34 56 7 62 26 8 32 25 7 33 25 7 31 25 7 33 25 7 31 24 6 30 23 8 31 26 8 30 25 7 31 25 7 31 25 7 31 25 7 31 24 6 28 23 8 31 22 7 30 27 8 36 25 5 32 26 6 33 25 7 31 52 5 57 34 9 41 24 8 34 25 7 33 26 8 34 24 8 35 23 7 34 23 7 33 23 9 35 24 8 37 22 8 34 23 7 36 22 7 36 22 9 35 21 7 40 24 9 40 25 8 44 24 10 46 20 9 43 48 9 62 32 12 65 25 14 74 26 12 71 23 10 54 21 9 49 20 9 51 20 11 68 18 10 69 19 9 69 17 8 63 18 8 43 18 7 37 17 7 34 17 7 34 14 9 32 17 7 32 17 8 29 16 6 30 16 7 26 16 7 26 15 6 23 16 7 24 18 7 24 16 7 24 16 7 24 17 8 25 14 7 23 18 7 24 15 6 23 16 7 24 
21 7 32 25 7 31 20 6 29 23 8 31 21 8 28 26 8 32 23 8 31 25 7 31 22 7 30 44 7 50 39 9 47 22 7 30 25 7 31 22 7 30 22 7 30 20 6 29 22 8 31 21 7 30 21 6 29 23 8 31 22 7 30 21 8 28 21 7 30 21 8 28 21 6 27 22 7 30 24 6 30 25 7 31 25 7 31 26 8 34 55 8 62 23 8 31 25 7 31 23 8 31 26 8 32 24 6 30 21 7 30 21 7 30 20 8 30 22 7 30 23 8 31 23 8 31 22 7 30 20 7 27 22 7 28 21 8 28 24 6 30 22 7 30 23 8 31 22 7 28 50 8 56 31 6 36 21 7 30 24 9 32 23 7 33 22 7 30 22 7 30 22 8 33 22 8 33 22 8 34 22 8 34 23 9 35 21 7 33 22 7 36 19 8 38 22 8 41 24 7 41 24 10 46 22 8 43 48 9 62 32 8 58 25 12 66 27 13 74 25 12 68 20 9 49 20 8 44 21 7 43 19 7 45 18 7 47 18 8 43 17 7 41 17 8 39 16 7 36 16 7 36 17 7 32 16 8 31 17 7 31 16 6 30 15 8 26 16 7 26 17 8 27 14 5 22 18 7 24 16 7 24 18 7 24 16 7 24 18 7 24 18 7 24 16 7 24 16 7 24 
21 7 30 25 7 31 22 7 28 22 7 30 21 6 27 25 7 29 24 6 30 26 8 32 22 7 30 44 7 48 40 8 47 23 8 31 25 7 31 24 9 32 23 8 31 22 7 30 24 9 32 20 6 29 22 7 30 22 7 30 23 8 31 22 7 30 22 7 30 21 6 27 22 7 30 22 7 30 25 7 31 24 6 30 25 7 33 27 7 32 55 6 61 23 8 31 25 7 33 24 6 30 25 7 33 22 7 28 22 7 30 20 6 29 22 7 30 23 7 33 21 6 29 22 7 30 21 7 30 20 7 27 22 7 30 21 7 30 25 7 31 22 7 30 25 7 31 25 7 31 47 8 55 31 8 37 22 6 32 25 7 31 25 7 31 23 8 31 22 7 30 23 8 31 25 7 31 23 7 33 21 7 32 23 7 36 22 8 34 23 7 34 21 8 36 23 8 41 23 8 39 23 7 43 25 8 44 48 8 61 33 7 54 24 9 52 28 13 72 28 14 75 23 10 56 20 8 46 20 8 46 19 7 43 20 8 44 18 8 45 19 8 42 17 8 37 18 7 37 17 7 34 17 7 32 17 7 31 17 7 31 19 7 29 16 7 26 15 6 25 19 7 27 16 7 24 15 6 23 16 7 24 15 6 23 17 8 25 16 7 24 18 7 24 17 8 25 14 7 23 
22 7 28 25 7 31 21 8 28 22 6 32 21 8 28 25 7 31 22 7 30 24 6 30 23 8 31 44 7 50 36 8 46 22 7 30 24 6 30 21 6 29 22 7 30 21 6 27 21 7 30 20 7 27 21 7 30 22 7 30 22 7 30 22 7 30 20 6 29 20 7 27 21 7 30 21 7 30 25 7 31 23 8 31 23 8 31 24 6 30 55 8 60 22 7 30 23 8 31 22 7 28 25 7 31 22 7 28 20 7 27 22 7 28 22 7 28 24 6 30 22 7 30 23 8 29 22 7 28 21 6 27 20 6 29 21 6 27 25 7 31 23 8 31 24 9 32 23 9 32 48 6 54 32 7 36 21 6 29 23 8 31 25 7 31 22 7 30 21 6 27 22 7 30 22 7 28 22 7 30 21 7 30 25 6 34 21 7 32 22 8 34 22 8 31 25 8 40 22 9 39 22 8 41 23 8 41 47 8 61 34 7 52 20 8 44 25 11 64 27 13 74 25 11 70 22 7 46 20 8 46 19 7 43 20 8 44 20 8 44 18 8 42 17 8 39 18 7 37 16 7 34 17 7 34 18 8 32 16 6 30 16 6 30 16 7 26 16 7 26 16 7 26 19 6 24 17 6 23 17 8 25 16 7 24 15 6 23 16 7 24 18 7 24 15 6 23 16 7 24 
22 7 30 27 7 34 25 7 31 26 6 31 23 8 31 26 6 31 26 6 33 27 7 34 25 7 31 48 7 51 42 7 49 25 7 31 27 7 32 27 7 32 23 8 31 24 6 30 26 8 32 22 7 30 25 7 31 26 6 31 25 7 31 23 8 31 22 7 30 22 7 30 25 7 31 25 7 31 27 7 34 25 7 31 30 7 33 29 6 34 57 8 63 26 6 31 26 6 33 25 7 31 26 6 31 24 6 30 22 7 30 23 8 31 24 6 30 26 8 32 25 7 31 25 7 31 25 7 31 23 8 29 23 7 33 23 5 29 25 7 33 25 7 33 26 6 33 25 7 33 50 8 58 32 7 37 26 8 34 25 7 33 26 8 34 25 6 34 25 7 31 24 6 30 24 9 32 25 7 33 23 8 31 26 6 33 26 8 34 23 7 34 24 8 34 26 7 39 24 9 40 25 8 44 24 9 42 48 8 61 35 8 53 24 8 45 25 8 52 28 13 72 27 13 74 25 11 60 21 9 47 19 7 43 20 8 44 18 8 42 18 8 42 20 7 37 18 7 37 18 8 35 17 7 32 17 7 31 17 7 31 17 8 29 16 7 26 16 7 28 15 6 25 16 7 26 18 7 24 17 8 25 17 6 23 18 9 26 17 6 23 18 7 24 16 7 24 16 7 24 
22 6 32 27 7 34 24 6 30 24 6 28 24 9 32 27 7 34 25 7 33 27 7 34 24 6 30 45 6 50 39 7 48 24 6 30 27 7 35 24 8 34 25 7 33 21 6 29 25 7 31 22 8 31 24 9 32 25 7 31 24 6 30 25 7 31 22 7 30 23 8 31 25 7 31 24 6 30 29 6 34 27 7 32 27 7 34 28 8 35 56 7 62 25 7 33 26 8 34 26 6 31 26 6 33 23 8 31 22 6 32 22 7 30 25 7 31 26 8 32 26 8 32 25 7 31 26 8 34 21 6 29 23 8 31 21 7 30 28 8 35 25 7 29 26 8 34 25 7 31 51 7 56 33 6 37 26 8 34 26 6 33 26 8 32 25 7 31 24 6 28 24 6 30 25 7 31 26 8 32 25 7 33 26 6 33 23 7 34 23 7 34 24 8 35 23 6 38 24 8 37 25 8 42 24 7 41 49 9 62 35 8 51 24 7 43 23 8 47 26 10 55 27 13 72 25 11 70 21 9 49 21 7 43 22 8 44 17 7 41 21 7 40 19 8 38 18 7 37 17 9 33 16 8 32 17 7 31 17 7 31 17 8 29 16 7 28 17 8 27 15 6 25 16 7 26 19 8 25 16 7 24 15 6 23 16 7 24 15 6 23 18 7 24 15 6 23 16 7 24 
25 7 31 28 8 35 24 6 30 23 8 31 23 8 31 27 7 34 25 7 33 26 6 33 26 8 32 45 6 50 40 8 49 26 6 33 25 7 33 26 6 33 27 7 32 24 6 30 24 6 30 25 7 31 25 7 29 25 7 31 25 7 31 24 9 32 24 9 32 25 7 31 25 7 31 23 8 31 26 8 34 25 7 31 27 7 34 29 6 32 56 7 62 25 7 31 26 6 33 26 8 34 25 5 32 26 8 32 23 8 31 25 7 31 26 8 32 25 7 33 25 7 31 24 6 32 23 8 31 24 6 30 23 8 31 21 6 29 27 7 32 23 7 33 27 7 34 26 7 29 50 6 55 34 7 40 26 8 32 26 8 34 25 7 33 26 8 32 22 7 30 23 8 31 26 8 32 25 7 33 23 8 31 27 7 32 24 6 32 23 7 33 23 7 34 26 7 37 26 7 37 27 7 42 23 8 39 51 8 62 35 6 50 25 10 43 26 9 45 26 8 48 26 13 67 28 12 74 26 12 63 22 8 43 23 9 44 18 8 42 23 8 39 20 6 39 17 8 35 18 8 35 17 7 32 18 8 32 16 7 28 17 8 29 17 8 29 16 7 26 15 6 23 15 6 23 17 5 25 17 8 25 16 8 23 16 7 24 18 7 24 18 7 24 18 7 24 16 7 24 
22 7 30 24 6 32 22 7 28 22 7 30 22 7 30 25 7 31 25 7 31 25 7 31 25 7 31 43 6 49 40 8 47 25 5 30 25 7 31 25 7 31 25 7 31 22 7 28 21 6 29 22 7 30 22 7 30 23 8 31 24 9 32 22 7 30 22 7 30 21 7 30 22 7 30 22 7 28 25 7 31 23 8 31 25 7 31 26 8 32 55 8 62 23 8 31 24 6 32 25 7 31 26 8 32 22 7 30 22 7 30 22 7 30 22 7 30 24 6 30 22 7 30 23 8 31 22 7 30 22 7 28 22 7 28 22 7 30 23 9 32 25 7 33 23 9 32 24 6 28 50 8 56 31 6 36 24 6 30 25 7 31 25 7 31 24 6 30 22 7 28 21 6 27 23 8 31 23 8 31 22 7 28 26 8 32 23 8 29 23 7 33 22 8 33 26 7 35 24 8 37 26 7 37 23 8 37 47 9 60 34 8 47 24 9 42 24 9 42 23 7 43 25 10 53 25 14 74 27 13 74 21 10 52 19 8 42 15 8 41 22 8 41 19 8 38 17 6 36 17 7 34 18 8 33 17 7 31 17 7 31 17 8 29 16 7 26 16 7 26 17 8 27 16 7 24 15 6 23 18 7 24 18 7 24 16 7 24 16 7 24 18 6 26 19 8 25 16 7 24 
44 7 51 46 7 54 46 7 52 46 7 52 45 6 51 46 7 54 46 7 54 47 7 57 45 7 54 55 8 62 53 9 60 44 6 53 46 7 54 46 7 52 46 7 52 45 8 52 44 7 51 44 7 51 46 7 52 46 7 54 47 8 53 46 7 52 45 8 52 45 8 52 45 8 52 45 6 51 49 7 55 47 8 53 47 8 53 46 7 52 60 8 70 45 8 51 45 7 54 45 6 51 45 6 51 45 6 51 44 7 51 44 7 51 45 8 52 46 7 52 44 6 55 45 8 52 44 6 53 43 6 50 44 7 51 44 7 51 46 7 54 44 6 53 46 7 54 44 7 51 57 6 63 50 8 56 45 6 51 45 8 52 46 7 54 44 7 51 44 7 50 44 6 53 45 8 52 45 8 52 45 8 52 46 7 54 44 7 51 45 7 54 45 7 54 47 7 57 45 9 57 47 7 59 45 7 56 58 8 67 50 7 61 46 8 59 46 7 60 46 8 59 46 7 60 30 11 66 27 13 74 25 12 68 23 9 45 18 9 40 22 8 41 17 6 38 18 7 37 18 8 35 17 7 31 18 8 35 16 6 30 17 8 27 16 7 28 17 8 29 16 7 26 17 8 27 16 7 26 18 6 26 18 7 24 19 8 25 16 7 24 16 8 23 16 8 23 18 7 24 
38 8 42 39 7 44 37 7 41 38 6 43 36 9 42 39 8 42 39 7 44 39 9 45 38 7 41 51 7 56 48 9 56 38 7 41 39 7 44 39 8 42 39 7 46 38 8 42 38 6 43 37 7 41 38 6 43 39 7 44 39 7 44 38 7 41 37 7 41 37 7 41 38 7 41 37 7 41 39 7 44 39 8 42 41 6 46 39 7 44 60 6 64 40 8 45 39 7 44 38 6 43 40 8 45 38 6 43 38 8 44 38 6 43 39 7 44 40 8 45 40 8 45 40 8 45 38 8 42 38 7 41 38 6 43 38 8 44 41 6 46 39 7 44 42 7 47 38 6 43 56 7 62 44 7 50 41 7 44 40 8 45 42 8 45 39 7 44 37 7 43 38 6 43 39 8 42 39 7 44 38 6 43 40 9 43 37 7 41 38 8 44 38 8 44 37 7 45 38 8 46 38 8 46 38 8 46 55 8 62 45 7 54 37 8 52 39 7 54 36 7 55 37 8 52 27 9 49 26 12 71 26 12 73 23 10 54 21 8 38 21 8 36 18 7 39 16 7 34 17 8 35 17 7 32 17 7 32 18 8 32 18 9 30 16 7 28 16 7 28 16 7 26 15 6 25 18 7 24 15 6 23 16 7 24 18 7 24 17 6 23 16 7 26 15 6 23 18 7 24 
23 8 31 25 7 33 25 7 29 24 9 30 22 7 28 26 8 32 25 7 31 25 7 31 23 8 31 44 7 50 39 7 46 23 7 33 27 7 32 25 7 31 25 7 31 22 7 28 23 8 31 22 7 30 24 6 30 25 7 31 24 6 30 23 8 31 23 8 31 22 7 30 24 6 30 22 7 28 25 7 31 25 7 31 26 6 33 28 5 33 56 8 60 27 9 35 25 7 31 22 7 30 26 8 34 22 7 30 21 6 29 21 8 28 25 7 29 25 5 30 22 7 28 23 8 31 23 8 29 22 7 28 23 8 29 22 7 28 26 8 32 25 7 31 26 8 32 25 7 31 50 6 55 32 7 37 24 6 30 26 8 34 26 6 33 25 7 31 21 6 27 21 6 29 24 6 30 25 7 31 22 7 30 26 6 33 23 8 31 22 6 32 24 6 32 26 7 35 23 7 34 24 8 37 23 7 34 49 6 59 34 8 45 23 8 39 24 9 42 23 8 41 24 9 42 22 9 39 23 11 61 27 13 74 25 12 66 20 9 41 22 9 39 17 6 38 16 7 36 17 8 35 17 7 32 17 7 32 17 7 31 16 6 30 17 8 29 16 7 28 16 7 26 16 7 26 16 7 26 18 6 26 17 6 23 16 7 24 17 8 25 17 6 23 19 8 25 17 9 24 
22 7 30 27 7 34 24 6 30 25 7 29 24 6 30 26 8 34 26 8 34 27 7 34 26 8 32 45 8 51 42 7 49 26 8 32 27 7 34 26 8 34 26 6 33 26 8 32 25 7 33 23 8 31 25 5 30 24 6 32 27 7 32 25 7 31 24 6 30 25 5 30 25 7 31 25 7 31 27 7 34 26 8 32 30 7 35 27 7 34 57 9 61 27 7 32 25 7 33 26 6 31 26 6 33 23 8 31 26 8 30 25 7 29 26 6 31 27 7 32 25 7 31 25 7 33 25 7 31 24 6 30 24 6 30 25 7 31 28 5 33 25 7 31 27 7 32 25 5 32 49 7 55 33 8 38 25 7 31 26 8 34 27 7 34 24 6 30 26 8 32 21 6 29 26 8 32 27 9 35 25 7 31 28 9 31 24 6 32 25 7 31 22 6 32 27 7 34 26 7 35 26 7 37 23 7 36 50 7 60 35 7 45 25 8 40 24 7 41 24 9 42 25 8 44 23 8 39 24 8 44 26 13 67 27 13 74 24 11 55 22 7 38 19 8 38 20 7 37 17 7 34 16 6 33 17 7 32 17 7 31 16 6 30 16 7 28 16 7 28 15 6 25 16 7 26 18 6 26 16 7 24 16 7 24 15 6 23 18 7 24 17 6 23 18 7 24 16 7 24 
23 8 31 25 7 33 26 8 32 25 7 31 24 6 30 25 7 33 25 7 31 27 7 34 25 7 31 45 8 51 43 6 50 25 7 31 26 8 34 27 7 34 25 7 33 25 7 31 23 8 31 25 7 31 25 7 31 27 7 32 26 8 34 24 6 30 24 6 30 23 8 31 25 7 31 24 6 30 27 7 34 26 8 32 26 6 33 29 6 35 55 8 62 27 7 32 25 7 31 26 6 31 26 8 32 25 7 31 25 7 31 25 7 31 25 7 31 25 7 31 25 7 33 26 6 31 25 7 29 24 6 30 25 7 31 24 6 30 27 7 34 25 5 32 27 7 32 26 8 34 51 7 56 32 9 38 26 6 31 26 6 33 26 6 33 25 5 30 25 7 31 24 6 30 25 7 31 25 7 31 22 7 30 27 7 34 25 7 31 25 7 31 25 7 31 26 6 33 23 7 33 26 7 37 23 7 34 50 8 58 34 8 45 28 7 38 24 7 39 25 8 42 23 8 39 21 8 38 22 9 39 26 9 51 26 12 73 23 12 70 24 8 44 20 7 35 17 8 37 17 7 34 18 8 35 17 7 34 18 8 32 16 6 30 18 8 32 17 8 29 17 8 27 17 8 29 18 6 26 16 7 26 16 7 26 18 7 24 18 7 24 16 7 24 16 7 24 18 7 23 
24 6 30 27 7 34 22 7 30 23 8 29 22 7 28 26 8 34 25 7 31 27 7 32 24 6 32 44 7 50 41 6 48 26 8 32 27 7 32 25 7 31 27 7 32 24 6 30 22 7 30 22 7 30 23 5 29 22 7 30 24 6 30 25 7 31 23 8 31 22 7 30 24 6 30 23 8 31 26 8 34 24 6 30 26 8 32 26 6 34 55 8 60 22 6 32 25 5 30 26 8 32 26 8 32 25 7 29 24 6 30 21 7 30 24 6 30 25 5 30 25 7 31 26 6 31 24 9 32 22 7 28 22 6 32 24 9 30 27 7 32 24 6 30 27 7 32 26 6 31 50 6 55 33 8 40 25 7 33 25 7 31 26 8 34 25 7 31 22 7 28 25 7 31 25 7 31 25 7 31 24 6 28 27 7 34 25 7 31 24 6 30 24 6 30 25 7 31 23 7 33 23 7 36 22 6 33 50 7 60 36 9 44 23 7 36 25 9 36 24 7 39 25 10 43 22 9 39 23 8 39 24 9 40 24 11 65 26 12 73 26 10 59 20 7 37 18 7 37 17 7 34 18 8 35 17 7 32 17 7 32 17 7 31 16 6 31 16 7 28 15 6 27 15 6 27 15 6 25 17 5 25 18 6 26 18 7 24 16 7 24 15 6 23 16 7 24 17 6 23 
22 7 28 23 8 31 22 7 28 21 8 28 20 7 27 24 6 30 24 4 29 25 7 31 22 7 28 42 7 47 39 7 46 21 6 29 25 7 31 24 6 30 23 8 31 22 7 28 22 7 30 21 8 28 24 6 28 22 7 28 23 8 31 23 8 31 22 7 30 21 6 29 22 7 30 20 7 27 25 7 31 22 7 30 25 7 33 25 7 31 54 7 61 24 6 30 25 7 31 24 6 30 25 7 29 22 7 28 23 8 31 22 9 29 22 7 28 22 7 30 22 7 28 23 8 29 22 7 28 21 8 28 21 7 30 20 6 29 25 7 31 24 6 32 25 7 31 22 7 30 49 7 55 31 6 35 25 7 29 25 5 30 22 8 31 22 7 30 20 7 27 22 7 28 22 7 28 26 6 31 20 7 27 25 7 31 22 7 28 22 7 30 21 8 28 25 7 31 22 7 30 25 7 31 22 8 33 47 7 60 33 7 42 23 7 34 23 7 34 22 7 36 22 7 40 18 7 37 23 8 39 21 8 38 22 8 44 24 13 71 25 11 70 19 8 42 18 7 37 18 8 33 17 7 34 17 7 32 17 7 32 16 6 30 17 7 32 17 7 31 17 8 29 16 7 28 16 7 26 16 7 26 16 7 26 16 8 23 16 5 22 18 7 24 18 7 24 18 7 24 
21 6 29 25 7 31 21 8 28 22 7 30 21 8 28 23 8 31 23 8 29 25 7 31 25 7 31 44 7 48 39 7 46 24 9 32 26 8 32 25 7 31 24 9 32 22 6 32 22 7 30 20 7 27 22 7 30 24 6 28 24 6 30 22 7 28 21 6 27 21 6 27 22 7 28 22 7 28 25 7 31 23 8 29 26 8 32 24 6 32 54 7 59 24 6 30 23 8 31 25 7 31 22 7 30 21 6 29 22 7 28 21 8 28 22 7 28 22 7 30 23 8 29 22 7 28 21 8 28 20 7 27 21 6 27 20 7 27 25 7 31 24 6 30 23 5 31 22 7 30 50 6 55 31 6 35 23 8 29 24 6 30 25 7 31 22 7 30 22 7 28 23 8 29 23 8 31 25 7 31 22 7 28 25 7 31 22 7 28 22 7 30 22 7 28 23 8 31 22 7 30 25 7 31 23 8 31 49 7 57 33 7 42 24 8 35 24 8 35 24 8 37 23 8 37 21 8 34 21 8 38 21 8 38 22 9 39 22 10 60 26 12 73 23 11 61 17 6 36 18 8 35 18 8 35 18 8 35 17 7 32 17 7 32 17 7 31 17 8 29 17 8 29 15 6 27 16 7 26 16 7 26 16 7 26 15 6 25 18 7 24 18 7 24 18 7 24 18 7 24 
22 7 28 25 7 31 21 8 28 22 7 28 20 7 27 23 7 33 23 8 31 24 6 30 22 7 30 42 7 47 40 8 47 21 6 27 24 6 30 24 6 28 22 7 30 22 7 28 22 7 28 21 8 28 21 6 27 24 6 28 21 6 29 21 5 31 22 7 30 20 7 27 22 7 28 22 7 28 25 7 31 24 9 32 22 7 30 25 7 33 52 8 59 23 8 29 25 7 31 22 7 30 25 7 31 21 8 28 21 6 27 20 7 27 22 7 28 24 9 30 21 6 29 24 9 30 22 7 28 20 7 27 22 7 28 21 8 28 25 7 31 25 7 31 25 7 31 23 8 31 50 6 57 30 7 35 22 7 30 24 6 30 24 6 30 21 6 29 22 9 29 21 6 27 23 8 29 24 6 30 20 7 27 25 7 31 21 6 29 21 7 30 22 7 28 26 8 30 22 7 30 25 7 33 22 7 30 48 6 56 33 8 40 24 8 35 23 7 36 22 8 34 23 7 36 24 10 36 22 7 38 18 7 37 22 9 39 19 9 43 23 12 70 23 12 72 19 9 44 19 6 34 18 8 35 17 7 34 18 8 33 17 7 32 17 7 31 17 7 31 17 7 31 16 7 28 17 8 27 16 7 26 16 7 26 16 7 26 17 6 23 17 6 23 18 7 24 18 7 24 
23 5 29 26 8 32 25 7 31 25 7 31 23 8 29 24 6 30 26 8 32 28 5 31 26 6 31 45 8 51 42 6 50 25 7 31 26 6 31 25 7 31 25 7 31 22 7 28 22 7 30 22 7 28 24 6 30 25 7 31 26 8 32 24 6 30 25 7 33 22 7 30 25 7 29 22 7 28 26 6 31 25 7 31 24 6 28 29 6 34 55 8 63 25 5 30 26 8 32 25 7 31 27 7 32 22 8 31 23 8 31 22 7 30 22 7 30 26 8 32 25 7 31 24 6 30 25 7 31 23 7 33 26 6 31 22 7 30 28 8 35 26 6 31 26 6 33 24 6 30 51 7 58 32 7 37 26 8 32 26 6 33 25 7 33 25 7 31 23 8 29 24 6 28 25 7 31 25 7 31 25 7 29 27 7 32 23 8 31 24 6 30 23 8 29 27 7 32 26 8 32 27 7 34 22 6 32 49 7 57 33 7 42 23 7 34 24 8 37 26 7 37 24 8 37 24 9 38 24 9 40 21 8 38 24 9 42 19 8 38 24 10 61 23 11 73 24 11 65 21 7 40 19 9 36 17 7 34 18 8 33 17 7 34 16 6 31 17 7 32 16 6 30 17 7 31 17 8 29 17 8 27 17 8 27 16 7 24 18 7 24 17 6 22 17 6 23 19 8 25 
