P3
100 50
255
77 21 46 81 22 44 84 22 45 61 21 45 35 16 44 31 16 45 30 14 43 29 14 45 25 14 44 24 13 45 23 14 43 20 15 47 19 14 44 18 13 45 15 14 45 14 15 45 14 14 42 13 14 44 13 14 45 12 12 46 13 14 45 13 14 45 14 13 45 15 14 46 19 14 46 19 14 46 20 15 45 21 14 45 24 15 44 27 12 43 29 16 46 33 17 46 36 15 48 34 15 43 37 16 47 45 19 46 78 23 46 82 22 47 67 20 52 38 14 46 35 16 48 35 15 52 35 15 52 33 15 53 31 15 52 31 15 54 27 15 53 23 14 57 29 15 64 51 13 100 20 15 56 15 12 57 18 13 54 19 11 58 14 11 54 15 12 55 13 12 54 15 12 55 15 12 57 15 12 57 15 12 55 14 13 55 14 13 53 14 13 55 15 12 55 14 13 57 15 12 57 15 12 57 15 12 57 51 12 103 19 13 61 16 13 58 15 12 55 16 13 60 13 12 52 14 11 54 13 12 52 14 13 55 14 11 54 15 12 57 15 12 55 13 12 54 15 12 55 15 12 55 14 13 53 15 12 59 18 12 58 15 12 57 15 12 55 34 13 80 35 13 88 14 11 54 15 12 57 16 13 58 16 13 58 13 12 52 13 12 54 14 13 55 16 13 56 14 13 55 
43 17 46 65 19 45 81 23 45 81 22 44 71 22 44 35 15 42 31 16 45 30 15 44 28 15 45 27 14 44 23 14 43 24 15 46 20 13 44 19 14 44 20 15 47 17 14 45 15 14 45 15 14 45 14 13 44 10 13 44 13 14 45 13 14 45 14 13 44 14 14 42 18 15 46 17 14 45 20 15 45 24 15 46 23 14 45 28 14 47 28 15 45 34 15 45 38 14 48 35 14 45 35 14 45 36 15 46 52 19 46 81 22 50 82 23 53 59 20 51 35 15 52 33 16 52 34 13 52 35 15 52 33 16 52 31 15 54 30 15 56 27 15 55 28 14 63 54 14 102 20 13 55 18 12 58 16 14 54 18 12 58 14 13 53 13 12 52 13 10 53 14 11 54 14 11 56 15 12 55 15 12 55 13 12 54 13 12 52 13 12 54 15 12 55 16 13 58 16 13 60 16 13 58 15 12 55 50 14 104 18 12 58 15 12 57 14 11 54 15 12 57 13 12 54 14 13 55 15 13 53 14 11 54 13 12 52 14 11 54 15 12 55 13 12 54 13 12 54 13 12 54 14 13 53 15 12 57 15 12 57 15 12 57 15 12 55 33 12 81 36 12 88 15 12 55 15 12 59 15 12 57 16 13 58 13 12 52 13 12 54 14 11 54 18 12 58 13 12 52 
43 17 44 41 18 46 60 20 46 81 22 42 81 22 44 74 20 44 42 18 44 30 15 44 29 16 44 29 16 46 28 14 47 23 14 45 23 14 43 20 15 45 19 14 46 17 14 45 18 15 46 15 14 45 14 13 44 14 13 44 12 13 43 13 14 44 13 12 43 14 13 44 17 14 45 17 14 45 19 14 44 21 14 45 23 14 45 27 13 46 29 14 45 31 16 45 36 15 46 35 14 45 35 14 45 36 16 44 59 21 46 81 23 48 82 23 53 81 22 50 55 20 50 35 14 53 33 16 52 34 14 51 35 15 52 32 15 57 28 16 56 30 15 56 31 15 62 56 14 98 22 13 56 20 13 57 20 13 57 18 12 58 13 12 54 15 12 55 13 12 52 15 12 55 15 12 57 15 12 57 15 12 57 14 13 55 13 12 54 14 13 55 14 11 54 16 13 60 16 13 58 16 13 58 16 13 58 50 13 106 19 13 61 15 12 57 17 14 59 16 13 60 15 12 55 14 11 54 13 12 54 13 12 54 15 12 55 15 12 57 15 12 55 15 12 55 14 13 55 14 11 54 14 12 52 16 13 58 16 13 58 17 11 57 15 12 55 34 13 82 36 12 86 17 11 55 16 13 58 17 11 57 15 12 57 15 13 53 16 10 54 14 13 55 17 11 59 13 12 54 
43 17 46 44 15 45 43 17 44 53 21 45 77 23 46 81 22 44 79 24 47 52 19 46 31 16 45 30 16 42 28 13 44 28 15 45 22 13 44 22 13 44 21 14 45 20 15 45 17 12 44 18 15 46 17 14 45 14 13 44 14 13 44 14 13 44 14 13 44 13 12 43 14 13 44 17 14 45 17 14 43 19 14 44 23 14 43 24 13 43 28 15 45 31 16 45 29 16 44 35 14 45 35 14 45 69 19 46 81 22 44 66 20 46 67 21 49 81 22 44 79 21 43 42 17 46 35 15 50 36 15 48 35 13 51 34 14 51 29 14 53 30 15 54 31 15 62 57 15 99 22 14 53 20 13 54 17 15 54 16 14 54 14 14 52 11 13 51 12 11 51 14 13 53 12 11 53 14 13 55 13 12 52 13 12 52 13 12 52 13 12 52 14 12 52 15 12 57 14 12 52 15 12 55 15 12 55 52 11 103 16 13 58 15 12 55 14 11 54 18 12 58 13 12 52 13 12 52 13 12 52 13 12 52 13 12 52 13 12 54 13 12 52 13 12 52 13 13 51 13 12 52 12 12 50 13 12 54 15 12 55 15 12 55 12 11 53 33 12 79 34 12 85 14 11 54 12 14 55 14 13 55 14 13 55 12 12 50 13 12 54 12 11 51 16 13 56 10 14 51 
42 16 45 45 16 46 46 17 47 44 18 45 52 18 45 80 22 46 82 23 45 81 22 44 54 18 44 32 16 43 30 15 44 29 14 45 28 13 44 23 14 43 22 13 44 23 14 43 19 14 44 17 14 45 17 14 45 17 14 45 14 13 44 14 13 44 14 13 44 15 14 45 15 14 45 18 15 46 17 14 45 20 15 45 23 14 45 23 14 45 29 16 46 30 15 46 31 16 45 42 17 46 74 22 45 81 23 47 56 20 46 42 16 45 47 17 45 76 20 45 82 22 47 70 20 47 37 16 49 36 14 50 35 15 50 35 15 52 33 16 52 30 15 56 31 15 64 57 13 100 23 14 57 22 14 55 19 14 55 17 14 57 14 14 52 14 12 52 13 13 51 14 12 52 14 11 54 14 11 54 14 12 52 13 12 54 10 12 53 14 13 53 13 13 51 16 13 58 15 12 55 15 12 55 13 12 54 49 13 103 16 13 58 14 11 54 15 12 55 15 12 57 13 12 52 13 12 52 12 11 51 13 12 52 13 12 52 14 13 55 13 12 54 13 12 52 12 11 51 13 12 52 12 11 51 13 12 54 15 12 55 15 12 55 14 13 55 33 12 79 35 11 85 14 12 52 15 12 57 13 12 54 14 13 55 10 12 50 13 12 52 13 12 52 15 14 56 12 12 50 
45 16 44 42 16 43 46 17 45 43 17 46 45 16 46 51 17 42 76 22 45 82 23 45 81 22 44 58 20 45 33 17 46 28 15 43 28 13 46 28 15 45 24 14 48 23 14 43 23 14 45 19 14 44 18 15 46 17 14 45 15 14 45 13 14 44 18 15 46 17 14 45 17 14 43 17 14 45 19 14 46 19 14 44 23 14 45 24 15 46 28 13 44 30 15 46 37 17 44 76 22 45 81 22 44 51 18 45 40 17 46 43 17 44 44 18 45 52 19 46 81 22 44 82 23 45 63 21 45 40 16 48 34 13 52 35 15 52 31 15 51 30 15 54 31 15 62 58 14 99 22 13 56 23 15 56 18 13 54 18 13 54 17 12 52 15 13 50 13 13 51 13 12 52 15 12 55 13 12 54 14 13 55 13 12 52 12 11 51 13 12 52 14 12 52 15 12 57 14 11 54 14 11 54 14 11 54 48 13 103 18 12 58 15 12 55 13 12 54 17 14 59 13 12 52 11 10 50 13 12 52 13 12 52 13 12 52 15 12 55 14 11 54 13 12 52 10 12 51 14 12 52 12 11 51 14 13 55 15 12 55 15 12 57 14 13 53 32 13 79 35 12 84 13 12 52 14 11 54 13 12 54 16 13 56 13 13 51 13 13 51 12 11 51 16 13 56 12 11 51 
46 17 47 45 16 44 43 17 44 44 18 45 44 18 45 43 17 46 46 18 43 68 20 44 84 22 45 81 23 45 63 21 45 35 16 46 30 15 44 30 15 44 29 14 45 24 15 44 25 14 46 23 14 43 19 14 44 17 14 43 15 14 45 17 14 45 17 14 45 18 15 46 17 14 45 17 14 43 18 15 46 19 14 44 24 15 44 25 14 44 27 13 46 30 15 46 59 19 45 81 22 44 59 19 45 36 15 46 37 17 45 43 17 46 43 17 46 46 17 45 70 21 43 82 22 48 81 22 50 53 18 48 34 14 51 35 15 52 33 15 53 31 15 54 32 15 60 59 14 99 23 15 54 26 15 57 21 14 55 22 15 57 16 14 54 15 13 53 14 13 53 14 13 53 16 13 56 15 12 55 17 11 57 15 12 55 13 12 52 15 12 55 13 12 54 16 13 58 15 12 57 15 12 57 15 12 55 52 13 106 15 14 58 16 13 58 15 12 55 17 11 57 14 13 55 15 12 55 14 12 52 14 11 54 15 13 53 15 12 55 15 12 55 13 12 54 13 12 52 15 12 55 13 12 52 15 12 55 15 12 57 15 12 57 14 13 57 33 13 82 35 13 86 13 12 56 17 14 59 14 11 56 16 13 58 14 13 53 15 12 55 13 12 54 15 12 57 14 13 53 
43 17 44 43 17 46 44 18 47 44 15 45 42 16 45 42 16 43 44 18 45 45 16 46 63 19 46 81 22 44 81 22 44 69 21 45 36 17 47 31 16 45 30 15 46 29 14 45 25 14 44 23 14 43 23 14 45 20 15 45 15 15 43 17 14 43 17 14 43 17 14 43 17 14 45 17 14 45 17 14 45 18 15 44 20 13 44 21 14 45 24 13 43 29 14 45 58 18 44 82 23 45 69 21 45 36 15 46 37 17 45 43 17 44 59 19 46 77 22 45 81 23 47 83 23 51 82 23 53 75 22 52 38 16 52 33 15 53 32 14 52 31 15 54 34 14 65 61 13 99 26 15 58 27 14 58 22 14 55 23 14 57 19 12 54 19 14 55 15 13 53 16 13 56 17 11 57 16 13 58 17 11 57 15 12 57 15 12 55 15 12 55 15 12 55 18 12 60 17 14 59 17 11 59 17 16 58 53 14 107 19 13 61 18 12 60 16 13 58 19 12 63 15 12 55 15 12 55 14 12 52 15 12 57 15 12 55 18 12 58 15 12 59 17 14 57 15 12 57 15 12 55 15 12 55 16 13 60 16 13 58 17 11 59 17 11 57 36 13 83 37 13 89 18 12 56 19 13 61 18 12 58 19 13 61 13 12 54 16 13 60 15 12 55 19 13 61 15 12 55 
46 17 45 45 19 48 46 20 45 46 18 43 44 18 45 46 17 45 43 17 46 43 17 44 45 19 48 63 19 44 83 21 44 82 23 45 71 21 46 38 14 46 32 16 45 29 16 44 29 14 45 24 13 45 24 15 46 23 14 45 19 14 44 17 14 45 17 14 43 19 14 46 16 13 44 17 14 43 17 14 43 18 13 43 20 13 44 23 14 43 26 13 43 28 13 44 37 17 45 79 24 45 82 23 45 52 19 46 42 16 45 66 20 46 82 22 48 82 23 45 80 22 46 64 21 48 79 23 52 82 23 51 58 19 50 32 14 52 33 16 52 33 15 53 34 14 65 62 14 100 27 16 56 27 16 58 22 16 54 23 14 57 19 14 55 18 13 54 16 14 54 15 12 55 16 13 58 15 12 57 14 13 55 15 12 55 14 13 55 15 12 55 15 14 56 16 13 60 18 12 56 16 13 58 19 11 58 50 14 104 19 12 63 16 13 58 17 11 59 18 12 60 16 10 56 16 13 56 15 12 55 13 12 54 15 12 55 17 11 57 15 12 57 15 13 53 13 12 54 15 12 55 15 12 55 17 11 59 18 12 58 17 11 57 17 11 59 35 14 81 36 12 88 14 13 55 18 12 60 16 13 60 17 11 59 14 11 54 16 10 56 15 12 57 19 13 61 15 13 53 
76 22 45 58 23 45 54 22 45 55 23 46 54 25 45 51 21 45 49 21 46 48 20 45 45 16 44 45 16 46 68 20 44 82 23 45 82 23 43 74 20 44 36 16 44 31 15 44 30 15 46 29 14 45 25 14 44 24 13 45 24 15 44 20 13 44 19 14 44 21 16 46 19 14 44 18 15 44 20 15 45 20 15 45 21 14 45 23 14 45 23 14 43 25 14 44 28 15 45 60 20 46 82 23 45 76 22 46 77 22 45 82 23 45 83 23 48 68 20 44 45 19 46 38 19 49 62 21 53 82 22 50 79 23 52 43 15 53 36 14 52 35 14 55 33 13 62 60 12 96 30 15 56 26 15 58 24 13 55 22 15 59 19 14 55 19 14 55 18 13 54 20 12 59 18 12 58 14 11 56 16 13 56 15 12 57 15 13 53 16 13 56 14 11 56 18 12 60 16 13 58 18 12 58 18 12 60 52 11 103 19 13 61 17 14 59 16 13 58 18 12 60 15 12 55 14 11 54 15 13 52 15 12 55 15 12 57 18 12 58 15 12 57 15 12 57 15 12 55 15 12 55 15 13 53 16 13 58 18 12 60 17 11 59 17 11 57 35 12 82 36 12 88 17 14 59 16 13 60 16 13 58 18 12 60 14 11 54 15 12 57 14 11 54 18 12 60 14 13 55 
82 23 45 80 22 46 60 22 43 57 23 47 56 24 47 56 24 47 55 23 44 52 23 45 51 23 45 44 18 45 42 16 43 68 19 48 82 23 45 84 22 47 70 21 43 37 17 45 36 15 46 30 15 44 30 14 43 24 13 45 22 13 44 24 15 46 22 13 44 21 14 47 20 15 45 19 14 44 21 14 45 21 16 48 20 13 44 21 15 43 24 15 44 24 15 44 29 14 45 31 14 46 76 22 46 81 22 44 82 23 43 78 23 46 56 22 47 36 16 44 36 20 47 37 18 46 41 18 47 76 22 48 81 22 50 68 21 53 41 15 62 40 14 59 42 14 63 61 16 99 33 15 63 34 16 64 27 14 58 28 14 63 25 13 61 24 12 62 22 13 60 22 12 62 22 12 62 20 12 63 21 13 62 19 11 62 17 14 59 20 14 62 19 13 61 22 14 65 22 14 65 21 14 65 20 13 64 52 12 108 21 12 67 20 11 64 20 13 64 21 12 65 19 13 61 16 13 60 18 12 60 19 13 59 22 12 62 21 13 64 20 12 61 20 12 61 19 13 59 20 12 61 19 11 60 20 12 63 21 11 64 21 12 65 20 12 63 36 13 85 39 13 87 20 12 63 19 12 63 20 12 63 21 11 63 19 11 58 20 12 61 20 12 61 24 14 67 19 13 61 
81 22 44 82 23 45 81 21 46 66 22 45 57 23 47 57 24 45 55 23 46 53 24 46 52 23 45 48 20 45 43 17 44 44 18 45 68 20 44 81 22 42 82 23 43 66 21 44 39 16 44 31 15 42 30 15 46 29 14 45 23 14 45 24 15 46 23 12 44 24 15 46 23 14 43 20 13 44 21 14 45 21 14 45 23 14 45 24 13 43 23 14 43 23 12 42 25 14 44 29 14 43 38 15 44 71 22 44 66 22 45 43 17 46 37 16 47 36 16 44 37 18 48 38 19 49 36 17 49 52 18 51 82 23 55 82 23 55 72 15 92 71 14 109 69 13 110 76 13 117 65 14 109 65 13 111 60 15 110 60 12 111 55 14 108 54 13 109 55 14 110 54 14 110 53 13 112 53 13 110 51 14 110 50 12 111 50 13 109 49 13 109 50 13 109 55 14 110 52 12 108 56 12 110 54 14 111 64 13 116 53 13 112 57 13 110 57 11 109 57 13 111 53 13 110 50 12 111 50 13 109 50 13 109 53 13 110 55 14 110 53 13 110 52 12 109 50 13 109 51 14 109 53 13 109 54 12 110 54 12 110 54 13 109 52 12 108 59 12 114 58 13 114 54 14 111 53 11 109 53 13 110 53 13 110 53 13 112 53 13 112 50 13 108 53 13 110 50 13 108 
81 21 46 82 23 43 81 24 43 82 23 45 71 22 43 58 24 48 56 23 44 57 24 45 58 25 46 52 22 46 46 17 45 46 17 47 45 16 44 61 18 45 81 22 44 80 21 43 70 20 45 41 16 45 31 15 42 30 15 44 29 12 46 24 13 43 23 14 45 22 16 44 24 15 44 23 14 43 23 14 45 21 14 45 22 13 44 25 14 46 24 13 45 23 14 45 23 14 43 24 13 45 28 15 45 30 15 46 31 16 45 35 14 45 35 15 43 35 16 46 35 14 45 36 17 47 37 16 49 37 16 49 68 22 51 82 23 53 65 20 51 36 16 51 38 15 59 65 13 95 30 16 52 31 14 56 27 15 53 22 16 54 19 15 52 18 13 53 18 13 53 19 14 55 17 12 53 17 12 53 14 12 52 15 12 55 11 13 52 13 12 52 13 12 52 18 12 58 15 12 55 15 12 57 15 12 55 51 12 103 17 11 59 15 12 57 15 12 55 15 12 57 15 12 55 13 12 52 14 11 54 13 12 52 14 12 52 15 12 55 14 13 53 13 12 52 13 12 52 13 12 52 13 12 52 14 11 56 15 12 57 16 13 56 15 13 53 34 13 80 35 12 84 13 12 54 15 12 57 15 12 55 14 11 54 14 14 52 15 12 55 12 11 51 15 12 57 12 11 51 
76 22 45 81 23 45 82 23 45 82 23 43 84 22 45 71 23 45 58 23 47 56 23 44 58 23 47 56 23 44 47 18 46 44 15 43 45 16 46 43 17 46 62 20 44 82 23 45 81 22 44 70 21 43 41 15 44 31 16 45 30 15 46 28 15 45 25 14 46 24 15 46 24 15 44 23 14 43 24 15 44 24 15 46 23 14 45 21 14 45 23 14 45 23 14 45 25 16 45 24 13 43 27 13 46 28 15 43 30 17 47 33 17 44 35 16 46 36 15 46 34 15 47 34 15 47 35 15 50 36 16 53 45 18 53 79 22 55 83 24 54 44 16 54 37 14 60 62 13 95 33 15 57 32 15 57 30 15 58 26 15 58 22 14 55 19 14 54 18 13 54 19 14 55 18 12 58 19 12 56 15 12 57 16 13 56 15 12 57 17 11 57 15 12 55 19 13 61 17 14 59 18 12 60 18 10 57 51 14 107 20 12 61 17 14 61 16 13 58 18 12 60 15 12 57 18 13 54 14 11 56 15 12 57 15 12 57 18 12 60 18 12 60 15 12 57 15 12 55 15 12 57 15 12 57 18 12 60 18 12 60 18 12 58 16 13 58 34 11 83 36 12 88 17 11 57 19 13 61 16 13 60 17 14 61 16 13 58 16 10 56 17 11 55 19 11 58 15 12 55 
57 24 45 74 22 45 80 22 44 81 22 44 82 23 45 80 22 44 72 23 45 58 23 45 56 22 46 55 23 46 46 20 45 43 17 44 46 17 47 43 17 44 42 16 45 64 20 45 83 24 46 82 23 45 69 19 46 40 17 46 32 16 45 30 15 44 30 15 46 25 14 44 25 14 44 24 15 44 23 14 43 24 15 44 23 14 43 24 13 43 23 14 43 24 15 44 24 15 44 24 15 46 24 13 43 24 13 45 28 15 45 31 14 46 33 14 46 31 15 44 33 16 48 34 14 49 35 13 49 35 16 48 37 15 51 67 20 54 83 24 54 65 20 53 41 16 58 65 13 96 33 15 57 30 15 54 27 15 53 22 13 56 20 14 52 21 14 55 20 14 52 18 13 53 19 12 56 18 13 54 15 12 55 15 12 55 14 11 54 14 11 54 14 13 55 18 12 60 16 13 60 16 13 56 16 13 56 52 13 104 18 12 60 17 14 59 15 12 57 18 12 60 15 12 55 15 12 55 15 12 55 13 12 54 15 12 55 15 12 59 15 12 55 15 12 55 13 12 54 13 12 54 14 11 54 17 11 57 16 13 60 16 13 58 15 12 57 33 12 81 36 12 88 15 12 55 18 12 60 15 12 57 15 12 57 13 12 54 15 12 55 14 11 54 18 12 60 13 12 56 
55 23 44 57 24 45 74 22 45 81 22 44 82 23 45 81 23 45 83 21 44 77 22 45 62 23 44 55 23 46 50 22 45 49 21 46 44 15 43 43 17 46 45 16 44 46 17 45 60 20 46 80 23 42 81 22 44 69 21 43 39 16 44 30 16 42 30 14 43 30 15 46 29 14 47 25 14 46 25 14 44 23 14 43 24 13 45 25 14 46 23 14 45 22 13 44 25 14 44 24 15 46 23 14 43 24 13 43 26 15 45 28 15 45 29 14 45 29 14 45 31 14 46 32 15 51 32 15 49 35 15 52 32 15 51 46 16 54 80 21 51 79 23 52 45 16 60 62 15 96 34 16 58 31 14 56 30 14 53 27 14 57 23 15 54 24 16 55 20 14 52 18 12 56 19 13 59 18 12 56 15 12 59 15 12 57 15 13 53 15 12 57 15 12 57 18 12 60 18 12 60 18 12 60 18 12 58 53 12 104 20 14 62 16 13 58 17 11 57 18 11 62 18 12 58 16 13 58 15 12 55 15 12 57 18 12 58 18 12 58 18 12 60 16 13 58 14 11 54 15 12 57 15 12 55 19 11 58 18 12 60 18 12 60 17 14 59 35 12 82 37 13 87 15 12 57 19 13 61 18 12 60 17 14 61 14 13 55 15 12 57 15 12 57 19 13 61 15 12 55 
56 24 47 55 23 46 58 25 44 74 22 44 81 21 46 81 22 44 81 22 44 81 22 42 78 23 44 62 22 46 54 22 45 51 23 45 47 19 44 42 16 45 43 17 46 42 16 45 46 16 42 60 20 46 80 20 45 81 23 45 68 20 44 35 16 44 32 16 45 29 14 43 28 13 44 29 14 45 24 13 43 24 13 45 23 14 45 23 12 44 25 14 46 22 13 44 21 15 43 24 15 46 22 13 42 23 14 45 23 14 45 28 13 44 28 15 45 28 13 44 29 14 45 30 15 46 31 14 46 36 15 48 35 15 50 36 14 52 67 21 50 80 24 53 65 21 56 62 13 94 31 13 51 31 15 54 27 15 51 26 16 53 22 14 53 20 14 52 18 14 51 18 13 53 18 13 54 16 14 53 16 10 54 13 12 52 13 13 51 10 12 53 12 11 51 17 11 55 15 12 55 16 13 56 15 12 55 49 13 101 15 12 57 17 11 55 15 12 55 15 12 55 12 11 51 13 12 52 12 12 50 13 13 51 13 12 52 15 13 53 13 12 52 13 12 52 12 11 51 14 13 53 11 13 51 13 12 54 15 13 53 15 14 56 13 12 52 32 13 79 34 12 84 14 12 52 15 12 57 14 11 54 15 12 55 12 12 50 14 12 52 12 11 51 15 13 53 12 12 50 
54 22 43 57 25 46 56 22 46 55 23 44 68 24 47 80 22 44 82 23 45 81 22 44 81 22 44 79 24 47 61 23 46 51 22 44 51 22 44 43 17 44 45 16 46 44 15 45 45 16 46 43 17 44 56 21 45 78 23 44 81 22 44 74 20 44 37 17 44 33 17 44 30 15 44 30 15 46 28 15 45 26 15 45 25 14 44 24 15 44 23 14 45 23 14 43 23 14 45 24 15 44 25 14 46 23 14 43 24 15 44 28 15 43 29 14 45 28 13 46 29 16 46 28 14 47 30 15 46 35 15 50 34 14 49 35 14 53 51 17 52 81 25 54 81 22 54 68 15 93 33 16 52 31 15 52 25 15 52 25 15 52 21 15 51 23 15 54 18 14 51 19 14 55 20 13 54 15 13 53 15 13 53 14 13 53 13 12 52 12 11 51 13 12 54 14 11 56 14 11 54 15 12 57 14 11 54 49 13 103 18 12 58 15 12 55 15 12 55 15 12 57 13 12 52 12 11 51 13 12 52 13 12 52 13 12 52 15 12 55 15 13 53 13 12 52 11 13 52 14 12 52 12 11 51 14 11 54 15 12 57 15 12 55 14 11 54 33 12 79 36 12 86 13 12 54 15 12 57 15 12 55 15 12 57 13 13 51 13 12 52 13 12 52 15 12 57 12 12 50 
51 22 44 54 22 45 55 23 44 56 24 47 56 24 47 64 22 44 81 23 45 81 22 42 81 22 44 82 23 45 79 21 43 58 23 45 47 18 46 42 16 43 45 16 44 44 18 47 44 15 45 45 16 46 45 16 44 55 21 46 78 23 46 81 22 44 74 22 44 39 16 45 35 14 45 32 16 43 31 16 45 29 14 45 28 15 43 30 15 46 28 13 44 25 14 44 25 14 44 24 13 43 25 14 44 25 14 44 29 14 45 29 14 43 31 14 46 29 14 45 31 15 44 35 14 45 35 14 45 35 14 47 34 15 47 35 15 52 38 17 50 77 22 53 81 22 50 67 19 71 32 15 51 33 15 53 25 15 52 25 15 52 21 13 52 21 13 50 18 14 51 17 15 54 18 13 53 15 13 52 14 14 52 13 12 52 12 12 50 13 13 51 12 12 50 15 12 55 14 13 53 14 11 54 13 12 52 47 13 99 15 12 55 13 12 52 14 14 52 15 12 55 13 13 51 12 12 50 12 12 50 10 12 50 14 14 52 14 12 52 14 13 53 13 12 52 14 14 52 12 12 50 11 13 51 13 12 52 15 12 55 14 11 54 13 12 52 33 12 79 34 12 84 13 13 51 15 12 55 14 12 52 15 13 53 10 13 48 13 12 52 11 13 52 15 12 55 10 12 50 
61 21 45 62 23 44 61 21 45 62 23 44 62 23 44 62 23 44 71 23 47 80 22 44 82 23 43 83 21 44 81 22 44 80 22 44 56 21 45 45 16 46 44 15 43 43 17 46 45 16 46 43 17 44 43 17 44 46 17 45 56 21 45 80 22 46 81 22 44 73 21 43 40 17 45 36 15 46 35 14 45 34 15 43 31 15 42 29 15 41 29 14 43 29 14 45 28 13 44 28 15 45 29 14 45 29 14 45 28 13 44 30 15 44 34 15 47 31 15 44 33 16 48 33 16 52 35 15 50 35 15 50 34 14 49 33 16 52 35 15 52 67 20 54 82 21 52 68 20 60 36 15 54 32 15 57 31 15 54 30 15 58 24 13 53 23 15 52 20 14 52 19 14 54 17 15 55 18 13 54 15 12 55 16 10 54 14 11 54 15 12 55 13 12 54 18 12 58 16 13 56 15 12 57 15 12 57 49 13 103 18 12 60 16 13 58 15 12 57 18 12 58 14 13 53 14 11 54 14 11 54 14 13 55 15 12 55 17 11 57 15 12 57 15 12 57 14 11 54 14 13 57 13 12 54 15 12 57 18 12 58 15 12 57 15 12 57 35 12 82 36 12 86 15 12 57 18 12 58 16 13 58 17 11 57 14 12 52 14 13 55 15 12 55 17 14 59 13 12 52 
83 24 44 81 22 44 80 23 42 82 23 45 81 21 46 81 22 44 81 23 45 81 22 44 81 23 45 82 23 45 81 22 44 80 22 44 79 21 43 59 21 46 42 16 45 43 17 44 44 15 45 43 17 44 43 17 44 45 16 44 43 17 46 54 20 45 81 22 42 80 21 43 74 22 44 41 16 45 34 13 44 36 15 46 34 15 45 30 15 44 31 16 45 30 15 46 29 14 45 29 14 47 29 16 46 29 16 46 28 13 44 31 16 45 32 15 49 27 14 42 30 15 46 33 16 48 32 15 49 34 14 51 32 15 51 33 16 52 35 15 52 53 18 51 80 24 53 73 21 57 36 16 53 32 14 54 30 15 54 30 15 56 22 14 51 22 14 53 21 15 53 19 12 53 19 14 54 18 13 53 15 13 53 14 11 54 13 12 52 15 12 55 15 13 53 18 12 58 15 12 55 17 11 57 16 13 58 49 13 103 19 13 61 16 13 58 15 12 55 18 12 58 15 12 55 14 12 52 14 12 52 14 13 53 15 12 55 17 11 55 15 12 55 15 12 55 14 12 52 15 13 53 12 11 51 16 13 56 14 11 56 16 13 56 15 12 55 34 13 82 36 12 86 15 12 55 18 12 58 18 12 58 18 12 60 15 12 55 15 13 53 14 12 52 18 12 58 14 12 52 
80 22 46 82 23 45 84 22 45 81 23 45 81 22 44 81 22 44 80 22 44 82 23 45 82 22 47 81 22 44 79 21 43 82 23 45 81 22 44 81 22 44 62 19 46 42 16 43 43 17 44 44 15 43 45 16 44 45 16 46 45 16 44 42 17 46 51 17 44 78 23 44 84 22 45 71 22 44 41 16 45 35 14 45 34 15 43 31 15 44 32 17 46 30 15 46 29 14 45 28 13 44 28 13 46 29 12 44 29 14 45 27 14 44 29 14 43 27 12 43 29 14 45 28 13 46 31 14 46 35 15 52 33 13 50 34 14 49 34 14 51 46 16 50 80 24 53 80 24 53 39 15 51 31 15 54 26 14 54 26 16 53 22 14 51 21 13 50 20 14 52 19 15 52 19 14 54 16 14 53 15 13 53 14 11 54 13 13 49 13 12 52 14 13 53 15 12 57 15 13 53 15 12 55 15 12 55 50 14 102 17 11 57 15 12 55 14 11 54 15 12 55 13 12 52 12 11 51 12 11 51 13 12 52 13 12 52 14 11 54 14 12 52 13 11 51 13 12 52 13 12 52 12 11 51 15 12 55 16 13 56 15 12 55 17 12 53 34 11 79 36 13 85 14 12 51 14 13 57 15 12 55 14 11 54 12 11 51 13 12 54 12 11 51 18 12 58 12 12 50 
66 22 45 66 21 44 69 21 43 69 21 45 48 18 46 49 16 43 50 17 44 47 17 43 50 17 46 48 18 44 49 16 45 54 19 43 82 23 45 82 23 45 80 22 44 64 20 45 42 16 45 45 16 47 45 16 44 45 16 44 43 17 44 43 17 44 44 18 47 52 18 43 78 20 44 81 22 44 72 23 44 41 18 44 36 16 44 34 15 43 29 15 41 31 16 45 31 16 45 30 15 46 27 14 44 29 14 45 28 15 45 28 15 45 30 15 44 29 14 45 32 15 49 32 15 51 35 15 50 35 15 52 35 15 52 35 15 50 33 15 53 43 17 54 80 24 53 82 23 53 44 18 53 31 16 55 31 14 56 28 13 54 24 13 55 20 14 52 20 14 52 20 15 55 19 14 55 17 15 54 18 12 56 16 10 54 15 12 55 15 12 57 15 12 55 17 11 59 15 12 59 18 12 60 15 12 57 51 12 105 19 13 61 18 12 60 18 12 58 18 12 60 15 12 55 15 12 55 14 11 54 15 12 55 16 13 56 17 11 57 15 12 57 14 11 54 14 11 54 15 12 55 15 12 55 17 14 61 17 14 59 18 12 60 17 11 57 35 12 82 36 12 88 16 13 58 18 12 60 16 13 58 18 12 60 14 13 53 15 12 55 14 11 54 19 13 61 15 13 53 
50 21 43 44 18 43 42 18 44 43 17 44 43 17 46 43 17 44 42 18 44 43 17 46 45 16 44 46 17 45 43 17 44 44 15 45 54 18 44 81 21 46 81 22 44 81 22 44 68 20 44 43 17 44 44 15 45 45 16 44 43 17 44 45 16 44 44 16 41 45 16 46 47 17 43 76 22 45 81 22 44 74 20 43 40 15 44 38 15 44 31 15 44 29 16 44 28 15 43 29 14 45 30 13 45 29 14 43 28 13 44 27 14 44 29 14 47 28 13 44 28 13 44 33 13 50 32 15 49 33 16 52 34 14 49 35 15 52 32 14 52 63 19 52 79 23 52 82 23 53 41 17 49 31 15 52 25 15 50 24 16 53 20 14 50 20 14 52 16 14 51 19 15 52 18 13 53 18 14 51 14 14 52 13 12 52 13 13 51 13 13 49 12 12 50 14 13 53 15 13 53 15 13 53 13 12 54 49 13 101 17 11 55 14 11 54 14 12 52 13 10 53 14 14 52 11 11 49 12 12 50 13 13 51 11 11 49 14 12 52 15 13 53 13 11 51 11 11 49 13 13 51 12 12 50 16 14 54 14 11 54 15 13 53 14 12 52 32 11 78 34 12 84 13 12 52 14 11 54 14 13 53 14 12 52 12 12 48 12 11 51 12 12 50 15 12 55 13 13 51 
36 20 46 37 19 45 35 15 43 35 15 43 37 17 45 40 17 45 42 18 44 43 17 44 42 16 43 44 18 47 43 17 46 45 16 46 43 17 46 48 18 44 78 23 46 80 22 44 81 22 44 67 19 43 45 16 44 45 16 44 44 15 43 45 16 44 46 17 45 43 17 46 43 17 44 49 19 43 80 22 44 81 23 45 74 20 44 41 16 45 36 15 46 32 16 43 34 15 45 30 14 43 31 15 44 29 14 45 30 15 44 30 14 43 34 14 51 34 14 51 32 15 51 35 15 50 35 15 52 33 15 53 35 15 50 35 15 50 59 18 52 82 23 53 80 24 53 66 16 75 28 16 54 31 14 56 26 16 53 23 15 54 21 15 51 22 14 51 18 13 53 19 15 52 19 14 55 15 13 53 15 13 53 14 12 52 13 11 50 14 12 52 12 11 51 12 14 55 14 11 54 14 11 54 16 11 52 48 12 102 17 11 59 15 12 55 15 12 55 14 11 56 14 12 52 14 12 52 12 11 51 13 12 52 14 12 52 15 12 55 15 13 53 13 12 52 13 13 51 13 12 52 13 12 52 15 12 55 14 13 55 15 12 55 14 13 55 34 11 79 34 12 84 12 14 53 14 11 56 14 13 53 17 9 56 13 13 51 14 13 53 13 13 51 15 12 55 13 13 51 
32 19 45 31 18 44 34 15 43 34 15 43 34 15 45 36 16 44 36 15 46 38 14 46 36 16 44 38 14 46 35 15 43 35 15 43 34 15 45 40 17 43 44 18 45 77 22 45 80 22 44 80 22 44 68 20 44 44 15 43 45 16 44 44 15 43 43 16 47 45 16 44 43 17 44 43 17 46 52 18 45 80 22 44 81 21 46 74 22 45 37 17 45 37 13 45 36 16 44 34 15 43 35 16 44 35 15 43 35 15 43 35 16 44 34 14 49 35 15 52 33 16 52 33 16 52 34 14 51 35 15 52 33 16 50 49 20 51 78 23 54 80 23 55 55 18 61 63 14 95 28 16 56 31 15 54 22 16 52 25 14 54 20 14 50 17 13 48 18 14 51 18 13 53 17 13 50 15 13 52 15 14 54 13 12 52 10 12 50 13 13 51 11 13 52 14 11 54 14 12 52 14 12 52 13 12 52 48 12 100 15 12 55 15 13 53 13 12 52 14 11 54 12 11 51 13 13 51 10 12 50 13 13 51 13 13 51 14 12 52 13 12 52 14 12 51 13 13 51 13 13 51 12 12 50 14 12 52 14 12 52 11 13 52 13 13 51 33 12 77 33 12 81 13 13 51 15 13 53 13 12 52 13 12 52 10 12 50 13 13 51 12 12 50 15 12 55 12 12 50 
23 17 45 26 17 46 27 16 46 26 15 45 28 15 45 29 14 43 30 15 44 29 16 44 33 14 44 34 15 43 33 14 42 35 14 45 36 16 44 34 16 42 35 14 45 43 19 45 74 20 44 81 22 42 81 22 44 70 22 44 46 17 45 43 17 46 46 17 45 46 17 47 44 15 43 44 18 45 43 17 44 52 16 44 77 22 43 81 23 45 72 19 45 41 16 45 38 15 44 35 14 45 36 16 44 36 16 44 35 15 43 36 15 46 36 14 52 33 16 52 35 15 52 33 16 52 36 16 53 34 14 51 47 17 51 78 23 52 82 23 53 57 19 56 43 15 64 64 11 99 31 14 56 31 14 56 28 15 59 29 16 60 22 15 56 20 13 55 18 13 54 19 14 55 18 13 54 18 12 56 16 13 56 17 11 55 14 11 54 15 12 55 14 13 57 18 12 60 18 12 56 18 12 58 18 12 56 52 11 103 19 13 61 17 11 59 15 14 58 18 12 60 15 12 55 15 12 55 14 11 54 15 12 55 15 12 55 17 11 57 18 12 58 17 11 55 14 13 55 15 12 55 15 12 55 15 12 57 18 12 58 19 13 59 17 11 57 35 12 80 36 12 86 15 12 55 18 12 60 17 11 57 16 13 60 15 12 55 16 13 56 14 11 54 18 12 60 14 11 54 
22 18 45 23 17 45 24 15 44 25 16 45 27 14 44 26 13 43 27 14 42 29 14 45 28 15 43 28 15 43 29 14 43 30 15 44 30 15 44 34 15 43 34 15 43 35 16 44 41 16 45 71 22 44 81 22 44 81 22 42 71 22 44 48 18 46 43 17 44 43 17 44 43 17 44 43 17 44 43 17 44 43 17 44 51 18 45 77 22 45 80 23 42 58 20 45 38 15 44 35 16 46 35 15 43 38 15 44 38 14 46 36 17 47 33 16 52 33 16 52 34 14 51 34 13 52 39 15 51 47 17 55 78 21 54 81 22 54 59 19 54 34 16 58 39 15 67 62 12 97 32 15 59 29 16 59 27 14 57 25 14 57 20 13 55 17 12 53 18 13 53 16 14 54 18 12 56 18 13 54 16 13 56 14 11 54 14 12 52 15 12 55 14 11 54 16 13 58 15 12 57 17 11 57 18 12 58 49 13 103 20 12 61 18 12 58 15 12 57 18 12 60 16 13 56 13 12 54 14 11 54 15 12 55 16 13 56 17 11 57 15 12 55 14 13 55 15 13 53 15 12 55 14 12 52 17 11 57 15 12 57 18 12 58 14 13 57 35 14 81 35 11 85 16 13 56 18 12 58 18 12 58 18 12 58 12 11 51 14 11 54 15 12 55 19 13 59 15 12 55 
16 20 47 21 17 44 22 15 46 21 15 43 24 15 46 24 13 43 25 14 44 22 13 44 25 14 44 25 14 44 29 14 47 29 14 45 30 15 44 30 16 42 30 15 44 32 16 43 35 15 43 37 14 43 66 21 44 84 22 43 80 22 44 77 22 45 51 18 45 43 17 44 44 15 43 43 17 44 43 17 44 45 16 44 43 17 44 57 19 44 81 22 44 81 22 44 52 18 43 46 17 45 50 20 44 53 20 47 52 19 48 51 20 52 52 18 51 45 15 51 40 16 52 37 16 55 66 23 53 82 23 51 79 22 55 60 19 59 37 15 61 34 15 61 38 14 72 62 14 98 29 16 62 27 14 58 27 15 61 26 14 62 21 14 58 18 15 58 18 13 54 19 14 55 19 12 56 15 12 55 18 12 58 15 12 57 14 13 55 13 10 53 17 11 55 18 12 60 18 12 58 17 11 59 16 13 58 51 12 103 20 12 61 17 11 57 18 12 58 18 12 60 15 12 55 15 12 55 15 12 55 15 14 56 16 13 56 18 12 58 18 12 58 15 12 55 16 13 56 15 12 57 15 12 55 18 12 58 16 13 60 18 12 60 16 13 58 34 13 80 36 12 86 15 12 55 17 14 61 18 12 60 18 12 58 15 12 55 16 13 56 15 12 55 18 12 60 15 12 55 
18 19 47 17 17 45 18 18 46 19 14 44 20 15 45 20 14 42 21 15 43 21 15 41 23 14 45 22 13 42 24 13 43 25 14 44 26 13 43 29 14 45 29 12 44 29 14 43 31 14 46 33 17 44 38 13 43 66 20 48 80 22 46 81 22 44 79 21 45 46 17 45 41 16 45 47 19 44 50 17 44 59 21 44 65 21 44 71 22 44 81 22 44 81 22 44 80 22 46 83 21 44 81 22 44 81 22 44 82 22 47 82 23 53 81 22 52 81 22 52 78 21 53 59 19 54 81 22 52 78 21 53 60 18 56 36 15 58 30 15 58 29 13 60 31 14 69 57 13 100 27 15 55 27 14 58 22 13 56 22 13 58 18 13 54 19 13 57 18 13 53 17 12 53 18 13 54 15 13 53 15 12 55 15 12 55 12 11 51 13 12 52 13 12 52 15 12 57 15 12 55 16 13 58 14 11 54 49 13 101 18 12 58 17 11 57 16 13 56 17 11 57 15 13 53 14 12 52 13 12 52 15 13 53 14 12 52 14 13 55 14 11 54 14 12 52 13 12 52 13 11 51 13 11 51 14 13 55 15 12 55 15 12 55 15 12 55 33 12 77 36 13 85 15 12 55 14 13 57 15 12 55 16 13 58 13 12 52 14 13 55 13 12 52 15 12 57 13 12 52 
17 18 46 18 18 46 16 17 45 19 16 47 17 14 45 18 15 44 19 14 44 22 13 44 21 15 43 21 14 45 23 14 43 24 13 45 24 13 43 24 13 43 27 14 44 28 13 44 28 13 44 30 16 42 31 15 44 36 16 43 64 20 45 81 21 46 81 23 45 79 21 43 65 20 43 76 21 44 83 21 42 81 22 44 82 23 45 81 23 45 81 22 44 80 22 44 81 23 45 81 21 46 80 22 44 79 23 48 80 24 53 78 22 51 77 22 53 78 23 55 81 22 52 81 22 50 83 24 54 72 24 66 44 16 90 56 15 94 51 14 94 47 15 91 48 13 95 66 15 108 42 14 89 41 13 90 40 14 88 42 14 89 36 13 85 39 13 87 36 13 83 35 13 85 35 12 84 36 13 85 34 12 84 34 12 84 33 12 81 35 12 84 33 11 83 36 12 86 35 13 85 36 12 86 34 12 85 55 14 110 35 13 86 38 11 88 35 12 84 37 13 87 34 12 84 35 13 85 32 12 83 35 14 83 34 13 82 34 12 84 35 13 85 35 12 84 34 13 82 34 12 84 34 13 82 35 11 85 37 11 84 35 13 86 33 11 83 45 11 97 46 13 100 34 12 84 35 11 85 35 11 85 36 13 85 34 12 84 34 12 84 34 12 84 36 12 86 33 12 81 
17 18 46 18 18 44 16 17 45 17 18 46 19 14 46 17 14 43 17 14 43 16 13 44 19 14 44 21 15 43 20 16 43 22 16 44 23 14 43 23 14 45 24 13 43 25 14 46 27 14 44 29 14 45 29 14 43 33 14 44 33 14 42 60 20 44 81 22 44 81 22 44 82 23 43 80 22 44 81 22 44 80 22 44 76 21 44 75 21 44 76 21 44 75 21 44 62 20 44 54 19 43 51 16 49 47 16 48 48 18 52 44 17 50 41 17 51 41 16 55 55 19 55 79 24 55 79 21 59 58 21 88 38 20 106 45 15 79 50 14 86 47 13 87 45 13 89 64 12 110 44 13 83 46 13 84 43 14 80 42 12 82 38 12 83 36 13 81 35 12 80 35 12 80 34 11 79 34 12 77 34 13 80 33 12 79 34 13 78 34 11 79 33 12 79 35 12 80 36 13 83 35 12 82 34 13 80 56 12 109 35 12 80 36 13 83 35 12 80 35 12 82 32 11 78 33 12 79 33 12 79 33 12 79 33 12 77 34 13 80 35 12 80 33 12 79 33 12 77 33 12 79 33 12 77 35 12 82 34 13 82 35 12 84 34 13 80 46 11 95 45 11 97 33 12 81 34 11 81 33 12 79 35 12 80 32 11 78 32 11 78 33 12 79 36 13 81 33 12 79 
11 18 46 12 18 44 14 20 46 12 16 45 13 12 43 16 13 44 14 14 42 16 13 44 16 15 46 16 13 44 18 13 43 18 13 43 17 12 42 20 13 44 23 14 43 24 13 43 23 14 43 27 14 44 28 13 44 29 14 43 28 15 45 32 16 43 52 18 43 71 22 43 72 20 43 65 21 44 56 17 44 51 18 45 42 18 44 37 14 43 36 16 44 35 15 43 35 15 43 36 15 46 34 14 51 33 15 53 35 15 52 34 14 51 34 13 54 32 16 55 32 15 57 38 15 61 48 20 95 34 20 115 35 22 114 32 14 76 28 14 67 28 14 67 32 13 77 56 13 103 27 15 65 26 13 66 21 13 60 21 13 64 18 12 58 16 13 58 16 10 58 17 11 55 16 13 56 15 13 52 15 12 55 13 12 54 13 12 52 14 11 54 13 12 52 17 11 57 14 11 54 16 13 58 16 13 56 50 11 100 18 12 60 16 13 58 14 11 56 19 13 59 14 11 54 15 13 53 15 13 53 14 12 52 15 13 53 15 12 55 15 12 55 15 13 53 14 12 52 14 13 53 14 13 53 15 12 55 17 11 55 16 13 58 15 13 53 33 12 77 34 12 85 15 12 55 17 11 57 15 12 57 17 11 57 14 12 52 14 11 54 14 12 52 17 11 57 14 13 53 
11 18 46 11 18 46 9 19 46 9 16 44 10 15 44 12 13 43 12 13 43 11 12 42 13 14 44 12 13 43 14 13 44 14 14 42 16 13 42 17 12 42 18 13 43 21 15 43 22 16 44 24 13 45 22 13 44 27 14 44 29 14 45 29 14 45 30 15 44 32 16 43 35 14 45 35 15 43 35 17 43 35 14 45 35 14 47 36 16 44 36 16 44 34 14 42 37 13 45 35 16 48 33 16 52 34 14 51 35 15 50 35 14 53 32 14 54 31 14 56 32 17 60 36 14 61 33 15 89 37 22 117 34 20 117 32 15 85 28 13 70 29 14 69 33 14 80 56 13 103 26 13 66 25 13 63 22 12 62 22 12 65 19 13 61 20 12 59 16 10 56 18 12 58 17 11 57 17 11 55 15 12 57 15 12 55 14 11 54 16 10 56 15 13 53 18 12 60 16 13 58 18 12 58 16 13 58 50 14 104 19 12 63 18 12 58 17 11 57 19 13 61 15 12 57 15 12 55 15 12 55 15 12 55 15 12 55 17 11 57 17 11 57 17 11 55 15 12 55 16 13 56 14 13 53 18 12 58 18 12 58 18 12 58 18 12 56 35 12 80 35 11 85 15 12 55 18 12 58 18 12 58 18 12 58 15 12 55 18 11 55 14 11 54 19 11 60 15 12 55 
12 17 46 8 18 45 9 18 47 8 15 44 7 16 45 10 15 44 11 12 43 9 12 43 12 13 44 10 13 44 13 14 44 12 13 43 14 13 44 17 14 45 18 13 43 15 15 43 19 15 42 23 14 45 24 15 44 23 14 43 27 14 44 27 14 44 29 14 43 30 15 44 29 14 45 31 15 42 32 16 43 31 15 42 30 16 42 32 16 45 32 16 43 31 15 44 33 14 44 33 14 46 35 15 50 32 15 51 34 14 51 31 15 52 31 14 56 30 15 56 28 15 59 30 13 65 29 15 77 28 21 116 30 20 116 30 18 102 25 12 66 26 13 67 32 13 79 57 14 106 23 12 68 22 12 64 21 13 64 22 12 64 18 12 60 19 11 60 17 11 57 18 12 56 17 11 57 15 13 53 15 12 55 16 13 56 14 12 52 16 10 54 15 13 53 18 12 60 15 12 55 17 11 57 18 12 56 52 13 104 18 12 60 18 12 58 17 11 57 17 11 57 14 11 54 15 13 53 14 12 52 14 11 54 14 11 54 18 12 56 16 13 56 17 11 55 14 12 52 13 12 54 14 12 52 17 11 57 17 11 57 18 12 58 16 13 58 35 12 80 35 13 86 15 12 55 16 10 56 17 11 57 18 12 58 14 11 54 15 12 55 16 11 52 18 12 60 14 12 52 
8 20 46 8 17 46 9 18 47 10 17 46 8 15 44 9 16 44 7 12 42 8 11 42 10 13 44 9 12 43 13 12 44 13 14 44 13 12 43 13 14 44 16 13 44 19 14 44 17 14 43 19 12 43 20 14 42 23 14 45 23 12 42 22 13 42 27 13 46 25 14 44 25 14 44 28 13 44 29 14 45 28 15 43 28 15 43 30 15 44 28 15 43 29 13 42 28 13 44 28 15 45 28 16 52 25 15 52 23 16 50 27 15 55 30 15 58 27 14 57 26 14 60 26 13 66 27 14 68 28 20 106 29 22 117 28 17 109 24 13 73 23 14 71 29 14 79 57 12 103 23 12 68 23 13 65 20 11 64 21 11 64 18 12 60 18 10 59 15 12 57 18 12 58 15 12 57 15 12 55 16 13 58 16 13 56 13 12 52 14 11 54 14 11 54 18 12 58 15 12 57 16 13 58 15 12 55 51 12 103 18 12 60 16 13 58 17 11 57 18 12 58 14 11 54 15 13 53 15 13 53 15 12 55 15 12 57 18 12 56 15 14 58 14 12 52 15 13 53 15 13 53 14 12 52 16 10 56 18 12 56 18 12 60 16 13 56 34 11 79 34 12 85 17 11 55 17 11 57 17 11 57 18 12 58 14 12 52 17 11 55 15 13 53 20 12 61 13 11 51 
7 21 47 8 17 46 8 18 45 8 17 46 9 16 45 8 15 44 9 14 46 8 13 43 10 13 44 8 11 42 11 12 43 9 12 43 12 13 43 13 14 45 14 13 44 14 14 42 16 16 44 17 13 46 18 13 43 19 12 43 20 13 44 22 13 42 21 15 43 24 13 43 23 14 45 23 12 44 24 15 44 25 14 44 24 15 44 22 13 42 23 14 43 23 14 43 24 13 43 23 13 47 22 14 51 20 14 50 20 14 50 22 14 53 23 14 57 22 15 56 23 14 61 20 13 65 22 12 65 23 16 96 31 21 117 27 20 115 22 15 82 21 13 72 25 13 77 52 13 104 21 14 68 19 12 63 17 14 61 20 12 63 15 14 58 15 14 56 13 12 56 14 12 52 14 11 54 14 12 52 14 13 55 12 14 55 12 12 50 11 11 49 12 11 51 15 12 55 14 12 52 15 13 53 14 13 53 48 12 102 17 11 57 15 13 53 14 12 52 15 12 55 12 11 51 13 13 51 12 12 48 12 12 50 13 12 52 14 12 52 14 12 52 13 13 51 12 12 50 13 11 51 12 12 50 14 12 52 15 13 53 14 12 52 15 13 52 33 12 77 33 12 81 13 12 52 14 13 57 15 13 53 14 12 52 12 12 50 13 12 52 12 12 50 15 12 55 13 13 51 
10 20 47 8 19 47 9 19 46 10 17 46 9 16 45 9 16 45 9 14 44 7 12 42 8 13 45 9 12 43 9 12 43 9 12 43 12 13 44 10 14 43 12 13 43 13 12 43 16 13 44 16 13 44 16 13 42 18 15 46 18 13 43 17 13 40 18 13 43 20 13 44 20 14 40 23 14 45 20 15 45 21 14 45 21 15 43 21 15 43 23 14 43 23 14 43 24 15 44 22 15 48 21 13 50 20 14 50 22 14 51 22 14 55 23 14 57 22 15 57 21 13 60 22 11 67 21 12 65 23 16 86 28 22 118 31 21 117 24 14 85 20 12 69 28 14 76 53 12 106 18 13 67 20 13 67 16 14 61 22 14 63 13 14 60 15 14 58 14 13 55 15 12 55 16 13 56 14 12 52 13 10 53 13 12 52 13 13 51 14 13 53 13 11 51 14 11 54 15 13 53 17 12 53 15 12 55 48 12 100 17 11 57 14 12 52 15 13 53 16 13 56 13 12 52 13 13 51 13 13 51 13 13 51 13 12 52 15 13 53 14 12 52 14 12 52 13 13 51 13 12 52 12 12 50 14 11 54 15 12 55 14 11 54 14 12 52 33 12 77 34 12 84 14 12 52 14 11 54 14 11 54 14 11 54 12 12 50 13 12 52 13 13 51 15 12 55 13 13 51 
11 21 48 9 19 46 8 18 45 6 17 45 8 17 46 8 15 44 9 14 44 8 13 45 8 11 44 9 12 43 8 11 42 10 13 44 9 13 42 9 12 43 11 12 43 12 13 43 12 13 43 13 12 43 16 13 44 16 13 42 16 13 42 17 14 43 17 12 44 18 13 43 18 13 43 17 14 43 20 16 43 19 15 42 20 15 45 19 14 44 20 14 42 21 14 45 19 14 46 20 14 48 22 14 53 21 13 52 18 14 51 19 12 53 22 15 57 20 15 56 20 12 61 20 13 65 20 13 67 18 12 76 25 19 115 31 21 117 22 18 95 20 15 71 23 13 76 52 13 102 20 13 67 17 12 66 16 14 64 15 13 63 15 13 60 15 12 57 13 12 54 14 12 52 14 11 54 13 11 51 14 11 54 14 12 52 12 12 50 12 12 50 13 11 51 15 12 55 14 13 53 14 11 54 15 13 53 49 13 101 17 11 55 13 10 53 14 12 52 15 12 55 13 13 51 12 12 50 12 12 50 14 12 51 13 12 52 15 13 53 13 13 51 14 12 51 12 12 50 10 12 50 12 12 50 14 12 52 14 12 52 15 13 53 14 12 52 32 11 76 33 12 81 14 12 52 16 10 54 14 12 51 15 12 55 12 12 50 12 11 51 15 15 53 15 12 55 11 11 49 
9 21 47 9 21 47 8 17 48 8 17 46 9 16 45 8 15 43 8 15 44 7 12 44 10 13 46 8 11 42 7 12 42 8 11 44 9 12 45 9 12 43 12 13 44 11 12 43 11 12 42 12 13 43 14 13 44 14 14 42 13 13 41 15 15 43 16 13 42 18 15 46 18 15 44 17 14 45 17 12 42 14 14 42 19 14 44 18 13 43 16 13 44 18 13 45 18 15 46 18 14 47 19 13 51 17 13 50 19 15 52 20 13 55 21 14 58 19 14 55 19 12 63 20 13 67 21 14 68 18 13 69 24 19 109 28 21 116 22 17 99 19 14 72 25 15 78 53 14 107 22 12 72 17 14 67 16 12 63 17 13 64 16 14 63 15 13 62 15 13 60 15 12 57 17 11 57 13 10 53 15 12 57 15 12 55 14 12 52 14 11 54 14 11 54 18 12 56 17 11 57 18 12 58 15 12 55 51 12 103 19 11 58 15 12 57 15 12 55 16 13 58 14 12 52 13 12 52 13 12 52 14 12 52 13 12 54 16 13 56 16 10 54 14 12 52 13 12 52 14 11 54 13 11 51 15 12 55 15 12 55 17 11 57 18 12 56 34 11 79 35 11 85 15 12 55 17 11 57 17 11 55 18 12 58 14 12 51 15 13 53 13 12 52 19 13 59 14 12 52 
7 21 47 9 21 47 9 19 46 8 18 43 8 18 45 9 16 45 8 15 44 8 13 43 8 13 45 7 12 42 10 11 42 11 12 43 9 12 43 8 11 42 10 14 43 11 12 43 10 11 42 11 12 43 12 13 43 13 14 44 14 13 44 14 13 44 14 13 44 17 14 45 14 13 44 17 14 45 18 15 44 17 14 43 17 12 42 18 13 43 18 15 44 15 15 43 18 13 43 19 13 47 18 13 53 19 13 51 18 14 51 18 13 54 18 12 58 18 12 58 18 11 62 17 12 66 21 14 68 20 13 67 23 19 106 31 21 117 22 18 105 19 13 73 19 13 77 54 13 107 21 13 72 20 13 67 16 14 63 18 14 65 15 13 60 13 14 62 14 13 57 15 12 57 16 10 54 16 11 52 15 12 55 14 11 54 14 12 52 14 12 52 14 11 54 19 12 56 16 13 56 17 11 57 15 12 55 53 12 104 18 12 58 17 11 55 15 12 55 18 12 58 15 13 53 14 12 52 14 12 51 14 12 52 14 12 52 13 10 53 15 12 55 14 12 52 14 12 52 13 11 51 15 13 53 17 11 55 17 11 55 17 11 55 15 13 53 33 12 77 35 13 85 14 12 51 15 12 55 15 12 55 15 12 55 12 12 50 14 12 52 12 11 51 16 13 58 14 13 53 
8 22 48 9 21 47 9 19 46 8 18 45 8 17 46 9 16 45 9 16 45 8 13 43 8 13 43 9 14 46 7 12 42 8 11 42 8 11 42 7 10 41 8 11 42 11 12 43 8 11 42 9 12 43 12 13 44 11 12 42 12 13 43 12 13 43 14 13 44 13 12 43 13 12 43 14 13 44 15 12 43 16 13 44 16 13 44 17 14 45 17 14 43 18 13 43 18 15 44 17 13 46 17 12 52 18 13 53 18 13 53 18 13 54 18 12 58 16 13 56 14 15 63 20 12 71 17 12 68 16 13 70 19 16 97 27 20 115 22 19 110 18 13 77 20 14 78 54 13 107 20 12 72 18 14 65 16 13 66 18 13 67 15 13 60 16 14 61 15 13 60 15 14 58 17 11 55 15 13 53 15 12 55 14 11 54 13 13 51 14 12 52 13 11 51 17 11 57 16 14 54 15 12 57 15 12 57 52 11 103 18 12 58 15 12 55 15 12 55 18 12 56 14 13 53 15 13 53 14 12 52 14 12 52 14 12 52 15 12 55 15 12 55 14 11 54 13 12 52 14 12 52 14 12 52 17 11 55 18 12 58 16 13 58 17 14 57 33 12 81 35 11 85 15 13 53 17 11 57 15 12 55 15 12 57 13 11 50 14 11 54 14 12 52 18 12 58 13 12 52 
8 22 49 10 20 47 9 21 47 8 17 46 8 17 46 9 16 44 9 16 44 9 14 44 8 13 43 7 12 42 7 12 42 7 12 42 7 12 42 8 13 43 7 11 40 8 11 42 9 12 43 8 11 42 9 12 43 9 12 43 11 12 43 12 13 43 12 13 43 13 14 44 12 13 43 12 13 43 13 14 44 12 13 43 12 13 43 13 14 44 12 13 43 12 13 43 12 13 43 12 12 46 9 13 50 10 12 51 11 13 51 12 11 55 13 14 60 12 13 59 13 14 62 15 12 67 14 13 70 14 13 70 16 16 88 23 21 118 24 17 112 16 14 77 22 13 78 54 15 108 20 12 72 16 13 68 17 14 67 18 13 67 15 13 62 15 13 62 14 12 59 16 13 60 18 12 56 17 12 53 15 13 53 15 13 53 14 13 53 16 13 56 14 12 52 18 12 58 17 11 55 15 12 57 15 12 57 51 12 103 19 11 58 20 14 58 15 12 57 16 12 62 14 11 54 14 12 51 14 12 52 15 12 55 15 12 55 17 11 55 15 12 55 16 13 56 13 11 51 14 12 52 15 12 55 17 11 55 15 12 57 17 11 55 16 13 56 33 12 77 34 12 85 15 13 53 17 11 57 15 12 55 15 12 57 13 12 52 14 12 52 14 12 52 18 12 58 13 12 54 
8 22 48 9 21 47 9 21 47 7 18 46 8 17 46 8 18 45 9 16 44 9 16 44 9 14 44 8 13 43 8 13 45 9 12 43 7 12 44 8 13 45 9 12 43 8 11 44 7 12 42 8 11 42 8 11 42 9 12 43 9 12 43 8 11 42 9 12 43 10 11 42 9 12 43 8 11 42 9 12 43 9 12 43 7 10 41 9 12 43 8 11 42 7 12 42 8 11 42 9 12 47 9 13 50 9 13 51 7 11 49 7 14 56 11 14 59 10 13 58 9 13 61 11 14 67 12 15 68 11 14 69 14 15 80 21 20 114 20 20 116 15 13 76 18 13 79 52 13 106 17 13 72 16 13 66 17 13 63 16 11 65 12 13 59 14 13 57 12 13 57 14 13 57 15 12 55 14 12 52 17 12 53 13 11 51 13 11 50 11 11 49 12 12 50 15 13 53 16 11 52 15 13 53 14 11 54 49 13 101 18 12 56 15 13 53 13 11 51 16 10 54 13 12 52 14 12 51 13 13 51 13 11 50 12 12 50 15 13 53 13 12 52 14 12 52 12 12 50 13 13 51 12 12 50 14 12 52 17 12 53 15 13 53 13 11 51 33 12 77 34 12 84 13 13 51 15 12 55 13 12 52 15 13 53 12 12 50 13 13 51 12 12 50 15 12 55 13 13 51 
8 22 48 10 22 48 9 21 47 9 18 47 8 17 46 8 18 45 9 16 44 9 16 44 9 14 44 8 13 43 8 13 45 7 10 41 7 10 43 8 13 45 8 11 42 8 11 44 6 11 41 7 12 42 7 12 42 8 13 43 7 12 42 7 12 42 8 13 43 7 12 42 7 12 42 7 10 41 9 12 43 8 11 42 7 10 41 8 13 43 7 12 42 8 13 45 9 14 44 6 10 45 8 12 49 8 11 52 8 13 51 10 13 56 6 13 57 9 13 58 9 13 60 10 13 64 11 14 67 12 13 69 14 15 80 20 21 114 20 21 114 16 16 80 19 14 78 51 12 105 17 13 72 16 13 68 16 14 64 16 13 66 15 13 60 14 12 59 14 13 57 15 14 58 15 12 57 14 11 54 15 13 53 14 12 52 14 14 52 12 11 51 15 13 53 19 13 59 15 13 53 17 11 59 14 12 52 51 12 103 20 14 60 18 12 56 15 12 55 16 13 58 14 11 54 14 12 51 11 13 51 15 15 53 14 12 52 15 13 53 14 12 52 13 12 52 13 13 51 13 12 52 14 12 51 17 12 53 14 11 54 15 12 55 15 13 53 32 12 75 34 13 82 15 13 53 15 12 55 15 13 53 15 12 55 12 12 50 14 12 52 11 11 49 15 12 55 12 12 50 
8 22 48 7 21 47 9 21 47 8 20 46 9 19 46 7 19 45 10 17 45 9 16 44 8 15 44 8 13 43 8 13 43 8 11 42 9 12 43 8 11 42 8 11 42 9 12 43 8 11 42 8 11 42 8 11 42 8 11 42 7 10 41 8 11 42 7 10 41 8 11 42 8 11 42 8 11 42 8 11 42 8 11 42 11 12 43 8 11 42 7 12 42 6 11 43 7 12 42 7 12 44 9 13 50 8 13 51 9 13 51 9 11 52 11 14 59 8 12 57 9 13 58 10 14 62 11 14 67 12 13 69 13 15 74 20 20 108 19 17 114 15 16 83 16 15 75 51 11 107 14 13 71 16 13 68 15 13 62 17 13 64 12 13 59 13 11 58 14 13 55 14 13 53 15 12 55 14 12 52 12 11 51 13 11 51 13 13 49 13 13 51 14 12 51 14 11 54 14 12 52 15 13 53 14 11 54 49 13 103 18 12 58 13 10 53 13 10 53 16 13 56 15 13 53 12 12 50 12 12 50 14 12 51 12 11 51 14 12 52 14 13 53 14 12 51 12 12 50 12 12 50 12 12 50 14 12 52 14 12 52 15 13 53 14 12 52 33 12 79 33 12 81 13 11 51 15 12 55 14 12 52 14 12 52 12 12 50 13 13 51 12 12 48 15 12 55 12 12 50 
7 21 47 7 21 47 9 21 47 9 21 47 8 18 45 8 18 45 8 18 45 10 17 45 9 16 45 7 14 43 7 12 42 8 11 42 9 12 43 6 11 41 7 12 44 8 11 42 8 11 42 8 11 42 8 11 42 8 11 42 9 12 43 8 11 42 8 11 42 8 11 42 9 13 42 8 11 42 7 10 41 7 12 42 8 13 43 7 12 42 7 12 42 8 13 43 8 11 42 8 13 45 9 13 48 7 11 49 8 13 51 10 14 52 10 13 56 10 13 56 10 13 58 11 13 62 12 13 67 13 14 70 13 14 70 20 16 100 15 19 116 16 18 95 21 12 77 52 13 106 19 16 73 17 14 71 18 14 65 16 11 65 15 13 62 15 13 62 15 13 62 13 11 60 15 12 59 16 13 58 17 11 57 17 11 55 16 11 52 15 12 55 17 11 55 18 12 58 18 12 60 17 11 57 17 11 57 53 14 107 20 12 63 18 12 58 17 14 59 18 12 58 15 12 55 15 14 54 14 11 54 15 13 53 15 12 55 18 12 56 15 12 57 15 12 55 15 13 53 15 12 55 14 12 52 17 11 57 17 11 55 18 12 56 15 12 55 34 11 79 36 12 86 17 11 55 18 12 58 18 12 58 18 12 58 15 12 55 14 11 54 15 13 53 19 11 58 13 11 51 
7 21 47 8 22 48 7 21 47 8 20 46 9 19 46 8 18 45 8 18 45 9 16 45 9 14 46 9 16 44 8 13 43 9 14 44 7 12 42 7 12 42 7 12 42 6 13 42 8 11 42 8 11 42 8 11 42 8 11 42 9 12 43 9 12 43 8 11 42 7 10 41 9 10 41 8 11 42 7 12 42 6 11 41 8 13 43 7 12 42 8 11 42 8 11 42 8 11 42 8 13 45 8 12 49 8 12 50 9 12 53 9 13 51 10 14 59 9 12 57 10 13 58 10 14 62 10 13 66 11 12 68 14 13 70 18 16 99 16 18 118 16 17 99 21 12 75 52 13 106 18 12 72 14 13 70 15 12 65 19 12 64 16 14 63 16 13 60 16 12 62 16 12 62 16 13 60 16 13 56 18 12 56 17 11 55 16 14 54 14 11 54 16 11 52 17 11 57 18 12 56 18 12 60 19 13 57 53 12 106 20 12 63 18 12 56 17 11 57 18 12 58 17 11 55 15 13 53 14 11 54 14 13 53 14 11 54 17 11 57 15 12 55 15 12 55 14 12 52 15 12 55 14 12 52 17 11 55 17 11 57 17 11 57 16 10 54 34 11 79 35 11 85 15 12 55 18 12 58 16 13 56 17 11 57 14 12 52 15 13 53 15 13 52 17 11 57 14 12 52 
6 22 47 7 21 47 6 22 47 8 20 46 8 18 45 8 17 46 7 18 46 8 18 45 9 16 45 8 15 43 8 13 43 8 13 45 8 13 45 9 12 43 8 11 42 8 11 42 7 10 41 7 10 41 8 11 42 7 10 41 8 11 42 8 11 42 8 11 42 8 11 42 8 11 42 8 11 42 9 12 43 7 10 41 7 10 41 8 11 42 9 12 43 10 13 44 9 14 44 7 12 42 7 11 46 8 12 50 9 13 51 9 13 51 10 13 56 10 13 58 10 13 56 9 13 61 12 13 69 12 13 67 13 14 70 17 16 96 15 18 113 15 17 100 19 15 76 53 12 108 20 14 74 16 13 70 17 13 64 18 13 67 17 13 63 17 13 63 15 13 62 13 14 62 15 12 59 15 12 57 15 14 58 17 11 55 16 10 54 18 12 56 15 12 55 19 13 61 19 11 60 19 11 58 18 12 58 57 13 110 21 13 62 18 12 60 17 11 57 19 11 60 18 12 58 17 11 55 16 10 54 16 13 56 18 12 56 18 12 58 17 11 57 17 11 57 15 13 53 14 12 52 14 11 54 18 12 58 17 11 57 18 12 58 18 12 56 35 12 80 34 12 85 15 12 55 18 12 58 17 11 55 17 11 57 14 12 52 15 12 55 15 13 53 17 11 57 15 13 53 
8 22 49 7 21 47 8 22 48 10 22 48 9 20 48 8 17 46 8 18 45 11 18 47 9 16 45 9 16 44 9 14 44 8 13 45 8 13 45 7 12 42 7 12 42 7 12 42 8 11 42 8 11 42 8 11 42 8 11 42 8 11 42 8 11 42 8 11 42 10 13 44 8 11 42 7 10 41 9 12 43 9 12 43 9 12 43 8 11 42 8 11 42 8 11 42 7 10 41 7 12 42 8 12 47 9 13 51 8 12 50 9 13 51 10 13 56 9 13 58 8 12 57 10 14 62 11 14 67 12 13 69 11 12 68 14 15 95 16 19 116 16 17 100 19 14 80 49 12 107 17 13 72 17 14 71 17 13 64 17 13 64 15 13 60 15 13 60 12 15 60 15 13 60 16 13 58 14 11 54 16 13 56 15 13 53 13 13 51 15 13 53 17 12 53 17 11 57 15 12 55 18 12 58 18 12 56 55 11 108 21 12 65 19 13 57 15 12 57 18 12 58 17 11 55 14 12 52 13 11 51 13 12 52 15 12 55 16 10 54 15 12 55 14 11 54 13 11 51 14 12 51 13 11 51 15 12 55 14 11 54 17 11 55 14 12 52 33 12 77 34 12 84 13 10 53 17 11 55 15 12 55 15 12 55 13 12 52 14 12 52 14 12 52 18 12 58 13 11 50 
