P3
100 50
255
7 13 47 8 14 48 6 12 46 7 13 47 7 13 47 7 13 47 5 11 45 7 13 47 7 13 47 7 13 47 7 13 47 7 13 47 7 13 47 6 12 46 7 13 47 7 13 49 7 13 47 7 13 47 7 13 47 8 14 48 6 12 46 8 14 48 7 13 47 7 13 47 7 13 47 7 13 47 7 13 47 7 13 47 8 14 48 7 13 47 6 12 46 7 13 47 7 13 47 6 12 46 7 13 47 7 13 47 6 12 46 6 12 46 7 13 47 7 13 47 7 13 47 5 11 45 7 13 47 6 12 46 6 12 46 7 13 47 7 13 47 7 13 47 7 13 47 6 12 46 8 14 48 7 13 47 7 13 47 7 13 47 7 13 47 6 12 46 7 13 47 7 13 47 6 12 46 8 14 48 7 13 47 7 13 47 7 13 47 7 13 47 7 13 47 6 12 46 7 13 47 6 12 46 6 12 46 7 13 47 7 13 47 6 12 46 7 13 47 7 13 47 6 12 46 7 13 47 6 12 46 7 13 47 7 13 47 6 12 46 7 13 47 6 12 46 7 13 47 7 13 47 8 14 48 8 14 48 7 13 47 6 12 46 7 13 47 6 12 46 8 14 48 7 13 47 7 13 47 6 12 46 7 13 47 7 13 47 7 13 47 5 11 45 7 13 47 5 11 45 
6 12 46 7 13 47 6 12 46 6 12 46 7 13 47 7 13 47 6 12 46 7 13 47 7 13 47 7 13 47 7 13 47 7 13 47 5 11 45 7 13 49 7 13 49 7 13 49 7 13 47 7 13 47 7 13 47 7 13 47 7 13 47 6 12 46 7 13 47 7 13 47 6 12 46 7 13 47 7 13 47 7 13 47 7 13 47 8 14 48 7 13 47 7 13 47 6 12 46 8 14 48 7 13 47 6 12 46 7 13 47 7 13 47 6 12 46 7 13 47 7 13 47 6 12 46 7 13 47 7 13 47 7 13 47 7 13 47 7 13 47 6 12 46 6 12 46 7 13 47 7 13 47 7 13 47 7 13 47 7 13 47 8 14 48 6 12 46 7 13 47 7 13 47 7 13 47 7 13 47 6 12 46 7 13 47 8 14 48 7 13 47 6 12 46 7 13 47 5 11 45 7 13 47 7 13 47 7 13 47 7 13 47 7 13 47 7 13 47 7 13 47 7 13 47 7 13 47 7 13 47 7 13 47 7 13 47 7 13 47 5 11 45 7 13 47 7 13 47 7 13 47 7 13 47 8 14 48 7 13 47 7 13 47 8 14 48 7 13 47 6 12 46 5 11 45 7 13 47 6 12 46 6 12 46 7 13 47 6 12 46 6 12 46 6 12 46 6 12 46 
7 13 49 7 13 49 7 13 49 7 13 49 7 13 49 7 13 49 7 13 49 6 12 48 7 13 49 7 13 49 7 13 49 8 14 50 7 13 49 7 13 49 8 13 51 7 12 50 7 13 49 8 14 50 8 14 50 7 13 49 6 12 48 6 12 48 7 13 49 6 12 48 7 13 49 7 13 49 6 12 48 8 14 50 7 13 49 7 13 49 7 13 49 7 13 49 7 13 49 7 13 49 7 13 49 8 14 50 7 13 49 7 13 49 7 13 49 6 12 48 6 12 48 6 12 48 7 13 49 9 15 51 8 14 50 8 14 50 8 14 50 8 14 50 7 13 49 8 14 50 8 14 50 8 14 50 7 13 49 8 14 50 8 14 50 7 13 49 7 13 49 7 13 49 7 13 49 8 14 50 7 13 49 7 13 49 8 14 50 7 13 49 7 13 49 7 13 49 7 13 49 7 13 49 7 13 49 7 13 49 7 13 49 7 13 49 7 13 49 7 13 49 7 13 49 8 14 50 7 13 49 7 13 49 7 13 49 7 13 49 5 13 49 8 14 50 5 13 49 8 14 50 7 13 49 5 13 49 7 13 49 5 13 49 8 14 50 7 12 50 7 12 50 8 13 51 7 13 49 7 13 49 7 13 49 7 12 50 7 13 49 7 13 49 7 13 49 7 13 49 
7 14 56 6 13 55 6 13 55 7 14 56 6 13 55 6 13 55 6 13 55 6 13 55 6 13 55 6 13 55 5 12 54 6 13 55 6 13 55 6 13 55 6 13 55 7 14 56 6 13 55 7 14 56 7 14 56 6 13 55 7 14 56 7 14 56 6 13 55 7 14 56 7 14 56 6 13 55 6 13 55 6 13 55 7 14 56 7 14 56 5 12 54 6 13 55 6 13 55 6 13 55 8 13 55 6 13 55 5 12 54 8 13 55 7 14 56 6 13 55 6 13 55 5 12 54 7 14 56 6 13 55 6 13 55 6 13 55 7 14 56 6 13 55 7 12 54 8 13 55 8 13 55 8 13 55 9 14 56 8 13 55 9 14 56 8 13 55 5 12 54 7 14 56 5 12 54 7 14 56 6 13 55 6 13 55 6 13 55 6 13 55 6 13 55 6 13 55 6 13 55 5 12 54 6 13 55 6 13 55 6 13 55 6 13 55 6 13 55 6 13 55 5 12 54 6 13 55 5 12 54 6 13 55 6 13 55 6 13 55 6 13 55 7 14 56 7 14 56 6 13 55 6 13 55 7 14 56 6 13 55 7 14 56 6 13 55 6 13 55 5 12 54 5 12 54 6 13 55 6 13 55 6 13 55 5 12 54 6 13 55 6 13 55 5 12 54 7 14 56 
6 13 57 6 13 57 7 14 58 7 14 58 7 14 58 7 14 58 6 13 57 6 13 57 7 14 58 7 14 58 6 13 57 6 13 57 6 13 57 6 13 57 7 14 58 7 14 58 6 13 57 7 14 58 6 13 57 7 14 58 6 13 57 6 13 57 7 14 58 6 13 57 7 14 58 7 14 58 6 13 57 7 14 58 7 14 58 7 14 58 7 14 58 6 13 57 6 13 57 6 13 57 5 12 56 6 13 57 7 14 58 8 15 59 6 13 57 7 14 58 7 14 56 7 14 58 7 14 58 7 14 58 6 13 57 9 13 58 9 13 58 7 14 56 7 14 58 7 14 58 8 13 55 7 14 58 9 13 58 9 13 58 9 13 58 7 14 58 6 13 57 7 14 60 7 14 58 6 13 57 8 15 59 7 14 58 6 13 59 7 14 58 6 13 57 7 14 58 7 14 58 8 12 59 7 14 58 8 12 57 6 13 57 6 13 57 7 14 58 7 14 58 8 12 57 6 13 57 5 12 56 8 12 57 6 13 57 6 13 57 6 13 59 7 14 58 6 13 59 7 14 58 7 14 58 6 13 57 9 13 58 6 13 57 7 14 58 7 14 58 7 14 58 7 14 58 7 14 58 6 13 57 7 14 58 6 13 57 6 13 57 7 14 58 6 13 57 6 13 57 
7 13 61 7 13 61 6 12 60 8 14 62 7 13 61 7 13 61 8 14 62 7 13 61 7 13 61 8 14 62 7 13 61 8 14 62 8 14 62 7 13 61 8 14 62 8 14 62 8 14 64 8 14 64 8 14 64 8 14 64 8 14 64 8 14 64 8 14 64 7 13 63 8 14 62 8 14 62 9 15 63 8 14 62 7 13 61 8 14 62 7 13 61 8 14 62 7 13 61 8 14 62 8 14 62 7 13 61 7 13 61 8 14 62 9 15 63 7 13 61 9 13 61 10 14 62 8 14 62 7 13 61 11 15 63 10 14 62 7 13 61 8 14 62 9 15 63 11 15 62 8 15 61 9 15 63 7 13 61 11 13 62 8 14 62 9 15 63 8 14 62 8 14 62 9 15 63 7 13 61 9 15 63 8 14 62 8 14 62 8 14 62 8 14 64 8 14 62 8 14 62 8 14 62 8 14 62 8 14 62 8 14 62 8 14 62 8 14 62 8 14 62 6 12 60 8 14 62 8 14 62 8 14 62 7 13 61 8 14 62 8 14 66 8 14 64 7 13 61 8 14 64 7 13 61 8 14 64 7 14 60 8 14 62 8 14 62 8 14 62 8 14 62 5 11 59 7 13 61 7 13 61 9 15 63 8 14 62 8 14 62 7 13 61 8 14 62 7 13 61 
9 15 67 9 15 67 8 14 66 8 14 66 8 14 66 8 14 66 9 15 67 8 14 66 9 15 67 9 15 67 7 14 66 9 15 67 8 14 66 7 14 66 8 13 68 8 13 68 8 14 66 9 15 67 8 14 66 8 14 66 8 14 66 8 14 66 9 15 67 8 14 66 8 14 66 8 14 66 9 15 67 8 14 66 8 14 66 8 14 66 8 14 66 9 15 67 9 15 67 8 14 66 9 15 67 9 15 67 9 15 67 8 14 66 8 14 66 9 15 67 8 15 69 8 15 67 8 15 67 9 15 67 8 14 66 9 15 67 8 14 64 7 13 65 8 14 66 9 15 67 8 14 66 9 15 67 8 13 68 11 14 69 8 13 68 8 13 68 8 14 66 8 13 68 8 14 66 8 13 68 9 14 69 8 14 66 8 13 68 8 14 66 9 15 67 8 14 66 8 14 66 8 14 66 8 13 68 8 14 66 9 15 67 7 13 65 8 13 68 8 14 66 8 13 68 8 13 68 8 13 68 8 13 68 9 14 69 8 13 68 8 13 68 8 14 66 8 13 68 8 14 64 8 14 66 9 15 67 8 15 69 9 15 67 9 15 67 9 14 69 9 15 67 8 14 66 9 14 69 9 14 69 8 14 66 8 13 68 8 14 66 8 14 66 8 14 66 9 15 67 
9 15 73 9 15 73 7 13 71 8 14 72 8 14 72 9 15 73 8 14 72 9 15 73 8 15 70 9 14 70 9 16 71 9 14 70 10 15 71 8 15 70 10 15 71 8 15 70 9 16 71 10 15 71 9 14 70 10 15 71 9 16 71 9 16 71 9 16 71 10 15 71 9 15 73 9 15 73 8 14 72 9 15 73 9 15 73 9 15 73 9 15 73 8 14 72 9 14 72 10 15 73 9 14 72 8 14 72 9 14 72 9 14 72 10 15 73 8 14 72 9 14 72 8 15 70 9 14 72 9 14 72 9 14 72 9 14 72 9 14 72 12 14 73 8 13 71 8 15 70 8 14 72 8 15 70 9 14 72 9 14 72 9 14 72 10 15 71 9 14 72 9 15 73 10 15 71 9 14 70 9 16 71 10 15 71 9 14 72 9 15 73 10 15 73 9 14 72 8 14 72 9 14 72 9 15 73 9 14 72 10 15 73 9 14 72 9 14 70 8 14 72 9 14 70 11 16 72 9 14 72 9 14 72 8 15 70 10 15 73 9 14 72 9 14 72 9 14 70 9 14 72 9 14 72 9 15 73 10 15 73 11 16 74 8 15 70 8 14 72 10 17 72 8 15 70 7 13 71 9 15 73 8 15 70 8 14 72 10 15 73 8 15 70 9 15 73 9 16 71 
10 16 78 10 16 78 10 16 78 8 14 76 10 16 78 9 15 77 10 16 78 9 15 77 9 15 77 10 16 78 8 14 76 9 15 77 8 14 76 9 15 77 9 15 77 9 15 77 9 15 77 10 14 77 11 15 78 10 14 77 9 15 77 9 15 77 9 15 77 10 14 77 9 15 77 9 15 77 8 14 76 8 14 76 9 15 77 8 14 76 9 15 77 8 14 76 9 15 77 9 15 77 9 15 77 10 14 77 9 15 77 9 15 77 8 14 76 9 13 76 8 13 77 9 14 78 9 15 77 10 16 78 10 15 79 7 15 77 8 14 76 9 15 77 9 14 78 6 14 76 9 15 77 7 16 75 9 14 78 9 15 77 10 16 78 9 15 77 8 13 77 9 15 77 8 14 76 9 15 77 9 15 77 8 14 76 8 14 76 9 14 78 9 15 77 8 14 76 9 15 77 8 14 76 9 15 77 9 15 77 9 15 77 8 14 76 9 15 77 9 15 77 9 15 77 9 15 77 10 16 78 9 15 77 9 15 77 9 15 77 9 14 78 6 14 77 9 15 77 7 13 75 9 15 77 8 14 76 9 15 77 9 15 77 9 15 77 9 15 77 10 16 78 8 14 76 10 16 78 9 15 77 9 15 77 10 16 78 9 15 77 9 15 77 10 16 78 9 14 78 
10 15 83 11 16 84 8 13 81 11 16 84 11 16 84 10 15 83 10 15 83 10 15 83 11 15 86 10 15 83 10 15 83 10 15 81 11 16 82 10 15 81 10 15 81 10 15 81 10 15 83 10 15 83 10 15 83 10 15 83 10 15 83 10 15 83 10 15 83 11 16 84 10 15 81 10 15 81 11 16 82 10 15 81 10 15 81 9 14 80 10 15 81 10 15 81 10 15 81 11 16 82 10 15 81 10 15 81 10 15 81 10 15 81 10 15 81 10 15 81 10 15 81 10 15 83 9 14 82 8 16 81 8 16 81 9 16 84 10 15 83 10 15 79 10 15 81 8 16 81 7 14 82 10 15 81 10 15 81 10 15 81 8 15 83 10 15 83 10 15 83 10 15 81 10 15 83 10 15 83 10 15 83 11 16 84 10 15 81 10 15 83 8 15 83 9 14 82 10 15 83 10 15 81 10 15 81 10 15 81 10 15 83 8 15 83 11 16 84 10 15 81 9 14 80 10 15 83 10 15 81 10 15 81 10 15 83 10 15 81 8 15 83 8 15 83 10 15 83 10 15 81 8 15 83 10 15 81 10 15 83 10 15 81 10 15 83 9 14 82 11 16 84 10 15 83 10 15 83 10 15 83 10 15 83 10 15 83 10 15 83 10 15 83 8 15 83 11 16 84 
9 16 88 8 15 87 9 16 88 9 16 88 8 15 87 9 16 88 9 16 88 8 15 87 9 16 88 7 14 86 8 15 87 9 16 88 9 16 88 9 16 88 9 16 88 10 17 89 8 15 87 9 16 88 9 16 88 9 16 88 9 16 88 9 16 88 9 16 88 9 16 88 11 15 86 11 15 86 12 16 87 11 15 86 11 15 86 11 15 86 11 15 86 12 16 87 9 16 88 9 16 88 9 16 88 9 16 88 9 16 88 9 16 88 7 14 86 9 16 88 10 17 89 11 15 88 9 16 88 9 16 88 11 15 88 11 15 86 15 18 87 16 16 86 15 18 87 15 15 85 14 17 86 15 18 87 15 18 87 17 17 87 12 16 87 9 16 88 9 16 84 9 16 86 8 15 87 9 16 88 10 17 89 9 16 88 10 17 87 9 16 84 10 14 87 11 15 86 9 16 88 11 15 88 11 18 88 12 16 87 9 15 89 10 14 85 9 16 88 11 15 88 9 16 88 9 16 88 9 16 88 8 15 87 11 15 88 9 16 88 9 16 88 11 15 88 9 16 84 11 15 88 9 16 86 9 16 88 11 15 86 9 16 86 9 16 88 9 16 88 8 15 87 8 15 87 8 15 87 9 16 88 10 17 89 9 16 88 9 16 88 9 16 88 11 15 88 8 15 85 
10 16 94 10 16 94 10 16 94 10 16 94 11 17 95 10 16 94 10 16 94 10 16 94 11 17 95 11 17 95 10 16 94 11 16 97 11 16 97 10 15 96 9 14 95 10 15 96 11 17 95 10 16 94 10 16 94 10 16 94 11 17 95 11 17 95 10 16 94 11 17 95 11 17 95 11 17 95 10 16 94 11 17 95 10 16 94 11 17 95 10 16 94 10 16 94 10 16 94 10 16 94 11 17 95 10 16 94 10 16 94 10 16 94 11 17 95 11 17 95 13 16 97 11 17 95 11 17 95 10 16 94 11 17 93 14 17 94 18 20 95 17 19 94 17 19 96 29 18 96 30 19 95 17 19 94 20 19 97 19 18 94 14 17 94 12 18 96 10 15 96 11 17 95 10 15 96 11 17 95 10 16 94 11 16 97 11 17 95 12 17 98 11 17 95 10 16 94 11 16 97 9 14 95 10 16 94 10 15 96 11 16 97 11 17 93 11 17 95 12 17 98 11 17 95 11 17 95 10 15 96 10 16 94 11 17 95 11 16 97 10 15 96 10 15 96 12 15 96 10 16 94 9 16 94 10 16 94 10 16 94 10 16 94 10 16 94 11 17 95 11 17 95 10 16 94 11 17 95 10 16 94 12 18 96 11 17 95 11 17 95 11 17 95 10 15 96 11 17 95 
12 17 98 11 16 98 11 16 97 11 16 98 11 16 98 11 16 98 11 16 98 11 16 97 10 15 97 11 16 98 12 17 99 10 15 97 11 16 98 11 16 98 10 17 98 11 16 98 11 16 98 12 17 98 11 16 97 11 16 97 11 16 97 11 16 97 11 16 97 11 16 98 11 16 98 11 16 97 11 16 97 13 16 97 11 16 100 11 16 98 11 16 98 15 15 101 12 17 99 11 16 98 11 16 97 11 16 97 11 16 98 11 16 98 11 16 97 14 17 98 18 19 101 16 19 100 17 18 100 17 18 98 18 19 99 16 18 95 17 19 96 17 19 96 19 18 98 74 19 102 76 17 99 17 18 98 20 19 97 16 19 96 17 18 98 17 20 99 17 18 98 17 18 98 16 17 99 15 16 98 14 17 98 12 17 99 10 15 97 11 16 98 12 17 99 10 15 96 11 16 97 11 16 98 11 16 98 11 16 98 11 16 98 13 15 98 11 16 98 11 16 98 11 16 98 11 16 97 11 16 98 11 16 98 12 14 97 11 16 98 11 16 98 10 15 97 11 16 98 11 16 98 11 16 98 12 17 99 11 16 97 11 16 97 11 16 100 12 17 99 11 16 97 11 16 97 11 16 97 10 15 96 11 16 97 11 16 97 11 16 98 11 16 98 10 15 97 10 15 97 
15 19 110 14 18 109 15 19 110 14 19 110 14 19 110 15 19 110 15 19 110 15 19 110 16 20 109 15 19 108 14 18 109 15 19 108 15 19 110 15 19 108 14 18 109 15 19 108 14 18 109 15 19 110 15 19 110 15 19 110 15 19 110 15 19 110 15 19 110 14 18 109 14 19 110 15 19 108 15 19 110 15 19 110 13 18 109 15 19 110 15 19 110 15 19 110 17 18 110 14 18 109 13 17 108 16 20 109 15 19 108 15 20 111 18 19 109 19 21 108 20 20 108 21 23 110 21 23 110 20 20 108 20 22 109 22 22 110 20 20 108 21 21 109 37 23 111 59 23 111 59 23 111 37 21 110 22 22 108 23 20 109 22 22 108 20 20 108 20 21 111 21 21 109 18 22 109 19 21 108 16 20 109 18 19 109 15 19 110 15 19 110 14 18 109 17 18 108 15 19 110 13 18 109 15 19 110 15 19 110 15 19 110 15 19 110 15 19 110 15 19 110 14 18 109 15 19 108 14 18 109 14 19 110 15 19 110 14 18 109 15 19 110 15 19 110 14 18 109 15 19 108 14 18 109 14 18 109 15 19 108 15 19 108 16 20 111 15 19 110 14 18 109 15 19 108 15 19 110 15 19 108 15 19 110 15 19 110 15 19 110 15 19 110 14 18 109 15 19 110 
21 23 124 21 23 124 20 24 124 20 24 124 20 24 124 19 23 123 21 23 124 21 23 124 22 24 125 21 23 124 21 23 124 20 22 123 21 23 124 21 23 124 20 22 123 21 23 124 20 22 125 19 23 123 20 22 123 20 24 124 20 24 124 21 23 124 20 24 124 20 22 125 20 24 124 22 24 124 21 23 124 21 25 125 20 22 123 22 24 125 21 23 124 21 23 124 21 23 124 23 22 124 24 24 124 21 23 123 22 24 125 23 22 124 24 24 124 27 25 126 23 25 125 26 26 126 27 25 124 25 25 123 27 25 124 28 26 125 27 25 124 26 24 123 27 25 124 29 24 124 27 25 122 28 26 125 28 26 125 28 26 125 28 26 125 27 25 126 26 24 125 25 25 125 26 26 124 27 25 124 26 24 125 24 24 124 23 22 124 21 23 124 21 23 124 21 23 124 22 24 125 24 23 125 21 23 124 20 24 124 24 23 125 20 22 123 21 23 124 20 22 123 21 23 124 20 24 124 22 24 125 20 22 123 21 23 124 19 23 123 20 22 123 21 23 124 20 22 123 19 23 123 20 22 123 21 23 124 21 23 124 21 23 124 20 23 126 24 23 125 19 23 123 20 22 123 21 23 124 23 22 124 19 23 123 20 22 123 20 24 124 19 23 123 21 23 124 20 22 123 
20 22 123 21 23 124 21 23 124 20 22 123 20 22 123 21 23 124 21 23 124 21 23 124 22 24 125 21 23 124 22 24 125 22 24 125 21 23 124 20 22 123 23 22 124 20 22 123 20 22 123 20 24 124 21 23 124 21 23 124 20 22 123 21 23 124 20 24 124 21 23 124 21 23 124 21 23 124 21 23 124 23 22 124 20 22 123 21 23 124 22 24 125 24 23 125 23 23 123 24 24 124 23 25 125 21 23 123 23 25 126 22 24 124 25 24 126 25 23 124 25 23 122 26 24 123 27 25 124 30 24 124 28 26 125 29 24 124 30 26 123 31 27 124 31 25 123 31 25 123 31 25 123 31 25 123 31 25 123 30 24 124 30 25 125 28 26 125 28 26 125 27 25 124 26 26 124 25 25 123 25 25 123 25 25 125 22 24 124 23 23 123 21 23 124 24 24 124 22 24 125 21 23 124 23 22 124 20 24 124 21 23 124 20 22 123 21 23 124 21 23 124 21 23 124 21 25 125 21 23 124 20 22 123 20 22 123 21 23 124 21 23 124 21 23 124 20 22 123 23 22 124 21 23 124 21 23 124 21 23 123 21 23 123 21 23 124 21 23 124 20 22 123 21 23 124 21 23 124 21 23 124 21 23 124 19 23 123 20 22 123 19 24 124 21 23 124 20 22 123 
21 23 124 20 22 123 21 23 124 21 23 124 21 23 124 21 23 124 21 23 124 21 23 124 24 23 125 21 23 124 25 24 126 21 23 124 21 23 124 21 23 124 23 22 124 20 22 123 22 24 125 21 23 124 23 23 123 21 23 124 21 23 124 24 24 124 21 23 124 21 23 124 20 22 123 21 23 124 23 23 123 22 24 125 23 22 124 22 24 125 23 22 126 24 23 125 23 22 124 22 24 124 23 25 125 23 23 123 25 25 125 26 26 126 27 25 124 26 26 124 27 25 124 28 23 123 29 24 124 29 25 122 34 24 123 34 24 123 34 24 123 32 24 123 36 24 124 35 23 123 35 25 124 35 25 122 36 24 124 34 24 123 35 25 124 34 24 123 31 25 125 29 25 122 27 25 124 29 25 122 26 26 126 26 24 123 26 24 125 23 25 125 24 24 124 25 25 125 25 24 126 22 24 124 21 23 123 21 23 123 22 25 122 22 24 125 24 24 124 24 23 125 24 23 125 21 23 124 21 23 124 21 23 124 22 24 124 22 24 125 21 23 124 21 23 124 21 23 124 21 23 124 21 23 124 21 23 124 21 23 123 24 24 124 21 23 124 22 24 124 21 23 124 24 24 124 21 23 124 21 23 123 21 23 124 21 23 124 21 23 124 20 22 123 21 23 124 20 24 124 
21 23 124 24 26 126 22 24 125 22 24 125 21 23 124 21 23 124 22 24 125 21 23 124 22 24 125 22 24 125 22 24 124 21 23 124 22 24 124 21 23 124 24 23 125 21 23 124 22 24 125 21 23 124 25 25 125 21 23 124 21 23 124 24 24 124 21 23 124 21 23 124 22 24 125 21 23 124 22 24 124 24 24 124 22 24 125 24 24 124 24 24 124 22 24 124 22 25 122 27 25 124 27 25 124 25 25 125 27 27 125 27 25 124 27 25 124 28 26 127 30 26 123 33 25 124 35 25 124 35 23 123 35 25 124 36 24 124 36 24 124 35 25 124 35 25 124 35 24 126 35 24 126 36 24 124 35 25 124 35 23 123 34 24 123 36 24 126 36 26 125 35 25 124 33 25 124 30 26 123 27 25 124 27 25 124 28 26 125 27 25 124 26 26 126 26 24 123 26 24 125 23 25 125 24 24 124 22 24 124 23 25 125 23 22 124 24 24 124 23 22 124 24 24 124 21 23 124 21 23 124 23 22 126 24 24 124 21 23 124 23 23 123 22 24 124 22 24 125 21 23 124 21 23 123 22 24 124 24 24 124 25 24 126 21 23 124 23 25 125 23 22 124 22 24 124 21 23 124 22 24 124 22 21 123 21 23 124 21 23 124 22 24 125 22 24 124 23 23 123 
23 23 123 25 25 125 22 24 125 21 23 123 21 23 124 22 24 124 24 24 124 24 24 124 25 25 125 22 24 124 24 24 124 22 24 124 22 24 124 22 24 124 24 24 124 22 24 124 21 23 124 21 23 124 24 24 124 23 22 126 24 23 127 23 23 123 21 23 124 21 23 124 24 24 124 25 25 125 22 25 122 24 24 122 22 24 124 25 25 123 22 25 122 26 26 124 27 25 124 29 24 124 29 24 124 27 25 124 29 25 122 27 25 124 27 25 124 31 25 123 32 24 125 35 25 124 35 25 124 35 25 124 36 24 124 35 25 124 36 26 125 36 26 125 35 25 124 36 24 124 36 24 124 36 24 124 36 24 124 35 23 123 35 25 124 35 25 122 36 24 124 34 24 123 36 24 124 38 23 124 31 25 123 27 25 124 28 26 125 29 25 122 29 24 124 30 25 125 27 25 124 26 26 124 27 25 126 22 24 124 24 24 124 24 24 124 26 26 124 23 23 123 24 24 124 21 23 124 21 23 123 21 23 124 22 24 124 22 24 125 22 24 125 22 24 124 22 24 125 24 23 125 22 24 124 25 25 125 22 24 124 25 25 125 22 24 124 23 23 123 21 23 123 24 24 124 25 23 124 24 24 124 21 25 125 22 21 125 21 23 126 21 23 124 24 24 124 23 23 123 
23 23 123 24 24 124 23 22 124 21 23 123 21 23 124 24 24 124 24 24 124 23 23 123 25 23 124 22 24 124 26 24 125 24 23 125 25 25 125 23 22 124 26 24 125 25 23 124 21 23 123 21 23 124 25 25 125 23 23 123 24 24 124 25 25 125 21 23 124 22 24 124 24 24 124 26 24 123 26 24 125 25 25 125 25 25 125 27 27 125 24 24 124 26 26 124 29 24 124 28 26 123 28 26 125 28 26 125 27 25 124 30 24 122 34 24 123 35 24 126 36 24 124 38 23 124 37 25 125 35 25 124 35 25 124 36 24 124 36 24 124 34 24 123 36 24 124 37 25 125 37 25 125 35 23 123 34 24 123 35 23 125 34 26 125 35 25 124 35 24 126 35 25 124 36 24 124 36 24 122 35 25 124 34 24 123 31 25 125 27 25 126 28 26 125 28 26 125 29 24 124 27 25 124 27 25 126 25 25 125 27 25 126 24 24 124 26 26 124 26 24 125 26 24 123 22 24 125 24 24 124 23 22 124 24 24 124 21 23 123 21 23 123 22 24 124 21 23 124 21 25 125 22 24 124 22 24 124 24 24 124 25 25 125 21 23 124 25 25 125 21 23 123 24 24 124 23 23 123 25 23 124 21 23 123 21 23 124 21 23 126 21 23 124 25 25 125 22 24 124 
23 22 115 23 23 111 22 21 114 21 22 114 21 20 113 23 22 115 24 24 114 23 23 113 23 22 115 21 22 114 46 32 117 22 23 115 24 24 114 22 21 114 25 22 113 22 23 113 21 22 112 21 22 114 22 23 115 21 22 112 21 22 114 23 22 115 22 21 114 22 22 112 23 22 115 25 25 115 24 24 112 26 23 114 25 22 111 51 36 119 26 23 114 24 23 116 26 23 114 28 23 113 28 22 112 28 22 112 29 23 113 28 22 112 27 22 112 28 22 112 28 22 110 29 23 111 29 23 113 28 23 113 53 23 113 57 24 113 57 22 112 58 23 113 28 21 114 28 22 110 28 22 112 28 22 112 57 22 116 56 23 114 54 24 112 53 23 113 28 24 111 27 22 112 27 22 112 28 22 112 29 23 113 28 24 111 28 22 112 28 22 112 27 22 114 31 22 113 30 24 114 26 23 114 26 23 114 25 21 115 52 34 116 23 23 113 26 23 114 23 23 111 26 23 114 22 22 112 22 23 113 21 22 114 24 24 114 22 23 113 22 21 114 24 20 114 20 21 113 20 24 115 20 24 113 23 23 113 23 23 113 23 23 113 23 23 113 51 36 121 20 21 114 25 21 115 25 22 113 24 24 114 22 21 114 21 22 112 21 20 113 22 22 112 25 22 113 22 22 112 
18 19 101 21 19 102 17 18 100 16 19 100 17 18 100 19 20 102 19 20 102 18 19 101 21 20 100 17 20 101 69 42 109 21 19 102 21 19 102 19 20 102 22 21 101 18 19 101 17 20 101 18 19 101 21 20 100 18 19 101 19 20 102 21 20 100 18 19 101 21 18 97 18 20 97 23 20 99 23 20 101 22 21 99 22 19 98 78 46 113 21 20 100 22 19 96 21 20 98 23 18 98 22 19 98 22 19 96 22 19 98 23 20 99 22 19 98 23 19 96 22 19 98 22 19 98 22 19 98 44 19 100 85 16 99 84 16 99 83 15 98 67 18 99 24 22 95 23 19 96 25 21 97 24 20 96 67 18 99 84 14 100 84 16 99 84 14 100 42 19 99 22 19 98 23 20 99 24 20 97 23 20 97 23 20 99 21 18 97 22 19 98 22 19 98 21 20 98 22 19 98 22 21 99 24 21 100 22 21 101 76 45 113 22 19 98 22 19 98 23 20 101 23 20 99 18 19 99 18 20 97 21 19 102 21 19 102 19 20 102 19 20 102 22 21 101 17 20 101 18 19 101 18 19 102 19 20 100 19 20 102 19 20 100 21 19 103 77 46 113 18 19 101 21 19 102 20 18 101 20 18 101 17 18 101 16 18 101 17 20 101 17 20 99 20 21 103 17 20 101 
16 17 97 17 18 100 15 18 97 15 18 97 15 18 99 15 18 99 18 17 97 19 18 98 16 17 99 15 18 97 67 42 110 16 17 97 20 18 101 17 18 98 17 18 100 15 18 97 15 18 97 16 19 100 18 19 99 17 18 98 16 17 97 18 19 99 17 18 98 17 19 96 19 18 98 21 20 98 21 20 100 23 20 99 21 18 99 77 46 114 24 21 98 24 20 96 24 20 96 26 19 96 24 20 96 24 20 96 24 20 96 25 21 97 25 21 97 27 20 97 27 20 97 24 20 96 24 20 94 67 21 93 82 17 101 85 15 101 86 14 98 43 19 97 23 21 94 24 20 96 24 20 94 25 21 97 42 19 97 84 14 100 83 15 98 81 16 98 68 22 94 24 20 97 24 20 96 24 20 96 24 20 97 24 20 96 24 20 96 26 19 96 24 20 96 25 21 97 24 20 97 24 20 96 24 20 97 23 20 97 77 46 114 22 19 98 21 20 98 22 21 101 22 21 99 18 19 99 16 17 99 19 21 98 17 18 98 16 17 99 18 19 101 17 18 98 15 18 97 15 18 97 16 19 98 18 19 99 15 18 97 18 19 99 17 18 98 77 46 113 17 18 100 17 18 98 17 18 98 17 18 98 16 19 100 16 19 100 16 17 97 16 17 97 17 18 98 17 18 100 
20 21 88 21 19 94 19 19 89 18 18 88 19 19 89 19 20 87 21 20 90 19 19 91 21 20 90 18 18 88 68 41 108 19 20 87 21 20 90 21 20 90 21 20 90 19 19 89 18 18 88 17 20 89 21 20 90 20 19 87 20 20 90 23 20 89 18 19 84 22 21 89 21 20 90 23 22 90 23 20 89 23 20 91 23 20 89 76 45 112 27 21 91 27 20 90 26 19 87 24 19 86 25 20 87 26 19 87 26 20 90 26 21 88 27 22 89 26 19 87 25 20 87 26 20 92 27 22 89 48 23 89 82 14 87 84 14 87 66 15 84 29 19 88 25 20 87 27 20 90 27 22 89 27 22 89 30 20 89 67 16 85 81 13 86 85 15 88 47 22 88 26 21 88 26 21 88 27 20 88 25 20 87 26 19 87 26 21 88 26 21 88 25 20 87 27 22 88 27 21 91 25 20 87 27 20 90 24 21 92 76 45 112 24 21 88 25 19 89 23 20 89 23 20 89 20 19 89 20 19 87 19 19 89 21 18 87 21 20 90 21 20 88 23 20 89 19 19 91 19 19 91 19 19 89 20 19 89 20 19 89 21 19 92 19 19 89 77 44 113 18 18 90 20 18 91 19 19 89 20 20 90 19 19 91 19 19 89 18 18 88 18 18 90 20 18 91 20 18 91 
18 19 84 19 18 86 19 18 86 17 18 83 18 17 85 17 18 83 20 19 85 17 17 87 19 18 84 18 19 86 68 42 107 18 19 84 21 18 87 17 18 83 19 18 86 18 19 86 18 19 84 18 19 84 20 19 85 20 18 83 18 19 84 21 18 85 18 17 83 20 20 82 20 18 83 24 19 83 22 20 83 24 19 83 25 19 83 74 45 103 26 22 83 26 20 82 26 20 82 26 20 82 25 19 81 26 20 80 25 19 81 26 22 83 27 21 83 26 20 82 26 20 82 26 20 82 29 20 83 74 15 81 81 15 79 79 14 80 39 17 79 29 21 81 27 21 81 26 20 82 28 19 84 26 20 80 29 20 83 38 18 79 76 16 80 82 16 80 75 16 82 29 19 80 25 19 79 27 21 83 28 19 82 26 20 82 27 21 83 28 19 82 27 21 83 26 20 82 26 20 80 27 21 83 27 21 83 26 21 85 75 46 104 25 20 84 25 20 84 25 20 84 24 20 81 21 19 82 19 19 83 18 19 84 22 19 86 18 19 84 18 19 83 20 19 85 16 19 86 16 17 84 18 19 86 20 19 85 18 19 86 20 19 87 18 19 86 77 46 113 18 19 84 20 19 87 19 18 84 20 19 85 18 17 83 15 18 85 17 18 83 17 18 83 19 18 86 19 18 86 
18 18 80 18 18 80 17 17 79 18 18 80 19 17 82 18 18 80 20 18 81 18 18 80 19 17 80 18 18 80 67 42 97 19 17 80 22 18 79 19 19 81 20 18 81 18 18 80 18 18 78 19 19 81 23 18 82 21 20 80 20 19 79 23 19 80 19 18 78 21 17 78 21 19 82 24 20 81 24 20 81 25 19 81 22 18 79 75 46 100 35 21 72 33 20 73 33 21 71 33 21 71 35 21 72 34 20 71 36 19 71 34 22 72 35 23 73 32 20 70 33 21 71 34 22 72 60 20 72 84 23 64 84 26 64 59 21 70 34 22 72 34 20 71 33 21 71 34 20 71 35 21 72 36 22 73 33 21 71 33 21 71 58 21 72 83 25 63 84 23 64 57 20 72 31 21 71 35 21 72 34 22 72 33 21 71 34 20 71 33 21 71 33 21 71 33 21 69 34 22 72 32 20 70 32 19 73 35 21 72 75 46 100 21 20 80 25 19 83 25 19 79 24 20 81 21 16 82 21 17 78 19 18 78 24 18 82 23 18 82 20 18 81 20 20 80 19 17 80 19 17 80 18 18 80 21 17 78 20 18 81 20 18 83 18 16 79 75 45 99 18 18 80 21 19 82 19 18 78 20 18 81 18 16 79 17 17 79 18 16 79 19 17 80 19 17 80 19 19 81 
17 18 75 22 18 77 16 16 76 15 16 73 18 17 75 17 18 75 19 18 76 18 18 78 22 18 77 17 17 77 68 41 94 19 18 75 20 19 77 18 19 76 22 18 77 17 17 77 17 18 75 15 17 74 21 18 75 18 19 75 19 18 76 21 18 75 20 20 74 21 18 73 22 19 74 27 20 72 24 19 75 26 19 71 26 19 73 75 45 95 37 21 68 34 22 70 35 21 72 34 20 69 35 21 70 31 22 69 34 20 71 35 21 70 35 21 70 35 21 70 34 22 70 40 22 70 75 24 65 83 25 63 82 26 65 41 23 71 33 21 71 34 20 71 34 20 73 34 20 69 33 21 71 33 21 71 34 22 70 34 20 69 41 21 70 83 25 63 84 26 64 79 24 64 37 21 70 35 21 70 34 20 69 34 20 69 36 22 71 34 21 67 34 20 69 36 22 73 35 21 70 34 20 69 34 20 71 37 21 68 73 45 94 24 19 73 26 19 71 23 18 74 26 19 71 22 19 74 22 17 75 19 20 74 22 19 74 20 19 76 19 18 75 19 19 73 18 17 75 16 17 74 17 17 77 21 17 76 18 19 76 19 18 76 17 18 75 77 47 99 17 17 77 20 19 76 18 19 76 19 18 76 17 18 75 17 17 77 17 18 75 17 17 77 19 18 76 18 19 75 
23 19 69 25 18 70 19 19 71 20 20 72 22 20 70 19 19 69 24 20 71 24 20 71 26 19 71 21 19 69 72 46 93 22 20 70 26 19 70 23 21 71 23 18 72 19 19 71 22 20 70 22 20 70 25 21 71 23 19 70 23 18 72 28 20 71 25 20 74 26 19 71 28 20 71 30 20 72 30 20 70 35 21 72 34 22 72 74 45 89 50 23 64 40 23 67 39 22 67 39 22 67 38 22 67 39 23 68 40 23 68 38 22 67 40 23 68 41 22 67 39 22 67 54 23 65 83 25 63 83 25 63 69 24 63 39 22 66 38 21 66 37 20 65 35 19 64 34 18 63 34 18 63 36 19 64 37 20 64 39 22 66 38 21 66 67 25 65 84 26 64 84 26 64 54 23 64 39 22 66 39 22 67 39 22 66 40 25 68 40 23 67 39 21 69 36 23 67 39 22 66 38 22 69 41 22 67 49 23 70 74 45 89 34 20 71 33 19 70 31 21 71 34 22 72 28 20 71 27 20 71 25 21 71 27 20 72 24 20 71 23 19 70 24 20 71 23 21 71 23 19 70 22 20 70 23 19 70 23 18 72 23 19 70 22 20 69 80 48 95 22 20 70 23 18 72 23 18 72 25 18 70 23 19 70 22 20 70 21 18 71 22 20 70 24 20 71 22 20 70 
20 18 65 22 19 66 20 18 67 20 18 67 19 20 68 19 17 66 23 21 68 20 18 65 23 19 69 20 18 67 70 44 83 21 19 66 22 19 66 21 18 65 23 19 69 19 19 69 22 16 64 22 19 66 22 18 68 23 19 69 21 19 68 26 18 67 25 19 67 26 16 66 27 18 65 32 19 63 32 19 63 34 18 65 35 19 64 77 35 71 85 25 63 79 27 63 58 23 63 46 21 63 40 22 64 41 20 63 42 21 64 42 21 64 46 21 63 42 21 62 47 20 61 72 24 62 85 25 63 85 25 63 56 21 61 36 18 60 35 20 61 36 18 60 36 18 60 36 17 62 35 16 61 35 18 60 35 17 59 35 18 62 35 18 62 55 20 60 82 24 62 83 25 63 76 24 62 46 21 63 44 22 61 43 20 62 43 20 62 41 20 63 41 23 65 43 22 65 43 20 62 55 23 64 79 27 66 85 25 63 77 35 73 34 18 63 35 19 66 32 19 63 33 20 64 26 18 65 25 17 66 25 19 67 27 19 68 23 20 67 22 18 68 24 21 68 21 18 63 21 18 65 21 19 68 22 19 66 25 19 67 23 20 67 21 19 68 79 48 90 19 20 68 24 21 68 21 18 65 22 20 69 19 17 64 19 17 66 17 18 66 19 17 66 23 20 67 23 17 65 
22 20 60 22 19 62 21 18 61 20 19 61 20 19 59 20 19 61 23 21 61 21 20 62 23 20 63 20 19 59 69 44 76 22 20 60 23 21 61 24 18 62 22 20 60 20 19 59 22 19 62 21 20 60 26 19 63 22 20 60 24 19 60 30 17 61 29 18 58 30 19 61 30 19 59 33 18 59 35 18 60 36 18 60 47 19 57 83 26 58 83 26 58 85 26 58 81 26 58 57 21 57 43 19 55 44 19 58 44 19 58 44 19 59 44 19 58 44 19 58 55 21 56 84 25 55 83 26 59 84 24 58 40 19 58 34 17 59 36 18 60 34 17 61 35 17 59 34 19 60 34 17 59 35 18 60 35 18 60 36 18 60 36 18 60 43 18 60 82 27 58 83 26 59 84 25 57 56 20 58 41 19 57 42 20 58 44 19 58 44 19 59 44 19 58 44 19 58 55 21 56 83 26 59 84 25 57 85 25 59 83 26 58 48 20 58 37 19 59 35 18 60 33 18 59 31 19 59 30 18 58 29 18 60 30 19 61 24 19 60 24 19 60 25 19 63 21 18 61 21 18 61 21 19 59 22 19 62 24 18 62 22 19 62 21 19 59 78 48 82 21 18 61 25 19 63 22 20 60 23 20 63 20 19 61 20 19 59 20 19 61 22 16 60 23 20 63 22 19 62 
18 17 59 18 17 59 18 17 57 15 17 56 18 17 57 16 18 57 19 18 60 18 17 59 21 19 59 18 17 59 70 43 76 19 18 58 20 20 58 18 17 57 21 18 61 19 18 58 18 18 56 18 17 57 21 19 56 20 18 57 23 18 58 26 20 58 23 16 58 28 15 58 29 18 58 32 17 58 34 20 56 35 18 60 59 24 57 85 26 56 84 25 55 79 26 56 85 26 56 76 25 56 50 20 56 43 18 57 44 19 59 40 18 56 45 19 58 45 19 56 73 24 56 85 24 55 84 25 55 71 21 56 35 17 57 35 15 52 34 17 53 33 17 53 32 16 52 32 18 53 32 18 53 30 16 49 32 16 52 34 17 51 33 18 51 36 18 56 67 22 55 84 25 53 85 26 56 73 22 53 45 21 57 43 18 57 43 18 57 44 20 56 44 19 58 45 19 54 81 26 57 85 26 56 77 23 55 84 25 55 82 26 55 61 21 56 35 17 59 33 18 57 33 19 55 29 17 55 26 15 58 23 14 59 26 20 58 20 18 57 21 19 56 20 18 57 19 18 58 18 17 57 18 17 59 21 19 59 19 16 59 21 19 59 18 17 57 78 47 79 16 18 59 21 19 59 19 18 60 21 18 61 17 19 58 18 17 57 15 17 56 17 16 58 19 18 58 18 17 59 
61 37 69 62 37 67 60 36 70 57 36 67 60 36 68 60 36 68 61 37 69 59 35 67 61 37 71 59 35 67 74 48 75 60 37 66 61 37 69 59 39 67 61 37 71 59 35 67 61 36 66 61 38 67 63 38 67 62 37 66 63 37 66 64 38 65 63 36 67 67 37 65 69 39 67 67 37 65 71 38 65 71 38 69 79 24 53 83 27 52 77 23 49 55 22 53 81 25 50 84 26 51 76 26 53 70 34 62 71 37 64 71 36 66 71 38 69 74 31 59 83 25 50 85 27 52 85 23 48 52 19 46 36 17 49 32 16 45 33 16 48 33 16 48 31 16 47 31 14 46 30 15 48 30 15 46 32 15 49 34 17 49 33 16 48 35 16 46 52 17 47 83 24 46 83 25 49 84 26 50 74 31 59 71 38 67 71 36 66 70 37 66 70 37 66 79 26 56 84 26 51 82 26 51 54 20 53 77 23 49 85 27 52 80 26 52 71 38 69 70 37 64 68 38 66 68 38 66 66 37 67 62 36 65 66 37 67 65 36 66 64 38 67 62 39 68 62 37 66 61 38 66 61 36 66 62 38 70 60 36 68 61 37 69 61 36 68 81 51 79 57 36 67 62 37 69 61 37 69 63 37 72 57 37 65 60 36 70 60 36 68 61 36 68 62 37 69 61 37 69 
36 27 58 36 27 58 32 25 56 35 26 57 35 26 57 36 27 58 38 27 57 38 27 59 39 28 58 35 26 55 75 45 71 36 27 56 38 27 57 38 27 57 39 28 60 37 26 56 40 26 59 40 27 57 42 27 58 42 27 56 41 26 57 45 26 56 42 26 55 44 25 55 48 25 54 50 27 56 49 26 55 55 26 56 86 24 47 84 24 49 65 21 46 45 19 48 64 19 48 85 23 48 83 25 49 79 26 52 56 25 56 56 25 56 56 26 54 79 25 51 83 23 48 80 22 46 77 21 48 38 14 46 34 15 47 35 16 48 34 15 45 30 15 46 30 15 46 29 16 46 29 16 46 30 15 46 31 14 46 32 16 45 34 15 45 34 15 45 41 17 43 74 17 49 81 23 47 85 23 46 79 25 49 57 26 57 57 27 55 55 26 57 74 26 52 84 24 49 84 25 47 65 20 49 46 17 47 64 20 47 84 26 48 83 24 46 52 26 55 49 25 57 50 26 58 48 25 54 45 24 55 44 25 55 46 25 56 41 26 55 42 25 57 42 27 56 41 26 55 38 27 57 37 26 58 41 27 60 41 28 56 39 28 58 34 28 56 77 47 71 36 27 58 39 28 58 37 28 59 38 27 59 35 26 57 35 26 57 35 26 57 35 26 57 36 27 56 35 26 57 
19 18 50 19 18 49 18 17 49 17 18 49 19 18 50 19 18 52 23 20 51 20 19 51 23 19 52 19 18 49 71 43 68 21 20 51 24 19 51 23 18 50 25 20 52 23 18 50 27 17 51 26 17 48 28 19 50 27 18 49 28 17 51 32 19 49 30 16 49 31 16 47 34 18 47 37 18 48 38 19 51 57 18 47 86 24 49 84 26 50 59 20 49 45 19 48 47 18 48 66 22 47 83 25 49 84 25 47 66 22 49 46 17 47 59 18 48 82 22 47 86 22 46 64 20 45 57 18 45 33 16 48 30 15 46 31 14 46 30 15 46 30 15 46 28 14 47 28 14 47 28 15 45 27 13 46 29 16 46 29 16 46 30 15 46 30 15 46 34 15 47 57 18 47 66 20 46 83 23 48 85 26 48 58 19 46 45 16 44 64 20 47 84 24 49 84 26 48 71 23 49 44 18 47 44 19 48 58 19 46 84 24 49 85 25 50 55 19 47 36 17 47 37 18 48 34 17 49 33 16 50 29 15 48 32 17 50 30 16 49 27 17 51 28 18 52 25 18 49 25 18 49 23 18 50 26 19 52 23 19 52 24 19 51 21 17 50 78 45 72 21 18 49 25 20 52 22 18 51 23 20 51 19 18 50 20 16 49 18 17 51 18 17 49 22 18 51 18 19 50 
20 19 51 20 19 50 19 18 50 18 19 50 22 18 51 18 17 49 25 19 53 23 19 52 27 20 53 24 19 51 73 43 69 24 19 51 27 20 53 26 19 52 29 18 50 27 18 49 27 17 51 29 18 48 33 20 50 32 18 51 29 18 50 32 17 48 32 17 48 34 17 49 37 18 50 42 18 50 41 17 49 66 22 49 85 25 50 84 24 49 43 17 46 45 19 48 45 19 48 46 17 47 68 22 48 83 24 46 83 24 46 73 20 46 81 21 47 85 23 46 74 21 47 50 20 48 45 16 46 30 15 46 29 16 46 29 16 46 29 16 46 27 13 46 25 14 44 25 14 48 25 14 46 25 14 48 27 16 48 27 13 46 29 16 46 29 14 45 32 15 47 44 18 47 47 17 45 78 22 49 83 25 49 81 23 47 73 20 46 84 26 48 84 25 47 67 21 47 46 17 47 45 19 48 44 18 47 47 18 48 84 25 47 83 25 49 65 21 48 41 16 46 41 18 47 37 18 50 36 17 49 33 18 49 33 20 50 33 19 52 32 19 49 32 19 49 31 17 50 26 19 50 28 19 50 30 20 54 27 20 51 26 19 52 25 20 52 80 46 71 21 18 49 25 20 52 22 19 50 24 19 51 19 18 50 18 17 48 19 18 50 19 18 49 22 19 50 19 18 50 
19 18 50 20 19 50 20 19 50 18 17 49 19 18 50 20 19 51 26 21 53 23 20 51 24 21 52 22 18 51 73 43 71 25 18 51 30 19 51 26 19 50 31 20 50 27 18 49 29 18 50 33 17 53 35 18 50 32 19 49 33 18 49 38 19 51 34 17 49 37 18 48 40 16 48 42 19 48 38 18 46 81 23 47 84 24 49 78 22 47 44 17 48 46 17 47 45 16 47 45 19 46 44 17 48 69 21 47 84 24 49 84 24 49 84 25 47 81 23 47 52 18 45 46 17 47 33 17 46 28 14 47 29 14 47 24 15 46 27 13 46 25 14 46 24 13 47 21 14 47 24 14 48 23 13 47 25 16 47 25 14 46 25 14 46 29 16 46 26 15 47 32 16 45 48 17 48 53 18 50 83 23 48 84 25 47 84 25 47 84 24 49 70 22 48 43 18 48 44 18 45 45 18 49 45 19 48 45 18 49 81 23 48 83 25 49 82 24 49 41 17 49 42 17 47 41 17 49 37 18 50 34 17 49 35 19 48 33 18 49 33 20 50 33 18 49 33 20 50 30 19 49 26 19 50 32 18 51 28 19 50 29 20 51 26 19 52 80 46 71 22 19 50 26 21 53 24 18 52 25 20 52 22 18 51 18 19 49 19 18 50 19 18 50 21 20 52 21 17 50 
16 19 50 21 17 50 19 18 50 18 17 49 21 17 50 18 17 49 24 21 52 23 20 51 25 20 52 22 19 50 72 42 68 26 19 53 29 20 51 26 19 50 31 20 52 28 19 50 29 18 50 32 18 51 33 18 49 33 18 47 31 17 50 37 18 50 34 17 49 35 16 46 38 18 46 42 17 47 43 18 48 83 23 48 83 23 48 65 22 49 44 17 48 43 16 47 46 17 47 42 17 47 41 18 47 43 18 48 65 19 47 84 24 49 79 21 46 59 19 46 40 17 46 42 17 47 29 14 47 28 14 47 23 14 43 25 14 48 25 14 46 23 13 47 22 15 46 22 13 44 21 14 45 21 14 47 21 14 47 24 15 44 25 14 46 26 15 47 28 15 45 28 15 45 44 18 47 36 15 48 61 18 45 82 22 47 82 24 48 65 21 48 43 18 48 42 17 49 42 17 49 43 17 46 46 17 48 46 17 47 65 21 48 84 24 49 84 24 49 42 17 47 40 17 46 39 15 47 37 18 48 33 16 48 37 18 48 33 20 50 32 19 49 34 19 50 32 18 53 28 17 49 29 18 50 30 19 51 30 21 52 29 20 51 24 19 51 80 46 73 23 20 51 25 20 52 24 19 51 24 21 52 19 18 50 19 18 50 19 18 50 20 19 51 20 19 51 19 18 50 
17 18 49 17 18 49 15 16 47 17 16 48 14 15 46 16 15 47 22 19 50 21 18 49 23 18 50 21 15 49 70 41 71 24 17 48 25 18 49 26 17 48 28 19 50 25 18 49 28 17 49 28 17 47 31 18 48 31 17 50 31 16 49 35 16 48 32 15 47 33 17 46 37 16 47 39 15 47 55 19 47 84 25 47 83 24 46 53 19 46 38 18 46 42 17 47 41 16 46 40 17 45 39 16 45 37 16 47 37 17 45 47 17 43 52 17 47 36 17 47 34 15 45 30 15 46 25 14 48 24 15 46 24 15 46 21 14 48 22 12 46 19 14 46 19 13 47 20 13 46 19 14 46 19 14 46 19 14 46 20 13 46 22 15 48 24 13 47 24 15 46 24 15 46 29 16 46 32 16 45 32 16 45 52 19 46 46 16 44 39 15 49 39 15 47 37 16 47 40 17 46 39 16 45 41 16 46 40 17 46 54 19 49 83 24 46 82 24 46 51 18 49 38 17 48 37 17 45 35 16 46 32 15 47 34 18 47 32 18 51 31 16 49 30 19 49 31 17 50 27 16 48 27 17 51 29 20 51 27 17 51 27 18 49 24 17 50 77 44 71 21 18 49 23 20 51 20 16 49 23 20 51 16 17 48 17 16 48 15 15 49 14 17 48 17 18 49 14 17 50 
17 18 49 18 17 49 17 18 49 17 16 48 18 17 49 18 17 49 23 18 50 21 18 49 24 18 52 22 16 50 72 42 70 25 18 51 28 17 51 28 18 52 30 19 49 30 19 51 32 18 51 33 18 49 35 19 48 36 17 49 33 18 49 36 17 47 33 17 46 36 17 47 36 15 46 40 16 48 65 19 47 83 23 48 83 23 48 40 17 46 39 16 45 42 17 47 40 16 48 40 17 46 39 15 47 36 16 44 36 15 46 41 16 46 36 15 46 32 15 47 28 13 46 27 16 46 25 16 45 23 16 47 19 13 47 21 14 48 19 14 44 19 13 47 18 14 47 20 15 47 19 14 46 19 13 47 19 14 46 19 14 46 20 14 48 20 13 46 23 13 47 25 14 46 26 15 47 29 14 45 31 16 47 37 16 47 42 17 47 36 15 48 35 14 45 36 15 46 39 16 45 40 17 46 41 18 47 39 16 45 40 17 46 84 22 45 84 25 47 62 19 46 39 16 45 39 15 47 36 16 44 33 17 46 37 18 50 33 18 49 34 17 49 34 18 47 34 17 51 32 17 50 29 18 50 30 20 47 27 18 49 28 19 50 25 18 49 80 45 75 21 16 48 23 20 51 22 19 50 25 20 52 20 16 49 18 17 49 17 16 48 17 16 48 18 17 49 18 17 49 
17 18 49 18 17 49 17 16 48 17 18 49 21 17 50 20 16 49 24 19 51 23 18 50 26 19 52 24 17 50 73 43 69 29 18 50 33 20 50 32 18 51 33 20 50 34 19 50 33 18 47 35 19 48 38 19 49 34 17 49 35 18 50 38 19 49 37 16 47 40 16 48 39 16 45 40 16 48 79 21 46 82 24 46 69 20 49 37 16 47 37 16 47 37 17 45 37 17 45 34 15 45 35 16 48 35 14 47 33 14 46 30 15 46 30 15 46 27 13 46 26 15 47 21 16 48 21 14 47 21 14 47 19 15 48 18 14 47 19 14 46 21 14 47 14 13 45 18 14 47 14 13 45 15 14 46 21 14 47 18 13 45 18 13 45 18 13 45 19 16 47 23 14 45 24 14 48 22 15 46 26 15 47 30 15 46 30 15 46 31 16 47 34 15 47 35 16 46 35 16 46 36 16 44 37 17 45 37 16 47 39 15 47 69 21 45 82 24 48 78 22 47 38 15 44 38 18 46 37 17 45 36 17 47 37 16 47 36 17 47 34 17 49 37 18 48 34 17 49 34 17 51 32 19 49 34 19 50 32 19 49 34 19 50 29 18 50 80 46 73 24 17 48 26 19 50 24 17 50 25 18 49 18 17 48 18 17 49 19 18 49 17 16 48 19 18 50 18 17 49 
19 18 49 23 20 51 20 19 50 22 19 50 23 18 50 23 18 50 28 19 50 28 19 50 31 20 52 28 19 50 75 42 71 34 19 50 34 21 51 33 20 50 40 19 50 38 19 47 39 18 49 38 19 47 40 19 50 39 18 49 39 18 49 40 20 48 39 15 47 37 16 47 40 16 48 51 18 47 82 22 47 83 24 46 57 18 47 36 16 44 36 15 46 36 15 46 35 14 45 31 15 44 31 14 46 30 15 48 29 14 45 28 15 45 26 15 45 26 15 47 22 12 46 20 13 46 19 16 47 17 14 45 18 15 46 15 14 45 19 14 46 28 15 43 14 13 47 14 13 45 14 13 45 13 12 44 28 13 46 18 15 46 17 14 45 19 14 46 18 14 47 19 14 46 21 14 47 24 15 46 25 14 46 26 15 45 27 14 44 30 15 46 30 15 46 31 14 46 34 15 45 35 16 44 36 17 47 36 15 48 37 16 47 56 17 48 83 23 48 82 24 49 53 18 48 40 17 46 40 17 46 38 18 46 41 17 49 38 17 48 39 18 49 42 18 50 38 19 47 39 18 49 39 20 48 40 19 50 33 20 50 35 20 51 34 19 50 81 45 71 29 20 51 31 22 53 28 19 48 28 19 50 23 18 50 23 18 50 22 19 50 22 19 50 22 19 50 23 17 51 
15 16 47 18 17 49 17 16 50 17 16 48 20 16 49 21 17 50 26 19 52 23 16 49 27 17 51 24 17 48 76 42 69 31 18 48 34 19 50 32 17 48 38 19 49 36 17 47 37 18 46 38 18 46 40 17 46 39 16 45 37 16 47 42 17 47 37 17 45 39 16 45 37 16 47 64 19 48 83 23 48 82 22 48 35 16 48 34 15 45 32 16 45 34 15 45 28 13 42 31 16 47 28 15 45 29 16 46 27 14 44 24 13 45 24 15 46 21 14 47 19 13 47 19 16 47 17 14 45 18 12 48 15 14 46 14 15 46 14 13 47 14 14 48 13 12 46 13 14 45 13 12 44 13 14 45 12 13 44 13 12 44 14 13 45 14 13 45 14 13 45 18 15 46 18 13 45 21 14 45 20 13 46 23 14 45 25 14 46 25 14 46 27 13 46 29 15 48 29 14 45 30 13 47 32 15 47 35 16 48 32 15 47 34 15 45 81 21 46 84 25 47 64 20 47 39 16 45 39 19 46 37 17 45 39 16 45 40 16 48 37 17 45 41 16 48 38 17 48 38 17 50 36 17 47 38 18 46 33 18 49 33 18 49 32 19 49 81 47 72 24 17 50 29 18 48 27 18 49 24 17 48 21 18 49 18 17 48 17 16 48 17 16 50 17 16 48 17 18 49 
19 18 50 20 19 50 21 17 50 23 20 51 22 17 49 24 19 51 31 20 52 26 19 50 31 20 52 29 20 51 75 42 69 35 19 48 41 20 51 68 23 52 82 27 46 72 24 50 55 20 52 43 18 48 44 19 49 43 18 48 41 16 48 43 18 48 42 17 47 42 19 48 43 17 46 78 22 47 83 24 46 64 20 47 37 16 47 34 15 45 34 15 45 32 15 47 30 15 44 29 16 46 28 17 49 28 14 47 25 14 46 24 15 46 25 14 48 20 13 44 18 13 45 18 14 47 18 15 46 14 13 45 16 13 44 12 13 44 14 13 45 12 13 44 13 14 45 14 13 45 12 13 44 12 12 46 11 14 47 14 13 45 16 12 47 15 14 46 15 14 46 18 14 47 17 14 45 18 13 45 20 13 47 21 14 47 23 14 45 25 16 47 25 14 44 28 14 47 28 13 44 30 15 46 32 15 47 34 15 45 37 13 45 35 16 46 64 18 44 84 25 47 79 24 47 43 17 44 42 17 47 41 18 47 42 17 47 41 18 47 43 18 48 44 19 51 44 19 49 53 20 49 74 24 49 81 26 49 67 23 50 40 21 49 35 20 51 82 46 72 29 18 50 31 20 52 28 19 50 30 19 51 23 18 50 23 20 51 21 18 49 21 17 50 23 19 52 21 17 50 
19 18 50 22 19 50 19 18 50 19 18 49 22 17 49 22 17 49 29 20 51 29 18 50 33 19 52 28 17 49 75 42 69 35 18 50 52 19 48 82 27 50 84 26 50 85 27 51 84 26 50 74 21 47 51 18 45 40 17 46 40 17 46 40 17 46 39 15 47 39 15 47 57 18 47 83 23 48 82 23 45 42 16 45 33 14 46 30 15 46 30 13 45 29 16 46 27 13 46 25 14 46 25 14 46 23 13 47 24 14 48 19 14 46 21 14 47 18 13 45 18 15 46 15 14 46 14 13 45 13 13 47 12 13 44 13 13 47 9 14 44 10 13 46 9 14 46 10 13 48 12 12 46 12 12 46 12 12 48 10 13 44 13 14 45 13 13 47 14 14 48 14 13 44 14 13 45 17 13 46 18 15 46 19 12 45 22 15 48 24 15 46 22 15 46 24 15 46 25 14 46 28 15 43 29 14 47 30 15 46 30 15 46 32 16 45 40 15 47 84 22 47 83 24 46 55 18 49 37 17 45 37 17 45 41 18 46 41 16 48 41 17 49 51 18 47 75 22 50 83 25 47 84 26 50 84 26 48 82 27 50 53 20 51 34 18 47 82 46 74 29 18 50 31 20 52 28 19 50 29 20 51 24 19 51 22 17 49 21 18 49 20 16 49 19 18 50 19 18 50 
17 18 49 19 18 50 17 16 48 18 17 48 21 18 49 22 17 49 28 19 50 27 18 49 29 20 49 27 18 49 75 42 69 33 18 49 53 20 51 82 27 50 80 24 49 62 22 48 82 24 49 84 25 47 84 25 47 75 22 48 54 19 49 43 18 48 37 16 47 41 16 45 75 21 45 83 24 46 69 19 46 30 13 45 28 15 43 27 13 46 25 14 44 23 14 45 24 15 46 23 13 47 20 13 44 18 13 45 19 14 46 36 15 48 39 16 45 15 14 46 14 13 47 13 13 47 13 13 47 12 12 46 12 12 46 9 12 45 10 13 46 10 13 46 8 13 45 9 14 46 10 13 46 10 13 46 8 13 45 10 13 46 9 14 46 10 13 46 12 12 46 12 12 46 11 12 43 14 13 45 19 14 46 42 17 47 29 15 48 20 13 46 19 14 46 21 14 47 20 13 46 23 14 45 24 15 46 26 15 47 25 15 42 29 14 45 30 15 46 74 21 49 82 23 45 76 20 45 40 15 45 36 15 46 43 16 49 52 18 45 71 21 46 83 25 47 83 25 50 79 23 48 65 20 49 80 25 48 82 27 48 54 21 50 34 17 49 80 46 71 28 17 49 29 20 47 26 16 50 27 18 49 23 16 49 20 17 48 18 17 48 18 17 49 18 19 50 18 17 49 
16 17 48 20 16 49 16 17 48 17 16 48 21 16 48 21 18 49 27 20 51 26 17 48 28 17 49 29 18 48 76 42 69 35 19 48 46 20 49 84 25 47 81 25 50 51 18 49 50 19 50 72 22 47 84 24 50 83 24 46 83 24 46 74 21 47 54 18 44 68 20 46 82 22 47 84 22 47 47 17 45 27 14 44 28 15 45 25 14 44 24 15 46 25 14 46 21 14 47 19 13 47 19 13 47 18 12 46 17 13 46 40 15 44 76 20 45 31 14 46 12 12 46 12 12 46 11 14 47 10 13 46 10 13 46 9 12 45 9 12 45 8 13 45 9 12 45 9 14 46 9 12 45 9 14 46 8 13 45 9 12 45 8 13 45 10 13 46 9 12 45 9 14 46 12 13 43 10 13 46 30 17 45 77 21 48 42 17 46 18 12 46 18 14 47 18 15 46 18 15 46 19 14 46 23 14 45 25 14 48 25 14 46 26 15 47 28 15 45 51 16 46 85 21 47 86 22 46 68 20 46 56 17 46 71 21 46 83 24 46 83 25 47 80 22 46 71 21 46 52 19 48 49 18 49 81 26 49 83 25 49 46 20 49 36 17 49 81 45 71 28 17 49 29 18 50 26 17 48 28 19 50 20 17 48 19 15 48 20 16 49 17 16 48 18 17 49 17 16 48 
18 17 49 19 18 49 19 18 50 20 16 49 22 17 49 24 17 48 29 18 50 28 19 50 33 20 50 31 18 48 76 42 67 38 19 49 45 20 49 79 23 48 83 27 52 64 21 49 42 17 47 42 17 46 56 20 48 75 21 47 85 23 48 83 23 48 85 23 46 83 23 48 84 22 45 67 19 45 34 15 45 28 15 45 25 14 46 24 15 46 23 12 44 21 14 47 18 13 45 18 15 46 16 13 44 18 15 46 15 14 45 14 13 47 20 13 46 14 13 44 12 12 46 10 13 46 11 14 47 8 13 45 7 12 44 9 14 46 8 13 45 7 12 44 9 14 46 8 13 45 8 13 45 8 13 45 8 13 45 9 12 45 8 13 45 8 13 45 8 11 46 10 13 46 11 11 45 10 13 44 13 13 47 20 15 45 16 12 45 15 14 45 15 14 46 17 14 45 17 14 45 19 14 46 19 14 46 21 14 47 24 15 46 25 14 46 28 14 47 33 14 44 68 20 46 82 23 45 86 24 47 83 23 48 83 25 49 80 22 44 73 21 44 59 18 48 43 18 47 42 17 49 61 21 48 82 27 50 79 25 49 47 20 51 38 19 49 81 47 72 29 18 48 32 18 51 28 19 48 29 20 51 23 18 48 23 18 50 20 16 49 19 18 50 19 18 50 18 17 49 
23 20 51 24 19 49 24 19 51 24 17 50 27 18 49 27 18 47 33 20 50 34 19 50 34 19 50 33 18 49 76 42 69 39 20 50 45 20 50 67 21 47 82 27 50 78 24 50 44 17 48 46 17 47 46 17 47 42 17 47 57 18 49 75 23 46 81 21 46 79 21 45 65 19 47 36 16 44 29 15 48 28 14 47 24 15 46 23 14 45 22 12 46 19 13 47 17 14 45 15 14 45 14 13 45 15 14 46 17 13 46 12 13 44 13 13 47 10 13 46 9 12 45 9 12 45 9 12 45 10 13 46 8 13 45 7 12 44 8 13 45 8 13 45 7 12 44 9 14 46 8 13 45 8 13 45 7 12 44 8 13 45 8 13 45 8 13 45 7 12 44 8 13 45 9 12 45 10 13 44 9 14 46 10 13 44 13 13 47 13 14 45 15 14 46 14 13 45 17 13 46 17 14 45 19 14 46 20 13 46 23 14 45 24 13 45 28 14 47 30 15 46 36 15 46 66 20 46 80 22 46 82 22 48 75 22 48 55 18 49 42 17 46 44 18 47 45 16 47 44 17 48 78 24 48 82 28 52 68 24 49 45 20 50 39 18 49 80 46 71 32 17 48 36 19 51 33 20 50 34 21 51 30 17 47 26 16 50 24 17 48 23 18 50 23 20 51 22 19 50 
22 19 50 23 20 49 23 18 50 23 16 49 28 19 50 30 19 49 35 22 52 34 21 51 35 20 51 34 18 47 78 42 68 40 20 48 45 20 50 57 21 49 82 27 50 80 25 48 51 18 49 44 17 48 44 17 48 42 17 47 41 18 47 40 17 46 43 17 46 40 15 45 34 15 45 30 15 46 28 14 47 26 15 47 24 15 46 21 14 47 19 14 46 18 15 46 16 12 45 14 13 45 14 13 44 14 13 47 12 13 44 10 10 46 9 12 45 9 12 45 9 12 45 9 14 46 8 13 45 8 13 45 7 12 44 6 12 44 9 14 46 7 12 44 7 12 44 7 12 44 8 13 45 7 12 44 8 13 45 8 13 45 9 14 46 7 12 44 6 12 46 8 13 45 8 13 45 9 12 45 9 14 46 9 12 45 12 12 46 12 12 46 13 14 45 14 13 45 14 13 47 16 12 45 17 13 46 19 14 46 21 14 47 24 15 46 25 16 47 28 15 45 31 14 46 34 15 45 41 14 45 43 17 46 41 18 47 42 17 47 42 17 46 43 18 47 46 17 48 51 18 47 83 25 47 83 28 51 57 22 52 45 20 50 42 19 48 82 48 73 35 18 50 34 19 50 33 19 52 34 21 51 28 19 48 26 19 50 25 18 49 23 18 48 24 19 51 23 20 51 
25 20 52 24 19 49 28 17 51 26 16 50 28 17 49 33 18 49 35 20 51 34 19 50 43 20 49 38 19 49 77 42 72 44 21 50 46 19 50 52 22 50 81 25 50 84 26 50 63 19 46 43 17 46 46 17 48 44 18 47 41 16 46 39 16 45 37 16 47 34 15 45 30 15 44 29 14 43 28 15 45 25 14 46 23 16 47 20 13 46 19 14 46 14 13 45 14 13 45 13 14 45 14 13 45 14 13 47 12 12 46 9 12 43 9 14 46 8 13 45 8 13 45 8 13 45 8 13 45 7 13 45 7 13 45 9 14 46 7 13 45 7 13 45 7 13 45 8 13 45 8 13 45 8 13 45 8 13 45 9 14 46 8 13 45 9 14 46 6 12 44 8 13 45 7 12 44 7 12 44 9 14 46 11 14 47 10 13 44 13 14 45 13 14 45 14 13 45 14 13 47 16 12 45 14 15 46 17 14 43 18 15 46 21 14 47 24 13 45 28 14 47 29 16 44 32 15 47 35 16 48 36 16 44 40 17 46 41 16 46 44 18 47 46 17 47 44 19 48 64 20 47 83 25 50 83 25 49 49 20 50 50 21 52 43 20 49 82 48 73 38 17 48 40 19 50 35 20 51 34 21 51 32 19 49 28 19 50 28 19 50 26 17 48 26 19 53 24 19 51 
