P3
100 50
255
21 15 43 21 17 44 18 13 43 20 16 41 21 15 41 22 16 42 22 16 42 22 16 42 30 20 45 55 33 56 19 15 42 22 16 42 20 16 43 21 15 43 18 14 41 18 14 41 18 14 41 20 14 42 20 16 43 20 16 43 21 15 43 19 15 42 17 14 41 18 14 41 21 15 41 22 16 42 23 17 45 21 17 42 29 19 44 60 36 58 18 15 42 22 16 42 21 15 43 23 17 45 20 14 42 19 15 42 18 14 41 19 15 42 19 15 42 21 17 44 19 14 44 19 15 42 18 13 43 18 14 41 19 15 42 21 15 41 21 15 43 22 16 42 20 16 43 49 29 54 38 24 49 20 16 43 24 15 42 21 17 44 20 16 41 16 13 40 19 15 42 19 15 42 22 16 42 17 13 40 21 15 41 19 15 42 19 15 42 18 14 41 20 15 47 23 16 50 22 16 50 21 14 56 36 23 66 55 31 79 20 15 71 22 17 75 23 17 79 24 17 85 21 15 85 26 21 103 26 21 105 27 22 106 24 20 104 26 20 106 24 20 105 21 18 105 15 14 84 14 15 82 13 13 77 13 14 71 13 13 67 11 11 63 10 11 59 10 11 55 9 11 50 12 12 48 11 11 45 9 10 38 10 11 39 10 11 39 10 11 39 10 11 39 10 11 39 10 11 39 
22 16 44 20 16 43 18 12 40 19 15 42 20 14 40 22 16 42 22 16 42 21 15 41 29 19 44 55 32 58 19 15 42 22 16 42 22 16 44 22 16 44 18 14 41 19 15 42 18 15 42 20 16 43 21 17 44 19 15 42 21 15 43 19 15 42 18 15 42 19 15 42 21 15 41 22 16 42 22 16 44 20 15 38 28 18 43 60 35 57 21 15 41 22 16 42 21 15 43 21 15 43 19 13 41 19 15 42 19 15 42 20 16 43 19 15 42 22 16 44 18 15 42 20 16 43 18 14 41 19 15 42 18 14 41 21 15 41 20 14 42 22 16 42 19 15 42 48 28 53 37 23 48 19 15 42 21 15 41 21 17 44 20 14 40 19 15 42 18 15 42 22 16 44 22 16 44 17 14 41 22 16 44 18 15 42 20 16 43 18 14 41 21 16 48 22 16 50 23 17 55 22 17 57 37 24 67 54 32 79 19 16 69 24 16 75 22 16 80 25 18 86 20 17 84 26 21 103 26 21 105 26 21 105 25 21 105 27 22 106 24 20 104 21 19 103 15 14 84 14 15 82 13 13 77 13 13 73 13 12 69 11 11 63 11 12 60 10 11 55 9 11 50 11 11 47 10 10 44 10 11 39 10 11 39 10 11 39 10 11 39 10 11 39 9 10 38 10 11 39 
21 14 45 21 17 44 19 15 42 20 16 43 21 15 43 21 15 41 24 15 42 22 16 42 30 20 45 55 33 56 21 15 43 23 17 43 21 15 41 22 16 42 18 14 41 19 15 42 18 14 41 21 15 43 21 15 43 20 16 43 22 16 44 19 15 42 19 15 42 18 14 41 20 15 45 21 17 42 22 16 42 22 16 42 28 18 45 59 33 58 21 15 43 22 16 42 21 15 43 21 15 43 20 14 42 19 15 42 19 15 42 19 15 42 20 14 42 20 16 43 20 16 43 20 16 43 17 14 41 19 15 42 19 15 42 21 17 44 20 16 43 22 16 44 20 16 43 46 28 52 38 24 49 20 16 43 22 16 44 21 15 43 22 16 44 18 14 41 19 12 43 19 15 42 22 16 42 16 13 40 21 15 41 20 15 47 18 14 41 19 15 42 21 14 48 21 15 49 22 16 54 22 15 56 36 23 66 55 32 78 21 16 70 22 16 76 22 16 78 23 16 84 21 15 85 26 21 103 26 21 105 29 21 106 24 20 104 26 21 105 25 21 105 21 19 103 15 14 84 15 16 83 14 14 78 13 13 73 13 12 69 12 12 62 10 11 59 10 11 55 9 11 50 11 11 47 11 11 45 10 11 39 9 10 38 9 10 38 9 10 38 9 10 38 9 10 38 10 11 39 
20 14 42 19 15 42 15 12 39 16 13 40 19 15 42 20 16 41 18 15 42 19 15 42 28 18 45 53 30 56 18 14 41 20 16 41 19 13 41 21 17 44 17 14 41 17 14 41 15 12 39 18 14 41 19 15 42 19 13 41 20 14 42 18 14 41 15 12 39 18 14 41 18 14 41 20 16 43 19 15 42 19 15 42 28 18 45 58 33 55 18 14 41 20 14 42 17 14 41 20 14 42 18 14 41 17 14 41 16 13 40 18 14 41 17 14 41 20 14 42 17 14 41 17 13 40 17 13 40 17 13 40 16 13 40 19 15 42 18 14 41 20 16 43 18 14 41 48 28 53 36 24 48 19 15 42 19 15 42 18 15 42 18 14 41 16 13 40 18 14 41 15 15 39 21 15 43 17 14 41 19 15 42 18 13 43 16 13 40 15 12 39 19 14 46 22 15 49 20 15 55 20 15 56 37 26 68 52 30 76 20 15 69 23 18 74 21 16 80 23 16 84 17 14 83 25 20 102 24 20 105 25 20 104 23 19 104 25 21 106 24 20 104 21 19 103 15 14 84 14 15 82 14 14 78 13 13 73 12 11 68 12 12 62 11 12 60 10 11 55 10 12 51 11 11 47 11 11 45 10 11 39 9 10 38 9 10 38 9 10 38 10 11 39 11 12 40 9 10 38 
21 15 41 19 15 42 17 13 40 18 14 41 19 15 42 21 15 41 21 15 41 20 14 40 27 17 42 54 32 55 19 15 42 21 15 41 18 16 40 22 16 42 18 14 41 18 14 41 17 14 41 19 15 42 20 16 43 18 14 41 19 15 42 18 14 41 17 14 41 18 14 41 19 15 42 20 16 41 19 15 42 19 13 41 28 19 46 59 33 58 18 14 41 24 15 44 19 15 42 21 15 43 18 14 41 18 15 42 17 13 40 18 14 41 18 15 42 20 16 43 20 14 42 19 15 42 17 14 41 18 14 41 16 13 40 20 16 43 20 16 43 20 16 43 19 15 42 46 28 54 37 23 49 19 15 42 20 16 43 19 15 40 20 16 41 16 13 40 17 14 41 18 14 41 21 15 43 17 14 41 21 15 43 19 13 41 18 15 42 17 14 41 19 13 47 22 16 50 20 16 53 21 16 57 34 23 65 53 31 77 21 16 70 22 19 76 24 15 78 23 18 85 17 14 85 26 21 103 25 19 105 28 20 105 22 20 104 27 21 107 24 20 105 21 19 103 16 15 85 13 14 81 14 14 78 13 14 71 13 13 67 11 11 63 10 11 59 11 12 56 9 11 50 11 11 47 10 10 44 9 10 38 9 10 38 9 10 38 10 11 39 9 10 38 10 11 39 9 10 38 
20 14 42 20 16 43 16 13 40 18 14 41 18 14 41 19 15 42 18 14 41 19 15 42 30 17 45 53 30 56 18 14 41 19 15 40 19 15 42 20 16 43 17 14 41 16 13 40 16 13 40 19 15 42 19 13 41 18 14 41 19 15 42 17 14 41 16 13 40 15 12 39 19 15 40 20 16 41 19 15 42 20 16 43 29 19 46 58 33 55 18 15 42 22 16 44 20 16 43 20 16 43 17 13 40 17 13 40 16 13 40 17 13 40 17 13 40 19 13 41 18 14 41 18 14 41 17 14 41 18 14 41 16 13 40 19 15 42 19 15 42 20 16 41 17 14 41 47 27 52 37 25 49 18 14 41 21 12 41 19 15 42 18 14 41 15 12 39 16 13 40 19 15 42 20 16 41 16 13 40 22 16 42 17 13 40 16 13 40 16 13 40 19 14 46 19 15 50 20 16 53 21 16 57 35 24 66 53 31 77 20 15 69 22 17 75 21 16 80 23 16 84 19 16 83 25 20 102 25 21 105 27 22 106 24 20 104 25 21 105 24 20 105 21 19 103 15 14 84 13 14 81 13 13 77 13 14 71 13 13 67 11 11 63 11 12 60 11 12 56 10 12 51 11 11 47 10 10 44 9 10 38 10 11 39 10 11 39 10 11 39 10 11 39 10 11 39 9 10 38 
24 15 42 22 16 42 21 15 43 20 14 42 21 15 43 24 15 42 21 16 39 24 15 42 32 22 47 56 32 56 22 16 44 25 16 43 21 15 41 25 15 42 20 14 42 20 14 40 19 13 41 21 15 41 21 15 43 22 16 44 22 16 42 20 16 43 19 15 42 20 16 41 23 14 41 24 15 44 24 15 42 22 16 42 33 20 48 60 35 56 22 16 42 24 15 42 21 15 41 22 16 42 20 14 42 19 15 42 19 15 42 21 15 43 21 15 41 22 16 42 21 15 43 20 14 40 18 14 41 20 14 40 19 15 42 22 16 44 23 17 45 24 15 42 22 16 42 49 29 54 40 24 50 23 17 45 21 17 42 22 16 44 21 15 41 18 13 43 20 14 42 20 16 41 22 16 44 19 15 40 23 14 43 21 15 41 19 15 42 20 16 43 24 14 48 23 15 52 24 16 53 23 14 57 37 24 67 56 33 77 21 16 72 22 16 76 23 17 79 25 18 86 21 15 85 26 21 103 26 21 105 26 21 105 24 20 104 26 21 105 24 20 104 21 19 103 15 14 84 14 15 82 15 15 79 13 14 71 12 11 68 12 12 64 12 13 61 11 12 56 9 11 50 11 11 47 10 10 44 9 10 38 10 11 39 11 12 40 10 11 39 10 11 39 10 11 39 9 10 38 
24 15 44 22 16 42 20 14 42 20 14 42 22 16 44 22 16 42 22 16 42 22 16 44 31 21 46 55 33 56 21 15 43 24 18 44 24 15 42 23 17 43 18 14 39 20 16 41 19 15 42 23 17 43 23 17 45 21 15 43 22 16 42 21 15 41 20 14 42 21 15 41 21 15 41 22 16 42 23 17 45 24 15 42 29 19 44 60 35 57 22 16 44 23 19 46 21 15 41 23 17 43 21 15 43 21 15 43 19 15 42 21 15 43 20 14 40 24 15 42 21 15 43 21 15 41 19 15 42 21 15 41 18 14 41 22 16 44 22 16 44 24 15 42 22 16 44 49 29 54 38 24 49 22 16 44 22 16 42 22 16 44 24 15 42 19 15 42 20 16 43 21 15 41 24 15 42 21 15 41 24 15 42 19 15 42 20 14 42 20 16 43 21 16 48 22 16 50 23 17 53 22 15 57 36 23 67 53 31 78 22 14 71 22 17 75 23 17 79 24 17 85 21 15 85 26 21 103 26 21 105 27 22 106 24 20 104 27 21 107 25 21 105 20 18 102 15 14 84 14 15 82 14 14 78 12 12 72 13 12 69 12 12 62 12 13 61 10 11 55 10 12 51 11 11 47 10 10 44 10 11 39 10 11 39 10 11 39 10 11 39 10 11 39 10 11 39 9 10 38 
24 15 44 24 18 44 20 16 43 21 15 41 24 15 42 25 16 43 21 17 42 22 18 43 34 22 46 55 33 56 23 14 41 23 17 43 24 15 44 25 16 43 21 14 45 20 16 41 19 15 42 21 15 41 22 16 44 21 15 43 22 16 42 21 15 41 19 15 42 21 15 41 21 15 41 25 16 43 21 15 41 25 16 43 31 18 44 60 34 59 22 16 44 25 16 43 24 15 42 26 16 43 20 14 42 21 15 43 19 15 42 20 14 42 21 15 43 22 16 44 20 16 43 20 16 43 19 15 42 20 16 43 20 16 43 22 16 44 22 16 44 22 16 44 21 15 43 53 31 54 39 25 50 22 16 42 22 16 42 21 14 45 22 16 44 19 15 42 20 14 42 19 15 42 25 16 43 19 15 42 22 16 42 20 16 41 19 15 42 20 16 43 23 16 47 24 17 51 25 17 54 22 15 57 37 24 67 57 31 78 22 14 71 23 18 76 24 18 80 23 16 83 22 16 86 25 20 102 27 22 106 26 21 105 25 21 105 25 21 105 26 20 106 21 19 103 15 14 84 15 14 82 14 14 78 12 12 72 12 12 66 11 11 61 10 11 59 10 12 53 9 11 49 10 10 44 10 10 44 10 11 39 10 11 39 10 11 41 10 10 38 9 10 38 9 10 38 10 11 39 
21 15 43 20 16 41 19 13 41 20 16 41 20 14 42 24 15 42 21 17 42 22 16 42 30 20 47 54 32 55 19 15 42 22 16 42 20 14 40 22 16 42 19 15 42 19 15 40 19 15 42 21 15 43 23 14 43 21 15 43 22 16 44 20 16 43 18 14 41 19 15 42 19 15 40 22 16 44 20 16 43 22 15 46 27 17 42 58 34 56 20 14 42 24 15 42 23 14 41 22 16 42 19 15 42 21 17 42 20 16 43 19 15 40 21 15 43 20 16 43 20 14 42 19 13 41 17 14 41 21 15 41 18 15 42 22 16 42 22 16 42 25 16 43 20 16 43 51 27 53 39 23 49 21 15 43 22 16 44 22 16 44 21 15 43 19 15 42 20 16 43 20 14 42 25 17 41 20 16 43 22 16 42 19 15 40 20 16 43 18 14 41 22 15 48 22 16 52 23 17 53 21 16 57 36 23 66 55 32 76 21 16 70 23 18 76 23 17 79 25 18 86 19 16 85 25 20 104 26 21 105 26 21 105 25 19 105 25 21 105 24 20 105 22 18 103 15 14 84 14 13 81 12 12 76 11 11 71 11 12 68 12 12 64 11 12 60 11 13 54 10 12 50 11 11 47 11 11 47 10 11 39 10 11 39 9 10 38 10 10 38 10 10 38 9 10 38 10 11 39 
51 28 54 48 29 51 45 25 50 47 27 52 48 28 53 49 29 54 48 28 53 48 28 53 52 30 53 65 37 60 48 28 53 49 29 54 48 28 53 48 28 53 47 27 52 46 28 54 46 28 52 47 29 53 48 28 53 47 29 53 49 30 52 48 28 53 50 27 53 48 28 53 48 28 53 49 29 54 49 29 54 49 29 54 53 31 52 67 37 61 48 28 53 49 29 54 49 30 52 50 31 53 46 26 51 47 27 52 46 26 51 49 26 52 47 27 52 49 26 52 47 27 52 46 26 51 46 26 51 46 26 51 46 26 51 47 27 52 47 27 52 51 27 53 47 28 50 61 36 58 56 32 56 49 26 52 47 27 52 49 26 52 49 26 52 45 25 50 46 26 51 47 27 54 47 27 52 45 27 53 49 26 52 47 27 52 47 27 52 45 27 51 48 28 55 52 28 60 49 30 62 49 29 66 55 34 73 64 37 82 47 29 79 49 32 87 50 31 87 51 31 92 48 30 90 30 22 105 28 20 105 27 21 107 25 20 102 27 22 106 25 19 105 21 19 103 15 14 84 15 14 82 13 13 77 13 13 73 12 12 66 12 12 62 10 11 57 10 12 53 9 11 49 11 11 47 11 11 47 10 11 39 9 10 38 10 11 39 9 10 38 9 10 38 10 11 39 11 11 39 
48 29 51 48 28 53 47 27 52 47 27 52 48 28 53 47 27 52 47 27 52 49 26 52 53 31 54 65 37 60 47 28 50 47 28 50 46 26 51 49 26 52 43 25 49 43 24 52 41 25 51 45 27 53 45 25 52 44 24 52 46 28 52 43 24 52 42 24 50 43 25 51 47 27 54 49 26 52 48 28 53 47 27 52 54 30 54 68 40 63 45 25 50 50 28 51 48 28 53 50 27 53 48 25 51 48 25 51 46 26 51 48 25 51 49 26 52 50 27 53 48 28 53 46 26 51 47 27 52 49 27 50 46 28 52 49 29 54 49 29 54 49 29 54 47 27 52 62 34 57 57 33 55 47 27 52 47 27 52 48 28 53 47 27 52 46 26 51 47 27 52 48 29 51 50 28 51 46 26 51 49 26 52 47 27 52 46 26 51 46 26 51 48 28 56 47 28 58 48 29 59 47 30 66 55 34 73 64 37 80 45 27 79 48 29 85 48 29 84 49 31 89 46 28 86 30 22 105 27 22 106 28 20 105 25 21 105 25 21 106 25 20 104 21 19 103 15 14 84 15 14 82 14 14 78 13 13 73 12 12 66 12 12 64 10 11 57 10 12 53 9 11 49 11 11 47 11 11 45 10 11 39 10 11 39 10 11 39 9 10 38 11 11 39 9 10 38 10 11 39 
20 14 40 19 15 40 18 14 41 18 14 39 22 16 42 21 15 41 19 16 43 21 15 41 29 19 46 54 30 54 19 15 42 23 14 43 20 14 42 22 16 42 17 12 42 19 15 40 18 14 41 20 14 42 20 14 42 20 16 43 20 16 41 19 15 42 18 14 39 19 15 42 20 16 43 21 15 41 21 15 43 21 15 43 28 18 45 59 34 56 21 15 43 21 15 43 21 15 41 22 16 42 20 14 42 19 15 42 17 14 41 19 15 42 20 14 42 21 15 43 19 15 42 20 14 42 19 14 44 18 16 40 17 14 43 20 16 41 20 16 43 21 15 41 19 15 42 48 28 53 38 24 49 21 15 43 21 15 43 21 15 41 20 16 41 18 14 41 18 14 41 19 15 42 22 16 42 17 14 41 21 17 42 19 15 40 18 14 41 18 14 41 20 15 47 21 15 49 22 16 52 22 17 57 36 23 66 55 33 79 20 17 70 22 17 75 23 17 79 24 17 85 19 16 85 26 21 105 26 21 103 26 21 105 23 19 104 26 21 105 24 20 105 22 18 103 15 14 84 15 14 82 13 13 77 12 12 72 11 12 66 10 10 60 11 12 58 11 13 54 10 12 50 11 11 47 11 12 43 10 11 39 10 11 39 9 10 38 11 12 40 10 11 39 10 11 39 11 11 39 
25 16 43 23 17 45 21 15 43 21 15 41 25 16 43 25 16 43 25 16 43 25 16 43 34 21 47 56 32 56 23 14 41 25 17 41 22 16 44 25 16 43 20 16 43 21 15 43 20 16 43 22 17 40 24 15 44 22 16 42 24 15 44 21 15 41 21 15 43 21 15 43 22 16 42 25 16 43 23 17 43 24 15 42 29 19 46 59 35 59 22 16 42 26 17 44 24 15 42 25 16 43 21 15 41 22 16 42 20 16 41 21 15 41 22 16 42 25 16 43 22 16 42 21 15 41 21 15 41 24 15 42 19 15 40 23 17 43 22 16 42 25 16 43 23 14 43 51 29 52 39 25 50 21 15 41 24 15 42 25 16 43 24 15 42 20 14 42 21 15 41 22 16 42 25 17 41 21 15 41 23 17 43 22 16 42 21 15 43 21 15 41 21 16 48 24 17 51 25 14 54 25 16 59 39 24 67 55 31 79 23 15 74 25 17 76 24 18 80 27 18 83 23 16 84 25 20 102 27 22 106 28 20 106 24 20 105 26 21 105 24 20 104 22 18 103 15 14 84 15 14 82 14 14 78 12 12 72 11 12 66 12 12 62 11 12 58 10 12 53 9 11 49 11 11 47 10 11 42 10 11 39 9 10 38 10 11 39 10 11 39 11 11 39 9 10 38 11 12 40 
22 16 42 21 15 41 20 14 42 19 16 45 21 15 41 24 15 44 23 17 43 22 16 42 30 20 47 57 31 58 21 15 41 24 15 42 22 16 42 22 16 42 18 14 41 19 15 40 19 15 42 21 16 39 24 15 44 19 15 38 22 16 44 19 15 40 18 13 43 18 14 41 21 15 43 22 16 44 22 16 42 21 17 44 29 19 44 59 33 58 20 16 41 23 17 43 21 15 41 21 17 42 20 14 42 23 14 43 19 15 42 20 16 43 21 15 43 21 17 44 20 16 43 19 15 42 18 14 41 20 14 40 20 14 42 22 16 42 22 16 42 22 16 42 21 15 43 50 27 53 40 24 50 21 15 41 23 14 41 24 15 44 20 16 43 19 15 42 19 15 42 20 16 43 22 16 42 18 14 41 21 17 42 20 16 41 19 15 42 18 15 42 22 15 48 23 16 50 23 17 51 22 15 56 38 23 66 54 31 77 21 16 72 24 16 75 23 17 79 25 18 85 19 16 85 28 20 103 26 21 105 27 22 104 24 20 107 26 21 105 27 22 106 21 19 103 15 13 86 15 14 82 14 14 76 11 12 69 12 12 66 12 12 62 10 11 57 10 12 53 9 11 49 11 11 47 11 12 43 10 11 39 10 11 39 10 11 39 10 11 39 10 11 39 10 11 39 11 11 39 
24 15 42 21 17 42 20 16 43 21 15 43 21 15 43 22 16 42 22 16 42 24 15 44 32 19 45 55 31 53 21 15 43 25 16 43 20 16 41 22 16 44 19 15 40 21 15 43 19 15 42 20 14 42 21 15 43 21 15 41 22 16 42 21 15 43 19 13 39 21 15 43 21 15 41 22 16 42 24 15 42 22 16 42 30 20 45 59 33 58 21 15 41 22 16 42 22 16 42 21 15 41 22 13 42 20 14 40 19 15 42 20 14 40 20 14 42 22 16 44 21 15 43 21 15 43 19 14 44 20 14 40 18 14 41 23 15 39 22 16 42 24 15 42 21 15 43 51 28 54 39 23 49 21 15 41 22 16 42 24 15 42 24 15 42 19 14 44 21 15 41 22 13 42 22 16 42 19 15 42 22 16 44 21 15 41 20 16 43 19 15 40 22 15 48 23 15 52 23 17 53 23 16 57 36 23 66 54 32 79 21 16 70 24 16 75 23 17 79 24 17 84 22 17 84 26 21 103 26 21 105 26 21 105 24 20 105 26 21 103 24 20 104 21 17 102 15 14 84 14 13 81 15 13 78 12 12 72 11 12 66 12 12 62 11 12 58 10 12 53 9 11 49 12 12 48 11 12 42 10 11 39 9 10 38 10 11 39 10 11 39 10 11 39 10 11 39 10 10 38 
20 14 42 19 15 42 17 13 40 17 14 41 19 15 42 18 15 42 20 14 42 19 15 42 28 18 45 54 32 55 18 14 41 20 16 43 20 14 40 21 15 43 16 13 42 17 14 41 16 13 42 18 14 41 19 15 42 18 14 41 19 15 42 17 14 41 18 14 41 17 14 41 19 15 42 22 13 40 19 15 40 20 14 40 25 19 45 57 33 57 18 14 41 20 16 41 19 15 42 21 15 43 17 13 40 17 13 40 17 14 41 17 14 41 18 14 41 19 15 42 18 14 41 18 14 41 16 13 40 16 13 40 17 14 41 19 15 42 18 14 41 19 15 42 18 12 40 47 27 52 37 23 48 19 15 42 20 14 40 20 14 42 18 14 39 17 14 41 17 13 40 18 14 41 21 15 41 16 13 40 20 14 40 19 15 42 17 13 40 16 13 40 19 14 46 21 15 51 21 15 53 20 15 56 35 24 66 53 31 77 21 16 70 22 17 75 21 16 80 24 17 85 18 15 82 25 20 102 24 19 103 27 22 104 23 19 104 25 22 103 26 21 105 21 17 101 15 14 82 15 14 82 14 14 76 13 14 71 12 13 69 12 12 62 11 12 58 10 11 55 9 11 49 11 11 47 11 12 43 9 10 40 10 11 39 10 10 38 10 11 39 9 10 38 10 10 38 10 10 38 
22 13 40 19 13 41 17 13 40 18 14 41 20 14 40 21 15 43 22 16 44 21 15 43 28 18 45 54 32 55 18 14 41 21 15 43 19 13 41 21 15 41 16 13 40 19 15 42 16 13 40 19 13 41 19 15 42 19 15 42 20 14 42 17 13 40 17 14 41 16 13 40 19 15 40 20 16 41 20 16 43 20 14 42 27 17 42 57 33 55 20 16 43 21 15 43 20 14 42 23 14 43 18 14 41 16 12 39 17 13 40 19 15 42 18 14 41 19 15 42 19 13 41 20 14 42 18 14 41 19 15 42 18 14 41 19 15 40 18 14 41 21 15 43 18 14 41 49 29 54 37 23 48 19 15 42 19 15 38 21 15 43 21 15 41 16 13 40 18 14 41 18 14 41 21 15 41 16 13 40 21 15 41 19 15 42 18 14 41 16 13 40 19 14 44 20 14 50 20 13 54 20 15 56 36 23 66 53 32 75 21 16 70 22 17 75 21 15 77 24 17 85 18 15 84 25 20 102 25 20 104 26 21 103 22 20 104 26 21 105 24 20 104 21 17 102 15 14 84 14 13 81 14 14 76 13 12 72 11 12 66 11 11 61 11 12 58 10 12 53 12 12 50 11 11 47 10 11 42 8 9 39 10 11 39 10 10 38 10 10 38 10 10 38 10 11 39 10 11 39 
19 15 42 18 14 41 16 13 40 17 14 41 17 14 41 21 15 43 19 15 42 21 17 44 27 18 45 53 31 54 17 14 41 19 15 42 19 13 39 21 15 41 16 13 42 18 14 41 16 13 40 19 15 42 19 15 40 19 15 40 20 16 43 16 13 40 17 14 41 17 14 41 17 14 41 19 15 40 19 15 40 19 15 40 27 17 44 57 33 57 19 15 42 21 15 41 19 15 42 20 16 43 17 14 41 17 14 41 16 13 40 17 13 40 18 14 41 18 14 41 17 14 41 18 14 41 17 13 40 18 14 41 18 14 41 21 15 43 20 14 42 21 15 43 19 15 42 47 27 52 37 23 46 19 15 40 20 16 43 19 15 42 19 15 40 17 14 41 19 15 42 18 14 41 20 14 40 16 13 40 21 15 41 18 14 41 18 14 41 16 13 40 19 14 46 21 15 49 21 15 51 20 15 56 34 21 64 53 31 77 20 15 69 21 18 75 23 19 80 23 18 85 19 16 85 25 20 102 26 21 105 27 22 104 24 20 104 26 21 105 24 20 104 22 18 102 15 14 84 15 14 82 13 13 75 13 12 69 12 13 67 12 12 62 11 12 58 12 11 55 11 11 49 11 11 47 11 12 43 9 10 38 11 11 39 10 11 39 11 11 39 12 12 40 9 10 38 9 10 38 
25 16 43 22 16 42 20 14 40 21 15 41 20 14 40 25 16 43 24 15 42 24 15 42 32 19 45 56 32 56 24 15 42 25 16 43 22 16 42 25 16 43 19 15 40 20 14 40 20 16 43 22 16 42 22 16 42 21 15 41 22 16 44 19 15 42 23 14 43 20 16 43 21 15 41 24 15 42 24 15 42 22 16 42 31 18 44 61 36 58 23 14 41 25 16 43 22 16 42 25 16 43 21 15 41 20 16 41 20 16 43 20 16 41 21 16 39 25 15 42 22 16 42 20 16 41 19 15 42 21 15 41 20 14 40 24 15 42 24 15 42 25 16 45 22 16 42 51 29 52 40 24 50 24 16 40 23 17 43 22 16 42 22 16 42 21 15 43 23 14 41 22 16 42 25 16 43 21 15 41 26 17 44 22 13 40 21 15 43 21 15 43 22 15 46 24 17 51 24 16 53 24 16 57 38 22 67 56 30 77 23 16 70 26 18 77 25 16 79 26 17 84 21 15 85 25 20 102 26 21 103 29 21 104 23 19 103 26 21 103 26 21 105 21 17 104 15 14 84 14 13 81 14 14 76 13 14 71 11 12 66 12 12 62 11 12 58 10 12 53 11 11 49 11 11 47 11 12 43 9 10 40 9 10 38 10 10 38 10 10 38 11 11 39 9 10 38 10 11 39 
20 14 40 20 16 41 18 13 43 18 14 39 20 14 42 20 16 41 20 14 42 21 15 41 28 18 45 53 31 54 19 15 42 22 16 42 20 14 42 22 17 40 16 13 40 19 13 41 18 12 38 19 13 39 21 15 41 19 15 40 21 15 41 19 15 40 18 14 41 17 13 40 19 15 40 20 14 40 20 14 42 19 15 42 28 18 43 57 33 55 19 15 42 22 16 44 20 16 41 20 14 40 18 12 40 19 15 40 17 13 40 18 14 39 18 14 41 21 15 41 19 15 42 19 13 41 17 13 40 18 14 41 17 13 40 20 14 40 20 14 42 20 16 41 18 14 41 51 29 52 38 24 49 20 16 41 20 16 43 20 16 41 19 15 42 17 14 41 18 14 41 18 14 41 20 16 41 17 13 40 21 15 41 19 15 42 18 14 41 16 13 40 20 15 47 22 16 52 22 16 52 22 15 56 36 23 66 53 30 76 20 15 69 22 17 75 19 18 78 23 16 84 20 14 84 25 20 102 26 21 105 27 22 106 24 20 104 26 21 105 25 20 104 21 17 101 15 14 84 15 14 82 13 13 75 13 14 71 12 13 70 11 11 61 11 12 58 11 12 56 11 11 49 11 11 47 9 10 41 10 11 39 10 11 39 11 11 39 9 10 38 8 9 37 11 11 39 11 11 39 
21 15 41 21 15 41 19 13 41 19 15 42 23 14 41 22 16 42 23 14 41 22 16 42 32 19 45 56 32 56 21 15 43 24 15 42 21 15 41 22 16 42 19 15 42 19 15 40 19 15 40 23 14 41 23 17 43 20 15 38 21 16 39 19 15 40 18 14 41 18 15 42 21 15 41 22 16 42 20 14 40 21 15 41 29 19 44 58 34 56 21 15 43 22 16 42 21 15 43 22 16 42 20 16 43 18 14 41 18 14 41 20 14 40 20 13 44 21 15 41 20 14 40 20 14 42 19 15 42 20 16 43 19 15 42 22 16 42 21 15 41 24 15 42 21 17 42 50 27 53 39 23 49 22 16 42 21 15 41 22 16 42 22 16 42 18 14 41 19 15 42 20 16 43 23 17 43 18 14 41 22 16 42 19 15 42 17 14 41 20 16 43 20 15 47 21 15 49 23 17 53 22 15 57 36 23 67 54 31 77 21 16 70 23 18 74 24 18 80 24 17 84 19 16 85 27 22 104 25 20 102 27 22 104 25 20 104 26 21 103 25 21 105 21 17 101 16 15 83 15 14 82 14 14 76 14 13 71 11 12 66 12 12 62 11 12 58 10 12 53 9 11 49 10 10 46 10 11 42 10 11 41 10 11 39 10 10 38 11 12 40 9 10 38 11 11 39 11 11 39 
22 16 42 22 16 42 20 15 38 20 16 43 21 15 41 22 16 42 23 17 43 22 16 42 30 20 47 55 31 55 20 16 41 22 16 42 21 15 43 24 15 42 20 16 41 20 16 43 20 16 41 21 15 41 22 16 42 22 13 40 21 15 41 19 15 42 20 14 42 20 16 41 19 13 41 23 17 43 21 15 41 22 16 42 28 18 45 58 34 58 20 14 42 22 16 42 20 14 40 25 16 43 18 14 39 19 15 40 18 14 41 21 17 42 20 16 39 21 15 41 20 16 41 20 14 40 19 15 42 20 16 41 20 16 43 24 15 42 22 16 42 22 16 42 21 15 43 51 28 54 39 23 49 21 15 43 22 16 44 20 16 41 22 16 44 19 15 42 19 15 40 20 16 41 23 17 43 18 14 39 21 15 41 19 15 40 20 16 43 19 15 42 22 15 48 22 15 49 25 17 54 22 15 57 36 23 67 53 30 76 22 15 69 22 17 75 25 16 79 23 16 84 21 16 83 27 19 102 27 22 104 27 22 104 23 19 103 26 21 103 24 20 104 22 18 102 15 14 84 15 14 82 13 13 75 13 12 72 12 13 69 12 12 62 12 13 59 11 12 56 11 11 49 10 10 46 11 12 43 10 11 39 9 10 38 10 10 38 10 11 39 10 11 39 10 10 38 10 10 38 
21 15 41 18 14 39 17 13 40 17 13 40 18 14 41 20 14 40 19 15 42 19 15 40 28 18 43 51 32 54 18 14 41 21 15 41 18 14 41 20 14 40 16 13 40 17 13 40 16 13 42 18 14 41 18 14 39 16 14 38 20 14 42 17 13 40 17 13 40 18 13 43 19 13 41 20 14 42 19 15 42 20 14 42 23 17 43 56 32 56 18 13 43 20 16 43 19 15 42 21 15 43 17 13 40 17 13 40 16 13 40 17 14 41 17 13 40 19 15 42 18 14 41 17 13 40 16 13 42 18 14 41 16 13 40 20 14 40 19 15 40 21 17 42 18 14 41 47 27 52 38 24 49 19 15 40 19 15 42 19 15 40 20 14 42 16 13 40 18 13 43 17 13 40 21 15 43 15 12 39 21 15 43 17 13 40 17 13 40 16 13 40 19 14 46 20 16 51 22 16 54 20 15 56 36 23 66 52 30 76 20 15 69 21 16 74 21 17 78 24 17 85 18 16 81 25 20 102 26 21 105 26 21 103 23 19 104 27 22 104 25 20 104 22 18 103 14 13 83 15 14 82 14 14 76 12 13 70 12 13 67 11 11 61 11 12 58 13 12 54 11 11 49 11 11 47 9 10 41 10 11 41 10 10 38 11 11 39 10 10 38 10 10 38 9 10 38 9 10 38 
21 15 41 19 15 40 16 12 39 17 13 40 19 15 42 20 14 40 21 15 41 21 15 43 29 19 43 53 31 54 19 15 40 23 14 41 18 14 41 20 16 43 16 14 38 18 14 41 17 13 40 19 15 40 19 15 42 18 14 41 19 15 40 19 15 40 14 14 40 17 13 38 19 13 41 21 15 41 21 15 41 20 16 41 26 17 44 57 33 55 18 14 39 22 16 42 20 14 40 22 16 42 18 14 41 16 13 40 17 14 41 17 15 39 18 14 41 20 14 40 18 14 39 17 13 40 16 13 40 17 14 41 18 14 41 19 15 40 19 15 40 21 15 41 19 15 42 50 27 53 38 24 49 20 14 42 20 16 43 21 15 41 20 14 40 17 13 40 19 13 39 17 13 40 21 15 43 18 15 42 23 14 41 18 14 39 17 13 40 16 13 40 19 14 46 21 15 49 21 15 49 20 15 56 36 23 66 54 31 77 20 17 70 23 18 76 21 17 78 23 16 84 17 16 82 25 20 102 25 20 104 29 21 104 25 20 104 26 21 105 24 20 105 21 17 102 14 13 83 14 13 81 14 14 76 15 14 72 13 13 67 11 11 63 10 11 57 10 12 53 11 11 49 11 11 45 10 11 42 10 11 39 11 11 39 10 11 39 10 10 38 10 10 38 11 11 39 10 11 39 
20 16 41 20 16 43 16 13 40 17 14 41 19 15 40 20 14 40 21 15 41 20 14 40 29 19 44 54 30 56 19 15 42 21 15 41 20 14 40 20 14 42 17 14 43 18 14 41 17 13 40 18 14 39 19 16 43 17 13 40 20 16 43 16 13 40 18 12 40 18 12 40 20 14 42 18 16 40 20 14 42 20 14 42 27 18 45 56 32 54 18 14 41 19 16 43 19 15 42 21 15 43 18 14 39 18 14 41 15 13 37 18 14 41 18 14 41 18 15 42 19 14 44 18 14 41 17 13 40 18 14 41 16 13 40 19 15 40 20 14 42 20 16 41 19 13 39 49 26 52 39 23 49 20 14 42 21 15 41 19 15 40 21 15 41 16 13 42 18 14 41 18 14 41 20 16 43 17 13 40 20 16 41 18 14 39 17 13 40 17 14 41 20 15 47 22 16 50 21 17 52 21 14 56 35 22 65 54 31 77 22 15 69 22 17 75 22 18 79 23 16 83 18 15 82 25 20 100 26 21 105 26 21 105 24 20 105 26 23 104 24 20 104 23 19 104 15 14 84 15 14 82 15 13 76 13 12 69 11 12 66 12 12 64 11 12 58 11 12 56 10 10 48 12 12 48 10 11 42 10 11 39 10 10 38 10 11 39 10 10 38 10 10 38 11 11 39 10 10 38 
24 15 42 21 17 42 20 14 42 19 15 40 23 14 41 23 14 41 25 16 43 24 15 42 34 20 46 54 32 55 22 16 42 25 17 41 22 16 42 24 15 42 20 16 41 19 17 41 20 16 41 21 15 43 22 16 44 24 15 42 23 14 41 20 14 40 20 16 43 21 15 41 22 16 44 24 15 42 24 15 42 24 15 42 32 19 45 59 34 56 23 14 41 25 16 43 22 16 42 25 16 43 21 15 41 21 15 41 19 15 40 20 14 40 21 15 41 24 15 42 21 15 41 21 15 41 19 15 42 21 15 43 19 14 44 23 17 43 22 16 42 24 16 40 22 16 42 52 30 53 41 25 51 23 17 43 24 15 42 22 16 42 24 15 44 21 17 44 20 16 41 21 15 41 26 17 44 20 16 41 25 16 43 22 16 42 21 15 41 19 15 40 22 15 49 24 17 51 24 18 54 24 15 58 38 23 66 56 30 77 22 15 69 23 15 74 26 17 80 24 19 85 23 16 83 28 20 103 29 21 104 28 20 105 25 19 105 26 21 105 25 20 104 20 18 102 15 14 84 14 13 81 12 12 74 13 12 70 12 13 69 12 12 62 10 11 57 12 11 55 11 11 49 12 12 48 11 12 43 10 11 39 10 10 38 9 10 38 10 11 39 10 11 39 11 11 39 12 12 40 
21 15 43 21 15 41 18 14 39 19 13 41 21 15 41 24 14 41 22 16 42 22 16 42 31 18 46 54 32 53 21 17 44 25 16 45 21 15 43 22 16 42 19 15 42 21 15 41 18 14 41 20 16 41 22 16 42 21 17 42 22 16 42 20 16 41 18 16 40 18 14 39 19 15 40 23 14 41 22 16 42 22 16 44 31 18 46 59 34 56 21 15 41 20 14 40 23 14 41 23 14 41 20 14 40 19 15 40 18 14 41 18 16 40 19 15 40 20 14 40 20 16 41 19 13 41 18 14 41 19 15 42 19 13 41 21 15 41 22 16 42 23 17 43 21 15 41 49 29 54 40 24 50 21 15 41 22 16 42 22 16 42 21 15 41 19 13 41 19 15 42 19 15 42 22 16 42 18 14 41 22 16 42 19 15 40 20 13 44 18 14 41 21 16 48 23 16 49 22 16 54 24 16 57 38 23 66 54 31 77 21 16 70 24 16 75 22 18 79 24 17 85 21 15 85 27 20 100 26 21 105 27 22 104 25 20 104 26 21 105 26 21 105 22 20 103 15 14 82 15 14 80 14 14 76 14 13 71 13 13 67 12 12 62 11 12 58 12 11 55 11 11 49 11 11 47 11 12 43 11 11 39 11 11 39 10 11 39 10 10 38 10 10 38 10 10 38 10 10 38 
25 16 43 22 16 44 20 14 42 23 14 41 24 15 42 24 16 40 25 17 41 24 15 42 35 19 46 56 32 56 22 16 42 26 18 42 22 16 42 25 17 41 20 16 43 21 17 40 21 15 41 24 15 42 22 16 42 22 13 40 25 16 43 21 15 41 21 15 43 21 15 41 22 16 42 24 16 40 24 15 42 25 16 43 29 19 46 60 34 59 21 15 43 22 16 42 22 16 42 25 16 43 21 15 41 22 16 42 19 13 41 20 14 40 21 15 41 25 16 43 22 16 42 20 14 42 20 14 40 21 15 41 22 16 42 22 17 40 24 15 42 22 16 42 21 15 41 51 28 54 41 25 51 23 17 43 25 16 43 23 17 43 23 17 43 21 15 43 21 15 41 21 15 41 25 16 43 20 14 40 25 16 43 21 15 41 21 15 41 20 14 40 22 15 48 24 17 51 23 15 52 26 15 57 39 24 67 56 33 79 22 15 69 25 17 76 23 17 77 24 17 84 22 15 83 27 19 102 26 21 101 27 22 106 24 20 105 29 21 106 25 21 105 21 17 101 15 14 82 15 14 80 13 13 75 14 13 71 14 14 68 12 12 62 12 13 59 13 12 54 12 12 50 11 11 45 10 11 42 11 11 39 10 11 39 10 11 39 10 10 38 11 11 39 9 10 38 9 10 38 
21 15 41 19 15 42 18 12 40 18 14 41 20 16 41 21 15 41 21 15 41 21 17 42 29 19 44 53 31 54 19 15 42 22 16 42 21 15 41 21 15 43 18 14 41 22 13 40 17 13 40 19 15 40 20 14 42 19 15 40 20 14 40 18 15 42 18 14 41 17 13 40 18 14 39 21 15 41 19 15 42 21 15 41 28 18 43 58 33 55 19 15 42 20 16 41 20 16 41 23 14 41 18 14 41 19 15 40 18 14 41 19 13 39 18 14 39 21 15 41 19 15 40 20 14 40 18 14 41 19 13 39 16 12 39 21 15 41 21 15 41 21 15 41 19 15 40 51 29 52 39 25 50 21 15 41 20 16 41 21 15 41 19 15 42 18 14 41 18 14 41 19 15 42 21 15 41 17 13 38 23 14 41 19 15 40 18 14 41 18 14 39 22 15 48 21 15 49 22 15 56 21 16 57 36 23 66 53 31 77 19 16 69 23 18 76 21 17 78 23 18 84 18 15 82 28 20 103 26 21 105 27 22 104 24 18 104 28 20 103 23 21 104 22 18 102 15 14 82 15 14 82 14 14 76 14 13 71 13 13 67 12 12 62 12 13 59 13 12 54 11 11 49 11 11 45 11 12 43 10 10 38 10 11 39 10 11 39 11 11 39 10 10 38 11 11 39 10 10 38 
64 35 57 62 34 57 59 34 56 59 34 56 62 34 57 62 34 57 62 34 57 62 34 57 60 35 57 70 38 61 62 34 57 62 34 57 61 33 56 63 33 57 61 31 55 59 33 58 60 32 57 60 35 57 62 32 56 61 33 55 61 33 56 60 32 55 61 33 56 61 33 56 64 34 58 62 34 56 61 33 58 62 34 56 59 33 58 73 41 64 59 34 56 61 33 56 62 34 57 61 33 56 62 34 57 61 33 56 60 32 55 61 33 56 60 32 55 59 34 56 57 33 55 61 33 56 60 32 55 59 34 56 59 31 54 63 35 57 62 34 57 62 35 54 61 33 56 69 37 60 66 38 61 62 34 57 62 34 56 61 33 56 59 34 56 61 33 56 61 33 56 60 32 57 62 34 59 61 33 56 63 35 58 60 32 55 60 32 54 58 33 55 64 34 62 65 34 65 62 35 68 61 34 77 63 36 79 71 43 83 61 35 83 62 35 86 63 35 86 63 35 86 62 33 91 34 23 102 26 21 105 27 22 104 24 20 104 25 22 103 24 20 104 21 17 102 15 14 82 15 14 80 13 13 75 14 13 71 13 13 67 12 13 61 11 12 58 12 11 53 11 11 49 11 11 45 11 12 43 10 10 38 10 11 39 9 10 38 10 11 39 9 10 38 11 11 39 10 10 38 
21 15 41 21 15 41 19 15 40 19 15 42 21 15 41 24 15 42 22 16 42 23 17 43 32 20 44 55 31 55 20 14 40 27 17 42 24 15 44 24 15 42 18 14 39 20 14 42 19 13 39 21 15 41 21 15 41 19 15 40 22 16 42 18 14 39 20 14 42 19 15 42 21 15 41 22 16 42 21 15 41 21 15 41 26 18 42 58 32 57 19 15 42 25 16 43 21 15 41 22 16 42 19 15 42 19 15 40 18 14 41 20 14 40 22 13 40 21 15 41 20 16 41 20 14 42 19 13 41 20 14 42 19 15 42 21 15 41 23 14 41 22 16 42 21 15 43 48 28 53 38 22 48 21 15 41 25 16 43 22 16 42 25 15 42 20 14 40 19 13 41 21 15 43 24 15 42 19 15 40 25 16 43 21 15 41 19 13 39 18 14 39 21 14 45 22 16 50 23 15 52 23 16 57 39 22 64 52 30 76 20 15 71 22 17 75 25 16 79 25 18 85 21 16 82 28 20 103 27 22 106 27 22 102 24 18 104 25 21 105 25 20 104 22 18 103 14 13 83 14 13 81 15 13 76 14 13 71 11 12 66 11 11 61 11 12 58 12 11 55 11 11 49 10 10 46 10 11 42 10 10 38 9 10 38 9 10 38 12 12 40 10 10 38 11 11 39 10 11 39 
24 15 42 21 15 41 20 14 40 21 15 41 21 15 41 24 15 42 24 15 42 22 16 42 32 20 44 55 31 53 22 16 44 25 16 43 22 16 42 24 15 42 19 15 42 21 15 41 18 14 39 21 15 41 22 16 42 21 15 41 24 16 40 20 14 40 19 15 40 20 16 41 22 16 42 24 16 40 22 16 42 22 16 42 31 18 44 59 34 56 22 13 40 25 16 43 21 15 41 24 15 42 21 15 43 20 14 40 19 15 40 20 14 40 21 15 43 23 14 41 22 16 42 21 15 41 19 13 41 21 15 41 20 14 42 23 14 41 24 15 42 25 16 43 21 15 41 51 29 52 40 24 50 22 16 42 24 15 42 24 15 42 22 16 42 19 15 42 19 13 41 21 16 39 25 16 43 19 15 42 24 15 44 21 15 41 21 15 41 20 14 42 22 15 49 22 16 50 24 16 53 24 16 57 38 23 66 56 32 80 22 15 69 24 14 74 25 17 77 24 17 85 21 16 83 27 19 102 26 21 103 28 20 103 25 19 105 26 21 103 25 20 104 21 17 101 15 14 82 14 13 81 14 14 76 13 12 70 12 12 66 11 11 61 10 11 57 10 12 51 11 11 49 11 11 47 10 11 42 10 10 38 11 11 39 10 10 38 10 10 38 10 10 38 11 11 39 10 10 38 
24 15 42 21 15 41 19 15 40 19 15 40 21 15 41 23 14 41 22 16 42 21 15 41 32 19 45 56 32 58 21 15 43 25 16 43 21 15 41 24 15 42 20 16 43 21 15 41 19 15 40 21 15 43 22 16 42 21 15 41 22 16 42 19 15 40 19 15 40 19 15 42 20 16 41 22 16 42 22 16 42 22 16 42 29 19 44 59 35 57 22 13 40 24 15 42 21 15 41 22 16 42 20 14 40 19 15 42 19 15 40 20 14 40 19 13 39 22 16 44 21 15 41 20 16 41 18 14 39 20 16 41 19 15 40 23 14 41 22 16 42 22 16 42 21 15 41 51 28 54 41 25 51 22 16 42 23 14 41 22 16 42 24 15 42 18 14 41 20 14 42 21 15 41 24 15 42 18 14 39 24 15 42 21 15 41 19 15 40 19 15 42 21 14 47 22 16 50 24 16 53 24 16 57 38 23 66 55 32 78 22 15 69 23 15 74 23 17 77 24 17 84 21 16 83 27 20 100 29 20 103 28 20 103 25 20 104 26 21 103 24 19 103 22 18 102 16 15 83 15 14 82 13 13 75 14 13 71 12 12 66 12 12 62 11 12 58 10 12 53 11 11 49 11 11 47 11 12 43 11 11 39 10 10 38 11 11 37 11 11 39 10 10 38 11 11 39 11 11 39 
24 15 42 22 16 42 20 14 40 20 16 41 22 16 42 24 15 42 22 16 42 22 16 42 34 20 45 55 31 55 21 16 39 25 16 43 22 17 40 24 15 42 20 14 40 23 14 41 18 14 39 24 15 42 24 15 42 24 15 42 25 16 43 21 15 41 20 15 38 21 15 41 21 15 41 24 15 42 21 17 42 22 16 42 31 18 44 60 35 57 23 14 41 22 16 42 22 16 42 25 16 43 19 13 39 24 15 42 20 14 40 23 17 43 20 14 40 24 15 42 22 16 42 21 15 41 20 14 42 22 16 42 20 14 42 24 15 42 25 15 42 25 16 43 21 15 41 51 29 52 40 26 51 23 17 43 24 15 44 25 17 41 24 15 42 19 15 40 21 15 43 21 15 41 25 16 43 19 15 42 25 16 43 21 15 41 21 16 39 21 15 43 22 15 48 24 17 51 24 16 53 24 16 57 39 24 67 58 32 80 22 15 67 24 16 75 23 17 77 27 18 85 22 15 83 27 20 100 28 20 103 28 20 103 25 20 102 25 20 102 25 20 104 21 17 101 15 14 82 14 13 81 13 13 75 13 12 70 12 12 66 12 12 62 11 12 58 10 12 53 12 12 50 11 11 47 10 11 42 11 11 39 10 10 38 11 11 37 11 11 39 11 11 39 10 10 38 10 10 38 
21 15 41 20 16 41 18 14 39 18 14 39 20 16 41 21 15 41 21 15 41 21 16 39 32 19 45 53 31 54 19 15 40 21 17 42 21 15 41 21 15 41 18 14 41 18 14 39 17 13 40 20 14 40 20 14 40 20 14 42 20 14 40 18 14 39 18 14 41 18 14 39 20 14 42 21 15 41 20 14 40 21 15 41 28 18 43 61 32 60 20 14 40 21 15 41 20 14 40 21 15 43 19 13 39 19 13 39 18 14 41 19 13 41 19 13 39 20 14 40 20 14 40 20 14 40 18 14 41 18 14 39 19 13 41 23 14 41 21 15 41 21 15 41 20 14 40 47 27 52 40 24 50 23 14 41 21 15 43 21 15 41 21 15 41 17 14 41 19 15 42 19 13 39 21 15 41 18 14 41 21 15 41 20 14 40 18 14 39 19 13 41 21 14 47 23 16 50 22 16 52 21 14 56 39 22 66 54 31 77 22 15 69 22 17 75 21 17 78 23 16 84 20 15 82 25 20 102 25 20 104 28 20 103 24 19 103 26 21 103 25 20 104 21 17 101 15 14 82 14 13 81 14 14 76 14 13 71 13 13 67 11 11 61 11 12 58 10 12 53 12 12 50 11 11 47 9 9 43 11 11 39 10 10 36 11 11 37 10 10 38 11 11 39 10 10 38 10 10 38 
19 15 40 20 16 41 17 13 40 18 14 41 19 15 42 21 15 41 19 15 40 19 15 40 31 18 46 52 30 53 18 14 41 20 16 41 18 14 41 21 17 42 17 13 40 18 14 39 18 12 40 19 13 41 20 16 43 18 14 41 20 16 41 18 14 41 17 13 40 18 14 41 18 14 39 19 15 40 19 13 41 20 14 40 28 18 43 58 33 55 19 13 41 21 15 41 20 14 42 21 15 41 17 13 40 19 13 41 18 14 41 18 14 41 18 14 41 20 14 40 18 14 41 18 14 41 16 13 40 17 14 41 16 13 40 20 14 40 20 16 41 22 13 42 18 13 43 46 26 51 37 23 48 18 14 41 21 15 41 21 17 42 20 14 40 17 14 41 17 13 40 18 14 39 21 15 41 17 13 40 22 16 42 18 14 41 17 13 40 16 13 40 19 14 44 21 15 49 21 15 51 21 14 56 36 23 66 53 30 74 21 17 68 21 16 74 22 16 78 23 18 85 18 15 82 25 20 102 25 20 102 27 22 102 25 21 105 26 21 103 25 20 104 22 18 102 14 13 81 14 13 81 13 13 75 14 13 71 13 13 67 12 12 62 11 12 58 10 12 53 11 11 49 11 11 47 9 9 43 11 11 39 10 10 36 11 11 37 10 10 38 11 11 39 10 10 38 11 11 39 
20 15 38 18 14 39 17 13 40 17 13 40 20 16 41 20 14 40 19 13 39 20 14 40 29 19 43 53 31 54 18 14 41 21 15 41 19 13 41 21 15 41 17 13 40 17 13 38 17 13 38 18 14 41 19 15 42 18 14 41 18 14 39 17 13 38 16 12 39 18 14 41 18 14 39 20 14 40 20 14 40 20 14 40 28 18 43 58 33 55 18 14 39 20 14 40 18 12 38 21 15 41 18 14 41 17 13 40 13 13 39 18 14 39 17 13 40 19 13 39 18 14 41 18 14 41 16 13 40 17 14 41 16 13 40 20 14 40 19 15 40 20 16 41 18 14 39 45 27 51 37 23 48 18 14 39 21 15 41 20 14 42 19 13 39 16 13 40 18 14 41 18 14 39 20 14 40 18 12 40 21 15 41 19 15 42 17 13 40 16 12 39 19 14 46 21 15 49 20 14 50 21 14 55 36 23 66 52 30 76 20 16 67 21 16 74 24 15 78 23 16 83 17 14 81 27 19 102 25 20 102 26 21 103 24 19 103 26 21 103 24 19 103 22 18 102 14 13 81 14 13 81 14 14 76 13 12 70 12 12 66 12 12 62 11 12 58 10 12 53 11 11 49 10 10 46 10 11 42 11 11 39 10 10 38 10 10 38 11 11 39 11 11 39 10 10 38 10 10 38 
20 14 40 20 16 43 18 14 41 17 13 40 19 15 42 21 15 41 20 14 40 19 15 42 29 19 44 51 28 54 18 14 41 21 15 41 20 16 43 20 16 41 17 13 40 18 14 41 17 13 40 19 15 42 19 15 42 19 15 42 19 15 40 19 15 42 18 14 41 18 14 41 18 14 41 20 14 40 21 15 43 21 15 41 27 18 45 56 34 57 19 15 40 20 14 42 19 15 40 21 15 43 18 14 41 18 14 41 18 14 41 18 14 41 17 13 38 19 16 43 20 16 43 18 14 41 18 13 43 17 13 38 19 13 41 21 15 41 21 15 41 22 16 42 18 15 42 48 28 53 38 22 48 20 14 42 21 15 41 20 14 40 19 15 40 18 14 41 18 14 41 18 14 39 21 15 41 17 14 41 21 15 41 18 14 39 18 14 39 17 13 40 20 15 47 22 16 50 21 15 51 21 14 56 36 23 66 52 31 74 19 16 69 22 17 75 22 16 76 23 16 83 18 15 82 27 20 100 24 21 102 28 20 103 25 20 104 26 21 103 25 20 104 22 18 102 14 13 81 14 13 81 13 13 75 14 13 71 13 13 67 12 12 62 10 11 57 11 13 54 12 12 50 11 11 47 10 11 42 10 10 38 10 10 38 11 11 37 10 10 38 11 11 39 10 10 38 10 10 38 
24 15 42 21 15 41 18 14 39 18 16 40 22 16 42 23 14 41 21 15 41 22 16 42 32 19 45 54 30 54 21 15 41 24 15 44 23 14 41 22 16 42 19 13 39 20 14 42 17 13 40 21 15 41 22 16 42 21 12 41 21 15 41 18 14 39 19 15 42 17 13 38 20 14 40 23 14 41 22 17 40 21 15 41 29 19 44 59 34 56 20 14 40 24 15 42 21 15 41 24 15 42 20 14 40 20 14 40 19 15 40 20 14 40 20 14 40 21 15 41 20 14 40 20 14 42 19 13 41 19 15 40 21 12 39 23 14 41 21 15 41 24 16 40 20 14 40 50 27 53 41 25 51 21 15 41 24 15 42 20 14 40 23 14 41 18 14 39 19 15 40 21 15 41 24 15 44 19 15 40 24 15 42 19 13 39 19 15 40 19 15 40 23 16 49 23 16 50 23 16 50 23 16 57 39 22 66 54 31 77 21 17 68 24 16 75 23 17 77 26 16 85 21 16 83 27 20 100 26 21 103 28 20 103 24 20 104 26 21 103 25 20 104 21 17 101 14 13 81 14 13 81 13 13 75 14 13 71 13 13 67 11 11 61 11 12 58 10 12 53 11 11 49 11 11 45 11 12 43 11 11 39 11 11 39 10 10 38 10 10 38 10 10 38 12 12 40 10 10 38 
22 16 42 20 16 41 18 14 41 18 14 41 20 14 40 21 15 41 21 15 41 21 15 41 31 18 44 54 30 54 20 14 40 24 15 42 21 15 41 22 16 42 18 14 39 18 14 39 18 14 41 19 15 40 21 15 41 19 15 40 21 15 43 19 15 42 18 14 39 18 14 41 20 14 40 24 15 42 20 14 40 21 15 41 28 18 43 59 34 56 19 13 39 21 15 41 20 14 40 22 16 42 18 14 39 19 15 40 19 15 42 18 14 39 18 14 39 21 15 41 21 12 39 19 13 39 18 14 41 18 14 41 19 13 39 20 14 40 20 14 40 24 15 42 20 14 40 46 26 51 39 23 49 22 16 44 23 14 41 20 14 40 20 14 40 18 14 41 19 13 39 19 15 40 22 16 42 18 14 39 21 15 41 18 16 40 18 14 39 17 13 40 20 15 45 22 15 49 22 16 52 22 15 56 36 24 64 54 32 78 20 16 67 24 16 75 23 17 77 24 17 85 21 16 83 28 21 101 26 21 103 26 21 103 23 19 103 26 21 103 25 20 104 21 17 101 14 13 81 15 14 82 14 12 75 14 13 71 13 13 67 12 12 64 11 12 58 12 11 53 10 10 48 12 12 48 10 9 41 12 12 40 11 11 37 10 10 38 11 11 39 11 11 39 11 11 39 10 10 38 
21 15 41 21 15 41 19 13 39 21 15 41 21 15 41 22 16 42 21 15 41 21 15 41 30 20 45 55 31 55 20 16 41 24 15 42 22 16 42 24 15 42 19 13 39 20 14 40 19 15 40 21 15 43 20 14 40 20 14 40 22 16 42 19 15 42 18 14 39 20 14 40 20 14 40 22 16 42 23 14 41 21 15 41 31 18 44 59 34 56 20 14 40 22 16 42 21 15 41 21 15 41 19 13 39 19 15 40 18 14 39 20 16 41 19 15 40 20 14 40 21 15 41 20 14 40 20 14 40 20 14 40 18 14 39 21 15 41 22 16 42 22 16 42 18 12 38 47 27 52 40 24 50 21 15 41 24 15 42 23 14 41 24 15 42 19 15 42 19 15 42 21 15 41 24 15 42 18 14 41 24 15 42 20 14 40 19 15 42 19 15 42 23 13 47 23 16 50 23 17 51 23 16 57 38 23 62 52 30 76 20 15 71 25 17 74 23 17 77 26 16 85 22 17 84 27 20 100 25 20 102 28 20 105 25 20 104 26 21 103 23 19 103 22 18 102 14 13 81 14 13 81 14 12 75 14 13 71 13 13 67 12 12 62 12 13 59 13 12 54 11 11 49 10 10 46 11 10 42 10 10 38 11 11 37 11 11 39 10 10 38 12 12 40 10 10 38 10 10 38 
22 13 40 21 15 41 18 14 41 19 15 40 20 14 40 22 16 42 21 15 41 20 14 40 29 19 44 54 30 54 19 15 40 24 15 42 21 15 41 24 15 42 18 14 39 19 13 39 17 13 38 20 14 40 21 15 41 20 14 40 19 15 40 19 15 40 18 14 39 19 15 40 20 14 42 21 15 41 21 15 41 20 14 40 28 20 44 58 33 55 19 15 40 22 16 42 21 15 41 21 15 41 18 14 39 19 15 40 18 14 41 19 15 40 18 14 39 20 14 40 19 13 39 20 14 40 18 14 41 19 13 39 16 12 39 22 13 40 20 14 40 23 14 41 20 14 40 47 28 50 40 24 50 21 15 41 21 15 41 20 14 40 21 15 41 18 14 39 18 14 39 18 14 39 22 16 42 18 14 39 21 15 41 19 13 39 19 13 39 18 14 41 20 13 44 22 16 50 22 16 52 21 14 55 38 21 63 54 31 77 20 16 67 24 16 75 22 16 78 23 16 83 18 15 82 27 19 104 26 21 103 26 21 103 23 19 103 27 22 104 25 20 104 21 17 101 14 13 81 15 14 82 15 13 76 14 13 71 12 12 66 12 12 62 11 12 58 12 11 53 11 11 49 11 11 47 11 10 42 10 10 38 11 11 37 10 10 38 10 10 38 11 11 39 12 12 40 10 10 38 
20 14 40 18 14 41 18 14 41 17 13 40 18 14 41 21 15 41 20 14 40 20 14 40 29 19 44 54 30 54 18 14 39 21 15 41 19 13 39 21 15 41 16 13 40 17 13 40 16 12 39 18 14 39 18 14 39 18 14 41 20 14 40 17 14 41 16 14 38 17 13 40 18 13 43 22 13 40 19 15 40 18 14 39 27 17 42 57 33 55 18 14 39 20 14 40 18 14 41 20 14 40 17 13 40 16 12 37 15 12 39 17 13 38 17 13 40 20 14 40 18 14 39 17 13 38 16 13 40 17 13 38 18 14 41 18 14 39 19 13 39 20 14 40 17 15 39 46 26 51 39 23 49 18 14 39 21 15 41 19 15 40 21 15 41 16 14 38 16 12 39 18 14 39 21 15 41 17 13 40 21 15 41 17 14 41 16 13 40 16 13 40 19 14 44 20 14 48 21 15 51 20 15 55 35 23 63 53 30 76 20 15 69 21 18 73 22 16 76 24 17 85 18 15 82 25 20 100 25 20 102 26 21 103 23 18 102 25 20 104 24 19 103 22 18 102 15 14 82 14 13 81 13 13 75 14 13 71 13 12 69 14 12 62 11 12 58 12 11 53 11 11 49 11 11 47 12 11 43 11 11 39 10 10 36 10 10 38 10 10 38 10 10 38 10 10 38 10 10 38 
20 14 40 20 14 40 17 13 38 17 13 38 19 15 40 20 14 40 21 15 41 21 15 41 28 18 43 53 29 53 18 14 39 21 15 41 20 14 40 22 16 42 16 13 40 18 14 41 17 13 40 18 14 41 20 14 40 19 15 40 20 14 40 17 13 40 17 13 40 18 15 42 20 13 44 20 14 40 20 14 40 20 14 40 28 18 43 57 33 55 19 13 39 21 15 41 19 13 39 21 15 41 18 14 41 19 15 40 17 13 40 18 14 39 18 14 39 20 14 40 19 13 41 20 14 42 17 13 40 18 14 39 17 13 40 21 15 41 19 13 39 20 14 40 18 14 39 46 26 51 40 24 50 19 15 40 19 13 39 21 15 41 20 14 40 18 14 41 18 14 39 18 14 39 22 16 42 17 13 40 20 14 40 18 14 39 19 15 42 18 14 41 21 14 47 21 16 48 22 16 52 21 14 55 36 24 64 51 30 73 19 16 69 22 17 75 21 15 77 24 18 82 18 15 82 25 20 102 26 21 103 27 22 104 24 19 103 27 22 102 25 20 104 22 18 102 14 13 81 15 14 82 15 13 76 14 13 71 12 12 66 12 12 62 12 13 59 12 11 53 11 11 49 11 11 47 12 11 43 10 10 38 10 10 36 10 10 38 10 10 38 10 10 38 11 11 39 11 11 39 
20 14 42 19 15 40 18 14 41 17 13 40 19 13 39 21 15 41 20 14 40 20 14 40 29 19 44 52 30 53 18 14 39 21 15 41 19 15 40 21 15 41 16 13 40 19 15 42 17 13 40 18 14 41 20 15 38 18 14 39 20 14 40 18 14 41 16 14 38 18 14 39 18 14 41 21 15 41 20 14 40 20 14 40 27 17 42 58 33 55 17 15 39 21 15 41 19 15 42 20 14 42 16 12 39 17 13 40 16 13 40 17 13 40 17 13 40 19 13 41 19 15 40 16 13 40 17 12 42 18 14 41 18 12 40 18 14 39 18 16 40 20 14 40 18 14 39 44 24 49 39 23 49 20 14 42 20 14 40 20 16 41 21 15 41 16 13 40 17 13 40 18 14 39 21 15 41 16 13 40 21 15 41 19 15 42 17 13 40 17 13 40 18 15 44 21 15 49 21 15 51 21 15 53 35 22 65 54 31 75 20 15 69 21 16 74 22 16 76 23 16 84 18 15 82 26 19 99 25 20 102 26 21 103 25 20 104 26 21 105 25 20 102 22 18 102 15 14 82 13 14 79 14 12 75 13 12 70 12 12 66 11 11 61 11 12 58 12 11 53 11 11 49 11 11 47 11 10 42 10 10 38 11 11 37 10 10 38 11 11 39 10 10 38 11 11 39 9 9 37 
24 16 40 22 16 42 21 15 41 21 15 41 22 16 42 25 17 41 24 16 40 24 14 39 33 20 46 55 31 55 21 15 41 25 16 43 22 16 42 24 15 42 19 15 40 20 14 40 19 13 41 22 16 42 24 15 42 21 15 41 24 15 42 21 15 41 20 15 38 20 14 40 21 15 41 24 15 42 24 15 42 24 15 42 31 18 44 59 34 56 21 15 41 24 15 42 23 14 41 25 16 43 21 15 41 21 15 41 20 16 41 21 15 41 21 15 41 25 16 43 21 15 41 21 15 41 19 13 39 21 15 41 20 14 40 24 15 42 23 14 41 25 16 43 23 14 41 47 27 52 41 25 51 22 16 42 24 15 42 25 16 43 23 14 41 20 16 43 21 15 41 22 16 42 25 16 43 21 15 41 24 15 42 22 16 42 21 15 41 19 15 42 22 15 48 24 17 50 24 16 53 24 16 57 38 23 66 55 32 78 21 14 66 24 16 73 25 16 79 26 17 84 21 16 83 27 19 102 26 21 103 28 20 103 27 19 104 26 21 103 26 21 101 22 18 102 15 14 82 15 14 80 14 14 76 14 13 70 13 13 67 14 12 62 10 11 57 13 12 54 11 11 49 10 10 46 11 10 42 11 11 39 11 11 37 10 10 38 10 10 38 11 11 39 11 11 39 10 10 38 
24 15 42 20 14 40 22 13 40 19 13 39 23 14 41 23 14 41 21 15 41 21 15 41 32 19 45 54 32 55 22 16 42 23 14 41 21 15 41 25 16 43 18 14 39 20 14 40 19 13 39 22 16 42 21 15 41 20 14 40 24 15 42 20 14 40 18 12 38 21 15 41 21 15 41 23 14 41 23 14 41 21 15 41 29 19 44 58 33 55 21 15 41 23 14 41 21 15 41 23 14 41 20 14 40 21 15 41 18 14 39 19 13 39 19 13 39 23 14 41 19 13 39 20 14 40 19 15 40 20 14 40 19 13 39 21 15 41 23 14 41 22 16 42 20 14 40 46 27 49 40 24 50 21 15 41 24 15 42 21 15 41 20 14 40 18 14 39 19 15 40 21 15 41 24 15 42 19 15 42 24 15 42 21 15 41 19 13 41 18 14 41 21 14 45 22 15 49 24 16 53 23 16 57 38 23 64 54 31 75 22 15 69 22 17 75 24 16 76 24 17 84 21 16 82 27 20 100 26 21 103 27 22 102 25 20 102 26 21 103 26 21 103 22 19 100 15 14 84 14 13 79 14 13 73 13 12 69 12 12 66 11 12 60 11 12 58 12 11 53 11 11 49 11 11 47 12 11 43 11 11 39 10 10 36 10 10 38 10 10 38 11 11 39 10 10 38 10 10 38 
25 16 43 25 15 42 21 15 41 20 14 40 24 15 42 25 16 43 22 16 42 25 16 43 34 20 46 56 32 54 23 14 41 24 16 40 21 15 41 27 17 42 22 16 42 21 16 39 21 15 41 22 16 42 25 16 43 23 14 41 24 15 42 21 15 41 21 15 41 21 15 41 24 15 44 24 16 40 23 14 41 24 15 44 30 17 43 58 33 55 22 16 42 25 15 40 24 15 42 25 16 43 20 14 40 21 15 41 20 14 40 21 15 41 24 15 42 25 16 43 21 15 41 21 15 41 20 14 40 23 14 41 20 14 40 23 14 41 22 16 42 24 15 42 21 15 41 46 27 49 43 25 51 22 16 42 24 15 42 22 16 42 23 17 43 20 14 40 21 15 43 20 14 40 26 16 41 19 13 41 26 16 41 21 15 41 21 15 43 20 14 40 23 16 49 23 16 49 23 15 52 23 16 57 38 23 64 54 31 77 23 16 70 25 15 75 24 16 76 26 17 84 20 15 82 25 20 100 28 21 101 27 22 104 24 19 103 25 20 102 25 20 102 23 19 103 16 15 83 15 14 80 14 14 76 14 13 71 13 13 67 14 12 62 13 11 58 10 12 53 12 12 50 9 9 43 10 11 42 9 10 38 11 11 37 11 11 37 11 11 37 10 10 36 10 10 36 10 10 36 
22 13 40 20 14 40 17 13 38 18 14 39 20 14 40 21 15 41 20 14 40 20 14 40 29 19 44 53 31 54 20 14 40 20 14 40 22 13 40 21 15 43 19 13 39 20 14 40 17 13 38 20 14 40 21 15 41 20 14 40 20 14 40 17 13 38 19 15 40 18 12 38 19 15 40 21 15 41 21 15 41 20 14 40 28 18 45 60 32 55 20 14 40 23 14 41 20 14 40 21 15 41 18 14 41 21 16 39 16 12 37 19 13 39 20 14 42 21 15 41 18 14 39 20 14 40 18 14 39 20 14 40 19 13 39 20 14 40 20 14 40 21 15 41 20 14 40 46 26 51 38 23 46 20 16 41 21 15 41 21 16 39 20 14 42 18 14 41 19 13 39 18 14 41 21 16 39 18 14 41 23 14 41 18 14 39 18 12 38 18 14 39 21 14 47 24 14 48 21 15 51 23 14 57 36 24 64 53 30 74 22 15 69 22 17 73 20 16 77 23 16 83 19 17 82 26 19 99 27 22 104 29 21 104 24 19 103 24 19 101 26 21 103 21 17 101 15 14 82 14 13 79 15 13 76 13 12 72 12 12 66 14 12 62 11 12 58 12 11 53 11 11 49 12 11 45 10 11 42 11 11 39 10 10 36 11 11 37 10 10 36 11 11 37 10 10 36 11 11 37 
