P3
100 50
255
23 6 12 23 6 12 22 5 11 22 5 11 22 5 11 22 6 9 22 5 11 22 5 11 22 5 11 22 14 11 22 12 11 22 5 11 23 6 12 23 7 10 22 6 9 23 6 12 23 6 12 23 6 12 22 5 11 23 7 10 23 7 10 23 6 12 22 5 11 23 6 12 23 6 12 25 8 14 23 8 13 23 6 12 23 8 13 23 13 14 24 21 16 23 8 15 22 7 14 24 7 17 23 7 18 23 7 20 23 7 20 25 8 26 23 7 43 23 8 47 23 7 46 24 7 43 23 7 43 25 9 46 27 14 44 26 13 41 25 31 31 23 32 29 25 38 31 23 38 31 26 32 28 24 13 19 24 11 18 23 12 18 22 11 17 24 11 18 23 12 18 23 12 16 23 12 16 23 12 18 24 13 17 24 13 17 23 35 25 25 38 29 23 14 15 21 10 14 23 11 15 22 10 12 22 7 14 24 7 17 22 7 14 20 7 14 23 6 14 22 7 14 23 6 14 23 3 12 23 3 12 21 4 12 23 3 12 21 4 12 23 3 12 22 2 11 23 3 12 23 3 12 23 3 12 23 3 12 24 4 13 23 3 12 23 3 12 23 3 12 23 3 12 23 4 10 23 4 10 24 5 11 23 4 10 24 4 13 24 5 11 24 5 9 25 6 10 26 7 11 
22 5 11 22 5 11 22 5 11 22 5 11 22 5 11 24 8 11 22 5 11 22 5 11 25 6 10 24 14 12 23 11 11 22 6 9 23 6 12 22 5 11 22 5 11 22 5 11 21 4 10 22 5 11 23 6 12 23 6 12 23 6 12 21 4 10 23 6 12 22 5 11 22 5 11 23 6 12 24 7 15 25 8 14 24 7 15 23 13 14 24 21 16 23 6 16 21 5 16 23 7 17 24 8 21 23 7 18 23 6 22 22 7 40 23 7 46 23 8 41 23 8 29 24 7 23 24 10 25 23 8 27 25 11 37 26 10 46 27 14 44 27 12 41 24 35 29 26 39 32 25 36 28 24 18 20 24 13 17 24 13 19 23 14 19 24 13 19 23 12 18 24 13 17 24 13 19 24 13 19 24 13 17 25 14 18 24 36 26 25 38 28 22 11 15 23 10 17 26 11 16 22 10 14 23 8 15 23 8 15 24 7 15 23 6 12 22 5 13 23 6 14 23 6 14 23 3 12 23 3 12 25 4 13 23 3 12 23 3 12 23 3 12 23 3 12 23 3 12 23 3 12 23 3 12 23 3 12 23 3 12 23 3 12 23 4 10 23 3 12 23 3 12 22 2 11 24 4 13 23 3 12 24 5 11 23 4 10 24 5 11 25 6 10 25 6 10 25 6 10 
21 4 10 23 6 12 23 6 12 21 4 10 21 6 11 25 6 10 23 6 12 23 6 12 23 6 12 22 14 11 22 14 12 22 6 9 23 6 12 23 7 10 22 6 9 23 6 12 23 6 12 23 6 12 23 6 12 23 6 12 23 6 12 23 6 12 22 5 11 23 6 12 23 6 12 22 7 14 23 8 13 22 7 14 23 8 13 23 13 14 22 21 16 22 6 16 23 7 17 24 8 19 23 7 20 24 6 18 23 7 34 22 7 46 23 7 43 24 10 27 25 9 22 23 11 23 23 11 23 23 11 25 24 10 25 23 10 27 26 12 38 28 13 46 25 31 31 25 38 29 25 38 31 24 22 23 24 13 19 24 13 17 23 12 16 24 12 16 23 12 16 22 11 15 24 13 19 24 11 18 23 12 18 24 15 18 24 36 26 25 38 28 24 12 16 22 10 14 22 10 14 23 10 17 23 8 15 22 7 14 24 7 15 23 6 14 23 6 14 23 6 14 21 4 12 23 3 12 23 3 12 23 2 11 23 3 12 23 4 10 24 4 13 24 4 13 23 3 12 23 3 12 22 2 11 23 3 12 22 2 11 23 3 12 23 3 12 23 4 10 23 4 8 22 3 7 23 4 10 23 4 10 24 4 13 23 3 12 24 5 9 25 6 10 24 5 11 24 5 9 
22 5 11 22 5 11 22 5 11 23 6 12 24 5 11 22 7 10 22 5 11 23 6 12 23 7 10 24 14 12 23 11 11 22 6 9 23 6 12 23 7 10 23 6 12 21 4 10 23 6 12 22 5 11 23 6 12 22 6 9 23 7 10 23 6 12 23 6 12 22 5 11 23 6 14 23 6 12 25 8 14 23 6 14 24 7 15 23 12 16 25 21 18 24 7 17 24 8 19 22 6 19 24 8 21 23 6 24 22 6 42 22 7 46 21 5 31 23 6 24 24 7 23 25 9 22 23 9 22 23 9 22 23 9 22 26 9 25 24 10 25 25 10 31 25 21 38 25 38 29 25 38 31 23 23 23 25 15 23 23 12 18 24 13 19 24 11 18 24 13 17 23 11 15 25 12 19 25 13 17 24 13 17 25 16 19 24 36 26 24 37 27 23 11 15 23 11 15 21 10 14 22 10 14 20 7 14 23 8 15 22 5 13 25 5 14 23 6 14 23 6 14 22 5 13 23 3 12 23 3 12 22 2 11 23 4 10 23 4 8 23 3 12 22 2 11 23 3 12 23 3 12 23 3 12 23 3 12 24 4 13 24 4 13 23 4 10 22 3 9 23 4 10 22 2 11 23 4 10 23 4 10 23 3 12 23 4 10 23 4 10 24 5 9 24 5 11 25 6 12 
21 4 12 23 7 10 22 5 11 22 5 13 24 5 11 23 6 12 22 5 11 23 6 12 22 6 9 23 13 12 22 12 11 22 5 11 25 6 12 23 6 12 23 4 10 23 4 10 25 6 12 24 5 11 22 5 11 23 6 12 22 5 11 22 6 9 22 5 11 22 5 11 23 6 16 23 6 12 23 6 12 22 6 16 22 6 16 23 12 16 25 22 17 23 6 16 22 6 19 24 6 18 23 7 20 22 7 30 22 8 44 24 7 43 23 6 24 23 6 24 23 6 24 25 9 22 25 9 22 25 8 24 24 10 23 25 11 24 24 10 23 24 12 24 27 12 33 25 31 31 23 38 31 25 27 24 24 15 20 24 14 22 25 12 21 25 13 17 24 15 18 22 11 15 24 13 19 25 14 18 22 11 15 24 18 18 24 37 27 25 36 28 22 10 12 22 10 12 22 10 14 22 10 14 23 8 13 24 7 13 22 7 12 24 7 15 23 6 14 23 6 12 22 5 11 23 3 12 23 3 12 23 3 12 23 3 12 23 3 12 23 3 12 23 4 10 23 4 10 23 3 12 23 3 12 23 4 10 23 4 10 23 3 12 23 3 12 23 4 10 23 4 10 24 5 11 24 4 13 23 3 12 23 4 10 23 4 10 24 4 13 24 3 10 22 5 13 25 6 12 
22 5 13 23 7 10 22 6 9 22 5 11 24 5 11 21 4 10 22 5 11 22 6 9 22 5 11 24 14 12 22 12 10 22 5 11 22 5 11 22 6 9 22 6 9 21 4 10 22 5 11 24 5 11 23 6 12 23 6 12 22 5 11 20 5 10 22 5 11 22 5 11 23 6 14 23 6 14 24 7 15 22 7 14 22 7 14 24 12 16 24 21 16 23 6 16 25 7 19 22 6 19 24 8 19 23 6 38 23 7 44 22 7 36 23 6 24 22 5 21 22 5 23 24 7 23 23 6 22 22 8 21 23 9 22 25 11 24 24 10 23 23 11 23 24 10 25 26 17 34 25 38 31 24 37 30 24 19 23 25 15 23 25 14 20 23 12 18 24 13 17 23 12 16 23 14 17 24 13 17 22 11 17 24 18 20 24 37 27 24 36 26 22 12 13 22 13 14 23 11 15 22 10 14 23 6 12 23 8 13 21 4 10 23 6 14 23 6 12 23 6 12 22 5 13 23 4 10 23 3 12 23 4 10 23 3 12 23 3 12 23 3 12 23 4 10 23 4 10 23 3 12 23 3 12 22 3 9 23 4 10 23 3 12 24 5 11 23 3 12 23 4 10 23 4 10 23 3 12 23 3 12 23 4 10 24 5 11 23 3 12 26 5 12 25 6 12 23 7 10 
21 4 10 23 7 10 23 6 12 22 5 11 23 6 12 22 6 9 23 6 12 22 6 9 23 6 12 23 13 11 22 12 10 23 7 10 23 6 12 22 6 9 21 6 9 22 5 11 24 5 11 24 4 13 23 6 12 23 6 12 22 6 9 23 7 10 22 5 11 22 6 9 21 6 11 22 5 13 23 6 16 22 7 14 24 7 15 23 12 16 24 21 16 23 5 17 23 7 18 23 7 18 24 7 25 24 7 43 23 7 46 23 5 29 23 6 24 25 8 26 22 5 23 22 5 23 24 5 24 21 7 20 24 8 21 24 10 23 22 12 23 22 10 24 23 11 23 25 11 28 26 26 38 22 38 28 22 31 28 23 13 21 25 16 21 26 14 18 25 12 19 23 12 18 23 14 17 24 15 16 22 13 18 24 20 19 23 36 26 25 35 26 21 11 12 22 12 13 23 11 15 23 11 15 23 6 12 23 6 12 23 6 12 24 7 15 23 6 12 22 5 11 22 5 11 23 3 12 23 3 12 24 5 11 23 3 12 23 3 12 24 4 13 23 4 10 22 3 9 23 3 12 22 2 11 24 5 11 24 5 11 23 3 12 23 3 12 23 4 10 23 4 10 23 3 12 24 4 13 22 2 11 23 3 12 23 4 10 23 3 12 23 4 10 23 4 10 24 5 11 
22 6 9 23 7 10 22 5 11 23 6 12 23 6 12 24 8 11 22 5 11 22 6 9 22 6 9 24 14 12 23 13 12 25 6 12 23 7 10 23 7 10 24 7 13 23 4 10 23 6 12 22 5 11 24 8 11 23 7 10 23 8 11 22 7 10 22 6 9 23 6 12 23 8 13 23 8 15 23 6 12 24 7 15 23 7 17 24 14 15 25 22 17 23 7 18 25 7 21 25 7 19 22 7 26 23 7 46 23 7 43 24 7 26 22 5 21 23 6 24 24 7 25 23 6 24 23 6 22 23 6 22 24 8 21 24 10 23 21 11 22 24 10 23 23 11 23 25 11 24 25 16 35 25 36 32 26 39 30 25 24 20 25 16 21 26 15 21 24 11 18 24 13 17 24 15 18 25 15 16 22 11 17 24 23 21 25 39 26 23 33 25 23 13 14 22 12 13 22 10 14 22 10 14 24 7 13 23 8 13 22 7 12 23 6 12 23 6 12 24 7 13 22 5 13 23 3 12 23 4 10 23 3 12 22 3 9 22 2 11 23 3 12 23 4 10 22 3 9 23 3 12 22 2 11 23 4 10 23 4 10 23 3 12 23 3 12 23 3 12 23 3 12 22 2 11 23 3 12 24 4 13 23 3 12 23 3 12 22 2 11 24 5 11 24 5 11 23 4 10 
24 8 11 22 6 9 24 5 11 25 6 12 24 5 11 23 7 10 21 4 10 23 7 10 23 7 10 22 12 10 23 13 12 22 6 9 23 7 10 24 8 11 22 6 9 22 5 11 22 5 11 23 6 12 24 8 11 23 6 12 23 7 8 23 7 10 24 5 11 23 6 12 21 6 13 24 7 15 22 7 12 23 8 15 24 7 17 24 12 16 23 20 15 23 7 18 24 8 19 25 7 21 24 6 28 23 7 44 24 7 43 24 7 25 23 6 24 25 8 26 24 5 24 23 6 22 24 7 26 25 6 25 24 7 25 25 8 24 23 9 24 24 10 23 25 11 24 24 10 23 25 12 30 26 26 36 24 37 30 24 31 24 22 16 20 24 15 20 24 13 19 24 14 22 25 14 22 25 14 18 23 12 18 24 24 22 25 38 28 24 31 23 23 12 16 23 13 14 23 11 15 22 10 14 23 6 12 23 6 12 24 7 13 22 5 11 23 6 14 23 7 10 22 5 11 23 3 12 23 4 10 23 4 10 23 3 12 22 3 9 23 3 12 23 4 10 24 5 11 22 2 11 24 4 13 23 4 10 22 3 9 24 4 13 22 2 11 23 3 12 23 3 12 23 3 12 23 3 12 23 3 12 24 4 13 23 3 12 23 3 12 24 4 13 25 6 12 23 3 12 
23 7 10 22 7 10 22 5 11 23 6 12 24 5 11 22 7 10 24 7 13 22 7 10 25 6 12 23 14 9 23 13 11 22 6 9 25 6 10 23 7 10 22 6 9 22 6 9 22 5 11 22 5 11 23 7 10 22 6 9 23 6 12 23 7 10 23 6 12 22 6 9 22 7 14 23 6 14 22 7 14 23 8 15 23 6 14 23 12 16 25 21 18 24 8 19 23 7 20 25 7 21 25 7 31 24 8 45 24 7 41 23 4 24 23 6 24 24 5 25 25 6 25 23 6 24 25 7 23 25 6 25 23 6 24 24 7 25 25 8 26 23 9 22 25 11 24 23 9 24 22 10 24 29 16 42 25 36 32 24 37 30 24 19 23 25 13 23 25 16 21 25 16 21 24 15 20 25 16 21 23 12 18 25 26 21 24 37 27 24 30 26 21 10 14 22 12 13 23 11 15 23 11 15 24 7 13 24 9 14 22 7 12 23 6 12 23 6 12 23 6 12 22 5 11 22 3 9 24 3 12 23 3 12 23 4 10 22 3 9 23 3 12 23 4 10 23 4 10 23 3 12 23 3 12 23 4 10 23 4 10 23 3 12 23 3 12 23 3 12 23 3 12 24 4 13 23 4 10 24 5 11 23 3 12 24 4 13 22 2 11 24 4 13 23 3 14 22 5 15 
22 6 9 22 7 10 23 7 10 23 7 10 23 7 10 22 7 10 24 8 11 23 7 10 22 7 12 23 13 11 23 13 12 24 7 13 22 6 9 21 6 9 24 8 11 23 7 10 23 7 10 23 7 10 24 8 11 21 6 9 22 8 8 24 8 11 22 7 10 23 7 10 23 6 14 25 8 14 23 8 15 22 7 14 23 8 13 23 12 16 21 20 16 24 8 19 25 9 22 23 7 20 22 7 30 23 7 44 22 7 40 24 5 24 24 7 25 24 5 25 24 7 26 23 6 24 26 7 26 22 7 26 24 7 26 23 6 25 24 7 26 26 7 26 24 10 23 24 12 22 23 9 22 27 15 37 26 26 36 26 37 31 24 28 27 25 16 21 23 17 21 25 16 21 24 15 18 24 15 20 24 13 17 24 27 20 25 38 28 23 28 22 24 13 17 23 13 14 23 11 15 20 9 13 26 7 13 23 6 12 23 8 13 22 5 11 23 6 12 22 5 11 24 5 11 22 2 11 24 3 10 23 4 10 23 4 10 23 4 10 23 3 12 23 4 10 23 4 10 23 3 12 22 2 11 23 4 10 23 4 10 23 3 12 23 4 10 23 3 12 23 3 12 24 5 11 24 5 11 23 4 10 23 4 10 23 3 12 22 2 11 23 3 12 23 3 14 24 4 15 
23 19 10 21 17 8 23 18 12 23 19 10 22 18 7 25 21 12 23 19 10 23 19 10 22 17 11 23 21 9 25 21 12 23 18 12 22 19 10 24 19 13 22 17 11 23 19 10 23 18 12 23 18 12 23 19 10 22 18 9 23 18 12 23 19 10 24 20 11 23 19 8 23 18 14 24 19 15 23 20 15 23 19 16 23 19 16 25 20 17 23 22 17 23 19 20 24 18 22 25 19 23 24 11 31 23 7 43 23 6 42 23 6 24 24 7 25 25 6 26 23 6 25 24 5 24 23 6 24 24 6 28 24 6 30 23 6 25 24 7 26 25 8 27 22 10 24 24 10 23 23 11 23 25 12 29 29 19 46 26 37 33 26 37 31 24 18 20 22 16 20 24 15 20 24 15 20 23 17 21 23 14 17 24 29 23 25 38 29 24 26 21 24 13 17 24 14 15 22 11 15 22 10 14 22 7 12 23 6 12 24 7 13 24 5 11 23 6 12 23 6 12 23 4 10 23 3 12 25 2 10 23 4 10 23 2 9 23 4 10 24 4 13 23 4 10 23 4 10 22 2 11 24 4 13 22 3 9 24 5 11 23 3 12 24 5 11 23 4 10 23 3 12 23 4 10 23 4 10 22 3 9 22 3 9 23 3 12 22 2 11 24 3 12 23 3 14 22 2 13 
24 5 11 22 5 11 24 5 11 23 7 10 24 5 11 22 6 9 22 5 11 22 6 9 23 7 10 23 14 9 23 12 10 22 6 9 23 7 10 23 7 10 25 6 10 24 5 9 22 5 11 22 5 11 24 7 13 23 7 10 23 6 12 23 6 12 24 8 11 23 6 12 23 6 12 23 6 14 23 8 15 23 8 15 22 7 14 23 12 16 24 21 16 23 5 19 23 7 20 24 8 21 23 7 33 24 8 45 22 7 40 23 4 23 24 5 25 26 7 27 24 5 24 24 7 26 24 7 25 23 6 38 23 7 44 22 7 36 23 8 27 24 7 26 25 8 24 25 11 26 24 10 23 26 14 26 29 15 41 27 30 37 27 37 36 25 25 25 22 16 20 25 16 21 24 15 20 24 15 20 24 15 18 24 31 24 25 38 31 25 25 23 23 12 18 23 12 16 22 11 15 22 10 14 23 8 13 21 6 11 26 7 13 22 5 11 23 6 12 23 6 12 23 4 10 23 4 10 23 4 10 23 4 10 23 4 10 22 3 9 23 4 10 23 4 10 23 4 10 23 4 10 23 4 10 23 4 10 22 3 9 23 4 10 23 4 10 23 4 10 23 4 10 23 4 10 24 5 11 22 3 9 23 4 10 23 3 12 23 3 12 23 3 12 22 2 11 24 4 13 
22 6 9 21 6 9 22 6 9 24 8 11 23 7 10 23 7 10 22 6 9 22 6 9 22 6 9 24 13 9 23 13 11 22 5 11 23 7 10 23 7 10 23 7 10 22 6 9 22 6 9 23 6 12 24 8 11 23 7 10 23 7 10 23 7 10 23 7 10 23 6 12 23 6 14 23 6 14 24 7 15 24 7 15 23 7 17 23 13 14 24 21 16 23 7 20 24 7 23 23 7 20 23 7 33 24 8 45 23 8 41 24 5 25 25 6 25 25 6 26 24 7 26 25 6 25 26 5 24 23 7 43 22 5 47 24 8 45 25 7 29 24 7 26 23 6 24 23 9 22 23 11 23 25 13 25 26 14 38 30 23 39 27 37 36 26 35 34 24 17 25 25 15 23 25 15 23 23 17 21 22 16 20 25 32 25 25 38 31 23 23 21 24 12 16 24 13 17 23 11 13 21 9 13 23 8 11 23 6 12 24 7 13 22 5 11 23 6 12 23 6 12 24 5 11 22 3 9 24 5 11 22 3 9 23 4 10 22 3 9 23 4 10 23 4 10 23 4 10 23 4 10 23 4 10 23 4 10 22 3 9 23 4 10 23 4 10 23 4 10 23 4 10 23 4 10 23 3 12 23 3 12 23 4 10 24 4 15 23 4 10 23 3 12 23 3 14 24 4 15 
22 5 11 23 7 8 24 5 11 22 6 9 22 6 9 23 7 10 22 6 7 22 6 9 22 6 9 23 13 11 24 13 11 22 5 11 25 6 10 23 7 10 23 7 10 24 5 9 22 6 9 22 5 11 23 7 10 22 6 9 23 7 10 23 7 10 22 6 9 22 5 11 23 6 14 23 6 14 24 7 15 23 6 14 25 8 18 24 12 14 24 21 16 24 6 18 23 6 22 23 6 24 23 8 31 24 8 45 22 7 40 23 6 25 25 6 26 24 5 24 24 7 25 24 5 24 25 6 28 22 6 42 23 7 46 23 7 46 23 7 36 25 8 27 25 7 23 25 8 26 25 11 24 27 13 26 26 13 30 28 18 45 28 33 36 27 37 38 25 25 27 26 16 24 23 16 23 25 16 21 25 16 21 24 34 26 25 38 29 23 22 20 24 13 17 23 12 16 24 12 16 21 9 13 23 8 11 22 7 12 23 8 13 22 5 11 23 6 12 23 6 12 22 3 9 23 4 10 23 4 10 23 4 10 23 4 10 23 4 10 22 3 9 23 4 10 23 4 10 23 4 10 22 3 9 22 3 9 23 4 10 23 4 10 23 4 10 23 4 10 23 4 10 23 4 10 23 4 10 23 4 10 22 3 9 23 3 12 24 4 13 23 3 12 23 3 12 24 4 15 
22 6 9 20 8 10 22 6 9 22 6 9 22 6 9 24 8 11 24 5 9 23 7 10 22 6 9 23 13 11 22 12 10 22 5 11 23 7 10 22 6 9 22 6 9 21 5 8 22 6 9 23 7 10 23 7 10 24 8 11 23 7 10 23 6 12 22 6 9 23 6 12 23 6 14 23 6 14 22 7 14 23 8 15 22 7 14 23 13 14 23 20 15 23 5 17 23 7 20 24 6 20 27 9 31 23 7 46 23 7 43 22 5 24 25 6 26 24 5 27 24 5 25 23 6 24 24 6 28 22 8 44 23 6 42 23 7 44 23 7 43 23 8 29 24 7 26 24 7 25 23 11 25 25 13 25 25 12 29 26 16 43 28 24 39 27 37 36 27 33 31 24 18 22 23 16 23 24 15 20 24 15 18 24 33 28 26 35 32 24 20 21 24 12 16 24 12 16 24 12 14 22 10 12 23 8 13 23 8 13 23 6 12 24 5 11 23 6 12 22 5 11 23 4 10 23 4 10 22 3 9 22 3 9 23 4 10 23 4 10 23 4 10 24 5 11 23 4 10 23 4 10 24 5 11 23 4 10 23 4 10 23 4 10 22 3 9 23 3 12 22 3 9 22 3 9 23 4 10 22 3 9 23 4 10 23 3 14 23 3 12 23 3 12 23 3 14 24 4 13 
23 4 10 23 6 14 24 5 11 23 4 10 24 5 11 22 6 9 24 5 11 24 5 9 24 5 11 23 12 10 23 12 10 24 5 11 23 7 10 23 7 10 24 5 9 24 5 11 24 5 11 24 5 9 22 5 11 22 6 9 23 6 14 21 4 10 24 5 11 25 6 12 23 6 14 24 7 15 22 7 14 22 7 14 23 8 15 23 13 14 24 21 16 23 5 17 23 7 20 24 6 22 24 6 30 23 7 44 24 8 44 22 4 26 24 5 25 25 6 28 23 5 27 24 5 25 23 5 31 23 9 45 22 5 37 23 7 44 23 7 44 23 8 31 24 7 26 25 8 26 26 9 28 24 12 24 25 13 25 31 12 40 30 17 45 27 32 38 27 37 36 26 25 30 23 16 23 23 16 23 26 15 21 25 34 29 25 38 29 25 19 21 24 13 17 23 12 16 23 11 13 25 9 12 24 9 14 23 6 12 23 6 12 23 6 12 22 5 11 22 5 11 23 4 10 22 3 9 23 4 10 22 3 9 22 3 9 23 4 10 22 3 9 23 4 10 23 4 10 23 4 10 23 4 10 22 3 9 23 4 10 24 5 11 23 4 10 24 5 11 23 4 10 23 4 10 23 3 12 23 3 12 23 4 10 23 3 12 24 4 13 22 2 11 23 3 12 24 4 15 
23 4 10 23 7 10 24 5 11 25 6 10 24 5 11 24 5 7 24 5 9 25 6 10 24 5 11 22 12 10 23 12 10 22 5 11 22 6 9 20 4 7 23 4 8 23 4 10 24 5 9 22 5 11 23 7 10 22 5 11 22 6 9 23 6 12 22 5 11 24 5 11 22 5 13 23 6 14 24 7 15 23 6 14 23 6 14 24 12 14 24 21 16 24 6 18 23 7 20 24 5 24 24 6 30 23 7 44 24 8 44 23 5 27 23 5 27 26 7 29 24 5 27 24 5 27 24 5 33 23 7 44 24 5 35 24 7 39 24 8 45 23 7 36 24 7 25 24 7 26 25 7 29 24 9 28 25 13 27 29 15 40 29 16 44 28 21 39 26 36 37 26 35 34 24 17 24 23 17 21 24 18 22 25 36 28 24 37 28 24 18 20 24 12 16 23 14 19 23 11 13 22 10 14 23 8 13 24 7 13 23 6 12 24 4 13 22 5 11 22 5 11 23 4 10 23 4 10 23 4 10 23 4 10 22 3 9 22 3 9 23 4 10 23 4 10 23 4 10 23 4 10 23 4 10 23 4 10 23 4 10 23 4 10 22 3 9 23 4 10 23 4 10 22 3 9 23 4 10 23 4 10 22 3 9 23 3 12 23 3 12 22 2 11 23 4 10 23 3 12 
23 4 10 22 5 11 23 4 8 25 6 12 24 5 9 23 7 10 22 6 9 24 5 9 24 5 11 22 11 9 23 12 10 24 5 11 23 7 10 21 5 8 25 6 12 25 6 12 23 4 10 23 4 10 22 6 9 22 6 9 23 7 8 23 7 10 24 5 11 22 3 9 22 5 13 23 6 14 24 7 15 25 5 16 24 7 15 23 13 14 23 20 15 24 8 21 22 5 21 24 5 24 24 6 30 23 7 44 23 7 43 23 5 29 23 6 25 25 6 28 25 6 28 23 5 27 23 7 36 23 7 44 25 5 32 24 5 33 24 8 45 24 7 43 25 7 29 25 8 27 24 7 26 24 9 30 25 13 27 27 13 38 30 15 44 29 16 42 27 31 32 27 37 38 26 25 30 25 16 21 25 19 21 24 37 28 24 37 27 24 15 16 24 13 17 24 11 18 22 12 13 23 8 13 22 7 12 23 7 10 23 7 10 25 6 12 22 5 11 22 5 11 24 5 11 24 3 10 23 4 10 24 3 10 23 4 10 23 4 10 22 3 9 23 4 10 23 4 10 22 3 9 23 4 10 23 4 10 22 3 9 24 5 11 23 4 10 23 3 12 23 4 10 23 4 10 23 4 10 23 4 10 24 5 11 23 3 14 22 2 11 23 3 12 22 2 11 23 3 12 
24 5 9 22 6 9 23 4 8 23 7 10 25 6 10 22 6 9 23 7 10 22 6 9 22 5 11 22 12 10 22 12 10 22 5 11 21 4 10 22 6 9 25 6 12 24 5 11 22 6 9 21 5 6 22 6 9 22 6 9 23 7 10 21 5 8 22 6 9 23 7 10 22 5 13 23 6 14 23 6 16 24 7 15 23 6 14 23 11 13 23 19 16 24 6 18 24 6 22 24 6 22 24 6 28 24 8 45 23 7 44 23 5 31 23 6 25 24 4 29 24 6 30 25 6 26 23 6 42 23 7 44 24 6 30 25 5 30 24 6 44 24 8 45 25 7 31 24 7 26 25 7 29 25 7 31 23 9 26 28 14 37 30 17 43 29 16 42 27 22 29 28 37 34 26 35 34 24 17 24 23 19 20 25 36 28 23 34 26 25 13 17 23 12 16 24 11 18 23 11 13 24 9 12 23 8 13 22 7 12 22 5 11 25 6 12 23 6 12 23 6 12 24 5 11 25 2 10 23 4 10 24 3 10 23 4 10 24 5 11 23 4 10 23 4 10 23 4 10 23 4 10 23 4 10 23 4 10 23 4 10 23 4 10 23 4 10 23 4 10 23 4 10 24 5 11 22 3 9 23 3 12 23 4 10 23 3 12 22 3 9 23 3 12 23 3 12 22 2 11 
24 5 9 22 6 9 23 7 10 23 7 10 24 5 11 22 6 9 22 6 9 25 6 8 24 5 9 23 12 10 25 14 12 22 6 9 22 7 10 22 6 9 22 6 9 24 5 9 24 5 9 22 6 9 23 7 10 22 6 9 22 6 9 23 7 10 23 6 12 24 5 11 22 5 13 23 6 12 23 6 14 24 7 17 23 8 15 24 14 15 24 21 16 23 7 18 24 6 22 23 6 22 24 7 25 24 8 44 23 7 44 25 6 36 24 7 26 25 5 30 25 6 28 25 6 28 24 7 43 22 7 46 24 6 30 24 6 32 23 6 40 23 7 44 23 7 36 26 9 28 25 7 29 25 7 31 24 9 28 27 13 38 31 16 45 30 16 41 28 16 28 27 33 33 27 35 37 26 21 27 23 21 22 25 36 28 25 35 27 24 15 18 23 12 18 23 12 16 25 10 15 22 10 12 22 7 12 20 8 12 23 8 13 23 6 12 23 6 12 22 5 11 23 4 10 25 6 12 23 4 10 23 4 10 22 3 9 24 3 10 23 4 10 23 4 10 23 4 10 23 4 10 23 4 10 23 4 10 23 4 10 23 4 10 24 3 10 24 3 10 24 3 10 24 3 10 24 3 10 24 3 10 23 2 9 24 3 10 23 4 10 23 4 10 23 4 10 24 5 11 
24 5 9 22 7 10 23 6 12 24 5 9 24 5 11 22 6 9 22 6 9 22 6 9 24 5 9 22 12 10 23 12 10 22 6 9 23 7 10 22 6 9 23 7 10 24 5 11 23 4 10 24 5 11 23 7 10 22 6 9 21 5 8 22 6 9 25 6 10 24 5 9 22 5 11 23 6 14 23 6 14 23 6 16 23 6 14 25 13 15 24 20 17 23 5 17 24 6 20 23 6 22 23 6 24 24 7 39 23 7 44 26 7 39 26 7 27 23 5 29 24 4 29 25 6 26 23 5 43 24 8 45 25 7 29 24 6 32 25 6 36 25 7 45 22 6 42 25 7 31 25 7 29 25 7 29 25 8 27 27 13 38 29 16 44 28 15 41 25 12 29 26 25 31 28 37 34 25 29 30 24 24 24 24 37 28 23 32 27 24 13 17 23 12 18 24 12 16 25 10 15 23 8 11 23 6 12 26 7 13 22 7 12 24 5 11 23 6 12 24 5 11 23 4 10 23 4 10 23 4 10 23 4 10 24 3 10 24 3 10 23 4 10 23 4 10 23 4 10 22 3 9 24 5 11 23 4 10 23 4 10 23 4 10 23 2 9 25 4 11 24 3 10 23 2 9 24 3 10 24 3 10 24 3 10 24 3 10 23 3 12 23 3 12 24 4 13 23 3 12 
23 7 10 23 7 10 22 5 11 23 7 10 24 5 11 22 6 9 22 6 9 23 7 10 24 5 9 23 12 10 23 12 10 22 5 11 23 6 12 22 6 9 23 7 10 24 5 11 24 5 11 24 5 11 21 4 10 23 7 10 23 7 10 22 5 11 24 5 11 25 6 12 24 5 11 23 6 14 23 6 14 23 6 14 23 6 14 23 11 13 24 21 16 23 5 19 24 6 20 26 5 22 23 6 22 23 6 38 23 7 44 23 8 41 25 6 28 24 5 27 26 3 31 25 5 30 23 6 42 23 7 43 23 5 27 25 5 30 22 6 32 23 6 38 23 7 46 26 5 36 25 8 27 25 7 29 25 8 27 25 11 34 29 16 44 29 16 42 25 12 29 26 16 24 27 36 35 27 33 33 25 25 23 26 37 31 24 28 27 24 13 19 24 11 18 24 12 16 23 11 15 23 8 13 24 7 13 23 6 12 23 6 12 24 5 11 23 6 12 25 6 12 23 4 10 23 4 10 23 4 10 23 2 9 24 3 10 24 3 10 24 5 11 23 4 10 23 4 10 23 4 10 23 4 10 23 4 10 23 4 10 22 3 9 23 2 9 24 3 10 24 3 10 23 2 9 24 3 10 24 3 10 24 3 10 24 3 10 23 4 10 22 3 9 23 3 12 22 2 11 
24 5 9 22 7 10 23 4 10 25 6 12 23 4 10 23 7 10 24 5 11 23 7 10 24 5 11 23 12 10 22 11 9 22 5 11 22 5 11 23 7 10 22 6 9 24 5 11 24 5 11 25 6 10 24 5 9 22 5 11 23 6 12 24 5 11 23 4 10 24 5 11 25 6 12 25 5 14 24 7 15 24 7 13 23 6 14 23 11 15 24 21 16 24 6 18 24 6 20 24 6 22 24 7 23 25 7 33 23 7 46 23 7 44 25 5 30 25 5 30 25 5 30 23 5 27 24 7 41 24 6 44 25 7 31 24 6 32 25 7 33 25 7 33 24 6 44 23 7 44 24 8 37 26 8 32 25 8 27 25 12 30 28 15 41 29 14 43 27 13 30 25 13 25 28 29 34 26 38 34 25 35 27 26 37 31 26 28 25 24 12 16 23 12 16 24 12 16 25 10 15 22 7 12 22 7 12 24 7 13 23 6 12 25 4 11 24 5 11 23 4 10 24 3 10 23 4 10 23 4 10 25 2 10 23 2 9 24 3 10 24 3 10 23 2 9 23 2 9 24 3 10 24 3 10 24 3 10 24 3 10 24 3 10 24 3 10 24 3 10 24 3 10 24 3 10 24 3 10 24 3 10 25 4 11 24 3 10 22 2 11 23 3 12 23 3 12 23 3 12 
22 6 9 24 5 9 22 5 11 23 4 10 25 4 11 25 4 9 22 5 11 24 5 9 22 5 11 22 11 9 20 12 9 24 3 10 25 6 12 22 6 9 24 5 9 23 4 10 24 5 11 24 5 11 24 5 11 22 5 11 22 5 11 24 5 9 24 5 9 23 4 10 24 5 11 23 6 12 23 6 12 23 6 14 23 6 14 24 9 12 24 19 15 23 6 16 24 6 20 23 6 22 24 6 22 24 6 30 22 8 44 23 7 44 24 6 30 25 6 28 25 6 28 24 6 28 23 6 38 23 7 44 25 5 33 23 5 31 24 6 32 25 7 31 26 7 35 26 9 43 27 11 40 27 9 31 26 9 28 26 11 30 30 15 44 28 15 43 27 13 30 25 13 27 26 20 30 28 37 32 26 37 31 24 37 28 24 25 20 25 13 17 24 12 16 23 11 15 22 10 14 23 6 12 23 6 12 22 5 11 23 6 12 25 6 12 25 6 12 24 5 11 22 3 9 24 3 10 24 3 10 22 3 9 22 3 9 24 3 10 24 3 10 23 2 9 24 3 10 23 2 9 23 2 9 24 3 10 25 4 11 23 2 9 23 2 9 24 3 10 24 3 10 24 3 10 24 3 10 24 3 10 25 4 11 24 3 10 24 4 13 23 3 12 23 3 12 22 2 11 
24 5 9 24 5 9 24 5 11 24 5 9 24 5 11 24 5 9 24 5 9 23 7 10 24 5 9 23 12 10 22 11 9 24 5 11 24 5 11 23 7 10 24 5 9 24 5 11 24 5 11 22 3 9 22 5 11 22 6 9 23 7 10 22 5 11 24 5 11 24 5 11 25 6 12 22 5 13 23 6 14 23 6 14 23 8 15 24 9 14 24 19 16 23 5 17 24 6 20 24 7 23 23 5 21 23 6 24 23 7 43 23 7 43 23 7 36 24 4 29 25 6 28 23 5 29 26 5 36 23 7 44 25 6 34 25 7 33 25 7 31 24 6 32 24 6 30 28 11 45 27 12 43 27 13 36 27 13 30 28 13 32 31 16 45 29 16 44 29 15 32 26 12 25 26 12 25 29 35 35 26 37 31 25 36 28 25 21 22 24 12 16 26 11 16 24 12 16 22 7 12 23 6 12 23 6 12 23 6 12 23 6 12 24 5 11 25 4 11 23 4 10 23 4 10 24 3 12 23 2 11 23 3 12 23 4 10 24 3 10 23 4 10 23 4 10 22 3 9 23 4 10 23 4 10 23 4 10 22 3 9 22 3 9 24 3 10 23 2 9 24 3 10 24 3 10 24 3 10 24 3 10 24 3 10 24 3 10 23 4 8 23 4 10 23 4 10 23 3 12 
21 5 8 23 7 10 22 5 11 21 6 9 24 5 11 23 7 10 22 6 9 25 6 10 24 5 9 23 12 10 22 11 9 22 6 9 22 6 9 23 7 10 24 5 9 24 5 11 23 4 8 24 5 9 22 6 9 22 6 9 22 6 9 22 6 9 24 5 11 24 5 11 25 6 10 22 5 11 23 6 14 23 6 14 24 7 15 24 9 14 23 20 15 24 7 17 24 6 20 23 6 22 23 4 23 23 4 23 23 6 38 23 7 44 23 6 40 23 5 29 24 6 28 24 4 29 25 6 34 23 9 45 24 5 35 25 7 31 25 7 33 26 8 34 26 7 35 28 11 43 27 10 42 27 14 34 27 14 31 27 13 30 29 16 44 31 16 45 27 16 33 26 12 27 26 14 28 25 29 28 28 37 32 24 35 29 24 15 16 22 11 15 27 10 16 24 12 16 23 8 15 25 6 12 23 6 12 24 5 9 25 6 12 24 5 11 24 5 11 24 5 11 23 3 12 23 3 12 21 1 10 23 3 12 24 4 13 22 2 11 23 3 12 23 3 12 23 3 12 23 3 12 23 3 12 23 3 12 23 3 12 23 3 12 25 4 11 24 3 10 24 3 10 25 4 11 24 3 10 24 3 10 24 3 10 24 3 10 24 5 11 23 4 10 23 4 10 23 4 10 
22 6 9 23 7 10 23 7 10 23 7 10 23 6 12 22 6 9 22 6 9 22 8 8 22 6 9 23 13 11 22 12 10 24 8 11 23 7 10 23 7 10 23 7 10 22 6 9 25 6 12 22 5 11 21 5 8 23 7 10 23 7 10 23 7 10 23 7 10 24 5 9 23 7 10 22 5 11 23 8 13 23 6 14 23 6 14 24 9 14 24 20 17 24 7 17 25 7 19 24 6 22 24 6 22 23 4 23 23 7 34 23 7 44 23 5 43 24 6 30 24 6 28 23 5 29 25 6 34 22 8 44 23 7 36 25 7 33 23 7 33 24 6 28 26 10 39 27 12 43 27 14 34 27 14 31 25 12 29 26 13 31 28 13 44 29 16 44 27 14 34 29 13 23 26 13 23 26 15 23 25 25 25 25 19 21 24 12 16 26 11 16 25 10 15 24 12 16 24 7 15 24 7 13 24 5 11 21 5 8 23 6 12 23 4 10 24 5 11 23 4 10 23 3 12 23 3 12 24 4 13 23 3 12 22 2 11 23 3 12 23 3 12 23 3 12 23 3 12 23 3 12 23 3 12 23 3 12 23 3 12 23 3 12 24 3 12 24 3 12 24 3 12 24 3 12 24 3 12 24 3 12 23 2 11 24 3 12 23 3 12 23 3 12 24 4 13 23 3 12 
24 5 9 22 6 9 24 5 9 24 5 9 24 5 9 25 6 10 23 7 10 24 8 11 22 5 11 22 12 10 22 11 9 24 5 9 25 6 10 23 7 10 22 6 9 23 4 8 24 5 9 23 4 8 22 6 9 24 5 9 24 5 9 22 6 9 25 6 10 24 5 9 24 4 13 22 7 12 23 6 12 23 6 14 24 7 15 24 9 16 24 19 16 23 6 16 25 7 19 22 6 19 22 5 21 24 6 22 25 5 30 23 7 44 23 7 44 24 6 30 24 6 30 23 5 27 25 5 33 23 9 44 23 7 36 26 8 32 25 7 31 25 7 31 28 11 43 28 12 41 29 14 33 35 24 30 25 14 28 29 15 30 28 16 40 29 16 44 29 14 37 26 15 21 27 14 21 27 16 20 24 11 18 24 11 18 24 12 16 25 10 15 25 10 15 25 10 15 25 8 16 25 6 12 23 6 12 22 5 11 24 5 11 22 5 11 24 5 11 23 3 12 23 3 12 23 3 12 24 3 12 25 2 12 23 3 12 22 2 11 25 1 14 23 3 14 23 3 14 24 4 15 24 2 14 24 4 15 23 3 14 23 3 14 23 3 14 24 4 15 23 3 14 24 4 15 23 3 14 23 3 14 23 3 14 23 3 14 23 3 14 23 3 14 24 4 15 23 3 14 
24 5 9 23 7 10 23 7 10 23 7 10 22 6 9 23 7 10 22 6 9 22 6 9 23 7 10 23 13 11 22 12 10 23 7 10 22 7 10 22 6 9 22 6 9 23 4 10 25 6 10 22 6 9 23 7 10 23 7 10 22 6 9 25 4 9 22 6 9 24 5 9 22 6 9 23 7 10 23 6 12 22 7 14 23 6 14 24 9 16 24 19 16 24 7 15 23 7 18 23 7 20 23 5 21 24 6 22 24 6 28 22 8 43 23 7 44 24 5 37 24 6 30 24 6 28 24 6 30 22 6 42 24 8 37 26 8 32 25 7 31 25 7 33 28 13 44 27 12 41 27 20 27 46 37 28 43 36 30 30 18 28 28 16 40 27 17 42 29 15 38 27 14 21 28 15 22 27 16 22 26 13 20 24 11 18 24 12 16 23 11 15 26 11 16 24 9 14 25 8 14 27 8 14 23 6 12 25 6 10 25 6 12 24 5 11 24 5 11 23 3 12 23 2 11 23 3 12 24 2 14 24 4 13 23 3 12 23 3 12 24 2 14 23 3 14 23 3 14 23 3 14 25 3 15 23 3 14 24 4 16 23 3 14 24 2 14 24 2 14 23 3 14 23 3 14 23 3 14 24 4 15 24 4 15 23 3 14 23 3 12 24 4 13 26 6 15 23 3 12 
24 5 9 25 6 10 23 3 12 25 4 9 24 4 13 25 6 10 22 5 11 23 7 10 24 5 9 23 12 10 23 12 10 22 5 11 22 6 9 26 5 10 24 5 9 21 5 8 24 5 9 24 5 9 24 5 9 24 5 9 22 6 9 24 5 9 24 5 9 23 4 8 24 5 9 25 4 11 23 6 12 23 6 12 23 6 14 23 6 14 24 19 15 24 7 17 24 6 18 25 7 21 24 6 22 24 5 24 23 4 23 23 6 42 22 6 42 24 7 39 24 6 30 24 6 30 23 5 27 24 7 43 23 6 38 25 7 31 25 7 31 26 7 35 27 12 41 27 11 38 29 19 27 36 30 30 33 22 30 39 32 24 35 25 36 29 16 44 29 17 39 27 14 23 27 14 21 27 14 23 26 13 20 24 12 16 25 10 15 22 10 14 25 10 15 24 9 14 25 8 14 26 7 13 22 5 11 23 7 10 24 5 11 25 6 12 24 4 13 23 3 12 23 3 12 24 4 13 24 2 14 23 3 14 23 3 14 23 3 14 25 3 15 24 4 15 23 3 15 24 4 15 24 2 15 25 5 17 23 3 15 23 3 15 23 3 15 23 3 15 23 3 14 23 3 14 23 3 14 23 3 14 24 2 14 24 2 14 23 3 14 24 4 15 23 3 14 23 3 14 
23 16 10 22 18 9 23 16 10 24 17 9 23 16 10 24 17 9 24 17 11 24 17 9 24 17 11 23 19 10 25 18 8 23 16 8 22 18 9 24 17 11 23 16 10 21 17 8 24 17 11 24 15 10 23 16 10 23 16 10 24 17 11 24 17 11 24 17 11 23 16 10 24 17 11 24 17 11 23 18 12 25 17 14 25 17 14 24 16 14 23 23 13 24 16 14 23 17 19 23 17 19 23 17 19 23 18 22 25 15 24 23 8 39 23 7 44 24 7 43 25 5 30 25 7 29 25 7 29 24 7 43 25 8 40 26 6 31 25 7 33 28 9 37 28 11 43 26 13 33 29 17 27 43 33 24 26 14 28 30 17 27 42 35 29 39 28 34 30 16 39 27 14 23 26 15 21 26 15 21 26 13 22 25 13 17 26 11 16 25 10 15 25 8 14 26 9 15 24 7 13 26 6 15 23 6 12 22 5 11 21 4 10 22 5 11 24 4 13 24 4 13 23 3 12 23 3 14 24 4 15 24 2 14 23 3 14 24 4 15 24 2 15 23 2 17 23 3 15 24 4 16 25 3 16 23 3 14 24 4 16 23 3 15 23 3 15 24 4 16 23 3 15 23 3 15 24 4 16 24 4 16 23 3 14 24 4 15 23 3 14 23 3 14 23 3 14 24 4 15 
24 5 9 22 6 9 23 4 10 23 4 8 23 4 10 24 5 9 24 5 11 25 6 10 24 5 9 22 12 10 22 12 10 22 5 11 24 5 9 24 5 9 22 6 9 22 5 11 24 5 11 22 5 11 24 5 9 22 6 9 25 4 9 25 6 10 25 4 11 21 4 10 22 5 11 24 5 11 21 6 11 23 6 12 23 6 14 23 6 14 24 19 15 24 7 15 23 6 16 24 6 18 23 7 20 23 6 24 24 5 24 25 6 34 23 7 43 22 6 43 24 6 30 25 5 30 24 6 28 25 6 38 25 8 44 25 7 31 25 7 31 25 9 38 27 12 43 27 14 34 29 15 28 43 34 29 28 18 29 27 15 27 40 30 29 47 38 23 40 28 30 27 14 23 27 14 21 26 15 21 25 12 19 27 12 15 28 14 14 26 9 15 25 10 15 27 10 16 24 7 15 27 6 13 25 6 12 22 5 11 24 5 11 24 5 11 24 4 13 23 3 12 24 3 12 24 4 15 23 3 14 24 4 15 24 3 18 24 4 16 24 3 18 25 5 17 24 4 16 24 3 18 25 4 19 24 3 18 24 3 18 23 3 15 24 4 16 25 5 17 25 5 17 24 4 16 23 3 15 24 4 16 23 3 14 24 4 15 23 3 14 24 4 15 23 3 14 23 3 14 
25 6 10 23 7 10 24 5 9 21 6 9 23 7 10 22 7 10 23 7 10 24 8 11 23 7 7 23 13 11 23 12 10 22 6 9 22 6 9 22 5 11 22 6 9 24 5 9 22 6 9 22 6 9 22 6 9 22 6 9 26 7 11 22 6 9 22 6 9 23 7 10 25 6 10 22 6 9 23 6 12 23 6 14 23 6 12 24 7 13 23 17 17 24 7 17 25 8 18 24 6 20 23 5 19 24 6 22 24 6 22 23 5 29 23 7 44 25 7 45 25 6 34 25 6 28 23 5 29 26 7 39 26 9 43 25 7 31 25 7 33 26 10 37 27 12 43 27 12 31 26 16 27 41 31 29 33 22 30 27 15 27 41 32 27 45 36 27 45 35 23 30 19 25 26 15 21 28 15 22 25 12 19 28 12 15 27 12 15 28 12 15 26 9 15 26 9 15 28 9 15 27 8 14 25 6 10 23 6 12 23 6 12 22 5 11 24 4 13 24 4 13 25 4 13 24 4 16 24 4 15 22 5 15 24 3 18 24 4 16 24 4 16 24 3 18 24 3 20 24 3 18 24 3 18 24 3 18 24 3 18 25 4 19 25 4 19 24 3 18 24 4 16 24 4 16 24 4 16 25 5 17 22 4 16 21 3 15 23 3 14 24 4 15 24 4 15 25 5 16 
24 5 9 22 6 9 24 5 11 22 6 9 22 5 11 22 6 9 24 5 9 24 5 9 25 6 10 23 12 10 25 11 10 24 5 9 24 5 9 24 5 9 24 5 9 24 5 9 24 5 9 24 5 9 24 5 9 24 5 9 23 7 10 23 7 10 22 6 9 24 5 9 24 5 7 24 5 9 22 6 9 25 4 11 23 6 14 23 8 15 23 18 14 23 8 15 23 5 17 24 6 20 24 6 18 23 7 20 22 5 24 24 5 25 23 7 43 23 7 43 24 8 37 24 6 28 25 6 28 26 7 35 27 10 44 26 8 32 26 8 32 26 10 37 29 12 44 27 12 33 26 14 26 39 29 28 34 23 27 27 13 28 41 30 26 38 32 36 42 32 30 44 32 18 27 16 20 26 15 21 27 14 21 29 12 18 29 13 14 28 12 15 25 8 14 27 10 16 24 9 14 25 6 12 27 8 12 26 7 13 23 6 12 23 6 12 26 6 15 23 6 16 24 4 15 23 3 15 25 5 17 24 3 18 24 3 18 24 3 18 24 4 16 25 4 19 25 4 19 24 3 20 25 4 23 24 3 20 25 4 21 24 3 18 23 4 23 23 5 21 25 4 19 24 3 18 25 4 19 24 3 18 24 3 18 24 3 18 25 5 17 25 5 17 24 4 16 22 2 14 
24 5 9 22 6 9 25 6 10 24 5 9 25 6 10 23 7 10 23 7 10 23 7 10 23 7 10 25 14 12 23 12 10 22 6 9 22 6 9 23 7 8 23 7 8 22 6 9 24 5 9 25 6 10 22 8 8 22 6 7 23 7 8 24 5 7 24 5 9 24 5 9 24 5 9 23 7 10 25 6 10 24 5 11 22 5 11 24 7 13 24 19 15 22 7 14 23 6 16 23 5 17 24 6 18 24 6 22 24 5 24 23 4 23 23 7 43 24 7 43 24 7 41 22 7 28 23 5 27 26 7 35 27 10 44 25 7 33 26 8 32 28 9 37 27 12 43 26 12 35 28 12 25 37 27 26 39 31 29 26 14 28 41 30 24 41 31 32 33 19 42 45 35 23 39 30 21 27 14 21 26 13 20 28 13 16 29 13 16 28 12 13 26 9 15 26 9 15 26 11 16 25 5 14 27 8 14 26 7 13 26 7 13 25 6 12 25 5 16 24 4 15 25 3 16 24 4 16 23 5 19 24 3 20 24 3 18 24 3 18 24 3 22 25 4 23 25 4 23 25 4 23 25 4 23 24 3 22 24 3 22 25 4 23 24 2 23 25 4 23 25 4 21 23 2 19 25 4 21 24 3 20 24 3 20 24 3 20 24 3 18 24 3 18 24 3 18 24 3 18 
24 5 11 22 6 9 24 5 9 24 5 11 23 4 10 24 5 9 24 5 9 23 4 10 24 5 9 22 11 9 23 12 10 24 5 9 24 5 9 24 5 9 24 5 9 23 4 8 23 4 10 24 5 11 23 4 8 24 5 9 23 4 8 24 5 9 23 4 10 23 4 10 24 3 10 25 4 11 25 6 10 24 5 11 25 6 12 23 6 12 25 17 15 25 5 14 23 6 16 24 6 18 25 5 17 23 5 21 23 4 23 24 5 24 23 6 38 26 9 45 25 8 44 24 6 30 23 5 27 26 5 36 27 10 44 27 7 35 26 8 32 27 8 38 29 12 44 25 11 37 27 13 26 31 19 29 43 34 27 36 26 27 36 26 25 42 32 30 29 16 44 37 28 31 47 35 19 32 21 17 26 15 21 25 16 17 29 13 16 29 13 16 27 10 16 27 11 14 26 9 15 27 8 14 24 7 13 25 6 12 26 7 13 23 6 14 25 5 16 25 5 14 26 6 18 24 3 18 26 6 34 26 6 33 27 5 28 25 4 23 22 5 24 24 3 22 23 5 21 24 2 23 26 4 25 25 3 24 23 4 23 23 4 24 25 4 23 25 4 23 24 5 24 23 5 21 22 3 22 23 5 21 24 3 18 24 3 20 25 4 21 23 5 21 22 4 18 22 4 20 
24 5 9 23 7 10 23 4 8 25 6 10 24 5 9 24 5 9 24 5 9 24 5 9 22 6 9 22 11 9 23 12 10 22 6 9 24 5 9 24 5 9 24 5 9 24 5 9 23 4 8 24 5 9 24 5 9 24 5 9 24 5 9 23 4 8 24 5 9 24 5 9 22 6 9 25 4 9 24 5 9 25 6 12 23 6 12 24 7 13 23 18 15 24 7 15 21 6 13 23 5 17 23 5 19 25 4 19 22 5 23 24 5 25 22 6 33 24 6 44 24 6 44 25 6 34 25 6 28 26 6 34 28 8 43 25 6 36 26 8 32 26 8 34 28 11 43 28 12 41 27 13 28 27 15 29 31 19 29 39 29 28 44 35 26 45 36 29 33 22 39 29 17 37 39 30 25 46 34 18 30 22 20 27 17 18 27 17 18 27 15 17 28 12 13 28 12 15 26 10 13 23 10 17 24 9 14 27 8 12 26 6 15 23 6 12 23 3 12 26 6 15 25 5 16 22 5 15 23 4 23 26 5 36 28 6 44 27 7 42 26 5 38 28 5 34 24 4 29 24 4 29 26 4 27 26 4 25 25 3 24 23 4 24 26 5 24 25 3 24 25 4 23 25 4 21 25 4 23 24 3 20 25 4 21 24 3 20 25 4 19 25 4 19 24 3 20 24 3 20 
24 5 9 24 5 9 24 5 9 23 4 8 24 5 9 23 4 8 24 5 9 24 5 9 24 5 9 22 11 9 23 12 10 24 5 9 24 5 9 24 5 9 24 5 9 24 5 9 23 4 10 23 4 10 24 5 9 24 5 9 24 5 9 22 3 7 24 5 11 24 5 11 24 5 11 24 5 11 24 5 11 24 5 11 24 5 11 24 7 15 23 18 15 25 5 14 25 5 16 23 5 17 23 5 19 23 5 19 23 5 21 25 3 24 24 5 25 22 6 42 22 6 43 25 6 38 24 5 27 26 7 29 29 9 44 27 8 38 26 8 34 25 7 29 25 10 41 28 12 41 27 12 31 26 13 30 26 14 28 27 15 29 32 23 28 44 37 27 35 24 38 30 18 42 29 19 27 43 34 19 45 33 19 31 22 17 27 15 17 27 17 18 29 13 14 28 12 15 26 9 15 26 9 15 24 9 12 22 10 12 25 8 14 26 6 15 25 6 12 22 5 15 25 5 16 23 5 17 25 5 17 24 3 20 27 6 39 27 6 45 26 6 43 28 6 44 28 6 42 27 5 41 28 6 42 28 6 42 27 6 37 26 5 38 26 5 38 26 6 34 24 4 29 24 4 29 24 4 32 24 5 35 23 4 36 22 5 37 24 5 37 22 5 39 23 6 40 25 6 38 
24 5 9 23 7 10 24 5 9 25 4 9 23 4 8 22 6 9 23 7 10 23 7 10 25 4 9 22 11 9 23 12 10 24 5 9 24 5 9 24 5 9 24 5 9 24 5 9 24 5 9 24 5 9 24 5 9 22 6 9 22 6 9 24 5 9 24 5 9 24 5 9 22 6 9 25 6 10 25 6 10 23 6 12 22 5 11 23 6 12 23 18 14 24 7 15 23 6 14 23 5 17 24 7 17 23 5 19 23 5 21 24 6 22 25 6 26 23 6 40 23 7 43 23 6 40 25 5 30 25 6 28 28 8 43 28 9 41 26 8 32 26 8 32 27 10 42 29 13 42 28 13 34 26 14 28 28 16 30 27 15 29 27 16 32 41 33 30 39 30 33 32 18 44 27 22 28 34 27 21 47 35 19 45 33 19 30 21 16 26 16 17 26 14 16 28 12 13 27 10 18 25 8 14 26 11 14 25 10 13 24 7 13 25 5 14 26 7 13 23 6 14 23 6 16 23 5 17 25 5 17 25 4 19 23 4 24 28 6 42 28 8 45 27 7 44 26 6 43 26 4 42 26 6 43 27 7 44 26 6 43 26 6 43 27 5 43 26 6 43 22 6 43 22 6 43 23 7 44 22 6 43 23 5 43 24 3 42 21 5 42 22 4 42 24 6 44 22 4 44 
23 4 8 25 6 10 24 5 9 24 5 9 23 4 8 23 4 8 24 5 9 24 5 9 22 6 9 23 12 10 23 12 10 22 6 9 22 6 9 22 6 9 23 7 10 22 6 9 24 5 9 24 5 9 24 5 9 22 6 9 22 6 9 24 5 9 24 5 9 24 5 9 24 5 9 23 7 10 23 7 10 22 5 11 23 6 12 23 6 12 23 18 14 22 5 13 24 7 15 26 6 17 24 7 17 24 6 18 24 6 22 25 4 21 24 5 24 22 6 35 23 7 43 24 6 44 25 5 30 25 6 26 28 8 36 29 10 42 26 8 34 25 7 33 27 11 38 27 12 43 28 13 36 27 15 29 27 14 31 26 13 30 26 15 29 35 29 33 43 36 30 31 24 40 29 35 33 26 32 30 36 36 28 42 35 25 35 31 20 25 21 18 26 18 16 29 13 14 28 12 15 26 11 16 25 10 15 26 11 14 23 8 13 25 6 12 25 5 14 25 5 16 23 5 17 23 5 17 23 5 17 22 6 19 25 4 21 27 5 28 30 6 42 29 7 45 29 7 45 29 7 43 26 6 43 23 5 43 23 5 43 23 5 43 23 6 42 23 6 40 25 5 40 25 5 40 24 5 37 26 6 34 24 4 31 24 4 31 23 5 29 23 4 26 24 5 27 24 5 27 
24 5 9 24 5 9 24 5 9 24 5 9 23 4 8 24 5 9 24 5 9 25 6 10 23 4 8 24 13 11 22 11 9 23 4 8 24 5 9 23 4 8 24 5 9 24 5 9 23 4 8 23 4 8 25 6 10 23 4 8 24 5 9 24 5 9 24 5 9 24 5 9 26 3 11 24 5 9 25 6 10 22 5 11 24 7 13 22 5 11 24 16 13 22 5 13 25 5 14 23 6 16 23 6 16 25 4 19 23 5 19 23 4 23 26 5 24 24 6 32 23 7 43 23 7 43 25 6 34 24 5 27 25 5 32 28 8 43 27 8 36 26 8 34 27 8 36 28 11 43 28 12 41 27 15 29 28 14 29 27 15 29 27 15 29 31 20 37 44 35 28 34 26 39 27 30 37 26 36 35 27 37 36 27 36 33 24 37 28 28 33 29 26 28 23 27 19 17 28 14 14 24 12 14 27 11 14 25 10 15 26 9 15 25 8 14 25 5 14 26 6 17 24 4 15 23 5 17 24 6 18 22 6 19 25 4 19 24 3 20 24 4 31 28 6 42 29 7 45 28 6 42 29 7 45 24 6 44 22 5 37 25 5 30 24 4 29 23 4 26 26 4 27 23 4 24 23 4 24 25 3 24 26 5 24 24 3 20 23 4 23 25 4 23 25 4 23 23 5 21 
22 6 9 22 6 9 22 6 9 25 6 10 25 4 9 22 6 9 21 6 9 22 6 9 25 4 9 23 12 10 23 12 10 24 5 9 24 5 9 22 6 9 23 7 10 22 6 9 24 5 9 24 5 9 25 6 10 24 5 9 25 6 10 23 4 8 24 5 9 23 4 8 24 5 9 24 5 9 22 6 9 24 5 9 23 7 10 23 6 12 23 18 14 22 5 13 25 8 18 24 7 17 24 6 18 23 5 19 23 5 19 23 5 21 23 4 23 25 6 26 23 8 41 23 7 43 23 6 38 25 6 26 25 5 30 27 8 38 28 9 41 25 7 33 25 7 33 28 12 39 28 12 41 27 14 34 27 15 29 27 15 29 27 14 31 26 17 38 40 32 30 40 31 34 29 21 42 27 36 33 26 25 30 27 29 28 28 30 29 27 37 29 27 36 31 26 36 27 28 16 18 26 14 14 28 14 14 27 13 13 25 10 17 27 11 14 27 8 14 26 6 15 26 6 17 23 6 16 24 6 18 24 6 18 24 6 22 25 3 24 21 2 21 24 4 31 28 6 42 28 8 45 28 6 44 27 7 44 25 4 43 24 4 29 24 4 29 24 5 27 24 5 27 26 4 27 25 3 26 26 4 27 25 3 24 25 4 23 24 5 25 26 4 25 25 4 23 23 4 23 
24 5 9 24 5 9 24 5 9 23 4 8 24 5 9 25 6 10 25 4 9 24 5 9 24 5 9 25 11 10 24 10 9 23 4 8 24 5 9 24 5 9 24 5 9 24 5 9 23 4 8 23 4 8 24 5 9 25 6 10 24 5 9 24 5 9 23 4 8 24 5 9 23 4 10 24 5 9 24 5 9 24 5 9 24 5 9 24 5 11 25 17 14 25 5 14 25 5 14 23 5 17 24 7 17 23 5 19 25 4 19 24 6 22 22 3 22 24 5 24 24 7 41 23 7 43 24 7 41 26 7 29 25 6 28 25 6 36 28 8 43 27 8 36 25 7 33 28 9 37 28 12 41 27 13 38 27 15 29 27 13 30 26 15 29 29 15 40 37 27 36 42 32 30 29 20 39 27 36 35 26 31 27 26 20 24 27 18 23 25 19 23 26 28 23 25 36 28 27 19 17 25 15 14 26 14 14 28 12 13 27 13 13 26 10 13 25 8 16 25 8 16 25 8 14 24 7 17 26 6 17 24 6 20 24 6 20 26 5 22 24 3 22 23 4 23 25 5 32 28 8 43 29 7 45 28 6 44 26 5 44 24 5 33 25 2 28 26 4 27 24 2 23 24 5 25 23 4 26 26 4 25 25 3 24 26 5 24 25 4 23 25 3 24 25 4 23 22 4 20 
24 5 11 25 6 10 23 4 8 24 5 9 23 4 8 24 5 9 24 5 9 22 6 7 24 5 7 22 11 9 22 12 10 24 5 9 24 5 9 24 5 9 24 5 9 23 4 10 24 5 9 24 5 9 24 5 9 24 5 9 25 6 10 24 5 9 23 4 8 24 5 9 24 5 9 22 6 7 21 5 8 23 4 8 23 6 14 22 5 11 24 17 9 25 5 14 25 5 14 23 6 14 24 7 15 22 4 16 23 5 17 23 5 21 23 4 23 22 5 23 23 7 34 24 7 43 24 8 44 25 5 30 24 6 30 28 5 33 29 8 41 29 9 44 25 7 33 28 8 35 28 12 41 28 12 41 27 14 31 28 14 29 26 13 30 31 17 40 32 20 40 44 37 29 32 24 39 26 34 36 26 30 31 26 20 20 27 21 23 26 20 22 26 22 21 25 36 30 25 24 19 27 15 15 27 15 17 28 14 14 29 15 15 27 13 13 27 10 16 25 8 18 26 6 15 27 7 16 24 7 17 24 6 18 24 6 20 23 5 21 26 5 22 22 3 22 23 4 24 24 4 31 27 5 43 26 6 41 27 7 42 26 6 43 26 3 29 25 3 24 25 4 23 23 4 24 25 3 24 25 3 24 23 5 21 25 4 23 23 4 23 23 5 21 24 3 20 24 3 20 
23 4 10 24 5 9 24 5 9 23 4 10 23 4 8 23 4 8 24 5 9 24 5 9 23 4 8 22 11 9 23 12 10 24 5 9 24 5 9 22 6 9 22 6 9 23 4 10 23 4 8 23 4 8 23 4 8 24 5 9 23 4 8 23 4 8 24 5 9 23 4 8 23 4 10 23 4 8 24 5 7 22 6 9 24 5 9 24 5 9 22 18 9 25 6 12 22 5 13 24 7 15 24 7 17 21 3 15 23 5 17 24 6 18 23 5 21 24 5 24 24 4 31 23 8 41 24 7 43 25 5 33 24 4 29 25 5 30 26 8 34 28 8 43 27 8 38 25 7 31 26 10 39 27 12 41 28 12 39 27 15 29 28 14 29 28 16 40 29 16 42 41 31 29 39 30 35 28 33 36 27 36 35 25 23 28 26 22 23 26 20 22 27 18 23 29 35 31 35 35 23 30 20 18 27 15 15 27 16 14 27 12 15 28 12 12 27 11 14 26 9 15 25 8 16 26 9 17 25 8 14 24 7 17 24 6 20 23 5 19 25 4 19 24 6 22 23 5 21 23 4 23 25 6 28 28 8 43 28 8 45 28 6 44 25 5 40 26 4 25 26 4 25 26 5 24 25 3 24 25 4 23 25 4 21 23 4 23 24 5 24 25 4 21 25 4 21 25 4 21 
24 5 9 23 7 10 24 5 9 23 4 8 24 5 9 23 7 10 22 6 9 25 6 10 24 5 9 24 13 11 23 12 10 25 6 10 24 5 9 22 6 9 22 6 9 23 4 10 23 4 8 24 5 9 23 4 8 24 5 9 25 6 10 24 5 9 24 5 9 24 5 9 24 5 9 24 5 9 23 7 10 22 6 9 22 6 9 22 6 9 22 18 9 23 7 10 23 6 14 25 5 14 27 7 18 22 4 16 25 4 19 24 6 20 23 5 21 23 4 23 24 5 25 24 7 41 23 5 43 23 6 38 24 5 25 24 4 29 26 6 31 28 9 41 28 9 41 26 8 32 25 9 36 28 12 41 26 11 42 28 13 36 27 15 29 28 16 38 30 16 42 36 26 37 44 35 30 32 31 37 28 37 36 25 23 28 26 22 23 26 20 22 28 17 23 26 36 28 29 36 28 47 36 18 31 17 17 26 16 15 26 14 14 28 12 13 27 11 11 26 9 15 26 9 15 25 8 16 25 8 16 23 6 14 24 7 17 24 6 18 24 6 18 24 6 20 26 5 22 25 4 23 23 4 23 26 4 25 26 7 39 28 6 44 26 6 43 25 5 40 26 4 25 22 3 22 25 3 24 23 4 23 25 4 23 23 4 23 24 3 20 25 4 23 24 3 22 25 4 23 
24 5 9 22 6 9 24 5 9 24 5 9 24 5 9 22 6 9 22 6 9 22 6 9 24 5 9 23 12 8 23 12 10 25 6 10 23 7 10 23 7 10 23 7 10 24 5 9 25 6 10 24 5 9 24 5 9 24 5 9 24 5 9 24 5 9 24 5 9 24 5 9 24 5 9 23 4 8 23 7 10 25 6 10 24 5 9 23 7 10 25 18 12 23 6 12 24 7 15 22 7 14 24 7 15 25 3 16 22 4 16 26 5 20 24 6 20 24 6 20 23 5 21 23 7 36 25 8 44 23 7 43 24 5 27 26 6 31 25 5 30 24 6 32 28 9 41 27 10 42 26 8 34 25 9 36 27 12 41 27 13 39 29 15 30 28 15 32 28 14 40 33 21 41 42 35 25 32 29 36 27 36 35 27 28 30 26 20 24 25 21 22 28 19 22 27 29 26 27 37 29 48 36 20 44 32 16 28 19 14 27 15 15 28 12 12 27 13 13 26 10 13 26 9 15 26 9 15 27 8 14 26 9 15 25 8 16 23 5 17 23 5 17 23 5 19 23 5 19 26 5 22 25 4 21 23 2 21 23 4 23 24 4 31 27 7 42 27 7 44 25 5 40 24 5 27 25 3 24 26 5 22 25 4 23 23 5 21 25 4 21 23 5 21 23 4 23 25 4 21 
24 5 9 22 6 9 23 4 8 24 5 9 24 5 9 24 5 7 25 6 8 22 6 9 25 6 10 23 12 8 23 12 10 24 5 9 25 6 10 23 7 10 25 6 8 24 5 9 24 5 9 24 5 9 24 5 9 25 6 10 25 6 10 24 5 9 25 6 10 24 5 9 24 5 9 22 6 9 23 7 7 24 5 9 22 6 9 22 6 9 25 16 9 23 6 12 24 7 13 23 6 12 24 7 15 25 5 16 23 6 16 25 5 17 24 6 18 23 5 19 23 5 21 28 6 29 24 9 42 24 7 43 22 6 33 24 5 27 24 4 29 26 6 31 26 8 34 29 8 41 28 9 39 26 8 32 25 9 38 28 13 44 29 15 41 27 13 36 31 15 44 30 16 42 40 29 35 39 30 33 28 33 36 26 30 33 26 19 26 26 20 22 26 22 23 27 29 26 27 36 31 34 32 19 48 36 20 41 32 17 27 17 15 30 11 13 27 13 12 26 12 11 26 9 15 26 10 13 25 8 16 25 8 14 24 7 15 24 7 17 25 5 17 23 5 19 23 5 19 24 6 20 26 5 22 25 4 21 25 4 23 25 4 21 25 3 26 26 5 38 27 7 44 24 7 43 24 5 35 25 3 24 24 3 22 24 3 22 23 5 21 25 4 19 25 4 21 22 4 20 
23 4 8 23 7 10 24 5 9 24 5 9 25 6 10 25 6 8 25 6 8 23 7 10 24 5 9 23 12 10 23 11 11 23 4 8 23 4 8 23 7 10 22 6 9 24 5 9 25 6 10 23 4 8 24 5 9 24 5 9 24 5 9 24 5 9 24 5 9 24 5 9 24 5 9 25 4 9 24 5 9 25 6 10 24 5 9 26 5 10 24 17 9 25 6 10 21 4 10 22 5 13 24 4 13 25 5 16 25 5 17 23 5 17 23 5 19 22 5 21 24 6 22 24 5 25 23 6 42 24 7 43 26 5 38 23 6 25 25 6 28 25 5 30 26 8 32 26 7 35 29 10 42 29 10 38 26 8 34 28 12 41 28 13 42 30 14 40 29 14 43 31 17 43 35 24 38 44 37 29 29 38 35 27 36 33 27 20 27 25 19 23 26 20 22 24 23 21 30 36 32 25 27 24 36 28 17 48 35 18 41 29 15 26 14 14 27 13 12 27 11 11 26 10 13 26 9 15 26 9 15 25 8 16 25 8 16 25 6 12 25 8 18 25 5 17 23 5 17 23 5 19 24 6 22 22 5 21 25 4 21 25 4 21 25 4 21 26 3 21 25 6 34 23 6 42 24 7 43 22 5 39 25 6 38 24 4 31 24 5 27 23 4 23 25 4 21 24 3 22 
