P3
100 50
255
30 10 47 31 10 49 27 10 44 27 10 44 26 9 43 27 10 44 31 9 47 29 9 46 31 9 47 27 10 46 60 9 75 30 10 45 31 9 47 30 8 46 30 8 46 31 11 48 29 9 46 29 9 44 31 9 47 30 10 47 30 10 47 31 9 47 29 9 44 30 8 44 29 9 44 32 10 48 29 8 47 32 10 49 26 9 43 63 10 80 31 11 48 31 11 46 31 11 48 32 12 49 28 11 45 28 13 46 27 10 42 28 11 45 29 11 49 32 12 47 31 14 48 28 11 45 29 12 46 30 13 49 31 11 48 33 11 49 32 12 49 34 12 51 32 12 49 61 10 76 60 11 76 32 12 49 34 12 50 33 11 49 34 12 50 30 10 45 29 12 46 31 11 46 31 11 46 31 11 46 30 13 47 29 12 46 28 11 45 28 11 45 28 11 45 28 11 47 31 9 47 31 11 46 31 11 46 30 10 45 63 10 80 27 10 44 30 10 47 29 9 46 31 9 47 29 9 44 27 10 46 27 10 44 31 9 47 30 10 47 29 9 46 31 9 47 28 11 45 27 10 44 29 8 47 31 9 48 29 9 44 31 9 47 29 9 46 66 10 83 29 9 44 31 9 47 29 9 46 32 10 48 29 7 43 29 9 44 26 9 43 28 8 43 29 9 46 29 9 46 
55 9 73 58 9 74 56 10 72 55 9 71 55 9 71 55 11 72 58 9 74 57 8 73 58 9 74 55 9 71 68 10 86 55 9 73 59 11 73 58 9 74 58 9 74 56 10 74 56 10 72 57 11 73 56 10 74 55 9 71 55 9 71 58 9 74 56 10 72 56 10 72 57 12 71 56 10 75 56 10 74 59 10 75 55 11 70 68 10 84 56 12 73 57 11 75 57 11 73 59 8 74 56 10 72 56 12 71 55 11 72 55 11 72 57 11 75 56 10 74 57 11 73 57 11 73 56 12 73 57 11 73 56 10 72 58 12 76 58 12 74 60 11 76 57 11 73 66 13 83 69 13 86 56 12 73 60 11 77 57 11 75 59 10 76 55 11 74 57 11 73 55 9 71 57 11 73 57 11 73 57 11 75 57 11 73 53 12 72 54 13 71 54 13 73 56 12 73 57 11 73 56 10 74 57 11 73 57 11 73 68 12 85 52 11 69 59 10 75 56 10 74 58 9 74 56 10 72 55 9 73 58 10 72 59 10 75 55 9 71 55 9 71 58 10 72 55 9 73 57 8 73 57 8 73 58 10 72 58 9 74 57 8 73 57 9 71 68 10 86 54 10 73 58 9 74 58 9 74 58 9 74 56 10 72 55 11 72 55 11 72 55 11 72 58 9 74 55 9 71 
22 9 39 25 10 43 22 9 39 21 8 38 22 9 39 23 10 40 25 10 43 24 9 42 24 7 39 22 9 39 61 10 77 24 9 42 25 8 42 24 9 40 26 9 43 24 9 38 23 10 40 22 9 39 26 9 43 24 9 40 23 8 39 23 8 41 22 9 39 23 10 40 23 10 40 25 10 41 23 10 40 25 10 39 23 13 40 64 13 80 24 11 41 24 11 41 22 11 41 26 11 44 22 12 39 22 12 37 21 11 36 22 12 39 23 13 40 26 13 43 22 11 41 24 11 39 22 12 39 24 11 39 25 12 40 28 13 44 27 12 43 27 12 43 25 12 42 57 11 73 59 11 73 24 11 41 26 11 42 27 12 43 26 11 42 23 13 40 23 10 38 21 10 40 23 13 40 24 13 43 25 12 42 25 12 40 21 10 40 21 11 36 21 12 39 24 11 39 25 12 40 25 12 40 25 12 40 26 11 42 63 12 79 20 11 38 27 12 43 24 11 41 24 11 41 22 9 39 24 11 39 21 8 38 24 9 42 23 10 40 23 10 40 25 10 43 21 8 38 22 9 37 24 9 40 26 9 43 25 10 41 25 8 42 24 9 40 67 10 81 22 9 39 25 8 44 24 9 42 27 8 40 23 8 39 22 9 37 20 9 39 22 9 37 24 9 40 23 10 40 
24 9 40 24 9 42 23 10 40 23 10 40 22 9 39 24 9 40 27 10 44 24 9 42 28 8 43 22 9 39 61 8 76 23 8 41 26 9 41 26 9 41 26 9 43 24 9 40 23 10 40 23 9 42 26 9 43 24 9 40 24 9 40 25 10 43 23 10 40 21 11 38 22 9 39 26 11 42 23 13 40 27 12 43 22 12 39 63 10 78 27 10 42 25 12 38 25 12 40 24 11 41 23 13 40 22 13 40 21 12 39 22 12 39 23 12 44 25 12 40 25 12 40 27 14 42 23 13 40 25 12 40 23 13 38 27 10 42 27 12 45 27 10 44 24 11 41 60 11 77 58 12 76 25 12 42 26 11 42 27 12 43 26 11 42 22 13 40 23 13 40 23 13 40 25 12 42 25 12 42 25 12 42 25 12 40 22 13 40 21 12 39 22 12 39 24 14 41 25 12 42 23 13 40 26 13 43 26 11 42 64 11 79 22 12 37 25 12 42 24 11 39 26 11 42 22 9 39 24 11 41 22 9 37 26 11 44 23 8 39 24 9 40 26 9 43 23 10 40 22 9 39 24 9 42 26 9 43 25 8 40 26 9 41 24 9 38 66 10 81 23 8 39 24 10 43 26 9 41 27 7 42 23 8 39 22 8 41 24 9 40 24 9 40 26 9 43 24 9 38 
23 10 40 23 8 41 22 9 39 21 8 38 21 8 38 22 9 39 25 10 43 25 10 43 25 8 42 23 10 40 61 8 76 24 9 40 25 10 41 24 9 40 24 9 40 23 10 40 22 9 37 23 10 38 24 9 40 24 9 40 21 8 38 24 9 40 19 9 36 21 11 36 21 13 37 25 12 40 22 13 40 24 14 41 20 11 38 61 10 76 26 11 42 23 13 40 21 11 38 22 14 38 23 13 40 19 14 37 20 15 38 21 13 37 23 13 40 24 11 39 22 12 39 25 15 40 23 15 39 22 12 37 22 14 38 26 11 40 23 13 40 26 11 42 24 14 41 57 11 75 59 10 75 24 14 41 26 11 42 26 13 41 25 12 40 22 12 39 22 12 39 22 14 38 23 13 40 23 13 40 24 13 43 23 13 40 21 13 37 22 14 38 19 14 37 20 15 38 25 12 40 23 13 38 23 13 40 26 11 42 63 12 79 22 12 39 23 13 40 24 14 41 25 12 40 22 12 39 22 12 39 20 9 39 23 8 39 20 7 37 24 11 41 27 8 40 22 9 37 20 9 39 22 9 39 25 10 43 24 9 40 24 9 40 24 9 40 69 9 83 23 10 40 26 9 41 24 9 40 24 9 42 22 9 37 22 9 39 21 8 38 24 9 40 23 10 40 22 9 39 
24 9 40 25 10 43 22 9 39 24 11 41 23 8 39 23 8 39 26 9 43 25 10 43 25 10 43 23 8 39 60 9 76 25 10 41 26 9 43 23 10 40 25 8 40 24 9 40 23 10 40 22 9 39 27 7 42 24 9 40 24 9 40 25 10 41 21 11 38 23 10 38 24 11 37 25 12 42 23 12 42 26 13 43 22 12 39 64 12 78 27 14 44 25 12 40 23 13 40 25 12 40 22 14 38 23 15 39 24 16 40 22 17 40 24 14 41 23 13 40 23 13 40 24 14 41 23 15 39 21 16 39 24 16 40 27 14 42 26 13 41 26 13 43 26 13 41 58 12 74 58 12 74 25 12 40 26 11 42 27 12 41 26 13 41 25 15 42 25 15 40 24 16 40 24 14 41 24 13 43 23 12 42 23 13 40 22 17 40 22 17 39 22 14 38 23 15 39 23 12 42 23 12 42 25 12 40 27 12 43 64 11 79 23 13 38 25 12 42 23 13 40 25 12 42 23 13 40 23 10 40 22 9 35 25 10 41 24 11 39 23 10 38 26 9 43 23 10 40 22 9 39 23 8 39 26 9 43 25 10 41 25 10 43 24 9 40 66 9 80 24 11 41 26 11 44 25 8 40 26 9 43 25 10 43 23 10 40 23 10 40 23 10 38 25 10 43 23 10 40 
20 10 37 23 10 38 20 10 37 18 9 36 18 9 36 19 9 36 23 8 39 22 9 39 24 9 40 22 9 37 60 9 76 20 9 39 25 8 40 23 10 40 24 9 40 20 9 39 19 8 38 19 9 36 22 9 39 21 11 38 19 10 37 22 11 41 19 10 37 18 13 36 20 12 36 21 13 37 19 14 37 23 13 40 21 13 36 62 13 78 24 14 41 19 14 37 20 15 37 22 17 40 20 15 37 18 16 37 19 17 38 19 18 36 21 16 38 21 16 39 22 19 40 20 17 38 20 17 38 21 18 39 20 17 38 21 16 39 22 17 39 24 16 40 23 15 38 57 13 72 56 12 73 21 18 39 22 17 40 22 17 40 22 17 40 21 18 39 20 16 39 20 17 38 20 17 38 22 17 40 21 16 39 20 17 38 20 18 39 20 17 36 19 16 35 19 16 37 20 14 40 21 16 38 22 14 38 25 12 40 62 13 78 19 14 36 23 15 39 22 14 37 21 13 37 20 12 36 18 12 38 19 11 35 22 12 39 20 10 37 21 11 38 24 11 39 20 10 37 20 10 37 20 10 37 24 9 40 22 9 39 23 8 39 20 10 37 68 10 84 21 8 38 25 10 41 22 9 39 23 8 39 19 9 36 20 9 39 18 9 36 20 9 39 22 9 39 22 9 39 
18 8 35 22 7 38 20 10 37 19 9 36 19 9 36 20 10 37 24 9 40 22 9 39 23 8 39 22 9 37 61 10 77 20 10 37 23 10 40 22 9 39 23 8 39 22 9 37 22 9 37 20 10 37 22 9 39 21 11 38 20 12 36 22 12 39 20 12 36 20 12 36 18 15 36 21 16 38 20 15 38 21 16 36 19 16 37 62 13 78 24 14 39 20 18 39 21 18 39 21 18 39 20 19 37 17 18 36 18 20 35 18 20 35 20 18 39 20 18 39 21 18 39 21 18 39 18 19 37 20 19 37 18 19 37 21 18 39 22 20 41 24 21 42 21 19 40 56 16 69 54 15 70 21 19 40 21 19 40 21 20 38 23 20 41 20 19 37 20 18 39 18 19 39 19 18 36 21 18 39 21 18 39 20 19 35 19 20 38 20 19 37 17 18 36 21 18 37 20 19 37 20 18 39 22 19 38 24 14 41 62 13 78 18 15 36 21 16 39 21 16 38 19 14 36 19 14 36 18 14 39 18 13 36 20 12 36 20 11 38 21 11 38 22 9 37 18 10 34 18 8 35 22 9 37 24 9 40 23 10 40 22 9 39 21 11 38 67 11 84 18 8 35 23 10 40 22 9 39 24 9 40 20 10 37 19 9 36 19 9 36 20 9 39 23 10 38 21 10 40 
19 9 36 21 8 38 19 9 36 17 8 35 19 9 36 19 9 36 25 8 40 21 8 38 23 10 40 19 9 36 61 10 77 23 10 38 23 8 37 23 10 40 23 10 38 20 10 37 19 11 35 17 12 35 21 12 39 20 12 36 19 14 36 22 14 37 18 15 36 17 15 36 17 15 36 20 15 37 19 16 37 20 17 38 18 17 35 60 14 76 22 14 38 21 20 38 18 19 37 21 19 40 17 18 36 18 21 36 17 20 35 18 20 35 20 19 37 17 20 35 18 19 39 18 19 37 17 20 35 19 20 38 18 19 37 21 18 39 21 18 39 21 18 39 19 20 40 56 15 73 55 16 69 20 19 35 22 19 40 19 17 38 21 18 37 18 19 37 19 20 38 19 20 38 20 19 35 19 21 36 19 20 38 19 21 36 18 19 37 18 20 35 18 21 36 18 20 35 20 19 37 20 19 37 19 18 36 22 14 38 63 15 75 18 17 35 19 16 37 20 17 34 20 15 38 18 15 36 18 15 36 17 14 35 21 12 39 20 12 36 21 12 39 21 11 38 18 13 36 19 11 35 20 10 35 21 11 38 23 10 38 22 9 37 22 9 37 67 9 83 20 10 37 23 10 40 20 10 37 22 9 39 19 9 36 19 9 36 18 8 35 19 9 36 22 9 39 19 9 36 
22 9 37 21 11 38 22 9 37 19 10 37 20 10 37 20 10 37 24 9 40 21 11 38 24 9 38 21 11 36 61 10 76 21 11 38 21 11 38 21 11 38 24 11 39 21 12 39 19 11 35 20 12 36 22 12 37 21 13 37 18 15 36 21 16 39 19 14 36 19 14 36 18 16 37 20 17 38 17 18 36 23 20 41 19 18 34 61 16 75 21 16 39 20 19 37 20 19 37 20 18 39 20 19 37 18 20 35 19 22 37 19 21 36 19 21 36 20 21 39 19 23 35 18 24 36 18 24 36 16 24 35 17 25 36 19 25 37 23 27 39 21 27 39 20 29 38 41 26 59 42 27 58 18 26 37 23 29 43 20 27 37 22 26 38 18 25 35 17 25 36 17 25 36 19 23 35 19 22 37 22 21 37 18 21 36 19 22 37 16 19 34 18 20 33 18 19 37 20 18 39 18 19 37 19 17 38 23 15 39 62 17 76 17 18 36 20 19 37 20 19 37 21 18 39 18 17 35 18 14 37 19 16 37 22 14 38 19 14 36 19 14 37 21 12 39 17 12 35 21 13 37 22 14 38 22 12 39 21 11 38 23 10 38 20 10 35 67 10 81 21 11 38 23 10 38 20 11 38 22 9 37 20 10 37 20 10 37 19 10 37 20 10 37 22 9 37 20 10 35 
22 9 35 21 10 40 19 10 37 19 11 35 19 10 37 20 10 35 23 10 38 21 12 39 22 12 39 20 12 36 60 11 76 20 12 36 21 12 39 20 12 36 21 13 37 18 13 36 18 13 35 17 14 35 19 14 36 18 13 35 18 15 34 19 14 37 18 17 35 16 17 35 16 17 35 16 17 35 18 16 37 19 18 36 16 17 35 60 17 73 18 21 36 18 27 36 16 31 38 17 35 35 17 37 36 19 41 38 16 44 32 18 45 36 16 46 36 19 46 37 17 47 35 18 48 36 17 47 35 17 47 35 15 47 34 18 48 36 18 48 36 17 47 35 17 47 35 18 48 36 18 48 38 17 47 35 18 48 38 17 47 37 18 48 36 16 46 36 17 47 37 17 47 35 17 47 37 17 47 35 20 46 37 16 46 34 17 44 35 16 43 34 16 41 37 17 37 35 19 34 37 17 31 34 18 29 35 21 23 38 60 17 73 16 18 33 19 18 36 18 17 35 19 18 36 18 16 37 15 16 34 18 17 35 19 15 38 17 14 35 17 14 35 19 14 36 16 14 35 17 14 35 18 13 36 22 12 39 20 12 36 20 12 36 21 11 36 67 11 82 19 11 35 22 12 39 22 12 39 24 11 39 23 10 36 19 11 35 19 11 35 20 10 35 22 12 39 19 10 37 
21 12 39 21 11 38 21 11 36 19 11 35 20 12 36 17 12 35 24 11 39 22 12 37 22 12 39 18 13 36 61 12 77 20 12 36 21 12 39 21 12 39 21 12 39 19 14 37 20 15 37 18 15 36 18 13 35 18 15 36 17 16 34 18 16 37 18 17 33 19 18 36 16 17 35 20 17 36 19 22 37 19 34 37 19 41 38 19 46 37 17 47 35 18 48 36 18 48 36 18 48 36 18 48 38 17 47 37 17 49 36 17 47 35 19 49 37 20 47 38 17 47 35 18 48 36 17 47 37 18 46 34 17 47 35 17 49 36 17 49 36 19 49 41 19 47 35 19 44 38 19 46 37 17 47 35 18 48 40 18 48 38 19 49 37 17 47 37 17 47 37 16 48 37 18 48 36 18 48 36 18 48 36 19 49 37 18 48 36 18 48 36 17 47 35 18 48 38 17 49 38 17 49 36 18 48 36 17 47 35 17 47 37 17 39 36 19 34 37 18 22 34 18 17 35 16 17 35 18 17 33 17 16 34 20 15 37 18 15 34 18 15 36 19 14 37 19 16 37 18 15 36 18 13 35 21 11 38 20 12 36 22 12 39 20 12 36 67 11 82 20 12 36 22 12 39 20 11 38 21 11 38 20 12 36 21 12 39 19 11 35 19 11 35 21 11 38 21 13 36 
20 11 38 20 10 37 21 12 41 20 12 36 21 13 37 20 10 35 22 12 39 22 12 39 23 13 40 21 13 37 61 10 76 20 12 35 22 12 39 22 14 38 23 15 39 20 15 37 20 15 37 18 15 36 19 14 36 20 15 37 20 17 36 21 18 39 18 17 33 18 17 35 18 17 35 19 30 34 19 46 37 19 49 37 16 46 34 18 48 38 18 48 36 20 48 36 18 48 38 16 46 36 18 46 34 16 42 33 18 41 35 18 38 37 18 36 36 18 33 36 19 32 38 20 29 36 17 26 35 17 28 34 17 26 35 18 24 36 19 23 35 20 24 36 19 22 37 17 20 35 18 21 36 17 23 35 19 23 35 17 23 35 20 24 36 18 27 36 19 28 35 16 26 35 16 26 35 20 31 37 19 34 39 17 36 34 18 38 37 19 41 38 17 42 38 18 43 37 19 46 37 18 48 36 18 48 36 18 48 36 19 49 37 15 47 36 18 49 34 17 47 37 19 30 36 17 18 36 19 18 36 18 17 35 20 17 36 18 16 37 19 16 37 21 16 39 19 16 37 20 15 37 20 15 37 21 13 37 22 14 38 22 12 39 22 14 38 67 11 82 18 13 36 23 13 40 22 14 38 23 13 40 20 12 36 21 12 39 20 12 36 20 11 38 21 11 38 22 12 39 
19 11 35 20 12 36 19 11 35 18 13 35 18 13 36 18 13 33 20 12 36 18 13 35 21 13 37 18 13 35 61 13 75 19 14 36 19 14 37 18 15 36 19 16 37 18 15 36 18 17 35 16 17 35 18 17 35 17 16 34 14 17 34 17 18 36 16 19 34 15 18 35 15 21 33 14 44 34 14 44 34 16 46 34 15 42 33 16 38 35 14 34 33 15 28 34 16 25 34 17 26 35 15 21 33 14 23 32 13 22 31 15 21 35 15 24 33 15 24 33 14 23 32 14 23 32 14 22 33 15 23 34 14 20 32 15 21 33 17 21 33 15 21 33 14 20 32 16 22 34 15 21 33 15 21 33 17 20 35 17 21 33 17 21 33 15 22 32 15 24 33 14 21 31 14 22 33 15 24 33 15 24 33 15 24 33 16 23 33 13 22 31 14 23 32 15 22 32 16 25 34 16 25 32 16 29 37 14 34 33 17 37 35 16 44 32 15 47 34 15 47 34 17 44 35 13 21 32 14 17 32 16 19 34 15 16 34 14 16 31 17 16 34 20 17 38 16 17 35 17 16 34 17 14 35 19 14 36 18 13 35 19 14 36 18 13 35 64 11 79 18 13 35 21 13 37 19 14 37 20 12 36 19 11 34 18 13 35 17 13 36 19 11 35 20 12 36 19 11 35 
17 14 35 18 13 35 17 14 35 17 14 33 16 15 33 18 15 36 19 14 36 18 14 37 19 14 36 17 14 35 60 12 74 18 15 34 19 16 35 17 15 36 20 15 35 17 16 34 15 16 34 17 16 34 19 18 36 16 18 33 15 17 32 14 17 32 14 21 31 13 21 34 13 31 35 14 46 33 18 48 36 15 25 34 14 20 32 15 21 33 14 23 32 15 25 34 15 24 33 16 27 33 15 24 31 15 24 33 15 25 34 15 30 33 16 41 35 16 48 33 15 37 35 13 26 32 14 24 33 15 25 34 16 27 33 15 26 32 14 27 35 14 24 33 16 26 36 16 27 33 16 25 32 16 26 35 16 26 35 15 25 34 15 25 34 15 24 31 15 25 34 15 26 32 15 25 34 13 38 34 15 47 32 16 42 33 16 32 32 16 25 34 14 24 33 14 24 33 14 27 35 14 24 33 16 25 34 13 23 32 16 22 34 14 22 33 16 25 34 15 47 32 15 47 36 16 32 32 14 20 34 14 20 32 16 18 33 15 18 33 15 16 34 16 15 33 15 16 34 16 17 35 17 16 34 20 17 38 19 16 37 18 15 36 18 13 35 65 12 80 16 13 34 19 14 36 18 13 33 18 13 36 18 15 36 14 12 33 16 14 35 16 13 34 19 14 36 16 14 35 
18 13 35 21 16 38 17 14 33 17 15 36 18 17 35 18 13 35 19 14 36 19 14 36 18 16 37 18 16 37 58 13 72 17 18 36 19 16 37 18 17 35 16 17 35 15 17 32 16 17 35 15 18 33 16 19 34 16 18 33 13 19 31 17 21 33 12 20 31 14 23 32 12 44 31 15 49 33 14 37 29 14 22 33 13 22 31 15 25 34 14 23 32 15 24 33 13 23 32 14 25 31 15 25 34 15 30 33 14 42 30 14 51 34 14 51 34 17 51 34 16 46 34 14 27 33 14 25 31 15 25 34 15 25 34 15 25 34 15 25 34 15 25 34 16 25 32 13 26 32 14 25 31 15 25 34 16 26 35 16 27 33 15 26 32 15 26 32 15 26 30 15 25 34 14 27 33 17 44 35 15 49 33 14 51 34 12 51 32 15 42 33 12 30 32 14 25 31 15 24 31 15 24 33 15 24 33 14 25 31 15 24 33 15 24 33 14 22 33 13 40 33 16 50 33 14 44 32 13 23 32 14 20 32 17 21 33 14 20 32 16 20 32 15 18 35 16 19 34 16 17 35 16 18 33 18 17 35 19 18 36 17 16 34 17 16 34 64 13 79 18 17 35 18 15 36 17 14 33 17 14 35 17 15 36 18 15 36 18 15 34 17 14 35 18 14 37 16 15 33 
17 14 33 18 15 36 17 13 36 18 15 36 18 15 34 18 15 34 20 17 36 17 16 34 19 17 38 18 15 34 59 15 74 16 17 35 18 17 35 16 17 35 19 18 36 16 18 33 16 19 34 13 19 33 17 21 33 16 19 34 14 20 32 16 22 36 14 20 32 14 32 34 15 47 34 16 50 34 13 28 31 14 23 32 14 23 32 16 24 35 14 23 32 13 22 31 13 22 31 15 26 32 15 37 34 14 48 32 13 50 32 14 46 31 13 38 32 15 47 34 15 47 32 13 28 33 13 23 32 14 23 32 14 23 32 14 24 33 14 24 33 14 25 31 13 24 30 14 24 33 15 24 33 14 24 33 14 25 31 15 26 32 15 24 31 14 24 33 14 23 32 13 24 30 13 28 31 15 47 34 14 44 32 14 36 33 14 48 32 13 50 32 15 49 32 15 37 34 15 26 32 14 23 32 13 24 30 14 21 31 15 23 34 14 24 33 14 23 32 13 31 31 15 49 35 14 48 32 15 31 31 13 21 32 18 22 34 15 21 33 14 20 32 18 22 34 16 20 32 15 18 33 15 18 33 16 18 33 18 17 35 18 17 35 18 17 33 65 15 76 16 15 33 20 17 36 19 16 35 20 17 38 18 15 34 16 14 35 17 16 34 18 15 36 18 15 36 18 15 36 
20 17 36 20 15 37 17 15 36 19 16 35 19 18 36 18 17 35 19 18 36 19 30 36 17 35 37 16 29 35 56 17 70 18 20 35 18 19 37 17 18 36 18 20 35 17 20 35 15 21 33 16 19 34 15 21 33 14 20 34 15 21 33 16 22 34 14 28 31 12 44 31 15 49 32 13 43 31 13 24 30 14 22 33 14 23 32 14 22 33 14 20 32 14 23 32 13 31 33 13 45 32 14 48 32 14 48 32 14 40 31 13 27 30 14 23 32 14 39 33 16 50 33 12 39 34 13 26 32 13 24 30 14 24 33 14 24 33 14 24 33 15 24 33 14 24 33 14 24 33 14 24 33 14 25 31 14 23 32 15 24 33 14 24 33 15 25 34 14 25 31 13 26 32 13 35 32 14 48 32 14 39 33 13 21 32 14 25 31 13 40 33 14 46 31 14 48 32 14 44 32 13 31 31 13 23 33 13 22 31 14 23 32 15 21 33 14 22 33 14 25 31 13 43 33 15 49 33 14 44 34 12 27 32 15 21 33 14 20 32 15 21 35 15 21 33 15 21 33 15 21 35 14 20 32 17 20 35 19 18 36 18 17 35 16 18 33 64 16 78 18 29 35 16 35 39 20 29 36 20 19 37 20 17 36 16 17 35 19 18 36 19 18 36 22 14 37 18 15 34 
19 18 36 19 18 36 16 17 35 18 17 35 17 18 36 19 17 38 18 27 36 18 43 37 18 43 37 18 45 36 27 37 46 17 20 35 17 18 36 17 19 32 15 21 33 16 20 32 14 20 32 15 21 33 15 22 32 14 23 32 13 28 33 14 39 35 14 48 34 15 47 32 16 48 35 12 30 32 14 22 33 13 23 33 14 24 33 14 23 32 14 25 31 14 41 32 14 48 32 14 48 32 13 43 31 13 31 31 14 23 32 15 24 33 15 24 33 14 33 31 12 49 31 13 47 31 14 48 32 13 45 32 13 43 31 13 43 33 14 41 32 14 41 32 14 44 34 15 45 33 15 46 31 14 44 32 13 40 31 13 40 31 15 43 31 13 45 32 14 45 30 14 46 31 14 48 32 13 47 31 14 33 31 14 23 32 15 24 33 13 23 32 15 30 33 13 43 31 14 48 32 14 48 32 13 40 33 13 26 34 15 24 33 14 23 32 14 23 32 13 22 31 13 31 31 13 47 31 15 49 35 14 46 31 16 39 33 14 28 31 15 21 33 17 21 33 13 21 32 15 21 33 17 20 35 19 23 34 17 20 35 17 20 35 16 19 34 29 37 48 17 44 35 17 42 36 20 43 37 18 28 37 18 17 35 19 18 34 20 17 36 18 17 35 18 17 35 18 17 35 
18 17 35 19 18 36 20 17 36 19 18 36 19 18 36 18 17 35 17 35 35 18 43 37 19 42 36 16 46 34 16 46 36 15 35 33 17 21 33 17 21 33 17 21 33 17 21 33 14 22 33 14 29 32 16 36 34 13 43 33 14 48 32 16 48 33 14 48 32 14 46 31 13 33 31 11 24 32 13 22 31 14 23 32 13 23 32 14 34 32 12 44 31 13 50 33 14 45 30 13 33 31 13 24 30 14 22 33 14 22 33 13 21 32 13 22 31 14 23 32 15 34 32 12 42 32 14 48 32 15 47 32 15 47 32 15 49 32 15 49 33 15 47 32 16 50 33 15 49 33 14 48 32 15 49 33 15 48 31 12 49 32 14 48 32 15 47 32 13 45 30 15 47 32 12 44 31 13 36 30 15 22 32 14 22 33 13 21 34 15 24 33 14 23 32 13 23 32 13 33 31 14 46 31 14 48 31 13 45 32 14 34 33 13 26 32 14 22 35 13 21 32 14 24 33 14 34 33 14 46 33 13 47 31 15 49 32 13 50 33 15 42 33 15 38 32 14 29 34 14 24 33 14 20 32 18 22 34 15 21 33 18 21 36 16 34 34 20 47 38 18 46 34 19 42 36 18 44 35 18 36 38 18 17 33 18 17 35 20 19 37 18 17 35 19 18 36 18 17 35 
20 17 38 20 17 38 21 18 37 19 18 36 20 18 39 19 18 36 17 43 34 16 46 34 16 29 35 16 29 35 16 46 34 15 45 35 17 35 35 18 21 36 16 27 33 15 40 34 15 45 33 14 48 32 17 49 34 14 48 31 15 46 31 15 42 33 13 31 31 14 25 31 13 21 32 12 22 31 13 22 31 14 29 32 13 44 29 12 49 32 14 46 31 14 37 31 15 24 31 14 20 32 14 23 32 13 22 31 14 22 33 12 20 31 13 21 32 12 22 31 14 23 32 14 23 30 14 25 31 13 28 31 13 31 33 14 34 32 13 33 31 13 33 31 14 34 32 14 34 33 14 34 35 15 35 33 14 34 32 14 34 32 13 31 31 12 30 30 14 27 33 13 26 32 13 22 31 14 23 32 14 22 33 14 23 32 15 24 33 14 23 32 14 23 32 15 22 32 13 22 31 13 26 32 13 36 30 13 47 31 15 49 33 13 43 31 14 29 32 13 23 33 13 23 33 13 21 32 13 24 30 13 31 31 12 42 32 14 46 31 14 48 31 16 49 32 15 49 33 15 45 33 15 40 34 16 30 33 16 22 34 16 36 35 15 47 34 18 45 36 16 29 35 16 29 35 16 46 34 16 41 35 21 18 37 20 18 39 19 17 38 20 18 39 21 16 38 21 18 39 
54 17 68 54 17 68 55 18 70 54 17 68 55 18 69 52 18 68 20 48 36 19 47 35 17 26 35 14 20 34 16 31 34 15 45 33 19 46 37 17 42 36 18 45 36 16 50 34 15 49 33 15 48 31 15 43 31 13 33 31 14 27 33 15 22 32 13 22 31 13 22 31 14 20 32 15 23 34 14 37 31 14 47 30 14 46 31 14 42 30 13 27 30 15 24 33 12 21 30 14 21 31 13 21 32 14 23 32 13 21 32 14 23 32 14 23 32 13 22 31 13 22 31 14 23 30 14 23 32 14 24 33 15 24 31 14 25 31 13 26 32 15 26 32 10 23 29 14 25 31 13 26 32 12 25 31 15 26 32 15 26 32 13 24 30 14 25 31 13 23 32 14 23 30 12 22 31 14 23 32 14 22 33 14 22 33 13 21 32 14 21 31 15 21 33 12 21 30 15 21 33 14 21 31 13 22 31 15 28 34 14 41 32 14 48 31 15 49 33 14 36 33 14 25 31 14 23 32 14 23 32 13 22 31 14 23 32 13 28 31 14 34 33 16 43 34 14 46 31 16 48 33 15 49 32 17 47 37 19 41 38 19 47 35 16 43 34 18 32 35 17 21 33 17 28 34 17 47 35 18 46 34 54 18 66 54 17 69 54 17 68 55 19 67 55 16 69 55 17 68 
22 19 40 23 18 40 23 18 38 22 19 38 24 19 39 22 21 37 17 47 35 17 47 37 15 24 33 16 22 34 15 22 32 15 35 33 16 46 34 14 46 33 15 49 33 14 44 32 13 33 32 14 27 33 14 25 31 14 23 32 15 22 32 15 21 33 13 22 31 14 23 32 14 29 32 14 44 32 12 49 32 14 46 33 14 34 32 13 23 32 13 20 30 13 20 30 13 19 31 12 20 31 12 20 31 14 20 32 13 19 31 13 21 32 14 23 32 13 22 31 14 23 32 14 23 32 13 22 31 14 23 30 15 24 33 14 25 31 14 25 31 14 25 31 14 25 31 14 25 31 14 25 31 15 25 34 14 25 31 15 26 32 15 26 32 14 25 31 15 22 32 13 22 31 17 21 32 13 23 32 14 23 32 14 20 32 13 22 31 12 20 31 16 20 32 12 20 31 12 20 31 12 18 30 11 21 31 13 19 31 13 22 29 14 34 32 13 45 30 14 48 32 13 43 33 15 30 33 14 23 32 13 21 32 14 23 32 14 23 32 14 22 33 13 23 32 13 28 31 15 33 33 14 45 30 15 47 32 15 49 33 16 46 34 16 38 35 17 21 33 16 22 34 16 25 34 16 46 36 17 47 37 22 21 39 22 19 40 22 17 39 23 18 40 22 17 39 23 18 40 
19 21 36 17 18 36 15 21 35 16 19 34 17 18 36 17 26 35 18 46 34 18 45 36 18 22 34 18 22 34 17 21 33 16 25 34 16 39 33 14 44 34 16 36 34 14 23 32 14 23 30 13 23 32 14 22 33 13 21 32 14 22 33 15 21 33 14 25 31 15 38 32 14 48 32 15 49 33 16 42 33 13 27 30 14 20 32 14 20 32 12 19 29 16 20 31 12 18 30 12 18 30 12 18 30 14 18 30 14 18 30 13 19 31 13 19 31 15 19 31 13 19 31 15 19 30 14 20 32 14 21 31 14 21 31 14 24 33 13 22 31 13 22 31 13 24 30 14 23 32 14 23 32 14 23 32 14 23 32 13 22 31 15 24 33 14 23 32 14 23 32 13 22 31 16 20 32 13 19 31 12 20 31 13 19 31 13 19 31 14 18 30 12 18 30 12 18 30 15 19 31 15 19 30 12 19 29 13 19 31 12 18 32 13 19 31 15 26 30 15 42 33 14 46 31 13 45 32 15 35 33 15 26 32 14 23 30 15 21 33 15 24 33 13 22 31 14 23 30 14 23 32 15 24 31 17 37 36 14 44 32 17 39 36 15 24 33 17 21 33 15 21 35 16 22 34 18 45 36 17 47 35 17 24 34 18 21 36 17 21 33 18 21 36 18 20 35 18 20 35 
19 21 36 17 21 33 16 22 36 17 21 33 17 21 33 16 27 33 18 45 36 16 43 34 16 23 33 17 21 32 17 21 33 14 20 32 17 24 34 15 23 34 14 22 33 13 23 32 14 23 32 13 22 31 14 23 30 12 21 30 13 22 29 13 28 33 13 43 33 14 48 34 13 45 30 14 32 32 13 20 30 12 18 30 15 18 33 12 18 30 14 17 32 14 16 29 13 17 29 13 17 29 13 16 31 14 17 32 13 16 33 12 18 32 11 17 29 14 18 29 13 19 31 15 29 30 13 32 30 16 31 34 13 28 33 13 33 31 13 27 30 13 22 31 12 18 30 14 20 32 14 20 32 13 22 31 14 20 32 15 26 32 14 32 32 13 28 31 14 30 30 15 31 31 13 28 31 13 21 32 14 18 30 13 17 29 15 17 32 14 17 32 11 17 31 14 16 29 14 18 30 11 17 31 13 16 31 14 17 32 12 18 30 12 18 30 14 18 30 13 22 31 14 32 32 15 43 31 14 48 31 14 41 32 13 28 31 13 21 32 15 21 33 14 23 32 14 23 32 14 23 32 14 23 32 14 22 33 15 24 33 16 22 34 15 22 32 15 21 33 17 21 33 17 21 33 16 43 34 19 47 35 16 29 35 17 20 35 18 22 34 18 21 36 16 19 34 16 19 34 
18 22 34 18 20 35 18 21 36 17 21 33 17 21 33 18 33 36 20 47 38 19 39 37 17 21 33 17 21 33 17 21 33 15 22 32 15 21 33 13 21 32 15 22 30 14 22 33 15 24 33 14 23 32 13 22 31 14 23 32 13 31 31 13 43 31 14 46 33 13 38 32 13 24 30 12 18 30 14 18 30 13 16 31 14 17 32 14 16 31 13 15 30 14 16 31 14 16 31 14 16 31 14 16 31 14 16 31 14 16 31 15 17 32 14 17 32 13 16 31 14 21 31 14 41 34 14 41 32 13 40 31 14 41 32 15 43 31 13 43 33 16 35 31 14 22 33 14 20 32 14 20 32 13 22 31 14 36 33 15 42 33 12 42 32 14 40 31 13 40 31 12 42 30 14 41 32 13 19 31 13 16 31 14 16 31 13 16 31 13 16 31 14 15 33 16 15 31 15 17 32 13 16 31 14 16 31 14 16 31 14 17 32 13 17 29 14 17 32 13 19 31 11 19 30 15 25 34 16 39 33 14 46 31 15 42 33 15 31 31 14 23 32 14 21 31 14 21 31 14 21 31 14 23 32 14 23 32 15 21 33 15 21 33 14 22 33 17 20 35 17 21 33 17 21 32 17 39 36 19 46 37 16 34 34 17 21 33 19 21 36 18 22 34 18 20 33 19 22 37 
17 37 35 16 22 34 17 21 33 17 20 35 17 30 39 16 47 32 15 49 33 15 31 31 15 21 33 15 21 33 15 22 32 14 20 32 14 20 32 13 22 31 16 20 32 13 20 30 14 23 32 14 20 32 13 23 32 14 36 33 15 43 29 13 43 31 13 31 31 13 20 30 15 19 31 13 17 29 14 17 32 13 17 29 13 15 30 15 17 30 15 14 30 12 16 28 14 13 27 13 16 31 13 15 30 12 15 30 14 16 31 13 15 30 14 16 31 13 16 31 14 17 32 15 38 32 13 35 32 12 19 29 14 20 32 13 22 31 14 34 32 14 45 30 14 39 33 16 20 31 13 22 31 14 39 33 15 45 35 14 36 33 14 21 31 13 19 31 13 21 32 12 37 31 14 35 30 13 17 29 14 17 32 14 16 31 15 17 30 14 16 31 14 16 31 14 16 31 13 15 30 14 16 31 14 16 31 13 15 30 12 14 29 14 16 31 14 16 31 13 17 29 14 18 30 12 18 30 13 20 30 12 32 30 13 43 31 14 44 32 15 38 30 13 23 32 14 23 32 13 22 31 14 22 33 13 21 32 14 20 32 14 20 32 13 22 31 16 23 33 14 22 33 15 21 33 15 30 33 16 48 35 15 47 34 16 29 38 17 20 35 17 20 35 16 22 34 16 35 33 
13 45 32 15 35 33 17 20 53 16 31 50 16 48 35 16 48 33 16 42 33 16 22 34 16 20 29 13 22 31 15 22 32 14 20 32 14 20 32 14 23 32 14 20 32 13 21 32 13 23 32 13 26 32 14 40 31 13 45 32 14 41 32 13 27 30 15 19 31 14 18 30 14 17 32 14 18 30 13 16 31 14 16 31 15 17 30 12 14 29 13 15 30 14 16 31 13 14 32 13 15 30 14 16 31 13 15 30 13 15 30 14 16 31 13 16 31 13 16 31 14 17 32 12 27 30 13 43 31 14 23 32 14 20 32 14 21 31 14 25 31 13 40 31 14 46 31 13 40 31 14 41 32 14 48 32 15 41 32 13 23 32 13 19 31 13 20 30 14 23 32 12 42 32 13 26 32 14 17 32 14 17 32 15 17 30 14 16 29 15 14 30 13 15 30 13 15 30 15 14 30 14 16 31 14 15 33 13 14 32 14 16 31 14 16 31 14 16 29 13 16 31 14 18 30 13 17 29 15 18 33 14 18 30 14 28 31 14 41 32 15 45 33 13 41 29 15 25 34 14 22 33 14 22 33 15 21 33 14 20 32 15 21 33 15 21 33 14 23 30 14 23 32 17 21 33 15 22 32 15 43 31 15 49 33 16 48 35 16 32 48 18 18 54 16 36 35 15 47 34 
16 48 35 16 48 35 17 42 38 14 48 31 15 49 32 18 45 36 14 23 32 13 22 31 15 22 32 13 21 32 14 20 32 14 22 33 14 22 33 14 23 32 14 22 33 14 20 32 14 27 33 15 42 35 13 45 32 16 39 33 13 23 32 12 19 29 14 18 30 14 18 30 11 17 31 14 16 31 13 15 30 13 16 31 15 14 30 12 13 31 14 15 33 15 14 32 15 14 32 13 12 30 16 15 33 15 14 32 13 15 30 13 15 30 14 16 31 15 17 32 13 16 31 13 19 31 15 42 33 12 30 30 14 20 32 14 20 32 14 20 32 14 23 32 14 37 31 13 45 30 13 45 32 15 35 33 14 25 31 13 20 30 15 19 31 13 19 31 13 31 31 13 39 30 13 19 31 13 16 31 15 14 32 13 15 30 13 15 30 15 14 30 15 14 32 14 13 31 14 13 31 12 14 29 13 14 32 12 15 32 12 13 31 14 13 31 13 14 32 12 15 30 14 16 29 15 17 32 14 16 31 15 17 30 11 17 31 13 22 31 14 40 31 13 45 30 15 42 33 16 25 32 13 22 31 14 20 32 14 20 32 15 22 32 13 21 34 13 21 32 15 24 33 15 22 32 14 23 32 15 24 33 15 43 31 16 50 34 15 47 32 16 43 38 16 48 33 15 47 32 
15 36 31 16 48 33 15 49 33 16 48 33 14 40 31 14 23 32 14 20 32 15 22 32 13 24 30 15 24 33 14 21 31 14 21 31 13 21 32 14 21 31 14 21 31 13 26 32 15 43 31 15 45 33 14 35 30 15 24 31 12 18 30 13 16 31 13 17 29 13 17 29 14 16 31 13 15 30 12 14 29 12 14 29 13 12 30 14 13 31 12 13 31 14 13 31 15 14 32 14 13 31 13 12 30 15 14 32 15 14 30 13 15 30 14 16 31 14 16 31 15 17 32 14 17 32 14 34 32 14 40 31 14 23 32 13 19 31 13 22 31 14 21 31 14 23 32 14 32 32 15 31 31 13 22 31 14 23 32 14 21 31 13 20 30 14 21 31 14 40 31 13 33 31 12 18 30 13 16 31 12 14 27 14 16 31 12 14 29 15 14 32 11 13 28 12 14 29 14 13 29 14 13 31 15 12 31 15 14 30 14 13 29 14 13 31 15 14 30 14 16 31 13 15 30 15 17 32 12 15 30 14 18 30 14 18 30 15 18 33 13 21 32 14 36 33 14 45 30 14 44 32 13 27 30 13 21 32 13 21 32 12 22 31 15 22 32 14 23 32 15 24 31 14 23 32 14 23 32 15 22 32 14 23 32 17 39 36 16 48 33 16 48 33 16 48 33 15 35 33 
15 22 32 14 36 33 15 49 33 15 47 32 13 31 31 15 22 32 15 24 33 15 24 33 13 23 32 15 24 33 14 23 32 13 22 31 13 22 31 14 20 32 15 26 28 13 43 31 14 44 32 14 33 31 14 21 31 14 18 30 14 18 30 15 17 30 14 16 31 14 16 29 12 15 30 12 14 29 15 14 30 15 14 32 15 14 32 13 12 30 14 13 31 12 13 31 13 12 30 14 13 31 14 13 31 11 12 30 13 12 30 12 13 31 14 16 31 13 15 28 13 15 30 13 16 31 14 25 29 14 41 32 15 26 30 15 19 31 15 22 32 13 19 31 15 21 33 14 21 31 12 20 31 13 20 30 15 19 31 14 21 31 14 21 31 14 25 31 12 43 28 14 24 33 14 16 31 14 16 31 12 15 30 15 14 32 15 14 32 14 13 29 12 13 31 14 13 31 13 12 30 14 13 31 13 12 30 14 13 31 13 12 30 14 13 31 13 12 30 15 14 30 13 15 30 13 15 30 14 16 31 15 17 32 13 16 31 13 17 29 12 18 30 14 21 31 14 34 32 14 45 30 13 43 31 13 26 32 15 21 33 14 21 31 13 22 31 13 22 31 14 21 31 13 22 31 14 23 32 15 24 33 14 23 32 13 31 31 16 48 33 16 48 33 16 36 34 16 23 33 
17 21 32 14 21 31 15 35 33 15 47 32 14 48 32 14 34 32 13 22 31 13 23 32 14 23 32 13 24 30 14 23 32 14 23 32 13 20 30 15 26 32 14 46 33 14 46 31 13 28 31 13 20 30 14 18 30 14 17 32 14 18 30 14 16 31 15 17 32 15 14 30 13 15 30 14 13 29 14 13 31 15 12 31 14 13 31 13 10 29 14 11 30 15 12 31 14 11 30 14 13 31 14 13 31 13 12 30 14 11 30 16 13 32 14 13 31 16 15 31 14 13 29 14 15 33 14 16 31 16 37 32 14 34 32 14 18 30 14 18 30 14 18 30 12 19 29 14 18 30 14 18 30 15 19 31 13 19 31 14 18 30 14 18 30 16 35 33 15 38 32 13 17 29 14 13 29 12 14 29 15 14 32 13 14 32 14 11 30 15 12 31 13 12 30 14 11 30 15 12 31 14 11 30 14 11 30 14 11 30 15 12 31 15 12 31 14 13 31 14 13 31 14 13 29 14 13 29 14 16 31 13 15 30 12 15 30 14 17 32 14 17 32 14 18 30 12 19 29 14 28 31 14 46 33 13 45 30 13 26 32 13 20 30 14 23 32 14 23 30 15 22 30 14 23 32 14 23 30 15 22 32 15 33 33 16 48 33 15 49 32 14 36 33 15 21 33 15 22 32 
17 21 32 16 23 33 15 22 30 15 35 33 16 48 33 16 48 35 15 29 32 14 20 32 14 21 31 14 20 34 15 22 32 13 21 32 15 24 33 15 42 33 14 44 32 13 31 31 13 19 31 14 18 30 14 17 32 13 16 31 14 16 31 12 15 30 14 16 31 13 15 30 15 14 32 13 12 30 14 12 33 14 11 30 13 11 32 15 10 32 14 11 32 14 11 32 13 10 29 12 9 28 14 11 30 13 10 29 14 11 30 13 12 30 14 13 31 14 13 31 15 12 31 15 14 30 14 16 31 14 28 31 14 40 31 15 19 31 14 18 30 14 18 30 14 16 31 15 18 33 13 17 29 14 18 30 15 19 31 14 17 32 14 20 32 14 40 31 12 27 30 12 14 29 15 14 30 15 14 32 14 13 31 14 13 31 14 13 29 14 11 30 14 11 32 14 11 32 14 11 32 14 11 32 15 12 31 14 11 30 14 11 30 14 11 30 13 12 30 15 14 32 14 13 31 15 14 32 14 13 31 14 16 31 14 16 31 14 16 31 14 16 31 15 19 31 13 19 31 15 19 31 15 30 33 13 44 29 14 42 30 14 24 33 13 21 32 14 20 32 14 20 32 14 23 32 15 21 33 17 27 29 15 47 32 15 49 33 15 35 33 15 22 32 14 20 32 17 21 32 
13 20 30 13 22 31 13 21 32 13 23 32 15 36 31 15 46 31 14 46 33 13 27 30 13 22 31 14 21 31 14 22 33 11 21 30 15 38 30 14 46 33 12 32 30 12 19 29 14 18 30 14 18 30 14 17 32 13 15 30 14 16 31 13 15 30 15 14 30 13 12 28 13 12 30 14 11 30 14 13 31 14 11 32 13 10 31 13 10 31 14 11 32 14 11 32 13 10 31 12 9 30 15 12 33 14 11 30 14 11 30 14 11 30 14 13 31 15 14 32 14 13 31 14 16 31 14 16 31 14 18 30 14 40 31 14 28 31 14 18 30 14 18 30 15 17 30 14 18 30 13 17 29 15 18 33 15 17 32 15 17 32 14 28 29 13 40 33 12 19 29 13 14 32 15 14 30 15 12 31 14 13 31 15 12 31 13 12 30 13 12 30 13 11 32 13 10 31 13 10 31 12 10 31 13 10 31 13 10 31 14 11 32 14 11 32 14 11 30 14 11 30 14 11 30 15 12 31 13 12 30 13 14 32 12 14 29 14 16 31 14 16 31 15 17 32 13 17 29 14 18 29 13 19 31 14 32 32 13 45 30 13 39 30 13 23 32 14 21 31 14 20 32 13 22 31 14 27 33 14 46 31 14 48 32 14 34 32 14 23 32 14 23 32 15 21 33 13 22 31 
15 19 31 12 18 30 14 21 31 13 22 31 13 22 31 14 37 31 14 48 31 14 44 32 15 26 32 14 21 31 13 22 31 14 35 30 14 44 32 15 35 33 13 20 30 14 18 30 14 18 30 14 16 31 13 15 30 13 15 30 15 14 30 15 14 30 15 14 32 14 11 30 15 12 31 13 12 30 12 9 28 13 10 31 14 11 32 14 11 32 13 10 31 14 11 32 13 10 31 15 12 33 13 10 31 14 11 32 14 11 30 15 12 31 13 12 30 14 13 31 14 13 31 12 14 29 15 14 30 14 16 29 13 31 31 14 37 31 14 18 30 14 17 32 13 17 29 13 16 31 13 17 29 13 15 28 14 16 29 15 19 31 15 38 32 14 32 32 14 16 31 16 15 31 13 14 32 14 13 31 14 13 31 14 13 31 15 12 31 14 11 30 13 10 31 14 11 32 14 11 32 13 10 31 14 9 31 13 10 31 12 10 31 13 10 31 13 10 31 14 11 32 14 11 30 14 11 30 14 13 31 15 14 32 14 13 31 15 14 32 13 16 31 15 17 32 14 17 32 14 18 30 14 18 30 12 19 29 14 34 32 15 45 33 15 37 34 13 22 31 14 21 31 13 26 32 14 46 31 13 47 31 14 36 33 14 23 32 14 21 31 13 21 32 13 21 32 14 21 31 
14 20 32 14 21 29 15 22 32 14 20 32 13 22 31 14 20 32 16 39 33 14 46 31 13 44 29 15 26 30 14 32 32 13 45 30 14 34 32 14 20 32 14 18 29 12 18 32 14 17 32 15 16 34 11 14 29 15 14 30 14 13 29 14 13 31 15 14 32 15 12 31 13 10 29 14 11 30 12 10 31 12 9 30 13 8 30 14 9 31 12 9 30 13 10 31 14 11 32 14 11 32 14 11 32 13 10 31 15 12 33 14 11 30 14 13 31 15 12 31 15 14 30 15 14 30 13 15 30 14 16 31 15 24 33 16 42 31 15 24 31 14 17 34 14 17 32 15 19 31 14 18 30 14 18 30 14 18 30 13 24 30 14 42 30 15 24 31 14 16 31 13 15 30 15 14 30 13 12 30 14 13 31 14 11 30 13 12 30 15 12 33 13 11 32 14 11 32 13 10 31 13 10 31 12 9 30 14 9 31 13 10 31 12 9 30 14 11 32 14 11 32 12 9 30 14 11 30 14 11 30 13 12 30 14 13 31 16 15 33 16 15 33 14 16 31 14 16 31 14 18 30 14 18 30 14 18 30 13 19 33 14 34 32 14 46 33 13 31 31 14 25 31 14 45 30 14 48 32 14 37 31 17 21 30 13 22 29 14 20 32 13 22 31 13 22 31 14 21 31 
15 22 30 12 19 29 13 20 30 14 21 31 14 21 31 13 20 30 13 20 28 16 37 32 14 46 31 14 45 30 13 43 31 15 38 30 12 21 30 15 17 32 14 18 30 14 17 32 12 15 30 13 15 30 14 16 31 15 14 30 14 13 31 14 13 31 14 11 30 14 11 30 13 10 29 13 10 29 12 9 30 14 9 31 14 9 31 14 9 31 12 9 30 12 9 30 15 10 32 14 9 31 13 10 31 14 11 32 13 10 31 16 13 32 14 13 31 14 13 31 15 14 32 13 15 30 13 15 30 16 15 31 11 17 29 14 37 31 15 34 32 14 18 30 13 17 29 12 18 30 13 17 29 14 18 30 14 18 30 14 34 32 13 38 32 13 17 29 13 15 30 13 15 30 15 14 30 14 13 31 14 13 31 13 11 32 15 12 31 13 10 31 14 11 32 13 10 31 13 10 31 13 10 31 14 11 32 14 9 31 13 10 31 13 10 31 13 10 31 13 10 31 13 10 31 14 11 32 14 11 30 15 12 31 14 13 31 14 13 31 13 15 30 13 15 30 14 16 31 14 16 29 15 17 32 14 18 30 12 18 30 13 19 31 15 38 32 14 44 32 14 44 32 15 48 31 16 39 31 13 22 31 14 21 31 13 22 31 13 22 31 14 21 31 14 20 32 13 20 30 
14 21 31 14 21 31 13 20 30 13 22 31 13 19 31 13 20 30 14 20 32 14 21 31 13 39 30 14 46 31 14 46 33 15 38 30 13 31 31 13 19 31 15 19 31 17 16 30 14 16 31 14 16 31 13 12 28 14 13 29 15 12 31 13 12 30 13 12 30 15 10 32 13 10 31 13 10 31 12 9 28 14 9 31 14 9 31 14 9 31 12 9 30 13 10 31 14 9 31 14 9 31 13 10 31 13 10 31 13 10 31 14 11 30 13 12 30 15 14 32 16 13 32 12 13 31 13 15 30 13 15 30 14 16 31 15 29 32 12 39 30 13 19 31 14 18 30 15 17 30 13 17 29 13 17 29 14 21 31 14 40 31 13 28 31 13 15 30 13 15 30 14 13 29 14 13 31 15 12 31 14 13 31 14 11 32 14 11 32 14 11 30 14 11 32 14 11 32 14 9 31 13 10 31 13 8 30 14 9 31 14 9 31 13 10 31 13 10 31 12 9 30 13 10 31 14 11 32 15 12 31 14 11 30 15 12 31 14 13 31 14 13 31 15 14 32 14 16 31 14 16 31 14 17 32 13 17 29 14 21 31 14 30 30 13 38 32 15 46 31 13 47 31 12 38 29 14 20 32 14 20 32 13 20 30 14 21 31 13 22 31 14 20 32 13 22 31 14 20 32 
13 20 30 13 20 30 14 20 32 13 19 31 13 20 30 13 20 30 13 20 30 13 21 32 15 26 32 14 35 30 14 41 32 16 44 30 14 45 30 13 32 30 13 17 29 14 16 31 13 15 30 15 14 30 14 13 29 14 13 31 15 12 31 14 11 30 14 11 30 13 10 29 14 9 31 15 10 32 16 8 31 14 9 31 14 9 31 14 9 31 14 9 31 14 9 31 14 9 31 14 9 31 14 11 30 13 12 30 14 11 30 14 11 30 15 12 31 15 12 31 14 13 31 14 13 31 15 14 30 14 16 31 16 15 31 11 20 29 14 42 30 13 27 30 14 18 30 12 15 30 14 16 31 13 17 29 15 26 32 14 40 31 13 19 31 13 15 28 13 15 30 15 14 30 14 13 29 14 13 29 15 12 31 14 11 30 15 12 31 14 11 30 13 10 31 13 10 31 13 10 31 14 9 31 14 9 31 15 10 32 14 9 31 14 9 31 14 11 32 12 7 29 14 9 31 14 11 32 12 10 31 14 11 30 15 12 31 14 13 31 14 13 31 12 13 31 14 16 31 13 16 31 11 17 29 15 17 29 14 33 31 13 43 31 14 44 32 13 43 33 13 35 32 14 25 29 13 22 31 13 19 31 14 21 31 13 20 30 12 21 30 13 20 30 14 20 32 14 21 31 
13 19 31 13 20 30 12 20 31 14 21 29 13 19 31 13 19 31 13 20 30 14 21 31 12 20 31 13 19 31 15 22 30 13 31 31 13 43 31 14 34 32 17 16 30 15 17 30 14 16 31 15 14 30 15 14 32 15 12 31 15 12 31 15 12 31 14 11 30 14 11 28 12 8 31 13 10 31 14 9 31 14 9 32 13 8 30 14 9 31 15 7 30 16 8 31 14 11 32 14 11 32 13 10 31 14 11 32 13 10 29 13 12 30 14 13 31 14 13 31 14 13 31 14 13 31 11 12 30 13 15 30 14 16 31 13 15 28 15 34 32 14 34 32 14 18 30 13 17 29 15 17 32 14 17 32 15 34 32 13 33 31 14 16 29 15 14 30 14 16 31 12 14 29 15 14 30 14 13 29 14 13 31 13 12 30 13 12 30 14 11 30 14 11 32 15 10 32 13 10 31 13 10 31 14 11 32 14 11 32 13 10 31 14 9 31 12 9 30 15 10 33 14 9 31 12 9 30 14 11 30 14 11 30 14 11 30 13 11 32 14 13 31 14 13 29 13 14 32 14 16 31 14 16 31 12 16 28 14 35 30 12 44 31 16 32 32 15 22 32 12 18 30 14 21 31 15 22 32 14 20 32 13 20 30 13 20 30 13 19 31 13 19 31 13 20 30 13 20 30 
14 18 30 15 19 31 12 19 29 13 19 31 14 21 31 12 19 29 12 20 31 14 21 31 15 19 31 13 20 30 13 20 30 15 36 29 13 43 31 13 29 29 13 16 31 13 15 30 13 14 32 13 11 32 14 13 31 15 12 31 15 12 31 14 11 32 13 10 29 13 9 32 14 11 32 12 9 30 14 11 32 14 11 30 13 10 29 12 9 28 14 11 32 14 10 33 14 10 33 13 10 31 14 9 29 12 11 29 14 13 31 14 13 31 13 12 30 14 13 31 15 14 30 15 14 30 13 14 32 14 16 31 15 14 30 13 15 30 14 23 32 14 40 31 13 20 30 14 16 31 14 16 31 13 20 28 13 40 31 14 25 31 13 15 30 13 15 30 13 15 30 15 14 30 15 14 30 14 13 29 15 12 29 15 12 31 13 12 30 15 12 31 14 13 31 13 10 29 13 10 29 14 11 30 13 10 31 13 10 31 14 11 32 14 9 31 12 9 28 13 10 29 13 10 29 12 9 28 14 11 30 14 11 30 15 12 31 15 12 31 13 12 30 14 13 31 12 13 31 14 16 29 14 16 29 15 17 30 13 27 30 13 43 31 14 37 31 14 18 29 15 19 31 14 18 30 16 20 32 13 19 31 12 21 30 16 20 31 13 20 30 15 19 30 13 19 31 14 18 29 
15 19 30 13 19 31 13 20 30 13 20 30 13 19 31 13 19 31 13 20 30 12 19 29 15 19 31 16 20 32 14 37 31 13 43 31 13 33 31 14 18 30 14 16 31 16 15 31 13 15 30 15 14 32 14 13 31 15 12 31 15 12 31 15 12 33 14 11 30 14 11 32 14 11 32 14 11 32 13 10 31 14 11 32 11 8 29 13 10 29 14 11 30 13 10 29 13 10 29 14 11 30 13 10 29 14 11 30 15 12 31 14 13 31 14 13 29 15 14 30 12 14 29 12 14 29 13 15 30 12 14 29 13 15 30 12 15 30 13 17 29 15 38 30 14 30 30 15 17 30 14 16 31 15 31 31 12 38 29 15 17 32 16 17 35 13 15 30 14 16 31 15 14 30 16 15 31 14 13 29 15 12 29 14 13 31 13 12 30 15 12 29 13 12 30 13 10 29 14 11 30 13 10 29 13 10 31 13 10 31 13 10 31 12 9 30 14 11 32 14 11 32 13 10 31 13 10 31 13 10 29 14 11 30 14 11 30 14 11 30 14 11 32 14 13 31 14 13 29 15 14 30 14 16 31 14 16 31 15 17 32 12 33 28 14 42 30 14 34 32 13 20 30 14 18 29 13 19 31 13 19 31 13 19 31 13 20 30 14 21 31 13 20 30 12 18 30 13 21 32 
14 24 33 12 21 30 13 19 31 14 21 31 13 20 30 15 19 31 15 19 30 15 19 31 14 21 29 15 36 31 14 45 30 14 37 31 14 18 30 13 16 31 13 15 30 15 14 30 15 14 30 14 13 29 15 12 31 14 11 30 14 11 30 14 11 30 14 11 32 13 10 29 13 10 31 11 8 29 14 11 32 13 10 29 14 11 28 14 11 30 14 11 32 14 11 32 14 11 30 14 11 30 15 12 31 13 14 32 14 13 31 14 13 29 14 13 29 14 13 29 15 14 30 16 13 30 16 15 31 17 16 32 14 16 31 16 15 33 16 15 29 15 31 31 14 40 31 13 17 29 15 17 32 14 40 31 14 30 30 15 14 30 14 16 31 14 16 31 12 15 30 13 15 30 15 14 30 15 14 30 12 14 29 15 14 32 14 13 31 15 14 32 13 12 30 15 12 31 14 11 30 14 11 30 13 10 29 14 11 30 13 10 29 13 10 29 14 11 30 13 10 29 13 10 29 13 10 31 14 11 32 13 10 31 14 11 32 14 11 30 14 13 31 13 14 32 14 13 31 15 14 30 13 15 30 17 14 31 14 16 31 12 19 29 14 34 32 13 45 30 15 35 33 14 21 31 15 19 31 13 19 31 12 18 30 13 22 31 13 19 31 13 22 31 13 22 31 14 24 33 
13 34 29 15 24 33 14 21 31 12 21 30 14 21 31 13 20 30 12 18 30 15 21 33 15 38 32 14 46 31 14 36 33 15 19 31 14 16 29 13 15 28 13 15 30 15 14 32 14 13 29 14 13 27 14 11 30 14 11 30 15 12 31 14 11 30 13 10 29 13 10 27 13 9 32 14 11 32 13 10 31 13 10 31 14 11 32 15 12 31 15 12 31 14 11 30 14 11 30 13 10 29 12 13 31 14 13 31 13 12 30 13 12 30 12 14 29 14 13 29 15 14 30 15 14 32 13 15 30 15 14 30 14 16 31 13 15 30 13 15 30 12 21 28 14 42 30 15 24 31 15 24 33 14 42 30 14 21 31 13 15 30 14 16 29 14 16 29 14 16 31 14 16 31 13 15 30 15 14 30 15 14 30 13 12 30 13 12 30 14 13 31 14 13 31 13 12 30 14 11 30 15 12 31 14 11 30 14 11 30 13 10 29 13 10 29 14 11 32 12 9 30 13 10 31 13 10 31 14 11 32 13 10 29 13 10 29 13 10 29 14 11 30 15 12 31 14 13 29 14 13 31 14 13 31 13 14 32 14 16 29 12 16 28 13 20 28 16 39 31 14 45 29 14 37 31 14 23 32 14 18 29 11 19 30 13 20 30 13 19 31 12 21 30 13 20 30 14 35 30 
14 44 32 14 28 31 14 21 31 14 21 31 13 19 31 13 20 30 12 26 29 13 41 29 14 45 30 15 36 31 12 19 29 14 18 30 14 18 30 13 16 31 12 14 29 13 15 30 14 13 31 14 13 31 14 11 30 14 11 30 14 11 30 14 11 32 14 11 30 13 10 31 14 11 32 13 10 31 13 10 29 13 10 29 14 11 28 14 11 30 15 12 31 14 11 30 14 11 30 15 12 31 15 12 31 15 14 32 15 14 30 15 14 30 15 14 30 15 14 30 16 15 31 13 15 30 13 15 30 13 15 28 14 16 29 14 17 32 14 17 32 15 17 30 14 40 31 15 36 31 14 34 32 16 39 29 12 16 28 14 16 31 14 16 31 14 16 29 13 16 31 14 16 31 13 16 31 13 15 30 14 13 29 15 14 30 15 14 30 14 13 27 14 13 31 14 13 31 15 12 31 14 11 30 15 12 31 13 12 30 15 12 31 14 11 30 14 11 30 13 10 29 13 10 29 13 10 31 14 11 32 13 10 31 13 10 29 14 11 30 14 11 30 15 12 31 13 12 28 15 14 30 14 13 29 15 14 30 16 15 31 14 18 30 14 18 30 14 21 31 14 37 29 14 44 32 14 40 29 14 25 31 13 20 30 13 20 30 15 22 32 14 21 31 13 26 32 13 45 30 
15 45 33 14 37 31 15 22 30 14 21 31 14 21 31 16 27 33 14 44 32 12 42 30 14 35 30 13 20 30 14 18 30 14 18 30 13 15 30 14 16 29 15 14 30 15 14 32 14 13 29 13 12 30 14 11 28 14 11 32 14 11 32 14 11 30 13 10 31 13 10 31 14 11 30 14 11 30 14 11 30 14 11 30 15 12 31 15 12 31 15 12 29 15 14 30 16 15 33 15 14 32 14 13 29 14 13 29 13 15 30 13 15 30 13 15 30 13 15 30 14 16 29 14 16 31 15 17 30 13 17 29 14 18 30 13 17 29 14 16 31 14 18 30 13 32 30 14 44 32 13 43 31 14 33 31 13 17 29 15 17 30 14 18 30 14 18 30 14 18 30 13 17 29 13 17 29 14 16 29 16 15 31 15 14 30 13 15 30 15 14 30 16 13 32 12 13 31 15 14 32 14 13 31 14 13 31 13 12 30 16 13 32 15 12 31 14 11 30 14 11 30 13 10 29 14 11 30 13 10 29 14 11 30 15 12 31 15 12 31 15 12 31 14 11 28 15 12 29 15 12 31 14 15 33 15 14 30 15 14 30 14 16 31 13 17 29 15 19 31 13 20 30 14 35 30 14 44 32 15 43 31 14 28 31 13 20 30 12 21 30 14 21 31 14 40 31 15 46 31 
13 33 31 14 46 31 14 32 32 15 22 32 16 32 29 12 44 31 14 42 30 14 29 32 13 20 30 13 20 30 12 18 30 13 15 28 14 16 31 15 14 30 13 15 30 15 14 30 14 13 29 13 12 28 14 13 31 13 12 30 15 12 31 13 10 29 13 10 31 13 10 31 13 10 31 13 10 31 14 11 30 14 11 30 15 12 31 15 12 31 14 13 31 14 13 31 15 14 30 15 14 30 14 13 29 14 16 31 13 15 28 14 16 29 13 15 28 14 16 29 15 17 29 14 16 29 15 19 31 13 17 29 15 17 30 11 17 29 14 18 30 14 18 30 15 22 32 13 45 32 13 45 32 13 22 29 14 16 29 14 18 30 15 19 31 14 18 30 14 18 29 13 17 29 13 17 29 12 16 28 14 16 29 13 15 28 14 16 29 13 15 30 14 16 31 15 14 32 15 14 30 13 12 30 14 13 29 16 15 31 14 13 31 15 12 31 14 13 31 13 12 30 14 11 30 14 11 30 14 11 30 14 11 30 14 11 30 15 12 31 14 11 30 13 12 30 15 12 31 14 13 31 14 13 29 13 15 30 14 16 31 14 16 31 14 16 29 15 17 30 14 18 30 13 20 30 14 30 30 13 43 31 13 43 31 14 33 29 12 21 30 15 31 31 14 46 31 15 38 32 
14 25 31 14 45 30 13 43 31 14 42 30 12 46 30 15 41 30 13 24 30 12 18 30 14 18 30 16 18 33 15 17 32 14 16 31 14 16 31 15 14 30 13 14 32 14 13 31 14 13 29 12 11 29 13 12 30 13 12 30 15 12 31 13 10 29 14 11 30 14 11 30 15 12 33 14 11 30 13 12 30 13 12 30 14 13 31 15 13 34 12 14 29 16 13 30 14 13 31 12 14 29 15 14 28 13 15 30 14 16 31 13 17 29 13 16 31 14 17 32 14 18 30 15 19 31 13 17 29 14 18 30 14 18 30 14 18 30 15 19 31 14 18 30 11 17 29 15 26 32 14 25 29 14 18 30 13 17 29 15 19 31 15 19 31 14 18 30 14 18 30 14 18 30 14 18 29 14 18 30 13 16 31 13 17 29 15 17 32 14 16 29 13 15 30 14 16 31 13 15 30 12 14 29 15 14 30 14 13 31 14 13 29 15 12 31 14 13 31 13 12 30 14 11 30 14 11 30 13 12 30 13 10 29 14 11 30 14 11 30 14 11 30 14 11 30 13 12 30 14 13 31 14 13 29 13 15 30 14 16 31 14 16 31 14 18 30 14 18 30 14 18 30 15 19 30 12 18 30 14 25 31 14 42 30 14 46 31 14 42 30 13 43 31 13 43 31 14 25 31 
13 22 31 15 35 33 15 47 32 13 47 30 13 39 28 14 23 32 16 20 32 15 19 30 14 18 30 14 18 30 15 17 30 14 16 29 13 15 30 15 14 30 15 14 30 14 13 29 13 12 30 14 13 31 13 12 30 14 13 31 14 11 30 15 12 31 14 11 30 14 11 30 14 11 30 14 11 30 15 12 29 16 13 30 14 13 29 15 14 30 14 13 29 15 14 30 13 15 30 14 16 31 14 16 31 13 15 30 14 16 29 13 17 29 14 23 32 14 30 30 13 22 29 12 18 30 14 18 30 14 18 30 14 18 30 14 18 30 14 18 30 16 18 31 15 19 30 15 19 31 14 18 30 14 18 30 15 19 31 14 18 30 14 18 29 15 19 30 14 18 29 14 18 30 14 17 32 15 24 31 15 29 32 14 21 29 13 17 29 13 15 28 14 16 29 14 16 31 13 15 28 13 15 30 13 14 32 13 15 30 15 14 28 14 13 29 14 13 29 13 12 28 13 12 30 15 12 31 15 12 31 14 11 30 15 12 31 14 11 30 16 13 32 15 12 31 15 14 32 15 14 30 14 13 29 13 15 30 16 15 31 14 16 31 14 16 29 13 17 29 14 18 30 15 19 31 13 19 31 15 19 31 14 23 30 13 39 30 13 47 31 15 47 32 14 34 32 15 21 33 
13 31 31 13 45 30 14 46 31 13 33 31 13 22 31 12 19 29 14 21 31 14 18 30 16 18 31 14 18 30 15 17 30 14 16 29 14 16 31 13 15 30 15 14 30 15 14 30 14 13 31 13 12 30 13 12 30 13 12 30 15 12 31 15 12 31 15 12 31 16 13 32 14 13 31 13 12 30 15 14 30 15 14 32 13 15 30 15 14 30 16 15 31 13 15 30 13 15 30 14 16 31 14 16 29 15 17 32 16 18 31 12 32 30 14 40 29 15 43 31 13 38 32 15 19 31 14 18 29 14 18 30 14 18 30 14 18 30 18 17 31 14 18 30 15 19 31 15 19 31 12 18 30 14 18 30 14 18 30 15 18 33 14 18 30 14 18 30 15 19 31 14 18 30 14 21 29 15 38 28 16 44 32 14 41 32 15 31 31 13 20 30 14 16 31 14 16 29 14 16 29 13 15 30 13 15 30 14 16 31 14 16 29 15 14 30 14 13 27 14 13 29 13 12 28 13 12 30 14 11 30 13 11 32 14 11 30 14 13 31 15 12 31 15 12 31 14 13 31 14 13 29 15 14 30 14 13 29 13 15 30 14 16 31 13 16 31 14 18 30 14 18 30 13 20 30 13 21 32 14 18 30 14 20 32 13 22 31 13 33 31 14 46 31 14 46 31 15 31 31 
