P3
100 50
255
23 3 12 24 4 13 22 2 11 23 3 12 22 5 15 21 4 12 21 3 15 22 4 16 22 4 18 22 4 20 22 3 23 23 4 24 22 4 26 23 5 31 25 6 34 25 6 38 24 5 35 27 9 49 30 7 49 30 9 48 31 9 48 30 7 49 32 10 49 30 10 47 33 7 36 32 7 36 36 8 33 38 6 30 36 9 26 35 8 25 51 13 26 43 11 24 36 8 20 39 9 17 41 10 16 39 8 13 38 9 13 40 9 14 43 8 14 45 10 16 42 10 13 55 15 13 58 17 15 59 18 14 42 10 13 36 7 12 37 8 12 34 7 12 36 7 12 35 6 11 33 6 13 33 6 13 34 7 12 32 7 11 32 7 11 33 6 13 32 7 13 31 6 12 32 5 12 31 6 12 33 6 13 32 7 13 32 7 13 32 5 12 32 5 12 32 5 12 32 7 13 37 8 13 56 14 15 60 16 15 55 13 14 39 10 14 34 7 12 36 7 12 37 7 15 37 8 13 38 9 14 37 8 13 37 8 13 37 8 12 36 7 12 37 8 13 38 7 12 38 9 14 38 7 12 39 9 17 38 7 12 37 8 13 37 8 13 31 6 12 31 6 12 30 7 15 28 5 13 27 4 10 26 5 14 25 6 12 24 4 13 24 4 13 24 4 13 23 3 12 
21 4 12 22 5 13 20 3 11 21 4 12 21 4 14 22 5 13 22 4 16 22 4 16 24 6 20 23 5 21 22 3 23 24 5 25 23 5 27 23 5 31 24 6 32 24 4 39 24 5 37 26 8 48 30 9 50 31 9 48 31 9 48 30 9 50 31 9 48 34 9 48 43 9 34 41 11 37 43 9 34 42 8 32 43 11 26 43 11 26 53 13 24 46 13 22 44 11 18 43 11 16 46 11 17 46 12 13 45 11 12 47 13 14 47 11 13 47 11 13 45 11 12 48 12 12 57 16 14 59 18 14 60 16 15 42 10 13 36 7 12 36 7 12 34 7 12 36 6 14 34 8 11 34 7 12 35 5 13 33 6 13 33 6 13 32 5 12 32 7 13 32 7 13 33 6 13 33 6 11 31 6 12 32 6 15 33 6 11 33 6 13 33 6 11 32 5 10 46 11 15 59 15 14 56 16 14 54 16 15 39 8 14 34 7 14 36 7 12 37 8 13 36 7 11 38 9 14 38 7 13 38 7 13 37 8 12 39 8 13 37 8 13 39 8 13 39 8 13 39 8 13 46 11 15 57 18 13 58 17 15 59 15 12 57 16 14 47 11 13 32 7 13 32 7 13 28 5 11 26 5 12 26 5 12 25 5 14 26 5 14 25 5 14 24 4 13 23 3 12 
22 5 13 22 5 13 19 2 10 20 3 11 21 4 14 22 5 13 21 3 15 23 5 17 23 5 19 22 3 22 24 5 24 24 5 27 23 5 27 24 6 32 24 5 33 24 5 35 22 5 37 29 8 49 29 6 48 29 8 49 31 8 50 30 9 48 32 10 49 30 9 50 28 7 38 26 6 34 30 5 34 30 6 30 29 5 27 29 6 26 46 10 24 38 7 23 29 7 19 30 7 17 32 6 15 31 6 12 31 6 12 31 6 12 33 6 13 36 7 12 34 7 12 37 8 13 39 8 13 57 16 14 57 16 14 57 16 14 43 8 12 36 7 12 35 6 11 34 7 12 35 6 11 33 6 11 35 8 13 34 7 14 33 6 11 33 6 13 33 6 11 34 7 14 33 6 13 34 7 12 34 7 12 34 7 12 33 6 11 34 7 12 37 8 12 51 12 13 59 15 14 56 15 13 47 13 14 36 7 12 36 7 11 37 8 13 37 8 12 37 7 15 37 8 13 35 8 13 38 9 13 39 8 14 38 7 12 39 8 13 39 8 13 37 8 12 40 9 14 56 16 14 57 18 13 58 17 13 58 17 13 57 16 14 59 18 14 57 15 16 33 6 13 30 5 11 28 5 13 27 6 13 26 6 15 26 5 12 26 5 14 23 3 12 24 4 13 24 4 13 
23 3 12 23 3 12 23 3 12 23 3 12 21 4 14 21 4 12 21 3 15 22 4 16 23 5 19 22 4 20 22 3 22 24 5 27 23 5 27 24 6 32 23 4 32 24 5 37 25 6 38 26 8 48 29 8 49 30 7 49 31 8 52 30 9 50 31 9 48 31 9 48 27 6 37 29 6 35 29 6 32 30 6 30 31 6 28 30 5 27 46 10 22 37 9 23 30 6 19 32 6 17 32 6 17 32 7 13 31 6 12 32 7 13 32 7 13 34 7 12 33 6 13 36 7 12 35 8 13 38 7 12 55 15 13 60 16 13 57 16 14 42 10 13 39 10 14 36 7 12 36 7 12 34 7 12 34 7 12 37 8 13 35 6 11 33 8 12 33 6 11 33 6 13 35 8 15 33 6 13 37 6 12 34 7 12 34 7 14 46 12 13 53 15 14 59 18 16 52 13 14 39 10 15 36 7 12 38 9 14 38 7 13 37 8 12 39 8 13 39 8 13 40 9 15 38 7 12 39 8 13 39 9 11 41 9 14 40 8 13 39 7 12 42 10 13 55 17 16 60 19 15 58 17 13 49 14 12 50 11 12 58 17 13 59 15 12 52 14 13 31 6 10 29 6 12 30 4 13 27 6 13 27 6 15 26 5 12 24 4 13 25 5 14 24 4 13 24 4 13 
23 3 12 23 3 12 23 3 12 23 3 12 22 5 15 21 4 12 21 3 15 22 4 16 23 5 19 23 5 21 22 3 23 24 5 25 22 4 26 24 6 32 25 7 33 25 5 40 25 6 38 29 8 49 30 9 50 31 9 48 31 8 50 30 7 49 32 10 49 30 9 48 29 5 37 26 6 34 31 7 33 30 6 32 31 7 29 29 6 26 46 10 24 36 8 22 30 6 19 32 6 17 32 6 17 30 5 11 30 5 11 32 6 15 31 6 10 33 6 11 34 7 12 37 8 13 34 7 14 33 6 11 40 11 15 54 15 10 57 16 14 58 17 15 53 13 14 40 10 12 35 8 13 36 7 11 37 8 13 34 7 12 34 7 12 36 7 12 34 8 11 37 8 13 38 9 13 36 7 12 37 8 13 38 9 11 48 12 14 57 16 12 56 16 16 45 10 14 38 5 12 37 8 13 37 8 13 36 7 12 37 8 12 38 9 14 37 6 11 39 8 14 39 8 13 40 8 11 41 9 12 41 9 14 40 8 13 41 9 12 41 9 12 57 17 15 58 19 14 56 16 14 45 10 14 42 10 13 56 15 13 58 17 15 57 16 14 34 7 12 33 6 13 31 6 12 28 5 13 26 5 12 26 3 11 26 2 15 25 4 13 24 4 13 23 3 12 25 4 13 
21 4 12 21 4 12 21 4 12 21 4 12 21 4 14 21 4 12 22 4 16 22 4 16 21 3 17 23 5 21 23 4 23 24 4 29 24 6 28 23 5 31 24 5 33 26 7 39 26 5 36 26 8 48 29 8 49 28 10 48 31 9 48 29 8 47 31 9 48 31 9 47 29 5 37 28 7 38 29 6 34 30 6 30 29 5 27 29 4 25 45 11 25 38 8 20 32 6 19 31 5 18 32 6 17 29 6 12 30 5 11 32 7 13 29 6 12 33 8 14 33 6 13 33 6 11 33 6 11 34 7 12 34 7 12 40 10 12 52 14 13 59 15 14 58 17 15 58 17 13 49 13 13 40 9 14 36 6 14 37 8 13 38 9 14 37 8 12 37 8 13 36 7 11 36 6 14 38 9 14 41 11 13 54 16 15 57 16 12 54 14 15 39 8 14 37 8 13 37 8 13 37 8 13 38 9 13 37 6 11 38 7 13 37 8 12 39 8 16 40 9 14 40 8 13 42 7 13 41 9 14 41 9 12 41 9 12 42 10 13 56 18 17 58 18 16 56 16 16 45 10 14 45 10 16 56 16 14 57 17 15 58 17 13 43 11 12 36 7 12 33 8 14 32 6 15 31 6 12 28 5 13 27 4 12 26 5 12 25 5 14 25 5 14 23 3 12 23 3 12 
23 3 14 23 3 14 20 3 13 23 3 14 24 4 15 23 3 14 22 4 16 22 4 18 22 4 16 23 5 21 23 4 23 23 4 26 24 5 27 25 5 32 25 5 33 25 4 35 23 7 36 26 8 46 30 9 50 30 9 48 29 8 49 30 9 50 30 8 47 29 8 47 26 5 36 27 6 37 29 6 34 28 5 31 29 5 29 28 5 25 47 11 23 37 9 23 28 6 19 29 5 18 29 6 16 27 4 10 28 5 13 30 5 11 31 5 14 31 6 12 29 6 12 32 5 12 33 6 13 31 6 12 32 7 13 34 7 12 36 7 12 49 13 15 55 15 15 56 16 14 58 17 15 57 16 14 51 12 13 41 11 11 38 9 14 36 7 11 38 7 13 38 9 14 37 8 13 46 12 13 58 18 16 57 16 14 48 12 12 38 7 12 36 7 11 39 8 13 38 7 12 37 8 13 37 8 12 38 7 12 38 7 12 38 9 13 41 9 14 40 8 13 40 8 11 40 9 14 43 11 14 41 9 12 44 10 11 57 17 17 57 18 13 57 16 14 45 11 12 45 10 14 56 18 15 57 18 13 58 19 14 46 12 13 37 8 13 37 8 13 33 6 13 31 6 12 31 6 12 29 6 12 27 6 13 26 5 12 23 6 12 25 4 13 24 4 13 23 3 12 
23 3 12 23 3 12 23 3 12 23 3 12 22 2 11 22 5 13 21 4 14 22 4 16 24 3 18 23 5 21 23 4 23 22 3 23 24 5 27 23 5 29 24 5 33 24 5 35 25 6 36 26 8 46 29 8 49 29 8 47 31 8 50 30 9 50 31 9 48 31 9 48 26 5 36 26 5 36 29 6 34 28 5 31 29 5 29 25 6 25 45 12 23 36 8 22 27 5 18 30 6 19 31 5 16 28 5 11 29 6 14 31 6 12 31 5 14 31 6 12 29 6 12 32 7 13 32 7 13 32 7 13 32 7 13 34 7 14 33 6 13 36 7 12 39 8 13 51 13 12 58 17 13 58 17 13 58 17 13 60 16 15 51 16 12 44 9 13 42 10 13 37 8 13 53 14 15 58 17 13 56 16 16 44 10 11 39 8 13 38 7 13 38 7 12 37 8 12 37 8 12 37 6 11 38 7 12 38 7 12 38 7 12 39 9 11 41 9 14 41 9 14 42 7 13 42 10 15 41 9 12 46 12 13 56 18 15 58 19 14 56 16 16 46 11 15 41 8 15 56 18 15 57 18 13 58 18 16 46 12 11 39 8 13 38 7 13 36 7 12 34 7 14 32 7 13 31 6 12 29 6 16 28 5 13 26 5 12 26 5 12 25 6 12 23 3 12 23 3 12 
20 3 11 24 4 13 22 5 13 22 5 13 20 3 11 23 3 12 22 5 15 22 4 16 23 5 19 23 5 21 23 4 23 23 4 26 24 5 27 23 5 31 24 6 32 25 6 36 25 6 36 26 8 46 28 7 48 29 8 47 30 8 47 30 9 50 30 8 47 30 8 47 27 6 37 26 5 36 31 6 35 28 5 31 29 5 29 27 6 25 44 11 22 36 8 22 27 5 18 29 5 18 29 6 16 26 3 9 27 4 12 28 5 11 27 6 13 30 5 11 28 5 13 31 6 10 30 7 13 31 6 12 29 7 10 33 6 13 32 7 13 33 6 13 32 5 12 45 10 16 52 12 13 51 13 12 57 17 15 58 17 15 59 15 12 57 16 14 55 15 13 56 16 14 58 17 15 49 13 13 41 9 12 39 9 11 40 8 13 38 7 13 38 7 13 39 8 13 38 9 14 38 9 13 39 8 13 40 8 11 41 9 14 41 9 12 41 8 15 41 9 12 39 9 11 43 8 14 47 13 14 59 18 16 57 18 11 54 14 14 44 9 13 44 9 13 52 13 14 57 18 13 57 18 13 49 13 15 40 8 13 41 9 14 38 9 14 36 7 12 33 6 11 35 5 13 31 6 12 30 4 13 28 5 13 26 5 12 27 4 12 26 5 12 24 4 15 25 4 13 
23 3 12 22 2 11 24 4 13 24 4 13 24 4 13 25 5 14 21 4 14 22 4 16 21 3 17 23 5 21 23 4 23 24 5 27 24 5 27 24 6 32 24 6 32 24 5 35 25 4 37 26 8 46 29 8 47 30 9 48 30 7 49 29 8 47 31 9 48 31 9 48 27 6 37 27 6 37 29 6 34 28 5 31 29 5 29 27 6 25 46 10 22 36 8 22 28 6 19 28 4 17 28 5 15 28 5 13 27 6 13 28 5 11 29 6 16 31 6 12 27 4 12 32 7 11 31 6 12 31 6 12 31 6 12 33 6 13 34 7 12 33 6 11 33 6 11 42 10 13 47 11 11 36 7 12 39 8 14 42 10 13 54 14 12 59 15 12 58 17 15 57 16 14 57 18 13 56 16 14 52 13 14 47 11 13 40 9 14 38 7 12 39 9 11 39 8 14 40 9 14 39 8 13 40 9 14 40 9 14 41 9 12 43 8 14 41 9 12 41 9 12 43 8 14 50 15 13 58 19 12 58 19 14 53 13 13 44 9 13 44 9 13 53 15 14 57 18 13 58 17 15 48 12 14 41 9 14 39 9 11 40 9 14 39 8 13 37 8 12 36 7 12 33 6 11 33 6 11 31 6 12 30 5 11 28 5 11 28 5 13 27 6 13 26 5 12 25 4 11 
23 3 12 23 3 12 22 2 11 23 3 12 23 3 12 24 4 13 21 4 14 22 4 16 23 5 19 23 5 21 23 4 23 22 3 23 23 4 26 23 5 31 24 5 33 25 6 36 26 7 37 29 8 47 29 8 51 30 9 48 31 9 48 30 7 49 31 9 48 29 7 45 29 5 37 27 6 37 29 6 34 29 5 31 29 5 29 28 5 25 46 10 22 36 8 22 27 5 18 28 4 17 28 5 15 28 5 13 28 5 13 28 5 13 31 5 16 32 5 12 30 4 13 33 6 13 31 6 12 31 6 12 31 6 12 32 5 10 33 6 11 33 6 11 36 6 14 42 10 13 47 13 12 35 8 13 38 7 12 38 7 13 41 9 12 39 8 14 49 13 13 56 16 14 57 18 13 57 18 13 59 18 14 58 19 14 56 15 13 53 15 14 47 11 13 40 8 13 40 9 14 40 9 14 40 9 14 41 9 14 44 9 15 44 7 14 45 8 15 43 8 12 50 15 13 58 19 14 58 21 15 54 14 14 46 10 12 45 10 14 52 13 14 58 19 14 58 19 12 53 15 14 43 8 12 44 10 11 41 9 12 42 7 11 38 7 12 39 8 13 36 7 12 36 7 12 33 6 11 31 4 11 31 6 12 30 5 11 28 5 11 28 5 11 27 4 12 26 5 12 
21 4 12 24 4 13 22 5 13 21 4 12 22 5 13 23 3 12 22 5 15 22 4 16 22 4 16 23 5 21 24 5 24 23 4 26 24 5 27 24 6 32 24 5 33 24 5 35 24 4 39 28 7 46 28 7 46 30 9 48 31 9 48 31 9 48 31 9 48 31 9 48 29 5 37 26 7 37 27 7 34 30 6 32 29 5 29 27 4 24 46 10 22 35 7 21 27 5 18 29 5 18 30 7 17 28 5 13 27 4 12 27 4 12 28 5 15 32 5 12 29 6 14 33 6 13 29 6 12 30 5 11 31 6 12 34 7 12 34 7 14 35 5 13 34 8 11 42 10 13 47 11 13 37 8 13 37 8 12 38 9 14 39 8 13 38 7 13 38 7 12 39 9 11 46 11 15 52 14 13 58 17 13 57 16 14 58 17 13 57 16 12 58 17 13 56 16 14 51 16 14 46 12 13 41 9 12 41 9 14 40 9 14 43 11 16 44 9 13 50 11 12 57 18 13 57 18 11 53 15 14 45 11 12 46 10 12 51 13 12 58 19 12 58 18 16 55 17 14 46 12 13 44 9 16 41 9 12 41 8 15 39 8 13 39 8 13 39 8 16 36 7 12 36 7 12 33 6 15 32 5 12 31 6 12 31 5 14 29 6 14 28 5 13 28 5 13 28 5 13 
23 3 12 23 3 12 23 3 12 23 3 12 23 3 12 21 4 12 21 4 14 21 3 15 24 3 18 23 5 21 22 3 22 23 4 26 24 5 27 23 5 31 24 5 33 24 5 35 26 5 36 26 8 46 29 8 49 31 9 48 31 9 48 31 9 48 31 9 48 31 9 47 29 5 37 26 5 36 29 6 34 29 5 31 29 5 29 28 5 25 46 10 22 36 8 22 27 5 18 28 4 17 28 5 13 28 5 13 27 6 13 26 3 11 28 5 13 29 7 10 27 6 11 31 5 14 29 6 14 30 4 13 28 5 13 31 6 12 31 4 11 31 6 12 33 6 13 42 10 13 47 11 13 33 8 12 35 6 11 38 7 13 36 7 12 37 8 12 35 8 13 37 8 13 37 8 13 37 8 12 41 9 12 43 11 12 49 14 12 57 17 15 58 17 15 58 17 13 59 18 16 58 17 15 56 16 14 55 17 14 47 11 13 42 10 15 43 8 12 54 15 16 56 19 13 47 13 14 45 10 14 46 10 10 46 9 16 55 16 11 58 19 14 56 16 14 45 11 12 43 8 12 43 8 12 43 8 12 41 9 12 41 9 14 39 9 11 38 7 12 36 7 12 34 7 12 33 6 11 32 5 12 31 6 12 30 5 11 30 4 13 27 4 12 27 4 12 28 5 13 
23 3 12 23 3 12 21 4 12 23 3 12 22 2 11 23 3 12 22 5 15 22 4 16 23 5 19 23 5 21 23 4 23 23 4 26 24 5 27 25 5 30 25 5 33 25 4 35 25 6 38 26 8 46 28 7 48 30 9 48 30 8 46 30 8 47 31 9 48 29 9 46 29 5 37 27 6 37 29 6 34 29 5 31 29 5 29 27 6 25 44 11 22 37 9 23 28 6 19 27 3 16 28 5 13 28 5 11 27 4 12 27 4 12 28 5 11 28 6 9 27 4 12 31 6 12 27 4 10 30 5 11 29 6 12 29 6 12 33 8 14 32 7 13 33 8 14 41 9 12 49 10 13 34 7 12 37 8 13 37 8 13 38 7 13 37 8 13 37 8 13 37 8 13 37 8 13 37 6 11 39 7 12 38 7 13 39 8 13 39 9 11 46 12 13 51 13 12 59 18 14 58 17 13 59 18 14 58 19 14 58 19 14 57 18 13 57 17 15 56 18 15 53 15 14 46 12 13 48 9 14 46 10 12 50 14 14 58 19 12 58 19 14 47 11 13 45 11 12 46 10 14 45 10 14 42 10 13 43 8 12 43 11 16 40 8 13 39 8 13 39 8 13 36 7 12 35 6 11 33 6 13 32 5 12 31 6 12 30 5 9 32 7 13 28 5 11 29 6 14 
21 4 12 22 2 11 22 2 11 24 4 13 23 3 12 23 3 12 20 3 13 24 4 16 22 4 18 23 5 21 23 4 23 23 4 24 24 5 27 24 4 29 24 5 33 24 5 35 25 6 38 26 8 46 29 8 47 30 9 48 31 9 48 29 8 47 31 9 48 31 9 47 28 4 36 27 7 35 30 5 34 28 5 31 28 4 28 28 5 25 44 10 24 35 7 21 27 5 18 26 4 17 27 5 17 26 5 12 25 6 12 25 4 11 27 4 12 28 5 13 27 4 12 30 5 11 27 4 12 27 4 12 27 4 12 31 5 14 31 6 12 34 4 12 30 4 13 40 10 12 45 11 12 32 7 11 35 5 13 34 7 12 36 7 12 34 7 12 36 7 12 35 6 11 37 8 13 36 7 12 38 7 12 37 8 13 38 7 13 38 7 12 37 6 11 38 7 12 38 7 12 38 7 12 49 13 13 56 15 11 58 17 13 58 17 15 58 17 13 59 18 14 58 18 16 58 19 14 56 18 15 52 13 14 57 18 13 57 18 13 57 17 15 46 10 12 44 10 11 44 9 13 44 9 13 43 8 12 41 9 12 40 8 13 40 9 14 38 7 12 36 7 11 36 7 11 34 7 12 34 7 12 31 6 10 32 5 14 32 7 13 31 6 12 29 6 12 31 5 14 
23 3 12 23 3 12 23 3 12 23 3 12 23 3 12 23 3 12 21 4 14 22 4 16 22 4 16 23 5 21 23 4 23 23 4 24 23 4 26 25 5 30 24 6 32 25 6 36 25 6 38 28 7 46 29 8 47 30 8 47 31 9 48 31 9 48 32 10 49 32 10 48 29 5 37 28 5 34 30 5 34 29 6 32 29 7 28 28 5 25 46 10 20 35 9 20 27 5 18 27 5 17 28 5 15 27 6 11 26 5 10 26 5 12 27 4 10 28 5 13 27 4 12 29 6 12 28 5 13 28 5 13 27 6 13 29 6 14 29 6 12 31 6 12 31 6 10 41 9 14 45 10 14 31 6 10 34 7 12 34 7 14 36 6 14 33 6 11 35 6 10 33 8 12 36 5 11 36 7 12 36 7 12 37 8 13 35 8 13 38 9 14 37 6 12 37 8 12 38 7 13 39 8 13 40 8 13 40 8 13 53 15 14 50 15 13 52 13 14 57 18 13 59 20 15 57 18 13 58 19 12 57 20 14 59 20 15 58 19 12 53 15 12 52 14 13 48 12 14 44 9 13 44 9 13 42 10 13 41 9 14 40 8 13 41 9 14 38 5 12 39 8 13 37 8 12 38 7 13 34 7 12 34 7 12 34 7 14 33 6 15 31 6 12 31 5 14 31 6 10 
23 3 12 23 3 12 23 3 12 23 3 12 23 3 12 23 3 12 21 4 14 22 4 16 22 4 18 23 5 21 23 4 23 23 4 24 24 5 27 24 4 29 24 5 33 23 4 34 24 5 35 28 7 46 29 8 49 30 8 47 30 8 47 30 8 47 30 8 47 30 8 46 26 5 36 27 7 35 29 6 34 29 5 29 28 4 26 28 5 25 47 11 23 35 7 21 27 7 19 27 5 17 27 5 17 27 4 12 25 4 9 25 4 9 27 4 12 27 4 12 25 6 12 28 5 11 26 5 12 27 4 12 27 4 12 28 5 13 30 5 11 31 6 12 30 5 11 40 8 13 45 10 14 31 6 12 31 6 10 32 7 13 31 6 12 33 6 13 32 5 10 34 7 14 33 6 11 33 6 11 37 8 13 34 7 12 34 7 12 36 7 12 36 7 12 37 6 14 38 9 14 38 7 12 38 7 12 39 7 12 53 15 14 45 10 14 40 8 13 42 9 16 45 10 14 49 13 13 57 18 13 58 19 14 57 18 13 58 17 15 57 17 15 58 19 14 58 19 14 58 17 13 52 13 14 49 13 13 42 7 13 39 8 13 38 7 12 40 8 13 39 7 12 37 8 12 36 7 12 36 7 12 34 7 14 34 7 12 33 8 12 32 5 10 33 6 13 34 7 14 
23 3 12 23 3 12 24 4 13 23 3 12 22 2 11 24 4 13 23 6 16 22 4 16 22 4 18 23 5 21 23 4 23 23 4 24 23 4 26 26 6 31 22 4 30 25 6 36 27 6 37 28 7 46 29 8 49 29 8 47 31 9 48 32 10 49 32 10 49 31 9 47 30 5 35 29 6 35 31 6 35 30 6 30 30 6 28 28 5 25 46 10 24 38 8 20 28 4 17 28 4 18 29 3 14 28 6 9 29 4 10 28 5 15 30 4 13 30 5 11 28 5 13 31 6 12 29 6 14 28 5 13 30 4 13 31 6 12 32 7 13 32 7 13 31 6 12 44 9 13 44 10 11 33 6 13 34 7 14 36 7 12 34 7 12 33 6 13 33 6 11 33 6 11 35 8 13 36 7 12 37 8 13 35 6 11 37 6 12 35 6 11 37 8 13 36 7 12 38 9 13 39 8 14 38 7 12 40 8 13 53 13 13 46 10 12 43 8 12 43 8 12 43 9 10 42 10 13 44 9 13 44 10 11 51 12 13 51 15 15 56 17 12 59 18 12 57 18 13 59 19 17 59 18 16 58 18 16 59 18 12 57 16 14 51 12 13 50 11 14 40 8 13 38 9 14 38 9 13 37 8 12 36 7 11 36 7 12 36 5 11 33 6 13 35 6 11 32 5 10 
23 3 12 23 3 12 23 3 12 22 2 11 23 3 12 23 3 12 21 4 14 22 4 16 22 4 18 23 5 21 22 3 22 24 5 25 23 4 26 24 4 29 25 7 33 24 5 35 25 4 35 28 7 46 30 7 49 31 9 48 31 9 48 30 9 48 31 9 48 30 8 46 29 5 37 26 5 36 29 6 32 30 6 30 29 5 29 28 4 26 47 11 23 35 7 21 30 6 22 29 6 16 27 6 15 28 5 11 26 5 12 27 4 12 27 6 13 28 5 13 30 4 13 32 5 12 27 4 12 25 2 10 27 4 12 28 5 13 31 6 12 29 6 12 31 6 12 40 9 14 42 10 13 31 6 12 32 5 12 33 6 13 32 5 12 31 6 12 33 6 13 32 5 12 33 6 13 33 6 13 33 6 11 34 7 12 33 8 12 34 7 12 35 6 11 33 6 11 36 7 11 36 7 12 40 8 13 36 7 12 52 13 14 43 8 12 41 9 14 40 8 11 41 9 14 40 8 11 42 10 13 41 9 14 41 9 12 42 10 13 41 9 12 42 10 15 50 14 14 52 14 11 58 19 14 59 18 16 58 17 15 60 16 15 58 17 13 58 17 13 59 17 18 55 14 12 50 11 12 46 12 11 35 6 10 36 6 14 34 7 12 36 7 12 33 6 11 36 7 12 
23 3 12 24 4 13 23 3 12 23 3 12 23 3 12 23 3 12 22 5 15 22 4 16 22 4 18 23 5 21 23 4 23 23 4 24 24 5 27 25 5 30 23 4 32 24 5 35 24 5 35 29 8 47 32 7 49 31 9 48 32 10 49 31 10 49 31 9 48 31 9 47 27 7 35 28 4 36 29 4 33 30 6 30 30 5 27 29 4 25 46 10 22 36 8 23 28 4 17 28 5 15 31 5 16 27 4 12 28 5 13 26 5 12 28 5 13 28 5 11 28 5 13 30 5 11 29 3 12 28 5 13 27 4 12 30 5 11 31 6 12 31 5 14 31 6 12 41 9 14 43 8 12 31 6 12 31 6 12 31 6 12 31 6 12 31 6 12 31 6 12 31 6 12 31 6 12 32 5 12 33 6 11 33 6 13 33 6 13 33 6 11 35 9 12 35 6 11 34 5 10 36 7 12 37 6 12 36 7 11 51 12 13 43 8 12 39 8 13 40 8 13 41 9 14 40 8 13 39 9 11 41 9 14 42 10 13 44 8 12 40 8 13 41 9 10 40 8 11 43 8 14 40 8 13 44 9 13 47 11 13 52 14 11 57 16 14 57 16 14 57 17 15 58 17 13 58 17 13 57 16 10 58 17 15 56 14 15 48 14 15 45 11 12 37 8 12 37 8 13 
23 3 12 21 4 12 22 2 11 23 3 12 23 3 12 23 3 12 23 3 14 23 5 17 22 4 16 23 5 21 23 4 23 23 4 24 23 4 26 24 4 29 24 6 32 25 6 36 25 6 36 29 8 47 28 7 46 30 8 47 31 9 48 31 9 48 30 8 47 31 9 48 29 6 35 27 7 35 29 6 34 32 7 29 29 5 27 27 4 24 46 10 24 36 8 20 28 6 19 30 7 15 29 6 14 28 5 11 26 5 12 26 5 10 26 5 14 28 5 13 26 5 14 31 6 12 28 5 13 28 5 13 27 4 12 28 5 11 28 5 11 31 5 14 28 5 11 40 9 14 40 8 13 27 4 10 29 6 12 29 6 12 32 7 13 29 6 12 28 5 11 28 5 11 30 7 13 32 7 13 32 7 11 31 6 12 32 7 13 32 5 10 31 6 12 33 6 11 35 6 11 34 7 12 34 7 14 33 6 11 48 12 14 39 8 13 38 7 13 37 8 12 41 9 14 38 9 13 37 6 11 39 8 13 38 7 12 41 9 14 40 9 14 39 9 11 40 8 13 39 8 13 38 7 12 38 9 14 38 7 12 39 9 11 38 7 12 42 12 14 54 14 14 56 15 13 56 15 13 58 17 13 58 17 13 56 16 14 58 17 15 58 17 13 57 16 12 57 16 12 
24 4 13 20 3 11 23 3 12 23 3 12 22 2 11 23 3 12 23 3 14 22 4 16 22 4 18 23 5 21 23 4 23 23 4 24 24 5 27 24 4 29 24 5 33 24 5 35 24 5 35 28 7 46 30 8 47 31 9 48 31 9 48 31 9 48 32 7 47 33 8 48 45 11 35 45 10 32 47 12 32 47 12 32 48 11 28 45 11 27 53 13 24 50 13 21 47 12 19 49 13 17 48 12 14 47 11 11 49 10 13 47 11 13 47 11 13 48 12 14 47 11 13 50 11 12 49 10 13 50 11 14 47 11 13 50 11 12 48 12 12 47 11 13 48 12 12 50 11 12 51 13 12 47 11 13 48 10 9 50 11 14 48 12 14 50 11 12 47 13 12 48 12 14 48 12 12 50 11 12 50 11 12 50 11 14 50 11 12 50 11 12 51 12 13 48 12 12 49 13 13 50 15 13 51 12 13 50 11 12 55 13 14 52 11 15 52 13 14 51 12 13 51 13 10 52 14 13 52 14 13 52 12 12 53 13 13 53 15 14 52 12 12 55 14 12 54 14 14 53 13 13 55 15 15 53 13 13 54 14 14 52 14 13 54 14 14 52 13 14 60 16 13 53 13 14 51 12 13 55 15 13 56 15 13 57 13 12 57 16 14 58 17 15 57 16 12 57 16 12 
23 3 12 23 3 12 22 2 11 24 4 13 23 3 12 23 3 12 25 5 16 22 4 16 24 3 18 23 5 21 23 4 23 23 4 24 24 5 27 25 5 30 23 5 31 25 6 36 25 6 36 28 7 46 29 8 47 30 8 47 30 8 46 30 8 47 31 8 50 30 8 47 35 6 36 32 6 35 37 7 31 36 9 28 36 7 27 34 7 26 49 12 20 39 9 21 34 6 18 33 7 16 33 6 13 35 6 11 32 5 12 33 6 11 33 6 13 36 7 12 32 7 13 35 6 11 32 5 12 32 5 12 32 7 13 33 6 13 33 6 13 34 7 12 31 6 12 41 9 14 43 8 12 32 5 12 33 6 13 35 5 13 32 5 12 31 6 12 32 5 12 32 5 12 33 6 13 32 5 10 35 6 11 34 4 12 33 6 13 33 6 13 36 7 12 33 6 11 36 7 11 36 5 10 39 7 12 36 7 12 50 12 11 44 9 13 39 8 13 38 6 11 39 7 12 41 9 14 40 8 13 40 8 13 40 8 13 41 9 14 40 8 11 40 8 11 40 8 13 40 8 11 41 9 12 41 9 14 44 9 13 43 8 12 44 8 12 43 8 14 54 16 15 43 11 12 41 9 12 43 8 12 43 8 12 43 8 12 41 9 14 42 10 13 44 10 11 50 11 12 
23 3 12 23 3 12 22 2 11 22 2 11 22 2 11 23 3 12 24 4 15 22 4 16 24 3 18 23 5 21 23 4 23 23 4 24 24 5 27 23 3 28 24 6 32 26 7 37 25 6 36 29 8 47 29 8 49 31 9 48 30 8 46 31 9 48 31 9 48 31 9 48 27 6 37 27 7 35 30 6 32 26 7 29 30 7 27 29 6 26 44 11 22 36 10 23 28 6 18 28 5 15 28 5 13 27 4 10 27 4 12 28 5 13 27 4 12 30 4 13 26 5 12 31 6 12 27 4 10 30 4 13 26 5 10 28 5 13 28 7 12 28 5 11 27 6 11 39 8 13 39 8 13 28 5 11 31 6 10 30 5 11 30 5 11 28 5 13 28 5 11 28 5 13 27 4 10 29 6 12 30 5 11 32 5 12 31 5 14 29 6 12 30 5 11 31 6 12 33 6 11 33 6 11 33 6 11 33 6 13 48 12 12 38 9 13 33 6 11 34 5 10 34 7 12 35 6 11 34 8 11 35 6 11 34 7 12 36 6 14 33 6 11 36 7 12 35 6 11 34 7 12 36 7 12 35 6 11 37 6 12 36 7 11 38 9 14 37 8 13 49 14 12 41 9 12 36 7 12 36 7 11 37 6 11 36 7 12 34 7 12 36 7 9 36 7 12 36 7 12 
23 3 12 23 3 12 23 3 12 22 2 11 24 4 13 23 3 12 24 4 15 22 4 16 23 2 17 23 5 21 23 4 23 23 4 24 24 5 27 25 5 30 24 6 32 24 5 35 25 6 36 28 7 46 29 8 47 31 9 47 31 9 47 31 9 48 31 9 47 31 9 47 29 6 35 27 7 35 30 6 32 29 5 29 30 5 27 29 6 26 46 10 22 35 7 22 27 5 18 29 5 18 28 5 15 28 5 13 25 4 11 27 4 12 28 5 13 28 5 13 26 5 12 30 5 11 28 5 11 27 4 12 25 4 11 28 5 13 28 5 11 29 6 12 27 4 12 38 7 12 39 8 13 27 4 10 28 5 11 28 5 13 30 5 11 28 5 15 27 4 12 27 4 12 27 4 12 29 4 10 29 6 12 28 5 13 27 4 12 28 5 13 29 6 12 31 4 11 32 5 12 31 6 12 33 6 13 33 6 13 47 11 13 36 7 12 33 6 11 33 8 12 34 7 14 34 7 14 32 5 12 31 6 12 33 6 11 34 7 12 33 6 11 33 6 13 34 7 12 33 6 11 32 5 12 33 6 13 37 8 13 36 7 12 36 7 12 34 7 12 50 11 12 41 9 14 36 7 12 36 7 11 35 6 10 36 7 12 36 7 12 36 7 9 36 7 12 36 7 12 
24 4 13 23 3 12 23 3 12 22 2 11 23 3 12 23 3 12 24 4 15 22 4 16 24 3 18 22 4 20 22 3 22 23 4 24 24 5 27 25 5 30 23 5 31 25 6 36 25 6 36 28 7 48 29 8 49 31 9 48 31 9 47 30 8 47 30 8 46 30 8 46 28 5 34 27 7 35 30 6 32 30 6 30 30 6 28 29 6 26 47 11 21 36 8 22 29 5 18 29 6 16 28 5 13 30 5 11 28 5 13 27 4 10 28 5 13 30 5 11 26 5 12 30 5 11 27 4 10 27 4 10 27 6 13 28 5 11 28 5 11 30 5 11 30 5 11 39 8 13 39 7 12 27 4 10 30 5 11 28 5 11 31 6 12 28 5 13 28 5 13 28 5 13 27 4 12 28 5 13 28 5 13 28 5 13 28 5 13 28 5 13 30 5 11 27 4 10 29 4 10 30 5 11 32 7 11 30 5 11 47 11 13 36 7 12 33 6 11 32 5 12 32 6 9 32 5 12 32 5 12 33 6 13 32 5 12 33 6 11 32 5 12 32 5 10 33 6 13 33 6 13 33 6 11 33 6 13 35 6 11 36 7 12 34 7 12 36 7 11 50 11 12 40 8 13 35 4 10 36 7 12 34 7 12 35 6 11 33 6 11 33 6 11 35 8 13 36 7 12 
22 2 11 22 2 11 23 3 12 23 3 12 24 4 13 22 2 11 23 3 14 21 3 15 24 3 18 22 4 20 23 4 23 22 3 23 24 5 27 24 4 29 24 6 32 24 5 35 24 5 35 28 7 46 29 8 49 30 8 47 31 9 47 30 8 47 30 8 46 30 8 46 26 5 36 27 7 35 28 5 31 29 5 29 29 5 27 27 4 22 46 10 24 36 8 22 27 5 18 29 5 18 28 4 17 27 4 12 25 4 13 27 4 10 27 4 14 27 4 12 25 4 11 30 5 11 28 5 13 27 4 12 26 3 11 27 4 12 28 5 13 28 5 11 28 5 13 38 7 12 39 8 13 28 5 13 28 5 13 28 5 13 27 4 10 26 3 11 27 4 12 26 5 14 27 4 12 26 5 12 28 5 13 28 5 13 27 4 14 26 3 11 28 5 13 27 6 13 28 5 11 28 5 13 30 5 11 27 4 12 46 10 12 35 6 11 32 7 13 30 5 11 30 5 11 32 5 12 28 5 11 30 5 11 30 5 11 31 6 12 31 6 12 33 6 13 32 5 12 31 6 12 32 5 12 32 5 12 34 8 11 33 6 13 32 7 11 32 5 12 50 11 14 38 7 12 34 7 12 32 5 10 31 6 10 32 5 10 31 6 12 32 7 13 33 6 11 33 6 11 
22 2 11 23 3 12 23 3 12 23 3 12 22 2 11 22 2 11 23 3 14 21 3 15 24 3 18 23 5 21 22 3 22 23 4 24 23 4 26 24 4 29 24 6 32 25 6 36 24 5 37 28 7 46 28 7 48 31 9 48 30 8 47 31 9 48 30 8 47 31 9 47 29 5 37 27 7 35 28 5 31 29 5 29 28 4 26 26 5 24 47 11 23 35 7 21 27 5 18 28 4 17 28 5 15 27 4 12 26 5 14 25 4 13 26 5 14 27 4 12 26 5 12 27 4 12 26 5 12 26 5 12 25 4 11 28 5 13 27 4 12 28 5 13 27 4 12 37 8 12 39 8 13 25 4 11 27 4 12 26 5 12 26 3 9 25 4 11 26 3 11 24 3 10 27 4 12 25 4 11 28 5 13 26 5 12 25 4 11 25 4 11 24 3 10 25 4 11 28 5 11 26 5 12 27 4 10 27 4 12 46 10 12 33 6 11 27 4 10 29 6 14 30 5 11 28 5 13 27 6 13 28 5 13 30 4 13 30 7 13 30 5 11 31 6 12 31 6 12 31 5 14 31 6 12 30 5 11 32 5 12 31 6 12 33 6 11 31 6 12 47 11 11 38 7 12 31 6 12 32 5 12 33 6 11 33 6 13 30 5 9 30 5 11 32 7 13 31 6 10 
23 3 12 23 3 12 24 4 13 23 3 12 25 5 14 24 4 13 23 3 14 21 3 15 23 2 17 23 5 21 23 4 23 23 4 24 24 5 27 24 4 29 23 5 31 24 5 35 25 6 34 28 7 46 29 8 49 31 9 48 30 8 46 30 8 46 31 9 48 30 8 46 29 5 37 26 5 36 29 5 29 29 4 33 29 5 27 27 6 25 47 11 23 34 8 21 27 5 18 28 4 17 27 6 15 25 4 11 25 4 11 26 5 12 25 4 11 26 3 11 25 4 11 28 5 11 25 4 9 26 5 12 26 5 12 26 5 12 28 5 13 29 4 10 27 4 12 38 7 12 38 7 12 27 6 13 29 3 12 26 5 12 27 6 11 25 4 11 26 5 12 25 4 11 25 4 11 26 7 13 26 3 11 25 4 11 26 5 12 25 6 12 27 6 13 27 6 13 26 3 9 26 5 12 27 4 10 27 6 13 45 11 12 31 6 12 28 5 13 27 4 12 28 5 11 26 3 11 28 5 13 28 5 13 27 4 12 29 4 10 30 5 11 30 4 13 28 5 13 28 5 13 30 5 11 28 5 11 31 6 12 31 6 12 32 5 12 32 7 13 48 12 14 38 7 13 31 6 12 31 6 12 32 5 12 30 5 11 32 7 13 31 5 14 31 6 12 31 6 10 
23 3 12 22 2 11 23 3 12 22 2 11 23 3 12 23 3 12 22 2 13 21 3 15 24 3 18 23 5 21 23 4 23 23 4 24 24 5 27 24 4 29 23 5 31 24 5 35 25 6 34 28 7 46 29 8 47 30 8 47 30 8 46 30 8 47 31 9 47 30 8 46 26 6 34 26 7 35 30 7 33 28 5 31 28 4 26 25 6 25 46 10 22 35 7 21 28 4 17 27 6 15 27 6 13 27 4 10 26 5 12 25 4 9 26 5 12 26 3 9 25 4 11 28 5 11 26 5 10 25 4 11 25 4 11 27 4 12 28 5 13 27 4 10 27 4 12 37 8 12 38 8 10 25 4 11 27 4 12 26 5 10 26 5 10 25 4 11 26 5 12 26 5 12 25 4 11 26 5 12 26 3 11 25 4 11 27 6 13 24 5 11 26 3 11 25 4 11 28 5 11 27 4 12 28 5 13 26 5 12 44 10 11 31 6 12 27 4 12 28 5 13 28 5 11 28 5 13 27 4 12 27 4 12 27 4 12 30 4 13 28 5 13 28 5 11 28 5 13 28 5 13 28 5 11 28 5 13 31 6 12 28 5 13 31 6 12 30 5 11 47 11 13 38 7 13 31 6 12 30 5 11 29 6 12 31 6 12 30 5 11 30 5 11 31 6 12 31 6 10 
23 3 12 23 3 12 23 3 12 22 2 11 24 4 13 24 4 13 23 3 14 21 3 15 22 4 16 23 5 21 23 4 23 23 4 24 24 5 27 24 4 29 24 4 31 27 6 37 25 4 35 26 8 46 29 7 46 31 9 47 31 9 47 31 9 47 31 9 47 30 8 46 29 6 35 28 5 34 30 6 30 30 6 30 29 5 27 28 5 25 46 10 20 35 7 21 28 4 17 29 6 16 28 5 13 27 4 10 26 3 11 27 4 10 27 4 10 30 5 11 26 5 12 31 6 12 26 3 11 27 4 12 26 5 12 27 4 10 27 4 10 28 6 9 28 5 13 38 8 10 42 7 13 28 5 11 28 5 13 28 5 13 29 6 12 27 4 12 26 5 10 26 5 12 27 4 12 28 5 11 28 5 11 27 6 13 27 4 12 25 4 11 27 4 12 26 3 11 30 5 11 27 4 10 28 5 11 28 5 11 46 10 12 32 7 10 28 5 11 26 3 9 27 4 10 27 4 10 29 3 12 30 5 11 27 4 12 28 5 11 28 5 11 31 5 14 28 5 11 28 5 13 27 4 10 27 4 12 31 6 12 31 6 12 30 5 11 29 6 12 47 13 14 38 7 13 33 6 11 33 6 11 32 7 11 32 5 10 30 5 9 30 5 11 31 6 9 31 4 9 
23 3 12 23 3 12 23 3 12 22 2 11 23 3 12 23 3 12 24 4 15 21 3 15 22 4 16 22 4 20 23 4 23 24 5 25 23 4 26 24 4 29 24 4 31 25 4 35 26 5 36 28 7 46 30 8 47 31 9 47 31 9 47 30 8 46 31 9 47 30 8 46 29 5 37 26 6 34 29 7 30 29 5 29 29 5 29 27 3 25 46 10 22 35 7 21 27 5 17 28 5 15 28 5 13 27 4 10 28 5 13 26 5 10 27 4 10 27 4 12 25 4 11 30 5 11 27 4 12 27 4 12 26 5 12 27 4 12 27 4 12 28 5 13 28 5 11 39 9 11 39 8 13 27 4 12 26 3 9 26 3 11 27 4 10 26 5 12 26 3 11 26 5 12 27 4 12 26 5 12 28 5 13 26 3 11 27 4 12 25 4 11 26 3 11 27 4 12 27 4 10 27 4 12 28 5 11 27 4 12 44 10 11 31 6 10 27 4 10 28 5 11 29 6 12 27 4 12 25 4 11 25 4 11 27 4 12 27 4 10 28 5 13 27 4 12 28 5 13 28 5 13 28 5 13 27 4 12 30 5 11 28 5 11 31 4 11 28 5 13 45 11 12 36 7 12 31 6 12 32 5 12 31 6 12 32 5 12 31 6 12 31 4 11 30 5 11 32 5 14 
23 3 12 23 3 12 22 2 11 24 4 13 23 3 12 23 3 12 24 4 15 21 3 15 21 3 17 22 4 20 23 4 23 23 4 24 24 5 27 23 3 28 25 5 32 26 6 34 24 5 35 29 7 46 30 8 47 31 9 47 31 9 47 30 8 47 34 9 48 30 8 46 28 5 34 28 5 34 30 6 32 28 4 28 29 5 27 28 5 25 45 9 21 34 6 20 28 4 17 28 5 15 28 5 13 27 6 11 27 4 10 26 3 9 28 5 11 27 4 10 25 4 11 29 4 10 27 4 12 27 4 12 25 4 11 28 5 11 27 4 10 27 4 10 28 5 11 37 8 12 40 8 13 26 5 14 27 4 10 28 5 13 28 5 11 26 5 12 27 4 12 27 4 12 27 4 12 26 4 7 27 4 10 27 4 12 26 5 12 27 4 12 27 4 12 26 3 11 29 4 10 28 5 13 27 4 10 27 4 12 45 11 12 30 5 9 27 6 11 27 4 10 27 4 10 27 4 12 27 4 12 26 3 11 26 3 9 28 5 11 28 5 13 29 6 14 28 5 13 26 5 12 28 5 11 28 5 13 30 5 11 29 6 12 30 4 13 27 4 12 47 11 13 35 6 11 30 5 11 30 5 11 30 5 11 30 5 11 28 5 11 28 5 11 30 5 9 30 5 11 
22 2 11 23 3 12 24 4 13 23 3 12 23 3 12 24 4 13 23 3 14 21 3 15 22 4 18 23 5 21 22 3 22 23 4 24 24 5 27 24 4 29 24 4 31 25 5 33 25 6 36 28 6 45 29 9 46 30 8 47 30 8 47 29 9 46 33 8 48 30 8 46 27 7 35 27 7 35 28 4 30 31 5 30 29 5 27 28 5 25 46 10 22 34 6 20 27 5 18 27 6 15 29 6 14 28 5 13 26 3 11 27 4 10 27 4 10 27 4 12 24 5 9 28 5 11 27 4 12 26 5 12 27 6 13 28 5 13 29 6 12 27 4 10 28 5 13 39 8 13 39 8 13 29 3 12 28 5 13 25 4 11 27 4 12 26 3 11 26 5 12 26 3 11 27 4 12 27 4 10 28 5 11 28 7 14 26 3 11 26 3 11 25 4 11 26 3 11 30 4 13 27 4 12 28 5 11 28 5 13 46 10 12 33 6 11 30 5 11 28 5 11 27 4 10 27 4 12 27 4 12 27 4 12 27 4 12 27 4 10 27 4 12 27 4 12 28 5 13 26 5 12 27 4 12 28 5 13 28 5 13 27 4 12 30 5 11 27 4 10 48 9 10 33 7 10 30 5 11 28 5 11 29 4 10 30 5 11 28 5 11 27 4 10 28 5 11 31 6 12 
23 3 12 23 3 12 23 3 12 23 3 12 22 2 11 23 3 12 23 3 14 22 4 16 22 4 16 23 5 21 22 3 22 23 4 24 24 5 27 22 2 27 25 5 32 24 3 34 24 5 35 28 6 45 29 8 47 30 8 46 31 9 47 29 8 47 33 8 48 30 8 46 26 6 34 27 7 35 29 6 32 28 4 28 29 5 27 26 5 24 47 11 23 34 6 20 26 6 18 27 5 17 28 5 15 27 4 10 25 4 11 26 5 12 29 3 12 27 4 12 25 4 11 30 5 11 27 4 12 25 4 11 24 3 10 27 4 12 27 4 12 27 4 12 26 5 12 37 8 12 38 7 12 25 4 11 26 3 11 27 4 12 27 4 12 25 4 11 26 5 12 25 4 11 25 4 11 25 4 11 25 4 11 25 4 11 26 5 12 25 4 11 25 4 11 25 4 11 28 5 11 26 3 11 29 4 10 26 5 14 44 10 11 31 6 12 27 4 12 27 4 12 28 5 11 26 5 12 25 4 11 25 4 11 26 5 12 27 4 12 26 5 12 26 5 12 26 3 11 25 4 11 25 4 11 25 4 11 27 4 12 27 4 12 28 5 11 26 3 11 44 10 11 33 6 11 26 5 10 27 4 10 27 4 10 27 4 12 26 5 12 29 3 12 27 4 12 27 4 12 
23 3 12 23 3 12 23 3 12 22 2 11 21 1 10 23 3 12 23 3 14 22 4 16 23 5 17 22 4 20 22 3 22 23 4 24 23 4 26 24 4 29 25 5 32 25 4 35 25 5 33 28 8 45 29 8 47 30 8 47 30 8 47 30 9 48 31 9 47 33 8 47 28 5 34 28 5 34 29 6 32 29 7 30 29 5 27 27 4 24 46 10 22 35 7 21 28 6 19 28 7 16 28 5 13 26 3 11 26 5 12 26 5 10 26 3 9 28 5 13 25 4 11 29 6 12 27 4 12 24 3 10 26 5 12 27 4 12 28 5 13 30 4 13 27 4 12 37 8 12 39 8 13 26 5 12 27 4 12 27 4 12 28 5 13 26 5 12 26 3 11 25 4 11 27 4 12 26 5 12 28 5 11 26 5 12 26 3 11 25 4 11 27 4 12 27 4 12 27 6 13 27 4 12 27 4 12 26 3 11 45 10 14 30 5 11 27 4 12 27 4 12 29 6 12 26 3 11 26 5 12 26 5 12 27 4 12 28 5 13 26 5 12 26 3 11 28 5 13 26 5 12 27 6 11 26 5 12 28 5 11 27 4 10 28 5 11 28 5 13 46 10 12 33 6 11 28 5 11 26 3 9 27 4 10 27 4 10 27 4 12 25 6 12 29 6 14 28 5 11 
22 2 11 23 3 12 22 2 11 21 1 10 23 3 12 22 2 11 23 3 14 21 3 15 22 4 16 22 4 20 23 4 23 23 4 24 24 5 27 25 5 30 24 4 31 26 5 36 25 4 35 28 8 45 29 8 47 31 9 47 32 10 48 29 8 47 31 9 47 30 8 47 28 4 36 26 6 34 29 6 32 29 5 29 28 4 26 28 4 26 45 9 23 36 8 20 27 5 17 28 6 18 30 4 15 26 3 9 25 4 11 25 4 11 26 5 12 26 3 9 25 4 9 28 5 11 25 4 11 26 5 12 25 4 11 26 5 12 27 4 12 25 2 10 26 5 12 36 7 11 38 7 12 25 4 13 28 5 11 27 4 12 26 3 11 25 4 11 26 5 12 26 5 12 26 3 11 26 3 11 28 5 13 27 4 12 25 4 9 26 5 12 25 4 11 25 4 11 27 4 10 27 4 12 27 4 10 26 3 11 45 11 12 31 6 10 28 5 13 27 4 12 27 4 10 25 2 10 26 5 12 25 4 11 25 4 11 26 5 12 26 5 12 27 4 12 26 5 12 25 4 11 25 4 11 26 5 12 28 5 11 27 4 10 28 5 11 25 4 11 46 10 12 33 6 13 27 4 12 27 6 13 26 3 11 27 4 12 26 5 12 27 4 12 25 4 9 26 5 10 
23 3 12 23 3 12 23 3 12 23 3 12 23 3 12 23 3 12 24 4 15 21 3 15 23 5 19 23 5 21 23 4 23 23 4 24 24 5 27 24 4 29 23 3 30 25 5 33 25 5 33 28 8 45 28 7 46 31 9 47 31 9 48 30 9 48 31 9 47 30 8 46 28 5 34 28 5 34 30 6 32 30 4 29 31 6 28 29 4 25 46 10 22 35 9 20 31 7 20 28 5 15 28 5 13 28 5 11 27 4 10 28 5 11 28 5 11 30 5 11 27 4 12 31 6 12 28 5 13 27 4 10 27 4 10 28 5 11 29 4 10 30 5 11 29 4 10 39 8 13 40 8 11 28 6 9 30 5 11 30 5 11 30 5 11 27 4 12 28 5 13 29 4 10 27 4 10 28 5 11 30 5 11 27 4 10 28 5 11 27 4 10 27 4 10 26 5 10 30 5 11 30 5 11 31 6 12 28 5 11 44 8 10 35 6 11 31 6 12 30 5 11 31 6 12 28 5 11 27 4 12 27 4 10 27 4 12 29 4 10 28 5 11 30 4 13 28 5 11 29 3 12 27 4 10 28 5 13 30 5 11 31 6 12 31 6 12 28 5 11 47 11 11 35 6 11 29 4 10 30 5 11 30 5 11 30 5 9 27 4 12 30 5 11 30 5 11 29 4 10 
23 3 12 23 3 12 22 2 11 23 3 12 23 3 12 23 3 12 23 3 14 21 3 15 21 3 15 22 4 20 22 4 20 24 5 25 24 5 25 23 3 28 24 4 31 25 6 36 25 4 35 27 6 45 28 7 46 30 8 47 31 9 47 31 9 48 30 8 46 30 8 46 28 5 34 28 5 34 30 4 31 29 4 26 30 4 29 29 6 24 44 11 22 35 7 21 28 4 18 28 4 17 28 5 13 26 3 11 27 4 12 29 3 12 27 4 12 30 5 11 26 5 12 30 5 11 28 5 11 28 5 13 27 4 10 28 5 11 28 5 11 28 5 11 27 4 10 38 7 12 39 8 13 26 5 10 26 3 11 27 4 10 27 4 10 26 5 12 27 4 12 26 5 12 28 5 11 28 5 11 28 5 11 28 5 11 29 3 12 27 4 12 30 4 13 27 4 12 30 5 11 27 5 8 29 4 10 27 4 12 45 11 12 33 6 13 26 5 10 28 5 11 31 6 12 27 4 10 27 4 12 26 5 12 27 4 10 28 5 11 27 4 10 28 5 11 30 4 13 26 5 12 28 5 13 26 3 11 28 5 11 27 4 10 29 6 12 26 5 10 45 11 12 33 6 11 28 5 13 28 5 11 28 6 9 28 5 11 26 3 11 25 4 11 27 4 10 27 5 8 
24 4 13 23 3 12 23 3 12 23 3 12 23 3 12 23 3 12 24 4 15 21 3 15 23 5 17 22 4 20 22 4 20 23 4 24 24 5 25 24 4 29 24 4 31 25 6 36 23 4 34 28 8 45 28 8 45 30 8 47 31 9 47 29 8 49 31 9 47 33 8 47 29 4 34 28 5 33 29 5 31 30 4 29 31 6 27 29 4 25 47 11 23 36 8 22 29 5 18 29 6 16 31 4 13 29 4 10 28 5 11 27 4 10 28 5 13 30 5 11 28 5 13 30 5 11 27 4 12 27 4 10 27 4 12 30 5 11 31 6 12 30 5 11 27 4 10 39 8 13 40 8 13 27 5 8 29 6 12 30 5 11 30 4 13 28 5 11 28 5 11 27 4 10 28 5 11 28 5 11 30 5 11 29 4 10 29 6 12 29 4 10 26 3 11 29 4 10 30 5 11 29 4 10 30 5 11 29 4 10 46 10 12 33 6 11 30 5 11 30 5 11 29 6 12 29 4 10 30 5 11 27 4 10 27 6 11 30 5 11 30 5 11 31 6 12 30 5 11 28 5 13 28 5 11 27 4 12 30 5 9 27 4 10 30 5 11 30 5 11 46 10 12 32 7 11 31 5 14 29 4 10 28 5 11 27 4 10 28 5 11 27 6 11 30 5 11 28 5 11 
23 3 12 23 3 12 23 3 12 22 2 11 24 4 13 23 3 12 23 3 14 23 5 17 24 4 16 24 3 20 23 5 21 24 5 25 24 5 25 24 4 29 24 4 31 25 4 35 25 4 35 28 8 45 29 7 46 30 8 46 30 8 46 30 8 46 30 8 46 32 8 44 29 6 35 29 6 34 30 4 31 29 5 29 29 6 26 29 4 25 46 10 22 35 9 22 28 4 17 29 6 16 29 6 16 27 4 10 27 4 10 27 4 10 27 4 10 27 4 10 26 5 12 30 5 11 28 5 11 27 4 12 27 4 10 28 6 9 28 5 11 30 5 11 28 5 11 37 8 12 42 7 13 26 5 10 28 5 13 28 5 11 27 4 10 27 4 10 27 4 12 26 5 12 26 5 12 26 3 11 28 5 13 27 4 12 26 5 12 28 5 13 27 4 12 27 4 10 30 5 11 28 5 11 30 4 13 27 4 10 44 10 9 31 6 12 28 5 11 28 5 11 28 5 11 27 4 10 27 4 12 27 4 12 27 4 10 28 5 11 28 5 13 27 4 10 28 5 13 26 5 12 28 5 13 27 4 12 28 5 11 27 4 12 28 5 11 27 4 10 47 11 13 32 5 10 28 5 11 27 4 10 31 4 11 26 3 9 27 4 10 29 4 10 28 5 11 28 5 11 
23 3 12 23 3 12 23 3 12 22 2 11 24 4 13 23 3 12 23 3 14 22 4 16 24 4 16 24 3 20 23 5 21 23 4 24 24 5 25 24 4 29 25 5 32 26 5 36 24 5 35 28 8 45 28 7 46 31 9 47 30 8 46 31 9 47 33 8 47 33 9 45 44 10 34 45 10 34 49 11 32 45 12 31 47 10 27 43 11 22 52 12 21 50 10 21 47 12 19 48 13 17 47 11 15 47 11 13 45 11 12 46 10 12 45 10 14 48 12 14 44 10 11 46 12 13 45 10 14 46 10 12 45 11 12 46 12 13 46 12 13 47 11 13 46 12 13 49 11 10 51 11 11 45 11 10 46 12 13 46 10 12 46 12 13 45 10 14 45 11 12 45 11 12 46 12 13 45 11 12 46 10 12 45 11 12 45 11 12 45 11 12 45 11 12 43 11 14 46 12 13 47 11 15 46 12 13 45 11 12 54 12 13 49 10 11 47 11 13 46 10 12 47 11 13 46 10 10 45 11 12 44 10 11 45 11 10 46 10 10 46 12 13 47 11 11 46 10 12 45 11 12 45 11 12 45 11 12 47 11 11 45 11 12 46 12 13 45 9 11 52 12 10 47 11 11 46 12 13 47 11 13 46 10 12 47 11 13 45 11 12 46 10 12 45 11 12 46 12 10 
23 3 12 23 3 12 23 3 12 23 3 12 23 3 12 23 3 12 24 4 15 21 3 15 24 4 16 25 4 21 22 4 20 22 3 23 23 4 24 24 4 29 25 5 32 26 5 36 25 4 35 28 8 45 30 8 46 30 8 46 31 9 47 30 8 47 30 8 46 30 8 44 32 6 35 31 6 35 37 9 31 35 7 29 33 6 25 35 6 24 48 10 21 40 8 21 35 7 19 35 5 15 32 5 12 34 5 9 32 5 12 33 7 10 35 6 11 35 6 10 32 5 10 37 6 12 36 5 11 35 5 13 35 6 11 34 8 11 35 6 11 36 5 11 33 6 11 43 8 12 44 9 13 35 6 11 36 7 11 34 7 12 36 7 12 35 6 11 35 6 11 36 7 12 33 6 11 36 5 11 36 7 12 35 6 11 35 6 11 35 6 11 35 6 11 35 6 10 37 6 11 35 6 11 36 7 11 35 6 10 47 11 11 39 8 13 37 6 12 36 7 11 36 7 11 35 6 10 34 7 12 36 7 12 35 6 10 36 5 10 36 7 12 36 5 11 35 6 11 35 6 11 35 6 10 35 6 11 36 7 11 35 6 11 36 7 11 35 6 11 47 11 11 38 7 12 36 5 10 36 5 10 35 6 10 35 6 11 35 6 10 32 5 10 36 5 11 36 7 11 
22 2 11 23 3 12 22 2 11 23 3 12 23 3 12 23 3 12 23 3 14 22 4 16 24 4 16 25 4 21 22 4 20 23 4 24 23 4 24 23 3 28 25 5 32 24 3 34 24 5 35 28 8 45 30 8 46 34 8 47 33 8 47 30 8 47 33 8 47 33 7 44 28 5 34 27 7 34 30 4 31 30 5 27 29 6 26 29 4 25 46 10 22 35 7 21 28 4 17 28 5 15 30 4 13 28 5 11 27 4 12 27 4 10 27 4 12 30 5 11 26 3 11 28 5 11 28 5 13 27 4 12 28 5 11 28 5 11 29 4 10 28 5 11 30 5 11 39 7 12 39 9 11 29 4 10 28 5 11 28 5 11 28 5 11 26 5 10 29 6 12 27 6 11 28 5 11 28 5 11 27 4 10 27 4 10 27 4 10 26 5 10 28 5 11 26 3 11 31 6 12 31 6 10 28 5 11 29 4 10 45 9 11 32 5 10 30 5 11 28 5 11 28 5 11 27 4 10 29 3 12 27 4 12 27 4 10 30 5 11 28 5 11 27 4 10 27 4 10 27 4 10 27 4 10 28 5 11 30 5 11 28 5 11 30 5 11 28 5 11 45 9 9 33 6 11 28 5 13 29 4 10 27 4 12 30 5 11 27 4 10 27 4 12 27 4 10 27 4 10 
23 3 12 23 3 12 22 2 11 23 3 12 23 3 12 23 3 12 22 2 13 22 4 16 25 5 17 22 4 20 23 5 21 22 3 23 24 5 25 24 4 29 25 5 32 24 3 34 25 4 35 28 8 45 29 7 46 33 8 47 32 7 46 30 8 46 31 9 47 30 8 44 28 5 34 29 6 34 30 6 32 29 5 27 30 5 27 29 4 23 47 11 23 37 9 21 28 4 17 29 6 16 30 4 13 27 4 10 27 4 10 27 4 10 28 5 11 28 5 11 27 4 12 30 4 13 27 4 10 27 4 12 27 4 10 27 4 12 30 5 11 30 5 11 28 5 11 37 8 12 41 9 10 27 4 10 28 5 11 26 3 9 30 5 11 27 4 12 26 3 11 26 5 12 28 5 11 27 6 11 30 5 11 27 4 10 26 3 11 27 4 12 27 4 12 28 5 11 30 5 11 28 3 9 28 5 13 27 4 10 47 11 11 33 6 11 28 5 13 30 5 11 28 5 11 29 4 10 27 4 10 28 3 9 27 4 10 28 7 12 28 5 11 31 4 11 28 5 11 27 4 12 27 4 10 27 4 10 30 5 11 27 6 11 29 4 10 27 4 12 46 10 12 35 8 15 31 6 12 30 5 9 31 4 9 28 5 11 27 4 10 27 4 10 28 5 11 31 4 11 
22 2 11 24 4 13 23 3 12 23 3 12 23 3 12 24 4 13 23 3 14 23 5 17 24 4 16 23 5 21 23 5 21 23 4 24 24 5 25 24 4 29 24 4 31 25 4 35 25 6 34 28 8 45 29 7 46 32 7 46 33 8 47 33 8 47 33 8 47 30 8 46 29 6 35 30 5 34 29 5 29 30 5 27 31 6 28 28 5 25 46 10 22 36 8 22 29 5 18 28 5 15 30 4 13 30 5 11 27 4 10 29 4 10 27 4 10 30 5 11 27 4 12 30 5 11 29 4 10 29 3 12 27 4 10 30 5 11 30 5 11 31 6 12 30 5 11 38 9 11 41 9 12 27 4 12 30 5 11 30 5 11 29 4 10 27 4 12 28 5 13 27 4 12 28 5 11 27 4 10 29 4 10 27 4 10 30 4 13 27 4 12 27 4 10 27 4 10 30 5 11 28 5 11 30 5 11 28 5 11 44 10 11 35 6 11 30 5 11 29 4 10 28 5 11 31 6 12 27 4 12 27 4 12 27 4 10 30 5 11 27 4 10 30 5 11 27 4 10 27 4 12 27 4 10 28 5 11 30 5 11 29 6 12 31 6 12 30 5 11 47 11 13 35 6 11 30 5 11 31 4 11 30 5 9 30 4 13 28 5 11 28 5 11 31 6 12 30 5 11 
23 3 12 23 3 12 23 3 12 23 3 12 23 3 12 23 3 12 24 4 15 22 4 16 24 4 16 25 4 19 22 4 20 24 5 24 23 4 24 25 5 30 25 5 32 26 5 36 25 4 35 29 7 45 30 8 46 30 8 46 30 8 46 29 7 45 31 6 45 30 8 46 29 6 35 26 5 36 30 6 32 29 5 29 29 6 26 28 5 25 46 10 22 35 7 21 28 4 17 28 5 15 28 5 15 29 3 12 27 4 12 27 4 12 27 4 12 30 5 11 26 3 11 30 5 11 27 4 10 28 5 11 26 5 12 26 3 9 29 4 10 30 3 12 30 5 11 37 8 12 43 8 12 27 4 12 30 3 10 28 5 11 27 4 10 27 4 10 26 3 11 26 3 11 26 3 9 27 4 10 28 5 11 27 4 12 27 4 10 26 3 11 28 5 13 27 4 12 31 6 12 28 5 11 30 5 11 29 3 12 45 9 11 32 5 10 28 5 11 27 4 10 29 4 10 27 4 12 26 3 9 26 3 11 27 4 12 29 3 12 27 4 10 29 4 10 27 4 10 27 4 10 27 4 10 27 4 12 30 5 11 28 5 11 30 5 11 26 5 10 46 10 12 35 6 11 27 4 10 30 5 11 29 4 10 28 6 9 27 4 12 27 4 10 28 5 11 29 4 10 
23 3 12 23 3 12 23 3 12 22 2 11 23 3 12 22 2 11 23 3 14 23 3 15 24 4 16 25 4 19 22 4 20 24 5 24 24 5 25 24 4 29 24 4 31 26 5 36 25 4 35 27 7 44 30 8 46 32 7 46 33 8 47 29 7 45 30 8 46 30 10 47 29 6 35 26 6 34 29 6 32 29 5 29 28 5 25 27 3 25 47 11 23 36 5 20 26 6 15 28 5 15 28 5 15 27 4 12 25 4 11 26 5 12 25 4 11 29 4 10 25 4 11 27 4 10 26 3 11 26 5 12 25 4 11 27 4 12 27 4 12 27 4 12 26 3 9 36 7 11 41 9 12 25 4 11 27 4 10 27 4 12 28 5 11 27 4 12 26 3 11 26 3 11 28 5 11 26 3 11 27 4 10 27 4 12 26 3 11 27 6 13 27 4 12 26 3 11 29 4 10 27 4 12 27 6 11 25 4 11 45 9 11 31 4 9 28 5 11 27 4 10 27 4 10 26 3 9 25 4 11 26 3 11 26 5 12 27 4 10 27 4 12 28 5 11 27 4 10 26 5 12 27 4 12 26 5 12 27 4 10 28 5 11 27 4 10 26 3 11 46 10 12 32 5 10 27 4 10 27 4 12 27 4 12 26 3 11 27 4 12 27 4 14 27 4 12 27 4 10 
23 3 12 23 3 12 23 3 12 23 3 12 23 3 12 23 3 12 21 4 14 22 4 16 23 3 15 25 4 19 23 5 21 23 4 23 24 5 25 24 4 29 25 5 32 26 5 36 25 4 35 29 7 45 32 7 46 30 8 46 30 8 46 30 8 46 32 7 46 30 8 46 28 5 34 28 5 34 29 5 31 28 4 28 28 5 25 27 4 24 46 10 22 35 7 19 28 6 18 28 5 15 28 5 13 25 2 10 25 4 11 26 3 11 27 4 12 26 3 9 25 4 11 28 5 11 24 3 10 25 4 11 25 4 11 27 4 12 27 4 12 27 5 8 29 4 10 37 8 13 40 8 11 26 5 12 27 4 10 26 3 11 26 5 10 26 3 11 25 4 11 25 4 11 26 5 10 26 5 12 27 4 10 26 5 14 27 4 10 24 3 10 27 4 12 26 3 9 28 5 11 27 4 10 27 4 10 26 3 11 44 10 11 30 5 9 28 6 9 29 4 10 27 4 10 27 4 12 26 5 12 26 3 11 26 5 10 27 4 12 27 4 12 26 3 9 27 4 10 25 4 11 27 4 12 25 4 11 28 5 11 27 4 10 27 4 10 27 6 13 45 11 12 33 6 11 28 5 13 28 5 13 28 5 13 27 4 12 25 4 11 25 4 11 27 4 12 28 5 11 
23 3 12 22 2 11 23 3 12 22 2 11 22 2 11 22 2 11 23 3 14 24 4 16 24 4 16 24 3 18 22 4 20 23 4 23 24 5 25 23 3 28 24 4 31 25 4 35 27 3 35 28 8 45 29 9 46 30 8 46 32 7 46 31 9 47 31 9 47 30 8 46 29 6 35 27 7 34 31 7 31 29 5 29 28 5 25 28 5 25 46 10 22 35 7 21 27 5 17 28 5 15 28 5 13 27 4 10 25 4 9 26 3 9 27 4 10 27 4 10 25 4 11 28 5 11 26 3 11 25 4 11 25 4 11 27 4 12 27 4 12 29 4 8 28 5 11 37 6 11 41 9 12 26 3 9 27 4 10 26 5 10 26 3 9 25 4 11 25 4 9 26 5 12 27 4 10 26 5 10 27 4 10 26 3 9 26 5 12 25 4 9 26 5 12 27 4 12 28 5 11 27 4 10 29 6 12 27 4 10 44 10 11 32 5 10 28 5 11 27 4 10 27 4 10 27 4 10 27 4 14 25 4 11 27 4 12 27 4 10 27 4 10 27 4 10 27 4 10 25 4 9 26 5 10 25 4 11 27 4 10 27 4 10 28 6 9 27 4 12 46 10 12 33 6 11 27 4 10 27 4 10 29 6 12 27 4 10 26 3 11 26 5 10 27 5 8 27 4 10 
