P3
100 50
255
8 13 45 9 14 46 8 13 45 7 11 46 7 11 46 6 12 46 8 13 51 5 12 54 8 15 61 8 14 64 8 13 68 8 14 72 10 16 78 10 15 83 12 16 89 12 17 98 13 16 97 18 21 118 20 24 123 26 24 121 26 24 123 24 24 122 26 24 121 27 23 120 25 20 104 28 20 105 31 24 92 32 23 90 33 23 86 28 20 79 61 37 87 42 29 73 27 20 62 29 22 63 26 22 57 26 21 53 24 18 52 23 20 51 25 20 52 28 21 52 24 19 51 28 21 54 25 20 52 23 20 51 24 20 53 27 22 54 27 20 53 29 22 53 28 21 54 48 31 63 54 35 63 28 21 54 28 21 52 28 21 54 30 20 54 24 21 52 26 21 53 25 20 52 24 21 52 26 21 53 29 22 55 24 21 52 26 21 53 25 20 52 25 20 52 24 21 50 29 22 53 28 21 52 31 22 53 26 21 53 66 41 71 35 24 56 29 22 55 27 22 54 29 22 55 26 21 53 26 21 53 25 20 52 25 20 52 26 21 53 25 20 52 26 21 53 26 21 53 26 21 53 26 21 53 27 20 53 28 21 52 27 22 54 28 21 54 25 20 52 61 38 67 34 25 56 26 21 53 27 20 53 27 22 54 25 20 52 23 20 51 24 19 51 27 22 54 26 21 53 
8 13 45 8 13 45 7 12 44 7 11 46 8 12 47 7 13 47 7 12 50 8 13 55 9 13 60 8 14 64 9 14 69 9 14 72 9 15 77 11 16 84 12 16 89 11 16 97 12 17 98 20 23 120 23 23 121 25 23 120 26 24 121 23 23 121 27 25 122 31 27 122 61 37 113 64 38 109 65 40 105 63 39 101 65 42 98 63 40 92 76 46 96 68 43 85 64 40 76 64 40 76 62 39 68 60 40 68 60 37 66 60 37 65 61 38 66 63 39 65 60 37 65 63 39 65 61 38 67 62 39 67 60 37 65 63 38 68 63 40 68 63 38 67 61 41 68 68 42 69 73 44 72 63 38 68 65 41 67 64 41 69 64 41 69 62 39 67 63 38 67 62 37 66 62 39 67 63 40 68 64 39 68 62 39 67 62 39 67 61 38 66 62 39 68 63 38 67 65 41 67 64 39 68 63 40 68 62 37 66 78 48 74 64 39 68 64 39 69 63 40 68 65 39 68 62 39 67 61 38 66 62 39 68 63 39 65 63 38 67 62 39 67 63 38 67 62 39 68 62 39 67 63 38 67 63 38 67 64 39 68 62 39 67 63 38 67 61 38 64 71 45 72 65 39 68 62 39 67 63 38 67 62 39 65 61 38 67 61 38 66 60 37 65 61 38 66 62 39 67 
8 13 45 7 13 45 6 12 44 7 13 45 7 13 45 7 13 45 8 13 51 8 13 55 6 13 57 8 14 64 9 14 69 10 15 73 9 15 77 11 16 84 11 15 89 11 17 95 11 16 97 19 22 119 21 23 123 23 23 121 26 24 123 24 24 122 26 24 123 25 23 120 23 20 99 19 21 98 24 20 96 22 21 89 21 19 82 19 18 76 57 34 88 39 27 75 19 18 60 21 19 59 20 18 55 19 18 50 17 16 48 17 16 48 18 17 49 21 18 49 17 18 49 20 19 50 17 18 49 18 17 48 18 19 50 21 17 50 20 19 50 21 20 52 21 18 49 42 29 59 49 33 60 18 17 49 23 20 51 18 19 50 20 19 51 17 16 48 18 17 49 17 16 48 19 18 50 18 17 49 22 18 51 18 17 49 18 17 49 17 16 48 18 17 49 17 18 49 20 19 50 19 18 49 22 19 50 17 18 49 64 39 69 28 21 54 21 17 50 21 17 50 21 18 49 19 18 50 18 17 49 18 17 49 18 17 49 20 19 51 19 18 50 23 19 52 19 18 50 16 17 48 19 18 50 17 18 49 24 19 51 19 18 50 20 19 51 18 17 49 59 36 65 28 21 52 22 18 51 19 18 50 22 18 51 20 19 50 17 18 49 18 17 49 21 15 49 21 17 50 
8 13 45 8 13 45 7 13 45 7 13 45 8 13 45 7 13 45 8 13 51 8 13 55 6 13 59 8 14 64 8 13 68 8 14 72 9 15 77 10 15 83 11 15 89 12 18 96 12 18 96 19 22 119 21 24 121 25 25 123 27 25 122 24 24 122 25 23 122 25 24 118 22 21 99 18 19 99 22 18 94 21 20 88 22 21 81 19 17 80 57 34 88 39 27 77 22 19 62 24 19 60 24 20 57 21 17 50 18 17 49 18 17 49 19 18 49 22 19 50 17 16 48 24 21 52 20 19 51 18 17 49 18 17 51 21 18 49 22 19 50 23 20 51 20 19 50 43 28 59 52 33 61 19 18 50 23 20 51 22 19 50 21 20 52 18 17 49 20 19 51 19 18 50 20 19 51 20 19 50 22 18 51 19 18 50 19 18 49 18 17 49 18 17 49 19 18 49 23 20 51 19 18 49 23 19 52 19 18 49 64 39 68 29 23 51 22 19 50 22 18 51 23 19 52 21 17 50 18 17 48 19 18 50 17 16 48 22 18 51 23 20 51 20 19 50 21 17 50 16 17 48 19 18 49 18 17 49 22 19 50 21 18 49 22 18 51 19 18 50 59 36 65 32 23 54 22 18 51 21 17 50 21 17 50 20 19 50 17 18 49 19 18 50 21 17 50 22 19 50 
7 12 44 9 14 46 7 12 44 7 12 44 8 13 45 7 13 45 7 12 50 8 13 55 7 14 60 8 14 64 11 14 69 9 15 75 10 14 77 11 15 86 12 16 89 11 17 95 12 17 99 19 22 119 21 23 123 23 23 121 26 24 121 24 24 120 27 25 122 25 23 122 21 20 98 18 19 99 22 18 94 21 20 88 22 21 81 17 15 78 58 35 89 39 27 77 20 19 61 21 19 59 20 18 55 20 19 53 18 17 49 18 17 49 18 17 49 22 18 51 17 16 48 23 18 50 18 17 49 17 16 48 16 16 50 22 19 48 22 19 50 21 18 47 21 18 49 42 29 59 49 33 60 17 18 48 22 18 51 18 19 50 23 18 50 17 16 48 18 17 49 17 16 48 17 16 48 20 19 50 21 17 50 17 16 47 18 17 48 15 16 47 18 17 49 17 16 48 21 17 50 22 19 50 21 18 49 20 17 48 63 40 68 29 22 53 21 17 50 20 17 48 20 19 50 19 18 49 17 16 48 16 16 50 18 17 49 19 18 49 18 17 48 21 18 49 19 18 50 15 16 47 18 17 48 14 17 48 22 19 50 18 17 48 22 19 50 18 17 49 57 37 65 31 22 53 21 17 50 22 18 51 21 17 50 21 17 50 17 16 48 17 16 48 19 18 50 22 19 50 
8 11 44 8 13 45 8 13 45 7 12 44 8 13 45 8 13 45 7 12 50 8 13 55 7 14 60 8 14 64 8 13 68 8 14 72 8 14 76 10 15 83 12 16 89 11 17 95 12 18 96 20 23 118 20 22 122 25 25 123 26 24 123 25 25 123 26 24 121 25 24 118 20 19 97 18 19 99 23 19 93 21 20 86 23 22 82 19 18 76 58 35 89 40 28 78 22 19 62 24 19 60 24 20 57 22 19 50 18 17 49 18 17 48 19 18 50 23 20 51 17 18 49 23 20 51 18 17 49 19 18 50 18 17 49 23 20 51 22 19 50 23 20 51 23 20 51 43 28 59 52 33 61 22 17 49 23 17 51 22 18 51 24 19 51 18 17 49 19 18 50 19 18 50 19 18 50 19 18 50 23 20 51 19 18 50 18 17 48 20 16 49 19 18 50 20 19 51 24 21 52 22 18 51 23 20 51 21 17 50 64 40 64 32 23 54 22 18 51 22 19 50 22 19 50 21 17 50 19 18 50 18 17 49 19 18 49 22 18 51 21 18 49 22 19 50 20 19 51 18 17 49 19 18 50 20 19 51 23 20 51 20 19 51 23 17 51 20 16 49 59 36 65 33 24 55 22 19 50 23 19 52 21 17 50 22 19 50 18 17 49 18 17 49 22 18 51 23 20 51 
8 11 44 8 13 45 8 13 45 7 12 44 8 13 45 8 13 45 8 13 51 8 13 55 7 14 58 7 13 63 9 14 69 9 15 73 10 16 78 11 16 84 11 15 89 11 17 95 11 16 97 20 23 120 22 22 122 23 23 121 25 23 122 22 25 122 26 24 123 24 22 119 20 19 99 17 18 98 22 21 91 20 21 88 21 19 82 18 17 77 58 35 87 35 26 73 17 18 62 19 18 60 18 18 54 17 18 49 15 16 47 15 16 47 17 18 49 19 18 50 15 16 47 20 19 51 17 18 49 12 15 46 16 17 48 18 17 49 18 17 49 19 18 50 18 17 49 39 28 58 48 32 61 16 17 48 19 18 50 18 17 49 18 17 49 15 16 47 15 15 49 15 16 47 16 17 48 15 16 47 20 16 49 16 17 48 16 17 48 13 16 47 16 16 50 14 15 46 19 18 50 17 18 48 18 19 50 16 17 47 61 38 66 25 20 52 18 17 49 17 16 48 18 17 49 16 17 48 15 16 47 16 15 47 15 16 47 18 17 49 17 16 48 17 18 49 18 17 49 13 16 47 16 17 48 15 16 47 19 18 50 18 17 51 19 18 49 16 17 48 56 36 64 29 22 53 15 16 47 18 17 49 18 19 50 16 17 48 15 16 47 15 15 49 17 16 48 16 17 48 
7 12 44 8 13 45 8 13 45 8 13 45 7 12 44 7 13 45 7 12 50 8 13 55 7 14 56 8 14 64 8 13 68 9 14 72 9 15 77 11 14 83 12 16 90 10 16 94 12 14 97 18 21 118 20 22 122 25 25 123 26 24 121 25 25 121 27 25 122 23 23 121 18 19 99 17 18 98 21 19 92 18 18 88 20 18 81 18 18 78 56 36 87 35 26 73 19 18 62 20 18 58 18 16 53 18 17 49 15 16 47 14 15 46 16 17 48 18 17 51 12 15 46 18 17 51 16 17 48 15 16 47 15 16 47 20 16 49 19 18 50 18 17 49 18 17 49 39 28 58 48 32 61 16 17 48 18 17 49 17 16 48 18 17 49 13 16 47 14 15 46 14 14 48 15 16 47 16 17 48 18 17 49 16 17 48 16 17 48 14 14 48 14 15 46 15 16 47 19 18 50 17 18 49 19 18 49 17 18 49 64 39 68 26 21 53 18 17 49 18 17 49 21 17 50 15 16 47 15 16 47 15 15 49 15 16 47 16 15 47 17 16 47 16 17 48 15 16 47 12 15 46 15 16 46 16 17 48 19 18 50 17 18 49 18 17 49 16 17 48 57 34 63 28 21 52 17 18 48 19 16 47 18 17 49 17 16 48 13 16 47 15 15 49 15 16 47 18 17 49 
8 13 45 8 13 45 7 13 45 7 13 45 8 13 45 6 12 44 8 13 51 8 13 55 6 13 59 8 14 64 9 14 69 8 14 72 9 15 77 10 15 83 12 16 90 11 17 95 13 16 95 18 21 118 20 22 122 21 24 121 27 23 120 23 23 123 27 25 122 24 25 118 18 19 101 17 18 98 21 19 92 18 19 84 19 17 80 17 17 77 56 36 89 35 26 73 16 17 61 19 18 60 18 18 54 15 16 47 14 15 46 14 15 46 15 16 47 19 18 50 13 14 45 18 17 49 16 17 48 13 16 47 14 15 46 16 17 48 17 16 48 17 16 48 16 17 48 40 27 57 49 33 62 16 17 48 18 17 49 17 16 47 17 16 48 13 16 47 15 16 47 15 15 49 15 15 49 16 17 48 17 16 48 16 17 47 16 17 48 12 15 48 16 16 50 15 16 47 19 19 47 16 17 48 18 17 48 15 16 47 61 38 66 25 20 52 17 16 48 17 18 49 18 17 49 15 16 47 13 16 47 14 15 46 14 17 48 16 17 48 17 16 48 17 16 48 16 17 48 13 14 45 15 16 46 15 16 47 19 18 50 17 16 48 18 17 49 16 17 48 58 35 64 28 21 52 16 17 47 18 17 49 16 17 48 18 17 49 15 16 47 14 15 46 13 16 47 18 17 49 
8 13 45 7 13 45 6 12 44 7 13 45 8 14 46 7 13 45 8 13 51 8 13 55 7 14 60 8 14 64 9 14 69 8 14 74 10 14 77 10 14 85 11 15 88 11 17 95 10 15 96 19 22 119 23 23 123 24 24 120 26 24 121 22 25 120 26 24 121 23 22 116 18 20 97 20 19 99 22 18 92 20 19 87 20 18 81 19 20 77 58 35 89 35 26 73 19 18 60 21 19 59 19 17 54 17 16 48 15 16 47 16 17 48 15 16 47 19 18 49 14 15 46 22 19 50 15 16 47 13 16 47 14 15 45 19 18 50 18 17 49 18 17 49 18 17 49 41 28 58 49 33 62 17 18 48 20 16 49 18 17 49 18 17 48 15 16 47 14 15 46 16 17 48 15 16 47 16 17 48 19 18 50 16 17 48 16 17 48 15 16 47 14 17 48 16 17 48 19 18 49 18 19 50 18 17 49 16 15 47 62 39 67 26 21 51 18 17 49 18 17 49 19 18 49 17 18 49 14 15 46 14 17 48 15 16 47 18 17 49 18 17 49 16 17 48 18 19 50 13 16 47 16 17 48 16 17 48 19 18 49 17 16 48 19 18 50 16 17 48 58 35 64 31 22 53 18 17 48 19 18 50 18 17 49 17 16 48 15 16 47 15 16 47 18 17 49 18 17 49 
8 13 45 8 12 47 6 12 44 9 14 46 6 12 44 6 12 46 8 13 51 8 13 55 9 13 58 8 14 64 8 13 68 9 14 72 9 15 77 10 15 81 12 16 89 10 16 94 11 16 97 19 22 119 20 22 122 25 23 120 26 24 123 24 24 122 26 24 121 25 24 118 20 19 97 19 18 98 22 18 94 22 19 88 22 17 83 19 18 76 55 35 88 36 28 75 22 19 64 23 18 58 22 18 55 19 18 50 17 16 48 18 17 48 19 18 50 22 19 50 15 16 46 22 18 51 18 17 49 17 18 49 16 15 47 18 17 48 20 19 51 21 17 50 17 16 47 41 28 58 48 32 61 18 17 49 19 18 50 19 18 50 21 18 49 16 17 47 18 17 51 13 16 47 18 17 49 19 18 50 19 18 50 18 17 49 18 17 49 16 17 48 17 16 48 17 16 48 22 19 50 18 17 49 20 19 50 18 17 49 63 38 67 29 22 53 18 17 49 19 18 49 21 18 49 18 19 49 16 17 47 17 18 49 17 16 48 19 18 50 18 17 49 18 17 49 18 17 49 15 16 47 20 17 48 17 16 48 22 19 50 18 19 49 22 19 48 18 17 48 57 37 64 30 23 54 20 19 51 21 18 49 20 19 51 19 18 49 18 17 49 16 17 48 19 18 49 21 18 49 
8 13 43 7 11 46 6 12 44 7 12 44 6 12 46 6 12 46 7 12 50 8 13 55 9 13 58 8 14 64 7 12 67 9 14 72 9 15 77 10 15 81 11 15 89 11 17 95 11 16 97 19 22 119 20 23 120 25 23 120 26 24 121 23 23 121 26 25 119 24 23 117 20 19 97 20 19 99 22 20 95 21 20 86 20 18 81 19 18 78 55 37 89 35 27 74 19 18 60 20 20 58 22 18 55 18 17 49 16 17 48 17 16 48 17 18 49 19 18 49 16 17 48 20 19 50 18 17 51 16 17 48 15 16 47 18 17 48 19 18 49 19 18 50 19 18 50 38 29 58 48 32 61 18 17 49 20 19 51 19 18 50 20 19 50 15 16 47 16 15 47 15 16 47 17 16 48 18 17 49 18 17 48 17 16 48 17 18 49 16 17 48 18 17 48 15 14 46 22 19 50 19 18 49 22 19 50 18 17 48 64 39 68 28 21 52 19 18 50 18 17 48 19 18 50 18 17 48 16 15 46 16 15 47 17 18 49 19 18 50 18 17 49 18 17 49 18 17 49 15 15 49 17 16 48 17 16 48 21 17 50 18 17 49 21 18 49 17 16 48 56 33 59 29 22 53 18 17 48 21 17 50 20 19 51 18 17 49 15 16 47 16 17 48 19 18 50 21 18 49 
8 13 45 7 12 44 7 13 45 7 12 44 6 12 44 7 13 47 7 12 50 9 14 56 9 13 58 8 14 64 9 14 69 9 14 72 8 14 76 11 16 84 12 16 89 11 17 95 11 16 97 19 22 119 21 24 121 24 24 122 26 24 123 23 23 121 27 26 120 23 24 117 21 20 100 18 19 99 22 18 92 21 20 86 21 19 82 19 18 76 55 35 88 37 28 75 20 19 63 21 19 58 21 19 56 20 19 50 17 16 47 16 15 47 17 18 49 22 18 51 15 16 47 22 19 50 18 17 49 18 19 50 17 18 49 18 17 48 21 18 49 20 19 51 19 18 50 39 28 58 48 32 59 19 18 49 22 19 50 19 18 49 19 18 49 16 17 48 18 17 49 16 17 48 18 17 48 18 17 49 21 18 49 17 18 49 19 16 47 16 17 48 17 18 49 17 16 48 20 19 50 18 19 50 22 19 50 18 17 49 63 40 68 28 21 52 19 18 49 21 18 49 19 19 47 18 17 49 16 17 47 17 16 48 16 17 48 19 18 49 18 17 48 20 19 50 19 18 50 16 17 48 20 17 48 17 16 48 21 18 49 18 19 49 23 20 51 18 17 49 59 36 65 30 23 54 20 19 51 19 18 49 19 18 50 18 17 49 17 16 48 17 16 48 18 18 46 22 19 50 
8 13 45 7 11 46 7 13 45 7 12 44 7 13 45 6 12 46 8 13 51 9 14 56 10 14 59 7 13 63 8 13 68 10 15 73 9 15 77 11 16 80 12 16 90 11 17 95 11 16 97 19 22 119 20 22 122 24 24 122 26 24 123 24 24 122 27 25 122 24 25 118 20 19 97 18 20 97 21 19 92 19 20 85 20 18 81 18 19 76 58 35 89 36 26 76 19 18 60 20 18 57 18 16 53 17 18 49 15 16 47 16 17 48 17 18 49 18 17 49 14 15 46 19 18 50 16 17 48 16 17 48 15 16 47 17 16 47 18 17 48 18 17 49 18 17 49 39 28 60 50 31 61 18 17 49 19 18 50 19 18 50 20 16 49 15 16 47 15 16 47 14 17 48 16 17 48 16 17 48 18 17 48 16 17 48 16 17 48 15 16 47 17 16 48 16 15 47 21 17 50 18 17 49 20 16 49 18 17 49 63 38 67 27 20 53 17 18 49 18 17 48 19 18 49 18 17 49 15 16 47 15 16 47 15 16 47 18 17 49 17 18 49 19 18 50 16 15 49 13 16 47 17 16 48 15 16 47 19 18 49 17 16 48 19 18 49 17 16 47 57 34 62 28 21 52 18 17 49 18 17 49 18 17 49 18 17 49 17 18 49 15 16 47 18 17 49 19 18 49 
8 13 45 7 12 44 6 12 44 7 12 44 7 13 45 6 12 46 8 14 50 8 13 55 9 13 58 9 15 65 9 14 69 9 14 72 9 15 77 10 15 83 11 15 88 11 17 95 10 15 96 19 22 119 20 22 122 24 24 122 25 23 122 25 25 123 26 24 121 23 24 117 17 18 98 16 17 97 20 18 91 20 19 87 19 17 80 18 17 75 55 35 88 35 26 73 18 17 59 19 18 58 19 17 56 19 18 49 14 15 46 13 16 49 16 17 48 16 17 48 12 15 46 18 17 49 15 16 47 15 16 47 12 15 46 17 16 48 18 17 49 18 17 49 16 17 48 38 27 57 47 31 60 17 18 49 18 17 49 16 17 48 17 16 48 14 15 46 14 15 46 12 15 46 14 15 46 16 17 48 17 18 48 14 15 46 15 16 47 13 16 47 14 15 46 15 16 47 18 17 49 16 17 48 18 17 49 15 16 47 59 36 64 25 20 52 16 17 48 16 17 48 17 16 48 15 16 47 14 15 46 12 15 46 14 14 48 16 17 48 15 16 47 16 17 48 15 16 47 13 16 47 12 15 46 14 15 46 19 18 50 16 17 48 19 18 50 14 15 46 54 34 61 28 22 50 17 18 49 18 17 49 18 17 49 17 16 48 13 16 47 15 16 47 16 17 48 17 16 48 
7 12 44 7 12 44 7 13 45 8 12 47 7 13 45 7 13 47 7 12 52 8 13 55 9 13 58 7 13 63 8 13 68 9 14 72 9 15 77 10 15 79 13 17 91 11 17 95 11 16 97 18 21 118 20 22 122 23 23 121 25 23 120 22 22 122 26 24 121 23 24 117 19 17 100 19 18 96 23 19 93 20 19 87 19 17 80 17 17 77 56 36 87 36 27 74 18 17 59 19 18 58 18 16 53 17 16 48 13 16 49 15 16 47 16 15 47 18 17 49 12 15 46 18 17 49 14 15 46 15 16 47 13 16 47 18 17 49 18 17 49 17 16 48 17 18 49 42 27 58 47 31 60 16 17 48 20 16 49 17 18 49 19 18 49 15 16 47 15 15 49 14 15 46 15 16 47 16 17 48 18 17 49 15 16 47 15 16 47 14 15 46 15 15 49 15 16 47 18 17 49 18 17 49 19 18 50 16 15 47 61 38 66 26 21 53 20 16 49 17 16 48 19 18 49 15 16 47 15 14 46 14 15 46 15 15 49 18 17 49 15 16 47 17 16 48 17 16 48 14 15 46 15 16 46 15 16 47 18 17 49 18 17 49 19 18 50 15 16 47 53 33 60 28 21 52 17 18 49 18 17 51 19 18 50 17 16 48 14 15 46 15 16 47 16 17 48 17 16 47 
8 13 45 8 13 45 7 13 45 7 12 44 7 13 45 6 12 46 8 13 51 9 13 58 9 13 58 8 14 64 8 13 68 9 14 72 8 14 76 9 14 82 11 15 88 11 17 95 11 16 97 18 21 118 21 23 123 25 23 122 26 24 121 23 23 121 26 24 121 23 22 116 18 19 99 17 20 97 23 19 93 20 21 88 22 17 81 17 18 75 57 34 86 35 26 73 16 18 59 20 19 59 19 17 54 18 17 48 14 15 46 16 15 47 16 17 48 19 18 49 15 16 47 22 18 51 16 17 48 16 17 48 16 17 48 20 17 48 18 19 50 18 17 48 16 17 48 38 27 57 46 30 59 15 16 47 19 18 50 18 17 49 19 18 49 14 15 46 16 17 48 15 16 47 16 17 48 18 17 49 18 17 48 16 15 47 16 17 48 15 16 47 17 18 49 15 16 47 18 17 49 17 16 48 19 18 52 17 16 47 61 38 66 25 20 52 16 17 48 18 17 48 18 17 49 16 17 48 16 17 48 15 16 47 15 16 47 17 18 49 17 16 48 18 17 49 17 16 48 11 14 45 16 17 48 16 17 48 20 17 46 18 17 49 19 18 49 16 17 48 56 36 64 29 22 53 18 19 50 18 17 48 18 17 49 16 17 48 16 17 48 16 17 48 17 16 48 19 18 49 
8 13 45 8 13 45 6 12 44 7 11 46 7 13 45 6 12 46 7 12 50 8 13 55 9 13 58 8 14 64 8 13 68 10 15 73 9 15 77 11 16 82 12 16 90 11 17 95 12 17 98 19 22 117 21 24 121 26 24 121 26 24 121 25 25 121 26 24 121 26 25 119 21 20 96 20 19 97 22 18 92 22 21 89 23 22 82 18 19 76 57 37 90 39 27 77 24 18 62 24 19 60 23 19 54 23 19 52 17 16 47 19 18 49 22 18 51 23 20 51 17 16 48 24 19 51 19 18 50 20 17 48 19 18 50 21 18 49 19 18 49 23 18 50 21 18 49 43 30 60 51 32 60 21 17 50 22 16 50 21 18 49 23 20 51 18 17 48 19 18 50 19 15 48 19 18 49 21 17 50 21 18 49 19 18 50 19 18 49 18 17 49 18 17 49 21 17 50 23 20 51 22 18 51 22 18 51 20 17 48 64 39 68 30 21 52 22 19 50 21 18 49 23 20 51 21 17 50 18 17 49 18 17 49 18 17 49 22 19 50 21 18 49 21 18 49 21 17 50 20 16 49 17 18 48 17 16 48 24 19 51 21 18 49 24 19 51 19 18 50 60 37 65 33 24 55 22 19 50 23 20 51 24 18 52 23 19 52 18 17 49 19 18 50 20 20 48 23 20 51 
7 12 44 7 13 45 7 12 44 7 12 44 7 12 44 7 12 44 8 13 51 8 13 53 8 12 57 7 13 63 9 14 69 10 15 73 10 14 77 11 16 82 12 16 89 13 16 93 11 16 97 22 22 118 23 23 121 25 23 120 25 25 121 24 24 120 26 24 121 25 24 118 19 20 100 17 20 99 25 19 93 22 19 86 20 18 81 18 17 75 57 34 88 36 27 74 20 19 61 21 19 59 21 19 56 19 18 50 18 17 49 18 17 51 18 17 49 22 19 50 16 17 48 22 18 51 18 17 49 18 17 49 17 16 48 20 19 51 21 17 50 19 18 50 19 18 50 38 27 57 47 30 62 19 18 49 21 18 49 19 18 49 21 18 49 16 16 50 17 16 48 16 17 48 18 17 49 17 16 48 19 18 50 18 17 49 18 17 49 16 15 47 18 17 49 18 17 49 20 19 51 21 18 49 20 19 51 18 17 49 63 38 67 30 20 54 21 18 49 20 17 48 19 18 49 17 16 48 17 18 49 16 15 47 16 17 48 19 18 49 18 17 49 18 17 48 20 16 49 17 16 48 20 16 49 16 17 48 22 19 50 18 17 48 23 20 51 19 15 48 56 36 63 32 23 54 18 17 48 22 19 50 21 20 51 20 19 51 17 16 47 18 17 49 20 17 48 21 18 49 
9 14 46 7 13 45 8 13 45 7 12 44 7 13 45 7 11 46 8 13 51 6 13 55 9 13 58 8 14 62 9 14 69 9 14 72 11 15 78 10 15 83 12 16 89 13 16 95 14 17 98 19 22 119 21 24 121 25 25 121 26 24 121 23 24 117 27 25 124 25 24 118 21 20 98 18 19 99 21 19 92 21 20 86 23 22 80 22 19 76 58 35 89 40 26 77 22 19 62 22 20 60 21 19 56 21 17 50 17 18 49 18 17 49 21 18 49 23 18 50 18 17 49 23 20 51 21 17 50 18 17 49 18 17 49 23 18 50 22 19 50 21 18 49 22 18 51 41 27 60 48 32 61 19 18 49 22 19 50 21 17 50 22 18 51 17 16 47 21 17 50 18 17 49 18 17 48 19 18 50 22 19 50 19 18 50 18 17 49 17 16 48 18 17 48 19 18 50 24 19 51 21 18 49 22 19 50 21 18 49 64 39 69 29 22 53 22 19 50 22 19 50 22 19 50 21 17 50 19 18 49 19 15 48 18 17 49 21 18 49 20 17 48 22 19 50 19 16 47 17 16 48 18 17 48 18 17 48 23 18 50 21 18 49 23 20 51 21 18 49 57 37 65 33 22 54 23 20 51 22 19 50 22 19 50 19 20 51 18 17 49 19 18 50 22 19 50 23 20 51 
6 11 43 8 13 45 7 12 44 8 13 45 8 13 45 7 12 44 7 12 50 9 14 54 8 12 57 8 14 62 9 14 69 9 14 72 10 14 77 9 14 82 11 15 88 13 16 95 12 15 96 19 22 119 21 24 121 25 23 122 25 23 120 23 23 121 27 25 122 24 23 117 22 19 100 21 18 97 25 21 95 23 20 91 23 18 82 21 17 76 55 35 86 37 28 73 22 19 64 24 19 60 22 18 55 22 19 50 20 17 48 22 19 50 23 20 51 24 19 51 18 17 49 24 19 51 21 18 49 21 18 49 20 19 50 22 19 50 23 18 50 22 19 50 21 20 51 43 28 57 45 30 59 22 19 50 24 19 51 23 17 51 20 19 50 20 16 49 21 17 50 18 17 49 19 18 49 22 19 50 23 20 51 18 17 48 18 17 48 18 17 49 18 17 49 17 18 49 23 19 52 22 19 50 23 18 50 20 17 48 63 37 64 29 20 51 22 19 50 21 18 49 23 20 51 22 19 50 17 18 49 17 16 47 18 17 49 23 20 51 20 16 49 21 18 49 21 18 49 17 16 48 20 17 48 18 17 49 23 20 51 23 20 51 24 18 52 18 17 48 59 36 64 34 25 54 25 20 52 23 19 52 24 18 52 23 18 50 21 18 49 19 18 50 23 20 51 24 19 51 
8 13 45 6 12 46 7 12 44 7 13 45 9 12 45 8 13 45 8 13 51 8 13 53 9 13 58 8 14 62 8 14 66 10 15 73 12 16 79 12 17 83 10 14 87 13 16 95 12 18 96 19 22 117 23 23 121 25 23 120 25 23 120 25 23 120 28 24 121 29 25 119 64 39 107 62 36 110 66 40 103 64 38 99 64 41 97 63 41 90 73 47 94 69 42 83 64 38 77 65 37 75 65 38 73 65 39 68 61 36 65 64 39 68 63 38 67 65 41 65 61 36 65 64 39 68 61 38 66 62 37 66 63 38 67 61 38 66 62 39 67 63 38 67 63 39 65 66 42 68 71 42 70 60 37 66 63 40 68 61 38 66 61 38 67 60 37 66 60 37 66 60 35 65 60 37 65 60 37 66 63 39 65 59 36 65 60 37 66 59 36 65 59 36 65 58 38 65 63 40 68 62 37 67 62 40 63 60 37 66 75 45 73 63 38 67 63 38 67 62 39 67 62 37 66 61 38 67 60 37 65 60 37 66 61 38 66 59 39 66 62 39 67 61 38 66 61 38 66 60 37 66 61 38 66 60 37 65 63 40 66 64 39 68 63 40 68 62 38 64 74 44 70 66 40 69 65 41 67 63 38 67 65 39 66 63 38 67 62 37 66 62 37 66 63 39 65 67 38 66 
7 13 45 6 12 44 8 13 45 7 13 45 7 13 45 7 13 47 7 12 50 9 14 56 9 13 58 8 14 62 9 15 67 10 15 73 9 13 76 10 15 81 11 15 88 13 16 95 11 16 97 18 21 116 20 23 120 24 24 120 25 23 120 24 24 120 26 25 119 25 23 120 28 21 101 28 21 101 33 24 91 31 25 89 31 23 82 28 20 79 61 37 89 43 30 76 28 21 63 29 20 63 28 20 57 28 21 52 24 18 52 25 19 53 24 19 51 27 22 52 22 19 50 27 22 54 25 20 52 23 18 50 23 19 52 25 20 52 25 20 52 25 20 52 25 20 50 42 29 57 46 30 59 23 20 51 25 20 52 24 20 53 25 20 52 22 18 51 23 19 52 20 19 51 22 19 50 22 18 53 25 20 50 22 18 51 22 18 51 19 18 50 23 18 50 23 20 51 26 21 53 25 20 52 28 23 53 25 20 52 63 38 67 32 23 54 26 19 50 26 19 50 26 21 53 25 20 50 24 19 51 24 19 51 22 19 50 24 21 50 25 20 52 26 21 51 25 20 52 22 19 50 24 21 52 24 21 52 27 22 52 26 21 51 28 21 52 26 21 53 59 36 65 38 25 55 27 20 51 30 21 52 26 21 51 27 22 52 24 19 51 24 19 51 25 20 50 27 20 51 
8 13 45 7 12 44 8 13 45 8 13 45 6 12 44 8 13 45 4 12 49 8 13 53 11 15 60 8 14 62 8 14 66 9 14 72 10 14 77 9 14 82 12 16 89 13 16 95 14 17 96 18 21 118 23 23 121 25 23 120 26 24 121 25 23 120 28 24 121 25 24 118 19 21 98 20 19 97 23 19 93 20 19 87 24 20 81 19 18 76 59 36 88 36 28 77 20 19 61 22 20 59 22 21 55 19 18 49 17 16 48 18 17 49 20 19 51 22 19 50 17 18 49 22 19 50 19 18 49 18 17 48 17 16 48 22 19 50 20 17 48 22 19 50 19 18 49 41 28 58 45 29 58 18 17 49 22 19 50 18 17 48 20 19 50 18 17 49 17 16 48 16 17 48 18 17 48 19 18 50 22 19 50 18 17 49 18 17 49 17 16 48 18 17 49 17 16 48 22 18 51 19 18 49 20 19 50 17 16 48 64 39 68 29 22 53 21 18 47 20 19 51 21 18 49 19 18 50 19 18 50 18 17 49 18 17 48 21 18 49 19 18 50 21 18 49 19 18 52 17 16 48 19 18 50 19 15 48 21 18 49 21 17 50 23 20 51 19 18 49 57 37 64 32 23 54 21 18 49 21 20 52 21 20 51 21 18 49 18 17 49 20 16 49 20 19 51 22 19 50 
8 13 45 8 12 47 8 13 45 7 11 46 8 13 45 7 12 44 5 13 50 9 12 53 8 12 57 8 14 62 9 15 67 8 13 71 10 14 77 9 14 80 11 15 88 12 15 94 13 16 95 21 19 118 22 22 120 25 23 122 26 24 121 24 22 123 25 24 118 24 23 117 21 20 100 20 19 97 22 18 92 22 22 84 23 18 82 23 19 78 58 35 89 38 26 76 21 20 62 21 19 59 21 20 54 21 17 50 17 16 48 17 16 47 18 17 49 21 18 49 17 16 48 23 17 51 21 18 49 17 16 47 16 17 47 21 18 49 23 18 50 22 19 50 21 18 49 41 28 58 44 29 62 18 17 48 21 17 50 20 17 48 18 17 49 17 16 48 17 16 48 16 15 46 18 17 49 20 16 49 21 17 50 17 16 48 18 17 51 18 17 49 18 17 48 18 17 49 22 19 50 21 17 50 22 19 50 18 14 47 62 39 67 28 21 54 21 17 50 21 18 49 22 18 51 20 17 48 16 15 47 17 16 48 17 16 47 19 18 49 19 18 49 21 18 49 20 17 48 18 17 49 21 18 49 17 16 47 22 19 50 21 18 49 22 19 50 21 17 50 60 37 65 32 21 53 21 18 49 22 19 50 22 18 51 20 19 51 17 16 48 17 16 48 19 18 49 22 19 50 
6 12 44 6 12 44 7 12 44 6 12 44 6 12 44 6 12 44 8 13 51 8 13 53 9 13 58 8 14 62 9 15 67 9 14 72 10 14 77 11 16 82 12 16 87 13 16 93 14 17 96 18 21 116 23 23 121 25 23 120 25 23 120 24 24 120 25 24 118 25 24 118 21 20 100 19 21 98 24 18 92 22 19 86 23 22 80 19 18 75 57 34 88 36 27 74 23 17 61 24 19 60 23 19 56 22 18 51 18 17 49 19 18 49 20 17 48 22 19 50 17 16 48 23 20 51 19 18 49 19 18 49 20 16 49 19 18 49 20 19 50 20 19 50 19 18 49 40 29 59 46 29 61 18 17 48 23 20 51 21 18 49 22 17 49 17 18 49 18 17 48 17 16 48 18 17 48 19 18 49 22 19 50 19 18 50 18 17 48 17 18 49 18 17 49 18 17 49 22 19 50 21 18 49 23 20 51 19 18 49 62 39 67 30 23 54 22 19 50 23 17 51 23 18 50 19 18 49 18 17 48 18 17 49 19 18 49 22 19 50 19 18 49 22 19 50 19 18 49 18 19 50 18 17 48 18 17 48 23 18 50 22 19 50 24 19 51 22 19 50 58 38 66 32 21 53 23 20 51 23 18 50 23 18 50 21 17 50 19 18 49 20 16 49 20 19 50 24 17 50 
8 13 45 7 12 44 8 13 45 7 12 44 7 12 44 7 13 45 7 12 50 8 13 55 9 13 58 10 14 62 8 14 66 9 14 72 10 16 78 11 14 81 11 15 88 13 16 95 13 16 95 18 21 116 22 22 120 25 23 120 26 24 121 23 23 119 27 23 120 24 23 117 20 19 97 17 18 98 23 19 93 20 19 85 20 19 79 18 19 76 56 36 87 36 27 74 19 18 60 21 19 59 22 17 57 19 18 50 17 16 48 16 17 48 17 16 47 18 17 49 15 16 47 21 18 49 16 17 47 17 18 49 15 16 47 19 18 50 20 17 48 18 17 48 18 17 49 40 27 57 42 27 58 17 16 48 19 18 49 18 17 49 18 17 51 16 15 47 16 17 48 15 15 49 16 17 48 16 17 48 19 18 50 15 16 47 16 17 48 14 15 46 17 18 49 15 16 47 19 18 50 18 17 49 19 18 49 16 17 48 63 38 68 27 20 53 19 18 49 17 18 48 19 16 47 17 18 48 16 17 48 15 18 49 15 16 47 18 17 48 17 16 48 18 17 49 18 17 49 15 16 47 17 16 48 16 17 48 22 19 50 19 18 50 21 17 50 16 17 47 56 36 63 28 21 54 18 17 49 19 18 50 18 17 49 18 17 49 16 17 48 16 17 48 18 17 49 20 17 48 
8 13 45 7 12 44 8 12 47 7 12 44 8 13 45 7 12 44 8 13 51 7 12 54 9 13 58 8 14 62 9 15 67 10 15 73 10 14 77 11 16 82 12 14 88 12 15 94 11 17 95 17 22 116 20 23 120 25 23 120 25 24 118 24 22 119 25 24 118 24 23 117 19 18 98 17 18 98 21 19 92 19 18 86 19 17 80 18 19 75 54 34 85 35 26 73 18 17 59 18 17 57 19 17 56 19 18 50 14 15 46 16 17 48 15 16 46 17 16 48 12 15 46 18 17 49 17 16 48 15 16 47 13 16 47 18 17 49 16 17 47 18 17 49 17 16 48 38 27 57 42 29 59 15 16 47 18 17 48 17 16 48 18 17 49 12 15 46 15 16 47 14 15 46 15 16 47 15 16 47 18 17 49 15 16 47 15 16 47 14 15 46 15 16 46 13 16 47 20 16 49 15 16 46 18 17 48 15 16 46 61 38 66 25 20 50 18 17 49 17 16 48 18 17 49 17 16 48 14 15 46 14 15 46 14 15 46 17 16 48 15 16 47 17 16 48 16 17 48 14 15 45 16 17 48 15 16 47 19 18 49 17 16 48 22 19 50 17 18 49 55 37 63 28 21 52 18 17 49 18 17 48 18 17 48 18 17 49 14 15 46 15 16 46 16 17 48 18 17 48 
6 12 44 7 12 44 8 13 45 8 13 45 7 12 44 8 12 47 7 11 49 8 13 53 8 12 57 8 14 62 10 13 66 9 14 72 10 14 77 12 15 82 11 15 88 11 17 95 11 16 97 19 22 117 20 23 120 23 23 119 25 23 120 23 23 121 25 23 120 25 24 118 17 20 99 16 18 95 21 19 92 19 18 86 19 17 80 17 16 74 54 34 85 35 25 75 16 18 59 19 17 57 18 16 55 17 16 48 14 15 46 15 16 47 16 17 48 19 18 50 15 16 47 17 16 48 15 16 47 15 16 47 12 15 48 17 16 48 18 17 49 19 18 50 16 17 48 37 26 56 41 28 58 16 17 48 16 17 47 16 17 48 17 16 48 15 16 47 15 16 47 16 15 47 15 16 47 15 16 47 18 17 48 15 16 47 13 16 47 14 15 46 15 16 47 15 16 46 18 17 49 20 17 48 18 17 49 15 16 47 61 36 65 25 20 52 18 17 51 16 17 48 18 17 49 16 17 48 14 15 46 14 15 46 15 16 47 17 16 48 17 16 47 17 16 48 17 16 47 13 16 47 15 16 47 14 15 46 19 18 49 17 18 49 18 17 49 15 15 49 55 37 63 28 21 52 18 17 49 18 17 49 18 17 49 16 17 47 15 16 47 12 15 46 16 17 48 16 17 47 
7 11 46 8 13 45 7 12 44 7 12 42 8 13 45 8 13 45 8 13 51 7 12 54 9 13 58 10 14 62 11 14 67 10 15 73 8 14 76 10 15 81 12 16 89 13 16 95 10 16 94 19 22 117 20 22 122 25 23 122 26 25 119 23 23 119 26 25 119 24 23 117 20 19 97 17 19 96 21 19 92 20 19 85 20 19 79 17 18 75 56 36 87 33 25 72 20 17 60 21 19 59 19 17 56 17 16 48 15 16 47 16 17 48 17 16 47 18 19 50 14 15 46 19 18 50 17 18 49 15 16 47 15 16 47 18 17 49 18 17 48 18 17 48 17 16 48 39 26 56 44 29 60 17 16 48 19 18 49 18 17 49 18 17 49 15 16 47 16 17 48 15 16 47 14 18 47 17 16 48 18 17 48 16 17 48 16 15 47 15 16 47 16 17 45 15 16 47 22 18 51 16 17 48 21 17 50 17 16 48 63 38 68 28 21 52 21 17 50 18 17 48 19 18 49 17 16 47 16 15 47 17 16 48 15 16 47 17 18 49 17 16 48 18 17 48 18 17 49 15 16 47 15 16 47 16 15 47 23 18 50 18 17 49 21 18 49 17 17 45 57 37 64 30 21 52 20 17 48 21 18 49 21 18 49 19 18 50 17 16 48 15 16 47 18 17 49 21 18 47 
8 13 45 8 13 45 8 13 45 7 12 44 7 12 44 7 11 46 7 12 50 8 13 53 9 13 58 8 14 62 9 15 67 9 14 72 11 15 78 10 13 80 12 14 88 13 16 95 12 15 96 20 23 118 22 22 120 25 23 120 25 24 118 25 23 122 27 26 120 24 23 116 20 19 97 19 18 98 23 19 93 21 20 86 25 21 82 18 17 75 59 36 90 38 26 74 21 20 62 21 19 59 23 19 56 22 18 51 18 17 49 18 18 46 18 17 48 22 19 50 18 17 48 23 20 51 18 17 48 18 18 46 18 17 49 21 18 49 21 17 50 21 18 49 20 19 51 41 28 58 44 29 60 19 18 50 22 19 50 21 17 50 21 17 50 17 16 48 19 18 49 17 16 47 18 17 48 18 17 48 21 18 49 18 17 49 18 17 49 19 18 50 18 17 49 18 17 49 21 18 49 22 19 50 23 18 50 20 16 49 63 38 67 30 20 54 22 19 50 23 20 51 23 20 51 20 17 48 18 17 48 18 17 49 19 18 49 22 19 50 20 16 49 21 18 49 21 18 49 16 17 48 21 18 49 20 17 48 24 19 51 22 19 50 24 19 51 19 18 52 57 37 64 32 23 54 21 18 49 23 20 49 23 20 51 22 19 50 18 17 49 18 17 49 22 19 50 23 18 50 
8 13 45 8 13 45 7 12 44 9 12 45 7 12 44 8 14 46 8 13 51 8 13 55 9 13 58 8 14 62 10 13 66 10 15 73 9 13 76 10 15 81 11 15 88 13 16 95 13 14 94 20 20 116 22 22 122 24 22 119 26 25 119 21 24 119 27 23 120 23 22 116 17 19 96 17 19 96 24 18 92 20 19 87 20 18 81 17 18 75 56 33 85 35 26 73 18 17 59 19 17 57 17 17 55 18 17 49 12 15 46 16 16 50 16 16 50 18 19 50 12 15 46 19 18 50 16 17 48 16 15 47 12 15 46 18 19 50 18 17 48 17 16 47 16 17 48 36 27 56 43 28 59 15 16 47 17 16 48 16 17 48 17 16 48 12 15 46 13 16 47 12 15 46 15 16 47 15 16 47 17 16 48 15 16 47 16 17 48 15 16 47 15 16 46 15 15 49 18 17 48 17 16 48 20 17 48 16 17 48 62 37 66 26 21 51 18 17 49 17 16 48 17 16 48 16 15 47 15 16 47 14 14 48 13 16 47 18 17 49 15 16 47 18 17 48 16 17 48 14 15 46 15 16 46 15 14 46 20 17 48 17 16 47 20 16 49 17 16 48 56 36 63 28 23 53 17 16 48 20 16 49 20 17 48 18 17 49 15 16 47 14 17 48 17 16 48 18 17 48 
7 12 44 7 12 44 7 12 44 8 13 45 8 13 45 7 11 46 8 13 51 8 13 53 8 12 57 10 14 62 8 14 66 10 15 73 11 15 78 12 15 82 11 15 88 11 17 95 14 17 96 20 23 120 23 23 121 26 24 121 26 25 119 25 23 120 26 25 119 25 24 117 20 19 97 18 17 97 22 18 92 21 21 85 24 20 79 20 19 77 58 35 87 38 26 74 23 20 63 24 19 60 23 19 56 22 18 51 19 18 50 20 17 48 19 18 49 23 20 51 18 17 48 22 17 49 19 18 49 19 18 50 17 16 48 20 17 48 23 20 51 24 19 51 19 18 49 38 27 57 46 30 59 19 18 49 23 20 51 21 20 51 22 19 50 17 16 47 18 17 49 17 16 48 19 18 50 19 18 49 22 19 50 19 18 49 18 17 48 17 16 47 20 17 48 19 18 49 25 20 52 22 19 50 25 20 52 21 17 50 63 38 67 32 23 54 23 20 51 23 20 51 22 19 50 21 18 49 20 17 48 19 18 49 22 19 50 21 18 49 21 18 49 22 17 49 21 18 49 19 18 49 20 17 48 17 16 47 24 19 51 23 20 51 25 20 52 19 18 50 58 38 66 33 24 55 22 19 50 23 20 51 22 19 50 21 17 50 20 17 48 17 16 48 22 19 50 24 19 51 
7 13 45 7 12 44 7 12 44 9 14 46 7 12 44 7 12 44 8 12 50 7 12 54 9 13 58 8 14 62 9 15 67 9 14 72 9 15 77 11 14 81 11 15 88 12 15 94 12 15 94 19 22 119 22 22 122 24 22 119 25 23 120 23 23 119 26 24 121 24 23 117 20 19 95 19 18 96 22 19 90 20 19 85 20 19 79 17 16 74 55 35 86 34 26 73 20 19 61 21 19 59 20 18 55 19 18 50 15 16 46 16 17 47 16 17 48 19 18 49 15 16 47 18 17 49 16 15 46 15 16 47 15 16 47 17 16 48 18 17 48 17 16 47 17 16 48 36 27 56 44 27 59 17 18 49 19 15 48 16 15 47 17 16 48 15 16 47 16 15 47 14 15 46 17 16 47 17 16 48 19 18 49 17 16 48 15 16 47 15 16 47 17 16 48 16 15 47 18 17 49 17 18 48 21 18 49 18 17 49 63 38 67 27 20 51 18 17 49 17 16 48 19 19 47 17 16 48 15 16 47 15 16 47 14 15 46 17 16 48 17 16 48 20 16 49 18 17 49 15 16 47 17 16 48 13 16 47 21 18 49 18 17 49 22 19 50 17 16 48 56 36 63 29 22 53 18 17 48 19 18 49 21 18 49 18 17 48 17 16 48 15 16 47 19 18 49 21 18 49 
8 13 45 7 12 44 8 13 45 7 12 44 7 12 44 8 13 45 8 13 51 9 14 54 9 13 58 10 13 64 8 14 66 9 14 72 9 13 76 11 14 81 12 16 87 14 17 96 12 15 94 18 23 117 22 22 122 24 22 119 25 23 120 24 22 119 26 25 119 22 22 118 19 18 98 19 18 96 21 20 90 21 20 86 19 17 80 18 17 74 56 36 87 34 25 72 18 17 59 19 17 57 21 17 54 17 16 48 14 15 46 16 15 47 15 16 47 21 18 47 14 15 46 21 18 49 15 16 47 16 15 46 13 14 42 17 16 48 18 17 48 18 17 49 16 17 47 37 26 56 43 28 57 15 16 44 18 17 48 17 16 48 16 15 47 15 15 49 15 16 46 14 15 46 15 16 47 17 16 48 18 17 48 16 17 47 16 17 48 15 16 47 17 16 47 14 15 46 21 18 49 17 16 47 19 18 50 16 15 46 63 39 65 28 21 52 18 17 48 20 16 49 21 17 50 18 17 49 15 16 47 16 15 47 15 16 47 17 16 48 16 17 48 16 17 48 17 16 48 13 13 47 16 15 47 15 14 46 19 18 49 17 16 48 19 18 49 16 17 48 56 36 64 28 21 52 18 17 49 17 16 48 20 19 51 18 17 49 15 16 47 16 15 46 18 17 49 19 19 47 
7 12 44 7 12 44 8 13 45 7 12 44 8 13 45 9 14 46 7 12 50 8 13 55 9 13 58 9 13 61 10 15 70 9 14 72 10 14 77 12 15 82 11 15 88 13 16 95 11 17 95 19 22 117 21 24 121 25 23 120 24 24 120 24 24 122 25 24 118 24 23 117 18 20 97 19 18 94 20 18 91 19 18 86 20 18 81 18 17 74 56 33 85 33 25 72 18 17 59 19 16 59 18 16 55 16 17 48 14 15 45 14 15 46 16 15 47 17 17 45 13 14 45 20 17 48 15 16 47 16 15 46 12 15 46 18 17 49 18 17 49 19 18 50 15 15 49 37 26 56 42 27 58 15 16 46 18 17 48 17 16 48 17 16 47 14 15 46 14 15 46 15 16 47 15 16 47 16 17 48 19 15 48 16 17 48 15 16 47 15 16 47 14 15 46 14 15 46 20 16 49 18 17 49 18 17 48 16 15 47 63 37 66 27 22 52 17 16 48 18 17 48 17 16 47 16 15 47 15 16 47 15 16 47 15 16 47 17 16 47 16 15 47 16 17 48 18 17 49 13 14 45 17 16 48 12 15 46 19 18 49 18 17 49 19 18 49 16 17 48 56 36 63 28 21 52 18 17 48 18 19 49 19 18 50 17 18 48 16 17 48 17 16 47 18 17 49 20 17 48 
7 12 44 7 12 44 8 13 45 8 13 45 7 12 44 7 11 46 6 11 51 8 13 53 8 12 57 10 14 62 9 15 67 9 14 72 9 13 76 11 14 81 12 16 87 12 15 92 13 16 95 18 21 116 22 22 120 25 23 120 28 24 119 28 24 121 29 25 122 27 23 118 20 19 97 18 20 97 23 19 93 20 19 85 21 20 78 20 16 75 58 35 87 35 26 73 20 19 61 22 20 60 23 19 56 20 17 48 17 18 49 18 17 49 18 17 48 20 19 50 17 16 47 21 18 47 17 16 48 18 17 49 16 15 47 22 18 51 19 18 49 21 17 50 20 16 49 38 27 57 44 29 60 18 17 48 21 18 49 18 17 49 21 18 49 17 16 48 17 18 49 18 17 48 17 16 47 18 17 48 22 19 50 17 16 47 18 17 48 16 15 47 18 17 48 17 16 47 22 19 50 19 18 49 23 20 51 19 18 49 63 37 64 28 21 52 21 18 49 19 18 49 22 19 50 19 18 50 18 17 49 17 16 48 18 17 49 19 18 50 20 17 48 21 18 49 21 18 49 17 16 48 18 17 48 18 17 48 23 18 50 21 18 49 23 18 50 18 17 49 57 37 64 29 23 51 21 18 49 20 19 50 22 19 50 21 18 49 19 18 49 21 18 49 20 19 50 23 20 49 
7 12 44 7 12 44 7 12 44 7 12 44 8 13 45 7 12 44 8 13 51 7 12 52 8 12 57 10 13 64 8 14 66 9 14 72 10 14 77 10 13 80 12 16 87 13 16 95 13 16 95 20 20 118 22 22 120 25 24 118 25 23 120 24 22 121 26 24 121 24 23 117 22 21 99 17 19 96 22 20 93 22 20 85 24 20 79 20 19 76 58 35 87 36 27 74 21 19 59 20 18 58 23 19 56 21 17 50 18 17 49 18 17 48 19 18 49 22 19 50 15 16 46 23 20 49 21 17 52 18 17 48 16 15 47 21 17 50 19 18 49 22 19 48 21 17 50 41 28 58 45 30 59 20 19 50 23 18 50 20 17 48 22 19 50 17 16 47 18 17 48 17 16 47 17 16 47 20 17 48 21 18 49 18 17 48 18 17 48 17 16 48 19 18 49 19 15 48 24 21 52 21 18 49 22 19 50 20 16 49 64 40 66 28 21 54 22 19 50 22 19 50 23 20 51 21 18 49 18 17 48 19 16 47 19 16 47 22 19 50 21 18 49 18 17 48 21 18 49 17 16 48 20 17 48 17 16 47 23 18 48 22 19 50 23 18 50 18 17 49 57 37 65 33 22 54 20 19 50 23 20 51 23 20 51 23 20 51 20 17 48 21 18 49 22 19 50 25 22 53 
7 12 44 8 13 45 7 12 44 8 13 45 7 12 44 7 12 44 7 12 50 8 13 53 9 13 58 10 14 62 8 14 66 9 14 72 10 14 77 12 15 82 11 15 88 14 17 96 11 17 95 20 21 114 23 23 119 25 23 120 26 25 119 24 24 120 27 26 120 24 23 116 21 20 98 19 18 98 22 18 92 22 20 85 23 19 80 18 17 74 56 36 89 37 25 73 20 17 60 24 19 60 21 19 56 20 16 49 18 17 49 18 17 48 18 17 48 22 19 50 17 16 47 23 20 51 18 17 49 19 18 50 17 18 49 21 18 49 21 18 49 21 20 51 18 17 48 41 28 56 46 30 59 19 18 49 21 18 49 20 17 48 21 18 49 18 17 48 18 18 46 16 17 47 18 17 48 18 17 48 22 19 50 19 18 49 18 17 48 15 16 46 20 17 48 20 17 48 22 19 50 19 19 47 23 20 51 18 17 48 63 39 65 30 21 52 21 20 51 22 19 48 22 19 50 21 18 49 16 17 47 18 17 49 18 17 49 21 18 49 21 17 50 21 18 49 21 18 49 18 17 49 21 18 49 18 17 49 24 19 51 22 19 50 24 19 51 21 17 50 58 38 65 33 22 52 23 18 50 24 19 51 23 20 51 22 19 50 21 18 49 22 19 50 23 20 51 25 20 52 
8 13 45 8 13 45 8 13 45 7 12 44 7 12 44 7 11 46 7 12 52 7 12 52 9 13 58 9 13 61 8 14 66 9 14 72 10 14 77 9 12 79 11 15 86 13 17 91 12 15 96 21 21 117 22 22 118 25 24 118 26 24 121 25 23 120 26 25 118 26 22 117 20 19 97 20 19 97 22 19 90 20 19 85 23 19 80 19 18 75 58 35 87 37 25 75 20 19 61 21 19 58 23 19 54 19 18 49 17 16 47 17 16 47 18 17 48 21 18 49 16 15 46 22 19 50 18 17 48 18 17 48 17 17 45 19 18 50 21 18 49 22 19 48 19 18 49 40 27 55 46 29 61 18 17 48 22 19 50 19 18 50 18 17 48 17 16 47 17 16 47 17 16 48 17 16 48 18 17 49 22 17 49 18 17 48 18 17 49 17 16 48 17 18 48 16 15 47 22 19 50 19 18 49 20 19 50 19 18 49 63 39 65 27 20 51 23 18 50 20 17 48 22 17 49 19 18 50 19 18 50 18 17 49 17 18 48 20 17 48 18 17 48 20 17 48 19 18 49 17 16 48 18 17 48 17 16 47 23 18 50 20 17 48 23 20 51 20 16 49 58 38 65 32 23 52 23 18 50 22 19 50 23 20 51 22 19 50 18 17 48 20 17 48 22 19 50 24 19 51 
7 12 44 8 13 45 9 14 46 7 12 44 7 12 44 8 13 45 8 13 51 7 12 54 9 14 56 10 14 62 9 15 67 11 16 74 10 14 77 10 13 80 12 16 87 13 16 95 13 16 93 20 20 116 19 21 121 24 25 118 25 24 118 23 23 119 26 25 119 26 22 116 29 23 97 27 23 100 32 22 93 29 22 90 30 25 83 29 21 80 58 36 85 42 30 76 28 21 63 30 24 62 29 22 56 27 22 52 26 21 51 27 20 51 27 22 52 28 21 52 24 21 52 29 22 53 26 20 54 26 21 51 26 21 51 29 22 53 27 22 52 28 23 53 27 20 51 42 27 56 52 33 63 27 22 52 29 22 53 27 22 54 27 20 51 25 22 51 26 21 51 24 19 51 26 21 53 26 21 53 30 23 54 26 21 51 26 21 53 24 19 51 26 21 51 24 19 51 30 23 54 28 24 51 29 22 53 25 20 50 63 40 66 37 26 56 29 23 51 29 22 53 28 21 54 28 21 52 26 21 53 26 21 53 26 21 51 29 22 55 26 21 53 27 23 50 28 23 53 25 20 52 26 21 51 25 22 53 29 22 53 29 23 51 29 24 54 26 21 53 62 39 67 40 27 57 30 23 54 29 22 53 32 23 52 32 23 54 28 23 53 27 22 52 30 23 54 33 24 55 
8 13 45 8 13 45 7 12 44 8 13 45 8 13 45 7 12 44 7 12 50 9 14 54 9 13 58 10 14 62 8 14 66 9 14 72 10 14 77 11 14 81 12 16 87 13 16 93 11 17 95 21 21 117 20 25 119 24 25 118 26 25 119 24 22 119 28 24 119 34 24 120 57 32 100 56 34 96 60 36 96 57 36 95 57 36 92 56 33 89 73 44 92 62 39 85 56 34 72 55 36 66 55 35 62 56 33 61 53 33 61 55 35 62 55 35 62 57 34 63 55 35 63 58 35 63 55 35 62 55 35 63 54 34 62 55 35 62 57 34 63 56 33 62 57 34 63 63 38 67 68 39 67 55 35 63 57 34 63 55 35 63 58 35 63 55 35 62 58 33 63 57 34 62 55 35 60 57 34 60 58 35 63 57 34 62 58 35 63 57 34 62 57 34 62 57 34 62 59 36 62 57 34 63 58 35 63 57 34 62 75 45 69 60 35 64 58 35 63 59 36 64 61 38 66 57 34 60 55 35 62 57 34 63 57 34 62 57 34 62 56 33 61 57 34 62 57 34 62 57 34 63 55 35 62 56 33 61 59 36 64 54 34 61 59 36 64 57 32 64 70 42 67 59 36 65 56 36 64 58 35 63 59 36 64 58 35 63 57 34 62 57 34 62 61 38 66 61 36 65 
7 12 44 7 12 44 7 12 44 8 13 45 7 12 44 7 12 44 7 12 50 8 13 53 9 13 58 10 14 62 8 14 66 9 14 70 10 14 77 11 14 81 12 16 87 13 16 93 13 16 95 21 21 117 22 22 120 25 24 118 25 24 118 24 22 119 28 24 119 24 23 116 18 20 97 19 18 96 23 20 91 21 21 85 22 18 79 18 17 75 55 35 88 35 26 73 21 18 61 20 18 58 19 18 52 21 16 48 16 15 46 17 16 47 16 17 48 20 17 48 16 15 47 19 18 49 17 16 48 16 15 46 15 16 46 18 17 48 18 17 48 18 17 48 18 17 48 36 25 55 45 29 58 17 16 48 19 18 49 18 17 48 20 17 48 15 16 47 16 15 47 15 16 47 16 17 47 17 18 49 18 18 46 17 16 48 17 16 47 15 16 47 17 16 47 16 17 47 19 18 49 17 16 47 21 18 49 18 17 48 62 39 65 27 20 51 21 18 49 20 17 48 21 18 49 18 17 48 16 15 47 17 16 48 17 16 48 18 17 48 17 16 47 18 18 46 17 16 47 15 16 47 18 17 49 15 16 46 20 20 48 17 16 47 22 19 50 17 16 48 56 36 63 31 22 51 22 19 50 23 18 50 23 20 51 23 18 48 19 18 49 22 17 47 24 18 52 24 19 51 
7 12 44 7 12 44 8 13 45 8 13 45 7 12 44 7 12 44 7 12 50 9 14 54 9 13 58 9 13 61 8 14 66 9 14 70 10 14 77 11 14 81 12 16 87 12 15 92 13 16 95 20 20 116 21 21 119 25 24 118 25 24 118 25 24 118 28 24 118 25 24 117 20 19 97 20 19 97 25 19 91 22 19 86 25 21 80 21 18 75 59 36 88 36 27 74 21 18 61 22 20 59 23 19 54 22 19 50 18 17 48 18 17 48 19 18 49 22 17 49 18 17 49 23 20 49 21 18 49 21 18 47 20 17 48 22 19 50 23 18 50 22 19 50 22 19 50 40 27 55 50 31 59 20 17 48 23 20 51 22 19 50 23 20 51 17 16 47 18 17 48 17 16 48 21 18 49 21 18 49 22 19 50 22 19 50 21 18 49 17 16 47 21 18 49 20 17 48 23 18 50 23 18 50 23 18 48 19 18 49 63 39 65 33 22 52 23 20 51 22 19 50 23 18 50 22 19 50 21 18 49 18 17 48 20 17 48 22 19 50 22 19 50 23 20 51 21 18 49 18 17 48 20 17 48 18 17 48 21 18 49 22 19 50 25 20 50 22 19 50 57 37 64 34 23 53 23 20 51 24 19 51 27 20 51 23 18 50 24 19 51 24 21 50 27 20 53 27 20 51 
6 11 43 7 12 44 7 12 44 8 13 45 7 12 44 6 11 43 7 12 50 8 13 53 8 12 57 9 13 61 8 14 66 9 14 70 10 14 77 11 14 81 11 15 86 12 15 92 12 15 94 20 21 114 22 22 120 25 24 118 25 23 120 24 22 119 28 24 119 24 23 116 21 20 98 19 18 98 22 19 90 21 21 85 23 19 80 18 17 75 58 35 87 38 26 74 20 18 58 20 18 57 20 19 53 20 16 49 17 16 48 17 16 48 18 17 49 21 18 49 16 17 48 22 18 51 18 17 49 17 16 47 17 17 45 21 18 49 22 19 50 20 19 50 22 19 50 37 27 54 50 31 59 18 17 48 22 19 50 19 18 49 21 18 49 16 17 47 18 17 49 19 16 47 20 17 48 18 17 49 22 19 50 18 17 48 18 17 49 17 16 47 18 17 48 17 16 48 21 18 49 22 17 47 23 20 51 17 18 48 63 39 65 30 21 52 21 18 49 22 19 50 21 18 49 20 17 48 17 16 47 17 16 47 18 17 48 21 18 49 18 17 48 20 17 48 17 16 47 17 16 47 18 17 48 17 16 47 22 19 50 21 18 49 22 19 50 17 16 47 56 36 63 32 23 52 22 19 50 23 18 50 25 20 50 24 19 49 22 18 51 23 18 48 26 21 53 27 20 51 
8 13 45 7 12 44 8 13 45 7 12 44 7 12 44 8 13 45 7 12 50 9 14 54 10 14 59 11 15 63 8 14 66 9 14 70 11 15 78 11 14 81 11 15 86 11 14 91 13 16 95 20 20 116 23 23 119 25 24 118 24 23 117 24 23 117 28 24 119 25 24 117 21 20 98 18 20 97 22 18 92 21 18 85 24 20 79 19 18 75 58 35 87 38 26 72 21 18 61 24 19 60 23 19 54 22 17 49 20 17 48 20 17 48 19 18 50 23 18 50 16 17 48 23 20 51 21 18 49 18 17 48 19 18 49 22 19 50 23 18 50 22 19 50 21 18 49 40 27 55 48 32 59 21 18 49 22 19 50 22 19 50 22 19 50 17 18 48 19 18 50 17 16 48 20 17 48 20 17 48 22 19 50 18 17 49 19 18 49 18 17 49 21 18 49 18 17 48 24 19 51 21 18 49 23 18 48 21 18 49 64 38 67 31 22 53 21 18 49 22 18 51 22 19 50 21 17 50 18 17 48 17 16 47 18 17 48 21 18 49 21 18 49 21 18 49 22 19 50 17 16 47 20 17 48 18 17 48 22 19 50 21 18 49 23 20 51 21 17 50 57 37 64 34 23 53 24 19 51 25 20 52 27 20 51 25 20 50 24 19 51 26 19 52 27 22 52 30 21 52 
7 12 44 7 12 44 8 13 45 8 13 45 7 12 44 7 12 44 8 13 51 8 13 53 9 13 58 9 13 61 9 15 67 9 14 70 10 14 77 11 14 81 11 15 86 12 15 92 11 14 93 19 20 113 21 21 119 24 22 119 25 24 118 22 22 118 26 25 118 23 22 116 19 18 96 18 17 95 23 20 89 19 20 85 19 18 78 17 16 74 54 34 85 34 25 72 18 15 60 18 18 56 19 18 52 17 16 47 14 15 45 15 16 47 14 15 46 17 16 50 14 15 46 21 17 50 16 15 47 15 14 48 14 15 46 17 16 47 17 16 47 18 17 49 17 16 48 36 25 55 46 30 59 17 16 48 18 17 48 17 16 48 18 17 49 14 15 46 15 16 47 14 15 46 16 15 47 14 15 46 20 17 48 15 16 47 15 16 47 14 15 46 16 15 46 15 14 46 19 18 49 18 17 48 19 18 49 17 16 48 62 39 65 25 20 52 19 18 50 18 17 48 20 17 48 19 16 47 15 16 47 14 15 46 14 14 48 17 16 48 17 16 47 16 17 47 17 16 47 14 15 46 16 15 47 14 15 45 20 17 48 19 16 47 21 18 49 15 16 47 55 35 62 31 22 51 21 18 49 22 17 49 22 19 50 24 19 49 21 18 49 22 19 50 27 20 53 27 20 53 
7 12 44 8 13 45 7 12 44 7 12 44 8 13 45 8 13 45 7 12 50 8 13 53 9 13 58 10 14 62 7 13 65 9 14 70 10 14 77 11 14 81 11 15 86 12 15 92 13 16 95 18 21 116 21 24 119 23 23 119 25 24 118 23 23 119 27 26 120 23 24 116 18 20 97 18 17 97 21 20 90 20 19 85 22 18 79 18 17 75 55 35 86 34 25 72 19 18 60 21 19 59 19 17 54 18 17 49 16 15 47 18 17 49 17 16 47 20 17 48 15 16 47 19 18 49 17 16 48 15 16 47 15 14 46 18 17 48 18 17 48 18 17 48 16 17 47 36 25 55 49 30 60 16 15 47 19 18 49 17 16 47 21 18 49 15 16 47 17 16 48 15 14 46 17 16 48 17 16 47 17 16 50 17 16 47 17 16 48 15 16 47 16 15 47 16 17 47 21 18 49 17 16 48 18 17 48 17 16 47 61 38 64 27 20 51 18 17 48 18 17 48 18 18 46 17 16 47 16 15 46 17 16 47 16 15 46 18 17 48 17 16 47 17 16 47 19 16 47 14 15 46 17 16 48 15 16 46 21 18 49 18 17 48 22 19 50 17 16 48 57 37 64 32 23 52 23 18 50 24 19 51 25 20 52 24 19 49 24 19 49 25 20 52 26 21 51 27 20 51 
9 14 46 7 12 44 7 12 44 7 12 44 7 12 44 8 13 45 8 13 51 9 14 54 8 12 57 10 14 62 8 14 66 8 13 69 10 14 77 11 14 81 11 15 86 13 16 93 12 15 92 20 20 116 21 21 119 24 24 120 25 23 120 20 23 120 25 24 118 23 22 116 18 20 95 16 18 95 22 18 92 17 18 82 18 18 78 17 16 74 56 33 85 33 24 69 15 17 58 18 17 57 18 16 53 17 16 48 12 13 44 14 15 46 14 15 46 18 17 48 14 15 46 18 17 48 15 16 47 14 15 46 14 15 46 17 16 47 17 18 48 17 16 48 16 17 48 38 25 55 45 29 58 16 17 48 17 16 47 16 15 46 19 16 47 15 16 46 15 16 47 14 14 48 14 15 46 15 16 47 17 16 48 16 15 47 15 16 47 14 15 46 15 16 47 13 14 45 19 18 50 17 16 47 18 17 49 16 17 48 62 37 66 25 20 50 16 17 47 18 17 48 18 17 48 17 16 47 13 16 47 14 15 46 14 15 46 18 17 48 16 17 48 16 16 50 16 17 48 14 15 46 16 17 48 14 15 46 17 16 50 17 16 48 20 17 48 15 16 47 56 36 63 32 23 52 22 19 50 23 18 50 25 20 52 24 19 51 24 19 51 24 19 51 27 20 53 28 21 54 
7 12 44 8 13 45 7 12 44 8 13 45 8 13 45 7 12 44 7 12 50 9 14 54 9 13 58 10 14 62 8 14 66 9 14 70 10 14 77 11 14 81 11 15 86 13 16 93 13 16 95 20 20 116 22 22 120 24 24 120 27 23 118 24 24 120 26 25 119 24 23 117 21 18 95 19 18 98 22 18 92 20 19 85 22 18 79 17 18 75 57 34 86 38 26 72 21 18 61 20 18 57 22 18 53 19 18 49 16 15 46 17 16 47 17 16 47 22 19 50 15 16 47 22 19 50 17 16 48 15 16 46 14 15 45 18 17 48 21 18 49 21 18 49 20 17 48 36 25 55 47 30 62 17 16 48 21 18 49 20 17 46 20 17 48 16 15 46 16 15 49 15 16 46 17 18 49 17 16 47 18 17 49 17 16 47 17 16 48 15 16 47 17 16 47 17 16 47 21 18 49 20 19 50 19 19 47 19 15 48 62 37 66 27 22 52 20 17 48 18 17 48 19 16 47 16 17 47 17 16 47 17 16 47 17 16 47 19 18 49 18 17 48 18 17 48 18 17 48 16 15 47 17 16 48 17 16 47 22 19 50 20 17 48 22 19 50 20 17 48 60 37 65 34 23 53 26 19 53 26 19 53 29 19 54 26 19 53 26 18 55 29 19 54 32 20 56 35 21 54 
