P3
100 50
255
0 0 0 0 0 0 0 0 0 0 0 0 0 0 0 0 0 0 0 0 0 0 0 0 0 0 0 0 0 0 0 0 0 0 0 0 0 0 0 0 0 0 0 0 0 0 0 0 0 0 0 0 0 0 0 0 0 0 0 0 0 0 0 0 0 0 0 0 0 0 0 0 0 0 0 0 0 0 0 0 0 0 0 0 0 0 0 0 0 0 0 0 0 0 0 0 0 0 0 0 0 0 0 0 0 0 0 0 0 0 0 0 0 0 0 0 0 0 0 0 0 0 0 0 0 0 0 0 0 0 0 0 0 0 0 0 0 0 0 0 0 0 0 0 0 0 0 0 0 0 0 0 0 0 0 0 0 0 0 0 0 0 0 0 0 0 0 0 0 0 0 0 0 0 0 0 0 0 0 34 0 0 126 0 0 158 1 0 254 0 0 254 0 0 254 0 0 254 1 1 255 0 0 254 0 0 254 0 1 180 1 0 106 4 8 71 10 15 34 11 16 35 10 17 35 11 21 33 12 43 35 13 28 35 12 15 34 10 15 34 12 15 34 12 15 34 11 12 33 3 4 9 0 0 0 0 0 0 0 0 0 1 0 16 1 0 18 1 0 226 0 0 254 0 0 254 0 0 254 0 0 254 0 0 254 0 0 254 0 0 240 1 1 135 1 0 120 2 0 3 
0 0 0 0 0 0 0 0 0 0 0 0 0 0 0 0 0 0 0 0 0 0 0 0 0 0 0 0 0 0 0 0 0 0 0 0 0 0 0 0 0 0 0 0 0 0 0 0 0 0 0 0 0 0 0 0 0 0 0 0 0 0 0 0 0 0 0 0 0 0 0 0 0 0 0 0 0 0 0 0 0 0 0 0 0 0 0 0 0 0 0 0 0 0 0 0 0 0 0 0 0 0 0 0 0 0 0 0 0 0 0 0 0 0 0 0 0 0 0 0 0 0 0 0 0 0 0 0 0 0 0 0 0 0 0 0 0 0 0 0 0 0 0 0 0 0 0 0 0 0 0 0 0 0 0 0 0 0 0 0 0 0 0 0 0 0 0 0 0 0 0 0 0 0 0 0 0 0 0 36 0 1 134 0 0 163 0 0 254 0 0 254 0 0 254 0 0 254 0 0 254 1 0 254 0 0 254 0 0 178 0 0 106 3 9 69 14 17 36 11 16 35 12 18 34 13 23 35 13 45 34 12 27 34 13 16 35 13 16 35 12 15 34 13 16 35 13 14 35 4 3 9 0 0 0 0 0 0 0 0 0 1 0 16 1 0 18 1 0 226 0 0 254 0 0 254 0 0 254 0 0 254 0 0 254 0 1 252 0 0 240 3 1 136 0 0 122 3 1 4 
0 0 0 0 0 0 0 0 0 0 0 0 0 0 0 0 0 0 0 0 0 0 0 0 0 0 0 0 0 0 0 0 0 0 0 0 0 0 0 0 0 0 0 0 0 0 0 0 0 0 0 0 0 0 0 0 0 0 0 0 0 0 0 0 0 0 0 0 0 0 0 0 0 0 0 0 0 0 0 0 0 0 0 0 0 0 0 0 0 0 0 0 0 0 0 0 0 0 0 0 0 0 0 0 0 0 0 0 0 0 0 0 0 0 0 0 0 0 0 0 0 0 0 0 0 0 0 0 0 0 0 0 0 0 0 0 0 0 0 0 0 0 0 0 0 0 0 0 0 0 0 0 0 0 0 0 0 0 0 0 0 0 0 0 0 0 0 0 0 0 0 0 0 0 0 0 0 0 0 36 0 1 143 0 0 170 0 0 254 0 0 254 0 0 254 0 0 254 0 0 254 0 0 254 0 0 254 0 0 178 0 0 106 6 8 69 12 18 34 11 16 35 10 15 34 12 22 32 12 45 36 12 26 35 12 15 34 12 15 34 11 16 35 11 14 33 11 12 33 4 3 9 0 0 0 0 0 0 0 0 0 1 0 16 1 0 18 1 0 226 0 0 254 0 0 254 0 0 254 0 0 254 0 0 254 0 0 254 0 0 241 0 0 134 0 0 118 1 1 3 
0 0 0 0 0 0 0 0 0 0 0 0 0 0 0 0 0 0 0 0 0 0 0 0 0 0 0 0 0 0 0 0 0 0 0 0 0 0 0 0 0 0 0 0 0 0 0 0 0 0 0 0 0 0 0 0 0 0 0 0 0 0 0 0 0 0 0 0 0 0 0 0 0 0 0 0 0 0 0 0 0 0 0 0 0 0 0 0 0 0 0 0 0 0 0 0 0 0 0 0 0 0 0 0 0 0 0 0 0 0 0 0 0 0 0 0 0 0 0 0 0 0 0 0 0 0 0 0 0 0 0 0 0 0 0 0 0 0 0 0 0 0 0 0 0 0 0 0 0 0 0 0 0 0 0 0 0 0 0 0 0 0 0 0 0 0 0 0 0 0 2 1 0 0 0 0 0 1 1 39 0 0 152 0 0 178 0 1 252 0 1 254 0 0 254 0 0 254 1 0 254 1 0 252 2 1 255 0 0 182 0 0 106 6 8 69 14 17 34 14 17 34 11 17 33 11 23 35 12 45 36 12 26 35 11 16 35 13 16 35 11 16 35 13 14 34 12 13 34 4 3 9 0 0 0 0 0 0 0 0 0 1 0 16 1 0 18 1 0 226 0 0 254 0 0 254 0 0 254 0 0 254 1 1 255 1 0 254 0 0 240 1 1 135 0 1 119 3 1 2 
0 0 0 0 0 0 0 0 0 0 0 0 0 0 0 0 0 0 0 0 0 0 0 0 0 0 0 0 0 0 0 0 0 0 0 0 0 0 0 0 0 0 0 0 0 0 0 0 0 0 0 0 0 0 0 0 0 0 0 0 0 0 0 0 0 0 0 0 0 0 0 0 0 0 0 0 0 0 0 0 0 0 0 0 0 0 0 0 0 0 0 0 0 0 0 0 0 0 0 0 0 0 0 0 0 0 0 0 0 0 0 0 0 0 0 0 0 0 0 0 0 0 0 0 0 0 0 0 0 0 0 0 0 0 0 0 0 0 0 0 0 0 0 0 0 0 0 0 0 0 0 0 0 0 0 0 0 0 0 0 0 0 0 0 2 0 0 0 0 0 2 0 0 0 4 6 1 1 4 39 0 0 146 0 0 174 0 0 254 0 0 254 0 0 254 0 0 254 1 0 254 1 0 252 0 0 254 0 0 178 0 0 100 6 7 71 11 16 35 11 17 33 11 17 33 11 24 33 13 44 36 12 26 35 10 15 34 11 16 35 12 15 34 13 14 34 12 13 34 3 4 9 0 0 0 0 0 0 0 0 0 1 0 16 1 0 18 1 0 226 0 0 254 0 0 254 1 1 255 0 0 254 0 0 254 0 0 254 0 0 240 2 1 131 0 0 114 1 0 0 
0 0 0 0 0 0 0 0 0 0 0 0 0 0 0 0 0 0 0 0 0 0 0 0 0 0 0 0 0 0 0 0 0 0 0 0 0 0 0 0 0 0 0 0 0 0 0 0 0 0 0 0 0 0 0 0 0 0 0 0 0 0 0 0 0 0 0 0 0 0 0 0 0 0 0 0 0 0 0 0 0 0 0 0 0 0 0 0 0 0 0 0 0 0 0 0 0 0 0 0 0 0 0 0 0 0 0 0 0 0 0 0 0 0 0 0 0 0 0 0 0 0 0 0 0 0 0 0 0 0 0 0 0 0 0 0 0 0 0 0 0 0 0 0 0 0 0 0 0 0 0 0 0 0 0 0 0 0 0 0 0 0 0 0 0 0 0 0 0 0 0 1 3 0 8 14 2 5 11 35 1 0 136 0 2 165 0 0 254 0 0 254 0 0 254 0 0 254 0 0 254 0 0 254 0 0 254 0 0 172 3 0 93 6 9 64 12 18 34 11 17 33 12 18 34 11 24 33 13 44 36 12 26 35 11 16 35 13 16 35 11 16 35 13 14 34 13 14 35 3 4 9 0 0 0 0 0 0 0 0 0 1 0 16 1 0 18 1 0 226 0 0 254 0 0 254 0 0 254 0 1 252 0 0 254 0 0 254 0 0 238 0 0 120 0 0 106 1 1 1 
0 0 0 0 0 0 0 0 0 0 0 0 0 0 0 0 0 0 0 0 0 0 0 0 0 0 0 0 0 0 0 0 0 0 0 0 0 0 0 0 0 0 0 0 0 0 0 0 0 0 0 0 0 0 0 0 0 0 0 0 0 0 0 0 0 0 0 0 0 0 0 0 0 0 0 0 0 0 0 0 0 0 0 0 0 0 0 0 0 0 0 0 0 0 0 0 0 0 0 0 0 0 0 0 0 0 0 0 0 0 0 0 0 0 0 0 0 0 0 0 0 0 0 0 0 0 0 0 0 0 0 0 0 0 0 0 0 0 0 0 0 0 0 0 0 0 0 0 0 0 0 0 0 0 0 0 0 0 0 0 0 0 0 0 0 0 0 0 0 0 0 0 0 0 4 6 1 2 6 35 0 0 134 0 1 164 0 0 254 0 0 254 0 0 254 0 0 254 0 1 252 0 0 254 0 2 255 0 0 176 0 0 100 7 9 66 13 19 35 12 17 36 14 17 34 14 24 34 12 45 36 11 25 34 13 16 35 13 16 35 11 16 35 12 15 34 12 13 34 4 3 9 0 0 0 0 0 0 0 0 0 1 0 16 1 0 18 1 0 226 0 0 254 0 0 254 0 0 254 0 0 254 0 0 254 1 0 254 0 0 238 1 0 127 0 0 112 1 1 3 
0 0 0 0 0 0 0 0 0 0 0 0 0 0 0 0 0 0 0 0 0 0 0 0 0 0 0 0 0 0 0 0 0 0 0 0 0 0 0 0 0 0 0 0 0 0 0 0 0 0 0 0 0 0 0 0 0 0 0 0 0 0 0 0 0 0 0 0 0 0 0 0 0 0 0 0 0 0 0 0 0 0 0 0 0 0 0 0 0 0 0 0 0 0 0 0 0 0 0 0 0 0 0 0 0 0 0 0 0 0 0 0 0 0 0 0 0 0 0 0 0 0 0 0 0 0 0 0 0 0 0 0 0 0 0 0 0 0 0 0 0 0 0 0 0 0 0 0 0 0 0 0 0 0 0 0 0 0 0 0 0 0 0 0 0 0 0 0 0 0 0 0 0 0 0 0 0 0 1 32 1 0 136 1 0 166 0 0 254 0 0 254 0 0 254 1 0 254 1 0 252 0 0 254 0 0 254 0 0 178 0 2 109 7 9 70 12 20 33 14 17 34 11 18 34 12 25 34 12 45 36 11 24 33 13 16 35 12 15 34 11 16 35 11 14 33 11 13 34 4 3 9 0 0 0 0 0 0 0 0 0 1 0 16 1 0 18 1 0 226 0 0 254 0 0 254 0 0 251 0 0 253 0 0 254 0 0 254 0 0 240 1 0 136 0 1 119 1 1 3 
0 0 0 0 0 0 0 0 0 0 0 0 0 0 0 0 0 0 0 0 0 0 0 0 0 0 0 0 0 0 0 0 0 0 0 0 0 0 0 0 0 0 0 0 0 0 0 0 0 0 0 0 0 0 0 0 0 0 0 0 0 0 0 0 0 0 0 0 0 0 0 0 0 0 0 0 0 0 0 0 0 0 0 0 0 0 0 0 0 0 0 0 0 0 0 0 0 0 0 0 0 0 0 0 0 0 0 0 0 0 0 0 0 0 0 0 0 0 0 0 0 0 0 0 0 0 0 0 0 0 0 0 0 0 0 0 0 0 0 0 0 0 0 0 0 0 0 0 0 0 0 0 0 0 0 0 1 1 1 0 0 0 0 0 0 0 0 0 0 0 0 1 1 1 0 0 2 0 0 36 2 0 136 3 0 167 1 0 251 1 0 251 0 0 254 1 0 254 1 0 254 1 0 254 0 0 254 0 0 176 0 0 100 6 8 65 12 18 32 11 17 33 11 17 33 14 24 34 12 43 35 12 25 34 13 16 35 13 16 35 12 17 36 12 15 34 11 13 34 3 4 9 0 0 0 0 0 0 0 0 0 1 0 16 1 0 18 1 0 226 0 0 254 0 0 254 0 0 254 0 0 254 0 0 254 1 0 254 0 0 236 1 0 127 0 0 112 0 0 2 
0 0 0 0 0 0 0 0 0 0 0 0 0 0 0 0 0 0 0 0 0 0 0 0 0 0 0 0 0 0 0 0 0 0 0 0 0 0 0 0 0 0 0 0 0 0 0 0 0 0 0 0 0 0 0 0 0 0 0 0 0 0 0 0 0 0 0 0 0 0 0 0 0 0 0 0 0 0 0 0 0 0 0 0 0 0 0 0 0 0 0 0 0 0 0 0 0 0 0 0 0 0 0 0 0 0 0 0 0 0 0 0 0 0 0 0 0 0 0 0 0 0 0 0 0 0 0 0 0 0 0 0 0 0 0 0 0 0 0 0 0 0 0 0 0 0 0 0 0 0 0 0 0 0 0 0 1 1 1 0 0 0 1 1 0 0 0 0 0 0 0 0 0 0 0 0 0 0 0 36 0 0 134 1 1 161 0 0 248 1 0 251 1 1 255 0 0 254 0 0 254 0 1 252 0 0 254 2 0 174 0 0 92 5 15 64 12 31 35 11 32 35 13 28 35 12 29 36 12 43 35 12 25 34 11 16 35 10 15 34 13 16 35 13 14 34 11 13 34 3 4 9 0 0 0 0 0 0 0 0 0 1 0 16 1 0 18 1 0 226 0 0 254 0 0 254 0 1 254 1 0 254 0 0 254 0 0 254 0 0 238 4 0 120 1 0 104 1 1 1 
0 0 0 0 0 0 0 0 0 0 0 0 0 0 0 0 0 0 0 0 0 0 0 0 0 0 0 0 0 0 0 0 0 0 0 0 0 0 0 0 0 0 0 0 0 0 0 0 0 0 0 0 0 0 0 0 0 0 0 0 0 0 0 0 0 0 0 0 0 0 0 0 0 0 0 0 0 0 0 0 0 0 0 0 0 0 0 0 0 0 0 0 0 0 0 0 0 0 0 0 0 0 0 0 0 0 0 0 0 0 0 0 0 0 0 0 0 0 0 0 0 0 0 0 0 0 0 0 0 0 0 0 0 0 0 0 0 0 0 0 0 0 0 0 0 0 0 0 0 0 0 0 0 0 0 0 0 0 0 0 0 0 0 0 0 0 0 0 1 1 1 0 0 0 1 1 1 0 0 31 1 0 136 1 0 164 0 0 254 0 0 254 0 0 254 0 0 254 0 0 254 0 0 254 1 0 254 0 0 173 0 0 92 7 20 64 10 41 35 11 40 35 13 44 38 11 40 35 13 45 34 13 26 35 13 16 33 11 17 33 13 16 35 13 14 34 12 13 34 3 2 8 0 0 0 0 0 0 0 0 0 1 0 8 1 0 8 2 1 225 0 0 254 0 0 254 0 0 254 0 0 254 0 0 254 0 0 254 0 0 238 0 1 127 0 1 112 2 2 4 
0 0 0 0 0 0 0 0 0 0 0 0 0 0 0 0 0 0 0 0 0 0 0 0 0 0 0 0 0 0 0 0 0 0 0 0 0 0 0 0 0 0 0 0 0 0 0 0 0 0 0 0 0 0 0 0 0 0 0 0 0 0 0 0 0 0 0 0 0 0 0 0 0 0 0 0 0 0 0 0 0 0 0 0 0 0 0 0 0 0 0 0 0 0 0 0 0 0 0 0 0 0 0 0 0 0 0 0 0 0 0 0 0 0 0 0 0 0 0 0 0 0 0 0 0 0 0 0 0 0 0 0 0 0 0 0 0 0 0 0 0 0 0 0 0 0 0 0 0 0 0 0 0 0 0 0 0 0 0 0 0 0 0 0 0 0 0 0 0 0 0 0 0 0 0 0 0 0 0 36 1 0 136 1 0 164 0 0 254 0 0 254 0 0 254 0 0 254 0 0 254 0 0 254 1 0 254 0 0 172 1 0 93 7 8 62 12 18 34 11 18 34 12 18 34 11 24 33 13 44 36 12 25 34 12 15 32 12 15 34 11 16 35 10 15 34 12 13 34 3 2 8 0 0 0 0 0 0 0 0 0 0 0 0 0 0 0 0 0 222 0 0 254 0 0 254 0 0 254 0 0 254 0 0 254 0 0 254 0 0 240 0 0 134 0 0 118 0 0 2 
0 0 0 0 0 0 0 0 0 0 0 0 0 0 0 0 0 0 0 0 0 0 0 0 0 0 0 0 0 0 0 0 0 0 0 0 0 0 0 0 0 0 0 0 0 0 0 0 0 0 0 0 0 0 0 0 0 0 0 0 0 0 0 0 0 0 0 0 0 0 0 0 0 0 0 0 0 0 0 0 0 0 0 0 0 0 0 0 0 0 0 0 0 0 0 0 0 0 0 0 0 0 0 0 0 0 0 0 0 0 0 0 0 0 0 0 0 0 0 0 0 0 0 0 0 0 0 0 0 0 0 0 0 0 0 0 0 0 0 0 0 0 0 0 0 0 0 0 0 0 0 0 0 0 0 0 0 0 2 0 0 0 0 0 0 2 2 2 0 0 0 2 2 2 0 0 0 0 0 34 1 0 136 1 0 164 0 0 254 0 0 254 0 0 254 0 0 254 0 0 254 0 0 254 1 0 254 0 0 176 0 1 93 7 8 64 12 17 36 11 18 37 12 17 37 12 24 36 14 45 39 14 24 34 12 17 39 11 16 36 13 16 35 13 15 36 13 13 39 3 4 9 0 0 0 0 0 0 1 1 1 0 0 10 0 0 12 1 1 223 0 0 254 0 0 254 0 0 254 0 0 254 0 0 254 0 0 254 0 0 240 1 0 136 0 0 118 0 0 0 
0 0 0 0 0 0 0 0 0 0 0 0 0 0 0 0 0 0 0 0 0 0 0 0 0 0 0 0 0 0 0 0 0 0 0 0 0 0 0 0 0 0 0 0 0 0 0 0 0 0 0 0 0 0 0 0 0 0 0 0 0 0 0 0 0 0 0 0 0 0 0 0 0 0 0 0 0 0 0 0 0 0 0 0 0 0 0 0 0 0 0 0 0 0 0 0 0 0 0 0 0 0 0 0 0 0 0 0 0 0 0 0 0 0 0 0 0 0 0 0 0 0 0 0 0 0 0 0 0 0 0 0 0 0 0 0 0 0 0 0 0 0 0 0 0 0 0 0 0 0 0 0 0 0 0 0 0 0 0 0 0 0 0 0 0 0 0 2 1 1 1 0 0 0 0 0 0 0 1 32 1 0 136 1 0 164 0 0 254 0 0 254 0 0 254 0 0 254 0 0 254 0 0 254 0 0 254 3 1 173 0 0 92 6 8 67 13 20 39 14 16 41 12 16 41 12 24 40 14 44 42 12 26 37 11 16 38 11 15 42 12 16 43 13 14 42 12 13 41 4 3 11 0 0 0 0 0 0 0 0 0 1 0 14 1 0 18 2 1 225 0 0 254 0 0 254 0 0 254 0 0 254 0 0 254 0 0 254 0 0 240 1 1 135 0 1 119 0 0 0 
0 0 0 0 0 0 0 0 0 0 0 0 0 0 0 0 0 0 0 0 0 0 0 0 0 0 0 0 0 0 0 0 0 0 0 0 0 0 0 0 0 0 0 0 0 0 0 0 0 0 0 0 0 0 0 0 0 0 0 0 0 0 0 0 0 0 0 0 0 0 0 0 0 0 0 0 0 0 0 0 0 0 0 0 0 0 0 0 0 0 0 0 0 0 0 0 0 0 0 0 0 0 0 0 0 0 0 0 0 0 0 0 0 0 0 0 0 0 0 0 0 0 0 0 0 0 0 0 0 0 0 0 0 0 0 0 0 0 0 0 0 0 0 0 0 0 0 0 0 0 0 0 0 0 0 0 2 0 1 0 0 0 0 0 0 2 2 2 4 9 3 3 8 2 0 0 0 1 0 34 1 0 136 1 0 164 0 0 254 0 0 254 0 0 254 0 0 254 0 0 254 0 0 254 1 0 254 2 0 171 1 0 93 5 10 68 13 19 41 12 18 42 12 18 40 12 23 41 13 43 45 13 26 42 11 15 42 12 16 43 11 15 42 13 14 42 12 13 43 5 4 10 0 0 2 0 0 0 0 0 0 1 0 16 2 1 17 2 1 227 0 0 254 0 0 254 0 0 254 0 0 254 0 0 254 0 0 254 0 0 240 1 0 136 0 0 120 0 0 0 
0 0 0 0 0 0 0 0 0 0 0 0 0 0 0 0 0 0 0 0 0 0 0 0 0 0 0 0 0 0 0 0 0 0 0 0 0 0 0 0 0 0 0 0 0 0 0 0 0 0 0 0 0 0 0 0 0 0 0 0 0 0 0 0 0 0 0 0 0 0 0 0 0 0 0 0 0 0 0 0 0 0 0 0 0 0 0 0 0 0 0 0 0 0 0 0 0 0 0 0 0 0 0 0 0 0 0 0 0 0 0 0 0 0 0 0 0 0 0 0 0 0 0 0 0 0 0 0 0 0 0 0 0 0 0 0 0 0 0 0 0 0 0 0 0 0 0 0 0 0 0 0 0 0 0 0 0 0 2 0 0 0 0 0 0 2 2 0 8 14 4 6 12 2 0 0 0 0 0 34 1 0 136 1 0 164 0 0 254 0 0 254 0 0 254 0 0 254 0 0 254 0 0 254 0 0 254 0 1 171 0 0 92 6 8 69 14 15 46 13 16 47 12 15 46 15 23 46 14 43 49 10 25 46 12 15 46 12 15 46 12 15 46 14 15 46 13 14 45 3 3 11 0 0 0 0 0 0 1 1 1 1 0 16 1 0 16 1 0 224 0 0 254 0 0 254 0 0 254 0 0 254 0 0 254 0 0 254 0 0 240 1 1 135 0 0 118 0 0 0 
0 0 0 0 0 0 0 0 0 0 0 0 0 0 0 0 0 0 0 0 0 0 0 0 0 0 0 0 0 0 0 0 0 0 0 0 0 0 0 0 0 0 0 0 0 0 0 0 0 0 0 0 0 0 0 0 0 0 0 0 0 0 0 0 0 0 0 0 0 0 0 0 0 0 0 0 0 0 0 0 0 0 0 0 0 0 0 0 0 0 0 0 0 0 0 0 0 0 0 0 0 0 0 0 0 0 0 0 0 0 0 0 0 0 0 0 0 0 0 0 0 0 0 0 0 0 0 0 0 0 0 0 0 0 0 0 0 0 0 0 0 0 0 0 0 0 0 0 0 0 0 0 0 0 0 0 0 0 0 0 0 0 0 0 0 1 3 2 2 4 1 1 3 0 0 0 0 0 0 34 1 0 136 1 0 164 0 0 254 0 0 254 0 0 254 0 0 254 0 0 254 0 0 254 0 1 252 0 0 174 0 0 92 7 9 70 13 16 51 14 19 51 14 17 52 17 22 51 14 45 50 16 28 52 13 16 51 14 17 50 13 16 49 13 16 49 14 14 50 6 3 12 0 0 0 0 0 0 0 0 0 0 0 4 1 0 5 0 0 222 0 0 254 0 0 254 0 0 254 0 0 254 0 0 254 0 0 254 0 0 240 0 0 134 0 0 118 0 0 2 
0 0 0 0 0 0 0 0 0 0 0 0 0 0 0 0 0 0 0 0 0 0 0 0 0 0 0 0 0 0 0 0 0 0 0 0 0 0 0 0 0 0 0 0 0 0 0 0 0 0 0 0 0 0 0 0 0 0 0 0 0 0 0 0 0 0 0 0 0 0 0 0 0 0 0 0 0 0 0 0 0 0 0 0 0 0 0 0 0 0 0 0 0 0 0 0 0 0 0 0 0 0 0 0 0 0 0 0 0 0 0 0 0 0 0 0 0 0 0 0 0 0 0 0 0 0 0 0 0 0 0 0 0 0 0 0 0 0 0 0 0 0 0 0 0 0 0 0 0 0 0 0 0 0 0 0 0 0 2 0 0 0 0 0 0 0 0 0 0 0 0 0 0 2 0 0 0 1 0 34 1 0 136 1 0 164 0 0 254 0 0 254 0 0 254 0 0 254 0 0 254 0 0 254 0 0 251 0 0 172 0 0 92 7 8 73 13 15 54 14 16 55 14 16 55 15 26 54 16 45 53 16 27 55 14 16 55 14 16 55 14 16 55 15 14 56 14 13 55 2 2 10 0 0 0 0 0 0 0 0 0 0 0 0 0 0 2 1 0 224 0 0 254 0 0 254 0 0 254 0 0 254 0 0 254 0 0 254 0 0 240 0 0 134 0 0 118 2 2 4 
0 0 0 0 0 0 0 0 0 0 0 0 0 0 0 0 0 0 0 0 0 0 0 0 0 0 0 0 0 0 0 0 0 0 0 0 0 0 0 0 0 0 0 0 0 0 0 0 0 0 0 0 0 0 0 0 0 0 0 0 0 0 0 0 0 0 0 0 0 0 0 0 0 0 0 0 0 0 0 0 0 0 0 0 0 0 0 0 0 0 0 0 0 0 0 0 0 0 0 0 0 0 0 0 0 0 0 0 0 0 0 0 0 0 0 0 0 0 0 0 0 0 0 0 0 0 0 0 0 0 0 0 0 0 0 0 0 0 0 0 0 0 0 0 0 0 0 0 0 0 0 0 0 0 0 0 1 1 1 0 0 0 0 0 0 0 0 2 0 0 0 0 0 0 5 13 2 4 8 35 1 0 136 1 0 164 0 0 254 0 0 254 0 0 254 0 0 254 0 0 254 0 0 254 0 0 254 0 0 172 0 0 92 9 8 74 14 16 57 15 17 58 15 17 58 16 25 58 16 44 58 13 26 60 13 14 58 13 14 58 14 16 57 15 14 58 14 16 57 4 4 14 0 0 0 0 0 2 0 0 0 1 1 11 1 1 13 1 0 224 0 0 254 0 0 254 0 0 254 0 0 251 0 0 254 0 2 255 0 1 241 0 0 134 1 0 120 3 1 4 
0 0 0 0 0 0 0 0 0 0 0 0 0 0 0 0 0 0 0 0 0 0 0 0 0 0 0 0 0 0 0 0 0 0 0 0 0 0 0 0 0 0 0 0 0 0 0 0 0 0 0 0 0 0 0 0 0 0 0 0 0 0 0 0 0 0 0 0 0 0 0 0 0 0 0 0 0 0 0 0 0 0 0 0 0 0 0 0 0 0 0 0 0 0 0 0 0 0 0 0 0 0 0 0 0 0 0 0 0 0 0 0 0 0 0 0 0 0 0 0 0 0 0 0 0 0 0 0 0 0 0 0 0 0 0 0 0 0 0 0 0 0 0 0 0 0 0 0 0 0 0 0 0 0 0 0 0 0 0 0 0 0 0 0 0 0 0 0 0 0 0 2 2 2 7 15 2 5 11 37 1 0 136 1 0 164 0 0 254 0 0 254 0 0 254 0 0 254 0 0 254 0 0 254 0 0 254 0 0 172 0 0 92 8 8 78 16 17 65 15 16 64 18 14 64 15 19 64 15 43 64 17 27 63 14 14 64 15 15 65 14 16 64 14 16 65 14 14 66 2 4 16 0 0 0 0 0 0 0 0 0 1 0 14 1 0 16 1 0 226 0 0 254 0 0 254 0 0 254 0 1 252 0 0 254 0 0 254 0 0 240 0 0 134 0 0 120 2 0 3 
0 0 0 0 0 0 0 0 0 0 0 0 0 0 0 0 0 0 0 0 0 0 0 0 0 0 0 0 0 0 0 0 0 0 0 0 0 0 0 0 0 0 0 0 0 0 0 0 0 0 0 0 0 0 0 0 0 0 0 0 0 0 0 0 0 0 0 0 0 0 0 0 0 0 0 0 0 0 0 0 0 0 0 0 0 0 0 0 0 0 0 0 0 0 0 0 0 0 0 0 0 0 0 0 0 0 0 0 0 0 0 0 0 0 0 0 0 0 0 0 0 0 0 0 0 0 0 0 0 0 0 0 0 0 0 0 0 0 0 0 0 0 0 0 0 0 0 0 0 0 0 0 0 0 0 0 0 0 0 0 0 0 0 0 0 0 0 0 0 0 0 1 1 0 7 15 2 5 11 37 1 0 136 1 0 164 0 0 254 0 0 254 0 0 254 0 0 254 0 0 254 0 0 254 1 0 254 0 0 169 0 2 93 8 8 80 15 17 68 15 17 68 16 16 68 16 22 70 17 45 69 13 27 66 14 14 66 15 17 68 15 15 67 14 16 67 14 14 68 5 3 16 0 0 0 0 0 0 0 0 0 1 0 16 1 0 18 1 0 226 0 0 254 0 0 254 0 0 254 1 1 255 0 0 254 0 0 253 0 0 240 1 1 135 0 0 122 1 1 3 
0 0 0 0 0 0 0 0 0 0 0 0 0 0 0 0 0 0 0 0 0 0 0 0 0 0 0 0 0 0 0 0 0 0 0 0 0 0 0 0 0 0 0 0 0 0 0 0 0 0 0 0 0 0 0 0 0 0 0 0 0 0 0 0 0 0 0 0 0 0 0 0 0 0 0 0 0 0 0 0 0 0 0 0 0 0 0 0 0 0 0 0 0 0 0 0 0 0 0 0 0 0 0 0 0 0 0 0 0 0 0 0 0 0 0 0 0 0 0 0 0 0 0 0 0 0 0 0 0 0 0 0 0 0 0 0 0 0 0 0 0 0 0 0 0 0 0 0 0 0 0 0 0 0 0 0 0 0 0 0 0 0 0 0 0 0 0 0 0 0 0 2 3 0 8 14 2 6 10 35 1 0 136 1 0 164 0 0 254 0 0 254 0 0 254 0 0 254 0 0 254 0 0 254 0 0 254 0 0 172 0 0 92 9 9 83 16 17 73 16 17 73 16 15 72 14 26 74 14 44 68 16 24 71 16 15 73 16 17 73 17 16 73 16 15 73 15 16 73 4 3 17 0 0 0 0 0 0 0 0 0 1 0 16 1 0 18 1 0 226 0 0 254 0 0 254 0 0 254 1 1 255 0 0 254 0 0 254 0 0 240 0 0 134 0 1 119 1 0 5 
0 0 0 0 0 0 0 0 0 0 0 0 0 0 0 0 0 0 0 0 0 0 0 0 0 0 0 0 0 0 0 0 0 0 0 0 0 0 0 0 0 0 0 0 0 0 0 0 0 0 0 0 0 0 0 0 0 0 0 0 0 0 0 0 0 0 0 0 0 0 0 0 0 0 0 0 0 0 0 0 0 0 0 0 0 0 0 0 0 0 0 0 0 0 0 0 0 0 0 0 0 0 0 0 0 0 0 0 0 0 0 0 0 0 0 0 0 0 0 0 0 0 0 0 0 0 0 0 0 0 0 0 0 0 0 0 0 0 0 0 0 0 0 0 0 0 0 0 0 0 0 0 0 0 0 0 0 0 0 0 0 0 0 0 0 0 0 0 1 1 1 0 0 0 0 2 1 2 2 36 1 0 136 1 0 164 0 0 254 0 0 254 0 0 254 0 0 254 0 0 254 0 0 254 0 0 254 0 0 174 0 0 92 9 9 83 17 16 76 15 17 78 15 15 77 14 23 78 16 43 70 16 18 75 15 15 77 17 16 76 16 14 77 15 15 79 15 13 76 4 3 19 0 0 0 0 0 0 0 0 0 1 0 16 1 0 18 1 0 226 0 0 254 0 0 254 1 1 255 0 1 252 0 0 254 0 0 254 0 0 238 0 0 120 0 0 108 0 0 2 
0 0 0 0 0 0 0 0 0 0 0 0 0 0 0 0 0 0 0 0 0 0 0 0 0 0 0 0 0 0 0 0 0 0 0 0 0 0 0 0 0 0 0 0 0 0 0 0 0 0 0 0 0 0 0 0 0 0 0 0 0 0 0 0 0 0 0 0 0 0 0 0 0 0 0 0 0 0 0 0 0 0 0 0 0 0 0 0 0 0 0 0 0 0 0 0 0 0 0 0 0 0 0 0 0 0 0 0 0 0 0 0 0 0 0 0 0 0 0 0 0 0 0 0 0 0 0 0 0 0 0 0 0 0 0 0 0 0 0 0 0 0 0 0 0 0 0 0 0 0 0 0 0 0 0 0 0 0 0 0 0 0 0 0 0 0 0 0 0 0 0 0 0 0 0 0 0 1 0 34 1 0 136 1 0 164 0 0 254 0 0 254 0 0 254 0 0 254 0 0 254 0 0 254 0 0 254 0 0 168 0 1 93 9 8 88 18 17 85 17 16 84 18 17 83 17 21 84 17 36 78 17 23 83 19 16 85 17 16 86 18 17 85 19 13 83 19 16 85 6 5 23 0 0 0 0 0 0 0 0 0 1 0 16 1 0 18 1 0 226 0 0 254 0 0 254 0 0 254 0 0 254 0 0 254 0 1 252 0 0 238 0 1 119 1 0 104 0 0 0 
0 0 0 0 0 0 0 0 0 0 0 0 0 0 0 0 0 0 0 0 0 0 0 0 0 0 0 0 0 0 0 0 0 0 0 0 0 0 0 0 0 0 0 0 0 0 0 0 0 0 0 0 0 0 0 0 0 0 0 0 0 0 0 0 0 0 0 0 0 0 0 0 0 0 0 0 0 0 0 0 0 0 0 0 0 0 0 0 0 0 0 0 0 0 0 0 0 0 0 0 0 0 0 0 0 0 0 0 0 0 0 0 0 0 0 0 0 0 0 0 0 0 0 0 0 0 0 0 0 0 0 0 0 0 0 0 0 0 0 0 0 0 0 0 0 0 0 0 0 0 0 0 0 0 0 0 0 0 0 0 0 2 0 0 0 1 1 1 0 0 0 0 0 0 0 0 0 1 0 34 1 0 136 1 0 164 0 0 254 0 0 254 0 0 254 0 0 254 0 0 254 0 0 254 0 0 254 0 0 174 0 1 93 11 10 90 24 20 96 22 18 95 23 19 95 22 18 94 23 19 95 25 19 93 23 19 95 25 18 95 20 18 93 22 18 94 22 18 92 7 5 26 0 0 0 0 0 0 0 0 0 1 0 14 1 0 16 1 0 226 0 0 254 0 0 254 0 0 254 0 1 252 1 0 254 1 1 255 0 0 238 0 0 132 1 0 117 2 0 1 
0 0 0 0 0 0 0 0 0 0 0 0 0 0 0 0 0 0 0 0 0 0 0 0 0 0 0 0 0 0 0 0 0 0 0 0 0 0 0 0 0 0 0 0 0 0 0 0 0 0 0 0 0 0 0 0 0 0 0 0 0 0 0 0 0 0 0 0 0 0 0 0 0 0 0 0 0 0 0 0 0 0 0 0 0 0 0 0 0 0 0 0 0 0 0 0 0 0 0 0 0 0 0 0 0 0 0 0 0 0 0 0 0 0 0 0 0 0 0 0 0 0 0 0 0 0 0 0 0 0 0 0 0 0 0 0 0 0 0 0 0 0 0 0 0 0 0 0 0 0 0 0 0 0 0 0 0 0 0 0 0 0 1 1 1 0 0 0 0 0 0 0 0 0 1 1 1 0 0 36 1 0 136 1 0 164 0 0 254 0 0 254 0 0 254 0 0 254 0 0 254 0 0 254 1 1 255 0 0 170 1 0 93 11 9 92 23 19 95 23 19 95 21 19 94 23 19 93 22 20 95 21 19 94 24 20 96 23 19 95 23 19 95 23 19 95 22 18 94 6 5 23 0 0 0 0 0 0 0 0 0 1 0 16 1 0 18 1 0 226 0 0 254 0 0 254 0 0 254 0 0 254 0 0 254 1 0 254 0 0 240 0 0 134 0 1 119 2 0 3 
0 0 0 0 0 0 0 0 0 0 0 0 0 0 0 0 0 0 0 0 0 0 0 0 0 0 0 0 0 0 0 0 0 0 0 0 0 0 0 0 0 0 0 0 0 0 0 0 0 0 0 0 0 0 0 0 0 0 0 0 0 0 0 0 0 0 0 0 0 0 0 0 0 0 0 0 0 0 0 0 0 0 0 0 0 0 0 0 0 0 0 0 0 0 0 0 0 0 0 0 0 0 0 0 0 0 0 0 0 0 0 0 0 0 0 0 0 0 0 0 0 0 0 0 0 0 0 0 0 0 0 0 0 0 0 0 0 0 0 0 0 0 0 0 0 0 0 0 0 0 0 0 0 0 0 0 0 0 0 0 0 0 0 0 0 0 0 0 0 0 0 0 0 0 0 0 0 0 0 38 1 1 151 0 0 176 0 0 254 0 0 254 0 0 254 0 0 254 0 0 254 1 0 254 1 0 254 0 0 172 0 0 92 11 9 92 22 18 94 22 19 96 23 19 95 22 18 94 25 19 93 23 19 95 22 20 95 22 18 94 23 19 95 21 18 95 22 18 94 6 5 23 0 0 0 0 0 0 0 0 0 1 0 16 1 0 18 1 0 226 0 0 254 0 0 254 1 0 254 1 0 254 0 0 254 0 0 254 0 1 242 1 0 153 1 1 135 2 2 4 
0 0 0 0 0 0 0 0 0 0 0 0 0 0 0 0 0 0 0 0 0 0 0 0 0 0 0 0 0 0 0 0 0 0 0 0 0 0 0 0 0 0 0 0 0 0 0 0 0 0 0 0 0 0 0 0 0 0 0 0 0 0 0 0 0 0 0 0 0 0 0 0 0 0 0 0 0 0 0 0 0 0 0 0 0 0 0 0 0 0 0 0 0 0 0 0 0 0 0 0 0 0 0 0 0 0 0 0 0 0 0 0 0 0 0 0 0 0 0 0 0 0 0 0 0 0 0 0 0 0 0 0 0 0 0 0 0 0 0 0 0 0 0 0 0 0 0 0 0 0 0 0 0 0 0 0 0 0 0 0 0 0 0 0 0 0 0 0 0 0 0 0 0 0 0 0 0 0 0 36 0 0 153 0 0 178 0 0 254 0 0 254 0 0 254 0 0 254 1 1 255 0 0 254 0 0 254 0 0 172 0 0 92 11 9 92 22 18 94 22 20 95 23 19 95 22 18 94 23 19 95 22 18 92 22 18 94 23 19 95 23 19 93 22 18 94 22 18 94 7 6 24 0 0 0 0 0 0 0 0 0 1 0 16 1 0 18 1 0 226 0 0 254 0 0 254 0 0 254 1 1 255 0 0 254 0 0 254 0 1 242 0 0 150 0 0 132 2 2 4 
0 0 0 0 0 0 0 0 0 0 0 0 0 0 0 0 0 0 0 0 0 0 0 0 0 0 0 0 0 0 0 0 0 0 0 0 0 0 0 0 0 0 0 0 0 0 0 0 0 0 0 0 0 0 0 0 0 0 0 0 0 0 0 0 0 0 0 0 0 0 0 0 0 0 0 0 0 0 0 0 0 0 0 0 0 0 0 0 0 0 0 0 0 0 0 0 0 0 0 0 0 0 0 0 0 0 0 0 0 0 0 0 0 0 0 0 0 0 0 0 0 0 0 0 0 0 0 0 0 0 0 0 0 0 0 0 0 0 0 0 0 0 0 0 0 0 0 0 0 0 0 0 0 0 0 0 0 0 0 0 0 0 0 0 0 0 0 0 0 0 0 0 0 0 0 0 0 0 0 36 2 2 136 0 1 164 1 0 254 0 0 254 1 0 254 1 1 255 0 0 254 0 0 254 1 1 255 2 0 172 3 0 93 12 10 94 21 19 94 21 17 93 22 18 94 25 18 95 22 18 95 22 18 94 21 17 93 24 17 94 22 18 94 22 18 94 22 18 94 4 6 21 0 0 0 0 0 0 0 0 0 1 0 16 1 0 18 1 0 226 0 0 254 0 0 254 1 1 255 0 0 254 1 0 254 0 0 254 0 0 240 0 0 118 1 0 104 0 0 0 
0 0 0 0 0 0 0 0 0 0 0 0 0 0 0 0 0 0 0 0 0 0 0 0 0 0 0 0 0 0 0 0 0 0 0 0 0 0 0 0 0 0 0 0 0 0 0 0 0 0 0 0 0 0 0 0 0 0 0 0 0 0 0 0 0 0 0 0 0 0 0 0 0 0 0 0 0 0 0 0 0 0 0 0 0 0 0 0 0 0 0 0 0 0 0 0 0 0 0 0 0 0 0 0 0 0 0 0 0 0 0 0 0 0 0 0 0 0 0 0 0 0 0 0 0 0 0 0 0 0 0 0 0 0 0 0 0 0 0 0 0 0 0 0 0 0 0 0 0 0 0 0 0 0 0 0 0 0 0 0 0 0 0 0 0 0 0 0 0 0 0 0 0 0 0 0 0 0 0 36 0 0 134 1 0 164 1 0 254 0 0 254 0 1 252 0 0 254 0 0 254 1 1 255 0 0 251 0 0 172 0 0 92 9 10 93 22 18 95 22 18 94 24 18 92 23 19 95 22 18 94 23 19 95 22 18 94 22 18 94 22 18 95 24 17 94 22 18 94 7 6 20 0 0 0 0 0 0 0 0 0 1 0 16 1 0 18 1 0 226 0 0 254 0 0 254 0 0 254 0 0 254 0 0 254 0 0 254 0 0 238 0 0 120 1 0 102 1 1 1 
0 0 0 0 0 0 0 0 0 0 0 0 0 0 0 0 0 0 0 0 0 0 0 0 0 0 0 0 0 0 0 0 0 0 0 0 0 0 0 0 0 0 0 0 0 0 0 0 0 0 0 0 0 0 0 0 0 0 0 0 0 0 0 0 0 0 0 0 0 0 0 0 0 0 0 0 0 0 0 0 0 0 0 0 0 0 0 0 0 0 0 0 0 0 0 0 0 0 0 0 0 0 0 0 0 0 0 0 0 0 0 0 0 0 0 0 0 0 0 0 0 0 0 0 0 0 0 0 0 0 0 0 0 0 0 0 0 0 0 0 0 0 0 0 0 0 0 0 0 0 0 0 0 0 0 0 0 0 0 0 0 0 0 0 0 0 0 0 0 0 0 0 0 0 0 0 0 0 0 34 0 0 132 0 0 162 0 0 244 1 0 251 0 0 254 0 0 254 0 0 254 0 0 254 0 0 254 0 0 170 0 0 92 12 8 93 19 16 93 19 16 93 19 16 95 19 16 95 19 16 93 19 16 93 19 16 95 18 15 92 19 16 95 19 16 95 19 15 92 4 5 25 0 0 0 0 0 0 0 0 0 1 0 16 1 0 18 1 0 226 0 0 254 0 0 254 0 0 254 0 0 254 0 0 254 2 1 255 0 0 240 1 0 138 0 0 120 2 2 4 
0 0 0 0 0 0 0 0 0 0 0 0 0 0 0 0 0 0 0 0 0 0 0 0 0 0 0 0 0 0 0 0 0 0 0 0 0 0 0 0 0 0 0 0 0 0 0 0 0 0 0 0 0 0 0 0 0 0 0 0 0 0 0 0 0 0 0 0 0 0 0 0 0 0 0 0 0 0 0 0 0 0 0 0 0 0 0 0 0 0 0 0 0 0 0 0 0 0 0 0 0 0 0 0 0 0 0 0 0 0 0 0 0 0 0 0 0 0 0 0 0 0 0 0 0 0 0 0 0 0 0 0 0 0 0 0 0 0 0 0 0 0 0 0 0 0 0 0 0 0 0 0 0 0 0 0 0 0 0 0 0 0 0 0 0 0 0 0 0 0 0 0 0 0 0 0 0 0 0 34 0 0 134 0 0 162 0 0 248 0 0 248 0 0 254 0 0 254 0 0 251 0 0 254 0 1 252 0 0 172 0 0 92 8 7 87 15 13 86 16 14 87 16 15 85 15 15 87 16 15 85 16 15 85 16 14 87 16 15 85 16 14 87 16 12 86 16 14 87 5 4 22 0 0 0 0 0 0 0 0 0 1 0 16 1 0 18 1 0 226 0 0 254 0 0 254 1 0 254 1 0 254 1 0 254 1 0 254 0 1 241 0 0 134 0 0 120 1 2 4 
0 0 0 0 0 0 0 0 0 0 0 0 0 0 0 0 0 0 0 0 0 0 0 0 0 0 0 0 0 0 0 0 0 0 0 0 0 0 0 0 0 0 0 0 0 0 0 0 0 0 0 0 0 0 0 0 0 0 0 0 0 0 0 0 0 0 0 0 0 0 0 0 0 0 0 0 0 0 0 0 0 0 0 0 0 0 0 0 0 0 0 0 0 0 0 0 0 0 0 0 0 0 0 0 0 0 0 0 0 0 0 0 0 0 0 0 0 0 0 0 0 0 0 0 0 0 0 0 0 0 0 0 0 0 0 0 0 0 0 0 0 0 0 0 0 0 0 0 0 0 0 0 0 0 0 0 0 0 0 0 0 0 0 0 0 0 0 0 0 0 0 0 0 0 0 0 0 0 1 32 0 0 132 1 0 164 0 0 248 0 0 250 1 1 255 0 0 254 0 0 254 0 1 252 1 1 255 0 0 172 0 0 92 8 5 84 14 12 77 17 12 78 17 12 76 17 12 78 17 12 78 16 11 77 14 12 77 17 12 78 15 13 78 16 11 77 17 12 78 5 4 18 0 0 0 0 0 0 0 0 0 1 0 16 1 0 18 1 0 226 0 0 254 0 0 254 0 0 254 0 0 254 1 1 255 0 0 254 1 0 241 0 0 134 1 0 122 3 1 2 
0 0 0 0 0 0 0 0 0 0 0 0 0 0 0 0 0 0 0 0 0 0 0 0 0 0 0 0 0 0 0 0 0 0 0 0 0 0 0 0 0 0 0 0 0 0 0 0 0 0 0 0 0 0 0 0 0 0 0 0 0 0 0 0 0 0 0 0 0 0 0 0 0 0 0 0 0 0 0 0 0 0 0 0 0 0 0 0 0 0 0 0 0 0 0 0 0 0 0 0 0 0 0 0 0 0 0 0 0 0 0 0 0 0 0 0 0 0 0 0 0 0 0 0 0 0 0 0 0 0 0 0 0 0 0 0 0 0 0 0 0 0 0 0 0 0 0 0 0 0 0 0 0 0 0 0 0 0 0 0 0 0 0 0 0 0 0 0 0 0 0 0 0 0 0 0 0 0 1 32 0 0 134 1 0 164 1 1 249 1 1 249 0 0 254 0 0 254 0 0 254 1 1 255 0 0 254 0 0 172 1 0 93 8 6 81 15 11 72 17 11 71 16 13 70 15 11 70 15 11 70 15 11 70 17 11 73 15 11 70 15 11 70 16 12 71 15 12 69 4 3 17 0 0 0 0 0 0 0 0 0 1 0 16 1 0 18 1 0 226 0 0 254 0 0 254 0 0 254 0 0 254 1 0 254 1 1 255 0 0 240 0 0 134 0 0 116 3 1 4 
0 0 0 0 0 0 0 0 0 0 0 0 0 0 0 0 0 0 0 0 0 0 0 0 0 0 0 0 0 0 0 0 0 0 0 0 0 0 0 0 0 0 0 0 0 0 0 0 0 0 0 0 0 0 0 0 0 0 0 0 0 0 0 0 0 0 0 0 0 0 0 0 0 0 0 0 0 0 0 0 0 0 0 0 0 0 0 0 0 0 0 0 0 0 0 0 0 0 0 0 0 0 0 0 0 0 0 0 0 0 0 0 0 0 0 0 0 0 0 0 0 0 0 0 0 0 0 0 0 0 0 0 0 0 0 0 0 0 0 0 0 0 0 0 0 0 0 0 0 0 0 0 0 0 0 0 1 1 1 0 0 0 0 0 0 0 1 0 0 0 0 0 0 0 1 1 1 0 0 30 1 0 120 1 0 153 1 0 254 0 0 254 0 0 254 0 0 254 0 0 254 1 0 254 0 0 254 0 0 174 0 0 92 8 6 79 15 12 67 12 12 66 15 12 67 15 12 65 16 11 67 15 10 66 15 12 67 16 11 67 16 13 68 17 12 68 15 12 67 4 3 17 0 0 0 0 0 0 0 0 0 0 0 12 1 0 18 1 0 226 1 0 254 0 0 254 1 0 254 1 1 255 1 1 255 0 0 254 0 0 238 0 0 116 1 0 102 0 0 0 
0 0 0 0 0 0 0 0 0 0 0 0 0 0 0 0 0 0 0 0 0 0 0 0 0 0 0 0 0 0 0 0 0 0 0 0 0 0 0 0 0 0 0 0 0 0 0 0 0 0 0 0 0 0 0 0 0 0 0 0 0 0 0 1 1 1 0 0 0 0 0 0 0 0 0 1 1 1 1 1 1 0 0 0 0 0 0 0 0 0 0 0 0 0 0 0 0 0 0 0 0 0 0 0 0 0 0 0 0 0 0 0 0 0 0 0 0 0 0 0 0 0 0 0 0 0 0 0 0 0 0 0 0 0 0 0 0 0 0 0 0 0 0 0 0 0 0 0 0 0 0 0 0 0 0 0 0 0 0 0 0 0 1 3 2 1 1 0 0 0 0 0 0 2 0 0 0 1 0 32 0 0 120 0 1 154 0 0 254 0 0 254 0 1 252 0 1 252 0 0 254 0 0 254 0 0 254 0 0 174 0 0 92 7 5 78 15 11 62 15 12 65 13 11 61 15 12 65 15 10 64 15 10 64 15 12 65 14 9 63 14 11 64 14 11 64 13 10 63 4 3 17 0 0 0 0 0 0 0 0 0 0 0 12 1 0 14 1 0 224 1 0 254 0 0 254 1 0 252 0 0 254 0 0 254 1 1 255 0 0 238 0 0 119 0 0 106 1 1 0 
0 0 0 0 0 0 0 0 0 0 0 0 0 0 0 0 0 0 0 0 0 0 0 0 0 0 0 0 0 0 0 0 0 0 0 0 0 0 0 0 0 0 0 0 0 0 0 0 0 0 0 0 0 0 0 0 0 0 0 0 0 0 0 0 0 0 0 0 0 0 0 0 5 7 2 8 14 4 4 9 2 0 0 0 0 0 0 0 0 0 0 0 0 0 0 0 0 0 0 0 0 0 0 0 0 0 0 0 0 0 0 0 0 0 0 0 0 0 0 0 0 0 0 0 0 0 0 0 0 0 0 0 0 0 0 0 0 0 0 0 0 0 0 0 0 0 0 0 0 0 0 0 0 0 0 0 0 0 0 0 2 1 8 14 2 6 12 2 0 0 0 0 0 0 0 0 0 0 0 34 0 0 134 1 0 163 1 1 255 0 0 254 0 0 254 0 0 254 0 0 254 0 0 254 0 0 254 0 0 174 0 0 92 6 5 73 14 11 58 14 11 58 14 11 58 12 9 56 14 11 58 14 11 58 14 11 58 14 11 58 14 11 58 14 12 59 13 10 57 3 3 13 0 0 0 0 0 0 0 0 0 1 1 1 1 1 0 1 1 223 1 0 254 1 1 255 1 0 254 0 0 254 1 0 254 0 0 254 0 0 239 2 0 135 0 0 118 2 2 2 
0 0 0 0 0 0 1 1 1 0 0 0 0 0 0 0 0 0 0 0 0 0 0 0 0 0 0 0 0 0 0 0 0 0 0 0 0 0 0 0 0 0 0 0 0 0 0 0 0 0 0 0 0 0 0 0 0 0 0 0 0 0 0 0 0 0 1 1 1 1 0 0 3 5 0 5 10 3 1 6 0 0 0 0 0 0 0 0 0 0 0 0 0 0 0 0 0 0 0 0 0 0 0 0 0 0 0 0 0 0 0 0 0 0 0 0 0 0 0 0 0 0 0 0 0 0 0 0 0 0 0 0 0 0 0 0 0 0 0 0 0 0 0 0 0 0 0 0 0 0 0 0 0 0 0 0 0 1 0 1 1 0 7 10 1 6 9 2 0 0 0 0 0 0 2 4 1 2 3 34 0 0 134 1 0 164 0 0 254 0 0 254 0 0 254 1 0 254 0 0 254 0 0 254 1 1 255 0 0 174 0 0 92 7 6 72 13 10 53 13 10 53 14 11 54 13 10 53 13 10 53 13 10 53 12 9 52 13 10 53 13 10 53 13 12 54 12 9 52 3 3 13 0 0 0 0 0 0 0 0 2 0 0 0 0 0 0 1 1 223 0 1 252 0 0 254 0 1 254 1 0 254 0 0 254 0 1 252 0 0 241 1 0 136 1 0 120 1 1 3 
0 0 0 0 0 0 0 0 0 0 0 0 0 0 0 0 0 0 0 0 0 0 0 0 0 0 0 0 0 0 0 0 0 0 0 0 0 0 0 0 0 0 0 0 0 0 0 0 0 0 0 0 0 0 0 0 0 0 0 0 0 0 0 0 0 0 0 0 0 0 0 0 0 0 0 0 0 0 0 0 0 0 0 0 0 0 0 0 0 0 0 0 0 0 0 0 0 0 0 0 0 0 0 0 0 0 0 0 0 0 0 0 0 0 0 0 0 0 0 0 0 0 0 0 0 0 0 0 0 0 0 0 0 0 0 0 0 0 0 0 0 0 0 0 0 0 0 0 0 0 0 0 0 0 0 0 0 0 0 0 0 0 0 0 0 0 0 0 0 0 0 1 1 0 7 13 3 5 11 35 1 0 136 2 1 167 0 0 254 0 0 254 0 0 254 1 0 254 0 0 254 0 0 254 1 1 255 0 0 172 1 1 91 7 7 71 12 10 49 11 9 48 13 11 48 14 12 49 13 11 50 14 9 49 14 9 49 15 10 50 13 11 50 15 10 50 14 9 49 4 2 13 0 0 0 0 0 0 0 0 0 0 0 0 0 0 0 1 1 223 0 0 254 0 0 254 0 0 254 0 0 254 0 0 254 0 0 254 0 0 240 0 0 134 1 0 119 2 2 2 
2 4 1 1 1 1 0 0 0 0 0 0 0 0 0 0 0 0 0 0 0 0 0 0 0 0 0 0 0 0 0 0 0 0 0 0 0 0 0 0 0 0 0 0 0 0 0 0 0 0 0 0 0 0 0 0 0 0 0 0 1 1 1 0 0 0 0 0 0 0 0 0 0 0 0 0 0 0 0 0 0 0 0 0 0 0 0 0 0 0 0 0 0 0 0 0 0 0 0 0 0 0 0 0 0 0 0 0 0 0 0 0 0 0 0 0 0 0 0 0 0 0 0 0 0 0 0 0 0 0 0 0 0 0 0 0 0 0 0 0 0 0 0 0 0 0 0 0 0 0 0 0 0 0 0 0 0 0 0 0 0 0 0 0 0 0 0 0 0 0 0 0 2 0 6 12 2 4 8 35 1 0 136 1 0 166 0 0 254 0 0 254 0 0 254 1 0 252 0 1 252 0 0 254 0 1 252 0 0 172 1 0 93 5 7 68 11 10 44 12 11 45 13 9 44 14 10 45 11 10 44 14 10 45 14 10 45 14 10 45 12 11 45 13 9 44 13 9 44 3 1 12 0 0 0 0 0 0 0 0 0 0 0 0 0 0 0 1 1 223 0 0 254 0 0 254 0 0 254 0 0 254 0 0 254 0 0 254 0 0 240 1 0 140 0 0 120 1 1 1 
8 14 2 1 1 0 0 0 0 0 0 0 0 0 0 0 0 0 0 0 0 0 0 0 0 0 0 0 0 0 0 0 0 0 0 0 0 0 0 0 0 0 0 0 0 0 0 0 0 0 0 0 0 0 0 0 0 0 0 0 0 0 0 0 0 0 1 1 1 0 0 0 0 0 0 0 0 0 0 0 0 1 1 1 0 0 0 0 0 0 0 0 0 0 0 0 0 0 0 0 0 0 0 0 0 0 0 0 0 0 0 0 0 0 0 0 0 0 0 0 0 0 0 0 0 0 0 0 0 0 0 0 0 0 0 0 0 0 0 0 0 0 0 0 0 0 0 0 0 0 0 0 0 0 0 0 0 0 0 0 0 0 0 0 0 0 0 0 0 0 0 0 0 0 0 0 0 1 0 34 1 0 136 0 0 166 0 0 254 0 0 254 0 0 254 0 0 254 0 0 254 0 0 254 0 0 254 0 0 174 1 0 93 5 5 65 14 11 42 13 10 41 14 11 42 13 10 41 12 11 42 14 11 42 13 10 41 13 10 41 13 10 41 13 10 41 14 11 42 3 2 10 0 0 0 1 1 3 0 0 2 0 0 0 0 0 0 1 0 224 0 0 254 0 0 254 0 0 254 1 1 255 0 0 254 0 0 253 0 1 241 0 0 152 0 0 134 1 1 3 
6 11 4 2 4 0 2 4 0 0 0 0 0 0 0 0 0 0 0 0 0 0 0 0 0 0 0 0 0 0 0 0 0 0 0 0 0 0 0 0 0 0 0 0 0 0 0 0 0 0 0 0 0 0 0 0 0 0 0 0 0 0 0 0 0 0 0 0 0 0 0 0 0 0 0 1 1 1 0 0 0 0 0 0 0 0 0 0 0 0 0 0 0 0 0 0 0 0 0 0 0 0 0 0 0 0 0 0 0 0 0 0 0 0 0 0 0 0 0 0 0 0 0 0 0 0 0 0 0 0 0 0 0 0 0 0 0 0 0 0 0 0 0 0 0 0 0 0 0 0 0 0 0 0 0 0 0 0 2 0 0 0 0 0 0 0 0 0 0 0 0 1 1 1 0 0 0 0 0 34 0 0 134 1 0 164 0 0 254 0 0 254 0 0 254 0 0 254 0 0 254 0 0 254 0 1 254 1 1 175 1 0 93 5 5 65 12 9 38 13 10 39 14 9 39 13 10 41 11 11 39 13 10 39 11 11 39 13 10 39 13 10 39 12 9 38 14 11 40 3 2 10 0 0 0 1 0 5 0 0 4 0 0 2 1 1 3 1 0 226 0 0 254 0 0 254 0 0 254 0 0 254 0 0 254 0 1 254 1 2 243 0 0 148 0 0 130 2 2 4 
0 0 2 7 13 3 7 15 2 1 1 1 0 0 0 0 0 0 0 0 0 0 0 0 0 0 0 1 1 0 0 0 0 0 0 0 0 0 0 0 0 0 0 0 0 0 0 0 0 0 0 0 0 0 0 0 0 0 0 0 0 0 0 0 0 0 0 0 0 0 0 0 0 0 0 0 0 0 0 0 0 0 0 0 0 0 0 0 0 0 0 0 0 0 0 0 0 0 0 0 0 0 0 0 0 0 0 0 0 0 0 0 0 0 0 0 0 0 0 0 0 0 0 0 0 0 0 0 0 0 0 0 0 0 0 0 0 0 0 0 0 0 0 0 0 0 0 0 0 0 0 0 0 0 0 0 0 0 0 0 0 0 0 0 0 0 0 0 0 0 0 0 0 0 0 0 0 0 0 34 1 0 136 1 0 164 0 0 254 0 0 254 0 0 254 0 0 254 0 0 254 0 0 254 0 0 254 0 0 174 0 0 92 7 6 64 11 8 35 13 9 36 13 10 37 13 9 36 13 9 34 13 10 37 13 9 34 14 10 35 11 9 33 13 9 34 13 9 36 3 2 10 0 1 0 1 0 14 1 0 20 2 1 19 1 0 16 0 2 225 0 0 254 0 0 254 0 0 254 0 1 252 0 0 254 2 1 255 0 0 240 1 0 136 0 1 119 1 0 0 
0 0 0 6 9 2 4 9 2 2 7 1 4 6 1 2 1 0 0 0 0 0 0 0 0 0 0 0 0 0 0 0 0 0 0 0 0 0 0 0 0 0 0 0 0 0 0 0 0 0 0 0 0 0 0 0 0 0 0 0 0 0 0 0 0 0 0 0 0 0 0 0 0 0 0 0 0 0 0 0 0 0 0 0 0 0 0 0 0 0 0 0 0 0 0 0 0 0 0 0 0 0 0 0 0 0 0 0 0 0 0 0 0 0 0 0 0 0 0 0 0 0 0 0 0 0 0 0 0 0 0 0 0 0 0 0 0 0 0 0 0 0 0 0 0 0 0 0 0 0 0 0 0 0 0 0 0 0 0 0 0 0 0 0 0 0 0 0 0 0 0 0 0 0 0 0 0 0 0 34 1 0 136 1 0 164 0 0 254 0 0 254 0 0 254 0 0 254 0 0 254 0 0 254 1 1 255 0 0 172 1 0 93 6 5 63 12 10 32 13 9 34 12 10 32 12 8 31 13 9 34 14 10 35 13 9 36 14 10 35 14 9 32 13 9 34 14 10 37 2 1 7 0 0 0 1 0 10 0 0 12 0 0 12 0 0 10 0 0 222 0 0 254 2 1 255 0 0 254 0 0 254 0 0 254 0 0 254 0 0 240 0 1 143 0 2 125 1 1 1 
1 1 0 0 0 0 0 1 0 6 12 0 7 15 2 1 1 0 0 0 0 0 0 0 0 1 0 0 0 0 0 0 0 0 0 0 0 0 0 0 0 0 0 0 0 0 0 0 0 0 0 0 0 0 0 0 0 0 0 0 0 0 0 0 0 0 0 0 0 0 0 0 0 0 0 0 0 0 0 0 0 0 0 0 0 0 0 0 0 0 0 0 0 0 0 0 0 0 0 0 0 0 0 0 0 0 0 0 0 0 0 0 0 0 0 0 0 0 0 0 0 0 0 0 0 0 0 0 0 0 0 0 0 0 0 0 0 0 0 0 0 0 0 0 0 0 0 0 0 0 0 0 0 0 0 0 0 0 0 0 0 0 0 0 0 0 0 0 0 0 0 0 0 0 0 0 0 0 0 34 1 0 136 1 0 164 0 0 254 0 0 254 0 0 254 0 0 254 0 0 254 0 0 254 0 0 254 0 0 174 1 0 93 6 5 63 12 10 32 13 9 32 13 9 32 13 9 32 12 8 31 14 10 35 13 10 31 12 10 32 13 9 32 13 9 32 12 10 34 3 2 8 0 0 0 0 0 0 0 0 0 0 0 0 0 0 0 0 0 222 1 0 254 0 0 253 0 0 254 0 0 254 0 0 254 0 0 254 0 1 242 1 0 153 1 1 133 1 1 3 
0 0 0 0 0 0 0 0 0 5 8 1 7 10 3 2 7 1 3 6 0 0 0 0 1 1 1 0 0 0 0 0 0 0 0 0 0 0 0 0 0 0 0 0 0 0 0 0 0 0 0 0 0 0 0 0 0 0 0 0 0 0 0 0 0 0 0 0 0 0 0 0 0 0 0 0 0 0 0 0 0 0 0 0 0 0 0 0 0 0 0 0 0 0 0 0 0 0 0 0 0 0 0 0 0 0 0 0 0 0 0 0 0 0 0 0 0 0 0 0 0 0 0 0 0 0 0 0 0 0 0 0 0 0 0 0 0 0 0 0 0 0 0 0 0 0 0 0 0 0 0 0 0 0 0 0 0 0 0 0 0 0 0 0 0 0 0 0 0 0 0 0 0 0 0 0 0 0 0 34 1 0 136 1 0 164 0 0 254 0 0 254 0 0 254 0 0 254 0 0 254 0 0 254 0 0 254 0 0 174 1 0 93 6 5 63 12 10 34 13 9 32 13 9 34 12 10 34 14 10 35 13 9 34 13 9 34 14 10 35 12 8 31 13 9 34 12 10 34 3 2 7 1 1 3 0 0 0 1 1 3 0 0 0 0 0 0 0 0 222 0 0 254 0 0 254 0 0 254 0 0 254 0 0 254 0 0 254 0 1 241 2 0 146 1 0 130 2 0 3 
0 0 0 1 1 0 0 0 0 1 1 1 0 0 2 6 14 3 9 15 5 0 0 0 1 1 1 0 0 0 0 0 0 0 0 0 0 0 0 0 0 0 0 0 0 0 0 0 0 0 0 0 0 0 0 0 0 0 0 0 0 0 0 0 0 0 0 0 0 0 0 0 0 0 0 0 0 0 0 0 0 0 0 0 0 0 0 0 0 0 0 0 0 0 0 0 0 0 0 0 0 0 0 0 0 0 0 0 0 0 0 0 0 0 0 0 0 0 0 0 0 0 0 0 0 0 0 0 0 0 0 0 0 0 0 0 0 0 0 0 0 0 0 0 0 0 0 0 0 0 0 0 0 0 0 0 0 0 0 0 0 0 0 0 0 0 0 0 0 0 0 0 0 0 0 0 0 0 0 34 1 0 136 1 0 164 0 0 254 0 0 254 0 0 254 0 0 254 0 0 254 0 0 254 1 1 255 0 0 172 1 0 93 6 5 65 12 10 32 13 9 32 13 9 32 11 9 31 13 9 32 14 10 35 13 9 32 12 9 30 12 10 32 13 9 32 12 8 33 3 2 8 0 0 0 0 0 0 0 0 0 0 0 0 0 0 0 3 2 226 1 2 253 1 1 255 0 0 254 0 0 254 0 0 254 0 0 254 0 0 240 0 0 134 0 1 119 2 0 5 
0 0 0 0 0 0 0 0 0 0 0 0 0 0 2 3 5 0 4 6 1 5 8 1 4 7 0 2 0 1 0 0 0 0 0 2 0 0 0 0 0 0 0 0 0 0 0 0 0 0 0 0 0 0 0 0 0 0 0 0 0 0 0 0 0 0 0 0 0 0 0 0 0 0 0 0 0 0 0 0 0 0 0 0 0 0 0 0 0 0 0 0 0 0 0 0 0 0 0 0 0 0 0 0 0 0 0 0 0 0 0 0 0 0 0 0 0 0 0 0 0 0 0 0 0 0 0 0 0 0 0 0 0 0 0 0 0 0 0 0 0 0 0 0 0 0 0 0 0 0 0 0 0 0 0 0 0 0 0 0 0 0 0 0 0 0 0 0 0 0 0 0 0 0 0 0 0 0 0 34 1 0 136 1 0 164 0 0 254 0 0 254 0 0 254 0 0 254 0 0 254 0 0 254 0 0 254 0 0 174 0 0 92 6 5 63 12 10 32 13 9 32 14 10 33 12 10 32 13 9 32 9 10 31 14 10 33 13 9 32 13 9 32 13 9 32 13 9 32 4 3 8 0 0 0 0 0 0 0 0 0 1 1 1 0 0 0 0 0 222 1 0 254 1 1 255 1 0 254 0 0 254 1 0 254 0 0 254 0 0 240 0 0 144 0 0 126 1 1 3 
0 0 0 0 0 0 0 0 0 0 0 0 0 0 0 0 0 0 1 1 1 7 13 1 8 16 5 0 0 0 0 0 0 1 0 0 0 0 0 0 0 0 0 0 0 0 0 0 0 0 0 0 0 0 0 0 0 0 0 0 0 0 0 0 0 0 0 0 0 0 0 0 0 0 0 0 0 0 0 0 0 0 0 0 0 0 0 0 0 0 0 0 0 0 0 0 0 0 0 0 0 0 0 0 0 0 0 0 0 0 0 0 0 0 0 0 0 0 0 0 0 0 0 0 0 0 0 0 0 0 0 0 0 0 0 0 0 0 0 0 0 0 0 0 0 0 0 0 0 0 0 0 0 0 0 0 0 0 0 0 0 0 0 0 0 0 0 0 0 0 0 0 0 0 0 0 0 0 0 34 1 0 136 1 0 164 0 0 254 0 0 254 0 0 254 0 0 254 0 0 254 0 0 254 0 0 254 0 0 174 0 1 93 6 5 63 13 9 34 13 9 32 13 9 34 13 11 35 13 9 32 12 8 33 13 9 32 13 9 32 13 9 32 13 9 32 13 9 34 3 2 8 0 0 0 0 0 0 0 0 0 0 0 0 0 0 0 0 0 222 0 0 254 1 1 255 1 0 254 0 0 254 1 0 254 0 2 255 0 1 242 1 0 153 0 0 134 2 0 3 
1 1 1 0 0 0 0 0 0 0 0 0 0 0 0 0 0 0 0 0 0 4 7 0 4 6 1 0 0 0 0 0 0 0 0 0 0 0 0 0 0 0 0 0 0 0 0 0 0 0 0 0 0 0 0 0 0 0 0 0 0 0 0 0 0 0 0 0 0 0 0 0 0 0 0 0 0 0 0 0 0 0 0 0 0 0 0 0 0 0 0 0 0 0 0 0 0 0 0 0 0 0 0 0 0 0 0 0 0 0 0 0 0 0 0 0 0 0 0 0 0 0 0 0 0 0 0 0 0 0 0 0 0 0 0 0 0 0 0 0 0 0 0 0 0 0 0 0 0 0 0 0 0 0 0 0 0 0 0 0 0 0 0 0 0 0 0 0 0 0 0 0 0 0 0 0 0 0 0 34 1 0 136 1 0 164 0 0 254 0 0 254 0 0 254 0 0 254 0 0 254 0 0 254 0 0 254 0 0 172 0 1 93 5 4 62 14 10 33 13 9 32 13 11 33 13 11 33 13 9 32 13 9 32 12 8 31 13 9 32 13 9 32 12 8 31 12 10 32 3 2 8 0 0 0 0 0 8 1 1 11 0 0 10 1 1 11 0 1 224 0 0 254 1 1 255 0 0 254 0 0 254 0 0 254 1 1 255 0 0 240 0 1 145 1 0 127 4 0 3 
