P3
100 50
255
24 4 13 22 2 11 22 2 11 24 4 13 23 3 12 23 3 12 24 4 15 24 4 16 24 4 16 25 4 21 23 4 23 23 4 23 23 4 26 24 4 29 25 5 32 25 4 35 25 6 36 28 8 45 29 7 46 30 8 46 30 8 46 29 7 46 30 8 46 30 8 46 27 6 37 28 4 36 29 6 35 28 5 33 27 5 28 28 6 27 41 8 37 34 6 29 28 5 21 27 3 19 27 5 18 27 3 16 26 5 14 27 4 14 27 5 17 28 4 17 27 4 14 28 4 17 27 4 14 28 4 17 26 4 16 28 5 15 27 3 16 27 4 14 27 3 16 35 6 24 39 8 26 30 3 18 27 3 16 27 3 16 29 3 16 26 4 16 25 4 13 26 4 16 27 3 16 27 4 14 28 5 15 27 3 16 27 3 16 25 4 13 26 4 16 26 5 14 28 4 17 26 4 16 28 4 17 26 4 16 44 9 33 32 6 19 28 4 17 27 3 16 26 5 14 27 3 17 27 6 15 27 3 16 27 4 14 28 5 15 27 4 14 27 3 16 27 3 16 26 5 14 27 4 14 27 4 14 28 4 17 27 4 14 28 4 17 27 3 16 43 8 30 31 4 19 28 4 17 27 3 16 28 5 15 26 4 16 27 4 14 26 5 14 30 4 15 26 4 16 
23 3 12 23 3 12 23 3 12 22 2 11 23 3 12 22 2 11 23 3 14 24 4 16 24 4 16 25 4 19 25 4 21 23 4 24 23 4 24 24 4 29 24 4 31 26 6 34 25 6 36 27 7 44 30 8 46 30 8 46 30 8 46 30 8 46 30 8 46 30 8 46 28 4 36 26 5 36 28 5 34 28 5 31 27 4 30 27 5 26 41 8 39 33 5 28 26 3 19 26 3 19 26 4 16 25 4 13 25 4 13 25 4 13 26 5 14 26 4 16 25 4 13 27 3 16 25 4 13 26 5 14 25 4 13 26 5 14 27 3 16 26 5 14 27 4 14 34 6 21 38 7 23 27 4 14 27 3 16 26 3 13 27 4 14 25 4 13 25 4 13 25 4 13 24 3 12 26 5 14 26 5 14 26 5 14 24 4 13 25 5 14 26 5 14 25 4 13 27 3 16 25 4 13 28 4 17 25 4 13 43 8 30 31 5 18 27 3 16 27 3 16 27 3 17 26 5 14 25 3 15 25 4 13 25 4 13 26 5 14 24 4 13 26 4 17 25 3 15 25 4 13 25 4 13 25 4 13 26 4 16 26 5 14 26 4 16 26 5 14 40 7 28 31 5 18 27 3 16 26 4 16 26 4 16 26 4 16 26 5 14 25 4 13 26 5 14 26 4 16 
24 4 13 23 3 12 23 3 12 23 3 12 23 3 12 23 3 12 24 4 15 23 3 15 24 4 16 24 3 20 25 4 21 22 5 23 24 5 27 24 4 29 24 6 32 26 6 34 24 5 35 28 8 45 30 8 47 30 8 46 31 9 47 30 8 47 31 9 47 30 8 46 28 7 38 26 5 36 29 6 35 28 5 31 28 5 31 26 4 25 41 8 39 34 6 29 28 4 20 28 4 20 28 4 18 26 5 14 27 4 14 26 5 14 29 3 14 27 3 16 26 5 14 28 4 17 26 5 14 26 5 14 26 5 14 27 4 14 27 5 17 27 6 15 27 4 14 35 7 22 38 7 25 27 4 12 26 4 16 27 4 14 27 3 16 26 5 14 25 4 13 26 5 14 26 5 14 27 4 14 28 5 15 26 5 14 26 5 14 26 3 13 27 4 14 26 5 14 29 5 18 27 3 16 28 4 17 25 4 13 44 9 33 32 6 19 27 6 15 28 5 15 28 5 15 27 3 16 27 5 17 25 4 13 27 3 16 27 7 16 27 4 14 26 4 16 27 3 16 26 5 14 27 4 14 26 5 14 28 4 17 27 4 14 28 4 17 26 4 16 42 9 30 32 5 20 27 3 16 26 4 16 27 5 17 27 3 16 26 5 14 26 5 14 26 5 14 26 4 16 
23 3 12 23 3 12 22 2 11 23 3 12 23 3 12 23 3 12 23 3 14 24 4 16 22 4 16 25 4 19 23 5 21 24 5 24 22 3 23 24 4 29 25 5 32 25 5 33 25 6 36 28 8 45 30 8 47 29 7 45 30 8 46 30 8 46 31 9 47 30 8 46 26 5 36 26 5 36 29 6 35 28 5 33 28 6 29 27 5 26 41 8 37 34 6 29 29 5 21 28 4 20 27 3 17 27 4 14 25 4 13 25 3 15 27 3 16 29 3 16 26 5 14 27 4 14 26 4 17 26 5 14 26 5 14 26 4 17 27 4 14 26 5 14 26 4 16 34 6 21 38 7 25 27 3 16 27 3 16 27 3 16 26 4 16 25 4 13 27 4 14 25 5 16 26 4 16 27 4 14 26 5 14 26 4 16 26 4 16 25 4 13 27 4 14 25 4 13 27 3 16 28 2 15 28 4 17 26 5 14 43 8 32 31 5 18 27 4 14 27 5 17 29 3 14 26 4 16 26 5 14 25 3 15 25 4 13 28 5 15 27 4 14 27 3 16 27 3 17 24 4 13 27 4 14 26 5 14 27 3 16 28 5 15 28 5 15 27 4 14 42 9 30 29 5 18 26 4 16 27 3 16 27 3 16 27 3 16 25 4 13 25 4 13 27 4 14 27 3 16 
23 3 12 23 4 10 22 3 9 23 4 10 23 4 10 23 4 10 24 4 15 24 3 18 24 4 16 24 3 20 25 4 21 23 4 24 24 5 25 24 4 29 24 4 31 25 5 33 25 6 36 28 8 45 29 7 45 29 8 47 33 7 46 30 8 46 32 7 46 30 8 44 28 4 36 29 6 35 28 5 34 29 5 31 27 4 30 27 5 26 41 8 39 32 7 28 27 4 22 26 4 17 27 3 16 25 4 13 26 5 14 25 5 14 26 5 14 26 4 16 25 4 13 27 3 16 26 5 14 25 3 15 25 4 13 26 5 14 27 4 14 26 4 16 26 5 14 34 6 20 37 6 22 26 4 16 27 3 16 25 5 14 26 5 14 24 2 14 26 3 13 25 4 13 26 5 14 25 4 13 26 5 14 25 4 13 25 4 13 25 4 13 25 4 13 25 4 13 26 4 16 25 4 13 26 4 16 26 5 14 43 8 30 29 5 18 26 5 14 26 5 12 26 4 16 26 5 14 25 4 13 25 4 13 25 4 13 26 5 14 25 4 13 27 4 14 26 5 14 24 3 12 26 5 14 26 5 14 27 4 14 26 5 14 27 3 16 25 4 13 41 8 29 29 5 18 26 5 14 26 4 16 26 5 14 26 5 14 25 4 13 27 6 15 25 4 13 26 5 14 
23 3 12 23 3 12 23 3 12 23 4 10 22 3 9 23 3 12 23 3 14 23 3 15 24 4 16 24 3 18 25 4 21 24 5 24 23 4 26 23 3 28 24 4 31 27 7 35 25 5 33 29 7 45 29 8 47 29 7 46 30 8 46 29 7 45 32 7 46 32 7 46 28 4 36 26 6 34 27 7 35 27 4 30 27 5 28 26 4 25 40 7 36 33 5 28 28 4 20 27 5 17 26 2 15 26 4 16 25 4 13 26 5 14 26 5 14 26 4 16 26 5 14 26 4 16 25 4 13 26 3 13 25 4 13 25 4 13 27 4 14 26 5 14 27 4 14 34 6 21 38 5 26 25 5 14 28 5 15 25 5 14 26 2 15 24 4 13 25 3 15 25 4 13 25 4 13 25 4 13 26 5 14 25 4 13 25 4 13 26 5 14 25 4 13 25 3 15 27 4 14 26 5 14 27 4 14 25 4 13 41 9 32 28 4 17 26 5 14 27 4 14 27 3 16 26 5 14 26 5 14 24 3 12 26 5 14 27 3 16 25 4 13 26 5 14 26 5 14 25 3 15 24 3 12 25 4 13 28 5 15 25 3 15 26 4 16 26 5 14 41 7 31 31 4 19 27 4 12 26 5 14 26 4 16 26 5 14 24 3 12 26 5 14 28 5 15 26 5 14 
23 3 12 23 4 10 23 4 10 22 3 9 23 4 10 23 4 10 22 2 11 25 5 16 23 3 15 25 4 19 26 5 22 23 4 23 23 4 24 23 4 26 24 4 31 25 5 33 25 5 33 29 7 45 29 7 45 29 7 45 30 8 46 30 8 46 32 7 46 30 8 44 29 5 37 27 7 35 27 7 35 28 5 31 28 6 29 25 6 26 41 8 37 34 6 28 28 4 20 27 5 18 27 3 16 26 4 16 25 4 13 26 5 14 25 4 13 27 4 14 26 5 14 28 4 17 26 5 14 26 3 13 25 4 13 28 4 17 26 4 16 27 3 16 26 3 13 33 6 21 38 7 25 26 5 14 28 5 15 27 3 16 28 4 17 25 4 13 26 4 16 26 5 14 26 4 16 25 4 13 28 5 15 26 5 14 25 3 15 25 4 13 26 5 14 27 4 14 27 3 16 27 4 14 27 4 14 26 4 16 44 9 33 29 5 18 27 4 14 27 6 15 25 3 15 26 4 16 26 5 14 26 5 14 26 3 13 26 4 16 26 5 14 27 4 14 27 4 14 26 5 14 26 5 14 26 5 14 27 4 14 26 4 16 27 3 16 25 3 15 43 8 30 31 4 19 27 6 15 26 5 12 27 3 16 26 5 14 25 3 15 26 3 13 27 3 16 27 4 14 
22 2 11 22 2 11 23 3 12 22 2 11 22 2 11 23 3 12 23 3 14 23 3 15 25 5 17 24 3 18 25 4 21 23 4 24 23 4 24 24 5 27 25 5 32 26 6 34 25 5 33 29 7 45 30 8 46 30 8 44 30 8 46 29 7 45 32 7 46 31 9 45 28 4 36 27 7 35 29 6 35 28 5 33 28 5 33 27 5 28 42 9 40 35 7 30 28 3 22 27 4 20 30 3 18 26 4 16 26 5 14 25 3 15 27 5 17 28 5 15 25 3 15 28 4 17 28 2 15 26 4 16 28 4 17 27 5 17 28 4 17 28 5 15 28 4 17 34 7 22 39 8 26 28 4 17 28 5 15 28 5 15 28 5 15 28 5 15 27 6 15 27 5 17 27 5 17 28 5 15 28 4 17 27 4 14 27 4 14 26 2 15 27 5 17 26 4 16 28 4 17 27 4 14 28 5 15 28 7 16 46 8 33 31 5 18 28 5 15 27 3 16 28 4 17 27 3 16 26 5 14 27 4 14 28 5 15 27 3 16 27 6 15 28 4 17 27 3 16 26 5 14 28 5 15 26 5 14 28 4 17 27 3 16 28 4 17 26 4 16 43 8 30 31 4 19 28 4 17 28 5 15 28 4 17 27 5 17 26 4 16 27 4 14 28 4 17 27 6 15 
22 3 9 23 4 10 23 4 10 23 4 10 23 4 10 23 4 10 23 3 12 24 4 15 24 4 16 25 4 19 25 4 19 22 3 22 23 4 24 24 4 29 23 3 30 25 5 32 26 6 34 28 8 45 29 7 45 30 8 46 32 7 46 30 8 44 30 8 44 32 8 44 28 5 34 29 6 35 29 6 34 29 6 32 28 4 28 27 6 25 41 8 37 34 6 29 28 4 20 28 4 20 28 4 18 26 5 14 26 5 14 26 2 15 27 3 16 27 3 16 26 5 14 28 4 17 27 4 14 26 2 16 25 4 13 27 3 16 28 4 17 28 5 15 26 4 16 34 6 21 39 6 25 27 4 14 26 4 16 27 3 16 28 4 17 26 3 13 26 5 14 26 2 15 29 3 16 27 4 14 26 4 16 26 5 14 26 5 14 27 5 17 27 3 16 26 5 14 28 4 17 27 4 14 26 2 15 26 5 14 44 6 31 29 5 19 27 3 16 28 4 18 27 3 16 27 3 16 27 4 12 25 4 13 25 4 13 28 4 17 28 5 15 26 2 15 27 3 16 26 5 14 26 5 14 25 5 14 28 4 17 27 3 16 27 5 17 26 4 16 42 7 29 31 5 18 26 2 15 27 4 14 28 5 15 26 4 16 25 3 15 27 4 14 28 4 17 27 6 15 
22 2 11 23 3 14 22 2 11 22 2 11 23 4 10 23 3 12 23 3 14 24 4 16 24 4 16 24 3 18 25 4 19 24 5 24 24 5 25 23 3 28 24 4 31 26 6 34 25 4 35 28 8 45 29 7 45 30 8 46 31 6 45 30 8 46 30 8 44 32 8 44 27 6 37 26 5 36 29 6 35 28 5 31 28 6 29 27 5 26 40 10 38 34 6 29 28 4 20 28 4 20 27 3 16 27 6 15 26 5 14 28 5 15 27 3 16 28 4 17 25 3 15 28 4 17 27 4 14 27 3 16 27 4 14 27 4 14 27 3 16 28 5 15 27 3 16 35 6 24 36 7 25 28 5 15 28 5 15 27 3 16 28 4 17 26 5 14 27 3 16 26 5 14 27 3 16 28 5 15 27 4 14 26 5 14 28 4 17 26 5 14 26 4 16 26 5 14 27 3 16 27 3 16 27 3 16 28 5 15 44 9 33 29 5 18 27 3 16 28 4 18 27 5 17 26 4 16 26 5 14 27 3 16 28 5 15 27 4 14 27 3 16 30 4 15 27 4 14 27 6 15 26 5 14 26 5 14 28 5 15 26 4 16 27 5 17 28 5 13 43 8 30 32 4 18 28 4 17 26 4 16 27 4 14 27 5 17 26 4 16 27 4 14 28 4 17 28 5 15 
23 3 12 22 3 9 23 4 10 24 5 11 22 3 9 23 4 10 25 5 14 23 3 15 24 4 16 25 4 19 25 4 21 23 4 24 23 4 24 24 5 27 24 4 31 25 5 33 24 5 35 28 8 45 29 7 45 32 7 46 30 8 46 32 7 46 30 8 46 32 7 46 31 8 37 31 8 36 31 6 35 31 7 33 30 5 34 29 5 29 41 8 37 36 6 30 29 4 25 29 5 21 30 3 18 29 5 18 28 4 17 28 4 17 28 4 17 30 4 17 28 4 17 32 6 19 29 5 18 30 4 17 28 4 17 30 4 17 31 5 18 30 4 17 31 5 18 35 6 24 42 9 28 28 4 17 29 6 16 31 5 16 29 5 18 28 4 17 28 6 19 28 4 17 28 6 18 29 5 18 28 4 17 30 4 17 27 3 16 27 5 17 27 3 16 28 4 17 30 4 15 27 3 16 30 4 17 31 5 16 41 9 32 32 5 20 29 5 18 29 5 19 28 4 17 28 4 17 29 5 18 28 4 17 28 5 15 30 4 17 29 6 16 31 5 18 28 4 17 28 4 17 31 5 16 28 5 15 30 4 17 31 4 19 29 5 18 30 4 17 41 8 29 33 5 19 30 3 18 29 5 19 29 5 18 28 4 17 27 5 17 28 4 17 30 4 17 29 5 18 
23 3 12 23 3 12 23 4 10 23 4 10 23 4 10 23 3 12 23 3 14 23 3 15 24 4 15 24 3 18 25 4 21 23 4 23 24 5 25 24 5 27 24 4 31 25 5 33 24 4 32 28 8 43 29 7 45 30 8 46 30 8 44 30 8 46 32 7 46 33 9 45 46 9 43 45 7 44 48 8 43 48 8 45 46 9 43 45 10 42 51 9 45 48 9 40 44 7 38 44 8 34 45 10 34 44 8 36 44 9 33 45 7 30 43 9 33 46 8 33 44 9 31 45 10 34 44 8 34 44 9 31 43 8 32 44 9 33 47 9 34 45 10 34 44 8 34 48 9 36 45 9 35 44 9 31 46 8 33 45 10 34 45 10 34 46 8 33 44 9 33 44 9 33 45 7 32 46 8 33 46 8 33 44 9 33 44 9 33 43 8 32 44 9 33 46 7 34 48 10 35 44 9 33 45 10 34 44 9 33 52 9 37 45 10 34 47 9 34 46 8 33 47 9 34 47 9 34 43 8 32 44 9 33 45 10 32 43 8 32 43 10 31 44 9 33 44 9 33 43 8 30 44 9 31 44 9 31 47 9 34 43 7 33 45 10 32 43 8 30 49 8 38 45 10 34 43 9 33 43 8 32 45 10 34 46 8 33 43 8 32 44 9 33 46 8 33 46 8 33 
23 4 10 22 3 9 23 4 10 23 4 10 23 4 10 23 4 10 23 3 12 23 3 14 24 4 16 24 3 18 23 5 21 23 4 23 23 4 24 24 5 27 24 4 29 25 5 32 26 6 34 28 8 45 31 6 45 29 7 45 30 8 46 30 8 46 30 8 46 30 8 44 27 6 39 26 6 34 29 6 34 28 5 31 27 4 30 27 5 26 41 8 37 34 6 28 27 4 20 27 3 17 28 4 17 27 4 12 26 5 14 26 3 13 27 4 14 27 4 14 25 4 13 28 5 15 27 6 15 26 5 14 26 3 13 26 4 17 27 3 16 27 6 15 27 4 14 34 6 21 38 7 25 27 6 15 28 5 15 27 4 14 27 4 14 26 5 12 26 5 14 26 5 14 26 4 16 25 4 13 26 4 16 26 5 14 26 4 16 25 4 13 26 3 13 24 3 12 28 5 15 27 4 14 27 3 17 27 4 14 43 8 30 31 5 18 27 4 14 27 4 14 28 5 15 26 5 14 26 3 13 26 4 16 26 5 14 25 4 13 26 5 14 27 4 14 25 4 13 26 5 14 25 4 13 25 4 13 28 5 15 27 4 14 27 4 14 26 5 12 42 7 29 32 6 19 27 3 16 27 4 14 27 3 17 27 6 15 25 4 13 24 4 13 26 5 14 27 4 14 
22 3 9 23 4 10 24 5 11 22 3 9 24 5 11 24 5 11 23 3 14 23 3 15 24 4 16 23 2 17 25 4 19 25 4 23 24 5 25 23 3 28 25 5 30 25 5 33 25 5 33 28 8 45 29 7 45 30 8 46 30 8 46 29 7 45 31 9 47 29 7 43 29 5 37 26 6 34 29 6 35 28 5 31 28 6 29 28 4 28 41 8 37 34 6 28 29 6 22 28 4 20 28 4 18 27 4 14 27 3 16 27 4 14 27 4 14 28 4 17 27 4 14 28 5 15 27 4 14 26 5 14 27 3 16 26 5 14 28 4 18 27 4 14 28 4 17 34 6 21 40 7 26 27 3 16 28 4 17 27 4 14 27 4 14 27 4 14 27 4 14 28 5 15 28 2 13 29 6 16 27 3 16 28 5 15 27 4 14 27 4 14 28 5 15 26 5 14 28 4 17 27 4 14 28 4 17 27 4 14 43 10 31 31 5 18 28 5 15 27 3 16 28 4 17 27 4 14 27 4 14 26 5 14 27 4 14 28 5 15 28 4 17 28 4 17 27 4 14 26 5 14 27 4 14 27 4 14 27 3 16 29 3 16 28 4 17 27 4 14 42 7 29 32 6 19 28 5 15 28 5 15 28 4 17 28 5 15 28 5 15 26 5 14 28 5 15 27 3 16 
22 3 9 22 3 9 23 4 10 23 4 10 23 4 10 22 3 9 22 2 11 23 3 14 23 3 15 25 4 19 25 4 21 25 4 23 23 4 24 24 5 27 24 4 29 25 5 33 28 5 34 29 7 45 29 7 45 32 7 46 29 9 46 30 8 46 32 7 46 32 8 44 30 7 36 28 5 34 29 6 35 29 5 31 28 4 28 28 4 28 41 8 39 33 5 28 27 4 20 26 3 19 27 5 17 27 4 14 25 4 13 26 5 14 27 4 14 28 4 17 25 2 12 27 4 14 25 4 13 26 5 14 25 4 13 26 4 17 28 5 15 27 4 14 28 5 15 36 8 23 39 8 26 27 4 14 27 3 16 27 5 17 27 3 16 26 3 13 27 4 14 25 4 13 25 5 16 27 4 14 28 4 18 27 4 14 27 6 15 26 5 14 26 5 14 25 4 13 28 5 15 27 4 14 27 3 16 25 4 13 43 8 30 29 5 18 27 3 16 27 3 16 30 3 18 27 3 16 26 3 13 26 5 14 26 5 14 27 4 14 27 3 16 26 4 16 27 4 14 26 5 14 26 5 14 27 4 14 28 4 17 28 4 17 28 4 17 27 4 14 42 7 29 31 5 18 27 4 14 28 5 15 26 3 13 27 4 14 26 3 13 25 4 13 28 5 15 27 3 16 
23 4 10 23 4 10 23 4 10 23 4 10 23 4 10 23 3 12 24 4 13 24 4 16 25 5 17 24 3 18 25 4 21 25 4 23 23 4 24 24 5 27 24 4 29 24 4 32 25 5 33 29 7 45 30 8 46 32 7 46 29 7 45 29 7 45 31 9 47 32 8 44 29 6 35 28 5 34 29 6 34 28 5 33 28 6 29 28 4 26 41 8 39 34 6 29 28 5 21 29 5 21 29 5 19 27 3 16 27 4 14 28 4 17 27 4 14 27 3 16 27 4 14 27 4 14 26 5 14 27 4 14 26 5 14 28 5 15 28 4 17 28 5 15 28 5 15 34 6 21 40 7 26 27 4 14 28 4 17 28 4 17 27 3 16 29 3 16 27 4 14 25 4 13 27 6 15 27 4 14 27 4 14 27 4 14 26 5 14 27 6 15 27 4 14 25 4 13 28 4 17 27 3 16 28 4 17 27 4 14 43 8 30 31 4 19 28 5 15 26 3 13 28 5 15 26 3 13 27 4 14 26 5 14 28 5 15 27 4 14 28 5 15 28 5 15 27 4 14 27 4 14 27 4 14 27 4 14 31 3 15 27 4 14 27 3 16 27 4 14 42 9 30 31 4 19 27 5 17 28 4 17 28 4 17 28 4 17 27 4 14 27 4 14 28 5 15 29 3 16 
23 4 10 23 4 10 23 4 10 21 2 8 23 4 10 22 3 9 23 3 14 23 3 14 24 4 16 25 4 19 23 5 19 23 4 23 23 4 24 23 3 28 24 4 31 25 5 33 25 5 33 28 8 43 29 7 45 32 7 46 30 8 46 29 7 45 30 8 44 30 8 44 30 7 36 26 6 34 29 6 34 28 5 31 27 5 28 26 4 25 41 8 39 33 5 27 27 4 20 26 4 17 26 4 16 25 4 13 24 3 10 25 3 15 26 5 14 26 3 13 25 4 13 27 4 14 26 5 14 25 4 13 25 4 13 26 4 16 27 4 14 26 5 14 26 5 14 34 6 21 38 7 25 26 5 14 28 5 15 26 5 14 26 5 14 26 5 14 25 4 13 27 6 15 25 4 13 27 4 14 27 4 14 24 3 12 24 3 12 24 3 12 25 4 13 25 4 13 27 4 14 24 4 13 26 2 15 25 4 13 43 8 30 28 4 17 26 5 14 25 4 13 26 5 14 25 4 13 25 4 13 25 4 13 25 4 13 26 5 14 25 4 13 26 5 14 25 4 13 25 4 13 25 4 13 25 4 13 27 4 14 25 4 13 26 3 13 27 6 13 41 8 27 29 5 18 25 4 13 27 4 14 27 4 14 26 5 14 25 4 13 25 4 13 26 5 14 26 5 14 
23 4 10 23 4 10 23 4 10 23 4 10 22 3 9 23 4 10 23 3 12 24 4 15 24 4 16 24 3 18 23 5 21 22 3 22 23 4 24 24 4 29 24 4 31 25 5 33 25 5 33 28 8 43 30 8 46 30 8 46 29 7 45 29 7 45 31 9 45 30 8 44 26 7 35 25 6 34 28 5 33 28 5 31 28 6 29 27 5 26 42 7 37 33 5 27 27 5 18 27 5 18 28 4 17 27 4 14 25 4 13 25 2 12 26 3 13 27 4 14 26 5 14 28 5 15 24 3 12 27 4 14 26 5 14 26 5 14 27 4 14 26 5 14 26 3 13 35 7 22 39 8 26 25 4 13 27 4 14 27 4 14 26 5 14 24 3 12 26 3 13 25 4 13 26 5 14 27 4 14 27 3 16 27 4 14 26 5 14 26 5 14 26 5 14 25 4 13 27 3 16 27 4 14 27 4 14 27 4 14 43 8 30 29 5 18 26 5 14 27 4 14 27 6 15 26 5 14 26 5 14 25 4 13 26 5 14 26 5 14 26 5 14 27 4 14 26 5 14 25 4 13 26 3 13 26 5 14 27 4 14 27 4 14 25 4 13 27 4 14 42 7 27 31 5 18 25 4 13 27 4 14 26 5 14 27 4 14 26 3 13 24 4 13 27 4 14 27 4 14 
23 4 10 22 3 9 23 4 10 22 3 9 23 4 10 22 2 11 23 3 12 23 3 15 24 4 16 24 3 20 23 5 21 24 5 24 23 4 24 24 4 29 24 4 31 25 5 33 26 6 34 27 7 42 29 7 45 29 7 45 28 6 44 29 7 45 30 8 44 30 8 44 29 5 37 26 6 34 28 5 33 28 5 31 27 5 28 27 3 25 41 8 37 33 5 27 26 3 19 26 4 17 26 4 16 26 5 14 25 4 13 25 4 13 25 4 13 27 4 14 25 4 13 27 4 14 25 4 13 25 4 13 25 4 13 25 4 13 27 4 14 25 4 13 26 3 11 35 7 22 38 7 25 25 4 13 25 4 13 27 6 15 26 5 14 25 4 13 26 5 12 25 4 13 26 5 14 25 4 13 25 4 13 26 5 14 26 5 12 25 4 13 24 3 12 25 4 13 27 4 14 25 4 13 26 3 13 25 4 13 45 7 30 28 5 15 26 5 14 25 4 13 25 4 13 25 4 13 24 3 12 25 4 11 25 4 11 25 4 13 25 4 13 26 5 14 26 5 14 24 3 12 25 4 13 26 5 14 25 4 13 25 4 13 26 5 14 25 4 13 42 9 28 27 5 17 26 5 14 26 5 14 26 5 14 26 5 14 25 4 13 25 4 13 25 4 13 27 4 14 
23 4 10 23 4 10 23 4 10 23 4 10 21 2 8 22 3 9 24 4 15 24 4 15 23 3 14 24 3 18 25 4 21 26 5 24 24 5 25 24 4 29 24 4 31 24 4 32 26 6 34 29 7 43 29 7 45 31 6 45 32 6 45 31 6 45 33 9 45 29 9 44 28 5 34 28 4 36 28 5 33 28 5 31 28 4 28 27 3 25 41 8 39 34 6 28 27 4 20 27 5 18 26 4 17 27 4 14 25 4 13 27 6 15 26 5 14 27 4 14 26 3 13 27 4 14 27 4 14 26 5 14 26 3 13 26 5 14 27 4 14 27 4 14 27 4 14 33 6 21 39 8 26 26 3 13 27 4 14 27 4 14 27 4 14 25 4 13 26 3 13 27 4 14 26 3 13 27 4 14 27 4 14 27 4 14 26 3 13 26 3 13 26 5 14 25 4 13 27 4 14 26 5 14 27 4 14 25 4 13 43 8 30 28 5 15 26 5 14 27 4 14 26 4 16 27 4 14 26 5 14 25 4 13 26 5 14 27 4 14 26 5 14 28 5 15 26 5 14 25 4 13 26 3 13 26 5 14 28 5 15 26 5 14 27 4 14 25 4 13 42 7 29 31 5 18 27 3 16 27 4 14 27 4 14 26 5 14 26 3 13 25 4 13 27 4 14 26 2 15 
23 4 10 22 3 9 22 3 9 23 4 10 22 3 9 23 4 10 24 4 13 23 3 14 24 4 16 23 2 17 25 4 21 25 4 23 25 3 24 26 4 27 24 4 29 25 5 33 25 5 33 27 7 42 29 7 45 30 8 46 30 8 44 30 8 46 32 8 44 32 8 44 27 7 34 28 5 34 28 5 34 28 5 31 27 5 28 29 5 27 42 7 39 34 6 29 28 4 20 28 4 20 28 4 17 26 5 14 25 4 13 26 3 13 28 5 15 27 4 14 25 4 13 29 6 16 26 5 14 24 3 12 24 2 14 27 3 16 27 3 16 27 3 16 27 4 14 34 6 21 40 7 26 28 5 15 28 5 15 27 4 14 27 4 14 26 3 13 27 4 14 26 3 13 27 4 14 26 5 14 27 4 14 27 6 15 27 4 14 25 4 13 27 4 14 26 5 14 28 5 15 26 3 13 27 4 14 27 4 14 43 8 30 31 5 18 27 4 14 27 4 14 28 5 15 26 3 13 27 4 14 25 4 13 27 4 14 27 4 14 27 4 14 27 4 14 27 4 14 26 5 14 28 2 13 26 3 13 27 4 14 27 4 14 27 4 14 26 5 14 41 8 29 31 5 18 27 4 14 29 3 14 28 5 15 27 4 14 26 3 13 26 3 13 29 3 14 27 4 14 
22 3 9 23 4 10 23 4 10 24 5 11 23 4 10 23 4 10 23 3 12 23 3 14 24 4 16 24 3 18 25 4 21 25 4 23 25 3 24 26 4 27 24 4 29 25 5 33 25 5 33 27 7 42 30 8 46 30 8 46 30 8 44 30 8 46 33 9 45 32 8 44 29 4 34 29 6 34 28 5 33 30 6 32 29 5 29 28 4 26 40 7 36 34 6 28 27 4 20 28 4 18 28 4 17 26 5 14 25 4 13 27 4 14 27 4 14 26 5 14 26 5 14 27 4 14 26 3 13 25 4 13 25 4 13 27 3 16 26 2 15 27 3 16 27 4 14 34 6 21 40 7 26 26 3 13 27 4 14 26 3 13 27 4 14 26 3 13 27 4 14 25 4 13 26 3 13 25 4 13 27 4 14 26 3 13 25 4 13 27 4 14 26 5 14 25 4 13 27 4 14 25 4 13 27 4 14 24 4 13 42 7 29 28 4 17 28 5 15 27 4 14 28 5 15 27 4 14 27 4 14 26 3 13 27 4 14 27 4 14 27 4 14 27 4 14 26 5 14 24 3 12 27 4 14 26 3 13 27 6 15 28 5 15 28 5 15 27 4 14 41 8 29 31 5 18 27 3 16 27 4 14 29 3 14 27 4 14 29 3 14 27 4 14 27 4 14 27 4 14 
23 4 10 22 3 9 22 3 9 23 4 10 23 4 10 22 3 9 24 4 13 23 3 14 23 3 15 24 3 18 24 3 20 25 4 23 25 3 24 26 4 27 24 4 29 24 4 32 25 5 33 27 7 42 29 7 45 30 8 46 30 8 44 31 9 47 32 8 44 32 8 44 29 6 35 29 6 34 28 5 34 29 5 31 29 5 29 27 5 26 40 7 36 34 6 28 27 3 17 28 4 18 26 4 16 27 4 14 25 2 12 26 5 14 27 4 14 28 5 15 26 3 13 28 5 15 27 4 14 26 5 14 26 3 13 27 4 14 29 6 16 27 4 14 27 4 14 35 7 22 40 7 26 27 4 14 28 5 15 28 5 15 27 4 14 26 3 13 27 4 14 27 4 14 25 4 13 27 4 14 28 5 15 27 4 14 26 3 13 25 4 13 27 3 16 26 5 14 27 3 16 26 5 14 28 5 15 27 3 16 44 9 31 31 4 19 27 4 14 27 4 14 26 3 13 27 4 14 26 3 13 26 3 13 27 4 14 26 3 13 27 4 14 27 4 14 26 5 14 25 4 13 29 3 14 26 3 13 28 5 15 26 3 13 29 6 16 27 4 14 42 9 28 31 5 18 28 5 15 27 4 14 27 4 14 26 3 13 26 3 13 27 3 16 27 4 14 27 3 16 
23 4 10 23 4 10 23 2 9 24 3 10 23 4 10 23 4 10 23 3 12 23 3 14 24 4 16 24 3 18 24 3 20 25 4 23 25 3 24 27 5 28 24 4 29 25 5 33 25 5 33 28 8 43 30 8 46 29 7 45 30 8 44 29 7 45 32 8 44 31 7 43 28 5 34 26 6 34 28 5 33 27 4 30 28 6 27 28 5 25 41 8 37 34 6 28 26 4 17 28 4 18 27 3 16 27 4 14 26 3 13 26 3 13 26 3 13 26 5 14 26 3 13 26 3 13 26 3 13 26 5 14 25 4 13 27 4 14 27 4 14 27 4 14 27 4 14 33 5 20 39 6 25 27 4 14 27 4 14 27 4 14 27 4 14 25 4 13 26 5 14 24 3 12 26 5 14 26 3 13 25 5 14 26 5 14 26 3 13 24 3 12 26 3 13 25 4 13 27 4 14 25 4 13 27 4 14 25 4 13 43 8 30 31 5 18 26 5 14 27 4 14 27 4 14 26 3 13 25 4 13 26 5 14 26 3 13 26 3 13 26 3 13 26 3 13 26 5 14 26 5 14 26 3 13 26 5 14 28 5 15 26 5 14 27 4 14 25 4 13 41 8 27 30 4 17 27 4 12 27 4 14 27 4 14 27 4 14 26 3 13 25 4 13 28 2 13 26 3 13 
23 4 10 23 4 10 24 3 10 24 3 10 23 2 9 24 5 11 23 3 12 23 3 14 23 3 15 24 3 18 25 4 21 25 4 23 25 3 24 26 4 27 24 4 29 26 6 34 26 6 34 27 7 42 29 7 45 30 8 46 32 8 44 30 8 46 32 8 44 32 8 44 28 4 36 28 5 34 29 6 34 27 4 30 27 5 28 27 3 25 41 6 36 34 6 28 27 3 17 27 3 17 27 3 16 25 4 13 25 4 13 26 3 13 26 3 13 27 4 14 24 3 12 27 4 14 25 4 13 26 5 14 25 4 13 27 4 14 27 4 14 27 4 14 26 5 14 33 5 20 38 7 25 26 3 13 27 4 14 24 3 12 26 5 14 26 5 14 25 4 13 25 4 13 26 5 14 24 3 12 26 5 14 26 3 13 26 5 14 25 4 13 26 3 13 25 4 13 29 3 14 26 5 14 27 4 14 26 5 14 42 7 29 30 4 17 26 5 14 25 4 13 28 5 15 25 4 13 25 4 13 26 5 14 25 4 13 26 3 13 27 4 14 27 4 14 25 4 13 25 4 13 25 4 13 25 4 13 27 4 14 27 4 14 27 4 14 25 4 13 41 8 27 30 4 17 28 5 15 26 3 13 26 5 14 27 4 14 24 3 12 24 3 12 25 4 13 25 2 12 
23 4 10 24 3 10 23 2 9 23 2 9 24 3 10 22 3 9 23 3 12 24 4 15 23 3 15 24 3 18 24 3 20 25 4 23 25 3 24 26 4 27 24 4 29 24 4 32 25 5 33 30 8 44 29 7 45 29 7 45 32 8 44 28 6 44 32 8 44 31 7 43 28 4 36 25 5 32 28 5 33 29 5 29 29 5 29 27 4 24 40 7 34 34 5 27 28 4 18 27 5 18 28 4 17 26 3 13 26 3 13 25 2 12 25 4 13 27 4 14 25 4 13 27 4 14 25 4 13 25 4 13 26 5 14 27 4 14 27 4 14 27 4 14 26 5 14 33 5 20 39 8 26 27 4 14 27 4 14 26 5 14 27 4 14 26 5 14 24 3 12 24 3 12 24 4 13 26 5 14 26 5 14 25 4 13 25 4 13 25 4 13 26 5 14 25 4 13 26 5 14 25 4 13 27 6 15 25 4 13 43 8 30 28 4 17 26 5 14 26 5 14 27 4 14 25 4 13 26 5 14 24 4 13 25 4 13 27 4 14 25 4 13 26 5 14 26 5 14 26 5 14 25 4 13 25 4 13 27 4 14 27 4 14 27 4 14 25 4 13 41 8 27 31 5 18 27 4 14 26 5 14 27 4 14 27 4 14 27 4 14 25 4 13 26 3 13 26 3 13 
24 3 10 25 4 11 23 2 9 24 3 10 24 3 10 22 1 8 23 3 12 24 4 15 24 4 16 24 3 18 25 4 21 25 4 23 25 3 24 26 4 27 24 4 29 25 5 33 26 6 34 28 6 42 29 7 45 29 7 45 31 7 43 29 7 45 31 7 43 31 7 43 29 6 35 25 5 33 28 5 33 28 5 31 28 4 28 28 4 26 40 7 36 33 5 27 27 4 20 28 4 18 27 3 16 26 5 14 26 5 14 26 3 13 27 4 14 26 5 14 25 4 13 28 5 15 27 4 14 26 5 14 25 4 13 27 4 14 27 4 14 27 4 14 27 4 14 34 6 21 39 6 25 26 3 13 27 4 14 26 3 13 27 4 14 26 3 13 27 4 14 26 3 13 23 3 12 28 5 15 27 4 14 25 4 13 26 3 13 25 4 13 25 4 11 25 4 11 27 4 14 26 5 14 26 5 14 26 3 13 42 7 27 29 6 16 26 5 14 26 3 13 27 4 14 26 3 13 27 4 14 24 4 13 25 2 12 27 4 14 25 5 14 25 5 14 26 5 14 26 5 14 26 3 13 26 5 14 27 4 14 27 4 14 26 3 13 25 2 12 42 7 27 30 4 17 27 4 14 27 4 14 27 4 14 27 4 14 26 5 14 26 3 13 25 4 13 26 5 14 
24 3 10 24 3 10 24 3 10 22 1 8 25 4 11 24 3 10 23 3 12 23 3 14 25 5 17 24 3 18 25 4 21 25 4 23 25 3 24 26 4 27 24 4 29 24 4 32 25 5 33 29 7 43 29 7 45 29 7 45 31 7 43 29 7 45 31 7 43 31 7 43 28 5 34 29 6 35 29 4 34 27 4 30 28 6 29 28 4 28 41 8 39 34 7 26 27 4 20 28 4 20 28 4 17 27 4 14 27 4 14 26 3 13 27 4 14 27 6 15 27 4 14 28 5 15 27 4 14 26 5 14 27 4 14 27 4 14 27 4 14 27 4 14 29 6 16 34 6 21 40 7 26 26 5 14 27 4 14 27 4 14 27 4 14 27 4 14 27 4 14 30 4 15 28 5 15 27 4 14 28 5 15 28 5 15 27 4 14 26 3 13 28 5 15 27 4 14 27 4 14 30 4 15 29 6 16 26 3 13 45 7 30 30 4 17 28 5 15 27 4 14 28 5 15 28 5 15 28 5 15 27 4 14 27 4 14 28 5 15 27 4 14 27 4 14 27 4 14 27 4 14 27 4 14 27 4 14 28 5 15 27 4 14 28 5 15 27 4 14 43 8 30 31 5 18 27 3 16 30 4 15 27 4 14 27 4 14 27 4 14 27 3 16 27 4 14 27 3 16 
24 3 10 24 3 10 24 3 10 24 3 10 23 4 10 23 4 10 24 4 13 24 4 15 24 4 16 24 3 18 24 3 20 25 4 23 26 4 25 24 5 27 24 4 29 25 5 32 26 3 32 29 7 43 29 7 45 32 7 46 33 7 44 31 6 45 32 8 44 31 7 43 28 5 34 28 5 33 29 6 35 28 4 30 29 5 29 26 4 25 41 6 36 34 5 27 27 5 18 28 4 18 28 4 17 26 5 14 26 5 14 26 3 13 26 3 13 26 3 13 27 4 14 27 4 14 27 4 14 25 4 13 26 3 13 26 5 14 28 5 15 27 4 14 26 4 16 34 6 18 39 8 24 28 5 15 27 4 14 27 3 16 28 5 15 26 3 13 25 3 15 25 4 13 28 5 15 27 4 14 27 4 14 26 2 15 26 5 14 25 4 13 26 3 13 27 4 14 28 5 15 25 4 13 26 5 12 27 4 14 43 8 30 30 7 17 27 4 14 26 3 13 26 3 13 26 3 13 27 4 14 26 5 14 26 3 13 27 4 14 26 3 13 27 4 14 27 4 14 25 4 13 27 4 14 26 3 13 27 4 14 26 5 14 27 4 14 26 3 13 42 9 28 32 6 19 27 4 14 27 4 14 27 4 14 27 4 14 25 4 13 26 5 14 27 4 14 27 4 14 
24 3 10 24 3 10 24 3 10 23 2 9 23 4 10 23 4 10 23 3 12 23 3 14 24 4 15 24 3 18 25 4 19 25 4 23 24 2 23 23 4 26 25 5 30 24 4 32 24 4 32 28 6 42 28 6 44 28 6 44 32 8 44 32 8 44 31 7 43 32 8 44 28 4 36 28 5 34 29 6 34 27 4 30 29 5 27 28 4 26 41 8 37 34 6 28 28 4 20 27 4 20 28 4 18 27 4 14 27 4 14 28 5 15 27 4 14 28 5 15 27 4 14 27 4 14 27 4 14 27 4 14 27 4 14 26 3 13 28 5 15 28 5 15 28 4 17 36 5 21 41 6 26 27 6 15 27 4 14 26 5 14 29 6 16 26 5 14 28 5 15 27 4 14 28 5 15 27 4 14 27 4 14 26 3 13 27 4 14 26 3 13 26 3 13 27 4 14 28 5 15 27 4 14 29 3 16 27 4 14 44 9 31 30 4 17 28 5 15 27 4 14 28 5 15 27 4 14 27 4 14 26 5 14 26 3 13 28 5 15 26 3 13 28 5 15 27 4 14 27 4 14 26 3 13 27 4 14 29 3 14 28 5 15 27 4 14 27 4 14 41 8 29 32 5 20 27 4 14 27 4 14 28 5 15 29 3 14 26 4 16 27 4 14 27 4 14 27 4 14 
24 3 10 24 3 10 24 3 10 24 3 10 23 4 10 23 4 10 23 3 12 24 4 15 24 4 16 25 4 19 25 4 21 25 4 23 23 4 24 23 4 26 26 3 29 25 5 32 25 5 33 27 5 41 28 8 45 32 7 46 32 8 44 32 8 44 32 8 44 31 7 43 25 6 36 26 6 34 28 5 33 28 6 29 28 4 28 27 3 25 39 6 35 35 6 28 27 4 20 26 4 17 28 4 17 26 5 14 25 4 13 26 3 13 25 4 13 26 3 13 25 2 12 27 4 14 27 4 14 26 3 13 25 4 13 28 2 13 27 4 14 27 4 14 27 4 14 33 6 21 38 5 24 25 4 13 27 4 12 27 4 12 25 2 10 25 4 11 24 3 12 25 4 13 26 3 11 27 4 14 27 4 14 28 5 15 24 3 12 25 4 13 25 4 11 28 2 11 27 4 14 25 4 13 27 4 14 26 5 14 44 9 31 30 4 17 27 4 14 26 5 14 26 3 13 26 5 14 24 3 12 25 4 13 26 5 14 27 4 14 26 5 14 26 3 13 29 3 14 25 4 13 26 5 14 24 3 12 27 4 14 27 4 14 27 4 14 26 3 13 40 7 26 29 5 18 26 3 13 27 4 14 27 4 14 26 3 13 25 4 13 26 3 13 26 3 13 27 4 14 
23 2 9 25 4 11 23 2 9 24 3 10 23 4 10 23 4 10 23 3 12 23 3 14 24 4 15 24 3 18 25 5 17 23 4 23 25 3 26 23 4 26 23 3 28 24 4 32 25 5 33 28 6 42 29 7 45 30 8 46 30 8 44 29 7 43 32 8 44 32 8 44 44 7 41 45 8 42 47 7 41 47 7 42 45 8 41 43 8 40 50 8 44 44 10 35 44 8 34 47 7 34 46 8 33 43 8 30 42 7 29 42 7 29 45 7 30 46 8 33 42 7 29 46 8 31 43 8 30 42 7 29 43 8 30 43 8 30 45 7 30 43 8 30 45 7 30 48 8 34 47 9 34 43 8 30 46 8 33 44 9 31 44 9 33 45 7 30 43 8 30 43 8 30 43 8 30 43 8 30 43 8 30 42 7 29 43 8 30 43 8 30 43 10 31 44 6 29 45 5 29 43 8 30 46 6 32 42 7 29 49 9 36 43 8 30 43 8 30 45 7 30 44 9 31 43 8 30 42 7 29 42 9 30 43 8 30 44 9 31 43 8 30 45 7 30 43 8 30 43 8 30 43 8 30 42 7 29 46 8 31 44 9 31 43 8 32 42 9 30 50 7 35 44 9 31 45 7 30 43 8 32 44 9 31 43 8 30 42 7 31 43 8 30 42 9 30 43 8 32 
24 3 10 25 4 11 24 3 10 25 4 11 23 4 10 23 4 10 22 2 11 23 3 14 24 4 16 24 2 15 24 3 20 25 4 23 23 4 24 23 4 26 26 3 29 25 5 32 26 6 34 27 5 41 28 6 42 32 8 44 32 8 44 31 7 43 31 7 43 30 6 42 28 5 34 26 3 32 29 4 33 29 7 30 28 6 29 27 3 25 41 8 37 34 6 29 26 4 17 27 3 17 27 5 17 27 4 14 26 3 13 25 4 13 29 3 14 28 5 15 26 3 13 27 4 14 28 2 13 25 4 13 27 4 14 27 4 14 27 4 14 27 4 14 27 6 13 33 6 21 40 7 24 27 4 12 26 5 14 27 4 12 28 2 15 27 4 14 26 3 13 26 3 13 26 3 13 27 4 14 27 4 14 26 3 13 27 4 14 25 2 12 26 5 14 27 6 13 26 5 14 26 3 13 26 4 16 27 4 14 43 8 30 30 4 17 28 5 15 26 3 13 27 4 14 27 4 14 27 4 14 25 4 13 27 4 14 27 4 14 26 5 14 29 3 14 27 4 14 26 5 14 26 3 13 26 5 14 27 4 14 27 4 14 28 5 15 26 3 13 41 6 26 30 4 17 27 4 14 27 4 14 28 5 15 27 3 16 25 4 13 26 3 11 27 4 14 27 4 12 
23 2 9 22 1 8 23 2 9 23 2 9 23 4 10 24 5 11 23 3 12 23 3 14 24 4 15 24 3 18 24 3 18 23 4 24 26 4 25 23 4 26 24 4 29 25 5 33 24 4 32 29 7 43 30 8 44 32 8 44 32 8 44 30 8 44 32 8 44 30 6 42 29 6 35 28 5 34 29 4 33 28 4 30 28 4 26 28 4 26 40 7 36 35 5 29 27 3 19 27 3 17 28 4 17 28 5 15 27 4 14 27 4 14 27 4 14 27 4 14 28 5 15 30 4 15 27 4 14 27 4 14 27 4 14 27 4 14 27 4 14 27 4 14 29 3 14 34 6 20 40 9 25 27 6 15 28 5 15 28 5 15 29 3 14 27 4 14 27 3 16 27 4 14 28 5 15 27 4 14 28 4 17 27 3 16 27 4 14 27 4 14 27 4 14 27 4 12 28 4 17 27 3 16 28 5 15 28 5 15 44 6 29 31 5 16 27 4 14 27 4 14 27 4 14 27 4 14 27 4 14 26 5 14 27 4 14 28 5 15 27 4 14 26 3 13 27 4 14 27 4 14 28 5 15 29 3 14 30 4 15 27 4 14 28 5 15 26 5 14 41 8 27 31 5 18 29 3 16 27 3 16 28 5 15 27 4 14 26 3 13 27 4 12 28 5 15 26 3 13 
24 3 10 23 2 9 24 3 10 23 2 9 23 4 10 23 4 10 23 3 12 23 3 14 23 3 15 23 2 17 25 4 21 26 5 24 25 3 24 24 5 27 26 3 29 24 4 31 24 5 33 29 7 43 29 7 43 31 7 43 32 8 44 31 7 43 31 7 43 29 7 43 28 5 34 28 5 33 28 5 33 30 6 32 29 3 28 28 4 26 40 7 36 34 7 26 27 5 18 28 4 18 28 4 17 26 5 14 26 5 14 27 4 14 26 3 13 27 4 14 26 3 13 28 5 15 27 4 14 26 3 13 26 3 13 27 4 14 28 5 15 27 4 14 26 2 15 33 6 21 39 8 26 27 3 16 28 5 15 29 3 14 27 4 14 26 3 11 26 5 14 26 3 13 26 5 14 26 3 13 27 4 14 26 5 14 26 3 13 25 4 13 26 3 13 26 3 13 27 4 12 26 3 13 29 3 14 25 4 13 42 7 27 30 4 17 27 4 14 27 4 14 27 4 14 26 3 13 27 4 14 26 5 14 28 5 15 27 4 14 27 4 14 27 4 14 26 3 13 26 5 14 27 4 14 25 4 13 27 4 14 26 5 14 28 5 15 26 3 13 40 7 26 31 5 18 28 5 15 26 3 13 27 4 14 26 3 13 27 4 14 26 3 13 27 4 14 27 4 14 
24 3 10 24 3 10 24 3 10 24 3 10 22 3 9 22 3 9 24 4 13 23 3 14 24 4 16 25 4 19 25 4 19 26 5 24 26 4 25 23 4 26 24 4 29 25 5 32 24 5 33 28 6 42 30 8 44 31 7 43 31 7 43 30 8 44 31 7 43 29 7 43 31 6 36 28 5 33 31 6 35 30 6 32 28 4 26 28 4 26 41 8 37 32 4 26 28 4 20 27 4 20 28 4 17 27 4 14 27 4 14 27 4 14 27 4 14 28 5 15 27 4 14 28 5 15 27 4 14 27 4 14 25 4 13 27 4 14 28 5 15 28 5 15 27 5 17 36 5 20 40 7 26 26 3 13 30 7 17 28 4 17 26 3 13 27 4 14 27 4 14 28 5 15 27 4 14 27 4 14 28 5 15 27 4 14 27 4 14 26 3 13 27 4 12 26 3 13 29 6 16 28 5 15 28 5 15 27 4 14 41 8 29 31 5 18 27 4 14 28 5 15 29 3 14 26 3 13 26 3 13 25 4 13 27 4 14 29 3 14 27 4 14 27 4 14 27 4 14 25 4 13 27 4 14 27 4 14 28 5 15 27 4 14 27 3 16 27 4 14 41 8 29 30 3 18 28 5 15 28 5 15 28 5 15 29 3 14 26 5 14 28 5 15 27 4 14 28 5 15 
24 3 10 23 2 9 24 3 10 24 3 10 24 3 10 24 3 10 22 2 11 24 4 15 24 4 16 24 3 18 25 4 21 25 4 23 26 4 25 26 4 27 24 4 29 25 5 33 26 6 34 28 8 43 30 8 44 31 7 43 31 7 43 28 8 43 29 7 43 31 7 41 30 7 36 27 4 33 29 4 33 28 5 31 28 4 28 27 4 24 41 6 36 33 6 25 27 5 18 27 3 17 27 5 17 27 4 14 26 3 13 25 4 13 27 4 12 26 5 14 26 3 11 27 4 14 26 3 13 26 3 13 26 3 13 26 3 13 27 4 14 27 4 12 28 5 15 33 5 20 39 6 25 26 3 13 29 3 14 27 4 14 27 4 14 26 3 13 26 5 14 25 4 13 26 5 14 26 3 13 27 4 14 26 5 12 26 5 12 25 4 11 25 2 12 24 3 10 26 3 13 26 3 13 28 5 15 25 4 13 42 7 29 30 4 15 27 4 14 27 4 14 26 3 13 26 3 13 25 4 13 25 4 13 25 4 13 27 4 14 26 3 13 27 4 14 27 4 14 23 4 10 26 3 13 26 5 12 27 4 14 27 4 14 27 4 14 26 5 12 40 7 26 31 5 18 26 3 13 28 5 15 26 5 14 27 4 14 26 3 13 24 3 10 26 3 13 26 3 13 
22 3 9 22 3 9 24 3 10 23 2 9 23 4 10 22 3 9 23 3 12 23 3 14 24 4 16 24 3 18 26 3 21 25 4 23 24 2 23 23 4 26 26 3 29 24 4 32 25 5 32 28 6 42 29 7 43 31 7 43 31 7 43 29 7 43 29 7 43 31 7 43 28 5 34 28 5 33 26 6 33 29 5 29 28 4 26 27 4 24 40 7 36 34 5 27 26 3 19 29 2 17 26 2 15 28 2 13 26 3 13 25 4 13 27 4 14 27 4 14 26 3 11 27 4 14 26 3 13 26 3 13 26 3 13 27 4 14 27 4 14 27 4 12 27 4 14 32 5 20 39 8 26 27 4 14 26 5 14 26 5 14 26 5 14 26 5 14 27 4 14 25 4 13 26 3 13 26 3 13 27 4 14 26 3 13 26 5 12 26 3 13 27 4 14 25 4 11 27 4 14 25 4 13 27 4 14 26 3 13 42 9 30 28 5 13 28 5 15 27 4 14 27 4 14 26 5 14 27 4 14 25 4 13 26 3 13 28 5 15 27 4 14 27 4 14 26 5 14 26 2 15 26 3 13 26 3 11 26 3 13 26 3 13 29 3 14 25 4 13 42 7 27 31 5 18 26 5 12 26 3 13 27 4 14 27 4 14 25 4 11 26 3 11 29 3 14 27 4 14 
23 2 9 23 2 9 25 2 10 23 2 9 23 2 9 24 3 10 24 3 12 23 3 14 25 5 17 25 4 19 25 4 21 24 3 22 24 2 23 26 4 27 24 4 29 25 5 33 25 5 33 28 6 42 29 7 43 31 7 43 32 8 44 30 8 44 31 7 43 31 7 41 28 5 33 28 5 33 29 4 33 28 4 30 28 4 30 27 3 25 40 7 36 33 5 27 27 5 18 28 4 18 27 3 16 26 3 13 25 4 13 25 4 11 26 3 11 27 4 14 26 3 11 26 3 13 27 4 14 26 3 13 26 3 11 26 3 13 27 4 14 27 4 14 27 4 14 33 5 19 36 5 23 27 4 12 26 5 14 27 4 14 27 4 12 24 3 10 27 4 14 26 5 12 26 3 11 25 2 12 27 4 14 27 4 12 25 4 11 25 2 10 26 3 11 25 4 11 27 4 14 26 3 11 27 4 14 25 4 13 42 7 27 31 5 16 26 3 13 26 3 13 26 3 13 26 3 13 25 4 13 24 3 12 25 4 13 27 4 14 24 3 12 26 3 13 26 3 13 25 4 11 26 3 13 25 4 11 26 3 13 26 5 14 28 5 15 25 4 11 41 8 27 30 4 17 27 4 14 26 3 11 26 5 14 27 4 12 27 4 14 25 4 13 26 3 13 26 3 13 
24 3 10 23 2 9 23 4 10 24 3 10 23 2 9 24 3 10 24 4 13 23 3 14 25 5 16 25 4 19 25 4 21 25 4 23 24 3 22 26 3 29 24 4 29 24 4 31 24 4 32 29 7 43 29 7 43 31 7 43 32 8 44 32 8 44 32 8 44 32 8 42 29 6 35 28 5 33 29 4 33 28 6 29 28 4 28 29 5 27 42 7 37 33 5 27 27 3 17 27 3 17 27 3 16 27 4 14 27 4 14 27 4 14 27 4 12 28 5 15 26 3 13 27 4 14 26 3 13 28 5 15 27 4 14 27 4 14 27 4 14 27 4 14 27 4 14 36 5 20 39 6 25 26 5 12 27 4 14 27 4 14 27 4 14 25 2 12 27 4 14 25 3 15 27 4 14 27 4 14 28 5 15 26 2 15 26 5 12 26 3 13 26 3 11 26 3 13 29 3 14 27 4 14 27 4 14 27 4 14 43 8 28 30 4 17 28 5 15 27 4 14 27 4 14 26 5 14 26 5 14 25 4 13 26 3 13 26 3 13 27 4 14 28 5 15 26 5 14 26 3 13 27 4 14 27 4 12 27 4 14 26 3 13 27 4 14 26 3 13 41 8 27 31 5 18 27 4 14 27 4 14 28 5 15 27 4 14 27 4 12 26 3 11 27 4 12 26 3 13 
24 3 10 24 3 10 25 4 11 23 2 9 25 4 11 23 4 10 23 3 12 25 3 15 24 4 15 24 3 18 25 4 21 24 3 22 25 4 23 23 4 26 26 3 29 25 5 32 25 5 32 28 6 42 28 6 42 31 7 43 32 8 44 31 7 43 31 7 43 31 7 43 28 5 34 28 5 34 29 6 34 29 5 31 29 5 29 27 4 24 41 8 37 35 6 26 28 4 18 28 4 18 27 3 16 26 3 13 26 3 13 26 3 11 27 4 14 27 4 14 26 3 11 27 4 14 26 3 13 27 4 12 27 4 12 27 4 14 27 4 14 27 4 14 28 5 15 34 6 21 40 7 26 27 4 14 30 4 15 27 4 14 26 3 13 27 4 14 27 4 14 26 3 11 27 3 16 27 4 14 27 4 14 27 4 14 27 3 16 26 3 13 30 4 13 26 3 13 27 4 14 28 5 15 29 3 14 27 4 14 45 7 28 31 5 18 28 5 15 27 4 14 27 4 14 26 3 13 26 3 13 27 4 14 26 3 13 27 4 14 26 3 13 27 4 14 27 4 14 25 4 13 26 3 13 25 2 10 30 4 15 27 4 14 27 4 14 27 4 14 40 7 26 31 5 18 27 4 14 27 4 14 28 5 15 27 4 14 29 3 14 27 3 16 28 5 15 27 4 12 
24 3 10 24 3 10 24 3 10 23 2 9 23 4 10 24 3 10 24 3 12 24 4 15 25 5 16 24 3 18 25 4 19 26 5 24 25 4 23 24 5 27 26 3 29 25 5 32 24 4 31 28 6 42 29 7 43 31 7 43 31 7 43 31 7 43 31 7 43 30 6 42 29 6 35 28 5 34 29 4 34 28 4 30 29 5 29 28 5 25 40 7 36 34 7 26 27 3 17 27 3 17 27 3 16 27 4 14 26 3 13 26 3 11 27 4 12 27 4 14 26 3 11 26 3 13 27 4 14 26 3 11 26 3 11 26 3 11 27 4 14 27 4 12 28 5 15 33 5 20 38 7 25 25 2 12 27 4 14 27 4 14 27 4 14 26 3 13 26 5 12 24 3 10 25 4 11 25 2 12 27 4 14 26 5 12 26 5 12 25 4 13 26 3 11 26 3 11 28 2 13 27 4 12 26 3 13 26 3 13 44 6 27 31 5 16 27 4 14 28 5 15 27 4 14 25 4 13 24 3 12 25 4 13 27 4 14 27 4 14 27 4 14 27 4 14 27 4 14 25 2 10 25 4 13 25 4 11 27 4 14 26 3 13 28 5 15 26 5 12 40 7 26 31 5 18 27 4 14 26 3 11 27 4 14 26 5 12 25 4 11 24 3 10 26 3 11 26 3 13 
25 2 10 23 2 9 24 3 10 24 3 10 23 2 9 25 4 11 24 3 12 24 4 15 24 4 15 24 3 18 23 2 17 23 2 21 25 4 23 25 3 26 24 4 29 25 5 32 24 4 32 28 6 42 27 7 42 31 7 43 32 8 44 31 7 43 31 7 43 32 8 42 29 6 35 28 5 34 30 5 34 27 5 28 30 6 28 28 5 23 41 6 36 34 6 28 28 4 18 27 3 17 28 4 17 27 4 14 26 3 13 26 2 15 27 4 12 27 4 14 26 3 13 27 4 14 27 4 14 26 3 13 27 4 14 27 4 14 27 4 14 27 4 14 28 5 15 36 5 21 40 7 26 27 4 14 28 5 15 29 3 14 28 5 15 27 4 14 28 5 15 27 4 12 27 4 14 27 4 14 27 4 14 27 4 14 28 5 15 27 4 14 27 4 14 28 2 11 27 4 14 27 4 14 27 4 14 26 5 14 43 8 30 31 5 14 27 4 14 26 3 13 27 6 15 27 4 14 26 3 13 29 3 14 26 3 13 27 4 14 26 3 13 27 4 14 28 5 15 25 1 14 26 3 13 27 4 12 29 3 14 27 4 14 28 5 15 27 4 14 41 8 27 29 5 18 28 5 13 29 3 14 27 4 14 27 4 14 27 4 14 26 3 11 27 4 14 27 4 14 
24 3 10 23 2 9 25 4 11 23 2 9 24 3 10 23 4 10 23 3 12 25 3 15 24 4 15 24 3 18 25 4 19 26 5 24 25 4 23 24 5 27 26 3 29 25 5 32 25 5 32 28 6 42 28 8 43 31 7 43 31 7 43 31 7 43 32 8 44 31 7 43 28 5 34 28 5 33 28 5 33 28 4 28 29 5 29 26 2 24 40 7 36 33 5 27 27 3 17 28 4 18 28 4 17 27 4 14 26 3 13 26 3 11 27 4 14 28 5 15 26 3 11 26 3 13 26 3 13 26 3 13 26 3 11 25 2 12 27 4 14 27 4 14 27 4 14 36 5 20 39 6 25 25 4 11 28 5 15 27 4 14 26 3 13 25 2 10 26 3 11 26 3 11 26 3 11 25 2 12 26 3 13 25 2 12 26 3 13 26 3 13 26 3 13 27 4 12 27 4 14 26 3 13 27 4 14 26 3 13 44 6 29 30 4 15 27 4 14 26 3 13 27 4 14 25 4 13 25 4 13 26 3 13 26 3 13 26 3 13 26 3 13 27 4 14 28 2 13 26 3 11 26 3 13 25 4 11 27 1 12 27 4 14 27 4 14 27 4 12 41 8 27 30 4 17 26 3 13 26 3 13 25 2 12 26 5 14 27 4 12 26 3 11 27 4 14 27 4 14 
24 3 8 24 3 10 22 1 8 23 4 10 23 2 9 24 3 8 24 3 12 24 4 15 23 3 14 24 3 18 24 3 18 24 3 22 25 4 23 25 3 26 25 5 30 25 5 32 25 5 33 28 6 42 29 7 43 31 7 43 32 8 44 29 7 43 31 7 43 32 6 43 28 5 34 28 5 33 29 4 33 29 5 29 27 5 26 27 4 24 40 7 34 35 3 24 27 5 18 26 4 17 26 3 13 25 2 12 26 3 11 26 3 13 27 4 12 27 4 14 26 3 11 26 3 13 27 4 14 26 5 12 25 4 11 27 4 14 27 4 14 28 5 13 26 5 12 33 5 20 38 5 24 26 3 11 26 5 12 27 4 12 27 4 12 25 4 11 26 3 11 27 4 12 27 4 12 26 3 11 27 4 12 27 4 12 25 4 11 25 4 11 27 4 12 25 2 10 27 4 14 26 3 13 27 4 14 26 3 13 42 7 27 30 4 17 27 4 14 28 5 15 26 3 13 26 3 13 26 5 12 26 5 12 24 3 10 27 4 12 27 4 14 26 3 13 26 3 13 24 3 10 27 4 12 26 5 12 27 4 14 27 4 14 27 4 14 27 4 14 40 7 26 31 5 16 25 2 10 27 4 14 24 3 12 26 5 14 26 3 11 26 3 13 27 4 14 26 2 15 
21 4 10 24 3 10 23 2 9 25 4 11 24 3 10 24 3 10 23 3 12 23 3 14 23 3 14 25 2 18 25 4 19 23 5 21 22 3 22 26 4 27 27 4 30 25 5 32 26 6 34 28 6 42 29 7 43 31 7 43 31 7 43 31 7 43 31 7 43 30 6 42 29 6 35 26 6 33 27 4 32 26 7 29 28 4 26 28 5 25 40 7 34 34 6 28 27 5 18 27 3 16 26 3 13 27 4 10 27 4 14 26 5 12 26 3 11 27 4 12 26 3 11 27 4 14 26 3 13 26 3 11 26 3 11 26 3 13 27 4 14 29 3 12 25 4 11 33 5 20 38 7 25 27 3 16 27 4 14 26 3 13 26 3 13 26 5 12 26 3 11 27 4 12 26 3 11 26 3 11 27 4 12 26 3 11 25 4 11 24 3 10 25 4 13 24 5 11 27 4 14 26 3 13 26 3 13 26 3 13 42 7 27 30 4 15 27 4 14 25 4 13 26 3 13 25 2 12 26 3 13 25 4 11 25 2 10 26 3 11 26 3 13 26 3 11 27 1 10 25 4 11 26 3 11 24 3 10 27 4 14 26 5 12 27 4 14 25 2 12 40 7 26 30 4 13 27 4 12 27 4 12 27 4 14 27 4 12 26 3 11 26 3 11 27 4 12 26 3 13 
24 3 10 23 2 9 24 3 8 23 2 9 26 5 12 24 3 10 22 1 10 23 3 12 23 3 14 24 4 16 24 3 18 25 4 21 24 3 22 26 4 27 24 4 29 25 5 32 25 5 32 28 6 42 29 7 43 31 7 43 31 7 43 31 7 43 32 8 44 31 7 41 28 3 32 29 4 33 28 5 33 29 5 31 29 5 29 28 5 25 41 8 35 35 6 28 27 5 18 28 4 18 26 2 15 27 4 14 27 4 14 26 3 13 27 4 12 27 4 14 25 4 11 27 4 14 27 4 14 25 2 10 25 4 11 27 4 14 27 4 14 28 5 13 27 4 14 36 5 21 39 8 24 27 4 14 29 3 14 29 3 14 27 4 12 27 4 12 26 3 11 26 3 11 26 5 12 27 4 12 26 5 12 27 4 12 26 5 12 25 4 11 28 5 15 26 5 12 27 4 14 27 4 14 27 4 14 26 3 11 43 8 30 31 5 16 27 4 14 27 4 14 27 4 14 28 2 13 26 3 13 26 3 13 27 4 14 26 3 13 25 2 10 27 4 12 27 4 14 25 4 11 25 4 11 25 4 11 27 4 12 26 5 12 27 4 14 26 3 13 41 8 27 31 5 14 27 4 14 27 4 12 26 5 14 27 4 14 27 4 12 27 4 14 27 4 14 28 5 15 
24 3 10 25 4 11 23 2 7 23 4 10 23 4 10 23 4 10 24 3 12 24 4 15 24 4 15 24 4 16 24 3 18 25 4 21 25 4 23 27 5 28 26 3 29 25 5 32 24 4 31 28 6 42 31 7 43 32 8 44 31 7 43 31 7 43 32 8 44 31 7 41 28 5 34 28 5 33 30 5 34 28 4 28 28 4 26 29 6 26 41 7 34 34 6 28 29 5 19 29 5 19 27 4 14 28 5 15 26 3 11 27 4 14 29 6 14 28 5 15 26 3 13 28 5 15 26 3 13 27 4 14 27 4 14 27 4 14 26 3 13 30 4 15 27 4 14 35 7 21 38 7 23 28 5 11 27 4 14 27 4 14 27 4 14 25 4 11 26 3 13 26 3 13 27 4 14 26 3 13 27 4 14 27 4 14 27 4 14 26 3 13 28 2 13 26 3 11 29 3 14 30 4 15 27 4 14 27 4 12 45 7 32 31 5 16 29 3 14 29 3 14 29 3 14 27 4 12 29 2 11 27 4 12 26 3 13 27 4 14 26 3 13 29 3 14 27 4 14 25 2 10 27 4 14 26 3 13 29 3 14 27 4 14 27 4 14 28 2 13 41 8 27 31 5 16 27 4 14 27 4 14 27 4 14 26 4 16 26 3 11 26 3 13 27 4 14 27 4 12 
26 3 11 23 2 9 24 3 10 23 2 9 24 3 10 24 3 10 24 3 12 23 3 14 24 4 15 24 4 16 25 4 19 24 3 20 25 4 23 26 4 27 26 3 29 26 6 33 25 5 32 28 6 42 31 7 43 31 7 43 31 7 41 31 7 43 32 8 44 31 7 41 30 5 35 29 4 33 31 6 35 29 5 29 30 5 27 29 6 26 41 7 34 34 5 27 27 4 20 28 4 18 27 3 16 27 4 14 26 3 13 27 4 14 28 2 13 29 3 14 26 3 13 27 4 14 26 3 13 27 4 14 26 3 13 27 4 14 27 4 14 27 4 14 28 2 13 37 6 22 40 7 24 27 4 14 29 3 14 29 3 14 28 5 15 26 3 11 27 4 14 27 4 14 27 4 14 27 4 14 27 4 14 27 4 14 27 4 14 26 3 13 27 4 14 26 3 9 27 4 14 27 4 14 29 6 16 27 4 14 44 6 29 31 5 18 28 5 15 27 4 14 28 5 15 27 4 12 29 3 12 26 3 11 26 3 11 29 3 12 27 4 14 26 3 13 27 4 14 26 3 13 27 4 14 26 3 13 27 4 14 27 4 14 31 5 16 26 5 14 40 7 26 31 5 14 27 4 14 29 3 14 27 4 14 26 3 13 27 4 12 27 4 14 28 5 13 29 3 14 
24 5 9 22 1 8 24 3 10 24 5 11 24 3 10 24 3 8 24 4 13 23 3 14 24 4 15 25 5 17 25 2 18 24 3 20 24 3 22 26 4 27 25 2 28 26 6 33 25 5 32 28 7 40 31 7 41 31 7 43 31 7 41 31 7 43 32 8 42 31 7 41 29 6 35 28 5 33 30 5 34 28 4 30 28 4 28 26 4 25 42 6 34 34 6 28 27 5 18 28 4 18 28 4 17 26 3 13 26 3 13 27 4 12 26 3 13 27 4 14 25 4 11 27 4 14 26 3 13 26 3 11 26 3 11 27 4 14 27 4 14 28 5 13 30 4 13 34 6 21 39 8 26 26 3 13 27 4 14 26 3 13 26 4 16 26 3 13 26 3 13 26 3 13 27 4 14 26 3 13 27 4 14 26 3 13 26 3 13 26 3 13 26 3 13 28 2 11 26 3 13 25 4 13 28 2 13 26 3 13 43 8 28 31 3 17 28 2 13 26 3 13 28 2 13 27 4 14 27 1 12 25 4 13 27 4 14 27 4 12 26 3 13 27 4 12 27 4 14 25 4 13 27 4 14 27 4 14 27 4 14 29 3 12 26 3 11 27 4 14 40 7 26 32 4 16 26 5 14 27 6 13 28 5 15 27 4 14 26 3 11 26 3 13 27 4 12 26 2 15 
