P3
100 50
255
18 4 17 21 5 18 21 5 18 19 5 18 19 5 18 21 5 18 21 5 18 19 5 18 19 5 18 18 4 17 18 4 17 19 5 18 19 5 18 19 5 18 18 4 17 18 4 17 19 5 18 19 5 18 18 4 17 20 6 19 18 4 17 19 5 18 21 5 18 19 5 18 18 4 17 19 5 18 19 5 18 18 4 17 19 5 18 19 5 18 18 4 17 19 5 18 18 4 17 18 4 17 18 4 17 19 5 18 20 6 19 19 5 18 19 5 18 19 5 18 21 5 18 19 5 18 21 5 18 19 5 18 21 5 18 17 5 17 19 5 18 19 5 18 21 5 18 19 5 18 19 5 18 19 5 18 19 5 18 19 5 18 19 5 18 19 5 18 21 5 18 19 5 18 19 5 18 20 4 17 20 6 19 18 4 17 21 5 18 20 6 19 19 5 18 18 4 17 19 5 18 18 4 17 19 5 18 18 4 17 19 5 18 19 5 18 18 4 17 18 4 17 19 5 18 21 5 18 19 5 18 21 5 18 19 5 18 19 5 18 19 5 18 21 5 18 19 5 18 19 5 18 18 4 17 19 5 18 18 4 17 19 5 18 19 5 18 19 5 18 20 6 19 18 4 17 19 5 18 19 5 18 18 4 17 19 5 18 21 5 18 19 5 18 19 5 18 19 5 18 
19 5 18 19 5 18 19 5 18 18 4 17 18 4 17 19 5 18 19 5 18 18 4 17 19 5 18 18 4 17 19 5 18 19 5 18 19 5 18 19 5 18 19 5 18 19 5 18 20 6 19 21 5 18 18 4 17 20 6 19 19 5 18 19 5 18 21 5 18 20 6 19 19 5 18 19 5 18 19 5 18 19 5 18 19 5 18 19 5 18 19 5 18 18 4 17 21 5 18 19 5 18 18 4 17 18 4 17 21 5 18 20 4 17 19 5 18 19 5 18 19 5 18 19 5 18 19 5 18 18 4 17 18 4 17 19 5 18 19 5 18 19 5 18 18 4 17 19 5 18 19 5 18 18 6 18 18 4 17 19 5 18 19 5 18 21 5 18 19 5 18 19 5 18 20 6 19 19 5 18 19 5 18 19 5 18 19 5 18 19 5 18 19 5 18 18 4 17 21 5 18 19 5 18 18 4 17 22 6 19 19 5 18 18 4 17 19 5 18 19 5 18 18 4 17 22 6 19 19 5 18 21 5 18 19 5 18 19 5 18 19 6 16 20 4 15 18 5 15 19 5 18 19 5 18 19 5 18 18 4 17 19 5 18 19 5 18 19 5 18 19 5 18 19 5 18 18 4 17 19 5 18 19 5 18 20 6 19 19 5 18 19 5 18 19 5 18 19 5 18 
19 5 18 18 4 19 20 6 19 19 5 20 19 5 18 20 6 21 20 6 19 19 5 18 20 6 19 19 5 18 19 5 18 19 5 18 20 6 19 20 6 19 19 5 18 18 4 17 19 5 20 20 6 21 19 5 20 19 5 20 20 6 21 19 5 20 19 5 20 19 5 20 19 5 18 19 5 18 19 5 18 19 5 18 18 4 17 19 5 18 19 5 18 19 5 18 19 5 20 19 5 20 19 5 20 19 5 20 20 6 21 21 4 20 19 5 20 19 5 20 20 6 19 19 5 18 19 5 18 20 6 19 20 6 19 19 5 18 19 5 18 19 5 18 20 6 21 20 6 21 19 5 20 19 5 20 20 6 21 19 5 20 18 4 19 19 5 20 19 5 20 21 4 20 20 6 21 20 6 21 19 5 20 19 5 20 22 5 21 19 5 20 19 5 20 19 5 20 19 5 20 19 5 20 19 5 20 19 5 20 19 5 20 19 5 20 19 5 18 18 4 17 19 5 18 19 5 18 19 5 18 19 5 18 19 5 18 19 5 18 19 5 20 21 4 20 19 5 18 19 5 18 18 4 17 19 5 18 19 5 18 20 6 19 19 5 18 19 5 18 20 6 19 21 7 20 20 6 19 19 5 18 19 5 18 19 5 18 18 4 17 20 6 19 19 5 18 18 4 17 
19 5 22 20 6 23 19 5 22 19 5 22 19 5 22 19 5 22 19 5 22 20 6 23 19 5 22 20 6 23 19 5 22 20 6 23 20 6 23 19 5 22 19 5 22 20 6 23 21 7 24 19 6 23 20 6 23 21 4 22 20 6 23 20 6 23 22 5 23 20 6 23 20 6 23 21 7 24 20 6 23 20 6 23 20 6 23 20 6 23 20 6 23 20 6 23 19 5 22 19 5 22 19 5 22 20 6 23 19 5 22 19 5 22 20 6 23 19 5 22 20 6 23 18 5 22 19 5 22 19 5 22 19 5 22 21 7 24 19 5 22 19 5 22 19 5 22 20 6 23 20 6 23 20 6 23 19 6 23 20 6 23 19 5 22 20 6 23 20 6 23 19 5 22 20 6 23 20 6 23 20 6 23 19 5 22 20 6 23 19 5 22 20 6 23 21 7 24 19 5 22 19 5 22 19 5 22 19 5 22 19 5 22 20 6 23 20 6 21 19 5 20 21 4 20 19 5 20 19 5 20 19 5 20 18 6 20 19 5 20 20 6 21 22 5 21 19 5 20 19 5 18 19 5 18 20 6 19 19 5 18 18 4 17 19 5 18 19 5 18 19 5 18 19 5 18 18 4 17 18 4 17 19 5 18 19 5 18 19 5 18 18 4 17 19 5 18 21 5 18 
20 5 24 20 5 24 20 5 24 19 4 23 20 5 24 20 5 24 19 4 23 19 4 23 20 6 23 22 5 24 20 6 23 20 6 23 20 5 24 20 6 23 20 6 23 20 6 23 20 5 24 19 4 23 20 5 24 20 5 24 19 4 23 20 5 24 20 5 24 22 7 26 20 6 23 20 5 24 20 5 24 20 6 23 20 5 24 20 5 24 19 5 22 22 7 26 20 5 24 19 4 23 20 5 24 20 5 24 20 5 24 19 4 23 20 5 24 19 4 23 19 5 22 20 6 23 19 5 22 20 6 23 20 6 23 20 6 23 20 6 23 19 5 22 20 5 24 20 5 24 20 5 24 20 5 24 20 5 24 19 4 23 20 5 24 20 5 24 20 5 24 20 5 24 21 6 25 20 5 24 20 5 24 20 5 24 20 5 24 20 5 24 21 6 25 20 5 24 20 6 23 20 5 24 20 5 26 20 6 23 19 4 25 19 4 23 21 4 22 19 5 22 22 5 23 19 5 22 20 6 23 19 5 22 19 5 22 19 5 22 19 5 20 19 5 20 20 6 21 20 6 21 19 5 20 19 5 20 19 5 18 18 4 17 20 4 17 21 5 18 21 5 18 19 5 18 19 5 18 20 7 17 19 5 18 19 5 18 19 5 18 19 5 18 19 5 18 19 5 18 
20 5 26 20 5 26 20 5 26 20 5 24 21 6 25 21 6 27 20 5 26 20 5 26 21 6 25 21 6 27 20 5 26 21 6 25 20 5 26 21 6 25 21 6 25 21 6 27 20 5 24 20 5 24 21 6 25 21 6 25 21 6 25 21 6 25 20 5 24 21 6 25 21 6 25 20 5 26 21 6 27 20 5 24 20 5 26 21 6 27 21 6 25 21 6 27 21 6 27 20 5 26 21 6 27 21 6 27 20 5 26 21 6 27 20 5 26 21 6 27 21 6 27 20 5 26 21 6 27 20 5 26 21 6 27 20 5 26 20 5 26 21 6 27 20 5 26 19 4 25 20 5 26 20 5 26 21 6 27 20 5 26 20 5 26 22 7 28 20 5 26 20 5 26 20 5 26 19 4 25 21 6 27 20 5 26 20 5 26 20 5 26 21 6 25 20 5 26 21 6 25 22 7 26 21 6 25 20 5 26 20 5 26 21 6 25 20 5 24 20 5 24 19 4 23 19 4 23 20 5 24 21 6 25 19 4 23 20 5 24 20 5 24 19 5 22 19 5 22 21 7 22 19 5 20 19 5 18 18 4 17 19 5 18 21 5 18 21 5 18 19 5 18 20 6 19 19 5 20 19 6 16 19 5 18 19 5 20 18 4 17 21 5 18 19 5 18 19 5 18 
20 5 28 20 5 28 21 6 29 21 6 29 20 5 28 20 5 28 20 5 28 20 5 28 20 6 29 20 6 29 20 6 29 20 7 27 18 4 27 20 6 29 20 6 29 19 5 28 20 5 28 20 5 28 21 6 29 20 5 28 21 6 29 20 5 28 21 6 29 21 6 29 20 5 28 21 6 29 20 6 29 20 5 28 20 5 28 20 6 29 20 5 28 21 6 29 20 5 28 21 6 29 21 6 29 20 5 28 21 6 29 21 6 29 20 5 28 20 5 28 20 5 28 21 6 29 20 5 28 21 6 29 20 5 28 21 6 29 20 5 28 21 6 29 21 6 29 21 6 29 21 6 29 21 6 29 22 7 30 20 5 28 21 6 29 21 6 29 22 7 30 21 6 29 21 6 29 20 5 28 20 5 28 20 5 28 19 4 27 20 5 28 21 6 29 19 5 28 21 6 29 21 6 29 20 5 28 20 5 28 20 5 28 20 5 28 22 7 28 21 6 25 20 5 26 21 6 27 22 7 28 20 5 24 20 5 24 20 5 26 20 5 24 19 4 25 20 6 23 19 5 22 20 6 21 20 6 19 20 6 19 18 4 19 22 6 19 19 5 20 19 5 18 19 5 18 19 5 18 19 5 18 19 5 18 18 5 15 20 6 19 19 5 18 19 5 18 20 6 19 
20 6 31 21 7 32 22 6 32 20 6 31 20 6 31 21 5 31 20 6 31 21 7 32 21 5 31 20 6 31 22 6 32 20 6 29 21 5 31 20 6 31 21 5 31 20 6 31 21 5 31 20 6 31 20 6 31 22 6 32 20 6 31 20 6 31 22 6 32 21 7 32 22 6 32 20 6 31 21 7 32 20 6 31 21 5 31 21 5 31 20 6 31 19 5 30 21 5 31 20 4 30 21 5 31 21 5 31 20 4 30 21 5 31 21 5 31 21 5 31 21 5 31 21 5 31 21 5 31 19 5 30 22 6 32 21 5 31 20 6 31 21 5 31 21 5 31 21 7 32 20 6 31 22 6 32 20 4 30 21 7 32 19 5 30 21 5 31 21 5 31 21 5 31 21 5 31 21 5 31 21 5 31 21 5 31 21 5 31 22 6 32 20 6 31 22 6 32 21 5 31 20 6 31 21 5 31 21 5 31 20 6 31 21 5 31 20 6 31 22 7 30 20 6 29 20 5 28 20 6 29 22 7 28 21 6 27 20 5 26 20 5 24 20 5 24 20 5 24 20 6 23 20 6 23 21 7 22 20 6 21 19 5 18 20 6 21 20 6 19 19 5 18 19 5 18 18 4 17 19 6 16 20 6 19 18 4 17 19 5 18 19 5 18 19 5 18 21 5 18 
21 7 33 20 6 32 20 6 32 20 6 32 20 6 32 21 7 33 21 7 33 21 7 33 20 6 32 21 7 33 21 7 33 20 4 30 20 7 33 22 6 33 21 7 33 20 6 32 21 5 32 20 6 32 21 5 32 22 6 33 21 7 33 21 5 32 21 5 32 21 7 33 21 7 33 20 6 32 22 6 33 22 6 33 21 7 33 20 6 32 20 6 32 21 5 32 21 7 33 20 6 32 21 7 33 21 7 33 21 7 33 21 7 33 22 8 34 21 7 33 21 7 33 22 6 33 20 6 32 21 7 33 22 6 33 21 7 33 20 6 32 21 7 33 22 6 33 21 7 33 21 7 33 22 6 33 22 6 33 20 6 32 20 6 32 22 6 33 21 7 33 21 7 33 21 7 33 21 7 33 21 7 33 20 6 32 20 6 32 21 7 33 22 6 35 20 6 32 21 7 33 22 6 33 21 6 35 21 7 33 21 5 32 21 7 33 20 6 32 20 6 32 21 5 32 20 6 31 22 6 32 21 6 29 21 6 29 20 5 26 21 6 27 20 5 26 20 5 24 20 5 24 21 7 24 20 6 23 20 6 21 19 5 20 19 5 18 18 4 17 20 6 19 19 5 18 18 4 17 18 4 17 18 5 15 18 5 15 18 4 17 21 5 18 19 5 18 19 5 18 
21 6 37 23 7 36 21 6 35 22 6 35 23 7 36 21 6 35 22 6 35 21 6 37 21 6 37 22 7 36 22 7 36 21 6 35 21 6 37 21 6 37 21 6 37 22 7 36 21 6 35 21 6 35 21 6 35 21 6 35 21 6 35 21 6 35 21 6 35 21 6 35 21 6 35 22 6 35 21 6 35 22 7 36 21 6 35 21 6 35 23 7 36 22 7 36 21 6 35 21 6 35 20 5 34 21 6 35 20 5 34 21 6 35 21 6 35 21 6 35 21 6 35 22 7 36 21 6 35 21 6 35 22 7 36 21 6 35 22 7 36 22 7 36 21 6 37 21 6 35 22 7 36 21 6 37 21 6 37 22 7 36 21 6 35 22 7 38 22 7 36 21 6 35 21 6 35 21 6 35 21 6 35 21 6 35 20 5 34 21 6 35 21 6 35 22 5 37 21 6 37 21 6 37 21 6 35 21 6 35 21 6 37 20 5 34 20 5 34 22 7 36 21 6 35 21 7 33 23 7 34 21 7 32 21 5 31 20 5 28 21 5 32 20 5 26 21 6 27 21 6 25 19 4 23 19 4 23 20 6 23 20 6 21 19 5 20 18 4 19 20 6 19 20 7 17 19 6 16 19 5 18 17 4 14 21 5 15 18 4 17 19 5 18 19 5 18 18 4 17 
21 6 37 21 6 37 22 5 39 22 7 40 21 6 39 22 5 39 22 7 38 21 6 37 22 7 38 22 7 38 21 6 39 21 6 39 21 6 37 23 8 39 21 6 39 22 7 38 22 7 38 22 7 38 21 6 37 21 6 37 20 5 36 21 6 37 22 7 38 22 7 38 21 6 37 23 8 39 21 6 37 21 6 39 22 7 38 21 6 37 22 7 40 22 7 38 22 7 40 22 7 40 22 7 40 21 6 39 22 7 40 22 7 40 21 6 39 22 7 40 22 7 40 22 7 40 22 7 40 21 6 39 21 6 39 21 6 39 21 6 39 22 7 40 22 7 40 22 7 40 21 6 39 22 7 40 22 7 40 21 6 39 21 6 39 22 7 40 22 7 38 21 6 37 22 7 38 22 7 38 23 8 39 21 6 37 21 6 37 21 6 37 22 7 40 22 7 38 23 8 39 21 6 39 21 6 37 23 8 39 23 8 39 21 6 37 22 7 40 22 7 38 21 6 37 22 5 37 21 6 37 24 8 37 21 7 33 22 6 33 21 5 31 21 5 31 20 5 28 21 6 29 20 5 26 20 5 24 20 6 23 20 6 23 20 6 21 19 5 20 19 5 20 19 5 20 19 5 18 18 4 17 22 6 19 21 5 16 21 5 18 18 4 17 19 5 18 21 5 18 
23 7 44 22 6 42 22 6 42 22 6 42 22 6 42 22 6 42 23 7 43 22 6 43 23 7 43 23 7 43 22 6 43 23 7 44 22 6 42 22 6 42 22 6 43 22 6 42 23 7 43 23 7 43 22 6 42 22 6 42 24 8 44 21 5 41 23 7 43 23 7 43 22 6 42 24 8 45 22 6 42 23 7 43 22 6 43 22 6 42 23 7 43 23 7 44 23 7 43 22 6 42 23 7 43 22 6 42 21 5 41 23 7 43 23 7 43 22 6 42 23 7 43 22 6 42 23 7 43 23 7 43 23 7 43 23 7 43 23 7 43 23 7 43 22 6 42 22 6 43 23 7 44 22 6 42 22 6 42 23 7 44 22 6 43 23 7 43 23 7 43 22 6 42 23 7 43 23 7 43 24 8 44 22 6 42 21 5 41 23 7 43 22 6 43 22 6 42 23 7 44 23 7 44 22 6 42 22 6 42 22 6 43 22 6 42 23 7 43 21 5 41 22 6 42 22 6 42 21 5 41 20 5 38 21 6 37 21 6 37 22 6 33 23 7 34 21 5 31 21 6 29 21 6 29 21 6 27 20 5 24 19 5 22 20 6 21 20 6 23 20 6 19 19 5 20 19 5 18 21 5 18 21 5 18 21 5 16 18 4 17 21 5 18 19 5 18 19 5 18 
22 6 45 23 7 46 23 7 46 23 7 46 22 6 45 23 7 46 22 6 45 22 6 45 22 6 43 22 6 43 22 6 43 21 7 43 23 7 44 23 7 44 24 8 45 24 8 45 23 7 44 23 7 44 22 6 43 22 6 43 23 7 44 23 7 44 23 7 44 23 7 44 23 7 44 23 7 44 22 6 43 22 6 43 23 7 44 22 6 43 23 7 44 23 7 44 23 7 46 23 7 44 23 7 44 23 7 44 23 7 44 23 7 44 23 7 44 23 7 43 23 7 44 22 6 43 22 6 43 23 7 44 22 6 43 23 7 44 23 7 44 24 8 45 23 7 44 23 7 44 22 6 43 23 7 44 22 6 43 22 6 43 22 6 43 22 6 43 23 7 44 23 7 44 23 7 44 22 6 43 24 8 45 23 7 44 23 7 44 23 7 44 23 7 44 23 7 44 22 6 43 23 7 46 23 7 46 24 8 47 23 7 46 22 6 45 23 7 44 24 8 45 22 8 44 22 6 43 23 7 43 23 6 40 22 7 40 21 6 39 21 6 37 21 6 35 21 5 32 22 6 33 22 7 30 21 6 27 20 5 24 22 5 24 19 5 22 20 6 21 19 5 22 19 5 20 19 5 18 18 5 15 21 5 18 22 4 18 21 5 18 21 5 18 21 5 18 21 5 18 
24 7 51 25 8 52 24 7 51 25 8 52 24 7 51 24 7 51 25 8 52 25 8 52 25 8 52 23 8 51 23 6 50 23 6 50 24 7 51 24 7 51 24 7 51 23 6 50 24 7 51 24 7 51 24 7 51 24 7 51 24 7 51 24 7 51 24 7 51 25 8 52 25 8 52 24 7 51 25 8 52 24 7 51 25 8 52 24 7 51 24 7 51 24 7 51 24 7 51 25 8 52 25 8 52 24 7 51 24 7 51 24 7 51 25 8 52 24 7 51 24 7 51 25 8 52 24 7 51 25 8 52 24 7 51 25 8 52 24 7 51 24 7 51 24 7 51 25 8 52 24 7 51 24 7 51 24 7 51 25 8 52 25 8 52 25 8 52 25 8 52 25 8 52 25 8 52 24 7 51 24 7 51 25 8 52 25 8 52 25 8 52 25 8 52 25 8 52 25 8 52 25 8 52 24 7 51 24 7 51 25 8 52 25 8 52 26 9 53 25 6 51 24 7 51 24 7 49 23 6 48 23 6 48 23 6 48 23 7 44 22 6 42 22 7 36 22 6 35 20 6 32 21 5 31 21 6 29 20 5 26 20 5 24 19 5 22 19 5 22 20 6 21 21 7 20 20 6 19 19 5 18 20 4 17 20 4 17 20 4 17 22 6 19 20 4 17 21 5 18 
28 10 58 28 10 58 29 11 59 28 10 58 28 10 58 28 10 58 27 9 57 28 10 58 27 11 58 28 10 58 28 10 58 28 10 58 28 10 58 28 10 58 28 10 58 28 10 58 27 9 57 28 10 58 29 11 59 28 10 58 28 10 58 28 10 58 28 10 58 27 9 57 27 9 59 28 10 58 28 10 58 27 9 57 29 11 59 28 10 58 28 10 58 28 10 60 28 10 60 27 9 57 28 10 58 28 10 58 27 9 57 28 10 58 28 10 58 28 10 58 28 10 58 28 10 58 28 10 58 27 9 57 27 9 57 28 10 58 28 10 58 28 10 58 27 9 57 28 10 58 28 10 58 28 10 58 28 10 58 28 10 58 28 10 58 27 9 57 29 11 59 28 10 58 28 10 58 27 9 57 28 10 58 27 9 57 28 10 58 27 9 57 28 10 58 28 10 58 29 11 59 28 10 58 28 10 58 28 10 58 28 10 58 29 11 59 28 10 58 25 9 56 28 8 59 28 10 60 27 11 58 28 10 58 27 11 58 27 9 57 27 11 58 23 6 40 21 6 35 21 6 37 20 6 31 21 7 30 21 6 27 19 6 26 20 5 24 20 6 21 20 6 21 19 5 20 19 5 18 19 5 18 21 5 18 19 5 18 20 4 17 20 4 17 21 5 18 22 6 19 
28 10 58 28 10 58 28 10 58 28 10 58 29 11 59 27 9 57 28 10 58 28 10 58 28 10 58 29 11 59 28 10 58 28 10 58 28 10 58 28 10 58 27 9 57 27 9 57 28 10 58 28 10 58 27 9 57 28 10 58 29 11 59 28 10 58 28 10 58 28 10 58 28 10 58 28 10 58 28 10 58 28 10 58 28 10 58 28 10 58 28 10 58 28 10 58 28 10 58 28 10 58 28 10 60 28 10 58 28 11 56 28 11 56 27 9 57 28 10 58 28 10 58 28 10 58 27 9 57 28 10 58 27 9 57 28 10 58 28 10 58 28 10 58 27 9 57 28 10 58 28 10 58 28 10 58 28 10 58 28 10 58 27 9 57 27 9 57 28 10 58 28 10 58 28 10 58 28 10 58 27 9 57 28 10 58 27 9 57 27 9 57 28 10 58 28 10 58 28 10 58 28 10 58 28 10 58 28 10 58 28 10 58 28 10 58 28 10 58 29 11 59 27 9 57 28 10 58 27 9 57 28 10 58 28 10 58 26 8 58 28 10 58 25 9 56 21 6 37 21 6 35 22 6 33 20 6 31 20 5 28 20 5 24 20 5 24 21 7 24 19 5 22 21 7 22 19 5 18 18 5 15 20 4 17 19 5 20 21 5 18 20 4 17 21 5 18 21 5 18 
28 10 58 28 10 58 28 10 58 28 10 58 29 11 59 28 10 58 28 10 58 28 10 58 28 10 58 28 10 58 27 9 57 28 10 58 28 10 58 28 10 58 27 9 57 27 9 57 28 10 58 29 11 59 28 10 58 28 10 58 28 10 58 28 10 58 28 10 58 28 10 58 28 10 58 29 12 57 29 12 57 28 10 58 28 10 58 29 12 57 28 11 56 28 10 58 27 9 57 28 10 58 28 10 58 28 10 58 28 10 58 28 10 58 28 10 58 28 10 60 27 9 57 28 10 58 27 9 57 28 10 58 28 10 58 27 9 57 28 10 58 28 10 58 27 9 57 28 10 58 28 10 58 28 10 58 28 10 58 28 10 58 28 10 58 27 9 57 28 10 58 29 12 57 28 10 58 28 10 58 29 11 59 28 10 58 29 12 57 28 10 58 28 10 58 28 10 58 27 11 58 28 10 58 28 10 58 27 9 57 28 10 58 29 11 61 28 10 58 28 10 58 28 10 60 28 10 58 28 10 60 28 10 58 28 10 58 28 10 58 28 11 56 25 9 56 21 6 37 21 8 38 22 6 35 20 6 31 20 5 28 20 5 24 20 5 24 20 6 23 19 5 22 20 6 21 20 6 21 19 5 18 21 5 18 18 5 15 21 5 18 20 4 17 21 5 18 20 4 17 
29 11 59 29 11 59 28 10 58 28 10 58 28 10 58 28 10 58 28 10 58 30 12 60 29 9 58 28 10 58 28 10 58 29 11 59 28 10 58 29 11 59 28 10 58 28 10 58 28 10 58 29 11 59 28 10 58 28 10 58 29 11 59 28 10 58 28 10 58 29 11 59 28 10 58 28 10 58 29 11 59 28 10 58 28 10 58 29 11 59 27 9 57 28 10 58 29 12 57 28 10 58 28 10 58 28 10 58 28 10 58 28 10 58 29 11 59 28 10 58 28 10 58 27 9 57 28 10 58 28 10 58 27 9 57 30 10 59 28 10 58 30 10 59 28 10 58 28 10 58 28 10 58 29 11 59 28 10 58 28 10 58 28 10 58 28 10 58 27 9 57 29 11 59 27 9 57 29 11 59 29 11 59 29 11 59 28 10 58 28 10 58 29 11 59 28 10 58 29 11 59 29 11 59 29 11 59 28 10 58 28 10 58 29 11 59 28 10 60 29 9 58 28 10 58 28 11 56 28 10 58 28 10 58 26 10 57 28 10 58 27 9 57 28 11 56 23 6 40 22 7 40 21 6 35 21 5 31 22 6 33 20 5 26 20 5 24 18 4 21 20 6 21 20 6 21 19 5 20 19 5 18 20 4 17 22 6 19 21 5 18 20 4 17 21 5 18 22 6 19 
28 10 58 28 10 58 27 9 57 28 10 58 28 10 58 28 10 58 28 10 58 29 11 59 28 10 58 29 9 58 28 10 58 29 11 59 28 10 58 29 11 59 28 10 58 28 10 58 28 10 58 29 11 59 28 10 58 28 10 58 28 10 58 28 10 58 28 10 58 28 10 58 28 10 58 28 10 58 28 10 58 29 12 57 29 12 57 29 11 59 28 10 58 29 11 59 28 10 58 28 10 58 28 10 58 28 10 58 28 10 58 28 10 58 28 10 58 29 11 59 28 10 58 28 10 58 28 10 58 29 9 58 28 10 58 29 9 58 29 11 59 29 9 58 28 10 58 28 10 58 28 10 58 28 10 58 28 10 58 29 11 59 28 10 58 29 11 59 27 9 57 28 10 58 29 12 57 28 10 58 29 11 59 29 12 57 28 10 58 28 10 58 29 12 57 29 12 57 28 11 56 29 12 57 30 13 58 29 12 57 29 12 57 28 11 56 29 9 58 30 10 59 30 11 57 29 10 56 28 10 58 27 9 59 28 10 58 29 12 57 28 10 58 27 10 55 22 6 43 21 5 41 22 7 38 21 6 35 22 6 32 20 5 28 20 5 26 19 4 23 21 7 24 20 6 23 22 6 19 21 5 18 18 4 17 21 5 16 20 4 17 20 4 17 20 4 17 21 5 18 
29 11 59 28 10 58 28 10 58 28 10 58 29 11 59 29 11 59 28 10 58 28 10 58 28 10 58 29 11 59 27 9 57 30 10 59 28 10 58 29 11 59 28 10 58 28 10 58 28 10 58 28 10 58 27 9 57 28 10 58 28 10 58 27 9 57 28 10 58 27 9 57 29 12 57 28 10 58 28 10 58 28 10 58 27 9 57 29 11 59 27 9 57 29 12 57 28 10 58 28 10 58 28 11 56 28 11 56 28 10 58 28 10 58 28 10 58 28 10 60 28 10 58 28 10 58 28 10 58 29 9 58 28 10 58 31 9 58 28 10 58 29 9 58 28 10 58 29 11 59 29 11 59 29 11 59 28 10 58 29 11 59 28 10 58 27 9 57 28 10 58 28 10 58 28 11 56 28 10 58 28 10 58 29 12 57 28 10 58 28 10 58 29 12 57 30 10 59 29 9 58 29 9 58 28 10 58 30 12 62 29 11 61 29 9 58 29 9 58 29 9 58 29 11 59 30 11 57 28 10 58 29 10 56 29 12 57 28 10 58 28 10 58 27 10 55 23 7 46 22 6 42 23 8 39 21 6 37 21 5 31 21 3 27 21 6 27 20 5 24 20 6 23 20 6 21 23 5 21 21 3 17 19 5 18 21 5 18 22 6 19 21 5 18 21 5 18 21 5 18 
29 8 51 28 10 52 28 9 54 28 9 54 27 9 51 27 10 52 28 10 52 27 9 51 31 10 51 39 11 49 28 10 52 28 10 52 27 8 53 27 9 51 29 11 53 28 10 52 28 10 52 27 8 53 28 10 52 27 9 51 27 9 51 27 9 51 27 8 53 27 8 53 29 10 55 28 9 54 28 10 52 27 10 52 32 11 52 37 13 47 26 9 53 27 9 51 28 10 52 27 9 51 27 8 54 30 9 52 25 8 52 27 9 51 28 9 54 28 10 52 27 9 51 26 9 51 27 10 52 26 9 53 26 9 51 27 9 51 28 9 54 27 9 51 27 8 53 37 13 49 33 12 51 28 10 52 28 10 52 28 10 52 30 9 52 26 9 53 26 9 51 28 10 52 30 9 52 28 9 54 30 9 52 28 10 52 27 9 51 28 10 52 28 10 50 29 10 55 28 9 55 30 11 57 35 9 54 38 11 54 28 9 55 30 8 55 28 11 56 28 10 58 28 8 57 31 9 58 28 10 58 28 10 58 28 10 58 29 12 57 29 9 58 27 9 57 22 8 44 23 7 44 22 5 37 22 5 37 22 6 33 20 4 30 20 5 26 20 5 26 20 6 23 19 5 22 20 6 21 18 4 17 20 3 19 21 5 18 18 4 17 21 5 18 21 5 18 21 5 18 
26 9 45 26 9 45 25 8 44 25 8 44 25 8 44 28 8 45 27 7 44 29 7 45 30 9 42 46 14 38 26 9 45 27 7 44 26 9 45 29 9 46 25 7 45 25 8 44 25 8 44 27 7 44 26 9 45 25 7 45 27 7 44 28 8 45 25 7 47 25 8 44 27 7 44 26 9 45 28 8 45 25 8 44 32 8 42 48 14 39 27 7 44 25 8 42 25 8 44 28 8 45 25 8 44 26 9 45 26 9 45 25 8 44 25 8 44 27 7 44 25 8 44 27 7 44 27 7 44 27 7 44 25 8 44 28 8 45 27 7 44 27 7 44 25 8 44 48 14 41 35 10 42 26 6 41 28 8 45 29 9 46 26 9 43 25 8 44 27 7 44 25 8 44 26 9 45 24 7 43 27 7 44 28 8 45 26 9 45 26 9 45 26 8 46 27 6 47 26 10 49 26 8 48 37 9 47 47 10 51 25 8 50 25 8 52 26 9 54 27 9 57 25 9 56 29 9 58 28 10 58 29 10 56 30 10 59 29 9 58 29 12 57 26 10 55 23 7 46 23 7 44 21 6 39 22 5 37 22 6 33 21 6 29 21 6 27 19 4 25 18 4 21 19 5 22 20 6 21 19 5 18 21 5 18 21 5 18 21 5 18 21 5 18 19 5 18 21 5 18 
28 8 43 27 7 44 24 7 43 24 7 43 25 8 44 27 7 44 27 7 44 26 6 43 33 9 43 47 13 37 25 7 45 26 6 43 26 6 43 25 8 44 25 7 45 25 8 44 23 7 43 24 6 44 24 7 43 24 7 43 26 6 43 24 7 43 24 8 44 23 7 43 26 9 45 23 7 46 27 7 44 26 9 45 30 9 42 47 14 41 25 8 42 25 8 42 27 7 44 26 9 45 24 7 43 24 7 43 25 8 44 25 8 44 26 5 44 27 7 44 25 8 42 24 7 43 23 7 43 25 8 44 24 6 44 24 7 43 26 9 45 27 7 44 25 8 44 45 12 43 37 10 43 25 8 44 25 8 44 24 7 43 24 7 41 24 7 43 24 7 43 25 8 44 25 8 44 23 7 43 25 8 44 24 8 44 25 8 44 26 9 45 26 8 46 25 9 46 25 7 47 25 7 49 36 10 49 46 11 53 24 8 53 26 9 53 26 9 54 25 9 58 25 9 56 28 10 58 28 10 58 28 8 57 28 11 56 27 9 57 28 11 56 26 10 57 23 7 44 23 7 44 22 7 40 21 5 34 22 6 33 21 5 31 21 6 29 20 5 26 21 6 25 20 6 23 19 5 20 20 4 17 19 5 18 20 4 17 21 5 18 22 6 19 21 5 18 21 5 18 
29 8 41 26 7 37 26 7 37 26 7 37 27 8 38 28 7 38 28 7 38 26 7 37 33 8 37 49 15 39 26 5 36 28 7 38 26 7 35 28 7 40 26 7 37 26 7 37 28 7 40 26 7 37 26 7 37 27 8 38 26 7 37 26 7 37 27 6 39 26 7 37 26 7 39 27 8 38 29 8 39 27 8 38 33 8 38 47 15 39 27 6 37 27 6 37 26 7 37 27 8 38 26 7 37 26 7 37 26 7 39 26 7 37 26 7 37 25 9 38 27 8 38 27 6 39 26 7 37 26 7 37 27 8 40 28 7 38 28 7 38 27 8 38 26 7 37 48 14 39 38 9 39 27 8 38 26 7 37 27 6 37 27 6 37 26 5 36 26 7 37 27 8 40 28 7 38 25 6 36 26 7 37 26 7 39 27 8 38 26 7 37 26 7 37 28 9 41 25 8 44 28 7 46 37 12 44 48 14 41 28 7 50 26 7 52 27 8 53 27 8 54 26 9 54 29 10 56 30 10 59 29 9 58 30 10 59 30 10 59 28 10 58 26 8 56 23 7 44 23 7 44 22 7 40 22 5 37 22 6 33 21 5 31 21 6 29 21 6 27 20 5 24 19 5 22 20 6 21 21 5 18 17 4 14 21 5 18 21 5 18 21 5 18 21 5 18 20 4 17 
27 7 35 26 7 35 26 7 37 26 7 35 28 8 36 26 6 34 26 6 34 26 6 34 34 9 38 47 15 38 27 7 35 27 7 35 27 7 35 27 7 35 26 7 37 26 7 35 26 7 37 27 7 35 27 7 35 26 7 35 26 7 35 25 6 34 25 6 34 26 6 34 25 6 34 27 7 35 26 7 35 27 8 36 33 9 35 46 14 38 27 7 35 25 6 34 26 7 37 27 7 35 26 7 37 26 7 35 25 6 34 27 7 35 25 6 38 25 6 36 26 7 37 24 8 37 25 6 36 25 6 36 25 6 36 26 7 35 25 6 34 26 6 34 27 7 35 47 13 37 34 10 36 26 6 34 27 7 35 27 7 35 27 8 36 27 7 35 26 5 36 27 7 35 29 9 37 23 7 36 27 7 35 27 7 35 25 6 34 25 6 36 27 8 38 27 8 40 27 8 40 28 8 45 36 10 45 48 14 39 26 5 46 26 8 50 27 8 53 25 6 51 26 9 53 29 10 56 29 10 56 30 11 57 28 10 58 31 11 60 28 12 59 27 10 55 23 7 46 23 7 46 22 7 40 21 6 37 22 6 35 21 5 31 20 5 28 20 5 26 19 4 23 20 6 21 20 6 21 19 6 16 21 5 16 21 5 16 19 5 18 21 5 18 22 6 19 21 5 18 
27 7 34 27 7 34 25 7 33 26 6 33 26 6 33 26 6 31 26 6 31 26 6 31 33 7 32 47 14 33 28 5 31 28 5 31 28 5 31 26 6 31 25 7 31 26 6 31 25 7 33 28 10 36 26 6 33 26 6 31 26 6 33 26 6 33 25 7 31 25 7 33 25 7 31 28 6 29 25 7 31 26 6 31 32 8 34 45 12 31 27 7 34 28 5 33 27 7 34 27 7 32 26 8 34 26 6 31 25 7 33 27 7 32 26 6 33 27 7 34 26 6 33 27 7 34 26 6 33 25 7 33 25 7 33 27 7 32 26 6 33 29 6 32 26 6 31 45 12 33 37 9 31 27 7 34 26 6 33 25 7 31 27 7 32 25 7 31 26 6 33 26 8 34 26 6 31 24 6 32 27 7 32 25 7 33 26 6 33 25 7 33 24 8 35 27 8 38 28 7 38 27 8 40 36 9 40 45 15 39 28 7 46 28 7 48 26 8 50 26 7 52 25 6 52 30 11 57 29 10 56 29 10 56 28 11 56 30 11 57 28 10 58 27 10 55 23 7 46 23 7 46 22 6 42 21 6 37 22 6 35 21 7 30 19 4 27 20 5 26 20 5 24 20 6 21 20 6 19 20 7 17 20 4 15 19 6 16 22 6 19 19 5 18 18 4 17 18 4 17 
27 8 30 25 7 31 26 6 31 26 6 31 26 6 31 27 8 30 27 7 32 26 6 31 31 9 32 47 14 31 25 7 31 27 8 30 25 7 31 27 8 30 24 6 28 22 7 28 25 7 31 26 7 29 26 6 31 26 7 29 26 7 29 26 6 31 24 6 30 26 6 31 26 6 31 30 6 32 27 8 30 27 7 32 30 8 31 46 13 32 24 6 30 27 8 30 26 7 29 27 8 30 26 8 32 25 7 33 25 7 31 26 6 31 26 6 31 27 8 28 26 6 31 25 7 31 24 6 30 26 6 31 26 6 31 26 7 29 27 7 32 26 7 29 25 5 30 44 11 28 35 10 31 26 6 31 27 7 32 26 6 31 25 7 31 25 5 30 25 7 31 25 7 31 30 8 31 25 5 30 28 6 29 26 6 31 25 7 31 26 6 31 28 8 33 28 8 35 27 7 35 27 8 38 35 10 39 48 14 39 28 8 45 28 7 48 28 7 48 28 9 54 26 7 53 29 10 56 29 10 56 29 9 58 28 8 57 31 9 56 29 10 56 26 9 54 23 7 46 23 7 44 22 6 42 22 7 38 21 7 33 19 7 31 20 5 28 21 6 27 20 5 24 20 6 21 19 5 20 19 6 16 21 5 16 22 6 17 22 6 19 21 5 18 18 4 17 19 5 18 
29 8 27 30 9 28 29 7 28 29 7 28 29 7 28 29 7 28 29 7 28 29 7 28 33 8 29 48 14 28 28 6 27 30 9 28 27 8 27 28 7 26 28 6 27 26 7 27 28 7 26 28 7 26 28 6 27 29 8 27 28 7 26 29 7 28 29 8 27 29 7 28 28 7 26 29 7 28 28 9 28 29 7 28 33 8 27 47 13 29 29 8 27 31 7 29 29 7 28 29 8 27 28 7 26 28 7 24 28 7 26 29 8 27 28 6 27 28 7 24 27 8 27 29 8 27 26 7 26 29 8 27 26 7 27 29 8 27 28 7 26 29 8 27 29 7 28 47 13 29 38 11 28 29 8 27 30 7 27 30 7 27 30 9 28 26 7 27 29 7 28 29 7 28 29 8 27 26 7 26 29 8 27 28 6 27 28 7 26 29 7 28 29 7 28 31 7 31 30 7 35 28 8 36 39 10 40 46 14 38 29 9 44 29 7 43 29 7 46 29 8 51 26 8 50 29 10 55 32 10 57 32 10 57 31 12 58 31 12 58 29 10 56 28 11 56 23 7 44 23 7 44 22 6 42 22 7 38 21 7 33 21 7 32 21 6 29 21 6 27 20 5 24 20 6 21 19 5 20 21 5 16 19 6 16 21 5 16 20 4 17 21 5 18 20 4 17 21 5 18 
28 7 26 28 7 26 25 6 26 26 7 26 29 8 27 30 7 27 28 7 26 29 8 27 32 9 27 49 13 25 28 7 26 29 8 27 28 7 24 28 7 26 27 6 23 25 6 25 25 6 25 26 7 26 28 7 26 24 5 24 28 7 26 26 7 26 26 7 26 25 6 26 26 7 26 26 7 26 26 7 26 28 7 26 32 7 26 46 12 26 28 7 24 28 7 26 28 7 26 28 7 26 28 7 26 29 8 27 25 6 25 26 7 26 28 6 27 28 7 26 27 6 25 27 6 25 25 6 25 25 6 25 26 7 26 29 8 27 29 8 27 30 7 27 29 8 27 46 14 27 38 11 26 28 7 26 28 7 26 29 8 25 29 8 27 25 6 25 26 7 26 28 7 26 29 8 27 27 8 27 28 7 26 26 7 26 28 6 27 28 7 26 25 8 27 29 7 30 27 7 32 30 7 35 36 10 37 48 14 38 28 9 41 29 7 43 28 8 45 29 8 51 26 9 51 29 10 56 30 11 57 30 11 57 28 11 56 32 10 57 29 12 57 27 9 57 23 7 46 22 6 43 22 6 42 22 5 37 21 6 35 21 5 32 21 6 29 21 6 27 20 5 24 19 6 23 19 5 20 21 5 16 21 5 16 19 6 16 21 5 16 21 5 16 20 4 15 21 5 16 
29 9 21 28 7 22 28 7 22 28 7 22 28 7 22 28 7 22 28 7 22 28 7 24 33 7 20 46 15 21 28 7 22 28 7 22 29 6 22 29 8 23 28 5 23 28 7 22 28 7 24 29 8 23 28 7 22 28 7 22 28 7 24 27 6 23 28 7 24 27 6 23 27 6 23 29 8 23 29 6 22 30 7 23 35 9 22 46 13 20 28 7 24 29 8 23 29 6 22 29 8 23 26 5 22 29 6 22 25 7 23 30 7 23 27 6 21 29 6 22 29 6 22 27 6 21 27 6 23 28 7 22 27 6 23 28 7 22 29 6 22 31 8 24 25 7 21 46 13 20 38 11 20 28 7 22 29 6 22 29 7 20 28 7 22 28 7 22 26 8 22 27 6 21 29 6 22 28 7 24 29 6 22 28 7 22 26 8 24 28 7 24 28 7 26 31 8 28 30 8 29 27 8 30 36 10 35 48 13 37 28 7 38 29 8 41 30 8 44 29 7 46 26 8 46 29 10 56 30 11 57 32 8 56 30 11 57 30 10 59 29 10 56 27 10 55 22 6 45 23 7 44 21 7 42 22 5 37 22 6 35 22 6 32 21 6 29 21 6 27 19 4 23 19 5 22 21 4 20 21 5 16 20 4 15 18 5 15 21 5 16 20 4 15 20 4 15 20 4 15 
27 6 21 27 6 23 25 7 21 25 7 21 27 6 23 28 7 22 28 7 22 28 5 21 35 9 22 46 13 20 25 6 25 28 8 20 25 7 19 28 7 22 26 8 22 27 6 21 25 7 21 27 6 21 27 6 21 26 5 22 28 7 22 26 5 20 24 6 20 24 6 22 26 5 20 28 8 20 28 8 20 26 8 24 30 8 20 46 13 20 27 6 21 28 5 21 27 6 21 28 8 20 25 7 23 27 6 21 23 6 22 26 5 20 27 6 21 28 7 22 27 6 21 25 7 21 24 6 22 26 5 20 24 6 20 27 6 23 27 6 21 26 8 24 27 6 21 45 12 21 38 10 22 27 6 21 28 7 22 28 7 22 25 7 21 24 6 22 27 6 21 26 8 22 29 7 20 25 7 21 28 7 22 28 5 23 25 7 23 27 6 21 28 7 26 26 7 27 29 8 27 26 7 29 38 10 32 46 13 34 27 7 35 27 8 40 29 9 44 28 6 44 26 8 48 31 9 56 29 10 56 32 10 57 29 10 56 29 10 56 29 10 56 27 11 56 23 7 46 24 6 44 22 6 42 22 7 38 21 5 34 21 5 31 21 6 29 19 4 25 21 4 23 20 6 23 19 5 20 21 5 16 20 4 15 21 5 16 21 5 16 21 5 16 19 6 16 19 6 16 
49 14 20 47 12 18 47 12 19 47 12 18 47 12 18 48 13 19 49 14 20 47 12 18 49 14 20 55 16 19 47 12 19 49 12 19 47 12 18 49 12 19 47 12 19 48 13 17 47 12 18 48 13 19 48 13 19 48 13 19 48 13 17 48 13 19 48 13 19 48 13 20 47 12 19 49 13 17 49 12 19 49 14 20 51 14 21 55 16 19 48 11 18 49 14 18 50 13 20 50 13 20 47 12 19 49 12 19 47 12 19 48 13 19 48 13 17 49 12 19 48 11 18 48 13 19 46 11 18 47 12 18 47 12 19 47 12 18 49 14 20 47 12 18 47 12 19 54 13 17 49 14 20 48 13 19 46 11 18 47 12 18 48 11 18 45 12 19 47 12 18 45 12 19 48 13 19 45 12 19 48 13 19 47 12 18 45 12 19 48 11 19 48 13 20 49 14 21 47 13 27 46 12 29 51 14 31 55 17 32 47 14 35 47 15 38 48 14 38 49 13 39 47 15 39 34 11 55 32 10 57 30 11 57 30 11 57 29 10 56 28 11 56 27 10 55 21 7 43 24 7 43 22 7 40 21 6 37 22 6 33 23 7 33 20 5 28 20 5 26 20 5 24 19 5 22 21 4 20 21 5 16 21 5 16 20 7 17 21 5 16 20 4 15 21 5 16 21 5 16 
36 9 18 35 8 15 35 10 16 35 9 18 36 9 18 35 8 15 37 10 19 36 9 16 41 10 16 50 14 18 34 8 17 39 9 17 37 10 17 38 8 18 35 9 20 35 8 17 34 9 15 35 10 16 36 9 16 35 10 16 36 9 16 34 8 19 35 9 18 33 8 14 36 11 15 36 11 17 36 11 17 38 11 18 40 11 16 50 14 16 35 8 17 35 10 16 35 10 16 36 9 16 34 8 17 35 9 18 31 8 16 34 9 15 35 9 18 36 9 16 35 9 18 35 9 18 34 8 17 34 8 17 36 10 19 35 10 16 35 9 18 37 10 17 35 10 16 49 13 17 44 12 17 36 9 16 37 10 17 37 10 15 36 9 16 36 11 17 36 9 18 35 9 18 36 9 16 35 9 18 36 9 16 34 7 16 35 9 18 36 10 19 36 10 21 37 9 23 34 10 23 37 10 29 43 12 28 49 15 32 36 8 31 37 11 38 36 10 39 37 10 41 36 11 43 28 11 56 29 10 55 32 10 57 29 10 56 29 10 56 30 11 57 26 9 54 23 7 44 22 6 42 22 7 40 23 6 38 22 6 33 21 5 31 21 6 29 20 5 26 20 5 24 19 5 22 21 4 20 21 5 16 21 5 16 19 6 16 21 5 16 19 6 16 21 5 16 20 4 15 
27 7 16 27 7 16 26 6 17 25 5 16 27 7 18 27 7 16 27 7 18 27 7 18 33 7 16 50 14 18 26 6 17 28 7 16 27 7 16 28 6 18 26 6 17 26 6 15 27 7 18 28 8 19 27 7 18 27 8 14 27 7 18 27 7 18 26 6 17 26 6 17 25 8 16 29 7 19 28 8 19 27 5 17 33 7 16 48 11 18 27 5 17 27 7 18 27 5 17 29 7 19 26 6 17 27 7 18 26 6 17 26 6 17 25 5 16 28 7 16 26 6 17 28 6 18 26 6 17 26 6 17 26 6 17 27 7 16 27 7 18 28 7 16 27 5 17 44 12 17 36 9 16 27 6 15 27 5 17 28 7 16 26 6 17 24 7 17 26 6 15 26 6 17 27 7 16 26 6 17 28 7 16 27 7 18 26 6 17 26 6 17 24 8 19 29 9 21 27 6 23 28 6 27 37 10 29 48 13 33 27 7 34 29 8 39 27 8 40 28 6 42 27 7 44 31 9 55 30 11 57 30 11 56 28 11 56 30 11 57 29 12 57 28 11 56 22 6 43 21 7 43 22 6 42 22 5 37 22 7 36 21 5 31 21 6 29 20 5 26 22 5 24 19 5 22 20 6 21 21 5 16 21 5 16 21 5 16 19 6 16 20 4 15 21 5 16 20 4 15 
27 6 15 28 7 16 26 6 17 26 6 15 28 7 16 29 8 17 28 7 16 28 7 16 34 8 17 49 14 18 27 5 17 28 6 18 28 7 16 29 8 17 27 5 17 27 6 15 26 6 15 27 5 17 27 5 17 27 6 15 28 4 17 27 6 15 26 6 15 27 7 18 26 6 17 27 6 15 27 7 16 28 6 18 31 8 18 47 12 16 27 5 17 29 8 17 27 7 18 28 7 16 26 6 15 26 6 15 26 6 17 26 6 17 26 6 17 27 7 16 26 6 17 26 6 17 26 6 17 26 6 18 26 6 17 27 7 18 26 6 17 28 7 16 27 7 18 44 11 18 37 10 17 27 7 16 28 6 18 28 7 16 28 8 17 26 6 15 28 6 18 27 7 18 29 8 17 26 6 18 28 7 16 27 5 17 28 6 18 26 6 17 28 8 20 30 8 21 29 8 23 28 7 26 38 11 30 48 14 31 27 7 34 30 7 36 26 7 39 29 7 43 27 6 45 32 10 57 29 10 56 30 11 57 29 10 56 29 10 56 28 12 57 27 10 55 22 6 43 22 6 43 22 7 40 22 7 38 22 6 33 20 6 31 21 6 29 20 5 26 20 5 24 20 6 23 21 4 20 21 5 16 22 6 17 19 6 16 20 4 15 20 4 15 21 5 16 21 5 16 
28 7 16 28 7 16 26 6 17 27 7 16 28 6 18 29 6 16 27 6 15 28 6 18 34 8 17 46 14 17 26 6 15 28 6 18 27 7 16 28 7 16 26 6 17 24 7 17 27 7 18 27 7 16 26 6 15 27 7 18 27 7 16 26 6 17 26 6 17 26 6 17 28 6 18 28 6 18 28 7 16 28 6 18 31 8 16 47 12 16 27 7 18 29 8 17 27 7 16 28 7 16 27 7 18 28 8 17 24 7 17 27 8 14 25 8 16 28 6 18 28 8 19 26 6 17 26 6 17 27 5 17 26 6 17 28 7 16 29 8 17 29 8 17 27 7 18 44 12 17 37 10 17 29 7 19 28 7 16 27 5 17 28 7 16 25 5 16 27 6 15 26 6 17 28 7 16 26 6 17 29 8 17 27 5 17 26 6 17 27 7 18 27 7 19 28 8 20 28 7 24 30 9 28 36 9 28 47 13 30 29 6 35 28 8 36 29 8 41 29 7 43 28 6 44 29 10 56 30 11 57 32 10 56 29 12 57 29 12 57 32 10 57 26 10 55 23 7 43 24 7 43 21 6 39 22 5 37 22 6 33 22 4 30 21 6 29 21 6 27 19 4 23 19 6 23 19 5 20 20 4 15 20 4 15 19 6 16 21 5 16 21 5 16 21 5 16 21 5 16 
29 7 19 28 7 16 26 6 17 26 6 17 27 7 16 27 6 15 30 9 18 28 7 16 34 8 17 48 13 17 26 6 17 28 7 16 28 6 18 29 8 17 26 6 17 26 6 17 27 7 18 27 5 17 27 7 16 28 6 18 26 6 15 26 6 17 26 6 17 26 6 17 26 6 17 27 7 18 27 5 17 28 7 16 31 8 18 46 11 17 26 6 17 29 8 17 27 5 17 28 7 16 26 6 17 26 6 17 26 6 17 28 6 18 27 7 18 28 7 16 28 6 18 26 6 17 26 6 17 26 6 17 26 6 17 28 7 16 27 7 16 27 6 15 27 7 18 44 12 17 38 8 16 27 7 16 27 8 14 28 7 16 27 7 16 24 4 15 25 5 14 26 6 17 28 7 16 26 6 17 30 9 18 27 7 18 26 6 17 26 6 17 27 7 19 28 7 22 28 7 22 28 7 26 37 10 29 47 14 33 26 6 31 27 7 35 29 8 41 29 7 43 26 9 45 29 10 55 28 11 56 30 11 57 28 11 56 29 10 56 28 11 56 27 10 55 23 5 43 23 7 43 22 5 39 22 5 37 21 5 34 21 5 31 21 6 29 21 6 25 20 6 23 19 5 20 21 4 20 20 4 14 21 5 16 20 4 15 21 5 16 21 5 16 20 4 15 20 4 15 
27 7 18 26 6 17 26 6 17 23 6 16 24 7 17 26 6 17 26 6 17 25 5 16 31 8 18 45 13 18 24 7 17 27 7 18 27 7 18 26 6 17 24 7 17 26 6 17 24 7 17 26 6 17 26 6 17 26 6 17 27 7 18 25 5 16 23 6 16 23 6 16 23 6 16 26 6 17 26 6 17 26 6 17 31 8 18 46 11 17 26 6 17 27 5 17 27 7 18 26 6 17 23 6 16 24 7 17 23 6 16 22 5 15 24 7 17 27 5 17 25 5 16 24 7 17 26 6 17 23 6 16 26 6 17 26 6 17 26 6 17 27 7 16 25 5 17 42 11 17 36 9 16 26 6 17 26 6 17 26 6 17 26 6 17 25 5 16 24 7 17 23 6 16 27 7 18 23 6 16 26 6 17 27 7 18 23 6 16 25 7 19 27 7 19 27 6 21 28 7 24 27 5 26 37 10 29 46 13 32 26 6 33 28 8 36 28 7 38 28 8 43 25 8 44 29 10 55 28 11 56 29 10 56 29 10 56 30 10 59 29 12 57 27 10 55 23 5 43 24 8 44 22 5 39 23 6 38 22 6 35 20 4 30 20 5 28 20 5 26 19 4 23 20 6 21 21 4 20 20 4 15 21 5 18 20 4 15 20 4 15 21 5 16 21 5 16 21 5 16 
26 6 15 26 6 17 26 6 17 23 5 17 27 7 18 27 7 18 26 6 17 26 6 17 31 8 16 45 13 16 26 6 17 28 6 18 26 6 17 27 5 17 23 5 17 26 6 17 23 6 16 27 7 18 26 6 17 25 5 16 27 7 18 26 6 17 23 6 16 24 7 17 26 6 17 27 7 18 26 6 17 27 6 15 30 7 17 45 13 18 27 7 18 26 6 15 26 6 15 27 7 16 26 6 17 24 7 17 23 6 16 27 7 16 23 6 16 27 7 16 27 7 18 26 6 17 23 6 16 26 6 18 24 7 17 27 5 17 26 6 17 27 5 17 26 6 17 42 11 17 36 9 16 26 6 17 29 6 16 27 7 16 27 7 18 25 5 16 23 6 14 26 6 17 26 6 17 23 6 16 26 6 15 26 6 17 25 5 16 24 6 18 26 6 18 27 6 21 27 6 23 26 7 27 37 10 29 46 13 32 27 7 34 28 8 36 28 7 38 28 8 43 27 6 45 30 11 56 29 12 57 30 11 57 29 10 56 28 10 58 28 11 56 26 9 54 23 5 43 23 7 43 23 6 40 22 5 37 21 5 34 20 4 30 21 6 29 21 6 27 20 5 24 20 6 23 21 4 20 20 4 15 21 5 16 20 4 15 21 5 16 22 6 17 20 4 15 20 4 15 
26 6 17 26 6 17 26 6 17 23 6 16 26 6 17 26 6 17 27 7 18 26 6 17 30 7 17 48 13 17 26 6 17 26 6 17 26 6 17 27 7 16 25 5 16 25 5 16 23 6 16 25 5 16 26 6 15 26 6 17 26 6 15 26 6 17 23 6 16 25 5 16 22 6 16 27 7 18 27 7 18 26 6 15 31 8 18 47 12 18 26 6 17 27 6 15 26 6 17 28 7 16 25 5 16 25 5 16 23 6 14 26 6 17 24 7 15 27 7 18 26 6 17 26 6 17 24 7 17 25 5 16 23 6 14 27 5 17 27 7 18 28 7 16 26 6 17 43 10 17 36 9 16 27 5 17 26 6 15 26 5 14 27 7 18 26 4 16 25 5 16 27 7 18 27 6 15 25 5 16 28 6 18 25 5 17 25 5 16 25 5 17 27 7 19 28 5 21 28 7 22 28 7 26 36 9 28 47 14 33 27 7 32 30 7 36 30 6 38 29 7 43 26 6 41 29 10 55 29 10 56 30 11 56 30 11 57 29 10 56 28 11 56 27 10 55 24 6 44 23 7 43 24 7 41 23 6 38 22 6 33 22 6 32 21 6 29 20 5 26 20 5 24 20 6 23 21 4 20 21 5 16 21 5 16 21 5 16 21 5 16 21 5 16 22 6 17 20 4 15 
28 7 16 29 8 17 27 7 18 26 6 18 27 7 16 28 6 18 29 8 17 28 7 16 34 8 17 47 13 14 28 6 18 29 8 17 28 7 16 28 7 16 26 6 18 28 7 16 27 7 18 28 6 18 29 8 17 28 6 18 28 7 16 26 6 17 26 6 17 27 5 17 29 8 17 29 6 14 28 7 16 28 7 16 33 7 16 47 12 18 28 8 19 30 7 17 29 6 16 27 6 15 26 6 17 26 6 17 27 7 18 28 7 16 26 6 17 28 7 16 28 6 18 27 7 16 27 6 15 26 6 15 28 8 17 28 7 14 28 7 16 28 7 14 27 5 17 44 12 17 40 9 17 28 6 18 28 5 15 27 6 15 28 6 18 26 6 15 27 7 16 28 7 16 29 6 16 26 6 15 28 7 16 28 7 16 28 7 16 27 7 18 29 7 20 29 6 22 29 8 23 29 8 27 37 10 29 48 13 33 29 6 32 30 7 36 28 7 38 30 8 44 27 7 44 29 10 55 31 9 56 31 9 56 29 10 56 31 9 56 28 11 56 27 9 57 22 6 43 22 6 42 23 6 40 21 6 37 22 6 35 20 4 30 22 7 30 20 5 26 20 5 24 20 6 23 20 3 19 20 4 15 20 4 15 20 4 15 21 5 16 21 5 16 20 4 15 21 5 16 
26 6 17 27 7 18 23 6 16 24 7 15 26 6 17 26 6 17 27 7 16 26 6 17 31 8 16 46 14 17 23 6 16 27 5 17 26 6 17 26 6 15 23 6 16 25 5 16 23 6 16 26 6 17 27 7 18 24 7 17 25 5 16 23 6 16 24 7 17 22 5 15 24 7 17 26 6 17 26 6 17 26 6 15 30 7 17 46 11 17 25 5 16 27 6 15 28 4 17 27 5 17 26 6 17 26 6 17 22 5 15 25 5 16 24 7 17 27 7 18 26 6 17 25 5 16 24 7 17 25 5 16 24 7 15 26 6 17 26 6 17 27 7 18 25 5 16 43 10 17 35 8 15 26 6 17 26 6 17 27 7 18 24 7 17 25 5 17 24 6 18 25 8 18 26 6 17 23 6 16 26 6 17 23 6 16 24 7 17 24 7 17 26 6 18 28 7 22 29 8 25 28 6 27 35 10 29 46 13 32 27 7 34 27 7 35 28 7 38 28 8 43 25 8 42 29 10 55 30 11 57 30 11 56 28 11 56 30 11 57 29 12 57 27 10 55 23 7 43 23 7 43 24 7 41 21 6 35 23 7 34 22 6 32 20 5 28 20 5 26 20 5 24 19 5 22 21 4 20 22 6 17 21 5 16 21 5 16 21 5 16 20 4 15 21 5 16 21 5 16 
29 8 17 30 8 20 26 6 17 27 7 18 28 6 18 28 7 16 28 7 16 28 6 18 34 8 17 48 13 17 27 5 17 29 8 17 28 7 16 29 8 17 26 6 17 28 4 17 26 6 17 27 7 18 28 6 18 27 7 18 28 6 18 26 6 17 26 6 17 27 7 18 27 7 18 28 7 14 29 8 17 28 7 16 33 7 18 46 11 17 27 7 19 29 8 17 28 6 18 28 7 16 26 6 17 27 5 17 26 6 17 28 5 15 27 5 17 28 7 16 28 6 18 26 4 16 26 6 15 28 6 18 26 6 17 28 6 18 28 7 16 29 8 17 27 5 17 44 12 17 39 9 17 28 6 18 28 7 16 28 7 16 28 6 18 26 6 18 26 6 17 27 7 16 28 7 16 26 6 17 28 7 16 28 7 16 26 6 15 27 7 18 26 6 18 28 5 21 29 8 25 27 5 26 36 9 28 48 13 33 29 6 34 28 8 36 29 8 39 28 6 42 27 7 44 29 10 55 29 10 56 32 10 57 29 10 56 29 10 56 28 11 56 27 10 55 23 7 44 22 6 42 23 6 40 21 6 37 21 5 32 21 5 31 20 5 28 21 6 27 20 5 24 19 5 20 22 5 21 21 5 16 20 4 17 21 5 16 21 5 16 21 5 16 21 5 16 20 4 15 
28 6 18 25 5 17 26 6 17 26 6 17 26 6 17 27 7 16 27 7 16 28 7 16 31 8 16 47 12 16 26 6 17 28 7 16 27 7 18 27 6 15 26 6 17 26 6 17 26 6 17 27 7 18 28 7 16 27 5 17 28 7 16 26 6 17 26 6 17 26 6 17 26 6 17 26 6 15 27 7 16 28 7 16 30 7 15 47 12 18 27 5 17 27 6 15 26 6 17 27 7 18 25 5 16 26 6 17 23 6 16 26 6 17 26 6 17 28 6 18 26 6 15 25 5 16 24 7 17 26 6 17 24 7 17 29 8 17 26 6 15 28 7 14 26 6 17 44 11 18 37 10 17 27 7 18 27 7 18 26 6 17 28 6 18 24 4 16 26 6 17 26 7 13 28 7 16 25 5 16 28 6 18 26 6 17 26 6 18 26 6 17 27 7 19 28 5 21 28 7 22 28 7 26 36 9 28 47 12 32 27 7 32 27 7 35 27 8 38 30 8 44 27 7 42 29 10 55 30 11 57 32 10 56 29 10 56 29 10 56 28 11 56 26 9 54 22 6 42 22 6 42 24 7 41 21 6 35 21 5 32 20 4 30 20 5 28 21 6 25 19 5 22 19 5 20 21 4 20 20 4 14 21 5 16 20 4 15 20 4 15 20 4 15 21 5 16 20 4 15 
27 6 15 26 6 17 24 7 17 24 7 17 26 6 17 25 5 14 26 6 15 26 6 18 30 9 18 47 12 18 27 7 18 28 8 19 26 6 17 28 6 18 26 6 17 26 6 15 24 7 17 24 7 15 23 6 16 26 6 18 26 6 15 24 7 17 24 7 17 26 6 17 24 7 17 24 7 17 26 6 17 27 7 18 30 7 15 44 11 18 26 6 17 28 7 14 26 6 18 28 8 19 25 5 16 27 7 16 24 7 17 25 5 16 24 7 17 25 5 16 26 6 18 24 7 17 26 6 17 24 7 17 23 7 17 27 7 18 26 6 17 27 6 15 24 7 17 42 11 17 36 9 16 25 5 16 26 6 15 27 7 18 26 6 17 23 6 16 26 6 17 26 6 15 27 6 15 23 6 16 26 6 17 25 5 16 27 5 17 25 5 16 28 7 22 27 7 19 28 7 24 27 5 26 37 10 29 48 14 31 27 7 32 26 7 35 28 7 40 29 7 45 24 7 43 30 8 54 30 11 56 29 10 56 29 10 56 30 10 59 29 10 56 27 10 54 24 6 44 22 6 42 22 7 40 22 6 35 21 5 32 21 5 31 21 6 29 21 6 25 19 5 22 20 6 21 22 5 21 20 4 15 21 5 16 21 5 16 21 5 16 22 6 17 20 4 15 19 3 14 
25 5 14 26 6 17 24 7 17 24 7 17 24 7 17 26 6 17 26 6 15 27 5 17 31 8 16 47 12 16 26 6 17 27 6 15 24 7 17 28 7 16 23 6 16 27 5 17 22 6 16 26 6 17 26 6 18 26 6 17 25 5 17 23 6 16 22 5 15 23 6 16 24 7 17 26 6 17 26 6 17 26 6 17 30 7 17 44 12 17 26 6 17 27 5 17 26 6 17 27 7 18 25 5 16 26 6 15 23 6 16 26 6 17 25 5 16 27 5 17 26 6 17 25 5 16 23 6 16 25 5 16 23 6 16 27 7 18 26 6 17 28 8 19 25 5 14 42 9 16 35 8 17 24 7 17 26 6 17 26 6 17 27 7 16 23 6 16 26 6 17 25 5 16 27 5 17 25 8 18 27 5 17 25 5 16 22 5 15 23 6 16 27 7 19 28 7 22 26 8 22 27 5 26 36 8 30 46 12 29 26 6 33 27 7 35 27 8 38 28 6 42 24 8 44 27 10 54 30 11 56 29 10 56 28 9 54 29 10 55 29 10 56 27 10 54 22 6 43 24 7 43 22 7 40 23 7 36 21 5 32 21 5 31 21 6 29 20 5 24 20 6 23 22 5 21 21 4 20 20 4 15 21 5 16 21 5 16 20 4 15 21 5 16 20 4 15 21 5 16 
27 6 13 27 7 16 26 6 17 25 8 18 26 6 17 27 7 16 26 6 15 27 7 16 30 7 17 47 12 16 27 5 17 28 7 16 26 6 17 26 6 15 23 6 16 26 6 17 23 6 16 27 7 18 27 5 17 26 6 15 26 6 15 26 6 17 25 5 16 26 6 17 26 6 15 29 7 19 27 5 17 27 7 18 31 8 16 47 12 18 25 5 16 28 7 16 27 7 18 28 7 16 25 5 16 26 6 17 25 5 16 26 6 15 26 6 17 28 7 16 23 6 16 25 5 16 24 7 17 26 6 17 28 8 19 28 6 18 28 8 17 29 8 17 27 5 17 44 12 17 38 8 16 27 5 17 26 6 15 27 5 17 27 5 17 23 6 16 26 6 17 26 6 15 28 7 16 26 6 17 28 7 16 26 6 17 26 6 17 26 6 17 27 7 19 28 7 22 28 7 22 28 6 27 37 10 29 47 15 30 27 7 34 30 7 36 29 8 39 28 7 40 27 7 42 31 9 56 31 9 56 32 10 57 28 11 56 29 10 55 29 10 56 27 10 54 23 7 44 24 7 43 22 7 40 23 7 36 22 6 33 20 4 30 21 6 29 21 6 25 19 5 22 19 5 20 19 5 20 19 6 16 18 5 15 19 6 16 21 5 16 21 5 16 22 6 17 21 5 16 
27 6 15 27 6 15 27 7 18 26 6 17 27 5 17 28 7 16 28 7 16 28 7 16 34 8 19 47 12 18 27 5 17 27 6 15 27 7 16 29 7 19 26 6 17 28 7 16 26 6 17 28 6 18 29 7 19 27 8 14 29 8 17 28 6 18 27 5 17 27 5 17 26 6 15 27 6 15 30 7 17 28 7 16 31 8 16 48 11 18 28 7 16 28 7 16 28 7 16 28 8 17 27 5 17 27 7 16 26 4 16 28 7 16 27 5 17 28 7 16 26 6 15 27 6 15 26 6 17 27 7 16 26 6 17 28 7 16 28 5 15 28 5 15 27 7 18 42 11 17 40 9 17 28 7 14 27 6 15 29 7 19 28 7 16 27 7 16 28 6 18 27 7 16 29 8 17 26 6 15 29 7 19 27 7 16 26 6 17 26 6 17 28 5 21 29 7 20 29 6 22 29 8 27 36 9 28 46 11 31 27 7 32 28 8 35 28 7 40 29 8 41 29 9 46 31 9 56 31 9 55 31 9 55 29 10 56 32 10 56 28 9 55 27 10 54 24 6 44 22 6 42 21 6 39 22 6 35 22 6 33 21 5 31 21 6 29 20 5 24 19 5 22 20 6 21 19 5 20 19 6 16 19 6 16 18 5 15 21 5 16 21 5 16 21 5 16 20 4 15 
27 6 15 27 6 15 25 5 14 27 7 18 26 6 17 27 6 15 28 7 16 28 7 16 33 7 16 47 12 16 27 6 15 28 7 16 27 7 16 28 7 16 23 6 16 26 6 15 23 6 16 27 7 16 29 5 18 27 6 15 29 8 17 26 6 17 26 6 17 27 7 16 26 6 17 27 7 16 27 6 15 29 6 16 32 6 15 47 12 18 27 5 17 29 6 16 28 7 16 29 8 17 26 6 17 28 6 18 24 7 17 26 6 15 26 6 17 28 7 16 27 6 15 27 6 15 27 5 17 27 6 15 24 7 17 28 7 16 28 7 16 28 7 16 26 6 15 43 11 16 39 9 17 27 7 18 27 6 15 29 6 16 27 6 15 28 6 18 27 7 18 27 7 18 27 6 15 26 6 17 27 7 16 26 6 17 26 6 17 27 5 17 27 7 19 27 6 21 28 7 24 28 7 26 36 9 28 47 12 32 25 7 33 30 7 36 29 8 41 28 6 42 28 8 43 29 10 55 32 10 56 32 10 56 30 11 56 31 12 57 29 10 56 28 11 55 24 6 44 22 6 42 22 7 40 22 6 35 22 6 33 22 6 32 21 6 29 20 5 24 21 4 22 22 5 21 22 5 21 20 4 15 22 6 17 20 4 15 21 5 16 21 5 16 20 4 15 22 6 17 
28 7 16 28 7 16 26 6 15 26 6 17 28 7 16 27 6 15 29 8 17 27 6 15 33 8 14 48 13 17 27 6 15 29 8 17 28 7 16 28 7 16 26 4 16 26 6 15 26 6 17 27 7 16 28 6 18 28 7 16 29 6 16 27 6 15 25 5 16 26 6 15 28 6 18 27 7 16 28 7 16 27 5 17 33 7 16 47 12 18 27 7 18 27 6 13 28 7 16 28 7 16 26 6 17 26 6 17 26 4 16 29 8 17 27 5 17 28 7 16 28 7 16 28 7 16 24 7 17 29 6 16 26 6 17 28 7 16 28 7 16 27 7 16 27 6 15 44 11 18 39 8 16 27 7 16 27 5 17 28 7 16 28 7 16 26 6 17 26 5 14 27 6 15 28 7 16 26 6 17 28 7 16 28 7 16 26 6 17 24 7 17 27 5 18 29 6 22 28 7 22 28 7 26 37 10 29 47 13 30 26 8 32 30 7 36 28 7 38 29 7 43 25 8 44 28 9 55 31 9 55 31 9 55 30 11 57 30 11 56 28 9 55 27 10 54 22 6 43 24 7 43 21 6 39 23 7 36 22 6 33 21 5 31 21 6 29 20 5 24 22 5 23 21 4 20 21 4 20 21 5 16 21 5 16 20 4 15 20 4 15 21 5 16 21 5 16 22 6 17 
