P3
100 50
255
1 16 57 2 17 58 1 16 57 2 17 58 0 15 58 1 16 59 3 17 66 2 18 70 2 17 74 4 18 81 5 18 88 5 19 94 5 17 99 4 18 106 6 19 113 7 20 122 6 19 121 16 27 151 18 27 154 24 29 155 26 30 153 22 30 155 26 32 156 22 28 148 24 29 123 23 28 122 29 26 113 30 26 103 34 26 99 27 26 92 67 38 86 48 32 81 24 25 69 26 23 66 28 23 63 25 24 58 21 21 57 22 22 58 24 22 59 27 23 56 22 22 60 28 22 60 23 21 60 23 21 58 22 22 60 26 22 57 28 22 58 29 23 59 27 23 58 50 30 58 62 32 60 26 22 57 29 23 59 29 23 59 29 23 59 24 22 59 25 23 60 24 22 59 25 24 58 27 23 58 29 23 57 26 22 59 24 23 57 23 21 58 26 22 59 25 21 58 32 22 56 24 22 59 29 23 57 27 21 59 73 38 60 35 25 59 28 24 57 28 24 59 27 23 58 27 23 58 24 23 57 24 22 59 24 23 57 27 23 58 28 22 60 28 24 59 26 22 59 21 21 57 23 23 59 22 20 59 29 23 59 26 22 57 29 23 57 26 22 59 69 35 60 36 25 59 26 22 59 25 24 58 26 22 59 24 23 57 21 21 59 21 21 59 26 22 59 26 22 57 
1 16 57 1 16 57 1 16 57 1 16 57 1 16 59 1 16 59 2 16 65 1 17 69 3 18 75 4 18 81 3 16 86 3 17 92 5 17 99 5 19 107 6 19 113 6 19 121 8 19 124 17 27 151 18 28 152 25 31 155 25 29 152 23 28 154 26 32 156 30 33 150 65 42 114 66 43 115 72 41 109 73 41 106 76 43 100 70 39 96 84 45 89 77 42 82 72 39 68 71 38 65 71 39 63 69 37 60 69 35 59 70 36 60 70 36 60 70 36 60 68 36 60 72 37 61 69 35 59 70 36 60 67 35 59 70 36 61 71 36 60 72 37 61 71 37 61 79 40 61 84 39 59 71 36 58 72 37 61 73 38 60 75 37 62 70 37 58 71 36 60 71 37 61 72 37 59 72 37 61 73 35 58 70 38 61 72 37 59 71 36 60 70 36 61 71 36 60 75 37 60 71 37 61 75 37 60 71 36 60 89 42 62 74 36 59 72 37 61 72 37 59 74 36 61 72 37 59 71 36 60 70 38 62 70 36 60 72 37 61 71 37 61 71 37 61 71 37 61 69 35 60 69 37 60 68 34 59 74 36 59 72 38 62 72 37 61 69 37 60 85 42 62 75 37 60 71 36 60 70 36 61 70 36 61 69 37 60 70 36 61 68 36 59 69 35 59 71 37 61 
1 16 57 2 17 58 1 16 57 0 15 56 1 16 57 1 16 59 3 17 66 2 18 70 3 18 75 3 17 80 5 18 88 4 18 93 6 18 100 4 18 106 6 19 113 6 19 121 8 20 122 17 25 152 18 28 152 24 30 154 24 30 154 21 29 154 27 31 156 23 29 149 19 24 124 15 23 121 21 27 115 21 23 106 21 28 100 15 22 90 63 35 84 39 31 82 17 23 73 19 21 69 18 21 64 16 20 57 15 19 57 14 19 57 15 19 57 19 22 57 13 18 56 21 21 57 14 19 57 15 18 59 11 19 56 18 20 58 19 21 59 18 20 58 17 21 58 43 28 59 56 31 60 16 19 60 18 21 56 18 20 58 21 21 59 14 18 56 14 19 57 15 20 58 15 21 57 15 19 57 17 19 57 16 20 58 16 20 57 11 19 56 16 20 57 16 18 56 22 22 60 17 21 58 21 21 59 17 21 59 71 36 58 29 23 57 21 21 59 18 20 58 19 19 57 18 20 58 15 19 57 15 19 57 15 19 57 16 20 57 17 19 57 17 21 58 16 20 58 12 17 55 16 20 57 13 18 56 18 21 56 16 20 58 16 20 55 16 20 58 66 34 58 29 23 59 17 19 58 16 20 57 17 19 58 16 20 57 14 19 57 14 19 57 17 19 57 21 21 59 
1 16 57 1 16 57 1 16 57 1 16 57 1 16 57 2 17 60 2 16 65 0 16 68 3 18 75 3 17 80 4 17 87 4 18 93 6 18 100 4 18 106 6 19 113 8 21 123 6 22 120 17 27 150 20 28 155 24 30 154 26 30 155 23 31 155 23 29 153 24 29 149 18 23 123 17 22 122 20 24 115 19 24 106 20 24 97 18 25 97 64 36 84 39 32 83 19 22 73 18 22 69 18 21 62 18 20 58 15 19 57 15 21 57 17 19 57 21 21 59 15 19 57 20 20 58 17 19 58 15 21 57 16 20 58 18 20 58 20 19 59 20 22 60 18 20 58 45 28 60 57 32 61 17 19 57 21 21 57 19 21 59 21 21 57 16 20 57 16 20 58 15 19 57 15 19 56 17 21 58 19 22 57 17 21 59 16 20 57 15 19 57 16 18 56 15 19 56 21 21 57 17 21 59 21 21 57 17 19 57 72 37 61 31 24 58 20 20 58 19 21 59 21 21 59 16 22 58 16 20 57 17 21 59 17 19 58 17 21 58 18 20 58 19 21 59 17 21 58 16 20 58 16 20 57 15 19 56 21 21 59 18 20 58 21 21 59 17 21 58 66 33 60 33 23 58 19 22 57 18 20 58 20 20 58 18 20 58 15 20 58 16 20 57 17 21 58 20 20 58 
1 16 57 1 16 57 1 16 57 2 17 58 1 16 57 1 16 59 3 17 66 1 17 69 2 17 74 4 18 81 2 17 86 4 18 93 5 17 99 5 19 107 6 19 113 8 20 122 7 21 120 17 27 148 19 29 153 24 30 154 24 30 154 24 29 155 24 30 154 24 29 149 18 23 123 15 23 121 18 23 114 19 24 106 20 24 98 16 23 95 63 35 84 37 28 81 16 22 74 17 21 69 19 22 65 17 21 59 12 17 57 14 19 57 16 20 58 17 19 57 11 19 56 18 20 59 16 20 58 15 19 57 15 18 59 18 20 59 19 21 59 18 20 58 17 19 58 43 28 59 57 32 61 16 20 57 21 21 59 19 21 60 18 20 58 14 19 57 15 19 57 13 18 56 16 20 58 16 20 58 18 20 58 15 19 57 14 18 56 13 18 56 15 18 59 14 20 56 19 22 57 17 20 55 20 20 58 17 19 57 72 37 59 29 23 59 17 19 57 19 21 59 18 20 58 15 19 56 14 19 57 14 19 57 14 19 57 17 19 57 16 20 58 16 20 57 16 20 58 14 19 57 14 20 56 14 19 57 18 20 58 17 21 59 19 21 59 15 19 57 65 33 57 32 25 59 18 20 58 17 21 58 17 19 57 17 19 57 14 19 57 13 18 56 16 18 57 18 20 58 
1 16 57 2 17 58 1 16 57 1 16 57 0 15 54 1 16 59 2 16 65 2 18 70 1 16 73 3 17 80 3 18 87 4 18 93 5 17 99 4 18 106 6 19 113 8 20 122 8 19 124 18 26 150 20 28 155 24 30 154 26 32 156 25 31 153 25 31 153 26 31 151 18 23 123 18 24 122 20 24 111 19 24 106 21 25 98 17 24 94 65 35 85 39 31 82 19 22 75 20 22 70 19 21 62 18 20 58 15 19 57 16 20 58 16 20 57 22 22 60 17 21 59 23 21 58 17 21 58 16 20 57 14 19 57 20 20 58 21 20 60 21 21 59 19 21 59 45 28 60 56 31 60 17 21 58 20 20 56 18 20 58 21 21 59 16 20 58 17 19 58 16 20 58 17 21 58 17 21 59 21 21 59 17 19 57 15 20 58 15 19 57 17 19 58 16 20 57 22 22 60 19 21 59 23 21 58 17 19 57 73 38 62 31 24 58 21 21 59 20 19 59 21 21 59 20 20 58 16 20 58 15 19 57 15 19 57 18 20 58 18 20 58 18 20 58 17 19 57 17 21 59 16 18 56 15 19 57 21 21 57 20 19 59 21 21 59 16 22 58 67 35 59 34 24 59 20 20 58 19 19 57 20 20 58 17 19 57 15 21 57 16 18 57 18 20 58 20 18 57 
1 14 56 0 15 56 1 16 57 1 16 57 1 16 57 2 17 60 2 16 65 3 16 69 2 17 74 3 17 80 4 17 87 4 18 93 6 19 98 6 18 104 6 19 115 8 20 120 8 20 122 17 27 151 18 28 152 24 30 154 24 30 154 21 29 154 25 29 154 22 28 150 15 23 122 16 22 120 17 22 114 17 22 106 20 23 100 15 22 94 65 35 87 39 29 82 14 21 75 15 21 69 16 21 63 14 19 57 10 18 57 13 18 58 14 19 57 17 21 59 10 19 58 17 21 59 14 19 59 12 20 59 11 19 58 15 19 57 16 20 58 15 19 56 14 19 57 40 26 61 54 31 59 14 19 59 16 20 57 14 19 57 15 18 59 10 18 57 11 19 56 11 19 58 11 19 56 13 18 56 16 20 58 13 18 56 13 18 58 10 18 57 13 18 58 10 18 55 18 20 58 15 19 57 17 19 57 12 20 59 69 35 59 26 22 57 14 19 57 14 19 57 16 20 58 14 19 57 9 18 57 10 18 57 12 20 59 14 19 57 13 18 56 15 19 57 12 17 55 10 18 55 13 18 58 12 17 57 17 19 57 15 18 59 16 20 57 11 19 56 66 33 60 30 22 59 15 20 58 15 20 58 16 20 58 14 19 57 10 18 57 11 19 58 14 19 57 15 19 57 
1 16 57 2 17 58 1 16 57 3 16 58 1 16 57 1 16 59 2 16 65 1 17 69 2 17 74 3 17 80 4 17 87 5 19 94 5 18 97 6 18 104 6 19 115 8 20 120 8 20 122 16 28 150 19 28 155 23 29 153 24 30 154 20 28 153 24 30 154 23 29 151 17 22 122 15 20 120 17 22 114 17 22 106 20 24 98 14 21 93 63 35 84 39 29 82 14 21 73 17 21 69 16 21 63 15 21 57 9 17 56 12 17 57 13 18 58 16 20 58 9 18 57 17 19 57 11 19 58 11 19 58 10 18 57 14 19 57 15 19 57 15 19 54 14 19 57 41 28 58 55 32 61 14 19 57 16 20 58 14 19 57 16 20 58 10 18 57 10 18 55 11 19 58 14 19 57 13 18 56 15 19 57 11 19 56 11 19 58 11 19 58 11 19 56 11 19 56 16 20 57 13 18 56 16 20 57 11 19 58 69 35 59 24 23 57 16 20 58 15 19 57 15 19 56 15 20 60 10 18 55 11 19 58 11 19 58 14 19 57 14 19 59 16 21 59 15 19 57 8 17 56 10 18 57 10 18 57 15 19 56 13 18 56 17 19 57 11 19 56 65 32 59 29 23 59 16 20 58 15 19 57 16 20 58 13 18 56 11 18 60 12 17 57 14 19 57 16 20 58 
3 16 58 0 15 56 1 16 57 1 16 57 1 16 57 1 16 59 2 16 65 3 16 69 2 17 74 4 18 81 4 17 87 4 18 93 5 18 97 7 19 105 5 18 114 7 19 119 6 19 121 18 28 151 18 27 154 23 29 153 24 30 154 21 29 153 26 30 155 23 27 150 14 22 123 13 21 120 17 24 114 17 22 104 17 23 99 14 21 93 63 35 84 39 29 82 13 20 74 13 19 69 16 21 63 13 18 56 9 18 57 10 18 57 10 18 57 16 18 57 8 17 56 15 19 57 13 18 58 10 18 57 10 18 57 15 19 57 12 20 57 16 20 58 13 18 56 41 27 60 54 31 60 13 18 58 15 19 57 14 19 57 14 19 57 10 18 57 10 18 55 9 18 57 10 18 57 13 16 57 16 20 58 13 18 56 11 18 60 9 18 57 11 19 58 10 17 59 17 19 57 12 17 55 18 20 59 13 18 58 70 36 61 23 21 58 14 19 57 14 19 57 15 19 57 13 18 58 10 18 57 10 18 55 10 18 57 13 18 56 13 18 58 14 19 59 13 18 58 8 17 56 10 18 57 10 18 57 15 19 56 14 19 57 16 18 57 12 17 57 64 34 60 29 23 59 15 20 58 13 18 56 14 19 59 12 20 59 9 18 57 10 18 57 13 18 56 15 19 57 
0 14 55 0 15 56 1 16 57 1 16 57 3 16 58 1 16 59 0 16 65 1 17 69 2 17 74 3 17 80 4 17 87 4 18 93 5 18 97 7 19 105 6 19 113 7 19 119 8 21 123 17 27 151 19 27 152 24 30 154 24 30 154 21 29 153 25 29 154 24 29 149 15 23 122 13 21 120 19 23 114 18 23 105 20 24 98 15 22 94 63 35 84 38 29 82 15 20 75 17 21 69 17 21 66 16 20 57 11 19 58 14 19 57 14 19 57 16 20 58 11 19 58 16 18 56 12 20 57 13 18 58 9 18 57 14 19 57 16 18 57 15 19 56 16 20 58 43 28 59 56 31 60 14 19 57 16 20 57 15 19 57 17 19 57 11 19 58 11 19 58 10 18 57 11 19 58 13 18 56 15 19 57 13 18 58 14 19 59 10 18 57 11 19 56 10 18 57 18 20 58 14 19 57 16 20 57 13 18 56 70 36 60 24 23 57 17 19 57 15 19 56 17 21 59 14 19 57 11 18 60 10 18 55 11 19 58 16 20 58 13 18 56 14 18 56 13 18 56 10 19 58 14 17 60 10 18 57 15 19 56 14 18 56 18 20 59 13 18 56 64 34 60 29 23 59 15 19 57 16 20 58 16 20 57 14 19 57 11 19 58 11 19 58 14 19 57 16 20 58 
2 17 58 1 16 57 1 16 57 1 16 57 1 14 56 2 17 60 0 16 65 1 17 69 2 17 74 4 18 81 5 18 88 4 18 91 5 18 97 6 18 104 6 19 113 7 19 119 7 20 122 16 26 150 19 29 153 24 30 154 25 31 155 22 30 154 25 31 155 24 29 149 16 24 123 14 22 120 20 24 113 19 24 106 20 24 98 16 23 95 63 35 84 38 29 82 16 22 72 18 22 70 18 21 64 16 20 58 13 18 58 15 19 57 13 18 56 18 20 59 13 18 58 17 19 57 15 19 57 14 19 57 13 18 56 18 20 58 18 20 59 18 20 59 17 19 57 43 28 59 56 31 60 16 20 55 17 19 57 16 20 57 17 19 58 14 19 57 14 19 59 13 18 56 14 19 57 14 18 56 17 19 57 14 19 57 15 19 57 13 18 56 13 18 58 13 18 56 18 20 58 16 20 58 19 21 59 15 18 59 72 37 61 26 22 57 16 20 57 17 19 57 17 19 57 15 20 58 15 20 58 13 18 56 13 18 56 16 20 57 16 20 58 19 18 58 15 18 59 12 17 57 13 18 56 12 17 57 18 20 58 17 19 57 18 20 58 15 19 57 66 34 58 32 24 61 18 20 59 18 20 58 18 20 58 17 19 57 14 19 57 15 19 57 16 20 58 17 19 58 
2 15 57 2 17 58 1 16 57 1 16 57 0 15 56 1 16 59 2 16 65 3 16 69 2 17 72 3 17 80 5 18 88 4 18 91 5 18 97 5 17 103 6 19 111 7 19 119 7 20 122 18 28 152 19 29 153 24 30 154 25 31 155 21 29 154 26 30 153 24 29 149 19 25 123 16 22 120 18 24 112 21 23 106 20 24 97 16 23 95 65 35 85 39 29 82 14 22 71 17 21 69 17 20 65 15 19 57 13 18 56 12 17 55 15 19 57 18 20 58 11 19 58 17 19 57 14 20 56 14 19 57 13 18 58 16 20 57 18 20 58 18 20 58 16 20 57 43 28 59 56 31 60 14 19 57 17 19 57 17 19 57 17 19 57 14 19 57 14 19 57 10 18 57 14 19 57 15 19 57 16 18 56 14 18 56 13 18 56 10 18 57 14 19 57 13 18 56 17 19 57 16 20 58 18 21 56 16 18 57 69 35 59 27 23 60 17 19 57 17 19 57 16 18 56 14 19 57 13 18 56 14 17 58 14 19 59 17 19 58 14 18 56 14 18 56 15 19 57 11 19 58 15 20 58 12 17 57 18 20 58 16 20 58 18 20 58 15 19 57 64 34 58 31 24 58 16 18 56 19 19 57 18 20 58 15 19 57 12 20 59 13 18 56 14 19 57 18 20 58 
1 16 57 1 16 57 1 16 57 2 15 57 1 16 57 1 16 59 2 16 65 0 16 68 2 17 72 3 17 80 4 17 87 4 18 91 6 19 98 7 19 105 6 19 111 8 20 120 7 19 121 17 27 150 21 29 154 24 30 154 25 29 154 24 29 155 25 29 152 24 30 150 18 23 123 14 22 120 20 24 113 20 23 104 20 24 98 15 22 94 63 35 84 38 29 82 17 20 71 17 21 69 18 21 64 16 18 56 13 18 56 14 19 57 15 20 58 18 20 58 13 18 58 21 21 57 15 19 57 14 19 57 14 19 57 17 19 57 17 21 58 18 20 58 17 21 58 44 29 60 56 32 58 15 20 58 17 20 55 18 20 59 17 20 55 13 18 56 15 20 58 13 18 56 14 19 57 15 19 57 17 19 57 15 19 57 14 19 57 13 18 56 14 19 57 12 17 55 18 20 58 16 20 58 18 20 58 16 20 58 70 36 60 26 22 57 17 19 57 19 19 57 17 19 57 16 20 57 15 19 57 13 18 56 14 19 59 16 20 57 15 19 57 16 20 58 16 20 58 13 18 56 14 19 57 13 18 58 18 20 58 17 19 57 19 21 59 16 20 58 64 34 58 31 24 58 17 19 57 16 20 57 17 19 57 15 19 56 15 19 57 14 18 56 16 20 58 17 21 59 
3 16 58 1 16 57 1 16 57 1 16 57 1 16 57 1 16 59 2 16 65 4 17 70 3 18 73 3 17 80 4 17 87 5 19 92 5 18 97 7 19 105 5 18 110 8 20 120 8 20 122 17 27 150 19 29 153 23 29 153 24 30 154 23 29 153 26 30 155 23 29 149 17 22 122 14 22 121 22 23 113 17 22 104 21 25 99 14 20 94 62 34 83 38 29 82 16 22 74 17 21 69 17 22 64 16 20 57 10 18 57 12 17 57 13 18 56 17 19 58 10 18 57 18 20 58 12 17 55 13 18 58 11 19 58 15 19 56 16 20 57 16 20 57 16 20 58 41 28 58 55 30 59 14 19 57 16 20 57 16 20 58 16 20 57 10 19 58 11 19 58 10 18 57 12 20 59 13 18 56 16 20 58 13 18 58 12 18 54 11 19 58 12 17 55 11 19 58 17 21 58 14 19 57 17 19 57 15 19 57 69 37 60 25 21 58 16 20 57 15 19 57 16 20 57 14 19 57 12 17 55 13 18 60 11 19 58 15 19 57 14 18 56 15 19 57 15 19 57 11 19 58 13 17 55 11 19 58 17 19 58 15 19 57 17 19 57 14 18 56 66 33 60 30 22 59 16 20 58 15 19 57 16 20 57 15 21 57 11 19 56 13 18 56 13 18 56 15 23 60 
1 14 56 2 17 58 0 15 56 1 16 57 1 16 57 0 15 58 2 16 65 2 15 68 4 16 74 3 17 78 4 17 87 2 18 93 4 20 98 7 19 105 6 19 113 7 19 119 8 20 122 15 27 149 18 28 152 23 29 153 24 30 154 22 30 154 26 30 153 21 30 149 15 23 122 13 21 120 18 23 114 16 22 106 19 22 99 14 21 93 63 35 83 38 28 81 11 21 74 16 20 68 13 20 62 11 19 56 9 18 57 9 19 55 10 18 55 15 19 57 8 17 56 16 20 57 10 18 57 7 19 57 9 18 59 13 18 56 14 19 57 14 19 57 13 18 58 41 28 58 54 31 59 10 18 55 15 19 57 14 20 56 14 19 57 10 19 60 9 18 59 9 18 57 10 18 57 11 19 58 13 18 56 10 18 57 8 17 56 8 17 56 10 18 57 9 17 56 15 19 56 13 18 58 15 19 57 14 19 57 69 35 59 23 21 58 14 19 57 15 19 57 14 19 57 13 18 56 9 18 57 10 18 57 9 17 56 15 20 58 12 17 57 13 18 56 11 19 56 9 18 57 10 18 57 9 16 58 15 19 57 14 18 56 17 21 58 12 17 59 64 34 60 29 23 59 14 19 57 13 19 55 16 21 59 15 21 57 10 17 59 10 18 57 13 18 58 16 21 59 
1 16 57 1 16 57 0 15 56 1 16 57 3 16 58 1 16 59 2 16 65 1 17 69 2 17 74 3 17 78 4 19 88 4 18 93 4 20 98 5 20 105 8 18 113 7 21 120 7 20 122 16 28 150 20 28 153 21 29 153 25 29 155 21 29 153 25 31 155 23 28 148 17 22 122 13 23 121 19 24 115 17 22 106 19 23 97 14 21 93 63 37 85 38 28 81 14 21 73 17 21 69 16 21 63 14 20 56 11 19 58 11 19 56 13 18 56 17 19 57 9 17 56 15 19 56 13 18 56 10 18 57 10 18 57 14 19 57 15 19 56 15 19 57 14 18 56 42 27 58 54 31 60 13 18 56 15 19 56 14 20 56 14 18 56 10 18 57 11 19 58 9 17 56 13 18 60 11 19 58 15 19 57 13 18 58 10 18 57 9 18 57 12 17 55 10 18 57 15 19 57 15 19 56 16 20 58 14 19 57 70 36 60 26 22 57 15 19 56 16 20 58 15 19 56 13 18 56 9 18 57 10 18 57 10 18 57 15 19 57 13 18 58 13 18 58 12 17 55 9 17 56 10 18 57 10 18 57 16 20 57 15 19 57 15 19 56 11 19 56 64 34 60 29 23 57 15 19 56 17 19 57 16 18 56 14 18 56 11 19 58 10 18 57 15 20 58 14 22 58 
1 16 57 2 17 58 1 16 57 2 15 57 1 16 57 2 17 60 2 16 65 1 17 69 2 17 74 3 17 80 4 17 85 4 18 93 4 20 98 6 18 104 7 20 114 7 19 119 8 22 121 16 26 149 20 28 153 23 29 153 25 31 155 21 29 153 26 30 153 21 27 147 15 23 122 14 22 121 18 23 114 17 24 105 20 24 97 15 22 92 63 35 84 39 30 83 14 21 73 17 21 69 16 21 63 14 20 56 12 17 59 10 18 57 13 18 56 17 19 57 11 19 58 16 20 57 14 19 59 10 18 55 10 18 57 14 19 57 15 19 57 15 19 57 15 20 58 42 27 60 56 31 60 14 18 55 15 21 57 15 19 57 16 20 58 10 18 57 12 17 55 10 19 58 10 18 55 13 18 56 15 21 57 11 19 56 12 20 59 11 18 60 11 19 56 10 18 55 17 21 58 14 19 57 16 20 57 14 17 58 71 36 58 24 23 57 16 18 57 14 17 58 15 19 57 13 18 56 10 18 54 11 19 56 11 19 56 15 19 57 14 19 57 15 18 59 14 19 57 9 18 57 11 19 56 10 18 55 16 20 58 16 20 58 17 19 57 12 17 55 64 34 58 30 24 60 15 19 57 16 20 57 15 19 57 16 19 60 14 19 57 13 18 56 15 18 59 16 21 59 
2 15 57 0 15 56 2 17 58 1 16 57 1 16 57 1 16 59 1 15 64 4 17 70 4 16 74 3 17 80 4 17 85 3 17 92 3 19 97 6 18 104 6 19 113 7 19 119 8 20 118 17 27 148 18 28 151 25 31 153 25 29 152 23 29 153 26 30 153 24 29 149 16 24 123 18 22 121 22 23 113 20 23 104 18 25 97 17 24 94 65 35 85 39 29 81 19 22 73 21 22 68 21 20 62 19 21 59 15 18 59 16 20 57 18 20 58 21 21 57 15 19 57 21 21 59 17 19 57 15 19 57 15 19 56 20 20 56 21 21 57 21 21 57 18 20 58 44 28 57 55 30 59 17 19 57 22 22 60 18 21 56 21 21 59 15 19 57 17 19 57 14 19 57 15 19 56 17 19 57 19 19 57 15 19 56 15 19 57 14 18 56 15 19 57 15 19 57 21 21 59 17 19 57 21 21 57 18 20 58 72 37 59 30 23 57 20 20 56 21 21 59 22 22 58 17 19 57 16 18 57 17 21 59 16 20 58 18 20 59 16 20 57 18 20 58 17 19 57 17 19 58 17 19 58 16 18 56 21 21 57 18 20 58 20 20 56 20 20 58 67 33 60 35 23 59 20 20 58 21 21 59 22 22 58 18 21 56 17 19 57 17 21 58 18 20 58 18 22 59 
2 15 57 0 15 56 1 16 57 1 16 57 1 16 57 2 17 60 1 15 64 4 17 70 2 17 74 4 18 81 4 17 85 5 19 94 3 19 97 4 19 104 6 19 111 7 19 119 7 19 119 16 26 149 20 28 152 24 30 152 26 30 155 23 29 153 27 29 152 25 30 148 19 25 123 17 23 119 20 24 113 21 24 105 20 24 98 16 23 95 63 35 84 40 30 83 16 22 70 19 21 69 19 22 67 17 19 58 14 19 57 15 19 57 15 19 57 19 21 59 13 18 56 21 21 59 15 19 57 14 19 57 14 19 57 20 19 59 17 19 57 18 20 58 16 20 57 43 28 59 56 31 63 15 19 56 20 20 56 16 20 57 18 22 59 12 20 57 14 19 57 13 18 56 14 19 57 16 20 58 16 20 57 15 18 59 14 19 57 11 19 56 14 19 57 15 19 57 20 20 58 18 20 59 19 22 57 16 20 57 72 37 59 29 23 57 17 21 58 16 19 54 18 20 58 16 20 58 14 20 56 13 18 56 13 18 56 17 21 58 16 20 57 16 20 57 16 20 58 14 19 57 14 19 57 14 19 57 19 19 57 18 20 58 21 21 59 16 20 58 64 34 58 31 24 58 18 20 58 18 20 58 17 21 58 16 20 57 15 19 57 15 19 57 17 20 61 17 23 57 
1 16 57 1 16 57 0 15 56 2 15 57 2 17 58 1 16 59 2 16 65 1 17 69 2 17 74 4 18 81 4 17 85 4 18 91 5 18 97 7 19 105 5 18 110 7 21 120 7 19 121 18 26 150 19 27 152 23 29 153 25 29 154 23 29 153 25 29 152 24 29 149 17 22 122 16 22 120 18 24 112 22 24 107 19 23 96 19 23 94 64 36 84 39 31 80 19 22 73 20 21 67 19 21 62 20 20 58 15 19 56 17 19 57 18 20 58 20 20 58 14 19 57 20 20 56 17 19 57 16 20 58 15 19 57 20 20 56 21 21 57 21 19 56 17 20 55 44 27 59 54 29 58 16 20 57 22 20 59 18 22 59 18 20 58 14 18 56 16 19 60 11 19 56 17 21 59 16 18 56 20 20 58 16 20 58 15 19 57 14 19 57 16 20 57 15 19 56 20 19 59 17 19 57 20 20 56 18 20 59 73 38 60 30 23 57 19 19 57 20 20 58 23 21 58 17 19 57 15 18 59 16 20 58 16 20 58 20 20 58 17 19 57 17 19 57 17 19 57 13 19 55 17 19 58 15 19 57 20 20 56 18 20 58 21 19 56 17 19 58 64 34 58 34 24 58 21 21 59 22 20 57 21 19 56 20 20 58 16 20 58 16 20 58 19 21 59 18 22 59 
0 15 56 2 17 58 2 17 58 1 16 57 1 14 56 1 16 59 2 16 65 1 17 69 2 17 74 3 17 80 4 17 85 5 17 91 5 18 97 7 19 105 8 19 111 7 21 120 7 21 120 17 27 148 18 29 153 24 30 154 24 30 152 21 29 153 25 29 152 24 29 149 20 24 123 17 23 121 21 25 114 21 27 105 22 26 99 19 23 94 64 34 84 42 29 82 20 23 74 21 24 69 21 23 62 19 21 59 17 21 58 18 20 58 16 18 56 21 21 57 16 20 58 23 23 61 17 19 57 19 21 60 17 19 58 22 22 60 20 20 58 23 21 60 20 20 58 44 28 57 49 30 60 18 20 58 22 20 59 19 22 57 20 20 56 16 20 58 17 21 58 16 20 58 16 20 57 17 21 58 19 21 59 15 19 56 18 20 58 14 19 57 16 20 57 14 18 56 20 20 58 18 20 58 21 21 59 15 19 57 70 36 60 28 22 58 18 21 56 18 21 56 19 22 57 16 20 57 15 19 57 15 19 57 16 20 58 16 18 57 17 19 58 17 19 57 16 20 58 15 20 58 16 20 58 15 19 57 21 21 59 19 22 57 21 21 57 16 18 56 67 35 59 31 23 60 20 20 58 21 21 59 21 21 57 21 21 59 18 20 61 18 20 58 20 22 60 20 22 60 
3 16 58 1 16 57 1 16 57 1 16 57 2 17 58 2 17 60 2 16 65 3 16 69 2 17 74 3 17 80 5 18 86 4 18 89 5 18 97 7 19 105 7 20 112 8 22 121 6 19 121 18 26 150 19 27 152 25 31 153 26 30 153 23 29 153 26 30 153 30 31 149 65 41 115 65 42 114 71 42 108 74 42 105 75 41 101 71 41 95 85 44 88 78 44 81 72 39 68 73 39 66 73 38 62 72 37 61 69 37 60 71 36 60 71 36 58 74 36 59 70 35 59 75 37 60 71 36 60 70 37 58 71 36 60 70 37 58 71 36 60 71 36 58 72 37 61 77 38 59 77 39 60 70 36 61 71 38 59 71 36 58 71 36 60 67 35 58 68 36 59 67 35 59 70 36 60 71 37 61 71 38 59 70 36 60 71 36 60 65 35 59 70 36 60 69 35 60 71 37 61 71 36 60 70 36 61 70 35 59 88 43 63 70 37 58 71 36 60 69 35 59 71 38 59 69 35 59 69 34 58 69 35 59 69 35 59 69 35 59 69 37 58 71 36 60 70 36 60 68 34 59 70 36 63 69 35 60 71 36 60 72 37 61 72 37 59 70 36 60 88 41 59 77 38 59 70 37 58 71 38 59 71 37 61 71 37 61 72 37 59 70 36 60 71 36 60 74 36 61 
1 16 57 2 14 56 1 16 57 1 16 57 1 16 57 2 17 58 3 17 66 2 18 70 3 18 75 4 18 79 4 17 85 4 18 93 5 18 97 7 19 105 6 19 111 8 20 120 8 20 122 17 27 150 17 28 152 24 30 154 23 29 151 21 29 153 26 30 153 26 31 151 24 27 122 22 25 120 31 26 110 29 27 102 33 27 97 27 26 94 67 38 84 48 32 81 27 24 69 29 23 67 29 25 62 26 22 57 22 20 57 22 21 55 22 22 58 27 23 58 19 22 57 29 23 59 22 22 58 21 21 57 19 22 57 26 22 57 26 22 57 26 22 57 23 21 58 47 31 58 50 30 58 24 20 57 24 23 57 23 21 58 26 22 57 16 18 57 18 21 56 17 19 57 21 21 57 25 21 58 24 22 59 22 22 58 22 20 57 18 20 58 22 22 58 22 22 58 26 22 57 23 21 60 28 22 58 21 21 59 72 37 59 33 23 58 24 22 59 23 21 58 26 22 57 22 20 57 22 22 58 21 21 57 22 22 58 24 23 57 22 22 58 23 22 56 23 21 58 20 20 56 24 20 57 21 21 57 28 22 58 26 22 57 29 23 59 23 21 58 67 35 58 37 26 58 26 22 57 26 22 59 26 22 57 26 22 57 21 21 57 23 21 58 24 23 57 28 27 61 
2 17 58 1 16 57 1 16 57 1 16 57 1 16 57 0 15 58 1 15 64 2 18 70 2 17 74 4 18 81 4 17 85 4 18 93 5 18 97 7 19 105 6 19 111 9 21 121 7 19 121 17 27 150 19 29 153 25 29 154 25 31 153 24 30 154 24 28 151 23 28 148 18 24 122 17 23 121 19 25 111 18 23 105 19 23 96 16 25 92 63 35 86 39 29 82 17 23 71 19 21 69 20 22 63 17 19 57 15 19 56 15 19 57 17 19 57 20 20 56 14 19 57 20 20 56 15 19 56 14 19 57 14 19 57 18 20 58 17 20 55 20 20 58 18 20 58 43 28 59 44 27 59 17 19 58 19 22 57 18 20 58 20 20 58 13 18 58 16 20 57 14 20 56 16 20 57 16 18 57 17 19 57 15 19 56 16 18 57 15 20 60 16 20 57 15 19 56 20 20 56 17 19 57 18 20 58 16 20 58 72 37 59 29 23 57 18 20 58 20 18 57 21 21 59 16 20 57 15 19 57 15 19 57 15 19 57 18 20 58 15 19 56 17 21 59 17 21 58 14 19 57 17 19 58 16 20 58 20 20 58 19 21 59 21 21 57 16 20 57 63 35 58 31 24 58 20 20 58 20 20 56 20 20 58 20 20 58 15 19 57 16 20 58 16 20 57 19 21 59 
1 16 57 2 17 58 3 16 58 1 16 57 1 16 57 2 16 55 3 15 65 0 16 68 0 15 72 3 17 80 4 17 85 4 18 93 5 18 97 6 18 104 6 19 113 8 20 120 8 20 122 17 27 150 18 28 152 24 28 153 24 30 154 24 30 154 26 30 153 23 28 148 18 24 122 16 22 120 20 24 111 21 24 105 19 23 96 15 22 92 64 34 84 39 29 82 19 22 73 18 20 68 19 20 64 18 20 59 13 18 58 16 20 57 16 20 57 21 19 56 13 18 56 19 19 57 15 19 57 15 19 57 15 19 57 17 19 57 20 20 58 21 19 58 16 20 57 42 27 56 47 28 58 17 19 57 17 21 58 16 18 56 17 19 57 14 19 57 14 18 56 15 20 58 15 19 57 15 19 57 18 20 58 15 19 57 15 19 57 14 19 57 15 19 57 14 18 56 19 19 55 17 19 57 20 20 56 16 20 57 71 38 59 27 21 55 18 21 56 18 20 58 20 20 58 16 18 56 14 19 57 12 17 55 15 19 57 17 19 57 16 20 58 18 20 58 16 18 57 12 17 55 16 20 58 14 18 56 21 21 57 17 19 57 21 21 59 16 18 56 66 36 62 32 25 59 18 20 58 20 20 58 20 20 58 17 19 58 13 18 56 15 19 57 17 19 57 18 20 58 
2 17 58 1 16 57 1 16 57 0 15 56 1 16 57 1 16 59 2 16 65 1 17 69 2 17 74 3 17 80 4 17 85 4 18 93 5 18 97 7 19 105 6 19 113 8 20 120 7 19 121 17 27 150 19 29 153 23 29 153 25 31 155 24 30 154 26 30 153 24 29 149 17 22 122 16 22 120 19 23 112 20 23 104 21 25 98 18 22 93 65 35 85 37 28 81 19 21 70 21 22 70 18 21 62 16 20 57 15 19 56 15 17 56 18 20 58 21 21 57 15 19 57 20 20 56 17 21 58 13 19 55 15 19 57 19 21 59 18 20 58 17 20 55 18 20 58 44 27 59 46 30 59 16 20 58 21 21 59 18 20 58 18 20 58 15 19 57 14 19 57 14 19 57 16 20 58 16 20 57 20 20 58 17 20 61 16 20 58 14 19 57 15 19 56 15 19 57 21 21 57 17 19 57 21 21 55 16 20 57 72 37 59 30 24 60 20 20 58 21 19 58 21 21 59 18 20 59 14 19 57 15 19 57 16 18 57 20 20 58 17 19 57 16 18 56 17 21 58 14 19 57 16 20 58 15 19 56 22 21 61 18 20 58 21 21 59 17 19 57 65 35 61 35 25 60 19 21 59 21 21 59 21 21 57 20 20 56 16 20 58 17 19 57 18 20 58 21 21 59 
1 16 57 1 14 56 2 17 58 0 15 56 2 17 58 2 17 56 2 16 65 1 17 69 2 17 72 3 17 80 4 17 85 5 19 92 5 18 97 7 19 105 6 19 111 8 20 120 8 20 122 17 27 150 19 29 153 24 30 154 23 29 153 23 29 153 28 30 153 24 29 149 16 24 123 16 21 121 19 23 110 20 22 105 20 24 98 15 22 92 63 35 84 36 29 81 14 21 73 18 22 69 17 20 63 16 20 57 13 18 56 14 19 57 14 19 57 18 20 58 10 18 57 18 20 58 13 18 56 11 19 56 10 18 57 13 19 55 15 19 56 15 19 56 13 18 56 41 26 57 45 29 58 14 19 57 16 20 57 13 18 56 15 19 57 10 18 55 11 19 56 11 19 56 11 16 54 14 19 57 16 20 57 12 17 55 13 18 56 10 18 55 13 18 56 11 19 56 16 20 57 15 18 59 17 21 58 13 18 56 71 36 60 28 22 56 15 19 57 15 19 56 16 20 55 14 19 59 12 18 54 13 18 56 10 20 56 16 20 57 14 19 57 15 19 57 13 18 56 11 19 58 10 18 55 11 19 56 18 22 59 15 19 56 19 19 57 14 18 56 64 34 58 29 22 56 17 21 58 16 20 57 17 21 58 15 19 56 13 18 58 13 18 56 15 19 57 18 20 58 
3 18 59 3 15 57 1 16 57 1 16 57 1 16 57 0 15 58 2 16 65 2 18 70 2 17 72 3 17 80 4 17 85 3 17 90 5 18 97 7 19 105 7 20 112 8 20 120 8 20 120 17 27 148 18 28 152 23 29 153 24 30 154 21 29 153 25 29 152 23 28 148 16 21 121 14 22 120 20 24 115 17 22 104 19 23 97 13 21 93 63 35 84 38 29 82 14 21 73 14 20 70 15 20 60 14 18 56 10 18 57 12 17 55 12 20 59 15 19 56 10 18 57 17 19 57 13 17 55 11 19 56 8 17 56 13 18 56 14 20 56 15 19 56 13 18 56 41 27 60 44 28 57 13 18 56 15 21 55 15 19 57 15 19 57 9 17 56 10 18 57 10 18 57 13 18 58 11 19 58 13 18 56 11 19 58 10 18 57 9 17 56 11 19 56 9 17 56 16 20 57 14 18 56 16 20 58 13 18 60 69 35 59 25 21 58 14 19 59 14 19 57 14 18 56 13 18 58 10 18 55 11 19 58 13 18 58 14 19 57 13 18 56 14 19 57 11 19 56 9 18 57 11 19 58 10 18 57 16 20 57 14 19 57 16 20 57 13 18 56 64 34 60 29 23 59 15 19 57 15 19 56 16 20 58 14 19 57 10 18 55 12 17 55 13 18 56 17 19 57 
0 15 56 2 17 58 1 16 57 1 16 57 1 16 57 1 16 55 2 16 65 1 17 69 2 17 74 3 17 78 5 18 86 3 17 92 6 19 97 6 18 104 7 20 114 8 20 120 8 20 120 16 26 147 18 28 152 23 29 153 25 29 154 20 30 153 26 30 153 22 28 148 15 23 121 15 23 122 19 23 112 18 23 105 20 23 100 13 21 93 63 35 83 36 27 80 15 21 71 14 20 68 17 20 61 14 19 57 10 18 55 13 18 58 13 18 56 16 18 56 9 17 56 15 17 56 11 19 58 10 18 57 9 17 56 14 18 56 14 18 56 15 19 57 12 17 57 42 27 60 43 28 57 10 18 55 15 19 57 14 18 56 14 18 56 7 19 57 10 18 55 10 18 55 10 18 55 11 19 56 14 19 57 10 18 57 11 19 58 10 18 57 10 18 57 12 17 57 17 19 57 14 18 56 15 19 56 12 17 57 69 35 59 24 22 59 15 19 57 13 18 56 16 20 58 13 18 56 10 18 57 10 18 57 10 18 57 14 19 57 12 17 57 13 18 56 13 18 58 9 17 56 11 19 58 10 17 59 16 20 57 15 19 57 16 20 57 12 17 55 66 33 60 29 23 59 15 19 56 15 19 56 15 19 57 14 19 57 9 16 58 11 19 56 11 19 56 16 20 58 
2 17 58 0 14 55 2 15 57 1 16 57 1 16 57 1 16 57 2 16 65 2 18 70 2 17 74 3 17 80 4 17 85 3 17 92 6 19 98 5 17 103 5 18 112 8 20 120 8 20 120 18 27 148 18 28 152 26 27 153 26 30 155 21 29 153 26 30 153 22 28 148 18 24 122 14 22 121 16 21 112 16 23 103 20 24 97 16 23 93 64 35 83 37 30 82 16 22 74 18 20 68 18 23 65 17 21 58 13 18 58 12 17 55 15 19 57 17 19 57 10 18 55 18 20 58 14 19 57 13 18 56 11 19 58 16 20 57 15 19 56 17 19 57 15 19 56 42 27 58 45 29 58 13 18 56 17 19 57 15 19 56 16 20 57 11 19 56 11 19 56 10 18 57 11 19 56 13 18 56 15 19 57 13 18 56 15 19 57 10 18 57 14 19 57 14 19 57 16 18 56 15 17 56 17 19 57 15 20 58 70 35 59 26 22 57 16 20 57 17 19 57 16 18 56 16 20 58 13 16 57 11 19 56 12 17 55 16 18 57 14 19 57 15 19 56 15 19 57 11 19 58 13 18 56 13 18 58 18 20 58 15 19 56 18 20 58 14 19 57 64 34 60 32 22 57 18 20 58 18 20 59 17 19 57 17 19 57 10 18 55 14 19 57 16 20 57 17 19 57 
1 16 57 1 16 57 2 15 57 1 16 57 2 15 57 1 16 59 2 16 65 1 17 69 4 17 72 3 17 80 4 17 85 4 18 91 5 18 97 4 19 104 6 19 113 8 20 120 7 19 121 17 25 149 20 29 156 23 29 153 25 29 152 23 29 153 25 29 152 23 28 148 17 22 122 17 23 121 19 23 114 19 24 105 19 23 97 18 22 93 64 36 84 38 28 80 19 22 73 19 21 69 19 21 62 18 20 58 15 19 57 14 19 57 16 18 57 20 20 56 14 19 57 22 22 58 15 19 57 16 20 57 14 18 56 19 19 57 20 20 58 17 19 57 17 19 57 43 27 56 47 28 60 16 20 57 20 20 56 17 19 57 19 22 57 15 19 57 15 19 54 15 19 57 17 21 59 17 19 57 20 20 58 15 19 57 16 20 58 15 19 57 16 18 57 15 19 57 20 20 56 18 20 58 21 21 57 17 19 57 73 35 58 29 23 57 19 21 59 20 20 58 20 20 58 17 19 57 15 19 57 15 19 57 15 19 57 18 22 59 17 19 58 20 20 58 17 19 57 14 19 57 16 18 56 15 19 57 20 20 56 17 19 57 22 20 57 16 20 57 66 36 60 31 24 58 19 21 59 19 21 59 20 20 58 17 19 57 16 20 57 15 19 57 17 19 57 20 20 58 
2 15 57 1 16 57 1 16 57 2 15 57 1 16 57 3 16 60 1 15 64 1 17 69 2 17 72 5 19 82 4 17 85 4 18 91 4 17 96 7 19 105 6 19 113 7 19 119 8 20 122 16 26 149 19 27 152 24 30 154 25 29 152 21 29 153 24 29 149 23 28 148 15 23 122 15 20 120 18 23 114 16 23 103 19 23 97 14 21 93 62 36 84 36 27 82 14 21 73 16 22 70 15 20 62 13 18 56 9 18 57 9 18 57 13 18 58 15 19 56 9 18 57 16 20 58 10 18 55 11 19 56 10 18 57 15 19 57 15 19 57 13 19 55 13 18 56 41 28 58 44 29 60 11 19 56 15 19 56 13 18 56 15 19 57 12 17 57 12 17 57 9 17 56 11 19 58 11 19 56 14 19 57 10 18 57 11 19 58 10 18 57 12 17 57 9 17 56 15 19 57 14 19 57 14 20 56 14 19 57 70 36 60 25 21 58 14 19 57 15 19 57 16 20 57 13 18 56 11 19 58 11 19 58 11 19 56 14 18 56 13 18 56 14 19 57 13 18 56 9 18 57 10 18 55 10 18 57 16 20 57 14 18 56 18 20 58 12 20 57 64 34 60 29 23 59 15 21 57 16 20 57 16 20 58 15 19 57 10 18 57 11 19 58 14 20 56 16 20 58 
2 17 58 2 15 57 0 13 55 0 15 56 1 16 57 1 16 59 2 16 65 3 16 69 3 16 71 2 16 79 3 16 84 4 18 91 5 18 97 5 20 105 6 19 111 9 21 121 8 20 120 17 27 148 20 28 153 23 29 151 24 30 152 23 29 151 25 30 150 24 29 149 18 23 123 17 23 119 19 23 110 20 22 105 19 23 96 18 23 91 64 36 84 39 29 82 19 22 73 20 22 70 20 22 63 18 20 58 16 20 58 17 21 59 17 21 58 21 21 57 13 19 55 21 21 57 15 19 56 16 20 57 15 19 56 20 20 56 19 21 59 18 21 56 17 19 57 44 27 59 47 28 58 17 19 57 21 21 57 18 20 58 18 20 58 15 19 57 16 20 58 14 18 55 16 20 57 17 19 57 21 19 56 15 19 56 19 19 57 14 18 56 16 20 57 14 18 56 21 21 57 18 20 58 20 20 56 16 18 56 74 36 59 30 24 58 19 21 59 20 20 58 20 20 58 19 21 59 16 20 58 16 20 58 15 19 57 21 19 58 17 19 57 19 19 55 17 19 57 15 19 57 17 21 58 15 19 57 21 21 57 19 21 59 21 19 56 18 20 58 66 34 57 33 23 57 20 20 56 21 21 59 22 22 58 18 21 56 16 20 57 16 20 57 18 21 56 19 22 57 
2 15 57 1 14 56 0 15 56 2 15 57 3 16 58 4 15 60 2 16 65 1 17 69 2 17 72 4 18 81 4 17 85 4 18 91 5 18 97 6 18 104 6 19 111 8 20 120 8 20 120 16 26 149 20 28 153 23 29 151 25 29 152 22 28 152 26 31 151 24 29 149 15 23 121 15 20 120 19 23 112 17 22 104 20 24 98 15 22 94 63 35 83 37 28 81 15 21 73 17 21 69 16 21 63 14 19 57 11 19 58 13 18 58 12 17 55 15 19 56 10 18 57 16 20 57 13 18 56 10 18 55 9 18 59 14 18 56 15 19 57 15 19 57 12 17 55 40 26 59 42 27 58 10 18 55 15 19 56 14 19 57 15 17 56 10 18 57 13 18 56 10 18 55 14 17 58 13 18 56 14 20 56 10 18 55 11 19 56 9 17 56 13 18 60 13 18 56 18 20 59 15 19 57 18 20 58 15 19 57 69 36 57 26 22 57 16 20 57 15 19 57 16 20 57 14 18 56 10 18 57 11 19 58 11 19 56 15 19 57 12 20 57 14 18 56 13 18 56 12 17 57 13 18 56 12 17 57 18 20 58 15 19 57 17 19 57 14 19 57 64 34 58 29 23 59 15 18 59 15 19 57 17 19 57 16 18 56 11 19 56 10 18 57 14 18 56 17 19 58 
1 16 57 0 15 56 2 15 57 1 16 57 1 16 57 0 15 58 1 15 64 1 17 69 2 17 72 3 17 78 4 17 85 4 18 91 5 18 97 6 18 104 4 17 109 8 20 120 8 20 120 17 27 148 19 29 152 23 29 151 23 29 151 25 29 154 25 30 150 24 29 149 18 23 123 14 22 121 18 23 114 17 22 103 19 23 97 14 21 91 62 34 82 36 27 80 15 21 73 17 21 69 15 20 62 14 19 57 11 19 58 10 18 57 11 19 56 15 19 56 10 18 57 15 19 54 12 17 55 9 19 55 10 18 57 14 18 56 15 19 57 14 18 56 13 18 56 39 26 56 43 28 57 14 19 57 15 18 59 13 18 56 15 20 58 9 18 57 10 18 57 11 19 56 11 19 56 13 18 56 14 19 59 12 17 57 13 18 56 9 17 56 10 20 56 10 18 55 15 19 56 12 16 54 16 18 56 14 18 55 69 35 59 26 22 57 15 19 56 15 19 56 15 19 56 14 19 57 10 18 55 10 18 55 10 18 55 14 20 56 13 18 58 15 19 57 14 19 57 9 17 56 10 18 55 10 18 57 17 21 58 15 19 57 17 21 59 12 17 55 63 33 57 30 23 57 14 20 56 15 19 57 15 19 57 15 19 56 11 19 56 12 20 57 14 18 55 15 19 56 
3 16 58 2 17 58 0 17 57 1 14 56 1 16 57 1 14 58 2 16 65 2 18 70 4 17 72 4 18 79 4 17 85 4 18 91 5 18 97 4 19 104 6 19 111 8 20 120 7 21 120 16 26 149 18 28 152 21 30 151 23 29 151 19 29 152 24 28 151 22 28 148 14 22 121 14 20 118 17 23 111 17 22 104 17 24 94 15 22 94 63 35 84 36 27 80 14 21 73 16 20 68 13 20 62 14 19 57 10 18 57 10 18 57 13 18 56 14 19 57 10 18 57 16 20 58 13 18 56 10 18 55 9 17 56 15 18 59 14 18 56 14 18 56 11 19 56 38 24 57 43 26 58 11 19 58 13 18 56 13 18 58 14 18 56 9 17 56 10 18 55 10 18 57 10 17 59 11 19 56 14 19 57 10 18 57 11 19 58 9 18 57 11 19 55 10 18 57 16 20 57 13 18 56 15 19 56 13 18 58 70 36 60 26 22 57 14 19 57 14 18 56 15 19 57 12 17 55 10 18 57 8 16 55 9 18 57 14 19 57 13 18 58 13 17 55 13 18 58 9 17 56 10 18 55 10 18 57 18 20 58 15 19 57 17 19 57 13 18 56 64 34 60 28 22 58 14 20 56 15 19 56 14 20 56 14 19 57 10 18 55 12 17 55 14 20 56 16 20 57 
0 17 57 1 16 57 1 14 56 2 15 57 1 16 57 2 17 60 2 16 65 2 18 70 1 16 71 3 17 78 4 17 85 4 18 91 4 17 96 7 19 105 6 19 111 8 20 120 8 20 120 18 27 148 20 28 152 24 30 152 24 28 151 23 29 153 24 28 151 25 27 148 18 24 122 14 22 120 19 23 112 20 23 104 18 24 98 15 22 92 65 36 84 38 29 82 18 21 72 16 23 69 18 21 62 15 21 57 14 19 57 16 20 58 15 19 56 20 20 58 13 18 56 17 19 57 14 19 57 14 19 57 13 19 55 17 19 57 17 19 57 17 19 57 16 20 57 41 26 59 47 28 58 15 19 57 19 22 57 16 18 57 16 20 57 14 19 57 12 20 57 14 19 57 16 18 57 16 20 57 18 20 58 14 19 57 16 20 58 14 19 57 15 19 57 15 19 57 20 20 58 16 18 56 21 21 59 17 19 58 71 36 58 28 22 56 16 20 57 17 19 57 19 21 59 16 20 58 14 19 57 14 19 57 13 18 56 16 20 57 16 20 57 17 19 57 16 20 57 13 18 56 16 20 57 13 18 56 21 21 57 17 19 57 21 21 57 16 18 57 65 35 59 30 23 57 18 20 58 18 20 58 19 21 59 16 18 56 15 19 56 15 18 59 15 19 56 18 20 58 
2 17 58 3 16 58 2 15 57 1 16 57 2 15 57 2 17 60 2 16 65 4 15 69 4 17 72 3 17 78 4 17 85 4 18 91 5 18 97 4 19 104 6 20 109 8 20 120 8 20 120 18 27 148 19 29 152 24 30 152 25 29 152 23 29 153 25 29 152 23 28 148 19 25 123 16 22 120 20 24 111 20 22 105 20 24 97 17 21 92 66 37 85 37 28 81 19 22 73 20 22 70 19 21 62 18 20 58 15 18 59 15 19 57 17 19 57 20 20 58 15 19 57 20 20 56 14 20 56 15 19 56 13 18 56 20 20 58 19 19 57 19 19 55 17 19 57 44 28 57 50 30 58 16 20 57 21 21 57 20 20 56 18 20 58 15 19 57 15 19 57 15 19 57 15 19 57 16 20 57 17 20 55 16 18 56 16 20 57 13 19 55 15 19 54 15 19 56 21 21 57 17 19 57 20 20 56 17 19 57 73 38 60 29 23 57 20 20 58 21 21 59 20 20 58 17 19 58 15 19 57 15 19 57 15 19 57 18 20 58 17 19 57 20 20 56 17 19 57 14 19 57 16 20 57 14 19 57 20 20 56 19 19 57 20 20 54 16 20 57 66 34 58 35 23 59 20 20 56 22 20 57 19 22 57 17 19 57 15 19 57 16 20 58 20 20 58 20 20 58 
3 16 58 2 15 57 0 15 56 2 15 57 1 16 57 1 14 56 2 16 65 2 15 68 1 16 71 3 17 78 3 16 84 4 18 91 5 18 97 6 18 104 8 19 111 8 20 120 8 20 120 17 27 148 18 26 150 24 28 154 25 29 152 24 30 152 26 30 153 24 29 147 18 24 122 15 24 119 20 24 113 20 22 105 19 23 97 18 22 93 65 36 82 37 28 81 19 23 71 18 20 68 21 20 62 17 21 56 15 19 56 15 19 56 16 20 57 20 20 58 13 18 56 18 20 58 16 20 57 15 19 56 14 20 56 18 20 58 17 20 55 18 21 56 16 20 57 43 26 58 52 29 58 16 20 57 20 20 56 18 21 56 18 20 58 15 19 56 16 20 58 14 19 57 15 19 57 17 19 57 18 20 58 16 20 57 16 20 57 14 19 57 15 19 56 15 19 56 21 21 57 18 20 58 21 21 57 17 19 57 71 36 58 29 23 57 16 20 57 19 22 57 19 22 57 16 18 56 14 18 56 15 19 56 15 19 54 18 20 58 17 21 58 18 21 56 17 19 58 14 19 57 17 19 58 14 18 56 21 21 59 17 19 57 21 21 59 18 20 58 65 35 59 31 24 58 20 20 58 18 21 56 21 21 57 17 19 57 16 18 57 15 17 56 18 20 59 21 21 59 
3 16 58 3 16 58 1 16 57 1 14 56 2 17 58 2 15 57 2 16 65 3 16 69 4 17 72 3 17 78 4 17 85 4 18 91 6 19 98 6 18 104 6 19 111 8 20 120 7 21 120 18 27 148 18 28 152 23 29 153 24 30 154 24 28 153 26 31 151 23 28 148 18 24 122 17 23 121 19 23 112 20 23 104 19 23 96 18 22 93 65 36 84 36 27 80 16 22 72 18 20 68 19 21 62 18 20 58 13 18 56 15 19 57 16 20 57 20 20 58 13 18 56 20 20 58 14 18 56 15 19 57 13 18 56 17 19 57 20 20 58 19 19 57 17 19 57 43 27 56 48 29 57 16 18 56 19 19 57 17 19 57 19 19 57 14 18 56 15 19 57 14 19 57 15 19 57 15 19 56 17 19 57 14 20 56 15 19 57 14 19 57 15 19 56 15 19 57 20 20 58 18 20 58 20 20 56 17 19 57 71 36 60 30 23 57 21 21 59 18 21 56 18 21 56 16 18 56 15 19 57 15 19 57 14 18 56 17 19 58 17 19 57 16 18 56 16 18 56 13 18 56 15 19 56 15 19 57 20 20 56 17 19 57 21 21 57 16 19 54 66 32 57 32 25 59 17 20 55 20 20 56 20 20 56 19 19 55 14 18 55 16 18 57 17 21 58 18 20 58 
2 15 57 2 15 57 1 16 57 0 13 55 1 16 57 2 15 57 2 16 65 3 16 69 2 17 72 3 17 78 4 17 85 4 18 91 5 18 97 6 18 104 8 19 111 8 20 120 7 21 120 17 26 147 19 27 152 25 29 152 25 29 152 21 29 153 25 29 152 24 29 149 27 26 119 26 27 119 29 27 111 28 25 104 30 29 99 26 25 91 65 37 85 46 32 81 27 25 72 30 24 68 30 24 62 27 23 58 23 22 56 23 22 56 25 24 56 29 23 57 24 22 59 30 23 57 27 23 58 26 22 57 24 23 57 28 22 56 28 22 56 28 22 56 27 23 56 45 29 58 58 32 57 24 23 57 29 23 57 29 23 57 28 22 56 22 22 56 23 23 57 23 22 56 26 22 57 27 23 58 29 23 57 26 22 57 26 22 57 23 22 56 26 22 57 26 22 57 30 23 57 29 23 57 30 23 57 27 23 58 72 39 60 37 26 58 28 22 58 30 24 58 28 22 56 28 22 56 24 23 57 24 23 57 25 24 58 27 21 55 26 22 57 28 24 59 28 22 56 23 22 56 26 22 57 25 21 56 29 23 57 29 23 57 29 23 59 26 25 59 69 35 59 39 25 58 29 22 56 29 23 57 29 23 59 29 23 57 24 23 57 24 23 57 28 22 56 28 24 57 
1 14 56 2 15 57 2 17 58 2 15 57 1 16 57 3 16 58 1 15 62 2 15 68 4 17 72 3 17 78 4 17 85 4 18 91 5 18 97 6 18 104 6 19 111 7 19 119 7 19 121 16 26 147 19 28 155 24 30 154 25 30 150 23 29 153 25 29 152 31 30 147 57 36 111 53 39 116 65 36 103 66 35 102 65 37 98 65 36 92 85 42 85 74 38 82 63 35 75 65 35 73 65 35 63 63 33 59 58 32 59 60 31 59 60 31 59 65 32 59 57 31 58 65 32 59 61 31 57 62 32 58 61 31 57 65 32 59 65 33 57 65 33 57 63 33 59 70 35 59 75 37 58 62 32 58 67 33 60 65 32 59 67 33 60 61 31 59 62 32 58 62 32 58 63 33 59 65 33 57 67 35 59 63 33 57 64 34 60 63 33 59 63 33 57 60 31 59 66 34 58 66 34 58 65 33 57 62 32 58 86 42 59 68 34 59 66 34 58 65 33 56 65 33 57 65 32 59 64 34 60 63 33 57 63 33 57 65 33 57 63 33 57 65 32 59 63 33 57 60 31 59 63 33 57 61 32 60 67 35 59 66 33 60 66 34 58 61 33 58 82 40 60 67 35 59 63 33 59 65 33 57 65 33 57 63 33 57 60 32 57 64 34 60 66 33 60 66 34 58 
2 15 57 1 14 56 1 16 57 2 15 57 2 17 58 2 15 57 3 17 64 3 16 69 4 17 72 3 17 78 4 17 85 4 18 91 5 18 97 6 18 104 5 18 110 7 19 119 8 20 120 16 26 147 19 27 152 23 29 151 24 30 152 22 28 152 26 30 153 22 28 148 17 23 121 13 21 119 18 24 112 18 23 104 17 23 97 14 21 91 63 35 84 36 27 80 16 22 74 18 22 69 16 21 63 15 21 57 11 19 56 13 18 58 14 19 57 16 18 56 9 17 54 18 20 58 13 18 56 13 18 56 11 19 56 14 18 56 15 21 57 16 22 58 14 20 56 38 24 57 47 28 58 14 18 55 17 19 57 15 21 57 16 19 60 11 19 56 12 17 55 10 18 57 14 18 56 15 19 57 16 20 57 11 19 56 14 19 57 11 19 56 15 19 56 11 19 58 17 20 55 15 20 58 16 20 57 14 18 55 72 34 57 28 21 55 17 21 56 14 18 55 17 19 57 14 18 55 13 18 56 14 19 57 12 17 55 16 20 57 16 20 57 15 19 56 14 19 57 12 17 57 11 19 56 12 17 55 18 20 58 17 19 58 17 19 57 14 20 56 62 34 57 29 23 59 16 18 56 17 19 58 18 20 58 15 20 58 13 18 56 12 20 57 15 20 58 17 21 58 
1 14 56 3 16 58 1 16 57 2 15 57 1 16 57 2 15 57 2 16 63 3 16 68 2 17 72 3 17 78 4 17 85 3 17 90 6 19 98 6 18 104 8 19 111 8 20 120 7 19 121 17 26 147 20 28 152 24 28 151 25 29 154 21 29 153 25 30 150 24 29 147 19 23 120 18 22 121 19 23 110 22 23 105 19 23 96 16 23 93 65 36 84 38 30 81 21 23 72 20 22 70 20 22 63 18 21 56 15 19 57 16 20 57 18 20 58 20 20 56 15 21 57 21 21 57 16 20 57 16 20 57 15 19 56 18 21 56 20 20 56 20 20 56 18 20 58 43 28 59 55 31 57 18 20 58 20 20 56 19 21 59 21 19 56 15 19 56 16 20 57 16 20 58 17 19 57 17 20 55 19 22 57 15 19 56 17 19 57 16 20 57 16 18 56 17 19 57 21 21 57 20 20 56 20 20 56 20 20 58 72 37 59 30 23 57 20 20 56 20 20 58 22 22 60 17 19 57 16 20 57 17 19 57 17 19 57 18 20 58 18 20 58 20 20 58 16 18 56 15 18 59 17 19 57 15 18 59 22 20 57 18 20 58 21 21 57 17 19 57 65 35 59 35 24 58 22 22 58 21 21 57 21 21 57 20 23 58 15 23 59 16 21 59 19 23 60 20 22 60 
2 15 57 2 15 57 1 16 57 3 16 58 0 15 56 1 14 56 2 16 63 4 17 69 3 16 71 3 17 78 4 17 85 4 18 91 5 18 97 7 19 105 5 18 110 8 20 120 8 20 120 17 27 148 18 28 149 24 28 151 23 29 151 22 28 150 25 29 152 26 28 149 18 24 122 18 22 119 21 23 110 19 21 104 18 24 98 17 21 92 63 35 83 37 28 81 17 20 71 20 21 69 18 21 62 17 19 57 13 18 56 15 19 57 15 19 56 17 20 55 13 18 56 20 20 58 15 19 57 15 19 57 13 18 56 17 19 57 17 19 57 17 19 57 16 20 55 40 27 57 55 30 59 15 19 56 18 20 58 17 19 57 21 21 59 14 19 57 15 19 57 14 18 56 15 19 56 16 18 57 18 20 58 16 20 57 16 20 57 13 18 56 15 19 56 14 18 56 21 21 59 17 20 55 19 22 57 17 19 57 71 36 58 28 24 57 17 21 56 17 19 57 19 19 57 16 20 57 14 20 56 13 18 58 15 19 57 18 20 58 16 20 58 16 18 56 16 18 57 13 18 56 16 18 57 14 19 57 19 21 59 16 22 58 19 22 57 16 20 57 66 33 60 31 24 57 18 22 59 19 23 60 19 25 61 15 28 62 15 25 60 13 26 61 16 26 61 16 26 61 
3 16 58 2 15 57 3 18 59 3 16 58 0 15 56 2 15 57 1 15 62 2 15 67 2 17 72 2 16 77 4 17 85 4 18 91 5 18 97 6 18 104 8 19 111 8 20 120 6 20 119 17 26 147 18 28 152 23 29 153 25 30 148 22 26 149 25 29 152 22 28 148 18 23 123 17 23 119 19 23 110 21 24 105 19 23 97 18 23 91 65 36 84 38 28 81 18 22 70 20 22 70 20 22 63 20 18 55 15 19 56 16 18 56 16 19 54 20 20 58 15 19 56 21 21 57 17 19 57 16 18 56 15 19 56 20 20 58 20 20 56 21 21 57 17 19 57 44 27 59 55 31 57 17 19 58 20 20 58 18 21 56 20 20 56 15 19 56 17 19 57 15 19 57 15 19 56 16 18 56 21 19 56 16 18 56 16 18 56 15 19 56 16 18 56 16 18 56 21 19 58 18 21 56 22 20 57 17 19 57 72 37 59 30 23 57 20 20 56 20 20 56 21 21 57 20 19 59 15 19 56 17 19 58 16 20 57 19 22 57 17 20 55 18 21 56 19 21 59 14 20 56 17 21 58 16 20 57 22 22 58 19 21 59 20 22 60 19 23 60 65 37 60 32 27 59 19 28 61 19 28 61 19 28 59 18 29 59 18 28 63 14 27 59 20 31 63 20 29 60 
2 15 57 2 15 57 2 15 57 3 16 58 1 14 56 2 15 57 2 16 63 2 15 67 3 16 71 3 17 78 4 17 85 4 18 91 5 18 97 6 18 102 6 19 111 7 19 117 8 20 122 16 26 147 18 26 151 23 29 149 24 28 151 20 28 152 25 29 152 22 29 146 17 23 121 13 21 119 19 23 112 17 22 103 19 23 97 15 22 92 62 34 82 36 29 81 15 21 73 16 20 68 16 19 62 16 20 58 10 18 57 13 18 56 13 18 58 16 20 55 9 17 56 17 19 57 13 18 56 12 17 57 10 18 57 15 19 57 15 19 57 15 17 56 15 19 56 37 26 56 54 29 58 10 18 55 15 19 56 14 18 56 15 19 57 10 18 57 10 18 55 10 18 57 10 18 55 11 19 56 15 19 57 12 17 55 10 18 55 10 18 57 13 18 56 12 17 55 17 19 57 13 18 56 17 19 57 13 18 56 72 37 61 25 21 58 15 19 56 14 20 56 17 21 58 13 18 56 10 18 55 13 17 55 10 18 55 14 18 55 12 17 55 14 18 56 14 18 56 9 17 56 13 18 56 10 18 57 18 22 59 14 22 58 15 23 59 14 24 59 64 36 61 28 27 59 16 26 61 14 29 60 14 29 62 15 30 61 13 29 62 12 31 63 12 31 61 14 33 63 
3 16 58 3 16 58 3 16 58 2 15 57 2 15 57 2 15 57 2 16 63 4 17 69 3 16 71 3 17 78 4 17 85 4 18 91 5 18 97 6 18 102 6 19 111 7 19 117 7 19 121 16 26 147 20 28 153 24 28 151 25 29 152 23 29 153 25 29 152 23 29 149 18 24 122 13 21 119 17 22 113 15 22 103 20 24 97 14 21 91 62 36 84 36 27 80 15 21 71 18 20 68 16 19 62 14 20 56 12 17 57 12 17 57 13 18 56 17 19 57 9 17 56 17 19 57 11 19 56 12 17 55 11 16 54 15 19 56 14 18 55 15 21 57 15 19 56 38 27 57 53 30 58 13 18 56 15 19 56 14 19 57 15 19 56 10 18 57 12 17 55 10 18 55 14 19 57 13 18 56 15 19 56 10 18 55 12 17 55 10 18 57 13 18 56 11 16 54 15 19 56 14 18 56 17 20 55 14 19 57 70 35 57 27 23 58 15 19 56 15 19 56 16 20 57 14 18 56 11 19 56 13 18 56 11 19 56 15 19 56 15 20 58 16 20 58 15 19 57 13 18 56 11 24 59 12 20 59 15 23 60 12 25 59 17 25 61 16 26 61 64 42 63 28 33 63 16 27 59 15 32 62 14 35 64 13 37 65 13 34 63 13 34 65 13 37 63 13 37 65 
1 14 56 3 16 58 4 17 59 2 15 57 2 15 57 3 16 58 2 16 63 3 16 68 4 17 72 3 17 78 4 17 85 4 18 91 5 18 96 6 18 102 5 18 110 6 18 118 8 20 120 16 26 147 18 26 150 24 30 152 23 29 151 20 28 152 27 29 150 22 29 146 16 22 120 13 21 120 17 23 111 17 22 103 18 22 95 14 21 91 63 35 83 37 28 81 13 20 72 14 20 68 16 19 62 14 19 57 10 18 57 10 18 57 12 17 57 14 20 56 9 18 59 15 19 56 12 17 55 9 17 56 10 18 57 13 18 56 13 18 56 14 18 56 13 18 56 38 25 55 54 31 59 12 17 55 15 19 56 13 18 56 14 18 56 10 18 57 11 19 56 9 17 56 9 17 54 11 19 55 13 18 56 10 18 55 11 19 56 9 17 54 11 19 58 11 19 58 15 19 56 13 18 56 16 20 55 13 18 56 69 34 56 25 21 56 15 19 57 15 19 57 16 20 58 13 18 58 9 17 56 9 17 56 9 17 56 13 18 56 11 19 56 13 18 56 11 19 56 10 18 57 11 21 57 11 21 57 15 23 59 11 24 59 15 28 62 12 25 59 62 43 63 26 33 62 12 31 63 13 32 64 14 35 64 13 37 65 13 37 65 10 37 66 15 39 65 14 40 65 
1 14 56 2 15 57 2 15 57 2 15 57 1 14 56 2 15 57 2 16 63 3 16 68 5 18 73 5 19 80 4 17 85 4 18 91 5 18 96 6 18 102 5 18 110 7 19 119 8 20 120 17 27 148 19 27 151 23 29 151 24 30 150 23 29 151 25 30 150 22 28 148 17 23 121 14 23 118 21 23 110 18 23 105 19 23 96 16 20 91 61 35 83 37 28 81 18 22 70 16 20 68 18 21 62 15 19 56 13 19 55 13 18 56 15 19 57 18 20 58 10 18 57 17 19 57 13 18 56 13 18 56 13 18 56 15 19 56 17 19 57 17 19 57 15 19 56 40 27 55 55 30 59 15 19 56 17 19 58 16 20 57 16 20 57 13 18 56 14 18 56 13 18 58 14 19 57 14 19 57 16 20 57 14 19 57 12 20 57 11 19 56 14 19 59 13 18 56 18 20 58 16 20 57 18 21 56 14 18 55 73 35 56 28 22 58 17 19 57 16 18 56 18 18 56 16 20 58 12 17 55 14 19 57 12 17 55 16 20 57 14 18 55 16 20 58 15 20 58 12 22 58 15 25 60 13 23 59 17 25 61 16 26 61 19 30 62 15 28 60 61 44 63 25 35 62 13 34 63 15 36 65 14 40 65 15 41 68 13 43 67 12 42 68 12 44 67 12 44 67 
