P3
100 50
255
10 23 119 13 23 120 11 26 121 12 25 121 12 22 119 10 26 114 16 31 132 17 35 135 15 45 135 11 72 135 8 74 134 8 37 107 7 25 91 7 27 86 6 26 85 6 27 82 6 26 79 5 27 77 2 26 72 5 24 67 4 21 65 4 19 60 4 17 59 4 16 54 4 16 54 5 14 53 5 14 53 4 14 50 5 15 51 6 14 51 4 14 50 2 14 52 5 14 53 4 16 54 5 17 57 4 18 57 5 20 63 4 18 63 6 21 64 4 21 64 4 23 66 5 23 69 6 27 72 4 24 74 4 39 93 6 72 133 7 63 124 5 31 82 4 31 84 4 32 82 6 34 84 5 31 82 4 32 82 4 32 79 4 34 86 4 34 88 5 36 90 5 36 91 10 60 119 14 81 136 12 78 136 19 67 131 56 25 82 59 26 81 64 25 78 68 25 70 66 25 69 66 24 64 66 24 62 83 26 61 69 25 61 68 24 60 69 22 56 71 20 51 66 20 49 66 19 51 65 20 51 67 20 52 67 21 50 70 21 53 67 21 50 67 22 51 66 20 49 66 20 49 67 20 52 69 20 50 69 20 50 69 20 50 66 20 49 76 21 50 77 22 51 67 20 52 70 21 51 69 20 50 69 20 50 64 21 51 66 19 51 65 20 51 70 21 51 65 20 51 
11 24 118 8 23 114 10 23 117 12 23 115 9 22 114 10 21 113 11 25 122 19 34 135 18 36 136 11 59 135 5 75 135 7 62 129 7 25 91 6 26 85 7 27 86 5 25 84 5 25 78 5 25 78 4 26 73 5 23 71 6 23 67 6 21 62 4 17 59 3 17 54 5 17 57 3 15 53 4 13 52 5 14 53 5 15 51 5 15 51 5 15 51 2 14 52 5 14 53 6 18 56 5 17 57 5 19 58 5 18 60 5 20 61 6 21 64 4 22 62 4 23 66 3 24 69 4 25 72 3 25 72 5 29 77 5 63 126 6 72 133 6 39 92 6 32 83 5 33 83 5 32 85 4 32 82 5 31 82 5 30 84 3 33 87 4 35 89 5 36 90 6 36 90 7 51 112 11 81 133 10 79 136 13 74 131 20 33 86 22 32 85 25 28 79 30 26 76 27 24 71 30 23 67 25 22 65 71 25 62 29 22 63 31 20 60 29 18 58 33 17 53 26 16 51 25 15 50 26 16 51 28 16 52 27 16 50 30 16 51 27 16 50 28 17 51 26 16 50 27 17 51 28 17 51 30 16 51 30 16 51 32 16 52 29 18 52 52 19 50 57 21 49 31 17 50 34 17 49 32 17 50 33 16 48 27 16 50 31 17 52 31 17 52 34 17 51 29 18 52 
11 20 113 11 21 116 11 21 116 10 21 111 9 19 108 9 20 110 9 20 109 18 31 133 20 33 137 15 41 134 4 76 134 5 75 135 8 38 111 6 27 84 6 26 85 7 27 86 6 27 82 3 25 75 4 26 75 4 26 73 5 23 69 4 21 65 6 19 61 4 17 59 3 17 56 4 16 56 4 16 54 4 13 52 6 14 51 5 15 51 5 14 53 5 14 53 5 14 53 4 16 54 4 16 56 5 18 60 4 17 59 4 19 60 5 20 63 5 22 65 4 21 64 3 24 67 4 25 72 4 25 72 3 25 74 5 49 110 7 75 136 4 53 112 4 30 81 6 34 84 3 33 83 3 30 83 5 31 82 4 32 82 3 33 83 3 35 86 5 36 91 7 36 92 8 44 102 11 80 135 11 80 135 14 77 131 10 35 89 14 31 83 13 30 82 16 26 75 16 25 68 16 23 69 17 24 68 71 25 64 21 23 64 19 21 59 20 18 57 21 15 51 19 15 50 17 16 50 17 16 50 17 15 52 19 15 50 21 15 51 19 15 50 19 15 50 17 15 52 17 16 50 16 14 51 22 16 52 22 14 51 22 16 50 19 15 50 48 19 50 56 19 52 19 15 50 23 15 52 20 16 51 21 15 49 17 16 50 19 15 50 17 16 50 22 15 49 17 15 52 
10 20 109 10 21 113 10 21 113 8 19 109 10 20 109 9 24 105 9 24 105 14 26 126 20 33 135 19 32 136 8 62 134 4 74 134 5 64 130 6 26 85 7 28 85 7 26 85 6 27 84 4 25 78 5 25 78 3 25 72 4 25 70 6 23 67 5 20 63 4 17 59 5 19 58 5 17 55 3 15 53 5 14 53 5 15 51 4 13 52 5 14 53 4 13 52 3 15 53 3 15 53 4 16 56 5 19 58 5 18 60 5 20 61 6 21 62 4 21 64 6 23 66 5 23 69 4 25 70 5 26 73 4 25 72 5 38 89 7 72 136 5 64 124 3 33 83 5 33 81 3 33 85 4 31 84 4 30 81 5 31 80 3 33 85 4 35 89 6 36 90 8 37 93 8 40 97 12 79 134 9 82 135 12 77 133 9 38 96 11 32 89 16 29 84 19 26 78 15 26 71 17 24 68 15 22 66 70 24 63 20 22 63 17 21 59 19 17 56 22 16 54 17 16 50 16 14 51 16 15 49 17 16 50 17 16 50 20 16 51 21 17 52 19 15 50 15 15 49 17 16 50 17 16 50 20 16 51 20 14 50 22 16 50 19 15 50 47 18 49 55 20 52 20 16 51 22 16 50 21 15 49 21 15 49 15 15 49 20 16 51 16 15 49 23 17 51 16 16 50 
8 20 106 8 20 106 9 19 106 10 18 103 8 19 99 7 25 101 9 29 98 11 28 108 19 32 136 20 33 135 16 41 134 5 73 134 5 75 135 7 41 105 6 26 85 7 27 86 6 26 85 5 26 79 5 27 77 5 25 76 4 25 72 5 24 67 4 21 64 3 21 61 4 17 59 4 18 57 4 16 54 3 15 53 3 15 53 5 14 53 4 13 52 4 13 52 4 13 52 6 15 54 4 16 56 4 17 59 5 20 61 3 18 59 5 20 63 5 22 65 5 22 65 5 24 67 5 26 73 4 25 72 4 25 72 5 31 82 6 67 130 6 70 134 4 36 87 5 31 82 4 34 86 2 32 82 3 31 81 6 32 83 4 34 84 5 36 90 5 36 91 5 36 93 11 37 94 13 78 136 11 80 135 14 79 135 11 42 99 13 34 89 17 30 83 21 24 79 16 27 73 17 24 68 16 23 67 70 25 64 23 22 64 18 20 59 19 19 57 24 18 54 19 15 50 18 17 51 17 16 50 20 16 51 20 16 51 21 15 51 21 15 51 19 15 50 16 15 49 16 15 49 17 16 50 21 15 51 21 15 51 21 15 49 21 15 51 47 18 49 56 19 52 20 14 50 23 16 50 22 15 49 22 15 49 17 16 50 18 14 49 19 15 50 23 16 50 20 14 50 
11 19 104 11 19 102 8 18 103 9 22 100 8 25 97 9 23 96 8 25 97 9 26 98 16 32 128 19 32 134 18 31 135 5 62 133 5 73 134 5 69 133 7 27 88 6 26 85 7 27 86 8 27 85 6 26 79 5 25 76 5 26 73 5 23 69 5 22 66 6 21 64 4 19 60 4 18 57 4 17 59 3 17 54 4 16 54 3 15 53 5 14 53 5 14 53 3 15 53 4 16 54 4 16 56 6 19 61 4 19 60 6 19 61 5 20 63 4 19 62 5 22 66 5 24 67 5 26 73 6 27 74 3 24 71 4 26 73 4 63 123 5 73 136 4 39 93 4 31 84 3 33 85 5 32 85 4 30 79 4 30 81 4 31 84 4 35 90 8 34 91 6 37 94 8 39 94 7 77 136 10 79 134 13 80 135 10 42 99 12 35 89 14 31 83 15 28 80 14 27 71 17 24 68 16 25 68 70 25 64 21 24 67 18 22 60 17 19 57 20 16 51 16 15 49 14 14 48 15 16 47 16 14 51 17 16 50 19 15 50 18 14 49 16 15 49 16 16 52 15 16 47 14 14 50 19 15 50 19 15 50 19 15 50 17 16 50 46 19 50 54 19 51 16 15 49 21 15 51 17 16 50 20 14 50 15 15 51 16 15 49 16 16 52 21 15 51 15 15 51 
8 17 96 10 16 100 8 19 98 8 22 95 8 22 95 7 24 96 9 23 96 9 23 96 10 27 109 19 33 132 16 28 136 13 31 133 7 70 137 8 74 135 6 54 118 8 28 87 6 26 85 6 27 84 6 25 81 5 25 76 7 25 75 4 25 72 4 23 66 5 22 65 3 20 63 6 19 61 4 18 55 3 17 56 4 16 54 3 15 53 5 14 53 4 13 52 4 16 54 4 16 54 5 17 57 4 17 59 4 19 60 5 18 60 5 20 61 6 21 64 4 21 64 4 22 68 4 25 70 4 25 72 6 24 72 4 25 72 5 59 119 4 74 134 3 42 101 5 31 80 3 33 87 4 36 85 4 30 79 4 32 80 6 34 84 4 37 90 4 37 90 6 37 94 9 40 95 10 79 136 9 78 135 12 81 136 8 49 105 11 34 88 10 31 84 15 28 81 16 29 74 16 24 70 15 23 69 69 27 65 21 22 66 17 20 61 17 19 58 20 16 53 13 16 51 13 16 51 14 14 50 14 14 50 16 16 52 16 15 49 16 16 50 14 14 50 12 15 50 11 15 50 12 15 50 17 15 52 17 15 52 17 16 50 15 15 51 43 18 50 49 18 50 13 13 49 19 15 50 15 15 49 19 15 50 12 15 50 15 15 51 12 15 50 19 15 50 12 15 50 
8 17 94 9 16 94 11 18 96 9 17 90 10 18 91 8 22 95 9 23 96 7 24 96 7 23 98 14 30 125 21 35 134 18 31 135 13 49 135 4 72 133 4 74 134 7 41 102 8 27 86 6 26 85 6 27 84 4 26 76 5 27 77 3 27 75 6 24 70 4 23 66 4 21 64 5 20 61 6 19 61 4 18 57 4 18 57 5 17 55 5 17 55 4 16 54 4 16 54 5 17 55 4 18 57 4 19 60 5 20 61 5 20 61 5 20 63 4 21 65 4 21 65 5 23 69 3 25 72 4 26 73 4 25 72 4 27 71 7 58 121 5 74 133 5 45 104 4 31 84 4 34 86 4 32 82 5 31 82 4 32 82 3 33 85 6 35 91 6 36 90 5 38 92 7 43 101 6 82 134 13 80 133 14 81 134 8 53 112 11 32 87 10 32 82 16 29 82 15 25 74 16 23 69 15 23 69 70 24 63 19 22 63 17 22 62 15 18 59 18 16 53 13 16 51 14 14 50 12 15 50 12 15 50 15 15 51 16 14 51 15 15 51 15 15 51 12 15 50 13 16 51 12 15 50 16 14 51 18 14 51 17 16 50 14 14 50 44 17 50 50 21 52 15 15 51 19 15 50 19 15 50 19 15 50 12 15 50 14 14 50 14 14 50 18 14 49 15 13 50 
7 17 89 9 19 90 8 18 90 7 15 87 7 16 85 8 16 88 7 19 91 6 23 92 8 25 97 7 23 100 19 31 133 20 33 135 20 33 135 10 57 135 4 74 134 4 69 127 8 36 99 6 25 83 6 26 85 4 25 78 4 25 78 4 26 75 4 25 72 5 23 69 3 22 65 6 21 64 5 20 61 5 18 60 5 19 58 5 17 57 5 17 57 4 16 54 4 18 55 4 18 55 5 18 60 6 19 61 6 21 62 6 21 62 6 21 64 4 21 64 5 22 66 4 23 66 4 25 72 4 26 73 4 25 72 6 26 76 6 62 121 3 75 133 4 43 100 5 33 83 4 34 86 4 32 82 3 31 81 4 31 84 3 33 85 4 35 89 6 37 92 6 39 93 8 46 108 9 82 133 11 80 135 12 79 132 9 55 115 12 35 89 11 33 83 16 28 80 15 29 76 18 25 69 15 23 69 71 25 64 21 23 64 18 20 59 18 20 58 20 16 53 15 15 49 13 16 51 12 15 50 15 15 51 15 15 51 17 16 50 16 15 49 15 15 51 12 15 50 12 15 50 13 16 51 17 16 50 19 15 50 19 15 50 16 15 49 44 17 48 54 21 52 15 15 49 19 15 50 20 16 51 19 15 50 13 16 51 16 15 49 15 15 51 20 16 51 13 16 51 
7 16 85 8 16 88 8 18 89 7 16 83 7 16 81 7 16 85 7 21 86 8 29 86 7 24 94 6 24 88 9 26 98 18 31 133 21 33 133 21 34 136 9 64 131 5 73 134 5 65 127 6 35 95 8 27 85 5 26 81 4 25 78 5 25 76 5 26 73 3 24 69 4 23 66 5 22 65 6 24 64 5 20 61 5 19 58 4 18 57 6 18 58 4 16 56 4 18 57 2 17 56 4 17 59 5 20 63 3 21 61 5 20 61 6 21 64 4 21 65 5 22 66 4 25 70 5 26 73 4 26 73 6 27 74 5 31 82 6 68 129 5 73 134 5 36 90 5 33 83 4 34 86 6 34 84 6 32 83 4 31 84 4 34 88 3 36 89 6 37 92 6 37 92 10 56 118 9 82 133 11 81 133 15 82 135 7 55 117 11 34 88 14 31 85 16 27 81 15 27 75 16 25 68 15 23 69 72 25 69 22 23 69 19 21 60 18 20 58 23 17 53 19 15 50 17 16 50 17 16 50 16 15 49 19 15 50 19 15 50 19 15 50 18 14 49 16 15 49 16 15 49 16 15 49 22 16 52 22 14 51 23 16 50 21 13 50 47 18 49 55 18 51 19 15 50 21 14 48 20 16 49 22 16 50 16 15 49 19 15 50 17 16 50 22 15 49 17 16 50 
6 15 80 7 16 83 5 16 82 7 17 79 5 16 78 7 16 83 6 20 83 6 22 84 7 25 87 6 26 85 6 26 85 7 26 94 17 27 122 17 33 131 17 37 132 8 69 134 5 75 134 5 65 125 4 35 92 7 28 85 5 25 76 6 26 77 4 26 75 5 26 71 5 23 69 5 23 69 5 22 65 4 22 62 6 21 62 5 20 59 6 20 59 5 20 61 5 18 60 6 20 59 4 17 59 5 20 61 5 23 63 4 21 64 4 23 65 5 22 65 4 23 66 4 25 70 5 26 73 5 27 76 4 26 73 4 41 94 4 72 133 5 65 125 6 33 86 5 33 83 4 34 86 5 35 87 5 33 83 5 33 83 4 34 88 3 34 88 6 37 92 7 38 95 7 63 122 5 82 134 11 81 133 14 79 133 8 59 122 12 33 86 12 33 86 16 29 82 14 28 75 16 24 70 15 23 69 70 25 66 22 24 65 16 21 61 15 19 57 19 17 54 14 14 50 14 14 50 12 15 50 12 15 50 16 16 52 17 16 50 16 14 51 14 14 50 14 14 50 15 15 51 14 14 50 19 15 50 17 13 48 19 15 50 16 16 52 45 18 51 51 17 50 15 15 49 19 15 50 17 16 50 19 15 50 11 15 50 14 14 50 15 15 51 19 15 50 12 15 50 
6 16 78 7 16 81 7 17 79 6 16 75 7 17 76 7 17 79 7 17 79 6 17 83 5 25 84 7 28 85 5 26 79 7 28 85 7 26 85 11 28 106 19 31 129 15 42 133 5 69 133 5 74 133 5 65 125 5 35 95 5 24 80 4 26 76 5 25 76 4 25 72 4 25 70 5 23 69 5 24 67 4 21 65 3 22 64 5 20 61 4 19 60 4 19 60 4 19 60 4 19 60 5 20 61 3 20 63 5 22 68 5 22 66 5 22 66 5 24 67 5 24 67 4 25 70 5 26 73 3 25 72 5 29 77 3 57 117 5 74 133 6 50 111 5 31 80 5 33 81 4 34 86 3 33 85 4 31 84 3 33 87 3 35 86 5 36 90 6 37 92 7 39 96 12 68 127 10 81 135 10 81 135 13 80 133 9 59 122 11 34 88 13 33 86 16 28 80 14 28 75 17 26 69 16 24 70 71 25 71 21 22 66 19 21 60 20 20 58 22 16 54 17 16 50 16 15 49 15 15 49 17 16 50 16 14 51 20 16 51 19 15 52 18 14 51 16 14 51 19 15 50 16 15 49 20 14 50 21 15 51 20 14 48 19 15 50 47 18 49 56 19 52 18 16 53 21 15 51 20 16 51 22 16 52 15 15 51 19 15 50 19 15 50 21 15 49 16 15 49 
5 17 75 6 16 77 7 16 75 6 15 72 7 16 71 6 17 73 6 16 77 7 17 78 7 18 82 7 24 80 5 25 78 4 25 78 5 24 80 7 26 85 7 26 84 10 28 104 11 38 129 7 64 133 5 73 134 6 68 129 6 37 94 5 25 78 4 26 76 4 26 73 4 27 71 6 24 72 4 23 66 5 24 66 4 21 65 4 21 64 6 21 64 6 21 64 6 21 64 6 21 64 6 21 64 4 21 65 3 24 67 6 23 67 6 25 68 5 24 67 5 23 69 4 25 72 4 28 74 5 27 74 5 40 94 6 72 133 6 70 132 5 32 85 3 31 79 4 31 84 5 35 89 3 33 85 4 32 82 5 35 87 4 35 89 4 37 90 5 38 92 5 41 101 11 77 135 9 82 133 11 77 135 14 81 134 9 60 123 11 34 88 12 32 85 16 29 81 15 28 80 16 27 72 13 26 68 70 25 66 19 22 63 18 20 59 17 21 59 19 17 54 15 15 49 15 15 51 15 15 51 15 15 51 15 13 50 16 15 49 16 15 49 15 15 51 15 15 51 14 14 50 15 15 51 17 16 50 19 15 50 19 15 50 15 15 49 44 17 50 51 18 49 16 15 49 19 15 50 19 15 50 19 15 50 15 15 51 15 13 50 16 14 51 21 15 51 12 15 50 
5 16 72 7 17 76 5 16 72 6 16 69 7 19 71 6 15 70 7 16 73 6 15 72 5 15 76 8 21 76 4 26 76 6 26 79 7 24 78 6 26 79 5 25 78 6 25 81 8 26 92 9 33 119 7 61 133 6 74 135 7 68 131 6 42 100 7 27 80 4 26 75 5 26 73 4 25 72 4 25 70 6 25 68 5 24 67 5 24 67 5 22 65 4 22 62 4 21 64 4 23 65 4 23 66 7 25 71 6 23 67 6 24 70 4 25 70 3 24 69 4 25 72 4 26 75 5 27 74 5 29 77 5 59 119 5 73 134 6 55 114 5 32 79 4 30 79 4 32 80 4 34 88 3 33 85 5 32 85 3 34 88 3 34 88 6 36 90 6 37 92 5 51 111 5 85 136 3 83 134 7 68 131 10 81 133 10 62 122 12 33 90 11 34 88 15 31 83 15 29 78 14 27 71 14 25 70 70 25 68 20 23 64 17 20 61 16 21 61 18 18 56 12 14 52 13 16 51 11 14 49 14 14 50 14 14 50 16 15 49 14 14 50 15 15 51 11 14 49 12 15 50 11 14 49 16 15 49 17 16 50 16 15 49 15 15 51 43 18 50 49 18 50 15 15 49 17 16 50 17 16 50 16 15 49 11 15 50 12 12 48 14 14 50 19 15 50 14 14 50 
5 14 71 6 17 73 5 14 69 6 16 67 6 18 68 6 18 68 5 18 70 5 16 70 7 16 75 8 17 76 8 26 74 3 25 74 5 25 75 5 25 76 5 25 78 5 25 76 5 25 78 7 26 85 7 30 110 10 56 131 5 73 134 5 71 131 6 48 106 3 27 75 4 26 73 4 24 74 5 26 73 6 24 70 5 23 69 6 23 67 4 23 66 6 23 67 7 24 68 6 23 67 5 24 67 4 25 72 4 25 70 4 25 70 4 25 72 4 25 72 5 26 73 5 27 74 6 28 75 6 39 93 5 71 132 6 72 132 5 41 93 6 29 79 4 32 80 6 31 85 4 34 88 4 34 86 3 33 85 5 34 90 3 34 88 7 36 92 8 37 95 6 62 121 5 87 135 5 82 136 7 58 123 10 81 133 8 62 124 11 32 87 11 34 88 14 31 83 15 29 78 16 27 72 13 26 71 71 26 69 20 23 66 17 20 61 15 20 60 17 17 55 15 15 51 14 14 48 12 15 50 15 15 51 15 15 51 16 15 49 16 14 51 14 14 50 16 14 51 14 14 50 14 14 50 17 15 52 17 15 52 19 13 49 16 14 51 43 18 50 49 18 50 16 14 51 19 15 50 15 14 48 19 15 50 15 13 50 15 13 50 14 14 50 20 16 51 12 15 50 
5 15 68 6 15 70 5 15 64 4 14 65 5 15 66 6 16 65 7 17 66 6 18 68 6 15 70 6 18 70 5 17 67 6 22 71 5 26 71 4 24 74 4 26 76 7 24 78 5 25 78 5 25 76 6 25 81 7 30 98 5 54 131 5 73 134 4 73 132 4 53 112 6 29 79 3 25 72 3 24 69 4 25 70 4 25 68 3 24 69 5 23 71 6 24 70 2 23 68 5 26 71 3 24 69 5 26 71 3 25 72 5 26 71 3 25 72 4 26 73 3 27 73 5 29 75 6 28 78 8 58 121 4 74 136 3 61 124 4 30 81 4 30 79 6 29 81 5 33 83 4 34 88 7 34 87 5 32 85 3 36 89 6 35 91 5 36 91 7 39 96 7 74 129 5 86 133 6 77 129 7 48 110 10 83 134 9 65 124 11 32 87 11 34 86 12 34 84 16 29 81 14 27 72 13 26 71 69 26 71 20 23 68 16 19 60 16 19 60 18 18 56 14 17 52 15 15 51 13 16 51 14 14 50 15 15 51 16 15 49 16 15 49 16 16 52 14 12 49 15 15 49 15 15 51 20 14 50 18 14 49 19 15 50 15 15 49 45 18 51 49 18 49 16 15 49 18 17 51 16 15 49 17 16 50 10 13 48 15 15 51 12 15 50 19 15 50 12 15 50 
6 16 67 7 14 66 5 15 64 4 15 61 6 14 63 5 16 62 5 15 66 6 16 67 6 18 68 6 18 68 4 21 65 3 20 66 5 22 68 7 24 70 4 25 70 5 25 75 4 26 76 3 24 77 5 27 76 5 25 78 6 27 94 7 52 120 6 72 133 7 73 134 7 57 118 4 32 82 5 26 73 3 26 70 6 24 72 4 25 72 5 26 71 4 25 72 4 25 72 4 25 70 4 26 73 5 26 73 3 25 72 5 27 76 4 26 73 5 27 74 6 29 73 5 29 77 5 36 90 4 70 131 7 73 131 5 45 104 5 28 78 4 30 79 5 31 82 5 33 83 5 35 87 5 35 89 4 34 88 4 35 89 5 36 91 7 36 92 6 41 99 5 80 135 7 85 134 7 66 124 9 50 112 13 80 133 11 66 123 11 34 88 12 33 88 11 34 86 15 28 81 17 28 74 16 27 72 72 24 72 24 22 69 18 20 61 18 21 64 21 19 56 18 16 53 18 16 53 17 15 52 18 14 51 19 15 52 21 15 51 21 15 51 19 15 50 19 15 50 20 16 49 16 15 49 21 14 48 21 15 49 22 15 49 20 14 50 47 18 49 56 19 52 19 16 47 24 14 49 21 15 49 23 16 50 17 16 50 20 16 51 19 15 50 23 16 50 19 15 50 
4 14 65 5 15 66 7 15 64 5 13 59 6 14 61 6 14 61 5 15 64 6 14 63 5 17 69 5 17 65 6 21 64 4 21 64 6 23 67 4 21 67 5 23 71 6 24 70 3 25 72 5 26 73 4 25 72 4 27 71 5 27 77 5 27 77 7 41 105 5 69 133 5 74 133 5 67 126 4 39 93 4 26 73 5 26 73 5 26 73 4 26 73 6 27 74 5 27 74 5 27 76 4 26 75 5 27 74 4 28 76 7 27 77 6 28 77 4 28 74 5 29 77 6 30 78 5 54 113 5 74 133 5 65 125 4 34 86 4 30 79 4 30 79 5 31 80 4 32 82 4 34 86 4 34 88 5 35 89 4 35 89 7 36 92 6 35 91 6 45 104 6 83 135 7 83 133 8 50 110 7 53 115 11 82 134 10 66 123 11 34 88 12 33 86 12 33 88 16 29 82 16 26 77 16 27 73 71 25 71 20 23 68 14 23 64 16 23 67 19 17 57 18 18 54 15 17 55 16 16 54 16 16 52 16 14 51 21 17 50 20 16 51 17 16 50 16 15 49 17 16 50 16 14 51 20 14 50 17 16 50 21 15 49 19 15 50 47 18 49 54 19 51 19 15 50 21 15 49 19 15 48 19 15 48 15 15 49 18 14 49 16 15 49 21 15 49 16 14 51 
8 15 67 7 14 66 5 16 62 4 15 60 5 13 60 7 15 62 5 16 62 4 15 61 5 15 64 4 15 61 5 18 60 5 20 63 4 21 64 4 21 64 5 22 66 6 25 68 5 24 67 6 24 70 4 25 72 6 27 74 5 27 74 4 26 73 5 27 76 6 32 89 6 64 127 8 74 134 4 70 131 5 48 103 4 31 76 5 27 76 5 27 74 5 29 77 4 31 78 6 28 77 5 29 77 5 29 77 3 29 78 5 27 76 6 29 79 5 28 78 6 30 78 5 38 91 4 68 129 4 74 133 8 53 112 6 30 78 3 29 80 4 30 81 5 31 82 6 32 81 4 34 88 5 35 87 4 34 88 5 36 90 6 35 91 9 35 92 4 55 112 5 85 134 6 76 128 7 39 96 8 52 115 10 81 133 11 63 121 10 33 87 12 33 88 12 33 88 17 30 83 17 26 81 16 26 75 72 26 73 23 24 68 16 23 67 18 23 65 21 19 58 18 18 56 19 17 56 18 16 55 18 16 53 18 16 53 20 16 53 20 16 53 17 16 50 16 15 49 19 13 49 18 14 51 20 14 50 21 15 51 21 15 49 20 16 49 47 18 49 55 18 51 19 15 50 23 16 50 21 15 49 23 16 49 15 15 49 19 15 50 17 16 50 23 17 51 17 16 48 
6 14 63 6 14 63 6 14 63 5 13 59 5 13 59 3 14 59 3 14 59 6 14 60 6 14 63 5 17 59 6 19 61 5 18 60 5 20 61 3 20 63 4 21 65 4 21 65 4 23 66 4 22 68 5 23 69 4 25 70 5 26 71 4 26 73 4 26 73 5 27 74 5 28 78 7 56 114 3 73 133 4 73 132 5 55 114 5 33 83 6 30 78 5 28 78 4 30 79 4 30 79 6 29 79 6 29 79 7 29 79 6 29 79 2 30 78 4 30 79 5 31 82 6 57 114 6 76 135 4 70 130 5 38 91 6 29 79 5 31 82 5 31 82 4 30 81 5 31 82 4 35 89 4 35 89 4 35 89 6 36 90 5 36 93 8 37 93 6 71 129 5 85 134 6 58 116 5 40 94 6 52 112 6 86 135 8 67 123 9 36 91 13 34 89 14 33 91 14 31 85 16 27 81 16 26 75 71 25 72 21 25 70 17 24 68 17 24 68 20 22 61 15 19 57 16 18 57 15 17 56 16 16 54 18 18 56 18 16 53 17 17 51 16 14 51 15 18 53 17 16 50 16 15 49 20 14 50 19 15 48 22 15 49 20 14 50 47 18 49 52 19 50 19 15 48 21 15 49 21 15 51 22 15 49 14 14 48 18 14 49 16 15 49 23 16 49 17 15 52 
4 15 61 6 14 63 6 14 60 6 15 58 6 14 60 4 15 60 6 14 60 5 14 57 7 15 62 4 16 58 5 17 57 4 18 57 5 18 60 6 19 61 3 18 61 2 21 63 5 22 65 6 23 67 5 24 67 4 23 66 4 25 70 4 25 72 3 25 72 5 28 72 6 28 77 6 29 79 4 49 106 6 72 132 5 73 134 6 65 123 4 41 96 5 31 80 5 31 82 5 31 82 4 32 82 5 31 82 4 30 81 5 31 80 5 31 80 4 32 80 3 38 92 7 73 131 6 79 134 5 54 113 5 33 83 6 29 79 4 29 83 5 31 80 5 31 80 4 32 82 5 36 90 4 35 89 4 35 89 7 36 92 7 38 93 6 52 112 5 83 132 6 80 129 4 45 101 4 41 96 8 52 113 14 81 133 25 63 125 67 28 93 69 29 92 72 30 94 71 28 84 73 26 80 72 25 77 85 27 75 71 26 69 71 25 72 70 24 70 71 25 62 71 24 60 72 21 54 70 23 57 71 22 54 71 22 54 72 22 57 72 23 55 72 23 53 72 21 54 71 21 50 72 22 51 74 21 51 73 20 50 74 21 51 71 21 50 78 22 51 78 22 49 71 20 51 75 21 53 74 21 51 71 21 50 69 20 50 74 21 51 71 20 51 75 20 51 73 19 51 
4 15 61 6 14 63 5 13 59 5 14 57 2 14 56 5 14 57 5 14 57 6 15 56 3 14 59 4 16 56 4 16 54 3 17 54 5 17 57 4 17 59 5 18 60 5 20 61 5 20 63 4 21 64 4 21 64 4 23 66 3 24 69 4 25 70 5 26 73 4 28 74 4 28 74 5 29 75 3 30 77 5 42 97 6 68 129 6 79 134 7 73 131 6 56 115 5 35 89 6 32 83 6 32 81 4 32 82 6 32 83 5 31 82 5 33 83 4 36 87 6 65 123 7 79 137 4 69 125 4 37 90 5 31 82 4 30 81 4 32 82 4 32 82 4 30 79 4 32 82 5 36 90 5 36 90 5 36 90 7 36 92 6 45 104 7 78 134 6 84 133 5 61 118 5 40 98 4 40 98 6 52 114 7 85 133 9 65 122 14 36 94 14 34 93 18 34 93 19 30 84 20 27 79 21 28 80 74 25 80 26 24 71 22 25 70 21 25 72 21 23 64 23 21 61 21 21 57 20 20 58 20 18 57 24 19 59 24 20 57 20 18 55 22 18 55 21 17 54 22 16 52 22 18 53 24 17 51 23 17 51 23 17 51 22 16 50 47 18 49 53 18 50 21 15 49 23 16 50 23 16 50 25 15 49 17 16 48 20 16 51 21 15 51 24 17 50 21 17 50 
4 15 61 5 15 64 6 14 60 6 15 58 5 14 57 5 14 57 5 14 55 5 14 55 6 15 58 4 16 56 4 17 52 4 17 52 5 17 57 4 18 57 5 18 60 5 20 61 5 20 61 4 21 64 3 22 65 4 23 66 2 23 66 4 25 70 4 24 74 3 25 72 4 28 74 5 29 77 6 29 79 4 30 79 5 36 90 6 51 108 6 72 132 5 78 133 7 72 128 7 53 112 6 36 90 5 32 85 5 33 83 6 32 83 4 36 87 4 63 121 6 77 133 7 76 133 5 42 95 5 33 83 5 31 80 5 31 82 5 33 83 2 30 80 4 32 80 3 33 83 5 37 88 5 36 90 5 36 90 8 40 99 6 75 132 4 81 133 8 75 130 4 45 101 4 39 97 5 40 96 10 60 119 10 83 134 6 65 123 5 38 92 6 39 93 11 33 90 13 33 86 16 29 81 16 28 80 74 27 79 20 26 74 14 27 71 14 27 69 16 23 67 17 21 66 17 22 62 14 17 58 17 21 59 17 19 58 19 18 58 17 19 57 17 16 56 15 17 55 18 16 55 18 16 53 21 17 54 21 17 52 21 15 51 19 15 48 48 19 50 56 21 51 21 15 51 23 16 50 20 14 48 21 15 49 16 15 49 19 15 50 17 16 50 23 15 52 17 16 50 
4 15 61 4 15 61 5 14 57 4 13 54 5 14 57 5 14 57 5 14 57 4 13 52 5 13 59 6 15 54 3 15 53 5 15 51 3 15 53 5 17 57 4 17 59 4 17 59 5 20 63 3 20 63 4 21 64 4 23 66 6 24 70 4 25 70 4 25 72 5 27 74 3 30 77 6 30 78 3 29 78 6 29 81 5 30 84 8 31 83 6 36 88 5 57 115 5 78 133 6 79 134 5 75 134 6 51 108 6 34 84 4 36 85 6 66 126 6 79 134 6 77 133 5 47 107 4 32 82 5 31 80 5 31 82 5 31 82 4 32 82 3 31 79 4 32 80 6 34 84 5 37 88 5 36 90 5 37 88 7 67 127 5 82 134 6 82 134 6 56 117 4 40 100 5 40 96 7 39 96 10 60 119 5 85 134 7 76 131 6 51 110 7 38 93 8 35 90 11 31 84 16 29 81 17 29 79 73 24 79 20 26 74 13 26 70 16 27 73 17 24 68 15 22 64 15 22 66 14 21 63 13 21 60 17 22 60 17 19 60 17 19 58 16 18 56 17 19 57 16 18 56 17 17 55 22 16 54 18 16 55 21 16 56 17 15 52 45 18 49 51 18 49 17 15 52 19 15 50 19 15 50 20 16 51 14 14 50 17 16 50 16 15 49 20 14 48 16 15 49 
5 16 61 6 14 61 6 15 58 7 14 56 5 14 57 5 14 55 6 15 54 5 14 53 6 14 60 6 15 54 5 14 53 5 14 53 4 16 54 5 17 55 5 19 58 4 17 59 5 20 61 5 20 63 4 21 64 5 22 66 5 24 67 4 25 70 4 26 73 5 27 74 6 28 75 5 29 77 3 29 78 4 30 79 4 32 80 5 33 83 4 32 82 3 33 87 5 37 94 5 57 117 5 74 133 6 77 133 7 62 119 6 71 127 6 79 134 6 77 133 7 57 116 6 34 84 5 33 83 4 34 86 5 33 81 5 33 83 6 32 83 5 31 82 3 31 79 5 33 83 4 36 87 4 35 89 4 53 111 6 82 132 6 82 134 5 72 127 6 39 93 4 39 93 4 40 98 5 40 96 8 58 117 5 86 133 12 82 133 14 80 132 12 68 127 8 42 103 13 33 84 15 28 80 17 28 82 71 27 78 21 27 79 17 24 76 14 26 76 15 27 69 16 25 68 16 23 67 15 22 64 17 22 64 17 20 61 20 20 58 19 18 58 20 19 59 19 19 57 18 18 56 19 18 60 23 16 57 23 15 54 21 16 56 18 16 53 46 19 52 55 18 52 20 16 51 24 17 51 21 15 49 24 14 49 16 16 50 19 15 50 18 14 49 23 16 50 17 16 50 
4 15 60 4 15 61 5 13 59 5 14 55 5 14 57 5 14 55 5 14 55 5 14 53 5 14 57 5 14 53 7 17 53 4 17 52 3 15 53 5 17 55 3 18 57 5 18 60 5 20 61 6 21 62 4 21 64 5 22 66 6 25 68 6 24 72 5 26 71 5 27 74 5 29 77 5 28 78 6 29 79 5 31 82 4 31 84 5 33 83 6 32 83 6 34 84 4 34 86 6 33 86 10 35 101 6 64 128 6 79 134 6 79 134 7 78 134 4 53 112 4 34 86 6 34 84 4 32 80 5 32 85 3 33 83 7 33 84 5 32 85 5 31 80 4 30 79 6 32 83 5 35 87 5 41 99 6 79 132 6 82 134 5 81 133 6 42 102 6 37 92 5 40 96 3 40 95 6 39 93 6 52 111 5 86 133 9 80 134 10 81 133 10 82 132 15 80 134 13 61 123 12 35 89 13 31 81 67 27 77 16 26 77 12 28 77 12 28 77 14 27 72 15 23 69 11 24 66 14 22 68 14 23 66 14 21 63 16 21 63 13 21 60 16 21 61 15 20 62 15 18 59 13 18 58 16 18 56 19 18 58 19 17 56 16 16 54 45 19 54 49 19 53 16 16 54 19 15 52 19 15 50 19 15 50 12 15 50 17 13 48 14 14 50 20 16 51 14 12 49 
4 15 60 5 13 60 6 13 59 6 15 56 6 15 56 5 14 57 5 14 57 5 14 53 5 14 57 4 16 56 6 15 54 4 16 54 5 17 55 5 17 57 5 18 60 5 18 60 5 20 61 5 20 63 6 21 64 6 23 67 2 23 68 4 25 70 4 25 72 4 26 73 6 28 77 5 28 78 6 30 78 5 31 82 5 33 83 5 33 83 3 33 83 4 34 86 7 35 85 3 33 85 5 56 119 7 83 133 8 81 132 6 75 132 6 45 104 4 34 86 5 35 87 3 33 85 4 32 82 6 33 86 6 32 83 5 33 83 4 32 82 6 32 81 5 31 82 5 33 83 5 38 92 7 69 126 7 83 133 6 82 134 7 53 112 6 36 90 6 37 91 7 40 94 6 37 92 6 39 93 6 52 114 4 84 133 7 58 123 7 53 112 9 76 131 14 79 133 13 80 133 11 76 130 13 52 111 66 27 84 16 28 78 13 31 79 13 29 80 15 27 75 12 25 69 13 24 69 11 24 68 12 23 68 14 23 66 17 22 64 14 21 63 14 21 65 15 19 64 16 21 61 14 19 59 17 19 57 19 19 57 17 19 57 15 19 56 42 21 54 48 21 54 14 16 54 18 16 53 18 16 53 17 15 52 12 15 50 15 15 51 15 15 51 20 14 50 13 16 51 
6 14 60 6 14 60 4 12 58 6 15 56 6 15 58 5 14 57 5 14 55 5 14 53 4 15 60 6 15 56 4 16 56 5 17 55 5 19 56 5 17 57 4 19 60 4 19 60 5 20 63 5 20 63 5 22 66 5 24 67 3 25 66 4 25 70 4 26 73 4 26 73 6 30 78 4 30 79 4 30 79 3 31 79 6 32 83 6 34 84 3 33 85 5 35 87 5 44 99 5 68 122 7 83 135 5 81 131 6 63 118 7 38 93 4 34 88 4 34 88 5 35 87 3 33 85 3 33 85 6 34 84 4 31 84 5 33 83 4 32 82 6 32 81 5 31 80 4 34 86 7 62 118 8 81 132 6 82 132 5 64 120 4 35 89 4 34 86 5 34 90 5 38 92 6 39 92 7 36 92 6 54 118 4 81 133 7 59 119 7 36 92 6 37 94 10 56 115 12 71 129 13 78 134 10 76 134 11 71 131 9 48 103 11 34 86 9 30 77 12 26 71 11 25 72 12 25 70 11 25 70 12 25 70 13 24 69 13 25 67 14 22 68 13 22 65 13 22 63 13 20 62 14 22 61 16 19 60 16 20 58 17 21 59 16 20 58 44 20 56 50 20 58 15 17 56 17 17 53 18 13 53 17 17 53 13 15 53 15 18 53 14 14 52 19 15 52 11 14 49 
5 13 60 6 14 60 6 15 58 5 14 55 5 14 57 5 14 57 4 16 56 6 15 54 5 16 61 5 17 57 3 15 53 5 19 58 5 19 58 6 18 60 5 18 60 5 20 61 4 21 64 7 22 65 5 22 66 6 25 68 6 24 70 5 26 71 5 27 74 5 27 76 5 29 77 3 30 77 4 30 79 3 31 81 5 31 80 4 34 86 5 40 94 5 64 122 6 77 133 6 79 132 5 78 133 4 54 113 3 33 85 6 33 88 3 33 85 5 32 85 6 33 86 6 33 86 3 33 85 5 33 83 4 32 82 5 33 83 5 33 83 4 32 80 4 31 84 5 54 112 6 82 134 5 83 132 6 68 125 5 36 90 5 35 87 3 33 85 4 35 90 6 39 92 6 37 94 8 34 91 7 55 117 6 82 132 8 54 114 6 35 91 7 36 92 8 35 90 11 37 88 11 53 111 11 72 129 12 79 132 13 75 136 12 73 128 8 49 103 11 29 79 12 27 70 11 25 70 10 24 69 11 25 72 14 25 70 15 24 67 11 24 66 14 23 66 12 23 68 15 22 64 12 21 64 17 22 62 15 20 58 18 17 59 15 20 58 45 23 61 48 21 56 14 18 56 16 20 57 18 17 57 18 16 55 14 16 54 16 16 54 15 15 51 20 16 51 13 16 51 
5 13 59 7 15 61 4 16 58 4 16 56 5 14 57 4 16 54 7 16 57 5 17 57 4 16 58 3 17 56 5 19 58 3 18 57 5 18 60 4 19 62 5 20 63 3 20 63 4 23 65 4 23 66 5 24 67 3 24 69 4 25 70 5 26 73 4 28 74 5 29 75 5 29 77 6 29 79 7 30 80 5 33 83 6 39 93 7 59 117 6 75 132 7 78 134 6 75 132 5 65 125 5 41 99 3 33 85 6 33 86 5 35 87 3 33 85 4 34 86 5 32 85 3 33 85 6 34 84 5 33 83 5 32 85 5 32 85 5 33 83 6 32 83 6 49 104 5 76 130 7 83 133 6 75 132 7 38 93 4 34 88 5 32 85 7 32 86 5 35 87 5 36 90 7 36 92 5 34 90 7 57 116 6 82 134 8 54 113 6 36 90 6 36 90 8 33 89 11 32 87 9 31 81 6 36 88 9 55 115 7 72 130 11 76 134 9 75 133 11 63 123 8 41 94 9 27 75 9 26 70 9 26 72 11 25 70 12 25 69 11 25 70 12 25 69 11 24 68 11 24 68 13 25 67 15 22 64 14 21 63 14 21 63 12 21 60 44 22 58 47 21 58 15 18 59 16 18 57 16 18 57 18 18 56 13 17 55 14 16 54 14 16 54 21 17 54 16 16 52 
5 14 57 5 13 59 5 14 57 4 16 56 5 14 55 4 16 56 6 15 58 5 17 57 6 18 60 5 19 58 6 20 59 4 19 60 3 20 63 5 20 63 4 21 64 5 24 66 4 23 66 5 23 69 3 26 70 5 26 71 5 28 72 5 27 74 6 28 75 5 29 77 4 30 79 4 34 84 6 45 102 6 62 121 6 75 132 5 78 133 5 76 132 6 68 129 6 46 105 6 34 84 6 33 86 3 33 85 3 33 83 4 34 84 3 33 83 6 33 86 3 33 85 2 32 84 6 34 84 6 34 84 4 32 80 6 34 84 5 33 83 6 45 100 5 76 132 7 78 134 4 80 132 5 46 100 3 33 85 3 33 85 7 34 87 6 32 83 5 35 87 7 36 92 7 36 92 5 35 87 4 59 116 5 83 132 4 53 111 7 34 87 6 36 88 5 35 87 5 33 83 8 32 80 7 30 80 8 32 80 10 35 89 6 57 114 9 74 132 10 76 134 9 74 132 10 60 121 6 37 91 10 27 73 12 26 73 12 26 73 9 26 70 13 27 72 13 24 69 12 24 66 11 24 68 14 23 66 14 23 66 14 21 63 13 22 65 41 23 63 47 22 62 15 20 60 16 19 60 15 19 57 17 19 57 12 15 56 13 16 57 13 17 54 17 17 55 14 16 54 
6 14 60 6 14 60 4 16 58 4 16 56 6 15 58 4 16 56 6 18 58 6 18 58 4 19 60 6 19 61 5 20 61 5 20 61 4 21 64 4 23 65 6 23 66 3 24 67 3 24 71 4 25 70 6 27 72 5 28 72 4 27 71 5 27 76 6 30 78 6 34 84 4 47 102 4 66 123 6 76 135 5 78 133 6 75 132 5 67 126 5 52 108 3 33 85 5 32 85 3 33 85 3 33 87 5 32 85 4 34 86 6 33 86 3 33 83 7 34 87 4 34 86 5 33 83 5 33 83 6 32 83 4 32 82 5 33 83 6 47 103 5 74 131 6 79 134 7 78 132 7 53 112 4 34 86 5 32 85 5 35 87 4 34 84 4 31 84 4 34 86 5 36 90 6 35 91 4 35 89 6 61 117 6 82 132 5 50 107 7 34 87 9 34 88 12 33 88 8 31 83 9 29 79 9 31 80 8 30 79 9 29 79 9 30 77 9 39 93 9 58 117 11 71 131 11 73 134 9 74 132 8 54 114 12 35 85 14 28 73 10 24 69 13 26 71 12 25 70 13 26 70 11 26 69 16 23 67 16 25 64 16 23 67 15 22 64 44 22 61 45 23 61 14 21 63 17 21 59 17 20 61 18 20 58 13 18 56 17 19 57 14 18 56 19 17 56 15 17 55 
5 14 57 5 13 59 5 13 59 4 16 56 6 15 56 5 19 58 5 19 58 5 19 58 3 21 61 5 20 61 4 22 62 6 23 66 5 24 66 6 23 66 5 24 67 4 25 70 3 25 72 6 27 72 6 28 75 5 29 77 5 29 77 4 34 86 5 50 107 6 67 124 7 78 132 7 76 133 6 72 130 6 58 116 3 44 98 4 36 87 5 33 83 5 33 83 5 32 85 5 32 85 3 33 85 6 33 86 4 34 86 4 34 86 5 32 85 4 34 84 5 32 85 5 32 85 4 34 84 6 33 86 6 34 84 4 49 104 7 72 128 6 77 133 7 76 133 5 51 110 5 36 90 3 33 85 5 32 85 3 33 85 3 33 83 5 33 83 4 34 86 6 35 91 4 35 89 4 34 88 4 64 118 8 81 134 6 49 102 5 35 87 5 35 87 6 33 86 6 32 83 4 30 79 6 29 79 6 30 78 5 29 77 6 29 79 6 30 78 6 27 74 6 37 92 6 57 112 6 70 131 7 73 134 5 71 132 10 52 112 8 35 88 8 26 72 8 25 71 11 25 70 8 25 69 12 25 67 12 25 67 13 24 69 12 24 66 40 25 64 46 24 62 13 22 65 14 21 65 14 22 61 14 19 59 11 20 61 14 19 57 13 18 56 18 18 56 12 15 56 
7 14 58 6 14 60 4 16 56 4 16 54 4 15 60 6 20 59 6 19 61 5 20 61 4 22 62 4 21 64 7 22 65 6 23 67 3 24 69 6 25 68 4 25 70 5 26 73 6 26 76 4 28 76 4 30 79 7 37 89 5 56 113 6 71 129 6 77 133 5 78 133 5 70 128 4 53 111 5 36 91 7 33 84 2 32 82 4 32 82 5 33 83 5 33 83 5 32 85 5 32 85 5 32 85 4 34 86 4 34 86 4 34 86 5 32 85 6 33 86 5 32 85 6 34 84 6 32 83 4 34 86 5 52 108 6 75 130 7 78 134 5 76 132 6 45 104 5 33 83 5 35 89 6 33 86 7 32 88 5 35 87 3 33 85 6 33 86 4 36 87 5 35 89 7 37 91 5 36 90 6 67 122 5 81 131 6 47 103 4 34 88 3 35 86 4 34 86 5 31 80 5 28 78 4 31 78 5 28 78 5 27 76 5 29 77 6 30 78 5 27 74 4 26 73 5 25 75 5 37 88 6 58 116 5 69 131 10 70 133 5 69 130 6 55 113 8 36 86 9 26 72 8 25 69 9 26 70 12 25 69 12 25 69 12 25 69 40 25 68 44 23 66 11 24 66 14 23 64 12 21 62 12 21 62 5 18 60 11 20 61 12 20 59 19 18 58 12 17 57 
5 14 57 6 15 58 4 16 58 5 17 55 4 18 57 6 18 60 4 19 60 5 18 60 5 22 65 6 23 66 4 23 66 5 23 69 6 24 70 6 27 74 5 27 74 5 27 74 5 29 77 5 38 91 6 58 115 3 72 129 7 78 132 5 76 132 5 70 128 6 53 109 7 38 92 5 32 85 4 32 82 4 31 84 4 32 82 6 34 84 6 32 83 6 32 83 4 32 82 5 33 83 5 31 82 5 33 83 6 33 86 6 33 86 7 33 84 4 32 82 5 33 83 5 33 83 4 34 86 5 56 113 6 75 134 6 79 132 6 75 132 5 44 101 5 31 82 6 34 84 3 34 88 4 34 86 5 32 85 5 32 85 5 35 85 7 34 87 5 35 89 6 37 91 7 38 92 5 36 91 7 68 123 5 81 131 5 44 99 5 35 89 5 36 90 4 34 86 5 31 82 4 31 78 3 29 78 7 29 79 6 30 78 5 28 78 6 30 78 7 25 73 4 25 70 4 25 72 5 26 71 6 28 77 4 41 94 9 59 120 6 72 133 7 73 133 6 66 126 10 49 106 7 30 80 8 25 69 12 26 71 11 25 70 11 25 70 41 26 69 45 22 64 9 24 67 12 24 66 11 23 65 13 22 63 11 23 65 12 21 64 13 21 60 16 21 61 12 20 59 
7 14 58 6 15 58 6 14 60 5 17 57 5 18 60 5 20 61 5 20 61 5 20 63 4 23 65 6 23 67 6 24 70 4 25 72 5 27 74 5 27 76 4 28 76 6 36 88 6 58 116 5 74 129 5 78 131 6 77 133 6 66 126 6 51 108 4 35 89 6 33 86 6 33 86 5 33 83 5 33 83 5 33 83 5 31 82 4 32 82 6 32 83 5 32 85 5 33 83 5 33 83 5 33 81 5 32 85 6 34 84 5 33 83 5 33 81 4 32 82 5 33 81 6 37 91 6 60 120 6 77 133 7 77 136 4 73 130 4 43 98 5 31 80 5 31 80 5 33 83 5 35 89 5 35 87 7 34 87 7 34 89 6 33 86 6 33 86 6 37 91 6 37 92 6 39 93 5 38 92 5 70 126 7 80 131 4 43 98 5 35 89 5 35 85 4 36 87 5 32 85 5 31 80 4 30 79 6 30 78 6 30 78 5 29 77 6 30 78 5 26 73 5 26 73 4 25 72 7 25 73 4 27 71 5 26 71 8 28 78 4 43 98 7 61 121 8 72 133 9 71 132 6 65 125 9 46 101 9 29 79 12 25 70 8 25 71 42 26 71 46 23 65 13 26 71 12 23 68 10 25 68 12 24 66 10 23 67 13 22 65 13 22 63 15 22 64 14 21 63 
6 15 58 3 15 57 5 17 59 5 17 57 4 19 60 5 20 61 6 21 64 6 21 64 4 23 65 4 25 68 3 24 69 5 27 74 4 28 74 6 30 78 5 47 105 6 72 130 7 78 132 6 79 132 7 69 126 4 49 106 4 35 89 4 31 84 6 34 84 5 35 87 4 34 86 4 34 84 5 33 83 6 34 84 4 30 79 5 31 80 7 30 80 4 30 81 5 31 82 4 30 81 5 31 82 5 31 82 5 31 80 7 30 80 5 31 82 5 31 82 6 41 95 7 69 128 6 77 133 6 79 132 5 70 128 5 45 97 5 31 80 5 31 80 5 31 82 3 33 83 4 34 86 6 33 86 6 36 88 5 35 87 7 34 89 6 36 90 6 37 92 7 38 93 6 39 93 7 39 98 7 73 131 3 83 132 5 41 99 4 37 90 4 35 89 5 35 89 3 33 85 6 29 81 5 31 80 4 30 79 6 30 78 6 30 78 3 27 75 5 26 73 5 26 73 4 25 70 4 25 72 5 26 71 7 26 69 6 24 70 4 25 72 6 29 79 5 44 99 7 66 126 6 72 132 10 72 131 10 65 121 10 45 101 10 28 76 44 24 73 46 23 65 12 25 69 13 24 69 13 24 69 13 24 69 12 25 69 14 23 66 14 23 64 16 23 65 15 23 62 
4 13 56 6 15 58 5 17 59 5 19 58 5 18 60 6 21 62 3 20 63 5 22 65 7 26 69 4 25 70 5 27 74 6 28 77 2 28 77 5 56 113 5 76 132 6 79 132 7 72 128 6 51 110 5 36 90 5 36 90 6 36 90 6 33 86 4 34 86 4 34 86 5 35 87 7 32 86 5 31 82 5 33 83 5 31 80 4 32 82 4 30 81 4 32 82 6 29 79 4 30 81 4 30 81 7 30 82 4 29 83 4 30 81 6 36 90 5 57 114 6 75 132 5 76 132 6 77 133 5 66 123 6 39 93 6 29 81 5 31 80 5 31 80 5 31 82 4 31 84 5 37 88 3 35 86 4 35 89 5 35 89 5 35 89 7 37 89 7 39 96 4 39 95 5 40 96 6 42 100 7 78 134 6 82 134 6 41 99 7 38 92 6 37 92 4 35 89 4 34 84 5 33 83 5 31 82 5 31 80 5 29 77 5 29 77 4 28 74 5 26 73 4 25 70 3 24 69 4 25 70 5 26 69 6 24 70 6 24 70 7 25 71 8 25 71 8 26 72 7 34 81 7 52 109 8 67 127 11 71 133 12 72 134 10 58 120 35 41 93 38 26 72 11 25 70 12 25 70 11 25 70 13 26 70 13 24 69 12 23 68 13 25 67 18 22 67 13 22 65 
5 14 53 6 13 55 4 17 59 6 18 56 6 19 61 4 21 64 5 22 65 5 22 66 3 24 69 5 28 72 4 28 74 4 31 78 5 36 90 6 75 130 7 76 133 6 77 131 6 47 103 6 36 90 5 36 90 5 35 87 4 35 89 5 35 87 4 34 86 5 35 89 5 35 89 4 34 86 5 33 83 3 33 85 5 31 80 4 30 79 4 30 81 4 30 79 6 29 79 5 31 80 7 30 80 6 29 79 5 38 92 7 59 116 5 74 131 5 76 132 7 78 134 5 70 128 5 51 103 5 33 83 4 30 79 4 30 79 4 30 79 4 32 82 5 33 83 4 34 86 4 35 89 6 36 90 6 36 90 6 37 91 6 37 94 7 38 95 5 40 98 6 42 100 4 43 100 3 44 100 5 81 131 5 76 128 6 42 100 4 39 95 7 39 96 5 36 91 5 35 89 6 33 86 4 32 82 6 29 79 5 29 77 5 28 80 4 26 75 4 25 70 6 24 70 5 26 71 6 24 70 4 25 70 6 24 70 6 25 68 3 24 71 7 25 71 8 25 69 7 25 71 6 24 70 9 27 75 8 44 102 8 67 127 10 72 131 10 72 131 13 63 124 10 43 97 10 27 73 9 26 70 13 26 70 12 25 70 12 25 69 14 26 68 17 24 66 13 25 65 
4 13 56 5 14 53 6 18 58 5 19 58 5 20 61 5 24 66 5 22 65 4 21 65 4 25 70 6 28 75 6 30 78 4 30 81 4 43 102 6 79 132 7 80 131 6 82 132 9 55 115 7 38 92 6 37 92 5 36 90 6 36 86 4 34 88 4 36 87 4 36 85 4 35 89 4 34 88 5 32 85 5 32 85 5 31 80 6 29 79 4 30 79 4 30 79 4 30 79 5 31 80 7 34 89 6 52 111 4 73 128 9 76 131 6 77 133 5 76 130 4 59 116 5 36 90 7 30 80 3 29 78 6 30 78 5 31 80 6 32 81 2 32 82 8 31 83 4 34 86 6 36 90 5 36 91 6 37 94 5 40 94 5 40 96 4 41 96 6 42 100 5 43 105 5 45 106 5 50 109 6 87 134 6 73 128 4 40 98 5 40 98 5 40 96 8 39 94 6 36 90 6 33 86 5 32 85 8 31 83 6 29 79 5 29 77 5 27 76 5 26 71 6 25 68 3 24 69 6 25 68 6 25 68 5 24 67 6 25 68 5 23 69 7 26 69 7 25 71 8 25 69 7 26 69 9 26 70 8 25 69 9 30 77 7 49 107 9 67 130 10 70 132 9 69 131 9 60 123 9 40 94 12 26 71 9 26 70 11 25 70 12 27 70 16 24 70 12 25 69 
5 14 53 7 16 55 5 19 58 7 19 59 5 18 60 6 23 66 4 23 65 4 23 66 4 25 70 6 28 75 6 30 78 4 32 80 5 45 107 8 81 132 8 81 132 6 82 132 5 70 126 6 38 95 6 37 91 6 39 92 7 37 91 5 36 91 5 35 89 4 34 86 6 36 90 2 34 85 4 34 84 3 33 83 6 32 83 3 31 79 7 30 80 7 30 80 3 33 85 6 51 108 6 71 129 6 75 132 6 75 132 7 73 131 6 60 120 7 42 96 4 30 79 5 28 78 6 30 78 4 30 79 6 30 78 5 31 80 4 30 79 6 32 83 3 33 83 5 35 87 7 38 92 6 39 92 4 39 95 5 41 99 6 42 100 6 42 102 5 45 106 6 46 107 4 45 107 7 57 120 7 90 134 6 68 129 3 43 104 4 43 102 4 43 100 5 40 96 7 38 92 4 36 87 4 34 86 6 32 83 4 30 81 7 30 80 5 27 76 5 26 71 6 24 70 6 25 68 6 24 70 5 24 66 6 23 67 5 24 67 5 24 67 6 25 68 5 23 69 7 26 69 7 26 69 8 25 69 8 25 69 10 27 71 8 27 70 8 31 81 9 51 111 9 67 130 13 75 132 12 73 130 16 55 114 50 33 87 67 26 70 71 25 71 72 24 72 70 25 68 
4 13 52 4 16 56 6 18 58 6 18 58 5 20 63 3 22 64 4 23 66 6 24 70 5 26 73 5 29 77 5 31 80 6 34 84 5 49 110 6 82 132 5 76 130 6 84 133 6 79 130 5 41 99 6 38 97 6 38 95 7 38 95 6 37 92 4 35 90 5 36 91 7 38 93 5 35 89 6 33 86 5 33 83 5 31 82 4 30 81 3 33 85 6 51 108 5 71 129 5 76 132 6 75 132 7 73 133 5 61 120 5 40 94 4 30 79 4 28 74 4 28 76 6 28 77 6 28 77 5 29 75 5 28 78 5 31 80 5 31 82 3 33 83 5 32 85 5 36 90 6 37 92 5 40 96 4 40 98 4 43 102 4 44 105 7 56 115 6 76 127 5 78 129 7 66 124 3 72 127 5 95 132 7 66 124 5 46 108 6 46 105 4 44 103 3 42 99 5 40 96 6 37 91 5 35 87 6 34 84 5 31 80 6 29 79 6 28 77 7 25 73 6 24 70 5 23 69 6 23 69 3 24 69 6 23 66 5 22 65 5 22 66 5 24 67 3 24 67 4 23 66 5 24 67 7 25 71 8 24 73 8 25 69 8 25 69 6 25 68 9 26 70 8 34 85 10 52 112 11 69 133 11 71 131 12 67 131 14 52 114 17 33 82 22 26 73 16 24 70 
4 13 52 6 16 52 5 20 61 6 20 57 5 20 61 3 24 67 5 24 67 3 24 69 5 27 76 7 29 79 5 33 83 4 34 86 4 53 111 7 85 133 8 74 132 4 85 132 5 83 132 5 49 110 4 41 96 5 40 98 5 40 98 7 38 93 6 35 91 7 36 92 7 38 92 6 36 90 6 33 86 6 34 84 5 36 90 3 52 110 4 69 127 6 75 134 5 74 131 5 74 133 5 65 125 6 42 100 4 31 78 5 27 74 5 29 77 5 27 74 5 27 74 6 28 75 6 28 75 5 29 77 5 29 77 5 31 80 5 33 83 6 34 84 5 35 89 5 38 92 5 40 94 5 41 99 8 44 104 6 47 109 6 73 125 5 95 132 6 96 133 6 96 133 5 95 130 5 95 132 6 96 131 4 85 130 5 59 121 5 49 112 5 45 107 4 44 105 3 42 99 7 38 93 6 36 90 4 34 86 4 32 82 4 31 78 5 29 77 5 26 73 4 25 70 3 24 69 6 23 66 5 24 67 5 24 67 5 24 66 5 24 66 7 21 66 5 24 66 5 24 66 4 23 66 7 24 68 7 24 68 8 25 69 8 25 69 7 24 68 8 25 69 8 25 71 10 27 73 9 34 88 10 59 118 11 71 133 11 71 131 11 70 128 10 49 106 13 30 76 
5 14 53 4 16 54 6 19 61 6 19 61 6 21 64 5 23 69 4 25 68 5 26 73 4 27 77 5 31 82 4 34 86 5 36 90 7 58 111 5 86 133 5 71 129 7 80 131 5 86 131 5 57 114 3 42 99 6 41 97 6 38 97 6 38 95 5 36 91 8 35 90 6 37 92 5 38 92 5 50 109 7 63 122 6 72 130 5 74 133 5 74 131 6 72 132 7 59 117 4 41 96 6 30 78 6 27 74 4 26 73 4 26 73 4 26 73 4 26 73 4 25 72 4 26 73 4 28 74 5 27 74 7 29 78 4 30 81 5 33 81 4 34 86 5 35 87 6 38 95 6 41 99 6 42 100 4 48 111 8 82 131 6 96 131 4 97 131 5 90 131 4 92 132 5 95 130 6 96 131 5 98 132 6 96 131 5 95 130 6 84 130 6 65 123 5 46 108 6 44 106 5 42 97 7 38 93 4 35 89 6 34 84 7 33 84 5 28 78 5 27 76 5 26 73 7 25 71 6 23 69 6 23 67 6 23 67 5 22 66 5 22 66 5 22 66 5 22 65 5 22 65 6 24 64 5 24 66 5 24 67 5 24 67 5 24 67 6 25 68 7 26 69 9 26 70 8 25 71 10 24 69 11 27 76 10 37 90 9 59 122 11 73 132 12 74 131 10 66 125 
4 17 52 4 18 57 6 21 64 6 21 64 5 22 65 5 26 71 5 27 74 6 28 75 6 29 79 7 34 87 4 36 87 6 37 92 5 62 117 4 85 132 6 69 123 6 73 128 8 91 133 5 61 118 6 42 100 5 40 96 6 38 95 6 39 93 5 41 99 7 53 112 8 69 126 6 77 131 6 77 131 6 77 133 5 74 131 8 72 133 5 55 116 6 36 90 4 27 71 6 27 74 4 26 73 6 27 72 4 25 70 6 24 72 4 26 73 6 24 72 4 25 72 6 27 74 5 27 74 5 27 74 5 29 77 4 30 79 3 33 83 5 35 87 6 36 90 5 40 96 6 42 100 5 47 107 8 82 129 4 96 133 7 95 131 7 83 132 5 95 132 5 98 132 5 95 132 7 95 133 5 93 133 6 91 132 5 95 132 4 97 131 5 98 132 6 87 132 7 59 119 4 43 100 4 39 95 7 38 92 4 34 86 4 34 84 4 30 79 7 27 77 5 28 72 4 25 70 5 23 69 5 24 67 6 23 67 5 22 66 4 23 66 7 21 66 5 22 65 5 22 65 5 22 65 4 21 64 5 22 65 7 22 65 9 24 67 7 24 67 8 25 69 8 25 69 10 25 68 11 25 70 12 26 71 10 27 71 9 26 70 11 38 91 10 65 122 12 74 131 
4 18 55 5 19 58 4 21 65 4 22 62 6 23 67 5 27 74 5 27 74 5 27 76 5 31 80 6 33 86 5 35 89 7 38 92 5 64 120 6 87 134 8 69 126 7 64 119 7 92 133 6 69 123 6 42 102 5 41 99 5 57 114 7 74 129 6 82 132 7 80 131 7 83 133 6 79 132 6 75 132 5 67 126 7 48 104 6 29 79 4 26 73 6 27 74 5 26 73 4 25 72 6 24 70 5 26 71 6 23 67 5 24 67 7 25 71 5 23 69 5 23 69 5 26 73 4 26 73 6 28 75 5 29 75 7 30 80 4 34 84 5 35 87 6 38 95 6 41 97 5 43 105 5 72 124 3 96 130 5 98 131 6 77 133 7 92 133 4 97 131 6 96 131 3 96 130 7 97 132 6 96 131 7 97 132 5 95 132 6 91 132 5 93 131 5 98 132 6 94 132 7 74 127 6 46 105 7 38 95 6 36 90 6 33 86 4 32 82 6 28 78 6 28 75 3 25 72 6 27 72 6 24 70 5 24 67 5 22 66 6 23 67 5 22 66 5 22 65 4 21 64 5 22 65 5 22 65 4 21 64 6 23 67 4 23 66 5 22 65 6 23 66 6 23 66 7 26 69 7 24 70 8 25 69 6 25 68 8 25 69 10 24 69 13 27 74 6 45 100 
3 17 56 5 20 59 6 23 67 6 25 67 6 24 70 5 27 76 7 29 78 6 30 76 5 32 85 7 34 87 6 37 91 6 39 93 5 66 121 6 84 132 7 69 128 4 63 119 7 92 133 6 82 131 6 62 119 5 81 131 5 86 131 4 85 132 6 82 132 7 78 132 6 68 125 6 51 110 4 35 89 6 29 79 7 27 77 4 25 72 4 25 72 4 26 73 6 24 70 4 25 70 2 23 68 5 23 69 5 23 69 5 24 66 5 24 67 6 25 68 6 24 70 6 24 70 5 26 73 6 27 74 5 29 77 4 30 79 4 34 84 7 38 93 7 40 94 4 43 102 7 59 117 5 95 130 6 96 131 5 78 131 5 86 133 5 95 132 4 96 133 6 96 131 6 96 131 5 98 132 7 95 133 6 96 133 6 96 131 6 96 133 6 94 132 5 88 130 7 92 131 7 92 131 5 86 131 6 58 115 6 37 91 5 35 87 6 32 83 4 30 79 5 29 77 4 26 73 4 27 71 4 25 70 6 25 68 5 24 67 5 24 67 4 23 65 5 24 64 5 22 65 5 22 65 5 22 65 4 21 64 5 22 65 4 21 64 5 22 65 5 22 65 5 22 65 7 24 67 8 23 66 9 23 68 7 24 68 6 25 68 8 25 71 10 24 69 11 26 69 
5 20 61 4 21 64 5 24 67 5 23 69 4 25 70 6 28 77 5 29 77 4 30 79 6 33 86 6 36 90 7 38 92 6 38 97 5 70 126 4 87 131 6 69 123 6 57 120 6 89 131 7 90 132 6 84 132 5 86 133 5 78 133 6 61 118 6 46 105 6 37 91 4 34 86 4 32 80 4 30 79 4 31 78 5 27 76 4 25 72 6 24 70 4 25 70 6 24 70 6 25 68 6 25 68 6 25 68 5 22 66 5 22 66 6 23 67 6 25 68 6 25 68 6 24 70 4 25 72 5 27 74 5 28 78 4 32 82 4 34 86 7 38 93 5 42 97 6 47 109 5 86 129 6 96 131 5 81 131 5 76 132 5 95 132 4 97 131 6 96 131 6 96 131 4 97 131 6 96 133 6 96 131 4 97 131 6 96 131 6 96 133 4 97 131 7 95 133 6 84 130 5 83 131 6 91 132 4 86 133 6 73 128 5 44 101 7 34 87 5 33 83 6 29 79 5 29 75 5 27 74 5 26 73 4 25 70 7 24 70 6 24 70 5 24 67 5 24 67 5 22 66 4 21 64 5 22 65 5 22 65 4 21 64 4 21 64 5 22 65 5 22 65 7 22 65 3 22 65 7 22 65 7 22 65 6 23 67 8 25 71 10 24 69 12 25 69 10 24 71 
6 21 62 5 22 65 4 25 68 6 25 68 4 25 72 6 30 78 4 30 79 4 30 79 6 33 86 7 37 91 8 37 95 7 39 96 6 70 131 7 90 132 4 71 123 4 53 112 7 88 133 8 84 133 6 61 118 6 46 107 5 40 98 7 38 95 7 34 89 5 35 87 4 34 88 5 31 80 6 28 77 5 28 78 4 26 73 5 23 69 5 24 67 3 24 69 5 24 67 4 23 66 6 20 65 4 21 65 8 23 66 6 21 64 6 23 66 6 23 67 6 23 67 5 26 71 4 25 72 5 28 72 5 28 78 5 33 83 8 35 90 4 41 96 6 42 100 6 67 121 7 95 133 6 90 134 5 69 131 7 90 134 7 95 131 4 96 133 8 96 132 6 96 131 7 97 132 6 96 131 4 97 131 6 96 133 4 97 131 6 96 131 6 96 133 7 95 133 6 82 131 6 59 127 4 58 118 7 79 129 4 85 132 6 84 132 7 58 115 5 35 89 5 31 80 4 30 79 5 29 77 5 27 76 5 27 74 6 27 74 5 26 71 4 25 70 6 24 70 5 24 67 6 23 67 6 23 66 4 21 64 3 20 63 4 21 64 6 21 64 6 21 64 6 21 64 6 21 62 6 21 64 5 23 63 4 21 64 6 23 66 9 22 64 11 24 68 11 24 66 
6 21 60 4 21 64 5 25 75 6 24 70 5 26 73 4 30 79 4 32 82 4 32 79 4 34 86 6 39 93 6 39 93 3 40 95 5 74 131 8 91 131 4 69 123 5 54 113 6 91 132 6 73 126 6 42 100 4 39 95 6 38 95 4 37 91 3 33 87 6 34 84 4 34 88 5 31 80 4 28 76 6 28 77 4 26 73 7 26 69 4 23 66 5 24 66 5 22 66 5 22 65 5 22 66 5 22 65 7 22 65 6 21 62 5 22 65 4 21 65 5 22 68 4 25 70 6 26 76 5 27 74 4 31 78 5 32 85 5 38 91 7 42 98 5 44 103 5 82 128 4 97 131 6 75 130 7 78 132 7 97 134 6 96 131 6 96 131 6 96 131 6 96 131 5 97 134 3 96 130 6 96 131 3 96 130 6 96 131 4 97 130 7 95 131 7 92 133 5 74 131 7 54 122 5 47 107 5 47 107 8 67 123 6 84 132 6 84 132 6 67 122 4 40 92 4 32 82 5 31 80 6 29 81 7 31 79 6 28 75 5 27 74 5 27 74 5 26 71 5 23 69 5 23 69 6 23 67 5 22 66 5 22 65 6 23 66 6 21 64 5 20 63 5 20 63 5 23 63 6 21 64 5 20 61 6 21 64 3 20 63 7 22 65 10 23 65 6 23 66 
