P3
100 50
255
12 47 69 14 46 69 13 45 68 11 46 68 12 44 67 15 41 66 16 36 63 15 36 65 25 35 62 60 46 63 13 29 62 20 29 60 15 28 62 17 27 62 14 24 60 12 25 59 14 24 59 17 21 58 17 21 58 15 19 54 17 19 57 15 19 57 15 19 57 15 19 56 16 20 57 19 19 57 18 21 56 16 18 56 29 23 57 63 34 56 16 18 56 20 20 56 17 19 57 22 20 57 14 18 56 15 19 56 13 18 56 15 19 56 14 18 55 16 18 56 17 19 57 15 19 56 13 19 55 14 16 55 14 19 57 18 21 56 17 19 57 20 20 56 15 19 56 55 31 57 42 27 58 17 19 57 17 19 57 17 19 57 19 19 57 14 18 56 15 19 56 15 19 56 20 20 58 13 18 56 20 20 56 15 19 56 16 20 58 11 19 58 17 22 64 18 22 69 19 23 71 19 21 82 37 26 86 65 35 95 15 21 95 20 23 104 19 23 110 21 24 119 15 23 121 24 29 147 25 29 152 25 29 152 22 28 152 24 28 151 23 29 151 17 26 147 8 20 120 8 20 120 6 19 111 6 18 104 5 18 97 4 18 91 4 17 85 3 17 80 4 17 72 3 16 68 1 15 64 2 15 57 1 16 57 2 15 57 2 16 55 2 16 55 2 16 55 2 16 55 
12 53 75 12 50 73 10 51 73 8 49 71 13 49 73 12 47 69 16 44 68 14 42 66 31 42 64 61 50 66 14 35 64 15 32 62 15 30 63 17 28 60 13 23 59 13 23 58 13 23 59 16 24 60 17 21 58 15 19 57 15 19 56 11 19 56 15 19 57 12 17 55 15 19 56 17 20 55 17 19 57 18 20 58 29 23 57 63 33 59 14 18 55 19 19 55 16 20 57 18 20 58 12 17 55 13 18 56 13 18 56 13 18 56 13 18 56 17 19 57 14 18 56 13 18 56 13 18 56 14 19 57 12 17 55 16 20 57 15 19 56 18 20 58 15 18 59 53 30 58 42 27 58 16 20 57 16 20 57 17 19 57 16 20 57 13 18 56 13 18 56 15 19 57 19 19 57 12 17 55 18 20 58 15 19 56 14 19 57 12 17 55 16 19 62 16 20 68 18 21 72 17 22 78 39 28 84 64 36 95 16 22 96 21 24 105 19 23 110 20 25 119 17 23 121 24 29 147 23 29 151 25 29 152 22 28 152 24 30 152 23 29 151 17 27 148 8 20 120 7 21 120 6 19 111 6 18 104 6 17 97 6 18 90 4 17 85 3 17 80 3 16 71 2 15 67 2 16 65 3 16 58 1 16 57 1 14 56 2 15 57 1 14 56 2 15 57 2 15 57 
12 61 78 11 60 77 10 58 78 10 55 76 15 53 76 16 52 74 14 50 72 13 45 68 33 48 69 63 55 68 14 38 66 15 36 65 13 33 60 18 29 61 12 27 60 11 24 58 14 24 60 14 22 58 19 23 60 15 19 56 18 21 56 15 19 56 15 19 57 16 18 57 15 19 56 17 19 57 20 20 56 18 21 56 28 22 56 64 31 58 14 20 56 18 18 54 17 19 57 21 21 57 14 18 55 15 19 56 14 18 56 15 19 56 15 19 56 17 20 55 15 19 56 17 19 58 11 19 56 15 19 56 13 18 56 18 21 56 17 19 57 18 21 56 17 20 55 55 30 59 43 28 57 17 19 57 19 21 59 18 21 56 19 19 55 14 20 56 15 19 56 15 19 56 21 21 57 14 19 57 20 20 56 15 17 55 15 19 56 15 19 57 18 21 64 18 22 69 20 24 72 17 22 80 40 26 85 64 34 94 18 22 96 20 23 102 19 23 110 21 26 120 16 22 120 24 29 147 26 31 151 26 30 153 23 29 151 25 30 150 23 29 151 17 28 146 10 19 120 8 20 120 9 20 112 7 19 103 5 18 97 5 19 90 4 17 85 2 16 79 4 17 72 4 17 69 2 16 65 2 15 57 1 16 57 2 15 57 3 16 58 2 15 57 2 15 57 2 15 57 
12 69 80 9 67 79 7 65 79 6 62 77 8 61 77 9 56 74 8 55 73 12 49 75 33 50 70 64 56 69 9 39 67 15 36 65 13 34 63 13 32 62 10 26 59 14 24 59 11 24 59 14 24 60 14 20 56 13 18 56 14 20 56 13 18 56 8 18 54 13 18 58 15 19 56 16 18 56 16 20 57 15 19 56 26 22 55 63 33 59 14 18 56 16 20 57 13 19 55 16 20 57 13 18 56 14 19 57 10 18 55 12 17 55 12 17 55 14 18 55 13 18 56 13 18 56 10 17 59 11 16 54 8 18 54 15 19 56 15 19 57 16 20 57 12 17 55 54 31 59 42 25 57 14 20 56 16 20 58 16 20 58 15 19 56 11 19 58 12 20 57 12 17 55 15 19 56 8 16 55 15 19 56 13 18 56 10 18 55 9 17 54 14 19 61 16 20 68 19 22 73 14 21 76 36 27 82 64 34 94 17 21 95 20 23 104 21 23 110 19 24 118 14 22 120 23 28 146 25 30 150 24 30 152 21 29 153 24 30 152 23 29 151 18 27 146 6 18 118 8 20 120 6 19 111 6 18 102 6 17 97 4 18 91 4 17 85 2 16 79 3 16 71 3 16 68 3 17 66 2 15 57 0 15 56 1 14 56 2 16 55 2 16 55 2 16 55 3 17 56 
12 69 80 12 70 81 10 68 80 9 65 80 9 65 78 9 62 78 10 55 76 13 51 74 27 53 70 65 57 72 12 42 68 14 38 64 13 34 63 11 32 63 9 28 60 14 24 59 13 23 58 10 23 58 13 23 59 12 20 57 15 19 57 13 18 58 9 17 56 10 18 55 14 19 57 14 18 55 15 19 56 15 19 56 24 20 55 60 31 59 13 18 56 16 18 56 14 20 56 16 20 57 11 19 56 12 17 55 10 18 55 13 18 58 12 17 55 15 19 56 13 18 56 13 18 56 10 18 55 13 18 58 11 16 56 16 20 58 16 20 57 17 19 57 13 18 58 54 29 58 41 26 57 15 19 57 15 19 57 15 19 56 15 19 56 13 16 57 12 17 57 13 17 55 17 19 57 10 18 55 15 19 56 11 19 56 12 17 55 12 17 55 15 20 62 16 20 67 16 22 70 16 21 77 35 27 84 64 36 95 14 20 94 21 24 105 19 23 110 21 24 117 13 21 119 23 28 148 21 27 151 25 30 150 20 28 152 25 29 152 23 29 151 18 27 148 7 21 120 7 20 116 8 19 111 6 18 102 4 17 96 4 18 91 4 18 83 3 17 78 4 17 72 3 16 68 3 17 64 2 15 57 2 15 57 2 15 57 2 15 57 2 15 57 2 15 57 1 14 56 
9 109 107 10 106 104 6 101 103 6 100 100 8 96 98 12 91 95 12 87 93 11 84 90 22 83 86 36 81 84 7 52 71 15 41 66 14 35 64 13 32 64 13 30 60 12 26 61 14 24 59 14 24 59 13 23 58 13 21 57 15 19 57 11 19 56 10 18 55 12 20 57 14 18 56 15 19 56 15 19 54 15 19 56 27 22 54 61 33 58 10 18 55 15 19 56 15 19 56 17 19 57 12 17 55 13 18 56 10 18 55 13 18 56 12 20 56 15 19 56 13 17 55 13 18 56 10 18 55 13 18 56 10 18 57 15 19 57 13 19 55 16 18 56 12 17 55 55 30 59 41 26 57 15 19 56 15 19 56 16 18 56 14 18 55 10 18 55 12 20 59 13 18 56 18 20 58 10 18 55 16 20 57 11 19 56 10 18 55 10 18 55 14 19 61 18 20 68 18 21 72 14 21 76 36 27 84 65 35 95 16 23 95 18 24 102 19 23 110 19 24 118 15 21 119 26 28 147 24 29 149 25 29 152 20 28 152 24 28 151 24 28 151 17 26 147 8 20 120 7 19 117 8 18 113 6 18 100 7 18 98 5 19 92 3 17 82 3 17 78 5 18 73 3 16 68 2 16 63 2 15 57 1 14 56 2 15 57 2 15 57 2 15 57 1 14 56 2 15 57 
12 110 121 11 109 120 7 109 114 11 108 114 9 108 113 13 109 107 13 109 105 14 108 107 13 109 105 12 109 98 12 68 81 15 41 66 13 37 65 13 34 61 13 30 60 14 29 58 11 25 60 15 23 59 15 23 59 14 22 58 16 21 59 14 20 56 12 20 57 12 20 57 16 22 58 18 22 57 16 20 57 17 21 59 29 23 59 64 34 60 15 20 60 18 21 56 17 21 58 20 20 56 13 19 55 15 19 57 14 19 57 14 18 56 14 19 57 17 19 57 15 19 56 16 20 57 13 19 55 13 19 55 13 18 56 18 21 56 16 19 54 20 20 56 16 18 56 56 32 58 41 26 57 16 20 57 18 21 56 16 20 57 18 18 56 14 18 56 14 19 57 15 19 56 20 20 58 13 18 56 18 21 56 15 19 57 15 19 56 13 18 56 17 20 63 18 22 69 19 23 71 17 22 78 36 27 82 64 36 95 16 22 96 20 23 104 19 25 111 18 22 119 15 21 119 25 28 145 23 29 153 26 30 153 23 29 153 23 29 149 23 29 151 17 26 147 7 21 120 7 19 117 5 18 110 4 19 102 5 18 97 4 18 91 4 18 83 3 17 80 4 17 72 3 16 68 2 16 63 2 15 57 2 15 57 2 15 57 2 15 57 2 15 57 2 15 57 1 14 56 
15 108 123 12 110 121 7 109 114 10 107 114 14 107 115 11 109 110 14 109 105 15 109 108 13 109 105 16 95 92 14 50 72 15 43 67 13 37 63 14 35 64 13 32 64 14 29 62 12 27 60 17 27 62 18 24 60 19 25 61 18 24 60 18 24 60 15 23 59 17 23 59 17 23 59 19 22 57 19 23 60 19 23 60 31 24 57 63 35 60 17 23 59 19 21 59 18 22 59 21 21 59 17 21 58 17 21 58 14 18 55 16 18 56 17 19 57 20 20 56 17 19 57 18 20 58 14 18 55 16 18 56 15 19 56 22 20 57 20 20 56 22 20 57 18 21 56 59 30 58 43 28 57 21 19 56 20 20 58 20 20 56 20 20 58 16 18 56 15 19 56 16 19 54 22 20 57 15 19 56 22 22 58 16 18 56 16 18 56 16 20 57 18 21 64 20 21 67 21 23 71 20 20 80 41 28 84 65 36 94 19 23 96 20 23 104 20 24 111 19 24 116 17 23 121 25 27 146 24 28 151 24 29 147 23 29 151 24 30 152 23 29 151 17 26 147 8 20 120 8 20 120 6 19 111 6 18 102 5 18 97 6 18 92 4 17 85 3 17 80 4 17 72 4 17 69 2 16 65 1 14 58 2 15 57 3 16 58 2 15 57 2 15 57 1 14 56 3 16 58 
13 111 124 13 109 123 8 109 119 8 110 115 11 109 118 13 108 114 13 109 108 14 108 107 16 106 104 53 70 80 12 47 69 13 43 67 16 40 66 12 36 62 13 32 62 15 30 61 14 27 61 17 27 62 16 26 61 15 25 60 16 24 60 14 24 60 14 24 60 14 25 57 15 26 58 20 26 60 18 24 60 18 24 60 27 26 58 62 36 61 15 23 59 20 24 61 17 22 60 18 22 59 18 22 59 17 21 59 15 19 57 17 19 57 18 20 58 19 21 59 18 20 58 17 19 57 16 20 57 17 19 57 15 19 54 20 20 56 19 22 57 20 20 56 17 21 56 56 31 60 43 27 56 17 19 57 21 21 57 21 21 57 20 20 56 15 19 56 17 19 57 17 19 57 21 21 57 14 18 55 21 21 57 17 20 55 17 19 57 13 21 57 16 19 60 18 22 67 19 22 73 20 22 79 38 27 83 64 36 94 18 22 96 20 23 104 20 21 111 20 25 117 18 22 121 24 29 147 25 29 152 25 29 152 22 28 150 25 30 150 23 29 151 18 27 148 7 19 119 9 21 121 8 19 109 6 18 104 5 18 97 5 19 94 4 18 83 2 16 79 3 16 71 3 16 68 3 17 64 2 15 57 2 16 55 1 14 56 2 15 57 2 15 57 3 16 58 2 15 57 
14 110 124 13 109 123 7 109 121 8 109 117 13 110 119 11 108 114 13 108 110 13 108 102 30 88 90 62 60 73 12 47 69 13 43 67 15 41 66 15 39 67 14 33 63 13 30 60 13 29 62 15 28 62 18 29 61 17 28 60 18 27 56 16 24 60 15 25 60 15 25 60 19 30 62 18 29 59 18 29 59 18 28 63 30 29 61 62 41 60 16 24 60 18 27 60 17 23 59 18 22 59 17 23 59 16 20 57 14 18 55 17 19 57 16 18 56 21 21 57 17 19 57 17 19 58 16 18 57 15 17 55 16 18 56 20 20 56 20 20 56 21 21 59 18 18 54 58 32 59 42 29 57 18 20 58 20 20 56 21 21 55 19 18 58 15 19 56 16 20 57 17 19 57 21 19 56 14 18 56 21 21 57 17 19 57 17 19 57 15 19 57 20 22 63 21 22 70 19 23 71 20 22 79 39 29 82 63 33 93 15 21 95 21 24 105 21 23 110 21 24 117 16 22 120 24 29 147 24 29 149 25 29 152 25 31 153 24 30 152 23 29 151 16 26 149 7 19 119 7 19 117 8 19 108 7 17 104 7 18 98 5 17 89 4 17 85 3 17 80 4 17 72 2 15 67 2 16 63 2 15 59 2 15 57 3 16 58 2 16 55 2 16 55 1 15 54 2 16 55 
15 108 123 13 109 125 4 111 121 7 110 119 12 109 125 13 109 123 11 109 110 21 95 96 34 67 82 67 61 75 19 51 72 23 48 70 24 45 66 25 41 66 23 34 62 24 35 65 24 31 60 23 32 61 23 32 61 23 32 61 26 31 60 24 29 61 23 29 61 24 31 60 25 32 61 25 30 60 25 30 62 25 32 61 32 32 60 64 43 62 25 28 63 27 28 59 23 26 57 26 25 59 22 27 59 21 24 57 21 21 55 23 22 56 22 20 57 27 21 57 23 22 56 23 22 56 23 21 58 24 23 57 23 22 56 27 23 56 26 22 55 25 21 56 26 22 57 57 31 58 51 31 59 24 23 55 27 23 58 28 22 58 25 21 56 22 22 58 23 22 56 23 22 56 29 23 57 22 20 57 27 23 58 24 23 57 23 21 58 22 22 58 25 23 60 27 24 67 28 25 72 28 25 82 42 29 85 70 37 92 26 24 97 29 26 103 30 26 110 30 26 120 26 27 117 23 28 146 24 28 151 25 30 150 23 29 151 25 30 150 24 30 152 18 27 148 8 20 120 7 19 119 6 19 111 6 17 106 5 17 99 4 18 91 4 18 83 3 17 78 4 17 72 2 15 67 3 17 64 3 16 58 2 15 57 2 15 57 1 15 54 1 15 54 2 16 55 2 16 55 
14 110 122 13 109 123 12 110 123 9 110 120 12 110 121 14 108 116 22 102 101 69 84 89 84 74 83 90 64 75 84 63 72 83 62 71 84 58 67 85 59 68 85 51 65 84 50 64 81 47 63 85 49 63 85 49 63 85 48 65 85 46 64 84 45 63 84 45 64 85 46 65 84 47 64 84 51 62 85 46 64 85 46 64 89 48 64 91 51 62 86 45 63 84 45 63 85 43 63 85 43 63 83 40 59 84 39 59 83 40 59 84 39 59 85 38 58 85 41 58 84 37 57 83 38 59 83 38 59 83 38 59 83 38 58 85 41 58 84 39 59 87 40 60 82 39 59 93 42 57 85 41 58 83 38 59 84 39 59 84 39 60 83 38 59 81 37 60 86 38 60 81 37 60 84 39 59 79 37 61 84 39 60 81 38 57 80 36 61 77 38 59 82 40 62 83 39 62 75 40 72 76 40 78 84 43 85 86 44 92 79 39 99 85 43 106 85 43 106 85 45 107 76 42 103 34 31 146 25 29 152 26 28 149 22 28 150 25 30 150 22 28 150 18 27 148 10 19 122 7 19 119 6 20 109 6 18 102 5 18 97 5 17 91 4 18 83 3 17 78 4 17 72 3 16 68 2 16 63 2 15 57 2 15 57 2 15 57 2 15 57 2 15 57 2 15 57 2 15 57 
12 108 122 14 110 124 6 110 121 8 111 118 13 109 121 12 103 104 11 74 81 11 64 80 29 61 74 62 60 73 9 47 68 11 46 68 14 42 66 15 41 66 14 35 62 13 34 63 13 34 63 13 34 63 13 32 62 13 34 65 12 33 64 13 29 62 11 30 62 14 30 63 13 32 62 12 33 64 13 32 64 13 29 62 27 32 61 61 42 62 14 29 62 18 29 61 17 27 62 15 25 60 14 24 60 14 22 59 10 18 55 14 19 57 14 19 57 16 20 57 14 18 55 14 18 56 14 19 57 14 18 56 12 17 55 17 20 55 17 19 57 18 21 56 16 18 56 56 32 58 43 27 56 16 20 57 17 19 57 17 20 55 17 20 55 13 18 56 15 19 57 15 19 57 18 20 58 11 19 56 18 20 58 14 20 56 12 17 55 13 18 56 15 20 62 16 20 67 19 23 71 17 22 78 38 27 83 65 35 95 15 22 94 20 23 102 21 23 110 18 23 117 16 22 120 25 27 146 23 28 148 24 29 149 23 29 151 25 29 152 23 29 151 18 27 146 8 20 120 7 19 117 8 19 111 6 18 102 5 18 96 6 18 92 4 18 83 5 16 78 4 17 72 4 17 69 1 15 62 2 15 57 2 15 57 1 14 56 2 15 57 1 14 56 2 16 55 2 15 57 
13 109 123 13 109 123 10 107 123 11 109 118 13 108 114 9 84 87 11 69 80 9 65 78 29 62 77 63 61 75 14 48 73 10 45 67 15 43 65 16 40 66 15 36 65 13 37 63 16 37 64 16 37 64 15 36 63 14 35 64 15 36 65 15 36 65 14 35 64 14 35 64 15 36 65 13 37 63 17 32 61 17 32 61 25 34 63 60 41 61 16 29 61 22 28 60 19 30 62 19 28 61 15 23 59 18 24 60 15 23 59 18 22 59 18 22 59 20 20 56 17 20 55 18 20 58 17 19 57 17 19 57 16 18 56 22 21 55 21 21 57 23 21 58 20 20 56 60 32 57 43 27 56 22 22 56 22 21 55 20 20 56 21 21 57 17 20 55 17 20 55 20 20 56 22 20 57 15 19 56 24 22 59 17 19 57 18 18 56 16 18 56 19 22 65 22 23 69 20 24 72 20 22 79 38 27 83 66 35 94 19 23 96 20 23 102 19 23 110 22 25 120 17 23 121 25 27 146 25 30 150 25 30 150 22 28 150 24 29 149 23 29 151 19 28 147 9 21 119 9 21 119 8 19 111 5 17 103 5 18 97 3 17 90 4 18 83 5 16 78 3 16 71 3 16 69 2 16 65 2 15 57 2 15 57 2 15 57 2 15 57 1 14 58 2 15 57 2 15 57 
13 109 123 12 110 123 9 110 122 8 110 115 6 92 93 9 72 81 11 69 80 11 63 77 30 62 77 64 61 72 11 47 69 13 45 68 15 43 67 15 41 64 15 39 67 14 38 64 14 35 64 15 39 67 13 37 63 13 39 64 16 37 66 14 38 66 14 38 66 13 37 65 15 36 65 13 37 65 15 36 65 15 36 65 27 36 65 48 45 66 15 31 64 19 30 60 17 28 60 18 29 61 12 25 59 14 24 59 13 23 58 16 20 57 17 23 59 18 21 56 15 19 56 16 20 57 14 18 55 15 19 56 15 19 56 19 19 55 17 19 57 20 20 56 15 19 56 60 32 57 43 28 57 18 20 58 20 20 56 20 20 56 21 21 57 14 20 56 15 19 56 17 19 57 20 20 54 15 19 56 20 20 56 15 19 56 15 19 56 13 19 55 17 20 61 17 21 68 20 22 71 20 22 79 38 28 81 64 35 93 16 22 96 20 23 100 21 23 110 20 23 118 16 25 120 25 27 146 25 30 150 23 29 149 23 27 150 25 30 150 23 29 151 17 26 147 8 20 120 7 19 119 8 19 109 6 18 102 5 18 96 4 16 90 4 17 85 5 16 78 3 16 71 4 17 69 3 17 64 2 15 57 2 15 57 1 14 56 2 15 57 1 14 56 2 16 55 2 15 57 
15 108 123 15 109 121 10 108 117 9 99 99 7 78 84 10 70 80 12 68 81 8 61 77 32 58 75 63 61 74 14 46 69 13 45 68 14 44 68 15 43 67 15 39 65 15 41 66 16 40 66 15 41 66 15 41 66 16 42 67 16 40 64 15 39 65 16 40 66 14 38 64 15 41 66 15 41 66 15 39 65 13 49 71 14 79 85 15 96 90 14 52 73 20 29 60 19 30 62 20 29 62 15 25 60 15 23 59 14 22 58 18 22 59 19 23 60 20 20 58 17 19 57 18 21 56 15 19 56 17 19 57 16 20 57 22 20 57 21 21 57 22 20 57 19 19 55 61 32 60 42 27 56 21 21 57 23 21 58 21 19 56 23 21 58 16 18 56 17 19 57 20 20 58 22 20 57 16 20 57 22 21 55 19 22 57 16 18 56 16 18 56 19 20 64 21 22 68 21 23 72 21 22 79 38 29 86 66 35 94 18 22 95 20 23 102 20 25 109 22 25 120 16 22 118 25 28 145 25 29 152 25 30 150 23 29 151 25 30 150 23 27 150 17 26 145 8 20 118 7 19 119 8 19 109 6 17 106 6 19 97 3 17 90 3 17 82 5 16 78 4 17 72 3 16 68 2 16 63 2 15 57 1 14 56 2 15 57 3 16 58 2 15 57 3 16 58 2 15 57 
12 108 122 9 110 122 10 104 106 6 81 86 8 77 82 11 69 80 10 68 79 8 59 76 31 60 76 62 60 73 10 48 69 14 46 67 11 46 68 13 45 68 7 43 67 15 43 67 9 40 68 16 42 67 13 43 67 16 42 69 15 43 67 11 41 65 11 41 67 12 42 68 14 42 66 13 48 67 12 72 82 11 100 94 13 110 99 12 108 97 10 48 71 14 31 59 12 29 59 15 28 60 13 23 58 12 25 59 11 21 57 15 20 58 14 19 57 16 20 57 13 19 55 12 17 55 10 18 57 12 17 55 10 18 55 17 19 57 14 18 55 17 19 57 14 18 56 55 30 59 42 27 58 17 19 57 15 19 56 16 20 57 16 18 57 10 18 55 14 19 57 13 17 54 16 18 56 10 18 55 17 19 57 14 18 56 12 17 55 12 17 55 15 20 62 18 21 66 19 21 70 14 20 78 37 26 82 64 35 93 17 21 95 20 23 102 19 23 110 18 23 117 16 22 120 24 29 149 24 29 149 24 29 149 19 27 151 24 28 151 22 28 150 17 26 145 8 20 120 8 20 118 7 18 110 5 17 101 5 18 97 5 17 91 4 17 85 5 16 78 4 17 72 3 16 69 2 16 65 3 16 58 1 14 56 1 14 56 1 14 56 2 15 57 1 14 56 2 15 57 
11 109 122 12 105 112 5 84 88 7 77 85 11 71 81 11 70 78 10 66 79 8 60 74 29 61 76 62 60 73 10 51 71 13 48 70 13 45 68 10 45 67 11 45 70 13 45 70 10 44 69 11 46 68 12 44 67 13 45 68 13 45 66 10 45 65 12 44 67 12 50 71 10 77 83 10 101 92 13 108 100 13 109 98 16 98 92 44 64 75 13 34 63 14 31 61 15 29 58 16 27 59 13 26 61 13 23 58 13 23 58 13 23 58 14 19 57 14 18 55 12 18 54 13 18 56 12 17 57 13 18 56 12 17 55 18 20 58 16 20 57 17 19 57 16 18 57 59 30 58 42 27 58 16 20 57 19 19 55 17 19 57 16 20 58 12 17 55 12 17 55 15 19 56 18 20 58 11 16 54 18 20 58 14 19 57 13 18 56 10 18 55 16 19 62 18 20 68 18 21 72 17 22 78 36 27 82 64 34 94 17 21 95 21 24 103 19 24 108 19 24 118 15 21 117 23 30 146 23 29 149 25 30 150 20 29 150 24 29 149 25 29 152 18 27 148 7 19 119 7 19 117 8 19 111 6 18 102 6 19 97 3 17 90 3 16 84 5 16 78 3 16 71 2 15 67 2 16 63 3 16 58 2 15 57 2 15 57 2 15 57 3 17 56 2 15 57 2 15 57 
10 107 114 8 87 91 6 77 81 4 72 81 8 71 80 10 68 79 11 62 79 8 56 76 29 56 73 63 59 73 10 48 71 14 48 73 13 45 68 13 45 68 13 45 68 13 45 66 13 45 68 14 44 68 10 45 67 13 45 68 11 46 66 11 49 70 12 72 82 13 100 94 12 108 97 13 109 98 13 109 98 11 91 90 27 54 71 56 47 64 12 33 64 14 31 61 13 30 60 15 28 60 14 24 59 14 24 59 12 22 58 10 20 56 12 17 55 14 18 55 13 18 56 11 19 56 11 16 54 11 19 56 10 18 57 15 19 56 14 20 56 16 20 58 13 18 56 54 31 59 41 28 58 14 18 55 15 19 56 16 20 57 14 18 55 12 17 57 10 18 57 13 18 56 15 19 56 9 17 56 15 19 57 13 18 56 12 17 57 9 17 54 13 18 60 17 21 68 17 21 69 14 20 78 37 28 83 64 35 93 16 22 96 20 23 102 20 25 109 18 23 117 15 21 119 23 28 146 23 28 148 24 29 149 19 29 150 24 28 151 22 28 150 17 26 145 8 20 120 6 18 116 7 18 110 6 18 104 5 18 96 6 18 92 3 17 82 5 16 78 4 17 72 4 17 69 2 16 63 2 15 57 2 15 57 2 16 55 2 15 59 3 16 58 2 15 59 2 15 57 
7 93 94 3 76 83 6 73 82 9 69 79 10 70 80 10 63 77 12 59 75 9 56 74 29 56 73 63 59 74 13 51 74 16 50 75 15 47 70 14 50 72 13 45 68 12 47 69 13 48 70 15 50 72 15 50 72 13 54 74 13 69 82 11 97 94 11 108 97 14 109 101 13 109 98 12 109 98 13 89 89 14 51 69 29 39 64 58 47 63 13 34 63 16 31 60 19 28 59 19 30 60 16 27 59 14 22 58 15 23 59 16 22 58 16 22 58 18 20 58 16 18 56 16 18 56 14 18 56 17 19 57 15 19 56 20 20 56 19 19 57 20 20 56 19 19 57 59 30 58 42 27 56 20 20 56 19 19 55 21 19 56 19 19 57 15 19 56 15 19 57 16 18 56 21 21 59 14 18 56 21 21 57 16 18 56 16 20 58 14 18 56 18 20 61 19 21 70 19 23 71 21 22 79 37 28 83 64 34 94 17 21 95 20 22 99 19 24 108 21 24 117 16 22 118 23 28 145 25 30 150 25 30 150 21 27 149 24 29 149 22 28 150 18 27 146 8 20 120 9 21 121 8 19 109 6 18 104 5 18 96 5 17 91 4 17 85 5 16 78 2 15 70 3 16 68 2 16 65 2 15 57 2 15 57 2 15 57 2 15 57 3 17 56 2 15 57 2 15 57 
8 77 84 10 70 80 10 70 81 9 67 79 8 66 78 10 61 78 9 58 75 9 56 76 28 55 72 63 59 73 12 53 75 15 51 75 13 49 73 15 51 73 9 47 68 13 49 71 11 47 71 14 50 72 14 66 80 11 96 93 12 108 97 10 110 100 13 109 98 13 109 98 12 108 97 12 83 89 13 48 70 14 40 65 28 38 65 58 47 64 12 33 62 17 31 60 15 28 60 18 29 61 14 24 59 14 22 58 12 22 58 16 22 58 15 21 57 17 21 56 15 19 56 15 19 54 14 18 56 15 19 56 13 18 56 18 20 58 16 18 56 21 19 56 16 18 56 59 33 58 42 27 58 19 19 57 20 20 58 18 21 56 19 19 57 12 17 55 14 20 56 16 18 56 20 20 56 14 18 56 20 20 56 14 18 53 15 19 56 14 18 55 16 21 63 19 21 69 19 23 70 16 21 77 39 28 84 64 36 95 15 21 95 22 23 103 19 24 108 21 24 119 17 23 119 24 29 147 24 29 149 25 30 150 22 28 150 23 29 151 23 28 148 19 25 145 7 19 117 9 19 117 8 19 111 7 17 104 6 17 96 6 18 90 4 18 83 3 17 78 4 17 72 3 16 68 2 16 63 2 15 57 2 16 55 2 15 57 3 16 58 3 16 58 2 15 57 2 15 57 
11 71 81 11 69 80 7 67 78 6 62 77 8 61 77 11 60 77 11 58 76 10 55 74 28 55 72 62 60 73 9 52 71 14 50 74 12 50 73 15 51 75 6 51 72 12 50 73 8 64 79 11 91 92 15 107 104 14 109 101 12 109 100 13 109 98 10 110 102 15 108 98 10 77 83 12 49 68 15 42 69 14 40 65 27 37 64 58 46 66 13 34 63 16 31 62 14 29 60 17 28 60 14 24 59 13 23 58 10 20 56 13 17 55 13 18 56 16 20 57 13 18 56 14 19 57 10 18 55 13 19 55 12 17 55 17 19 57 17 19 57 17 19 58 15 19 56 58 32 57 41 26 57 16 20 57 17 19 57 17 20 55 16 18 56 13 18 56 10 18 55 13 19 55 18 20 58 10 18 55 15 19 56 13 19 55 12 17 55 12 17 55 16 19 62 18 20 68 18 22 70 16 21 77 39 28 86 64 34 94 15 21 97 21 22 102 21 23 110 20 25 119 16 21 121 24 29 147 23 29 149 25 30 148 21 30 149 24 29 149 20 29 150 17 26 145 8 20 118 7 19 117 8 19 111 6 18 104 7 18 97 5 19 90 3 17 82 4 18 79 4 17 72 3 16 68 2 16 63 3 16 58 2 16 55 1 14 56 2 15 57 2 15 57 2 15 57 1 14 56 
11 69 80 10 66 79 8 61 77 8 59 76 9 58 75 9 58 75 10 55 74 10 51 73 29 55 72 63 59 73 10 51 71 14 50 74 14 52 73 15 51 73 10 63 77 11 89 93 14 106 105 14 109 105 11 106 102 10 102 97 14 109 103 13 109 98 13 104 95 14 68 80 11 47 69 13 44 64 16 40 66 14 40 65 28 38 65 59 46 63 16 32 65 22 28 60 19 28 61 19 28 61 15 23 59 14 22 58 14 22 59 18 20 59 17 19 57 20 20 58 17 19 57 18 20 58 14 18 55 16 18 56 15 19 56 21 21 57 19 19 55 20 20 56 18 20 58 60 32 57 43 27 56 21 21 57 21 21 57 21 21 57 20 20 56 16 20 58 16 20 57 17 19 57 22 20 57 14 18 56 21 21 59 15 19 56 16 18 56 16 18 56 19 20 64 19 22 67 20 24 72 19 21 78 38 27 83 64 36 95 15 21 95 20 23 102 18 23 107 22 25 118 15 24 119 23 28 146 24 29 149 24 29 147 21 27 149 25 30 150 23 29 149 17 26 145 7 19 119 8 20 118 7 18 108 6 18 104 6 17 97 5 17 89 4 18 83 3 17 78 4 17 72 3 16 68 2 16 63 3 16 58 2 16 55 2 15 57 3 16 58 3 16 58 2 15 57 3 16 58 
10 66 79 8 64 79 3 61 75 7 60 76 7 58 75 9 58 75 7 58 77 8 55 75 28 55 72 60 58 71 9 51 73 6 51 72 7 56 73 9 87 89 11 110 105 9 108 103 8 109 101 9 87 91 10 81 87 12 109 102 14 109 103 11 100 96 9 56 74 11 45 70 13 45 66 14 42 64 16 40 66 15 36 65 25 37 61 57 44 62 11 30 62 14 29 60 14 27 59 14 24 59 14 24 59 12 20 57 10 18 57 10 18 55 12 17 55 14 18 56 10 18 55 10 18 55 9 17 54 10 18 55 9 19 55 15 19 56 14 18 56 16 18 57 12 17 55 59 30 58 40 27 57 11 19 55 16 18 56 16 20 57 14 18 56 11 16 56 9 17 56 12 17 55 15 19 57 8 17 56 14 18 56 10 18 55 9 17 56 9 17 56 13 18 58 16 20 68 17 21 68 14 20 78 35 26 81 63 35 94 15 21 95 19 22 101 18 22 109 19 23 120 15 21 117 23 28 146 23 29 151 28 30 151 19 28 149 24 29 149 21 27 151 17 28 146 8 20 120 7 19 117 6 20 109 7 17 102 5 18 97 8 17 92 3 17 82 3 17 78 4 17 72 4 17 69 1 15 62 2 15 57 2 16 55 2 15 57 2 15 57 2 15 57 3 16 58 1 14 56 
9 65 78 6 64 76 3 61 75 5 61 78 10 58 78 11 58 76 11 60 77 9 58 75 29 55 72 62 58 72 9 54 73 10 84 87 13 108 102 14 109 105 6 110 103 7 96 94 7 63 78 11 92 93 13 107 106 14 109 105 12 94 92 9 52 71 13 45 70 13 45 66 14 44 68 15 41 64 16 40 66 14 35 64 28 35 63 61 42 62 14 29 60 18 29 61 15 28 60 16 25 58 14 24 59 14 24 59 12 17 55 15 19 57 14 18 55 15 19 56 15 19 57 14 18 56 12 17 55 13 18 56 11 16 54 16 19 54 14 18 55 18 18 56 14 16 54 60 31 59 42 27 58 17 19 57 17 19 57 15 19 56 15 19 56 11 19 56 13 18 56 15 19 57 17 20 55 13 18 58 17 20 55 13 18 56 13 18 56 12 17 55 15 20 62 18 21 64 18 20 69 16 21 77 38 28 81 63 35 94 16 23 95 20 23 104 19 24 108 21 24 117 15 21 117 25 27 146 25 30 150 26 28 149 22 28 150 24 29 149 20 29 148 17 26 145 7 19 119 8 20 118 7 18 110 6 18 102 5 16 95 4 16 90 4 18 83 3 17 78 4 17 72 3 16 68 1 15 62 3 16 58 2 16 55 2 15 57 2 15 57 2 15 57 1 14 56 2 15 57 
9 65 78 4 62 76 2 60 74 4 62 76 8 59 76 10 57 75 10 59 76 9 57 77 25 58 75 40 84 85 10 105 99 13 109 107 12 108 104 12 103 98 5 69 79 9 60 77 8 100 97 10 110 102 14 109 105 8 83 86 12 47 69 10 44 69 13 45 68 8 42 67 11 41 67 15 39 65 13 37 65 14 35 64 27 34 63 61 42 62 14 30 63 15 28 62 13 23 58 13 23 59 10 20 56 10 18 55 9 17 56 12 17 55 12 17 55 14 20 56 13 18 56 12 17 55 10 18 57 12 17 57 10 18 57 17 19 57 15 19 57 15 19 56 12 20 57 57 31 58 40 25 56 15 21 57 16 18 56 15 19 56 14 20 56 8 18 54 11 19 56 12 17 55 15 19 56 9 17 54 14 18 55 14 19 57 10 18 55 9 17 54 12 20 59 17 19 67 17 21 69 14 21 76 35 26 81 63 35 93 17 21 95 20 23 102 19 23 110 18 23 117 15 21 119 23 28 146 23 27 150 27 29 150 19 28 149 24 29 149 22 28 148 17 26 147 8 20 122 7 19 117 6 20 109 6 18 102 5 18 96 5 17 91 4 18 83 3 17 78 3 16 71 3 16 68 3 17 64 3 16 58 2 16 55 1 14 56 2 15 57 2 15 57 2 15 57 1 14 56 
7 65 79 8 61 77 7 58 75 7 58 75 7 58 75 10 59 76 10 59 76 8 72 82 10 98 99 13 107 106 13 107 106 13 105 102 11 80 87 15 53 74 9 67 78 13 105 102 14 108 107 14 109 105 12 79 87 15 51 73 16 51 73 14 44 68 13 45 68 15 43 67 15 39 65 16 40 68 15 36 63 15 35 62 29 34 63 59 42 61 17 28 60 19 28 59 19 25 59 20 26 60 15 23 59 16 20 57 15 19 57 17 19 57 17 19 57 20 20 56 16 18 56 17 19 57 15 19 56 17 19 57 15 19 56 20 20 54 20 20 56 20 20 56 17 19 57 61 33 58 43 27 56 20 20 56 20 20 56 20 20 56 20 20 56 15 19 57 17 19 57 16 19 54 21 21 55 15 19 56 22 21 53 19 19 57 16 18 56 15 19 56 18 21 62 20 23 68 20 22 71 20 22 79 38 28 81 66 37 95 18 22 95 21 22 102 21 23 110 21 24 117 17 23 119 25 27 146 25 30 150 25 30 148 22 28 150 25 30 148 24 29 149 19 25 145 8 20 120 9 18 119 7 18 108 6 18 102 6 17 96 5 17 89 3 17 82 3 17 78 4 17 72 4 17 69 2 16 63 2 15 57 1 15 54 2 15 57 2 15 57 2 15 57 1 14 56 2 15 57 
9 65 78 6 64 76 5 61 76 6 59 75 7 63 78 8 72 82 11 97 96 13 108 102 9 108 103 13 102 100 9 82 88 10 59 76 11 60 75 12 75 84 10 110 102 13 107 106 8 103 97 12 70 81 16 50 75 14 49 71 12 47 69 13 45 66 15 41 66 15 41 66 14 38 62 13 37 63 15 34 64 16 29 61 27 32 61 61 42 62 17 28 60 18 27 60 18 24 58 19 22 57 15 21 57 16 20 57 13 18 56 14 20 56 16 20 57 20 20 56 17 19 57 16 18 56 14 18 55 15 19 56 15 19 56 20 20 54 18 21 56 20 20 56 16 18 56 60 32 57 43 28 57 18 21 56 20 20 56 18 21 56 19 19 57 15 19 57 15 19 56 18 20 58 21 19 56 14 20 56 20 20 56 16 22 58 15 19 56 15 19 56 18 20 61 19 22 67 18 22 70 20 22 79 37 28 81 64 35 93 18 22 95 21 22 102 21 23 108 21 24 117 18 24 120 23 28 145 24 29 149 25 30 150 22 28 148 24 29 149 24 29 149 20 26 146 8 20 120 9 18 119 8 19 109 6 18 102 6 17 96 5 19 90 4 18 83 3 17 78 4 17 72 3 16 68 2 16 63 2 15 57 2 16 55 2 15 57 2 15 57 2 15 57 2 15 57 2 15 57 
8 64 77 6 64 78 8 61 77 5 72 81 7 96 94 13 110 103 13 108 104 12 104 101 8 87 91 10 63 77 10 57 75 12 60 80 11 89 93 13 108 104 13 109 105 11 95 97 7 59 73 15 51 73 16 51 73 11 46 68 13 45 66 15 43 67 15 41 66 14 40 65 16 36 63 15 36 63 17 31 60 19 28 59 32 33 61 60 41 61 18 27 60 19 25 59 19 21 59 21 21 57 16 20 57 17 20 55 15 19 57 19 19 57 18 20 58 20 18 55 18 18 54 19 19 57 16 18 56 19 19 57 16 20 57 21 21 55 21 21 57 22 21 55 21 21 59 58 32 59 42 27 58 21 21 57 21 21 57 24 20 57 19 22 57 16 18 56 17 19 57 19 19 57 22 20 57 15 19 56 21 19 56 17 19 58 17 19 57 17 19 57 19 20 64 20 22 70 19 23 71 21 23 80 40 27 83 64 34 94 17 24 96 21 22 104 21 23 110 21 24 117 18 22 119 25 28 145 25 30 150 25 30 150 23 27 150 25 30 150 25 30 150 18 27 146 8 20 118 8 20 118 6 20 109 7 19 103 3 16 94 5 17 91 4 17 85 4 15 79 4 17 72 3 16 68 3 17 64 2 15 57 3 17 56 2 16 55 2 15 57 2 15 57 2 15 57 2 15 57 
8 64 79 7 71 81 6 92 93 4 109 105 7 110 107 9 105 103 10 89 93 9 69 79 9 58 75 9 58 73 7 65 79 10 96 97 10 109 104 12 108 104 7 87 88 8 55 73 6 48 70 9 45 67 13 45 66 12 44 65 14 42 66 16 40 66 14 35 62 14 35 64 13 34 63 17 30 62 18 29 61 18 29 61 27 31 60 61 39 60 16 24 60 16 22 58 16 22 58 19 22 57 14 19 57 14 17 58 13 17 55 14 18 56 12 18 54 20 20 58 15 19 56 14 18 56 11 16 54 13 18 58 11 16 54 17 19 57 17 19 57 19 19 57 15 17 55 59 31 56 39 25 58 17 20 55 17 20 55 17 19 57 17 20 55 12 17 55 14 18 56 15 19 57 19 19 55 12 17 55 17 20 55 16 18 56 13 17 55 12 17 55 16 19 60 18 20 68 18 20 69 19 21 78 38 27 83 65 36 94 16 23 95 19 22 103 21 23 110 21 24 119 16 22 118 25 28 145 24 29 149 27 29 150 22 28 148 24 29 149 23 28 148 17 26 145 7 19 117 8 20 118 6 20 109 8 20 104 5 19 94 6 18 92 5 19 84 4 15 77 4 17 72 3 16 68 1 15 62 2 15 57 3 16 58 3 16 58 2 16 55 2 16 55 2 16 55 2 16 55 
9 90 93 6 106 106 5 109 112 4 106 110 8 98 98 9 73 83 7 58 75 9 58 75 10 59 74 11 71 81 11 101 99 16 108 105 17 108 99 36 87 88 60 59 73 53 52 68 46 47 67 50 47 66 51 48 67 50 45 65 52 44 65 51 44 62 51 43 64 52 40 64 52 40 64 52 40 64 51 39 61 52 38 61 57 34 60 76 41 63 50 32 58 58 32 59 55 30 59 56 30 57 53 30 58 53 28 57 52 29 58 53 28 57 55 30 59 54 29 58 53 30 58 53 30 58 53 28 58 52 29 57 54 29 58 55 31 57 54 30 56 55 31 55 53 28 57 74 36 59 69 35 60 52 29 57 54 29 59 54 29 58 55 30 59 52 29 58 53 28 57 53 29 55 56 30 57 52 29 58 55 31 57 52 29 57 53 30 58 49 31 57 54 30 62 55 31 65 57 32 74 54 32 78 62 34 83 84 42 92 53 31 93 55 32 100 55 32 100 55 33 105 54 32 104 28 29 145 25 30 150 26 28 147 22 28 150 26 28 149 24 29 149 17 26 145 8 20 118 9 21 119 6 20 109 6 18 102 5 18 96 5 17 91 4 18 83 5 16 78 3 16 71 5 18 70 2 16 63 2 15 57 2 15 57 2 15 57 2 16 55 2 16 55 2 16 55 2 16 55 
5 109 110 6 108 110 4 102 101 4 82 86 7 63 78 8 60 74 9 58 75 9 60 77 8 75 83 14 106 105 13 108 104 13 104 99 21 76 83 44 57 74 43 52 69 44 53 70 43 52 69 43 52 69 44 49 68 43 48 67 46 44 65 43 44 64 44 42 63 46 38 61 47 37 61 47 38 59 48 38 62 46 36 60 56 33 61 74 39 61 46 30 59 51 31 58 48 29 57 49 29 56 47 28 56 46 30 57 47 28 58 47 28 56 45 29 56 48 28 56 47 28 56 45 29 56 46 27 57 48 29 57 45 26 56 50 30 58 48 29 57 48 29 57 45 29 56 75 36 57 58 32 57 49 29 56 48 29 57 49 29 57 47 29 55 47 28 58 46 27 57 46 27 55 49 29 56 45 29 56 49 29 56 47 28 56 47 29 55 47 28 58 47 31 60 47 32 65 48 32 69 49 31 81 62 38 86 73 38 92 47 33 95 49 32 103 49 32 112 49 35 112 47 32 115 29 30 146 25 30 148 24 29 149 23 29 151 23 28 146 24 29 149 17 26 145 8 20 118 8 20 118 7 18 110 6 18 102 6 19 97 5 17 89 3 17 82 5 16 78 4 17 72 3 16 68 2 16 63 2 15 57 3 16 58 2 16 55 2 15 57 2 15 57 3 16 58 2 15 57 
5 101 100 8 83 89 7 66 80 6 66 77 8 64 77 9 60 77 7 63 78 10 85 90 10 107 100 14 109 105 7 97 95 11 64 80 10 48 69 10 45 67 9 45 67 11 46 68 10 42 67 13 40 67 14 40 67 13 34 61 15 36 63 13 32 62 14 29 60 14 29 60 15 28 60 19 28 59 17 23 59 17 21 56 27 26 58 62 34 57 17 19 58 21 21 57 17 19 57 20 20 56 14 20 56 15 19 54 13 19 55 15 21 57 15 19 56 17 19 57 15 19 56 15 19 56 13 16 57 14 18 55 14 18 56 17 20 55 17 19 57 19 19 57 15 19 54 60 31 59 42 27 56 17 19 57 17 20 55 18 21 56 15 19 56 13 17 55 14 18 55 16 18 57 20 20 56 13 18 56 18 20 58 15 19 56 14 19 57 12 17 55 17 20 61 17 21 66 18 22 70 16 21 77 35 26 83 63 35 93 18 22 95 21 24 103 21 23 108 21 24 117 16 22 118 25 28 145 23 29 149 24 31 148 22 28 150 24 29 149 23 28 148 17 26 145 8 20 118 8 20 118 8 19 109 6 18 102 5 18 96 4 16 90 4 18 83 5 16 78 4 17 72 3 16 68 1 15 62 2 15 57 3 16 58 2 16 55 2 16 55 1 15 54 1 14 56 1 14 56 
8 71 78 7 67 78 7 63 76 5 65 76 9 65 78 9 67 81 11 95 95 13 108 104 11 107 103 21 96 92 7 56 73 12 48 70 13 45 66 13 45 68 11 43 66 15 41 68 13 39 64 16 37 64 16 37 66 13 32 62 12 33 62 15 30 61 15 28 60 17 28 58 18 29 61 19 28 61 20 23 58 21 21 57 31 24 58 63 33 57 20 20 54 22 20 57 16 19 54 22 22 58 16 18 56 15 19 56 14 18 56 16 20 57 16 18 56 21 21 57 17 20 55 16 20 57 14 18 55 16 20 57 16 18 56 21 19 56 20 20 58 21 19 56 16 18 56 60 32 57 43 28 57 19 19 55 19 19 55 20 20 56 21 19 56 15 19 56 17 21 58 19 19 57 21 21 59 15 19 56 21 20 54 18 20 58 16 18 56 16 18 56 19 21 62 18 21 66 20 22 71 19 21 78 39 29 82 65 36 94 18 22 95 19 22 101 21 23 108 20 25 117 17 23 119 25 27 146 25 30 148 26 28 149 22 28 148 24 29 149 24 29 149 17 26 145 8 20 118 9 19 117 8 19 109 6 18 102 5 18 96 5 17 91 4 18 83 5 16 78 3 16 71 4 17 69 2 16 63 2 15 57 2 15 57 1 15 54 1 15 54 2 16 55 3 17 56 3 17 56 
9 69 79 7 69 80 9 65 80 5 65 76 7 76 83 9 101 98 12 108 106 12 106 105 23 89 88 60 64 75 6 51 70 12 47 67 13 45 66 14 44 68 9 39 65 15 36 63 13 37 63 13 34 63 13 34 63 14 31 61 15 28 60 15 28 60 14 27 59 15 25 60 17 23 59 20 23 58 18 20 58 17 21 58 31 21 55 63 33 57 16 18 56 21 20 54 20 20 56 20 20 56 15 19 56 15 19 56 14 18 55 16 18 56 15 19 54 19 19 55 16 18 56 15 19 56 14 18 55 16 18 56 14 18 55 20 18 55 18 20 58 20 20 56 17 19 57 60 32 57 42 27 56 17 20 55 19 19 55 21 21 57 17 20 55 15 19 56 16 18 56 17 19 57 20 20 56 13 18 56 22 22 58 16 20 57 14 18 55 14 18 56 18 21 64 18 20 68 20 22 71 18 23 79 38 28 81 64 35 93 17 21 94 21 22 102 21 23 108 20 23 120 17 21 118 26 29 146 24 29 149 25 30 150 22 28 148 26 28 147 24 29 149 18 27 146 7 19 117 9 19 117 7 18 110 6 18 102 5 18 96 5 17 89 3 17 82 5 16 78 4 17 72 2 15 67 2 16 63 2 15 57 2 16 55 3 17 56 2 15 59 1 14 56 1 14 56 1 15 54 
8 75 83 6 69 78 6 66 77 5 78 84 10 105 101 13 108 104 14 106 101 8 79 85 29 56 75 63 59 73 7 48 68 13 45 68 12 44 67 15 39 65 13 37 65 14 33 63 12 33 62 12 31 61 15 30 61 13 28 59 16 27 59 15 25 60 15 25 60 14 22 58 14 22 58 19 22 57 18 21 56 17 20 55 30 23 57 65 33 57 16 18 56 21 20 54 17 19 57 21 21 57 13 17 54 16 18 56 14 18 56 15 17 55 17 19 57 19 19 55 16 18 56 15 19 57 14 18 56 14 20 56 14 18 55 20 20 54 17 20 55 19 19 55 17 19 57 60 31 59 43 26 58 20 20 56 19 19 55 18 22 59 20 20 56 15 19 56 15 17 55 17 19 57 20 20 56 14 18 56 20 20 56 15 19 56 15 17 55 13 18 56 17 20 63 20 23 68 20 22 70 19 21 78 39 28 84 65 36 94 15 22 94 20 23 102 19 24 108 22 22 118 16 22 118 23 28 145 24 29 147 25 30 150 22 28 148 25 30 148 24 29 149 18 27 146 7 19 117 9 19 117 8 19 109 6 18 102 5 18 96 5 17 91 4 18 83 5 16 78 4 17 72 3 16 68 1 15 62 2 15 57 2 16 55 1 15 54 2 16 55 2 16 55 2 15 57 2 15 57 
9 90 94 6 66 77 4 83 88 6 106 106 9 107 106 12 102 100 10 72 83 9 54 73 28 54 71 62 58 72 7 45 66 16 44 68 6 37 65 12 36 62 9 33 61 14 31 61 9 30 61 12 29 59 13 28 61 12 25 59 13 23 58 14 24 59 14 24 60 11 19 56 12 20 56 16 20 57 15 19 56 15 19 56 25 21 56 58 32 57 13 18 56 17 19 57 14 18 55 15 19 56 11 16 54 12 17 55 10 18 55 13 18 56 12 17 55 15 19 56 12 17 55 10 18 55 11 16 54 13 18 56 11 16 54 15 19 56 15 19 56 17 19 58 12 17 55 60 30 58 37 26 56 14 18 55 14 18 55 15 19 56 14 18 56 10 18 57 10 18 55 13 18 56 16 18 56 9 17 54 16 18 56 12 17 55 12 17 55 9 17 54 14 19 61 17 19 67 17 21 69 14 20 78 36 27 82 63 35 94 15 22 94 19 22 101 19 24 108 18 23 117 15 21 117 23 30 146 23 28 148 24 29 147 19 28 147 24 29 147 22 28 148 17 26 145 9 19 117 9 19 117 7 18 108 6 18 102 6 17 96 4 16 90 4 18 83 5 16 78 4 17 72 3 16 68 2 16 63 2 15 57 2 16 55 1 14 56 1 14 56 2 15 57 2 15 57 2 15 57 
6 104 103 8 92 94 5 107 109 5 109 108 10 98 99 9 69 80 10 55 74 9 50 72 27 53 70 62 56 70 7 45 68 14 40 67 13 37 65 14 34 61 8 31 62 12 29 59 9 28 60 13 28 59 14 25 57 13 23 58 13 23 58 11 24 59 12 20 56 10 18 54 15 19 56 16 18 56 15 19 56 17 19 57 27 21 57 61 33 58 12 17 55 17 19 57 14 18 55 18 20 58 11 16 54 11 16 54 10 18 55 12 17 55 12 18 54 15 19 56 13 19 55 13 19 55 10 18 55 13 17 55 10 18 55 16 19 52 15 19 56 16 19 54 13 18 56 57 33 59 39 26 56 15 19 56 16 18 56 18 18 54 14 18 55 12 17 55 10 18 55 14 18 56 17 19 57 12 17 55 15 19 56 13 18 56 12 17 55 12 17 55 15 20 60 17 19 67 15 21 69 19 21 78 36 27 80 64 34 94 17 21 94 20 23 100 19 24 108 18 23 117 15 21 117 24 29 146 24 29 149 24 29 147 20 29 148 25 30 150 22 28 148 17 26 147 9 19 117 7 19 117 7 18 108 7 19 103 6 17 96 6 18 90 4 18 83 3 17 78 2 15 70 3 16 68 1 15 62 2 17 58 3 17 56 1 14 56 1 14 56 2 15 57 2 15 57 2 15 57 
6 108 110 6 108 110 5 107 109 5 88 92 9 62 78 9 56 74 9 52 71 9 50 72 27 50 68 63 57 69 9 41 66 13 37 65 11 34 65 13 32 62 7 27 60 14 29 62 5 24 57 14 24 59 14 24 59 12 25 59 13 23 58 10 18 55 9 17 54 12 17 55 14 18 55 15 19 56 16 18 56 15 17 55 25 21 56 60 32 57 14 18 56 15 19 56 13 19 55 16 20 55 12 17 55 12 17 57 9 19 55 12 18 54 12 17 55 15 19 56 12 17 55 9 17 54 9 19 55 10 18 55 10 17 59 15 19 56 15 19 56 15 19 56 13 18 56 57 31 58 37 26 58 14 18 55 15 17 55 15 19 56 14 18 56 10 18 57 10 18 55 12 17 55 16 20 57 9 17 54 16 18 56 12 17 55 9 17 54 7 17 53 14 19 61 18 20 68 17 21 69 14 20 78 34 26 83 62 34 93 16 20 94 19 22 103 18 23 107 18 23 115 13 19 115 24 29 146 22 28 148 23 28 146 19 28 147 24 29 147 23 28 148 17 26 145 10 19 120 8 20 118 8 19 109 6 18 102 7 18 97 5 17 89 3 17 82 2 16 77 3 16 71 3 16 68 3 15 63 2 15 57 2 16 55 2 15 57 1 14 56 2 15 57 2 15 57 2 15 57 
8 108 110 11 107 105 7 84 90 8 61 77 12 54 76 14 52 73 15 51 73 14 46 67 32 49 67 63 55 68 13 39 66 16 37 66 12 33 62 14 31 61 12 29 59 12 27 60 13 23 59 11 24 58 16 24 60 17 23 59 18 22 59 16 19 60 15 19 57 14 18 55 17 19 57 20 20 56 19 19 55 19 19 55 28 22 56 62 32 56 15 19 56 20 18 55 17 19 57 20 18 55 15 19 57 15 19 54 13 18 58 15 19 56 15 19 56 17 20 55 15 19 56 15 21 57 13 19 55 14 18 55 14 18 55 18 21 56 17 20 55 19 19 55 15 17 55 60 30 56 39 26 56 17 19 57 19 19 57 16 20 55 17 19 57 13 18 56 16 20 57 15 19 56 17 21 56 13 19 55 18 21 56 15 19 56 15 19 56 12 18 54 16 19 60 19 22 67 21 23 71 17 22 78 38 27 83 65 34 93 17 21 94 21 24 105 19 24 108 21 24 117 16 22 118 27 28 146 24 29 149 27 29 148 20 29 146 25 30 148 24 29 149 17 26 143 7 19 117 7 19 121 8 19 109 7 19 103 5 16 95 5 17 91 4 15 81 4 15 77 3 16 71 2 15 67 2 16 63 2 15 57 2 16 55 2 15 57 1 15 54 1 15 54 1 15 54 1 15 54 
13 107 107 15 107 104 12 79 87 11 58 76 15 53 74 15 51 73 15 50 72 14 46 69 33 48 67 66 55 71 13 37 63 14 35 66 16 31 64 18 29 61 13 26 60 14 24 59 13 21 57 16 22 58 18 20 59 15 19 56 17 20 55 14 20 56 13 19 55 14 18 55 16 18 56 17 19 57 16 18 56 17 19 57 29 22 56 62 32 56 16 20 57 18 20 58 16 19 54 17 20 55 14 18 55 15 19 57 13 18 56 15 19 54 16 18 56 16 18 56 15 19 56 14 18 56 12 17 55 13 17 55 12 18 54 20 20 56 17 19 57 19 19 57 17 19 57 58 32 57 39 24 55 16 18 56 18 18 56 19 19 55 17 19 57 13 17 55 13 18 56 15 19 56 18 21 56 12 17 55 20 20 58 15 19 56 13 19 55 12 17 55 17 20 61 17 21 68 18 20 69 18 20 77 39 29 82 63 34 92 15 22 94 20 23 102 21 23 108 21 24 117 16 22 118 25 28 145 23 28 148 26 28 147 22 28 148 23 28 148 24 29 149 17 26 145 7 19 117 8 20 118 7 18 108 5 17 103 6 17 96 5 17 89 4 18 83 5 16 78 6 19 74 3 16 68 3 17 64 2 15 57 2 16 55 1 14 56 2 15 57 2 15 57 2 15 57 2 15 57 
11 103 102 9 108 105 9 99 99 10 57 75 12 53 71 16 51 73 12 44 67 12 42 66 28 45 65 62 49 66 11 35 63 13 32 62 13 29 62 15 28 62 14 24 59 13 22 55 11 19 56 15 21 57 14 18 55 15 19 54 17 19 57 14 18 55 13 18 56 14 19 57 17 19 57 19 19 55 17 20 55 17 20 55 29 23 57 62 32 56 15 19 56 20 20 56 16 18 56 20 20 56 13 17 55 14 18 55 13 18 56 14 20 56 14 20 56 17 20 55 14 18 55 15 19 56 13 17 55 14 18 55 14 18 56 17 20 55 17 20 55 21 19 56 15 17 55 57 31 56 40 27 57 16 20 57 18 20 58 16 18 56 16 18 56 14 18 55 16 18 57 14 18 55 20 20 56 13 18 56 19 19 57 14 18 55 14 18 55 13 18 56 18 20 61 18 20 68 19 23 71 19 21 78 38 28 81 64 35 93 17 21 94 20 23 102 22 24 109 21 24 117 16 22 118 25 28 145 26 28 149 26 28 147 23 28 148 23 28 148 23 28 148 17 26 143 10 20 118 8 20 118 8 19 109 6 18 102 5 16 96 5 17 89 3 17 82 5 16 78 4 17 72 3 16 68 2 14 62 2 15 57 1 15 54 2 15 57 2 16 55 2 16 55 2 16 55 2 16 55 
9 94 91 14 109 105 15 107 104 8 68 79 13 51 72 15 47 70 13 44 65 15 41 64 35 41 65 63 49 64 12 33 62 19 30 60 17 27 62 17 26 59 13 23 58 13 21 57 12 20 59 16 20 57 17 19 57 16 20 57 16 18 56 14 18 56 14 18 55 14 18 55 16 18 56 19 19 55 17 20 55 18 21 56 29 22 56 62 32 56 14 18 55 20 20 56 16 19 54 20 20 56 15 17 55 15 17 55 14 19 57 15 19 56 15 17 55 19 19 55 15 19 56 15 19 56 13 18 56 14 18 55 15 19 57 20 20 56 17 20 55 19 19 55 16 18 56 61 33 58 38 25 53 16 18 56 17 19 57 17 19 57 17 19 57 14 18 56 14 18 55 16 18 56 20 20 56 13 17 55 19 19 55 14 18 55 13 17 54 12 17 55 16 19 60 19 21 69 18 22 70 18 20 77 37 28 81 64 35 93 17 21 94 20 23 102 21 23 108 21 24 117 14 23 118 25 28 145 25 30 150 26 28 147 22 28 148 24 29 147 23 30 147 17 26 145 8 18 116 7 19 117 7 18 108 6 18 104 6 17 96 5 17 91 5 16 82 6 17 79 4 17 72 3 16 68 3 15 63 3 16 58 3 15 55 2 15 57 2 16 55 1 15 54 1 15 54 2 16 55 
13 105 102 13 108 104 13 105 102 8 65 76 11 46 68 14 46 67 14 42 66 16 37 64 27 37 64 59 45 62 11 30 60 17 28 60 15 25 60 17 23 59 9 17 54 11 19 56 10 18 55 14 18 55 13 19 55 13 19 55 14 20 56 12 17 55 8 16 53 9 17 54 13 17 54 15 19 56 14 20 56 15 19 56 25 21 56 60 32 55 14 18 55 16 20 57 14 18 55 16 18 56 12 17 55 12 17 55 10 18 55 12 17 55 12 17 55 14 18 55 13 18 56 13 18 58 9 17 54 11 16 54 11 16 54 15 17 55 14 18 56 17 19 57 12 17 55 55 31 57 36 25 55 14 18 55 15 19 56 14 18 55 14 18 55 12 17 55 10 18 55 13 18 56 16 18 56 10 18 55 15 19 56 12 17 55 10 18 55 10 18 55 14 17 60 15 19 67 15 21 69 13 19 77 36 27 82 62 34 92 18 22 95 19 22 103 20 22 107 18 23 115 15 21 117 23 28 145 23 28 148 25 30 148 21 27 149 24 29 149 21 27 147 16 25 144 9 19 117 9 19 117 7 18 108 6 18 102 6 17 96 5 17 91 2 16 81 5 16 78 3 16 71 3 16 68 2 16 63 1 14 56 2 16 55 2 15 57 2 16 55 1 15 54 1 15 54 1 15 54 
12 108 104 11 103 98 11 64 78 12 44 67 11 43 64 14 42 66 16 40 64 15 36 63 26 36 61 60 43 62 14 29 60 18 29 61 15 24 57 19 21 59 12 17 55 10 19 52 11 19 56 15 19 56 14 18 55 15 19 57 16 19 54 13 18 56 12 17 55 13 18 56 13 19 55 16 19 54 15 19 56 17 19 57 27 21 55 60 32 55 14 18 55 16 19 54 15 17 55 19 19 57 12 17 55 13 19 53 10 18 55 14 18 55 13 18 56 15 19 54 14 18 55 10 18 54 10 18 55 12 18 54 13 18 56 17 20 55 14 18 55 17 20 55 14 18 55 59 30 58 39 26 56 15 19 57 16 18 56 15 19 56 15 17 55 11 19 56 12 17 55 13 19 55 16 18 56 11 16 54 19 19 53 12 18 54 12 17 55 9 17 54 13 18 58 16 20 65 19 23 71 15 22 77 36 27 82 64 35 93 15 21 95 20 23 102 19 24 108 20 24 115 15 21 119 23 28 145 22 28 148 24 29 147 21 27 149 24 29 149 23 28 148 17 26 143 10 20 118 6 19 115 7 18 108 6 16 101 7 18 97 5 17 89 4 18 83 4 15 77 3 16 71 2 15 67 2 16 63 2 15 57 2 16 55 2 16 55 3 17 56 2 16 55 3 17 56 2 16 55 
9 91 89 8 55 73 10 46 72 11 43 66 14 42 64 15 39 67 12 36 62 12 33 62 26 31 61 59 42 61 12 27 60 15 26 58 13 23 59 16 20 57 10 18 55 12 16 54 11 16 54 14 18 55 13 19 55 12 17 55 15 17 55 9 17 54 9 17 56 11 19 55 13 17 52 16 18 56 15 19 56 14 18 55 23 22 56 57 31 58 12 18 54 16 19 54 13 19 55 16 20 57 12 17 55 10 18 54 9 17 54 10 18 55 11 16 54 14 18 55 13 19 55 10 18 55 9 17 56 9 17 54 9 17 54 16 18 56 15 19 56 15 19 56 12 17 55 54 30 56 38 25 55 15 19 56 15 17 55 14 18 56 13 18 56 8 16 53 10 18 55 12 17 57 15 17 55 11 19 58 16 18 56 12 20 56 11 19 55 10 18 57 15 18 61 16 18 66 17 21 69 11 20 75 35 26 81 63 34 92 15 22 94 19 22 101 19 24 108 18 23 117 14 20 116 25 28 145 23 28 146 26 28 147 21 27 149 23 28 148 23 28 148 17 26 143 9 19 117 6 18 116 7 18 108 7 17 102 7 18 97 5 17 89 4 18 83 4 15 77 3 16 71 4 17 69 2 16 63 1 14 56 3 17 56 1 15 54 2 16 55 1 15 54 2 16 55 1 15 54 
15 51 73 15 47 70 13 43 67 13 44 65 14 40 63 15 39 65 16 36 63 17 32 61 31 32 60 64 43 62 17 28 60 21 27 59 18 22 57 22 20 57 15 19 56 16 20 57 14 18 53 17 20 55 17 20 55 17 19 57 19 19 55 16 18 56 14 18 55 16 18 56 17 19 57 22 21 55 19 19 55 20 18 55 30 23 56 62 32 56 19 19 55 20 20 56 19 19 55 20 20 56 16 19 54 16 18 56 14 18 55 16 18 56 19 19 57 19 19 55 17 19 57 16 19 54 15 19 56 16 19 54 15 17 55 19 19 55 20 20 56 20 20 56 17 20 55 60 32 57 41 26 57 20 20 56 20 20 56 19 19 55 17 20 55 14 18 55 14 18 55 16 18 56 21 21 57 12 18 54 20 20 56 15 19 56 15 20 58 13 18 56 16 19 62 18 21 66 18 22 70 21 22 79 37 26 82 65 36 94 18 20 94 20 23 102 21 23 108 20 25 117 16 22 118 22 27 144 25 30 148 27 29 148 22 28 148 24 29 149 23 28 148 17 26 143 9 19 117 7 19 117 8 19 109 6 18 102 6 17 96 5 17 89 4 18 83 5 16 78 4 17 72 2 15 67 1 15 62 3 16 58 3 17 56 1 15 54 1 15 54 2 16 55 0 14 53 2 16 55 
13 48 70 12 44 65 14 42 66 15 41 66 15 39 65 15 36 63 18 33 62 19 28 59 31 30 61 64 41 61 16 25 58 19 23 58 18 22 59 20 20 58 14 16 54 16 18 56 14 18 55 16 18 56 18 21 54 16 18 56 19 19 55 17 19 58 14 18 55 15 19 56 17 20 55 19 17 54 19 19 55 18 20 58 29 22 56 63 33 57 17 19 58 20 20 56 19 19 57 20 20 56 15 19 56 14 18 55 15 19 56 16 20 57 15 19 56 19 19 55 15 19 56 16 18 56 15 19 57 16 18 56 14 18 55 20 20 56 20 18 55 20 20 56 16 19 54 58 32 57 42 27 56 17 20 53 21 21 57 17 19 57 16 18 56 15 19 56 14 18 56 16 20 57 20 20 56 14 18 56 18 18 54 16 18 56 16 19 54 13 17 54 18 19 63 20 21 67 19 23 71 17 19 76 39 28 84 64 35 93 17 21 94 20 23 100 21 23 108 20 23 116 16 22 118 26 29 144 27 27 149 26 28 149 21 27 147 24 29 149 22 27 147 17 26 145 9 19 117 7 19 117 7 18 108 6 18 100 6 17 96 4 16 88 4 18 83 5 16 78 3 16 71 2 15 67 2 16 63 2 15 57 1 15 54 3 17 56 1 15 54 2 16 55 1 15 54 2 16 55 
12 44 67 13 44 65 16 40 66 15 39 65 15 35 62 18 33 62 19 30 60 21 27 59 33 30 61 63 39 61 17 23 59 21 21 57 16 22 58 22 21 55 15 19 56 16 19 54 15 17 55 19 19 55 20 20 56 16 19 54 20 20 56 17 19 57 16 18 56 17 19 57 18 21 56 20 20 56 20 18 55 22 20 57 31 24 58 62 32 56 19 19 57 21 20 54 20 20 54 22 21 55 17 20 55 16 19 54 16 18 56 17 20 55 17 19 58 19 19 55 16 19 54 16 19 54 15 19 56 16 19 54 16 19 54 19 19 55 17 20 55 21 19 56 19 19 55 61 31 57 42 27 56 20 20 56 19 22 57 17 19 57 19 19 57 15 19 56 17 20 55 16 18 56 21 19 56 14 20 56 20 20 54 16 20 57 15 19 56 14 20 56 17 20 61 19 22 67 20 22 70 19 21 78 38 27 83 64 35 93 16 23 95 20 23 100 21 23 108 21 24 117 16 22 118 24 27 142 24 29 147 27 29 148 23 28 148 24 29 147 24 29 149 17 26 145 9 19 117 7 19 117 7 18 108 6 18 100 6 17 96 4 16 88 3 17 82 5 16 78 3 16 71 3 16 68 3 15 63 2 15 57 2 16 55 2 16 55 0 14 53 2 16 55 1 15 54 2 16 55 
13 41 65 13 39 66 16 37 66 15 35 62 16 33 63 16 30 59 19 28 59 18 27 60 31 28 57 62 36 61 14 22 58 18 20 58 15 19 56 18 21 56 13 18 56 14 18 55 12 17 55 15 17 55 16 18 56 15 19 56 15 17 55 13 19 55 13 18 56 13 17 55 14 18 55 18 21 56 16 19 54 19 19 55 29 22 55 62 34 57 15 19 56 17 20 55 15 17 56 18 18 54 13 18 56 12 18 54 10 18 55 14 18 55 14 18 56 16 18 56 15 17 55 13 17 54 12 17 55 14 18 55 13 18 56 19 19 55 15 17 55 19 19 55 15 21 57 56 30 57 40 27 55 17 20 55 18 21 56 16 19 54 17 20 55 14 18 55 15 17 55 14 18 55 19 19 55 11 16 54 16 18 57 14 18 55 13 17 54 12 17 55 15 20 60 18 20 68 19 21 70 18 21 76 38 27 83 64 35 93 16 23 95 20 23 100 21 23 108 21 25 116 15 21 117 24 27 144 24 29 149 27 29 148 22 28 148 23 28 148 24 29 149 17 26 143 7 19 117 7 19 117 7 18 108 6 18 102 6 17 96 5 17 89 2 17 82 4 15 77 3 16 71 3 16 68 2 14 62 2 15 57 2 16 55 2 16 55 1 15 54 1 15 54 2 16 55 1 15 54 
