P3
100 50
255
31 2 6 30 1 5 31 2 6 32 3 7 33 2 8 33 2 8 37 4 11 51 8 27 50 9 27 41 5 15 33 2 7 33 2 8 33 2 7 32 3 7 30 1 5 31 2 6 29 0 4 30 1 5 30 1 5 30 1 5 28 2 3 28 2 3 26 0 1 27 1 2 26 0 1 26 0 1 27 1 2 28 2 3 27 1 2 27 1 2 28 2 3 27 1 2 27 1 2 27 1 2 27 1 2 27 1 2 27 1 2 27 1 2 27 1 2 27 1 2 27 1 2 26 0 1 27 1 2 27 1 2 27 1 2 27 1 2 26 0 1 27 1 4 27 1 4 27 1 4 27 1 4 31 2 6 31 2 6 31 2 6 32 1 7 31 2 7 33 2 8 34 3 9 35 4 10 34 5 10 38 6 11 53 8 28 53 10 30 52 9 28 42 11 17 39 18 13 40 16 14 38 17 12 40 19 18 45 25 18 41 16 19 39 17 19 41 16 19 41 14 21 39 14 20 33 10 28 32 7 29 33 8 30 31 5 30 31 6 28 32 7 29 31 6 28 30 3 22 30 3 22 28 1 16 28 2 15 28 2 15 28 2 11 27 1 10 27 0 7 28 1 6 27 2 6 27 1 4 26 2 2 26 0 1 26 2 2 26 0 1 26 0 1 27 1 2 27 1 2 
31 2 4 31 2 6 32 3 7 31 2 7 33 3 5 32 1 6 35 2 9 49 6 25 52 7 27 47 6 20 34 3 9 32 1 6 33 2 7 31 2 6 30 1 5 31 2 6 30 1 5 31 2 6 30 1 5 30 1 5 27 1 4 27 1 4 27 1 4 28 2 5 27 1 2 26 2 2 26 2 2 27 1 2 27 1 2 27 1 2 25 1 1 26 2 2 27 1 2 27 1 2 29 0 2 27 1 2 27 1 2 26 0 1 27 1 2 26 0 1 27 1 2 27 1 2 27 1 2 26 0 1 27 1 2 27 1 2 27 1 2 27 1 2 27 1 4 27 1 4 30 1 5 29 3 6 31 2 6 31 2 7 32 1 6 32 1 6 33 4 8 34 3 9 34 5 9 35 4 10 35 4 10 46 5 19 53 8 29 52 9 29 47 8 26 38 12 15 37 12 15 37 12 16 38 17 16 42 21 16 34 6 18 36 8 20 36 8 22 34 8 21 34 7 22 32 7 28 32 7 29 32 7 29 31 5 30 31 6 28 31 6 28 30 5 27 29 2 21 29 2 21 26 2 16 28 2 15 28 2 15 27 1 10 27 1 10 27 0 7 27 0 5 27 0 5 27 1 4 27 1 2 27 1 2 27 3 3 26 2 2 27 1 2 25 1 1 27 1 2 
30 1 5 30 1 5 31 2 6 32 1 6 32 3 8 34 3 9 35 2 9 47 6 22 52 8 25 48 5 22 34 3 8 32 1 6 32 1 6 32 3 8 31 2 6 29 0 4 32 3 7 28 2 5 29 0 4 29 0 4 28 2 5 28 2 3 27 1 2 27 1 2 27 1 2 26 2 2 26 2 2 27 1 2 26 0 1 27 1 2 27 1 2 27 1 2 27 1 2 26 0 1 27 1 2 26 0 1 27 1 2 27 1 2 27 1 2 27 1 2 27 1 2 27 1 2 26 0 1 27 1 2 27 1 2 27 1 2 27 1 2 27 1 2 28 2 3 28 2 5 28 2 5 28 1 6 29 3 6 30 1 5 31 2 6 31 2 6 31 2 6 35 2 9 34 3 8 33 2 8 34 3 9 37 4 11 51 8 25 54 11 30 52 9 28 43 7 19 34 7 12 33 6 13 37 12 16 42 18 16 32 5 20 30 6 19 31 4 19 33 4 24 31 4 21 34 6 29 34 6 28 33 7 32 31 6 28 31 6 28 31 6 28 32 4 27 29 2 21 29 2 19 29 2 19 29 2 17 28 2 15 27 1 12 27 1 10 28 3 9 28 1 8 27 0 5 28 2 5 27 1 2 27 1 2 27 1 2 27 1 2 27 1 2 27 1 2 27 1 2 
31 2 6 30 1 5 31 2 6 32 1 6 33 4 8 32 1 6 34 3 9 43 5 18 51 6 26 50 7 26 36 4 9 34 3 8 33 2 7 32 1 7 31 2 6 31 2 6 31 2 6 30 1 5 28 2 5 31 2 6 31 2 6 28 2 3 27 1 2 26 0 1 27 1 2 26 2 2 27 3 3 27 1 2 28 2 3 27 1 2 27 1 2 27 1 2 26 0 1 26 0 1 27 1 2 26 0 1 27 1 2 26 0 1 27 1 2 26 0 1 26 0 1 26 0 1 27 1 2 27 1 2 27 1 2 27 1 2 27 1 2 27 1 2 27 1 2 28 2 3 28 2 5 28 2 5 28 2 5 31 2 6 30 1 5 31 2 6 33 2 7 33 2 8 34 5 9 34 3 9 33 4 8 35 4 10 44 6 19 52 9 29 52 9 28 50 12 27 33 6 15 32 5 14 38 11 18 41 20 17 32 5 20 30 6 19 34 5 23 32 3 23 32 5 22 32 7 28 32 7 29 33 8 30 31 6 28 31 6 28 31 6 28 30 5 27 28 1 20 29 2 19 28 1 18 28 2 15 28 2 15 27 1 12 27 2 8 27 1 10 28 1 6 27 0 5 27 1 4 26 0 1 27 1 2 27 1 2 27 1 2 27 1 2 27 1 2 27 1 2 
30 1 5 30 1 5 29 3 6 31 2 6 34 3 8 34 4 6 33 2 8 40 4 14 52 9 28 51 6 26 38 5 14 33 2 7 33 2 7 32 1 7 32 3 7 31 2 6 31 2 6 30 1 5 31 2 6 30 1 5 29 0 4 27 1 2 27 1 2 27 1 2 26 2 2 27 1 2 27 1 2 27 1 2 27 1 2 27 1 2 26 0 1 27 1 2 27 1 2 27 1 2 27 1 2 27 1 2 27 1 2 27 1 2 27 1 2 28 2 3 26 0 1 27 1 2 27 1 2 27 1 2 27 1 2 27 1 2 27 1 2 27 1 2 27 1 2 27 1 2 27 1 2 27 1 4 28 2 5 30 1 5 31 2 6 30 1 5 31 2 6 32 3 8 32 1 7 34 3 9 34 3 8 34 5 10 37 4 13 51 8 27 53 8 29 52 9 29 34 6 21 33 6 15 36 11 15 41 20 17 32 6 19 30 6 19 34 5 23 32 5 22 33 4 26 35 7 29 33 8 30 32 7 29 32 7 29 31 6 28 32 7 29 33 5 28 30 3 22 29 2 19 29 2 19 29 3 16 28 2 15 28 2 13 27 1 10 27 2 8 27 0 7 27 0 5 27 1 4 27 1 2 27 1 2 28 2 3 27 1 2 27 1 2 27 1 2 26 0 1 
28 2 5 31 2 6 31 2 6 32 1 6 32 1 6 33 2 8 32 1 7 34 3 9 50 7 26 51 6 26 43 5 18 33 2 8 34 3 8 33 2 8 31 2 6 30 1 5 30 1 5 27 1 4 30 1 5 31 2 6 30 1 5 27 1 2 28 2 3 27 1 2 28 2 3 27 1 2 27 1 2 27 1 2 26 0 1 27 1 2 27 1 2 27 1 2 27 1 2 27 1 2 27 1 2 27 1 2 27 1 2 27 1 2 27 1 2 26 0 1 27 1 2 26 0 1 27 1 2 27 1 2 27 1 2 27 1 2 27 1 2 27 1 2 27 1 2 27 1 2 27 1 2 27 1 2 27 1 4 30 1 5 30 1 5 28 2 5 31 2 6 31 2 6 32 1 6 33 2 7 33 2 8 32 3 8 35 4 9 41 5 15 52 9 28 52 9 29 35 7 30 35 4 19 35 10 14 42 18 18 33 5 19 32 5 20 35 3 24 32 5 22 30 2 24 33 5 28 32 7 29 33 8 30 31 6 28 31 6 28 34 6 29 32 4 27 29 2 21 30 3 20 29 2 17 28 1 16 28 2 13 27 1 12 27 1 10 27 2 8 28 1 8 28 1 6 27 1 4 27 1 2 27 1 2 27 1 2 27 1 2 27 1 2 26 0 1 26 0 1 
30 4 7 30 1 5 31 2 6 31 2 6 33 2 7 33 2 8 34 3 8 34 3 9 49 6 23 51 6 26 47 6 22 33 2 8 33 2 7 31 2 7 32 1 6 31 2 6 30 1 5 31 2 6 31 2 6 30 1 5 29 3 6 27 1 2 27 1 2 27 1 2 27 1 2 27 1 2 27 1 2 27 1 2 27 1 2 27 1 2 27 1 2 27 1 2 27 1 2 27 1 2 27 1 2 26 0 1 26 0 1 27 1 2 27 1 2 27 1 2 27 1 2 27 1 2 27 1 2 27 1 2 27 1 2 27 1 2 27 1 2 27 1 2 27 1 2 27 1 2 27 1 2 27 1 2 28 2 5 28 2 5 30 1 5 30 1 5 31 2 6 31 2 6 32 1 6 33 2 7 34 3 8 33 2 8 33 4 8 34 3 9 44 6 19 54 11 30 43 8 28 34 6 28 36 11 15 43 19 17 33 5 20 32 5 22 33 4 24 32 5 24 31 3 25 34 6 28 34 6 28 32 7 29 31 5 30 33 5 28 32 4 27 33 5 28 29 2 21 28 1 20 29 2 17 28 2 15 28 2 15 27 1 12 27 2 8 27 1 10 28 1 6 28 1 6 27 1 4 27 1 2 27 1 2 27 1 2 27 1 2 27 1 2 27 1 2 27 1 2 
30 1 5 31 2 6 31 2 6 29 3 6 31 2 6 32 1 6 33 2 7 33 2 7 46 5 21 50 7 26 50 6 23 35 2 9 34 3 8 32 1 7 29 0 4 31 2 6 29 0 4 30 1 5 31 2 6 31 2 6 28 2 5 29 0 2 28 2 3 27 1 2 28 2 3 27 1 2 27 1 2 27 1 2 27 1 2 27 1 2 27 1 2 27 1 2 27 1 2 26 0 1 27 1 2 28 2 3 27 1 2 27 1 2 27 1 2 27 1 2 27 1 2 27 1 2 27 1 2 28 2 3 27 1 2 27 1 2 27 1 2 27 1 2 27 1 2 27 1 2 27 1 2 27 1 2 28 2 3 28 2 3 30 1 3 30 1 5 30 1 5 30 1 5 31 2 6 32 1 6 34 3 8 33 2 7 34 3 9 34 3 8 36 3 12 55 8 28 52 9 28 36 7 29 37 11 22 43 19 15 33 5 19 33 4 22 33 6 25 32 5 22 32 3 23 34 5 27 34 5 27 33 8 30 34 6 29 33 5 28 33 5 28 32 4 27 30 1 21 29 1 23 29 2 17 29 3 16 28 2 15 28 2 11 27 1 10 27 2 8 28 1 6 27 0 5 27 1 4 27 1 2 26 0 1 27 1 2 27 1 2 26 0 1 27 1 2 26 0 1 
30 1 5 30 1 5 31 2 6 32 1 6 32 3 7 33 3 5 32 1 6 34 2 7 41 5 17 51 8 27 52 7 27 40 5 12 34 3 8 33 0 7 32 3 7 30 1 5 31 2 6 29 0 4 29 0 4 30 1 5 30 1 5 30 1 3 27 1 2 27 1 2 27 1 2 27 1 2 27 1 2 27 1 2 27 1 2 28 2 3 27 1 2 27 1 2 28 2 3 27 1 2 26 0 1 27 1 2 27 1 2 27 1 2 27 1 2 27 1 2 27 1 2 27 1 2 27 1 2 27 1 2 27 1 2 27 1 2 27 1 2 27 1 2 27 1 2 27 1 2 27 1 2 27 1 2 27 1 2 27 1 4 30 1 3 30 1 5 28 2 5 31 2 6 32 1 6 31 2 6 33 4 8 34 3 9 33 2 8 33 2 7 33 2 10 46 8 23 53 10 29 46 7 28 34 5 27 38 13 17 33 5 20 34 5 23 32 5 22 33 4 22 31 4 23 34 6 28 34 5 27 35 6 28 33 5 27 33 5 28 33 5 28 33 5 28 29 2 21 29 2 21 28 1 16 28 1 16 28 2 13 27 1 12 27 2 8 26 1 7 28 1 6 27 1 4 28 2 5 27 1 2 27 1 2 27 1 2 27 1 2 27 1 2 27 1 2 26 0 1 
29 0 4 30 1 5 27 1 4 30 1 5 31 0 5 31 2 6 32 3 7 32 1 7 36 3 12 53 8 28 50 5 25 41 5 15 33 2 7 33 2 8 33 2 7 31 2 6 31 2 6 30 1 5 31 2 6 31 2 6 30 1 5 30 1 3 29 0 2 27 1 2 26 2 2 27 1 2 28 2 3 27 1 2 27 1 2 28 2 3 27 1 2 27 1 2 27 1 2 27 1 2 27 1 2 26 0 1 27 1 2 27 1 2 27 1 2 27 1 2 27 1 2 27 1 2 27 1 2 28 2 3 27 1 2 27 1 2 27 1 2 27 1 2 27 1 2 27 1 2 27 1 2 27 1 2 27 1 2 28 2 5 28 2 3 30 1 5 30 1 5 31 2 6 32 3 7 31 2 6 31 2 7 31 0 5 33 2 8 34 1 8 33 3 11 38 6 19 53 8 28 53 8 28 38 6 29 35 9 22 32 5 20 32 5 22 33 4 22 33 4 22 31 4 23 33 5 27 35 5 29 34 5 27 34 5 27 33 5 28 32 7 29 32 4 27 28 1 20 29 2 17 28 1 16 28 2 15 28 2 15 27 1 10 26 0 9 27 2 8 27 1 4 27 1 4 27 1 4 27 1 2 26 0 1 27 1 2 27 1 2 27 1 2 27 1 2 26 0 1 
30 1 5 30 1 3 29 0 4 31 2 6 31 2 7 32 1 7 33 2 7 33 2 8 35 4 10 49 6 25 51 6 26 44 6 19 33 2 7 32 1 7 32 1 7 32 1 6 31 2 6 30 1 5 30 1 5 31 2 4 31 2 6 29 0 2 30 0 4 28 2 3 27 1 0 27 1 2 27 1 2 26 0 1 27 1 2 27 1 2 27 1 2 27 1 2 27 1 2 27 1 2 26 0 1 27 1 2 25 0 0 27 1 2 27 1 2 26 0 1 27 1 2 26 0 1 26 0 1 27 1 2 28 2 3 27 1 2 26 0 1 27 1 2 27 1 2 25 0 0 27 1 2 27 1 2 27 1 2 29 3 6 27 1 4 29 0 2 29 3 4 29 3 6 31 2 6 31 2 4 32 3 7 32 1 6 32 1 6 32 3 8 34 3 11 33 3 11 51 8 27 52 7 28 45 6 25 34 7 26 33 5 20 33 4 22 32 5 22 33 6 23 32 5 24 34 5 27 34 6 29 35 5 29 34 6 29 34 6 28 33 5 28 30 5 26 29 2 21 29 2 21 29 2 17 29 3 16 28 2 13 29 3 14 27 1 10 28 1 8 27 0 5 27 1 4 27 1 4 27 1 2 27 1 2 27 1 2 27 1 2 26 0 1 26 0 1 27 1 2 
28 1 6 30 1 3 28 2 5 31 2 6 32 3 7 32 1 6 33 4 9 33 2 8 34 1 8 49 6 23 51 8 27 49 6 23 34 3 9 33 2 7 32 1 6 32 1 6 31 1 3 31 0 5 30 1 5 29 0 4 31 2 6 29 0 2 26 0 3 27 1 2 25 1 1 26 2 2 27 1 2 26 2 2 27 1 2 27 1 2 27 1 2 27 1 2 26 0 1 27 1 2 27 1 2 25 0 0 27 1 2 27 1 2 27 1 2 28 2 3 27 1 2 27 1 2 27 1 2 27 1 2 26 0 1 26 0 1 24 0 0 26 0 1 27 1 2 25 1 1 26 0 1 27 1 2 27 1 4 27 1 2 28 2 3 28 2 3 27 1 2 30 1 3 31 2 4 30 1 5 31 2 6 32 1 7 34 3 8 33 2 8 32 2 10 33 1 12 43 7 21 53 9 26 52 11 29 38 6 27 34 5 23 32 5 22 34 5 23 34 5 27 32 5 24 35 6 28 35 5 29 35 5 29 33 5 28 34 6 28 33 5 28 33 5 27 29 2 21 29 2 21 29 2 17 28 2 15 28 2 13 28 2 13 28 1 10 27 2 8 28 1 6 28 2 5 27 1 4 27 1 2 25 0 0 27 1 2 27 1 2 28 2 3 27 1 2 27 1 2 
31 2 7 31 2 6 31 2 4 30 1 5 31 2 7 32 1 6 33 4 9 33 2 10 33 2 8 46 5 19 51 8 27 51 6 26 36 5 13 33 2 8 32 1 7 33 4 9 31 2 6 32 1 6 28 2 5 31 2 6 29 2 7 30 1 3 27 0 5 28 2 5 27 1 2 27 1 4 27 1 2 27 1 4 27 1 2 27 1 2 27 1 2 27 1 2 27 1 2 27 1 2 27 1 2 27 1 2 27 1 2 28 2 3 27 1 2 27 1 2 27 1 2 27 1 2 27 1 2 27 1 2 27 1 4 27 1 4 27 1 2 28 2 5 27 1 4 27 1 2 28 2 5 27 1 4 27 1 4 27 1 4 28 2 5 29 3 6 28 2 5 28 2 5 30 1 5 31 2 6 29 2 7 32 3 8 32 1 7 33 2 8 33 4 9 32 5 14 34 4 14 52 7 27 53 8 28 45 6 27 34 5 27 35 4 22 33 4 22 32 4 26 32 4 27 35 5 29 35 5 29 34 4 28 34 4 28 33 5 27 32 4 27 33 5 27 30 3 22 29 2 21 28 1 18 28 2 15 27 1 12 29 3 14 27 1 10 28 1 8 27 0 5 27 0 5 27 1 4 27 1 2 27 1 2 27 1 2 27 1 2 28 2 3 27 1 2 27 1 2 
29 2 7 29 2 7 29 2 7 30 1 6 31 2 7 33 4 9 33 2 8 31 1 9 32 2 10 40 4 16 52 7 27 52 7 28 41 5 17 33 2 10 31 1 9 31 4 11 33 2 7 30 3 8 28 1 6 29 2 7 29 2 7 28 2 5 30 1 6 28 2 5 27 0 5 28 1 6 27 1 4 30 0 8 27 0 5 28 1 6 28 1 6 28 1 6 28 1 6 27 0 5 27 0 5 27 0 5 28 2 5 27 1 4 27 1 4 27 1 4 27 1 4 27 1 4 27 1 4 27 1 4 27 1 4 28 2 5 27 1 4 27 1 4 27 1 4 27 1 4 27 1 4 27 1 4 27 1 4 28 2 5 27 1 4 27 1 4 29 2 7 28 1 6 30 1 6 30 1 6 29 2 7 30 4 7 33 3 11 32 3 8 32 2 10 32 5 12 31 5 16 43 7 21 52 7 27 52 7 28 37 5 28 34 5 25 33 4 24 33 5 28 32 4 27 34 6 28 33 3 27 34 4 28 35 5 29 35 6 28 33 5 28 32 4 26 29 2 21 30 3 22 29 2 19 28 2 15 28 2 13 27 1 12 27 1 10 28 1 8 26 1 5 27 0 5 27 1 4 27 1 2 26 0 1 26 0 1 27 1 2 26 0 1 26 0 1 26 0 1 
29 2 7 30 1 6 28 1 6 29 2 7 31 2 7 31 1 9 33 3 11 32 2 10 33 2 10 37 4 13 52 7 27 53 8 29 47 6 20 34 3 11 34 3 11 33 3 11 33 2 10 31 2 7 28 1 6 28 1 6 29 2 7 29 2 7 28 1 6 29 2 7 28 1 6 27 0 5 27 0 5 26 1 5 28 1 6 28 1 6 28 1 6 27 0 5 27 0 5 28 1 6 28 1 6 27 0 5 27 0 5 28 1 6 27 0 5 27 0 5 28 1 6 27 0 5 27 0 5 27 0 5 27 0 5 27 0 5 27 0 5 27 0 5 27 0 5 27 0 5 27 0 5 27 0 5 26 0 4 27 0 5 26 0 4 28 1 6 28 1 6 27 0 5 29 2 7 31 2 7 28 3 7 30 3 12 32 3 8 33 3 11 31 4 11 31 4 11 33 5 17 35 4 20 51 8 27 52 7 28 42 7 29 34 4 28 32 4 26 34 4 28 31 6 28 34 6 29 36 6 30 34 6 29 33 5 28 34 5 27 32 4 27 32 4 26 29 2 21 30 3 22 28 1 18 28 2 15 28 2 13 27 1 12 29 2 11 26 1 7 28 1 6 27 0 5 27 1 4 27 1 2 27 1 2 27 1 2 27 1 2 27 1 2 26 0 1 27 1 2 
29 2 9 29 2 9 28 1 8 29 2 9 29 2 9 33 3 11 32 2 10 32 2 10 34 3 11 34 3 11 50 7 26 52 7 30 50 7 27 34 2 13 32 2 10 33 2 10 32 2 10 32 2 12 29 3 12 29 2 9 29 2 9 29 2 11 28 3 9 29 2 9 28 1 8 30 0 8 27 0 5 27 2 8 27 0 7 27 0 7 28 1 8 28 1 8 28 1 8 28 1 8 27 0 7 27 0 7 28 1 6 28 1 6 29 2 7 28 1 6 27 0 5 28 1 6 28 1 6 28 1 6 27 0 5 27 2 6 28 1 6 27 2 6 27 2 6 28 1 6 28 3 7 27 0 5 27 0 7 27 0 7 26 1 7 28 1 8 28 1 8 28 3 9 29 2 9 29 2 9 27 1 10 30 3 10 32 3 7 33 2 10 32 5 10 33 6 15 33 5 17 33 5 20 45 6 27 52 7 28 51 8 28 35 6 28 32 4 27 32 4 29 32 4 29 33 5 28 34 4 28 35 5 29 34 4 28 34 5 27 33 5 28 33 5 27 29 2 21 29 2 21 29 2 19 27 1 14 28 2 13 28 2 13 27 1 10 27 0 7 27 0 5 27 0 5 26 0 3 27 1 2 27 1 2 27 1 2 27 1 2 27 1 2 27 1 2 26 0 1 
29 2 11 29 2 11 29 2 11 28 1 10 28 2 11 32 3 8 34 3 11 31 4 13 32 5 14 31 5 14 44 5 24 51 6 27 52 7 27 41 5 19 32 5 14 33 3 11 33 3 11 31 4 11 31 4 13 28 2 11 28 2 11 29 2 9 29 2 11 30 3 8 28 3 9 27 2 8 27 2 8 28 1 8 27 2 8 27 2 8 27 2 8 26 1 7 26 1 7 26 1 7 26 1 7 27 2 8 27 2 8 27 2 8 26 1 7 27 2 8 27 2 8 27 2 8 27 2 8 27 2 8 27 2 8 26 1 7 27 1 10 27 2 8 27 2 8 27 1 10 26 1 7 27 2 8 27 2 8 26 0 9 28 1 10 26 1 7 28 3 9 29 2 11 28 2 11 30 3 8 28 2 13 29 2 11 29 1 13 33 3 13 30 4 15 35 4 19 32 6 19 32 5 22 38 5 24 51 6 26 52 7 27 44 6 27 35 5 29 30 5 27 32 4 27 36 4 27 35 7 30 35 5 29 37 5 29 35 6 28 33 5 28 32 4 26 29 2 21 29 2 21 29 2 17 28 2 15 29 3 14 28 2 13 27 1 10 27 0 7 27 2 6 27 1 4 27 1 4 27 1 2 28 2 3 26 0 1 27 1 2 27 1 2 27 1 2 27 1 2 
27 1 12 27 1 12 29 3 14 27 1 12 29 3 14 30 2 17 30 4 15 31 5 14 31 5 14 32 5 14 40 6 22 52 7 27 54 6 28 43 6 23 32 5 14 32 5 14 31 5 14 29 1 13 28 2 13 27 1 14 29 1 13 28 2 13 28 2 13 26 3 11 27 1 10 27 1 10 27 1 10 26 3 11 27 1 10 27 1 10 27 1 10 27 1 10 27 1 10 27 1 10 27 1 10 26 0 9 27 1 10 27 1 10 27 1 10 27 1 10 28 2 11 28 2 11 27 1 10 27 1 10 27 1 10 27 1 10 27 1 10 27 1 10 27 1 10 27 1 10 27 1 10 27 1 10 26 0 9 28 1 10 27 1 10 28 2 13 28 2 13 27 1 12 29 3 14 29 1 13 27 1 12 28 2 15 29 3 14 29 1 15 31 5 16 32 4 19 29 5 19 34 5 25 34 5 23 49 7 27 54 7 27 50 7 27 37 5 28 31 6 28 32 4 27 36 4 28 34 4 28 35 5 29 36 4 28 35 6 28 34 4 28 32 4 26 28 3 22 30 1 21 28 1 16 28 2 15 28 2 13 28 2 13 27 1 10 27 2 8 27 0 5 28 2 5 27 1 4 27 1 2 26 0 1 26 0 1 27 1 2 27 1 2 27 1 2 26 0 1 
28 2 13 27 1 12 28 2 13 28 2 13 29 1 15 29 1 15 29 3 14 32 6 17 32 6 19 32 4 19 35 4 19 52 7 28 53 8 29 48 7 25 33 7 20 32 4 16 32 6 17 29 3 14 28 2 15 29 1 13 27 1 14 28 2 15 28 2 13 28 2 13 28 2 13 28 2 13 28 2 13 28 2 11 27 1 12 28 2 13 28 2 13 27 1 12 28 2 13 27 1 12 28 2 13 27 1 12 27 1 10 27 1 10 27 1 10 28 2 11 27 1 10 28 2 11 28 2 11 28 2 11 27 1 12 28 2 13 27 1 12 27 1 12 28 2 13 29 1 13 28 0 12 27 1 12 28 0 12 27 1 12 28 2 13 28 2 13 28 2 13 29 1 13 27 1 14 27 1 14 28 2 15 28 2 15 29 3 16 29 2 17 28 4 18 31 4 21 31 4 21 31 4 21 32 4 26 37 5 26 52 9 29 52 7 28 39 6 27 34 5 27 32 4 29 34 4 28 34 4 28 34 5 27 34 4 28 34 6 29 33 5 28 32 4 26 29 2 21 29 2 19 30 3 20 29 2 17 28 2 13 28 2 11 28 1 10 27 2 8 28 1 6 28 1 6 27 1 4 26 0 1 26 0 1 26 0 1 25 0 0 26 0 1 27 1 2 27 1 2 
28 2 15 28 2 15 29 3 16 29 3 16 26 2 15 29 1 15 30 2 17 32 4 18 34 6 18 32 4 18 35 5 17 48 6 26 52 7 27 49 6 26 33 5 19 32 4 16 32 6 17 29 2 17 27 3 19 28 1 16 28 1 16 28 1 16 28 2 15 28 2 15 28 2 15 28 2 15 28 2 13 27 1 12 27 1 14 27 1 14 30 4 17 28 2 15 28 2 15 28 2 15 27 1 14 28 2 15 28 2 13 28 0 12 28 2 13 28 2 13 29 1 13 28 2 13 28 2 13 28 2 13 28 2 13 28 2 13 28 2 13 29 1 13 26 3 13 28 2 13 28 2 13 29 1 13 28 2 15 28 2 15 28 2 13 28 2 13 27 1 14 28 2 15 29 3 16 29 3 16 29 2 17 29 3 16 29 2 17 30 3 18 28 4 20 30 3 20 30 3 22 31 4 23 32 4 26 34 5 27 48 6 26 54 6 28 45 8 26 34 4 28 33 5 28 34 4 28 34 4 28 34 4 28 34 5 27 33 5 27 33 5 27 32 4 26 29 2 21 29 2 21 29 2 19 28 1 16 28 2 13 27 1 10 27 0 7 26 1 7 26 1 5 28 1 6 27 1 4 26 0 1 26 0 1 26 0 1 26 0 1 26 0 1 27 1 2 27 1 2 
28 1 16 29 2 17 29 2 17 29 2 17 29 2 17 29 2 17 29 2 17 31 4 19 30 4 15 33 5 17 32 6 19 41 7 24 53 8 28 52 7 27 36 5 20 31 5 18 31 5 18 29 2 17 30 1 19 29 2 17 28 1 16 29 2 17 29 2 17 28 1 16 28 2 15 28 2 15 29 1 15 28 0 14 28 2 15 29 3 16 28 2 15 28 2 15 29 3 16 28 2 15 30 4 17 28 2 15 28 2 15 30 2 16 28 2 15 28 2 15 30 2 16 28 2 15 28 2 15 29 3 16 28 2 15 29 3 16 28 2 15 28 2 15 29 3 16 30 2 16 28 2 15 28 2 15 29 3 16 28 2 15 29 3 16 28 2 15 28 2 15 28 2 15 28 1 16 29 2 17 28 1 16 29 2 17 27 3 17 30 1 19 30 3 22 29 2 21 31 4 21 31 4 23 32 4 26 32 4 27 40 7 28 53 8 29 52 7 28 38 6 29 37 5 28 34 5 27 34 5 27 36 7 29 34 5 27 33 5 28 33 5 28 33 5 28 29 2 19 29 2 19 29 2 17 28 2 15 28 2 13 28 1 10 28 2 11 28 1 6 28 1 6 27 1 4 27 1 4 26 0 1 26 0 1 27 1 2 26 0 1 27 1 2 27 1 2 26 0 1 
29 2 19 29 2 19 29 2 19 29 2 19 27 2 23 29 2 19 30 3 22 31 4 21 31 4 21 31 4 23 32 5 22 38 5 24 51 6 26 54 6 28 37 4 21 32 5 22 31 4 19 28 4 20 27 3 19 31 4 21 30 3 20 29 2 17 28 1 18 29 2 19 30 3 18 29 2 17 29 2 17 28 1 16 28 1 16 29 2 17 30 3 18 29 2 17 29 2 17 29 2 17 29 2 17 29 2 17 29 2 17 29 2 17 28 1 16 29 2 17 29 2 17 29 2 17 29 2 17 29 2 17 29 2 17 29 2 17 28 1 16 28 1 16 29 2 17 29 2 17 28 1 16 29 2 17 28 1 16 29 2 17 30 3 18 29 2 17 29 2 19 29 2 19 29 2 19 29 2 21 29 2 19 30 3 20 30 3 20 30 3 22 31 4 23 31 4 23 32 3 23 32 4 26 30 5 27 35 6 28 34 4 28 48 6 26 54 7 27 47 5 27 36 4 27 35 6 28 34 5 27 35 6 28 35 6 28 34 6 28 32 4 27 32 4 26 29 2 19 29 2 19 28 2 15 30 2 16 28 2 13 28 2 11 27 2 6 28 1 6 24 2 5 27 1 4 27 1 4 27 1 2 27 1 2 27 1 2 27 1 2 27 1 2 27 1 2 26 0 1 
29 2 19 30 3 20 29 2 19 30 3 20 29 2 19 29 2 19 29 2 21 30 3 22 32 5 24 31 4 23 31 4 23 33 4 24 51 8 27 52 7 27 46 9 27 31 4 23 33 4 24 30 3 18 27 3 19 30 1 19 29 2 19 30 3 20 29 2 19 30 3 20 29 2 19 29 2 19 29 2 17 30 3 20 29 2 19 29 2 19 29 2 19 29 2 19 29 2 19 29 2 19 29 2 19 29 2 19 29 2 19 30 3 20 29 2 19 29 2 19 29 2 19 29 2 19 29 2 19 29 2 19 27 3 19 29 2 19 29 2 19 29 2 19 27 3 19 29 2 19 29 2 19 29 2 19 29 2 21 29 2 19 29 2 19 29 2 19 29 2 19 29 2 19 29 2 19 29 2 17 28 1 18 30 3 18 27 3 19 29 2 19 31 2 20 32 5 22 33 4 24 32 4 27 33 5 28 32 4 27 33 5 28 41 6 26 54 7 27 51 8 25 38 6 27 33 5 27 34 5 27 35 6 28 35 6 28 33 5 27 32 4 27 32 4 26 30 3 20 29 2 19 29 2 17 28 2 15 27 1 12 27 1 10 28 1 8 27 0 7 27 0 5 27 1 4 27 1 4 27 1 2 27 1 2 27 1 2 27 1 2 26 0 1 27 1 2 27 1 2 
30 3 22 30 3 22 28 3 22 28 3 22 28 3 22 31 4 23 31 3 25 32 4 26 31 4 23 32 5 24 32 5 24 33 6 25 45 6 27 46 7 28 43 5 26 32 5 24 33 4 24 31 4 23 31 3 25 30 2 24 31 4 23 31 4 23 30 3 22 30 3 22 31 4 23 30 3 22 30 3 22 30 3 22 30 3 22 30 3 22 30 3 22 30 3 22 30 3 22 30 3 22 30 3 22 30 3 22 30 3 22 28 3 22 30 3 22 30 3 22 28 3 22 29 2 21 31 4 23 29 2 21 30 3 22 30 3 22 28 3 22 30 3 22 30 3 22 30 3 22 28 3 22 30 3 22 30 2 24 29 1 23 30 2 24 30 2 24 31 3 25 31 3 25 30 2 24 30 2 24 30 2 24 31 4 23 30 2 24 31 3 25 32 5 24 33 4 24 33 4 26 32 4 27 34 5 27 33 5 28 33 5 27 37 5 26 45 7 28 46 7 26 38 5 24 35 6 28 34 5 27 35 6 28 34 5 27 32 4 27 32 4 26 33 5 27 29 2 19 29 2 21 30 1 19 28 2 15 28 1 10 28 1 8 28 1 8 28 1 8 27 0 5 27 1 4 27 1 4 27 1 2 27 1 2 27 1 2 26 0 1 27 1 2 27 1 2 27 1 2 
32 4 27 33 5 28 32 4 27 32 4 27 32 4 27 33 4 26 33 5 27 33 5 27 35 6 28 33 5 27 35 6 28 35 6 26 33 5 27 33 5 27 34 5 27 35 6 28 33 5 27 32 4 26 33 3 27 32 4 27 34 4 28 34 4 28 34 4 28 33 3 27 32 4 27 31 3 26 32 4 27 32 4 27 32 4 27 32 4 27 32 4 27 32 4 27 32 4 27 32 4 27 32 4 27 32 4 27 32 4 27 30 5 27 32 4 27 32 4 27 30 5 27 31 3 26 32 4 27 31 3 26 32 4 27 32 4 27 31 3 26 31 3 26 32 4 27 32 4 27 32 4 27 32 4 27 31 3 26 32 4 27 32 4 27 32 4 27 32 4 27 33 5 28 32 4 27 31 3 26 32 4 27 32 4 27 33 5 27 31 3 26 33 5 27 33 5 27 34 5 27 34 5 27 34 5 27 31 6 27 34 5 25 34 6 28 34 5 27 33 5 27 34 6 28 33 5 27 35 6 28 35 6 28 34 5 27 33 5 28 32 4 26 33 5 27 29 2 19 29 2 19 28 2 13 28 0 12 28 2 11 28 1 10 28 1 8 28 1 6 27 1 4 27 1 4 27 1 4 27 1 2 27 1 2 26 0 1 27 1 2 27 1 2 27 1 2 27 1 2 
31 3 26 32 4 26 32 4 26 32 4 26 32 4 27 33 5 28 32 4 27 32 4 26 34 5 27 35 6 26 34 6 28 35 6 28 34 5 27 34 5 27 35 6 28 35 6 28 34 5 27 34 4 28 33 5 28 33 5 27 33 4 26 33 3 27 33 3 29 34 4 28 32 4 27 32 4 27 33 5 28 33 5 28 32 4 27 32 4 27 32 4 27 32 4 27 32 4 27 32 4 27 32 4 27 32 4 27 32 4 27 32 4 27 32 4 27 33 5 28 33 5 28 31 3 26 32 4 27 31 3 26 32 4 27 33 3 27 32 4 27 32 4 27 32 4 27 32 4 27 30 5 27 32 4 27 33 5 28 32 4 27 29 4 26 31 3 26 32 4 27 33 5 28 32 4 27 31 6 28 32 4 27 31 6 27 34 5 27 33 5 27 32 4 27 34 6 29 34 5 27 34 5 27 33 5 28 33 3 27 34 6 28 33 5 27 34 5 27 35 6 28 34 5 27 33 5 27 34 5 27 33 4 26 34 5 27 32 4 27 32 4 27 32 4 27 29 2 19 29 2 17 28 2 15 28 0 12 26 0 9 28 3 9 27 2 8 28 1 6 28 2 5 27 1 4 27 1 4 26 0 1 26 0 1 27 1 2 27 1 2 27 1 2 27 1 2 27 1 2 
32 4 27 32 4 27 32 4 27 32 4 27 33 5 27 33 3 27 33 3 27 33 5 28 33 5 28 32 4 27 33 5 28 33 3 29 33 5 27 33 4 26 33 5 27 33 5 27 34 5 27 33 5 27 32 4 26 33 5 27 32 4 27 33 5 28 33 5 28 32 4 27 32 4 27 32 4 27 33 5 28 32 4 27 32 4 27 32 4 27 32 4 27 32 4 27 32 4 27 32 4 27 32 4 27 30 5 27 31 3 26 31 3 26 32 4 27 29 4 26 32 4 27 32 4 27 30 5 27 32 4 27 30 5 27 32 4 27 32 4 27 32 4 27 32 4 27 33 3 27 30 5 27 32 4 27 32 4 27 32 4 27 32 4 27 32 4 27 32 4 27 32 4 27 33 3 27 32 4 27 32 4 27 32 4 27 32 4 27 33 5 28 33 5 28 33 5 28 32 4 26 33 5 27 33 5 27 35 6 28 34 5 27 34 6 28 36 7 29 34 5 27 34 5 27 34 6 28 33 5 27 34 5 27 33 3 27 33 3 27 33 5 27 32 4 27 30 3 18 28 1 18 28 2 13 30 4 13 28 1 8 28 1 8 28 1 6 28 1 6 27 1 4 27 1 4 27 1 2 27 1 2 27 1 2 27 1 2 27 1 2 25 0 0 27 1 2 25 0 0 
32 4 27 32 4 27 32 4 27 32 4 27 33 5 27 34 4 28 33 5 28 33 5 27 32 4 26 32 4 27 32 4 27 33 4 26 33 4 26 30 5 26 33 4 26 32 4 26 33 5 27 34 5 27 33 5 27 34 5 27 32 4 27 33 5 28 33 5 28 32 4 27 32 4 27 31 3 26 32 4 27 33 5 28 32 4 27 33 5 28 32 4 27 32 4 27 32 4 27 32 4 27 30 5 27 28 4 26 32 4 27 32 4 27 32 4 27 32 4 27 30 5 27 30 5 27 33 5 28 30 5 27 31 3 26 32 4 27 32 4 27 29 4 26 31 3 26 32 4 27 32 4 27 31 3 26 32 4 27 32 4 27 32 4 27 32 4 27 32 4 27 32 4 27 32 4 26 30 5 26 32 4 27 32 4 27 32 4 27 33 5 28 32 4 26 33 5 27 33 5 27 33 5 27 33 5 27 34 5 27 34 5 27 34 5 27 35 6 28 35 6 28 31 6 28 33 5 27 33 5 28 33 5 28 34 6 29 30 5 26 32 4 27 32 4 29 28 1 16 28 1 16 28 2 13 28 2 13 26 0 9 26 1 7 28 1 6 28 2 5 27 1 4 27 1 2 26 0 1 26 0 1 27 1 2 27 1 2 27 1 2 27 1 2 27 1 2 28 2 3 
32 4 27 32 4 27 32 4 27 31 3 26 32 4 27 32 4 27 31 3 26 33 5 28 32 4 27 33 5 28 32 4 27 33 5 27 33 5 28 33 5 28 33 5 28 33 5 28 32 4 27 32 4 27 32 4 27 32 4 27 33 5 28 32 4 27 32 4 27 32 4 27 32 4 27 32 4 27 31 3 26 32 4 27 32 4 27 32 4 27 32 4 27 32 4 27 32 4 27 32 4 27 32 4 27 32 4 27 32 4 27 32 4 27 32 4 27 30 5 27 32 4 27 32 4 27 29 5 27 32 4 27 32 4 27 32 4 27 33 3 27 32 4 27 32 4 27 32 4 27 32 4 27 31 3 26 32 4 27 32 4 27 32 4 27 32 4 27 33 3 27 32 4 27 30 5 27 32 4 27 32 4 26 33 5 27 33 5 27 33 3 27 33 5 28 34 5 27 32 4 27 33 5 28 32 4 26 32 4 26 32 4 26 33 4 26 33 4 26 35 6 28 33 4 26 33 4 26 32 4 27 32 4 26 32 4 27 32 4 27 30 4 29 31 3 25 27 1 14 28 2 13 28 2 11 27 2 8 28 1 8 28 1 6 28 1 6 27 0 5 28 2 5 27 1 4 27 1 2 27 1 2 27 1 2 27 1 2 27 1 2 27 1 2 26 0 1 27 1 2 
32 4 27 32 4 27 32 4 27 32 4 27 33 5 28 32 4 27 32 4 27 32 4 26 34 6 28 32 4 27 33 5 28 33 5 27 33 5 28 33 5 28 32 4 27 33 5 28 32 4 27 32 4 27 32 4 27 32 4 27 33 5 28 32 4 27 32 4 27 32 4 27 32 4 27 32 4 27 32 4 27 32 4 27 33 5 28 32 4 27 31 3 26 32 4 27 33 5 28 33 3 27 32 4 27 29 4 26 32 4 27 33 3 27 32 4 27 31 3 26 32 4 27 32 4 27 32 4 27 32 4 27 32 4 27 31 3 26 31 3 26 33 3 27 32 4 27 32 2 26 30 2 25 31 3 26 31 3 26 32 4 27 30 5 27 32 4 27 32 4 27 31 3 26 32 4 29 30 4 29 32 4 27 32 4 27 30 5 27 33 5 28 30 5 27 33 5 27 33 5 27 32 4 27 32 4 29 32 4 27 32 4 27 32 4 27 33 3 27 33 5 27 33 5 27 32 4 26 33 5 28 31 3 26 32 4 27 29 4 26 30 5 27 30 3 20 28 2 15 28 2 13 29 2 11 27 1 10 27 2 8 26 1 5 28 1 6 27 1 4 27 1 4 27 1 2 27 1 2 27 1 2 28 2 3 27 1 2 27 1 2 26 0 1 27 1 2 27 1 2 
31 3 25 31 3 25 31 3 25 31 3 25 30 2 24 31 3 25 29 1 23 31 3 25 29 1 23 30 2 24 30 3 22 30 3 22 31 4 23 31 4 23 31 4 23 31 4 23 31 4 23 31 4 23 30 5 24 31 4 23 31 3 25 32 4 26 31 3 25 31 3 25 30 2 24 30 2 24 30 2 24 30 2 24 31 3 25 31 3 25 31 3 25 30 2 24 30 2 24 31 3 25 30 2 24 28 3 24 31 3 25 30 2 24 31 3 25 31 3 25 32 4 26 30 2 24 29 4 25 31 3 25 30 2 24 30 2 24 31 3 25 31 3 25 31 3 25 31 3 25 31 3 25 31 3 25 28 3 24 30 2 24 30 2 24 30 2 24 30 2 24 31 2 22 30 3 22 30 3 22 30 2 24 31 3 25 30 2 24 31 4 23 31 4 23 31 3 25 30 3 22 31 4 21 32 3 25 30 2 24 31 3 25 31 3 25 31 3 25 31 4 23 31 4 23 31 3 25 28 3 24 31 4 23 30 3 22 30 3 22 29 2 19 28 2 13 28 2 13 28 2 13 28 2 11 27 2 8 28 1 6 27 0 7 28 2 5 27 1 4 27 1 2 27 1 2 27 1 2 27 1 2 27 1 2 27 1 2 27 1 2 26 0 1 27 1 2 27 1 2 
29 2 17 29 2 17 28 1 16 28 1 16 29 2 19 28 1 16 29 2 17 28 1 18 29 2 19 29 2 19 29 2 19 29 2 21 29 2 19 29 2 19 29 2 19 29 2 19 29 2 19 28 1 18 28 1 18 29 2 19 29 2 17 29 2 17 29 2 17 29 2 17 29 2 17 29 2 17 29 2 17 28 1 16 29 2 17 29 2 17 29 2 17 29 2 17 29 2 17 28 1 16 29 2 17 29 2 17 28 1 16 29 2 17 29 2 17 29 2 17 29 2 17 29 2 17 29 2 17 28 1 16 28 1 16 28 1 16 29 2 17 29 2 17 29 2 17 29 2 17 29 2 17 29 2 17 29 2 17 29 2 17 28 4 18 29 2 17 29 2 17 29 2 17 30 2 17 29 2 17 29 2 17 29 2 19 29 2 17 29 2 19 29 2 19 28 1 18 29 2 21 29 2 19 29 2 19 29 2 19 30 1 19 32 1 19 29 2 19 29 2 19 29 2 19 29 2 19 28 1 16 29 2 17 29 2 17 29 1 15 29 1 15 28 0 12 28 1 10 28 2 11 29 2 9 28 1 6 28 1 6 28 2 5 27 1 4 27 1 4 27 1 4 27 1 2 27 1 2 26 0 1 26 0 1 26 0 1 27 1 2 27 1 2 27 1 2 27 1 2 
28 1 16 28 1 16 28 1 16 28 1 16 29 2 17 28 1 16 28 1 16 29 2 17 30 2 17 29 2 17 28 1 16 29 2 17 30 2 17 29 2 17 29 1 16 30 2 17 29 2 17 30 2 17 29 1 16 29 2 17 29 2 17 29 2 17 29 2 17 29 2 17 28 1 16 28 1 16 29 2 17 28 1 16 30 3 18 28 1 16 28 1 16 28 1 16 30 2 17 30 2 17 29 1 16 28 1 16 29 2 17 29 2 17 29 2 17 28 1 16 28 1 16 29 2 17 28 1 16 29 2 17 29 2 17 29 2 17 29 2 17 29 2 17 30 2 17 29 2 17 29 2 17 29 2 17 29 2 19 30 1 19 28 1 16 29 2 17 29 2 17 30 2 17 29 2 17 28 1 16 28 1 16 28 1 16 28 1 16 30 2 17 28 1 16 30 2 17 28 1 16 29 2 17 29 2 19 29 0 18 29 2 19 29 2 17 29 2 17 29 2 17 29 2 17 29 2 17 28 1 16 29 3 16 28 2 15 28 2 13 29 1 13 29 1 13 28 1 10 28 3 9 27 2 8 26 1 5 27 0 5 27 1 4 27 1 4 28 2 3 27 1 2 27 1 2 27 1 2 27 1 2 27 1 2 27 1 2 27 1 2 26 0 1 26 0 1 27 1 2 
28 2 15 29 3 16 28 2 15 28 2 15 28 2 15 30 2 16 28 2 15 28 2 15 29 1 15 29 1 15 27 1 14 28 2 15 28 2 15 28 2 15 29 3 16 28 2 15 28 2 15 29 3 16 29 3 16 28 2 15 28 2 15 28 2 15 29 3 16 29 3 16 28 2 15 28 2 15 28 2 15 28 2 15 28 2 15 28 2 15 29 3 16 28 2 15 28 2 15 28 2 15 28 2 15 29 3 16 29 3 16 29 1 15 29 1 15 29 3 16 30 2 16 28 0 14 28 2 15 29 1 15 28 2 15 29 1 15 28 2 15 28 2 15 29 1 15 28 2 15 28 2 15 29 1 15 30 2 16 29 1 15 26 2 15 28 2 15 28 2 15 29 3 16 28 2 15 29 1 15 28 2 15 28 2 15 28 2 15 28 2 15 26 2 15 28 2 15 28 2 15 27 1 14 29 1 15 28 2 15 27 1 14 28 2 15 28 2 15 29 1 15 29 1 15 28 2 15 28 2 15 28 2 13 28 2 13 27 1 10 28 2 11 28 1 10 28 1 6 28 1 6 28 1 6 27 0 5 28 2 5 28 2 5 26 0 3 27 1 4 27 1 2 27 1 2 26 0 1 26 0 1 27 1 2 26 0 1 27 1 2 26 0 1 26 0 1 29 3 4 
28 2 13 29 3 14 28 0 14 29 3 14 28 2 13 29 1 13 29 1 13 26 3 13 28 2 13 29 1 13 28 2 13 28 2 13 28 0 14 28 0 12 28 2 15 28 2 13 28 2 13 28 2 15 29 1 13 29 1 15 28 0 12 28 2 13 28 0 12 28 2 13 28 2 13 28 0 12 28 2 13 28 0 12 28 2 13 28 2 13 29 1 13 29 1 13 30 2 14 29 1 13 29 3 14 29 3 14 28 2 13 28 0 12 28 2 13 28 2 13 28 2 13 27 1 12 28 2 13 28 2 13 28 2 13 29 1 13 28 2 13 28 2 13 28 2 13 28 2 13 28 2 13 28 0 12 28 2 13 28 2 13 27 1 12 28 2 13 28 2 13 28 2 13 28 2 13 29 3 14 29 1 13 29 1 13 28 2 13 28 2 13 27 1 12 28 2 13 28 2 13 27 1 12 28 2 13 28 2 13 27 1 12 28 2 13 27 1 12 27 0 11 29 1 13 29 3 14 27 1 12 28 1 10 26 0 9 28 2 11 28 1 8 27 0 7 27 0 5 28 1 8 28 1 6 26 1 4 27 2 5 27 1 4 26 0 3 27 1 2 27 1 2 28 2 3 26 0 1 27 1 2 27 1 2 27 1 2 27 1 2 27 1 2 27 1 2 27 1 2 
27 1 10 29 1 13 27 1 10 28 1 10 28 1 10 28 2 11 27 1 10 28 0 12 27 1 10 27 1 10 28 1 10 28 2 11 27 1 10 28 2 11 28 2 11 28 2 11 28 2 11 28 2 11 28 2 11 29 3 12 26 3 11 29 2 11 29 2 11 27 1 10 28 2 11 28 1 10 29 2 11 26 3 11 28 2 11 28 2 11 28 2 11 27 1 10 26 0 9 28 2 11 26 0 9 27 1 10 29 2 11 28 2 11 28 2 11 28 2 11 27 1 10 28 2 11 29 3 12 31 1 11 28 2 11 27 0 9 27 1 10 27 1 10 27 1 10 27 1 10 27 1 10 28 2 11 28 1 10 28 1 10 29 2 11 29 2 11 29 2 11 28 1 10 28 1 10 28 1 10 28 1 10 28 0 12 28 1 10 27 1 10 27 1 12 27 1 10 27 1 10 27 1 10 27 0 11 28 2 11 28 2 11 29 2 11 27 1 10 28 1 10 30 0 8 28 3 9 28 1 8 27 2 8 27 0 7 27 2 6 28 1 6 27 0 5 26 1 5 28 2 5 28 2 5 26 1 4 27 1 4 26 0 3 27 1 4 27 1 2 28 2 3 27 1 2 27 1 2 27 1 2 27 1 2 27 1 2 26 0 1 27 1 2 26 0 1 27 1 2 
27 1 10 27 1 10 28 1 8 27 1 10 28 1 10 28 1 8 27 1 10 29 2 9 30 0 10 28 3 9 28 2 11 28 1 8 28 1 10 28 1 10 28 1 8 28 1 8 28 1 8 28 1 8 28 1 10 28 1 10 27 1 10 28 1 10 27 1 10 28 1 10 28 1 10 27 1 10 28 1 10 27 1 10 27 1 10 28 1 10 27 1 10 28 1 10 27 1 10 28 1 10 27 1 10 27 1 10 27 1 10 28 2 11 29 2 11 27 1 10 28 1 10 27 1 10 28 1 10 27 1 10 29 2 11 27 1 10 28 1 10 29 2 11 28 1 10 28 2 11 27 1 10 27 1 10 27 1 10 27 1 10 27 1 10 27 1 10 27 1 10 27 1 10 27 1 10 27 1 10 27 1 10 28 2 11 28 2 11 28 1 10 29 2 11 28 1 10 27 0 9 29 2 11 27 0 9 27 1 10 30 3 12 27 1 10 28 1 8 28 1 8 27 0 7 27 0 7 28 1 8 28 1 10 26 1 7 28 1 6 28 1 6 27 1 4 27 1 4 28 2 5 28 2 5 27 1 4 27 1 2 27 1 2 27 1 2 27 1 2 27 1 0 27 1 2 27 1 2 27 1 2 27 1 2 27 1 2 27 1 2 26 0 1 27 1 2 26 0 1 
28 1 6 28 1 6 27 0 5 28 1 6 28 1 8 28 1 6 28 1 8 28 1 6 28 1 8 29 2 7 28 1 8 27 0 5 27 2 8 27 2 8 28 3 7 27 2 6 27 2 6 27 2 6 28 3 9 27 2 8 27 0 7 28 1 8 26 1 7 28 1 8 27 0 7 27 2 8 27 0 7 28 1 8 28 1 8 27 0 7 28 1 8 28 1 8 28 1 8 29 2 9 28 1 8 29 2 9 28 1 8 28 1 8 28 1 8 28 1 8 29 2 9 28 1 8 28 1 8 26 1 7 27 2 8 27 0 7 28 1 8 28 1 8 28 1 8 28 1 8 28 1 8 27 2 8 28 1 8 27 0 7 27 0 7 27 0 7 28 1 8 28 1 8 28 1 8 28 1 8 27 2 6 27 2 8 28 1 6 27 0 5 28 1 8 28 1 6 28 1 6 29 2 9 29 3 6 28 1 6 26 1 5 28 1 6 28 1 6 27 0 5 28 1 6 27 0 5 28 1 6 27 0 5 27 0 5 28 1 6 28 2 5 27 1 4 27 1 4 27 1 4 27 1 2 27 1 2 27 1 2 27 1 2 27 1 2 27 1 2 27 1 2 26 0 1 27 1 2 29 0 2 27 1 2 27 1 2 26 0 1 26 0 1 25 1 1 27 1 2 
26 1 5 28 1 6 28 1 6 27 0 5 28 1 6 27 0 5 27 0 5 28 1 6 28 1 6 27 0 5 27 0 5 27 0 5 28 1 6 28 1 6 28 1 6 28 1 6 28 1 6 27 0 5 28 1 6 28 1 6 28 1 6 28 1 6 28 1 6 28 1 6 28 1 6 28 1 6 28 1 6 28 1 6 27 0 5 27 0 5 28 1 6 27 0 5 28 1 6 28 1 6 28 1 6 28 1 6 28 1 6 26 1 5 29 0 5 27 0 5 29 2 7 27 2 6 28 1 6 30 1 6 28 1 6 27 0 5 26 1 5 27 0 5 28 1 6 28 1 6 27 0 5 28 1 6 28 1 6 28 1 6 29 2 7 28 1 6 28 1 6 28 1 6 28 1 6 28 1 6 29 2 7 28 1 6 28 1 6 29 2 7 27 0 5 28 1 6 28 1 6 27 0 5 27 0 5 27 2 6 27 0 5 27 0 5 28 1 6 27 0 5 29 2 7 27 1 4 28 1 6 27 1 4 27 1 4 27 1 4 27 1 4 27 0 5 27 1 4 26 2 2 26 2 2 27 1 2 27 1 2 27 1 2 26 0 1 26 0 1 27 1 0 28 2 1 29 0 2 27 1 2 26 0 1 29 0 2 26 0 1 28 2 3 26 0 1 26 0 1 
28 2 5 27 1 4 27 1 4 27 1 4 28 2 5 27 1 4 28 2 5 27 1 4 27 1 4 27 1 4 28 2 5 27 1 4 27 1 4 27 1 4 27 1 4 27 1 4 27 1 4 27 1 4 27 1 4 27 1 4 27 1 4 28 2 5 27 1 4 27 1 4 27 1 4 28 2 5 27 1 4 28 2 5 27 1 4 27 1 4 27 1 4 27 1 4 27 1 4 28 2 5 27 1 4 28 2 5 27 1 4 28 2 5 28 2 5 27 1 4 27 1 4 27 1 4 27 1 4 28 2 5 27 1 4 30 1 5 27 1 4 27 1 4 27 1 4 27 1 4 27 1 4 27 1 4 27 1 4 27 1 4 27 1 4 27 1 4 28 2 5 28 2 5 28 2 5 27 1 4 28 2 5 27 1 4 27 1 4 27 1 4 27 1 4 28 2 5 28 2 5 27 1 4 27 1 4 27 1 4 27 1 4 27 1 4 27 1 4 27 1 4 27 1 4 27 1 4 27 1 2 27 1 2 27 1 4 29 0 2 27 1 2 29 0 2 29 0 2 29 0 2 27 1 2 26 0 1 27 1 2 26 2 0 27 1 2 29 0 2 26 0 1 26 0 1 26 0 1 29 0 2 28 0 1 27 1 2 27 1 2 29 0 2 26 0 1 26 0 1 
28 2 5 27 1 4 27 1 4 27 1 4 27 1 4 27 1 4 27 1 4 27 1 4 28 2 5 27 1 4 26 0 3 27 1 4 27 1 4 27 1 4 28 2 5 28 2 5 27 1 4 27 1 4 27 1 4 28 2 5 27 1 4 27 1 4 28 2 5 27 1 4 28 2 5 27 1 4 28 2 5 27 1 4 30 1 5 27 1 4 27 1 4 27 1 4 27 1 4 27 1 4 29 0 4 30 1 5 28 2 5 30 1 5 29 0 4 27 1 4 27 1 4 27 1 4 29 0 4 27 1 4 29 0 4 27 1 4 27 1 4 27 1 4 28 2 5 28 2 5 27 1 4 27 1 4 26 0 3 27 1 4 27 1 4 27 1 4 27 1 4 27 1 4 27 1 4 27 1 4 27 1 4 29 2 7 27 1 4 28 2 5 28 1 6 27 1 4 27 1 4 27 1 4 27 1 4 27 1 4 27 1 4 28 2 5 27 1 4 27 1 4 27 1 4 26 0 3 27 1 2 26 1 4 29 0 4 27 1 2 27 1 2 26 0 1 27 1 2 26 0 1 27 1 2 27 1 2 27 1 2 27 1 2 27 1 2 28 0 1 27 1 2 25 0 0 27 1 2 27 1 2 26 0 1 26 0 1 26 0 1 27 1 2 26 0 1 27 1 2 
24 0 0 26 0 3 29 0 4 27 1 2 26 0 1 27 1 2 27 1 2 26 0 1 26 0 1 27 1 2 27 1 2 27 1 2 26 0 1 27 1 2 29 0 2 29 0 2 29 0 2 29 0 2 27 1 2 27 1 2 27 1 2 26 0 1 27 1 2 26 0 1 26 0 1 27 1 2 26 0 1 27 1 2 27 1 2 28 2 3 27 1 2 29 0 2 27 1 2 27 1 2 27 1 2 27 1 2 26 0 1 26 0 1 27 1 2 27 1 2 27 1 2 26 0 1 27 1 2 28 0 1 27 1 2 27 1 2 26 0 1 29 0 2 27 1 2 26 0 1 29 0 2 27 1 2 27 1 2 27 1 2 27 1 2 27 1 2 26 0 1 27 1 2 27 1 2 27 1 2 26 0 1 27 1 2 27 1 2 27 1 2 27 1 2 26 0 1 27 1 2 27 1 2 27 1 2 27 1 2 26 0 1 26 0 1 26 0 1 26 0 1 26 0 1 27 1 2 27 1 2 27 1 0 27 2 0 29 0 2 26 0 1 26 0 1 29 0 2 28 0 1 26 2 2 29 0 2 28 0 1 27 1 2 26 0 1 26 0 3 27 1 2 29 0 2 27 1 2 26 0 1 26 0 1 26 0 1 27 1 2 26 0 1 27 1 2 26 0 1 
27 1 2 26 0 1 26 0 1 29 0 2 27 1 2 27 1 2 26 0 1 27 1 2 27 1 2 26 0 1 29 3 4 27 1 2 27 1 2 26 0 1 26 0 1 27 1 2 26 0 1 27 1 2 27 1 2 26 0 1 27 1 2 27 1 2 27 1 2 27 1 2 27 1 2 27 1 2 27 1 2 27 1 2 29 0 2 27 1 2 27 1 2 27 1 2 26 0 1 28 0 1 27 1 2 26 2 2 27 1 2 27 1 2 27 1 2 28 0 1 27 1 2 28 0 1 26 0 1 28 0 1 30 1 3 27 1 2 26 0 1 27 1 2 28 0 1 27 1 2 26 0 1 26 0 1 27 1 2 28 0 1 26 0 1 27 1 2 28 2 3 27 1 2 29 0 2 26 0 1 28 0 1 29 0 2 26 0 1 26 0 1 29 0 2 26 0 1 27 1 2 29 0 2 27 1 2 28 0 1 27 1 2 27 1 2 27 1 2 27 1 2 27 1 2 26 0 1 26 2 2 26 0 1 27 1 2 26 0 1 27 1 2 27 1 2 26 0 1 27 1 2 27 1 2 27 1 2 26 0 1 27 1 2 26 0 1 27 1 2 27 1 2 26 0 1 27 1 0 27 1 2 29 1 0 26 0 1 29 0 2 26 0 3 27 1 0 26 0 1 
27 1 2 26 0 1 27 1 2 26 0 1 27 1 2 26 0 1 27 1 2 27 1 2 27 1 2 27 1 2 27 1 2 27 1 2 26 0 1 26 0 1 27 1 2 26 0 1 27 1 2 26 0 1 26 0 1 27 1 2 29 0 2 26 0 1 27 1 2 27 1 2 29 0 2 27 1 2 27 1 2 26 0 1 26 0 1 26 0 1 27 1 2 28 0 1 26 0 1 27 1 2 27 1 2 27 1 2 26 0 1 27 1 2 27 1 2 27 1 2 26 0 1 28 0 1 26 0 1 27 1 2 27 1 2 27 1 2 28 0 1 27 1 2 26 0 1 26 2 2 28 2 3 27 1 2 27 1 2 28 0 1 26 0 1 26 0 1 26 0 1 27 1 2 29 0 2 27 1 2 29 0 2 29 0 2 27 1 2 27 1 2 27 1 2 26 0 1 27 1 2 29 0 2 27 1 2 27 1 2 27 1 2 26 0 1 26 0 1 27 1 2 26 0 1 26 0 1 26 0 1 27 1 2 27 1 2 27 1 2 26 0 1 27 1 2 26 0 1 27 1 2 29 0 2 26 0 1 25 1 1 26 0 1 27 1 2 26 2 2 26 0 1 29 0 2 26 0 1 24 0 0 28 0 1 27 1 2 27 1 0 27 1 0 26 0 1 26 0 3 
27 1 2 27 1 2 27 1 2 27 1 2 25 0 0 26 0 1 27 1 2 28 0 1 26 0 1 29 0 1 27 1 2 29 0 2 26 0 1 27 1 2 27 1 2 27 1 2 26 0 1 28 2 3 26 0 1 26 0 1 26 2 2 26 0 1 29 0 2 27 1 2 27 1 2 27 1 2 27 1 2 26 0 1 27 1 2 26 0 1 27 1 2 29 0 2 27 1 2 27 1 2 26 0 1 29 0 2 29 0 2 27 1 2 28 0 1 29 0 2 27 1 2 30 1 3 27 1 2 27 1 2 26 0 1 26 0 1 27 1 2 27 1 2 27 1 2 27 1 2 26 0 1 26 0 1 27 1 2 27 1 2 27 1 2 26 0 1 25 0 0 26 0 1 26 0 1 27 1 2 25 0 0 26 0 1 26 0 1 27 1 2 26 0 1 27 1 2 27 1 2 29 0 2 27 1 2 27 1 2 26 0 1 29 0 2 27 1 2 26 0 1 29 0 2 26 0 1 27 1 2 26 0 1 27 1 2 27 1 2 27 1 2 26 2 2 27 1 2 26 0 1 26 0 1 27 1 2 27 1 2 27 1 2 26 0 1 26 0 1 26 0 1 26 0 1 30 0 0 29 0 4 26 0 1 26 0 1 27 1 2 28 0 1 27 1 0 26 0 1 
26 0 1 30 1 3 26 0 1 27 1 2 26 0 1 27 1 2 27 1 2 27 1 2 26 0 1 28 0 1 27 1 2 28 0 1 29 0 2 27 1 2 28 0 1 27 1 2 28 0 1 27 1 2 28 0 1 28 0 1 27 1 2 27 1 2 25 1 1 26 0 1 27 1 2 27 1 2 27 1 2 29 0 2 27 1 2 27 1 2 26 0 1 28 0 1 26 0 1 26 0 1 27 1 2 29 0 2 25 1 1 27 1 2 28 0 1 27 1 2 27 1 2 26 0 1 27 1 2 28 0 1 27 1 2 26 0 1 26 2 2 26 0 1 26 0 1 27 1 2 27 1 2 27 1 2 27 1 2 27 1 2 27 1 2 27 1 2 26 0 1 26 0 1 27 1 2 27 1 2 26 0 1 27 1 2 27 1 2 26 0 1 27 1 2 27 1 2 27 1 2 28 0 1 27 1 2 26 0 1 26 0 1 27 1 2 26 0 1 27 1 2 26 0 1 27 1 2 27 1 2 27 1 2 26 0 1 27 1 2 26 2 2 27 1 2 27 1 2 26 0 1 27 1 2 26 0 1 26 0 1 27 1 2 27 1 2 27 1 2 26 0 1 26 0 1 26 0 0 27 1 2 28 0 0 26 0 1 26 0 1 27 1 2 26 0 0 29 0 1 
27 1 2 29 0 2 26 0 1 27 1 2 27 1 2 25 0 0 26 0 1 26 0 1 26 0 1 27 1 2 27 1 2 27 1 2 26 0 1 26 0 1 27 1 2 26 0 1 27 1 2 26 0 1 26 0 1 26 0 1 27 1 2 27 1 2 29 0 2 26 0 1 29 0 2 26 0 1 29 0 2 27 1 2 27 1 2 28 0 1 29 0 2 29 0 2 27 1 2 26 0 1 26 0 1 28 0 1 29 0 2 26 0 1 27 1 2 26 0 1 30 0 2 29 0 2 27 1 2 26 0 1 27 1 2 26 0 1 26 0 1 29 0 2 27 1 2 26 0 1 27 1 2 28 0 1 27 1 2 29 0 2 29 0 2 26 0 1 27 1 2 28 0 1 29 0 2 28 2 3 26 0 1 26 0 1 28 2 3 27 1 2 26 0 1 27 1 2 28 2 3 27 1 2 27 1 2 27 1 2 27 1 2 26 0 1 26 0 1 27 1 2 28 2 3 27 1 2 26 0 1 27 1 2 27 1 2 26 0 1 27 1 2 26 0 1 26 0 1 28 2 3 26 0 1 27 1 2 27 1 2 27 1 2 27 1 2 26 0 1 27 1 2 26 0 1 28 0 1 27 1 0 26 0 1 27 1 2 29 1 0 28 0 0 29 0 2 27 1 0 
27 1 2 27 1 2 26 0 1 28 2 3 26 0 1 27 1 2 27 1 2 27 1 2 28 2 3 27 1 2 27 1 2 26 0 1 26 0 1 27 1 2 27 1 2 28 0 1 27 1 2 28 0 1 27 1 2 27 1 2 29 0 2 26 0 1 28 0 1 27 1 2 26 0 1 27 1 2 26 0 1 26 0 1 27 1 2 27 0 0 29 0 2 27 1 2 27 1 2 29 0 2 29 0 2 27 1 2 28 0 1 26 0 1 28 0 1 26 0 1 27 1 2 26 0 1 29 0 2 26 0 1 27 1 2 29 0 2 28 0 1 26 0 1 27 1 2 28 0 1 28 0 1 25 0 0 27 1 2 26 0 1 29 0 2 26 0 1 27 1 2 28 0 1 27 1 2 27 1 2 27 1 2 26 0 1 27 1 2 26 0 1 29 0 2 27 1 2 27 1 2 27 1 2 27 1 2 27 1 2 26 0 1 29 0 2 27 1 2 27 1 2 28 0 1 27 1 2 26 2 2 27 1 2 28 0 1 28 0 1 28 0 1 27 1 2 26 0 1 26 0 1 27 1 2 26 2 2 27 1 2 26 0 1 28 2 3 27 1 2 24 0 0 27 1 2 27 1 2 29 1 0 26 0 1 28 0 1 27 1 0 24 0 0 27 1 2 27 1 0 
27 1 2 27 1 2 26 0 1 26 0 1 26 0 1 27 1 2 27 1 2 27 1 2 26 0 1 27 1 2 26 0 1 26 0 1 27 1 2 26 0 1 26 0 1 29 0 2 28 2 3 28 0 1 27 1 2 27 1 2 26 0 1 28 0 1 26 0 1 28 0 1 27 1 2 27 1 2 26 0 1 26 0 1 28 0 1 29 0 2 26 0 1 27 1 2 28 0 1 28 0 1 29 0 2 26 0 1 27 1 2 26 0 1 29 0 2 27 1 2 28 0 1 27 1 2 29 0 2 29 0 2 27 1 2 26 0 1 26 2 2 26 0 1 27 1 2 27 1 2 27 1 2 28 2 3 26 0 1 26 0 1 27 1 2 26 0 1 27 1 2 27 1 2 27 1 2 26 0 1 26 0 1 26 0 1 29 0 2 26 0 1 28 0 1 26 0 1 26 0 1 27 1 2 26 0 1 26 0 1 27 1 2 26 0 1 27 1 2 27 1 2 26 0 1 26 0 1 28 0 1 28 0 1 27 1 2 27 1 2 26 0 1 29 0 2 27 1 2 29 0 2 28 0 0 29 1 0 29 1 0 27 1 0 26 0 0 28 0 0 28 0 0 29 1 0 27 1 0 29 0 2 27 1 0 29 1 0 27 1 2 29 0 2 27 1 0 28 0 1 
26 0 1 27 1 2 27 1 2 28 0 1 26 0 1 27 1 2 26 0 1 29 0 2 27 1 2 28 0 1 27 1 2 29 0 2 29 0 2 28 0 1 28 0 1 27 1 2 28 0 1 26 0 1 28 0 1 28 0 1 26 0 1 27 1 2 28 0 1 27 1 2 28 0 1 29 0 2 28 0 1 29 0 2 28 0 1 27 1 2 27 1 2 29 0 2 29 0 2 28 0 1 27 1 2 29 0 1 30 0 2 29 0 2 30 1 3 27 1 2 28 0 1 27 1 2 26 0 1 27 1 2 26 0 1 27 1 2 29 0 2 26 0 1 27 1 2 27 1 2 27 1 2 28 2 3 27 1 2 27 1 2 27 1 2 26 0 1 26 0 1 26 0 1 27 1 2 26 0 1 27 1 2 27 1 2 29 0 2 27 1 2 30 0 2 27 1 2 27 1 2 27 1 2 27 1 2 28 0 1 27 1 2 26 0 1 27 1 2 28 2 3 27 1 2 27 1 2 27 1 2 28 0 1 29 0 2 27 1 2 29 0 2 29 0 2 26 0 1 29 0 2 27 1 0 26 0 1 28 0 0 27 1 0 26 0 1 28 0 0 27 1 0 26 0 1 27 1 0 26 0 1 27 1 2 27 1 2 28 2 1 27 1 0 27 1 2 26 0 1 
