P3
100 50
255
40 22 48 36 20 46 34 20 45 31 19 43 31 19 43 30 18 42 26 16 41 26 16 41 26 16 41 26 16 41 28 15 41 26 16 41 29 16 42 29 16 42 30 18 42 31 17 42 34 20 45 33 19 42 38 20 44 70 43 62 75 46 68 63 38 59 36 21 44 35 20 43 33 19 44 33 19 42 30 18 42 30 17 43 29 17 41 27 17 42 27 17 42 26 16 41 26 16 40 22 14 38 23 15 39 23 13 40 21 16 39 21 13 37 17 13 36 19 14 37 18 12 38 19 13 39 19 14 37 18 12 38 18 12 38 18 12 38 19 13 39 18 12 38 18 12 38 19 14 37 19 13 39 19 13 39 19 13 39 19 13 39 19 13 39 19 13 39 19 13 39 19 13 39 19 13 39 18 12 38 19 13 39 22 14 38 20 15 38 23 15 39 25 16 43 26 16 40 30 17 43 67 40 59 76 45 63 67 40 59 41 23 47 35 20 43 36 21 44 49 27 50 70 41 61 74 46 68 73 44 64 65 40 61 51 27 51 37 21 47 34 18 44 33 19 44 33 19 44 31 19 43 28 18 43 26 16 41 26 16 41 24 16 40 22 14 38 23 14 41 23 14 41 19 13 39 18 12 38 17 13 38 16 12 37 16 12 37 16 12 37 14 12 36 15 11 36 16 12 37 
41 23 49 37 21 47 34 20 45 33 19 44 32 20 44 28 18 42 27 17 42 24 16 40 27 17 42 27 17 42 26 16 41 26 16 43 29 17 41 28 18 42 30 18 42 33 19 44 34 20 45 34 20 45 38 20 44 70 42 64 75 46 66 63 38 59 36 21 44 33 19 44 32 18 43 31 19 43 29 19 44 27 17 41 26 16 43 27 17 42 26 16 40 26 16 41 23 15 39 22 13 40 19 13 39 19 14 37 19 14 37 19 13 39 18 12 38 16 12 35 17 11 37 18 12 38 17 13 38 17 13 38 16 12 37 17 13 36 17 13 36 17 13 38 18 12 38 19 13 39 19 13 39 19 14 37 23 14 41 20 14 40 19 13 39 19 13 39 19 13 39 21 15 41 20 14 40 20 14 40 23 15 39 23 15 39 21 16 39 23 15 39 25 17 41 26 16 40 30 17 43 73 41 62 75 44 62 55 31 53 36 20 46 39 21 47 59 34 55 74 45 65 75 46 66 70 43 62 55 31 53 37 22 45 34 20 43 35 20 43 33 19 44 32 18 43 29 17 41 29 16 42 26 17 38 26 16 41 23 13 38 23 15 39 20 15 38 21 13 37 19 14 37 16 12 35 15 11 36 15 11 36 16 12 37 15 11 34 15 11 38 13 10 37 13 10 37 14 11 38 
38 22 48 37 22 45 33 18 41 32 20 42 32 18 43 31 19 43 27 17 42 26 16 41 27 17 42 28 16 40 26 16 40 26 16 41 28 18 42 28 18 42 31 19 43 34 20 45 32 18 43 34 20 45 37 22 45 70 42 64 74 45 63 62 37 58 34 20 46 34 18 45 31 19 43 29 17 41 27 17 42 27 17 41 26 16 41 25 15 40 26 16 40 24 16 40 20 15 38 19 13 41 17 13 38 17 12 35 18 12 38 17 13 40 16 14 38 17 13 38 16 12 39 17 13 38 16 12 37 17 13 38 16 12 37 17 13 38 19 15 40 17 13 38 18 12 38 20 15 37 20 14 40 20 14 40 21 12 39 22 13 40 21 12 39 22 13 40 22 13 40 22 13 40 23 14 41 23 14 41 24 16 40 23 15 39 24 16 39 26 16 41 25 17 41 26 16 41 28 15 41 50 28 51 72 43 61 74 45 65 66 38 60 68 41 60 73 46 65 75 46 66 65 40 61 41 23 47 33 19 44 33 19 44 33 19 44 31 19 43 30 18 42 30 18 42 27 17 41 22 17 40 24 14 39 23 15 39 22 13 40 19 13 39 18 12 38 17 13 38 17 11 37 16 14 38 16 12 37 16 12 37 14 12 36 13 10 37 13 11 35 13 10 37 12 9 36 12 9 36 
41 23 47 40 22 46 34 20 43 33 19 42 34 20 45 33 19 44 30 18 42 29 16 42 30 18 40 29 17 41 29 17 41 27 17 44 28 18 42 30 18 42 31 19 43 34 19 42 34 19 42 34 20 43 43 24 46 74 42 63 73 46 65 58 37 56 32 20 42 32 18 43 32 18 43 27 17 41 27 17 42 25 15 40 25 17 40 24 15 42 23 15 39 23 15 39 19 14 37 17 11 37 16 12 35 16 12 35 16 12 37 15 13 37 16 12 37 14 12 36 13 10 37 16 11 41 16 12 37 15 11 36 16 12 37 16 12 37 17 13 38 17 13 38 19 13 39 22 13 40 22 13 40 20 15 38 20 15 38 22 17 40 22 14 38 23 15 39 24 16 40 24 16 40 24 16 40 24 16 40 24 16 40 24 16 40 25 17 41 25 15 40 27 17 41 29 17 41 28 15 41 27 17 41 46 27 49 67 39 61 74 42 63 73 44 64 70 41 61 52 30 51 34 20 45 32 18 43 33 19 45 31 17 43 31 19 43 29 17 41 29 17 41 27 14 40 25 15 40 23 15 39 23 15 39 19 14 37 19 13 39 18 12 40 17 13 38 15 11 36 15 11 36 14 12 34 13 11 35 14 12 36 13 11 35 13 11 35 13 11 35 13 11 35 13 10 37 13 9 36 
43 23 48 40 22 44 37 22 45 33 21 45 33 19 42 33 19 44 30 18 42 28 18 43 29 17 41 29 17 41 30 18 42 28 18 42 31 19 43 30 18 42 32 18 43 34 20 45 34 20 43 36 22 45 63 35 57 73 44 64 74 45 65 53 29 53 33 19 42 32 18 43 30 18 42 26 16 40 26 16 41 24 16 40 23 15 39 24 16 40 23 13 40 21 12 39 19 13 39 17 13 38 16 12 37 14 12 36 17 11 37 13 11 35 14 12 36 13 11 35 13 11 35 14 12 36 16 12 37 16 12 37 16 12 37 16 12 37 18 14 39 17 13 38 19 14 37 21 13 37 21 16 39 23 15 39 23 15 39 25 15 42 23 15 39 25 15 42 26 16 41 25 15 40 26 16 41 26 16 41 25 17 40 26 18 41 28 15 41 26 16 40 27 17 41 27 17 42 27 17 42 28 15 43 27 17 42 36 21 44 50 28 51 50 28 49 35 20 43 30 18 42 32 18 43 31 17 42 29 17 41 29 17 41 28 16 40 26 16 41 26 16 41 25 17 41 24 16 40 20 15 38 20 15 38 20 14 40 18 12 38 16 12 37 16 12 37 17 13 38 16 12 37 14 10 35 13 11 35 13 11 35 14 12 36 14 10 35 12 10 34 12 10 34 12 10 34 13 9 34 
43 23 48 41 21 46 36 21 44 35 19 45 35 20 43 35 20 43 32 18 43 31 19 43 30 18 42 31 19 43 29 17 41 30 17 43 31 18 44 31 19 41 31 19 41 32 20 44 36 20 46 65 36 58 73 46 65 74 47 66 72 43 63 36 21 44 31 18 44 32 18 43 29 16 42 26 16 40 23 15 39 23 15 39 21 16 39 22 13 40 20 11 38 19 13 39 18 12 38 16 12 37 15 11 36 16 12 37 12 10 34 14 10 35 14 11 38 12 9 36 12 9 36 13 11 35 15 11 36 15 11 36 16 12 37 17 13 38 18 12 38 19 13 39 22 14 38 24 16 40 24 16 40 25 15 40 27 17 42 50 28 49 35 19 45 26 16 41 26 16 41 28 18 42 26 16 40 27 17 41 27 17 42 27 17 42 28 16 40 28 18 42 28 15 41 27 17 41 26 16 41 26 16 40 27 17 42 26 16 41 26 16 40 29 17 41 29 17 41 30 18 42 30 18 42 29 17 41 28 16 40 25 17 41 26 16 41 25 15 40 23 15 39 21 16 39 20 15 38 21 13 37 19 13 39 18 12 38 16 12 37 16 12 37 15 11 36 14 12 36 14 12 36 13 11 35 12 9 36 13 10 37 13 10 37 12 9 36 12 9 36 10 10 36 11 8 35 10 10 36 
43 23 48 40 20 45 37 22 45 35 21 46 35 21 44 35 20 43 32 18 41 31 19 43 31 18 44 29 19 43 30 18 42 32 18 44 31 19 43 33 19 44 33 19 44 42 24 48 62 37 58 74 45 65 74 45 65 72 43 61 45 26 48 31 19 43 30 18 42 29 17 41 27 17 42 25 15 40 23 13 38 22 13 40 20 14 40 19 13 39 18 12 38 17 11 37 16 12 37 15 11 36 14 10 35 14 12 36 12 9 36 13 10 37 13 10 37 14 10 37 12 10 34 14 11 38 16 12 39 16 12 39 17 13 38 17 13 38 20 14 40 19 13 39 20 15 38 24 16 40 25 15 40 28 15 41 54 30 52 75 43 64 70 41 61 45 25 50 28 18 42 28 18 42 27 17 41 29 17 41 27 17 41 27 17 41 27 17 41 30 18 42 29 16 42 30 16 42 24 14 39 28 15 41 26 16 41 26 16 41 27 17 42 27 17 42 30 17 43 28 15 41 26 16 40 26 16 40 25 15 40 25 15 40 23 15 39 23 15 39 23 15 39 20 15 38 19 14 37 18 12 38 16 12 37 16 12 37 16 12 37 16 12 37 15 11 36 13 11 35 13 11 35 12 12 38 12 9 36 13 10 37 12 9 36 13 10 37 10 10 36 11 11 37 10 12 37 10 10 36 
43 23 48 42 24 48 40 22 46 37 21 47 37 21 48 37 22 45 33 19 42 33 19 42 33 19 44 33 19 44 31 17 42 31 18 44 32 20 44 33 19 42 46 27 49 69 40 60 74 47 66 73 46 63 70 41 61 43 25 47 31 19 43 31 17 43 30 18 42 30 18 42 24 16 40 24 16 39 20 14 40 19 13 39 18 12 38 18 12 38 17 11 37 15 13 37 15 11 36 13 11 35 12 10 34 13 11 35 13 10 37 10 10 36 12 9 36 12 9 36 11 8 35 14 11 38 15 11 38 14 10 35 16 12 37 16 12 37 22 13 40 18 14 37 23 15 39 25 17 41 26 16 41 30 16 41 60 35 56 73 44 62 75 43 64 72 40 61 47 28 50 32 18 43 31 19 43 29 17 41 31 17 42 30 18 42 28 15 41 30 18 42 29 17 41 26 18 42 25 15 40 25 17 41 23 15 39 25 15 40 25 15 40 26 16 41 25 15 40 25 15 40 24 16 39 23 15 39 20 15 38 21 13 37 22 14 38 19 14 37 19 14 37 19 13 39 18 12 40 16 12 37 14 10 35 15 11 36 14 10 35 13 11 35 14 11 38 14 11 38 13 10 37 13 10 37 12 9 36 13 10 37 12 9 36 10 10 36 13 10 37 10 10 36 11 11 37 10 10 36 
43 24 46 42 24 48 41 21 46 40 22 46 40 22 44 39 21 45 35 21 46 33 19 44 35 20 43 33 19 42 33 19 44 33 19 44 34 19 42 53 29 51 71 42 62 74 45 63 75 46 66 64 39 60 39 21 45 30 18 42 29 17 41 30 17 43 26 16 40 26 16 41 24 14 39 21 13 37 19 14 37 19 14 37 16 12 37 16 12 37 16 12 37 15 11 36 12 10 34 13 11 35 12 10 34 12 9 36 13 10 37 10 10 36 11 8 35 12 9 36 13 10 37 14 11 38 15 11 38 15 11 36 17 13 38 19 13 39 21 12 39 22 14 38 23 15 39 26 16 41 27 17 42 30 18 42 61 36 57 74 42 63 73 41 64 76 44 65 71 44 63 48 29 51 33 19 44 30 17 43 30 18 40 30 18 42 27 17 41 31 17 42 27 17 41 25 15 39 24 14 39 26 16 41 24 16 40 24 16 40 23 15 39 24 16 40 22 14 38 22 14 38 19 13 39 21 12 39 22 14 38 19 14 37 19 14 37 18 12 38 20 11 40 17 11 37 15 11 36 17 13 38 15 11 36 15 11 38 15 11 38 13 10 37 13 10 37 14 11 38 12 9 36 11 8 35 10 10 36 12 9 36 12 9 36 12 9 36 10 10 36 11 11 37 10 10 36 12 9 36 
44 25 47 43 23 48 42 22 47 40 22 46 41 23 47 38 23 46 35 21 44 34 19 42 36 21 44 34 20 45 35 20 43 38 20 44 64 36 58 73 44 64 74 45 65 73 44 64 56 32 54 32 18 43 30 18 42 30 18 42 28 15 41 26 16 41 25 15 39 23 15 39 22 13 40 20 15 38 18 14 37 17 13 38 16 12 37 16 12 37 15 11 36 13 11 35 13 11 35 12 9 36 12 9 36 13 10 37 11 8 35 12 9 36 10 10 36 13 10 37 13 10 37 15 13 37 17 13 38 16 12 37 17 13 38 19 13 39 21 12 39 21 16 39 26 16 41 27 17 41 28 18 42 31 19 43 64 36 58 71 42 62 47 25 48 69 40 62 74 47 64 73 46 65 56 33 53 33 19 42 32 18 43 30 18 42 29 17 41 31 19 43 29 17 41 25 17 41 23 15 39 24 14 39 23 15 39 23 15 39 22 14 38 22 14 38 22 13 40 19 13 39 19 13 39 19 13 39 19 14 37 19 13 39 18 14 39 17 13 38 18 12 38 16 12 37 15 11 36 14 10 35 13 10 37 13 10 37 13 10 37 13 10 37 12 9 36 10 10 36 11 11 37 10 10 36 12 9 36 11 11 37 10 10 36 10 10 36 13 10 37 12 9 36 10 10 36 10 10 36 
47 25 48 46 24 47 43 24 46 43 23 48 41 23 47 41 21 46 41 23 45 36 21 44 35 21 46 35 20 43 48 26 47 68 39 61 72 45 64 74 45 65 70 41 61 47 28 50 32 20 44 30 18 40 27 17 41 25 15 40 25 17 40 25 15 42 24 16 40 23 14 41 19 14 37 19 13 39 13 13 37 15 13 37 16 12 37 15 11 36 14 10 35 14 12 36 12 10 34 12 9 36 12 9 36 12 9 36 12 9 36 12 9 36 10 10 36 12 9 36 13 11 35 14 12 36 17 13 38 16 12 37 19 13 39 19 13 39 19 13 39 22 14 38 27 19 43 30 18 42 31 19 43 34 20 45 63 38 59 73 44 64 42 24 48 37 22 45 66 41 63 74 47 66 73 46 65 50 26 50 34 20 45 33 19 44 30 18 42 32 18 43 30 18 42 24 16 40 24 16 40 24 14 39 22 13 40 23 15 39 20 15 38 19 14 36 18 13 36 19 13 39 18 12 38 18 14 39 18 12 38 17 11 37 17 11 37 15 11 36 15 11 36 15 11 36 13 9 34 14 12 36 13 10 37 13 10 37 13 10 37 13 10 37 13 10 37 13 10 37 12 9 36 12 9 36 11 11 37 11 8 35 12 9 36 13 10 37 10 10 36 11 11 37 12 9 36 12 9 36 
47 25 48 48 26 49 46 24 47 44 24 49 43 24 46 43 24 46 38 23 46 36 21 44 46 27 49 61 36 57 72 43 63 74 45 63 74 45 63 64 36 58 41 23 47 32 18 43 30 18 42 29 16 44 29 16 42 24 16 40 24 14 39 22 14 38 22 14 38 20 14 40 19 13 39 18 12 38 16 11 41 15 11 34 15 11 36 15 11 36 14 10 35 13 11 35 13 10 37 12 9 36 12 9 36 12 9 36 13 10 37 10 10 36 11 8 35 11 8 35 13 10 37 15 13 37 17 13 38 16 12 37 18 12 38 18 12 38 19 13 39 23 15 39 27 17 42 30 16 41 33 19 44 36 20 46 64 39 60 72 43 63 44 22 45 36 21 44 43 23 48 70 43 60 73 46 65 68 39 61 38 20 44 32 18 43 32 18 43 32 18 43 30 18 42 23 15 39 24 16 40 22 14 38 23 15 38 22 14 38 18 13 36 21 12 39 19 13 39 18 14 39 16 10 36 17 13 38 15 11 36 15 11 36 16 10 36 16 10 36 15 11 36 14 12 36 13 11 35 14 12 36 12 9 36 13 10 37 12 9 36 12 9 36 12 9 36 12 9 36 12 10 34 12 10 34 12 10 34 10 10 34 12 10 34 12 10 34 13 11 35 12 10 34 12 10 34 12 10 34 
50 26 48 49 25 49 47 25 48 44 25 47 46 24 47 46 23 49 51 29 50 65 37 59 71 46 65 74 47 66 74 45 65 72 43 61 56 32 56 36 21 44 30 18 42 29 19 43 29 16 42 29 16 42 27 15 39 25 15 40 23 15 39 23 15 39 21 13 37 18 14 37 18 12 38 16 12 37 15 11 36 14 12 36 15 11 36 16 12 37 15 11 36 13 11 35 12 9 36 13 10 37 12 9 36 11 8 35 12 9 36 12 10 34 11 9 33 13 10 37 12 12 36 16 12 37 17 11 37 16 12 37 19 13 39 21 13 37 22 14 38 23 15 39 29 17 41 32 18 43 32 18 41 37 22 45 70 41 61 71 42 62 42 24 48 39 21 47 38 23 44 47 25 48 72 43 61 74 47 66 45 26 48 33 19 44 32 20 44 33 19 44 31 19 43 22 17 40 24 16 40 20 15 38 21 16 39 18 14 37 19 14 37 19 14 37 17 13 38 15 11 36 17 13 38 15 11 36 15 11 38 14 10 37 15 11 38 15 11 38 13 10 37 13 10 37 11 11 37 11 11 37 11 11 37 12 10 34 13 11 35 12 9 36 13 10 37 10 10 34 12 10 34 12 9 36 12 10 34 11 8 35 12 10 34 12 10 34 12 9 36 11 8 35 12 10 34 12 9 36 
50 26 50 49 27 50 50 26 50 54 30 52 66 38 60 71 43 65 72 47 68 74 47 66 74 47 66 74 47 66 69 40 62 49 27 48 34 19 42 32 18 43 30 16 41 29 17 41 26 16 40 24 14 39 25 17 41 23 15 39 21 16 39 21 13 37 20 14 40 18 12 38 17 13 38 16 12 37 15 11 36 14 10 35 15 11 36 14 12 36 13 11 35 13 11 35 12 9 36 13 10 37 10 10 36 12 9 36 12 9 36 10 10 34 12 10 34 11 8 35 13 11 35 14 12 36 17 13 38 16 12 37 19 13 39 20 15 38 22 14 38 23 15 39 29 17 41 32 18 43 33 19 42 36 21 44 71 42 62 69 41 63 42 23 45 40 22 48 40 22 46 40 22 46 54 29 51 73 44 62 69 41 63 40 22 46 31 17 40 32 18 41 28 19 40 24 16 40 23 15 39 22 14 38 21 16 39 19 13 39 19 13 39 18 12 38 16 12 37 16 12 37 15 11 36 14 12 36 14 11 38 14 11 38 12 9 36 12 9 36 12 9 36 14 11 38 12 9 36 12 9 36 11 11 37 12 10 34 12 10 34 12 9 36 12 9 36 10 10 34 13 11 35 12 9 36 12 9 36 11 8 35 12 9 36 12 10 34 11 8 35 13 11 35 12 10 34 11 9 33 
62 35 54 70 41 61 73 50 68 74 51 71 74 49 71 74 49 70 73 48 67 74 45 63 65 37 59 45 26 48 33 19 42 33 19 44 31 19 41 28 18 42 27 17 42 29 17 41 24 16 39 24 16 40 22 14 38 22 14 38 19 14 37 19 14 37 19 14 37 17 12 35 16 12 37 15 11 36 15 11 36 13 11 35 12 10 34 13 11 35 13 11 35 13 11 35 13 10 37 13 10 37 12 9 36 12 9 36 12 9 36 12 10 34 12 10 34 12 9 36 12 10 34 15 13 37 18 12 38 16 12 37 19 13 39 20 15 38 22 14 38 24 16 40 30 18 42 32 18 43 35 20 43 39 24 47 71 42 62 70 43 62 41 23 47 41 21 46 41 23 47 40 22 46 37 22 45 65 40 62 74 45 65 64 36 58 33 19 42 33 19 44 31 17 42 25 15 42 21 16 39 19 13 39 20 15 38 19 13 39 17 13 38 16 12 37 16 12 37 14 12 36 13 11 35 13 10 37 13 10 37 13 10 37 13 10 37 13 10 37 12 9 36 12 9 36 12 9 36 12 9 36 12 12 38 12 10 34 13 11 35 12 9 36 10 7 34 11 11 35 14 12 36 13 10 37 12 10 34 13 11 35 11 9 33 12 9 36 12 10 34 12 9 36 12 9 36 12 9 36 
74 49 70 74 51 69 73 50 68 73 50 70 74 49 68 70 41 61 55 30 52 40 22 46 35 20 41 33 19 42 32 18 43 31 19 43 32 16 42 27 17 44 26 16 41 24 14 39 23 14 41 22 13 40 21 12 39 19 13 39 19 13 39 17 13 38 17 11 37 16 14 38 16 12 37 16 12 37 14 10 35 14 12 36 13 11 35 13 11 35 12 10 34 12 10 34 11 8 35 12 9 36 13 10 37 13 10 37 13 10 37 12 10 34 13 11 35 13 10 37 13 11 35 17 13 38 17 13 38 17 13 38 19 13 39 20 15 38 22 14 38 23 15 39 30 18 42 32 18 43 34 19 42 37 22 45 71 42 62 71 43 65 41 23 45 40 22 46 40 22 46 41 21 46 37 22 45 43 24 46 72 43 63 74 45 65 53 29 51 34 18 44 27 17 42 23 15 39 22 13 40 20 15 38 19 13 39 18 12 38 17 13 38 16 12 37 15 11 36 13 11 35 12 10 34 11 11 37 12 9 36 12 9 36 12 9 36 10 10 36 10 10 36 9 9 35 10 10 36 10 10 36 10 10 36 12 10 34 12 10 34 12 9 36 12 9 36 10 10 34 12 10 34 13 10 37 10 10 36 11 11 37 10 10 36 10 10 36 10 10 34 10 10 34 11 11 35 10 10 34 
74 51 69 76 49 68 74 51 69 73 50 70 74 47 66 59 31 54 38 20 44 38 22 48 34 19 42 37 19 43 33 21 45 31 19 43 30 18 42 28 16 40 25 15 40 23 15 39 23 15 39 22 14 38 22 14 38 20 15 38 17 13 38 16 12 37 17 11 37 16 12 37 15 11 36 13 11 35 13 11 35 13 11 35 13 11 35 12 10 34 13 11 35 11 9 33 12 9 36 11 8 35 13 10 37 12 9 36 12 9 36 12 10 34 13 11 35 11 8 35 12 10 34 16 12 37 16 12 37 17 13 38 19 13 39 21 13 37 22 14 38 24 16 40 29 17 41 33 19 44 34 20 43 37 22 45 73 41 62 70 42 64 43 24 46 41 21 46 38 23 46 40 22 46 38 20 42 35 20 43 55 29 54 76 44 65 76 43 62 42 22 47 29 17 41 24 16 39 22 14 38 21 12 39 18 12 38 18 12 38 15 11 36 14 10 35 14 12 36 14 12 34 10 10 34 10 10 36 11 11 37 10 10 36 10 10 36 10 10 36 11 11 37 10 10 36 11 11 37 10 10 36 11 11 35 13 10 37 13 10 37 12 10 34 12 10 34 10 10 36 12 9 36 13 11 35 10 10 34 10 10 34 11 11 35 10 10 36 11 11 35 10 10 36 11 11 37 10 10 36 
57 29 51 65 37 59 74 51 69 73 50 70 50 26 48 43 24 46 39 21 45 35 19 45 33 19 45 33 19 44 31 17 42 29 17 41 26 16 41 25 15 40 23 15 39 22 13 40 19 14 37 20 15 38 18 12 38 18 14 37 15 11 36 16 12 37 15 11 36 14 10 35 14 12 36 13 11 35 15 13 37 12 10 34 13 11 35 12 10 34 12 10 34 12 10 34 13 10 37 12 9 36 12 9 36 12 9 36 12 9 36 12 10 34 12 10 34 12 9 36 13 11 35 15 13 37 17 11 37 17 13 38 19 13 39 22 14 38 23 15 39 24 16 40 31 19 43 33 19 44 33 19 42 38 23 46 73 41 62 71 42 62 43 23 48 39 21 43 40 22 46 41 21 46 35 21 44 36 21 44 60 32 55 73 44 64 76 44 65 49 27 50 31 17 42 23 15 38 20 14 40 18 14 39 17 12 35 17 13 38 15 11 36 14 12 36 14 12 36 12 9 36 10 10 36 12 12 38 12 9 36 13 10 37 13 10 37 12 9 36 10 10 36 10 10 36 11 11 37 11 11 37 12 12 36 12 9 36 13 10 37 13 11 35 12 10 34 10 10 36 13 10 37 13 11 35 12 9 36 13 10 37 12 9 36 12 9 36 12 10 34 13 11 35 12 10 34 12 10 34 
50 26 48 72 49 67 74 51 69 67 39 61 44 25 47 42 22 47 36 22 45 35 20 43 33 19 44 32 18 43 30 18 42 26 16 40 26 16 41 23 15 39 20 15 38 22 14 38 19 14 37 17 13 36 16 12 35 15 11 36 16 12 37 17 13 38 14 12 36 15 11 36 13 11 35 15 11 38 12 9 36 12 9 36 13 11 35 12 10 34 10 10 34 12 10 34 13 10 37 10 10 36 12 9 36 13 10 37 12 9 36 11 11 35 13 11 35 12 9 36 13 11 35 16 14 38 18 14 39 16 12 37 19 13 39 22 14 38 21 13 37 23 15 39 29 17 41 32 18 43 33 19 42 37 22 45 71 42 62 71 44 63 44 25 47 41 23 47 41 23 49 40 22 46 36 21 44 63 35 57 75 46 66 73 44 62 58 30 53 32 18 43 29 17 41 24 16 40 22 14 38 21 12 39 17 13 38 15 11 36 15 11 36 15 11 36 13 10 37 14 11 38 13 11 35 12 10 34 12 9 36 13 10 37 11 8 35 12 9 36 11 8 35 12 9 36 11 8 35 13 10 37 10 10 34 12 9 36 12 9 36 12 10 34 12 10 34 10 10 36 12 9 36 12 10 34 13 11 35 11 9 33 12 10 34 12 10 34 12 9 36 12 9 36 12 9 36 12 9 36 
62 37 58 74 49 68 74 49 70 54 29 50 41 21 46 39 21 45 36 21 44 32 18 41 32 18 41 30 18 42 27 17 41 25 15 39 25 15 39 22 13 40 19 14 37 18 13 36 20 11 38 16 12 37 15 11 36 17 13 40 15 11 36 13 11 35 14 10 35 13 11 35 14 10 35 12 10 34 12 10 34 13 9 34 12 10 34 12 10 34 12 10 34 11 11 35 10 10 36 12 9 36 12 9 36 13 10 37 12 9 36 11 9 33 12 10 34 11 8 35 10 10 34 16 12 37 18 12 38 16 12 37 17 11 37 19 14 37 21 13 37 23 15 39 29 17 41 31 17 42 33 18 41 35 20 43 70 41 63 71 44 63 45 22 50 39 21 45 39 21 45 45 26 48 63 38 59 74 45 63 70 41 61 47 28 48 30 18 42 30 18 42 28 16 40 24 14 39 19 13 39 18 12 38 16 12 35 16 12 37 15 11 36 15 11 36 13 11 35 11 11 35 12 10 34 13 10 37 12 9 36 12 9 36 12 9 36 13 10 37 10 7 34 12 9 36 11 8 35 12 9 36 11 11 35 13 10 37 12 9 36 12 10 34 12 10 34 12 12 38 12 9 36 13 11 35 12 10 34 12 9 36 12 10 34 13 11 35 12 9 36 12 9 36 12 10 34 12 9 36 
69 44 65 73 48 69 71 42 62 42 23 45 38 23 46 35 20 43 33 19 42 32 20 44 30 18 42 27 17 41 25 17 40 25 15 40 23 15 39 20 15 38 19 14 37 16 12 35 16 12 37 16 12 37 15 11 36 14 12 36 14 11 38 12 9 36 13 11 35 14 11 38 13 10 37 13 11 35 11 8 35 12 9 36 12 10 34 10 10 34 13 10 37 11 11 35 11 11 37 12 10 34 10 10 36 11 9 33 12 10 34 12 10 34 11 8 35 12 10 34 12 10 34 15 11 36 15 11 36 16 12 37 19 14 37 17 13 36 22 14 38 22 14 38 29 16 42 30 18 42 32 18 43 36 20 46 69 40 60 72 43 63 42 22 47 36 20 46 45 23 46 65 37 59 73 46 63 70 41 59 44 24 49 31 17 42 29 17 41 28 18 42 28 16 40 22 14 38 19 13 39 18 14 39 16 12 37 16 12 37 16 12 37 15 9 35 11 11 37 13 11 35 12 10 34 12 10 34 14 12 36 12 10 34 12 10 34 12 10 34 12 10 34 11 9 33 12 10 34 12 10 34 13 10 37 11 8 35 11 8 35 13 10 37 12 9 36 11 8 35 13 10 37 13 10 37 13 11 35 11 9 33 12 10 34 13 11 35 11 8 35 12 9 36 13 10 37 12 9 36 
75 48 67 75 48 67 57 32 54 41 22 44 36 21 44 35 21 44 33 19 44 29 17 41 28 16 40 26 16 40 25 15 40 23 15 39 21 13 37 18 13 36 18 12 38 16 12 37 15 11 38 15 11 36 13 11 35 13 11 33 14 12 36 13 11 35 12 10 34 12 10 34 12 10 34 13 11 35 12 10 34 12 10 34 13 11 35 12 10 34 10 10 34 12 10 34 13 11 33 9 9 33 13 11 35 12 10 34 12 10 34 13 11 35 12 9 36 12 10 34 12 10 34 14 10 35 16 12 37 17 13 38 19 14 37 20 15 38 20 15 38 22 14 38 25 17 41 30 18 42 31 17 42 35 19 45 68 39 59 70 43 62 40 22 46 42 24 46 65 37 59 74 47 66 68 40 62 42 24 48 32 18 43 30 18 42 29 17 41 27 17 41 25 15 39 22 14 38 20 12 36 18 13 36 16 12 37 16 12 37 15 11 36 15 11 36 13 11 35 13 10 37 12 10 34 12 10 34 13 11 35 12 10 34 12 10 34 12 10 34 12 9 36 13 11 35 12 9 36 11 9 33 13 10 37 13 10 37 12 9 36 12 9 36 13 10 37 12 9 36 13 10 37 13 10 37 13 10 37 11 8 35 12 9 36 12 9 36 12 10 34 13 11 35 12 10 34 11 9 33 
73 48 67 73 46 65 43 24 46 37 22 43 35 20 43 32 18 41 31 19 43 29 17 41 26 16 40 25 15 40 24 14 39 22 14 38 18 13 36 18 13 36 17 11 37 15 11 36 14 12 36 14 10 35 14 12 36 13 11 35 13 11 35 13 11 35 12 10 34 13 11 35 12 10 34 14 12 36 12 10 34 12 10 34 13 11 35 13 10 37 10 10 34 12 9 36 12 10 34 10 10 36 11 9 33 12 10 34 12 10 34 13 11 35 12 9 36 11 9 33 12 10 34 15 11 36 16 12 37 15 11 36 17 13 36 18 13 36 19 14 37 20 15 38 27 14 40 27 17 41 30 16 41 33 19 44 71 39 60 70 41 61 45 25 50 62 37 58 75 46 66 69 42 61 43 25 49 28 18 42 29 17 41 28 16 40 27 17 41 26 16 41 22 17 39 22 14 38 19 14 37 18 13 36 16 10 36 15 11 36 16 10 36 14 12 36 12 10 34 13 10 37 11 8 35 12 10 34 12 9 36 12 9 36 12 10 34 12 9 36 12 10 34 13 11 35 12 10 34 12 10 34 11 8 35 12 9 36 11 8 35 12 9 36 12 9 36 12 9 36 12 9 36 12 9 36 12 10 34 12 10 34 13 11 35 13 11 35 12 9 36 12 9 36 12 9 36 12 9 36 
73 48 67 65 36 56 38 20 44 36 21 42 34 20 43 33 19 44 29 17 41 28 16 40 25 15 40 24 14 39 24 14 39 21 13 37 18 12 38 16 10 36 15 11 36 14 12 36 15 11 36 14 10 35 14 12 36 12 10 34 13 11 35 12 10 34 12 9 36 12 10 34 13 11 35 14 11 38 12 10 34 13 11 35 12 9 36 12 10 34 12 9 36 12 10 34 12 9 36 12 10 34 13 10 37 13 11 35 12 10 34 13 11 35 13 10 37 13 11 35 12 10 34 15 11 36 16 12 37 16 12 37 18 12 38 19 14 37 18 13 36 20 12 36 23 15 39 25 15 40 29 17 41 32 18 41 69 40 62 75 42 61 66 37 59 73 44 62 67 40 59 45 25 50 32 18 43 29 17 41 28 16 40 29 16 42 25 15 39 25 15 40 23 15 39 22 14 38 16 12 35 16 12 37 16 12 37 15 11 36 14 10 35 14 10 35 13 9 34 12 10 34 13 11 35 12 10 34 13 11 35 13 11 35 13 11 35 12 10 34 12 9 36 12 10 34 11 8 35 12 9 36 13 11 35 13 11 35 11 9 33 13 10 37 11 8 35 12 9 36 13 10 37 13 10 37 12 9 36 12 9 36 12 9 36 12 9 36 13 11 35 13 11 35 13 11 35 13 11 35 
75 48 65 52 28 52 39 21 45 36 21 44 33 19 42 31 17 42 28 16 40 26 16 40 25 15 40 23 14 41 22 14 37 21 13 37 18 13 36 16 12 37 14 10 35 13 11 35 14 10 33 14 10 33 13 11 35 13 11 35 13 11 35 12 9 36 13 11 35 12 9 36 13 10 37 12 10 34 12 9 36 13 11 35 13 11 35 14 12 36 12 10 34 11 9 33 12 10 34 12 10 34 12 10 34 12 10 34 13 11 35 12 10 34 12 9 36 13 11 35 12 10 34 14 10 35 15 11 36 16 12 37 18 12 38 18 12 38 18 13 36 18 13 36 23 15 39 25 15 40 25 17 40 31 19 41 67 38 60 74 43 61 72 43 61 67 39 61 41 23 47 30 18 42 29 17 41 26 17 38 25 15 39 25 15 39 24 14 38 24 14 39 23 14 41 17 11 37 16 12 37 16 10 36 13 11 35 13 11 35 15 11 36 13 11 35 14 12 36 12 10 34 11 9 33 12 9 36 12 9 36 13 10 37 12 9 36 12 10 34 12 10 34 13 11 35 12 10 34 12 10 34 13 10 37 13 10 37 11 8 35 12 9 36 12 10 34 12 10 34 12 10 34 12 10 34 13 11 35 13 11 35 12 10 34 12 10 34 13 10 37 12 9 36 12 9 36 12 9 36 
71 44 63 43 23 48 35 20 43 34 18 44 32 18 41 30 16 41 28 16 38 25 15 40 24 14 39 21 13 37 19 14 37 18 13 36 15 11 36 15 11 36 13 9 34 13 11 35 13 11 35 12 10 34 13 11 35 11 9 33 11 8 35 12 10 34 11 8 35 13 11 35 12 10 34 13 10 37 12 10 34 12 9 36 12 10 34 12 10 34 11 9 33 13 10 37 12 10 34 13 11 35 12 10 34 13 11 35 13 11 35 12 10 34 12 9 36 12 10 34 13 11 35 15 11 36 16 12 37 15 11 36 16 12 37 16 10 36 17 11 37 19 14 37 22 14 38 25 15 40 25 15 39 27 17 41 62 35 54 74 43 61 66 39 58 38 22 48 29 17 41 30 16 42 24 14 38 24 16 40 24 14 41 23 15 39 22 14 38 22 14 38 21 13 37 18 12 38 15 11 36 16 12 37 11 11 35 13 11 35 13 11 35 13 9 34 12 10 34 12 10 34 12 10 34 12 9 36 13 11 35 12 10 34 12 10 34 11 8 35 13 11 35 13 10 37 13 11 35 11 8 35 13 11 35 13 11 35 13 11 35 12 10 34 12 10 34 11 8 35 13 10 37 13 10 37 12 9 36 12 9 36 11 8 35 12 9 36 13 11 35 12 10 34 13 11 35 12 10 34 
61 36 57 36 21 44 35 20 43 32 18 43 31 17 42 27 15 39 25 15 40 23 15 39 22 14 38 21 13 37 17 13 38 17 11 37 15 11 36 13 11 35 13 11 35 12 10 34 14 10 35 10 10 34 12 10 34 12 10 34 13 11 35 13 10 37 13 11 35 13 11 35 13 11 35 12 10 34 13 10 37 12 10 34 10 7 34 12 9 36 12 10 34 13 10 37 13 11 35 12 9 36 13 11 35 12 9 36 11 9 33 12 10 34 13 10 37 12 10 34 12 10 34 15 11 36 16 12 37 15 11 36 15 13 37 18 12 38 16 10 36 18 12 38 21 13 37 22 14 38 24 16 40 24 14 39 37 22 43 53 29 51 32 18 41 26 16 40 26 16 40 26 16 41 25 15 40 24 14 39 24 14 39 20 12 36 18 12 38 20 14 40 19 14 37 16 12 37 15 13 37 14 12 36 15 11 36 13 9 34 14 10 35 13 11 35 13 11 35 12 10 34 11 9 33 13 10 37 12 9 36 12 10 34 12 9 36 13 11 35 12 9 36 12 10 34 12 10 34 14 12 36 13 10 37 12 9 36 12 9 36 11 9 33 13 11 35 12 10 34 13 11 35 12 10 34 12 10 34 12 10 34 12 10 34 11 9 33 13 10 37 12 9 36 12 9 36 13 10 37 
49 25 47 34 20 43 34 18 44 32 18 43 29 17 41 25 17 40 24 14 39 22 14 38 20 15 38 19 14 36 17 11 37 16 10 36 15 11 36 12 10 34 12 10 34 12 8 35 12 9 36 13 10 37 11 9 33 12 10 34 13 11 35 12 10 34 12 10 34 12 10 34 12 10 34 12 10 34 12 10 34 12 10 34 12 10 34 12 10 34 12 10 34 12 10 34 12 10 34 13 11 35 13 11 35 12 10 34 12 10 34 11 9 33 12 9 36 12 10 34 12 10 34 15 11 36 16 12 37 16 12 37 18 12 38 19 10 37 16 12 35 17 13 38 18 13 36 22 13 40 23 15 39 23 13 38 23 15 38 24 14 39 24 14 39 25 17 40 25 15 40 24 14 39 23 15 39 22 14 38 20 15 38 19 13 39 20 12 36 21 13 37 19 14 37 16 12 37 15 11 36 14 12 36 15 11 36 13 9 34 13 10 37 13 11 35 13 11 35 12 10 34 9 9 35 12 10 34 12 10 34 12 10 34 13 11 35 13 11 35 12 10 34 13 11 35 12 10 34 12 10 34 12 10 34 12 10 34 12 10 34 12 10 34 13 11 35 12 10 34 11 9 33 13 11 35 13 10 37 12 9 36 12 9 36 11 8 35 12 10 34 12 10 34 13 11 35 13 11 35 
34 21 41 32 18 43 31 19 41 30 18 42 26 16 41 21 16 39 22 14 37 21 13 37 20 12 36 18 13 36 18 12 38 15 11 36 13 11 35 13 11 35 12 10 34 12 10 34 13 11 35 11 9 33 12 10 34 13 11 35 12 10 34 12 10 34 12 10 34 13 11 35 13 11 35 12 10 34 11 9 33 12 10 34 12 10 34 13 10 37 12 10 34 12 10 34 13 11 35 11 9 33 12 10 34 12 10 34 12 10 34 12 9 36 13 11 35 12 10 34 12 10 34 14 12 36 14 12 36 14 12 36 17 11 37 17 11 37 17 11 37 18 12 38 19 13 39 19 14 37 22 12 37 22 13 40 23 15 39 23 15 39 22 14 38 23 15 39 23 15 39 23 15 39 22 14 38 21 13 37 18 14 37 19 14 37 18 13 36 18 13 36 16 12 37 15 11 36 15 11 36 15 11 36 14 12 36 13 11 35 13 11 35 12 10 34 12 10 34 14 12 36 11 9 33 12 10 34 12 9 36 13 10 37 13 11 35 11 8 35 13 11 33 12 10 34 12 10 34 12 10 32 12 10 34 12 10 34 12 10 34 12 10 34 12 10 34 13 11 35 12 10 34 12 10 34 12 10 34 13 10 37 13 11 35 12 9 36 13 11 35 12 10 34 12 9 36 13 11 35 
33 19 42 30 16 41 29 17 41 26 16 40 26 16 40 22 14 38 23 15 39 21 13 37 17 11 37 18 12 38 15 11 36 14 12 34 13 11 35 11 9 33 12 10 34 13 11 35 12 10 34 12 10 34 13 11 35 12 10 34 12 9 36 12 9 36 12 9 36 12 9 36 11 8 35 13 10 37 12 9 36 12 9 36 12 10 34 12 10 34 13 10 37 12 10 34 13 11 35 12 9 38 13 10 37 11 8 35 14 12 36 12 9 36 13 11 35 12 10 34 12 10 34 13 11 35 15 11 36 15 11 36 15 11 36 15 11 36 16 12 37 16 10 36 18 13 36 17 13 38 19 13 39 19 14 37 22 14 38 19 14 37 19 14 37 22 14 38 20 15 38 22 14 38 21 13 37 18 13 36 18 13 36 17 12 35 17 12 35 17 11 37 16 12 37 15 11 36 15 11 36 14 10 35 14 12 36 13 10 37 13 11 35 13 11 35 13 11 35 11 9 33 12 10 34 12 10 34 13 11 35 12 10 34 12 10 32 12 9 36 12 10 34 12 9 36 13 11 35 11 9 33 12 10 34 12 10 34 12 10 34 12 10 34 12 10 34 12 10 34 12 10 34 12 10 34 12 10 34 12 10 34 12 10 34 13 11 35 11 8 35 13 11 35 12 9 36 12 10 34 
33 19 44 31 19 43 28 16 40 26 16 40 25 15 39 22 14 37 21 13 37 18 13 36 17 11 37 15 11 36 15 11 36 14 12 36 13 11 35 11 9 33 13 11 35 12 10 34 12 10 34 12 10 34 11 9 33 13 11 35 12 10 34 12 10 34 11 8 35 11 8 35 13 11 35 12 10 34 12 10 34 13 10 37 13 10 37 12 10 34 11 8 35 13 11 35 12 10 34 12 9 36 13 10 37 13 11 35 11 9 33 11 9 33 12 10 34 13 11 35 12 10 34 13 11 35 12 10 34 13 11 35 14 12 36 14 10 35 15 11 36 16 12 37 18 12 38 17 12 35 18 13 36 20 11 38 17 12 35 18 13 36 19 14 37 17 13 36 21 13 37 19 14 37 17 12 35 17 11 37 17 11 37 16 10 36 16 12 37 15 11 36 15 11 36 16 10 36 14 10 35 13 11 35 12 10 34 12 10 34 12 10 34 13 11 35 11 9 33 12 10 34 11 9 33 13 11 35 11 9 33 13 11 35 13 11 35 13 11 35 12 10 34 12 9 36 11 9 33 13 10 37 13 11 35 13 11 35 14 12 36 11 8 35 14 12 36 12 9 36 13 11 35 13 11 35 12 10 34 12 10 34 12 10 34 12 9 36 13 11 35 12 9 36 12 10 34 13 11 35 
29 19 43 29 17 41 26 16 40 27 14 40 24 14 39 22 12 36 22 14 38 18 13 36 17 11 37 16 12 37 14 12 36 13 11 35 13 11 35 13 11 35 12 10 34 12 10 34 13 11 35 12 10 34 13 11 35 12 10 34 13 11 35 11 9 33 11 8 35 13 11 35 14 12 36 13 11 35 12 10 34 11 8 35 13 11 35 13 11 35 12 10 34 11 9 33 12 10 34 12 10 34 13 10 37 12 10 34 12 10 34 13 11 35 11 9 33 13 11 35 12 10 34 13 11 35 13 11 35 13 11 35 13 11 35 13 11 35 15 11 36 14 10 35 15 11 34 15 11 36 16 12 37 16 12 35 18 13 36 17 12 35 17 13 38 17 13 38 17 11 37 18 12 38 17 13 38 15 9 35 16 12 37 16 12 37 16 12 37 15 11 36 15 11 36 12 10 34 13 11 35 14 12 36 13 11 35 13 11 35 11 9 33 11 9 33 12 10 34 11 8 35 11 9 33 13 10 37 12 10 34 11 9 33 12 10 34 12 10 34 12 10 34 12 10 34 11 8 35 11 8 35 11 9 33 12 10 34 12 10 34 12 10 34 13 11 35 12 10 34 11 9 33 12 10 34 11 9 33 12 10 34 12 9 36 12 10 34 12 10 34 11 8 35 12 10 34 12 10 34 
32 18 43 26 17 38 26 16 40 25 15 40 22 14 38 22 14 38 19 14 37 18 13 36 18 13 36 15 11 36 14 10 35 12 8 33 11 9 33 11 9 33 11 9 33 12 10 34 12 10 34 12 10 34 13 11 35 12 10 34 12 10 34 11 9 33 12 9 36 11 8 35 13 11 35 12 9 36 12 10 34 13 10 37 12 9 36 12 9 36 12 10 34 13 11 35 13 11 35 13 10 37 11 8 35 12 10 32 12 10 34 11 9 33 13 11 35 12 10 34 12 10 34 12 10 34 13 9 34 14 10 35 13 11 35 15 9 35 15 11 36 15 11 36 15 11 36 15 11 36 16 12 37 16 10 36 16 10 36 15 11 36 16 12 39 15 11 36 17 13 38 16 11 34 16 10 36 15 11 36 16 12 37 15 11 36 15 11 36 15 11 36 12 10 34 13 11 35 13 11 35 13 11 35 11 8 35 13 11 35 12 9 36 12 10 34 12 10 34 13 11 35 12 10 34 12 10 34 13 11 35 12 10 34 12 10 34 13 11 35 11 8 35 11 8 35 12 10 34 12 10 34 13 11 35 14 12 36 12 10 34 13 10 39 12 10 34 13 10 37 13 11 35 14 12 36 13 11 35 13 11 35 11 8 35 13 11 35 12 10 34 13 10 37 12 10 34 12 10 34 
30 18 42 26 16 40 25 15 39 25 15 39 23 15 39 19 14 37 19 14 37 18 13 36 16 12 35 14 12 36 14 10 35 13 11 35 12 10 34 12 10 34 13 11 35 13 11 35 12 10 34 11 9 33 12 10 34 13 11 35 13 11 35 13 11 35 12 9 36 12 10 34 14 12 36 12 10 34 13 11 35 12 9 36 11 8 35 11 8 35 11 8 35 12 10 34 12 10 34 13 10 37 12 10 34 13 11 35 12 10 34 12 10 34 12 10 34 11 9 33 11 9 33 14 12 36 12 10 34 13 11 35 14 10 35 14 10 35 13 9 34 15 11 36 14 10 35 14 10 35 16 12 37 16 12 37 16 12 37 15 11 36 14 10 35 14 10 35 18 13 36 15 11 34 16 12 35 15 11 36 15 11 36 15 11 36 13 9 34 13 11 35 13 11 35 12 10 34 12 10 34 12 10 34 13 11 35 11 9 33 12 10 34 12 10 34 12 10 34 13 11 35 11 9 33 12 10 34 13 11 35 13 10 37 11 9 33 12 10 34 12 9 36 12 10 34 12 9 36 12 10 34 12 10 34 14 12 36 12 10 34 13 11 35 12 10 34 13 11 35 11 9 33 12 10 34 12 10 34 12 10 34 12 10 34 13 10 37 12 10 34 12 9 36 12 10 34 11 9 33 
30 16 41 26 16 40 24 16 39 24 14 38 22 14 38 19 15 38 18 13 36 17 11 37 16 12 37 14 12 36 14 10 35 13 11 35 13 11 35 12 10 34 12 10 34 11 9 33 13 11 35 13 11 35 13 11 35 11 9 33 12 10 34 12 10 34 13 11 35 11 9 33 12 10 34 13 11 35 12 10 34 12 10 34 12 9 36 12 9 36 12 10 34 12 10 34 12 10 34 12 9 36 12 10 34 12 10 34 10 10 36 13 11 35 12 9 36 12 10 34 12 10 34 12 10 34 12 10 34 13 11 35 13 11 35 14 12 36 12 12 36 14 10 35 15 11 36 14 10 35 14 10 35 14 10 35 14 12 34 16 10 36 15 11 36 15 11 36 15 11 36 15 11 36 13 11 35 14 10 35 14 10 35 14 12 36 13 11 35 13 11 35 14 10 35 14 10 35 12 10 34 13 11 35 13 11 35 12 10 34 12 10 34 13 11 35 13 11 35 12 10 34 12 9 36 12 10 34 12 9 36 12 10 34 12 9 36 12 10 34 13 11 35 12 10 34 13 10 37 12 10 34 12 10 34 11 9 33 12 10 34 13 10 37 13 11 35 12 10 34 14 12 36 13 11 35 13 11 35 13 11 35 12 10 34 12 10 34 12 9 36 13 11 35 12 9 36 13 11 35 
29 17 41 25 15 40 24 14 39 22 14 37 22 14 38 23 13 38 18 13 36 17 12 35 16 12 37 14 12 36 13 11 35 12 10 34 12 10 34 12 10 34 13 11 35 13 11 35 12 10 34 12 10 34 11 9 33 12 10 34 12 10 34 13 11 35 13 11 35 13 11 35 13 11 35 12 10 34 12 10 34 12 10 34 13 11 35 12 9 36 13 11 35 12 10 34 11 9 33 12 10 34 11 8 35 12 10 34 11 8 35 12 10 34 12 9 36 13 11 35 12 10 34 14 12 36 12 10 34 12 10 34 13 11 35 12 10 34 13 11 35 14 10 35 14 10 35 14 10 35 14 10 35 12 12 36 14 10 35 12 10 34 15 11 36 14 10 35 13 11 35 13 11 35 15 11 36 13 11 35 14 12 36 13 11 35 13 11 35 12 10 34 12 10 34 12 10 34 12 10 34 13 11 35 11 9 33 12 10 34 13 11 35 13 11 35 12 10 34 12 10 34 11 9 33 12 10 34 11 8 35 12 10 34 12 9 36 12 10 34 12 9 36 13 11 35 12 10 34 13 11 35 13 11 35 13 11 35 12 10 34 13 11 35 12 10 34 12 10 34 13 11 35 12 10 34 12 10 34 12 9 36 12 10 34 13 10 37 12 10 34 14 12 36 13 10 37 12 10 34 
29 17 41 25 15 39 24 14 38 21 13 36 21 13 37 21 13 37 17 12 35 16 12 37 15 11 36 13 11 35 14 12 36 12 10 34 13 11 35 12 10 34 13 11 35 12 10 34 11 9 33 12 10 34 14 12 36 12 10 34 13 11 35 13 11 35 13 11 35 13 11 35 11 9 33 12 10 34 13 11 35 14 12 36 13 11 35 13 11 35 11 9 33 13 11 35 12 10 34 13 11 35 12 10 34 12 10 34 11 9 33 12 10 34 11 9 33 12 10 34 13 11 35 13 11 35 13 11 35 12 10 34 13 11 35 13 11 35 12 10 34 12 10 34 13 11 35 13 11 35 12 10 34 12 10 34 14 12 36 13 11 35 13 11 35 14 12 36 13 11 35 12 10 34 13 11 35 10 8 32 13 11 35 13 11 35 12 10 34 13 11 35 12 10 34 13 11 35 13 11 35 13 11 35 12 10 34 12 10 34 13 11 35 11 9 33 13 11 35 12 10 34 11 9 33 13 11 35 13 11 35 12 10 34 12 10 34 12 10 34 13 11 35 11 9 33 12 10 34 12 10 34 11 9 33 13 11 35 13 11 35 15 13 37 12 10 34 14 12 36 12 10 34 11 9 33 12 10 34 12 10 34 12 10 34 13 11 35 13 11 35 13 11 35 12 10 34 13 11 35 
28 16 40 25 15 39 24 16 39 22 14 38 21 13 37 19 14 37 18 13 36 17 11 37 15 11 36 14 10 35 13 11 35 12 10 34 12 10 34 12 10 34 13 11 35 12 10 34 13 11 35 13 11 35 11 9 33 13 11 35 13 11 35 13 11 35 14 12 36 11 9 33 11 9 33 13 11 35 12 10 34 11 9 33 12 10 34 13 11 35 13 11 35 12 10 34 12 10 34 13 11 35 11 9 33 12 10 34 12 10 34 13 11 35 13 11 35 12 10 34 12 10 34 12 10 34 12 10 34 12 10 34 13 11 35 11 9 33 12 10 34 13 11 35 13 11 35 12 10 34 12 10 34 12 10 34 13 11 35 13 11 35 12 10 34 12 10 34 13 11 35 12 10 34 13 11 35 12 10 34 12 10 34 12 10 34 13 11 35 13 11 35 12 10 34 13 11 35 13 11 35 12 10 34 13 11 35 14 12 36 12 10 34 12 10 34 12 10 34 13 11 35 13 11 35 14 12 36 11 9 33 12 10 34 10 8 32 12 10 34 12 10 34 12 10 34 12 10 34 11 9 33 13 11 35 12 10 34 12 10 34 12 10 34 12 10 34 11 9 33 12 10 34 14 12 36 12 10 34 12 10 34 13 11 35 13 11 35 11 9 33 11 9 33 12 10 34 12 10 34 
27 15 39 23 15 38 25 13 37 22 14 38 21 13 37 18 13 36 17 11 37 17 12 35 14 10 35 13 9 34 12 10 34 12 10 34 12 10 34 11 9 33 11 9 33 13 11 35 12 10 34 13 11 35 13 11 35 12 10 34 12 10 34 12 10 34 12 10 34 13 11 35 11 9 33 12 10 34 11 9 33 12 10 34 11 9 33 12 10 34 12 10 34 11 9 33 12 10 34 13 11 35 13 11 35 12 10 34 12 10 34 12 10 34 12 10 34 12 10 34 12 10 34 13 11 35 13 11 35 12 10 34 14 12 36 11 9 33 11 9 33 13 11 35 12 10 34 14 12 36 13 11 35 13 11 35 13 11 35 13 11 35 12 10 34 12 10 34 13 11 35 12 10 34 12 10 34 11 9 33 13 11 35 10 8 32 13 11 35 13 11 35 12 10 34 12 10 34 13 11 35 12 10 34 12 10 34 13 11 35 13 11 35 12 10 34 13 11 35 12 10 34 11 9 33 12 10 34 12 10 34 12 10 34 13 11 35 12 10 34 12 10 34 12 10 34 12 10 34 12 10 34 12 10 34 12 10 34 13 11 35 12 10 34 14 12 36 12 10 34 12 10 34 11 9 33 12 10 34 13 11 35 12 10 34 13 11 35 13 11 35 12 10 34 13 11 35 11 9 33 
27 15 39 25 15 39 22 14 37 21 13 37 21 13 37 18 13 36 17 13 36 15 11 36 13 11 35 14 10 35 12 10 34 12 10 34 13 11 35 12 10 34 12 10 34 13 11 35 11 9 33 11 9 33 12 10 34 13 11 35 12 10 34 11 9 33 13 11 35 12 10 34 12 10 34 13 11 35 12 10 34 12 10 34 13 11 35 12 10 34 12 10 34 12 10 34 13 11 35 12 10 34 13 11 35 11 9 33 12 10 34 13 11 35 13 11 35 12 10 34 11 9 33 12 10 34 12 10 34 12 10 34 13 11 35 12 10 34 11 9 33 12 10 34 11 9 33 13 11 35 12 10 34 12 10 34 12 10 34 12 10 34 12 10 34 11 9 33 12 10 34 13 11 35 11 9 33 12 10 34 12 10 34 13 11 35 13 11 35 11 9 33 11 9 33 12 10 34 12 10 34 12 10 34 12 10 34 10 8 32 11 9 33 13 11 35 11 9 33 12 10 34 12 10 34 11 9 33 12 10 34 13 11 35 13 11 35 11 9 33 12 10 34 12 10 34 13 11 35 11 9 33 12 10 34 12 10 34 13 11 35 12 10 34 12 10 34 11 9 33 12 10 34 12 10 34 13 11 35 12 10 34 12 10 34 12 10 34 11 9 33 12 10 34 13 11 35 12 10 34 
26 16 40 23 15 38 22 14 38 23 15 39 21 13 37 18 13 36 16 12 35 14 12 36 14 10 35 12 10 34 12 10 34 12 10 34 13 11 35 12 10 34 13 11 35 11 9 33 11 9 33 12 10 34 12 10 34 12 10 34 12 10 34 13 11 35 12 10 34 12 10 34 12 10 34 13 11 35 13 11 35 12 10 34 12 10 34 13 11 35 12 10 34 12 10 34 12 10 34 11 9 33 11 9 33 13 11 35 13 11 35 12 10 34 12 10 34 12 10 34 12 10 34 12 10 34 12 10 34 12 10 34 13 11 35 11 9 33 14 12 36 12 10 34 14 12 36 13 11 35 11 9 33 12 10 34 12 10 34 13 11 35 13 11 35 12 10 34 13 11 35 13 11 35 11 9 33 12 10 34 12 10 34 12 10 34 12 10 34 13 11 35 12 10 34 12 10 34 12 10 34 12 10 34 13 11 35 12 10 34 12 10 34 12 10 34 12 10 34 13 11 35 13 11 35 12 10 34 12 10 34 11 9 33 11 9 33 11 9 33 12 10 34 12 10 34 13 11 35 13 11 35 13 11 35 12 10 34 12 10 34 13 11 35 13 11 35 13 11 35 13 11 35 13 11 35 11 9 33 14 12 36 12 10 34 13 11 35 12 10 34 11 9 33 12 10 34 11 9 33 
26 16 40 20 15 38 22 14 38 19 14 37 19 14 37 17 12 35 15 11 36 14 10 35 14 8 34 13 11 35 12 10 34 11 9 33 11 9 33 11 9 33 12 10 34 12 10 34 13 11 35 12 10 34 13 11 35 11 9 33 13 11 35 12 10 34 12 10 34 13 11 35 12 10 34 12 10 34 13 11 35 13 11 35 12 10 34 12 10 34 11 9 33 13 11 35 13 11 35 13 11 35 13 11 35 12 10 34 12 10 34 13 11 35 12 10 34 11 9 33 12 10 34 13 11 35 12 10 34 12 10 34 12 10 34 12 10 34 12 10 34 13 11 35 13 11 35 13 11 35 12 10 34 12 10 34 12 10 34 11 9 33 12 10 34 12 10 34 12 10 34 13 11 35 12 10 34 12 10 34 11 9 33 13 11 35 13 11 35 13 11 35 11 9 33 12 10 34 13 11 35 13 11 35 12 10 34 12 10 34 12 10 34 14 12 36 11 9 33 13 11 35 12 10 34 12 10 34 11 9 33 11 9 33 12 10 34 12 10 34 12 10 34 12 10 34 12 10 34 12 10 34 12 10 34 13 11 35 13 11 35 12 10 34 12 10 34 12 10 34 13 11 35 13 11 35 13 11 35 13 11 35 12 10 34 12 10 34 12 10 34 12 10 34 12 10 34 12 10 34 
24 16 39 23 13 38 22 13 40 19 14 37 18 13 36 18 13 36 16 12 35 14 10 35 13 9 34 11 9 33 12 10 34 13 11 35 12 10 34 13 11 35 12 10 34 10 8 32 12 10 34 12 10 34 13 11 35 12 10 34 12 10 34 13 11 35 12 10 34 12 10 34 12 10 34 12 10 34 12 10 34 12 10 34 13 11 35 11 9 33 13 11 35 12 10 34 13 11 35 11 9 33 12 10 34 11 9 33 12 10 34 12 10 34 13 11 35 11 9 33 13 11 35 12 10 34 13 11 35 11 9 33 13 11 35 13 11 35 13 11 35 13 11 35 12 10 34 13 11 35 13 11 35 13 11 35 12 10 34 12 10 34 12 10 34 13 11 35 13 11 35 13 11 35 13 11 35 12 10 34 12 10 34 13 11 35 12 10 34 12 10 34 13 11 35 12 10 34 11 9 33 12 10 34 13 11 35 12 10 34 12 10 34 13 11 35 12 10 34 12 10 34 12 10 34 11 9 33 13 11 35 13 11 35 13 11 35 12 10 34 11 9 33 12 10 34 12 10 34 13 11 35 12 10 34 12 10 34 13 11 35 13 11 35 13 11 35 13 11 35 12 10 34 12 10 34 11 9 33 13 11 35 12 10 34 12 10 34 13 11 35 12 10 34 12 10 34 13 11 35 
26 14 38 23 15 39 22 14 38 21 13 37 18 13 36 16 12 35 15 11 36 14 10 33 11 9 33 12 10 34 12 10 34 12 10 34 12 10 34 12 10 34 12 10 34 11 9 33 12 10 34 11 9 33 13 11 35 12 10 34 11 9 33 12 10 34 10 8 32 13 11 35 12 10 34 11 9 33 13 11 35 12 10 34 13 11 35 12 10 34 13 11 35 12 10 34 11 9 33 12 10 34 11 9 33 12 10 34 13 11 35 13 11 35 11 9 33 13 11 35 12 10 34 13 11 35 12 10 34 11 9 33 12 10 34 11 9 33 13 11 35 11 9 33 13 11 35 12 10 34 13 11 35 11 9 33 13 11 35 12 10 34 12 10 34 12 10 34 12 10 34 12 10 34 12 10 34 12 10 34 11 9 33 12 10 34 13 11 35 11 9 33 12 10 34 11 9 33 12 10 34 13 11 35 12 10 34 12 10 34 13 11 35 12 10 34 12 10 34 13 11 35 12 10 34 13 11 35 12 10 34 11 9 33 12 10 34 12 10 34 13 11 35 12 10 34 11 9 33 11 9 33 12 10 34 12 10 34 12 10 34 13 11 35 11 9 33 12 10 34 12 10 34 12 10 34 13 11 35 12 10 34 13 11 35 11 9 33 13 11 35 12 10 34 12 10 34 13 11 35 
23 15 39 22 14 38 21 13 37 20 12 36 17 11 37 16 12 37 15 11 36 13 11 35 12 10 34 12 10 34 12 10 34 12 10 34 11 9 33 13 11 35 11 9 33 12 10 34 13 11 35 12 10 34 13 11 35 12 10 34 12 10 34 13 11 35 11 9 33 11 9 33 12 10 34 12 10 34 12 10 34 12 10 34 12 10 34 11 9 33 13 11 35 12 10 34 12 10 34 11 9 33 12 10 34 12 10 34 12 10 34 11 9 33 13 11 35 13 11 35 11 9 33 11 9 33 12 10 34 11 9 33 12 10 34 13 11 35 12 10 34 12 10 34 13 11 35 12 10 34 12 10 34 11 9 33 12 10 34 12 10 34 12 10 34 11 9 33 12 10 34 12 10 34 13 11 35 13 11 35 12 10 34 13 11 35 12 10 34 12 10 34 13 11 35 13 11 35 13 11 35 13 11 35 13 11 35 13 11 35 12 10 34 13 11 35 11 9 33 11 9 33 11 9 33 11 9 33 12 10 34 12 10 34 11 9 33 11 9 33 13 11 35 13 11 35 11 9 33 12 10 34 12 10 34 12 10 34 12 10 34 12 10 34 13 11 35 13 11 35 12 10 34 12 10 34 11 9 33 13 11 35 11 9 33 12 10 34 13 11 35 12 10 34 11 9 33 11 9 33 
20 15 37 22 14 38 21 12 39 19 14 36 17 11 37 16 12 37 14 10 35 12 10 34 11 9 33 13 11 35 12 10 34 11 9 33 12 10 34 12 10 34 13 11 35 12 10 34 11 9 33 12 10 34 12 10 34 11 9 33 12 10 34 12 10 34 12 10 34 13 11 35 11 9 33 13 11 35 14 12 36 13 11 35 12 10 34 13 11 35 12 10 34 11 9 33 12 10 34 12 10 34 12 10 34 13 11 35 11 9 33 13 11 35 12 10 34 13 11 35 13 11 35 11 9 33 12 10 34 12 10 34 13 11 35 12 10 34 13 11 35 12 10 34 12 10 34 13 11 35 12 10 34 12 10 34 12 10 34 12 10 34 12 10 34 12 10 34 12 10 34 13 11 35 13 11 35 12 10 34 11 9 33 12 10 34 12 10 34 11 9 33 12 10 34 12 10 34 12 10 34 12 10 34 12 10 34 12 10 34 12 10 34 12 10 34 13 11 35 13 11 35 13 11 35 12 10 34 11 9 33 12 10 34 12 10 34 12 10 34 13 11 35 12 10 34 12 10 34 13 11 35 11 9 33 12 10 34 12 10 34 12 10 34 12 10 34 12 10 34 12 10 34 11 9 33 13 11 35 14 12 36 12 10 34 13 11 35 12 10 34 13 11 35 11 9 33 13 11 35 
22 14 38 21 13 37 21 13 37 17 12 35 17 11 37 16 10 36 13 11 35 13 9 34 12 10 34 12 10 34 12 10 34 12 10 34 13 11 35 13 11 35 11 9 33 12 10 34 12 10 34 13 11 35 13 11 35 13 11 35 13 11 35 13 11 35 13 11 35 12 10 34 13 11 35 12 10 34 13 11 35 12 10 34 12 10 34 12 10 34 12 10 34 12 10 34 12 10 34 13 11 35 13 11 35 12 10 34 12 10 34 12 10 34 13 11 35 13 11 35 12 10 34 13 11 35 12 10 34 12 10 34 11 9 33 11 9 33 11 9 33 11 9 33 13 11 35 11 9 33 12 10 34 12 10 34 12 10 34 12 10 34 13 11 35 12 10 34 12 10 34 12 10 34 14 12 36 12 10 34 13 11 35 12 10 34 13 11 35 13 11 35 12 10 34 12 10 34 12 10 34 13 11 35 12 10 34 13 11 35 12 10 34 12 10 34 13 11 35 12 10 34 12 10 34 13 11 35 12 10 34 13 11 35 14 12 36 12 10 34 11 9 33 13 11 35 12 10 34 12 10 34 12 10 34 12 10 34 13 11 35 13 11 35 12 10 34 11 9 33 11 9 33 13 11 35 12 10 34 13 11 35 13 11 35 12 10 34 13 11 35 13 11 35 12 10 34 12 10 34 
22 14 38 21 13 37 21 13 37 18 13 36 16 12 37 15 11 36 14 10 35 12 10 34 12 10 34 12 10 34 12 10 34 11 9 33 11 9 33 12 10 34 13 11 35 11 9 33 12 10 34 12 10 34 13 11 35 13 11 35 12 10 34 12 10 34 11 9 33 11 9 33 12 10 34 12 10 34 12 10 34 13 11 35 13 11 35 11 9 33 13 11 35 13 11 35 13 11 35 12 10 34 12 10 34 11 9 33 12 10 34 12 10 34 12 10 34 13 11 35 12 10 34 13 11 35 12 10 34 12 10 34 12 10 34 13 11 35 11 9 33 12 10 34 11 9 33 12 10 34 13 11 35 13 11 35 11 9 33 12 10 34 12 10 34 12 10 34 13 11 35 12 10 34 11 9 33 14 12 36 11 9 33 12 10 34 12 10 34 12 10 34 12 10 34 11 9 33 13 11 35 13 11 35 12 10 34 12 10 34 12 10 34 13 11 35 12 10 34 12 10 34 12 10 34 12 10 34 12 10 34 14 12 36 11 9 33 12 10 34 13 11 35 11 9 33 12 10 34 13 11 35 13 11 35 12 10 34 12 10 34 11 9 33 12 10 34 13 11 35 13 11 35 12 10 34 13 11 35 13 11 35 13 11 35 12 10 34 12 10 34 11 9 33 11 9 33 12 10 34 
22 14 38 21 13 37 18 13 36 18 13 36 17 11 37 14 10 35 13 11 35 14 10 35 11 9 33 12 10 34 13 11 35 12 10 34 12 10 34 12 10 34 12 10 34 10 8 32 12 10 34 13 11 35 12 10 34 12 10 34 13 11 35 12 10 34 13 11 35 11 9 33 13 11 35 13 11 35 12 10 34 13 11 35 13 11 35 12 10 34 13 11 35 12 10 34 13 11 35 12 10 34 11 9 33 12 10 34 12 10 34 12 10 34 12 10 34 12 10 34 12 10 34 13 11 35 11 9 33 12 10 34 11 9 33 12 10 34 12 10 34 13 11 35 13 11 35 12 10 34 12 10 34 13 11 35 12 10 34 13 11 35 13 11 35 11 9 33 12 10 34 13 11 35 13 11 35 13 11 35 13 11 35 12 10 34 13 11 35 13 11 35 13 11 35 13 11 35 12 10 34 13 11 35 11 9 33 13 11 35 10 8 32 12 10 34 13 11 35 12 10 34 12 10 34 12 10 34 13 11 35 13 11 35 12 10 34 11 9 33 12 10 34 12 10 34 11 9 33 12 10 34 13 11 35 12 10 34 13 11 35 13 11 35 12 10 34 12 10 34 11 9 33 11 9 33 11 9 33 11 9 33 13 11 35 12 10 34 13 11 35 12 10 34 12 10 34 11 9 33 
23 15 39 21 13 37 18 13 36 17 12 35 14 10 35 13 11 35 13 9 34 10 10 34 12 10 34 13 11 35 13 11 35 13 11 35 12 10 34 11 9 33 13 11 35 12 10 34 11 9 33 12 10 34 11 9 33 12 10 34 13 11 35 12 10 34 13 11 35 14 12 36 12 10 34 13 11 35 12 10 34 11 9 33 13 11 35 14 12 36 13 11 35 12 10 34 12 10 34 13 11 35 11 9 33 11 9 33 12 10 34 12 10 34 11 9 33 12 10 34 11 9 33 12 10 34 13 11 35 12 10 34 13 11 35 13 11 35 12 10 34 12 10 34 12 10 34 12 10 34 11 9 33 12 10 34 12 10 34 13 11 35 13 11 35 13 11 35 13 11 35 13 11 35 11 9 33 13 11 35 12 10 34 13 11 35 13 11 35 13 11 35 12 10 34 12 10 34 12 10 34 13 11 35 12 10 34 13 11 35 11 9 33 12 10 34 13 11 35 10 8 32 13 11 35 12 10 34 11 9 33 12 10 34 11 9 33 12 10 34 12 10 34 13 11 35 13 11 35 11 9 33 12 10 34 12 10 34 10 8 32 12 10 34 12 10 34 13 11 35 13 11 35 12 10 34 12 10 34 13 11 35 13 11 35 12 10 34 12 10 34 12 10 34 14 12 36 13 11 35 
