P3
100 50
255
19 17 56 26 18 57 22 17 57 24 17 58 19 17 57 26 18 57 25 19 57 26 18 57 23 18 59 61 21 58 52 22 56 23 16 57 25 18 59 24 17 58 24 17 58 22 17 57 22 18 55 23 18 58 24 19 59 26 18 59 28 17 57 26 18 57 25 18 59 24 17 58 25 18 59 24 17 59 31 19 57 29 18 60 30 18 56 33 18 57 80 24 59 26 18 57 30 18 58 29 18 58 30 20 55 26 20 58 26 20 58 25 18 59 28 17 59 28 17 57 28 17 59 30 18 58 26 18 57 24 17 58 26 18 59 25 17 58 31 19 57 29 18 58 30 18 58 30 18 58 74 24 59 29 17 57 29 18 58 29 18 58 31 19 59 25 18 59 25 17 58 24 18 56 29 18 58 29 18 58 26 18 59 30 18 58 25 18 59 26 18 57 26 19 60 30 19 59 29 18 60 29 21 62 28 21 63 71 25 62 45 24 67 29 21 68 30 23 67 31 22 67 28 22 68 27 24 69 26 24 71 26 24 71 26 24 71 26 23 70 27 24 71 26 25 69 27 26 70 26 23 68 26 23 68 29 22 66 29 22 64 29 22 64 33 20 63 27 20 62 82 25 60 26 18 59 32 20 60 31 19 59 33 18 59 26 19 60 27 18 61 24 17 58 28 17 57 29 18 58 
67 23 58 70 23 57 69 24 57 70 23 57 68 24 57 70 25 56 71 24 58 71 24 58 69 24 57 81 24 57 81 24 59 69 23 59 70 23 57 70 23 57 72 25 59 69 22 56 69 24 57 69 23 59 70 23 57 71 24 58 73 23 58 71 24 58 70 23 57 70 23 59 70 23 59 70 23 57 76 22 56 71 24 58 73 24 56 73 24 56 92 27 57 72 25 59 73 23 58 73 23 58 73 23 58 70 23 59 71 24 58 70 23 57 73 23 58 73 24 56 72 22 57 73 23 58 74 24 59 70 23 57 71 21 56 70 23 57 73 23 58 72 23 55 72 22 57 70 23 59 89 26 57 73 23 58 72 22 57 74 22 58 75 23 59 70 23 57 70 23 57 70 23 57 73 24 56 73 23 58 70 23 59 73 24 56 70 23 57 73 23 58 71 21 58 71 25 61 72 26 63 73 25 65 74 28 67 87 25 62 79 28 69 73 28 67 73 26 70 73 26 68 72 27 70 70 29 73 69 28 72 70 29 73 69 28 72 72 26 72 72 26 72 74 29 72 69 31 78 69 32 76 72 27 70 73 26 68 76 25 66 73 25 65 73 25 63 71 25 62 95 28 63 70 24 60 74 25 57 74 22 60 74 25 57 74 24 59 73 23 58 70 23 59 73 23 58 74 22 58 
14 16 57 21 19 59 15 17 56 15 17 58 12 17 57 20 18 57 18 17 57 19 17 57 15 17 58 56 20 58 49 21 59 18 17 59 20 18 58 21 16 57 18 17 59 14 16 55 14 18 56 14 17 58 15 17 56 16 18 57 18 17 57 15 17 56 15 17 56 16 15 57 13 16 57 14 16 57 20 18 58 18 17 57 19 17 56 21 19 58 79 23 58 15 17 56 20 18 58 15 17 58 19 17 56 14 17 58 12 15 56 13 16 57 14 17 58 15 17 58 15 17 58 15 17 56 14 16 57 11 16 58 13 17 55 14 18 56 19 17 57 15 17 58 18 17 57 17 16 56 71 24 58 20 18 57 16 18 57 18 17 57 19 17 57 15 17 56 14 17 58 14 18 56 15 17 56 15 17 56 14 17 58 20 18 57 13 16 59 15 18 59 14 19 61 18 19 63 16 19 62 17 20 65 16 20 68 67 26 70 35 24 67 16 23 69 18 24 72 17 25 72 16 23 75 13 25 73 14 26 74 13 27 76 14 26 74 17 25 74 15 23 72 11 36 93 7 71 142 10 49 114 12 23 69 14 21 67 20 21 67 18 21 66 18 19 63 14 18 63 82 25 60 15 18 61 20 18 58 18 17 57 22 17 57 15 17 58 18 17 59 14 17 58 14 16 55 19 18 60 
13 16 57 22 17 57 16 18 59 15 17 58 14 18 56 21 16 56 19 17 56 19 17 57 17 17 55 56 20 58 52 20 57 18 17 57 19 17 57 18 17 57 20 18 58 14 18 56 17 16 56 15 17 58 17 16 56 18 17 57 19 17 57 17 16 56 16 18 57 14 16 57 15 18 59 19 17 57 23 18 59 19 17 57 22 17 57 25 18 59 80 24 59 18 16 56 20 18 58 20 18 58 22 17 57 17 16 56 16 18 57 15 16 60 18 17 57 20 18 55 18 17 57 19 18 58 18 16 56 14 16 57 15 17 58 16 18 59 21 16 56 18 17 57 19 17 56 19 17 56 74 22 58 24 20 57 20 18 58 20 18 58 20 18 57 18 17 57 14 17 58 15 17 58 18 17 57 19 17 57 17 16 58 20 18 58 17 19 60 19 18 60 15 18 61 21 18 63 18 23 65 24 23 67 17 21 66 65 26 70 37 24 70 19 23 71 17 25 72 14 26 74 14 26 74 14 26 76 15 27 77 15 29 78 16 28 78 16 28 80 11 45 108 5 77 151 6 74 149 13 33 86 16 23 69 16 23 67 20 23 68 19 22 67 19 21 62 16 21 63 87 27 61 18 17 59 22 17 58 19 17 57 23 18 59 15 17 56 18 17 57 17 19 58 18 17 59 19 16 59 
14 19 59 23 16 58 13 16 57 12 15 56 13 15 56 18 17 57 16 18 57 19 17 57 15 17 56 53 22 56 48 21 56 17 16 56 18 17 57 19 18 58 18 17 57 13 16 57 15 17 56 14 17 58 13 17 55 15 17 56 15 17 56 14 18 56 14 17 58 14 17 58 13 16 57 14 17 58 19 17 57 20 19 59 20 18 58 23 18 59 78 24 58 16 18 57 19 17 56 19 17 57 19 18 58 15 17 58 14 17 58 13 16 57 16 18 57 16 18 57 15 17 56 15 17 56 14 17 58 13 18 58 14 16 57 14 17 58 19 17 56 15 17 56 20 18 58 20 18 58 71 24 58 24 18 56 18 17 57 19 18 58 19 17 57 16 18 57 14 17 58 15 18 61 19 18 58 15 18 59 12 17 59 21 18 61 14 17 60 15 20 62 16 20 65 18 21 66 14 21 65 19 24 66 16 23 67 65 26 70 34 26 73 14 26 76 15 27 75 15 27 77 15 27 77 15 28 80 15 29 78 15 28 80 12 33 88 9 58 125 8 82 155 9 76 147 13 38 95 14 24 73 14 25 71 16 23 69 19 23 68 18 21 66 20 21 65 15 20 62 85 25 59 16 17 61 20 19 59 18 17 59 24 17 58 14 17 58 15 18 59 15 18 59 16 19 62 16 18 59 
14 16 57 20 18 57 16 18 57 18 17 59 14 16 57 22 17 58 19 17 57 21 16 56 19 18 58 55 21 56 51 21 59 19 18 58 22 17 58 19 17 57 20 18 57 16 15 55 15 17 56 15 17 56 15 17 56 19 17 57 20 18 57 18 17 57 16 18 57 14 18 56 15 17 58 16 18 56 22 17 57 19 17 57 22 17 57 23 19 56 78 22 57 20 18 57 20 18 58 19 17 57 21 15 59 16 18 57 16 18 57 14 17 58 17 16 56 18 18 56 17 16 56 19 17 56 17 16 56 15 17 58 18 18 56 15 17 56 24 17 59 15 17 56 22 17 57 22 17 57 73 23 58 25 19 57 20 18 57 20 18 58 23 18 58 17 16 56 15 17 56 13 17 55 19 17 57 19 18 60 16 18 59 22 20 60 16 19 62 17 20 63 14 21 67 19 23 68 19 23 68 19 23 68 16 24 70 66 27 72 35 27 74 15 27 77 15 29 78 16 28 80 15 29 78 16 28 78 16 30 79 9 41 98 8 68 138 7 81 154 6 83 155 10 44 107 14 26 74 14 26 76 14 24 73 16 23 69 20 23 66 19 21 69 21 20 64 17 20 63 87 27 61 19 18 62 24 19 59 20 18 58 23 18 58 19 18 60 19 18 60 18 20 61 18 20 61 20 19 63 
9 17 56 16 18 57 12 15 56 13 16 59 9 17 56 14 16 55 14 16 57 15 17 56 14 17 58 52 20 57 47 21 58 13 16 57 15 17 58 15 17 58 15 18 59 8 16 55 11 16 56 10 15 57 11 16 56 14 17 58 15 17 56 14 17 58 12 17 57 13 18 58 12 17 59 12 17 57 16 18 57 14 17 58 15 17 58 19 18 58 78 24 58 14 17 58 15 17 56 14 16 57 15 17 56 11 16 56 12 17 59 12 17 59 12 17 57 14 17 58 12 15 56 14 17 58 13 16 57 11 16 58 12 17 57 12 17 57 16 18 57 14 17 58 15 17 56 16 18 57 73 23 58 23 18 58 15 17 56 14 16 57 15 17 56 12 17 57 11 16 58 11 16 56 15 18 59 13 16 59 13 18 60 15 18 61 12 19 63 10 21 67 11 19 65 14 22 68 12 23 69 13 24 69 9 25 74 64 28 72 34 28 76 14 27 79 15 29 78 16 29 81 11 29 79 9 30 83 7 45 108 7 74 144 4 74 146 9 78 153 8 59 124 11 29 79 11 27 76 11 25 74 11 25 74 12 23 69 19 23 68 16 20 65 16 20 65 11 18 62 86 26 60 11 18 60 18 20 61 14 19 59 19 18 58 13 18 60 13 18 60 12 19 63 14 18 63 14 19 61 
9 16 58 15 17 58 13 16 57 14 17 58 10 18 57 14 16 55 14 17 58 15 17 56 12 15 56 53 21 58 46 20 57 14 17 58 15 17 56 15 17 58 15 17 58 9 17 56 13 16 57 12 17 57 11 16 56 14 18 56 14 16 57 13 16 57 11 16 56 11 16 56 12 17 57 12 17 57 16 18 57 14 17 58 15 17 56 19 19 57 78 24 58 13 17 55 15 17 56 14 17 58 16 18 57 13 16 57 11 16 56 11 16 56 12 17 57 14 17 58 13 16 57 14 17 58 13 16 57 11 16 58 12 17 57 11 16 58 15 17 56 13 16 57 16 18 59 15 17 58 71 24 58 20 18 57 15 17 56 15 17 56 15 17 58 14 17 58 11 16 56 12 17 59 15 18 63 14 17 60 11 18 62 16 20 65 12 20 66 12 20 67 9 20 66 12 23 69 13 24 70 14 26 74 12 26 75 65 29 77 31 28 75 12 30 80 14 31 83 13 31 81 15 32 84 7 55 119 9 79 149 10 59 126 7 68 135 7 70 141 14 31 85 12 28 77 13 27 74 11 25 72 11 25 72 14 22 69 19 23 68 14 21 67 18 21 66 13 20 64 86 26 60 14 18 65 16 19 62 16 19 62 19 18 60 13 18 60 12 19 63 10 19 60 14 18 65 15 19 64 
9 17 56 16 18 57 10 18 57 11 16 56 9 17 56 14 16 55 15 17 58 15 17 56 12 17 57 52 20 57 46 20 57 13 16 57 14 16 55 14 17 60 12 15 56 9 16 58 11 16 58 8 15 57 11 14 55 12 17 57 14 15 59 13 16 57 12 17 59 9 16 58 11 16 56 11 16 56 16 18 57 13 17 55 15 17 58 18 17 57 78 24 58 13 16 57 13 16 57 13 16 57 14 17 58 9 17 56 9 17 56 8 15 57 11 16 56 13 16 57 12 15 56 12 15 56 11 16 56 11 16 58 12 17 57 11 16 56 18 17 57 13 16 57 15 17 56 15 17 56 70 23 57 21 19 58 14 18 56 15 18 59 17 16 56 11 16 56 9 16 58 11 16 56 14 17 58 13 18 60 11 18 62 14 21 65 11 19 66 12 21 64 10 23 68 13 24 70 13 25 73 13 25 73 10 28 78 63 29 79 28 28 78 12 29 81 15 31 83 11 32 85 9 60 125 8 81 149 6 55 121 7 55 119 8 77 146 12 43 98 12 28 79 12 28 79 11 29 79 11 25 74 12 24 72 12 23 68 18 22 67 13 20 64 14 21 65 12 19 63 85 25 59 12 19 63 17 18 62 15 18 63 17 18 62 12 19 63 10 17 61 11 19 65 13 20 64 13 20 66 
11 16 56 17 16 56 12 17 57 13 16 57 11 16 56 15 17 56 14 16 55 17 16 56 14 16 57 52 20 57 46 20 57 13 16 57 18 17 59 15 17 56 15 19 57 11 16 56 11 16 56 12 17 57 9 17 56 14 17 58 15 17 56 13 16 57 12 17 57 9 17 56 12 17 57 12 17 57 18 18 56 15 17 58 16 18 57 20 18 57 78 24 58 15 17 56 16 18 57 15 17 58 19 17 57 13 16 57 12 17 57 12 17 57 14 17 58 15 17 58 13 17 55 15 17 56 14 17 58 11 16 58 13 16 57 12 17 57 19 17 57 15 17 56 14 16 55 16 18 57 71 24 58 23 18 58 15 17 56 15 17 58 16 18 59 14 17 60 12 17 59 13 18 60 14 19 61 14 18 63 12 19 63 16 20 65 14 21 67 10 21 66 11 22 68 13 25 73 13 25 73 15 27 77 12 28 79 63 31 81 32 30 80 13 30 82 13 36 90 8 63 130 7 80 148 8 52 115 9 43 106 8 78 148 11 56 121 13 30 82 15 27 79 12 28 79 14 26 76 12 26 73 13 23 72 15 23 69 18 22 67 16 21 63 16 20 65 13 20 64 88 28 62 13 18 60 18 19 63 16 19 60 17 18 62 12 19 63 12 19 63 13 20 66 13 20 66 14 20 68 
13 16 57 20 18 57 13 16 57 15 17 58 14 16 57 19 17 57 17 16 56 18 17 57 16 18 59 55 21 58 48 21 56 15 17 58 20 18 58 18 17 57 17 16 56 12 15 56 14 17 58 13 18 58 15 17 56 14 17 58 19 18 58 14 16 57 13 17 55 12 17 57 15 18 59 13 16 57 18 16 56 18 17 59 19 17 57 23 18 58 79 24 56 17 16 56 18 17 57 14 16 55 18 17 57 14 17 58 14 18 56 13 16 57 14 17 58 16 18 57 15 17 56 16 18 57 15 17 56 13 16 57 13 16 57 13 16 57 19 17 56 16 18 57 19 18 58 19 17 57 74 23 56 23 18 58 18 17 57 17 16 56 18 17 59 15 18 61 14 17 62 13 17 62 12 19 65 15 19 66 11 19 65 18 22 67 12 20 67 13 24 70 11 25 74 15 25 76 11 29 79 14 27 79 8 28 79 63 30 83 34 29 85 8 37 95 8 75 143 9 82 151 8 46 108 8 37 93 8 75 145 8 66 130 14 31 83 15 31 83 16 26 79 15 29 78 14 26 78 14 24 75 13 25 73 16 23 69 19 22 67 19 21 69 19 20 64 16 20 65 87 27 61 12 19 63 18 20 61 16 19 62 18 19 65 12 20 66 11 19 65 11 19 65 13 21 67 12 23 69 
11 16 56 16 18 57 14 17 58 14 17 58 12 17 57 18 17 57 17 16 56 18 17 57 14 18 56 56 22 57 48 21 54 15 17 56 18 17 57 16 18 57 15 17 58 11 16 56 14 17 58 11 14 55 14 17 58 15 17 58 15 17 58 13 16 57 13 16 57 12 17 57 13 16 57 13 16 57 18 18 56 15 17 58 18 17 57 20 18 57 79 25 61 15 17 56 17 16 56 18 17 57 18 17 57 14 17 58 14 17 58 13 16 59 14 17 58 15 17 56 14 16 55 15 17 56 15 17 56 13 16 57 13 16 57 13 16 57 18 17 57 18 17 57 19 17 57 18 17 57 73 23 58 22 17 57 19 18 58 16 18 59 17 19 60 14 19 59 11 18 62 10 19 60 16 20 65 13 20 64 10 21 67 16 23 67 12 25 70 11 25 72 9 27 75 11 27 78 10 28 78 13 30 82 10 30 81 63 30 83 33 39 101 10 79 146 8 81 150 11 40 100 9 31 88 9 64 131 6 76 146 11 37 94 13 30 82 15 29 78 14 28 75 15 27 75 13 25 73 12 24 74 13 24 70 14 23 66 20 24 69 16 20 65 17 20 63 13 20 64 87 27 63 14 18 63 17 20 63 16 21 63 17 20 65 13 21 67 13 21 67 10 21 66 12 23 69 12 25 70 
13 16 57 19 17 57 14 17 58 15 17 58 15 17 58 18 17 57 16 18 57 19 17 57 15 17 56 53 22 56 47 22 54 15 19 57 20 18 57 19 18 58 17 16 56 13 16 57 15 17 56 12 15 56 15 17 56 15 17 56 16 18 57 14 18 56 13 16 57 13 16 57 14 17 58 15 17 56 19 17 56 15 17 56 19 18 58 24 17 58 79 24 56 16 18 57 18 17 57 16 18 57 19 17 57 12 15 56 14 17 58 13 16 57 15 19 57 16 18 57 15 17 56 15 17 56 15 16 60 13 16 57 14 17 58 15 17 58 19 17 56 18 18 56 19 17 57 20 18 58 75 24 57 24 17 58 16 17 61 16 18 59 18 17 59 16 19 62 12 19 65 14 18 63 16 19 64 15 22 66 13 21 68 16 24 71 12 24 74 9 25 74 10 28 76 12 28 79 11 28 80 14 30 82 11 31 84 30 41 105 9 82 150 8 76 147 9 39 101 11 34 88 9 50 114 8 82 153 8 46 109 13 30 82 14 32 82 16 29 81 14 28 77 13 27 74 12 24 72 13 24 70 12 23 68 16 23 69 19 23 68 16 21 61 18 19 63 14 21 65 89 27 64 17 22 64 19 18 62 16 20 65 18 23 65 12 20 66 15 22 68 11 22 68 12 25 70 12 26 73 
13 16 57 17 16 56 13 16 57 13 16 59 11 16 56 17 19 58 15 17 56 19 18 58 14 17 58 52 20 57 47 20 55 14 17 58 17 16 56 15 17 56 15 17 56 12 17 57 12 15 56 12 17 57 13 16 57 14 16 57 14 17 58 13 16 57 11 16 56 12 17 57 12 17 57 13 16 57 18 17 57 15 17 58 15 17 58 20 18 58 77 23 57 15 17 58 17 16 56 15 17 58 17 16 56 14 16 57 12 17 57 11 16 56 14 17 58 14 16 55 14 17 58 15 17 58 14 17 58 11 16 56 13 16 57 11 16 58 18 17 57 16 18 57 17 16 56 18 17 57 72 22 57 21 19 59 14 17 58 16 19 62 15 18 59 12 19 63 12 19 65 11 19 66 11 22 68 11 22 68 9 21 69 11 25 74 9 25 74 7 27 78 5 25 75 9 29 79 8 29 82 11 31 84 9 41 102 8 82 153 6 75 142 8 37 95 9 30 85 8 37 95 8 78 147 11 59 123 9 32 86 9 31 81 10 30 81 14 27 79 14 28 77 15 25 76 13 25 75 13 24 70 12 23 68 15 21 69 17 21 66 15 20 62 17 20 63 13 20 64 86 29 62 13 20 64 16 20 65 13 20 66 18 22 67 10 21 67 13 24 70 13 26 71 11 25 74 10 26 75 
8 15 57 16 18 57 12 17 57 12 15 56 9 17 56 14 18 56 12 15 56 15 17 55 12 15 56 51 20 54 46 20 59 13 16 57 13 16 57 13 16 57 13 16 57 9 16 58 9 17 56 10 17 59 10 18 57 11 16 56 13 18 58 11 16 58 9 17 56 9 17 56 11 16 58 11 16 58 15 17 56 13 16 57 14 17 58 18 17 57 77 23 57 12 17 57 14 17 58 12 15 56 15 17 56 11 16 56 9 17 56 10 17 59 13 18 58 14 17 58 11 16 56 13 16 57 9 17 56 9 17 56 10 17 59 11 16 56 15 17 56 13 18 58 14 17 58 15 17 58 69 24 57 20 18 57 14 17 58 14 19 61 16 19 62 11 19 65 9 17 66 11 19 66 10 21 67 8 22 67 7 25 73 11 25 72 9 27 75 6 28 77 4 30 81 7 28 81 7 30 82 8 42 103 8 82 153 7 72 138 7 38 95 10 33 87 8 33 89 8 67 135 7 71 143 8 34 91 9 30 83 8 29 84 10 27 79 10 26 75 12 26 75 11 25 72 10 24 71 12 23 69 11 22 68 12 20 66 16 23 67 14 21 65 16 21 63 11 19 65 88 28 62 10 21 66 17 21 66 12 20 66 15 21 69 11 24 69 8 25 71 11 25 72 9 25 74 9 27 75 
9 17 56 18 17 57 13 18 60 12 17 55 11 16 58 17 16 58 14 16 57 15 17 55 14 17 58 52 20 57 45 20 59 14 17 58 15 17 58 15 17 56 15 17 56 10 17 59 11 16 58 12 17 57 11 16 56 14 17 58 14 17 58 12 15 56 10 15 55 9 17 56 12 17 57 11 16 58 15 17 58 13 16 57 15 17 56 19 18 58 78 22 57 15 17 58 15 17 56 14 17 58 15 17 55 12 15 56 12 17 57 10 18 57 13 16 59 15 17 56 12 15 56 15 17 58 12 15 56 11 16 56 10 18 57 12 17 57 16 16 54 14 18 56 17 19 60 15 17 58 72 22 59 22 20 59 15 18 61 14 19 61 16 20 65 16 20 67 13 20 66 13 21 68 11 22 67 12 25 70 11 25 74 10 26 75 7 27 77 6 29 79 3 29 80 9 30 83 9 50 112 7 84 152 6 69 136 11 33 91 8 33 87 8 33 90 7 56 122 10 83 152 8 42 103 9 30 85 7 28 81 9 29 82 10 26 77 14 26 78 13 25 73 10 24 71 14 22 69 13 24 70 12 23 69 13 20 66 18 21 66 17 20 65 15 22 66 13 21 67 87 31 70 10 21 66 15 23 69 12 23 69 13 26 71 9 26 72 9 27 75 8 28 78 9 29 80 7 30 82 
12 17 57 17 17 55 12 17 57 13 17 55 12 17 57 17 16 56 17 16 56 18 17 57 14 17 58 55 21 58 45 21 57 13 16 57 17 16 56 15 17 56 14 18 56 9 17 56 12 17 57 11 16 56 13 16 57 12 15 56 14 16 55 13 16 57 13 16 57 12 17 57 11 16 56 13 18 58 18 17 57 14 17 58 19 18 60 19 17 56 77 23 57 15 19 57 14 18 56 15 17 58 15 17 56 12 17 57 12 17 57 10 18 57 13 16 59 15 17 58 15 17 56 14 16 57 12 17 57 12 17 57 12 17 55 12 17 57 18 17 57 15 17 58 16 18 57 15 17 58 76 25 58 24 19 60 14 19 61 16 20 65 16 20 65 13 22 63 13 21 67 10 21 67 12 25 70 11 25 72 9 27 77 13 27 76 8 28 78 7 28 81 5 28 80 7 51 112 7 84 152 10 65 132 5 34 90 10 32 89 10 33 87 7 42 100 7 82 149 7 54 122 10 31 86 8 29 82 9 29 80 8 28 78 9 27 73 12 26 75 11 25 72 11 23 71 13 24 70 14 22 68 13 21 68 17 21 66 18 22 67 15 22 68 16 23 69 11 24 66 87 29 70 12 25 70 13 27 74 14 26 74 14 26 76 9 29 79 9 29 80 7 29 79 9 30 85 9 32 84 
15 17 56 22 17 57 18 17 57 18 17 57 16 15 55 22 17 57 19 17 57 22 17 57 19 17 57 58 20 57 48 20 58 18 17 57 23 18 59 20 18 58 20 18 58 13 16 57 15 17 56 15 17 58 14 18 56 18 17 57 19 17 57 17 17 55 15 17 56 13 17 55 14 19 57 15 17 58 22 17 57 19 17 57 20 18 57 24 17 59 79 23 58 18 17 57 22 17 57 19 17 57 22 17 57 16 18 57 16 18 57 15 17 56 18 17 57 18 17 57 17 16 56 18 18 56 18 17 57 15 17 56 16 18 57 16 18 57 22 17 57 19 18 58 22 17 58 24 19 60 75 23 59 26 19 60 18 19 63 18 19 63 18 21 66 16 23 67 14 22 68 12 23 69 12 26 73 13 27 74 10 28 76 16 28 78 9 29 79 7 28 81 7 51 114 8 85 153 10 64 134 10 33 87 9 32 86 11 32 89 9 34 91 6 71 139 6 70 141 13 33 86 13 30 82 12 28 80 14 27 79 12 28 79 14 26 76 14 26 76 13 24 70 14 22 68 16 23 67 18 22 67 17 21 66 18 22 67 19 22 67 17 21 66 19 23 68 15 23 69 87 30 71 12 26 75 14 26 74 15 27 75 15 27 77 12 28 79 13 30 82 10 29 85 10 33 87 8 34 91 
13 16 57 19 17 57 13 16 57 16 18 57 14 19 59 18 16 55 19 17 56 19 17 56 17 19 60 59 21 58 47 21 58 18 17 59 18 17 57 16 18 56 18 17 57 13 16 57 14 17 58 13 16 57 15 17 56 15 17 56 16 18 59 13 17 55 13 17 55 13 16 57 13 17 55 15 17 58 19 16 59 15 17 56 17 16 56 21 19 58 78 22 59 15 17 56 17 16 56 19 18 58 19 17 57 14 16 55 13 16 57 14 17 58 14 17 58 16 18 57 16 18 59 18 17 57 15 17 56 13 16 57 15 17 58 15 17 58 21 19 58 17 19 60 19 18 60 21 19 59 75 23 59 25 19 63 17 20 63 17 21 66 18 22 67 13 24 69 13 24 69 12 24 72 13 25 75 13 27 74 10 28 76 15 29 78 8 29 82 6 46 107 9 83 154 9 64 131 11 34 88 10 33 87 10 33 87 9 32 86 6 55 121 8 83 151 7 42 100 13 30 82 12 29 81 12 28 79 11 27 79 10 26 75 13 25 73 13 24 70 14 22 71 16 23 69 17 21 66 13 22 65 14 21 65 17 21 68 17 24 66 19 23 68 16 23 69 12 24 66 87 30 71 12 24 72 14 27 72 15 28 80 16 30 79 10 30 83 10 30 83 11 32 87 11 37 96 10 63 129 
13 16 57 23 16 58 15 17 56 18 17 57 14 16 55 17 19 58 19 17 56 19 17 56 17 16 56 59 21 60 47 21 56 16 18 56 19 17 57 19 17 56 21 16 56 14 16 57 14 16 55 14 16 55 15 17 56 17 16 56 18 17 57 17 16 56 15 17 56 13 18 56 15 17 56 16 15 55 21 16 56 20 18 58 21 16 56 23 18 58 79 23 58 18 17 57 19 18 58 19 17 57 21 19 59 17 16 58 15 17 56 14 16 57 17 16 56 20 18 58 18 17 57 19 17 57 18 17 57 18 17 59 17 16 56 15 17 56 22 17 58 18 19 63 21 19 59 22 20 60 75 25 60 26 19 61 21 20 64 20 23 68 17 24 68 14 22 69 13 25 73 12 26 73 14 26 74 14 27 79 12 28 79 14 32 82 8 44 104 7 80 149 9 67 131 10 33 87 10 33 85 9 32 86 9 32 86 10 40 100 8 83 151 9 54 119 13 31 81 12 29 81 14 27 79 14 28 77 13 25 73 12 26 73 14 26 74 16 23 65 19 23 68 20 25 67 16 23 67 17 21 66 16 23 69 16 23 67 18 22 67 18 22 67 19 24 64 13 26 71 86 29 70 14 26 78 16 28 78 15 28 80 13 30 82 14 31 83 10 31 84 8 40 99 8 69 136 10 85 152 
17 16 56 25 18 59 19 17 57 19 17 57 17 19 58 22 17 57 21 16 56 23 16 57 20 18 57 58 21 55 47 21 56 19 16 59 22 17 57 22 17 57 23 18 58 17 16 56 20 18 58 18 16 56 18 17 57 20 18 57 19 17 57 19 17 57 18 17 57 15 17 56 17 16 56 18 17 57 22 17 57 20 18 57 23 18 58 24 17 58 78 22 57 19 17 56 23 19 56 18 16 55 20 18 58 18 18 56 17 16 56 18 17 57 18 16 56 20 18 57 20 18 58 22 17 57 19 18 58 19 17 57 19 17 56 19 17 56 25 18 59 23 18 58 24 19 60 23 17 61 76 26 61 31 20 63 23 22 66 22 23 69 19 23 71 17 23 71 17 25 74 15 25 74 18 25 77 16 28 80 12 28 80 12 44 105 8 80 154 6 69 136 8 33 90 10 33 85 10 33 87 9 31 88 9 32 86 8 77 146 7 66 132 15 28 83 14 27 82 14 25 79 15 27 79 12 24 76 14 24 73 15 23 69 17 24 70 17 24 70 18 20 68 17 21 68 17 19 67 17 19 67 18 20 68 20 22 70 20 23 68 19 23 68 18 24 72 18 26 75 86 29 72 15 25 76 21 27 79 17 28 82 18 28 81 14 29 84 9 43 106 9 78 147 7 85 151 7 57 126 
74 24 59 76 25 58 70 23 59 71 24 56 70 23 57 73 24 56 73 24 56 71 24 56 69 24 57 84 25 57 79 23 58 69 23 59 69 22 58 68 23 56 69 22 56 66 22 58 66 22 57 66 22 57 66 22 57 66 22 57 68 22 59 67 21 57 66 22 57 64 23 57 65 24 58 64 23 57 69 24 57 67 23 56 67 23 56 68 23 56 90 25 55 67 23 58 68 22 58 69 23 59 70 23 57 68 23 56 69 22 58 67 23 56 69 23 59 70 23 57 70 23 59 69 22 56 69 24 57 70 23 59 69 24 57 70 25 58 73 26 62 76 24 60 75 25 62 72 25 59 90 26 61 75 25 63 73 27 66 74 27 71 73 28 71 75 28 72 73 28 71 73 27 74 72 28 79 70 25 82 43 38 102 8 81 150 7 70 139 8 34 91 11 32 85 10 31 86 9 30 85 11 32 85 7 53 115 12 79 150 64 35 93 70 27 80 72 28 79 73 26 78 73 27 74 73 26 72 70 27 70 73 28 71 74 27 71 73 28 71 73 28 71 73 26 70 73 26 68 74 28 67 74 29 72 73 28 71 73 28 71 74 27 71 74 27 71 74 27 73 92 28 78 70 25 80 74 27 79 72 28 81 74 29 86 43 42 108 11 79 152 8 83 150 6 54 120 6 36 96 
22 17 57 26 18 57 20 18 57 22 17 57 20 18 57 28 17 57 23 16 57 25 17 58 20 18 57 59 22 56 49 21 59 19 17 57 23 18 58 23 18 58 22 17 57 16 18 57 17 16 56 16 18 57 17 16 56 19 17 57 20 18 58 15 17 56 16 18 57 14 18 56 15 17 56 18 17 57 22 17 57 19 18 58 20 18 57 22 17 57 81 26 58 19 17 57 23 18 58 23 18 58 25 16 59 20 18 58 18 17 59 18 17 57 21 19 58 23 16 57 23 18 58 24 17 58 21 19 59 19 18 58 23 18 58 21 19 59 25 18 59 24 19 60 24 22 62 26 20 64 75 25 63 29 20 63 25 24 68 28 25 72 26 27 73 24 26 74 25 27 76 24 27 78 24 27 78 18 38 99 8 78 147 6 76 145 9 35 94 9 30 83 10 31 86 10 31 86 10 32 82 8 40 99 8 83 151 49 47 110 40 27 81 22 28 78 24 28 75 25 27 75 27 25 72 24 24 76 24 25 69 26 23 68 25 22 67 25 22 67 25 22 65 25 22 65 26 20 66 25 22 67 26 23 68 27 24 69 27 25 72 25 26 72 28 26 75 25 27 75 87 29 80 22 28 80 27 31 79 24 31 86 24 42 106 11 81 150 10 80 150 6 50 115 7 37 97 6 38 97 
14 16 55 20 18 57 15 17 58 17 19 58 14 18 56 20 18 57 20 18 57 20 18 57 15 17 56 58 20 57 47 21 58 18 17 57 19 17 56 18 17 57 19 17 57 15 17 56 15 17 56 15 17 58 17 19 58 18 18 56 18 18 56 15 17 58 15 17 56 14 17 58 15 17 56 15 17 56 20 18 57 18 16 56 19 18 58 24 19 59 78 24 56 18 17 57 20 18 57 19 17 56 21 16 57 15 17 56 13 16 57 15 17 56 17 19 58 18 17 57 17 16 58 18 17 57 16 18 59 15 18 59 17 19 60 17 19 60 20 19 61 19 18 62 22 19 64 20 22 63 73 25 63 24 21 64 18 22 67 16 24 71 14 26 74 14 28 77 13 27 76 12 30 78 11 34 88 7 77 146 6 76 145 13 38 95 12 32 85 9 32 86 9 32 86 9 30 83 10 33 87 7 72 140 6 69 138 62 28 79 31 27 77 12 28 77 13 27 76 13 25 75 14 26 74 11 24 69 13 24 70 13 24 69 15 22 68 17 21 66 17 21 66 15 22 68 16 23 69 15 23 69 15 23 69 14 25 71 14 26 74 16 26 77 15 29 78 13 29 80 87 30 81 13 33 86 15 31 90 10 45 103 11 87 149 8 81 149 7 50 118 9 39 99 8 38 100 7 38 102 
15 17 58 19 17 56 15 17 56 16 18 57 13 16 57 19 17 56 17 16 56 22 17 57 15 17 56 58 20 57 47 21 56 18 17 57 19 17 57 19 18 58 17 16 56 13 16 57 14 17 58 12 15 56 16 18 57 15 17 56 17 16 56 14 18 56 13 16 57 13 16 57 12 16 54 15 17 56 20 17 60 18 17 57 19 17 57 22 17 58 78 22 57 18 17 57 22 17 58 18 17 57 19 17 57 15 17 58 14 16 57 14 18 56 16 18 57 16 18 57 15 17 55 19 18 58 15 17 58 14 17 60 16 19 60 14 19 59 20 19 61 16 21 63 21 22 68 21 20 64 77 26 67 24 21 64 15 25 74 14 26 74 15 27 77 14 28 77 12 28 79 10 31 84 10 67 134 7 80 149 10 39 97 14 31 83 13 30 84 10 31 84 9 30 85 10 31 84 7 52 119 8 83 150 7 36 94 62 30 80 34 28 76 12 28 79 14 26 76 13 25 73 14 25 71 12 23 68 13 24 70 10 21 67 13 21 67 14 21 65 16 20 65 14 22 68 15 23 69 12 23 68 13 24 70 12 24 72 14 26 74 14 26 74 15 29 78 12 29 81 85 31 83 11 32 87 13 41 106 11 85 150 8 87 153 6 47 111 9 37 100 8 38 100 9 38 98 8 39 103 
14 16 55 23 18 58 16 18 57 14 16 55 14 17 58 21 16 56 20 18 57 19 17 56 17 16 56 58 21 55 48 22 57 19 18 58 19 17 56 20 18 58 19 17 57 15 17 56 15 17 56 15 17 58 18 17 57 17 16 56 19 17 57 15 17 56 15 17 58 15 17 56 15 17 56 15 17 56 22 17 58 18 17 57 19 17 56 23 18 58 79 23 58 19 18 58 18 17 57 19 17 57 21 19 58 16 18 57 14 18 56 14 18 56 15 17 56 17 16 58 19 18 58 18 17 57 16 18 57 15 18 59 16 19 62 15 18 61 20 19 63 17 21 66 19 23 68 23 24 68 80 29 70 33 25 72 13 25 73 14 26 74 16 28 78 16 30 79 11 32 87 9 64 131 10 79 148 10 40 100 10 31 86 11 32 87 10 33 87 10 31 86 10 31 86 9 41 100 8 83 150 8 54 116 10 30 81 62 30 80 33 26 78 11 27 76 15 27 77 13 27 74 15 25 74 13 24 70 14 25 71 13 21 67 14 21 67 15 22 66 17 22 64 14 22 69 14 25 71 12 25 70 14 24 73 15 25 74 15 27 77 15 27 77 17 30 82 12 29 81 86 30 79 10 41 98 10 83 151 10 84 149 10 47 115 7 36 92 8 39 96 9 39 99 8 38 100 8 38 98 
12 15 56 19 17 57 13 16 57 13 16 57 11 16 56 16 18 57 16 18 57 15 17 56 13 16 57 56 22 55 45 21 57 13 16 57 17 19 58 17 16 58 15 17 58 12 17 57 12 15 56 11 16 58 13 16 57 13 16 57 15 17 56 13 15 56 11 16 56 12 17 57 13 16 57 12 15 56 18 16 56 14 16 55 18 16 56 19 17 57 77 23 57 15 17 56 17 16 56 14 18 56 18 17 57 12 15 56 11 16 56 11 16 56 14 17 58 15 17 58 14 17 58 14 17 58 13 18 60 11 18 62 14 18 63 12 19 63 17 20 63 14 21 65 16 23 67 19 23 68 74 27 69 25 23 70 14 26 74 15 27 77 16 28 80 9 30 83 7 60 126 8 81 149 9 51 111 10 31 84 10 31 86 12 33 90 8 33 87 8 33 89 8 33 90 7 74 142 9 69 139 13 30 84 11 31 84 62 30 80 32 27 81 12 29 81 12 29 75 14 28 77 14 26 76 11 25 72 12 24 72 13 24 70 11 25 72 12 24 72 13 23 72 11 23 71 11 25 74 9 27 75 10 26 75 10 26 77 14 28 77 11 27 78 10 30 81 13 30 84 65 35 97 8 75 143 9 84 151 7 51 116 8 42 105 3 47 112 7 50 118 5 60 124 7 67 137 6 76 146 
10 18 57 17 16 56 12 17 57 12 17 57 9 16 58 15 17 56 13 17 55 15 17 56 12 15 56 56 21 61 44 20 56 14 16 57 17 16 56 15 17 58 15 17 58 9 17 56 11 16 56 11 16 58 12 17 59 12 15 56 14 17 58 11 16 56 12 17 57 9 17 56 11 16 56 12 17 57 17 16 56 14 18 56 16 18 57 19 17 57 78 24 58 13 15 54 15 17 56 15 17 56 15 17 56 11 16 56 13 16 57 10 15 55 12 17 57 15 18 59 12 17 57 15 18 59 12 19 61 11 20 63 11 18 62 9 20 65 16 20 65 11 22 68 14 22 69 16 24 70 73 26 68 19 25 75 14 26 76 13 27 76 13 29 81 8 57 116 9 79 151 6 56 119 12 31 87 10 30 83 9 32 86 10 32 89 10 33 87 9 32 86 5 56 122 9 82 151 8 39 96 13 31 81 8 29 82 61 31 81 29 27 76 10 28 78 11 27 78 13 27 76 13 26 71 11 25 74 11 25 74 11 25 72 11 25 74 11 23 71 11 23 71 11 23 71 9 26 72 7 28 75 9 27 77 11 29 77 9 27 75 9 29 80 10 30 83 9 39 99 24 69 137 9 87 153 8 86 152 6 81 148 12 83 149 4 85 151 5 89 153 3 88 152 7 86 153 3 78 146 
10 18 57 17 16 56 11 16 56 11 16 58 9 16 58 15 17 56 14 16 57 15 17 56 13 16 57 54 20 57 43 21 59 14 17 58 15 17 56 14 18 56 14 18 56 9 17 56 11 16 56 11 16 56 13 18 58 12 17 57 14 16 57 12 17 57 12 17 57 11 16 56 10 18 57 11 16 56 18 17 57 12 15 56 14 16 57 19 17 57 78 22 57 13 17 55 15 17 56 14 16 57 15 17 56 12 17 57 11 16 58 10 15 55 11 16 58 14 17 62 13 18 58 13 18 60 12 19 63 9 18 61 9 17 63 12 20 67 15 19 64 12 23 68 11 22 68 14 25 71 69 26 69 19 25 75 11 27 76 11 27 78 8 48 109 9 79 149 8 59 124 7 32 88 10 31 84 10 31 86 8 31 85 12 33 90 8 33 87 6 38 97 8 83 151 9 53 118 10 31 86 14 31 83 8 28 79 61 29 78 31 27 77 9 29 79 13 27 76 13 27 76 11 25 74 10 24 71 12 24 72 11 25 72 10 24 71 11 23 71 11 23 73 11 25 74 10 26 75 6 27 74 8 25 77 10 28 78 10 28 78 9 29 80 11 31 84 8 78 148 10 85 152 7 79 153 5 74 139 6 69 136 7 64 131 4 61 130 4 57 127 4 49 114 4 44 103 2 42 103 
12 17 57 19 17 56 13 16 57 14 18 56 12 17 57 18 17 57 16 18 57 19 17 57 14 18 56 56 20 56 45 21 57 15 17 56 18 17 57 15 17 56 15 17 56 12 17 57 12 17 57 11 16 56 14 17 58 13 17 54 15 17 56 13 17 54 12 17 57 11 16 56 13 17 55 13 16 57 19 19 57 15 17 56 18 17 57 19 19 57 78 24 58 17 16 56 18 17 57 15 17 58 18 17 57 14 16 55 13 16 57 12 17 57 13 16 57 16 19 60 15 18 61 15 18 61 13 17 62 13 20 66 11 19 66 9 20 65 15 24 67 13 24 69 13 24 70 13 25 73 64 26 73 19 25 77 15 27 77 10 41 98 8 77 146 9 67 131 9 34 91 6 32 83 9 32 86 11 32 89 9 32 84 11 32 89 8 33 87 7 64 133 7 72 140 11 32 85 10 31 84 13 30 82 9 31 81 62 30 80 31 27 77 11 27 78 12 28 79 12 26 75 13 25 73 8 26 74 11 25 72 11 25 72 12 26 73 12 26 73 12 26 73 9 27 75 9 27 77 7 28 75 7 29 78 8 28 79 8 28 81 10 30 83 9 47 109 9 84 152 8 67 135 7 39 100 6 35 93 6 36 96 7 36 94 5 37 94 4 36 93 2 37 95 6 38 97 1 37 95 
15 17 56 22 17 57 18 17 57 17 16 56 14 16 55 20 18 58 19 17 57 20 18 57 17 16 56 58 20 57 47 21 60 18 17 57 20 18 58 19 17 56 17 17 55 15 17 56 15 17 58 14 17 58 15 17 56 16 18 57 19 17 56 17 16 56 14 16 55 14 16 55 15 17 56 16 15 55 23 18 58 19 17 56 20 18 57 23 18 58 79 24 56 18 17 57 20 18 58 18 16 56 20 18 57 15 17 58 14 18 56 13 16 57 15 18 59 15 16 60 15 18 59 17 18 62 15 19 64 13 20 64 13 20 64 13 21 67 14 23 66 12 23 69 14 25 71 13 25 73 65 26 73 19 26 78 12 32 85 9 67 131 8 73 141 10 39 97 10 33 85 10 31 86 10 32 89 11 33 91 8 33 90 13 33 92 9 49 111 8 83 151 6 41 99 11 31 84 11 31 84 12 32 85 9 31 81 62 30 79 31 28 75 12 28 80 11 29 79 11 27 76 10 26 75 9 27 75 11 25 74 8 24 73 13 27 76 8 26 74 12 26 75 8 26 76 9 27 77 8 28 79 7 29 79 7 30 82 8 29 82 7 39 98 10 80 149 6 79 147 7 39 96 6 33 88 7 33 90 5 34 92 5 34 92 5 36 93 3 38 94 1 37 97 2 38 98 2 38 98 
10 18 57 16 18 57 12 17 57 12 17 57 8 16 55 18 17 57 14 17 58 15 17 56 13 17 55 54 20 57 43 19 55 15 17 56 16 18 57 15 17 56 13 16 57 11 16 56 12 15 56 11 16 56 12 15 56 14 16 57 14 16 55 12 15 56 12 15 56 11 16 56 12 15 56 12 17 57 17 16 56 15 17 56 15 17 56 20 18 57 79 23 58 14 16 57 14 17 60 14 17 58 15 17 56 12 17 57 11 16 56 11 16 56 14 17 58 13 18 60 12 19 63 12 19 63 8 19 64 8 19 65 10 21 66 10 23 68 13 24 69 10 24 71 12 24 72 13 26 78 63 26 78 19 28 83 6 60 130 7 81 146 8 38 98 8 33 87 8 33 89 7 32 88 7 34 89 8 33 87 8 34 91 10 39 99 7 80 148 6 59 125 10 32 89 9 32 84 11 32 87 11 31 82 9 30 83 63 29 79 30 26 76 10 28 78 11 29 77 9 27 77 10 26 75 7 27 77 6 26 76 8 26 76 6 27 74 7 27 77 10 28 78 8 26 76 5 27 77 7 28 81 5 28 80 7 28 81 7 32 86 5 78 146 6 83 153 5 41 103 7 32 88 4 33 89 7 33 90 6 35 91 5 36 91 4 35 92 5 35 95 4 36 93 5 36 93 1 37 95 
15 17 56 23 18 58 16 18 57 18 17 57 15 17 58 22 17 57 19 17 57 23 18 59 18 17 57 58 23 56 48 21 56 18 17 57 22 17 57 23 18 58 19 17 57 15 17 56 16 18 57 14 16 55 17 16 56 17 19 58 20 18 57 19 17 57 14 16 55 15 17 56 15 17 56 18 17 57 22 17 57 19 17 56 20 18 57 24 20 57 79 23 58 18 17 57 20 18 57 22 17 58 22 17 57 15 17 56 18 17 59 14 17 58 16 18 59 17 19 60 16 19 60 17 22 64 14 21 65 9 20 65 14 22 68 12 23 69 14 26 74 14 27 72 16 28 78 15 27 79 68 27 83 23 47 117 8 86 150 5 53 119 12 33 90 8 33 89 8 33 89 7 32 89 12 32 91 12 34 91 8 33 90 10 70 133 9 78 143 7 36 92 8 35 90 12 34 91 10 33 87 13 30 84 10 31 86 63 30 85 33 28 84 11 31 82 12 29 81 13 29 80 12 30 80 10 27 79 11 29 79 10 28 78 8 28 78 9 30 77 8 30 80 8 28 79 7 28 81 7 28 81 8 29 82 8 29 82 7 65 138 8 85 153 6 47 109 9 32 86 9 31 88 6 31 87 7 32 88 8 33 89 6 33 88 3 34 89 3 34 91 3 36 90 3 36 90 4 35 92 
11 16 56 18 17 57 12 17 57 12 17 57 13 18 58 18 17 57 15 17 56 18 18 56 15 17 58 55 21 56 45 21 57 13 17 55 17 16 56 17 16 56 15 17 58 11 16 56 14 17 58 11 16 56 12 15 56 15 17 58 14 18 56 12 15 56 11 16 56 13 16 57 11 16 56 12 15 56 19 18 58 14 16 55 17 19 58 18 17 57 78 22 57 13 16 57 16 18 57 17 16 56 15 17 56 13 16 57 12 17 57 11 18 60 13 18 58 12 19 61 14 18 66 14 21 67 9 22 66 5 22 68 6 23 69 10 24 71 10 24 71 6 27 74 11 27 78 11 27 79 48 32 95 4 78 151 7 66 132 7 32 86 9 34 88 7 32 88 7 33 90 8 34 91 9 34 91 7 33 90 4 50 112 11 86 151 6 47 111 8 33 89 6 33 88 5 35 89 8 33 90 9 32 86 7 32 86 61 30 87 34 31 88 10 31 84 11 32 85 10 30 81 9 30 83 8 29 82 6 29 81 6 29 81 6 29 81 5 31 82 7 28 81 5 31 82 3 30 83 4 29 83 1 31 83 0 54 118 2 85 153 3 60 129 1 31 85 1 32 86 1 32 86 2 32 86 2 33 87 3 33 87 3 33 87 1 32 86 2 33 88 2 33 87 2 31 89 2 33 88 
11 16 56 18 17 57 12 17 57 10 15 55 9 17 56 15 17 56 14 16 57 18 17 57 13 15 56 55 21 58 44 20 56 12 15 56 15 17 56 17 19 58 13 17 55 12 17 55 12 15 56 12 17 59 12 15 56 15 17 56 14 18 56 12 17 57 13 16 57 9 17 56 11 16 56 12 17 57 17 16 56 16 18 57 16 18 57 20 18 57 78 23 55 14 18 56 15 17 56 15 17 56 16 18 57 12 17 57 13 18 58 12 16 61 12 19 63 12 19 61 13 21 67 12 20 66 12 20 67 7 21 66 7 24 70 6 24 72 9 25 74 7 27 77 10 27 79 6 31 85 10 70 140 7 75 148 7 36 92 7 32 88 8 33 89 5 35 89 4 36 93 5 36 91 5 35 95 3 37 98 6 79 147 7 66 136 5 36 93 3 36 90 6 35 91 8 33 89 7 34 89 7 32 88 6 33 88 61 30 87 33 30 87 5 32 85 10 33 87 9 30 83 9 32 86 4 31 86 1 31 85 1 32 86 2 32 86 1 31 83 1 31 83 0 31 85 3 30 85 0 31 85 1 37 95 2 82 151 4 73 142 0 31 86 4 31 86 0 31 85 1 31 85 2 32 86 1 30 86 2 32 86 2 32 86 1 33 84 2 32 86 1 32 86 2 32 86 3 34 88 
11 16 56 17 16 56 11 16 56 12 15 56 11 16 56 15 17 56 15 17 56 18 17 57 12 16 54 52 20 57 45 21 57 14 18 56 15 17 56 14 16 55 14 17 58 11 16 56 12 17 57 10 18 57 13 16 57 12 17 57 15 17 56 13 16 57 12 17 57 12 17 57 11 16 56 12 17 57 15 17 56 15 17 56 15 17 56 19 19 57 77 23 57 14 18 56 15 17 56 15 17 58 16 18 57 12 17 59 10 17 61 12 19 63 11 18 64 9 16 62 10 18 64 12 20 66 7 21 70 0 22 69 7 24 70 6 26 76 7 25 75 7 27 77 7 28 81 4 59 126 9 79 149 5 43 105 6 33 86 8 35 90 8 33 89 5 34 90 5 36 93 4 34 94 5 37 94 7 66 132 4 79 144 6 41 99 5 36 93 4 35 92 4 35 90 8 33 89 5 34 90 8 33 89 4 34 88 62 31 88 26 31 89 7 33 90 9 36 91 7 34 89 6 31 85 1 31 85 1 31 85 1 31 85 1 31 85 0 31 85 0 31 85 0 30 84 2 32 86 2 33 88 0 66 134 3 80 148 0 39 98 2 32 84 1 31 85 2 32 86 1 31 85 2 32 86 2 32 86 1 31 83 1 31 83 1 31 85 2 31 87 0 31 85 2 33 87 1 34 88 
13 17 55 20 18 57 17 16 56 15 17 56 14 17 58 20 18 58 18 17 57 20 18 58 15 17 56 57 21 57 46 20 57 17 16 56 18 18 56 18 18 56 15 17 56 13 17 55 15 17 56 13 17 55 15 17 56 18 17 57 16 18 57 17 16 56 13 15 54 13 16 57 14 17 58 15 17 56 20 18 57 18 17 57 19 17 56 21 16 56 81 26 58 16 18 57 19 19 57 14 18 56 20 19 59 15 18 61 14 19 61 14 19 61 13 20 62 13 20 66 12 20 66 15 22 68 11 22 68 8 24 73 11 25 72 6 26 76 11 27 76 7 27 78 5 47 107 8 80 154 6 54 120 9 32 86 8 33 89 8 33 89 6 33 88 5 34 92 5 36 91 4 35 92 6 47 109 10 86 148 3 51 115 5 36 93 5 36 93 6 37 92 6 35 91 9 34 90 8 33 89 9 34 91 7 39 96 26 57 124 11 68 135 9 73 144 6 76 145 5 72 140 6 67 134 5 59 129 4 53 120 2 48 110 2 42 103 1 36 94 1 32 86 2 34 85 2 32 84 5 56 121 3 83 154 1 49 111 1 31 83 0 30 84 1 31 85 1 31 83 1 31 85 3 30 83 0 30 82 1 31 83 0 30 82 1 31 85 0 30 84 1 31 83 3 30 83 1 50 109 
14 16 55 23 18 58 15 17 56 17 16 56 14 16 57 20 18 57 19 17 57 22 17 57 18 17 59 58 20 57 48 21 56 18 17 57 20 18 57 20 18 57 20 18 58 15 17 56 16 18 57 15 17 56 18 18 56 17 16 56 18 18 56 15 17 56 16 18 57 14 16 55 15 17 56 15 17 56 22 17 57 21 19 58 22 17 57 23 17 55 80 23 56 18 18 56 19 17 54 18 17 57 22 19 62 16 18 59 16 19 62 14 19 61 16 19 60 14 21 65 12 23 68 15 23 69 11 24 69 11 25 72 8 25 71 8 26 76 9 29 80 8 31 85 9 78 147 6 65 135 10 32 89 8 33 87 8 33 89 7 34 89 6 35 93 7 33 92 4 36 93 4 38 99 8 72 134 6 69 136 3 38 96 8 39 96 5 36 93 3 35 92 5 36 93 6 35 93 7 33 90 6 41 99 6 79 148 7 82 149 8 77 144 4 70 144 5 73 144 7 76 145 9 79 148 3 82 151 1 84 150 1 84 152 1 84 152 2 81 150 3 70 140 3 52 118 2 42 104 3 78 145 2 69 137 0 30 84 0 30 82 1 31 83 0 30 84 0 30 84 1 31 83 0 30 84 1 31 85 0 30 84 0 30 82 0 30 84 0 30 82 1 31 83 2 37 93 2 72 142 
15 17 56 22 17 57 17 16 56 15 17 56 15 17 56 19 17 56 21 16 56 23 19 56 15 17 56 57 21 57 47 19 57 18 17 57 19 17 56 20 18 57 19 17 57 14 16 55 18 17 57 15 17 56 17 16 58 18 17 57 19 19 57 17 16 56 15 17 55 15 17 58 17 16 56 17 16 56 23 19 56 18 17 57 20 18 58 23 18 58 79 22 57 19 17 56 22 18 55 19 18 58 19 18 60 16 17 61 15 20 62 15 20 62 13 20 62 16 20 67 11 22 68 14 22 68 12 26 71 9 26 72 5 25 75 7 27 77 9 29 82 6 59 127 7 75 146 7 39 98 9 32 86 9 34 90 8 34 91 5 36 93 4 35 92 5 36 93 3 38 96 6 57 122 6 84 150 7 47 109 8 38 100 8 38 98 7 37 97 8 37 97 6 36 96 7 38 95 4 35 92 8 62 132 9 87 153 6 53 121 5 36 91 6 33 88 6 33 86 5 34 90 5 37 94 1 42 104 2 47 112 3 57 121 2 61 129 2 71 140 3 80 150 2 82 151 3 82 151 2 82 151 4 44 105 1 31 83 1 31 83 0 30 84 2 29 82 1 31 85 3 30 83 2 32 84 0 30 84 0 30 84 0 29 83 3 30 83 2 29 82 1 31 85 2 53 118 2 79 149 
14 16 57 19 17 56 15 17 56 14 16 55 13 16 57 18 17 57 20 15 55 20 18 58 17 16 56 55 21 58 50 20 56 17 16 56 22 17 57 19 17 56 23 18 59 13 15 56 18 17 57 14 16 55 15 17 56 15 17 56 20 15 56 18 17 57 15 17 56 14 16 55 14 16 55 17 16 58 22 17 57 19 17 56 19 17 57 24 18 56 79 24 56 19 17 57 20 18 58 19 18 60 20 17 60 15 20 62 13 20 62 16 20 65 12 20 66 12 20 66 13 21 68 13 24 70 11 25 72 8 26 74 7 27 77 6 28 77 7 43 103 7 81 152 5 50 115 3 33 85 7 34 89 5 34 90 5 36 93 5 36 93 4 36 93 2 37 95 5 45 107 6 80 145 7 71 135 8 40 101 8 40 99 8 38 98 4 38 99 4 38 99 3 39 99 7 37 99 3 38 96 5 78 147 2 87 152 5 53 117 5 36 91 6 32 89 6 33 88 7 34 89 4 34 88 3 34 89 2 33 88 2 33 87 3 33 87 2 33 87 1 39 101 2 67 133 2 85 153 2 59 128 2 33 87 2 32 86 0 29 83 2 29 82 2 27 81 1 28 81 2 29 82 1 28 81 3 29 80 1 28 81 1 26 80 1 27 78 1 27 78 1 36 94 4 72 145 2 62 132 
24 18 56 31 19 57 25 17 56 26 18 57 23 19 56 29 18 58 27 19 56 30 19 59 26 18 57 62 20 56 55 21 58 26 18 57 28 18 55 26 18 55 29 19 56 24 18 56 25 17 54 24 18 56 26 18 57 28 18 55 29 19 56 26 18 55 26 18 57 25 17 54 25 17 54 26 18 57 30 18 56 28 17 57 30 18 56 33 18 57 79 23 58 26 18 57 30 19 59 27 20 61 31 20 63 27 20 64 24 22 62 23 20 63 25 24 66 24 23 67 24 23 67 24 25 71 22 26 73 20 28 75 18 28 79 11 31 84 6 73 143 4 73 142 5 32 87 3 33 87 4 34 88 3 34 91 5 36 93 6 35 93 3 35 94 2 38 98 5 64 130 8 84 146 16 46 110 19 37 101 17 37 98 16 36 97 17 37 98 17 37 98 17 37 100 5 43 105 4 73 142 5 89 151 6 71 135 4 36 93 5 35 95 4 35 92 2 35 89 2 35 89 3 34 88 3 34 89 1 33 90 2 33 88 2 33 90 2 33 88 2 34 93 3 73 142 2 77 145 2 37 95 0 30 82 0 30 84 2 29 82 3 28 82 1 28 81 0 30 82 2 28 79 1 29 79 2 28 79 1 27 78 0 26 77 2 25 75 2 28 77 3 56 122 2 76 147 3 39 97 
61 21 55 65 21 56 65 23 59 63 21 57 64 22 60 63 22 56 63 22 56 65 21 56 63 23 58 77 23 57 80 25 57 66 22 58 66 25 59 66 22 57 66 22 57 63 21 57 63 21 57 62 20 56 65 21 56 65 21 57 63 22 56 63 22 56 63 21 57 62 22 57 63 22 56 63 21 57 68 22 58 65 21 57 69 22 58 63 22 56 92 25 56 67 23 58 67 21 58 65 23 61 68 23 62 62 24 63 62 24 65 62 24 65 62 25 66 62 26 70 60 27 70 61 28 71 60 27 70 58 27 71 59 27 76 21 60 129 7 77 149 8 39 96 7 32 86 10 33 87 6 33 88 7 33 92 4 36 93 6 37 94 4 36 93 3 51 115 9 87 151 25 52 123 54 36 110 54 40 119 53 40 119 45 45 117 27 56 124 26 59 128 26 63 134 7 85 149 5 90 154 6 75 144 4 36 97 6 37 94 4 35 92 4 35 90 5 36 93 3 34 89 2 34 91 1 34 88 2 34 91 2 33 88 1 34 88 2 33 88 1 58 127 4 83 152 3 47 108 0 31 85 1 31 85 0 30 82 0 30 82 2 29 82 1 28 81 1 29 79 2 28 79 1 29 79 0 26 77 1 27 78 2 25 75 2 25 75 2 38 96 3 75 149 1 54 120 2 28 77 
12 15 56 19 19 57 11 16 54 13 17 55 12 17 57 18 17 57 15 19 57 19 17 57 14 17 58 55 21 56 46 20 57 14 18 56 18 17 57 18 17 59 18 17 57 13 17 55 13 18 56 13 16 57 14 18 56 14 16 55 15 17 56 15 17 56 12 15 56 11 16 56 13 17 55 14 18 56 18 16 56 17 16 56 17 16 56 20 18 57 76 22 56 16 18 59 17 19 60 19 18 62 18 19 63 13 20 64 13 20 66 12 20 66 11 22 67 12 25 69 13 23 72 12 26 73 7 28 75 6 26 76 5 43 105 6 78 152 6 51 116 4 31 84 1 31 83 2 32 86 2 33 90 4 35 92 6 35 93 3 35 94 2 38 98 2 76 139 2 80 146 5 70 138 4 82 144 2 87 151 5 89 153 5 91 152 3 92 152 3 87 151 4 85 151 4 90 151 4 85 150 5 41 101 2 35 89 2 33 88 2 33 88 2 33 88 1 32 87 1 32 86 2 33 87 2 31 87 2 32 86 2 31 87 1 32 87 2 38 98 4 81 151 4 69 137 1 31 85 3 30 83 3 30 83 2 29 82 2 30 80 1 29 79 2 28 79 2 28 79 0 29 79 2 30 80 3 26 80 1 27 78 2 25 75 2 28 79 3 62 132 1 73 145 0 34 88 2 25 75 
14 16 55 22 17 57 19 18 58 17 16 56 15 17 56 21 16 56 21 16 57 21 16 57 19 17 57 59 22 56 48 22 57 17 16 56 20 18 57 19 19 57 20 18 58 15 17 55 18 17 57 14 18 56 19 18 60 19 19 57 18 16 55 18 17 57 18 17 57 17 16 56 16 18 57 17 16 56 21 19 58 19 17 56 21 16 57 26 18 59 80 23 56 19 18 58 19 18 60 18 20 61 22 19 64 18 19 65 17 21 66 16 23 67 16 23 67 13 24 69 12 24 72 13 25 73 11 27 76 10 30 83 6 74 145 4 68 139 5 30 84 9 32 84 6 31 85 7 34 89 6 32 91 6 35 93 4 35 92 4 35 90 2 52 115 6 87 152 4 89 153 2 91 149 5 81 141 5 74 141 5 69 140 5 62 131 4 53 119 2 46 109 2 75 143 4 88 152 4 53 119 5 34 90 4 33 89 3 33 87 2 32 86 1 32 86 1 31 85 2 32 86 0 31 85 3 33 87 3 30 85 2 32 86 1 31 83 3 62 128 3 82 151 1 39 101 1 28 81 3 28 84 2 29 82 1 29 79 1 29 79 2 28 79 0 28 78 0 28 76 1 27 78 3 26 76 3 26 78 2 25 77 0 26 75 2 41 98 0 77 149 0 53 115 3 26 76 2 24 73 
15 17 56 20 18 57 13 17 55 15 17 56 13 16 57 19 17 56 18 18 56 20 18 58 15 17 56 57 22 55 47 19 57 18 17 57 19 17 56 19 19 57 19 17 57 14 17 60 14 16 55 15 17 56 15 17 56 17 16 56 18 17 57 15 17 56 15 17 56 15 17 56 13 17 55 15 17 58 20 18 57 17 17 55 19 17 56 21 19 58 78 22 57 18 17 57 19 18 62 17 18 62 19 20 66 13 20 64 14 21 65 14 22 68 12 23 69 11 23 71 12 25 70 13 27 74 9 27 77 8 52 115 7 79 153 5 40 98 3 30 83 5 30 86 1 32 87 4 34 88 2 34 91 5 36 93 5 36 91 2 37 95 3 71 136 2 91 151 1 90 150 4 58 122 3 41 103 3 37 98 3 37 98 3 37 98 3 39 97 5 50 115 4 88 152 4 67 134 5 36 93 2 35 89 2 35 89 2 33 88 2 33 88 2 32 86 0 31 85 2 32 86 1 32 86 2 32 86 0 29 85 1 31 85 1 40 99 4 78 149 1 60 126 0 30 80 2 29 82 0 27 80 1 28 81 1 29 79 1 29 79 1 26 80 1 29 79 1 29 77 2 25 77 1 27 76 2 25 77 0 26 77 3 26 76 2 63 130 3 76 145 1 34 87 3 25 74 2 24 73 
15 17 56 20 18 57 17 16 56 17 16 56 14 18 56 22 17 57 19 19 57 22 17 57 18 18 56 58 22 58 48 21 54 19 17 57 22 17 57 22 17 57 21 16 56 15 17 56 18 18 56 15 17 56 19 18 58 18 17 57 20 18 58 18 17 57 17 16 56 15 17 56 17 17 55 18 17 57 23 17 53 20 18 58 23 18 58 24 17 58 80 24 59 20 19 61 21 18 61 18 19 63 24 21 66 16 20 67 18 22 67 14 22 68 15 23 69 11 25 70 14 26 74 14 28 77 12 31 87 7 75 148 8 59 125 6 29 81 6 31 85 9 32 86 7 33 84 7 34 89 4 35 92 5 36 93 4 36 93 3 44 108 4 85 150 3 92 152 5 64 130 8 40 99 7 39 100 8 38 100 8 38 100 7 37 99 3 42 101 6 81 146 4 79 146 4 39 97 5 36 93 4 35 92 0 35 89 3 32 88 2 33 87 1 32 87 3 33 87 1 31 85 0 31 86 3 34 88 0 31 85 0 30 84 4 61 130 3 82 149 2 34 91 2 29 84 3 30 83 1 28 81 2 27 81 2 28 79 2 30 80 1 27 78 1 27 78 1 27 78 1 27 78 0 26 77 1 27 78 0 26 75 1 32 87 1 78 150 1 55 119 2 25 75 1 25 73 1 23 72 
12 15 56 18 17 57 13 16 57 13 16 57 11 16 56 15 17 56 15 17 56 16 18 57 14 18 56 54 20 57 46 20 57 12 15 56 15 17 56 15 17 56 14 16 55 10 18 57 11 16 56 11 16 56 13 16 57 13 16 57 15 17 56 12 17 57 12 17 57 11 16 56 12 15 56 13 16 57 17 16 56 15 17 58 15 17 56 20 18 58 77 27 62 14 19 61 16 19 64 14 21 63 17 21 66 12 20 66 14 22 68 12 23 68 11 23 71 9 25 74 7 25 73 12 28 77 5 58 124 5 73 144 5 32 87 0 30 82 2 32 86 1 33 84 1 32 87 0 33 87 3 36 90 3 35 94 1 38 93 1 55 117 4 89 153 4 79 144 3 43 105 1 41 102 0 40 99 2 38 98 2 38 98 1 39 101 3 70 138 3 86 152 2 46 107 3 34 91 3 35 92 2 35 89 2 33 88 3 33 87 1 33 84 2 33 87 2 32 86 2 32 84 1 31 85 0 30 84 3 30 85 2 42 103 2 79 149 3 54 117 2 29 82 1 28 81 2 28 79 2 28 79 2 28 79 1 27 78 1 27 78 1 27 78 1 27 78 2 28 79 1 27 78 2 25 75 2 28 77 1 29 79 4 55 121 3 72 141 2 33 87 3 25 74 1 23 72 1 23 70 
11 16 56 18 18 56 12 15 56 12 15 56 11 16 56 17 16 56 16 18 57 17 16 56 14 16 55 55 21 58 45 21 55 14 16 55 18 17 57 18 17 57 17 16 56 12 17 57 13 17 55 12 17 57 12 17 55 13 17 55 16 15 55 13 16 57 13 16 57 12 17 57 13 16 57 13 16 57 18 17 57 14 18 56 16 18 59 20 19 59 77 25 63 15 18 61 16 19 62 17 20 61 18 22 67 15 24 67 13 24 70 11 24 69 13 25 73 11 25 72 9 27 77 9 41 100 7 79 151 4 48 109 3 29 80 0 30 84 1 33 84 2 32 86 1 34 87 2 33 88 2 35 89 5 36 93 2 37 95 3 67 131 5 84 151 2 53 116 0 38 97 1 40 99 2 38 96 1 37 97 0 39 98 2 57 121 3 89 150 3 62 128 4 36 93 2 34 91 3 32 88 2 33 88 3 33 87 2 32 86 0 31 85 2 32 86 2 32 86 4 31 86 0 30 82 1 31 85 2 33 88 2 67 133 3 73 145 3 38 96 1 28 81 0 28 76 2 30 80 2 28 79 1 27 78 1 29 79 1 27 78 1 27 78 2 25 77 1 27 76 1 27 78 1 24 76 0 26 79 0 35 89 3 75 147 3 53 116 2 25 75 3 25 74 2 24 73 0 24 72 
7 15 54 16 18 57 12 17 57 11 16 56 11 16 56 15 17 56 14 16 57 14 16 55 12 17 57 52 20 57 46 22 58 13 16 57 15 17 58 13 17 55 15 17 56 9 17 56 12 17 57 11 16 56 12 17 57 14 18 56 12 17 55 11 16 56 12 17 57 9 17 56 11 16 54 10 18 57 14 16 55 13 16 57 14 17 58 18 20 61 79 24 63 14 19 61 17 20 63 13 22 65 17 21 66 13 21 67 12 25 70 10 24 71 12 24 72 8 26 74 8 28 79 7 67 139 7 70 141 4 31 84 1 31 83 3 30 83 1 31 85 2 32 86 2 33 88 3 34 89 1 32 89 2 34 91 4 42 104 2 83 148 1 69 134 3 39 99 1 38 93 1 37 97 2 37 95 0 36 94 3 43 105 4 84 147 5 75 144 2 37 93 2 35 89 1 33 90 1 32 87 3 32 88 3 33 87 1 31 85 0 30 84 1 31 83 2 32 86 4 31 84 1 31 83 0 30 84 1 47 106 2 81 150 1 54 120 3 30 85 0 30 82 1 28 81 2 30 80 1 29 79 2 28 79 2 28 79 1 27 78 2 25 77 3 26 76 1 26 80 0 26 75 0 26 77 1 27 78 2 55 123 3 75 147 3 34 89 2 26 74 1 23 72 2 24 73 1 23 70 
12 15 56 19 17 56 13 17 55 15 17 56 11 16 56 19 17 57 16 15 55 19 19 57 17 16 56 54 20 55 48 21 56 15 17 56 18 16 56 17 17 55 16 18 57 13 17 55 16 15 55 12 15 56 14 16 55 15 17 56 19 18 58 14 16 55 14 18 56 13 16 57 13 16 57 13 16 57 18 17 57 15 17 58 17 19 60 21 20 62 77 25 63 17 20 63 18 23 65 17 22 64 18 22 67 14 22 68 13 24 70 12 25 70 12 24 72 11 27 78 7 47 109 7 79 151 4 44 105 5 28 78 2 29 82 0 32 83 1 31 83 1 32 86 1 32 86 2 33 88 2 35 89 5 37 94 4 61 128 2 83 148 1 45 108 0 36 94 1 36 94 1 36 94 4 36 95 3 35 92 1 69 132 2 86 150 2 46 107 2 33 88 2 33 88 1 32 86 2 32 86 1 30 88 0 30 84 3 28 82 0 30 82 1 28 81 1 28 81 2 30 80 1 28 81 2 32 84 2 65 132 2 70 141 0 35 91 1 29 79 1 29 79 3 29 80 1 27 78 1 27 78 4 27 79 0 26 77 2 25 75 3 26 76 0 26 75 2 25 75 1 27 76 0 26 75 1 32 87 1 73 145 2 61 129 2 25 75 2 24 73 1 23 72 1 23 70 2 23 70 
