P3
100 50
255
14 18 56 19 21 59 15 17 55 14 18 55 13 17 54 18 20 58 18 20 58 21 21 57 16 20 57 52 37 68 47 33 69 17 19 57 18 21 56 16 20 55 19 22 57 13 17 54 14 18 55 14 18 55 16 18 56 17 19 57 19 19 57 15 19 56 14 18 55 14 18 55 15 19 56 16 18 56 18 21 56 18 20 58 18 20 58 22 22 58 72 47 77 18 21 56 20 20 56 18 21 56 21 21 57 16 19 54 15 19 56 14 18 55 17 19 57 17 20 55 16 18 56 16 20 55 15 19 56 13 19 55 15 19 56 16 20 57 18 21 56 16 20 57 21 21 57 21 21 57 67 43 75 28 24 59 18 20 58 19 19 57 18 21 56 17 19 57 14 18 55 14 18 55 18 20 58 17 19 57 15 19 56 19 22 57 14 18 55 15 19 56 14 18 55 18 20 58 17 20 55 18 20 58 16 20 58 63 44 76 34 27 68 18 20 68 19 21 69 19 22 67 19 19 69 16 19 70 16 18 75 17 19 76 17 20 75 17 19 76 22 20 93 28 27 131 28 29 137 20 22 99 21 19 82 27 21 83 31 19 81 31 19 81 82 15 128 91 15 137 74 15 125 54 15 98 45 15 89 73 16 119 91 15 137 88 15 133 85 16 132 40 14 85 30 14 76 28 14 73 
14 18 55 19 21 59 15 19 56 16 20 57 14 18 55 18 21 56 17 21 58 18 21 56 16 20 55 51 36 69 46 35 67 16 18 56 18 21 56 18 20 58 17 19 57 14 18 55 16 18 56 14 18 55 15 19 56 16 20 57 18 21 56 16 20 57 15 19 56 13 19 55 14 18 55 16 20 57 20 20 56 18 20 58 18 21 56 22 22 58 72 47 77 18 21 54 18 21 56 17 20 55 20 23 58 14 18 55 14 18 55 16 20 57 15 19 56 16 20 57 17 19 57 16 20 55 15 17 55 15 17 55 15 19 56 15 19 56 19 21 59 18 20 58 19 21 59 18 20 58 68 44 76 25 23 60 20 20 58 18 20 58 18 21 56 16 18 56 15 19 56 15 19 54 17 20 55 17 20 55 15 19 54 18 21 56 15 19 54 15 19 54 16 18 56 20 23 58 17 20 55 21 21 59 14 19 57 63 43 78 35 27 66 17 22 64 17 21 66 18 19 67 18 20 68 13 19 67 15 18 73 16 18 75 18 19 76 17 20 75 20 20 82 23 25 112 27 27 137 26 26 124 23 21 86 26 20 82 30 26 85 31 21 82 43 17 91 84 15 131 90 16 137 89 14 133 88 15 133 90 16 139 68 16 114 71 17 115 90 14 138 46 15 91 32 16 79 31 15 78 
15 19 57 22 22 58 15 19 56 16 18 56 14 18 55 19 22 57 18 21 56 21 21 57 17 19 57 52 37 70 46 35 69 18 20 58 19 22 57 20 20 58 18 21 54 15 19 56 16 18 56 14 18 55 16 18 56 16 18 56 17 21 56 16 20 57 15 17 55 14 18 55 15 19 56 15 19 56 20 20 56 17 19 57 19 22 57 23 23 59 71 46 76 21 21 57 20 20 56 19 19 55 19 21 59 15 21 55 16 20 57 15 19 56 16 20 57 17 19 57 19 19 57 17 20 55 17 19 57 14 18 55 16 19 54 17 19 57 20 20 56 18 20 58 19 22 57 21 21 57 70 45 77 26 25 59 20 20 58 18 21 56 20 23 58 16 18 56 15 19 56 16 20 57 18 20 58 17 19 57 16 20 57 19 22 57 15 19 56 16 20 57 15 19 56 19 21 59 17 19 57 21 21 57 16 20 57 62 42 77 35 27 66 17 22 60 20 23 64 19 21 69 19 21 69 16 20 67 18 20 71 17 20 75 18 20 77 17 19 76 21 20 80 21 21 93 26 27 133 30 28 138 29 22 99 27 26 86 29 25 84 31 19 81 37 20 90 54 19 103 91 15 139 90 16 139 90 14 138 88 14 135 70 16 114 63 16 108 90 16 139 52 14 97 34 15 81 31 15 78 
9 17 54 17 19 57 14 18 55 13 17 55 12 18 54 17 20 55 15 19 56 16 19 54 15 17 55 50 35 68 44 33 67 15 17 55 16 18 56 16 18 56 16 20 57 12 18 54 14 18 55 12 17 55 14 18 56 14 18 55 15 19 56 13 19 55 12 18 54 11 17 53 13 17 55 13 19 55 18 21 56 16 18 56 17 22 54 18 21 56 69 44 76 16 20 57 16 18 56 16 18 56 18 21 56 14 18 55 14 18 55 11 16 54 13 19 55 15 19 56 14 18 55 14 18 55 12 17 55 11 16 54 13 19 55 13 19 55 16 18 56 14 18 55 18 20 58 17 20 55 66 45 76 21 24 59 16 18 56 15 19 56 16 22 56 13 17 54 12 18 54 12 18 54 15 19 56 15 19 56 12 18 54 16 20 55 12 18 54 12 18 54 13 18 56 16 20 55 14 18 55 17 19 57 13 19 55 62 42 77 33 27 63 16 21 61 18 21 64 19 22 67 17 21 66 16 20 65 18 20 68 18 20 71 17 20 75 18 19 76 21 22 78 19 19 79 26 25 118 28 28 138 27 26 120 27 23 84 32 23 86 31 25 87 48 21 98 80 18 125 90 16 139 86 15 135 63 18 113 73 16 121 86 15 133 86 15 133 89 15 136 60 16 103 37 15 80 35 14 81 
12 18 54 18 20 58 13 19 55 13 19 55 12 18 54 15 19 56 17 21 58 16 20 57 16 20 57 50 35 68 44 33 67 15 19 54 17 20 55 16 18 56 16 20 57 12 18 54 14 18 55 12 18 54 15 19 56 14 20 56 15 19 56 15 19 56 14 16 54 13 19 53 14 18 55 13 19 55 18 20 58 15 19 56 17 19 57 18 20 58 68 44 76 16 18 56 17 19 57 16 20 57 17 19 57 14 18 55 13 19 55 13 19 55 14 18 55 16 20 57 15 19 56 16 20 57 15 19 56 12 18 54 15 19 56 10 18 54 19 22 57 16 20 57 17 21 56 18 20 58 67 43 75 23 23 57 15 19 54 15 19 54 18 20 58 14 18 55 11 19 55 15 19 56 16 18 56 16 19 54 15 19 54 19 22 57 14 18 55 14 20 56 14 18 56 18 21 56 16 18 56 18 21 56 16 19 54 63 42 75 34 28 64 18 23 61 18 23 61 19 21 62 17 22 64 16 20 67 18 20 68 19 21 69 21 23 74 20 21 77 23 23 77 21 20 78 21 20 90 30 27 134 30 28 135 27 25 90 41 21 92 65 22 114 84 20 132 87 20 133 63 18 111 83 16 131 80 18 127 49 18 94 55 15 101 79 15 127 90 14 138 84 17 130 64 15 107 41 14 85 
12 18 54 17 19 57 12 18 54 14 18 55 9 17 53 16 20 57 17 20 55 17 19 57 14 20 54 50 35 68 45 33 69 15 19 57 16 18 57 16 20 57 15 21 57 12 16 53 13 19 55 11 17 53 14 18 55 14 20 56 15 19 56 14 18 55 12 18 54 11 17 53 12 18 54 13 17 55 18 21 56 14 18 55 15 19 56 19 19 57 69 44 76 16 19 52 16 20 57 16 18 56 17 21 58 14 18 55 12 18 54 13 19 55 14 20 56 15 19 56 15 19 56 14 18 55 13 17 54 12 18 54 13 19 55 12 18 54 18 21 56 15 19 56 16 20 58 16 18 56 65 44 75 22 22 58 16 18 56 16 19 54 16 19 54 14 20 56 12 18 54 12 18 54 15 19 56 15 19 56 11 17 53 17 21 58 12 18 54 12 18 54 12 17 55 16 20 57 14 20 56 18 20 58 14 20 56 62 43 71 34 26 65 15 20 58 19 23 61 16 24 63 15 23 62 13 22 65 15 24 65 17 21 68 21 23 72 16 19 72 21 22 78 20 21 77 20 20 80 25 25 115 28 28 138 34 25 116 77 26 127 91 22 139 79 22 127 44 20 96 40 20 92 51 18 99 88 14 135 71 16 117 45 15 85 48 16 91 86 15 133 89 15 136 90 16 137 83 16 129 
15 19 54 21 21 57 16 20 55 19 19 55 15 19 56 22 20 57 21 21 57 21 21 57 18 21 56 52 37 70 48 34 67 20 20 58 21 19 56 20 20 56 21 21 57 16 18 56 16 18 56 15 19 56 16 19 54 17 20 55 19 22 57 17 20 55 16 19 54 15 19 56 16 19 54 16 19 54 21 21 55 17 20 55 21 21 57 22 22 58 70 46 78 19 22 57 20 20 54 20 20 58 21 21 57 18 21 56 17 20 55 15 19 56 17 20 55 18 21 56 18 21 56 20 20 56 18 20 58 16 19 54 17 19 57 16 20 55 22 20 57 20 20 58 23 21 58 22 22 56 68 44 76 25 24 58 20 20 56 21 21 57 22 22 58 21 21 59 16 20 55 17 20 55 22 22 58 20 23 58 17 20 55 20 23 58 16 20 55 16 20 55 15 20 52 22 22 58 18 21 56 22 22 58 18 20 58 63 44 76 37 30 64 20 22 60 23 25 63 20 26 62 22 26 64 17 25 64 18 26 65 18 25 67 21 25 70 21 21 71 22 22 76 21 20 77 21 22 78 22 21 91 28 26 135 58 26 137 90 21 138 61 21 110 38 23 92 40 20 92 42 20 93 40 20 92 63 18 109 89 18 136 60 16 103 44 14 86 80 16 128 78 14 124 55 15 101 83 16 131 
15 19 56 22 22 58 16 20 57 19 19 57 16 20 57 21 21 57 21 21 57 23 21 58 19 22 57 53 36 70 47 36 70 20 20 56 21 21 57 18 21 56 18 21 56 15 19 56 17 19 57 16 18 56 17 20 55 18 21 56 21 21 57 17 20 55 18 21 56 15 19 56 18 21 56 18 20 58 23 21 58 18 21 56 20 23 58 20 23 58 72 47 77 20 20 58 20 23 58 19 22 57 22 22 58 16 20 58 16 19 54 16 20 57 17 20 55 19 22 57 17 19 57 18 21 56 17 20 55 17 20 55 18 20 58 16 18 56 21 21 57 21 21 57 19 21 59 21 21 57 69 45 79 24 23 57 19 22 57 18 21 56 20 22 60 17 19 57 17 19 57 15 21 55 17 20 55 18 21 54 16 20 55 19 22 57 17 19 57 17 19 57 16 19 54 22 22 58 19 22 57 21 24 57 19 22 57 63 44 76 39 29 64 20 25 57 22 24 62 20 24 62 17 25 62 13 25 67 17 24 66 18 25 67 19 28 69 19 23 70 21 23 74 21 22 76 20 21 77 21 21 81 24 26 127 52 25 140 56 22 117 31 25 87 31 25 85 37 22 89 39 22 93 39 22 93 41 21 93 72 20 120 85 16 132 44 12 87 78 15 122 82 15 130 42 15 86 39 14 82 
16 20 57 22 22 58 17 19 57 18 20 58 16 20 57 22 22 58 19 22 57 21 21 57 18 21 56 53 36 68 48 37 71 20 20 58 22 20 57 20 20 56 21 21 57 17 20 55 18 20 58 15 19 56 19 19 55 20 20 56 19 21 59 17 20 55 17 20 55 16 20 57 16 20 57 16 19 54 21 21 59 19 21 59 22 22 58 23 21 58 72 45 76 22 22 58 22 22 58 19 22 57 22 22 60 17 20 55 16 18 56 17 20 55 18 21 56 21 21 57 17 20 55 19 22 57 18 21 56 17 20 55 17 19 57 17 21 58 22 22 58 19 22 57 22 22 58 23 23 59 69 46 75 25 24 56 21 21 57 20 23 58 22 22 60 18 21 56 17 19 58 17 20 55 22 22 58 20 23 58 18 20 58 22 22 56 17 19 57 18 20 58 16 20 57 19 22 57 18 22 57 20 24 59 17 24 53 61 45 74 39 29 63 21 24 59 21 25 60 22 26 63 22 27 65 19 24 64 21 26 64 19 27 66 19 28 69 19 28 69 21 29 75 20 26 74 21 22 76 21 22 78 28 27 107 29 30 138 29 29 127 29 25 84 31 25 85 28 27 85 30 24 84 38 23 90 41 21 93 45 21 97 83 19 131 74 18 119 72 16 117 89 16 133 47 15 91 36 14 79 
16 20 57 18 21 56 16 20 57 16 20 57 16 18 56 19 22 57 19 21 59 19 22 57 16 20 57 51 36 69 46 35 69 16 20 55 21 20 60 19 19 55 18 21 56 15 19 56 17 21 58 16 18 56 17 20 55 16 20 57 19 21 59 17 19 57 15 21 55 16 20 57 17 21 58 16 20 57 22 22 58 17 21 56 19 21 59 22 22 58 71 46 76 20 20 56 21 21 57 19 22 57 20 20 58 15 19 54 15 19 56 15 19 54 16 20 57 18 21 56 17 20 55 18 21 56 17 19 57 15 19 54 16 18 56 16 20 55 21 21 57 16 20 57 18 20 58 21 21 57 69 45 77 23 23 59 19 21 59 17 21 56 18 21 56 15 19 56 15 19 56 16 18 56 17 21 58 17 20 55 15 19 56 19 22 57 15 19 56 15 19 54 14 18 55 19 25 57 18 22 57 19 26 55 15 24 53 61 47 73 34 31 60 19 25 57 20 26 60 17 26 59 18 26 63 17 24 66 17 25 64 17 26 67 18 27 70 16 28 70 18 30 70 15 30 71 17 28 73 19 27 73 22 23 88 31 35 135 31 35 134 27 27 97 31 25 85 29 26 83 30 26 85 29 25 84 30 24 84 37 20 88 50 15 95 89 21 134 80 17 124 89 13 137 49 14 94 37 15 80 
51 36 69 54 37 69 52 35 69 52 37 70 49 34 67 54 37 71 52 35 69 55 35 70 50 35 68 68 43 73 65 44 75 49 33 69 52 35 69 50 35 68 48 34 67 45 31 66 46 32 67 45 31 66 46 32 67 46 32 67 47 33 68 46 32 67 44 33 67 43 32 66 46 31 64 45 31 66 50 35 68 48 33 66 50 34 70 48 33 66 79 50 80 48 32 68 51 34 68 51 34 68 55 35 70 51 36 69 52 35 69 51 36 69 51 36 69 53 36 70 53 36 70 53 36 70 53 36 70 51 36 69 52 37 70 52 37 70 56 39 71 53 38 71 56 39 73 54 39 72 78 51 82 56 41 72 54 40 73 54 39 72 57 42 75 55 40 71 53 38 71 54 39 70 54 39 70 54 39 72 53 39 72 56 41 70 52 41 71 54 41 71 52 42 69 54 44 69 53 45 69 54 45 72 52 43 70 74 55 77 62 48 74 54 44 71 55 45 72 53 45 69 54 43 73 54 45 76 53 44 75 54 44 78 53 43 80 52 44 81 54 44 81 53 46 87 51 46 87 54 46 87 54 47 88 29 34 126 31 36 136 30 32 117 27 21 81 30 26 85 29 25 84 30 24 84 29 25 84 31 25 85 32 18 80 63 20 112 90 21 137 91 15 137 52 14 99 36 15 80 
52 35 69 54 37 71 52 35 69 53 36 70 52 37 68 54 39 70 54 39 72 54 39 70 54 39 72 71 46 76 69 45 77 53 37 73 54 37 69 53 38 71 54 38 74 51 37 70 52 37 70 52 37 70 54 37 71 53 38 71 54 39 72 52 37 70 52 38 71 52 37 70 52 37 70 52 38 71 55 40 73 54 39 72 55 40 73 54 37 71 78 51 82 54 39 70 53 38 71 53 38 71 55 40 73 54 37 71 51 37 70 52 37 70 52 37 70 54 37 71 52 35 69 54 37 71 51 36 69 51 34 68 51 34 68 49 34 67 53 36 68 50 35 68 51 34 68 50 35 68 79 50 81 48 32 68 47 33 66 48 33 66 47 31 67 45 31 64 45 31 66 41 31 65 46 32 67 45 31 67 42 31 65 46 35 67 42 33 64 42 33 64 39 34 66 46 35 67 45 34 64 47 34 64 44 35 66 74 51 79 56 42 68 48 37 67 51 38 68 49 40 69 49 38 68 51 42 69 53 44 73 53 42 72 52 42 76 53 41 77 55 45 82 50 44 80 51 45 81 51 45 83 53 44 87 22 31 98 30 33 136 32 36 136 24 25 82 25 24 82 27 23 82 27 23 82 30 24 84 28 22 84 25 19 81 33 18 83 79 17 124 89 20 137 60 16 105 29 13 76 
14 18 55 19 21 59 13 19 55 15 19 56 14 18 55 20 20 58 17 19 57 18 20 58 17 19 57 50 35 68 47 33 68 16 19 54 20 20 56 18 20 58 17 20 55 13 19 55 15 19 56 14 18 55 15 19 56 15 19 56 17 19 57 15 19 56 15 19 56 11 19 55 14 19 57 15 19 57 18 21 56 18 20 58 17 19 57 21 21 59 71 44 77 18 20 58 17 20 55 17 19 57 21 21 57 15 19 56 14 18 55 15 19 56 15 19 56 16 18 56 16 18 56 17 20 55 16 20 57 14 18 55 15 19 56 15 21 57 19 22 57 16 20 57 19 22 57 23 21 58 69 44 74 24 22 59 17 19 57 17 20 55 19 19 55 18 21 56 16 20 57 15 19 54 18 21 56 17 23 55 16 25 54 20 25 57 16 27 55 12 26 53 14 25 55 17 26 57 15 26 56 17 26 55 15 26 56 60 46 72 32 33 63 17 26 55 17 28 56 18 29 57 15 29 56 15 29 56 14 30 56 15 31 57 14 27 62 12 24 64 18 27 68 15 28 70 13 28 69 16 29 74 17 37 72 17 52 71 22 47 111 31 35 134 28 32 106 20 23 76 22 23 77 22 21 78 23 22 79 24 23 80 25 21 80 28 18 81 45 17 92 88 19 135 61 17 106 32 16 78 
17 21 56 24 24 60 18 21 56 18 21 56 16 19 54 22 22 58 22 22 58 22 22 58 22 22 58 54 37 71 51 37 70 21 21 57 23 21 58 22 22 58 22 22 58 18 21 56 19 22 57 17 20 55 18 21 56 19 22 57 21 21 57 19 22 57 18 21 56 17 20 55 18 21 56 18 21 56 24 23 57 21 21 57 20 23 58 24 22 59 73 48 78 20 22 60 21 21 57 22 22 58 23 23 59 19 22 57 18 21 56 17 20 55 18 21 56 21 21 55 19 22 57 22 20 57 18 21 56 17 20 55 18 21 56 18 21 56 23 23 59 20 23 58 22 22 58 24 22 59 70 47 76 24 22 59 22 22 58 22 22 58 23 21 58 19 22 57 18 21 56 18 23 55 17 23 57 19 26 55 17 26 57 20 25 57 17 26 55 17 26 55 16 25 54 20 26 58 18 27 56 21 24 57 16 27 55 62 46 75 34 35 63 18 29 57 18 27 56 18 27 56 18 29 59 14 27 61 16 24 60 16 26 61 18 27 66 14 41 62 15 50 69 17 57 67 11 70 66 12 69 63 14 69 64 13 70 64 13 69 66 10 66 81 31 37 125 19 31 73 18 30 72 21 21 71 20 22 71 23 25 76 22 22 76 25 22 77 29 15 74 35 14 79 30 16 75 29 15 76 
15 19 56 22 22 58 16 20 57 16 18 56 15 19 56 21 21 57 18 21 56 20 20 56 17 20 55 52 37 70 46 35 67 20 20 56 21 21 57 18 21 56 18 21 56 15 18 53 17 20 55 16 20 57 16 19 54 18 21 56 20 20 56 17 20 55 15 19 56 15 19 54 14 18 55 16 20 55 21 21 57 18 20 58 18 21 56 23 21 58 71 46 76 19 22 57 19 22 57 19 22 57 21 21 57 17 20 55 16 20 57 15 19 54 17 19 57 19 22 57 17 20 55 17 20 55 17 20 55 16 18 56 17 19 57 16 19 54 21 21 57 17 20 55 21 21 57 23 23 61 71 46 76 26 22 59 21 21 57 19 21 59 20 24 59 16 22 56 16 22 54 16 22 54 19 26 55 18 24 56 16 25 56 20 27 56 16 25 56 16 25 54 15 26 54 19 26 54 17 28 56 15 29 56 14 30 56 61 47 72 32 33 61 12 30 54 15 29 56 15 29 56 14 28 55 12 32 56 10 48 57 10 61 56 11 70 64 14 69 66 12 71 67 14 70 67 13 69 66 14 69 64 14 71 65 11 70 64 13 69 66 13 70 64 18 66 78 16 32 91 20 27 69 19 28 69 20 24 71 21 23 72 21 22 70 22 22 74 25 18 72 26 17 74 30 14 76 28 14 73 
17 19 57 22 22 58 16 20 57 18 20 58 17 19 57 21 19 56 21 21 57 22 22 56 17 20 55 52 37 70 47 36 68 20 20 56 21 21 57 20 20 56 21 21 57 16 19 54 17 20 55 16 20 57 18 21 56 17 20 55 21 21 57 17 20 55 15 19 56 16 19 54 18 21 56 17 20 55 21 21 57 21 21 57 22 22 58 22 22 58 71 46 76 19 22 57 21 21 57 21 21 57 21 21 57 17 20 55 17 19 57 16 19 54 18 20 58 22 22 58 17 20 55 20 20 56 18 21 56 16 18 56 17 19 57 18 21 56 24 22 59 18 22 57 22 22 58 22 22 58 71 48 77 25 24 58 21 21 57 20 23 58 21 26 58 19 24 56 18 25 54 16 25 54 18 25 53 16 25 56 16 25 54 17 26 55 14 28 55 13 27 54 13 27 54 18 29 57 14 28 55 15 29 56 14 30 55 60 47 73 34 34 62 14 30 55 17 35 57 13 51 54 12 63 56 11 72 56 12 73 57 12 73 58 11 71 59 10 67 60 10 64 64 9 59 58 9 49 57 12 43 63 11 37 64 12 55 64 11 70 64 13 69 66 12 71 65 11 60 75 17 29 71 19 28 69 18 27 68 18 25 71 19 21 69 21 22 70 20 22 71 24 20 71 26 16 69 24 15 70 
12 18 54 17 20 55 12 18 54 14 18 55 12 18 54 18 21 56 15 19 56 18 21 56 14 20 56 50 34 70 44 33 67 13 17 54 17 19 57 15 19 56 15 19 56 12 18 54 14 20 56 12 18 54 12 18 54 14 20 56 16 18 56 14 18 55 12 18 54 12 18 54 14 18 55 13 17 52 17 19 57 15 19 56 17 20 55 20 20 56 70 45 75 16 19 54 15 19 54 14 18 55 17 20 55 13 17 54 12 18 54 13 19 55 13 17 54 15 19 56 14 20 56 15 19 54 14 18 55 12 18 54 13 19 55 13 17 54 17 20 55 15 19 56 16 20 57 17 20 55 69 44 76 17 20 55 17 23 57 17 21 56 17 23 55 12 26 55 11 25 54 11 25 54 14 25 55 14 25 55 13 24 54 14 28 55 10 25 54 11 26 55 11 28 54 14 30 55 11 28 54 14 30 55 8 30 54 52 47 70 22 44 58 8 58 55 10 71 56 11 72 56 11 72 56 10 71 55 11 69 55 9 60 53 9 50 54 9 41 54 8 35 54 7 34 53 9 34 56 9 34 54 9 34 54 8 33 55 11 56 62 13 70 64 11 70 64 12 71 65 12 39 69 15 27 69 15 24 65 14 26 66 20 23 68 21 22 68 21 22 68 20 20 72 24 17 68 25 14 70 
13 19 55 19 22 57 14 18 55 14 18 55 12 16 53 17 20 55 17 20 55 17 20 55 14 18 55 49 33 69 46 32 67 14 20 56 19 19 55 17 19 57 18 20 58 13 19 55 14 18 55 13 17 54 14 18 55 14 18 55 16 18 56 14 18 55 13 17 54 13 17 54 13 19 55 14 18 55 18 21 56 16 20 57 17 19 57 19 22 57 71 46 76 16 20 57 17 20 55 16 18 56 17 21 56 14 18 55 14 18 55 13 19 55 14 18 55 15 17 55 15 19 56 17 20 55 15 19 56 14 18 55 15 19 56 14 18 55 20 20 56 16 18 56 17 21 58 18 21 56 70 47 76 19 22 55 19 25 57 18 24 56 19 26 55 14 25 55 10 24 53 14 25 55 14 23 54 14 25 55 12 26 53 13 29 55 11 27 53 12 28 54 9 29 54 14 30 56 14 30 55 12 33 54 10 47 55 11 67 56 10 71 55 12 73 57 12 73 55 11 72 57 12 65 57 9 50 56 7 39 54 9 34 54 7 34 53 8 35 54 8 35 56 8 33 53 9 34 54 9 34 54 9 34 54 8 35 56 8 35 54 8 58 57 12 72 60 11 70 64 14 66 64 12 31 63 12 24 64 14 26 64 17 26 67 16 23 65 21 22 66 20 21 67 20 23 68 24 15 68 
13 19 55 17 19 57 12 18 54 13 17 54 12 18 54 16 18 56 14 18 55 17 21 56 14 18 55 49 35 68 44 33 67 15 19 54 17 20 55 15 19 56 16 20 55 12 18 54 13 19 55 12 18 54 14 20 56 14 18 55 16 18 56 14 18 55 12 16 53 13 19 55 13 17 54 13 17 54 16 20 55 15 19 56 17 19 57 19 22 57 71 46 76 18 18 56 15 19 56 15 19 56 18 20 58 14 18 55 12 18 54 12 18 54 14 18 55 15 19 56 15 19 56 15 19 56 15 19 56 12 18 54 13 19 55 13 19 55 17 19 57 14 20 56 17 21 56 18 21 56 71 46 75 19 24 54 15 24 55 15 26 56 15 26 54 13 24 54 14 25 53 12 26 55 13 27 54 12 27 56 10 27 53 14 30 56 9 29 54 9 29 53 8 30 54 10 35 55 9 53 56 11 67 56 10 71 55 12 73 57 11 72 56 11 67 54 8 54 52 8 42 54 8 35 54 9 36 55 10 35 55 9 34 54 9 35 52 7 34 55 8 33 53 8 35 54 8 35 54 9 36 55 8 35 54 8 42 52 8 57 54 9 67 55 14 72 57 12 73 57 11 71 63 10 50 58 11 23 61 14 23 64 16 25 66 17 26 67 19 22 65 20 23 68 21 22 68 22 18 68 
16 19 54 21 21 57 17 20 55 18 21 56 17 20 55 22 22 58 21 21 57 23 21 58 17 20 55 52 37 70 48 37 69 18 21 56 22 22 58 21 21 57 18 22 57 17 20 55 18 21 56 17 19 57 17 20 55 19 22 57 21 21 57 19 19 55 18 20 58 17 20 55 18 21 56 17 19 58 23 21 58 20 23 58 23 23 59 24 22 59 73 48 78 22 22 58 20 20 56 19 22 57 22 20 57 18 21 56 17 19 57 16 19 54 19 21 59 21 21 57 18 21 56 19 22 57 16 20 55 16 18 56 17 19 57 16 19 54 21 21 57 17 20 55 19 24 56 20 23 56 68 48 75 21 26 56 20 25 55 17 26 55 17 26 55 16 25 54 14 28 55 15 29 56 13 27 54 14 28 55 13 27 54 13 30 56 9 29 54 11 33 54 8 52 53 11 69 54 10 73 54 12 73 57 12 70 55 9 65 54 8 49 53 10 37 56 9 36 55 8 33 55 9 36 55 9 34 56 9 34 54 7 34 55 10 35 57 9 34 54 8 35 54 8 35 54 9 38 54 7 48 54 9 62 54 10 73 56 12 73 55 12 70 55 7 60 52 9 64 59 13 71 59 12 66 66 12 31 61 11 23 63 14 23 64 16 25 68 18 23 65 20 21 65 20 21 67 20 21 69 
13 17 54 18 21 56 13 17 54 15 17 55 13 17 54 18 21 56 16 18 56 17 20 55 16 19 54 51 36 69 46 35 69 16 18 56 18 21 54 17 19 57 16 18 56 13 17 55 12 16 53 14 18 55 15 19 56 14 18 55 16 18 56 15 19 56 14 18 55 13 19 55 14 18 55 13 17 54 20 20 56 19 19 55 18 21 56 21 21 57 73 46 79 17 20 55 18 21 56 17 19 57 18 21 54 15 19 56 13 17 54 13 19 55 14 18 55 16 19 54 15 19 57 16 18 56 13 17 54 13 17 54 12 18 54 13 19 53 17 20 55 15 19 54 16 22 54 17 23 55 68 48 73 18 24 56 15 26 56 15 26 54 14 28 55 11 26 55 11 25 54 10 25 54 10 27 55 11 28 54 9 29 54 11 33 54 7 51 52 4 66 51 8 70 55 8 71 54 6 67 52 9 55 53 7 41 53 8 33 53 7 32 54 7 34 55 8 35 56 10 35 55 9 34 54 9 34 54 7 34 53 9 34 54 7 34 53 6 35 53 9 38 56 7 53 53 5 72 54 3 75 53 5 74 55 6 64 52 9 50 56 7 36 52 7 29 52 8 49 53 12 69 62 13 69 66 12 53 59 10 22 62 13 22 63 16 25 64 18 23 65 19 20 66 21 22 68 21 22 68 
15 19 56 19 22 57 15 19 56 16 18 57 15 19 56 21 21 57 20 20 56 21 21 57 17 19 57 52 37 68 46 35 69 16 19 54 21 21 57 18 21 56 19 22 57 15 19 56 16 18 56 15 19 56 17 19 57 18 20 58 20 20 56 16 19 54 16 19 54 13 17 54 17 19 57 16 18 56 20 20 56 18 21 56 21 21 57 22 22 56 73 46 77 21 21 57 21 21 57 18 20 58 22 22 56 16 20 57 15 19 56 15 19 56 17 19 57 18 21 56 17 20 55 17 20 55 16 18 56 15 19 54 16 20 57 16 18 56 20 25 57 17 23 55 19 25 57 20 27 56 69 49 74 20 25 57 17 26 57 17 26 55 18 27 58 13 29 55 13 30 56 14 30 56 12 30 54 12 30 52 8 46 55 10 68 54 10 71 55 10 73 56 8 69 54 11 57 55 8 40 55 9 34 54 8 35 54 9 36 53 7 34 53 9 34 54 8 33 53 9 34 54 9 34 54 9 34 54 9 34 56 8 33 53 9 36 53 8 52 53 11 69 55 10 73 54 10 71 55 8 66 54 8 49 53 9 36 53 8 33 53 9 31 52 8 29 56 8 30 53 8 49 55 12 71 65 11 66 61 12 33 62 11 23 63 17 24 66 16 25 68 19 22 65 22 20 67 24 23 67 
15 19 56 21 21 59 16 19 54 15 19 54 14 18 53 21 21 57 18 21 56 21 21 57 16 20 55 51 36 69 49 35 70 18 21 56 20 20 54 21 21 57 20 20 56 15 19 54 17 20 55 16 19 54 18 20 58 18 21 56 20 20 56 17 20 55 18 21 56 16 18 56 16 20 55 17 20 55 22 22 58 21 21 57 22 22 60 24 23 57 72 47 76 19 22 57 21 19 56 21 21 57 22 22 58 16 19 54 16 19 52 17 20 55 17 20 55 18 21 56 16 20 55 19 22 57 16 20 55 14 18 53 14 20 54 16 22 56 18 24 56 14 25 53 15 26 56 18 24 56 68 48 75 19 25 57 17 26 57 14 28 55 13 27 54 11 28 54 11 28 54 9 29 54 9 36 53 7 58 53 9 70 54 13 71 56 7 69 54 7 58 53 8 37 53 8 33 53 6 30 54 8 35 56 8 33 53 8 33 53 8 33 53 8 35 54 8 35 56 7 34 53 7 34 51 7 34 53 7 36 54 6 44 53 7 65 51 7 72 52 8 71 54 7 63 52 6 44 53 8 35 54 6 33 52 6 33 52 6 31 53 6 31 53 8 30 54 7 29 52 7 34 55 7 50 56 13 69 66 11 49 62 11 23 63 16 25 64 16 25 66 20 23 68 20 21 67 19 21 69 
11 17 53 17 19 57 10 18 54 12 18 54 11 17 53 16 18 56 16 18 56 16 20 57 16 18 56 49 33 69 45 34 66 14 18 55 17 20 55 16 20 57 15 17 55 12 18 54 13 17 54 12 18 54 13 17 54 15 19 56 15 19 56 14 18 55 14 18 55 12 17 55 12 18 54 14 18 55 18 21 56 14 18 53 17 20 55 19 22 57 71 46 76 14 19 57 16 18 56 14 18 55 17 21 58 14 18 55 12 18 52 13 15 53 14 20 56 14 18 55 14 18 55 15 19 54 12 18 54 9 17 53 11 19 55 12 21 54 14 23 54 12 26 53 11 25 54 19 25 57 68 48 75 16 25 54 12 28 54 12 28 54 12 28 54 10 28 52 7 29 52 6 43 52 7 67 55 6 70 54 6 70 53 9 65 54 3 41 50 2 31 49 5 32 51 4 32 53 5 32 51 5 32 53 4 32 53 4 31 52 4 32 53 4 31 52 4 32 53 4 31 52 5 32 51 6 38 53 6 56 53 5 67 52 6 70 53 4 64 52 3 46 52 4 33 49 4 31 52 4 33 51 4 31 50 4 33 51 4 31 52 5 30 52 7 29 53 9 29 54 7 29 53 9 34 54 12 57 62 13 62 66 11 25 64 14 26 66 15 24 67 20 24 69 20 22 70 19 21 69 
12 16 53 18 21 56 15 19 54 14 18 55 12 18 54 17 20 55 16 18 56 18 20 58 15 19 56 50 35 68 45 34 68 15 19 56 16 19 54 16 20 55 16 19 54 11 16 54 14 18 56 13 17 54 14 18 55 14 18 55 16 18 56 14 18 55 13 17 54 13 17 54 13 17 54 14 18 55 20 20 56 16 19 54 16 20 55 20 20 56 72 47 77 15 19 54 16 19 54 16 19 54 18 21 56 15 19 56 14 18 55 13 18 56 14 18 55 14 18 53 15 21 57 16 19 54 13 19 53 12 18 54 12 23 55 10 25 54 15 24 55 13 24 54 13 24 54 16 25 56 68 48 75 13 24 54 12 29 55 11 27 53 12 27 56 9 34 54 3 55 53 5 67 52 6 70 53 5 67 52 6 50 53 7 32 54 4 32 53 4 31 50 4 31 50 4 31 52 4 31 52 5 32 51 4 31 50 5 32 53 3 32 50 3 31 52 3 31 52 4 32 53 4 47 53 5 65 53 5 69 53 4 66 53 3 53 52 3 35 50 5 32 53 4 31 52 4 30 53 4 31 52 4 31 50 4 31 52 4 31 52 4 28 52 7 29 52 6 30 54 7 29 53 10 27 55 9 35 60 12 66 68 13 38 69 13 25 63 15 24 65 19 21 69 21 21 71 22 23 71 
9 17 53 18 21 56 13 17 54 14 18 55 12 18 54 16 20 55 15 19 56 19 19 55 15 19 56 51 36 69 45 34 68 15 19 56 18 20 58 16 19 54 19 19 55 14 18 55 13 19 55 13 19 55 14 18 55 16 18 56 16 18 56 14 18 55 13 19 55 12 17 55 13 19 55 13 17 54 17 20 55 17 20 55 17 20 55 19 21 59 72 47 77 16 20 55 15 19 54 16 19 54 18 21 56 14 18 55 14 18 55 13 17 54 14 18 55 15 18 53 14 18 53 16 20 55 12 21 54 11 19 55 11 22 54 10 25 54 12 25 57 11 25 54 12 26 55 15 27 53 66 46 73 14 25 53 12 28 53 9 29 53 11 45 54 6 62 51 5 69 53 6 70 53 8 61 55 6 38 53 5 31 54 7 29 52 6 31 51 5 32 53 5 32 53 5 32 51 4 32 53 3 31 52 4 33 51 4 32 53 5 32 51 4 32 53 6 38 53 3 59 50 5 67 52 6 67 52 5 55 52 5 39 51 4 31 52 7 29 52 4 29 51 3 30 51 5 30 52 3 31 52 3 30 51 4 28 52 3 30 51 3 27 51 3 28 50 8 30 54 7 29 53 9 22 57 13 27 64 14 65 68 12 47 77 16 25 66 17 26 65 20 22 70 20 22 71 22 22 76 
16 20 55 22 22 58 17 20 55 17 20 55 17 20 55 22 22 58 20 22 60 22 20 57 20 20 56 53 36 70 48 34 67 21 21 57 23 22 56 20 20 56 21 21 57 16 18 56 17 20 55 16 19 54 18 21 56 20 20 56 21 21 57 17 20 55 17 20 55 17 19 57 17 20 55 17 20 55 22 22 56 22 22 58 22 22 58 24 23 57 74 47 78 21 21 57 22 22 58 21 21 57 22 22 58 18 21 56 18 21 56 17 20 55 19 22 57 19 22 57 18 21 56 19 24 56 17 23 55 14 23 54 14 25 55 12 26 55 15 26 54 15 26 56 14 28 55 16 25 56 66 46 74 14 28 55 12 29 55 11 52 54 12 70 56 6 70 54 4 66 53 8 47 54 6 31 51 5 30 52 5 30 50 8 30 53 6 33 52 4 31 52 4 32 53 5 32 51 4 31 50 5 32 53 4 31 50 3 31 52 4 33 51 5 49 52 4 64 52 5 69 53 5 63 51 5 43 52 5 32 53 4 28 52 3 28 50 3 28 50 2 26 50 4 28 54 4 28 52 2 26 50 3 27 53 3 27 53 5 27 51 4 26 50 5 27 51 7 29 53 8 28 55 14 23 64 14 26 66 14 53 68 13 60 80 15 29 74 17 25 71 21 22 70 22 22 74 23 23 77 
15 19 54 20 20 56 15 19 54 16 18 56 14 18 55 18 21 56 19 22 57 18 21 56 18 20 58 52 35 69 47 36 70 18 21 56 21 21 57 18 21 56 18 21 52 15 19 54 16 19 54 16 19 54 16 19 54 17 20 55 17 20 55 16 19 54 16 19 54 16 18 56 16 18 56 17 20 55 19 22 57 17 20 55 19 22 57 22 23 54 74 47 78 18 21 56 20 20 56 18 21 56 22 20 57 16 19 54 17 20 55 16 20 55 18 21 56 17 20 55 16 20 55 18 25 54 13 24 54 10 23 55 11 25 52 13 24 54 16 27 55 12 26 53 14 28 55 15 26 54 65 46 74 16 34 56 10 61 52 12 70 55 11 72 54 8 59 54 8 40 53 9 31 54 7 29 53 5 30 52 5 32 53 8 30 54 4 31 52 4 33 51 4 31 52 4 31 52 5 30 52 5 34 52 5 32 53 3 36 51 5 58 52 4 68 52 5 69 52 3 58 53 4 36 51 3 28 50 4 28 52 2 27 49 4 26 49 4 26 50 3 24 51 6 26 53 5 27 51 4 26 50 4 26 50 4 26 50 2 26 50 4 26 50 4 24 51 5 24 56 10 22 60 12 26 65 13 26 68 13 51 70 16 66 75 18 27 92 16 27 73 20 23 76 22 22 76 24 21 78 
17 20 55 22 22 56 18 21 56 17 21 56 17 20 55 22 22 58 22 22 58 22 22 58 19 22 57 53 36 68 46 35 69 20 20 54 22 22 58 22 22 58 21 21 57 17 19 57 19 19 55 16 19 54 18 21 56 18 21 56 20 20 56 18 21 56 17 20 55 16 19 54 20 20 56 17 20 55 23 22 56 21 21 57 22 22 58 24 23 57 74 49 78 22 22 58 21 21 57 21 21 57 22 22 58 18 22 57 17 20 55 17 20 55 18 21 56 18 23 55 19 25 57 17 26 55 15 24 53 14 25 55 14 25 55 15 26 54 14 28 55 12 28 54 13 29 55 17 28 56 48 49 69 9 62 56 13 71 56 12 70 55 11 55 56 8 33 53 8 30 53 5 32 53 7 29 52 6 31 53 4 31 52 6 31 51 5 32 53 4 31 50 5 30 52 5 32 51 6 33 54 3 30 51 6 40 52 5 63 51 6 70 56 5 67 52 6 47 53 4 31 52 6 28 52 5 27 51 5 26 53 4 25 52 4 26 50 4 24 51 5 22 50 3 24 51 4 24 51 4 24 49 4 23 53 5 25 52 4 25 52 3 24 55 5 21 57 7 22 63 11 23 63 14 27 69 15 28 70 12 52 78 9 65 78 19 37 113 19 19 79 20 21 78 21 20 78 28 19 82 
14 18 55 19 22 57 14 18 55 15 19 54 14 18 55 18 21 56 17 20 55 18 21 56 15 19 56 52 35 69 45 34 68 15 19 57 18 21 56 17 20 55 16 20 55 13 19 55 14 18 55 15 17 55 15 19 56 16 18 56 17 19 57 14 16 54 13 19 55 14 18 55 15 19 56 15 19 54 19 22 55 17 20 55 17 20 55 21 21 57 73 46 77 17 20 55 17 20 55 17 19 57 20 20 56 15 19 56 14 18 53 14 18 53 15 19 54 17 23 57 12 23 53 15 26 58 13 24 52 12 23 51 11 25 52 10 25 54 11 25 52 9 29 54 10 27 55 8 37 53 12 65 55 6 70 54 7 67 55 9 48 53 7 32 54 7 29 53 8 30 53 6 31 51 5 29 53 5 32 53 4 31 52 6 31 51 4 31 52 3 28 50 4 31 52 5 32 53 3 30 51 6 46 54 6 67 52 5 69 52 5 62 55 5 38 53 3 28 50 5 27 51 4 26 50 4 26 49 5 25 52 4 24 51 3 22 52 3 22 52 5 22 50 3 22 52 3 23 50 4 24 51 5 22 50 4 24 51 3 23 50 3 20 63 6 21 62 4 21 64 12 24 64 12 27 68 12 26 71 13 53 78 12 65 79 20 41 124 20 22 99 21 21 81 21 19 82 44 19 100 
67 43 75 71 46 76 67 43 75 69 44 74 67 43 75 70 45 75 70 45 75 70 45 75 70 43 74 78 49 79 79 50 80 68 44 76 72 43 74 70 45 77 71 44 75 67 44 73 69 44 76 68 45 74 69 44 74 69 44 74 72 45 76 69 44 74 68 43 73 69 44 76 68 43 73 69 44 74 71 46 76 71 44 75 71 44 79 69 44 74 87 54 85 70 45 75 72 47 77 71 46 76 72 45 76 71 44 77 70 45 75 68 48 76 69 46 74 68 48 75 70 47 75 68 48 73 66 48 74 66 45 76 66 46 74 65 46 76 67 47 74 66 48 74 42 47 67 11 64 54 11 72 56 7 67 55 6 43 52 6 31 53 7 31 55 5 30 50 8 30 53 8 30 53 5 29 53 7 29 53 5 30 52 5 32 51 4 29 51 3 30 51 2 29 50 5 32 53 3 53 50 5 68 51 6 68 53 5 49 52 4 31 52 4 26 50 3 24 51 1 27 52 6 23 51 3 23 48 4 23 53 6 23 51 4 21 51 5 22 52 5 22 52 4 21 51 6 21 50 5 22 52 3 23 50 5 21 54 4 23 56 6 21 64 3 20 63 5 23 61 13 27 66 11 29 69 9 27 73 12 52 78 9 65 80 18 40 123 24 27 124 22 22 86 18 22 86 72 20 121 
15 19 56 23 21 58 17 19 57 16 20 55 16 18 56 21 21 57 20 20 56 22 22 58 17 20 55 50 35 68 48 34 69 16 18 56 21 21 57 18 21 56 20 20 56 16 18 56 15 19 56 16 20 55 17 20 55 17 20 55 20 20 56 16 20 55 15 19 54 16 20 57 17 19 57 19 19 55 22 22 58 18 20 58 18 21 56 22 20 57 73 47 76 16 20 55 18 21 56 18 21 56 22 22 60 17 20 55 16 20 55 14 23 54 17 26 57 14 25 55 14 25 55 16 25 56 15 26 54 10 28 52 10 27 53 12 29 55 12 29 55 11 33 54 8 66 52 6 69 52 11 64 54 7 34 53 8 30 53 8 30 53 7 29 53 8 30 54 7 29 53 4 29 51 5 32 53 5 30 52 3 30 51 5 29 53 4 28 52 4 29 49 4 36 51 6 63 54 5 69 53 5 67 54 3 40 49 5 27 51 5 25 52 5 25 52 5 25 50 3 24 51 5 22 50 2 21 51 5 22 50 4 21 51 2 22 49 4 19 50 4 19 50 5 20 51 6 21 52 5 22 50 4 21 51 5 23 63 7 22 65 6 21 62 6 21 62 5 22 66 9 23 68 9 26 72 12 28 79 12 51 80 9 65 80 20 41 124 26 29 136 22 25 104 18 22 86 41 24 102 
17 20 55 22 22 56 17 20 55 18 21 56 16 19 54 20 23 58 21 21 57 22 22 58 21 21 57 54 37 69 46 35 67 21 21 57 22 20 57 21 21 57 21 21 57 16 18 56 20 20 56 17 20 53 17 20 55 17 20 55 21 21 57 18 21 56 17 20 53 16 19 54 19 19 57 18 21 56 22 20 57 18 21 56 19 24 56 24 23 57 73 48 77 19 22 57 21 21 55 18 21 56 23 22 56 18 21 56 18 23 55 17 23 55 18 24 56 16 25 56 14 25 55 17 26 57 15 27 53 13 27 54 12 27 56 10 30 54 13 31 55 10 61 54 14 73 55 8 66 54 6 38 53 8 30 53 7 29 52 9 29 53 7 28 55 6 30 54 6 31 53 5 30 52 5 29 53 7 29 52 3 30 51 4 29 49 4 29 51 3 36 53 5 67 54 5 69 53 3 63 51 5 34 50 4 25 52 5 26 53 4 24 51 5 25 50 4 24 51 5 22 50 4 21 51 4 20 53 2 21 51 5 20 53 4 19 52 4 19 50 6 19 53 3 18 49 4 21 51 5 22 50 4 20 54 6 19 61 3 21 61 5 22 65 6 21 62 3 22 65 8 25 69 10 26 77 11 27 78 12 51 82 10 66 83 18 39 122 26 26 136 26 29 126 21 21 91 22 22 92 
14 20 54 22 22 56 16 19 54 16 19 54 16 20 55 21 21 57 19 22 57 20 23 58 17 19 57 53 36 70 46 35 67 17 20 55 19 22 57 20 20 56 20 20 56 14 20 54 16 18 56 15 19 54 17 20 55 18 21 56 20 20 56 15 19 54 16 19 54 16 18 56 16 18 56 17 20 53 21 21 59 18 21 56 19 22 57 21 21 55 72 49 77 21 21 57 21 21 55 19 22 57 20 23 56 17 21 56 17 23 55 15 26 56 16 25 54 15 27 53 14 28 55 17 28 56 14 25 53 12 26 53 11 29 53 10 30 54 9 50 52 13 71 56 7 69 56 9 38 54 8 30 53 8 30 54 7 29 53 7 29 52 8 30 53 7 29 52 6 30 54 4 29 51 3 30 51 4 28 52 3 30 51 5 30 52 4 40 52 5 65 53 4 66 51 4 57 47 5 30 52 5 27 51 4 25 52 4 25 52 4 24 51 3 23 50 3 22 52 3 20 50 4 21 49 5 20 53 3 20 50 4 20 53 3 18 51 3 18 51 5 18 52 3 18 51 4 21 51 2 21 51 5 19 54 6 20 59 5 20 61 4 22 62 4 21 64 5 23 69 6 24 72 11 27 76 11 29 79 12 53 81 9 65 78 19 40 123 26 29 136 27 28 136 26 24 107 22 22 94 
16 19 54 23 23 57 17 20 55 20 20 56 17 20 55 22 22 56 21 21 57 23 22 56 19 22 57 54 37 71 47 36 68 20 20 56 22 22 56 21 21 59 22 20 57 17 20 55 19 19 55 17 20 55 17 20 55 19 22 57 21 21 57 18 21 56 17 21 56 17 20 55 16 19 54 18 21 56 24 23 57 19 22 57 22 22 58 24 23 57 74 48 77 19 22 57 22 22 56 22 23 54 21 24 57 19 26 55 19 25 57 16 25 54 19 26 55 16 25 54 16 27 55 16 27 55 12 28 53 14 28 55 13 29 54 8 47 54 12 73 57 13 71 56 7 48 52 8 28 53 9 31 54 7 29 53 7 29 52 8 30 53 9 31 54 8 30 53 6 31 53 8 30 53 4 29 51 3 28 50 5 27 50 6 44 53 5 68 51 5 66 51 4 52 52 5 27 51 4 26 50 5 25 52 5 25 52 4 24 51 7 24 52 3 22 52 4 21 51 4 21 51 5 20 51 4 19 52 4 19 52 4 19 50 5 18 52 5 18 52 3 18 51 4 17 51 4 19 50 4 21 51 4 18 57 7 19 61 5 20 61 4 21 64 5 22 65 7 26 68 7 25 75 10 28 76 10 28 78 12 53 81 12 65 81 18 40 123 20 33 137 25 29 136 27 26 128 19 23 97 
14 18 55 19 19 55 14 16 54 14 18 53 14 18 55 18 21 56 16 19 54 19 19 55 16 19 54 51 36 69 47 33 68 16 19 54 20 20 56 18 21 56 17 20 53 15 18 53 15 19 56 14 18 55 15 19 54 15 18 53 17 20 55 16 19 54 14 18 55 14 18 55 15 18 53 14 18 53 18 21 54 16 19 54 17 19 57 20 23 56 72 47 77 18 20 58 19 19 55 17 20 55 19 24 54 14 25 55 14 25 53 14 25 53 14 25 53 16 27 55 13 29 54 13 29 54 12 29 57 9 29 54 7 36 52 7 68 52 7 70 53 9 60 53 9 31 54 8 30 53 9 29 53 7 29 52 7 29 52 7 29 52 8 30 53 7 29 52 5 30 52 4 29 51 4 29 51 4 28 52 5 45 53 3 65 52 6 64 52 4 50 50 4 26 50 4 24 49 6 26 53 4 26 50 3 22 52 4 23 53 5 22 52 4 21 51 5 22 52 4 21 51 4 19 52 4 19 50 5 20 53 4 17 51 2 15 50 4 17 51 3 16 50 5 18 53 5 18 50 4 19 50 5 17 57 5 19 58 6 21 62 5 20 61 5 22 66 8 24 73 7 25 73 11 27 78 9 28 84 13 54 86 12 64 85 17 38 127 20 33 135 25 29 137 26 29 136 23 24 114 
12 18 54 17 20 55 14 18 55 14 18 55 12 18 54 18 20 58 16 18 56 18 21 56 14 18 55 50 35 68 45 34 68 15 18 53 16 19 54 15 19 54 15 19 54 13 17 54 14 18 55 13 17 54 13 19 55 15 19 54 16 19 54 12 20 56 14 18 55 13 17 54 13 17 54 12 18 54 17 20 55 15 19 54 17 21 56 20 20 56 72 47 77 15 19 54 16 20 55 17 21 56 14 25 53 12 23 51 14 25 55 13 24 54 13 29 55 11 25 54 11 27 53 13 29 54 8 30 54 5 30 52 7 58 53 5 69 53 7 67 55 9 34 54 9 31 52 8 30 53 8 30 53 8 30 54 8 30 54 5 29 53 5 30 52 4 28 52 4 29 51 3 27 51 4 29 51 3 47 50 5 66 51 6 63 54 5 46 50 4 26 50 3 25 49 4 24 49 5 25 52 3 23 50 5 22 50 5 22 52 4 20 53 5 20 51 4 19 52 4 19 52 3 18 51 4 17 51 4 17 51 3 16 50 3 16 51 5 15 51 3 16 51 3 16 50 4 19 52 4 19 50 5 17 57 7 19 59 5 20 61 4 22 62 4 23 66 8 24 73 6 26 76 7 26 84 9 29 88 11 56 87 13 64 85 18 37 129 19 35 133 23 32 137 26 28 137 28 27 131 
12 18 54 17 20 55 13 17 54 13 17 54 11 17 53 16 19 54 15 18 51 16 18 57 15 19 56 51 34 68 46 32 67 15 18 53 16 20 55 15 19 56 17 21 56 11 17 53 14 18 55 13 17 54 13 17 54 14 18 53 16 19 54 14 18 55 13 17 54 13 17 54 11 17 51 12 18 54 19 19 55 15 17 55 16 20 55 20 20 54 71 48 77 16 20 55 17 20 55 16 23 52 17 26 55 14 25 55 13 24 54 9 24 53 13 27 54 12 27 56 11 27 53 13 29 54 8 30 53 5 49 52 6 69 52 6 69 52 7 63 52 7 36 54 8 30 54 8 30 54 7 29 52 7 29 53 6 31 53 4 28 52 4 29 51 3 28 50 3 28 50 3 29 52 5 37 50 5 63 51 6 64 50 5 49 50 3 27 51 5 25 52 4 24 51 4 24 51 3 23 50 4 21 51 5 22 52 4 21 51 4 19 48 4 19 50 3 18 51 4 19 52 3 18 51 4 17 51 4 17 51 4 17 52 3 16 51 4 14 50 3 16 51 3 16 50 5 20 53 4 19 52 4 18 57 6 19 61 6 21 62 5 22 65 5 22 66 5 26 71 5 25 75 9 28 84 9 30 87 10 63 81 11 63 85 19 38 130 20 33 135 19 32 136 24 28 135 26 29 136 
12 18 54 18 21 56 14 18 55 14 18 55 12 18 54 17 20 55 17 20 55 17 20 55 15 19 56 51 36 67 46 32 67 14 18 53 17 20 55 17 20 55 16 20 55 13 17 54 14 18 55 13 19 55 15 19 56 15 19 57 17 19 58 15 19 56 15 19 56 14 18 55 14 18 55 14 18 55 20 20 56 17 20 55 17 21 56 21 21 57 72 47 77 17 20 55 18 24 56 18 24 58 18 25 54 14 25 53 14 25 53 13 27 54 12 28 53 9 29 53 10 30 55 13 31 55 9 36 53 9 65 54 8 71 54 10 71 55 6 54 54 9 31 54 8 30 53 8 30 54 8 30 53 5 30 52 8 30 53 4 29 51 3 30 51 6 28 51 3 28 50 4 33 51 5 54 50 5 66 51 6 52 52 4 28 52 4 26 50 4 24 49 4 24 51 5 25 52 5 22 50 5 22 50 5 22 52 5 20 51 4 19 50 4 19 50 5 18 52 3 16 50 4 17 51 3 16 50 5 15 51 5 15 51 5 15 51 5 15 51 5 15 51 4 17 51 3 18 49 5 20 53 6 18 58 6 19 61 6 21 62 5 22 65 6 23 67 6 24 70 6 26 79 9 28 86 9 32 86 11 64 80 12 63 84 16 37 130 19 32 136 19 34 137 25 29 136 23 27 135 
16 19 54 21 21 57 16 19 54 17 20 55 15 19 54 20 20 56 18 21 56 21 21 57 17 20 53 53 36 70 48 35 65 16 19 54 21 21 57 19 22 57 20 20 56 15 19 54 17 20 55 15 19 54 16 19 54 17 20 55 18 21 56 16 19 54 15 19 54 15 18 53 18 18 54 15 19 56 21 21 57 18 20 58 19 22 57 23 22 56 73 46 77 18 21 56 19 25 57 18 25 54 20 25 55 17 26 59 14 28 55 11 25 52 13 29 55 12 30 54 13 31 53 14 30 55 7 56 53 8 71 54 8 71 54 7 69 54 5 39 49 4 31 52 6 31 53 5 30 52 5 29 53 4 29 51 4 29 51 3 30 51 3 27 51 3 27 51 3 28 50 5 49 52 4 65 50 4 57 51 3 32 50 3 23 48 4 24 51 6 23 51 4 24 51 6 21 50 5 22 50 5 22 50 4 19 50 4 19 50 5 19 54 2 17 50 4 17 51 5 18 52 3 16 50 3 16 51 3 13 49 5 15 51 5 15 51 5 15 51 5 15 51 4 17 52 4 19 50 3 17 52 8 20 60 5 20 61 6 21 62 5 22 66 5 23 69 6 27 74 7 27 80 9 28 87 8 35 88 12 65 81 11 60 90 20 33 137 18 31 133 20 31 136 22 31 136 24 28 135 
14 18 55 20 20 56 15 17 55 15 17 55 12 18 54 19 19 55 17 20 55 19 19 55 15 18 53 51 36 67 45 34 68 16 19 54 18 21 56 20 20 56 18 21 56 14 18 53 13 17 52 14 18 55 16 19 54 15 19 54 18 21 56 15 19 54 14 18 55 14 18 53 15 19 54 15 19 56 19 22 55 17 20 55 17 20 55 21 21 57 72 47 77 16 22 54 18 25 54 17 26 55 19 26 55 14 25 53 14 28 54 13 27 54 14 30 56 9 29 53 10 30 55 12 42 53 5 66 51 6 68 53 6 69 50 6 55 51 4 31 52 6 31 53 5 32 53 5 30 52 5 30 52 6 28 49 3 30 51 4 29 51 3 28 50 4 26 50 4 36 51 6 62 53 4 64 52 3 35 50 4 24 49 4 24 51 4 23 53 4 21 51 5 22 52 5 22 52 4 21 49 5 22 52 4 19 50 4 19 52 3 19 52 4 17 51 4 17 51 3 16 50 3 16 51 3 16 51 4 17 52 4 14 50 5 15 51 4 14 50 3 16 51 3 16 50 5 18 50 5 18 53 5 19 58 4 21 64 4 22 62 6 23 67 6 25 68 7 25 75 5 26 79 10 26 86 8 46 83 12 65 79 13 56 101 20 33 137 18 30 130 19 29 127 20 33 137 21 28 135 
15 19 56 21 21 55 16 19 54 16 18 56 15 19 54 21 21 57 18 21 56 21 21 57 19 22 57 53 36 70 46 35 67 19 19 55 20 20 56 20 20 56 19 22 57 15 17 55 17 20 55 14 20 54 16 19 54 17 20 55 18 21 56 18 18 54 16 19 54 15 19 54 16 18 56 17 20 55 22 21 55 17 20 55 19 22 57 22 22 56 73 48 77 18 24 56 19 26 55 19 26 55 20 25 55 14 28 57 14 28 55 14 28 55 14 30 55 12 30 54 11 31 55 11 64 54 11 73 52 12 70 55 8 66 52 8 35 54 6 31 53 6 30 54 8 30 53 8 30 53 8 30 53 8 28 52 4 31 52 4 28 52 4 28 52 6 28 52 4 54 53 7 65 53 4 50 48 3 24 51 3 23 50 4 23 53 6 21 52 6 23 51 4 21 51 4 21 51 3 20 50 5 20 51 4 19 52 3 18 51 4 17 51 4 17 51 3 16 50 3 16 51 3 16 51 3 16 51 2 15 50 6 16 52 5 15 51 4 14 50 3 16 50 4 17 51 4 17 51 6 18 56 5 19 58 5 23 63 3 21 61 6 23 67 5 26 73 7 25 75 5 26 81 10 29 87 9 54 83 11 64 80 16 45 115 20 33 137 18 27 128 16 22 116 20 32 134 21 28 135 
14 18 55 19 22 57 14 18 53 15 18 53 14 18 55 18 21 56 17 20 55 20 20 54 16 18 56 51 36 69 47 33 68 17 20 55 17 20 55 18 21 56 17 20 55 14 18 55 15 18 51 13 17 54 15 19 54 16 19 54 19 17 54 15 19 54 14 18 55 14 19 51 15 18 53 15 18 53 20 20 54 17 20 55 19 22 57 21 21 55 73 48 77 17 24 53 18 25 54 16 25 54 18 24 56 12 26 52 13 29 54 12 29 55 12 30 54 11 29 53 8 42 52 13 71 56 7 70 53 7 68 52 5 50 53 5 30 50 4 31 52 4 31 52 5 30 50 5 30 52 4 29 51 4 29 51 4 29 51 3 28 50 3 27 51 6 35 51 6 64 52 5 62 53 4 33 49 5 25 52 4 24 49 3 23 50 5 22 52 5 20 51 5 22 50 3 20 50 5 20 51 4 19 50 5 20 53 4 17 51 5 18 52 3 16 50 4 14 50 5 15 51 5 15 51 5 15 51 6 16 52 5 15 51 4 14 50 5 15 51 4 17 52 4 17 52 5 18 53 5 17 57 7 20 62 4 22 62 4 21 64 5 22 66 8 24 73 8 25 79 7 26 84 9 29 88 10 63 81 9 64 84 17 42 126 22 34 136 14 24 121 15 20 111 18 27 130 22 29 136 
12 18 54 18 21 56 11 17 53 13 17 54 12 18 54 16 19 54 15 18 53 17 19 57 14 18 55 50 35 68 43 33 67 14 18 53 16 19 54 16 18 56 16 19 54 12 18 54 13 17 54 12 18 54 13 19 53 15 19 54 16 19 54 13 19 53 13 17 54 12 18 54 12 16 53 10 18 54 16 19 54 15 18 53 17 20 55 20 20 56 73 50 78 16 25 56 14 25 53 15 26 56 15 24 53 11 25 52 11 27 53 9 29 53 10 30 54 6 31 53 7 59 55 13 71 56 6 69 52 5 63 51 4 33 51 4 31 52 4 31 52 4 29 51 4 29 51 5 30 52 5 30 52 4 29 51 3 27 51 4 29 51 5 27 51 3 47 48 5 66 51 5 51 51 4 26 50 4 24 49 4 24 51 5 22 52 4 21 49 5 22 50 4 21 51 4 19 50 5 20 51 4 19 52 4 17 51 4 17 51 3 16 50 5 15 51 5 15 51 6 14 51 6 14 51 5 15 51 5 15 51 5 15 51 5 15 51 4 14 50 4 17 51 4 17 51 5 17 55 6 18 58 5 20 61 4 22 62 5 22 65 6 23 67 5 26 71 5 27 77 8 27 83 9 40 86 10 66 81 10 60 85 20 33 135 20 31 136 17 24 115 11 20 111 15 23 122 22 31 136 
14 18 53 19 22 57 13 17 54 16 19 54 14 17 52 16 19 54 17 20 55 18 21 56 16 18 56 52 35 69 45 33 69 16 19 54 17 20 55 17 20 55 18 21 56 14 18 55 13 17 54 14 18 55 15 19 56 15 19 54 16 19 54 14 18 53 13 19 55 12 18 54 14 18 55 15 17 55 18 21 56 16 19 54 17 19 57 21 21 55 72 49 77 16 25 56 15 24 53 15 24 53 16 27 55 12 26 53 12 28 54 10 30 54 12 30 54 8 35 52 7 69 56 14 71 56 6 67 52 4 47 53 4 31 52 4 31 52 4 31 50 5 29 53 4 29 51 5 30 52 3 28 50 3 29 52 4 28 52 5 27 50 4 29 51 6 57 52 6 63 54 5 39 49 5 25 52 4 24 51 3 23 50 5 22 50 5 21 54 6 23 53 5 20 51 4 19 50 4 19 52 4 17 51 6 19 53 6 16 52 5 15 51 5 15 51 5 15 51 5 15 51 5 15 51 5 15 51 4 14 50 5 15 51 6 16 52 3 16 48 6 16 51 6 16 52 5 17 55 6 20 59 6 21 60 6 21 62 5 22 65 7 24 68 5 26 73 6 26 79 9 26 82 9 52 84 12 65 81 12 51 106 20 33 135 18 30 130 14 21 111 10 19 112 11 21 119 18 29 134 
13 17 54 17 20 55 13 17 54 14 18 55 12 18 54 17 20 55 16 18 56 18 21 56 15 19 56 50 35 68 45 34 68 15 19 54 17 20 55 16 18 56 16 21 53 12 18 54 13 17 52 13 17 54 14 18 55 15 17 55 16 19 52 14 18 53 13 17 54 13 17 55 13 17 54 13 17 52 18 21 56 15 19 54 16 20 57 21 19 56 72 49 75 14 23 54 15 24 55 14 25 53 17 26 55 11 27 53 11 28 54 11 29 53 11 29 53 8 47 52 7 70 53 12 73 57 6 59 53 5 34 52 4 31 50 5 32 49 5 30 50 4 29 51 6 28 51 4 29 51 4 29 51 4 28 52 3 27 51 5 27 51 4 36 51 5 63 51 3 59 50 4 29 51 4 24 51 3 23 50 3 23 50 4 21 51 6 21 52 4 21 51 4 19 50 4 19 52 4 17 49 2 17 50 3 16 50 5 15 51 5 15 51 5 15 51 5 15 51 4 14 50 5 15 51 4 14 50 5 15 51 4 14 50 3 16 51 4 17 51 4 17 52 4 16 56 5 17 57 2 20 60 6 21 62 4 22 62 5 22 66 6 24 70 7 25 71 6 26 77 10 31 86 9 62 80 11 64 82 15 40 120 20 31 136 16 28 128 13 20 110 10 19 112 10 19 112 15 26 131 
16 19 54 22 22 56 16 19 54 18 21 56 17 20 55 21 21 57 21 21 57 22 22 56 18 21 56 55 35 70 49 34 67 20 20 58 21 21 57 21 21 59 21 21 55 16 19 54 18 21 56 16 20 55 17 20 55 18 21 56 21 22 53 20 20 56 17 20 55 16 19 54 17 20 55 17 20 55 23 23 57 21 21 55 22 22 58 22 25 56 74 50 76 18 24 56 19 26 55 16 26 53 20 25 55 15 29 55 12 30 54 13 31 55 13 31 53 8 64 55 11 69 54 13 71 56 6 50 53 4 31 52 5 32 53 4 31 50 4 31 52 4 29 51 4 29 51 4 29 51 3 28 50 4 29 51 5 27 50 4 26 50 5 46 52 5 66 50 6 50 53 4 24 49 5 24 54 5 25 52 4 21 51 5 22 50 4 21 51 3 20 50 4 19 50 5 19 48 4 17 51 1 16 49 3 18 51 4 14 49 5 15 51 5 15 51 4 14 50 4 14 50 4 14 50 5 15 51 4 14 50 5 15 51 4 17 52 5 18 53 4 17 52 5 17 55 6 20 59 6 21 62 7 22 63 6 23 66 7 21 66 6 23 69 4 25 70 6 27 74 8 42 87 12 65 81 10 60 87 19 35 131 21 33 135 13 24 116 11 18 108 9 20 112 10 19 114 16 25 128 
16 19 54 21 21 57 16 19 54 17 19 57 14 18 53 21 21 55 20 20 56 20 20 56 17 20 55 56 36 71 46 35 67 19 19 55 21 21 57 18 21 56 21 21 57 16 18 56 16 18 56 16 19 54 17 20 55 17 20 55 20 18 55 16 19 54 16 20 55 15 18 53 17 20 55 15 19 54 21 21 59 17 20 55 20 23 56 22 25 56 73 49 75 16 25 54 18 25 54 18 25 53 18 27 56 14 30 55 13 31 55 12 30 54 10 39 53 8 66 54 11 69 54 10 71 53 7 41 53 4 31 52 5 32 51 4 31 52 4 29 51 4 29 51 4 28 52 5 30 52 4 29 49 3 30 51 5 27 50 4 29 51 6 57 52 5 63 51 4 36 51 3 25 49 3 23 48 6 23 53 4 21 51 3 23 50 5 18 50 4 19 50 4 19 52 4 17 51 4 17 49 4 17 51 3 16 51 4 14 50 5 15 51 5 15 51 4 13 52 5 15 51 4 14 50 4 14 50 5 15 51 5 15 51 3 16 51 4 16 54 3 17 54 5 17 57 6 19 61 6 21 64 4 22 62 6 23 67 6 23 67 4 25 70 5 25 75 8 25 77 9 57 80 11 64 82 13 46 115 22 34 136 19 32 134 12 19 109 11 18 108 9 20 112 10 19 114 13 23 120 
17 19 57 22 21 55 17 20 53 21 21 59 17 20 55 21 21 55 21 21 57 22 21 55 19 22 57 55 38 70 46 35 69 20 20 54 22 21 55 22 22 58 22 20 57 17 19 57 18 21 56 17 20 55 19 22 57 20 20 56 21 21 57 19 19 53 19 19 55 17 20 55 16 19 54 16 19 54 23 22 56 19 22 57 21 24 57 23 29 55 74 50 76 20 25 57 19 24 56 19 26 55 20 27 56 15 30 53 14 28 54 14 32 56 11 45 54 9 70 54 11 72 56 10 66 55 7 36 52 4 30 53 5 32 51 4 31 52 4 29 49 3 30 51 4 29 49 5 30 52 4 29 51 3 27 51 5 27 51 6 35 51 6 62 51 6 59 51 3 28 50 5 25 52 4 24 51 4 21 49 5 22 52 4 21 49 3 18 49 4 19 50 4 19 52 4 17 49 3 16 50 5 15 50 4 16 54 5 15 51 4 14 50 4 14 50 5 15 51 4 14 49 5 15 50 5 15 50 3 16 50 5 15 50 4 17 51 4 16 54 5 17 55 7 19 59 7 22 63 7 22 65 6 23 66 5 22 66 8 22 67 6 24 70 6 26 76 7 34 81 9 65 80 10 60 85 16 37 128 22 34 136 15 27 127 8 18 103 10 17 105 11 20 113 9 20 110 13 21 120 
15 18 53 20 20 56 15 19 56 15 17 55 13 17 52 18 21 56 18 21 56 20 20 56 16 18 56 51 34 66 44 33 65 15 18 51 20 20 56 17 20 55 18 21 56 14 18 55 15 19 54 14 18 53 14 18 53 15 19 54 20 20 56 16 19 54 14 18 53 15 19 54 14 18 53 15 18 53 21 21 57 16 19 54 18 23 55 20 25 55 72 49 75 16 25 54 17 26 55 14 28 55 15 29 55 11 28 56 10 30 54 10 30 54 6 55 52 11 69 54 10 71 55 10 61 52 4 33 51 4 31 52 4 31 50 5 32 51 5 30 52 4 29 49 3 28 50 4 29 51 4 29 51 4 28 52 5 27 51 6 43 51 7 65 53 4 47 53 4 26 49 4 24 51 3 24 51 5 22 50 4 21 49 4 19 50 5 20 51 3 18 49 4 19 52 4 17 51 3 16 50 5 15 51 5 15 50 5 16 48 4 14 50 5 15 51 4 14 50 5 15 50 5 15 50 5 15 50 3 16 50 4 17 51 4 17 52 5 17 55 4 18 57 5 18 60 5 20 61 7 22 63 5 22 66 5 22 66 6 25 68 5 23 69 7 25 75 7 54 80 12 65 81 13 48 102 19 32 134 20 32 134 11 21 110 8 19 99 11 18 106 12 19 110 10 19 112 11 19 117 
