P3
100 50
255
30 7 17 28 7 16 28 7 16 28 7 16 30 7 17 30 7 17 30 7 17 30 7 17 34 8 17 47 12 18 29 8 15 33 7 16 31 8 18 31 8 16 30 7 17 30 9 18 29 8 17 30 9 18 30 7 17 30 7 17 30 7 15 30 7 17 29 6 16 30 7 17 32 7 13 30 7 15 30 7 17 31 8 16 35 8 17 48 11 18 30 7 17 33 7 16 30 7 17 32 6 15 30 7 17 30 7 17 30 7 17 30 7 17 32 6 17 31 8 16 31 8 18 30 7 17 29 8 17 30 7 17 30 7 17 35 8 17 33 7 16 33 7 16 31 8 18 44 13 19 40 9 15 30 7 15 31 8 18 31 8 18 31 8 18 28 7 16 29 8 17 30 7 17 31 8 16 29 8 17 30 7 17 30 7 15 29 8 17 28 7 16 30 7 17 31 7 21 31 8 26 30 9 26 39 11 26 48 14 31 33 7 32 33 9 35 33 8 38 34 11 40 30 6 40 31 9 56 30 11 57 33 9 57 28 9 55 32 10 56 28 9 55 28 11 55 22 6 43 23 6 42 22 7 40 23 7 36 22 6 33 22 6 32 20 5 28 21 6 25 20 6 23 21 4 20 21 4 20 21 5 16 20 4 15 21 5 16 20 4 15 20 4 15 21 5 16 21 5 16 
49 13 17 50 14 18 48 13 17 47 12 16 49 12 19 48 12 16 49 13 17 49 13 17 49 13 17 56 16 17 48 13 17 49 13 17 48 13 17 49 13 17 49 13 17 49 13 17 49 13 17 49 13 17 49 13 17 49 13 17 49 13 17 50 14 18 49 13 17 49 13 17 50 13 20 51 12 15 50 13 20 50 14 18 52 13 16 56 14 16 49 13 17 50 14 18 51 12 17 52 13 16 48 13 17 50 14 18 50 14 18 52 13 18 49 13 17 51 12 15 48 12 16 49 13 17 50 14 18 46 14 19 48 14 15 51 15 19 50 14 18 51 12 17 50 14 18 54 15 18 53 14 17 48 13 17 49 13 17 48 13 17 50 14 18 47 13 14 48 13 17 47 12 16 50 14 14 48 13 17 49 14 18 49 14 18 48 13 19 48 14 15 49 14 20 47 14 21 50 14 26 50 14 28 51 15 29 55 17 30 50 13 31 52 14 35 50 15 39 50 15 39 47 11 39 32 11 54 32 10 57 30 11 56 29 10 56 29 10 56 29 10 56 27 10 54 23 5 43 23 7 43 21 6 39 22 6 35 22 6 33 22 6 32 20 5 28 20 5 24 20 6 23 21 4 20 21 4 20 21 5 16 20 4 15 18 5 15 21 5 16 21 5 16 21 5 16 21 5 16 
28 6 18 27 6 15 26 6 17 27 7 16 24 7 15 27 6 15 28 6 18 29 7 19 33 8 14 48 12 16 27 6 15 29 8 17 28 7 16 29 6 16 26 6 17 27 6 15 26 6 17 28 6 18 27 6 15 28 7 16 27 6 15 27 5 17 26 6 15 23 6 16 28 7 16 27 6 15 29 8 17 28 6 18 30 7 15 46 11 15 27 5 17 29 8 17 26 6 17 28 7 16 26 6 18 26 6 15 24 4 15 26 6 17 26 6 15 28 7 16 27 7 16 26 5 14 26 6 17 26 4 16 26 6 17 29 8 17 28 7 16 27 6 15 27 5 17 43 10 17 38 8 16 28 7 16 29 5 18 28 7 16 27 5 17 26 6 18 26 6 17 26 6 17 27 6 15 26 6 17 27 6 15 26 6 17 25 5 14 26 6 17 27 7 19 28 7 22 29 8 23 27 6 23 37 10 29 48 14 31 25 5 32 28 8 36 28 7 38 29 7 43 27 7 44 31 9 55 29 10 55 31 9 55 29 10 56 29 10 55 28 9 55 27 10 54 24 8 44 23 6 42 23 6 40 22 6 35 23 7 34 20 4 30 20 5 28 21 6 25 19 5 22 19 5 22 20 3 19 19 3 14 21 5 16 21 5 16 20 4 15 22 6 17 21 5 16 20 4 15 
28 6 18 28 7 16 26 6 17 26 6 15 28 7 16 28 7 16 29 8 17 28 7 14 33 8 14 48 13 17 27 6 15 29 8 17 28 7 16 29 6 16 27 5 17 27 5 17 26 6 17 26 5 14 29 8 17 28 7 16 29 8 17 28 7 16 26 6 17 26 6 15 27 6 15 29 8 17 29 7 19 28 7 16 32 6 15 47 12 16 29 8 17 30 7 17 28 7 16 28 7 16 26 6 15 26 6 15 26 6 15 27 7 16 27 6 15 27 7 16 27 7 16 27 6 15 26 6 17 27 5 17 26 6 15 29 8 17 28 7 16 28 7 16 28 7 16 43 10 17 40 11 16 29 6 16 28 7 16 28 7 16 29 6 16 27 7 18 26 7 13 27 6 15 28 7 16 27 8 14 29 8 15 28 7 16 26 6 15 26 7 13 29 7 20 30 8 21 28 7 22 28 7 26 36 9 28 47 13 30 29 6 32 30 7 36 28 7 38 29 7 43 27 7 44 31 9 55 32 10 59 32 10 56 29 10 56 30 11 56 29 10 55 27 10 54 23 7 43 23 6 42 22 5 39 22 6 35 22 6 33 21 5 31 20 5 28 20 5 24 20 6 23 19 5 20 21 4 20 20 4 15 19 3 13 21 5 16 20 4 15 20 4 15 21 5 16 21 5 16 
27 6 15 28 7 16 26 6 18 26 6 15 27 5 17 28 7 16 28 7 16 28 6 18 34 8 17 47 12 18 25 5 16 28 6 18 27 7 16 29 6 16 26 6 17 25 5 16 26 6 17 27 7 18 27 5 17 26 6 15 27 5 17 26 6 17 27 5 17 26 6 17 28 7 16 28 7 16 28 7 16 27 6 15 32 6 15 44 12 15 26 7 13 28 7 16 27 5 17 28 7 16 26 6 17 26 6 15 25 5 16 26 6 17 26 6 15 28 7 16 26 6 17 27 7 18 26 6 17 26 6 17 25 5 14 28 7 16 28 7 16 28 6 18 28 7 16 42 9 16 39 10 15 27 7 18 27 6 15 28 7 16 27 6 15 26 6 17 26 6 17 27 7 18 28 7 16 25 5 14 28 7 16 26 6 15 26 6 15 26 6 17 28 6 18 29 7 20 28 5 21 27 6 25 37 10 29 46 11 31 28 8 33 28 8 35 28 7 38 28 6 42 27 7 42 29 11 53 29 10 55 29 10 55 28 9 55 29 10 55 30 11 57 27 10 54 22 6 42 23 6 42 22 5 39 23 7 36 23 7 34 21 6 29 20 5 28 20 5 24 20 6 23 19 5 20 21 5 18 20 4 15 21 5 16 20 4 15 21 5 16 21 5 16 20 4 15 20 4 15 
27 7 16 29 8 17 27 6 15 27 7 16 28 7 16 28 7 16 27 6 15 29 8 17 34 8 17 47 12 16 27 6 15 28 7 16 28 7 16 29 6 14 27 6 15 27 6 15 26 6 17 28 7 16 27 6 15 29 8 17 28 7 16 28 7 16 27 7 18 27 6 15 27 7 16 29 6 16 29 8 17 28 7 16 32 6 15 47 12 16 28 7 16 28 7 16 27 6 15 29 6 16 28 7 16 28 6 18 28 7 16 27 6 15 27 6 15 29 8 17 27 6 15 27 6 15 27 7 16 27 6 15 26 6 17 29 6 16 29 8 17 28 7 16 27 6 15 44 11 18 39 9 17 28 7 16 29 8 17 29 8 17 28 7 16 27 6 15 26 6 15 27 6 15 29 8 17 26 6 15 28 7 16 27 6 15 26 6 15 25 5 14 28 6 19 30 8 21 29 7 20 28 7 26 37 10 29 47 12 32 27 7 32 28 8 35 29 8 39 28 7 40 27 7 44 31 9 55 31 9 56 31 9 55 29 10 56 30 11 56 30 11 56 28 11 55 23 7 43 23 6 42 22 5 39 22 6 35 23 7 34 21 5 31 20 5 28 21 6 25 19 5 22 18 4 19 21 5 18 21 5 16 20 4 15 20 4 15 20 4 15 22 6 17 21 5 16 21 5 16 
26 6 15 25 5 16 26 4 16 25 5 16 26 6 17 27 7 18 27 6 15 26 6 17 31 8 16 46 11 15 26 6 17 28 7 16 26 6 17 28 7 16 25 5 16 27 6 15 23 6 16 26 6 17 27 5 17 26 6 17 28 6 18 26 6 17 25 5 16 26 6 17 26 6 17 27 6 15 26 6 15 26 6 15 30 7 17 44 12 17 26 6 17 27 6 15 25 5 16 27 6 15 26 6 17 26 6 17 26 6 17 26 6 17 26 6 17 27 7 16 26 6 17 25 5 16 26 6 17 26 5 14 26 6 17 26 5 14 27 7 18 28 7 16 26 6 17 43 10 17 36 9 16 25 5 16 26 6 17 27 7 16 28 6 18 24 7 17 26 6 17 25 5 16 27 5 17 26 6 17 26 6 15 26 6 17 26 6 17 24 7 17 24 6 18 27 6 21 27 6 21 25 6 25 34 9 30 46 13 32 27 7 32 28 8 36 28 7 38 28 6 42 25 8 42 29 10 55 29 10 55 29 10 55 28 11 55 29 10 55 29 10 56 26 9 53 23 7 43 23 6 42 23 6 38 22 6 35 21 5 32 20 5 28 21 6 29 20 5 24 19 5 22 20 6 21 21 5 18 21 5 16 21 5 16 20 4 15 21 5 16 20 4 15 22 6 17 21 5 16 
26 6 15 27 7 16 25 5 16 22 7 14 26 6 17 26 6 15 24 7 15 26 5 14 31 8 16 46 11 17 26 6 17 27 7 16 26 6 15 27 7 18 23 6 16 26 6 15 24 7 17 24 7 17 26 6 15 27 6 15 25 5 14 25 5 16 26 6 17 25 5 16 26 4 16 27 6 15 27 5 17 26 6 17 30 7 17 44 12 17 26 6 18 28 6 18 26 6 17 26 5 14 24 7 17 24 7 17 25 5 14 26 6 17 24 7 17 27 7 18 27 7 16 25 5 14 27 5 17 25 5 16 26 6 17 26 6 17 26 6 17 28 6 18 26 6 15 43 11 16 38 8 16 27 7 16 27 6 15 27 7 18 27 7 18 27 5 18 26 6 17 24 7 17 28 7 16 25 5 17 27 6 15 26 6 17 24 4 13 25 5 16 24 6 18 27 6 21 27 6 23 26 5 24 36 9 28 45 12 31 26 6 33 27 7 35 28 7 38 29 8 41 27 7 44 31 9 55 29 10 55 31 9 55 29 10 56 28 9 54 29 10 55 26 9 53 23 7 43 24 7 43 21 4 36 21 5 34 21 5 32 20 4 30 20 5 28 20 5 26 20 6 23 19 5 20 22 5 21 21 5 16 20 4 14 20 4 15 21 5 16 19 3 14 20 4 15 21 5 16 
26 6 15 26 6 15 23 6 16 25 8 18 26 6 17 26 6 17 26 6 17 26 6 17 31 8 16 46 11 17 26 6 17 27 6 15 26 6 15 26 6 15 23 6 14 26 6 15 23 6 16 26 6 17 24 7 17 25 5 16 26 6 17 25 5 16 23 6 16 26 6 17 26 6 17 26 6 15 26 6 17 26 6 15 30 7 17 44 12 17 25 5 16 27 5 17 26 4 16 28 7 16 23 6 16 26 6 15 24 7 17 26 6 17 26 6 17 26 6 17 24 7 17 26 6 17 23 6 16 25 5 16 25 5 16 26 6 15 26 6 15 27 5 18 25 5 16 42 11 17 39 10 15 26 6 17 26 6 17 28 7 16 24 7 17 25 5 16 24 4 15 24 4 15 28 6 18 24 4 16 26 6 15 25 5 16 26 6 17 22 5 15 25 4 19 27 7 19 27 6 21 27 6 25 36 9 28 46 13 32 26 6 33 27 7 34 28 7 38 29 8 41 25 8 42 28 9 54 29 10 55 29 10 55 28 11 53 30 11 56 29 10 55 27 10 54 22 6 42 24 7 43 23 6 38 22 6 35 22 6 33 21 6 29 20 5 28 20 5 24 20 6 23 20 6 21 21 4 20 20 4 15 22 6 17 20 4 15 21 5 16 21 5 16 20 4 15 21 5 16 
27 6 15 27 6 15 25 5 16 25 5 16 26 6 15 28 6 18 27 6 15 26 5 14 34 8 17 46 11 15 25 5 16 27 6 15 26 6 17 27 8 14 25 5 16 26 6 17 26 4 16 26 6 17 26 6 17 26 6 15 27 5 17 25 5 16 25 5 16 25 5 16 26 4 16 26 6 15 28 7 16 26 7 13 28 7 16 46 11 15 26 6 17 27 6 15 26 6 15 27 7 16 26 6 17 26 6 15 23 6 16 26 6 17 25 5 14 26 6 17 26 6 15 26 6 15 23 5 17 26 6 17 25 5 16 26 5 14 26 6 15 27 6 15 27 7 19 43 10 17 38 8 16 27 6 15 27 6 15 26 6 15 27 5 17 25 5 16 26 6 17 25 5 16 27 6 15 23 6 16 27 6 15 25 5 16 26 6 15 25 5 16 27 7 18 27 6 21 29 6 24 28 7 26 37 8 28 49 12 30 27 7 32 27 7 35 28 7 38 28 7 40 27 7 42 29 10 55 29 10 55 29 10 55 28 9 54 29 10 55 30 11 56 27 10 54 22 6 42 24 7 43 22 5 37 23 7 36 23 7 34 22 7 30 20 5 28 20 5 24 20 6 23 20 6 23 20 3 19 19 3 14 21 5 16 21 5 16 19 3 14 20 4 15 21 5 16 21 5 16 
27 6 15 27 6 15 26 6 17 26 6 15 27 6 15 28 7 16 27 6 15 27 6 15 32 6 15 48 12 16 26 6 17 28 7 16 27 6 15 27 6 15 26 6 17 26 6 15 24 7 17 27 6 15 28 6 18 27 7 16 28 7 16 26 7 13 26 6 18 26 6 17 26 6 15 28 7 16 27 6 15 27 5 17 30 7 15 46 11 17 28 6 18 28 7 16 26 6 15 27 6 15 26 6 17 26 7 13 26 6 17 26 6 15 27 7 16 26 6 15 27 6 15 26 6 17 26 6 18 26 6 17 24 4 13 28 7 16 27 6 15 28 7 16 27 6 15 43 10 17 38 9 14 28 7 16 27 6 15 28 7 16 27 6 15 24 7 17 26 6 17 26 5 12 28 5 15 25 5 16 27 6 15 29 8 17 26 6 17 26 6 17 26 6 18 29 7 20 28 7 22 27 6 23 36 9 28 48 14 31 29 6 32 28 8 35 28 7 38 28 7 40 26 6 41 31 9 55 29 10 55 31 9 55 29 10 56 31 9 55 29 10 55 28 11 55 24 7 43 24 7 43 22 5 39 22 6 35 20 4 31 20 6 31 21 6 27 20 5 24 22 5 23 19 5 20 21 5 18 21 5 16 21 5 16 21 5 16 21 5 16 21 5 16 21 5 16 20 4 15 
27 7 16 26 6 15 26 6 17 25 5 16 26 6 18 27 6 15 27 6 15 27 6 15 33 7 16 47 12 16 26 6 17 29 8 17 26 6 15 28 7 16 26 6 17 26 6 17 25 5 16 27 6 15 27 6 15 27 6 13 28 7 16 25 5 16 26 6 17 26 6 15 27 7 18 28 7 16 28 7 16 27 6 15 30 7 17 46 11 17 27 5 17 28 7 16 27 7 16 28 7 16 26 4 16 26 6 15 25 5 16 27 7 16 26 4 16 26 5 14 26 6 15 26 4 16 26 6 17 26 6 17 26 6 15 28 7 16 27 6 15 28 6 18 27 6 15 41 10 16 37 10 15 27 6 15 29 6 16 28 7 16 28 7 16 23 6 16 24 4 15 27 7 16 28 7 16 25 5 17 27 6 15 26 6 17 27 7 18 26 6 17 28 6 19 26 6 18 28 7 22 26 8 24 36 9 28 46 13 30 26 6 31 29 6 35 27 6 37 29 7 43 27 7 44 31 9 55 31 9 55 32 10 56 28 9 55 27 10 54 30 11 56 27 10 54 24 7 43 24 7 43 23 6 40 21 5 34 21 5 32 21 6 29 20 5 26 20 5 24 22 5 23 21 4 20 20 4 17 20 4 15 20 4 15 21 5 16 20 4 15 20 4 15 22 6 17 21 5 16 
28 7 16 27 6 15 26 6 15 26 6 15 27 6 15 27 7 16 28 7 16 27 7 16 33 7 16 47 12 16 28 5 15 29 6 16 27 7 16 28 5 15 26 4 16 26 6 15 26 6 17 27 6 15 27 6 15 27 6 13 27 6 15 25 5 14 26 6 15 27 7 16 28 8 17 28 7 16 28 7 16 28 7 16 31 7 20 44 12 17 26 5 14 27 6 15 26 6 15 29 6 16 25 5 16 26 6 15 25 5 17 27 6 15 25 4 13 27 6 15 26 6 15 27 5 17 25 5 16 24 7 17 25 5 14 28 7 16 27 6 15 28 7 16 26 6 15 42 11 17 39 9 17 28 7 16 27 7 16 27 7 16 28 7 16 26 6 17 27 5 17 26 6 15 28 7 16 26 6 17 29 8 17 26 6 17 26 6 18 24 4 15 27 5 17 28 5 21 27 6 21 26 5 24 37 10 29 47 13 30 29 6 32 28 8 35 27 6 37 28 7 40 26 6 41 31 10 53 29 10 55 31 9 55 28 9 54 31 9 55 29 10 55 27 10 54 22 6 42 25 8 44 21 4 36 22 6 35 22 6 33 22 7 28 21 6 27 22 5 24 22 5 23 20 6 21 21 5 18 20 4 15 20 4 15 21 5 16 19 3 14 20 4 15 20 4 15 21 5 16 
26 6 17 26 6 15 25 5 16 23 6 14 27 5 17 27 6 15 27 6 15 28 7 16 33 7 16 46 11 15 26 4 16 27 6 15 26 6 15 27 6 15 23 6 16 25 5 16 25 8 18 26 6 17 26 6 17 26 6 18 27 7 16 26 6 15 26 6 17 26 6 17 25 5 16 27 6 15 28 7 16 27 6 15 30 7 17 46 11 17 26 6 17 28 7 16 25 5 14 27 6 13 25 5 16 25 5 16 24 7 17 25 5 14 25 5 16 26 6 15 27 6 15 25 5 16 26 6 18 26 6 17 25 5 14 27 6 15 27 7 16 26 5 14 26 6 17 42 11 17 38 8 16 26 6 15 26 6 17 28 7 16 27 5 17 25 5 16 26 6 17 28 8 17 28 7 16 25 5 16 26 6 15 25 5 14 25 5 16 25 5 16 27 7 18 28 6 19 28 7 22 28 7 26 37 10 29 48 14 31 28 5 31 27 7 34 28 7 38 29 7 43 26 6 43 29 10 55 29 10 55 31 9 55 28 8 57 31 9 55 29 10 55 27 10 54 23 7 43 24 7 43 22 5 37 22 6 35 21 5 32 23 5 29 20 5 26 19 4 23 22 5 23 21 4 20 21 5 18 21 5 16 21 5 16 21 5 16 20 4 15 20 4 15 20 4 15 20 4 15 
25 5 14 25 5 16 25 5 16 25 5 16 23 6 14 27 5 17 27 5 17 26 4 16 30 7 15 47 12 18 25 5 17 26 6 17 26 6 15 27 6 13 25 5 16 26 6 17 22 5 15 26 6 17 26 6 17 26 6 17 27 7 16 25 5 16 25 5 16 25 5 14 25 5 16 26 4 16 26 6 17 26 6 17 30 7 17 44 12 17 25 5 16 26 7 13 26 6 18 27 5 17 25 5 16 23 6 16 24 7 17 22 5 15 25 5 16 24 7 17 25 5 17 23 6 16 25 5 16 26 6 17 23 6 16 26 6 17 26 6 17 27 5 17 26 6 17 41 10 16 38 8 18 27 6 15 26 6 17 26 6 15 26 6 17 25 5 16 25 5 16 25 5 14 28 7 16 24 4 15 25 5 16 26 6 17 25 5 16 23 5 17 26 6 18 26 5 20 28 7 22 28 7 26 37 10 29 45 12 29 25 7 33 27 7 35 28 7 38 28 7 40 27 7 42 31 10 53 31 9 55 31 9 55 29 10 55 29 10 55 29 10 55 27 10 54 22 6 42 23 6 42 23 6 40 21 5 34 21 5 32 23 5 31 23 5 27 23 6 25 22 5 23 19 5 20 22 6 19 21 5 16 22 4 16 21 3 15 20 4 15 21 5 16 21 5 16 21 5 16 
26 6 15 26 6 15 25 5 17 25 5 16 26 6 17 27 6 15 27 6 15 27 6 15 33 7 16 47 12 16 25 5 16 27 6 15 26 5 14 28 7 16 26 6 17 26 6 17 24 4 15 26 6 15 26 6 15 25 5 16 26 5 14 25 5 16 23 6 16 24 4 13 26 6 15 27 6 15 27 5 17 26 5 14 29 6 16 46 11 17 25 5 16 27 6 15 26 6 17 27 5 17 26 6 17 23 6 16 25 5 16 25 5 16 25 5 16 26 6 17 25 5 16 26 4 16 26 4 16 25 5 16 25 5 16 26 4 16 26 4 16 27 6 15 26 4 16 41 10 16 38 8 16 26 6 15 26 6 17 27 7 16 26 6 17 23 6 16 23 6 16 26 6 17 27 5 17 25 5 16 26 6 15 26 6 17 25 5 17 25 5 16 27 5 18 28 5 21 27 6 21 28 7 26 36 9 28 46 12 29 28 5 31 29 6 35 28 7 38 29 7 43 26 6 43 30 8 54 29 10 55 31 9 55 28 9 55 31 9 55 27 8 53 27 10 54 22 6 42 23 6 42 24 7 43 21 5 34 21 5 32 21 5 31 22 7 28 21 4 23 22 5 23 19 5 20 21 5 18 21 5 16 20 4 15 20 4 15 21 5 16 21 5 16 20 4 15 22 6 17 
26 7 13 26 6 15 26 6 17 24 7 17 27 7 16 27 5 17 27 7 16 27 6 15 33 7 16 47 12 18 26 6 17 27 6 15 26 6 15 26 6 15 26 6 17 26 6 17 26 6 18 24 7 15 26 6 15 25 5 17 27 6 15 26 6 17 26 6 17 25 5 16 26 6 18 27 5 17 28 6 18 28 7 16 30 7 17 44 12 17 24 4 15 28 7 16 26 6 15 28 7 16 25 5 16 26 6 15 24 7 17 25 5 14 27 7 16 26 6 15 25 5 14 27 5 17 26 6 18 25 5 16 26 6 15 27 6 15 26 5 14 27 6 13 26 5 14 41 10 16 38 9 14 26 6 15 26 6 15 27 6 15 27 6 15 25 5 16 26 6 17 26 6 15 28 7 16 25 5 16 27 6 15 26 6 17 26 6 17 25 5 16 28 8 17 28 6 19 25 7 21 27 6 25 37 10 29 46 12 29 26 6 31 28 8 36 28 7 38 28 9 41 27 7 42 28 10 52 29 10 55 31 9 55 29 10 55 31 9 55 29 10 55 27 10 54 23 6 42 23 6 42 22 5 39 22 6 35 21 5 32 20 5 28 23 5 27 23 6 25 22 5 23 21 4 20 21 5 18 20 4 15 21 3 15 21 3 15 21 5 16 20 4 15 20 4 15 20 4 15 
28 7 16 28 7 16 27 6 15 28 7 16 28 7 16 28 7 16 27 6 15 27 6 15 33 7 16 47 12 16 27 6 15 30 7 15 27 6 15 27 6 15 26 6 15 27 6 15 27 6 15 27 7 16 28 7 16 28 7 16 29 6 16 27 6 15 27 5 17 27 5 17 28 7 16 29 6 16 27 6 13 28 7 16 33 7 16 47 12 18 26 6 15 28 7 14 27 6 15 29 6 16 27 5 17 27 6 15 25 5 16 27 6 15 27 6 15 28 7 16 27 6 15 27 6 15 27 5 17 27 6 15 28 7 16 28 7 14 28 7 16 29 6 16 28 7 16 43 10 17 40 9 15 28 7 16 27 6 15 28 7 16 28 7 14 27 5 17 27 6 15 28 7 16 30 7 17 26 6 15 29 6 16 27 6 15 28 7 16 27 5 17 28 6 18 29 7 20 29 6 22 29 6 26 38 9 27 47 13 30 29 6 32 29 6 35 28 7 38 28 7 40 26 6 43 31 9 55 31 9 55 31 9 55 28 9 55 29 10 55 30 11 56 26 9 53 24 7 43 24 7 43 22 5 37 22 6 35 21 5 32 20 6 29 21 6 27 22 5 24 22 5 23 21 4 20 21 5 18 21 5 16 22 4 16 21 5 16 21 5 16 20 4 15 21 5 16 21 5 16 
27 7 16 28 7 16 27 5 17 25 8 18 28 7 16 29 8 17 28 7 16 27 6 15 33 7 16 49 13 17 28 7 16 29 6 16 27 6 15 29 8 17 25 5 16 26 6 15 26 6 15 27 7 18 27 6 15 28 6 18 27 6 15 28 7 16 25 5 16 27 7 18 27 6 15 26 5 14 28 7 16 27 6 15 32 9 17 46 11 15 27 6 15 27 5 17 27 5 17 29 6 16 25 5 14 28 5 15 25 5 14 26 5 14 27 6 15 29 6 16 27 6 15 27 6 15 24 7 15 26 6 15 26 6 17 28 7 16 27 6 15 29 8 17 26 9 17 41 8 15 38 9 14 28 7 16 28 7 16 28 7 16 27 6 15 26 6 17 26 6 17 26 6 15 28 7 16 26 6 17 28 7 16 27 6 15 27 5 17 27 6 15 28 6 18 28 5 21 29 7 20 28 7 24 36 9 28 46 12 29 27 7 32 30 7 35 28 7 38 28 7 40 26 6 43 30 9 52 31 10 53 32 10 56 29 10 55 31 9 55 29 10 55 28 9 54 24 7 43 23 6 42 23 6 38 22 6 35 21 5 31 21 6 29 21 6 27 21 6 25 21 4 22 21 4 20 21 5 18 19 3 14 21 3 15 21 5 16 21 3 15 21 5 16 20 4 15 22 4 16 
29 6 16 28 7 16 27 6 15 26 6 15 28 7 16 30 9 18 27 7 16 29 8 17 34 7 16 49 10 15 27 6 15 27 6 15 27 6 15 28 8 17 27 7 16 27 6 15 26 6 15 28 7 16 28 7 16 28 7 16 28 5 15 27 6 15 25 5 14 27 6 15 28 8 17 28 7 16 27 5 17 29 6 16 33 7 16 47 12 16 28 7 16 27 6 15 27 7 16 30 7 17 27 6 15 26 5 14 27 6 15 28 7 16 27 5 17 28 7 16 27 6 15 27 6 15 27 7 18 26 6 15 26 6 17 30 7 17 27 6 15 28 7 16 27 6 15 42 10 15 40 9 15 28 7 16 28 7 16 28 7 16 28 7 16 27 5 17 26 6 15 27 6 15 29 6 16 25 5 17 28 7 16 27 6 15 26 6 15 26 6 15 28 6 18 29 6 22 28 7 22 30 7 27 36 9 26 47 13 29 30 7 33 27 7 34 28 7 38 29 8 41 26 6 43 30 8 54 32 10 56 32 11 54 30 11 56 29 11 53 30 11 56 29 10 56 23 6 40 23 6 42 23 6 38 22 6 35 21 5 32 21 6 29 22 7 28 21 4 23 22 5 23 19 5 20 22 6 19 20 4 15 21 5 16 21 5 16 21 5 16 20 4 15 21 3 15 20 4 15 
28 5 15 29 8 17 27 6 15 28 7 16 28 5 15 29 6 14 30 7 15 29 8 15 34 8 17 47 12 16 28 7 16 27 6 13 28 7 16 28 7 16 26 6 15 23 6 14 27 7 16 28 7 16 27 6 15 27 6 15 29 6 16 27 6 15 27 6 15 26 6 17 26 6 15 27 6 15 27 6 15 28 5 15 32 6 15 44 11 18 27 6 15 29 8 15 27 6 15 30 7 15 26 6 15 26 6 15 26 6 15 26 6 17 26 6 15 28 7 16 28 5 15 28 7 16 24 4 13 28 7 16 28 7 16 29 5 18 28 7 16 28 7 16 28 6 18 43 10 17 39 10 15 28 5 15 29 6 16 28 7 16 29 6 16 27 6 15 27 6 15 27 6 15 28 5 13 28 7 16 29 6 14 28 7 14 27 6 15 28 7 16 29 5 18 31 7 20 28 6 19 28 7 26 39 10 28 45 12 31 29 6 32 30 7 36 28 7 38 28 7 40 27 7 42 31 10 53 29 10 55 31 10 53 29 10 56 29 10 55 29 10 55 29 10 55 24 7 41 23 6 40 23 6 38 22 6 35 22 6 33 20 5 28 20 5 26 21 4 23 22 5 23 21 4 20 21 5 18 20 4 15 20 4 15 21 5 16 21 5 16 21 3 15 21 5 16 20 4 15 
51 12 15 49 13 17 49 13 17 50 14 18 50 14 18 52 13 16 51 12 15 50 14 16 51 12 15 55 15 15 49 13 15 50 14 16 49 13 15 50 14 16 48 12 16 49 13 15 47 12 16 49 13 15 51 12 17 50 14 18 51 12 13 48 12 16 48 12 16 48 13 17 48 11 18 49 13 17 49 13 15 51 12 17 49 13 17 54 15 16 47 12 16 49 13 15 48 13 17 49 13 17 48 13 17 48 12 16 50 14 18 47 12 16 47 12 16 48 13 17 50 14 18 49 13 17 47 11 15 48 12 16 48 13 17 49 13 15 49 13 15 50 14 16 48 12 16 54 14 15 52 13 16 50 14 18 49 13 15 48 13 17 49 14 18 48 12 16 49 13 15 48 13 17 50 14 16 49 13 17 49 13 15 49 13 17 49 13 15 49 13 15 50 14 18 50 13 20 52 12 20 50 14 28 53 15 28 55 14 28 48 14 31 51 13 36 51 13 36 49 14 36 49 14 36 35 9 54 32 11 54 29 11 53 29 10 55 29 11 53 29 10 55 28 10 52 24 7 43 23 6 40 23 6 38 23 7 36 22 6 33 21 6 29 22 4 26 21 6 25 21 4 22 22 5 21 21 5 18 22 6 17 22 4 16 20 4 15 20 4 15 22 4 16 20 4 15 20 4 15 
33 8 14 29 6 14 31 5 14 29 6 14 30 7 15 32 6 15 30 7 15 31 8 18 35 8 15 48 12 16 29 6 14 33 8 14 31 5 14 32 6 15 28 7 16 29 8 17 29 8 17 30 7 15 29 6 14 30 7 17 31 5 14 30 9 18 30 7 17 27 8 14 30 4 13 31 8 16 29 6 16 32 6 17 34 8 17 45 13 16 27 6 11 30 7 13 29 6 14 30 7 15 29 8 15 28 8 17 28 7 14 28 7 14 29 6 14 30 7 15 29 6 16 28 7 16 28 7 16 29 8 17 28 7 16 32 6 15 29 6 14 30 7 15 28 8 17 40 9 14 39 10 14 29 6 14 30 7 17 29 6 16 29 6 14 28 7 16 29 6 16 29 6 14 32 7 13 28 6 18 32 7 13 30 7 15 29 6 14 29 6 16 30 7 17 31 7 20 32 8 21 32 7 26 39 10 28 49 12 30 30 8 31 36 7 35 35 9 38 32 9 38 31 7 41 31 9 55 31 9 55 31 10 53 29 10 55 32 11 54 29 10 55 28 9 54 23 6 42 24 7 43 23 6 38 23 7 36 21 5 32 21 5 31 22 4 26 21 6 25 22 5 23 20 3 19 21 5 18 21 5 16 21 3 15 20 4 15 20 4 15 21 5 16 22 4 16 21 3 15 
29 8 15 28 7 16 25 5 14 27 6 15 27 6 15 27 6 15 27 6 15 29 8 17 34 7 16 48 11 18 27 6 15 29 6 16 28 7 16 27 6 15 26 6 15 27 6 15 26 6 15 27 6 15 28 7 16 28 7 16 27 6 15 26 6 15 26 5 14 24 7 15 27 5 17 27 6 15 27 6 15 28 7 16 32 7 13 45 13 16 27 6 15 29 6 16 27 5 17 28 7 16 26 5 14 27 6 15 27 6 15 27 6 15 27 6 15 27 6 15 28 7 16 27 7 16 26 6 15 28 7 16 28 8 17 28 6 18 28 7 16 29 6 16 27 6 15 40 9 15 38 8 16 28 7 16 29 6 14 28 7 14 27 6 15 27 6 15 27 6 15 28 7 16 30 9 18 26 4 16 28 7 16 28 7 16 27 7 16 26 5 14 27 6 15 29 7 20 28 7 22 28 5 23 37 10 29 49 12 30 27 7 32 30 7 35 28 7 38 29 8 41 27 6 39 30 8 54 31 10 53 31 9 55 30 8 54 32 11 54 29 10 55 28 9 54 23 6 42 24 7 43 22 5 37 22 6 35 22 6 33 21 6 29 23 5 27 22 5 24 23 6 24 21 4 20 20 4 17 20 4 15 20 4 15 22 4 16 22 4 16 21 5 16 21 5 16 21 5 16 
29 6 14 28 7 16 25 5 14 28 6 18 28 7 16 28 7 16 27 6 15 27 6 15 32 6 15 48 12 16 27 5 17 28 5 15 27 6 15 29 6 16 26 6 15 27 6 15 26 6 15 28 7 16 28 7 16 25 5 14 27 6 15 27 6 15 27 5 17 25 5 16 27 6 15 28 5 15 28 5 15 28 7 16 33 8 14 47 12 16 26 6 15 28 7 16 28 5 15 28 7 16 26 6 15 26 6 15 26 6 15 27 7 16 25 5 14 28 7 16 28 7 16 27 6 15 23 6 16 25 5 14 25 5 14 28 7 16 27 6 15 27 7 16 24 7 15 40 9 15 39 8 14 28 7 16 28 7 16 27 6 15 28 7 16 28 4 17 24 4 15 26 6 15 29 6 14 26 6 15 27 6 13 27 6 15 27 6 15 25 5 16 29 7 20 27 7 19 29 6 22 28 7 24 37 10 29 45 12 29 29 6 32 29 6 34 29 9 37 28 7 40 26 6 41 30 9 52 31 9 55 31 9 56 31 10 53 31 9 55 28 9 54 28 9 54 24 7 43 23 6 40 22 5 37 21 5 34 22 6 32 21 6 29 23 5 27 23 6 25 21 4 22 22 5 21 21 3 17 20 4 15 20 4 15 22 4 16 21 5 16 20 4 15 21 3 15 22 4 16 
29 6 16 27 6 15 28 7 16 27 6 15 28 7 16 29 6 16 28 7 16 28 7 16 34 7 16 47 12 16 29 6 16 29 8 17 27 6 15 28 7 14 25 5 14 27 6 15 26 6 15 28 7 16 28 7 14 27 7 16 28 7 16 27 6 15 28 5 15 28 7 14 26 6 17 31 7 20 28 7 16 29 6 14 31 5 14 46 11 15 27 6 15 29 6 16 28 5 15 29 6 14 27 6 15 26 5 14 27 6 15 27 6 15 25 5 14 28 7 16 26 5 14 28 7 16 26 6 15 28 7 16 27 6 15 28 5 15 28 7 16 27 6 15 27 6 15 40 9 15 39 10 15 28 7 16 28 7 16 29 6 16 28 7 16 28 6 18 26 5 14 27 6 15 28 7 16 26 6 15 28 7 16 28 7 16 27 6 15 27 5 17 28 8 19 29 7 20 28 8 20 28 7 26 37 10 29 47 14 31 29 6 32 30 7 35 29 8 39 29 8 41 28 7 40 30 9 52 32 9 53 31 9 55 29 10 55 29 11 53 28 9 54 27 8 53 24 7 43 23 6 42 22 5 37 22 5 37 22 6 32 21 6 29 23 5 27 21 6 25 21 4 22 21 4 20 21 5 18 21 5 16 21 3 15 21 3 15 20 4 15 20 2 14 22 6 17 21 5 16 
28 7 16 27 6 15 26 6 15 26 6 15 27 6 15 27 6 15 27 6 15 26 5 14 31 8 16 47 12 16 26 5 14 26 5 14 27 6 15 29 6 16 27 5 17 27 5 17 25 5 16 27 6 13 28 7 16 26 5 14 28 7 16 26 5 14 27 5 17 25 5 14 27 6 15 28 7 16 28 7 16 26 4 16 32 6 15 46 11 17 27 6 15 29 8 17 27 6 15 28 7 16 26 6 17 26 6 15 25 5 14 26 6 15 26 6 15 28 7 16 26 6 15 26 6 17 25 5 16 27 5 17 25 5 16 27 6 15 27 6 13 27 6 15 26 6 15 39 8 14 38 9 14 28 7 16 27 6 15 27 6 15 27 6 15 25 5 16 27 6 15 27 6 15 28 7 16 27 5 17 27 6 15 26 5 14 26 6 15 25 5 16 27 3 17 28 6 19 28 7 22 27 6 25 36 9 26 47 12 32 30 7 33 30 7 35 28 8 36 29 8 41 26 6 41 31 9 55 31 9 55 31 10 53 29 10 55 31 9 55 29 10 55 27 8 53 23 6 42 23 6 40 23 6 38 22 6 35 22 6 33 21 6 29 23 5 27 23 6 25 22 5 23 22 5 21 22 4 18 21 5 16 22 4 16 21 3 15 21 5 16 20 4 15 19 3 14 21 5 16 
27 6 15 26 5 14 26 6 17 25 5 16 26 5 14 27 6 15 26 6 15 26 6 15 32 6 15 47 13 14 26 5 14 28 7 16 27 6 15 26 6 15 25 5 16 25 5 14 25 5 16 27 5 17 25 5 16 26 6 17 26 6 15 25 5 14 23 6 16 25 5 16 27 7 16 27 6 15 26 6 15 27 6 15 30 7 15 44 12 17 26 6 15 27 6 15 25 4 13 27 6 15 26 6 18 25 5 14 25 5 16 25 5 17 25 5 14 27 6 15 26 6 15 25 5 16 25 5 16 25 5 16 25 5 16 26 6 15 26 7 13 26 6 15 25 5 16 39 10 15 37 7 15 26 6 15 26 6 15 26 6 15 24 7 15 24 4 15 25 5 14 25 5 14 28 7 16 25 5 16 27 6 15 25 5 14 25 5 16 26 6 17 27 7 18 28 6 19 27 6 21 27 6 25 37 10 29 46 12 29 26 6 31 28 8 35 28 7 38 28 7 40 27 7 42 31 9 55 31 9 55 32 11 54 28 9 54 31 9 55 28 9 54 27 8 53 23 6 42 24 7 41 22 5 37 22 6 33 23 7 33 21 6 29 22 4 26 20 5 24 21 4 22 21 4 20 22 6 19 21 5 16 21 5 16 23 3 15 21 3 15 22 4 16 21 3 15 21 3 15 
26 6 15 27 5 17 26 6 18 25 5 16 26 4 16 28 7 16 25 5 14 27 6 15 32 6 17 46 11 15 25 5 14 27 6 13 26 5 14 27 6 15 23 3 12 25 5 14 25 5 16 27 5 17 26 6 17 25 5 16 25 5 14 25 5 14 25 5 16 25 5 14 26 6 15 26 5 14 25 5 14 25 4 13 29 6 14 44 12 17 25 5 17 27 6 15 25 5 14 27 5 17 25 5 16 26 6 17 25 5 14 26 6 15 25 5 17 27 6 15 25 5 14 25 5 16 24 4 15 25 5 16 25 5 16 27 6 15 27 6 15 27 6 15 26 6 17 39 10 15 37 7 15 26 6 15 26 6 15 26 6 17 26 7 13 26 6 17 25 5 14 24 4 13 27 6 15 26 6 17 27 6 15 26 6 15 25 5 16 25 5 16 26 6 18 27 7 19 28 7 22 27 6 25 37 8 26 45 12 31 26 6 31 26 6 33 28 7 38 28 7 40 26 6 41 30 8 54 30 8 54 31 10 53 28 9 54 31 9 55 28 9 54 27 8 53 24 7 43 23 6 40 22 6 35 22 6 35 22 6 33 22 7 30 23 5 27 21 6 25 21 4 22 21 4 20 21 5 18 20 4 15 21 3 15 22 4 16 20 4 15 20 4 15 20 4 14 20 4 14 
27 6 15 25 3 15 25 5 16 25 5 16 27 5 17 28 7 16 27 6 15 28 7 16 34 8 17 47 12 16 26 5 14 27 6 15 27 6 15 28 7 16 25 5 16 26 6 15 26 6 17 26 6 15 27 7 18 26 6 17 27 7 16 25 5 14 26 6 17 26 6 15 26 6 15 27 6 15 27 6 15 27 6 13 32 6 15 46 11 17 27 5 17 27 7 16 26 6 15 27 6 15 26 6 17 27 7 16 26 6 17 25 5 14 25 5 14 26 4 16 26 6 15 25 5 16 27 5 17 25 5 16 26 6 17 25 5 14 27 6 15 27 6 15 26 6 15 40 9 15 37 7 15 26 6 15 26 5 14 27 6 15 26 6 15 25 5 16 25 5 14 25 5 14 27 6 15 25 5 14 28 7 16 26 6 15 25 5 16 26 6 17 27 5 17 28 6 19 28 7 22 27 6 25 36 9 28 49 12 30 29 6 32 27 7 34 30 6 38 30 6 40 27 7 42 31 10 53 31 9 55 31 10 53 30 8 54 31 9 55 29 10 55 28 10 52 23 6 42 24 7 41 23 6 38 22 6 35 21 5 32 20 5 28 24 6 28 23 6 25 21 4 22 21 3 19 20 4 17 21 5 16 21 3 15 21 3 15 20 4 15 20 4 15 20 4 14 20 4 14 
27 6 13 28 7 16 26 5 14 25 4 13 27 6 15 28 7 16 28 7 16 28 7 16 34 9 15 48 13 17 26 6 15 28 7 14 28 7 16 29 8 17 27 6 15 27 5 17 27 7 16 27 6 15 29 6 16 26 6 15 29 6 16 27 6 15 25 5 14 24 7 15 27 5 17 29 6 16 28 7 14 28 7 16 30 7 15 46 12 13 27 6 15 28 7 16 28 7 16 29 6 14 27 6 13 28 7 16 26 5 14 27 6 15 27 6 15 29 6 16 27 6 15 26 6 17 26 6 15 27 6 15 26 6 15 29 8 15 28 7 16 28 7 16 27 6 15 40 9 15 39 10 15 28 7 16 28 7 16 27 7 16 27 6 15 26 6 15 26 5 14 29 8 17 28 7 14 27 5 17 27 6 13 27 6 15 26 6 15 26 6 15 28 6 18 29 7 20 30 8 21 29 6 24 37 8 26 47 13 30 28 5 31 29 6 34 28 7 38 29 8 41 27 7 42 30 9 52 30 8 54 31 10 53 29 10 55 32 10 56 29 10 55 27 8 53 23 6 42 23 6 40 22 6 35 23 7 36 21 5 31 22 7 30 21 3 25 22 5 24 21 4 22 21 4 20 21 5 18 24 4 16 20 4 15 21 3 15 21 4 14 22 5 15 21 3 15 21 3 15 
27 6 15 27 6 15 25 5 14 25 5 14 27 6 15 27 6 15 28 7 16 28 7 16 32 5 14 46 11 15 26 6 17 27 6 15 27 6 15 28 7 16 23 6 16 26 6 17 25 5 14 26 6 15 26 6 15 26 6 17 25 5 14 25 5 14 23 6 16 25 5 16 25 5 14 27 6 15 27 6 15 27 6 15 29 6 14 43 11 14 26 6 15 27 6 15 26 6 15 27 6 15 25 5 16 25 5 14 25 5 16 25 5 16 25 5 14 27 6 15 25 5 14 25 5 16 25 5 16 25 5 16 25 5 16 26 6 15 26 5 14 28 5 15 25 5 14 40 9 17 38 8 16 26 6 15 29 8 15 25 5 14 26 6 15 25 5 16 25 5 16 25 5 16 27 6 15 25 5 16 27 6 15 26 5 14 25 5 16 25 5 16 26 6 17 29 7 20 28 7 22 27 5 26 35 8 25 46 11 31 26 6 31 27 7 34 28 7 38 28 7 40 27 7 42 31 10 53 31 9 55 31 10 53 28 9 54 31 10 53 28 9 54 29 10 55 24 7 43 24 7 41 23 6 38 21 5 34 22 6 33 21 6 29 20 5 26 23 4 24 21 4 22 21 4 20 22 6 19 21 5 16 21 3 15 21 3 15 22 5 15 22 5 15 21 3 15 19 3 14 
27 6 15 28 7 16 27 6 15 27 6 15 29 6 16 29 6 14 29 6 14 29 6 14 33 8 14 48 14 15 27 6 15 29 6 14 29 6 16 27 6 15 26 6 15 26 5 14 28 6 18 27 6 15 28 7 14 27 6 15 28 7 16 28 7 16 27 5 17 27 6 15 27 6 15 29 8 17 29 6 16 29 6 16 34 9 15 47 12 16 28 7 16 29 6 14 28 7 16 30 7 17 27 6 15 27 6 15 26 5 14 27 6 15 26 5 14 29 6 16 27 4 14 27 6 15 27 6 15 27 6 15 27 6 13 28 7 14 28 5 15 29 6 16 28 7 16 41 10 15 39 8 14 27 6 13 29 8 15 29 8 17 28 7 14 26 6 15 27 6 15 29 8 17 30 7 17 26 5 14 29 6 16 28 7 16 27 6 15 27 6 15 28 6 18 29 7 20 28 8 20 29 8 25 39 10 30 47 13 30 28 5 31 27 7 32 30 6 38 31 7 41 26 6 41 31 10 53 31 9 55 31 10 53 31 9 55 32 9 53 29 10 55 28 9 54 24 7 41 24 7 41 22 5 37 22 6 35 22 6 33 21 6 29 23 5 27 23 6 25 22 5 23 20 4 17 21 5 18 20 4 14 21 5 15 21 4 14 20 4 14 20 4 14 21 5 15 20 4 14 
26 6 15 27 6 15 25 5 16 25 5 16 27 6 15 28 7 16 26 6 15 27 6 15 31 8 16 44 12 15 25 5 14 27 6 13 28 7 16 27 6 15 25 5 14 26 5 14 25 5 14 26 5 14 28 7 16 25 5 14 27 6 13 26 5 14 26 6 17 25 5 16 27 6 15 26 5 14 27 6 15 27 6 15 30 7 15 47 10 17 26 6 15 27 6 15 26 6 17 27 6 15 25 5 14 25 5 14 25 5 16 26 6 15 26 6 15 28 7 16 27 6 15 24 7 15 25 5 16 27 7 18 25 5 14 25 8 16 25 4 13 27 6 15 27 6 15 40 9 15 38 8 16 26 6 15 27 6 15 26 6 17 26 6 15 26 6 17 25 5 14 25 5 14 27 6 15 25 5 14 28 7 16 26 6 15 25 5 16 25 5 14 27 5 17 28 6 19 27 6 21 28 7 26 36 9 26 46 12 29 28 5 31 29 6 34 28 7 38 28 7 40 26 6 41 30 9 52 30 8 54 31 10 53 28 9 54 31 10 53 29 10 55 28 9 54 24 7 43 23 6 40 23 6 38 21 5 34 20 4 31 21 6 29 22 4 26 22 5 24 22 3 22 22 6 19 21 5 18 22 5 15 22 5 15 21 4 14 21 5 15 22 6 16 20 4 14 20 4 14 
27 6 15 27 6 15 25 4 13 25 5 14 27 6 15 27 6 15 27 7 16 26 5 14 34 7 16 46 11 15 26 6 15 27 6 15 27 6 15 28 7 16 25 5 16 25 5 14 23 6 16 27 6 15 25 5 14 26 6 15 27 6 15 25 5 16 25 5 17 26 5 14 25 5 14 26 6 15 26 5 14 27 6 15 30 7 15 46 11 15 26 6 15 28 7 14 26 5 14 27 6 15 25 5 16 25 5 14 24 4 13 26 7 13 26 6 17 25 5 14 25 5 14 24 4 13 23 6 16 25 5 16 25 5 14 26 6 15 26 6 17 27 6 15 26 6 17 41 10 15 36 9 16 27 5 17 27 6 15 28 7 16 26 6 15 25 5 16 25 5 14 25 5 16 27 6 15 25 5 16 26 6 15 26 6 15 27 7 18 25 5 16 26 6 17 27 7 19 27 6 23 28 4 26 36 9 26 46 13 32 27 7 32 29 6 35 28 7 38 28 7 40 26 6 41 30 9 52 31 10 53 31 10 53 29 10 55 29 11 53 29 11 53 26 8 50 26 6 43 23 6 40 22 5 37 23 4 32 24 6 32 23 5 29 22 4 26 23 6 25 22 5 23 22 6 19 21 5 18 20 4 15 22 4 16 23 3 14 21 4 14 22 5 15 21 4 14 21 4 14 
27 7 16 28 7 16 25 5 14 23 6 14 26 5 14 26 5 14 27 7 16 27 6 15 32 6 15 46 12 13 26 6 17 27 4 14 25 5 14 27 6 13 25 5 16 25 5 16 25 5 16 27 7 16 26 6 15 26 6 15 26 6 15 26 6 17 25 5 16 25 5 14 25 5 14 26 6 15 27 6 15 27 6 15 30 7 15 44 12 17 26 6 15 26 5 14 27 6 15 27 6 13 25 5 16 25 5 16 25 5 16 26 6 15 25 5 16 27 6 13 24 4 13 25 5 17 24 4 15 25 5 14 25 5 16 27 6 15 26 5 14 27 6 15 26 6 15 39 10 15 36 9 16 26 6 15 26 6 15 27 6 15 26 5 14 25 5 16 25 5 14 25 5 16 27 6 15 24 4 15 28 5 15 26 5 14 25 5 16 25 5 16 26 6 17 28 5 21 28 7 22 27 6 25 35 8 25 46 12 29 27 7 34 27 7 34 28 8 36 27 8 40 27 7 42 30 9 52 30 9 52 28 9 54 30 9 52 30 9 52 31 10 53 28 10 52 24 7 43 23 6 40 22 5 37 22 6 33 21 5 31 21 6 29 20 7 27 22 5 23 22 6 19 22 4 18 20 4 17 21 3 15 21 5 15 20 4 14 21 4 14 23 6 16 20 3 13 21 4 14 
28 7 14 27 6 13 26 6 15 27 6 15 26 6 15 28 7 14 30 7 15 28 7 14 33 7 18 46 12 13 27 7 16 29 6 14 27 6 15 28 7 16 26 6 15 24 4 13 25 5 14 28 7 16 27 6 15 27 6 15 28 7 16 26 6 15 27 5 17 27 6 15 27 6 15 29 6 14 28 7 16 29 6 16 32 7 13 46 11 17 26 7 13 28 7 16 27 6 15 27 6 13 27 7 16 25 5 14 26 6 15 27 6 15 27 7 16 27 6 13 25 5 14 26 5 14 25 5 14 26 6 15 25 5 14 28 7 16 28 5 15 28 7 16 26 6 15 39 8 14 38 8 16 29 8 17 28 7 16 28 7 16 27 6 13 25 5 14 25 5 14 26 6 15 29 8 17 26 6 15 28 7 16 28 7 16 27 6 15 25 5 16 27 7 18 28 8 20 28 5 21 28 7 24 36 7 25 49 10 29 29 6 32 32 7 36 30 7 36 31 7 41 27 7 42 30 9 52 31 10 53 32 9 55 30 9 52 31 8 52 30 9 52 27 9 51 22 6 42 23 6 40 23 6 38 23 7 34 23 5 31 21 6 29 23 5 27 22 5 24 22 5 23 18 4 17 20 4 17 20 4 15 21 4 14 21 4 14 21 4 14 21 4 14 21 4 14 21 4 14 
27 6 13 28 5 15 26 5 14 27 6 15 29 6 16 29 6 16 28 7 16 29 6 16 35 8 15 47 12 16 26 5 14 28 7 16 27 6 15 29 6 14 27 6 15 28 5 13 25 5 14 28 7 16 27 6 15 27 6 15 27 6 15 27 6 15 27 6 15 27 6 15 28 7 16 29 6 16 26 5 14 27 6 15 32 6 15 47 12 16 28 7 16 29 8 15 27 6 15 28 7 16 27 6 15 28 7 16 27 6 15 27 6 15 27 6 15 28 7 16 28 7 16 26 6 15 26 6 15 26 6 15 26 6 15 27 6 15 28 7 16 29 6 14 26 7 13 41 10 16 38 9 14 28 5 13 28 7 16 27 6 15 27 6 13 26 5 14 28 7 16 26 5 14 28 7 14 24 4 13 27 4 14 27 6 15 26 5 14 28 7 16 27 7 18 29 5 19 30 8 21 27 6 23 34 10 26 46 12 29 29 6 32 29 7 30 30 6 38 30 6 38 27 7 42 30 9 52 29 11 53 32 9 53 30 9 52 31 8 50 28 11 53 27 9 51 24 7 43 22 7 40 24 7 39 24 5 33 24 6 32 21 6 29 23 5 27 22 5 24 21 4 22 21 4 20 20 4 17 20 4 15 22 4 18 22 5 15 22 5 15 21 4 14 21 4 14 22 5 15 
28 7 14 29 8 17 27 6 15 27 6 15 28 7 16 28 7 14 28 7 14 28 7 16 33 7 16 47 13 14 27 6 15 28 7 14 30 7 17 29 6 14 26 4 16 27 6 13 25 5 14 27 6 15 27 6 15 28 7 16 28 7 16 28 7 16 28 7 16 28 7 16 29 6 16 28 7 16 30 7 17 27 6 15 33 8 14 46 11 15 27 4 12 29 8 15 28 7 16 29 6 16 28 7 16 28 7 16 26 5 14 28 7 16 27 6 15 27 6 15 26 5 14 28 7 16 25 5 14 27 6 15 27 6 15 28 7 16 27 6 15 29 6 14 27 6 15 41 10 15 37 8 13 26 6 15 29 6 16 28 7 16 27 6 15 27 6 15 27 6 15 28 7 16 29 6 14 28 7 16 29 6 16 28 7 16 27 6 15 26 5 14 26 6 17 30 8 21 29 7 20 28 5 23 37 9 24 48 11 29 30 6 30 31 5 32 30 7 36 31 7 39 27 8 40 31 10 53 31 10 53 30 9 52 31 10 53 31 10 53 31 10 53 27 9 51 23 6 42 25 5 40 22 5 37 22 6 33 24 4 31 23 5 29 20 5 26 22 5 23 22 5 21 21 5 18 23 7 20 21 3 15 20 4 14 21 5 15 21 4 14 22 5 15 21 4 14 21 4 14 
28 7 14 28 7 16 27 6 15 23 6 14 28 5 15 29 6 16 27 6 15 28 5 15 35 8 17 48 13 17 27 6 15 28 7 16 27 6 13 29 6 16 26 4 16 27 6 13 25 5 16 26 5 14 27 6 15 28 7 16 28 7 16 27 6 15 26 6 15 27 6 15 27 6 15 27 6 15 27 6 15 27 6 15 31 8 16 47 11 15 27 6 15 27 6 13 28 7 16 29 6 16 27 6 15 26 5 14 27 6 15 27 6 15 26 5 14 26 5 14 27 6 15 26 5 14 26 6 15 27 6 15 27 5 17 28 5 15 28 7 16 27 6 15 27 6 15 42 9 16 38 9 14 28 7 16 26 5 14 28 5 15 27 6 15 26 5 14 27 6 15 28 5 15 28 5 15 26 6 15 27 6 15 27 6 15 26 5 14 26 4 16 27 5 18 29 7 20 28 6 19 28 7 24 37 9 24 46 12 29 29 6 32 27 7 34 29 6 35 29 8 39 27 7 42 30 9 52 31 10 53 31 10 53 30 8 54 29 11 53 29 11 53 28 10 52 23 6 42 23 6 40 22 5 37 22 6 33 21 5 31 21 6 29 23 5 27 23 6 25 23 6 24 20 6 19 21 5 18 21 5 16 21 4 14 22 5 15 22 5 15 21 4 14 20 3 13 22 5 15 
33 7 16 33 7 16 30 7 15 30 7 15 33 7 16 34 8 17 34 8 17 32 6 17 37 7 15 47 12 16 29 6 14 33 8 14 33 8 14 33 7 16 30 7 15 29 6 14 29 6 16 32 6 15 30 7 13 33 7 16 32 6 15 31 8 16 30 7 15 30 7 15 30 7 15 35 8 15 33 7 16 33 8 14 34 9 15 48 12 16 30 7 15 33 8 14 33 7 16 34 8 17 30 7 15 30 7 15 30 7 15 30 7 15 29 6 14 32 6 15 30 7 15 30 7 15 30 7 15 30 7 15 31 8 16 32 7 13 33 7 16 33 8 14 30 7 15 41 10 15 41 10 15 31 8 16 34 8 17 30 9 16 33 7 16 29 8 15 30 7 15 30 7 15 33 8 14 30 7 15 33 7 16 29 6 14 30 7 15 29 6 14 33 7 18 32 8 21 32 8 21 31 7 23 38 10 24 50 13 30 32 8 32 34 8 35 33 8 37 33 8 38 33 8 38 30 9 52 29 11 53 31 10 53 29 11 53 31 10 53 30 9 52 27 9 51 23 6 42 23 6 40 22 5 37 22 6 33 23 5 31 23 5 29 23 5 27 23 6 25 23 6 24 21 4 22 22 6 19 20 4 15 21 3 17 22 4 16 22 5 15 21 4 14 22 5 15 21 4 14 
46 12 13 47 11 15 46 11 15 46 11 15 47 12 16 47 12 16 46 11 15 47 12 16 49 13 17 54 14 15 46 11 15 47 11 15 47 11 15 47 12 16 45 10 14 46 11 15 44 12 17 44 12 15 46 11 15 46 11 15 46 11 15 46 11 15 46 11 15 46 11 15 47 12 16 47 13 14 47 11 13 47 12 16 51 10 16 55 15 15 46 11 17 46 11 15 47 11 15 47 11 15 46 12 13 46 12 13 46 11 15 46 11 15 46 11 15 48 12 16 46 11 15 46 11 15 44 12 15 44 12 15 46 11 17 47 11 15 47 11 15 47 11 15 47 12 18 52 13 16 51 12 13 47 12 16 47 12 16 47 12 16 47 11 15 46 11 15 45 10 14 46 11 15 46 11 15 44 12 15 46 11 15 46 11 15 45 10 14 46 11 17 46 11 17 47 12 18 45 12 23 46 12 26 49 13 25 53 15 28 46 11 31 48 13 35 47 12 36 46 12 36 45 11 35 32 9 51 31 10 53 31 10 53 30 8 54 29 11 53 31 10 53 27 9 51 24 7 43 24 7 41 22 5 37 24 5 33 24 6 32 21 6 29 22 7 28 23 6 25 21 4 22 22 6 19 21 5 18 20 4 15 21 5 15 22 5 15 21 4 14 21 4 14 22 5 15 21 4 14 
28 7 16 28 7 16 26 5 14 28 7 16 27 6 13 28 5 13 27 6 15 28 7 16 31 5 14 46 11 17 26 6 15 27 6 15 26 6 15 27 6 13 26 5 14 26 6 15 26 5 14 26 5 14 27 6 15 26 6 15 27 6 15 26 6 15 26 6 15 25 5 14 27 6 15 28 7 16 27 6 15 27 6 15 33 8 14 46 11 17 26 5 14 27 6 13 27 6 15 28 5 15 26 6 15 29 8 17 24 7 15 26 5 14 26 5 14 27 6 15 27 6 15 26 5 14 25 5 14 26 6 15 25 5 14 27 6 15 27 6 15 28 7 16 26 5 14 40 9 15 36 9 16 28 7 16 27 6 15 26 5 12 26 6 15 24 4 13 26 4 16 27 6 15 26 5 14 25 5 16 27 6 15 27 6 15 27 7 16 25 5 16 27 5 17 28 6 19 28 8 20 28 7 24 35 8 25 46 12 29 28 5 31 27 7 34 30 7 36 27 8 38 29 5 39 30 9 52 30 9 52 31 10 53 30 8 54 30 9 52 30 9 52 27 9 51 24 7 43 24 7 41 22 5 37 22 6 33 21 5 31 23 5 29 23 5 27 22 5 24 21 4 22 21 5 18 22 6 19 21 4 12 20 3 13 23 6 16 21 4 14 21 4 14 22 5 15 21 4 14 
30 7 15 30 7 15 28 7 14 28 7 14 28 5 13 28 5 13 29 6 14 27 6 15 33 8 14 48 12 16 29 6 16 29 6 16 28 7 14 30 7 15 28 7 16 28 7 16 27 6 15 27 6 15 28 7 12 28 7 16 28 7 16 27 6 15 27 6 15 28 7 16 29 6 14 30 7 15 29 6 14 29 6 14 34 7 16 46 11 15 28 7 16 29 6 14 28 7 16 29 6 14 26 5 14 27 6 15 27 6 15 28 5 15 25 5 14 29 8 15 27 6 13 28 5 15 27 6 15 27 6 15 26 6 15 28 7 14 28 7 14 29 8 15 26 5 14 42 10 15 38 9 14 29 6 16 29 6 14 29 6 14 28 7 14 27 6 15 26 5 14 28 7 16 29 6 16 27 6 15 29 5 18 27 6 15 27 6 15 27 5 17 28 6 18 29 7 20 30 6 20 29 6 24 37 8 26 47 13 30 27 7 32 30 7 35 27 7 35 28 7 38 28 7 40 30 9 52 31 10 53 31 10 53 31 9 55 31 10 53 30 9 52 28 10 52 23 6 42 22 5 39 23 6 38 23 4 32 23 5 31 23 5 29 23 5 27 23 6 25 21 4 22 22 6 19 21 5 18 21 3 15 22 4 16 22 4 16 21 4 14 22 5 15 21 4 14 21 4 14 
31 8 16 29 8 15 28 7 14 29 8 13 29 8 15 29 6 14 29 6 14 29 6 16 34 9 13 48 14 15 29 6 14 29 6 14 27 6 15 28 5 15 26 5 14 27 6 15 25 5 14 28 7 16 27 6 13 27 6 15 28 7 16 28 7 16 27 6 15 26 5 14 28 7 16 28 5 15 28 5 13 28 7 16 31 5 14 46 11 15 27 6 15 29 6 14 27 5 17 27 6 15 28 5 15 25 5 14 25 4 13 27 6 15 28 7 16 26 5 12 27 6 15 28 5 15 26 5 14 27 6 15 26 5 14 27 6 13 27 5 17 28 7 16 27 6 15 41 10 15 39 10 15 29 8 17 27 6 15 27 6 13 26 5 12 26 6 15 27 6 15 27 6 15 28 5 15 26 6 15 27 6 15 27 6 15 27 6 15 24 7 15 27 5 17 29 7 20 29 5 19 28 7 24 36 9 26 46 12 29 29 6 32 29 6 34 30 7 36 30 6 38 28 7 40 28 10 52 30 9 52 33 10 54 31 9 55 31 10 53 30 9 52 28 10 52 23 6 42 23 6 40 23 6 38 25 6 34 24 6 32 21 6 29 23 5 27 22 5 23 22 5 21 22 6 19 21 5 16 21 4 14 21 4 14 21 4 14 22 5 15 21 4 14 22 5 15 22 5 15 
33 10 16 31 10 15 30 11 15 30 11 15 33 12 17 31 8 14 29 8 13 29 8 15 35 10 14 48 14 15 29 8 17 29 8 17 29 8 15 29 6 14 28 7 16 27 6 15 27 6 13 27 6 13 29 8 15 27 8 14 29 6 14 27 6 13 27 6 15 28 7 16 27 6 13 29 6 14 28 5 13 28 7 16 33 8 14 46 11 15 28 7 16 29 6 14 28 7 16 29 6 14 27 6 15 27 6 15 26 5 14 27 6 13 27 6 15 28 7 14 28 7 14 27 6 15 27 6 15 26 5 14 28 7 16 28 7 14 28 7 14 28 7 14 29 8 15 43 11 16 38 9 14 28 5 13 28 7 14 30 7 15 28 7 16 28 7 16 28 7 16 27 6 15 29 6 14 27 7 16 28 7 14 28 7 16 27 6 15 25 5 14 27 5 17 28 6 19 29 7 20 29 6 24 37 8 26 47 13 30 28 5 31 30 7 35 30 7 36 28 7 38 26 5 38 30 9 52 31 10 53 32 9 53 30 8 54 31 10 53 31 10 53 27 9 51 22 5 41 21 4 38 22 5 37 24 5 33 23 5 31 22 4 28 23 5 27 21 4 23 20 3 21 22 5 21 21 5 18 23 5 17 20 2 14 22 5 15 21 4 14 20 3 13 21 4 14 21 4 14 
31 12 16 31 10 15 31 10 15 30 9 14 32 11 16 29 10 14 30 9 16 29 8 15 34 9 15 46 14 15 27 8 14 28 9 15 27 8 14 29 8 15 25 5 14 27 6 13 25 5 14 26 4 16 26 5 12 25 5 14 27 6 15 25 5 16 24 4 15 25 5 16 26 5 14 27 6 15 27 6 15 26 5 14 32 6 15 46 11 17 26 5 14 28 7 14 26 5 14 27 6 15 26 6 15 23 6 14 25 5 14 25 5 14 26 5 14 26 5 14 26 5 14 25 5 14 21 4 14 25 5 14 25 5 14 29 8 17 26 5 14 27 6 15 24 4 15 40 9 14 35 8 15 26 4 16 26 6 15 27 6 15 25 5 14 24 4 15 26 5 14 26 5 14 27 6 15 24 4 13 27 6 15 26 5 14 25 5 14 25 5 14 27 5 17 28 6 19 28 8 20 27 6 23 35 8 25 47 13 30 26 6 31 28 8 35 27 7 35 28 7 38 27 8 40 29 8 51 31 8 52 31 10 53 28 9 54 30 9 52 30 9 52 27 9 51 24 7 43 24 7 41 21 4 36 22 6 33 22 6 32 23 5 29 23 6 25 22 5 23 22 5 23 22 5 21 21 5 18 21 3 15 21 4 14 23 6 16 22 5 15 22 5 15 22 5 15 22 5 15 
32 13 15 32 13 15 31 13 13 31 12 14 31 12 14 31 12 14 31 10 15 30 9 14 36 11 15 47 15 16 28 9 13 29 10 14 28 9 15 27 8 14 27 7 16 28 5 15 26 5 14 26 5 14 28 7 14 26 5 14 27 6 15 27 6 15 25 5 14 25 5 14 26 5 14 26 5 14 26 4 16 28 5 15 31 5 14 46 11 17 26 5 14 27 6 13 26 5 14 27 5 17 25 5 14 26 5 14 25 5 14 26 5 14 25 5 14 27 5 17 26 5 14 25 5 14 23 6 16 25 5 14 26 6 15 27 6 15 27 6 15 26 5 14 26 6 15 41 10 18 37 7 15 26 5 14 27 6 15 26 5 14 28 7 16 25 5 14 26 5 14 27 6 15 27 6 15 25 5 14 28 7 16 28 5 15 25 5 14 23 6 14 27 5 17 28 6 19 28 6 19 28 7 24 33 9 25 46 12 29 27 7 32 29 6 34 28 8 36 28 7 38 27 8 40 30 9 52 31 10 53 30 9 52 28 9 54 30 9 52 30 9 52 27 9 51 23 6 42 23 6 40 23 6 38 22 6 33 22 6 32 24 6 30 23 6 25 22 5 21 22 5 23 22 5 21 20 4 17 22 4 16 21 4 14 21 4 14 21 4 14 21 4 14 21 4 14 21 4 14 
31 12 14 32 13 15 31 12 14 32 13 15 34 15 17 33 13 15 31 12 16 30 11 15 35 10 14 46 14 15 28 9 15 28 9 15 27 8 14 27 8 14 26 6 15 28 7 16 26 5 14 27 6 15 27 6 15 25 4 13 26 5 14 25 5 14 25 5 14 25 5 14 27 4 14 27 6 15 27 6 15 27 6 15 33 7 16 44 12 15 26 6 15 27 6 13 27 5 17 26 6 15 25 5 16 24 4 13 25 5 16 25 5 14 25 5 16 27 6 15 26 5 14 25 5 14 23 6 16 25 5 14 25 5 14 27 6 15 27 6 13 27 6 15 25 5 14 41 10 15 35 8 17 25 5 14 26 6 15 27 6 15 26 6 15 24 4 15 25 5 16 25 5 14 26 5 12 25 5 14 27 6 13 26 6 15 25 5 14 25 5 14 26 4 16 27 7 19 27 7 19 27 6 23 35 8 25 46 12 29 26 6 31 26 6 33 28 8 36 28 7 38 26 7 39 29 8 51 31 10 53 31 10 53 27 10 54 31 10 53 30 9 52 27 9 51 23 6 42 23 6 40 23 6 38 23 4 32 24 6 32 23 5 29 22 5 24 21 4 23 22 5 23 21 5 18 21 5 18 22 4 16 21 3 15 21 3 15 22 5 15 20 3 13 21 4 14 21 4 14 
34 12 15 36 14 17 33 13 15 32 13 15 32 13 15 33 14 16 32 13 15 31 12 16 38 13 16 48 17 15 29 10 14 31 10 15 30 9 16 29 10 16 27 8 14 27 8 14 28 7 16 27 6 15 28 7 14 26 6 15 27 6 15 25 5 14 26 6 15 25 6 12 27 6 15 28 5 15 27 4 12 27 6 15 32 6 15 45 10 14 27 6 15 29 6 14 27 6 15 28 7 16 26 6 15 25 5 14 27 6 15 26 6 15 25 6 12 27 6 13 27 6 15 26 5 14 25 5 14 26 5 14 26 5 14 28 7 16 27 6 15 27 6 15 28 7 14 41 9 14 38 9 14 27 6 13 27 6 15 30 7 17 27 6 13 25 5 16 27 6 15 25 4 13 28 5 13 25 5 14 28 7 16 27 6 15 27 6 13 25 5 14 27 5 17 28 6 19 29 7 20 27 6 23 35 8 25 45 12 29 28 5 31 29 6 34 29 6 35 30 6 38 26 7 39 30 9 52 30 9 52 31 10 53 31 8 54 31 10 53 30 9 52 26 8 50 22 5 41 24 7 41 22 5 37 24 5 33 23 5 31 21 6 29 22 4 26 22 4 26 21 5 18 22 6 19 22 6 17 21 4 14 21 3 15 21 3 15 21 4 14 21 4 14 21 4 14 21 4 14 
