P3
100 50
255
30 3 8 35 6 10 33 7 10 32 6 9 31 5 8 34 5 9 34 5 9 35 6 10 35 6 10 44 8 8 42 8 9 34 5 9 37 7 9 35 6 8 36 6 8 37 5 10 35 6 8 35 6 8 37 7 9 37 6 11 37 6 11 37 6 11 37 6 11 36 5 10 37 7 9 36 6 6 38 6 9 38 6 7 38 6 9 36 7 9 52 10 11 38 7 12 38 5 12 36 7 12 39 7 12 38 7 13 38 7 15 37 7 17 38 6 19 37 6 21 255 254 255 255 255 255 254 255 255 255 255 255 255 255 255 255 255 255 255 255 255 255 255 255 255 255 255 255 255 255 255 255 255 255 255 255 255 255 255 255 255 255 255 255 255 255 255 255 255 255 255 255 255 255 255 255 255 255 255 255 30 6 42 26 6 34 27 4 30 28 5 31 30 4 29 30 6 28 29 5 27 33 5 28 31 6 28 30 5 27 36 4 28 45 4 36 58 3 43 54 4 42 39 5 32 37 3 30 37 3 30 36 3 32 38 3 33 39 4 34 38 3 35 38 3 33 43 3 37 49 3 40 56 4 42 57 2 41 59 4 43 56 4 43 55 3 41 58 3 43 58 3 43 56 4 42 55 3 42 58 3 43 56 4 43 58 3 43 56 4 43 59 2 43 58 3 43 57 2 42 
44 8 10 45 9 9 46 11 9 45 9 9 45 9 11 45 9 9 47 8 9 47 8 9 45 9 9 50 10 10 50 10 10 43 7 7 45 9 9 45 9 9 45 9 11 44 8 10 44 10 11 44 10 11 44 8 10 45 9 11 45 9 9 44 8 10 44 8 10 43 9 10 44 8 10 44 10 11 45 9 9 45 9 9 44 8 8 43 7 9 53 12 10 44 8 10 44 9 13 44 9 13 45 10 14 42 10 13 44 9 15 43 10 19 43 10 19 44 8 20 255 255 255 255 255 255 255 255 253 255 255 255 255 255 255 255 255 255 255 255 255 255 255 255 255 255 255 255 255 255 255 255 255 255 255 255 255 255 255 255 255 255 255 255 255 255 255 255 255 255 255 255 255 255 255 255 255 255 255 255 28 6 42 26 6 34 28 5 31 28 5 31 28 4 26 29 5 27 29 5 27 30 4 29 30 5 27 34 5 27 33 5 27 35 6 28 43 3 37 56 4 43 55 3 41 38 4 31 36 4 28 36 3 30 38 3 33 37 3 30 39 5 32 38 3 33 37 2 32 38 5 34 38 3 35 45 4 38 50 4 41 55 3 42 58 3 43 56 4 43 55 3 42 57 2 42 57 2 42 58 3 43 59 4 44 56 4 43 56 4 43 54 4 42 55 3 42 54 4 42 
28 3 9 30 5 8 27 4 10 31 4 11 29 4 10 29 4 8 26 4 7 29 4 8 29 4 8 41 7 8 38 8 10 29 4 10 29 4 8 30 5 9 28 3 9 27 4 10 29 4 8 27 4 10 29 4 10 29 4 10 29 4 10 28 3 9 29 4 10 29 4 10 29 4 10 29 4 10 30 3 8 29 4 8 29 4 8 30 3 8 51 11 11 29 4 8 30 5 11 29 3 12 31 5 14 27 4 14 27 4 14 26 4 16 26 4 17 26 3 19 255 255 255 255 255 255 255 255 255 255 255 255 255 255 255 255 255 255 255 255 255 255 255 255 255 255 255 255 255 255 255 255 255 255 255 255 255 255 255 255 255 255 255 255 255 255 255 255 255 255 255 255 255 255 255 255 255 255 255 255 31 7 43 28 5 34 28 5 33 27 4 30 28 6 29 28 4 26 28 4 28 29 5 27 29 4 26 30 5 24 32 4 26 32 5 22 31 3 25 42 1 33 55 3 41 51 4 40 38 4 29 36 4 28 36 4 28 36 4 28 37 3 30 37 3 30 37 3 30 37 5 29 37 3 30 37 2 32 37 4 31 37 2 32 41 4 35 45 4 38 49 3 39 51 4 40 54 4 41 54 4 41 56 4 42 55 3 41 58 3 42 56 4 43 57 2 41 58 3 42 
28 3 7 32 5 10 30 3 10 30 5 9 29 4 10 30 5 9 29 4 8 30 5 9 29 4 8 44 8 10 40 8 11 29 4 10 30 5 8 29 4 8 30 5 9 29 4 10 29 4 10 28 3 9 30 5 11 29 4 8 30 3 8 29 4 10 29 4 8 29 4 10 29 4 10 30 5 11 31 4 9 29 4 8 33 6 11 32 5 10 52 10 12 30 5 9 30 5 11 29 3 12 28 5 13 29 3 14 28 5 15 28 4 17 28 4 17 27 3 17 255 255 255 255 255 255 255 255 255 255 255 255 255 255 255 255 255 255 255 255 255 255 255 255 255 255 255 255 255 255 255 255 255 255 255 255 255 255 255 255 255 255 255 255 255 255 255 255 255 255 255 255 255 255 255 255 255 255 255 255 28 6 42 26 7 39 24 4 31 26 3 29 26 4 27 27 3 25 29 5 27 28 4 26 29 6 24 29 4 25 31 4 23 30 3 22 32 5 22 33 4 26 44 3 35 53 5 43 52 5 41 37 5 29 37 3 28 37 3 27 33 3 29 36 3 30 37 3 30 37 3 30 37 3 30 37 3 30 37 3 30 37 4 31 37 4 31 37 4 31 39 3 31 38 4 31 38 3 33 38 3 35 41 4 35 43 4 35 42 2 36 47 3 38 47 3 38 49 4 43 
29 4 8 31 4 11 28 3 9 29 4 7 30 5 9 30 5 9 29 4 8 30 5 9 30 5 9 42 8 9 40 8 11 30 5 9 30 5 9 30 5 9 30 5 9 29 4 10 29 4 10 27 4 10 29 4 10 29 4 8 29 4 8 28 3 9 29 4 10 28 3 9 29 4 8 29 4 8 30 3 8 29 4 8 30 3 8 30 3 8 51 11 11 30 5 9 30 5 11 30 4 13 31 6 12 30 4 15 27 4 14 27 4 14 27 3 16 26 4 17 255 255 255 255 255 255 255 255 255 255 255 253 255 255 255 255 255 255 255 255 255 255 255 255 255 255 255 255 255 255 255 255 255 255 255 255 255 255 255 255 255 255 255 255 255 255 255 255 255 255 255 255 255 255 255 255 255 255 255 255 28 6 42 28 6 42 25 5 32 24 4 29 26 4 27 28 4 26 27 4 24 30 5 26 28 5 23 30 6 22 29 4 23 29 5 19 31 4 21 31 4 21 31 7 23 43 3 37 52 4 42 50 4 40 36 4 28 33 4 26 36 4 28 36 4 27 35 3 27 36 4 28 37 5 29 37 5 29 37 4 31 38 4 31 37 3 30 37 3 30 37 3 30 36 3 30 38 3 33 38 3 33 39 4 34 40 3 34 38 3 33 37 4 33 39 5 32 40 3 34 
29 4 8 31 4 9 29 4 10 29 4 8 28 3 9 29 4 8 29 4 8 30 3 8 29 4 8 43 7 9 40 8 9 29 2 9 31 4 9 31 4 9 29 4 8 30 5 9 27 5 8 27 5 8 28 3 7 29 4 8 30 5 9 28 3 9 29 4 8 29 4 10 29 4 10 28 3 9 31 4 9 29 4 8 29 4 8 32 6 9 50 10 10 31 4 9 30 5 9 29 4 10 30 4 13 30 4 13 28 5 15 28 4 17 28 4 17 27 3 16 255 255 255 255 255 255 255 255 253 255 255 255 255 255 255 255 255 255 255 255 255 255 255 255 255 255 255 255 255 255 255 255 255 255 255 255 255 255 255 255 255 255 255 255 255 255 255 255 255 255 255 255 255 255 255 255 255 255 255 255 28 6 42 28 6 42 28 5 34 25 2 28 25 3 24 26 4 25 28 5 25 27 4 22 27 4 22 27 4 24 30 3 22 28 4 20 28 3 22 30 4 17 30 3 18 31 5 18 44 4 38 55 5 42 50 4 41 36 4 28 33 4 24 32 3 25 32 3 25 33 4 26 32 3 25 34 5 27 35 3 26 36 4 28 36 4 28 36 3 30 37 3 28 36 4 28 36 4 28 36 4 28 36 4 28 36 3 30 37 3 30 37 3 30 36 3 30 36 2 29 
27 4 10 29 4 8 27 4 10 26 3 9 25 4 9 29 4 8 28 3 9 29 4 8 28 3 7 42 8 9 39 7 10 26 3 9 28 3 7 30 5 9 29 4 10 28 3 9 26 3 9 26 3 9 26 4 7 26 3 9 29 4 8 26 3 9 26 3 9 26 3 9 28 3 9 26 3 9 29 4 8 28 3 7 28 3 9 29 4 8 50 10 10 29 4 10 27 4 10 30 3 12 27 4 12 28 5 15 26 3 13 27 4 14 26 4 16 26 4 17 255 255 255 255 255 255 255 255 255 255 255 255 255 255 255 255 255 255 255 255 255 255 255 255 255 255 255 255 255 255 255 255 255 255 255 255 255 255 255 255 255 255 255 255 255 255 255 255 255 255 255 255 255 255 255 255 255 255 255 255 28 6 42 29 7 43 28 4 36 26 3 29 26 2 24 27 5 26 26 5 24 26 3 23 27 4 22 28 4 20 27 3 19 27 3 19 28 4 20 28 4 20 31 4 19 30 3 18 30 3 20 44 4 38 52 4 42 49 3 39 37 5 28 36 4 25 34 2 25 33 4 24 33 4 26 33 4 24 32 3 23 33 4 24 33 4 26 32 3 25 33 4 26 35 3 24 36 4 27 36 4 28 36 4 27 36 4 27 34 5 27 33 3 27 36 4 28 36 3 30 
26 3 9 28 3 7 26 3 9 26 3 11 25 2 8 29 4 8 29 4 8 29 4 10 29 4 10 42 8 9 39 7 10 26 3 9 29 4 7 29 4 8 29 4 10 26 3 9 27 4 12 26 3 9 28 3 9 29 4 10 29 3 12 27 4 10 26 3 9 26 3 9 28 3 9 29 4 10 28 3 7 29 4 8 28 3 7 31 4 9 50 10 10 28 3 7 26 3 9 27 4 10 30 4 13 28 2 11 27 4 12 26 5 14 26 4 16 26 4 16 255 255 255 255 255 255 255 255 255 255 255 255 255 255 255 255 255 255 255 255 255 255 255 255 255 255 255 255 255 255 255 255 255 255 255 255 255 255 255 255 255 255 255 255 255 255 255 255 255 255 255 255 255 255 255 255 255 255 255 255 30 6 42 28 6 42 29 5 39 27 4 30 27 5 26 25 3 24 24 3 22 26 5 24 27 4 22 27 4 20 27 3 19 27 4 20 27 4 20 30 3 20 30 3 18 30 3 18 31 4 19 33 4 22 45 4 36 51 3 41 52 4 42 50 4 41 47 3 39 48 4 39 47 3 36 47 3 36 44 3 35 45 4 34 43 4 33 44 4 31 40 3 34 39 2 33 39 3 31 38 3 33 40 4 32 40 4 32 39 3 31 40 4 32 40 4 30 40 4 30 
26 3 9 28 3 7 29 4 10 26 3 11 26 3 9 28 3 7 27 5 8 29 4 8 27 5 8 42 8 9 39 7 10 28 3 9 29 4 8 28 3 7 26 4 7 26 3 9 26 3 11 27 4 10 28 3 9 28 3 9 29 4 8 27 4 10 25 2 8 26 3 9 28 3 9 28 3 9 29 4 8 27 5 8 29 4 8 29 4 8 49 9 7 28 6 9 27 4 10 29 4 10 29 4 10 28 2 13 26 3 11 26 3 13 27 4 14 26 3 13 255 255 255 255 255 255 255 255 255 255 255 255 255 255 255 255 255 255 255 255 255 255 255 255 255 255 255 255 255 255 255 255 255 255 255 255 255 255 255 255 255 255 255 255 255 255 255 255 255 255 255 255 255 255 255 255 255 255 255 255 28 6 42 29 7 43 29 7 43 28 5 34 26 4 25 25 3 24 24 5 24 24 5 24 25 4 23 27 3 19 26 3 19 27 4 20 27 3 19 26 4 17 28 4 18 30 4 17 31 4 19 27 3 17 31 4 21 40 4 32 49 4 37 51 3 41 50 4 41 52 4 42 52 5 39 52 5 41 52 5 41 52 4 42 52 4 42 52 4 44 53 5 43 53 3 41 51 3 41 54 4 42 53 3 41 52 4 42 54 4 42 53 3 41 54 4 42 53 3 41 
29 4 10 29 4 8 28 3 9 29 4 10 26 5 10 29 4 8 31 4 9 30 5 9 30 5 9 43 9 10 39 7 10 27 4 10 29 4 8 30 5 9 29 4 8 26 4 7 29 4 10 27 5 8 28 3 7 29 4 8 29 4 8 27 4 10 27 5 8 25 2 8 29 4 8 29 4 8 30 5 9 30 5 9 29 4 8 30 5 9 50 10 10 29 4 8 29 4 10 29 4 10 30 5 11 27 4 12 27 4 12 27 4 12 27 4 14 26 5 14 255 255 255 255 255 255 255 255 255 255 255 255 255 255 255 255 255 255 255 255 255 255 255 255 255 255 255 255 255 255 255 255 255 255 255 255 255 255 255 255 255 255 255 255 255 255 255 255 255 255 255 255 255 255 255 255 255 255 255 255 31 7 43 28 6 42 29 7 43 28 4 38 25 4 23 26 4 25 22 3 23 25 4 21 26 3 23 27 4 20 28 4 20 26 4 17 26 4 17 28 4 18 27 3 16 28 4 17 28 4 17 29 3 16 30 4 17 30 3 20 32 4 19 34 5 25 36 4 25 36 4 25 36 4 27 36 4 27 38 4 29 38 4 28 40 4 32 40 4 32 42 5 36 42 5 36 45 6 37 45 6 37 46 5 37 47 3 36 48 4 37 49 4 37 48 3 36 49 3 39 
28 3 7 31 4 9 29 4 10 28 3 6 28 3 7 29 4 8 29 4 8 29 4 10 28 3 7 44 8 10 40 8 11 30 3 8 29 4 8 29 4 8 29 4 8 27 4 12 27 5 8 26 4 7 28 2 11 30 3 8 29 4 8 29 4 8 28 3 7 27 5 8 28 3 7 28 3 7 30 3 8 29 4 8 29 4 8 31 6 12 50 10 10 29 4 8 31 4 9 29 4 10 30 5 11 27 4 10 28 5 13 27 4 12 27 4 12 26 2 15 255 255 255 254 254 254 255 255 255 255 255 255 255 255 255 255 255 255 255 255 255 255 255 255 255 255 255 255 255 255 255 255 255 255 255 255 255 255 255 255 255 255 255 255 255 255 255 255 255 255 255 255 255 255 255 255 255 255 255 255 29 8 41 31 5 42 30 6 42 28 6 42 24 5 25 26 4 25 25 4 23 25 4 23 26 3 21 27 3 19 28 4 20 27 2 21 26 4 17 27 3 16 27 5 17 28 4 17 27 3 16 27 3 16 29 8 17 30 14 15 29 13 16 29 5 18 31 4 19 31 4 19 30 3 18 31 4 21 31 4 21 32 5 22 31 4 21 32 5 22 32 5 22 31 4 21 32 5 22 33 4 22 32 3 21 32 3 23 35 3 24 32 5 24 33 4 24 34 5 23 
26 4 7 29 4 8 28 3 7 29 4 8 28 3 9 30 5 9 29 4 8 29 4 8 29 4 8 42 6 8 37 7 7 28 3 7 30 3 8 27 5 8 29 4 8 28 3 9 28 3 7 28 3 7 30 3 10 30 3 8 29 4 8 29 4 8 28 3 7 28 3 7 29 4 8 27 5 8 30 3 8 29 4 8 30 3 8 32 5 10 50 10 10 29 4 8 27 5 8 29 4 8 29 4 10 27 4 10 27 4 12 27 4 12 27 4 12 27 4 14 255 255 255 255 255 255 255 255 255 255 255 255 255 255 255 255 255 255 255 255 255 255 255 255 255 255 255 255 255 255 255 255 255 255 255 255 255 255 255 255 255 255 255 255 255 255 255 255 255 255 255 255 255 255 255 255 255 255 255 255 25 4 35 28 8 43 28 7 40 31 7 43 25 2 30 26 4 25 26 5 24 26 5 22 26 3 21 26 3 21 26 3 19 29 2 17 27 3 16 27 5 17 26 4 16 29 5 18 26 4 16 27 6 15 31 20 16 31 20 18 30 19 15 31 15 18 30 4 17 29 5 18 31 4 21 30 3 18 31 4 19 30 3 20 31 4 21 31 4 21 32 3 21 33 4 22 33 4 22 32 3 21 32 5 24 29 4 23 33 4 24 32 5 24 33 4 24 32 5 24 
27 5 8 30 5 11 29 4 8 29 4 8 28 3 9 29 4 8 29 4 8 30 3 8 29 4 8 42 6 8 39 7 8 28 3 7 29 4 8 30 5 9 30 3 8 26 3 9 27 5 8 28 3 7 29 4 10 29 4 8 28 3 7 29 4 8 28 3 9 27 4 10 28 3 9 28 3 9 29 4 8 30 5 9 30 3 8 31 5 8 51 11 11 29 4 8 28 3 7 28 3 6 29 4 8 29 4 10 27 4 10 27 4 12 27 4 12 27 4 14 255 255 255 255 255 255 255 255 255 254 254 254 255 255 255 255 255 255 255 255 255 255 255 255 255 255 255 255 255 255 255 255 255 255 255 255 255 255 255 255 255 255 255 255 255 255 255 255 255 255 255 255 255 255 255 255 255 255 255 255 25 2 28 29 5 39 30 6 42 30 6 42 29 6 35 26 4 25 25 4 23 26 5 22 26 3 21 25 4 23 26 3 19 27 3 17 25 3 15 26 4 16 26 2 15 25 3 15 26 2 15 26 11 14 26 22 13 29 20 13 30 21 16 29 20 15 28 7 16 29 3 16 27 5 18 28 4 18 29 2 17 30 3 18 30 3 20 30 3 18 30 3 18 30 3 20 31 4 19 31 4 19 31 4 21 31 4 21 31 4 21 32 5 22 32 3 21 31 4 21 
25 2 8 29 4 8 28 3 9 27 5 8 29 4 10 29 4 8 29 4 8 29 4 8 29 4 8 42 8 9 38 8 8 27 4 10 28 3 7 27 5 8 28 3 7 27 4 10 27 5 8 26 4 7 28 3 9 28 3 7 29 4 8 28 3 7 28 3 9 26 3 9 28 3 9 28 3 9 29 4 8 28 3 7 29 4 8 29 4 7 49 11 10 29 4 8 28 3 7 28 3 6 29 4 8 28 3 9 26 3 9 28 2 11 29 3 12 26 3 11 255 255 255 255 255 255 255 255 255 254 254 254 255 255 255 255 255 255 255 255 255 255 255 255 255 255 255 255 255 255 255 255 255 255 255 255 255 255 255 255 255 255 255 255 255 255 255 255 255 255 255 255 255 255 255 255 255 255 255 255 26 4 27 26 3 29 29 5 37 29 7 43 27 5 41 25 3 24 24 2 23 25 4 23 26 3 21 25 2 18 26 3 19 26 3 19 26 4 17 25 3 16 27 3 17 26 2 15 26 2 15 25 5 14 27 20 14 25 20 14 25 21 12 27 17 15 27 6 15 27 3 16 26 2 15 27 3 16 28 4 17 27 3 16 28 4 17 27 3 17 29 2 17 29 3 16 29 5 18 28 4 18 28 4 18 28 4 18 30 3 18 30 3 18 29 2 17 30 3 18 
27 4 10 29 4 10 27 4 10 26 3 9 25 2 8 29 4 8 28 3 7 28 3 9 29 4 8 45 6 9 38 8 10 29 4 10 30 3 8 29 4 8 29 4 10 26 3 9 29 4 10 26 3 9 27 4 10 29 4 10 28 3 7 28 3 7 28 3 9 28 3 9 27 2 8 29 4 10 30 3 8 28 3 7 29 4 8 30 5 9 49 9 9 29 4 8 29 4 8 29 4 8 29 4 8 26 3 9 28 3 9 28 3 9 29 3 12 29 3 14 255 255 255 255 255 255 255 255 255 255 255 255 255 255 255 255 255 255 255 255 255 255 255 255 255 255 255 255 255 255 255 255 255 255 255 255 255 255 255 255 255 255 255 255 255 255 255 255 255 255 255 255 255 255 255 255 255 255 255 255 25 2 28 27 5 28 26 3 29 27 5 41 28 7 40 26 4 27 25 3 24 25 4 23 26 5 20 25 4 19 25 2 18 25 2 18 24 4 16 25 3 16 25 3 16 26 3 13 26 3 11 25 4 13 25 10 15 26 17 12 26 16 14 27 8 14 25 2 12 24 3 12 25 4 13 25 3 15 24 2 14 25 3 15 25 4 11 25 3 15 24 2 14 25 3 15 26 2 15 26 2 15 27 3 16 26 2 15 27 3 16 27 3 16 27 3 16 27 3 16 
26 3 11 30 5 9 28 1 8 28 3 9 26 3 11 29 4 8 29 4 8 27 4 10 28 3 7 43 7 9 37 7 9 28 3 7 29 4 8 29 4 8 29 4 10 26 3 9 26 3 9 26 3 9 27 2 8 28 3 9 28 3 7 25 3 6 27 4 10 26 3 9 26 3 9 28 3 9 29 4 8 27 5 8 29 2 7 30 5 9 49 9 9 27 5 8 29 4 8 26 4 7 29 4 8 26 3 9 29 4 10 29 4 8 29 4 10 29 3 14 255 255 255 255 255 255 255 255 255 255 255 255 255 255 255 255 255 255 255 255 255 255 255 255 255 255 255 255 255 255 255 255 255 255 255 255 255 255 255 255 255 255 255 255 255 255 255 255 255 255 255 255 255 255 255 255 255 255 255 255 27 4 30 26 4 25 26 4 27 30 6 40 30 6 42 27 4 33 25 3 24 23 4 23 25 4 21 26 3 21 25 2 18 25 2 18 25 2 18 25 3 16 24 4 15 26 3 13 26 2 15 25 4 13 25 4 13 26 5 14 26 5 14 25 4 13 25 4 13 26 3 13 26 2 15 26 3 13 26 3 13 27 4 14 26 2 16 26 3 11 25 4 13 26 4 16 24 3 12 26 3 13 26 3 13 24 4 13 24 3 12 25 4 13 24 4 13 26 3 13 
29 4 10 29 4 8 29 4 10 27 2 8 28 3 9 30 3 8 29 4 8 30 5 9 29 4 8 43 7 9 39 7 8 29 4 8 32 3 8 27 5 8 29 4 8 28 3 9 26 4 7 26 4 7 29 4 10 29 4 8 30 5 9 27 5 8 27 2 6 27 5 8 27 5 8 27 2 6 30 5 9 28 3 7 30 3 8 31 6 10 50 10 10 29 4 8 30 5 9 29 4 8 29 4 8 29 4 8 29 4 10 28 3 9 28 3 9 28 2 11 255 255 255 255 255 255 255 255 255 255 255 255 255 255 255 255 255 255 255 255 255 255 255 255 255 255 255 255 255 255 255 255 255 255 255 255 255 255 255 255 255 255 255 255 255 255 255 255 255 255 255 255 255 255 255 255 255 255 255 255 28 2 27 26 4 25 26 6 33 30 6 42 30 6 42 29 5 37 27 4 24 26 3 23 26 5 22 25 4 21 25 4 21 27 4 20 26 3 19 21 3 15 25 2 18 25 3 15 26 4 16 26 3 13 25 4 13 25 4 13 26 5 14 24 3 12 26 3 13 26 2 15 25 4 13 25 4 13 25 5 14 25 3 15 25 4 13 26 5 14 25 4 13 24 3 12 26 3 13 26 3 13 26 3 13 25 4 13 25 4 13 25 2 12 26 3 13 28 2 13 
27 2 6 31 4 9 29 4 10 29 4 8 30 5 9 31 4 9 29 4 8 30 5 9 30 5 9 43 7 9 40 8 9 29 4 8 30 3 8 31 4 9 32 3 8 29 4 8 30 5 9 29 2 7 29 4 8 30 3 8 30 3 8 29 4 8 29 4 8 28 3 7 29 4 8 30 3 8 30 3 8 30 5 9 31 4 9 30 5 8 50 10 10 30 5 9 29 4 8 29 4 8 30 3 8 29 4 8 29 4 8 29 4 10 29 4 10 29 4 10 255 255 255 254 255 255 255 255 255 255 255 255 255 255 255 255 255 255 255 255 255 255 255 255 255 255 255 255 255 255 255 255 255 255 255 255 255 255 255 255 255 255 255 255 255 255 255 255 255 255 255 255 255 255 255 255 255 255 255 255 26 4 25 27 3 27 27 4 33 28 7 40 30 8 44 29 5 39 27 5 28 26 5 24 26 3 21 25 4 19 26 3 21 25 4 21 25 4 19 24 4 15 25 3 16 26 4 17 25 4 13 25 3 15 26 2 15 25 1 14 24 2 14 26 3 13 27 4 14 25 4 13 25 4 13 25 4 13 25 4 13 25 4 13 25 4 13 25 2 12 26 3 13 25 2 10 26 5 14 26 6 15 25 4 13 24 3 12 24 3 12 25 2 12 25 4 13 25 2 12 
29 4 8 31 4 9 29 4 10 29 4 8 30 3 10 30 3 8 29 4 8 32 5 12 29 4 8 42 8 9 40 8 9 29 4 7 30 3 8 30 3 8 30 3 8 30 5 11 29 4 8 28 3 6 29 4 8 29 4 8 29 4 8 29 4 8 28 3 7 28 3 7 28 3 7 29 4 8 30 5 9 28 3 7 29 4 8 31 4 9 50 10 8 29 4 8 31 4 9 31 4 9 28 6 9 29 4 10 29 4 10 29 4 8 29 4 10 29 4 8 255 255 255 255 255 255 255 255 255 255 255 255 255 255 255 255 255 255 255 255 255 255 255 255 255 255 255 255 255 255 255 255 255 255 255 255 255 255 255 255 255 255 255 255 255 255 255 255 255 255 255 255 255 255 255 255 255 255 255 255 27 3 25 26 4 27 29 5 39 28 7 40 29 7 43 28 7 40 28 5 34 25 4 23 25 4 21 25 2 20 25 2 20 24 3 18 25 4 19 25 4 19 25 3 16 25 3 16 24 4 15 26 4 16 26 2 15 26 2 15 25 4 13 26 3 13 26 3 13 26 3 13 24 4 13 24 3 12 25 2 12 26 5 14 25 2 12 25 2 12 25 4 13 25 4 11 28 17 15 27 20 14 25 4 13 24 3 12 25 4 13 25 2 12 25 2 12 25 4 11 
28 3 9 30 4 7 30 5 9 29 4 8 29 4 8 31 4 9 30 5 9 30 5 9 30 5 9 42 8 9 39 7 10 29 4 8 30 5 9 28 3 7 29 4 8 29 4 10 27 2 6 29 4 8 29 2 7 29 4 8 29 4 8 29 4 8 29 4 8 28 3 7 28 3 7 29 4 8 30 3 8 29 4 8 31 6 10 30 5 8 51 11 9 29 4 7 31 4 9 29 4 8 30 5 9 29 4 8 29 4 8 30 5 9 29 4 8 29 4 10 255 255 253 255 255 255 255 255 255 255 255 255 255 255 255 255 255 255 255 255 255 255 255 255 255 255 255 255 255 255 255 255 255 255 255 255 255 255 255 255 255 255 255 255 255 255 255 255 255 255 255 255 255 255 255 255 255 255 255 255 26 2 24 28 5 34 30 6 40 31 7 41 29 5 39 28 6 42 30 6 42 26 4 25 26 5 24 25 4 21 26 3 21 24 3 20 24 3 18 21 3 17 25 3 16 25 3 16 24 4 16 22 2 13 23 3 14 24 3 12 26 3 13 26 2 15 25 4 13 25 4 11 24 3 12 25 2 12 25 4 13 28 2 13 25 2 12 26 3 13 24 3 12 24 1 9 27 4 12 27 6 11 25 1 14 25 4 13 26 3 13 26 3 13 26 3 13 26 3 13 
29 4 8 34 5 9 31 4 9 31 4 9 30 4 7 33 4 8 31 5 8 34 5 9 32 6 9 44 8 8 39 7 8 32 6 9 34 5 9 34 5 9 33 4 8 31 4 9 30 4 7 31 5 8 33 4 8 31 5 8 31 5 8 30 5 8 31 4 9 31 4 9 31 4 9 32 5 10 35 6 11 31 4 9 33 4 8 31 5 8 49 9 10 31 4 9 30 5 9 31 4 11 31 5 8 31 4 9 30 5 9 29 4 8 30 5 9 30 5 9 255 255 255 255 255 255 255 255 255 255 255 255 255 255 255 255 255 255 255 255 255 255 255 255 255 255 255 255 255 255 255 255 255 255 255 255 255 255 255 255 255 255 255 255 255 255 255 255 255 255 255 255 255 255 255 255 255 255 255 255 27 4 32 30 6 40 28 6 42 31 7 43 29 5 31 27 6 39 30 6 40 26 3 29 24 3 22 25 4 23 25 4 21 25 4 21 25 4 19 25 2 18 26 3 19 25 3 16 24 2 15 23 3 14 24 4 15 24 3 12 25 3 15 24 2 14 23 4 10 24 3 12 24 3 10 23 2 9 24 3 12 25 2 10 23 2 9 24 3 10 26 3 11 24 3 10 24 1 9 24 3 10 25 2 10 26 3 9 25 4 11 25 4 11 25 2 10 24 3 12 
49 11 10 51 9 10 49 10 11 48 10 9 48 10 7 49 10 11 49 9 10 50 10 10 48 10 9 51 10 8 51 11 9 47 8 9 49 9 9 50 10 10 49 11 10 45 9 9 48 10 9 48 9 10 49 9 9 49 9 9 50 10 10 50 10 10 50 10 10 50 10 10 49 11 10 50 10 10 50 10 10 50 10 10 50 10 10 50 10 10 57 13 12 51 9 10 51 9 10 51 11 11 51 11 9 50 10 8 50 10 10 50 10 10 52 10 11 50 10 10 255 255 255 255 255 255 255 255 253 255 255 255 255 255 255 255 255 255 255 255 255 255 255 255 255 255 255 255 255 255 255 255 255 255 255 255 255 255 255 255 255 255 255 255 255 255 255 255 255 255 255 255 255 255 255 255 255 255 255 255 30 6 40 31 7 39 28 6 42 27 6 39 46 10 24 33 5 30 30 6 40 29 5 37 25 3 24 25 4 23 26 3 21 22 3 22 24 3 22 25 4 19 24 3 18 24 3 20 26 4 17 25 3 15 24 4 16 24 4 15 25 4 13 23 3 12 25 4 13 24 3 12 24 3 12 23 2 11 24 3 12 24 3 10 23 2 9 25 4 13 24 3 10 24 3 8 24 3 8 21 2 6 24 1 7 24 1 7 23 2 7 24 3 8 24 3 10 23 2 9 
28 3 7 30 3 8 27 5 8 28 3 7 27 2 6 29 4 7 27 5 8 29 4 10 29 4 8 44 8 10 36 5 10 26 4 7 29 4 8 29 4 8 29 4 8 25 2 8 28 3 7 28 3 9 28 3 7 28 3 7 28 3 7 29 4 8 28 3 7 28 3 7 28 3 7 28 3 7 30 3 8 29 4 8 31 4 11 30 5 9 49 11 10 28 3 7 29 4 8 30 5 9 30 3 8 28 3 7 29 4 10 28 3 7 28 3 9 28 3 7 255 255 255 255 255 255 255 255 255 255 255 255 255 255 255 255 255 255 255 255 255 255 255 255 255 255 255 255 255 255 255 255 255 255 255 255 255 255 255 255 255 255 255 255 255 255 255 255 255 255 255 255 255 255 255 255 255 255 255 255 29 8 41 31 7 41 30 6 42 26 6 33 25 3 24 25 3 24 28 6 42 28 7 40 26 4 27 27 4 24 26 3 21 26 3 21 25 4 21 26 3 23 25 4 19 24 3 18 25 3 16 25 3 16 25 3 16 24 4 15 24 4 15 25 4 13 25 3 15 24 3 12 25 4 11 23 2 9 24 3 10 24 3 10 24 3 10 23 2 7 23 2 7 24 3 10 23 2 7 23 2 9 24 3 8 24 3 8 24 3 10 24 3 8 23 2 7 23 2 7 
28 3 7 30 4 7 29 4 8 30 5 9 28 3 7 30 5 9 29 4 8 30 5 9 30 3 8 42 8 9 40 8 9 29 4 8 30 4 7 31 4 9 30 3 8 29 4 8 29 4 8 28 3 7 30 3 8 30 3 8 30 5 8 28 3 6 29 4 8 28 3 7 28 3 7 29 4 8 30 3 8 30 3 8 31 4 9 31 5 8 50 10 10 30 4 7 30 3 8 30 4 7 30 3 8 30 5 8 29 4 8 28 3 7 29 4 8 29 4 8 255 255 255 255 255 255 255 255 255 255 255 255 255 255 255 255 255 255 255 255 255 255 255 255 255 255 255 255 255 255 255 255 255 255 255 255 255 255 255 255 255 255 255 255 255 255 255 255 255 255 255 255 255 255 255 255 255 255 255 255 29 5 41 31 7 39 28 4 30 26 5 24 24 0 22 27 2 24 28 5 34 31 7 41 30 7 36 24 3 20 26 5 24 25 4 23 27 4 22 26 5 22 26 3 21 24 3 20 26 6 18 24 3 18 24 4 16 25 3 15 24 4 15 24 2 14 24 2 14 24 5 11 24 3 12 23 2 11 25 4 11 24 3 10 23 2 9 24 3 10 25 2 10 24 3 8 24 3 8 24 1 7 24 3 8 24 3 8 23 2 9 24 3 8 24 3 8 24 3 8 
29 4 8 30 3 8 28 3 7 29 4 8 28 3 7 31 4 9 29 4 7 30 3 8 29 4 8 44 8 10 39 7 8 30 3 8 30 4 7 31 4 9 30 3 8 29 4 8 29 4 8 28 3 7 30 3 8 30 5 9 28 3 7 28 3 7 28 3 7 28 3 7 29 2 7 29 4 8 31 4 9 31 4 11 31 4 9 30 4 7 50 10 10 30 3 8 31 4 9 29 4 10 30 3 8 29 4 8 29 4 8 28 3 7 30 3 8 27 2 6 255 255 255 254 255 255 255 255 255 254 254 254 255 255 255 255 255 255 255 255 255 255 255 255 255 255 255 255 255 255 255 255 255 255 255 255 255 255 255 255 255 255 255 255 255 255 255 255 255 255 255 255 255 255 255 255 255 255 255 255 27 5 28 28 5 25 24 3 20 22 3 22 26 5 24 27 2 23 26 4 27 29 5 41 30 6 40 26 5 24 26 5 24 27 2 23 25 4 23 25 4 21 25 5 33 25 6 38 25 6 38 23 4 32 26 4 25 25 5 16 26 2 16 24 4 16 25 3 15 25 1 14 25 4 13 24 3 12 24 3 12 23 2 9 24 1 9 23 2 9 24 3 10 23 2 9 25 2 8 23 2 7 25 2 8 24 1 7 23 2 9 24 3 10 24 1 7 24 3 10 
28 3 7 30 3 8 31 4 9 29 4 8 29 2 7 30 3 8 29 4 8 30 3 8 31 5 8 43 7 9 41 6 10 29 4 7 32 6 7 30 3 8 30 3 8 28 3 6 29 4 8 28 3 6 29 4 8 29 4 8 30 3 8 29 4 8 29 4 8 30 3 8 28 3 7 28 3 7 30 3 8 29 2 7 30 3 8 31 5 8 49 11 10 30 3 8 30 4 7 30 3 8 30 3 8 29 4 8 29 4 8 28 3 7 29 4 8 29 4 8 255 255 255 255 255 255 254 254 252 255 255 255 255 255 255 255 255 255 255 255 255 255 255 255 255 255 255 255 255 255 255 255 255 255 255 255 255 255 255 255 255 255 255 255 255 255 255 255 255 255 255 255 255 255 255 255 255 255 255 255 27 4 20 27 2 21 28 3 22 26 3 21 26 3 23 25 2 22 27 4 22 28 5 34 29 5 41 28 5 31 24 3 22 23 4 23 25 4 23 26 3 23 25 5 40 23 6 40 24 4 41 23 6 42 23 6 42 25 3 24 24 2 15 23 3 14 24 4 15 24 3 12 24 3 12 24 3 12 24 3 12 23 2 9 24 3 10 24 1 9 23 2 9 23 2 9 24 3 8 23 2 7 25 2 8 24 3 8 23 2 7 24 3 10 23 2 7 25 2 8 
26 3 9 29 4 8 27 2 6 28 3 7 26 4 7 30 5 9 29 4 8 28 3 7 29 4 8 43 7 9 38 6 9 29 4 8 29 4 10 29 4 10 29 4 8 28 3 7 28 3 7 25 3 6 28 3 7 28 3 7 28 3 7 28 3 9 25 2 8 26 3 9 26 3 9 28 3 7 30 4 7 28 3 7 29 4 8 29 4 8 48 10 9 29 4 8 28 3 7 29 4 8 29 4 8 28 3 7 26 3 9 26 3 9 29 4 8 28 3 9 255 255 255 254 254 254 255 255 253 255 255 255 255 255 255 255 255 255 255 255 255 255 255 255 255 255 255 255 255 255 255 255 255 255 255 255 255 255 255 255 255 255 255 255 255 255 255 255 255 255 255 255 255 255 255 255 255 255 255 255 26 3 19 27 3 17 25 4 19 26 3 21 27 4 20 26 5 22 26 3 23 24 1 27 28 6 42 30 6 40 26 5 24 26 5 24 26 5 24 26 3 23 26 4 40 25 5 40 26 4 27 24 4 31 24 4 41 24 4 32 23 3 15 24 2 15 25 3 15 24 4 13 25 4 13 24 3 12 23 2 11 24 3 10 24 1 9 24 3 10 24 3 8 24 1 7 23 2 7 23 2 7 23 2 7 23 2 7 23 2 7 24 3 8 23 2 7 23 2 7 
28 2 11 29 4 8 28 3 7 28 3 7 28 3 7 29 4 8 30 3 8 29 4 7 29 4 8 43 7 9 38 6 7 28 3 7 29 4 8 28 3 7 29 2 7 28 3 7 28 3 7 28 3 7 28 3 7 28 3 7 28 3 7 29 4 10 28 3 7 27 5 8 26 4 7 28 3 7 29 4 8 29 2 9 29 4 8 30 4 7 49 9 9 29 4 8 29 2 7 29 4 8 30 3 8 28 3 7 28 3 9 29 4 10 28 3 7 29 4 10 255 255 255 255 255 255 255 255 255 255 255 255 255 255 255 255 255 255 255 255 255 255 255 255 255 255 255 255 255 255 255 255 255 255 255 255 255 255 255 255 255 255 255 255 255 255 255 255 255 255 255 255 255 255 255 255 255 255 255 255 25 3 16 27 3 17 27 4 20 26 3 21 26 3 21 26 3 19 26 6 18 26 3 23 26 5 36 31 7 41 25 5 30 26 2 24 25 4 23 25 3 26 26 5 38 24 4 39 26 4 25 27 4 24 23 6 40 25 5 33 25 2 18 25 3 15 24 2 15 24 2 14 24 3 12 24 3 12 24 3 12 24 3 10 24 1 9 24 3 10 24 3 8 23 2 7 24 3 8 23 2 7 23 2 7 22 1 6 24 3 8 23 2 7 23 2 7 24 3 8 
27 2 8 29 4 8 28 3 7 28 3 7 28 3 9 29 4 8 29 4 8 28 3 7 28 3 7 43 7 9 37 7 9 28 3 7 29 4 8 28 3 7 28 3 7 28 3 7 28 3 9 26 3 9 26 4 7 28 3 7 29 4 8 28 3 7 27 2 8 25 2 8 26 3 9 28 3 7 29 4 8 29 4 8 29 4 8 29 4 8 49 11 10 29 4 8 28 3 9 28 3 9 29 4 8 28 3 9 26 4 7 26 3 9 29 4 10 28 3 7 255 255 255 254 254 254 255 255 255 255 255 255 255 255 255 255 255 255 255 255 255 255 255 255 255 255 255 255 255 255 255 255 255 255 255 255 255 255 255 255 255 255 255 255 255 255 255 255 255 255 255 255 255 255 255 255 255 255 255 255 27 3 17 26 4 16 26 2 16 25 2 18 25 4 19 27 4 20 27 4 20 24 3 20 27 4 30 29 8 39 29 6 35 26 5 24 25 4 23 25 4 21 24 4 32 26 4 40 26 3 31 24 3 20 24 5 37 24 4 32 25 4 19 25 3 16 23 3 14 25 3 15 25 4 13 24 3 12 23 2 11 24 3 10 23 2 9 24 3 10 24 3 8 24 1 7 22 1 6 24 3 8 23 2 7 23 2 7 25 4 9 24 3 8 24 3 8 24 3 8 
28 3 7 29 4 8 29 4 8 28 3 7 28 3 7 29 4 8 29 4 8 30 3 8 30 3 8 43 7 9 38 6 7 30 5 9 29 4 8 29 4 8 29 4 8 28 3 7 28 3 7 29 4 8 29 4 8 29 4 8 30 3 8 29 4 7 29 4 8 29 4 8 29 4 8 30 3 8 31 5 8 29 4 8 29 4 8 31 4 9 50 10 10 30 5 9 30 3 8 29 4 8 32 6 9 29 4 8 28 3 7 29 4 8 27 2 8 29 4 8 255 255 255 255 255 255 255 255 255 255 255 255 255 255 255 255 255 255 255 255 255 255 255 255 255 255 255 255 255 255 255 255 255 255 255 255 255 255 255 255 255 255 255 255 255 255 255 255 255 255 255 255 255 255 255 255 255 255 255 255 29 3 14 28 5 15 27 3 16 27 3 17 26 4 17 26 3 19 28 4 20 27 4 22 27 4 22 29 5 37 32 8 42 29 6 32 28 3 22 28 5 23 27 5 28 25 5 40 25 4 35 26 5 22 26 5 36 24 4 32 26 5 20 25 3 16 25 3 16 24 2 14 24 3 12 24 3 12 24 3 12 24 3 10 24 1 9 24 3 10 24 3 8 24 3 8 23 2 7 22 1 6 23 2 7 24 3 8 23 2 7 23 2 7 24 3 8 23 2 7 
28 3 7 30 3 8 28 3 7 28 3 7 29 4 8 28 3 7 28 3 7 30 3 8 31 4 9 43 7 9 38 6 7 29 4 8 30 3 8 30 3 8 29 4 8 28 3 7 29 4 8 28 3 7 28 3 7 28 6 9 29 4 8 28 3 7 28 3 7 28 3 7 28 3 6 28 3 7 30 3 8 29 4 8 30 3 8 31 5 8 50 10 10 30 3 8 29 2 7 28 3 7 31 4 9 28 3 9 28 3 7 28 3 7 29 4 10 30 5 9 255 255 255 254 254 254 255 255 255 254 254 254 255 255 255 255 255 255 255 255 255 255 255 255 255 255 255 255 255 255 255 255 255 255 255 255 255 255 255 255 255 255 255 255 255 255 255 255 255 255 255 255 255 255 255 255 255 255 255 255 27 4 14 30 4 15 27 3 16 27 3 16 27 3 17 26 2 18 27 3 17 28 4 20 26 2 18 31 5 30 31 5 40 30 7 36 28 4 26 28 3 22 28 4 26 27 6 39 23 6 38 26 4 27 24 5 33 24 5 35 25 4 19 24 4 16 24 4 16 24 3 12 25 4 13 24 3 12 24 3 12 24 3 10 23 2 9 24 3 10 23 2 7 24 1 7 24 3 8 23 2 7 24 3 8 23 2 7 24 3 8 23 2 7 24 3 8 24 3 8 
27 2 6 30 3 8 29 4 8 29 4 8 28 3 9 29 4 8 29 4 8 29 4 8 28 3 7 43 7 9 38 8 10 28 3 7 29 4 8 29 4 8 29 4 8 27 2 6 29 4 8 28 3 7 28 3 7 29 4 8 29 4 8 29 4 8 26 4 7 28 3 7 28 3 9 29 4 8 31 4 9 29 4 8 29 4 8 30 3 8 50 10 10 29 4 8 28 3 7 29 4 8 30 5 9 29 4 8 28 3 7 28 3 7 28 3 7 28 3 7 255 255 255 255 255 255 255 255 255 255 255 255 255 255 255 255 255 255 255 255 255 255 255 255 255 255 255 255 255 255 255 255 255 255 255 255 255 255 255 255 255 255 255 255 255 255 255 255 255 255 255 255 255 255 255 255 255 255 255 255 27 3 16 28 5 15 25 3 15 26 2 15 27 3 17 28 4 18 27 3 17 27 3 19 25 2 20 38 7 22 31 6 36 30 6 40 27 4 32 26 3 19 27 4 22 25 5 33 27 5 41 26 5 38 26 5 38 25 5 40 25 2 18 26 4 17 25 3 16 24 2 14 24 3 12 24 3 12 24 3 12 24 3 10 24 1 9 24 3 10 23 2 7 24 3 8 23 2 7 23 2 7 24 3 8 23 2 7 24 3 8 24 3 8 23 2 7 23 2 7 
28 3 7 30 3 8 26 4 7 29 4 8 29 4 8 29 4 8 30 3 8 29 4 7 28 3 7 43 7 9 39 7 8 29 4 8 30 5 8 30 4 7 30 3 8 28 3 7 29 4 8 27 5 8 29 2 7 29 4 8 30 3 10 29 4 8 28 3 7 29 4 8 28 3 7 29 2 7 30 4 5 29 4 7 31 4 9 31 5 8 50 10 8 30 3 8 30 4 7 29 4 8 30 3 8 29 4 8 29 2 7 29 2 7 30 5 9 30 5 9 255 255 255 255 255 255 255 255 255 254 254 254 255 255 255 255 255 255 255 255 255 255 255 255 255 255 255 255 255 255 255 255 255 255 255 255 255 255 255 255 255 255 255 255 255 255 255 255 255 255 255 255 255 255 255 255 255 255 255 255 27 4 14 30 4 13 26 3 13 26 2 15 27 3 16 28 5 15 29 2 17 28 4 18 27 3 19 43 10 21 36 7 29 31 7 41 30 6 40 28 5 25 25 2 22 25 3 24 27 4 33 24 5 37 26 5 38 28 5 34 25 2 18 25 3 15 25 1 15 24 2 14 24 3 12 24 3 12 24 3 12 24 3 10 23 2 9 25 4 11 23 2 7 24 1 7 24 3 8 24 3 8 23 2 7 24 3 8 24 3 8 24 3 8 23 2 7 24 3 8 
27 2 5 30 3 8 28 3 7 28 3 7 25 3 6 28 3 7 28 3 7 28 3 7 28 3 7 43 7 9 38 6 9 28 3 7 29 4 8 28 3 7 30 3 8 28 3 7 27 2 6 28 3 7 27 2 6 28 3 7 28 3 7 28 3 9 27 2 6 26 4 7 26 3 9 28 3 7 29 4 8 28 3 7 29 4 8 31 5 8 49 9 9 29 2 7 29 4 7 28 3 6 29 4 8 29 4 8 28 3 7 27 2 6 29 4 8 28 3 7 255 255 255 255 255 255 255 255 255 255 255 255 255 255 255 255 255 255 255 255 255 255 255 255 255 255 255 255 255 255 255 255 255 255 255 255 255 255 255 255 255 255 255 255 255 255 255 255 255 255 255 255 255 255 255 255 255 255 255 255 26 3 11 28 2 11 25 2 10 26 3 13 26 2 15 27 4 14 27 3 17 28 4 18 28 4 20 45 9 19 35 7 22 31 6 35 31 8 37 29 6 34 28 4 20 25 4 21 28 3 22 26 3 21 27 4 24 26 3 23 25 2 18 26 3 19 24 4 15 23 3 14 24 3 12 24 3 12 24 3 12 24 3 10 24 1 9 24 3 10 23 2 7 24 3 8 24 3 8 23 2 7 24 3 8 24 3 8 24 3 8 24 3 8 26 5 10 24 3 8 
28 3 7 29 2 7 27 2 6 28 3 7 29 4 10 29 4 8 29 4 8 30 4 7 29 4 8 42 8 9 39 7 10 28 3 6 28 3 7 30 3 8 29 4 8 28 3 7 29 2 9 27 2 8 28 3 7 28 3 7 28 3 7 29 4 8 28 3 7 28 3 7 27 5 8 28 3 7 31 4 9 28 3 7 27 5 8 29 4 10 48 10 9 30 3 8 29 4 8 28 3 7 30 3 8 29 4 8 28 3 7 25 3 6 28 3 7 28 3 7 255 255 255 255 255 255 255 255 253 255 255 255 255 255 255 255 255 255 255 255 255 255 255 255 255 255 255 255 255 255 255 255 255 255 255 255 255 255 255 255 255 255 255 255 255 255 255 255 255 255 255 255 255 255 255 255 255 255 255 255 29 4 10 29 4 10 27 4 10 29 3 12 26 3 13 29 3 16 30 4 17 30 4 17 29 5 19 42 9 18 36 5 21 27 3 25 32 7 39 31 7 41 29 5 27 26 3 21 27 2 21 26 3 19 26 3 21 25 2 18 25 3 16 25 3 16 25 3 16 25 3 16 24 2 15 24 2 14 24 3 12 24 3 12 25 2 10 25 2 10 25 2 10 24 3 8 25 4 9 23 2 7 24 3 8 24 3 8 24 3 8 24 3 8 24 3 8 24 3 8 
28 3 9 29 4 8 27 2 8 28 3 7 27 2 6 28 3 7 28 3 9 30 3 8 27 5 8 39 7 8 38 8 8 29 4 10 29 4 8 29 4 8 28 3 6 26 4 7 29 2 9 26 3 9 27 2 6 29 4 7 28 3 7 28 3 9 28 3 9 28 3 9 28 3 7 27 5 8 29 4 8 28 3 7 30 3 8 30 3 8 49 9 9 29 4 8 28 3 7 28 1 6 29 4 8 28 3 7 26 3 9 28 3 9 26 3 9 29 2 9 255 255 255 255 255 255 255 255 255 255 255 255 255 255 255 255 255 255 255 255 255 255 255 255 255 255 255 255 255 255 255 255 255 255 255 255 255 255 255 255 255 255 255 255 255 255 255 255 255 255 255 255 255 255 255 255 255 255 255 255 28 3 9 30 3 10 26 3 11 27 4 12 28 2 13 29 3 12 26 2 15 29 3 16 26 2 15 45 10 17 35 4 19 28 4 18 30 6 32 31 7 39 28 8 36 27 4 22 26 3 21 26 3 19 26 3 19 25 2 20 27 3 17 25 3 16 25 3 16 26 4 16 24 3 12 24 3 12 24 3 12 23 2 11 25 2 10 24 1 9 24 3 8 24 4 6 24 3 8 25 4 9 24 3 8 23 2 7 24 3 8 25 4 9 23 2 7 25 4 9 
28 3 7 32 6 9 28 3 7 29 4 8 27 5 8 30 4 7 31 5 8 30 4 7 28 3 7 42 8 9 40 8 9 29 4 8 30 3 8 30 5 9 31 4 9 29 4 8 29 4 8 28 3 7 29 4 8 30 3 8 30 5 8 30 4 7 27 5 7 28 3 7 28 3 7 29 4 8 30 3 8 31 4 9 30 3 8 30 4 7 51 9 10 31 5 8 30 3 8 29 4 8 30 4 7 29 4 8 29 4 8 28 3 7 29 2 7 30 3 8 255 255 255 255 255 255 255 255 255 255 255 255 255 255 255 255 255 255 255 255 255 255 255 255 255 255 255 255 255 255 255 255 255 255 255 255 255 255 255 255 255 255 255 255 255 255 255 255 255 255 255 255 255 255 255 255 255 255 255 255 29 4 8 31 4 9 29 4 10 30 5 11 27 4 12 30 4 15 31 3 15 30 4 15 29 5 18 45 10 16 34 3 18 28 4 18 31 4 23 31 6 38 33 7 42 29 5 31 27 3 19 27 2 21 27 4 20 27 4 20 27 3 17 26 2 16 25 3 15 26 4 17 25 4 13 24 3 12 24 3 10 24 3 12 24 3 8 24 1 9 24 3 8 23 4 8 24 3 8 24 3 8 25 4 9 23 2 7 25 4 9 25 4 9 23 2 7 24 3 8 
28 3 7 30 3 8 28 3 7 29 4 8 28 3 7 29 2 7 29 2 7 30 4 7 30 4 7 43 7 9 39 7 10 29 4 8 30 3 8 30 3 8 29 2 7 28 3 7 28 3 7 27 2 6 29 4 8 30 3 8 31 4 9 28 3 7 29 4 8 28 3 7 29 4 8 29 4 7 31 4 9 31 4 9 29 4 8 32 6 9 50 10 8 30 5 8 28 3 7 30 4 7 30 3 8 29 2 7 28 3 6 29 2 7 29 4 8 30 3 8 255 253 254 255 255 255 255 255 255 255 255 255 255 255 255 255 255 255 255 255 255 255 255 255 255 255 255 255 255 255 255 255 255 255 255 255 255 255 255 255 255 255 255 255 255 255 255 255 255 255 255 255 255 255 255 255 255 255 255 255 29 2 7 31 4 9 29 4 10 30 5 11 29 3 12 31 4 13 30 4 13 30 4 15 29 3 16 45 8 15 35 5 17 30 3 18 31 4 19 29 4 26 32 7 39 31 6 38 28 4 20 28 4 20 27 3 17 26 4 17 28 4 17 25 3 16 25 3 15 23 3 14 23 3 12 25 4 13 24 3 10 23 2 11 24 3 10 23 2 9 25 4 9 23 2 7 24 3 8 23 2 7 24 3 8 24 3 8 24 3 8 24 3 8 24 3 8 24 3 8 
29 4 8 31 4 9 30 3 8 29 4 8 29 4 8 30 4 7 30 3 8 31 4 9 29 4 10 41 7 6 40 8 9 30 4 7 30 3 8 31 4 9 31 4 9 27 2 6 29 4 8 29 4 8 29 4 8 30 3 8 29 4 7 29 4 8 30 3 8 29 2 7 30 3 8 28 3 7 30 3 8 30 3 8 31 4 9 30 4 7 50 10 10 30 5 8 29 4 8 30 3 8 32 3 7 28 3 7 30 3 8 29 4 8 29 2 7 30 3 8 255 255 255 255 255 255 255 255 255 255 255 255 255 255 255 255 255 255 255 255 255 255 255 255 255 255 255 255 255 255 255 255 255 255 255 255 255 255 255 255 255 255 255 255 255 255 255 255 255 255 255 255 255 255 255 255 255 255 255 255 28 3 7 33 4 9 28 3 7 29 4 10 28 2 11 30 5 11 30 4 13 30 4 13 30 2 14 46 9 17 36 6 18 30 4 17 30 4 15 30 3 18 31 6 35 31 8 37 29 5 31 28 4 18 27 3 17 26 4 16 27 3 16 26 4 16 25 3 16 24 2 14 24 2 14 24 3 12 23 2 11 24 3 12 24 3 10 24 3 8 24 4 6 23 4 8 24 3 8 24 3 8 24 3 8 25 4 9 25 4 9 24 3 8 24 3 8 24 3 8 
27 2 6 30 3 8 28 3 7 28 3 7 27 2 6 28 3 7 29 4 8 29 4 8 29 4 8 42 8 9 38 6 7 28 3 7 29 4 8 30 3 8 28 3 7 28 3 9 28 3 7 26 4 7 28 3 7 30 5 9 27 5 8 28 3 7 28 3 7 28 3 7 28 3 7 29 4 8 30 3 8 29 4 8 29 2 7 30 3 8 49 11 10 29 4 7 30 3 8 30 4 7 30 5 9 29 4 8 28 3 7 26 4 7 28 3 7 28 3 6 254 254 254 255 255 255 255 255 255 255 255 255 255 255 255 255 255 255 255 255 255 255 255 255 255 255 255 255 255 255 255 255 255 255 255 255 255 255 255 255 255 255 255 255 255 255 255 255 255 255 255 255 255 255 255 255 255 255 255 255 28 3 9 29 4 10 26 3 9 29 4 10 28 2 11 30 3 12 29 3 12 29 3 12 27 4 14 47 7 16 33 5 17 29 3 16 28 4 17 28 4 20 29 4 23 30 6 40 30 6 40 27 4 24 28 4 18 28 4 18 28 4 17 25 3 15 25 3 15 24 2 14 23 1 13 26 2 15 27 1 12 24 3 10 25 4 9 24 5 9 25 6 10 23 5 5 24 5 7 25 6 8 23 4 6 24 5 7 24 5 7 24 5 7 24 5 7 23 4 6 
43 9 10 44 8 8 43 7 9 43 9 8 43 9 8 43 9 10 44 8 10 45 10 8 43 9 8 49 9 9 48 10 9 43 9 8 44 8 8 44 8 8 43 7 7 42 8 7 44 8 8 42 8 7 44 8 8 43 8 6 46 7 8 43 9 8 44 8 10 43 8 12 44 8 10 43 9 8 44 8 8 44 8 8 44 8 10 44 8 10 54 10 7 43 9 7 44 8 8 42 8 7 43 7 7 44 8 10 42 8 6 43 9 10 41 7 8 44 8 10 255 255 255 255 255 255 255 255 255 255 255 255 255 255 255 255 255 255 255 255 255 255 255 255 255 255 255 255 255 255 255 255 255 255 255 255 255 255 255 255 255 255 255 255 255 255 255 255 255 255 255 255 255 255 255 255 255 255 255 255 42 8 9 44 8 8 42 8 9 43 7 9 43 8 12 43 8 12 43 8 12 43 11 16 43 8 12 51 12 13 46 9 17 45 10 17 44 9 15 43 8 15 43 7 17 33 7 32 30 6 40 31 6 36 26 2 18 26 2 16 28 4 17 25 4 13 25 3 15 25 3 15 25 4 13 24 3 12 24 3 12 24 3 12 24 5 9 24 5 7 24 5 7 24 5 7 24 5 7 24 5 7 24 5 7 24 5 7 25 6 8 24 5 7 26 7 9 24 5 7 
37 5 8 38 6 7 37 5 8 38 6 7 38 6 9 39 7 10 40 5 9 41 5 7 38 6 9 47 9 6 46 7 8 38 6 9 38 6 9 38 6 7 38 6 9 37 5 8 38 6 9 38 6 9 38 6 9 38 6 7 38 6 9 38 6 9 38 6 9 37 5 8 38 6 9 37 7 9 41 6 10 38 6 9 40 5 9 40 5 9 53 11 12 38 6 7 38 6 7 40 6 7 38 6 7 37 7 9 38 6 7 38 6 9 38 6 9 40 6 7 255 255 255 254 254 254 255 255 255 255 255 255 255 255 255 255 255 255 255 255 255 255 255 255 255 255 255 255 255 255 255 255 255 255 255 255 255 255 255 255 255 255 255 255 255 255 255 255 255 255 255 255 255 255 255 255 255 255 255 255 37 7 9 39 7 10 37 7 9 38 6 9 38 6 9 38 6 9 36 5 10 37 6 11 35 4 12 49 10 13 39 6 17 38 7 15 36 6 14 36 6 16 39 6 17 31 4 21 31 7 39 31 7 39 29 5 27 27 3 16 27 4 14 25 3 15 25 3 15 25 4 13 25 5 14 25 4 13 25 4 11 24 3 10 25 6 8 24 5 9 24 5 9 24 5 9 25 6 10 24 5 9 24 5 9 25 6 10 24 5 9 24 5 9 25 6 10 24 5 9 
28 3 7 31 4 9 28 3 7 27 2 6 28 3 7 30 5 9 31 4 9 30 3 8 29 4 8 42 8 9 39 7 8 29 4 8 30 4 7 29 2 7 29 4 8 28 3 7 28 3 7 28 3 6 30 5 9 28 1 6 29 4 8 28 3 7 29 4 8 28 3 7 29 4 8 28 3 7 30 3 8 30 3 8 30 3 8 31 5 8 49 9 9 29 4 8 31 4 9 30 3 8 30 3 8 28 3 6 28 3 7 29 4 8 29 4 8 29 4 8 255 255 255 255 255 255 255 255 255 255 255 255 255 255 255 255 255 255 255 255 255 255 255 255 255 255 255 255 255 255 255 255 255 255 255 255 255 255 255 255 255 255 255 255 255 255 255 255 255 255 255 255 255 255 255 255 255 255 255 255 29 4 8 30 3 8 28 3 7 29 4 8 28 3 7 30 3 10 29 4 10 30 3 12 28 2 13 44 9 13 35 4 12 29 3 14 30 4 17 29 3 16 30 4 17 27 3 16 28 4 28 30 6 40 31 6 36 26 3 19 27 3 16 26 4 16 25 3 16 24 4 15 27 8 14 25 5 14 24 4 13 25 2 12 24 5 7 26 5 10 24 5 9 24 5 7 23 7 8 24 5 9 24 5 9 26 5 10 24 5 9 24 5 9 24 5 7 25 5 7 
29 2 7 31 4 9 30 3 8 29 2 7 29 4 8 31 4 9 30 3 8 31 5 8 29 4 8 43 7 9 42 8 9 29 4 8 31 5 8 31 4 9 29 2 7 29 2 7 29 4 8 29 2 7 30 3 8 30 3 8 30 3 8 29 4 7 29 4 8 28 3 7 29 4 8 29 2 7 31 4 9 30 3 8 30 4 7 29 4 7 48 10 9 30 3 8 30 4 7 31 5 8 31 5 8 28 3 6 29 4 8 30 5 9 29 4 8 30 3 8 255 255 255 255 255 255 255 255 255 255 255 255 255 255 255 255 255 255 255 255 255 255 255 255 255 255 255 255 255 255 255 255 255 255 255 255 255 255 255 255 255 255 255 255 255 255 255 255 255 255 255 255 255 255 255 255 255 255 255 255 30 3 8 31 5 8 29 4 8 29 4 8 29 4 8 30 3 8 30 3 10 31 4 11 29 2 11 46 10 12 36 5 11 29 3 12 31 5 16 30 4 15 30 4 17 27 3 17 27 5 18 31 6 36 31 7 39 29 5 27 27 3 16 26 4 16 26 5 14 26 7 11 25 5 14 26 6 15 25 5 14 26 6 15 26 7 9 23 13 11 24 13 11 26 15 11 26 12 9 26 12 9 28 12 12 27 13 12 27 14 8 24 13 11 25 14 12 24 14 12 
30 3 8 30 3 8 29 2 7 29 4 8 30 3 8 30 4 7 31 5 8 31 5 8 30 3 8 42 8 9 39 7 8 29 4 7 30 4 7 30 4 7 29 2 7 26 4 7 29 4 8 29 4 8 28 3 7 29 4 8 30 3 8 30 4 7 30 3 8 29 2 7 30 4 7 29 4 8 30 3 8 31 4 9 31 5 8 31 5 8 49 9 7 30 4 7 31 5 8 32 6 9 30 4 7 29 4 7 29 4 7 29 4 7 29 3 6 30 4 7 255 255 255 255 255 255 255 255 255 255 255 255 255 255 255 255 255 255 255 255 255 255 255 255 255 255 255 255 255 255 255 255 255 255 255 255 255 255 255 255 255 255 255 255 255 255 255 255 255 255 255 255 255 255 255 255 255 255 255 255 30 3 8 31 5 8 29 2 7 29 2 7 29 4 8 31 4 9 29 2 9 30 3 10 30 3 10 46 10 12 36 5 10 29 3 12 30 4 13 30 4 13 30 4 15 27 3 16 27 3 16 28 3 24 30 6 40 31 8 37 29 5 18 27 5 17 25 3 15 26 6 15 26 7 13 25 5 14 26 5 12 23 6 14 26 7 11 25 21 12 26 17 12 26 12 9 26 12 11 26 12 9 23 13 11 26 12 11 24 13 9 26 12 11 26 12 11 26 12 12 
28 3 7 30 3 8 28 3 7 28 3 7 28 3 7 30 3 8 29 2 7 30 4 7 30 3 8 41 7 8 41 7 8 29 4 8 33 4 8 30 4 7 30 3 8 29 4 8 28 3 7 28 3 7 29 2 7 29 4 8 30 3 8 26 4 6 28 3 7 28 3 7 28 3 7 29 2 7 30 3 8 30 3 8 30 4 7 31 5 8 49 9 9 30 5 9 30 3 8 30 3 8 30 4 7 29 4 7 28 3 7 28 3 7 29 2 7 28 1 6 255 255 255 255 255 255 255 255 255 255 255 255 255 255 255 255 255 255 255 255 255 255 255 255 255 255 255 255 255 255 255 255 255 255 255 255 255 255 255 255 255 255 255 255 255 255 255 255 255 255 255 255 255 255 255 255 255 255 255 255 28 3 7 31 4 9 28 3 7 29 4 8 28 3 7 30 3 8 29 4 8 30 3 10 29 4 10 45 9 11 36 5 10 29 4 10 31 5 14 29 3 12 30 4 15 28 2 13 29 3 16 29 3 16 30 5 34 30 6 38 28 4 30 27 4 14 26 6 15 26 6 15 26 7 13 27 6 13 27 8 14 26 7 13 26 7 9 23 16 10 26 15 11 22 8 8 23 7 8 25 6 8 24 8 9 24 8 11 26 7 9 26 7 11 26 6 8 22 6 7 
28 3 7 30 3 8 28 3 7 28 3 7 28 1 6 29 2 7 29 2 7 31 5 8 27 2 6 42 8 9 37 7 7 28 3 7 28 3 7 29 4 8 28 3 7 29 4 8 28 3 7 28 3 7 28 3 7 28 3 7 28 3 7 28 3 7 28 3 7 28 3 7 28 3 7 28 3 7 30 3 8 30 3 8 30 3 8 29 4 8 49 9 9 29 4 8 29 2 7 29 4 8 30 3 8 28 3 7 28 3 7 28 3 7 27 2 6 29 4 8 255 255 255 255 255 255 254 254 254 255 255 255 255 255 255 255 255 255 255 255 255 255 255 255 255 255 255 255 255 255 255 255 255 255 255 255 255 255 255 255 255 255 255 255 255 255 255 255 255 255 255 255 255 255 255 255 255 255 255 255 28 3 7 29 2 7 28 3 7 29 4 8 27 2 6 29 2 9 28 3 7 30 3 10 29 4 10 44 10 11 37 6 11 28 2 11 30 4 13 29 3 12 29 3 14 27 4 14 26 2 15 27 3 16 28 4 20 30 6 40 32 7 37 27 5 18 26 7 13 26 7 13 25 5 14 27 6 13 26 6 15 25 5 14 24 8 9 24 10 9 28 19 12 26 10 10 23 7 8 25 6 8 24 8 9 25 6 10 25 6 10 26 6 8 25 6 8 25 6 8 
29 4 8 29 4 8 27 2 6 28 3 7 25 3 6 29 4 8 29 4 8 30 3 8 26 1 5 41 7 8 38 8 8 28 3 7 29 4 10 29 4 8 28 3 7 27 2 6 28 3 7 27 2 6 26 4 7 27 2 6 28 3 7 25 3 6 28 3 7 28 3 7 27 2 6 28 3 7 29 4 8 26 4 7 29 2 7 30 3 8 48 8 8 29 4 8 28 3 7 28 3 7 29 4 8 28 3 7 27 2 6 28 3 7 28 3 7 28 3 7 255 255 255 255 255 255 255 255 255 255 255 255 255 255 255 255 255 255 255 255 255 255 255 255 255 255 255 255 255 255 255 255 255 255 255 255 255 255 255 255 255 255 255 255 255 255 255 255 255 255 255 255 255 255 255 255 255 255 255 255 28 3 7 29 4 8 28 3 9 28 3 7 25 3 6 29 4 8 29 4 8 28 3 7 28 3 9 45 9 11 35 4 9 29 3 14 30 4 13 29 3 12 27 4 14 26 3 13 26 2 15 26 2 15 28 5 15 30 6 32 31 5 40 28 5 31 25 5 14 26 6 15 25 5 14 25 5 14 25 5 14 26 7 13 26 10 11 26 7 9 26 17 12 27 16 12 23 7 8 25 6 8 26 7 9 26 7 9 23 9 8 24 8 11 26 8 8 25 9 10 
28 3 7 29 4 8 29 4 8 28 3 7 28 3 7 30 3 8 30 3 8 29 4 7 30 3 8 41 7 8 39 7 8 28 3 7 29 2 7 28 3 7 30 3 8 27 2 6 28 3 7 27 2 6 28 3 7 27 2 6 29 4 8 28 3 7 28 3 7 28 3 7 28 3 7 28 3 7 30 4 7 30 3 8 29 4 8 30 3 8 49 9 9 29 4 8 29 4 7 30 3 8 29 4 8 29 4 10 28 3 7 28 3 7 28 3 7 28 3 7 255 255 255 255 255 255 255 255 255 255 255 255 255 255 255 255 255 255 255 255 255 255 255 255 255 255 255 255 255 255 255 255 255 255 255 255 255 255 255 255 255 255 255 255 255 255 255 255 255 255 255 255 255 255 255 255 255 255 255 255 28 3 7 29 4 8 27 2 6 28 3 7 27 2 6 29 2 7 28 3 7 29 4 8 29 4 10 44 8 10 36 5 10 29 4 10 29 3 12 27 4 12 29 3 12 27 3 16 27 4 12 27 4 14 26 2 15 26 2 18 31 6 38 29 5 39 27 4 20 26 7 13 25 5 14 26 7 13 25 6 10 27 8 12 26 10 13 25 9 12 25 14 10 27 20 14 24 8 9 26 7 9 25 6 8 26 6 8 23 7 8 22 8 8 24 6 6 24 10 9 
28 3 7 30 3 8 29 2 7 29 2 7 28 3 7 30 3 8 29 4 7 29 4 7 30 3 8 42 8 9 39 7 8 29 4 8 30 4 7 30 4 7 30 4 7 29 4 8 29 2 7 28 3 7 29 2 7 28 3 6 30 3 8 28 3 7 29 4 8 28 3 6 28 3 7 28 3 7 30 4 5 32 3 8 30 3 8 30 4 7 50 10 10 30 3 8 28 3 7 29 2 7 27 5 8 29 4 7 29 4 7 30 5 8 30 4 7 30 4 7 255 255 255 255 255 255 255 255 255 255 255 255 255 255 255 255 255 255 255 255 255 255 255 255 255 255 255 255 255 255 255 255 255 255 255 255 255 255 255 255 255 255 255 255 255 255 255 255 255 255 255 255 255 255 255 255 255 255 255 255 29 4 8 31 4 9 28 3 7 27 2 6 28 3 7 31 4 9 29 4 7 30 3 8 28 3 9 45 9 13 36 5 10 29 4 10 30 4 13 30 4 13 30 5 11 29 3 12 27 4 14 27 6 15 25 6 12 27 4 14 28 5 31 31 7 39 29 4 33 25 5 14 26 6 15 27 8 14 24 10 10 27 11 12 26 10 11 26 10 11 25 11 11 28 21 13 26 17 12 26 15 11 25 11 10 26 7 9 26 8 8 26 7 9 26 8 8 27 16 10 
