P3
100 50
255
6 14 50 5 13 49 6 14 51 5 13 49 6 14 50 5 13 50 5 14 55 6 14 60 6 14 63 6 16 69 6 15 74 8 16 79 7 16 85 8 16 91 9 16 96 11 17 105 10 17 107 19 23 131 22 25 132 24 25 133 24 25 131 24 25 133 26 24 131 26 24 131 20 20 116 17 19 106 23 20 101 21 17 93 20 19 89 19 17 82 59 22 76 38 20 70 20 18 67 20 17 62 19 16 59 20 16 53 17 15 52 15 15 53 16 16 54 20 15 55 14 18 55 19 17 56 14 16 55 14 18 55 13 17 55 17 19 57 18 17 57 19 19 57 16 20 58 43 19 55 48 18 52 15 17 56 18 18 54 17 17 55 20 18 55 12 16 54 16 16 54 16 16 52 18 16 55 17 15 52 20 16 53 17 15 52 17 17 53 15 15 49 17 17 53 15 15 51 20 16 51 19 15 52 21 17 54 18 18 56 65 21 54 26 18 57 17 19 57 16 18 57 16 20 58 16 21 59 13 20 62 13 20 62 14 21 63 14 23 64 12 24 66 14 26 68 12 25 67 8 25 69 10 24 69 9 26 70 10 30 80 9 54 111 11 69 132 11 71 133 10 69 129 9 44 100 10 28 76 12 25 70 11 25 70 10 24 69 10 25 68 10 23 67 8 23 64 10 23 65 
5 13 49 5 13 49 4 12 49 5 13 49 5 13 49 5 13 50 4 13 54 5 13 59 6 14 63 6 16 69 6 15 74 8 16 79 7 16 85 8 16 91 9 16 96 12 18 106 10 17 107 18 22 129 20 23 130 24 25 133 27 25 134 23 24 132 26 24 131 24 24 134 20 20 116 17 19 106 21 17 101 21 17 93 20 17 86 20 18 83 60 21 76 37 19 71 19 17 67 19 16 63 19 16 59 20 15 55 14 17 52 14 16 54 15 17 55 18 16 55 14 18 56 19 19 57 15 19 57 15 19 56 13 17 55 17 19 57 17 19 57 17 19 57 16 20 58 43 19 55 45 19 54 15 17 55 15 18 53 17 17 55 19 19 57 13 17 55 15 17 56 13 15 53 16 16 54 14 16 54 18 16 53 16 16 54 15 15 53 16 16 52 15 17 55 17 17 55 20 16 53 17 17 55 19 17 56 15 17 56 66 22 57 27 21 59 19 18 58 18 20 59 19 21 60 16 21 63 14 22 61 16 21 63 16 23 65 16 23 67 13 25 67 17 24 68 13 26 70 11 26 69 10 27 73 11 42 99 9 69 129 11 73 132 10 71 128 9 54 113 10 30 81 11 25 70 11 25 70 11 24 68 12 25 69 11 24 68 11 22 67 11 22 68 8 23 66 8 21 63 
4 12 48 5 13 49 4 12 48 6 14 50 5 13 49 5 13 49 5 14 55 5 13 59 6 14 63 5 15 68 7 16 75 8 16 79 7 16 85 8 16 91 10 17 97 11 17 105 10 15 106 19 24 128 21 24 131 24 25 131 24 25 131 22 25 132 27 25 132 24 25 131 20 20 116 18 18 106 21 19 102 20 16 92 21 18 89 19 17 82 61 22 77 37 19 71 19 17 67 19 17 64 18 17 61 15 17 55 13 15 53 11 15 52 15 17 55 17 17 55 12 15 56 16 18 56 15 18 59 14 17 58 11 19 58 15 20 58 14 19 57 15 19 57 15 20 58 42 20 56 42 19 61 14 19 57 15 19 57 14 17 58 17 19 57 14 18 56 13 18 58 13 17 55 14 18 56 14 18 56 19 19 57 17 16 56 14 18 56 14 18 55 15 17 56 13 17 55 17 19 57 16 18 57 17 20 55 15 19 57 64 22 58 26 21 61 15 20 62 15 20 60 13 22 63 13 22 63 11 24 66 10 23 65 10 23 67 12 25 67 8 25 68 11 25 70 8 26 72 7 35 85 7 59 117 7 71 132 10 68 131 10 58 120 6 36 86 6 25 68 8 25 69 6 25 68 7 26 69 9 23 68 8 23 66 8 23 66 7 22 65 7 22 65 5 20 59 5 20 61 
5 13 49 4 12 48 6 14 50 5 13 49 4 12 48 5 13 49 4 13 54 6 14 60 6 14 63 8 15 69 7 16 75 7 15 78 7 16 85 9 17 92 9 16 96 12 18 106 11 16 107 19 23 130 19 23 131 23 24 132 25 23 132 23 26 133 27 25 132 22 25 132 18 18 114 17 17 105 21 19 103 20 18 93 20 17 88 17 16 82 61 22 75 36 19 71 17 17 67 18 16 63 19 18 62 18 18 56 12 16 54 13 17 55 12 16 54 15 17 56 11 19 58 15 21 57 11 19 58 11 20 59 8 20 62 16 19 60 14 22 59 13 21 60 15 20 60 37 21 58 40 19 60 16 19 60 14 22 61 15 18 59 15 18 59 11 19 58 14 19 59 14 19 59 15 19 57 14 19 59 16 20 58 15 18 59 15 19 57 14 19 57 14 17 58 14 19 59 15 20 58 16 21 59 16 21 59 16 21 61 61 23 60 24 22 62 13 22 63 13 22 63 13 22 65 10 23 65 10 23 67 8 26 66 7 24 67 11 26 69 6 25 68 9 33 81 8 50 108 6 67 132 4 73 130 5 64 122 6 42 94 5 26 71 7 24 68 6 24 70 6 25 68 6 25 68 5 22 66 4 23 66 5 22 65 5 22 65 6 21 64 5 20 63 5 20 61 6 19 61 
5 13 49 5 13 49 6 14 50 5 13 49 5 13 49 5 13 49 4 13 54 6 14 60 7 15 64 7 14 68 6 15 74 7 15 78 7 16 85 8 16 91 10 17 97 11 17 105 11 17 105 17 24 128 20 24 131 24 25 131 24 25 131 22 25 130 27 25 132 23 24 130 20 20 116 18 18 106 21 19 102 21 19 94 20 17 86 18 16 81 61 22 77 36 19 73 19 17 67 19 16 63 18 16 56 15 17 56 12 16 54 11 16 54 14 18 56 16 18 57 10 18 57 16 20 58 14 19 59 13 21 60 9 21 63 13 21 60 13 21 60 13 22 63 13 20 62 39 21 61 41 23 63 13 21 60 15 20 60 14 22 61 16 19 60 12 20 59 15 20 58 14 22 61 15 20 58 12 22 58 16 21 61 16 19 60 16 21 61 13 21 60 13 21 60 12 21 62 17 22 64 12 21 60 17 22 64 11 23 63 63 25 62 24 23 63 14 23 66 12 24 66 15 24 67 12 24 66 11 24 68 10 24 69 8 25 71 10 27 73 8 45 100 11 67 128 8 68 131 5 65 125 6 47 103 5 27 74 6 24 70 5 24 67 6 23 67 5 24 67 5 24 66 6 23 66 5 22 66 5 22 65 4 21 64 6 21 64 5 20 61 4 22 62 4 19 60 4 18 57 
5 13 49 6 14 50 4 12 48 5 13 49 5 13 49 5 13 49 5 14 55 6 14 60 7 15 64 7 14 68 6 15 74 8 16 79 7 16 85 9 17 92 9 16 96 11 18 106 10 17 105 18 22 129 19 23 130 23 24 130 25 23 132 23 24 132 26 24 133 24 25 131 18 21 116 17 19 104 20 18 101 20 18 93 21 18 87 17 18 83 60 23 77 37 18 73 16 16 68 18 16 65 17 18 62 15 19 57 14 18 56 14 17 58 14 19 57 16 21 59 8 20 62 15 20 60 10 22 62 14 21 65 10 22 64 13 22 63 14 23 64 13 22 63 13 22 65 39 22 66 41 23 65 13 22 65 13 20 62 14 21 63 13 20 62 14 23 64 13 22 63 13 20 62 14 22 61 12 21 62 14 21 63 14 21 63 12 21 62 12 20 66 11 20 59 14 23 64 17 22 64 13 22 63 14 21 63 9 21 63 63 25 64 22 24 65 13 24 69 13 24 69 15 24 67 11 25 70 9 26 69 9 26 70 9 36 89 10 60 121 9 71 132 9 67 130 7 53 112 5 31 80 6 24 72 6 24 70 3 21 67 5 24 67 4 23 66 5 24 67 5 23 63 5 22 65 7 22 63 6 21 62 5 20 61 5 20 61 6 19 61 5 19 58 4 18 57 4 18 55 
5 13 49 5 13 50 4 12 48 5 13 49 5 13 49 5 13 49 5 14 57 5 13 59 7 15 64 7 14 68 6 15 74 8 16 79 7 16 85 8 16 91 10 17 97 10 17 105 9 16 104 18 23 127 21 24 131 24 25 131 24 25 131 24 25 131 26 24 131 26 24 131 21 19 116 18 18 104 22 19 100 21 17 93 25 19 91 19 16 83 61 22 79 38 19 74 21 18 73 24 17 68 20 17 62 17 19 60 14 19 59 14 20 56 15 20 60 16 21 61 12 21 64 15 22 64 13 22 65 11 24 66 10 23 67 15 23 69 12 24 66 12 25 67 15 23 69 40 23 68 41 22 67 12 24 66 17 26 67 14 23 66 15 22 64 14 23 66 16 23 65 15 22 66 17 22 64 15 22 64 17 22 64 15 22 64 17 22 64 14 23 66 16 23 65 15 24 67 16 23 65 17 24 66 16 23 67 16 24 70 62 25 68 26 25 69 13 26 70 13 24 69 13 26 71 11 24 69 11 29 75 9 51 109 10 68 131 9 69 131 6 62 123 6 38 89 5 23 69 5 24 67 3 24 67 4 23 66 8 22 67 6 23 67 5 22 65 5 22 65 6 21 64 6 21 62 6 19 61 5 20 61 5 20 61 6 20 59 5 17 57 5 17 55 4 18 57 6 18 58 
5 13 49 5 13 50 6 14 50 5 13 49 5 13 49 5 13 49 6 15 58 5 13 59 5 13 62 8 15 69 6 15 74 8 16 79 7 16 85 9 17 92 9 16 96 10 17 105 10 17 105 19 24 128 21 24 131 24 25 131 24 25 131 23 24 132 26 24 131 26 24 131 21 19 116 21 16 106 23 18 102 22 18 92 23 17 89 18 17 83 61 22 79 39 20 76 21 16 70 24 17 68 20 18 65 17 20 61 15 20 60 17 22 62 15 22 64 17 24 66 12 23 68 17 24 70 11 24 68 13 26 70 10 24 69 11 25 70 12 25 70 15 26 72 12 26 71 41 25 74 41 23 71 13 24 70 15 26 71 14 26 68 14 25 70 13 26 70 14 26 68 13 24 69 16 23 67 17 24 70 17 24 68 16 23 67 16 25 66 14 25 70 16 25 68 14 26 66 17 24 68 15 27 69 16 25 68 13 26 70 62 25 69 25 26 70 15 28 73 13 27 72 14 28 75 10 41 95 9 63 125 10 70 130 8 66 129 9 45 103 7 28 73 8 25 69 6 24 70 5 23 69 4 23 66 4 23 66 4 21 65 5 22 65 4 21 64 6 21 62 5 20 63 5 20 61 4 19 60 5 18 60 5 19 58 5 19 56 7 16 57 5 17 55 5 17 55 4 16 54 
5 13 49 5 13 49 5 13 49 5 13 49 4 12 48 4 12 48 5 14 55 5 13 59 7 15 64 7 14 68 6 15 72 9 17 80 8 15 85 8 14 90 9 18 97 11 18 106 11 17 105 19 22 127 22 25 132 25 23 132 27 25 132 24 25 131 26 24 131 26 24 131 22 18 113 19 19 107 22 18 102 24 18 92 25 19 91 20 17 86 60 23 77 39 19 78 21 18 73 23 20 67 19 20 68 17 20 63 14 21 63 15 22 64 16 25 64 17 24 68 13 24 69 15 26 71 13 26 71 12 26 71 12 26 71 11 28 74 13 27 74 13 27 72 13 27 74 37 23 72 45 25 78 13 27 72 15 26 71 15 26 71 13 26 71 12 25 70 13 26 70 13 26 71 15 26 71 16 27 72 14 27 71 15 26 72 16 25 68 15 26 71 14 27 71 15 26 71 15 26 72 15 28 73 16 27 72 13 27 72 64 26 73 25 26 72 12 26 73 11 33 83 12 54 114 10 70 130 10 70 133 10 56 115 8 31 81 11 25 70 3 26 68 8 25 69 7 24 68 4 23 66 5 22 66 5 22 65 5 22 65 6 21 62 6 21 62 5 20 61 6 20 59 6 20 59 5 19 58 6 18 58 5 17 55 5 17 55 6 15 54 6 15 54 4 16 54 4 16 54 
6 14 50 5 13 49 5 13 49 5 13 49 5 13 49 5 13 49 6 15 56 5 13 59 6 14 63 7 14 68 6 15 72 7 15 78 8 17 86 9 15 91 9 18 97 11 17 105 11 17 105 19 22 127 21 24 131 25 23 130 26 24 131 23 24 130 25 23 130 26 24 131 21 20 114 19 19 107 23 18 102 20 18 93 22 18 92 20 17 84 61 22 79 38 21 76 19 16 71 21 19 69 18 21 66 16 24 63 13 22 63 13 25 67 14 23 66 17 24 68 12 25 69 15 26 71 13 26 71 12 26 71 7 25 71 12 30 80 12 35 89 10 40 94 11 44 97 28 43 100 34 36 95 10 32 82 14 28 75 14 27 72 14 27 71 15 28 72 16 27 72 14 27 72 14 27 72 15 27 69 16 27 72 14 28 75 14 28 73 11 28 74 13 27 76 11 28 74 14 28 77 13 29 78 14 28 75 12 29 75 65 27 78 24 27 78 10 49 104 11 67 128 12 74 131 10 60 119 7 35 85 8 25 71 8 25 69 8 25 69 6 25 68 8 25 69 6 23 66 5 22 66 6 23 66 6 21 64 4 22 62 5 20 61 5 20 61 6 19 61 5 19 58 9 18 59 5 17 57 4 18 57 3 15 53 4 16 54 4 16 54 4 16 54 6 15 54 6 15 54 
5 13 49 5 13 49 5 13 49 4 12 48 5 13 49 5 13 49 4 13 54 5 13 59 5 13 62 7 14 68 8 14 72 8 16 79 8 15 85 8 16 91 8 17 96 11 17 105 11 17 105 19 22 127 21 24 131 25 23 130 25 23 130 23 24 130 26 24 131 26 24 131 38 23 116 42 23 105 43 22 101 45 22 100 45 22 94 45 20 88 67 24 77 59 24 78 44 21 75 47 21 69 43 24 69 41 24 66 39 23 62 39 24 67 42 25 67 41 24 68 33 23 73 12 37 91 10 46 98 9 54 111 8 62 122 9 68 124 10 69 125 11 72 129 13 74 131 12 73 130 12 73 130 12 71 129 9 54 113 31 29 78 40 27 73 40 26 75 39 27 75 40 28 76 39 27 75 38 29 76 40 28 78 40 28 78 38 29 76 38 29 76 40 28 76 37 29 78 41 27 80 42 28 79 41 29 79 40 28 76 56 31 88 22 56 117 12 73 128 10 71 128 10 49 106 13 31 79 5 26 73 7 24 68 7 24 68 7 24 70 5 24 67 9 24 67 5 22 65 3 20 63 7 20 62 5 20 61 7 20 62 5 18 60 6 18 58 6 18 58 4 18 57 6 15 54 4 16 56 6 15 54 4 16 54 6 15 54 4 16 54 5 14 53 5 14 53 6 15 54 
4 12 48 6 14 50 5 13 49 5 13 49 6 14 50 5 13 49 4 13 54 6 14 60 6 14 63 6 13 67 7 16 75 7 15 78 8 17 86 10 16 92 9 18 97 11 17 105 11 17 105 19 22 127 22 25 132 26 24 131 26 24 131 24 25 131 27 25 132 26 24 131 48 25 115 61 24 104 62 25 103 60 26 103 62 25 94 60 24 86 80 25 80 67 24 77 62 25 77 62 24 73 61 25 71 60 25 67 58 26 67 58 25 68 57 24 69 59 30 78 17 62 121 11 72 129 12 73 130 13 74 131 12 72 132 12 75 129 12 74 131 12 74 131 11 71 131 11 71 131 11 73 130 12 74 131 13 74 131 21 62 124 52 33 88 58 29 77 60 28 77 60 28 77 57 27 77 58 28 78 60 28 78 61 28 81 59 29 79 58 30 81 59 29 79 58 30 81 58 29 85 59 30 84 58 28 80 53 39 92 21 68 124 12 74 131 10 62 120 10 40 94 9 30 77 10 27 73 6 27 72 10 27 70 6 25 68 6 24 72 4 23 65 8 23 64 4 21 64 5 20 61 5 18 60 6 19 61 5 19 58 7 16 57 5 17 57 6 18 58 7 15 54 6 15 54 7 15 54 6 15 54 3 16 51 5 15 51 6 16 52 5 15 51 5 14 53 6 16 52 
5 13 49 4 12 48 5 13 49 5 13 49 6 14 50 5 13 49 6 15 56 6 14 60 6 14 63 8 15 69 6 15 74 7 15 78 9 16 86 10 16 92 9 18 97 11 17 105 11 17 105 19 22 127 22 25 132 26 24 133 26 24 131 23 24 130 26 24 131 25 23 130 21 19 116 17 17 105 20 18 102 22 19 100 23 19 95 19 18 86 60 21 78 37 22 77 19 22 77 20 24 72 17 25 72 17 24 68 12 25 69 12 25 70 13 26 71 10 55 114 10 72 131 12 74 131 11 71 131 9 68 128 9 60 117 11 53 111 9 44 102 11 38 93 11 34 84 8 34 85 9 40 95 10 56 116 12 73 130 11 73 130 11 70 128 8 45 98 10 30 80 10 30 80 10 30 80 12 29 81 12 32 85 12 34 84 10 33 85 13 33 86 10 35 89 10 45 101 11 47 105 11 40 96 12 43 100 14 70 127 13 74 128 9 52 107 8 34 85 10 28 76 12 28 79 11 28 74 7 25 71 7 24 68 7 24 70 5 22 66 8 23 66 5 23 63 5 20 61 5 18 62 6 20 59 4 18 57 5 17 57 6 18 56 5 17 55 6 15 54 5 14 53 6 16 52 5 15 51 5 15 50 5 15 51 3 13 49 5 15 51 5 15 51 6 15 54 4 16 54 
5 13 49 6 14 50 4 12 48 5 13 49 6 14 50 5 13 49 5 14 55 6 14 60 6 14 63 8 15 69 6 15 74 7 15 78 8 15 85 9 15 91 9 18 97 10 17 105 11 17 105 19 22 127 21 24 131 25 23 132 26 24 131 24 25 131 27 25 132 26 24 131 22 21 114 19 19 105 24 19 103 21 18 99 22 19 90 23 20 87 66 25 81 37 22 77 21 22 78 22 21 78 18 24 76 17 25 71 14 27 71 14 26 68 13 31 81 11 73 132 13 73 133 12 58 118 12 34 84 9 31 81 10 30 80 9 30 77 10 28 76 11 29 77 12 28 79 10 28 76 11 29 77 10 28 78 8 43 99 10 71 128 13 75 132 11 73 130 11 61 120 11 41 95 13 30 82 13 29 81 11 31 84 11 32 85 10 37 92 12 54 112 12 71 127 14 77 131 15 78 132 13 76 127 14 74 128 11 71 125 11 42 96 10 31 84 8 30 80 10 28 76 12 28 77 10 28 76 7 25 71 6 23 67 6 23 67 5 22 65 5 22 65 6 21 64 5 20 59 4 19 58 5 17 57 6 18 56 4 16 56 4 16 54 4 17 52 5 15 51 5 15 51 5 15 51 6 16 52 4 14 50 5 15 51 5 15 51 5 15 50 5 15 51 4 17 52 4 16 54 
5 13 49 5 13 49 4 12 48 5 13 49 4 12 48 5 13 49 4 13 54 6 14 60 7 15 64 6 13 67 6 15 74 7 15 78 7 16 85 10 16 92 9 18 97 10 15 106 11 17 105 20 23 128 21 24 131 25 23 130 26 24 131 24 25 131 26 24 131 25 23 130 21 21 119 19 19 107 24 18 104 21 17 101 22 18 94 22 19 88 65 25 85 38 25 81 20 25 80 20 26 78 20 25 80 16 27 72 16 27 72 14 27 71 9 54 111 13 74 129 11 71 131 15 30 85 11 29 77 10 30 80 5 29 77 8 28 78 8 29 76 8 29 76 8 29 76 9 30 77 12 30 78 11 27 76 12 28 77 11 31 81 9 50 106 10 72 131 13 74 131 14 77 131 12 63 120 11 37 94 12 34 84 12 59 115 14 77 131 16 77 131 12 78 130 15 78 131 15 78 131 15 78 131 15 78 131 11 56 113 12 33 86 10 32 82 7 30 80 8 30 79 10 28 76 6 27 74 8 25 71 4 25 68 5 22 65 4 21 64 5 23 63 5 20 61 5 19 58 5 19 58 4 16 54 6 15 54 6 15 54 4 17 52 6 16 52 6 14 51 5 15 51 6 14 51 5 15 51 6 14 50 5 15 51 5 15 51 6 16 52 6 14 51 4 16 54 5 17 55 
4 12 48 4 12 48 4 12 48 5 13 49 5 13 49 5 13 49 5 14 55 7 15 61 6 14 63 8 15 69 7 16 75 7 15 78 6 15 84 9 17 92 9 18 97 10 15 106 11 17 105 20 23 128 20 23 130 25 23 130 26 24 131 24 25 131 26 24 131 26 24 131 20 23 118 19 19 107 23 17 103 22 19 100 22 18 94 22 19 90 68 27 87 38 24 85 19 24 79 17 22 77 18 23 78 16 27 72 14 27 71 15 33 83 10 69 127 13 76 130 9 54 111 14 27 79 12 28 77 11 27 76 10 28 76 11 27 76 11 29 77 11 29 77 9 30 75 10 28 76 11 29 77 10 28 76 12 30 78 11 29 77 10 28 76 9 35 86 10 59 115 15 76 130 15 78 131 13 74 129 11 71 125 13 79 129 15 78 131 12 77 131 10 63 117 4 44 103 6 42 100 12 71 127 15 78 131 11 77 129 9 44 100 12 32 85 7 30 80 7 29 78 10 28 78 9 27 75 7 24 70 6 23 67 5 22 65 5 23 63 3 21 61 6 20 59 4 18 57 5 17 55 6 15 54 4 16 54 6 16 52 7 17 53 6 16 52 5 15 51 6 14 51 4 12 49 5 15 51 5 15 51 5 15 51 5 15 51 6 16 52 4 17 52 7 16 55 5 17 55 
5 13 49 5 13 49 5 14 47 4 12 49 4 12 48 6 14 51 5 14 55 6 15 58 7 15 64 7 14 68 6 15 74 8 16 79 8 15 85 8 16 91 10 17 97 12 18 106 10 17 105 18 23 127 20 23 128 23 24 130 25 23 130 23 24 130 29 23 129 23 24 132 20 23 118 18 22 109 22 19 106 21 18 97 21 18 97 20 18 93 58 23 87 34 25 80 14 25 79 16 26 79 15 27 77 13 27 76 14 28 73 9 48 103 11 73 130 11 72 129 9 32 84 9 30 77 8 29 76 6 28 75 6 28 75 5 27 74 4 27 71 6 27 74 4 26 73 6 27 74 6 27 74 5 27 74 4 26 73 5 27 74 7 28 75 7 29 78 8 31 81 7 38 93 9 64 121 6 79 130 8 82 131 7 81 130 8 64 121 9 39 99 7 37 91 6 37 91 7 37 91 8 44 102 7 76 131 5 81 131 9 72 126 6 35 91 7 30 82 8 30 80 5 29 77 5 26 73 6 24 70 5 22 66 5 23 63 5 20 61 4 19 58 5 17 57 5 17 57 4 16 54 7 16 55 5 15 51 6 16 51 5 15 51 6 14 50 5 13 50 5 15 51 5 15 51 4 14 50 6 14 51 4 14 50 6 16 52 6 16 52 4 16 54 5 17 55 5 17 55 
4 12 48 6 14 50 5 13 49 5 13 49 6 14 50 5 13 49 4 13 54 5 14 57 7 15 64 8 15 69 6 15 74 7 15 78 9 16 86 8 16 91 9 16 96 11 17 105 9 16 104 18 23 127 19 24 128 25 23 132 23 24 130 24 25 133 26 25 129 23 24 130 21 24 117 17 21 110 20 20 106 21 18 99 21 18 97 18 18 92 58 26 93 35 24 84 20 26 78 19 26 78 17 27 78 13 27 74 11 29 79 10 66 125 11 73 132 11 57 116 10 28 74 13 27 72 9 27 73 4 26 73 5 26 71 7 25 71 8 25 69 8 25 68 7 24 68 10 24 69 8 25 69 7 26 69 8 25 69 9 27 73 11 28 74 12 30 78 8 30 79 9 31 81 11 32 85 11 65 125 5 81 131 7 80 131 8 63 120 6 37 92 6 37 91 6 37 91 5 38 91 8 37 93 10 52 110 4 80 130 5 81 131 7 63 122 8 33 87 7 29 78 5 29 77 5 26 73 3 24 67 8 21 66 4 21 64 5 20 61 5 19 58 5 17 57 4 16 54 6 15 54 5 14 53 5 15 51 6 14 50 5 14 53 4 12 48 5 13 50 4 12 49 5 15 51 5 15 51 6 14 51 4 14 50 5 15 51 6 16 52 5 17 55 5 17 55 4 18 57 
5 13 49 6 14 50 5 13 49 6 14 50 5 13 49 5 13 49 4 13 54 6 14 60 7 15 64 7 14 68 6 15 74 7 15 78 9 16 86 9 17 92 10 17 97 12 18 106 11 17 105 18 23 127 21 24 129 23 25 128 26 24 131 22 25 130 26 24 131 24 25 131 18 23 117 15 22 110 19 19 105 21 19 103 20 19 99 18 18 92 58 25 94 33 26 80 13 26 79 17 26 81 16 26 79 15 27 77 9 44 98 11 74 128 12 74 131 7 38 93 7 28 75 14 28 73 10 27 73 4 27 71 4 25 72 7 25 71 8 25 69 8 27 70 5 24 67 6 25 68 4 25 68 7 26 69 8 25 69 5 26 71 6 27 72 5 27 76 7 29 76 8 30 79 7 33 84 8 48 107 5 81 131 7 81 130 8 81 132 7 72 126 7 43 101 6 37 92 7 36 92 8 38 92 5 34 90 9 61 119 6 80 129 5 76 130 7 52 109 5 29 77 6 27 74 7 25 71 5 24 67 6 20 65 4 19 60 5 19 58 6 18 58 3 17 54 4 16 54 6 14 51 4 13 52 5 15 51 5 13 50 4 14 50 5 13 49 6 14 50 6 14 51 4 14 50 5 15 51 5 15 51 6 16 52 3 16 51 4 16 54 5 17 57 5 17 57 5 19 58 
4 12 48 5 13 49 5 13 49 4 12 48 4 12 48 5 13 49 5 14 55 6 14 60 6 14 63 7 14 68 6 15 74 7 15 78 9 16 86 9 17 92 9 16 96 11 17 105 12 16 105 20 23 128 20 24 131 26 24 131 25 24 128 24 26 129 26 24 131 25 27 130 21 24 117 17 23 109 23 21 105 21 17 102 21 20 98 17 20 91 58 25 94 38 24 85 19 26 80 18 25 77 16 28 80 14 30 79 11 63 121 12 73 130 11 63 121 11 28 74 9 27 75 13 27 74 8 26 72 4 25 70 7 26 69 7 24 70 5 24 67 5 22 65 5 24 67 8 22 67 9 24 67 8 23 66 8 23 66 7 24 68 9 26 70 10 27 71 10 28 76 9 29 79 9 31 81 11 33 83 9 42 96 8 60 117 6 77 129 7 81 130 6 77 131 6 45 104 9 36 89 6 36 90 8 35 90 8 35 88 9 65 122 6 77 131 8 75 130 5 37 88 5 28 72 4 25 68 5 24 67 4 22 62 6 19 61 4 18 57 5 17 57 6 15 54 6 16 52 5 15 51 5 13 50 5 13 50 5 13 49 6 14 50 6 11 49 6 14 50 5 13 50 5 13 50 4 14 50 3 16 51 6 16 52 5 17 55 4 16 54 6 18 58 6 20 59 6 20 59 
5 13 49 5 13 49 5 13 49 5 13 49 5 13 50 5 13 49 5 14 55 5 14 57 7 15 64 7 14 68 6 15 74 8 16 79 8 15 85 9 17 92 10 17 97 11 17 105 11 17 103 19 22 127 21 24 131 25 23 130 26 24 131 23 24 130 26 24 131 25 27 130 21 24 117 17 23 111 20 20 106 20 18 102 19 17 100 13 21 94 56 25 93 37 25 87 15 28 80 16 28 80 15 29 78 13 39 96 11 71 131 12 73 130 10 49 108 9 27 75 5 27 74 12 26 73 5 26 71 6 25 68 6 25 68 6 24 72 6 23 66 5 24 66 5 23 63 5 22 65 6 21 64 7 22 65 7 22 65 5 22 65 7 24 67 6 27 72 6 27 74 6 30 76 7 29 79 9 31 81 5 31 80 5 32 85 6 47 103 7 77 129 8 82 131 7 70 123 7 40 93 6 36 88 6 36 88 6 34 82 5 35 85 4 66 125 5 74 131 7 44 97 5 26 73 5 24 67 5 22 65 5 20 61 6 19 61 5 17 57 5 17 55 6 16 52 5 15 51 5 15 51 6 14 51 5 13 49 4 12 48 4 13 46 5 13 49 6 14 50 6 14 51 5 15 51 6 16 52 6 15 54 7 15 54 5 17 55 5 17 57 4 18 57 5 19 58 6 21 62 
5 13 49 4 12 48 4 12 48 5 13 49 4 12 49 5 13 49 5 14 55 6 15 58 6 14 63 8 15 69 5 14 73 8 16 79 9 16 86 9 17 92 10 17 97 11 17 105 10 17 105 19 22 127 20 23 130 26 24 131 26 24 131 23 24 130 26 24 131 25 27 128 21 26 118 19 23 110 20 22 109 22 18 103 23 20 101 18 25 93 57 28 95 36 28 87 16 29 82 16 28 80 15 28 80 14 56 116 12 75 129 11 70 130 11 34 84 12 29 75 13 27 76 13 25 73 10 24 69 6 23 67 8 25 69 6 24 64 5 22 66 5 22 65 5 22 65 6 21 62 7 20 62 4 21 64 5 22 65 8 23 66 9 24 67 8 25 69 8 26 72 8 29 76 10 28 76 10 30 80 9 29 79 10 33 85 9 32 84 10 45 103 7 78 130 6 79 132 5 56 113 5 35 87 7 34 87 6 31 85 5 31 80 5 31 82 7 40 93 6 28 77 8 27 70 7 24 70 6 21 64 5 20 63 6 18 56 5 19 58 6 16 52 6 16 52 5 15 51 6 14 51 8 14 50 4 12 48 6 14 50 7 13 49 5 13 49 5 13 50 6 14 51 5 15 51 6 16 51 7 16 55 5 17 55 5 17 55 4 18 57 5 20 61 5 20 61 6 21 62 
6 14 50 4 12 48 5 13 49 5 13 49 4 12 49 5 13 49 5 14 55 6 14 60 7 15 64 8 15 69 6 15 74 7 15 78 8 15 85 8 16 91 10 17 97 11 17 105 10 18 103 19 22 127 20 24 131 25 23 130 24 25 131 23 24 130 25 27 130 25 27 128 20 25 119 17 23 109 19 23 110 21 19 103 22 18 103 14 26 100 56 27 93 37 28 93 13 29 81 15 29 78 13 34 89 11 67 124 12 73 130 11 56 113 11 29 77 13 27 72 6 27 72 12 26 73 10 24 69 7 24 67 7 24 68 5 22 66 6 21 64 6 21 64 7 22 63 5 20 61 5 20 61 5 20 61 6 21 62 6 21 64 8 23 66 7 24 68 8 25 69 8 26 72 7 29 76 7 29 78 8 32 80 7 30 82 7 33 84 7 33 84 7 62 118 6 80 129 8 73 127 6 39 93 6 32 83 4 32 82 5 31 80 6 29 79 5 29 75 5 26 73 5 26 71 4 21 67 7 22 65 5 18 60 5 18 60 4 18 57 7 17 53 5 15 51 6 16 52 6 14 51 6 14 50 5 13 49 6 14 50 5 13 49 6 14 50 6 14 51 5 15 51 5 15 51 6 16 52 6 15 54 4 16 56 6 18 58 6 20 59 5 20 61 6 21 62 5 22 65 
5 13 49 6 14 51 5 13 49 6 14 50 5 13 49 5 13 49 5 14 55 5 13 59 6 14 63 7 14 68 6 15 74 6 14 77 7 14 84 8 16 91 9 16 96 11 17 105 11 17 105 19 22 127 19 23 130 23 24 130 25 24 128 23 24 130 27 26 130 25 27 130 19 25 119 16 21 112 20 21 111 17 23 109 20 21 103 12 26 97 54 27 94 36 30 92 13 28 83 16 28 80 10 49 108 11 72 129 10 72 129 9 42 95 10 26 75 12 26 73 4 25 70 12 25 70 5 24 66 5 22 65 6 23 66 6 21 64 5 20 61 5 18 60 5 19 58 5 19 58 5 19 58 5 19 58 5 19 58 4 19 60 5 20 61 7 21 66 6 25 68 5 26 71 3 27 71 6 28 75 6 30 78 5 31 80 4 30 81 5 33 83 6 38 95 8 78 130 7 78 130 5 52 106 6 31 85 5 33 81 3 31 79 6 29 79 5 27 76 7 25 73 5 23 71 4 21 64 7 22 65 4 19 60 7 16 59 4 16 56 6 15 54 5 15 51 5 15 51 5 13 50 5 13 50 5 13 49 5 13 49 6 14 50 6 14 51 6 14 51 6 16 52 7 15 52 7 16 55 7 17 53 6 18 58 5 19 58 5 20 61 6 21 62 6 23 66 6 23 66 
6 14 50 4 12 48 5 13 49 5 13 49 5 13 49 5 13 49 6 13 55 5 13 59 6 14 61 7 14 68 7 16 73 7 15 78 8 15 85 8 16 91 9 16 96 11 17 103 11 17 105 19 22 127 21 24 129 26 24 131 26 24 131 21 24 129 26 28 131 25 27 130 17 26 121 14 24 113 16 22 110 18 22 109 19 19 105 11 25 96 56 27 94 36 30 94 13 28 85 15 31 82 13 63 126 13 74 131 11 63 123 11 29 77 5 26 71 10 24 69 7 24 68 12 23 68 5 22 65 5 22 65 5 20 61 4 19 60 6 18 58 5 17 55 4 16 56 7 16 55 4 17 52 5 17 55 5 17 55 5 19 58 5 18 60 2 21 61 4 21 65 6 25 68 4 25 70 4 25 70 5 27 74 7 29 78 6 29 79 5 31 80 5 33 83 7 63 122 5 76 130 5 66 123 2 34 81 7 30 80 5 28 78 5 29 77 5 27 76 7 26 69 6 23 67 4 21 64 6 21 62 5 18 60 6 18 56 5 18 53 6 16 52 5 13 50 6 14 51 6 14 50 5 13 49 4 13 46 6 12 46 5 13 50 3 13 49 5 13 50 6 15 56 4 16 54 5 17 55 6 18 58 5 19 58 5 18 60 6 21 64 5 22 65 5 24 67 6 25 68 
4 12 48 5 13 49 5 13 49 5 13 49 5 13 49 5 13 49 7 14 56 6 14 60 6 14 61 7 14 68 7 16 73 6 16 78 7 16 85 8 14 90 10 15 96 11 17 103 12 18 104 19 22 129 20 24 131 23 23 133 26 24 131 22 23 129 25 27 128 26 28 129 20 26 122 15 24 115 18 25 115 17 23 109 18 20 107 15 25 97 55 28 99 35 30 96 11 30 88 14 39 95 10 75 129 13 74 131 7 48 104 10 26 75 7 28 75 11 25 70 8 25 69 10 23 65 7 22 65 4 21 64 5 20 61 4 18 57 4 18 57 4 16 54 3 15 53 5 14 53 6 16 52 4 17 52 5 17 57 5 17 55 5 19 58 5 20 61 7 22 65 5 24 66 6 23 67 4 27 71 4 25 70 6 28 75 5 29 77 6 29 79 4 32 80 7 49 107 9 76 131 6 73 126 6 39 92 6 29 79 7 29 78 6 28 75 4 26 73 6 24 70 6 23 66 5 22 65 5 20 61 5 19 58 4 18 57 4 16 54 5 15 51 5 13 50 5 13 50 5 13 49 5 13 49 4 12 48 5 13 49 5 13 50 6 16 52 6 16 52 7 15 54 4 16 54 5 17 57 5 19 58 6 20 59 6 21 60 5 22 65 6 23 66 5 23 69 6 24 70 
5 13 49 5 13 49 5 13 49 5 13 49 5 13 49 4 12 48 7 14 56 6 14 60 6 14 61 7 14 68 6 15 72 8 16 79 8 15 85 8 16 91 10 17 97 11 17 103 11 17 103 18 23 127 20 23 130 24 22 129 25 23 130 24 26 129 24 27 130 25 29 129 16 24 122 14 23 116 15 25 114 17 23 109 17 21 108 13 25 99 55 28 99 34 29 95 18 29 91 14 52 117 15 76 130 13 72 128 9 32 84 11 29 77 11 28 74 8 25 71 7 24 68 10 23 67 9 22 66 4 22 62 5 20 61 5 17 57 4 18 55 4 16 54 5 14 53 6 16 52 5 15 50 5 15 51 7 17 53 7 16 55 4 16 54 6 18 56 5 20 61 5 22 65 5 24 66 7 24 68 7 25 71 5 26 73 5 27 76 5 29 77 4 31 78 6 38 89 6 73 128 6 75 130 6 49 104 6 28 75 6 30 76 4 26 75 6 27 72 6 25 68 5 22 65 5 22 65 5 20 61 4 18 57 5 19 58 4 16 56 5 15 51 5 13 50 6 14 51 6 14 50 5 13 49 5 13 49 4 12 49 5 13 50 6 14 50 2 16 51 5 17 55 5 17 57 6 18 58 5 19 58 6 21 62 5 23 63 6 23 66 4 25 68 6 24 70 5 26 71 
5 13 49 6 14 50 4 12 48 5 13 49 5 13 49 5 13 49 6 13 55 6 14 60 6 14 61 7 14 68 6 15 72 7 15 78 8 15 85 8 16 91 10 17 97 11 19 104 10 17 105 19 22 127 19 22 127 26 24 131 27 26 130 24 26 127 25 27 128 25 27 128 19 25 119 15 24 115 15 25 114 18 24 110 19 21 108 11 25 96 55 28 97 35 30 96 16 34 98 12 68 125 13 79 131 11 60 116 9 30 77 12 29 75 11 27 76 10 24 69 8 25 69 10 23 65 7 20 62 5 20 61 5 19 58 6 18 58 4 16 56 4 14 50 5 15 51 4 14 50 4 14 49 8 13 51 6 14 51 4 14 50 6 16 52 5 17 55 5 18 60 5 20 61 5 22 65 4 21 64 5 24 67 4 25 70 5 26 71 5 27 74 7 29 78 6 32 81 5 64 120 7 74 129 6 58 118 6 28 77 5 27 74 5 27 74 7 25 71 5 24 67 5 22 65 5 20 63 5 20 61 5 19 58 6 18 58 4 16 56 7 17 53 6 14 51 6 14 51 5 13 49 5 13 49 4 12 48 5 13 50 6 14 51 5 15 51 5 17 55 8 17 56 6 20 59 6 19 61 5 20 61 4 21 64 6 23 66 6 25 68 4 25 72 6 27 74 6 27 72 
5 13 49 5 13 49 5 13 49 5 13 49 5 13 49 5 13 49 5 12 54 6 14 60 6 14 61 7 14 68 6 15 72 8 16 79 7 16 85 9 15 91 10 17 97 11 17 103 11 17 105 19 22 127 22 23 129 23 24 130 24 26 129 25 27 128 26 28 131 26 28 131 16 24 122 14 25 117 16 23 113 17 21 108 16 22 108 14 23 98 55 28 99 34 29 96 12 41 109 12 78 130 14 77 130 10 42 101 10 28 74 11 27 78 10 28 76 9 23 68 7 24 68 9 22 64 6 21 62 5 20 61 5 18 60 4 18 57 3 17 54 5 15 51 5 15 51 6 16 52 8 13 51 5 13 49 6 14 51 6 14 50 5 15 51 4 16 54 5 19 58 5 20 61 6 21 62 4 21 65 5 22 65 5 24 67 4 25 68 6 27 74 5 27 74 5 29 77 4 53 109 5 71 129 6 67 124 4 32 79 4 26 73 5 28 72 4 25 70 6 25 68 5 22 65 5 20 61 6 21 60 5 19 58 5 17 57 5 17 57 5 14 53 4 14 50 5 13 50 6 14 50 5 13 49 5 13 49 5 13 50 7 15 52 6 16 52 5 17 55 6 18 58 5 18 60 5 20 61 4 21 64 5 24 67 6 25 68 3 26 70 6 28 75 6 28 75 6 30 78 
5 13 49 5 13 49 6 14 50 5 13 49 4 12 48 4 12 48 5 12 54 6 14 60 6 14 61 8 15 69 6 15 72 7 15 78 7 14 84 9 17 92 9 16 96 12 18 104 9 16 104 18 23 127 20 22 131 24 25 131 26 24 131 24 26 129 26 28 131 26 28 128 17 26 121 13 23 118 17 23 111 18 22 109 19 23 110 12 24 100 53 25 99 35 30 96 13 58 123 15 78 131 13 69 128 11 31 82 9 30 77 9 27 73 8 29 74 11 25 70 5 24 67 9 22 64 6 21 62 6 21 62 5 19 58 6 18 58 5 14 53 5 15 51 4 14 50 5 13 50 5 13 49 5 13 50 7 15 51 6 14 51 5 15 51 7 16 55 6 18 56 6 20 59 5 20 61 6 21 62 5 22 65 5 22 65 5 24 67 5 26 71 6 26 76 6 28 77 6 41 97 6 72 130 7 69 128 6 39 92 7 28 73 6 27 74 4 27 71 6 23 69 5 23 63 6 21 62 6 19 61 6 20 59 6 18 58 3 15 53 6 15 54 5 15 51 5 13 49 5 13 50 5 13 50 5 13 50 6 14 51 6 14 51 5 18 53 6 18 56 7 19 59 6 21 62 3 22 64 6 23 67 7 26 69 6 27 72 5 29 75 5 29 77 6 29 79 6 29 81 
4 12 48 7 15 51 5 13 49 5 13 49 5 13 49 4 12 48 6 13 55 5 13 59 6 14 61 8 15 69 6 15 72 7 15 78 8 15 85 8 16 91 10 17 97 10 18 103 10 16 104 18 23 127 21 24 129 25 23 130 24 26 129 24 25 131 25 27 130 25 27 128 31 25 121 31 25 113 36 26 113 35 25 111 35 25 111 32 26 100 64 28 100 43 36 106 13 69 126 15 78 131 13 55 115 13 29 80 11 29 77 9 27 75 9 25 74 9 23 68 5 24 67 10 22 64 7 22 63 4 19 60 5 19 58 5 17 57 6 15 54 5 15 51 6 14 51 5 13 49 4 12 48 6 14 50 6 14 51 7 15 52 5 15 51 6 16 52 6 18 56 6 20 59 4 17 59 5 20 61 5 22 65 5 22 66 5 22 65 7 25 71 5 26 73 5 27 74 6 34 84 7 71 132 7 72 130 6 45 100 5 27 74 5 26 71 5 26 71 7 21 66 5 22 65 6 21 62 6 19 61 5 18 60 4 16 54 5 17 55 7 16 55 6 14 51 5 13 49 4 12 49 4 12 49 7 15 52 5 15 51 6 16 52 4 16 54 5 19 58 6 21 62 5 22 65 6 23 67 6 24 70 5 26 71 6 28 75 3 29 78 7 30 80 5 33 83 6 43 98 
5 13 49 4 12 48 3 11 47 5 13 49 5 13 49 6 14 50 5 12 54 5 13 59 6 14 61 8 15 69 6 15 72 6 14 77 7 14 84 10 16 92 8 15 95 11 17 103 10 17 105 18 23 125 22 23 129 25 24 128 25 27 130 25 27 130 27 26 130 26 28 129 44 29 124 55 29 120 56 28 115 56 27 107 59 28 106 55 27 102 75 27 101 47 41 111 14 77 130 15 76 130 12 38 95 14 30 81 11 29 75 10 28 76 10 27 73 8 25 69 5 24 67 9 22 64 4 22 62 5 20 61 6 19 61 5 19 58 5 14 53 5 15 51 6 14 51 4 12 48 5 13 49 6 14 50 5 13 50 4 12 49 6 14 51 6 16 52 5 18 53 5 17 57 5 18 60 5 20 59 5 20 61 7 22 63 5 22 65 6 25 68 5 26 73 5 28 72 7 29 78 5 63 126 7 72 130 5 52 106 5 26 71 4 26 73 6 24 70 5 22 66 7 22 65 3 21 61 5 20 61 6 20 59 6 18 56 4 16 54 5 14 53 5 13 50 4 13 46 5 13 50 5 13 50 6 14 51 4 17 52 7 16 55 5 19 58 5 18 60 6 21 64 6 23 67 6 23 69 5 26 73 5 27 76 6 29 79 5 33 81 6 33 86 5 37 88 7 68 123 
6 14 50 5 13 49 6 14 50 5 13 49 5 13 49 5 13 49 5 12 54 5 13 59 6 14 61 7 14 68 7 13 73 7 15 78 9 16 84 8 14 92 10 17 97 11 17 105 9 16 104 18 23 127 21 24 131 23 26 131 25 24 128 24 26 129 24 28 128 25 29 129 16 26 123 15 26 118 15 24 115 18 24 110 19 23 110 15 21 105 56 26 100 29 59 123 14 77 128 12 71 127 12 34 91 10 32 81 9 29 80 11 29 77 9 27 75 8 25 69 6 23 67 9 22 64 5 23 63 6 21 64 6 19 61 4 18 57 6 15 54 5 15 51 6 14 50 5 13 49 6 14 50 5 13 49 4 12 48 5 13 49 6 14 51 6 16 52 5 17 55 3 18 57 5 18 60 6 20 59 7 21 60 5 23 63 7 22 65 4 23 66 4 25 70 5 26 73 6 29 73 8 60 118 6 72 130 6 56 117 4 27 71 6 27 72 6 24 70 6 23 67 6 21 62 6 19 61 5 20 59 6 18 58 6 18 58 5 17 57 5 14 53 3 11 47 5 13 49 4 13 52 6 14 51 5 15 51 5 14 53 5 17 57 5 19 58 5 20 63 4 23 66 7 24 70 8 26 74 5 29 77 7 31 79 6 32 81 6 33 86 5 35 89 7 53 112 6 82 131 
5 13 49 5 13 49 5 13 49 4 12 48 5 13 49 4 12 48 5 12 54 6 14 60 6 14 63 7 14 68 7 16 73 7 15 78 9 16 84 9 15 91 10 17 97 11 17 105 10 16 104 20 23 128 20 25 127 25 27 130 24 26 127 25 27 130 25 27 128 24 28 128 17 27 124 11 26 121 15 26 118 17 23 109 18 22 111 16 22 108 48 28 113 25 67 125 14 77 128 14 63 121 13 33 86 10 32 82 9 29 79 9 30 77 10 26 75 8 27 70 9 23 68 11 23 65 8 23 64 4 21 64 7 19 61 4 18 57 5 17 55 5 15 51 6 14 51 5 13 49 4 12 48 4 12 48 5 13 49 6 14 50 5 13 49 6 16 52 4 17 52 7 19 59 5 18 60 6 20 59 6 20 59 6 21 62 4 21 64 4 23 66 5 26 73 5 26 73 5 27 74 5 51 110 6 72 130 7 63 122 3 27 71 5 26 71 6 24 70 6 23 67 6 21 62 6 19 61 5 20 59 5 17 57 5 17 57 5 17 57 4 13 52 5 14 47 5 13 49 4 14 50 6 14 51 6 15 54 5 17 55 5 17 57 5 20 59 4 21 64 5 23 69 6 27 72 6 28 75 6 30 78 6 32 83 7 34 87 6 36 90 6 41 97 5 79 128 6 84 130 
6 14 50 5 13 49 4 12 48 5 13 49 4 12 48 5 13 49 5 12 54 5 13 59 6 14 61 7 14 68 6 15 72 7 15 78 8 15 83 8 16 91 10 17 97 11 17 105 11 17 105 19 22 127 21 22 128 23 26 129 24 27 130 24 26 129 25 27 128 26 28 129 17 27 124 15 25 122 12 25 117 19 23 110 16 22 108 17 23 109 31 41 113 14 75 129 15 76 130 12 50 113 12 33 86 9 30 83 9 31 80 8 30 77 8 29 74 8 26 72 6 25 68 9 24 65 8 23 64 6 21 64 5 18 60 5 17 57 7 16 55 6 14 51 6 14 50 5 13 49 6 14 50 5 13 49 4 12 48 4 12 48 5 13 50 5 15 51 5 15 51 5 17 57 4 18 57 6 20 59 5 19 58 4 22 62 3 20 63 5 24 67 4 25 70 6 27 74 6 27 72 6 47 103 5 71 129 7 68 125 5 29 77 4 27 71 4 25 70 5 24 67 5 23 63 6 19 61 5 20 59 5 19 58 6 18 58 6 18 58 5 14 53 6 14 50 5 13 50 4 14 49 5 15 51 4 16 54 7 16 57 5 19 58 6 21 62 5 22 65 7 25 71 5 27 74 8 31 81 6 32 83 4 34 86 7 37 91 7 40 94 6 66 120 7 86 129 4 81 127 
5 13 49 5 13 49 4 12 48 5 13 49 6 14 50 5 13 49 6 13 55 5 13 59 7 15 62 8 15 70 7 16 73 7 15 78 8 15 83 8 16 89 10 17 97 10 16 104 11 17 105 19 22 127 22 25 130 24 26 129 25 27 128 24 28 128 26 28 129 27 26 128 17 26 121 12 25 119 14 25 117 19 23 110 17 23 109 17 23 111 15 53 124 15 77 128 13 72 128 12 36 98 10 31 84 9 30 83 8 30 79 10 28 76 9 27 75 10 27 73 7 24 68 9 22 64 8 23 64 5 20 63 2 20 60 5 17 57 5 17 55 6 14 51 6 14 51 5 13 49 6 14 50 5 13 49 5 13 49 6 14 50 6 14 50 6 14 51 6 16 52 8 17 56 5 19 58 5 19 58 7 19 59 6 21 62 3 21 61 5 22 65 5 23 69 5 26 71 5 26 71 6 42 94 7 72 128 7 69 126 4 30 79 5 26 71 5 26 71 5 24 67 4 22 62 6 19 61 5 20 59 5 19 58 6 18 58 5 17 57 4 16 54 4 14 49 6 14 51 5 15 51 6 16 52 7 16 55 5 17 57 6 19 61 7 22 65 5 23 69 5 27 74 6 30 78 5 33 81 4 34 88 6 37 92 6 38 95 6 52 112 8 87 128 5 88 128 8 82 131 
6 14 50 5 13 49 5 13 49 5 13 49 5 13 49 5 13 49 6 13 55 5 13 59 6 14 63 6 13 67 8 14 72 7 15 78 8 15 83 8 14 90 9 16 94 10 16 104 10 17 105 19 22 127 21 24 131 23 24 130 23 25 128 22 27 129 28 27 129 20 30 128 15 28 124 14 24 119 14 24 119 18 22 109 17 25 110 15 27 111 15 69 129 14 77 128 14 77 130 13 74 129 9 68 128 9 65 124 6 60 120 10 51 107 8 28 78 8 26 72 8 25 69 10 23 65 8 23 64 6 21 62 4 19 58 5 17 57 7 16 55 5 15 51 5 13 50 5 13 49 5 14 47 4 12 48 4 12 48 5 13 49 4 12 48 4 12 48 5 15 51 6 18 56 4 18 57 5 19 58 6 20 59 6 21 62 6 21 62 4 23 65 6 24 70 6 27 72 6 27 72 6 36 86 7 72 128 6 71 129 6 34 84 4 25 70 5 26 71 5 24 67 4 22 62 6 19 61 5 20 61 6 20 59 5 19 58 5 19 58 4 16 54 5 15 50 4 14 49 4 14 50 6 16 52 4 16 54 5 19 58 6 21 62 6 24 64 6 24 70 6 28 77 5 31 80 7 34 87 5 36 91 6 38 95 6 42 100 7 75 124 6 91 130 6 84 130 4 87 129 
6 14 50 4 12 48 4 12 48 5 13 49 5 13 49 4 12 48 7 14 56 6 14 60 7 15 62 7 14 68 9 15 73 8 16 79 8 15 83 9 15 91 9 16 94 11 17 105 11 17 105 19 22 127 20 23 128 23 25 128 23 26 129 21 26 128 24 28 128 25 29 129 15 28 124 11 26 121 14 25 117 18 24 110 17 23 109 15 19 106 24 46 119 15 76 130 15 78 131 14 77 128 15 78 129 13 76 129 8 75 128 12 73 128 10 46 104 10 27 73 8 25 69 11 23 65 7 22 63 4 22 62 6 20 59 5 17 57 7 16 55 5 15 51 6 14 50 6 14 50 5 13 50 5 13 49 5 13 49 8 14 50 6 14 50 5 13 50 5 15 51 5 17 55 6 18 58 5 19 58 5 19 58 5 20 61 6 19 61 3 22 64 5 23 69 6 27 72 4 27 71 6 32 81 6 71 129 6 71 129 7 37 89 5 26 71 5 26 71 6 25 68 4 21 64 6 19 61 5 20 61 4 18 57 5 19 58 5 19 58 6 18 56 5 15 51 7 16 49 4 14 50 6 16 52 5 17 55 4 19 60 5 22 65 3 24 69 5 26 73 7 31 79 5 33 83 7 37 91 4 39 93 6 40 101 5 55 114 6 91 128 5 90 129 5 86 129 7 89 129 
5 13 49 4 12 48 5 13 49 5 13 49 5 13 49 4 12 48 5 12 54 6 14 60 7 15 64 7 14 68 6 15 72 7 15 78 8 15 83 9 15 89 9 17 92 11 17 105 10 16 104 20 23 128 20 23 128 22 23 129 24 26 129 22 27 131 25 27 128 18 30 128 14 27 123 13 26 122 14 25 117 18 22 109 19 24 108 14 20 104 56 25 101 32 36 109 11 49 114 13 58 117 9 64 121 12 73 128 5 76 128 8 75 127 10 43 97 8 26 72 7 26 69 10 23 65 5 20 61 6 21 62 6 20 59 5 17 57 7 16 55 4 14 50 5 13 50 5 13 49 4 12 48 5 13 49 4 12 48 7 13 47 5 14 47 5 13 49 5 15 51 6 18 56 6 20 59 6 20 59 5 18 60 6 21 62 5 20 61 4 21 64 6 25 68 6 27 72 4 27 71 6 30 78 7 67 129 7 72 130 4 40 92 5 26 71 5 26 71 7 26 69 7 22 65 6 19 61 5 20 61 5 19 58 6 20 59 6 20 59 4 18 57 4 14 49 5 15 51 4 16 54 7 16 55 6 18 58 5 20 61 5 22 66 4 25 68 6 28 75 5 31 80 5 35 87 6 37 91 6 41 97 7 46 105 6 80 125 5 93 129 5 86 129 9 94 131 6 95 129 
4 12 48 4 12 48 4 12 48 4 12 48 5 13 49 5 13 49 5 12 54 6 14 60 6 14 61 8 15 69 6 15 72 8 16 79 8 15 83 9 17 90 9 16 94 11 17 105 11 17 105 19 22 127 21 22 128 22 25 128 26 25 127 25 27 128 24 28 128 24 28 128 18 28 123 13 26 120 14 25 117 17 23 109 18 24 110 15 21 107 57 26 104 34 29 95 13 28 95 15 32 88 11 36 92 9 70 127 5 76 128 9 64 121 7 31 79 8 26 72 8 25 69 10 23 65 6 21 62 4 22 62 6 20 59 5 17 57 6 15 54 4 14 50 6 14 51 5 13 49 5 13 49 4 12 48 5 13 49 7 13 49 5 13 49 5 13 49 5 13 50 5 17 55 5 19 58 7 19 59 6 19 61 6 21 62 6 21 62 5 22 65 5 24 67 5 26 73 7 25 71 5 29 77 8 63 127 7 72 128 3 43 94 7 25 71 6 27 72 6 25 68 5 20 63 6 19 61 5 20 63 5 19 58 6 20 59 5 19 58 6 18 58 6 16 52 5 15 51 6 16 52 5 17 55 5 19 58 6 21 64 5 24 67 4 27 71 6 30 78 5 33 83 5 35 89 7 40 94 4 43 100 6 61 117 7 92 129 6 90 127 6 91 128 8 93 130 6 95 129 
5 13 49 7 13 49 5 13 49 6 14 50 4 12 48 5 13 49 5 12 54 6 14 60 6 14 63 7 14 68 7 13 71 7 15 77 8 15 83 8 16 89 9 17 92 11 17 105 12 16 103 19 24 126 20 23 128 22 23 129 23 27 127 22 30 131 25 27 128 22 30 128 16 26 121 13 26 122 14 25 117 18 24 112 17 25 110 13 23 108 55 28 105 35 30 94 12 30 96 13 32 88 13 59 119 14 77 130 7 74 129 8 43 99 6 27 74 8 26 72 7 26 69 9 22 64 5 22 65 6 21 62 4 19 58 5 17 55 7 15 54 6 16 52 5 13 50 5 13 49 4 12 48 5 13 49 5 13 49 5 13 49 6 14 50 5 13 49 5 13 49 4 16 54 7 19 59 5 19 58 6 18 58 6 19 61 7 20 62 4 21 64 5 23 69 6 24 70 5 26 71 6 29 73 6 62 123 5 72 127 5 45 97 5 26 71 5 26 71 5 23 69 5 22 65 7 20 62 6 21 60 6 20 59 6 20 59 6 20 59 6 18 60 5 15 51 6 16 52 4 16 54 6 18 56 5 20 61 6 23 66 7 24 70 5 27 74 6 30 78 6 33 86 6 37 92 6 41 99 7 52 111 6 83 127 8 93 130 5 94 128 5 94 128 5 94 128 6 95 129 
5 13 49 6 14 50 4 12 48 5 13 49 5 13 49 5 13 49 6 13 55 5 13 59 6 14 61 8 15 69 7 13 71 8 16 78 8 15 83 9 17 90 9 16 94 11 17 105 10 18 103 19 22 125 20 23 128 22 24 127 24 26 127 24 28 128 25 27 128 23 31 130 18 27 122 13 26 120 14 25 115 17 23 109 17 23 109 14 22 103 57 25 101 35 28 95 13 28 95 13 38 95 13 72 128 11 76 130 7 62 119 9 31 81 8 26 72 8 26 72 7 24 68 10 23 65 6 21 62 5 20 61 6 20 57 5 17 55 3 17 52 5 15 50 5 13 50 5 13 49 5 13 49 9 13 50 5 13 49 5 13 49 5 13 49 5 13 49 4 14 49 5 17 55 7 19 59 7 19 59 6 20 59 7 20 62 6 19 61 6 21 64 6 25 68 6 27 70 6 27 72 5 27 74 6 62 123 6 73 128 5 46 100 5 26 71 3 26 70 3 26 70 4 23 65 5 20 61 6 20 59 5 19 58 5 19 58 5 19 58 4 18 57 7 15 52 6 15 54 5 17 55 6 18 58 6 21 62 6 23 67 6 24 72 5 27 76 7 30 82 7 35 85 7 40 94 7 43 101 5 65 119 7 92 129 6 91 130 5 94 128 5 94 128 6 95 129 6 95 129 
4 12 48 5 13 49 5 13 49 3 11 47 5 13 49 5 13 49 6 13 55 6 14 60 6 14 61 8 15 69 8 14 72 8 16 78 8 15 83 9 17 90 9 16 94 12 18 106 11 15 102 19 22 127 20 23 130 24 26 129 24 28 128 25 29 129 27 26 128 24 28 128 16 26 121 13 26 122 14 25 117 19 23 110 18 23 107 17 23 109 57 26 102 34 29 95 13 28 95 14 48 112 14 77 130 13 74 129 7 42 96 10 28 74 8 26 74 9 23 68 7 24 68 10 22 64 6 21 64 5 20 59 4 18 57 5 17 55 4 17 52 6 16 52 5 13 50 6 14 50 5 13 49 6 12 48 7 13 49 5 13 49 5 13 49 4 12 48 4 14 49 5 17 55 6 18 58 6 18 58 6 20 59 6 19 61 6 19 61 6 21 64 6 25 68 5 26 73 5 28 72 5 27 74 7 63 124 5 71 129 5 46 100 4 25 70 6 27 72 6 25 68 7 22 65 5 20 61 7 20 62 4 19 58 5 19 58 6 20 59 5 18 60 6 16 52 6 15 54 5 17 55 6 20 59 6 21 62 6 23 67 6 27 72 6 28 77 5 33 83 6 35 91 6 38 95 7 49 107 6 83 127 4 92 128 6 89 129 5 94 128 6 95 129 6 95 129 6 95 129 
6 12 48 7 13 49 5 13 49 6 14 50 5 13 49 4 12 48 6 13 55 4 12 58 6 14 61 7 14 68 7 13 71 7 15 77 8 15 83 8 16 89 9 16 94 11 17 103 11 17 103 17 22 124 20 23 130 22 23 129 24 26 129 20 28 129 25 27 130 21 31 129 15 25 122 12 25 121 14 25 117 16 23 111 17 23 109 12 24 100 56 26 100 30 27 94 12 31 99 13 63 124 14 75 132 11 62 119 8 31 81 10 28 74 7 25 71 6 25 68 5 22 66 8 21 63 6 21 62 5 19 58 5 17 55 4 16 54 6 16 52 5 15 51 5 13 50 5 13 49 5 13 49 5 11 47 5 13 49 6 14 50 5 13 49 4 12 48 5 15 50 5 17 55 6 18 58 6 18 58 5 19 58 7 20 62 7 20 62 7 22 65 6 25 68 6 27 72 5 26 71 5 27 74 7 63 122 6 71 129 5 44 99 7 25 71 5 28 72 4 25 68 5 23 63 5 20 61 6 19 61 6 20 59 5 19 58 6 19 61 5 19 58 4 16 54 4 16 54 6 18 56 6 20 59 7 22 63 5 24 67 6 27 74 7 29 79 6 32 83 5 37 88 7 42 98 5 65 119 3 93 127 7 90 130 6 91 128 6 95 129 6 95 129 7 96 130 6 95 129 
5 13 49 6 14 50 6 14 50 4 12 48 5 13 49 5 13 49 6 13 55 6 14 60 6 14 61 8 15 69 7 13 71 8 16 78 8 15 83 7 15 88 9 16 94 12 18 104 11 17 103 19 22 127 19 23 130 22 23 129 23 25 128 20 29 130 25 27 128 21 30 131 16 26 121 13 26 120 14 25 117 17 22 113 17 23 109 13 21 102 56 26 100 34 29 95 12 47 111 12 73 130 12 73 130 9 44 98 6 27 74 5 28 72 7 25 71 7 24 68 5 22 65 7 22 63 6 21 62 6 20 59 5 17 55 7 16 55 6 16 52 6 14 51 4 12 49 7 13 49 6 14 50 6 14 50 4 12 48 6 14 50 5 13 49 7 13 49 5 15 50 5 17 55 6 18 58 6 18 58 6 20 59 7 20 62 6 19 61 7 22 65 5 23 69 5 26 71 6 27 72 5 27 76 8 64 125 7 72 130 7 44 97 6 24 72 4 27 71 4 25 68 4 22 62 5 18 60 6 19 61 5 19 58 5 19 58 6 19 61 5 18 60 4 17 52 4 16 54 5 17 57 6 21 62 4 21 64 6 24 70 6 27 74 4 30 81 6 34 84 7 37 91 6 46 105 7 81 128 7 92 129 5 88 128 6 94 130 6 95 129 6 95 129 6 95 129 6 95 129 
4 12 48 3 11 47 5 13 49 4 12 48 5 13 49 4 12 48 6 13 55 5 13 59 5 13 60 8 15 69 8 14 72 6 14 76 8 15 83 8 16 89 10 17 95 10 16 102 12 18 106 19 22 127 19 24 128 23 25 128 24 28 128 19 28 129 23 28 128 19 31 129 16 26 121 12 25 119 12 25 119 15 24 117 17 24 112 12 26 99 55 28 99 29 34 100 14 64 123 12 73 128 11 63 123 9 31 80 5 27 74 5 26 71 8 25 69 6 25 67 6 23 66 6 21 62 6 20 59 5 19 58 5 17 55 6 16 52 6 16 52 6 14 50 6 14 51 6 12 48 4 12 48 5 13 49 6 14 50 5 13 49 7 13 49 5 13 49 5 15 50 5 17 55 6 18 58 6 18 58 5 19 58 6 19 61 7 20 62 6 21 64 6 24 70 5 26 73 5 26 71 6 28 78 6 64 127 7 72 130 5 41 93 5 26 71 6 27 72 7 26 69 4 22 62 7 20 62 4 22 62 5 20 59 4 19 58 6 21 62 6 20 59 4 16 54 5 17 55 4 18 57 4 19 60 5 22 65 6 24 70 7 27 77 4 30 79 6 33 86 6 37 91 7 62 118 6 89 129 7 86 129 9 83 132 7 92 129 6 95 129 6 95 129 6 95 129 6 95 129 
6 12 48 7 13 49 5 13 49 5 13 49 5 13 49 5 13 49 6 13 55 5 12 58 6 14 61 8 15 67 8 14 72 7 15 77 8 15 83 9 17 90 10 17 95 11 17 103 11 17 105 19 24 126 22 23 129 24 26 129 27 26 128 21 26 128 25 27 130 21 31 129 14 27 121 12 25 121 13 27 116 17 23 111 18 22 111 13 21 102 55 28 97 27 46 114 12 73 128 12 75 129 9 44 100 10 28 76 8 27 70 6 24 70 6 23 66 6 23 66 5 22 65 7 22 63 5 19 58 6 18 58 7 16 55 6 15 54 6 16 51 6 14 51 5 13 50 7 13 49 4 12 48 5 13 49 5 13 49 5 13 49 4 12 48 8 14 50 5 15 50 5 17 55 6 18 58 7 19 59 5 19 58 6 19 61 6 19 61 7 22 65 5 24 67 6 27 72 6 27 72 5 28 78 7 67 129 7 72 130 5 38 91 5 26 71 6 27 72 5 24 67 6 21 62 6 19 61 6 19 61 6 20 59 6 20 59 5 20 61 6 19 61 5 17 55 5 17 55 5 19 58 5 20 61 5 22 65 8 26 72 6 28 75 5 31 80 5 35 87 7 39 96 7 79 129 6 88 128 8 67 127 7 74 129 7 90 130 6 95 129 6 95 129 6 95 129 5 94 128 
4 12 48 6 14 50 5 13 49 5 13 49 4 12 48 5 13 49 6 13 55 5 13 59 7 15 62 7 14 66 7 13 71 7 15 77 8 15 83 9 17 90 9 16 94 11 17 103 12 18 106 20 23 126 21 24 129 22 25 128 24 27 130 20 28 129 25 27 130 19 32 128 15 28 124 12 25 119 14 24 119 13 24 116 17 25 108 15 22 103 48 28 100 24 59 123 13 72 128 11 66 123 9 32 84 10 28 76 5 26 71 4 25 70 7 26 69 7 24 67 5 23 63 5 20 59 6 20 59 6 18 58 6 15 54 5 14 53 5 15 50 5 13 49 5 13 50 5 13 49 5 13 49 5 13 49 6 14 50 5 13 49 5 13 49 5 13 49 5 13 49 5 17 55 6 18 58 5 19 58 6 18 58 6 19 61 6 19 61 5 22 65 5 24 67 5 26 71 5 26 71 6 30 78 7 67 129 5 70 128 4 36 85 4 25 70 5 26 71 5 24 67 5 20 61 5 20 61 7 20 62 5 20 59 5 20 59 6 21 62 7 20 62 5 17 55 4 16 56 6 20 59 6 19 63 4 23 65 4 25 72 7 29 78 5 31 80 4 34 86 6 51 108 5 86 129 6 76 127 7 52 117 7 65 128 6 84 130 6 95 129 6 95 129 6 95 129 5 94 128 
5 13 49 6 14 50 6 12 48 4 12 48 7 13 49 5 13 49 6 13 55 5 14 57 7 13 61 7 14 68 6 15 72 7 15 77 10 15 83 10 16 90 10 16 94 11 15 102 12 18 104 19 22 125 20 25 129 23 25 128 23 28 128 20 28 127 27 27 127 20 30 127 15 28 124 12 27 122 13 26 118 14 25 115 16 23 113 14 19 103 30 37 109 12 71 129 12 73 130 14 56 116 10 30 81 10 28 76 5 26 71 10 25 68 7 24 67 8 23 66 6 21 62 6 21 62 6 20 59 5 17 55 4 17 52 5 14 53 6 14 51 5 13 49 5 13 50 5 13 49 5 13 49 5 13 49 6 14 50 5 13 49 5 14 47 5 14 47 6 14 51 8 17 56 8 17 56 6 18 58 6 20 59 5 18 60 6 20 59 6 21 64 6 25 68 6 27 72 4 25 70 5 32 79 7 69 130 5 70 128 7 35 85 7 25 71 5 26 71 6 25 68 4 21 64 5 20 61 5 20 61 6 20 59 5 20 59 5 20 59 6 19 61 5 17 55 6 18 58 5 19 58 7 22 63 8 22 67 5 26 71 4 28 76 5 31 80 7 34 87 7 70 123 5 83 129 6 58 118 6 50 113 7 57 126 6 76 127 6 94 130 5 94 128 4 94 128 7 93 128 
5 13 49 7 13 49 6 14 50 5 13 49 4 12 48 5 13 49 6 13 55 5 14 57 6 14 61 7 14 68 5 14 71 6 14 76 8 15 83 8 16 89 9 16 96 12 16 103 11 18 106 19 22 125 18 25 129 22 26 126 20 28 127 19 27 126 21 31 128 20 33 129 16 29 125 11 26 121 14 25 117 13 24 114 16 23 111 12 26 101 13 59 121 13 73 127 13 69 128 9 38 96 11 29 77 10 27 73 6 25 68 8 23 66 8 23 66 7 22 63 5 20 61 3 21 59 5 19 56 4 16 54 6 16 52 5 15 51 5 13 49 5 13 49 6 14 50 4 12 48 5 14 47 4 12 48 5 13 49 5 13 49 5 13 49 5 13 49 5 15 51 5 17 55 6 18 56 5 19 58 5 19 58 7 20 62 6 20 59 4 23 65 5 23 69 5 26 71 6 27 72 6 34 82 7 69 128 6 68 127 5 33 83 5 26 71 5 26 69 5 24 67 6 21 62 6 19 61 6 21 62 6 19 61 7 20 62 6 21 62 7 21 60 4 18 57 4 18 57 6 19 61 4 21 64 5 22 66 7 25 71 5 27 74 4 32 80 6 41 97 7 81 128 6 73 125 6 48 108 6 47 109 8 53 120 7 67 129 9 88 129 6 95 129 6 95 129 8 94 129 
