P3
100 50
255
22 19 50 19 18 49 17 16 47 15 14 46 18 17 48 21 18 49 22 19 50 22 19 50 30 21 52 57 37 64 20 16 49 22 19 50 20 17 48 21 18 49 15 14 46 17 16 48 16 17 48 20 17 48 21 18 49 18 17 49 21 18 49 17 16 48 17 16 47 17 16 48 19 18 49 21 18 49 21 18 49 21 18 49 29 22 53 55 35 62 18 17 48 22 19 50 20 17 48 23 18 50 17 16 47 18 17 48 17 16 47 18 17 48 17 16 47 20 16 49 18 17 48 18 17 48 17 16 47 18 17 48 16 15 47 23 20 51 21 18 49 21 18 49 17 16 47 50 31 59 40 27 57 21 18 49 22 17 49 21 18 49 21 18 49 17 16 48 20 16 49 19 16 47 23 18 50 16 15 46 21 18 49 17 16 47 17 16 47 19 16 47 22 17 57 20 18 57 23 18 59 20 18 67 36 26 76 58 35 89 22 18 79 22 20 85 22 19 90 23 20 97 19 18 96 26 23 114 27 23 120 28 24 119 23 23 119 25 23 120 24 22 119 21 21 117 12 15 94 12 15 94 10 14 87 11 14 81 10 14 77 10 15 71 10 13 66 9 13 61 8 12 57 8 13 53 8 12 50 7 12 44 8 13 45 7 12 44 7 12 44 7 12 44 7 12 44 8 13 45 
21 18 49 17 18 48 17 16 47 17 16 47 20 17 48 20 17 48 20 17 48 21 18 49 30 21 50 56 36 63 16 17 47 23 20 51 20 17 48 21 18 49 15 14 46 17 16 47 15 16 46 18 17 48 18 17 48 17 18 48 19 18 50 17 16 47 15 16 46 17 16 47 17 16 47 21 18 49 18 17 48 20 17 48 27 20 51 55 35 63 18 17 48 21 18 49 18 17 48 22 19 50 17 16 48 17 16 47 16 15 46 17 16 48 17 16 47 19 18 49 18 17 49 17 16 48 15 16 47 17 16 48 16 15 47 21 18 49 20 17 48 21 18 49 17 16 48 49 30 58 40 27 57 18 17 48 20 17 48 21 18 49 21 18 49 16 15 46 17 16 48 17 16 47 21 18 49 16 15 46 21 18 49 18 17 48 17 16 47 17 16 47 21 17 54 20 18 57 20 17 60 20 18 67 36 26 78 59 36 92 22 18 79 23 21 86 21 18 89 22 19 98 20 19 97 28 24 118 29 23 119 28 24 119 24 24 120 26 25 119 25 23 120 19 19 115 13 16 95 14 17 96 11 15 88 12 15 82 10 14 77 9 14 70 11 14 67 9 13 61 8 12 57 8 13 53 9 13 51 8 13 45 8 13 45 7 12 44 7 12 44 7 12 44 7 12 44 7 12 44 
22 19 50 18 17 48 17 16 47 16 15 46 21 18 49 22 17 49 21 18 49 21 18 49 30 21 50 59 36 64 21 18 49 22 19 50 21 18 49 23 18 50 19 15 48 21 18 49 16 15 47 20 17 48 20 17 48 20 17 48 21 18 49 17 16 48 17 16 47 19 16 47 19 18 49 21 18 49 22 17 49 21 18 49 30 21 52 57 34 63 20 17 48 22 19 50 21 18 49 22 19 48 20 17 48 19 16 47 18 17 49 19 16 47 18 17 48 22 19 50 18 17 48 20 17 48 17 16 47 19 15 48 17 16 47 22 19 50 21 18 49 22 19 50 20 17 48 50 31 59 41 28 58 20 17 48 21 18 49 21 18 49 22 17 49 17 16 47 18 17 48 20 17 48 22 17 49 17 16 47 23 18 48 18 17 49 18 17 48 18 17 48 20 18 57 20 18 57 21 19 59 21 17 67 36 26 78 58 35 91 22 18 79 24 19 85 22 19 90 21 18 97 21 20 98 27 23 117 27 23 118 29 25 119 24 22 119 25 24 118 24 22 119 20 20 116 12 15 94 13 16 95 11 15 88 11 14 81 10 14 77 9 14 70 10 13 66 10 14 62 8 12 57 8 13 53 8 12 50 7 12 44 7 12 44 7 12 44 7 12 44 7 12 44 7 12 44 7 12 44 
17 16 47 16 15 46 15 16 47 15 16 46 16 17 47 19 16 47 18 17 48 18 17 49 28 21 52 55 35 62 17 16 48 20 17 48 17 16 47 20 17 48 14 15 46 16 15 47 15 16 47 17 16 48 17 16 47 16 15 46 17 16 47 16 15 49 14 15 46 15 14 45 16 15 46 20 17 48 16 17 47 18 17 48 27 20 51 54 34 62 16 17 47 18 17 48 17 16 47 20 17 48 14 15 46 19 15 48 14 15 45 16 17 48 16 15 49 18 17 48 17 16 48 17 16 48 13 14 45 16 17 48 16 15 47 21 18 49 18 15 46 20 17 48 17 16 48 49 30 60 39 26 56 16 15 47 18 17 48 18 19 49 17 16 47 14 15 45 16 17 48 17 16 47 20 16 49 14 15 46 20 17 48 15 16 46 14 15 46 14 15 45 17 17 53 18 17 57 20 17 60 20 18 67 36 26 78 56 35 91 19 18 78 21 18 85 21 18 89 22 19 96 18 17 95 26 22 116 25 24 118 29 23 119 21 21 117 24 23 117 24 22 119 20 20 116 12 15 94 12 15 94 10 14 87 10 13 80 10 14 77 9 14 70 11 14 67 9 13 61 8 12 57 8 13 53 9 13 51 8 13 45 7 12 44 7 12 44 7 12 44 7 12 44 7 12 44 7 12 44 
20 17 48 18 17 48 15 16 47 12 15 46 17 16 47 18 17 48 17 16 47 17 16 48 28 21 52 55 35 62 17 16 48 20 17 48 18 17 49 20 17 48 15 16 47 16 15 47 15 15 49 17 16 48 17 16 47 16 15 46 18 17 48 16 15 47 14 15 46 15 14 45 17 16 47 17 16 47 19 16 47 19 16 47 26 19 50 53 33 61 16 15 46 18 17 48 17 16 47 19 18 49 15 14 46 16 15 47 13 17 46 17 16 48 14 15 45 19 18 49 18 17 48 17 16 47 14 15 46 15 14 45 14 15 46 18 17 48 18 17 48 20 17 48 16 15 47 47 31 60 38 27 57 18 17 48 17 16 47 17 16 47 19 16 47 14 15 45 15 16 47 15 14 46 20 17 48 14 14 48 20 17 48 15 16 47 14 15 46 15 16 47 18 16 53 19 17 57 19 18 60 19 17 66 36 28 79 58 35 89 18 18 78 21 19 84 24 18 90 23 19 96 16 18 95 26 22 116 25 23 120 25 24 118 24 24 120 24 22 119 25 23 120 20 20 116 13 16 95 13 16 93 11 15 88 11 14 81 10 14 77 10 15 71 10 13 66 9 13 61 9 13 58 8 13 53 8 12 50 7 12 44 8 13 45 7 12 44 7 12 44 7 12 44 7 12 44 8 13 45 
20 17 48 16 15 46 14 15 46 12 15 46 16 17 47 17 16 47 18 17 48 19 18 49 27 20 51 53 34 62 17 16 48 20 17 48 17 16 48 22 19 50 14 15 46 16 17 48 14 15 46 17 16 48 18 17 48 17 16 47 19 18 49 15 16 47 16 17 48 16 15 47 16 15 46 20 17 48 18 17 48 17 16 47 27 20 51 53 33 61 18 17 48 18 17 48 17 16 47 20 17 48 15 16 47 15 14 46 14 15 46 15 16 47 16 15 47 18 17 49 16 15 46 15 16 46 14 15 46 15 16 44 15 14 46 20 17 48 19 18 49 20 17 48 16 15 47 49 30 58 37 26 56 18 17 48 19 16 47 17 16 48 17 16 47 14 15 46 15 16 47 16 15 46 21 17 50 14 15 45 19 16 45 15 16 46 15 16 44 14 15 45 18 16 53 18 17 59 18 17 59 19 17 66 35 25 77 58 35 89 18 18 78 23 18 84 24 19 86 22 19 100 18 17 95 25 21 115 24 23 117 26 25 119 23 23 119 25 23 120 24 22 119 21 21 117 12 15 94 12 15 92 11 15 88 11 14 81 10 14 75 9 14 70 9 12 65 10 14 62 9 13 58 8 13 53 8 12 50 7 12 44 7 12 44 9 14 46 8 13 45 8 13 45 7 12 44 7 12 44 
21 18 49 20 17 48 17 16 47 17 16 47 20 17 48 22 17 49 20 17 48 21 18 49 31 22 53 55 35 62 17 16 47 23 18 50 21 18 49 22 19 50 17 16 48 17 16 47 15 16 47 17 18 49 19 18 49 18 17 48 20 17 48 16 15 47 16 17 47 17 16 48 18 17 48 21 18 49 20 17 48 21 18 49 30 21 52 54 34 62 17 16 47 22 19 50 21 18 49 21 17 50 17 16 47 17 16 47 16 15 46 17 16 47 17 16 47 21 18 49 18 17 48 18 17 48 15 16 47 17 16 47 17 18 48 19 18 49 19 18 49 22 19 50 18 17 49 51 32 60 40 27 57 20 17 48 22 19 50 19 18 49 20 17 48 17 16 47 17 16 48 18 17 48 22 19 50 17 16 50 22 19 48 18 17 48 18 17 49 17 16 47 19 18 52 21 19 59 21 18 61 20 16 66 38 26 76 58 35 89 19 18 78 24 19 85 22 19 90 22 19 96 19 18 96 27 23 117 27 23 118 28 24 118 23 23 119 25 24 118 24 22 119 21 21 117 13 16 95 12 15 92 11 15 88 11 14 81 11 15 76 9 14 70 10 13 66 10 14 62 8 12 57 6 11 51 9 13 51 8 13 45 7 12 44 6 11 43 7 12 44 7 12 44 7 12 44 7 12 44 
23 18 50 21 18 49 20 17 46 19 16 45 23 16 49 23 18 50 22 19 50 23 18 50 32 23 50 56 36 63 21 16 48 22 17 49 20 17 48 24 19 51 19 16 45 20 17 48 17 16 47 21 18 49 21 18 47 20 17 48 21 18 49 18 17 48 17 16 48 19 16 47 21 18 49 23 18 50 22 17 49 23 18 50 31 22 53 58 35 63 22 19 50 23 18 50 22 19 50 23 18 48 20 17 48 21 18 49 19 16 47 21 18 49 18 17 48 21 18 49 21 18 49 20 17 48 16 15 46 20 17 48 20 17 48 22 19 50 23 18 50 24 19 49 19 18 49 52 32 60 41 28 56 22 19 50 24 17 50 22 17 49 23 18 50 18 17 48 20 17 48 21 18 49 24 19 51 19 16 47 23 18 48 22 19 50 20 17 48 20 17 48 21 16 56 23 18 59 22 20 60 21 18 65 38 26 76 58 35 89 20 18 81 23 20 87 21 18 87 23 20 97 20 19 97 28 23 115 27 23 118 28 23 117 24 23 117 26 25 119 24 22 119 20 20 116 13 16 95 13 16 93 11 15 88 11 14 81 11 15 76 9 14 70 10 13 66 10 14 62 9 13 58 8 13 53 8 12 50 7 12 44 8 13 45 7 12 44 7 12 44 7 12 44 7 12 44 7 12 44 
23 20 51 22 19 50 17 18 48 18 17 49 20 19 50 22 19 50 21 18 49 21 18 49 30 21 50 56 36 63 19 18 49 23 18 50 21 18 49 24 17 50 17 16 47 17 16 47 18 17 48 19 18 49 21 18 49 21 18 49 22 17 49 18 17 48 18 17 48 20 17 46 19 18 49 22 19 50 20 16 49 22 19 48 30 21 52 58 35 61 18 17 48 22 19 48 19 18 49 22 19 50 20 17 48 18 17 48 19 16 47 21 18 49 21 18 49 23 18 50 21 18 49 20 17 48 17 16 47 20 17 48 17 16 47 24 19 51 21 18 49 22 19 50 19 18 49 51 33 59 40 27 55 21 18 49 21 18 49 21 18 49 22 19 50 18 17 48 18 17 49 21 18 47 23 18 48 21 18 49 23 20 51 19 18 49 20 16 49 17 16 47 19 17 54 21 19 58 22 19 62 20 18 65 38 26 76 57 34 90 20 19 79 24 19 83 22 19 88 23 20 97 18 20 97 28 23 115 25 24 118 28 24 118 23 23 119 25 24 118 25 24 118 21 22 115 12 15 94 12 15 92 12 16 87 11 14 81 10 14 75 9 14 70 11 14 67 9 13 61 8 12 57 7 12 52 9 13 51 8 13 45 7 12 44 6 11 43 7 12 44 7 12 44 7 12 44 8 13 45 
22 19 48 21 18 49 19 16 47 20 16 49 22 17 49 22 19 50 22 17 49 21 18 49 32 23 54 56 36 63 18 17 48 23 18 50 22 17 47 24 19 49 16 15 46 20 17 48 17 16 47 21 18 49 21 18 49 21 18 49 21 16 48 20 17 48 18 15 46 16 15 46 20 17 48 23 18 50 22 19 50 22 17 49 31 22 51 57 34 62 20 17 48 22 19 48 21 18 49 22 19 50 16 17 47 19 18 49 17 16 47 20 17 48 21 16 48 23 18 48 19 18 49 20 17 48 18 17 48 20 17 48 18 17 48 22 17 49 22 17 49 23 18 50 21 18 47 52 32 60 41 28 56 21 18 49 21 17 50 23 18 50 21 18 49 18 17 49 19 16 47 20 17 48 23 18 50 17 16 47 23 18 50 20 17 48 17 16 47 18 17 48 22 18 55 20 18 57 23 17 61 22 18 68 36 26 78 56 36 89 20 18 81 22 19 86 21 20 88 22 19 96 17 19 94 28 23 117 27 23 118 27 23 118 24 23 116 25 24 118 24 23 117 20 21 114 13 16 95 13 16 93 10 14 85 10 13 80 11 15 76 9 14 70 10 13 66 9 13 61 8 12 57 8 13 53 8 12 50 7 12 44 7 12 44 7 12 44 7 12 44 7 12 44 7 12 44 7 12 44 
27 20 51 27 20 51 25 20 50 24 21 52 26 19 50 26 21 51 27 20 51 27 20 51 33 24 53 60 37 65 26 19 50 27 21 49 26 21 51 28 22 50 22 19 48 24 19 51 22 19 48 25 20 50 25 20 50 25 20 50 27 20 51 25 20 50 24 19 49 26 19 50 26 19 52 28 21 52 27 21 49 27 20 53 32 23 52 58 35 61 25 20 52 26 21 51 26 21 51 28 21 52 24 19 51 24 19 51 23 18 48 25 20 50 25 20 50 29 20 51 26 21 51 25 20 50 22 19 48 25 20 50 24 19 49 30 21 52 27 20 51 27 22 52 27 20 51 51 32 60 46 30 59 26 21 51 26 21 51 28 21 52 26 22 49 24 21 50 24 19 49 25 20 52 28 21 52 24 21 50 28 21 52 25 20 50 25 20 50 24 21 52 25 19 53 27 23 60 29 22 63 27 20 71 40 28 78 62 38 90 27 21 81 31 22 87 30 25 92 30 23 100 25 21 97 27 24 115 25 24 118 27 23 117 23 23 119 25 24 118 25 24 118 20 21 114 12 15 94 12 15 92 11 15 86 11 14 81 10 14 75 9 14 70 10 13 66 9 13 61 8 12 57 8 13 53 9 13 51 8 13 45 7 12 44 7 12 44 7 12 44 7 12 44 7 12 44 7 12 44 
74 42 66 75 42 69 73 39 66 72 39 66 72 39 66 71 41 67 73 40 67 73 40 67 74 42 66 76 43 70 71 38 65 72 39 66 73 39 66 73 40 67 67 37 65 72 38 65 67 37 63 73 39 66 72 39 66 71 38 65 74 40 67 71 38 65 71 38 65 72 39 66 73 39 66 73 41 65 75 41 68 74 41 70 76 42 67 78 45 72 74 40 67 74 41 68 73 40 67 75 42 69 73 40 67 73 40 67 72 40 64 72 39 66 72 39 66 74 42 65 73 40 67 73 40 67 73 40 67 74 41 68 73 40 67 75 42 69 72 42 68 73 45 70 71 41 65 79 47 71 74 44 70 72 42 68 75 42 69 72 42 68 74 41 68 74 40 67 73 40 67 73 41 65 74 41 68 72 39 66 74 42 66 72 39 66 70 40 66 69 39 67 69 43 70 73 42 73 73 43 77 68 42 87 75 46 92 73 45 96 69 42 93 71 43 102 68 42 103 71 42 106 68 39 106 32 27 117 25 24 118 27 23 117 24 22 119 28 24 118 25 24 118 20 21 114 13 16 95 12 15 92 11 15 86 12 15 82 10 14 75 9 14 70 10 13 66 9 13 61 9 13 58 8 13 53 9 13 51 7 12 44 8 13 45 7 12 44 8 13 45 8 13 45 8 13 45 7 12 44 
18 17 48 18 17 48 16 17 47 16 17 48 17 16 47 20 17 48 17 16 47 21 18 49 30 21 52 55 35 62 18 15 46 21 18 49 18 17 49 19 19 47 16 15 46 16 17 47 15 16 47 18 17 48 17 16 47 17 16 47 18 17 48 17 16 47 16 17 48 15 16 47 20 17 48 20 17 48 20 17 48 20 17 48 28 21 52 54 34 59 18 17 48 21 18 47 18 17 48 18 19 49 16 15 47 17 16 48 14 15 45 17 16 47 16 15 46 18 17 48 20 17 48 19 16 47 16 17 47 16 15 46 16 17 47 21 18 49 20 17 48 22 17 49 19 16 47 50 31 59 40 25 56 19 18 49 20 17 48 20 17 48 19 18 49 17 16 50 18 17 48 17 16 47 23 18 50 14 15 46 21 18 49 18 17 48 16 15 47 16 17 48 18 18 56 21 19 59 21 18 61 21 17 67 35 25 77 56 36 89 19 18 78 21 18 85 23 17 89 21 18 97 19 18 96 26 23 114 26 22 117 26 25 119 25 23 120 25 24 117 24 23 117 20 21 114 13 16 95 12 15 92 11 15 86 11 14 81 10 14 75 10 15 71 10 13 66 9 13 61 8 12 57 8 13 53 8 12 50 8 13 45 6 11 43 7 12 44 8 13 45 8 13 45 8 13 45 7 12 44 
24 19 49 22 19 50 18 17 48 20 17 48 22 19 50 22 17 49 23 20 51 23 20 51 32 21 51 56 36 61 22 19 48 23 18 50 21 18 49 23 18 50 17 16 47 21 18 49 19 16 47 22 17 49 22 19 50 22 19 50 23 18 50 18 17 48 20 17 48 20 17 48 21 18 49 23 18 50 24 19 51 24 19 49 32 23 54 58 35 63 23 18 50 24 19 49 22 19 50 24 19 51 18 17 48 21 18 49 20 17 48 21 18 49 21 18 49 23 20 47 18 17 49 21 18 49 21 17 50 21 18 47 20 17 48 23 18 48 22 17 49 24 19 49 22 19 48 56 33 59 42 27 56 22 19 50 24 19 49 23 19 46 24 17 50 20 17 48 21 18 49 22 19 48 24 19 49 20 17 48 24 19 49 20 17 48 21 18 49 20 17 48 23 17 55 23 18 58 21 19 58 21 18 65 40 26 77 58 35 91 19 19 81 23 18 84 22 19 88 22 19 96 20 19 97 28 23 117 27 23 118 28 24 119 24 23 117 27 23 118 25 24 118 20 21 114 12 15 94 13 16 93 11 15 86 11 14 81 11 15 76 9 14 70 10 13 66 9 13 61 9 13 58 8 13 53 8 12 50 7 12 44 7 12 44 7 12 44 7 12 44 7 12 44 7 12 44 7 12 44 
23 18 48 20 17 48 17 16 47 17 16 47 21 16 48 22 17 49 21 18 49 21 18 49 31 22 51 56 36 63 19 18 49 22 19 50 20 17 48 22 17 49 18 17 48 19 15 48 17 16 47 21 18 49 21 18 49 18 17 48 22 19 50 18 17 48 17 16 47 16 15 46 18 17 49 21 18 49 21 18 47 23 18 50 30 21 50 54 36 62 20 17 48 23 18 50 21 18 49 23 18 50 19 16 47 19 16 47 17 16 47 18 17 48 19 18 49 21 18 49 20 17 48 20 17 48 17 16 47 18 17 48 19 16 47 23 18 50 23 16 49 23 18 50 18 17 49 52 34 60 39 29 56 21 18 49 23 18 48 23 18 48 21 18 47 18 17 48 19 16 47 20 17 48 23 18 48 18 17 48 22 19 50 21 15 49 18 19 49 17 16 47 19 17 54 23 18 58 25 20 61 21 18 65 35 25 75 59 34 89 20 19 77 23 18 85 21 18 89 21 18 95 21 18 97 27 24 115 27 23 118 27 23 117 23 24 117 25 24 118 25 24 118 21 22 115 13 16 95 12 15 92 11 15 86 12 15 82 10 14 75 9 14 70 10 13 66 9 13 61 9 13 58 8 13 53 8 12 50 7 12 44 7 12 44 8 13 45 7 12 44 7 12 44 7 12 44 7 12 44 
24 19 49 22 18 51 20 17 48 17 16 47 23 18 50 23 18 50 24 19 51 23 18 50 33 22 52 59 36 65 21 18 49 23 18 48 23 18 48 24 19 49 17 16 47 20 17 48 19 15 48 21 18 49 21 18 49 21 18 49 23 18 48 18 17 48 20 17 48 20 17 48 22 19 50 23 18 48 23 20 51 23 18 48 32 22 49 58 35 63 22 17 49 23 20 49 22 17 49 24 19 51 19 16 47 20 19 50 20 17 48 20 17 48 21 18 49 23 18 50 21 18 49 21 18 49 18 17 48 23 20 49 20 17 48 23 18 48 23 18 48 24 19 49 21 18 49 53 35 59 42 29 55 23 18 50 24 19 49 23 18 48 24 19 51 20 17 48 20 17 48 21 18 49 25 18 49 19 16 47 24 19 49 19 18 49 21 18 49 20 17 48 22 18 55 24 19 59 22 20 60 22 19 66 39 26 79 59 36 88 20 18 83 24 19 85 24 18 88 23 20 99 20 19 97 26 22 116 27 23 117 27 23 118 23 22 116 28 23 117 24 23 117 21 22 115 12 15 94 12 15 92 11 15 86 10 13 80 11 15 76 9 14 70 10 13 66 9 13 61 7 11 56 8 13 53 8 12 50 8 13 45 7 12 44 7 12 44 7 12 44 7 12 44 7 12 44 8 13 45 
19 16 47 17 16 47 15 16 47 14 15 46 16 17 47 20 17 48 18 17 49 18 17 49 29 20 51 57 34 62 16 17 48 18 17 48 18 17 48 20 17 48 15 16 47 15 14 46 15 16 47 17 16 47 19 16 47 16 15 46 19 16 47 15 16 46 15 16 47 15 16 46 17 16 47 20 17 48 18 17 48 18 17 48 26 19 50 54 34 61 16 15 46 19 16 47 17 16 47 19 15 48 14 15 45 15 14 45 15 14 45 17 16 48 16 15 46 18 17 48 17 16 47 18 15 46 14 15 46 17 16 47 15 16 46 19 18 49 18 17 48 18 17 48 17 16 47 52 32 59 39 26 54 20 15 47 18 17 48 20 17 48 19 16 47 16 15 46 19 16 47 17 16 47 22 19 50 15 16 46 20 17 48 16 15 46 16 15 46 15 14 46 19 18 52 19 17 56 20 18 58 20 16 66 35 25 75 56 36 89 19 18 78 22 20 85 21 18 89 23 20 99 18 17 95 24 23 116 24 23 117 27 23 118 23 21 118 25 24 118 23 22 116 20 21 114 13 16 95 12 15 92 10 15 83 10 13 80 9 13 74 10 15 71 9 12 63 9 13 61 8 12 57 9 12 53 9 13 50 8 13 43 7 12 44 8 13 45 7 12 44 7 12 44 7 12 44 7 12 44 
18 17 48 19 16 47 15 16 47 17 16 50 19 16 47 20 17 48 20 17 48 21 18 49 30 21 52 55 35 62 17 16 47 21 18 49 18 18 46 18 17 48 15 16 47 16 15 46 14 15 46 17 16 47 17 16 47 18 17 48 18 17 48 15 16 46 15 16 47 15 16 46 19 16 47 20 17 48 19 16 45 20 17 48 28 21 52 53 35 61 16 17 47 22 17 49 17 16 47 21 18 49 16 15 47 17 16 47 15 16 46 17 16 48 18 17 48 19 18 49 16 15 46 17 16 48 15 16 46 16 15 46 16 15 47 21 18 49 21 18 49 20 17 48 17 16 47 51 33 59 40 27 55 18 17 48 20 17 48 18 17 48 19 16 47 15 16 46 16 15 46 17 16 47 21 18 47 16 15 46 21 18 49 17 16 47 15 14 45 16 15 46 17 15 52 19 17 56 21 18 61 19 17 66 35 25 75 55 35 88 19 17 80 24 19 86 22 19 88 22 19 96 19 18 96 27 23 117 25 24 117 27 23 117 23 21 118 25 24 118 24 23 117 20 20 116 13 16 95 12 15 94 11 15 86 11 14 81 10 14 75 10 15 71 10 13 64 10 14 62 9 13 58 8 13 53 9 13 50 8 13 45 8 13 45 8 13 43 8 13 43 8 13 43 7 12 42 7 12 42 
17 16 47 17 16 47 14 15 45 14 15 45 17 16 48 19 16 47 17 16 47 19 16 47 28 21 52 54 34 61 16 15 47 17 16 47 17 16 47 19 16 47 13 14 44 16 15 47 15 14 46 15 14 45 17 16 47 16 15 46 17 16 48 14 15 46 14 15 46 15 14 45 17 16 47 18 17 48 17 16 47 18 17 48 26 19 50 55 35 62 16 15 46 20 17 48 17 16 47 18 17 48 15 16 47 16 15 46 13 14 45 17 13 48 15 16 46 17 16 47 16 15 46 16 17 47 14 15 46 16 15 47 13 14 45 21 18 49 19 16 47 19 16 47 16 15 46 48 32 59 38 25 55 17 16 47 20 17 48 18 17 48 19 16 47 13 14 45 14 15 45 16 15 46 18 17 48 13 14 45 19 16 47 16 15 46 12 15 46 14 15 46 17 17 51 18 18 56 20 18 58 19 17 64 33 25 76 55 35 88 17 17 77 23 18 84 20 19 89 21 18 95 18 17 95 25 21 115 24 23 117 26 22 116 23 22 116 26 22 117 24 23 117 19 19 115 12 15 94 12 15 94 11 14 85 11 16 82 11 15 76 9 14 70 10 13 66 8 12 60 9 14 54 9 12 53 8 12 50 7 12 44 8 13 45 8 11 42 8 13 45 7 12 44 8 13 45 7 12 44 
23 18 50 20 17 48 19 16 47 18 15 46 21 18 47 22 17 47 22 17 47 22 17 47 31 22 53 56 36 63 21 18 49 21 18 47 21 17 50 23 18 50 19 16 47 19 16 47 18 15 46 20 17 48 20 17 48 21 18 49 22 17 49 18 17 48 17 16 47 19 16 47 21 16 48 22 19 48 22 17 47 23 18 48 30 21 50 55 35 62 20 17 48 22 19 48 21 16 46 22 17 49 20 15 47 20 17 48 16 15 46 20 17 48 19 16 47 22 17 49 20 17 48 17 16 47 16 15 46 21 16 48 17 16 47 23 18 48 22 17 49 23 18 48 21 18 49 54 34 61 41 28 56 21 18 49 22 17 47 22 17 49 22 19 50 17 16 47 19 16 47 21 18 49 22 19 48 17 16 47 23 18 50 20 17 48 19 16 47 19 16 47 22 18 55 23 18 58 23 18 59 21 18 65 38 26 74 58 35 89 20 19 79 24 19 86 22 19 88 25 18 96 20 19 95 25 25 115 28 24 118 28 24 118 24 22 119 27 23 118 24 23 117 20 21 114 12 15 94 12 15 92 11 15 86 11 14 81 10 14 75 9 14 70 11 14 65 10 14 62 10 15 57 8 13 53 8 12 49 7 12 44 8 13 45 7 14 43 7 12 44 8 13 45 7 12 44 8 13 45 
20 17 48 21 18 49 17 16 47 18 17 48 20 17 48 21 18 49 19 18 49 20 17 48 31 22 51 56 36 63 20 17 46 22 19 48 21 18 47 23 18 48 17 17 45 18 17 48 17 16 47 19 18 49 20 17 48 20 17 48 20 17 48 18 17 48 17 16 47 18 17 48 20 17 46 21 18 49 21 18 49 21 18 49 30 21 50 55 35 62 20 17 48 23 18 50 21 18 49 22 19 50 16 15 46 17 16 47 16 17 47 20 17 48 18 17 48 21 18 49 21 18 49 20 17 48 17 16 47 20 17 48 16 15 46 21 18 49 22 19 50 22 19 50 18 17 48 53 33 61 38 25 55 21 16 48 19 18 49 21 18 49 20 17 48 17 16 48 19 15 48 20 17 48 22 17 49 17 16 48 23 18 50 20 17 48 18 17 49 16 15 46 19 17 54 20 18 57 21 19 59 20 18 67 36 26 76 56 35 91 21 17 78 24 19 85 21 18 87 21 18 95 20 17 94 27 23 117 27 23 117 29 24 118 23 24 117 26 22 116 24 23 117 21 22 115 12 15 94 12 15 92 11 15 86 11 14 81 8 12 73 9 14 70 10 13 64 9 13 61 8 12 57 9 12 53 9 13 50 8 13 43 7 12 44 9 12 45 7 12 42 7 12 42 8 13 43 7 12 42 
20 17 48 18 17 48 17 16 47 15 14 45 20 17 48 20 17 48 21 18 47 21 18 45 25 20 50 55 35 62 17 16 47 19 19 47 18 17 48 21 18 49 15 16 46 15 16 46 14 15 46 17 16 47 18 17 48 17 16 47 18 17 49 17 16 48 14 15 46 15 16 46 19 16 47 19 18 49 20 17 48 19 16 47 27 20 51 54 34 61 18 15 46 20 17 48 17 16 47 20 17 48 15 16 46 16 15 46 14 15 45 19 15 48 15 16 44 19 18 49 17 16 47 17 16 47 15 16 47 16 15 46 17 16 47 20 17 48 21 16 48 21 18 49 17 16 47 52 32 60 40 27 57 17 16 47 21 18 47 21 18 49 20 17 48 14 15 46 17 16 47 16 17 47 20 17 48 14 15 46 21 18 49 17 16 47 18 17 49 15 14 46 18 16 53 22 17 57 21 19 59 21 18 65 35 25 77 56 36 89 21 17 78 21 19 84 23 17 89 22 20 95 17 19 94 26 23 114 24 23 117 28 24 118 24 22 119 24 23 117 24 23 117 20 20 116 14 16 93 12 15 92 11 15 86 10 13 80 10 14 75 9 14 70 11 14 65 10 14 62 9 13 58 7 12 52 8 12 49 7 12 41 8 13 45 7 13 45 7 12 42 7 12 42 6 11 41 7 12 42 
23 18 48 21 17 50 18 17 48 20 17 48 22 17 49 22 19 50 23 18 48 23 18 50 31 22 51 58 35 63 20 17 48 23 18 48 21 18 49 23 18 48 19 16 47 20 17 48 17 16 48 21 18 49 21 18 49 18 17 48 21 18 49 20 17 48 17 16 48 18 17 48 21 18 47 23 18 50 23 18 50 23 18 48 31 22 51 56 33 61 21 17 50 24 19 49 23 20 49 24 19 49 20 17 48 20 17 48 17 17 45 20 17 48 21 16 46 22 19 50 21 18 49 20 17 48 17 16 47 20 17 48 19 16 47 24 19 49 23 18 50 24 19 49 21 18 49 54 34 61 42 27 56 22 19 50 23 18 48 22 19 50 21 15 49 18 17 48 18 17 48 20 17 48 23 18 48 18 17 48 24 17 50 21 18 49 17 18 48 16 15 46 20 18 55 24 19 59 23 18 59 22 19 66 38 26 76 56 33 87 23 19 80 26 21 87 22 19 88 22 19 96 20 20 94 25 25 115 27 23 117 28 24 119 23 22 116 27 23 117 24 23 117 21 22 115 13 16 93 12 15 92 11 15 86 11 14 81 10 14 75 10 15 71 11 14 65 10 14 62 8 12 57 8 11 52 9 13 50 8 13 45 8 13 45 9 12 45 7 12 44 7 12 44 7 12 44 7 12 44 
19 16 47 16 15 46 14 15 45 14 15 45 19 16 47 19 16 47 17 16 47 19 16 47 27 20 51 57 34 62 16 15 47 18 17 48 17 16 47 20 17 48 14 15 46 15 16 47 14 15 46 15 16 46 17 16 47 15 16 46 18 17 48 16 15 46 15 14 46 15 16 46 17 16 47 18 15 46 17 16 47 18 17 48 25 20 50 53 33 61 16 15 46 19 18 49 17 16 47 20 17 48 14 15 46 15 14 45 13 14 45 15 14 45 15 16 46 17 16 47 16 15 46 16 15 47 14 15 46 16 15 47 14 15 46 17 16 47 17 16 47 18 17 48 18 15 44 50 31 59 36 25 55 17 16 47 19 16 45 19 16 47 17 16 47 14 15 46 13 14 44 16 15 46 18 17 48 13 14 44 20 17 48 16 15 46 14 15 45 15 16 47 17 16 50 19 19 57 19 17 57 19 17 64 33 26 77 55 34 90 19 18 78 20 18 83 21 18 87 22 20 95 19 18 94 26 21 115 23 22 116 27 23 117 23 21 118 26 22 117 24 23 116 21 22 114 12 15 92 12 15 92 10 14 85 9 14 80 9 13 74 9 14 70 10 13 66 10 14 62 9 14 54 10 13 54 8 12 50 7 12 44 7 12 44 8 13 43 6 11 41 6 11 41 7 12 42 7 12 42 
21 18 47 18 17 48 15 16 46 15 16 46 16 15 46 20 17 48 19 16 47 20 17 48 31 22 53 55 35 62 17 17 45 22 17 49 18 17 48 22 19 50 14 15 46 16 15 46 15 16 47 17 16 47 18 15 46 17 16 47 20 17 48 17 16 48 15 16 46 16 16 44 19 16 47 18 18 46 18 17 48 18 17 48 27 21 49 53 33 61 19 16 45 21 17 50 20 17 48 22 17 49 16 15 47 16 17 47 13 16 47 17 16 47 17 16 47 17 16 47 20 17 48 17 16 47 15 16 46 17 16 47 15 16 46 19 16 47 18 17 48 21 16 46 19 16 47 52 32 59 39 26 54 20 17 48 20 15 47 20 17 48 21 18 49 15 16 47 16 15 46 17 16 47 21 18 47 15 16 46 20 17 48 17 16 47 16 15 46 16 15 47 20 16 51 19 19 57 20 17 62 20 16 66 35 25 77 57 34 88 20 19 77 21 19 82 22 19 90 23 19 95 19 18 96 26 23 114 27 23 118 27 23 117 23 22 116 26 22 117 24 23 117 21 22 115 12 15 92 12 15 92 12 15 86 11 14 81 9 13 74 11 13 70 10 13 66 9 13 61 7 14 56 9 12 53 8 12 49 7 12 44 6 11 41 6 11 41 7 12 44 7 12 44 7 12 44 7 12 44 
19 16 47 18 17 48 13 14 45 14 15 45 16 15 46 19 16 47 17 16 47 18 17 48 27 20 51 57 34 62 16 15 46 18 17 48 17 16 47 19 16 45 14 15 46 16 15 46 14 15 46 15 16 46 17 16 47 16 15 46 18 17 48 16 17 48 14 13 44 14 15 45 16 15 46 19 16 47 20 17 48 17 16 47 26 19 50 53 33 60 17 16 47 18 17 48 17 17 45 20 17 48 15 14 45 13 17 46 13 14 45 15 16 46 16 15 46 17 16 47 16 15 46 15 16 46 14 15 46 15 14 46 14 15 46 19 16 47 17 16 47 18 17 48 16 15 46 51 31 59 37 24 54 17 16 47 18 17 48 20 17 48 16 15 46 14 15 45 14 15 45 17 16 47 19 16 47 13 14 45 18 17 49 15 14 46 13 14 44 15 16 46 17 16 50 20 18 57 19 18 58 17 18 66 35 25 77 58 35 89 18 17 77 21 19 84 21 18 87 22 19 96 15 16 96 23 22 115 26 22 117 27 23 118 23 21 118 25 24 117 23 22 116 20 21 114 13 16 93 12 15 92 12 15 86 10 14 78 10 14 75 11 13 70 10 13 66 10 14 62 8 13 55 8 13 53 8 12 49 7 12 44 7 12 42 6 13 42 7 12 44 7 12 44 7 12 44 7 12 44 
23 18 48 22 19 50 20 17 48 19 16 47 22 17 49 23 18 50 22 17 49 22 19 50 33 22 52 59 36 62 18 17 48 24 19 49 23 18 48 23 20 49 20 17 46 20 17 48 17 16 47 21 18 47 21 18 47 20 17 48 21 16 46 18 17 48 20 17 48 21 18 49 23 18 50 23 18 50 23 18 48 22 19 50 31 22 51 55 35 62 21 18 49 24 19 49 21 18 49 23 18 50 20 17 48 20 17 48 20 17 48 19 18 49 21 18 49 22 19 50 20 17 48 21 18 49 19 16 47 20 17 48 18 17 48 23 18 50 22 19 50 24 19 49 20 17 48 56 33 61 41 28 56 20 17 46 22 17 47 23 18 50 23 18 50 20 17 48 18 17 48 20 17 48 24 19 49 18 17 48 23 20 49 20 17 48 20 17 48 19 16 47 22 18 55 24 17 58 24 17 59 22 19 66 38 26 74 57 34 88 22 18 79 23 21 86 22 19 88 22 19 96 17 19 93 28 23 113 27 23 117 28 24 118 24 23 116 28 24 118 25 24 118 20 21 114 12 15 94 12 15 92 12 15 86 11 15 79 10 14 75 11 13 70 10 13 64 9 13 61 9 12 55 8 13 51 8 12 49 7 12 44 7 12 42 7 12 42 7 12 42 7 12 42 7 12 42 7 12 42 
22 17 47 21 18 49 19 16 47 19 16 47 21 18 49 23 18 50 22 19 50 21 18 49 31 22 51 59 36 62 19 18 49 23 18 48 20 17 48 23 18 48 17 16 47 21 17 50 18 17 48 21 18 49 21 18 49 19 18 49 22 19 48 18 17 48 18 17 48 20 17 48 20 17 48 22 17 49 21 18 47 23 18 48 30 21 50 54 34 61 21 18 49 23 18 48 21 18 49 23 18 50 19 16 47 20 17 46 17 16 47 20 17 48 19 16 47 21 18 49 20 17 48 21 16 48 17 16 47 21 18 49 18 17 48 22 19 50 22 19 50 23 20 51 19 16 47 55 32 60 40 27 55 23 18 50 23 18 50 21 18 49 22 17 49 19 16 45 19 16 47 21 16 46 23 18 50 16 17 47 23 18 50 18 17 48 17 16 47 20 17 48 21 17 52 22 20 57 22 20 60 21 18 65 38 26 76 58 35 89 21 17 78 25 18 85 22 19 88 23 19 96 17 19 96 28 23 115 27 23 117 27 23 117 27 23 118 25 24 118 24 23 117 21 21 117 12 15 92 13 16 93 12 15 86 10 13 80 10 14 75 11 14 69 10 13 64 10 14 62 9 12 55 8 13 51 9 13 50 7 12 44 7 12 42 7 12 42 7 12 42 7 12 42 7 12 42 7 12 42 
23 18 48 23 18 48 20 17 48 19 16 47 23 18 48 25 20 52 23 18 50 23 18 50 33 22 52 59 36 64 21 18 49 24 17 48 22 17 47 24 19 51 20 17 48 21 18 49 19 16 47 21 18 47 23 18 48 21 18 47 23 18 48 21 18 49 20 17 48 21 18 49 21 18 49 23 18 48 23 18 48 23 18 48 31 22 53 57 34 62 20 17 48 25 18 49 21 18 47 25 20 50 20 17 46 20 17 48 19 16 47 22 17 49 22 19 48 22 17 47 21 18 49 20 17 48 20 17 48 22 17 49 20 17 48 23 18 50 22 19 48 21 21 47 21 18 49 54 34 61 40 27 55 24 19 49 23 18 48 24 19 51 23 18 50 20 15 47 20 17 48 21 18 47 23 18 48 17 16 47 23 18 50 20 17 48 20 17 48 20 17 48 21 17 54 23 18 58 24 19 59 24 18 66 39 25 76 58 35 89 22 18 79 23 18 84 22 19 88 21 18 95 19 16 93 28 23 117 28 24 118 29 24 118 26 22 116 27 23 117 24 23 117 20 20 116 11 14 91 13 16 93 11 14 85 11 14 81 9 13 74 11 14 69 10 13 64 9 13 61 10 13 56 8 12 50 7 11 48 8 13 45 8 13 43 7 12 42 7 12 42 7 12 42 7 12 42 7 12 42 
20 17 46 18 17 48 16 15 46 17 16 47 17 16 47 21 18 49 20 17 48 21 16 48 31 22 51 58 35 63 19 16 47 22 17 47 20 17 48 20 17 48 16 15 46 18 14 47 17 16 48 17 16 47 20 17 48 17 16 47 21 18 47 18 15 46 16 15 46 17 16 47 19 16 47 21 16 46 20 17 46 21 16 48 30 21 52 53 34 62 19 15 48 20 17 46 20 16 49 21 16 48 17 16 47 18 15 46 16 15 46 17 16 47 18 15 46 20 15 47 19 16 47 17 16 47 16 15 46 17 16 47 17 14 45 23 18 50 19 16 47 20 16 49 20 17 48 55 32 60 38 28 55 19 18 50 21 17 50 21 18 49 20 17 48 16 15 47 16 15 46 19 16 47 22 19 50 15 16 46 21 18 49 19 16 47 18 17 48 16 15 46 21 17 54 20 18 57 20 17 60 20 18 65 35 25 75 58 35 89 19 18 78 26 19 86 21 18 89 22 19 96 19 18 94 28 23 115 26 22 117 27 23 117 23 22 116 27 23 117 24 23 117 20 21 114 12 15 94 12 15 92 11 14 85 11 15 79 10 14 75 12 14 71 10 13 64 10 14 62 9 12 55 8 12 50 8 12 49 8 13 45 8 13 43 8 11 42 9 12 43 9 12 43 9 12 43 9 12 43 
50 30 57 48 29 57 48 29 57 48 29 57 49 30 58 50 31 59 50 30 58 49 30 58 53 30 56 67 41 66 48 30 56 51 31 59 50 30 58 51 31 58 46 30 57 48 29 57 47 28 56 48 29 57 51 31 59 49 30 58 50 30 58 48 29 57 48 29 57 48 29 57 49 31 57 50 30 58 49 31 57 50 30 58 52 32 59 69 41 66 47 28 56 50 30 58 48 30 56 51 31 59 47 28 56 48 29 57 46 30 57 48 29 57 48 29 57 49 30 58 48 29 59 50 30 57 44 30 55 46 30 57 48 29 59 49 30 58 50 30 58 50 30 58 49 30 60 66 40 65 61 37 63 49 30 58 49 30 58 49 30 60 49 29 57 49 29 57 48 29 57 48 29 57 51 32 60 45 29 56 50 32 58 48 29 57 48 29 57 45 29 56 51 30 61 52 32 67 49 31 73 51 29 75 56 34 83 71 43 92 49 30 86 52 31 96 53 32 99 53 33 104 48 31 101 30 24 114 25 24 117 28 24 118 27 21 117 26 22 116 24 23 117 20 21 114 13 16 93 12 15 92 12 15 86 11 15 79 10 14 75 12 14 71 10 13 66 9 13 61 9 12 55 9 12 53 9 13 50 9 12 45 8 13 43 8 11 42 8 13 43 8 13 43 8 13 43 8 13 43 
45 31 57 45 29 56 43 28 57 43 29 55 45 31 57 44 30 56 45 31 57 45 29 56 51 33 59 64 40 66 44 30 56 45 30 59 46 30 57 46 30 57 43 28 57 44 30 56 42 27 56 44 30 56 45 31 57 43 28 57 47 28 56 42 27 56 43 28 57 44 30 56 44 30 56 45 29 56 46 30 59 44 30 56 50 32 58 64 40 66 44 28 57 46 30 59 45 29 58 45 31 57 43 28 57 43 29 55 44 28 55 42 30 54 43 28 57 47 28 56 44 29 58 43 28 57 43 28 57 44 30 56 42 28 54 45 31 57 42 28 54 46 30 57 44 29 58 66 40 67 53 35 61 44 29 58 45 29 58 45 30 59 45 31 57 43 28 57 43 29 55 44 30 56 47 31 60 42 28 54 46 30 57 43 28 57 43 28 59 42 28 54 44 31 61 47 31 68 46 31 70 42 29 73 56 37 83 65 38 89 45 30 87 46 30 95 47 31 96 43 30 100 44 31 101 33 24 115 28 23 117 28 23 115 23 21 118 27 23 117 24 23 117 22 23 116 12 15 92 11 14 91 12 15 86 10 13 80 10 14 75 11 13 70 9 15 67 10 14 62 8 11 54 9 12 53 9 13 50 8 11 44 9 12 43 8 11 42 7 12 42 7 12 42 7 12 42 7 12 42 
21 18 49 21 18 49 17 16 47 17 16 47 20 17 48 21 18 49 18 17 48 20 17 48 31 22 51 58 35 63 19 16 47 23 18 48 20 17 48 23 18 48 19 16 47 20 17 48 16 15 47 19 18 49 21 18 49 18 17 48 20 17 48 17 16 47 19 16 47 17 16 47 20 17 48 21 18 47 20 17 48 21 18 49 30 21 50 55 35 62 20 17 48 21 18 47 20 17 46 23 18 48 18 15 46 19 15 48 16 15 46 18 17 48 19 16 47 23 18 50 18 17 48 18 17 48 18 17 48 17 16 47 17 16 47 22 19 50 18 17 48 21 18 47 20 17 48 54 34 61 40 25 54 20 17 48 21 18 49 22 17 47 20 17 48 18 17 48 17 16 47 20 17 48 21 18 47 19 16 47 22 19 50 18 17 48 17 18 48 16 15 46 18 16 53 20 18 55 23 18 59 19 20 68 37 25 75 58 35 89 21 17 78 24 19 85 22 19 88 22 19 96 18 17 93 24 24 114 25 24 117 28 25 116 24 23 117 25 24 117 26 22 116 21 20 114 13 16 93 12 15 92 11 14 85 10 14 78 9 15 75 12 15 70 10 13 66 9 13 61 9 14 56 9 12 53 8 12 49 8 11 44 7 12 42 7 12 42 8 13 43 7 12 42 6 11 41 7 12 42 
23 18 48 22 19 48 20 17 48 20 17 48 22 18 45 24 19 49 23 18 50 22 19 48 32 21 51 58 35 61 20 17 48 24 19 49 22 17 47 23 18 48 20 17 48 21 18 47 17 16 47 21 18 47 21 16 46 22 19 48 22 17 49 20 17 48 20 17 48 20 17 46 21 16 48 22 19 48 22 19 48 21 18 47 30 21 50 57 34 62 21 18 47 23 18 48 21 18 47 23 18 48 19 16 47 21 16 48 19 16 47 20 17 48 22 17 49 23 18 48 20 17 48 21 18 49 17 16 47 20 17 46 20 17 48 23 18 48 22 17 47 23 18 48 21 18 49 56 33 61 40 27 55 22 19 50 22 19 48 22 17 47 23 18 48 20 17 48 19 16 47 21 18 49 24 19 49 19 16 47 23 18 48 21 18 47 19 16 47 19 16 47 19 17 54 24 19 59 24 17 59 21 18 65 38 26 74 55 35 88 22 18 79 24 19 85 21 18 89 23 20 97 19 18 96 26 23 114 27 23 117 28 24 118 24 23 117 27 23 117 26 22 116 21 20 114 13 16 93 12 15 92 12 15 86 11 15 79 10 14 75 12 15 70 10 13 64 10 14 62 8 13 55 8 12 50 8 12 49 9 12 45 8 13 43 7 12 42 8 13 43 7 12 42 7 12 42 7 12 42 
22 17 47 19 18 49 17 16 47 19 16 47 19 19 47 23 18 48 23 18 50 22 17 49 31 22 51 58 35 63 20 17 48 23 18 48 21 17 50 23 19 46 19 16 47 20 17 48 16 17 47 20 17 46 20 17 48 18 18 46 21 18 49 17 16 47 19 16 47 22 17 49 20 17 48 22 17 47 22 19 48 21 18 49 30 21 50 55 35 62 20 17 48 23 18 48 22 17 47 23 18 48 19 16 47 20 17 48 19 16 47 20 17 48 20 17 48 22 19 50 20 17 48 21 18 49 17 16 47 20 17 48 20 17 46 22 19 50 22 19 50 23 18 48 21 18 49 54 34 61 39 26 54 22 19 48 24 19 49 22 17 49 22 19 50 21 16 48 17 16 47 20 17 48 23 20 49 17 16 47 23 18 50 18 17 48 20 17 48 20 17 48 20 18 55 21 16 57 24 19 60 22 19 66 38 26 74 58 35 89 21 17 76 24 19 85 21 18 87 22 19 96 19 18 94 27 22 114 27 23 117 28 25 116 22 21 115 27 23 117 24 23 117 20 20 116 14 17 94 12 15 92 11 14 83 11 14 81 10 14 75 11 13 70 10 13 64 9 13 61 9 14 56 9 13 51 9 13 50 9 12 45 7 12 42 8 13 43 8 13 43 8 13 43 7 12 42 8 11 42 
22 19 48 22 19 48 19 16 47 18 17 48 20 17 44 22 19 48 22 17 49 21 18 47 31 22 51 58 35 61 20 17 48 23 18 48 20 17 46 22 17 47 17 16 47 20 17 46 16 15 46 21 18 47 20 17 46 21 18 47 21 16 46 20 17 48 19 16 47 17 16 47 21 18 49 22 17 47 23 18 48 22 17 47 31 22 51 55 35 62 20 17 46 23 18 48 20 17 46 23 18 48 17 16 47 20 17 48 16 15 46 18 17 48 20 17 48 21 18 47 20 17 46 20 17 46 19 16 47 20 17 48 19 16 47 23 18 50 22 17 49 23 18 48 21 18 49 56 33 61 40 27 55 19 19 47 22 17 47 22 19 48 22 17 49 19 16 47 17 16 47 17 18 48 23 18 48 17 16 47 22 19 48 21 18 47 17 16 47 17 16 47 19 17 54 23 18 58 23 18 59 21 18 65 38 26 76 57 34 88 22 18 77 23 18 84 23 17 89 22 19 96 18 17 93 28 21 114 28 24 118 28 24 118 23 22 116 27 23 117 24 23 116 20 21 114 13 16 93 13 16 93 12 15 86 10 14 77 10 14 75 12 14 71 9 12 63 9 13 61 9 14 56 9 12 53 8 12 49 8 11 44 7 12 42 9 14 46 9 12 43 9 12 43 7 12 42 7 12 42 
17 16 47 17 16 47 14 15 45 16 15 46 17 16 47 19 16 47 17 16 47 19 16 47 27 21 49 53 35 61 15 14 45 20 17 48 19 16 47 20 17 48 14 15 45 16 15 46 15 14 46 17 16 47 16 15 46 15 14 45 17 16 47 15 16 46 16 15 46 15 14 45 17 16 47 18 17 48 19 16 47 19 16 47 26 19 50 55 35 62 16 15 46 20 17 48 17 16 47 19 16 47 16 15 46 16 15 46 14 15 46 15 16 46 15 14 45 19 15 48 16 15 46 16 15 46 14 15 45 14 13 44 15 14 48 18 17 49 17 14 45 20 17 48 16 16 44 54 31 59 36 25 57 17 16 47 19 16 47 18 15 46 19 16 47 13 16 47 15 14 45 17 16 47 20 17 48 13 14 45 20 17 48 18 15 46 16 15 46 15 14 45 17 15 52 20 18 58 20 18 58 18 17 61 35 25 77 55 35 88 18 17 75 21 19 84 20 19 89 21 18 95 16 18 93 23 23 113 25 24 117 28 23 117 22 21 115 24 23 116 23 22 116 20 21 114 12 15 94 12 15 92 12 15 86 11 14 81 10 14 75 10 12 69 10 13 64 9 13 61 9 14 56 8 11 52 8 12 49 9 12 45 7 12 42 7 12 44 8 11 42 8 11 42 8 11 42 8 11 42 
20 17 48 18 17 48 15 14 45 15 16 46 17 16 47 18 17 48 21 18 49 18 17 48 28 22 50 55 35 62 17 16 47 21 18 49 19 16 47 20 17 46 14 15 45 16 15 46 14 15 45 17 16 47 17 16 47 19 16 47 19 16 47 16 15 46 14 13 44 16 15 46 19 16 47 18 18 46 20 17 48 18 17 48 27 21 49 54 34 61 18 17 48 19 16 47 19 16 47 20 17 48 16 15 46 16 15 46 15 14 45 16 15 46 16 15 46 17 16 47 19 16 47 17 16 47 15 14 45 16 15 46 16 15 46 20 17 48 19 16 47 20 17 48 17 16 47 53 33 60 37 27 54 17 16 47 18 15 46 19 16 47 19 16 47 14 15 45 16 15 46 16 15 46 20 17 46 15 14 45 20 17 48 17 16 47 15 14 45 14 15 45 18 17 51 19 17 56 20 17 60 19 17 64 34 24 76 58 35 89 18 17 77 22 20 85 20 17 86 22 19 96 19 18 94 25 22 113 24 23 116 28 25 116 23 22 116 24 23 116 23 22 116 19 20 113 11 14 91 13 16 93 13 16 87 11 15 79 11 15 76 11 13 70 10 13 64 9 13 61 8 13 55 8 12 50 9 13 50 9 12 45 8 13 43 6 11 41 7 12 42 7 12 42 7 12 42 7 12 42 
17 16 47 17 16 47 13 14 44 15 14 45 17 16 47 19 16 47 19 16 47 19 16 47 27 21 49 54 34 61 16 15 46 20 17 48 20 17 46 20 17 48 14 15 45 18 15 46 15 16 46 17 16 47 15 16 46 16 15 46 18 17 48 14 15 45 15 16 46 15 14 45 18 15 46 18 17 48 19 16 47 17 16 47 26 19 50 53 33 60 16 15 46 20 17 48 18 17 48 20 17 48 15 16 46 18 15 46 16 15 47 17 16 47 16 13 44 20 17 48 16 15 47 16 15 46 13 14 44 16 15 46 15 14 46 17 16 47 19 16 47 19 16 47 16 15 46 52 32 59 35 25 52 17 16 47 19 16 47 19 16 47 20 17 48 14 15 46 15 14 45 16 15 46 20 17 48 14 15 46 20 17 48 16 15 46 16 15 46 15 16 46 18 17 51 19 17 56 18 17 59 20 18 65 35 25 77 57 34 88 18 17 75 21 19 84 20 17 88 22 19 96 18 17 95 26 23 114 24 23 116 27 23 117 23 22 116 24 23 116 23 22 116 20 21 114 12 15 92 13 15 92 12 15 86 11 14 81 10 14 75 10 12 69 10 13 64 9 13 61 9 14 56 9 13 51 8 12 49 8 11 44 7 12 42 8 13 43 7 12 42 7 12 42 7 12 42 7 12 42 
21 18 49 21 18 49 16 15 46 18 17 48 21 18 49 22 17 49 22 17 49 22 17 49 31 22 51 58 35 63 20 17 48 20 20 48 21 18 49 22 17 47 17 16 47 19 16 47 16 15 47 20 17 48 18 17 48 19 16 47 21 18 47 17 16 48 17 16 47 17 16 48 20 17 48 21 18 47 22 19 50 21 18 49 30 21 50 54 34 61 20 17 48 22 19 48 21 18 49 22 19 50 17 16 47 17 17 45 17 16 47 16 15 46 19 16 47 21 18 49 18 17 48 17 16 47 16 15 46 18 17 48 16 15 46 21 18 49 19 18 49 22 19 50 19 16 47 53 33 60 37 27 54 20 17 48 21 18 49 21 18 47 20 17 48 17 16 48 19 16 47 20 17 48 23 18 48 17 16 47 22 17 49 20 17 48 20 17 48 16 15 46 19 17 54 23 18 58 20 18 58 23 17 65 35 25 75 58 35 89 20 19 77 23 18 84 21 18 87 21 18 95 19 16 93 27 22 114 28 24 118 27 24 115 23 22 116 26 22 116 25 24 118 20 21 113 12 15 92 13 15 90 12 15 84 11 15 78 10 15 73 11 13 70 10 13 66 9 13 61 9 14 56 9 12 53 8 12 49 9 12 45 8 13 43 7 12 42 7 12 42 8 13 43 8 13 43 7 12 42 
20 17 46 22 17 47 17 17 45 19 16 47 20 17 48 21 18 47 21 18 47 20 17 48 32 21 51 58 35 63 21 16 46 22 17 47 22 17 47 22 17 47 19 16 45 19 16 45 18 15 46 20 17 46 22 17 49 19 16 47 20 17 46 18 17 48 17 16 47 19 16 47 21 16 46 21 18 47 21 18 49 22 17 47 31 20 50 57 34 62 19 16 47 22 17 49 19 16 47 21 18 47 17 16 47 17 16 47 16 15 46 17 17 45 17 16 48 20 17 46 17 16 47 17 16 47 16 15 46 16 15 46 16 15 46 22 19 50 20 17 48 22 17 47 20 17 48 54 34 61 39 26 54 20 17 48 20 17 46 20 17 48 21 18 47 16 15 46 17 16 47 19 16 47 22 17 47 16 15 46 21 18 47 19 16 47 17 16 47 16 15 46 18 16 53 20 18 57 25 18 62 19 17 64 35 25 75 57 34 88 20 19 77 23 18 85 22 19 88 21 20 96 19 18 94 26 21 113 26 22 116 27 24 115 24 23 117 26 25 118 25 24 117 20 21 114 13 14 94 12 15 92 11 13 87 10 14 78 10 14 75 11 14 69 9 12 63 9 13 61 9 14 56 8 13 51 8 12 49 7 12 44 9 14 44 7 12 42 8 11 42 8 11 42 8 11 42 8 11 42 
23 18 48 21 16 46 18 18 46 21 16 46 23 16 47 23 16 47 23 16 47 24 18 46 33 22 52 58 35 63 21 16 46 25 18 49 23 16 47 24 17 48 20 15 45 22 17 47 20 15 47 21 18 47 22 17 47 21 16 48 21 16 46 20 17 48 16 15 46 19 16 47 21 18 47 22 19 48 21 16 48 22 17 49 29 20 49 56 33 59 19 16 47 20 17 48 19 16 47 22 17 47 18 15 46 17 16 47 16 15 46 19 16 47 19 16 47 21 18 49 20 17 48 20 17 48 16 15 46 19 16 47 16 15 46 21 18 49 20 16 49 22 19 50 20 17 48 52 32 59 39 26 54 20 17 48 21 18 47 21 18 49 20 17 48 17 16 47 19 16 47 17 16 47 23 18 48 17 16 47 21 18 47 19 16 47 19 16 47 16 15 46 20 16 51 20 18 57 23 18 59 18 16 63 35 25 75 58 35 89 22 18 77 23 18 82 20 17 86 21 19 94 19 18 94 27 22 114 27 23 117 27 23 117 24 23 117 24 23 116 24 23 116 20 21 113 13 15 92 12 15 92 12 15 86 12 16 80 10 14 75 11 14 69 10 13 64 9 13 61 9 14 56 8 13 51 8 12 49 7 12 44 8 13 43 7 12 42 9 12 43 7 10 41 8 11 42 8 11 42 
21 16 46 21 18 49 21 16 48 19 16 47 20 14 48 22 17 47 23 17 45 23 16 49 34 21 51 58 35 61 22 17 47 24 17 48 23 16 47 23 18 48 22 17 47 21 16 46 21 16 46 22 15 46 22 17 47 22 17 47 23 16 47 20 15 45 20 17 48 20 17 46 21 18 47 23 18 48 23 17 45 22 17 47 30 21 50 56 33 61 20 17 46 23 18 48 20 17 48 22 17 47 19 16 47 19 16 47 17 16 47 19 16 47 17 16 47 20 17 48 19 16 47 21 18 47 16 15 46 19 16 47 19 16 47 21 16 48 22 18 45 23 18 48 19 16 47 53 33 60 39 26 54 20 17 48 20 17 46 20 17 48 20 17 46 16 15 46 17 17 45 19 16 47 21 18 49 17 16 47 22 17 47 19 16 47 16 15 46 15 14 45 19 18 52 20 18 55 23 17 61 18 19 67 35 25 75 57 34 88 22 18 77 24 19 83 21 18 87 22 20 95 19 18 94 27 22 114 27 23 117 27 23 117 23 22 116 24 23 116 23 22 115 19 20 112 13 15 92 12 16 90 12 15 86 11 15 78 10 14 75 11 14 69 10 13 64 10 14 62 8 13 55 8 13 51 9 13 50 8 11 44 8 13 43 8 13 43 8 11 42 8 11 42 8 11 42 9 12 43 
20 15 45 20 17 46 19 16 47 16 15 46 21 16 46 21 16 46 20 15 47 21 16 46 33 20 48 56 33 61 20 15 45 22 16 44 23 16 47 22 16 44 19 14 44 21 16 46 20 15 45 21 16 46 21 16 46 20 15 45 20 15 45 18 18 46 16 15 47 17 16 47 17 17 45 21 18 47 20 17 48 19 16 47 26 20 48 53 33 61 19 16 47 21 18 49 19 16 47 19 16 47 17 14 45 16 15 47 14 13 44 15 16 46 16 15 46 19 16 47 16 15 47 16 15 46 14 15 45 17 16 47 15 14 45 20 17 48 19 16 47 20 17 48 16 15 47 52 32 60 35 24 54 16 15 46 19 16 47 19 16 47 18 15 46 15 14 45 14 15 45 14 15 45 21 16 46 13 14 44 17 17 45 15 16 46 14 15 46 15 14 48 17 16 50 17 14 57 19 17 57 17 18 64 35 25 75 54 34 85 17 18 75 20 18 81 21 18 87 22 20 95 18 17 93 27 22 114 26 22 116 26 22 116 23 22 116 24 23 116 24 23 116 20 21 113 13 15 92 12 16 90 12 15 86 11 15 79 10 14 75 11 13 70 9 12 63 10 14 62 9 14 56 8 12 50 8 12 49 9 12 45 8 13 43 7 12 42 9 12 43 6 9 40 9 12 43 8 11 42 
21 16 46 20 15 45 18 15 44 20 15 45 21 16 46 21 14 45 23 16 47 23 14 45 32 21 51 57 34 60 20 17 46 25 16 47 21 16 46 25 16 47 20 15 45 20 15 45 20 15 45 21 16 46 23 17 45 21 16 46 22 17 47 21 16 46 20 15 45 21 16 46 22 17 47 24 17 48 22 17 47 22 17 47 29 20 49 54 34 61 19 16 43 21 18 47 19 16 47 21 18 49 19 16 47 17 16 47 17 16 47 16 17 45 17 16 47 20 17 46 19 16 47 16 15 46 14 13 44 17 14 45 15 14 45 20 17 48 19 16 47 19 16 45 16 15 46 52 32 59 36 26 53 17 16 47 20 17 46 19 16 47 19 16 47 15 14 45 15 14 45 16 15 46 18 17 48 15 14 46 20 17 48 16 15 46 16 15 46 14 15 45 17 17 51 19 17 54 19 16 59 18 16 65 35 25 75 57 34 86 21 15 75 21 19 82 21 18 87 22 20 95 19 18 94 25 22 113 23 22 115 27 23 117 23 22 116 24 23 116 23 22 116 20 21 113 13 15 92 12 16 90 13 16 87 11 15 79 10 14 75 10 12 69 10 13 64 10 14 62 10 13 56 8 12 50 7 11 48 9 12 45 8 13 43 8 11 42 8 11 42 8 11 42 8 11 42 9 12 43 
21 16 46 21 16 48 19 16 47 18 15 46 20 15 45 23 16 47 20 15 45 22 15 46 31 21 48 57 34 62 20 15 45 22 15 46 22 15 46 25 16 47 20 15 45 20 15 45 18 13 43 21 16 46 24 15 46 20 15 45 23 16 47 21 16 46 19 16 45 20 15 45 20 15 45 22 17 47 20 17 46 21 16 46 29 20 49 53 33 60 19 16 47 20 17 46 19 16 47 21 16 46 16 15 46 15 14 45 13 14 44 16 15 46 15 14 45 19 16 47 15 16 46 15 16 46 13 14 44 15 16 46 13 14 44 17 16 47 17 16 47 19 16 47 16 15 46 50 32 58 36 25 55 17 16 47 17 16 47 17 16 47 17 16 47 14 15 45 15 16 46 16 15 47 20 17 48 13 14 44 19 16 45 16 15 46 14 15 46 14 15 46 17 16 50 18 15 58 19 17 57 17 15 62 35 25 75 54 34 85 18 17 75 21 19 84 21 18 87 21 19 94 18 17 93 25 22 113 24 23 116 25 21 115 22 21 115 24 23 116 24 23 116 20 21 113 12 14 91 12 16 90 12 15 86 9 13 77 10 14 75 11 13 70 9 12 63 10 14 62 9 12 55 8 12 50 8 12 49 8 11 44 7 12 42 8 11 42 8 11 42 7 10 41 9 12 43 8 11 42 
26 17 48 23 16 47 24 15 46 22 15 46 25 16 45 26 17 46 25 16 45 27 16 46 37 21 50 60 34 59 25 16 47 26 15 47 26 17 46 29 16 46 21 15 43 25 16 47 23 17 45 26 17 46 28 17 47 27 17 44 27 16 46 26 17 46 25 16 47 22 17 49 23 16 47 25 18 49 22 17 47 24 17 50 32 21 51 58 35 61 22 17 47 24 19 51 23 18 50 23 19 46 20 17 48 20 17 48 19 16 47 20 17 46 22 19 50 22 17 47 20 17 48 20 17 48 17 16 47 20 17 48 19 16 47 22 17 47 20 17 48 23 19 46 20 17 48 52 32 59 39 26 54 20 17 48 21 18 47 22 19 50 20 17 46 20 17 48 19 16 47 20 17 48 22 17 47 18 15 46 21 18 47 20 15 47 19 16 47 17 16 47 19 17 54 22 17 57 23 17 61 20 18 65 35 25 75 57 34 88 19 18 76 24 19 85 21 18 87 21 19 94 20 17 94 27 22 114 26 22 116 28 24 118 24 23 117 24 23 116 24 23 116 19 20 112 13 15 92 12 16 90 11 14 85 9 13 77 10 15 73 11 13 70 11 13 64 10 14 62 9 12 55 8 12 50 8 12 49 9 12 45 7 12 42 9 12 43 9 12 43 9 12 43 8 11 42 9 12 43 
26 17 46 26 17 46 25 16 47 25 16 45 29 16 46 29 16 46 31 16 47 29 16 44 40 21 49 60 36 60 30 17 47 31 16 45 30 17 47 31 16 45 29 16 46 27 16 46 26 15 45 30 17 47 31 18 48 26 15 45 27 16 46 28 17 47 26 17 46 27 16 46 26 17 46 27 18 47 24 17 48 24 18 46 32 22 49 58 35 61 22 17 47 23 18 48 22 17 49 23 18 48 19 16 47 19 16 47 19 16 45 20 17 46 19 16 47 22 17 47 21 18 49 20 17 44 17 16 47 20 17 46 18 15 46 23 18 48 22 17 47 22 17 47 20 17 48 53 33 60 40 27 55 21 18 49 22 17 47 22 17 49 21 18 49 19 14 46 17 16 47 19 16 47 22 17 47 17 16 47 23 18 48 20 17 46 17 16 47 17 16 47 20 16 51 23 19 56 23 18 59 21 18 65 35 25 75 58 35 89 21 17 76 24 19 83 25 19 89 24 20 97 19 16 93 27 22 114 27 23 117 29 24 116 26 22 117 27 23 117 24 23 116 20 21 113 15 17 94 12 16 90 12 15 86 11 15 79 10 15 73 11 14 69 12 14 65 10 14 62 8 11 54 9 13 51 8 12 49 8 11 44 9 12 43 8 11 42 8 11 42 8 11 42 8 11 42 8 11 42 
33 18 49 31 18 46 29 16 46 30 17 47 32 17 46 32 17 46 33 17 46 35 16 46 43 23 51 61 35 60 32 16 43 34 18 45 33 17 44 33 17 46 32 17 46 31 16 45 30 17 47 31 18 46 33 17 46 32 17 48 31 16 45 28 18 45 28 17 47 26 17 46 27 16 46 30 19 49 29 18 48 27 18 49 37 24 52 59 35 61 23 19 46 26 19 50 21 18 47 25 18 49 22 17 47 21 16 46 21 18 49 20 17 46 22 17 47 22 19 48 20 17 44 20 17 46 20 17 48 20 17 48 19 16 47 23 16 47 22 17 47 24 17 48 20 17 48 52 32 59 39 26 54 21 18 47 22 17 47 21 18 47 22 17 47 18 18 46 19 16 47 20 17 48 23 18 48 19 16 47 22 17 47 19 16 47 20 17 48 17 17 45 21 17 52 22 20 57 20 18 58 21 18 65 37 25 75 57 34 86 21 17 76 21 19 84 21 18 85 23 19 96 19 18 94 26 23 114 27 24 115 27 22 116 24 24 114 25 24 117 24 23 116 21 20 113 13 15 92 12 16 90 12 15 86 10 14 78 10 15 73 10 13 68 10 13 64 10 14 62 9 12 55 9 13 51 8 12 49 7 12 44 7 12 42 7 12 42 8 11 42 8 11 42 8 11 42 8 11 42 
28 15 45 27 16 46 26 15 45 26 16 43 29 16 46 30 15 44 31 18 46 32 16 45 43 20 49 63 35 60 32 16 45 35 16 46 34 15 45 33 17 44 30 15 44 32 16 45 31 16 45 32 17 48 33 17 46 30 15 44 32 17 46 31 16 47 27 16 46 27 16 46 28 18 43 31 18 46 28 19 48 28 17 47 35 22 50 58 34 60 23 16 47 24 19 49 21 16 46 23 16 49 17 16 47 20 15 45 18 15 46 17 16 47 19 16 47 21 16 46 17 16 47 17 16 47 18 15 46 18 15 46 16 15 46 21 16 48 20 17 46 22 17 47 19 16 47 51 31 58 41 25 54 20 17 48 23 16 49 21 18 49 20 17 48 15 14 45 17 16 47 19 16 47 20 17 46 15 14 45 20 17 48 18 15 46 16 15 46 16 15 46 20 16 53 20 18 55 21 19 59 21 18 65 37 25 73 57 33 85 21 17 78 23 18 84 21 18 87 21 18 95 20 18 91 26 23 114 24 23 116 28 23 117 25 21 115 26 22 116 24 23 116 22 21 114 13 14 94 12 16 90 11 14 85 10 14 78 10 15 73 12 15 70 10 13 64 9 13 61 9 12 55 8 12 50 7 11 48 7 12 44 8 13 43 6 11 41 8 11 42 8 11 42 8 11 42 8 11 42 
