P3
100 50
255
5 20 49 5 20 49 5 19 48 4 19 48 6 21 50 4 19 52 4 19 50 4 19 48 4 19 48 5 19 48 5 19 48 5 18 50 4 19 48 3 18 49 4 19 50 4 17 49 4 19 50 3 18 49 7 18 50 4 19 50 5 20 51 4 19 50 4 19 50 5 20 51 4 19 50 4 19 50 4 19 50 4 19 50 5 18 50 5 18 50 5 18 50 5 18 50 5 18 50 5 18 50 5 18 50 5 18 50 5 19 48 5 19 48 4 17 49 5 19 48 5 19 48 5 19 48 5 19 48 5 18 50 5 18 50 4 17 49 5 18 50 4 17 49 5 18 50 5 18 50 4 17 49 5 18 50 6 19 51 5 18 50 5 18 50 5 18 50 5 18 50 6 19 51 5 18 50 5 18 50 5 19 48 6 20 49 5 19 48 5 19 48 5 19 48 5 19 48 4 18 47 5 19 48 6 19 51 5 18 50 5 18 50 5 18 50 5 18 50 5 18 50 4 19 48 5 20 49 4 19 50 3 18 49 4 19 50 5 18 50 5 18 50 4 17 49 5 18 50 5 18 50 5 19 48 5 18 50 4 19 50 4 19 50 5 18 50 5 20 51 5 19 48 2 19 47 4 19 48 6 20 49 5 20 53 5 18 50 6 20 49 5 20 49 5 20 49 4 21 51 
4 21 49 5 20 49 5 20 49 5 20 49 5 21 47 5 20 49 5 20 49 5 20 51 4 19 48 5 20 51 7 18 50 4 19 50 4 19 50 4 19 48 4 19 48 4 19 50 4 19 50 5 18 50 5 18 50 5 18 50 5 18 50 5 18 50 5 18 50 5 18 50 6 19 51 5 18 50 5 18 50 5 18 50 4 19 50 3 18 49 5 20 51 3 18 49 5 18 50 5 18 50 4 17 49 5 18 50 4 17 49 5 18 50 4 17 49 6 19 51 6 19 51 5 18 50 5 18 50 4 17 49 6 20 49 6 20 49 6 20 49 6 20 49 5 19 48 6 20 49 6 20 49 5 19 48 5 18 50 5 18 50 5 18 50 5 18 50 4 17 49 5 18 50 5 18 50 5 18 50 5 18 50 4 19 50 5 18 50 3 18 49 5 20 51 5 18 50 4 19 50 5 18 50 5 18 50 5 18 50 5 18 50 5 18 50 5 18 50 4 17 49 5 19 48 5 19 48 4 18 47 6 20 49 6 20 49 5 19 48 4 17 49 5 18 50 5 18 50 5 18 50 4 17 49 7 20 52 4 19 48 6 20 49 4 19 48 5 20 49 5 20 49 5 20 49 3 20 50 5 20 49 5 22 52 4 21 49 5 20 49 5 20 51 6 21 50 5 20 49 
5 22 48 4 21 49 5 20 49 6 22 48 5 20 49 5 20 49 6 21 50 5 20 49 6 21 50 3 18 47 5 20 49 4 21 49 6 21 50 6 21 50 4 19 48 5 20 49 4 19 48 4 19 48 5 19 48 5 20 49 5 19 48 5 19 48 6 20 49 5 19 48 5 18 50 6 19 51 6 19 51 5 18 50 5 18 50 5 18 50 5 18 50 5 18 50 5 18 50 5 18 50 4 17 49 5 18 50 4 17 49 5 19 48 5 19 48 5 19 48 5 18 50 5 18 50 5 18 50 6 20 49 4 17 49 5 18 50 5 18 50 5 18 50 5 18 50 5 18 50 4 17 49 5 18 50 4 18 47 4 18 47 5 19 48 5 19 48 5 19 48 5 19 48 6 20 49 6 20 49 5 18 50 5 18 50 4 17 49 5 18 50 5 18 50 5 18 50 4 17 49 5 18 50 6 19 51 5 18 50 5 18 50 6 20 49 6 20 49 4 19 48 4 19 48 3 20 48 5 20 49 4 19 48 4 19 48 4 19 48 5 20 49 4 19 48 4 19 48 5 20 49 5 20 49 6 21 50 5 20 49 5 20 49 5 20 49 4 19 48 6 21 50 4 19 48 5 21 47 5 20 49 5 20 49 5 21 47 4 21 47 5 22 50 5 22 50 6 21 50 
6 23 49 5 22 48 6 23 49 6 23 49 5 22 48 7 23 49 5 22 48 4 21 49 4 21 49 6 21 50 4 21 47 4 21 49 5 21 47 5 20 49 5 20 49 5 20 49 5 20 49 5 20 49 6 21 50 5 20 49 5 20 49 5 20 49 5 20 49 6 21 50 5 20 49 5 20 49 6 21 50 5 20 49 5 20 49 5 20 49 5 20 49 5 20 49 5 20 49 5 20 49 5 20 49 5 20 49 5 20 49 5 20 49 4 19 48 4 19 48 5 20 49 4 19 48 4 19 48 5 20 49 5 20 49 5 20 49 5 20 49 5 20 49 5 20 49 5 20 49 6 21 50 6 21 50 5 20 49 5 20 49 5 20 49 5 20 49 5 20 49 6 21 50 6 21 50 5 20 49 6 21 50 5 20 49 5 20 49 5 20 49 5 20 49 5 20 49 5 20 49 4 19 48 6 21 50 5 20 49 5 20 49 5 20 49 5 20 49 5 20 49 5 20 49 6 21 50 5 20 49 6 21 50 5 20 49 6 21 50 5 20 49 7 22 51 5 20 49 5 20 49 5 19 48 6 21 50 5 20 49 4 21 49 5 20 49 5 20 49 5 20 49 4 21 49 6 22 48 5 22 48 5 22 48 6 23 49 6 23 49 5 22 48 5 22 48 5 22 50 
5 22 48 6 23 49 4 24 49 5 25 49 4 24 49 6 23 49 5 25 50 2 24 48 6 23 49 6 23 49 5 23 47 6 23 49 6 21 50 6 23 49 6 22 48 5 20 49 5 22 50 5 20 49 5 20 49 5 20 49 5 20 49 5 20 49 6 21 50 5 20 49 5 20 49 5 20 49 5 20 49 5 20 49 5 20 49 4 19 48 5 20 49 5 20 49 5 20 49 5 20 49 4 19 48 5 20 49 4 19 48 5 20 49 5 19 48 5 19 48 5 20 49 4 19 48 4 19 48 6 20 49 4 19 48 5 20 49 4 19 48 5 20 49 5 20 49 4 19 48 5 20 49 4 19 48 4 19 50 4 19 50 5 20 51 5 20 51 5 20 51 4 19 50 5 20 51 5 20 51 5 19 48 4 19 48 6 20 49 5 20 49 4 19 48 6 20 49 5 20 49 7 21 50 5 20 49 5 20 49 5 20 49 5 20 49 5 20 49 5 20 49 5 20 49 5 20 49 5 20 49 5 20 49 4 19 48 4 19 48 5 20 49 5 20 49 6 21 50 5 20 49 5 20 49 5 20 49 5 22 50 5 22 48 5 22 48 5 22 48 6 23 49 3 23 48 6 23 49 6 23 49 4 24 49 4 24 49 3 25 49 5 25 49 7 25 49 4 24 49 
5 25 50 5 25 50 4 24 48 7 25 49 5 25 49 5 25 49 5 25 49 4 24 49 4 24 48 5 25 50 6 24 48 4 24 49 3 25 49 4 24 49 4 24 49 4 24 48 5 23 47 6 23 49 6 23 49 6 23 49 6 23 51 5 22 50 5 22 50 6 23 51 4 21 49 5 22 50 5 22 50 6 23 51 5 20 49 6 21 50 5 20 49 6 21 50 5 20 49 6 21 50 5 20 49 5 20 49 5 20 49 5 20 49 5 20 49 5 20 49 6 21 50 5 20 49 4 19 48 4 19 48 6 21 50 6 21 50 5 20 49 6 21 50 5 20 49 5 20 49 5 20 49 5 20 49 5 20 49 6 21 50 6 21 50 6 21 50 5 20 49 4 19 48 5 20 49 4 19 48 5 20 49 6 21 50 5 20 49 6 21 50 6 21 50 5 20 49 6 21 50 6 21 50 5 20 49 5 20 49 4 21 49 5 22 50 5 22 50 5 22 50 5 22 48 5 22 48 5 22 48 5 22 48 6 23 49 6 23 49 5 22 48 6 23 49 6 23 49 6 23 49 4 24 49 5 25 50 4 24 49 4 24 49 5 25 50 4 24 48 4 24 48 4 24 48 4 26 49 5 25 50 4 24 49 3 25 48 5 25 49 5 25 49 6 24 48 6 24 48 
5 51 49 6 43 51 6 35 49 6 31 51 5 27 50 5 25 49 5 25 50 5 25 50 4 26 49 5 25 49 5 25 50 5 25 49 5 27 50 4 26 49 5 25 49 5 25 49 5 25 49 7 25 49 4 24 48 5 25 50 6 26 50 4 24 48 5 25 49 4 24 48 4 24 48 5 25 50 5 25 50 5 25 50 4 24 49 3 23 48 5 25 50 4 24 49 6 23 49 7 24 50 5 22 48 6 23 49 6 23 49 6 23 49 6 23 49 6 23 49 6 23 49 5 22 48 6 23 49 6 23 49 6 23 49 6 23 49 6 23 49 6 23 49 6 23 49 6 23 49 5 22 48 6 23 49 5 25 50 4 24 49 4 24 49 4 24 49 5 25 50 4 24 49 5 25 50 4 24 49 6 23 49 6 23 49 7 24 50 6 23 49 6 23 49 6 23 49 6 23 49 6 23 49 4 21 47 5 22 48 6 23 49 6 23 49 6 23 49 4 24 49 4 24 49 4 24 49 5 25 49 5 25 49 4 24 48 4 24 48 5 25 50 5 25 50 5 25 50 4 24 49 5 25 49 5 25 49 5 25 49 6 26 50 5 25 49 3 25 48 6 26 50 6 26 50 5 25 49 5 25 49 4 24 48 5 25 49 6 28 49 6 35 49 4 43 50 6 50 51 
6 62 49 5 63 48 5 61 50 5 58 50 6 55 49 6 47 49 6 40 49 5 32 49 4 29 49 5 27 50 6 26 50 4 26 49 5 25 49 5 25 49 5 25 49 5 25 49 5 25 49 6 26 50 5 25 49 6 26 50 5 25 49 6 26 50 5 25 49 6 26 50 7 27 51 6 26 50 6 26 50 5 25 49 5 25 49 6 26 50 5 25 49 6 26 50 5 25 49 6 26 50 5 25 49 5 25 49 5 25 50 5 25 50 5 26 47 5 25 49 5 25 50 4 24 49 5 25 50 5 26 47 5 25 49 5 25 49 6 26 50 5 25 49 5 25 49 5 25 49 6 26 50 5 25 49 5 25 49 5 25 49 5 25 49 5 25 49 5 25 49 5 25 49 7 27 51 6 26 50 6 26 50 5 25 49 5 25 49 6 26 50 4 24 48 4 24 48 5 25 49 4 24 48 6 26 50 5 27 50 5 27 50 5 27 50 3 28 50 5 27 50 5 27 50 5 27 51 5 25 49 6 26 50 7 27 51 5 25 49 5 25 49 5 25 49 5 25 49 5 25 49 5 25 49 7 25 49 5 25 49 5 25 49 5 25 49 4 24 48 6 26 50 6 28 51 6 34 48 6 40 49 7 48 50 7 56 52 6 59 49 8 62 49 6 64 50 6 64 50 
6 50 51 6 57 50 5 61 50 7 63 50 6 62 49 5 63 49 6 62 49 7 60 50 6 57 50 6 55 51 5 49 50 6 43 49 6 38 49 7 37 48 6 34 48 5 30 50 5 27 48 4 26 49 4 24 48 6 26 50 5 25 49 3 23 47 5 25 49 5 25 49 5 25 49 5 25 49 5 25 49 5 25 49 6 26 50 5 25 49 5 25 49 5 27 50 7 25 49 5 25 49 5 27 50 5 25 49 5 27 50 5 27 50 5 27 50 5 27 50 4 26 49 4 26 49 4 26 49 5 27 50 6 26 50 5 27 50 3 28 50 5 27 50 5 27 50 5 27 50 5 27 50 6 26 50 5 27 50 5 27 50 6 26 50 5 25 49 6 26 50 4 26 49 5 27 50 4 26 49 5 27 50 7 27 51 6 26 50 5 25 49 5 25 49 3 25 48 5 25 49 5 25 49 5 25 49 6 26 50 5 25 49 5 25 49 4 26 49 4 26 49 6 26 50 6 26 50 5 25 50 6 26 50 5 25 49 5 25 49 5 25 49 7 25 49 8 26 50 5 27 50 5 30 50 6 32 49 4 36 49 6 40 49 7 46 51 6 50 49 4 55 50 7 58 51 6 62 49 5 63 49 5 63 49 7 63 50 7 63 50 5 63 51 6 57 50 5 49 50 
5 25 50 5 27 50 3 28 48 5 34 48 5 44 49 7 52 49 7 61 48 6 64 50 6 62 51 7 63 50 7 63 50 7 63 50 6 62 49 7 63 50 6 62 49 5 61 48 7 60 50 7 58 51 5 54 51 6 52 50 6 50 51 7 46 51 7 46 51 6 43 49 7 41 50 6 40 50 7 39 50 7 36 52 4 36 49 5 34 48 6 35 49 5 34 48 6 34 48 6 33 50 5 34 50 6 33 50 7 34 51 6 33 50 5 32 49 4 31 48 5 30 50 5 30 50 5 30 50 4 29 49 5 27 50 4 29 49 5 30 50 6 33 52 6 33 50 6 33 50 5 32 51 4 33 49 6 33 52 5 30 50 6 28 49 4 29 49 5 30 50 5 30 50 6 31 51 6 31 51 5 30 50 5 32 51 6 33 50 6 33 50 6 33 50 6 33 50 7 34 51 4 33 47 6 33 50 7 35 49 5 37 52 7 36 50 4 36 49 6 40 49 3 39 51 4 41 50 5 42 50 6 45 50 6 47 49 5 49 48 6 52 50 7 56 50 7 58 51 6 59 51 5 61 50 6 62 49 7 64 49 6 64 50 6 62 49 7 63 52 5 63 49 7 63 50 6 62 49 5 61 52 4 53 50 6 45 50 7 36 50 6 28 49 7 25 49 6 24 48 
4 24 49 4 24 49 7 24 50 4 24 49 5 25 49 6 26 50 4 29 49 6 35 49 6 40 49 5 46 48 5 54 50 6 57 50 5 61 50 6 62 49 8 62 49 7 63 50 5 63 49 7 65 53 5 63 49 5 63 49 5 63 49 6 64 50 7 65 51 6 62 49 6 62 49 6 62 49 6 62 49 7 63 50 6 62 51 6 62 49 6 62 51 6 62 49 8 61 51 7 61 48 5 61 50 5 61 50 5 61 48 5 61 50 5 61 50 4 60 49 6 59 49 7 60 50 7 60 50 6 59 51 7 60 50 7 60 50 7 60 50 5 61 50 6 62 51 6 62 51 8 61 51 7 61 48 5 61 50 5 61 50 6 59 49 6 59 49 6 59 49 4 62 50 7 60 50 7 60 50 7 60 50 5 61 50 8 61 51 5 61 50 5 61 50 7 60 50 6 62 51 8 61 51 6 62 51 6 62 51 6 62 51 5 61 50 5 63 51 5 61 50 7 63 50 5 63 51 5 63 48 6 62 49 6 63 48 5 63 49 5 63 49 6 62 49 7 63 50 4 62 48 7 63 50 7 63 50 8 61 51 5 63 51 6 57 50 7 53 50 6 47 51 7 41 50 6 36 47 5 30 50 5 27 51 5 25 49 5 25 49 5 22 48 5 22 48 4 24 48 
6 23 49 3 23 48 5 22 48 5 22 48 6 23 49 4 24 49 5 25 50 4 24 48 4 24 49 5 25 49 5 27 48 3 28 50 4 29 49 6 34 48 5 39 49 5 44 49 6 50 51 7 53 50 4 55 50 7 58 51 5 61 50 5 63 51 6 62 51 7 63 52 6 64 50 7 63 50 6 62 49 7 63 50 6 64 50 5 63 49 7 63 50 7 63 50 6 62 49 6 62 49 7 65 51 5 63 49 5 63 49 5 63 49 6 64 50 5 63 49 5 63 49 5 63 49 5 63 49 5 63 49 7 63 50 7 63 50 6 62 49 6 62 49 6 64 50 6 64 50 6 62 49 9 63 50 7 63 50 7 63 50 7 63 50 5 63 49 6 62 49 8 64 51 4 62 48 6 64 50 6 62 49 5 63 49 6 64 50 5 63 49 5 63 49 6 62 49 5 63 49 5 63 49 6 64 50 6 62 51 6 62 49 6 62 49 7 63 50 6 62 49 5 63 51 6 62 49 6 64 50 7 63 50 6 62 49 6 59 49 6 57 50 5 56 49 6 52 49 6 50 49 6 45 50 6 40 49 6 33 50 5 30 50 5 27 48 7 27 51 5 25 49 5 25 49 4 24 48 5 25 50 6 23 49 6 24 48 4 24 49 5 22 48 5 22 48 6 23 49 
5 22 50 5 22 50 6 23 51 3 23 48 6 23 49 5 22 48 6 24 48 5 25 50 4 26 49 4 24 49 5 25 49 6 26 50 5 25 50 5 25 49 5 25 49 5 25 49 4 26 49 5 27 50 5 27 50 5 27 48 5 30 50 6 33 52 6 33 50 5 34 48 7 36 50 6 35 49 5 39 49 6 40 50 7 41 50 6 40 49 6 43 51 6 43 51 6 43 49 6 43 49 6 43 49 5 44 49 4 48 49 5 49 50 4 48 49 4 48 49 5 49 50 5 49 50 5 49 50 5 49 50 5 49 52 4 48 49 5 49 50 5 49 50 5 49 48 4 50 48 5 51 49 5 50 47 6 50 51 5 49 50 4 48 49 5 49 50 4 48 49 5 49 50 5 49 50 4 48 49 6 50 51 4 48 49 4 50 50 3 47 50 6 45 50 5 42 50 6 43 51 6 45 52 8 42 51 6 43 49 4 41 49 6 40 49 3 41 50 5 39 49 6 35 49 4 36 49 6 35 51 6 33 50 7 30 48 4 29 49 4 29 49 5 27 51 5 27 50 6 26 50 5 25 49 5 25 49 5 26 47 6 26 50 8 26 50 5 25 49 4 24 48 7 25 49 2 24 47 5 22 48 6 23 49 6 23 49 6 24 48 4 24 49 5 22 50 5 20 49 
5 20 49 5 20 49 6 21 52 4 21 47 6 22 48 6 22 48 6 23 51 5 22 48 5 22 48 6 23 49 6 23 49 5 25 49 5 25 50 5 26 47 5 25 49 3 25 46 8 26 50 5 25 49 5 25 49 5 25 49 5 25 49 5 25 49 8 28 52 6 26 50 5 25 49 3 25 48 5 25 49 6 26 50 5 25 49 5 25 49 5 25 49 5 25 49 4 24 48 4 24 48 5 25 49 4 24 48 4 24 48 6 26 50 5 25 49 5 25 49 5 25 49 6 26 50 5 25 49 5 25 49 5 27 50 4 26 49 4 26 49 5 25 49 5 25 49 5 25 49 5 25 49 4 26 49 5 25 49 5 25 49 4 26 49 5 25 49 5 25 49 6 26 50 5 25 49 5 25 49 5 25 49 5 25 49 6 26 50 5 25 49 6 26 50 6 26 50 5 25 49 4 24 48 4 24 48 5 25 50 5 27 50 5 25 49 5 25 49 5 25 49 6 26 50 6 26 50 5 25 50 7 25 47 6 26 50 5 25 49 6 26 50 6 26 50 5 25 49 5 25 49 5 25 50 5 25 49 6 26 50 4 24 48 6 26 51 6 23 49 6 23 49 5 25 50 5 22 48 3 23 48 6 22 48 6 21 50 5 22 50 4 21 49 5 21 47 6 21 50 
4 19 50 5 20 49 4 19 48 4 21 47 5 20 49 5 20 49 5 21 47 5 21 46 5 20 49 4 21 47 5 22 48 6 23 49 6 23 49 6 23 49 4 24 48 4 24 49 5 25 49 4 24 48 5 25 49 6 26 50 5 25 49 5 26 47 5 25 49 5 25 49 5 27 50 5 27 50 7 27 51 5 27 48 6 26 50 5 27 48 5 27 50 5 27 48 6 28 51 6 27 48 5 27 50 5 27 48 4 26 49 5 27 50 5 27 50 5 27 50 5 27 50 5 27 50 5 27 50 4 26 47 5 27 50 5 27 50 3 28 48 5 27 48 5 27 48 6 27 48 5 27 50 5 27 50 5 27 50 3 28 50 5 27 50 5 27 50 3 28 50 5 25 49 5 27 50 6 28 51 5 27 48 6 28 49 5 25 49 5 27 50 4 26 47 5 27 48 4 26 49 5 27 50 6 27 48 5 27 50 6 26 50 6 27 48 5 27 48 7 27 51 7 27 51 4 26 47 5 25 49 5 25 49 5 25 49 6 26 50 7 25 49 5 25 49 5 25 49 4 24 48 6 24 48 6 23 49 6 23 49 6 23 49 6 23 49 6 23 49 5 22 50 5 22 50 6 21 50 5 21 47 5 21 47 5 20 49 5 20 49 5 20 49 5 19 48 6 20 49 
5 19 48 4 19 48 5 20 49 5 19 48 5 19 46 5 20 49 5 20 49 5 20 49 5 21 47 5 20 49 6 20 49 4 21 49 5 21 47 7 23 49 5 22 48 6 23 49 7 25 49 6 23 49 5 25 50 4 24 48 6 26 50 5 25 49 4 26 49 4 26 49 6 26 50 7 27 51 4 26 49 5 27 50 6 28 51 5 25 49 5 27 50 6 26 50 5 25 49 5 25 49 6 26 50 4 26 49 6 26 50 5 25 49 5 25 49 6 26 50 6 27 48 5 26 47 6 27 48 5 26 47 4 26 49 4 26 47 4 26 47 4 26 47 5 27 48 3 28 48 5 27 50 5 27 50 6 26 50 6 26 50 5 27 50 4 26 49 6 26 50 5 25 49 5 27 50 4 26 49 4 26 49 3 25 48 5 25 49 6 26 50 5 25 49 4 26 49 6 26 50 6 26 50 5 25 49 5 27 50 3 28 50 6 26 50 5 27 50 5 27 50 4 26 49 5 27 50 5 25 49 5 25 49 5 25 49 5 25 49 5 25 50 4 24 48 3 23 48 4 24 49 5 22 48 3 23 48 6 23 49 7 22 51 5 20 49 5 20 49 3 20 46 5 21 47 5 19 48 5 20 49 4 21 51 5 19 48 6 20 49 6 20 49 5 18 50 8 19 51 
5 18 50 4 17 49 5 18 50 5 18 50 5 19 48 5 18 50 4 17 49 5 19 48 5 20 49 6 21 50 5 20 49 4 19 48 4 19 48 5 20 49 4 21 49 5 22 50 6 23 49 5 22 48 5 22 48 5 22 48 5 22 48 4 24 49 5 25 50 4 25 46 5 27 50 5 27 48 6 26 50 5 25 49 5 25 49 5 27 50 6 26 50 6 26 50 5 27 50 5 27 50 7 25 49 5 27 50 5 27 50 5 27 50 5 27 50 4 26 49 5 27 50 5 27 50 5 27 50 5 27 50 6 28 51 6 26 50 6 26 50 6 28 51 5 27 50 6 26 50 6 26 50 6 28 51 5 27 50 5 27 50 5 27 50 5 27 50 5 27 50 5 27 50 5 27 50 6 28 51 4 29 51 6 28 51 5 27 50 5 27 50 5 27 50 4 26 49 5 25 49 5 25 49 6 27 48 5 25 49 5 25 50 5 25 49 5 25 49 5 26 47 6 26 50 5 25 49 5 25 49 6 26 51 6 23 49 6 23 49 6 24 48 6 23 49 6 23 51 6 23 51 6 21 50 5 20 49 5 20 49 6 22 48 4 21 49 6 21 50 5 20 51 6 20 49 5 19 48 4 19 48 4 19 48 5 19 48 5 18 50 5 19 48 4 17 49 4 17 49 
3 16 48 5 18 50 5 18 50 5 18 50 5 18 50 5 18 50 5 19 48 5 19 48 5 20 49 4 19 48 6 21 50 6 21 50 5 20 49 6 21 50 4 19 48 5 20 49 5 22 48 5 22 48 5 22 48 6 23 49 7 24 50 6 23 49 6 23 49 7 24 50 5 25 49 7 24 50 5 25 50 5 25 50 5 25 49 5 25 50 5 25 50 5 25 49 5 25 49 5 25 50 6 23 49 4 24 48 6 26 50 5 25 49 4 24 48 4 24 48 5 25 49 5 25 49 5 25 49 5 25 49 5 25 49 5 25 49 5 25 49 5 25 49 4 24 48 5 25 49 5 25 49 5 25 49 6 26 50 5 25 49 5 25 49 5 25 49 5 25 49 5 25 49 5 25 49 5 25 49 5 25 49 5 25 49 4 24 48 5 25 49 5 25 49 5 25 49 5 25 49 4 24 48 5 25 49 5 25 50 5 25 50 4 24 49 5 25 49 5 25 49 4 24 48 4 24 49 5 23 47 6 23 49 6 23 49 6 23 49 5 23 47 6 23 49 6 23 49 5 22 50 7 22 51 4 19 48 6 21 50 5 21 47 6 21 50 4 21 49 5 20 49 4 19 48 5 19 48 5 19 48 5 19 48 4 18 47 5 19 48 5 19 48 3 17 46 4 18 47 
6 17 49 7 18 50 4 17 49 4 17 49 4 17 51 4 17 49 4 18 47 6 20 49 5 19 48 5 19 48 5 20 49 5 22 50 5 20 49 5 21 47 6 22 48 5 22 48 5 22 48 5 22 48 6 23 49 6 23 49 6 23 51 7 24 50 7 24 50 7 24 50 5 25 49 5 25 49 5 25 49 5 25 49 5 25 49 5 27 50 4 24 48 8 26 50 4 26 49 4 24 48 5 25 49 4 26 49 5 25 49 5 25 49 4 24 48 5 25 49 5 25 49 5 25 49 5 25 49 5 25 49 5 25 49 5 25 49 5 25 49 4 24 48 5 25 49 5 25 49 4 24 48 5 25 49 5 25 49 5 25 49 6 26 50 5 25 49 5 25 49 6 26 50 6 26 50 6 26 50 5 25 49 6 26 50 5 25 49 5 25 49 6 26 50 5 25 49 5 25 49 5 25 49 5 25 49 6 26 50 3 23 47 5 25 49 5 25 49 5 25 49 5 26 47 6 26 51 7 24 50 4 24 48 5 25 50 8 25 51 7 23 49 6 23 49 5 22 48 4 21 49 5 22 50 4 21 49 5 20 49 6 21 50 5 20 49 5 20 49 5 20 49 5 19 48 5 18 50 5 18 50 4 18 47 5 18 50 4 17 49 4 18 47 7 18 50 4 15 47 
5 15 50 5 15 50 6 17 49 8 17 50 6 17 49 6 17 49 4 17 49 4 17 49 5 19 48 5 19 48 5 19 48 6 20 49 5 21 47 5 20 49 5 22 50 5 22 48 5 22 48 5 22 48 6 23 49 6 23 49 6 23 49 5 25 49 5 25 49 5 25 49 5 25 49 5 25 49 4 24 48 4 24 48 5 25 49 6 26 50 8 26 50 5 25 49 5 25 49 7 25 49 5 25 49 5 25 49 5 25 49 5 25 49 4 24 48 5 25 49 5 25 49 5 25 49 5 25 49 4 24 48 5 25 50 6 26 51 5 25 50 5 25 50 5 25 50 4 24 49 6 26 51 4 24 49 6 26 50 5 25 49 6 26 50 4 24 48 5 25 49 4 24 48 5 25 49 5 25 49 5 25 49 5 25 49 5 25 49 4 24 48 5 25 49 4 24 48 4 24 48 5 25 49 4 24 48 5 25 49 5 25 49 5 25 49 5 25 49 5 25 49 4 24 48 4 24 48 5 25 49 5 25 49 5 25 50 6 23 49 5 22 48 6 23 51 6 23 49 5 22 48 5 22 50 5 20 49 5 20 49 6 21 50 5 20 49 6 20 49 6 20 49 4 18 47 5 18 50 4 17 49 4 17 49 6 17 49 6 17 49 6 17 49 5 16 48 4 15 47 
4 12 48 5 13 49 5 15 50 5 15 50 5 14 47 5 16 48 3 16 48 6 19 51 5 19 48 5 19 48 4 19 48 5 20 49 5 20 49 5 20 49 4 21 47 5 22 48 5 22 48 6 24 48 4 24 48 4 24 49 6 23 49 6 26 50 5 25 49 5 25 49 4 24 48 5 25 49 5 25 49 5 27 50 6 26 50 6 26 50 5 25 49 5 25 49 5 25 49 5 25 49 7 25 49 5 25 49 4 24 48 5 25 49 5 25 49 5 25 49 5 25 49 4 24 48 5 25 49 5 25 49 5 25 49 5 25 49 5 25 49 5 25 49 5 25 49 5 25 49 5 25 49 5 25 49 5 25 49 4 24 48 4 24 48 5 25 49 5 25 49 5 25 49 4 24 48 5 25 49 4 26 49 5 25 49 4 24 48 5 25 49 5 25 49 4 24 48 5 25 49 5 25 49 5 25 49 4 24 48 6 26 50 6 26 51 5 25 49 5 25 49 6 26 51 5 25 49 5 25 50 5 25 49 4 24 48 6 24 48 6 23 49 6 23 49 6 23 49 7 24 50 5 22 50 5 20 49 6 20 49 5 20 49 5 20 49 4 19 48 5 19 48 4 18 47 4 17 49 6 17 49 5 16 48 5 16 48 6 16 51 5 16 48 4 14 49 5 13 49 
5 16 48 6 17 49 6 17 49 6 17 49 4 17 51 4 17 49 5 19 48 5 19 48 5 19 48 6 20 49 4 19 48 6 21 50 5 20 49 4 21 49 6 22 48 6 23 49 4 24 51 5 25 50 7 25 49 4 24 48 5 25 50 5 27 50 5 27 50 5 27 50 3 28 50 5 27 50 5 25 49 6 27 48 5 27 50 5 25 49 4 26 49 5 25 49 5 25 49 4 24 48 5 25 49 5 25 49 5 25 49 5 25 49 5 25 49 5 25 49 5 25 49 5 25 49 6 26 50 5 25 49 5 25 49 6 26 50 6 26 50 5 25 49 5 25 49 6 26 50 6 26 50 5 25 49 6 26 50 5 25 49 5 25 49 5 25 49 5 25 49 5 25 49 5 25 49 5 25 49 5 25 49 4 24 48 5 25 49 5 25 49 5 25 49 5 25 49 4 24 48 5 25 49 5 25 49 5 25 49 5 26 47 5 26 47 5 25 49 5 25 49 5 25 49 6 27 48 5 25 49 5 27 50 5 27 50 5 25 49 6 26 50 5 25 49 4 24 49 6 23 49 5 22 50 6 23 49 6 21 50 5 20 49 5 20 49 5 20 49 5 20 49 5 19 48 5 18 50 4 18 47 6 17 49 6 17 47 4 17 51 4 17 49 5 16 48 5 16 48 
5 18 50 5 18 50 4 17 49 4 19 50 5 18 50 5 18 50 4 18 47 6 20 49 5 20 49 5 20 49 5 20 49 5 20 49 5 20 49 5 20 49 6 23 49 6 23 49 5 25 49 5 25 49 5 25 49 6 26 50 6 28 51 6 28 49 7 29 50 6 28 49 3 28 50 5 27 50 6 28 51 3 28 48 6 28 51 7 28 49 7 29 50 5 27 50 4 26 49 6 27 48 5 27 48 5 25 49 5 27 50 5 27 50 5 27 50 5 27 50 5 27 50 5 27 50 5 27 50 5 27 50 5 27 50 5 27 50 5 27 50 4 26 49 5 27 50 5 27 50 4 26 49 5 27 50 4 26 49 5 27 50 5 27 50 5 27 50 5 25 49 6 26 50 6 26 50 6 26 50 6 26 50 6 26 50 6 26 50 7 27 51 5 27 50 4 26 49 5 27 50 5 27 50 5 27 50 5 27 48 6 28 49 5 27 48 5 27 50 5 27 50 5 27 50 6 28 49 6 27 48 5 27 48 5 27 50 4 26 49 6 26 51 5 25 49 4 24 48 3 25 48 4 24 49 5 22 48 5 22 48 5 20 49 6 21 50 5 22 50 5 20 49 6 20 49 4 19 50 5 18 50 5 18 50 5 18 50 5 18 50 5 18 50 4 17 49 4 17 49 
3 16 48 5 18 50 4 18 47 4 18 47 5 19 48 5 18 50 4 17 49 5 19 48 4 19 48 7 22 51 5 20 49 5 20 49 5 20 49 5 21 47 5 22 48 6 23 49 6 24 48 7 25 49 5 25 49 6 27 48 4 26 49 4 26 49 5 27 48 5 27 48 5 27 48 3 28 50 6 28 49 5 27 48 3 28 50 5 27 50 5 27 50 5 27 50 6 26 50 5 25 49 6 26 50 5 25 49 6 26 50 5 25 49 5 25 49 6 26 50 6 26 50 6 26 50 5 25 49 5 25 49 6 28 51 5 25 49 6 26 50 5 27 50 5 27 50 5 25 49 6 26 50 5 27 50 5 27 50 5 27 50 4 26 49 5 27 50 5 25 49 6 26 50 5 25 49 6 26 50 5 27 50 6 26 50 5 25 49 5 25 49 5 27 50 4 26 49 4 26 49 6 26 50 5 27 48 5 27 48 4 26 49 5 27 50 5 27 48 5 27 48 5 27 48 5 27 50 3 28 48 5 27 48 6 26 50 5 26 47 5 25 49 4 24 48 7 25 49 6 24 48 6 23 49 6 23 49 6 22 48 5 20 49 5 20 49 6 21 50 5 20 49 5 20 49 5 19 48 5 18 50 7 18 48 5 18 50 5 18 50 5 19 48 5 18 50 6 17 49 
5 19 48 3 16 48 4 17 49 5 19 48 4 18 47 5 19 48 4 17 49 5 19 48 5 20 49 6 20 47 4 19 48 5 20 49 5 21 47 4 21 47 7 25 49 7 24 50 5 25 49 4 24 48 6 26 50 5 25 49 5 25 49 5 27 48 5 27 51 7 29 52 6 27 48 7 27 51 4 26 49 5 26 47 6 28 51 6 28 49 5 27 48 5 25 49 6 26 50 5 27 50 5 27 50 6 26 50 5 25 49 6 26 50 5 25 49 4 26 49 4 26 49 6 26 50 5 25 49 5 25 49 5 26 47 6 27 48 5 26 47 6 26 50 5 26 47 5 25 49 5 25 49 5 25 50 6 26 50 6 26 50 7 27 51 6 27 48 5 25 49 6 28 51 6 28 51 6 27 48 5 27 50 5 27 50 5 27 48 5 25 49 5 25 49 5 27 50 4 26 49 5 27 48 6 26 50 5 25 49 5 27 48 6 27 48 5 27 48 6 26 50 6 26 50 6 26 50 5 27 50 4 26 47 6 28 51 5 25 49 3 25 48 5 25 50 4 24 48 6 26 50 6 23 49 6 24 48 6 21 50 5 20 49 5 20 49 5 20 49 5 20 49 5 20 49 6 19 51 6 19 51 6 17 47 5 18 50 5 18 50 4 19 48 5 19 48 5 18 50 
5 19 48 4 19 48 4 19 50 5 19 48 6 20 49 4 19 48 5 19 48 4 19 48 5 21 47 6 22 48 5 20 49 6 21 50 5 22 50 5 23 47 6 24 48 7 25 49 5 25 49 5 26 47 5 37 48 7 48 50 8 47 52 5 42 50 7 40 49 7 36 50 5 34 48 6 32 49 5 32 49 4 31 50 4 29 51 5 27 50 5 27 50 4 26 49 8 26 50 6 24 48 5 25 49 5 25 49 7 25 49 4 24 48 4 24 48 5 25 49 7 25 49 6 24 48 4 24 48 5 25 49 5 25 49 5 25 50 5 25 49 3 25 48 4 29 49 5 30 50 7 29 50 7 28 49 5 25 49 4 24 48 4 26 50 3 23 47 6 23 49 8 24 49 5 25 49 5 25 50 4 24 48 4 26 49 6 24 48 5 25 49 4 25 46 7 24 50 4 26 49 7 24 50 5 25 49 3 28 50 3 28 48 5 30 50 5 30 50 5 30 52 6 32 49 6 34 48 6 35 49 5 39 49 5 42 50 7 46 51 5 49 50 4 38 48 5 27 50 4 26 49 5 25 49 6 24 48 5 22 48 5 21 47 6 22 48 5 21 47 5 22 50 6 21 50 6 21 50 5 19 48 5 19 48 6 20 49 6 20 49 5 19 48 5 19 48 4 18 45 
5 19 48 4 17 49 5 19 48 5 19 48 5 19 48 5 19 48 6 19 51 4 19 48 6 22 48 5 21 47 5 21 47 5 22 48 6 23 49 6 23 49 5 25 49 7 25 47 5 25 49 5 33 47 8 61 53 5 66 50 7 65 51 5 66 50 7 65 51 7 65 51 6 62 49 6 62 49 5 61 48 6 59 49 6 59 49 5 58 50 6 55 51 6 52 50 7 51 50 7 48 50 8 49 51 6 47 49 6 45 50 5 44 49 5 44 49 6 43 49 7 44 50 7 44 50 7 44 50 6 43 49 5 44 49 6 45 50 7 48 50 6 52 50 6 57 50 6 59 49 7 58 49 8 57 51 6 52 49 7 47 49 7 44 50 7 44 50 5 44 51 6 43 49 6 43 49 7 44 52 5 44 49 6 43 49 7 44 50 6 45 50 8 48 50 8 49 51 8 50 49 6 50 49 7 53 50 6 55 51 5 56 47 6 59 51 5 61 50 5 61 50 5 63 51 6 62 51 6 64 50 5 66 50 5 66 50 7 65 50 5 66 50 4 62 50 5 34 50 7 28 49 5 25 49 6 24 48 6 23 49 3 23 48 6 22 48 6 23 49 6 21 50 7 21 50 4 21 49 4 19 48 5 18 50 5 18 50 4 19 48 5 19 48 4 19 48 5 20 51 
4 19 48 5 18 50 5 19 48 5 20 49 4 19 48 4 19 48 4 20 46 6 22 48 5 22 48 6 22 48 5 22 48 5 22 48 5 22 48 3 23 48 4 24 49 4 26 49 5 27 48 5 37 50 6 64 49 4 65 49 6 64 52 6 64 49 5 66 50 7 65 50 6 67 51 4 65 47 6 67 52 5 66 51 8 66 51 4 65 49 7 65 50 8 62 49 6 62 49 5 61 48 6 62 49 6 62 49 5 63 49 6 62 49 6 62 49 6 62 49 6 62 49 7 63 52 7 63 50 6 62 51 8 64 51 6 62 49 6 62 49 6 62 49 6 62 49 6 62 49 6 62 49 6 62 49 6 62 51 7 63 52 6 62 49 6 62 49 5 61 48 7 63 50 6 62 49 5 63 51 5 61 48 7 63 50 6 62 49 6 62 49 6 62 49 6 63 46 6 62 49 6 62 49 6 62 49 7 65 50 7 65 50 8 66 51 7 65 51 6 67 52 7 65 50 5 66 50 7 65 50 5 66 48 7 65 50 7 63 50 5 66 51 7 65 51 5 37 48 5 27 50 5 25 49 5 25 49 7 24 50 6 23 49 6 23 49 6 22 48 5 21 47 6 22 48 5 20 49 6 20 49 6 20 49 5 19 48 4 19 48 5 18 50 5 19 48 5 19 48 
4 21 47 5 20 49 6 22 48 4 21 47 6 21 52 6 22 48 5 21 47 5 22 48 7 24 52 6 23 51 5 25 50 6 26 50 4 26 49 6 27 48 5 27 50 6 29 47 6 28 49 6 40 52 6 64 50 6 64 50 5 42 50 3 40 48 5 44 49 6 45 50 7 47 47 5 49 48 6 52 49 7 56 52 4 53 49 6 57 50 8 59 52 7 58 51 5 56 49 6 57 48 7 58 49 5 58 50 7 58 49 7 58 49 7 60 50 7 60 50 6 60 47 6 59 49 7 61 48 5 61 48 7 60 52 6 59 49 6 59 49 5 56 47 4 55 48 5 54 48 6 55 49 8 55 47 6 55 49 6 57 48 5 61 50 7 60 50 7 60 50 6 59 49 5 61 50 7 60 50 7 60 50 7 60 52 7 58 51 7 58 49 7 58 49 7 58 51 7 58 51 6 57 50 6 57 50 8 59 52 4 57 49 4 53 47 5 54 50 6 50 49 6 50 49 7 48 50 6 47 51 7 44 50 5 39 49 5 42 50 6 64 49 6 64 49 5 39 48 4 29 49 6 28 49 5 27 48 5 25 49 5 25 49 5 25 49 5 25 49 7 24 50 4 24 49 5 22 48 5 22 48 6 22 48 5 22 50 5 22 50 6 22 48 6 22 48 5 20 49 
6 23 49 6 23 49 5 25 50 6 23 49 6 23 49 5 22 48 7 25 49 4 26 49 5 25 49 6 26 50 5 25 49 6 28 49 5 27 48 5 27 48 6 28 49 5 31 48 5 32 51 6 40 49 7 68 52 6 69 50 5 44 49 5 31 48 4 31 50 5 31 48 4 29 49 5 27 48 5 27 48 6 28 51 6 28 49 6 28 49 4 29 49 6 28 49 4 29 49 7 29 50 5 30 50 6 28 49 6 29 47 4 30 47 6 32 49 6 32 49 6 32 49 5 31 48 5 31 48 5 31 48 6 32 49 5 31 48 4 29 49 5 27 48 5 25 49 6 27 48 6 27 48 6 27 48 5 30 50 4 30 47 6 32 49 5 32 49 4 31 48 5 31 48 6 32 49 4 31 48 5 31 48 5 33 47 5 31 48 3 29 46 5 30 50 4 29 49 4 29 49 6 28 49 5 27 48 5 30 50 6 29 47 5 27 48 6 28 49 6 28 49 5 27 48 7 29 50 3 30 49 4 31 48 5 30 50 6 45 50 5 70 50 6 67 51 6 40 49 4 31 50 5 30 50 7 29 50 6 28 49 5 27 48 5 27 48 6 27 48 6 26 50 6 26 50 5 25 49 6 23 49 6 23 49 6 23 49 6 23 49 6 23 49 6 23 49 6 23 49 
4 25 46 5 25 49 4 26 49 5 25 49 6 24 48 6 24 48 3 23 47 5 25 49 7 28 49 6 27 48 5 27 48 5 27 48 6 28 49 5 27 50 4 29 49 4 31 48 6 32 49 5 44 49 6 71 51 7 70 51 6 57 50 5 32 49 5 34 48 7 33 50 5 31 48 3 28 48 6 28 49 4 29 51 6 28 49 3 28 48 6 28 51 5 27 50 5 25 49 5 27 50 3 23 47 6 26 50 5 25 49 5 25 49 5 25 49 4 24 48 5 25 49 5 25 49 5 25 49 5 25 49 5 25 49 5 25 49 5 25 49 7 28 49 5 27 50 5 27 50 4 26 49 6 27 48 5 25 49 4 26 49 3 28 48 8 26 50 6 26 50 7 25 49 5 25 49 4 24 49 5 25 49 4 24 48 6 26 50 5 25 49 4 24 48 6 26 50 6 26 50 6 26 50 5 27 48 5 27 48 4 29 49 6 28 49 4 29 49 6 28 49 5 30 50 4 29 49 4 33 49 6 33 50 4 33 49 4 54 51 7 72 52 7 70 49 6 43 49 4 33 47 4 31 48 4 29 49 6 29 47 5 27 48 6 28 49 5 27 48 7 28 49 6 28 49 6 27 48 5 25 49 7 25 49 5 25 49 5 25 49 5 25 49 4 24 48 5 25 49 
6 24 48 5 23 47 3 23 48 5 23 47 6 23 49 5 22 48 5 23 47 5 25 49 5 26 47 6 27 48 5 27 48 6 28 49 5 27 50 7 30 48 6 34 48 6 35 49 6 38 49 6 52 49 6 69 50 6 71 51 4 55 50 6 28 49 5 32 49 4 29 49 5 30 50 6 28 49 6 28 49 7 28 49 5 27 50 5 27 48 5 27 48 4 26 49 6 24 48 5 25 49 4 24 48 5 25 49 5 25 49 8 26 50 5 25 49 5 25 49 6 24 48 5 25 49 5 25 49 4 26 49 5 25 49 6 26 50 5 25 49 4 24 48 5 25 49 4 24 48 5 25 49 5 25 49 6 24 48 7 24 52 5 25 50 7 27 51 6 26 50 5 25 49 5 25 49 6 26 50 5 25 49 4 24 48 5 25 49 4 24 48 5 25 49 5 25 49 6 26 50 5 25 49 4 26 50 5 27 50 5 27 50 7 28 49 6 27 48 6 28 49 6 28 49 3 28 48 6 32 49 2 31 47 5 30 50 6 55 51 7 70 49 6 71 51 6 52 49 6 38 49 6 36 47 6 33 50 5 31 48 3 28 48 3 28 48 5 27 48 5 27 48 5 27 48 5 25 49 4 24 48 6 23 49 6 23 49 6 23 49 7 24 50 5 22 48 6 23 49 
6 45 50 6 45 50 5 46 48 6 46 48 7 49 48 7 48 50 8 49 51 7 53 51 5 54 50 5 56 49 6 57 50 6 57 50 6 59 49 5 61 48 4 60 47 7 65 50 5 68 51 4 67 50 6 67 49 5 66 50 6 55 51 4 29 49 4 29 49 5 30 50 5 27 48 5 27 50 5 27 48 5 26 47 6 26 50 7 27 51 5 26 47 7 25 49 6 23 49 6 23 49 5 22 48 6 24 48 5 22 48 5 22 48 5 22 48 6 23 49 5 22 48 6 23 49 6 23 49 6 23 49 6 24 48 6 23 49 5 23 47 6 23 49 5 23 47 6 23 49 5 23 47 6 23 49 6 23 49 6 23 49 5 22 48 6 23 49 6 23 49 6 23 49 6 23 49 6 23 49 5 22 48 5 22 48 6 23 49 6 23 49 5 22 48 6 23 49 5 22 48 6 23 49 6 24 48 4 25 46 5 26 47 3 25 46 5 26 47 5 27 48 4 26 47 5 27 48 4 29 49 6 28 49 3 29 46 7 53 50 7 65 50 8 67 49 6 67 51 6 69 50 7 65 50 5 61 48 4 60 49 6 59 49 6 57 50 6 59 51 5 54 48 7 53 50 8 52 51 7 49 48 8 49 51 7 48 50 7 47 49 5 45 47 6 45 50 7 42 48 
5 61 50 7 60 50 7 60 50 7 60 50 5 61 50 5 61 50 6 62 49 6 62 49 4 65 49 7 65 50 7 65 50 4 65 50 6 64 49 6 64 50 7 65 51 5 66 50 5 68 51 7 65 51 5 66 50 5 66 50 5 54 50 6 28 49 5 30 52 6 28 49 5 26 47 5 25 49 5 25 49 5 25 49 7 24 50 6 24 48 6 24 48 5 22 48 6 20 47 5 21 47 4 19 48 5 21 47 6 21 50 5 20 49 6 21 50 5 20 49 6 21 50 5 20 49 5 20 49 5 20 49 5 20 49 6 22 48 5 20 49 5 21 47 5 20 49 6 22 48 5 20 49 5 21 47 5 21 47 6 22 48 6 22 48 6 22 48 6 22 48 5 21 47 5 21 47 5 21 47 5 20 49 5 21 47 6 22 48 5 20 49 5 21 47 5 21 47 5 20 49 6 22 48 4 21 47 5 23 47 5 25 49 4 24 48 5 25 49 6 26 50 5 25 49 4 24 48 6 28 49 4 29 49 5 31 48 5 54 50 5 66 50 5 66 48 6 64 49 7 65 50 6 67 51 6 67 51 6 64 49 8 65 50 7 65 50 6 64 49 5 66 50 6 64 49 6 62 49 6 62 49 5 61 48 7 60 50 7 60 50 6 59 49 6 59 49 6 59 51 
5 51 49 7 51 50 6 50 51 5 49 50 5 49 52 6 47 49 7 49 48 5 49 50 4 48 49 5 51 51 6 47 49 7 48 50 6 47 49 6 45 50 5 45 47 5 42 50 5 42 50 5 39 49 7 46 51 7 66 48 6 55 49 6 28 51 5 30 50 6 28 49 5 28 46 3 23 48 5 25 49 7 25 49 6 23 49 5 22 48 7 25 49 6 22 48 5 20 49 5 20 49 5 20 49 5 20 49 5 19 48 6 20 49 6 20 49 6 20 49 5 19 48 6 20 49 6 20 49 5 19 48 4 19 48 5 20 49 5 20 49 5 20 49 4 19 48 5 20 49 4 19 48 4 19 48 4 19 48 4 19 48 4 19 48 5 20 49 5 20 49 5 20 49 4 19 48 5 20 49 5 20 49 4 19 48 5 20 49 5 20 49 4 19 48 5 20 49 6 21 50 4 19 48 6 22 48 6 24 48 5 23 47 4 22 46 6 24 48 5 25 49 4 24 48 6 27 48 6 29 47 7 29 50 4 30 47 5 56 51 5 66 50 6 45 50 7 39 50 5 42 50 5 42 50 6 45 50 5 44 49 6 47 51 4 48 51 7 48 50 5 49 50 7 48 50 6 50 49 6 47 49 4 48 49 4 48 49 6 50 51 6 50 49 5 51 49 5 51 49 
5 23 47 6 24 48 6 23 49 6 23 49 5 23 47 6 24 48 6 23 49 5 25 49 5 27 48 5 27 48 5 27 48 6 28 49 5 27 48 6 29 47 6 28 49 4 29 49 6 28 49 4 29 49 5 42 48 5 66 50 5 54 50 4 29 49 4 29 49 5 27 48 3 25 48 7 25 49 5 25 49 5 22 48 6 23 49 4 24 49 6 24 48 6 22 48 6 20 49 4 19 48 5 19 48 5 19 48 5 19 48 6 20 49 6 20 49 5 19 48 6 20 49 6 20 49 5 19 48 4 18 47 6 20 49 6 20 49 6 20 49 5 19 48 5 19 48 5 19 48 6 20 49 5 19 48 5 19 48 6 20 49 5 19 48 5 19 48 5 19 48 6 20 49 5 19 48 5 19 48 5 19 48 6 20 49 6 20 49 6 20 49 5 19 48 5 19 48 6 20 49 5 19 48 5 21 47 5 22 48 5 22 48 6 23 49 6 24 48 5 25 49 4 24 48 6 27 48 5 27 48 4 30 47 4 29 49 5 54 51 4 65 50 7 42 48 4 29 49 4 30 47 4 30 47 6 28 49 6 28 51 5 27 48 5 27 48 5 27 48 7 28 49 7 28 49 5 27 50 6 24 48 7 23 49 4 24 49 7 24 50 5 22 48 5 22 48 5 22 48 
6 24 48 5 25 49 5 25 49 4 24 48 4 24 48 5 25 49 4 24 48 5 26 47 5 27 48 6 28 49 8 29 50 5 27 48 6 29 47 6 28 49 5 27 48 5 32 49 5 32 49 5 30 50 6 43 49 5 66 50 5 54 50 5 30 50 5 31 48 5 27 48 5 25 49 7 23 48 4 24 48 4 24 49 5 22 48 5 22 48 5 22 48 4 19 48 5 19 48 4 18 47 6 20 49 6 20 49 5 19 48 4 18 47 5 19 48 5 19 48 5 19 48 5 19 48 4 18 47 5 19 48 4 18 47 6 20 49 6 20 49 4 18 47 5 19 48 6 20 49 6 20 49 5 19 48 5 19 48 5 19 48 4 18 47 5 19 48 5 19 48 5 19 48 4 18 47 5 19 48 4 18 47 6 20 49 5 19 48 5 19 48 6 20 49 5 19 48 5 19 48 4 18 47 5 19 48 6 22 48 6 23 49 6 23 49 6 24 48 5 25 49 4 24 48 4 24 48 5 27 48 5 31 48 4 29 49 5 54 50 6 64 50 5 42 48 5 31 48 5 33 47 5 33 47 4 29 51 6 28 51 7 28 47 6 28 49 6 28 49 6 27 48 6 28 49 5 26 47 5 25 49 5 25 49 7 25 49 4 25 46 4 24 48 4 24 48 6 24 48 
6 24 48 6 24 48 4 24 48 6 23 49 5 23 47 6 24 48 6 24 48 5 25 49 2 27 47 6 28 49 5 27 48 6 26 50 6 26 50 4 26 47 3 28 48 6 28 49 5 30 50 6 28 49 6 43 49 4 65 47 5 54 50 4 29 51 3 28 48 6 28 49 5 25 49 8 25 51 4 24 49 6 23 49 6 23 49 6 23 49 6 23 49 5 20 49 4 17 49 4 19 48 5 19 48 5 19 48 5 19 48 6 20 49 6 20 49 4 18 47 5 19 48 3 17 46 5 19 48 5 19 48 4 18 47 6 20 49 6 20 49 5 19 48 5 19 48 5 19 48 5 19 48 4 18 47 5 19 48 5 19 48 6 20 49 5 19 48 6 20 49 6 20 49 6 20 49 5 19 48 5 19 48 5 19 48 5 19 48 5 19 48 4 18 47 5 19 48 5 19 48 5 19 48 4 20 46 5 22 48 5 22 48 6 23 49 7 25 49 7 25 47 6 24 48 6 26 50 5 27 48 5 30 50 7 29 50 5 54 50 7 65 51 6 45 50 4 30 47 5 30 50 4 29 49 5 27 48 6 28 49 5 27 48 5 27 48 5 27 48 6 27 48 5 27 48 8 26 50 6 24 48 6 24 48 4 24 48 6 24 48 6 24 48 6 24 48 6 23 49 
6 22 48 6 22 48 5 22 48 7 21 48 5 20 49 5 21 47 6 22 48 6 23 49 6 24 48 4 24 48 5 25 49 5 25 49 5 25 49 6 26 50 6 26 50 5 27 48 4 29 49 7 28 47 6 46 48 7 65 50 6 52 49 5 27 48 5 28 46 5 27 48 5 25 49 6 23 49 6 23 49 6 22 48 6 22 48 5 21 47 6 22 48 6 20 49 5 18 50 5 19 48 5 19 48 5 19 48 5 19 48 4 18 47 5 19 48 3 17 46 4 18 47 4 18 47 4 18 47 4 18 47 4 18 47 4 18 47 4 18 47 4 18 47 4 18 47 5 19 48 5 19 48 5 19 48 4 18 47 5 19 48 5 19 48 5 19 48 5 19 48 4 18 47 4 18 47 4 18 47 6 20 49 5 19 46 5 19 48 5 19 48 4 18 47 5 19 48 4 18 47 4 18 47 4 19 48 5 22 50 5 21 47 6 22 48 6 22 48 6 23 51 5 22 48 5 26 47 5 27 48 5 27 48 4 29 49 6 52 49 6 64 50 6 45 50 5 27 48 4 29 49 6 28 49 3 28 48 5 26 47 6 26 50 7 25 49 4 24 48 5 25 50 5 25 49 6 24 48 6 22 48 4 21 47 4 21 47 7 23 49 5 21 47 4 21 47 5 21 47 
4 19 48 6 20 49 5 19 48 5 19 46 6 20 49 6 20 49 6 20 49 6 22 48 5 22 48 6 23 49 7 23 49 5 22 48 6 24 48 6 24 48 4 24 48 6 26 50 3 28 48 5 27 48 6 43 49 7 65 50 5 49 50 5 25 49 5 27 48 5 25 49 8 24 50 6 21 50 6 21 50 5 22 50 5 20 49 5 20 49 5 20 49 5 18 50 5 16 48 6 17 49 6 17 49 5 16 48 6 17 49 7 18 50 6 17 49 5 16 48 6 17 49 6 17 49 6 17 49 6 17 49 5 16 48 6 17 49 6 17 49 5 16 48 6 17 49 6 17 49 6 17 49 6 17 49 6 17 49 7 18 50 5 16 48 6 17 49 6 17 49 7 18 50 6 17 49 6 17 49 6 17 47 6 17 49 5 16 48 6 17 47 6 17 49 5 16 48 6 17 47 5 16 48 4 18 45 4 19 48 4 19 50 6 20 49 5 21 47 5 21 47 6 22 48 6 23 49 5 25 49 5 26 47 4 26 49 8 49 51 7 65 50 5 46 50 6 27 48 4 26 47 6 28 49 7 25 49 7 25 49 6 24 48 5 22 48 5 23 47 7 25 49 7 23 49 5 21 47 5 19 48 5 19 48 5 19 48 5 19 46 4 19 48 3 20 48 4 19 48 
5 19 48 5 19 48 6 20 49 4 19 48 5 19 48 4 18 47 5 18 50 6 21 52 6 23 49 6 24 48 5 22 48 5 23 47 5 23 47 5 23 47 7 25 49 6 27 48 6 27 48 5 25 49 7 44 50 6 63 48 6 48 47 3 23 47 7 25 49 6 24 48 6 22 48 5 19 48 4 19 48 6 20 49 8 19 49 7 18 48 5 16 46 5 16 48 5 13 49 5 13 49 4 12 48 5 13 49 5 13 49 5 13 49 4 12 48 5 13 49 5 13 49 5 13 49 5 13 49 5 13 49 5 13 49 5 13 49 4 12 48 5 13 49 5 13 49 5 13 49 6 14 50 5 13 49 5 13 49 5 13 49 5 13 49 5 13 49 5 13 49 4 12 48 5 13 49 5 13 49 6 14 50 4 12 48 4 12 48 5 13 49 5 13 49 5 13 49 5 13 49 4 12 48 6 15 48 5 19 48 4 18 47 5 19 48 5 19 48 6 20 49 6 20 49 6 22 48 4 24 48 5 25 49 5 25 49 7 48 50 6 62 49 6 43 49 4 26 47 7 28 49 6 27 48 7 25 47 5 22 48 6 24 48 7 24 52 7 23 49 6 24 48 6 24 48 6 22 48 5 19 48 5 19 48 6 20 49 5 19 48 6 20 49 5 19 48 5 19 48 
5 19 48 5 19 48 4 18 47 4 18 47 5 19 46 6 20 49 4 18 47 5 20 49 5 22 48 6 22 48 6 22 48 5 22 48 7 23 48 6 22 48 8 26 50 5 26 47 4 26 49 5 25 49 7 45 48 5 61 48 7 48 50 4 24 48 8 26 50 6 24 48 6 22 48 6 20 49 4 18 47 5 19 48 7 18 48 5 19 48 4 18 47 6 17 49 6 14 50 7 13 49 4 12 48 6 14 50 5 13 49 6 14 50 6 14 50 5 13 49 5 13 49 5 13 49 4 12 48 6 14 50 4 12 48 5 13 49 5 13 49 4 12 48 4 12 48 5 13 49 5 13 49 4 12 48 5 13 49 6 14 50 5 13 49 4 12 48 5 13 49 5 13 49 5 13 49 4 12 48 4 12 48 4 12 48 4 12 48 6 14 50 5 13 49 5 13 49 6 14 50 5 13 49 5 16 48 5 19 48 5 19 48 5 19 48 4 18 47 5 19 48 5 19 48 5 21 47 6 24 48 4 26 49 5 25 49 7 48 50 6 62 49 8 46 49 5 26 47 5 27 48 5 26 47 7 25 49 6 22 47 6 23 49 6 24 48 5 22 48 7 23 49 7 23 49 5 20 49 6 20 49 5 19 48 6 19 51 4 18 47 6 20 49 6 17 47 5 19 48 
7 18 48 5 19 48 4 18 47 5 19 48 4 18 45 6 17 47 5 19 48 4 19 48 6 22 48 5 20 49 5 21 47 6 23 49 4 21 47 6 22 48 6 24 48 5 25 49 5 25 49 4 24 48 8 48 50 6 62 49 8 48 50 5 25 49 5 25 49 5 23 47 6 22 48 6 20 49 4 19 48 5 19 48 5 19 48 6 17 47 7 18 48 4 15 47 3 11 47 6 14 50 5 13 49 6 14 50 5 13 49 5 13 49 5 13 49 5 13 49 5 13 49 5 13 49 5 13 49 4 12 48 4 12 48 4 12 48 5 13 49 4 12 48 5 13 49 5 13 49 4 12 48 5 13 49 5 13 49 5 13 49 5 13 49 5 13 49 4 12 48 5 13 49 6 14 50 4 12 48 5 13 49 5 13 49 5 13 49 5 13 49 5 13 49 5 13 49 6 14 50 5 13 49 6 15 48 6 20 49 3 17 46 5 19 48 5 19 48 4 19 48 6 20 49 6 22 48 4 24 48 8 26 50 7 25 49 7 49 48 6 62 49 7 47 47 5 26 47 5 25 49 5 25 49 6 24 48 6 22 48 6 23 49 5 22 48 5 21 47 5 20 49 5 22 48 4 21 49 5 19 48 3 18 47 7 18 50 8 17 48 4 18 47 5 19 48 4 18 47 
5 19 48 7 18 48 5 19 48 4 18 47 5 19 48 6 17 47 7 18 48 5 19 48 5 22 48 5 22 48 6 22 48 7 23 49 5 22 48 6 22 47 6 24 48 6 26 50 6 27 48 5 26 47 7 48 50 7 63 50 6 47 49 5 25 49 6 26 50 6 24 48 5 20 49 5 19 48 4 19 48 4 18 47 7 18 48 8 19 49 4 18 47 5 16 48 5 13 49 4 12 48 4 12 48 5 13 49 5 13 49 6 14 50 4 12 48 5 13 49 5 13 49 5 13 49 5 13 49 4 12 48 5 13 49 4 12 48 5 13 49 5 13 49 4 12 48 6 14 50 6 14 50 5 13 49 5 13 49 6 14 50 5 13 49 5 13 49 5 13 49 5 13 49 5 13 49 5 13 49 6 14 50 5 13 49 6 14 50 6 14 50 6 14 50 5 13 49 5 13 49 6 14 50 4 15 47 4 18 47 5 19 48 4 18 47 5 19 48 6 20 49 5 19 48 5 21 47 4 24 48 7 25 49 3 23 47 7 47 49 8 62 49 7 49 48 5 26 47 5 25 49 5 26 47 4 24 48 7 23 49 6 21 50 6 23 49 4 21 47 6 22 48 5 21 47 6 20 47 8 17 48 5 19 48 7 18 48 5 19 46 4 18 47 5 19 48 4 18 47 
6 17 47 6 17 47 5 16 46 4 18 47 6 17 47 7 18 48 6 17 49 5 19 48 5 20 49 5 21 47 4 19 48 5 21 47 6 22 48 4 21 47 6 24 48 6 26 50 6 27 48 5 25 49 8 48 48 6 62 49 6 43 49 6 24 48 5 25 49 6 24 48 5 21 47 5 19 48 4 19 48 5 19 48 7 18 48 7 18 48 4 18 47 5 16 48 5 13 49 5 13 49 5 13 49 5 13 49 5 13 49 5 13 49 5 13 49 4 12 48 5 13 49 5 13 49 5 13 49 5 13 49 4 12 48 5 13 49 4 12 48 5 13 49 5 13 49 4 12 48 4 12 48 5 13 49 4 12 48 4 12 48 4 12 48 5 13 49 5 13 49 4 12 48 4 12 48 6 14 50 5 13 49 5 13 49 5 13 49 5 13 49 5 13 49 5 13 49 5 13 49 6 14 50 6 15 48 4 18 47 4 18 47 4 18 47 5 19 48 5 20 49 5 19 48 5 21 47 5 22 48 7 25 49 5 25 49 7 44 50 5 61 48 7 49 48 6 24 48 5 25 49 5 26 47 5 23 47 6 22 48 6 22 48 6 22 48 6 22 48 3 20 46 6 22 48 5 19 48 5 19 46 5 19 48 6 17 49 7 18 48 7 18 48 6 17 47 6 17 49 
6 15 48 6 17 49 6 15 48 5 16 48 5 16 48 5 13 49 6 15 48 5 18 50 5 19 48 6 20 49 5 19 48 5 19 48 5 19 46 5 19 48 6 22 48 6 24 48 4 24 48 6 24 48 6 50 49 5 61 48 6 43 49 5 23 47 4 24 48 5 23 47 4 19 48 5 19 48 6 20 49 7 18 48 4 18 47 6 17 47 6 17 47 5 16 48 5 13 49 5 13 49 5 13 49 5 13 49 4 12 48 5 13 49 6 14 50 5 13 49 5 13 49 4 12 48 5 13 49 5 13 49 4 12 48 5 13 49 5 13 49 5 13 49 5 13 49 4 12 48 5 13 49 5 13 49 6 14 50 5 13 49 6 14 50 5 13 49 5 13 49 6 14 50 6 14 50 4 12 48 6 14 50 5 13 49 4 12 48 4 12 48 6 14 50 5 13 49 5 13 49 5 13 49 7 18 50 4 18 47 3 17 46 4 18 47 6 17 47 4 18 47 5 19 48 4 20 46 5 22 48 4 24 48 5 23 47 8 41 48 6 62 49 7 51 50 5 25 49 3 23 47 4 24 48 7 23 49 6 20 49 6 20 47 4 21 49 5 19 48 5 19 48 5 19 48 7 18 50 5 14 47 6 15 48 5 15 50 6 15 48 5 16 48 6 15 48 6 15 48 
5 13 49 6 14 50 6 14 50 5 13 49 4 12 48 5 13 49 5 13 49 4 15 47 4 17 49 6 17 47 6 17 47 5 19 46 5 19 48 5 19 48 5 21 47 5 22 48 6 24 48 6 24 48 6 52 50 7 60 50 5 42 48 6 24 48 4 24 48 6 24 48 5 20 49 5 19 48 5 19 48 4 19 48 6 17 49 4 18 47 4 17 49 5 16 48 5 13 49 7 13 49 4 13 46 4 12 48 4 12 48 6 14 50 4 12 48 5 13 49 5 13 49 5 13 49 5 13 49 6 14 50 5 13 49 4 12 48 5 13 49 6 14 50 5 13 49 5 13 49 6 14 50 5 13 49 4 12 48 4 12 48 5 13 49 4 12 48 5 13 49 5 13 49 5 13 49 5 13 49 5 13 49 5 13 49 5 13 49 3 11 47 5 13 49 4 12 48 5 13 49 5 13 49 6 15 48 5 19 48 7 18 48 7 18 48 5 19 48 5 19 48 6 20 49 5 21 47 5 22 48 6 24 48 7 23 48 5 44 49 7 60 52 6 50 49 4 24 48 6 24 48 6 24 48 5 22 48 4 18 47 5 19 48 5 19 48 4 18 47 5 16 46 4 18 47 7 13 47 7 12 50 7 13 49 5 13 49 7 13 49 5 13 49 7 13 49 4 12 48 
5 11 47 7 13 49 6 14 50 5 13 49 4 12 48 5 14 47 5 14 47 5 16 48 4 18 47 4 17 49 5 19 48 7 21 48 4 18 47 5 20 49 5 21 47 5 22 48 6 24 48 6 24 48 6 52 50 7 60 50 8 42 51 7 23 48 4 24 48 6 24 48 6 20 49 5 19 48 7 18 48 7 18 48 6 17 49 6 17 47 6 17 49 5 16 48 5 13 49 6 14 50 5 14 47 4 12 48 4 12 48 4 12 48 4 12 48 4 12 48 6 14 50 5 13 49 5 13 49 5 13 49 5 13 49 4 12 48 3 11 47 4 12 48 5 13 49 5 13 49 3 11 47 5 13 49 4 12 48 5 13 49 6 14 50 4 12 48 5 13 49 5 13 49 6 14 50 5 13 49 6 14 50 5 13 49 6 14 50 4 12 48 4 12 48 4 12 48 4 12 48 7 15 51 5 16 48 4 18 47 8 19 49 6 17 47 7 18 48 7 18 48 4 18 47 5 21 47 7 23 49 3 23 47 8 22 48 6 43 49 6 59 51 6 52 50 6 24 48 5 25 49 6 23 49 4 21 47 5 19 48 4 18 47 5 19 48 6 16 51 7 18 48 5 19 48 5 16 48 7 13 49 4 12 48 5 13 49 5 13 49 5 13 49 5 13 49 5 13 49 
5 13 49 6 14 50 5 13 49 5 13 49 7 13 49 5 13 49 8 14 48 6 17 49 6 17 47 7 18 48 4 18 47 5 19 48 6 20 47 5 19 48 5 21 47 6 24 48 6 24 48 4 24 48 6 52 49 4 60 49 7 42 48 5 22 48 6 23 49 6 23 49 6 20 47 5 19 46 6 20 49 5 18 50 4 18 47 4 18 47 6 20 49 5 16 48 6 14 50 7 13 49 5 13 49 5 13 49 5 13 49 4 12 48 4 12 48 5 13 49 5 13 49 5 13 49 5 13 49 6 14 50 6 14 50 4 12 48 5 13 49 5 13 49 7 13 49 7 11 48 7 13 49 4 12 48 5 13 49 4 12 48 7 13 49 4 12 48 4 12 48 7 13 49 6 14 50 5 13 49 5 13 49 5 13 49 5 13 49 4 12 48 6 14 50 5 13 49 4 14 49 5 13 49 6 15 48 4 18 47 7 18 48 5 19 48 5 19 48 6 20 49 6 20 49 5 21 47 5 22 48 7 25 49 6 24 48 7 41 50 6 59 49 6 52 50 4 26 49 6 24 48 5 23 47 6 22 48 6 20 49 5 19 48 5 19 48 6 17 47 5 19 48 5 19 48 6 17 49 6 14 50 7 13 49 5 13 49 7 13 49 5 13 49 5 13 49 5 13 49 
5 13 49 5 13 49 4 12 48 5 13 49 4 12 48 4 14 49 4 13 46 6 17 49 5 19 48 5 19 48 4 18 47 6 20 49 6 20 47 4 19 48 5 21 47 7 25 49 6 24 48 5 25 49 6 52 49 7 60 50 5 39 48 6 24 48 7 25 49 6 24 48 6 20 47 4 18 47 5 18 50 5 19 48 4 18 47 5 19 48 4 18 47 5 16 48 4 12 48 6 12 48 5 13 49 5 13 49 7 13 49 5 13 49 5 13 49 5 13 49 4 12 48 5 13 49 5 13 49 6 12 48 5 13 49 5 13 49 5 13 49 5 13 49 5 13 49 5 13 49 7 13 49 7 13 49 5 13 49 4 12 48 5 13 49 5 13 49 5 13 49 5 13 49 5 13 49 5 13 49 2 10 46 5 13 49 4 12 48 4 12 48 4 12 48 5 13 49 8 14 50 7 13 49 7 16 49 5 19 48 7 18 48 5 19 48 4 18 47 6 20 49 4 18 47 5 21 47 4 21 47 7 25 49 7 25 49 6 40 49 6 59 49 6 52 49 4 24 48 5 23 47 6 24 48 6 22 48 6 20 49 4 18 47 5 19 48 5 19 48 4 18 47 7 18 48 6 17 49 6 14 50 6 14 50 5 13 49 4 12 48 5 13 49 4 12 48 5 13 49 
