P3
100 50
255
67 58 29 67 58 29 65 55 28 67 57 30 65 58 29 67 58 29 69 57 31 67 57 30 66 57 28 67 58 29 67 58 29 67 58 29 67 57 30 67 58 29 67 58 29 67 58 29 67 57 30 67 57 30 66 57 28 68 59 30 66 57 28 66 57 26 67 58 29 67 58 29 68 56 30 68 59 30 68 57 27 68 59 28 69 58 30 68 59 30 67 58 29 66 56 29 67 57 30 67 57 30 66 56 29 66 57 28 67 57 30 67 57 30 67 57 30 66 57 28 67 58 29 67 58 29 67 58 29 67 58 29 67 58 29 67 58 29 67 58 29 67 58 29 66 57 28 67 58 29 66 57 28 67 58 29 67 58 29 66 57 28 66 57 28 66 57 28 67 58 29 67 58 29 66 57 28 67 58 29 67 58 29 67 58 29 67 58 29 66 56 29 67 57 30 66 57 28 67 58 29 67 58 29 67 57 30 67 57 30 67 58 29 66 57 28 67 58 29 67 58 29 66 57 28 66 57 28 66 57 26 68 59 30 68 59 30 67 58 29 66 57 28 66 57 28 67 57 30 68 59 30 67 58 29 67 58 29 67 57 30 66 57 28 67 58 29 67 58 29 67 58 29 67 58 29 67 58 29 66 57 28 68 59 30 67 58 29 67 57 30 67 57 30 67 57 30 67 58 29 
67 58 29 68 57 29 66 57 28 66 57 28 66 57 28 67 58 29 68 56 30 68 59 30 67 58 29 67 58 29 67 58 29 67 58 29 67 58 29 67 58 29 66 57 28 66 57 28 67 58 29 66 57 28 67 58 29 68 59 30 67 58 29 67 56 28 70 59 29 75 64 34 74 66 30 80 78 40 81 77 40 76 70 38 75 66 37 72 65 36 68 59 30 68 59 28 68 59 30 67 58 29 67 58 29 68 58 31 66 57 28 67 58 29 66 57 28 66 57 28 67 58 29 67 58 29 67 58 29 67 57 30 67 58 29 67 58 29 67 58 29 67 57 30 67 58 29 67 58 29 67 58 29 67 57 30 66 56 29 67 58 29 68 59 30 66 56 29 67 57 30 67 57 30 67 58 29 67 58 29 67 58 29 67 57 30 67 58 29 67 58 29 67 57 30 67 58 29 67 58 29 67 58 29 67 57 30 67 57 30 66 57 28 65 56 27 67 58 29 67 57 30 67 57 30 66 57 28 66 57 28 67 58 29 67 58 29 66 57 28 67 58 29 68 59 30 66 57 28 67 58 29 67 58 29 67 58 29 67 57 30 67 57 30 66 56 29 67 58 29 66 57 28 67 58 29 67 57 30 67 57 30 67 58 29 67 58 29 67 58 29 67 58 29 67 58 29 67 58 29 
68 59 30 68 57 29 66 57 26 66 57 28 67 58 29 66 57 28 67 58 29 66 57 26 67 58 29 66 57 28 67 58 29 66 57 28 67 58 29 67 58 29 66 57 28 66 57 28 66 57 28 67 58 27 67 58 29 67 57 30 67 58 29 67 56 28 71 60 30 74 63 31 76 68 32 83 78 40 82 78 41 77 72 40 74 69 39 74 65 36 68 57 29 67 58 29 67 58 29 66 57 28 67 57 30 67 58 29 67 58 29 66 57 28 66 57 28 67 58 29 67 58 29 67 57 30 68 58 31 67 57 30 67 58 29 67 58 29 67 58 29 67 57 30 67 58 29 66 57 28 66 57 28 67 58 29 66 57 28 67 58 29 68 59 30 67 57 30 67 57 30 67 57 30 67 58 29 67 58 29 67 58 29 67 57 30 67 58 29 67 58 29 67 57 30 67 58 29 67 58 29 67 58 29 67 58 29 67 58 29 66 57 28 67 58 29 67 57 30 68 58 31 67 57 30 67 58 29 67 58 27 66 57 28 66 57 28 67 58 29 66 57 28 67 58 29 67 58 29 66 57 28 65 56 27 66 57 28 67 57 30 67 57 30 67 57 30 67 58 29 66 57 28 67 57 30 67 57 30 66 56 29 67 58 29 65 56 27 66 57 28 67 58 29 67 58 29 67 58 29 
59 49 24 62 52 25 65 56 27 66 57 28 67 58 29 65 56 27 66 57 28 68 59 30 65 56 27 66 57 28 66 57 28 67 58 29 66 57 28 67 58 29 67 58 29 67 58 29 66 57 28 66 57 28 66 57 28 67 58 29 68 59 30 68 59 28 71 62 31 75 66 33 75 69 37 81 80 60 79 81 59 81 77 50 79 75 46 75 68 39 70 59 31 70 59 29 66 57 28 68 59 30 67 58 29 67 58 29 67 58 29 67 57 30 67 58 29 66 57 28 67 58 29 67 58 29 66 57 28 67 57 30 67 58 29 67 58 29 67 58 29 66 56 29 67 58 29 67 58 29 67 58 29 68 59 30 66 57 28 68 59 30 67 58 29 67 58 29 67 58 29 66 57 28 66 57 28 67 58 29 67 58 29 67 58 29 66 57 28 67 57 30 67 58 29 66 57 28 67 58 29 67 58 29 67 58 29 67 58 29 67 58 29 66 57 28 67 58 29 67 57 30 67 57 30 67 58 29 67 58 29 66 57 26 67 58 29 67 58 29 66 57 28 67 58 29 67 57 30 66 57 28 67 58 29 67 58 29 67 57 30 67 58 29 67 58 29 67 58 29 67 57 30 66 56 29 68 59 30 68 59 30 66 57 28 66 57 28 66 56 29 67 57 30 66 56 29 65 56 27 
47 39 18 58 51 23 60 53 25 63 54 25 66 56 29 67 57 30 69 58 30 67 56 28 66 57 28 66 57 28 66 57 28 67 58 29 66 57 28 66 57 28 67 58 29 67 58 29 67 58 29 67 58 29 67 58 29 67 58 29 69 58 30 68 57 29 73 64 33 76 70 38 78 71 43 82 82 82 81 83 82 83 82 61 83 82 54 78 73 44 71 60 30 71 60 32 65 56 27 67 58 29 67 58 29 66 57 28 66 56 29 67 57 30 67 57 30 66 57 28 66 57 28 66 57 28 68 59 30 66 57 28 66 57 28 66 57 28 66 57 28 67 58 29 66 57 28 66 57 28 66 57 28 68 59 30 67 58 29 67 58 29 67 58 29 67 58 29 66 57 28 67 58 29 67 58 29 67 58 29 67 58 29 66 57 28 67 58 29 66 56 29 66 56 29 67 58 29 67 58 29 67 57 30 67 57 30 67 57 30 66 57 28 66 57 28 65 56 27 66 57 28 67 58 29 67 58 29 67 58 29 66 56 29 67 57 30 67 57 30 67 58 29 68 59 30 67 57 30 68 58 31 66 57 28 66 57 28 66 57 28 66 57 28 67 58 29 67 58 29 66 56 29 66 57 28 66 56 29 67 58 29 67 58 27 66 57 28 66 56 29 67 57 30 67 58 29 67 58 29 
43 36 17 52 46 22 54 48 22 58 51 25 62 52 25 62 52 25 67 56 28 69 55 29 66 56 29 65 55 28 66 57 28 66 57 28 66 57 28 67 57 30 67 57 32 67 58 29 69 55 29 67 56 28 66 57 28 66 57 28 68 57 29 68 57 29 71 65 33 74 70 35 75 72 41 82 81 77 82 81 77 82 80 59 81 80 52 79 72 44 70 59 31 70 59 31 67 58 29 66 57 28 68 59 30 68 59 30 67 58 29 66 56 29 67 57 30 66 57 28 67 58 29 67 58 29 66 56 29 67 58 29 67 58 29 67 58 29 67 58 29 66 56 29 65 55 30 66 57 28 66 57 28 66 56 29 67 57 30 66 57 28 67 58 29 67 57 30 67 57 30 67 57 30 67 58 29 67 58 29 67 58 29 67 57 30 66 57 28 66 57 28 67 57 30 66 57 28 66 57 28 67 58 29 66 57 28 66 56 29 67 58 29 66 57 28 66 57 28 66 57 28 66 57 28 67 58 29 67 58 29 67 58 29 67 57 30 67 57 30 66 57 28 66 57 28 67 58 29 66 56 29 66 57 28 68 59 30 67 58 29 67 57 30 67 57 30 67 58 29 66 57 28 66 56 29 66 56 29 67 57 32 67 58 29 67 58 29 67 57 30 67 57 30 67 57 30 67 58 29 
3 3 3 13 10 5 13 13 5 22 18 6 28 25 10 32 29 12 46 40 18 46 40 18 56 49 23 59 52 24 62 55 27 67 58 29 66 57 28 69 57 31 68 57 29 68 58 31 67 58 29 66 57 26 67 57 30 66 57 28 66 57 28 66 57 28 70 61 30 74 64 29 76 65 33 82 78 40 82 78 41 78 72 40 75 71 36 72 65 36 68 57 29 68 57 27 67 58 29 65 55 28 66 56 29 66 57 28 66 57 28 67 58 27 67 58 29 66 57 28 67 58 29 67 57 30 67 57 30 67 57 30 67 58 29 67 58 29 66 57 28 67 57 30 67 58 29 67 58 27 66 57 28 66 56 31 65 55 28 67 57 30 66 57 28 67 58 29 67 57 30 67 58 29 66 57 28 67 58 29 66 56 29 67 57 30 66 56 29 67 58 29 66 57 28 67 58 29 67 58 29 67 58 29 66 57 28 66 57 28 67 58 29 67 58 29 67 57 30 65 55 28 67 57 30 65 56 27 66 57 28 66 57 28 67 57 30 67 58 29 67 58 29 67 58 29 66 57 28 67 58 29 67 58 29 66 57 28 66 56 29 67 57 30 66 56 31 67 57 30 66 57 28 67 57 30 67 57 30 66 56 29 66 56 29 66 57 28 67 58 29 67 58 29 67 58 29 67 58 29 
3 3 3 13 10 5 15 12 5 23 19 7 30 24 8 32 26 10 47 39 20 50 39 17 56 49 21 61 51 24 61 54 26 66 56 29 67 58 29 68 57 29 68 57 29 67 58 29 67 55 29 66 57 28 67 58 27 65 56 27 65 56 27 66 57 28 70 61 30 73 64 31 75 67 31 83 77 41 82 78 40 76 71 39 75 69 37 74 65 36 69 58 28 68 57 29 67 57 30 66 57 28 66 57 26 66 57 28 66 57 28 66 57 28 67 58 29 66 57 28 66 57 28 66 57 28 67 57 30 66 56 29 66 57 28 66 57 26 66 56 29 67 58 29 67 58 29 67 58 29 67 58 29 67 57 30 67 58 29 67 57 30 67 58 29 66 57 28 67 57 30 66 56 29 66 57 28 66 57 28 66 56 29 67 57 30 67 57 30 66 56 29 66 57 28 67 58 29 66 57 28 67 58 29 66 56 29 67 58 29 66 57 28 67 58 29 67 57 30 67 57 30 67 57 30 66 57 28 66 57 28 66 56 29 67 58 29 66 57 28 66 57 28 66 57 28 67 58 29 66 56 29 66 57 28 67 58 29 66 57 28 67 57 30 67 57 30 67 58 29 66 57 28 68 59 30 66 56 29 67 58 29 66 57 28 66 57 28 66 57 28 66 57 28 67 57 30 66 57 28 
1 1 3 4 4 2 4 4 4 6 5 3 8 7 3 9 8 4 13 12 8 14 13 9 23 19 8 26 23 8 32 26 14 41 34 16 41 35 13 50 44 20 52 44 21 58 51 23 62 52 25 64 54 27 67 58 29 66 57 28 69 58 28 67 58 29 69 60 29 69 60 29 70 61 30 71 65 33 73 64 33 72 63 32 71 62 31 69 60 31 67 56 26 67 58 29 67 57 30 67 58 29 66 57 28 66 56 29 67 58 29 66 56 29 66 56 29 66 56 29 66 57 28 66 57 28 66 56 29 66 56 29 66 57 28 65 56 27 67 58 29 67 57 30 67 57 30 66 57 26 67 58 29 66 57 28 66 57 28 66 57 28 66 57 28 66 57 28 67 58 29 67 58 29 66 57 28 67 58 29 67 58 27 67 58 29 66 56 29 67 57 30 67 57 30 66 57 28 66 57 28 66 56 29 66 56 29 67 57 30 67 58 29 67 58 29 67 57 30 66 56 29 67 58 29 66 57 28 66 57 28 66 56 29 66 56 29 66 57 28 66 57 28 67 58 27 67 57 30 66 56 29 66 56 29 66 57 28 66 57 28 67 58 29 66 57 28 67 58 29 67 57 30 66 56 29 65 55 28 66 57 28 67 58 29 66 57 28 66 56 29 66 56 29 66 56 29 66 57 28 
1 1 3 0 2 1 1 1 3 1 1 3 1 1 1 1 1 3 3 1 4 2 2 2 9 10 5 15 12 5 21 17 6 32 26 10 33 27 11 46 40 18 46 40 18 55 48 20 61 54 26 61 54 26 67 58 29 66 57 28 68 57 27 68 59 30 68 59 30 67 57 30 67 58 29 70 59 31 69 58 30 67 58 29 68 58 31 67 58 29 67 58 29 65 56 27 66 57 28 67 58 27 66 57 28 66 57 28 67 58 29 67 57 30 67 57 30 67 58 29 66 57 28 66 57 28 67 58 29 66 57 28 67 58 29 66 57 28 66 57 28 66 57 28 67 58 29 67 58 29 66 57 28 66 56 29 67 58 29 67 58 29 67 58 29 66 56 29 66 57 28 66 57 28 66 57 28 66 57 28 65 56 27 66 57 28 67 57 30 66 56 29 67 57 30 67 58 29 66 57 28 66 56 29 66 56 29 66 56 29 66 57 28 66 57 28 66 57 28 66 57 28 67 57 30 67 58 29 67 58 29 67 57 30 66 56 29 66 56 29 66 57 28 65 56 27 67 57 30 67 57 30 66 57 28 65 56 27 66 57 28 67 58 29 67 58 29 67 58 29 67 58 29 68 59 30 67 58 29 67 58 29 66 57 28 65 56 27 66 56 29 67 57 30 67 58 29 67 57 30 
1 1 1 1 1 1 1 1 3 2 2 4 1 1 1 0 1 3 2 2 4 2 2 2 7 6 4 8 9 4 13 13 5 18 15 8 20 16 5 30 26 14 29 25 13 37 34 17 43 37 15 45 39 17 53 45 22 53 45 22 57 50 24 58 51 25 63 53 26 67 58 29 66 56 29 69 58 28 69 58 28 69 58 30 69 58 30 67 58 29 66 56 29 66 57 28 66 56 29 65 56 27 66 56 29 66 56 29 66 56 29 66 56 29 66 56 29 66 56 29 66 57 28 66 56 29 65 55 28 66 56 29 66 57 28 66 57 28 67 57 30 66 56 29 66 57 28 66 57 28 67 58 29 66 56 29 67 58 29 66 56 29 67 58 29 67 58 29 67 58 29 67 58 29 66 57 28 67 58 29 67 58 29 67 58 29 66 56 29 66 56 29 66 57 28 65 56 27 66 56 29 66 57 28 67 58 29 66 56 29 65 56 27 66 57 28 66 56 29 67 57 30 65 56 27 65 56 27 66 57 28 65 55 28 66 56 29 66 57 28 67 58 29 66 57 28 67 58 29 67 58 29 66 57 28 65 56 27 66 56 29 66 56 29 66 56 29 66 57 28 66 57 28 67 58 29 66 57 28 66 56 29 66 57 28 68 59 30 67 57 30 66 56 29 65 55 28 66 56 29 
1 1 1 1 0 5 0 0 2 1 1 3 1 1 3 1 1 3 1 1 3 1 1 3 1 1 3 1 1 3 0 2 1 0 2 1 0 1 3 4 4 6 3 3 3 9 8 3 14 10 7 18 15 6 28 25 8 31 25 9 44 39 17 47 41 19 53 46 20 60 53 25 60 53 25 68 56 30 67 55 29 67 56 28 68 57 29 67 58 29 66 57 28 66 57 28 66 57 28 68 59 30 66 56 29 66 57 28 67 58 29 66 57 28 66 56 29 66 57 28 66 57 28 67 58 29 66 56 31 67 57 30 66 57 28 66 57 28 66 56 29 66 56 29 65 56 27 65 56 27 67 58 29 67 57 30 67 58 29 66 56 29 66 57 28 65 55 28 66 56 31 66 56 29 66 56 29 65 55 28 67 57 30 66 56 29 66 56 29 66 57 28 66 57 28 66 56 29 66 57 28 67 58 29 66 57 28 66 57 28 66 56 29 66 57 28 66 56 29 66 56 29 67 57 30 65 56 27 67 58 29 66 57 28 66 56 29 67 58 29 65 56 27 66 57 28 66 57 28 65 56 27 66 57 28 66 57 26 67 57 30 66 56 29 67 57 30 67 58 29 67 58 29 66 56 29 66 56 31 66 56 29 66 57 28 67 58 29 66 57 28 65 56 27 66 57 28 67 58 29 
1 1 3 1 1 1 1 1 3 1 1 1 1 1 1 1 0 5 2 2 2 1 1 1 1 1 1 1 1 3 1 1 3 2 2 4 1 1 3 4 4 4 2 2 4 10 9 5 15 12 5 18 15 6 30 24 8 31 24 8 44 39 17 45 40 18 52 44 21 60 53 25 62 52 25 67 58 29 64 57 29 67 56 28 67 57 30 67 58 29 67 55 29 66 57 28 66 57 28 65 55 28 66 56 31 66 56 29 66 57 28 66 57 28 66 56 29 66 56 29 67 58 29 66 56 29 67 57 30 66 56 29 66 57 28 67 58 29 66 56 29 67 57 30 65 56 27 66 57 28 67 58 29 68 58 31 67 58 29 66 57 28 67 58 27 67 57 32 66 56 29 67 57 30 67 58 29 66 57 28 67 57 30 66 56 29 66 56 29 66 56 29 66 57 28 67 58 29 66 57 28 66 57 28 67 58 29 66 57 28 67 58 29 67 58 29 67 57 30 66 56 29 67 57 30 66 57 28 66 57 28 66 57 28 66 56 29 66 57 28 66 57 28 67 58 29 66 57 28 66 56 29 66 57 28 66 57 28 67 58 29 65 55 28 66 56 29 66 57 28 66 57 28 66 56 29 66 56 29 67 58 29 66 57 28 66 57 28 66 57 28 66 56 29 67 58 29 66 57 28 
0 1 3 1 1 3 2 2 4 1 1 1 1 3 2 1 2 4 0 1 3 1 1 3 1 1 1 1 1 3 1 1 1 1 1 1 1 1 3 1 1 3 0 1 3 2 2 4 1 1 3 0 1 3 2 2 4 1 1 3 4 2 3 2 2 4 9 8 4 13 13 5 17 12 6 36 31 12 35 30 11 48 42 18 52 46 22 55 49 23 59 52 23 59 52 24 66 56 29 67 57 30 67 58 27 67 58 29 67 58 29 67 58 29 66 57 28 67 57 30 66 57 28 66 57 28 65 56 27 66 57 28 66 57 28 67 58 29 66 57 28 66 57 28 66 57 28 66 57 28 66 57 28 66 57 28 67 58 29 66 57 28 66 57 28 66 57 28 66 56 29 66 57 28 66 57 28 66 57 28 67 58 29 66 56 29 66 56 29 66 56 29 66 57 28 66 57 28 66 56 29 67 58 29 67 57 30 65 55 28 66 57 28 66 57 28 66 56 29 65 55 28 66 57 28 65 56 27 66 57 28 66 56 29 67 57 30 67 58 29 67 58 29 66 57 28 66 56 29 66 56 29 66 57 28 67 58 29 66 57 28 66 57 28 67 58 29 66 56 29 66 56 29 66 56 29 66 57 28 66 57 28 66 57 28 66 57 28 66 56 31 65 55 28 66 56 29 66 57 28 
1 1 3 1 1 1 1 1 3 1 1 1 1 1 3 1 1 1 1 1 1 1 1 3 1 0 5 1 1 3 1 1 3 1 1 3 1 1 3 1 1 3 1 1 3 1 1 3 1 1 1 1 1 3 2 2 4 1 1 1 3 3 5 2 2 2 7 6 2 16 13 6 18 13 9 36 31 12 37 30 12 50 44 20 52 46 22 56 49 23 60 53 25 59 52 23 66 57 28 66 57 28 66 57 28 67 55 29 67 58 29 67 58 29 66 56 29 67 58 29 65 56 27 65 56 27 66 56 29 67 57 30 64 57 28 66 57 28 66 56 29 65 56 27 66 57 28 65 56 27 65 56 27 66 57 26 66 57 28 65 56 27 66 57 28 66 57 28 66 57 28 67 58 29 66 57 28 66 56 29 66 57 28 66 56 29 66 56 29 65 55 28 66 56 29 66 57 28 66 57 28 65 55 28 67 57 30 65 55 28 66 56 29 66 56 29 66 57 28 66 56 29 66 57 28 66 57 28 66 57 28 66 56 29 66 56 29 66 56 29 66 57 28 65 56 27 67 57 30 66 56 29 65 55 28 66 57 28 66 57 28 65 56 25 66 57 28 65 56 27 66 57 28 67 58 29 66 57 28 66 57 28 65 56 27 66 57 28 66 56 29 66 56 29 66 56 29 66 57 28 
1 1 1 1 1 3 1 1 3 1 1 1 1 1 3 1 1 3 1 1 3 1 1 1 1 1 1 1 1 3 1 1 3 1 1 3 1 1 3 1 1 3 1 1 3 1 1 3 0 0 2 1 1 3 1 1 1 1 1 3 0 1 3 2 2 4 4 2 3 6 5 3 7 6 4 13 13 5 13 12 7 17 17 9 22 19 12 25 21 10 31 28 13 31 28 13 48 40 19 47 41 19 54 46 23 58 51 25 61 51 24 62 52 25 60 53 27 66 56 29 66 56 29 66 57 28 67 58 27 67 58 29 67 57 30 65 56 27 65 55 28 65 55 28 66 56 29 66 56 29 66 56 29 66 57 28 65 56 27 66 56 29 66 56 29 66 56 29 65 56 27 65 56 27 67 57 30 67 57 30 66 56 29 66 57 28 66 57 28 65 55 28 67 57 30 66 57 28 66 57 28 66 57 28 65 55 28 66 57 28 66 57 28 65 56 27 67 57 30 66 56 29 66 56 29 66 57 28 67 58 29 66 56 29 66 56 29 66 57 28 65 56 27 66 57 26 66 56 29 66 56 29 65 56 25 65 56 27 67 57 30 66 56 29 66 56 29 66 57 28 65 56 27 67 58 29 66 57 28 68 59 30 66 57 28 67 58 29 66 56 29 67 58 29 66 57 28 66 57 28 
1 1 1 1 1 3 1 1 3 1 1 1 1 1 3 1 1 3 1 1 3 1 1 1 1 1 3 1 1 3 1 1 1 1 1 3 1 1 3 1 1 3 1 1 3 1 1 1 1 1 3 2 2 4 1 1 3 2 2 4 0 1 3 1 2 4 0 0 2 1 1 3 1 1 3 1 1 1 1 1 3 2 2 4 3 3 5 7 6 4 15 12 5 14 11 4 36 31 11 35 30 10 47 41 19 53 47 23 54 46 23 59 52 26 59 52 26 65 55 30 66 56 29 67 58 29 67 58 27 67 58 29 66 57 28 66 57 28 66 57 28 66 55 27 66 56 29 66 56 29 67 57 32 66 56 29 64 54 27 66 56 29 66 56 29 66 57 28 65 56 27 66 57 28 67 57 30 65 55 28 65 55 28 66 57 28 67 58 29 67 58 29 66 57 28 65 56 27 65 56 27 65 56 27 66 57 28 66 57 28 66 57 28 66 57 28 66 56 29 66 56 29 66 56 29 66 57 28 66 57 28 66 57 28 67 58 29 65 56 27 65 56 27 67 57 30 66 57 28 65 56 27 67 58 29 66 57 28 66 56 29 67 57 32 67 58 29 67 58 29 66 57 26 66 56 29 66 56 29 66 56 29 66 57 28 66 57 28 65 56 27 67 58 29 66 57 26 65 56 27 
1 1 3 1 1 1 1 1 3 1 1 3 1 1 3 1 1 1 1 1 1 1 0 5 1 1 1 1 1 3 1 1 3 1 1 1 1 1 3 1 1 1 1 1 3 1 1 3 1 1 1 1 1 3 1 1 3 2 2 4 1 1 3 1 1 3 1 1 3 1 1 3 1 1 3 1 1 1 1 1 1 2 2 2 3 3 5 6 5 3 10 9 5 10 9 4 26 23 8 26 23 8 36 30 16 40 34 18 42 37 18 49 43 21 50 44 22 56 49 23 58 51 25 60 53 27 64 55 26 65 55 28 64 54 27 63 56 28 65 55 28 66 56 31 66 56 29 65 55 28 66 56 29 66 57 28 66 57 28 66 57 28 67 57 30 66 57 28 66 56 29 66 57 28 66 57 28 66 56 29 66 57 28 65 56 27 65 55 28 66 56 31 66 56 29 67 58 29 66 56 29 66 56 29 66 56 29 66 56 29 66 57 28 65 55 30 65 55 28 67 58 29 65 56 27 66 57 26 66 57 28 66 57 26 67 58 29 66 56 29 66 56 29 66 56 29 66 56 29 66 57 28 65 56 27 66 57 28 65 56 27 66 56 29 66 56 29 67 58 29 67 58 29 67 57 30 66 56 29 65 55 28 65 56 27 66 57 28 66 56 29 67 58 29 66 56 29 65 55 28 
1 1 3 1 1 3 1 1 1 1 1 3 1 1 3 1 1 3 1 1 3 1 1 1 1 1 3 1 0 5 1 1 3 1 1 1 1 1 3 1 1 3 1 1 3 1 1 1 1 1 3 1 1 3 1 1 3 1 1 3 1 1 3 1 1 3 1 1 3 1 1 3 1 1 3 1 0 5 2 2 4 1 1 3 1 1 3 1 1 1 1 1 1 1 1 1 2 2 2 1 1 3 2 2 4 2 2 4 6 6 4 21 17 6 18 16 4 34 29 10 36 31 12 43 38 18 53 47 21 53 47 23 58 50 27 59 52 24 65 56 27 65 55 28 68 56 30 67 55 29 66 56 29 65 56 27 66 57 28 66 57 28 66 56 29 65 56 27 66 56 29 65 55 28 67 58 29 66 57 28 66 57 28 67 57 32 66 56 29 66 56 29 66 56 29 66 57 28 65 56 27 66 56 29 66 56 29 66 56 29 66 57 28 66 56 29 66 57 28 65 56 27 65 56 27 66 57 28 66 57 28 67 57 30 66 56 29 66 56 29 64 54 27 66 56 29 65 55 28 66 56 29 66 57 28 66 57 28 66 57 28 68 59 30 67 58 29 66 57 28 66 56 29 66 57 28 65 55 28 66 57 28 65 56 27 66 57 28 67 57 30 66 56 29 66 56 29 66 57 28 
1 1 3 1 1 3 1 1 3 1 1 3 1 1 1 1 1 3 1 1 3 1 1 3 1 1 3 1 1 3 1 1 3 1 1 3 1 1 1 1 0 5 1 1 3 1 1 3 1 1 3 2 2 4 1 1 1 2 2 4 2 2 4 2 2 4 1 1 3 1 1 3 1 1 1 1 1 3 1 1 1 0 0 2 1 1 1 1 1 1 1 1 3 1 1 1 0 1 3 1 1 1 1 2 4 2 2 4 6 6 4 19 15 4 19 17 5 34 29 10 35 28 10 44 37 18 53 47 23 53 49 24 59 52 24 58 51 23 64 54 27 66 56 29 66 56 29 66 56 29 66 56 29 66 57 28 67 58 29 66 57 28 66 56 29 65 56 27 66 56 29 65 55 28 66 57 28 66 57 28 66 57 28 67 58 29 67 58 29 66 56 29 67 57 30 66 56 31 66 57 26 66 56 29 66 56 29 66 56 29 65 55 28 66 57 28 66 57 28 65 56 27 65 56 27 65 56 27 66 57 28 66 56 29 65 55 28 66 56 29 66 57 28 65 55 28 66 56 29 66 56 29 66 56 29 65 56 27 65 56 27 65 56 27 65 56 25 65 56 27 65 55 28 66 56 29 65 55 28 67 58 29 66 57 28 67 58 29 66 56 29 67 57 30 66 56 29 64 54 27 
1 1 3 1 1 3 1 1 3 1 1 3 1 1 1 1 1 3 1 1 3 1 1 3 1 1 3 1 1 3 1 1 3 1 1 3 1 1 3 1 1 3 1 1 3 1 1 3 1 1 3 1 1 3 1 1 1 2 2 4 1 1 3 1 1 3 1 1 3 1 1 3 1 1 3 1 1 3 1 1 3 1 1 3 1 1 1 1 1 3 1 1 3 0 0 0 3 3 5 1 1 3 1 1 3 1 1 3 0 1 3 3 3 3 4 2 3 5 5 3 6 5 3 6 6 4 9 7 8 9 8 4 23 21 9 24 20 8 35 30 11 37 35 14 45 39 17 54 48 26 53 47 23 60 53 25 60 53 25 65 55 28 66 56 29 65 55 28 66 56 29 66 57 28 66 57 28 66 57 28 65 56 27 65 56 27 66 57 28 65 56 27 65 55 28 65 56 27 65 56 27 66 57 28 65 55 28 67 58 29 66 57 28 65 56 27 66 56 29 66 56 29 66 57 28 66 57 28 66 57 26 65 56 27 66 57 28 65 55 28 66 57 26 65 56 27 65 55 28 66 56 29 66 57 28 66 57 28 67 58 29 66 56 29 68 58 31 66 56 29 67 58 29 65 55 28 66 56 29 64 54 27 65 56 27 64 55 26 66 57 28 65 55 28 66 56 29 66 57 28 
1 1 3 1 1 3 1 1 1 1 0 5 1 1 3 1 1 3 1 1 3 1 1 3 1 1 3 1 1 3 1 1 3 1 1 3 1 1 3 1 1 3 1 0 5 1 1 1 1 1 3 1 1 3 1 1 3 1 1 3 0 1 3 0 2 1 2 2 4 2 2 4 1 1 3 1 1 3 1 1 3 1 1 0 1 1 3 1 1 3 1 1 3 1 1 3 1 1 1 1 1 3 1 1 1 1 2 6 1 1 3 1 1 3 1 1 0 0 1 3 2 2 4 1 3 2 2 2 4 3 3 3 19 16 7 18 16 4 32 26 12 35 28 10 42 36 14 52 46 24 53 47 23 59 52 24 59 52 24 63 53 26 66 56 29 66 56 29 66 56 29 66 56 29 67 58 29 67 58 29 66 56 31 66 56 29 66 57 28 66 56 29 66 56 29 66 57 28 65 55 28 65 55 28 66 56 29 65 56 27 65 56 27 65 55 28 66 56 29 66 56 29 65 55 28 66 57 28 66 57 28 66 56 29 66 56 29 65 56 27 66 57 28 65 56 27 66 57 28 66 57 28 66 57 28 66 57 28 66 56 29 67 57 30 66 56 29 66 57 28 65 55 28 67 57 30 67 57 32 66 56 29 65 55 28 66 56 29 65 55 28 66 56 29 65 56 27 66 56 29 
1 1 3 1 1 3 1 1 1 1 1 3 1 1 3 1 1 3 1 1 3 1 1 3 1 1 3 1 1 3 1 1 3 1 1 3 1 1 3 1 1 3 1 1 3 1 1 3 1 1 1 1 1 3 1 1 3 2 2 4 1 1 3 1 1 1 1 1 3 2 1 6 1 1 1 1 1 3 1 1 3 1 1 3 1 1 1 1 1 3 1 1 3 1 1 3 1 1 3 1 1 3 1 1 3 1 1 3 1 1 3 1 1 3 1 1 3 1 1 3 0 0 0 2 2 4 2 2 0 4 2 3 10 9 4 11 8 3 17 14 7 18 15 8 21 18 9 28 24 13 28 24 13 40 35 15 39 34 15 46 37 20 51 43 20 53 45 22 59 52 26 58 50 27 66 57 28 65 56 27 67 57 30 66 56 29 65 55 28 66 56 29 66 56 29 66 57 28 66 57 28 64 57 29 66 56 29 66 57 28 65 56 27 67 56 28 67 55 29 66 56 29 67 55 29 66 56 29 67 56 28 65 55 28 66 56 29 66 56 29 66 57 28 65 56 27 66 56 29 66 56 31 65 56 25 66 57 28 66 57 28 66 56 29 66 57 28 65 56 27 65 55 28 67 57 30 66 56 29 66 56 29 65 56 27 66 57 28 65 55 28 66 56 29 67 58 27 65 56 27 
1 1 3 1 1 3 1 1 3 1 1 3 1 1 3 1 1 3 1 1 3 1 1 3 1 1 1 1 1 3 1 1 3 1 1 3 1 1 3 1 1 3 1 1 3 1 1 3 1 1 1 1 1 3 1 1 3 1 1 3 1 1 3 1 1 3 1 1 3 1 1 3 1 1 3 1 1 3 1 1 1 1 1 3 1 1 1 1 1 3 1 1 3 1 1 3 1 1 3 1 1 3 1 1 3 1 1 3 1 1 3 1 1 3 1 1 3 1 1 3 1 1 1 1 1 3 1 1 3 1 1 1 0 0 2 1 1 1 1 1 3 1 1 1 2 2 2 2 2 4 2 2 4 19 17 5 19 16 7 29 23 9 35 30 11 43 36 17 51 47 20 52 48 23 65 55 28 66 57 28 66 57 28 66 56 29 65 55 28 66 56 31 65 56 27 66 56 29 66 57 28 64 57 28 66 56 29 66 54 30 65 55 28 63 56 28 65 55 28 65 55 28 65 55 28 65 55 28 66 57 28 66 56 29 67 57 30 66 56 29 65 55 28 66 56 29 66 56 29 66 56 29 65 55 28 65 55 28 65 56 27 65 56 27 66 57 28 65 56 27 65 56 27 66 56 29 66 56 29 66 57 28 66 57 28 65 56 27 66 56 29 66 56 29 66 56 29 66 56 29 
1 1 3 1 1 3 1 1 3 1 1 3 1 1 3 1 1 1 1 1 3 1 1 3 1 1 3 1 1 3 1 1 3 1 1 3 1 1 3 1 1 3 1 1 3 1 1 3 1 1 3 1 1 3 1 1 3 1 1 3 1 1 1 1 1 3 1 1 1 1 1 3 1 1 3 1 1 3 1 1 3 1 1 3 1 1 3 1 1 3 1 1 1 1 1 3 1 1 3 1 1 3 1 1 3 1 1 3 1 1 3 1 1 3 1 1 3 1 1 3 1 1 3 1 1 3 1 1 3 1 1 3 2 2 2 2 2 4 0 0 2 1 1 1 2 2 4 2 2 2 2 2 2 17 14 5 16 13 4 26 22 10 30 27 10 36 31 12 47 40 21 47 40 21 61 51 26 59 52 26 62 52 27 63 53 28 64 54 27 65 55 28 65 55 30 66 57 28 66 57 28 66 56 29 66 56 29 65 55 28 66 54 28 65 55 28 65 56 27 66 57 28 66 57 28 65 56 27 66 56 29 65 55 28 66 56 29 66 56 29 65 55 28 66 56 29 65 55 28 66 56 29 65 56 27 65 55 28 66 56 29 66 57 28 66 57 28 65 56 27 66 57 28 65 55 28 66 56 29 65 56 27 66 57 28 65 56 27 65 55 28 66 56 29 66 57 28 66 57 28 
1 1 3 1 1 3 1 1 3 1 1 1 1 1 3 1 1 3 1 1 3 1 1 3 1 1 3 1 1 3 1 1 3 1 1 3 1 1 3 1 1 3 1 1 3 1 1 3 1 1 3 1 1 3 1 1 3 1 1 1 1 1 3 2 2 4 2 2 4 1 1 3 1 1 3 1 1 3 1 1 3 1 1 3 1 1 1 1 1 3 1 1 3 1 1 3 1 1 3 1 1 3 1 1 3 1 1 3 1 1 3 1 1 3 1 1 3 1 1 3 1 1 3 1 1 3 1 0 5 1 1 3 2 2 4 1 1 3 1 1 1 1 1 3 1 1 1 0 0 0 1 1 1 2 2 4 2 2 4 1 1 3 1 1 3 2 2 2 3 3 5 3 3 5 19 15 4 18 16 4 33 27 11 40 35 16 43 36 18 52 44 21 53 45 22 64 54 29 66 57 28 66 56 29 68 56 30 66 57 28 66 56 29 66 57 28 66 57 28 65 55 28 65 55 28 66 56 29 65 56 27 66 57 28 65 55 28 66 56 29 65 55 28 64 54 27 66 57 28 66 57 28 66 57 28 65 55 28 66 56 29 65 55 28 65 55 28 65 56 27 65 55 28 65 55 28 66 56 29 66 56 29 66 57 28 66 56 29 66 56 29 65 55 28 66 57 28 66 57 28 
1 1 3 1 1 3 1 1 1 1 1 3 1 1 3 1 1 3 1 1 3 1 1 3 1 1 3 1 1 3 1 1 3 1 1 3 1 1 3 1 1 1 1 1 1 1 1 3 1 1 3 1 1 3 1 1 3 1 1 3 1 1 3 2 2 4 2 2 4 1 1 0 1 1 3 1 1 3 1 1 3 1 1 1 1 1 3 1 1 3 1 1 3 1 1 3 1 1 3 1 1 3 1 1 3 1 1 3 1 1 3 1 1 3 1 1 3 1 1 3 2 2 2 2 2 2 2 2 4 1 1 1 0 0 2 1 1 1 1 1 3 1 1 3 1 1 1 1 1 1 1 1 3 2 1 6 1 1 1 2 2 4 1 1 1 2 2 4 2 2 4 2 2 2 19 16 7 18 16 4 31 27 15 38 35 16 43 36 18 52 46 22 53 46 20 65 53 27 65 55 28 66 57 28 67 56 26 67 58 29 66 57 28 65 55 30 66 57 28 65 55 28 65 55 28 65 55 28 66 56 29 66 57 28 65 56 27 65 55 28 65 55 28 66 57 28 66 57 28 65 55 28 66 57 28 65 56 27 64 54 27 66 56 29 66 56 29 65 56 27 65 55 28 65 55 28 66 56 29 66 56 29 65 56 27 66 56 29 66 56 29 65 55 28 65 56 27 65 56 27 
1 1 3 1 1 3 1 1 3 1 1 3 1 1 1 1 1 3 1 1 3 1 1 3 1 1 3 1 1 3 1 1 3 1 1 3 1 1 3 1 1 1 1 1 1 1 1 3 1 1 3 1 1 3 1 1 1 1 1 3 1 1 3 1 1 3 1 1 3 1 1 3 1 1 3 1 1 1 1 1 3 1 1 3 1 1 3 1 1 3 1 1 3 1 1 3 1 1 3 1 1 3 1 1 3 1 1 3 1 1 3 1 1 3 1 1 3 1 1 3 1 1 3 1 1 1 1 1 1 0 0 2 1 1 1 1 1 3 1 1 1 1 1 3 1 1 3 1 1 3 1 1 1 1 1 3 1 1 3 1 1 1 2 2 2 1 1 3 1 3 2 0 1 3 5 5 3 5 4 2 10 9 7 10 9 7 11 10 5 15 14 9 15 14 9 31 25 13 29 26 11 36 33 16 46 39 20 47 40 21 57 49 26 56 48 25 63 53 26 65 55 28 65 55 28 65 55 28 65 55 28 66 54 28 65 55 28 65 55 28 64 54 27 64 54 27 65 55 28 65 55 28 65 55 28 65 56 27 65 56 27 65 55 28 66 57 28 66 57 28 65 56 27 66 56 29 65 55 28 66 57 28 64 55 26 65 56 27 66 56 29 66 56 29 67 58 29 65 56 27 
1 1 3 1 1 3 1 1 3 1 1 3 1 1 1 1 1 3 1 1 3 1 1 3 1 1 3 1 1 3 1 1 3 1 1 3 1 1 3 1 1 3 1 1 3 1 1 3 1 1 3 1 1 3 1 1 3 1 1 3 1 1 1 1 1 3 1 1 3 1 1 3 1 1 3 1 1 3 1 1 3 1 1 1 1 1 3 1 1 1 1 1 3 1 1 3 1 1 3 1 1 3 1 1 3 1 1 3 1 1 3 1 1 3 1 1 3 1 1 3 1 1 3 1 1 1 1 1 1 1 1 1 1 1 3 1 1 3 1 1 1 1 1 3 0 1 3 2 2 4 1 1 1 1 1 3 1 0 5 2 2 4 1 1 1 1 1 3 1 1 1 2 0 1 2 2 4 1 1 1 2 2 2 2 2 2 1 3 2 3 3 5 2 2 4 18 15 6 20 16 7 29 25 13 40 34 20 41 35 19 51 45 21 51 45 21 63 53 26 64 54 27 66 56 29 66 56 29 63 56 30 66 56 29 65 55 28 66 56 31 65 55 28 65 55 28 65 55 28 66 56 29 65 55 28 66 57 28 66 56 29 65 56 27 65 56 27 65 56 27 65 56 27 65 55 28 65 55 28 65 56 27 66 57 28 66 57 28 65 55 28 65 55 28 66 56 29 65 55 28 
1 1 3 1 1 3 1 1 3 1 1 1 1 1 3 1 1 3 1 1 3 1 1 3 1 1 1 1 1 3 1 1 3 1 1 1 1 1 1 1 1 3 1 1 3 1 1 3 1 1 3 1 1 1 1 1 3 2 2 4 1 1 3 1 1 3 1 1 3 2 2 4 1 1 3 1 1 3 1 1 3 1 1 1 1 1 3 1 1 3 1 1 3 1 1 1 1 1 3 1 1 3 1 1 3 1 1 3 1 1 3 1 1 3 1 1 3 1 1 3 1 1 3 1 1 3 1 1 1 1 1 3 1 1 1 2 2 4 1 1 3 1 1 3 1 1 1 1 1 3 0 2 1 1 1 1 1 1 1 1 1 1 1 2 4 1 1 3 1 1 3 1 1 1 0 1 3 1 1 3 1 1 1 1 1 1 1 1 3 1 3 2 2 2 4 10 9 4 11 11 3 19 16 9 28 21 13 25 21 12 36 30 16 36 29 13 44 39 19 46 39 20 49 42 23 55 47 26 55 47 26 62 52 27 60 50 23 64 54 27 65 56 27 65 55 28 66 56 29 66 56 29 65 56 27 65 56 27 66 56 29 66 57 28 65 56 27 66 57 28 65 55 28 64 54 27 66 56 29 65 55 28 66 57 28 65 56 27 66 56 29 66 56 29 65 56 25 65 56 27 
1 1 3 1 1 3 1 1 3 2 2 2 2 2 2 1 1 1 1 1 3 1 1 3 1 1 3 1 1 3 1 1 1 0 0 2 1 1 3 1 0 5 2 2 4 1 1 3 1 1 3 1 1 1 1 1 3 1 1 3 1 1 1 1 1 3 1 1 3 1 1 3 1 1 3 2 2 4 2 2 4 1 1 3 1 1 3 2 2 2 2 2 2 1 1 0 1 1 1 1 1 3 1 1 3 1 1 3 1 1 3 1 1 3 1 1 3 1 0 5 1 1 3 1 1 3 1 1 1 1 1 0 1 1 3 1 1 3 1 1 1 1 1 3 1 1 3 2 2 4 1 1 3 1 1 3 1 1 3 1 1 3 1 1 3 3 3 5 1 1 3 1 1 3 1 1 3 1 1 3 1 1 3 1 1 3 1 1 3 1 1 3 1 1 1 0 1 3 1 1 3 1 1 3 0 1 3 2 2 2 7 3 2 7 3 4 16 13 4 20 16 7 27 24 9 40 34 20 39 33 17 53 45 22 53 45 22 62 52 27 65 55 28 66 57 28 68 57 27 66 57 28 66 54 28 67 57 30 67 57 30 63 56 28 66 56 29 66 56 29 65 55 28 66 56 29 65 55 28 66 56 31 64 57 28 66 56 29 65 56 27 66 56 29 65 55 28 66 56 29 
0 0 0 1 1 3 1 1 1 1 1 3 1 1 3 1 1 3 1 1 3 0 1 3 1 1 3 1 1 3 1 1 3 1 1 3 2 2 4 1 1 1 1 1 1 2 2 4 1 1 3 1 1 3 1 1 3 1 1 3 1 1 1 1 1 1 1 1 3 1 1 1 1 1 3 1 1 3 1 1 1 1 1 3 1 1 3 1 1 3 1 0 5 1 1 3 1 1 1 1 0 5 1 0 5 1 1 3 1 1 1 1 1 3 1 1 3 1 1 1 1 1 3 1 1 3 1 1 3 1 1 3 1 1 3 1 1 3 1 1 3 1 1 3 1 1 3 1 1 3 2 2 4 1 1 0 2 2 2 2 2 4 0 0 2 1 1 3 1 1 3 1 1 3 1 1 3 1 1 3 1 1 3 1 1 3 1 1 3 1 1 3 2 2 4 1 1 3 2 2 4 1 1 3 1 1 1 3 1 2 6 2 0 7 3 2 17 13 4 19 15 4 27 23 11 39 33 17 39 33 17 52 46 24 53 47 21 60 53 27 66 54 28 66 57 28 67 58 29 66 56 29 67 56 28 65 55 28 65 55 28 65 56 27 63 56 28 62 55 27 66 55 25 66 56 29 64 57 28 66 56 29 65 55 28 64 54 27 66 57 28 65 56 25 65 56 27 64 54 27 
1 1 1 1 1 1 0 1 3 0 1 3 1 1 3 1 2 4 1 1 1 1 1 3 1 1 3 1 1 3 1 1 3 2 2 4 2 2 4 0 0 0 2 2 4 2 2 4 1 1 3 1 1 1 1 1 3 1 1 3 1 1 3 1 1 3 1 1 3 1 1 3 1 1 3 1 1 3 1 1 3 1 1 3 1 1 3 1 1 1 1 1 3 1 1 3 1 1 3 1 1 1 1 1 1 1 1 3 1 1 3 1 1 3 1 1 3 1 1 3 1 1 3 1 1 3 1 1 3 1 1 3 1 1 3 1 1 3 1 1 3 1 1 3 2 2 4 1 1 3 2 2 4 1 1 1 2 2 4 2 2 4 1 1 1 1 0 5 1 1 3 1 1 3 1 1 3 1 1 3 1 1 3 1 1 3 1 1 3 1 1 3 1 1 3 1 1 1 1 1 3 1 1 1 0 1 3 0 1 3 1 1 3 1 1 3 0 0 2 0 2 1 1 2 4 1 1 1 2 2 2 8 7 3 9 8 4 19 16 9 24 21 6 28 25 10 40 34 18 40 34 18 51 45 21 54 46 23 59 52 26 65 56 27 66 54 28 65 55 28 66 57 26 65 55 28 65 55 28 65 55 28 65 55 28 64 54 27 65 55 28 65 55 28 66 54 28 65 55 28 
0 1 5 1 1 3 1 1 1 1 1 3 1 2 4 0 1 3 0 0 2 1 1 1 1 1 3 0 0 2 1 1 3 1 1 3 1 1 3 2 2 4 1 1 3 1 1 3 1 1 3 1 1 1 1 1 3 1 1 3 1 1 3 1 1 3 1 1 3 1 1 3 1 1 3 1 1 3 1 1 3 1 1 1 1 1 3 1 1 1 1 1 1 1 1 1 1 1 3 1 1 3 1 1 3 1 1 3 1 1 3 1 1 3 1 1 3 1 1 3 1 1 3 1 1 3 1 1 3 1 1 3 1 1 3 1 1 3 1 1 3 1 1 3 1 1 3 1 1 3 1 1 3 1 1 3 1 1 3 2 2 4 1 1 3 1 1 3 1 1 3 1 1 3 1 1 3 1 1 3 1 1 3 1 1 3 1 1 3 1 1 3 1 1 3 2 2 4 1 1 3 1 1 3 1 1 3 1 1 3 1 1 3 2 2 4 1 1 1 2 2 2 1 1 3 1 1 3 1 1 3 8 7 3 8 7 3 19 17 5 23 19 7 29 23 11 38 35 18 40 34 18 50 44 20 54 46 23 57 50 24 63 56 28 65 55 28 66 57 28 65 56 27 65 55 28 66 56 29 66 56 29 65 56 27 65 56 27 65 55 28 65 55 28 66 55 27 65 55 28 
10 9 14 4 3 8 4 3 8 2 3 5 1 1 3 2 2 4 1 1 1 1 1 1 1 1 3 2 2 4 1 1 3 1 1 3 2 2 4 2 2 4 1 1 3 1 1 3 1 1 3 1 1 3 1 1 3 1 1 3 1 1 3 1 1 3 1 1 3 1 1 1 1 1 3 1 1 3 1 1 3 1 1 3 1 1 3 1 1 3 1 1 3 1 1 3 1 1 3 1 1 1 1 1 1 1 1 3 1 1 3 1 1 1 1 1 1 1 1 3 1 1 3 1 1 3 1 1 3 1 1 3 1 1 3 1 1 3 1 1 3 1 1 3 1 1 3 2 2 4 1 1 3 1 1 1 1 1 3 1 1 3 1 1 3 2 2 4 1 1 3 1 1 3 1 1 3 1 1 3 1 1 3 1 1 3 1 1 3 1 1 3 1 1 3 1 1 1 1 1 3 1 1 1 2 2 4 2 2 2 1 1 1 1 1 1 0 0 2 1 0 5 1 1 1 1 1 1 1 1 3 4 3 1 5 3 4 8 7 3 12 8 5 10 9 4 15 14 9 13 14 8 25 21 10 26 22 11 34 28 14 40 35 16 41 34 16 49 43 21 49 43 21 54 48 24 56 49 23 58 51 25 66 57 28 64 55 26 66 57 28 66 57 28 66 56 29 65 55 28 
15 13 18 7 6 11 5 4 9 3 4 8 1 0 5 0 1 3 1 1 3 1 1 0 1 1 3 1 1 1 2 2 4 2 2 4 1 1 3 1 1 1 1 1 1 2 2 4 1 1 3 1 1 3 1 1 3 1 1 3 1 1 3 1 1 3 1 1 3 1 1 3 1 1 3 1 1 3 1 1 3 1 1 3 1 1 3 1 1 1 1 1 3 1 1 3 1 1 3 1 1 3 1 1 3 1 1 3 1 1 3 1 1 3 1 1 3 1 1 1 1 1 3 1 1 3 1 1 3 1 1 3 1 1 3 1 1 3 1 1 3 1 1 3 1 1 3 2 2 4 2 2 4 1 1 1 1 1 3 1 1 3 1 1 1 2 2 4 1 1 3 1 1 3 1 1 3 1 1 3 1 1 3 1 1 3 1 1 3 1 1 3 2 0 1 1 1 1 1 1 3 1 1 3 1 1 3 1 1 3 1 1 1 1 1 3 1 1 3 1 1 1 1 1 3 1 1 1 1 1 3 2 2 4 1 1 3 1 1 3 2 2 4 1 1 1 1 1 3 0 2 1 7 8 3 8 7 3 16 13 4 24 20 9 26 22 10 40 34 18 40 35 16 48 42 20 52 46 22 57 49 26 62 55 27 65 55 28 66 57 28 66 56 29 66 56 31 65 55 28 
25 24 29 15 14 19 13 14 19 10 11 16 9 10 14 9 8 13 5 5 7 5 5 7 3 3 5 2 2 4 2 2 4 0 0 2 1 1 3 1 1 3 1 1 3 1 1 3 1 1 3 1 1 3 1 1 3 1 1 3 1 1 3 1 1 3 1 1 3 1 1 3 1 1 3 1 1 3 1 1 3 1 1 1 1 1 3 1 1 1 1 1 3 1 1 1 1 1 3 1 1 3 1 1 3 1 1 3 1 1 3 1 1 3 1 1 3 1 1 3 1 1 3 1 1 3 1 1 3 1 1 3 1 1 3 1 1 3 1 1 3 1 1 3 1 1 1 1 1 3 2 2 4 1 1 3 1 1 3 1 1 3 1 1 1 0 0 2 1 1 3 1 1 3 1 1 3 1 1 3 1 1 3 1 1 3 1 1 3 1 1 3 1 1 3 1 1 3 0 1 3 1 2 4 2 2 4 2 2 4 2 2 4 1 1 3 2 2 4 1 1 3 1 1 3 1 1 3 1 1 3 1 1 3 2 2 4 1 1 3 1 1 3 1 1 3 1 1 3 0 2 1 7 7 5 7 6 4 11 10 5 19 16 7 20 17 8 32 25 15 30 26 14 39 33 17 41 36 17 46 39 20 54 48 24 55 47 24 59 52 26 61 51 26 62 52 27 65 54 26 
50 51 55 43 44 48 41 42 46 37 38 43 32 33 37 29 33 36 16 14 19 17 15 20 8 7 12 5 4 10 3 2 7 1 1 3 2 2 4 2 1 6 1 1 3 1 1 1 1 1 3 1 1 3 1 1 3 1 1 3 1 1 3 1 1 3 1 1 3 1 1 3 1 1 1 2 2 2 2 2 4 1 1 3 1 1 3 2 2 4 2 2 4 1 1 3 1 0 5 1 1 3 1 1 3 1 1 3 1 1 3 1 1 3 1 1 3 1 1 1 1 1 0 1 1 3 1 1 3 1 1 3 1 1 3 1 1 1 1 1 1 1 1 3 1 1 3 1 1 3 1 1 3 1 1 3 1 1 3 2 2 4 1 1 3 1 1 3 1 1 3 1 1 3 1 1 3 1 1 3 1 1 3 1 1 3 1 1 3 1 1 3 2 0 3 2 0 1 1 1 1 1 1 3 1 1 1 1 1 3 1 1 3 1 1 3 1 1 1 0 1 3 1 1 1 2 0 3 2 0 3 1 1 1 1 1 3 2 0 3 1 1 1 2 2 4 0 2 1 0 0 2 1 1 1 1 1 3 1 0 5 1 1 1 1 1 3 0 2 1 2 2 2 7 6 4 11 7 4 16 13 6 24 20 8 23 21 8 40 34 18 39 34 15 51 45 23 57 51 25 
50 51 53 42 43 47 41 42 46 36 37 41 33 34 38 31 30 35 15 14 19 15 13 18 7 6 11 3 4 9 2 3 7 1 1 3 1 1 3 2 2 4 1 1 3 0 1 3 1 1 3 1 1 3 1 1 3 1 1 1 1 1 3 1 1 1 1 1 3 1 1 3 1 1 1 1 1 3 1 1 1 1 1 3 2 2 4 2 2 4 1 1 3 1 1 1 1 1 3 1 1 3 1 1 3 1 1 3 1 0 5 1 1 3 1 1 3 1 1 3 1 1 1 1 1 3 1 1 3 1 1 1 1 1 3 1 1 1 1 1 3 1 1 3 1 1 3 1 1 3 1 1 3 1 1 3 1 1 3 1 1 3 1 1 3 1 1 3 1 1 3 1 1 3 1 1 3 1 1 3 1 1 3 1 1 3 1 1 3 1 1 3 1 1 3 1 1 1 1 1 3 1 1 3 1 1 1 1 1 3 1 1 3 1 1 3 1 1 1 1 1 3 1 1 3 1 1 1 1 1 1 1 1 3 1 1 3 1 1 1 1 1 3 1 1 3 1 1 3 1 1 3 1 1 3 1 1 3 1 1 1 1 0 5 0 2 1 1 1 1 1 1 3 7 6 4 10 6 3 16 11 5 25 21 9 24 20 8 40 34 18 39 33 17 51 45 23 57 50 24 
51 52 56 49 50 55 49 50 54 48 49 53 47 48 52 48 47 52 43 42 47 44 43 48 39 40 44 37 38 40 33 34 36 28 29 33 26 30 33 16 14 19 15 13 16 6 5 10 1 1 1 1 1 3 1 1 3 1 1 3 1 1 3 1 1 3 1 1 3 1 1 3 1 1 3 2 2 4 1 1 1 1 1 3 1 1 3 1 1 3 1 1 1 1 1 1 1 1 3 1 1 1 1 1 1 1 1 3 1 1 3 1 1 3 1 1 1 1 1 1 1 1 3 1 1 1 1 1 3 1 1 1 1 1 3 1 1 3 1 1 3 1 1 3 1 1 3 1 1 3 1 1 3 1 1 3 1 1 3 1 1 3 1 1 3 1 1 3 1 1 1 1 1 3 1 1 3 1 1 3 1 1 3 1 1 3 1 1 3 1 1 1 1 1 1 1 1 3 1 1 3 1 1 3 1 1 3 1 1 3 1 1 1 1 1 3 1 1 3 1 1 3 1 1 3 1 1 3 1 1 3 1 1 3 1 1 3 1 1 3 1 1 3 1 1 3 1 1 1 1 0 5 1 1 3 1 1 1 1 1 3 1 1 3 1 1 1 1 1 1 1 1 1 2 2 2 2 2 0 2 2 2 3 3 3 3 3 3 5 5 7 5 5 7 11 10 6 15 12 5 
50 51 55 50 51 53 50 51 55 49 53 54 48 52 53 50 51 55 48 49 51 47 48 52 42 43 47 41 42 46 38 39 43 32 33 37 32 33 37 16 14 19 17 15 20 7 7 9 2 2 4 1 1 3 1 1 3 1 1 3 1 1 3 1 1 3 1 1 3 1 1 3 1 1 3 2 2 4 1 1 3 1 1 3 1 1 3 1 1 3 1 1 3 1 1 3 1 1 3 1 1 3 1 1 3 1 1 3 1 1 3 1 1 3 1 1 3 1 1 3 1 1 3 1 1 1 1 1 3 1 1 3 1 1 1 1 1 1 1 1 3 1 1 3 1 1 3 1 1 3 1 1 3 1 1 3 1 1 3 1 1 3 1 1 3 1 1 3 1 1 3 1 1 3 1 1 3 1 1 3 1 1 3 1 1 3 1 1 3 1 1 3 1 1 3 1 1 3 1 1 3 1 1 3 1 1 3 1 1 3 1 1 3 1 1 3 1 1 3 1 1 3 1 1 3 1 1 3 1 1 3 1 1 3 1 1 3 1 1 3 1 1 3 1 1 3 1 1 3 1 1 3 1 1 3 1 1 3 1 1 3 1 1 3 1 1 1 1 1 3 1 1 3 1 1 1 1 1 3 0 1 3 0 1 3 0 1 3 2 2 4 1 1 3 5 5 3 8 9 4 
50 51 53 50 51 53 50 51 53 48 52 53 48 52 53 48 52 55 49 50 54 49 50 54 47 46 51 46 47 49 45 46 50 41 42 46 41 42 46 27 26 31 27 26 31 11 10 15 2 2 4 1 2 6 1 1 3 1 0 5 2 2 4 1 1 3 2 0 3 1 1 3 1 1 3 1 1 1 1 1 3 1 1 3 1 0 5 1 1 3 1 1 3 1 1 3 1 1 3 1 1 3 1 1 3 1 1 3 1 1 3 1 1 3 1 1 3 1 1 3 1 0 5 1 1 3 1 1 3 1 1 3 1 1 1 1 1 1 1 1 3 1 1 3 1 1 3 1 1 3 1 1 3 1 1 3 1 1 3 1 1 3 1 1 3 1 1 3 1 1 3 1 1 3 1 1 3 1 1 3 1 1 3 1 1 3 1 1 3 1 1 3 1 1 3 1 1 1 1 1 3 1 1 3 1 1 1 1 1 1 1 1 3 1 1 3 1 1 3 1 1 3 1 1 3 1 1 3 1 1 3 1 1 3 1 1 3 1 1 3 1 1 3 1 1 1 1 1 3 1 1 3 1 1 1 1 1 3 1 1 1 1 1 3 1 1 1 1 1 3 1 1 3 1 1 3 1 1 3 1 1 3 2 2 2 1 1 3 1 1 3 2 2 4 3 3 3 4 4 4 
49 50 52 49 50 52 51 52 54 51 52 54 49 50 52 49 50 54 50 51 56 49 50 55 50 51 53 50 51 53 50 51 53 50 51 55 49 50 54 35 39 42 37 38 42 16 17 21 3 4 9 4 3 9 1 2 6 2 3 7 2 1 6 2 2 4 0 1 3 1 1 1 1 1 3 0 0 2 1 1 3 1 1 3 1 1 3 1 1 3 2 2 4 2 2 4 1 1 3 1 1 1 1 1 1 1 1 3 1 1 1 1 1 3 1 1 3 1 1 1 1 1 3 1 1 3 1 1 3 1 1 3 1 1 3 1 1 3 1 1 1 1 1 3 1 1 3 1 1 3 1 1 3 1 1 3 1 1 3 1 1 3 1 1 3 1 1 3 1 1 3 1 1 3 1 1 3 1 1 3 1 1 3 1 1 3 1 1 3 1 1 3 1 1 1 1 1 3 1 1 3 1 1 3 1 1 3 1 1 3 1 1 1 1 1 3 1 1 3 1 1 1 1 1 1 1 1 3 1 1 3 1 1 1 1 1 1 1 1 3 1 1 3 1 1 3 1 1 3 1 1 3 1 1 3 1 1 3 1 1 3 1 1 3 1 1 3 1 1 3 1 1 3 1 1 3 1 1 3 1 1 3 1 1 3 1 1 3 2 2 2 1 1 1 1 1 1 1 1 1 
49 50 54 50 51 55 50 51 53 50 51 53 50 51 53 50 51 53 49 50 54 50 51 55 48 52 55 50 51 55 50 51 55 50 51 53 49 51 50 34 35 39 35 36 40 14 15 19 2 3 8 2 3 8 1 2 6 2 3 7 1 2 4 1 2 4 1 2 4 2 3 5 2 2 4 3 2 7 2 1 6 2 2 4 3 3 5 2 2 4 1 1 3 2 2 4 1 1 3 1 1 3 1 1 3 1 1 1 1 0 5 1 1 3 1 1 3 1 1 3 1 1 0 1 1 3 1 1 3 1 1 3 1 1 3 1 1 3 1 1 1 1 1 3 1 1 3 1 1 3 1 1 3 1 1 3 1 1 3 1 1 3 1 1 3 1 1 3 1 1 3 1 1 3 1 1 3 1 1 1 1 1 1 1 1 3 1 1 3 1 1 3 1 1 3 1 1 3 1 1 3 1 1 3 1 1 3 1 1 3 1 1 3 1 1 3 1 1 1 1 1 3 1 1 3 1 1 1 1 1 1 1 1 3 1 1 3 1 1 1 1 1 1 1 1 3 1 1 3 1 1 1 1 1 3 1 1 3 1 1 1 1 1 3 1 1 1 1 1 3 1 1 1 1 1 1 1 1 3 1 1 3 1 1 3 1 1 3 0 2 1 0 0 2 1 1 1 1 1 3 
49 50 52 49 50 52 49 50 52 50 51 53 50 51 53 51 52 56 49 50 54 50 51 55 50 51 53 50 51 55 49 50 54 47 48 52 47 48 52 15 14 19 16 15 20 7 6 11 2 3 8 2 3 8 2 2 10 3 3 11 4 4 12 4 4 12 6 6 16 8 8 20 6 8 21 9 11 26 7 9 24 6 6 18 5 5 15 3 3 11 0 1 3 2 2 4 1 1 3 1 1 3 1 1 3 1 1 3 1 1 1 1 1 3 1 1 3 1 1 3 1 1 1 1 1 3 1 1 1 1 1 3 1 1 3 1 1 3 1 1 3 1 1 1 1 1 3 1 1 3 1 1 3 1 1 3 1 1 3 1 1 3 1 1 3 1 1 3 1 1 3 1 1 3 1 1 3 1 1 3 1 1 3 1 1 3 1 1 3 1 1 3 1 1 3 1 1 1 1 1 3 1 1 3 1 1 1 1 1 1 1 1 3 1 1 3 1 1 3 1 1 1 1 1 1 1 1 3 1 1 3 1 1 1 1 1 1 1 1 3 1 1 3 1 1 3 1 1 3 1 1 3 1 1 3 1 1 3 1 1 3 1 1 3 1 1 1 1 1 3 1 1 1 2 2 4 1 1 3 1 1 3 1 1 3 0 0 0 0 0 0 1 1 3 1 1 1 1 1 1 
50 51 53 49 50 52 49 50 54 51 52 56 50 51 55 51 52 56 50 51 55 50 51 53 50 51 55 50 51 55 47 51 54 47 48 50 48 49 54 16 14 19 15 14 19 6 5 10 2 3 7 3 4 8 2 2 10 2 3 8 4 5 10 3 3 11 6 6 16 8 7 21 6 8 20 8 10 25 8 10 23 6 6 16 4 4 12 3 3 11 1 1 3 1 1 3 1 1 3 1 1 3 1 1 3 1 1 1 1 1 3 1 1 3 1 1 3 1 1 3 1 1 3 1 1 3 1 1 3 1 1 3 1 1 1 1 1 3 1 1 3 1 1 3 1 1 3 1 1 3 1 1 3 1 1 3 1 1 3 1 1 3 1 1 3 1 1 3 1 1 3 1 1 3 1 1 3 1 1 1 1 1 1 1 1 3 1 1 3 1 1 3 1 1 3 1 1 3 1 1 3 1 1 3 1 1 3 1 1 3 1 1 1 1 1 3 1 1 3 1 1 3 1 1 3 1 1 3 1 1 3 1 1 3 1 1 3 1 1 3 1 1 3 1 1 3 1 1 3 1 1 3 1 1 3 1 1 3 1 1 3 1 1 3 1 1 3 1 1 3 1 1 1 1 1 3 0 0 2 1 1 3 1 1 3 1 1 3 1 1 3 1 1 3 0 0 0 1 1 3 
50 51 55 49 50 52 50 51 55 50 51 55 50 51 53 50 51 53 49 50 54 49 50 52 50 51 53 51 52 54 44 45 50 36 37 42 36 37 41 9 8 16 9 8 16 8 8 18 6 8 21 8 10 25 9 12 31 12 13 31 15 17 40 16 18 41 18 19 49 19 23 52 19 22 53 20 23 54 19 22 53 15 19 46 15 17 42 13 14 35 9 8 22 8 10 23 1 2 6 1 2 6 2 3 5 1 1 3 1 2 4 1 1 1 1 1 3 1 1 3 2 2 2 1 1 3 1 1 3 1 1 3 1 1 3 2 2 4 2 2 4 1 1 3 1 1 1 2 2 0 1 1 1 1 1 1 1 1 3 1 1 3 2 2 4 1 1 3 1 1 3 2 2 4 1 1 3 1 1 3 1 1 1 1 1 1 1 1 1 1 1 1 2 2 4 1 1 3 1 1 3 2 2 2 1 1 3 1 1 3 1 1 3 0 0 2 1 1 3 1 1 3 1 1 3 1 1 3 1 1 3 1 1 3 1 1 3 1 1 3 1 1 3 1 1 3 1 1 1 1 1 3 1 1 3 1 1 3 1 1 3 1 1 3 1 1 3 1 1 3 1 1 3 1 1 3 1 1 3 1 1 3 1 1 3 1 1 3 1 1 1 1 0 5 1 1 3 1 1 3 
50 51 53 51 52 54 50 51 53 50 51 55 49 50 52 50 51 55 50 51 55 49 50 54 48 52 53 50 51 53 43 44 48 32 33 37 32 33 37 6 6 16 6 6 16 9 8 24 7 9 24 10 11 29 14 16 41 16 16 40 16 19 50 20 21 52 20 23 56 24 26 64 22 26 61 23 25 64 25 27 66 21 24 57 20 21 52 16 18 43 10 11 29 9 10 30 0 3 8 2 1 7 1 2 6 1 2 4 1 1 3 1 1 1 1 1 3 1 1 3 1 1 3 1 1 3 1 1 3 1 1 1 0 0 0 1 1 3 1 1 3 1 1 3 1 1 3 1 1 3 0 0 2 1 1 3 1 1 3 1 1 3 1 1 3 1 1 3 1 1 3 1 1 3 1 1 3 0 0 2 2 2 4 1 1 3 1 1 3 1 1 3 1 1 3 1 1 1 1 1 3 1 1 3 1 1 3 1 1 3 1 1 3 1 1 3 1 1 3 1 1 3 1 1 3 1 1 3 1 1 3 1 1 3 1 1 3 1 1 3 1 1 3 1 1 3 1 1 3 1 1 3 1 1 3 1 1 3 1 1 1 1 1 3 1 1 3 1 1 3 1 1 3 1 1 3 1 1 3 1 1 3 1 1 3 1 1 3 1 1 3 1 1 3 1 1 3 1 1 1 
50 51 55 49 50 52 50 51 55 50 51 55 50 51 53 50 51 53 50 51 55 50 51 53 50 51 55 49 50 52 43 44 49 32 32 42 31 31 43 14 13 31 11 12 32 15 13 35 13 15 38 12 16 41 19 20 48 20 20 48 19 22 53 21 21 55 20 23 56 21 24 59 19 22 55 18 21 52 18 22 51 16 18 43 14 16 41 11 13 34 9 8 22 7 9 22 3 4 9 2 3 8 1 2 6 1 2 6 2 1 6 2 1 6 1 2 6 1 1 3 0 0 2 1 1 3 1 1 3 1 1 3 1 1 3 1 1 3 0 0 2 1 1 3 2 2 4 0 0 4 0 0 4 1 1 3 1 1 3 1 1 3 1 1 3 1 1 1 1 1 3 1 1 3 1 1 3 1 1 3 1 1 3 1 1 3 1 1 3 1 1 3 1 1 1 2 2 4 2 2 4 1 1 1 1 1 3 1 1 3 1 1 3 1 1 3 1 1 3 1 1 3 1 1 3 1 1 3 1 1 3 1 1 3 1 1 3 1 1 3 1 1 3 1 1 3 1 1 3 1 1 3 1 1 3 1 1 1 1 1 3 1 1 3 1 1 3 1 1 3 1 1 3 1 1 3 1 1 3 1 1 3 1 1 3 1 1 3 1 1 1 1 1 3 1 1 3 1 1 1 
50 51 55 50 51 55 50 51 55 49 50 54 50 51 53 50 51 53 49 50 52 50 51 53 48 49 53 47 48 52 40 40 52 29 27 48 27 28 48 19 22 55 20 23 56 22 24 62 22 26 63 23 27 65 27 27 65 24 26 64 21 24 59 22 25 60 19 22 53 15 19 46 14 18 45 12 13 33 11 14 33 8 10 25 4 8 19 5 7 19 3 3 11 3 3 13 2 2 10 3 3 11 2 3 8 3 2 8 0 1 6 2 3 7 3 2 8 1 2 7 1 2 4 1 2 6 1 2 4 0 1 5 1 0 5 0 0 2 1 1 3 1 1 3 1 1 3 1 1 3 1 1 0 1 1 3 1 1 3 1 1 3 1 1 3 1 0 5 1 1 3 1 1 3 1 1 3 1 1 3 1 1 3 1 1 3 0 0 0 1 1 0 1 1 3 1 1 1 1 1 1 1 1 3 1 0 5 1 1 3 1 1 3 1 1 3 1 1 1 1 1 1 1 1 1 1 1 1 1 1 3 1 1 3 1 1 3 1 1 3 1 1 3 1 1 1 1 1 3 1 1 3 1 1 3 1 1 3 1 1 3 1 1 3 1 1 3 1 1 3 1 1 3 1 1 3 1 1 3 1 1 3 1 1 3 1 1 3 1 1 3 1 1 1 1 1 3 1 1 3 
