P3
100 50
255
48 53 119 47 51 112 47 51 112 43 46 101 38 42 90 38 39 87 22 25 66 22 25 66 24 27 68 24 27 68 29 33 80 38 41 94 39 42 97 45 50 116 45 50 116 47 50 117 46 51 117 48 52 116 43 48 106 43 48 106 30 34 82 29 33 81 26 29 72 21 25 63 21 25 63 30 31 79 28 32 79 41 43 100 45 47 106 45 49 112 47 52 118 47 50 117 46 50 111 46 50 113 40 45 101 39 42 95 35 39 87 24 25 69 23 27 65 23 25 66 22 26 64 30 32 81 38 41 94 39 42 97 44 50 112 46 50 111 45 50 114 45 50 116 44 47 114 41 45 109 40 44 107 27 31 79 28 30 78 23 25 64 21 24 59 22 26 64 29 33 81 28 32 79 43 44 108 40 44 107 44 48 112 45 50 116 46 50 114 43 47 111 44 47 114 35 37 94 33 36 91 28 30 78 21 25 63 22 26 64 23 26 69 23 26 67 35 37 88 39 42 97 41 44 99 46 50 113 46 50 113 44 49 115 44 49 115 42 46 107 42 44 101 38 41 94 26 29 72 26 29 74 22 26 64 21 23 62 26 29 72 31 34 85 32 35 88 41 44 111 40 45 109 43 48 114 46 49 116 43 48 112 41 45 109 41 45 109 30 34 82 29 32 83 24 27 68 22 25 60 
49 54 118 47 51 114 45 51 111 43 46 101 35 42 88 37 39 87 23 25 64 23 25 64 24 27 68 24 27 68 29 33 78 36 41 96 37 42 97 45 50 114 45 50 116 46 51 115 48 52 116 47 51 115 43 48 106 46 46 108 32 34 85 28 32 80 24 27 70 20 22 60 23 25 64 28 30 79 27 31 79 41 44 99 44 49 107 44 48 111 47 52 116 47 50 119 49 50 114 46 50 111 40 45 103 38 41 94 35 39 87 23 26 67 22 27 67 21 25 63 22 25 66 31 33 81 39 42 95 39 42 97 46 50 111 47 49 110 45 50 114 43 50 118 43 48 112 40 44 107 40 44 107 27 31 78 28 32 79 23 26 67 20 23 58 22 26 64 30 32 81 29 31 80 40 44 107 40 44 107 44 48 112 45 50 118 46 49 116 44 48 112 44 48 112 36 37 91 33 36 91 28 30 78 23 25 64 21 25 63 23 26 67 23 26 69 34 38 86 38 41 96 39 44 102 46 50 113 47 51 114 45 50 118 44 49 115 44 46 107 39 44 100 38 41 94 26 29 74 26 29 74 22 26 64 21 25 63 28 29 75 31 35 83 30 33 86 41 45 109 40 45 109 43 48 114 44 49 115 41 49 112 41 45 109 41 45 109 30 33 84 30 33 84 25 28 69 21 24 59 
40 43 98 28 31 74 26 31 73 25 28 71 24 27 68 27 28 72 37 38 86 36 38 86 43 45 102 43 48 106 46 48 109 46 50 114 46 50 114 44 48 109 44 48 109 37 40 93 33 36 87 30 33 84 24 26 67 24 27 68 26 29 72 27 29 77 33 36 87 39 42 97 38 43 98 46 50 113 45 50 114 46 50 114 45 48 115 43 49 111 38 43 101 38 43 101 27 30 73 27 30 75 25 28 73 23 26 67 26 29 74 32 35 88 31 34 87 40 45 103 42 47 105 44 48 109 46 50 114 46 50 113 47 47 107 45 50 108 36 39 92 33 36 87 29 33 81 24 25 69 23 25 66 27 30 73 27 30 75 34 37 88 39 42 97 39 41 98 44 48 112 44 48 112 43 48 114 44 49 115 40 45 103 39 42 97 34 37 90 24 29 71 24 27 70 24 27 68 23 26 67 29 31 79 33 34 88 35 38 91 41 45 108 41 45 108 42 47 111 43 48 114 42 47 111 41 45 108 41 45 108 31 33 82 31 33 82 25 28 73 22 24 63 25 28 69 26 30 77 27 31 76 36 41 99 38 42 103 41 45 108 42 47 111 43 46 113 43 47 111 43 47 111 38 40 99 36 38 95 30 33 84 26 25 69 23 26 69 24 27 70 24 27 68 31 35 82 36 38 89 
38 41 94 25 28 73 22 25 66 24 26 65 23 26 67 24 27 68 36 40 88 37 41 89 43 48 106 46 50 111 46 50 113 47 50 117 46 51 117 46 48 107 44 49 107 33 39 91 30 34 82 28 32 80 22 24 63 21 25 63 25 27 75 26 28 76 33 36 87 41 44 99 40 45 103 48 51 118 47 50 117 45 48 115 45 50 116 41 47 109 35 41 101 37 41 102 25 27 68 24 27 70 23 26 67 23 25 64 25 28 71 34 37 92 33 36 91 46 48 109 46 50 111 47 51 115 47 52 116 47 50 117 43 48 106 44 49 107 35 38 91 31 34 85 25 32 78 20 24 62 21 23 62 26 29 74 27 28 74 35 38 89 42 44 101 42 47 105 46 51 117 45 50 116 44 49 115 45 50 118 40 45 103 39 40 96 35 38 89 23 26 67 24 26 67 22 24 63 22 24 63 28 30 78 33 36 91 34 36 93 44 48 112 42 47 111 45 48 115 45 48 115 43 49 111 39 43 107 40 44 107 27 31 78 28 30 79 23 27 65 19 22 57 22 26 64 29 31 79 27 31 78 39 44 102 39 45 107 42 47 111 45 50 116 44 49 115 43 46 113 43 47 111 37 39 96 33 36 91 29 33 80 20 24 62 21 25 63 23 26 67 23 26 67 33 37 84 39 42 97 
32 35 78 29 31 79 29 32 77 33 35 83 34 37 88 35 38 91 43 48 104 42 47 105 44 48 109 46 50 113 46 48 107 42 44 103 43 45 102 34 36 85 33 37 85 30 34 81 28 30 78 29 31 79 32 36 83 31 33 81 34 39 94 37 40 95 39 44 100 44 48 109 44 48 109 44 48 111 44 48 109 37 42 98 37 40 95 34 37 88 29 31 80 30 32 80 27 29 77 28 30 78 31 35 83 32 36 84 35 38 91 39 43 104 39 43 104 44 48 109 45 49 110 45 47 108 40 44 105 38 43 101 33 37 85 33 35 84 30 32 80 27 31 78 29 33 80 30 32 80 27 30 81 37 40 95 32 39 93 40 45 103 43 47 110 43 47 108 42 46 109 42 48 108 36 39 94 36 39 94 32 34 82 28 31 76 28 32 77 26 30 75 27 30 75 32 36 83 33 37 85 35 40 95 37 43 101 37 43 103 43 47 111 42 46 110 39 43 104 38 43 101 34 39 94 28 34 82 31 33 84 26 30 75 27 30 75 28 32 79 29 33 81 31 35 83 35 40 98 36 41 97 41 45 109 42 46 109 41 45 106 41 45 106 40 45 101 33 36 89 34 37 90 28 32 79 27 30 75 27 29 77 27 30 75 27 31 78 33 36 89 33 36 89 38 43 101 41 45 106 
24 27 60 33 36 81 34 36 84 41 44 99 46 50 111 46 50 113 48 53 117 48 53 117 46 50 113 46 50 113 41 46 102 34 38 85 35 37 86 22 26 63 22 26 64 24 27 70 25 28 73 30 32 80 39 44 100 41 43 100 43 48 112 46 51 117 46 51 117 47 52 118 45 50 114 41 43 100 42 43 99 30 32 80 26 29 74 25 27 66 21 24 59 21 24 59 29 32 85 29 33 81 40 43 98 43 48 106 44 49 107 47 51 115 48 51 118 45 51 113 46 50 113 41 43 102 34 37 90 32 35 88 22 24 62 21 23 62 24 27 68 24 27 70 30 32 81 37 39 96 37 39 98 45 50 116 45 50 116 45 50 116 46 51 117 45 49 113 42 44 101 41 43 100 25 28 69 23 30 72 25 24 66 21 24 57 24 26 65 30 33 84 31 34 85 42 47 105 45 47 106 45 49 110 46 49 118 44 49 117 41 45 109 41 45 109 32 37 92 31 34 85 27 30 73 20 24 59 21 24 59 25 28 71 24 29 71 31 36 91 37 41 102 41 43 104 44 49 115 45 50 116 44 47 114 43 47 111 40 45 103 39 42 95 36 39 92 23 26 69 23 26 67 22 24 65 20 24 61 25 28 73 33 34 88 31 37 89 41 46 114 41 46 110 43 48 114 45 50 116 
28 30 69 35 37 85 37 39 90 42 44 101 46 50 111 45 49 112 47 51 114 48 52 115 43 47 110 42 47 105 38 44 96 32 36 83 33 35 83 23 26 67 24 27 68 26 29 72 28 31 76 32 35 80 43 45 102 42 44 103 45 49 113 45 50 114 45 49 113 45 49 113 44 48 109 39 42 97 39 42 95 30 34 81 28 31 76 23 26 67 23 27 64 22 26 63 32 35 86 32 35 88 41 43 100 44 49 107 44 48 109 46 50 114 47 50 117 42 46 107 42 47 105 36 41 97 32 36 84 31 35 82 23 26 67 23 26 67 25 30 72 27 30 73 30 34 82 37 42 100 38 43 101 44 47 114 43 48 114 44 48 112 44 48 112 42 46 109 39 42 95 39 42 95 25 28 71 26 29 72 23 27 65 22 26 64 25 28 69 31 37 87 30 36 88 42 46 107 45 47 108 44 48 111 44 50 112 44 48 112 39 43 106 38 42 103 32 35 90 29 32 83 28 30 78 22 26 64 23 25 63 26 30 77 27 29 77 33 38 93 37 42 100 39 43 104 44 49 115 44 49 115 41 45 106 40 44 107 37 42 97 37 39 90 34 38 86 24 27 70 24 27 70 24 27 68 23 26 67 28 31 76 35 38 91 35 38 93 41 45 109 41 45 109 43 47 111 43 47 111 
43 48 106 48 52 116 50 53 120 47 51 114 46 50 113 44 48 109 38 42 90 37 41 88 26 29 70 22 26 64 21 25 62 23 26 67 23 26 67 38 41 94 38 41 94 42 46 109 43 51 116 45 50 116 46 51 117 48 52 116 43 47 108 43 47 108 36 39 92 29 33 80 27 31 78 20 24 59 19 23 58 26 29 72 26 30 77 33 36 89 40 44 107 41 45 106 44 49 113 45 50 114 45 50 116 42 50 113 43 47 110 39 42 97 39 42 95 24 27 70 22 25 66 23 25 64 22 24 63 24 26 67 35 38 93 35 37 94 44 46 107 45 49 112 46 50 113 45 50 116 46 51 117 40 44 107 40 44 107 33 36 89 28 32 79 26 29 74 21 24 59 20 24 59 29 31 79 27 31 78 34 39 95 36 44 106 39 44 108 43 48 114 44 49 115 45 46 111 43 46 113 37 42 100 34 37 92 33 36 89 20 25 63 22 26 64 23 25 64 24 26 65 29 30 76 36 42 94 39 42 95 43 47 111 43 47 111 45 48 117 44 49 115 46 50 114 39 44 100 40 45 101 27 31 76 26 29 72 22 26 64 20 23 58 20 24 61 29 31 80 28 32 80 37 42 100 39 43 106 42 46 109 45 48 115 45 50 116 38 44 106 40 44 107 34 37 92 31 33 82 
43 48 106 47 51 115 48 52 116 47 51 114 46 50 111 45 50 108 37 41 89 37 39 88 26 29 70 22 24 62 22 26 64 22 25 66 24 26 67 38 41 94 38 41 96 41 45 108 44 49 113 44 49 113 46 51 117 47 50 117 44 48 109 45 47 106 37 40 95 30 32 80 28 30 78 20 23 58 21 24 59 27 30 75 28 32 79 33 36 87 39 43 106 40 44 107 45 50 116 47 50 117 45 50 118 43 48 114 41 47 109 38 41 96 38 41 96 24 27 70 21 25 63 23 25 64 22 24 63 24 27 68 33 35 92 34 36 93 42 46 109 46 50 111 46 50 113 46 51 117 45 50 116 40 44 107 39 43 106 33 36 87 29 30 76 27 28 74 20 23 58 20 23 58 27 31 78 29 31 79 36 38 95 38 42 105 41 45 108 46 49 116 44 49 115 44 47 114 43 48 112 37 41 102 32 37 92 32 35 88 21 27 63 22 24 63 25 24 64 22 24 65 28 31 76 35 40 95 36 42 92 44 47 116 43 47 111 46 47 112 43 48 114 44 48 112 38 43 98 42 44 101 28 31 76 26 29 72 24 26 64 19 22 57 20 24 61 29 33 81 27 33 81 37 41 102 40 44 107 41 45 109 45 48 117 44 49 115 39 43 106 39 45 107 34 37 90 30 32 81 
45 49 113 40 45 103 43 45 102 35 38 89 30 33 76 29 32 77 25 28 69 26 29 70 31 34 79 34 36 84 35 39 87 40 45 101 41 44 99 44 50 110 46 50 113 45 49 113 43 47 108 42 47 105 35 38 93 33 38 93 27 32 74 28 30 71 25 30 72 26 30 75 27 32 74 35 36 90 35 38 89 38 43 101 40 44 108 41 47 109 46 49 116 44 47 114 39 43 104 38 42 105 34 37 92 29 33 80 28 30 78 25 28 69 25 29 67 30 33 76 32 35 80 36 38 89 39 41 100 39 44 102 43 49 111 42 46 109 43 48 106 44 48 109 42 44 105 35 38 91 34 39 94 26 29 70 27 29 70 25 28 71 25 28 71 27 31 76 34 37 90 34 37 90 39 45 105 40 44 105 42 47 111 43 47 111 42 46 110 38 42 103 38 42 103 30 32 81 28 30 78 26 29 72 25 28 71 25 26 70 30 32 81 29 33 81 36 38 95 40 42 101 40 44 105 42 46 109 42 48 110 40 44 107 43 44 108 36 38 95 33 36 89 30 34 82 23 28 68 24 27 68 26 27 71 26 29 74 30 34 82 32 37 92 34 39 97 40 46 108 39 45 107 41 46 110 42 46 110 40 44 107 35 40 96 36 38 95 25 26 70 23 28 66 20 23 58 15 20 52 
45 50 116 38 43 98 39 42 97 30 34 81 22 25 66 24 28 66 22 24 63 22 24 63 33 35 83 38 42 89 40 43 96 45 49 110 48 50 111 48 51 118 46 51 117 45 49 112 46 48 107 42 44 101 31 35 83 30 34 82 22 24 62 21 24 59 24 26 65 26 29 72 29 32 77 40 42 99 42 44 101 44 50 112 46 49 116 46 51 115 45 50 114 45 50 116 36 40 101 37 42 100 30 32 81 24 27 68 23 26 67 21 23 61 21 24 59 34 37 82 34 36 84 39 41 98 43 47 111 43 47 111 45 50 116 45 50 116 46 48 109 44 49 107 39 41 98 31 34 85 28 34 84 21 24 59 20 23 56 23 27 65 25 28 71 28 32 79 35 41 101 39 41 100 46 50 114 44 49 115 45 48 115 44 49 115 41 46 112 36 41 99 36 41 97 25 28 73 23 26 67 22 25 66 20 22 60 20 23 64 32 35 86 32 35 90 40 44 107 43 47 111 44 48 112 44 49 115 44 49 115 40 44 107 40 44 107 33 36 89 29 31 80 26 29 74 19 22 57 18 22 57 25 28 73 26 29 74 33 36 89 37 41 102 39 43 104 44 49 115 45 48 117 45 46 111 43 47 111 41 43 104 33 36 89 34 37 92 19 23 58 19 22 57 14 18 47 10 14 43 
39 41 100 33 35 84 31 35 82 30 33 78 27 30 75 29 30 74 31 33 81 31 33 81 38 41 94 42 45 100 44 46 105 45 49 110 45 49 112 42 46 109 44 45 109 38 41 94 36 38 89 34 38 86 27 31 78 28 30 78 28 31 74 27 30 71 31 35 80 34 37 88 34 37 90 42 46 107 42 46 107 43 47 108 44 50 112 40 46 106 38 43 101 38 43 99 31 34 85 30 33 84 29 31 79 26 29 74 28 31 76 30 33 76 30 33 76 39 42 95 39 42 97 41 46 104 44 48 112 43 47 111 43 44 108 41 45 108 35 41 93 36 39 90 32 35 86 29 32 77 27 31 76 27 30 73 27 30 71 32 34 82 35 37 86 34 37 92 40 44 107 39 44 108 43 47 110 43 49 109 41 43 102 37 42 100 37 40 95 32 34 85 32 34 85 26 29 74 26 29 74 27 29 77 29 33 81 30 34 82 38 41 96 38 41 96 40 44 105 42 46 110 41 45 109 38 42 103 38 44 104 32 35 86 33 36 87 29 33 81 27 30 75 26 30 75 26 29 70 25 28 71 32 35 86 32 35 86 37 39 98 39 43 106 40 44 107 41 47 109 41 45 106 37 39 96 36 39 94 33 36 89 24 28 75 26 29 74 17 17 51 17 20 51 12 16 43 12 13 41 
23 26 67 22 24 62 21 24 57 28 32 70 33 37 85 36 38 87 45 49 112 47 49 110 48 52 116 47 51 115 46 50 114 46 50 113 46 50 113 33 36 87 33 36 91 24 27 70 19 23 60 21 25 63 23 26 67 23 26 67 37 40 93 37 40 93 40 46 104 44 49 113 44 49 115 45 50 116 44 49 115 41 46 104 42 43 99 35 38 89 26 29 74 26 28 76 19 23 58 21 23 61 27 30 75 29 33 81 30 36 86 45 47 106 45 47 106 45 51 113 45 50 116 46 50 114 45 49 112 44 48 109 34 37 90 33 36 89 23 26 67 23 22 62 22 24 62 23 25 64 22 26 64 38 41 96 37 40 93 42 47 103 47 48 112 45 49 112 44 49 113 45 50 116 41 43 100 41 44 99 31 33 82 25 29 74 25 28 69 20 23 58 22 25 60 29 31 79 29 33 81 33 38 93 42 43 107 40 44 107 46 49 116 44 49 115 41 46 110 41 45 109 37 41 102 32 35 88 31 34 85 20 22 60 21 24 59 22 26 64 23 26 67 26 30 75 34 39 97 36 38 95 43 47 111 43 47 111 42 47 111 43 48 112 41 46 110 34 39 97 35 40 96 25 30 72 22 26 64 17 23 55 11 17 43 12 16 45 12 14 39 10 15 37 9 13 40 10 14 41 
24 27 70 20 24 59 21 24 55 28 30 71 34 36 84 37 39 87 46 50 113 45 49 110 47 51 115 47 50 117 47 51 115 45 49 110 45 49 110 33 36 89 35 36 92 25 28 73 21 23 62 22 24 65 23 28 66 23 26 67 36 39 90 38 41 96 41 46 104 44 49 113 44 49 115 45 50 116 45 50 116 42 44 103 41 44 99 35 38 89 27 30 75 25 30 72 20 24 59 20 23 58 26 29 72 30 32 80 34 35 89 45 47 106 46 48 109 45 50 116 45 50 114 45 51 113 47 49 110 43 47 108 33 36 89 33 36 91 23 28 68 21 23 61 21 25 63 23 25 64 22 25 66 38 41 96 38 41 92 41 46 104 46 50 111 47 48 112 46 49 116 42 50 115 39 44 100 40 42 101 30 34 82 27 30 73 25 27 68 21 24 59 20 23 58 28 30 78 30 32 81 35 38 93 39 43 106 41 45 108 44 49 115 45 48 115 41 46 110 42 46 110 38 43 101 32 36 84 33 35 86 20 25 57 20 23 58 21 25 63 23 26 67 26 30 75 35 40 96 34 39 97 42 46 110 43 47 111 43 47 111 43 47 111 42 46 109 35 40 96 34 39 95 25 30 72 21 24 65 19 22 57 12 16 45 13 17 44 12 13 41 11 13 38 12 13 41 12 13 41 
27 33 81 44 46 105 43 48 106 45 49 113 47 52 116 46 51 117 45 49 110 45 49 110 38 43 98 36 42 94 32 36 84 23 25 64 22 26 64 22 24 63 20 24 62 31 33 82 35 37 94 35 42 97 48 49 113 45 49 110 45 50 114 47 51 115 45 49 112 43 48 106 44 46 105 29 33 81 30 32 81 22 26 64 20 23 58 23 25 63 26 28 76 25 29 74 41 43 100 41 43 100 43 47 110 45 50 118 45 48 115 44 49 115 45 50 116 37 42 97 37 40 93 30 34 81 22 27 67 23 26 67 21 23 62 21 23 62 30 33 84 33 36 89 38 40 97 43 47 111 46 47 112 45 50 116 45 50 116 42 46 110 40 44 107 38 40 99 29 31 79 28 30 79 19 22 57 20 22 60 24 27 68 26 29 74 30 33 84 37 41 102 38 42 105 43 48 112 44 49 115 43 48 114 43 47 111 42 46 110 36 37 93 34 37 92 24 27 70 21 25 62 21 25 63 22 24 62 20 24 61 33 36 89 33 36 89 41 43 104 43 47 111 43 47 111 44 49 115 42 50 115 39 43 104 38 42 105 34 35 89 26 29 72 24 27 70 13 16 47 12 17 46 11 15 42 10 14 39 10 14 41 10 14 41 11 15 40 10 14 41 11 15 42 11 15 42 10 14 41 
30 34 82 42 47 105 43 48 106 46 50 113 46 51 115 43 51 114 45 49 110 45 49 112 40 42 99 38 40 97 32 36 83 22 25 66 23 25 64 22 24 62 21 25 62 29 33 81 34 36 93 38 38 98 46 50 113 45 49 110 47 51 115 47 50 117 45 49 112 43 48 106 44 46 105 29 33 81 30 32 80 21 25 63 21 24 57 22 24 63 26 30 75 26 30 77 40 42 99 40 42 99 45 46 110 45 50 116 45 50 116 43 48 114 44 49 113 39 42 97 38 41 94 30 34 81 23 25 66 23 27 65 20 24 62 21 23 61 30 33 84 33 36 91 37 39 96 43 47 111 42 46 110 45 50 116 45 50 116 41 46 110 40 44 107 36 41 99 29 31 79 29 31 79 19 22 57 19 22 57 24 26 67 26 29 74 30 34 82 39 43 106 38 42 105 43 48 114 44 49 115 46 47 112 42 47 111 42 45 112 33 38 93 36 37 93 24 27 72 22 24 63 22 24 62 21 23 62 21 23 61 33 36 89 33 36 89 41 43 104 43 47 111 43 46 113 45 49 113 42 50 113 38 42 103 39 43 104 33 36 89 26 29 72 24 27 70 14 18 47 14 18 47 11 15 42 10 14 39 11 15 42 10 14 41 11 15 42 10 14 41 10 14 41 10 14 41 12 13 41 
41 43 102 44 48 109 45 49 113 43 47 108 45 47 104 41 46 101 31 35 83 32 36 84 28 31 74 26 29 70 28 31 76 30 33 76 31 34 77 37 40 93 36 39 92 39 44 102 42 46 107 41 47 107 44 49 113 46 48 109 38 43 98 38 43 98 35 37 86 30 31 75 29 32 77 25 30 72 26 29 74 30 34 82 30 34 82 35 36 90 38 43 101 37 42 98 44 48 111 44 48 111 43 47 108 41 46 104 38 43 99 33 36 87 33 36 87 27 30 73 27 30 71 27 30 73 27 31 78 28 30 78 36 39 92 36 37 91 40 42 101 41 45 106 42 46 107 43 46 113 43 47 111 36 41 97 37 39 96 31 35 83 29 32 77 27 31 76 24 29 71 23 27 72 31 33 82 31 35 83 35 38 93 36 41 99 38 43 101 43 47 111 43 47 111 40 44 105 39 45 107 36 38 95 33 35 86 32 34 83 24 29 71 25 28 71 28 30 78 27 30 73 29 33 81 33 36 91 34 37 92 39 45 105 40 44 105 41 45 108 41 45 109 38 42 103 34 39 94 34 39 94 26 29 74 26 29 72 22 24 63 17 20 53 16 19 50 10 16 42 11 15 42 10 14 41 10 14 39 11 15 40 10 14 41 9 13 40 10 14 41 10 14 41 10 14 39 11 16 38 
47 51 115 45 50 116 46 49 116 43 48 106 42 44 95 40 42 91 23 26 69 23 26 67 21 25 62 20 23 58 26 30 68 33 37 84 34 38 85 47 49 110 46 50 113 46 50 114 47 50 117 46 52 114 45 49 112 47 48 112 36 38 86 34 36 84 27 30 71 21 24 59 20 24 59 24 27 70 24 26 67 33 38 94 36 41 99 39 43 106 45 50 116 45 50 116 45 50 116 46 49 116 41 46 104 41 43 100 36 39 90 24 29 71 24 29 71 20 24 61 20 25 57 25 27 68 29 33 81 32 35 86 45 47 106 45 47 106 42 50 113 45 50 114 44 49 115 43 47 111 44 45 110 31 34 87 32 35 86 25 28 69 19 22 57 21 23 61 22 25 66 22 25 66 35 40 98 38 40 101 41 44 111 45 49 113 45 49 113 45 49 113 43 48 114 37 41 102 37 42 100 31 34 85 24 27 70 22 25 66 18 22 57 19 22 57 26 29 74 29 32 83 34 36 93 40 44 108 40 44 107 45 49 113 44 49 115 42 46 109 40 44 107 36 41 97 30 34 82 30 32 81 18 21 56 17 20 51 13 17 46 10 14 41 10 14 39 11 15 42 12 14 39 11 15 42 11 15 42 10 14 43 11 15 42 11 15 42 12 13 41 10 14 39 11 15 42 13 14 42 
45 49 113 41 45 106 40 44 105 38 41 96 37 39 87 34 36 84 25 28 71 25 28 69 26 29 70 26 30 68 31 34 79 34 42 91 35 41 91 47 48 112 45 50 108 45 49 112 44 48 109 42 46 107 41 44 99 41 44 99 33 34 80 31 34 79 28 31 72 25 29 67 25 28 69 30 34 81 30 32 80 39 41 98 39 43 104 41 47 109 45 49 113 44 49 113 42 46 110 39 45 105 38 41 96 36 38 89 34 36 85 25 30 72 26 31 73 25 28 69 25 28 71 29 33 80 33 39 91 35 40 95 44 49 107 44 49 107 43 47 110 42 46 109 40 44 107 39 41 100 39 41 100 29 33 81 28 32 80 25 28 69 23 26 67 25 28 71 28 30 78 28 30 78 37 43 103 38 42 103 41 45 108 43 47 111 45 46 111 40 44 105 40 44 105 34 37 90 34 37 90 28 32 79 25 28 71 24 27 68 24 27 68 25 28 71 32 36 84 34 37 90 36 41 99 41 45 109 40 45 109 40 44 107 41 45 108 39 41 100 36 38 95 30 36 88 25 28 71 25 28 71 16 19 52 15 18 49 12 16 45 10 14 41 11 15 42 10 14 41 10 14 41 10 14 41 10 14 41 11 15 42 11 15 42 10 14 41 11 15 42 12 16 43 11 15 42 9 13 40 
41 44 99 27 30 75 25 30 72 24 26 65 20 23 58 22 25 60 29 31 79 30 34 82 41 43 100 43 48 106 45 49 112 45 50 114 46 51 115 45 49 112 45 49 110 41 44 97 37 41 88 33 35 83 22 24 62 23 25 64 22 25 66 22 26 64 31 34 79 37 40 93 39 42 95 47 49 110 44 50 110 45 49 113 45 50 118 43 48 112 40 44 107 39 43 106 27 31 76 27 29 77 22 26 64 19 22 57 21 25 62 28 30 78 27 30 75 37 41 102 39 43 106 43 47 111 45 50 114 45 51 113 48 48 110 48 50 111 37 39 96 35 38 93 30 34 82 22 24 63 21 23 62 21 25 63 21 25 63 29 31 80 32 37 92 38 40 97 42 46 110 40 48 110 44 49 115 45 49 113 41 45 109 39 43 106 37 39 98 27 31 78 26 30 75 20 23 58 19 22 55 21 25 63 27 30 75 28 30 78 38 42 103 38 42 103 42 47 111 44 49 113 44 49 113 42 46 110 43 46 113 32 35 88 32 35 88 23 26 67 19 22 57 16 20 55 10 14 41 10 14 41 11 15 40 10 14 39 10 14 41 10 14 41 11 15 42 11 15 42 10 14 41 10 14 41 10 14 41 10 14 41 10 14 41 10 14 41 10 14 41 10 14 41 10 14 41 10 14 41 
41 43 100 27 31 76 27 30 73 24 26 65 21 24 59 22 24 62 30 32 81 28 32 80 40 43 98 45 47 106 44 48 111 48 51 118 46 49 116 47 49 110 45 49 112 39 45 97 37 41 89 34 37 82 20 24 62 22 24 63 22 24 65 22 26 64 30 32 80 36 42 94 39 42 97 46 50 113 45 51 111 45 50 114 45 50 116 43 47 111 39 43 104 40 44 105 28 30 78 28 31 76 23 25 64 19 22 55 20 24 62 28 31 76 28 30 79 37 42 100 39 43 104 41 46 110 46 49 116 46 50 114 45 49 110 45 49 110 38 40 97 34 37 92 26 32 82 20 24 62 22 24 63 21 25 63 22 26 64 29 31 80 34 37 90 37 39 98 45 46 111 43 46 113 44 49 115 44 49 115 40 46 108 40 42 103 37 39 98 27 28 74 28 31 76 20 23 56 18 23 55 22 26 64 25 29 74 29 31 80 38 42 103 38 42 105 42 47 111 44 49 115 43 48 112 41 45 109 41 45 109 32 35 88 32 35 88 23 26 67 19 22 57 16 21 53 11 15 42 9 13 40 10 14 41 10 14 41 9 13 40 10 14 41 10 14 41 11 15 42 10 14 41 11 15 40 12 16 43 10 14 41 10 14 41 11 15 42 10 14 41 11 15 42 10 14 41 11 15 42 
21 23 61 29 31 72 29 32 77 33 36 87 37 42 100 40 42 101 45 49 112 45 49 112 45 49 113 45 49 113 43 47 108 39 42 95 40 43 98 25 28 71 26 29 72 23 26 67 22 24 62 24 27 68 32 34 85 31 33 84 42 44 101 42 47 103 44 48 111 46 50 113 44 50 112 46 48 107 43 47 108 35 38 91 30 36 86 29 31 79 24 28 66 22 26 64 24 27 68 24 27 70 32 35 86 36 38 95 35 40 96 43 47 110 43 47 110 43 48 112 41 49 112 40 46 108 37 42 100 34 39 95 28 29 73 26 30 75 22 26 64 21 25 62 24 27 70 29 32 83 28 32 79 39 43 104 38 42 105 40 46 108 44 48 112 42 47 111 38 46 109 41 45 109 30 36 86 31 37 87 26 29 72 24 24 62 22 26 63 23 26 67 23 26 67 32 35 90 33 38 94 38 43 101 42 48 110 42 46 109 41 46 110 45 46 110 38 43 98 39 42 95 34 37 88 23 26 69 24 27 72 14 17 48 14 18 47 12 16 43 13 14 42 11 15 42 10 14 41 11 12 40 10 14 41 11 15 42 10 14 41 11 15 42 11 15 42 11 15 42 11 15 42 11 15 42 11 15 42 10 14 41 10 14 41 10 14 41 10 14 41 10 14 41 10 14 41 11 15 42 
18 21 56 29 31 72 30 32 71 36 37 91 40 44 107 41 45 108 47 51 115 47 50 117 45 50 114 45 49 113 42 46 107 36 42 94 38 41 94 22 25 66 22 26 64 21 25 62 20 23 58 23 27 65 32 35 88 32 35 86 46 48 107 45 49 110 46 50 113 46 51 117 45 49 113 46 48 107 45 47 104 33 36 89 30 34 82 27 30 75 20 22 60 20 23 58 25 26 70 23 26 67 33 36 89 36 41 99 39 43 104 44 49 115 44 49 113 44 49 113 44 47 114 39 45 107 36 41 99 36 37 93 25 28 71 24 27 70 20 23 58 19 22 57 24 27 68 30 33 84 31 34 85 41 45 109 41 45 109 44 49 115 44 49 115 44 49 113 40 45 109 40 44 108 30 34 82 31 34 85 24 28 66 19 22 57 20 22 60 23 26 67 23 25 66 35 38 93 37 39 98 40 44 107 45 49 113 43 47 111 43 47 111 43 47 110 39 42 97 38 41 94 31 35 83 21 25 63 22 26 64 12 16 43 12 16 43 13 15 40 12 14 39 10 14 41 10 16 40 10 14 41 10 14 39 10 14 41 11 15 42 11 15 42 10 14 41 10 14 41 11 15 42 10 14 41 10 14 41 10 14 41 10 14 41 10 14 41 10 14 41 10 14 41 10 14 41 10 14 41 
30 33 78 34 40 90 38 41 94 39 43 104 43 47 111 43 47 111 43 47 108 43 48 106 36 41 96 35 38 93 33 37 85 28 33 75 28 31 76 26 29 74 26 29 72 30 33 78 33 35 83 33 37 85 39 43 104 38 43 101 43 47 108 44 48 109 42 46 107 41 43 104 39 44 102 32 36 83 33 35 84 27 32 74 26 29 74 28 31 74 30 33 76 29 33 78 37 36 93 35 38 93 40 42 99 42 46 109 40 46 108 41 45 108 41 46 110 36 41 97 36 39 94 32 35 86 28 30 78 28 31 76 25 30 70 26 31 73 28 32 79 29 33 81 32 35 88 37 42 98 36 41 97 42 46 109 42 46 110 40 44 105 40 42 101 38 40 99 30 33 84 30 34 82 26 27 71 25 29 74 26 29 74 26 29 72 28 31 76 33 36 87 33 36 89 39 43 104 40 44 107 41 45 106 41 45 106 40 44 105 34 37 90 32 38 90 28 31 74 25 28 69 22 26 63 16 19 52 16 19 52 11 15 40 11 15 42 13 15 40 12 13 41 10 14 41 9 13 40 11 15 42 11 15 42 10 14 41 11 15 42 11 15 42 10 14 41 10 14 41 11 15 40 10 14 39 10 14 41 11 15 42 11 15 42 10 14 41 11 15 42 10 14 41 11 15 42 10 14 41 
41 44 99 45 48 115 45 50 116 44 49 113 46 49 116 44 49 113 40 42 99 40 42 99 28 32 79 25 28 71 23 25 64 20 23 56 19 22 55 30 32 81 28 32 79 39 42 97 42 47 105 44 48 109 46 51 115 47 51 115 48 49 113 46 50 111 39 41 100 34 36 87 30 33 86 22 24 63 21 23 62 21 25 63 21 25 62 27 30 75 36 42 94 38 41 92 44 48 109 47 48 112 44 49 113 45 48 115 43 48 112 37 41 102 38 42 103 29 31 79 26 29 74 22 26 64 21 21 57 20 24 61 28 31 76 27 29 77 38 40 99 39 43 106 41 45 109 44 49 117 44 49 113 41 47 109 45 46 111 37 39 96 34 37 90 30 32 81 20 22 60 21 23 62 21 23 61 21 23 61 30 32 81 34 37 90 37 39 96 42 47 111 42 46 110 45 50 114 43 48 114 41 47 107 38 43 98 39 42 95 24 29 71 25 28 73 16 19 50 14 18 45 13 17 44 11 12 40 10 14 39 10 14 43 9 13 40 11 15 42 10 14 41 11 15 40 9 13 40 10 14 41 10 14 41 10 14 41 10 14 41 10 14 41 10 14 41 10 14 41 10 14 41 10 14 41 10 14 41 10 14 41 10 14 41 10 14 41 10 14 41 10 14 41 10 14 41 10 14 41 
40 45 101 43 47 111 43 48 114 43 48 112 43 47 110 42 48 108 38 41 94 39 40 94 29 32 77 25 28 71 24 27 68 20 24 62 21 25 62 30 33 84 31 34 85 37 42 97 45 47 106 43 47 108 44 49 115 45 50 114 44 46 105 43 45 104 38 41 96 31 34 85 30 34 82 23 25 66 22 25 66 24 27 70 23 26 67 28 32 77 39 42 97 39 42 97 45 50 108 45 49 110 44 48 112 43 48 112 41 45 109 37 39 96 35 40 98 27 31 76 26 30 75 24 26 67 21 25 63 22 24 63 30 34 82 30 34 82 37 42 100 42 43 107 40 44 107 43 47 111 43 47 111 42 44 105 40 44 105 34 36 93 31 33 84 29 33 81 22 26 64 22 26 64 23 26 67 22 27 67 31 34 85 36 39 94 37 39 96 42 46 110 42 46 110 42 46 109 42 48 110 39 44 100 37 40 93 36 38 89 23 27 65 23 27 65 16 19 52 13 17 44 12 16 41 12 14 39 10 14 43 11 15 42 12 14 39 13 14 42 10 14 39 10 14 41 10 14 41 10 14 41 11 15 42 11 15 42 10 14 41 10 14 41 10 14 41 10 14 41 10 14 41 10 14 39 10 14 41 10 14 41 10 14 41 11 15 42 10 14 41 10 14 41 10 14 41 11 15 42 
46 51 115 40 44 107 41 43 104 34 37 90 26 30 77 26 29 74 19 22 55 19 21 59 25 28 71 28 29 73 33 35 86 39 43 104 39 43 106 44 50 112 45 49 113 44 49 113 43 48 114 40 46 108 36 42 94 38 39 93 23 26 69 21 25 63 21 25 63 21 24 59 22 26 64 30 36 88 32 35 86 40 44 107 43 47 111 43 47 111 45 48 115 45 50 114 45 47 104 45 47 106 35 38 91 28 32 79 26 30 75 19 22 55 18 22 57 23 26 67 24 27 68 30 33 86 37 39 98 37 42 100 44 48 112 44 47 114 44 48 112 44 49 113 41 47 109 35 40 98 38 40 97 23 26 67 23 26 67 21 23 61 19 22 57 22 26 63 30 33 84 31 35 83 42 46 110 37 45 108 43 47 111 44 48 112 42 47 111 39 43 106 39 43 106 30 34 82 28 30 81 22 26 64 17 18 49 17 18 48 10 14 39 10 14 41 10 14 41 10 14 41 10 14 41 12 13 41 10 14 41 10 14 41 10 14 41 10 14 41 10 14 41 10 14 41 11 15 42 10 14 41 10 14 41 10 14 41 10 14 41 10 14 41 10 14 41 10 14 41 10 14 41 10 14 39 12 13 41 12 13 41 12 13 41 11 15 42 10 14 41 10 14 41 11 15 42 11 15 42 
46 51 115 40 44 107 39 43 106 35 38 91 27 30 75 27 29 77 19 23 58 19 22 57 25 28 71 26 29 74 31 34 85 39 43 106 39 43 106 45 50 116 45 50 114 44 49 113 44 47 114 42 46 110 35 41 93 38 41 96 24 27 70 22 26 64 21 23 61 21 24 59 22 24 62 32 35 88 32 35 88 39 43 104 42 46 110 43 47 110 45 50 116 45 50 116 43 48 104 46 48 105 35 38 93 28 32 80 25 29 74 19 22 55 19 22 57 23 27 65 24 27 70 31 34 85 36 41 99 37 43 101 44 49 113 43 48 114 45 48 115 44 48 112 43 44 108 37 39 96 35 40 98 23 26 67 22 25 66 21 23 61 18 21 54 21 25 63 30 34 82 32 36 84 39 44 108 40 44 108 43 47 111 45 48 115 43 49 111 39 43 106 39 43 106 29 32 83 28 30 78 21 24 65 15 18 49 15 19 48 10 14 43 10 14 43 10 14 41 10 14 41 10 14 39 13 14 42 10 14 41 11 15 42 10 14 41 10 14 41 10 14 41 10 14 41 10 14 41 10 14 41 10 14 41 10 14 41 10 14 41 10 14 41 10 14 41 10 14 41 10 14 41 10 14 41 11 15 42 11 15 42 10 14 41 10 14 41 11 15 42 11 15 40 10 14 41 10 14 41 
34 37 90 25 28 71 24 27 68 24 27 68 25 28 71 26 29 70 36 38 89 35 39 86 38 43 101 42 44 105 41 45 108 44 48 112 42 48 110 43 45 104 43 45 102 34 37 88 30 32 80 28 31 76 23 27 65 25 27 65 26 29 74 28 31 76 33 37 85 37 43 95 37 43 95 41 45 108 43 47 110 42 46 109 43 47 111 39 43 106 36 39 94 36 39 94 26 29 70 27 30 71 24 27 68 24 26 67 25 30 72 33 37 85 33 37 85 38 44 96 40 42 99 41 45 106 43 46 113 43 47 110 42 44 103 42 44 103 34 37 92 30 32 80 29 32 77 22 27 67 23 27 65 27 28 72 26 29 74 31 35 82 35 38 93 34 39 95 41 45 106 38 42 105 43 47 111 42 46 109 38 43 101 37 39 96 33 36 87 23 26 67 23 26 67 16 19 52 15 18 49 13 17 46 14 15 45 14 16 41 13 14 42 10 14 41 10 14 41 11 15 42 10 14 39 9 15 39 10 14 39 11 15 42 10 14 41 10 14 39 10 14 41 10 14 41 10 14 41 10 14 41 10 14 39 11 15 40 10 14 41 11 15 42 9 13 40 10 14 41 10 14 41 11 15 42 10 14 41 10 14 41 10 14 39 10 14 41 10 14 39 10 14 41 10 14 41 10 14 39 
30 32 80 20 24 59 18 21 56 20 24 61 24 27 68 27 30 73 40 43 98 40 42 101 40 48 110 45 49 113 44 49 115 45 49 113 45 50 114 40 42 99 40 42 99 31 33 81 24 27 68 23 26 69 18 23 55 19 22 57 28 32 79 29 31 80 37 40 93 45 47 104 45 47 106 44 49 115 45 48 115 41 47 109 41 47 109 38 43 101 32 35 88 32 35 86 20 23 56 21 24 59 22 24 63 20 25 63 25 28 69 38 41 94 37 40 93 43 48 106 47 49 110 44 49 113 44 49 113 44 48 111 41 43 100 41 43 100 30 33 78 26 29 72 22 27 65 19 22 55 19 22 55 27 31 76 27 29 77 33 38 93 40 41 105 39 45 107 44 48 112 45 50 114 42 47 111 42 46 110 37 39 96 32 35 86 28 32 80 17 22 54 17 22 54 11 15 42 12 14 39 12 14 39 13 15 38 13 15 38 12 14 39 10 14 41 9 13 42 10 14 41 12 13 41 12 13 41 10 14 41 10 14 39 10 14 41 10 14 41 10 14 41 10 14 39 11 15 42 10 14 41 10 14 41 10 14 41 10 14 41 11 15 42 11 15 42 10 14 41 10 14 41 10 14 41 11 15 44 10 13 44 10 14 43 11 15 42 10 14 41 10 14 41 10 14 41 11 15 40 
26 28 76 26 29 70 25 28 69 28 32 77 31 34 85 30 36 88 41 46 104 41 46 104 43 47 110 43 47 110 41 45 108 39 41 100 39 41 102 32 35 80 32 34 82 28 31 76 24 29 71 26 29 72 27 30 75 25 29 74 34 37 90 36 39 94 38 43 99 45 47 106 45 47 108 42 46 107 41 46 104 37 40 95 35 38 93 32 35 86 28 31 76 29 32 77 25 29 67 26 28 69 28 31 76 32 34 83 33 36 87 39 44 100 41 43 104 44 49 107 44 48 111 40 45 103 38 42 103 37 42 98 32 35 80 33 35 83 27 30 75 25 28 69 24 27 68 26 29 70 24 29 71 32 38 88 34 37 90 38 40 101 39 43 106 40 44 105 44 45 109 41 45 106 33 38 93 35 38 93 28 30 78 24 27 70 23 26 67 16 20 49 16 19 50 14 16 41 12 14 39 13 15 40 13 15 38 13 15 40 11 15 40 11 15 40 11 15 42 11 15 40 11 15 42 10 14 41 10 14 41 10 14 39 10 14 41 10 14 41 10 14 41 10 14 39 11 15 42 10 14 41 11 15 44 10 14 39 10 14 39 10 14 41 10 14 41 10 14 39 10 14 39 11 15 42 10 14 39 10 14 41 10 14 39 10 14 41 10 14 41 11 15 40 10 14 39 10 14 39 
21 25 63 36 40 88 37 40 93 39 45 103 45 48 115 45 49 113 47 51 115 46 49 116 41 45 108 41 42 107 35 38 93 26 29 74 28 31 76 18 21 54 18 21 54 24 26 67 26 28 76 30 34 81 38 42 105 38 42 103 43 48 112 45 50 114 46 50 113 46 48 109 45 47 108 38 41 94 39 42 95 25 28 69 21 25 63 21 23 61 19 23 58 20 23 56 32 35 86 32 35 86 38 42 103 42 46 110 43 46 113 44 50 112 44 49 113 43 47 108 42 47 105 38 39 93 29 33 80 29 32 77 17 22 54 18 21 54 23 27 64 22 26 64 28 30 78 38 40 97 38 40 99 43 48 112 44 48 112 41 49 112 42 47 111 40 46 108 37 40 93 38 39 93 22 24 63 21 23 62 15 18 49 14 15 43 13 14 42 8 14 38 9 15 41 12 14 37 14 14 38 13 15 40 14 16 41 13 15 40 14 16 41 12 14 37 11 15 42 11 15 42 11 15 42 10 14 39 10 14 39 11 15 42 10 14 41 10 14 39 10 14 41 10 14 41 10 14 41 10 14 41 10 14 41 10 14 41 10 14 41 11 15 42 10 14 41 10 14 43 9 13 40 11 15 42 12 14 39 12 14 39 13 15 40 13 14 44 10 14 39 10 14 39 8 12 39 11 15 42 
23 25 64 36 39 90 38 41 94 41 46 104 44 48 112 45 49 113 46 49 116 46 51 115 41 45 108 39 43 104 33 38 94 27 31 78 27 29 77 18 21 54 19 22 53 23 27 65 25 28 73 29 33 78 38 42 105 37 41 102 45 49 113 44 49 113 45 49 112 45 49 110 43 49 109 37 40 93 38 41 94 26 28 69 21 23 61 21 23 61 21 24 59 21 24 59 32 35 86 32 35 86 38 42 103 43 47 111 43 47 111 45 49 113 45 50 116 45 47 108 45 47 106 37 40 93 28 32 80 27 31 78 21 22 53 18 21 54 21 25 62 23 26 67 29 33 80 37 42 100 35 40 98 44 47 114 44 48 112 43 46 113 42 46 109 40 44 105 38 41 92 39 42 95 21 23 62 22 24 63 18 19 49 14 16 41 13 15 40 9 13 40 10 14 39 13 15 40 13 15 38 13 15 40 13 15 40 12 14 37 13 15 40 13 15 36 13 15 40 13 15 40 10 14 41 10 14 39 10 14 41 11 15 42 10 14 41 10 14 41 10 14 41 10 14 41 10 14 41 10 14 41 10 14 41 10 14 41 10 14 41 11 15 40 10 14 39 10 14 41 10 14 41 10 14 41 12 13 41 12 13 41 12 13 41 12 13 41 9 13 40 10 14 39 10 14 39 10 14 39 
45 49 110 46 50 114 46 50 114 45 49 110 44 46 105 43 45 102 29 33 81 30 34 82 23 25 66 19 24 56 20 24 61 24 27 68 25 26 70 36 41 99 36 41 99 41 47 107 42 50 113 43 48 112 45 48 115 44 49 115 41 44 99 41 44 99 33 35 84 24 25 69 23 27 65 19 22 55 18 23 55 27 30 73 29 33 81 35 38 91 44 46 105 42 47 105 46 50 114 46 50 114 44 47 114 40 45 109 39 43 104 32 35 86 32 35 88 21 27 63 19 23 58 21 24 59 19 23 60 21 25 63 34 37 92 34 37 90 39 43 107 42 46 110 43 47 110 43 48 114 43 48 114 36 41 99 36 41 99 31 33 82 25 28 71 22 24 63 13 17 44 13 17 44 12 14 39 12 14 39 12 14 39 12 13 41 12 14 39 10 14 41 10 14 41 13 15 38 13 15 40 13 15 40 13 15 38 13 15 38 11 12 40 10 15 37 10 14 39 10 14 39 10 14 43 10 14 41 10 14 41 10 14 41 10 14 41 10 14 41 10 14 41 10 14 41 11 15 42 10 14 41 10 14 41 10 14 41 10 14 41 10 14 41 10 14 41 10 14 41 10 14 41 10 14 41 11 15 40 9 13 38 10 14 39 10 14 41 13 18 47 12 17 47 22 26 64 26 29 74 
44 48 109 46 50 113 47 50 117 46 48 109 42 47 103 43 45 102 31 32 80 31 33 84 21 25 63 19 22 57 21 23 62 24 27 68 24 27 70 36 41 97 36 41 99 41 47 109 44 49 115 46 50 114 45 50 114 45 49 113 42 44 101 41 44 99 31 35 83 24 27 70 23 26 67 17 22 54 17 22 54 25 29 74 28 32 79 35 38 89 43 48 104 41 46 104 45 49 113 45 48 115 43 47 111 41 46 110 41 42 106 32 35 86 32 35 88 22 24 62 19 23 58 20 23 58 22 24 63 22 25 66 35 38 93 34 37 92 40 44 105 42 46 110 43 47 110 43 48 114 43 48 114 35 42 97 35 40 98 30 32 81 23 28 70 22 26 64 13 17 44 13 17 44 10 15 35 11 15 42 12 14 39 10 14 41 10 14 39 10 14 41 12 14 39 12 13 41 14 16 41 14 16 39 11 15 40 13 15 40 9 13 38 12 14 39 10 14 39 12 13 41 10 14 41 12 13 41 10 14 39 10 14 39 10 14 39 10 14 39 10 14 39 10 14 39 10 14 41 10 14 39 10 14 41 10 14 41 10 14 41 11 15 42 12 13 41 10 14 43 10 14 39 10 14 41 10 14 41 10 14 41 10 14 41 10 14 41 12 17 46 12 17 46 21 23 62 26 29 72 
48 50 111 39 41 98 37 39 96 31 33 81 25 29 67 26 28 67 24 26 67 24 26 67 30 32 80 32 36 84 35 38 89 40 45 101 41 43 100 43 47 110 42 46 110 42 46 110 41 45 108 38 42 103 31 34 85 32 36 84 25 29 67 23 27 65 25 29 67 27 28 74 26 29 72 33 39 87 35 39 87 39 44 102 41 45 108 42 46 107 44 48 109 44 48 109 40 42 99 40 43 98 32 36 84 27 30 75 26 27 71 21 25 62 21 25 63 27 30 75 25 32 76 31 34 87 36 38 97 37 42 100 41 45 108 40 48 111 40 44 107 40 44 107 38 40 99 31 34 85 32 35 86 20 24 61 22 24 62 17 19 57 15 18 49 13 17 46 13 15 40 14 16 39 10 14 41 10 14 41 10 14 41 10 14 43 12 14 39 13 15 40 13 15 38 12 17 39 13 15 40 13 15 40 9 13 38 11 15 42 9 13 38 12 14 39 10 14 39 10 14 39 9 13 40 10 14 41 9 13 38 10 14 39 10 14 39 10 14 39 10 14 41 10 14 41 10 14 39 11 15 42 12 13 41 10 14 41 10 14 39 10 14 39 12 16 43 10 15 37 11 13 38 13 14 44 13 17 44 15 19 48 19 22 57 18 22 59 30 34 82 30 33 84 36 38 95 37 42 100 
45 49 112 34 37 90 33 36 89 27 30 75 20 23 58 22 22 58 22 24 65 22 24 62 34 36 85 38 41 96 38 43 99 45 49 110 45 49 110 45 50 114 44 49 115 41 45 109 40 44 107 35 40 98 26 29 74 27 30 75 19 22 57 17 22 54 22 26 64 26 29 72 27 30 73 41 44 99 40 43 98 44 48 111 45 49 113 45 49 113 45 49 110 45 49 112 37 40 93 38 41 94 27 30 75 21 23 62 21 23 61 19 22 55 19 22 55 29 32 77 31 34 85 34 39 95 40 46 108 40 45 109 44 47 114 44 49 113 40 44 107 39 43 104 35 37 94 27 29 77 27 29 77 17 17 51 17 18 48 14 15 45 12 14 39 10 14 39 13 15 40 13 15 36 10 14 41 11 15 40 10 14 41 12 13 41 13 15 40 13 15 38 13 15 40 13 15 40 13 15 40 13 14 42 10 14 39 10 14 39 10 14 39 11 15 40 9 13 38 9 13 38 10 14 39 9 13 38 10 14 39 10 14 39 10 14 39 10 14 39 10 14 41 10 14 41 10 14 41 10 14 41 12 14 39 10 14 41 13 14 42 10 14 39 10 14 41 10 14 39 9 13 40 12 16 43 12 16 45 15 18 51 23 27 65 22 26 64 34 39 97 33 40 95 39 43 104 42 46 110 
37 40 93 29 31 79 28 30 78 27 30 73 26 28 66 26 30 68 30 34 81 30 32 80 38 41 94 42 44 101 42 47 103 46 48 107 45 50 108 38 43 101 38 42 103 35 38 93 29 35 87 31 35 83 26 29 72 26 29 72 25 28 71 26 29 72 29 33 80 34 37 88 34 37 90 40 44 105 39 45 103 42 46 107 43 47 110 40 45 103 37 40 95 37 40 95 31 35 80 28 32 79 26 29 72 23 26 69 25 28 71 27 31 76 28 31 76 35 38 93 34 39 94 37 42 100 39 44 108 40 45 109 40 45 103 40 45 103 34 37 90 32 35 86 29 31 79 20 24 62 22 24 63 17 18 46 17 18 46 12 16 43 10 14 39 10 15 37 11 15 40 14 14 40 10 14 39 10 14 41 12 14 39 12 14 39 13 15 40 13 15 40 13 15 40 13 15 38 12 14 39 12 13 41 9 13 40 10 14 39 9 13 38 10 14 39 10 14 39 10 14 41 10 14 39 10 14 39 9 13 38 10 14 39 10 14 39 10 14 41 10 14 39 10 14 41 10 14 41 11 15 42 13 14 42 10 14 39 12 13 41 10 14 41 10 14 39 15 16 46 14 18 47 18 22 57 21 23 61 23 26 67 30 32 81 31 33 82 37 41 102 38 43 101 39 43 104 39 45 107 
22 24 63 21 24 59 19 24 56 29 31 72 34 37 82 33 39 87 45 49 110 45 49 112 46 50 114 47 51 115 45 49 113 44 46 105 45 47 104 30 32 81 29 33 81 22 26 64 17 21 56 20 22 60 24 26 65 22 25 66 35 37 94 36 41 99 39 43 104 44 48 112 43 48 112 44 48 112 44 48 112 40 45 101 41 44 99 34 36 85 24 27 68 24 27 68 19 22 55 18 21 52 24 26 67 27 29 77 30 34 82 39 43 104 40 44 107 42 47 111 43 48 112 42 46 110 41 45 108 40 44 107 34 36 84 33 37 84 22 24 62 17 22 52 15 19 48 10 14 41 11 15 42 14 16 39 13 15 38 11 15 40 13 13 41 9 15 41 10 14 39 12 13 41 10 14 41 10 14 39 11 15 40 13 15 38 14 16 41 13 15 38 14 16 41 14 14 40 12 14 39 10 14 41 10 14 41 9 13 40 12 14 39 9 13 38 12 14 39 10 15 37 10 14 39 10 14 39 9 14 36 10 14 39 10 14 39 10 14 39 10 14 39 10 14 41 10 14 41 11 15 42 12 13 41 9 13 38 12 13 41 11 15 42 11 15 42 19 22 55 18 21 54 29 31 80 32 35 86 36 38 95 42 46 110 41 45 109 43 48 112 43 48 114 40 44 105 36 41 99 
22 24 62 20 23 58 20 23 56 27 31 69 35 38 83 35 39 86 44 48 109 44 48 109 47 51 114 45 50 118 46 50 113 42 47 103 44 49 105 29 31 80 31 31 81 23 26 67 19 22 55 20 23 58 23 27 65 22 26 64 35 38 93 34 39 95 39 43 104 43 48 112 44 48 112 44 48 112 44 48 112 41 43 102 41 44 99 34 37 90 22 25 66 24 27 68 17 22 54 19 22 53 23 26 67 27 31 78 31 34 85 39 43 104 38 42 105 44 47 114 44 49 115 42 45 112 40 44 108 40 44 105 34 37 82 35 37 85 22 26 61 18 23 53 15 19 48 12 13 41 10 14 41 13 15 40 13 15 38 10 14 39 10 14 41 10 14 39 11 15 40 12 13 41 10 14 41 10 14 39 13 15 40 13 15 36 13 15 38 13 15 38 12 14 39 12 13 41 9 13 40 10 14 41 12 12 38 10 14 39 11 13 38 10 14 39 11 13 38 9 13 38 13 13 39 12 14 39 10 14 39 10 14 39 10 14 39 10 14 39 10 14 41 10 14 39 10 14 39 10 14 39 9 13 38 9 13 42 12 14 39 10 14 39 11 15 44 19 22 57 18 23 55 29 31 80 32 35 88 34 40 98 41 45 109 43 44 109 43 48 114 43 48 114 40 44 105 36 41 99 
26 33 79 43 45 102 44 46 105 42 46 107 45 49 113 45 49 113 45 49 112 44 48 109 36 39 94 33 36 89 28 31 76 19 23 58 20 23 58 21 23 61 21 23 62 27 34 80 33 36 89 36 38 95 45 49 110 44 49 107 44 49 115 45 48 115 42 46 109 39 43 106 39 41 102 24 31 75 27 29 77 20 23 56 17 20 51 19 22 57 25 27 68 23 26 69 36 41 99 38 40 99 41 45 109 41 49 112 43 48 112 42 46 110 43 47 110 35 37 94 34 37 92 27 30 75 20 24 61 18 22 59 11 15 40 14 14 42 10 14 39 9 13 38 12 14 39 9 13 40 12 14 39 11 15 40 10 14 41 11 15 40 11 15 40 10 14 39 10 14 39 10 14 39 12 14 39 11 16 38 13 15 38 13 15 38 12 14 39 12 14 39 10 14 39 10 14 39 12 14 39 11 13 38 9 13 40 9 13 38 12 14 39 9 13 38 12 14 39 10 14 39 11 13 38 10 14 39 9 13 38 10 14 39 10 14 39 10 14 39 10 14 39 10 14 39 10 14 39 11 15 40 16 17 48 15 18 49 23 25 64 29 31 80 29 32 83 39 43 104 39 43 106 42 47 111 43 48 114 45 46 111 39 43 104 39 43 106 29 31 80 28 32 79 21 23 61 18 19 50 
28 30 78 42 44 101 44 46 105 43 47 110 45 50 114 44 50 112 46 50 111 44 48 109 36 39 94 34 35 89 28 31 76 19 23 58 19 23 58 20 22 61 20 22 60 29 31 79 33 36 91 34 39 94 44 48 109 45 49 110 43 48 112 44 49 113 42 46 109 39 43 106 39 41 102 29 32 77 27 31 78 20 23 58 16 19 50 19 22 57 24 27 68 24 27 68 35 40 98 35 40 96 41 45 109 45 49 113 43 48 112 42 46 110 42 46 109 35 38 93 33 36 91 28 31 76 19 23 60 19 21 59 14 15 43 13 14 42 12 13 41 10 14 39 10 14 41 10 14 39 9 15 41 12 14 39 10 14 41 10 14 39 11 15 40 10 14 41 10 14 41 12 13 41 13 15 40 11 15 40 13 15 38 13 15 40 12 14 39 11 13 38 11 13 38 9 13 38 10 14 39 11 15 40 10 14 39 10 14 39 10 14 39 10 14 39 11 15 40 10 15 37 9 13 38 9 13 38 10 14 39 10 14 39 10 14 39 10 14 39 10 14 39 10 14 39 10 14 39 10 14 39 15 16 47 15 18 49 22 26 64 28 32 79 29 33 81 39 43 104 39 43 104 43 47 111 44 47 114 43 47 110 38 42 103 39 43 106 30 32 80 28 32 79 20 22 60 17 18 49 
37 42 100 42 46 109 44 48 111 41 45 106 39 44 100 41 43 100 31 34 79 31 33 82 26 29 72 25 28 69 25 28 71 26 31 73 27 30 73 31 37 89 34 37 92 37 42 100 41 45 106 39 43 104 42 46 109 42 46 110 34 39 95 35 40 96 32 36 84 27 30 71 24 29 71 22 25 68 24 26 67 29 32 77 30 33 78 33 35 83 33 38 93 36 39 94 41 45 108 41 45 108 40 44 107 38 44 104 36 41 97 31 34 85 30 33 84 22 26 64 22 24 62 18 21 54 16 17 48 13 17 46 12 14 39 12 13 41 12 13 41 10 14 41 9 15 39 10 14 39 10 14 39 10 14 41 12 13 41 10 14 41 12 14 39 12 14 39 11 16 38 13 15 38 13 15 40 13 15 40 12 14 39 9 13 38 12 14 39 11 13 38 10 14 39 10 14 39 11 15 40 10 14 39 10 14 41 12 14 39 9 15 41 11 12 40 10 14 41 8 14 38 10 14 39 12 14 39 9 15 39 11 13 38 9 13 38 13 14 42 12 16 43 14 18 47 20 22 60 20 22 60 28 32 80 29 33 81 34 37 92 37 42 100 41 43 104 40 44 107 41 45 108 36 41 97 37 42 100 33 36 89 28 31 74 27 30 75 18 21 56 18 20 58 14 17 48 12 16 43 
45 48 115 44 48 112 44 48 112 38 44 102 37 40 95 35 38 89 21 25 63 22 24 65 20 23 58 21 21 55 23 26 67 29 33 81 28 32 80 41 45 109 40 44 107 43 48 112 46 50 114 43 49 111 40 46 108 40 44 108 32 35 86 28 34 82 24 27 68 18 23 55 17 22 54 19 23 60 19 23 60 34 36 85 37 40 93 39 41 98 42 46 109 42 46 110 44 49 113 42 47 111 39 43 104 38 40 99 34 37 90 24 27 68 24 27 68 15 19 46 16 17 45 11 15 42 12 14 39 9 13 38 12 14 39 12 13 41 10 14 41 10 14 41 10 14 39 10 14 39 10 14 39 10 14 41 10 14 43 10 14 41 12 14 37 12 13 41 13 15 38 13 15 38 13 15 38 13 15 38 12 14 39 10 14 39 12 14 39 12 14 39 9 13 38 10 14 39 10 14 39 9 13 38 11 12 40 10 14 41 9 13 38 12 14 39 12 14 39 10 14 39 12 14 39 11 12 40 12 14 39 10 12 35 9 14 36 15 17 42 13 19 45 17 20 53 23 28 70 24 27 70 34 39 95 36 40 101 40 44 105 43 48 112 44 48 112 43 44 108 41 45 109 33 38 93 33 36 89 28 31 76 18 23 55 19 22 57 10 14 39 10 15 37 10 14 39 9 13 40 
43 47 110 40 44 105 39 44 102 35 40 95 32 36 83 31 35 82 22 27 67 23 25 64 25 26 70 25 28 69 28 31 76 35 38 93 31 37 89 45 46 113 42 46 109 42 48 108 42 46 109 41 45 106 34 39 95 37 39 96 28 32 77 27 31 78 25 28 69 22 26 63 21 25 63 26 29 72 26 29 74 37 38 92 40 43 98 41 43 102 44 45 109 41 45 108 38 44 102 39 44 102 32 39 93 31 34 85 30 32 80 21 23 61 20 22 61 13 17 44 14 16 41 11 15 42 12 14 39 10 14 41 12 14 39 10 14 41 10 14 41 10 14 41 10 14 39 10 14 39 10 14 39 10 14 41 10 14 41 10 14 39 11 15 40 13 14 44 13 15 38 13 15 38 12 14 39 12 14 37 11 13 38 10 14 39 10 14 39 12 14 39 10 14 39 9 13 38 10 14 39 10 14 39 11 15 40 9 13 40 10 14 39 9 13 38 9 13 38 10 14 39 10 14 39 11 15 40 10 14 41 13 17 44 11 15 44 16 19 52 19 24 56 21 25 62 28 32 79 27 34 80 38 40 99 38 43 101 40 44 107 41 47 109 39 45 107 36 41 99 36 41 99 30 33 84 28 30 78 24 26 67 16 19 52 17 20 51 10 14 39 12 14 39 12 14 39 12 14 39 
40 43 98 25 29 74 26 27 71 22 24 62 17 20 53 19 22 55 28 29 75 27 30 75 37 39 96 39 43 104 41 47 109 44 49 115 43 49 111 45 49 110 44 48 109 39 41 98 34 37 90 32 32 84 20 22 60 19 23 60 18 21 56 19 22 57 25 28 71 31 34 85 31 34 85 42 46 109 43 47 110 44 48 112 43 49 111 42 46 109 39 43 104 39 43 106 28 30 78 28 29 75 19 21 60 13 16 47 13 17 46 10 14 39 10 11 39 10 14 39 12 14 39 10 14 41 12 14 39 12 13 41 10 14 39 10 14 41 10 14 41 10 14 41 10 14 39 10 14 39 10 14 39 10 14 41 11 15 40 12 14 39 13 15 40 11 15 40 13 15 40 13 15 40 10 14 39 12 14 39 12 14 39 9 13 38 10 14 39 10 14 39 10 14 39 10 14 39 9 13 38 9 13 38 10 14 39 10 14 41 10 14 39 11 13 38 9 13 38 9 13 38 9 13 38 11 15 40 13 15 40 20 24 61 21 23 62 31 33 81 38 41 94 39 42 95 43 47 111 45 46 111 42 46 109 41 47 109 37 41 102 34 39 95 34 37 92 21 25 63 22 26 64 15 19 48 12 16 43 11 15 42 9 13 38 9 13 38 10 14 41 12 13 41 12 13 41 12 14 39 
40 42 99 26 29 74 26 29 72 21 23 61 16 19 52 18 23 55 26 28 76 26 29 74 35 40 98 39 44 102 41 45 108 44 49 113 44 49 113 47 49 110 44 48 109 39 41 98 33 36 91 30 33 86 19 23 60 20 22 61 18 22 57 19 22 55 25 28 71 30 33 84 32 35 86 42 46 109 41 45 108 44 48 111 43 49 111 43 47 110 39 43 106 39 43 106 27 30 75 28 31 76 18 22 59 14 18 47 13 16 47 10 14 41 12 14 39 12 14 39 11 13 38 11 15 42 10 14 39 11 15 40 10 14 41 10 14 39 10 14 39 10 14 39 10 14 41 10 14 41 10 14 41 10 14 39 10 14 41 12 14 39 14 14 40 11 15 40 14 16 39 13 15 40 9 13 38 9 13 38 11 13 38 11 15 40 10 14 39 10 14 39 10 14 39 9 13 38 9 13 38 8 12 37 10 14 41 11 12 40 12 14 39 11 13 38 11 13 38 9 14 36 12 12 38 11 15 42 11 15 40 21 25 62 22 24 63 32 34 82 35 41 93 40 41 97 42 46 110 42 46 109 42 46 110 42 46 109 38 42 103 36 38 95 33 36 91 23 25 63 22 24 63 16 17 47 14 15 43 14 15 43 10 14 39 9 13 38 10 14 41 10 14 39 12 14 39 12 14 39 
21 24 59 23 26 67 24 26 67 31 33 82 37 40 93 39 42 95 43 47 110 42 48 110 42 46 109 44 48 112 41 46 104 36 41 99 36 41 99 24 27 70 26 29 70 23 25 63 21 21 57 22 24 62 26 29 74 26 29 74 34 39 95 36 41 99 39 43 104 42 46 109 41 45 108 41 45 109 41 45 108 34 37 92 31 34 85 29 30 76 20 22 60 19 22 57 13 17 44 11 15 44 11 15 42 12 13 41 13 14 42 12 14 39 10 14 41 12 14 39 10 14 41 10 14 41 10 14 39 10 14 39 10 14 41 10 14 39 10 14 39 10 14 39 10 14 41 10 14 41 10 14 41 12 14 39 14 16 41 12 14 39 13 15 40 13 15 40 11 13 38 12 14 39 10 15 37 9 13 40 10 14 39 12 14 39 9 13 38 9 13 38 8 12 37 11 15 40 10 14 39 10 14 39 9 13 40 10 14 41 9 13 38 10 14 39 15 19 48 18 21 52 21 25 62 28 32 79 29 33 81 38 42 103 37 43 103 41 45 108 42 47 111 42 46 109 38 42 103 38 43 101 29 33 80 27 32 74 21 25 63 15 20 52 15 18 49 11 15 42 13 14 44 11 15 42 13 14 42 12 14 39 11 15 40 10 14 39 11 15 40 10 14 39 10 14 39 10 14 41 
19 22 53 22 26 64 24 27 68 33 35 84 40 43 98 43 44 101 44 50 112 44 49 113 43 48 112 41 49 112 40 45 109 35 40 96 34 39 95 21 25 63 23 27 65 18 23 55 18 18 52 20 23 58 26 30 75 28 30 78 39 41 100 41 43 104 41 45 108 43 48 112 43 49 111 40 44 107 42 46 109 34 37 88 30 34 82 25 28 71 16 19 50 18 19 50 10 14 39 9 13 40 10 14 41 9 13 38 12 14 39 12 14 39 10 14 41 12 14 39 10 14 41 10 14 41 10 14 41 10 14 41 10 14 41 10 14 39 10 14 39 10 14 39 10 14 41 10 14 41 12 13 41 12 14 39 13 15 38 13 15 38 13 15 38 12 13 41 11 13 38 9 13 40 9 13 38 11 12 40 9 13 38 12 14 39 10 14 39 9 13 38 12 14 39 10 14 39 10 14 39 10 14 39 10 14 39 10 14 39 10 14 41 9 13 38 15 18 49 19 19 53 22 26 64 30 34 82 30 34 82 40 44 108 40 44 107 42 46 109 43 48 112 42 46 110 37 41 102 37 41 102 27 30 75 26 29 72 18 22 57 13 16 47 13 17 44 10 14 39 9 13 40 10 14 39 12 13 41 12 14 39 10 14 39 10 14 41 10 14 39 13 15 40 10 14 39 12 14 39 
27 32 72 33 36 87 34 38 86 38 41 96 42 46 107 41 46 104 42 46 109 41 45 108 37 39 96 36 39 94 32 36 84 27 28 74 26 29 74 23 26 69 23 26 67 27 30 71 28 31 74 31 33 82 36 39 94 36 39 94 39 43 106 40 44 107 38 42 103 38 43 101 38 40 97 30 34 82 31 33 81 22 25 66 22 24 62 18 23 55 13 17 46 15 16 46 9 13 40 12 13 41 10 14 39 12 14 39 11 13 38 10 14 41 10 14 41 13 15 40 10 14 39 12 13 41 10 14 39 10 14 39 10 14 41 10 14 39 10 14 39 9 15 39 10 14 41 12 13 41 12 13 41 12 14 39 12 14 39 10 14 39 12 14 39 12 14 39 9 13 38 11 13 38 12 14 39 10 14 39 9 13 38 12 14 39 9 13 38 12 14 39 12 14 39 10 14 39 10 14 39 13 15 40 11 16 45 13 17 46 20 23 58 18 22 57 26 29 74 29 31 79 32 35 88 37 42 100 38 40 97 40 44 107 40 44 107 37 41 102 36 41 96 32 37 92 28 31 76 27 31 78 20 22 60 18 21 54 14 17 48 12 16 43 13 14 42 10 14 41 13 13 39 10 14 41 13 13 39 12 13 41 12 13 41 10 14 39 10 14 39 10 14 43 10 14 41 10 14 41 
