P3
100 50
255
36 38 79 38 40 81 36 38 79 37 39 78 39 41 80 41 40 80 36 38 79 36 38 79 39 41 82 39 41 79 40 42 81 41 40 80 41 40 80 36 38 79 36 38 79 38 40 79 39 41 80 40 42 81 39 41 80 39 41 80 36 38 77 36 38 77 37 39 78 39 41 80 39 41 80 36 38 77 36 38 79 38 40 81 40 42 81 39 41 80 39 41 80 40 42 81 36 38 79 36 39 80 40 39 79 42 41 81 41 40 80 40 42 81 42 40 80 41 40 82 42 40 80 39 41 80 39 41 80 38 42 80 39 41 80 39 41 82 41 40 80 39 41 80 40 42 81 39 41 80 41 40 80 40 40 76 40 40 76 40 40 76 37 39 80 36 38 77 41 40 80 40 42 83 36 37 81 36 38 77 40 39 79 40 40 74 40 40 78 36 38 77 37 39 80 41 41 77 40 40 76 38 40 78 36 38 77 37 39 78 39 39 75 42 42 78 39 39 77 38 38 76 36 38 76 37 36 76 38 37 77 36 38 76 38 38 76 38 38 76 38 38 74 36 38 76 38 37 77 39 39 75 38 38 76 38 38 74 34 34 70 28 31 66 28 28 62 21 22 43 23 21 43 12 12 24 10 8 19 5 5 13 0 1 3 1 2 4 2 0 1 1 1 1 0 0 0 0 0 0 
37 39 80 39 41 80 38 40 79 40 42 81 37 39 78 38 40 79 37 39 78 37 38 84 35 37 78 37 39 77 39 41 80 42 41 81 41 40 80 36 38 77 36 38 79 37 39 80 38 40 79 39 41 80 37 39 78 38 40 81 38 40 81 39 41 80 39 41 80 39 41 80 39 41 80 38 40 79 38 40 81 37 39 80 37 39 78 39 41 80 39 41 80 39 41 80 38 40 79 38 40 81 40 39 81 38 40 81 40 39 79 39 41 80 42 41 81 37 39 78 39 38 80 37 39 78 40 42 81 39 41 80 38 40 81 38 40 79 39 41 80 41 40 80 38 40 79 38 40 81 37 39 77 41 41 79 40 40 78 37 39 78 37 39 78 38 40 79 41 40 80 40 42 81 40 39 79 40 40 78 40 40 78 42 42 80 40 39 79 36 38 79 35 37 76 40 40 76 40 40 76 38 40 78 36 38 79 36 38 77 38 38 74 39 39 77 36 38 76 36 38 77 36 38 77 36 38 76 38 40 78 36 38 77 36 38 77 36 38 76 38 38 76 38 38 76 37 39 77 39 39 75 38 38 76 38 38 76 38 36 75 35 35 73 34 34 70 30 33 64 32 32 66 25 26 56 24 25 53 22 22 48 18 19 40 17 19 42 10 12 25 10 12 27 6 9 16 5 6 11 
36 38 77 41 40 80 41 40 80 38 40 79 37 39 78 35 37 78 37 39 80 36 38 79 36 38 77 36 38 79 38 40 81 38 40 79 39 41 80 37 39 78 36 38 77 37 39 80 39 41 80 38 40 79 36 38 77 37 39 80 39 41 82 39 41 80 39 41 80 39 41 80 39 41 80 39 41 80 39 41 80 37 39 78 36 38 77 37 39 78 39 41 80 39 41 80 40 42 81 39 41 80 37 39 80 37 39 80 39 38 80 39 41 80 39 41 80 35 37 76 36 38 77 39 38 78 40 39 79 38 42 80 36 38 77 36 38 77 40 39 79 40 39 79 38 40 79 36 38 77 36 38 79 41 40 80 41 40 80 38 40 79 37 39 78 37 39 80 38 40 79 41 40 82 41 41 77 41 41 77 40 39 79 39 41 80 38 40 79 38 37 77 35 38 79 41 41 79 40 41 72 40 39 79 37 39 80 38 40 81 38 38 76 38 38 76 36 38 77 37 39 80 36 38 77 36 38 76 36 38 76 36 38 79 36 38 79 36 38 77 36 38 76 38 38 76 39 39 77 38 37 77 39 39 77 37 37 75 36 38 76 36 38 76 38 38 74 38 38 74 38 38 76 34 36 75 32 34 72 32 32 68 27 27 61 28 28 62 17 19 44 18 19 40 11 13 28 9 9 17 
36 38 79 38 40 81 37 39 78 37 39 78 36 38 77 37 39 78 36 38 79 37 39 80 37 39 78 35 37 78 37 39 80 39 41 80 39 41 82 37 39 78 35 37 76 38 40 81 38 40 79 38 40 79 37 39 78 36 38 77 38 40 79 39 41 80 39 41 80 38 40 79 38 40 79 39 41 80 39 41 80 38 40 79 37 39 78 37 39 78 38 40 79 39 41 80 38 40 78 39 41 80 38 40 81 38 39 83 36 38 79 38 40 79 39 41 80 36 38 77 38 40 79 38 40 81 39 41 80 38 40 79 38 40 79 36 38 79 37 39 78 41 40 80 40 39 79 36 38 77 36 38 79 42 41 81 41 40 82 38 40 79 36 38 79 38 37 77 38 40 79 38 40 81 40 40 76 40 40 74 38 40 79 39 41 80 38 40 79 36 38 77 36 38 79 40 40 78 40 40 76 39 39 77 36 38 77 36 38 77 36 38 76 36 38 76 39 38 78 37 39 78 36 38 76 38 38 76 38 37 77 36 38 76 37 39 78 39 39 77 36 38 76 38 38 76 39 39 77 38 38 76 38 38 76 38 38 76 36 38 76 37 37 75 39 37 77 38 38 76 38 38 76 34 36 74 33 35 73 32 32 70 31 31 65 30 30 64 24 24 52 25 25 51 17 20 39 15 17 32 
37 39 80 36 37 81 36 38 77 37 39 78 37 39 80 36 38 77 39 41 80 39 41 82 37 39 78 36 38 79 37 39 80 36 38 77 37 39 80 38 40 79 40 42 81 38 40 81 36 38 79 36 38 76 39 41 80 39 41 80 37 39 78 35 37 76 36 38 76 37 39 80 36 38 77 38 40 79 41 43 82 38 40 79 39 41 80 38 40 79 37 39 78 36 38 77 41 40 80 42 41 81 42 41 81 41 40 80 38 40 79 36 37 81 37 39 80 38 40 79 40 42 81 38 40 79 37 39 80 36 38 77 39 41 80 40 39 79 38 40 79 38 40 79 40 39 79 37 39 80 35 37 76 41 40 80 41 40 80 38 40 81 36 38 77 38 37 77 36 38 77 37 39 78 36 38 79 36 38 77 36 38 79 36 38 77 36 38 77 36 38 76 38 38 76 39 38 78 37 39 80 36 38 77 36 38 76 39 39 77 36 38 77 36 38 79 38 38 76 38 38 76 38 38 74 38 38 76 38 38 76 38 38 76 39 39 77 39 39 75 38 38 76 35 39 74 39 39 75 38 38 76 37 40 75 36 38 76 37 36 76 35 37 76 34 36 75 36 39 74 36 38 76 36 38 76 36 39 74 36 38 76 39 39 77 38 38 74 38 38 76 36 38 76 34 36 74 32 34 72 
36 38 79 35 37 78 36 38 79 36 38 77 37 39 80 39 38 80 40 39 81 40 42 81 37 39 78 36 38 79 36 38 79 37 39 80 37 39 80 39 41 80 39 41 80 37 39 80 37 39 80 36 38 79 39 41 80 38 40 79 36 38 77 36 38 77 37 39 80 35 37 78 37 39 78 38 40 79 39 41 80 39 41 80 39 41 80 38 40 79 35 37 76 37 39 78 41 40 80 41 39 79 40 39 79 40 39 79 38 40 79 36 37 81 37 39 80 40 39 79 38 40 79 37 39 78 37 39 78 36 38 77 41 40 80 40 39 79 40 42 81 39 41 80 39 38 78 35 37 78 36 38 77 39 41 80 39 41 80 36 38 77 37 39 80 39 38 78 36 38 79 37 39 78 36 38 79 36 38 79 37 39 78 36 38 79 39 38 78 36 38 76 37 37 75 36 38 77 37 39 80 36 38 77 38 38 74 38 38 76 36 38 77 36 38 79 38 38 76 36 38 76 36 38 76 38 38 74 38 38 76 36 38 76 36 38 77 38 38 76 38 38 76 38 38 76 39 39 77 38 38 76 37 37 75 36 38 76 37 36 76 34 36 75 35 37 76 36 38 76 36 38 76 39 39 77 38 38 76 36 39 74 37 37 75 38 38 74 38 38 76 38 38 74 33 37 74 31 33 72 
36 38 79 38 40 79 38 40 81 38 40 79 36 38 77 37 39 80 37 39 80 37 39 78 38 40 79 40 39 79 38 40 81 36 38 79 36 38 79 37 39 80 39 38 82 38 40 79 39 41 80 37 39 78 37 39 80 38 40 81 37 39 80 36 38 79 38 40 79 38 40 79 38 40 79 38 40 79 37 39 78 39 41 80 40 42 81 38 40 79 36 38 77 36 38 79 38 40 79 41 40 80 37 39 78 36 38 79 37 38 82 40 39 81 38 40 79 40 39 79 40 42 81 39 41 80 38 40 79 40 39 81 39 41 80 42 41 81 38 40 79 37 39 80 39 38 80 40 42 80 38 40 81 37 39 78 36 38 79 37 39 78 37 39 80 40 39 79 38 37 79 36 38 77 38 41 76 37 40 75 39 39 77 37 37 75 38 37 77 36 38 77 35 37 76 36 38 79 35 37 78 36 38 76 39 39 77 38 38 76 37 39 80 37 39 80 39 39 77 36 38 76 36 38 76 38 38 76 38 38 76 36 38 76 36 38 76 38 38 76 37 37 75 35 37 76 34 36 75 34 36 75 37 39 77 36 38 76 38 38 76 38 38 76 38 36 75 33 35 73 34 36 75 36 35 75 38 38 76 36 36 74 35 34 74 33 35 74 35 37 76 35 37 76 34 37 72 31 33 71 
36 38 77 38 40 81 42 41 81 37 39 78 36 38 79 36 38 79 36 38 77 37 39 78 38 40 81 40 39 79 37 39 78 37 39 80 36 38 79 36 38 79 38 37 81 37 39 78 39 41 80 38 40 79 36 38 79 36 38 79 36 38 79 35 37 78 38 40 79 39 41 80 39 41 80 37 39 78 36 38 77 39 41 80 39 41 80 40 42 81 36 38 77 36 38 79 38 40 79 38 40 79 36 39 80 35 37 78 37 39 80 40 39 79 39 41 80 41 40 80 38 40 79 38 40 79 40 39 79 40 39 79 39 41 80 38 40 79 37 39 78 36 38 77 38 37 79 41 40 80 39 41 80 37 39 80 37 39 80 37 39 80 41 40 80 41 40 80 39 38 80 38 37 79 41 41 77 41 41 77 41 39 78 37 37 75 38 38 76 37 39 80 38 40 81 36 38 79 37 39 80 36 38 77 38 38 76 37 37 75 35 37 78 37 39 78 38 38 76 35 37 75 38 38 74 37 37 75 38 38 76 38 38 74 37 39 77 38 38 76 39 39 77 38 37 77 34 36 75 34 36 75 36 38 76 37 37 75 36 38 76 37 37 75 38 38 76 32 34 72 31 33 71 35 38 73 37 37 75 37 37 75 32 34 72 31 35 72 36 35 75 34 36 74 33 35 74 34 36 74 
37 39 80 38 40 79 38 40 81 37 39 78 36 38 77 37 39 78 37 39 78 36 38 77 37 39 80 38 40 79 38 40 79 36 38 79 37 39 80 37 39 78 37 39 78 38 40 81 38 40 79 37 39 77 36 38 79 36 38 77 38 40 79 37 39 78 38 40 79 38 40 81 37 39 80 36 38 79 35 37 76 38 40 79 38 40 79 37 39 78 36 38 79 37 39 80 38 40 79 39 41 80 38 40 81 37 39 80 38 37 79 42 41 81 40 39 79 37 39 78 37 39 78 37 39 78 37 39 78 37 39 78 39 41 80 39 41 80 37 39 78 37 39 78 37 39 80 37 39 78 39 38 78 36 38 79 36 38 77 37 39 78 36 39 80 37 39 77 37 39 77 39 39 77 39 38 78 37 39 77 36 38 77 36 38 77 36 38 77 38 37 77 36 38 77 36 38 77 38 38 76 37 36 76 39 39 77 38 37 77 38 38 74 37 36 76 38 38 74 38 38 76 35 37 76 34 36 75 37 36 76 39 37 76 38 38 76 37 37 75 38 37 77 37 36 76 37 37 75 35 37 75 35 37 76 35 37 76 35 37 76 38 38 76 36 38 76 33 35 74 35 35 73 37 36 76 38 38 74 36 36 74 32 34 72 31 33 71 39 39 77 36 35 75 35 34 74 32 34 73 
36 38 79 35 37 78 35 37 78 37 39 78 37 39 80 36 38 79 36 38 79 36 38 79 35 37 76 36 38 79 36 38 77 36 38 77 35 37 78 38 40 79 38 40 79 38 40 81 36 38 79 35 37 78 35 37 78 37 39 80 38 40 79 38 40 79 37 39 78 36 38 79 36 38 79 35 37 78 35 37 76 37 39 78 38 40 79 37 39 78 37 39 80 37 39 80 38 40 81 38 40 78 38 40 79 35 37 78 37 39 80 40 39 79 39 41 79 36 38 79 36 38 77 36 38 77 36 38 79 36 38 79 38 40 79 39 41 80 38 40 79 38 40 79 38 40 79 37 39 80 35 37 76 37 39 80 36 38 77 36 38 77 36 38 79 37 39 77 40 40 74 42 42 76 38 37 77 36 38 79 36 38 77 34 36 77 36 38 77 38 38 74 38 38 74 37 37 75 37 37 75 36 38 76 36 37 81 36 38 79 38 38 76 39 39 77 38 38 76 38 37 77 36 38 77 34 36 75 37 36 76 37 37 75 38 38 74 35 37 75 34 36 75 33 35 73 38 38 76 38 38 74 34 36 75 34 36 74 36 36 74 38 38 76 37 37 75 34 36 75 34 36 75 37 37 75 37 37 75 37 37 75 31 33 71 32 34 72 38 38 76 39 39 77 33 35 73 33 35 73 
36 38 79 36 38 79 36 38 79 37 39 80 35 37 78 36 38 79 36 38 77 37 39 78 36 38 77 35 37 78 36 38 77 36 38 77 36 38 79 38 40 79 39 41 80 37 39 80 37 39 80 35 37 78 36 38 79 35 37 78 38 40 79 38 40 79 38 40 79 36 38 77 37 39 80 35 37 78 36 38 79 37 39 78 39 41 80 38 40 79 36 38 77 35 37 78 38 40 79 38 40 79 37 39 80 36 38 79 37 39 80 38 40 79 38 40 79 37 39 78 36 38 77 36 38 79 36 38 77 36 38 79 38 40 81 38 40 79 38 40 79 38 40 79 38 40 79 36 38 79 36 38 77 36 38 79 35 37 78 36 38 77 35 37 76 37 39 77 40 40 76 40 40 76 36 38 77 35 37 78 35 37 76 38 40 79 38 37 79 38 38 76 38 38 76 38 38 76 36 38 76 37 39 78 37 39 80 36 38 77 38 38 76 38 38 76 38 38 76 39 39 77 38 37 77 36 36 74 35 37 75 38 37 77 38 38 76 35 37 76 34 36 74 37 37 75 38 38 76 38 38 74 34 36 75 34 36 75 35 37 75 38 38 76 35 37 75 35 37 76 35 37 75 34 36 74 34 36 74 35 37 75 32 34 72 33 35 73 37 37 75 35 38 73 34 36 74 33 35 73 
36 38 79 36 38 79 35 37 78 35 37 78 36 38 77 36 38 77 38 40 79 37 39 78 37 39 80 36 38 77 36 38 77 35 37 78 37 39 78 35 37 76 35 37 78 35 37 76 37 38 82 36 38 77 35 37 78 36 38 77 35 37 78 36 38 77 37 39 78 39 41 80 39 41 80 36 38 77 36 38 79 37 39 78 38 40 79 38 40 79 35 37 76 37 39 80 37 39 80 35 37 78 37 39 80 35 37 78 36 38 77 38 40 79 39 41 80 36 38 77 35 37 78 37 39 78 39 41 80 39 41 80 36 38 77 37 39 80 35 37 78 37 39 80 37 39 78 40 42 80 38 40 79 35 37 78 35 37 76 36 38 77 35 37 76 37 36 76 36 38 79 37 36 78 37 39 80 35 37 76 37 37 75 38 38 74 38 38 76 36 38 76 38 37 79 36 38 79 36 38 77 36 38 77 39 39 77 38 38 76 34 36 74 34 36 75 37 37 75 35 37 75 38 38 76 38 38 76 36 38 76 34 36 74 33 35 73 36 35 75 38 38 74 38 38 76 37 37 73 37 37 75 35 37 78 34 36 75 33 35 73 30 32 71 32 34 72 35 37 75 38 38 76 35 35 73 34 34 72 35 35 73 36 39 74 37 39 77 34 34 72 32 34 72 32 34 72 31 35 70 
35 37 78 35 37 78 36 38 79 35 37 78 36 38 77 36 38 77 39 41 80 38 40 79 37 39 80 36 38 77 36 38 79 36 38 79 36 38 77 36 38 77 36 38 79 36 38 77 35 37 78 36 38 79 35 37 78 35 37 78 35 37 78 36 38 79 38 40 79 38 40 79 38 40 79 35 37 76 35 37 78 39 41 80 38 40 79 37 39 78 37 39 78 35 37 78 36 38 79 35 37 78 36 38 79 35 37 76 36 38 77 39 41 80 38 40 79 36 38 77 36 38 79 36 38 79 38 40 79 38 40 79 35 37 78 35 37 78 36 38 79 36 38 79 37 39 78 38 40 79 38 40 79 36 38 77 36 38 77 37 39 78 37 36 76 37 36 76 35 37 78 37 36 76 36 38 79 37 39 80 38 37 79 38 38 74 37 37 75 36 37 81 36 38 79 38 40 79 36 38 77 36 38 77 37 37 75 37 37 75 34 36 75 34 36 75 39 39 77 35 37 76 37 37 75 37 37 75 37 37 75 34 36 74 34 36 75 37 36 76 37 37 75 38 38 76 37 37 75 37 37 75 34 36 75 33 35 74 33 35 74 33 35 73 35 33 72 38 38 76 38 38 76 33 35 73 31 33 71 34 34 72 37 37 75 37 37 73 31 33 71 34 33 73 34 33 73 32 34 72 
36 38 79 36 38 79 35 37 78 37 39 80 36 38 79 35 37 78 37 39 78 38 40 79 36 38 77 36 38 79 36 38 79 35 37 76 35 37 76 36 38 79 36 38 79 37 39 78 39 41 80 38 40 78 35 37 78 35 37 78 36 37 81 35 37 78 36 38 77 36 38 77 36 38 77 35 37 78 36 38 79 36 38 79 36 38 77 37 39 78 36 38 77 36 38 77 38 40 79 37 39 78 37 39 78 36 38 79 35 37 78 38 40 79 37 39 78 36 38 79 35 37 78 37 39 78 37 39 80 37 39 78 37 39 78 37 39 80 36 38 77 37 39 80 36 38 77 37 38 82 37 39 80 36 38 79 36 38 79 36 38 77 37 37 75 37 36 76 35 37 76 37 39 80 36 38 79 37 36 78 37 36 76 38 38 74 38 38 76 36 38 76 35 37 75 37 37 75 37 37 75 37 37 75 34 36 74 35 37 75 35 37 75 34 36 74 34 36 74 34 36 75 35 37 76 36 38 76 38 38 76 34 36 75 34 36 75 35 37 76 38 38 76 38 38 76 36 36 74 34 36 75 34 36 74 34 36 75 35 38 73 37 37 75 33 35 73 33 35 73 32 34 73 34 36 74 33 35 73 33 35 74 33 35 73 32 34 72 33 32 72 31 35 72 34 36 74 37 37 75 
35 37 78 36 38 79 36 38 79 36 38 77 36 38 79 36 38 79 36 38 79 35 37 78 36 38 77 35 37 78 35 37 78 35 37 76 35 37 76 36 38 79 36 38 79 37 39 78 38 40 78 38 40 78 36 38 77 37 39 80 36 38 77 35 37 78 36 38 77 36 38 79 35 37 76 37 39 78 35 37 78 35 37 78 35 37 78 35 37 78 37 39 80 35 37 78 42 41 81 38 40 79 37 39 78 36 38 77 35 37 78 36 38 77 35 37 78 37 39 80 36 38 77 35 37 78 36 38 77 35 37 76 38 40 79 39 41 80 37 39 78 36 38 79 36 38 79 36 38 79 36 38 79 37 39 80 35 37 78 36 38 77 37 37 75 37 36 76 37 39 78 36 38 79 35 37 78 36 38 77 38 37 77 39 39 77 36 36 74 38 38 76 38 38 74 36 38 76 38 38 74 37 37 75 34 36 75 34 36 75 35 38 71 37 37 75 34 36 75 34 36 77 34 36 75 37 37 75 38 38 76 35 37 76 34 36 75 36 38 76 37 37 75 38 38 76 34 36 77 34 36 75 34 37 78 34 36 75 36 36 74 37 37 73 36 38 76 32 34 72 32 34 72 33 35 74 34 36 74 31 35 73 32 34 72 33 33 71 32 34 72 32 34 72 36 36 74 39 39 77 
35 37 78 36 38 77 36 38 79 36 38 77 35 37 76 36 38 77 36 38 77 36 38 77 35 37 78 36 38 77 36 38 79 35 37 78 36 38 77 36 38 79 35 37 78 36 38 77 39 41 79 38 40 79 36 38 79 36 38 79 35 37 78 36 38 76 36 38 79 36 38 79 36 38 79 36 38 79 36 38 79 36 38 79 36 38 79 36 38 79 35 37 78 37 39 78 40 39 79 38 40 78 37 39 78 36 38 79 36 38 79 36 38 77 37 39 78 36 38 79 36 38 79 36 38 79 35 37 76 36 38 77 38 40 79 38 40 79 37 39 80 35 37 78 36 38 79 37 36 78 35 37 78 35 37 76 36 38 77 36 38 77 37 37 75 37 36 78 34 37 78 35 37 78 37 36 76 38 37 77 38 37 77 37 37 75 35 37 75 38 38 74 38 37 77 37 37 75 35 37 75 34 36 75 33 37 75 35 37 78 38 38 76 38 38 76 34 36 74 32 36 74 36 35 75 37 37 73 37 37 75 33 37 75 35 37 76 37 37 75 38 38 76 37 37 75 33 35 74 34 36 75 34 36 77 33 35 74 37 36 76 36 36 74 36 35 75 35 35 69 34 34 72 32 34 73 33 35 74 35 35 73 34 34 72 34 34 72 32 34 72 31 33 71 36 36 74 38 36 75 
35 37 76 36 38 77 35 37 76 35 37 76 35 37 76 35 37 76 35 37 78 36 37 81 37 39 78 37 39 78 36 38 79 35 37 76 35 37 78 36 38 79 35 37 78 35 37 78 36 38 79 35 37 78 35 37 78 35 37 78 35 37 78 36 38 79 36 38 79 35 37 78 37 39 78 35 37 76 35 37 76 37 39 78 35 37 78 35 37 76 36 38 77 35 37 76 36 38 77 35 37 78 34 36 75 35 37 76 36 38 77 35 37 76 35 37 78 38 40 79 39 41 80 37 39 78 35 37 78 35 37 78 35 37 78 35 37 78 35 37 76 35 37 76 36 38 77 36 38 77 35 37 78 38 37 77 36 38 79 37 39 78 36 38 79 36 38 77 36 38 79 35 37 78 37 37 75 38 38 74 37 36 76 35 37 76 38 37 77 38 38 76 39 37 74 34 36 75 34 36 75 34 36 75 34 36 75 35 37 76 38 38 76 37 37 75 35 37 78 34 36 75 36 35 75 33 37 75 34 36 74 39 37 76 38 36 75 35 37 76 33 35 74 34 36 75 33 35 74 33 35 74 34 36 75 34 36 77 32 34 73 31 33 71 32 34 72 37 37 75 37 37 75 33 35 73 32 34 72 33 35 73 37 37 75 37 37 75 31 33 71 32 34 72 31 33 71 33 35 73 
35 37 76 35 37 76 36 38 77 36 38 77 35 37 78 36 38 79 35 37 78 35 37 78 37 39 78 35 37 78 36 38 77 35 37 78 35 37 78 35 37 78 35 37 78 35 37 78 36 38 77 36 38 77 35 37 76 36 38 77 35 37 76 35 37 76 36 38 77 35 37 76 35 37 78 35 37 76 35 37 75 35 37 76 35 37 76 36 38 77 35 37 76 36 38 77 35 37 78 36 38 77 35 37 78 36 38 77 36 38 77 36 38 79 35 37 76 38 40 81 38 40 79 37 39 78 36 38 77 37 39 80 36 38 79 35 37 76 37 39 78 35 37 76 35 37 76 36 38 79 35 37 78 36 38 77 35 37 78 35 37 76 36 38 79 36 38 79 35 37 76 35 37 76 37 37 75 35 37 75 36 38 77 36 38 77 37 36 76 38 38 76 38 38 76 37 37 75 34 36 75 34 36 75 35 37 76 34 36 75 37 37 75 36 39 74 33 35 74 34 36 75 34 36 75 35 37 76 34 36 74 35 37 75 37 37 75 34 36 75 35 37 76 34 36 74 34 36 75 35 37 76 34 36 75 34 36 75 33 35 74 34 34 72 34 34 72 37 37 75 35 37 75 35 35 73 34 34 72 34 36 74 37 37 75 38 38 76 33 35 73 32 34 72 31 33 71 32 34 72 
35 37 76 35 37 76 36 38 77 35 37 76 35 37 76 35 37 76 36 38 77 35 37 76 36 38 79 36 38 77 36 38 79 36 38 79 36 38 77 35 37 78 36 38 79 36 38 79 36 38 77 35 37 76 36 38 77 35 37 76 35 37 76 35 37 76 36 38 77 35 37 76 36 38 77 36 38 77 35 37 78 35 37 76 35 37 76 36 38 77 35 37 76 36 38 79 35 37 76 36 38 79 36 38 77 36 38 77 35 37 76 35 37 76 35 37 78 36 38 77 37 39 78 37 39 78 35 37 76 36 38 77 36 38 77 35 37 76 36 38 77 35 37 76 35 37 76 35 37 78 36 38 79 35 37 75 37 37 75 37 37 75 35 37 76 36 38 77 38 36 75 37 37 75 35 37 76 35 37 78 39 37 76 37 37 73 38 38 76 33 35 74 34 36 75 34 36 75 33 35 74 35 37 75 36 38 76 37 37 75 33 35 74 33 35 74 34 36 75 33 35 76 34 36 75 34 36 75 34 36 75 33 35 74 34 36 75 32 34 72 31 33 72 32 34 72 38 38 76 35 37 75 32 34 72 32 34 72 35 35 73 37 37 75 37 37 75 32 34 72 32 34 72 32 32 70 34 34 72 32 34 72 31 33 71 31 33 71 32 34 72 32 34 72 32 34 72 32 34 72 
36 38 77 37 39 78 36 38 77 35 37 76 36 38 77 35 37 76 36 38 77 36 38 77 36 38 79 36 38 77 36 38 79 36 38 79 35 37 76 37 39 78 35 37 78 36 38 77 36 38 79 36 38 77 35 37 76 35 37 78 37 39 80 35 37 76 36 38 77 36 38 79 35 37 76 36 38 77 36 38 77 36 38 77 35 37 78 36 38 79 36 38 79 35 37 76 36 38 79 36 38 77 36 38 79 36 38 77 35 37 76 35 37 78 36 38 77 35 37 78 35 37 76 36 38 77 36 38 79 36 38 79 35 37 78 36 38 79 35 37 76 35 37 76 36 38 79 35 37 78 35 37 78 36 38 76 37 37 73 38 38 76 35 37 78 36 38 77 39 37 76 37 37 75 36 38 77 35 37 76 37 37 75 37 37 73 37 37 75 33 35 76 34 36 75 34 36 75 33 35 74 37 37 75 37 37 73 37 37 73 35 34 74 35 34 74 33 35 74 34 36 75 34 36 75 34 36 75 36 35 75 34 36 75 34 36 75 31 33 72 31 33 71 35 35 73 38 38 74 37 37 75 35 35 73 33 33 71 35 35 73 37 37 75 35 37 75 32 34 72 31 33 71 32 34 72 33 35 73 32 34 72 32 34 72 33 33 71 31 33 71 31 33 71 32 34 72 32 34 72 
34 36 75 35 37 76 36 38 79 35 37 78 36 38 79 36 38 79 35 37 78 36 38 79 35 37 76 36 38 79 36 38 77 35 37 76 36 38 79 35 37 75 36 38 77 36 38 77 35 37 76 37 39 80 34 36 77 35 37 76 36 38 77 35 37 78 36 38 79 35 37 76 35 37 76 35 37 76 35 37 78 36 38 79 36 38 77 34 36 75 37 39 78 35 37 78 35 37 78 35 37 78 35 37 76 35 37 76 36 38 77 36 38 77 36 38 79 35 37 78 36 38 77 35 37 76 35 37 76 36 38 77 35 37 76 35 37 76 36 38 77 36 38 77 36 38 77 35 37 76 35 39 77 35 37 76 38 37 77 37 37 75 38 38 76 34 38 75 35 37 78 36 38 76 34 36 77 34 37 72 36 36 74 37 37 75 37 37 75 34 36 77 33 35 74 32 34 73 33 35 74 34 36 75 34 36 77 34 36 74 35 37 75 37 37 73 36 34 74 33 35 74 35 37 75 37 37 75 37 37 75 33 35 76 33 35 74 34 36 74 36 36 74 33 35 73 35 35 73 35 35 73 36 36 74 34 36 74 33 35 73 35 35 71 33 36 71 36 36 74 37 37 75 32 34 72 31 33 71 33 35 73 37 37 75 37 37 73 31 33 71 32 34 72 30 32 70 32 34 72 
36 38 77 36 38 77 36 38 77 37 39 80 35 37 78 36 38 79 35 37 78 35 37 78 35 37 76 35 37 78 37 39 78 36 38 77 35 37 76 35 37 76 35 37 75 37 39 78 35 37 78 35 37 76 35 37 76 36 38 79 35 37 78 35 37 76 35 37 76 36 38 79 36 38 79 35 37 78 36 38 77 35 37 76 35 37 76 36 38 77 35 37 78 36 38 77 36 38 79 35 37 76 34 36 75 35 37 76 36 38 77 36 38 77 36 38 77 35 37 78 35 37 78 36 38 77 35 37 76 35 37 76 36 38 77 35 37 76 36 38 77 36 38 79 35 37 76 35 37 76 35 39 77 37 36 76 36 38 79 38 38 76 37 37 73 36 36 74 35 37 78 35 37 78 33 37 75 33 35 73 37 37 75 37 37 73 37 37 75 34 36 75 34 36 74 33 35 74 33 35 74 33 35 74 34 36 75 35 35 73 37 37 73 37 37 75 36 35 75 33 35 73 35 37 76 38 38 74 38 38 76 34 36 74 33 35 74 35 37 76 37 37 75 36 36 74 31 33 71 31 33 71 33 37 75 35 34 74 32 34 73 31 33 71 34 34 70 37 37 75 37 37 75 33 35 73 31 35 72 32 34 72 37 37 75 37 37 73 32 34 72 32 34 72 31 33 71 33 35 73 
35 37 76 35 37 76 35 37 76 36 38 77 35 37 76 35 37 76 36 38 77 36 38 77 36 38 77 36 38 77 36 38 77 36 38 77 36 38 77 35 37 76 35 37 76 35 37 76 35 37 78 36 38 79 36 38 79 35 37 78 35 37 78 35 37 78 35 37 78 36 38 79 36 38 77 35 37 78 37 39 80 35 37 76 36 38 77 35 37 76 35 37 76 36 38 77 36 38 79 35 37 78 35 37 76 35 37 76 35 37 76 35 37 76 35 37 78 35 37 78 36 38 79 35 37 78 35 37 78 35 37 78 35 37 78 35 37 78 35 37 78 36 38 79 37 36 76 35 37 75 35 37 76 36 40 78 36 38 77 35 37 75 37 37 75 37 37 75 35 37 76 38 37 77 35 35 73 34 36 75 35 37 75 37 37 73 37 37 75 33 35 74 34 36 75 34 36 74 34 36 74 34 36 75 34 36 75 33 35 76 37 37 75 37 37 75 34 36 75 36 35 75 35 37 75 36 39 74 38 38 74 32 34 73 34 36 75 33 37 74 36 36 74 37 37 75 35 35 73 35 35 73 35 34 74 33 35 74 32 34 72 33 33 71 34 34 72 37 37 75 36 36 74 32 34 72 31 33 71 36 36 74 34 36 74 37 37 75 31 33 71 32 34 72 32 34 72 32 34 72 
35 37 76 35 37 76 36 38 77 36 38 77 37 39 78 35 37 76 35 37 76 35 37 76 35 37 78 35 37 76 35 37 78 35 37 76 35 37 76 36 38 77 35 37 76 35 37 76 35 37 76 35 37 76 35 37 76 35 37 76 35 37 76 35 37 76 35 37 76 35 37 76 35 37 76 35 37 76 35 37 76 36 38 77 35 37 76 35 37 78 36 38 79 35 37 76 35 37 78 35 37 76 36 38 77 35 37 76 36 38 77 35 37 76 35 37 76 36 38 79 36 38 79 35 37 76 35 37 76 34 36 75 36 38 77 35 37 76 35 37 76 35 37 78 37 37 75 38 38 74 38 38 74 35 37 76 36 38 77 35 37 76 35 37 76 37 36 78 38 38 76 37 37 73 34 36 75 33 35 74 35 37 75 36 36 72 37 36 76 34 36 75 36 35 75 34 36 74 38 38 74 36 36 74 35 35 73 33 35 74 37 36 76 35 34 74 34 36 75 33 35 74 34 33 73 31 33 71 33 33 71 33 35 73 34 36 75 32 34 73 31 33 71 33 36 71 37 37 73 36 38 76 33 35 73 32 34 72 32 34 72 31 33 71 31 35 72 32 34 72 31 33 71 32 34 73 31 33 72 32 34 72 30 32 70 31 33 71 31 33 71 31 33 71 31 33 71 32 34 72 
37 36 76 36 38 77 35 37 76 36 38 79 37 36 78 35 37 76 35 37 76 35 37 78 35 37 76 36 38 77 35 37 76 36 38 77 36 38 77 35 37 76 35 37 76 36 38 77 36 38 77 35 37 78 35 37 76 36 38 79 36 38 77 36 38 79 35 37 76 35 37 78 35 37 76 34 36 75 36 38 77 36 38 77 35 37 76 36 38 77 35 37 76 35 37 76 36 38 77 36 38 77 36 38 77 35 37 76 37 39 78 36 38 77 36 38 77 35 37 76 36 38 77 37 39 78 36 38 79 36 38 77 36 38 77 35 37 76 35 37 78 35 37 78 38 37 77 37 37 75 36 36 74 36 38 77 34 38 76 35 37 76 35 37 76 36 38 77 37 37 75 35 37 75 34 36 75 34 33 73 36 36 74 37 37 73 37 37 75 34 36 75 33 35 74 35 37 75 37 37 75 36 35 75 36 35 75 34 36 75 34 36 75 34 36 75 35 35 73 33 35 73 33 35 74 32 34 73 31 33 71 33 35 74 34 36 75 34 34 72 31 33 72 33 35 73 38 38 76 37 37 75 34 34 72 33 33 71 31 33 71 30 32 70 33 33 71 33 33 71 33 33 71 33 33 71 31 33 71 31 33 71 31 33 71 31 33 71 32 34 72 32 34 73 32 34 72 32 34 72 
35 37 76 35 37 76 36 38 77 34 36 75 37 36 78 36 38 77 35 37 76 35 37 76 35 37 76 35 37 76 35 37 76 35 37 76 35 37 76 35 37 76 35 37 76 36 38 77 34 36 75 35 37 78 36 38 77 35 37 78 35 37 76 35 37 78 34 36 75 35 37 76 36 38 77 36 38 77 36 38 77 36 38 77 36 38 77 35 37 76 35 37 76 36 38 77 36 38 77 35 37 76 36 38 77 35 37 76 35 37 76 35 37 76 35 37 76 35 37 76 36 38 79 36 38 77 36 38 77 35 37 78 36 38 77 35 37 76 35 37 76 35 37 76 35 37 76 35 37 76 36 38 77 34 38 76 35 37 78 37 36 76 38 38 76 35 37 75 34 36 74 35 37 75 35 37 76 37 36 76 35 37 76 34 36 75 35 37 75 33 35 74 33 35 74 34 36 74 34 36 74 36 36 74 33 35 74 34 36 75 34 36 75 34 36 75 33 35 74 33 35 73 34 36 74 36 36 74 36 36 74 33 35 73 33 35 74 33 35 74 33 35 74 32 34 73 32 34 72 32 34 72 33 35 73 33 35 73 32 35 70 32 34 72 34 34 70 36 36 72 36 36 72 34 34 70 32 34 72 32 34 72 32 34 72 31 33 71 32 34 72 31 33 71 31 33 71 31 33 71 
36 38 77 35 37 76 35 37 76 36 38 77 36 38 77 36 38 79 36 37 81 35 37 75 36 38 77 35 37 76 35 37 76 35 37 76 36 38 77 35 37 76 36 38 77 36 38 77 35 37 76 35 37 76 36 38 77 35 37 76 35 37 76 36 38 77 35 37 76 36 38 77 36 38 77 35 37 76 36 38 77 35 37 76 37 39 78 36 38 77 35 37 76 36 38 77 35 37 78 35 37 78 36 38 79 36 38 77 36 38 77 36 38 77 35 37 76 37 39 78 35 37 78 36 38 77 35 37 76 36 38 79 35 37 76 35 37 76 35 37 76 35 37 76 36 38 77 35 37 76 35 37 76 34 38 76 35 37 78 37 37 75 37 37 73 36 36 74 33 35 73 33 35 74 35 37 76 36 38 77 36 35 77 33 35 74 34 36 75 34 36 75 33 35 74 33 35 74 33 35 74 33 35 74 33 35 74 33 35 74 34 36 75 33 35 74 34 36 75 33 35 74 34 36 74 37 37 75 37 37 75 34 36 75 34 36 75 33 35 74 34 36 75 32 34 73 31 33 72 32 34 72 34 36 75 34 36 75 32 34 73 31 33 71 34 34 70 37 37 73 38 38 74 35 35 73 31 34 69 31 33 71 31 33 71 31 33 71 31 33 71 31 33 71 30 32 70 30 32 70 
35 37 76 35 37 78 35 37 78 36 38 77 36 38 77 36 38 77 35 37 78 35 37 76 36 38 77 35 37 76 35 37 76 36 38 77 35 37 76 36 38 77 35 37 76 36 38 77 35 37 76 35 37 76 36 38 77 35 37 76 35 37 76 36 38 77 35 37 76 37 39 78 35 37 76 35 37 76 35 37 76 36 38 77 35 37 76 36 38 77 35 37 76 35 37 76 35 36 80 35 37 78 36 38 79 35 37 76 36 38 77 34 36 75 35 37 76 36 38 77 35 37 78 35 37 78 35 36 80 35 37 78 35 37 76 35 37 75 35 37 76 35 37 76 36 38 77 37 36 76 37 36 76 34 36 75 34 36 75 35 37 75 35 37 75 34 36 74 34 36 74 34 36 75 35 37 75 37 37 75 36 35 75 35 34 74 33 35 74 33 35 74 33 35 74 34 36 75 33 35 74 33 35 74 33 35 74 34 36 75 33 35 74 34 36 75 33 35 73 33 35 74 32 34 72 35 35 71 34 34 72 34 36 74 33 35 74 33 35 73 34 36 74 32 34 72 32 34 72 33 35 76 32 35 70 32 34 72 32 34 72 31 33 71 33 33 71 35 35 73 35 35 73 34 34 72 31 33 71 31 33 71 31 33 71 31 33 71 32 35 70 31 34 69 32 34 72 32 34 72 
35 37 76 35 37 78 36 38 77 35 37 76 35 37 78 35 37 76 35 37 76 36 38 77 36 38 77 35 37 76 34 36 75 35 37 76 35 37 76 35 37 76 36 38 77 35 37 76 36 38 77 35 37 76 35 37 76 34 36 75 36 38 77 35 37 76 35 37 76 35 37 76 36 38 77 35 37 76 35 37 76 35 37 76 35 37 76 35 37 76 36 38 77 35 37 76 35 37 78 36 38 77 35 37 76 35 37 76 37 39 78 35 37 76 35 37 76 37 39 80 35 37 76 35 37 76 35 37 76 35 37 75 35 38 73 35 38 73 35 37 76 35 37 78 38 37 77 38 36 75 36 36 74 33 35 74 34 36 74 34 36 75 35 37 76 35 37 76 33 35 74 33 35 74 37 37 73 38 38 74 34 36 75 33 35 74 37 36 76 36 35 75 33 35 74 33 35 74 34 36 75 34 36 75 32 34 73 33 35 74 33 35 74 34 36 75 35 35 73 34 36 77 32 34 73 31 33 71 31 33 71 33 35 74 34 36 75 34 34 72 33 33 71 34 34 72 33 35 73 33 35 73 32 34 73 31 33 71 33 33 71 33 33 69 33 33 71 34 34 72 33 33 71 33 33 71 31 33 71 31 33 71 31 33 71 31 33 71 31 34 69 31 34 69 31 33 71 31 33 71 
35 37 78 35 37 76 35 37 76 36 38 79 35 37 78 35 37 78 36 38 79 35 37 76 36 38 77 35 37 76 35 37 76 36 38 77 35 37 76 35 37 76 35 37 76 35 37 76 36 38 77 35 37 76 35 37 76 35 37 76 36 38 77 35 37 76 35 37 76 35 37 76 36 38 77 36 38 77 36 38 77 35 37 76 35 37 76 36 38 77 35 37 76 35 37 76 35 37 76 36 38 77 35 37 76 36 38 77 35 37 76 35 37 76 35 37 76 34 36 75 35 37 76 35 37 76 35 37 76 35 37 76 35 37 75 35 37 75 35 37 76 35 37 76 34 38 76 37 37 75 36 36 72 34 36 75 34 36 75 34 36 75 35 37 76 34 36 75 33 35 74 34 36 75 37 37 75 37 37 75 34 36 75 33 35 74 33 35 74 33 35 74 34 36 75 33 35 74 34 36 75 34 36 74 34 36 74 34 36 74 33 35 73 33 35 73 35 35 73 33 35 74 33 35 74 32 34 72 32 34 72 34 36 75 33 35 73 34 34 72 35 35 73 35 35 73 35 35 71 35 34 74 34 34 72 34 34 72 34 34 70 33 33 71 32 32 70 33 33 71 33 33 71 33 33 71 31 33 71 31 33 71 31 33 71 32 34 72 31 34 69 31 33 71 31 33 71 31 33 71 
32 33 79 35 37 76 36 38 77 34 36 77 33 36 79 33 34 78 36 38 77 35 37 76 35 37 76 35 37 76 36 38 77 36 38 77 36 38 77 35 37 76 35 37 76 35 37 76 35 37 76 35 37 76 35 37 76 35 37 76 35 37 76 36 38 77 35 37 76 35 37 76 35 37 76 36 38 77 36 38 77 35 37 76 35 37 76 35 37 76 36 38 77 35 37 76 34 36 75 34 36 75 35 37 76 35 37 76 36 38 77 35 37 76 35 37 76 35 37 76 36 38 77 35 37 76 36 38 77 35 37 78 35 37 76 35 37 76 35 37 76 35 37 76 35 37 76 33 35 74 32 36 73 34 38 76 35 37 76 37 36 76 35 34 74 33 35 74 35 34 74 33 35 74 34 36 77 34 36 75 33 35 74 33 35 74 33 35 74 34 36 75 33 35 74 34 36 75 33 35 73 33 36 71 37 37 75 35 37 75 31 33 71 32 34 72 35 34 74 34 36 74 34 36 75 33 35 74 33 35 74 31 33 71 31 33 71 34 33 73 33 35 74 33 35 73 31 33 71 31 33 71 33 35 74 33 35 74 32 34 73 31 33 71 33 33 71 33 33 71 33 33 71 33 33 71 31 33 71 31 33 71 30 32 70 31 33 71 30 32 70 32 34 73 32 34 72 31 33 71 
31 34 77 35 37 76 35 37 76 34 36 77 31 34 77 32 33 77 35 37 76 35 37 76 35 37 76 35 37 76 36 38 77 36 38 77 35 37 76 35 37 76 34 36 75 35 37 76 35 37 76 35 37 76 36 38 77 35 37 76 35 37 76 36 38 77 35 37 76 36 38 77 35 37 76 35 37 76 34 36 75 35 37 76 34 36 75 35 37 76 35 37 76 36 38 77 36 38 77 36 38 77 35 37 76 35 37 76 35 37 76 35 37 76 35 37 76 35 37 76 36 38 79 35 37 76 36 38 77 36 38 77 35 37 76 35 37 76 35 37 76 35 37 76 34 36 75 33 35 73 33 35 74 35 37 76 35 37 76 36 36 74 36 35 75 34 36 75 33 35 74 33 35 74 33 35 74 34 36 75 33 35 74 33 35 74 33 35 74 35 34 74 33 35 74 33 35 74 34 36 75 36 36 74 36 36 72 36 36 72 31 33 71 31 33 71 33 35 74 33 35 74 34 36 74 36 35 75 34 33 73 31 33 71 31 33 71 32 34 72 33 35 74 33 35 73 31 33 71 31 33 71 33 35 73 33 35 74 32 34 72 32 35 70 33 33 71 33 33 71 33 33 71 34 34 72 32 34 72 31 33 71 30 32 70 31 33 71 31 34 69 31 33 71 31 33 71 31 33 71 
34 36 75 35 37 76 36 38 79 35 37 76 34 36 77 35 37 76 35 37 76 35 37 76 34 35 79 33 34 78 33 35 76 35 37 76 36 38 77 35 37 78 35 37 76 35 37 76 35 37 76 35 37 76 35 37 76 35 37 76 35 37 75 35 37 76 36 38 77 36 38 77 37 39 80 36 38 77 35 37 76 35 37 76 35 37 76 36 38 77 35 37 78 36 38 77 35 37 75 35 37 78 36 38 77 35 37 76 35 37 76 35 37 78 35 37 76 36 38 77 35 37 76 35 37 76 35 37 76 36 38 77 33 35 74 36 38 77 35 37 76 35 37 76 35 37 76 36 38 77 35 37 76 34 36 75 35 37 76 33 35 74 33 35 74 33 35 73 33 35 74 33 35 74 33 35 74 33 35 74 33 35 74 33 35 74 33 35 74 33 35 74 33 35 74 33 35 74 34 36 75 33 37 75 37 35 75 33 35 73 33 35 74 35 35 71 32 34 72 32 34 72 32 34 73 33 35 74 35 37 76 32 34 72 31 33 71 33 35 73 34 36 75 34 36 74 31 33 71 33 35 73 32 34 72 32 34 72 31 33 71 31 33 71 31 33 71 31 33 71 31 33 71 31 33 71 31 33 71 31 33 71 32 34 72 32 34 72 31 33 71 31 34 69 30 33 68 30 33 68 
34 36 75 36 38 77 35 37 78 35 37 76 36 38 77 36 38 77 35 37 76 35 37 76 33 34 78 32 33 77 33 35 76 35 37 76 35 37 76 36 38 79 35 37 76 35 37 76 35 37 76 35 37 76 35 37 75 35 37 78 35 37 76 35 37 76 35 37 76 35 37 76 35 37 78 35 37 76 35 37 76 35 37 76 35 37 78 35 37 76 36 38 77 35 37 78 35 37 76 35 37 76 36 38 77 35 37 75 35 37 78 36 38 77 35 37 76 35 37 76 36 38 77 35 37 76 35 37 76 34 36 75 33 35 74 33 35 74 35 37 76 35 37 76 35 37 76 36 38 77 34 36 77 33 35 74 33 35 74 33 35 74 33 35 74 33 35 73 33 35 74 33 35 74 33 35 74 33 35 74 33 35 74 33 35 74 33 35 74 33 35 74 34 36 75 35 34 74 35 34 74 34 36 74 33 35 74 33 35 74 33 35 74 34 36 75 32 34 72 31 34 69 32 34 72 33 35 74 33 35 74 30 32 70 31 33 71 33 35 73 33 35 76 33 35 73 31 33 71 31 33 72 31 33 71 32 34 72 31 33 71 31 33 71 30 33 68 31 33 72 31 33 71 31 33 71 31 33 71 31 33 71 31 33 71 30 32 70 33 33 71 34 34 70 33 33 69 29 32 65 
34 36 75 36 38 77 36 38 77 34 36 75 34 36 75 34 36 75 35 37 78 35 37 76 34 36 77 33 34 78 35 37 76 35 37 76 35 37 76 35 37 76 35 37 76 36 38 77 35 37 76 35 37 76 35 37 76 34 36 75 34 36 77 35 37 76 34 36 77 35 37 78 34 36 77 35 37 76 35 37 76 36 38 77 35 37 78 36 38 77 35 37 76 33 35 74 35 37 75 35 37 76 36 38 77 35 37 75 35 37 76 35 37 76 36 38 77 35 37 76 35 37 76 35 37 76 35 37 76 35 37 76 33 35 74 33 35 74 34 36 75 35 37 76 35 37 76 35 37 76 34 36 77 33 35 74 33 35 74 34 36 75 34 36 75 33 35 74 33 35 74 33 35 74 33 35 74 33 35 74 33 35 74 33 35 74 33 35 74 33 35 74 33 35 74 35 34 74 35 34 74 33 35 73 34 36 75 33 35 74 32 34 73 33 35 76 32 34 72 31 34 69 32 34 72 33 35 73 33 35 73 32 34 72 32 34 72 32 34 72 33 35 73 32 34 72 31 33 71 31 33 71 31 33 71 31 33 71 31 33 71 31 33 71 31 34 69 31 33 71 31 33 71 31 34 69 31 33 71 31 33 71 31 33 71 31 33 72 33 33 69 33 33 71 33 33 69 30 33 66 
33 35 74 35 37 76 35 37 76 35 37 76 33 35 74 33 35 74 35 37 76 35 37 75 35 37 76 35 37 76 36 38 77 36 38 77 34 36 75 34 36 75 33 35 73 34 36 75 34 36 75 34 36 75 33 35 74 33 35 74 36 38 77 35 37 76 34 36 77 32 33 77 33 34 78 34 36 75 35 37 76 37 36 76 36 38 77 34 36 77 32 35 78 32 35 78 35 37 76 35 37 76 36 38 76 35 37 78 34 36 75 35 37 76 34 36 74 36 38 77 35 37 78 35 37 76 33 35 74 32 34 73 35 37 76 35 37 76 34 36 75 33 35 73 33 35 74 33 35 74 33 35 74 33 35 73 34 36 75 34 36 75 35 37 76 34 36 75 33 35 74 33 35 74 33 35 74 33 35 74 33 35 74 33 35 74 33 35 74 33 35 74 33 35 74 33 35 74 33 35 74 33 35 73 33 33 71 31 33 71 33 36 71 33 35 74 33 35 74 33 35 76 32 34 73 30 32 70 31 33 71 33 35 73 33 35 73 32 34 72 33 33 71 33 33 71 33 33 71 33 33 71 33 33 71 33 33 71 33 33 71 33 33 71 30 32 70 31 33 71 31 33 71 31 33 71 31 33 71 31 33 71 31 33 71 30 33 68 32 34 72 31 33 71 31 34 69 31 34 69 
33 35 73 35 37 76 35 37 76 34 36 75 34 36 75 33 35 73 35 37 76 34 36 75 35 37 76 35 37 76 35 37 76 36 38 77 35 37 76 33 35 74 33 35 73 34 36 75 35 37 76 35 37 76 33 35 73 34 36 74 35 37 76 36 38 77 34 36 77 33 34 78 32 34 75 35 37 76 37 36 76 37 36 76 37 36 76 35 37 78 32 33 77 31 34 77 35 37 76 35 37 78 36 38 77 36 38 77 35 37 78 34 36 75 36 38 77 35 37 76 35 37 78 34 36 75 33 35 74 32 34 73 35 37 76 35 37 76 35 37 76 33 35 73 33 35 74 33 35 74 33 35 73 33 35 73 33 35 73 35 37 76 35 37 76 34 36 75 33 35 74 33 35 74 33 35 74 33 35 74 33 35 74 33 35 74 33 35 74 33 35 74 33 35 74 33 35 76 33 35 73 32 34 72 33 33 71 31 33 71 33 37 75 33 35 74 33 35 74 33 35 74 32 34 73 32 34 72 30 32 70 34 36 75 33 35 74 32 34 72 30 32 70 31 33 71 31 33 71 31 33 71 30 32 70 31 33 71 31 33 71 31 33 71 31 33 71 31 33 71 31 33 71 30 32 70 31 33 71 31 33 71 31 34 69 31 34 69 31 33 71 30 33 68 31 33 71 30 32 70 
36 38 77 33 34 78 33 34 78 33 35 76 36 38 77 34 36 74 33 35 73 33 35 74 34 36 75 35 37 76 34 36 74 33 35 73 33 35 73 35 37 76 35 37 76 34 36 77 32 33 77 33 35 76 34 36 75 34 36 75 36 38 79 35 37 76 34 36 75 33 35 74 35 35 73 38 38 76 38 37 77 36 35 75 35 37 78 35 37 76 35 37 76 34 36 75 34 36 75 35 37 76 34 36 77 33 34 78 33 34 78 34 36 75 35 37 76 34 36 75 34 36 75 34 36 75 35 37 76 34 36 75 33 35 74 33 35 74 35 37 76 36 38 77 34 36 75 33 35 74 33 35 73 32 34 72 32 34 72 34 36 75 33 35 74 33 35 74 33 35 74 33 35 74 33 35 74 33 35 74 33 35 74 33 35 74 33 35 74 33 35 74 34 36 75 36 35 75 33 35 73 33 35 73 33 35 74 33 35 74 31 33 71 34 32 71 33 35 73 33 35 73 32 34 72 31 33 71 31 33 71 31 33 71 30 32 70 31 33 71 32 34 72 31 33 71 31 33 71 32 34 72 30 32 70 31 33 71 31 33 71 31 33 71 31 34 69 31 33 71 31 33 71 31 34 69 31 33 71 31 33 71 31 33 71 31 33 71 31 31 65 33 33 67 31 34 69 32 34 72 
35 37 76 32 33 77 33 34 80 34 35 79 35 37 76 35 37 76 32 34 72 34 36 74 35 37 76 35 37 76 35 37 76 33 35 73 34 36 74 35 37 76 35 37 76 34 36 77 32 33 77 33 35 76 35 37 76 35 37 78 35 37 76 35 37 78 34 36 75 34 36 75 33 35 73 34 36 75 34 36 77 35 37 76 35 37 78 35 37 76 35 37 76 36 38 79 34 36 75 35 37 76 33 35 76 33 34 78 32 34 75 34 36 77 36 38 77 34 36 74 33 35 74 33 35 74 35 37 76 35 37 76 33 35 74 33 35 74 34 36 75 34 36 75 35 37 76 33 35 74 33 35 73 33 35 73 33 35 73 33 35 74 33 35 74 34 36 75 33 35 73 33 35 73 33 35 73 33 35 73 33 35 73 33 35 73 33 35 73 33 35 73 31 36 74 33 35 74 34 36 74 33 35 74 33 35 74 33 35 74 29 33 70 31 33 71 33 35 73 33 35 74 32 34 72 31 33 71 32 34 72 31 33 71 31 34 69 31 33 71 33 33 69 33 33 69 33 33 69 32 32 70 33 33 71 33 33 71 33 33 71 33 33 71 31 34 69 31 33 71 31 33 72 30 32 70 30 32 70 31 33 71 31 34 69 30 33 68 31 31 65 32 32 66 30 33 68 31 33 71 
35 37 76 34 36 77 35 37 78 34 36 75 34 37 72 33 35 74 33 35 74 35 37 76 34 36 77 33 34 78 34 36 77 34 36 75 35 37 76 34 36 75 33 35 74 34 36 75 34 36 77 35 37 78 35 37 76 35 37 76 33 35 73 33 35 73 34 36 75 34 36 75 35 37 76 33 34 78 34 35 79 33 35 74 36 38 77 34 36 75 36 35 75 33 35 76 35 37 76 34 36 75 34 36 75 33 35 74 33 35 74 34 36 75 35 37 76 34 36 75 34 36 75 34 36 75 34 36 75 34 36 75 34 36 75 35 37 76 34 36 75 33 35 74 32 34 73 33 35 74 32 34 73 33 35 74 33 35 74 33 35 74 33 35 74 33 35 74 33 35 73 33 35 73 33 35 73 33 35 73 33 35 73 33 35 73 33 35 73 33 35 73 34 33 73 35 35 73 33 35 73 32 34 73 31 34 69 31 33 71 32 34 72 32 34 73 31 33 71 32 34 72 31 34 69 31 34 69 31 34 69 33 35 73 33 35 73 32 34 72 31 33 71 30 33 68 31 33 71 31 33 72 32 34 72 31 33 71 31 33 71 31 33 71 31 33 71 31 33 71 31 33 71 31 33 71 31 33 71 31 33 71 30 33 68 30 33 68 33 33 71 31 33 71 30 32 70 29 31 69 
34 36 75 35 37 76 34 36 75 34 36 77 33 35 73 32 34 73 35 37 76 36 38 77 33 34 78 32 33 77 33 35 76 37 36 76 34 36 75 33 35 74 33 35 74 34 36 75 36 38 77 37 36 76 37 36 76 35 37 76 33 35 74 33 35 73 34 36 74 35 37 78 35 37 76 31 34 77 31 34 77 34 36 77 35 37 76 34 36 75 32 34 72 33 35 73 36 38 77 34 38 76 34 36 75 35 34 74 33 35 74 35 37 76 36 38 77 35 37 76 35 37 76 34 36 75 33 35 74 33 35 74 35 37 76 35 37 76 33 35 74 33 35 74 33 35 74 33 35 74 33 35 73 33 35 74 33 35 73 33 35 74 33 35 73 33 35 73 35 34 74 34 36 75 36 36 74 33 35 73 36 35 77 33 35 74 32 34 73 32 34 73 32 34 73 33 35 73 33 35 73 34 33 73 32 32 70 31 33 71 32 34 75 32 34 73 31 33 71 30 32 70 30 32 70 33 33 71 31 33 71 35 34 74 33 35 74 32 34 72 31 33 71 31 33 71 31 33 71 31 33 71 31 33 71 31 33 71 31 33 71 31 33 71 34 32 71 31 34 69 31 34 69 30 32 70 31 33 71 31 33 71 31 31 65 33 33 67 31 34 69 30 34 71 30 32 71 28 30 68 
35 37 76 34 36 77 35 37 78 34 36 75 34 36 74 34 36 74 34 36 75 35 37 76 33 34 78 34 36 77 34 36 77 35 34 74 37 36 76 34 36 75 34 36 74 33 35 74 34 36 75 35 37 78 35 37 76 34 36 75 34 36 75 33 35 73 34 36 75 34 36 75 34 36 75 32 34 75 32 34 75 34 36 75 34 36 75 34 36 75 34 36 77 33 35 74 34 36 75 34 35 79 34 36 75 33 35 73 33 35 74 34 36 75 34 36 77 37 36 76 35 37 76 34 36 75 33 35 74 33 35 74 34 36 75 33 35 74 33 35 74 32 34 73 33 35 74 33 35 73 33 35 74 33 35 73 33 35 74 33 35 73 33 35 74 32 34 72 32 34 73 33 35 73 33 35 73 33 35 74 33 35 73 34 36 74 32 34 72 32 34 73 31 33 74 33 35 73 33 35 73 33 35 73 32 34 72 32 34 72 31 33 72 31 33 72 31 33 71 32 34 72 33 32 72 31 33 71 33 33 71 32 34 72 33 35 74 31 33 72 31 33 71 31 33 71 31 33 71 31 33 71 31 33 71 31 33 71 31 33 71 31 33 71 34 32 71 30 32 70 32 34 72 31 33 71 31 33 71 31 33 71 32 32 68 33 33 69 31 34 69 30 33 68 32 32 68 28 32 69 
36 38 77 33 35 76 33 34 78 33 35 76 34 36 75 35 37 76 33 35 74 33 35 74 36 35 75 34 36 75 33 37 74 33 35 73 33 35 74 35 37 75 33 35 74 35 34 76 32 35 80 32 33 77 33 35 73 32 34 72 34 38 76 34 36 75 34 36 75 33 35 73 33 35 74 38 37 77 37 36 76 33 35 74 32 34 72 34 36 75 35 37 76 35 37 76 31 34 77 32 35 78 33 35 76 35 37 76 34 36 75 32 34 73 34 36 74 35 37 76 34 36 75 34 36 75 33 35 74 33 35 74 34 36 75 33 35 74 33 35 74 34 36 75 33 35 74 33 35 74 33 35 74 32 34 73 33 35 73 33 35 74 33 35 73 32 34 73 33 35 74 34 36 75 32 34 73 32 34 75 33 35 74 33 35 74 33 35 73 33 33 71 33 33 69 34 36 74 33 35 74 32 34 73 31 33 72 32 34 73 31 34 69 33 33 71 32 34 73 33 35 74 33 35 74 32 32 70 31 34 69 33 33 71 32 34 72 31 33 71 31 33 71 33 33 71 33 33 71 31 33 71 31 33 71 33 33 71 33 33 71 31 33 71 33 31 70 30 32 70 30 32 70 31 34 69 30 32 71 31 34 69 34 32 71 32 32 68 32 32 66 31 31 67 30 33 68 31 33 71 
34 36 77 33 34 78 32 33 77 33 34 78 33 35 76 35 37 76 33 35 74 33 35 74 34 37 72 34 36 75 34 36 75 35 35 73 33 35 74 34 36 77 35 37 78 34 36 77 33 34 78 32 34 75 32 36 74 33 35 74 34 36 75 36 38 77 33 35 73 33 35 74 33 35 74 34 36 75 34 36 75 33 35 73 33 35 73 34 36 74 34 36 75 34 36 75 32 35 78 33 34 78 33 35 76 34 36 75 33 37 75 33 35 74 33 35 73 35 37 76 35 37 76 34 36 75 33 35 73 33 35 74 32 34 73 33 35 74 33 35 74 33 35 74 33 35 74 33 35 74 33 35 74 32 34 73 33 35 74 33 35 73 33 35 74 32 34 73 34 36 74 33 35 73 32 34 73 30 32 71 32 34 73 32 34 73 32 34 72 31 34 69 31 33 71 33 35 73 34 36 75 32 34 73 32 34 73 31 33 71 30 33 68 31 33 71 32 34 73 32 34 73 31 33 72 32 34 72 30 32 70 31 33 71 30 32 70 31 34 67 33 33 71 31 33 71 31 33 71 33 33 71 33 33 71 31 33 71 31 33 71 33 33 71 31 33 71 31 33 71 31 33 71 31 33 71 30 34 69 31 34 69 31 33 71 31 33 71 32 32 66 31 31 65 33 33 69 33 33 69 
35 37 76 34 36 75 33 35 74 34 36 74 35 37 76 34 36 75 33 35 73 33 35 74 34 36 74 36 35 75 34 35 79 34 33 75 32 35 78 36 38 79 34 38 76 35 37 76 32 36 74 33 35 74 34 36 75 35 37 76 33 36 79 33 34 78 33 35 76 34 36 75 35 37 76 33 34 78 33 35 76 34 36 77 34 36 75 34 36 75 34 36 74 34 36 75 36 35 75 33 35 76 33 35 74 34 36 75 34 36 75 33 35 74 35 34 74 35 34 74 33 35 74 33 35 74 33 35 73 34 36 75 35 37 76 35 37 76 32 34 73 33 35 73 33 35 74 33 35 73 33 35 74 33 35 74 33 35 76 34 36 74 33 35 74 32 34 73 32 34 73 32 34 73 33 35 74 32 34 73 32 34 73 32 34 72 32 34 73 33 35 74 33 35 73 32 34 73 32 34 73 33 33 71 33 33 71 31 33 71 32 34 72 32 34 73 31 33 71 30 32 70 32 34 72 33 35 73 33 35 73 31 33 72 30 32 70 31 33 71 33 33 71 31 33 71 31 33 71 33 33 71 33 33 71 31 33 71 31 33 71 33 33 71 30 33 68 33 33 71 32 32 68 31 31 67 31 31 65 30 33 68 28 30 68 29 31 69 34 34 70 31 34 69 32 32 66 31 31 67 
35 37 76 33 35 74 32 34 73 34 36 75 35 37 76 34 36 75 33 35 74 33 35 73 36 38 77 34 36 75 34 36 77 32 33 77 32 33 77 34 36 75 35 37 75 33 37 75 33 35 73 34 36 74 35 37 76 35 37 76 33 34 78 32 33 77 33 35 76 34 36 75 34 36 75 32 35 78 33 36 79 34 36 75 34 36 75 34 36 75 33 35 74 33 35 74 36 35 75 37 36 76 34 36 75 32 34 72 33 35 73 35 37 76 34 36 75 35 34 74 33 35 74 33 35 73 32 34 73 33 35 73 35 37 76 34 36 75 34 36 75 32 34 73 33 35 74 33 35 73 33 35 73 32 34 73 33 35 74 33 35 74 33 35 73 32 34 73 31 33 72 31 33 72 32 34 72 32 34 72 34 33 73 33 32 72 34 33 73 33 35 73 33 35 73 31 33 72 32 34 73 31 33 72 31 33 71 31 34 69 33 35 73 33 35 73 31 33 71 31 34 69 32 34 72 33 35 73 33 35 74 33 33 71 31 33 71 33 33 69 31 33 71 33 33 71 33 33 71 31 33 71 31 33 71 33 33 71 33 33 71 31 33 71 31 34 69 33 33 71 34 32 71 31 31 65 33 33 67 29 32 67 28 30 68 29 32 67 33 33 71 31 34 69 30 33 68 32 32 66 
33 35 74 33 35 74 32 34 73 33 35 73 33 35 73 33 35 74 33 35 74 33 35 74 34 36 75 32 34 73 33 35 76 35 37 78 33 35 76 34 36 75 35 37 76 33 35 74 34 36 75 35 34 74 37 36 76 34 36 75 34 36 77 34 36 77 33 35 74 34 36 75 33 35 74 33 35 76 33 35 76 33 35 74 34 36 75 35 37 76 34 36 74 33 35 73 32 36 73 34 36 75 34 36 75 34 36 75 34 36 75 34 36 75 34 36 74 34 36 74 33 35 74 32 34 72 33 35 74 33 35 73 34 36 75 34 36 75 33 35 73 33 35 74 33 35 74 33 35 73 33 35 73 31 33 72 32 34 73 32 34 72 33 35 74 32 34 73 32 34 73 31 33 74 32 34 73 31 33 72 32 34 73 32 34 75 32 34 73 32 34 72 32 34 72 31 33 72 31 33 72 34 34 70 33 33 69 31 34 69 32 34 72 33 35 73 33 33 71 30 33 68 33 33 71 32 34 72 31 33 71 30 33 68 31 34 69 30 33 68 31 33 71 31 33 71 31 33 71 31 33 71 31 33 71 31 33 71 31 33 71 31 33 71 31 34 69 33 33 71 31 33 71 32 32 68 30 33 66 32 32 68 29 32 67 29 32 67 31 33 71 31 34 69 30 32 70 29 32 67 
33 35 74 32 34 72 32 34 73 33 35 73 34 36 74 32 35 70 34 36 75 35 37 75 33 35 74 33 35 73 34 36 75 34 36 77 35 37 76 33 35 73 33 35 73 36 35 75 34 36 74 35 37 78 35 35 71 33 35 74 34 36 74 34 36 75 34 36 75 32 34 72 32 34 73 36 35 75 36 35 75 33 35 74 33 35 73 33 35 73 35 37 75 35 37 75 32 36 73 33 35 74 34 36 74 35 37 75 33 35 74 32 34 73 33 35 73 33 35 74 33 35 74 32 34 73 33 36 71 34 36 75 33 35 74 33 35 74 33 35 74 33 35 73 32 34 73 33 35 73 33 36 71 31 33 72 31 33 72 32 34 73 33 35 73 32 34 73 33 32 74 33 32 72 31 33 72 33 32 72 32 34 73 31 33 72 32 34 73 30 32 70 31 33 71 31 33 72 31 33 72 31 33 71 31 34 69 31 34 69 31 34 69 31 33 71 32 32 66 32 32 68 31 33 71 30 32 70 31 34 69 31 34 69 31 33 71 31 33 71 31 33 71 31 33 71 31 33 71 31 33 71 31 33 71 31 33 71 31 33 71 31 33 71 31 33 71 31 33 71 30 32 70 31 33 71 30 32 70 32 32 68 32 32 66 30 33 66 31 33 71 30 34 71 29 33 70 27 31 68 
33 35 74 33 35 74 33 35 74 33 35 74 33 35 74 33 36 71 34 36 77 34 37 72 33 35 73 33 35 74 33 35 74 34 36 75 34 36 75 32 34 73 33 35 74 33 35 74 33 37 75 33 37 75 33 35 73 31 33 71 34 36 75 35 37 76 33 35 74 32 34 73 32 34 73 36 36 74 36 36 74 33 35 73 34 36 74 36 35 75 34 36 74 34 36 75 35 34 74 35 34 74 33 35 74 35 37 76 35 37 76 32 34 73 32 34 73 33 35 73 33 35 74 35 35 73 32 34 73 33 35 73 33 35 73 33 35 74 33 35 76 33 35 73 32 34 73 32 34 73 32 34 72 32 34 73 32 34 73 32 34 73 32 34 73 32 34 73 30 32 71 32 34 73 31 33 72 31 33 72 31 33 72 32 34 73 31 33 72 31 33 71 32 32 70 31 33 72 31 33 72 33 33 71 33 33 69 31 34 69 31 33 71 34 34 72 31 33 71 31 33 71 32 32 70 30 32 70 31 33 71 31 33 71 31 33 71 33 33 71 32 32 70 30 32 70 31 33 71 32 35 70 30 32 71 29 33 71 31 34 69 30 32 70 30 34 69 30 33 68 31 31 69 32 32 70 30 32 70 32 32 68 33 33 69 33 32 66 31 33 71 30 32 70 31 31 69 28 30 69 
33 35 74 34 36 75 35 37 76 34 36 74 33 35 74 33 35 73 35 37 76 35 37 76 34 36 74 33 35 74 32 34 73 31 34 77 31 34 75 33 35 73 33 35 73 33 35 74 31 34 77 33 35 76 33 35 73 31 35 72 34 36 75 35 37 76 33 35 76 31 32 78 31 32 76 32 34 72 35 34 74 33 35 76 35 37 76 33 35 76 32 34 75 31 32 76 35 37 76 35 37 76 33 35 74 32 34 73 32 34 73 32 33 77 32 33 77 33 35 74 35 34 74 33 35 74 32 34 72 33 35 74 34 36 75 32 34 72 32 34 72 32 34 72 32 34 72 31 33 72 31 33 72 32 34 73 33 35 73 33 35 76 31 33 72 32 34 73 33 35 73 32 34 72 31 33 71 31 34 69 32 35 70 33 35 73 33 35 73 32 34 73 32 34 73 32 34 73 32 33 77 30 32 71 31 33 71 30 32 70 31 33 72 31 33 72 30 32 70 31 33 71 30 32 70 31 33 71 31 33 71 31 34 69 31 34 69 31 34 69 31 33 71 31 33 71 33 33 71 30 32 70 30 34 69 30 33 68 30 33 68 31 34 69 31 33 71 32 32 66 31 31 65 29 32 67 29 31 69 29 31 69 30 33 68 31 34 69 28 30 69 28 30 68 28 31 66 31 31 65 
