P3
100 50
255
9 10 28 7 9 24 6 6 16 1 1 1 1 1 1 1 1 1 0 0 0 1 1 1 0 0 0 1 1 1 1 1 1 0 0 0 36 31 12 40 34 12 57 48 17 76 62 25 76 62 23 75 61 22 74 60 21 76 62 23 76 61 22 76 62 23 76 61 22 76 63 21 76 61 20 75 62 20 75 61 22 75 61 22 76 62 23 75 61 22 76 61 22 76 62 23 75 61 22 75 61 22 74 60 21 76 61 22 76 61 22 76 61 22 77 62 23 76 61 22 76 61 22 77 62 23 76 61 22 76 61 22 76 62 23 75 61 22 75 60 21 75 61 22 76 62 23 76 62 23 76 61 22 75 61 22 76 61 22 75 61 22 76 61 22 76 61 22 75 61 22 76 62 23 76 61 22 75 61 22 76 61 22 76 62 23 76 61 22 76 62 23 74 60 21 76 61 22 76 62 23 75 60 21 75 62 20 74 61 19 76 61 22 75 61 22 75 60 21 75 61 22 75 62 20 75 62 20 76 61 22 75 61 22 76 61 22 76 61 22 74 60 21 75 61 22 76 61 22 75 61 22 76 61 22 74 60 21 75 61 22 78 60 22 76 61 22 75 61 22 75 61 22 76 61 22 75 61 22 76 61 22 76 61 22 75 61 22 75 61 22 76 61 22 77 62 23 75 61 22 
9 10 28 7 9 24 6 6 16 1 1 1 1 1 1 1 1 1 0 0 0 1 1 1 1 1 1 2 2 2 0 0 0 0 0 0 37 30 11 42 36 12 59 48 18 76 62 25 77 63 24 75 61 22 74 60 21 77 61 25 75 61 22 76 62 23 75 61 22 75 60 19 75 62 20 76 61 20 75 61 22 76 61 22 75 61 22 76 61 22 75 61 22 76 61 22 75 61 22 75 61 22 75 61 22 76 61 22 75 61 22 76 62 23 75 61 22 76 62 23 75 61 22 75 61 22 74 60 21 75 61 22 75 61 22 77 63 24 75 61 22 74 60 21 75 61 22 76 62 23 74 60 21 75 61 22 76 61 22 74 60 21 75 61 22 76 61 22 75 60 21 75 61 22 74 60 21 75 60 21 74 60 21 75 61 22 75 61 22 75 61 22 76 62 23 76 61 22 76 62 23 76 61 22 75 62 20 75 62 20 75 61 22 75 61 22 76 61 22 75 61 22 76 61 20 75 62 20 76 61 22 75 61 22 76 61 22 76 61 22 75 61 22 75 61 22 76 61 22 75 61 22 76 61 22 75 60 21 75 61 22 75 61 22 76 61 22 75 61 22 75 61 22 77 62 23 76 62 23 76 61 22 76 61 22 76 62 23 74 60 21 76 61 22 76 61 22 76 62 23 
7 8 26 4 6 19 5 5 13 2 0 1 1 1 1 0 0 0 1 1 1 1 1 1 0 0 0 1 1 1 1 1 1 0 0 0 42 36 12 49 40 11 62 52 17 76 61 22 76 62 23 75 61 22 74 60 21 76 62 23 76 61 22 74 60 21 76 61 22 75 62 20 74 61 19 75 62 20 74 60 21 75 61 22 75 61 22 76 61 22 75 61 22 75 61 22 75 61 22 75 61 22 76 61 22 75 61 22 75 61 22 75 61 22 74 60 21 74 60 21 75 61 22 75 61 22 76 62 23 75 61 22 75 61 22 75 61 22 75 61 22 75 61 22 75 61 22 75 61 22 75 61 22 76 62 23 75 61 22 75 60 21 76 61 22 77 62 23 75 60 21 75 61 22 74 62 22 74 60 21 75 61 22 75 61 22 76 62 23 74 60 21 75 61 22 76 62 23 76 61 22 75 61 22 74 60 21 75 61 22 76 61 20 75 62 20 75 62 20 74 61 19 76 61 22 75 61 22 75 61 22 76 62 23 75 61 22 75 61 22 75 61 22 75 61 22 75 61 22 75 61 22 75 61 22 76 61 22 76 61 22 76 62 23 75 61 22 76 61 22 76 61 22 75 61 22 76 61 22 75 61 22 75 61 22 76 61 22 76 61 22 74 60 21 76 62 23 74 59 20 
6 9 26 5 7 20 5 5 15 1 1 1 1 1 1 0 0 0 1 1 1 0 0 0 1 1 1 1 1 1 0 0 0 2 2 2 42 36 12 47 40 11 62 52 17 76 63 21 76 62 23 74 60 21 75 61 22 75 61 22 75 61 22 74 60 21 75 61 22 74 61 19 76 63 21 75 62 20 75 61 22 75 61 22 75 60 21 74 60 21 74 60 21 75 61 22 75 61 22 76 61 22 75 61 22 76 62 23 74 60 21 74 60 21 75 61 22 75 61 22 75 61 22 75 61 22 75 61 22 75 61 22 74 60 21 74 62 22 76 62 23 75 61 22 76 62 23 75 61 22 75 61 22 75 61 22 75 61 22 76 61 22 75 61 22 76 62 23 75 60 21 76 61 22 75 61 22 75 61 22 75 61 22 75 61 22 76 62 23 74 60 21 75 61 22 76 61 22 75 61 22 76 61 22 75 62 20 74 61 19 75 61 22 75 61 22 75 60 21 74 60 21 76 61 20 75 62 20 75 61 22 75 61 22 75 61 22 75 61 22 75 61 22 76 62 23 76 62 23 75 61 22 75 61 22 75 61 22 76 61 22 75 60 21 75 61 22 76 61 22 75 60 21 75 61 22 75 61 22 76 61 22 76 61 22 76 62 23 74 60 21 76 61 22 76 61 22 76 62 23 
6 8 23 4 7 16 5 4 12 0 0 0 0 0 0 1 1 1 0 0 0 1 1 3 1 1 1 1 1 1 1 1 1 1 1 0 47 39 16 51 44 18 64 53 21 76 62 23 75 61 22 74 60 21 76 63 21 74 60 21 75 61 22 75 61 22 75 61 22 75 60 19 76 61 20 75 62 20 75 62 20 75 61 22 76 61 22 75 61 22 76 62 23 75 61 22 74 60 21 75 61 22 75 61 22 76 61 22 75 62 20 74 61 19 74 61 19 75 62 20 75 62 20 75 62 20 74 61 19 75 62 20 73 60 18 78 60 20 76 63 21 76 61 20 75 62 20 75 60 19 74 61 19 76 61 20 75 61 22 76 61 22 77 62 23 76 61 22 75 61 22 75 61 22 75 61 22 76 61 22 75 62 20 74 61 19 74 61 19 77 62 21 75 62 20 76 61 20 75 62 20 77 62 21 75 62 20 74 61 19 75 62 20 75 62 20 75 62 20 74 61 19 74 61 19 75 62 20 74 60 21 75 61 22 75 61 22 74 60 21 75 61 22 74 60 21 75 61 22 74 60 21 74 60 21 75 61 22 74 60 21 75 61 22 75 61 22 74 60 21 74 60 21 74 60 21 75 61 22 75 61 22 75 61 22 75 61 22 75 61 22 75 61 22 75 61 22 75 61 22 
6 8 23 5 5 15 4 5 10 1 1 1 1 1 1 0 0 2 1 1 1 0 0 0 2 2 2 0 0 0 1 1 1 1 1 1 47 39 18 53 47 21 65 54 22 76 62 23 76 62 23 76 62 23 75 61 22 75 61 22 75 61 22 77 62 23 76 61 22 76 61 22 76 61 20 76 61 20 76 61 20 75 61 22 76 61 22 75 61 22 75 61 22 75 61 22 75 61 22 75 61 22 74 60 21 77 62 23 75 62 20 75 62 20 76 61 20 74 61 19 75 60 19 74 61 19 75 62 20 76 61 20 74 62 20 76 61 20 76 61 20 75 62 20 75 62 20 76 61 20 76 61 20 75 62 20 76 61 22 74 60 21 75 61 22 75 61 22 76 62 23 76 61 22 74 60 21 74 60 21 76 61 20 75 62 20 76 61 20 75 62 20 76 61 20 75 62 20 75 62 20 75 62 20 74 61 19 75 62 20 75 62 20 74 61 19 75 62 20 75 62 20 75 62 20 75 62 20 75 61 22 75 61 22 76 62 23 76 62 23 75 61 22 75 61 22 75 61 22 76 62 23 75 61 22 75 61 22 74 60 21 75 61 22 75 61 22 76 62 23 75 61 22 75 61 22 75 61 22 75 61 22 75 61 22 75 61 22 74 60 21 75 61 22 74 60 21 74 60 21 
5 7 20 5 5 13 3 2 8 0 0 0 0 0 0 1 1 3 0 0 0 0 0 0 1 1 1 1 1 1 1 1 1 1 1 1 49 41 18 56 49 20 66 56 21 77 63 24 75 61 22 76 62 23 75 61 22 75 61 24 75 61 22 76 61 22 76 61 22 76 61 22 76 61 20 75 60 19 76 61 22 75 61 22 75 61 22 74 60 21 75 61 22 76 62 23 75 61 22 74 60 21 75 61 22 75 61 22 75 61 22 75 60 21 75 61 22 76 61 22 76 62 23 74 60 21 76 61 22 75 61 22 76 61 22 75 61 22 74 60 21 76 61 22 75 60 21 75 61 22 75 61 22 76 61 22 75 61 22 75 61 22 76 62 23 75 61 22 75 61 22 74 60 21 76 62 23 74 60 21 75 61 22 75 61 22 75 61 22 75 61 22 75 61 22 75 60 21 75 60 21 76 61 22 75 61 22 75 61 22 75 61 22 75 61 22 75 61 22 74 60 21 75 61 22 74 60 21 75 61 22 75 61 22 75 61 22 75 61 22 75 61 22 74 60 21 75 61 22 75 61 22 75 61 22 74 60 21 75 61 22 75 61 22 75 61 22 74 60 21 74 60 21 75 61 22 75 61 22 74 60 21 75 61 22 73 59 20 75 61 22 74 60 21 75 61 22 75 61 22 
5 5 17 2 3 8 1 2 6 1 1 1 0 0 0 0 0 0 1 1 1 0 0 0 0 0 0 0 0 0 3 3 3 3 3 3 55 46 13 63 53 17 67 58 19 76 62 23 76 62 23 75 61 22 75 61 22 76 62 23 75 61 22 75 61 22 75 61 22 76 61 22 76 61 22 75 61 22 74 60 21 74 60 21 75 61 22 75 61 22 73 59 20 74 60 21 75 61 22 75 61 22 74 60 21 75 61 22 76 61 22 75 61 22 75 60 21 75 61 22 75 61 22 76 61 22 73 59 20 74 62 22 75 61 22 76 61 22 76 61 22 75 61 22 76 61 22 76 61 22 76 61 22 75 61 22 76 61 22 75 61 22 74 60 21 76 62 23 76 62 23 76 61 22 76 62 23 75 61 22 74 60 21 77 62 23 74 60 21 75 60 21 75 61 22 76 61 22 76 62 23 74 60 21 75 61 22 75 61 22 75 61 22 75 61 22 74 60 21 75 61 22 74 60 21 75 61 22 74 60 21 74 60 21 75 61 22 75 61 22 74 60 21 74 60 21 74 60 21 75 61 22 75 61 22 75 61 22 75 61 22 74 60 21 75 61 22 76 62 23 76 62 23 75 61 22 74 60 21 74 60 21 73 59 20 74 60 21 74 60 21 75 61 22 74 60 21 76 62 23 
5 5 15 3 4 9 2 1 6 0 0 0 0 0 0 1 1 1 1 1 1 1 1 1 1 1 1 1 1 1 3 3 3 3 3 5 56 45 13 63 53 17 70 58 20 76 62 23 75 63 23 74 60 21 75 61 22 74 60 21 75 61 22 75 61 22 75 61 22 76 61 22 76 61 22 74 60 21 73 59 20 75 61 22 75 61 22 74 60 21 75 61 22 75 61 22 75 61 22 75 61 22 75 61 22 75 61 22 78 60 22 75 60 21 75 61 22 76 61 22 76 61 22 74 60 21 76 61 22 75 61 22 76 61 22 75 61 22 75 61 22 75 61 22 77 62 23 75 61 22 75 61 22 76 61 22 74 60 21 75 61 22 74 60 21 75 61 22 75 61 22 74 60 21 76 62 23 73 59 20 74 60 21 74 60 21 76 61 22 74 60 21 75 60 21 75 61 22 75 60 21 75 61 22 75 61 22 75 61 22 75 61 22 75 61 22 75 61 22 74 60 21 74 60 21 75 61 22 74 60 21 74 60 21 75 61 22 75 61 22 75 61 22 75 61 22 75 61 22 74 60 21 75 61 22 75 61 22 74 60 21 75 61 22 75 61 22 74 60 21 75 61 22 75 61 22 75 61 22 75 61 22 75 61 22 75 61 22 75 61 22 75 61 22 74 60 21 74 60 21 
3 4 9 1 1 3 1 1 3 1 1 1 1 1 0 1 1 1 0 0 0 2 2 2 1 1 1 4 3 1 10 9 4 10 9 5 61 51 16 68 59 18 71 59 19 75 61 22 74 60 21 75 61 22 75 61 22 76 62 23 75 61 22 76 61 22 76 61 22 76 61 22 76 61 22 76 61 22 76 61 22 74 60 21 75 61 22 74 60 21 74 60 21 74 60 21 75 61 22 73 59 20 74 60 21 75 61 22 76 61 22 75 61 22 75 60 21 76 61 22 75 61 22 75 60 21 74 60 21 76 61 22 74 60 21 76 61 22 76 61 22 74 60 21 75 61 22 75 60 21 75 60 21 75 61 22 74 60 21 74 60 21 78 60 22 75 60 21 75 61 22 75 61 22 75 61 22 77 62 23 75 61 22 75 61 22 75 61 22 75 61 22 74 60 21 76 62 23 75 60 21 76 61 22 75 61 22 74 60 21 74 60 21 75 61 22 75 61 22 74 60 21 75 61 22 75 61 22 75 61 22 75 61 22 75 61 22 73 59 20 75 61 22 75 61 22 74 60 21 74 60 21 74 60 21 75 61 22 74 60 21 74 60 21 75 61 22 74 60 21 75 61 22 75 61 22 75 61 22 74 60 21 75 61 22 75 61 22 75 61 22 74 60 21 75 61 22 73 59 20 
4 3 9 1 1 3 1 1 3 0 0 0 0 0 0 0 0 0 0 0 0 2 2 2 1 1 1 4 3 1 12 9 4 12 8 5 61 51 16 70 58 18 69 60 19 75 61 22 73 59 20 75 61 22 75 61 22 75 61 22 75 61 22 75 60 21 75 60 21 76 61 22 74 59 20 75 60 21 76 61 22 74 60 21 74 60 21 75 61 22 74 60 21 77 62 23 75 60 21 74 60 21 74 60 21 75 61 22 74 60 21 75 60 21 76 61 22 74 60 21 76 61 22 75 61 22 75 60 21 75 60 21 75 60 21 75 61 22 75 61 22 75 60 21 75 60 21 74 60 21 74 60 21 78 60 22 76 61 22 75 61 22 75 61 22 74 60 21 76 62 23 76 61 22 75 61 22 75 61 22 75 60 21 75 60 21 74 60 21 76 61 22 75 61 22 74 60 21 75 61 22 75 61 22 74 60 21 75 61 22 74 60 21 75 61 22 74 60 21 75 61 22 74 60 21 75 61 22 75 60 21 76 61 22 75 60 21 76 61 22 75 60 21 75 60 21 77 62 23 76 61 22 75 60 21 77 62 23 75 60 21 75 60 21 76 61 22 76 61 22 75 60 21 75 60 21 75 60 21 75 60 21 75 60 21 76 61 22 75 60 21 76 61 22 76 61 22 76 61 22 
4 3 8 0 0 0 0 0 0 1 1 1 0 0 0 1 1 1 1 1 1 1 1 1 1 1 1 6 5 1 20 17 8 20 17 8 66 53 18 73 59 20 74 60 21 75 61 24 75 63 25 74 60 21 75 61 22 74 60 21 75 61 22 75 61 22 75 61 22 75 60 21 75 60 21 75 61 22 75 61 22 75 61 22 75 61 22 75 61 22 76 62 23 75 60 21 75 60 21 75 61 22 75 61 22 75 61 22 75 60 21 76 61 22 76 61 22 75 60 21 75 60 21 75 60 21 76 61 22 75 60 21 74 60 21 75 60 21 74 60 21 75 60 21 74 60 21 75 60 21 73 61 21 75 60 21 76 61 22 74 60 21 75 61 22 75 61 22 74 60 21 75 60 21 75 61 22 74 60 21 76 62 23 74 60 21 75 61 22 75 61 22 76 61 22 74 60 21 75 60 21 75 61 22 73 59 20 74 60 21 75 61 22 74 60 21 74 60 21 75 61 22 75 61 22 75 61 22 75 60 21 75 60 21 75 60 21 75 60 21 76 61 22 75 60 21 75 60 21 75 60 21 75 60 21 76 61 22 75 60 21 75 60 21 76 61 22 76 61 22 74 59 20 75 60 21 75 60 21 76 61 22 75 60 21 75 60 21 76 61 22 75 60 21 75 60 21 75 60 21 
3 2 7 1 1 1 0 0 0 1 1 1 0 0 0 1 1 1 0 0 0 1 1 0 0 0 0 7 6 2 27 24 9 29 23 9 69 56 21 73 59 20 75 61 22 75 61 22 75 61 22 74 60 21 75 61 22 75 61 22 75 61 22 75 61 24 75 61 22 75 61 22 74 60 21 75 61 22 74 60 23 74 60 21 76 61 22 76 61 22 74 60 21 75 60 21 74 62 22 75 60 21 74 60 21 75 60 21 75 60 21 75 60 21 76 61 22 73 59 20 74 60 21 75 61 22 75 61 22 73 59 20 74 60 21 74 60 21 74 60 21 74 60 21 75 61 22 75 61 22 74 60 21 74 60 21 75 60 21 75 61 22 74 60 21 75 61 22 74 60 21 75 61 22 75 61 22 75 60 21 75 61 22 74 60 21 75 61 22 75 61 22 74 60 21 74 60 21 74 60 21 75 61 22 74 60 21 74 60 21 74 60 21 75 62 20 74 60 21 74 60 21 75 61 22 75 61 22 74 60 21 74 60 21 75 61 22 74 60 21 74 60 21 76 62 23 73 59 20 75 61 22 75 61 22 74 60 21 74 60 21 75 61 22 75 61 22 74 60 21 75 61 22 74 60 21 73 59 20 75 61 22 76 62 23 74 60 21 75 61 22 75 61 22 74 60 21 74 60 21 
2 1 6 1 1 0 0 0 0 1 1 1 0 0 0 1 1 1 0 0 0 0 0 0 0 0 0 8 7 3 32 25 9 31 25 9 70 57 22 76 62 23 75 61 22 74 60 23 74 60 23 74 60 21 75 61 22 74 60 21 75 61 24 75 61 22 74 60 21 75 61 22 75 61 22 75 61 22 74 60 21 75 61 22 76 61 22 75 60 21 75 60 21 75 61 22 75 60 21 74 60 21 75 60 21 75 60 21 74 60 21 74 60 21 75 61 22 74 60 21 73 59 20 74 60 21 75 61 22 76 61 22 74 60 21 74 60 21 74 60 21 74 60 21 74 60 21 75 61 22 74 60 21 75 61 22 73 59 20 74 60 21 74 60 21 75 60 21 76 61 22 74 60 21 75 61 22 74 60 21 74 60 21 74 60 21 74 60 21 74 60 21 74 60 21 75 61 22 75 61 22 74 60 21 74 60 21 74 60 21 74 60 21 74 60 21 75 62 18 74 60 21 74 60 21 75 61 22 74 60 21 74 60 21 75 61 22 74 60 21 74 60 21 74 60 21 74 60 21 74 60 21 75 61 22 74 60 21 75 61 22 74 60 21 74 60 21 74 60 21 75 61 22 74 60 21 75 61 22 74 60 21 74 60 21 73 59 20 74 60 21 74 60 21 74 60 21 73 59 20 
2 1 6 1 1 1 1 1 1 1 1 1 1 1 1 1 1 1 1 1 1 1 1 1 1 0 0 12 9 4 40 33 14 40 33 14 71 58 23 75 61 24 75 61 22 75 61 24 74 60 25 75 61 22 75 61 24 75 61 22 75 61 24 75 61 22 73 59 20 75 61 22 74 60 21 73 59 22 74 60 21 75 61 22 75 60 21 75 61 22 75 60 21 75 61 22 74 60 21 75 61 22 75 60 21 75 61 22 75 60 21 74 60 21 74 60 21 74 60 21 77 59 21 76 61 22 75 60 21 74 60 21 74 60 21 74 60 21 73 59 20 75 61 22 73 59 20 74 60 21 74 60 21 75 61 22 74 60 21 73 59 20 74 60 21 75 60 21 76 61 22 75 61 22 73 59 20 75 61 22 73 59 20 74 60 21 74 60 21 74 60 21 75 61 22 74 60 21 75 61 22 75 61 22 75 61 22 74 60 21 75 61 22 74 60 21 74 60 21 74 60 21 74 60 21 74 60 21 74 60 21 74 60 21 74 60 21 74 60 21 75 61 22 75 61 22 74 60 21 74 60 21 74 60 21 73 59 20 74 60 21 75 61 22 75 61 22 73 59 20 74 60 21 75 61 22 73 59 20 73 59 20 76 62 23 74 60 21 74 60 21 75 61 22 74 60 21 74 60 21 
2 1 6 0 0 0 1 1 0 0 0 0 1 1 1 1 1 1 0 0 0 0 0 0 1 0 0 10 9 4 40 34 12 40 34 12 72 58 23 75 61 24 76 63 21 74 60 21 75 61 24 75 61 22 75 61 24 75 61 24 75 61 22 74 60 21 75 61 22 74 61 19 75 61 22 74 60 21 75 62 20 74 60 21 74 60 21 73 59 20 75 60 21 74 60 21 75 60 21 74 60 21 74 60 21 74 60 21 75 61 22 74 60 21 74 60 21 75 61 22 74 60 21 74 60 21 73 59 20 74 59 20 75 61 22 73 59 20 74 60 21 75 61 22 74 60 21 74 60 21 74 60 21 74 60 21 75 60 21 74 60 21 75 61 22 76 62 23 74 60 21 75 61 22 75 61 22 77 62 23 75 61 22 75 61 22 74 60 21 74 60 21 74 60 21 74 60 21 73 59 20 75 61 22 74 60 21 74 60 21 74 60 21 75 62 20 74 60 21 74 60 21 74 60 21 74 60 21 75 61 22 74 60 21 74 60 21 74 60 21 73 59 20 74 60 21 74 60 21 74 60 21 74 60 21 75 61 22 75 61 22 74 60 21 74 60 21 74 60 21 74 60 21 74 60 21 75 61 22 75 61 22 73 59 20 75 61 22 75 61 22 74 60 21 74 60 21 74 60 21 
1 1 1 1 1 1 0 0 0 0 0 0 0 0 0 1 1 1 1 1 1 4 3 1 6 2 1 19 15 4 59 49 14 60 52 16 73 59 22 76 62 23 76 62 23 74 60 21 74 60 25 75 61 22 75 61 22 74 60 21 73 59 22 73 59 20 74 60 21 74 60 21 75 61 22 73 59 20 74 60 21 74 60 21 73 61 21 73 59 20 73 59 20 74 60 21 74 60 21 74 60 21 73 61 21 74 60 21 74 60 21 75 61 22 74 60 21 74 60 21 75 60 21 75 60 21 75 60 21 75 61 22 74 60 21 75 61 22 74 60 21 75 61 22 75 61 22 74 60 21 74 60 21 74 60 21 75 60 21 74 60 21 73 59 20 75 61 22 73 59 20 75 61 22 74 60 21 76 61 22 73 59 20 74 60 21 75 61 22 74 60 21 74 60 21 74 60 21 74 60 21 74 60 21 74 60 21 74 60 21 74 60 21 74 60 21 75 62 20 74 60 21 74 60 21 74 60 21 74 60 21 74 60 21 74 60 21 74 60 21 74 60 21 73 59 20 75 61 22 75 61 22 75 61 22 74 60 21 75 61 22 74 60 21 75 61 22 75 61 22 74 60 21 75 61 22 74 60 21 74 60 21 74 60 21 74 60 21 74 60 21 75 61 22 74 60 21 74 60 21 
0 0 0 1 1 1 1 1 1 1 1 1 1 1 1 0 0 2 1 1 1 4 3 1 7 3 2 22 15 5 62 52 16 62 52 16 74 60 23 74 62 22 75 61 22 75 61 22 74 60 23 75 61 22 74 60 21 74 60 21 75 61 22 74 60 21 74 60 21 74 60 21 75 61 22 74 61 19 75 61 22 75 61 22 74 60 21 74 60 21 75 61 22 74 59 20 75 61 22 75 60 21 74 60 21 75 61 22 74 60 21 75 60 21 75 60 21 75 60 21 74 60 21 74 60 21 75 60 21 75 60 21 74 60 21 74 60 21 74 60 21 75 61 22 74 60 21 74 60 21 74 60 21 75 61 22 74 60 21 75 61 22 74 60 21 76 61 22 75 60 21 76 62 23 74 60 21 74 60 21 74 60 21 74 60 21 73 59 20 73 59 20 74 60 21 75 61 22 74 60 21 74 60 21 74 60 21 74 60 21 74 60 21 73 59 20 74 60 21 74 60 21 74 60 21 74 60 21 74 60 21 75 61 22 73 59 20 75 61 22 74 60 21 75 61 22 73 59 20 74 60 21 74 60 21 73 59 20 74 60 21 74 60 21 74 60 21 74 60 21 74 60 21 73 59 20 74 60 21 74 60 21 74 60 21 74 60 21 74 60 21 74 60 21 75 61 22 74 60 21 
1 1 1 0 0 2 1 1 1 1 1 1 1 1 0 1 1 1 1 1 1 10 6 3 14 11 4 28 22 8 71 57 20 69 57 19 74 60 23 74 62 24 74 60 21 75 61 22 74 60 21 74 60 21 74 60 23 74 60 23 75 61 22 74 60 23 74 60 21 74 60 21 74 60 21 74 60 21 75 61 22 75 61 22 74 60 21 73 59 20 75 61 22 74 60 21 74 60 21 74 60 21 73 59 20 75 61 22 73 59 20 74 60 21 74 60 21 74 60 21 74 60 21 74 60 21 74 60 21 74 60 21 74 60 21 75 61 22 74 60 21 74 60 21 75 61 22 74 60 21 74 60 21 75 61 22 75 61 22 74 60 21 74 60 21 76 61 22 76 61 22 74 60 21 75 61 22 73 59 20 74 60 21 74 60 21 73 59 20 74 60 21 75 61 22 74 60 21 75 61 22 75 61 22 74 60 21 74 60 21 72 58 19 75 62 18 74 60 21 73 59 20 75 61 22 74 60 21 74 60 21 73 59 20 74 60 21 74 60 21 74 60 21 74 60 21 74 60 21 74 60 21 74 60 21 75 61 22 74 60 21 74 60 21 74 60 21 74 60 21 75 61 22 74 60 21 74 60 21 73 59 20 75 61 22 75 61 22 75 61 22 74 60 21 74 60 21 74 60 21 
1 1 1 1 1 1 0 0 0 1 1 1 0 0 0 1 1 1 0 0 0 14 11 6 21 17 5 35 28 10 74 61 19 74 60 21 75 61 22 72 60 22 74 60 23 74 60 23 73 59 22 74 60 23 74 60 21 75 61 24 73 59 22 73 59 20 75 61 22 73 59 20 75 61 22 75 61 22 74 60 21 74 60 21 74 60 21 74 60 21 74 60 21 74 60 21 74 60 21 74 60 21 74 60 21 74 60 21 75 60 21 75 60 21 75 60 21 75 60 21 74 60 21 74 60 21 74 62 22 74 60 21 75 61 22 74 60 21 74 60 21 74 60 21 74 60 21 74 60 21 75 61 22 73 59 20 75 60 21 75 61 22 75 61 22 74 60 21 75 61 22 74 60 21 74 60 21 75 60 21 75 61 22 74 60 21 75 61 22 75 61 22 74 60 21 75 61 22 75 61 22 74 60 21 74 60 21 74 60 21 74 60 21 74 60 21 75 62 20 74 60 21 74 60 21 73 59 20 74 60 21 73 59 20 74 60 21 75 61 22 74 60 21 74 60 21 74 60 21 74 60 21 74 60 21 75 61 22 74 60 21 74 60 21 75 61 22 74 60 21 73 59 20 75 61 22 75 61 22 75 61 22 74 60 21 75 61 22 75 61 22 72 58 19 74 60 21 74 60 21 
1 1 0 0 0 0 0 0 4 0 0 0 1 1 1 1 1 3 1 1 3 15 12 5 24 22 7 36 29 10 75 61 22 74 60 21 74 60 21 76 62 25 73 59 22 75 61 22 74 60 23 74 60 21 74 60 21 73 59 22 74 60 23 75 61 22 74 60 21 75 61 22 74 60 21 73 59 20 74 60 21 74 60 21 75 61 22 74 60 21 74 60 21 74 60 21 74 60 21 73 59 20 74 60 21 74 60 21 74 60 21 74 60 21 74 60 21 73 59 20 74 60 21 74 60 21 75 61 22 75 61 22 75 61 22 74 60 21 74 60 21 74 60 21 74 60 21 74 60 21 75 61 22 73 59 20 74 60 21 73 59 20 75 61 22 74 60 21 74 60 21 74 60 21 74 60 21 75 61 22 74 60 21 74 60 21 74 60 21 75 61 22 74 60 21 74 60 21 74 60 21 74 60 21 75 61 22 74 60 21 74 60 21 75 61 22 73 59 20 74 60 21 74 60 21 73 59 20 73 59 20 74 60 21 74 60 21 73 59 20 74 60 21 74 60 21 74 60 21 74 60 21 74 60 21 74 60 21 74 60 21 74 60 21 74 60 21 74 60 21 74 60 21 74 60 21 73 59 20 74 60 21 75 61 22 74 60 21 74 60 21 75 61 22 74 60 21 74 60 21 
0 0 0 1 1 1 1 1 1 0 0 0 0 0 0 0 0 2 0 0 0 31 25 9 47 40 11 55 46 15 75 61 24 75 61 24 74 60 23 74 60 21 74 60 23 74 60 21 75 61 24 75 61 22 74 60 23 74 60 21 74 60 23 75 61 22 74 60 21 74 60 21 75 61 22 74 60 21 74 60 21 73 59 20 74 60 21 74 60 21 75 61 22 74 60 21 74 60 21 74 60 21 73 59 20 74 60 21 74 60 21 74 60 21 76 62 23 74 60 21 75 61 22 75 61 22 74 60 21 74 60 21 74 60 21 74 60 21 74 60 21 74 60 21 74 60 21 74 60 21 75 61 22 73 59 20 74 60 21 74 60 21 74 60 21 74 60 21 74 60 21 73 59 20 75 61 22 74 60 21 75 61 22 74 60 21 74 60 21 74 60 21 74 60 21 74 60 21 75 61 22 74 60 21 75 61 22 75 61 22 74 60 21 74 60 21 74 60 21 74 60 21 73 59 20 74 60 21 74 60 21 74 60 21 74 60 21 74 60 21 74 60 21 74 60 21 74 60 21 73 59 20 74 60 21 74 60 21 75 61 22 75 61 22 74 60 21 73 59 20 74 60 21 75 61 22 75 61 22 75 61 22 74 60 21 74 60 21 74 60 21 73 59 20 74 60 21 74 60 21 
1 1 1 0 0 0 0 0 0 0 0 0 1 1 1 1 1 1 1 3 2 31 26 7 47 40 12 54 45 14 75 63 25 74 60 23 75 61 24 75 61 22 74 60 23 75 61 22 75 61 24 75 61 22 73 59 22 74 60 21 74 60 23 75 61 22 74 60 21 73 59 20 75 61 22 75 61 22 74 60 21 74 60 21 74 60 21 75 61 22 74 60 21 74 60 21 74 60 21 73 59 20 74 60 21 73 59 20 74 60 21 74 60 21 74 60 21 73 59 20 74 60 21 74 60 21 73 59 20 73 59 20 74 60 21 75 61 22 73 59 20 74 60 21 75 61 22 74 60 21 73 59 20 74 60 21 74 60 21 74 60 21 74 60 21 73 59 20 74 60 21 73 59 20 74 60 21 74 60 21 74 60 21 74 60 21 74 60 21 75 61 22 74 60 21 75 61 22 74 60 21 74 60 21 74 60 21 74 60 21 74 60 21 74 60 21 74 60 21 74 60 21 73 59 20 74 60 21 73 59 20 74 60 21 74 60 21 74 60 21 76 62 23 74 60 21 74 60 21 74 60 21 74 60 21 74 60 21 74 60 21 74 60 21 74 60 21 74 60 21 74 60 21 74 60 21 74 60 21 74 60 21 75 61 22 74 60 21 74 60 21 75 61 22 74 60 21 74 60 21 
1 1 3 0 0 0 0 0 0 0 0 0 0 0 0 11 10 5 13 10 5 43 35 12 63 53 17 67 55 17 74 60 23 74 60 21 74 60 21 75 61 24 75 61 24 75 61 22 73 59 22 74 60 21 75 61 22 75 61 24 74 60 23 74 60 21 74 60 21 74 60 21 75 61 22 74 60 21 74 60 21 74 60 21 74 60 21 74 60 21 75 61 22 74 60 21 74 60 21 74 60 21 74 60 21 74 60 21 74 60 21 74 60 21 74 60 21 74 60 21 73 59 20 73 59 20 74 60 21 73 59 20 74 60 21 73 59 20 74 60 21 74 60 21 74 60 21 74 60 21 74 60 21 74 60 21 74 60 21 73 59 20 74 60 21 74 60 21 74 60 21 74 60 21 76 62 23 74 60 21 73 59 20 74 60 21 74 60 21 74 60 21 73 59 20 74 60 21 74 60 21 74 60 21 74 60 21 74 60 21 74 60 21 73 59 20 74 60 21 74 60 21 74 60 21 74 60 21 74 60 21 74 60 21 74 60 21 75 61 22 74 60 21 74 60 21 74 60 21 75 61 22 74 60 21 74 60 21 74 60 21 74 60 21 74 60 21 74 60 21 74 60 21 74 60 21 74 60 21 74 60 21 74 60 21 74 60 21 74 60 21 74 60 21 74 60 21 75 61 22 
2 2 2 1 1 1 1 1 1 0 0 0 0 0 0 16 13 6 16 13 4 50 40 13 69 57 17 72 57 18 75 61 22 75 61 22 74 60 21 74 60 23 74 60 23 74 60 21 74 60 23 73 59 20 73 59 20 73 59 22 74 60 23 74 60 21 74 60 21 74 60 21 74 60 21 74 60 21 74 60 21 75 61 22 74 60 21 74 60 21 74 60 21 74 60 21 73 59 20 73 59 20 74 60 21 74 60 21 74 60 21 74 60 21 73 59 20 74 60 21 74 60 21 74 60 21 75 61 22 74 60 21 74 60 21 74 60 21 74 60 21 74 60 21 74 60 21 74 60 21 73 59 20 74 60 21 74 60 21 74 60 21 74 60 21 73 59 20 74 60 21 74 60 21 74 60 21 74 60 21 74 60 21 73 59 20 75 61 22 74 60 21 73 59 20 74 60 21 74 60 21 74 60 21 73 59 20 74 60 21 74 60 21 74 60 21 74 60 21 74 60 21 74 60 21 74 60 21 74 60 21 74 60 21 74 60 21 74 60 21 75 61 22 74 60 21 74 60 21 74 60 21 73 59 20 74 60 21 73 59 20 74 60 21 74 60 21 73 59 20 73 59 20 74 60 21 74 60 21 75 61 22 74 60 21 75 61 22 74 60 21 74 60 21 74 60 21 74 60 21 
1 1 1 0 0 0 1 1 3 1 1 1 1 1 0 25 22 7 25 21 9 51 44 16 70 58 16 71 57 18 74 60 21 75 61 24 74 60 23 74 60 21 74 60 23 74 60 21 73 59 22 74 60 21 74 60 23 74 60 21 73 59 22 75 61 22 74 60 21 74 60 21 74 60 21 74 60 21 74 60 21 75 61 22 74 60 21 74 60 21 74 60 21 74 60 21 74 60 21 74 60 21 74 60 21 74 60 21 73 59 20 74 60 21 73 59 20 74 60 21 74 60 21 74 60 21 73 59 20 74 60 21 74 60 21 73 59 20 74 60 21 74 60 21 74 60 21 73 59 20 74 60 21 74 60 21 74 60 21 74 60 21 74 60 21 73 59 20 74 60 21 74 60 21 74 60 21 74 60 21 73 59 20 74 60 21 72 58 19 75 61 22 73 59 20 74 60 21 74 60 21 73 59 20 74 60 21 74 60 21 73 59 20 74 60 21 73 59 20 74 60 21 74 60 21 74 60 21 74 60 21 75 61 22 73 59 20 74 60 21 74 60 21 74 60 21 74 60 21 75 61 22 74 60 21 74 60 21 74 60 21 74 60 21 74 60 21 75 61 22 73 59 20 75 61 22 73 59 20 74 60 21 74 60 21 75 61 22 74 60 21 74 60 21 73 59 20 74 60 21 
1 1 1 1 1 1 0 0 0 1 1 1 0 0 2 41 34 15 39 33 11 61 50 20 75 61 24 74 60 23 74 60 23 75 59 23 74 60 23 74 60 21 74 60 23 74 60 21 74 60 23 74 60 21 74 60 23 74 60 21 74 60 23 74 60 21 74 60 21 74 60 21 73 59 20 74 60 21 74 60 21 74 60 21 73 59 20 74 60 21 74 60 21 74 60 21 74 60 21 74 60 21 73 59 20 74 60 21 74 60 21 74 60 21 73 59 20 74 60 21 73 59 20 74 60 21 73 59 20 74 60 21 74 60 21 74 60 21 74 60 21 74 60 21 73 59 20 74 60 21 74 60 21 73 59 20 73 59 20 73 59 20 73 59 20 73 59 20 74 60 21 73 59 20 75 61 22 74 60 21 74 60 21 74 60 21 73 59 20 74 60 21 74 60 21 74 60 21 74 60 21 74 60 21 73 59 20 74 60 21 73 59 20 74 60 21 73 59 20 74 60 21 73 59 20 74 60 21 74 60 21 74 60 21 74 60 21 74 60 21 73 59 20 74 60 21 74 60 21 74 60 21 73 59 20 74 60 21 74 60 21 74 60 21 74 60 21 73 59 20 74 60 21 74 60 21 73 59 20 74 60 21 74 60 21 73 59 20 73 59 20 74 60 21 75 61 22 74 60 21 
0 0 0 1 1 3 0 0 0 0 0 0 1 1 1 39 33 11 39 34 14 61 50 18 75 61 22 75 61 24 74 60 21 74 60 21 75 61 22 74 60 23 75 61 24 74 60 21 73 59 22 74 60 21 74 60 21 74 60 23 75 61 24 74 60 21 74 60 21 74 60 21 74 60 21 74 60 21 75 61 22 74 60 21 74 60 21 74 60 21 74 60 21 74 60 21 73 59 20 74 60 21 74 60 21 74 60 21 73 59 20 74 60 21 73 59 20 75 61 22 74 60 21 74 60 21 74 60 21 74 60 21 74 60 21 74 60 21 74 60 21 74 60 21 73 59 20 75 61 22 73 59 20 73 59 20 74 60 21 74 60 21 74 60 21 73 59 20 74 60 21 74 60 21 74 60 21 74 60 21 74 60 21 74 60 21 73 59 20 74 60 21 74 60 21 72 58 19 74 60 21 72 58 19 74 60 21 74 60 21 74 60 21 74 60 21 73 59 20 74 60 21 74 60 21 73 59 20 73 59 20 74 60 21 73 59 20 74 60 21 74 60 21 74 60 21 74 60 21 74 60 21 74 60 21 73 59 20 74 60 21 74 60 21 74 60 21 73 59 20 74 60 21 74 60 21 74 60 21 74 60 21 74 60 21 73 59 20 74 60 21 73 59 20 74 60 21 73 59 20 
1 1 1 2 2 2 6 5 1 15 12 5 16 13 6 66 57 18 69 57 17 73 59 20 74 60 23 72 60 20 73 59 20 73 59 20 74 60 23 74 60 23 73 59 22 74 60 23 75 61 24 74 60 23 74 60 23 74 60 23 74 60 23 74 60 23 74 60 21 74 60 21 74 60 21 74 60 21 73 59 20 73 59 22 74 60 21 73 59 20 72 58 19 74 60 21 74 60 21 73 59 20 74 60 21 73 59 20 73 59 20 74 60 21 73 59 22 73 59 20 74 60 21 73 59 20 74 60 21 73 59 22 73 59 20 74 60 21 74 60 21 74 60 21 74 60 21 74 60 21 73 59 20 74 60 21 73 59 20 73 59 20 74 60 21 73 59 20 74 60 21 74 60 21 74 60 21 74 60 21 75 61 22 75 61 22 74 60 21 74 60 21 73 59 20 73 59 20 74 60 21 74 60 21 73 59 20 72 58 21 74 60 21 74 60 21 74 60 21 74 60 21 74 60 21 73 59 20 75 61 22 74 60 21 75 61 22 74 60 21 74 60 21 74 60 21 73 59 20 74 60 21 74 60 21 75 61 22 73 59 20 74 60 21 74 60 21 74 60 21 73 59 20 73 59 20 74 60 21 74 60 21 74 60 21 74 60 21 73 59 20 74 60 21 72 58 19 74 60 21 
1 1 1 1 1 1 6 5 1 16 13 4 17 12 6 68 56 16 67 58 17 73 59 22 74 60 21 74 60 23 73 61 23 74 60 23 74 60 23 74 60 23 73 59 22 74 60 23 74 60 23 74 60 23 73 59 22 74 60 23 74 60 23 74 60 23 74 60 21 74 60 21 73 59 20 73 59 20 73 59 20 73 59 22 73 59 20 73 59 20 74 60 21 73 59 20 74 60 21 73 59 20 74 60 21 74 60 21 73 59 20 74 60 21 74 60 21 74 60 21 74 60 21 74 60 21 73 59 20 74 60 21 73 59 20 73 59 20 73 59 20 74 60 21 73 59 20 73 59 20 74 60 21 74 60 21 73 59 20 73 59 20 73 59 20 74 60 21 73 59 20 74 60 21 74 60 21 74 60 21 74 60 21 74 60 21 73 59 20 73 59 20 73 59 20 73 59 20 73 59 20 74 60 21 74 61 19 74 60 21 73 59 20 74 60 21 73 59 22 74 60 21 73 59 20 73 59 20 74 60 21 73 59 20 74 60 21 73 59 20 74 60 21 75 61 22 74 60 21 74 60 21 74 60 21 74 60 21 74 60 21 73 59 20 74 60 21 73 59 20 73 59 20 74 60 21 74 60 21 73 59 20 73 59 20 73 59 20 73 59 20 74 60 21 73 59 20 72 58 19 
1 1 1 1 1 1 15 12 3 37 30 11 37 30 11 72 60 20 72 60 22 73 59 20 74 60 21 74 60 23 74 60 21 73 61 23 74 60 23 74 60 23 74 60 23 73 59 22 75 61 24 74 60 23 74 60 23 74 60 23 74 60 23 73 59 20 74 60 21 74 60 21 73 59 20 74 60 21 74 60 21 73 59 20 73 59 20 74 60 21 73 59 20 74 60 21 74 60 21 73 59 20 74 60 21 74 60 21 74 60 21 74 60 21 73 59 20 74 60 21 74 60 21 73 59 20 73 59 20 74 60 21 74 60 21 74 60 21 73 59 20 73 59 20 72 58 19 73 59 20 73 59 20 73 59 20 74 60 21 73 59 20 73 59 20 74 60 21 73 59 20 74 60 21 74 60 21 73 59 20 74 60 21 74 60 21 74 60 21 73 59 20 74 60 21 72 58 19 74 60 21 74 60 21 74 60 21 73 59 20 73 59 20 74 60 21 73 59 20 74 60 23 74 60 21 73 59 20 74 60 21 73 59 20 73 59 20 74 60 21 73 59 20 74 60 21 74 60 21 74 60 21 73 59 20 73 59 22 74 60 21 73 60 18 73 59 20 73 59 20 72 58 19 73 59 22 74 60 21 73 59 20 74 60 21 72 58 19 74 60 21 72 58 19 73 59 20 73 59 20 
1 1 1 0 2 1 18 16 4 47 37 10 46 39 11 75 61 24 74 60 25 74 60 21 74 60 23 74 60 23 73 59 20 73 59 22 74 60 23 73 59 22 74 60 23 74 60 23 73 59 22 74 60 23 74 60 23 73 59 22 73 59 22 75 61 22 74 60 21 73 59 22 74 60 21 74 60 21 73 59 20 73 59 20 74 60 21 74 60 21 73 59 20 74 60 21 74 60 21 73 59 20 73 59 20 74 60 21 73 59 20 74 60 21 73 59 20 73 59 20 73 59 20 74 60 21 74 60 21 73 59 20 75 61 22 74 60 21 72 58 19 74 60 21 72 58 19 73 59 20 73 59 20 74 60 21 73 59 20 74 60 21 74 60 21 73 59 20 74 60 21 73 59 20 73 59 20 74 60 21 74 60 21 73 59 20 73 59 20 73 59 20 73 59 20 73 59 20 74 60 21 74 60 21 73 59 20 74 60 21 73 59 20 74 60 21 74 60 21 75 61 22 73 60 18 74 60 21 73 59 20 74 60 21 74 60 21 73 59 20 74 60 21 73 59 20 73 59 20 73 59 20 74 60 21 73 59 20 74 60 21 73 59 20 73 59 20 72 58 19 73 59 20 73 59 20 74 60 21 74 60 21 74 60 21 72 58 19 74 60 21 74 60 21 74 60 21 73 59 20 
4 5 0 6 7 2 24 20 8 54 43 13 55 44 16 74 60 23 74 60 23 73 59 22 74 60 21 73 61 23 74 60 23 72 60 20 73 59 22 74 60 23 73 59 22 73 59 22 73 59 22 74 60 23 73 59 22 75 61 24 73 59 22 74 60 21 74 60 21 72 58 21 74 60 21 73 59 20 74 60 21 74 60 21 74 60 21 74 60 21 74 60 21 74 60 21 74 60 21 73 59 20 73 59 20 74 60 21 74 60 21 73 59 20 74 60 23 74 60 21 73 59 20 73 59 20 74 60 21 73 59 22 74 60 21 73 59 20 74 60 21 73 59 20 74 60 21 74 60 21 74 60 21 74 60 21 74 60 21 74 60 21 74 60 21 74 60 21 74 60 21 74 60 21 74 60 21 74 60 21 74 60 21 74 60 21 74 60 21 73 59 20 74 60 21 73 59 20 73 59 20 73 59 20 73 59 20 73 59 22 74 60 21 74 61 19 74 61 19 74 60 21 73 59 20 73 59 20 73 59 20 74 60 21 74 60 21 74 60 21 75 61 22 74 60 21 73 59 20 74 60 21 74 60 21 73 59 20 74 60 21 74 61 19 75 61 22 73 59 20 74 60 21 74 60 21 74 60 21 73 59 20 74 60 21 73 59 20 73 59 20 73 59 20 74 60 21 73 59 20 
20 17 8 26 23 8 44 36 13 76 58 22 74 60 21 73 61 23 72 60 22 74 60 21 74 58 22 73 59 22 74 60 23 74 60 23 74 60 23 74 60 23 73 59 22 74 60 23 72 58 21 74 60 23 73 59 22 74 60 23 74 60 23 74 60 21 73 59 20 73 59 20 74 60 21 74 60 21 73 59 20 73 59 20 73 59 20 73 59 20 74 60 21 73 59 20 73 59 20 74 60 21 73 59 20 73 59 20 73 59 22 72 58 21 73 60 18 73 59 20 73 59 22 73 59 22 73 59 22 73 59 20 74 60 21 74 60 21 73 59 20 74 60 21 74 60 21 73 59 20 73 59 20 73 59 20 74 60 21 74 60 23 74 60 21 73 59 22 74 60 21 74 60 23 73 59 20 74 60 23 74 60 21 74 60 21 74 60 21 73 59 20 72 58 19 74 60 21 73 59 20 74 60 21 73 59 20 74 60 21 73 59 20 73 59 22 73 59 22 74 60 21 71 57 20 73 59 20 73 59 20 73 59 22 73 59 20 73 59 20 73 59 22 73 59 20 73 59 20 73 59 20 72 58 19 73 59 20 73 59 20 72 58 19 73 59 22 74 60 21 74 60 21 74 60 21 73 59 20 74 60 21 73 59 20 74 60 21 74 60 21 72 58 19 73 59 20 74 60 21 
20 17 8 27 24 9 44 36 13 74 60 21 73 59 20 74 60 23 73 59 22 72 60 20 74 60 23 73 59 22 74 60 23 73 61 23 74 60 23 74 60 23 74 60 23 74 60 23 73 59 22 74 60 23 75 61 24 74 60 23 73 59 22 73 59 22 74 60 21 73 59 20 73 59 20 73 59 20 74 60 21 73 59 22 73 59 20 73 59 20 74 60 21 73 59 20 74 60 21 72 58 19 74 60 21 73 59 20 74 60 21 74 60 21 73 59 20 73 59 20 74 60 21 73 59 20 73 59 20 74 60 21 74 60 21 73 59 20 73 59 20 74 60 21 73 59 20 74 60 21 74 60 21 73 59 20 74 60 21 73 59 20 73 59 20 73 59 20 73 59 20 72 58 19 73 59 20 72 58 19 74 60 21 73 59 20 74 60 21 72 58 19 74 60 21 73 59 20 74 60 21 72 58 19 74 60 21 72 58 21 74 60 21 73 59 22 72 58 19 72 58 21 74 60 21 73 59 22 73 59 20 74 60 21 72 58 19 73 59 22 72 58 19 73 59 20 73 59 22 73 59 20 72 58 21 73 59 20 73 59 22 72 58 19 74 60 21 74 60 21 73 59 22 74 60 21 74 60 21 73 59 20 74 60 21 73 59 20 74 60 21 74 60 21 74 60 21 73 59 20 
46 39 11 58 47 17 63 53 18 74 60 23 74 60 23 73 59 22 74 60 23 76 60 24 74 62 22 74 60 23 72 60 20 74 59 20 74 60 23 74 60 23 73 59 22 74 60 23 72 58 21 73 59 22 74 60 23 74 60 23 73 59 22 74 60 23 73 59 20 73 59 20 72 58 19 74 60 21 74 60 21 73 59 22 73 59 20 72 58 19 74 60 21 74 60 21 73 59 20 72 58 19 72 58 19 74 60 21 73 59 20 73 59 20 74 60 21 73 59 20 72 58 19 74 60 21 73 59 20 73 59 20 74 60 21 73 59 20 73 59 20 74 60 21 73 59 20 74 60 21 74 60 21 74 60 21 73 59 22 74 60 21 73 59 22 74 60 21 73 59 22 73 59 20 73 59 22 73 59 20 74 60 21 74 60 21 73 59 20 74 60 21 73 59 20 74 60 21 73 59 20 74 60 21 73 59 22 74 60 21 73 59 22 74 60 21 72 58 19 73 59 20 73 59 20 74 60 21 72 58 19 73 59 22 73 59 20 74 60 21 73 59 22 72 58 19 74 60 21 73 59 20 73 59 22 74 60 21 73 59 22 73 59 20 73 59 22 74 60 21 73 59 22 73 59 22 73 59 20 75 61 22 73 59 20 75 61 22 74 60 21 74 60 21 74 60 21 73 59 20 
48 41 13 62 52 17 67 54 19 72 60 22 74 60 23 74 60 23 74 60 21 74 60 21 74 60 23 74 60 23 74 60 23 74 60 23 73 59 22 74 60 23 73 59 22 74 60 23 74 60 23 74 60 23 73 59 22 73 59 22 74 60 23 74 60 23 72 59 17 72 58 21 73 59 20 73 59 22 74 60 21 73 59 20 73 59 22 74 60 23 73 59 20 73 59 20 74 60 21 73 59 20 73 59 22 73 59 22 73 59 20 73 59 22 74 60 21 74 60 21 73 59 20 73 59 20 73 59 20 73 59 20 73 59 20 74 60 21 74 60 21 74 60 23 73 59 22 73 59 20 74 60 21 73 59 20 72 58 19 73 59 20 73 59 22 73 59 20 74 60 21 72 58 21 74 60 21 72 58 19 73 59 20 73 59 20 73 59 20 73 59 22 73 59 20 72 58 19 72 58 21 73 59 20 73 59 22 73 59 20 72 58 19 73 59 20 73 59 22 73 59 22 73 59 24 74 60 21 74 60 23 73 59 20 72 58 19 73 59 22 72 58 19 73 59 20 73 59 22 74 60 21 74 60 21 74 60 21 74 60 21 73 59 20 73 59 20 73 59 20 73 59 20 75 61 24 73 59 20 73 59 22 74 60 21 73 59 20 73 59 20 73 59 20 73 59 20 73 59 20 
57 48 17 66 57 18 70 58 20 74 60 23 74 60 23 73 59 22 73 59 22 74 60 25 73 59 22 73 59 22 74 60 23 73 59 20 74 60 23 73 59 22 73 59 22 74 60 23 73 59 22 73 59 22 74 60 23 74 60 23 75 61 24 73 59 22 73 59 20 73 59 22 73 59 20 73 59 22 74 60 21 73 59 20 73 59 22 73 59 20 74 60 21 75 61 22 75 61 22 74 60 23 74 60 21 73 59 22 74 60 21 74 60 23 73 59 20 74 60 21 73 59 20 73 59 20 73 59 20 73 59 20 73 59 20 73 59 20 73 59 20 73 59 20 74 60 21 73 59 20 73 59 20 74 60 21 73 59 20 73 59 20 74 60 21 73 59 20 73 59 20 73 59 20 73 59 20 74 60 21 73 59 22 74 60 21 74 60 23 73 59 22 74 60 21 73 59 20 73 59 20 74 60 23 73 59 20 73 59 20 73 59 22 74 60 21 73 59 22 74 60 21 73 59 20 74 60 23 73 59 20 74 60 21 73 59 20 73 59 20 72 58 21 73 59 20 73 59 20 73 59 22 74 60 23 73 59 20 73 59 20 73 59 20 74 60 21 74 60 21 73 59 22 73 59 22 73 59 20 73 59 20 74 60 21 73 60 18 74 60 21 74 60 23 74 60 21 73 59 20 
68 55 20 75 61 24 74 60 23 73 59 22 74 60 23 74 60 23 74 60 23 74 60 23 73 59 22 73 59 22 74 60 23 73 59 22 73 59 22 73 59 22 73 59 22 73 59 22 73 59 22 73 59 22 73 59 22 73 59 22 74 60 23 73 59 22 72 58 19 72 58 21 74 60 23 73 59 22 73 59 20 73 59 20 72 58 19 74 60 21 73 59 22 73 59 20 73 59 20 74 60 21 73 59 20 73 59 22 74 60 21 73 59 22 72 58 19 73 59 20 73 59 22 73 59 20 73 59 20 73 59 22 73 59 20 74 60 21 73 59 22 72 58 21 73 59 22 74 60 23 73 59 20 74 60 21 74 60 21 73 59 20 73 59 20 74 60 21 73 59 20 73 59 20 73 59 20 74 60 21 73 59 22 73 59 20 73 59 20 73 59 20 73 59 20 73 59 20 73 59 20 73 59 20 71 57 18 73 59 22 73 59 22 74 60 21 73 59 22 73 59 20 73 59 22 74 60 25 73 59 20 74 60 25 74 60 21 74 60 21 73 59 22 73 59 20 72 59 17 73 59 22 73 59 20 74 60 21 72 58 21 73 59 22 73 59 22 73 59 20 75 61 22 73 59 20 74 60 21 73 59 20 74 60 21 73 59 20 73 59 20 74 60 21 73 59 22 73 59 20 
69 56 21 73 60 25 74 62 24 74 60 23 73 59 22 73 59 22 74 60 23 74 60 23 73 59 22 73 59 22 73 59 22 73 59 22 73 59 22 73 59 22 73 59 22 73 59 22 73 59 22 74 60 23 73 59 22 73 59 22 73 59 22 73 59 20 74 60 23 74 60 21 72 58 21 72 58 21 73 59 20 73 59 20 73 59 20 72 58 21 73 59 20 74 60 21 73 59 20 72 58 19 72 58 21 73 59 20 73 59 20 73 59 20 73 59 20 73 59 20 73 59 20 74 60 21 74 60 21 73 59 20 73 59 22 74 60 21 74 60 21 74 60 21 74 60 21 74 60 21 73 59 20 73 59 22 73 59 20 73 59 22 72 58 19 73 59 20 73 59 20 74 60 21 73 59 22 75 61 22 74 60 21 73 59 20 74 60 21 74 60 21 73 59 20 74 60 21 72 58 21 73 59 22 72 58 19 74 60 21 74 60 21 72 58 19 73 59 22 74 60 23 73 59 20 72 58 19 73 59 20 73 59 20 72 58 19 73 59 20 74 60 21 72 58 19 74 60 21 73 59 20 73 59 20 73 59 20 73 59 20 73 59 20 73 59 22 73 59 20 73 59 20 74 60 21 73 59 20 74 60 21 72 58 19 74 60 21 74 60 21 73 59 20 73 59 22 73 59 20 
73 59 22 73 61 23 75 59 23 74 60 23 73 59 22 73 59 22 73 59 22 73 59 22 73 59 22 73 59 22 73 59 22 73 59 22 74 60 23 73 59 22 74 60 23 73 59 22 74 60 23 73 59 22 73 59 22 73 59 22 73 59 22 73 59 20 73 59 22 74 60 21 73 59 22 72 58 21 72 58 19 74 60 21 73 59 20 73 59 22 72 58 19 73 59 22 72 58 19 73 59 20 72 58 19 73 60 18 74 60 21 73 59 22 73 60 18 74 60 21 73 59 22 74 60 21 73 59 20 73 59 22 74 60 21 74 60 21 73 59 22 73 59 20 74 60 21 72 58 21 74 60 21 74 60 21 73 59 20 72 58 21 73 59 20 74 60 21 74 60 21 73 59 20 73 59 22 73 59 20 73 59 20 73 59 20 74 60 21 73 59 20 73 59 20 73 59 20 72 58 19 73 59 22 73 59 22 73 59 20 73 59 20 73 59 20 74 60 21 73 59 22 73 59 22 72 58 19 73 59 22 73 59 20 73 59 20 73 59 22 73 59 20 72 58 19 73 59 22 73 59 20 73 59 20 73 59 20 73 59 20 73 59 22 72 58 19 73 59 20 74 60 21 73 59 20 73 59 20 72 58 19 73 59 22 72 58 19 73 60 18 73 59 20 74 60 21 72 58 19 
73 59 22 74 60 23 74 60 23 73 59 22 73 59 22 73 59 22 73 59 22 73 59 22 74 60 23 74 60 23 73 59 22 73 59 22 73 59 22 73 59 22 73 59 22 73 59 22 74 60 23 73 59 22 73 59 22 73 59 22 73 59 22 73 59 22 73 59 20 73 59 20 73 59 22 72 58 19 72 58 21 72 58 19 74 60 21 73 60 18 73 59 22 73 59 20 73 59 22 73 59 20 73 59 20 73 59 20 73 59 20 73 59 20 73 59 20 73 59 20 73 59 20 74 60 21 73 59 20 72 58 19 72 58 21 74 60 23 73 59 20 73 59 20 74 60 21 73 59 20 73 59 22 73 59 22 72 58 19 73 59 20 73 59 20 73 59 20 74 60 21 73 59 20 74 60 21 73 59 20 74 60 23 73 59 22 72 58 19 74 60 21 74 60 23 74 60 21 73 59 20 73 59 20 73 59 20 72 58 19 73 59 20 73 59 22 73 59 20 73 59 20 73 59 22 73 60 18 73 60 18 73 59 20 73 59 20 74 60 21 74 60 21 73 59 20 73 59 22 73 59 20 73 59 20 73 59 20 73 59 20 73 59 22 73 59 22 73 59 22 73 59 20 73 59 20 73 59 22 74 60 21 73 59 20 74 60 21 74 60 21 74 60 21 73 59 20 73 59 20 
73 59 24 74 60 21 74 60 23 74 60 23 72 58 23 73 59 22 73 59 22 73 59 22 74 60 21 74 60 21 73 59 22 73 59 22 74 60 23 74 60 23 73 59 22 74 60 23 72 58 21 74 60 23 74 60 23 73 59 22 73 59 22 73 59 22 73 59 20 73 59 20 73 59 22 73 59 20 73 59 22 73 59 20 74 60 21 73 59 20 73 59 20 73 59 20 72 58 19 72 58 21 73 59 20 74 60 21 74 60 21 73 59 22 72 58 19 72 58 19 73 59 22 73 59 20 73 59 20 73 59 20 73 59 22 73 59 20 72 58 19 73 59 22 73 59 22 73 59 20 73 59 20 73 59 22 73 59 20 73 59 20 73 59 20 73 59 20 72 58 19 73 59 20 73 59 20 74 60 21 74 60 21 73 59 22 74 60 21 73 59 20 73 59 22 73 59 20 74 60 21 73 59 20 74 60 23 73 60 18 72 58 19 74 60 23 73 59 20 73 59 20 73 59 20 73 59 22 74 60 21 73 59 24 74 60 23 73 59 20 74 60 21 73 59 22 73 59 20 75 61 22 73 59 22 73 59 22 74 60 21 74 60 21 73 59 20 73 59 20 73 59 20 73 59 22 73 59 20 73 59 22 73 59 20 73 59 20 73 59 20 73 59 20 73 59 20 73 59 20 
73 59 22 74 58 22 72 58 21 73 61 21 73 59 20 73 59 22 74 60 23 74 60 23 73 59 22 73 59 22 73 59 20 73 59 22 73 59 22 73 59 22 73 59 22 72 58 21 74 60 23 73 59 22 73 59 22 73 59 22 73 59 22 73 59 20 73 59 22 73 59 20 72 58 21 73 59 22 72 58 19 73 59 20 73 59 20 73 59 20 74 60 21 73 59 22 73 59 22 74 61 19 74 60 21 73 59 20 74 60 21 74 60 23 73 59 20 75 61 22 73 59 20 73 59 20 73 59 20 73 59 20 74 60 21 73 59 22 73 59 22 73 59 20 73 59 20 73 59 22 73 59 22 73 59 20 74 60 21 72 58 19 73 59 22 72 58 19 73 59 20 73 59 22 72 58 19 72 58 19 74 60 21 73 59 20 73 59 20 73 59 20 73 59 22 73 59 22 73 59 20 73 59 22 73 59 20 73 59 22 72 58 19 73 59 20 73 59 20 73 59 22 71 57 18 73 59 20 73 59 20 72 58 21 73 59 20 73 59 20 72 58 19 74 60 23 73 59 22 74 60 21 74 60 23 73 59 20 74 60 21 73 59 20 73 59 20 73 59 20 73 59 20 73 59 20 72 58 19 73 59 20 73 59 20 73 59 20 72 58 19 73 59 20 73 59 20 72 58 21 
73 59 22 73 59 22 73 59 22 73 59 22 72 58 21 73 59 22 73 59 22 73 59 22 73 59 22 73 59 22 73 59 22 73 59 22 73 59 22 73 59 22 73 59 22 72 58 21 74 60 23 73 59 22 72 58 21 73 59 22 73 59 22 73 59 22 73 60 18 73 59 22 73 59 22 72 58 19 73 59 20 73 59 22 73 59 20 74 60 23 74 60 21 73 59 22 72 58 21 72 58 21 75 61 22 72 58 19 73 59 22 73 59 22 73 59 20 72 58 21 74 60 21 72 58 19 74 60 23 74 60 23 73 59 20 71 57 18 73 60 18 73 59 20 73 59 22 73 59 20 73 59 20 73 59 22 73 59 20 73 59 22 73 59 20 73 59 22 73 59 22 73 59 20 73 59 22 73 59 20 73 59 22 73 59 20 73 59 22 72 58 19 72 58 21 73 59 20 73 59 20 73 59 20 73 59 20 73 59 20 73 59 20 73 59 20 73 59 20 72 58 19 73 59 22 73 59 22 72 58 21 73 59 22 74 60 21 73 59 22 73 59 20 74 60 23 73 59 20 73 59 20 74 60 21 74 60 21 72 58 19 73 59 20 73 59 20 73 59 20 73 59 20 73 60 18 73 59 22 74 60 23 73 59 20 73 59 20 73 59 24 73 59 20 74 60 21 73 59 22 
73 59 22 74 60 23 73 59 22 74 60 23 73 59 22 73 59 22 73 59 22 73 59 22 73 59 22 74 60 23 74 60 23 74 60 23 73 59 22 73 59 22 74 60 23 73 59 22 73 59 22 73 59 22 72 58 21 73 59 22 72 58 21 72 58 21 73 59 22 73 59 22 72 58 21 73 59 22 72 58 19 73 60 18 73 59 22 74 60 23 73 59 20 73 59 22 73 59 20 73 59 22 73 59 22 72 58 21 72 58 19 74 60 21 73 59 22 72 58 21 73 59 20 73 59 20 71 57 20 73 59 20 74 60 21 73 59 22 73 59 22 73 59 20 72 58 19 73 59 22 73 59 20 73 59 20 73 59 20 73 59 22 73 59 20 72 58 21 73 59 22 72 58 19 73 59 22 72 58 19 73 59 22 72 58 19 74 60 21 72 58 19 75 61 22 72 58 19 74 60 21 72 58 19 73 59 20 73 59 20 73 59 20 72 58 19 73 59 20 73 59 22 73 59 22 72 58 19 74 60 21 73 59 22 73 59 20 72 58 21 73 59 20 73 59 22 72 58 19 73 59 22 73 59 20 73 59 20 72 58 19 74 60 21 73 59 20 72 58 19 73 59 20 73 59 20 73 59 20 72 58 19 73 59 22 73 59 22 73 59 20 73 59 22 73 59 22 73 59 20 
73 59 22 72 58 21 72 58 21 73 59 22 73 59 22 73 59 22 73 59 22 72 58 21 73 59 22 73 59 22 73 59 22 73 59 22 72 58 21 74 60 23 73 59 22 72 58 21 73 59 22 73 59 22 73 59 22 73 59 22 72 58 21 73 59 22 73 59 24 73 59 20 72 58 19 73 59 22 73 59 22 72 58 19 73 59 22 73 60 18 73 59 20 73 59 20 73 59 20 73 59 20 72 58 21 72 58 21 73 59 20 72 58 21 73 59 20 73 59 22 72 58 19 72 58 21 73 59 22 73 59 20 73 59 22 72 58 19 73 59 22 73 59 22 73 59 22 73 59 22 72 58 21 73 59 22 73 59 20 73 59 22 73 59 20 72 58 21 73 59 22 73 59 20 73 59 22 73 59 20 72 58 19 73 59 22 74 60 21 73 59 20 72 58 19 73 59 20 72 58 19 73 59 20 72 58 19 73 59 20 73 59 20 73 59 22 72 58 21 73 59 20 73 59 20 73 59 22 73 59 20 72 58 21 73 59 22 73 59 22 72 58 19 72 58 19 73 59 20 72 58 21 72 58 19 73 59 20 74 60 23 73 59 20 73 59 20 71 58 16 72 58 19 73 59 20 73 59 20 72 58 19 73 59 22 73 59 22 73 59 20 73 59 22 73 59 22 73 59 22 
72 58 21 73 59 22 72 60 22 72 58 21 73 59 22 74 60 23 73 59 22 74 60 23 73 59 22 73 59 22 73 59 22 73 59 22 73 59 22 73 59 22 73 59 22 72 58 21 73 59 22 73 59 22 73 59 22 72 58 21 73 59 20 73 59 22 72 58 21 72 58 19 73 60 18 73 59 22 73 59 22 72 58 19 73 59 22 72 58 19 73 59 22 72 58 19 73 59 20 72 58 19 73 59 22 73 59 22 73 59 22 73 59 22 73 59 20 73 59 22 72 58 19 73 59 20 74 60 23 72 58 21 73 59 22 73 60 18 73 59 22 72 58 21 73 59 20 72 58 21 73 59 20 72 58 21 73 59 20 72 58 21 73 59 20 73 59 22 73 59 22 73 59 20 73 59 22 73 59 20 72 58 19 73 59 22 73 59 20 72 58 21 73 59 20 71 57 20 73 59 20 73 59 20 72 58 19 71 57 18 73 59 20 74 60 21 73 59 20 73 59 20 72 58 19 73 59 20 72 58 19 73 59 22 73 59 22 73 59 22 73 59 20 72 58 19 71 57 18 73 59 22 72 58 21 72 58 21 73 59 20 73 59 20 73 59 20 73 59 20 73 59 20 73 59 20 72 58 19 72 58 19 72 58 21 73 59 22 72 58 19 73 59 22 73 59 22 73 59 20 
73 59 22 72 58 21 73 59 22 73 59 22 74 60 23 73 59 22 72 58 21 71 57 20 73 59 22 73 59 22 73 59 22 73 59 22 72 58 21 73 59 22 74 60 23 73 59 22 73 59 22 73 59 22 73 59 22 73 59 22 73 59 22 71 57 20 72 58 21 73 59 22 73 59 22 73 59 22 72 58 19 73 59 20 73 59 20 73 59 20 72 58 21 73 59 20 73 59 22 73 59 20 72 58 19 71 57 18 72 58 21 73 59 22 73 59 20 73 59 20 74 60 23 73 59 20 73 59 22 73 59 22 72 58 19 73 59 22 73 59 22 72 58 19 72 58 19 73 59 22 73 59 22 73 59 20 73 59 20 73 59 22 73 59 20 73 59 22 73 59 22 73 59 20 72 58 21 73 59 20 72 58 19 73 59 20 73 59 20 73 59 22 72 58 19 73 59 22 73 59 20 73 59 20 72 58 19 73 59 20 72 58 19 73 59 20 73 59 20 73 59 20 73 59 20 72 58 19 73 59 22 73 59 20 73 59 20 73 59 20 72 58 21 72 58 21 73 59 22 71 57 18 73 59 22 73 59 20 72 58 19 73 59 20 73 59 20 72 58 19 73 59 20 73 59 20 73 59 22 73 59 22 73 59 20 73 59 20 72 58 21 73 59 20 73 59 20 73 59 22 
74 58 22 72 58 21 73 59 22 73 59 22 74 60 23 73 59 22 73 59 22 73 59 22 72 58 21 73 59 22 73 59 22 73 59 22 73 59 22 73 59 22 73 59 22 73 59 22 73 59 22 74 60 23 73 59 22 74 60 23 73 59 22 72 58 21 72 58 19 73 59 22 74 60 23 72 58 21 72 58 19 73 59 20 73 59 20 72 58 21 73 59 22 72 58 19 72 58 21 72 58 21 73 59 20 73 59 20 73 59 20 73 59 22 72 58 21 73 59 20 73 59 22 73 59 20 73 59 22 72 58 19 73 59 22 73 59 20 73 59 22 73 59 20 73 59 20 72 58 19 73 59 20 72 59 17 73 59 20 72 58 21 73 59 20 72 58 21 73 59 22 72 58 19 73 59 22 73 59 20 73 59 20 72 58 19 73 59 20 73 59 20 73 59 20 71 57 20 72 58 19 72 58 21 72 58 21 73 59 20 73 59 20 73 59 22 73 59 22 73 59 20 72 58 19 71 57 18 73 59 22 73 59 20 73 59 20 72 58 19 72 58 21 73 59 22 72 58 21 72 58 19 72 58 19 72 58 21 72 58 21 72 58 21 72 58 19 72 58 19 72 58 19 74 60 23 72 58 21 73 59 22 73 59 20 73 59 20 73 59 22 73 59 20 73 59 20 72 58 19 
