P3
100 50
255
12 14 39 12 14 37 12 14 39 12 14 37 12 14 39 12 14 39 12 14 39 12 14 35 12 14 39 12 14 39 12 14 39 12 14 39 12 14 39 12 14 39 12 14 39 12 14 39 12 14 39 12 14 39 12 14 39 12 14 39 12 14 39 12 14 39 12 14 39 12 14 39 12 14 39 12 14 39 12 14 37 12 14 37 12 14 39 12 14 39 12 14 39 12 14 37 12 14 39 12 14 39 12 14 39 12 14 39 12 14 39 12 14 39 12 14 39 12 14 39 12 14 39 12 14 39 12 14 39 12 14 37 12 14 37 12 14 39 12 14 39 12 14 39 12 14 39 12 14 39 12 14 39 12 14 39 12 14 39 12 14 39 12 14 39 12 14 39 12 14 39 12 14 39 12 14 39 12 14 39 12 14 39 12 14 39 12 14 39 12 14 39 12 14 39 12 14 39 12 14 39 12 14 39 12 14 39 12 14 39 12 14 39 12 14 39 12 14 39 12 14 39 12 14 39 12 14 39 12 14 39 12 14 39 12 14 39 12 14 39 12 14 39 12 14 39 13 15 40 13 15 40 13 15 38 13 15 38 13 15 40 13 15 40 13 15 40 13 15 40 13 15 40 13 15 40 13 15 40 13 15 40 13 15 40 13 15 40 13 15 40 13 15 38 13 15 38 13 15 40 
12 14 37 12 14 39 12 14 39 12 14 37 12 14 39 12 14 37 12 14 39 12 14 39 12 14 39 12 14 39 12 14 39 12 14 39 12 14 39 12 14 39 12 14 39 12 14 39 12 14 39 12 14 39 12 14 39 12 14 39 12 14 39 12 14 39 12 14 39 12 14 39 12 14 39 12 14 39 12 14 37 12 14 39 12 14 39 12 14 39 12 14 39 12 14 37 12 14 39 12 14 39 12 14 39 12 14 39 12 14 39 12 14 39 12 14 39 12 14 39 12 14 39 12 14 39 12 14 39 12 14 39 12 14 39 12 14 39 12 14 39 12 14 39 12 14 39 12 14 39 12 14 39 12 14 39 12 14 39 12 14 39 12 14 39 12 14 39 12 14 39 12 14 39 12 14 39 12 14 39 12 14 39 12 14 39 12 14 39 12 14 39 12 14 39 12 14 39 12 14 39 12 14 39 12 14 39 12 14 39 12 14 39 12 14 39 12 14 39 12 14 39 12 14 39 12 14 39 12 14 39 12 14 39 12 14 39 12 14 39 12 14 39 12 14 39 13 15 40 13 15 38 13 15 40 13 15 40 13 15 40 13 15 38 13 15 38 13 15 40 13 15 40 13 15 40 13 15 38 13 15 38 13 15 40 13 15 40 13 15 40 13 15 40 13 15 40 13 15 40 
12 14 39 12 14 39 12 14 39 12 14 37 12 14 39 12 14 39 12 14 39 12 14 39 12 14 39 12 14 39 12 14 39 12 14 39 12 14 39 12 14 39 12 14 39 12 14 39 12 14 39 12 14 39 12 14 39 12 14 39 12 14 39 12 14 39 12 14 39 12 14 39 12 14 39 12 14 39 12 14 37 12 14 39 12 14 39 12 14 39 12 14 39 12 14 39 12 14 39 12 14 39 12 14 39 12 14 39 12 14 39 12 14 39 12 14 39 12 14 39 12 14 39 12 14 39 12 14 39 12 14 39 12 14 39 12 14 39 12 14 39 12 14 39 12 14 39 12 14 39 12 14 39 12 14 39 12 14 39 12 14 39 12 14 39 12 14 39 12 14 39 12 14 39 12 14 39 12 14 39 12 14 39 12 14 39 12 14 39 12 14 39 12 14 39 12 14 39 12 14 39 12 14 39 12 14 39 12 14 39 12 14 39 12 14 39 12 14 39 12 14 39 12 14 39 12 14 39 12 14 39 12 14 39 12 14 39 12 14 39 12 14 39 12 14 39 13 15 40 13 15 40 13 15 38 13 15 40 13 15 38 13 15 40 13 15 40 13 15 40 13 15 40 13 15 40 13 15 40 13 15 40 13 15 40 13 15 40 13 15 38 13 15 40 13 15 40 13 15 38 
12 14 39 12 14 35 12 14 37 12 14 39 12 14 39 12 14 39 12 14 39 12 14 37 12 14 39 12 14 39 12 14 39 12 14 39 12 14 39 12 14 39 12 14 39 12 14 39 12 14 39 12 14 39 12 14 39 12 14 39 12 14 39 12 14 39 12 14 39 12 14 39 12 14 39 12 14 39 12 14 39 12 14 39 12 14 39 12 14 39 12 14 39 12 14 39 12 14 39 12 14 39 12 14 39 12 14 39 12 14 39 12 14 39 12 14 39 12 14 39 12 14 37 12 14 39 12 14 39 12 14 39 12 14 39 12 14 39 12 14 39 12 14 37 12 14 39 12 14 39 12 14 39 12 14 39 12 14 39 12 14 39 12 14 39 12 14 39 12 14 39 12 14 39 12 14 39 12 14 39 12 14 39 12 14 39 12 14 39 12 14 39 12 14 39 12 14 39 12 14 39 12 14 39 12 14 39 12 14 39 12 14 39 12 14 39 12 14 39 12 14 39 12 14 39 12 14 39 12 14 39 12 14 39 12 14 39 12 14 39 12 14 39 12 14 39 13 15 40 13 15 38 13 15 40 13 15 38 13 15 40 13 15 40 13 15 40 13 15 40 13 15 38 13 15 40 13 15 40 13 15 40 13 15 40 13 15 38 13 15 40 13 15 40 13 15 40 13 15 40 
12 14 39 12 14 39 12 14 39 12 14 39 12 14 37 12 14 37 12 14 39 12 14 39 12 14 39 12 14 39 12 14 39 12 14 39 12 14 39 12 14 39 12 14 39 12 14 39 12 14 39 12 14 39 12 14 39 12 14 39 12 14 39 12 14 39 12 14 39 12 14 39 12 14 39 12 14 39 12 14 39 12 14 39 12 14 39 12 14 39 12 14 39 12 14 39 12 14 39 12 14 39 12 14 39 12 14 39 12 14 39 12 14 39 12 14 39 12 14 39 12 14 37 12 14 39 12 14 39 12 14 39 12 14 39 12 14 39 12 14 39 12 14 37 12 14 39 12 14 39 12 14 39 12 14 39 12 14 39 12 14 39 12 14 39 12 14 39 12 14 39 12 14 39 12 14 39 12 14 39 12 14 39 12 14 39 12 14 39 12 14 39 12 14 39 12 14 39 12 14 39 12 14 39 12 14 39 12 14 39 12 14 39 12 14 39 12 14 39 12 14 39 12 14 39 12 14 39 12 14 39 12 14 39 12 14 39 12 14 39 12 14 39 12 14 39 13 15 38 13 15 40 13 15 38 13 15 40 13 15 40 13 15 38 13 15 38 13 15 40 13 15 40 13 15 40 13 15 40 13 15 38 13 15 40 13 15 40 13 15 40 13 15 40 13 15 40 13 15 40 
12 14 37 12 14 39 12 14 39 12 14 39 12 14 39 12 14 39 12 14 37 12 14 39 12 14 39 12 14 39 12 14 39 12 14 39 12 14 39 12 14 39 12 14 39 12 14 39 12 14 39 12 14 39 12 14 39 12 14 39 12 14 39 12 14 39 12 14 39 12 14 39 12 14 39 12 14 39 12 14 39 12 14 39 12 14 39 12 14 37 12 14 39 12 14 39 12 14 39 12 14 39 12 14 39 12 14 39 12 14 39 12 14 39 12 14 39 12 14 39 12 14 39 12 14 39 12 14 39 12 14 39 12 14 39 12 14 39 12 14 39 12 14 39 12 14 39 12 14 39 12 14 39 12 14 39 12 14 39 12 14 39 12 14 39 12 14 39 12 14 39 12 14 39 12 14 39 12 14 39 12 14 39 12 14 39 12 14 39 12 14 39 12 14 39 12 14 39 12 14 39 12 14 39 12 14 39 12 14 39 12 14 39 12 14 39 12 14 39 12 14 39 12 14 39 12 14 39 12 14 39 12 14 39 12 14 39 12 14 39 12 14 39 12 14 39 13 15 40 13 15 40 13 15 40 13 15 38 13 15 40 13 15 40 13 15 40 13 15 40 13 15 40 13 15 40 13 15 40 13 15 40 13 15 40 13 15 40 13 15 40 13 15 38 13 15 38 13 15 40 
12 14 39 12 14 39 12 14 37 12 13 41 12 13 41 12 14 39 12 14 37 12 14 39 12 14 39 12 14 39 12 14 39 12 14 39 12 14 39 12 14 39 12 14 39 12 14 39 12 14 39 12 14 39 12 14 39 12 14 39 12 14 39 12 14 39 12 14 39 12 14 39 12 14 37 12 14 39 12 14 39 12 14 39 12 14 39 12 14 37 12 14 39 12 14 39 12 14 39 12 14 39 12 14 39 12 14 39 12 14 39 12 14 39 12 14 39 12 14 39 12 14 39 12 14 39 12 14 39 12 14 39 12 14 39 12 14 39 12 14 39 12 14 39 12 14 39 12 14 39 12 14 39 12 14 39 12 14 39 12 14 39 12 14 39 12 14 39 12 14 39 12 14 39 12 14 39 12 14 39 12 14 39 12 14 39 12 14 39 12 14 39 12 14 39 12 14 39 12 14 39 12 14 39 12 14 39 12 14 39 12 14 39 12 14 39 12 14 39 12 14 39 12 14 39 12 14 39 12 14 39 12 14 39 12 14 39 12 14 39 12 14 39 12 14 39 13 15 40 13 15 40 13 15 38 13 15 40 13 15 40 13 15 40 13 15 40 13 15 40 13 15 38 13 15 38 13 15 40 13 15 40 13 15 40 13 15 38 13 15 40 13 15 40 13 15 40 13 15 40 
12 14 39 12 14 39 12 14 39 12 14 39 12 14 35 12 14 39 12 14 39 12 14 39 12 14 39 12 14 39 12 14 39 12 14 39 12 14 39 12 14 39 12 14 39 12 14 39 12 14 39 12 14 39 12 14 39 12 14 39 12 14 39 12 14 39 12 14 39 12 14 39 12 14 37 12 14 39 12 14 39 12 14 39 12 14 37 12 14 37 12 14 39 12 14 39 12 14 39 12 14 39 12 14 39 12 14 39 12 14 39 12 14 39 12 14 39 12 14 39 12 14 39 12 14 39 12 14 39 12 14 37 12 14 37 12 14 39 12 14 39 12 14 39 12 14 39 12 14 39 12 14 39 12 14 39 12 14 39 12 14 39 12 14 39 12 14 39 12 14 39 12 14 39 12 14 39 12 14 39 12 14 39 12 14 39 12 14 39 12 14 39 12 14 39 12 14 39 12 14 39 12 14 39 12 14 39 12 14 39 12 14 39 12 14 39 12 14 39 12 14 39 12 14 39 12 14 39 12 14 39 12 14 39 12 14 39 12 14 39 12 14 39 12 14 39 13 15 40 13 15 38 13 15 40 13 15 40 13 15 38 13 15 40 13 15 40 13 15 40 13 15 40 13 15 40 13 15 40 13 15 40 13 15 40 13 15 40 13 15 38 13 15 40 13 15 40 13 15 38 
12 14 39 12 14 39 12 14 39 12 14 39 12 14 39 12 14 39 12 14 39 12 14 39 12 14 39 12 14 39 12 14 39 12 14 39 12 14 39 12 14 39 12 14 39 12 14 39 12 14 39 12 14 39 12 14 39 12 14 39 12 14 39 12 14 39 12 14 39 12 14 39 12 14 39 12 14 39 12 14 39 12 14 39 12 14 39 12 14 39 12 14 39 12 14 39 12 14 39 12 14 39 12 14 39 12 14 39 12 14 39 12 14 39 12 14 39 12 14 39 12 14 39 12 14 39 12 14 39 12 14 39 12 14 37 12 14 39 12 14 39 12 14 39 12 14 39 12 14 39 12 14 39 12 14 39 12 14 39 12 14 39 12 14 39 12 14 39 12 14 39 12 14 39 12 14 39 12 14 39 12 14 39 12 14 39 12 14 39 12 14 39 12 14 39 12 14 39 12 14 39 12 14 39 12 14 39 12 14 39 12 14 39 12 14 39 12 14 39 12 14 39 12 14 39 11 13 38 12 14 39 12 14 39 12 14 39 13 15 40 13 15 40 13 15 40 13 15 40 13 15 40 13 15 40 13 15 40 13 15 40 13 15 40 13 15 40 13 15 40 13 15 40 13 15 40 13 15 40 13 15 40 13 15 40 13 15 40 13 15 40 13 15 40 13 15 40 13 15 40 
12 14 39 12 14 39 12 14 39 12 14 39 12 14 39 12 14 39 12 14 39 12 14 39 12 14 39 12 14 39 12 14 39 12 14 39 12 14 39 12 14 39 12 14 39 12 14 39 12 14 39 12 14 39 12 14 39 12 14 39 12 14 39 12 14 39 12 14 39 12 14 39 12 14 39 12 14 39 12 14 39 12 14 39 12 14 39 12 14 39 12 14 39 12 14 39 12 14 39 12 14 39 12 14 39 12 14 39 12 14 39 12 14 39 12 14 39 12 14 39 12 14 39 12 14 39 12 14 39 12 14 39 12 14 37 12 14 39 12 14 39 12 14 39 12 14 39 12 14 39 12 14 39 12 14 39 12 14 39 12 14 39 12 14 39 12 14 39 12 14 39 12 14 39 12 14 39 12 14 39 12 14 39 12 14 39 12 14 39 12 14 39 12 14 39 12 14 39 12 14 39 12 14 39 12 14 39 12 14 39 12 14 39 12 14 39 12 14 39 12 14 39 12 14 39 11 13 38 12 14 39 12 14 39 12 14 39 13 15 40 13 15 40 13 15 40 13 15 40 13 15 40 13 15 40 13 15 40 13 15 40 13 15 40 13 15 40 13 15 40 13 15 40 13 15 40 13 15 40 13 15 40 13 15 40 13 15 40 13 15 40 13 15 40 13 15 38 13 15 40 
12 14 39 12 14 39 12 14 39 12 14 39 12 14 39 12 14 39 12 14 39 12 14 39 12 14 39 12 14 39 12 14 39 12 14 39 12 14 39 12 14 39 12 14 39 12 14 39 12 14 39 12 14 39 12 14 39 12 14 39 12 14 39 12 14 39 12 14 39 12 14 39 12 14 39 12 14 39 12 14 39 12 14 39 12 14 39 12 14 39 12 14 39 12 14 39 12 14 39 12 14 39 12 14 39 12 14 39 12 14 39 12 14 39 12 14 39 12 14 39 12 14 37 12 14 39 12 14 39 12 14 39 12 14 39 12 14 39 12 14 39 12 14 39 12 14 39 12 14 39 12 14 39 12 14 39 12 14 39 12 14 39 12 14 39 12 14 39 12 14 39 12 14 39 12 14 39 12 14 39 12 14 39 12 14 39 12 14 39 12 14 39 12 14 39 12 14 39 12 14 39 12 14 39 12 14 39 12 14 39 12 14 39 12 14 39 12 14 39 12 14 39 12 14 39 12 14 39 12 14 39 12 14 39 12 14 39 12 14 39 13 15 40 13 15 40 13 15 40 13 15 40 13 15 40 13 15 40 13 15 40 13 15 40 13 15 40 13 15 40 13 15 40 13 15 40 13 15 40 13 15 40 13 15 40 13 15 40 13 15 40 13 15 40 13 15 40 13 15 40 
12 14 39 12 14 39 12 14 39 12 14 39 12 14 39 12 14 39 12 14 39 12 14 39 12 14 39 12 14 39 12 14 39 12 14 39 12 14 39 12 14 39 12 14 39 12 14 39 12 14 39 12 14 39 12 14 39 12 14 39 12 14 39 12 14 39 12 14 39 12 14 39 12 14 39 12 14 39 12 14 39 12 14 39 12 14 39 12 14 39 12 14 39 12 14 39 12 14 39 12 14 39 12 14 39 12 14 39 12 14 39 12 14 39 12 14 39 12 14 39 12 14 37 12 14 39 12 14 39 12 14 39 12 14 39 12 14 39 12 14 39 12 14 39 12 14 39 12 14 39 12 14 39 12 14 39 12 14 39 12 14 39 12 14 39 12 14 39 12 14 39 12 14 39 12 14 39 12 14 39 12 14 39 12 14 39 12 14 39 12 14 39 12 14 39 12 14 39 12 14 39 12 14 39 12 14 39 12 14 39 12 14 39 12 14 39 12 14 39 12 14 39 12 14 39 12 14 39 12 14 39 12 14 39 12 14 39 12 14 39 13 15 40 13 15 40 13 15 40 13 15 40 13 15 40 13 15 40 13 15 40 13 15 40 13 15 40 13 15 40 13 15 40 13 15 40 13 15 40 13 15 40 13 15 40 13 15 40 13 15 40 13 15 38 13 15 40 13 15 40 
12 14 39 12 14 39 12 14 39 12 14 39 12 14 39 12 14 39 12 14 39 12 14 39 12 14 39 12 14 39 12 14 39 12 14 39 12 14 39 12 14 39 12 14 39 12 14 39 12 14 39 12 14 39 12 14 39 12 14 39 12 14 39 12 14 39 12 14 39 12 14 39 12 14 39 12 14 39 12 14 39 12 14 39 12 14 39 12 14 39 12 14 39 12 14 39 12 14 39 12 14 39 12 14 39 12 14 39 12 14 39 12 14 39 12 14 39 12 14 39 12 14 39 12 14 39 12 14 39 12 14 39 12 14 37 12 14 39 12 14 39 12 14 39 12 14 39 12 14 39 12 14 39 12 14 39 12 14 39 12 14 39 12 14 39 12 14 39 12 14 39 12 14 39 12 14 39 12 14 39 12 14 39 12 14 39 12 14 39 12 14 39 12 14 39 12 14 39 12 14 39 12 14 39 12 14 39 12 14 39 12 14 39 12 14 39 12 14 39 11 13 38 12 14 39 12 14 39 12 14 39 13 15 40 13 15 40 13 15 40 13 15 40 13 15 40 13 15 40 13 15 40 13 15 40 13 15 40 13 15 40 13 15 40 13 15 40 13 15 40 13 15 40 13 15 40 13 15 40 13 15 40 13 15 40 13 15 40 13 15 40 13 15 40 13 15 38 13 15 40 
12 14 39 12 14 39 12 14 39 12 14 39 12 14 39 12 14 39 12 14 39 12 14 39 12 14 39 12 14 39 12 14 39 12 14 39 12 14 39 12 14 39 12 14 39 12 14 39 12 14 39 12 14 39 12 14 39 12 14 39 12 14 39 12 14 39 12 14 39 12 14 39 12 14 39 12 14 39 12 14 39 12 14 39 12 14 39 12 14 39 12 14 39 12 14 39 12 14 39 12 14 39 12 14 39 12 14 39 12 14 39 12 14 39 12 14 39 12 14 39 12 13 41 12 14 39 12 14 39 12 14 39 12 14 37 12 14 39 12 14 39 12 14 39 12 14 39 12 14 39 12 14 39 12 14 39 12 14 39 12 14 39 12 14 39 12 14 39 12 14 39 12 14 39 12 14 39 12 14 39 12 14 39 12 14 39 12 14 39 12 14 39 12 14 39 12 14 39 12 14 39 12 14 39 12 14 39 12 14 39 12 14 39 12 14 39 12 14 39 11 13 38 12 14 39 12 14 39 12 14 39 13 15 40 13 15 40 13 15 38 13 15 40 13 15 40 13 15 40 13 15 40 13 15 40 13 15 40 13 15 40 13 15 40 13 15 40 13 15 40 13 15 40 13 15 40 13 15 40 13 15 40 13 15 40 13 15 40 13 15 40 13 15 40 13 15 40 13 15 40 
12 14 39 12 14 39 12 14 39 12 14 39 12 14 39 12 14 39 12 14 39 12 14 39 12 14 39 12 14 39 12 14 39 12 14 39 12 14 39 12 14 39 12 14 39 12 14 39 12 14 39 12 14 39 12 14 39 12 14 39 12 14 39 12 14 39 12 14 39 12 14 39 12 14 39 12 14 39 12 14 39 12 14 39 12 14 39 12 14 39 12 14 39 12 14 39 12 14 39 12 14 39 12 14 39 12 14 39 12 14 39 12 14 39 12 14 39 12 14 39 12 14 39 12 14 39 12 14 39 12 14 39 12 14 37 12 14 39 12 14 39 12 14 39 12 14 39 12 14 39 12 14 39 12 14 39 12 14 39 12 14 39 12 14 39 12 14 39 12 14 39 12 14 39 12 14 39 12 14 39 12 14 39 12 14 39 12 14 39 12 14 39 12 14 39 12 14 39 12 14 39 12 14 39 12 14 39 12 14 39 12 14 39 12 14 39 12 14 39 12 14 39 12 14 39 12 14 39 12 14 39 13 15 40 12 14 37 13 15 36 13 15 40 13 15 40 13 15 40 13 15 40 13 15 40 13 15 40 13 15 40 13 15 40 13 15 40 13 15 40 13 15 40 13 15 40 13 15 40 13 15 40 13 15 40 13 15 40 13 15 40 13 15 38 13 15 40 13 15 40 
12 14 39 12 14 39 12 14 39 12 14 39 12 14 39 12 14 39 12 14 39 12 14 39 12 14 39 12 14 39 12 14 39 12 14 39 12 14 39 12 14 39 12 14 39 12 14 39 12 14 39 12 14 39 12 14 39 12 14 39 12 14 39 12 14 39 12 14 39 12 14 39 12 14 39 12 14 39 12 14 39 12 14 39 12 14 39 12 14 39 12 14 39 12 14 39 12 14 39 12 14 39 12 14 39 12 14 39 12 14 39 12 14 39 12 14 39 12 14 39 12 14 37 12 14 39 12 14 39 12 14 39 12 14 39 12 14 39 12 14 39 12 14 39 12 14 39 12 14 39 12 14 39 12 14 39 12 14 39 12 14 39 12 14 39 12 14 39 12 14 39 12 14 39 12 14 39 12 14 39 12 14 39 12 14 39 12 14 39 12 14 39 12 14 39 12 14 39 12 14 39 12 14 39 12 14 39 12 14 39 12 14 39 12 14 39 12 14 39 12 14 39 12 14 39 12 14 39 12 14 39 13 15 40 13 15 38 13 15 36 13 15 40 13 15 40 13 15 40 13 15 40 13 15 40 13 15 40 13 15 40 13 15 40 13 15 40 13 15 40 13 15 40 13 15 40 13 15 40 13 15 40 13 15 40 13 15 40 13 15 40 13 15 40 13 15 40 13 15 40 
12 14 39 12 14 39 12 14 39 12 14 39 12 14 39 12 14 39 12 14 39 12 14 39 12 14 39 12 14 39 12 14 39 12 14 39 12 14 39 12 14 39 12 14 39 12 14 39 12 14 39 12 14 39 12 14 39 12 14 39 12 14 39 12 14 39 12 14 39 12 14 39 12 14 39 12 14 39 12 14 39 12 14 39 12 14 39 12 14 39 12 14 39 12 14 39 12 14 39 12 14 39 12 14 39 12 14 39 12 14 39 12 14 39 12 14 39 12 14 39 12 14 37 12 14 37 12 14 37 12 14 39 12 14 39 12 14 39 12 14 39 12 14 39 12 14 39 12 14 39 12 14 39 12 14 39 12 14 39 12 14 39 12 14 39 12 14 39 12 14 39 12 14 39 12 14 39 12 14 39 12 14 39 12 14 39 12 14 39 12 14 39 12 14 39 12 14 39 12 14 39 12 14 39 12 14 39 12 14 39 12 14 39 12 14 39 12 14 39 12 14 39 12 14 39 12 14 39 12 14 39 13 15 40 13 15 38 13 15 38 13 15 40 13 15 40 13 15 40 13 15 40 13 15 40 13 15 40 13 15 40 13 15 40 13 15 40 13 15 40 13 15 40 13 15 40 13 15 40 13 15 40 13 15 40 13 15 40 13 15 40 13 15 40 13 15 40 13 15 40 
12 14 39 12 14 39 12 14 39 12 14 39 12 14 39 12 14 39 12 14 39 12 14 39 12 14 39 12 14 39 12 14 39 12 14 39 12 14 39 12 14 39 12 14 39 12 14 39 12 14 39 12 14 39 12 14 39 12 14 39 12 14 39 12 14 39 12 14 39 12 14 39 12 14 39 12 14 39 12 14 39 12 14 39 12 14 39 12 14 39 12 14 39 12 14 39 12 14 39 12 14 39 12 14 39 12 14 39 12 14 39 12 14 39 12 14 39 12 14 39 12 14 37 12 14 37 12 14 37 12 14 39 12 14 39 12 14 39 12 14 39 12 14 39 12 14 39 12 14 39 12 14 39 12 14 39 12 14 39 12 14 39 12 14 39 12 14 39 12 14 39 12 14 39 12 14 39 12 14 39 12 14 39 12 14 39 12 14 39 12 14 39 12 14 39 12 14 39 12 14 39 12 14 39 12 14 39 12 14 39 12 14 39 12 14 39 12 14 39 12 14 39 12 14 39 12 14 39 12 14 39 13 15 40 13 15 38 13 15 38 13 15 40 13 15 40 13 15 40 13 15 40 13 15 40 13 15 40 13 15 40 13 15 40 13 15 40 13 15 40 13 15 40 13 15 40 13 15 40 13 15 40 13 15 40 13 15 40 13 15 40 13 15 40 13 15 40 13 15 40 
12 14 39 12 14 39 12 14 39 12 14 39 12 14 39 12 14 39 12 14 39 12 14 39 12 14 39 12 14 39 12 14 39 12 14 39 12 14 39 12 14 39 12 14 39 12 14 39 12 14 39 12 14 39 12 14 39 12 14 39 12 14 39 12 14 39 12 14 39 12 14 39 12 14 39 12 14 39 12 14 39 12 14 39 12 14 39 12 14 39 12 14 39 12 14 39 12 14 39 12 14 39 12 14 39 12 14 39 12 14 39 12 14 39 12 14 39 12 14 39 12 14 39 12 14 39 12 14 39 12 14 39 12 14 39 12 14 39 12 14 39 12 14 39 12 14 39 12 14 39 12 14 39 12 14 39 12 14 39 12 14 39 12 14 39 12 14 39 12 14 39 12 14 39 12 14 39 12 14 39 12 14 39 12 14 39 12 14 39 12 14 39 12 14 39 12 14 39 12 14 39 12 14 39 12 14 39 12 14 39 12 14 39 12 14 39 12 14 39 12 14 39 12 14 39 12 14 39 13 15 40 13 15 40 13 15 38 13 15 38 13 15 40 13 15 40 13 15 40 13 15 40 13 15 40 13 15 40 13 15 40 13 15 40 13 15 40 13 15 40 13 15 40 13 15 40 13 15 40 13 15 40 13 15 40 13 15 40 13 15 40 13 15 40 13 15 40 13 15 40 
12 14 39 12 14 39 12 14 39 12 14 39 12 14 39 12 14 39 12 14 39 12 14 39 12 14 39 12 14 39 12 14 39 12 14 39 12 14 39 12 14 39 12 14 39 12 14 39 12 14 39 12 14 39 12 14 39 12 14 39 12 14 39 12 14 39 12 14 39 12 14 39 12 14 39 12 14 39 12 14 39 12 14 39 12 14 39 12 14 39 12 14 39 12 14 39 12 14 39 12 14 39 12 14 39 12 14 39 12 14 39 12 14 39 12 14 39 12 14 39 12 14 39 12 14 39 12 14 39 12 14 39 12 14 39 12 14 39 12 14 39 12 14 39 12 14 39 12 14 39 12 14 39 12 14 39 12 14 39 12 14 39 12 14 39 12 14 39 12 14 39 12 14 39 12 14 39 12 14 39 12 14 39 12 14 39 12 14 39 12 14 39 12 14 39 12 14 39 12 14 39 12 14 39 12 14 39 12 14 39 12 14 39 12 14 39 12 14 39 12 14 39 12 14 39 12 14 39 13 15 40 13 15 40 13 15 38 13 15 38 13 15 40 13 15 40 13 15 40 13 15 40 13 15 40 13 15 40 13 15 40 13 15 40 13 15 40 13 15 40 13 15 40 13 15 40 13 15 40 13 15 40 13 15 40 13 15 40 13 15 40 13 15 40 13 15 40 13 15 40 
12 14 39 12 14 39 12 14 39 12 14 39 12 14 39 12 14 39 12 14 39 12 14 39 12 14 39 12 14 39 12 14 39 12 14 39 12 14 39 12 14 39 12 14 39 12 14 39 12 14 39 12 14 39 12 14 39 12 14 39 12 14 39 12 14 39 12 14 39 12 14 39 12 14 39 12 14 39 12 14 39 12 14 39 12 14 39 12 14 39 12 14 39 12 14 39 12 14 39 12 14 39 12 14 39 12 14 39 12 14 39 12 14 39 12 14 39 12 14 39 12 14 39 12 14 39 12 14 39 12 14 39 12 14 39 12 14 39 12 14 39 12 14 39 12 14 39 12 14 39 12 14 39 12 14 39 12 14 39 12 14 39 12 14 39 12 14 39 12 14 39 12 14 39 12 14 39 12 14 39 12 14 39 12 14 39 12 14 39 12 14 39 12 14 39 12 14 39 12 14 39 12 14 39 12 14 39 12 14 39 12 14 39 12 14 39 12 14 39 12 14 39 12 14 39 13 15 40 13 15 40 13 15 40 13 15 38 13 15 38 13 15 40 13 15 40 13 15 40 13 15 40 13 15 40 13 15 40 13 15 40 13 15 40 13 15 40 13 15 40 13 15 40 13 15 40 13 15 40 13 15 40 13 15 40 13 15 40 13 15 40 13 15 40 13 15 40 13 15 40 
12 14 39 12 14 39 12 14 39 12 14 39 12 14 39 12 14 39 12 14 39 12 14 39 12 14 39 12 14 39 12 14 39 12 14 39 12 14 39 12 14 39 12 14 39 12 14 39 12 14 39 12 14 39 12 14 39 12 14 39 12 14 39 12 14 39 12 14 39 12 14 39 12 14 39 12 14 39 12 14 39 12 14 39 12 14 39 12 14 39 12 14 39 12 14 39 12 14 39 12 14 39 12 14 39 12 14 39 12 14 39 12 14 39 12 14 39 12 14 39 12 14 39 12 14 39 12 14 39 12 14 39 12 14 39 12 14 39 12 14 39 12 14 39 12 14 39 12 14 39 12 14 39 12 14 39 12 14 39 12 14 39 12 14 39 12 14 39 12 14 39 12 14 39 12 14 39 12 14 39 12 14 39 12 14 39 12 14 39 12 14 39 12 14 39 12 14 39 12 14 39 12 14 39 12 14 39 12 14 39 12 14 39 12 14 39 12 14 39 12 14 39 12 14 39 13 15 40 13 15 40 13 15 38 13 15 40 13 15 38 13 15 40 13 15 40 13 15 40 13 15 40 13 15 40 13 15 40 13 15 40 13 15 40 13 15 40 13 15 40 13 15 40 13 15 40 13 15 40 13 15 40 13 15 40 13 15 40 13 15 40 13 15 40 13 15 40 13 15 40 
12 14 39 12 14 39 12 14 39 12 14 39 12 14 39 12 14 39 12 14 39 12 14 39 12 14 39 12 14 39 12 14 39 12 14 39 12 14 39 12 14 39 12 14 39 12 14 39 12 14 39 12 14 39 12 14 39 12 14 39 12 14 39 12 14 39 12 14 39 12 14 39 12 14 39 12 14 39 12 14 39 12 14 39 12 14 39 12 14 39 12 14 39 12 14 39 12 14 39 12 14 39 12 14 39 12 14 39 12 14 39 12 14 39 12 14 39 12 14 39 12 14 39 12 14 39 12 14 39 12 14 39 12 14 39 12 14 39 12 14 39 12 14 39 12 14 39 12 14 39 12 14 39 12 14 39 12 14 39 12 14 39 12 14 39 12 14 39 12 14 39 12 14 39 12 14 39 12 14 39 12 14 39 12 14 39 12 14 39 12 14 39 12 14 39 12 14 39 12 14 39 12 14 39 12 14 39 12 14 39 12 14 39 12 14 39 12 14 39 12 14 39 13 15 40 13 15 40 13 15 38 13 15 38 13 15 40 13 15 40 13 15 40 13 15 40 13 15 40 13 15 40 13 15 40 13 15 40 13 15 40 13 15 40 13 15 40 13 15 40 13 15 40 13 15 40 13 15 40 13 15 40 13 15 40 13 15 40 13 15 40 13 15 40 13 15 40 13 15 40 
12 14 39 12 14 39 12 14 39 12 14 39 12 14 39 12 14 39 12 14 39 12 14 39 12 14 39 12 14 39 12 14 39 12 14 39 12 14 39 12 14 39 12 14 39 12 14 39 12 14 39 12 14 39 12 14 39 12 14 39 12 14 39 12 14 39 12 14 39 12 14 39 12 14 39 12 14 39 12 14 39 12 14 39 12 14 39 12 14 39 12 14 39 12 14 39 12 14 39 12 14 39 12 14 39 12 14 39 12 14 39 12 14 39 12 14 39 12 14 39 12 14 39 12 14 39 12 14 39 12 14 39 12 14 39 12 14 39 12 14 39 12 14 39 12 14 39 12 14 39 12 14 39 12 14 39 12 14 39 12 14 39 12 14 39 12 14 39 12 14 39 12 14 39 12 14 39 12 14 39 12 14 39 12 14 39 12 14 39 12 14 39 12 14 39 12 14 39 12 14 39 12 14 39 12 14 39 12 14 39 12 14 39 12 14 39 12 14 39 12 14 39 13 15 40 13 15 40 13 15 38 12 14 37 13 15 40 14 16 41 13 15 40 13 15 40 13 15 40 13 15 40 13 15 40 13 15 40 13 15 40 13 15 40 13 15 40 13 15 40 13 15 40 13 15 40 13 15 40 13 15 40 13 15 40 13 15 40 13 15 40 13 15 40 13 15 40 13 15 40 
12 14 39 12 14 39 12 14 39 12 14 39 12 14 39 12 14 39 12 14 39 12 14 39 11 13 38 10 14 39 12 14 39 12 14 39 12 14 39 12 14 39 10 14 39 11 13 38 12 14 39 12 14 39 12 14 39 11 13 38 12 14 39 11 13 38 12 14 39 12 14 39 12 14 39 12 14 39 12 14 39 12 14 39 13 15 40 12 14 39 12 14 39 11 13 38 12 14 39 12 14 39 12 14 39 12 14 39 12 14 37 12 14 37 12 14 37 12 14 37 12 14 39 11 13 38 12 14 39 12 14 39 12 14 39 11 13 38 12 14 39 12 14 39 12 14 39 12 14 39 12 14 39 12 14 39 12 14 39 12 14 39 12 14 39 12 14 39 12 14 39 12 14 39 12 14 39 12 14 39 12 14 39 12 14 39 12 14 39 12 14 39 12 14 39 12 14 39 12 14 39 11 13 38 12 14 39 11 13 38 12 14 39 12 14 39 13 15 40 13 15 40 13 15 40 13 15 40 13 15 40 13 15 40 13 15 40 13 15 40 13 15 40 13 15 40 13 15 40 13 15 40 13 15 40 13 15 40 13 15 40 13 15 40 13 15 40 13 15 40 13 15 40 13 15 40 13 15 40 13 15 40 13 15 40 13 15 40 13 15 40 13 15 40 13 15 38 13 15 38 
12 14 39 12 14 39 12 14 39 12 14 39 12 14 39 12 14 39 12 14 39 12 14 39 12 14 39 12 14 39 12 14 39 12 14 39 12 14 39 12 14 39 12 14 39 12 14 39 12 14 39 12 14 39 12 14 39 12 14 39 12 14 39 12 14 39 12 14 39 13 15 40 11 13 38 12 14 39 12 14 39 12 14 39 12 14 39 12 14 39 11 13 38 12 14 39 12 14 39 12 14 39 12 14 39 12 14 39 12 14 37 12 14 37 12 14 37 12 14 37 12 14 39 12 14 39 12 14 39 12 14 39 12 14 39 11 13 38 12 14 39 11 13 38 12 14 39 12 14 39 12 14 39 12 14 39 12 14 39 12 14 39 12 14 39 12 14 39 12 14 39 12 14 39 12 14 39 12 14 39 12 14 39 12 14 39 12 14 39 12 14 39 11 13 38 11 13 38 12 14 39 11 13 38 12 14 39 12 14 39 12 14 39 12 14 39 13 15 40 13 15 40 13 15 40 13 15 40 13 15 40 13 15 40 13 15 40 13 15 40 13 15 40 13 15 40 13 15 40 13 15 40 13 15 40 13 15 40 13 15 40 13 15 40 13 15 40 13 15 40 13 15 40 13 15 40 13 15 40 13 15 40 13 15 40 13 15 40 13 15 40 13 15 40 13 15 38 13 15 38 
12 14 39 12 14 39 12 14 39 11 13 38 12 14 39 12 14 39 12 14 39 12 14 39 12 14 39 11 13 38 10 14 39 12 14 39 12 14 39 10 14 39 11 13 38 12 14 39 12 14 39 11 13 38 12 14 39 11 13 38 11 13 38 12 14 39 12 14 39 12 14 39 12 14 39 12 14 39 12 14 39 12 14 39 12 14 39 11 13 38 12 14 39 11 13 38 12 14 39 12 14 39 12 14 39 12 14 39 12 14 37 12 14 37 12 14 37 12 14 37 12 14 39 12 14 39 12 14 39 11 13 38 12 14 39 12 14 39 12 14 39 11 13 38 12 14 39 12 14 39 12 14 39 12 14 39 12 14 39 12 14 39 12 14 39 12 14 39 12 14 39 12 14 39 12 14 39 12 14 39 12 14 39 12 14 39 12 14 39 12 14 39 11 13 38 12 14 39 12 14 39 11 13 38 12 14 39 12 14 39 12 14 39 11 13 38 13 15 40 13 15 40 13 15 40 13 15 40 13 15 40 13 15 40 13 15 40 13 15 40 13 15 40 13 15 40 13 15 40 13 15 40 13 15 40 13 15 40 13 15 40 13 15 40 13 15 40 13 15 40 13 15 40 13 15 40 13 15 40 13 15 40 13 15 40 13 15 40 13 15 40 13 15 40 13 15 38 13 15 38 
12 14 39 11 13 38 11 13 38 11 13 38 12 14 39 12 14 39 12 14 39 11 13 38 12 14 39 11 13 38 12 14 39 12 14 39 12 14 39 12 14 39 11 13 38 12 14 39 13 15 40 11 13 38 12 14 39 12 14 39 12 14 39 12 14 39 12 14 39 12 14 39 12 14 39 13 15 40 11 13 38 12 14 39 12 14 39 12 14 39 12 14 39 12 14 39 12 14 39 12 14 39 12 14 39 12 14 39 12 14 37 12 14 37 12 14 37 12 14 37 11 13 38 12 14 39 12 14 39 11 13 38 12 14 39 12 14 39 12 14 39 12 14 39 12 14 39 12 14 39 12 14 39 12 14 39 12 14 39 12 14 39 12 14 39 12 14 39 12 14 39 12 14 39 12 14 39 12 14 39 12 14 39 12 14 39 12 14 39 12 14 39 12 14 39 12 14 39 12 14 39 12 14 39 12 14 39 12 14 39 12 14 39 12 14 39 13 15 40 13 15 40 13 15 40 13 15 40 13 15 40 13 15 40 13 15 40 13 15 40 13 15 40 13 15 40 13 15 40 13 15 40 13 15 40 13 15 40 13 15 40 13 15 40 13 15 40 13 15 40 13 15 40 13 15 40 13 15 40 13 15 40 13 15 40 13 15 40 13 15 40 13 15 40 13 15 38 13 15 38 
11 13 38 12 14 39 13 15 40 12 14 39 11 13 38 11 13 38 12 14 39 12 14 39 11 13 38 12 14 39 12 14 39 12 14 39 12 14 39 12 14 39 12 14 39 11 13 38 11 13 38 12 14 39 12 14 39 12 14 39 12 14 39 12 14 39 12 14 39 11 13 38 12 14 39 12 14 39 12 14 39 12 14 39 12 14 39 12 14 39 12 14 39 12 14 39 12 14 37 12 14 37 12 14 37 12 14 37 12 14 39 12 14 39 12 14 39 12 14 39 12 14 39 12 14 39 11 13 38 12 14 39 12 14 39 12 14 39 12 14 39 12 14 39 12 14 39 12 14 39 12 14 39 12 14 39 12 14 39 12 14 39 12 14 39 12 14 39 12 14 39 12 14 39 12 14 39 12 14 39 12 14 39 12 14 39 12 14 39 12 14 39 12 14 39 12 14 39 12 14 39 12 14 39 12 14 39 12 14 39 12 14 39 12 14 39 13 15 40 13 15 40 13 15 40 13 15 40 13 15 40 13 15 40 13 15 40 13 15 40 13 15 40 13 15 40 13 15 40 13 15 40 13 15 40 13 15 40 13 15 40 13 15 40 13 15 40 13 15 40 13 15 40 13 15 40 13 15 40 13 15 40 13 15 40 13 15 40 13 15 40 13 15 40 13 15 38 13 15 38 
12 14 39 12 14 39 12 14 39 12 14 39 12 14 39 11 13 38 12 14 39 12 14 39 11 13 38 10 14 39 12 14 39 12 14 39 12 14 39 12 14 39 10 14 39 11 13 38 12 14 39 12 14 39 11 13 38 13 15 40 12 14 39 12 14 39 12 14 39 12 14 39 12 14 39 12 14 39 12 14 39 12 14 39 11 13 38 11 13 38 12 14 39 12 14 39 12 14 37 12 14 37 12 14 37 12 14 37 12 14 39 12 14 39 12 14 39 12 14 39 12 14 39 12 14 39 12 14 39 12 14 39 12 14 39 11 13 38 11 13 38 12 14 39 12 14 39 12 14 39 12 14 39 12 14 39 12 14 39 12 14 39 12 14 39 12 14 39 12 14 39 12 14 39 12 14 39 12 14 39 12 14 39 12 14 39 12 14 39 12 14 39 12 14 39 12 14 39 12 14 39 12 14 39 12 14 39 12 14 39 12 14 39 11 13 38 13 15 40 13 15 40 13 15 40 13 15 40 13 15 40 13 15 40 13 15 40 13 15 40 13 15 40 13 15 40 13 15 40 13 15 40 13 15 40 13 15 40 13 15 40 13 15 40 13 15 40 13 15 40 13 15 40 13 15 40 13 15 40 13 15 40 13 15 40 13 15 40 13 15 40 13 15 40 13 15 38 13 15 38 
12 14 39 12 14 39 12 14 39 12 14 39 12 14 39 12 14 39 12 14 39 12 14 39 12 14 39 12 14 39 12 14 39 12 14 39 12 14 39 12 14 39 12 14 39 12 14 39 12 14 39 12 14 39 12 14 39 12 14 39 11 13 38 12 14 39 12 14 39 12 14 39 11 13 38 12 14 39 11 13 38 12 14 39 12 14 39 12 14 39 12 14 39 12 14 39 12 14 37 12 14 37 12 14 37 12 14 37 12 14 39 12 14 39 12 14 39 12 14 39 12 14 39 12 14 39 12 14 39 12 14 39 12 14 39 12 14 39 11 13 38 12 14 39 12 14 39 12 14 39 12 14 39 12 14 39 12 14 39 12 14 39 12 14 39 12 14 39 12 14 39 12 14 39 12 14 39 12 14 39 12 14 39 12 14 39 12 14 39 12 14 39 12 14 39 11 13 38 12 14 39 12 14 39 12 14 39 12 14 39 12 14 39 12 14 39 13 15 40 13 15 40 13 15 40 13 15 40 13 15 40 13 15 40 13 15 40 13 15 40 13 15 40 13 15 40 13 15 40 13 15 40 13 15 40 13 15 40 13 15 40 13 15 40 13 15 40 13 15 40 13 15 40 13 15 40 13 15 40 13 15 40 13 15 40 13 15 40 13 15 40 13 15 40 13 15 38 13 15 38 
12 14 39 12 14 39 12 14 39 12 14 39 12 14 39 12 14 39 12 14 39 12 14 39 12 14 39 11 13 38 10 14 39 12 14 39 12 14 39 10 14 39 11 13 38 12 14 39 11 13 38 12 14 39 12 14 39 12 14 39 13 15 40 12 14 39 11 13 38 12 14 39 12 14 39 12 14 39 12 14 39 12 14 39 12 14 39 12 14 39 12 14 39 12 14 39 12 14 37 12 14 37 12 14 37 12 14 37 12 14 39 12 14 39 12 14 39 12 14 39 11 13 38 13 15 40 11 13 38 11 13 38 12 14 39 12 14 39 11 13 38 12 14 39 12 14 39 12 14 39 12 14 39 12 14 39 12 14 39 12 14 39 12 14 39 12 14 39 12 14 39 12 14 39 12 14 39 12 14 39 12 14 39 12 14 39 12 14 39 12 14 39 12 14 39 11 13 38 11 13 38 12 14 39 12 14 39 12 14 39 13 15 40 14 16 41 13 15 40 13 15 40 13 15 40 13 15 40 13 15 40 13 15 40 13 15 40 13 15 40 13 15 40 13 15 40 13 15 40 13 15 40 13 15 40 13 15 40 13 15 40 13 15 40 13 15 40 13 15 40 13 15 40 13 15 40 13 15 40 13 15 40 13 15 40 13 15 40 13 15 40 13 15 40 13 15 38 13 15 38 
8 13 35 12 14 37 11 13 38 11 13 38 12 14 39 11 13 36 10 15 37 10 15 37 11 13 36 12 14 37 11 13 36 12 14 37 11 13 36 11 13 36 11 13 36 13 15 38 12 14 37 12 14 37 11 13 36 11 13 36 11 13 36 12 14 37 12 14 37 12 14 37 12 14 37 12 14 37 12 14 37 10 12 35 12 14 37 12 14 37 12 14 37 11 13 36 12 14 37 12 14 37 12 14 37 12 14 37 11 13 34 12 14 37 10 15 37 10 14 39 12 14 39 12 14 39 9 13 38 12 14 39 12 14 39 10 14 39 12 14 39 12 13 41 12 14 39 12 14 39 11 13 38 12 14 39 12 14 39 12 14 39 11 13 38 12 14 39 10 14 39 12 14 39 11 13 38 11 13 38 12 14 39 10 14 39 12 14 39 12 14 39 12 14 39 13 15 40 12 14 39 12 14 39 12 14 39 12 14 39 13 15 40 14 16 41 13 15 40 13 15 40 13 15 40 13 15 40 13 15 40 13 15 40 13 15 40 13 15 40 13 15 40 13 15 40 13 15 40 13 15 40 13 15 40 13 15 40 13 15 40 13 15 40 12 14 37 13 15 38 13 15 38 11 13 36 13 15 38 12 14 37 13 15 38 12 14 37 12 14 39 13 15 40 11 15 40 12 14 37 
11 13 38 12 14 37 10 14 39 12 14 37 10 14 39 10 12 35 12 14 39 12 14 39 11 13 36 12 14 37 13 15 38 12 14 37 12 14 37 10 12 35 12 14 37 12 14 37 11 13 36 12 14 37 12 14 37 12 14 37 11 13 36 11 13 36 12 14 37 12 14 37 12 14 37 11 13 36 11 13 36 11 13 36 12 14 37 12 14 37 12 14 37 11 13 36 11 13 36 12 14 37 13 15 38 12 14 37 11 13 36 12 14 37 12 14 39 11 12 40 11 13 36 12 14 39 12 14 39 12 14 39 10 14 39 12 14 39 12 14 39 12 14 39 12 14 39 11 13 38 12 14 39 12 14 39 12 14 39 11 13 38 12 14 39 12 14 39 11 13 38 12 14 39 10 14 39 12 14 39 11 13 38 13 15 40 12 14 39 9 13 38 11 13 38 13 15 40 13 15 40 12 14 39 11 13 38 12 14 39 12 14 39 13 15 40 13 15 40 13 15 40 13 15 40 13 15 40 13 15 40 13 15 40 13 15 40 13 15 40 13 15 40 13 15 40 13 15 40 13 15 40 13 15 40 13 15 40 13 15 40 13 15 40 12 14 37 13 15 38 12 14 37 12 14 37 13 15 38 12 14 37 13 15 38 12 14 37 13 15 40 11 15 40 11 15 40 13 15 38 
10 11 39 11 13 38 10 15 37 11 13 36 10 15 37 12 14 35 12 14 37 11 13 36 12 14 37 11 13 36 12 14 37 11 13 36 12 14 37 11 13 36 12 14 37 11 13 36 12 14 37 12 14 37 11 13 36 11 13 36 12 14 37 12 14 37 12 14 37 11 13 36 11 13 36 13 15 38 13 15 38 11 13 36 12 14 37 12 14 37 12 14 37 12 14 37 12 14 39 12 14 37 12 14 39 12 14 39 12 14 39 12 14 39 12 14 37 12 14 35 12 14 37 10 14 39 12 14 39 10 15 37 12 14 39 11 13 38 12 14 39 12 14 39 12 14 39 12 14 39 11 13 38 12 14 39 12 14 39 12 14 39 11 13 38 12 14 39 12 14 39 12 14 39 10 14 39 12 14 39 12 14 39 12 14 39 12 14 39 10 14 39 11 13 38 11 13 38 12 14 39 12 14 39 12 14 39 12 14 39 13 15 40 13 15 40 13 15 38 13 15 38 13 15 38 13 15 38 13 15 38 13 15 38 13 15 38 13 15 38 13 15 40 13 15 40 13 15 40 13 15 40 13 15 40 13 15 40 13 15 40 13 15 40 13 15 38 13 15 38 13 15 38 13 15 38 13 15 38 13 15 38 13 15 38 13 15 38 13 15 40 13 15 40 13 15 40 13 15 38 
11 13 38 11 13 36 10 14 39 11 13 36 10 15 37 12 14 37 12 14 37 12 14 37 12 14 37 11 13 36 12 14 37 11 13 36 12 14 37 12 14 37 12 14 37 11 13 36 12 14 37 12 14 37 12 14 37 11 13 36 11 13 36 11 13 36 12 14 37 12 14 37 12 14 37 12 14 37 10 12 35 11 13 36 12 14 37 12 14 37 11 13 36 11 13 36 10 15 35 10 15 37 12 14 37 11 13 36 11 13 36 12 14 37 12 14 39 11 13 38 12 14 37 11 13 38 12 14 39 11 13 38 10 14 39 11 13 38 10 14 39 12 14 37 12 14 39 11 13 38 12 14 39 12 14 39 12 14 39 12 14 39 12 14 39 12 14 39 10 14 39 12 14 39 11 13 38 11 13 38 11 13 38 10 14 39 12 14 39 12 14 39 12 14 39 12 14 39 11 13 38 12 14 39 12 14 39 12 14 39 13 15 40 13 15 38 13 15 38 13 15 38 13 15 38 13 15 38 13 15 38 13 15 38 13 15 38 13 15 38 13 15 40 13 15 40 13 15 40 13 15 40 13 15 40 13 15 40 13 15 40 13 15 40 13 15 38 13 15 38 13 15 38 13 15 38 13 15 38 13 15 38 13 15 38 13 15 38 11 15 40 11 15 40 11 15 40 13 15 38 
10 12 35 10 12 37 11 13 38 10 12 37 11 13 38 12 14 37 9 13 38 12 14 37 12 14 37 12 14 37 12 14 37 12 14 37 12 14 37 11 13 36 12 14 37 11 13 36 12 14 37 12 14 37 12 14 37 11 13 36 11 13 36 11 13 36 12 14 37 12 14 37 13 15 38 12 14 37 12 14 37 12 14 37 12 14 37 12 14 37 13 15 38 11 13 36 10 14 41 10 14 39 12 14 39 12 14 39 12 14 39 12 14 39 12 14 37 11 13 36 10 14 39 12 12 38 12 14 37 10 15 37 12 14 39 10 14 39 11 13 38 9 13 38 11 13 38 12 14 39 11 13 38 12 14 39 12 14 39 11 13 38 12 14 39 12 14 39 10 14 39 12 14 39 11 13 38 12 14 39 12 14 39 10 14 39 12 14 39 12 14 39 11 13 38 12 14 39 12 14 39 12 14 39 12 14 39 12 14 39 13 15 38 13 15 38 13 15 38 13 15 38 13 15 38 13 15 38 13 15 38 13 15 38 13 15 38 13 15 38 13 15 40 13 15 40 13 15 40 13 15 40 13 15 40 13 15 40 13 15 40 13 15 40 13 15 38 13 15 38 13 15 38 13 15 38 13 15 38 13 15 38 13 15 38 13 15 38 13 15 40 14 16 39 13 15 38 13 15 40 
8 12 37 10 12 37 10 12 37 11 13 38 12 14 39 12 14 39 9 14 36 11 16 38 12 14 37 12 14 37 11 13 36 12 14 37 11 13 36 12 14 37 11 13 36 11 13 36 12 14 37 12 14 37 11 13 36 11 13 36 12 14 37 12 14 37 12 14 37 11 13 36 11 13 36 11 13 36 11 13 36 12 14 37 11 13 36 12 14 37 12 14 37 11 13 36 12 14 37 11 13 38 12 14 37 12 14 37 12 14 37 12 14 37 12 14 39 12 14 39 10 14 39 11 11 37 9 15 37 11 13 36 12 14 39 11 13 38 12 14 39 11 13 38 12 14 39 11 13 38 12 14 39 11 13 38 12 14 39 12 14 39 12 14 39 12 14 39 11 13 38 11 13 38 10 14 39 12 14 39 12 14 39 12 14 39 11 13 38 10 14 39 12 14 39 11 13 38 12 14 39 12 14 39 12 14 39 11 13 38 13 15 38 12 14 37 13 15 38 13 15 38 13 15 38 13 15 38 13 15 38 13 15 38 13 15 38 13 15 38 13 15 40 13 15 40 13 15 40 13 15 40 13 15 40 13 15 40 13 15 40 13 15 40 13 15 38 13 15 38 13 15 38 13 15 38 13 15 38 13 15 38 13 15 38 13 15 38 10 14 39 13 15 38 13 15 38 11 15 40 
11 13 38 10 12 37 7 11 36 10 12 37 8 12 37 12 14 39 11 13 38 11 13 36 12 14 37 11 13 36 12 14 37 11 13 36 12 14 37 12 14 37 11 13 36 11 13 36 11 13 36 12 14 37 12 14 37 12 14 37 11 13 36 11 13 36 12 14 37 12 14 37 12 14 37 12 14 37 11 13 36 12 14 37 12 14 37 12 14 37 12 14 37 12 14 37 11 13 36 11 13 36 12 14 37 11 13 36 11 13 36 11 13 36 12 14 39 12 14 39 12 14 39 11 13 38 11 13 36 12 14 37 11 13 36 9 14 36 11 13 38 12 14 39 12 14 39 12 14 39 12 14 39 12 14 39 11 13 38 12 14 39 11 13 38 12 14 39 11 13 38 12 14 39 10 14 39 12 14 39 12 14 39 11 13 38 12 14 39 10 14 39 11 13 38 11 13 38 11 13 38 12 14 39 13 15 40 13 15 40 13 15 38 13 15 38 13 15 38 13 15 38 13 15 38 13 15 38 13 15 38 13 15 38 13 15 38 13 15 38 13 15 40 13 15 40 13 15 40 13 15 40 13 15 40 13 15 40 13 15 40 13 15 40 13 15 38 12 14 37 12 14 37 13 15 38 12 14 37 13 15 38 12 14 37 13 15 38 13 15 40 13 15 38 14 16 39 14 16 41 
11 13 38 10 11 39 7 11 38 11 12 40 8 12 37 11 13 38 11 13 36 11 13 36 13 15 38 12 14 37 12 14 37 11 13 36 12 14 37 11 13 36 11 13 36 11 13 36 12 14 37 12 14 37 11 13 36 11 13 36 11 13 36 12 14 37 12 14 37 12 14 37 12 14 37 12 14 37 11 13 36 12 14 37 11 13 36 12 14 37 11 13 36 11 13 36 12 14 37 11 13 36 12 14 37 12 14 37 12 14 37 12 14 37 10 14 39 10 14 39 11 13 36 9 13 38 11 13 38 12 14 37 9 14 36 11 13 36 12 14 39 11 13 38 12 14 39 12 14 39 12 14 39 12 14 39 12 14 39 11 13 38 12 14 39 11 13 38 10 14 39 10 12 37 12 14 39 12 14 39 13 15 40 9 13 38 12 14 39 12 14 39 12 14 39 12 14 39 12 14 39 12 14 39 13 15 40 12 14 39 13 15 38 13 15 38 13 15 38 13 15 38 13 15 38 13 15 38 13 15 38 13 15 38 13 15 38 13 15 38 13 15 40 13 15 40 13 15 40 13 15 40 13 15 40 13 15 40 13 15 40 13 15 40 13 15 38 12 14 37 12 14 37 14 16 39 12 14 37 13 15 38 12 14 37 13 15 38 10 14 39 12 14 37 13 15 38 12 16 41 
10 12 37 10 12 37 10 12 37 10 12 37 10 12 37 11 13 38 12 14 39 12 14 39 12 14 37 11 13 36 12 14 39 12 14 39 12 14 39 12 14 39 11 13 36 11 13 36 12 14 37 13 15 38 12 14 37 12 14 37 11 13 36 12 14 37 11 13 36 12 14 37 12 14 37 12 14 37 12 14 37 12 14 37 11 13 36 12 14 39 12 14 37 12 14 37 12 14 37 12 14 39 12 14 37 12 14 37 12 14 39 12 14 39 12 14 37 12 14 39 11 13 36 12 14 37 11 13 36 12 14 37 12 14 37 11 13 36 11 13 36 12 14 37 12 14 37 12 14 39 11 13 38 12 14 39 12 14 39 12 14 39 12 14 39 12 14 39 10 14 39 10 12 37 11 13 38 12 14 39 10 14 39 12 14 39 12 14 39 12 14 39 12 14 39 12 14 39 10 14 39 12 14 39 11 16 38 11 13 36 11 16 38 12 14 37 13 15 40 13 15 38 12 14 39 12 14 37 14 16 39 13 15 40 12 14 37 13 15 40 13 15 38 12 14 37 13 15 38 12 14 37 13 15 38 13 15 38 13 15 38 12 14 37 13 15 40 12 14 37 13 15 38 14 16 39 13 15 38 13 15 38 13 15 38 12 14 37 13 15 38 12 14 37 13 15 40 14 16 41 
11 13 38 10 12 37 10 12 37 10 12 37 10 12 37 11 13 38 11 13 38 11 13 38 11 13 36 12 14 37 12 14 37 11 13 36 11 13 36 11 13 36 12 14 37 12 14 37 11 13 36 12 14 37 11 13 36 12 14 37 11 13 36 11 13 36 12 14 37 12 14 37 12 14 37 12 14 37 11 13 36 12 14 37 11 13 36 12 14 37 12 14 39 12 14 37 12 14 37 11 13 36 12 14 37 11 13 36 12 14 37 11 13 36 12 14 37 11 13 36 11 13 36 12 14 37 12 14 37 11 13 36 11 13 38 12 14 37 11 13 38 12 14 37 12 14 37 12 14 39 11 13 38 12 14 39 12 14 39 12 14 39 12 14 39 11 13 38 11 13 38 9 13 38 10 14 39 12 14 39 11 13 38 11 13 38 12 14 39 13 15 40 12 14 39 11 13 38 10 14 39 12 14 39 11 16 38 12 14 39 13 15 40 13 15 38 13 15 38 13 15 40 13 15 38 13 15 40 13 15 40 13 15 38 12 14 39 13 15 38 13 15 38 12 14 37 13 15 38 12 14 37 12 14 37 13 15 38 13 15 38 12 14 37 13 15 38 13 15 38 13 15 38 13 15 38 12 14 37 13 15 38 12 14 37 13 15 38 13 15 38 13 15 38 13 15 40 13 15 40 
10 12 37 10 12 37 11 13 38 10 12 37 10 12 37 10 12 37 10 12 37 11 13 38 11 13 38 12 14 37 12 14 37 12 14 37 12 14 37 11 13 36 11 13 38 11 13 38 11 13 36 11 13 36 12 14 37 12 14 37 11 13 36 11 13 36 11 13 36 12 14 37 12 14 37 12 14 37 11 13 36 12 14 37 11 13 36 12 14 39 12 14 35 12 14 37 12 14 37 12 14 35 10 15 37 12 14 37 11 13 36 10 15 37 12 14 39 12 14 37 11 13 36 12 14 37 12 14 37 11 13 36 12 14 37 11 13 36 11 13 36 12 14 37 10 15 37 10 14 39 10 14 39 10 14 39 10 14 39 10 14 41 10 14 39 10 14 39 13 15 40 12 14 39 12 14 39 12 14 39 11 13 38 9 13 38 9 13 38 11 13 38 12 14 39 11 13 38 12 14 39 12 14 39 11 16 38 12 14 39 13 14 42 13 15 38 13 15 38 13 15 40 13 15 38 13 15 40 13 15 40 12 14 37 13 15 40 13 15 38 12 14 39 13 15 40 13 15 40 13 15 40 13 15 40 12 14 39 13 15 40 12 14 39 13 15 38 13 15 38 13 15 38 13 15 38 13 15 38 13 15 38 13 15 38 12 14 37 13 15 38 13 15 38 13 15 40 13 15 40 
10 12 37 10 12 37 10 12 37 10 12 37 10 12 37 11 13 38 10 12 37 10 12 37 10 12 37 10 12 37 11 13 38 11 13 36 13 15 38 11 13 36 11 13 36 11 13 36 11 13 36 12 14 37 11 13 36 12 14 37 11 13 36 11 13 36 10 12 35 12 14 37 12 14 37 12 14 37 11 13 36 12 14 37 11 13 36 11 13 36 12 14 39 12 14 37 12 14 39 10 15 37 12 14 39 11 13 38 12 14 37 12 14 37 10 14 39 12 14 37 11 13 36 12 14 37 12 14 37 12 14 37 11 13 36 12 14 39 11 13 36 12 14 39 11 13 36 12 14 39 12 14 37 12 14 39 12 14 37 12 14 39 12 14 39 12 14 39 10 14 39 11 13 38 11 13 38 12 14 39 10 14 39 12 14 39 12 14 39 11 13 38 12 14 39 12 14 39 12 14 39 12 14 39 13 15 38 13 15 40 13 15 40 13 15 38 13 15 38 13 15 38 12 14 39 13 15 38 13 15 38 13 15 40 13 15 38 13 15 38 13 15 38 13 15 38 13 15 38 12 14 37 12 14 37 12 14 37 13 15 38 13 15 38 13 15 38 13 15 38 13 15 38 12 14 37 13 15 38 12 14 37 13 15 38 13 15 40 13 15 38 13 15 38 13 15 40 14 16 41 
10 12 37 10 12 37 10 12 37 11 13 38 10 12 37 10 12 37 10 12 37 10 12 37 11 13 38 11 13 38 11 13 38 11 13 36 11 13 36 12 14 39 12 14 39 12 14 39 11 13 36 12 14 37 11 13 36 12 14 37 12 14 37 11 13 36 11 13 36 12 14 37 12 14 39 12 14 37 11 13 36 11 13 36 12 14 37 11 13 36 12 14 37 12 14 37 11 13 36 11 13 38 9 14 36 11 13 36 10 12 37 8 12 37 11 13 36 11 13 38 11 13 38 12 14 37 11 13 38 12 14 37 11 13 36 11 13 36 12 14 37 12 14 37 11 13 36 12 14 37 12 14 37 12 13 41 12 14 39 12 13 41 12 14 37 12 14 39 11 13 38 11 13 38 12 14 39 10 14 39 11 13 38 12 14 39 12 14 39 10 14 39 12 14 39 12 14 39 12 14 39 12 14 39 13 15 38 13 15 38 12 14 37 13 15 38 13 15 38 12 14 37 13 15 40 12 14 37 13 15 38 13 15 40 13 15 38 12 14 37 13 15 38 12 14 37 13 15 38 12 14 37 13 15 38 13 15 38 13 15 38 12 14 37 13 15 38 12 14 37 13 15 38 13 15 38 12 14 37 12 14 37 12 14 37 12 14 39 12 14 37 13 15 38 13 15 40 13 15 40 
10 12 37 10 12 37 10 12 37 11 13 38 10 12 37 10 12 37 10 12 37 9 11 36 9 11 36 10 12 37 11 13 38 12 14 37 11 13 36 12 14 37 12 14 37 12 14 35 12 14 37 11 13 36 12 14 37 12 14 37 12 14 37 11 13 36 11 13 36 12 14 37 12 14 37 12 14 37 12 14 37 11 13 36 12 14 39 11 13 36 12 14 37 12 14 37 11 13 36 9 13 38 11 13 36 11 13 36 11 13 36 11 13 36 9 14 34 11 13 36 12 14 37 11 13 36 12 14 37 12 14 37 11 13 36 12 14 37 11 13 36 12 14 37 10 14 39 10 15 37 11 16 38 10 14 39 10 14 39 10 14 39 10 14 39 10 14 39 12 14 39 10 14 39 10 14 39 12 14 39 11 13 38 11 13 38 12 14 39 11 13 38 12 14 39 12 14 39 11 13 38 10 14 39 13 15 38 13 15 38 12 14 37 13 15 38 13 15 38 12 14 37 12 14 37 13 15 38 13 15 38 13 15 38 12 14 37 13 15 38 13 15 40 13 15 40 13 15 40 12 14 39 13 15 40 12 14 39 13 15 40 13 15 40 12 14 37 12 14 37 12 14 37 12 14 37 13 15 38 13 15 38 13 15 38 13 15 38 13 15 38 13 15 38 13 15 40 13 15 40 
10 12 37 10 12 37 11 13 38 11 13 38 10 12 37 10 12 37 10 12 37 10 12 37 10 12 37 10 12 37 12 14 37 11 13 36 12 14 37 10 12 35 12 14 39 12 13 41 12 14 37 11 13 36 12 14 37 12 14 37 12 14 37 10 12 35 11 13 36 12 14 37 12 14 39 12 14 37 12 14 37 11 13 36 12 14 37 11 13 36 12 14 37 12 14 37 12 14 37 12 14 37 12 14 37 12 14 37 12 14 37 12 14 37 12 14 37 12 14 37 12 14 37 11 13 38 12 14 37 12 14 39 12 14 37 12 14 37 12 14 37 11 13 36 11 13 38 12 14 37 12 14 37 12 14 39 12 14 39 11 13 38 12 14 39 11 13 38 12 14 39 10 12 37 11 13 38 11 13 38 12 14 39 10 14 39 10 14 39 12 14 39 12 14 39 12 14 39 11 13 38 10 14 39 13 15 38 11 15 40 12 14 39 13 15 38 12 14 37 13 15 38 12 14 37 12 14 37 13 15 38 13 15 38 13 15 38 13 15 38 13 15 38 12 14 37 13 15 38 12 14 37 13 15 38 13 15 38 13 15 38 12 14 37 12 14 37 13 15 38 13 15 38 13 15 38 13 15 38 12 14 37 13 15 38 12 14 37 13 15 38 13 15 38 12 14 39 12 14 39 
10 12 37 10 12 37 10 12 37 10 12 37 10 12 37 11 13 38 10 12 37 10 12 37 10 11 39 11 13 38 10 12 37 10 12 37 11 13 38 11 13 36 11 13 36 11 13 36 11 13 36 11 13 36 11 13 36 12 14 37 12 14 37 11 13 36 11 13 36 13 15 38 12 14 39 12 14 37 12 14 37 11 13 36 12 14 39 12 14 37 12 14 37 12 14 37 12 14 39 12 14 37 12 14 39 12 14 39 12 14 37 12 14 37 12 14 39 12 14 37 12 14 37 12 14 37 11 13 36 12 14 37 11 13 36 12 14 37 12 14 37 11 13 36 11 13 36 12 14 37 12 14 37 12 14 39 12 14 39 12 14 39 13 15 40 11 13 36 12 14 39 11 13 38 12 14 39 10 14 39 12 14 39 11 13 38 12 14 39 10 14 39 12 14 39 9 13 38 11 13 38 9 13 38 12 14 37 12 16 41 12 14 39 13 15 38 13 15 38 13 15 38 13 15 38 13 15 38 13 15 38 13 15 38 12 14 37 13 15 38 12 14 37 13 15 38 13 15 38 13 15 38 13 15 38 12 14 37 13 15 38 13 15 38 12 14 39 12 14 37 12 14 37 13 15 38 12 14 37 13 15 38 13 15 38 12 14 37 12 14 37 13 15 38 13 15 40 12 14 39 
10 12 37 10 12 37 10 12 37 10 12 37 10 12 37 10 12 37 10 12 37 10 12 37 10 12 37 10 12 37 10 12 37 10 12 37 10 12 37 11 13 38 11 13 36 10 12 35 10 15 37 11 13 36 13 13 37 11 13 36 11 13 34 12 14 37 10 15 37 11 13 36 12 14 37 12 14 37 11 13 36 10 15 37 11 13 36 11 13 36 11 13 36 11 13 36 11 13 36 11 13 36 12 14 37 11 13 36 11 13 36 11 13 36 12 14 37 11 13 36 11 13 36 11 13 36 12 14 37 12 14 39 12 14 37 11 13 36 12 14 37 12 14 37 12 14 39 12 14 37 12 14 37 12 14 37 11 13 36 12 14 39 11 13 38 12 14 39 10 14 39 12 14 39 10 14 39 13 15 40 10 14 39 11 13 38 10 14 39 10 14 39 12 14 39 13 15 38 13 15 38 13 15 40 13 15 38 14 16 39 13 15 38 13 15 38 12 14 37 13 15 40 13 15 40 12 14 37 13 15 38 13 15 40 13 15 40 13 15 38 13 15 38 13 15 36 13 15 38 13 15 38 13 15 38 13 15 40 13 15 38 13 15 38 13 15 38 13 15 38 13 15 38 13 15 38 13 15 38 13 15 38 13 15 38 13 15 38 13 15 40 12 14 37 13 15 38 12 14 39 
10 12 37 10 12 37 10 12 37 10 12 37 10 12 37 10 12 37 10 12 37 10 12 37 10 12 37 11 13 38 10 12 37 8 12 37 10 12 37 11 13 36 12 14 39 11 13 36 11 13 36 12 12 36 9 14 36 12 14 37 12 14 37 10 12 35 12 14 37 11 13 36 12 14 37 12 14 37 10 15 37 12 14 37 12 14 37 12 14 37 11 13 36 12 14 37 11 13 36 11 13 36 11 13 36 11 13 36 12 14 37 12 14 37 11 13 36 12 14 37 11 13 36 11 13 36 12 14 37 12 14 37 11 13 36 12 14 39 12 14 37 12 14 37 12 14 37 11 13 38 11 13 36 11 13 36 12 14 39 11 13 38 12 14 37 12 14 39 12 14 39 9 13 38 10 14 39 10 14 39 12 14 39 10 14 39 10 14 39 12 14 39 12 14 39 13 15 40 13 15 38 13 15 38 13 15 38 13 15 38 13 15 38 13 15 38 12 14 37 13 15 38 13 15 38 12 14 37 13 15 38 13 15 38 13 15 38 13 15 38 13 15 40 13 15 38 14 16 39 13 15 38 13 15 40 13 15 38 13 15 38 13 15 38 13 15 38 13 15 38 13 15 38 13 15 38 13 15 38 13 15 38 13 15 38 13 15 38 12 14 39 13 15 38 13 15 38 12 14 39 
