P3
100 50
255
6 8 23 6 7 25 6 8 23 6 9 26 6 7 25 5 8 25 6 9 26 6 9 24 5 8 23 5 8 25 6 9 26 3 9 23 6 9 24 3 9 23 7 8 26 7 9 24 6 8 23 6 9 26 9 8 26 5 6 24 6 9 24 8 9 27 6 7 25 7 9 24 6 7 25 6 7 25 6 7 25 5 8 23 5 8 25 5 8 23 5 8 25 6 8 23 6 9 26 6 8 23 5 8 23 6 9 26 5 8 23 5 8 23 6 9 26 6 8 23 7 8 26 3 9 23 6 8 23 6 8 23 7 8 26 7 10 27 7 8 26 7 10 27 7 8 26 8 11 30 8 9 29 9 12 31 10 12 33 9 12 31 11 13 34 11 13 34 13 15 38 13 15 38 15 17 42 15 16 46 16 17 47 19 20 50 17 20 51 20 23 58 20 22 60 21 23 61 23 25 63 23 25 63 25 28 69 24 27 70 26 29 74 28 31 76 29 32 77 32 34 82 34 36 84 32 36 84 33 36 87 33 36 89 34 37 92 35 38 91 38 41 92 38 41 92 39 42 97 37 39 96 39 41 100 37 42 98 40 42 99 38 43 101 40 42 99 39 44 100 41 43 100 40 45 103 42 44 101 41 43 100 38 43 99 37 43 101 38 43 99 38 43 99 39 41 100 35 40 95 
6 7 25 6 9 26 7 8 26 7 8 26 7 8 26 7 8 28 7 10 25 7 10 25 9 8 24 7 8 26 6 9 24 5 8 23 5 8 23 6 9 24 5 8 23 5 8 23 6 9 24 6 9 24 6 8 23 7 9 24 5 8 23 6 9 24 7 9 24 6 9 26 5 8 23 7 8 28 7 10 29 7 10 29 9 12 31 9 12 29 10 12 33 10 12 35 12 14 37 13 15 38 13 15 38 15 16 44 15 16 44 17 18 48 18 19 49 17 22 54 18 21 54 19 22 57 23 27 64 20 24 61 23 27 65 24 27 68 27 29 70 29 32 73 29 32 73 29 31 80 30 32 80 30 33 84 32 36 84 32 35 86 33 36 89 34 37 90 37 40 91 38 41 92 39 42 95 38 40 97 38 40 97 37 42 98 37 42 98 40 42 99 38 43 101 38 43 99 38 43 99 38 43 99 38 43 101 39 44 100 38 43 99 38 43 101 38 43 101 38 43 99 37 42 98 36 41 96 38 40 99 38 41 96 38 41 92 38 41 92 35 38 91 35 38 93 33 36 89 32 35 86 32 36 84 32 36 83 33 34 82 29 33 78 29 32 77 27 30 73 25 28 71 25 28 69 23 25 64 25 24 64 20 23 58 21 23 61 18 21 54 18 19 50 19 20 51 16 17 45 
7 8 26 7 8 26 6 7 25 6 7 25 6 7 25 6 7 25 6 7 25 6 7 25 6 7 25 6 7 25 6 8 23 6 9 24 6 7 25 6 7 25 6 7 25 6 8 23 6 7 25 6 8 23 7 8 26 6 8 23 6 9 24 7 9 24 7 9 24 6 7 25 7 8 26 7 8 26 8 9 29 8 11 30 8 11 30 9 12 31 10 12 35 10 12 35 12 14 37 13 15 38 13 15 38 15 16 44 15 16 44 16 17 47 18 19 49 18 21 52 18 21 56 18 21 54 21 25 62 20 24 61 23 27 65 24 27 70 26 28 69 30 33 74 29 32 73 30 32 81 30 32 80 31 34 85 31 34 85 32 35 86 35 38 93 34 37 90 37 40 91 38 41 92 38 41 94 37 40 95 38 41 96 37 42 98 37 42 98 40 42 99 40 42 99 38 43 99 39 44 100 41 43 100 40 42 99 38 43 101 38 43 99 39 44 100 38 43 99 38 43 101 38 43 101 36 41 96 38 40 97 38 41 96 37 40 91 38 41 92 36 39 94 35 38 93 34 37 88 32 35 86 33 35 84 33 35 83 33 36 81 28 31 76 30 33 78 26 29 72 25 28 71 24 27 68 23 25 64 22 26 64 20 22 60 20 23 58 18 21 54 20 21 52 17 20 51 16 17 45 
6 9 26 6 9 26 7 10 27 7 10 27 11 9 30 9 10 28 8 11 30 8 11 30 9 11 34 9 11 32 10 12 35 11 13 34 12 14 35 12 14 37 13 15 40 13 15 40 14 15 43 15 16 44 14 18 47 14 18 47 15 19 48 16 19 52 16 19 50 19 22 55 18 21 56 20 23 58 21 23 61 22 24 62 22 26 61 24 27 62 24 28 65 26 28 67 26 30 68 26 29 72 26 29 72 29 31 79 29 32 77 31 34 79 31 34 79 31 33 81 32 34 83 30 34 82 34 36 87 34 36 87 34 37 88 34 37 90 35 38 89 36 39 92 36 39 92 36 39 90 36 39 90 36 39 92 35 38 91 36 39 94 38 41 94 37 40 91 35 38 91 36 39 92 34 38 86 34 37 90 34 37 90 35 38 89 34 37 88 32 35 86 32 36 84 31 34 85 30 34 81 31 33 81 29 31 79 29 31 79 29 32 77 26 29 72 27 30 73 26 30 68 26 30 68 24 26 65 24 26 64 23 25 63 23 26 61 23 26 61 20 23 56 20 23 56 18 21 52 18 21 52 19 20 50 17 18 48 18 19 49 14 18 47 15 16 44 14 18 45 14 15 43 12 16 41 14 16 41 13 15 40 13 15 40 12 14 39 13 15 40 13 15 40 14 16 41 15 17 42 
7 8 26 8 11 28 7 10 29 7 10 29 9 12 31 9 12 31 9 11 32 9 11 34 12 12 36 13 13 37 12 14 37 13 15 40 15 17 42 16 18 43 15 19 48 16 20 49 18 21 54 19 22 55 20 22 60 21 25 63 21 25 63 24 27 70 24 27 68 26 29 74 27 30 71 28 30 78 29 31 79 30 32 80 32 34 82 32 34 82 35 37 85 35 37 86 34 37 88 36 37 91 34 37 92 37 40 95 39 42 97 39 42 97 40 43 96 39 42 97 39 41 98 37 42 98 40 42 99 41 43 102 40 45 101 39 44 100 38 43 99 38 43 99 37 42 100 40 43 96 40 43 96 39 42 97 38 40 97 39 42 97 38 41 92 38 41 92 35 38 91 34 37 90 34 37 90 32 35 86 32 35 86 33 35 83 33 36 81 28 32 77 28 31 76 27 30 73 25 28 69 25 28 69 24 26 65 23 25 66 21 24 59 20 23 58 19 22 57 19 20 51 19 20 50 16 17 45 16 17 45 15 16 44 14 16 41 14 16 41 11 13 36 11 13 34 10 12 33 10 13 32 9 12 31 8 11 30 8 9 29 7 10 27 6 7 27 7 8 26 6 7 25 7 9 24 7 10 29 8 10 25 8 9 29 8 9 29 9 11 32 10 12 35 10 12 33 14 16 41 
11 13 36 12 14 39 11 15 40 12 16 43 12 16 43 13 17 44 14 18 47 14 18 47 14 19 49 16 19 50 17 21 50 19 22 55 19 22 55 19 22 57 22 25 60 21 25 62 23 27 65 23 27 65 26 28 69 26 29 70 26 29 72 27 30 75 28 31 74 30 34 81 29 33 78 32 34 83 32 34 83 32 34 83 35 37 86 35 37 86 35 39 87 35 38 89 35 38 89 36 39 92 35 38 93 37 40 95 37 40 95 38 41 94 38 41 92 38 41 94 37 40 93 37 40 95 37 40 93 37 40 95 36 39 92 36 39 92 33 39 91 35 38 89 35 38 89 34 38 85 34 38 85 34 36 85 33 35 84 32 34 82 32 35 80 31 34 79 29 32 77 28 31 76 28 31 76 27 30 73 27 30 73 27 29 68 26 28 67 22 26 64 22 26 64 23 25 63 20 23 58 19 23 58 19 22 57 18 21 54 17 20 51 16 19 50 16 19 50 16 17 45 15 16 44 12 16 41 14 16 39 12 14 39 12 14 37 11 13 36 11 13 34 11 13 34 11 13 34 10 13 32 9 12 31 8 10 33 9 11 32 9 11 32 9 11 32 10 12 33 11 13 34 11 13 36 10 14 39 12 14 37 12 16 43 14 16 41 13 17 44 15 19 48 18 19 49 19 22 55 
27 30 73 27 30 73 28 30 78 29 32 77 32 34 83 31 35 83 32 35 86 31 34 85 33 36 89 35 38 91 35 38 91 36 38 95 37 39 96 38 40 97 38 40 97 35 42 97 37 42 98 37 42 98 37 42 98 38 43 99 37 44 99 40 42 99 37 42 98 38 43 99 37 42 100 38 43 99 39 41 98 37 44 99 39 40 97 37 39 96 36 38 95 36 39 94 35 38 93 34 37 90 34 37 90 32 35 86 33 35 86 32 36 83 33 36 81 31 34 77 28 31 76 28 31 76 25 28 69 25 28 71 23 25 64 23 25 64 20 24 61 19 22 57 20 23 56 17 20 51 17 21 50 18 19 47 15 16 44 15 16 44 13 15 40 14 16 41 11 13 36 11 13 36 11 13 34 10 13 32 10 13 32 9 12 31 10 11 31 7 9 30 7 10 29 8 9 29 7 8 26 6 9 26 5 8 23 6 9 24 5 8 23 5 8 25 6 8 23 7 8 26 6 7 25 6 7 25 6 9 26 7 10 25 7 8 26 8 9 27 10 11 31 10 11 31 11 13 34 11 13 34 12 14 35 15 16 44 14 15 43 17 20 51 17 20 51 21 23 61 22 24 62 23 27 65 25 29 74 25 30 72 30 34 81 33 35 83 33 37 84 35 37 86 34 38 86 38 41 96 
26 29 74 27 30 73 28 30 78 29 32 77 28 34 82 30 34 82 32 35 86 32 35 86 33 36 87 35 38 93 35 38 91 36 39 94 34 39 94 37 40 95 37 39 96 35 40 96 41 43 100 37 42 98 37 42 98 38 43 101 38 43 101 40 42 99 37 42 98 37 42 98 37 42 98 37 42 98 40 42 99 37 42 98 37 39 96 37 39 96 36 38 95 36 39 94 35 38 93 34 37 90 34 37 88 31 34 85 32 35 88 33 35 84 32 35 80 30 34 79 27 30 75 27 30 75 25 28 69 26 27 71 23 27 64 23 25 63 20 24 61 19 21 59 19 21 59 19 20 51 17 20 51 18 19 47 16 17 45 15 16 44 13 15 40 13 15 40 11 13 36 12 14 37 10 12 35 9 12 29 10 13 30 8 11 30 9 12 31 7 10 29 7 10 29 7 10 27 5 8 25 7 10 27 6 10 22 5 8 23 5 8 23 7 9 24 5 8 23 4 7 22 5 8 23 6 10 22 6 9 24 6 9 24 8 9 27 7 8 26 10 11 31 10 11 31 10 13 32 10 12 35 11 13 38 14 16 41 15 16 44 17 20 51 16 19 50 21 24 59 22 24 62 24 26 65 26 29 72 26 31 73 32 34 82 34 35 83 34 36 84 35 37 86 35 38 89 38 40 97 
39 41 100 38 40 97 38 41 96 38 41 94 38 40 99 38 40 97 37 39 96 36 39 94 35 38 93 33 36 91 34 37 90 32 35 86 32 35 86 31 34 85 30 32 81 30 32 80 27 31 76 28 31 76 26 29 70 25 28 71 23 26 67 22 24 62 23 25 64 21 23 61 20 23 58 20 21 52 19 20 51 15 19 48 15 16 44 16 17 47 14 16 41 14 16 39 12 14 37 11 13 34 11 13 34 8 11 30 9 12 31 11 9 31 7 10 29 8 9 30 7 8 26 7 8 26 6 9 26 6 9 28 7 8 26 7 8 26 5 8 25 5 8 23 6 8 23 5 8 23 7 9 24 6 8 23 6 8 23 6 8 23 6 7 25 6 7 25 6 7 25 6 7 25 6 9 26 3 9 21 7 9 24 7 8 26 5 8 25 9 10 28 8 9 27 9 12 29 11 12 32 8 11 30 12 14 37 10 12 35 14 16 41 16 17 45 17 18 49 18 21 54 19 22 57 21 23 61 23 25 63 26 28 67 32 31 73 30 32 73 33 35 83 34 36 84 34 36 87 34 37 90 36 39 94 37 40 95 38 40 97 39 41 98 38 43 99 38 43 98 39 44 100 41 43 100 41 43 100 41 44 99 39 41 98 40 42 99 40 43 98 39 42 95 39 42 95 34 37 92 
38 43 99 39 41 98 35 40 96 38 40 97 38 40 97 36 38 95 37 40 95 36 38 95 35 38 93 34 37 92 34 37 90 32 35 88 33 36 87 31 34 87 31 33 82 30 32 80 27 30 75 27 30 75 25 30 72 24 25 69 24 27 68 23 25 63 23 25 63 20 23 58 19 22 57 20 21 52 18 19 49 17 21 50 16 17 45 16 17 47 14 16 41 14 16 41 13 15 38 11 14 33 12 14 35 9 12 31 6 11 30 7 9 30 8 11 30 8 9 29 6 9 26 6 9 26 6 9 26 7 10 27 6 9 26 6 9 26 6 7 25 6 9 26 6 9 24 7 9 24 5 8 23 6 7 25 5 8 23 7 9 24 7 8 26 6 7 25 7 9 24 6 8 23 6 7 25 6 8 23 6 9 26 5 8 25 6 9 28 7 10 27 9 11 26 9 11 26 9 12 29 8 11 28 11 13 34 12 14 37 14 16 41 17 18 46 15 19 48 18 21 52 18 21 54 22 24 62 24 24 62 26 28 67 29 32 75 30 32 73 32 35 80 32 34 82 34 37 88 35 36 90 33 38 93 37 39 96 39 40 96 37 42 98 37 42 98 38 43 99 40 45 101 39 44 100 42 44 101 40 45 101 38 43 101 40 42 99 40 43 98 39 42 95 39 42 93 35 38 91 
27 30 73 27 30 71 25 29 67 26 28 67 24 26 64 24 26 64 22 24 62 21 23 61 21 24 59 20 23 54 19 22 55 17 20 53 17 20 53 19 20 51 15 19 48 15 19 48 16 17 45 14 18 47 15 16 44 14 15 43 15 16 44 13 15 40 13 15 38 12 14 37 12 14 37 11 13 34 11 13 34 10 12 33 9 11 32 9 12 31 8 11 30 8 11 30 8 11 30 7 10 27 7 10 27 8 9 27 6 9 28 6 9 28 6 9 28 6 7 25 6 7 25 7 8 26 7 8 26 7 8 26 7 8 26 7 8 26 7 8 26 7 8 26 7 9 24 7 8 26 8 9 27 8 11 30 8 11 28 10 11 31 12 13 34 10 12 33 13 15 38 13 15 38 14 16 41 16 17 45 16 18 43 18 19 50 16 19 50 20 23 58 19 22 55 21 24 59 22 24 63 24 26 64 25 28 71 25 28 71 27 30 75 28 30 78 30 32 80 31 33 81 29 33 80 33 37 85 32 35 86 36 38 89 36 39 92 37 40 91 36 39 92 35 38 89 36 39 94 36 41 96 36 39 92 35 38 93 35 38 93 35 38 89 34 37 88 35 37 85 34 37 82 32 34 82 28 32 79 29 33 80 26 31 73 26 29 70 25 28 69 24 26 65 24 26 64 19 23 58 
19 23 58 18 21 56 16 20 49 17 20 51 16 17 45 16 17 45 13 15 40 13 15 40 13 15 38 12 14 39 11 13 36 10 12 33 10 11 32 9 10 31 5 10 29 9 10 30 7 8 26 6 9 28 8 9 27 6 7 25 7 8 26 6 8 23 6 8 23 6 8 23 6 8 23 6 9 24 5 8 23 7 9 24 5 8 23 5 8 23 7 9 24 5 7 22 6 8 23 7 9 24 6 8 23 6 7 25 7 8 26 7 9 24 7 8 26 8 9 27 6 9 26 7 8 28 7 8 28 4 9 28 6 9 26 7 8 26 8 9 27 7 8 26 7 8 26 5 10 29 7 8 28 9 12 31 10 13 32 10 12 33 13 15 38 13 15 38 15 19 48 15 19 48 17 20 51 18 21 54 20 23 58 25 27 66 23 25 64 26 29 72 26 30 75 29 31 80 31 34 85 30 34 82 35 38 93 34 37 92 37 40 95 37 40 95 39 41 98 39 41 98 37 42 98 40 45 101 41 43 100 39 44 100 39 44 100 39 44 100 37 42 98 37 42 98 37 42 97 37 39 96 37 40 95 32 38 90 32 38 90 30 34 81 32 34 82 32 35 78 30 33 74 28 30 71 23 25 64 23 25 63 19 22 55 18 21 52 16 19 50 16 17 47 15 16 44 12 14 37 
16 19 50 13 17 46 14 18 45 16 17 45 13 15 38 13 15 38 12 14 37 12 14 35 10 12 33 10 12 33 10 12 33 9 11 32 8 11 30 8 11 30 7 10 27 7 10 29 6 9 26 4 10 26 7 8 26 5 8 25 8 9 27 6 9 24 6 9 24 8 10 25 7 9 24 5 8 23 6 9 26 7 9 24 5 8 23 5 8 23 6 9 24 6 9 24 4 7 22 5 8 23 6 8 23 7 8 26 6 9 26 7 10 27 7 10 27 8 9 27 8 11 30 8 11 30 9 12 31 9 11 32 9 12 31 8 13 33 10 12 33 11 13 36 11 13 36 13 15 40 13 15 40 15 17 42 16 20 45 15 19 48 17 20 51 17 20 51 21 24 59 22 25 60 23 25 63 24 26 65 25 28 69 27 30 75 28 31 76 28 32 80 30 34 82 32 34 85 33 36 87 34 36 87 35 38 89 35 38 91 36 39 94 37 40 95 37 40 93 38 41 94 38 41 94 37 40 93 38 41 94 36 39 92 36 39 90 36 39 92 33 37 85 33 36 87 32 34 82 32 36 84 31 33 81 28 30 78 29 32 77 26 29 70 26 30 68 25 29 64 23 27 62 21 26 58 19 22 55 18 21 54 14 18 47 14 18 47 15 16 44 13 15 40 12 14 37 11 13 36 
5 8 25 7 10 27 6 8 23 6 8 23 6 7 25 7 9 24 7 9 24 7 9 24 6 7 25 7 9 24 7 8 26 7 8 26 7 8 26 7 8 26 5 8 25 7 8 26 7 8 26 7 8 26 7 8 26 7 8 26 7 8 26 5 8 25 5 8 25 7 8 26 6 7 25 7 9 24 6 7 25 6 8 23 6 8 23 6 8 23 5 6 24 7 9 24 6 8 23 5 6 24 7 9 24 8 9 29 7 10 29 9 10 30 10 11 32 10 12 35 14 16 39 13 15 40 15 19 48 16 20 49 18 21 52 19 22 57 21 23 61 25 27 68 23 26 67 29 31 79 29 31 79 32 32 82 32 34 83 32 35 86 35 38 93 34 37 92 39 42 97 39 42 95 40 43 98 41 43 100 39 44 100 38 43 99 38 43 99 38 43 99 38 43 98 38 43 98 39 42 97 40 43 96 38 41 92 38 42 90 35 39 87 36 38 86 34 37 82 33 36 81 32 35 80 26 29 72 26 29 70 23 26 67 21 25 62 21 23 61 16 21 50 17 20 51 17 18 48 14 15 43 14 16 41 11 13 34 11 13 34 9 10 30 9 10 30 11 10 28 9 8 26 6 9 26 6 8 23 6 8 23 6 9 24 6 9 24 6 9 26 6 9 26 6 9 26 10 12 33 
6 7 25 6 7 25 5 8 23 6 8 23 6 8 21 7 9 24 7 9 24 6 7 25 7 8 26 8 10 25 6 7 25 7 8 26 7 8 26 7 8 26 7 9 24 7 8 26 9 8 26 6 8 23 7 8 26 7 9 24 6 9 26 6 7 25 5 6 24 6 7 25 8 7 23 6 9 24 5 8 25 6 7 25 6 8 23 7 8 26 7 8 26 6 8 23 6 8 23 6 8 23 5 8 23 7 10 27 7 10 27 7 12 32 9 11 32 10 12 35 13 15 40 12 14 37 15 19 46 15 19 48 18 21 52 20 23 58 21 25 62 23 27 65 23 26 67 27 31 76 28 30 78 29 33 80 31 33 84 32 35 86 35 38 91 34 37 90 38 41 94 39 42 93 40 43 98 40 42 99 38 43 98 38 45 100 41 43 100 41 43 102 40 42 99 40 43 98 40 43 98 39 42 95 38 41 92 38 41 92 37 39 88 35 37 85 35 37 85 32 34 82 33 36 81 26 29 72 25 28 69 22 27 67 22 24 62 21 23 61 17 21 50 19 20 51 15 16 44 14 15 43 11 15 40 11 13 34 11 13 34 8 11 30 9 10 30 7 10 27 7 10 27 7 10 27 6 8 23 6 8 23 6 8 23 6 8 23 8 9 27 8 9 29 8 9 27 9 11 34 
7 8 26 7 8 26 6 7 25 7 8 26 6 8 23 7 9 24 6 7 25 6 7 25 6 7 25 6 7 25 6 7 25 6 7 25 6 7 25 6 9 24 7 9 24 6 8 23 6 7 25 6 8 23 5 8 25 6 7 25 7 8 26 8 9 29 9 10 28 10 13 32 10 13 32 12 14 35 12 14 37 10 16 40 17 18 46 16 17 47 18 21 52 18 21 54 21 24 59 24 26 64 22 24 63 25 28 69 25 30 72 27 31 78 29 31 79 32 34 83 34 36 84 35 38 83 35 38 89 35 38 89 36 39 92 38 41 94 38 41 96 36 42 94 38 41 96 40 43 98 38 40 97 38 41 96 39 42 95 38 41 92 37 41 89 38 40 91 36 38 87 37 39 88 33 35 84 29 31 80 29 33 80 26 29 72 27 30 73 24 27 68 23 25 64 21 25 62 19 22 55 18 21 54 17 18 48 17 18 46 15 17 42 15 17 42 13 15 38 11 13 36 11 13 36 9 11 32 9 11 32 8 11 30 8 11 28 8 11 30 8 9 27 8 11 28 8 10 25 6 9 24 7 10 27 8 11 28 4 10 26 9 11 32 9 12 31 11 14 33 13 13 37 14 15 43 16 20 49 15 19 48 20 23 58 20 22 60 24 26 65 26 29 72 26 29 70 32 35 80 
6 7 25 6 7 25 7 8 26 7 8 26 7 8 26 6 8 23 6 7 25 7 8 26 6 7 25 7 8 26 6 7 25 6 7 25 7 9 24 7 9 24 6 8 23 6 8 23 7 9 24 6 8 23 6 8 23 7 8 26 8 10 25 6 9 28 8 9 29 14 12 33 11 14 31 12 14 37 11 16 38 14 16 41 16 19 50 16 20 49 18 21 54 20 23 58 21 25 62 24 26 65 24 27 68 28 31 76 27 31 76 30 34 82 32 36 84 34 37 88 37 41 89 37 40 91 38 41 96 37 40 95 37 42 98 39 44 100 38 43 99 38 43 99 40 42 99 38 43 98 40 42 99 40 43 96 40 43 96 39 42 97 37 40 91 38 40 91 37 38 84 35 37 85 31 33 81 28 30 79 29 31 79 24 28 66 25 28 71 22 24 63 20 22 60 19 22 57 15 19 48 16 20 49 13 15 40 13 15 38 12 14 35 11 12 33 10 13 32 7 8 28 7 10 29 6 9 26 7 8 26 7 8 26 7 9 24 6 8 23 7 8 26 7 9 24 6 8 23 6 8 23 6 7 25 5 8 25 6 9 26 8 11 30 9 10 30 12 14 35 14 16 39 15 16 44 17 21 50 17 21 50 22 26 64 23 25 64 25 28 69 29 31 79 30 33 78 35 39 87 
7 8 26 6 8 23 7 9 24 5 8 25 7 8 26 7 8 26 9 10 28 8 9 27 8 9 29 10 11 31 10 11 31 10 12 33 10 12 33 11 13 34 12 14 37 12 14 39 15 16 44 13 17 44 16 17 47 14 18 47 16 19 50 18 21 54 18 21 54 22 25 60 22 25 58 22 26 63 23 27 65 24 27 68 27 30 73 26 29 72 30 31 77 29 33 80 30 34 81 31 35 83 31 35 83 32 38 88 33 37 85 34 37 88 35 38 91 35 38 91 36 39 90 38 39 93 34 37 90 34 37 90 34 37 88 34 37 88 33 37 85 31 35 82 32 36 83 30 33 78 29 31 79 30 33 76 28 31 72 27 31 69 25 27 65 25 27 65 22 25 58 22 25 58 20 23 56 17 20 53 17 20 51 15 19 48 14 17 48 15 16 44 14 15 43 13 15 40 11 13 36 12 14 37 10 13 32 9 12 31 9 12 31 8 11 30 9 10 30 6 9 26 8 9 29 6 9 26 6 9 26 7 10 29 9 10 28 9 10 30 11 13 34 11 13 34 12 14 39 14 16 41 15 16 44 16 20 49 15 19 48 20 23 54 19 24 56 23 26 61 25 27 65 26 30 68 28 31 74 27 30 73 31 35 82 31 35 82 32 36 84 34 37 88 34 37 88 37 40 91 
6 9 24 5 8 23 6 9 24 7 9 24 7 10 27 7 10 27 8 9 29 8 9 29 8 11 30 8 13 33 11 13 34 14 16 41 14 15 43 14 18 45 18 19 49 16 19 50 22 24 62 22 24 62 23 27 65 24 27 70 25 29 74 30 32 80 29 33 80 35 37 85 36 38 87 35 38 91 36 39 94 36 39 94 38 41 96 37 40 95 39 42 97 41 44 99 38 43 99 38 43 98 38 43 98 39 41 98 37 42 98 38 41 96 38 41 96 36 39 94 34 37 92 32 37 92 30 33 84 31 35 83 29 33 80 28 31 76 27 30 73 24 28 66 24 26 65 20 23 58 19 22 57 19 20 51 15 19 48 15 19 46 13 15 40 14 14 38 10 13 30 9 12 31 9 12 31 8 11 30 9 10 28 7 8 26 7 8 26 7 8 26 7 8 26 7 10 25 5 8 23 5 8 23 6 7 25 6 7 25 4 10 22 5 8 23 7 9 24 6 7 25 7 8 26 7 10 29 7 10 27 8 11 30 12 13 34 10 15 34 16 17 47 14 18 47 18 21 54 20 23 58 22 24 63 25 28 69 24 27 70 31 35 80 31 35 80 35 39 87 38 40 91 39 40 94 37 42 98 37 42 98 39 44 100 39 44 100 39 44 100 38 43 99 38 43 99 40 43 96 
7 10 27 8 9 29 8 11 28 9 12 29 6 11 31 9 11 32 13 11 33 14 12 34 12 14 35 14 16 39 14 16 41 17 18 46 17 21 50 17 20 51 19 22 55 19 22 57 22 26 64 23 27 65 26 29 70 27 30 75 27 31 76 30 34 82 30 34 82 34 38 86 35 38 89 34 40 92 33 38 93 33 38 93 36 39 92 36 38 95 36 41 96 37 42 97 38 41 96 36 41 96 39 40 94 36 39 92 37 40 93 35 38 91 35 38 91 33 36 87 32 34 83 32 34 83 28 32 79 30 33 78 27 30 73 26 29 72 22 27 67 21 23 61 22 24 62 18 21 54 18 21 54 15 19 48 15 17 42 15 17 42 12 14 37 13 15 38 9 12 31 9 12 31 8 11 28 7 8 28 8 9 29 6 7 25 5 6 24 7 8 26 7 8 26 6 9 26 6 9 24 4 10 26 6 9 26 6 7 25 8 10 25 7 10 27 7 10 29 8 10 31 7 10 29 9 11 32 11 11 35 12 14 39 15 17 42 15 17 40 18 19 50 19 20 51 21 24 59 21 25 63 24 28 66 27 30 75 28 31 74 32 36 81 33 35 83 37 39 88 38 40 89 38 40 91 36 41 97 38 41 96 39 42 97 39 42 95 37 43 95 38 41 96 38 41 94 37 39 88 
17 20 53 19 22 57 23 25 63 22 24 62 26 27 71 26 29 72 30 33 78 33 36 81 33 36 81 36 38 87 33 35 83 36 39 90 38 40 89 38 41 94 38 43 99 37 42 98 38 43 101 38 43 99 38 43 99 37 42 98 38 43 99 38 43 99 37 42 98 37 40 95 37 40 95 35 38 89 34 37 92 33 36 87 32 35 80 33 36 81 27 30 75 26 29 74 23 28 68 21 25 63 23 25 63 20 20 54 18 21 54 16 17 47 16 17 45 14 16 41 15 13 35 12 14 35 9 12 31 9 12 31 6 11 30 8 9 27 6 9 26 6 7 25 6 7 25 7 8 26 6 7 25 7 8 26 6 9 26 4 7 24 5 8 25 6 7 25 9 8 26 6 7 25 6 9 26 5 6 26 7 8 26 7 8 28 7 8 26 8 9 27 8 9 27 8 9 27 9 10 30 10 11 31 13 15 38 11 16 38 17 18 46 17 20 51 18 21 54 23 25 64 21 25 63 27 30 75 28 31 76 32 34 82 34 36 85 35 39 87 38 39 95 38 41 94 37 42 97 39 44 100 40 43 98 39 44 100 39 44 100 37 42 97 37 42 98 38 41 94 36 40 88 39 41 90 34 38 85 36 38 86 30 33 74 30 32 73 24 28 66 19 23 60 21 23 61 15 19 46 
17 20 53 18 21 56 22 24 62 20 26 62 25 30 72 23 30 72 29 33 78 32 35 80 33 36 81 34 36 85 35 37 85 37 41 89 38 40 91 38 41 96 39 41 98 37 42 98 37 44 99 38 43 99 38 43 98 40 43 98 38 43 99 37 39 96 36 43 98 38 40 97 37 40 95 36 39 94 33 36 89 34 37 90 32 35 80 31 35 80 27 31 76 26 29 72 24 27 68 23 25 64 21 23 61 20 20 54 20 20 54 17 18 48 15 16 44 14 16 41 11 13 36 11 13 36 10 13 32 10 11 31 9 12 29 4 9 28 6 9 26 5 8 25 7 8 26 6 7 25 7 8 26 6 7 25 7 8 26 7 8 26 7 8 26 6 7 25 6 7 25 6 7 25 7 8 26 8 9 27 7 8 26 6 7 25 7 8 26 6 9 26 7 10 27 8 11 30 8 11 30 8 11 30 13 15 38 14 16 39 15 19 46 17 21 50 17 22 54 22 24 63 22 26 64 28 31 76 27 31 76 30 34 81 34 36 85 35 37 86 38 39 95 37 39 96 40 43 98 38 43 99 40 45 101 39 44 100 39 44 100 39 41 98 39 42 97 38 41 94 38 42 90 38 38 88 34 38 86 35 37 86 29 34 72 30 32 73 25 29 67 21 25 62 20 22 60 16 20 49 
32 35 86 33 36 87 35 38 91 35 38 89 35 38 91 36 39 92 37 40 93 37 40 95 37 40 95 36 39 92 36 39 94 35 39 87 38 39 87 35 37 88 34 38 86 33 37 84 29 33 78 28 32 77 27 30 73 26 29 72 25 29 67 23 25 64 22 26 64 19 22 57 21 21 55 18 21 54 18 19 49 15 19 48 12 16 41 15 17 42 14 16 39 13 15 38 12 14 37 10 12 35 11 12 33 10 11 32 11 12 33 10 11 29 8 11 30 8 11 30 6 9 28 7 8 28 8 10 25 8 10 25 7 9 24 6 9 26 7 8 26 6 7 25 7 8 26 6 7 25 7 10 27 8 9 27 7 8 26 7 9 24 7 10 25 8 10 31 9 11 32 9 11 32 11 13 34 13 15 38 11 17 41 16 20 49 17 21 50 20 23 56 20 22 60 22 24 62 26 30 68 26 30 68 32 33 77 32 35 78 32 36 83 33 36 87 34 37 88 36 39 92 36 39 90 37 40 93 37 40 93 38 41 94 38 41 92 39 42 95 35 38 89 35 38 91 34 38 86 34 38 85 32 34 82 28 31 74 27 29 77 20 25 63 21 25 63 20 23 56 18 21 52 20 21 52 16 18 43 17 18 48 13 15 38 12 14 39 12 14 35 10 13 32 10 12 33 9 12 31 
39 41 98 39 42 97 38 43 99 38 43 99 38 43 99 38 43 99 36 43 98 36 41 99 38 40 97 36 39 94 36 39 94 34 38 86 35 37 85 33 35 83 32 35 80 32 34 82 26 29 72 26 29 72 24 26 65 23 25 63 21 23 61 17 20 53 16 19 52 14 15 43 15 16 44 13 15 38 12 12 36 10 12 33 8 11 30 6 12 28 9 10 28 10 12 27 9 10 28 7 8 26 7 8 26 6 7 25 6 7 25 6 8 23 7 9 24 7 8 26 7 10 27 8 9 27 7 9 24 8 10 25 7 9 24 6 9 26 6 7 25 6 9 24 6 7 25 6 7 25 8 9 27 7 8 26 6 7 25 7 8 26 8 9 27 9 10 28 11 12 32 11 13 34 11 16 38 15 16 46 14 18 45 19 22 57 20 23 58 25 27 68 25 28 71 29 30 74 32 34 82 32 35 80 38 40 91 37 40 91 38 41 96 35 42 97 37 42 98 39 44 99 41 44 99 39 41 98 39 41 98 39 42 97 39 42 93 38 41 96 34 37 92 35 38 93 33 35 83 32 35 80 29 32 75 23 27 65 24 26 67 19 19 53 16 21 53 15 16 46 13 15 40 13 15 38 7 12 31 10 13 32 7 10 27 7 8 26 7 9 24 6 7 25 5 8 23 5 8 23 
35 38 91 35 38 91 33 36 87 33 36 87 32 36 84 32 36 84 30 34 81 30 32 80 30 33 78 27 30 75 27 30 73 25 28 69 26 28 67 24 26 64 22 25 60 24 27 62 18 21 54 18 21 54 17 20 51 16 19 50 13 17 44 12 16 43 14 16 41 12 14 37 11 13 36 11 13 34 11 12 32 10 11 29 8 11 30 8 11 30 8 11 26 8 9 27 7 8 26 7 8 26 7 8 26 7 8 26 7 8 26 6 7 25 5 8 25 6 9 26 5 8 25 5 8 25 8 9 27 8 9 27 8 9 27 8 9 29 8 9 29 10 11 32 6 11 30 11 13 34 9 12 31 12 13 41 11 15 40 12 16 41 15 19 48 17 18 46 20 21 52 19 22 53 22 25 60 23 27 64 23 27 64 26 29 72 27 30 73 30 33 78 31 35 82 32 36 83 34 37 88 34 37 88 38 42 90 37 40 91 37 40 93 37 40 93 37 40 95 37 41 89 37 39 90 33 35 84 33 37 85 31 34 79 30 33 76 29 32 77 26 28 69 26 27 71 22 28 64 22 26 63 20 23 56 16 20 49 17 20 51 12 17 39 13 17 42 12 14 37 13 11 35 10 12 33 10 11 31 10 11 29 8 9 29 7 8 28 8 11 30 10 11 31 9 12 31 10 15 37 
28 30 78 27 30 75 24 29 69 24 29 67 20 24 59 21 23 61 19 22 55 17 20 51 18 19 47 14 16 41 14 16 41 11 13 34 12 14 35 7 10 29 6 9 28 8 11 30 7 10 27 6 9 26 6 9 24 5 8 23 6 8 23 5 8 23 7 9 24 7 8 26 7 8 26 8 9 27 7 9 24 6 8 23 7 9 24 7 8 26 6 7 25 8 9 27 6 7 25 7 8 26 6 7 25 9 11 26 7 8 26 7 8 26 6 7 25 6 8 23 6 8 23 6 7 25 7 8 26 8 9 27 9 10 30 8 11 30 10 12 33 12 14 37 13 15 40 18 19 49 17 20 51 20 22 60 22 26 64 24 26 67 27 31 76 29 32 77 34 36 84 33 37 84 37 41 89 39 42 93 39 42 95 40 42 99 39 41 98 39 44 99 41 43 100 40 42 99 37 42 98 37 42 97 37 40 91 38 41 92 33 36 87 32 35 86 31 33 81 29 32 73 30 32 73 24 24 60 19 23 58 18 21 52 15 19 44 16 17 45 10 12 35 12 12 36 8 9 29 8 9 29 8 9 29 7 8 26 7 8 26 6 9 24 6 8 23 6 8 23 6 9 24 6 8 23 7 8 26 6 7 25 10 11 31 8 11 30 11 13 36 14 16 41 14 16 41 20 23 58 
28 30 78 27 30 73 24 27 68 23 26 69 19 23 60 20 24 61 18 21 52 17 20 51 16 20 49 14 16 41 14 14 40 11 13 34 12 13 34 10 11 31 7 8 28 8 9 29 8 9 27 7 8 26 6 8 23 7 9 24 6 7 25 5 8 23 7 9 24 8 9 27 6 7 25 8 10 25 8 10 25 7 9 24 7 9 24 6 9 24 8 9 27 7 8 26 7 8 26 7 9 24 7 9 24 8 10 25 8 10 25 6 7 25 7 8 26 7 8 26 6 7 25 5 8 23 5 10 29 7 8 26 7 10 27 8 11 30 11 12 32 12 14 37 12 14 37 19 20 50 17 21 50 21 24 59 22 26 64 26 25 67 28 31 76 27 29 77 34 36 84 35 37 86 37 41 89 39 42 95 39 42 95 39 41 98 40 43 98 40 45 101 42 44 101 40 43 98 40 42 99 36 41 97 38 41 92 37 40 91 34 38 86 31 35 83 32 34 82 30 34 72 30 34 72 21 24 59 21 24 59 18 21 54 15 19 48 16 17 45 11 13 36 11 13 36 8 9 29 10 11 31 7 10 29 6 9 26 7 10 27 5 8 23 6 7 25 6 8 23 5 8 25 9 8 26 7 8 26 6 7 25 9 10 30 8 11 28 11 13 36 13 15 40 15 16 44 19 22 57 
7 8 28 8 9 27 7 8 26 8 9 27 6 9 24 6 8 23 7 9 24 5 7 22 6 8 23 6 7 25 6 7 25 6 7 25 5 8 25 6 7 25 6 7 25 6 9 26 6 9 26 6 7 25 7 8 26 6 9 26 8 9 27 7 10 27 7 8 26 7 9 24 8 10 25 7 8 26 7 8 26 9 8 24 6 7 25 6 7 25 6 7 25 7 8 26 8 9 29 8 9 29 8 10 31 11 13 34 11 13 34 15 16 44 13 17 44 14 19 49 20 22 60 19 22 57 25 28 73 26 29 72 29 32 77 32 34 83 34 36 84 36 40 88 37 40 91 39 42 97 38 43 98 36 43 98 38 43 99 39 41 98 37 42 98 37 42 100 35 41 93 37 40 95 34 37 90 33 36 89 33 37 85 31 34 75 33 34 78 26 30 68 23 27 65 22 24 62 17 20 51 17 20 51 13 15 40 14 16 39 11 13 34 9 12 29 9 12 31 6 9 26 7 8 26 6 7 27 7 8 26 5 8 25 6 8 23 6 8 23 6 9 24 5 8 25 7 9 24 5 8 25 8 9 27 8 9 29 7 10 29 13 14 35 11 13 36 14 18 45 19 20 50 19 22 55 23 26 67 25 27 68 32 35 80 33 36 81 34 38 85 38 40 89 38 41 92 39 44 99 
8 9 29 7 8 26 7 8 26 6 7 25 6 7 25 7 9 24 6 7 25 8 7 25 6 8 23 6 8 23 6 8 23 6 7 25 6 7 27 7 8 28 6 7 25 5 6 24 7 8 26 7 8 26 7 8 26 6 7 25 7 8 26 7 8 26 7 8 26 7 9 24 7 8 26 8 10 25 7 8 26 7 8 26 7 8 26 6 7 25 6 7 25 6 8 23 7 8 26 8 9 29 9 10 30 11 14 33 11 13 34 14 16 41 15 16 44 16 19 50 19 22 57 18 21 56 26 29 72 25 28 71 29 32 77 32 35 78 34 36 84 38 40 91 37 40 91 38 43 98 36 42 100 38 43 98 40 42 99 39 41 98 38 43 98 40 42 99 39 42 97 37 40 95 36 39 92 33 36 87 32 35 86 31 34 75 33 35 74 26 28 69 24 28 66 22 24 62 19 20 51 19 19 53 13 15 40 13 14 42 11 13 34 9 12 29 8 11 30 7 8 26 8 10 25 6 7 25 7 8 28 7 8 26 6 7 25 6 7 25 4 7 24 6 8 23 6 9 26 6 9 28 6 9 26 6 9 28 7 10 29 12 12 36 11 13 36 16 17 45 19 20 50 19 22 53 24 28 66 23 26 67 30 33 78 31 35 80 35 37 86 38 40 91 38 40 91 42 43 100 
7 8 26 7 8 26 7 8 26 7 8 26 7 8 26 6 7 25 7 9 22 7 8 26 7 8 26 5 8 25 6 9 26 6 8 23 6 7 25 6 7 25 6 7 25 7 9 24 6 8 23 6 8 23 6 7 25 6 7 25 7 8 26 7 8 26 8 9 27 9 11 26 9 10 30 10 13 30 11 13 34 11 13 36 14 16 41 14 16 41 15 18 49 15 18 49 18 21 54 19 23 58 20 24 59 25 29 67 26 28 67 27 30 73 28 31 76 30 33 78 31 35 83 31 35 83 34 37 88 34 37 90 35 38 91 36 39 92 36 39 92 39 39 91 38 40 89 34 37 90 32 38 90 32 36 84 30 34 81 30 34 81 27 32 74 27 32 74 23 27 65 23 25 63 20 23 58 20 23 56 18 21 54 17 18 46 17 18 46 15 16 44 13 15 40 13 15 38 10 12 37 11 12 33 10 12 33 8 11 30 7 10 29 5 8 27 8 9 27 6 7 25 7 8 26 7 8 26 7 8 26 8 11 28 9 12 29 10 11 31 11 13 34 11 13 34 15 17 42 15 16 44 16 19 52 21 24 59 20 23 58 25 28 69 25 28 71 29 32 75 29 33 80 31 35 82 35 38 89 34 36 87 36 39 92 37 40 91 38 41 92 40 42 91 38 40 89 36 38 87 
7 8 26 7 8 26 7 8 26 6 8 23 7 9 24 8 9 27 6 7 25 7 8 28 6 7 25 6 8 23 8 9 27 7 8 28 7 9 24 7 8 26 6 7 25 6 8 23 6 7 25 6 8 23 7 8 26 7 8 26 7 8 26 8 9 27 8 9 27 10 11 31 9 12 31 12 14 35 13 15 38 13 14 42 16 20 49 17 20 51 22 24 63 21 25 63 26 29 72 28 31 76 28 31 76 34 38 86 34 38 85 36 39 92 37 40 95 39 42 97 37 42 98 37 42 98 37 42 98 37 42 98 37 42 100 38 43 99 39 42 97 38 40 91 38 40 91 30 34 82 31 35 83 28 30 78 26 29 72 24 27 68 21 23 61 19 23 58 17 18 46 16 18 43 13 15 38 9 11 32 10 13 32 8 9 29 7 10 27 7 8 26 7 8 26 6 9 26 7 9 24 7 9 24 6 7 25 6 7 25 6 7 25 7 8 26 6 7 25 6 8 23 7 8 26 8 9 27 7 10 27 9 10 28 9 12 31 8 13 32 14 16 41 12 16 43 19 22 55 21 24 59 23 27 65 29 32 77 29 32 77 32 38 90 34 37 90 37 40 95 37 42 98 39 41 98 41 44 99 40 42 99 39 41 98 41 43 100 40 40 94 36 39 90 38 40 91 32 35 80 
7 8 26 7 8 26 5 8 25 5 8 25 6 7 25 6 8 23 6 7 25 6 7 25 6 7 25 6 7 25 7 9 24 6 9 26 8 9 27 7 10 29 6 9 28 8 9 27 9 10 30 8 11 30 9 11 32 11 12 33 11 12 33 11 13 36 12 14 39 15 17 42 17 19 44 18 19 49 18 21 52 19 22 53 21 25 62 22 26 61 27 30 71 27 30 71 28 31 76 31 33 81 31 35 83 36 40 88 37 39 88 36 37 91 36 39 92 35 41 93 37 40 95 37 40 93 35 38 89 35 38 91 34 37 88 33 37 85 35 35 85 31 34 75 30 35 77 25 30 70 24 29 69 22 26 64 21 24 59 20 23 58 18 19 50 17 20 51 15 15 41 11 15 40 12 14 35 10 11 31 8 11 28 7 10 29 7 10 29 7 8 28 7 8 26 6 9 26 7 8 26 7 8 26 6 9 24 7 10 27 6 9 28 7 10 29 6 9 28 9 11 32 9 12 31 9 14 36 10 12 35 14 16 41 14 16 41 17 19 44 22 22 56 19 22 55 24 28 66 25 28 69 28 31 74 32 34 83 31 35 83 35 38 91 34 37 90 35 41 93 38 41 96 37 43 95 37 40 93 38 41 94 32 38 88 34 37 88 34 36 84 32 35 80 30 33 78 27 29 68 
7 9 24 6 7 27 8 9 27 6 7 25 6 8 23 6 8 23 6 7 25 6 8 23 6 7 25 7 9 24 6 7 25 8 9 29 8 11 30 10 11 31 11 13 34 12 12 36 16 17 45 16 17 47 18 21 54 21 24 59 21 25 63 25 28 71 25 28 71 34 35 81 32 35 78 37 39 88 38 41 92 38 41 94 36 41 97 38 40 97 38 43 99 41 44 99 38 43 98 39 41 98 40 43 98 39 42 95 39 42 95 36 40 87 35 37 85 33 35 83 28 31 76 29 31 79 22 26 64 23 25 64 19 22 55 16 21 51 15 19 46 11 16 38 13 15 38 9 12 31 9 12 29 9 12 29 8 10 25 7 8 26 6 8 23 7 9 24 8 7 25 6 7 25 7 8 26 7 9 24 7 8 26 7 9 24 6 7 25 6 7 25 6 7 25 6 9 26 6 8 23 7 9 24 7 10 29 8 9 29 10 12 33 11 13 36 13 15 40 19 20 50 18 19 49 22 26 64 24 26 65 27 30 73 32 35 80 34 37 82 39 42 97 39 42 95 41 44 99 38 43 99 39 44 99 41 44 99 40 43 98 40 42 93 39 42 95 37 39 88 33 37 84 34 35 81 29 32 75 28 31 72 20 23 56 18 21 56 17 21 50 13 15 40 14 16 39 10 11 31 
6 7 25 6 7 25 5 6 24 5 8 25 6 9 24 6 8 23 6 8 21 6 7 25 6 7 25 7 8 26 5 6 24 8 9 29 9 10 30 9 11 32 10 12 33 12 13 34 16 17 45 16 17 45 17 22 54 19 22 55 20 24 62 25 27 68 25 28 71 32 35 78 31 34 79 36 38 86 37 40 91 38 41 94 38 40 97 36 41 97 38 43 98 40 42 99 38 43 99 40 43 98 39 41 100 39 42 93 39 42 95 35 39 87 36 38 86 33 35 83 29 32 77 28 31 76 23 27 65 23 25 64 20 20 54 17 21 50 16 17 45 13 15 38 13 15 38 11 12 32 9 12 31 7 10 27 7 8 26 7 9 24 6 8 23 7 9 24 6 8 23 6 7 25 7 8 26 6 9 26 9 8 26 6 8 23 8 9 27 7 8 26 7 8 26 6 8 23 6 7 25 6 7 25 8 11 30 8 9 29 10 11 32 12 14 37 12 14 37 19 20 50 18 19 49 23 27 65 23 26 69 28 31 74 31 34 79 32 36 81 39 42 93 39 42 93 41 44 99 40 43 98 40 42 99 41 43 102 38 43 99 39 42 93 39 42 93 36 38 87 33 37 84 35 36 82 29 31 72 30 32 71 21 24 59 19 22 57 16 20 49 13 15 38 12 14 39 8 11 30 
7 8 26 7 8 26 8 11 30 8 9 27 11 13 36 12 14 37 15 17 42 14 18 43 17 21 50 20 22 60 20 23 58 27 26 68 26 29 70 30 31 75 31 34 79 30 35 77 35 37 88 34 37 88 36 39 92 35 40 95 36 39 94 36 42 94 38 41 96 36 41 96 37 40 95 37 40 91 40 40 92 36 40 88 32 36 84 32 35 86 28 32 77 28 31 76 24 27 70 22 24 62 21 23 61 17 20 51 19 20 51 15 16 44 15 17 40 13 15 38 10 12 35 10 12 35 8 9 30 8 9 29 7 10 29 8 9 29 7 8 26 9 10 28 8 9 27 8 10 25 8 10 25 8 10 25 10 9 25 7 9 24 6 7 25 7 8 26 6 7 25 6 7 25 8 9 27 8 10 25 7 8 26 10 11 29 8 11 28 13 15 40 15 17 42 14 18 47 19 22 55 19 22 57 26 29 72 27 30 73 29 31 79 31 34 85 32 35 86 36 40 88 36 40 88 39 42 97 40 43 96 35 40 95 38 41 96 38 41 96 37 40 91 39 41 92 33 35 83 34 36 84 30 33 74 24 27 70 23 26 67 18 21 52 19 22 53 16 17 45 14 16 41 12 14 37 11 14 33 11 14 33 9 10 30 9 10 28 8 9 27 7 8 26 7 8 26 8 10 25 
7 8 26 7 8 26 9 10 30 8 9 29 13 15 36 14 15 36 17 18 46 17 21 50 18 21 52 21 25 63 23 27 65 27 30 75 29 30 76 31 34 79 35 37 85 33 37 84 38 41 96 37 40 93 39 42 97 36 43 98 37 42 100 37 42 97 37 42 98 40 42 99 38 41 96 38 41 92 39 41 92 36 38 89 30 34 82 31 35 83 26 31 73 25 28 71 22 26 64 19 22 57 18 21 56 14 18 45 15 16 44 12 14 37 11 14 33 10 13 32 8 11 30 7 10 27 6 7 25 6 7 25 7 8 26 7 8 28 6 7 25 6 7 27 7 8 26 10 9 25 7 9 24 7 9 24 8 10 25 7 9 24 8 7 25 7 8 26 6 8 23 5 8 25 6 9 26 6 9 26 10 9 27 9 12 31 10 13 30 13 15 40 12 18 44 14 19 49 21 23 61 22 24 62 29 32 77 29 31 79 34 36 87 35 36 90 34 37 90 37 43 93 39 42 95 41 44 99 40 43 98 39 44 100 37 42 98 40 42 99 37 41 89 38 40 89 34 37 82 31 35 80 28 31 72 21 25 63 21 26 64 13 19 45 14 18 45 11 13 36 10 12 33 11 12 32 9 11 24 9 10 28 7 8 26 8 10 25 7 9 24 6 7 25 6 8 23 9 10 28 
16 17 47 18 19 50 22 22 56 20 23 56 24 27 60 25 27 65 25 28 69 28 31 74 28 31 74 30 34 81 31 35 82 32 35 86 33 36 87 35 37 88 36 38 87 36 39 90 37 40 91 35 38 89 34 37 88 33 36 87 32 35 86 30 34 81 30 34 81 27 30 75 28 31 74 25 29 67 24 28 65 24 27 62 20 23 58 20 23 56 17 20 51 14 18 47 14 18 45 13 14 42 14 14 40 12 13 34 11 13 34 10 11 31 9 10 30 8 9 27 8 9 29 8 9 27 7 8 26 7 8 26 6 9 26 7 8 26 6 8 23 6 7 25 6 7 25 7 8 26 7 9 24 9 11 26 8 9 27 9 10 28 9 12 31 10 13 32 12 14 35 13 15 40 15 16 44 17 18 49 17 18 48 20 23 58 20 23 58 24 26 65 26 28 69 28 29 73 30 33 78 31 33 81 34 37 90 34 37 90 35 38 91 37 38 92 37 40 91 36 39 90 37 41 89 33 37 85 32 36 84 31 34 79 28 31 76 28 31 74 25 28 63 25 28 63 21 24 57 19 22 53 17 20 51 13 17 46 13 17 44 11 13 34 11 13 34 9 10 30 9 10 30 8 11 30 8 10 25 8 10 25 8 9 27 9 10 28 10 11 31 10 12 33 11 13 34 16 18 43 
25 28 71 27 30 75 33 36 81 32 35 80 39 39 89 39 41 90 38 41 94 38 41 96 39 41 98 40 42 99 39 41 98 39 42 97 37 42 98 37 42 98 36 38 95 36 39 92 33 37 84 34 36 84 30 32 80 28 31 76 27 28 72 21 25 62 23 25 63 17 21 50 19 20 50 15 16 44 13 15 38 12 14 37 11 12 32 11 12 32 8 9 27 7 8 26 5 8 25 5 8 25 6 7 25 6 7 25 5 8 25 7 9 24 8 10 25 7 9 24 7 8 26 7 8 26 7 8 26 7 8 26 7 8 26 8 10 25 6 9 24 7 8 26 7 8 26 7 8 26 7 8 28 6 9 26 7 8 26 9 10 30 12 14 37 13 15 38 17 20 51 17 20 53 20 24 61 24 29 69 26 29 72 32 34 83 31 34 87 36 39 92 36 39 94 38 41 96 39 42 97 39 42 97 39 42 97 37 42 98 39 42 95 39 42 95 38 41 92 34 36 84 34 36 84 27 30 71 25 28 69 22 26 63 16 21 51 17 20 51 12 14 39 13 15 38 11 12 32 9 10 30 7 10 29 6 8 23 6 7 25 6 8 23 8 7 25 7 9 24 9 11 26 10 9 25 8 9 27 7 9 24 9 10 28 9 12 29 12 14 37 12 16 43 13 17 44 22 24 62 
26 31 73 28 32 77 33 35 83 33 37 82 38 40 89 38 42 90 37 40 93 37 40 95 37 39 96 38 41 92 38 41 94 37 40 93 38 41 94 36 39 92 34 37 88 35 37 86 33 34 78 29 33 78 26 29 74 26 27 71 23 26 67 20 22 60 19 21 59 16 20 49 17 18 46 15 15 41 11 13 36 12 14 37 8 11 30 9 12 29 6 9 26 6 9 28 7 8 26 8 9 29 6 7 25 8 9 27 7 9 24 7 8 26 7 8 26 7 9 24 7 8 26 8 9 27 7 8 26 7 8 26 8 10 25 8 10 25 8 9 27 8 9 29 9 10 28 8 11 30 7 10 29 9 11 32 11 11 35 11 13 36 16 18 43 16 17 45 20 23 58 19 23 58 23 26 67 28 31 76 28 31 76 32 35 86 33 36 87 35 38 93 36 39 94 37 38 94 38 41 96 39 42 97 37 40 95 35 40 95 37 38 92 37 39 88 35 37 85 32 35 78 30 33 76 22 25 66 24 26 65 20 23 58 18 19 49 18 19 49 10 15 37 9 14 36 10 13 32 8 9 29 7 10 27 7 9 24 9 8 24 7 9 24 7 8 26 8 10 25 8 9 27 9 10 28 10 11 31 10 11 31 11 13 34 12 14 37 14 18 43 16 20 49 17 21 50 25 27 66 
40 43 98 39 41 98 40 42 99 38 41 96 39 39 89 38 40 89 34 36 84 32 35 80 30 33 78 25 28 71 26 27 71 20 23 58 19 22 57 16 20 49 15 16 44 14 15 43 10 11 32 11 12 33 8 11 30 6 9 28 6 9 28 7 8 26 6 7 25 7 8 26 7 9 24 7 8 26 6 7 27 7 9 24 8 10 25 8 10 25 7 8 26 6 7 25 8 9 27 7 8 26 7 8 26 6 9 26 7 8 26 5 6 24 7 8 26 6 7 25 7 8 28 6 7 25 6 7 25 7 8 26 10 11 29 11 12 32 13 16 35 17 18 46 16 17 45 22 24 62 22 24 62 27 30 75 30 33 78 32 34 82 38 42 90 37 40 91 40 43 98 40 43 98 38 43 98 38 43 98 40 42 99 37 42 97 37 42 98 35 38 91 34 37 88 32 34 85 30 32 80 28 30 78 20 24 59 20 24 61 17 21 50 14 15 45 14 16 41 11 12 33 14 12 33 8 9 27 7 10 27 6 7 27 7 9 24 7 8 26 7 8 26 6 7 25 6 7 25 6 7 25 7 9 24 7 9 24 7 9 24 9 12 29 10 11 31 13 14 35 13 15 38 16 17 45 21 24 59 21 24 59 30 32 80 32 35 80 36 38 89 39 42 93 40 43 94 41 44 99 
40 43 98 39 42 97 38 41 96 38 43 98 38 41 92 37 41 89 33 37 84 32 35 78 31 34 79 25 28 69 25 28 69 19 23 58 19 22 57 16 19 50 17 18 46 15 17 42 11 13 34 11 13 34 9 12 31 7 10 27 7 8 26 7 9 24 6 7 25 5 8 23 5 8 25 6 7 25 7 8 26 8 10 25 9 8 24 8 10 25 9 8 26 6 9 26 6 9 26 7 9 24 7 8 28 8 9 27 6 9 26 5 8 25 6 7 25 6 9 26 6 7 25 8 9 27 7 10 27 7 8 26 10 11 29 10 13 32 12 14 35 15 19 48 15 19 46 23 25 63 22 24 62 26 29 72 30 32 80 32 34 82 38 40 91 37 41 89 39 42 97 39 42 97 39 44 99 38 43 98 37 44 98 37 42 98 36 41 97 35 38 91 34 37 90 32 36 84 28 31 76 28 30 78 20 24 59 21 25 62 16 19 50 15 16 44 14 16 41 11 12 33 9 12 31 8 12 24 8 10 25 6 7 25 7 8 26 7 9 24 6 7 25 7 8 28 7 9 24 7 8 26 7 8 26 7 9 24 7 9 24 10 11 31 8 11 30 12 14 35 13 15 38 16 17 45 21 25 62 21 24 59 30 33 76 32 35 78 35 39 87 39 42 95 38 41 96 41 43 100 
26 29 72 25 28 69 20 24 61 22 25 60 18 22 51 17 20 51 15 19 48 13 17 42 12 17 39 11 14 33 12 14 37 9 11 32 10 13 32 9 11 32 9 10 30 9 10 30 8 9 27 8 9 27 8 10 25 8 9 27 6 9 26 7 8 26 7 8 26 7 10 27 7 10 27 6 7 25 7 8 26 7 9 24 8 10 25 8 10 25 7 8 26 6 8 23 7 9 24 7 9 24 7 9 24 9 10 30 8 11 30 11 14 33 11 13 36 13 15 40 16 17 47 15 19 48 22 27 59 23 26 61 27 29 67 28 31 72 29 32 75 32 36 81 33 36 81 35 38 89 35 38 89 35 38 93 36 39 92 36 39 92 37 40 93 36 39 92 34 37 88 33 36 87 31 35 83 28 31 76 27 30 73 21 25 60 20 26 60 18 21 52 17 20 51 17 18 46 13 15 40 13 15 40 9 11 32 10 12 35 8 10 31 9 10 30 9 10 30 8 9 27 6 9 26 6 7 25 6 7 25 7 9 24 8 7 23 6 7 25 8 9 27 10 9 27 12 13 34 12 12 36 14 16 41 20 21 51 20 22 47 26 29 64 26 29 64 30 32 71 31 34 77 32 35 80 35 38 89 35 38 89 38 41 94 37 40 93 39 41 92 39 42 95 39 40 94 33 37 85 
21 25 62 20 23 58 15 19 48 15 19 48 12 14 37 12 14 37 10 13 32 8 11 30 9 12 29 7 9 24 7 9 24 6 7 25 6 8 23 6 8 23 7 8 26 7 8 26 7 9 24 6 8 23 7 8 26 7 8 26 6 7 25 5 8 25 8 9 27 7 8 26 7 8 26 8 9 27 6 8 23 6 9 24 7 9 24 10 9 25 6 7 25 7 8 26 7 9 24 7 8 26 8 9 29 9 10 30 9 12 31 12 14 37 12 14 37 15 16 44 18 21 54 18 21 52 29 31 72 29 31 70 33 36 81 35 37 85 35 37 88 38 41 92 38 41 92 40 43 98 40 43 98 40 43 98 37 42 97 39 42 95 36 39 94 37 40 95 32 34 83 30 33 84 27 30 75 25 28 69 23 27 65 16 20 47 16 20 49 13 15 40 11 13 38 11 13 34 8 9 27 8 9 27 7 8 26 6 7 25 7 8 26 9 8 26 6 7 25 7 8 26 6 8 23 6 7 25 6 7 25 6 7 25 8 7 25 6 7 25 8 9 29 8 9 27 12 14 35 13 15 40 17 18 46 22 26 55 22 26 55 30 33 74 31 35 73 35 37 85 38 40 89 39 41 92 40 43 98 39 44 99 41 44 99 40 42 99 39 42 95 40 41 95 38 42 90 32 34 82 
15 19 48 15 16 44 13 15 38 13 15 40 10 12 33 11 14 33 9 12 29 8 11 30 8 11 28 8 10 25 7 9 24 7 9 24 7 9 24 7 9 24 7 9 24 8 10 25 6 9 24 6 9 26 8 10 25 8 10 25 6 9 26 7 8 28 7 8 26 6 9 26 6 9 26 7 8 26 8 9 27 8 9 27 9 10 28 9 10 30 9 11 32 10 12 33 11 13 36 13 15 38 13 15 40 18 19 47 15 19 46 19 23 52 21 24 59 23 27 62 27 30 73 27 30 71 33 36 81 34 37 80 36 37 85 35 38 89 37 39 90 37 40 93 37 40 91 36 39 90 35 38 89 33 37 85 33 35 84 32 34 82 28 31 76 27 29 77 22 26 64 21 25 63 19 22 57 18 21 54 16 19 50 14 16 41 13 15 40 10 12 35 10 12 33 9 12 31 9 10 30 8 9 29 6 8 23 6 8 23 6 7 25 6 7 25 7 8 26 7 8 28 7 8 26 8 11 30 8 11 30 10 12 35 12 14 35 12 14 39 17 19 44 17 18 48 20 23 54 23 23 57 26 26 62 29 33 71 30 32 73 33 37 84 34 38 85 36 40 88 39 41 90 38 40 89 37 40 91 36 39 90 35 37 86 34 36 85 30 34 79 30 31 75 27 32 72 23 26 59 
5 7 22 6 7 25 5 8 23 5 8 23 5 8 23 6 7 25 7 9 24 8 9 27 8 10 25 7 8 26 8 10 25 7 9 24 8 10 25 7 9 24 7 9 24 7 9 24 5 8 27 5 8 25 8 10 25 8 10 25 7 8 26 7 8 26 7 8 26 5 8 23 5 8 25 8 9 27 9 10 28 8 11 28 11 13 34 11 13 34 16 17 47 16 20 47 19 22 55 23 25 64 24 26 65 30 33 78 32 35 80 35 39 86 38 40 88 38 41 92 39 42 97 38 43 99 40 45 100 40 42 99 39 41 98 38 41 96 37 40 93 33 36 87 34 35 89 28 31 76 28 31 74 22 24 63 20 23 58 18 21 56 15 17 42 12 16 43 10 13 32 10 13 32 8 9 27 6 7 27 7 8 26 7 8 26 5 8 25 7 8 26 7 8 26 7 9 24 7 9 24 7 9 24 6 9 26 7 8 26 7 8 26 6 7 25 6 9 26 8 11 28 8 11 28 12 14 37 14 14 38 17 18 48 21 21 57 21 24 59 31 33 74 32 36 73 36 38 87 38 40 89 38 41 92 41 44 99 41 43 100 40 43 98 41 42 98 39 42 93 39 42 95 38 40 89 31 34 79 32 35 80 24 26 64 21 25 62 17 20 53 14 16 41 13 14 42 8 11 28 
8 7 23 6 7 25 6 8 23 6 9 26 6 8 23 6 8 23 7 9 24 8 10 25 8 10 25 7 8 26 8 10 25 7 9 24 7 8 26 7 9 24 7 9 24 8 10 25 6 9 26 6 9 26 7 9 24 7 9 24 7 8 26 7 9 24 9 8 26 6 7 25 6 7 25 7 9 24 10 12 27 9 10 28 10 13 32 11 13 34 17 18 46 15 19 46 19 22 55 23 25 64 24 26 65 31 35 80 31 34 79 36 38 87 38 40 89 37 40 91 39 41 98 39 42 97 41 44 99 41 44 99 37 42 97 38 40 97 37 40 93 33 36 87 34 37 90 27 30 75 27 30 75 22 26 63 20 23 58 18 21 54 14 16 41 14 15 43 10 13 32 10 11 29 9 10 28 7 8 26 7 8 26 7 9 24 5 8 23 5 6 24 6 8 21 7 8 26 8 10 25 8 10 25 6 7 25 7 8 26 6 8 23 7 9 24 7 8 26 7 10 29 8 11 28 11 13 36 13 15 38 16 17 47 19 22 55 21 24 59 31 34 75 32 35 76 36 38 86 37 39 90 37 40 91 38 43 99 40 43 98 40 43 98 40 43 98 39 42 95 38 41 94 36 39 90 32 35 80 31 33 81 23 25 63 20 24 59 17 20 51 14 16 41 13 15 40 9 12 31 
6 8 23 6 8 23 7 8 26 7 8 26 6 7 25 7 8 26 6 8 23 8 10 25 6 8 23 7 9 24 7 9 24 8 10 25 7 9 24 7 9 24 6 7 25 6 8 23 6 9 24 7 9 24 10 11 31 11 12 32 11 13 34 13 15 40 13 15 38 19 22 57 19 24 56 26 28 67 29 31 70 30 33 76 35 37 85 34 36 84 37 40 91 38 41 94 39 42 95 40 43 98 40 42 99 38 43 98 37 42 97 37 40 95 36 39 94 36 38 87 31 33 81 32 35 80 24 26 65 23 25 64 21 21 55 19 20 50 13 17 42 12 12 36 11 13 34 7 8 28 8 9 27 8 9 27 6 7 25 6 9 24 5 8 25 5 8 25 7 9 24 7 9 24 8 9 27 6 7 25 6 9 28 7 8 26 8 7 25 6 8 23 6 8 23 7 9 24 8 10 25 10 9 25 13 15 38 11 16 38 16 20 49 19 22 57 22 24 62 28 31 74 27 30 75 36 38 89 36 40 88 39 42 95 38 43 98 38 43 99 38 43 98 38 43 98 39 42 95 39 42 93 36 38 87 32 35 80 31 35 80 21 23 61 21 23 61 17 20 51 15 16 44 14 16 41 10 13 32 9 12 31 6 9 26 7 8 26 7 10 27 7 8 26 6 9 26 6 8 23 
7 8 26 6 7 27 6 9 26 6 9 26 7 8 26 7 8 26 7 9 24 8 10 25 8 10 25 8 10 25 7 9 24 8 10 23 9 8 24 7 9 24 6 7 25 6 8 23 7 9 24 9 8 24 11 12 30 11 12 32 12 15 34 13 15 38 13 15 38 19 22 57 19 23 58 26 29 64 29 31 70 32 34 75 34 36 84 35 37 85 36 42 92 38 41 92 40 43 96 40 43 98 40 43 98 39 42 97 40 43 98 37 40 95 37 40 93 36 38 89 32 35 80 31 36 78 23 25 64 22 26 64 19 22 55 19 20 50 15 16 46 12 13 34 8 13 35 9 10 28 5 11 27 9 7 28 6 8 23 7 8 26 6 7 25 5 7 22 8 10 25 7 9 24 7 9 24 6 9 26 7 10 27 6 9 26 6 9 26 6 8 23 7 9 22 9 8 24 8 10 25 10 11 29 10 15 37 11 16 36 16 20 49 18 22 57 20 24 61 29 32 77 27 29 77 36 38 89 37 39 90 38 41 94 40 43 98 38 43 99 38 43 98 40 43 98 38 41 96 39 41 92 36 40 88 32 34 82 31 36 78 24 24 62 21 23 61 19 20 51 15 16 46 15 15 39 11 12 32 10 11 31 6 9 26 8 10 25 6 7 27 5 8 25 6 7 25 6 7 25 
5 8 27 5 8 25 5 8 25 6 9 26 5 8 23 3 9 23 7 9 24 6 10 22 7 9 24 9 10 28 8 9 27 10 11 31 11 12 32 13 14 35 13 15 38 14 16 41 17 21 48 16 19 50 22 25 58 22 25 60 23 27 64 28 31 74 27 30 71 32 34 82 32 34 83 36 38 87 36 40 88 36 39 90 38 40 89 38 40 91 36 38 89 36 40 87 34 36 85 32 36 81 33 36 81 27 30 71 27 30 73 23 25 64 22 25 60 21 24 57 18 19 47 16 20 49 14 16 41 14 16 41 13 13 37 10 12 35 9 12 31 9 10 30 9 10 28 7 8 26 8 9 27 7 8 28 5 8 25 8 10 25 7 8 26 5 8 25 6 7 25 7 8 26 8 9 27 9 10 28 8 11 28 10 12 33 11 14 33 14 16 39 15 16 44 16 20 49 20 23 58 19 22 57 28 30 69 26 31 69 30 33 78 30 34 82 32 36 84 36 38 89 35 38 89 38 40 89 39 41 92 36 40 88 35 37 86 35 39 87 31 34 77 31 34 75 27 26 66 23 25 63 21 24 57 18 22 49 19 20 50 14 16 39 13 15 40 11 12 33 10 11 32 10 11 32 8 9 27 7 10 27 7 8 26 7 8 26 8 9 27 8 9 27 9 10 30 12 14 37 
6 7 25 6 7 25 6 7 25 6 7 25 6 8 23 6 8 23 6 7 25 6 7 25 6 9 24 8 10 25 10 12 27 11 13 34 11 13 36 15 17 42 17 21 50 18 22 51 23 27 65 23 27 65 30 33 76 31 35 80 33 35 83 38 40 89 38 40 89 39 42 97 39 42 97 39 41 98 37 44 98 38 43 98 38 41 94 38 41 94 36 38 87 35 38 83 33 34 78 30 32 70 28 30 69 19 22 57 19 22 57 15 17 42 13 15 40 12 14 37 9 10 30 8 11 28 7 9 24 7 9 24 7 9 24 7 9 24 7 9 24 8 9 27 8 10 25 8 9 29 7 9 24 7 8 26 7 8 26 7 8 26 7 8 26 7 8 26 7 9 24 6 7 25 8 9 29 8 9 27 9 10 30 12 14 37 12 14 37 19 20 51 18 21 54 21 23 61 29 30 76 29 32 77 37 39 90 37 41 89 39 42 95 37 42 97 37 42 97 41 44 99 41 44 99 39 42 97 38 41 92 36 40 88 32 35 80 31 34 77 24 27 60 24 27 58 18 19 47 16 17 45 13 15 36 9 12 29 10 13 30 7 8 26 7 8 26 6 7 25 3 9 25 5 8 25 6 7 25 6 9 24 6 7 27 6 7 25 6 9 28 10 11 31 10 11 31 15 16 44 
