P3
100 50
255
1 1 3 1 1 3 2 2 4 3 3 5 3 3 3 17 14 7 29 26 9 34 29 10 64 51 17 64 51 16 72 60 20 74 62 20 81 64 20 83 65 17 82 66 17 82 66 15 83 67 16 83 66 14 81 65 16 84 66 16 82 66 17 83 67 16 83 66 22 82 65 19 83 65 17 83 67 18 84 66 16 82 66 17 82 65 19 82 66 15 83 67 16 82 66 15 83 65 19 82 65 19 83 65 17 83 67 16 82 65 19 81 64 18 82 66 17 83 65 17 82 66 15 82 66 15 83 67 16 78 64 19 75 62 18 60 50 15 17 14 7 20 13 7 3 3 3 1 1 3 1 1 3 1 3 2 1 1 3 1 1 3 2 2 4 2 2 4 1 1 3 1 1 3 1 1 3 1 1 3 2 2 4 1 2 4 2 1 6 2 2 4 1 1 3 1 3 2 1 1 3 1 1 3 1 1 3 20 16 7 31 25 9 42 35 16 83 70 35 82 69 34 82 69 34 83 70 35 83 70 36 83 70 36 83 70 36 83 70 36 83 70 36 83 70 36 82 69 35 82 69 35 83 70 35 84 71 36 84 71 36 83 70 35 83 70 35 83 70 35 83 70 35 83 70 35 83 70 35 83 70 35 83 70 36 82 69 35 83 70 36 81 68 34 84 71 36 82 69 34 
1 1 3 1 1 3 1 1 3 3 3 5 2 2 0 18 13 7 30 25 6 35 28 10 61 51 15 62 52 16 73 59 20 75 62 18 78 64 19 84 66 18 83 67 18 82 66 17 85 65 15 82 66 17 83 67 16 81 65 14 83 65 15 83 67 16 82 64 18 79 65 18 81 65 16 82 66 17 83 67 18 81 64 18 83 65 19 80 67 15 82 64 16 82 65 19 82 64 18 82 65 19 82 66 15 83 65 15 80 66 19 82 65 21 83 65 17 82 66 15 82 66 15 85 65 15 81 65 14 78 64 19 76 63 19 61 51 16 17 14 5 18 13 7 3 3 3 1 1 1 1 0 5 1 1 3 1 1 3 1 1 3 0 0 2 1 1 3 2 2 4 2 2 4 1 1 3 2 2 4 1 1 3 0 1 3 2 0 3 2 2 4 2 2 4 0 1 3 2 2 2 1 2 4 2 2 4 19 16 7 30 27 10 42 37 17 83 70 35 82 69 34 82 69 37 81 71 35 82 69 35 83 70 36 83 70 36 83 70 36 83 70 36 83 70 36 83 70 36 82 69 35 83 70 35 82 69 34 83 70 35 82 69 34 83 70 35 83 70 35 83 70 35 84 71 36 82 69 35 82 69 34 83 70 36 83 70 35 82 69 34 83 70 36 82 69 34 84 71 37 
2 2 4 1 1 3 1 1 3 2 2 4 2 2 4 7 6 4 11 10 5 15 12 7 25 21 9 25 22 7 39 32 13 43 35 12 50 43 15 60 47 15 60 50 15 74 59 16 75 60 17 81 64 18 82 65 19 83 67 18 84 66 18 82 66 15 82 66 17 82 66 17 82 66 15 83 67 16 82 66 15 84 66 16 83 65 15 81 64 18 82 66 17 82 66 17 83 65 15 83 67 18 81 65 16 82 65 19 82 66 17 82 66 17 82 66 17 81 65 16 82 65 19 82 66 17 83 67 16 73 60 16 68 56 16 54 43 15 8 7 5 9 8 6 4 2 3 2 2 2 1 2 4 2 2 4 2 2 4 1 1 3 1 1 3 1 1 3 1 1 3 2 2 4 1 1 3 1 1 3 1 1 3 1 2 4 0 1 3 2 2 4 1 1 3 1 1 3 2 0 5 2 2 4 1 0 5 26 22 11 43 36 17 52 44 21 83 70 35 84 71 36 83 70 35 83 70 35 82 69 35 83 70 36 84 71 37 83 70 36 82 69 35 83 70 36 83 70 36 81 68 34 84 71 36 82 69 34 83 70 35 83 70 35 83 70 35 82 69 34 83 70 35 83 70 35 83 70 36 83 70 35 82 69 35 84 71 36 82 69 34 83 70 36 83 70 35 82 69 35 
1 1 3 1 1 3 2 2 4 3 3 5 1 2 4 1 1 3 0 0 2 0 1 3 3 3 5 2 2 2 18 15 6 23 19 8 33 28 9 44 38 14 47 40 14 69 57 19 70 58 20 77 63 18 82 65 19 83 67 18 82 66 17 83 67 18 82 66 15 83 67 16 83 67 16 83 67 18 83 65 15 83 67 18 84 66 18 82 64 18 82 65 19 82 66 17 82 66 15 82 66 17 82 66 17 79 65 18 84 66 18 82 66 17 81 65 14 82 65 19 81 64 18 83 67 16 83 67 18 71 58 16 61 51 15 47 40 12 2 3 7 3 4 6 1 2 4 1 2 4 1 2 4 1 1 3 2 2 4 1 1 3 1 1 3 2 2 4 1 1 3 1 1 3 1 1 3 1 1 3 2 2 4 2 2 4 1 1 3 2 2 4 2 2 4 1 1 3 0 0 2 1 2 6 0 1 5 30 26 14 50 43 24 58 50 27 84 71 36 83 70 35 82 69 35 83 70 35 83 70 36 82 69 35 83 70 36 83 70 36 83 70 36 82 69 35 83 70 36 82 69 35 82 69 34 83 70 35 83 70 35 84 71 36 83 70 35 83 70 35 83 70 35 83 70 35 83 70 35 83 70 35 82 69 35 82 69 35 83 70 36 82 69 35 82 69 34 82 69 34 
2 2 4 1 1 3 2 2 4 2 2 4 1 1 3 2 2 4 2 2 4 1 2 4 3 3 3 3 3 5 14 13 8 18 15 6 25 21 9 34 28 12 37 32 12 54 45 14 55 46 15 63 50 15 67 53 16 70 55 16 73 60 16 73 58 15 79 62 16 76 62 15 79 62 16 81 65 16 81 64 18 82 66 17 83 67 16 83 65 17 82 66 17 83 67 18 83 67 18 82 66 15 83 65 19 82 66 17 82 66 17 82 66 17 82 65 19 81 64 20 82 66 17 82 66 15 82 66 17 67 55 15 55 46 13 42 34 11 4 2 3 2 1 6 1 1 3 1 2 4 1 2 4 1 1 3 1 1 3 1 1 3 1 1 3 1 1 3 2 2 4 2 2 4 1 1 3 2 2 4 1 1 3 0 1 5 1 1 3 2 0 3 1 1 1 2 1 6 2 2 4 4 4 6 3 3 5 37 31 17 56 48 25 63 53 26 83 70 36 84 71 36 83 70 36 83 70 35 83 70 36 83 70 36 83 70 36 83 70 36 82 69 35 82 69 35 82 69 35 82 69 35 82 69 34 83 70 35 83 70 35 83 70 35 83 70 35 83 70 35 83 70 35 83 70 35 83 70 35 83 70 35 83 70 36 83 70 36 82 69 35 82 69 35 83 70 35 82 69 34 
1 1 3 1 1 3 1 1 3 2 2 4 1 1 3 1 1 3 0 1 3 2 2 2 1 1 3 2 2 4 1 3 2 1 1 1 0 1 3 1 2 4 2 2 4 11 10 5 11 10 5 20 18 6 23 19 7 32 26 10 44 38 14 44 38 14 62 52 16 64 52 14 70 58 18 75 62 18 77 62 19 83 65 19 82 65 19 82 66 17 81 65 16 82 66 15 82 66 17 80 67 15 83 67 16 82 66 15 81 64 18 81 64 18 81 64 20 82 64 18 82 65 19 80 66 17 83 67 18 55 44 14 38 31 12 27 24 9 1 1 3 1 1 3 2 2 4 1 1 1 1 1 3 1 1 3 1 1 3 1 1 3 1 1 3 1 1 3 2 2 4 2 2 4 1 1 3 1 1 3 1 1 3 2 2 4 1 1 3 2 2 4 0 2 1 1 1 3 1 1 3 10 10 2 10 9 5 51 43 22 74 63 31 77 67 32 84 71 36 83 70 35 83 70 35 82 69 34 82 69 35 83 70 36 82 69 35 82 69 35 82 69 35 83 70 36 82 69 35 83 70 36 82 69 34 83 70 35 82 69 34 83 70 35 83 70 35 82 69 34 83 70 35 81 68 33 82 69 35 82 69 34 82 69 35 82 69 34 83 70 35 82 69 35 83 70 35 82 69 35 
2 2 4 1 1 3 0 0 2 1 1 3 0 1 3 1 1 3 1 1 3 1 1 3 2 2 4 2 2 4 1 2 4 1 1 3 1 1 1 2 2 4 2 4 3 12 8 5 9 8 3 20 18 6 24 20 8 29 26 9 44 36 13 44 36 15 62 52 16 62 53 14 69 57 17 75 62 20 77 62 19 82 63 20 81 64 18 82 66 15 82 66 17 82 66 17 82 66 15 82 66 17 82 66 17 82 66 17 81 65 16 81 64 20 84 66 18 81 64 18 80 63 17 83 67 16 81 65 14 53 44 13 37 30 11 27 24 9 1 1 1 1 2 4 1 3 2 2 2 2 1 1 3 2 2 4 3 3 5 1 1 3 1 1 3 2 2 4 1 1 3 1 1 3 1 1 3 1 1 3 1 1 3 1 1 3 1 1 3 2 2 4 2 2 4 1 1 3 1 2 4 12 8 5 13 10 5 51 43 20 75 66 33 76 66 31 83 70 36 84 71 36 82 69 34 82 72 37 82 69 35 83 70 36 83 70 36 81 68 34 82 69 35 82 69 35 83 70 36 81 68 34 83 70 36 83 70 36 82 69 35 82 69 35 82 69 35 82 69 35 82 69 35 83 70 36 83 70 36 82 69 34 82 69 35 83 70 35 83 70 35 83 70 36 82 69 34 82 69 35 
2 2 4 1 1 3 1 1 3 1 1 3 1 1 3 1 2 4 2 2 4 1 1 3 2 2 4 2 1 6 1 2 4 1 1 3 2 2 4 1 2 4 0 1 3 3 3 3 3 3 3 3 3 3 4 4 4 5 5 5 7 6 4 6 6 4 10 9 5 10 9 5 17 17 9 27 21 9 29 23 9 38 32 10 37 30 11 55 44 14 56 47 14 64 51 16 70 58 16 73 60 18 83 65 17 81 64 18 82 66 17 83 67 16 82 66 17 82 66 17 82 66 17 75 62 18 74 63 18 39 33 9 18 15 6 16 13 6 2 2 4 1 1 3 0 1 3 2 2 2 2 2 4 2 2 2 1 1 3 1 1 3 1 1 3 1 1 3 1 1 3 1 1 3 1 1 3 2 2 4 2 2 4 1 1 3 2 2 2 1 1 3 0 1 3 0 0 2 0 1 3 28 25 10 27 24 7 61 51 24 82 69 35 83 70 35 82 69 35 83 70 36 82 69 35 81 68 33 83 70 36 82 69 35 82 69 35 83 70 36 82 69 35 82 69 35 82 69 35 82 69 35 82 69 35 84 71 37 82 69 35 84 71 37 82 69 35 82 69 35 83 70 36 82 69 35 83 70 35 82 69 34 81 68 34 83 70 36 82 69 35 82 69 35 82 69 34 83 70 35 
1 1 3 2 2 4 0 0 2 1 1 3 1 1 3 0 0 2 1 1 3 2 2 4 2 2 4 2 2 4 0 0 2 2 2 4 1 1 3 1 1 3 1 1 3 1 1 3 2 2 4 1 1 3 1 1 3 2 2 4 1 2 4 1 1 3 3 3 5 4 2 3 11 10 5 17 14 5 21 17 6 32 24 11 31 25 11 48 41 13 54 43 15 59 49 14 70 56 19 71 58 16 81 64 20 81 64 20 82 66 17 82 66 17 82 66 17 83 65 15 82 66 15 74 63 18 74 61 19 39 32 13 17 14 5 12 11 6 2 2 2 0 1 3 1 1 3 1 1 1 0 1 3 1 2 4 1 1 3 1 1 3 1 1 3 1 1 3 2 2 4 1 1 3 2 2 4 1 1 3 1 1 3 1 1 3 0 2 5 0 0 2 1 1 1 1 1 3 1 1 3 31 25 11 29 26 11 62 52 25 81 68 34 81 68 34 80 67 33 82 69 34 81 71 35 82 69 35 83 70 36 82 69 35 82 69 34 82 69 35 83 70 35 82 69 35 82 69 35 81 68 34 82 69 35 84 71 37 83 70 36 83 70 36 83 70 36 83 70 36 82 69 35 82 69 35 83 70 36 83 70 36 82 69 35 83 70 36 82 69 35 82 69 35 83 70 36 83 70 36 
1 1 3 1 1 3 1 1 3 2 2 4 1 1 3 1 1 3 2 2 4 1 1 3 1 1 3 1 1 3 2 2 4 2 2 4 1 1 3 2 2 4 1 1 3 1 1 3 1 1 3 1 1 3 0 0 2 1 1 3 1 2 4 0 1 3 2 2 2 2 2 4 6 7 2 11 7 4 10 9 5 14 13 8 16 13 6 25 21 9 26 23 8 33 28 9 40 32 11 41 35 11 53 42 14 52 41 13 64 52 14 67 53 14 69 55 16 71 58 14 72 59 15 59 48 16 59 50 17 28 25 10 10 9 5 6 6 4 1 1 3 1 1 3 1 1 3 1 1 1 1 1 3 1 2 4 2 2 4 2 2 4 1 1 3 2 2 4 1 1 3 1 1 3 1 1 3 1 1 3 1 1 3 2 2 2 0 1 3 1 2 4 1 1 3 2 2 2 1 1 3 39 34 15 39 34 14 65 56 27 83 70 35 83 70 35 83 70 36 82 69 35 82 69 35 82 69 34 82 69 35 81 68 34 82 69 35 82 69 34 83 70 36 83 70 36 82 69 35 82 69 35 82 69 35 82 69 35 83 70 36 82 69 35 83 70 36 82 69 35 82 69 35 83 70 36 82 69 35 82 69 35 82 69 35 82 69 35 82 69 35 82 69 35 82 69 35 82 69 35 
1 1 3 2 2 4 1 1 3 1 1 3 1 1 3 1 1 3 2 2 4 1 1 3 1 1 3 1 1 3 2 2 4 2 2 4 1 1 3 2 2 4 1 1 3 2 2 4 1 1 3 2 2 4 1 1 3 2 2 4 1 2 4 1 1 3 1 1 1 2 0 3 2 2 2 1 1 1 1 1 3 2 2 4 1 1 3 3 1 4 0 1 3 6 6 4 14 9 5 12 11 6 24 20 8 23 19 7 44 37 11 53 42 14 57 46 14 61 51 16 61 51 16 43 37 13 43 37 13 19 16 9 3 3 5 2 2 4 1 1 3 0 0 2 1 1 3 2 2 4 1 2 4 1 2 4 1 1 3 1 1 3 1 1 3 1 1 3 2 2 4 2 2 4 1 1 3 1 1 3 1 1 3 1 1 3 2 2 2 0 1 3 1 1 3 2 1 6 2 0 3 50 44 22 48 41 22 71 60 30 84 72 34 83 70 35 83 70 36 82 69 35 81 68 34 82 69 34 82 69 35 82 69 35 83 70 35 83 70 35 82 69 34 82 69 35 83 70 35 81 68 34 82 69 35 83 70 36 81 68 34 81 68 34 82 69 35 83 70 36 82 69 35 82 69 35 82 69 35 82 69 35 81 68 34 83 70 36 81 68 34 82 69 35 82 69 35 82 69 35 
2 2 4 2 2 4 1 1 3 1 1 3 1 1 3 1 1 3 1 1 3 1 1 3 1 1 3 1 1 3 1 1 3 2 2 4 1 1 3 1 1 3 1 1 3 1 1 3 2 2 4 2 2 4 2 2 4 2 2 4 0 0 2 2 0 1 1 1 3 2 2 4 1 1 3 1 1 3 2 0 3 1 1 3 1 1 3 2 2 4 1 1 3 5 4 2 11 7 4 11 11 3 22 18 7 21 19 7 39 32 13 47 37 10 50 40 13 54 45 12 55 46 13 40 33 14 38 33 13 15 15 7 1 2 4 2 3 5 1 1 3 1 1 3 2 2 4 1 1 3 0 1 3 0 1 3 1 1 3 1 1 3 2 2 4 1 1 3 1 1 3 1 1 3 2 2 4 2 2 4 2 2 4 1 1 3 2 2 2 2 2 4 3 3 3 1 1 3 2 2 4 52 46 24 52 44 23 73 62 32 84 71 37 83 70 36 83 70 36 82 69 35 83 70 36 83 70 38 82 69 35 82 69 34 81 68 34 83 70 35 81 68 34 82 69 34 82 69 35 82 69 35 83 70 36 82 69 35 82 69 35 82 69 35 81 68 34 82 69 35 83 70 36 82 69 35 82 69 35 82 69 35 83 70 36 83 70 36 81 68 34 83 70 36 81 68 34 82 69 35 
1 1 3 1 1 3 1 1 3 1 1 3 2 2 4 2 2 4 2 2 4 2 2 4 3 3 5 2 2 4 2 2 4 2 2 4 1 1 3 2 2 4 1 1 3 1 1 3 1 1 3 1 1 3 0 0 2 1 1 3 1 1 3 1 1 3 0 1 3 0 1 5 1 3 2 2 2 4 1 1 1 1 1 3 1 2 4 1 2 4 1 1 3 1 1 3 1 0 5 1 1 3 1 1 3 1 2 4 0 1 3 1 0 5 3 3 3 3 3 5 3 3 5 1 1 3 1 1 3 2 2 4 2 2 4 3 1 4 2 2 4 1 1 3 1 1 3 1 2 4 1 1 3 1 2 4 2 2 4 2 2 4 1 1 3 1 1 3 1 1 3 2 2 4 1 1 3 1 1 3 1 1 3 1 1 3 0 0 4 1 1 3 3 3 3 10 9 4 10 9 5 73 64 31 74 63 31 81 68 34 84 71 36 82 69 35 82 69 35 82 69 35 81 68 34 82 70 32 82 69 35 82 69 35 83 70 36 82 69 35 82 69 35 81 68 34 83 70 36 82 69 35 82 69 35 82 69 35 82 69 35 81 68 34 83 70 36 82 69 35 82 69 35 82 69 35 83 70 36 82 69 35 81 68 34 82 69 35 82 69 35 82 69 35 82 69 35 82 69 35 
2 2 4 2 2 4 2 2 4 1 1 3 2 2 4 2 2 4 1 1 3 1 1 3 1 1 3 2 2 4 2 2 4 1 1 3 1 1 3 2 2 4 1 1 3 0 0 2 1 1 3 2 2 4 1 1 3 1 1 3 1 1 3 1 1 3 1 1 3 0 1 3 1 2 4 1 2 4 1 1 3 1 1 3 1 2 4 1 1 3 1 1 3 1 2 4 1 1 3 1 1 3 1 1 3 1 2 4 2 2 2 0 1 3 2 2 4 3 3 5 2 2 4 1 1 3 1 0 5 1 1 3 0 1 3 0 1 3 0 1 3 1 1 3 1 1 3 1 2 4 2 2 4 1 2 4 1 1 3 1 1 3 2 2 4 2 2 4 1 1 3 1 1 3 1 1 3 1 1 3 1 1 1 1 1 3 1 1 3 1 1 3 3 3 3 13 10 5 10 9 5 74 63 31 74 64 29 80 67 33 82 69 34 83 70 35 82 69 34 82 69 34 82 69 34 82 70 32 82 69 35 82 69 35 82 69 35 83 70 35 82 69 35 82 69 34 83 70 36 82 69 35 83 70 36 82 69 35 81 68 34 81 68 34 82 69 35 81 68 34 82 69 35 83 70 36 82 69 35 83 70 36 83 70 36 82 69 35 82 69 35 82 69 35 81 68 34 83 70 36 
1 1 3 1 1 3 1 1 3 1 1 3 1 1 3 2 2 4 1 1 3 1 1 3 1 1 3 2 2 4 2 2 4 0 0 2 0 0 2 2 2 4 1 1 3 1 1 3 1 1 3 2 2 4 2 2 4 2 2 4 1 1 3 1 1 3 1 1 3 1 1 3 2 2 4 0 1 3 1 1 3 2 0 3 1 1 3 2 2 4 2 2 4 1 1 3 0 1 3 0 1 3 2 2 4 0 1 3 1 2 4 1 1 3 1 1 1 2 2 4 2 2 4 2 2 2 1 1 3 1 1 3 2 2 4 1 1 3 1 1 3 1 1 3 1 1 3 1 1 3 1 1 1 1 1 3 1 1 3 1 1 3 1 1 3 1 1 3 2 2 4 1 1 3 2 2 4 2 2 4 1 1 3 1 1 3 1 1 3 1 1 3 6 6 4 24 20 9 25 22 7 81 68 34 79 69 34 81 68 33 82 69 34 82 69 34 83 70 35 81 68 33 82 69 34 83 70 36 81 68 33 82 69 35 82 69 34 82 69 35 81 68 33 81 68 34 81 68 33 81 68 33 82 69 35 81 68 34 83 70 36 83 70 36 82 69 35 81 68 34 81 68 34 82 69 35 83 70 36 83 70 36 82 69 35 83 70 36 83 70 36 82 69 35 82 69 35 82 69 35 
2 2 4 3 3 5 2 2 4 1 1 3 1 1 3 1 1 3 1 1 3 1 1 3 2 2 4 1 1 3 1 1 3 1 1 3 1 1 3 2 2 4 2 2 4 1 1 3 1 1 3 1 1 3 1 1 3 1 1 3 1 2 4 0 1 3 0 0 2 0 1 3 2 2 2 1 1 3 2 2 2 1 1 3 1 1 3 1 2 4 1 2 4 2 2 4 1 1 3 1 1 3 2 2 4 1 0 5 1 1 3 1 2 4 1 1 1 1 1 3 2 2 4 1 1 3 1 2 4 0 1 3 0 2 1 1 2 4 1 1 1 1 1 3 2 2 4 2 0 3 2 2 2 2 2 2 1 1 3 2 2 4 1 1 3 2 2 4 1 1 3 1 1 3 1 1 3 1 1 3 1 1 3 1 1 3 1 1 1 1 2 4 7 7 5 31 25 11 31 25 11 82 69 35 80 70 34 80 69 37 82 69 37 81 68 34 81 68 34 82 69 35 83 70 36 82 69 35 82 69 35 82 69 35 80 67 33 82 69 35 82 69 35 81 68 34 82 69 35 82 69 35 81 68 34 82 69 35 83 70 36 82 69 35 83 70 36 82 69 35 82 69 35 82 69 35 82 69 35 82 69 35 83 70 36 82 69 35 83 70 36 81 68 34 82 69 35 81 68 34 
2 2 4 1 1 3 1 1 3 1 3 2 2 2 2 2 2 4 2 2 4 1 1 3 1 1 3 1 1 3 2 2 4 2 2 4 2 2 4 1 1 3 1 1 3 1 1 3 1 1 3 1 1 3 1 1 3 1 1 3 1 1 3 0 0 2 1 1 3 1 1 3 1 1 3 1 1 3 2 2 4 2 2 4 1 1 3 2 2 4 2 2 4 1 1 3 2 2 4 1 1 3 1 1 3 2 2 4 1 2 4 2 2 4 2 2 4 2 2 4 1 1 3 0 0 2 2 2 4 1 1 3 2 2 4 1 1 3 1 1 3 1 1 3 2 2 4 1 1 3 1 1 3 1 1 3 1 1 3 1 1 3 1 1 3 1 1 3 1 1 3 1 1 3 1 1 3 1 1 3 1 3 2 1 1 3 1 1 3 1 2 4 9 9 7 36 33 14 39 32 14 82 69 35 83 70 35 83 70 35 82 69 35 82 69 35 81 68 34 82 69 35 82 69 35 80 70 35 83 70 36 82 69 35 82 69 35 82 69 35 81 68 34 82 69 35 82 69 35 81 68 34 83 70 36 82 69 35 82 69 35 82 69 35 81 68 34 82 69 35 83 70 36 81 68 34 82 69 35 82 69 35 81 68 34 80 67 33 81 68 34 82 69 35 82 69 35 83 70 36 
0 0 2 1 1 1 2 2 4 2 2 4 1 2 4 0 1 3 1 1 3 1 1 3 0 0 2 2 2 4 1 1 3 1 2 4 2 2 4 1 1 3 1 1 3 1 1 3 1 1 3 1 1 3 1 1 3 1 1 3 1 1 3 1 1 3 1 1 3 1 1 3 1 1 3 1 1 3 0 0 2 2 2 4 1 1 3 1 1 3 1 1 3 1 1 3 2 2 4 2 2 4 1 1 3 1 1 3 1 1 3 2 2 4 1 1 3 1 1 3 2 2 4 1 1 3 1 1 3 1 1 3 2 2 4 2 2 4 1 1 3 2 2 4 1 1 3 2 2 4 1 1 3 1 1 3 1 1 3 1 1 3 0 0 2 1 1 3 1 1 3 2 2 4 1 1 3 1 1 3 1 1 3 2 0 3 1 2 4 0 3 4 12 11 7 48 42 20 49 43 21 84 71 36 84 71 36 83 70 35 82 69 35 82 69 35 82 69 35 82 69 35 82 69 35 80 70 35 81 68 34 81 68 34 81 68 34 82 69 35 82 69 35 82 69 35 82 69 35 83 70 36 82 69 35 82 69 35 82 69 35 82 69 35 81 68 34 83 70 36 82 69 35 82 69 35 82 69 35 83 70 36 82 69 35 82 69 35 81 68 34 81 68 34 82 69 35 81 68 34 
1 1 3 0 1 3 1 1 1 1 1 3 1 2 4 1 2 4 1 2 4 0 1 3 1 1 3 1 1 3 1 1 3 1 1 3 2 2 4 1 1 3 1 1 3 1 1 3 1 1 3 1 1 3 1 1 3 1 1 3 1 1 3 2 2 4 1 1 3 2 2 4 1 1 3 2 2 4 2 2 4 2 2 4 2 2 4 1 1 3 1 1 3 2 2 4 1 1 3 1 1 3 1 1 3 1 1 3 1 1 3 1 1 3 1 1 3 1 1 3 1 1 3 1 1 3 1 2 4 1 1 3 2 2 4 2 2 4 2 2 4 1 1 3 2 2 4 2 2 4 2 2 4 1 1 3 2 2 4 2 2 4 1 1 3 2 2 4 1 1 3 3 3 5 2 2 4 2 2 4 1 2 6 1 1 3 2 2 4 1 1 3 13 12 8 49 42 23 49 43 21 83 70 36 83 70 35 83 70 35 82 69 35 80 70 35 81 68 34 82 69 35 82 69 35 80 70 35 82 69 35 83 70 36 82 69 35 83 70 36 83 70 36 82 69 35 81 68 34 82 69 35 81 68 34 82 69 35 82 69 35 82 69 35 81 68 34 82 69 35 82 69 35 81 68 34 82 69 35 82 69 35 82 69 35 82 69 35 82 69 35 82 69 35 82 69 35 82 69 35 
1 1 3 1 1 3 1 1 3 2 2 4 0 1 3 2 2 4 2 2 4 1 1 3 1 2 4 1 2 4 1 2 4 3 3 5 2 2 4 1 1 3 1 1 3 1 1 3 1 1 3 1 1 3 1 1 3 1 1 3 1 1 3 1 1 3 1 1 3 1 1 3 0 0 2 1 1 3 1 1 3 1 1 3 2 2 4 2 2 4 2 2 4 1 1 3 1 1 3 2 2 4 1 1 3 1 1 3 1 1 3 1 1 3 1 1 3 2 2 4 1 1 3 1 1 3 1 2 4 1 1 3 1 1 3 1 1 3 2 2 4 1 1 3 2 2 4 1 1 3 2 2 4 2 2 4 1 2 4 1 2 4 1 2 4 1 2 4 1 2 4 1 2 4 1 2 4 1 2 4 2 2 4 2 2 4 7 6 2 10 9 4 25 21 10 65 58 29 65 56 27 83 69 34 83 70 35 83 70 35 81 68 34 82 69 35 82 69 35 81 68 34 82 69 35 82 67 34 80 67 33 81 68 34 81 68 34 81 68 34 81 68 34 81 68 34 81 68 34 82 69 35 82 69 35 82 69 35 83 70 36 81 68 34 81 68 34 82 69 35 81 68 34 82 69 35 82 69 34 83 70 35 82 69 34 82 69 34 82 69 34 82 69 34 82 69 34 80 67 32 
1 1 3 0 1 3 2 2 2 1 1 3 1 1 3 2 2 4 1 2 4 2 2 4 1 1 3 1 1 3 1 2 4 1 2 4 2 2 4 1 1 3 1 1 3 1 1 3 1 1 3 1 1 3 1 1 3 1 1 3 1 1 3 0 0 2 0 0 2 2 2 4 1 1 3 2 2 4 1 1 3 2 2 4 1 1 3 1 1 3 1 1 3 1 1 3 2 2 4 2 2 4 1 1 3 2 2 4 3 3 5 1 2 4 1 1 3 1 1 3 2 2 4 2 2 4 1 1 3 2 2 4 2 2 4 2 2 4 1 1 3 2 2 4 1 1 3 2 2 4 1 1 3 1 1 3 1 1 3 1 1 3 1 1 3 1 1 3 2 2 4 1 1 3 1 1 3 1 1 3 1 2 4 3 1 2 6 6 4 10 9 5 24 20 9 67 56 28 66 57 28 84 71 37 83 70 35 83 70 35 80 70 35 80 70 35 82 69 35 81 68 34 82 69 35 79 69 34 83 70 36 81 68 34 82 69 35 82 69 35 82 69 35 82 69 35 82 69 35 81 68 34 82 69 35 82 69 35 81 68 34 82 69 35 82 69 35 82 69 35 82 69 35 81 68 34 82 69 34 83 70 35 82 69 34 82 69 34 82 69 34 81 68 33 81 68 33 81 68 33 
11 10 5 3 3 5 3 3 5 1 1 3 2 2 4 2 2 4 1 1 3 1 1 3 1 1 3 2 2 4 2 2 4 2 2 4 2 2 4 1 1 3 1 1 3 1 1 3 1 1 3 1 1 3 1 1 3 1 1 3 1 1 3 1 1 3 1 1 3 1 1 3 2 2 4 1 1 3 2 2 4 2 2 4 1 1 3 1 1 3 2 2 4 1 1 3 1 1 3 1 1 3 1 1 3 1 1 3 2 2 4 1 2 4 2 2 4 2 2 4 2 2 4 2 2 4 1 1 3 1 1 3 1 1 3 2 2 4 2 2 4 2 2 4 1 1 3 2 2 4 2 2 4 2 2 4 1 1 3 1 1 3 1 1 3 1 1 3 1 1 3 2 2 4 2 2 4 1 1 3 1 1 1 1 1 3 10 11 5 18 15 6 35 27 14 74 63 31 75 64 32 82 69 34 82 69 34 82 69 34 81 68 34 81 68 34 81 68 34 82 69 35 82 69 35 82 69 35 82 69 35 83 70 36 82 69 35 81 68 34 81 68 34 80 67 33 82 69 35 81 68 34 82 69 35 79 69 34 81 68 34 80 70 35 79 69 34 82 69 35 80 70 35 82 69 35 82 69 35 82 69 35 82 69 35 81 68 34 81 68 34 82 69 35 81 68 34 81 68 34 
18 15 8 3 3 5 4 4 6 1 1 3 1 1 3 1 1 3 3 1 4 1 1 3 2 2 4 0 1 3 1 1 3 2 2 2 2 2 4 1 1 3 1 1 3 1 1 3 1 1 3 1 1 3 1 1 3 1 1 3 1 1 3 1 1 3 0 0 2 1 1 3 1 1 3 2 2 4 1 1 3 2 2 4 3 3 5 1 1 3 1 1 3 1 1 3 1 1 3 1 1 3 1 1 3 1 1 3 1 1 3 1 1 3 2 2 4 2 2 4 1 1 3 1 1 3 1 1 3 2 2 4 1 1 3 1 1 3 2 2 4 1 1 3 2 2 4 1 1 3 2 2 4 2 2 4 1 2 4 0 1 3 0 1 3 1 2 4 1 2 4 1 2 4 1 2 4 1 2 4 1 2 4 2 2 4 16 13 6 22 18 6 39 32 14 82 69 34 82 69 35 79 69 34 81 68 33 81 68 33 82 69 35 82 69 35 82 69 35 81 68 34 81 68 34 79 69 34 81 68 34 80 67 33 82 69 35 81 68 34 81 68 34 82 69 35 82 69 35 81 68 34 81 68 34 82 69 35 81 68 34 83 70 36 82 69 35 82 69 35 82 69 35 82 69 35 81 68 34 82 69 35 82 69 35 82 69 35 81 68 34 81 68 34 81 68 34 81 68 34 
30 27 12 17 13 10 16 15 10 11 10 5 10 10 8 7 7 5 3 3 1 3 3 3 2 2 4 1 1 3 2 2 4 0 1 3 2 2 4 1 1 3 1 1 3 1 1 3 1 1 3 1 1 3 1 1 3 1 1 3 1 1 3 1 1 3 1 1 3 1 1 3 1 1 3 1 1 3 2 2 4 1 1 3 1 1 3 1 1 3 2 2 4 2 2 4 1 1 3 2 2 4 2 2 4 3 3 5 0 0 2 1 1 3 1 1 3 0 0 2 1 1 3 2 2 4 1 1 3 1 2 4 1 1 3 1 1 3 1 1 3 2 2 4 1 1 3 1 1 3 1 1 3 2 2 4 1 1 3 1 1 3 1 1 3 1 1 3 1 1 3 1 1 3 1 1 3 1 1 3 1 2 4 1 1 3 18 15 6 26 23 8 40 35 15 79 69 33 79 69 34 82 69 34 82 69 34 81 68 33 81 68 34 81 68 34 82 69 35 82 69 35 83 70 36 80 70 35 81 68 34 82 69 35 81 68 34 81 68 34 82 69 35 82 69 35 81 68 34 81 68 34 78 68 33 82 69 35 79 69 34 82 69 35 82 69 35 79 69 34 82 69 35 79 69 34 82 69 35 81 68 34 82 69 35 81 68 34 81 68 34 82 69 35 81 68 34 81 68 34 
69 60 29 57 50 22 57 50 22 40 33 14 38 31 12 26 20 8 9 10 5 9 8 4 2 2 4 0 0 2 3 3 5 1 1 3 2 2 2 3 1 4 2 2 4 2 3 5 1 2 4 2 2 4 1 1 3 2 2 4 2 2 4 0 1 3 1 1 3 2 2 2 1 2 4 1 1 3 2 0 3 2 2 4 1 1 3 2 2 4 1 1 3 1 1 3 2 2 4 0 1 3 1 3 2 2 2 4 2 2 4 1 1 3 2 2 4 1 1 3 2 2 4 2 2 4 1 1 3 2 2 4 1 1 3 1 1 3 2 2 4 2 2 4 2 2 4 1 1 3 1 1 3 1 1 3 1 1 3 1 1 3 1 1 3 1 1 3 1 1 3 1 1 3 0 0 2 1 1 3 1 3 2 2 2 4 24 22 9 38 31 12 48 40 17 81 71 36 81 68 33 83 69 34 81 68 34 81 68 34 82 69 35 82 69 35 81 68 34 82 69 35 81 68 34 82 69 35 81 68 34 82 69 35 82 69 35 82 69 35 81 68 34 81 68 34 81 68 34 82 69 35 83 70 36 81 68 34 82 69 35 81 68 34 81 68 34 82 69 35 82 69 35 81 68 34 81 68 34 81 68 34 82 69 35 81 68 34 80 67 33 81 68 34 81 68 34 81 68 34 
69 60 27 56 49 20 57 50 22 40 33 15 37 30 11 24 20 8 11 10 5 9 8 4 2 3 7 1 2 6 1 1 3 1 1 3 2 2 2 1 1 3 1 1 3 1 1 1 2 2 4 1 1 1 3 1 4 1 1 3 2 2 4 0 1 3 1 1 3 2 2 4 2 0 3 1 2 4 0 1 3 0 1 3 1 3 2 1 1 1 2 0 3 2 1 6 2 2 4 1 1 1 1 2 4 1 1 3 1 1 3 1 1 3 2 2 4 1 1 3 1 1 3 1 1 3 1 1 3 1 1 3 1 1 3 1 1 3 1 1 3 1 1 3 0 0 2 1 1 3 1 1 3 1 1 3 2 2 4 1 1 3 2 2 4 1 1 3 1 1 3 2 2 4 1 1 3 1 1 3 0 1 3 1 1 3 23 21 8 38 31 12 46 40 16 81 68 34 81 68 34 82 69 35 82 69 35 82 69 35 81 68 34 81 68 34 81 68 34 82 69 35 82 69 35 81 68 34 81 68 34 81 68 34 81 68 34 82 69 35 82 69 35 81 68 34 80 67 33 81 68 34 83 70 36 81 68 34 81 68 34 82 69 35 81 68 34 82 69 35 81 68 34 81 68 34 82 69 35 80 67 33 81 68 34 82 69 35 82 69 35 81 68 34 82 69 35 81 68 34 
82 68 33 79 69 34 81 68 34 78 65 33 76 63 29 71 62 31 66 57 28 64 52 26 50 44 22 49 43 21 37 30 12 32 27 8 25 19 7 15 12 5 12 11 6 2 3 5 2 2 4 2 2 4 2 2 4 1 2 4 1 2 4 2 2 4 2 2 4 0 0 2 1 1 3 1 1 3 3 3 5 1 2 4 1 3 2 1 1 3 0 1 3 1 1 3 1 1 3 2 2 4 2 2 4 1 1 3 1 1 3 1 1 3 1 1 3 1 1 3 1 1 3 1 1 3 1 1 3 1 1 3 1 1 3 2 2 4 2 2 4 2 2 4 1 1 3 1 1 3 2 2 4 2 2 4 1 1 3 2 2 4 2 2 4 2 2 4 2 2 4 1 1 3 2 2 4 2 2 4 0 1 3 1 1 3 25 23 10 42 36 14 51 44 18 83 70 35 82 69 35 81 68 34 80 67 33 82 69 35 81 68 34 82 69 35 82 69 35 81 68 34 80 67 33 82 69 35 83 70 36 80 67 33 81 68 34 82 69 35 81 68 34 81 68 34 81 68 34 81 68 34 81 68 34 82 69 35 81 68 34 82 69 35 81 68 34 81 68 34 82 69 35 81 68 34 81 68 33 82 69 35 80 67 33 82 69 35 81 68 34 81 68 34 81 68 34 82 69 34 
83 70 35 84 71 36 83 69 34 82 69 35 82 69 34 77 67 32 73 63 28 71 62 31 55 48 20 55 50 21 41 34 16 37 30 11 28 22 10 17 14 7 16 13 8 2 3 7 3 2 7 1 1 3 2 2 4 0 1 3 2 2 4 1 1 3 1 2 4 0 1 3 1 1 3 1 1 3 1 1 3 2 2 4 2 2 2 0 0 2 2 2 4 1 1 1 0 1 3 1 1 3 1 1 3 2 2 2 2 2 4 1 1 3 1 1 3 2 2 4 2 2 4 2 2 4 1 1 3 3 3 5 2 2 4 1 1 3 1 1 3 1 1 3 1 1 3 1 1 3 1 1 3 1 1 3 2 2 4 1 1 3 1 1 3 1 1 3 2 2 4 1 1 3 1 1 3 0 0 2 2 2 4 1 2 4 27 24 9 43 37 15 53 46 20 83 70 35 82 69 34 82 69 35 82 69 35 82 69 35 81 68 34 80 67 33 82 69 35 81 68 34 81 68 34 81 68 34 81 68 34 81 68 34 83 70 36 82 69 35 82 69 35 81 68 34 81 68 34 81 68 34 80 67 33 82 69 35 81 68 34 82 69 35 81 68 34 81 68 34 82 69 35 82 69 35 82 69 34 81 68 34 82 69 35 81 68 34 81 68 34 80 67 33 81 68 34 82 69 34 
83 70 35 82 69 34 84 69 36 83 70 36 82 69 35 82 69 35 80 67 35 79 66 34 75 62 30 72 61 29 66 57 28 64 55 26 57 50 24 52 46 22 51 43 22 38 32 16 37 31 15 28 22 10 24 20 9 17 14 7 7 6 4 7 6 2 2 1 6 1 2 4 3 1 6 1 1 3 2 2 4 1 1 3 1 1 3 1 1 3 2 2 4 2 2 4 0 1 3 1 1 3 1 1 3 0 1 3 1 1 3 2 2 4 1 1 3 2 2 4 2 2 4 1 1 3 2 2 4 2 2 4 2 2 4 1 1 3 1 1 3 1 1 3 1 1 3 1 1 3 1 1 3 1 1 3 0 0 2 0 0 2 1 1 3 1 1 3 0 0 2 1 1 3 1 1 3 1 1 3 1 2 4 1 1 3 30 26 14 47 41 19 55 47 26 83 70 35 83 70 35 82 69 35 81 68 34 81 68 34 81 68 34 82 69 35 81 68 34 81 68 34 82 69 35 81 68 34 81 68 34 81 68 34 82 69 35 82 69 35 82 69 35 81 68 34 81 68 34 82 69 35 83 70 36 81 68 34 81 68 34 81 68 34 81 68 34 81 68 34 81 68 34 81 68 34 82 69 35 81 68 34 81 68 34 81 68 33 81 68 33 82 69 35 81 68 34 81 68 34 
82 69 35 80 70 34 83 70 35 83 70 35 83 70 35 83 70 35 82 69 35 83 70 36 84 70 35 83 70 35 82 69 35 79 69 34 79 66 34 73 62 30 70 61 30 56 49 21 56 49 23 41 35 13 35 30 11 26 23 8 12 9 4 10 9 4 2 1 6 1 2 6 2 1 6 1 2 4 1 1 3 1 1 3 1 0 5 1 1 3 1 2 4 1 2 4 2 2 4 1 1 3 2 2 2 1 1 3 1 1 3 2 2 4 1 1 3 1 1 3 1 1 3 1 1 3 1 1 3 1 1 3 1 1 3 2 2 4 2 2 4 2 2 4 1 1 3 1 1 3 2 2 4 2 2 4 2 2 4 1 1 3 1 1 3 1 1 3 1 1 3 2 2 4 1 1 3 1 1 3 1 1 3 1 2 4 33 27 15 48 42 20 57 49 26 83 70 35 82 69 34 82 69 35 81 68 34 81 68 34 81 68 34 82 69 35 81 68 34 81 68 34 80 67 33 81 68 34 81 68 34 82 69 35 81 68 34 81 68 34 82 69 35 82 69 35 81 68 34 81 68 34 81 68 34 82 69 35 79 66 32 81 68 34 81 68 34 82 69 35 81 68 34 82 69 35 82 69 35 79 66 32 81 68 34 83 70 35 82 69 34 81 68 34 81 68 34 81 68 34 
83 70 35 83 70 35 83 70 35 83 70 35 83 68 35 83 70 35 84 71 37 83 70 35 83 69 34 83 70 35 81 68 34 80 70 35 78 68 33 76 65 33 73 64 31 63 53 26 64 55 26 50 42 19 48 40 19 40 33 15 26 22 10 27 23 11 14 13 9 14 13 9 11 10 8 8 7 3 10 6 5 3 3 5 5 3 4 2 2 2 2 2 4 0 1 3 1 1 1 1 2 4 1 3 2 2 2 0 1 1 3 1 1 3 1 1 3 1 1 3 1 1 3 2 2 4 1 1 3 1 1 3 1 1 3 1 1 3 1 1 3 1 1 3 0 0 2 1 1 3 1 1 3 1 1 3 1 1 3 2 2 4 1 1 3 2 2 4 2 2 4 1 1 3 2 2 4 2 2 4 2 2 4 1 2 4 31 27 15 48 42 20 59 49 24 82 69 34 82 69 35 81 68 34 81 68 34 81 68 34 82 69 35 80 67 33 82 69 35 82 69 35 81 68 34 81 68 34 82 69 35 80 67 33 80 67 33 82 69 35 82 69 35 81 68 34 81 68 34 81 68 34 82 69 35 81 68 34 82 69 35 81 68 34 80 67 33 82 69 35 81 68 34 81 68 34 81 68 34 81 68 34 82 69 35 82 69 35 81 68 34 81 68 34 82 69 35 81 68 34 
83 70 36 82 69 35 84 69 36 82 69 35 82 69 35 83 70 35 81 68 34 83 70 35 84 70 35 83 70 36 84 69 36 82 69 35 82 67 34 83 68 35 82 69 35 82 69 35 84 70 35 82 67 34 82 69 35 78 68 33 73 62 30 73 65 29 56 49 21 56 49 21 41 34 15 28 25 10 26 20 6 12 9 4 10 9 4 2 2 2 2 2 4 1 2 4 1 1 3 0 1 3 0 1 3 0 1 3 1 1 3 0 0 2 1 1 3 2 2 4 2 2 4 1 1 3 2 2 4 3 3 5 1 1 3 1 1 3 2 2 4 2 2 4 2 2 4 1 1 3 1 1 3 1 1 3 1 1 3 1 1 3 1 1 3 1 1 3 1 1 3 1 1 3 2 2 4 1 1 3 1 1 3 1 2 4 31 27 16 49 42 23 57 49 26 82 67 34 82 69 37 80 67 33 81 68 34 81 68 34 81 68 34 82 69 35 80 67 33 81 68 34 81 68 34 81 68 34 81 68 34 81 68 34 81 68 34 80 67 33 82 69 35 80 67 33 82 69 35 81 68 34 82 69 35 81 68 34 81 68 34 81 68 34 82 69 35 81 68 34 81 68 34 81 68 34 82 69 35 82 69 35 80 67 33 80 67 33 81 68 34 81 68 34 81 68 34 81 68 34 
84 71 36 82 69 35 82 69 35 83 69 34 82 69 35 81 71 36 83 70 35 83 69 34 82 69 35 83 70 35 83 70 35 83 68 35 83 70 35 82 69 35 82 67 34 83 70 36 83 70 35 81 68 33 80 67 35 78 68 33 72 63 30 72 63 30 56 49 23 55 48 22 41 34 15 29 26 11 25 21 9 10 9 5 10 9 4 3 3 1 1 0 5 1 0 5 1 1 3 2 0 5 0 3 4 1 1 3 1 2 4 0 2 1 1 1 3 2 2 4 1 3 2 1 1 3 1 1 3 1 1 3 1 1 3 2 2 4 1 1 3 1 1 3 1 1 3 2 2 4 2 2 4 1 1 3 1 1 3 1 1 3 2 2 4 1 1 3 1 1 3 1 1 3 1 1 3 2 2 4 1 1 3 2 2 4 30 26 14 48 41 22 57 49 26 83 68 35 83 70 36 82 69 35 80 67 33 81 68 34 81 68 34 82 69 35 81 68 34 81 68 34 81 68 34 81 68 34 82 69 35 80 67 33 80 67 33 81 68 34 80 67 33 81 68 34 80 70 35 81 68 34 82 69 35 80 67 33 82 69 35 81 68 34 80 67 33 80 67 33 82 69 35 80 67 33 80 67 33 81 68 34 81 68 34 80 67 33 81 68 34 80 67 33 82 69 35 82 69 35 
64 55 26 75 64 32 74 63 31 81 68 33 84 69 36 83 70 36 83 70 35 82 69 35 83 70 35 82 69 35 83 70 36 81 68 34 83 70 35 82 69 35 82 69 35 82 69 35 82 69 35 83 70 35 83 68 37 82 69 34 81 68 34 81 68 34 80 67 33 80 67 32 75 65 30 75 64 32 72 62 27 66 56 29 64 57 28 47 40 21 41 36 17 35 29 15 25 21 9 23 21 8 9 8 3 9 8 4 3 3 3 0 1 3 0 1 3 1 1 3 1 1 3 1 1 3 1 2 4 1 3 2 1 1 3 1 1 3 2 2 4 2 2 4 1 1 3 2 2 4 1 1 3 0 0 2 1 1 3 2 2 4 1 1 3 2 2 4 1 1 3 1 1 3 2 2 4 1 1 3 2 2 2 2 0 5 27 24 9 43 37 15 53 46 20 82 69 34 83 70 35 80 67 33 81 68 34 81 68 34 81 68 34 81 68 34 81 68 34 81 68 34 81 68 34 81 68 34 80 67 33 81 68 34 81 68 34 81 68 34 81 68 34 81 68 34 81 68 34 81 68 34 81 68 34 82 69 35 81 68 34 82 69 35 82 69 35 81 68 34 81 68 34 80 67 33 82 69 35 82 69 35 81 68 34 81 68 34 81 68 34 81 68 34 81 68 34 82 69 35 
60 53 24 72 63 30 73 64 31 82 67 34 83 70 35 83 70 35 81 68 34 82 69 35 82 69 35 83 70 35 82 69 35 83 70 35 83 68 35 83 68 35 83 68 35 82 69 34 82 69 35 83 70 36 82 69 35 82 69 34 82 69 35 83 70 36 83 70 35 82 69 35 82 69 35 78 68 33 78 67 35 73 64 33 73 64 31 52 46 24 49 43 21 37 34 15 30 24 10 26 23 8 8 7 3 12 8 5 3 3 3 2 2 4 2 2 4 1 1 3 0 1 3 2 2 4 0 2 1 1 3 2 1 1 3 2 2 4 1 1 3 1 1 3 0 0 2 1 1 3 2 2 4 2 2 4 1 1 3 2 2 4 1 1 3 2 2 4 1 1 3 1 1 3 1 1 3 2 2 4 1 1 3 3 1 4 26 23 8 43 37 15 52 45 19 82 69 34 82 69 35 81 68 34 81 68 34 81 68 34 80 67 33 81 68 34 82 69 35 81 68 34 81 68 34 81 68 34 81 68 34 80 67 33 81 68 34 82 69 35 82 69 35 81 68 34 81 68 34 82 69 35 82 69 35 81 68 34 82 69 35 80 67 33 81 68 34 81 68 34 81 68 34 81 68 34 81 68 34 81 68 34 80 67 33 82 69 35 81 68 34 81 68 34 82 69 35 82 69 35 
32 29 14 45 39 17 43 38 18 57 47 20 57 50 21 65 56 25 70 59 31 70 59 29 77 67 32 77 67 32 80 67 33 82 69 35 81 68 33 82 69 35 82 69 35 83 70 36 82 69 34 82 69 34 82 69 35 82 69 35 82 69 35 83 70 35 81 68 36 82 69 35 81 68 34 81 68 34 78 68 33 76 65 33 78 68 33 66 56 29 66 56 29 59 52 24 54 46 23 52 46 22 38 32 16 39 33 17 24 22 9 19 16 7 11 10 6 1 2 4 1 2 4 1 1 3 1 1 3 2 2 4 1 1 3 2 2 4 2 2 4 1 1 3 1 1 3 1 1 3 1 1 3 1 1 3 1 1 3 2 2 4 1 1 3 2 2 4 1 1 3 1 1 3 1 1 3 1 1 3 0 1 3 1 2 4 24 20 8 36 31 12 47 41 17 79 69 34 81 68 34 81 68 34 81 68 34 81 68 34 81 68 34 81 68 34 82 69 35 81 68 34 80 67 33 80 67 33 81 68 34 81 68 34 81 68 34 79 69 34 81 68 34 80 67 33 77 67 32 81 68 34 81 68 34 81 68 34 81 68 34 81 68 34 80 67 33 81 68 34 80 67 33 81 68 34 81 68 34 81 68 34 79 69 34 81 68 34 79 69 34 81 68 34 81 68 34 80 67 33 
7 6 4 17 14 5 17 14 5 35 28 10 38 31 12 46 38 17 56 49 21 57 50 21 72 63 32 72 63 30 81 68 34 83 70 36 82 69 35 83 70 36 82 69 35 82 69 35 83 70 36 81 68 34 83 70 36 82 69 35 82 69 35 82 69 35 81 68 34 83 70 35 81 68 34 83 71 33 82 68 33 82 69 35 83 70 36 81 68 34 80 70 35 79 69 34 81 68 34 78 68 33 65 56 27 66 57 28 42 35 16 37 32 12 22 20 7 1 1 3 2 1 6 1 0 5 2 2 4 1 1 3 1 1 3 1 1 3 1 1 3 1 1 3 1 1 3 2 2 4 2 2 4 1 1 3 1 1 3 1 1 3 1 1 3 1 1 3 2 2 4 1 1 3 2 2 4 1 1 3 2 2 4 0 1 3 19 16 7 30 24 8 42 35 16 81 68 34 82 69 35 79 69 34 81 68 34 81 68 34 81 68 34 80 67 33 81 68 34 81 68 34 80 67 33 81 68 34 80 67 33 79 69 34 79 66 32 80 67 33 80 70 35 82 69 35 79 69 34 79 69 34 80 67 33 81 68 34 81 68 34 81 68 34 82 69 35 80 67 33 80 67 33 81 68 34 81 68 34 79 69 34 82 69 35 79 69 34 81 68 34 79 69 34 82 69 35 81 68 34 
5 5 3 14 11 4 15 12 3 29 26 11 32 26 10 42 35 16 49 43 19 51 45 19 66 57 28 65 56 25 74 63 31 75 64 32 76 65 33 80 67 35 77 67 32 79 69 34 78 68 33 81 68 34 82 69 35 83 70 36 82 69 34 82 69 35 82 69 34 83 70 35 82 69 35 81 68 33 82 69 34 82 69 34 82 70 32 82 70 32 82 69 35 81 68 36 78 68 33 77 67 32 66 57 28 67 58 29 49 43 19 41 34 15 28 25 10 6 4 7 5 3 6 1 2 4 1 1 3 2 2 2 2 2 4 1 1 3 2 2 4 1 1 3 1 1 3 2 2 4 1 1 3 1 1 3 2 2 4 1 1 3 1 1 3 1 1 3 2 2 4 1 1 3 2 2 4 1 1 3 1 1 3 2 2 2 18 15 6 28 25 10 41 34 15 78 68 33 78 68 33 79 69 34 78 68 33 79 69 34 79 69 34 79 69 34 79 69 34 79 69 34 79 69 34 79 69 34 81 68 34 79 69 34 82 69 35 82 69 35 79 69 34 80 67 33 80 67 33 81 68 34 81 68 34 81 68 34 81 68 34 80 67 33 81 68 34 82 69 35 80 67 33 82 69 35 80 70 35 81 68 34 79 69 34 81 68 34 79 69 34 80 67 33 79 69 34 80 67 33 
1 0 5 2 2 4 2 2 4 2 2 4 1 2 4 2 2 4 3 3 5 5 4 9 17 14 5 17 14 5 32 26 10 36 31 11 46 40 18 56 49 21 56 49 20 72 63 30 72 63 30 81 68 34 82 69 35 82 68 33 82 69 34 81 68 34 82 69 35 82 69 35 81 68 34 79 69 34 80 67 33 79 69 34 79 69 34 81 68 34 81 68 34 81 68 34 81 68 34 80 67 33 83 70 36 84 70 33 81 68 34 81 68 34 61 51 26 30 24 8 28 25 10 1 1 3 1 1 3 2 2 4 1 1 3 2 2 4 1 1 3 1 1 3 2 2 4 1 1 3 2 2 4 1 1 3 1 1 3 2 2 4 1 1 3 1 1 3 2 2 4 1 1 3 2 2 4 1 1 3 1 1 3 3 1 4 16 12 9 22 18 6 37 30 12 73 62 30 72 63 32 79 69 34 81 68 34 81 68 34 81 68 34 81 68 34 81 68 34 81 68 34 80 67 33 81 68 34 80 70 35 81 68 34 81 68 34 79 69 34 81 68 34 81 68 34 79 69 34 80 67 33 78 68 33 79 69 34 78 68 33 79 69 34 79 69 34 79 69 34 80 70 35 78 68 33 78 68 33 78 68 33 81 68 34 78 68 33 81 68 34 78 68 33 78 68 33 80 70 35 
2 2 4 2 2 4 1 1 3 1 3 2 1 2 4 3 2 7 3 3 5 4 4 4 17 14 5 17 14 5 33 27 11 37 30 11 45 41 16 55 48 20 58 51 23 72 63 30 73 62 30 80 67 32 81 68 34 83 70 35 83 69 34 82 69 35 82 69 35 82 69 35 79 69 33 79 69 34 80 67 35 78 67 35 79 69 34 81 68 34 81 68 34 81 68 34 79 69 34 79 69 34 82 69 35 83 68 35 80 67 35 79 69 33 61 51 24 31 25 11 28 25 8 0 1 3 0 1 5 2 2 4 1 1 3 1 1 3 2 2 4 1 1 3 1 1 3 1 1 3 2 2 4 1 1 3 2 2 4 1 1 3 1 1 3 1 1 3 1 1 3 2 2 4 1 1 3 1 1 3 1 2 4 1 1 3 15 12 5 23 19 7 37 32 13 73 64 33 73 64 31 78 68 32 78 68 33 78 68 33 78 68 33 79 69 34 79 69 34 78 68 33 79 69 34 79 69 34 82 69 35 79 69 34 79 69 34 81 68 34 78 68 33 78 68 33 81 68 34 79 69 34 78 68 33 78 68 33 78 68 33 79 69 34 78 68 33 79 69 34 79 69 34 79 69 34 79 69 34 80 70 35 79 69 34 79 69 34 78 68 33 79 69 34 79 69 34 80 70 35 
0 0 2 2 2 4 1 1 3 1 1 3 0 1 3 1 1 3 2 2 4 3 3 3 5 5 5 5 5 3 8 7 5 10 9 7 12 11 7 15 14 9 18 15 10 30 27 12 31 25 11 45 37 16 48 40 17 55 45 20 63 53 26 62 52 25 75 64 32 76 65 33 77 67 32 81 68 34 79 69 34 80 70 35 82 69 35 80 70 35 81 68 36 80 70 34 78 68 33 81 68 34 79 69 34 79 69 34 83 70 35 83 68 35 68 57 29 43 38 19 45 38 19 0 0 2 1 1 3 0 0 2 0 0 2 1 1 3 1 1 3 2 2 4 1 1 3 1 1 3 2 2 4 1 1 3 1 1 3 1 1 3 0 0 2 1 1 3 1 1 3 1 1 3 1 1 3 1 1 3 0 1 5 1 1 3 10 9 5 12 12 4 27 23 11 68 59 30 66 56 29 83 70 36 80 70 35 79 69 34 82 69 35 81 68 34 81 68 34 81 68 34 78 68 33 79 69 34 81 68 33 78 68 33 80 67 33 81 68 33 79 69 34 81 68 34 81 68 34 79 69 34 81 68 34 81 68 34 80 67 33 81 68 34 81 68 34 80 67 33 78 68 33 78 68 33 79 69 34 79 69 34 79 69 34 80 67 33 78 68 33 79 69 34 79 69 34 78 68 33 
1 1 3 2 2 4 2 2 4 1 1 3 1 1 3 1 1 3 1 1 3 1 1 3 1 1 3 1 1 3 1 1 3 1 1 3 3 3 5 4 4 6 4 4 4 17 14 7 16 13 6 32 26 10 36 31 11 44 38 16 58 48 23 55 48 20 72 63 30 72 63 30 78 68 33 80 67 33 79 69 34 82 69 35 82 69 35 82 69 34 80 70 35 81 68 33 80 67 33 78 68 33 82 69 35 79 69 34 80 70 35 80 70 35 70 59 29 47 40 21 49 41 20 2 1 6 1 1 3 1 0 5 1 1 3 2 2 4 1 1 3 1 1 3 1 1 3 1 1 3 2 2 4 1 1 3 1 1 3 1 1 3 1 1 3 1 1 3 1 1 3 2 2 4 1 1 3 1 1 3 1 2 4 1 1 3 7 6 4 11 10 6 25 21 10 63 56 27 64 57 28 82 69 34 82 69 35 81 68 34 78 68 33 77 67 32 79 69 34 78 68 33 79 69 34 79 69 34 81 68 33 78 68 33 78 68 33 81 68 33 79 69 34 78 68 33 80 67 33 81 68 34 78 68 33 78 68 33 80 67 33 81 68 34 80 67 33 80 67 33 80 67 33 81 68 34 79 69 34 79 69 34 78 68 33 79 69 34 79 69 34 78 68 33 79 69 34 81 68 34 
2 2 4 1 1 3 2 2 4 1 1 3 2 2 4 2 2 4 2 2 4 2 2 4 1 1 3 2 2 4 2 2 4 1 1 3 1 1 3 2 2 4 3 3 3 11 10 6 10 9 5 19 16 7 23 21 9 28 24 12 35 32 15 37 31 17 52 44 21 50 44 22 58 51 23 63 54 23 67 56 28 71 60 28 71 60 30 77 67 32 80 67 33 81 68 34 80 67 33 81 68 33 80 67 33 81 68 33 82 69 35 83 70 36 68 59 28 46 40 18 46 40 18 1 3 2 1 1 3 1 2 4 1 1 3 2 2 4 1 1 3 1 1 3 2 2 4 1 1 3 0 0 2 1 1 3 1 1 3 1 1 3 1 1 3 3 3 5 2 2 4 2 2 4 1 1 3 1 1 3 1 1 3 1 1 3 5 4 2 7 6 4 20 17 8 58 51 25 58 51 25 82 69 35 82 69 34 81 68 33 78 68 33 79 69 34 79 69 34 78 70 34 78 68 33 78 68 33 79 69 34 81 68 34 81 68 34 79 69 34 78 68 33 80 67 33 80 67 33 79 69 34 79 69 34 78 68 33 81 68 34 81 68 34 80 67 33 81 68 34 80 67 33 80 67 33 78 68 33 78 68 33 78 68 33 80 67 33 79 69 34 81 68 34 79 69 34 79 69 34 
1 1 3 2 2 4 1 1 3 0 0 2 1 1 3 2 2 4 2 2 4 1 1 3 2 2 4 2 2 4 1 1 3 1 1 3 1 1 3 2 2 2 1 3 2 1 1 1 2 2 4 0 1 3 1 2 4 2 2 4 3 3 5 3 3 5 17 14 5 18 13 7 29 23 9 36 31 12 40 34 12 56 49 21 55 48 20 71 62 31 72 61 31 76 65 33 82 69 34 83 70 35 82 69 34 82 69 34 81 68 34 82 69 35 68 57 27 42 36 14 43 35 14 1 1 3 1 1 3 2 0 3 1 1 3 2 2 4 1 1 3 0 0 2 1 1 3 1 1 3 2 2 4 2 2 4 1 1 3 2 2 4 1 1 3 1 1 3 1 1 3 1 1 3 1 1 3 1 1 3 1 1 3 2 2 4 1 1 3 2 2 4 14 10 7 48 43 21 47 41 19 81 68 34 83 68 35 81 68 34 79 69 34 78 68 33 79 69 34 80 67 33 79 69 34 78 68 33 80 67 33 78 68 33 78 68 33 80 67 33 81 68 34 79 69 34 79 69 34 80 67 33 81 68 34 80 67 33 80 67 33 81 68 34 80 67 33 81 68 34 78 68 33 78 68 33 81 68 34 80 67 33 79 69 34 79 69 34 79 69 34 81 68 34 79 69 34 81 68 34 
2 2 4 1 1 3 1 1 3 1 1 3 1 1 3 1 1 3 2 2 4 1 1 3 1 1 3 2 2 4 1 2 4 0 1 3 1 1 3 2 2 2 1 2 4 0 0 2 1 1 3 2 2 4 1 2 4 2 2 2 3 3 5 4 4 6 17 14 5 17 14 5 30 24 10 35 30 10 42 36 14 54 49 20 55 48 20 70 61 28 72 61 29 76 65 33 82 69 34 82 69 35 80 67 33 82 69 34 81 68 34 83 70 36 66 57 26 43 37 15 43 35 14 0 1 3 2 2 4 1 1 1 1 1 3 1 1 3 1 1 3 2 2 4 2 2 4 1 1 3 2 2 4 1 1 3 2 2 4 1 1 3 1 1 3 1 1 3 1 1 3 1 1 3 1 1 3 1 1 3 1 1 3 0 2 1 0 1 3 2 2 4 12 11 7 49 43 21 48 41 22 82 69 35 81 68 33 81 68 33 80 67 33 81 68 34 80 67 33 81 68 34 81 68 34 79 66 32 81 68 34 79 69 34 78 68 33 80 67 33 81 68 34 79 69 34 80 70 35 80 67 33 80 67 33 80 67 33 80 67 33 81 68 34 80 67 33 80 67 33 79 69 34 79 69 34 78 68 33 81 68 34 78 68 33 81 68 34 80 67 33 81 68 34 78 68 33 78 68 33 
1 1 3 1 1 3 1 1 3 1 1 3 1 2 4 2 2 4 1 1 3 1 1 3 1 1 3 1 1 3 1 1 3 3 3 5 1 1 3 1 1 3 1 1 3 1 1 3 1 1 3 2 2 4 1 3 2 1 1 3 1 2 4 0 0 2 1 1 3 1 1 3 2 2 4 1 2 4 2 2 4 3 3 5 3 3 5 15 12 5 16 13 6 33 27 15 48 41 22 51 45 23 72 63 30 71 62 29 67 58 29 63 56 28 47 40 21 17 14 7 17 14 5 0 1 3 1 1 3 2 2 4 2 2 4 1 1 3 1 1 3 1 1 3 0 0 2 1 1 3 2 2 4 1 1 3 2 2 4 2 2 4 1 1 3 1 1 3 1 1 3 2 2 4 2 2 4 2 2 4 2 2 4 1 1 3 1 2 4 1 2 4 7 5 6 23 19 8 22 18 7 79 69 34 78 67 35 80 67 35 81 68 34 80 67 33 81 68 34 80 67 33 80 67 33 80 67 33 79 69 34 82 69 35 81 68 34 79 69 34 77 67 32 80 67 33 80 67 33 78 68 33 78 68 33 78 68 33 80 67 33 81 68 34 81 68 34 80 67 33 80 67 33 80 67 33 80 67 33 81 68 34 79 69 34 80 67 33 78 68 33 80 67 33 80 67 33 79 66 32 
2 2 4 1 1 3 1 1 3 2 2 4 1 2 4 0 1 3 0 0 2 1 1 3 1 1 3 1 1 3 1 1 3 3 3 5 1 1 3 0 1 3 1 1 3 1 1 3 3 3 5 1 1 3 2 2 4 1 1 3 0 1 3 1 1 3 2 2 4 2 2 4 2 2 4 1 2 4 3 3 5 3 3 3 4 4 4 13 12 7 17 14 7 33 27 15 48 41 22 52 46 22 72 63 30 73 62 30 67 58 29 63 56 27 47 40 21 16 14 2 17 14 7 1 1 3 1 1 3 1 1 1 1 1 3 1 1 3 0 0 2 2 2 4 2 2 4 1 1 3 2 2 4 1 1 3 2 2 4 2 2 4 1 1 3 3 3 5 2 2 4 2 2 4 2 2 4 2 2 4 1 1 3 1 2 4 0 1 3 1 0 5 6 6 4 23 19 7 22 18 6 79 69 34 78 67 35 77 67 32 78 70 34 80 70 35 78 68 33 79 69 34 81 68 34 80 67 33 80 67 35 80 67 33 78 68 33 78 67 35 80 67 33 78 68 33 78 68 33 80 67 33 79 69 34 78 68 33 80 67 33 80 67 33 81 68 34 80 67 33 81 68 34 81 68 34 78 68 33 80 67 33 81 68 34 79 66 32 81 68 34 80 67 33 80 67 33 80 67 33 
1 1 3 1 1 3 1 1 3 2 2 4 1 1 3 1 1 3 1 1 3 1 1 3 1 1 3 2 2 4 1 2 4 0 2 3 0 1 3 0 1 3 1 1 3 1 1 3 0 0 2 2 2 4 0 0 2 1 1 3 1 2 4 2 2 4 1 3 2 1 1 3 1 1 3 0 1 3 2 2 4 1 2 4 2 3 5 6 5 3 7 6 2 14 11 6 19 16 7 22 19 12 35 29 15 34 28 14 32 26 12 30 26 14 23 19 10 6 6 4 7 6 2 2 2 2 1 1 3 2 2 4 2 2 4 2 2 4 1 1 3 1 1 3 2 2 4 1 1 3 1 1 3 1 1 3 1 1 3 1 1 3 2 2 4 2 2 4 2 2 4 2 2 4 1 1 3 0 0 2 1 1 3 1 1 3 1 1 1 0 0 2 3 3 3 12 9 4 12 8 5 66 57 26 66 57 26 74 63 31 81 68 34 81 68 34 78 68 33 78 68 33 79 69 34 80 67 33 78 67 35 80 67 33 81 68 34 78 67 35 81 68 34 82 69 35 79 69 34 81 68 34 80 67 33 80 67 33 81 68 34 80 67 33 81 68 34 80 67 33 78 68 33 78 68 33 80 67 33 80 67 33 80 67 33 81 68 34 78 68 33 81 68 34 81 68 34 81 68 34 
1 1 3 1 1 3 1 1 3 1 1 3 1 1 3 1 1 3 1 1 3 1 1 3 1 1 3 1 1 3 1 1 3 1 1 3 1 1 3 2 2 4 1 1 3 2 2 4 1 1 3 1 1 3 1 1 3 1 1 3 1 1 3 2 2 4 1 1 3 1 1 3 2 2 4 2 2 4 1 1 3 2 2 4 1 1 3 0 0 2 1 2 4 2 2 2 1 2 4 2 4 3 10 9 4 10 10 2 12 9 4 12 9 4 8 6 7 2 0 3 1 1 3 2 2 4 1 2 4 0 3 4 1 1 3 1 1 3 2 2 4 1 1 3 1 1 3 2 2 4 2 2 4 2 2 4 1 1 3 1 1 3 2 2 4 1 1 3 1 1 3 2 2 4 1 1 3 1 1 3 2 2 4 1 1 3 1 1 3 1 1 3 2 2 2 3 3 5 4 4 4 55 48 20 55 48 22 70 61 30 82 69 34 82 67 34 78 68 32 80 67 33 79 69 34 78 70 34 81 68 34 77 67 32 80 67 33 78 68 33 81 68 34 79 69 34 78 68 33 81 68 34 78 68 33 80 67 33 78 68 33 79 66 32 81 68 34 78 68 33 81 68 34 81 68 34 80 67 33 80 67 33 80 67 33 78 68 33 80 67 33 80 67 33 80 67 33 77 67 32 
1 2 4 1 2 4 1 2 4 1 2 4 1 1 3 2 2 4 2 2 4 1 1 3 1 1 3 2 2 4 2 2 4 1 1 3 1 1 3 2 2 4 1 1 3 1 1 3 2 2 4 1 1 3 2 2 4 1 1 3 1 1 3 1 1 3 1 1 3 1 1 3 1 1 3 1 1 3 1 1 3 1 1 3 1 3 2 2 2 2 2 4 3 1 3 2 1 1 3 2 2 2 8 7 3 8 7 3 8 7 5 8 7 3 4 4 2 1 1 3 0 1 3 1 1 1 3 3 3 1 1 3 1 1 3 2 2 4 2 2 4 1 1 3 1 1 3 1 1 3 1 1 3 2 2 4 1 1 3 1 1 3 1 1 3 2 2 4 2 2 4 1 1 3 1 1 3 1 1 3 1 3 2 2 2 4 1 0 5 1 1 3 2 2 2 3 3 5 2 1 6 48 40 19 46 40 16 64 57 28 79 66 32 80 67 33 80 67 33 78 68 33 80 67 33 78 68 33 80 67 33 78 68 33 79 69 34 81 68 34 80 67 33 79 69 34 79 69 34 81 68 34 80 67 33 78 68 33 80 67 33 80 67 33 80 67 33 80 67 33 80 67 33 80 67 33 78 68 33 80 67 33 80 67 33 81 68 34 78 68 33 80 67 33 80 67 33 80 67 33 
