P3
100 50
255
9 11 32 9 11 32 9 12 31 10 12 33 9 11 32 10 11 31 9 11 32 9 12 31 8 11 30 9 12 31 9 11 32 9 12 31 9 11 32 11 13 36 11 13 34 17 20 53 21 23 62 23 28 70 34 37 88 33 36 89 38 40 97 38 40 97 36 38 95 36 39 92 33 36 89 23 28 66 24 27 68 14 17 48 11 15 42 11 13 36 10 11 31 9 10 30 9 11 32 10 12 35 10 12 33 10 11 32 9 11 32 9 11 32 9 11 32 9 11 32 9 11 32 9 11 32 9 11 32 9 11 32 9 12 31 9 11 32 9 11 32 9 11 32 9 12 31 9 12 31 9 12 31 9 12 31 9 11 34 8 11 30 9 12 31 10 12 33 9 12 31 8 11 30 9 12 31 8 11 30 9 12 31 9 11 32 9 12 31 10 11 32 10 11 32 8 10 31 8 11 30 9 14 34 10 14 41 12 16 43 24 28 66 24 27 68 32 35 86 35 38 91 36 37 94 38 40 99 37 39 98 31 34 85 33 36 87 24 27 68 20 23 58 17 20 53 8 13 35 11 13 38 9 11 32 9 11 32 9 11 32 9 11 32 9 11 32 9 11 32 9 11 32 9 11 32 9 11 32 9 11 32 9 11 32 9 11 32 9 11 32 9 11 32 9 11 32 9 11 32 
9 11 32 9 12 31 8 10 31 9 11 32 9 12 31 9 12 31 10 13 32 10 11 32 8 11 30 9 11 32 12 14 37 15 19 46 14 18 45 29 31 79 29 31 79 34 37 90 38 41 94 38 40 99 38 40 97 36 41 97 30 34 82 28 32 80 22 26 64 16 20 49 15 19 48 9 12 29 9 11 32 8 10 31 9 11 32 9 11 32 9 11 32 9 11 32 9 11 32 9 11 32 9 11 32 10 11 32 9 11 32 9 11 32 9 11 32 9 11 32 9 11 32 9 11 32 9 11 32 9 11 32 9 11 32 9 11 32 9 11 32 9 11 32 9 12 31 9 12 31 9 12 31 9 12 31 7 12 31 9 11 32 9 10 31 8 11 30 10 11 29 9 12 31 8 10 31 9 11 32 9 12 31 9 12 31 10 13 32 7 12 32 10 12 33 16 19 52 17 20 53 24 27 68 31 35 83 32 35 86 38 41 96 37 39 96 34 39 94 35 38 93 33 36 87 26 29 72 26 29 72 12 16 43 14 15 43 11 13 36 8 10 31 9 12 31 9 12 31 9 11 32 9 11 32 9 11 32 9 11 32 9 11 32 9 11 32 9 11 32 9 11 32 9 11 32 9 11 32 9 11 32 9 11 32 9 11 32 9 11 32 9 11 32 9 11 32 9 11 32 
9 11 32 9 11 32 9 12 29 9 12 31 9 12 31 9 12 31 9 11 32 10 11 32 9 11 32 9 11 32 14 14 38 14 18 47 14 18 47 29 31 80 29 31 79 34 37 90 38 41 96 38 40 97 38 40 97 37 39 96 29 32 83 31 33 81 23 27 65 16 20 49 17 18 48 8 10 33 9 11 32 9 11 32 9 12 31 9 12 31 9 11 32 9 11 32 9 11 32 9 11 32 9 11 32 9 11 32 9 11 32 9 11 32 9 11 32 9 11 32 9 11 32 9 11 32 9 11 32 9 11 32 9 12 31 9 11 32 9 12 31 9 11 32 9 11 34 9 12 31 9 11 32 9 12 31 9 11 32 9 11 32 9 12 31 11 9 30 9 10 30 11 12 32 8 11 30 9 12 31 12 10 32 10 13 32 9 12 31 9 11 32 10 12 33 16 19 50 18 21 52 24 27 68 30 34 82 31 34 85 40 42 99 37 39 96 38 40 97 35 38 93 33 36 87 27 30 73 26 29 72 11 17 43 13 17 44 11 13 36 10 11 32 8 11 30 8 10 31 9 11 32 9 11 32 9 11 32 9 11 32 9 11 32 9 11 32 9 11 32 9 11 32 9 11 32 9 11 32 9 11 32 9 11 32 9 11 32 9 11 32 9 11 32 9 11 32 9 11 32 
9 11 32 9 12 31 9 12 31 9 11 32 8 11 30 8 11 30 11 14 33 11 13 34 15 18 49 17 20 55 22 25 60 27 30 75 26 29 74 36 39 90 36 39 90 36 39 92 33 38 93 34 35 89 28 31 76 28 31 74 18 21 54 18 21 52 16 17 47 12 14 39 12 14 35 9 12 31 9 11 32 9 11 32 10 12 33 9 11 32 9 11 32 9 11 32 9 11 32 9 11 32 9 11 32 9 11 32 9 11 32 9 11 32 9 11 32 9 11 32 9 11 32 9 11 32 9 11 32 9 11 32 9 11 32 9 11 32 9 12 31 9 11 32 9 11 32 9 12 31 9 12 31 9 12 31 8 10 31 9 11 32 10 11 31 9 12 31 9 10 30 8 10 31 9 10 30 8 11 30 10 12 35 12 14 39 14 15 43 19 22 57 18 22 57 29 32 77 29 31 79 32 35 86 36 39 92 35 38 93 33 36 89 34 37 90 27 30 75 25 28 69 22 24 63 16 20 49 16 19 50 10 12 35 11 13 36 9 11 32 9 11 32 9 11 32 9 11 32 9 11 32 9 11 32 9 11 32 9 11 32 9 11 32 9 11 32 9 11 32 9 11 32 9 11 32 9 11 32 9 11 32 9 11 32 9 11 32 9 11 32 9 11 32 9 11 32 9 11 32 
8 10 31 8 11 30 8 11 30 9 12 31 9 12 31 8 11 30 13 15 38 13 15 38 20 23 58 23 27 65 26 29 74 36 39 94 35 38 93 39 41 98 37 42 98 36 39 94 32 37 92 33 35 86 21 25 62 23 25 63 14 16 39 12 14 37 10 13 32 8 11 30 8 11 30 9 12 31 8 10 31 8 10 31 9 11 32 9 11 32 9 11 32 9 11 32 9 11 32 9 11 32 9 11 32 9 12 31 9 11 32 9 11 32 9 11 32 9 11 32 9 11 32 9 11 32 9 11 32 9 11 32 9 12 31 9 12 31 9 12 31 9 11 32 9 11 32 9 12 31 9 11 32 9 11 32 9 12 31 9 11 32 9 11 32 9 12 31 9 12 31 9 12 31 8 11 30 7 10 29 13 13 37 11 15 42 15 19 48 26 28 69 25 28 71 33 36 89 36 39 94 35 40 96 35 40 96 36 38 97 32 35 86 32 35 86 23 25 64 18 21 56 17 18 48 10 12 35 10 12 35 9 11 32 9 11 32 9 11 32 10 12 33 8 10 31 8 11 30 9 11 32 9 11 32 9 11 32 9 11 32 9 11 32 9 11 32 9 11 32 9 11 32 9 11 32 9 11 32 9 11 32 9 11 32 9 11 32 9 11 32 9 11 32 9 11 32 9 11 32 
8 10 31 9 11 32 9 11 32 11 13 38 12 14 37 12 16 41 19 24 56 19 22 57 26 29 70 29 32 77 33 35 83 36 39 94 36 39 94 35 38 91 35 38 89 29 33 80 27 30 73 24 27 68 15 20 50 17 20 51 11 13 34 12 13 34 7 12 32 10 11 32 9 12 31 10 11 31 9 12 31 10 11 32 9 12 31 9 11 32 9 11 32 9 11 32 9 11 32 9 11 32 9 11 32 9 11 32 9 11 32 9 11 32 9 11 32 9 11 32 9 11 32 9 11 32 9 11 32 9 11 32 9 11 32 9 11 32 9 11 32 9 11 32 9 12 31 9 12 31 9 12 31 9 12 31 9 11 32 7 9 30 9 12 31 9 12 31 10 13 32 10 13 32 13 15 40 10 14 39 17 20 51 20 23 58 25 25 63 29 33 80 29 31 80 35 38 93 36 39 94 34 37 90 31 37 89 31 32 86 26 28 69 23 26 67 18 21 54 17 18 48 13 14 42 10 12 33 9 11 34 10 11 32 10 11 32 9 11 34 8 10 31 9 11 32 9 11 32 8 10 31 9 11 32 9 11 32 9 11 32 9 11 32 9 11 32 9 11 32 9 11 32 9 11 32 9 11 32 9 11 32 9 11 32 9 11 32 9 11 32 9 11 32 9 11 32 9 11 32 
8 11 30 10 12 33 10 12 33 14 15 43 19 20 51 19 22 57 30 34 82 31 34 85 36 39 92 37 40 95 38 41 96 38 40 97 38 41 96 27 30 75 27 30 75 19 22 55 16 17 45 16 16 44 9 12 31 9 12 31 7 12 32 8 11 30 9 11 32 12 10 31 8 11 30 9 10 30 8 10 31 9 11 32 11 12 32 9 11 32 9 11 32 9 11 32 9 11 32 9 11 32 9 11 32 9 11 32 9 11 32 9 11 32 9 11 32 9 11 32 9 11 32 9 11 32 9 11 32 9 11 32 9 11 32 9 11 32 9 12 31 9 12 31 9 12 31 9 12 31 9 11 32 9 11 32 7 12 34 9 11 32 9 12 31 10 13 32 10 12 33 7 12 32 20 23 58 19 22 57 27 30 75 31 34 87 32 35 88 36 41 97 37 39 96 34 39 94 34 39 94 30 34 81 25 28 69 23 27 65 14 16 39 13 15 40 11 13 34 8 11 30 10 11 31 8 10 31 9 12 31 9 12 31 8 10 31 9 11 32 9 11 32 10 11 32 9 11 32 9 11 32 9 11 32 9 11 32 9 11 32 9 11 32 9 11 32 9 11 32 9 11 32 9 11 32 9 11 32 9 11 32 9 11 32 9 11 32 9 11 32 9 11 32 9 11 32 9 11 32 
9 12 31 10 12 33 9 11 32 13 17 44 17 20 53 20 23 58 30 34 82 30 34 82 37 40 95 38 40 97 39 41 98 37 40 95 37 39 96 28 29 75 27 30 75 19 22 55 15 16 46 14 16 41 8 11 30 9 10 30 9 10 31 10 11 32 9 11 32 8 11 30 9 11 32 9 12 31 9 11 32 9 11 32 10 11 32 9 11 32 9 11 32 9 11 32 10 11 32 10 10 34 9 11 34 7 12 32 9 11 32 9 11 32 9 11 32 9 11 32 9 11 32 9 11 32 9 11 32 9 11 32 9 11 34 9 11 34 9 12 31 9 12 31 9 12 31 9 12 31 9 11 32 9 12 31 9 11 32 8 11 30 9 11 32 8 10 31 10 12 35 8 13 33 19 22 57 19 22 55 27 30 73 31 33 84 32 35 88 35 40 98 35 40 98 36 38 95 34 39 95 30 32 81 25 28 69 24 26 67 13 15 40 14 15 43 11 12 33 9 12 31 10 11 31 9 11 32 9 12 31 10 11 32 10 11 32 9 11 32 9 11 32 9 11 32 9 12 31 8 10 31 9 11 32 9 11 32 9 11 32 9 11 32 9 11 32 9 11 32 9 11 32 9 11 32 9 11 32 9 11 32 9 11 32 9 11 32 9 11 32 9 11 32 9 11 32 9 11 32 
13 14 42 24 28 66 25 28 71 30 34 82 34 37 92 34 39 94 37 42 98 39 41 98 35 36 92 32 35 86 29 32 77 19 22 57 19 22 57 10 12 35 10 12 35 9 11 32 9 12 31 9 12 29 10 11 32 10 11 32 9 12 31 9 12 31 9 12 31 9 12 31 9 12 31 9 12 31 9 12 31 9 12 31 9 11 32 9 11 32 9 11 34 9 11 32 9 11 32 9 11 32 9 11 32 9 11 32 9 11 32 9 11 32 9 11 32 9 11 32 9 11 32 9 11 32 9 11 32 9 11 32 9 12 31 9 11 32 8 11 30 9 12 31 9 12 31 10 11 32 9 12 31 9 11 32 9 12 31 12 14 37 11 15 42 16 19 50 26 29 72 26 29 70 36 38 95 35 37 94 34 39 94 39 41 100 34 39 94 31 35 83 30 34 82 19 21 59 16 21 51 14 15 45 9 11 32 9 11 32 9 11 32 9 11 32 9 11 32 9 11 32 8 10 31 8 10 31 9 12 31 9 12 31 9 12 31 9 11 32 9 11 32 9 11 32 9 11 32 9 11 32 9 11 32 9 11 32 9 11 32 9 11 32 9 11 32 9 11 32 9 11 32 9 11 32 9 11 32 6 11 31 8 10 31 9 11 32 9 10 31 9 11 32 9 11 32 6 11 31 
13 15 40 24 28 66 25 28 71 30 34 82 34 39 95 36 38 95 37 42 98 39 41 98 35 36 90 31 37 89 27 31 76 19 23 58 22 22 60 11 13 36 10 12 35 9 12 31 7 10 29 8 11 30 9 12 31 8 11 30 9 12 31 9 12 31 9 12 31 9 12 31 9 12 31 9 12 31 9 12 31 9 12 31 9 11 32 9 11 32 9 11 32 9 11 32 9 11 32 9 11 32 9 11 32 9 11 32 9 11 32 9 11 32 9 11 32 9 11 32 9 11 32 9 11 32 9 11 32 9 11 32 9 11 32 10 12 33 9 11 32 9 10 31 9 11 32 10 11 32 10 11 31 9 11 32 9 11 32 11 13 38 11 15 42 15 20 50 26 29 74 25 28 71 36 39 94 34 39 95 36 38 95 38 40 97 35 41 93 30 34 82 31 34 85 19 22 57 15 20 52 11 15 42 9 11 32 9 11 32 9 11 32 9 11 32 9 11 32 9 11 32 9 11 32 8 10 31 9 12 31 9 12 31 9 12 31 9 11 32 9 11 32 9 11 32 9 11 32 9 11 32 9 11 32 9 11 32 9 11 32 9 11 32 9 11 32 9 11 32 9 11 32 9 11 32 9 11 32 10 12 33 9 11 32 9 11 32 9 11 32 8 10 31 9 11 32 9 11 32 
25 28 69 33 36 87 34 37 88 35 38 91 34 39 94 37 40 95 31 33 81 31 35 82 22 26 64 20 22 60 17 20 53 13 15 40 13 15 40 8 11 30 9 11 32 9 12 31 9 11 32 9 11 32 9 12 31 9 12 31 9 12 31 9 12 31 9 12 31 9 12 31 9 12 31 9 12 31 9 12 31 9 12 31 9 12 31 9 11 32 9 12 31 9 11 32 9 11 32 9 11 32 9 11 32 9 11 32 9 11 32 9 11 32 9 11 32 9 11 32 9 11 32 9 11 32 9 11 32 9 11 32 8 10 31 9 11 32 10 12 33 9 12 31 9 11 32 10 12 33 10 12 33 14 18 47 14 18 47 21 23 61 25 28 71 25 29 74 33 36 89 31 37 89 35 38 93 35 38 91 31 35 83 29 32 77 26 29 72 19 22 57 19 22 57 13 14 42 9 13 38 9 11 32 9 11 32 9 11 32 9 11 32 9 11 32 9 11 32 9 11 32 9 11 32 9 11 32 9 12 31 9 12 31 9 12 31 9 11 32 9 11 32 9 11 32 9 11 32 9 11 32 9 11 32 9 11 32 9 11 32 9 11 32 9 11 32 9 11 32 9 11 32 9 11 32 9 11 32 12 10 31 10 11 32 10 11 32 9 11 32 9 11 32 9 11 32 9 12 31 
30 36 86 37 42 98 37 42 100 38 41 96 34 39 94 35 38 91 25 28 71 24 28 73 15 18 51 13 14 42 12 14 39 10 11 31 10 13 32 10 13 32 9 12 31 9 12 31 9 11 32 9 12 31 8 11 30 9 11 32 9 12 31 9 12 31 9 12 31 9 12 31 9 12 31 9 12 31 9 12 31 9 12 31 9 12 31 9 11 32 9 12 31 9 11 32 9 11 32 9 11 32 9 11 32 9 11 32 9 11 32 9 11 32 9 11 32 9 11 32 9 11 32 9 11 32 9 11 32 9 11 32 9 12 31 9 11 32 9 12 31 9 11 32 9 11 32 10 12 35 10 12 35 18 22 59 19 22 55 28 30 78 35 35 89 33 36 89 37 39 98 36 38 95 34 37 90 33 39 91 28 32 77 25 28 69 21 24 59 12 14 39 10 15 37 9 11 32 8 11 30 9 10 31 9 11 32 9 11 32 9 11 32 9 11 32 9 11 32 9 11 32 9 11 32 9 11 32 9 12 31 9 12 31 9 12 31 9 12 31 9 11 32 9 11 32 9 11 32 9 11 32 9 11 32 9 11 32 9 11 32 9 11 32 9 11 32 9 11 32 9 11 32 9 11 32 9 12 31 9 11 32 10 11 32 7 12 32 8 10 31 9 11 32 10 11 32 10 11 32 
34 37 90 37 40 95 38 41 96 33 36 89 32 35 86 30 32 81 22 24 62 20 24 62 14 18 47 12 14 37 11 13 38 9 12 31 9 11 32 9 11 32 8 11 30 8 10 31 9 12 31 9 12 31 9 11 32 9 11 32 9 12 31 9 12 31 9 12 31 9 12 31 9 12 31 9 12 31 9 12 31 9 12 31 9 12 31 9 11 32 9 12 31 9 11 32 9 11 32 9 12 31 9 11 32 9 11 32 9 11 32 9 11 32 9 11 32 9 11 32 9 11 32 9 11 32 9 11 32 9 11 32 10 11 32 9 11 32 11 13 34 10 12 33 10 15 37 13 17 44 16 17 47 23 26 67 25 27 68 32 34 83 32 38 90 34 37 90 36 38 95 35 38 93 31 33 81 31 33 82 24 28 66 19 23 58 17 20 53 13 15 40 12 14 35 8 10 33 8 10 31 9 12 31 9 11 32 9 11 32 9 11 32 9 11 32 9 11 32 9 11 32 9 11 32 9 11 32 9 12 31 9 12 31 9 12 31 9 12 31 9 12 31 9 11 32 9 11 32 9 11 32 9 11 32 9 11 32 9 11 32 9 11 32 9 11 32 9 11 32 9 11 32 9 11 32 9 11 32 9 11 32 9 12 31 8 10 31 8 10 31 9 11 32 10 12 35 9 11 32 
38 43 99 31 35 83 31 35 83 23 26 67 19 19 53 18 19 50 8 10 31 10 12 33 9 11 32 6 11 31 9 11 32 9 12 31 9 12 31 9 11 32 9 12 31 9 12 31 9 11 32 9 11 32 9 12 31 8 11 30 9 12 31 9 12 31 9 12 31 9 12 31 9 12 31 9 12 31 9 12 31 9 12 31 9 12 31 9 11 32 9 12 31 9 11 32 9 11 32 9 12 31 9 11 32 9 11 32 8 10 31 8 10 33 9 11 32 9 11 34 9 11 32 9 11 32 9 12 31 9 12 31 7 12 31 9 12 31 15 17 42 16 17 45 19 22 55 27 29 77 29 32 77 34 39 95 36 38 95 37 39 96 37 39 96 34 39 94 29 33 81 31 33 82 18 19 49 17 21 50 12 16 41 9 11 32 9 11 32 9 12 31 10 11 31 9 10 30 8 11 30 9 11 32 9 11 32 9 11 32 9 11 32 9 11 32 9 11 32 9 11 32 9 11 32 9 11 32 9 12 31 9 12 31 9 12 31 9 12 31 9 12 31 9 12 31 9 11 32 9 11 32 9 11 32 9 11 32 9 11 32 9 11 32 9 11 32 9 11 32 9 11 32 9 11 32 11 9 31 10 11 32 9 12 31 9 11 32 8 11 30 7 12 31 9 14 36 10 15 37 
37 42 100 32 36 84 30 34 82 24 27 68 20 20 54 18 19 50 10 11 32 9 12 31 9 11 32 8 11 30 9 11 32 10 11 32 9 12 31 9 12 31 9 12 31 9 12 31 8 11 30 9 12 31 9 12 31 9 12 31 9 12 31 9 12 31 9 12 31 9 12 31 9 12 31 9 12 31 9 12 31 9 12 31 9 12 31 9 12 31 9 12 31 9 12 31 9 11 32 9 12 31 9 11 32 9 11 32 9 11 32 9 11 32 9 11 32 9 11 32 9 11 32 9 11 32 9 11 32 9 11 32 8 11 30 10 11 31 14 15 43 14 15 43 19 22 55 27 30 75 28 31 76 36 39 94 36 39 94 38 39 95 38 41 96 35 38 93 30 32 81 30 32 83 19 20 50 19 20 51 14 16 39 9 10 31 8 10 31 7 12 32 9 10 30 8 11 30 9 11 32 10 11 31 9 11 32 9 11 32 9 11 32 9 11 32 9 11 32 9 11 32 9 11 32 8 10 31 9 12 31 9 12 31 9 12 31 9 12 31 9 12 31 9 12 31 9 12 31 9 12 31 9 11 32 9 11 32 9 11 32 9 11 32 9 11 32 9 11 32 9 11 32 9 11 32 9 11 32 9 12 31 9 11 32 9 11 32 9 11 32 8 11 28 8 13 35 10 15 37 
25 28 71 17 18 48 15 16 44 13 15 40 10 12 33 11 12 33 8 10 31 9 12 31 10 11 32 9 11 32 10 11 31 10 11 32 9 12 31 8 11 30 9 12 31 9 12 31 10 11 32 12 10 31 10 11 31 9 10 31 9 12 31 9 12 31 9 12 31 9 12 31 9 12 31 9 12 31 9 12 31 9 12 31 9 12 31 9 12 31 9 12 29 9 12 31 9 11 34 9 12 31 9 11 32 9 11 32 9 11 32 9 12 31 8 10 31 8 11 30 9 11 32 10 12 33 11 13 36 12 14 37 20 23 56 20 23 58 28 32 77 32 35 86 33 36 89 36 39 92 38 39 95 35 38 93 35 38 93 28 31 76 25 26 70 22 24 62 14 15 43 11 15 40 10 11 32 9 10 31 10 11 32 9 11 32 8 11 30 9 12 31 8 11 30 9 11 32 9 10 30 8 11 30 9 11 32 9 11 32 9 11 32 9 11 32 9 11 32 9 11 32 8 10 31 8 10 31 9 12 31 9 12 31 9 12 31 9 12 31 9 12 31 9 12 31 9 12 31 9 12 29 9 11 32 9 11 32 9 11 32 9 11 32 9 11 32 9 11 32 9 11 32 9 11 32 9 10 30 9 10 31 10 11 32 9 11 32 16 17 48 14 18 47 23 25 63 27 30 75 
24 26 67 14 15 43 13 15 38 12 14 35 9 12 31 9 12 31 9 12 31 9 12 31 9 12 31 9 12 31 9 12 31 9 12 31 9 12 31 9 12 31 9 12 31 9 12 31 9 12 31 9 12 31 9 12 31 9 12 31 9 12 31 9 12 31 9 12 31 9 12 31 9 12 31 9 12 31 9 12 31 9 12 31 10 11 31 8 11 30 8 11 30 9 11 32 9 10 31 9 10 31 10 11 31 9 12 31 9 11 32 9 12 31 9 12 31 9 12 31 9 12 31 9 11 32 11 13 34 13 13 39 22 24 62 20 24 61 30 34 82 34 37 90 34 37 92 37 40 95 38 41 96 34 37 92 36 37 93 28 31 74 23 25 64 21 24 59 12 14 37 12 14 39 8 10 31 8 11 30 9 12 31 9 12 31 9 12 31 9 12 31 9 12 31 9 12 31 9 12 31 9 12 31 9 12 31 9 12 31 9 12 31 9 12 31 9 12 31 9 12 31 9 12 31 9 12 31 9 12 31 9 12 31 8 11 30 8 11 30 8 11 30 8 11 30 8 11 30 9 12 31 9 11 32 9 10 28 10 11 32 8 10 31 9 11 32 9 11 32 8 10 31 9 10 30 10 11 31 9 11 32 8 10 31 9 11 32 17 21 48 15 19 48 25 29 67 28 32 79 
16 19 50 12 14 37 11 13 36 9 11 32 9 12 31 9 12 31 9 12 31 9 12 31 9 12 31 9 12 31 9 12 31 9 12 31 9 12 31 9 12 31 9 12 31 9 12 31 9 12 31 9 12 31 9 12 31 9 12 31 9 12 31 9 12 31 9 12 31 9 12 31 9 12 31 9 12 31 9 12 31 9 12 31 10 11 31 9 12 31 8 11 30 9 11 32 9 12 31 10 11 31 9 12 31 9 12 31 9 12 31 9 11 32 9 12 31 12 14 39 13 15 40 17 18 46 20 23 58 20 22 60 28 32 79 29 32 77 34 37 88 35 38 93 34 37 92 34 36 87 33 36 87 24 27 68 25 28 69 20 23 56 17 18 49 16 17 45 10 12 33 11 13 36 8 11 30 8 10 31 9 12 31 9 12 31 9 12 31 9 12 31 9 12 31 9 12 31 9 12 31 9 12 31 9 12 31 9 12 31 9 12 31 9 12 31 9 12 31 9 12 31 9 12 31 9 12 31 10 13 32 9 12 31 9 12 31 8 11 30 8 11 30 8 11 30 9 12 31 9 12 31 9 11 32 8 10 31 9 12 31 9 12 31 7 12 32 7 12 32 7 12 32 10 12 33 9 14 34 11 15 42 16 20 49 16 20 49 25 28 69 26 29 70 30 32 80 33 36 91 
10 12 33 8 10 31 6 11 31 9 11 32 9 12 31 9 12 31 9 12 31 9 12 31 9 12 31 9 12 31 9 12 31 9 12 31 9 12 31 9 12 31 9 12 31 9 12 31 9 12 31 9 12 31 9 12 31 9 12 31 9 12 31 9 12 31 9 12 31 9 12 31 9 12 31 9 12 31 9 12 31 9 12 31 9 11 32 9 11 32 8 10 31 8 10 31 9 12 31 9 12 31 8 11 30 8 11 28 9 12 31 9 12 31 8 10 31 15 19 48 16 20 49 22 24 62 28 31 76 29 31 79 37 40 95 37 40 95 38 39 95 37 40 95 34 37 90 29 31 79 29 31 79 15 19 46 16 20 49 12 14 37 10 11 31 9 12 31 8 11 30 9 11 32 9 12 31 8 10 31 9 12 31 9 12 31 9 12 31 9 12 31 9 12 31 9 12 31 9 12 31 9 12 31 9 12 31 9 12 31 9 12 31 9 12 31 9 12 31 9 12 31 9 12 31 9 12 31 9 12 31 9 12 31 9 12 31 9 12 31 9 12 31 9 12 31 9 12 31 9 12 31 9 11 32 9 11 32 9 12 31 8 11 30 9 11 32 9 11 32 9 12 31 11 13 36 12 14 39 16 20 49 23 25 64 22 26 64 35 38 93 34 37 90 36 38 95 37 39 96 
8 10 31 9 10 30 9 12 31 9 11 32 9 12 31 9 12 31 9 12 31 9 12 31 9 12 31 9 12 31 9 12 31 9 12 31 9 12 31 9 12 31 9 12 31 9 12 31 9 12 31 9 12 31 9 12 31 9 12 31 9 12 31 9 12 31 9 12 31 9 12 31 9 12 31 9 12 31 9 12 31 9 12 31 8 11 30 9 11 32 9 10 30 9 10 31 9 12 31 9 12 31 9 12 31 10 13 32 9 11 32 11 13 36 11 13 34 19 20 50 17 21 50 24 26 65 30 32 81 31 33 82 37 40 95 37 38 94 36 39 90 36 39 92 32 36 84 26 29 74 26 29 72 17 18 46 16 17 45 12 14 37 9 12 31 9 12 31 10 12 33 9 12 31 9 11 32 9 12 31 9 12 31 9 12 31 9 12 31 9 12 31 9 12 31 9 12 31 9 12 31 9 12 31 9 12 31 9 12 31 9 12 31 9 12 31 9 12 31 9 12 31 9 12 31 9 12 31 9 12 31 9 12 31 9 12 31 9 12 31 9 12 31 9 12 31 9 12 31 9 12 31 9 10 30 8 11 30 9 12 31 9 10 31 9 11 32 9 11 32 10 12 33 11 15 42 15 16 44 18 21 54 24 27 70 25 28 69 35 38 93 35 38 93 35 37 94 35 37 94 
9 12 31 9 11 32 9 12 31 6 11 30 9 12 31 9 12 31 9 12 31 9 12 31 9 12 31 9 12 31 9 12 31 9 12 31 9 12 31 9 12 31 9 12 31 9 12 31 9 12 31 9 12 31 9 12 31 9 12 31 9 12 31 9 12 31 9 12 31 9 12 31 9 12 31 9 12 31 9 12 31 9 12 31 9 12 31 9 12 29 12 10 31 10 11 31 8 11 30 9 12 31 10 12 35 12 14 37 15 16 44 22 24 63 21 25 63 32 36 84 34 37 90 35 38 93 36 38 95 37 39 96 34 37 90 32 38 90 24 27 68 21 23 61 17 20 53 12 13 34 12 14 35 9 12 31 8 11 28 9 11 32 8 11 30 8 11 30 8 10 31 9 12 31 8 11 30 9 11 32 9 12 31 9 12 31 9 12 31 9 12 31 9 12 31 9 12 31 9 12 31 9 12 31 9 12 31 9 12 31 9 12 31 9 12 31 9 12 31 9 12 31 9 12 31 9 12 31 9 12 31 9 12 31 9 12 31 9 12 31 9 12 31 9 12 31 8 11 30 9 12 31 9 12 31 8 11 30 9 11 32 9 11 32 10 12 33 18 19 49 16 19 50 27 30 73 30 34 81 32 35 86 36 39 94 37 38 95 36 39 92 33 38 93 30 34 81 27 30 71 
9 12 31 8 11 30 9 12 31 8 10 31 9 12 31 9 12 31 9 12 31 9 12 31 9 12 31 9 12 31 9 12 31 9 12 31 9 12 31 9 12 31 9 12 31 9 12 31 9 12 31 9 12 31 9 12 31 9 12 31 9 12 31 9 12 31 9 12 31 9 12 31 9 12 31 9 12 31 9 12 31 9 12 31 8 11 30 9 12 29 10 11 31 10 11 31 9 12 31 8 11 30 10 12 35 12 14 37 13 17 44 22 26 64 21 25 63 33 36 87 34 37 90 35 38 93 37 39 100 36 39 94 35 38 93 32 38 90 24 28 66 22 24 63 19 20 51 13 13 37 11 13 34 9 11 32 8 11 30 9 12 31 9 12 31 9 10 30 9 12 31 9 12 31 9 12 31 10 11 31 9 12 31 9 12 31 9 12 31 9 12 31 9 12 31 9 12 31 9 12 31 9 12 31 9 12 31 9 12 31 9 12 31 9 12 31 9 12 31 9 12 31 9 12 31 9 12 31 9 12 31 9 12 31 9 12 31 9 12 31 9 12 31 8 11 30 8 11 30 8 11 30 9 12 31 6 11 31 9 11 32 9 11 32 10 12 33 16 20 49 16 19 50 25 28 71 30 32 81 32 35 86 36 39 94 37 39 96 35 38 93 36 39 94 27 33 81 26 30 75 
8 11 30 10 11 31 8 11 30 10 11 31 9 12 31 9 12 31 9 12 31 9 12 31 9 12 31 9 12 31 9 12 31 9 12 31 9 12 31 9 12 31 9 12 31 9 12 31 9 12 31 9 12 31 9 12 31 9 12 31 9 12 31 9 12 31 9 12 31 9 12 31 9 12 31 9 12 31 9 12 31 9 12 31 8 10 31 8 10 31 9 11 32 9 11 32 15 16 44 15 16 44 21 23 61 25 26 70 27 30 73 34 36 87 33 36 87 37 40 95 34 39 94 33 36 89 30 34 82 29 32 77 18 22 57 18 22 57 12 18 44 14 14 40 11 13 36 10 13 32 10 11 32 9 11 32 9 11 32 8 11 30 9 12 31 10 11 31 9 12 31 8 10 31 9 12 31 10 11 31 9 12 31 9 12 31 9 12 31 9 12 31 9 12 31 9 12 31 9 12 31 9 12 31 9 12 31 9 12 31 9 12 31 9 12 31 9 12 31 9 12 31 9 12 31 9 12 31 9 12 31 9 12 31 9 12 31 8 11 30 8 11 30 8 11 30 8 11 30 8 11 30 10 12 33 11 13 36 15 19 48 19 22 57 19 23 60 30 32 80 29 33 78 34 37 92 34 37 92 35 38 93 33 36 89 33 36 89 23 27 65 23 27 65 17 20 51 12 16 45 
9 11 32 10 10 34 10 11 32 10 11 31 9 12 31 9 12 31 9 12 31 9 12 31 9 12 31 9 12 31 9 12 31 9 12 31 9 12 31 9 12 31 9 12 31 9 12 31 9 12 31 9 12 31 9 12 31 9 12 31 9 12 31 9 12 31 9 12 31 9 12 31 9 12 31 9 12 31 9 12 31 9 12 31 10 11 31 9 11 32 9 11 32 9 11 32 16 20 49 16 20 49 24 27 68 28 31 82 31 35 83 37 39 96 37 40 95 38 41 96 38 41 94 33 35 84 28 31 76 27 28 72 13 18 47 14 18 47 10 12 35 8 10 31 7 12 32 9 12 31 9 12 31 8 11 30 8 11 30 9 12 31 9 12 31 9 12 31 8 11 30 8 10 31 8 11 30 9 11 32 9 12 31 9 12 31 9 12 31 9 12 31 9 12 31 9 12 31 9 12 31 9 12 31 9 12 31 9 12 31 9 12 31 9 12 31 9 12 31 9 12 31 9 12 31 9 12 31 9 12 31 9 12 31 9 12 31 9 12 31 8 11 30 8 11 30 8 11 30 7 10 29 10 12 35 12 14 37 17 20 51 22 26 64 24 27 68 34 37 90 34 37 92 36 38 95 36 38 97 35 38 93 33 35 86 32 35 86 19 22 57 20 23 58 14 15 43 10 12 35 
9 12 31 9 12 31 9 12 31 9 12 31 9 12 31 9 12 31 9 12 31 9 12 31 9 12 31 9 12 31 9 12 31 9 12 31 9 12 31 9 12 31 9 12 31 9 11 32 9 11 32 9 12 31 9 12 29 9 12 31 8 11 30 8 11 30 9 11 32 9 12 29 9 12 31 9 12 31 10 11 31 10 12 33 10 12 33 12 14 37 13 17 44 16 17 45 23 25 64 23 27 62 29 32 77 31 34 85 31 37 87 36 39 92 36 39 92 32 34 85 30 34 82 26 29 70 21 23 61 19 23 58 14 15 43 12 14 39 10 12 35 9 11 32 9 11 32 9 12 31 10 13 32 9 12 31 9 12 31 9 12 31 9 12 31 9 12 31 9 12 31 9 12 31 9 12 31 9 12 31 9 12 31 9 12 31 9 12 31 9 12 31 9 12 31 9 12 31 9 12 31 9 12 31 7 12 32 8 11 30 9 12 31 9 11 32 9 12 29 9 12 31 8 11 30 9 11 32 10 11 32 10 11 32 9 11 32 8 11 30 9 12 31 10 11 32 12 14 37 11 13 36 18 18 52 18 21 54 23 25 66 28 31 74 29 32 77 36 39 92 35 38 91 34 37 88 31 37 89 30 33 84 25 28 71 25 28 71 15 19 48 17 18 48 12 14 39 9 11 34 
9 12 31 9 12 31 9 12 31 9 12 31 9 12 31 9 12 31 9 12 31 9 12 31 9 12 31 9 12 31 9 12 31 9 12 31 9 11 32 9 12 31 9 12 31 9 12 31 9 12 31 9 12 31 9 12 31 9 12 31 10 11 31 9 12 31 9 12 31 9 12 31 9 10 31 8 11 30 8 11 30 12 14 35 13 15 38 16 20 49 24 28 66 23 27 65 34 37 92 34 37 90 36 38 95 35 40 98 34 39 94 33 36 89 31 37 85 20 26 62 20 24 61 15 19 48 12 13 34 13 14 35 8 10 31 9 11 32 9 11 32 9 11 32 9 11 32 9 11 32 9 11 32 9 11 32 9 12 31 9 12 31 9 12 31 9 12 31 9 12 31 9 12 31 9 12 31 9 12 31 9 12 31 9 12 31 9 12 31 9 12 31 9 12 31 9 12 31 9 12 31 9 12 31 8 11 30 10 11 31 9 12 31 7 10 29 8 10 31 10 13 32 9 12 31 10 11 31 9 11 32 9 12 31 7 12 32 8 10 31 9 11 32 11 13 36 16 20 49 18 19 49 28 31 76 30 32 80 30 36 88 34 39 95 34 39 94 34 39 94 34 39 94 29 31 79 27 30 75 19 25 61 12 16 43 13 17 44 9 10 30 8 10 31 9 11 32 9 11 32 
9 12 31 9 12 31 9 12 31 9 12 31 9 12 31 9 12 31 9 12 31 9 12 31 9 12 31 9 12 31 9 12 31 9 12 31 9 11 32 9 12 31 8 11 30 8 11 30 8 11 30 8 11 30 8 11 30 8 10 31 9 11 32 8 11 30 8 11 30 9 11 32 10 11 32 10 11 29 9 11 32 12 14 37 12 14 37 15 18 49 24 26 65 25 27 66 34 37 90 34 37 92 35 37 94 37 39 96 34 39 94 32 35 90 34 35 89 23 25 63 21 24 57 17 18 46 10 12 33 11 13 34 8 11 30 8 10 31 9 11 32 9 11 32 9 11 32 9 11 32 9 12 31 9 12 31 9 12 31 9 12 31 9 12 31 9 12 31 9 12 31 9 12 31 9 12 31 9 12 31 9 12 31 9 12 31 9 12 31 9 12 31 9 12 31 9 12 31 9 12 31 9 12 31 8 11 30 8 10 31 9 11 32 9 11 32 10 10 34 10 12 33 9 12 31 9 12 31 9 12 31 8 10 31 8 11 30 7 9 30 9 11 32 10 12 35 16 20 49 16 20 49 27 30 75 28 32 80 32 35 86 34 39 95 35 40 96 36 39 94 35 40 95 26 33 79 27 30 75 20 24 62 11 15 42 12 16 43 8 10 31 10 11 31 8 10 31 9 11 32 
9 12 31 9 12 31 9 12 31 9 12 31 9 12 31 9 12 31 9 12 31 9 12 31 9 12 31 9 12 31 9 12 31 9 12 31 9 12 31 9 12 31 9 12 31 9 12 31 9 11 32 9 11 32 8 10 31 8 10 31 9 11 32 9 12 31 9 11 32 7 12 31 10 13 32 18 19 49 18 22 51 27 30 73 30 34 82 33 36 89 37 40 95 37 40 95 37 40 95 37 39 96 29 33 78 26 31 73 24 26 65 15 16 46 15 16 44 10 11 31 9 11 32 10 11 32 10 11 31 10 11 31 9 12 31 9 12 31 8 11 30 8 11 30 9 11 32 9 11 32 9 11 32 9 11 32 9 12 31 9 12 31 9 12 31 9 12 31 9 12 31 9 12 31 9 12 31 9 12 31 9 12 31 9 12 31 9 12 31 9 12 31 9 12 31 9 12 31 9 12 31 9 12 31 9 12 31 8 10 31 9 12 29 10 11 31 9 12 31 9 11 32 8 11 30 7 10 29 9 12 31 12 14 37 12 14 37 19 22 55 23 25 63 26 29 72 34 37 90 32 37 92 36 38 95 36 38 95 34 37 92 32 35 86 31 33 82 19 22 57 20 23 58 13 15 40 9 11 34 10 12 33 9 12 31 10 11 32 10 11 32 10 11 31 9 11 32 8 10 31 
9 12 31 9 12 31 9 12 31 9 12 31 9 12 31 9 12 31 9 12 31 9 12 31 9 12 31 9 12 31 9 12 31 9 12 31 9 12 31 9 12 31 9 12 31 9 11 32 9 11 32 9 12 31 9 12 31 9 11 32 10 11 31 9 12 31 11 12 33 10 12 33 9 11 32 19 20 51 17 20 51 27 30 73 30 34 81 33 36 89 37 40 95 38 41 96 36 38 95 35 40 96 29 33 80 26 29 74 24 26 67 15 16 44 16 17 45 10 12 33 8 10 31 9 12 31 9 12 31 9 12 31 9 12 31 8 11 30 8 11 30 9 11 32 9 11 32 9 11 32 9 11 32 8 10 31 9 12 31 9 12 31 9 12 31 9 12 31 9 12 31 9 12 31 9 12 31 9 12 31 9 12 31 9 12 31 9 12 31 9 12 31 9 12 31 9 12 31 9 12 31 9 12 31 10 11 32 9 11 32 9 11 32 8 11 30 8 11 30 8 11 30 9 10 31 8 10 31 8 9 29 12 14 37 12 14 37 18 21 54 24 26 65 25 28 71 35 38 91 34 37 92 36 38 95 35 40 96 36 37 93 31 37 89 30 34 82 21 21 55 22 22 58 11 15 42 10 12 35 8 10 31 9 11 32 8 11 30 9 12 31 7 12 32 8 10 31 10 11 32 
9 12 31 9 12 31 9 12 31 9 12 31 9 12 31 9 12 31 9 12 31 9 12 31 9 12 31 9 12 31 9 12 31 9 12 31 9 12 31 9 12 31 9 12 31 9 12 31 9 12 31 9 11 32 9 12 31 9 12 29 12 12 36 9 14 36 13 17 44 18 21 56 19 22 55 29 30 78 29 32 77 31 37 87 35 38 89 35 38 91 33 36 89 34 37 90 26 29 70 26 29 70 19 21 59 16 19 50 14 18 47 11 13 34 12 14 37 9 11 32 9 12 31 10 11 31 8 10 31 10 11 31 9 12 31 9 12 31 9 12 31 9 12 31 9 11 32 9 11 32 9 11 32 9 11 32 9 12 31 9 12 31 9 12 31 9 12 31 9 12 31 9 12 31 9 12 31 9 12 31 9 12 31 9 12 31 9 12 31 9 12 31 9 12 31 9 12 31 9 12 31 9 12 31 9 12 31 8 11 30 8 11 30 9 12 31 9 11 32 9 11 32 11 13 36 15 16 44 14 16 41 22 24 62 23 25 64 28 30 78 32 34 83 33 35 86 36 39 92 36 39 92 30 33 84 30 32 83 26 29 70 21 23 61 20 23 56 14 16 41 10 14 39 11 13 34 9 11 32 10 11 31 8 11 30 8 11 30 9 12 31 9 12 31 8 10 31 9 12 31 
9 12 31 9 12 31 9 12 31 9 12 31 9 12 31 9 12 31 9 12 31 9 12 31 9 12 31 9 12 31 9 12 31 9 12 31 8 11 30 8 11 30 9 12 31 9 12 31 9 12 31 9 12 31 9 11 32 9 12 31 12 14 37 11 15 40 18 21 54 24 27 70 26 29 74 35 38 93 35 38 91 35 40 95 37 40 95 35 38 93 33 34 88 33 35 86 19 22 57 19 22 57 12 16 43 10 12 33 9 11 32 9 10 30 8 11 28 9 10 31 7 9 30 9 12 31 8 10 31 9 12 31 8 10 31 8 11 30 9 12 31 9 12 31 9 12 31 9 12 31 9 11 32 9 11 32 9 12 31 9 12 31 9 12 31 9 12 31 9 12 31 9 12 31 9 12 31 9 12 31 9 12 31 9 12 31 9 12 31 9 12 31 9 12 31 9 12 31 9 12 31 9 12 31 9 12 31 8 11 30 8 11 30 9 12 31 9 11 32 9 11 32 10 15 37 14 19 48 16 20 49 29 31 80 29 31 79 34 37 90 35 40 95 37 39 96 35 38 91 34 39 94 27 30 75 27 30 71 20 23 58 15 17 42 14 16 41 9 11 32 9 12 31 9 12 29 8 11 30 10 11 31 9 11 32 10 11 32 9 12 31 9 11 32 8 10 31 10 11 32 
9 12 31 9 12 31 9 12 31 9 12 31 9 12 31 9 12 31 9 12 31 9 12 31 9 12 31 9 12 31 9 12 31 9 12 31 9 12 31 9 12 31 8 11 30 8 11 30 8 10 31 10 12 33 11 13 34 12 14 35 16 20 49 16 19 52 22 26 63 28 30 78 30 32 80 36 39 94 36 39 94 35 38 91 34 37 88 31 34 85 27 30 75 27 30 75 18 19 50 19 20 51 10 14 39 9 11 34 10 12 33 10 11 32 8 10 31 9 12 31 9 12 31 9 12 31 8 10 31 10 11 31 9 12 31 9 12 31 8 11 30 8 11 30 9 11 32 9 12 31 9 12 31 9 12 31 9 12 31 9 12 31 9 12 31 9 12 31 9 12 31 9 12 31 9 12 31 9 12 31 9 12 31 9 12 31 9 12 31 9 12 31 9 12 31 9 12 31 9 12 31 9 12 31 9 10 31 9 11 32 9 11 32 10 12 33 12 14 39 11 15 40 15 19 48 21 24 59 20 24 59 31 34 85 31 35 83 35 38 91 36 39 94 35 38 91 31 35 83 30 34 82 22 25 66 22 26 64 19 20 51 12 14 39 13 15 38 8 11 28 10 11 31 10 11 31 8 11 28 11 12 32 9 12 31 8 10 31 9 12 31 8 10 31 8 10 31 9 12 31 
10 11 31 10 11 32 10 11 31 10 11 31 8 11 30 10 11 31 8 10 31 10 11 31 9 11 32 7 12 32 9 12 31 9 11 32 9 11 32 9 12 31 8 11 28 9 10 31 8 10 31 12 14 39 18 21 54 18 21 54 30 32 80 32 34 85 33 39 91 37 42 98 39 42 97 36 38 95 36 39 94 28 30 78 27 30 73 20 22 60 12 16 41 13 14 42 9 12 31 7 12 31 10 13 32 9 10 30 9 12 31 9 12 31 9 12 31 9 12 31 9 12 31 9 12 31 9 12 31 9 12 31 9 12 31 9 12 31 9 12 31 9 12 31 9 12 31 9 12 31 9 12 31 9 12 31 9 12 31 9 12 31 9 12 31 9 12 31 9 12 31 9 12 31 9 12 31 9 12 31 8 11 30 12 10 32 8 10 31 8 10 31 8 10 31 9 11 32 8 10 31 8 11 30 8 9 27 8 10 31 10 14 39 13 15 40 21 23 61 23 25 63 26 30 75 34 37 92 34 37 90 37 39 98 36 38 95 35 38 91 32 35 86 28 30 78 22 22 58 19 22 57 12 14 37 9 11 34 9 11 32 9 12 31 9 12 31 9 12 31 9 12 31 9 12 31 9 12 31 9 12 31 9 12 31 9 12 31 9 12 31 9 12 31 9 12 31 9 12 31 
9 12 31 9 12 31 9 11 32 9 12 31 9 10 30 11 12 32 8 11 30 9 12 31 8 11 30 8 11 30 9 12 31 9 11 32 10 11 31 9 10 31 8 11 30 9 11 32 10 11 32 12 14 37 17 20 51 18 21 54 29 33 80 31 35 83 34 37 90 38 40 97 38 40 97 35 37 94 35 38 93 28 30 78 27 30 73 20 22 60 13 14 42 13 14 42 9 11 32 9 12 31 9 12 31 9 12 31 9 12 31 9 12 31 9 12 31 9 12 31 9 12 31 9 12 31 9 12 31 9 12 31 8 11 30 8 11 30 8 11 30 8 11 30 8 11 30 8 11 30 8 11 30 8 11 30 9 12 31 9 12 31 9 12 31 9 12 31 9 12 31 9 12 31 9 12 31 9 12 31 9 12 31 10 10 34 9 12 31 11 12 32 8 11 30 9 12 31 8 11 30 8 11 30 8 11 30 8 11 30 10 14 39 10 15 37 20 23 58 24 26 65 27 30 75 35 36 90 35 36 90 34 39 95 35 40 95 35 38 91 33 35 86 30 32 81 18 21 56 21 21 55 12 14 39 10 12 35 9 11 32 9 12 31 9 12 31 9 12 31 8 11 30 9 12 31 9 12 31 9 12 31 9 12 31 9 12 31 9 12 31 9 12 31 9 12 31 9 12 31 
9 12 31 9 11 32 9 12 31 9 12 31 9 12 31 9 12 31 8 11 30 9 12 31 9 11 32 9 12 31 9 11 32 9 12 31 10 11 31 10 14 39 10 14 41 19 22 57 23 28 66 26 29 72 33 36 89 33 36 89 35 40 95 34 41 96 36 39 92 33 35 86 30 34 82 19 22 57 20 22 60 15 16 44 9 15 39 11 13 36 10 13 32 10 12 33 8 10 31 8 11 30 9 12 31 9 10 30 9 12 31 9 12 31 9 12 31 9 12 31 9 12 31 9 12 31 9 12 31 9 12 31 9 12 31 9 12 31 9 12 31 9 12 31 9 12 31 9 12 31 9 12 31 9 12 31 9 12 31 9 12 31 9 12 31 9 12 31 9 12 31 9 12 31 9 12 31 9 12 31 8 11 30 9 10 30 9 12 31 6 11 31 9 11 32 9 11 32 9 11 32 13 15 38 15 18 49 18 21 54 27 30 75 27 30 75 31 34 85 35 38 91 36 39 94 33 38 93 35 38 91 27 30 75 27 30 73 19 23 58 14 18 47 14 18 45 11 13 34 11 13 34 9 11 34 8 10 31 8 11 30 9 12 29 9 12 29 9 12 31 8 10 31 9 11 34 9 12 31 9 12 31 9 12 31 9 12 31 9 12 31 9 12 31 9 12 31 9 12 31 
9 12 31 9 12 31 9 12 31 9 12 31 10 11 31 10 11 31 10 11 31 10 11 32 9 12 31 8 10 31 9 11 32 9 12 31 9 10 30 11 15 42 13 15 38 21 24 59 25 28 71 29 32 77 35 38 93 36 39 92 39 42 97 37 42 97 35 38 91 31 34 87 30 32 81 18 21 52 18 21 54 13 15 38 11 13 36 8 10 31 8 11 30 9 12 31 9 11 32 8 11 30 9 12 31 9 12 31 9 12 31 9 12 31 9 12 31 9 12 31 9 12 31 9 12 31 9 12 31 9 12 31 9 12 31 9 12 31 9 12 31 9 12 31 9 12 31 9 12 31 9 12 31 9 12 31 9 12 31 9 12 31 9 12 31 9 12 31 9 12 31 9 12 31 9 12 31 9 12 31 9 12 31 9 12 31 9 12 31 10 11 32 9 12 31 8 10 31 9 11 32 12 16 41 16 20 47 19 22 53 30 32 81 28 32 80 35 38 91 37 39 96 36 39 94 35 40 95 36 39 94 24 29 71 27 28 72 19 19 53 16 16 42 13 15 40 10 11 31 9 11 34 9 12 31 9 12 31 9 12 31 9 12 31 9 12 31 9 12 31 9 12 31 9 12 31 9 12 31 9 12 31 9 12 31 9 12 31 9 12 31 9 12 31 9 12 31 9 12 31 
9 12 31 9 12 31 9 12 31 9 12 31 9 10 30 10 11 31 8 11 30 7 10 29 9 12 31 9 11 34 9 14 36 14 18 45 15 16 44 22 26 64 22 24 63 27 31 78 32 35 86 32 35 86 32 37 92 35 38 93 33 35 84 32 36 84 27 30 73 22 26 63 19 23 58 14 15 43 12 16 41 9 14 34 8 10 31 9 11 32 10 11 31 10 11 31 10 11 32 10 11 32 9 10 30 9 12 31 9 12 31 9 12 31 9 12 31 9 12 31 9 12 31 9 12 31 9 12 31 9 12 31 8 11 30 8 11 30 8 11 30 8 11 30 8 11 30 8 11 30 8 11 30 8 11 30 9 11 32 9 12 31 9 12 31 9 12 31 9 12 31 9 12 31 9 12 31 9 11 32 9 12 31 7 9 32 9 11 32 8 13 33 11 13 34 14 18 47 16 20 49 21 24 59 26 28 69 27 30 73 33 36 89 33 36 89 35 38 91 34 37 90 33 35 84 27 29 77 27 30 75 17 20 53 17 20 53 12 18 42 12 14 39 11 13 34 9 12 31 6 11 30 9 12 31 9 12 31 9 12 31 9 12 31 9 12 31 9 12 31 9 12 31 8 11 30 9 12 31 9 12 31 9 12 31 9 12 31 9 12 31 9 12 31 9 12 31 9 12 31 
9 12 31 9 12 31 9 12 31 9 12 31 8 10 31 9 12 31 8 11 30 8 11 30 9 11 32 9 11 34 11 15 42 20 23 58 20 23 56 31 34 87 31 34 85 34 39 95 40 42 99 35 41 93 37 38 95 35 38 93 26 29 72 25 28 69 20 20 54 14 14 40 12 14 37 11 9 30 9 12 31 8 11 30 9 12 31 9 12 31 9 12 31 8 11 30 9 11 32 9 11 32 9 12 31 9 12 31 9 12 31 9 12 31 9 12 31 9 12 31 9 12 31 9 12 31 9 12 31 9 12 31 9 12 31 9 12 31 9 12 31 9 12 31 9 12 31 9 12 31 9 12 31 9 12 31 9 11 32 9 12 31 9 12 31 9 12 31 9 12 31 9 12 31 9 12 31 9 11 32 7 9 30 8 10 31 8 10 31 12 14 37 10 14 39 22 24 62 24 26 65 28 31 76 34 37 90 34 37 90 36 38 95 35 37 94 32 35 88 33 36 87 28 31 76 18 22 57 20 23 58 10 12 33 8 10 31 10 11 32 10 11 32 9 12 31 9 11 32 7 12 31 8 11 30 8 11 30 8 11 30 9 12 31 9 12 31 8 11 30 8 11 30 8 11 30 9 12 31 9 12 31 9 12 31 9 12 31 9 12 31 9 12 31 9 12 31 9 12 31 
9 12 31 9 12 31 9 12 31 9 12 31 9 12 31 9 12 31 10 11 31 10 11 29 11 13 36 12 14 39 15 19 46 21 23 61 21 23 61 31 37 87 33 36 87 34 40 92 34 39 94 35 38 93 32 35 86 33 36 87 22 27 65 22 26 64 16 19 52 11 13 36 11 13 36 9 12 31 9 10 28 8 10 31 12 10 32 6 11 31 8 11 30 8 11 30 9 10 30 9 10 30 10 11 31 9 12 31 9 12 31 9 12 31 9 12 31 9 12 31 9 12 31 9 12 31 9 12 31 9 12 31 9 12 31 9 12 31 9 12 31 9 12 31 9 12 31 9 12 31 9 12 31 9 12 31 9 11 32 9 12 31 9 12 31 9 12 31 9 12 31 9 12 31 9 12 31 9 11 32 10 11 32 9 12 31 11 13 34 12 16 43 12 16 43 24 28 66 24 27 68 30 32 80 35 38 93 34 37 90 36 37 93 34 37 92 31 33 82 29 31 80 24 27 68 18 21 52 17 20 53 9 11 32 9 11 34 9 11 32 10 11 32 9 12 31 9 12 31 10 11 32 9 12 31 9 12 31 8 11 30 8 11 30 9 12 31 8 11 30 9 12 31 9 12 31 9 12 31 9 12 31 9 12 31 9 12 31 9 12 31 9 12 31 9 12 31 9 12 31 
10 11 31 10 11 31 10 11 31 10 11 31 9 12 31 10 13 32 15 16 44 14 16 41 24 26 67 28 31 74 27 34 80 36 41 96 37 40 95 36 41 97 38 40 97 33 36 89 31 33 81 26 30 75 18 19 50 17 20 51 10 12 35 9 10 31 9 11 32 8 11 30 10 13 32 10 11 32 9 12 31 10 11 31 8 10 31 8 11 30 8 11 30 8 11 30 8 10 31 9 10 30 9 12 31 9 12 31 9 12 31 9 12 31 9 12 31 9 12 31 9 12 31 9 12 31 9 12 31 9 12 31 9 12 31 9 12 31 9 12 31 9 12 31 9 12 31 9 12 31 9 12 31 9 12 31 9 11 32 9 12 31 9 12 31 9 12 31 9 12 31 9 12 31 9 12 31 9 11 32 16 17 45 17 20 51 20 23 58 30 32 81 28 32 80 35 38 93 38 40 97 34 39 95 36 39 94 34 37 90 26 29 72 25 30 70 13 18 48 10 14 39 11 13 36 9 12 31 10 11 31 10 11 31 8 11 30 9 12 31 9 11 32 9 12 31 10 11 32 10 11 32 8 11 30 10 13 32 8 11 30 8 11 30 9 12 31 9 12 31 9 12 31 9 12 31 9 12 31 9 12 31 9 12 31 9 12 31 9 12 31 9 12 31 9 12 31 9 12 31 
9 12 31 9 12 31 8 11 30 8 11 30 8 11 28 10 11 29 12 16 41 12 16 43 23 25 64 26 29 72 28 32 79 37 40 95 35 40 95 39 42 97 38 40 97 32 35 86 29 33 81 27 30 75 17 20 51 17 20 53 12 15 34 9 12 31 8 11 30 8 11 30 8 11 30 8 11 30 9 12 31 9 12 31 8 11 30 8 11 30 8 11 30 8 11 30 8 11 30 8 11 30 8 11 30 8 11 30 9 12 31 9 12 31 9 12 31 9 12 31 8 11 30 8 11 30 8 11 30 8 11 30 10 11 31 9 11 32 9 10 30 9 10 31 8 11 30 8 11 30 9 12 31 10 11 32 10 11 31 8 11 30 8 10 31 8 11 30 8 11 28 10 11 31 9 12 31 9 11 32 14 16 41 17 21 48 20 23 56 29 33 81 30 32 80 36 39 94 38 41 96 36 39 92 35 38 93 35 38 91 25 28 71 26 29 72 15 18 49 11 15 40 12 14 39 8 11 30 9 12 31 9 12 31 9 12 31 9 12 31 9 12 31 9 12 31 9 12 31 9 12 31 9 12 31 9 12 31 9 12 31 9 12 31 9 12 31 9 12 31 9 12 31 9 12 31 9 12 31 9 12 31 9 12 31 9 12 31 8 11 30 8 11 30 9 12 31 9 12 31 
7 10 29 9 11 34 9 11 34 13 14 42 16 19 50 18 21 52 29 31 79 29 30 76 33 37 85 35 38 91 35 38 91 34 37 90 35 38 91 28 29 73 26 29 72 20 24 59 16 20 47 17 17 45 12 12 38 12 12 36 9 12 31 9 12 31 8 11 30 8 11 30 9 12 31 8 11 30 8 11 30 9 12 31 9 12 31 8 11 30 9 12 31 8 11 30 8 11 30 9 12 31 8 11 30 9 12 31 8 11 30 8 11 30 8 11 30 8 11 30 9 12 31 9 12 31 9 12 31 9 12 31 10 11 31 8 11 30 10 11 31 9 12 31 8 11 30 10 13 32 10 12 33 9 10 30 9 12 31 9 12 31 9 12 31 9 12 31 11 13 36 11 13 34 20 22 60 20 23 58 26 29 72 30 32 80 31 33 82 34 37 92 35 38 93 33 36 89 33 36 89 28 31 76 23 25 64 22 24 62 12 16 41 12 16 43 10 12 35 10 12 33 10 11 32 10 11 32 9 12 31 9 12 31 9 12 31 9 12 31 9 12 31 9 12 31 9 12 31 9 12 31 9 12 31 9 12 31 9 12 31 9 12 31 9 12 31 9 12 31 9 12 31 9 12 31 9 12 31 9 12 31 9 12 31 9 12 31 8 11 30 8 11 30 9 12 31 9 12 31 
7 9 30 9 11 32 11 13 34 15 16 46 19 23 58 22 26 64 33 36 87 32 35 86 37 40 93 37 42 97 37 40 95 35 36 92 34 37 90 23 27 65 24 26 65 18 19 47 12 14 37 11 13 34 8 11 28 8 11 28 9 12 31 8 11 30 8 11 30 7 10 29 9 12 31 9 12 31 9 12 31 8 11 30 9 12 31 9 12 31 9 12 31 9 12 31 9 12 31 9 12 31 9 12 31 9 12 31 9 12 31 9 12 31 9 12 31 9 12 31 8 11 30 8 11 30 8 11 30 8 11 30 10 11 31 10 11 32 9 10 30 9 12 31 9 11 32 9 10 30 8 11 30 10 11 32 9 10 30 8 11 28 9 10 30 10 13 32 13 15 38 10 15 37 24 26 65 22 25 66 30 32 80 34 37 88 35 38 93 36 38 95 37 39 96 32 35 86 31 34 85 24 29 71 18 22 57 17 20 53 7 12 34 10 12 35 9 11 32 8 11 30 9 12 31 8 11 30 9 12 31 9 12 31 9 12 31 9 12 31 9 12 31 9 12 31 9 12 31 9 12 31 9 12 31 9 12 31 9 12 31 9 12 31 9 12 31 9 12 31 9 12 31 9 12 31 8 11 30 9 12 31 9 12 31 9 12 31 9 12 31 9 12 31 9 12 31 9 12 31 
11 11 35 14 18 47 16 20 49 21 23 61 26 29 72 26 31 73 32 38 90 34 37 90 36 38 89 36 39 90 33 37 84 27 30 73 27 30 73 18 21 54 17 20 53 15 17 42 13 14 35 14 12 34 10 11 29 8 11 30 8 11 30 9 12 31 9 12 31 8 11 30 8 11 30 9 12 31 9 12 31 9 12 31 9 12 31 8 11 30 9 12 31 9 12 31 9 12 31 9 12 31 8 11 30 9 12 31 9 12 31 9 12 31 9 12 31 9 12 31 8 11 30 8 11 30 8 11 30 8 11 30 9 12 31 9 12 31 9 10 30 8 11 30 9 12 31 10 11 31 8 11 30 10 11 32 9 12 31 11 13 34 13 15 36 13 17 42 20 23 54 19 22 53 28 31 74 27 30 75 32 36 84 34 37 90 34 37 88 32 35 86 32 35 86 26 29 72 23 26 69 18 22 57 14 18 47 15 19 46 9 11 34 10 12 35 9 11 32 8 11 30 9 12 29 9 12 31 9 12 31 9 12 31 9 12 31 9 12 31 9 12 31 9 12 31 9 12 31 9 12 31 9 12 31 9 12 31 9 12 31 9 12 31 9 12 31 9 12 31 9 12 31 9 12 31 8 11 30 8 11 30 9 12 31 9 12 31 9 12 31 9 12 31 9 12 31 9 12 31 
14 18 45 27 28 72 28 31 74 33 35 84 37 40 95 37 40 95 34 39 94 37 40 93 32 36 83 31 34 77 26 28 67 15 19 48 15 19 48 9 12 31 8 10 31 10 11 31 7 9 30 9 12 31 9 12 29 8 11 30 8 11 30 9 12 31 9 12 31 9 12 31 8 11 30 9 12 31 9 12 31 8 11 30 9 12 31 8 11 30 9 12 31 9 12 31 9 12 31 9 12 31 8 11 30 9 12 31 8 11 30 8 11 30 8 11 30 8 11 30 9 12 31 9 12 31 9 12 31 9 12 31 8 11 30 7 10 29 8 11 30 10 13 32 10 11 32 9 10 31 8 11 30 10 11 31 9 11 32 13 17 44 17 21 50 20 23 58 31 34 79 32 35 80 36 39 94 34 39 94 34 40 92 33 38 93 33 36 87 26 29 70 24 29 71 13 16 47 11 15 42 12 14 35 10 11 31 7 10 29 9 12 31 8 11 30 9 12 31 8 11 30 9 12 31 8 11 30 9 12 31 9 12 31 9 12 31 9 12 31 9 12 31 9 12 31 9 12 31 9 12 31 9 12 31 9 12 31 9 12 31 9 12 31 9 12 31 9 12 31 9 12 31 9 12 31 8 11 30 8 11 30 9 12 31 9 12 31 9 12 31 9 12 31 8 11 30 8 11 30 
14 18 43 25 28 71 27 30 75 32 35 86 37 40 95 36 39 94 36 39 94 36 39 94 33 35 83 33 36 81 26 30 68 15 19 48 15 19 48 8 11 30 8 11 30 8 10 31 8 11 30 8 11 30 9 12 31 9 12 31 8 11 30 8 11 30 9 12 31 8 11 30 8 11 30 8 11 30 9 12 31 8 11 30 9 12 31 9 12 31 9 12 31 9 12 31 9 12 31 9 12 31 9 12 31 9 12 31 8 11 30 8 11 30 8 11 30 8 11 30 9 12 31 9 12 31 9 12 31 9 12 31 9 12 31 9 12 31 9 11 32 8 11 30 9 12 31 9 11 32 9 12 31 9 11 32 10 11 31 14 15 43 16 20 49 20 25 57 31 34 79 31 34 79 37 40 95 36 39 92 37 40 95 35 38 93 33 36 87 26 29 72 25 28 73 13 17 46 11 15 42 8 13 35 8 11 30 9 12 31 9 11 32 9 12 31 8 11 30 8 11 30 10 11 31 8 11 30 9 12 31 9 12 31 9 12 31 9 12 31 9 12 31 9 12 31 9 12 31 9 12 31 9 12 31 9 12 31 9 12 31 9 12 31 9 12 31 9 12 31 9 12 31 9 12 31 7 10 29 7 10 29 9 12 31 9 12 31 9 12 31 9 12 31 8 11 30 8 11 30 
33 36 87 35 40 96 39 42 97 36 39 94 34 37 90 32 35 88 23 25 64 22 24 62 14 15 43 11 13 36 10 12 33 8 11 28 9 10 28 9 10 30 9 12 31 8 11 30 8 11 30 9 12 29 9 11 32 8 11 30 8 11 30 9 12 31 8 11 30 8 11 30 8 11 30 8 11 30 8 11 30 9 12 31 9 12 31 8 11 30 9 12 31 8 11 30 8 11 30 9 12 31 8 11 30 9 12 31 9 12 31 9 12 31 9 12 31 9 12 31 8 11 30 8 11 30 8 11 30 8 11 30 9 10 30 10 11 31 8 11 28 6 9 28 10 12 33 11 13 36 12 14 37 24 26 65 22 25 66 30 34 81 34 37 90 35 36 90 36 39 94 37 38 94 31 34 85 31 35 83 25 24 64 18 21 54 18 19 49 10 12 33 8 13 33 8 10 31 8 10 31 8 11 30 8 11 30 8 11 30 9 12 31 10 11 31 9 12 31 9 12 31 9 10 30 10 11 31 9 12 31 9 12 31 9 12 31 9 12 31 9 12 31 9 12 31 9 12 31 9 12 31 9 12 31 9 12 31 9 12 31 9 12 31 9 12 31 9 12 31 9 12 31 9 12 31 9 12 31 9 12 31 9 12 31 9 12 31 9 12 31 8 11 30 8 11 30 7 10 29 
31 37 89 35 40 96 40 41 97 36 39 92 35 36 90 31 34 85 22 24 63 22 24 62 13 17 42 12 14 37 10 13 32 7 10 29 8 11 30 10 11 31 9 12 31 9 12 31 8 11 30 8 11 30 8 11 30 8 11 30 8 11 30 8 11 30 8 11 30 9 12 31 9 12 31 9 12 31 8 11 30 8 11 30 8 11 30 8 11 30 8 11 30 8 11 30 8 11 30 8 11 30 8 11 30 8 11 30 8 11 30 8 11 30 8 11 30 8 11 30 9 12 31 9 12 31 9 12 31 9 12 31 9 12 31 10 11 31 9 12 31 8 11 28 9 12 31 11 16 38 13 15 38 21 26 64 24 26 65 30 32 80 35 36 90 34 37 92 36 39 94 36 38 95 31 34 85 32 34 83 24 26 65 18 21 54 18 19 49 10 12 35 10 12 33 9 10 31 9 10 30 9 10 30 10 13 32 8 11 28 9 12 31 9 10 30 8 11 30 10 11 31 9 10 30 9 12 31 9 12 31 9 12 31 9 12 31 9 12 31 9 12 31 9 12 31 9 12 31 9 12 31 9 12 31 9 12 31 9 12 31 9 12 31 9 12 31 9 12 31 9 12 31 9 12 31 9 12 31 9 12 31 9 12 31 10 13 32 9 12 31 8 11 30 9 12 31 7 10 29 
35 38 91 32 35 86 32 34 85 27 30 71 22 24 63 22 25 60 14 16 41 15 16 44 11 13 34 9 12 31 9 11 32 10 11 31 8 11 30 8 11 30 10 11 31 9 12 31 9 12 31 8 11 30 9 12 31 10 11 31 8 11 30 9 12 31 10 11 31 9 12 31 9 12 31 8 11 30 8 11 30 10 11 31 9 12 31 9 12 31 8 11 30 8 9 29 9 10 30 8 10 31 7 10 29 8 11 30 9 10 30 9 12 31 8 11 30 9 11 32 9 10 30 8 10 33 9 10 30 10 11 31 8 13 32 9 11 32 12 16 41 15 17 42 16 19 50 23 27 65 22 26 64 31 35 83 33 35 84 33 36 89 36 39 94 34 37 88 30 32 80 29 33 81 20 23 58 21 24 59 16 17 47 13 15 38 13 15 38 8 10 31 9 11 32 9 12 31 8 11 30 7 12 31 10 11 31 9 12 31 8 11 30 8 11 30 8 11 30 8 11 30 9 12 31 9 12 31 9 12 31 8 11 30 8 11 30 8 11 30 9 12 31 9 12 31 9 12 31 8 11 30 9 12 31 8 11 30 9 12 31 9 11 32 9 10 30 10 11 31 11 12 32 9 10 30 9 12 31 9 10 30 8 11 30 8 11 30 9 11 32 9 12 31 10 12 35 13 15 40 
37 40 95 29 31 79 28 31 76 24 27 62 17 18 46 15 16 44 9 12 31 10 11 31 10 11 29 9 10 31 10 11 31 8 11 30 7 10 29 9 12 31 10 11 31 9 12 31 9 12 31 9 12 31 8 11 30 10 11 31 9 12 31 9 12 31 11 12 32 9 12 31 8 11 30 8 11 30 9 12 31 10 11 31 8 10 31 8 11 30 8 10 31 8 11 30 9 12 31 8 11 30 9 12 31 8 11 30 9 10 30 9 10 31 8 11 30 7 12 31 8 11 30 8 10 31 9 12 31 6 11 30 9 11 32 9 11 32 16 18 43 18 22 51 21 26 58 30 34 81 29 33 80 36 39 92 35 41 93 37 40 95 36 37 93 33 36 87 26 29 72 25 28 71 14 15 43 14 16 41 11 13 34 9 12 31 9 12 29 8 11 30 8 11 30 8 11 30 9 12 31 9 12 31 8 11 30 8 11 30 9 12 31 10 11 31 9 12 31 9 12 31 8 11 30 8 11 30 9 12 31 8 11 30 8 11 30 8 11 30 9 12 31 9 12 31 9 12 31 8 11 30 9 12 31 8 11 28 9 10 30 9 12 31 8 11 30 9 12 31 8 9 29 10 11 32 9 10 30 9 10 30 8 11 30 9 12 31 8 11 30 8 11 30 13 15 40 15 16 44 
