P3
100 50
255
17 21 58 16 20 58 16 20 57 16 20 58 16 20 57 16 20 58 16 20 57 17 21 59 17 21 58 17 21 58 17 21 58 15 19 56 16 20 58 16 20 58 16 20 58 16 20 58 17 21 58 17 21 59 17 21 58 17 21 59 17 21 59 17 21 58 17 21 59 17 21 58 17 21 59 17 21 58 17 21 58 17 21 59 17 21 59 17 21 58 17 21 58 16 20 58 17 21 59 17 21 58 17 21 59 17 21 58 17 21 58 17 21 58 18 22 60 17 21 58 17 21 58 18 22 59 18 22 60 16 21 59 16 20 57 16 20 57 15 23 60 18 21 62 23 26 69 27 31 79 28 31 82 43 46 115 41 45 116 48 54 128 53 59 137 52 59 139 52 58 144 53 59 145 51 56 138 51 56 138 43 48 116 39 43 106 32 37 95 18 23 63 20 22 63 17 21 59 17 19 58 16 21 59 18 22 60 17 21 59 18 20 59 17 21 59 17 21 58 17 21 59 17 21 58 17 21 58 17 21 59 17 21 59 17 21 58 17 21 59 17 21 59 17 21 59 17 21 59 17 21 59 17 21 59 17 21 59 17 21 59 17 21 59 17 21 59 17 21 59 17 21 59 17 21 59 17 21 59 17 21 59 17 21 59 17 21 59 17 21 59 17 21 59 17 21 59 17 21 59 
16 20 58 17 21 58 17 21 59 16 20 57 16 20 58 17 21 58 16 20 58 17 21 58 18 22 59 16 20 57 17 21 58 17 21 58 17 21 59 17 21 59 17 21 59 16 20 58 16 20 57 17 21 59 16 20 57 17 21 59 16 20 58 17 21 58 16 20 58 17 21 58 17 21 59 17 21 58 17 21 58 17 21 59 17 21 59 17 21 58 17 21 58 17 21 59 17 21 58 17 21 58 16 20 57 17 21 58 16 20 57 17 21 58 16 20 57 17 21 59 17 21 59 18 22 60 19 22 63 19 22 63 25 28 71 24 27 72 31 34 87 31 36 92 35 39 100 40 45 111 40 45 113 45 51 125 46 52 126 48 54 128 48 54 130 47 53 129 48 51 128 45 51 125 50 55 137 51 54 133 46 52 126 46 50 121 42 47 115 29 32 85 27 34 86 19 22 63 19 23 61 18 20 59 16 20 58 17 21 59 17 21 59 17 21 58 17 21 58 17 21 59 17 21 58 17 21 58 17 21 59 17 21 59 17 21 58 17 21 59 17 21 59 17 21 59 17 21 59 17 21 59 17 21 59 17 21 59 17 21 59 17 21 59 17 21 59 17 21 59 17 21 59 17 21 59 17 21 59 17 21 59 17 21 59 17 21 59 17 21 59 17 21 59 17 21 59 17 21 59 
17 21 59 16 20 57 17 21 59 16 20 57 16 20 58 17 21 58 17 21 59 17 21 58 16 20 57 17 21 58 16 20 57 16 20 57 16 20 58 15 19 57 16 20 58 17 21 59 16 20 58 17 21 58 16 20 58 16 20 57 17 21 58 16 20 58 16 20 57 16 20 58 17 21 58 17 21 59 17 21 59 17 21 58 17 21 58 17 21 59 17 21 59 18 22 59 18 22 59 17 21 59 18 22 60 17 21 59 17 21 58 17 21 59 17 21 59 17 21 58 17 21 58 17 21 58 17 22 62 19 24 64 28 32 80 28 32 80 36 40 103 40 43 110 43 47 118 48 51 128 49 52 129 50 55 136 52 55 136 48 54 132 48 52 126 45 49 122 43 48 116 41 48 116 48 54 132 50 53 132 48 54 132 49 55 133 47 51 124 36 40 101 35 40 98 20 25 67 20 22 63 16 21 59 17 21 59 17 21 59 18 22 60 16 20 58 17 21 59 17 21 58 17 21 59 17 21 59 17 21 58 17 21 58 17 21 59 17 21 58 17 21 59 17 21 59 17 21 59 17 21 59 17 21 59 17 21 59 17 21 59 17 21 59 17 21 59 17 21 59 17 21 59 17 21 59 17 21 59 17 21 59 17 21 59 17 21 59 17 21 59 17 21 59 17 21 59 17 21 59 
16 20 57 16 20 58 17 21 58 16 20 58 17 21 58 16 20 58 16 20 57 16 20 58 16 20 57 16 20 57 16 20 57 17 21 58 16 20 58 16 20 58 17 21 59 16 20 58 16 20 58 17 21 58 16 20 58 16 20 57 16 20 57 17 21 59 16 20 57 16 20 58 16 20 57 17 21 59 17 21 59 17 21 58 17 21 58 17 21 59 17 21 59 17 21 58 17 21 58 17 21 58 17 21 59 17 21 59 19 23 60 17 21 58 16 21 59 18 23 63 20 23 64 23 26 69 24 28 76 26 28 77 34 36 93 32 37 92 40 45 111 43 48 116 45 49 120 45 53 128 46 52 128 48 51 128 47 50 127 41 48 120 40 45 113 39 44 110 36 40 103 35 41 101 46 50 123 45 49 122 46 52 126 48 54 132 47 51 125 39 43 107 38 43 109 25 29 76 24 26 74 19 24 64 17 21 59 17 21 59 17 21 59 18 22 60 17 21 59 17 21 58 17 21 59 17 21 59 17 21 58 17 21 58 17 21 59 17 21 58 17 21 59 17 21 59 17 21 59 17 21 59 17 21 59 17 21 59 17 21 59 17 21 59 17 21 59 17 21 59 17 21 59 17 21 59 17 21 59 17 21 59 17 21 59 17 21 59 17 21 59 17 21 59 17 21 59 17 21 59 
16 20 57 16 20 58 16 20 57 17 21 59 17 21 58 16 20 58 16 20 57 16 20 58 16 20 57 16 20 57 16 20 57 16 20 57 16 20 58 16 20 58 16 20 58 16 20 58 16 20 58 16 20 57 16 20 58 16 20 57 17 21 58 16 20 58 16 20 57 16 20 58 16 20 57 17 21 59 17 21 59 17 21 58 17 21 58 17 21 59 17 21 59 17 21 58 16 20 57 16 20 58 16 19 60 18 22 60 17 21 59 18 23 61 18 23 63 27 30 81 29 32 83 36 38 97 42 45 112 40 45 113 48 54 130 48 54 130 49 55 131 49 55 133 49 52 129 44 50 124 47 51 124 34 39 97 34 39 97 27 30 83 22 26 73 22 26 73 18 21 62 19 22 63 33 35 92 33 36 91 43 46 115 47 53 131 47 53 129 49 55 131 49 55 131 38 42 106 36 42 104 28 31 82 18 23 63 19 23 61 16 20 58 17 21 59 17 21 59 17 21 58 17 21 59 17 21 59 17 21 58 17 21 58 17 21 59 17 21 58 17 21 59 17 21 59 17 21 59 17 21 59 17 21 59 17 21 59 17 21 59 17 21 59 17 21 59 17 21 59 17 21 59 17 21 59 17 21 59 17 21 59 17 21 59 17 21 59 17 21 59 17 21 59 17 21 59 17 21 59 
16 20 58 17 21 58 16 20 58 16 20 57 16 20 58 17 21 58 16 20 58 16 20 57 17 21 58 17 21 58 16 20 57 16 20 57 18 22 60 17 21 59 16 20 58 17 21 59 16 20 58 18 22 59 16 20 58 16 20 57 18 22 59 16 20 58 17 21 58 16 20 58 16 20 57 16 20 58 17 21 59 17 21 58 17 21 58 17 21 59 17 21 59 17 21 58 16 20 57 17 21 58 16 20 57 16 20 57 17 21 58 19 22 63 18 23 61 27 30 81 30 33 84 36 38 97 42 45 112 41 46 114 48 54 130 48 53 134 50 56 132 51 54 133 48 54 130 46 50 123 44 50 124 35 40 98 34 39 97 26 32 84 23 27 74 21 24 69 19 22 63 18 22 60 33 36 89 32 34 91 43 46 117 49 52 129 47 53 129 48 54 132 49 55 133 38 43 107 38 42 105 29 30 84 18 23 61 17 22 62 18 20 59 16 20 58 17 21 59 17 21 58 17 21 59 17 21 59 17 21 58 17 21 58 17 21 59 17 21 58 17 21 59 17 21 59 17 21 59 17 21 59 17 21 59 17 21 59 17 21 59 17 21 59 17 21 59 17 21 59 17 21 59 17 21 59 17 21 59 17 21 59 17 21 59 17 21 59 17 21 59 17 21 59 17 21 59 17 21 59 
16 20 58 16 20 57 17 21 59 17 21 58 16 20 58 17 21 58 16 20 58 16 20 57 16 20 57 16 20 57 17 21 58 17 21 58 16 20 58 16 20 58 16 20 58 16 20 58 17 21 58 17 21 59 17 21 58 16 20 58 17 21 59 17 21 58 16 20 58 17 21 58 16 20 58 16 20 57 16 20 57 16 20 58 16 20 58 15 19 56 16 20 57 17 21 59 19 24 64 19 24 64 27 31 78 29 32 83 31 36 91 39 43 107 38 43 107 46 50 123 47 51 124 46 52 126 47 53 131 50 54 128 45 52 124 45 52 122 39 43 107 36 40 101 32 37 92 25 29 77 23 29 77 19 22 63 20 23 66 18 21 62 18 20 59 18 22 59 17 21 58 18 22 60 18 23 63 19 23 61 28 32 80 34 37 92 38 42 105 48 52 126 46 52 126 49 52 129 47 53 129 42 45 114 35 39 100 33 38 94 20 23 66 18 21 62 17 21 58 17 21 59 17 21 58 17 21 58 17 21 59 17 21 59 17 21 58 17 21 59 17 21 59 17 21 59 17 21 59 17 21 59 17 21 59 17 21 59 17 21 59 17 21 59 17 21 59 17 21 59 17 21 59 17 21 59 17 21 59 17 21 59 17 21 59 17 21 59 17 21 59 17 21 59 17 21 59 17 21 59 
17 21 58 16 20 58 17 21 58 16 20 58 17 21 58 17 21 59 16 20 57 17 21 59 17 21 58 17 21 58 17 21 58 17 21 58 16 20 58 17 21 59 16 20 58 16 20 58 17 21 58 16 20 58 17 21 58 16 20 58 16 20 58 17 21 58 16 20 58 17 21 58 17 21 59 17 21 58 17 21 58 16 20 58 15 19 57 16 20 57 17 21 58 17 21 59 20 23 64 19 23 61 28 30 79 32 35 88 34 36 93 42 45 114 40 45 113 46 52 128 48 54 130 50 53 132 50 56 134 50 53 132 44 51 123 46 50 123 38 42 103 35 40 98 29 34 89 19 26 72 22 26 73 17 21 59 17 21 58 17 21 58 17 21 58 16 20 57 18 20 59 16 20 58 17 21 59 16 21 59 26 30 77 32 35 86 34 39 97 45 51 125 48 52 126 48 54 132 49 55 131 45 48 119 38 42 105 38 40 101 19 22 65 19 22 65 17 21 58 17 21 59 17 21 58 17 21 58 17 21 59 17 21 59 17 21 58 17 21 59 17 21 59 17 21 59 17 21 59 17 21 59 17 21 59 17 21 59 17 21 59 17 21 59 17 21 59 17 21 59 17 21 59 17 21 59 17 21 59 17 21 59 17 21 59 17 21 59 17 21 59 17 21 59 17 21 59 17 21 59 
16 20 58 17 21 59 16 20 58 16 20 58 16 20 58 16 20 58 17 21 59 16 20 58 16 20 57 17 21 59 17 21 59 16 20 58 17 21 59 16 20 57 17 21 59 17 21 58 17 21 58 16 20 58 16 20 58 16 20 57 16 20 58 18 20 59 18 20 59 16 20 57 16 20 57 18 21 56 16 20 58 18 22 60 18 21 64 20 25 67 24 28 73 24 28 75 33 36 89 32 34 91 37 41 102 40 45 109 41 44 113 46 50 123 46 50 124 47 51 125 45 51 125 45 49 120 41 46 114 40 45 111 33 38 94 34 39 97 26 32 82 26 30 77 24 28 75 19 24 66 19 22 63 17 21 59 17 21 59 18 22 60 16 18 59 18 20 58 17 21 58 17 21 58 17 21 58 17 21 59 22 25 68 25 28 73 27 31 79 37 41 104 38 42 105 45 51 125 50 52 127 47 49 124 44 48 119 43 48 116 31 34 89 31 34 87 21 26 68 19 22 63 17 22 62 17 21 59 18 20 59 18 22 60 17 21 59 17 21 59 17 21 58 17 21 59 17 21 59 17 21 58 17 21 59 17 21 58 17 21 59 17 21 59 17 21 58 17 21 58 17 21 58 17 21 59 17 21 58 17 21 58 17 21 56 17 21 58 17 21 58 17 21 58 17 21 58 17 21 58 
16 20 58 18 22 60 17 21 59 16 20 58 17 21 59 18 22 60 17 21 59 17 21 59 16 20 58 16 20 58 17 21 58 16 20 57 17 21 58 17 21 58 16 20 57 16 20 58 16 20 58 17 21 59 16 20 58 17 21 58 16 20 58 16 20 58 16 20 57 16 20 55 16 20 57 18 20 58 16 20 57 18 23 63 21 24 67 24 28 73 32 35 90 32 35 90 43 48 116 42 46 117 46 53 125 48 54 132 50 56 134 49 55 133 48 54 130 45 49 122 45 49 120 39 43 106 32 37 93 31 37 89 21 26 64 21 26 68 17 22 60 17 21 58 18 22 60 16 20 58 16 20 58 17 21 58 17 21 59 17 21 58 17 21 59 17 21 59 17 21 59 17 21 58 17 21 58 17 21 58 17 21 59 17 21 59 20 25 65 27 33 83 29 33 81 43 50 120 45 51 125 47 53 129 49 55 133 48 54 132 39 44 108 41 45 109 23 29 77 20 25 65 19 24 64 16 20 57 17 21 59 17 21 59 17 21 58 17 21 59 17 21 58 17 21 59 17 20 61 17 21 58 17 21 58 17 21 58 17 21 59 17 21 59 17 21 59 17 21 58 17 21 58 17 21 58 17 21 58 17 21 58 17 21 59 17 21 59 17 21 58 17 21 58 17 21 58 17 21 59 
16 20 58 16 20 58 17 21 59 16 20 58 16 20 58 17 21 59 16 20 58 16 20 58 17 21 59 16 20 58 17 21 58 16 20 58 17 21 58 17 21 59 16 20 58 17 19 58 16 20 57 16 20 58 17 21 56 16 20 57 17 21 59 16 20 58 17 21 58 17 21 58 17 21 58 18 22 60 18 23 61 22 27 69 23 26 71 26 30 78 32 37 93 34 36 93 44 48 119 43 48 114 48 52 126 48 54 130 49 52 129 48 51 128 49 53 127 42 47 113 39 46 114 37 41 102 32 34 91 30 33 86 20 25 65 20 25 65 18 22 57 17 21 58 18 20 58 16 20 57 16 20 58 17 21 59 17 21 59 17 21 58 17 21 59 16 22 58 18 22 59 17 21 59 17 21 59 17 21 59 18 22 60 17 21 58 19 23 61 27 31 78 28 32 80 43 46 115 43 50 120 46 52 126 48 54 132 47 53 129 42 45 112 42 45 112 28 34 84 23 27 72 21 25 70 17 21 59 17 21 59 17 21 58 18 22 59 17 21 58 18 22 60 17 21 58 17 21 58 17 21 58 17 21 58 17 21 58 17 21 58 17 21 59 17 21 58 17 21 58 17 21 58 17 21 59 17 21 58 17 21 59 17 21 58 17 21 58 17 21 58 17 21 58 17 21 58 17 21 59 
17 21 59 16 20 58 16 20 58 16 20 58 16 20 58 16 20 58 16 20 58 17 21 59 16 20 57 16 20 58 16 20 57 16 20 58 17 21 59 16 20 58 16 20 55 15 19 56 16 20 58 18 20 59 16 20 57 16 20 57 16 20 57 16 20 57 18 23 61 21 24 67 22 27 69 34 36 93 32 37 93 41 46 112 44 48 119 47 51 124 49 55 131 49 55 131 49 55 131 48 54 132 45 49 122 44 48 119 42 45 112 31 36 91 31 36 91 21 26 68 20 25 67 18 23 63 17 21 58 17 21 58 16 20 58 16 20 58 17 21 59 18 22 60 17 21 58 17 21 58 17 21 59 17 21 58 17 21 59 17 21 58 17 21 58 17 21 58 17 21 59 17 21 59 17 21 58 17 21 58 17 21 58 17 21 58 17 21 59 16 20 55 17 21 58 27 29 77 28 30 79 37 41 104 45 49 122 47 51 124 49 55 133 50 56 134 42 49 119 42 45 114 33 38 96 22 26 71 22 26 71 18 20 58 16 20 58 17 21 58 17 21 58 17 21 58 17 21 58 17 21 58 17 21 58 17 21 59 17 21 59 17 21 59 17 21 58 17 21 58 17 21 59 17 21 56 17 21 59 17 21 58 17 21 58 17 21 58 17 21 59 17 21 59 17 21 58 17 21 58 
17 21 59 16 20 58 16 20 58 18 22 60 17 21 59 16 20 58 16 20 58 16 20 58 18 20 58 16 20 57 17 21 59 18 20 59 17 21 59 17 21 58 16 20 57 15 21 57 17 19 58 17 21 59 16 20 55 16 20 57 15 19 56 15 19 54 19 23 61 21 26 68 22 27 67 34 37 92 32 37 93 42 45 114 45 49 122 47 51 125 49 55 133 50 53 130 49 55 133 48 54 130 46 50 123 44 48 121 41 46 110 31 36 91 31 36 91 23 26 71 20 24 69 17 22 64 16 20 58 17 21 58 17 21 59 17 21 59 17 21 59 16 20 57 17 21 58 17 21 58 17 21 59 17 21 56 17 21 58 17 21 58 17 21 56 17 21 59 17 21 59 18 22 60 18 22 59 17 21 58 17 21 58 17 21 58 17 21 59 16 20 58 16 20 58 26 30 77 28 32 79 38 40 101 43 50 120 45 52 124 50 56 132 49 55 133 43 47 118 42 45 112 33 39 99 22 27 69 22 26 71 17 19 57 15 19 56 17 21 59 17 21 58 17 21 58 17 21 58 17 21 58 17 21 58 17 21 59 17 21 59 17 21 56 17 21 59 17 20 61 17 21 58 17 21 58 17 21 58 17 21 59 17 21 58 17 21 59 17 21 59 17 21 59 17 21 58 17 21 58 
16 20 58 16 20 58 15 19 57 17 21 59 17 21 59 16 20 58 17 21 59 17 21 59 17 21 58 17 21 58 17 21 59 18 22 59 17 19 58 17 19 57 16 20 57 16 20 57 16 20 57 17 21 58 19 24 66 20 25 67 28 31 82 30 33 84 34 39 97 39 44 108 40 45 109 46 50 124 47 51 124 48 52 126 46 52 128 47 51 125 45 49 120 45 49 120 37 39 98 37 39 98 29 32 85 25 29 77 24 28 75 20 23 66 21 24 65 17 21 59 17 21 59 17 21 59 17 21 58 17 21 59 17 21 59 17 21 58 18 22 59 16 22 58 17 21 58 17 21 58 17 21 59 17 21 58 17 21 59 17 21 58 17 21 58 17 21 56 17 21 56 17 21 56 17 21 58 17 21 59 17 21 58 17 21 58 17 21 59 17 21 59 17 21 59 20 23 64 21 23 64 26 30 77 31 34 87 33 36 91 44 50 124 47 51 124 47 50 127 48 51 128 43 47 120 38 42 106 38 42 106 23 25 73 23 26 71 18 23 63 17 21 59 17 21 58 17 21 58 17 21 59 17 21 59 17 21 58 17 21 58 17 21 56 17 21 58 17 21 58 17 21 59 17 21 58 17 21 59 17 21 58 17 21 59 17 21 58 17 21 58 17 21 58 17 21 58 17 21 59 
15 19 57 16 20 58 16 20 58 16 20 58 16 20 58 16 20 58 16 20 58 16 20 58 15 20 58 16 20 57 16 20 58 17 21 58 17 19 57 17 19 57 16 20 57 17 21 58 16 20 58 18 23 61 20 24 69 21 25 70 33 36 91 35 37 94 39 43 107 45 49 120 46 50 123 48 54 132 48 54 130 49 55 131 47 53 129 44 51 123 42 47 115 42 46 117 32 33 87 30 33 86 24 28 73 18 23 63 20 24 62 16 20 58 16 20 58 16 20 58 16 20 57 17 21 59 17 21 56 17 21 59 17 21 59 17 21 58 17 21 58 17 21 58 17 21 58 17 21 58 17 21 58 17 21 58 17 21 59 17 21 58 16 20 58 16 20 57 16 20 58 17 21 59 17 21 58 18 22 57 17 21 58 17 21 59 17 21 59 17 21 58 17 21 58 16 20 57 16 20 58 22 25 68 25 29 74 28 32 80 44 48 119 45 49 120 47 53 129 48 54 132 47 53 127 43 47 118 44 49 117 25 28 73 25 28 73 20 23 64 16 20 57 17 21 58 17 21 58 17 21 59 17 21 58 17 21 58 17 21 58 17 21 59 17 21 56 17 21 58 17 21 58 17 21 59 17 21 58 17 21 58 17 21 58 17 21 58 17 21 58 17 21 58 17 21 58 17 21 59 
17 21 59 16 20 58 17 21 59 17 21 59 16 20 58 17 21 59 16 20 58 15 19 57 17 21 59 17 21 58 17 19 57 17 19 57 17 21 58 19 22 63 19 22 63 23 26 69 23 27 72 24 31 77 30 35 90 30 35 90 39 43 106 39 44 108 40 47 115 44 50 124 47 51 124 47 51 124 47 51 124 41 46 114 40 45 111 38 44 106 35 37 96 34 39 97 26 29 74 26 28 76 21 26 68 20 24 62 17 22 64 17 21 58 16 20 58 17 21 58 17 21 58 17 21 58 17 21 58 17 21 58 16 20 58 17 21 58 17 21 58 17 21 59 17 21 58 17 21 58 17 21 59 17 21 59 17 21 59 16 20 57 17 21 59 18 22 60 17 21 59 18 22 59 17 21 58 17 21 59 17 21 59 17 21 58 17 21 58 18 22 59 17 21 58 17 21 59 17 21 58 21 24 65 23 26 69 24 28 75 34 40 100 36 40 103 43 50 122 46 53 125 45 52 124 44 50 124 43 50 122 33 36 91 33 36 91 24 28 75 21 24 65 19 23 61 17 21 58 16 20 57 17 21 56 18 22 59 18 22 59 17 21 58 17 21 59 17 21 58 17 21 58 17 21 58 17 21 58 17 21 58 17 21 58 17 21 58 17 21 58 17 21 58 17 21 58 17 21 58 
16 20 58 16 20 57 16 20 57 16 20 57 16 20 57 17 21 59 17 21 58 16 20 58 16 20 58 17 21 56 17 21 58 17 21 58 17 21 58 19 26 68 21 25 70 29 34 89 35 40 98 38 42 105 46 50 123 46 50 124 49 52 131 48 54 132 49 55 133 47 53 129 46 52 128 41 44 111 40 43 112 31 37 89 29 32 83 25 29 74 20 23 64 18 23 63 16 20 57 16 20 57 16 20 57 16 20 57 17 21 58 17 21 59 17 21 59 17 21 59 17 21 58 17 21 58 17 21 58 17 21 58 17 21 58 17 21 58 17 21 58 17 21 58 17 21 58 17 21 58 17 21 58 17 21 58 17 21 58 17 21 58 17 21 58 17 21 58 17 21 58 17 21 58 17 21 58 17 21 58 17 21 58 17 21 58 17 21 58 17 21 58 17 21 59 17 21 58 17 21 58 17 21 59 17 21 59 17 21 59 22 26 73 20 27 73 36 42 104 42 47 113 43 50 122 48 54 130 48 53 134 44 48 119 45 48 119 34 37 92 25 29 76 25 28 73 18 20 58 16 19 60 17 21 59 17 21 58 17 21 58 16 21 59 17 21 58 17 21 58 17 21 58 16 20 57 17 21 58 17 21 58 17 21 59 16 20 58 17 21 58 17 21 58 17 21 58 17 21 58 
17 21 58 17 21 58 16 20 57 16 20 57 16 20 57 18 22 59 17 21 58 17 21 58 17 21 58 16 20 57 17 21 56 17 21 58 17 21 58 20 27 71 21 25 72 28 35 87 35 40 96 37 42 106 46 50 123 46 50 124 48 54 128 49 55 131 48 54 130 47 53 129 47 53 129 41 44 111 41 44 111 30 35 90 28 31 82 25 29 74 16 24 63 17 22 60 16 20 57 17 21 58 16 20 57 16 20 57 17 21 59 18 22 60 17 21 59 17 21 58 17 21 58 17 21 58 17 21 58 17 21 58 17 21 58 17 21 58 17 21 58 17 21 58 17 21 58 17 21 58 17 21 58 17 21 58 17 21 58 17 21 58 17 21 58 17 21 58 17 21 58 17 21 58 17 21 58 17 21 58 17 21 58 17 21 58 17 21 58 17 21 58 17 21 59 17 21 58 17 21 59 17 21 58 17 21 58 17 21 59 21 25 72 22 26 74 37 43 105 42 47 113 44 51 123 50 53 130 49 55 133 43 47 118 44 48 119 32 37 93 27 28 76 24 27 72 16 20 57 16 20 58 17 21 58 17 21 58 18 20 58 17 21 58 17 21 58 17 21 58 17 21 58 18 22 59 17 21 58 16 20 57 17 21 58 17 21 58 17 21 58 17 21 58 17 21 58 17 21 58 
17 21 58 16 20 58 16 20 57 16 20 57 16 20 55 16 20 55 17 21 59 17 21 58 23 26 69 25 28 71 30 33 86 36 40 103 34 40 98 45 52 124 47 51 124 48 54 130 48 54 132 49 55 131 46 52 128 49 52 129 41 44 111 40 43 110 32 37 93 27 31 79 26 30 78 19 23 60 18 23 63 16 20 57 17 20 55 16 20 55 17 20 55 17 20 55 16 20 57 16 20 57 16 20 57 16 20 57 17 21 58 16 20 57 16 20 58 17 21 59 17 21 58 17 21 58 17 21 58 17 21 58 17 21 58 17 21 58 17 21 58 17 21 58 17 21 58 17 21 58 17 21 58 17 21 58 17 21 58 17 21 58 17 21 58 17 21 58 17 21 58 17 21 58 17 21 58 17 21 58 17 21 58 17 21 58 17 21 58 17 21 58 17 21 58 17 21 58 17 21 58 17 21 58 17 21 58 16 20 57 17 21 58 15 20 58 20 25 67 19 24 66 27 33 85 41 46 114 41 46 110 49 55 133 50 56 132 45 51 127 43 49 123 41 46 112 27 31 79 27 31 79 18 22 60 17 19 58 17 21 58 17 21 58 17 21 58 17 21 58 17 21 59 17 21 58 17 21 58 17 21 58 17 21 58 17 21 58 17 21 58 17 21 58 17 21 58 17 21 58 
16 20 57 17 21 59 16 20 57 16 20 57 17 21 56 16 20 55 16 20 57 17 21 58 23 26 69 25 27 75 29 32 83 35 40 98 35 41 99 45 51 125 45 51 125 47 53 127 48 54 132 49 55 133 47 53 129 48 51 128 41 44 113 40 44 108 33 38 96 27 31 79 26 30 78 18 21 62 17 21 59 17 21 58 16 20 55 17 21 58 16 20 57 17 21 58 16 20 57 17 21 58 18 22 59 17 21 59 15 19 57 17 21 59 18 22 59 17 21 58 17 21 58 17 21 58 17 21 58 17 21 58 17 21 58 17 21 58 17 21 58 17 21 58 17 21 58 17 21 58 17 21 58 17 21 58 17 21 58 17 21 58 17 21 58 17 21 58 17 21 58 17 21 58 17 21 58 17 21 58 17 21 58 17 21 58 17 21 58 17 21 58 17 21 59 17 21 58 17 21 58 17 21 58 17 21 58 17 21 59 16 20 58 16 20 58 20 25 67 21 25 70 27 33 85 40 45 111 41 44 111 48 54 132 50 53 130 45 51 127 43 50 122 40 45 111 28 32 80 27 31 79 19 21 60 18 20 58 17 21 59 17 21 58 17 21 59 17 21 58 17 21 58 17 21 58 17 21 59 18 22 59 17 21 59 17 21 58 17 21 58 17 21 58 17 21 58 17 21 58 
16 20 57 17 21 58 18 22 60 19 24 64 23 26 67 23 26 71 31 34 87 30 33 86 36 40 101 38 42 106 41 46 112 44 48 121 45 49 122 46 52 126 46 52 126 43 50 122 43 47 118 40 45 111 34 39 95 36 38 95 27 31 79 25 29 76 23 26 71 21 24 65 20 24 62 17 21 59 17 21 58 17 21 58 16 20 57 16 20 58 16 20 57 16 22 58 16 20 58 17 21 58 16 20 57 16 20 57 16 20 57 16 20 57 16 20 57 16 20 58 17 21 58 17 21 58 17 21 58 17 21 58 17 21 58 17 21 58 17 21 58 17 21 58 17 21 58 17 21 58 17 21 58 17 21 58 17 21 58 17 21 58 17 21 58 17 21 58 17 21 58 17 21 58 17 21 58 17 21 58 17 21 58 17 21 58 17 21 58 17 21 58 17 21 58 17 21 59 17 21 59 17 21 58 17 21 59 17 21 58 16 20 57 16 20 57 17 21 59 18 22 60 22 25 68 28 34 84 30 33 86 43 47 118 44 48 119 44 50 124 49 53 127 47 51 124 38 43 107 39 43 107 26 30 78 25 29 76 22 25 66 17 21 56 17 21 59 17 21 58 17 21 58 17 21 58 17 21 59 17 21 58 17 21 58 17 21 58 17 21 58 17 21 58 17 21 58 17 21 58 
16 20 55 15 23 59 18 22 60 23 26 69 26 30 77 28 30 79 37 41 102 36 42 102 44 48 119 47 51 125 45 51 127 48 54 132 49 55 133 46 52 126 47 53 129 43 46 113 40 44 107 36 40 101 26 30 77 27 29 77 19 22 63 18 22 60 17 21 58 17 21 56 16 20 55 16 20 58 16 20 57 17 21 59 16 20 57 15 21 57 16 20 58 17 19 58 17 21 58 16 20 58 17 21 59 16 20 58 16 20 58 16 20 57 15 19 56 16 20 57 16 20 57 17 21 58 17 21 58 17 21 58 17 21 58 17 21 58 17 21 58 17 21 58 17 21 58 17 21 58 17 21 58 17 21 58 17 21 58 17 21 58 17 21 58 17 21 58 17 21 58 17 21 58 17 21 58 17 21 58 17 21 58 17 21 58 17 21 58 17 21 58 17 21 58 17 21 58 17 21 58 17 21 59 16 20 57 16 20 57 16 20 57 16 20 55 18 20 58 17 21 56 18 22 60 20 25 67 20 25 67 40 43 110 40 43 110 44 51 123 48 54 130 48 54 130 45 49 123 44 51 123 30 35 90 30 33 84 24 26 74 17 19 57 17 21 58 17 21 58 17 21 58 17 21 58 17 21 59 17 21 58 18 22 59 17 21 59 17 21 58 17 21 58 17 21 58 17 21 58 
19 23 60 21 25 70 24 27 72 27 30 81 32 35 88 34 37 92 40 45 109 40 45 109 46 50 121 47 51 125 45 51 127 44 51 123 45 51 125 42 47 115 42 47 113 37 41 102 36 38 99 32 35 90 24 29 71 24 27 72 19 23 61 17 20 61 17 21 58 16 20 57 16 20 57 15 19 56 16 20 57 16 20 58 16 20 57 15 19 56 14 22 59 16 20 58 16 20 58 17 21 59 16 20 57 17 21 58 16 20 57 16 20 57 17 21 58 16 20 57 15 19 56 16 20 57 17 21 58 17 21 58 17 21 58 17 21 58 17 21 58 17 21 58 17 21 58 17 21 58 17 21 58 17 21 58 17 21 58 17 21 58 17 21 58 17 21 58 17 21 58 17 21 58 17 21 58 17 21 58 17 21 58 17 21 58 17 21 58 17 21 58 17 21 58 17 21 58 17 21 58 17 21 56 18 22 60 18 22 59 20 23 64 19 23 60 17 21 58 17 21 58 18 23 63 19 24 64 19 24 64 33 38 96 37 37 97 42 47 115 47 51 125 45 51 125 48 52 126 45 51 125 35 40 98 33 38 94 25 33 80 21 24 65 22 25 68 17 21 58 17 21 58 16 20 57 17 21 58 17 21 59 17 21 58 17 21 59 17 21 58 17 21 58 17 21 58 17 21 58 
26 30 77 39 40 104 40 44 107 43 47 120 49 51 126 47 51 125 49 55 131 49 55 133 48 52 126 48 50 125 44 49 117 37 41 102 36 40 103 26 29 74 25 29 76 21 24 67 16 21 59 17 21 59 16 20 57 17 20 55 17 19 58 17 21 58 16 20 57 16 20 57 17 21 56 16 20 57 16 20 55 16 20 55 14 20 56 16 20 57 17 19 57 16 20 58 16 20 58 15 19 57 16 20 58 16 20 57 16 20 57 17 21 58 17 21 58 16 20 57 15 19 56 16 20 57 17 21 58 17 21 58 17 21 58 17 21 58 17 21 58 17 21 58 17 21 58 17 21 58 17 21 58 17 21 58 17 21 58 17 21 58 17 21 58 17 21 58 17 21 58 17 21 58 17 21 58 17 21 58 17 21 58 17 21 58 17 21 58 17 21 58 16 20 58 17 21 59 17 21 59 18 22 60 20 24 62 21 24 65 27 29 77 27 31 78 21 24 65 19 22 63 19 23 61 15 19 54 16 20 55 20 23 64 21 23 64 32 35 90 38 42 105 40 45 111 48 54 130 49 55 131 48 52 126 49 53 127 39 43 107 31 34 87 30 32 83 17 21 58 17 21 58 17 21 59 17 21 58 17 21 58 17 21 58 16 20 58 17 21 58 17 21 58 17 21 58 17 21 58 
26 30 77 36 41 99 39 45 107 43 48 116 48 51 128 49 52 129 48 54 132 51 54 133 47 53 127 48 52 126 44 49 117 35 41 103 37 41 102 25 29 76 26 28 76 20 23 66 17 21 59 17 21 58 16 20 57 16 21 53 17 21 58 16 20 57 16 20 58 17 21 58 16 20 57 16 20 57 16 20 57 16 20 57 16 20 57 16 20 57 16 20 57 16 20 57 16 20 57 17 21 58 17 21 58 16 20 57 16 20 57 16 20 57 16 20 57 16 20 57 16 20 57 16 20 57 16 20 57 16 20 57 17 21 58 17 21 58 17 21 58 17 21 58 17 21 58 17 21 59 17 21 59 18 20 58 17 21 58 17 21 59 18 22 59 17 21 58 18 22 59 17 21 58 17 21 58 16 22 58 17 21 58 17 21 59 18 20 59 16 20 57 17 19 58 17 21 58 17 19 58 18 22 60 19 22 63 22 23 67 26 30 77 27 29 77 21 24 67 19 22 63 18 22 60 16 20 57 14 20 54 20 23 64 20 21 65 30 36 88 37 41 104 42 45 112 48 54 130 50 53 130 46 52 126 46 52 126 39 43 106 29 34 89 28 34 86 17 21 56 17 21 59 16 20 57 17 21 59 18 22 59 17 21 58 17 21 58 17 21 58 17 21 59 17 21 59 17 21 59 
45 49 122 47 53 127 47 53 129 46 52 126 46 50 124 45 52 124 36 42 104 38 42 103 30 33 86 29 31 80 25 29 76 19 24 62 19 22 63 17 21 58 19 21 59 18 22 60 16 20 58 16 20 57 16 20 57 16 20 57 16 20 57 16 20 57 16 20 57 17 21 59 16 20 57 16 20 57 16 20 57 16 20 57 16 20 57 16 20 57 16 20 57 16 20 57 17 21 58 16 20 57 16 20 57 17 21 58 16 20 57 16 20 57 16 20 57 16 20 57 16 20 57 16 20 57 16 20 57 16 20 58 16 20 57 17 21 58 17 21 58 17 21 58 17 21 58 17 21 58 17 21 58 17 21 58 17 21 58 17 21 58 17 21 58 17 21 58 17 21 58 17 21 59 17 21 59 16 20 57 18 20 58 17 21 56 18 22 60 21 24 69 21 26 68 32 35 90 34 37 92 37 41 102 41 44 113 41 44 111 45 49 122 45 49 122 38 42 106 36 40 101 31 36 92 20 24 69 22 26 71 17 21 58 17 21 58 20 23 64 20 25 67 25 29 76 37 43 101 37 41 104 48 52 126 49 52 129 47 53 127 46 50 124 44 48 121 32 35 88 32 35 88 21 24 65 17 20 61 17 21 58 17 21 58 17 21 58 17 21 58 17 21 58 17 21 58 17 21 58 
48 52 126 51 54 131 49 55 133 48 51 128 46 50 123 45 49 122 38 40 99 35 39 100 28 32 80 25 28 73 22 25 66 18 20 58 17 21 58 16 20 58 18 20 58 17 21 58 16 20 58 16 20 57 16 20 58 16 20 57 17 21 58 16 20 57 16 20 57 16 20 58 16 20 57 16 20 57 16 20 57 16 20 57 17 21 58 16 20 57 16 20 57 17 21 58 17 21 58 16 20 57 17 21 58 16 20 57 16 20 57 16 20 57 16 20 57 16 20 57 16 20 57 17 21 58 16 20 57 16 20 58 16 20 57 16 20 58 17 21 58 17 21 58 17 21 58 17 21 58 17 21 58 17 21 58 17 21 58 17 21 58 17 21 58 17 21 58 17 21 58 17 21 58 16 20 57 15 21 57 16 22 58 17 21 58 18 21 62 21 25 72 21 26 68 36 39 94 33 40 95 39 43 107 44 47 116 43 47 118 49 52 129 46 52 128 40 45 109 38 44 106 32 37 93 22 26 74 23 27 72 16 20 57 17 21 58 17 22 60 19 22 63 23 27 72 35 39 100 34 40 98 46 52 126 49 55 133 47 53 129 48 52 126 46 50 124 34 37 92 32 37 92 21 25 70 18 22 60 17 21 58 20 20 58 16 20 57 17 21 58 17 21 58 17 21 58 17 21 58 
45 51 125 43 48 116 42 47 115 38 42 105 34 38 99 32 37 93 26 30 78 26 30 78 20 28 67 21 24 65 19 23 61 17 21 58 17 21 58 16 20 57 16 20 57 16 20 57 17 21 58 17 21 58 16 20 58 16 20 57 16 20 57 16 20 57 16 20 57 16 20 57 16 20 57 16 20 57 16 20 57 16 20 57 16 20 57 16 20 57 17 21 58 16 20 57 16 20 57 16 20 57 17 21 58 16 20 57 16 20 57 16 20 57 15 19 56 17 21 58 16 20 57 17 21 58 16 20 58 17 21 58 16 20 58 17 21 58 17 21 58 18 22 59 17 21 59 17 21 58 17 21 58 17 21 58 17 21 58 16 20 57 17 21 59 17 21 59 17 21 59 19 21 60 22 25 66 21 26 66 25 29 74 27 30 81 30 33 86 33 38 96 33 38 96 41 44 113 42 47 115 44 48 119 46 50 123 46 49 126 48 51 128 48 51 128 43 50 120 43 50 122 39 44 108 31 36 92 32 37 95 18 23 63 19 23 61 18 22 60 17 21 59 20 23 64 27 30 81 26 32 82 40 44 108 42 47 115 45 49 122 48 51 130 46 52 128 40 45 111 40 45 111 30 33 86 26 28 76 24 27 70 17 21 59 18 22 60 17 21 58 17 21 58 17 21 58 17 21 58 
45 49 120 36 41 99 34 40 98 30 33 84 21 25 72 22 25 70 16 20 58 16 20 57 16 20 55 17 19 57 18 20 58 16 20 57 16 20 57 17 21 58 16 20 58 16 20 58 17 21 58 16 20 57 17 21 58 16 20 57 16 20 57 16 20 57 16 20 57 16 20 57 16 20 57 16 20 57 16 20 57 16 20 57 16 20 57 16 20 57 16 20 57 16 20 57 16 20 57 17 21 58 17 21 58 16 20 57 16 20 57 16 20 57 16 20 57 16 20 57 17 21 58 17 21 58 17 21 59 16 20 57 17 21 59 16 20 57 18 22 59 17 21 58 17 21 58 17 21 58 17 21 58 16 20 57 16 20 57 15 19 56 17 21 58 18 22 59 18 22 60 19 22 63 27 31 78 26 30 78 33 35 92 37 41 104 39 45 107 46 50 124 44 50 124 48 54 130 49 55 131 48 54 132 47 53 129 47 53 129 47 53 129 48 51 128 48 54 130 48 53 134 49 53 126 42 47 115 43 48 116 20 24 69 21 26 68 18 22 60 17 21 58 16 20 57 17 22 62 18 22 60 31 36 92 34 39 97 42 47 115 47 53 129 47 53 129 49 52 129 47 53 129 36 42 102 32 37 93 28 31 82 20 22 60 19 23 61 17 21 58 18 22 59 17 21 58 17 21 58 
40 47 115 33 38 96 32 37 93 25 31 79 20 24 69 18 26 65 16 20 58 16 20 58 17 19 57 17 19 57 18 20 58 17 19 58 15 21 57 15 21 57 16 20 57 16 20 55 16 20 57 16 20 57 16 20 57 16 20 57 15 19 56 16 20 57 16 20 57 16 20 57 16 20 57 17 21 58 16 20 57 16 20 57 16 20 57 16 20 57 16 20 57 16 20 57 17 21 58 16 20 57 17 21 58 16 20 57 16 20 57 16 20 57 16 20 57 16 20 57 16 20 57 16 20 57 16 20 57 16 20 58 16 20 57 16 20 58 17 21 58 17 21 58 17 21 58 16 20 57 17 21 58 17 21 59 18 22 60 17 21 58 19 23 60 18 23 63 21 24 69 21 24 67 29 32 83 29 32 83 35 40 98 38 42 106 40 43 110 47 51 124 46 52 126 49 53 127 49 52 129 48 52 126 47 51 124 44 50 124 46 50 123 46 50 123 47 53 129 47 53 129 48 52 126 43 48 116 44 48 119 24 28 73 24 28 75 20 23 64 17 21 58 17 21 58 18 22 60 17 21 59 31 34 87 33 35 92 38 43 109 47 51 124 47 51 124 48 54 130 49 52 129 38 43 109 37 39 100 29 35 87 20 25 65 20 25 67 18 22 60 18 22 60 18 22 59 17 21 58 
21 26 68 17 21 59 17 19 57 16 20 57 16 20 57 15 19 56 17 21 58 18 22 59 17 21 58 16 20 58 14 20 56 16 20 57 16 20 57 16 20 57 16 20 57 16 20 57 16 20 57 16 20 57 16 20 57 16 20 57 16 20 57 16 20 57 16 20 57 15 19 56 16 20 57 16 20 57 16 20 57 16 20 57 16 20 57 16 20 57 16 20 57 16 20 57 17 21 58 16 20 57 16 20 57 17 21 58 16 20 57 16 20 57 16 20 57 16 20 57 16 20 57 16 20 57 16 20 57 16 20 58 16 20 57 16 20 57 16 20 57 16 20 57 16 20 57 17 21 58 16 20 57 20 25 67 19 24 66 26 30 77 32 34 85 36 38 95 42 45 114 41 44 111 46 52 128 46 52 126 47 53 129 48 54 132 47 53 129 46 53 125 48 52 126 41 44 111 40 44 108 36 38 95 29 33 81 29 33 81 28 31 82 28 32 80 40 45 111 43 50 122 47 50 127 49 55 131 47 54 132 42 47 115 42 47 113 29 34 89 22 26 73 20 25 67 17 19 57 16 20 57 17 21 59 17 21 59 25 29 77 33 38 94 33 38 96 46 52 128 48 51 128 47 53 131 47 53 129 44 49 117 36 41 99 35 39 100 18 21 62 19 22 63 18 22 60 17 21 59 
21 25 70 17 21 59 17 19 57 17 19 57 16 20 55 16 20 55 16 20 58 16 20 57 16 20 57 17 21 59 16 20 57 16 20 57 16 20 57 16 20 58 16 20 57 16 20 57 16 20 58 16 20 57 17 21 58 17 21 58 16 20 57 16 20 58 16 20 57 15 19 56 16 20 57 16 20 57 16 20 57 16 20 57 16 20 57 16 20 57 16 20 57 16 20 57 16 20 57 17 21 58 17 21 58 16 20 57 16 20 57 16 20 57 16 20 57 16 20 57 16 20 57 16 20 57 15 19 56 16 20 57 16 20 57 16 20 57 16 20 57 16 20 57 16 20 57 16 20 57 16 20 58 20 24 69 20 25 67 26 30 78 31 34 87 33 38 96 41 44 111 41 44 111 48 52 126 48 51 128 47 53 131 50 53 130 50 54 128 48 51 128 48 52 126 41 44 111 40 44 108 36 38 95 28 31 82 29 32 83 30 33 84 28 32 80 39 44 110 43 50 120 47 51 125 50 53 132 48 54 132 42 47 113 41 48 116 28 34 86 23 27 74 20 25 67 16 20 55 16 20 57 18 22 60 19 21 62 25 29 76 34 37 92 34 39 97 46 52 128 48 51 128 47 53 129 50 53 132 42 49 121 36 41 97 35 40 98 19 22 63 20 24 62 18 22 60 17 21 59 
16 20 57 16 20 57 16 20 57 16 20 57 16 20 57 16 20 57 17 21 58 16 20 57 16 20 57 16 20 57 16 20 57 16 20 57 16 20 57 16 20 57 17 21 58 17 21 58 16 20 57 16 20 57 16 20 57 16 20 57 16 20 57 16 20 57 16 20 57 16 20 57 17 21 58 16 20 57 17 21 58 16 20 57 16 20 57 16 20 57 16 20 57 16 20 57 16 20 57 15 19 57 15 19 57 16 20 57 17 19 57 16 20 57 16 20 58 17 20 55 17 21 58 16 20 55 16 20 55 15 19 56 19 21 60 18 22 60 22 26 64 22 25 68 25 29 77 31 34 85 31 34 87 37 42 106 36 41 105 43 46 113 44 48 119 46 50 121 45 51 125 46 52 126 44 51 123 44 51 123 40 45 113 40 44 108 37 41 102 31 34 89 32 35 88 24 28 73 23 27 72 20 25 65 19 23 61 19 23 61 20 23 64 19 22 65 28 32 80 30 33 86 34 40 98 45 49 122 45 49 122 48 52 126 48 52 126 40 45 113 38 42 106 34 39 97 23 26 69 24 27 70 18 22 60 17 19 57 18 22 60 22 25 66 22 27 69 34 40 98 35 40 98 44 48 119 49 53 126 48 52 126 44 50 124 45 49 122 32 37 93 33 38 94 27 28 76 20 22 63 
16 20 57 16 20 57 16 20 57 16 20 57 16 20 57 16 20 57 16 20 57 16 20 57 16 20 57 16 20 57 16 20 57 17 21 58 17 21 58 16 20 57 16 20 57 16 20 57 16 20 57 16 20 57 16 20 57 16 20 57 16 20 57 16 20 57 16 20 57 16 20 57 16 20 57 16 20 57 16 20 57 16 20 57 16 20 57 16 20 57 15 19 56 16 20 57 16 20 57 15 21 57 16 20 57 17 21 58 16 20 57 16 20 57 16 20 57 16 20 58 17 20 55 17 21 56 16 19 54 15 19 56 17 21 59 17 21 59 23 26 71 24 28 73 28 32 80 34 39 97 33 38 96 45 49 120 44 48 119 46 52 126 47 53 131 48 54 130 48 51 128 47 53 131 44 48 119 46 50 121 37 42 106 34 39 97 33 35 94 26 30 77 26 30 75 18 23 61 16 21 59 17 21 58 16 20 57 16 20 57 16 20 57 16 20 57 24 27 72 25 28 73 34 37 92 43 47 118 43 46 115 51 54 133 50 53 130 45 49 120 44 49 117 39 43 107 26 29 74 26 28 76 18 22 59 16 20 55 17 21 58 15 19 56 19 22 63 31 33 90 32 35 90 41 48 116 48 52 125 49 53 127 48 54 132 47 53 131 38 42 105 38 42 105 28 30 79 19 23 61 
16 20 55 16 20 57 16 20 57 17 21 59 16 20 57 16 20 57 16 20 57 16 20 57 16 20 57 16 20 57 16 20 57 16 20 57 16 20 57 16 20 57 16 20 57 16 20 57 16 20 57 16 20 57 16 20 57 16 20 57 16 20 57 16 20 57 16 20 57 16 20 57 16 20 57 17 21 58 16 20 57 15 19 56 16 20 57 16 20 57 15 19 56 16 20 57 16 20 55 16 20 57 17 21 58 15 19 57 17 21 58 16 20 57 16 20 57 17 21 58 17 21 58 19 23 61 20 25 63 21 26 68 26 30 78 26 30 78 31 34 89 35 36 92 34 39 97 40 44 108 40 44 108 43 50 122 43 50 122 46 50 124 46 50 123 44 48 119 42 47 115 41 46 114 35 39 100 35 39 100 30 35 91 29 32 83 28 32 80 23 26 69 22 25 68 18 22 60 17 21 59 17 21 58 17 21 58 16 20 57 17 21 58 16 20 57 20 23 64 22 25 66 28 32 80 34 38 99 35 39 100 47 51 124 47 51 124 46 50 123 43 50 120 42 47 115 34 37 92 34 36 93 23 26 69 20 23 64 18 22 59 16 20 58 19 21 60 25 29 77 27 28 76 36 40 101 39 44 108 44 47 114 47 55 130 49 53 127 41 46 114 41 46 114 34 36 93 27 31 79 
16 20 57 16 20 57 16 20 57 16 20 57 16 20 57 16 20 55 16 20 57 16 20 58 17 21 58 17 21 58 17 21 58 16 20 57 16 20 57 16 20 57 16 20 57 16 20 57 16 20 57 16 20 57 16 20 57 16 20 57 16 20 57 16 20 57 16 20 57 16 20 57 16 20 57 16 20 57 16 20 57 16 20 57 16 20 57 16 20 57 16 20 57 16 20 57 17 21 58 17 21 58 16 20 57 15 19 56 16 20 57 16 20 55 17 20 55 19 22 63 21 24 65 24 28 73 28 31 82 30 33 86 39 43 107 38 44 106 45 49 122 45 52 124 48 52 126 48 54 130 50 53 130 46 52 126 47 53 129 42 46 117 42 45 112 38 42 103 31 34 89 32 35 88 20 25 65 21 26 68 17 22 60 16 20 57 16 20 57 18 20 58 16 20 57 17 21 58 17 21 58 17 21 58 17 21 59 17 21 59 17 21 58 17 21 56 16 20 57 17 21 58 18 21 64 23 27 74 22 26 73 41 46 114 43 48 116 45 51 125 48 54 132 47 53 129 45 49 122 43 50 120 28 34 84 28 32 80 22 27 67 16 20 58 16 20 57 17 21 59 16 22 58 25 29 76 28 31 82 34 39 97 46 50 124 46 50 123 48 54 130 47 55 130 44 49 117 39 43 106 
16 20 57 16 20 57 16 20 57 16 20 57 16 20 57 16 20 57 17 21 58 16 20 58 16 20 57 16 20 57 16 20 57 16 20 57 16 20 57 16 20 57 16 20 57 16 20 57 16 20 57 16 20 57 16 20 57 16 20 57 16 20 57 16 20 57 16 20 57 16 20 57 16 20 57 16 20 57 16 20 57 16 20 57 16 20 57 16 20 57 16 20 57 16 20 57 16 20 57 15 21 57 15 19 56 16 20 57 16 20 57 16 20 55 17 20 55 19 22 63 21 25 63 25 28 71 28 31 82 30 33 86 39 43 107 39 43 106 45 49 120 47 51 124 48 51 128 51 54 131 48 54 130 48 51 128 49 52 129 43 47 118 41 46 114 36 40 103 32 35 90 32 35 90 19 24 64 20 25 65 18 23 61 17 21 58 16 20 57 16 20 57 17 21 58 17 21 58 17 21 58 17 21 58 17 21 59 17 21 59 17 21 58 17 21 58 16 20 57 17 19 57 18 23 63 23 27 72 23 27 74 43 46 113 41 46 112 47 51 125 48 54 132 47 53 129 43 50 120 45 49 122 30 33 86 27 31 79 23 26 69 15 19 56 16 19 60 17 21 59 18 22 59 25 29 76 28 31 82 34 39 97 45 51 125 45 52 124 48 54 130 48 54 130 43 48 114 38 44 106 
16 20 55 16 20 55 16 20 57 15 19 56 16 20 57 16 20 57 16 20 57 17 21 58 16 20 57 16 20 57 16 20 57 16 20 57 16 20 57 16 20 57 16 20 57 16 20 57 16 20 57 16 20 57 16 20 57 16 20 57 16 20 57 16 20 57 16 20 57 16 20 57 16 20 57 16 20 57 16 20 57 16 20 57 16 20 57 16 20 57 17 21 56 16 20 55 16 20 57 17 21 58 19 24 64 21 26 68 24 28 75 34 37 92 33 36 91 42 45 112 41 46 110 46 50 123 50 53 130 49 53 127 50 53 130 50 53 130 45 51 125 44 50 126 43 48 116 37 41 104 37 41 105 28 32 79 27 31 78 22 25 70 18 21 62 18 22 60 16 20 57 16 20 57 16 20 58 16 20 57 16 20 57 17 21 58 17 21 58 17 21 58 17 21 58 16 20 57 16 20 57 16 20 57 17 21 58 17 21 58 16 20 57 17 21 58 17 21 59 17 21 58 16 20 57 16 20 57 17 19 58 21 25 70 21 26 68 32 37 93 40 43 110 42 47 115 50 53 130 49 55 131 45 51 125 44 51 123 37 41 102 29 33 81 27 31 78 16 22 58 17 21 58 16 20 57 15 21 57 20 23 64 27 31 78 28 30 79 44 48 121 44 48 119 49 53 127 51 54 133 
16 20 57 16 20 57 16 20 57 16 20 57 16 20 57 16 20 57 16 20 57 16 20 57 15 19 56 16 20 57 16 20 57 16 20 57 16 20 57 16 20 57 16 20 57 16 20 57 16 20 57 16 20 57 16 20 57 16 20 57 16 20 57 16 20 57 16 20 57 16 20 57 16 20 57 16 20 57 16 20 57 16 20 57 16 20 57 16 20 57 16 20 55 16 20 55 18 21 56 18 20 59 19 24 64 20 25 67 24 28 75 32 37 92 31 36 91 40 45 109 40 45 113 45 49 120 47 53 127 50 53 130 50 53 130 50 53 132 48 52 126 47 51 124 42 47 115 37 41 104 37 41 102 29 31 79 28 30 78 23 26 69 17 22 62 17 21 59 16 20 55 16 20 55 16 20 57 18 20 58 16 20 58 16 20 57 17 19 57 17 21 56 17 21 59 17 21 58 17 21 58 17 21 58 17 21 58 17 21 58 17 21 59 16 20 58 17 21 58 17 21 58 16 20 57 16 20 57 16 20 57 21 26 68 21 26 68 33 38 94 40 43 110 43 48 116 51 54 131 48 54 130 45 51 125 44 50 124 38 42 103 28 32 80 27 31 78 18 22 59 17 21 58 15 21 57 16 20 58 21 24 65 27 31 78 27 31 79 45 49 122 45 49 120 47 53 127 48 54 132 
17 20 61 18 22 60 18 22 60 18 22 60 18 22 60 18 22 59 17 21 58 17 21 59 16 20 57 16 20 57 16 20 57 16 20 57 16 20 57 16 20 57 16 20 57 16 20 57 16 20 57 16 20 57 16 20 57 16 20 57 16 20 57 16 20 57 16 20 57 16 20 57 16 20 55 16 20 55 16 20 57 17 21 58 18 22 60 20 24 62 23 26 67 23 26 67 30 33 86 29 32 85 33 38 96 34 40 102 37 41 104 43 48 116 43 47 118 44 51 123 47 51 124 45 49 122 44 48 121 44 48 119 39 44 108 40 44 107 30 37 92 28 35 89 29 32 83 25 29 76 25 29 74 20 24 62 20 23 64 17 22 60 17 21 59 16 20 58 16 20 55 16 20 57 17 21 58 17 21 58 17 21 58 17 21 58 17 21 58 17 19 58 17 21 56 16 20 57 17 21 58 18 22 60 17 21 58 17 21 58 17 21 58 16 20 57 17 21 58 16 20 57 17 21 58 18 22 59 17 21 59 17 22 62 18 23 63 24 28 73 28 31 82 31 37 89 43 48 114 43 48 116 45 51 125 47 53 127 44 48 119 40 44 108 38 42 105 25 29 76 25 29 74 18 22 60 17 21 58 18 22 60 20 25 65 20 23 64 31 36 91 32 37 92 41 44 111 46 50 124 
18 22 59 19 23 61 17 21 59 19 23 61 19 22 63 17 22 62 16 21 59 18 22 60 16 20 58 16 20 57 16 20 57 16 20 55 16 20 57 17 21 58 16 20 58 17 21 58 16 20 57 16 20 58 16 20 57 17 21 58 16 20 57 18 20 58 16 20 57 17 20 55 16 20 57 17 20 53 16 21 53 17 21 58 18 22 60 20 25 67 26 28 76 26 30 77 37 41 104 34 40 98 41 46 114 46 50 123 46 50 123 49 55 131 49 55 131 47 53 129 47 53 129 46 50 123 43 47 118 42 45 112 32 37 93 35 37 94 25 29 76 21 25 70 21 24 65 16 20 58 16 20 57 16 20 55 15 19 54 16 20 55 16 20 57 16 20 57 16 20 57 16 20 57 17 21 58 17 21 58 17 21 58 17 21 58 17 21 58 17 21 58 17 21 58 16 20 57 16 20 57 17 21 58 17 21 58 16 20 57 16 20 57 17 21 58 17 21 58 17 21 58 17 21 58 17 21 58 16 20 57 15 19 56 16 20 58 18 21 62 20 23 66 24 28 75 38 42 105 38 42 105 46 52 126 47 53 129 46 52 126 45 51 125 45 49 120 32 33 87 29 35 87 20 23 64 17 21 58 16 20 57 15 21 57 16 20 55 26 29 74 27 30 75 37 42 100 42 49 119 
18 21 62 20 25 65 22 25 70 21 25 70 22 27 69 21 26 68 18 23 61 18 21 62 17 21 58 17 21 58 17 21 58 16 20 55 16 20 57 16 20 57 16 20 57 15 19 56 16 20 57 16 20 57 16 20 58 16 20 57 16 20 57 16 20 57 16 22 58 17 21 56 17 21 58 20 24 62 19 23 61 23 26 71 23 27 72 25 29 77 33 36 91 32 35 90 40 44 108 39 44 110 42 49 119 45 49 122 44 51 123 46 52 126 47 51 125 44 48 119 44 49 117 40 45 109 37 41 104 38 40 99 29 32 83 30 33 84 23 27 72 21 26 68 19 23 61 16 20 58 16 20 57 16 20 57 15 19 54 16 20 57 16 20 57 16 20 57 16 20 57 16 20 57 16 20 57 17 21 58 17 21 58 17 21 58 17 21 58 17 21 58 17 21 58 17 21 58 16 20 57 17 21 58 17 21 58 17 21 58 17 21 58 17 21 58 17 21 58 17 21 58 17 21 58 16 20 57 16 20 57 16 20 57 17 21 59 18 22 60 20 24 62 23 27 72 33 38 93 34 39 97 44 48 119 46 50 123 44 50 124 45 51 127 45 49 123 34 39 97 34 39 95 26 28 76 22 24 65 19 23 61 17 21 58 16 20 57 24 27 70 23 26 69 35 37 94 39 43 107 
21 24 67 33 36 91 35 37 94 32 37 93 33 36 91 32 35 88 20 25 67 20 25 67 18 22 60 18 22 59 17 21 58 16 20 58 16 20 57 16 20 57 17 21 58 16 20 57 16 20 58 16 20 57 15 19 56 15 19 56 16 20 57 17 21 58 18 22 60 20 23 66 21 24 69 32 34 85 30 33 84 37 41 104 40 44 108 43 47 118 47 50 127 46 52 128 49 55 133 50 56 132 47 53 127 46 50 123 45 49 120 39 43 107 39 43 107 32 35 86 29 33 81 24 28 73 20 23 64 21 25 63 16 21 53 16 20 57 16 20 57 16 20 57 17 21 58 16 20 57 16 20 57 16 20 57 16 20 57 16 20 57 16 20 57 16 20 57 16 20 57 16 20 57 16 20 57 16 20 57 17 21 58 17 21 58 17 21 58 17 21 58 17 21 58 17 21 58 17 21 58 16 20 57 17 21 58 18 22 59 17 21 58 16 20 57 17 21 58 17 21 58 17 21 58 16 20 57 17 21 58 17 21 58 17 21 58 16 20 58 16 20 57 17 21 58 18 23 63 18 23 61 33 37 98 36 40 101 43 48 116 47 53 131 48 54 130 47 51 125 47 50 127 35 39 100 32 35 90 26 30 78 17 21 59 18 22 59 16 20 55 17 19 57 21 24 67 24 28 73 
20 25 67 31 36 91 32 37 95 33 38 93 34 37 92 32 35 88 20 25 67 21 26 68 18 22 60 17 21 59 17 21 59 16 20 57 15 19 57 16 20 57 16 20 57 16 20 58 16 20 57 16 20 57 16 20 57 16 20 57 16 20 57 16 20 57 17 22 60 19 24 66 21 24 69 31 34 85 31 34 85 39 40 104 40 44 108 43 46 117 47 50 127 48 51 130 49 55 131 48 54 130 47 53 127 48 52 126 46 48 122 40 44 107 39 43 106 32 35 88 30 33 84 24 28 73 19 22 63 19 23 61 16 20 57 16 20 55 16 20 55 16 20 55 16 20 57 16 20 57 16 20 57 16 20 57 16 20 57 16 20 57 16 20 57 16 20 57 16 20 57 16 20 57 16 20 57 16 20 57 16 20 57 17 21 58 17 21 58 17 21 58 16 20 57 17 21 58 17 21 58 17 21 58 15 19 56 17 21 58 17 21 58 16 20 57 17 21 58 16 20 57 16 20 57 16 20 57 17 21 58 17 21 59 17 21 58 16 20 57 16 20 57 17 21 59 19 22 63 19 23 61 34 39 97 36 40 103 42 47 115 47 53 129 48 54 130 46 52 128 47 50 127 37 39 98 32 35 88 26 30 78 17 21 59 18 22 60 17 19 57 16 20 55 22 25 66 25 27 75 
27 31 79 80 80 132 90 87 140 89 86 139 89 86 139 80 80 132 27 31 79 27 31 79 19 22 63 17 21 58 17 21 59 16 20 57 15 19 54 15 19 54 16 20 57 17 21 56 16 21 59 19 22 63 21 25 70 21 25 70 29 34 89 31 37 89 35 41 101 40 45 109 39 47 112 47 51 125 46 50 123 46 52 126 48 54 132 47 51 125 44 51 119 46 50 123 36 42 102 38 42 103 30 35 90 28 31 82 26 28 77 19 24 64 21 26 64 16 21 59 17 21 58 17 21 56 17 21 56 17 21 58 16 20 57 16 20 57 16 20 57 16 20 57 16 20 57 17 21 58 16 20 57 16 20 57 16 20 57 16 20 57 16 20 57 16 20 57 16 20 57 16 20 57 16 20 57 16 20 57 16 20 57 16 20 57 17 21 58 17 21 58 17 21 58 17 21 58 17 21 58 15 19 56 18 22 59 17 21 58 17 21 58 16 20 57 18 22 59 17 21 58 18 22 59 17 21 58 17 21 58 16 20 58 17 21 58 17 21 58 17 21 58 18 22 59 17 21 58 17 21 58 20 23 64 21 24 67 29 32 83 35 40 98 38 42 105 49 53 127 47 53 129 48 52 126 44 51 123 40 45 111 31 36 91 33 35 92 18 22 59 18 22 59 18 22 59 17 21 58 
29 32 83 87 87 137 98 96 146 96 94 144 97 94 147 87 87 137 28 31 82 28 32 80 21 24 65 18 22 60 17 21 59 16 20 55 16 20 57 16 20 55 15 19 54 16 20 58 18 22 60 18 21 62 22 26 73 22 26 73 32 37 93 33 38 94 38 43 107 44 49 117 46 50 121 47 53 129 47 53 127 48 54 130 49 54 135 47 54 126 45 49 120 45 49 120 35 40 98 35 40 98 30 34 82 25 29 76 24 27 70 17 21 59 18 22 60 17 21 56 16 20 55 16 20 55 16 20 57 15 19 54 16 20 57 16 20 57 16 20 57 16 20 57 16 20 57 17 21 58 16 20 57 16 20 57 16 20 57 16 20 57 16 20 57 16 20 57 16 20 57 16 20 57 16 20 57 16 20 57 16 20 57 16 20 57 16 20 57 17 21 58 17 21 58 17 21 58 17 21 58 17 21 58 17 21 58 17 21 58 17 21 58 17 21 58 16 20 57 17 21 58 17 21 58 18 22 59 16 20 57 17 21 58 17 21 58 17 21 58 17 21 58 16 20 57 16 20 57 16 20 57 16 22 58 17 22 60 26 30 78 35 37 94 34 40 98 49 52 129 48 52 126 46 52 126 49 52 129 43 47 118 34 39 95 34 39 95 18 22 60 19 23 61 18 22 59 16 20 55 
28 30 79 71 72 128 78 77 135 78 79 136 79 78 135 72 71 129 27 31 79 28 32 80 19 22 63 17 21 58 17 21 59 17 21 59 17 21 58 20 25 67 21 26 68 26 30 77 28 31 82 31 34 87 35 40 98 33 37 98 39 44 110 41 46 112 43 47 118 47 51 124 44 51 123 43 50 120 46 50 124 41 46 112 37 45 108 37 41 102 32 37 92 34 36 95 25 29 77 26 29 80 21 26 68 21 24 65 20 24 62 17 21 59 17 21 58 16 20 55 16 20 57 16 20 57 16 20 58 16 20 57 16 20 57 17 21 58 15 19 56 16 20 57 16 20 57 16 20 57 16 20 57 16 20 57 16 20 57 16 20 57 16 20 57 16 20 57 16 20 57 16 20 57 16 20 57 16 20 57 16 20 57 16 20 57 16 20 57 16 20 57 17 21 58 17 21 58 17 21 58 17 21 58 17 21 58 17 21 58 17 21 58 17 21 58 17 21 58 17 21 58 17 21 58 16 20 57 17 21 58 17 21 58 17 21 58 16 20 57 18 20 58 17 21 58 17 21 58 16 20 57 17 21 58 17 21 59 21 24 67 26 30 78 27 33 81 40 45 111 40 45 111 44 51 123 46 52 128 44 51 123 41 46 112 41 46 112 27 31 79 27 30 81 21 25 63 17 21 59 
26 30 75 55 56 120 60 61 126 58 61 128 59 60 125 55 56 120 26 28 76 25 29 76 18 21 62 16 20 57 17 21 59 18 21 62 17 22 62 27 31 79 27 31 79 36 38 97 38 42 106 41 45 109 48 52 125 47 51 125 47 53 131 48 54 130 47 53 129 46 52 128 45 51 125 41 46 112 41 46 114 32 37 93 31 34 87 27 31 79 20 25 65 21 26 66 16 20 57 16 20 57 17 21 58 16 20 55 15 19 56 16 20 57 16 20 57 16 20 57 16 20 57 16 20 57 16 20 57 16 20 57 16 20 57 16 20 57 16 20 57 17 21 58 16 20 57 15 19 56 16 20 57 16 20 57 16 20 57 16 20 57 16 20 57 16 20 57 16 20 57 16 20 57 16 20 57 16 20 57 16 20 57 16 20 57 16 20 57 16 20 57 17 21 58 17 21 58 16 20 57 17 21 58 17 21 58 17 21 58 17 21 58 17 21 58 17 21 58 17 21 58 17 21 58 16 20 57 17 21 58 17 21 58 17 21 58 17 21 58 16 20 57 17 21 58 17 21 58 17 21 58 16 20 57 16 20 57 16 20 57 17 21 59 19 24 64 33 36 91 33 36 91 43 47 118 48 51 128 49 53 127 49 53 127 49 52 129 35 39 100 35 40 98 25 29 74 20 24 62 
26 28 76 51 53 112 53 57 120 53 57 118 56 58 119 51 53 112 25 28 73 25 27 75 21 24 67 19 23 61 19 24 64 22 27 69 21 26 68 30 33 88 30 33 86 36 40 103 41 45 108 42 45 112 46 50 124 45 52 124 46 52 126 46 52 126 45 51 125 46 50 123 44 48 121 37 43 105 39 43 106 31 36 91 27 33 81 25 29 76 19 24 64 19 24 66 16 20 57 16 20 57 16 20 57 16 20 57 16 20 57 16 20 57 16 20 57 16 20 57 16 20 57 16 20 57 16 20 57 16 20 57 16 20 57 16 20 57 16 20 57 16 20 57 16 20 57 16 20 57 16 20 57 16 20 57 16 20 57 16 20 57 16 20 57 16 20 57 16 20 57 16 20 57 16 20 57 16 20 57 16 20 57 16 20 57 16 20 57 16 20 57 16 20 57 16 20 57 16 20 57 17 21 58 17 21 58 17 21 59 17 21 56 17 21 58 17 21 59 16 22 58 17 19 57 17 21 58 16 20 55 17 21 58 16 20 57 17 21 59 16 20 57 16 20 57 17 21 58 17 21 58 17 21 58 16 22 58 18 22 60 18 20 58 19 22 63 31 34 89 31 34 89 42 45 114 46 50 123 47 51 125 47 53 127 47 53 127 38 42 103 38 42 103 27 30 81 21 24 67 
18 21 62 20 24 69 21 26 68 21 25 70 22 26 73 22 26 73 25 28 73 24 27 72 31 34 87 33 36 91 36 40 101 43 46 113 41 46 112 48 51 128 46 52 128 48 54 128 48 54 130 49 53 127 46 50 123 48 50 125 38 42 103 37 41 104 31 36 91 27 31 79 27 31 78 17 23 59 17 23 59 17 21 58 16 20 55 16 20 57 17 20 55 17 20 55 16 20 57 16 20 57 16 20 57 16 20 57 16 20 57 16 20 57 16 20 57 16 20 57 16 20 57 16 20 57 16 20 57 16 20 57 16 20 57 16 20 57 16 20 57 16 20 57 16 20 57 16 20 57 16 20 57 16 20 57 16 20 57 16 20 57 16 20 57 16 20 57 16 20 57 16 20 57 16 20 57 16 20 57 16 20 57 16 20 57 16 20 57 16 20 57 16 20 57 16 20 57 17 21 58 16 20 57 16 20 57 16 20 58 17 21 58 17 21 59 17 21 58 17 21 58 17 19 57 17 21 58 17 19 57 16 20 57 16 20 57 17 19 57 15 19 56 16 20 55 17 21 58 18 22 60 16 21 59 18 22 60 17 21 59 16 20 57 16 20 57 17 21 58 17 21 58 28 32 80 31 34 87 37 41 102 47 51 124 47 51 124 50 52 129 50 52 129 43 46 113 37 41 104 
