P3
100 50
255
12 16 43 11 15 44 11 15 42 12 16 45 11 15 44 11 15 44 11 15 44 11 15 44 11 15 44 13 17 46 12 16 45 12 16 45 12 16 45 12 16 45 12 16 43 12 16 45 13 17 44 12 16 45 12 16 45 12 15 46 12 16 45 12 16 45 12 15 46 13 17 46 14 15 43 12 16 45 11 15 44 11 16 45 12 16 43 14 15 43 15 18 51 15 18 51 21 23 62 25 28 71 25 29 74 34 39 95 36 38 95 39 43 106 42 46 110 44 45 110 43 46 113 42 45 112 39 43 106 40 44 107 35 37 94 32 35 86 29 31 79 20 22 61 21 23 61 14 18 47 13 16 47 12 16 45 10 14 43 12 16 45 13 17 46 12 16 45 11 15 44 11 15 44 13 17 46 13 17 46 13 17 46 13 17 46 12 16 45 12 16 45 13 17 46 13 17 46 12 16 45 13 17 46 12 16 45 13 17 46 13 17 46 12 16 45 13 17 44 13 17 46 12 16 45 12 16 45 13 17 46 13 17 46 13 17 44 13 17 46 12 16 43 12 16 43 13 17 46 12 17 47 16 19 54 21 25 62 20 24 62 31 35 83 28 34 84 34 39 95 38 42 105 39 43 106 44 47 114 44 48 112 41 46 110 41 46 112 38 42 105 34 39 95 33 38 93 26 29 72 
11 15 44 11 15 44 11 15 42 12 16 45 11 15 40 11 15 42 12 16 43 11 15 42 11 15 42 11 15 44 12 16 45 12 16 45 11 15 44 12 16 45 12 16 43 11 15 44 12 15 46 12 15 46 11 15 44 11 14 45 12 16 45 11 16 45 12 16 45 12 16 45 15 16 44 12 16 45 11 15 44 12 16 45 15 16 44 15 16 46 14 19 51 16 19 54 20 22 61 25 28 71 25 29 74 36 38 95 36 38 95 39 43 106 41 45 109 42 45 112 42 45 114 42 45 112 39 43 107 39 43 106 35 37 94 31 34 85 27 31 76 19 23 60 22 24 63 13 16 47 13 16 47 13 17 46 11 15 44 12 16 45 11 15 44 12 16 45 12 16 45 12 16 45 13 17 46 12 16 45 13 17 46 13 17 46 13 17 46 12 16 45 12 16 45 13 17 46 11 15 44 13 17 46 12 16 45 13 17 46 12 17 46 13 17 44 12 16 45 13 17 46 13 17 46 12 16 45 11 16 45 13 17 46 13 17 46 12 17 46 14 15 43 12 16 45 14 18 47 13 16 47 16 19 52 20 24 62 21 23 61 31 34 85 31 35 83 34 39 95 38 42 103 39 43 106 43 46 113 43 46 115 41 47 109 41 44 111 38 42 105 35 40 96 35 38 91 26 29 74 
15 19 54 15 18 49 11 15 44 11 15 44 11 15 42 11 15 44 12 16 45 12 16 43 11 15 44 13 14 42 11 15 44 13 17 44 11 15 44 12 16 45 12 16 45 12 16 45 12 16 43 11 15 44 12 16 45 12 16 45 12 16 45 12 16 45 11 15 44 12 16 45 12 16 45 13 17 46 13 17 46 12 16 43 12 16 45 12 16 43 12 16 45 13 17 44 13 17 46 13 17 46 14 18 45 16 18 56 15 20 52 23 26 67 24 27 70 28 30 79 33 36 91 34 37 90 40 44 105 40 44 107 40 44 108 40 44 108 40 44 107 38 42 103 37 43 103 32 35 86 32 35 88 26 29 74 23 26 67 20 24 62 14 17 48 14 17 50 12 16 45 11 15 44 13 17 44 12 16 43 15 16 44 13 17 46 13 17 46 12 18 44 11 16 45 13 17 46 13 17 46 13 17 44 13 17 46 13 17 46 13 17 46 13 17 46 13 17 44 13 17 46 13 17 46 13 17 46 12 16 45 13 17 46 13 17 46 13 17 46 13 17 46 13 17 46 13 17 46 12 16 45 15 16 46 16 17 47 13 19 45 15 18 49 15 18 49 18 21 56 21 25 62 24 27 68 30 34 82 31 33 82 38 40 99 38 42 103 40 44 105 42 45 112 42 46 110 41 45 108 
16 21 53 16 19 52 12 16 45 11 15 42 10 14 41 10 13 44 11 15 44 10 14 43 11 15 42 11 15 44 11 15 42 14 15 45 11 15 44 12 16 45 13 17 46 13 17 46 12 16 45 13 17 46 12 16 45 12 16 45 12 16 45 12 16 45 11 15 44 11 15 44 12 16 45 12 16 45 13 17 44 13 17 46 15 16 46 14 15 43 12 16 45 14 15 45 11 15 42 11 15 42 10 16 42 14 17 48 13 16 47 21 23 61 22 25 66 27 30 75 32 35 88 32 35 88 43 44 109 40 44 107 41 44 111 41 44 113 40 45 113 41 42 107 40 44 108 34 37 92 35 36 92 27 31 78 24 27 70 22 26 64 15 18 53 15 18 53 12 15 48 12 16 45 12 16 43 12 16 41 12 16 45 13 17 46 12 18 44 12 16 45 12 16 45 13 17 46 12 16 45 13 17 44 13 17 44 13 17 44 13 17 46 13 17 46 13 17 46 13 17 46 13 17 46 14 18 47 12 16 45 13 17 46 13 17 46 13 17 46 13 17 46 13 17 46 13 17 46 12 16 45 13 17 44 13 17 44 12 16 43 12 16 45 13 17 44 15 20 50 19 22 55 22 24 62 27 31 78 28 30 79 37 39 98 37 42 100 40 44 107 43 47 111 44 48 112 43 47 111 
28 32 79 26 29 74 22 25 66 21 25 63 14 18 53 15 18 51 14 17 48 15 16 46 11 15 44 13 14 44 9 14 43 10 15 44 12 16 45 11 14 45 12 16 45 10 14 43 11 15 44 12 16 45 12 16 45 11 15 44 12 16 45 12 16 45 12 16 45 11 15 44 12 16 45 12 16 45 12 16 43 13 17 46 12 16 43 12 16 43 13 17 44 12 16 45 12 16 43 11 15 42 12 16 45 13 17 46 14 18 47 18 19 50 17 20 55 19 21 59 23 26 67 22 25 66 29 33 81 30 34 82 34 37 92 36 38 97 37 41 102 39 43 106 37 41 104 38 43 101 37 41 102 35 37 94 31 36 91 32 35 88 25 29 76 26 29 74 19 23 61 20 22 60 17 20 55 14 17 48 15 18 49 13 17 46 13 17 44 14 15 45 12 16 45 12 16 45 13 17 46 12 17 46 13 17 44 13 17 44 13 17 46 13 17 46 13 17 46 13 17 46 13 17 46 12 16 45 12 16 45 13 17 46 13 17 46 13 17 46 13 17 46 13 17 46 13 17 46 12 16 45 11 17 43 13 17 46 12 16 45 13 17 46 13 17 44 14 21 49 15 18 49 17 20 53 20 24 62 20 24 61 27 30 75 28 32 77 31 34 85 33 38 93 36 39 94 38 44 104 
38 42 105 36 38 95 30 33 84 31 34 85 19 23 61 18 22 59 14 19 51 12 17 46 13 17 46 11 15 42 10 14 41 11 14 45 11 15 44 12 16 45 12 16 45 12 16 43 12 16 43 13 17 46 12 15 46 12 16 43 12 16 45 12 16 45 12 16 45 13 17 46 12 16 45 12 16 45 11 15 44 12 16 45 12 16 43 14 15 46 12 16 43 14 15 43 12 18 44 15 16 44 12 16 43 12 16 43 14 15 43 11 15 42 11 15 42 12 16 43 14 18 47 13 17 46 17 21 58 17 21 58 25 29 74 30 33 84 33 35 92 38 43 101 37 41 102 41 46 112 39 47 112 41 46 112 40 45 109 39 45 107 35 40 98 38 40 99 27 31 76 26 28 76 22 26 64 16 21 53 16 19 52 11 16 45 12 16 43 12 16 45 12 16 45 12 16 43 13 17 44 12 17 46 13 17 46 12 16 45 13 17 46 13 17 46 13 17 46 13 17 46 13 17 46 13 17 46 13 17 46 13 17 46 13 17 46 13 17 46 12 16 45 13 17 46 13 17 46 12 16 45 13 17 44 13 17 46 14 18 47 12 16 45 12 16 43 12 16 45 13 17 46 11 15 44 13 17 46 13 17 46 17 20 51 18 22 51 21 23 62 24 27 70 26 28 76 33 38 96 
37 43 103 35 40 98 30 36 88 31 36 91 21 24 65 22 26 64 19 21 59 15 18 51 15 18 49 11 16 45 13 17 46 12 16 45 11 15 44 12 16 45 12 16 45 11 15 44 11 15 44 11 15 44 11 15 44 12 16 45 12 16 45 11 15 44 12 16 45 12 16 45 12 16 45 12 16 45 12 16 45 12 16 45 12 16 43 13 17 46 15 16 44 11 17 43 14 15 43 13 17 44 14 15 43 12 16 43 12 16 43 12 16 45 14 15 43 15 16 44 12 16 45 13 17 46 17 21 58 17 21 58 24 27 70 28 32 79 32 35 86 37 39 100 35 40 96 40 44 107 40 44 107 39 43 106 41 45 108 40 44 107 36 41 99 39 41 100 30 34 82 28 30 79 23 26 69 19 23 61 19 21 59 14 19 49 15 18 49 13 17 46 12 16 45 12 16 45 13 17 46 13 17 46 12 16 43 13 17 44 12 16 45 13 17 46 12 16 45 13 17 46 13 17 46 13 17 46 12 16 45 13 17 46 13 17 46 13 17 46 13 17 46 13 17 46 13 17 46 12 16 45 13 17 46 12 16 45 11 18 46 12 16 45 13 17 46 12 16 45 14 18 47 13 17 46 13 17 46 13 17 42 16 19 50 16 19 50 19 23 60 23 26 67 26 29 72 31 37 89 
40 44 108 42 46 109 41 44 111 42 45 112 41 45 108 41 42 106 35 40 96 33 35 92 30 34 82 23 26 67 21 25 63 16 19 50 13 16 49 12 15 46 11 15 44 11 15 44 11 15 44 12 15 46 12 16 45 11 15 44 11 15 42 12 16 45 13 17 46 11 15 44 11 15 44 13 17 46 11 15 44 12 16 45 12 16 45 12 16 45 12 16 45 12 16 43 12 16 45 13 17 44 12 16 43 13 17 44 12 16 43 15 15 43 14 15 45 14 15 43 12 16 43 13 17 42 12 16 43 11 15 44 14 15 43 12 16 43 13 16 47 17 20 53 16 20 55 28 30 78 28 30 78 34 35 89 36 41 99 36 40 101 41 45 109 41 45 108 44 48 112 43 47 111 41 45 108 38 42 103 36 40 101 30 34 82 30 33 84 22 26 64 21 23 61 18 21 54 13 17 46 13 17 46 13 17 44 12 16 43 13 17 46 13 17 46 13 17 46 12 16 45 13 17 46 13 17 46 12 16 45 13 17 46 13 17 46 12 16 45 13 17 46 13 17 46 13 17 46 13 17 46 13 17 46 13 17 46 12 16 45 12 16 45 13 17 46 13 17 46 12 16 45 13 17 46 12 15 46 13 17 46 13 17 44 12 17 46 12 16 45 11 15 44 12 16 45 14 17 50 
40 44 108 42 45 112 41 46 112 41 46 112 42 43 107 40 44 107 35 40 96 34 37 90 32 34 83 22 26 63 23 25 66 15 18 51 14 17 50 13 16 47 12 16 43 11 15 42 11 15 42 11 15 44 12 16 43 12 16 45 12 16 43 11 15 44 13 17 46 12 16 45 12 16 45 11 15 44 12 16 45 11 15 44 11 15 44 11 16 45 12 16 45 12 16 43 14 15 45 12 16 43 14 15 43 15 16 44 12 16 43 13 17 46 13 17 44 15 16 44 15 16 46 14 15 43 12 13 43 11 15 42 12 16 43 13 17 44 13 17 46 16 20 55 17 20 53 27 29 77 27 30 75 33 36 91 36 41 97 37 41 102 43 47 111 41 45 109 44 48 112 43 47 111 40 44 108 38 42 103 36 40 101 30 32 81 29 32 83 22 26 64 21 24 57 18 21 54 12 17 47 12 17 46 13 17 42 13 17 44 12 16 45 12 15 46 12 16 45 13 17 46 13 17 44 13 17 44 12 16 45 13 17 46 13 17 46 12 16 45 13 17 46 13 17 46 13 17 46 13 17 46 11 15 44 12 16 45 14 18 47 12 16 45 13 17 46 12 17 46 13 17 46 12 16 45 13 17 46 13 17 44 13 17 46 13 17 46 12 16 45 12 16 45 12 16 45 14 17 48 
26 27 71 30 32 81 35 37 94 34 36 93 38 42 105 39 43 106 38 42 106 39 43 107 39 43 106 36 41 99 37 39 98 32 36 84 31 34 85 25 29 76 20 25 63 20 24 62 14 19 51 16 19 50 13 17 46 11 15 42 12 16 45 11 15 42 11 15 44 12 16 45 12 16 45 13 17 46 11 15 44 12 16 45 11 15 44 11 15 44 12 16 43 11 15 44 12 16 43 12 16 43 12 16 43 13 17 46 13 17 46 12 16 43 13 17 44 12 16 43 12 16 43 12 16 45 13 17 44 14 15 45 12 16 43 12 16 45 15 16 46 14 18 47 14 17 48 16 19 52 17 20 51 19 21 59 20 24 62 22 25 68 29 31 79 28 32 79 36 38 95 36 41 99 38 42 103 40 44 108 39 43 106 39 43 106 39 43 104 36 41 97 36 39 94 32 35 88 27 31 78 26 30 77 20 22 60 20 23 58 17 20 53 13 16 47 13 17 46 12 16 45 11 15 44 13 16 47 13 17 46 13 17 46 13 17 46 13 17 46 12 16 45 13 17 46 13 17 46 12 16 45 12 16 45 13 17 46 13 17 46 13 17 46 12 16 45 12 16 45 13 17 46 13 17 46 13 17 46 12 16 45 14 15 43 12 16 43 15 16 46 11 15 44 12 17 46 13 17 46 
20 24 59 25 28 71 32 35 86 32 35 88 39 43 104 39 43 106 40 44 108 42 45 112 41 46 112 41 46 110 42 46 110 37 42 98 35 40 96 31 34 85 24 29 71 25 28 71 16 19 52 14 19 51 14 18 47 14 15 46 11 15 44 11 15 42 11 15 44 11 15 44 11 15 44 12 16 45 13 16 47 12 16 43 12 16 45 11 15 44 11 15 44 12 16 45 12 16 43 14 15 43 14 15 43 12 16 43 12 16 45 12 16 45 12 16 45 12 16 45 12 16 45 12 16 45 12 16 45 12 16 45 12 16 43 12 16 43 12 16 43 13 17 46 12 16 43 13 17 44 12 16 43 14 17 48 15 18 51 18 21 56 24 27 70 24 27 70 33 36 89 35 38 93 37 41 102 40 44 108 40 45 109 42 47 115 43 46 115 41 45 108 40 44 107 36 41 99 34 37 90 33 34 88 23 25 64 22 26 64 17 20 55 14 17 48 13 16 47 15 16 46 15 16 44 12 17 46 13 17 46 13 17 44 14 15 45 13 17 46 13 17 46 13 17 46 13 17 46 15 16 46 12 16 45 13 17 44 13 17 46 10 15 44 13 17 46 13 17 46 12 16 45 12 17 46 13 17 46 13 17 46 12 16 45 12 16 45 13 17 46 13 17 46 12 16 45 12 16 45 
17 20 53 20 24 61 24 27 70 24 27 70 29 35 87 29 32 83 33 38 94 35 39 100 37 41 102 40 44 107 41 45 108 37 43 103 37 42 100 33 38 93 32 35 86 31 34 85 25 28 71 24 29 71 19 23 60 18 21 56 17 20 55 13 18 48 12 17 47 13 17 46 12 15 46 12 16 43 12 16 45 13 14 44 12 16 45 11 15 44 12 16 45 11 15 44 12 16 45 14 15 45 15 16 46 12 16 43 12 16 43 12 16 43 12 16 43 13 17 44 12 16 43 13 17 44 12 16 43 12 16 43 12 16 43 12 15 46 12 16 43 12 16 45 12 16 43 12 16 43 12 16 43 13 16 47 15 18 49 15 18 51 19 23 60 19 23 61 27 29 77 26 30 77 30 33 84 34 36 93 32 37 92 39 43 106 38 42 103 37 42 106 40 44 107 38 43 101 35 37 94 36 38 97 30 32 81 30 33 84 25 30 72 23 26 67 20 24 62 17 20 51 17 20 53 16 20 49 14 17 48 13 17 46 12 16 43 13 17 44 13 17 42 12 15 46 13 17 46 13 17 46 13 17 46 13 17 44 13 17 46 13 17 46 12 16 45 13 17 46 12 16 45 13 17 46 11 15 44 13 17 46 13 17 46 12 16 45 13 17 46 13 17 46 13 17 46 12 16 45 
10 14 39 11 15 42 12 16 45 12 16 45 16 22 58 17 23 57 24 29 71 28 32 79 30 33 84 36 41 99 36 41 99 40 45 109 42 47 111 42 46 110 42 46 110 41 45 109 37 42 100 36 41 99 31 34 85 28 32 80 25 28 71 17 21 56 17 21 56 13 17 46 12 18 44 11 17 43 10 16 42 11 15 44 12 16 45 12 16 43 11 15 44 12 16 45 12 16 45 13 17 46 14 15 43 12 16 43 14 15 43 14 15 43 15 16 44 14 15 43 14 15 43 14 15 43 16 17 45 14 18 45 12 16 43 12 16 43 12 16 43 11 15 44 12 16 43 12 16 45 12 16 45 12 16 45 12 16 43 13 17 46 15 16 47 12 16 43 14 17 48 14 17 48 17 21 56 21 25 63 23 25 66 32 33 87 32 35 86 38 42 103 41 42 106 41 45 109 44 47 114 42 47 113 40 44 108 39 45 107 37 41 102 37 39 96 34 36 87 24 27 72 25 28 71 18 21 54 20 20 54 15 18 49 12 16 45 13 17 46 15 16 44 12 16 43 12 16 45 13 17 46 13 17 46 12 16 45 13 17 46 13 17 46 13 17 46 13 17 46 13 17 46 13 17 46 13 17 46 12 16 45 13 17 46 13 17 46 14 18 47 12 16 45 13 17 46 13 17 46 
10 14 43 11 15 42 13 17 46 12 16 45 17 21 58 17 21 56 24 27 72 29 31 80 31 34 85 36 41 99 36 41 99 39 44 108 41 46 110 43 46 113 42 46 110 42 46 110 37 42 100 37 42 100 30 33 84 27 31 79 26 29 72 17 21 56 16 20 55 12 16 43 13 17 46 13 14 44 12 16 45 11 15 42 11 15 44 12 16 45 13 17 46 12 16 45 12 16 45 12 16 43 12 16 45 12 16 43 15 16 44 14 15 43 14 15 43 13 17 44 12 16 43 13 17 44 12 16 43 12 16 43 14 15 43 14 15 43 12 16 43 11 15 44 12 16 43 12 16 45 12 15 46 12 16 45 11 15 42 12 16 45 13 14 42 12 16 43 15 19 48 15 18 51 18 21 56 22 24 63 22 25 66 33 35 86 32 35 88 38 42 103 40 44 107 40 44 108 42 45 114 43 46 113 42 46 110 40 46 108 36 41 99 34 36 93 33 36 89 24 29 71 25 28 71 18 21 54 16 19 52 14 18 47 13 17 46 11 16 45 12 16 43 15 16 44 13 17 44 13 16 47 12 16 43 14 15 45 14 15 43 13 17 46 12 16 45 13 17 46 12 16 43 12 16 45 13 17 46 12 16 45 13 17 46 13 17 46 14 18 47 12 16 45 12 16 45 13 17 46 
11 15 42 11 15 42 12 16 43 11 15 44 10 16 42 11 15 42 11 15 44 11 15 42 12 16 45 15 19 54 15 20 52 24 27 70 24 29 71 30 34 82 35 36 93 35 40 96 41 45 109 41 45 109 42 45 112 41 44 111 39 44 110 39 43 106 39 43 106 31 34 85 31 34 87 25 28 71 20 24 62 19 22 57 13 17 46 13 17 46 11 15 42 11 15 42 11 15 42 10 14 43 11 15 44 12 16 43 13 17 44 12 16 43 12 16 43 12 16 43 12 16 43 12 16 43 12 16 43 11 15 42 14 15 43 14 15 43 12 16 45 11 14 45 12 16 45 12 16 45 12 16 45 12 16 43 12 16 43 12 16 45 12 16 43 13 17 44 12 15 46 12 17 46 13 17 44 12 16 45 13 17 46 12 16 45 13 17 46 18 21 54 18 22 57 23 27 65 30 32 81 29 33 81 37 42 100 37 42 100 41 45 108 43 47 111 41 46 110 41 46 110 41 46 112 37 41 102 36 41 99 32 35 90 27 31 78 26 30 75 19 22 55 17 22 52 14 18 47 13 17 46 13 16 47 12 16 43 15 16 44 13 17 46 13 17 46 12 16 45 12 16 45 13 17 44 12 16 45 13 17 46 13 17 46 12 16 45 12 16 45 13 17 46 13 17 46 13 17 46 
11 15 42 11 15 42 11 15 44 11 15 44 10 14 41 11 15 42 10 14 41 11 15 42 12 16 45 15 20 52 14 18 53 24 27 68 25 30 72 30 33 84 35 38 93 36 38 95 40 44 108 42 43 108 42 45 112 42 45 112 40 45 109 39 43 106 39 43 106 32 35 86 31 34 85 26 28 69 21 23 62 19 21 59 12 15 46 13 17 46 12 16 43 11 15 42 11 15 42 11 15 44 11 15 42 15 16 46 12 16 43 11 15 42 12 16 43 12 16 43 12 16 43 13 17 44 12 16 43 12 16 43 12 16 45 12 16 43 12 16 45 11 15 44 12 16 45 12 16 45 12 16 45 12 16 43 13 17 44 12 16 45 12 16 43 12 16 45 13 17 44 13 17 46 13 17 46 13 17 44 14 15 43 12 16 45 13 17 46 19 22 55 18 22 57 21 26 66 28 32 80 28 32 79 37 42 100 36 40 101 41 45 108 44 45 110 43 47 111 42 45 112 43 47 111 37 42 100 37 42 100 30 36 88 28 30 78 27 30 73 20 24 53 18 21 52 14 18 47 13 17 46 12 16 45 12 16 43 13 17 46 13 17 44 12 16 45 12 16 43 12 16 45 13 17 46 12 16 45 14 18 47 13 17 46 13 17 46 13 17 46 13 17 46 12 16 45 13 17 46 
11 15 42 11 15 44 11 15 44 12 16 45 11 15 42 11 15 42 11 15 42 11 15 44 11 14 45 11 14 45 13 16 47 15 19 56 16 21 51 19 23 60 22 25 66 24 26 67 30 34 82 30 32 81 36 38 95 36 38 97 36 42 102 39 43 106 39 43 106 37 41 104 37 41 102 36 38 95 33 35 92 32 35 86 25 28 73 26 29 74 19 23 60 19 21 59 17 20 53 12 17 47 12 17 46 14 15 45 11 15 42 11 15 42 12 16 43 12 16 43 12 16 43 12 16 43 12 16 43 12 16 43 12 16 43 12 16 45 11 15 44 12 16 45 12 15 46 12 16 43 12 16 43 12 16 45 12 16 43 13 17 46 13 17 44 12 18 44 12 17 46 13 17 46 13 17 46 13 17 46 13 17 46 13 17 46 12 16 43 14 18 47 15 18 51 17 20 53 19 22 57 19 23 58 25 28 73 25 28 71 30 34 82 31 37 89 36 39 94 37 41 102 37 41 102 39 45 107 40 44 107 38 43 101 36 41 97 38 40 97 31 34 87 31 34 85 25 29 74 24 27 68 21 23 62 18 21 56 19 22 55 14 18 45 13 16 47 13 17 46 12 16 43 12 16 43 13 17 44 13 17 44 12 16 43 13 17 44 12 16 43 12 16 43 12 16 43 13 17 44 
11 15 44 11 15 44 13 14 44 13 14 44 11 15 44 12 16 43 11 15 42 11 15 44 11 15 44 12 16 43 11 15 42 12 16 43 11 15 42 12 17 46 14 17 48 15 18 51 21 25 63 21 25 63 30 34 82 33 36 89 37 39 96 41 43 104 39 43 107 41 44 111 42 45 112 41 45 109 39 43 107 38 42 105 34 37 90 34 37 92 25 30 72 23 26 69 19 23 60 14 18 53 13 18 48 11 15 44 11 15 44 11 15 44 12 16 45 14 15 45 14 15 45 14 15 45 14 15 45 15 16 46 11 15 44 12 16 45 11 15 44 12 16 45 12 16 45 12 16 43 12 16 43 13 17 46 12 16 43 13 17 46 12 17 46 12 16 45 13 17 44 12 16 43 13 17 46 13 17 46 13 16 47 14 15 45 13 17 46 11 15 44 11 16 46 12 16 43 11 17 43 14 18 47 16 19 52 16 19 52 21 26 68 26 29 74 30 32 80 36 38 95 35 40 96 39 44 108 41 45 109 42 46 110 43 47 111 42 47 111 38 42 105 39 43 104 33 36 87 30 34 82 27 30 75 20 24 62 21 23 61 11 16 45 14 18 47 13 17 46 14 15 43 12 16 45 13 17 44 13 17 44 12 16 43 12 16 43 12 16 43 13 17 44 13 17 44 13 17 44 
11 15 42 11 15 42 11 15 42 12 16 45 11 15 44 11 15 44 11 15 44 11 15 44 11 15 44 11 15 44 11 15 44 11 15 44 11 15 44 11 15 44 13 16 47 13 16 49 19 23 58 19 23 60 26 29 74 28 30 78 30 33 84 32 37 93 36 38 95 39 43 106 38 42 103 40 41 105 38 44 106 38 42 105 36 38 95 34 39 95 28 32 80 28 32 79 24 28 73 20 24 62 19 25 61 16 19 52 14 17 48 12 15 46 13 17 46 12 16 45 13 17 46 12 16 43 14 15 43 14 15 43 12 16 45 12 16 45 12 16 45 14 15 43 12 16 43 12 16 43 12 16 43 13 17 44 13 17 44 13 17 46 12 16 45 13 17 44 13 17 44 13 17 46 12 16 45 11 15 42 12 16 45 12 16 45 13 17 46 13 17 46 12 16 45 12 16 45 13 17 46 13 17 46 16 19 50 15 20 52 19 23 61 23 26 69 26 29 72 31 34 85 30 33 84 38 40 99 36 41 99 37 43 103 40 44 107 38 44 106 39 43 104 39 43 106 35 37 94 33 36 91 31 33 84 25 28 71 25 28 71 16 20 57 18 22 57 17 20 51 15 18 49 14 18 47 13 17 46 13 17 46 12 16 45 14 15 43 14 15 45 13 17 46 13 17 46 12 15 46 
11 15 42 12 15 46 11 15 42 12 16 43 11 15 44 12 16 45 11 15 44 11 15 44 11 15 44 11 15 44 12 16 45 11 15 44 10 14 43 11 15 44 11 15 44 12 16 45 11 15 44 10 14 41 12 16 45 12 16 43 14 19 49 17 22 60 18 22 59 30 34 82 27 33 83 35 37 94 37 41 102 39 43 106 42 46 110 41 45 109 41 45 108 41 46 110 38 42 105 37 39 96 34 39 95 27 30 75 26 29 74 19 21 59 15 18 53 16 19 50 12 16 43 14 15 43 13 14 42 11 15 42 12 16 43 11 15 42 12 16 45 16 15 46 12 16 43 13 17 46 12 17 46 12 16 45 12 16 45 13 17 46 13 17 46 13 17 46 12 16 43 12 16 43 12 16 43 12 16 43 12 16 45 12 16 45 12 16 45 12 16 45 12 16 45 13 17 46 12 16 45 12 16 45 12 17 46 12 18 44 12 18 44 12 15 46 13 17 46 18 19 49 16 20 49 23 26 67 24 27 68 30 32 80 35 36 92 35 38 93 41 45 109 40 43 110 42 45 112 42 45 112 41 44 111 40 44 107 40 44 107 33 36 89 33 36 91 27 30 75 23 26 67 19 23 61 14 17 48 15 18 49 13 17 46 12 16 43 13 17 46 12 16 43 13 17 46 12 16 43 
11 15 44 12 16 45 11 15 42 11 15 42 11 15 44 11 15 44 11 15 44 11 15 44 11 15 44 11 15 44 11 15 44 11 15 44 11 15 44 12 16 43 11 15 42 12 16 45 10 14 43 10 14 43 12 16 45 13 17 44 14 19 51 18 22 60 18 22 59 30 34 82 29 32 83 35 37 94 37 41 102 39 43 106 41 45 109 40 45 111 41 44 111 41 45 109 39 43 107 35 40 98 35 37 94 27 30 75 26 29 74 19 23 60 16 19 52 15 18 49 13 17 44 14 15 43 12 16 43 11 15 44 11 14 45 11 15 44 12 16 43 15 16 44 12 16 43 14 18 45 13 17 46 13 17 46 13 17 46 12 16 43 12 16 43 13 17 46 13 17 46 12 16 43 12 16 43 13 17 46 13 17 46 13 17 46 13 17 46 13 17 46 11 15 44 13 17 46 13 17 46 12 16 45 13 17 44 12 16 43 12 16 45 12 16 45 13 16 47 17 18 49 15 19 48 23 26 67 24 27 70 28 32 79 33 36 89 34 39 94 40 43 110 40 44 107 42 47 113 41 46 110 42 46 110 40 44 107 42 44 105 33 36 91 34 37 90 27 30 75 23 26 67 20 24 61 15 18 49 13 16 47 13 17 46 12 16 43 13 17 44 13 17 44 11 16 45 12 16 45 
11 15 40 11 15 44 12 16 43 12 16 45 11 15 44 11 15 44 11 15 44 11 15 44 11 15 44 11 15 44 11 15 44 11 15 44 11 15 42 11 15 44 12 16 43 11 15 42 11 15 42 11 15 44 11 15 44 12 16 45 12 16 43 12 16 45 12 16 45 14 17 50 13 16 47 18 21 56 18 22 59 22 25 66 30 32 81 30 32 80 36 38 95 36 41 99 38 42 103 41 45 109 40 44 108 40 44 107 40 44 108 35 40 96 37 39 96 32 35 90 29 31 79 28 31 76 15 19 56 17 21 58 15 18 51 13 17 44 13 17 46 12 16 43 12 16 45 13 17 46 12 16 43 12 16 45 12 16 43 13 17 44 13 17 44 13 17 44 12 16 45 13 17 46 13 17 46 13 17 46 12 16 45 13 17 46 13 17 46 13 17 46 13 17 46 13 17 46 12 16 45 13 17 46 12 16 45 12 16 45 13 17 44 13 17 46 12 16 45 13 17 44 13 17 46 14 18 47 15 19 48 14 17 50 15 20 52 16 19 54 23 26 67 23 26 67 30 33 84 33 36 89 33 38 94 38 44 104 39 43 106 41 45 109 41 45 108 40 44 107 37 43 105 36 42 102 32 38 90 34 37 88 26 29 70 25 29 67 20 24 61 16 19 50 16 19 50 13 17 44 
11 15 44 11 15 40 12 16 45 11 15 42 11 15 44 11 15 44 12 16 45 11 15 44 11 15 44 12 16 45 11 15 44 11 15 44 14 15 45 13 14 42 12 13 43 13 14 45 11 15 42 11 15 44 12 16 43 11 15 44 11 15 42 10 14 41 11 15 42 12 16 43 11 15 42 15 18 51 16 19 52 19 21 59 27 29 77 27 30 75 36 38 95 35 40 98 39 43 106 41 45 109 41 45 109 42 46 110 41 46 112 38 42 105 37 42 100 35 38 93 28 32 79 30 32 80 18 22 57 18 22 60 15 18 51 13 17 46 13 17 46 12 16 43 13 17 42 13 17 44 13 17 44 13 17 44 13 17 46 13 17 46 12 16 45 13 17 46 13 17 44 12 16 43 12 16 43 12 16 43 13 17 46 13 17 46 12 16 45 13 17 46 12 16 45 12 16 45 12 16 45 13 17 46 12 16 45 13 17 44 12 16 43 12 16 43 13 17 44 13 17 46 12 16 45 14 15 43 14 15 43 12 16 45 12 17 46 15 18 49 20 22 60 21 23 61 28 30 79 31 34 85 32 37 93 39 43 104 39 43 104 43 47 111 43 46 113 41 45 109 41 45 109 39 45 107 35 40 96 36 38 95 26 28 76 26 27 73 22 24 62 16 20 49 16 19 50 12 16 45 
11 15 44 10 14 43 12 16 45 11 15 42 12 16 45 11 15 44 12 16 45 11 15 44 11 15 44 12 16 45 11 15 44 12 16 45 12 16 43 11 15 42 11 15 42 10 14 41 10 14 41 11 15 44 12 16 43 11 15 42 11 15 42 11 15 44 10 13 44 11 15 44 11 15 44 13 16 47 14 17 48 15 18 51 19 21 59 18 22 59 24 28 73 26 30 78 29 33 81 33 36 91 35 38 91 37 42 100 37 41 102 38 42 103 38 42 105 38 42 103 34 39 97 35 40 96 28 31 82 29 33 81 24 27 70 23 25 66 21 23 61 17 20 53 17 20 53 13 17 46 12 15 46 13 17 46 12 16 43 12 16 45 13 17 46 12 16 43 11 15 42 13 17 46 12 16 45 12 16 43 13 17 46 13 17 46 12 16 45 13 17 46 13 17 46 13 17 46 12 16 45 12 16 45 13 17 46 12 16 45 12 16 43 12 16 45 12 16 45 13 17 44 12 16 45 12 16 43 14 15 45 13 17 46 17 16 47 12 17 47 16 19 52 17 20 51 20 24 62 22 27 67 25 28 71 30 32 81 29 33 81 36 39 94 36 38 95 38 43 101 39 43 106 39 43 106 39 43 104 41 43 104 36 39 92 34 37 92 32 34 82 27 29 77 28 31 76 20 24 61 
10 14 43 11 15 42 11 15 44 11 15 44 11 15 44 11 15 44 11 15 44 11 15 44 11 15 44 11 15 44 11 15 44 11 15 44 11 15 44 11 15 42 11 15 42 10 14 41 11 15 44 11 15 44 11 15 44 11 15 44 11 15 42 11 15 42 12 16 43 11 15 42 11 15 42 12 16 43 11 15 42 11 15 42 11 15 42 11 15 44 14 17 50 14 19 49 19 23 60 24 27 68 26 29 74 34 37 92 35 37 94 38 42 103 40 44 108 39 43 107 41 44 111 40 45 111 40 44 107 40 44 107 36 38 95 33 34 88 29 31 79 22 26 64 22 25 66 15 18 49 14 17 48 14 18 47 12 16 43 13 17 44 12 16 43 13 17 44 12 16 45 12 16 45 12 16 45 13 17 46 12 16 45 13 17 46 12 16 45 12 16 45 13 17 46 13 17 46 13 17 46 13 17 46 13 17 44 13 17 46 12 16 45 13 17 46 13 17 46 13 17 46 13 17 46 13 17 46 13 17 46 12 16 43 14 18 45 13 17 46 13 17 44 14 15 43 12 16 45 12 16 45 16 21 51 19 22 55 19 22 57 28 32 79 28 32 79 33 38 93 36 40 101 40 41 105 43 47 111 43 47 111 42 46 110 42 46 110 40 44 107 36 41 99 38 40 97 28 32 79 
11 15 44 10 14 41 11 15 42 11 15 44 10 14 43 11 15 44 10 14 43 11 15 44 11 15 44 10 14 43 11 15 44 10 14 43 11 15 44 12 16 45 11 15 44 11 15 42 11 15 44 11 15 42 11 15 44 11 15 42 11 15 42 12 16 43 12 16 43 12 16 45 11 15 42 11 15 42 12 16 43 11 15 44 11 15 44 11 15 42 14 17 48 15 18 51 17 21 56 22 25 66 24 27 70 32 35 86 31 34 85 34 39 97 37 41 102 38 42 105 39 43 107 42 43 108 39 43 104 41 43 104 34 39 94 32 35 90 31 33 84 23 28 68 24 27 68 14 18 53 15 19 54 14 19 49 14 18 47 14 18 45 13 17 44 13 17 46 12 16 45 12 16 43 12 16 43 13 17 46 13 17 46 12 16 45 11 15 44 12 16 45 13 17 46 12 16 45 12 16 45 12 16 45 12 16 45 12 16 45 12 16 45 14 18 47 12 18 44 12 18 44 12 16 43 14 15 43 13 17 44 13 17 46 12 16 45 13 17 46 12 16 43 11 17 43 13 17 44 15 16 47 14 17 48 18 21 54 15 21 53 26 30 75 26 29 74 32 35 88 35 37 94 35 40 98 41 45 108 41 45 108 42 46 110 42 46 110 39 43 106 38 42 103 36 41 97 29 32 83 
16 21 53 13 18 50 11 15 42 11 15 42 12 13 41 10 14 41 11 15 44 12 13 43 12 16 43 11 15 44 11 15 44 12 16 45 11 15 44 12 16 45 10 14 41 11 15 42 11 15 42 11 15 42 13 17 44 11 15 42 12 16 45 12 16 45 11 15 44 12 16 45 12 16 45 11 15 44 11 15 44 11 15 44 11 15 44 11 15 44 11 15 44 11 15 42 11 15 42 10 14 41 11 15 44 13 17 46 13 17 46 19 23 58 20 24 59 23 26 69 31 34 85 31 34 85 38 42 105 38 42 103 41 45 109 41 46 112 41 45 108 39 45 107 41 45 109 36 38 95 36 39 94 28 32 79 25 28 71 23 26 67 16 19 52 17 20 53 16 17 47 13 17 44 15 16 46 13 14 42 11 15 42 13 17 46 13 17 46 12 16 43 13 17 46 13 17 44 12 16 45 11 17 43 12 16 45 13 17 44 13 17 44 13 17 44 12 16 43 12 16 45 12 16 45 13 17 46 12 16 45 12 16 45 13 17 46 13 17 46 12 16 45 12 16 45 12 16 45 13 17 46 12 16 45 12 16 45 11 15 44 12 16 45 12 16 45 14 17 48 17 20 53 19 22 57 26 29 72 27 30 75 33 38 93 36 39 94 38 42 103 41 46 110 41 45 109 41 45 109 
17 20 53 14 17 48 11 15 44 11 15 44 10 14 41 11 15 42 11 15 44 12 16 43 10 14 41 11 15 42 11 15 44 11 15 42 11 15 44 11 15 44 10 14 43 12 16 45 12 16 43 12 16 45 11 15 44 12 16 45 11 15 44 11 15 44 11 15 44 11 15 44 11 15 44 11 15 44 12 16 45 10 14 43 12 16 45 11 15 44 11 15 44 11 15 42 12 16 43 11 15 42 10 14 43 14 18 47 13 17 46 19 21 59 21 23 62 24 27 70 32 34 85 32 35 86 39 43 106 38 42 103 43 44 108 42 46 109 42 45 112 40 44 108 41 45 108 35 37 94 35 38 93 28 32 79 24 29 69 22 25 66 16 19 52 16 19 50 14 15 45 12 16 41 14 15 43 14 15 43 12 16 43 13 17 46 12 16 43 11 16 45 12 16 41 12 16 45 15 16 46 13 17 44 13 17 46 12 16 43 12 16 45 12 16 43 13 17 44 12 16 45 14 15 43 15 16 44 12 16 45 13 17 46 12 16 45 12 16 45 12 16 45 11 15 44 12 16 45 13 17 46 13 17 46 10 14 41 12 16 45 12 16 45 13 17 46 15 19 48 16 19 50 19 22 57 26 29 74 26 29 72 32 37 92 36 38 95 37 41 102 42 45 112 41 45 109 42 47 111 
34 37 90 29 32 83 25 28 71 25 28 73 17 20 55 16 21 53 14 17 48 12 16 45 12 16 45 10 14 43 10 14 41 11 15 42 12 16 41 11 15 42 13 17 46 11 15 42 11 15 42 11 15 42 11 15 42 12 16 45 11 15 44 11 15 44 11 15 44 11 15 44 11 15 44 10 14 43 11 15 44 11 15 44 11 15 44 11 15 44 11 14 45 11 15 42 11 15 42 11 15 42 12 16 45 12 16 45 11 15 44 15 16 46 13 16 47 15 18 51 16 20 55 17 21 56 22 27 67 23 26 69 28 32 80 32 35 86 32 38 90 38 42 103 38 42 103 40 44 107 40 44 107 36 41 99 36 40 103 37 39 96 33 36 87 33 36 87 25 28 71 23 26 69 20 22 60 16 19 50 17 20 53 12 16 45 15 16 44 12 16 43 12 16 43 12 16 45 12 16 45 14 15 45 12 16 45 12 16 45 13 17 44 12 16 43 12 16 45 12 16 45 13 17 42 13 17 46 13 17 46 12 16 45 12 16 45 13 17 46 13 17 46 12 16 45 12 16 45 13 17 46 13 17 46 12 16 45 12 16 43 13 17 44 12 16 43 13 17 44 13 16 47 15 19 48 15 18 49 16 19 50 19 23 60 20 24 61 24 27 70 28 30 78 29 31 79 36 39 94 
36 40 103 34 39 94 29 33 81 30 34 82 18 22 59 18 22 60 15 18 51 13 17 46 12 16 45 12 13 41 12 13 41 12 16 43 13 14 42 13 14 42 11 15 44 11 15 42 10 14 41 12 16 43 10 14 43 11 15 42 10 14 43 11 15 44 12 16 45 12 16 45 12 16 45 11 15 44 11 15 44 10 14 43 11 15 44 12 16 45 11 14 45 11 15 42 12 16 43 11 15 42 11 15 44 12 16 45 12 16 45 11 15 42 14 15 45 11 15 44 12 16 45 12 16 45 18 20 58 17 21 58 24 27 68 28 30 78 32 35 88 36 40 103 37 42 98 40 45 109 42 45 112 41 46 110 42 46 110 40 44 108 35 41 99 36 41 99 29 31 80 27 29 77 24 26 65 19 22 55 17 22 52 13 17 44 11 17 43 13 17 44 13 17 46 12 16 45 13 17 44 13 17 46 12 16 43 13 17 46 12 16 43 12 16 43 12 16 45 12 16 45 12 18 44 11 17 43 13 17 46 12 16 45 12 16 45 13 17 46 12 16 45 12 16 45 13 17 46 12 16 45 13 17 44 12 16 45 12 16 45 13 17 46 13 17 46 12 16 45 13 17 44 12 16 43 12 16 41 12 16 43 14 17 48 14 17 50 17 21 58 23 27 65 24 27 68 34 37 90 
38 42 103 38 40 99 34 37 92 34 37 92 27 29 77 26 30 77 23 26 67 21 23 61 20 22 60 15 18 51 15 18 51 13 17 46 13 16 47 10 14 43 11 15 42 11 15 42 10 14 41 10 14 43 11 15 44 11 15 42 10 14 43 11 15 44 11 15 44 11 15 44 12 16 45 11 15 44 11 15 44 11 15 44 11 15 44 11 15 44 11 15 44 11 15 40 11 15 42 12 16 43 12 15 46 11 14 45 11 15 44 11 15 42 11 15 44 11 15 44 12 16 45 11 15 44 16 19 52 15 18 51 19 23 60 24 28 66 25 28 71 29 32 83 29 33 81 34 39 95 37 39 96 38 42 103 39 43 106 39 43 106 37 41 102 37 41 102 35 38 93 34 37 90 29 33 81 26 31 73 25 30 70 19 23 58 19 23 60 16 19 52 15 18 49 14 18 47 14 18 47 13 17 46 12 16 45 13 17 44 12 16 43 12 15 46 13 17 44 12 16 45 12 16 45 13 17 46 13 17 46 13 17 46 12 16 45 13 17 46 13 17 46 12 16 45 13 17 46 13 17 46 13 16 47 12 16 43 11 15 42 13 17 44 13 17 44 13 17 44 12 16 43 13 17 44 11 15 44 12 16 45 13 17 46 12 17 46 16 19 52 20 23 58 19 21 59 24 28 73 
39 43 107 40 44 107 40 43 110 41 46 110 40 44 107 40 44 107 36 38 95 32 35 88 31 34 85 22 25 66 21 25 63 14 19 51 13 16 47 13 17 46 10 14 43 10 14 41 11 15 42 12 16 41 11 15 44 11 15 44 11 15 44 11 15 44 11 15 44 12 16 45 12 16 45 11 15 44 11 15 44 12 16 45 11 15 44 11 15 44 12 16 45 11 15 42 11 15 42 13 17 44 12 16 45 11 15 44 11 15 42 12 16 45 11 15 42 12 16 43 13 14 44 13 14 42 12 16 45 12 16 43 13 17 42 14 15 45 14 17 48 16 19 52 15 19 54 26 29 74 26 29 72 33 35 86 34 39 94 35 40 98 41 45 108 40 45 109 42 46 110 42 46 110 40 44 107 37 41 102 37 41 102 27 33 83 30 33 84 23 26 69 21 24 59 18 21 54 13 18 47 11 16 45 15 16 44 13 14 42 12 16 43 12 16 43 13 17 44 13 17 44 12 16 45 13 17 44 12 16 45 13 17 46 12 16 45 12 16 45 13 17 46 12 16 45 12 16 45 12 16 45 13 17 44 12 16 43 12 16 45 12 16 45 12 16 45 12 16 43 12 16 45 12 15 46 12 18 44 12 16 45 12 16 45 12 16 45 12 16 43 12 16 43 12 18 44 14 18 47 
40 44 108 42 43 107 41 44 111 41 44 111 42 43 107 39 43 107 35 37 94 32 35 88 29 33 81 21 24 65 22 24 63 15 18 49 14 17 48 12 16 45 10 14 41 10 14 41 11 15 40 11 15 40 11 15 42 11 15 44 11 15 44 12 16 45 12 16 45 11 15 44 11 15 44 11 15 44 11 15 44 12 16 45 11 15 42 11 15 42 10 14 41 11 15 44 11 15 44 10 14 43 10 14 41 10 14 41 11 15 44 11 15 44 13 14 44 11 15 44 13 14 45 11 15 42 11 15 44 12 16 45 12 16 45 11 15 44 13 16 47 16 19 52 14 19 51 26 29 72 26 29 72 32 35 86 34 39 95 35 40 98 41 45 109 39 45 107 42 46 109 43 47 111 40 44 107 38 42 103 36 40 101 29 35 85 29 32 83 21 26 66 19 23 60 17 22 54 13 17 46 14 17 48 12 16 43 12 16 45 13 17 44 13 17 46 13 17 46 12 16 43 12 16 45 12 16 43 12 16 45 12 16 45 12 16 45 12 16 45 13 17 46 13 17 46 12 16 45 12 16 45 13 17 42 13 17 44 12 16 45 12 16 45 12 16 43 12 16 45 13 17 44 12 16 43 12 16 45 11 18 46 13 17 44 12 16 43 14 15 43 12 16 43 14 16 41 12 16 45 
21 25 63 23 26 69 31 34 85 30 33 84 39 43 104 38 42 103 39 42 109 40 45 111 40 45 111 41 45 108 40 44 107 35 40 96 34 39 94 28 34 82 23 28 68 23 26 69 14 19 51 14 17 52 12 16 45 11 15 44 11 15 44 10 14 43 10 14 43 11 15 44 11 15 44 11 15 44 12 16 45 10 14 43 11 15 42 11 15 42 11 15 42 11 15 44 11 15 44 11 15 44 11 15 42 12 16 43 10 16 42 11 16 45 12 16 45 12 16 45 11 15 42 11 15 42 11 15 44 11 15 42 11 16 45 13 17 46 12 16 45 12 16 43 12 16 43 12 16 45 12 16 45 14 18 47 17 18 49 17 20 55 24 26 65 22 26 64 32 34 85 33 36 89 34 40 98 39 43 106 39 43 107 42 45 112 42 45 112 40 44 108 39 43 106 36 41 99 33 36 89 33 36 87 21 26 66 24 27 68 18 21 56 13 16 47 13 17 46 13 17 44 12 16 45 12 16 45 13 17 46 12 16 45 12 16 45 12 16 45 12 16 45 13 17 46 13 17 46 11 15 44 12 16 43 12 16 45 13 17 46 12 16 43 13 17 44 12 16 43 13 17 46 12 16 43 14 15 45 12 16 43 12 16 45 12 16 45 11 15 42 13 17 46 13 17 46 12 18 44 
20 24 61 24 27 68 31 34 85 31 34 85 38 42 103 38 42 103 39 44 108 41 45 109 42 45 112 41 45 109 41 45 109 34 41 96 36 38 95 27 33 81 24 29 71 22 27 67 15 20 52 14 19 51 12 16 45 12 13 41 11 15 42 10 14 43 10 14 41 12 16 45 12 16 45 10 14 41 11 15 42 13 14 44 11 15 42 13 14 42 11 15 44 11 15 42 11 15 44 11 15 44 10 14 41 14 15 43 10 14 41 11 15 44 11 15 44 11 15 44 11 15 44 11 15 42 12 16 45 11 15 44 12 16 45 13 17 44 12 16 43 12 16 43 12 16 43 11 15 42 11 15 44 13 16 47 13 18 48 16 19 54 22 25 66 22 25 66 31 32 88 33 36 89 37 39 100 39 43 106 40 44 108 42 45 112 42 45 112 40 44 107 39 43 106 37 42 100 33 36 87 34 35 89 22 26 64 23 27 65 17 20 55 14 17 48 13 16 47 12 16 43 14 15 43 14 15 46 12 16 43 12 16 45 11 17 43 11 15 44 12 16 45 12 16 45 11 15 42 12 16 43 12 16 45 13 17 46 12 16 45 12 16 45 12 16 43 13 17 44 11 16 45 14 15 43 13 17 46 12 16 45 13 17 46 13 17 46 12 16 45 12 16 45 12 16 45 12 16 45 
13 17 46 15 18 51 16 21 53 17 20 55 21 26 66 23 26 69 27 31 78 30 33 84 33 36 89 37 42 100 37 41 102 39 44 102 39 43 106 38 42 103 39 41 100 37 39 98 30 36 88 32 35 88 26 28 76 23 28 70 23 25 63 15 20 52 14 19 51 11 15 42 11 15 42 11 15 44 10 14 41 11 15 42 11 15 44 11 15 44 11 15 44 11 15 42 11 15 44 10 14 43 13 14 42 12 16 45 11 15 44 12 16 45 11 15 44 12 16 45 11 15 44 12 16 45 13 17 46 12 16 45 12 15 46 13 17 46 12 16 43 12 16 41 13 17 44 13 17 44 13 17 46 13 17 46 14 15 43 15 16 46 14 17 48 15 18 49 19 22 57 18 22 59 22 24 63 25 28 73 25 29 76 32 37 92 32 37 92 37 41 102 38 42 106 40 44 107 40 44 107 38 42 105 35 40 98 36 41 97 32 35 90 31 35 83 28 32 79 23 26 67 24 26 67 17 20 53 15 18 51 14 17 48 12 16 45 12 16 45 12 16 45 10 16 42 13 17 46 12 16 43 10 15 44 12 18 44 12 16 45 12 16 43 12 16 43 13 17 46 12 16 45 12 16 45 12 16 45 12 16 45 13 17 46 12 16 45 13 17 46 12 16 45 11 15 44 12 16 45 
11 15 42 11 15 42 12 16 45 11 15 44 17 21 56 17 21 56 23 26 69 28 30 78 29 33 81 36 41 99 38 40 99 40 44 108 41 46 110 42 46 110 41 45 109 42 46 110 37 41 102 37 42 100 29 32 83 30 31 79 23 28 70 15 21 55 17 21 56 11 15 42 11 15 42 11 15 42 11 15 40 11 15 42 11 15 42 11 15 42 11 15 42 13 14 42 12 16 45 11 15 42 12 16 43 12 16 45 11 15 44 11 15 44 11 15 42 12 16 43 12 16 45 12 16 45 13 16 47 12 16 43 12 16 45 12 16 45 12 16 43 12 16 43 13 17 42 12 16 43 12 16 45 12 15 46 13 14 42 14 15 43 12 16 43 12 16 43 13 17 44 13 17 44 17 20 53 21 23 61 21 23 64 30 33 84 30 33 84 35 40 98 36 42 102 39 43 106 43 47 111 41 45 109 40 46 108 41 45 108 35 39 100 34 39 94 34 37 92 26 29 74 26 29 74 18 21 56 14 19 51 14 17 48 11 16 45 13 17 46 12 16 45 11 15 44 12 16 43 13 17 44 13 17 46 12 16 43 12 16 45 16 15 46 14 15 43 12 18 44 12 16 43 13 17 44 13 17 46 12 16 45 12 16 45 12 16 45 12 16 45 12 16 45 11 15 44 12 16 45 
11 15 44 11 15 44 12 16 43 11 15 42 13 18 48 14 19 51 17 21 58 21 25 63 23 26 69 29 33 81 28 32 80 35 38 93 34 39 95 39 41 100 38 42 103 40 42 103 37 43 103 37 41 104 36 38 95 33 36 89 30 33 84 25 29 76 27 30 71 20 23 58 20 22 60 15 19 54 14 17 48 14 18 47 11 15 42 11 15 44 12 16 43 11 15 42 11 15 44 15 15 43 11 15 42 11 15 44 11 15 44 11 15 44 11 15 42 12 16 45 12 16 45 12 16 45 12 16 45 12 16 45 13 17 46 14 18 47 13 17 46 13 17 46 12 16 43 12 16 43 13 17 44 13 17 44 12 16 43 14 15 45 12 16 45 12 16 43 13 17 44 13 17 46 16 20 49 17 20 53 17 20 55 22 27 69 23 28 68 29 33 81 31 34 85 34 37 90 36 41 97 38 40 99 40 44 105 39 43 106 37 41 102 37 42 100 36 41 99 32 35 88 32 35 86 25 28 71 25 28 71 21 24 65 19 22 57 17 21 56 15 18 49 14 17 50 13 17 44 14 18 47 12 16 45 12 16 43 12 16 43 14 15 45 12 16 43 12 16 43 13 17 46 12 16 43 12 16 45 12 16 45 12 16 45 12 16 45 12 16 45 12 16 45 13 17 46 12 16 45 
10 14 41 11 15 42 11 15 42 11 15 44 10 14 41 12 13 43 11 15 42 11 15 40 11 15 44 16 19 52 14 17 50 23 26 67 24 29 71 29 32 83 35 37 94 36 38 97 39 45 105 40 44 108 40 45 109 42 46 110 41 45 109 36 42 102 38 42 103 31 34 85 30 33 84 24 28 73 21 23 61 17 23 57 13 17 46 13 18 47 11 15 44 11 15 42 10 14 43 11 15 42 11 15 44 11 15 44 11 15 44 11 15 44 11 15 44 11 15 44 11 15 44 10 14 41 12 16 45 11 15 44 12 16 43 13 17 44 13 17 44 12 16 45 12 16 45 13 17 46 12 16 45 13 17 46 12 16 45 13 17 46 12 16 45 12 16 43 13 17 44 12 16 45 13 17 46 12 16 41 14 15 43 12 16 43 12 16 45 17 20 51 17 22 54 19 23 60 28 31 76 28 30 78 35 40 98 35 40 98 39 43 106 41 45 108 40 46 108 42 46 110 43 47 110 37 42 100 36 41 99 34 37 90 28 32 79 29 32 77 18 22 57 19 22 57 15 18 49 12 16 45 15 16 46 12 16 43 13 14 42 14 15 45 13 17 44 12 16 43 12 16 43 13 17 44 12 16 45 13 17 46 13 17 46 12 16 45 12 16 45 12 16 45 13 17 46 12 16 45 
11 15 42 12 16 45 14 15 43 11 15 42 10 14 41 13 14 44 11 15 42 11 15 42 11 16 45 15 18 51 16 19 52 24 27 72 24 27 70 29 33 81 35 38 93 35 37 94 40 44 107 40 44 107 39 44 108 41 45 109 39 43 107 39 43 107 38 42 103 31 35 83 31 34 85 24 27 68 21 23 61 19 22 57 12 17 46 13 17 46 11 15 42 10 14 41 11 15 42 11 15 44 15 16 44 11 15 44 11 15 42 11 14 45 12 16 45 11 15 44 10 14 41 11 15 42 11 15 44 11 15 44 12 16 43 12 16 43 13 17 44 13 17 46 12 16 45 12 16 45 13 17 46 13 17 46 12 16 45 12 15 46 12 16 43 12 16 45 12 16 45 12 16 45 13 17 46 12 16 43 11 17 43 12 16 45 11 15 44 17 20 51 18 21 54 20 26 62 27 31 78 27 29 77 36 41 99 36 41 99 40 44 105 41 45 109 43 47 110 43 47 111 42 46 109 38 43 101 36 41 97 32 38 88 28 32 80 26 30 75 17 21 56 19 22 57 15 18 49 13 17 44 12 16 45 12 16 41 12 16 43 11 16 45 12 16 45 12 16 45 12 16 45 13 17 46 12 16 45 13 17 46 12 16 45 13 17 46 12 16 45 12 16 45 13 17 46 13 17 46 
11 15 42 10 14 43 11 15 42 11 15 42 13 14 42 13 14 44 13 14 42 11 15 42 11 15 42 10 14 41 11 15 42 12 13 41 10 14 41 12 16 45 13 17 46 15 18 51 22 24 63 22 26 64 29 31 79 30 36 86 33 38 93 38 42 103 39 43 106 41 45 109 41 45 109 40 44 108 38 42 106 39 40 104 34 37 92 34 37 92 22 29 71 23 26 69 18 22 59 14 17 48 14 17 50 11 15 42 11 15 44 11 15 44 11 15 44 11 15 44 11 15 44 10 14 43 11 15 44 11 15 44 12 16 45 12 16 45 13 17 46 12 16 43 12 16 43 12 16 43 12 16 43 13 17 44 13 17 46 12 16 43 11 15 42 12 16 45 12 16 45 12 16 45 13 17 46 13 17 44 15 16 44 12 16 43 12 16 43 12 16 43 12 16 41 14 16 41 14 15 43 13 14 42 18 18 52 16 19 50 22 24 63 25 28 69 27 30 75 35 37 94 35 37 94 39 43 106 40 44 107 41 45 108 42 46 110 43 47 111 40 44 105 39 43 106 31 37 89 31 34 85 28 31 76 22 24 63 21 23 61 13 18 50 14 17 48 15 16 46 12 16 45 12 16 43 12 16 45 12 16 45 12 16 45 13 17 46 13 17 46 12 16 45 12 16 45 12 16 45 
10 14 41 11 15 42 12 13 41 11 15 42 13 14 42 11 15 42 11 15 42 11 15 42 10 14 41 10 15 44 11 15 42 12 13 41 10 14 41 12 16 45 16 17 48 14 17 48 23 25 64 22 26 64 30 32 81 32 35 86 35 38 93 39 43 106 39 43 104 41 45 109 41 44 111 40 44 108 39 43 106 37 41 102 35 37 94 32 37 92 25 28 71 24 27 68 18 24 58 13 18 48 13 16 49 10 14 41 12 16 45 10 14 43 10 14 41 11 15 44 11 15 44 11 15 44 11 15 44 12 16 43 12 16 45 12 16 45 12 16 45 12 16 43 14 18 45 13 17 44 11 15 42 12 16 41 12 16 43 13 17 46 13 14 42 12 16 45 14 15 45 11 15 44 13 17 44 12 16 45 14 15 43 12 16 45 14 15 45 14 15 43 13 17 44 14 15 43 14 15 43 14 15 43 15 18 49 16 20 49 21 25 63 23 28 70 27 30 75 32 37 92 35 38 93 39 43 107 42 43 107 41 45 108 43 47 111 42 46 109 39 43 104 39 43 104 31 37 89 30 33 84 27 31 78 21 25 62 21 25 63 13 16 47 13 16 47 15 16 46 15 15 43 13 17 46 12 16 45 12 16 45 12 16 45 12 16 45 12 16 45 13 17 46 12 16 45 12 16 45 
10 14 43 10 14 41 10 14 41 11 15 44 12 16 43 11 15 42 11 15 42 11 15 42 11 15 42 11 15 42 11 15 42 11 15 42 10 14 41 11 15 44 11 15 42 12 16 45 15 18 49 15 18 51 18 21 56 20 22 60 22 25 66 27 31 78 26 30 75 34 37 92 32 37 92 36 41 97 37 41 102 38 42 105 37 41 102 37 41 102 36 38 95 33 38 94 31 34 87 29 31 79 26 30 75 22 24 63 21 23 62 15 19 54 15 18 49 14 18 47 11 15 44 11 15 44 11 15 42 11 15 44 14 15 45 13 14 44 12 16 45 13 17 46 12 16 45 12 16 43 12 16 45 12 16 45 13 17 44 13 17 46 13 17 46 13 17 46 12 16 43 13 17 44 13 17 44 12 16 45 13 17 46 12 16 45 12 16 45 13 17 46 13 17 46 12 16 45 12 16 45 13 17 46 12 16 45 12 16 43 17 21 50 17 20 53 18 21 56 22 26 64 22 26 64 28 30 78 30 32 80 33 36 89 34 39 94 34 39 95 39 43 106 41 43 104 37 41 102 37 41 102 35 40 96 34 36 93 34 37 92 26 29 74 27 29 77 24 26 67 19 23 60 17 22 54 15 18 49 14 17 48 12 16 45 12 16 43 12 16 43 12 16 43 12 16 43 12 16 43 
11 15 42 11 15 42 11 15 42 11 15 42 12 16 43 12 16 43 11 15 42 11 15 42 11 15 42 11 15 42 11 15 42 11 15 42 11 15 42 11 15 42 11 15 42 11 15 40 10 14 41 9 13 40 10 14 41 11 15 44 14 17 50 18 20 58 17 21 58 30 32 81 28 32 80 33 38 93 37 42 100 37 41 102 42 46 110 40 45 109 40 45 109 41 46 110 38 42 103 37 39 96 36 38 95 27 30 75 28 31 76 17 23 59 16 21 53 17 17 51 11 15 42 11 15 44 12 16 43 11 15 42 11 15 44 12 16 45 13 17 46 12 16 43 12 16 45 12 16 45 12 16 43 13 17 46 13 17 46 13 17 46 12 16 43 12 16 43 12 16 43 12 16 45 13 17 44 11 15 44 12 16 45 12 16 45 12 16 45 12 16 45 12 16 45 12 16 45 12 16 45 12 16 45 13 14 42 12 16 43 11 15 42 14 15 43 14 15 43 13 16 47 13 18 47 22 24 63 22 26 64 27 30 75 30 33 84 33 36 89 39 43 104 39 43 106 41 45 108 42 46 109 42 46 109 40 44 107 40 44 108 33 38 93 34 37 92 28 31 76 24 27 68 21 25 63 13 18 50 15 18 51 12 16 45 12 16 43 13 17 44 12 16 43 12 16 45 13 17 44 
10 14 43 10 14 43 11 15 44 10 14 41 11 15 42 11 15 42 11 15 42 11 15 42 11 15 42 10 14 41 11 15 42 11 15 42 11 15 42 11 15 44 10 14 41 10 14 43 9 13 40 10 14 43 11 15 44 12 16 45 12 17 47 16 20 55 15 19 54 24 29 71 24 28 73 30 34 82 32 35 88 32 37 92 36 41 99 37 41 102 39 43 104 40 44 107 38 42 103 37 42 100 34 39 97 30 34 82 32 34 83 24 27 68 22 26 64 20 22 61 17 20 53 16 21 53 13 16 47 13 16 47 12 16 45 12 16 45 12 16 43 11 15 42 12 16 43 13 17 44 12 16 41 13 17 44 12 16 45 13 17 46 13 17 44 12 16 45 12 16 45 12 16 45 12 16 43 12 16 41 12 16 45 12 16 45 12 16 45 12 16 45 12 16 45 12 16 45 12 16 45 12 16 45 11 15 42 12 16 43 14 15 43 15 16 46 13 17 46 13 17 46 14 17 48 20 23 58 20 23 58 23 26 67 27 29 77 28 32 80 36 39 94 36 38 95 37 42 100 38 43 101 39 43 104 40 44 107 41 45 108 35 40 96 37 39 96 30 33 84 28 30 79 27 30 75 19 24 62 20 24 62 18 21 52 16 19 50 15 18 49 14 18 47 14 18 47 13 17 44 
11 15 44 10 14 41 11 15 44 11 15 42 11 15 42 10 14 41 12 16 43 11 15 42 10 14 41 10 14 41 10 14 41 11 15 42 10 14 41 11 15 42 11 15 42 11 15 44 12 16 43 11 15 44 11 15 42 11 15 42 11 15 42 10 14 41 10 14 41 11 15 42 11 15 42 14 18 47 15 20 52 18 22 57 26 29 74 27 30 71 36 38 95 35 40 96 38 43 101 40 44 108 39 43 107 41 45 108 41 45 109 38 42 103 38 42 103 35 37 94 30 34 82 29 33 81 17 21 59 18 21 62 15 18 49 13 17 46 12 16 45 12 16 45 9 13 40 12 16 43 12 16 41 11 15 42 12 16 43 12 15 46 12 16 43 12 16 43 11 15 44 13 17 46 12 16 45 13 17 46 12 16 45 12 16 45 12 16 45 12 16 45 12 16 45 12 16 45 12 16 45 12 16 45 12 16 43 12 16 45 12 16 45 13 17 44 12 16 43 12 16 45 12 16 43 12 16 43 14 15 43 13 17 44 13 17 46 13 18 47 20 23 58 19 23 58 27 30 75 28 32 80 31 37 89 36 41 99 37 41 102 43 47 110 43 47 111 41 46 110 42 46 110 41 45 106 36 41 99 36 41 97 27 31 76 27 30 75 24 26 65 19 22 53 17 20 53 14 15 43 
11 15 42 10 14 41 11 15 42 11 15 42 11 15 42 11 15 42 12 16 43 12 16 43 11 15 42 11 15 42 10 14 41 12 16 43 10 14 43 10 14 43 11 15 42 10 14 39 10 14 41 9 13 42 11 15 42 11 14 45 11 15 44 12 13 41 12 13 43 11 15 42 11 15 42 15 18 49 16 19 52 18 22 59 26 29 74 25 28 71 36 39 94 35 40 98 36 40 101 41 45 109 40 44 107 42 46 110 42 46 109 39 43 104 36 40 101 34 39 95 29 33 81 29 32 83 17 22 60 18 22 60 16 19 52 12 16 45 13 17 44 11 15 44 11 15 44 12 16 43 12 16 43 12 16 43 12 16 43 12 16 43 12 16 45 12 16 45 12 16 43 13 17 46 12 16 45 12 16 45 12 16 45 12 16 45 12 16 45 12 16 45 12 16 45 12 16 45 12 16 45 13 17 46 12 16 43 11 15 44 13 17 44 12 16 43 12 16 45 10 15 44 12 16 43 15 16 44 14 15 43 13 17 44 13 17 44 14 18 45 20 23 58 20 23 56 27 30 75 29 33 81 32 35 88 37 42 100 37 41 102 42 46 110 42 46 109 42 46 109 42 46 109 41 45 108 37 42 98 36 41 97 28 32 79 26 29 74 23 25 64 16 21 53 16 21 53 12 16 45 
11 15 42 11 15 42 11 15 42 10 14 41 10 14 41 11 15 42 11 15 42 11 15 42 11 15 42 10 14 41 11 15 42 11 15 42 11 15 40 10 14 43 11 15 40 11 15 42 11 15 42 11 15 42 11 15 42 10 14 41 10 14 41 11 15 42 11 15 42 11 15 42 11 15 42 11 15 44 12 16 43 12 16 43 13 17 46 13 17 46 15 20 52 16 21 53 19 24 62 23 28 70 26 29 74 35 36 92 33 39 91 37 41 102 39 43 106 39 43 107 40 44 108 40 44 107 37 42 100 37 42 100 34 35 91 32 34 83 25 27 75 21 25 63 21 25 63 13 16 47 12 17 46 12 16 45 11 15 42 12 16 43 12 16 43 12 16 43 12 16 43 12 16 43 12 16 43 13 17 46 13 17 46 12 16 45 12 16 45 13 17 46 14 18 47 12 16 45 12 16 45 12 16 45 12 16 45 12 16 45 13 17 44 13 17 44 12 16 43 12 16 45 12 16 45 12 16 45 12 16 43 12 16 45 13 17 44 13 17 46 14 18 45 12 18 44 13 17 46 14 19 49 17 20 51 18 22 59 18 22 59 27 31 78 27 31 78 34 37 92 36 41 97 38 42 103 41 45 108 41 45 108 40 44 107 42 43 107 39 41 100 34 39 95 33 38 94 28 32 79 
11 15 42 11 15 42 11 15 42 11 15 42 11 15 42 11 15 42 11 15 42 12 16 43 11 15 42 11 15 42 11 15 42 11 15 42 11 15 44 10 14 43 11 15 42 11 15 42 11 15 42 11 15 42 11 15 44 11 15 44 10 14 41 11 15 44 11 15 42 10 16 42 11 15 42 10 14 41 11 15 42 11 15 42 11 15 40 10 14 41 13 18 47 12 15 46 19 22 57 22 25 66 24 27 70 33 36 91 31 36 91 37 41 102 40 44 105 41 45 108 41 45 109 41 44 111 39 43 104 39 43 104 36 39 94 31 34 87 30 32 81 23 26 67 23 25 66 13 16 47 15 19 48 14 15 43 12 16 45 12 16 43 12 16 43 12 16 43 12 16 43 12 16 43 12 16 45 12 16 45 12 16 45 12 16 45 12 16 45 12 16 45 12 16 45 12 16 45 12 16 45 13 17 46 13 17 46 12 16 43 13 17 46 12 16 45 11 15 44 12 16 43 12 16 43 12 16 45 12 16 43 11 17 43 13 17 46 12 16 43 13 14 44 13 14 42 15 16 46 14 15 43 14 17 48 15 18 51 16 19 52 26 29 72 25 28 73 32 35 88 37 39 96 39 41 100 42 46 110 42 46 109 42 46 109 41 45 109 41 45 108 38 42 103 37 41 102 30 34 82 
13 17 46 12 16 45 10 14 43 11 15 44 11 15 42 11 15 42 11 15 42 11 15 42 12 16 43 11 15 42 11 15 42 11 15 42 11 15 44 10 14 41 11 15 44 11 15 42 11 15 42 11 15 42 11 15 42 11 15 42 12 16 43 10 14 41 10 14 43 10 14 41 11 15 42 11 15 42 10 14 41 13 14 42 11 15 40 11 15 42 14 15 43 15 16 46 16 17 48 17 20 55 17 21 56 23 26 67 23 26 69 29 33 80 30 34 82 32 35 90 35 40 96 34 39 97 40 42 103 39 43 104 39 41 100 39 41 102 36 38 95 32 35 86 32 35 90 25 28 73 24 29 71 20 24 62 18 21 56 17 20 53 14 17 48 14 18 47 12 16 45 12 16 45 12 16 45 11 15 42 12 16 45 12 16 45 12 16 45 12 16 45 12 16 45 12 16 45 12 16 45 12 16 45 14 15 45 13 17 46 12 16 45 13 17 46 12 16 43 12 16 43 12 16 43 12 16 45 11 15 44 12 16 43 11 17 43 13 17 46 12 16 43 14 15 43 12 16 45 12 16 43 13 17 46 14 18 47 14 17 48 18 22 59 19 21 59 23 26 67 27 28 72 27 31 78 33 36 89 34 37 90 38 40 97 37 42 98 37 41 102 38 42 105 37 41 102 35 40 98 
