P3
100 50
255
2 3 8 2 3 8 2 3 8 2 3 8 2 3 8 2 3 8 2 3 8 1 2 7 2 3 8 2 3 8 2 3 8 1 2 7 3 4 9 2 3 8 2 3 8 2 3 8 2 3 8 2 3 8 2 3 8 2 3 8 2 3 7 2 3 7 2 3 7 2 3 5 2 3 8 2 3 8 1 2 7 3 4 9 2 3 8 2 3 8 2 3 8 1 2 7 2 3 8 2 3 8 2 3 8 2 3 8 2 3 8 2 3 8 3 4 9 3 4 9 2 3 8 2 3 8 2 3 8 2 3 8 3 4 9 3 4 9 2 3 8 2 3 8 2 3 8 2 3 8 3 2 8 2 1 7 3 4 9 2 3 8 2 3 8 2 3 8 2 3 8 2 3 8 2 3 8 2 3 8 2 3 8 2 3 8 2 3 8 2 3 8 2 3 8 2 3 8 2 3 8 2 3 8 2 3 8 2 3 8 2 3 8 2 3 8 2 3 8 2 3 8 2 3 8 2 3 8 2 3 8 2 3 8 2 3 8 2 3 8 2 3 8 2 3 8 2 3 8 2 3 8 2 3 8 2 3 8 2 3 8 2 3 7 2 3 8 2 3 8 2 3 8 2 3 8 2 3 8 2 3 8 2 3 8 2 3 8 2 3 8 2 3 8 2 3 8 3 4 9 
2 3 8 2 3 8 0 3 8 2 3 8 3 4 9 2 3 8 3 4 9 4 3 9 2 3 8 2 3 8 2 3 8 2 3 8 1 2 7 3 4 9 2 3 8 1 2 7 2 3 8 2 3 8 2 3 8 2 3 8 2 3 8 2 3 8 2 3 8 2 3 8 3 4 9 2 3 8 3 4 9 2 3 8 2 3 8 2 3 8 2 3 8 2 3 8 2 3 8 2 3 8 2 3 8 2 3 8 2 3 8 2 3 8 2 3 8 2 3 8 2 3 8 2 3 8 2 3 8 2 3 8 2 3 8 2 3 8 2 3 8 2 3 8 3 2 8 2 3 8 2 3 8 2 3 8 2 3 8 2 3 8 2 3 8 2 3 8 2 3 8 2 3 8 2 3 8 2 3 8 2 3 8 2 3 8 2 3 8 2 3 8 2 3 8 2 3 8 2 3 8 2 3 8 2 3 8 2 3 8 2 3 8 2 3 8 2 3 8 2 3 8 2 3 8 2 3 8 2 3 8 2 3 8 2 3 8 2 3 8 2 3 8 2 3 8 2 3 8 2 3 8 2 3 8 2 3 8 2 3 8 2 3 8 2 3 8 2 3 8 2 3 8 2 3 8 2 3 8 2 3 8 2 3 8 2 3 8 2 3 8 3 4 9 2 3 8 2 3 8 
2 3 8 2 3 8 2 3 8 2 3 8 2 3 8 2 3 8 2 3 8 2 3 8 2 3 8 2 3 8 2 3 8 2 3 8 2 3 8 2 3 8 2 3 8 2 3 8 2 3 8 2 3 8 2 3 8 2 3 8 2 3 8 2 3 8 2 3 8 2 3 8 2 3 8 2 3 8 1 2 7 3 4 9 2 3 8 2 3 8 2 3 8 2 3 8 2 3 8 2 3 8 2 3 8 2 3 8 2 3 8 3 4 9 2 3 8 2 3 8 1 2 7 1 2 7 2 3 8 2 3 8 2 3 8 2 3 8 2 3 8 2 3 8 2 3 8 2 3 8 2 3 8 2 3 8 2 3 8 2 3 8 2 3 8 2 3 8 2 3 8 2 3 8 2 3 8 2 3 8 2 3 8 2 3 8 2 3 8 2 3 8 3 4 9 2 3 8 2 3 8 2 3 8 2 3 7 2 3 8 2 3 8 2 3 8 2 3 8 3 4 8 2 3 8 2 3 8 3 4 9 2 3 8 2 3 8 2 2 10 2 3 8 3 4 9 2 3 8 3 4 9 2 3 8 2 3 8 2 3 8 3 4 9 3 4 9 2 3 5 3 4 8 2 3 8 3 4 9 2 3 8 2 3 8 1 2 6 2 3 8 2 3 8 2 3 7 3 4 9 
2 3 8 2 3 8 2 3 8 2 3 8 2 3 8 2 3 8 2 3 8 2 3 8 2 3 8 2 3 8 2 3 8 2 3 8 2 3 8 2 3 8 2 3 8 2 3 8 2 3 8 2 3 8 2 3 8 2 3 8 2 3 8 2 3 8 2 3 8 2 3 8 2 3 8 2 3 8 2 3 8 2 3 8 3 4 9 2 3 8 2 3 8 2 3 8 2 3 8 2 3 8 2 3 8 3 4 9 2 3 8 2 3 8 2 3 8 2 3 8 2 3 8 2 3 8 2 3 8 3 4 9 2 3 8 3 4 9 2 3 8 2 3 8 2 3 8 3 4 9 2 3 8 2 3 8 2 3 8 2 3 8 2 3 8 2 3 8 2 3 8 2 3 8 2 3 8 2 3 8 3 4 9 2 3 8 2 3 8 2 3 8 2 3 8 3 4 9 2 3 8 3 4 8 2 3 7 1 5 8 2 3 8 3 0 7 2 3 8 2 3 8 2 3 8 2 3 8 2 3 8 2 3 8 2 3 8 3 4 9 2 3 8 2 3 8 3 4 9 3 4 9 2 3 8 2 3 8 3 4 9 2 3 8 2 3 8 2 3 8 2 3 8 2 3 8 2 3 8 3 4 9 2 3 7 3 4 9 2 3 8 2 3 8 2 3 8 3 4 9 
2 3 8 2 3 8 2 3 8 2 3 8 2 3 8 2 3 8 2 3 8 2 3 8 2 3 8 2 3 8 2 3 8 2 3 8 2 3 8 2 3 8 2 3 8 2 3 8 2 3 8 2 3 8 2 3 8 2 3 8 2 3 8 2 3 8 2 3 8 2 3 8 2 3 8 2 3 8 2 3 8 2 3 8 2 3 8 2 3 8 2 3 8 2 3 8 2 3 8 4 5 10 2 3 8 2 3 8 2 3 8 2 3 8 2 3 8 2 3 8 2 3 8 2 3 8 2 3 8 2 3 8 1 2 7 2 3 8 2 3 8 2 3 8 2 3 8 2 3 8 2 3 8 2 3 8 3 4 9 2 3 8 2 3 8 2 3 8 3 4 9 2 3 8 2 3 8 2 3 8 2 3 8 2 3 8 2 3 8 2 3 8 2 3 8 2 2 10 2 3 8 2 3 8 3 4 9 3 4 9 3 2 8 3 2 8 2 3 8 2 3 8 3 4 9 3 4 9 2 3 8 2 3 8 2 3 8 2 3 8 1 2 7 2 3 8 2 3 8 2 3 8 3 4 9 3 4 9 3 3 11 3 3 11 4 5 10 5 6 11 4 4 12 4 4 12 4 4 12 5 5 13 5 5 13 6 6 16 6 6 16 5 5 15 4 6 18 5 7 19 
2 3 8 2 3 8 2 3 8 2 3 8 2 3 8 2 3 8 2 3 8 2 3 8 2 3 8 2 3 8 2 3 8 2 3 8 2 3 8 2 3 8 2 3 8 2 3 8 2 3 8 2 3 8 2 3 8 2 3 8 2 3 8 2 3 8 2 3 8 2 3 8 2 3 8 2 3 8 2 3 8 2 3 8 2 3 8 2 3 8 2 3 8 2 3 8 3 4 9 3 4 9 2 3 8 2 3 8 2 3 8 2 3 8 2 3 8 2 3 8 2 3 8 2 3 8 3 4 9 3 4 9 3 4 8 3 4 8 3 4 8 3 4 8 2 3 8 2 3 8 2 3 8 1 2 7 2 3 8 2 3 8 2 3 8 2 3 8 2 3 8 1 2 7 2 3 8 2 3 8 3 4 9 2 3 8 3 4 9 2 3 8 2 3 8 2 3 8 2 3 8 2 3 7 3 2 8 1 2 7 1 2 7 3 2 8 2 3 8 2 3 8 2 3 8 2 3 8 2 3 8 2 3 8 2 3 7 2 3 8 3 4 9 2 3 8 3 4 9 3 4 9 5 5 13 3 4 9 4 4 12 3 3 11 4 4 12 5 5 13 5 5 15 5 5 15 4 7 16 6 9 18 6 8 20 7 9 24 8 10 25 9 11 26 10 11 29 10 11 29 
2 3 8 2 3 8 2 3 8 2 3 8 2 3 8 2 3 8 2 3 8 2 3 8 2 3 8 2 3 8 2 3 8 2 3 8 2 3 8 2 3 8 2 3 8 2 3 8 2 3 8 2 3 8 2 3 8 2 3 8 2 3 8 2 3 8 2 3 8 2 3 8 2 3 8 2 3 8 2 3 8 2 3 8 2 3 8 2 3 8 2 3 8 2 3 8 2 3 8 2 3 8 2 3 8 3 4 9 2 3 8 2 3 8 2 3 8 2 3 8 2 3 8 2 3 8 2 3 8 2 3 8 2 3 8 2 3 8 2 3 8 2 3 8 1 2 7 2 3 8 2 3 8 3 4 9 2 3 8 2 3 8 2 3 8 2 3 8 2 3 8 2 3 8 1 2 7 2 3 8 2 3 8 2 3 8 2 3 8 2 3 8 3 2 10 4 3 11 2 3 8 3 4 8 2 3 8 3 3 11 3 4 9 3 4 9 3 4 9 3 4 9 3 3 11 3 4 9 3 4 9 3 3 11 3 4 9 3 3 11 3 3 11 4 4 12 4 4 14 5 5 13 5 5 15 4 4 14 6 6 16 5 5 15 6 6 18 7 7 17 8 8 20 8 8 20 6 8 20 8 10 23 8 10 25 9 11 26 10 11 29 10 11 29 11 12 32 11 12 32 
2 3 8 2 3 8 2 3 8 2 3 8 2 3 8 2 3 8 2 3 8 2 3 8 2 3 8 2 3 8 2 3 8 2 3 8 2 3 8 2 3 8 2 3 8 2 3 8 2 3 8 2 3 8 2 3 8 2 3 8 2 3 8 2 3 8 2 3 8 2 3 8 2 3 8 2 3 8 2 3 8 2 3 8 2 3 8 2 3 8 2 3 8 2 3 8 2 3 8 2 3 8 2 3 8 2 3 8 2 3 8 3 4 9 2 3 8 2 3 8 3 4 8 3 4 8 3 4 8 2 3 7 3 4 9 2 3 8 2 3 8 2 3 8 2 3 8 2 3 8 1 2 7 1 2 7 3 4 9 2 3 8 2 3 8 3 4 9 1 2 7 1 2 7 2 3 8 2 3 8 3 4 9 3 4 9 3 4 9 3 4 9 4 5 10 4 4 12 4 4 14 5 5 17 5 5 15 4 6 18 5 7 19 7 6 20 6 8 20 7 9 21 8 10 23 8 10 23 9 11 26 10 11 29 10 11 29 12 13 31 11 12 32 13 14 34 14 15 36 14 15 36 14 16 39 13 15 38 15 17 40 16 18 41 16 18 43 17 19 44 17 18 46 18 19 47 17 18 46 19 20 50 18 19 49 18 19 49 19 20 51 19 20 50 19 20 50 18 19 49 
2 3 8 2 3 8 2 3 8 2 3 8 2 3 8 2 3 8 2 3 8 2 3 8 2 3 8 2 3 8 2 3 8 2 3 8 2 3 8 2 3 8 2 3 8 2 3 8 2 3 8 2 3 8 2 3 8 2 3 8 2 3 8 2 3 8 2 3 8 2 3 8 2 3 8 2 3 8 3 4 9 2 3 8 2 3 8 2 3 8 2 3 8 2 3 8 3 4 9 2 3 8 2 3 8 2 3 8 2 3 8 2 3 8 2 3 8 2 3 8 2 3 8 2 3 8 3 4 9 2 3 8 4 5 10 2 3 8 2 3 8 2 3 8 2 3 8 2 3 8 2 3 8 1 2 7 3 4 9 3 4 9 2 3 8 2 3 8 2 3 7 2 3 7 2 3 8 2 3 8 2 3 8 2 3 8 2 2 10 3 3 11 2 5 10 4 4 12 4 4 14 5 5 15 5 5 15 5 5 15 6 6 18 7 7 19 6 8 20 6 8 20 8 10 23 8 10 23 8 10 25 10 11 29 10 11 29 11 12 32 13 14 34 13 14 34 14 15 36 15 16 37 13 15 38 14 16 39 15 17 40 15 17 40 16 18 43 17 19 44 17 19 44 18 20 43 18 19 47 19 20 48 18 20 45 18 19 47 17 21 50 18 19 49 19 20 48 19 20 50 
2 3 8 2 3 8 2 3 8 2 3 8 2 3 8 2 3 8 2 3 8 2 3 8 2 3 8 2 3 8 2 3 8 2 3 8 2 3 8 2 3 8 2 3 8 2 3 8 2 3 8 2 3 8 2 3 8 2 3 8 2 3 8 2 3 8 2 3 8 2 3 8 2 3 8 2 3 8 2 3 8 2 3 8 2 3 8 3 4 9 2 3 8 2 3 8 2 3 8 3 4 9 2 3 8 2 3 8 2 3 8 2 3 8 2 3 8 2 3 8 3 4 9 3 4 9 3 4 9 3 3 11 4 4 12 4 4 12 4 4 14 5 5 15 5 5 15 6 6 16 6 6 16 8 8 20 7 7 19 8 7 21 8 7 21 9 8 22 7 9 22 7 9 22 9 11 26 9 11 26 10 12 27 10 11 29 11 12 30 12 13 31 12 13 33 13 14 34 12 14 35 13 15 36 13 15 36 14 16 37 14 16 39 16 16 40 15 17 40 15 17 42 16 18 43 16 18 43 16 18 43 17 19 44 17 18 46 17 19 44 18 20 45 18 20 45 17 19 44 17 18 46 17 18 46 18 19 47 17 18 46 17 18 46 16 18 43 16 18 43 16 18 43 15 17 42 16 18 43 15 17 42 13 15 38 14 16 39 14 16 39 13 15 36 13 15 36 12 14 35 
3 4 9 2 3 8 2 3 8 2 3 8 2 3 8 3 4 9 3 4 9 2 3 8 2 3 8 1 2 7 1 2 7 3 4 9 2 3 8 2 3 8 2 3 8 3 4 9 2 3 8 3 4 9 2 3 7 3 4 9 2 3 8 2 3 8 2 3 7 3 4 8 2 3 7 2 3 8 2 3 8 2 3 8 2 3 8 2 3 8 1 2 7 2 3 8 2 1 7 3 2 7 2 3 8 2 3 7 2 3 8 2 3 8 2 3 8 2 3 8 2 3 8 3 3 11 3 4 9 4 4 12 5 5 15 5 5 13 4 4 14 5 5 15 7 7 17 7 7 19 7 7 19 8 7 21 6 8 20 8 10 25 9 11 24 9 12 27 10 11 29 11 12 30 12 13 34 11 12 32 12 14 35 12 15 34 14 16 39 14 16 39 15 17 40 16 18 41 16 18 43 17 19 44 17 18 46 17 18 46 18 20 45 19 20 48 19 20 48 19 20 48 19 20 48 19 20 48 19 20 48 19 20 50 19 20 50 19 20 50 19 20 50 19 20 50 19 20 50 19 20 48 18 19 47 19 20 50 18 19 47 17 18 46 17 19 44 17 19 44 16 18 43 15 17 42 15 17 42 14 16 39 14 16 39 13 15 36 13 14 34 13 14 34 11 12 32 11 12 30 
3 2 8 2 3 8 3 2 8 3 2 8 2 3 8 2 3 8 2 3 8 2 3 8 2 3 8 2 3 8 3 4 9 2 3 8 2 3 8 2 3 8 2 3 8 3 4 9 3 2 8 3 2 8 2 3 8 2 3 8 3 4 9 3 4 9 3 4 9 3 4 9 3 3 11 3 3 11 3 3 11 4 4 12 3 3 11 4 4 14 4 4 14 5 5 15 5 5 15 5 5 15 6 6 16 5 5 17 7 7 19 6 6 18 5 7 19 7 7 19 6 8 20 9 7 20 7 9 22 8 10 23 9 8 22 9 11 24 7 10 25 9 11 26 11 13 28 11 13 28 11 12 30 12 13 33 11 12 30 13 14 35 13 14 34 13 14 35 14 14 38 13 15 38 14 16 41 12 17 39 15 17 40 15 17 40 15 17 42 16 17 45 16 16 42 16 18 43 16 18 43 15 17 42 17 19 44 17 19 44 17 19 44 17 19 44 17 19 44 17 19 44 16 18 43 16 18 41 16 18 41 16 16 40 15 17 40 15 17 40 15 17 40 14 16 39 15 17 40 13 15 38 13 15 38 13 15 36 12 14 35 12 15 34 12 13 33 12 13 33 12 13 33 10 11 29 10 11 29 10 11 29 9 11 26 10 12 27 8 10 25 8 10 23 7 9 21 9 9 19 
2 3 8 2 3 8 2 3 8 2 3 8 2 3 8 2 3 8 2 3 8 2 3 8 3 2 7 3 2 8 3 2 8 3 2 8 4 3 9 3 2 8 2 1 6 3 2 7 2 3 8 3 4 9 3 3 11 3 3 11 4 4 12 4 4 12 4 4 12 4 4 12 5 5 15 5 5 15 5 5 15 7 7 19 7 7 19 9 8 22 9 8 24 8 10 23 9 11 26 8 9 27 10 11 29 10 11 29 11 12 33 12 13 33 12 15 34 14 14 38 13 15 36 16 18 39 14 16 39 15 17 40 16 18 41 16 18 43 18 20 45 18 19 47 18 19 47 18 19 47 18 19 47 19 20 50 19 20 48 19 20 50 19 20 50 19 20 50 18 19 49 19 20 50 19 20 50 19 20 50 18 19 49 19 20 48 18 19 47 18 19 47 18 20 45 18 19 47 17 19 44 16 18 43 16 18 43 15 17 40 14 16 39 14 16 39 12 14 35 13 15 36 12 13 34 12 13 33 11 12 32 9 10 28 9 12 29 9 11 26 9 11 26 7 9 22 7 9 24 6 8 20 7 7 19 7 7 19 6 6 16 6 6 16 5 5 17 5 5 15 4 4 14 3 4 9 3 3 11 3 4 9 3 4 9 3 4 9 2 3 8 0 3 8 2 3 7 2 3 8 
2 3 8 3 2 8 2 3 8 2 3 8 2 3 8 2 3 8 2 3 8 2 3 8 1 2 6 2 3 8 3 2 8 2 1 7 2 1 7 3 2 8 3 2 8 3 2 8 2 3 8 2 3 8 2 3 8 3 4 9 3 3 11 3 3 11 5 5 13 5 5 13 5 5 15 5 5 13 3 5 17 5 7 20 5 7 19 7 9 22 7 9 24 7 9 22 8 10 25 7 10 25 9 12 29 10 11 29 12 13 33 10 13 32 13 14 34 13 14 35 13 15 36 15 17 40 14 16 39 15 17 40 16 18 41 16 18 43 17 18 46 17 18 46 18 19 47 18 20 45 19 20 48 19 20 50 19 20 50 18 19 50 19 20 50 19 20 50 19 20 50 19 20 50 19 20 50 19 20 48 19 20 48 18 19 47 19 20 48 18 19 47 16 20 47 17 18 48 17 19 44 16 18 43 16 18 43 15 17 40 14 16 39 15 15 39 12 14 35 13 15 36 11 12 33 11 14 33 12 13 33 10 11 29 11 12 30 9 11 26 8 9 27 7 9 22 7 9 22 6 8 21 5 7 19 5 7 19 6 6 16 6 6 16 4 4 14 4 4 14 4 4 12 3 3 11 3 3 11 2 2 10 3 3 13 3 3 11 2 3 8 2 3 8 2 3 7 2 3 8 
3 3 11 4 4 12 4 4 14 5 5 15 6 6 16 6 6 18 5 7 19 7 7 19 7 9 22 6 8 21 8 10 25 9 11 26 10 11 29 10 11 29 10 11 31 12 13 31 13 14 34 14 15 36 13 15 36 13 15 38 15 17 40 14 16 41 16 18 43 16 18 43 16 17 45 17 18 46 18 19 47 18 19 47 17 18 46 19 20 48 19 20 50 19 20 50 16 20 49 19 20 50 17 20 51 17 21 50 19 20 50 17 21 50 19 20 48 19 20 50 18 19 49 18 19 49 18 19 49 18 19 47 16 18 43 16 18 43 16 17 45 15 17 42 14 16 39 14 16 39 14 16 37 13 14 35 14 15 36 11 12 32 11 12 32 11 12 30 9 12 29 9 10 28 9 11 26 8 10 25 6 10 22 6 8 21 6 8 20 5 7 19 7 7 17 5 5 15 5 5 15 3 3 13 4 4 14 4 4 12 4 4 12 3 4 9 2 3 7 0 3 8 3 4 9 2 3 8 2 3 8 2 3 8 2 3 8 4 3 9 1 2 7 1 2 7 2 3 7 1 2 7 2 3 8 2 3 8 3 4 9 2 3 8 2 3 8 2 3 8 3 4 9 2 3 8 2 3 8 2 2 10 1 2 7 2 3 8 2 3 8 2 3 8 1 2 7 2 3 8 
3 3 11 4 4 12 4 4 12 5 5 15 6 6 16 6 6 16 7 7 19 8 8 20 10 8 22 9 8 22 8 10 23 8 9 27 9 11 26 11 12 30 10 11 31 12 13 33 12 13 33 14 15 35 13 15 36 14 16 37 15 17 40 15 17 40 16 18 43 16 18 43 17 18 46 17 18 46 18 19 47 18 19 47 18 19 47 19 20 50 19 20 48 21 21 49 19 20 50 17 21 48 19 20 50 18 19 49 18 19 47 19 20 48 18 19 49 19 20 48 19 20 50 18 19 49 18 19 49 17 18 46 17 19 44 16 18 43 16 18 43 16 18 43 15 17 40 14 16 39 13 15 38 14 15 36 13 14 35 12 13 34 12 13 33 11 12 32 10 11 29 10 11 29 10 9 25 9 11 26 8 7 21 8 7 21 8 8 20 5 8 17 6 6 18 5 5 15 5 5 15 4 4 12 4 4 12 4 4 12 4 4 12 3 3 11 2 3 8 2 3 8 2 3 8 2 3 8 0 4 7 3 2 8 1 2 7 2 1 7 1 2 7 1 2 7 2 2 10 2 3 8 2 3 8 2 3 8 3 4 9 2 3 8 2 3 8 2 3 8 2 3 8 2 3 8 3 4 9 2 3 8 2 3 8 2 3 8 2 3 8 1 2 7 3 4 8 2 3 8 
10 11 29 12 13 33 12 13 33 13 14 34 12 14 35 12 14 35 14 14 38 14 16 39 15 15 39 15 16 37 14 16 39 16 18 41 15 17 40 15 17 40 14 16 41 16 18 43 17 19 42 17 19 44 17 19 44 17 18 46 16 18 43 16 18 43 17 19 44 16 18 43 17 19 44 17 19 44 17 19 44 15 17 42 15 17 42 15 17 42 14 16 41 14 16 39 15 15 39 14 16 39 13 14 35 14 15 36 13 14 34 12 13 33 12 13 33 11 12 30 12 13 33 8 9 27 11 12 30 8 10 25 9 11 26 8 10 25 7 9 22 7 9 22 6 8 20 9 9 21 8 8 20 5 7 19 7 7 19 7 7 17 3 7 18 6 6 16 6 6 16 5 5 15 5 5 15 6 6 16 4 4 12 4 4 12 4 4 12 4 4 14 4 4 12 3 3 11 3 4 9 4 5 9 2 3 8 2 3 8 3 4 9 2 2 10 2 3 8 2 3 8 0 3 8 2 3 8 2 3 8 2 3 8 2 3 8 2 3 8 2 3 7 2 3 8 2 3 8 3 4 9 2 3 8 2 3 7 2 3 7 2 3 8 2 3 7 2 3 8 2 3 7 2 3 8 3 4 9 2 2 10 2 3 8 3 4 9 1 2 7 2 3 8 2 3 8 2 3 8 
16 18 41 16 18 43 16 18 43 17 19 44 17 18 46 17 18 46 19 20 48 18 19 49 16 20 49 18 19 47 19 20 48 19 20 50 19 20 50 19 20 50 21 22 52 20 21 52 20 20 48 20 20 48 18 19 47 18 19 47 18 19 47 18 19 47 17 18 46 17 18 46 16 18 43 15 17 42 15 17 42 14 16 39 15 15 39 13 14 35 12 13 34 13 14 35 12 13 33 12 13 33 10 11 29 10 11 29 9 11 26 8 10 23 8 10 25 6 9 18 7 9 21 7 7 17 4 7 16 4 7 16 6 6 16 5 5 15 3 6 13 5 4 12 3 3 11 3 4 9 3 4 9 2 3 8 3 3 11 3 4 9 2 2 10 1 2 6 2 3 8 2 3 8 2 3 8 4 3 9 3 2 8 1 2 7 3 4 9 2 3 8 3 2 8 2 3 8 2 3 8 2 3 8 3 4 9 3 4 9 3 4 9 0 3 8 2 3 8 3 2 8 2 3 8 2 3 7 3 2 8 0 3 8 4 1 8 2 3 8 3 4 9 2 3 8 1 2 7 2 3 8 2 3 7 3 2 8 3 2 8 3 2 8 3 4 9 2 3 7 2 3 8 2 3 8 2 3 8 2 3 8 2 3 8 2 3 8 2 3 8 2 3 8 2 3 7 2 3 8 
16 18 43 17 19 44 17 19 44 17 19 44 18 20 45 17 19 44 17 19 44 17 18 46 17 18 46 17 18 46 18 19 47 17 19 44 17 19 44 16 18 43 17 19 44 17 17 43 17 19 42 15 17 40 16 18 41 14 16 39 15 17 40 14 16 39 12 14 35 13 15 38 13 14 35 11 14 33 12 15 34 11 12 32 12 13 33 9 12 31 10 13 30 10 12 27 9 11 26 8 10 25 7 9 24 8 10 23 6 8 21 6 8 20 5 7 19 5 7 19 6 6 18 6 6 16 5 5 15 5 5 15 4 4 12 2 5 12 4 5 10 3 4 9 2 3 8 2 3 8 2 3 8 2 3 8 2 3 8 2 3 8 2 3 8 2 3 8 2 3 8 2 3 8 2 3 8 2 3 8 2 3 8 2 3 8 2 3 8 2 3 8 2 3 8 2 3 8 2 3 8 3 4 9 2 3 8 2 3 8 3 4 9 2 3 8 2 3 8 2 3 8 3 4 9 2 3 8 2 3 8 2 3 8 2 3 8 2 3 8 2 3 8 2 3 8 2 3 8 2 3 8 2 3 8 2 3 8 2 3 8 2 3 8 2 3 8 2 3 8 2 3 8 2 3 8 2 3 8 2 3 8 1 2 7 2 3 8 2 3 8 2 3 8 2 3 8 2 3 8 
18 19 47 16 17 45 18 20 45 14 16 41 15 17 42 15 17 40 14 16 39 14 16 37 13 14 35 13 14 35 12 13 33 11 12 32 10 11 29 10 12 27 9 11 26 8 10 25 8 10 23 6 8 21 8 7 21 7 7 19 7 7 17 8 6 17 5 5 15 5 5 13 4 4 14 4 4 14 4 4 12 3 3 11 3 4 9 2 3 8 2 3 8 2 3 8 2 3 8 3 2 8 3 2 8 2 3 8 1 2 7 3 2 8 2 1 7 2 3 8 2 1 6 3 2 8 3 4 9 1 2 6 3 2 8 2 1 7 2 1 7 2 3 8 2 3 8 2 3 8 2 3 8 2 3 8 2 3 8 2 3 8 2 3 8 2 3 8 2 3 8 2 3 8 2 3 8 2 3 8 2 3 8 2 3 8 2 3 8 2 3 8 2 3 8 2 3 8 2 3 8 3 4 9 2 3 8 2 3 8 2 3 8 2 3 8 3 4 9 2 3 8 2 3 8 2 3 8 2 3 8 2 3 8 2 3 8 2 3 8 2 3 8 2 3 8 2 3 8 2 3 8 2 3 8 2 3 8 2 3 8 2 3 8 2 3 8 2 3 8 2 3 8 2 3 8 2 3 8 2 3 8 2 3 8 2 3 8 2 3 8 2 3 8 2 3 8 2 3 8 
18 19 47 16 17 45 16 17 45 15 16 44 15 17 42 15 17 42 14 16 39 14 16 39 13 14 35 13 16 35 10 13 32 11 12 30 10 11 29 10 12 27 10 12 27 7 9 22 7 11 23 6 8 21 8 8 20 8 8 20 6 6 16 6 6 16 4 4 14 4 4 12 4 4 12 4 4 12 3 3 11 2 2 10 3 3 11 2 2 10 3 4 9 3 4 9 1 2 7 3 4 9 2 3 8 2 3 8 2 3 8 2 3 8 2 3 8 1 2 7 3 2 8 3 2 8 2 3 8 2 3 8 3 2 8 3 2 8 3 2 8 2 3 8 2 3 8 2 3 8 2 3 8 1 2 7 2 3 8 2 3 8 2 3 8 2 3 8 2 3 8 2 3 8 2 3 8 2 3 8 2 3 8 2 3 8 2 3 8 2 3 8 2 3 8 2 3 8 2 3 8 2 3 8 2 3 8 2 3 8 2 3 8 2 3 8 2 3 8 2 3 8 2 3 8 2 3 8 2 3 8 2 3 8 2 3 8 2 3 8 2 3 8 2 3 8 2 3 8 2 3 8 2 3 8 2 3 8 2 3 8 2 3 8 2 3 8 1 2 7 2 3 8 2 3 8 1 2 7 2 3 8 3 4 9 1 2 7 2 3 8 2 3 8 2 3 8 2 3 8 
7 7 19 6 6 18 6 6 18 5 5 15 5 5 15 5 5 13 4 4 12 4 4 12 5 5 13 3 3 11 3 3 11 2 2 10 3 4 9 4 5 10 4 3 9 3 4 9 3 4 9 2 3 8 1 5 8 2 3 8 3 4 9 3 4 9 2 3 8 3 4 9 2 3 8 2 3 8 1 2 7 3 4 9 3 4 9 3 4 9 4 5 10 2 3 8 2 3 8 2 3 8 2 3 8 2 3 8 2 3 8 1 2 7 2 3 8 3 4 9 3 4 9 2 3 8 3 4 9 2 3 8 2 3 8 2 3 8 2 3 8 2 3 7 2 3 8 2 3 8 1 2 7 2 3 8 1 2 7 2 3 8 2 3 8 2 3 8 2 3 8 2 3 8 2 3 8 2 3 8 2 3 8 2 3 8 2 3 8 2 3 8 2 3 8 2 3 8 2 3 8 2 3 8 2 3 8 2 3 8 2 3 8 2 3 8 1 2 7 2 3 8 2 3 8 2 3 8 2 3 8 1 2 7 2 3 8 2 3 8 2 3 8 2 3 8 2 3 8 2 3 8 2 3 8 2 3 8 2 3 8 2 3 8 2 3 8 2 3 8 2 3 8 2 3 8 2 3 8 2 3 8 3 4 9 2 3 8 2 3 8 2 3 8 2 3 8 2 3 8 
6 6 16 5 5 15 5 5 15 3 3 11 4 4 12 3 4 9 3 4 9 3 4 9 3 2 8 2 3 8 2 3 8 3 2 8 2 3 8 1 2 7 3 2 8 2 1 7 2 3 7 1 2 7 2 1 6 3 2 8 2 3 8 2 3 8 2 3 8 2 3 8 3 4 9 3 4 9 3 4 9 3 4 9 2 3 7 2 3 7 1 2 7 2 3 8 1 2 7 1 2 7 3 4 9 2 3 8 2 3 8 2 3 8 2 3 8 2 3 8 2 3 8 2 3 8 3 4 9 2 3 8 2 3 8 2 3 8 1 2 7 3 4 9 2 3 8 2 3 8 3 4 9 2 3 7 3 4 8 2 3 8 2 3 8 2 3 8 2 3 8 2 3 8 2 3 8 2 3 8 2 3 8 2 3 8 2 3 8 2 3 8 2 3 8 2 3 8 2 3 8 2 3 8 2 3 8 2 3 8 2 3 8 2 3 8 2 3 8 2 3 8 2 3 8 2 3 8 2 3 8 2 3 8 2 3 8 2 3 8 2 3 8 2 3 8 2 3 8 2 3 8 2 3 8 2 3 8 2 3 8 2 3 8 2 3 8 2 3 8 2 3 8 2 3 8 2 3 8 2 3 8 2 3 8 2 3 8 2 3 8 2 3 8 2 3 8 2 3 8 
3 4 9 3 4 8 3 4 9 2 3 8 2 3 8 3 3 11 2 3 8 3 4 9 2 3 8 2 3 8 2 3 8 1 2 7 2 3 8 3 4 9 4 3 9 3 2 8 2 3 8 2 3 8 3 2 8 3 2 8 3 2 8 3 2 8 2 3 8 2 3 8 2 3 8 2 3 8 3 4 9 2 3 8 2 3 8 2 3 8 3 4 9 3 4 9 2 3 8 2 3 8 2 3 8 2 3 8 2 3 8 1 2 7 2 3 8 2 3 8 2 3 8 2 3 8 2 3 8 2 3 8 2 3 8 2 3 7 2 3 7 2 3 8 2 3 8 2 3 8 2 3 8 3 4 8 2 3 7 2 3 8 2 3 8 2 3 8 2 3 8 2 3 8 2 3 8 2 3 8 2 3 8 2 3 8 2 3 8 2 3 8 2 3 8 2 3 8 3 4 9 2 3 8 3 4 9 2 3 8 2 3 8 2 3 8 2 3 8 2 3 8 2 3 8 2 3 8 2 3 8 2 3 8 2 3 8 2 3 8 2 3 8 2 3 8 2 3 8 2 3 8 2 3 8 2 3 8 2 3 8 2 3 8 3 4 9 2 3 8 2 3 8 3 4 9 2 3 8 2 3 8 2 3 8 2 3 8 2 3 8 2 3 8 2 3 8 2 3 8 
2 1 7 3 2 8 2 1 7 2 3 8 2 3 8 2 3 7 2 3 8 2 3 7 2 3 8 2 3 8 1 2 7 3 4 9 3 4 9 2 3 8 3 4 9 3 2 8 2 3 8 2 3 8 2 3 8 3 4 9 2 3 7 2 3 8 2 3 8 3 4 9 2 3 8 3 4 9 2 3 8 2 3 8 2 3 8 2 3 8 2 3 8 2 3 8 2 3 8 2 3 8 2 3 8 2 3 8 2 3 8 2 3 8 2 3 8 2 3 8 3 4 9 2 3 8 3 4 9 2 3 8 2 3 8 2 3 8 2 3 8 2 3 8 2 3 8 2 3 8 2 3 8 2 3 8 2 3 8 2 3 8 2 3 8 2 3 8 2 3 8 2 3 8 2 3 8 2 3 8 2 3 8 2 3 8 2 3 8 2 3 8 2 3 8 2 3 8 2 3 8 2 3 8 2 3 8 3 4 9 2 3 8 2 3 8 2 3 8 2 3 8 2 3 8 3 4 9 2 3 8 1 2 7 1 2 7 2 3 8 2 3 8 2 3 8 2 3 8 2 3 8 2 3 8 2 3 8 2 3 8 2 3 8 2 3 8 2 3 8 2 3 8 2 3 8 2 3 8 2 3 8 2 3 8 2 3 8 2 3 8 2 3 8 2 3 8 2 3 8 
3 2 8 3 2 8 1 2 7 2 3 8 2 3 8 2 3 8 0 3 8 0 2 7 2 3 8 2 3 8 2 3 8 2 3 8 3 2 8 3 2 8 2 3 8 2 3 8 2 3 8 3 4 9 2 3 8 2 3 8 3 4 9 1 2 7 2 3 7 2 3 8 2 3 8 2 3 8 2 3 8 2 3 8 3 4 9 2 3 8 3 4 9 2 3 8 2 3 8 2 3 8 2 3 8 2 3 8 2 3 8 2 3 8 2 3 8 2 3 8 2 3 8 3 4 9 2 3 8 2 3 8 2 3 8 3 2 8 2 3 8 2 3 8 2 3 7 2 3 8 2 3 8 2 3 8 2 3 8 2 3 8 2 3 8 2 3 7 2 3 8 2 3 8 2 3 8 2 3 8 2 3 8 2 3 8 2 3 8 2 3 8 2 3 8 2 3 8 2 3 8 2 3 8 2 3 8 2 3 8 2 3 8 2 3 8 2 3 8 3 4 9 2 3 8 2 3 8 2 3 8 2 3 8 2 3 8 2 3 8 2 3 8 2 3 8 2 3 8 2 3 8 2 3 8 2 3 8 2 3 8 2 3 8 2 3 8 2 3 8 2 3 8 2 3 8 2 3 8 2 3 8 2 3 8 2 3 8 2 3 8 2 3 8 2 3 8 2 3 8 
2 3 8 2 3 8 1 2 7 2 3 8 2 3 8 2 3 8 2 3 8 3 4 9 2 3 8 2 3 8 2 3 8 2 3 8 2 3 8 2 3 8 2 3 8 2 3 8 2 3 8 2 3 8 2 3 8 2 3 8 2 3 8 2 3 8 2 3 8 2 3 8 3 4 9 3 4 9 1 2 7 3 4 9 3 4 9 1 2 7 3 4 9 2 3 8 2 3 8 2 3 8 2 3 8 2 3 8 2 3 8 2 3 8 2 3 8 2 3 8 3 4 9 2 3 8 2 3 8 2 3 8 3 4 9 2 3 8 2 3 8 2 3 8 2 3 8 2 3 8 2 3 8 2 3 8 2 3 8 2 3 7 2 3 7 2 3 7 2 3 8 2 3 8 2 3 8 2 3 8 1 2 7 2 3 8 3 4 9 2 3 8 2 3 8 3 4 9 2 3 8 2 3 8 2 3 8 2 3 8 2 3 8 3 2 10 1 2 7 2 3 8 3 4 9 4 5 10 3 4 9 2 3 8 2 3 8 2 3 8 2 3 8 2 3 7 2 3 8 2 3 8 2 3 8 3 4 8 2 3 8 1 2 7 1 2 7 2 3 8 3 4 9 3 4 9 1 2 7 2 3 7 2 3 7 2 3 7 3 4 9 2 3 7 3 2 8 2 3 8 
2 3 8 2 3 8 2 3 8 2 3 8 2 3 8 3 4 9 2 3 8 2 3 8 2 3 8 2 3 8 2 3 8 2 3 8 2 3 8 2 3 8 2 3 8 2 3 8 2 3 8 2 3 8 1 2 7 2 3 8 2 3 8 2 3 8 2 3 8 2 3 8 2 3 8 2 3 8 2 3 8 2 3 8 2 3 8 2 3 8 1 2 7 2 3 8 2 3 8 2 3 8 2 3 8 2 3 8 3 4 9 1 2 7 3 4 9 2 3 8 2 3 8 2 3 8 2 3 8 2 3 8 2 3 8 3 4 9 2 3 8 2 3 8 2 3 8 2 3 8 2 3 8 3 4 9 2 3 8 3 4 9 3 4 9 3 4 9 0 3 8 2 3 8 2 3 8 2 3 8 2 3 8 2 3 8 3 4 9 2 3 8 2 3 8 2 3 8 2 3 8 2 3 8 2 3 8 1 2 7 3 2 8 3 2 8 2 3 8 1 2 7 2 3 8 2 3 8 2 3 8 2 3 8 2 3 8 1 2 7 2 3 8 2 3 8 2 3 8 1 2 7 2 3 8 2 3 8 2 3 8 2 3 8 3 3 11 2 3 8 3 4 8 2 3 8 3 4 9 3 4 8 3 4 8 3 4 8 2 3 8 2 3 8 2 3 8 3 2 8 
2 3 8 3 4 9 2 3 8 2 3 8 2 3 8 2 3 8 2 3 8 3 4 9 2 3 8 2 3 8 2 3 8 2 3 8 2 3 8 2 3 8 2 3 8 2 3 8 2 3 8 2 3 8 2 3 8 2 3 8 2 3 8 2 3 8 2 3 8 2 3 8 2 3 8 2 3 8 3 4 9 2 3 8 2 3 8 2 3 8 2 3 8 1 2 7 2 3 8 2 3 8 3 4 9 2 3 8 2 3 8 2 3 8 2 3 8 1 2 7 2 3 8 2 3 8 2 3 8 2 3 8 2 3 8 2 3 8 2 3 8 2 3 8 2 3 8 2 3 8 2 3 8 2 3 8 2 3 8 2 3 8 2 3 8 2 3 8 2 3 8 3 2 8 2 3 8 3 4 9 3 4 9 3 2 8 4 3 9 2 3 8 1 2 7 1 2 7 2 3 7 2 3 7 3 4 9 2 3 8 1 2 7 2 3 8 3 4 9 2 3 8 3 4 9 2 3 8 2 3 8 2 3 8 3 4 9 1 2 7 3 2 7 1 2 6 4 2 7 2 3 8 2 3 8 4 1 8 2 3 8 3 2 8 1 2 7 2 3 8 3 4 9 4 5 10 4 4 12 4 4 12 3 4 9 4 4 12 5 5 13 5 5 13 7 7 17 7 7 19 
2 3 8 2 3 8 2 3 8 2 3 8 2 3 8 3 4 9 3 4 9 2 3 8 2 3 8 2 3 8 2 3 8 2 3 8 2 3 8 2 3 8 2 3 8 2 3 8 2 3 8 2 3 8 2 3 8 2 3 8 2 3 8 1 2 7 2 3 8 2 3 8 2 3 8 3 4 9 2 3 8 2 3 8 2 3 8 3 4 9 2 3 8 2 3 8 3 4 9 2 3 8 2 3 8 2 3 8 2 3 8 2 3 8 2 3 8 3 4 9 2 3 8 2 3 8 2 3 8 2 3 8 2 3 8 2 3 8 2 3 8 2 3 8 2 3 8 3 4 9 2 3 8 3 4 9 2 3 8 3 4 9 2 3 8 2 3 8 2 3 8 2 3 8 2 3 8 2 3 8 2 3 8 2 3 8 2 3 8 3 2 8 2 3 8 2 3 8 1 2 7 2 3 7 2 3 7 2 3 8 2 3 8 1 2 7 2 3 8 2 3 8 2 3 8 1 2 7 1 2 7 1 2 7 2 3 8 2 3 8 1 2 7 2 3 7 2 2 10 2 3 8 2 3 8 2 3 8 2 3 8 2 3 8 3 4 9 4 5 10 4 4 12 4 4 12 4 4 12 5 5 15 4 4 14 5 5 15 4 7 16 3 6 15 6 8 20 8 7 21 
2 3 8 2 3 8 2 3 8 2 3 8 2 3 8 2 3 8 2 3 8 3 4 9 2 3 8 2 3 8 2 3 8 2 3 8 2 3 8 2 3 8 2 3 8 2 3 8 1 2 7 2 3 8 2 3 8 2 3 8 1 2 7 2 3 8 2 3 8 2 3 8 2 3 8 1 2 7 2 3 8 2 3 8 2 3 8 2 3 8 2 3 8 2 3 8 2 3 8 2 3 8 3 4 9 2 3 8 2 3 8 3 4 9 2 3 8 2 3 8 2 3 8 2 3 8 2 3 8 3 4 9 2 3 8 2 3 8 2 3 8 3 4 9 2 3 8 2 3 8 2 3 8 1 2 7 2 3 8 2 3 8 3 4 9 3 4 8 0 3 8 2 3 8 2 3 8 2 3 8 2 3 8 2 3 8 2 3 8 2 3 8 2 3 8 2 3 8 2 3 8 1 2 7 2 3 8 3 4 9 2 3 8 2 3 8 2 3 8 2 3 8 3 4 9 3 4 9 3 3 11 3 3 11 3 3 11 4 4 12 3 3 11 4 4 12 4 4 14 5 5 13 5 5 15 6 6 16 6 6 16 6 6 16 4 6 18 6 8 20 6 8 20 7 9 22 7 9 22 9 11 24 8 10 23 9 11 26 9 11 26 9 11 26 11 12 30 10 13 32 
2 3 8 2 3 8 2 3 8 3 4 9 2 3 8 2 3 8 3 4 9 2 3 8 2 3 8 2 3 8 2 3 8 2 3 8 2 3 8 2 3 8 2 3 8 2 3 8 2 3 8 2 3 8 2 3 8 2 3 8 2 3 8 2 3 8 2 3 8 2 3 8 2 3 8 2 3 8 2 3 8 2 3 8 2 3 8 2 3 8 1 2 7 2 3 8 3 4 9 2 3 8 2 3 8 2 3 8 2 3 8 2 3 8 2 3 8 2 3 8 2 3 8 3 4 9 3 4 9 2 3 8 2 3 8 2 3 8 2 3 8 2 3 8 2 3 8 2 3 8 2 3 8 2 3 8 2 3 8 2 3 8 2 3 8 2 3 8 2 3 8 0 1 6 2 3 8 3 4 9 2 3 8 2 3 8 1 2 7 2 3 8 3 2 7 2 1 7 2 3 8 2 3 8 2 3 8 2 3 8 2 3 8 2 3 8 4 4 12 4 4 12 5 5 13 4 4 14 5 5 15 6 6 18 5 5 17 8 8 20 6 8 20 7 9 22 8 10 22 9 11 26 10 11 29 10 11 29 13 14 34 12 13 33 12 14 35 13 15 36 14 16 37 14 16 39 14 16 39 16 18 43 16 18 43 16 18 43 17 18 46 17 18 46 16 20 47 18 19 47 
3 4 9 2 3 8 2 3 8 1 2 7 2 3 8 2 3 8 2 3 8 3 4 9 2 3 8 2 3 8 2 3 8 2 3 8 2 3 8 2 3 8 2 3 8 2 3 8 2 3 8 2 3 8 2 3 8 1 2 7 2 3 8 2 3 8 2 3 8 1 2 7 2 3 8 1 2 7 2 3 8 2 3 8 2 3 8 2 3 8 2 3 8 2 3 8 2 3 8 2 3 8 2 3 8 2 3 8 3 4 9 2 3 8 3 4 9 2 3 8 2 3 8 2 3 8 2 3 8 2 3 8 2 3 8 2 3 8 2 3 8 2 3 8 2 3 8 2 3 8 2 3 8 2 3 8 2 3 8 2 3 8 2 3 8 2 3 8 2 3 8 1 0 6 2 1 7 2 3 8 0 3 8 2 3 8 2 3 8 3 4 9 3 2 8 1 2 6 2 3 7 2 3 8 2 3 8 2 3 8 2 3 8 3 4 9 3 4 9 3 4 9 5 5 13 4 4 12 5 5 15 6 6 16 6 6 18 8 8 20 6 8 20 8 10 23 8 10 23 8 10 23 9 11 26 10 11 29 12 13 31 12 13 31 12 14 35 13 15 36 14 16 37 15 17 40 14 16 39 16 18 43 16 18 41 17 19 44 17 19 44 17 19 44 18 19 47 18 19 47 
2 3 8 2 3 8 2 3 8 2 3 8 2 3 8 2 3 8 3 4 9 2 3 8 2 3 8 2 3 8 2 3 8 2 3 8 2 3 8 2 3 8 2 3 8 2 3 8 2 3 8 2 3 8 2 3 8 2 3 8 2 3 8 2 3 8 2 3 8 2 3 8 2 3 8 2 3 8 2 3 8 2 3 8 2 3 8 2 3 8 2 3 8 2 3 8 2 3 8 2 3 8 2 3 8 2 3 8 2 3 8 2 3 8 2 3 8 2 3 8 2 3 8 2 3 8 2 3 8 2 3 8 2 3 8 2 3 8 2 3 8 2 3 8 2 3 7 2 3 7 2 3 7 3 4 9 3 4 9 4 5 10 4 5 10 5 5 13 5 5 13 5 5 15 5 5 15 6 6 16 6 8 20 6 8 20 7 9 22 9 11 24 8 10 25 10 12 27 10 11 29 12 13 33 11 13 34 12 14 35 13 15 36 13 14 35 14 16 39 14 16 39 16 18 43 16 18 43 17 19 44 17 19 44 18 19 47 18 19 47 17 18 46 18 19 47 18 19 49 19 20 48 18 19 47 17 18 46 18 19 47 18 19 47 18 19 47 17 18 46 18 20 45 17 18 46 17 19 44 16 18 43 16 18 43 15 17 42 15 15 41 13 15 38 14 15 36 13 15 36 
2 3 8 2 3 8 2 3 8 2 3 8 2 3 8 3 4 9 2 3 8 2 3 8 0 3 8 2 3 8 2 3 8 2 3 8 1 2 7 2 3 8 3 4 9 2 3 8 3 4 9 3 4 9 2 3 7 2 3 8 2 3 8 1 2 7 3 4 8 2 3 8 2 3 8 2 2 10 3 4 8 2 3 7 3 4 8 2 3 8 3 4 9 3 4 9 3 4 9 2 3 8 1 2 7 2 3 8 2 1 6 2 3 5 3 4 8 4 2 7 1 2 6 2 1 7 2 3 8 3 2 8 1 2 7 2 1 7 2 3 7 2 3 8 2 3 8 3 2 8 2 3 8 3 4 9 2 3 8 3 3 11 4 4 12 4 4 14 5 5 13 5 5 13 7 7 17 6 6 16 6 9 18 6 8 21 7 9 22 8 10 23 10 9 23 10 12 27 10 11 29 12 13 33 12 13 31 13 14 35 14 15 36 13 16 35 14 16 39 15 17 40 16 18 43 16 18 43 16 18 43 17 19 44 17 18 46 18 19 47 18 19 47 18 19 47 18 19 47 18 19 47 18 19 47 17 18 46 19 20 48 19 20 48 18 19 47 17 18 46 18 19 47 16 17 45 18 18 44 16 18 43 16 17 45 16 18 43 14 14 38 14 16 39 13 15 38 14 15 36 
2 3 7 2 3 8 2 3 8 2 3 8 2 3 8 2 3 8 2 3 8 2 2 10 1 2 7 2 3 8 2 3 8 2 3 8 2 3 8 3 4 9 2 3 8 3 2 8 1 2 7 2 3 8 2 3 7 2 3 8 3 2 7 3 2 8 1 0 5 3 2 7 1 2 7 1 2 7 2 3 8 2 3 8 2 3 8 2 3 8 2 3 8 2 3 8 5 2 9 3 4 9 2 2 10 3 3 11 4 4 12 4 4 12 5 6 11 5 5 13 5 5 13 5 8 17 6 6 16 5 8 17 8 8 20 5 9 20 7 9 22 7 9 22 8 10 25 9 11 26 9 12 29 12 11 29 11 12 30 11 12 32 14 13 31 13 14 34 16 14 36 14 15 36 14 15 36 14 16 37 15 17 40 15 17 40 15 17 40 15 17 42 15 17 40 16 17 45 16 18 41 17 18 46 17 19 44 16 18 43 16 18 43 16 18 43 17 19 44 16 18 43 15 17 42 15 17 42 15 17 40 15 17 40 15 17 38 14 16 39 15 16 37 14 15 36 14 15 36 13 14 34 12 13 33 12 13 31 11 12 30 11 12 30 10 12 27 10 12 27 8 10 25 7 9 22 7 9 22 8 8 20 8 8 20 7 7 19 7 7 19 7 7 19 5 5 15 6 6 18 
2 3 7 2 3 8 2 3 8 2 3 8 2 2 10 2 3 8 2 3 7 2 3 7 2 3 8 1 2 7 3 4 9 2 3 8 2 3 8 2 3 8 2 3 8 1 2 7 2 3 8 1 2 7 2 3 8 2 3 8 2 1 6 2 3 8 3 2 7 3 2 8 2 1 6 2 3 7 3 2 10 2 3 8 2 1 7 1 2 7 2 3 8 3 2 8 2 3 8 3 4 9 3 3 11 3 3 11 4 4 12 4 4 12 5 5 13 5 5 13 5 5 15 5 7 19 6 8 20 6 8 21 8 10 23 8 10 23 9 11 26 10 11 29 11 13 28 14 12 33 13 14 34 13 14 35 13 15 36 15 16 37 15 15 39 16 18 41 16 18 43 16 18 43 18 20 45 18 19 47 18 19 47 18 19 47 18 19 47 18 19 47 18 19 47 17 18 46 17 18 46 19 21 46 19 20 48 18 19 47 18 19 47 18 19 47 17 19 44 17 19 44 15 16 44 16 18 41 15 17 40 14 16 39 14 16 37 13 15 36 13 15 36 12 13 33 12 13 33 11 12 30 10 12 27 9 11 26 8 10 23 8 10 23 5 9 20 10 10 22 6 8 20 6 6 16 6 6 16 3 3 11 4 4 12 4 4 12 3 4 9 3 3 11 2 3 8 3 4 9 
3 2 8 2 3 8 2 3 8 2 3 8 2 3 8 2 3 8 2 3 8 2 3 8 2 3 8 2 3 8 3 4 9 2 3 8 2 3 8 2 2 10 3 4 9 0 3 8 2 3 8 3 4 9 2 3 8 2 3 8 3 3 11 3 4 9 3 3 11 4 4 12 4 4 12 6 6 14 3 6 15 5 5 15 3 6 15 4 7 16 4 7 16 5 7 19 5 8 17 6 8 20 9 9 21 7 9 22 8 10 23 10 9 23 8 10 25 10 11 29 10 12 27 11 12 30 10 11 29 11 12 30 12 13 33 12 13 33 14 15 36 13 14 35 15 15 39 13 15 38 14 16 39 15 15 39 14 16 39 15 17 42 15 17 40 15 17 40 16 18 43 16 18 43 17 19 44 17 19 44 15 17 42 16 18 43 16 18 43 16 18 43 15 17 42 14 16 39 14 16 39 14 16 37 15 15 39 14 14 38 14 15 36 14 15 36 11 14 33 12 15 34 10 13 30 11 14 33 11 12 30 10 11 29 10 12 27 8 10 25 9 10 28 8 10 25 7 9 24 9 8 22 8 8 20 7 7 19 6 6 16 6 6 16 7 7 17 5 5 13 6 6 14 5 5 13 4 4 12 4 4 12 3 3 11 3 3 11 2 2 10 3 3 11 2 2 10 2 3 8 
3 2 8 3 2 8 2 3 8 2 3 8 2 3 8 1 2 7 2 3 8 1 2 7 2 1 6 2 3 7 2 3 8 2 3 8 2 3 8 3 4 9 2 3 8 4 4 12 4 4 12 4 5 10 4 4 14 6 6 14 6 6 16 6 6 16 6 8 21 7 7 19 7 9 22 8 10 23 7 9 22 10 12 27 9 11 26 10 13 30 10 13 32 11 14 33 13 15 36 13 13 37 14 16 39 12 17 39 16 18 41 16 18 41 17 19 44 18 18 44 18 19 47 18 19 47 18 20 45 18 20 45 18 19 47 18 19 47 19 20 50 18 19 47 19 20 48 19 19 47 18 19 47 18 19 47 18 19 47 17 18 46 16 17 45 16 18 43 17 19 42 15 17 40 13 15 38 14 16 39 15 16 37 14 15 36 13 14 34 11 12 32 11 12 30 9 11 26 9 11 26 7 9 22 8 10 23 6 8 21 7 9 21 5 7 19 6 6 16 6 6 14 4 4 12 4 4 12 4 4 12 4 4 12 3 4 9 2 3 8 2 3 8 2 3 8 2 3 8 2 3 8 2 3 8 4 3 9 3 2 8 3 2 8 2 3 8 3 2 7 2 3 7 1 2 7 2 1 7 2 3 8 3 2 8 2 3 8 2 3 8 2 3 7 2 3 8 2 3 8 
3 2 8 3 2 8 2 1 7 3 2 8 2 1 7 1 2 7 2 3 8 1 2 7 3 2 8 2 1 7 3 2 8 3 4 9 2 3 8 3 3 11 2 3 8 4 5 10 3 4 9 5 4 12 4 4 14 5 5 15 6 6 16 7 5 16 5 7 19 7 7 19 6 8 21 7 11 23 8 10 23 9 11 26 9 11 26 12 13 31 11 14 33 12 13 33 12 14 35 13 15 36 16 16 40 14 16 39 15 17 40 16 16 42 17 19 44 17 19 44 17 18 46 17 18 46 15 19 44 18 19 47 19 20 48 19 20 48 19 20 48 18 19 49 19 20 48 18 19 47 18 19 47 17 18 46 18 19 47 16 18 43 16 18 43 17 19 44 14 19 41 16 18 43 14 16 39 15 15 39 13 14 35 13 13 37 13 14 34 12 13 33 10 11 31 10 11 29 9 10 28 8 10 23 8 10 23 8 10 22 6 8 20 5 8 17 6 6 16 6 6 16 5 5 15 4 4 14 4 5 10 4 4 12 3 4 9 2 3 8 2 3 8 2 3 8 2 3 8 2 3 8 3 4 9 2 3 7 2 3 8 3 2 8 2 3 8 2 3 8 1 2 7 1 2 7 3 4 9 3 2 8 3 4 9 2 2 10 2 3 8 2 3 7 2 3 8 2 3 8 
5 5 15 5 5 15 6 6 16 5 7 19 5 7 20 6 8 21 7 9 22 7 9 22 10 12 27 9 11 26 11 12 30 13 14 32 12 13 33 11 13 34 13 15 36 13 15 38 14 16 37 16 16 40 16 18 43 17 19 44 17 19 44 16 18 43 16 20 45 18 19 47 18 19 47 19 20 48 18 19 47 18 19 47 18 19 49 18 19 47 18 19 47 19 20 48 18 19 47 18 19 47 17 18 46 17 19 44 17 17 43 20 17 44 18 18 42 15 15 39 15 15 39 13 15 36 13 14 35 13 14 34 12 13 33 10 13 32 9 11 26 10 12 27 7 9 24 7 9 22 7 9 21 6 8 20 6 8 20 6 6 16 4 7 16 5 5 15 5 5 13 4 5 10 3 4 9 3 3 11 3 4 9 2 3 8 2 3 8 2 3 8 2 3 8 2 3 7 2 3 7 2 3 8 3 2 8 4 3 8 2 1 7 3 2 8 1 2 7 1 2 6 2 2 10 2 3 8 2 3 8 2 3 7 3 4 8 2 3 8 2 3 8 2 3 8 2 3 8 3 4 9 3 4 9 2 3 8 1 2 7 3 4 9 2 3 8 3 2 8 1 2 7 2 3 8 3 4 9 3 4 9 2 3 8 2 3 8 2 3 8 3 2 8 3 2 8 3 4 9 
5 5 13 6 6 16 6 6 16 8 8 20 6 8 21 6 8 21 9 11 24 8 10 23 8 9 27 9 10 28 11 12 32 10 13 32 11 14 33 13 15 36 13 15 36 15 17 38 14 16 37 17 17 41 16 17 45 17 19 44 17 17 43 16 18 43 17 18 46 18 19 47 17 18 46 19 20 48 19 20 48 18 19 49 17 18 48 18 19 47 18 20 45 18 19 47 19 20 48 17 18 46 17 19 44 16 18 43 16 18 43 15 17 42 15 17 42 15 15 39 15 17 40 13 15 36 13 14 35 13 14 35 12 13 33 12 13 31 10 12 27 10 11 29 7 9 24 8 10 23 6 8 20 7 7 19 6 8 20 6 6 14 6 6 16 5 5 15 4 5 10 5 5 13 3 4 8 3 3 11 3 4 9 2 3 8 3 4 9 2 3 8 3 4 9 0 1 6 2 3 8 2 3 8 2 3 8 2 3 7 1 2 6 2 3 8 3 2 7 3 2 8 3 2 8 2 1 7 2 3 8 1 2 7 2 3 8 2 3 8 2 3 8 2 3 8 3 4 9 2 3 8 2 3 8 3 4 9 1 2 7 2 3 8 3 4 9 2 3 8 3 2 8 2 3 8 2 3 7 3 4 9 2 3 7 2 3 7 2 3 8 4 3 9 3 2 8 3 4 9 
11 14 33 12 13 33 12 13 34 14 15 36 13 14 35 14 16 37 14 16 37 14 16 37 15 15 39 15 17 40 14 16 39 14 16 39 17 19 42 16 18 43 16 18 43 16 18 41 17 19 44 16 18 43 16 18 43 15 17 40 15 17 40 14 16 39 15 17 42 14 16 39 14 16 39 14 16 39 15 16 37 13 14 35 13 14 35 12 13 33 13 14 34 10 11 29 10 13 30 10 11 29 9 11 26 11 10 26 8 10 25 7 9 22 7 9 22 8 7 21 8 8 20 7 7 19 8 8 18 7 7 17 7 7 19 6 5 19 5 5 17 5 5 15 5 5 15 5 5 15 4 4 12 4 4 12 4 4 12 3 3 11 3 4 9 3 4 9 3 4 9 2 3 8 2 3 8 1 2 7 2 3 8 3 4 9 2 3 8 3 4 9 2 3 8 2 3 8 2 3 8 2 3 8 2 3 8 2 3 8 2 3 8 2 3 8 2 3 8 2 3 8 1 2 7 2 3 8 2 3 8 2 3 8 2 3 8 2 3 8 2 3 8 2 3 8 2 3 8 2 3 8 1 2 7 3 4 9 2 3 8 2 3 8 2 3 8 1 2 7 2 3 8 2 3 8 2 3 8 2 3 8 1 2 7 2 3 8 2 3 8 2 3 8 2 3 8 2 3 8 
16 17 45 17 19 44 17 19 44 17 18 46 17 18 46 18 19 47 18 19 47 18 19 47 20 21 49 18 19 47 18 18 46 18 19 47 18 19 47 19 20 48 17 19 44 17 18 46 17 19 44 15 17 42 16 18 43 14 16 39 15 17 40 14 16 37 12 14 35 13 14 34 12 13 33 12 13 33 11 12 33 10 11 29 9 11 26 7 9 24 10 9 23 8 7 21 8 8 20 8 8 20 4 7 16 5 5 15 4 4 14 6 6 14 3 3 11 3 3 11 4 3 9 4 3 9 4 3 8 3 2 7 3 2 7 4 3 9 3 2 8 3 2 8 3 4 9 2 3 8 1 2 7 2 3 8 1 2 7 2 3 8 2 3 8 2 3 8 2 3 8 2 3 8 2 3 8 2 3 8 2 3 8 3 4 9 2 3 8 2 3 8 2 3 8 2 3 8 2 3 8 2 3 8 3 4 9 2 3 8 2 3 8 2 3 8 3 4 9 2 3 8 2 3 8 2 3 8 2 3 8 3 4 9 2 3 8 2 3 8 1 2 7 2 3 8 1 2 7 2 3 8 2 3 8 1 2 7 3 4 9 2 3 8 3 4 9 2 3 8 2 3 8 3 4 9 2 3 8 2 3 8 2 3 8 2 3 8 2 3 8 2 3 8 2 3 8 2 3 8 
16 18 43 16 18 43 16 18 43 16 18 43 16 18 43 16 18 43 16 18 43 18 18 44 16 18 41 16 18 43 15 17 40 15 17 40 15 17 40 15 17 40 15 15 41 15 16 37 15 16 37 12 15 34 13 14 35 13 14 34 12 13 33 12 13 33 10 11 29 10 11 29 11 10 28 9 11 26 9 11 26 7 9 22 6 10 21 6 8 20 9 9 21 7 7 19 6 6 16 6 6 16 5 5 13 5 5 13 4 4 12 4 5 10 4 5 10 3 4 9 3 4 9 2 3 8 3 4 9 2 3 8 3 4 9 2 3 8 2 3 8 2 3 8 2 3 8 3 2 8 2 3 8 4 3 9 3 2 8 2 3 8 3 2 8 2 3 8 2 3 8 2 3 8 2 3 8 2 3 8 2 3 8 2 3 8 2 3 8 2 3 8 2 3 8 2 3 8 2 3 8 2 3 8 2 3 8 2 3 8 2 3 8 2 3 8 2 3 8 2 3 8 2 3 8 2 3 8 2 3 8 2 3 8 2 3 8 2 3 8 2 3 8 2 3 8 2 3 8 2 3 8 2 3 8 2 3 8 2 3 8 2 3 8 2 3 8 2 3 8 2 3 8 2 3 8 3 4 9 2 3 8 2 3 8 2 3 8 2 3 8 2 3 8 2 3 8 2 3 8 
15 17 40 14 16 39 14 16 39 13 15 38 12 14 35 12 13 33 11 12 32 11 12 32 10 12 27 9 10 28 9 11 24 7 9 22 7 9 21 6 9 18 5 7 19 4 7 16 4 7 16 6 5 13 5 4 12 4 4 12 5 4 12 4 5 10 3 4 9 1 2 7 2 3 8 2 3 8 3 4 8 1 2 7 1 2 7 1 2 6 2 1 7 2 1 7 2 3 8 1 2 7 3 4 9 1 2 7 3 2 10 2 1 7 3 2 8 2 3 8 2 3 8 2 3 8 2 3 8 2 3 8 2 3 8 2 3 8 2 3 8 2 3 8 3 4 8 2 3 7 2 3 8 2 3 8 2 3 8 2 3 8 2 3 8 2 3 8 2 3 8 1 2 7 2 3 8 2 3 8 2 3 8 2 3 8 2 3 8 2 3 8 2 3 8 3 4 9 2 3 8 2 3 8 2 3 8 2 3 8 2 3 8 3 4 9 2 3 8 2 3 8 2 3 8 2 3 8 2 3 8 2 3 8 2 3 8 2 3 8 3 4 9 3 4 9 2 3 8 3 4 9 2 3 8 2 3 8 2 3 8 2 3 8 2 3 8 2 3 8 2 3 8 2 3 8 2 3 8 2 3 8 2 3 8 2 3 8 2 3 8 2 3 8 2 3 8 2 3 8 
15 17 40 14 16 39 14 16 39 13 13 37 13 14 35 12 13 33 12 13 33 11 12 32 9 11 26 9 11 26 8 10 25 7 9 24 6 8 21 5 7 19 5 7 19 4 7 16 6 6 14 5 5 13 4 4 12 0 3 10 4 4 12 4 5 10 2 3 8 2 3 7 3 2 8 3 2 8 3 2 8 3 2 8 3 2 8 2 1 7 4 1 8 3 2 7 3 2 7 2 3 7 2 3 7 1 2 6 3 2 7 2 1 6 3 2 7 2 3 8 3 4 9 3 4 9 2 3 8 2 3 8 1 2 7 2 3 8 2 3 8 2 3 8 2 3 7 2 3 7 2 3 7 2 3 7 2 3 8 2 3 8 2 3 8 3 4 9 2 3 8 2 3 8 3 4 9 3 4 9 2 3 8 3 4 9 2 3 8 2 3 8 2 3 8 2 3 8 2 3 8 2 3 8 3 4 9 2 3 8 2 3 8 2 3 8 2 3 8 2 3 8 2 3 8 2 3 8 2 3 8 2 3 8 2 3 8 2 3 8 2 3 8 2 3 8 2 3 8 2 3 8 2 3 8 2 3 8 2 3 8 2 3 8 2 3 8 2 3 8 2 3 8 2 3 8 2 3 8 2 3 8 2 3 8 2 3 8 2 3 8 2 3 8 2 3 8 2 3 8 
6 6 16 5 5 15 5 5 13 4 4 12 4 4 12 5 4 12 4 3 11 3 3 11 4 3 9 3 2 8 2 3 8 3 4 9 2 3 8 2 3 8 3 4 9 2 3 8 4 3 9 0 3 8 2 3 8 3 4 9 2 3 8 3 2 8 3 2 8 2 1 7 2 3 7 2 3 7 2 3 8 2 3 8 2 3 8 2 3 8 3 2 8 2 3 8 2 3 8 2 3 8 3 2 8 2 2 10 2 3 8 2 2 10 2 3 7 1 2 7 2 3 8 2 3 8 2 3 8 2 3 8 2 3 8 2 3 8 2 3 8 3 4 9 2 3 8 1 2 7 2 3 8 2 3 8 2 3 8 2 3 8 3 4 9 2 3 8 2 3 8 2 3 8 2 3 8 2 3 8 2 3 8 2 3 8 2 3 8 2 3 8 2 3 8 2 3 8 2 3 8 2 3 8 2 3 8 2 3 8 2 3 8 2 3 8 2 3 8 2 3 8 2 3 8 2 3 8 2 3 8 2 3 8 2 3 8 2 3 8 2 3 8 2 3 8 2 3 8 2 3 8 2 3 8 2 3 8 2 3 8 2 3 8 2 3 8 2 3 8 2 3 8 2 3 8 2 3 8 1 2 7 2 3 8 1 2 7 2 3 8 2 3 8 2 3 8 2 3 8 
4 4 14 3 3 11 3 4 9 3 4 9 2 3 8 3 4 9 2 3 7 3 4 9 2 1 6 3 2 8 2 1 7 3 2 7 2 3 7 1 0 5 2 3 8 2 3 7 2 3 8 2 1 7 1 2 6 3 2 8 3 2 8 2 3 7 3 2 8 3 2 8 3 2 8 3 4 9 2 3 8 2 3 8 2 3 8 3 2 8 2 3 8 2 3 8 2 3 8 2 3 8 3 2 8 0 1 6 2 3 8 3 4 9 3 4 8 2 3 8 2 3 7 3 4 9 3 4 9 3 4 9 2 3 8 3 4 9 2 3 8 2 3 7 2 3 8 2 3 8 3 4 9 1 2 7 2 3 8 1 2 7 3 4 9 2 3 8 3 4 9 2 3 8 2 3 8 2 3 8 3 4 9 2 3 8 2 3 8 2 3 8 2 3 8 3 4 9 2 3 8 2 3 8 2 3 8 2 3 8 2 3 8 3 4 9 2 3 8 2 3 8 3 4 9 2 3 8 2 3 8 2 3 8 2 3 8 3 4 9 2 3 8 2 3 8 2 3 8 2 3 8 2 3 8 2 3 8 2 3 8 2 3 8 2 3 8 3 4 9 2 3 8 2 3 8 2 3 8 2 3 8 2 3 8 2 3 8 2 3 8 4 1 8 2 3 8 3 2 8 
4 3 9 2 3 8 3 4 9 0 3 8 1 2 7 2 3 8 2 3 8 2 3 8 3 2 8 3 2 8 2 3 8 3 2 7 2 3 8 1 2 6 2 3 7 3 2 7 2 3 8 1 2 7 3 4 8 1 2 7 2 3 8 2 2 4 1 2 7 2 3 8 1 2 7 2 3 8 1 2 7 2 3 8 3 4 9 2 3 8 2 3 8 2 3 8 0 3 8 2 3 8 3 2 10 2 3 8 2 2 10 2 3 8 2 3 8 2 3 8 2 3 8 2 3 8 2 3 8 2 3 8 2 3 8 1 2 7 2 3 8 2 3 8 3 2 8 3 4 9 3 2 8 2 3 8 2 3 8 3 2 8 2 3 8 3 2 8 2 3 8 2 3 8 2 3 8 1 2 7 2 3 8 3 4 9 2 3 8 2 3 8 2 3 8 2 3 8 2 3 8 2 3 8 2 3 8 2 3 8 2 3 8 2 3 8 2 3 8 2 3 8 2 3 8 2 3 8 2 3 8 1 2 7 2 3 8 2 3 8 1 2 7 2 3 8 1 2 7 2 3 8 2 3 8 2 3 8 2 3 8 2 3 8 2 3 8 2 3 8 2 3 8 2 3 8 2 3 8 2 3 8 3 4 9 2 3 8 2 3 8 2 3 8 2 3 8 2 3 8 
