P3
100 50
255
92 78 39 93 80 36 92 79 35 92 78 39 92 78 39 93 79 40 92 78 39 92 78 39 92 78 39 92 78 39 92 78 39 92 78 39 92 78 39 91 77 38 92 78 39 93 79 40 92 78 39 91 77 38 91 77 38 91 77 38 91 77 38 91 77 40 92 78 39 91 77 40 92 78 39 91 77 38 91 77 40 91 77 40 91 77 38 92 78 39 90 76 39 91 77 38 90 76 37 91 77 38 91 77 38 91 77 38 89 75 36 91 77 38 91 77 38 92 78 39 91 77 40 92 78 39 91 77 38 91 77 38 90 76 39 90 76 39 90 76 39 91 77 40 90 76 39 91 77 40 91 77 40 90 76 39 90 76 39 91 77 40 91 77 40 91 77 40 90 76 39 90 76 39 91 77 40 91 77 40 91 77 40 91 77 40 91 77 38 91 77 38 90 76 37 90 76 37 90 76 39 90 76 39 90 76 39 90 76 39 90 76 39 90 76 39 91 77 40 91 77 40 90 76 39 90 76 39 90 76 37 90 76 39 82 69 34 36 29 11 37 30 11 10 9 5 1 2 4 1 1 3 0 1 3 2 2 4 1 1 3 1 1 3 0 1 3 1 1 3 2 2 4 1 1 3 1 1 3 1 1 3 1 1 3 1 1 3 2 2 4 1 1 3 1 1 3 1 1 3 
92 78 39 92 78 39 91 77 38 92 78 39 91 77 38 91 77 38 92 78 39 92 78 39 92 78 39 92 78 39 91 77 38 92 78 39 93 79 40 92 78 39 92 78 39 91 77 38 92 78 39 91 77 38 92 78 39 91 77 38 90 76 37 90 76 37 92 78 39 93 79 40 92 78 39 91 77 38 91 77 40 91 77 38 92 78 39 90 76 37 91 77 40 91 77 40 92 78 39 92 78 39 91 77 38 91 77 40 90 76 37 91 77 38 91 77 38 89 75 36 90 76 39 92 78 39 91 77 38 91 77 42 89 75 38 90 76 39 91 77 40 91 77 38 90 76 37 91 77 38 90 76 37 91 77 38 90 76 39 90 76 39 90 76 39 89 75 38 91 77 40 90 76 39 91 77 40 90 76 39 90 76 39 91 77 40 91 77 38 90 76 37 91 77 38 91 77 38 90 76 39 89 75 38 90 76 39 90 76 39 90 76 39 90 76 39 90 76 39 91 77 40 91 77 40 90 76 39 89 75 36 89 75 38 80 67 33 25 21 9 25 21 9 8 7 5 1 1 3 1 1 3 1 1 3 2 2 4 0 1 3 2 2 4 2 2 4 1 1 3 2 2 4 0 1 3 2 2 4 1 1 3 2 2 4 2 2 4 2 2 4 1 1 3 3 3 5 1 1 3 
93 79 42 92 78 39 92 78 39 91 79 39 92 78 39 91 77 38 91 77 38 92 78 39 91 77 38 91 77 38 91 77 38 92 78 39 92 78 39 92 78 39 92 78 39 91 77 38 92 78 39 93 79 40 92 78 39 90 76 37 91 77 40 91 77 40 92 78 39 91 77 40 92 78 39 90 76 37 91 77 40 91 77 40 91 77 38 91 77 38 91 77 38 91 77 38 91 77 38 92 78 39 90 76 37 92 78 39 91 77 38 89 75 38 91 77 38 91 77 38 91 77 40 92 78 39 90 76 37 91 77 40 90 76 39 90 76 39 90 76 39 91 77 40 91 77 38 89 75 36 91 77 38 90 76 37 90 76 39 90 76 39 91 77 40 91 77 40 90 76 39 91 77 40 91 77 40 91 77 40 90 76 39 91 77 40 91 77 40 89 75 36 91 77 38 89 75 38 89 75 38 89 75 38 90 76 39 90 76 39 91 77 40 89 75 38 90 76 39 92 78 41 90 76 39 91 77 40 88 74 37 87 75 37 79 66 32 22 20 8 23 19 8 7 5 6 1 3 2 1 1 3 1 1 3 1 2 4 0 1 3 2 2 4 1 1 3 1 1 3 1 2 4 2 2 4 1 1 3 0 0 2 2 2 4 1 1 3 1 1 3 1 1 3 2 2 4 1 1 3 
94 79 40 93 79 42 91 79 39 93 78 39 92 78 39 90 76 37 92 78 39 91 77 38 92 78 39 90 76 37 92 78 39 90 76 37 92 78 39 91 77 38 91 77 38 92 78 39 91 77 38 90 76 37 92 78 39 91 77 38 92 78 39 91 77 40 91 77 38 91 77 38 91 77 38 93 79 40 91 77 40 91 77 38 90 76 39 92 78 39 92 78 39 90 76 37 90 76 37 91 77 40 92 78 39 92 78 39 90 76 37 90 76 39 92 78 39 92 78 39 92 78 39 90 76 39 90 76 37 91 77 38 91 77 40 91 77 40 91 77 40 90 76 39 90 76 39 89 75 38 90 76 39 90 76 39 91 77 40 90 76 39 91 77 40 90 76 39 89 75 38 90 76 39 91 77 40 91 77 40 91 77 40 90 76 39 90 76 39 91 77 40 90 76 39 91 77 40 90 76 39 92 78 41 89 75 38 91 77 40 91 77 40 90 76 39 90 76 39 90 76 39 89 75 38 90 76 39 82 69 35 72 61 31 63 56 28 3 3 5 3 3 3 2 2 2 0 1 3 1 2 4 1 2 4 1 1 3 1 1 3 3 3 5 1 2 4 2 2 4 1 1 3 1 1 3 1 1 3 2 2 4 1 1 3 1 1 3 2 2 4 1 1 3 0 0 2 2 2 4 
93 79 40 90 76 39 92 78 41 93 78 39 91 77 38 92 78 39 92 78 39 91 77 40 90 76 39 92 78 41 91 77 38 92 78 39 91 77 38 91 77 38 93 79 42 91 77 40 92 78 39 91 77 38 92 78 39 92 78 39 92 78 41 91 77 38 92 78 39 92 78 41 91 77 40 91 77 40 91 77 40 90 76 37 89 75 38 91 77 40 91 77 40 91 77 40 90 76 37 90 76 37 91 77 38 92 78 39 90 76 37 90 76 39 91 77 40 92 78 39 92 78 41 91 77 40 90 76 39 90 76 39 90 76 39 90 76 39 90 76 39 90 76 39 90 76 39 91 77 40 90 76 39 90 76 39 92 78 39 92 78 39 90 76 37 90 76 37 90 76 37 90 76 37 90 76 37 90 76 37 92 76 40 90 76 39 92 76 40 90 76 39 90 76 39 90 76 39 90 76 39 91 77 40 90 76 39 90 76 39 89 77 37 90 76 39 90 76 39 91 77 40 90 76 39 90 76 37 79 69 34 72 63 30 61 54 25 3 3 5 3 3 5 1 3 2 1 3 2 1 1 3 2 2 4 1 1 3 1 1 3 2 2 4 1 1 3 2 2 4 2 2 4 2 2 4 2 2 4 1 1 3 2 2 4 1 1 3 1 1 3 1 1 3 1 1 3 1 1 3 
93 79 40 92 78 39 91 77 40 92 78 39 92 78 39 91 77 40 90 76 37 92 78 41 90 76 39 92 78 39 91 77 38 91 77 38 93 78 39 92 77 38 92 78 39 90 76 39 90 76 37 92 78 39 92 78 39 92 78 39 91 77 40 90 76 37 91 77 38 92 78 39 91 77 40 89 77 39 91 77 40 91 75 39 91 77 40 90 76 39 91 77 40 91 77 40 92 78 39 92 78 39 91 77 38 90 76 37 90 76 39 90 76 39 90 76 39 91 77 40 90 76 39 90 76 39 90 76 39 90 76 39 91 77 40 90 76 39 91 77 40 90 76 39 90 76 39 90 76 39 89 75 38 90 76 39 89 75 36 90 76 37 90 76 37 90 76 37 90 76 37 90 76 37 90 76 37 90 76 37 89 75 38 90 76 39 90 76 39 90 76 39 90 76 39 90 76 39 90 76 39 91 77 40 91 77 40 91 77 38 90 76 39 90 76 37 89 75 36 88 76 38 90 76 39 90 76 39 73 64 31 57 49 26 51 45 23 2 2 4 1 1 3 1 2 4 1 2 4 1 1 3 1 1 3 1 1 3 1 1 3 1 1 3 1 1 3 1 1 3 2 2 4 1 1 3 1 1 3 1 1 3 1 1 3 2 2 4 1 1 3 0 0 2 1 1 3 1 1 3 
92 78 39 92 78 39 91 77 38 90 76 39 91 77 38 92 78 39 91 77 40 92 78 39 91 77 38 91 77 40 92 78 39 91 77 40 92 78 39 90 76 41 91 77 40 90 76 39 91 77 40 91 77 40 91 77 40 91 77 40 90 76 39 91 77 40 91 77 38 91 77 38 90 76 39 88 76 38 90 78 40 92 78 41 91 77 40 90 76 39 90 76 39 91 77 40 91 77 38 92 78 39 90 76 37 91 77 38 91 77 40 90 77 35 90 76 37 90 76 39 90 76 39 91 77 38 90 76 39 91 77 40 90 76 39 90 76 39 90 76 39 90 76 39 90 76 39 90 76 39 90 76 39 90 76 39 90 76 39 90 76 39 90 76 39 90 76 39 90 76 39 90 76 39 90 76 39 90 76 39 91 77 40 90 76 39 91 77 40 92 76 40 89 77 39 90 78 40 91 77 40 90 76 39 91 77 40 91 77 40 90 76 37 90 76 37 87 75 37 88 74 37 90 76 39 90 76 39 72 61 31 54 46 23 47 40 21 3 3 5 1 1 3 1 1 1 1 1 3 0 2 1 1 2 4 0 1 3 1 2 4 1 2 4 1 2 4 1 2 4 1 2 4 1 2 4 2 2 4 2 2 4 1 1 3 2 2 4 1 1 3 1 1 3 2 2 4 1 1 3 
92 78 39 92 79 37 92 79 37 91 77 40 91 77 40 91 77 38 91 77 38 91 77 38 91 77 40 91 77 38 91 77 40 91 77 40 91 77 38 92 78 39 92 76 40 91 77 40 91 77 40 92 76 40 92 78 39 93 77 41 91 77 40 91 77 40 91 77 38 91 77 38 91 77 38 90 78 40 90 76 39 91 77 40 92 78 41 90 76 39 91 77 40 90 76 39 91 77 38 91 77 38 91 77 38 90 76 37 90 76 39 90 76 37 91 77 40 91 77 40 91 77 40 90 76 37 90 76 39 91 77 40 90 76 39 90 76 39 90 76 39 90 76 39 90 76 39 90 76 39 90 76 39 90 76 39 90 76 39 90 76 39 90 76 39 90 76 39 90 76 39 90 76 39 91 77 40 91 77 40 90 76 39 89 77 39 91 77 40 90 76 39 90 76 39 89 77 39 90 76 39 89 77 39 91 77 40 89 77 39 90 76 39 89 77 39 88 76 38 89 77 39 89 75 38 89 77 39 66 56 29 43 38 18 36 33 16 0 1 3 1 3 2 1 3 2 1 1 3 2 2 2 1 1 3 1 1 3 1 1 3 2 2 4 2 2 4 1 1 3 2 2 4 1 1 3 1 1 3 2 2 4 2 2 4 2 2 4 2 2 4 2 2 4 1 1 3 2 2 4 
92 78 39 92 81 35 93 80 35 92 78 39 91 77 40 91 77 38 91 77 40 92 78 39 90 76 39 91 77 38 92 78 39 91 77 38 92 79 37 92 78 39 91 77 40 90 76 37 92 78 39 93 78 39 94 79 40 93 78 39 92 78 41 91 77 40 91 77 38 91 77 38 91 77 38 91 77 40 91 77 40 91 77 40 91 77 40 92 78 41 91 77 40 91 77 40 90 76 37 91 77 38 91 77 38 92 78 39 91 77 40 90 76 39 91 77 40 91 77 38 92 78 41 91 77 40 90 76 39 90 76 39 89 75 38 90 76 39 90 76 39 90 76 39 90 76 39 89 75 38 90 76 39 90 76 39 90 76 39 90 76 39 90 76 39 90 76 39 90 76 39 90 76 39 90 76 39 90 76 39 90 76 39 90 76 39 90 78 40 90 78 40 90 76 39 88 74 37 88 76 38 89 75 38 90 76 39 91 77 38 89 75 36 90 76 37 91 77 38 89 75 38 89 75 38 89 75 38 55 48 22 25 21 9 23 19 7 0 1 3 2 2 4 3 1 4 2 2 4 1 2 4 0 1 3 1 2 4 1 2 4 0 1 3 1 2 4 1 2 4 0 1 3 1 2 4 2 2 4 1 1 3 2 2 4 2 2 4 2 2 4 2 2 4 2 2 4 1 1 3 
93 79 40 93 83 34 94 82 34 92 78 39 91 77 38 91 77 40 91 77 38 92 78 41 92 78 39 91 77 38 91 77 40 92 78 39 92 78 39 92 78 41 92 78 41 91 77 40 91 77 40 93 79 40 92 78 39 92 78 39 91 77 40 91 77 40 91 77 40 91 77 38 93 78 39 91 77 40 91 77 40 90 76 37 91 77 40 91 77 40 92 78 41 90 76 39 90 76 37 90 76 37 91 77 38 91 77 38 90 76 37 90 76 39 92 78 41 92 78 39 92 78 41 90 76 39 90 76 39 90 76 39 90 76 39 91 77 40 90 76 39 90 76 39 90 76 39 89 75 38 90 76 39 89 75 38 90 76 39 90 76 39 90 76 39 90 76 39 91 77 40 90 76 39 90 76 39 89 75 38 90 76 39 90 76 39 90 76 39 89 77 39 89 75 38 88 74 37 88 76 38 90 76 39 90 76 37 90 76 39 90 76 39 91 77 40 90 76 39 90 76 37 87 75 37 88 76 38 57 50 24 25 21 9 21 19 6 1 2 4 1 2 4 0 1 3 1 1 3 1 1 3 1 1 3 1 1 3 1 1 3 2 2 4 1 1 3 2 2 4 1 1 3 2 2 4 2 2 4 2 2 4 2 2 4 1 1 3 2 2 4 1 1 3 1 1 3 2 2 4 
91 77 40 91 77 42 91 77 38 93 79 40 94 80 41 93 78 39 93 79 40 92 78 41 91 77 38 91 77 40 89 75 38 87 73 36 84 71 36 79 69 34 82 69 35 79 69 34 79 69 34 81 68 33 79 69 33 81 68 33 81 68 33 79 69 34 78 68 33 78 68 32 79 69 33 78 68 32 83 70 35 88 74 37 89 75 38 90 76 39 90 76 39 91 77 40 90 76 37 91 77 38 91 77 38 91 77 38 91 77 40 91 77 40 90 76 39 90 76 39 90 76 39 90 76 39 90 76 39 90 76 39 90 76 39 90 76 39 90 76 39 90 76 39 90 76 39 90 76 39 90 76 39 89 75 38 90 76 39 90 76 39 90 76 39 90 76 39 90 76 39 90 76 39 90 76 39 90 76 39 89 75 38 90 76 39 90 76 39 90 76 39 90 76 39 90 76 39 89 77 39 90 78 40 89 77 39 89 77 39 87 75 37 88 75 40 90 76 37 89 75 38 74 63 33 70 61 30 42 37 18 11 10 5 12 8 5 2 1 6 2 2 4 1 1 3 1 2 6 1 2 4 1 1 3 2 2 4 2 2 4 0 0 2 2 2 4 2 2 4 1 1 3 2 2 4 1 1 3 1 1 3 0 0 2 1 1 3 2 2 4 1 1 3 0 0 2 1 1 3 
91 77 38 91 77 40 91 77 38 92 78 39 94 79 40 94 79 40 94 79 40 93 79 40 91 77 38 91 77 40 91 77 40 86 74 36 82 72 36 79 69 33 80 70 34 79 70 31 79 69 33 78 68 32 81 71 35 80 69 37 80 71 32 79 69 34 78 68 33 79 69 33 79 69 33 79 69 34 82 69 34 88 74 37 89 75 38 90 76 39 90 76 39 91 77 40 91 77 38 90 76 37 92 78 39 92 78 39 90 76 39 92 78 39 90 76 37 91 77 40 90 76 39 90 76 37 90 76 39 89 75 38 90 76 39 90 76 39 90 76 39 90 76 39 90 76 39 90 76 39 90 76 39 90 76 39 90 76 39 90 76 39 90 76 39 90 76 39 90 76 39 89 75 38 89 75 38 89 75 38 89 75 38 91 77 40 90 76 39 89 75 38 90 76 39 88 76 38 90 76 39 90 76 39 89 75 36 89 75 38 89 75 38 87 74 39 90 76 37 90 76 37 72 63 30 70 61 30 42 35 17 13 10 5 11 7 6 1 1 3 1 1 3 1 2 4 0 3 2 2 2 4 1 1 3 2 2 4 1 1 3 1 1 3 2 2 4 1 1 3 2 2 4 2 2 4 2 2 4 2 2 4 1 1 3 1 1 3 1 1 3 1 1 3 1 1 3 1 1 3 
91 78 36 90 76 39 89 75 40 80 67 32 78 68 33 73 62 30 69 57 31 68 57 27 60 50 23 58 51 22 50 42 19 49 41 18 45 39 17 42 34 15 41 34 16 39 32 16 40 31 14 40 31 16 41 32 15 38 31 15 39 32 14 38 32 16 39 32 14 37 32 13 38 32 16 38 33 14 40 35 15 49 43 21 49 41 18 53 46 20 51 45 19 57 50 21 63 54 23 67 53 24 73 63 28 72 63 30 83 70 35 84 72 34 86 73 38 88 74 37 87 75 37 90 76 37 92 76 40 91 75 39 91 77 38 90 78 40 89 77 39 90 76 39 89 77 37 89 75 38 89 75 36 89 75 38 90 76 39 90 76 39 89 75 38 90 76 39 90 76 39 90 76 39 90 76 39 90 76 37 90 76 39 90 76 39 90 76 39 90 76 39 90 76 39 90 76 39 90 76 39 90 76 39 89 77 39 90 76 37 90 76 39 90 76 41 91 77 40 91 77 40 63 53 26 61 51 26 35 29 15 4 4 4 5 5 5 1 1 3 2 2 4 0 1 3 1 1 3 2 2 4 1 2 4 2 2 4 1 1 3 2 2 4 2 2 4 0 1 3 2 2 4 1 1 3 2 2 2 1 1 3 2 2 4 1 1 3 1 2 4 2 2 2 3 3 5 3 3 5 
92 78 39 87 75 37 90 74 40 73 62 32 70 61 30 63 53 26 54 46 23 51 45 23 40 34 12 40 34 12 29 23 9 24 20 8 22 18 7 19 15 6 18 15 10 13 10 5 11 10 5 11 10 5 11 10 5 10 9 4 11 10 5 10 11 5 11 10 5 11 10 5 11 11 3 11 10 5 16 13 4 25 22 7 24 20 8 32 26 10 33 27 11 40 34 12 46 39 13 47 41 15 62 53 24 62 53 24 74 64 29 79 69 34 84 72 34 88 74 37 86 74 36 91 77 38 93 78 39 91 77 40 94 76 40 91 77 38 90 76 39 90 76 39 89 75 38 90 76 37 89 75 38 89 77 37 90 76 37 89 75 38 90 76 39 90 76 39 90 76 39 90 76 39 87 78 39 90 76 37 90 76 39 89 75 38 91 77 40 90 76 39 89 75 38 90 76 39 90 76 39 90 76 39 89 75 38 89 75 38 90 77 35 91 77 40 91 77 38 92 78 39 58 51 25 52 46 24 28 24 13 1 1 3 1 1 1 1 1 3 1 1 3 1 1 3 1 1 3 1 1 3 2 2 4 1 1 3 1 1 3 1 1 3 1 1 3 2 2 4 1 1 3 1 1 3 0 0 2 2 2 4 2 2 4 0 0 2 0 1 3 1 1 3 3 3 5 3 3 5 
81 68 34 71 62 31 71 60 30 56 49 23 53 47 23 46 41 21 41 36 17 38 32 16 31 25 9 29 26 11 22 18 7 20 16 7 17 14 5 13 13 5 12 11 7 9 8 4 8 7 3 9 8 4 9 8 3 8 9 3 7 6 2 9 8 4 9 8 4 8 9 4 9 8 4 9 8 4 11 10 5 19 16 7 19 16 7 27 18 9 25 21 9 31 25 9 36 31 12 35 33 12 47 41 19 47 41 19 58 51 23 64 54 27 67 58 27 73 62 32 74 63 31 83 70 38 82 69 34 86 70 36 86 72 35 87 75 35 88 76 38 90 76 39 89 77 39 90 76 37 90 76 39 90 76 39 90 76 39 90 74 38 90 76 39 88 76 38 89 77 39 90 76 39 90 76 39 90 76 39 91 77 40 90 76 39 89 75 38 90 76 39 90 76 39 90 76 39 91 77 40 89 75 38 90 76 37 88 76 38 90 76 39 90 76 39 90 76 37 92 77 38 54 46 23 48 42 20 25 21 12 1 1 3 1 1 3 1 2 4 1 1 3 0 2 1 2 2 4 1 1 3 1 1 3 2 2 4 2 2 4 2 2 4 1 1 3 2 2 4 2 2 4 2 2 4 1 1 3 1 1 3 1 1 3 1 1 3 0 2 1 1 1 1 9 8 6 9 8 4 
45 40 18 25 21 9 24 20 8 5 5 5 3 3 5 2 2 4 1 1 3 1 1 3 1 1 3 1 1 3 1 1 3 1 1 3 1 1 3 1 1 3 1 1 3 2 0 3 1 1 3 2 2 4 0 1 3 1 2 4 1 1 3 1 1 3 2 2 4 2 2 4 2 2 4 1 1 3 1 1 3 2 0 3 1 2 4 0 0 2 1 2 4 1 1 3 2 2 4 1 2 4 3 3 5 3 3 5 9 8 4 13 10 5 20 18 6 32 27 8 32 27 8 52 46 22 54 46 25 65 56 27 70 61 28 74 65 32 88 74 37 87 73 38 91 77 40 91 77 40 90 76 37 89 75 36 89 77 39 88 76 36 90 76 37 89 75 38 91 77 40 89 75 36 90 76 39 89 75 38 90 76 39 90 76 39 90 76 39 90 76 39 89 75 38 89 75 38 90 76 39 89 75 38 89 75 38 88 76 38 90 76 39 88 74 37 89 75 38 89 75 38 39 32 13 33 28 8 17 14 7 1 1 3 1 1 3 1 1 3 1 1 3 2 2 4 1 1 3 1 1 3 2 2 4 1 1 3 0 1 3 2 2 4 1 1 3 1 1 3 1 1 3 1 2 4 1 2 4 2 2 4 1 1 3 1 1 3 1 1 3 5 3 4 27 21 9 27 21 9 
45 38 19 25 21 9 24 20 8 6 6 8 3 3 5 2 2 4 2 2 4 2 2 2 1 0 5 1 1 3 1 1 3 0 1 3 2 0 5 2 2 4 1 1 3 0 2 1 1 3 2 1 3 2 0 1 3 1 2 6 1 3 2 1 1 3 0 1 3 0 1 3 2 2 2 0 1 3 1 1 3 1 1 3 2 2 4 1 1 3 1 1 3 1 1 3 1 1 3 2 2 4 4 4 6 3 3 5 9 8 4 12 9 2 20 16 7 33 27 11 32 26 10 53 45 24 53 45 24 63 56 27 70 61 30 74 63 31 89 74 35 88 74 37 90 76 37 91 77 40 90 76 39 89 75 38 89 75 38 90 76 37 91 75 39 88 76 38 90 76 39 90 76 39 88 76 38 90 76 39 89 75 38 89 75 38 90 76 39 90 76 39 90 76 39 90 76 39 89 75 38 87 73 36 87 74 39 87 75 37 90 76 39 90 76 37 89 75 40 87 73 36 38 33 13 32 26 10 16 13 6 1 1 1 3 3 3 0 1 3 2 2 4 1 2 4 1 1 3 1 1 3 1 1 3 2 2 4 1 2 4 1 1 3 1 1 3 1 1 3 2 2 4 0 1 3 2 2 4 1 1 3 0 0 2 2 2 4 1 2 4 3 3 3 24 20 8 25 21 9 
2 1 6 1 1 3 1 1 3 2 2 4 2 2 4 1 1 3 0 1 3 1 1 3 1 1 3 1 1 3 1 2 4 1 2 4 1 1 3 2 2 4 0 1 3 1 2 4 1 2 4 1 1 3 1 1 3 2 2 4 1 1 1 1 1 3 1 1 3 2 2 4 0 1 3 2 2 4 1 1 3 1 1 3 0 0 2 0 1 3 1 1 3 1 1 3 0 1 3 3 1 4 2 2 4 1 1 3 2 0 3 1 1 3 0 1 3 1 1 3 1 1 3 0 0 2 1 1 3 8 7 3 11 10 6 17 14 7 33 27 11 33 27 11 50 43 24 53 45 24 66 57 28 79 69 34 79 69 34 87 75 37 88 74 37 90 76 39 90 76 39 90 76 37 89 77 37 90 76 37 88 74 37 89 75 38 89 75 38 90 76 39 90 76 39 90 76 39 90 76 39 89 75 38 90 76 41 89 75 38 90 76 39 86 73 38 79 69 33 78 68 32 18 18 10 14 11 6 7 6 2 2 2 4 1 1 3 2 2 4 1 1 3 2 2 4 2 2 4 1 1 3 2 2 4 1 1 3 2 2 4 2 2 4 2 2 4 1 1 3 1 1 3 2 2 4 2 2 2 1 1 1 1 1 3 1 1 3 2 1 7 8 6 7 46 40 14 46 40 16 
1 1 3 1 3 2 2 2 4 0 0 2 1 1 3 0 1 3 0 2 1 0 1 3 1 1 3 2 2 4 1 1 3 1 2 4 1 1 3 1 1 3 1 1 3 3 3 5 2 2 4 1 1 3 1 1 3 1 1 3 1 2 4 2 2 2 0 1 3 1 1 3 2 2 4 2 2 4 2 0 3 1 1 3 1 1 3 1 1 3 1 1 3 0 0 2 0 0 2 0 1 3 2 2 4 1 1 3 1 1 3 2 2 2 1 1 3 1 2 4 0 3 4 1 1 3 2 2 2 8 7 5 11 10 5 17 14 7 32 26 10 32 27 8 51 45 23 52 46 22 66 57 24 79 69 33 79 69 34 88 76 36 86 74 36 89 75 38 91 77 40 89 77 39 90 76 37 89 75 38 89 75 38 89 75 38 90 76 39 90 76 39 89 75 38 89 75 38 89 75 38 88 74 37 90 76 37 90 76 39 90 76 39 88 74 39 82 69 35 78 68 33 20 17 8 13 10 5 7 5 6 1 1 3 2 2 4 1 2 4 1 1 3 0 1 3 2 2 4 2 2 4 2 2 4 1 1 3 1 1 3 0 0 2 2 2 4 2 2 4 1 1 3 1 1 3 2 2 4 1 1 3 1 1 3 2 1 6 2 1 6 7 7 7 47 39 16 47 39 16 
1 1 3 2 2 4 1 1 3 0 0 2 1 1 3 2 2 0 1 1 3 1 1 3 1 1 3 2 2 4 2 2 4 2 2 4 3 1 4 1 1 3 1 2 4 0 2 1 1 2 4 1 3 2 2 2 4 1 1 1 1 1 3 1 1 3 2 2 4 3 1 4 1 2 4 1 1 3 1 1 3 1 2 4 2 2 4 2 0 3 1 2 4 0 0 2 2 0 3 1 1 3 1 1 3 1 2 4 1 2 4 3 1 4 2 2 4 2 2 4 1 1 3 1 1 3 1 2 4 4 3 1 5 5 3 7 6 4 14 11 6 15 12 7 20 17 12 19 18 13 29 25 14 38 31 15 40 35 16 53 46 20 52 45 19 64 54 27 68 57 27 72 63 32 84 71 36 84 71 36 88 74 37 88 74 37 90 76 39 91 77 40 90 76 39 90 76 39 90 76 39 90 76 39 91 77 40 88 74 39 88 76 38 81 68 33 55 45 18 55 45 20 11 10 8 5 3 4 3 3 3 2 2 4 1 1 3 0 1 3 1 1 3 2 2 4 3 3 5 1 1 3 1 2 4 2 2 4 0 0 2 1 1 3 2 2 4 1 2 4 2 2 4 1 1 3 0 1 3 2 2 4 1 1 3 2 2 4 3 3 5 10 9 7 62 53 24 62 53 24 
1 1 3 1 2 4 2 2 4 1 1 3 1 1 3 2 2 4 1 1 3 2 2 4 1 1 3 1 1 3 1 2 4 1 2 4 1 1 3 2 2 4 1 1 3 2 2 4 1 1 3 1 1 3 0 0 2 2 2 4 1 1 3 2 2 4 1 1 3 2 2 4 1 1 3 2 2 4 2 2 4 2 2 4 1 1 3 1 1 3 2 2 4 2 2 4 1 1 3 1 1 3 1 1 3 1 1 3 1 1 3 1 1 3 1 1 3 2 2 4 1 1 3 1 1 3 2 2 4 2 2 4 2 2 4 0 1 3 1 1 1 1 1 3 1 1 3 1 1 3 8 7 5 14 11 6 15 11 8 32 27 8 34 26 13 48 42 20 52 46 24 64 54 27 80 67 33 78 68 33 88 74 37 88 76 36 88 76 38 91 77 40 90 76 39 89 75 38 88 74 37 89 75 38 89 75 38 88 76 38 87 73 36 74 64 28 40 33 14 38 33 13 5 5 5 1 1 3 1 1 3 2 2 4 1 1 3 1 1 3 2 2 4 1 1 3 2 2 4 2 2 4 2 2 4 2 2 4 1 1 3 1 1 3 2 0 3 1 1 3 1 2 4 1 2 4 3 1 4 1 1 3 1 1 1 2 2 2 3 3 5 11 10 8 70 61 30 71 60 30 
2 2 4 3 3 5 2 3 5 1 1 3 1 1 3 2 2 4 1 1 3 2 2 4 1 1 3 1 1 3 1 2 4 1 2 4 1 1 3 2 2 4 1 1 3 2 2 4 1 1 3 1 1 3 1 1 3 2 2 4 1 2 4 1 1 3 1 1 3 0 1 3 1 2 4 2 2 4 1 1 3 1 2 4 1 1 3 3 3 5 2 2 4 1 1 3 1 1 3 1 1 3 2 2 4 2 2 4 1 1 3 1 1 3 1 1 3 1 1 3 2 2 4 1 1 3 2 2 4 2 2 4 1 1 3 1 1 3 1 1 1 1 1 3 1 1 3 0 1 3 5 5 3 9 8 4 11 10 5 26 19 9 27 20 10 34 31 16 40 34 18 49 41 20 63 53 26 63 54 25 75 64 32 74 63 31 80 67 33 83 70 35 85 72 37 85 72 37 85 72 37 85 73 35 85 72 37 81 68 34 79 64 31 64 55 26 32 26 10 30 27 10 3 3 5 1 0 5 1 1 3 1 1 3 1 1 3 2 2 4 1 1 3 1 1 3 2 2 4 1 1 3 1 2 4 1 1 3 1 1 3 2 2 4 1 2 4 1 2 4 1 2 4 2 2 4 1 3 2 2 2 4 1 1 3 5 5 5 8 9 4 17 16 11 72 63 32 74 63 31 
2 2 4 1 1 3 0 1 3 2 2 4 1 1 3 2 2 4 1 1 3 2 2 4 2 2 4 1 1 3 1 2 4 1 2 4 2 2 4 2 2 4 2 2 4 1 1 3 3 3 5 1 1 3 2 2 4 2 2 4 2 2 4 2 2 4 1 1 3 1 1 3 2 2 4 2 2 4 2 2 4 2 2 4 1 1 3 1 1 3 2 2 4 2 2 4 1 1 3 1 1 3 1 1 3 2 2 4 1 2 4 0 1 3 1 2 4 1 2 4 1 2 4 0 1 3 1 2 4 0 1 3 1 2 4 0 1 3 1 2 4 0 1 3 0 1 3 2 2 4 2 2 4 1 1 3 1 2 4 1 1 3 1 2 4 1 2 6 0 2 5 5 5 5 11 10 5 11 10 5 38 33 13 40 33 14 52 45 19 62 53 24 66 52 25 70 61 30 69 60 29 69 60 29 71 60 30 54 47 19 45 39 15 35 30 11 3 3 5 4 4 6 1 1 3 2 2 4 1 1 3 1 1 3 2 2 4 2 2 4 1 1 3 1 1 3 2 2 4 1 1 3 2 2 4 1 1 3 1 1 3 1 1 3 1 1 3 1 1 3 0 0 2 2 2 4 2 2 4 3 3 3 1 2 4 12 11 6 25 21 9 33 27 13 79 69 34 78 70 33 
1 1 3 0 1 3 1 1 3 1 1 3 1 1 3 2 2 4 1 1 3 2 2 4 1 1 3 1 1 3 1 2 4 1 2 4 1 1 3 2 2 4 2 2 4 2 2 4 3 3 5 1 1 3 2 2 4 2 2 4 1 1 3 1 2 4 0 1 3 2 2 4 1 1 3 1 2 4 1 2 4 1 1 3 1 1 3 1 1 3 1 1 3 2 2 4 2 2 4 1 1 3 1 1 3 1 1 3 1 1 3 1 1 3 1 1 3 1 1 3 1 1 3 1 1 3 1 1 3 1 1 3 1 1 3 2 2 4 1 1 3 2 2 4 2 2 2 0 1 3 1 2 4 1 1 3 1 1 3 2 2 4 2 1 6 1 0 5 2 1 6 6 4 5 12 9 4 13 10 5 40 34 12 39 32 13 54 47 21 62 53 24 63 54 25 70 59 29 71 62 29 70 61 30 71 60 30 54 47 21 46 40 14 37 31 15 3 3 3 3 3 5 1 1 3 1 1 3 1 1 3 2 2 4 2 2 4 2 2 4 0 0 2 1 1 3 1 1 3 1 1 3 1 2 4 0 3 4 1 2 4 1 2 4 2 2 4 1 1 3 1 1 3 1 2 4 3 1 4 2 2 4 3 3 3 14 11 6 24 20 8 33 27 11 79 69 33 79 69 33 
2 2 4 0 1 3 1 1 3 2 2 4 1 1 3 2 2 4 1 1 3 2 2 4 1 1 3 1 1 3 1 2 4 1 2 4 2 2 4 1 1 3 1 1 3 1 1 3 1 1 3 1 1 3 2 2 4 1 1 3 1 2 4 1 1 3 1 1 3 1 2 4 0 1 3 2 2 4 1 1 3 1 2 4 1 1 3 2 2 4 2 2 4 1 1 3 1 1 3 1 1 3 2 2 4 2 2 4 1 2 4 1 2 4 0 1 3 2 3 5 0 1 3 1 2 4 0 1 3 1 2 4 2 2 4 2 2 4 2 0 3 1 1 3 1 1 3 0 1 3 0 1 3 1 1 3 1 1 3 1 1 3 1 1 3 0 2 1 1 1 3 2 2 4 4 4 6 3 3 3 6 6 4 6 5 3 6 6 4 9 8 6 8 8 6 11 10 8 10 10 8 10 10 8 11 11 9 9 8 6 6 6 4 6 6 4 0 1 3 2 2 4 1 1 1 1 1 3 1 1 3 3 3 5 3 3 5 1 1 3 2 2 4 1 1 3 1 1 3 1 1 3 0 1 3 1 1 3 1 1 3 2 0 3 1 1 3 1 1 3 1 1 3 1 1 3 0 1 3 1 2 4 1 1 3 22 20 8 44 38 12 49 41 18 88 74 39 88 74 37 
2 2 4 1 1 3 1 2 4 1 1 3 1 1 3 2 2 4 1 1 3 1 1 3 1 1 3 1 1 3 1 2 4 1 2 4 1 1 3 1 1 3 1 1 3 1 1 3 2 2 4 1 1 3 1 1 3 1 1 3 1 1 3 1 1 3 1 1 3 1 1 3 2 2 4 1 1 3 1 1 3 1 1 3 1 1 3 2 2 4 2 2 4 1 1 3 1 1 3 1 1 3 1 1 3 2 2 4 2 2 4 1 1 3 2 2 4 1 1 3 0 0 2 1 1 3 1 1 3 1 1 3 1 1 3 1 3 2 0 1 3 2 2 4 1 1 3 0 2 1 1 2 4 1 1 3 1 1 3 0 1 3 1 1 3 1 2 4 1 1 3 1 1 3 1 1 3 1 2 4 1 1 3 1 1 3 1 1 3 1 0 5 1 2 6 4 4 6 2 3 5 3 3 5 3 3 5 3 3 5 1 2 4 1 3 2 1 1 3 2 2 4 2 2 4 2 2 4 1 1 3 2 2 4 2 2 4 1 1 3 1 1 3 1 1 3 1 1 3 2 2 4 0 1 3 1 2 4 1 2 4 1 2 4 1 2 4 1 2 4 2 2 4 2 0 3 2 2 4 1 1 3 1 0 5 23 21 8 45 39 15 51 44 18 89 75 38 88 74 37 
1 1 3 1 1 3 1 2 4 1 1 3 1 1 3 1 1 3 2 2 4 1 1 3 2 2 4 1 1 3 1 2 4 1 2 4 2 2 4 1 1 3 1 1 3 2 2 4 1 1 3 2 2 4 2 2 4 1 1 3 1 1 3 1 2 4 0 1 3 1 1 3 1 1 3 0 1 3 1 2 4 2 2 4 1 1 3 1 1 3 1 1 3 2 2 4 2 2 4 1 1 3 1 1 3 1 1 3 3 3 5 2 2 4 2 2 4 1 1 3 2 2 4 0 0 2 1 1 3 0 0 2 1 0 5 2 2 4 0 0 2 2 2 4 2 2 4 0 2 1 1 1 3 2 2 4 2 0 3 1 3 2 1 1 3 1 1 3 1 1 3 2 2 4 1 1 3 1 2 4 1 1 1 1 1 3 1 1 3 1 1 3 2 3 7 2 2 4 3 1 4 3 3 5 2 2 4 2 2 4 1 1 3 1 0 5 1 0 5 2 2 4 1 1 3 2 2 4 0 0 2 0 0 2 2 2 4 1 1 3 1 1 3 1 1 3 1 1 3 2 2 4 2 2 4 0 1 3 2 2 4 2 2 4 2 0 3 1 1 3 2 2 4 0 1 3 2 2 2 2 2 4 2 2 4 30 26 14 58 51 23 62 53 24 89 75 38 89 75 38 
1 1 3 1 2 4 1 1 3 2 2 4 1 1 3 1 1 3 3 3 5 1 1 3 2 2 4 1 1 3 1 2 4 1 2 4 2 2 4 2 2 4 1 1 3 2 2 4 2 2 4 2 2 4 2 2 4 1 1 3 1 1 3 1 1 3 2 2 4 3 3 5 1 1 3 1 1 3 1 1 3 2 2 4 1 1 3 2 2 4 2 2 4 1 1 3 1 1 3 1 1 3 1 1 3 2 2 4 2 2 4 1 1 3 2 2 4 2 2 4 1 1 3 2 2 4 1 1 3 1 1 3 2 2 4 1 2 4 0 1 3 0 1 3 1 1 3 2 2 2 2 2 4 2 1 6 1 1 3 1 1 3 1 1 3 0 1 3 1 1 3 1 1 3 1 2 4 0 1 3 1 3 2 2 2 4 1 3 2 1 2 4 0 1 3 2 2 2 0 1 3 1 2 4 1 2 4 0 1 3 2 2 4 0 2 1 2 2 4 0 2 1 1 0 5 1 1 3 1 1 3 1 1 3 3 3 5 2 2 4 1 1 3 2 2 4 1 1 3 2 2 4 1 1 3 1 1 3 1 1 3 2 2 4 2 3 5 1 2 4 0 1 3 1 2 4 1 1 3 4 4 6 3 3 5 36 33 16 70 61 28 71 62 31 88 74 37 89 75 36 
0 0 2 0 0 2 1 1 3 2 2 4 1 1 3 0 0 2 1 1 3 1 1 3 1 1 3 2 2 4 1 1 3 2 2 4 1 1 3 1 1 3 1 2 4 2 2 4 1 1 3 1 0 5 1 1 3 2 2 2 1 1 3 0 3 4 0 1 3 2 2 4 0 2 1 0 1 3 2 3 5 1 1 3 1 1 3 2 2 4 1 1 3 1 1 3 1 1 3 1 1 3 1 1 3 1 1 3 2 2 4 1 1 3 0 1 3 2 2 4 2 2 4 1 2 4 1 1 3 1 1 3 1 2 4 2 2 4 1 2 4 1 1 3 1 1 3 1 1 3 1 2 4 1 2 4 2 2 4 2 2 4 1 1 3 1 1 3 2 2 4 2 2 4 2 2 4 1 1 3 2 2 4 1 1 3 2 2 4 1 1 3 1 1 3 1 1 3 2 2 4 2 2 4 2 2 4 0 0 2 1 1 3 2 2 4 1 1 3 1 2 4 2 2 4 2 2 4 1 1 3 0 0 2 1 1 3 2 2 4 2 2 4 1 1 3 1 1 3 2 2 4 1 1 3 1 1 3 1 1 3 1 1 3 1 1 3 2 2 4 2 2 4 1 1 3 2 0 3 6 4 5 7 5 6 39 33 17 71 62 31 75 65 30 88 74 37 87 75 37 
1 1 3 2 2 4 2 2 4 1 1 3 2 2 4 2 2 4 2 2 4 2 2 4 1 1 3 2 2 4 1 1 3 1 1 3 1 1 3 1 1 3 1 1 3 2 2 4 1 2 4 1 1 3 1 2 4 2 2 2 1 1 3 1 2 4 2 2 2 1 1 3 0 2 1 1 2 4 0 2 1 2 2 4 1 1 3 2 2 4 2 2 4 1 1 3 1 1 3 1 1 3 1 1 3 0 0 2 2 2 4 1 1 3 1 2 4 2 2 4 1 1 3 1 2 4 1 1 3 2 2 4 1 1 3 0 1 3 1 1 3 2 2 4 2 2 4 1 1 3 1 1 3 2 3 5 2 2 4 2 2 4 1 1 3 2 2 4 1 1 3 2 2 4 1 1 3 2 2 4 1 1 3 2 2 4 2 2 4 2 2 4 2 2 4 2 2 4 2 2 4 1 1 3 1 1 3 2 2 4 0 1 3 0 1 3 1 1 3 1 1 3 1 1 3 0 1 3 1 1 3 1 1 3 1 1 3 1 1 3 2 2 4 2 2 4 1 1 3 2 2 4 0 1 3 1 1 3 1 1 3 2 2 4 2 2 4 2 2 4 2 2 4 1 1 3 1 3 2 21 19 6 26 20 6 57 47 22 87 74 39 86 73 38 90 76 39 89 75 38 
1 1 3 2 2 4 2 2 4 1 1 3 2 2 4 1 1 3 2 2 4 1 1 3 1 1 3 1 1 3 1 1 3 1 1 3 2 2 4 2 2 4 1 1 3 2 1 6 0 1 3 1 1 3 2 2 4 1 1 3 1 1 3 1 1 3 1 1 3 0 1 3 0 1 3 1 1 3 2 2 4 0 1 3 1 1 3 1 1 3 2 2 4 2 2 4 1 1 3 1 1 3 1 1 3 1 1 3 1 1 3 1 1 3 1 1 3 1 1 3 1 1 3 1 1 3 1 1 3 1 1 3 1 1 3 0 1 3 2 2 4 1 1 3 1 1 3 1 1 3 1 1 3 1 2 4 2 2 4 0 0 2 2 2 4 1 1 3 3 3 5 1 1 3 1 1 3 2 2 4 1 1 3 2 2 4 1 1 3 1 1 3 2 2 4 1 1 3 1 1 3 1 1 3 1 1 3 1 1 3 2 2 4 2 2 4 1 1 3 2 2 4 1 1 3 1 1 3 1 1 3 2 2 4 1 1 3 2 2 4 1 1 3 2 2 4 2 2 4 1 1 3 2 2 4 2 2 4 2 2 4 1 1 3 1 1 3 2 2 4 0 1 3 0 1 3 0 1 3 21 19 6 25 22 7 55 48 22 86 73 38 85 73 35 88 74 37 88 74 37 
2 2 4 1 1 3 1 1 3 2 2 4 1 1 3 1 1 3 1 1 3 1 1 3 0 0 2 1 1 3 1 1 3 1 1 3 0 1 3 2 2 2 1 2 4 1 1 3 1 1 3 1 1 1 1 2 4 0 1 3 1 1 3 1 1 3 2 2 4 1 2 4 1 2 4 2 2 4 2 2 2 2 2 2 1 1 3 1 1 3 2 2 4 2 2 4 1 1 3 1 1 3 1 1 3 1 1 3 1 1 3 2 2 4 1 1 3 2 2 4 2 2 4 2 2 4 2 2 4 0 0 2 2 2 4 1 2 4 2 2 4 1 1 3 1 1 3 1 1 3 1 1 3 1 2 4 1 1 3 1 1 3 2 2 4 1 1 3 1 1 3 2 2 4 1 1 3 1 1 3 2 2 4 2 2 4 2 2 4 1 1 3 1 1 3 2 2 4 1 1 3 2 2 4 1 2 4 2 2 4 1 1 3 2 2 4 2 2 4 1 2 4 2 2 4 1 1 3 2 2 4 1 1 3 2 2 4 1 1 3 1 1 3 1 1 3 1 1 3 1 1 3 1 2 4 0 0 2 0 1 3 1 1 3 1 1 3 1 1 3 2 2 4 3 3 5 2 1 6 37 30 12 41 35 13 64 55 24 88 76 38 88 76 38 87 75 37 88 74 37 
3 3 5 1 1 3 1 1 3 2 2 4 1 1 3 1 1 3 0 0 2 2 2 4 2 2 4 2 2 4 2 2 4 2 2 4 1 1 3 2 2 2 1 1 3 2 2 4 1 1 3 2 2 4 1 2 4 1 2 4 0 1 3 1 1 3 1 1 3 0 1 3 1 2 4 2 2 4 1 1 1 1 1 3 1 1 3 1 1 3 2 2 4 2 2 4 2 2 4 1 1 3 1 1 3 1 1 3 0 0 2 2 2 4 2 2 4 2 2 4 1 1 3 2 2 4 1 1 3 2 2 4 3 3 5 1 1 3 0 1 3 2 2 4 1 1 3 1 1 3 1 2 4 1 2 4 1 1 3 1 1 3 1 1 3 2 2 4 1 1 3 2 2 4 1 1 3 1 1 3 2 2 4 1 1 3 2 2 4 1 1 3 1 1 3 2 2 4 2 2 4 2 2 4 1 1 3 1 1 3 1 2 4 1 1 3 1 1 3 1 1 3 1 1 3 1 2 4 2 2 4 1 1 3 1 1 3 2 2 4 2 2 4 1 1 3 2 2 4 1 1 3 2 2 4 2 2 4 1 1 3 2 2 4 2 2 4 0 1 3 0 1 3 1 2 4 2 2 4 40 33 14 46 40 16 67 58 27 89 75 36 88 74 37 86 73 38 86 74 36 
2 2 4 1 1 3 2 2 4 2 2 4 2 2 4 2 2 4 1 1 3 1 1 3 1 1 3 2 2 4 2 2 4 1 1 3 1 1 3 2 2 4 3 3 5 5 3 4 4 4 4 8 7 3 8 7 5 7 6 4 9 8 4 8 7 3 5 5 3 5 5 3 5 3 4 4 2 3 4 2 3 2 2 4 2 2 4 1 1 3 1 1 3 2 2 4 2 2 4 1 1 3 1 1 3 2 2 4 1 1 3 1 1 3 1 1 3 1 1 3 1 1 3 1 1 3 1 1 3 1 1 3 1 2 4 2 2 4 1 2 4 1 2 4 1 1 3 1 1 3 1 2 4 1 2 4 2 2 4 1 1 3 2 2 4 2 2 4 2 2 4 1 1 3 1 1 3 3 3 5 1 1 3 1 1 3 1 1 3 2 2 4 1 1 3 1 1 3 2 2 4 1 1 3 1 1 3 1 1 3 1 1 3 1 1 3 1 1 3 1 1 3 2 2 4 1 1 3 2 2 4 1 1 3 1 1 3 2 2 4 1 1 3 1 1 3 1 1 3 2 2 4 1 2 4 1 2 4 1 1 3 2 2 4 1 1 3 1 1 3 2 2 4 2 2 4 3 2 7 47 41 17 54 47 19 70 59 27 89 75 38 88 74 39 88 74 39 87 73 38 
1 1 3 1 1 3 2 2 4 2 2 4 1 1 3 2 2 4 1 1 3 2 2 4 1 1 3 1 1 3 1 1 3 1 1 3 2 4 3 4 2 5 4 4 4 11 10 6 11 10 5 17 14 5 18 15 6 20 16 7 19 16 7 19 14 8 11 10 5 11 10 5 10 6 3 9 3 3 7 3 4 3 3 5 3 3 5 2 2 4 1 1 3 2 2 4 1 1 3 1 1 3 1 1 3 1 1 3 2 2 4 1 2 4 1 1 3 2 2 4 2 2 4 1 1 3 2 3 5 1 1 3 1 1 3 1 2 4 2 2 4 3 3 5 1 1 3 1 1 3 1 1 3 1 2 4 2 2 4 1 1 3 2 2 4 2 2 4 1 1 3 2 2 4 1 1 3 2 2 4 1 1 3 2 2 4 2 2 4 2 2 4 2 2 4 2 2 4 2 2 4 1 1 3 1 2 4 2 2 4 2 2 4 1 1 3 1 2 4 1 2 4 2 2 4 2 2 4 1 1 3 2 2 4 1 1 3 1 1 3 2 2 4 1 1 3 1 1 3 2 2 4 2 2 4 1 1 3 1 1 3 0 0 2 1 1 3 1 1 3 2 2 4 3 4 6 3 3 3 61 54 26 70 61 30 80 67 33 87 75 37 88 76 38 87 74 39 86 73 38 
1 1 3 3 3 5 2 2 4 1 1 3 2 2 4 2 2 4 2 2 4 2 2 4 2 2 4 1 1 3 2 2 4 2 2 4 2 1 6 3 3 5 4 4 4 12 11 6 11 10 6 16 13 6 18 15 6 18 15 6 18 15 6 19 14 8 13 10 5 13 10 3 10 6 3 8 4 1 7 3 2 3 3 5 4 4 6 1 1 3 1 1 3 2 2 4 1 1 3 0 0 2 1 1 3 1 1 3 1 1 3 1 2 4 2 2 4 3 3 5 2 2 4 2 2 4 0 1 3 2 2 4 2 2 4 1 2 4 1 1 3 1 1 3 1 1 3 1 1 3 0 0 2 1 2 4 2 2 4 1 1 3 3 3 5 1 1 3 1 1 3 2 2 4 1 1 3 2 2 4 2 2 4 2 2 4 1 1 3 1 1 3 1 1 3 2 2 4 1 1 3 2 2 4 1 1 3 1 1 3 0 1 3 1 1 3 2 2 4 1 1 3 0 0 2 1 1 3 1 1 3 1 1 3 1 1 3 1 1 3 1 1 3 2 2 4 2 2 4 2 2 4 2 2 4 1 1 3 2 2 4 0 0 2 2 2 4 1 1 3 2 2 4 3 3 5 4 4 6 60 53 25 69 60 29 80 67 33 88 76 38 89 75 38 87 73 38 86 74 36 
1 3 0 1 3 2 1 1 3 2 2 0 2 2 4 0 4 3 3 3 5 7 5 6 25 21 9 25 22 7 42 34 13 46 40 14 56 47 14 65 56 15 68 54 15 73 62 17 72 60 18 77 64 20 79 65 20 78 65 20 78 65 20 78 65 21 78 65 20 78 65 20 74 61 17 73 60 18 71 59 17 64 55 16 66 54 16 41 36 14 40 33 14 34 29 10 27 21 9 23 19 7 8 2 2 8 4 1 2 2 4 2 2 2 2 2 4 1 1 3 1 1 3 2 2 4 1 0 5 1 1 3 1 1 3 1 1 3 2 2 4 0 1 3 1 1 3 1 1 3 1 1 3 1 1 3 1 3 2 2 2 4 1 1 3 2 2 2 2 2 4 0 2 1 2 2 4 1 1 3 1 1 3 3 3 5 1 2 4 1 1 3 1 1 3 1 2 4 1 1 3 1 1 3 1 1 3 1 1 3 1 1 3 1 1 3 1 1 3 1 1 3 1 1 3 3 3 5 1 1 3 2 2 4 1 1 3 2 2 4 1 1 3 2 2 4 1 1 3 1 1 3 1 3 2 2 0 3 1 1 3 1 2 4 2 2 4 3 3 5 7 6 4 25 22 7 25 21 9 79 66 32 86 74 36 86 73 38 87 73 36 87 73 36 86 72 35 87 73 38 
1 1 3 1 2 4 1 2 4 1 1 3 1 1 3 3 3 5 3 3 5 7 5 6 23 21 8 25 21 9 40 33 14 45 38 12 56 47 16 64 55 16 66 54 14 72 60 18 70 61 18 77 64 20 78 65 20 78 65 20 78 65 20 78 65 20 78 65 20 78 65 21 75 62 20 73 59 20 70 58 18 64 55 16 66 54 16 42 34 13 40 33 14 33 27 11 25 21 9 24 18 6 8 2 2 8 2 2 3 3 5 1 3 2 2 2 2 2 2 4 1 2 6 2 2 2 2 2 4 1 2 4 1 1 3 1 3 2 2 0 1 1 2 4 1 1 3 1 1 3 0 1 3 1 1 3 1 1 3 1 0 5 1 1 3 1 1 3 2 0 3 1 1 3 1 1 3 1 1 3 1 1 3 2 2 4 1 1 3 1 1 3 2 2 4 1 1 3 1 1 3 1 1 3 2 2 4 1 1 3 2 2 4 2 2 4 2 2 4 2 2 4 2 2 4 2 2 4 1 1 3 1 1 3 2 2 4 2 2 4 1 1 3 0 0 2 2 2 4 1 1 3 1 1 3 2 2 4 2 2 4 2 2 4 1 1 3 2 2 4 6 6 4 24 20 8 25 21 9 79 66 32 87 73 38 87 75 37 86 73 39 88 74 37 83 74 35 86 74 36 
2 2 4 3 3 3 3 3 3 15 12 5 16 13 6 30 24 10 41 35 13 44 37 11 63 50 15 64 50 15 69 55 16 71 58 14 74 59 16 78 64 17 80 63 17 79 67 17 80 66 17 83 67 18 83 67 16 81 68 16 84 68 17 84 68 17 83 67 16 84 68 19 82 66 17 81 64 18 80 66 19 77 63 14 77 63 18 70 57 15 69 55 16 66 52 15 64 51 16 61 48 16 45 35 10 43 36 10 32 26 10 29 26 11 23 19 8 17 14 9 16 13 6 4 4 6 3 3 5 2 2 4 2 2 4 0 1 3 1 1 3 2 2 4 1 1 3 3 1 4 0 1 5 1 1 3 2 2 2 0 1 3 1 1 3 2 2 4 1 1 3 1 2 4 1 1 3 0 1 3 1 1 3 1 2 4 1 1 3 2 2 4 2 2 4 1 1 3 1 2 4 2 2 4 2 2 4 2 2 4 2 2 4 1 1 3 1 1 3 1 1 3 2 2 4 2 2 4 2 2 4 1 1 3 1 1 3 1 1 3 2 2 4 1 1 3 2 2 4 1 1 3 1 1 3 0 1 3 2 2 4 2 2 2 2 2 4 1 1 3 11 10 5 38 31 13 40 31 14 80 70 35 88 74 37 88 74 39 86 73 38 87 73 38 87 73 38 86 74 36 
1 1 3 3 3 5 3 3 5 22 20 8 27 21 9 45 38 12 63 54 15 69 55 16 85 67 17 85 67 17 87 70 18 86 69 15 86 69 17 87 70 18 86 69 17 86 69 17 87 70 18 87 70 18 86 69 17 85 69 17 87 69 19 86 69 17 87 70 18 86 69 17 86 69 17 88 71 19 86 69 17 87 70 18 86 68 18 86 69 17 87 70 18 87 67 17 86 68 18 83 66 20 66 54 16 66 54 14 51 41 14 46 38 15 38 31 12 25 21 9 25 22 7 3 3 5 4 4 6 2 2 2 1 1 1 2 1 6 2 2 2 2 2 4 2 2 4 1 0 5 1 2 4 1 1 1 1 1 3 1 2 4 1 1 3 1 2 4 2 2 4 2 2 4 1 1 3 2 2 4 1 1 3 2 2 4 1 1 3 2 2 4 2 2 4 1 1 3 2 2 4 2 2 4 1 1 3 1 1 3 1 1 3 2 2 4 1 1 3 1 1 3 1 1 3 1 1 3 1 1 3 2 2 4 1 1 3 1 1 3 1 1 3 1 1 3 1 1 3 2 2 4 1 1 3 1 2 4 1 1 3 1 1 3 2 2 2 1 1 1 11 10 5 46 39 13 45 39 15 83 70 35 88 74 37 88 74 37 86 74 36 87 73 38 87 73 36 87 75 35 
7 5 6 15 15 7 16 13 6 37 30 11 40 32 11 56 45 13 70 57 15 74 59 16 85 67 17 86 68 18 86 68 18 85 70 15 86 69 15 87 70 18 87 70 18 86 69 17 89 69 16 86 69 17 87 70 18 87 70 16 86 69 17 86 69 17 86 69 17 86 69 17 87 70 18 86 69 17 86 69 17 86 69 17 86 69 17 87 70 18 86 69 17 88 70 20 86 68 20 83 67 18 71 58 16 70 57 15 59 49 14 57 46 16 48 41 13 39 33 11 40 32 11 19 16 7 19 16 7 16 13 8 12 11 6 9 8 4 6 6 4 6 5 3 2 3 5 1 2 4 1 3 2 2 2 4 1 2 4 2 2 4 1 1 3 2 2 4 1 1 3 0 1 3 1 1 3 1 1 3 2 2 4 1 1 3 1 1 3 2 2 4 2 2 4 1 1 3 1 1 3 2 2 4 1 1 3 2 2 4 2 2 4 1 1 3 2 2 4 2 2 4 2 2 4 1 1 3 2 2 4 1 1 3 1 1 3 2 2 4 1 1 3 1 1 3 2 2 4 2 2 4 2 0 3 2 2 4 1 1 3 1 1 3 3 2 7 2 2 4 14 13 8 51 44 16 51 44 18 83 70 36 87 73 36 88 74 37 86 74 36 86 74 36 86 73 38 88 72 38 
20 18 5 55 46 13 55 44 12 82 65 19 85 67 19 86 68 18 87 70 18 86 68 18 87 70 16 86 69 17 86 70 18 87 70 18 87 70 18 87 70 18 86 70 18 86 68 18 87 70 18 85 69 17 86 69 17 88 68 17 86 69 17 86 69 17 86 69 17 86 69 17 87 70 18 86 69 17 86 69 17 86 69 17 87 70 18 86 69 17 86 69 17 85 69 17 87 67 17 88 68 17 86 69 17 85 69 17 86 69 15 88 68 17 86 68 18 85 67 19 86 68 20 64 55 16 68 54 15 52 46 14 44 38 14 40 34 12 18 15 6 19 16 7 5 5 5 3 3 5 3 3 5 1 1 3 1 2 4 1 2 4 0 1 3 0 2 1 1 1 3 1 1 1 1 3 2 0 1 3 2 2 4 0 0 2 1 2 4 2 2 4 1 1 3 1 2 4 2 2 4 2 2 4 2 2 4 2 2 4 2 2 4 2 2 4 1 1 3 1 1 3 2 2 4 2 2 4 2 2 4 1 1 3 1 1 3 1 1 3 2 2 4 1 1 3 2 2 4 1 1 3 1 1 3 1 1 3 1 1 3 2 2 4 2 2 4 3 4 6 20 17 10 70 59 29 69 60 29 86 74 36 89 73 37 86 73 38 86 73 38 85 73 35 85 73 35 86 74 36 
22 18 7 56 45 13 55 44 12 79 66 14 85 67 19 86 68 18 86 69 17 87 70 18 85 68 16 89 69 18 86 69 17 87 70 18 85 68 16 86 69 17 86 69 17 86 70 19 86 69 17 85 69 17 86 69 17 86 69 17 86 69 17 87 70 18 86 69 17 86 69 17 87 70 18 86 69 17 86 69 17 86 69 17 87 70 18 89 69 18 86 69 17 85 67 17 86 68 18 86 69 17 85 68 16 89 69 18 86 69 17 86 69 17 85 67 17 86 68 18 84 68 19 66 54 14 66 54 16 52 45 16 45 39 15 40 34 12 18 15 6 18 15 6 6 6 6 2 3 5 3 3 3 1 2 4 2 2 2 1 1 3 1 1 3 2 2 4 1 0 6 2 2 4 1 1 1 1 1 3 1 1 3 1 1 3 2 2 4 1 1 3 1 1 3 2 2 4 2 2 4 1 1 3 1 1 3 1 1 3 1 1 3 2 2 4 2 2 4 2 2 4 1 1 3 1 1 3 1 1 3 2 2 4 2 2 4 1 1 3 2 2 4 1 1 3 1 1 3 2 2 4 1 3 2 1 2 4 1 1 3 1 1 3 2 2 4 3 3 5 20 17 10 69 60 31 70 59 27 85 72 37 88 76 36 87 75 37 87 74 39 85 73 35 85 76 37 86 74 36 
64 51 16 82 66 15 82 66 14 86 68 18 87 69 19 85 69 17 87 69 19 86 69 17 86 69 17 87 70 18 86 69 17 87 70 18 87 70 18 86 69 17 85 69 17 86 69 17 88 68 17 86 69 17 86 69 17 86 69 17 85 69 18 85 69 17 86 69 17 85 68 16 86 69 17 86 69 17 86 68 18 86 69 17 86 69 17 86 69 17 86 69 17 86 69 17 87 70 16 85 69 17 86 69 17 86 69 17 86 69 17 86 68 18 86 69 17 85 70 15 86 69 17 85 69 17 84 66 18 83 67 16 81 65 16 78 64 17 70 58 18 73 60 18 59 49 14 57 46 14 46 39 11 34 28 12 33 27 11 16 13 6 16 14 2 5 5 5 3 3 5 3 3 5 1 3 2 0 1 3 2 2 4 1 2 4 1 1 3 2 2 4 1 1 3 1 1 3 1 2 4 0 0 2 1 1 3 1 1 3 1 1 3 1 1 3 2 2 4 2 2 4 2 2 4 2 2 4 1 1 3 2 2 4 1 1 3 2 2 4 1 1 3 2 2 4 2 2 4 1 1 3 2 2 4 0 1 3 2 2 4 1 1 1 13 13 5 23 19 8 37 31 15 82 72 36 85 72 37 86 73 38 87 73 36 86 73 38 87 75 37 85 73 35 86 74 36 86 74 36 
71 58 16 86 69 17 87 70 18 86 69 17 86 69 17 87 70 18 86 69 17 86 69 17 85 67 17 86 69 17 86 69 17 86 69 17 86 68 18 86 69 17 86 69 17 86 69 17 86 69 17 86 68 18 86 69 17 86 69 17 86 69 17 86 69 17 86 69 17 87 70 16 86 69 17 86 69 15 86 69 17 87 70 18 86 69 17 86 69 17 87 70 18 86 69 17 86 69 17 86 69 17 87 70 18 86 69 17 86 69 17 86 68 18 88 71 19 87 70 18 86 69 17 86 68 18 86 69 17 86 69 17 88 71 19 84 68 17 78 65 21 79 65 20 68 56 16 65 53 13 49 44 12 40 34 12 37 32 12 18 13 7 18 15 6 7 5 6 3 3 5 2 2 4 2 2 4 1 1 3 1 1 3 1 2 4 1 2 4 1 1 3 2 1 6 2 2 4 1 1 3 2 0 3 2 2 4 1 1 3 2 2 4 3 3 5 3 3 5 2 2 4 1 1 3 2 2 4 1 1 3 1 1 3 0 1 3 1 1 3 1 1 3 1 1 3 1 2 4 2 2 4 1 1 3 1 1 3 1 2 4 2 2 2 16 13 4 25 21 9 40 33 14 85 72 37 88 74 37 87 73 36 86 74 36 85 73 35 86 74 36 85 73 35 85 73 35 87 73 36 
77 63 18 85 67 17 85 69 17 85 69 18 86 69 17 86 69 17 86 68 20 86 68 18 86 68 18 86 69 17 86 68 18 87 70 18 86 69 17 86 69 17 86 69 17 86 69 17 86 69 17 86 69 17 86 69 17 88 71 19 85 67 17 86 69 17 86 69 17 86 69 17 86 69 17 86 69 15 87 70 18 86 69 17 86 69 17 85 68 16 85 67 17 86 69 17 87 70 18 86 69 17 86 69 17 86 69 17 86 69 17 85 67 17 87 70 18 86 69 17 86 69 17 86 68 18 85 68 16 86 69 17 84 68 16 83 70 18 80 66 17 83 67 18 79 62 18 75 61 16 68 57 12 63 50 15 59 49 14 50 38 12 49 39 12 36 31 11 34 29 10 30 24 8 19 17 4 20 18 6 2 2 2 2 2 4 2 2 4 2 0 3 2 2 4 1 1 3 1 0 5 1 1 3 2 2 4 1 1 3 1 1 3 1 1 3 1 1 3 1 1 3 1 1 3 2 2 4 1 1 3 2 2 4 2 2 4 1 1 3 1 1 3 1 1 3 1 1 3 2 2 4 1 1 3 1 1 3 0 1 3 1 1 3 25 21 10 40 33 15 49 43 21 87 75 37 87 73 36 86 74 36 85 71 34 85 73 35 87 75 37 88 74 37 89 73 37 86 74 36 
86 69 17 87 70 18 88 68 17 85 69 18 86 70 18 86 68 18 85 69 18 86 68 18 85 67 17 86 69 17 88 70 20 90 72 22 87 70 18 84 67 15 86 69 17 86 69 17 86 68 18 86 69 17 86 68 18 86 69 17 86 69 17 85 67 17 86 69 17 86 69 17 86 69 17 85 68 16 86 69 17 86 69 17 86 68 18 86 69 17 85 68 16 86 69 17 86 69 17 86 68 18 85 68 16 86 69 17 86 69 17 86 69 17 85 68 16 86 68 18 86 69 17 86 68 18 86 68 18 86 69 17 87 70 18 86 68 18 85 69 17 86 69 17 87 70 18 86 69 17 86 69 17 86 69 17 86 68 18 80 66 21 78 65 21 68 56 16 66 54 16 55 46 13 38 33 13 39 32 13 3 3 5 4 4 6 1 2 4 0 1 3 1 2 4 0 2 1 1 1 3 1 1 1 1 1 3 1 1 3 2 2 4 1 1 3 1 1 3 2 2 4 1 1 3 1 1 3 1 2 4 1 1 3 1 2 4 1 1 3 1 1 3 1 1 3 1 1 3 1 1 3 1 1 3 2 2 4 1 3 2 1 1 3 31 27 15 52 46 22 61 51 26 88 74 39 88 74 37 86 72 35 86 74 36 86 74 36 88 74 37 88 74 37 85 73 35 87 75 37 
86 68 20 86 69 17 85 68 16 86 68 18 86 69 17 85 69 17 86 68 18 85 69 18 86 69 17 86 69 17 88 71 19 89 71 21 87 70 18 85 68 14 86 69 17 86 69 17 86 68 18 86 69 17 86 68 18 87 70 18 86 69 17 86 69 17 86 69 17 86 69 17 86 69 17 86 69 17 85 67 19 86 69 17 85 68 16 86 69 17 85 68 16 86 69 17 85 68 16 85 68 16 85 68 16 87 70 18 85 67 17 86 69 17 86 69 17 87 69 19 86 69 17 85 67 17 85 67 17 85 67 17 86 69 17 85 68 16 85 69 18 85 70 15 85 69 17 86 69 17 86 68 18 84 68 16 86 68 18 79 64 21 79 66 21 71 59 17 66 54 16 60 50 15 43 37 13 43 37 13 8 7 5 9 8 6 3 3 3 2 2 2 1 1 3 2 2 4 2 2 4 1 1 3 1 1 3 1 1 3 2 2 4 2 2 4 2 2 4 2 2 4 1 1 3 1 1 3 2 2 4 0 1 3 1 1 3 1 1 3 1 1 3 1 1 3 2 2 4 1 1 3 1 1 3 1 1 3 3 1 4 3 3 5 33 29 17 53 45 22 60 53 25 87 74 39 87 75 37 86 74 36 85 73 35 87 73 36 86 74 36 87 73 36 86 72 35 85 73 35 
85 69 17 86 69 17 87 70 18 86 69 17 86 69 17 88 71 19 89 72 20 88 70 20 86 70 18 86 69 17 85 69 17 86 69 17 86 69 17 85 68 16 86 69 17 87 70 18 86 69 17 86 68 18 86 69 17 85 68 14 86 69 17 86 69 17 86 69 17 85 68 16 85 68 16 86 69 17 85 67 17 86 68 18 86 68 18 86 69 17 85 68 16 86 69 17 85 68 16 86 68 18 85 68 16 86 69 17 86 68 18 86 69 17 87 70 18 85 67 17 86 69 17 86 68 20 85 67 19 86 68 18 86 69 17 85 68 16 86 69 17 87 70 18 86 69 17 85 68 16 86 69 17 88 68 17 86 69 17 84 68 16 85 69 17 86 69 17 85 67 17 86 68 18 87 67 17 86 68 20 39 32 13 39 34 14 13 13 5 1 1 3 1 1 3 1 1 3 2 2 4 2 2 4 2 2 4 2 2 4 1 1 3 2 2 4 2 2 4 1 1 3 2 2 4 2 2 4 1 1 3 2 2 4 1 1 3 1 1 3 1 1 3 1 1 3 0 1 3 2 2 4 1 2 4 1 3 2 3 3 5 3 3 5 44 39 20 69 60 29 74 63 31 88 74 37 88 74 39 85 72 37 86 73 38 85 72 37 86 72 37 85 72 37 85 72 37 86 73 38 
85 68 16 86 69 15 86 68 18 84 68 17 86 69 17 89 72 20 90 73 21 89 72 20 86 69 17 85 69 17 86 69 17 85 69 17 87 69 19 86 69 17 86 69 17 86 68 18 86 69 17 86 68 18 86 69 15 85 67 17 86 68 18 86 68 18 86 68 18 86 69 15 87 69 19 86 69 17 86 69 17 86 69 17 86 68 18 86 69 17 86 69 17 87 70 18 86 68 18 85 67 17 85 67 17 86 69 17 86 69 17 86 68 18 86 69 17 86 69 17 86 69 17 84 66 20 85 67 19 85 67 17 86 69 17 85 69 18 85 69 18 84 68 17 86 69 17 86 69 17 86 69 17 86 69 17 87 70 18 85 68 16 86 69 17 87 70 18 85 69 17 84 68 17 86 68 18 85 67 19 39 32 13 39 32 13 14 13 8 1 2 4 2 2 4 1 1 3 2 2 4 1 2 4 1 1 3 1 1 3 1 1 3 1 1 3 1 1 3 1 1 3 1 1 3 1 1 3 1 1 3 1 1 3 1 1 3 1 1 3 1 1 3 1 2 4 1 1 3 1 2 4 2 2 4 0 1 3 4 2 5 3 3 5 43 38 19 69 60 31 73 62 30 87 74 39 88 74 39 85 72 37 85 72 37 85 72 37 85 72 37 86 72 37 86 72 37 85 72 37 
