P3
100 50
255
10 12 27 10 12 27 10 12 27 10 12 27 10 12 27 9 11 26 9 11 26 10 12 27 10 12 27 9 11 26 8 10 25 9 11 26 10 12 27 9 11 26 10 12 27 9 11 26 9 11 26 8 10 25 9 11 26 9 11 26 9 11 26 9 11 26 9 11 26 9 11 26 8 10 25 8 10 25 10 12 27 8 10 25 8 10 25 8 10 25 8 10 25 8 10 25 8 10 25 8 10 25 8 10 25 8 10 25 7 9 22 9 11 24 8 10 23 8 10 23 8 10 23 8 10 23 7 9 22 9 11 24 8 10 23 9 11 24 8 10 23 7 9 22 7 9 22 8 10 23 8 10 23 7 9 22 7 9 22 7 9 22 7 9 22 7 9 22 7 9 22 7 9 22 7 9 22 7 9 22 7 9 21 8 10 23 7 9 22 8 10 23 6 8 21 7 9 22 7 9 22 7 9 22 9 8 22 9 8 22 9 9 21 9 9 21 9 8 22 9 9 21 9 8 22 9 9 21 7 9 22 7 9 22 7 9 21 6 8 21 5 7 19 7 9 21 6 8 21 7 9 21 8 8 20 9 9 21 8 8 20 8 8 20 8 8 20 8 8 20 8 8 20 8 8 20 8 8 20 8 8 20 8 8 20 8 8 20 9 9 21 9 9 21 7 7 19 8 8 20 
10 12 27 10 12 27 10 12 27 10 12 27 9 11 26 9 11 26 7 9 24 9 11 26 9 11 26 10 12 27 9 11 26 9 11 26 9 11 26 9 11 26 10 12 27 8 10 25 9 11 26 9 11 26 9 11 26 9 11 26 9 11 26 8 10 25 9 11 26 9 11 26 8 10 25 9 11 26 8 10 25 9 11 26 8 10 25 8 10 25 7 9 24 9 11 26 8 10 25 8 10 25 8 10 25 8 10 25 8 10 23 8 10 23 8 10 23 9 11 24 7 9 22 9 11 24 8 10 23 8 10 23 7 9 22 7 9 22 7 9 22 8 10 23 8 10 23 7 9 22 8 10 23 8 10 23 7 9 22 7 9 22 7 9 22 7 9 22 7 9 22 7 9 22 7 9 22 7 9 22 7 9 22 8 10 23 7 9 22 7 9 22 6 8 21 7 9 22 7 9 22 7 9 22 9 8 22 9 8 22 9 9 21 9 9 21 9 9 19 9 9 21 9 8 22 9 8 22 7 9 21 6 8 20 6 8 20 7 10 19 6 8 21 6 9 18 6 8 21 7 9 21 8 8 20 8 8 20 9 9 21 10 10 22 8 8 20 7 7 19 8 8 20 8 8 20 8 8 20 9 9 21 8 8 20 8 8 20 8 8 20 7 7 19 7 7 19 7 7 19 
10 12 27 10 12 27 10 12 27 10 12 27 10 12 27 9 11 26 8 10 25 10 12 27 10 12 27 9 11 26 9 11 26 9 11 26 9 11 26 9 11 26 8 10 25 9 11 26 9 11 26 9 11 26 9 11 26 9 11 26 9 11 26 9 11 26 8 10 25 9 11 26 9 11 26 8 10 25 9 11 26 9 11 26 8 10 25 9 11 26 8 10 25 8 10 25 10 12 27 8 10 25 8 10 25 8 10 25 8 10 23 7 9 22 10 12 25 8 10 23 8 10 23 8 10 23 7 9 22 7 9 22 8 10 23 7 9 22 7 9 22 7 9 22 7 9 22 7 9 22 7 9 22 7 9 22 7 9 22 7 9 22 7 9 22 7 9 22 7 9 22 7 9 22 7 9 22 7 9 22 7 9 24 7 9 22 7 9 22 6 8 21 7 9 22 7 9 22 7 9 22 7 9 21 9 8 22 9 9 21 8 8 20 8 8 20 8 7 21 8 7 21 9 9 21 9 9 21 7 9 21 6 8 20 7 9 21 7 9 21 6 8 20 6 8 21 6 8 20 7 9 22 8 8 20 8 8 20 9 9 21 9 9 21 8 8 20 8 8 20 8 8 20 8 8 20 8 8 20 8 8 20 8 8 20 8 8 20 6 6 18 7 7 19 8 8 20 7 7 19 
10 12 27 10 12 27 10 12 27 10 12 27 9 11 26 9 11 26 10 12 27 10 12 27 9 11 26 9 11 26 9 11 26 9 11 26 9 11 26 10 12 27 8 10 25 9 11 26 9 11 26 10 12 27 8 10 25 9 11 26 8 10 25 9 11 26 9 11 26 9 11 26 9 11 26 9 11 26 8 10 25 8 10 25 10 12 27 8 10 25 8 10 25 9 11 26 9 11 26 9 11 26 8 10 25 8 10 25 7 9 22 8 10 23 8 10 23 8 10 23 9 11 24 7 9 22 8 10 23 9 11 24 7 9 22 7 9 22 7 9 22 7 9 22 7 9 22 7 9 22 7 9 22 7 9 22 7 9 22 7 9 22 7 9 22 7 9 22 7 9 22 7 9 22 7 9 22 7 9 22 7 9 22 7 9 22 7 9 22 7 9 22 7 9 21 7 9 22 7 9 24 6 8 21 9 8 22 9 9 21 9 9 21 9 9 19 9 9 21 9 8 22 9 9 21 9 8 22 6 8 21 6 8 20 7 9 22 6 8 20 7 9 21 7 9 22 6 9 18 8 10 22 8 8 20 8 8 20 8 8 20 8 8 20 8 8 20 8 8 20 8 8 20 8 8 20 8 8 20 8 8 20 8 8 20 8 8 20 6 6 18 7 7 19 8 8 20 8 8 20 
10 12 27 10 11 29 10 12 27 9 10 28 8 10 25 10 12 25 9 11 26 10 12 25 9 11 26 9 11 26 9 11 26 9 11 24 9 11 26 8 10 25 8 10 25 8 10 25 9 11 26 9 11 26 9 11 26 8 10 25 9 11 26 9 11 26 8 10 25 8 10 25 8 10 25 8 10 25 8 10 25 8 10 25 9 11 26 9 11 26 9 11 26 8 10 23 8 10 23 9 11 26 8 10 25 9 11 26 9 11 24 9 11 24 7 9 24 7 9 24 8 10 23 8 10 23 8 10 23 7 9 24 7 9 24 7 9 22 7 9 24 7 9 22 7 9 22 7 9 22 7 9 22 7 9 22 7 9 22 7 9 22 7 9 22 7 9 22 7 9 22 7 9 24 7 9 22 7 9 22 9 8 22 9 8 22 9 8 22 8 7 21 9 8 24 9 8 22 9 8 22 9 8 22 8 7 21 9 8 22 9 9 21 9 9 21 8 8 20 9 9 21 9 9 21 8 8 20 8 8 20 8 8 20 8 8 20 8 8 20 8 8 20 8 8 20 8 8 20 8 8 20 8 8 20 8 8 20 8 8 20 8 8 20 8 8 20 8 8 20 8 8 20 8 8 20 8 8 20 8 8 20 6 8 20 4 6 18 6 8 20 5 7 19 8 8 20 7 7 19 
10 12 27 9 11 26 8 10 25 10 12 27 9 11 26 8 10 25 10 12 27 9 11 26 9 11 26 9 11 26 10 12 27 9 11 26 9 11 26 8 10 25 8 10 25 8 10 25 9 11 26 9 11 26 9 11 26 8 10 25 9 11 26 9 11 26 8 10 25 8 10 25 8 10 25 8 10 25 8 10 25 8 10 25 9 11 26 9 11 26 9 11 24 9 11 26 8 10 25 8 10 23 9 11 26 7 9 24 9 11 24 8 10 23 8 10 25 8 10 23 8 10 23 8 10 23 9 11 24 7 9 24 7 9 22 7 9 24 7 9 22 7 9 24 7 9 22 7 9 22 7 9 22 7 9 22 7 9 22 7 9 22 7 9 22 7 9 22 7 9 22 7 9 21 7 9 22 7 9 22 9 8 22 9 8 22 9 8 22 10 9 23 9 8 24 9 8 22 9 8 22 9 8 22 9 8 22 9 8 22 9 9 21 8 8 20 10 10 22 9 9 21 9 9 21 9 9 21 8 8 20 8 8 20 8 8 20 8 8 20 8 8 20 8 8 20 8 8 20 8 8 20 8 8 20 8 8 20 8 8 20 8 8 20 8 8 20 8 8 20 8 8 20 8 8 20 8 8 20 6 8 20 6 8 20 6 8 20 5 7 19 6 8 20 6 8 20 7 7 19 
9 11 26 9 11 26 10 12 27 9 11 26 9 11 26 9 11 26 9 11 26 8 10 25 9 11 26 9 11 26 9 11 26 9 11 26 9 11 26 8 10 25 8 10 25 8 10 25 9 11 26 9 11 26 9 11 26 8 10 25 9 11 26 9 10 28 8 9 27 8 10 25 8 10 23 8 10 22 8 10 23 8 10 23 8 10 25 8 10 25 8 10 23 8 10 25 8 10 25 7 9 22 7 9 24 7 9 24 6 8 21 8 10 23 7 9 24 8 10 23 7 9 22 8 10 23 8 10 23 7 9 22 7 9 22 7 9 24 7 9 22 7 9 24 7 9 22 7 9 22 7 9 22 7 9 22 7 9 22 7 9 22 7 9 22 7 9 22 7 9 22 7 9 22 7 9 22 7 9 22 8 7 21 9 8 22 9 8 22 9 8 22 9 8 22 9 8 22 8 7 21 9 8 22 9 8 22 10 9 23 9 9 21 8 8 20 9 9 21 9 9 21 8 8 20 8 8 20 8 8 20 8 8 20 8 8 20 8 8 20 8 8 20 8 8 20 8 8 20 8 8 20 8 8 20 8 8 20 8 8 20 8 8 20 8 8 20 8 8 20 8 8 20 8 8 20 8 8 20 8 8 20 8 8 20 6 8 20 6 8 20 7 7 19 7 7 19 8 8 20 
9 11 26 8 10 23 9 11 26 9 11 24 9 11 24 8 10 25 8 10 25 8 10 25 10 12 27 9 11 24 8 10 25 7 9 24 9 11 26 8 10 25 8 10 25 8 10 25 9 11 26 9 11 26 9 11 26 8 10 25 9 11 26 9 11 26 8 10 25 8 10 23 8 10 23 8 10 23 8 10 23 8 10 23 8 10 25 9 11 26 8 9 27 8 10 23 8 10 23 8 9 27 8 10 25 8 10 25 8 10 23 8 10 23 7 9 22 8 10 23 7 9 22 8 10 23 9 11 24 8 10 23 7 9 22 7 9 22 7 9 22 7 9 22 7 9 22 7 9 22 7 9 22 7 9 22 7 9 22 7 9 22 7 9 22 7 9 22 7 9 22 7 9 22 7 9 22 7 9 22 9 8 22 9 8 22 9 8 22 8 7 21 9 8 22 8 7 21 10 9 23 9 8 22 9 8 24 9 8 22 9 9 21 9 9 21 8 8 20 9 9 21 9 9 21 9 9 21 8 8 20 8 8 20 8 8 20 8 8 20 8 8 20 8 8 20 8 8 20 8 8 20 8 8 20 8 8 20 8 8 20 8 8 20 8 8 20 8 8 20 8 8 20 8 8 20 8 8 20 6 8 20 6 8 20 10 10 22 7 7 19 5 7 19 5 7 19 8 8 20 
8 10 25 9 11 26 9 11 26 10 12 27 10 12 27 9 11 26 9 11 26 9 11 26 8 10 25 10 12 27 9 11 26 9 11 26 8 10 25 9 11 26 9 11 26 9 11 26 8 10 25 8 10 25 8 10 25 9 11 26 9 11 26 9 11 26 8 10 25 8 10 25 8 10 23 8 10 23 8 10 23 8 10 23 8 10 25 8 10 25 8 10 25 8 10 23 7 9 22 8 10 25 8 10 25 7 9 24 8 10 23 8 10 23 8 10 23 7 9 22 8 10 23 7 9 22 8 10 23 8 10 23 7 9 24 7 9 22 7 9 24 7 9 22 7 9 22 7 9 22 7 9 22 7 9 22 7 9 22 7 9 22 7 9 22 7 9 22 7 9 21 7 9 22 7 9 21 7 9 22 9 8 22 9 8 22 9 8 22 8 7 21 8 7 21 9 8 22 9 8 22 9 8 22 9 8 22 8 7 21 9 9 21 9 9 21 9 9 21 8 8 20 9 9 21 8 8 18 8 8 20 8 8 20 8 8 20 8 8 20 8 8 20 8 8 20 8 8 20 8 8 20 8 8 20 8 8 20 8 8 20 8 8 20 8 8 20 8 8 20 8 8 20 8 8 20 6 8 20 8 8 20 8 8 20 6 8 20 6 8 20 7 7 19 7 7 19 6 8 20 
9 11 26 10 12 27 8 10 25 9 11 26 9 11 26 9 10 28 10 12 27 9 10 28 9 11 26 8 10 25 8 10 25 9 11 26 8 10 25 9 11 26 9 11 26 9 11 26 8 10 25 8 10 25 8 10 25 9 11 26 9 11 26 9 11 26 8 10 25 8 10 25 8 10 25 8 10 25 8 10 23 8 10 23 8 10 25 9 11 24 8 10 23 8 10 23 8 10 23 8 10 23 8 10 23 8 10 25 7 9 22 9 11 24 8 10 23 8 10 23 8 10 23 9 11 26 7 9 22 7 9 22 7 9 22 7 9 22 7 9 22 7 9 22 7 9 22 7 9 22 7 9 22 7 9 22 7 9 22 7 9 22 7 9 22 7 9 22 7 9 22 7 9 21 7 9 22 7 9 21 9 8 22 10 9 23 9 8 22 10 10 22 9 8 22 9 8 22 9 8 22 10 10 22 10 9 23 9 9 21 9 9 21 9 9 21 9 9 21 8 8 20 8 8 20 8 8 18 8 8 20 8 8 20 8 8 20 8 8 20 8 8 20 8 8 20 8 8 20 8 8 20 8 8 20 8 8 20 8 8 20 8 8 20 8 8 20 8 8 20 8 8 20 8 8 20 8 8 20 6 8 20 6 8 20 6 8 20 6 8 20 5 7 19 5 7 19 8 8 20 
9 11 26 9 11 26 9 11 26 10 12 27 8 10 25 9 11 26 8 10 25 9 11 26 9 11 26 9 10 28 9 11 26 8 10 25 8 10 25 9 11 26 9 11 26 9 11 26 8 10 25 8 10 25 8 10 25 9 11 26 9 11 26 9 11 26 8 10 25 8 10 25 8 10 25 8 10 23 8 10 23 8 10 23 8 10 25 9 11 24 8 10 23 8 10 23 8 10 23 8 10 23 8 10 23 8 10 25 7 9 24 8 10 23 9 11 24 7 9 22 8 10 23 7 9 24 8 10 23 7 9 22 7 9 22 7 9 22 7 9 22 7 9 22 7 9 22 7 9 22 7 9 22 7 9 22 7 9 22 7 9 22 7 9 22 7 9 22 7 9 22 7 9 22 7 9 22 7 9 22 9 8 22 8 7 21 10 9 23 9 9 21 9 8 22 8 7 21 9 8 22 9 9 21 9 8 22 9 9 21 8 8 20 8 7 21 7 6 20 8 7 21 8 8 20 8 8 20 8 8 20 8 8 20 8 8 20 8 8 20 8 8 20 8 8 20 8 8 20 8 8 20 8 8 20 8 8 20 8 8 20 8 8 20 8 8 20 8 8 20 8 8 20 8 8 20 8 8 20 8 8 20 8 8 20 5 7 19 5 7 19 7 7 19 7 7 19 7 7 19 
9 11 26 9 11 26 9 11 26 8 10 25 9 11 26 9 11 26 9 11 26 9 11 26 9 11 26 8 10 25 8 10 25 8 10 25 8 10 25 9 11 26 9 11 26 9 11 26 8 10 25 8 10 25 8 10 25 9 11 26 9 11 26 9 11 26 8 10 25 8 10 23 8 10 23 8 10 22 8 10 23 8 10 23 9 11 24 9 11 26 9 11 24 8 10 23 8 10 23 8 10 23 6 8 23 7 9 22 7 9 24 8 10 23 8 10 23 8 10 23 7 9 24 7 9 24 7 9 22 8 10 23 7 9 22 7 9 22 7 9 22 7 9 22 7 9 22 7 9 22 7 9 22 7 9 22 7 9 22 7 9 22 7 9 22 7 9 22 7 9 21 7 9 21 7 9 21 7 9 21 8 7 21 9 8 22 9 8 22 9 9 21 8 7 21 9 8 22 9 8 22 8 8 20 9 9 21 8 8 18 9 9 21 9 9 21 9 8 22 8 7 21 8 8 20 8 8 20 8 8 20 8 8 20 8 8 20 8 8 20 8 8 20 8 8 20 8 8 20 8 8 20 8 8 20 8 8 20 8 8 20 8 8 20 8 8 20 8 8 20 8 8 20 8 8 20 8 8 20 7 7 19 5 7 19 6 8 20 6 8 20 5 7 19 7 7 19 7 7 19 
9 11 26 8 10 25 9 11 26 9 11 26 9 11 26 10 12 27 8 10 25 10 12 27 9 11 26 9 11 26 8 10 25 8 10 25 8 10 25 8 10 25 8 10 25 8 10 25 8 10 25 8 10 25 8 10 25 8 10 25 8 10 25 8 10 25 8 9 27 8 10 25 8 10 25 8 10 25 8 10 25 8 9 27 8 10 23 9 11 26 8 10 23 8 10 23 7 9 24 7 9 22 7 9 22 8 10 25 7 9 22 8 10 23 7 9 22 8 10 23 8 10 23 7 9 22 7 9 22 7 9 22 7 9 22 7 9 22 7 9 22 7 9 22 7 9 22 7 9 22 7 9 22 7 9 22 8 7 21 9 8 22 10 9 23 10 9 23 9 8 22 9 8 22 8 7 21 9 8 22 9 8 22 9 8 24 9 8 22 9 8 22 9 8 22 9 8 22 8 8 20 9 9 21 9 9 21 9 9 21 9 9 21 9 9 21 9 9 21 8 8 20 8 8 20 8 8 20 8 8 20 8 8 20 8 8 20 8 8 20 8 8 20 8 8 20 8 8 20 8 8 20 8 8 20 8 8 20 8 8 20 8 8 20 8 8 20 8 8 20 8 8 20 8 8 20 6 8 20 4 6 18 8 8 20 7 7 19 7 7 19 8 8 20 8 8 20 8 8 20 
10 12 27 10 12 27 9 11 26 9 11 26 9 11 26 10 12 27 8 10 25 8 10 25 10 12 27 9 11 26 9 11 26 8 10 25 8 10 25 8 10 25 8 10 25 8 10 25 8 10 25 8 10 25 8 10 25 8 10 25 8 10 25 8 10 23 8 10 23 8 10 23 8 10 23 8 10 25 8 10 23 8 10 23 8 10 23 8 10 23 7 9 24 7 9 22 7 9 22 8 10 25 7 9 24 8 10 23 8 10 23 7 9 22 7 9 22 8 10 23 8 10 23 7 9 22 7 9 22 9 11 24 8 10 23 7 9 22 8 10 23 7 9 22 7 9 22 7 9 22 7 9 22 7 9 22 9 8 22 9 8 22 9 8 22 9 8 22 8 7 21 10 9 23 9 8 22 8 7 21 8 7 21 8 7 21 10 9 23 9 8 22 9 8 22 9 8 24 9 9 21 9 9 21 8 8 20 8 8 20 9 9 21 9 9 21 9 9 21 9 9 21 9 9 21 8 8 20 8 8 20 8 8 20 8 8 20 8 8 20 8 8 20 8 8 20 8 8 20 8 8 20 8 8 20 8 8 20 8 8 20 8 8 20 8 8 20 8 8 20 8 8 20 8 8 20 5 7 19 5 7 19 7 7 19 7 7 19 8 8 20 8 8 20 7 7 19 8 8 20 
10 12 27 8 10 25 8 10 25 10 12 27 9 11 26 10 12 27 9 11 26 9 11 26 8 10 25 9 11 26 9 11 26 9 11 26 8 10 25 8 10 25 8 10 25 8 10 25 8 10 25 8 10 25 8 10 25 8 10 25 8 10 23 8 10 23 8 10 25 8 10 23 8 10 23 8 10 23 8 10 23 8 10 25 8 10 25 8 10 23 8 10 23 8 10 25 7 9 22 7 9 22 7 9 22 7 9 22 8 10 23 7 9 22 9 11 24 8 10 23 8 10 23 7 9 22 7 9 22 7 9 22 7 9 22 8 10 23 7 9 22 7 9 22 7 9 22 7 9 22 7 9 22 7 9 22 9 8 22 9 8 22 11 10 24 9 8 22 8 7 21 8 7 21 9 8 22 9 8 22 8 7 21 9 8 22 10 9 23 9 8 22 8 7 21 10 9 23 8 8 20 9 9 21 9 9 21 9 9 21 9 9 21 9 9 21 9 9 21 9 9 21 8 8 20 8 8 20 8 8 20 8 8 20 8 8 20 8 8 20 8 8 20 8 8 20 8 8 20 8 8 20 8 8 20 8 8 20 8 8 20 8 8 20 8 8 20 8 8 20 8 8 20 8 8 20 6 8 20 5 7 19 7 7 19 7 7 19 7 7 19 8 8 20 7 7 19 7 7 19 
8 10 25 9 11 26 9 11 26 10 12 27 10 12 27 8 10 25 7 9 24 9 11 26 9 11 26 9 11 26 9 11 26 9 11 26 8 10 25 8 10 25 8 10 25 8 10 25 8 10 25 8 10 25 8 10 25 8 10 25 8 9 27 8 10 23 8 10 23 8 10 23 8 10 25 8 9 27 8 10 25 8 10 23 8 10 23 8 10 23 8 10 23 7 9 22 8 10 23 7 9 22 7 9 24 8 10 23 8 10 23 7 9 22 8 10 23 7 9 22 7 9 22 8 10 23 8 10 23 8 10 23 7 9 22 7 9 22 7 9 22 7 9 22 7 9 22 7 9 22 7 9 22 7 9 22 9 8 22 10 9 23 9 8 22 9 8 22 9 8 22 9 8 22 8 7 21 9 8 22 8 7 21 9 8 22 8 7 21 10 9 23 9 8 22 9 9 21 9 9 21 8 8 20 8 8 20 9 9 21 9 9 21 9 9 21 9 9 21 9 9 21 8 8 20 8 8 20 8 8 20 8 8 20 8 8 20 8 8 20 8 8 20 8 8 20 8 8 20 8 8 20 8 8 20 8 8 20 8 8 20 8 8 20 8 8 20 8 8 20 8 8 20 8 8 20 6 8 20 5 7 19 7 7 19 7 7 19 7 7 19 8 8 20 7 7 19 7 7 19 
8 10 25 7 9 24 8 10 25 9 11 26 8 10 25 9 11 26 9 11 26 10 12 27 9 11 26 9 11 26 8 10 25 9 11 26 8 10 25 8 10 25 8 10 25 8 10 25 8 10 25 8 10 25 8 10 25 8 10 25 8 10 23 8 10 25 8 10 25 8 10 25 8 10 23 8 10 23 8 10 23 8 10 25 8 10 23 7 9 24 8 10 23 8 10 23 8 10 23 7 9 22 8 10 23 8 10 23 8 10 23 7 9 22 7 9 22 8 10 23 7 9 22 8 10 23 7 9 22 7 9 22 7 9 22 7 9 22 7 9 22 7 9 22 7 9 22 7 9 22 7 9 22 7 9 22 9 8 22 10 9 23 9 8 22 8 7 21 8 7 21 9 8 22 8 7 21 10 9 23 10 9 23 10 9 23 8 7 21 9 8 22 9 8 22 9 9 21 9 9 21 9 9 21 9 9 21 8 8 20 9 9 21 9 9 21 9 9 21 8 8 20 8 8 20 8 8 20 8 8 20 8 8 20 8 8 20 8 8 20 8 8 20 8 8 20 8 8 20 8 8 20 8 8 20 8 8 20 8 8 20 8 8 20 8 8 20 8 8 20 8 8 20 8 8 20 7 9 21 5 7 19 7 7 19 7 7 19 9 9 21 7 7 19 7 7 19 7 7 19 
10 12 27 8 10 25 9 11 26 9 11 26 8 10 25 9 11 26 9 11 26 7 9 24 9 11 26 9 11 26 9 11 26 8 10 25 8 10 25 8 10 25 8 10 25 8 10 25 8 10 25 8 10 25 8 10 25 8 10 25 8 10 23 8 10 23 8 10 23 8 10 23 8 10 23 8 10 23 8 10 23 8 10 23 8 10 23 9 11 24 8 10 23 7 9 22 7 9 24 8 10 23 8 10 23 7 9 24 8 10 23 8 10 23 8 10 23 8 10 23 7 9 22 7 9 22 7 9 22 6 8 21 7 9 22 8 10 23 7 9 22 7 9 22 7 9 22 7 9 22 7 9 22 7 9 22 8 7 21 9 8 22 9 8 22 9 8 22 9 8 22 9 8 22 9 8 22 10 9 23 9 8 22 9 8 22 8 7 21 10 9 23 8 7 23 9 8 22 8 8 20 8 8 20 9 9 21 9 9 21 9 9 21 8 8 20 7 7 19 9 9 21 8 8 20 8 8 20 8 8 20 8 8 20 8 8 20 8 8 20 8 8 20 8 8 20 8 8 20 8 8 20 8 8 20 8 8 20 8 8 20 8 8 20 8 8 20 8 8 20 8 8 20 8 8 20 7 9 21 5 7 19 7 7 19 7 7 19 7 7 19 7 7 19 7 7 19 7 7 19 
9 11 26 8 10 25 9 11 26 10 12 27 9 11 26 9 11 26 9 11 26 9 11 26 8 10 25 8 10 25 8 10 25 9 11 26 8 10 25 8 10 25 8 10 25 8 10 25 8 10 25 8 10 25 8 10 25 8 10 25 8 10 23 8 10 23 8 10 23 8 10 23 8 10 23 8 10 23 8 10 23 8 10 23 8 10 23 7 9 24 7 9 24 8 10 23 8 10 23 8 10 25 8 10 23 7 9 22 7 9 22 8 10 23 7 9 22 7 9 22 7 9 22 8 10 23 8 10 23 8 10 23 8 10 23 7 9 22 8 10 23 7 9 22 7 9 22 7 9 22 7 9 22 7 9 22 9 8 22 9 8 22 10 9 23 9 8 22 8 7 21 10 9 23 9 8 22 9 8 22 9 8 22 9 8 22 9 8 22 9 8 22 9 8 22 10 9 23 9 9 21 10 10 22 10 10 22 9 9 21 9 9 21 7 7 19 8 8 20 8 8 20 7 7 19 8 8 20 8 8 20 8 8 20 8 8 20 8 8 20 8 8 20 8 8 20 8 8 20 8 8 20 8 8 20 8 8 20 8 8 20 8 8 20 8 8 20 8 8 20 8 8 20 8 8 20 5 7 19 5 7 19 7 7 19 7 7 19 7 7 19 8 8 20 7 7 19 7 7 19 
8 10 25 8 10 25 8 10 25 9 11 26 9 11 26 8 10 25 9 11 26 9 11 26 8 10 25 8 10 25 9 11 26 8 10 25 8 10 25 8 10 25 8 10 25 8 10 25 8 10 25 8 10 25 8 10 25 8 10 25 8 10 23 8 10 23 8 10 23 8 10 23 8 10 23 8 10 23 8 10 23 8 10 23 8 10 25 7 9 22 8 10 23 7 9 24 8 10 23 7 9 22 8 10 25 7 9 22 9 11 24 8 10 23 7 9 22 7 9 22 8 10 23 7 9 22 7 9 22 8 10 23 7 9 22 7 9 22 7 9 22 7 9 22 7 9 22 7 9 22 7 9 22 7 9 22 10 9 23 9 8 22 9 8 22 9 8 22 9 8 22 9 8 22 9 8 22 8 7 21 8 8 20 9 8 22 8 7 21 9 8 22 9 9 21 10 10 22 9 9 21 8 8 20 8 8 20 8 8 20 9 9 21 9 9 21 8 8 20 8 8 20 8 8 20 8 8 20 8 8 20 8 8 20 8 8 20 8 8 20 8 8 20 8 8 20 8 8 20 8 8 20 8 8 20 8 8 20 8 8 20 8 8 20 8 8 20 8 8 20 8 8 20 8 8 20 5 7 19 6 8 20 7 7 19 7 7 19 7 7 19 7 7 19 7 7 19 7 7 19 
8 10 25 9 11 26 10 9 25 9 11 26 9 11 26 9 11 26 8 10 25 9 11 26 8 10 25 8 10 25 8 10 23 8 10 23 8 10 25 8 10 25 8 10 25 8 10 25 8 10 23 8 10 23 8 10 23 8 10 23 8 10 23 8 10 23 9 11 24 8 10 23 8 10 25 8 10 25 8 10 23 9 11 26 8 10 23 7 9 22 8 10 23 7 9 22 6 8 21 8 10 23 7 9 22 8 10 23 8 10 23 8 10 23 8 10 23 8 10 23 7 9 22 7 9 22 7 9 22 7 9 22 9 8 22 9 8 22 9 8 22 9 8 22 8 8 20 9 9 21 9 8 22 10 9 25 10 9 23 8 7 21 9 9 21 8 7 21 9 8 24 8 7 21 9 8 22 9 8 22 9 8 22 9 8 22 8 7 23 9 9 21 9 9 21 9 9 21 9 9 21 8 8 20 9 9 21 8 8 20 8 8 20 8 8 20 8 8 20 8 8 20 8 8 20 8 8 20 8 8 20 8 8 20 8 8 20 8 8 20 8 8 20 8 8 20 8 8 20 8 8 20 8 8 20 8 8 20 8 8 20 8 8 20 8 8 20 8 8 20 8 8 20 7 7 19 8 8 20 7 7 19 7 7 19 7 7 19 7 7 19 7 7 19 7 7 19 7 7 19 
9 11 26 10 12 27 9 11 26 8 10 25 9 11 26 9 11 26 9 11 26 8 10 25 8 10 25 8 10 23 8 10 25 9 11 24 8 10 25 8 10 25 8 10 25 8 10 25 8 10 25 8 10 23 8 10 23 8 10 23 8 10 23 8 10 23 8 10 23 8 10 23 8 10 23 8 10 23 9 11 24 8 10 23 7 9 22 8 10 23 7 9 22 8 10 23 8 10 23 8 10 23 7 9 22 7 9 22 8 10 23 8 10 23 8 10 23 8 10 23 7 9 22 7 9 22 7 9 22 7 9 22 10 9 23 9 8 22 9 8 22 9 8 22 9 8 22 9 8 22 9 8 22 9 8 22 9 8 22 9 9 21 9 8 22 9 8 24 9 8 22 8 7 21 9 9 21 9 8 22 9 8 22 8 7 21 9 8 24 8 8 20 10 10 22 8 8 20 8 8 20 8 8 20 8 8 20 8 8 20 8 8 20 8 8 20 8 8 20 8 8 20 8 8 20 8 8 20 8 8 20 8 8 20 8 8 20 8 8 20 8 8 20 8 8 20 8 8 20 8 8 20 8 8 20 8 8 20 8 8 20 8 8 20 8 8 20 8 8 20 8 8 20 7 7 19 8 8 20 7 7 19 7 7 19 7 7 19 7 7 19 7 7 19 7 7 19 7 7 19 
11 10 26 11 10 26 9 11 26 11 10 26 9 11 26 8 10 25 9 11 26 8 10 25 9 11 26 8 10 25 8 10 23 8 10 23 9 11 26 8 10 25 8 10 25 8 10 23 9 11 26 8 10 25 8 10 25 8 10 23 8 10 23 8 10 25 7 9 22 9 11 24 9 11 26 7 9 22 7 9 22 8 10 23 7 9 22 7 9 22 8 10 23 7 9 22 7 9 22 8 10 23 7 9 22 7 9 22 8 10 23 8 10 23 8 10 23 8 10 23 7 9 22 7 9 22 7 9 22 7 9 22 10 9 23 9 8 22 9 8 22 9 8 22 9 8 22 9 8 22 9 8 22 8 7 21 9 8 22 8 8 20 10 9 23 8 7 21 9 8 24 8 7 21 9 9 21 8 7 21 9 8 22 8 7 21 9 8 22 8 8 20 9 9 21 10 10 22 8 8 20 8 8 20 9 9 21 9 9 21 8 8 20 8 8 20 8 8 20 8 8 20 8 8 20 8 8 20 8 8 20 8 8 20 8 8 20 8 8 20 8 8 20 8 8 20 8 8 20 8 8 20 8 8 20 8 8 20 8 8 20 8 8 20 8 8 20 8 8 20 8 8 20 7 7 19 7 7 19 7 7 19 7 7 17 7 7 19 7 7 19 7 7 19 7 7 19 7 7 19 
9 11 26 9 11 26 9 11 26 8 10 25 8 10 25 8 10 25 9 11 26 9 11 26 9 11 26 8 10 23 9 11 26 8 10 23 9 11 26 8 10 25 8 10 25 8 10 25 9 11 26 8 10 25 8 10 25 8 10 25 8 10 25 8 10 25 9 11 26 7 9 22 7 9 24 8 10 25 9 11 24 7 9 24 7 9 22 7 9 22 8 10 23 7 9 22 7 9 22 8 10 23 8 10 23 7 9 22 8 10 23 8 10 23 8 10 23 8 10 23 7 9 22 7 9 22 7 9 22 7 9 22 9 8 22 9 8 22 9 8 22 9 8 22 9 8 22 9 8 22 9 8 22 9 8 22 9 8 22 8 7 21 8 7 21 8 7 21 9 8 22 8 8 20 9 8 22 8 8 20 8 7 21 9 8 22 9 8 22 9 9 21 9 9 21 9 9 21 9 9 21 8 8 20 8 8 20 8 8 20 8 8 20 8 8 20 8 8 20 8 8 20 8 8 20 8 8 20 8 8 20 8 8 20 8 8 20 8 8 20 8 8 20 8 8 20 8 8 20 8 8 20 8 8 20 8 8 20 8 8 20 8 8 20 8 8 20 8 8 20 7 7 19 7 7 19 7 7 19 7 7 19 7 7 19 7 7 19 7 7 19 7 7 19 7 7 19 7 7 19 
8 10 25 9 11 26 9 11 26 8 10 25 9 11 26 8 10 25 8 10 25 9 11 26 8 10 25 9 11 24 9 11 26 8 10 23 9 11 26 8 10 25 8 10 25 8 10 25 9 11 26 8 10 25 8 10 23 8 10 23 8 10 23 9 11 24 9 11 24 8 10 23 8 10 23 8 10 23 8 10 23 7 9 22 7 9 22 7 9 22 8 10 23 8 10 23 10 12 25 8 10 23 8 10 23 7 9 22 7 9 22 7 9 22 7 9 22 7 9 22 7 9 22 7 9 22 7 9 22 7 9 22 9 8 22 9 8 22 9 8 22 9 8 22 9 8 22 9 8 22 9 8 22 10 9 23 9 8 22 9 8 22 9 8 22 9 8 22 9 9 21 8 8 20 9 8 22 9 8 22 8 7 21 9 8 22 8 7 21 9 9 21 9 9 21 9 9 21 8 8 20 7 7 19 8 8 20 8 8 20 8 8 20 8 8 20 8 8 20 8 8 20 8 8 20 8 8 20 8 8 20 8 8 20 8 8 20 8 8 20 8 8 20 8 8 20 8 8 20 8 8 20 8 8 20 8 8 20 8 8 20 8 8 20 8 8 20 7 7 19 7 7 19 7 7 19 7 7 19 7 7 19 7 7 19 7 7 19 7 7 19 7 7 19 7 7 19 7 7 19 
8 10 25 9 11 26 10 9 25 9 11 26 8 10 25 8 10 25 9 11 26 9 11 26 8 10 25 9 11 26 8 10 23 8 10 23 9 11 24 8 10 25 8 10 25 8 10 25 9 11 24 8 10 23 8 10 23 8 10 23 8 10 23 8 10 23 7 9 22 9 11 24 8 10 23 8 10 22 8 10 23 9 11 23 6 8 21 7 9 22 7 9 22 8 10 23 7 9 22 8 10 23 7 9 22 8 10 23 7 9 22 7 9 22 7 9 22 7 9 22 7 9 22 7 9 22 7 9 22 7 9 22 9 8 22 9 8 22 9 8 22 9 8 22 9 8 22 9 8 22 9 8 22 9 8 22 10 9 23 9 9 21 9 9 21 9 9 21 8 7 21 9 8 22 9 8 22 9 8 24 8 7 21 9 8 22 9 9 21 9 9 21 9 9 21 8 8 20 9 9 21 8 8 20 9 9 21 9 9 21 8 8 20 8 8 20 8 8 20 8 8 20 8 8 20 8 8 20 8 8 20 8 8 20 8 8 20 8 8 20 8 8 20 8 8 20 8 8 20 8 8 20 8 8 20 8 8 20 8 8 20 8 8 20 8 8 20 7 7 19 7 7 19 7 7 19 7 7 19 7 7 19 7 7 17 7 7 19 7 7 19 7 7 19 7 7 19 7 7 17 
10 12 27 9 11 26 9 11 26 9 11 26 9 11 26 9 11 26 8 10 25 8 10 25 8 10 25 8 10 23 8 10 25 9 11 24 8 10 23 8 10 23 8 10 23 8 10 23 8 10 23 8 10 23 8 10 23 8 10 23 8 10 25 8 10 22 8 10 25 8 10 25 8 10 23 8 10 25 8 10 25 7 9 22 8 10 23 7 9 22 7 9 22 7 9 22 7 9 22 7 9 22 8 10 23 7 9 22 7 9 22 7 9 22 7 9 22 7 9 22 7 9 22 7 9 22 7 9 22 7 9 22 9 8 22 9 8 22 9 8 22 9 8 22 9 8 22 9 8 22 9 8 22 9 8 22 9 8 22 9 9 21 8 7 21 9 9 21 8 7 21 9 9 21 8 7 21 9 8 22 9 8 22 9 8 22 8 8 20 8 8 20 8 8 20 10 10 22 9 9 21 9 9 21 8 8 20 8 8 20 8 8 20 8 8 20 8 8 20 8 8 20 8 8 20 8 8 20 8 8 20 8 8 20 8 8 20 8 8 20 8 8 20 8 8 20 8 8 20 8 8 20 8 8 20 8 8 20 8 8 20 8 8 20 8 8 20 7 7 19 7 7 19 7 7 19 7 7 19 7 7 17 7 7 19 7 7 17 7 7 19 7 7 19 7 7 17 8 8 20 
9 11 26 8 10 25 9 11 26 11 10 26 9 11 26 9 11 26 9 11 26 8 10 25 9 11 26 8 10 25 8 10 23 8 10 23 8 10 23 8 10 23 8 10 23 8 10 23 8 10 23 8 10 23 8 10 23 8 10 22 9 11 24 8 10 23 8 10 23 7 9 24 8 10 23 8 10 23 7 9 24 7 9 22 8 10 23 8 10 23 7 9 22 8 10 23 8 10 23 7 9 22 7 9 22 8 10 23 7 9 22 7 9 22 7 9 22 7 9 22 7 9 22 7 9 22 7 9 22 7 9 22 9 8 22 9 8 22 9 8 22 9 8 22 9 8 24 9 8 24 9 8 22 9 9 21 10 9 23 8 7 21 9 9 21 9 9 21 9 8 22 8 8 20 8 7 21 9 9 21 9 8 22 9 8 22 8 8 18 9 9 21 8 8 20 8 8 20 8 8 20 9 9 21 9 9 21 8 8 20 8 8 20 8 8 20 8 8 20 8 8 20 8 8 20 8 8 20 8 8 20 8 8 20 8 8 20 8 8 20 8 8 20 8 8 20 8 8 20 8 8 20 8 8 20 8 8 20 8 8 20 8 8 20 8 8 20 7 7 19 7 7 19 7 7 19 7 7 19 7 7 19 7 7 17 7 7 17 7 7 19 7 7 19 7 7 19 8 8 18 
9 11 26 9 11 26 9 11 26 9 11 26 9 11 26 9 11 26 8 10 25 8 10 23 8 10 23 8 10 25 8 10 25 8 10 25 9 11 26 8 10 25 9 11 26 9 11 24 9 11 24 8 10 23 8 10 25 8 10 25 8 10 23 7 9 22 8 10 23 8 10 23 8 10 23 8 10 23 8 10 23 7 9 22 8 10 23 7 9 22 7 9 22 7 9 22 7 9 22 7 9 22 7 9 22 8 10 23 7 9 22 7 9 22 7 9 22 7 9 22 7 9 22 7 9 22 7 9 22 7 9 22 9 8 22 10 9 23 8 7 21 8 7 21 9 8 22 9 8 22 9 8 22 10 9 23 8 7 21 8 7 21 8 7 21 9 8 22 9 8 22 9 8 22 8 7 21 9 8 22 7 9 24 6 8 21 6 8 21 8 8 20 9 9 21 9 9 21 8 8 20 8 8 20 8 8 20 8 8 20 8 8 20 8 8 20 8 8 20 8 8 20 8 8 20 8 8 20 7 7 19 8 8 20 8 8 20 8 8 20 8 8 20 7 7 19 8 8 20 8 8 20 8 8 20 8 8 20 7 7 19 8 8 20 7 7 19 7 7 19 6 6 18 7 7 17 7 7 19 7 7 19 7 7 19 7 7 19 7 7 19 7 7 19 7 7 19 7 7 19 
9 11 26 9 11 26 9 11 26 9 11 26 8 10 25 8 10 25 8 10 25 8 10 23 8 10 23 8 10 25 8 10 25 8 10 25 9 11 24 8 10 23 8 10 23 8 10 23 8 10 23 9 11 24 8 10 23 7 9 22 10 12 25 8 10 23 8 10 23 8 10 23 9 11 24 8 10 23 8 10 23 7 9 22 7 9 22 8 10 23 7 9 22 7 9 22 7 9 22 7 9 22 8 10 23 7 9 22 7 9 22 7 9 22 7 9 22 7 9 22 7 9 22 7 9 22 7 9 22 7 9 22 10 9 23 10 9 23 9 8 22 9 8 22 9 8 22 9 8 22 10 9 23 9 8 22 9 8 22 7 6 20 7 6 20 9 8 22 9 8 22 9 8 22 8 7 21 9 8 22 7 9 22 7 9 22 7 9 21 9 9 21 8 8 20 9 9 21 8 8 20 9 9 21 8 8 20 8 8 20 8 8 20 8 8 20 8 8 20 8 8 20 8 8 20 8 8 20 8 8 20 8 8 20 8 8 20 8 8 20 8 8 20 8 8 20 8 8 20 8 8 20 8 8 20 8 8 20 8 8 20 8 8 20 7 7 19 7 7 19 7 7 19 8 8 18 7 7 19 7 7 19 7 7 19 7 7 19 7 7 19 7 7 19 7 7 19 7 7 19 
9 11 26 9 11 26 9 11 26 9 11 26 8 10 25 8 10 25 8 10 25 8 10 23 8 10 23 8 10 25 8 10 25 8 10 25 9 11 26 8 10 23 8 10 23 8 10 22 8 10 23 8 10 23 7 9 22 8 10 23 8 10 23 8 10 23 8 10 23 8 10 23 8 10 23 8 10 23 8 10 23 7 9 22 7 9 22 7 9 22 7 9 22 8 10 23 8 10 23 7 9 22 7 9 22 7 9 22 7 9 22 7 9 22 7 9 22 7 9 22 7 9 22 7 9 22 7 9 22 7 9 22 9 8 22 9 8 22 9 8 22 10 9 23 9 8 22 9 8 22 9 8 22 8 7 21 9 8 22 8 7 21 8 7 21 9 8 22 8 7 21 9 8 22 8 7 21 8 7 21 6 8 21 6 8 20 6 8 20 8 8 20 8 8 20 8 8 20 8 8 20 8 8 20 8 8 20 8 8 20 8 8 20 8 8 20 8 8 20 8 8 20 8 8 20 8 8 20 8 8 20 8 8 20 8 8 20 8 8 20 8 8 20 8 8 20 8 8 20 8 8 20 8 8 20 8 8 20 8 8 20 8 8 20 8 8 20 7 7 19 7 7 19 7 7 17 7 7 19 7 7 19 7 7 19 7 7 19 7 7 19 7 7 19 7 7 19 7 7 19 
9 11 26 9 11 26 9 11 26 9 11 26 8 10 25 8 10 25 8 10 25 8 10 23 8 10 23 8 10 25 8 10 25 8 10 25 8 10 25 8 10 23 8 10 23 8 10 23 8 10 25 7 9 24 8 10 25 8 10 23 8 10 23 9 11 24 8 10 23 7 9 22 8 10 23 7 9 22 8 10 23 7 9 22 7 9 22 7 9 22 7 9 22 7 9 22 7 9 22 7 9 22 7 9 22 7 9 22 7 9 22 7 9 22 7 9 22 7 9 22 7 9 22 7 9 22 7 9 22 7 9 22 9 8 22 9 8 22 9 8 22 8 7 21 9 8 22 8 7 21 9 8 22 8 7 21 8 7 21 8 7 21 8 7 21 9 8 22 8 7 21 8 7 21 8 7 21 9 8 22 6 8 20 6 8 20 8 8 20 8 8 20 8 8 20 8 8 20 8 8 20 9 9 21 8 8 20 8 8 20 8 8 20 8 8 20 8 8 20 8 8 20 8 8 20 8 8 20 8 8 20 8 8 20 7 7 19 8 8 20 8 8 20 8 8 20 8 8 20 7 7 19 8 8 20 8 8 20 8 8 20 8 8 20 8 8 20 7 7 19 7 7 19 7 7 17 7 7 19 7 7 19 7 7 19 7 7 19 7 7 19 7 7 19 7 7 19 7 7 19 
8 10 25 8 10 25 8 10 25 8 10 25 9 11 24 9 11 24 8 10 23 8 10 25 8 10 25 8 10 23 8 10 23 8 10 23 9 11 24 8 10 25 9 11 26 8 10 25 7 9 22 8 10 23 8 10 23 8 10 25 7 9 22 8 10 23 8 10 23 8 10 23 8 10 23 7 9 22 8 10 23 8 10 23 7 9 22 7 9 22 7 9 22 7 9 22 7 9 22 7 9 22 7 9 22 7 9 22 7 9 22 7 9 22 7 9 22 7 9 22 7 9 22 7 9 22 7 9 22 7 9 22 9 8 22 9 8 22 9 8 22 9 8 22 8 7 21 9 8 22 8 7 21 8 7 21 8 7 21 9 8 22 9 8 22 9 8 22 8 7 21 8 7 21 8 7 21 8 7 21 8 10 22 8 8 20 8 8 20 8 8 20 9 9 21 9 9 21 8 8 20 8 8 20 8 8 20 8 8 20 8 8 20 8 8 20 8 8 20 8 8 20 8 8 20 8 8 20 8 8 20 8 8 20 8 8 20 8 8 20 7 7 19 8 8 20 7 7 19 8 8 20 8 8 20 8 8 20 8 8 20 8 8 20 7 7 19 7 7 19 7 7 19 7 7 17 7 7 19 7 7 19 7 7 19 7 7 19 7 7 19 7 7 19 7 7 19 7 7 19 
8 10 25 8 10 25 8 10 25 8 10 25 10 12 25 9 11 24 8 10 23 8 10 25 8 10 25 8 10 23 8 10 23 8 10 23 9 11 23 9 11 26 8 10 25 8 10 25 7 9 22 8 10 25 8 10 23 8 10 23 9 11 24 9 11 24 7 9 22 8 10 23 7 9 22 8 10 23 7 9 22 7 9 22 8 10 23 7 9 22 7 9 22 7 9 22 7 9 22 7 9 22 7 9 22 8 10 23 7 9 22 7 9 22 7 9 22 7 9 22 7 9 22 7 9 22 7 9 22 7 9 22 7 6 20 8 7 21 9 8 22 9 8 22 10 9 23 10 9 23 9 8 22 8 7 21 7 6 20 8 7 21 8 7 21 9 8 22 9 8 22 9 8 22 8 7 21 8 7 21 6 8 20 8 8 20 8 8 20 8 8 20 8 8 20 8 8 20 8 8 20 8 8 20 8 8 20 8 8 20 8 8 20 8 8 20 8 8 20 8 8 20 8 8 20 8 8 20 8 8 20 8 8 20 8 8 20 8 8 20 8 8 20 8 8 20 8 8 20 8 8 20 8 8 20 8 8 20 7 7 19 8 8 20 7 7 19 8 8 20 7 7 19 7 7 17 7 7 19 7 7 19 7 7 19 7 7 19 7 7 19 7 7 19 7 7 19 7 7 19 
8 10 25 8 10 25 8 10 25 8 10 25 9 11 24 8 10 23 8 10 23 8 10 25 8 10 25 8 10 23 8 10 23 8 10 23 8 10 23 8 10 23 8 10 23 8 10 23 8 10 23 8 10 23 7 9 22 8 10 23 8 10 23 8 10 23 8 10 23 8 10 23 7 9 22 8 10 23 7 9 22 8 10 23 7 9 22 7 9 22 8 10 23 7 9 22 7 9 22 8 10 23 7 9 22 7 9 22 7 9 22 7 9 22 7 9 22 7 9 22 7 9 22 7 9 22 7 9 22 7 9 22 9 8 22 9 8 22 9 8 22 9 8 22 9 8 22 9 8 22 8 7 21 8 7 21 8 7 21 8 7 21 8 7 21 8 7 21 8 7 21 8 7 21 8 7 21 8 7 21 8 8 20 8 8 20 8 8 20 8 8 20 8 8 20 9 9 21 8 8 20 9 9 21 8 8 20 8 8 20 8 8 20 8 8 20 8 8 20 8 8 20 8 8 20 8 8 20 8 8 20 8 8 20 8 8 20 8 8 20 8 8 20 8 8 20 8 8 20 8 8 20 8 8 20 8 8 20 7 7 19 8 8 20 7 7 19 8 8 20 7 7 19 7 7 17 7 7 19 7 7 19 7 7 19 7 7 19 7 7 19 7 7 19 7 7 19 7 7 19 
8 10 25 8 10 25 8 10 25 8 10 25 8 10 23 8 10 23 8 10 23 8 10 25 8 10 25 8 10 23 8 10 23 8 10 23 9 11 24 8 10 23 8 10 23 7 9 24 7 9 24 8 10 25 8 10 23 7 9 22 8 10 23 7 9 22 8 10 23 8 10 23 7 9 22 7 9 22 7 9 22 8 10 23 7 9 22 7 9 22 7 9 22 8 10 23 8 10 23 7 9 22 7 9 22 7 9 22 7 9 22 7 9 22 7 9 22 7 9 22 7 9 22 7 9 22 7 9 22 7 9 22 9 8 22 9 8 22 9 8 22 9 8 22 9 8 22 9 8 22 8 7 21 8 7 21 7 6 20 8 7 21 8 7 21 8 7 21 8 7 21 8 7 21 10 9 23 8 7 21 8 8 20 7 7 19 8 8 20 8 8 20 8 8 20 8 8 20 8 8 20 6 8 20 8 8 20 8 8 20 8 8 20 8 8 20 8 8 20 8 8 20 8 8 20 8 8 20 8 8 20 7 7 19 8 8 20 7 7 19 8 8 20 8 8 20 8 8 20 8 8 20 8 8 20 8 8 20 7 7 19 7 7 19 6 6 18 7 7 19 7 7 19 6 6 16 7 7 19 7 7 19 7 7 19 7 7 19 7 7 19 7 7 19 7 7 19 7 7 19 
9 11 26 8 9 27 8 10 25 8 10 25 8 10 23 8 10 23 8 10 23 8 10 23 8 10 23 8 10 23 8 10 23 8 10 23 8 10 23 8 10 25 8 10 23 8 10 23 8 10 23 7 9 22 8 10 23 8 10 23 8 10 23 8 10 23 8 10 23 8 10 23 8 10 23 7 9 22 7 9 22 7 9 22 8 10 23 7 9 22 8 10 23 8 10 23 7 9 22 7 9 22 7 9 22 7 9 22 7 9 22 9 8 22 7 9 22 7 9 22 9 8 22 9 8 22 7 9 22 9 8 22 9 8 22 10 9 23 8 7 21 10 9 23 9 8 22 9 8 22 8 7 21 9 8 22 8 8 20 8 7 21 8 7 21 8 8 20 8 7 21 8 7 21 8 7 21 8 7 21 8 8 20 8 8 20 8 8 20 8 8 20 8 8 20 8 8 20 8 8 20 8 8 20 8 8 20 8 8 20 8 8 20 8 8 20 8 8 20 8 8 20 8 8 20 8 8 20 8 8 20 8 8 20 8 8 20 8 8 20 8 8 20 8 8 20 8 8 20 8 8 20 9 9 21 8 8 20 7 7 19 7 7 19 7 7 19 7 7 19 7 7 19 7 7 19 7 7 19 7 7 19 7 7 19 7 7 19 7 7 19 7 7 19 7 7 19 7 7 19 
11 13 28 9 11 26 9 11 26 9 11 24 10 9 23 8 10 23 8 10 23 10 9 23 8 10 23 8 10 23 8 10 23 8 10 23 8 10 23 8 10 23 7 9 22 7 9 22 9 11 24 8 10 23 7 9 24 7 9 22 6 8 21 7 9 22 8 10 23 7 9 22 7 9 22 7 9 22 7 9 22 7 9 22 7 9 22 9 11 24 7 9 22 7 9 22 8 10 23 7 9 22 7 9 22 7 9 22 9 8 22 7 9 22 9 8 22 9 8 22 7 9 22 7 9 22 9 8 22 7 9 22 9 8 22 9 8 22 9 8 22 9 8 22 9 8 22 8 7 21 8 7 21 8 7 21 8 8 20 8 7 21 8 7 21 8 7 21 8 7 21 8 7 21 8 7 21 8 7 21 8 8 20 8 8 20 8 8 20 8 8 20 8 8 20 8 8 20 8 8 20 8 8 20 8 8 20 8 8 20 8 8 20 8 8 20 8 8 20 8 8 20 8 8 20 8 8 20 8 8 20 7 7 19 8 8 20 8 8 20 7 7 19 8 8 20 7 7 19 7 7 19 8 8 20 8 8 20 7 7 19 7 7 19 7 7 19 7 7 19 7 7 19 7 7 19 7 7 19 7 7 19 7 7 19 7 7 19 7 7 19 7 7 19 7 7 19 7 7 19 
8 10 25 8 10 25 8 10 25 8 10 23 8 10 23 8 10 23 8 10 23 8 10 23 8 10 23 8 10 23 8 10 23 8 10 23 7 9 24 8 10 23 8 10 25 8 10 22 6 8 21 8 10 23 8 10 23 8 10 23 7 9 22 7 9 22 7 9 22 7 9 22 7 9 22 7 9 22 7 9 22 7 9 22 8 10 23 6 8 21 8 10 23 8 10 23 7 9 22 7 9 22 7 9 22 7 9 22 9 8 22 7 9 22 9 8 22 9 9 21 7 9 22 7 9 21 9 9 21 7 9 21 9 8 22 8 7 21 10 9 23 8 7 21 9 8 22 8 7 21 8 7 21 8 7 21 8 8 20 8 7 21 8 7 21 8 7 21 8 7 21 8 7 21 8 8 20 8 8 20 8 8 20 8 8 20 8 8 20 8 8 20 8 8 20 8 8 20 8 8 20 8 8 20 8 8 20 8 8 20 8 8 20 8 8 20 8 8 20 8 8 20 8 8 20 8 8 20 8 8 20 7 7 19 8 8 20 8 8 20 8 8 20 8 8 20 8 8 20 8 8 20 8 8 20 8 8 20 7 7 19 7 7 19 7 7 19 7 7 19 7 7 19 7 7 19 7 7 19 7 7 19 7 7 19 7 7 19 7 7 19 7 7 19 7 7 19 7 7 19 
8 10 23 8 10 25 8 10 23 8 10 25 8 10 23 8 10 23 8 10 23 8 10 23 8 10 23 8 10 23 10 9 23 8 10 23 8 10 23 7 9 22 7 9 22 7 9 22 7 9 22 7 9 22 9 11 26 8 10 23 8 10 23 8 10 23 7 9 22 7 9 22 7 9 22 6 8 21 7 9 22 7 9 22 7 9 22 8 10 23 7 9 22 7 9 22 7 9 22 7 9 22 7 9 22 7 9 22 9 8 22 7 9 22 9 8 22 9 8 22 7 9 22 7 9 22 9 8 22 7 9 22 9 8 22 9 8 22 9 8 22 9 8 22 8 7 21 8 7 21 9 8 22 9 8 22 8 8 20 8 7 21 8 7 21 8 7 21 8 7 21 8 7 21 8 8 20 8 8 20 8 8 20 8 8 20 8 8 20 8 8 20 8 8 20 8 8 20 8 8 20 8 8 20 8 8 20 8 8 20 8 8 20 8 8 20 8 8 20 8 8 20 8 8 20 8 8 20 8 8 20 9 9 21 8 8 20 7 7 19 8 8 20 8 8 20 8 8 20 8 8 20 8 8 20 7 7 19 7 7 19 7 7 19 7 7 19 7 7 19 7 7 19 7 7 19 7 7 19 7 7 19 7 7 19 7 7 19 7 7 19 7 7 19 7 7 19 7 7 19 
8 10 25 8 10 25 9 11 24 8 10 23 10 9 23 8 10 23 8 10 23 10 9 23 8 10 23 8 10 23 8 10 23 8 10 23 7 9 24 8 10 23 7 9 22 8 10 23 8 10 22 8 10 23 8 10 25 8 10 23 8 10 23 8 10 23 7 9 22 7 9 22 8 10 23 8 10 23 8 10 23 7 9 22 7 9 22 7 9 22 7 9 22 7 9 22 7 9 22 7 9 22 7 9 22 7 9 22 7 9 22 9 8 22 7 9 22 7 9 22 9 8 22 9 8 22 7 9 22 9 8 22 8 7 21 8 7 21 9 8 22 9 8 22 8 7 21 8 7 21 8 7 21 8 7 21 8 7 21 8 7 21 8 7 21 8 7 21 8 7 21 8 8 20 8 8 20 8 8 20 8 8 20 8 8 20 8 8 20 8 8 20 8 8 20 8 8 20 8 8 20 8 8 20 8 8 20 8 8 20 8 8 20 8 8 20 8 8 20 8 8 20 8 8 20 8 8 20 8 8 20 8 8 20 7 7 19 7 7 19 8 8 20 7 7 19 7 7 19 8 8 20 7 7 19 7 7 19 7 7 19 7 7 19 7 7 19 7 7 19 7 7 19 7 7 19 7 7 19 7 7 19 7 7 19 7 7 19 7 7 19 7 7 19 7 7 19 7 7 19 
7 9 24 8 10 23 7 9 24 8 10 23 8 10 23 8 10 23 8 10 23 8 10 23 8 10 23 8 10 23 8 10 23 8 10 23 9 11 24 7 9 24 8 10 23 7 9 22 8 10 23 7 9 22 8 10 23 8 10 23 8 10 23 7 9 22 7 9 22 7 9 22 7 9 22 8 10 23 7 9 22 7 9 22 7 9 22 7 9 22 7 9 22 7 9 22 7 9 22 7 9 22 7 9 22 7 9 22 7 9 22 9 8 22 7 9 22 7 9 22 9 9 21 9 9 21 7 9 21 9 9 21 9 8 22 9 8 22 9 8 22 9 8 22 8 7 21 8 7 21 8 7 21 8 7 21 8 7 21 8 7 21 8 7 21 8 8 20 8 7 21 8 8 20 8 8 20 8 8 20 8 8 20 8 8 20 8 8 20 8 8 20 8 8 20 8 8 20 8 8 20 8 8 20 8 8 20 8 8 20 8 8 20 8 8 20 8 8 20 8 8 20 8 8 20 8 8 20 8 8 20 8 8 20 7 7 19 7 7 19 7 7 19 8 8 20 8 8 20 8 8 20 7 7 19 7 7 19 7 7 19 7 7 19 7 7 19 7 7 19 7 7 19 7 7 19 7 7 19 7 7 19 7 7 19 7 7 19 7 7 19 7 7 19 7 7 19 7 7 19 
8 10 23 8 10 23 8 10 23 8 10 23 8 10 23 8 10 23 10 9 23 8 10 23 8 10 23 8 10 23 10 9 23 8 10 23 8 10 23 8 10 23 7 9 22 8 10 23 7 9 22 7 9 22 7 9 24 8 10 23 7 9 22 7 9 22 8 10 23 8 10 23 7 9 22 7 9 22 6 8 21 8 10 23 7 9 22 7 9 22 7 9 22 7 9 22 7 9 22 7 9 22 7 9 22 7 9 22 7 9 22 9 8 22 7 9 22 7 9 22 9 8 22 9 8 22 7 9 22 9 8 22 9 8 22 9 8 22 9 8 22 8 7 21 8 7 21 8 7 21 8 7 21 8 7 21 8 7 21 8 7 21 8 7 21 8 7 21 8 8 20 8 8 20 8 8 20 8 8 20 8 8 20 8 8 20 8 8 20 8 8 20 8 8 20 8 8 20 8 8 20 8 8 20 8 8 20 8 8 20 8 8 20 8 8 20 8 8 20 8 8 20 8 8 20 8 8 20 8 8 20 8 8 20 7 7 19 7 7 19 8 8 20 8 8 20 7 7 19 7 7 19 7 7 19 7 7 19 7 7 19 7 7 19 7 7 19 7 7 19 7 7 19 7 7 19 7 7 19 7 7 19 7 7 19 7 7 19 7 7 19 7 7 19 7 7 19 7 7 19 
8 10 25 8 10 25 8 10 23 8 10 23 8 10 23 8 10 23 8 10 23 8 10 23 8 10 23 8 10 23 8 10 23 8 10 23 7 9 22 8 10 23 7 9 24 7 9 21 7 9 22 8 10 23 7 9 22 7 9 22 7 9 22 8 10 23 7 9 22 8 10 23 7 9 22 7 9 22 7 9 22 7 9 22 7 9 22 7 9 22 7 9 22 7 9 22 7 9 22 7 9 22 7 9 22 7 9 22 9 8 22 7 9 22 9 8 22 9 8 22 7 9 22 7 9 22 9 8 22 7 9 22 8 7 21 9 8 22 8 7 21 8 7 21 8 7 21 8 7 21 8 7 21 8 7 21 8 7 21 8 7 21 8 7 21 8 7 21 8 8 20 8 8 20 8 8 20 8 8 20 8 8 20 8 8 20 8 8 20 8 8 20 8 8 20 8 8 20 8 8 20 8 8 20 8 8 20 8 8 20 8 8 20 8 8 20 8 8 20 8 8 20 8 8 20 8 8 20 7 7 19 8 8 20 7 7 19 7 7 19 9 9 21 8 8 20 7 7 19 7 7 19 7 7 19 7 7 19 7 7 19 7 7 19 7 7 19 7 7 19 7 7 19 7 7 19 7 7 19 7 7 19 7 7 19 7 7 19 7 7 19 7 7 19 7 7 19 7 7 19 
7 9 22 8 10 23 8 10 23 8 10 23 7 9 22 8 10 23 8 10 23 8 10 23 7 9 22 8 10 23 8 10 23 7 9 22 7 9 22 7 9 22 7 9 22 7 9 22 7 9 22 7 9 22 8 10 23 8 10 23 7 9 22 7 9 22 7 9 22 7 9 22 7 10 19 7 9 22 7 9 22 7 9 21 9 8 22 9 8 22 9 8 22 9 8 22 9 8 22 9 8 22 9 8 22 7 6 20 9 8 22 9 8 22 9 8 22 9 9 21 9 8 22 8 7 21 9 8 22 9 9 21 9 8 22 7 6 20 8 7 21 8 7 21 8 7 21 9 8 22 8 7 21 8 7 21 8 7 21 8 7 21 8 7 21 8 7 21 8 7 21 8 8 20 8 8 20 8 8 20 8 8 20 8 8 20 8 8 20 8 8 20 8 8 20 8 8 20 8 8 20 8 8 20 8 8 20 9 9 21 8 8 20 8 8 20 9 9 21 8 8 20 8 8 18 8 8 20 8 8 20 8 8 18 7 7 19 9 9 19 8 8 20 9 9 21 8 8 20 7 7 19 7 7 17 7 7 17 7 7 17 7 7 19 7 7 17 7 7 19 7 7 19 7 7 19 7 7 17 7 7 17 7 7 17 7 7 17 7 7 17 7 7 17 7 7 17 6 6 16 
9 11 24 8 10 23 8 10 23 8 10 23 7 9 22 7 9 22 8 10 23 8 10 23 8 10 23 8 10 23 8 10 23 8 10 23 9 11 24 8 10 23 8 10 23 7 9 22 7 9 22 7 9 22 7 9 22 7 9 22 7 9 22 7 9 22 7 9 22 7 9 22 7 9 22 7 9 22 7 9 22 7 9 22 9 8 22 9 8 22 9 8 22 9 8 22 9 8 22 9 8 22 9 8 22 9 8 22 9 9 21 8 7 21 9 8 24 8 7 21 9 9 21 9 9 21 9 8 22 9 8 22 9 8 22 9 8 22 8 7 21 8 7 21 8 7 21 8 7 21 8 7 21 8 7 21 8 8 20 8 7 21 8 7 21 8 7 21 8 7 21 8 8 20 8 8 20 8 8 20 8 8 20 8 8 20 9 9 21 8 8 20 8 8 20 8 8 20 8 8 20 8 8 20 8 8 20 8 8 20 8 8 20 8 8 20 7 7 19 8 8 20 8 8 18 8 8 20 8 8 20 8 8 20 8 8 20 8 8 18 7 7 19 8 8 18 7 7 19 7 7 19 7 7 17 7 7 17 7 7 19 7 7 17 7 7 19 7 7 17 7 7 19 7 7 19 7 7 17 7 7 17 7 7 17 7 7 17 7 7 17 7 7 17 8 8 18 7 7 17 
8 10 23 8 10 23 8 10 23 10 12 25 9 11 24 9 11 24 9 11 24 8 10 23 9 11 24 9 11 24 8 10 23 7 9 22 7 9 22 7 9 22 7 9 22 7 9 22 7 9 22 7 9 22 8 10 23 8 10 23 7 9 22 7 9 22 7 9 22 7 9 22 7 9 22 7 9 22 7 9 22 7 9 22 9 8 22 9 8 22 10 9 23 9 8 22 9 8 22 8 7 21 9 8 22 9 8 22 10 9 23 9 8 22 9 8 22 9 9 21 9 8 22 8 7 21 8 7 21 9 9 21 9 8 22 10 9 23 8 7 21 8 7 21 8 7 21 9 8 22 8 7 21 8 7 21 8 7 21 8 8 20 8 8 20 8 8 20 8 8 20 8 8 20 8 8 20 8 8 20 9 9 21 8 8 20 9 9 21 8 8 20 8 8 20 9 9 21 8 8 20 8 8 20 8 8 20 8 8 20 8 8 20 7 7 19 8 8 20 8 8 20 7 7 17 8 8 20 8 8 20 7 7 19 7 7 17 8 8 20 8 8 18 8 8 18 8 8 20 7 7 17 7 7 17 7 7 17 7 7 17 7 7 19 7 7 17 7 7 19 7 7 19 7 7 19 7 7 17 7 7 17 7 7 17 7 7 17 7 7 17 7 7 17 6 6 16 8 8 18 
8 10 23 8 10 23 9 11 24 8 10 23 8 10 23 8 10 23 8 10 23 8 10 23 8 10 23 7 9 22 8 10 23 7 9 22 7 9 22 7 9 22 7 9 22 7 9 22 7 9 22 7 9 22 8 10 23 8 10 23 7 9 22 7 9 22 7 9 22 7 9 22 7 9 22 7 9 22 7 9 22 7 9 22 9 8 22 10 9 23 9 8 22 9 8 22 9 8 22 9 8 22 8 7 21 9 8 22 8 7 21 9 8 22 8 7 21 8 7 21 8 8 20 8 7 21 8 7 21 9 9 21 9 8 22 9 8 22 8 7 21 8 7 21 8 7 21 9 8 22 8 7 21 8 7 21 8 7 21 8 7 21 8 8 20 8 8 20 8 8 20 8 8 20 8 8 20 8 7 21 8 8 20 8 8 20 8 8 20 8 8 20 8 8 20 8 8 20 8 8 20 8 8 20 9 9 21 8 8 20 8 8 20 8 8 20 7 7 19 8 8 20 7 7 17 8 8 20 8 8 20 8 8 20 8 8 20 7 7 19 8 8 20 8 8 18 8 8 20 8 8 20 7 7 17 7 7 19 7 7 17 7 7 19 7 7 17 7 7 19 7 7 17 7 7 19 7 7 17 7 7 17 7 7 17 7 7 17 7 7 17 7 7 17 6 6 16 7 7 17 
8 10 23 8 10 23 8 10 23 8 10 23 8 10 23 7 9 22 8 10 23 8 10 23 8 10 23 8 10 23 7 9 22 8 10 23 8 10 23 8 10 23 8 10 23 8 10 23 7 9 22 7 9 22 7 9 22 7 9 22 7 9 22 7 9 22 7 9 22 7 9 22 7 9 22 7 9 22 7 9 22 7 9 22 9 8 22 9 8 22 9 8 22 9 8 22 7 6 20 9 8 22 9 8 22 9 8 22 8 7 21 8 7 21 9 8 22 9 8 22 10 10 22 9 8 22 8 7 21 9 9 21 9 8 22 8 7 21 8 7 21 8 7 21 8 7 21 8 7 21 8 7 21 8 7 21 8 8 20 8 8 20 8 8 20 8 8 20 8 8 20 8 8 20 8 8 20 8 8 20 8 8 20 8 8 20 8 8 20 8 8 20 8 8 20 8 8 20 8 8 20 8 8 20 8 8 20 8 8 20 8 8 20 8 8 20 8 8 20 7 7 19 8 8 18 8 8 20 8 7 21 8 8 20 8 8 18 7 7 19 8 8 20 7 7 19 7 7 17 7 7 19 7 7 19 7 7 17 7 7 19 7 7 17 7 7 19 7 7 17 7 7 19 7 7 17 7 7 17 7 7 17 7 7 17 7 7 17 6 6 16 7 7 17 7 7 17 6 6 16 
8 10 23 9 11 24 8 10 23 7 9 22 8 10 23 9 11 24 8 10 23 8 10 23 8 10 23 8 10 23 7 9 22 7 9 22 7 9 22 7 9 22 7 9 22 7 9 22 7 9 22 7 9 22 8 10 23 8 10 23 7 9 22 7 9 22 7 9 22 7 9 22 7 9 22 7 9 22 7 9 22 7 9 22 9 8 22 9 8 22 9 8 22 8 7 21 9 8 22 9 8 22 9 8 22 8 7 21 9 8 22 10 9 23 9 8 22 9 9 21 8 7 21 9 8 22 8 7 21 9 9 21 9 8 22 8 7 21 8 7 21 8 7 21 8 7 21 8 7 21 8 7 21 8 7 21 8 7 21 8 8 20 8 8 20 8 8 20 8 8 20 8 8 20 8 8 20 8 8 20 8 8 20 8 8 20 8 8 20 8 8 20 8 8 20 8 8 20 8 8 20 8 8 20 8 8 20 8 8 20 7 7 19 8 8 20 9 9 21 8 8 20 8 8 18 8 8 20 7 7 19 8 8 18 9 9 21 8 8 20 8 8 18 7 7 17 7 7 17 5 5 17 7 7 19 7 7 19 7 7 19 7 7 17 7 7 19 7 7 17 7 7 17 7 7 17 7 7 17 7 7 17 7 7 17 7 7 17 6 6 16 7 7 17 7 7 17 6 6 16 
