P3
100 50
255
83 75 26 84 76 29 83 75 29 80 71 32 80 71 30 84 76 29 84 76 30 81 72 29 80 71 30 81 72 31 84 76 29 85 77 30 84 76 29 85 77 30 83 75 29 80 71 30 82 73 34 85 77 31 84 76 29 86 78 31 84 76 29 84 76 29 84 76 29 83 75 28 80 71 30 80 71 32 83 76 30 84 78 30 84 76 30 80 71 32 80 71 30 85 78 32 85 78 32 83 76 30 84 76 29 84 76 29 85 77 30 86 78 31 85 79 31 84 78 30 86 78 31 84 76 29 85 77 30 84 78 30 85 77 31 85 77 28 84 76 29 85 79 31 85 78 34 86 79 33 84 77 31 85 78 32 85 79 31 85 79 31 84 78 30 84 78 30 86 78 31 83 77 29 86 80 32 84 78 30 85 77 30 83 77 29 85 79 31 85 79 31 84 78 30 84 78 30 85 79 31 84 78 30 84 78 30 84 78 30 85 79 31 83 77 29 85 79 31 84 77 31 84 77 31 84 77 31 85 79 31 85 79 31 84 77 31 85 78 32 85 79 31 82 78 30 86 78 31 85 79 31 84 78 30 84 78 30 84 78 30 85 77 30 85 77 30 83 76 30 83 77 29 84 78 30 84 78 30 84 76 30 84 78 30 84 77 31 85 79 31 84 78 30 85 77 30 84 76 29 
84 76 30 84 76 30 83 75 29 81 72 29 81 72 29 83 75 29 83 75 29 82 73 30 80 71 28 81 72 29 84 76 29 84 76 29 84 76 30 83 75 28 82 73 30 81 72 29 81 72 29 85 77 30 84 77 31 83 75 29 85 74 29 85 77 31 84 76 29 84 76 30 82 70 30 81 72 31 83 76 30 85 79 29 83 76 30 80 73 29 81 72 29 85 78 32 85 77 31 85 77 30 84 76 27 84 76 29 85 77 31 85 77 30 85 77 30 85 77 31 85 77 30 84 76 29 85 77 30 85 77 28 85 78 32 84 76 27 84 76 29 84 78 28 83 76 32 84 77 33 84 77 31 84 78 30 85 77 30 85 79 31 85 77 30 84 78 30 85 77 30 82 78 30 84 78 30 84 78 30 84 76 29 84 76 29 84 78 30 84 78 30 84 78 30 85 79 31 84 78 30 85 79 31 84 78 30 84 78 30 85 79 31 84 78 30 85 79 31 85 79 31 85 79 31 84 78 30 85 79 31 84 78 30 85 79 31 85 79 31 85 79 31 84 78 30 86 78 31 86 78 31 83 77 29 85 77 30 86 78 31 86 78 31 85 77 30 84 78 30 83 77 29 84 78 30 84 78 30 84 78 30 85 77 30 84 78 30 84 78 30 84 78 30 83 77 29 84 78 30 
81 72 29 80 71 30 82 74 28 83 77 29 84 76 29 79 70 29 80 71 30 83 75 29 84 76 30 84 76 30 84 76 27 84 76 29 81 72 31 79 70 29 81 72 29 84 76 29 84 76 29 84 78 30 85 78 32 81 72 31 79 70 31 81 72 29 85 77 30 84 76 29 85 77 30 85 79 31 84 76 29 83 75 28 84 77 31 83 76 30 85 79 31 81 77 30 84 78 30 84 78 30 83 77 29 84 78 30 84 78 30 84 78 30 83 77 29 84 78 30 84 76 29 85 77 30 84 76 29 85 78 32 86 78 32 83 77 29 85 77 30 84 77 31 85 78 32 85 78 32 85 79 31 84 78 30 85 79 31 84 78 30 84 78 30 83 77 29 83 77 29 83 77 29 85 79 31 82 78 30 85 77 30 85 77 30 85 79 31 85 79 31 84 78 30 85 79 31 84 78 30 83 77 29 85 79 31 84 78 30 84 78 30 85 79 31 84 78 30 84 78 30 85 79 31 84 78 30 85 79 31 85 79 31 83 77 29 84 78 30 86 78 31 85 79 31 86 78 31 89 78 32 86 78 31 84 78 30 85 79 31 84 78 30 84 76 29 85 77 30 84 77 31 85 79 31 84 77 31 86 80 32 84 78 30 84 76 29 84 78 30 84 78 30 85 79 31 84 78 30 
81 72 29 80 71 30 80 73 31 83 77 29 84 76 29 80 71 30 79 70 29 83 75 29 83 75 28 84 76 29 85 77 31 83 75 28 80 71 30 79 70 31 81 72 29 84 76 29 83 77 29 83 77 29 85 77 30 81 72 29 79 70 29 81 72 31 84 76 29 84 76 30 84 76 29 84 78 30 84 76 29 84 78 30 88 77 31 84 77 31 85 79 31 84 76 30 84 76 27 84 76 29 84 78 30 83 77 29 85 79 31 84 78 30 85 77 30 84 76 29 84 76 29 85 77 31 85 77 30 86 79 33 84 77 31 84 78 30 83 77 29 84 78 30 85 79 31 84 78 30 85 79 31 83 77 29 83 77 29 86 78 32 84 78 30 84 76 29 83 77 29 84 76 29 86 78 31 84 78 30 83 77 29 86 75 29 85 77 30 81 77 29 84 78 30 85 79 31 84 78 30 84 78 30 85 79 31 85 79 31 85 79 31 84 78 30 85 79 31 84 78 30 84 78 30 83 77 29 85 79 31 85 79 31 84 78 30 85 79 31 85 77 30 83 77 29 85 77 30 84 78 30 82 78 30 84 78 30 84 78 30 85 79 31 84 78 30 83 77 29 84 78 30 83 77 29 84 78 30 84 78 30 85 77 30 85 74 28 83 77 29 84 78 30 85 77 30 85 77 30 
84 72 30 83 75 28 84 76 29 83 77 29 83 77 29 80 76 29 83 75 29 82 73 30 81 72 29 82 73 30 83 77 29 83 76 30 83 75 29 84 76 30 83 75 29 84 78 30 85 79 31 80 71 30 82 73 32 83 75 29 83 75 29 84 78 30 84 76 29 84 76 29 83 77 29 84 76 29 84 76 29 85 77 30 84 76 29 83 77 29 83 77 29 84 76 29 83 75 28 85 79 31 84 77 31 86 78 32 83 77 29 84 78 30 82 78 30 83 79 31 84 77 31 86 79 33 85 77 30 84 78 30 83 77 29 84 78 30 85 78 32 85 78 32 83 77 29 84 78 30 84 78 30 83 77 29 84 78 30 84 78 30 84 78 30 85 79 31 84 78 30 84 78 30 85 79 31 83 77 29 84 78 30 84 78 30 84 78 30 84 78 30 84 78 30 84 78 30 84 78 30 84 78 30 84 78 30 84 78 30 84 78 30 84 78 30 84 78 30 83 77 29 84 78 30 83 77 29 84 78 30 83 77 29 83 77 29 85 79 31 83 77 29 84 78 30 85 77 30 85 79 31 85 79 31 84 78 30 84 78 30 84 78 30 84 78 30 84 78 30 85 77 30 84 76 29 84 78 30 84 78 30 86 80 32 84 76 29 83 77 29 84 76 29 84 76 29 84 78 30 
85 74 29 84 76 29 84 76 29 83 76 30 82 76 28 84 78 30 84 76 29 81 72 29 80 71 30 81 72 29 83 77 29 84 76 29 84 77 31 84 76 29 83 75 28 83 75 29 84 76 30 80 71 30 78 71 29 84 77 31 83 77 29 85 77 30 86 76 27 85 77 30 83 75 28 84 76 29 84 76 27 82 76 28 84 76 29 84 76 30 83 77 29 85 77 30 84 76 30 84 77 31 85 78 32 84 77 31 83 77 29 84 78 30 85 79 31 84 78 30 85 79 31 84 77 31 85 78 32 82 76 28 83 77 29 84 77 31 85 78 32 83 77 29 85 79 31 85 79 31 85 77 30 84 76 29 85 77 30 86 78 31 86 78 31 83 77 29 83 77 29 85 79 31 84 78 30 84 78 30 85 79 31 84 78 30 85 79 31 84 78 30 85 79 31 84 78 30 83 77 29 85 79 31 84 78 30 83 77 29 84 78 30 85 79 31 84 78 30 84 78 30 84 78 30 84 78 30 85 79 31 84 78 30 84 78 30 84 78 30 85 77 30 84 78 30 84 76 29 84 76 29 83 75 28 84 78 30 85 77 30 84 78 30 85 79 31 85 79 31 83 77 29 84 76 29 84 78 30 86 78 31 84 78 30 84 76 29 84 78 30 84 76 29 84 76 29 83 77 29 
81 72 29 82 73 30 83 75 29 84 76 29 83 77 29 82 75 29 82 73 30 82 74 28 80 73 31 81 73 27 82 76 28 85 77 30 82 75 31 83 74 31 84 76 30 84 76 27 84 76 30 80 71 30 80 73 31 83 77 29 85 77 28 84 76 29 84 76 29 84 76 29 85 77 31 86 75 30 84 76 30 83 77 29 86 78 31 84 76 29 84 78 30 84 77 31 84 76 30 83 76 30 84 77 31 84 77 31 84 76 29 84 76 29 85 77 30 82 78 31 85 77 30 84 77 31 85 78 32 83 77 29 83 77 29 83 76 30 85 78 32 84 78 30 87 79 32 84 78 30 84 76 29 85 77 30 84 78 30 84 78 30 84 76 29 84 78 30 84 78 30 84 78 30 85 79 31 84 78 30 83 77 29 83 77 29 85 79 31 85 79 31 85 79 31 84 78 30 84 78 30 84 78 30 85 79 31 84 78 30 83 77 29 85 79 31 85 79 31 84 78 30 85 79 31 83 77 29 83 77 29 84 78 30 83 77 29 85 79 31 84 78 30 85 79 31 84 78 30 83 77 29 84 78 30 85 79 31 85 77 30 83 77 29 83 77 29 84 78 30 84 78 30 84 78 30 83 77 29 83 77 29 85 77 30 84 76 29 84 78 30 84 78 30 84 78 30 84 78 30 
81 72 31 80 71 30 80 71 28 84 76 30 84 76 30 79 70 29 79 70 29 83 74 31 84 76 29 83 77 29 83 77 29 82 75 29 81 72 29 79 72 30 82 73 30 83 75 28 84 78 30 83 77 29 83 75 29 84 76 29 84 76 29 84 76 29 84 76 29 83 77 29 84 75 34 84 75 32 83 74 33 84 76 29 85 77 30 85 77 30 83 77 29 84 77 33 84 77 31 85 77 31 85 77 30 84 76 30 84 76 29 84 76 30 84 76 29 84 76 29 85 77 30 84 78 30 84 78 30 84 78 30 83 77 29 85 79 31 84 78 30 84 78 30 83 77 29 84 78 30 84 78 30 84 78 30 83 77 29 84 78 30 84 78 30 84 78 30 85 79 31 84 78 30 84 78 30 83 77 29 84 76 29 83 77 29 84 78 30 84 78 30 84 78 30 83 77 29 84 78 30 84 78 30 84 78 30 85 79 31 84 78 30 84 78 30 84 78 30 84 78 30 84 78 30 85 79 31 85 79 31 84 78 30 85 79 31 85 79 31 84 78 30 84 78 30 83 77 29 84 78 30 84 78 30 84 78 30 84 78 30 82 76 28 84 76 29 83 77 29 84 78 30 84 76 29 84 78 30 84 76 29 86 75 29 83 77 29 84 78 30 84 78 30 82 76 28 83 77 29 
81 72 29 79 70 31 81 72 31 85 77 28 84 76 30 79 70 31 79 70 29 83 74 31 84 76 29 84 76 30 83 75 28 83 77 29 81 72 29 79 70 31 81 73 27 83 77 29 83 77 29 84 76 27 84 76 30 84 76 29 83 75 29 85 77 30 83 75 29 84 76 30 84 75 36 82 74 35 83 75 29 84 76 29 84 76 29 84 76 29 83 77 29 85 78 32 85 78 32 83 77 29 83 77 29 82 75 29 83 77 29 84 76 30 84 76 30 83 77 29 83 77 29 84 78 30 82 76 28 83 77 29 83 77 29 84 78 30 85 79 31 85 77 30 83 77 29 84 78 30 84 78 30 84 78 30 85 79 31 84 78 30 84 78 30 84 78 30 83 77 29 84 78 30 85 79 31 84 78 30 84 76 29 83 75 28 84 78 30 84 78 30 83 77 29 85 79 31 84 78 30 84 78 30 84 78 30 83 77 29 84 78 30 83 77 29 85 79 31 85 79 31 84 78 30 84 78 30 84 78 30 84 78 30 84 78 30 84 78 30 84 78 30 85 79 31 84 78 30 83 77 29 84 78 30 84 78 30 84 78 30 83 77 29 83 77 29 83 75 28 83 77 29 84 78 30 84 78 30 84 76 29 85 77 30 85 79 31 85 79 31 83 77 29 83 77 29 83 77 29 
84 78 30 84 78 30 83 75 29 81 72 31 78 71 29 84 78 30 85 77 30 84 77 31 84 76 29 82 73 30 80 71 30 81 72 29 83 76 30 84 78 30 84 78 30 83 75 29 83 75 28 79 70 29 79 70 29 84 77 31 84 78 30 82 75 31 82 70 30 81 72 29 84 78 28 83 77 29 82 76 28 84 76 29 83 75 29 83 75 29 83 75 26 85 74 29 83 75 29 83 76 30 85 78 32 84 77 31 84 76 29 85 77 31 85 77 31 83 76 32 84 77 31 82 76 28 82 76 28 84 77 31 85 78 32 85 79 31 84 78 30 84 76 30 83 77 29 84 76 29 83 77 29 85 79 31 85 77 30 86 78 31 84 78 30 84 76 29 83 77 29 83 77 29 84 78 30 84 78 30 85 77 30 85 77 30 84 78 30 83 77 29 84 78 30 84 78 30 84 78 30 83 77 29 85 79 31 85 79 31 84 78 30 84 78 30 83 77 29 84 78 30 83 77 29 83 77 29 83 77 29 84 78 30 84 78 30 84 78 30 82 78 30 83 77 29 84 78 30 84 78 30 84 78 30 84 78 30 86 75 29 83 77 29 84 78 30 84 78 30 84 78 30 83 77 29 84 78 30 83 75 28 85 74 28 83 77 29 84 76 29 83 77 29 83 77 29 84 76 29 
83 76 30 84 78 30 82 75 29 78 70 31 78 71 29 83 77 29 83 76 30 83 77 29 83 76 30 83 75 29 80 71 30 80 71 30 83 76 30 84 77 31 83 76 30 82 74 27 83 75 29 79 70 31 78 70 31 83 76 30 85 77 30 82 75 31 79 70 29 80 71 30 83 77 29 84 78 30 84 76 30 83 75 28 84 76 29 84 76 29 85 77 31 85 74 29 83 76 30 83 76 30 85 78 32 84 77 31 86 75 29 83 75 29 84 77 31 84 77 33 84 77 31 83 77 29 83 77 29 85 78 32 85 78 32 84 78 30 84 78 30 84 77 31 84 76 29 83 75 28 84 78 30 83 77 29 84 78 30 84 78 30 84 78 30 84 76 29 82 76 28 84 78 30 84 78 30 84 78 30 84 78 30 84 78 30 84 78 30 85 79 31 84 78 30 84 78 30 84 78 30 84 78 30 83 77 29 84 78 30 85 79 31 84 78 30 84 78 30 85 79 31 83 77 29 85 79 31 84 78 30 84 78 30 84 78 30 84 78 30 83 77 29 83 77 29 84 78 30 84 78 30 84 78 30 84 78 30 83 75 28 83 77 29 84 78 30 83 77 29 85 79 31 83 77 29 81 77 29 83 75 28 84 76 29 83 75 28 84 76 29 84 76 29 84 76 29 84 76 29 
84 77 31 85 78 32 84 77 33 83 75 29 80 76 29 83 77 29 82 76 28 82 75 29 83 75 29 82 76 28 83 75 29 82 75 31 82 73 30 82 73 32 82 73 30 84 76 29 84 76 29 83 74 31 83 76 32 83 77 29 83 77 29 84 76 30 83 74 31 84 75 32 83 76 30 83 77 29 84 76 29 83 75 28 83 75 28 85 73 31 83 75 29 84 77 31 85 78 32 84 77 31 81 77 30 84 77 31 84 78 30 84 78 30 83 76 30 83 76 30 84 78 30 84 78 30 84 77 31 84 77 31 83 76 30 85 77 31 84 78 30 84 78 30 84 78 30 83 77 29 84 78 30 85 79 31 85 79 31 84 78 30 84 78 30 84 78 30 83 77 29 84 78 30 85 77 30 84 78 30 84 78 30 85 79 31 84 78 30 85 77 30 83 77 29 84 78 30 84 78 30 84 78 30 84 78 30 85 79 31 83 77 29 83 77 29 84 78 30 85 79 31 84 78 30 83 77 29 84 78 30 85 79 31 84 78 30 84 78 30 82 78 30 82 78 30 84 78 30 81 77 29 84 78 30 84 78 30 84 78 30 83 77 29 85 77 30 84 78 30 84 78 30 82 76 28 84 78 30 83 77 29 84 78 30 84 76 29 85 74 28 83 75 28 83 75 28 84 76 29 
84 77 31 84 77 31 84 77 31 83 77 29 85 77 30 84 76 29 82 74 28 84 76 29 83 75 29 81 77 29 85 79 31 84 78 28 79 72 30 80 71 30 82 73 30 84 76 29 84 76 30 85 78 32 84 78 30 83 77 27 85 77 31 83 76 30 83 77 29 85 77 31 82 75 29 83 75 28 84 76 29 83 75 28 83 75 29 84 76 29 83 75 28 85 77 31 84 77 33 84 77 33 83 77 29 84 78 30 84 77 31 84 78 30 82 75 29 83 76 30 84 78 30 84 78 30 83 77 29 84 78 30 84 78 30 83 77 29 83 77 29 84 78 30 84 78 30 84 78 30 85 79 31 84 77 31 84 77 31 84 78 30 84 78 30 84 78 30 83 77 29 83 77 29 83 77 29 84 78 30 83 77 29 85 79 31 84 77 31 85 79 31 85 79 31 84 78 30 84 78 30 83 76 30 84 78 30 84 78 30 85 78 32 84 78 30 84 78 30 84 78 30 83 77 29 84 78 30 84 78 30 84 78 30 84 78 30 84 78 30 84 78 30 84 78 30 84 78 30 84 78 30 83 77 29 84 78 30 83 77 29 83 77 29 83 77 29 84 78 30 82 76 28 82 76 28 83 77 29 82 78 30 84 78 30 83 77 29 84 76 29 83 77 29 84 78 30 84 76 29 
85 78 36 84 77 33 84 77 31 84 77 31 83 76 30 84 76 30 84 76 30 84 76 30 83 75 29 83 75 29 83 76 30 84 77 31 81 72 29 81 72 29 81 72 29 84 75 32 83 76 30 83 76 30 85 79 31 84 76 29 83 75 28 83 76 30 82 78 30 83 77 29 84 76 30 83 75 28 84 76 29 84 76 30 83 75 29 84 76 29 84 76 29 85 76 33 85 78 32 84 77 31 83 76 30 83 76 30 83 76 32 84 77 31 83 76 30 83 76 30 83 76 30 83 77 29 85 79 31 84 78 30 84 78 30 83 77 29 84 78 30 85 79 31 84 77 31 84 77 31 84 78 30 84 78 30 83 77 29 83 77 29 84 77 31 84 77 31 84 77 31 84 78 30 84 78 30 83 76 30 84 78 30 84 78 30 84 77 31 84 78 30 84 78 30 84 78 30 83 77 29 84 77 31 83 77 29 84 78 30 83 76 30 84 78 30 84 78 30 84 78 30 84 78 30 84 78 30 84 78 30 84 78 30 84 78 30 84 78 30 84 78 30 84 78 30 84 78 30 83 77 29 84 78 30 82 76 28 82 76 28 84 78 30 83 77 29 83 77 29 82 76 28 83 77 29 84 76 29 85 77 30 85 77 30 83 75 28 80 76 29 84 76 30 84 76 30 83 75 29 
84 77 33 84 77 33 83 76 32 84 77 31 83 76 32 84 78 30 84 77 31 84 77 31 83 75 29 84 76 30 82 75 29 84 76 29 82 74 28 83 75 29 85 74 28 84 77 31 83 75 29 83 77 29 83 75 28 84 76 29 84 76 30 83 77 29 83 75 28 84 76 30 83 75 29 84 76 30 84 77 31 84 77 31 83 76 30 84 78 30 84 76 29 83 75 28 83 77 29 85 77 31 84 77 33 83 76 30 83 75 29 83 75 29 84 77 31 84 77 31 84 77 31 83 76 30 83 76 30 82 76 28 83 77 29 84 78 30 84 78 30 84 78 30 83 76 30 83 76 30 83 76 30 83 77 29 84 78 30 82 75 29 83 76 30 84 77 31 84 77 31 84 78 30 83 76 30 84 77 31 83 77 29 84 77 31 83 76 30 83 77 29 83 77 29 83 77 29 84 78 30 83 76 30 84 78 30 84 78 30 83 76 30 82 76 28 84 78 30 83 77 29 84 78 30 84 78 30 83 77 29 84 78 30 85 79 31 83 77 29 85 77 30 84 78 30 84 78 30 83 77 29 84 78 30 84 76 29 83 75 28 86 75 29 83 75 28 84 76 29 84 76 29 84 76 29 84 76 29 83 75 28 83 75 28 83 75 28 82 75 29 83 75 29 83 75 29 84 76 30 
84 77 31 84 77 31 84 77 31 83 76 32 85 78 32 84 77 31 84 77 31 83 76 30 83 75 29 84 76 29 84 75 32 83 75 29 84 76 29 83 75 29 84 76 30 82 75 29 84 76 30 83 75 29 83 75 29 82 74 28 83 77 29 82 75 29 83 75 28 83 75 29 82 75 29 82 75 29 82 75 29 84 77 33 83 77 29 84 76 29 84 76 29 83 77 29 84 76 29 83 76 30 84 77 33 84 77 33 83 74 31 84 75 32 84 77 31 84 78 30 83 76 30 84 77 31 84 77 31 83 76 30 82 76 28 84 78 30 84 78 30 85 78 32 84 77 31 84 77 31 83 76 30 83 76 30 83 76 30 82 75 29 82 75 29 84 77 31 84 77 31 85 79 31 85 78 32 84 77 31 83 76 30 84 77 31 84 77 31 84 77 31 84 77 31 83 77 29 83 77 29 84 77 31 83 77 29 84 78 30 84 77 31 82 76 28 83 77 29 84 78 30 83 77 29 83 77 29 83 77 29 83 77 29 83 77 29 83 77 29 84 77 31 84 77 31 82 75 29 84 77 31 84 77 31 84 76 30 84 76 30 83 75 29 84 76 29 83 75 28 83 75 28 84 76 29 83 75 28 84 76 29 83 75 28 83 75 28 83 75 29 82 75 29 83 75 29 84 76 30 
84 77 33 84 77 31 85 78 34 84 77 33 83 76 32 84 77 31 84 77 31 84 77 31 84 76 30 84 76 30 83 75 29 84 76 29 84 76 29 83 75 29 83 76 30 84 76 30 83 76 30 80 71 28 80 71 30 81 73 27 82 75 29 84 76 29 84 76 30 83 76 30 83 75 28 84 77 31 82 75 29 83 75 29 83 75 29 82 74 27 82 73 30 85 77 31 83 76 30 84 77 31 84 76 30 84 76 30 84 77 31 84 77 31 82 75 29 84 76 30 83 77 29 83 76 30 83 76 30 84 77 31 83 77 29 84 78 30 84 78 30 84 78 30 83 77 29 84 77 31 84 77 31 83 76 30 84 77 31 83 76 30 83 76 30 84 78 30 83 76 30 83 77 29 83 76 30 82 75 29 84 77 31 83 76 30 83 76 30 82 75 29 83 77 29 82 75 29 83 76 30 83 77 29 83 76 30 83 76 30 84 78 30 84 77 31 84 77 31 83 76 30 84 77 31 84 77 31 84 77 31 84 77 31 84 77 31 84 77 31 83 76 30 83 76 30 83 76 30 84 77 31 82 75 29 83 76 30 84 77 31 82 75 29 83 76 30 82 75 29 84 76 30 83 76 30 84 76 30 83 75 29 83 75 29 83 75 29 85 74 28 84 76 29 83 75 28 84 76 29 
84 77 33 83 76 32 84 77 31 84 77 31 83 76 32 84 77 31 84 77 31 84 78 30 84 77 33 83 76 30 83 75 29 86 75 29 83 75 28 82 75 29 83 76 30 84 78 30 83 76 30 79 70 31 79 70 29 81 74 28 83 77 29 83 75 29 83 75 29 83 77 29 82 75 29 82 76 28 83 75 28 83 74 31 83 75 29 83 75 29 82 75 29 84 77 31 84 77 31 83 76 30 83 75 28 85 77 31 83 76 30 83 76 30 83 75 29 83 77 29 83 76 30 84 77 31 83 76 30 84 77 31 84 77 31 84 78 30 84 78 30 83 77 29 84 78 30 84 78 30 83 76 30 83 76 30 84 77 31 84 77 31 83 77 29 85 79 31 83 76 30 83 77 29 84 77 31 83 76 30 84 78 30 83 76 30 84 77 31 84 78 30 83 76 30 84 77 31 83 76 30 83 77 29 84 77 31 84 77 31 83 77 29 84 77 31 84 77 31 82 75 29 84 77 31 83 76 30 83 76 30 83 76 30 83 76 30 83 76 30 83 76 30 83 76 30 84 77 31 83 76 30 82 75 29 83 76 30 85 78 32 83 76 30 83 75 29 83 75 29 83 75 29 83 76 30 83 76 30 83 76 30 82 75 29 82 75 29 84 76 29 84 76 29 83 77 29 82 76 28 
83 77 29 83 76 32 84 77 31 84 77 31 84 77 31 84 77 31 83 76 32 83 76 30 84 77 31 83 76 30 83 76 30 83 76 30 82 76 28 80 76 29 82 75 29 83 76 30 84 76 30 81 72 29 81 74 30 83 76 30 82 75 29 84 76 30 83 75 29 83 75 28 83 76 30 83 76 30 82 75 29 82 75 29 83 76 30 83 76 30 83 76 30 83 76 30 83 76 32 84 77 31 83 77 29 83 76 30 84 77 31 84 77 31 82 75 29 84 78 30 83 76 30 84 77 31 84 77 31 82 75 29 83 76 30 83 76 30 83 76 30 83 77 29 84 77 31 83 76 30 83 76 30 82 75 29 84 77 31 84 77 31 84 77 31 84 77 31 82 75 29 83 77 29 83 77 29 84 77 31 83 77 29 84 78 30 84 77 31 84 78 30 84 77 31 83 76 30 83 76 30 84 78 30 84 77 31 84 77 31 83 77 29 83 76 30 83 76 30 83 76 30 83 76 30 82 75 29 84 77 31 82 75 29 83 76 30 83 76 30 81 77 30 80 76 29 84 77 31 84 77 31 84 77 31 83 76 30 83 76 30 81 77 30 82 75 29 82 75 29 83 76 30 83 76 30 83 76 30 82 75 29 83 75 29 83 75 29 84 76 29 83 75 28 82 76 28 83 77 29 
83 76 32 83 76 32 83 76 34 83 76 32 84 77 33 83 76 30 84 77 33 84 77 33 83 76 30 83 76 32 84 77 31 83 76 32 82 76 28 83 76 30 82 76 28 83 76 30 82 75 29 84 78 30 85 79 31 81 74 28 83 75 29 84 76 30 83 76 30 82 76 28 84 77 31 84 77 31 83 76 30 83 77 29 83 76 30 83 76 34 85 78 32 83 75 29 82 76 28 84 78 30 84 78 30 84 77 31 84 77 31 84 77 31 84 77 31 84 78 30 84 77 31 84 77 31 84 77 31 82 75 29 83 76 30 84 77 31 84 77 31 83 76 30 84 77 31 83 76 30 83 76 30 82 75 29 82 75 29 84 77 31 86 79 33 82 75 29 83 77 29 84 78 30 84 78 30 83 77 29 84 78 30 84 78 30 84 77 31 83 77 29 85 78 32 83 76 30 84 77 31 84 78 30 83 76 30 83 76 30 84 78 30 83 76 30 83 76 30 84 77 31 85 78 32 82 75 29 84 77 31 84 77 31 82 75 29 84 77 31 84 77 31 83 76 30 82 75 29 84 77 31 83 76 30 83 76 30 83 76 30 84 77 31 85 74 29 83 75 29 83 75 29 81 74 28 83 76 30 83 76 30 82 75 29 82 75 29 83 75 29 83 75 29 83 75 29 83 76 30 
84 77 33 85 78 34 83 76 30 84 77 31 83 76 32 82 75 31 83 76 30 83 76 32 84 77 33 84 77 31 84 77 31 84 77 33 83 77 29 82 76 26 83 77 29 81 74 28 82 75 29 83 76 30 83 76 30 82 76 28 82 76 28 83 77 29 83 76 30 83 76 30 83 76 32 83 76 32 83 76 32 82 75 29 82 75 29 83 76 32 84 77 33 84 77 31 84 76 30 83 76 30 83 77 29 84 78 30 84 77 31 84 77 31 83 76 30 82 75 29 84 78 30 83 76 30 84 78 30 83 76 30 83 76 30 84 78 30 84 77 31 85 79 31 84 77 31 83 77 29 83 77 29 83 77 29 83 76 30 84 77 33 84 77 31 84 78 30 84 78 30 84 78 30 83 77 29 84 77 31 83 76 30 83 76 30 83 76 30 82 75 29 83 76 30 83 76 30 83 76 30 83 76 30 83 76 30 84 77 31 83 76 30 83 76 30 84 78 30 83 77 29 84 77 31 83 76 30 84 77 31 83 76 30 84 78 30 83 77 29 83 76 30 84 78 30 83 77 29 82 75 29 83 76 30 84 78 30 82 76 28 83 76 30 83 75 29 83 75 29 84 76 30 83 75 29 82 75 29 82 75 29 82 75 29 83 75 29 83 75 26 83 75 29 83 75 26 83 75 28 
84 77 33 84 77 33 83 76 32 83 76 32 84 77 31 84 77 31 83 76 32 83 76 32 83 76 30 83 76 30 83 76 30 84 77 33 84 77 31 82 75 29 83 76 30 82 75 29 82 76 28 81 75 27 83 75 29 83 75 29 83 75 29 84 76 30 84 77 31 84 77 33 83 75 29 81 74 28 83 76 30 82 75 31 82 76 28 83 76 30 82 75 29 83 76 32 84 77 31 83 76 30 82 75 29 83 76 30 82 75 29 82 75 29 83 77 29 81 75 27 83 77 29 83 76 30 82 75 29 83 77 29 83 76 30 83 76 30 84 78 30 83 76 30 84 77 31 83 76 30 82 76 28 83 76 30 83 77 29 83 76 30 84 78 30 83 77 29 83 76 30 84 77 31 83 76 30 83 76 30 84 77 31 83 76 30 84 77 31 83 76 30 83 76 30 82 75 29 83 76 30 83 76 30 82 75 29 83 76 30 83 76 30 82 75 29 83 76 30 81 74 28 84 78 30 84 78 30 82 76 28 83 77 29 83 76 30 83 76 30 84 78 30 83 76 30 84 77 31 83 77 27 83 77 27 83 76 30 83 76 30 85 79 31 82 75 29 83 75 29 83 75 29 82 74 28 81 74 28 82 75 29 82 75 29 82 75 29 84 76 29 84 76 30 82 76 28 84 76 29 
83 76 32 84 77 31 83 76 32 84 77 33 84 77 33 84 77 33 83 76 32 84 77 31 84 77 33 84 77 33 83 76 30 84 77 33 84 77 33 83 76 30 83 77 29 82 75 29 82 76 28 82 76 28 82 75 29 82 75 29 82 75 29 82 75 29 83 76 32 83 76 32 82 75 29 82 75 29 84 76 29 83 75 29 82 76 28 83 77 29 81 74 28 83 76 30 83 76 30 82 75 29 82 75 29 83 76 30 84 77 31 83 76 30 83 75 29 83 75 28 83 76 32 84 78 30 82 75 29 83 76 30 83 77 29 83 76 30 83 76 30 83 76 30 83 76 30 83 76 30 84 77 31 84 78 30 82 75 29 83 76 30 83 76 30 83 76 30 83 76 30 83 76 30 83 76 30 83 76 30 83 76 30 84 77 31 83 76 30 83 76 30 83 76 30 84 77 31 84 77 31 82 75 29 84 77 31 83 76 30 83 76 30 84 77 31 83 76 30 82 75 29 82 75 29 83 76 30 83 76 30 83 76 30 83 76 30 82 75 29 83 76 30 83 77 29 83 77 29 84 77 31 82 75 29 83 77 29 83 77 29 84 77 31 82 75 29 83 75 29 82 75 29 82 75 29 82 75 29 82 75 29 83 76 30 82 75 29 83 75 29 83 76 30 83 77 29 82 75 29 
83 76 32 84 77 33 84 77 31 84 77 31 83 76 32 84 77 33 84 77 31 83 76 32 84 77 33 83 76 32 83 76 32 83 76 32 84 77 31 84 77 31 84 77 31 84 77 31 83 76 30 82 75 29 83 76 30 83 75 29 83 74 31 82 75 29 82 75 29 82 75 29 84 76 30 83 76 30 83 76 30 83 76 30 83 76 30 83 76 30 83 77 29 83 76 30 84 77 31 83 76 30 83 76 30 83 76 30 83 76 30 82 75 29 84 76 30 83 76 30 83 76 30 83 76 30 84 77 31 84 77 31 83 76 30 83 76 30 83 76 30 83 76 30 84 77 31 83 76 30 82 75 31 83 77 29 82 75 29 82 75 29 83 76 30 83 76 30 83 76 30 83 76 30 82 75 29 84 77 31 83 76 30 83 77 29 83 76 30 83 76 32 83 76 30 84 77 31 83 76 30 83 76 30 84 77 31 84 77 31 83 76 30 83 76 30 83 76 30 83 76 30 83 76 30 84 77 31 83 76 30 83 76 30 83 76 30 84 77 31 84 78 30 83 76 30 83 76 30 81 74 28 82 75 29 81 74 28 84 76 30 85 74 28 82 75 29 83 75 29 82 75 29 81 74 28 83 76 30 82 75 29 83 76 30 83 75 29 82 75 29 82 75 29 84 76 30 83 75 29 
83 76 30 83 76 32 84 77 33 84 77 33 83 76 32 83 76 30 83 76 30 83 76 32 83 76 32 84 77 31 83 76 30 82 75 29 84 77 31 83 76 32 82 75 31 84 77 31 84 77 31 82 75 29 82 76 28 83 75 28 83 75 29 82 75 29 82 75 29 82 75 29 83 77 29 83 76 30 83 77 29 83 76 30 83 76 32 83 76 32 83 76 30 81 74 28 82 74 28 82 75 29 84 77 33 82 75 29 83 76 30 84 77 31 83 76 30 82 75 29 83 76 30 83 76 30 84 77 31 84 77 31 83 76 30 82 75 29 82 75 29 82 75 29 84 77 31 83 76 30 84 77 31 83 77 29 83 76 30 84 77 31 83 76 30 83 76 32 83 76 30 85 78 32 82 75 29 84 77 31 83 76 30 83 77 29 83 76 30 83 76 32 84 77 31 84 77 31 83 76 30 83 76 30 84 77 31 83 76 30 83 76 30 83 76 30 83 76 30 83 76 30 84 77 31 84 77 31 84 77 31 83 76 30 83 76 30 83 76 30 84 77 31 84 77 31 83 76 30 83 77 29 81 75 27 83 76 30 83 76 30 84 77 31 82 75 29 83 75 29 82 75 29 81 74 28 82 75 29 83 75 29 85 77 31 81 74 28 82 74 28 82 75 29 82 74 28 82 74 28 
83 76 32 84 77 31 83 76 32 83 76 32 82 75 29 83 76 30 83 76 32 83 76 32 83 76 30 84 77 31 84 77 31 83 76 32 84 77 31 83 76 30 83 76 30 84 77 31 83 76 32 82 75 29 83 76 30 83 76 30 82 75 29 82 75 29 83 76 30 82 76 28 83 76 30 83 77 29 82 76 28 82 75 29 83 76 32 84 77 33 83 77 29 82 75 29 85 74 29 82 75 29 83 76 30 83 76 30 83 76 30 81 74 28 83 76 30 83 76 30 82 75 29 83 76 30 83 76 30 83 76 30 83 76 30 83 76 30 82 75 29 83 76 30 83 76 30 83 76 30 83 76 30 84 77 31 83 76 30 83 76 30 82 75 29 83 76 30 83 76 30 83 76 30 83 76 30 83 76 30 83 76 30 84 77 31 83 76 30 83 76 30 83 76 30 83 76 30 83 76 30 84 77 31 81 74 28 82 75 29 83 76 30 83 76 30 82 75 29 83 76 30 82 75 29 83 76 30 83 76 30 83 76 30 82 75 29 83 76 30 82 78 30 81 77 30 83 76 30 83 76 30 82 75 29 82 75 29 82 75 29 82 76 28 82 75 29 81 73 27 81 74 28 85 74 29 83 75 29 82 75 29 83 75 29 82 74 28 82 74 28 83 76 30 83 75 29 83 75 29 
83 76 32 83 76 30 84 77 31 84 77 33 84 77 33 83 76 32 83 76 32 83 76 30 83 76 30 84 77 33 83 76 32 83 76 32 82 75 29 83 76 30 83 76 30 83 76 30 83 76 32 84 77 33 85 77 31 83 75 29 82 74 28 83 75 29 82 75 29 83 76 30 82 75 29 82 75 29 81 74 28 81 74 28 82 75 29 83 76 30 82 75 29 82 75 29 82 75 29 83 76 30 83 77 29 82 76 28 83 76 30 83 76 30 81 74 28 82 75 29 82 75 29 82 75 29 83 76 30 83 76 30 83 76 30 83 76 30 83 76 30 83 76 30 83 77 29 83 76 30 83 76 32 84 77 31 83 76 30 84 77 31 83 76 32 83 76 30 83 76 30 83 76 30 83 76 30 83 76 30 83 76 30 82 75 29 84 77 31 82 75 29 82 75 29 83 76 30 83 76 30 83 76 30 84 77 31 83 76 30 82 75 29 84 77 31 83 76 30 83 76 30 83 76 30 83 76 30 83 76 30 83 76 30 82 75 29 83 76 30 82 75 29 85 77 31 86 75 29 84 76 30 83 76 30 83 77 29 83 76 30 82 74 28 79 75 28 84 76 30 82 74 28 82 74 28 83 75 29 83 75 29 83 75 29 82 74 28 84 73 28 82 74 28 82 75 29 82 74 28 
85 78 32 83 76 32 83 76 32 83 76 32 82 75 31 84 77 33 83 76 30 83 76 32 84 77 31 84 77 31 83 76 30 83 76 32 81 74 28 84 77 31 83 76 30 83 76 32 83 76 32 83 76 32 83 76 32 83 76 30 82 75 29 83 76 30 83 76 30 83 76 30 83 75 29 81 74 28 83 75 28 84 76 30 83 77 29 83 76 32 83 76 32 82 75 29 82 75 29 82 75 29 83 76 30 83 76 30 83 76 30 83 76 30 82 74 27 81 73 26 82 75 29 83 76 30 83 76 30 83 76 30 82 75 29 82 75 29 83 76 30 83 76 30 82 76 28 83 76 30 83 76 32 83 76 32 83 77 29 82 75 29 83 77 29 83 76 30 84 78 30 83 77 29 83 77 29 83 76 30 83 76 30 84 77 31 82 75 29 83 76 30 83 76 30 82 75 29 83 76 30 83 76 30 83 76 30 82 75 29 83 76 30 83 76 30 83 76 30 83 76 30 82 75 29 83 76 30 84 77 31 83 76 30 83 76 30 82 75 29 82 75 29 83 76 30 82 75 29 83 76 30 82 75 29 82 75 29 81 73 27 84 76 30 81 74 28 81 74 28 82 74 28 83 75 29 83 75 29 82 74 28 82 75 29 83 72 27 84 73 28 82 74 28 83 75 29 81 73 27 
83 76 30 84 77 31 84 77 33 82 75 31 83 76 32 84 77 33 84 77 33 83 76 32 83 76 32 84 77 31 83 76 32 83 76 32 83 76 32 83 76 32 83 76 30 83 76 30 83 76 32 83 76 30 82 75 29 82 75 29 84 76 30 83 75 29 84 76 30 82 74 28 83 76 32 84 77 33 82 75 31 82 75 29 80 73 27 81 74 28 82 75 29 84 77 31 83 76 32 83 76 32 83 76 30 81 77 30 83 76 30 83 76 30 81 77 30 83 76 30 83 76 30 83 76 30 82 75 29 81 74 28 81 74 28 83 77 29 83 76 30 83 76 30 81 77 30 83 76 30 83 75 29 84 76 30 82 75 29 83 76 30 83 76 30 83 76 30 83 76 30 83 76 30 83 76 30 83 76 30 83 76 30 83 76 30 82 75 29 83 76 30 83 76 30 83 76 30 84 77 31 83 76 30 83 76 30 82 76 28 82 76 28 83 76 30 83 76 30 83 76 30 82 75 29 83 76 30 83 76 30 83 76 30 84 77 31 82 75 29 82 75 29 82 75 29 82 75 29 84 77 31 81 77 30 82 75 29 82 74 28 83 75 29 84 76 30 84 73 28 82 76 28 82 74 28 82 74 28 82 75 29 83 75 29 83 76 30 83 75 29 82 74 28 82 74 28 81 73 27 
83 76 32 84 77 33 83 76 32 83 76 32 83 76 32 83 76 32 83 76 32 83 76 32 84 77 31 83 76 32 83 76 32 83 76 32 83 76 32 83 76 32 84 77 31 83 76 30 82 75 31 83 76 30 83 77 29 83 76 30 83 76 32 83 75 29 83 75 29 83 75 28 83 76 32 83 76 30 82 75 29 83 76 30 82 76 28 81 74 28 81 74 28 84 77 31 83 76 30 83 76 30 82 75 29 83 76 30 83 76 30 83 76 30 82 75 29 83 76 30 83 76 30 83 76 30 83 76 30 82 75 29 81 74 28 83 76 30 84 77 31 83 76 30 84 77 31 82 75 29 82 74 28 81 74 28 83 76 30 82 75 29 83 76 30 80 76 29 83 76 30 82 75 29 83 76 30 82 75 29 83 76 30 82 75 29 83 76 30 82 75 29 82 75 29 82 76 28 83 76 30 83 76 30 83 76 30 84 78 30 83 76 30 83 76 30 84 77 31 83 76 30 83 76 30 81 74 28 83 76 30 83 76 30 83 76 30 84 77 31 83 76 30 81 74 28 83 75 29 83 76 30 82 75 29 81 74 28 81 74 28 83 75 29 83 75 29 82 74 28 82 76 28 82 74 28 82 74 28 82 74 28 82 74 28 83 75 29 81 74 28 82 74 28 83 72 27 82 74 28 
83 76 32 83 76 32 83 76 32 82 75 31 84 77 33 83 76 32 82 75 29 83 76 30 83 76 30 83 76 32 83 76 32 83 76 32 83 76 32 83 76 30 83 76 30 83 76 30 83 76 30 82 75 29 83 76 32 84 77 33 84 77 33 82 75 29 83 76 30 83 76 30 83 76 32 83 77 29 82 75 29 82 75 29 82 76 28 83 76 30 84 77 33 82 75 29 83 76 30 83 76 30 82 75 29 83 76 30 82 75 29 81 74 28 82 75 29 81 75 27 83 76 30 83 76 30 82 75 29 83 76 30 82 75 29 82 75 29 83 77 29 83 76 30 83 76 30 83 76 30 81 74 28 83 76 30 83 76 30 83 76 30 83 76 30 81 77 30 83 76 30 83 76 30 82 75 29 83 76 30 83 76 30 83 76 30 83 76 30 83 76 30 83 76 30 83 76 30 82 75 29 84 77 31 83 76 30 83 76 30 83 76 30 83 76 30 83 76 30 83 76 30 83 76 30 81 74 28 82 75 29 83 76 30 83 76 30 83 76 30 82 75 29 82 75 29 83 76 30 82 75 29 82 75 29 81 74 28 82 75 29 82 74 28 82 75 29 82 74 28 82 74 27 81 74 28 82 74 28 84 73 28 83 71 29 83 75 29 82 74 28 83 72 27 83 72 27 81 73 27 
83 76 32 82 75 31 83 76 32 83 76 32 83 76 32 82 75 31 83 76 32 83 76 32 82 75 31 83 76 30 83 76 30 83 76 32 83 76 30 84 77 31 82 75 31 81 74 28 83 76 30 83 76 30 83 76 32 84 77 31 83 76 32 82 75 29 82 75 29 82 75 29 82 75 29 83 76 32 82 75 29 81 74 28 82 76 28 82 75 29 83 76 30 82 75 29 82 75 29 83 76 30 82 75 29 83 76 30 82 74 28 82 74 28 82 75 29 83 76 30 83 76 30 83 77 29 83 76 30 83 76 30 83 76 30 83 76 30 82 75 29 83 76 32 83 76 30 83 76 30 83 76 30 82 75 29 83 76 30 82 75 29 83 76 30 81 77 30 83 76 30 86 75 30 83 75 29 83 76 30 83 76 30 83 76 30 83 76 30 83 76 30 84 77 31 83 76 30 83 76 30 82 75 29 83 76 30 83 76 30 83 76 30 82 75 29 84 77 31 81 74 28 83 76 30 82 75 29 82 75 29 82 75 29 83 76 30 82 75 29 83 75 29 84 76 30 82 75 29 81 74 28 82 75 29 82 75 29 82 75 29 82 74 28 82 75 29 83 75 29 83 75 28 81 74 28 82 74 28 83 72 27 83 71 29 83 75 29 82 75 29 81 73 27 83 71 29 83 71 29 
84 77 33 83 76 30 82 75 31 83 76 32 83 76 32 82 75 31 82 75 31 83 76 32 82 75 33 83 76 30 83 76 30 81 74 30 83 76 30 83 76 30 83 76 32 83 76 30 83 76 30 83 76 32 83 76 32 83 76 30 83 76 30 82 75 29 83 76 30 83 76 30 83 76 32 82 75 31 82 75 31 82 75 31 83 76 30 83 76 30 83 76 30 82 75 29 84 76 30 82 75 29 83 76 30 82 75 29 82 75 29 82 75 29 84 77 31 83 76 30 82 75 29 82 75 29 82 75 29 83 76 30 83 76 30 84 77 31 82 75 29 83 76 30 84 77 31 82 75 29 83 76 30 82 75 29 83 76 30 82 75 29 82 75 29 80 76 29 86 75 30 82 75 29 82 75 29 84 76 30 82 75 29 83 76 30 82 75 29 82 75 29 82 75 29 82 75 29 83 76 30 83 76 30 83 76 30 83 76 30 82 75 29 82 75 29 83 76 30 82 75 29 83 76 30 83 76 30 82 75 29 82 75 29 83 76 30 82 75 29 81 74 28 81 74 28 82 75 29 81 74 28 82 74 28 81 74 28 82 74 28 82 74 28 81 74 28 83 75 29 83 75 29 82 75 29 82 74 28 83 72 27 83 72 27 82 75 29 82 74 28 82 74 28 82 73 30 81 72 29 
83 76 30 84 77 31 83 76 32 84 77 31 81 74 30 83 76 32 82 75 31 82 75 31 83 76 32 83 76 32 82 75 29 83 76 30 82 75 31 83 76 32 82 75 29 82 75 29 83 76 30 82 75 31 83 76 30 82 75 29 81 74 28 83 76 32 82 75 33 82 75 33 83 76 30 82 75 29 82 75 29 82 75 29 83 76 30 83 76 32 83 76 30 81 74 28 80 73 29 82 75 31 83 76 30 82 75 29 84 76 30 84 76 30 83 76 30 83 76 30 81 74 28 81 74 28 81 74 28 82 75 31 84 77 33 82 75 29 83 76 30 82 76 28 84 77 31 83 76 30 83 76 30 83 76 30 82 75 29 83 76 30 82 75 29 80 76 29 82 75 29 83 76 30 82 75 29 83 76 30 82 75 29 83 76 30 81 74 28 83 76 30 82 75 29 82 75 29 82 75 29 82 75 29 82 75 29 82 75 29 82 75 29 83 76 30 81 74 28 83 76 30 84 76 30 81 77 30 82 74 28 80 76 29 82 75 29 82 75 29 83 75 29 81 74 28 81 74 28 82 75 29 82 75 29 82 74 28 81 74 28 82 74 28 81 74 28 83 75 29 83 75 29 81 74 28 82 74 28 82 70 28 83 72 27 81 74 28 80 76 29 82 74 28 81 73 27 83 71 29 
84 77 33 82 75 31 82 75 31 83 76 32 83 76 32 82 75 31 84 77 33 83 76 32 82 75 31 82 75 31 83 76 30 82 75 29 82 75 31 82 75 31 83 76 30 83 76 30 83 76 32 82 75 29 82 75 31 82 76 28 83 76 30 83 77 29 83 76 32 83 76 32 83 76 30 83 76 30 82 75 29 83 76 30 83 76 30 82 75 31 82 75 31 82 75 29 82 74 28 82 75 29 83 76 30 83 76 30 81 77 30 82 75 29 84 76 30 81 74 28 81 74 28 81 74 28 82 75 29 82 75 31 82 75 31 82 75 29 82 75 29 81 74 28 83 76 30 82 75 29 83 76 30 82 75 29 82 75 29 82 75 29 82 75 29 82 75 29 83 76 30 82 75 29 83 76 30 83 76 30 83 76 30 82 75 29 83 76 30 83 76 30 82 75 29 82 75 29 82 75 29 82 75 31 82 76 28 84 77 31 82 75 29 81 74 28 82 75 29 82 75 29 83 75 29 80 76 29 83 75 29 80 76 29 81 74 28 81 74 28 83 75 29 82 75 29 80 73 27 81 74 28 80 73 27 82 74 28 82 74 28 82 74 28 82 74 28 82 74 28 81 74 28 82 74 28 81 73 27 83 71 29 83 72 27 82 74 28 82 74 28 82 74 28 83 72 27 83 71 29 
83 76 32 83 76 32 82 75 31 82 75 31 82 75 29 83 76 32 83 76 30 84 77 33 82 75 31 83 76 30 83 76 30 83 76 30 82 75 29 82 75 29 83 76 30 83 76 30 83 76 32 82 75 29 83 76 30 83 76 30 83 76 30 82 75 29 82 75 31 83 76 32 82 75 29 82 75 31 83 76 30 83 76 30 83 76 30 83 77 29 82 75 29 80 73 27 83 76 30 82 75 29 82 75 29 83 76 30 82 75 29 82 75 29 84 77 31 82 75 29 82 75 31 83 76 30 82 75 29 83 76 30 82 75 29 82 75 31 81 74 28 82 75 29 84 76 30 83 76 30 82 75 29 84 77 31 83 76 30 83 76 30 82 75 29 83 76 30 82 75 29 83 76 30 82 75 29 83 76 30 82 75 29 82 75 29 82 75 29 83 76 30 83 76 30 82 75 31 82 75 31 83 76 30 83 76 30 83 76 30 83 76 30 82 75 29 82 75 29 83 76 30 82 75 29 83 76 30 81 74 28 81 74 28 82 75 29 82 75 29 84 76 30 84 76 30 82 75 29 81 74 28 82 75 29 82 74 28 82 74 28 82 75 29 84 73 28 83 72 27 82 74 28 82 74 28 82 74 28 83 71 29 81 72 29 81 74 28 82 75 29 82 74 28 84 71 29 83 71 29 
82 75 31 81 74 30 82 75 31 83 76 32 83 76 32 83 76 32 82 75 31 82 75 31 83 76 32 84 77 31 82 75 31 82 75 31 81 74 28 83 76 30 83 76 30 82 75 31 83 76 30 82 75 29 82 75 29 82 75 31 83 76 32 83 76 30 82 75 29 82 75 31 83 76 32 82 75 31 83 76 30 83 76 32 82 75 29 82 75 29 82 75 29 82 75 29 82 75 29 83 76 30 83 76 30 82 75 29 82 75 29 82 75 29 83 76 30 82 75 29 82 75 29 82 75 29 82 75 29 82 75 29 82 75 29 82 75 29 83 76 30 82 75 29 83 76 30 84 77 31 83 76 30 82 75 29 82 75 29 82 75 29 81 74 28 82 75 29 83 76 30 82 75 29 83 76 30 82 75 29 83 76 30 82 75 29 83 76 30 83 76 30 82 75 29 83 75 29 84 76 30 83 75 29 83 75 29 83 76 30 83 76 30 82 75 29 82 75 29 82 75 29 81 77 30 83 76 30 82 74 28 83 75 29 82 75 29 83 76 30 82 75 29 82 75 29 83 76 30 82 74 28 81 74 28 81 74 28 81 74 28 81 74 28 83 71 29 83 72 27 82 74 28 81 75 27 81 73 27 83 72 27 83 72 27 81 75 27 82 74 28 81 73 26 81 70 25 80 72 26 
83 76 32 82 75 31 82 75 31 83 76 32 82 75 31 84 77 33 84 77 33 82 75 31 83 76 30 82 75 29 82 75 31 82 75 29 82 75 29 81 74 28 83 76 32 82 75 31 82 75 29 83 76 30 83 76 30 83 76 32 83 76 32 82 75 29 82 75 29 82 75 31 83 76 30 84 77 31 82 75 29 83 76 30 83 76 30 82 75 29 83 76 30 81 74 28 82 75 29 82 75 29 82 75 29 81 74 28 81 74 28 81 74 28 82 75 29 83 76 30 82 75 29 82 75 29 82 75 29 82 75 29 83 76 30 83 76 30 83 76 30 82 75 29 82 75 29 83 76 30 83 76 30 83 76 30 83 76 30 82 75 29 82 75 29 83 76 30 82 75 29 82 75 29 81 74 28 82 75 29 82 75 29 82 75 29 82 75 29 83 76 30 83 76 30 82 75 29 82 75 29 82 75 29 82 75 29 83 76 30 82 75 29 83 76 30 82 75 29 82 75 29 81 74 28 82 75 29 82 75 29 83 76 30 82 75 29 82 75 29 82 75 29 82 75 29 82 75 29 80 73 27 83 75 29 81 74 28 81 74 28 81 74 28 82 74 28 82 74 28 81 73 26 85 72 28 81 73 27 84 73 28 82 74 27 81 73 27 81 74 28 82 74 28 81 73 27 81 73 27 
82 75 31 82 75 31 82 75 31 82 75 31 82 75 31 82 75 31 82 75 31 82 75 31 83 76 32 82 75 31 82 75 29 82 75 29 83 76 32 82 75 31 83 76 32 83 76 30 82 75 29 83 76 30 82 75 29 82 75 29 83 76 32 83 76 30 83 76 32 82 75 31 82 75 29 82 75 29 81 74 28 82 75 29 82 75 29 83 76 34 82 75 31 82 75 29 81 74 28 82 75 29 83 76 30 82 75 29 81 74 28 81 74 28 82 75 29 83 76 30 83 76 30 83 76 30 81 74 28 82 75 29 82 75 29 82 75 29 81 74 28 83 76 30 82 75 29 82 75 29 82 75 29 82 75 29 82 75 29 82 75 29 83 76 30 82 75 29 83 75 29 82 75 29 82 75 29 83 76 30 81 74 28 81 74 28 82 75 29 84 76 30 82 75 29 83 76 30 82 75 29 83 76 30 81 74 28 82 75 29 82 75 29 81 74 28 81 77 30 83 76 30 81 74 28 82 74 28 82 75 29 81 74 28 82 75 29 82 74 28 82 75 29 81 74 28 80 76 29 80 73 27 81 74 28 83 76 30 81 74 28 81 74 28 82 74 28 81 74 28 81 73 27 84 71 29 81 73 27 82 74 28 81 74 28 81 72 29 83 72 27 82 74 28 82 75 29 82 74 28 
82 75 31 82 75 31 82 75 31 82 75 31 82 75 31 83 76 32 82 75 31 83 76 32 83 76 32 82 75 31 82 75 29 83 76 30 82 75 31 82 75 31 82 75 31 82 75 31 82 75 29 82 75 29 82 75 29 82 75 29 82 75 29 82 75 29 82 75 31 83 76 32 82 75 29 83 76 30 82 75 29 82 75 31 82 75 29 83 76 32 83 76 30 82 75 31 82 75 29 83 76 30 83 76 30 82 75 29 82 75 29 83 76 30 81 74 28 82 75 29 82 75 29 83 76 30 81 74 28 82 75 29 81 74 28 83 76 30 83 76 30 83 76 30 82 75 29 82 75 29 82 75 29 83 76 30 82 75 29 82 75 29 82 75 29 82 75 29 83 76 30 83 76 30 83 76 30 82 75 29 82 75 29 82 75 29 82 75 29 82 75 29 82 75 29 82 75 29 82 75 29 82 75 29 82 75 29 82 75 29 82 75 29 82 75 29 83 76 30 81 74 28 81 74 28 81 73 27 81 77 30 82 75 29 82 75 29 81 74 28 81 74 28 82 75 29 81 74 28 82 75 29 81 74 28 81 74 28 81 74 28 81 74 28 82 75 29 82 75 29 82 71 26 80 71 28 81 73 27 81 74 28 81 73 27 82 70 28 81 72 29 82 74 28 81 75 27 81 73 27 
82 75 31 82 75 31 83 76 32 82 75 31 83 76 32 82 75 31 82 75 31 83 76 32 82 75 31 82 75 31 82 75 29 82 75 29 82 75 31 83 76 32 82 75 31 82 75 31 82 75 29 83 76 32 82 75 31 82 75 31 82 75 29 82 75 29 82 75 31 82 75 33 82 76 28 82 75 29 81 74 30 83 76 30 82 75 29 83 76 30 82 75 29 83 76 32 83 76 30 83 76 30 81 74 28 82 75 29 82 75 29 82 75 29 82 75 29 82 75 29 82 75 29 82 75 29 82 75 29 81 77 30 81 77 30 81 74 28 82 75 29 83 76 30 82 75 29 82 75 29 83 76 30 82 75 29 82 75 29 82 75 29 82 75 29 81 74 28 83 76 30 83 76 30 83 76 30 81 74 28 82 75 29 82 75 29 82 75 29 82 75 29 82 75 29 82 75 29 82 75 29 82 75 29 82 75 29 81 74 28 81 74 28 82 75 29 83 76 30 81 74 28 82 74 28 81 73 27 82 75 29 82 75 29 83 75 29 82 74 28 81 74 28 81 73 27 81 74 28 81 74 28 83 75 29 81 74 28 82 75 29 82 74 28 82 74 28 82 74 28 81 73 27 79 70 27 81 72 29 81 73 27 82 74 27 82 71 26 81 73 27 84 71 27 81 72 29 81 72 29 
82 75 31 82 75 31 82 75 31 83 76 32 85 78 34 83 76 32 82 75 31 82 75 31 83 76 32 82 75 31 82 75 29 83 76 30 82 75 31 82 75 31 82 75 31 81 74 28 84 77 31 82 75 29 83 76 30 82 75 29 81 74 28 82 75 29 82 75 29 82 75 29 83 76 30 81 74 28 82 75 29 82 75 31 82 75 29 83 76 30 81 74 28 82 75 31 82 75 29 83 76 30 82 75 29 82 75 29 83 76 30 82 75 29 81 74 28 83 76 30 82 75 29 81 74 28 82 75 29 80 76 29 79 75 28 81 74 28 83 76 30 82 75 29 83 76 30 82 75 29 82 75 29 82 75 29 82 75 29 83 76 30 82 75 29 82 75 29 83 75 29 82 75 29 82 75 29 82 75 29 81 74 28 81 74 28 82 75 29 83 75 29 81 74 28 83 76 30 82 75 29 83 76 30 82 75 29 83 76 30 83 76 30 82 75 29 82 75 29 82 74 28 82 74 28 81 74 28 83 75 29 83 76 30 81 74 28 82 74 28 82 74 28 82 74 28 81 74 28 81 74 28 81 74 28 82 75 29 81 73 27 83 72 27 82 74 28 82 74 28 81 73 27 82 70 28 81 72 29 80 73 27 81 74 28 82 70 28 82 71 26 83 72 27 83 71 29 80 71 28 
83 76 32 83 76 32 82 75 31 83 76 32 82 75 31 83 76 32 83 76 32 82 75 31 82 75 31 82 75 31 82 75 31 82 75 31 82 75 29 82 75 29 82 75 29 82 75 29 83 76 30 83 76 30 81 74 28 82 75 31 82 76 28 82 76 28 82 75 29 82 75 29 83 76 30 82 75 29 82 75 31 82 75 29 82 75 31 83 76 30 83 76 32 81 74 30 81 74 28 82 75 29 81 74 28 82 75 29 82 75 29 82 75 29 81 74 28 81 74 28 82 75 31 82 75 31 82 75 31 81 74 28 81 74 28 82 75 29 82 75 29 83 76 30 82 75 29 82 75 29 82 75 29 82 75 29 82 75 29 82 75 29 82 75 29 81 74 28 83 76 30 82 75 29 81 74 28 82 75 29 82 75 29 82 75 29 82 75 29 82 75 29 83 76 30 82 75 29 82 75 29 81 74 28 83 76 30 81 74 28 81 74 28 82 75 29 82 75 29 82 75 29 82 74 28 82 74 28 79 75 28 81 74 28 82 74 28 82 74 28 81 73 27 80 73 27 83 75 29 82 74 28 81 74 28 81 74 28 82 74 28 82 74 28 81 72 29 80 72 26 81 73 27 80 71 28 82 74 28 80 73 27 82 74 28 82 70 28 80 71 28 83 72 27 82 70 28 82 70 28 
82 75 31 82 75 31 82 75 31 81 74 30 83 76 32 82 75 31 83 76 32 82 75 31 82 75 31 82 75 29 83 76 32 82 75 31 81 74 28 82 75 29 82 75 29 83 76 32 82 75 31 81 74 28 82 75 29 83 76 30 81 74 30 83 76 30 83 76 30 81 75 27 83 76 30 82 75 29 82 76 28 82 75 29 82 75 29 82 75 31 82 75 31 81 74 28 83 76 30 82 75 29 82 75 29 82 75 29 81 74 28 82 75 29 80 73 27 82 75 29 82 75 31 81 74 30 82 75 31 81 72 29 82 74 28 82 75 29 81 74 28 83 76 30 84 77 31 83 76 30 82 75 29 82 75 29 82 75 29 82 75 29 82 75 29 82 75 29 84 77 31 82 75 29 81 74 28 82 75 29 82 75 29 82 75 29 82 75 29 82 75 29 82 75 29 82 75 29 82 75 29 81 74 28 82 75 29 81 74 28 82 74 28 84 73 28 83 76 30 82 74 28 81 74 28 78 74 27 81 74 28 81 73 27 81 74 28 81 73 27 83 72 27 82 74 28 82 75 29 81 74 28 81 74 28 81 74 28 82 74 28 80 72 26 80 71 28 82 70 28 83 71 29 80 71 28 81 72 29 80 73 27 81 73 27 81 69 27 80 71 28 81 73 27 84 71 27 82 70 28 
83 76 32 82 75 31 82 75 31 82 75 31 83 76 32 82 75 31 82 75 31 82 75 31 82 75 29 82 75 31 82 75 29 83 76 30 82 75 29 82 76 28 82 76 28 82 75 29 82 75 31 82 75 31 83 76 32 82 75 29 82 75 29 83 76 30 83 76 32 82 75 31 81 74 28 82 75 31 82 75 29 82 75 29 82 75 29 82 75 29 82 75 29 82 75 29 82 75 29 82 75 29 82 75 31 82 75 29 81 74 28 83 76 30 82 75 29 81 74 30 82 75 29 82 75 29 81 74 28 82 75 29 81 74 28 84 77 31 82 75 29 82 75 29 82 75 29 82 75 29 83 76 30 81 74 28 81 74 28 81 74 28 82 75 29 82 75 29 81 74 28 81 74 28 82 75 29 82 75 29 82 75 29 82 75 29 82 75 29 82 75 29 82 75 29 82 75 29 82 75 29 82 75 29 82 75 29 81 74 28 81 74 28 81 74 28 82 75 29 81 74 28 83 76 30 81 74 28 81 74 28 81 74 28 80 73 27 80 73 27 81 74 28 83 72 27 84 73 28 82 73 30 82 74 28 81 72 29 82 75 31 81 74 28 80 71 28 82 70 28 81 73 27 80 73 27 80 73 29 81 73 27 82 74 28 83 70 28 82 70 28 82 70 28 80 71 28 82 70 28 
82 75 31 82 75 31 82 75 31 82 75 31 82 75 31 82 75 31 82 75 31 81 74 30 82 75 31 82 75 31 82 75 29 82 75 29 83 76 32 82 75 31 81 74 28 81 74 28 81 74 28 82 75 31 82 75 31 82 75 29 82 75 31 82 75 29 83 76 32 82 75 31 82 75 29 81 74 28 82 75 31 82 75 29 82 75 31 82 75 29 82 75 29 82 75 29 82 75 29 81 74 28 83 76 32 82 75 31 82 75 31 82 75 29 82 75 29 81 74 28 81 74 28 81 74 28 83 76 30 82 75 29 82 75 29 82 75 29 82 75 29 82 75 29 82 75 29 82 75 29 82 75 29 81 74 28 82 75 29 80 73 27 82 75 29 82 75 29 81 74 28 82 75 29 82 75 29 82 75 29 82 75 29 82 75 29 81 74 28 81 74 28 81 74 28 82 75 29 82 75 29 82 75 29 83 76 30 82 75 29 82 75 29 81 74 28 81 73 27 81 74 28 82 75 29 82 75 29 80 73 27 83 75 29 81 74 28 79 75 28 81 74 28 81 73 27 82 74 28 80 71 28 83 72 27 81 73 27 81 74 28 84 73 28 80 72 26 80 71 28 83 75 29 81 74 28 81 73 27 80 72 26 82 70 28 83 71 29 82 70 28 82 70 28 82 70 28 82 70 28 
82 75 31 82 75 31 82 75 31 82 75 31 82 75 31 83 76 32 82 75 31 82 75 31 82 75 31 81 74 30 81 74 28 81 74 28 82 75 31 82 75 31 83 76 32 82 75 31 82 75 29 82 75 31 81 74 30 82 75 29 82 75 29 82 75 29 82 75 31 82 75 31 81 74 28 81 74 28 82 75 29 82 75 31 81 74 28 82 75 29 82 75 29 81 74 28 82 75 29 82 75 29 82 75 31 82 75 31 82 75 31 83 76 30 81 74 28 82 75 29 82 75 29 81 74 28 82 75 29 81 74 28 83 76 30 82 75 29 82 75 29 82 75 29 81 74 28 83 76 30 83 76 30 82 75 29 82 75 29 82 75 29 82 75 29 82 75 29 82 75 29 82 75 29 82 75 29 82 75 29 83 76 30 81 74 28 82 75 29 81 74 28 81 74 28 79 75 28 82 75 29 82 75 29 81 74 28 81 74 28 81 74 28 81 74 28 81 73 27 80 73 27 81 74 28 82 75 29 82 74 28 81 74 28 81 73 27 81 74 28 81 74 28 81 73 27 81 73 26 80 73 27 81 73 27 81 72 29 81 73 27 82 74 28 81 73 27 80 71 28 81 73 27 81 73 27 81 73 27 80 71 28 82 70 28 82 70 28 80 71 28 82 70 28 80 71 28 83 71 29 
82 75 31 82 75 31 81 74 30 82 75 29 81 74 28 82 75 31 82 75 31 82 75 31 83 76 32 82 75 31 81 74 28 81 74 28 83 76 32 82 75 31 82 75 31 81 74 30 82 75 31 82 75 29 82 75 29 81 74 28 81 74 28 82 75 31 81 74 30 82 75 31 82 75 29 82 75 29 82 75 29 81 74 30 82 76 28 82 75 31 82 75 33 80 73 27 82 75 29 83 76 30 82 75 29 82 75 29 82 75 29 81 74 28 82 75 29 82 75 29 82 75 29 81 74 28 80 73 27 80 73 27 82 75 29 81 74 28 81 74 28 82 75 29 81 74 28 81 74 28 82 75 29 81 74 28 82 75 29 81 74 28 81 74 28 81 74 28 81 74 28 81 74 28 82 75 29 82 75 29 82 75 29 82 75 29 81 74 28 81 74 28 81 74 28 82 75 29 81 74 28 79 75 28 81 73 27 80 73 27 80 73 27 81 73 27 80 73 27 81 73 27 81 74 28 84 73 28 79 75 28 81 73 27 80 73 27 83 75 29 81 74 28 80 73 27 81 73 27 80 73 27 81 75 27 81 73 27 83 72 27 80 71 28 80 73 27 81 73 27 82 71 26 80 71 28 80 71 28 80 71 28 82 70 28 82 70 28 82 70 28 83 71 29 82 70 28 82 70 28 
81 74 30 81 74 30 83 76 32 82 75 29 82 75 29 82 75 31 82 75 31 82 75 31 82 75 31 82 75 31 81 74 28 83 76 30 82 75 31 82 75 31 81 74 30 82 75 31 83 76 32 81 74 28 80 73 27 81 74 28 82 75 29 83 76 32 82 75 31 81 74 30 81 74 28 83 76 30 81 75 27 82 75 29 82 75 29 82 75 31 82 75 33 82 75 29 81 74 28 81 74 28 81 74 28 82 75 29 81 74 28 82 75 29 81 74 28 81 74 28 81 74 28 81 74 28 81 74 28 83 76 30 81 74 28 81 74 28 81 74 28 82 75 29 81 74 28 81 74 28 82 75 29 82 75 29 82 75 29 82 75 29 82 75 29 82 75 29 81 74 28 82 75 29 82 75 29 82 75 29 82 75 29 82 75 29 82 75 29 81 74 28 80 73 27 79 75 28 81 74 28 82 74 28 81 73 27 80 73 27 81 73 27 80 73 27 81 74 28 82 74 28 81 73 27 81 73 27 81 74 28 80 73 27 80 73 27 81 73 27 80 73 27 79 75 28 81 75 27 82 74 27 80 73 27 81 72 29 82 71 26 82 71 25 81 74 30 81 73 27 83 72 27 80 71 28 82 70 28 80 71 28 82 70 28 81 69 27 82 70 28 82 70 28 82 70 28 82 70 28 
82 75 31 82 75 31 82 75 31 81 74 30 82 75 31 82 75 31 82 75 31 82 75 31 82 75 31 81 74 30 82 75 29 82 75 29 82 75 31 80 73 29 81 74 30 82 75 31 82 75 29 81 74 28 81 74 28 82 75 31 81 74 30 81 74 28 82 75 29 82 75 31 81 74 28 82 75 29 81 74 30 81 74 32 82 75 29 82 75 29 82 75 29 81 74 30 82 75 31 82 75 31 82 75 29 81 74 28 82 75 29 81 74 28 81 74 28 81 74 28 81 74 28 81 74 28 81 74 28 82 75 29 81 74 28 81 74 28 81 74 28 81 74 28 82 75 29 81 74 28 82 75 29 82 75 29 81 74 28 80 73 27 81 74 28 81 74 28 81 74 28 81 74 28 82 75 29 82 75 29 82 75 29 81 74 28 81 74 28 80 73 27 82 75 29 82 75 29 81 74 28 80 73 27 82 74 28 82 75 29 81 74 28 82 74 28 80 73 27 81 73 27 80 73 27 82 74 28 81 74 28 81 73 27 80 73 27 81 73 27 80 73 27 81 73 27 81 73 27 81 73 27 81 74 28 82 74 28 81 73 27 81 72 29 81 72 29 81 72 29 81 73 27 82 74 28 81 72 29 81 69 27 82 70 28 82 70 28 80 71 28 80 71 28 82 70 28 80 71 28 
