P3
100 50
255
5 5 15 5 5 15 6 6 16 5 5 15 5 5 15 5 5 15 6 6 16 5 5 15 7 7 15 5 5 15 4 4 12 6 6 16 6 6 16 6 6 14 6 6 16 5 5 13 6 6 14 3 6 15 4 7 16 5 5 13 5 5 13 4 4 12 4 4 12 5 5 13 5 5 13 6 6 14 5 5 13 5 5 13 5 5 13 5 5 13 4 4 12 5 5 13 4 4 12 5 5 13 5 5 13 5 5 13 6 6 14 5 5 13 5 5 13 5 5 13 5 5 13 5 5 13 5 5 13 5 5 13 5 5 13 4 4 12 5 5 13 5 5 13 5 5 13 5 5 13 5 5 13 5 5 13 5 5 13 5 5 13 5 5 13 5 5 13 4 4 12 4 4 12 5 5 13 4 4 12 4 4 12 4 4 12 4 4 12 4 4 12 4 4 12 4 4 12 5 5 13 4 4 12 3 3 11 3 3 11 4 4 12 4 4 12 4 4 12 4 4 12 4 4 12 5 5 13 4 4 12 4 4 12 5 5 13 5 5 13 5 5 13 4 5 10 4 4 12 4 4 12 4 4 12 3 3 11 4 4 12 4 4 12 4 4 12 4 4 12 4 4 12 4 4 12 4 4 12 4 5 10 4 4 12 4 4 12 4 4 12 4 4 12 4 4 12 4 4 12 
6 6 16 6 6 16 5 5 15 6 6 16 6 6 16 6 6 16 6 6 16 5 5 15 5 5 15 5 5 13 6 6 16 6 6 14 5 5 13 5 5 15 7 7 15 6 6 16 6 6 16 3 6 15 2 5 14 7 7 17 5 5 13 5 5 13 5 5 13 5 5 13 6 6 14 5 5 13 5 5 13 6 6 14 5 5 13 5 5 13 4 4 12 5 5 13 5 5 13 5 5 13 5 5 13 5 5 13 5 5 13 5 5 13 4 4 12 4 4 12 5 5 13 5 5 13 5 5 13 5 5 13 5 5 13 4 4 12 5 5 13 5 5 13 5 5 13 5 5 13 5 5 13 5 5 13 5 5 13 5 5 13 5 5 13 5 5 13 5 5 13 3 3 11 4 4 12 4 4 12 4 4 12 5 5 13 5 5 13 4 4 12 4 4 12 5 5 13 5 5 13 4 4 12 4 4 12 4 4 12 4 4 12 3 3 11 4 4 12 4 4 12 2 2 10 4 4 12 4 4 12 4 4 12 5 5 13 4 4 12 4 4 12 4 4 12 5 6 11 4 5 10 4 5 10 4 5 10 4 4 12 4 4 12 4 4 12 4 4 12 4 4 12 4 4 12 4 4 12 4 4 12 4 4 12 4 5 10 4 4 12 4 4 12 4 4 12 4 4 12 
6 6 16 5 5 15 5 5 15 6 6 16 5 5 15 6 6 16 5 5 15 5 5 15 6 6 14 6 6 16 6 6 14 6 6 16 6 6 16 5 5 13 6 6 16 6 6 14 6 6 16 5 5 15 6 6 16 6 6 16 5 5 13 6 6 14 6 6 14 5 5 13 5 5 13 5 5 13 5 5 13 5 5 13 5 5 13 5 5 13 5 5 13 5 5 13 5 5 13 5 5 13 5 5 13 5 5 13 5 5 13 5 5 13 5 5 13 6 6 14 5 5 13 5 5 13 5 5 13 5 5 13 5 5 13 4 4 12 5 5 13 4 4 12 5 5 13 5 5 13 5 5 13 5 5 13 5 5 13 5 5 13 5 5 13 5 5 13 5 5 13 5 5 13 4 4 12 4 4 12 4 4 12 4 4 12 5 5 13 4 4 12 4 4 12 4 4 12 4 4 12 5 5 13 4 4 12 4 4 12 4 4 12 4 4 12 5 5 13 3 3 11 4 4 12 4 4 12 4 4 12 6 6 14 5 5 13 4 4 12 3 3 11 4 4 12 4 5 10 4 5 10 4 5 10 4 5 10 4 4 12 3 3 11 4 4 12 4 4 12 4 4 12 4 4 12 4 5 10 4 5 10 4 5 10 4 4 12 4 4 12 4 4 12 4 4 12 4 4 12 
5 5 15 5 5 15 6 6 16 5 5 15 6 6 16 6 6 16 6 6 16 5 5 15 6 6 16 6 6 14 5 5 15 5 5 13 6 6 14 6 6 16 5 5 13 5 5 15 6 6 14 3 6 15 3 6 15 5 5 13 5 5 13 5 5 13 4 4 12 6 6 14 6 6 14 4 4 12 6 6 14 5 5 13 5 5 13 5 5 13 5 5 13 5 5 13 4 4 12 4 4 12 5 5 13 5 5 13 5 5 13 5 5 13 5 5 13 4 4 12 5 5 13 5 5 13 5 5 13 5 5 13 5 5 13 4 4 12 5 5 13 4 4 12 5 5 13 5 5 13 5 5 13 5 5 13 5 5 13 5 5 13 5 5 13 5 5 13 4 4 12 5 5 13 5 5 13 4 4 12 5 5 13 5 5 13 4 4 12 4 4 12 4 4 12 4 4 12 4 4 12 4 4 12 5 5 13 4 4 12 4 4 12 5 5 13 4 4 12 4 4 12 3 3 11 5 5 13 3 3 11 4 4 12 5 5 13 5 5 13 4 4 12 4 5 10 5 5 13 5 5 13 4 4 12 4 4 12 4 4 12 3 3 11 4 4 12 4 4 12 4 4 12 4 4 12 4 4 12 4 4 12 4 5 10 4 5 10 4 4 12 4 4 12 4 4 12 4 4 12 
6 6 14 6 7 12 5 5 13 6 6 16 5 5 15 5 5 13 4 5 10 5 5 13 6 6 14 5 5 15 6 6 14 6 6 14 5 5 15 6 6 16 6 6 14 5 5 15 4 4 14 5 5 17 5 5 17 5 5 13 6 6 14 5 5 15 5 5 15 6 6 14 6 6 14 6 6 14 5 5 13 6 6 14 6 6 14 5 5 13 4 4 12 4 4 12 6 6 14 4 4 12 4 4 12 5 5 13 5 5 13 5 5 13 6 6 14 4 4 12 5 5 13 5 5 13 4 4 12 5 5 13 5 5 13 5 5 13 3 3 11 4 4 12 5 5 13 5 5 13 5 5 13 5 5 13 5 5 13 5 5 13 5 5 13 5 5 13 5 5 13 5 5 13 5 5 13 4 4 12 3 3 11 4 4 12 4 4 12 5 5 13 4 4 12 4 4 12 5 5 13 4 4 12 6 6 14 4 4 12 4 4 12 4 4 12 5 5 13 5 5 13 4 4 12 5 5 13 4 4 12 4 4 12 3 3 11 4 5 10 4 5 10 4 5 10 5 5 13 4 4 12 4 4 12 3 3 11 4 4 12 4 4 12 4 4 12 4 4 12 4 4 12 4 4 12 4 4 12 4 4 12 4 4 12 4 5 10 3 3 11 4 4 12 3 3 11 4 4 12 
5 5 13 6 6 16 6 6 14 5 5 13 5 5 13 6 6 14 6 6 16 5 5 13 6 6 14 6 6 14 6 6 14 5 5 13 7 7 17 6 6 16 6 6 16 5 5 15 5 5 15 5 5 15 5 5 15 6 6 14 6 6 14 5 5 15 5 5 15 4 4 12 5 5 13 5 5 13 6 6 14 5 5 13 5 5 13 4 4 12 5 5 13 5 5 13 5 5 13 5 5 13 5 5 13 6 6 14 4 4 12 5 5 13 5 5 13 5 5 13 5 5 13 5 5 13 5 5 13 5 5 13 5 5 13 5 5 13 5 5 13 4 4 12 5 5 13 5 5 13 5 5 13 5 5 13 5 5 13 5 5 13 5 5 13 5 5 13 5 5 13 5 5 13 5 5 13 4 4 12 4 4 12 4 4 12 4 4 12 4 4 12 4 4 12 4 4 12 4 4 12 4 4 12 5 5 13 4 4 12 4 4 12 4 4 12 4 4 12 4 4 12 3 3 11 4 4 12 4 4 12 5 5 13 4 4 12 4 5 10 4 5 10 4 5 10 5 5 13 4 4 12 4 4 12 3 3 11 4 4 12 4 4 12 4 4 12 4 4 12 4 4 12 4 4 12 4 4 12 4 4 12 4 4 12 4 5 10 3 3 11 3 3 11 4 4 12 3 3 11 
6 6 16 5 5 15 5 5 15 7 7 15 5 5 13 6 6 16 5 5 15 6 6 16 5 5 13 6 6 16 5 5 13 6 6 14 6 6 16 6 6 16 5 5 13 5 5 15 4 4 14 5 5 15 5 5 15 5 5 13 6 6 14 5 5 15 5 5 15 6 6 14 5 5 13 5 5 13 5 5 13 4 4 12 5 5 13 6 6 14 5 5 13 4 4 12 5 5 13 5 5 13 5 5 13 5 5 13 5 5 13 5 5 13 5 5 13 5 5 13 5 5 13 5 5 13 5 5 13 5 5 13 4 4 12 4 4 12 4 4 12 4 4 12 5 5 13 5 5 13 5 5 13 5 5 13 5 5 13 5 5 13 5 5 13 5 5 13 4 4 12 7 7 15 4 4 12 4 4 12 4 4 12 5 5 13 4 4 12 4 4 12 3 3 11 4 4 12 4 4 12 4 4 12 3 3 11 3 3 11 4 4 12 4 4 12 3 3 11 3 3 11 4 4 12 4 4 12 4 4 12 4 4 12 5 5 13 5 6 11 4 5 10 4 5 10 5 5 13 4 4 12 4 4 12 3 3 11 4 4 12 4 4 12 4 4 12 4 4 12 4 4 12 4 4 12 4 4 12 4 4 12 4 4 12 4 5 10 4 4 12 3 3 11 4 4 12 3 3 11 
6 6 14 5 5 15 5 5 13 6 6 16 5 5 15 6 6 14 5 5 15 5 5 13 6 6 14 6 6 14 4 4 12 5 5 13 5 5 15 4 4 14 5 5 15 6 6 16 5 5 15 5 5 15 5 5 15 6 6 14 5 5 13 5 5 13 5 5 13 5 5 13 5 5 13 5 5 13 5 5 13 5 5 13 5 5 13 5 5 13 5 5 13 4 4 12 5 5 13 5 5 13 4 4 12 5 5 13 5 5 13 5 5 13 4 4 12 5 5 13 5 5 13 5 5 13 6 6 14 5 5 13 5 5 13 4 4 12 5 5 13 5 5 13 5 5 13 5 5 13 5 5 13 5 5 13 5 5 13 5 5 13 5 5 13 5 5 13 5 5 13 4 4 12 5 5 13 5 5 13 5 5 13 4 4 12 4 4 12 4 4 12 5 5 13 4 4 12 4 4 12 4 4 12 4 4 12 4 4 12 4 4 12 4 4 12 3 3 11 4 4 12 4 4 12 4 4 12 4 4 12 4 4 12 4 4 12 4 5 10 4 5 10 4 5 10 5 5 13 4 4 12 4 4 12 3 3 11 4 4 12 4 4 12 4 4 12 4 4 12 4 4 12 4 4 12 4 4 12 4 4 12 4 4 12 4 5 10 4 4 12 3 3 11 3 3 11 3 3 11 
5 5 13 6 6 14 5 5 15 5 5 13 5 5 13 6 6 16 5 5 13 5 5 13 4 4 12 5 5 13 7 7 15 5 5 13 6 6 16 6 6 16 5 5 15 5 5 15 5 5 15 5 5 15 5 5 15 5 5 13 6 6 14 5 5 13 5 5 13 5 5 13 5 5 13 5 5 13 5 5 13 6 6 14 5 5 13 4 4 12 5 5 13 5 5 13 4 4 12 6 6 14 4 4 12 5 5 13 4 4 12 5 5 13 5 5 13 5 5 13 4 4 12 5 5 13 5 5 13 5 5 13 4 4 12 4 4 12 4 4 12 4 4 12 5 5 13 5 5 13 5 5 13 5 5 13 5 5 13 5 5 13 5 5 13 5 5 13 4 4 12 5 5 13 5 5 13 5 5 13 4 4 12 4 4 12 4 4 12 4 4 12 4 4 12 4 4 12 4 4 12 4 4 12 4 4 12 4 4 12 4 4 12 3 3 11 4 4 12 4 4 12 4 4 12 4 4 12 4 4 12 4 4 12 4 4 12 4 5 10 4 5 10 4 5 10 5 5 13 4 4 12 4 4 12 3 3 11 4 4 12 4 4 12 4 5 10 4 4 12 4 4 12 4 4 12 4 4 12 4 4 12 4 4 12 4 4 12 3 3 11 3 3 11 3 3 11 3 3 11 
6 6 14 6 6 16 5 5 13 6 6 14 6 6 14 5 5 13 5 5 15 5 5 13 6 6 14 6 6 14 5 5 13 5 5 15 6 6 14 6 6 16 5 5 15 5 5 15 5 5 15 5 5 15 4 4 14 5 5 13 5 5 13 6 6 14 5 5 13 6 6 14 5 5 13 5 5 13 5 5 13 5 5 13 5 5 13 5 5 13 4 4 12 5 5 13 5 5 13 5 5 13 5 5 13 5 5 13 5 5 13 5 5 13 5 5 13 5 5 13 5 5 13 5 5 13 6 6 14 5 5 13 6 6 14 5 5 13 5 5 13 5 5 13 5 5 13 5 5 13 5 5 13 5 5 13 5 5 13 5 5 13 5 5 13 5 5 13 4 4 12 5 5 13 5 5 13 4 4 12 4 4 12 4 4 12 2 2 10 4 4 12 3 3 11 4 4 12 4 4 12 5 5 13 4 4 12 4 4 12 4 4 12 4 4 12 4 4 12 4 4 12 4 4 12 4 4 12 4 4 12 4 4 12 4 4 12 4 5 10 4 5 10 4 5 10 5 5 13 4 4 12 4 4 12 3 3 11 4 4 12 4 4 12 4 5 10 4 4 12 4 4 12 4 4 12 4 4 12 4 4 12 4 4 12 4 4 12 3 3 11 4 4 12 3 3 11 3 3 11 
6 6 16 6 6 14 5 5 13 6 6 14 5 5 13 6 6 14 5 5 13 5 5 15 4 4 12 5 5 13 6 7 12 5 5 15 5 5 13 5 5 17 5 5 15 5 5 15 5 5 15 5 5 15 6 6 16 5 5 13 5 5 13 5 5 13 4 4 12 5 5 13 5 5 13 5 5 13 6 6 14 5 5 13 6 6 14 4 4 12 4 4 12 5 5 13 5 5 13 5 5 13 5 5 13 5 5 13 5 5 13 5 5 13 5 5 13 5 5 13 5 5 13 5 5 13 5 5 13 5 5 13 5 5 13 5 5 13 4 4 12 4 4 12 5 5 13 5 5 13 5 5 13 5 5 13 5 5 13 5 5 13 5 5 13 5 5 13 4 4 12 5 5 13 5 5 13 4 4 12 4 4 12 4 4 12 4 4 12 4 4 12 4 4 12 5 5 13 4 4 12 4 4 12 4 4 12 5 5 13 5 5 13 5 5 13 3 3 11 4 4 12 4 4 12 4 4 12 4 4 12 4 4 12 4 4 12 4 5 10 4 5 10 4 5 10 5 5 13 4 4 12 4 4 12 3 3 11 4 4 12 4 4 12 4 5 10 4 4 12 4 4 12 4 4 12 4 4 12 4 4 12 4 4 12 4 4 12 3 3 11 3 3 11 3 3 11 3 3 11 
6 6 14 5 5 13 5 5 13 5 5 15 5 5 15 6 6 14 5 5 13 5 5 13 4 4 12 5 5 13 5 5 13 5 5 15 5 5 13 6 6 16 6 6 16 3 3 13 5 5 15 5 5 15 4 4 16 5 5 13 5 5 13 6 6 14 5 5 13 6 6 14 6 6 14 6 6 14 6 6 14 6 6 14 4 4 12 5 5 13 5 5 13 4 4 12 5 5 13 4 4 12 6 6 14 5 5 13 4 4 12 5 5 13 5 5 13 5 5 13 6 6 14 5 5 13 5 5 13 5 5 13 5 5 13 5 5 13 5 5 13 4 4 12 5 5 13 5 5 13 5 5 13 5 5 13 5 5 13 5 5 13 5 5 13 5 5 13 5 5 13 5 5 13 5 5 13 5 5 13 5 5 13 4 4 12 4 4 12 4 4 12 4 4 12 4 4 12 4 4 12 3 3 11 4 4 12 4 4 12 4 4 12 4 4 12 4 4 12 4 4 12 4 4 12 3 3 11 4 4 12 4 4 12 4 4 12 3 4 9 4 5 10 4 5 10 5 5 13 4 4 12 4 4 12 3 3 11 4 4 12 4 4 12 4 5 10 4 4 12 4 4 12 4 4 12 4 4 12 4 4 12 4 4 12 4 4 12 3 3 11 3 3 11 5 5 13 3 3 11 
6 6 14 6 6 14 5 5 13 5 5 13 6 6 14 5 5 13 6 6 14 5 5 13 5 5 13 6 6 14 6 6 14 6 6 14 5 5 15 5 5 15 5 5 15 5 5 15 5 5 15 4 4 14 5 5 15 5 5 13 5 5 13 5 5 13 5 5 13 6 6 14 6 6 14 5 5 13 6 6 14 5 5 13 5 5 13 4 4 12 5 5 13 5 5 13 5 5 13 5 5 13 5 5 13 5 5 13 5 5 13 5 5 13 5 5 13 5 5 13 5 5 13 5 5 13 5 5 13 5 5 13 5 5 13 5 5 13 5 5 13 5 5 13 5 5 13 5 5 13 5 5 13 5 5 13 5 5 13 5 5 13 5 5 13 5 5 13 4 4 12 5 5 13 4 4 12 4 4 12 4 4 12 4 4 12 4 4 12 4 4 12 3 3 11 4 4 12 4 4 12 4 4 12 4 4 12 4 4 12 4 4 12 4 4 12 5 5 13 3 3 11 4 4 12 4 4 12 4 4 12 4 4 12 4 4 12 4 5 10 4 5 10 4 5 10 4 4 12 4 4 12 3 3 11 4 4 12 4 4 12 3 3 11 4 4 12 3 3 11 4 4 12 3 3 11 4 5 10 4 5 10 4 5 10 3 4 9 4 4 12 3 3 11 3 3 11 3 3 11 
6 6 14 6 6 14 5 5 13 5 5 13 6 6 14 4 4 12 6 6 14 6 6 14 5 5 13 5 5 13 5 5 13 5 5 13 5 5 15 5 5 15 5 5 15 5 5 15 5 5 15 5 5 15 5 5 15 5 5 13 6 6 14 6 6 14 5 5 13 5 5 13 5 5 13 5 5 13 5 5 13 6 6 14 4 4 12 5 5 13 6 6 14 5 5 13 5 5 13 5 5 13 5 5 13 5 5 13 5 5 13 5 5 13 5 5 13 5 5 13 5 5 13 5 5 13 5 5 13 5 5 13 5 5 13 5 5 13 5 5 13 5 5 13 5 5 13 5 5 13 5 5 13 5 5 13 5 5 13 5 5 13 5 5 13 5 5 13 5 5 13 5 5 13 5 5 13 4 4 12 4 4 12 4 4 12 4 4 12 4 4 12 4 4 12 4 4 12 4 4 12 3 3 11 4 4 12 3 3 11 4 4 12 4 4 12 4 4 12 4 4 12 4 4 12 4 4 12 4 4 12 5 5 13 4 4 12 5 6 11 4 5 10 4 5 10 4 4 12 4 4 12 3 3 11 4 4 12 4 4 12 3 3 11 4 4 12 3 3 11 4 4 12 3 3 11 4 5 10 4 5 10 4 5 10 3 3 11 3 3 11 3 3 11 3 3 11 4 4 12 
6 6 14 6 6 14 5 5 13 5 5 13 7 7 15 4 4 12 6 6 14 5 5 13 6 6 14 5 5 13 5 5 13 5 5 13 6 6 16 6 6 16 5 5 15 4 4 14 5 5 15 5 5 15 5 5 15 5 5 13 5 5 13 5 5 13 5 5 13 5 5 13 6 6 14 6 6 14 5 5 13 4 4 12 5 5 13 5 5 13 5 5 13 4 4 12 5 5 13 5 5 13 5 5 13 5 5 13 5 5 13 5 5 13 5 5 13 5 5 13 5 5 13 5 5 13 5 5 13 5 5 13 5 5 13 5 5 13 5 5 13 5 5 13 5 5 13 5 5 13 5 5 13 5 5 13 5 5 13 5 5 13 5 5 13 5 5 13 4 4 12 5 5 13 4 4 12 4 4 12 4 4 12 4 4 12 4 4 12 4 4 12 4 4 12 4 4 12 4 4 12 4 4 12 4 4 12 3 3 11 4 4 12 4 4 12 2 2 10 4 4 12 4 4 12 4 4 12 3 3 11 4 4 12 4 4 12 5 6 11 4 5 10 4 5 10 4 4 12 4 4 12 3 3 11 4 4 12 4 4 12 3 3 11 4 4 12 3 3 11 4 4 12 3 3 11 4 4 12 4 5 10 4 4 12 3 3 11 3 3 11 3 3 11 3 3 11 4 4 12 
5 5 13 6 6 14 6 6 14 6 6 14 7 7 15 5 5 13 6 6 14 5 5 13 5 5 13 5 5 13 6 6 14 5 5 13 6 6 16 6 6 16 6 6 16 5 5 15 6 6 16 4 4 14 5 5 15 5 5 13 5 5 13 6 6 14 5 5 13 4 4 12 6 6 14 5 5 13 4 4 12 5 5 13 5 5 13 5 5 13 5 5 13 5 5 13 5 5 13 5 5 13 5 5 13 5 5 13 5 5 13 5 5 13 5 5 13 5 5 13 5 5 13 5 5 13 5 5 13 5 5 13 5 5 13 5 5 13 5 5 13 5 5 13 5 5 13 5 5 13 5 5 13 5 5 13 5 5 13 5 5 13 5 5 13 5 5 13 4 4 12 5 5 13 5 5 13 4 4 12 4 4 12 4 4 12 4 4 12 4 4 12 3 3 11 4 4 12 5 5 13 4 4 12 4 4 12 4 4 12 4 4 12 3 3 11 4 4 12 4 4 12 4 4 12 4 4 12 4 4 12 4 4 12 5 5 13 5 6 11 4 5 10 4 5 10 4 4 12 4 4 12 3 3 11 4 4 12 4 4 12 3 3 11 4 4 12 3 3 11 4 4 12 3 3 11 4 5 10 4 5 10 4 5 10 3 3 11 4 4 12 3 3 11 3 3 11 3 3 11 
6 6 14 6 6 14 5 5 13 5 5 13 5 5 13 5 5 13 6 6 14 6 6 14 5 5 13 6 6 14 6 6 14 5 5 13 5 5 15 5 5 15 5 5 15 5 5 15 5 5 15 5 5 15 4 4 14 6 6 14 6 6 14 5 5 13 5 5 13 4 4 12 5 5 13 5 5 13 6 6 14 5 5 13 5 5 13 5 5 13 4 4 12 4 4 12 5 5 13 5 5 13 5 5 13 5 5 13 5 5 13 5 5 13 5 5 13 5 5 13 5 5 13 5 5 13 5 5 13 5 5 13 5 5 13 5 5 13 5 5 13 5 5 13 5 5 13 5 5 13 5 5 13 5 5 13 5 5 13 5 5 13 5 5 13 5 5 13 4 4 12 5 5 13 5 5 13 4 4 12 4 4 12 4 4 12 4 4 12 4 4 12 4 4 12 4 4 12 3 3 11 4 4 12 4 4 12 4 4 12 4 4 12 4 4 12 4 4 12 4 4 12 4 4 12 4 4 12 4 4 12 4 4 12 5 5 13 4 5 10 4 5 10 4 5 10 4 4 12 4 4 12 3 3 11 4 4 12 4 4 12 3 3 11 4 4 12 3 3 11 4 4 12 3 3 11 4 5 10 4 5 10 4 5 10 3 3 11 4 4 12 3 3 11 3 3 11 3 3 11 
5 5 13 5 5 13 5 5 13 6 6 14 5 5 13 5 5 13 5 5 13 6 6 14 5 5 13 5 5 13 5 5 13 5 5 13 5 5 15 5 5 15 5 5 15 5 5 15 5 5 15 5 5 15 5 5 15 6 6 14 5 5 13 5 5 13 5 5 13 5 5 13 5 5 13 5 5 13 5 5 13 5 5 13 5 5 13 5 5 13 3 3 11 5 5 13 5 5 13 5 5 13 5 5 13 5 5 13 5 5 13 5 5 13 5 5 13 5 5 13 5 5 13 5 5 13 5 5 13 5 5 13 5 5 13 5 5 13 5 5 13 5 5 13 5 5 13 5 5 13 5 5 13 5 5 13 5 5 13 5 5 13 5 5 13 5 5 13 4 4 12 5 5 13 4 4 12 4 4 12 4 4 12 4 4 12 4 4 12 4 4 12 4 4 12 4 4 12 4 4 12 3 3 11 4 4 12 4 4 12 5 5 13 4 4 12 4 4 12 4 4 12 3 3 11 3 3 11 4 4 12 5 5 13 4 4 12 3 4 9 4 5 10 4 5 10 4 4 12 4 4 12 3 3 11 4 4 12 4 4 12 3 3 11 4 4 12 3 3 11 4 4 12 3 3 11 4 4 12 4 5 10 4 4 12 3 3 11 3 3 11 3 3 11 3 3 11 4 4 12 
5 5 13 5 5 13 4 4 12 5 5 13 5 5 13 5 5 13 5 5 13 6 6 14 5 5 13 6 6 14 6 6 14 6 6 14 5 5 15 5 5 15 4 4 14 5 5 15 5 5 15 6 6 16 4 4 14 4 4 12 6 6 14 6 6 14 5 5 13 5 5 13 6 6 14 5 5 13 5 5 13 4 4 12 5 5 13 4 4 12 5 5 13 5 5 13 5 5 13 5 5 13 5 5 13 4 4 12 4 4 12 5 5 13 5 5 13 5 5 13 5 5 13 5 5 13 5 5 13 5 5 13 5 5 13 5 5 13 5 5 13 5 5 13 5 5 13 5 5 13 5 5 13 5 5 13 5 5 13 5 5 13 5 5 13 5 5 13 5 5 13 5 5 13 5 5 13 4 4 12 4 4 12 4 4 12 4 4 12 4 4 12 4 4 12 4 4 12 4 4 12 4 4 12 4 4 12 4 4 12 4 4 12 4 4 12 4 4 12 4 4 12 4 4 12 4 4 12 4 4 12 5 5 13 4 4 12 5 6 11 4 5 10 4 5 10 4 4 12 4 4 12 3 3 11 4 4 12 4 4 12 3 3 11 4 4 12 3 3 11 4 4 12 3 3 11 4 5 10 4 5 10 4 5 10 3 3 11 3 3 11 3 3 11 3 3 11 4 4 12 
4 4 12 5 5 13 5 5 13 5 5 13 5 5 13 5 5 13 5 5 13 5 5 13 6 6 14 6 6 14 5 5 13 5 5 13 5 5 15 6 6 16 5 5 15 4 4 14 4 4 14 5 5 15 5 5 15 5 5 13 5 5 13 5 5 13 6 6 14 5 5 13 5 5 13 7 7 15 5 5 13 5 5 13 5 5 13 5 5 13 5 5 13 5 5 13 5 5 13 5 5 13 4 4 12 4 4 12 4 4 12 4 4 12 5 5 13 5 5 13 5 5 13 5 5 13 5 5 13 5 5 13 5 5 13 5 5 13 5 5 13 5 5 13 5 5 13 5 5 13 5 5 13 5 5 13 5 5 13 5 5 13 5 5 13 5 5 13 4 4 12 5 5 13 4 4 12 4 4 12 4 4 12 4 4 12 4 4 12 4 4 12 4 4 12 4 4 12 4 4 12 5 5 13 4 4 12 3 3 11 3 3 11 4 4 12 4 4 12 3 3 11 4 4 12 4 4 12 4 4 12 4 4 12 4 4 12 5 6 11 4 5 10 4 5 10 4 4 12 4 4 12 3 3 11 4 4 12 4 4 12 3 3 11 4 4 12 3 3 11 4 4 12 3 3 11 4 5 10 4 5 10 4 5 10 3 4 9 4 4 12 3 3 11 3 3 11 3 3 11 
5 5 13 5 5 13 6 6 14 6 6 14 5 5 13 5 5 13 5 5 13 6 6 14 5 5 13 6 6 14 5 5 13 6 6 14 4 4 12 5 5 13 5 5 15 3 6 15 5 5 15 5 5 15 5 5 15 5 5 13 4 4 12 5 5 13 5 5 13 6 6 14 5 5 13 4 4 12 4 4 12 4 4 12 5 5 13 5 5 13 3 3 11 6 6 14 5 5 13 5 5 13 5 5 13 5 5 13 5 5 13 5 5 13 5 5 13 5 5 13 5 5 13 5 5 13 5 5 13 5 5 13 4 4 12 4 4 12 4 4 12 4 4 12 4 4 12 5 5 13 4 4 12 4 4 12 4 4 12 4 4 12 5 5 13 4 4 12 5 5 13 4 4 12 3 3 11 4 4 12 4 4 12 4 4 12 4 4 12 3 3 11 4 4 12 4 4 12 4 4 12 4 4 12 4 4 12 4 4 12 4 4 12 4 4 12 4 5 10 4 4 12 3 3 11 4 4 12 4 4 12 4 4 12 4 4 12 4 4 12 4 5 10 4 5 10 4 4 12 3 3 11 4 4 12 3 3 11 3 3 11 4 4 12 3 3 11 3 3 11 3 3 11 4 4 12 4 5 10 4 5 10 3 4 9 3 3 11 3 3 11 3 3 11 3 4 9 3 3 11 
5 5 13 5 5 13 6 6 14 5 5 13 5 5 13 5 5 13 5 5 13 5 5 13 6 6 14 6 6 14 6 6 14 6 6 14 6 6 14 6 6 14 5 5 15 3 6 15 5 5 15 5 5 15 4 4 14 5 5 13 6 6 14 3 3 11 6 6 14 5 5 13 5 5 13 5 5 13 5 5 13 3 3 11 5 5 13 6 6 14 4 4 12 4 4 12 5 5 13 5 5 13 5 5 13 5 5 13 5 5 13 5 5 13 5 5 13 5 5 13 5 5 13 5 5 13 4 4 12 4 4 12 5 5 13 5 5 13 4 4 12 4 4 12 5 5 13 5 5 13 4 4 12 4 4 12 4 4 12 4 4 12 5 5 13 5 5 13 4 4 12 4 4 12 3 3 11 3 3 11 4 4 12 4 4 12 4 4 12 4 4 12 4 4 12 4 4 12 4 4 12 4 4 12 4 4 12 4 4 12 4 4 12 4 4 12 4 5 10 4 4 12 3 3 11 4 4 12 4 4 12 4 4 12 4 4 12 4 4 12 4 5 10 4 5 10 4 4 12 3 3 11 4 4 12 4 4 12 4 4 12 4 4 12 4 4 12 4 4 12 3 3 11 3 3 11 3 4 9 4 5 10 4 5 10 4 4 12 3 3 11 3 3 11 3 4 9 3 3 11 
6 6 14 5 5 13 4 4 12 5 5 13 6 6 14 6 6 14 5 5 13 5 5 13 5 5 13 5 5 13 5 5 13 5 5 13 5 5 13 6 6 14 5 5 15 3 6 15 4 4 14 5 5 15 5 5 15 5 5 13 5 5 13 5 5 13 5 5 13 5 5 13 5 5 13 6 6 14 4 4 12 5 5 13 5 5 13 5 5 13 5 5 13 5 5 13 5 5 13 5 5 13 5 5 13 5 5 13 5 5 13 5 5 13 5 5 13 5 5 13 5 5 13 5 5 13 5 5 13 5 5 13 4 4 12 4 4 12 4 4 12 4 4 12 5 5 13 5 5 13 4 4 12 5 5 13 5 5 13 4 4 12 5 5 13 5 5 13 5 5 13 5 5 13 4 4 12 4 4 12 5 5 13 4 4 12 3 3 11 4 4 12 4 4 12 4 4 12 4 4 12 4 4 12 4 4 12 4 4 12 4 4 12 4 4 12 4 4 12 4 4 12 4 4 12 4 4 12 4 4 12 4 4 12 4 4 12 4 5 10 4 5 10 4 5 10 5 5 13 4 4 12 3 3 11 3 3 11 3 3 11 4 4 12 4 4 12 4 4 12 3 3 11 3 3 11 3 4 9 4 5 10 4 5 10 4 4 12 3 3 11 3 3 11 3 4 9 4 4 12 
5 5 13 5 5 13 6 6 14 5 5 13 5 5 13 6 6 14 5 5 13 6 6 14 5 5 13 5 5 13 5 5 13 6 6 14 5 5 13 5 5 13 4 4 14 2 5 14 5 5 15 5 5 13 5 5 13 5 5 13 5 5 13 5 5 13 4 4 12 5 5 13 5 5 13 5 5 13 5 5 13 5 5 13 5 5 13 5 5 13 5 5 13 5 5 13 5 5 13 5 5 13 5 5 13 5 5 13 5 5 13 5 5 13 5 5 13 5 5 13 4 4 12 5 5 13 5 5 13 5 5 13 4 4 12 4 4 12 4 4 12 5 5 13 5 5 13 4 4 12 5 5 13 5 5 13 5 5 13 5 5 13 4 4 12 5 5 13 5 5 13 4 4 12 4 4 12 4 4 12 4 4 12 4 4 12 4 4 12 5 5 13 4 4 12 4 4 12 4 4 12 4 4 12 4 4 12 4 4 12 4 4 12 4 4 12 3 3 11 3 3 11 4 4 12 3 3 11 4 4 12 5 5 13 4 5 10 4 5 10 4 5 10 4 5 10 4 4 12 3 3 11 4 4 12 4 4 12 4 4 12 3 3 11 3 3 11 3 3 11 3 3 11 4 4 12 4 5 10 4 5 10 3 4 9 3 3 11 4 4 12 4 4 12 2 3 8 3 3 11 
6 6 14 5 5 13 4 4 12 6 6 14 5 5 13 5 5 13 6 6 14 5 5 13 5 5 13 5 5 13 5 5 13 6 6 14 5 5 13 5 5 13 5 5 15 3 6 15 5 5 15 6 6 14 5 5 13 5 5 13 6 6 14 5 5 13 6 6 14 6 6 14 4 4 12 4 4 12 5 5 13 5 5 13 5 5 13 6 6 14 5 5 13 4 4 12 5 5 13 5 5 13 5 5 13 5 5 13 5 5 13 5 5 13 5 5 13 5 5 13 5 5 13 5 5 13 4 4 12 4 4 12 5 5 13 5 5 13 4 4 12 4 4 12 5 5 13 5 5 13 5 5 13 5 5 13 5 5 13 5 5 13 5 5 13 5 5 13 5 5 13 4 4 12 4 4 12 4 4 12 4 4 12 4 4 12 3 3 11 4 4 12 4 4 12 4 4 12 4 4 12 4 4 12 4 4 12 4 4 12 4 4 12 4 4 12 4 4 12 4 4 12 4 4 12 4 4 12 4 4 12 5 6 11 4 5 10 4 5 10 4 5 10 4 5 10 3 3 11 4 4 12 3 3 11 3 3 11 3 3 11 4 4 12 3 3 11 3 3 11 3 3 11 4 4 12 4 5 10 4 5 10 3 4 9 3 3 11 3 3 11 3 3 11 3 4 9 3 3 11 
6 6 14 4 4 12 5 5 13 5 5 13 5 5 13 6 6 14 6 6 14 4 4 12 6 6 14 5 5 13 5 5 13 5 5 13 6 6 14 5 5 13 4 4 14 3 6 15 5 5 15 5 5 13 5 5 13 5 5 13 5 5 13 4 4 12 5 5 13 6 6 14 5 5 13 5 5 13 5 5 13 5 5 13 5 5 13 4 4 12 5 5 13 4 4 12 5 5 13 5 5 13 5 5 13 5 5 13 5 5 13 5 5 13 5 5 13 5 5 13 5 5 13 5 5 13 5 5 13 5 5 13 4 4 12 4 4 12 4 4 12 4 4 12 4 4 12 5 5 13 5 5 13 5 5 13 5 5 13 5 5 13 5 5 13 4 4 12 5 5 13 4 4 12 4 4 12 4 4 12 4 4 12 4 4 12 4 4 12 4 4 12 4 4 12 4 4 12 4 4 12 4 4 12 4 4 12 4 4 12 4 4 12 4 4 12 4 4 12 3 3 11 4 4 12 3 3 11 4 4 12 4 5 10 4 5 10 4 5 10 6 7 12 4 5 10 4 4 12 3 3 11 4 4 12 4 4 12 4 4 12 3 3 11 4 4 12 4 4 12 3 3 11 3 3 11 3 4 9 4 5 10 4 5 10 4 4 12 4 4 12 3 3 11 4 5 10 3 3 11 
5 5 13 5 5 13 4 4 12 5 5 13 5 5 13 5 5 13 6 6 14 5 5 13 6 6 14 5 5 13 5 5 13 5 5 13 7 7 15 6 6 14 5 5 15 3 6 15 5 5 13 5 5 13 5 5 13 5 5 13 5 5 13 5 5 13 6 6 14 5 5 15 5 5 13 5 5 13 5 5 13 5 5 13 4 4 12 5 5 13 4 4 12 5 5 13 5 5 13 5 5 13 5 5 13 5 5 13 5 5 13 5 5 13 5 5 13 5 5 13 4 4 12 5 5 13 5 5 13 5 5 13 4 4 12 4 4 12 4 4 12 5 5 13 4 4 12 4 4 12 5 5 13 5 5 13 5 5 13 5 5 13 4 4 12 4 4 12 4 4 12 4 4 12 4 4 12 4 4 12 4 4 12 4 4 12 4 4 12 4 4 12 4 4 12 4 4 12 4 4 12 4 4 12 4 4 12 4 4 12 4 4 12 4 4 12 4 4 12 4 4 12 4 4 12 4 4 12 4 4 12 4 5 10 3 4 9 4 5 10 4 5 10 4 5 10 4 4 12 3 3 11 4 4 12 3 3 11 4 4 12 4 4 12 4 4 12 4 4 12 3 3 11 3 3 11 3 4 9 4 5 10 4 5 10 4 4 12 3 3 11 3 3 11 3 4 9 3 3 11 
5 5 13 5 5 13 6 6 14 6 6 14 5 5 13 5 5 13 6 6 14 6 6 14 6 6 14 5 5 13 5 5 13 6 6 14 6 6 14 5 5 13 5 5 15 3 6 15 5 5 13 4 4 12 4 4 12 5 5 13 4 4 12 4 4 12 5 5 13 5 5 15 5 5 13 4 4 12 5 5 13 4 4 12 5 5 13 5 5 13 4 4 12 5 5 13 5 5 13 5 5 13 5 5 13 5 5 13 5 5 13 5 5 13 5 5 13 5 5 13 5 5 13 5 5 13 4 4 12 4 4 12 5 5 13 5 5 13 4 4 12 4 4 12 4 4 12 4 4 12 5 5 13 5 5 13 5 5 13 5 5 13 4 4 12 4 4 12 4 4 12 4 4 12 4 4 12 4 4 12 3 3 11 3 3 11 4 4 12 4 4 12 4 4 12 4 4 12 4 4 12 4 4 12 4 4 12 4 4 12 4 4 12 4 4 12 4 4 12 3 3 11 4 4 12 3 3 11 4 4 12 4 5 10 4 5 10 4 5 10 4 5 10 4 5 10 4 4 12 3 3 11 4 4 12 4 4 12 3 3 11 3 3 11 3 3 11 3 3 11 3 3 11 4 4 12 4 5 10 4 5 10 3 4 9 3 3 11 2 2 10 3 3 11 4 5 10 3 3 11 
5 5 13 5 5 13 5 5 15 5 5 13 5 5 13 5 5 15 5 5 13 5 5 13 5 5 13 6 6 14 5 5 13 4 4 12 5 5 13 6 6 14 5 5 15 5 5 13 5 5 15 4 4 12 6 6 14 5 5 13 5 5 13 5 5 13 5 5 13 5 5 13 5 5 13 5 5 13 5 5 13 5 5 13 5 5 13 5 5 13 5 5 13 5 5 13 5 5 13 5 5 13 5 5 13 5 5 13 5 5 13 5 5 13 5 5 13 5 5 13 5 5 13 5 5 13 5 5 13 5 5 13 5 5 13 5 5 13 5 5 13 5 5 13 5 5 13 4 4 12 5 5 13 4 4 12 4 4 12 4 4 12 4 4 12 4 4 12 4 4 12 4 4 12 4 4 12 4 4 12 4 4 12 3 3 11 4 4 12 4 4 12 3 3 11 4 4 12 4 4 12 4 4 12 4 4 12 4 4 12 4 4 12 4 4 12 4 4 12 3 3 11 3 3 11 4 4 12 4 5 10 4 5 10 4 5 10 4 5 10 4 4 12 4 4 12 4 4 12 4 4 12 4 4 12 3 3 11 3 3 11 3 3 11 4 4 12 4 4 12 4 4 12 4 4 12 4 4 12 4 5 10 4 5 10 4 4 12 3 3 11 3 4 9 4 4 12 3 4 9 
5 5 13 5 5 13 4 4 12 5 5 13 6 6 14 6 6 14 5 5 13 5 5 13 6 6 14 5 5 13 5 5 13 5 5 13 5 5 15 5 5 13 5 5 13 5 5 15 5 5 15 5 5 13 5 5 13 5 5 13 4 4 12 5 5 13 5 5 13 5 5 13 5 5 13 5 5 13 5 5 13 5 5 13 4 4 12 4 4 12 4 4 12 4 4 12 5 5 13 5 5 13 5 5 13 5 5 13 5 5 13 5 5 13 5 5 13 5 5 13 5 5 13 5 5 13 5 5 13 5 5 13 5 5 13 5 5 13 5 5 13 5 5 13 4 4 12 4 4 12 4 4 12 4 4 12 5 5 13 4 4 12 4 4 12 4 4 12 5 5 13 4 4 12 3 3 11 4 4 12 4 4 12 4 4 12 4 4 12 4 4 12 4 4 12 4 4 12 4 4 12 4 4 12 4 4 12 4 4 12 4 4 12 3 3 11 4 4 12 4 4 12 4 4 12 4 4 12 4 5 10 5 6 11 5 6 11 4 5 10 4 4 12 4 4 12 4 4 12 4 4 12 4 4 12 3 3 11 3 3 11 3 3 11 4 4 12 4 4 12 4 4 12 4 4 12 4 4 12 4 5 10 4 5 10 4 4 12 4 4 12 3 3 11 3 4 9 5 6 11 
5 5 13 5 5 15 6 6 14 5 5 13 5 5 13 5 5 13 4 4 14 6 6 14 6 6 14 5 5 13 4 4 12 6 6 14 5 5 15 5 5 15 5 5 13 5 5 15 5 5 15 6 6 14 5 5 13 5 5 13 5 5 13 4 4 12 4 4 12 4 4 12 5 5 13 5 5 13 5 5 13 5 5 13 5 5 13 5 5 13 5 5 13 5 5 13 5 5 13 5 5 13 5 5 13 5 5 13 5 5 13 5 5 13 5 5 13 5 5 13 5 5 13 5 5 13 5 5 13 5 5 13 5 5 13 5 5 13 5 5 13 5 5 13 4 4 12 4 4 12 5 5 13 4 4 12 5 5 13 5 5 13 4 4 12 4 4 12 5 5 13 4 4 12 4 4 12 4 4 12 4 4 12 4 4 12 5 5 13 4 4 12 4 4 12 4 4 12 4 4 12 4 4 12 3 3 11 4 4 12 4 4 12 4 4 12 4 4 12 4 4 12 4 4 12 4 4 12 5 6 11 4 5 10 4 5 10 5 6 11 4 4 12 4 4 12 4 4 12 4 4 12 4 4 12 3 3 11 3 3 11 3 3 11 4 4 12 4 4 12 4 4 12 4 4 12 4 4 12 4 5 10 4 5 10 4 4 12 4 4 12 2 3 8 4 4 12 3 4 9 
5 5 13 5 5 13 5 5 13 5 5 13 5 5 13 5 5 13 5 5 13 5 5 13 5 5 13 5 5 13 5 5 13 5 5 15 5 5 13 5 5 15 5 5 15 6 6 16 4 4 14 5 5 13 5 5 13 4 4 12 6 6 14 4 4 12 5 5 13 5 5 13 5 5 13 5 5 13 5 5 13 5 5 13 5 5 13 5 5 13 5 5 13 5 5 13 5 5 13 5 5 13 5 5 13 5 5 13 5 5 13 5 5 13 5 5 13 5 5 13 5 5 13 5 5 13 5 5 13 5 5 13 5 5 13 5 5 13 5 5 13 5 5 13 4 4 12 5 5 13 4 4 12 5 5 13 4 4 12 5 5 13 5 5 13 5 5 13 5 5 13 4 4 12 3 3 11 4 4 12 4 4 12 4 4 12 4 4 12 4 4 12 3 3 11 4 4 12 4 4 12 4 4 12 4 4 12 4 4 12 4 4 12 4 4 12 4 4 12 4 4 12 4 4 12 4 4 12 5 6 11 4 4 12 5 5 13 5 5 13 4 4 12 4 4 12 4 4 12 4 4 12 3 3 11 3 3 11 3 3 11 3 3 11 4 4 12 4 4 12 4 4 12 4 4 12 4 4 12 4 5 10 4 5 10 4 4 12 4 4 12 2 2 10 3 4 9 3 4 9 
5 5 13 5 5 13 5 5 13 6 6 14 5 5 13 4 4 12 5 5 13 6 6 14 5 5 13 6 6 14 5 5 13 5 5 15 4 4 12 5 5 15 4 4 14 5 5 15 5 5 15 4 4 12 5 5 13 5 5 13 5 5 13 5 5 13 5 5 13 5 5 13 5 5 13 5 5 13 5 5 13 5 5 13 5 5 13 4 4 12 4 4 12 4 4 12 5 5 13 5 5 13 5 5 13 5 5 13 5 5 13 5 5 13 5 5 13 5 5 13 5 5 13 5 5 13 5 5 13 5 5 13 5 5 13 5 5 13 5 5 13 5 5 13 5 5 13 5 5 13 5 5 13 4 4 12 5 5 13 3 3 11 5 5 13 4 4 12 5 5 13 4 4 12 4 4 12 4 4 12 4 4 12 4 4 12 4 4 12 4 4 12 4 4 12 4 4 12 4 4 12 3 3 11 4 4 12 4 4 12 4 4 12 4 4 12 4 4 12 3 3 11 3 3 11 3 3 11 5 6 11 4 4 12 4 4 12 4 4 12 4 4 12 4 4 12 4 4 12 3 3 11 3 3 11 3 3 11 3 3 11 3 3 11 4 4 12 4 4 12 4 4 12 4 4 12 4 4 12 4 5 10 4 5 10 4 4 12 3 3 11 4 4 12 2 3 8 3 4 9 
5 5 13 6 6 14 5 5 15 5 5 13 6 6 14 5 5 15 5 5 13 5 5 13 5 5 13 5 5 15 5 5 13 5 5 13 5 5 15 5 5 15 5 5 15 5 5 15 5 5 15 5 5 13 6 6 14 6 6 14 4 4 12 5 5 13 4 4 12 5 5 13 5 5 13 5 5 13 5 5 13 5 5 13 5 5 13 5 5 13 5 5 13 5 5 13 5 5 13 5 5 13 5 5 13 5 5 13 5 5 13 5 5 13 5 5 13 5 5 13 5 5 13 5 5 13 5 5 13 5 5 13 5 5 13 5 5 13 5 5 13 5 5 13 5 5 13 5 5 13 4 4 12 5 5 13 4 4 12 5 5 13 3 3 11 4 4 12 4 4 12 4 4 12 4 4 12 4 4 12 3 3 11 3 3 11 4 4 12 4 4 12 4 4 12 4 4 12 4 4 12 4 4 12 4 4 12 4 4 12 4 4 12 3 3 11 3 3 11 3 3 11 3 3 11 3 3 11 4 5 10 4 5 10 4 5 10 4 5 10 3 3 11 3 3 11 3 3 11 3 3 11 3 3 11 3 3 11 3 3 11 3 3 11 4 4 12 4 4 12 4 4 12 4 4 12 4 4 12 4 5 10 4 5 10 4 4 12 3 3 11 5 6 11 4 4 12 4 5 10 
5 5 13 5 5 13 4 4 12 5 5 13 7 7 15 5 5 13 5 5 13 5 5 13 5 5 13 5 5 15 5 5 15 6 6 14 4 4 14 5 5 15 5 5 15 5 5 15 5 5 15 5 5 13 4 4 12 5 5 13 5 5 13 5 5 13 5 5 13 5 5 13 5 5 13 5 5 13 5 5 13 5 5 13 5 5 13 5 5 13 5 5 13 5 5 13 5 5 13 5 5 13 5 5 13 5 5 13 5 5 13 5 5 13 5 5 13 5 5 13 5 5 13 5 5 13 5 5 13 5 5 13 5 5 13 5 5 13 5 5 13 5 5 13 5 5 13 5 5 13 5 5 13 4 4 12 5 5 13 4 4 12 4 4 12 3 3 11 5 5 13 4 4 12 3 3 11 4 4 12 4 4 12 4 4 12 4 4 12 4 4 12 4 4 12 4 4 12 4 4 12 4 4 12 3 3 11 4 4 12 4 4 12 4 4 12 4 4 12 2 2 10 3 3 11 4 4 12 4 5 10 3 4 9 3 4 9 4 5 10 3 3 11 3 3 11 3 3 11 3 3 11 3 3 11 3 3 11 3 3 11 3 3 11 4 4 12 4 4 12 4 4 12 4 4 12 4 4 12 4 5 10 4 5 10 4 4 12 3 3 11 3 3 11 3 4 9 3 4 9 
5 5 13 5 5 15 5 5 13 5 5 13 5 5 13 5 5 13 5 5 15 5 5 13 5 5 15 5 5 13 5 5 15 5 5 15 4 4 14 5 5 15 5 5 15 4 4 14 5 5 15 5 5 13 5 5 13 5 5 13 5 5 13 3 3 11 5 5 13 4 4 12 5 5 13 5 5 13 5 5 13 5 5 13 5 5 13 5 5 13 5 5 13 5 5 13 5 5 13 5 5 13 5 5 13 5 5 13 5 5 13 5 5 13 5 5 13 5 5 13 5 5 13 5 5 13 5 5 13 5 5 13 5 5 13 5 5 13 5 5 13 5 5 13 5 5 13 4 4 12 5 5 13 4 4 12 4 4 12 3 3 11 4 4 12 4 4 12 5 5 13 4 4 12 4 4 12 4 4 12 4 4 12 4 4 12 4 4 12 4 4 12 4 4 12 4 4 12 4 4 12 3 3 11 4 4 12 4 4 12 4 4 12 4 4 12 4 4 12 3 3 11 3 3 11 4 4 12 4 5 10 4 5 10 4 5 10 4 5 10 3 3 11 3 3 11 3 3 11 3 3 11 3 3 11 3 3 11 3 3 11 3 3 11 4 4 12 4 4 12 4 4 12 4 4 12 4 4 12 4 5 10 4 5 10 4 4 12 3 3 11 3 4 9 3 3 11 3 4 9 
5 5 13 5 5 13 5 5 13 6 6 14 5 5 13 5 5 13 5 5 13 5 5 13 5 5 13 5 5 13 5 5 13 5 5 13 5 5 15 4 4 14 6 6 16 5 5 15 4 4 14 5 5 13 5 5 13 4 4 12 5 5 13 5 5 13 5 5 13 5 5 13 5 5 13 5 5 13 5 5 13 5 5 13 4 4 12 3 3 11 5 5 13 4 4 12 5 5 13 5 5 13 5 5 13 5 5 13 5 5 13 5 5 13 5 5 13 5 5 13 4 4 12 5 5 13 4 4 12 4 4 12 4 4 12 4 4 12 5 5 13 5 5 13 5 5 13 4 4 12 4 4 12 4 4 12 5 5 13 4 4 12 5 5 13 4 4 12 5 5 13 4 4 12 3 3 11 3 3 11 3 3 11 4 4 12 4 4 12 4 4 12 4 4 12 4 4 12 3 3 11 3 3 11 4 4 12 4 4 12 4 4 12 3 3 11 4 4 12 4 4 12 4 4 12 4 4 12 5 6 11 4 5 10 4 5 10 4 4 12 4 4 12 4 4 12 3 3 11 3 3 11 3 3 11 3 3 11 3 3 11 4 4 12 3 3 11 3 4 9 4 5 10 3 4 9 3 4 9 4 5 10 3 3 11 3 4 9 2 3 8 3 4 9 3 4 9 3 4 9 
5 5 13 5 5 13 5 5 13 6 6 14 5 5 13 5 5 13 5 5 13 5 5 13 4 4 12 5 5 13 5 5 13 5 5 13 5 5 15 5 5 15 4 4 14 5 5 15 5 5 15 5 5 13 5 5 13 5 5 13 5 5 13 5 5 13 5 5 13 5 5 13 5 5 13 5 5 13 5 5 13 4 4 12 4 4 12 3 3 11 4 4 12 5 5 13 5 5 13 5 5 13 5 5 13 5 5 13 5 5 13 5 5 13 5 5 13 5 5 13 5 5 13 4 4 12 4 4 12 4 4 12 5 5 13 4 4 12 4 4 12 3 3 11 5 5 13 4 4 12 4 4 12 4 4 12 4 4 12 5 5 13 4 4 12 4 4 12 5 5 13 3 3 11 4 4 12 4 4 12 2 2 10 3 3 11 4 4 12 4 4 12 4 4 12 4 4 12 4 4 12 4 4 12 4 4 12 4 4 12 4 4 12 4 4 12 4 4 12 4 4 12 4 4 12 3 3 11 4 5 10 4 5 10 4 5 10 4 4 12 4 4 12 4 4 12 3 3 11 3 3 11 3 3 11 3 3 11 3 3 11 4 4 12 4 4 12 3 4 9 4 5 10 3 4 9 4 5 10 4 4 12 3 4 9 3 4 9 3 4 9 4 4 12 3 3 11 3 4 9 
5 5 13 4 4 12 6 6 14 5 5 13 5 5 13 5 5 13 5 5 13 5 5 13 5 5 13 5 5 13 5 5 13 5 5 13 5 5 15 4 4 14 5 5 15 5 5 15 5 5 15 5 5 13 4 4 12 5 5 13 5 5 13 5 5 13 4 4 12 5 5 13 5 5 13 5 5 13 5 5 13 4 4 12 5 5 13 5 5 13 4 4 12 4 4 12 5 5 13 5 5 13 5 5 13 5 6 11 5 5 13 5 5 13 5 5 13 5 6 11 5 5 13 4 4 12 4 4 12 5 5 13 4 4 12 4 4 12 4 4 12 5 5 13 4 4 12 4 4 12 5 5 13 4 4 12 5 5 13 4 4 12 5 5 13 4 4 12 5 5 13 3 3 11 3 3 11 3 3 11 4 4 12 4 4 12 4 4 12 4 4 12 4 4 12 3 3 11 3 3 11 3 3 11 3 3 11 4 4 12 3 3 11 3 3 11 4 4 12 3 3 11 3 3 11 4 4 12 5 6 11 4 5 10 4 5 10 4 4 12 4 4 12 3 3 11 4 4 12 4 4 12 2 2 10 3 3 11 4 4 12 3 3 11 4 4 12 3 4 9 3 4 9 4 5 10 4 4 12 3 4 9 3 3 11 2 3 8 4 5 10 3 4 9 4 5 10 3 4 9 
5 5 13 5 5 13 6 6 14 5 5 13 5 5 13 5 5 13 5 5 13 5 5 13 5 5 13 5 5 13 5 5 13 5 5 13 5 5 15 4 4 14 5 5 15 5 5 15 5 5 15 5 5 13 5 5 13 5 5 13 5 5 13 5 5 13 5 5 13 5 5 13 5 5 13 5 5 13 5 5 13 4 4 12 5 5 13 4 4 12 4 4 12 5 5 13 5 5 13 5 5 13 5 5 13 5 6 11 5 5 13 5 5 13 5 5 13 5 5 13 4 4 12 4 4 12 5 5 13 3 3 11 4 4 12 4 4 12 5 5 13 4 4 12 4 4 12 4 4 12 5 5 13 4 4 12 5 5 13 5 5 13 4 4 12 5 5 13 4 4 12 4 4 12 4 4 12 4 4 12 3 3 11 4 4 12 4 4 12 3 3 11 4 4 12 4 4 12 4 4 12 4 4 12 4 4 12 4 4 12 4 4 12 4 4 12 3 3 11 4 4 12 4 4 12 3 3 11 4 5 10 4 5 10 4 5 10 4 4 12 4 4 12 4 4 12 4 4 12 3 3 11 2 2 10 3 3 11 3 3 11 3 3 11 4 4 12 3 3 13 3 4 9 4 5 10 4 5 10 3 3 11 3 4 9 3 4 9 4 4 12 3 4 9 3 4 9 3 3 11 
5 5 13 5 5 13 5 5 13 5 5 13 5 5 13 5 5 13 5 5 13 5 5 13 5 5 13 5 5 13 5 5 13 5 5 13 4 4 14 5 5 15 5 5 15 5 5 15 5 5 15 5 5 13 5 5 13 5 5 13 5 5 13 5 5 13 5 5 13 5 5 13 5 5 13 5 5 13 5 5 13 5 5 13 4 4 12 4 4 12 5 5 13 5 5 13 5 5 13 5 5 13 5 5 13 5 5 13 5 5 15 5 5 13 5 5 13 5 5 13 4 4 12 5 5 13 4 4 12 5 5 13 4 4 12 5 5 13 4 4 12 4 4 12 4 4 12 5 5 13 5 5 13 4 4 12 4 4 12 4 4 12 4 4 12 5 5 13 4 4 12 3 3 11 4 4 12 4 4 12 4 4 12 4 4 12 4 4 12 4 4 12 3 3 11 3 3 11 3 3 11 3 3 11 3 3 11 3 3 11 3 3 11 3 3 11 4 4 12 3 3 11 3 3 11 3 3 11 4 5 10 4 5 10 4 5 10 4 4 12 4 4 12 4 4 12 3 3 11 3 3 11 3 3 11 3 3 11 3 3 11 4 4 12 3 3 11 4 5 10 3 4 9 4 5 10 4 4 12 3 4 9 3 3 11 3 4 9 3 4 9 3 3 11 2 2 10 3 4 9 
5 5 13 5 5 13 5 5 13 5 5 13 5 5 13 5 5 13 5 5 13 5 5 13 4 4 12 5 5 13 5 5 13 5 5 13 5 5 15 5 5 15 4 4 14 5 5 15 4 4 14 5 5 13 5 5 13 4 4 12 5 5 13 5 5 13 5 5 13 5 5 13 5 5 13 4 4 12 5 5 13 5 5 13 5 5 13 4 4 12 5 5 13 4 4 12 5 5 15 5 5 13 5 5 13 5 5 13 5 5 15 5 5 13 5 5 13 5 5 13 4 4 12 4 4 12 4 4 12 4 4 12 5 5 13 4 4 12 4 4 12 4 4 12 5 5 13 4 4 12 4 4 12 5 5 13 5 5 13 5 5 13 4 4 12 4 4 12 5 5 13 3 3 11 4 4 12 4 4 12 4 4 12 4 4 12 4 4 12 3 3 11 4 4 12 4 4 12 4 4 12 4 4 12 4 4 12 4 4 12 4 4 12 4 4 12 3 3 11 4 4 12 4 4 12 3 3 11 4 5 10 4 5 10 4 5 10 4 4 12 4 4 12 4 4 12 4 4 12 3 3 11 3 3 11 3 3 11 3 3 11 3 3 11 3 3 11 2 2 10 3 4 9 4 5 10 3 4 9 3 3 11 3 4 9 3 4 9 4 5 10 3 4 9 3 4 9 3 4 9 
6 6 14 5 5 13 6 6 14 5 5 13 6 6 14 6 6 14 5 5 13 5 5 13 5 5 13 5 5 13 5 5 13 5 5 13 5 5 15 5 5 15 5 5 15 5 5 15 5 5 15 5 5 13 5 5 13 5 5 13 5 5 13 5 5 13 5 5 13 5 5 13 5 5 13 5 5 13 5 5 13 5 5 13 4 4 12 4 4 12 5 5 13 5 5 13 5 5 13 5 5 13 5 5 13 5 5 13 5 5 13 5 5 13 5 5 13 5 5 13 4 4 12 4 4 12 4 4 12 5 5 13 4 4 12 4 4 12 4 4 12 6 6 14 4 4 12 4 4 12 4 4 12 5 5 13 4 4 12 5 5 13 4 4 12 4 4 12 3 3 11 3 3 11 4 4 12 5 5 13 3 3 11 4 4 12 3 3 11 5 5 13 3 3 11 4 4 12 4 4 12 4 4 12 3 3 11 3 3 11 3 3 11 4 4 12 4 4 12 4 4 12 4 4 12 4 4 12 5 6 11 4 5 10 4 5 10 4 4 12 4 4 12 4 4 12 3 3 11 3 3 11 4 4 12 3 3 11 3 3 11 4 4 12 3 3 11 4 5 10 3 4 9 4 5 10 4 4 12 4 5 10 3 3 11 3 4 9 3 3 11 3 4 9 3 4 9 3 3 11 
5 5 13 5 5 13 4 4 12 5 5 13 5 5 13 6 6 14 4 4 12 5 5 13 5 5 13 5 5 13 5 5 13 5 5 13 4 4 14 5 5 15 4 4 14 5 5 15 5 5 15 5 5 13 5 5 13 5 5 13 5 5 13 5 5 13 4 4 12 5 5 13 5 5 13 5 5 13 5 5 13 4 4 12 5 5 13 5 5 13 4 4 12 5 5 13 5 5 13 5 5 13 5 5 13 5 5 13 5 5 13 5 5 13 5 5 13 5 5 13 4 4 12 4 4 12 5 5 13 4 4 12 4 4 12 5 5 13 4 4 12 3 3 11 4 4 12 4 4 12 5 5 13 4 4 12 4 4 12 4 4 12 5 5 13 5 5 13 4 4 12 3 3 11 4 4 12 4 4 12 4 4 12 4 4 12 4 4 12 3 3 11 3 3 11 4 4 12 4 4 12 4 4 12 4 4 12 3 3 11 4 4 12 4 4 12 4 4 12 4 4 12 4 4 12 3 3 11 4 5 10 4 5 10 4 5 10 4 4 12 4 4 12 3 3 11 4 4 12 4 4 12 3 3 11 3 3 11 4 4 12 3 3 11 4 4 12 3 4 9 3 4 9 4 5 10 4 5 10 4 4 12 3 4 9 3 4 9 2 3 8 3 4 9 3 4 9 3 4 9 
6 6 16 5 5 13 5 5 13 5 5 15 5 5 15 6 6 14 5 5 13 5 5 15 4 4 12 5 5 13 5 5 13 5 5 13 4 4 14 4 4 12 5 5 13 6 6 14 5 5 13 5 5 13 5 5 13 5 5 13 5 5 13 5 5 13 5 5 13 5 5 13 5 5 13 5 5 13 5 5 13 5 5 13 5 5 13 5 5 13 5 5 13 5 5 13 5 5 13 5 5 13 5 5 13 5 5 13 4 4 12 4 4 12 4 4 12 4 4 12 4 4 12 4 4 12 4 4 12 4 4 12 5 5 13 5 5 13 5 5 13 4 4 12 4 4 12 5 5 13 5 5 13 3 3 11 4 4 12 4 4 12 4 4 12 5 5 13 4 4 12 4 4 12 4 4 12 4 4 12 4 4 12 4 4 12 4 4 12 4 4 12 4 4 12 4 4 12 4 4 12 4 4 12 4 4 12 4 4 12 4 4 12 4 4 12 4 4 12 3 3 11 4 4 12 4 4 12 4 4 12 5 6 11 4 5 10 4 4 12 2 2 10 3 3 11 3 3 11 4 4 12 3 3 11 4 4 12 4 4 12 3 3 11 4 4 12 4 5 10 5 6 11 3 4 9 4 5 10 3 4 9 5 6 11 3 3 11 4 5 10 3 4 9 3 4 9 4 5 10 
5 5 15 6 6 14 6 6 14 5 5 15 4 4 14 5 5 13 5 5 13 5 5 15 5 5 13 5 5 13 5 5 13 5 5 13 5 5 15 5 5 13 5 5 13 4 4 12 5 5 13 5 5 13 5 5 13 5 5 13 5 5 13 5 5 13 5 5 13 5 5 13 5 5 13 5 5 13 5 5 13 5 5 13 5 5 13 5 5 13 5 5 13 5 5 13 5 5 13 5 5 13 5 5 13 5 5 13 4 4 12 4 4 12 4 4 12 4 4 12 3 3 11 4 4 12 4 4 12 4 4 12 5 5 13 5 5 13 5 5 13 4 4 12 4 4 12 4 4 12 5 5 13 4 4 12 4 4 12 4 4 12 4 4 12 3 3 11 4 4 12 4 4 12 4 4 12 4 4 12 4 4 12 4 4 12 4 4 12 4 4 12 4 4 12 4 4 12 4 4 12 4 4 12 4 4 12 4 4 12 4 4 12 4 4 12 4 4 12 4 4 12 4 4 12 3 3 11 4 5 10 4 5 10 4 5 10 4 4 12 3 3 11 3 3 11 5 5 13 3 3 11 3 3 11 2 2 10 4 4 12 3 3 11 4 4 12 4 5 10 4 5 10 3 4 9 4 5 10 3 4 9 4 5 10 3 3 11 3 4 9 3 4 9 3 4 9 2 3 8 
5 5 13 5 5 13 5 5 13 5 5 13 5 5 13 6 6 14 5 5 13 5 5 13 4 4 12 4 4 12 5 5 13 5 5 13 5 5 15 5 5 13 5 5 13 4 4 12 5 5 13 5 5 13 5 5 13 5 5 13 5 5 13 5 5 13 5 5 13 5 5 13 5 5 13 5 5 13 5 5 13 5 5 13 5 5 13 5 5 13 5 5 13 5 5 13 5 5 13 5 5 13 5 5 13 5 5 13 4 4 12 4 4 12 4 4 12 4 4 12 4 4 12 4 4 12 5 5 13 4 4 12 4 4 12 3 3 11 5 5 13 4 4 12 5 5 13 5 5 13 4 4 12 3 3 11 4 4 12 5 5 13 4 4 12 4 4 12 3 3 11 3 3 11 4 4 12 4 4 12 4 4 12 4 4 12 3 3 11 3 3 11 4 4 12 4 4 12 4 4 12 4 4 12 4 4 12 4 4 12 4 4 12 4 4 12 5 5 13 4 4 12 4 4 12 4 5 10 3 3 11 4 5 10 2 2 10 4 4 12 3 3 11 3 3 11 4 4 12 3 3 11 2 2 10 3 3 11 4 4 12 3 3 11 3 3 11 4 5 10 4 5 10 3 4 9 3 4 9 3 4 9 3 4 9 3 3 11 3 4 9 3 4 9 3 4 9 3 4 9 
5 5 13 5 5 13 6 6 14 5 5 13 5 5 13 4 4 12 5 5 13 5 5 13 5 5 13 5 5 13 5 5 13 5 5 13 5 5 15 5 5 13 5 5 13 5 5 13 5 5 13 5 5 13 5 5 13 5 5 13 5 5 13 5 5 13 5 5 13 5 5 13 5 5 13 5 5 13 5 5 13 5 5 13 5 5 13 5 5 13 5 5 13 5 5 13 5 5 13 5 5 13 5 5 13 5 5 13 4 4 12 4 4 12 4 4 12 4 4 12 4 4 12 4 4 12 4 4 12 4 4 12 4 4 12 4 4 12 5 5 13 3 3 11 3 3 11 4 4 12 5 5 13 3 3 11 4 4 12 4 4 12 4 4 12 4 4 12 4 4 12 4 4 12 4 4 12 4 4 12 4 4 12 4 4 12 4 4 12 4 4 12 4 4 12 4 4 12 4 4 12 4 4 12 4 4 12 4 4 12 4 4 12 4 4 12 3 3 13 4 4 14 4 4 12 4 4 12 4 5 10 4 4 12 3 4 9 4 4 12 3 3 11 3 3 11 3 3 11 5 5 13 3 3 11 4 4 12 3 3 11 2 2 10 4 4 12 3 4 9 3 4 9 3 4 9 4 5 10 3 4 9 3 4 9 3 3 11 2 3 8 3 4 9 4 5 10 3 4 9 
5 5 13 5 5 13 5 5 13 5 5 13 5 5 13 5 5 13 5 5 13 5 5 13 4 4 12 5 5 13 5 5 13 5 5 13 4 4 14 4 4 12 5 5 13 6 6 14 5 5 13 5 5 13 5 5 13 5 5 13 5 5 13 5 5 13 5 5 13 5 5 13 5 5 13 5 5 13 5 5 13 5 5 13 5 5 13 5 5 13 5 5 13 5 5 13 5 5 13 5 5 13 5 5 13 5 5 13 4 4 12 4 4 12 4 4 12 4 4 12 4 4 12 4 4 12 4 4 12 4 4 12 4 4 12 4 4 12 5 5 13 4 4 12 4 4 12 4 4 12 4 4 12 4 4 12 4 4 12 4 4 12 5 5 13 3 3 11 3 3 11 3 3 11 4 4 12 4 4 12 4 4 12 4 4 12 3 3 11 3 3 11 4 4 12 4 4 12 4 4 12 4 4 12 4 4 12 4 4 12 4 4 12 4 4 12 3 3 11 4 4 12 4 4 12 4 5 10 4 4 12 4 5 10 4 4 12 4 4 12 3 4 9 3 4 9 3 4 9 4 5 10 3 4 9 3 4 9 3 4 9 3 4 9 3 3 11 3 4 9 4 5 10 3 4 9 3 4 9 2 3 8 3 4 9 3 3 11 3 4 9 3 4 9 2 3 8 4 5 10 
5 5 13 5 5 13 5 5 13 5 5 13 5 5 13 5 5 13 5 5 13 5 5 13 5 5 13 5 5 13 5 5 13 5 5 13 5 5 15 5 5 13 5 5 13 5 5 13 5 5 13 5 5 13 5 5 13 5 5 13 5 5 13 5 5 13 5 5 13 5 5 13 5 5 13 5 5 13 5 5 13 5 5 13 5 5 13 5 5 13 5 5 13 5 5 13 5 5 13 5 5 13 5 5 13 5 5 13 4 4 12 4 4 12 4 4 12 4 4 12 4 4 12 4 4 12 4 4 12 4 4 12 4 4 12 4 4 12 6 6 14 4 4 12 4 4 12 4 4 12 5 5 13 4 4 12 5 5 13 4 4 12 4 4 12 3 3 11 4 4 12 4 4 12 4 4 12 4 4 12 4 4 12 4 4 12 4 4 12 4 4 12 4 4 12 4 4 12 4 4 12 4 4 12 4 4 12 4 4 12 4 4 12 4 4 12 3 3 11 3 3 11 3 3 11 4 4 12 3 4 9 5 5 13 4 5 10 5 5 13 4 5 10 2 3 8 3 4 9 3 4 9 3 4 9 3 4 9 4 5 10 3 4 9 4 4 12 2 3 8 3 4 9 3 4 9 4 5 10 3 4 9 3 4 9 3 3 11 3 4 9 3 4 9 2 3 8 2 3 8 
