P3
100 50
255
10 14 41 10 14 41 10 14 41 10 14 41 10 14 41 10 14 41 10 14 41 10 14 41 10 14 41 10 14 41 10 14 41 10 14 41 10 14 41 10 14 41 10 14 39 10 14 41 10 14 41 10 14 39 10 14 39 12 13 41 12 13 41 12 14 39 10 14 41 11 15 42 11 15 42 11 15 42 9 13 40 12 13 41 12 16 45 15 18 51 15 18 51 29 33 81 30 34 82 34 39 95 38 42 103 39 43 104 41 45 108 40 43 110 36 41 99 36 41 97 30 34 82 24 27 70 23 26 67 12 16 45 12 16 45 12 16 41 10 14 41 10 14 39 11 15 42 11 15 44 13 17 46 13 17 46 15 18 53 16 20 55 18 22 59 23 28 70 25 26 70 29 32 83 30 34 81 27 29 77 24 27 70 23 26 67 16 20 55 16 19 52 14 19 48 13 17 46 12 16 45 11 15 44 10 14 43 12 13 41 11 15 42 10 14 43 10 14 41 10 14 39 12 14 39 12 13 41 10 14 39 11 13 38 11 16 45 15 16 46 17 20 53 26 29 74 26 29 72 34 40 98 37 41 102 39 43 107 42 45 112 41 45 108 37 41 102 38 42 103 30 33 84 28 32 77 22 25 68 13 18 48 15 18 51 10 14 41 10 14 41 11 15 42 11 15 42 12 13 41 
10 14 41 10 14 41 10 14 41 10 14 41 10 14 41 10 14 41 10 14 41 10 14 41 10 14 41 10 14 41 10 14 41 10 14 41 12 14 39 11 15 42 10 14 39 10 14 41 9 13 40 10 14 39 10 14 39 12 14 39 12 14 39 12 14 39 10 14 39 10 14 41 11 15 42 11 15 42 11 17 43 13 17 46 14 17 48 17 21 59 17 21 58 31 34 85 32 35 88 36 41 99 39 44 102 37 41 104 39 43 104 39 43 104 35 38 93 35 38 93 28 32 79 23 26 67 22 24 63 13 17 44 12 16 45 11 15 42 10 14 41 11 15 42 11 15 42 11 15 44 14 18 47 14 18 47 15 18 53 16 20 57 20 24 62 27 32 74 29 32 75 36 40 87 37 41 88 30 37 83 28 31 76 28 31 74 16 20 55 16 20 55 13 18 48 14 18 47 12 16 45 11 15 44 13 14 44 12 13 41 10 13 44 10 14 41 11 15 40 10 14 41 10 14 41 10 14 41 11 15 42 11 15 40 13 18 48 16 19 52 18 22 59 28 30 78 27 29 77 35 40 98 38 42 103 38 42 105 39 43 106 41 42 106 35 40 96 38 40 99 30 32 80 25 28 71 22 24 63 15 18 49 13 16 47 10 14 41 10 14 41 10 16 42 10 14 41 12 13 41 
10 14 41 10 14 41 10 14 41 10 14 41 10 14 41 10 14 41 10 14 41 10 14 41 10 14 41 10 14 41 10 14 41 10 14 41 12 14 39 10 14 39 10 14 41 10 14 39 10 14 41 10 14 39 10 14 41 10 14 41 12 13 41 12 14 39 8 12 39 10 14 41 13 17 44 14 15 43 21 25 63 23 28 70 29 33 81 36 41 99 35 40 98 40 45 109 40 46 108 40 44 105 38 42 105 37 42 100 28 32 80 29 33 81 18 21 54 18 19 50 13 17 46 10 14 39 11 15 42 10 14 39 10 14 41 10 14 41 10 14 41 11 15 42 12 16 45 12 16 43 15 18 49 15 18 49 21 23 61 21 25 63 30 33 78 56 57 114 57 58 115 83 87 124 87 90 125 73 74 120 57 58 115 54 55 111 22 26 64 22 25 66 15 20 52 14 19 49 13 18 48 11 15 44 11 15 42 12 13 43 10 14 41 10 14 41 10 14 39 11 15 42 12 13 41 10 14 41 19 22 57 20 24 61 30 32 81 34 37 92 36 38 95 40 44 107 41 45 109 40 44 108 40 44 107 35 40 98 33 36 91 31 34 85 16 20 57 17 21 58 12 16 45 11 15 44 9 13 40 10 14 39 10 14 39 10 14 41 10 14 41 10 14 39 10 14 41 10 14 41 
10 14 41 10 14 41 10 14 41 10 14 41 10 14 41 10 14 41 10 14 41 10 14 41 10 14 41 10 14 41 10 14 41 10 14 41 12 14 39 10 14 39 10 14 41 10 14 39 10 14 41 12 16 41 10 14 41 10 14 41 12 13 41 11 13 38 12 14 39 12 14 39 13 17 46 12 16 45 21 25 63 24 27 68 29 33 81 35 40 98 36 40 101 41 45 109 42 46 110 39 43 104 38 42 103 35 40 98 29 33 80 28 32 80 19 22 57 18 18 52 13 17 46 10 14 41 10 14 41 10 14 39 10 14 41 10 14 43 11 15 42 12 16 43 11 15 44 11 15 42 14 17 48 13 16 49 19 23 60 21 25 63 32 35 80 58 57 115 57 58 115 83 87 125 85 90 122 72 74 122 59 58 116 54 55 111 25 27 66 22 26 64 15 19 54 14 17 48 15 16 47 11 15 44 12 16 45 10 14 41 10 14 41 12 14 39 10 14 39 11 15 40 10 14 41 13 14 42 19 21 59 20 22 60 29 31 80 34 37 90 37 39 96 40 44 107 39 43 106 40 44 107 40 44 108 36 41 97 33 36 89 31 34 87 18 22 59 17 21 58 12 16 45 10 14 41 9 15 41 10 14 41 10 14 39 10 14 41 10 14 41 10 14 41 10 14 41 10 14 41 
10 14 41 10 14 41 10 14 41 10 14 41 10 14 41 10 14 41 10 14 41 10 14 41 10 14 41 10 14 41 10 14 41 10 14 41 10 14 41 10 14 41 11 15 40 10 14 39 10 14 41 10 14 39 9 13 40 11 15 40 10 14 41 13 17 46 19 22 57 21 21 57 27 29 77 28 32 79 33 38 93 35 40 98 37 42 100 39 43 106 39 43 106 36 38 95 35 37 94 30 32 81 25 28 71 23 26 67 15 18 51 16 19 50 13 14 42 13 14 42 11 15 42 12 14 39 12 14 39 11 15 42 10 14 39 10 14 41 10 14 41 11 15 42 11 15 44 11 15 42 14 17 48 14 17 50 21 25 63 24 29 71 36 39 82 75 73 120 75 73 122 113 115 130 117 120 129 97 97 125 75 73 122 69 68 112 24 27 70 23 26 67 17 20 55 15 18 49 12 17 47 11 15 44 14 15 43 10 14 41 10 14 41 12 16 45 14 17 48 16 21 53 25 28 69 24 29 71 34 37 90 34 37 92 37 42 100 38 42 105 39 43 104 36 42 100 38 42 103 30 34 82 28 30 78 23 27 65 18 21 56 17 20 53 13 17 44 12 16 43 11 15 40 10 14 39 13 13 39 12 13 41 10 14 41 10 14 43 10 14 41 10 14 41 10 14 41 9 15 41 
10 14 41 10 14 41 10 14 41 10 14 41 10 14 41 10 14 41 10 14 41 10 14 41 10 14 41 10 14 41 10 14 41 10 14 41 11 15 42 10 14 41 10 14 39 10 14 39 10 14 41 9 13 38 9 13 38 10 14 41 14 14 40 14 17 48 19 23 61 22 26 64 33 36 89 32 35 88 37 41 102 40 44 108 40 44 107 40 44 108 41 44 111 34 37 90 35 38 91 25 28 71 20 23 58 18 21 56 12 16 41 11 15 42 10 14 39 10 14 41 10 14 39 12 13 41 12 14 39 10 14 41 10 14 39 9 13 40 10 14 41 11 15 42 11 15 44 11 15 42 15 18 51 15 18 51 21 25 63 26 29 74 41 40 84 79 78 120 77 79 120 122 123 128 128 130 129 105 103 124 82 79 122 75 72 115 24 27 70 24 27 68 16 20 55 15 18 53 14 18 47 11 17 43 13 14 44 10 14 41 10 14 41 15 16 46 13 18 50 18 22 57 27 34 80 28 32 80 36 41 99 39 43 104 39 43 107 40 45 109 39 43 106 35 39 100 37 39 98 26 29 74 25 28 69 18 21 56 12 16 45 12 16 43 10 14 41 9 13 40 9 13 38 10 14 41 10 14 41 11 15 42 10 14 41 10 14 41 10 14 41 10 14 41 10 14 41 10 14 41 
10 14 41 10 14 41 10 14 41 10 14 41 10 14 41 10 14 41 10 14 41 10 14 41 10 14 41 10 14 41 10 14 41 10 14 41 11 15 42 10 14 41 9 13 40 11 15 42 10 14 41 11 15 44 11 15 42 15 19 54 18 21 56 20 24 62 28 31 76 29 33 81 35 40 96 34 39 97 38 42 103 39 44 100 36 40 101 36 39 94 37 40 95 25 27 75 24 27 72 20 22 60 17 20 51 15 18 49 10 14 41 10 14 41 10 14 41 10 14 39 10 14 41 10 14 39 10 14 41 10 14 39 11 15 42 11 15 42 10 14 41 11 15 42 11 15 42 11 15 44 14 17 48 14 17 48 20 24 61 24 27 70 32 35 78 63 64 110 63 64 110 99 100 121 103 104 125 84 85 116 62 63 111 58 61 106 22 26 64 20 25 67 16 19 54 13 18 50 13 16 47 12 16 45 12 16 45 15 18 49 16 19 50 20 24 62 23 26 67 25 29 74 35 38 91 34 37 90 38 42 105 38 42 105 36 41 99 35 40 98 34 39 95 29 31 82 29 32 83 20 22 61 18 22 59 16 19 52 12 15 46 12 16 43 10 14 39 9 13 38 10 14 41 12 13 41 10 14 39 10 14 39 10 14 41 10 14 41 10 14 41 10 14 41 10 14 41 10 16 42 
10 14 41 10 14 41 10 14 41 10 14 41 10 14 41 10 14 41 10 14 41 10 14 41 10 14 41 10 14 41 10 14 41 10 14 41 10 14 41 12 13 41 10 14 39 9 15 41 11 15 42 15 18 49 14 19 49 26 29 72 28 32 77 34 37 90 41 43 104 40 42 103 42 46 110 42 46 110 37 42 100 37 42 100 33 36 89 25 28 71 25 28 71 12 16 45 13 17 44 11 16 38 10 14 39 10 14 41 10 14 41 11 15 40 12 14 39 9 13 38 10 14 41 10 14 39 10 14 39 12 14 39 10 14 41 10 14 41 10 14 41 11 15 42 12 16 43 12 16 45 14 17 48 14 17 48 17 21 56 21 23 61 23 26 67 37 40 93 38 41 92 59 59 113 63 63 117 49 50 104 37 40 91 35 39 87 18 22 60 17 22 60 16 19 52 14 17 48 12 17 47 13 17 46 13 17 46 24 26 67 23 26 67 32 35 86 35 40 96 37 42 100 39 44 108 39 45 107 39 43 106 39 43 106 34 37 92 30 34 82 26 31 73 16 19 52 16 21 53 11 15 40 12 14 39 12 13 41 11 13 38 10 14 41 12 13 41 10 14 41 10 14 41 10 14 41 10 14 41 10 14 39 10 14 43 10 14 41 10 14 41 10 14 41 9 13 40 10 14 41 
10 14 41 10 14 41 10 14 41 10 14 41 10 14 39 10 14 39 10 14 39 10 14 39 10 14 39 10 14 39 10 14 39 11 15 40 10 14 41 11 15 42 12 13 41 12 13 41 10 14 41 15 18 49 15 18 51 25 30 70 27 31 78 32 35 86 40 42 103 39 43 106 41 45 109 40 44 108 37 41 102 36 41 99 31 36 91 24 29 71 25 28 71 12 17 46 12 16 43 11 16 38 10 14 39 10 14 39 10 14 41 10 14 41 10 14 41 10 14 41 10 14 41 10 14 41 10 14 41 10 14 41 10 14 41 10 14 43 10 14 41 10 14 41 12 16 43 11 15 44 14 17 48 13 16 47 17 21 56 20 22 60 24 27 68 37 40 91 35 41 93 58 59 113 61 62 118 49 52 103 37 40 93 36 38 89 18 22 60 17 22 60 15 20 50 14 17 50 12 15 46 14 18 47 14 18 47 23 26 67 23 26 67 31 34 87 35 40 96 39 41 100 42 46 109 41 45 108 38 41 108 37 43 105 32 38 90 30 34 82 27 30 75 15 20 52 16 19 52 11 15 42 10 14 41 10 14 41 10 14 41 10 14 41 10 14 41 10 14 41 10 14 41 10 14 41 10 14 39 10 14 39 10 14 41 10 14 41 10 14 41 10 14 41 10 14 41 10 14 43 
10 14 41 10 14 41 10 14 41 10 14 41 10 14 39 10 14 41 10 14 41 9 13 38 10 14 39 10 14 41 12 13 41 12 14 39 13 17 44 15 16 46 16 22 56 23 27 65 26 29 72 36 41 99 38 39 96 39 43 106 40 44 108 39 44 108 38 42 106 37 42 100 30 34 82 30 34 82 19 23 60 14 19 51 14 18 47 10 14 41 12 14 39 12 14 37 12 14 39 12 13 41 10 14 41 10 14 39 10 14 41 10 14 41 10 14 41 10 14 41 10 14 41 10 14 41 10 14 41 10 14 41 10 14 41 10 14 41 10 14 41 10 14 41 11 15 42 11 15 44 11 15 44 12 15 48 14 17 48 14 19 51 14 19 51 17 21 59 17 23 57 20 24 61 22 26 64 19 23 60 17 23 57 16 22 56 14 18 53 14 19 49 19 22 57 20 22 61 26 29 74 33 36 89 34 37 92 40 44 108 40 44 107 41 45 108 39 44 108 39 43 107 34 37 92 33 38 94 23 25 66 21 23 61 16 16 50 10 14 43 10 14 41 9 15 39 10 14 41 10 14 41 10 14 41 10 14 41 10 14 41 10 14 41 10 14 41 10 14 41 10 14 41 10 14 41 10 14 39 10 14 39 10 14 41 10 14 41 10 14 41 10 14 41 10 14 39 10 14 41 
10 14 39 10 14 39 10 14 39 10 14 39 9 15 39 10 14 39 9 15 39 10 14 41 12 14 39 12 14 39 12 13 41 11 13 38 12 16 43 15 16 44 18 21 56 24 27 68 25 28 71 36 41 99 35 40 98 40 44 105 40 44 108 39 44 108 38 42 105 37 41 102 31 33 82 30 34 82 18 24 60 14 20 52 15 19 48 10 14 39 10 14 41 10 14 39 10 14 39 9 13 38 10 14 41 10 14 41 10 14 41 10 14 41 10 14 41 10 14 41 10 14 41 10 14 41 10 14 41 10 14 41 10 14 41 10 14 39 10 14 41 10 14 41 11 15 42 11 15 42 13 17 44 12 16 45 14 17 50 15 18 51 15 19 54 19 23 60 18 22 59 22 24 62 20 24 62 19 23 61 17 21 58 18 21 56 16 16 50 17 17 51 19 21 59 20 22 60 25 28 71 33 36 89 34 37 90 40 44 108 40 44 107 39 44 108 40 45 109 39 43 106 33 38 94 35 38 93 24 26 67 23 25 63 15 18 49 11 15 42 13 15 40 11 15 42 10 14 41 10 14 41 10 14 41 10 14 41 10 14 41 10 14 41 10 14 41 10 14 41 10 14 41 10 14 41 10 15 37 10 14 39 10 14 41 10 14 41 10 14 41 10 14 41 10 14 41 10 14 41 
10 14 39 10 14 39 10 14 39 10 14 39 10 14 41 10 14 41 10 14 41 10 14 41 10 14 41 11 15 44 15 18 51 15 18 49 24 27 70 25 28 71 30 32 83 34 36 93 35 38 93 39 43 104 38 42 103 35 40 98 36 41 99 31 36 91 27 31 78 26 30 75 17 21 56 18 21 56 15 19 48 11 15 44 12 16 45 10 14 39 9 15 39 10 14 41 10 14 41 10 14 39 12 13 41 12 13 41 10 14 41 10 14 41 10 14 41 10 14 41 10 14 41 10 14 41 10 14 41 10 14 41 10 14 39 10 14 39 10 14 41 10 14 41 11 15 42 10 14 41 12 16 43 11 15 44 11 16 46 14 17 48 13 16 47 13 18 50 14 19 51 16 19 52 17 20 53 16 19 54 15 19 54 17 21 56 23 28 70 24 27 70 30 33 84 32 35 88 35 38 93 37 41 104 38 42 103 36 42 102 39 43 104 34 39 94 31 37 87 30 34 82 22 25 66 21 24 65 17 18 49 14 17 50 11 15 42 10 14 41 12 13 41 12 13 41 12 14 39 12 13 41 10 14 41 10 14 41 10 14 41 10 14 41 10 14 41 10 14 41 10 14 41 10 14 41 10 14 39 10 14 39 10 14 41 10 14 41 10 14 41 10 14 41 10 14 41 10 14 41 
10 14 39 10 14 39 10 14 39 10 14 39 10 14 41 9 14 36 12 14 39 13 15 40 10 14 41 12 16 43 18 22 57 18 22 59 33 33 83 32 34 85 37 39 96 40 44 105 39 43 106 39 45 107 40 44 108 36 38 95 33 35 92 29 31 79 21 23 61 20 22 60 10 14 41 11 15 42 9 13 40 8 14 38 12 14 39 12 14 39 10 14 39 10 14 39 10 14 41 10 14 41 12 13 41 12 14 39 10 14 41 10 14 41 10 14 41 10 14 41 10 14 41 10 14 41 10 14 41 10 14 41 10 15 37 10 14 39 10 14 41 10 14 43 10 14 41 10 14 41 10 14 41 10 14 43 11 15 44 12 16 41 13 17 44 13 16 47 13 16 47 12 15 46 13 17 46 14 19 51 16 19 52 17 22 54 30 34 82 28 32 79 36 40 101 40 44 107 40 44 107 41 45 109 41 45 109 39 41 102 36 41 99 31 34 85 27 30 75 25 28 69 14 17 48 14 17 48 10 14 39 9 13 40 10 14 39 10 14 39 11 15 40 10 14 41 12 14 39 12 13 41 10 14 41 10 14 41 10 14 41 10 14 41 10 14 41 10 14 41 10 14 41 10 14 41 10 14 39 10 14 41 10 14 41 10 14 43 10 14 41 10 14 41 10 14 41 10 14 41 
10 14 39 10 14 39 10 14 39 10 14 39 11 15 40 11 15 44 13 14 44 13 17 46 14 17 48 17 20 55 20 27 69 23 28 70 32 38 90 33 38 93 36 41 99 39 43 104 37 41 104 39 41 100 36 41 99 31 34 85 28 32 79 25 28 71 19 22 53 17 20 53 12 14 39 10 14 41 12 14 39 12 14 39 10 14 39 10 14 41 10 14 41 10 14 39 10 14 39 10 14 39 10 14 41 10 14 39 10 14 41 10 14 41 10 14 41 10 14 41 10 14 41 10 14 41 10 14 41 10 14 41 10 14 39 10 14 39 10 14 43 10 14 41 10 14 41 10 14 41 11 15 42 11 15 42 11 15 44 12 16 43 12 16 45 12 16 45 13 17 46 15 18 51 15 18 51 18 20 58 21 24 65 23 27 65 33 36 87 33 36 87 38 43 101 40 44 105 39 43 106 38 42 105 38 42 105 33 36 91 32 38 90 27 30 75 23 26 67 20 24 61 12 16 45 13 16 47 10 14 41 9 13 40 10 14 41 11 15 40 10 14 39 10 14 41 10 14 41 10 14 41 10 14 41 10 14 41 10 14 41 10 14 41 10 14 41 10 14 41 10 14 41 10 14 41 10 14 39 10 14 39 10 14 41 10 14 41 10 14 41 10 14 41 10 14 41 10 14 41 
10 14 39 10 14 39 10 14 39 10 14 39 9 13 40 14 19 49 14 17 50 23 26 67 27 31 78 30 33 84 38 42 103 38 42 103 40 44 107 40 44 107 38 42 103 36 41 99 35 40 96 26 29 74 26 29 74 16 19 54 13 17 46 11 15 42 12 13 41 12 14 39 12 13 41 10 14 39 11 15 42 11 15 40 10 14 41 10 14 39 10 14 41 10 14 41 10 14 39 12 13 41 13 15 40 12 14 39 10 14 41 10 14 41 10 14 41 10 14 41 10 14 41 10 14 41 10 14 41 10 14 41 12 14 39 12 14 39 12 13 43 12 13 41 12 13 41 12 14 39 12 13 41 12 13 41 10 14 41 10 14 41 10 14 41 12 16 43 14 15 43 21 23 62 22 25 66 29 33 81 36 41 99 36 41 97 42 45 112 42 45 112 43 44 109 41 45 109 37 42 100 32 35 88 33 36 87 17 19 57 17 21 56 12 15 46 12 13 41 13 14 42 9 15 39 12 14 39 10 14 39 10 14 39 11 15 42 10 14 39 10 14 39 12 13 41 12 14 39 12 14 39 10 14 41 10 14 41 10 14 41 10 14 41 10 14 41 10 14 41 10 14 41 10 14 41 10 14 43 10 14 41 10 14 39 10 14 39 10 14 39 10 14 39 10 14 41 10 14 39 
10 14 39 10 14 39 10 14 39 9 13 38 11 12 40 14 17 50 14 17 48 23 26 67 27 31 78 30 33 86 36 42 102 36 42 102 40 44 107 40 46 108 38 42 103 39 41 100 35 40 98 27 28 74 26 29 74 16 19 50 13 16 47 12 16 41 9 13 38 10 14 39 10 14 39 11 15 42 10 14 41 10 14 39 10 14 39 10 14 39 10 14 39 10 14 39 10 14 41 10 14 39 10 14 41 10 14 41 10 14 41 10 14 41 10 14 41 10 14 41 10 14 41 10 14 41 10 14 41 10 14 41 12 14 39 12 13 41 12 13 41 12 13 41 12 14 39 12 14 39 12 14 39 12 14 39 10 14 41 10 14 41 13 14 44 11 15 42 13 17 44 21 25 63 21 24 65 29 33 80 36 41 97 36 41 99 43 44 111 42 46 110 41 45 108 40 44 107 36 41 99 33 34 88 33 36 87 19 22 57 16 20 55 12 15 46 10 14 39 12 13 41 9 15 41 12 14 39 10 14 39 12 14 39 12 13 41 12 14 39 12 13 41 12 14 39 10 14 39 9 13 40 10 14 41 10 14 41 10 14 41 10 14 41 10 14 41 10 14 41 10 14 41 10 14 41 10 14 41 10 14 41 10 14 39 10 14 39 10 14 39 10 14 39 10 14 39 10 15 37 
13 14 42 15 15 43 15 18 49 20 24 61 21 23 61 34 37 90 35 38 91 37 39 98 39 43 104 38 42 105 38 42 105 38 42 103 31 37 89 32 35 88 26 31 73 19 23 60 19 22 57 12 16 45 13 17 44 11 15 42 10 14 41 10 14 41 10 14 41 10 14 41 10 14 39 10 14 41 10 14 39 10 14 41 10 14 41 10 14 39 10 14 41 10 14 39 10 14 41 10 14 39 10 14 41 10 14 39 13 15 40 12 14 39 10 14 39 10 14 41 10 14 41 10 14 39 10 14 39 9 13 40 12 14 39 12 13 41 12 14 39 11 15 40 9 13 38 13 15 40 9 13 38 11 12 40 13 16 47 14 17 50 16 20 57 26 30 75 27 31 79 37 39 96 37 41 102 38 42 103 40 44 108 40 44 108 36 41 97 38 40 99 28 32 79 25 28 73 22 26 63 15 19 48 15 19 48 11 15 42 10 14 39 11 15 40 10 14 39 10 14 39 10 14 41 10 14 39 10 14 39 10 14 41 10 14 39 10 14 39 10 14 39 10 14 41 10 14 39 10 14 39 10 14 41 10 14 41 9 13 38 10 14 39 11 16 38 10 14 39 12 14 39 11 12 40 12 14 39 10 14 39 10 14 39 10 14 41 10 14 41 10 14 39 10 14 39 12 14 39 
13 14 42 14 15 43 16 19 52 22 26 64 21 25 63 36 38 95 36 38 95 39 43 104 40 44 107 39 43 106 39 43 106 38 42 105 32 35 86 32 34 85 23 27 65 18 21 52 17 20 51 9 13 38 10 14 39 10 14 41 10 14 41 10 14 39 10 14 41 10 14 39 10 14 41 10 14 39 10 14 41 10 14 39 10 14 41 10 14 39 10 14 41 10 14 39 10 14 41 10 14 39 10 14 41 10 14 39 10 14 39 10 14 41 10 14 39 10 14 39 10 14 39 11 15 42 12 13 41 12 14 37 10 14 39 10 14 41 11 15 42 10 14 41 10 14 39 9 13 38 10 14 39 10 14 39 12 17 46 15 20 52 17 21 58 29 33 80 29 33 80 39 43 106 40 44 105 40 44 107 41 45 109 40 44 108 34 39 95 37 39 98 26 30 75 23 26 67 20 23 58 12 16 43 12 16 43 9 13 40 8 12 39 10 14 39 10 14 41 10 14 39 10 14 41 11 15 42 10 14 41 10 14 39 10 14 39 10 14 41 10 14 41 10 14 39 10 14 39 10 14 41 11 15 40 10 14 39 10 14 41 10 14 41 10 14 39 10 14 39 10 14 41 11 15 42 9 14 36 10 14 41 10 14 41 10 14 39 10 14 39 10 14 39 11 13 38 13 15 40 
19 23 60 23 25 64 25 28 71 31 34 85 31 34 85 40 42 103 37 42 100 37 41 102 37 42 100 35 38 93 31 34 85 31 34 85 24 26 67 21 25 63 17 20 53 14 18 47 14 18 45 10 14 39 12 14 39 12 14 39 10 14 39 10 14 41 10 14 39 10 14 41 10 14 39 10 14 41 10 14 39 10 14 41 10 14 41 10 14 39 10 14 41 10 14 39 10 14 41 10 14 39 10 14 41 10 14 39 10 14 41 10 14 41 10 14 41 11 15 40 10 14 39 10 14 43 12 13 41 12 13 41 11 16 38 10 14 41 9 13 38 10 14 41 11 15 42 10 14 41 17 20 53 17 20 55 23 26 67 25 27 75 27 31 78 36 38 95 34 39 94 38 42 103 38 42 105 37 39 98 33 40 95 34 37 92 25 29 74 27 30 75 18 22 59 17 20 51 17 18 49 10 16 38 11 15 42 9 13 40 9 13 40 10 14 39 10 14 39 10 14 39 10 14 39 10 14 41 10 14 39 10 14 39 10 14 39 10 14 41 10 14 39 10 14 39 10 14 41 10 14 39 12 14 39 11 13 38 12 13 41 10 14 41 10 14 41 10 14 39 9 13 38 10 14 39 11 15 40 12 13 41 10 14 39 12 14 39 10 14 39 11 15 44 12 16 43 14 17 48 
28 30 78 31 35 83 35 37 94 39 43 106 39 43 106 41 45 108 40 44 107 35 40 96 34 39 94 32 35 86 22 25 66 22 26 64 15 16 44 12 16 41 12 16 43 7 13 37 8 12 37 10 14 39 12 13 41 12 13 41 10 14 41 10 14 39 10 14 39 10 14 39 10 14 41 10 14 41 10 14 41 10 14 39 10 14 41 10 14 39 10 14 41 10 14 39 10 14 41 10 14 39 10 14 41 10 14 39 12 14 39 12 14 39 10 14 39 10 14 39 10 14 41 11 15 42 10 14 39 9 13 38 10 14 41 8 12 37 11 13 38 11 15 40 11 15 42 12 16 43 24 27 68 23 26 67 31 34 85 37 39 96 38 43 101 39 43 107 39 44 108 38 42 103 37 41 102 34 37 92 26 32 80 26 29 74 14 19 51 15 18 51 13 14 42 12 14 39 10 14 41 11 15 42 10 14 39 10 14 39 10 14 41 10 14 41 10 14 41 10 14 39 10 14 41 10 14 39 10 14 39 10 14 39 10 14 41 10 14 39 10 14 39 10 14 41 10 14 41 10 14 39 12 14 39 10 14 39 10 14 41 10 14 41 10 14 41 10 14 39 10 14 39 10 14 39 10 14 39 12 14 39 10 14 39 9 13 38 11 15 40 12 16 45 14 17 48 16 20 55 
29 33 80 33 36 87 33 38 93 39 43 104 39 43 106 38 42 103 39 44 102 33 38 93 32 35 88 29 33 81 20 24 61 20 24 61 16 17 45 13 14 42 12 13 41 10 14 39 10 14 39 9 15 39 9 13 38 10 14 39 10 14 39 10 14 39 10 14 41 10 14 39 10 14 39 10 14 39 10 14 39 10 14 41 10 14 39 10 14 39 10 14 39 10 14 39 10 14 39 10 14 39 10 14 39 10 14 39 12 14 39 12 13 41 10 15 37 9 13 40 10 14 39 10 14 39 10 14 41 10 14 39 10 14 41 11 15 42 11 15 42 12 16 43 14 17 48 15 18 49 26 27 71 25 28 71 32 35 88 37 42 98 36 41 99 40 44 107 40 44 107 37 39 96 39 41 98 32 35 88 26 30 75 24 27 70 14 19 51 14 19 51 12 16 45 12 13 41 12 14 39 11 12 40 10 14 39 10 14 41 10 14 39 10 14 41 10 14 41 10 14 41 10 14 41 10 14 39 10 14 41 10 14 39 10 14 39 10 14 39 10 14 41 10 14 39 10 14 39 10 14 41 9 13 38 10 14 41 10 14 41 10 14 41 10 14 41 10 14 39 10 14 39 12 13 41 10 14 43 10 14 41 12 16 41 10 14 41 13 14 42 15 18 49 16 19 52 18 22 59 
38 44 106 40 44 105 38 44 104 36 41 99 39 41 100 27 30 73 26 29 74 18 22 59 14 18 47 12 16 45 12 14 39 12 13 41 10 14 39 12 13 41 10 14 41 10 14 41 12 14 39 10 14 39 10 14 39 10 14 39 10 14 41 10 15 37 10 14 39 10 14 39 10 14 39 10 14 41 10 14 39 10 14 39 10 14 39 10 14 39 10 14 39 10 14 39 10 14 39 10 14 39 10 14 39 10 14 39 10 14 39 10 14 41 10 14 39 10 14 41 10 14 39 10 14 39 12 13 41 12 14 39 10 14 39 17 21 50 19 22 55 23 28 70 32 35 86 31 34 85 40 44 107 40 44 105 40 44 107 40 44 107 38 42 103 34 36 93 34 37 92 22 24 63 20 22 60 16 19 50 11 15 42 10 14 41 10 14 39 10 14 39 9 13 40 12 13 41 12 13 41 12 13 41 10 14 41 10 14 43 10 14 39 10 14 39 10 14 39 10 14 39 10 14 39 10 14 41 10 14 39 10 14 41 10 14 39 10 14 39 10 14 41 10 14 39 10 14 39 10 14 41 10 14 41 10 14 39 10 14 41 10 14 41 10 14 39 12 14 39 12 14 39 12 14 39 10 14 39 12 14 39 10 14 41 20 22 61 19 23 58 30 33 78 33 36 91 35 37 96 
39 43 106 40 44 108 38 42 105 37 42 100 36 41 99 28 31 76 27 30 75 17 21 58 14 18 47 13 17 46 10 14 39 10 14 39 12 13 41 12 14 39 10 14 41 10 14 41 10 14 39 10 14 39 10 14 39 10 14 39 10 14 39 10 14 39 10 14 41 10 14 39 10 14 39 10 14 39 10 14 39 10 14 41 10 14 39 10 14 39 10 14 39 10 14 39 10 14 39 10 14 39 10 14 39 10 14 39 10 14 39 10 14 41 10 14 39 10 14 39 10 14 41 9 13 38 12 14 39 12 13 41 10 14 39 17 20 51 19 22 55 23 26 67 33 36 89 32 35 86 41 45 108 39 43 106 40 44 108 39 45 107 38 42 105 33 36 91 31 36 91 22 24 63 20 22 60 17 18 49 11 15 40 11 15 40 10 14 41 12 14 39 12 14 39 12 14 39 12 14 39 12 14 39 10 14 39 10 14 41 10 14 41 10 14 41 10 15 37 10 14 39 10 14 39 10 14 41 10 14 39 10 14 41 10 14 41 10 14 39 10 14 39 10 14 41 10 14 41 10 14 39 10 14 39 10 14 39 10 14 39 10 14 41 10 14 41 10 14 41 10 14 41 10 14 41 12 14 39 13 14 44 12 13 41 21 23 61 20 24 61 29 31 79 33 35 92 36 38 95 
33 38 94 34 37 92 31 33 82 22 25 66 20 25 65 14 18 47 14 18 47 11 15 42 11 15 40 12 14 39 12 14 39 10 14 39 10 15 37 10 14 41 10 14 39 10 14 41 9 15 37 12 14 39 12 14 39 12 13 41 10 14 39 10 14 39 10 14 39 10 14 39 10 14 39 10 14 39 10 14 39 10 14 39 10 14 39 10 14 39 10 14 39 10 14 39 10 14 39 10 14 39 10 14 39 10 14 39 12 13 41 11 12 40 10 14 39 10 14 39 11 15 42 12 16 45 13 16 47 24 26 67 22 25 66 32 34 83 34 37 90 37 39 96 38 43 101 38 42 105 38 42 103 37 41 102 33 36 89 29 33 80 28 31 76 19 22 57 18 22 59 12 16 43 12 16 45 14 15 43 13 14 44 13 13 41 10 15 37 11 15 42 10 14 39 10 14 39 12 14 39 12 13 41 10 14 41 10 14 41 10 14 41 11 15 42 10 14 39 10 14 39 10 14 39 10 14 39 10 14 41 10 14 39 10 14 39 10 14 41 10 14 39 10 14 39 10 14 39 10 14 39 12 13 41 13 14 42 10 14 41 10 14 41 10 14 41 10 14 41 13 17 46 13 16 47 16 21 53 23 28 70 23 26 67 35 38 93 35 38 93 39 41 100 38 42 105 39 41 102 
33 36 91 29 35 85 25 29 74 15 19 54 17 20 55 9 13 40 9 13 38 9 13 38 9 13 38 9 13 38 10 14 39 10 14 41 10 14 39 10 14 39 10 14 39 10 14 39 10 14 39 10 14 39 10 14 39 10 14 39 10 14 39 9 13 40 10 14 41 10 14 39 10 14 39 10 14 39 10 14 39 10 14 39 12 14 39 12 14 39 10 14 39 10 14 39 10 14 39 10 16 40 10 14 39 12 13 41 12 14 39 10 14 41 10 12 37 12 14 39 11 15 44 13 16 47 16 19 50 26 29 74 28 31 76 36 39 94 38 42 103 38 42 103 40 44 107 40 44 108 36 41 99 38 40 101 30 34 82 25 28 71 22 26 64 13 17 46 13 17 46 10 14 39 9 13 40 12 14 39 10 14 39 10 14 41 10 14 39 10 14 41 10 14 39 10 14 39 10 14 39 10 14 41 10 14 39 10 14 39 10 14 39 10 14 39 10 14 41 10 14 39 10 14 39 10 14 39 10 14 39 10 14 39 12 14 39 10 15 37 12 14 39 10 14 39 10 14 39 12 13 41 9 13 40 10 14 41 10 14 41 11 15 40 10 14 39 12 14 39 16 17 48 14 17 50 19 23 61 29 33 81 29 31 80 39 43 106 37 41 102 39 43 106 40 44 107 39 43 106 
27 28 74 23 26 69 19 23 60 14 17 48 15 18 49 9 13 38 10 14 39 9 13 38 9 13 38 10 14 39 10 14 39 10 14 41 10 14 41 10 14 41 10 14 41 10 14 41 10 14 41 10 14 41 10 14 41 10 14 41 10 14 39 9 13 38 10 14 39 10 14 39 9 13 38 10 14 41 10 14 41 10 14 41 11 13 38 13 15 40 10 14 39 10 14 41 10 14 39 9 13 38 11 15 40 10 14 39 9 15 39 10 14 41 14 18 47 15 18 49 18 21 56 22 26 64 22 25 66 33 35 86 32 35 88 37 39 96 37 41 102 40 42 101 36 41 99 36 41 99 29 33 81 30 34 82 24 27 68 19 23 58 18 20 58 14 15 43 12 16 43 10 14 41 10 15 37 10 14 39 10 14 39 10 14 41 10 14 39 10 14 39 10 14 39 10 14 39 10 14 39 10 14 41 10 14 41 10 14 41 10 14 39 10 14 41 10 14 39 10 14 41 10 14 41 10 14 41 12 14 39 10 14 41 12 14 39 12 14 39 11 12 40 12 13 41 13 14 42 12 13 41 12 14 39 12 13 41 12 14 39 12 16 43 15 18 49 15 18 51 21 23 61 22 27 67 26 30 75 35 36 90 33 36 87 40 42 103 38 42 105 38 40 99 35 40 98 34 37 92 
15 19 48 11 15 42 10 14 41 10 14 39 9 13 40 9 13 40 10 14 41 10 14 39 9 13 38 10 14 39 10 14 41 10 14 39 10 14 39 10 14 39 10 14 39 10 14 39 10 14 39 10 14 39 10 14 39 10 14 39 10 14 39 10 14 39 10 14 41 10 14 41 10 14 39 10 14 39 10 14 39 10 14 39 10 14 39 10 14 41 10 14 41 12 14 39 9 14 36 10 14 39 9 13 38 8 14 38 10 14 43 10 14 41 20 22 60 22 24 62 28 30 78 35 38 93 35 37 94 40 44 107 40 44 108 39 43 106 39 43 106 35 40 96 31 34 85 30 33 84 16 21 53 18 21 54 13 17 44 10 14 41 10 14 39 10 15 37 12 14 37 10 15 37 10 14 39 10 14 39 10 14 39 10 14 39 10 14 39 10 14 39 10 14 39 10 14 39 10 14 39 10 14 39 10 14 39 10 14 39 10 14 39 10 14 39 10 14 39 10 14 39 10 14 39 10 14 39 12 14 39 10 15 37 10 14 39 12 14 39 10 14 39 10 14 41 10 14 39 10 14 39 10 14 41 9 13 40 11 15 42 13 16 47 22 24 63 21 25 63 32 35 88 36 38 95 37 42 100 40 44 107 41 45 108 38 42 103 38 42 105 34 37 90 28 32 80 25 30 72 
13 16 47 11 15 42 13 14 42 13 15 40 9 13 38 9 13 38 9 13 38 8 12 37 9 13 38 9 14 36 10 14 41 10 14 39 10 14 39 10 14 39 10 14 39 10 14 39 10 14 39 10 14 39 10 14 39 10 14 39 9 13 40 9 13 38 10 14 39 10 14 39 10 14 39 10 14 39 11 15 40 10 14 39 10 14 39 10 14 39 10 14 41 12 13 41 10 14 39 10 14 39 9 13 38 10 14 39 13 14 42 13 14 42 19 23 60 21 25 62 27 31 76 33 38 93 36 39 94 40 44 107 40 44 107 39 43 106 38 44 106 37 39 96 31 34 85 31 34 85 17 22 52 18 21 52 12 16 43 10 14 39 12 14 39 12 14 39 12 14 39 10 14 41 10 14 39 11 15 42 10 14 39 10 14 39 10 14 41 10 14 41 10 14 41 10 14 41 10 14 39 10 14 39 10 14 39 10 14 39 10 14 41 10 14 39 10 14 41 10 14 39 10 14 39 10 14 39 12 13 41 10 14 39 9 13 38 10 14 39 10 14 41 10 14 39 10 14 41 10 14 39 9 13 38 10 14 41 11 15 40 12 16 45 23 25 64 22 26 64 32 35 88 36 38 95 38 40 99 40 44 108 42 43 108 39 43 106 38 42 105 31 37 89 31 35 82 24 28 73 
11 13 38 11 12 40 9 13 38 9 13 38 9 13 38 9 13 38 9 13 38 9 13 38 9 13 38 9 13 38 9 13 38 8 12 37 10 14 41 10 14 41 10 14 41 10 14 41 10 14 41 10 14 41 10 14 41 10 14 41 10 14 39 10 14 39 10 14 39 9 13 38 10 14 39 10 14 39 10 14 39 10 14 41 9 13 38 10 14 41 9 13 40 12 14 39 10 14 39 14 17 48 16 19 52 20 22 60 30 33 84 29 33 81 37 41 102 38 42 103 40 44 105 41 45 109 41 43 104 36 38 95 34 39 95 25 28 71 22 26 64 20 23 58 12 16 43 13 14 42 12 14 39 9 13 40 9 13 38 10 15 37 11 13 38 12 13 41 12 13 41 10 14 39 11 16 38 9 13 38 10 14 39 10 14 39 10 14 41 10 14 39 10 14 39 10 14 39 10 14 39 10 14 41 10 14 39 10 14 39 10 14 39 10 14 39 10 14 39 10 14 39 10 14 39 10 14 39 10 14 41 10 14 39 10 14 41 10 14 39 9 13 38 12 14 39 13 13 39 15 18 51 15 19 54 23 26 69 31 33 82 31 34 87 39 43 106 39 43 106 40 44 107 38 43 107 38 43 101 35 38 91 36 39 94 21 23 62 22 24 63 16 17 48 11 15 42 10 14 41 
11 13 38 9 13 38 10 14 39 10 15 37 9 13 40 8 12 39 10 14 39 9 13 38 9 13 38 11 15 40 9 13 38 9 13 38 10 14 39 10 14 39 10 14 39 10 14 39 10 14 39 10 14 39 10 14 39 10 14 39 10 14 39 10 14 39 10 14 39 10 14 39 10 14 39 10 14 39 10 14 39 10 14 39 10 14 39 10 14 39 10 14 39 10 14 39 10 14 39 13 16 47 15 20 50 19 23 60 28 34 82 29 33 81 36 40 101 38 42 103 39 43 106 40 44 107 39 43 106 36 38 95 33 38 94 25 30 72 22 26 63 19 22 55 12 16 41 12 16 41 9 13 40 10 14 39 10 14 41 10 14 39 10 14 39 10 14 39 12 14 39 9 14 36 10 14 39 10 14 41 10 14 39 10 14 39 10 14 41 10 14 41 10 14 39 10 14 39 10 14 39 10 14 39 10 14 39 10 14 39 10 14 39 10 14 39 10 14 39 10 14 39 10 14 39 10 14 39 12 14 39 9 14 36 10 14 39 14 14 40 12 13 41 12 14 39 12 13 41 15 18 49 16 19 54 23 26 67 31 33 84 31 34 87 38 42 103 39 43 106 40 44 107 41 45 108 37 42 100 35 38 93 34 37 90 22 24 63 21 25 63 15 18 49 10 14 41 11 15 42 
10 14 39 10 14 39 10 14 39 10 14 39 11 13 38 11 13 38 11 13 36 11 13 38 12 14 39 11 13 38 12 14 39 10 12 37 9 13 38 9 13 38 9 13 38 10 14 39 10 14 39 10 14 39 10 14 39 10 14 39 10 14 39 10 14 39 10 14 39 10 14 39 10 14 39 10 14 39 8 12 37 9 13 38 11 15 40 12 16 43 11 15 42 19 22 57 18 22 57 25 28 71 28 32 80 30 34 82 37 39 96 36 41 99 36 41 99 38 42 103 34 39 95 33 36 89 32 35 88 23 26 67 22 25 66 17 20 53 14 17 48 14 15 46 10 14 41 10 14 41 10 14 39 10 15 37 11 15 40 10 14 39 12 14 39 12 14 39 12 14 39 9 14 36 10 14 39 11 15 42 10 14 39 10 14 39 10 14 39 10 14 39 10 14 39 10 14 39 10 14 39 10 14 39 10 14 39 10 14 39 10 14 39 10 14 39 10 14 39 10 14 39 10 14 39 10 14 39 10 14 41 11 13 36 12 16 43 11 15 44 14 18 47 20 22 60 19 23 61 27 31 79 29 33 81 33 36 89 36 41 97 36 41 99 37 41 102 37 41 102 32 37 92 32 35 86 29 31 79 21 24 65 22 25 66 16 17 48 14 18 47 12 16 43 9 13 38 9 13 38 
10 14 39 9 13 38 9 13 38 8 14 40 11 13 38 12 14 39 11 13 38 12 14 39 11 13 38 11 12 40 11 13 38 11 13 38 9 13 38 9 13 38 9 13 38 9 13 38 10 14 39 10 14 39 10 14 39 10 14 39 11 15 40 10 14 39 10 14 39 10 14 39 10 14 39 10 14 39 9 13 38 10 14 39 10 14 39 12 16 43 12 16 43 25 27 68 24 27 68 33 36 87 34 40 98 36 41 99 40 44 107 40 44 107 40 42 103 38 42 103 34 37 90 28 30 78 25 29 74 14 17 48 13 18 48 11 15 42 11 13 38 9 13 40 10 14 39 12 14 39 10 14 39 10 14 39 11 13 38 10 14 39 12 14 39 10 14 39 12 14 39 9 13 38 10 14 39 10 14 39 10 14 41 10 14 39 10 14 39 10 14 39 10 14 39 10 14 39 10 14 41 10 14 39 10 14 39 10 14 39 10 14 39 10 14 39 10 14 39 10 14 39 10 14 39 10 14 39 9 13 38 10 14 39 11 15 42 13 17 46 16 19 52 25 28 69 25 28 71 34 39 95 36 41 97 38 42 103 40 44 107 40 44 105 37 41 102 37 41 102 29 33 81 27 30 75 21 25 63 15 16 47 13 17 46 11 12 40 11 13 38 13 15 40 10 14 39 9 13 38 
9 13 38 10 14 39 9 13 38 9 13 38 11 13 38 11 13 38 11 13 38 11 13 38 11 13 38 11 13 38 11 13 38 11 13 38 11 13 38 11 13 38 9 13 38 10 14 39 10 14 39 10 14 39 12 14 39 10 14 41 10 14 39 10 14 39 10 14 39 12 13 41 10 14 39 13 15 40 11 15 42 11 15 44 12 17 46 17 21 56 18 21 56 27 31 78 27 31 78 35 37 94 40 42 101 37 42 100 37 42 100 38 42 103 33 38 93 34 37 92 29 33 80 23 26 67 23 25 63 13 17 46 13 17 46 11 15 42 10 14 39 10 14 39 10 14 39 10 14 39 10 14 39 10 14 39 12 14 39 12 14 39 12 14 39 12 14 39 12 14 39 12 14 39 12 14 39 12 14 39 12 14 39 12 14 39 10 14 39 10 14 39 10 14 39 10 14 39 10 14 39 9 13 38 10 14 41 10 14 39 10 14 39 10 14 39 10 14 39 12 14 39 12 13 41 12 13 41 11 15 42 12 16 43 14 19 49 18 21 54 20 24 62 29 31 79 29 32 77 38 40 97 37 41 102 37 42 100 38 42 103 36 40 101 31 36 91 33 35 92 25 28 73 22 26 64 19 21 59 12 16 45 14 18 47 10 14 41 10 14 39 11 15 40 10 14 39 9 13 38 
9 13 38 9 13 38 9 13 38 9 13 38 10 12 37 12 14 39 11 13 38 11 13 38 11 13 38 11 13 38 11 13 38 10 12 37 11 13 38 12 14 39 9 13 38 9 13 38 8 12 37 9 13 38 12 14 39 13 15 40 11 12 40 12 14 39 10 14 39 12 13 41 9 15 41 11 15 40 15 20 52 17 21 56 23 27 65 32 35 86 32 35 88 40 44 107 40 44 105 40 44 107 40 44 107 37 41 102 33 34 90 34 35 89 19 23 61 17 21 58 13 16 51 10 14 39 11 15 40 11 13 38 11 15 40 10 14 39 10 14 39 10 14 41 10 14 41 10 14 39 10 14 39 10 14 39 12 14 39 12 14 39 12 14 39 12 14 39 12 14 39 12 14 39 12 14 39 12 14 39 11 13 38 12 14 39 10 14 39 10 14 39 10 14 39 10 14 39 10 14 41 10 14 41 10 14 39 10 14 39 11 15 40 10 14 39 10 14 39 12 12 40 13 14 42 13 13 41 16 20 55 17 21 58 26 30 77 32 35 88 36 38 95 39 43 107 40 44 107 40 44 107 39 43 106 37 39 96 32 35 88 32 34 83 16 20 57 16 20 57 12 16 43 10 14 41 10 14 39 10 14 39 9 14 36 8 12 37 11 16 38 10 14 39 10 14 39 10 14 39 
9 13 38 10 14 39 9 13 38 9 13 38 12 14 39 11 13 38 11 13 38 11 13 38 12 14 39 11 13 38 11 13 38 11 13 38 13 13 39 11 13 38 9 13 38 10 14 39 9 13 40 13 13 41 12 14 39 12 14 39 12 14 39 12 14 39 10 14 39 12 13 41 10 14 39 10 14 41 15 20 52 17 21 58 23 26 67 32 35 86 32 35 88 39 43 107 39 43 106 39 43 106 39 43 104 37 41 102 32 35 90 33 36 89 19 22 63 18 22 59 14 17 48 10 14 39 13 15 40 11 13 38 10 14 39 10 14 39 10 14 39 10 14 41 10 14 41 10 14 39 10 14 39 10 14 39 12 14 39 12 14 39 12 14 39 12 14 39 12 14 39 12 14 39 12 14 39 12 14 39 12 14 39 12 14 39 10 14 39 10 14 39 10 14 39 11 15 40 9 13 38 10 14 39 12 14 39 11 13 38 12 14 39 12 14 39 12 13 41 10 14 39 10 14 41 9 15 41 17 20 55 17 21 56 27 30 75 32 35 86 34 37 92 39 43 106 39 43 106 39 43 106 40 44 105 35 40 96 33 35 86 31 33 84 18 22 59 18 20 58 11 15 44 12 13 41 10 14 39 10 14 39 10 14 39 10 14 39 10 14 39 11 16 38 10 14 39 10 14 39 
9 13 38 10 14 39 8 12 37 9 13 38 11 13 38 11 13 38 11 13 38 12 14 39 11 13 38 11 13 38 12 14 39 12 14 39 11 13 38 11 13 38 9 13 38 11 13 38 12 14 39 12 14 39 10 11 39 12 14 37 11 15 42 11 15 44 13 16 47 15 18 51 26 29 70 25 28 73 33 36 89 34 39 95 36 41 99 39 43 106 39 43 104 36 41 99 36 41 99 29 32 83 27 30 73 23 26 67 15 18 49 15 18 49 10 16 38 12 13 41 10 14 39 10 14 41 10 14 41 10 14 39 10 14 39 10 14 39 10 14 39 10 14 39 10 14 39 10 14 39 10 14 39 10 14 41 12 14 39 12 14 39 12 14 39 12 14 39 12 14 39 12 14 39 12 14 39 12 14 39 12 14 39 11 13 38 10 14 39 10 14 39 10 14 39 9 13 38 10 14 39 10 14 39 13 15 40 9 14 36 11 13 38 12 16 43 12 16 45 17 20 53 24 27 70 25 28 71 32 37 92 34 39 95 36 42 100 38 42 105 38 43 101 36 41 97 36 41 97 29 31 79 27 30 75 21 25 62 15 18 51 15 18 51 10 14 39 10 14 39 11 15 40 10 14 41 10 14 39 10 14 39 10 14 39 9 13 38 10 14 39 10 14 41 10 14 41 10 14 39 
9 13 38 9 13 38 10 14 39 9 13 38 12 14 39 11 13 38 11 13 38 11 13 38 11 13 38 11 13 38 12 14 39 10 12 37 8 14 38 9 13 38 13 13 39 13 13 39 12 14 39 12 14 39 9 13 40 9 13 38 11 13 38 13 14 42 14 17 48 16 19 52 28 30 78 27 30 75 36 38 95 39 41 102 40 44 105 40 44 107 41 45 108 37 39 96 38 40 99 30 32 80 25 28 69 22 24 63 12 16 43 12 16 43 10 14 39 9 13 38 12 14 39 9 13 38 10 14 41 10 14 41 9 13 40 10 14 39 10 14 39 10 14 39 10 14 39 10 14 39 10 14 39 11 15 40 12 14 39 12 14 39 12 14 39 12 14 39 12 14 39 12 14 39 12 14 39 12 14 39 12 14 39 12 14 39 10 14 39 10 14 39 9 13 38 9 13 38 10 14 39 10 14 41 8 12 37 10 14 39 9 13 38 11 15 42 14 18 47 17 20 55 26 29 74 26 29 74 37 39 96 36 41 99 38 42 103 41 45 108 39 43 104 36 41 97 36 41 99 27 30 73 25 28 69 18 22 57 12 16 45 12 16 43 10 14 39 9 13 38 10 14 39 9 13 40 9 13 38 10 14 39 10 14 39 10 14 39 10 14 39 10 14 39 10 14 41 10 14 39 
9 13 38 9 13 38 9 13 38 9 13 38 11 13 38 11 13 38 11 13 38 11 13 38 11 13 38 11 13 38 11 13 38 12 14 39 9 13 38 9 13 38 11 13 38 11 13 38 9 13 38 9 15 41 10 14 39 14 17 48 16 19 50 18 22 59 25 28 73 25 28 73 34 37 92 33 36 89 38 40 99 38 40 101 37 42 100 33 38 94 34 39 94 24 31 73 25 29 74 21 25 63 18 20 58 17 18 49 11 15 42 10 14 41 9 13 40 10 14 39 9 15 39 12 14 39 10 14 39 9 13 40 9 13 40 10 14 41 10 14 39 10 14 39 10 14 39 10 14 39 10 14 39 10 15 37 12 14 39 12 14 39 12 14 39 12 14 39 12 14 39 12 14 39 12 14 39 12 14 39 12 14 39 12 14 39 10 14 39 10 14 39 10 14 39 9 13 38 10 14 39 10 14 39 10 14 39 15 18 49 16 19 50 21 23 62 24 27 70 27 29 77 34 37 92 33 36 91 38 40 101 38 42 105 38 40 97 36 38 95 33 36 89 27 30 75 26 29 74 19 22 57 18 21 54 13 18 48 11 15 40 11 15 42 11 15 42 10 14 39 9 13 38 10 14 39 10 14 39 10 14 41 10 14 39 10 14 39 10 14 39 10 14 39 9 13 38 9 13 40 
9 13 38 10 14 39 9 13 38 9 13 38 11 13 38 12 14 39 11 13 38 11 13 38 12 14 39 11 13 38 11 13 38 11 13 38 9 13 38 9 13 38 12 14 39 9 13 38 9 13 38 11 15 42 9 15 41 18 22 57 21 26 64 27 30 75 35 37 94 35 40 96 40 44 107 42 43 107 38 42 105 38 42 103 34 39 95 29 33 81 30 34 82 16 19 50 16 19 52 12 16 45 10 14 39 10 14 41 10 14 39 9 15 39 9 15 37 10 14 39 10 14 39 10 15 37 9 13 38 12 14 39 10 14 39 10 14 39 10 14 39 10 14 39 10 14 39 10 14 39 10 14 39 9 13 38 12 14 39 12 14 39 12 14 39 12 14 39 12 14 39 12 14 39 12 14 39 12 14 39 12 14 39 12 14 39 10 14 39 11 15 40 9 13 38 9 13 38 10 14 39 11 15 40 11 16 38 20 24 61 21 25 62 30 34 81 35 38 93 34 39 95 40 44 108 40 44 107 40 41 105 39 43 104 34 37 92 29 32 83 28 30 79 16 19 50 14 19 51 12 14 39 10 14 39 9 13 38 10 14 39 10 14 41 9 14 36 10 14 39 12 14 39 12 14 39 10 15 37 10 14 41 9 13 40 10 14 39 10 14 41 10 14 39 10 14 39 10 14 39 
9 13 38 9 13 38 9 13 38 9 13 38 11 13 38 11 13 38 11 13 38 11 13 38 11 13 38 11 13 38 11 13 38 11 13 38 9 13 38 9 13 38 12 14 39 11 15 42 11 15 42 15 20 52 14 19 51 23 26 69 26 29 74 31 33 84 35 40 96 35 41 99 38 42 103 38 42 103 33 40 95 34 37 92 30 33 84 25 30 72 24 29 71 13 16 47 14 17 48 11 15 42 10 14 39 13 15 40 12 14 39 12 14 39 12 14 39 10 14 39 11 12 40 9 15 39 12 14 39 11 13 38 10 14 39 10 14 39 10 14 39 10 14 39 9 13 38 10 14 39 11 15 40 10 15 37 12 14 39 12 14 39 12 14 39 12 14 39 12 14 39 12 14 39 12 14 39 12 14 39 12 14 39 12 14 39 10 14 39 10 14 39 11 15 40 11 15 42 12 16 45 16 19 50 15 18 49 25 28 71 25 28 71 32 35 88 38 40 97 35 40 98 37 41 102 38 42 105 36 38 95 33 38 93 30 32 81 26 29 72 23 26 67 16 17 48 15 18 49 10 14 39 12 14 39 12 14 39 11 13 38 12 14 39 10 14 39 10 14 39 13 14 42 12 14 39 10 14 39 10 14 39 10 14 39 10 14 39 10 14 39 9 13 40 10 14 39 10 14 41 
9 13 38 8 12 37 9 13 38 9 13 38 9 13 38 10 14 41 9 13 38 9 13 38 11 12 40 12 14 39 11 13 36 9 13 38 11 13 36 9 13 38 12 16 45 16 19 52 18 21 56 29 33 81 28 32 80 36 41 99 39 43 104 38 44 106 39 45 107 38 42 105 32 37 92 35 38 93 26 29 72 22 24 62 18 21 54 11 15 42 12 16 43 9 13 38 9 13 38 10 14 39 10 14 39 10 14 39 10 14 39 10 14 39 10 14 39 10 14 39 10 14 39 10 14 39 10 14 39 10 14 39 10 14 39 10 14 39 10 14 39 10 14 39 10 14 39 10 14 39 11 15 40 10 14 39 10 14 39 10 14 39 10 14 39 10 14 39 12 14 39 10 14 41 10 14 39 10 14 39 9 13 38 12 14 39 12 14 39 12 14 39 13 17 46 14 17 48 19 23 60 28 32 80 29 33 80 38 42 103 38 43 101 38 42 106 40 44 105 38 42 103 35 38 93 35 37 94 23 26 67 22 25 66 16 19 50 11 15 42 11 15 44 9 13 38 10 14 39 12 14 39 12 14 39 12 14 39 11 13 38 12 14 39 12 14 39 12 14 39 12 14 39 12 14 39 12 14 39 12 14 39 12 14 39 12 14 39 12 14 39 12 14 39 12 14 39 12 14 39 
9 13 38 10 14 39 10 14 39 10 14 39 11 13 38 11 13 38 9 14 36 9 13 38 11 13 38 11 13 38 10 14 39 9 14 36 12 12 38 11 13 38 12 16 43 16 19 52 18 20 58 30 34 82 30 33 84 37 42 100 37 41 104 39 43 106 40 44 107 39 43 104 35 38 93 35 38 93 24 27 72 21 23 61 18 21 54 14 15 43 11 15 40 10 14 39 11 13 38 10 14 39 9 13 38 10 14 39 10 14 39 10 14 39 10 14 39 10 14 39 10 14 39 10 14 39 10 14 39 10 14 39 9 13 38 10 14 39 10 14 39 10 14 39 10 14 39 9 13 38 10 14 39 10 14 39 10 14 39 10 14 39 10 14 39 12 14 39 12 13 41 12 14 39 12 14 39 12 14 39 10 14 39 9 13 38 10 14 39 10 14 39 12 17 47 15 18 49 20 22 60 28 31 76 28 30 79 38 43 101 38 43 101 39 43 106 40 44 107 39 43 104 36 39 94 33 38 93 24 26 67 23 25 64 16 19 50 11 15 42 10 14 41 8 14 40 10 14 41 11 12 40 12 14 39 12 14 39 12 14 39 12 14 39 11 13 38 11 13 38 11 13 38 12 14 39 12 14 39 12 14 39 12 14 39 12 14 39 12 14 39 12 14 39 12 14 39 12 14 39 
8 12 37 9 13 38 9 13 38 9 13 38 10 14 39 9 13 38 9 14 36 9 13 38 9 13 38 13 14 42 14 15 45 12 16 45 21 23 64 23 26 67 28 32 80 35 37 94 33 38 94 38 42 105 39 43 104 37 42 100 36 40 101 33 38 94 28 32 79 27 28 74 14 19 51 15 18 51 13 17 46 13 14 42 11 15 42 10 14 39 11 15 42 12 14 39 10 14 39 10 14 41 12 14 39 10 14 39 10 14 39 10 14 39 10 14 39 10 14 39 10 14 39 10 14 39 10 14 39 10 14 39 10 14 39 10 14 39 10 14 39 10 14 39 10 14 39 10 14 39 10 14 39 10 14 39 10 14 39 10 14 39 10 14 39 13 15 40 11 13 38 10 14 39 9 13 38 10 14 39 12 16 43 12 16 43 21 25 62 21 25 62 30 34 82 34 37 92 34 39 95 38 42 103 38 42 103 39 41 102 40 42 103 33 36 89 30 33 84 23 30 74 16 20 55 16 20 55 12 16 43 12 16 43 11 15 40 10 14 41 10 14 39 10 14 39 10 14 39 10 14 39 12 14 39 12 14 39 12 14 39 12 14 39 12 14 39 12 14 39 12 14 39 12 14 39 11 13 38 12 14 39 11 13 38 12 14 39 11 13 38 12 14 39 12 14 39 12 14 39 
10 14 39 9 13 38 9 13 38 10 14 39 10 14 39 12 14 39 9 13 38 12 14 39 9 13 38 12 14 39 12 17 46 12 16 43 25 27 68 25 28 71 31 34 85 35 40 98 36 41 99 40 44 107 40 44 107 38 42 103 36 40 101 34 37 92 28 31 74 24 27 72 13 17 46 13 17 46 10 14 41 9 13 38 10 14 39 10 14 39 10 14 43 10 14 39 10 14 39 9 13 40 10 14 39 10 14 39 10 14 39 10 14 39 10 14 39 10 14 39 10 14 39 10 14 39 10 14 39 10 14 39 10 14 39 10 14 39 10 14 39 9 13 38 10 14 39 10 14 39 8 12 37 9 13 38 10 14 39 10 14 39 10 14 39 12 14 39 13 13 41 11 13 38 11 13 38 11 12 40 13 15 40 14 18 47 23 25 66 23 27 65 33 36 89 34 39 97 36 41 99 39 43 106 40 44 107 39 41 100 40 42 101 33 36 87 28 32 79 24 27 70 14 17 48 14 17 48 9 15 41 9 13 38 9 13 40 10 14 39 10 14 39 9 13 38 10 14 39 10 14 39 12 14 39 12 14 39 12 14 39 12 14 39 12 14 39 12 14 39 12 14 39 12 14 39 12 14 39 12 14 39 12 14 39 11 13 38 12 14 39 10 12 37 12 14 39 11 13 38 
8 12 37 9 13 38 10 14 39 9 13 38 11 13 38 8 12 37 11 13 38 13 17 44 15 18 49 17 20 53 23 26 67 21 26 66 31 35 83 33 36 87 36 38 95 38 42 103 37 42 100 36 38 95 37 39 98 30 34 82 30 33 78 24 27 68 19 22 57 20 20 54 13 14 42 14 15 43 11 13 38 11 13 38 10 14 41 10 14 41 10 14 39 9 13 38 9 13 38 9 13 38 10 14 39 10 14 39 10 14 39 10 14 39 10 14 39 10 14 39 10 14 39 10 14 39 10 14 39 10 14 39 10 14 39 10 14 39 10 14 39 10 14 39 10 14 39 10 14 39 10 14 39 10 14 39 10 14 39 10 14 39 9 15 39 10 14 39 10 14 39 13 17 46 13 17 44 18 21 54 21 25 63 22 25 66 30 36 86 30 33 84 35 42 97 37 42 100 36 43 98 38 40 99 35 40 98 29 31 79 30 32 80 24 28 66 20 22 60 18 21 56 11 15 44 11 16 45 12 12 40 11 12 40 10 14 41 10 14 39 10 14 39 10 14 39 9 13 38 9 15 39 12 14 39 12 14 39 11 13 38 12 14 39 12 14 39 11 13 38 12 14 39 11 13 38 11 13 38 12 14 39 11 13 38 12 14 39 12 14 39 12 14 39 12 14 39 12 14 39 
9 13 38 9 13 38 9 13 38 9 13 38 9 13 40 10 14 39 9 13 38 15 18 49 20 22 60 23 25 66 33 36 89 33 34 88 38 42 103 39 43 106 38 44 104 39 43 106 38 42 103 32 35 88 33 34 88 20 24 61 18 21 52 16 20 49 9 13 38 12 14 39 11 13 38 9 13 38 9 15 39 12 13 41 10 14 39 10 14 39 10 14 39 12 14 39 10 14 39 10 14 39 12 14 39 10 14 39 10 14 39 10 14 39 10 14 39 10 14 39 10 14 39 10 14 39 10 14 39 10 14 39 9 13 38 10 14 39 9 13 38 9 13 38 10 14 39 10 14 39 10 14 39 10 14 39 10 14 41 10 14 39 10 14 39 10 14 39 11 15 40 16 19 50 17 20 51 24 27 68 30 33 86 31 35 83 38 42 103 39 43 104 40 44 105 40 44 107 37 41 102 35 36 92 34 37 92 20 22 60 21 24 59 13 17 46 10 14 41 10 14 39 10 14 39 12 14 39 10 14 39 10 14 39 9 13 38 9 13 38 9 13 38 10 14 39 10 14 39 10 14 41 12 14 39 11 13 38 12 14 39 12 14 39 12 14 39 12 14 39 12 14 39 12 14 39 12 14 39 13 15 40 12 14 39 12 14 39 12 14 39 12 14 39 12 14 39 12 14 39 
9 13 38 9 13 38 10 14 41 10 14 43 10 14 39 12 16 43 14 15 43 17 21 58 21 25 63 24 27 70 33 36 89 34 37 90 40 42 101 40 42 103 38 43 101 37 42 100 35 40 96 30 34 82 29 33 81 20 24 59 17 20 53 13 17 46 10 14 39 10 14 41 9 13 38 9 13 38 10 14 39 12 14 39 10 14 39 12 14 39 9 13 40 9 13 40 11 13 38 11 15 42 10 14 39 10 14 39 10 14 39 10 14 39 10 14 39 10 14 39 10 14 39 10 14 39 10 14 39 10 14 39 10 14 39 9 13 38 9 13 38 10 14 39 10 14 39 10 14 39 10 14 39 9 13 38 10 16 40 10 14 41 11 15 40 12 16 43 11 15 42 19 22 57 20 23 56 26 29 72 31 34 85 33 36 89 37 41 102 38 42 103 37 42 100 40 42 101 36 38 95 32 34 83 31 33 84 18 22 57 18 21 56 15 16 46 10 14 41 10 14 41 10 14 39 12 14 39 10 14 39 10 14 41 9 13 38 10 14 39 10 14 39 10 14 39 9 13 38 8 14 38 12 14 39 12 14 39 12 14 39 12 14 39 12 14 39 11 13 38 12 14 39 12 14 39 12 14 39 12 14 39 12 14 39 12 14 39 12 14 39 12 14 39 12 14 39 12 14 39 
9 13 38 9 13 38 11 15 44 15 18 49 13 16 47 28 31 76 28 30 78 34 37 92 38 42 103 40 42 103 40 44 105 38 42 105 35 40 96 35 40 96 30 34 82 23 26 67 22 25 66 12 16 41 12 16 41 10 14 41 10 15 37 9 13 38 8 12 37 9 13 38 9 13 38 9 13 38 11 13 38 11 13 38 9 13 38 9 13 38 10 14 39 10 14 41 10 14 39 9 13 40 9 13 40 10 14 39 10 14 39 10 14 39 10 14 39 10 14 39 10 14 39 10 14 39 10 14 39 10 14 39 10 14 39 9 13 38 10 14 39 9 13 38 9 13 38 10 14 39 9 13 38 9 13 38 13 14 42 14 15 43 15 18 51 25 28 71 24 28 73 37 40 95 37 39 96 37 41 102 39 43 106 38 42 103 36 40 101 37 39 98 29 31 79 27 28 74 20 24 61 12 17 46 13 17 46 10 14 39 9 13 38 11 13 38 10 14 39 11 13 38 10 14 39 12 14 39 10 14 39 10 14 39 9 13 38 10 14 39 10 14 39 10 14 39 9 13 38 8 12 37 12 14 39 12 14 39 11 13 38 12 14 39 12 14 39 12 14 39 12 14 39 12 14 39 12 14 39 12 14 39 12 14 39 12 14 39 12 14 39 12 14 39 12 14 39 12 14 39 
9 13 38 9 13 38 13 14 42 13 18 48 13 18 48 27 31 79 28 31 76 34 37 92 37 41 102 39 43 104 39 43 106 40 44 105 35 40 96 36 38 95 29 33 81 22 27 67 23 25 64 12 16 43 12 16 43 12 13 41 11 13 38 11 13 38 11 13 38 11 13 38 11 13 38 11 13 38 11 13 38 11 13 38 11 13 38 11 13 38 12 14 39 12 14 39 12 14 39 12 14 39 12 14 39 11 13 38 9 13 38 9 13 38 10 14 39 9 15 39 10 14 39 12 14 39 12 14 39 11 12 40 13 14 42 11 13 38 10 14 39 12 14 39 12 14 37 12 13 41 11 13 38 11 13 38 10 14 41 12 16 43 16 19 50 25 28 71 26 29 72 33 38 94 36 41 99 40 41 105 39 43 106 39 43 104 35 40 98 39 41 100 28 32 79 26 29 74 21 23 62 13 17 46 15 16 44 11 13 38 11 13 38 12 14 39 12 14 39 12 14 39 12 14 39 12 14 39 10 14 39 10 14 39 9 13 38 9 13 38 9 13 38 11 15 40 10 14 39 10 14 39 10 14 39 9 13 38 10 14 39 10 14 39 10 14 39 10 14 39 10 14 39 9 13 38 13 13 39 11 13 38 10 14 39 12 14 39 10 14 39 12 14 39 13 15 40 12 14 39 
18 21 52 20 23 58 24 26 65 31 34 85 31 33 82 36 41 99 36 41 97 37 41 102 36 40 101 38 40 97 32 35 86 31 34 87 22 26 64 22 24 62 17 20 53 12 16 45 13 17 46 10 14 39 12 14 39 13 13 39 11 13 38 11 13 38 11 13 38 11 13 38 11 13 38 11 13 38 11 13 38 11 13 38 11 13 38 11 13 38 11 13 38 12 14 39 12 14 39 12 14 39 12 14 39 12 14 39 10 14 39 10 14 39 9 13 40 9 13 38 10 14 39 9 13 38 12 14 39 12 14 39 11 15 40 10 14 39 12 14 39 10 14 39 11 12 40 9 13 38 15 18 51 15 20 52 23 26 67 27 29 77 30 32 81 35 40 96 34 39 95 38 42 103 38 42 105 37 39 96 31 36 91 32 35 88 22 27 65 23 27 65 17 20 51 14 17 48 13 17 46 10 14 39 12 14 39 12 14 39 11 13 38 12 14 39 11 13 38 13 15 40 12 14 39 12 14 39 10 14 39 10 14 39 10 14 39 10 14 39 9 13 38 10 14 39 9 13 38 10 14 39 10 14 39 10 14 39 10 14 41 10 14 39 9 13 38 10 14 39 10 14 41 9 13 40 10 14 43 10 14 39 10 14 39 9 13 38 10 14 39 11 15 42 11 15 44 13 16 47 
