P3
100 50
255
211 211 201 160 155 135 92 86 54 82 76 42 82 76 44 82 76 42 82 76 42 82 76 40 82 76 42 83 77 41 85 77 41 82 76 40 83 77 41 83 77 41 83 77 41 83 77 41 83 77 41 82 76 40 83 77 41 83 77 41 83 77 41 83 77 41 82 76 40 82 76 40 82 76 40 83 77 41 83 77 41 82 76 40 82 76 40 83 77 41 83 77 41 82 76 40 83 77 41 83 77 41 83 77 41 82 76 40 86 76 41 82 78 41 82 76 42 85 77 41 78 69 36 73 62 34 67 57 30 16 13 6 18 14 5 6 6 6 3 2 8 2 3 8 2 3 8 3 4 8 3 4 8 2 3 8 2 3 8 2 3 8 2 3 8 2 3 8 2 3 8 2 3 8 2 3 8 2 3 8 2 3 8 1 2 7 2 3 8 2 3 7 3 4 9 5 6 11 13 13 25 22 23 44 22 23 44 14 16 29 16 15 31 11 10 24 9 9 21 8 8 20 7 7 17 8 8 20 8 8 20 8 8 20 8 8 20 8 8 20 9 9 21 8 8 20 6 8 20 5 7 19 8 8 20 8 8 20 8 8 20 8 8 20 7 7 19 7 7 19 7 7 19 7 7 19 7 7 17 7 7 17 7 7 17 7 7 17 7 7 17 7 7 17 7 7 17 8 8 18 
83 77 41 83 77 41 83 77 41 82 76 42 83 77 43 83 77 43 83 77 43 83 77 41 83 78 40 82 76 40 83 77 41 82 78 41 83 77 43 82 76 40 83 77 41 83 77 41 82 76 40 82 76 40 82 76 40 82 76 42 83 77 41 82 76 40 82 76 40 83 77 41 83 77 41 83 77 41 83 77 41 83 77 41 82 76 40 83 77 41 83 77 41 82 76 40 82 76 40 83 77 41 83 77 41 82 76 40 83 77 41 83 77 41 85 77 41 83 78 40 79 70 37 74 63 33 67 57 30 16 13 6 15 12 5 4 4 6 3 2 8 2 3 8 1 2 7 3 2 8 2 3 7 2 3 7 2 3 8 2 3 8 2 3 8 2 3 8 2 3 8 2 3 8 2 3 8 2 3 8 2 3 8 2 3 8 2 3 7 3 4 8 4 5 10 5 4 10 9 9 21 16 18 33 18 17 33 10 12 25 11 13 26 10 10 22 6 9 18 6 8 20 6 9 18 8 8 20 8 8 18 8 8 20 8 8 20 6 8 20 6 8 20 6 8 20 6 8 20 6 8 20 8 8 20 8 8 20 8 8 20 8 8 20 8 8 20 7 7 19 7 7 19 7 7 19 8 8 18 8 8 18 7 7 17 6 6 16 7 7 17 7 7 17 7 7 17 8 8 18 
82 76 40 83 77 41 82 76 42 83 77 43 82 76 42 83 77 43 82 76 40 82 76 40 82 76 40 83 77 41 82 76 40 82 76 42 82 76 42 82 76 42 82 76 40 83 77 41 82 76 40 83 77 41 82 76 40 83 77 41 83 77 41 81 75 39 82 76 40 83 77 41 83 77 41 83 77 41 83 77 41 82 76 40 83 77 41 83 77 41 83 77 41 83 77 41 83 77 41 83 77 41 83 77 41 83 77 41 84 76 40 84 76 40 82 76 40 83 77 41 80 70 35 79 66 34 69 58 30 16 13 6 17 13 4 5 5 7 3 4 9 2 3 7 2 3 8 2 3 8 3 4 9 2 3 8 2 3 8 2 3 8 3 4 9 2 3 8 2 3 8 2 3 8 2 3 8 2 3 8 2 3 8 2 3 8 3 4 8 4 5 9 2 3 8 2 3 8 4 4 12 5 5 17 6 6 16 7 7 19 6 8 20 6 8 20 8 8 20 8 8 20 8 8 20 8 8 18 8 8 20 8 8 20 8 8 20 8 8 20 8 8 20 8 8 20 8 8 20 8 8 20 7 7 19 7 7 19 7 7 19 7 7 19 7 7 19 7 7 19 7 7 19 8 8 20 7 7 17 7 7 19 7 7 19 8 8 18 7 7 17 7 7 19 9 9 21 7 7 17 
82 76 40 83 77 41 82 76 40 82 76 42 81 75 41 83 77 41 82 76 40 83 77 41 82 76 40 82 76 40 82 76 40 83 77 41 81 75 41 81 75 41 82 76 40 82 76 40 82 76 40 82 76 40 83 77 41 83 77 41 82 76 40 83 77 41 82 76 40 83 77 41 82 76 40 82 76 40 83 77 41 82 76 40 82 76 40 83 77 41 83 77 41 81 75 39 82 76 40 83 77 41 82 76 40 82 76 40 82 76 42 82 76 40 83 77 43 82 76 40 80 71 38 80 67 35 69 58 28 16 13 4 13 13 3 5 5 7 3 4 9 3 4 9 2 3 8 2 3 8 3 2 8 3 2 8 2 3 8 2 3 8 3 4 9 2 3 8 2 3 8 2 3 8 2 3 8 2 3 8 2 3 8 2 3 8 3 4 8 3 4 8 2 3 8 2 3 8 4 4 12 5 5 17 6 6 16 7 7 19 8 8 20 6 8 20 6 8 20 8 8 20 8 8 20 8 8 20 8 8 20 8 8 20 8 8 20 8 8 20 8 8 20 8 8 20 8 8 20 8 8 20 8 8 20 8 8 20 7 7 19 7 7 19 8 8 20 7 7 19 7 7 19 7 7 19 8 8 18 7 7 19 7 7 19 7 7 17 8 8 18 7 7 19 7 7 19 9 9 19 
82 76 42 83 77 41 82 76 40 82 76 42 82 76 44 82 76 42 82 76 42 82 76 44 82 76 42 82 76 42 82 76 40 82 76 40 83 77 41 82 76 40 83 77 41 82 76 40 83 77 41 82 76 40 82 76 40 83 77 41 82 76 40 83 77 41 83 77 41 83 77 41 81 75 39 82 76 40 83 77 41 82 76 40 82 76 40 82 76 40 83 77 41 82 76 40 81 75 39 82 76 40 83 77 41 82 76 40 83 77 43 82 76 42 82 76 40 82 76 40 80 72 36 79 66 32 68 58 31 10 8 19 10 9 17 2 3 8 3 4 8 2 3 7 2 3 8 3 2 8 4 3 9 3 2 8 2 3 8 2 3 8 2 3 8 2 3 8 2 3 8 2 3 8 2 3 8 2 3 8 2 3 8 2 3 8 2 3 7 3 4 8 2 3 8 2 3 8 3 3 11 5 5 15 5 5 15 7 7 17 8 8 18 7 7 19 6 8 20 6 8 20 6 8 21 7 6 20 8 8 20 8 8 20 8 8 20 8 8 20 8 8 20 8 8 20 8 8 20 8 8 20 8 8 20 8 8 20 7 7 19 8 8 20 8 8 20 7 7 19 7 7 19 7 7 19 7 7 17 8 8 20 8 8 20 6 6 16 7 7 17 7 7 19 8 8 20 7 7 17 
82 76 40 82 76 40 82 76 42 82 76 42 82 76 42 82 76 42 83 77 43 82 76 42 82 76 42 82 76 40 83 77 41 83 77 41 83 77 41 82 76 40 83 77 41 83 77 41 82 76 40 82 76 40 83 77 41 83 77 41 82 76 40 82 76 40 82 76 40 82 76 40 83 77 41 83 77 41 81 75 39 83 77 41 82 76 40 82 76 40 83 77 41 83 77 41 82 76 40 81 75 39 81 75 39 82 76 40 82 76 40 83 77 41 83 77 41 83 77 41 80 72 36 78 65 33 68 59 30 8 8 16 9 9 17 4 3 9 0 3 8 0 3 8 2 3 7 2 3 7 2 3 8 2 3 8 2 3 8 2 3 8 2 3 8 2 3 8 2 3 8 2 3 8 2 3 8 2 3 8 2 3 8 2 3 8 2 3 8 2 3 8 2 3 8 2 3 8 3 4 9 5 5 13 4 4 12 8 8 18 8 8 18 6 9 18 6 8 20 7 9 21 8 8 20 8 8 20 8 8 20 8 8 20 8 8 20 8 8 20 8 8 20 8 8 20 8 8 20 8 8 20 8 8 20 8 8 20 8 8 20 8 8 20 7 7 19 8 8 20 8 8 20 8 8 20 8 8 18 7 7 19 8 8 20 8 8 18 7 7 17 6 6 18 7 7 19 7 7 17 
82 76 42 82 76 42 81 75 43 82 76 42 81 75 39 83 77 41 84 78 42 82 76 40 82 76 40 83 77 41 82 76 40 83 77 41 83 77 43 82 76 42 83 77 43 83 77 41 82 76 40 84 78 42 82 76 40 83 77 41 82 76 40 82 76 40 82 76 40 82 76 40 82 76 40 83 77 41 82 76 40 81 75 39 82 76 40 82 76 40 82 76 40 82 76 40 82 76 40 82 76 40 81 75 39 83 77 41 82 76 42 82 76 40 83 77 41 82 76 40 80 72 36 78 65 33 67 57 30 9 9 17 11 8 17 5 4 10 3 4 9 2 3 8 1 2 6 2 3 8 3 2 8 2 3 7 2 3 8 2 3 8 2 3 8 2 3 8 2 3 8 2 3 8 2 3 8 2 3 8 2 3 8 2 3 8 2 3 8 2 3 8 2 3 8 2 3 8 3 4 9 5 5 13 4 4 14 8 8 20 6 8 20 6 8 20 6 8 20 9 9 19 8 8 18 9 9 17 8 8 20 8 8 20 8 8 20 8 8 20 8 8 20 8 8 20 8 8 20 8 8 20 8 8 20 8 8 20 7 7 19 8 8 20 8 8 20 7 7 19 7 7 19 8 8 20 7 7 19 8 8 18 8 8 18 8 8 20 7 7 19 7 7 17 7 7 17 7 7 19 
82 76 42 82 76 44 82 76 42 80 74 40 82 76 42 82 76 40 81 75 39 81 75 39 84 78 44 82 76 40 83 77 41 82 76 40 82 76 42 81 75 41 82 76 42 83 77 41 82 76 40 82 76 40 83 77 41 82 76 40 82 76 40 82 76 40 82 76 40 82 76 40 83 77 41 82 76 40 82 76 40 82 76 40 82 76 40 83 77 41 83 77 41 82 76 40 82 76 40 82 76 40 82 76 40 82 76 40 83 78 40 82 76 40 82 76 40 82 76 40 80 71 38 78 65 33 68 58 31 9 9 17 9 9 17 3 4 9 2 3 8 2 3 8 3 4 9 2 3 7 2 3 7 3 4 8 2 3 8 2 3 8 2 3 8 2 3 8 2 3 8 2 3 8 2 3 8 2 3 8 2 3 8 2 3 8 2 3 8 2 3 8 2 3 8 2 3 8 3 4 9 5 5 13 4 4 12 6 8 20 5 7 19 6 8 20 7 7 19 9 9 19 9 9 17 9 9 17 8 8 20 8 8 20 8 8 20 8 8 20 8 8 20 8 8 20 8 8 20 8 8 20 8 8 20 8 8 20 7 7 19 8 8 20 7 7 19 7 7 19 8 8 20 7 7 19 7 7 19 7 7 17 7 7 17 8 8 20 7 7 19 7 7 17 8 8 18 8 8 20 
82 76 42 82 76 42 82 76 44 81 75 43 81 75 41 82 76 40 83 77 41 82 76 42 81 75 41 82 76 40 82 76 40 83 77 41 81 75 39 81 75 39 82 76 40 83 77 41 82 76 40 82 76 40 83 77 41 83 77 41 82 76 40 83 77 41 83 77 41 81 75 39 82 76 40 82 76 40 82 76 40 82 76 40 81 75 39 82 76 40 83 77 41 82 76 40 82 76 40 83 77 41 82 76 40 83 77 41 82 76 40 83 77 41 83 77 41 83 77 41 80 71 38 78 65 33 69 60 31 10 9 15 11 10 15 4 5 10 1 2 7 3 2 8 2 3 8 3 4 8 2 3 8 2 3 7 2 3 8 2 3 8 2 3 8 2 3 8 2 3 8 3 4 9 2 3 8 2 3 8 2 3 8 2 3 8 2 3 8 2 3 8 2 3 8 2 3 8 3 4 9 5 5 13 4 4 12 8 8 20 8 8 20 6 8 20 6 8 20 8 8 20 9 9 19 9 9 19 8 8 20 8 8 20 8 8 20 8 8 20 8 8 20 8 8 20 8 8 20 8 8 20 8 8 20 7 7 19 7 7 19 8 8 20 7 7 19 7 7 19 8 8 20 7 7 19 7 7 19 7 7 17 8 8 18 7 7 19 7 7 19 8 8 18 8 8 18 8 8 20 
81 75 41 82 76 42 82 76 42 80 74 38 81 75 41 81 75 41 82 76 42 81 75 41 82 76 42 82 76 40 82 76 40 82 76 40 83 77 41 81 75 39 82 76 40 82 76 40 81 75 39 82 76 40 82 76 40 82 76 40 83 77 41 81 75 39 82 76 40 81 75 39 82 76 40 82 76 40 82 76 40 83 77 41 82 76 40 81 75 39 81 75 39 82 76 40 82 76 40 82 76 40 82 76 40 82 76 40 81 77 40 82 76 40 82 76 40 82 76 40 80 69 37 78 65 33 69 58 30 16 13 6 17 13 4 5 6 8 2 3 8 1 2 7 3 4 9 3 4 9 2 3 8 3 4 9 2 3 8 2 3 8 2 3 8 2 3 8 2 3 8 3 4 9 2 3 8 2 3 8 2 3 8 2 3 8 2 3 8 2 3 8 2 3 8 2 3 8 3 4 9 5 5 13 4 4 12 8 8 20 8 8 20 8 8 20 6 8 20 6 8 20 8 8 18 8 8 20 8 8 20 8 8 20 8 8 20 8 8 20 8 8 20 8 8 20 8 8 20 8 8 20 7 7 19 7 7 19 7 7 19 7 7 19 7 7 19 7 7 19 7 7 19 8 8 20 8 8 20 7 7 17 8 8 18 7 7 19 8 8 20 7 7 17 7 7 17 7 7 19 
82 76 42 82 76 42 82 76 40 82 76 40 81 75 41 81 75 41 81 75 39 81 75 43 82 76 42 82 76 42 82 76 40 82 76 42 83 77 41 81 75 39 82 76 40 82 76 40 81 75 39 82 76 40 82 76 40 81 75 39 83 77 41 82 76 40 82 76 40 83 77 41 83 77 41 82 76 40 81 75 39 82 76 40 82 76 40 82 76 40 81 75 39 82 76 40 82 76 40 82 76 40 82 76 40 83 77 41 81 77 42 81 75 39 81 75 39 82 76 40 79 71 35 76 65 33 69 58 28 15 12 5 16 13 4 5 5 7 2 3 8 2 3 8 2 3 8 2 3 8 2 3 5 2 3 8 2 3 8 3 4 9 2 3 8 2 3 8 3 4 9 3 4 9 2 3 8 3 4 9 2 3 8 2 3 8 2 3 8 2 3 8 2 3 8 2 3 7 3 4 9 5 5 13 5 5 13 8 8 20 8 8 20 8 8 20 8 8 20 8 8 20 8 8 18 8 8 20 6 8 20 6 8 20 8 8 20 8 8 20 8 8 20 9 9 21 8 8 20 7 7 19 7 7 19 7 7 19 7 7 19 7 7 19 7 7 19 7 7 19 7 7 19 8 8 20 7 7 17 5 7 19 6 8 20 8 8 20 7 7 19 7 7 19 7 7 19 7 7 19 
81 75 41 81 75 41 82 76 42 82 76 40 82 76 42 82 76 40 82 76 42 82 76 40 83 77 43 82 76 40 82 76 40 82 76 40 81 75 41 81 75 41 82 76 42 83 77 41 82 76 40 82 76 40 83 77 41 82 76 40 83 77 41 83 77 41 82 76 40 81 75 39 82 76 40 81 75 39 82 76 40 83 77 41 82 76 40 82 76 40 81 75 39 82 76 40 82 76 40 81 75 39 83 77 41 82 76 40 82 76 42 82 76 40 83 77 41 83 77 41 79 70 37 74 63 31 67 57 30 16 13 6 15 12 5 6 6 8 2 3 8 2 3 7 2 3 8 2 3 8 2 3 8 3 4 9 2 3 8 2 3 8 2 3 8 2 3 8 2 3 8 2 3 8 2 3 8 2 3 8 2 3 8 2 3 8 2 3 8 3 4 9 1 2 7 2 3 7 3 4 9 5 5 13 5 5 13 8 8 20 8 8 20 8 8 20 8 8 20 8 8 20 7 7 17 7 7 19 6 8 20 6 8 20 8 8 20 8 8 20 8 8 20 8 8 20 8 8 20 7 7 19 7 7 19 7 7 19 7 7 19 7 7 19 8 8 20 7 7 19 6 6 18 8 8 20 8 8 20 7 7 19 7 7 19 7 7 19 7 7 19 7 7 19 7 7 19 6 6 16 
81 75 41 80 74 40 82 76 40 82 76 40 83 77 41 82 76 40 82 76 40 82 76 40 82 76 40 82 77 39 82 76 40 82 76 40 82 76 44 82 76 42 82 76 42 83 77 41 82 76 40 81 75 39 82 76 40 82 76 42 82 76 40 82 76 40 82 76 40 82 76 40 81 75 39 82 76 40 82 76 40 82 76 40 82 76 40 82 76 40 82 76 40 82 76 40 81 75 39 82 76 40 81 75 39 83 77 41 82 76 40 82 76 40 83 77 41 83 77 43 80 71 38 75 64 32 68 59 30 17 14 5 15 12 5 5 5 7 2 3 8 2 3 7 2 3 8 2 3 7 2 3 8 1 2 7 2 3 8 2 3 8 2 3 8 2 3 8 2 3 8 2 3 8 2 3 8 2 3 8 2 3 8 2 3 8 2 3 8 2 3 8 2 3 8 2 3 7 3 4 9 5 5 13 5 5 13 8 8 20 8 8 20 8 8 20 8 8 20 8 8 20 7 7 17 7 7 19 6 8 20 6 8 20 8 8 20 8 8 20 8 8 20 8 8 20 8 8 20 7 7 19 6 6 18 7 7 19 7 7 19 7 7 19 7 7 19 7 7 19 7 7 19 7 7 19 8 8 20 7 7 17 7 7 17 7 7 17 7 7 17 7 7 15 7 7 19 8 7 21 
81 75 41 81 75 41 82 76 42 81 75 41 81 75 39 82 76 40 82 76 42 82 76 42 82 76 40 82 76 40 83 77 41 81 75 39 82 76 42 82 76 40 82 76 40 81 75 39 83 77 41 82 76 40 82 76 40 82 76 42 82 76 40 82 76 40 82 76 40 82 76 40 82 76 40 82 76 40 82 76 40 81 75 39 82 76 40 82 76 40 82 76 40 81 75 39 82 76 40 81 75 39 82 76 40 82 76 40 82 77 39 82 76 40 82 76 42 82 76 44 78 69 36 74 63 33 67 56 28 13 10 3 13 9 6 5 5 7 2 3 8 2 3 8 3 4 9 2 3 7 2 3 8 2 3 8 2 3 8 2 3 8 2 3 8 2 3 8 2 3 8 2 3 8 2 3 8 2 3 8 3 4 9 2 3 8 2 3 8 2 3 8 2 3 8 2 3 7 3 4 9 4 4 12 5 5 13 8 8 20 8 8 20 8 8 20 8 8 20 8 8 20 8 8 18 8 8 20 6 8 20 6 8 20 8 8 20 8 8 20 8 8 20 8 8 20 8 8 20 7 7 19 7 7 19 7 7 19 7 7 19 8 8 20 7 7 19 7 7 19 7 7 19 7 7 19 7 7 19 7 7 19 9 9 21 7 7 17 7 7 19 7 7 19 7 7 19 8 8 20 
81 75 41 81 75 41 81 75 39 81 75 41 82 76 42 82 76 40 82 76 40 82 76 42 81 75 41 82 76 42 82 76 40 82 76 40 81 75 39 83 77 41 82 76 40 82 76 40 82 76 40 82 76 42 81 75 39 82 76 42 82 76 40 81 75 39 82 76 40 82 76 40 81 75 39 82 76 40 83 77 41 81 75 39 82 76 40 82 76 40 81 75 39 82 76 40 81 75 39 82 76 40 82 76 40 81 75 39 82 76 40 84 76 40 82 76 40 82 76 40 78 69 38 73 62 32 64 54 27 9 8 4 9 8 4 4 4 6 2 3 8 2 3 8 2 3 8 2 3 8 2 3 8 1 2 7 2 3 8 2 3 8 2 3 8 2 3 8 2 3 8 2 3 8 2 3 8 2 3 8 2 3 8 2 3 8 2 3 8 3 4 9 2 3 8 2 3 7 3 4 9 5 5 13 4 4 12 8 8 20 8 8 20 8 8 20 8 8 20 8 8 20 8 8 18 9 9 21 6 8 20 6 8 20 8 8 20 8 8 20 8 8 20 8 8 20 7 7 19 7 7 19 7 7 19 8 8 20 7 7 19 7 7 19 8 8 20 7 7 19 7 7 19 7 7 19 7 7 17 7 7 19 8 8 20 7 7 19 7 7 19 5 7 19 6 8 20 8 7 21 
81 75 41 80 74 40 81 75 41 82 76 40 82 76 42 82 76 40 82 76 40 83 77 43 82 76 44 83 77 41 82 76 40 83 77 41 82 76 40 82 76 40 81 75 39 82 76 40 81 75 39 82 76 40 81 75 39 81 75 39 81 75 39 82 76 40 82 76 40 81 75 39 81 75 39 82 76 40 81 75 39 82 76 40 82 76 40 81 75 39 82 76 40 81 75 39 82 76 40 81 75 39 82 76 40 82 76 40 81 75 39 82 76 40 82 77 39 81 75 39 77 68 37 72 61 33 63 56 28 10 9 7 8 7 5 4 4 6 2 3 8 2 3 8 2 3 8 2 3 7 2 3 8 1 2 7 2 3 8 2 3 8 2 3 8 2 3 8 2 3 8 2 3 8 2 3 8 2 3 8 2 3 8 2 3 8 2 3 8 2 3 8 2 3 8 2 3 7 3 4 9 5 5 13 4 4 12 8 8 20 8 8 20 8 8 20 8 8 20 8 8 20 8 8 18 8 8 20 6 8 20 6 8 20 8 8 20 8 8 20 8 8 20 7 7 19 7 7 19 7 7 19 7 7 19 8 8 20 7 7 19 8 8 20 7 7 19 8 8 20 7 7 19 7 7 19 7 7 19 8 8 20 7 7 19 5 7 19 6 6 16 6 8 20 6 8 20 8 7 21 
81 75 41 81 75 41 82 76 40 82 76 40 81 75 39 82 76 40 81 75 39 81 75 41 82 76 40 81 75 39 83 78 40 82 76 40 81 75 41 80 74 40 82 76 42 81 75 39 82 76 40 82 76 40 82 76 40 81 75 39 82 76 40 82 76 40 81 75 39 82 76 40 82 76 40 81 75 39 81 75 39 82 76 40 81 75 39 82 76 40 80 74 38 82 76 40 82 76 40 81 75 39 82 76 40 82 76 40 83 75 39 83 74 41 81 75 39 81 75 39 76 67 34 66 57 28 56 50 24 3 3 11 4 3 9 2 3 8 2 3 8 2 3 7 2 3 8 2 3 7 2 3 7 2 3 7 2 3 8 2 3 8 2 3 8 2 3 8 2 3 8 2 3 8 2 3 8 2 3 8 3 4 9 2 3 8 2 3 8 2 3 8 2 3 8 2 3 7 3 4 9 4 4 12 4 4 12 8 8 20 8 8 20 8 8 20 8 8 20 8 8 20 7 7 17 8 8 20 6 8 20 6 8 20 8 8 20 8 8 20 8 8 20 7 7 19 7 7 19 7 7 19 8 8 20 7 7 19 7 7 19 7 7 19 7 7 19 7 7 19 7 7 19 7 7 19 7 7 17 7 7 17 7 7 19 4 6 19 8 6 19 9 11 23 11 13 28 14 15 35 
82 76 42 80 74 40 81 75 39 82 76 40 81 75 39 83 77 41 82 76 40 82 76 40 81 75 39 83 78 40 81 75 39 82 76 40 81 75 41 81 75 41 81 75 41 82 77 39 81 75 39 80 74 38 81 75 41 81 75 39 81 75 39 82 76 40 82 76 40 82 76 40 82 76 40 82 76 40 81 75 39 80 74 38 82 76 40 80 74 38 81 75 39 81 75 39 83 77 41 82 76 40 82 76 40 82 76 40 82 76 40 82 76 40 82 76 42 83 77 41 75 66 35 66 57 28 58 51 25 4 5 10 3 4 9 2 3 8 2 3 8 2 3 7 2 3 8 2 3 7 3 4 9 2 3 7 3 4 9 2 3 8 3 4 9 3 4 9 2 3 8 2 3 8 3 4 9 2 3 8 2 3 8 2 3 8 2 3 8 2 3 8 2 3 8 2 3 7 3 4 9 5 5 13 5 5 13 8 8 20 8 8 20 8 8 20 8 8 20 8 8 20 8 8 18 8 8 20 6 8 20 6 8 20 8 8 20 8 8 20 8 8 20 7 7 19 7 7 19 7 7 19 7 7 19 8 8 20 7 7 19 6 6 18 7 7 19 8 8 20 6 6 18 7 7 19 7 7 17 8 8 20 7 7 19 5 8 15 8 8 18 9 11 23 11 13 28 14 15 35 
81 75 41 81 75 41 81 75 41 82 76 40 82 76 40 82 76 42 81 75 39 82 76 40 81 75 41 81 75 41 81 75 39 81 75 39 81 75 41 82 76 42 82 76 42 82 76 40 82 76 40 82 76 40 83 77 41 81 75 39 81 76 38 82 76 40 81 75 39 81 75 39 81 75 39 81 75 39 82 76 40 82 76 40 81 75 39 82 76 40 82 76 40 80 74 38 81 75 39 82 76 40 82 76 40 81 75 39 81 75 39 83 77 43 80 76 39 81 75 39 70 64 32 61 51 24 52 46 24 2 3 8 2 3 8 2 3 8 2 3 8 2 3 8 2 3 8 2 3 8 2 3 8 2 3 8 2 3 8 2 3 8 2 3 8 2 3 8 3 4 9 1 2 7 3 4 9 2 3 8 2 3 7 2 3 8 2 3 8 2 3 8 2 3 8 2 3 7 3 4 9 5 5 13 4 4 12 8 8 18 8 7 21 8 8 20 8 8 20 8 8 20 8 8 18 8 8 20 6 8 21 7 7 19 8 8 20 6 8 20 7 7 19 6 9 18 8 8 18 5 8 17 8 8 20 6 6 16 5 7 19 6 6 18 7 7 19 9 9 21 7 7 19 7 7 19 8 7 21 6 8 20 7 10 19 15 16 37 16 17 38 24 24 50 29 30 61 28 31 64 
80 74 40 82 76 42 81 75 41 81 75 39 81 75 39 83 77 41 83 77 41 82 76 40 81 75 41 81 75 41 81 75 39 81 75 39 81 75 43 82 76 42 82 76 42 83 77 41 82 76 40 82 76 40 82 76 40 82 76 40 81 75 41 81 75 39 82 76 40 81 76 38 81 75 39 81 75 39 81 75 39 81 75 39 82 76 40 81 75 39 81 75 39 82 76 40 81 75 39 81 75 39 81 75 39 80 74 38 84 75 42 80 76 39 82 76 40 82 76 42 69 63 31 58 51 25 52 46 24 0 3 8 2 3 8 2 3 8 2 3 8 2 3 8 2 3 8 2 3 8 2 3 8 2 3 8 2 3 8 2 3 8 2 3 8 2 3 8 3 4 9 3 4 9 2 3 8 2 3 8 2 3 7 2 3 8 2 3 8 3 4 9 2 3 8 2 3 7 3 4 9 4 4 12 4 4 12 8 8 18 8 8 20 8 8 20 8 8 20 8 8 20 8 8 20 8 8 20 6 9 18 8 8 20 6 9 18 6 8 20 9 9 21 7 7 17 7 7 19 8 8 20 8 8 20 7 7 19 5 7 19 7 7 19 7 7 17 7 7 19 8 6 17 7 7 17 8 8 20 6 8 23 8 7 21 19 19 43 20 20 46 29 30 60 33 33 69 33 35 73 
81 75 41 81 75 41 81 75 39 82 76 40 82 76 40 81 75 41 81 75 41 81 75 41 81 75 39 81 75 39 83 77 41 81 75 39 82 76 42 82 76 42 82 76 42 81 75 39 82 76 40 82 76 40 82 76 40 82 76 40 81 75 39 81 75 39 81 75 39 82 76 40 81 75 39 81 75 39 82 76 40 82 76 40 80 74 38 82 76 40 81 75 39 81 75 39 82 76 40 81 75 39 81 75 39 82 76 40 81 75 39 81 75 39 82 76 42 81 75 41 67 60 32 51 45 23 47 42 22 2 3 8 2 3 8 2 3 8 2 3 8 2 3 8 2 3 8 2 3 8 2 3 8 2 3 8 2 3 8 1 2 7 2 3 8 2 3 8 1 2 7 3 4 9 2 3 8 3 4 9 2 3 8 2 3 8 2 3 8 2 3 8 2 3 8 2 3 8 3 4 9 5 5 13 4 4 12 8 8 18 8 8 20 8 8 20 8 8 20 8 8 20 8 8 20 8 8 20 8 8 20 8 8 18 6 9 18 8 8 20 8 8 20 7 7 17 7 7 19 7 7 17 8 8 18 7 7 19 7 7 19 7 7 19 7 7 17 7 7 19 9 9 21 7 9 24 11 13 28 14 17 36 16 17 37 26 27 57 26 27 57 30 32 70 35 35 73 33 35 74 
81 75 39 82 76 40 82 76 40 81 75 39 82 76 40 81 75 41 80 74 42 80 74 40 82 76 40 82 76 40 80 74 38 82 76 40 81 75 43 81 75 41 81 75 41 81 75 39 81 75 39 82 76 40 82 76 40 81 75 41 82 76 40 82 76 40 80 74 38 82 76 42 81 75 41 81 75 39 81 75 39 82 76 40 81 75 39 81 75 39 81 75 39 81 75 39 81 75 39 81 75 39 81 75 39 81 75 39 81 75 39 80 74 38 84 76 40 81 75 39 63 58 29 44 39 19 38 32 18 2 3 8 2 3 8 2 3 8 2 3 8 2 3 8 2 3 8 2 3 8 2 3 8 2 3 8 2 3 8 2 3 8 2 3 8 2 3 8 2 3 8 2 3 8 2 3 8 3 4 9 2 3 8 3 4 9 2 3 8 2 3 8 2 3 8 2 3 8 3 4 9 5 5 13 5 5 13 8 8 20 8 8 20 8 8 20 8 8 20 8 8 20 8 8 20 8 8 20 8 8 20 7 7 19 8 8 18 7 7 17 7 7 17 6 6 16 7 7 17 4 6 18 5 7 19 7 7 19 5 7 19 8 8 20 7 7 17 8 7 21 11 12 30 12 13 34 17 19 44 28 28 62 29 29 65 38 40 79 38 38 76 37 39 80 38 39 83 35 37 78 
82 76 40 80 74 40 82 76 40 81 75 39 82 76 40 81 75 41 80 74 40 81 75 41 82 76 42 80 74 38 82 76 40 81 75 39 81 75 41 81 75 41 81 75 41 81 75 39 82 76 40 82 76 40 82 76 40 81 75 39 81 75 41 81 75 39 82 76 40 81 75 39 81 75 39 82 77 39 81 75 39 81 75 41 80 74 38 81 75 39 81 75 39 82 76 40 82 76 40 80 74 38 81 75 39 82 76 40 82 76 42 79 76 41 80 76 39 81 75 43 63 57 31 44 37 19 38 32 18 3 2 7 2 3 8 2 3 8 2 3 8 2 3 8 2 3 8 2 3 8 2 3 8 2 3 8 2 3 8 2 3 8 2 3 8 2 3 8 2 3 8 2 3 8 2 3 8 3 4 9 2 3 8 2 3 8 2 3 8 2 3 8 2 3 8 2 3 8 3 4 9 5 5 13 5 5 13 8 8 20 8 8 20 8 8 20 8 8 20 8 8 18 8 8 20 8 8 20 6 9 18 8 8 18 7 7 19 7 7 17 6 6 16 7 7 19 7 7 19 7 7 19 8 8 18 5 8 17 7 7 19 7 7 19 7 7 19 8 8 20 9 12 29 12 13 34 17 19 42 28 28 62 28 29 60 37 39 78 38 38 76 37 39 80 38 39 85 35 37 78 
80 74 40 81 75 41 81 75 41 81 75 39 82 76 40 81 75 39 81 75 39 81 75 41 80 74 42 81 75 41 82 76 40 80 74 40 81 75 39 81 75 39 82 76 40 82 76 40 80 74 38 81 75 39 82 76 40 81 75 39 81 75 39 81 75 41 82 76 42 80 74 40 82 76 40 82 76 40 82 76 40 81 75 41 80 74 38 81 75 39 80 74 38 81 75 39 81 75 39 81 75 39 82 76 40 81 75 39 83 75 39 82 76 42 79 73 37 79 74 36 53 47 23 26 22 10 22 20 8 2 3 8 2 3 8 2 3 8 2 3 8 2 3 8 2 3 8 2 3 8 2 3 8 2 3 8 2 3 8 2 3 8 2 3 8 2 3 8 1 2 7 2 3 8 2 3 8 2 3 8 2 3 8 2 3 8 2 3 8 2 3 8 2 3 8 2 3 8 4 4 12 5 5 15 6 6 14 8 8 20 8 8 20 8 8 20 8 8 20 8 8 18 8 8 20 8 8 20 6 9 18 6 9 18 8 8 20 6 5 19 6 6 18 7 7 19 8 8 18 8 6 17 6 6 18 7 9 21 9 11 26 12 14 29 23 24 52 23 24 54 29 31 69 33 35 74 35 37 76 40 42 83 40 42 81 35 34 74 33 35 76 26 27 58 20 21 49 19 19 43 
81 75 39 81 75 41 81 75 41 81 75 39 81 75 39 81 75 39 81 75 39 81 75 41 80 74 42 81 75 41 81 75 41 79 73 39 82 76 40 81 75 39 82 76 40 81 75 39 81 75 39 82 76 40 82 76 40 81 75 39 82 76 40 81 75 39 80 74 40 83 77 43 80 74 40 81 75 39 81 75 39 81 75 39 81 75 39 82 76 40 81 75 39 81 75 39 81 75 39 80 74 38 81 75 39 81 75 39 81 76 38 81 75 39 79 73 37 80 75 35 52 48 21 26 22 10 23 19 8 2 3 7 2 3 8 2 3 8 2 3 8 2 3 8 2 3 8 2 3 8 2 3 8 2 3 8 2 3 8 2 3 8 2 3 8 2 3 8 3 4 9 3 4 9 2 3 8 2 3 8 2 3 8 3 4 9 1 2 7 1 2 7 2 3 8 2 3 8 2 2 10 6 6 16 6 6 14 8 8 20 8 8 20 8 8 20 8 8 20 8 8 18 8 8 20 8 8 20 7 7 19 5 7 19 9 9 21 7 7 19 5 8 17 7 7 19 7 7 17 7 7 19 7 7 19 7 9 21 9 11 26 11 13 28 23 24 52 23 24 52 31 34 69 33 35 74 35 37 76 41 40 82 41 43 84 36 35 75 33 35 74 26 27 58 20 22 47 18 18 42 
82 76 40 81 75 41 81 75 41 81 75 39 81 75 39 81 75 39 80 74 40 81 75 41 81 75 41 81 75 41 81 75 41 81 75 39 80 74 42 80 74 40 82 76 42 82 76 40 81 75 39 81 75 39 81 75 39 81 75 41 81 75 39 81 75 41 82 76 42 81 75 41 82 76 40 82 76 40 81 75 41 81 75 41 82 76 40 81 75 39 81 75 39 81 75 39 81 75 39 81 75 39 80 74 38 81 75 39 81 75 39 82 76 40 76 65 33 74 65 34 44 41 24 14 14 14 14 12 13 3 2 8 2 3 8 2 3 8 2 3 8 2 3 8 2 3 8 2 3 8 2 3 8 2 3 8 2 3 8 1 2 7 2 3 8 2 3 8 3 4 9 2 3 8 2 3 8 2 3 8 2 3 8 2 3 8 2 3 8 2 3 8 2 3 8 2 3 8 4 4 12 5 5 15 6 6 16 8 8 20 8 8 20 8 8 20 8 8 20 8 8 18 8 8 18 8 8 18 9 7 20 7 7 17 5 7 19 7 7 17 6 9 18 9 10 15 8 10 23 16 15 33 12 15 32 19 19 43 23 24 52 25 26 57 33 33 69 33 33 71 34 36 75 35 39 76 34 36 75 33 33 69 30 33 66 20 22 47 20 22 47 15 16 34 12 14 29 13 12 28 
81 76 38 81 75 39 81 75 39 81 75 41 81 75 41 80 74 40 80 74 40 81 75 41 81 75 43 82 76 40 81 75 39 81 75 39 80 74 42 80 74 40 80 74 40 82 76 42 82 76 40 82 76 40 82 76 40 81 75 39 81 75 39 81 75 39 81 75 39 81 75 39 81 75 39 81 75 39 81 75 39 82 76 40 81 75 39 81 75 39 81 75 39 81 75 39 80 74 38 81 75 39 81 75 41 81 75 41 83 74 41 81 75 41 72 63 32 72 61 33 40 36 25 7 10 19 8 8 16 3 4 8 2 3 8 2 3 8 2 3 8 2 3 8 2 3 8 2 3 8 2 3 8 2 3 8 2 3 8 2 3 8 2 3 8 2 3 8 2 3 8 2 3 8 2 3 8 2 3 8 3 4 9 2 3 8 2 3 8 2 3 8 2 3 8 2 3 8 3 3 11 6 6 16 6 6 16 8 8 20 8 8 20 8 8 20 6 8 20 8 7 21 7 7 19 6 9 18 7 7 19 8 8 18 4 7 16 7 7 17 6 8 20 9 9 19 9 9 19 16 17 37 17 18 39 23 27 54 34 34 70 34 34 70 37 40 81 38 39 83 40 39 79 38 40 79 32 35 70 24 27 58 25 26 57 11 14 29 13 15 30 9 11 23 5 7 19 5 8 17 
81 75 41 81 75 41 81 75 41 81 75 41 81 75 41 82 76 42 81 75 41 81 75 41 81 75 41 81 75 41 81 75 43 82 76 40 80 74 40 81 75 41 81 75 39 81 75 39 81 75 39 81 75 39 82 76 40 81 75 39 81 75 39 82 76 40 82 76 40 80 74 38 81 75 39 80 74 38 80 74 38 82 76 40 81 75 39 81 75 39 81 75 39 81 75 41 81 75 39 81 75 39 80 74 38 81 75 41 81 75 41 81 75 39 70 61 32 69 59 32 37 33 22 7 8 13 6 6 14 2 3 8 3 4 9 2 3 8 2 3 8 2 3 8 3 4 9 2 3 8 2 3 8 2 3 8 2 3 8 2 3 8 2 3 8 2 3 8 2 3 8 2 3 8 2 3 8 2 3 8 2 3 8 2 3 8 2 3 8 2 3 8 3 4 9 2 3 8 3 3 11 7 7 17 7 7 17 8 8 18 7 7 17 6 8 20 6 8 20 6 8 20 8 8 20 6 8 20 5 7 19 7 7 19 8 8 20 9 9 19 8 11 20 12 13 31 14 13 29 21 23 48 22 24 49 27 30 61 34 37 72 34 36 74 36 38 77 35 37 76 36 34 71 33 33 69 26 29 62 20 21 49 20 21 49 10 12 25 11 13 28 9 9 21 7 7 19 5 7 19 
81 75 41 80 74 40 80 74 40 81 75 39 81 75 41 81 76 38 81 75 39 81 75 41 80 74 42 81 75 41 81 75 39 81 75 41 81 75 39 81 75 39 82 76 40 82 76 40 81 75 39 81 75 39 80 74 40 82 76 42 81 75 39 81 75 39 80 74 38 81 75 39 81 75 39 81 75 39 80 74 38 81 75 39 81 75 39 80 74 40 82 76 44 81 75 39 82 76 40 81 75 39 81 75 39 80 74 38 81 75 39 81 75 41 60 53 25 57 50 24 31 27 16 2 3 7 2 3 7 2 3 8 2 3 8 2 3 8 2 3 8 2 3 8 2 3 8 2 3 8 3 4 9 2 3 8 2 3 8 2 3 8 2 3 8 2 3 8 2 3 8 2 3 8 2 3 8 2 3 8 2 2 10 2 3 8 3 4 8 2 3 8 2 3 8 2 3 8 3 3 11 7 7 17 7 7 17 8 8 18 7 7 19 6 8 20 6 8 20 6 8 20 7 7 19 7 7 19 7 7 17 7 7 19 12 11 25 16 15 29 18 19 39 29 30 61 30 30 64 39 37 76 39 39 77 37 39 78 36 38 79 37 39 80 33 35 73 33 33 69 21 23 48 17 18 39 13 14 32 6 8 20 8 7 21 7 7 17 7 7 17 7 7 19 7 7 19 7 7 17 
80 74 40 80 74 40 81 75 41 81 75 41 80 74 40 81 75 39 81 75 41 81 75 41 80 74 40 80 74 40 81 75 39 81 75 39 81 75 39 81 76 38 81 75 39 80 74 40 81 75 41 81 75 41 81 75 41 81 75 41 82 76 40 81 75 39 81 75 39 81 75 39 80 74 38 80 74 38 82 76 40 81 75 39 81 75 41 81 75 41 81 75 39 80 74 40 81 75 41 81 75 39 81 75 39 81 75 39 81 75 39 82 76 40 60 53 27 56 50 24 28 25 16 1 2 6 0 4 7 3 2 7 2 3 8 2 3 8 2 3 8 3 4 9 2 3 8 2 3 8 2 3 8 2 3 8 2 3 8 2 3 8 2 3 8 2 3 8 2 3 8 2 3 8 2 3 8 2 3 8 3 4 9 2 3 8 3 4 8 2 3 8 2 2 10 2 2 10 4 4 12 7 7 15 6 6 14 7 7 17 8 8 20 8 8 20 5 7 19 7 7 19 7 6 20 7 7 17 7 7 19 7 7 17 12 11 25 15 14 28 18 19 39 28 28 62 28 28 62 37 37 75 38 38 76 38 37 77 38 40 81 36 38 79 31 34 69 31 34 67 20 21 49 17 18 39 14 15 33 7 9 22 6 8 21 5 7 19 7 7 19 6 6 16 7 7 19 5 8 17 
81 75 41 81 75 41 81 75 39 80 74 40 80 74 40 82 76 44 80 74 40 81 75 41 81 75 41 80 74 40 80 74 38 81 75 41 80 74 38 81 75 39 80 74 40 81 75 41 80 74 40 81 75 41 80 74 40 80 74 40 81 75 41 81 75 41 81 75 41 81 75 41 80 74 40 81 75 41 81 75 41 82 76 42 80 74 40 80 74 40 81 75 39 80 74 38 81 75 41 80 74 42 81 75 39 80 75 37 81 73 36 80 74 38 42 37 17 37 30 12 19 16 11 2 3 8 0 4 7 2 3 8 3 4 9 2 3 8 2 3 8 2 3 8 2 3 8 3 4 9 2 3 8 2 3 8 2 3 8 2 3 8 2 3 8 2 3 8 2 3 8 2 3 8 2 3 8 2 3 8 2 3 8 2 3 8 2 3 8 2 3 8 3 4 9 3 4 9 4 4 12 7 7 17 7 7 17 9 7 18 6 6 18 7 7 17 7 7 19 8 7 21 7 9 24 8 10 23 18 20 45 20 22 47 26 29 60 30 34 69 32 35 70 38 40 79 38 40 79 34 36 75 34 36 75 28 31 64 25 26 56 24 25 53 12 14 29 12 14 29 10 9 25 9 9 21 8 8 20 7 7 19 7 7 19 7 7 19 5 7 19 7 7 17 5 7 19 7 7 19 
81 75 39 80 74 38 80 74 38 81 75 41 80 74 40 80 74 40 80 74 40 81 75 41 81 75 39 81 75 39 80 74 40 80 74 40 81 75 41 80 74 38 80 74 38 81 75 39 81 75 39 81 75 39 80 74 38 81 75 39 80 74 40 80 74 40 80 74 40 80 74 40 81 75 41 81 75 41 81 75 41 80 74 40 81 75 41 80 74 40 80 74 38 81 75 39 80 74 42 80 74 40 80 74 40 80 74 38 79 74 36 79 74 36 38 33 13 33 26 10 16 16 8 3 4 9 2 3 8 2 3 8 2 3 8 2 3 8 2 3 8 2 3 8 2 3 8 2 3 8 3 4 9 2 3 8 2 3 8 2 3 8 2 3 8 2 3 8 2 3 8 2 3 8 2 3 8 2 3 8 2 3 8 2 3 8 2 3 8 2 3 8 3 4 9 4 5 10 4 4 12 7 7 17 7 7 19 7 7 19 7 7 17 7 7 17 7 7 17 8 8 20 10 11 29 8 12 24 18 22 47 21 25 50 28 31 66 32 35 76 35 37 78 42 41 83 39 41 82 34 36 75 33 35 74 26 29 62 22 23 51 20 22 47 10 12 25 9 11 24 8 8 20 5 8 17 6 6 16 7 7 19 6 9 18 7 7 19 8 8 18 8 8 20 7 7 19 7 7 17 
81 75 41 80 74 40 80 74 40 81 75 41 81 75 41 80 74 40 80 74 40 81 75 41 80 74 38 81 75 39 81 76 38 80 74 38 80 74 38 81 75 39 81 75 39 81 75 41 80 74 38 81 76 38 81 75 39 80 75 37 81 75 41 81 75 41 80 74 40 81 75 41 81 75 41 81 75 41 81 75 41 80 74 40 80 74 40 81 75 39 81 75 39 80 74 40 80 74 38 81 75 41 81 75 41 78 72 38 76 67 34 74 68 34 28 24 12 21 17 6 11 10 6 3 2 8 2 3 8 3 4 8 2 3 8 2 3 8 2 3 8 2 3 8 2 3 8 1 2 7 2 3 8 2 3 8 2 3 8 2 3 8 2 3 8 2 3 8 2 3 8 2 3 8 2 3 8 2 3 8 2 3 8 3 4 9 2 3 7 3 4 8 3 4 9 3 4 9 5 5 13 7 7 19 8 8 18 8 8 18 8 8 18 9 11 24 13 12 28 14 15 35 21 23 48 21 23 46 30 30 64 30 33 66 33 35 73 36 38 77 36 35 75 33 36 71 33 35 73 25 27 52 24 26 49 18 20 43 13 16 35 15 13 34 7 9 22 9 8 22 8 8 20 7 7 19 7 7 17 7 7 19 8 8 20 5 7 19 5 7 19 7 7 17 7 7 17 7 7 19 
80 74 40 80 74 40 81 75 41 80 74 40 80 74 40 81 75 41 81 75 39 80 74 40 80 74 40 80 74 40 79 73 39 80 74 40 82 76 40 80 74 38 82 76 42 81 75 41 81 75 41 81 75 41 81 75 41 81 75 41 81 75 41 81 75 41 81 75 41 81 75 41 81 75 41 81 75 41 81 75 41 80 74 40 81 75 39 80 74 40 80 74 40 81 75 41 80 74 38 81 75 39 81 75 41 78 72 38 73 59 33 72 61 33 18 15 10 11 7 6 6 4 5 2 3 8 1 2 7 2 3 8 2 3 8 2 3 8 2 3 8 2 3 8 2 3 8 3 4 9 2 3 8 2 3 8 2 3 8 2 3 8 2 3 8 2 3 8 2 3 8 2 3 8 2 3 8 2 3 8 1 2 7 2 3 8 3 4 8 3 4 9 4 5 10 3 4 9 5 5 13 7 7 19 7 7 19 9 9 19 10 10 18 14 15 35 16 18 41 21 23 48 32 35 70 34 34 70 39 41 80 40 42 81 40 40 78 38 38 76 36 36 72 29 29 63 29 29 63 16 17 35 16 15 29 12 12 24 6 9 18 7 7 19 5 7 19 7 7 19 7 7 17 8 6 19 7 7 17 8 8 18 6 9 18 7 7 19 4 6 18 6 6 18 7 7 19 8 8 18 
80 74 40 80 74 40 81 75 41 81 75 41 81 75 41 80 74 40 80 74 40 80 74 40 80 74 42 80 74 40 81 75 39 79 73 37 80 74 40 81 75 41 80 74 42 80 74 38 81 75 39 81 75 41 80 74 40 81 75 41 81 75 41 80 74 40 80 74 38 81 75 41 80 74 40 81 75 39 80 74 42 80 74 38 80 74 38 81 75 39 81 75 39 81 75 41 80 74 40 81 75 39 80 74 40 77 68 37 67 60 32 69 57 31 17 14 9 8 7 5 5 5 5 2 3 7 3 4 9 2 3 7 2 3 8 2 3 8 2 3 8 2 3 8 2 3 8 2 3 8 2 3 8 2 3 8 2 3 8 1 2 7 2 3 8 3 4 9 3 4 9 2 3 8 1 2 7 2 3 8 2 3 8 3 4 9 3 2 8 0 4 7 4 5 10 4 5 10 7 6 14 8 8 20 7 7 17 11 10 24 12 12 24 16 17 38 19 21 44 23 24 52 33 36 71 35 35 71 38 40 79 41 40 80 36 39 74 36 36 72 33 33 67 25 26 56 26 27 57 15 17 32 15 15 27 11 11 23 5 7 19 7 7 19 7 7 17 5 7 19 7 7 17 7 7 17 7 7 19 7 7 19 7 7 19 7 7 19 7 7 19 7 7 19 7 7 19 7 7 19 
80 74 40 80 74 40 81 75 41 80 74 40 81 75 39 80 74 40 80 74 42 80 74 40 81 75 41 80 74 40 81 75 39 80 74 40 81 75 41 79 73 39 81 75 39 81 75 39 81 75 41 80 74 40 81 75 41 80 74 40 81 75 41 80 74 40 80 74 38 80 74 40 81 75 41 80 74 40 80 74 40 81 75 41 78 74 39 79 75 40 81 75 39 81 75 41 80 74 38 83 74 41 80 74 40 71 64 35 44 37 19 44 37 19 8 8 10 3 2 8 2 3 8 2 2 10 1 2 7 2 3 8 2 3 8 2 3 8 2 3 8 3 4 9 2 3 8 2 3 8 2 3 8 2 3 8 2 3 8 3 4 9 1 2 7 2 3 8 2 3 8 2 3 8 2 3 8 2 3 8 4 3 9 2 3 8 1 1 9 2 3 8 4 5 10 4 4 12 6 6 18 12 14 27 13 12 28 26 27 58 23 26 57 35 35 71 40 40 78 39 38 78 40 42 81 40 42 81 33 36 71 32 35 70 24 25 53 18 18 42 15 18 37 6 9 18 6 8 20 7 7 19 6 6 18 7 7 19 7 7 17 8 8 20 7 7 17 7 7 17 7 7 17 8 8 18 7 7 19 7 7 19 7 7 19 7 7 19 7 7 19 7 7 19 7 7 19 7 7 19 
80 74 40 80 74 40 81 75 41 80 74 40 79 73 37 80 74 40 80 74 42 81 75 41 80 74 40 79 73 37 80 74 38 80 74 42 81 75 41 80 74 40 81 75 41 81 75 41 81 75 39 81 75 39 81 75 41 80 74 40 81 75 41 81 75 39 80 74 40 81 75 39 81 75 41 80 74 38 81 75 41 81 75 39 81 75 41 80 74 40 82 73 40 80 74 40 79 74 42 81 75 41 80 74 40 70 65 35 45 38 20 44 39 20 7 7 9 2 3 7 2 3 8 2 3 8 2 3 8 2 3 8 2 3 8 2 3 8 2 3 8 2 3 8 2 3 8 2 3 8 2 3 8 2 3 8 2 3 8 2 3 8 2 3 8 2 3 8 1 2 7 2 3 8 2 3 8 2 3 8 3 2 8 1 2 7 3 4 9 3 2 8 4 5 10 4 4 12 8 8 20 12 14 29 11 13 28 25 25 59 23 26 57 34 34 70 39 39 77 39 39 75 40 42 81 39 41 82 34 37 72 31 34 69 23 24 54 19 19 43 16 17 37 5 7 20 6 8 20 7 7 17 7 7 17 5 8 17 7 7 17 7 7 17 7 7 17 7 7 17 5 8 17 7 7 17 7 7 19 7 7 19 7 7 19 7 7 19 7 7 19 7 7 19 7 7 19 7 7 19 
80 74 42 80 74 42 80 74 40 81 75 41 80 74 40 80 74 40 80 74 40 81 75 41 80 74 40 81 75 39 81 75 39 80 74 40 81 75 41 81 75 41 81 75 39 80 74 38 80 74 40 80 74 40 80 74 40 80 74 40 81 75 41 80 74 40 79 73 39 80 74 40 80 74 40 81 75 41 80 74 40 80 74 40 80 74 38 80 74 40 79 73 39 81 75 41 80 74 40 76 67 36 75 64 34 61 54 28 22 19 10 21 17 8 5 4 9 3 4 9 2 3 8 2 3 5 1 2 7 2 3 8 2 3 8 2 3 8 2 3 8 2 3 8 3 4 9 2 3 8 2 3 8 2 3 8 2 3 8 2 3 8 2 3 8 2 3 8 2 3 8 2 3 8 2 3 8 2 3 8 2 1 6 3 2 7 3 4 9 5 4 10 14 16 29 17 19 34 21 21 45 30 30 64 29 29 63 38 38 76 38 37 77 39 39 77 38 40 78 36 36 72 27 28 59 27 28 58 17 17 41 17 18 38 12 14 29 8 10 23 10 9 23 7 7 19 4 8 20 7 7 17 7 7 17 7 7 17 7 7 17 5 7 19 5 7 19 7 7 19 7 7 19 7 7 19 7 7 19 7 7 19 7 7 19 7 7 19 7 7 19 7 7 19 7 7 19 7 7 19 
80 74 42 80 74 42 79 73 39 80 74 40 80 74 40 80 74 40 81 75 39 81 75 39 79 73 39 80 74 40 80 74 38 81 75 39 79 73 39 80 74 40 80 74 40 80 74 40 81 75 39 81 75 39 80 74 40 80 74 40 81 75 41 81 75 39 80 74 40 80 74 38 81 75 39 80 74 42 81 76 38 81 75 41 80 74 38 81 75 41 81 75 39 79 73 37 80 74 38 74 65 34 72 61 33 56 48 25 16 11 5 16 11 5 4 3 8 2 3 8 3 4 9 2 3 7 2 3 8 0 3 8 2 3 8 2 3 8 2 3 8 2 3 8 3 4 9 2 3 8 2 3 8 2 3 8 3 4 9 2 3 8 2 3 8 2 3 8 3 4 9 2 3 8 2 3 8 3 4 9 2 3 8 2 3 8 2 5 10 4 5 10 17 18 38 23 24 45 26 27 55 33 35 76 34 36 74 40 42 81 40 42 81 40 40 78 38 38 76 36 36 72 21 22 52 23 23 51 15 14 30 11 13 26 7 9 21 7 7 17 5 7 19 4 7 16 7 7 17 4 6 18 7 7 17 7 7 17 7 7 19 6 6 16 7 7 19 7 7 19 7 7 19 7 7 19 7 7 19 7 7 19 7 7 19 7 7 19 7 7 19 7 7 19 7 7 19 7 7 19 
80 74 40 80 74 40 80 74 40 81 75 43 80 74 38 80 74 40 80 74 40 80 74 38 80 74 40 80 74 40 81 75 39 81 75 39 79 73 39 81 75 41 80 74 38 80 74 38 80 74 40 80 74 40 79 73 39 81 75 41 80 74 40 80 74 40 80 74 42 80 74 40 80 74 40 81 75 41 81 75 41 81 75 41 80 74 38 80 74 38 81 75 39 80 74 38 79 75 38 67 60 31 60 53 27 49 42 23 10 9 5 10 9 5 2 3 7 3 4 6 3 4 9 2 3 8 2 3 7 2 3 7 2 3 8 2 3 8 2 3 8 2 3 8 2 3 8 2 3 8 2 3 8 2 3 8 2 3 8 2 3 8 2 3 8 2 3 8 2 3 8 2 3 8 2 3 8 2 3 8 3 2 7 4 3 9 8 8 18 8 8 18 22 22 46 28 28 56 32 33 64 33 35 74 33 35 74 34 36 74 34 37 72 31 31 67 29 30 61 26 27 57 17 18 39 16 16 40 11 11 23 13 11 24 7 9 21 7 7 17 7 7 17 5 8 17 7 7 19 7 7 19 8 8 18 8 8 18 8 7 21 7 7 17 7 7 19 7 7 19 7 7 19 7 7 19 7 7 19 7 7 19 7 7 19 7 7 19 7 7 19 7 7 19 7 7 19 7 7 19 
80 74 40 80 74 40 80 74 40 80 74 40 80 74 38 80 74 40 79 73 41 80 74 40 81 75 41 80 74 40 81 75 39 80 74 40 80 74 40 81 75 41 80 74 40 81 75 41 80 74 38 81 75 39 80 74 40 80 74 40 79 73 37 79 73 39 81 75 39 80 74 40 81 75 39 80 74 40 81 75 39 80 74 40 80 74 40 81 75 39 81 75 39 79 73 39 81 75 41 56 50 26 43 38 18 33 29 17 2 3 8 2 3 8 3 4 8 3 4 9 2 1 7 3 2 8 2 3 8 2 3 8 2 3 8 2 3 8 2 3 8 3 4 9 2 3 8 2 3 8 2 3 8 2 3 8 1 2 7 2 3 8 2 3 8 2 3 8 2 3 8 2 3 8 2 3 8 1 2 7 2 3 8 2 2 10 10 12 27 13 12 28 32 32 66 36 38 76 38 38 76 38 40 81 36 39 80 26 29 62 26 29 60 17 19 44 13 15 36 11 12 32 8 8 20 8 8 18 7 7 17 7 7 15 7 7 17 5 7 19 7 7 19 8 8 18 5 7 19 7 7 19 5 8 17 7 7 17 8 8 20 7 7 17 7 7 19 7 7 17 7 7 19 5 8 17 7 7 19 7 7 19 7 7 19 7 7 19 7 7 19 7 7 19 7 7 19 7 7 19 
81 75 39 80 74 38 80 74 40 81 75 39 79 73 39 79 73 39 79 73 39 80 74 42 79 73 41 81 75 41 80 74 38 79 73 39 80 74 40 81 75 41 81 75 41 80 74 38 81 75 39 80 74 42 80 74 40 80 74 40 80 74 40 80 74 40 80 74 40 80 74 40 81 75 41 81 75 39 79 73 39 80 74 40 80 74 40 80 74 38 79 75 40 80 74 40 81 75 39 56 50 24 43 38 19 33 29 17 2 3 8 2 3 8 3 2 8 2 3 8 3 4 8 2 3 7 2 3 7 2 3 8 2 3 8 2 3 8 2 3 8 2 3 8 2 3 8 2 3 8 2 3 8 2 3 8 2 3 8 2 3 8 3 4 9 1 2 7 2 3 8 2 3 8 2 3 8 2 3 8 3 2 7 2 3 8 10 12 27 13 12 28 33 32 64 38 37 77 38 37 77 37 39 80 36 38 79 28 29 60 26 29 62 19 21 46 12 14 35 12 15 34 6 8 20 6 9 18 8 6 17 7 7 17 7 7 17 7 7 17 8 6 17 7 7 17 7 7 19 5 7 19 8 8 20 7 7 17 7 7 19 7 7 17 7 7 19 7 7 17 7 7 19 7 7 17 7 7 19 7 7 19 7 7 19 7 7 19 7 7 19 7 7 19 7 7 19 7 7 19 
80 74 42 80 74 42 80 74 40 80 74 40 80 74 38 80 74 38 80 74 38 80 74 38 79 73 39 80 74 38 80 74 38 79 73 39 81 75 41 80 74 38 80 74 40 80 74 38 80 74 40 80 74 38 81 75 41 79 73 39 81 75 39 80 74 40 80 74 38 80 74 40 81 75 39 81 75 41 80 74 38 80 74 38 80 74 40 80 74 38 80 74 40 64 55 26 64 54 27 27 24 17 4 5 10 4 5 10 2 3 8 3 4 9 2 3 8 2 3 8 2 3 8 3 4 9 1 2 7 2 3 8 3 4 9 2 3 8 2 3 8 2 3 8 3 4 9 3 4 9 3 4 9 2 3 8 1 2 6 3 4 9 3 4 9 2 3 8 1 2 7 2 1 7 2 3 8 1 2 7 4 1 8 3 6 13 22 23 51 21 23 48 29 31 69 32 34 73 28 31 62 21 22 43 22 23 43 8 10 22 10 9 23 9 9 19 8 8 18 6 6 16 6 6 18 7 7 19 7 7 19 7 7 19 7 7 19 5 7 19 7 7 19 7 7 19 7 7 19 7 7 19 7 7 19 7 7 19 7 7 19 7 7 19 7 7 19 7 7 19 7 7 19 7 7 19 7 7 19 7 7 19 7 7 19 7 7 19 7 7 19 7 7 19 7 7 19 7 7 19 
80 74 40 79 73 41 80 74 40 81 75 41 81 76 38 80 74 40 80 74 40 80 74 38 81 75 41 80 74 38 80 74 38 80 74 40 80 74 40 81 75 41 80 74 38 80 74 40 80 74 38 79 73 39 80 74 38 80 74 40 79 73 37 80 74 40 80 74 38 80 74 40 81 75 39 80 74 38 80 74 38 80 74 40 80 76 41 80 74 38 79 73 37 62 55 27 63 56 27 27 24 17 4 5 10 4 4 12 2 3 8 2 3 8 3 4 9 2 3 8 2 3 8 3 4 9 2 3 8 2 3 8 2 3 8 2 3 8 2 3 8 2 3 8 2 3 8 2 3 8 2 3 8 2 3 8 2 3 7 2 3 8 2 3 8 2 3 8 2 3 8 3 4 9 2 3 8 2 3 8 2 3 7 3 6 15 22 23 51 23 24 52 30 30 68 33 35 74 29 30 61 24 22 43 22 23 43 8 10 22 10 9 23 9 9 17 7 7 15 7 7 15 7 7 17 7 7 19 7 7 19 7 7 19 7 7 19 5 7 19 8 6 19 7 7 19 5 7 19 7 7 19 7 7 19 7 7 19 7 7 19 7 7 19 7 7 19 7 7 19 7 7 19 7 7 19 7 7 19 7 7 17 7 7 19 7 7 17 7 7 17 7 7 19 7 7 17 7 7 19 
80 74 38 80 74 38 80 74 40 80 74 40 80 74 40 79 73 39 79 73 39 80 74 38 81 75 41 80 74 38 80 74 38 79 73 39 80 74 40 80 74 40 81 75 41 80 74 40 80 74 38 80 74 40 80 74 40 80 74 40 80 74 38 80 74 40 80 74 40 80 74 40 79 73 37 80 74 38 80 74 40 79 73 39 78 72 36 76 67 34 77 66 34 37 32 13 37 31 15 15 14 10 2 3 8 3 4 9 1 2 7 2 3 8 2 3 8 2 3 8 2 3 8 2 3 8 3 4 9 3 4 9 2 3 8 2 3 8 2 3 8 2 3 8 2 3 8 2 3 8 2 3 8 2 3 8 3 4 8 2 3 8 2 3 8 2 3 8 2 3 8 2 3 8 3 2 8 3 4 9 3 4 9 6 6 16 19 21 46 19 21 44 20 20 44 19 21 46 17 18 39 14 13 27 11 13 28 7 7 19 8 8 20 8 8 18 6 6 16 7 7 17 7 7 17 4 7 16 7 7 19 5 7 19 7 7 19 7 7 19 7 7 19 7 7 19 7 7 19 7 7 19 7 7 19 7 7 19 7 7 19 7 7 19 7 7 19 7 7 19 7 7 19 7 7 19 7 7 17 7 7 17 7 7 17 7 7 17 7 7 17 7 7 17 7 7 17 7 7 17 
80 74 40 80 74 38 79 73 37 80 74 40 80 74 40 80 74 40 79 73 41 81 75 41 79 73 37 80 74 38 80 74 40 81 75 41 80 74 40 80 74 40 79 73 39 80 74 40 81 75 41 80 74 40 80 74 40 80 74 40 79 73 39 80 74 38 80 74 40 80 74 38 80 74 38 80 74 40 81 75 41 80 74 38 79 68 38 74 63 33 74 63 31 20 17 8 21 17 6 8 8 6 1 2 6 2 3 8 2 3 8 2 3 8 2 3 8 2 3 8 1 2 7 2 3 8 1 2 7 2 3 8 2 3 8 2 3 8 2 3 8 2 3 8 2 3 8 2 3 8 2 3 8 2 3 8 2 3 7 2 3 8 2 3 8 2 3 8 2 1 7 2 3 8 2 3 8 4 5 10 4 4 12 7 7 17 19 19 43 17 19 42 14 15 33 11 13 28 9 11 24 7 7 17 5 7 20 5 7 19 5 8 17 7 7 17 8 8 18 7 7 19 7 7 19 7 7 19 7 7 19 5 7 19 7 7 19 7 7 19 7 7 19 7 7 19 7 7 19 7 7 19 7 7 19 7 7 19 7 7 19 7 7 19 7 7 19 7 7 19 7 7 19 7 7 19 7 7 17 7 7 19 7 7 17 7 7 17 7 7 17 7 7 17 7 7 19 7 7 17 
80 74 40 80 74 40 79 73 39 79 73 37 80 74 40 79 73 39 79 73 41 80 74 40 80 74 38 80 74 38 80 74 42 80 74 40 78 72 38 79 73 39 81 75 41 79 73 39 79 73 39 79 73 39 80 74 40 80 74 40 80 74 38 80 74 40 80 74 40 80 74 40 81 75 41 79 73 39 79 73 39 78 74 37 74 65 34 60 51 22 62 53 24 12 11 7 12 11 7 6 6 8 3 4 9 3 4 9 2 3 8 2 3 8 2 3 8 2 3 8 2 3 8 1 2 7 2 3 8 0 1 6 2 3 8 2 3 8 2 3 8 2 3 8 2 3 8 2 3 8 2 3 8 2 3 8 2 3 7 2 3 8 2 1 7 2 3 8 1 2 7 2 3 8 2 3 8 3 4 9 3 3 11 5 5 15 14 15 33 14 15 35 11 13 28 12 11 25 8 10 22 7 7 17 5 7 19 5 7 19 5 7 19 7 7 17 7 7 17 7 7 17 7 7 19 7 7 19 7 7 19 5 7 19 7 7 19 7 7 19 5 7 19 7 7 19 7 7 19 7 7 19 7 7 19 7 7 19 7 7 19 7 7 19 7 7 19 7 7 19 7 7 19 7 7 19 7 7 19 7 7 17 7 7 19 7 7 19 7 7 19 7 7 19 7 7 17 7 7 19 
80 74 40 80 74 40 79 73 39 79 73 39 79 73 39 80 74 40 79 73 39 79 73 39 80 74 40 80 74 40 79 73 39 80 74 40 79 73 39 79 73 39 79 73 39 80 74 40 79 73 39 80 74 40 80 74 40 80 74 40 78 73 41 79 75 40 80 74 40 79 73 37 80 74 40 80 74 42 79 74 36 77 72 34 62 57 27 36 31 12 37 32 13 1 2 7 2 3 8 3 2 7 2 3 8 2 3 8 2 3 8 2 3 8 2 3 8 2 3 8 2 3 8 2 3 8 2 3 8 3 4 9 2 3 8 2 3 8 2 3 8 2 3 8 2 3 8 2 3 8 2 3 8 2 3 8 2 3 7 1 2 7 2 1 7 2 3 8 2 3 8 2 3 8 2 3 8 3 4 9 4 4 12 5 5 17 5 5 17 6 9 18 9 7 20 7 7 19 5 8 17 5 7 19 6 6 16 7 7 19 7 7 19 7 7 19 5 7 19 7 7 17 7 7 17 5 8 17 7 7 19 7 7 19 7 7 19 7 7 19 5 7 19 7 7 19 7 7 19 7 7 19 7 7 19 7 7 19 7 7 19 7 7 19 7 7 19 7 7 19 7 7 19 7 7 19 7 7 19 7 7 19 7 7 19 7 7 19 7 7 19 7 7 19 7 7 19 7 7 19 
80 74 38 80 74 40 79 73 39 79 73 39 80 74 40 79 73 39 80 74 40 80 74 40 80 74 40 80 74 40 80 74 40 79 73 39 80 74 40 80 74 40 80 74 40 79 73 39 80 74 40 80 74 40 79 73 39 79 73 39 78 74 39 78 74 39 80 74 42 79 73 39 79 73 39 80 74 40 78 72 36 78 72 36 62 57 27 37 32 13 36 29 10 3 2 10 2 3 8 2 3 7 3 2 7 2 3 8 2 3 8 3 4 9 2 3 8 2 3 8 2 3 8 1 2 7 2 3 8 3 4 9 2 3 8 2 3 8 2 3 8 2 3 8 2 3 8 2 3 8 2 3 8 2 3 8 2 3 7 2 3 8 2 3 8 2 3 8 1 2 7 2 3 8 2 3 8 3 4 9 4 4 12 5 5 15 9 9 21 8 8 18 6 6 18 8 8 20 4 7 16 5 7 19 7 7 17 7 7 17 6 6 14 7 7 17 7 7 17 7 7 17 7 7 17 7 7 17 7 7 19 8 6 19 7 7 19 7 7 19 7 7 19 7 7 19 5 7 19 7 7 19 7 7 19 7 7 19 7 7 19 7 7 19 7 7 19 7 7 19 7 7 19 7 7 19 7 7 17 7 7 19 7 7 17 7 7 19 7 7 19 7 7 17 7 7 19 7 7 17 
79 73 39 79 73 41 79 73 39 79 73 39 80 74 40 80 74 38 79 73 37 79 73 39 80 74 42 79 73 39 79 73 39 80 74 40 79 73 39 79 73 39 80 74 40 78 72 38 80 74 40 80 74 40 80 74 40 80 74 40 80 74 40 78 72 38 80 74 40 80 74 40 79 73 39 80 74 38 52 46 24 43 36 18 27 24 15 4 5 10 3 4 9 2 3 8 3 4 9 3 2 7 2 3 8 2 3 8 2 3 8 2 3 8 2 3 8 2 3 8 3 4 9 2 3 8 2 3 8 2 3 8 2 3 8 3 4 9 3 4 9 3 4 9 2 3 8 2 3 8 2 3 8 3 4 9 3 4 8 2 1 7 2 3 8 3 2 8 2 3 8 2 3 8 1 2 7 4 5 10 6 6 18 6 6 14 6 8 20 7 7 19 8 8 20 7 7 17 7 7 17 5 8 17 7 7 19 7 7 15 9 9 17 8 8 16 7 7 17 7 7 17 8 8 18 7 7 17 7 7 19 7 7 19 7 7 19 8 6 19 7 7 19 7 7 19 5 7 19 7 7 19 7 7 19 7 7 19 7 7 19 7 7 19 7 7 19 7 7 19 7 7 19 7 7 19 7 7 17 7 7 17 7 7 17 7 7 17 7 7 17 7 7 17 7 7 17 7 7 17 
