P3
100 50
255
7 7 17 7 7 17 7 7 17 7 7 17 7 7 17 7 7 17 7 7 15 7 7 19 7 7 17 7 7 17 7 7 17 7 7 19 7 7 17 6 6 16 7 7 17 5 5 15 7 7 17 7 7 17 6 6 16 7 7 17 7 7 17 7 7 17 6 6 16 6 6 16 5 5 15 7 7 17 6 6 16 6 6 16 7 7 17 6 6 16 7 7 17 6 6 16 6 6 16 7 7 17 6 6 16 6 6 16 7 7 17 6 6 16 7 7 17 6 6 16 6 6 16 6 6 16 6 6 16 6 6 18 6 6 14 6 6 16 6 6 16 5 5 15 6 6 14 6 6 14 6 6 14 6 6 18 7 7 17 6 6 14 5 5 13 6 6 16 7 7 17 7 7 15 6 6 14 6 6 16 6 6 14 6 6 14 5 5 13 5 5 13 5 5 13 6 6 14 6 6 14 6 6 14 5 5 13 6 6 14 7 7 15 6 6 14 6 6 14 6 6 14 6 6 14 6 6 16 6 6 16 7 7 17 6 6 16 7 7 17 7 7 17 7 7 17 7 7 17 7 7 17 7 7 17 7 7 17 7 7 17 7 7 17 8 8 20 7 7 19 7 7 19 8 8 20 8 8 20 8 8 18 8 8 20 8 8 20 8 8 20 8 8 20 9 9 21 9 9 21 
9 9 21 9 9 21 9 8 22 9 9 21 8 8 20 8 8 20 8 8 20 8 8 20 8 8 20 8 8 20 8 8 20 8 8 20 9 9 21 9 9 21 8 8 20 8 8 20 8 8 20 8 8 20 8 8 20 8 8 20 9 9 21 9 9 21 8 7 21 8 8 20 8 8 18 7 7 19 9 9 21 9 9 21 8 8 20 8 8 20 10 10 22 9 9 21 8 8 20 8 8 20 8 8 20 8 8 20 9 9 21 8 8 18 9 9 21 8 8 18 7 7 19 8 8 20 8 8 18 8 8 20 8 8 18 8 8 18 8 8 20 8 8 20 8 8 18 8 8 18 8 8 20 8 8 20 9 9 21 8 8 20 8 8 20 8 8 20 8 8 20 8 8 20 8 8 20 7 7 19 7 7 17 7 7 17 7 7 17 7 7 17 7 7 17 7 7 17 7 7 17 7 7 17 7 7 17 7 7 17 7 7 17 8 8 18 8 8 18 8 8 20 8 8 20 8 8 20 8 8 20 8 8 20 8 8 20 8 8 20 9 9 21 9 9 21 9 9 21 9 9 21 9 9 21 9 9 21 9 9 21 9 9 21 10 9 23 10 9 23 10 9 23 10 9 23 7 9 22 10 9 23 10 9 23 10 9 23 10 9 23 10 9 23 9 8 22 8 10 23 
9 9 21 9 9 21 9 9 21 10 10 22 9 9 21 9 9 21 9 9 21 9 9 21 9 9 21 9 9 21 8 8 20 9 9 21 9 9 19 9 9 21 9 9 21 9 9 21 9 9 21 9 9 21 9 9 21 9 9 21 7 9 21 9 9 21 7 9 21 9 9 21 9 9 21 7 9 21 9 9 21 7 9 21 9 9 21 9 9 21 9 9 21 9 9 21 9 9 21 9 9 21 9 9 21 9 9 21 7 9 21 8 8 20 11 9 22 8 8 20 6 8 20 7 9 21 8 8 20 8 8 18 8 8 20 8 8 20 8 8 20 8 8 20 8 8 20 8 8 20 8 8 20 8 8 20 8 8 20 8 8 20 8 7 21 8 8 20 8 8 20 8 8 20 8 8 20 8 8 20 8 8 20 8 8 20 8 8 20 8 8 20 8 8 20 8 8 20 8 8 20 8 8 20 8 8 20 8 8 20 8 8 20 8 8 20 8 8 20 8 8 20 8 8 20 8 8 20 9 9 21 8 8 20 9 9 21 9 9 21 9 9 21 9 9 21 9 8 22 9 9 21 7 9 21 8 10 22 8 10 23 7 9 22 7 9 22 7 9 22 7 9 22 7 9 22 9 8 22 10 9 23 10 9 23 9 8 22 10 10 22 9 9 21 10 10 22 10 10 22 
7 9 21 8 10 23 7 9 22 7 9 22 9 9 21 10 9 23 9 8 22 10 9 23 9 8 22 9 8 22 9 8 22 10 10 22 7 9 22 8 10 23 7 9 22 8 10 23 8 10 23 8 10 23 9 11 24 8 10 23 8 10 23 10 9 23 8 10 23 8 10 23 8 10 23 8 10 23 10 9 23 8 10 23 10 9 23 10 9 23 10 9 23 10 9 23 10 9 23 10 9 23 10 9 23 10 9 23 8 10 23 8 10 23 8 10 23 8 10 23 8 10 23 8 10 23 8 10 23 8 10 23 8 10 23 8 10 23 8 10 23 8 10 23 8 10 23 8 10 23 8 10 23 8 10 23 8 10 23 8 10 23 8 10 23 8 10 23 8 10 23 8 10 23 8 10 23 8 10 23 8 10 23 8 10 23 8 10 23 8 10 23 8 10 23 8 10 23 8 10 23 8 10 23 8 10 23 8 10 23 8 10 23 8 10 23 8 10 23 8 10 23 8 10 23 8 10 23 10 9 23 10 9 23 10 9 25 10 9 23 10 9 23 10 9 23 9 8 22 9 8 22 10 10 22 10 10 22 9 9 21 9 9 21 10 10 22 9 9 21 9 9 21 8 8 20 8 8 20 8 8 20 8 8 20 8 8 20 8 8 18 8 8 20 8 8 20 7 7 17 
9 8 22 9 8 22 9 8 22 10 9 23 9 8 22 9 8 22 11 10 24 9 8 22 10 9 23 9 8 22 10 9 23 10 9 23 9 8 22 10 9 23 9 8 22 10 9 23 10 9 23 9 9 21 10 10 22 9 9 21 8 10 23 10 9 23 8 10 23 10 9 23 10 9 23 8 10 23 10 9 23 8 10 23 10 9 23 10 9 23 10 9 23 10 9 23 10 9 23 10 9 23 10 9 23 10 9 23 10 9 23 9 11 24 8 10 23 10 12 25 10 9 23 10 9 23 9 11 24 9 11 24 8 10 23 8 10 23 8 10 23 8 10 23 8 10 23 8 10 23 8 10 23 8 10 23 8 10 23 8 10 22 8 10 23 8 10 23 8 10 23 8 10 23 8 10 23 8 10 25 8 10 23 8 10 23 8 10 23 8 10 23 8 10 23 8 10 23 8 10 23 8 10 23 8 10 23 8 10 23 8 10 23 8 10 23 8 10 23 8 10 23 8 10 23 8 10 23 8 10 23 7 9 24 8 10 23 8 10 25 8 10 23 8 10 22 7 9 22 8 10 22 9 9 21 10 10 22 10 10 22 9 9 21 9 9 21 10 10 22 9 9 21 9 9 21 9 9 21 8 8 20 8 8 20 8 8 20 8 8 18 7 7 17 7 7 17 8 8 18 
2 3 8 2 3 7 1 2 7 3 4 9 2 3 7 3 4 8 2 3 8 2 3 8 2 3 8 3 4 9 3 4 8 2 3 7 2 3 7 2 3 7 2 3 7 2 3 7 2 3 7 2 3 7 2 3 7 2 3 8 3 4 9 4 3 9 3 4 9 4 3 9 4 3 9 3 4 9 4 3 9 3 4 9 3 4 8 3 4 8 3 4 8 3 4 8 3 4 8 3 4 8 3 4 8 3 4 8 3 2 8 3 4 9 0 3 8 2 3 8 4 3 9 3 2 8 4 3 9 3 4 9 3 4 9 3 4 9 3 4 9 3 4 9 3 4 9 3 4 9 3 4 9 3 4 9 3 4 9 3 4 9 3 4 9 3 4 9 3 4 9 3 4 8 3 4 8 3 4 9 5 4 10 5 4 10 5 4 10 5 4 10 5 4 10 5 4 10 5 4 10 5 4 10 4 5 10 4 5 10 4 5 10 4 5 10 3 4 9 3 4 9 3 4 9 3 4 9 4 3 8 4 3 9 3 2 7 3 2 7 3 2 7 3 2 7 3 2 7 3 2 7 2 1 6 2 1 6 2 1 6 2 1 6 3 2 7 2 1 6 2 1 6 3 2 7 1 2 6 1 2 6 1 2 6 0 1 5 1 2 4 1 2 4 1 2 4 1 2 4 
2 3 7 2 3 7 2 3 7 2 3 8 3 4 8 2 3 7 2 3 7 2 3 7 2 3 7 3 4 8 2 3 7 2 3 7 3 4 8 3 4 8 2 3 8 2 3 8 2 3 8 2 3 8 2 3 8 2 3 8 3 4 9 4 3 9 3 4 9 4 3 9 4 3 9 3 4 9 4 3 9 3 4 9 3 2 7 3 2 7 3 2 7 3 2 7 3 2 7 3 2 7 3 2 7 3 2 7 3 4 8 2 3 7 3 4 8 2 3 8 3 4 9 3 4 9 3 3 11 3 3 11 3 4 9 3 4 9 3 4 9 3 4 9 3 4 9 3 4 9 3 4 9 3 4 9 3 4 9 3 4 9 3 4 9 3 4 9 3 4 9 3 4 9 3 4 9 3 4 9 4 5 10 4 5 10 4 5 10 4 5 10 4 5 10 4 5 10 4 5 10 4 5 10 4 5 10 4 5 10 4 5 10 4 5 10 3 4 9 3 4 9 3 4 9 3 4 9 3 4 9 3 4 8 3 4 8 2 3 7 2 3 7 2 3 7 1 2 6 2 3 7 3 2 7 2 1 6 2 1 6 2 1 6 2 1 6 2 1 6 2 1 6 2 1 6 2 1 6 1 0 5 3 2 7 2 1 6 2 1 6 1 0 5 1 0 5 1 0 5 
1 2 6 0 1 3 1 2 4 1 2 6 1 0 5 2 1 6 2 2 4 1 1 3 1 1 3 1 1 3 2 1 6 1 0 5 0 1 3 1 2 4 0 1 3 1 2 4 1 2 4 1 2 4 2 3 7 1 2 6 1 2 6 1 2 6 1 2 6 1 2 6 1 2 6 1 2 6 1 2 6 1 2 6 1 2 6 1 2 4 1 2 7 1 2 4 1 2 4 1 2 7 1 2 4 1 2 6 2 2 4 2 2 4 2 2 4 2 2 4 2 1 6 3 2 7 2 1 6 2 1 6 2 1 6 2 1 6 2 1 6 2 1 6 2 1 6 2 1 6 2 1 6 2 1 6 2 1 6 2 1 6 2 2 4 2 1 6 2 1 6 2 1 6 2 1 6 2 2 4 2 1 6 2 1 6 2 1 6 2 1 6 2 1 6 2 1 6 2 1 6 2 1 6 2 1 6 2 1 6 2 1 6 2 1 6 2 1 6 2 1 6 2 1 6 2 1 6 1 2 4 1 2 4 1 2 6 1 2 4 1 2 6 1 2 6 1 3 2 1 2 6 2 1 6 1 0 5 2 1 6 2 1 6 1 0 5 1 0 5 2 1 6 2 1 6 1 1 3 1 1 3 2 2 4 1 1 3 1 1 3 1 1 3 2 2 4 2 2 4 
3 3 5 1 1 3 1 1 3 1 1 3 2 2 4 1 1 3 1 1 3 2 2 4 1 1 3 1 1 3 1 1 3 2 2 4 1 1 3 2 2 4 1 1 3 2 2 4 2 2 4 1 1 3 2 2 4 1 1 3 0 1 3 1 1 3 1 1 3 1 1 3 1 1 3 1 1 3 1 1 3 0 1 3 1 1 3 1 1 3 1 1 3 1 1 3 1 1 3 1 1 3 1 1 3 1 1 3 1 1 3 2 2 4 1 1 3 1 1 3 1 1 3 1 1 3 2 2 4 1 1 3 1 1 3 1 1 3 1 1 3 1 1 3 1 1 3 1 1 3 1 1 3 1 1 3 1 1 3 1 1 3 1 1 1 1 1 3 1 1 3 1 0 5 1 1 3 1 1 3 1 1 3 1 1 3 1 1 3 1 1 3 1 1 3 1 1 3 1 1 3 1 1 3 1 1 3 1 1 3 1 1 3 1 1 3 1 1 3 1 1 3 1 1 3 1 1 3 1 1 3 1 1 3 2 2 4 1 0 5 1 1 3 2 2 4 1 1 3 1 1 3 2 2 4 1 1 3 1 1 3 3 3 5 2 2 4 1 0 5 2 1 6 2 1 6 1 1 3 1 1 3 1 1 3 1 1 3 2 2 4 1 1 1 1 1 1 1 1 3 
1 1 3 1 0 5 1 1 3 2 2 4 2 2 4 1 1 3 1 1 3 1 1 3 2 2 4 2 2 4 2 2 4 1 1 3 3 3 5 2 2 4 2 2 4 1 1 3 1 1 3 1 1 3 1 0 5 1 0 5 1 1 3 1 1 3 0 1 3 1 1 3 1 1 3 0 1 3 1 1 3 1 1 3 1 1 3 1 1 3 1 1 3 1 1 3 1 1 3 1 1 3 1 1 3 1 1 3 1 1 3 2 2 4 2 2 4 0 1 3 1 1 3 3 1 4 1 1 3 0 1 3 1 1 3 1 1 3 1 1 3 1 1 3 1 1 3 1 1 3 1 1 3 1 1 3 1 1 3 1 0 5 1 1 3 1 0 5 1 1 3 1 1 3 1 1 3 1 1 3 1 1 3 1 1 3 1 1 3 1 1 3 1 1 3 1 1 3 1 1 3 1 1 3 1 1 3 1 1 3 1 1 3 1 1 3 1 1 3 1 1 3 1 1 3 1 1 3 1 0 5 1 1 3 2 2 4 2 2 4 2 2 4 2 2 4 1 1 3 1 1 3 2 2 4 1 1 3 1 1 3 2 2 4 2 2 4 1 1 3 0 0 2 1 1 3 2 2 4 2 2 4 1 1 3 2 2 4 1 1 3 1 1 3 1 1 3 1 1 3 
1 1 1 1 1 3 1 1 3 1 0 5 1 1 3 1 1 3 1 1 3 1 1 3 1 1 3 1 1 3 1 1 3 1 1 3 1 1 3 1 1 3 1 1 3 1 1 3 1 1 3 1 1 3 1 1 3 1 1 3 1 1 3 1 1 3 2 2 4 0 0 2 2 2 4 1 1 3 1 1 3 1 1 3 1 1 3 1 1 3 1 1 3 1 1 3 1 1 3 1 1 3 1 1 3 1 1 3 1 1 3 1 1 3 1 1 3 1 1 3 1 1 3 1 1 3 1 1 3 1 1 3 1 1 3 1 0 5 1 1 3 1 0 5 1 0 5 1 1 3 1 0 5 1 1 3 1 0 5 1 1 3 1 1 3 1 1 3 1 1 3 1 1 3 1 1 3 1 0 5 2 2 4 1 1 3 2 2 4 1 1 3 1 1 3 1 1 3 1 1 3 1 1 3 1 1 3 2 2 4 2 2 4 1 1 3 2 2 4 2 2 4 1 1 3 2 2 4 0 1 3 0 1 3 1 1 3 1 1 3 1 1 3 1 1 3 0 1 3 0 1 3 2 2 4 1 0 5 1 0 5 1 1 3 1 1 3 1 1 3 2 2 4 2 2 4 1 1 3 1 1 3 1 1 3 1 1 3 1 1 3 1 0 5 1 1 3 1 1 3 
2 2 4 2 2 4 2 2 4 2 2 2 1 1 3 1 1 3 1 1 3 1 1 3 1 1 3 1 1 3 1 1 3 1 1 3 2 2 4 1 1 3 1 1 3 1 1 3 1 1 3 2 2 4 1 1 3 1 1 3 1 1 3 1 1 3 2 2 4 0 0 2 1 1 3 1 1 3 2 2 4 1 1 3 0 1 3 0 1 3 1 1 3 1 1 3 1 1 3 1 1 3 0 1 3 0 1 3 1 1 3 1 1 3 1 1 3 1 1 3 1 1 3 1 1 3 1 1 3 1 1 3 1 1 3 1 1 3 1 1 3 1 1 3 1 1 3 1 1 3 1 1 3 1 1 3 1 1 3 1 1 3 1 1 3 1 1 3 1 1 3 1 1 3 1 1 3 1 1 3 2 1 6 2 2 4 2 2 4 2 2 4 1 1 3 1 1 3 1 1 0 1 1 3 1 1 3 1 1 3 1 1 3 1 1 3 2 2 4 2 2 4 1 1 3 2 2 4 0 1 3 1 1 3 1 1 3 0 1 3 0 1 3 1 1 3 1 1 3 0 1 3 2 2 4 2 2 4 1 0 5 1 1 3 1 1 1 1 1 3 1 0 5 1 1 3 1 1 3 1 1 3 1 1 3 1 1 3 1 1 3 1 1 3 1 1 3 1 1 3 
1 0 5 1 0 6 1 1 3 1 1 3 1 1 3 1 1 3 1 1 3 1 1 3 1 1 3 1 1 3 1 1 3 1 1 3 1 1 3 1 1 3 2 2 4 1 1 3 1 1 3 1 1 3 1 1 3 2 2 4 1 1 3 1 1 3 1 1 3 1 1 3 2 2 4 1 1 3 1 1 3 1 1 3 1 1 3 1 1 3 1 1 3 1 1 3 1 1 3 1 1 3 1 1 3 1 1 3 1 1 3 1 1 3 2 2 4 1 1 3 1 1 3 2 2 4 1 1 3 1 1 3 1 1 3 1 1 3 1 1 3 1 1 3 1 1 3 1 1 3 1 1 3 1 1 3 1 1 3 1 1 3 1 1 3 1 1 3 1 1 3 1 1 3 1 1 3 1 1 3 1 1 3 2 2 4 1 1 3 1 1 3 1 1 3 1 1 3 1 1 3 1 1 3 1 1 3 1 1 3 1 1 3 1 1 3 2 2 4 1 1 3 1 1 3 2 2 4 1 1 3 1 1 3 1 1 3 1 1 3 1 1 3 1 1 3 1 1 3 1 1 3 2 2 4 2 2 2 2 2 2 1 1 3 1 1 3 1 1 3 1 1 3 0 0 2 1 1 3 1 1 3 1 1 3 1 1 3 1 1 3 1 1 3 1 1 3 1 1 3 
1 1 3 1 1 3 1 1 3 1 1 3 2 1 6 1 1 3 1 0 5 2 1 6 2 2 4 1 1 3 1 0 5 2 2 4 1 0 5 1 1 3 1 1 3 1 0 5 1 0 5 1 1 3 1 1 3 1 0 5 1 1 3 3 3 5 1 1 3 1 1 3 1 1 3 1 1 3 1 1 3 1 1 3 1 1 3 1 1 3 1 1 3 1 1 3 1 1 3 1 1 3 1 1 3 1 1 3 2 2 4 1 1 3 1 1 3 1 1 3 1 1 3 1 1 3 1 1 3 2 2 4 1 1 3 1 1 3 1 1 3 1 1 3 1 1 3 1 1 3 1 1 3 1 1 3 1 1 3 1 1 3 1 1 3 1 1 3 1 1 3 1 1 3 1 1 3 1 1 3 1 1 3 2 2 4 1 1 3 1 1 3 1 1 3 1 1 3 1 1 3 1 1 3 1 1 3 1 1 3 1 1 3 1 1 3 1 1 3 2 2 4 1 1 3 1 1 3 1 1 3 1 1 3 1 1 3 1 1 3 1 1 3 1 1 3 1 1 3 1 1 3 1 1 3 1 1 3 1 1 3 1 1 3 1 1 3 1 1 3 1 1 3 1 1 3 1 1 3 1 1 3 1 1 3 1 1 3 1 1 3 1 1 3 1 1 3 1 1 3 
1 2 4 1 2 4 1 2 4 1 2 4 2 1 6 2 2 4 2 1 6 2 1 6 2 2 4 2 2 4 2 1 6 2 2 4 2 1 6 2 1 6 2 1 6 2 1 6 2 1 6 2 1 6 2 1 6 2 1 6 2 2 4 2 2 4 3 2 7 2 1 7 2 1 7 2 1 6 2 2 4 2 2 4 1 2 4 1 2 4 2 2 4 2 2 4 2 2 4 2 2 4 1 2 4 1 2 4 2 2 4 2 2 4 2 2 4 2 2 4 2 2 4 2 2 4 2 2 4 2 2 4 1 2 4 1 2 6 1 2 4 1 2 6 1 2 6 1 2 4 1 2 6 1 2 4 2 2 4 2 2 4 2 1 6 2 1 6 2 1 6 2 1 6 2 2 4 2 2 4 1 2 7 1 3 2 1 2 6 1 2 6 1 2 4 1 2 4 1 2 4 1 2 4 1 2 4 2 2 4 2 2 4 0 1 3 1 2 4 2 2 4 2 2 4 1 2 4 2 1 6 2 1 6 2 1 6 2 1 6 2 1 6 2 1 6 2 1 6 2 1 6 1 2 6 1 2 6 1 2 6 2 3 7 2 3 7 2 3 7 2 3 7 2 3 7 2 3 7 2 3 7 2 3 7 2 3 7 2 3 7 2 3 7 2 3 7 2 3 7 
3 2 7 3 3 5 3 2 7 3 2 7 2 3 7 2 3 7 2 3 7 2 3 7 2 3 7 2 3 7 2 3 7 2 3 7 1 2 6 2 3 7 2 3 7 2 3 7 2 3 7 1 2 6 2 3 7 2 3 7 3 2 7 3 2 7 1 0 5 3 2 7 3 2 7 3 2 7 3 2 7 3 2 7 3 2 7 3 2 7 3 2 7 3 2 7 3 2 7 3 2 7 3 2 7 3 2 7 3 2 7 3 2 7 2 1 6 2 1 6 2 1 6 2 1 6 3 2 7 3 2 7 2 1 6 2 1 6 2 1 6 2 1 6 2 1 6 2 1 6 2 1 6 2 1 6 2 1 6 2 1 6 2 1 6 2 1 6 2 1 6 2 1 6 2 1 6 2 1 6 2 1 6 1 0 5 2 1 6 2 1 6 2 1 6 2 1 6 2 2 4 2 1 6 2 1 6 2 1 6 2 1 6 3 2 7 2 1 6 3 2 7 2 1 6 3 2 7 3 2 7 2 3 7 2 3 7 2 3 7 2 3 7 2 3 7 2 3 7 3 2 7 3 2 7 3 2 8 3 2 8 4 3 8 3 4 9 3 4 9 3 4 9 3 4 9 4 5 10 4 5 10 4 5 10 4 5 10 4 5 10 4 5 10 4 5 10 4 5 10 
2 3 7 2 3 8 2 3 7 2 3 7 4 3 8 4 3 8 4 3 8 4 3 8 4 3 8 4 3 8 4 3 8 4 3 8 4 3 8 4 3 8 3 2 7 4 3 8 4 3 8 4 3 8 4 3 8 3 2 7 2 3 7 3 4 8 3 4 8 2 3 7 3 4 8 3 4 8 2 3 7 3 4 8 3 2 7 3 2 7 2 3 7 2 3 7 2 3 7 2 3 7 3 2 7 3 2 7 3 2 7 3 2 7 3 2 7 3 2 7 3 2 7 3 2 7 3 2 7 3 2 7 2 3 7 2 3 7 2 3 7 2 3 7 2 3 7 2 3 7 2 3 7 2 3 7 3 2 7 3 2 7 3 2 7 3 2 7 3 2 7 3 2 7 3 2 7 3 2 7 2 3 7 2 3 7 2 3 7 2 3 7 2 3 7 2 3 7 2 3 7 2 3 7 3 2 7 2 3 7 2 3 7 3 2 7 4 3 8 3 4 8 2 3 7 4 3 8 4 3 9 4 3 9 4 3 9 3 4 9 3 4 9 4 3 9 4 3 9 4 3 9 4 5 10 4 5 10 4 5 10 4 5 10 4 5 10 4 5 10 4 5 10 4 5 10 5 6 11 5 5 13 5 5 13 5 5 13 5 6 11 5 6 11 5 6 11 5 5 13 
9 9 21 9 8 22 9 9 21 9 9 21 9 9 21 9 9 21 9 9 21 9 9 21 9 9 21 9 9 21 9 9 21 9 9 21 9 9 21 9 9 21 9 9 21 9 9 21 9 9 21 9 9 21 9 9 21 9 9 21 8 10 22 7 9 21 7 9 21 7 9 21 7 9 21 7 9 21 7 9 21 7 9 21 7 9 21 7 9 21 9 9 21 9 9 21 9 9 21 9 9 21 7 9 21 7 9 21 8 8 20 8 8 20 9 9 21 9 9 21 9 9 21 9 9 21 8 8 20 8 8 20 9 9 21 9 9 21 9 9 21 9 9 21 9 9 21 9 9 21 9 9 21 9 9 21 8 8 20 8 8 20 8 8 20 8 8 20 8 8 20 8 8 20 8 8 20 8 8 20 8 7 21 8 8 20 7 7 19 8 8 20 8 8 20 8 8 20 8 8 18 8 8 20 9 9 21 7 9 21 7 9 21 9 9 21 8 8 20 7 9 21 7 9 21 9 9 21 9 9 21 7 9 21 7 9 21 7 9 21 7 9 21 7 9 21 7 9 21 9 9 21 10 9 25 10 9 23 10 9 23 10 9 23 8 10 23 8 10 23 8 10 23 8 10 22 10 9 23 10 9 23 10 9 23 10 9 23 10 9 23 10 9 23 10 9 23 10 9 23 
9 9 21 10 10 22 9 9 21 7 9 21 9 9 21 9 9 21 9 9 21 9 9 21 9 9 21 9 9 21 9 9 21 9 9 21 9 9 21 9 9 21 9 9 21 9 9 21 9 9 21 9 9 21 9 9 21 9 9 21 9 9 21 8 8 20 8 8 20 8 8 20 9 9 21 9 9 21 9 9 21 8 8 20 9 9 21 9 9 21 9 9 21 9 9 21 8 8 20 9 9 21 8 8 20 8 8 20 9 9 21 9 9 21 9 9 21 9 9 21 9 9 21 9 9 21 9 9 21 9 9 21 8 8 20 8 8 20 8 8 20 8 8 20 8 8 20 8 8 20 8 8 20 8 8 20 8 8 20 8 8 20 8 8 20 8 8 20 8 8 20 8 8 20 8 8 20 8 8 20 8 8 20 8 8 20 8 8 20 8 8 20 8 8 20 8 8 20 8 8 20 8 8 20 9 9 19 9 9 21 9 9 21 9 9 21 7 9 21 7 9 21 7 9 21 7 9 22 7 9 22 7 9 22 7 9 22 9 8 22 6 10 21 7 9 21 7 10 19 7 9 21 10 9 23 10 9 23 9 8 22 9 8 22 9 8 22 9 8 22 10 9 23 10 9 23 8 10 23 8 10 23 8 10 23 8 10 23 8 10 23 8 10 23 7 9 22 8 10 23 
8 8 20 8 8 20 9 9 21 8 8 20 9 9 21 9 9 21 9 9 21 8 8 20 9 9 21 8 8 20 9 9 21 9 9 21 9 9 21 9 9 21 9 9 21 9 9 21 9 9 21 9 9 21 9 9 21 9 9 21 8 8 20 8 8 20 8 8 20 9 9 21 9 9 21 10 10 22 9 9 21 8 8 20 9 9 21 9 9 21 9 9 21 9 9 21 9 9 21 9 9 21 9 9 21 9 9 21 10 10 22 10 10 22 10 10 22 9 9 21 9 9 21 9 9 21 9 9 21 9 9 21 9 9 21 9 9 21 9 9 21 9 9 21 9 9 21 9 9 21 9 9 21 9 9 21 9 9 21 9 9 21 9 9 21 9 9 21 9 9 21 9 9 21 9 9 21 9 9 21 9 9 21 9 9 21 9 9 21 10 10 22 10 10 22 9 9 21 9 9 21 9 9 21 10 9 23 9 8 22 9 8 22 9 8 22 7 9 21 7 9 21 7 9 21 7 9 21 8 8 20 8 8 20 8 8 20 6 8 20 8 8 20 8 8 20 8 8 20 8 8 20 9 9 21 8 8 20 8 8 20 8 8 20 8 8 20 8 8 20 8 8 20 8 8 20 7 7 17 9 9 19 8 8 18 8 8 18 8 8 18 8 8 18 8 8 18 7 7 17 
8 8 20 8 8 20 8 8 20 8 8 20 9 9 21 9 9 21 9 9 21 9 9 21 8 8 20 9 9 21 8 8 20 9 9 21 7 9 21 7 9 21 7 9 21 7 9 21 7 9 21 7 9 21 7 9 21 7 9 21 9 9 21 9 9 21 9 9 21 9 9 21 9 9 21 9 9 21 9 9 21 9 9 21 9 9 21 9 9 21 9 9 21 9 9 21 9 9 21 10 10 22 9 9 21 10 10 22 9 9 21 9 9 21 9 9 21 9 9 21 9 9 21 9 9 21 9 9 21 9 9 21 9 9 21 9 9 21 9 9 21 9 9 21 9 9 21 9 9 21 9 9 21 9 9 21 9 9 21 9 9 21 9 9 21 9 9 21 9 8 22 9 8 22 9 8 22 9 8 22 9 8 22 9 8 22 9 8 22 9 8 22 9 8 22 9 8 22 9 8 22 9 8 22 6 8 20 7 9 21 9 9 21 9 9 21 9 9 21 8 8 20 8 8 20 8 8 20 8 8 20 8 8 20 8 8 20 8 8 20 8 7 21 8 8 20 6 8 20 8 8 18 8 8 18 8 8 20 8 7 21 8 8 20 8 8 18 7 7 17 7 7 17 8 8 18 7 7 17 7 7 19 7 7 19 7 7 17 7 7 17 6 6 16 7 7 17 7 7 17 
7 6 14 6 6 14 6 6 14 6 6 14 6 6 14 7 7 15 6 6 14 6 6 14 6 6 14 5 5 13 6 6 14 6 6 14 6 6 16 6 6 16 6 6 16 6 6 16 6 6 16 6 6 16 6 6 16 6 6 16 6 6 14 6 6 14 7 7 15 7 7 15 6 6 14 6 6 14 6 6 14 6 6 14 6 6 16 6 6 16 7 7 17 6 6 16 7 7 17 7 7 17 7 7 17 7 7 17 7 7 17 7 7 17 7 7 17 7 7 17 7 7 17 7 7 17 7 7 17 7 7 17 6 6 16 7 7 17 6 6 16 7 7 17 6 6 16 7 7 17 6 6 16 7 7 17 7 7 15 7 7 15 7 7 15 7 7 15 7 7 17 7 7 17 7 7 17 7 7 17 7 7 17 7 7 17 7 7 17 8 8 18 8 8 18 7 7 17 7 7 17 7 7 17 7 7 17 6 6 14 7 7 15 6 6 16 6 6 16 7 7 17 6 6 16 6 6 16 6 6 14 7 6 14 6 6 14 6 6 14 7 6 14 7 6 14 6 6 14 6 6 14 6 6 14 5 5 13 5 5 13 5 5 13 5 5 13 6 6 14 5 6 11 6 7 12 5 5 13 4 5 10 4 5 10 5 6 11 4 5 10 5 6 11 4 5 10 4 5 9 
2 1 6 2 1 6 1 2 6 1 2 6 2 3 7 1 2 6 1 2 6 1 2 6 1 2 6 2 3 7 1 2 6 1 2 6 2 3 7 1 2 6 2 3 7 2 3 7 1 2 6 2 3 7 2 3 7 2 3 7 2 1 6 2 1 6 4 3 8 3 2 7 3 2 7 2 1 6 3 2 7 3 2 7 2 3 7 1 2 6 2 3 7 1 2 6 2 3 7 2 3 7 2 3 7 2 3 7 3 2 7 3 2 7 3 2 7 3 2 7 3 2 7 3 2 7 3 2 7 3 2 7 3 2 7 3 2 7 3 2 7 3 2 7 3 2 7 3 2 7 3 2 7 3 2 7 2 3 7 2 3 7 2 3 7 2 3 7 2 3 7 2 3 7 2 3 7 2 3 7 2 3 7 2 3 7 3 4 8 3 4 8 3 4 8 3 4 8 2 3 7 2 3 7 2 3 7 2 3 7 2 3 7 2 3 7 2 3 7 2 3 7 3 2 7 2 1 6 2 1 6 1 2 6 2 1 6 2 1 6 3 2 7 1 2 6 3 3 5 3 3 5 2 2 4 2 2 4 1 1 3 1 1 1 1 1 3 1 0 5 2 1 6 2 1 6 1 1 3 1 0 5 2 1 6 1 1 3 1 1 3 1 1 3 1 1 3 1 1 3 
2 2 4 3 1 4 1 2 4 0 3 4 3 2 7 2 1 6 2 1 6 2 1 6 2 1 6 2 1 6 3 2 7 2 1 6 1 2 6 1 2 6 1 2 6 1 2 6 1 2 6 1 2 6 1 2 6 1 2 6 1 2 6 1 2 6 2 3 7 1 2 6 1 2 6 1 2 6 2 3 7 2 3 7 2 1 6 2 1 6 2 1 6 2 1 6 2 1 6 3 2 7 2 1 6 2 1 6 2 1 6 2 1 6 2 1 6 3 2 7 3 2 7 3 2 7 3 2 7 3 2 7 3 2 7 3 2 7 3 2 7 3 2 7 3 2 7 3 2 7 3 2 7 3 2 7 2 1 6 2 1 6 2 1 6 2 1 6 2 1 6 2 1 6 2 1 6 2 1 6 3 2 7 3 2 7 3 2 7 3 2 7 3 2 7 3 2 7 3 2 7 3 2 7 2 1 6 3 2 7 2 1 6 2 1 6 2 1 6 2 1 6 2 1 6 2 1 6 2 1 6 1 2 6 2 1 7 2 1 6 1 2 4 1 2 4 2 2 4 1 2 6 2 2 4 2 2 4 2 2 4 1 1 3 1 1 3 2 2 4 1 0 5 1 0 6 2 1 6 1 1 3 1 1 3 1 1 3 1 1 3 1 1 3 1 1 3 1 1 3 
2 0 3 1 1 3 1 1 3 1 1 3 1 1 3 2 2 4 1 1 3 1 1 3 1 1 3 2 2 4 1 1 3 2 2 4 1 1 3 3 3 5 1 1 3 1 1 3 2 2 4 1 1 3 1 1 3 1 1 3 1 1 3 1 1 3 0 0 2 2 2 4 0 0 2 1 1 3 1 1 3 1 1 3 1 1 3 1 1 3 1 1 3 1 1 3 1 1 3 1 1 3 1 1 3 1 1 3 1 1 3 1 1 3 1 1 3 1 1 3 1 1 3 1 1 3 1 1 3 1 1 3 1 1 3 1 1 3 1 1 3 1 1 3 1 1 3 1 1 3 1 1 3 1 1 3 1 1 3 1 1 3 1 1 3 1 1 3 1 1 3 1 1 3 1 1 3 1 1 3 2 2 4 1 1 3 1 1 3 1 1 3 1 1 3 1 1 3 1 1 3 2 2 4 2 0 3 2 0 3 2 2 4 1 1 3 1 1 3 2 2 4 1 1 3 1 1 3 1 2 4 0 1 3 2 2 4 1 1 3 2 2 4 1 1 3 1 1 3 1 1 3 1 1 3 2 2 4 1 1 3 1 1 3 1 1 3 1 1 3 1 1 3 0 0 2 1 1 3 1 1 3 2 2 4 1 1 3 2 2 4 1 1 3 1 1 3 1 1 3 
1 2 4 1 1 3 1 1 3 2 2 4 1 1 3 1 1 3 1 1 3 1 1 3 1 1 3 1 1 3 2 2 4 2 2 4 2 2 4 1 1 3 2 2 4 2 2 4 1 1 3 2 2 4 2 2 4 2 2 4 2 2 4 1 1 3 1 1 3 1 1 3 1 1 3 1 1 3 2 2 4 2 2 4 1 1 3 1 1 3 1 1 3 1 1 3 1 1 3 2 2 4 1 1 3 2 2 4 1 1 3 1 1 3 1 1 3 1 1 3 1 1 3 1 1 3 1 1 3 1 1 3 1 1 3 1 1 3 1 1 3 1 1 3 1 1 3 1 1 3 1 1 3 1 1 3 1 1 3 1 1 3 1 1 3 1 1 3 1 1 3 1 1 3 1 1 3 1 1 3 1 1 3 1 1 3 1 1 3 1 1 3 1 1 3 1 1 3 1 1 3 1 1 3 1 1 3 2 2 4 1 1 3 1 1 3 1 1 3 1 1 3 1 2 4 0 1 3 1 0 5 1 0 5 0 0 2 1 2 4 1 0 2 2 2 4 1 1 3 2 2 4 1 1 3 1 1 3 1 1 3 1 1 3 1 1 3 1 1 3 1 1 3 1 1 3 1 1 3 2 2 4 1 1 3 1 1 3 1 1 3 1 1 3 1 1 3 1 1 3 
1 1 3 1 1 3 1 1 3 1 1 3 1 1 3 1 1 3 1 1 3 1 1 3 1 1 3 1 1 3 1 1 3 1 1 3 2 2 4 1 1 3 1 1 3 1 1 3 1 1 3 1 1 3 1 1 3 1 1 3 1 1 3 1 1 3 1 1 3 1 1 3 1 1 3 1 1 3 1 1 3 1 1 3 2 2 4 2 2 4 2 2 4 2 2 4 2 2 4 2 2 4 2 2 4 2 2 4 1 1 3 1 1 3 1 1 3 1 1 3 1 1 3 1 1 3 1 1 3 1 1 3 1 1 3 1 1 3 1 1 3 1 1 3 1 1 3 1 1 3 1 1 3 1 1 3 2 2 4 2 2 4 2 2 4 1 1 3 1 1 3 1 1 3 1 1 3 0 0 2 1 1 3 1 1 3 1 1 3 1 1 3 1 1 3 1 1 3 1 1 3 1 1 3 1 1 3 1 1 3 1 1 3 1 1 3 1 1 3 1 1 3 1 1 3 1 1 3 2 2 4 2 2 4 2 2 4 1 1 3 1 1 3 1 1 3 1 1 3 1 1 3 1 1 3 1 1 3 1 1 3 1 1 3 1 1 3 1 1 3 1 1 3 1 1 3 2 2 4 2 2 4 2 2 4 2 2 4 1 1 3 1 1 3 1 1 3 1 1 3 
1 1 3 1 1 3 1 1 3 1 1 3 1 1 3 1 1 3 1 1 3 1 1 3 1 1 3 1 1 3 2 2 4 3 3 5 1 1 3 1 1 3 1 1 3 1 1 3 1 1 3 1 1 3 2 2 4 1 1 3 1 1 3 1 1 3 1 1 3 1 1 3 1 1 3 1 1 3 1 1 3 1 1 3 1 1 3 1 1 3 1 1 3 1 1 3 1 1 3 1 1 3 1 1 3 1 1 3 1 1 3 1 1 3 1 1 3 1 1 3 1 1 3 1 1 3 1 1 3 1 1 3 1 1 3 1 1 3 1 1 3 1 1 3 1 1 3 1 1 3 1 1 3 1 1 3 2 2 4 1 1 3 1 1 3 1 1 3 1 1 3 1 1 3 1 1 3 2 2 4 1 1 3 1 1 3 1 1 3 1 1 3 1 1 3 1 1 3 1 1 3 1 1 3 1 1 3 1 1 3 1 1 3 1 1 3 1 1 3 1 1 3 1 1 3 1 1 3 1 1 3 1 1 3 1 1 3 1 1 3 1 1 3 1 1 3 1 1 3 1 1 3 1 1 3 1 1 3 1 1 3 1 1 3 1 1 3 1 1 3 1 1 3 1 1 3 1 1 3 1 1 3 1 1 3 1 1 3 1 1 3 1 1 3 1 1 3 1 1 3 
1 1 3 1 1 3 1 1 3 1 1 3 1 1 3 1 1 3 1 1 3 1 1 3 1 1 3 1 1 3 1 1 3 1 1 3 2 2 4 1 1 3 1 1 3 1 1 3 1 1 3 1 1 3 1 1 3 1 1 3 1 1 3 1 1 3 1 1 3 1 1 3 1 1 3 1 1 3 1 1 3 1 1 3 1 1 3 1 1 3 1 1 3 1 1 3 1 1 3 1 1 3 1 1 3 1 1 3 1 1 3 1 1 3 1 1 3 1 1 3 1 1 3 1 1 3 1 1 3 1 1 3 1 1 3 1 1 3 1 1 3 1 1 3 1 1 3 1 1 3 1 1 3 1 1 3 1 1 3 1 1 3 1 1 3 1 1 3 1 1 3 1 1 3 1 1 3 1 1 3 1 1 3 1 1 3 1 1 3 1 1 3 1 1 3 1 1 3 1 1 3 1 1 3 1 1 3 1 1 3 1 1 3 1 1 3 1 1 3 1 1 3 1 1 3 1 1 3 1 1 3 1 1 3 1 1 3 1 1 3 1 1 3 1 1 3 1 1 3 1 1 3 1 1 3 1 1 3 1 1 3 1 1 3 1 1 3 1 1 3 1 1 3 1 1 3 1 1 3 1 1 3 1 1 3 1 1 3 1 1 3 1 1 3 1 1 3 1 1 3 
1 1 3 1 1 3 1 1 3 1 1 3 1 1 3 1 1 3 1 1 3 1 1 3 1 1 3 1 1 3 1 1 3 1 1 3 1 1 3 1 1 3 1 1 3 1 1 3 1 1 3 1 1 3 1 1 3 1 1 3 1 1 3 1 1 3 1 1 3 1 1 3 1 1 3 1 1 3 1 1 3 1 1 3 1 1 3 1 1 3 1 1 3 1 1 3 1 1 3 1 1 3 1 1 3 1 1 3 1 1 3 1 1 3 1 1 3 1 1 3 1 1 3 1 1 3 1 1 3 1 1 3 1 1 3 1 1 3 1 1 3 1 1 3 1 1 3 1 1 3 1 1 3 1 1 3 0 0 2 1 1 3 1 1 3 1 1 3 1 1 3 1 1 3 1 1 3 1 1 3 1 1 3 1 1 3 1 1 3 1 1 3 1 1 3 1 1 3 1 1 3 1 1 3 1 1 3 1 1 3 1 1 3 1 1 3 1 1 3 1 1 3 1 1 3 1 1 3 1 1 3 1 1 3 1 1 3 1 1 3 1 1 3 1 1 3 1 1 3 1 1 3 1 1 3 1 1 3 1 1 3 1 1 3 1 1 3 1 1 3 1 1 3 1 1 3 1 1 3 1 1 3 1 1 3 1 1 3 1 1 3 1 1 3 1 1 3 1 1 3 
1 1 3 1 1 3 1 1 3 1 1 3 1 1 3 0 0 2 1 1 3 1 1 3 1 1 3 1 1 3 1 1 3 1 1 3 1 1 3 1 1 3 1 1 3 1 1 3 1 1 3 1 1 3 1 1 3 1 1 3 1 1 3 1 1 3 1 1 3 1 1 3 1 1 3 1 1 3 1 1 3 1 1 3 1 1 3 1 1 3 1 1 3 1 1 3 1 1 3 1 1 3 1 1 3 1 1 3 1 1 3 1 1 3 1 1 3 1 1 3 1 1 3 1 1 3 1 1 3 1 1 3 1 1 3 1 1 3 1 1 3 1 1 3 1 1 3 1 1 3 1 1 3 1 1 3 1 1 3 1 1 3 1 1 3 1 1 3 1 1 3 1 1 3 1 1 3 1 1 3 1 1 3 1 1 3 1 1 3 1 1 3 1 1 3 1 1 3 1 1 3 1 1 3 1 1 3 1 1 3 1 1 3 1 1 3 1 1 3 1 1 3 1 1 3 1 1 3 1 1 3 1 1 3 1 1 3 1 1 3 1 1 3 1 1 3 1 1 3 1 1 3 1 1 3 1 1 3 1 1 3 1 1 3 1 1 3 1 1 3 1 1 3 1 1 3 1 1 3 1 1 3 1 1 3 1 1 3 1 1 3 1 1 3 1 1 3 1 1 3 
3 4 9 3 4 9 3 4 9 3 4 9 3 2 7 3 2 7 4 3 8 3 2 7 3 2 7 3 2 7 2 1 6 2 1 6 3 4 8 2 3 7 2 3 7 2 3 7 2 3 7 2 3 7 1 2 6 2 3 7 3 2 7 3 2 7 3 2 7 3 2 7 3 2 7 3 2 7 3 2 7 3 2 7 2 3 7 2 3 7 2 3 7 2 3 7 2 3 7 2 3 7 2 3 7 2 3 7 3 2 7 3 2 7 3 2 7 3 2 7 3 2 7 3 2 7 3 2 7 3 2 7 2 3 7 2 3 7 2 3 7 2 3 7 2 3 7 2 3 7 2 3 7 2 3 7 2 3 7 2 3 7 2 3 7 2 3 7 2 3 7 2 3 7 2 3 7 2 3 7 3 2 7 3 2 7 3 2 7 3 2 7 3 2 7 3 2 7 3 2 7 3 2 7 3 4 8 3 4 8 3 4 8 3 4 8 3 4 8 3 4 8 3 4 8 3 4 8 3 4 8 3 4 8 3 4 8 3 4 8 3 4 9 3 4 9 3 4 9 3 4 9 3 4 9 3 4 9 3 4 9 3 4 9 3 4 9 3 4 9 3 4 9 3 4 9 4 5 10 4 5 10 4 5 10 4 5 10 4 5 10 4 5 10 4 5 10 4 5 10 
3 4 9 3 4 9 3 4 9 3 4 9 2 3 7 2 3 7 3 4 8 2 3 7 1 2 6 2 3 7 2 3 7 2 3 7 1 2 6 2 3 7 2 3 7 2 3 7 2 3 7 2 3 7 2 3 7 2 3 7 2 3 7 2 3 7 2 3 7 2 3 7 2 3 7 2 3 7 2 3 7 2 3 7 3 2 7 3 2 7 3 2 7 3 2 7 3 2 7 3 2 7 3 2 7 3 2 7 2 3 7 2 3 7 2 3 7 2 3 7 2 3 7 2 3 7 2 3 7 2 3 7 3 2 7 3 2 7 3 2 7 3 2 7 3 2 7 3 2 7 3 2 7 3 2 7 3 2 7 3 2 7 3 2 7 3 2 7 3 2 7 3 2 7 2 1 6 2 1 6 2 3 7 2 3 7 2 3 7 2 3 7 2 3 7 2 3 7 2 3 7 2 3 7 3 2 7 3 2 7 3 2 7 3 2 7 3 2 7 3 2 7 3 2 7 3 2 7 3 4 8 3 4 8 3 4 8 3 4 8 3 4 9 3 4 9 3 4 9 3 4 9 3 4 9 3 4 9 3 4 9 3 4 9 3 4 9 3 4 9 3 4 9 3 4 9 4 5 10 4 5 10 4 5 10 4 5 10 4 5 10 4 5 10 4 5 10 4 5 10 
7 7 17 7 7 17 7 7 17 7 7 17 7 7 17 6 6 16 7 7 17 7 7 17 7 7 17 7 7 17 6 6 16 6 6 16 7 7 15 7 7 15 7 7 15 7 7 15 7 7 15 7 7 15 6 6 14 7 7 15 7 7 17 7 7 17 7 7 17 7 7 17 7 7 17 7 7 17 7 7 17 7 7 17 7 7 15 7 7 15 7 7 15 7 7 15 7 7 15 7 7 15 7 7 15 7 7 15 7 7 17 7 7 17 7 7 17 7 7 17 7 7 17 7 7 17 7 7 17 7 7 17 7 7 17 7 7 17 7 7 17 7 7 17 7 7 17 7 7 17 7 7 17 7 7 17 7 7 15 7 7 15 7 7 15 7 7 15 7 7 15 7 7 15 7 7 15 7 7 15 6 6 14 6 6 14 6 6 14 6 6 14 6 6 14 6 6 14 6 6 14 6 6 14 7 7 15 7 7 15 7 7 15 7 7 15 7 7 15 7 7 15 7 7 15 7 7 15 7 7 17 7 7 17 7 7 17 7 7 17 7 7 17 7 7 17 7 7 17 7 7 17 8 8 18 8 8 18 8 8 18 8 8 18 8 8 18 8 8 18 8 8 18 8 8 18 8 8 18 8 8 18 8 8 18 8 8 18 8 8 18 8 8 18 8 8 18 8 8 18 
9 9 21 9 9 21 9 9 21 9 9 21 7 9 21 9 9 21 8 8 20 8 10 22 7 9 21 9 9 21 9 9 21 7 9 21 8 10 22 9 9 21 9 9 21 9 9 21 9 9 21 8 10 22 9 9 21 9 9 21 9 9 21 9 9 21 9 9 21 10 10 22 9 9 21 9 9 21 10 10 22 8 8 20 9 9 21 9 9 21 9 9 21 9 9 21 9 9 21 8 8 20 9 9 21 9 9 21 7 9 21 7 9 21 7 9 21 7 9 21 7 9 21 7 9 21 7 9 21 7 9 21 9 9 21 10 10 22 9 9 21 10 10 22 9 9 21 9 9 21 8 8 20 9 9 21 9 9 21 7 9 21 9 9 21 7 9 21 9 9 21 7 9 21 9 9 21 7 9 21 7 9 21 7 9 21 7 9 21 6 8 20 7 9 21 7 9 21 6 8 20 6 8 20 7 9 21 9 9 21 10 10 22 9 9 21 9 9 21 9 9 21 9 9 21 8 10 22 7 9 22 7 9 21 7 9 21 7 9 21 7 9 22 7 9 22 7 9 21 7 9 21 9 8 22 9 8 22 9 8 22 9 8 22 10 9 23 10 9 23 10 9 23 10 9 23 10 9 23 10 9 23 10 9 23 10 9 23 10 9 23 9 8 22 9 8 22 10 9 23 
9 9 21 9 9 21 9 9 21 9 9 21 9 9 21 9 9 21 8 8 20 8 7 21 8 8 18 8 8 20 9 9 21 8 8 20 8 8 20 8 8 20 8 8 20 8 8 20 9 9 21 8 8 20 8 8 20 9 9 21 8 8 20 9 9 21 8 8 20 9 9 21 9 9 21 8 8 20 8 8 20 9 9 21 8 8 20 7 7 19 9 9 21 8 8 20 9 9 21 8 8 20 8 8 20 8 8 20 8 8 20 8 8 20 8 8 20 9 9 21 9 9 21 8 8 20 9 9 21 8 8 20 9 9 21 8 8 20 9 9 21 8 8 20 8 8 20 10 10 22 9 9 21 9 9 21 9 9 19 9 9 21 6 8 20 6 8 20 6 8 20 9 9 21 6 8 20 8 8 20 9 9 21 8 8 20 8 8 20 8 8 20 8 8 20 8 8 20 8 8 20 8 8 20 8 8 20 8 8 20 8 8 20 8 8 20 8 8 20 9 9 21 8 8 20 9 9 21 9 9 21 9 9 21 9 9 21 9 9 21 8 8 20 9 9 21 9 9 21 9 9 21 9 9 21 9 9 21 9 9 21 9 9 21 9 9 21 9 9 21 9 9 21 9 9 21 7 9 21 7 9 21 7 9 21 7 9 21 7 9 21 7 9 21 7 9 21 7 9 21 
7 7 17 7 7 17 7 7 17 7 7 17 7 7 17 8 8 18 7 7 17 7 7 17 8 8 18 7 7 17 8 8 18 7 7 17 7 7 17 8 8 18 7 7 17 7 7 17 7 7 17 7 7 17 8 8 20 7 7 17 8 8 18 7 7 17 7 7 17 8 8 18 7 7 17 7 7 17 8 8 20 8 8 20 8 8 18 8 8 20 8 8 20 7 7 19 8 8 18 7 7 17 8 8 18 8 8 20 8 8 20 8 8 18 8 8 20 7 7 19 7 7 17 8 8 18 8 8 20 8 8 18 8 8 20 8 8 20 8 8 20 8 8 20 8 8 20 8 8 20 8 8 20 8 8 20 8 8 18 8 8 18 8 8 18 8 8 18 8 8 18 8 8 18 8 8 20 7 7 19 8 8 20 8 8 20 8 8 20 8 8 20 8 8 20 8 8 20 8 8 20 8 8 20 8 8 20 7 7 19 7 7 19 7 7 19 7 7 19 8 8 20 7 7 19 7 7 19 7 7 17 7 7 17 8 8 18 7 7 17 7 7 17 8 8 18 7 7 17 7 7 17 7 7 17 7 7 17 7 7 17 7 7 17 7 7 17 7 7 17 8 8 18 8 8 18 6 6 16 6 6 16 6 6 16 6 6 16 6 6 16 6 6 16 6 6 16 6 6 16 
7 7 17 7 7 17 7 7 17 7 7 17 7 7 19 6 6 16 7 7 17 7 7 17 8 8 18 7 7 17 7 7 19 7 7 17 7 7 17 7 7 17 7 7 17 7 7 17 7 7 17 7 7 17 8 8 18 7 7 17 7 7 17 8 8 18 7 7 17 8 8 20 8 8 20 7 7 19 8 8 20 7 7 19 8 8 20 7 7 19 9 9 21 8 8 20 8 8 20 8 8 20 8 8 20 8 8 20 7 7 17 8 8 16 8 8 18 8 8 20 8 8 18 8 8 18 8 8 20 8 8 18 9 9 19 7 7 17 8 8 18 8 8 18 8 8 18 8 8 18 8 8 18 7 7 17 8 8 20 6 8 20 8 8 20 6 8 20 8 8 20 6 8 20 8 8 20 8 8 20 8 8 20 10 10 22 9 9 21 8 8 20 9 9 21 8 8 20 8 8 20 8 8 20 8 8 20 8 8 20 6 8 20 8 8 20 8 8 20 6 8 20 7 7 19 7 7 19 7 7 17 7 7 17 7 7 17 7 7 17 7 7 17 7 7 17 7 7 17 7 7 17 7 7 17 7 7 17 6 6 16 6 6 16 6 6 16 6 6 16 6 6 16 6 6 16 6 6 14 6 6 14 6 6 14 6 6 14 6 6 14 7 7 15 5 5 13 5 5 13 
3 2 7 3 2 7 3 2 7 3 2 7 3 3 5 2 2 4 2 1 6 3 2 7 3 3 5 2 1 6 3 3 5 2 2 4 2 3 7 2 1 6 3 2 7 3 2 7 2 3 7 2 3 7 2 3 5 3 2 7 2 1 6 3 2 7 3 2 7 2 1 6 3 2 7 3 2 7 2 1 6 3 2 7 3 2 7 3 2 7 2 1 6 3 2 7 3 2 7 3 2 7 3 2 7 2 1 6 3 2 7 3 2 7 3 2 7 3 2 7 3 2 7 3 2 7 3 2 7 2 1 6 3 2 7 3 2 7 2 1 6 2 1 6 4 3 8 3 2 7 4 3 8 3 2 7 3 2 7 3 2 7 3 2 7 2 1 6 2 3 7 3 2 7 3 2 7 3 2 7 3 2 7 3 2 7 3 2 7 3 2 7 3 2 7 2 1 6 3 2 7 3 2 7 2 3 7 3 2 7 2 1 6 3 2 7 3 2 7 3 2 7 3 2 7 2 3 7 3 2 7 3 2 7 2 1 6 3 2 7 2 1 6 3 2 7 3 2 7 3 2 7 3 2 7 3 2 7 2 1 6 2 1 6 2 1 6 2 1 6 2 1 6 2 1 6 2 1 6 3 2 7 2 1 6 2 1 6 2 1 6 2 1 6 3 2 7 3 2 7 
2 2 4 2 2 4 2 2 4 2 2 4 2 2 4 1 2 4 1 2 4 2 2 4 2 2 4 1 2 4 1 2 4 2 2 4 1 1 3 1 0 5 1 2 4 0 1 3 1 1 3 2 2 2 1 1 3 1 2 4 2 1 6 2 1 6 2 1 6 3 2 7 3 2 7 2 1 6 2 2 4 2 2 4 1 2 4 1 2 4 0 1 5 1 2 4 1 2 4 1 3 2 1 2 4 1 2 6 1 2 4 1 2 6 1 2 4 0 1 3 0 1 5 1 2 6 1 2 4 1 2 6 2 2 4 1 1 3 2 2 4 2 2 4 2 2 4 2 2 4 2 2 4 2 2 4 2 2 4 2 2 4 2 2 4 2 2 4 2 2 4 2 2 4 2 1 6 1 0 5 2 1 6 2 1 6 2 1 6 2 1 6 2 1 6 1 0 5 2 1 6 2 1 6 3 2 7 1 2 6 1 2 6 1 2 6 1 2 6 2 3 7 1 2 6 2 1 6 1 2 4 0 1 3 2 3 5 0 1 3 1 2 4 1 2 4 1 2 4 1 2 4 2 2 4 2 2 4 2 2 4 1 1 3 1 1 3 1 1 3 1 1 3 1 1 3 1 1 3 1 1 3 2 2 4 2 2 4 2 2 4 2 2 4 1 1 3 1 1 3 
1 1 3 1 1 3 1 1 3 1 1 3 1 0 5 2 2 4 1 1 3 1 1 3 1 1 3 1 1 3 2 1 6 2 2 4 1 1 3 0 1 3 0 1 3 0 1 3 2 2 4 1 1 3 1 1 3 1 2 4 2 2 4 1 1 3 1 1 3 1 1 3 2 2 4 1 0 5 1 0 5 1 0 5 1 1 3 2 2 4 2 2 4 2 2 4 2 2 4 2 2 4 1 1 3 2 2 4 1 1 3 2 1 7 1 0 5 2 2 4 2 1 7 1 0 5 1 1 3 1 0 5 2 2 4 1 1 3 1 1 3 2 2 4 2 2 4 1 1 3 1 1 3 0 0 2 3 3 5 2 2 4 2 2 4 0 1 3 2 2 4 1 2 4 2 2 4 1 1 3 1 1 3 2 2 4 2 2 4 1 1 3 2 2 4 2 2 4 2 2 4 2 2 4 1 2 4 1 1 3 2 2 4 1 1 3 3 3 5 2 2 4 1 1 3 0 1 3 1 1 3 2 2 4 1 1 3 2 2 4 1 1 3 2 2 4 1 1 3 1 1 3 1 1 3 1 1 3 1 1 3 1 1 3 1 1 3 1 1 3 2 2 4 2 2 4 1 1 3 1 1 3 1 1 3 1 1 3 1 1 3 1 1 3 1 1 3 1 1 3 
1 1 3 1 1 3 1 1 3 1 1 3 1 1 3 1 1 3 2 2 4 2 2 4 1 1 3 1 1 3 1 1 3 2 2 4 1 1 3 2 2 4 1 1 3 2 2 4 2 2 4 2 2 4 2 2 4 2 2 4 1 1 3 1 1 3 1 1 3 1 1 3 1 1 3 1 1 3 1 1 3 1 1 3 1 1 3 1 1 3 1 1 3 1 1 3 1 1 3 1 1 3 1 1 3 1 1 3 1 1 3 1 1 3 1 1 3 1 1 3 1 1 3 1 1 3 1 1 3 1 1 3 1 1 3 1 1 3 1 1 3 1 1 3 0 0 2 1 1 3 2 2 4 1 1 3 1 1 3 1 1 3 2 2 4 1 1 3 1 1 3 1 1 3 2 2 4 1 1 3 2 2 4 1 1 3 1 1 3 1 1 3 1 1 3 1 1 3 1 1 3 1 1 3 0 1 3 1 1 3 1 1 3 1 1 3 1 1 3 1 1 3 2 2 4 1 2 4 1 1 3 1 1 3 1 1 3 1 1 3 1 1 3 1 1 3 1 1 3 1 1 3 1 1 3 1 1 3 1 1 3 1 1 3 1 1 3 1 1 3 1 1 3 1 1 3 1 1 3 1 1 3 1 1 3 2 2 4 2 2 4 2 2 4 1 1 3 1 1 3 
1 1 3 1 1 3 1 1 3 1 1 3 1 1 3 1 1 3 1 1 3 1 1 3 1 1 3 1 1 3 1 1 3 1 1 3 1 1 3 1 1 3 1 1 3 1 1 3 1 1 3 1 1 3 1 1 3 1 1 3 1 1 3 1 1 3 1 1 3 1 1 3 1 1 3 1 1 3 1 1 3 1 1 3 1 1 3 1 1 3 1 1 3 1 1 3 1 1 3 1 1 3 1 1 3 1 1 3 1 1 3 1 1 3 1 1 3 1 1 3 1 1 3 1 1 3 1 1 3 1 1 3 0 0 2 1 1 3 1 1 3 1 1 3 1 1 3 1 1 3 1 1 3 2 2 4 1 1 3 1 1 3 1 1 3 1 1 3 1 1 3 1 1 3 1 1 3 1 1 3 1 1 3 1 1 3 1 1 3 1 1 3 1 1 3 1 1 3 1 1 3 1 1 3 1 1 3 1 1 3 1 1 3 1 1 3 1 1 3 1 1 3 1 1 3 1 1 3 0 1 3 0 1 3 1 1 3 1 1 3 1 1 3 1 1 3 1 1 3 1 1 3 1 1 3 2 2 4 1 1 3 1 1 3 1 1 3 1 1 3 2 2 4 1 1 3 1 1 3 1 1 3 1 1 3 1 1 3 1 1 3 1 1 3 1 1 3 1 1 3 
1 1 3 1 1 3 1 1 3 1 1 3 1 1 3 1 1 3 1 1 3 1 1 3 1 1 3 1 1 3 1 1 3 1 1 3 1 1 3 1 1 3 1 1 3 1 1 3 1 1 3 1 1 3 1 1 3 1 1 3 1 1 3 1 1 3 1 1 3 1 1 3 1 1 3 1 1 3 1 1 3 1 1 3 1 1 3 1 1 3 1 1 3 1 1 3 1 1 3 1 1 3 1 1 3 1 1 3 1 1 3 1 1 3 1 1 3 1 1 3 1 1 3 1 1 3 1 1 3 1 1 3 1 1 3 1 1 3 1 1 3 1 1 3 1 1 3 1 1 3 1 1 3 1 1 3 1 1 3 1 1 3 1 1 3 1 1 3 1 1 3 1 1 3 1 1 3 1 1 3 1 1 3 1 1 3 1 1 3 1 1 3 1 1 3 1 1 3 1 1 3 1 1 3 1 1 3 1 1 3 1 1 3 1 1 3 1 1 3 1 1 3 1 1 3 1 1 3 1 1 3 1 1 3 1 1 3 1 1 3 1 1 3 1 1 3 1 1 3 1 1 3 1 1 3 1 1 3 1 1 3 1 1 3 1 1 3 1 1 3 1 1 3 1 1 3 1 1 3 1 1 3 1 1 3 1 1 3 1 1 3 1 1 3 1 1 3 1 1 3 
1 1 3 1 1 3 1 1 3 1 1 3 1 1 3 1 1 3 1 1 3 1 1 3 1 1 3 1 1 3 1 1 3 1 1 3 1 1 3 1 1 3 1 1 3 1 1 3 1 1 3 1 1 3 1 1 3 1 1 3 1 1 3 1 1 3 1 1 3 1 1 3 1 1 3 1 1 3 1 1 3 1 1 3 1 1 3 1 1 3 1 1 3 1 1 3 1 1 3 1 1 3 1 1 3 1 1 3 1 1 3 1 1 3 1 1 3 1 1 3 1 1 3 1 1 3 1 1 3 1 1 3 1 1 3 1 1 3 1 1 3 1 1 3 1 1 3 1 1 3 1 1 3 1 1 3 1 1 3 1 1 3 1 1 3 1 1 3 1 1 3 1 1 3 1 1 3 1 1 3 1 1 3 1 1 3 1 1 3 1 1 3 1 1 3 1 1 3 1 1 3 1 1 3 1 1 3 1 1 3 1 1 3 1 1 3 1 1 3 1 1 3 1 1 3 1 1 3 1 1 3 1 1 3 1 1 3 1 1 3 1 1 3 1 1 3 1 1 3 1 1 3 2 2 4 1 1 3 1 1 3 1 1 3 1 1 3 1 1 3 1 1 3 2 2 4 1 1 3 1 1 3 1 1 3 1 1 3 1 1 3 1 1 3 1 1 3 1 1 3 
1 1 3 1 1 3 1 1 3 1 1 3 1 1 3 1 1 3 1 1 3 1 1 3 1 1 3 1 1 3 1 1 3 1 1 3 1 1 3 1 1 3 1 1 3 1 1 3 1 1 3 1 1 3 1 1 3 1 1 3 1 1 3 1 1 3 1 1 3 1 1 3 1 1 3 1 1 3 1 1 3 1 1 3 1 1 3 1 1 3 1 1 3 1 1 3 1 1 3 1 1 3 1 1 3 1 1 3 1 1 3 1 1 3 1 1 3 1 1 3 1 1 3 1 1 3 1 1 3 1 1 3 1 1 3 1 1 3 1 1 3 1 1 3 1 1 3 1 1 3 1 1 3 1 1 3 1 1 3 1 1 3 1 1 3 1 1 3 1 1 3 1 1 3 1 1 3 1 1 3 1 1 3 1 1 3 1 1 3 1 1 3 1 1 3 1 1 3 1 1 3 1 1 3 1 1 3 1 1 3 1 1 3 1 1 3 1 1 3 1 1 3 1 1 3 1 1 3 1 1 3 1 1 3 1 1 3 1 1 3 1 1 3 1 1 3 1 1 3 1 1 3 2 2 4 1 1 3 1 1 3 1 1 3 1 1 3 1 1 3 1 1 3 2 2 4 1 1 3 1 1 3 1 1 3 1 1 3 1 1 3 1 1 3 1 1 3 1 1 3 
1 1 3 1 1 3 1 1 3 1 1 3 1 1 3 1 1 3 1 1 3 1 1 3 1 1 3 1 1 3 1 1 3 1 1 3 1 1 3 1 1 3 1 1 3 1 1 3 1 1 3 1 1 3 1 1 3 1 1 3 1 1 3 1 1 3 1 1 3 1 1 3 1 1 3 1 1 3 1 1 3 1 1 3 1 1 3 1 1 3 1 1 3 1 1 3 1 1 3 1 1 3 1 1 3 1 1 3 1 1 3 1 1 3 1 1 3 1 1 3 1 1 3 1 1 3 1 1 3 1 1 3 1 1 3 1 1 3 1 1 3 1 1 3 1 1 3 1 1 3 1 1 3 1 1 3 1 1 3 1 1 3 1 1 3 1 1 3 1 1 3 1 1 3 1 1 3 1 1 3 1 1 3 1 1 3 1 1 3 1 1 3 1 1 3 1 1 3 1 1 3 1 1 3 1 1 3 1 1 3 1 1 3 1 1 3 1 1 3 1 1 3 1 1 3 1 1 3 1 1 3 1 1 3 1 1 3 1 1 3 1 1 3 1 1 3 1 1 3 1 1 3 1 1 3 1 1 3 1 1 3 2 2 4 2 2 4 1 1 3 1 1 3 1 1 3 1 1 3 1 1 3 1 1 3 1 1 3 1 1 3 1 1 3 1 1 3 1 1 3 
2 2 4 2 2 4 2 2 4 2 2 4 2 2 4 2 2 4 2 2 4 2 2 4 2 2 4 2 2 4 2 2 4 2 2 4 2 2 4 2 2 4 2 2 4 2 2 4 2 2 4 2 2 4 2 2 4 2 2 4 2 2 4 2 2 4 2 2 4 2 2 4 2 2 4 2 2 4 2 2 4 2 2 4 2 2 4 2 2 4 2 2 4 2 2 4 2 2 4 2 2 4 2 2 4 2 2 4 2 2 4 2 2 4 2 2 4 2 2 4 2 2 4 2 2 4 2 2 4 2 2 4 2 2 4 2 2 4 2 2 4 2 2 4 2 2 4 2 2 4 2 2 4 2 2 4 2 2 4 2 2 4 2 2 4 2 2 4 2 2 4 2 2 4 2 2 4 2 2 4 2 2 4 2 2 4 2 2 4 2 2 4 2 2 4 2 2 4 2 2 4 2 2 4 2 2 4 2 2 4 2 2 4 2 2 4 2 2 4 2 2 4 2 2 4 2 2 4 1 2 4 1 2 4 1 2 4 2 2 4 2 2 4 2 2 4 3 2 7 3 2 7 3 3 5 3 3 5 2 2 4 3 3 5 3 3 5 2 2 4 3 3 5 3 3 5 3 2 7 3 2 7 3 2 7 3 2 7 3 2 7 3 2 7 3 2 7 3 2 7 
3 2 7 3 2 7 3 2 7 3 2 7 3 2 7 3 2 7 3 2 7 3 2 7 3 2 7 3 2 7 3 2 7 3 2 7 3 2 7 3 2 7 3 2 7 3 2 7 3 2 7 3 2 7 3 2 7 3 2 7 3 2 7 3 2 7 3 2 7 3 2 7 3 2 7 3 2 7 3 2 7 3 2 7 3 2 7 3 2 7 3 2 7 3 2 7 3 2 7 3 2 7 3 2 7 3 2 7 3 2 7 3 2 7 3 2 7 3 2 7 3 2 7 3 2 7 3 2 7 3 2 7 3 2 7 3 2 7 3 2 7 3 2 7 3 2 7 3 2 7 3 2 7 3 2 7 3 2 7 3 2 7 3 2 7 3 2 7 3 2 7 3 2 7 3 2 7 3 2 7 3 2 7 3 2 7 3 2 7 3 2 7 3 2 7 3 2 7 3 2 7 3 2 7 3 2 7 3 2 7 3 2 7 3 2 7 3 2 7 3 2 7 3 2 7 3 2 7 2 3 7 2 3 7 2 3 7 2 3 7 3 4 8 3 4 9 3 4 9 3 4 9 3 4 9 3 4 9 3 4 9 3 4 9 3 4 9 3 4 9 3 4 9 3 4 9 4 5 10 4 5 10 4 5 10 4 5 10 4 5 10 4 5 10 4 5 10 4 5 10 
3 2 7 3 2 7 3 2 7 3 2 7 4 3 8 4 3 8 4 3 8 4 3 8 4 3 8 4 3 8 4 3 8 4 3 8 3 2 7 3 2 7 3 2 7 3 2 7 3 2 7 3 2 7 3 2 7 3 2 7 2 3 7 2 3 7 2 3 7 2 3 7 2 3 7 2 3 7 2 3 7 2 3 7 3 2 7 3 2 7 3 2 7 3 2 7 3 2 7 3 2 7 3 2 7 3 2 7 2 3 7 2 3 7 2 3 7 2 3 7 2 3 7 2 3 7 2 3 7 2 3 7 3 4 8 2 3 7 2 3 7 2 3 7 2 3 7 2 3 7 2 3 7 1 2 6 3 2 7 3 2 7 3 2 7 3 2 7 3 2 7 3 2 7 3 2 7 3 2 7 2 3 7 2 3 7 2 3 7 2 3 7 2 3 7 2 3 7 2 3 7 2 3 7 2 3 7 2 3 7 2 3 7 2 3 7 2 3 7 2 3 7 2 3 7 2 3 7 2 3 7 3 4 8 3 4 8 3 4 8 3 4 8 3 4 9 3 4 9 3 4 9 4 5 10 3 4 9 4 5 10 3 4 9 3 4 9 4 5 10 3 4 9 4 5 10 3 4 9 3 4 9 3 4 9 3 4 9 3 4 9 3 4 9 3 4 9 3 4 9 
