P3
100 50
255
255 255 255 255 255 255 255 255 255 255 255 255 255 255 255 255 255 255 255 255 255 255 255 255 255 255 255 255 255 255 255 255 255 255 255 255 255 255 255 255 255 255 255 255 255 255 255 255 255 255 255 166 166 176 18 20 45 18 20 45 18 20 43 18 20 43 18 20 45 18 20 45 18 20 45 18 20 45 18 20 43 18 20 43 18 20 45 18 20 45 18 20 45 18 20 45 18 20 45 18 20 45 18 20 45 18 20 45 18 20 45 18 20 45 18 20 45 19 21 46 17 19 44 18 20 45 18 20 45 18 20 45 19 21 46 18 20 43 18 20 45 18 20 45 19 21 44 19 21 44 18 20 45 18 20 43 18 20 45 18 20 45 18 20 45 18 20 43 18 20 43 18 20 45 19 21 46 15 17 42 15 17 42 47 48 69 226 225 230 254 254 254 255 255 255 255 255 253 255 255 255 255 255 253 255 255 255 255 255 255 255 255 255 255 255 255 255 255 255 255 255 255 255 255 255 254 254 254 255 255 255 255 255 255 255 255 255 255 255 255 255 255 255 255 255 255 255 255 255 255 255 255 255 255 255 255 255 255 255 255 255 255 255 255 255 255 255 255 255 255 255 255 255 255 255 255 255 255 255 255 255 255 255 255 255 255 255 255 255 255 255 255 255 255 255 255 255 255 255 255 
255 255 255 255 255 255 255 255 255 255 255 255 255 255 255 255 255 255 255 255 255 255 255 255 255 255 255 255 255 255 255 255 255 255 255 255 255 255 255 255 255 255 255 255 255 255 255 255 255 255 255 166 166 176 18 20 45 18 20 45 18 20 43 18 20 43 18 20 45 18 20 45 18 20 45 18 20 45 18 20 43 18 20 43 18 20 45 18 20 45 18 20 45 18 20 45 18 20 45 18 20 45 18 20 45 18 20 45 18 20 45 18 20 45 18 20 45 18 20 45 19 21 46 18 20 45 19 21 46 18 20 45 18 20 43 17 19 42 18 20 43 18 20 43 18 20 43 18 20 43 17 19 42 18 20 43 18 20 43 19 21 44 19 21 44 18 20 45 18 20 41 18 20 45 18 20 45 15 17 42 16 18 43 17 19 42 48 49 70 181 181 189 255 255 255 255 255 253 255 255 255 255 255 255 255 255 253 255 255 255 255 255 255 254 254 254 255 255 255 255 255 255 255 255 255 255 255 255 255 255 255 255 255 255 255 255 255 255 255 255 255 255 255 255 255 255 255 255 255 255 255 255 255 255 255 255 255 255 255 255 255 255 255 255 255 255 255 255 255 255 255 255 255 255 255 255 255 255 255 255 255 255 255 255 255 255 255 255 255 255 255 255 255 255 255 255 255 255 255 255 
255 255 255 255 255 255 255 255 255 255 255 255 255 255 255 255 255 255 255 255 255 255 255 255 255 255 255 255 255 255 255 255 255 255 255 255 255 255 255 255 255 255 255 255 255 255 255 255 255 255 255 166 166 176 18 20 45 18 20 45 18 20 43 18 20 43 18 20 45 18 20 45 18 20 45 18 20 45 18 20 43 18 20 43 18 20 45 18 20 45 18 20 45 18 20 45 18 20 45 18 20 45 18 20 45 18 20 45 18 18 44 17 19 44 18 20 45 18 20 45 16 20 45 17 21 46 18 20 45 18 20 45 19 21 44 18 20 43 18 20 43 18 20 43 18 20 43 19 21 44 18 20 43 18 20 43 18 20 43 19 21 46 17 19 42 16 18 43 16 18 43 18 20 45 18 20 43 17 19 44 17 19 44 17 19 42 16 18 43 16 18 43 135 137 149 255 255 253 255 255 255 255 255 255 255 255 255 255 255 255 255 255 255 255 255 255 255 255 255 255 255 255 255 255 255 255 255 255 255 255 255 255 255 255 255 255 255 255 255 255 255 255 255 255 255 255 255 255 255 255 255 255 255 255 255 255 255 255 255 255 255 255 255 255 255 255 255 255 255 255 255 255 255 255 255 255 255 255 255 255 255 255 255 255 255 255 255 255 255 255 255 255 255 255 255 255 255 255 255 255 
255 255 255 255 255 255 255 255 255 255 255 255 255 255 255 255 255 255 255 255 255 255 255 255 255 255 255 255 255 255 255 255 255 255 255 255 255 255 255 255 255 255 255 255 255 255 255 255 255 255 255 166 166 176 18 20 45 18 20 45 18 20 43 18 20 43 18 20 45 18 20 45 18 20 45 18 20 45 18 20 43 18 20 43 19 21 46 18 20 45 19 21 46 18 20 45 19 21 46 18 20 45 19 21 46 18 20 45 17 19 44 19 21 46 18 20 45 18 20 45 18 20 45 18 20 45 18 20 45 18 20 45 17 19 42 17 19 44 18 20 43 18 20 43 18 20 45 18 20 45 18 20 43 19 21 46 18 20 41 18 20 45 16 18 43 15 17 42 17 19 44 18 20 45 18 20 45 18 20 43 19 19 43 16 18 41 15 17 42 16 18 43 18 20 43 63 64 84 226 225 230 255 255 255 255 255 255 255 255 255 255 255 255 255 255 255 255 255 255 255 255 255 255 255 255 255 255 255 255 255 255 255 255 255 255 255 255 255 255 255 255 255 255 255 255 255 255 255 255 255 255 255 255 255 255 255 255 255 255 255 255 255 255 255 255 255 255 255 255 255 255 255 255 255 255 255 255 255 255 255 255 255 255 255 255 255 255 255 255 255 255 255 255 255 255 255 255 255 255 255 
255 255 255 255 255 255 255 255 255 255 255 255 255 255 255 255 255 255 255 255 255 255 255 255 255 255 255 255 255 255 255 255 255 255 255 255 255 255 255 255 255 255 255 255 255 255 255 255 255 255 255 166 166 176 18 20 45 18 20 45 18 20 45 18 20 45 18 20 43 18 20 43 18 20 43 18 20 43 18 20 45 18 20 45 18 20 45 18 20 45 18 20 45 18 20 45 18 20 45 18 20 45 18 20 45 18 20 45 16 20 45 18 20 45 18 20 45 18 20 45 19 19 45 18 20 45 18 20 45 17 19 44 17 19 42 18 20 43 18 20 43 18 20 43 18 20 45 18 20 45 17 19 44 18 20 45 18 20 43 18 20 43 17 18 46 17 19 44 17 19 44 17 19 44 17 19 42 18 20 45 19 21 44 17 19 44 17 19 42 17 19 42 17 19 44 18 20 45 47 49 70 167 167 175 255 255 255 255 255 253 255 255 255 255 255 255 255 255 253 255 255 255 255 255 255 255 255 255 255 255 255 255 255 255 255 255 255 255 255 255 255 255 255 255 255 255 255 255 255 255 255 255 255 255 255 255 255 255 255 255 255 255 255 255 255 255 255 255 255 255 255 255 255 255 255 255 255 255 255 255 255 255 255 255 255 255 255 255 255 255 255 255 255 255 255 255 255 255 255 255 
255 255 255 255 255 255 255 255 255 255 255 255 255 255 255 255 255 255 255 255 255 255 255 255 255 255 255 255 255 255 255 255 255 255 255 255 255 255 255 255 255 255 255 255 255 255 255 255 255 255 255 166 166 176 18 20 45 18 20 45 18 20 45 18 20 45 18 20 43 18 20 43 18 20 43 18 20 43 18 20 45 18 20 45 18 20 45 19 21 46 18 20 45 19 21 46 18 20 45 19 21 46 18 20 45 19 21 46 17 19 44 18 20 45 18 20 45 18 20 45 18 20 45 17 19 44 16 18 43 16 18 43 16 18 43 18 20 43 18 20 45 18 20 45 19 21 46 16 18 43 15 16 44 16 18 43 18 20 43 18 20 43 17 19 44 19 21 46 17 19 42 15 17 42 15 17 42 18 20 43 18 20 45 19 21 46 20 20 46 19 19 45 15 17 40 15 17 42 18 20 45 19 21 44 124 122 136 240 240 242 255 255 255 255 255 255 254 254 252 255 255 255 255 255 255 255 255 255 255 255 255 255 255 255 255 255 255 255 255 255 255 255 255 255 255 255 255 255 255 255 255 255 255 255 255 255 255 255 255 255 255 255 255 255 255 255 255 255 255 255 255 255 255 255 255 255 255 255 255 255 255 255 255 255 255 255 255 255 255 255 255 255 255 255 255 255 255 255 255 255 
255 255 255 255 255 255 255 255 255 255 255 255 255 255 255 255 255 255 255 255 255 255 255 255 255 255 255 255 255 255 255 255 255 255 255 255 255 255 255 255 255 255 254 254 254 255 255 255 255 255 255 166 166 174 18 20 43 18 20 45 18 20 45 18 20 43 18 20 45 18 20 43 19 21 42 18 20 43 18 20 45 18 20 43 18 20 45 18 20 43 18 20 43 17 19 44 18 20 45 19 21 46 18 20 43 18 20 43 20 22 47 19 21 46 17 19 44 19 21 44 18 20 43 18 20 45 17 19 44 16 18 43 17 18 46 18 20 45 18 20 43 18 20 43 18 20 43 17 19 44 16 18 43 16 18 43 18 20 45 18 20 45 18 20 45 18 20 45 17 19 44 15 17 42 17 19 44 18 20 45 18 20 45 17 19 44 18 20 45 17 19 44 17 19 44 16 18 43 18 20 45 18 20 45 17 17 41 46 47 68 196 197 202 255 255 253 255 255 255 255 255 255 255 255 255 255 255 253 255 255 255 255 255 255 255 255 255 255 255 255 255 255 255 255 255 255 255 255 255 255 255 255 255 255 255 255 255 255 255 255 255 255 255 255 255 255 255 255 255 255 255 255 255 255 255 255 255 255 255 255 255 255 255 255 255 255 255 255 255 255 255 255 255 255 255 255 255 255 255 255 
255 255 255 255 255 255 255 255 255 255 255 255 255 255 255 255 255 255 255 255 255 255 255 255 255 255 255 255 255 255 255 255 255 255 255 255 254 254 254 255 255 255 255 255 255 255 255 253 255 255 255 166 166 174 18 20 43 18 20 43 17 19 44 16 20 45 18 20 45 18 20 43 18 20 45 18 20 43 17 19 44 18 20 43 18 20 45 19 21 46 18 20 43 18 20 43 18 20 45 18 20 45 18 20 43 18 20 43 18 20 45 19 21 46 18 20 45 18 20 43 18 20 43 16 18 43 17 19 44 18 20 45 18 20 43 18 20 43 18 20 43 16 18 43 15 17 42 17 19 44 18 20 43 19 21 44 18 20 45 18 20 45 16 18 43 15 17 42 16 18 43 18 20 43 18 20 45 15 17 42 15 17 42 17 19 44 19 21 46 18 20 45 18 20 45 18 20 45 16 18 43 15 17 42 17 19 42 18 20 43 18 20 45 120 122 135 241 241 241 255 254 255 255 255 255 255 255 255 255 255 255 255 255 255 255 255 255 255 255 255 255 255 255 255 255 255 255 255 255 255 255 255 255 255 255 255 255 255 255 255 255 255 255 255 255 255 255 255 255 255 255 255 255 255 255 255 255 255 255 255 255 255 255 255 255 255 255 255 255 255 255 255 255 255 255 255 255 255 255 255 
255 255 255 255 255 255 255 255 255 255 255 255 255 255 255 255 255 255 255 255 255 255 255 255 255 255 255 255 255 255 255 255 255 255 255 255 255 255 255 255 255 255 255 255 255 255 255 253 255 255 255 166 166 174 18 20 43 18 20 45 18 20 43 19 19 43 18 20 43 19 21 46 19 21 44 18 20 45 16 20 45 18 20 43 19 21 46 18 20 45 18 20 43 18 20 43 19 20 48 18 20 45 18 20 45 18 20 43 18 20 45 18 20 45 17 19 44 18 20 43 18 20 43 19 21 46 19 21 46 17 19 44 18 20 43 18 20 43 19 21 44 16 18 43 15 17 42 17 19 44 18 20 43 18 20 41 18 20 45 18 20 45 16 18 43 15 17 42 16 18 43 18 20 43 19 21 46 15 17 42 15 17 42 17 19 44 18 20 45 17 19 44 17 19 44 18 20 45 16 18 43 16 18 43 18 18 44 18 20 43 18 20 41 13 18 40 45 47 68 166 166 176 255 255 255 255 255 255 255 255 255 255 255 255 255 255 255 255 255 255 255 255 255 255 255 255 255 255 255 255 255 255 255 255 255 255 255 255 255 255 255 255 255 255 255 255 255 255 255 255 255 255 255 255 255 255 255 255 255 255 255 255 255 255 255 255 255 255 255 255 255 255 255 255 255 255 255 255 255 255 
255 255 255 255 255 255 255 255 255 255 255 255 255 255 255 255 255 255 255 255 255 255 255 255 255 255 255 255 255 255 255 255 255 255 255 255 255 255 255 255 255 255 255 255 255 255 255 253 255 255 255 150 150 158 15 17 38 18 20 43 19 21 46 18 18 44 18 20 45 18 20 43 18 20 43 18 20 43 17 21 46 19 21 46 18 20 43 18 20 45 19 21 46 18 20 41 17 19 42 18 20 45 17 19 44 18 20 43 18 20 45 17 19 44 16 18 43 17 19 42 18 20 43 18 20 45 18 20 45 16 18 43 17 19 44 18 20 45 18 20 45 17 19 44 17 19 44 16 18 43 16 18 43 17 19 44 18 20 43 19 20 48 16 18 43 15 17 42 16 18 43 18 20 43 18 20 43 15 17 42 15 17 42 17 19 44 18 20 45 17 19 44 16 18 43 16 18 43 17 19 44 17 19 44 18 18 46 16 18 43 16 18 43 16 18 43 15 17 40 15 17 40 105 107 122 225 224 229 255 255 255 255 255 255 255 255 255 255 255 255 255 255 255 255 255 255 255 255 255 255 255 255 255 255 255 255 255 255 255 255 255 255 255 255 255 255 255 255 255 255 255 255 255 255 255 255 255 255 255 255 255 255 255 255 255 255 255 255 255 255 255 255 255 255 255 255 255 255 255 255 
255 255 255 255 255 255 255 255 255 255 255 255 255 255 255 255 255 255 255 255 255 255 255 255 255 255 255 255 255 255 255 255 255 255 255 255 255 255 255 255 255 255 255 255 253 255 255 253 255 255 255 119 119 129 14 15 36 17 19 44 19 21 44 19 21 46 17 19 44 17 19 44 17 19 42 18 20 43 18 20 43 16 18 41 19 21 44 18 20 45 18 20 45 18 20 43 18 20 41 18 20 45 18 20 45 18 20 43 17 19 44 17 19 44 16 18 43 15 17 40 18 20 43 19 21 46 17 19 44 15 17 42 15 17 42 18 20 45 18 20 43 18 20 43 18 20 43 16 18 43 15 17 42 15 17 42 19 21 44 18 19 47 16 18 43 15 17 42 17 19 44 18 20 43 18 20 43 15 17 42 15 17 42 18 20 45 19 21 46 18 20 45 16 18 43 15 17 42 18 20 45 18 20 45 17 19 44 16 17 45 16 18 43 15 17 42 15 17 42 15 17 42 15 17 42 31 33 56 136 138 150 254 255 255 255 255 255 255 255 255 254 254 252 255 255 255 255 255 255 255 255 255 255 255 255 255 255 255 255 255 255 255 255 255 255 255 255 255 255 255 255 255 255 255 255 255 255 255 255 255 255 255 255 255 255 255 255 255 255 255 255 255 255 255 255 255 255 255 255 255 
255 255 255 255 255 255 255 255 255 255 255 255 255 255 255 255 255 255 255 255 255 255 255 255 255 255 255 255 255 255 255 255 255 255 255 255 255 255 255 255 255 255 255 255 255 255 255 255 255 255 255 70 71 76 10 10 22 13 14 32 11 14 31 16 17 38 17 19 40 16 18 41 19 19 45 17 19 44 18 20 43 19 19 43 18 20 43 18 20 45 17 19 44 17 18 46 17 19 42 18 20 43 18 20 45 18 20 45 18 20 45 17 19 44 17 19 44 17 19 42 19 21 44 18 20 45 17 19 44 15 17 42 17 18 46 18 20 43 17 19 42 18 20 43 17 19 44 17 19 44 16 18 43 16 18 41 17 19 42 17 18 46 16 18 43 16 18 43 17 19 42 18 20 43 17 19 44 16 18 41 16 18 43 17 19 44 17 19 44 17 19 44 16 18 43 15 17 42 17 19 44 18 20 45 17 19 44 17 19 44 16 18 43 15 17 42 15 17 42 15 17 42 16 18 43 17 19 44 17 19 44 46 48 71 163 166 175 255 255 255 255 253 254 255 255 255 255 255 255 255 255 255 255 255 255 255 255 255 255 255 255 255 255 255 255 255 255 255 255 255 255 255 255 255 255 255 255 255 255 255 255 255 255 255 255 255 255 255 255 255 255 255 255 255 255 255 255 255 255 255 
255 255 255 255 255 255 255 255 255 255 255 255 255 255 255 255 255 255 255 255 255 255 255 255 255 255 255 255 255 255 255 255 255 255 255 255 255 255 255 255 255 255 255 255 255 255 255 255 255 255 255 17 17 17 1 1 3 4 4 14 3 3 13 9 12 29 12 13 33 14 15 36 13 17 42 15 17 42 18 18 42 18 20 43 18 20 43 18 20 43 18 20 45 15 17 42 15 17 40 18 20 43 18 20 45 16 18 43 16 18 43 16 18 43 18 20 45 18 20 43 18 20 43 18 20 45 18 20 45 15 17 42 16 18 43 18 20 43 18 20 43 16 18 41 15 17 42 17 19 44 18 20 43 18 20 43 15 17 40 15 17 42 17 19 44 18 20 43 17 19 42 15 17 42 15 17 42 18 20 43 17 19 44 16 18 43 15 17 42 15 17 42 15 17 42 14 16 41 15 17 42 15 17 42 17 19 42 18 18 44 19 19 47 15 17 42 16 18 43 16 18 43 15 17 42 15 17 42 13 17 42 15 17 42 16 18 43 46 47 68 166 166 176 255 255 255 255 255 255 254 255 255 255 255 255 255 255 255 255 255 255 255 255 255 255 255 255 255 255 255 255 255 255 255 255 255 255 255 255 255 255 255 255 255 255 255 255 255 255 255 255 255 255 255 255 255 255 255 255 255 
255 255 255 255 255 255 255 255 255 255 255 255 255 255 255 255 255 255 255 255 255 255 255 255 255 255 255 255 255 255 255 255 255 255 255 255 255 255 255 255 255 255 255 255 255 255 255 253 158 158 158 1 1 1 2 2 4 3 3 13 3 4 9 10 11 31 12 13 31 13 15 36 15 16 44 16 18 43 19 19 45 19 21 46 19 21 44 18 20 43 17 19 44 15 17 42 15 17 42 18 20 43 18 20 43 16 18 43 14 16 41 17 19 44 17 19 44 18 20 43 18 20 43 18 20 45 16 18 43 17 19 44 16 18 43 18 20 45 18 20 45 15 17 42 15 17 42 16 18 43 18 20 45 17 19 44 14 16 39 15 17 42 17 19 44 19 21 44 17 19 42 15 17 42 15 17 42 19 21 44 18 20 45 17 19 44 16 18 43 15 17 42 16 18 43 15 17 42 16 18 43 15 17 42 17 19 44 18 20 43 18 20 43 15 17 42 15 17 42 13 17 42 15 17 42 15 17 42 16 18 43 15 17 42 15 17 42 15 17 40 17 19 42 48 49 70 166 166 176 255 255 255 255 255 255 255 255 255 255 255 255 255 255 255 255 255 255 255 255 255 255 255 255 255 255 255 255 255 255 255 255 255 255 255 255 255 255 255 255 255 255 255 255 255 255 255 255 255 255 255 
255 255 255 255 255 255 255 255 255 254 255 255 254 254 254 255 255 255 255 255 255 255 255 255 255 255 255 255 255 255 255 255 255 255 255 253 255 255 255 255 255 255 255 255 255 255 255 255 64 64 64 1 1 1 0 0 0 1 1 1 0 0 0 0 0 0 0 0 0 2 3 7 1 4 13 1 5 14 11 14 31 12 15 34 17 17 41 18 20 43 18 20 43 18 20 43 18 20 43 19 19 45 18 20 43 18 20 45 18 20 43 18 20 43 17 19 44 19 21 46 15 17 42 15 17 40 16 18 43 18 20 45 17 19 44 18 20 43 18 20 43 17 17 43 15 17 42 16 18 43 18 20 45 16 21 43 16 18 43 15 17 42 15 17 42 14 16 41 16 18 43 17 19 44 18 20 45 15 17 40 16 18 43 15 17 42 15 17 42 16 18 43 18 20 45 18 20 43 16 18 43 16 18 43 15 17 42 15 17 42 16 18 43 15 17 42 15 17 42 15 17 42 15 17 42 17 19 42 19 21 46 18 20 45 15 17 42 15 17 42 16 18 43 15 17 42 15 17 42 46 48 73 164 164 174 255 255 255 255 255 255 254 255 255 254 254 252 254 254 254 255 255 255 255 255 255 255 255 255 255 255 255 255 255 255 255 255 255 255 255 255 255 255 255 255 255 255 255 255 255 
255 255 255 255 255 255 255 254 255 255 255 255 255 255 255 255 255 255 255 255 253 255 255 255 255 255 255 255 255 253 255 255 255 255 255 255 255 255 255 255 255 255 255 255 255 159 159 159 0 0 0 1 1 1 1 1 1 0 0 0 1 1 1 0 0 0 0 0 0 1 2 6 3 3 13 2 5 14 13 14 32 12 13 33 16 18 41 16 20 45 18 20 43 17 19 44 18 20 43 19 19 47 18 20 45 17 19 44 17 19 42 18 20 43 18 20 45 18 20 45 16 18 43 15 17 42 16 17 45 19 21 44 17 19 42 18 20 43 19 21 44 15 17 42 15 17 42 17 19 44 18 20 43 18 20 43 15 17 42 15 17 42 15 17 42 15 17 42 16 18 43 17 19 44 18 20 45 15 17 40 15 17 42 15 17 42 15 17 42 16 18 43 17 19 44 18 20 43 15 17 40 15 17 42 15 17 42 15 17 42 14 16 41 15 17 42 16 18 43 15 17 42 15 17 42 16 18 43 17 19 44 18 20 45 15 17 42 15 17 42 15 17 42 15 17 42 15 17 42 16 18 43 15 17 42 45 47 70 104 106 121 226 225 230 255 255 255 255 255 255 254 254 254 255 255 255 255 255 255 255 255 255 255 255 255 255 255 255 254 254 254 255 255 255 255 255 255 255 255 253 
255 255 255 255 255 255 255 255 255 255 255 255 255 255 255 255 255 255 255 255 255 255 255 255 255 255 255 255 255 255 255 255 255 255 255 255 255 255 255 255 255 255 223 223 223 32 32 32 0 0 0 0 0 0 0 0 0 0 0 0 0 0 0 2 2 2 0 0 0 1 1 3 1 2 6 2 3 7 5 5 13 6 6 14 9 9 21 10 12 25 12 14 29 13 15 38 13 15 36 16 18 43 17 19 42 18 20 45 17 19 42 17 19 42 16 18 43 15 17 42 17 19 44 17 19 44 16 18 43 16 18 43 16 18 41 17 19 44 16 18 43 15 17 42 15 17 42 15 17 42 16 18 41 16 18 41 18 20 45 18 20 45 15 17 42 15 17 42 16 18 43 16 18 43 16 18 43 17 19 42 17 19 44 16 18 43 16 18 43 15 17 42 17 19 44 16 18 43 15 17 42 15 17 42 16 18 43 16 18 43 16 18 41 15 17 42 16 18 43 15 17 42 15 17 42 15 17 42 16 18 43 15 17 42 15 17 42 15 17 42 15 17 42 15 17 42 15 17 42 15 17 42 15 17 42 15 17 42 15 17 42 15 17 42 75 78 95 166 166 174 240 239 244 255 255 253 255 255 255 255 255 255 255 255 255 255 255 255 255 255 255 255 255 255 255 255 255 255 255 255 
255 255 255 255 255 255 255 255 255 255 255 253 255 255 255 253 255 252 254 255 255 255 255 255 255 255 255 255 255 255 255 255 253 255 255 255 255 255 255 255 255 255 79 81 80 0 0 0 0 0 0 1 1 1 1 1 1 1 1 1 0 0 0 1 1 1 2 2 2 1 1 0 2 2 2 1 1 0 1 1 1 1 1 1 3 4 9 5 5 15 9 8 22 13 14 34 12 13 31 15 17 42 15 17 42 18 20 45 17 19 42 17 19 44 16 18 43 15 17 42 18 20 43 17 19 42 16 18 43 15 17 42 15 17 42 15 17 42 15 17 42 15 17 42 17 19 44 15 17 42 15 17 42 15 17 42 18 20 45 18 20 45 17 19 44 15 17 42 15 17 42 15 17 42 16 18 41 18 20 43 19 21 44 17 19 44 16 18 43 15 17 42 15 17 42 15 17 42 16 18 43 16 18 43 16 18 43 18 20 43 19 21 44 16 18 43 15 17 42 16 18 43 15 17 42 15 17 42 16 18 43 16 18 43 15 17 42 15 17 42 15 17 42 15 17 42 15 17 42 16 18 43 15 17 40 15 17 42 15 17 42 15 17 42 16 16 42 16 18 43 14 16 39 105 107 122 180 180 188 240 240 242 255 255 255 255 255 255 255 255 255 254 254 254 255 255 255 255 255 255 
255 255 255 255 255 255 255 255 255 255 255 255 255 255 255 255 255 255 255 255 255 255 255 255 255 255 255 255 255 255 255 255 255 255 255 255 255 255 255 98 98 96 0 2 1 0 0 0 0 0 0 1 1 1 0 0 0 0 0 0 1 1 1 0 0 0 0 0 0 0 0 0 1 1 1 1 1 1 1 1 1 0 0 0 2 3 7 4 4 12 6 6 18 8 10 25 11 10 26 12 14 35 15 13 35 16 17 38 17 17 41 16 16 40 16 16 42 16 18 41 18 20 43 18 20 43 17 19 42 16 18 41 15 17 42 15 17 42 16 18 43 16 16 42 15 17 42 17 19 44 16 18 43 13 17 42 18 20 45 17 19 44 16 18 43 14 16 41 16 18 43 15 17 42 15 17 40 17 19 42 16 18 41 16 18 43 15 17 42 16 18 43 15 17 42 15 17 42 16 18 43 15 17 42 16 18 43 17 19 42 17 19 42 16 18 43 16 18 43 16 18 43 15 17 42 15 17 42 15 17 42 15 17 42 16 18 43 15 17 42 15 17 42 15 17 42 15 17 42 15 17 42 14 16 41 15 17 42 14 16 41 15 17 42 15 17 42 15 17 42 15 17 42 15 17 42 15 17 42 15 17 42 75 76 96 151 151 163 210 209 214 255 255 255 255 255 255 255 255 255 
255 255 253 255 255 255 255 255 255 255 255 255 255 255 255 254 254 254 255 255 255 255 255 253 255 255 253 255 255 255 255 255 255 239 239 239 70 66 65 7 3 2 1 1 1 0 0 2 1 1 1 0 0 2 1 1 1 1 1 1 1 1 1 1 1 1 1 1 1 2 2 2 1 1 1 1 1 1 0 0 0 1 1 1 0 2 0 1 1 1 1 1 1 1 1 1 1 1 1 3 6 15 5 5 13 10 12 27 10 13 32 14 16 37 18 20 43 18 20 43 17 19 42 18 20 43 17 19 44 18 20 43 18 20 43 18 20 45 18 20 45 17 17 43 15 17 42 17 19 44 19 21 44 15 20 42 15 17 40 15 17 42 15 17 42 15 17 42 16 18 43 18 20 45 18 20 43 14 16 39 14 16 39 17 19 42 18 20 43 17 19 42 14 16 39 14 16 39 18 20 43 19 21 44 16 18 41 14 16 39 14 16 39 17 19 42 19 21 46 16 18 43 15 17 42 15 17 42 15 17 42 16 18 43 16 18 43 15 17 42 16 18 43 15 17 42 15 17 42 15 17 42 15 17 42 15 17 42 16 18 43 16 18 43 15 17 42 15 17 42 15 17 42 16 18 41 16 18 43 15 17 42 15 17 42 16 18 43 14 16 41 30 32 55 76 77 95 136 136 148 
255 255 255 255 255 255 255 255 253 255 254 252 254 254 254 255 255 255 255 255 255 255 255 255 255 255 255 255 255 253 176 173 164 43 37 23 7 3 2 7 3 2 0 0 0 1 1 1 1 1 1 1 1 1 1 1 1 1 1 1 1 1 1 0 0 0 0 0 0 0 0 0 1 1 1 0 0 0 1 1 1 1 1 1 1 1 3 1 1 1 1 1 0 0 0 0 0 0 0 3 6 15 5 5 13 10 11 31 11 12 30 14 15 36 19 21 46 18 20 43 17 19 42 18 20 43 18 20 45 17 19 42 18 20 43 18 20 43 17 19 42 17 17 43 15 17 42 16 18 43 18 20 43 16 21 43 15 17 40 16 18 43 15 17 42 14 16 41 16 18 43 17 19 42 18 20 43 14 16 39 14 16 39 17 19 44 18 20 45 17 19 42 14 16 39 14 16 39 17 19 42 18 20 43 16 18 41 14 16 39 14 16 39 18 20 43 19 21 46 16 18 43 14 16 41 15 17 42 15 17 42 15 17 42 16 18 43 15 17 42 15 17 42 16 18 43 15 17 42 15 17 42 15 17 40 14 16 41 16 18 43 15 17 42 15 17 42 16 18 43 16 18 43 15 17 42 16 18 43 15 17 42 15 17 42 15 17 42 16 18 43 15 17 42 15 17 40 15 17 42 
255 255 255 254 254 254 255 255 255 255 255 253 255 255 255 255 255 255 255 255 255 247 243 240 182 177 157 118 113 73 81 74 28 73 69 24 64 59 21 64 59 21 36 31 11 37 30 12 18 13 7 7 3 2 4 3 1 0 0 0 1 1 1 1 1 1 0 0 0 1 1 1 1 1 1 0 0 0 0 0 0 0 0 0 1 1 1 2 2 4 1 1 1 0 0 0 1 1 0 2 2 4 2 2 2 1 1 3 3 2 7 5 4 10 7 7 19 5 7 20 13 16 33 14 17 36 15 17 40 16 18 41 17 19 44 18 20 43 18 20 43 15 17 42 15 17 42 15 17 42 16 18 43 16 18 41 17 19 42 17 19 44 15 17 42 15 17 42 16 18 43 18 20 43 17 19 42 14 16 39 15 17 40 15 17 42 16 18 43 16 18 39 17 19 42 16 18 43 15 17 42 15 17 40 16 18 41 17 19 42 17 19 42 15 17 40 14 16 39 15 17 42 16 18 43 14 16 41 15 17 42 15 17 42 15 17 42 16 18 43 16 18 43 15 17 42 15 17 42 15 17 42 17 19 44 14 16 41 14 16 41 15 17 42 15 17 42 15 17 42 15 17 42 15 17 42 15 17 42 15 17 42 15 17 42 15 17 42 16 18 43 15 17 42 16 18 43 15 17 42 
120 111 72 140 134 100 161 157 130 171 167 142 162 156 130 151 146 116 106 101 59 87 81 31 87 79 32 88 80 33 85 79 29 81 74 28 72 65 21 73 66 22 41 36 14 42 36 14 20 16 7 8 2 2 5 4 2 1 1 1 0 0 0 1 1 1 1 1 1 1 1 1 0 0 0 0 0 0 0 0 0 2 2 2 1 1 1 1 1 1 1 1 1 1 1 1 0 0 0 1 1 1 0 0 0 0 0 2 1 1 3 2 1 7 5 5 17 3 5 17 13 14 32 12 15 32 14 16 37 15 17 42 15 17 40 18 20 41 18 20 45 16 18 43 13 17 42 15 17 40 15 17 42 15 17 42 18 18 42 17 19 42 16 18 41 15 16 44 16 18 43 17 19 42 18 20 43 15 17 42 15 17 42 16 18 43 15 17 42 16 18 43 18 20 45 18 20 43 14 16 39 14 16 39 16 18 43 18 20 43 18 20 45 14 16 39 14 16 39 15 17 40 15 17 42 15 16 44 15 17 42 15 17 42 15 16 44 15 17 42 15 17 42 16 16 42 15 17 42 15 17 42 16 18 43 15 17 42 15 17 42 15 17 40 15 17 42 15 17 42 15 17 42 15 17 42 15 17 42 15 17 42 15 17 42 15 17 42 15 17 40 15 17 42 15 17 42 16 18 43 
86 78 31 85 79 29 87 81 33 87 81 31 84 80 32 86 79 33 87 79 32 87 79 32 86 80 32 86 80 32 86 80 30 84 78 30 80 73 27 80 73 27 63 57 23 64 55 22 49 43 17 41 35 11 35 30 10 18 14 3 18 15 6 4 3 1 3 2 0 3 1 2 0 0 0 1 1 1 1 1 1 0 0 0 1 1 1 0 0 0 0 0 0 0 0 0 1 1 1 1 1 1 2 0 1 1 1 1 1 1 1 2 1 6 3 2 8 3 2 8 8 8 18 8 8 18 10 10 22 11 12 30 12 13 33 15 17 40 15 17 40 16 18 43 15 17 42 16 18 43 15 17 42 14 16 41 16 18 43 16 18 43 15 17 42 15 17 42 16 18 41 18 20 35 21 20 36 15 17 42 15 17 42 16 17 45 15 17 42 16 18 43 16 18 43 16 18 41 14 16 39 16 18 41 15 17 40 16 18 41 16 18 39 16 18 41 16 18 43 16 18 43 15 17 40 15 17 42 14 16 41 15 16 44 18 19 37 17 19 34 16 18 39 14 16 41 15 17 42 16 18 43 16 18 43 15 17 42 15 17 42 15 17 42 15 17 42 15 17 42 15 17 42 15 17 42 16 18 43 15 17 42 16 17 45 15 17 42 15 17 42 15 17 42 15 17 42 14 16 41 
86 80 32 87 81 33 87 79 32 86 80 32 88 77 31 86 78 31 86 78 29 88 80 31 87 79 30 87 79 30 87 79 30 87 79 30 85 79 31 86 78 31 85 79 29 87 79 30 75 71 24 71 67 22 63 58 20 36 31 12 35 30 11 13 8 5 7 3 2 4 2 3 0 0 0 1 1 3 0 0 0 1 1 1 1 1 1 0 0 0 0 2 1 0 0 0 1 1 1 0 1 0 1 1 1 1 1 1 0 0 0 1 1 1 0 0 0 1 1 1 1 1 3 0 1 3 5 6 11 5 8 17 6 8 23 12 14 35 12 14 37 16 16 40 15 17 42 16 18 41 16 18 41 16 18 41 15 15 39 15 17 40 15 17 42 15 17 40 17 18 39 21 21 31 23 21 34 15 17 40 15 17 42 15 17 42 15 17 42 15 17 42 14 16 39 14 16 39 17 19 44 18 20 43 15 17 40 14 16 39 14 16 39 18 20 43 18 20 43 17 19 44 15 17 42 15 17 40 15 17 42 15 17 42 21 21 33 21 21 33 16 19 38 15 16 44 15 17 42 15 16 44 15 17 42 15 17 42 15 17 42 15 17 42 15 17 42 15 17 42 15 17 42 15 17 42 16 18 43 15 17 42 15 17 42 15 17 42 15 17 42 14 16 39 15 17 40 14 16 39 
85 79 31 85 79 31 87 79 32 86 80 32 83 79 31 85 79 31 86 80 32 87 79 32 86 78 31 86 78 31 87 81 33 86 80 30 87 79 32 87 79 32 86 78 31 86 78 31 78 71 25 75 68 22 68 61 19 42 36 12 43 37 15 19 14 8 15 10 6 10 7 2 5 5 3 5 6 1 3 1 2 1 1 1 1 1 1 1 1 1 0 2 1 0 0 0 1 1 1 1 1 1 0 0 0 1 1 1 1 1 3 1 0 0 0 0 0 1 1 1 1 1 1 1 1 3 3 4 9 5 5 15 5 7 20 10 11 29 11 12 30 14 16 39 15 15 39 13 15 40 14 16 41 14 16 41 14 16 41 15 17 42 16 18 43 15 17 42 17 18 38 20 20 32 21 20 34 16 18 43 15 17 42 15 17 42 15 17 42 14 16 41 14 16 39 14 16 39 17 19 44 17 19 42 15 17 42 14 16 41 14 16 39 17 19 42 17 19 42 16 18 41 15 17 42 15 17 42 16 18 43 15 17 42 21 21 33 21 20 34 16 19 38 16 18 43 16 18 43 15 17 40 15 17 42 14 16 41 14 16 41 15 17 42 15 16 44 14 16 41 14 16 41 14 16 41 15 17 42 15 17 42 15 17 42 14 16 41 14 16 41 15 17 42 15 17 40 15 17 40 
86 78 29 86 78 29 88 80 31 87 79 30 87 81 33 87 79 32 87 79 32 85 77 30 86 78 31 86 80 32 86 80 32 86 80 32 88 78 29 86 78 31 85 77 30 86 78 31 85 79 31 86 80 32 86 80 32 88 77 31 86 78 31 74 67 21 73 66 20 54 47 18 35 30 10 32 27 8 8 4 3 7 3 2 3 1 2 0 0 0 1 1 1 1 1 1 0 0 0 1 1 1 0 0 0 1 1 1 1 1 1 1 1 1 1 1 1 1 1 1 1 1 1 0 0 0 1 1 1 1 1 3 1 1 1 1 1 3 1 1 3 6 6 16 6 8 20 10 11 29 14 14 40 12 14 37 14 16 41 15 17 42 15 17 42 15 17 42 15 17 40 15 16 44 15 17 42 15 17 42 15 17 42 15 17 42 16 18 43 16 18 43 15 17 42 15 17 40 14 16 39 14 16 39 15 17 42 15 17 42 15 17 40 14 16 37 14 16 39 15 17 38 15 17 40 15 17 42 15 17 42 15 17 42 16 16 40 15 15 41 15 17 42 15 17 42 14 16 39 15 17 42 15 17 42 14 16 39 15 17 40 15 17 40 15 17 42 15 17 40 15 17 42 13 15 38 15 17 40 16 18 43 15 17 42 13 15 38 14 16 39 15 17 42 16 18 43 14 16 41 
86 78 31 84 78 30 86 80 32 85 79 31 86 80 32 86 80 32 85 79 31 86 78 31 85 77 30 87 79 32 85 77 30 87 79 30 85 77 30 85 77 30 85 77 30 87 79 32 86 78 31 85 79 29 85 79 31 86 78 31 86 78 31 73 69 24 73 66 22 54 49 19 33 31 10 33 27 11 6 2 1 7 3 0 2 0 1 1 1 1 1 1 1 1 1 3 1 1 1 3 1 2 0 0 0 3 1 2 0 0 0 1 1 1 1 1 1 1 1 1 0 0 0 0 0 0 1 1 1 0 0 0 1 1 1 1 1 1 1 1 1 7 7 17 8 8 20 10 11 29 14 14 38 15 16 37 15 17 42 15 17 42 16 18 43 15 17 42 17 17 43 14 16 41 15 17 40 15 17 42 16 18 43 15 17 42 16 18 43 16 18 43 15 17 42 15 17 40 14 16 39 13 15 38 15 17 42 15 17 42 15 17 42 13 15 40 14 16 39 15 17 40 15 17 40 15 17 40 14 16 41 15 17 42 15 17 42 15 17 42 15 17 42 15 17 42 16 18 43 16 18 43 15 17 42 14 16 39 14 16 39 14 16 39 15 17 42 14 16 41 14 16 39 14 16 39 15 17 40 16 18 41 15 17 40 13 15 36 14 16 41 15 17 42 15 16 44 15 17 40 
87 79 32 86 80 32 86 78 31 85 77 30 86 78 31 86 78 31 86 80 32 86 80 32 86 80 32 85 79 31 88 77 31 86 78 31 85 77 30 86 78 31 86 78 31 86 78 31 85 77 28 87 79 32 86 78 31 84 77 31 85 77 31 82 74 28 82 74 27 77 70 26 72 64 25 71 61 25 54 45 16 55 44 14 35 30 10 27 24 9 18 15 6 2 0 1 1 1 1 0 0 0 0 0 0 0 0 0 1 1 3 1 1 1 0 0 0 1 1 1 1 1 1 1 1 1 0 0 0 1 1 1 0 0 0 1 1 1 1 1 1 4 3 8 3 3 5 4 3 9 4 4 12 5 5 13 9 11 26 10 12 27 12 14 35 13 15 38 14 14 38 15 17 42 15 17 42 13 17 42 16 18 43 15 17 40 15 17 42 14 15 43 15 17 40 15 17 40 15 17 42 15 17 40 15 17 42 15 17 42 16 18 43 16 18 43 14 16 41 15 17 42 15 17 40 16 18 43 16 16 42 15 17 42 15 17 42 16 18 43 15 17 42 15 17 42 15 17 40 14 16 41 15 17 42 15 16 44 15 17 42 14 16 41 16 18 43 15 17 42 14 16 41 15 17 42 15 17 40 15 17 40 15 17 42 15 17 40 14 16 41 14 16 41 15 17 42 16 18 43 
86 80 32 86 80 30 85 79 31 85 79 31 86 80 30 86 80 30 84 80 32 86 80 32 85 79 31 85 79 31 85 77 30 88 78 29 86 78 31 85 79 29 86 78 31 85 77 31 85 79 29 84 76 30 85 79 31 85 77 30 84 78 30 87 76 30 87 79 30 87 76 30 86 75 30 84 73 28 72 58 19 71 59 19 43 37 13 35 30 11 22 20 7 0 0 0 0 0 0 1 1 1 1 1 1 1 1 1 1 1 1 1 1 1 1 1 1 1 1 1 0 0 2 1 1 1 1 1 0 1 1 1 1 1 1 1 1 3 1 1 1 1 1 1 1 1 1 1 1 3 1 2 6 2 3 7 9 9 21 6 8 20 12 13 33 13 13 37 14 14 38 15 17 42 15 17 40 15 17 40 15 17 42 15 17 42 15 17 42 14 16 41 15 17 40 15 17 40 16 18 43 15 17 40 15 17 42 15 17 42 15 17 42 16 18 39 15 17 40 16 18 43 16 18 43 14 16 41 16 16 40 13 15 40 15 17 42 13 15 40 15 17 42 15 17 42 15 17 42 13 17 42 16 18 41 15 17 40 15 17 42 14 16 39 15 17 40 14 16 39 15 17 42 16 18 41 15 17 42 15 17 40 15 17 40 15 17 42 15 17 42 14 16 39 14 16 39 15 17 40 
86 80 32 86 78 31 86 78 31 85 79 31 85 77 30 86 78 31 87 79 32 85 79 31 85 79 31 86 78 31 86 78 31 86 78 31 86 78 31 86 78 31 85 77 30 86 78 31 85 77 30 85 77 30 86 78 31 85 77 30 85 77 30 85 77 30 86 78 29 87 76 30 85 77 31 84 76 30 78 67 22 77 65 23 61 52 19 54 47 19 43 37 13 26 20 8 23 19 7 10 9 7 10 9 4 2 2 2 1 1 1 0 0 0 1 1 1 1 1 1 1 1 1 1 1 1 1 3 2 0 0 0 2 0 1 1 1 1 0 0 0 0 0 0 1 1 1 1 1 1 1 1 3 1 0 5 2 7 13 6 6 14 8 10 23 10 9 25 10 11 29 12 14 35 13 14 35 15 17 42 16 16 40 15 17 40 15 17 42 15 17 42 15 17 42 15 17 40 15 16 44 14 16 39 15 17 42 15 17 42 15 17 42 14 16 39 15 17 40 15 17 42 16 18 43 16 16 42 15 17 40 15 17 42 14 16 41 15 17 42 14 16 41 14 16 41 14 16 41 16 18 43 15 17 42 15 17 42 14 16 41 15 17 40 14 16 41 14 16 41 15 17 42 15 17 42 14 16 41 15 17 42 14 16 41 14 16 41 14 16 41 13 15 40 14 16 41 14 16 41 
86 80 32 85 79 31 86 80 32 86 80 32 86 78 31 86 78 31 85 77 30 86 80 32 85 79 31 86 78 31 85 77 30 85 77 30 87 79 32 87 79 32 86 78 31 85 77 30 85 77 30 85 77 30 85 77 30 86 78 31 86 78 31 85 77 30 86 79 27 86 78 31 84 78 30 85 77 30 86 78 31 86 78 29 86 75 29 87 76 30 76 67 24 64 54 18 64 54 18 29 23 7 28 25 10 7 6 2 1 1 1 1 1 1 1 1 0 1 1 1 0 0 0 1 1 1 2 0 1 0 0 0 1 1 1 0 0 0 1 1 1 0 0 0 1 1 1 1 1 1 0 0 0 1 1 1 1 1 1 1 1 0 0 1 3 1 0 5 4 4 12 7 8 26 7 8 26 14 16 39 14 16 39 14 16 41 14 16 41 15 17 40 15 17 42 15 17 40 14 16 39 13 15 38 14 16 41 15 17 42 15 17 42 14 16 39 13 15 38 15 17 40 15 17 42 14 16 41 14 16 39 14 16 39 15 17 42 15 17 42 14 16 39 13 15 38 14 16 39 15 17 42 15 17 40 14 16 39 13 15 38 14 16 39 14 16 39 14 16 39 14 16 41 15 17 40 14 16 39 14 16 39 14 16 39 15 17 40 13 15 38 15 17 42 15 17 42 13 15 38 
86 80 32 86 80 32 84 80 32 86 80 32 86 78 31 84 76 29 85 77 30 85 79 31 86 80 32 86 78 31 85 77 30 85 77 30 86 78 31 87 79 32 86 78 31 86 78 31 85 77 30 85 77 30 85 77 30 85 77 30 85 77 30 86 78 29 86 78 31 85 77 30 85 77 30 86 78 31 86 78 31 85 77 30 83 77 27 86 75 29 79 67 25 66 54 14 64 54 18 30 24 10 27 24 9 5 6 1 2 0 1 0 0 0 0 0 0 1 1 3 1 1 1 1 1 1 0 0 0 1 1 0 1 1 0 1 1 3 1 1 1 1 1 1 1 1 1 1 1 3 1 1 1 0 0 0 0 0 0 1 1 1 0 1 3 0 1 3 4 4 12 7 9 24 7 9 24 14 16 39 13 15 36 14 16 41 16 18 43 15 17 42 15 17 40 15 17 40 14 16 39 14 16 39 15 17 40 15 17 42 15 17 42 13 15 40 13 15 38 13 15 38 14 16 39 14 16 41 14 16 39 14 16 39 15 17 42 15 17 42 14 16 39 14 16 39 14 16 39 15 17 40 16 18 43 13 15 38 14 16 37 14 16 39 14 16 39 14 16 39 15 17 40 15 17 42 14 16 39 14 16 37 14 16 39 14 16 39 14 16 37 15 17 40 16 18 43 13 15 38 
84 78 30 84 78 30 86 78 31 85 79 31 87 79 32 86 78 31 85 77 30 85 79 31 85 79 31 86 78 31 86 78 31 85 77 30 86 78 31 85 77 30 86 78 31 85 77 30 86 78 31 85 77 30 86 78 31 86 78 31 85 77 30 84 78 30 85 77 31 87 76 30 86 73 29 85 74 29 85 77 30 86 78 31 86 75 29 85 74 28 84 76 30 86 78 29 86 78 29 86 75 30 86 75 30 71 59 19 66 54 16 50 43 14 30 24 8 30 24 10 1 1 1 0 0 0 0 0 0 1 1 1 0 0 0 1 1 1 2 2 2 1 1 1 1 1 1 0 0 0 1 1 1 0 0 0 1 1 1 1 1 1 0 0 0 1 1 1 0 0 0 0 0 0 1 1 0 2 3 8 2 3 8 5 7 19 9 10 28 10 11 29 13 15 36 14 16 39 16 16 42 15 17 42 13 17 42 15 16 44 15 16 44 15 17 40 15 17 38 15 17 40 15 17 42 15 17 42 14 16 39 15 17 42 15 17 42 14 16 41 15 17 40 15 17 40 16 18 43 14 16 39 14 16 39 15 17 40 15 17 40 16 18 41 15 17 40 14 16 41 14 16 39 13 15 40 15 17 42 14 16 41 15 17 42 15 17 40 15 17 38 12 14 37 13 15 38 15 17 40 
85 77 30 85 77 30 84 78 30 86 80 32 86 78 31 85 77 30 85 77 30 86 80 32 86 80 32 86 78 31 85 77 30 85 77 30 85 77 30 85 77 30 86 78 31 84 76 29 85 77 30 86 78 31 85 77 30 86 78 31 85 77 30 84 78 30 85 77 30 87 76 30 86 75 29 86 75 29 86 78 31 85 77 31 85 74 28 86 75 29 87 76 30 86 78 29 85 79 29 87 74 29 86 75 29 68 58 22 63 53 17 50 43 15 30 24 10 29 23 11 0 0 0 0 0 0 0 0 0 1 1 1 0 0 2 1 1 1 0 0 0 0 0 0 1 1 1 2 2 2 1 1 1 1 1 1 1 1 0 0 0 0 1 1 1 0 0 2 1 1 1 0 2 1 0 2 1 2 3 8 3 4 8 6 8 21 9 11 26 10 11 32 12 14 37 13 15 38 16 16 42 15 17 40 15 17 40 15 17 42 15 17 42 15 17 40 15 17 40 15 17 42 15 17 42 16 16 42 16 18 43 15 17 42 15 17 42 15 17 42 15 17 42 15 17 40 14 16 41 14 16 39 13 15 38 14 16 39 15 17 42 15 17 42 15 17 40 14 16 41 13 15 38 13 15 38 15 16 44 15 17 42 15 17 42 15 17 42 15 17 40 14 16 39 14 16 39 15 17 40 
86 78 31 87 79 32 85 79 31 86 80 32 86 78 31 85 77 30 86 78 31 85 79 31 85 79 31 86 78 31 85 77 30 86 78 31 85 77 30 85 77 30 85 77 30 84 76 29 85 77 30 85 77 30 85 77 30 86 78 31 84 78 30 86 75 29 86 73 29 87 76 30 86 78 29 85 77 30 83 75 28 87 76 30 86 75 29 85 74 29 86 75 30 85 77 31 86 75 29 85 74 29 85 74 29 84 71 26 80 72 26 75 66 27 70 60 25 68 60 24 46 36 9 44 37 11 27 24 9 17 14 7 12 11 6 1 1 1 0 0 0 1 1 1 1 1 1 1 1 3 2 2 2 1 1 1 0 0 0 0 0 0 0 0 0 0 0 0 0 0 0 1 1 1 1 1 1 1 1 3 1 1 3 3 2 7 4 3 8 4 3 11 6 6 18 6 5 19 10 11 31 12 13 34 12 14 37 15 17 42 15 17 40 15 17 40 16 18 41 14 16 41 14 16 41 14 16 41 13 15 38 14 16 39 14 16 41 16 18 43 14 16 37 14 16 39 14 16 39 14 16 39 14 16 39 13 15 38 14 16 39 14 16 39 13 15 38 13 15 40 14 16 41 14 16 39 14 16 39 13 15 40 14 16 41 14 16 39 13 15 38 15 17 42 15 17 40 15 17 40 
85 79 31 86 78 31 86 80 32 85 79 31 86 78 31 86 78 31 85 77 30 86 80 32 85 79 31 86 78 31 85 77 30 86 78 31 85 77 30 86 78 31 85 77 30 86 78 31 86 78 31 86 78 31 85 77 30 85 77 30 85 77 30 86 75 29 85 74 28 85 77 30 85 77 30 86 78 31 85 74 29 86 75 30 86 74 32 86 75 29 87 76 30 84 76 30 87 74 30 86 75 29 85 74 28 85 77 30 86 78 31 84 76 30 80 71 30 81 72 31 59 49 14 58 50 13 36 29 10 22 20 7 17 14 5 1 1 1 2 2 2 0 0 0 0 1 0 1 1 1 0 0 0 1 1 1 1 1 1 0 0 0 1 1 1 1 1 1 1 1 1 1 1 1 0 0 0 0 0 0 0 0 0 0 0 0 1 1 1 1 1 3 4 2 13 2 2 10 8 9 27 10 11 31 11 13 36 15 17 40 13 15 38 16 18 41 15 17 42 14 16 41 13 15 40 14 16 39 13 15 38 13 15 36 15 17 42 15 17 40 15 17 40 13 15 38 14 16 39 15 17 40 15 17 42 13 15 40 14 16 39 14 16 37 13 15 38 15 17 40 14 16 41 15 16 44 14 16 39 13 15 38 13 15 38 14 16 39 14 16 39 15 17 42 15 17 42 14 16 39 
86 80 32 85 79 31 85 79 31 87 79 32 85 77 30 85 77 30 86 78 31 84 78 30 85 79 31 85 77 30 85 77 30 85 77 30 86 78 31 86 78 31 85 77 30 85 77 30 86 78 31 86 78 31 85 77 30 86 78 31 85 79 29 87 76 31 84 76 29 86 78 31 85 77 28 85 77 30 85 74 28 86 75 29 86 75 30 86 75 30 87 76 31 86 74 32 86 75 29 85 74 29 86 75 29 84 76 29 84 78 28 84 76 30 82 74 28 83 71 29 68 59 20 68 59 20 55 46 17 43 37 15 40 33 14 20 17 8 20 17 8 9 8 4 5 6 0 5 4 2 1 1 3 0 0 0 2 0 1 1 1 1 2 2 2 1 1 1 0 0 0 1 1 1 2 2 2 1 1 3 1 1 1 1 1 0 1 1 1 1 1 3 4 3 8 3 3 5 7 7 17 8 8 20 7 9 24 10 11 29 12 10 31 16 17 38 14 16 39 14 16 41 14 16 41 14 16 39 14 16 39 15 17 40 15 17 40 14 16 41 15 17 42 14 16 39 14 16 37 14 16 41 15 17 42 15 17 40 14 16 39 13 15 38 14 16 39 14 16 39 15 17 42 15 17 42 13 15 38 13 15 38 14 16 39 14 16 39 14 16 37 15 17 40 14 16 41 15 17 42 
86 80 32 86 78 31 86 78 31 82 78 30 85 77 30 85 79 31 86 78 31 85 77 30 83 77 29 86 78 31 85 77 30 85 77 30 83 77 29 85 77 30 85 77 30 85 77 30 84 76 29 83 77 29 85 79 31 88 77 31 85 77 30 84 76 29 85 77 31 86 78 31 85 77 30 85 79 31 85 74 29 86 75 30 85 77 30 85 77 30 85 77 30 86 75 30 85 74 28 85 74 28 86 75 30 86 75 29 86 74 32 86 75 30 86 75 29 87 76 30 86 75 29 86 75 29 83 72 27 80 68 26 74 65 24 53 46 18 55 48 22 21 19 6 16 13 6 6 7 2 0 0 0 0 0 0 0 0 0 1 1 1 0 0 0 0 0 0 1 1 1 2 2 2 1 1 1 0 0 0 1 1 1 1 1 1 0 0 0 0 0 0 1 1 1 0 0 0 0 0 0 1 1 1 2 3 7 5 5 15 4 6 18 12 13 33 11 14 31 13 15 38 14 16 39 14 16 41 15 17 40 16 18 43 13 15 38 14 16 39 14 16 41 15 17 42 14 16 41 13 15 38 14 16 39 14 16 41 15 17 42 14 16 39 14 16 39 14 16 39 14 16 39 14 16 37 14 16 41 15 17 40 14 16 39 13 15 38 14 16 39 13 15 38 13 15 38 15 17 40 
85 79 31 84 78 30 85 79 31 87 76 30 85 79 31 86 78 31 87 79 32 85 77 30 85 77 30 84 76 29 85 77 30 84 76 29 85 77 30 85 77 30 85 77 30 85 77 30 84 76 29 85 77 30 84 78 30 85 77 30 84 78 30 85 77 30 85 77 30 84 76 30 84 78 30 85 77 30 83 75 28 86 73 28 85 77 30 85 77 30 86 75 29 86 75 29 87 74 29 86 75 29 87 76 30 86 75 29 86 75 30 86 75 30 86 75 29 85 74 28 87 76 30 85 74 28 82 71 26 80 69 24 77 65 27 53 46 20 54 47 21 21 18 9 16 13 6 8 7 3 0 2 1 0 0 0 1 1 1 0 0 0 1 1 1 0 0 0 0 0 0 0 0 0 1 1 1 1 1 3 0 0 0 0 0 0 1 1 1 1 1 1 0 0 0 0 0 0 1 1 1 1 1 0 2 3 8 5 5 17 4 6 18 12 13 31 13 14 32 13 15 38 14 16 41 13 17 42 16 18 43 15 17 40 14 16 41 14 16 39 14 16 41 14 16 41 14 16 41 14 16 39 14 16 39 15 17 40 15 17 40 14 16 39 13 15 38 13 15 38 13 15 38 13 15 38 15 17 42 15 17 42 14 16 39 14 16 39 13 15 38 14 16 39 12 14 37 15 17 40 
85 77 30 85 77 28 85 79 31 86 78 31 85 79 31 85 77 30 84 78 30 83 77 29 85 77 30 85 77 30 85 77 30 85 77 30 84 78 30 82 78 30 85 77 30 85 77 30 85 77 30 85 77 30 85 77 30 85 74 28 86 73 28 86 75 29 87 76 30 86 75 30 86 75 30 86 73 29 85 77 30 86 78 31 85 74 28 85 74 28 85 74 28 86 75 29 85 74 29 86 75 30 85 74 28 87 76 31 85 74 29 84 73 28 85 74 28 85 74 28 86 75 29 85 74 28 85 74 29 85 74 29 85 74 28 85 74 29 86 75 29 81 67 28 80 65 24 65 52 18 49 39 12 45 38 10 17 13 4 17 14 7 5 4 0 0 0 0 1 1 1 1 1 1 1 1 1 0 0 0 1 1 1 0 0 0 1 1 1 1 1 1 0 0 0 1 1 1 1 1 3 1 1 1 0 0 0 1 1 1 0 0 0 1 1 1 1 1 1 6 6 16 6 8 20 7 9 24 12 14 37 11 13 34 15 17 40 16 18 41 14 16 41 14 16 39 14 16 39 14 16 39 13 15 38 14 16 39 13 15 38 14 16 39 15 17 42 14 16 39 13 15 38 13 15 38 14 16 39 12 14 37 13 15 40 16 18 41 15 17 42 13 15 38 14 16 39 13 15 38 
84 76 29 86 78 31 87 79 32 86 78 32 85 79 31 85 77 30 85 77 30 84 78 30 85 77 30 85 77 30 84 76 29 84 76 29 84 78 30 84 78 30 84 76 29 85 77 30 85 77 30 85 77 30 84 76 29 86 75 29 87 74 29 85 74 29 86 73 29 85 74 29 85 74 29 86 75 29 87 76 30 84 76 29 86 75 29 86 75 30 86 75 29 85 74 28 86 75 30 85 74 29 86 75 30 86 75 30 86 75 30 85 74 29 86 75 29 86 75 29 85 74 28 86 75 29 85 74 29 85 74 29 86 75 30 85 74 29 86 75 30 82 67 26 79 64 23 65 52 18 50 41 12 45 38 12 16 13 6 16 13 6 4 4 2 1 1 1 0 0 0 0 0 0 0 0 0 0 0 0 0 0 0 0 0 0 2 2 2 0 0 0 1 1 0 1 1 1 1 1 1 1 1 1 1 1 1 0 0 0 1 1 3 1 1 3 1 1 3 6 6 16 8 8 20 8 10 25 13 14 35 12 12 36 15 17 42 15 17 40 14 16 41 14 16 41 14 16 39 12 17 39 14 16 39 13 15 38 13 15 38 15 17 42 15 17 42 14 16 39 14 16 39 14 16 39 14 16 39 14 16 39 14 16 41 15 17 40 15 17 42 14 16 39 13 15 38 14 16 39 
84 78 30 85 79 29 85 77 30 85 77 30 86 78 31 85 79 31 85 77 30 84 76 29 85 77 30 84 76 29 85 77 30 85 77 30 84 76 29 85 77 30 85 77 30 85 77 30 85 77 30 85 77 30 86 78 31 84 76 29 84 76 29 86 75 30 86 75 30 86 75 29 84 76 30 84 76 29 87 76 30 86 75 29 86 75 29 86 75 29 85 74 28 86 75 29 86 75 30 85 74 29 85 74 28 85 74 29 85 74 29 85 74 29 87 74 29 87 74 30 86 73 29 86 73 28 85 74 29 86 75 30 84 76 30 85 74 28 86 75 29 84 71 27 85 72 28 78 66 26 72 63 24 69 59 23 55 46 17 53 43 16 36 29 10 31 25 9 23 16 6 7 6 2 6 5 1 1 1 3 1 1 1 1 1 1 1 1 1 0 0 0 1 1 1 1 1 0 1 1 1 1 1 1 1 1 1 0 0 2 0 0 0 0 0 0 1 1 1 3 3 5 3 4 8 4 5 10 5 5 15 6 6 16 11 12 32 10 12 27 12 14 35 11 16 38 13 15 38 14 16 39 14 16 39 13 15 36 13 15 38 13 15 38 14 16 41 14 16 39 13 15 38 13 15 38 12 14 37 14 16 39 13 15 38 14 16 39 15 17 40 14 16 39 13 15 38 14 16 39 
84 78 30 84 78 30 85 77 31 85 77 30 85 77 30 86 80 32 86 78 31 83 77 29 84 78 30 84 76 29 84 76 29 84 78 30 85 77 30 85 77 30 85 77 30 85 77 30 83 75 28 84 76 29 86 78 31 84 76 29 85 77 30 86 73 29 85 74 29 86 75 30 85 77 30 85 77 30 85 74 28 85 74 29 85 74 28 85 74 29 86 75 29 86 75 29 86 75 30 86 75 30 85 74 29 85 74 29 85 74 29 85 74 29 85 74 28 85 74 29 86 75 30 85 74 28 85 74 29 86 75 30 86 75 30 87 74 29 83 75 29 85 74 29 86 73 28 82 74 28 86 75 29 83 72 27 76 62 23 77 63 26 56 45 15 50 40 13 34 29 9 12 8 5 10 9 5 1 1 1 0 0 0 1 1 1 0 0 0 1 1 1 1 1 1 0 0 0 0 0 0 1 1 1 0 0 0 0 0 0 0 1 0 0 0 0 0 0 0 1 1 1 1 1 1 1 1 1 2 1 6 1 1 3 8 10 25 7 9 24 11 13 36 14 16 37 13 15 40 13 15 40 13 15 38 13 15 38 13 15 38 13 15 38 12 14 37 13 15 38 13 15 38 13 15 38 14 16 39 14 16 39 13 15 38 14 16 39 14 16 39 14 16 39 13 15 38 13 15 36 
84 78 30 87 79 32 85 77 30 85 79 31 84 78 30 86 78 31 85 77 30 84 76 29 84 76 29 84 76 29 84 76 29 86 78 31 85 77 30 85 77 30 85 77 30 84 76 29 84 76 29 84 76 29 84 76 29 83 75 28 85 77 30 86 75 30 86 73 29 84 76 30 85 77 30 85 77 30 85 74 29 85 74 29 85 74 29 86 75 30 86 75 30 87 76 31 85 74 29 85 74 29 85 74 29 86 75 30 85 74 29 85 74 29 87 76 30 85 74 29 85 74 29 86 75 29 85 74 29 85 74 29 85 74 29 85 72 30 86 75 29 85 74 29 86 73 29 85 73 31 86 76 27 84 73 28 79 66 24 78 66 24 63 53 17 57 48 19 44 38 12 26 22 10 26 23 8 9 8 4 9 8 3 5 4 2 2 0 1 1 1 0 1 1 1 0 0 0 1 1 1 0 0 0 1 1 1 0 0 0 1 1 1 1 1 1 1 1 1 1 1 1 0 0 0 1 1 1 2 1 6 1 1 1 7 7 19 7 7 19 9 11 26 10 13 32 12 13 33 13 15 38 13 15 38 14 16 39 13 15 38 13 15 38 14 16 39 14 16 39 13 15 38 13 15 38 14 16 39 14 16 39 14 16 39 12 14 37 13 15 38 13 15 38 13 15 38 13 15 36 
84 76 29 85 77 30 84 77 31 85 79 31 84 78 30 85 77 30 82 76 28 83 77 29 85 77 30 85 77 30 86 78 31 85 77 30 85 74 28 84 78 30 85 77 30 85 77 30 84 76 29 84 73 27 83 75 28 84 78 30 84 76 29 83 75 28 86 73 29 84 76 30 85 77 30 84 76 29 85 74 29 85 74 29 84 76 30 84 76 29 86 75 30 85 74 29 85 74 28 85 74 29 84 76 30 84 76 30 86 75 29 85 74 29 83 75 28 83 75 29 83 75 29 83 75 28 85 74 29 85 74 28 85 74 29 86 75 30 86 73 28 83 72 27 84 71 27 86 73 29 85 74 29 83 75 29 85 74 28 85 74 29 82 74 28 86 73 29 81 70 25 72 65 23 72 65 23 35 30 11 36 29 11 20 13 5 8 3 0 5 4 2 0 0 0 1 1 1 0 0 0 0 0 0 1 1 1 1 1 1 1 1 1 1 1 1 1 1 1 1 1 1 0 0 0 1 1 1 1 1 1 1 0 0 1 1 1 0 0 0 2 1 7 3 4 9 5 5 17 10 11 31 9 12 31 13 15 36 14 16 39 13 15 38 14 16 39 14 16 39 13 15 38 13 15 38 16 18 41 15 17 42 14 16 39 14 16 39 13 15 36 14 16 39 13 15 38 13 15 38 
85 77 30 85 77 30 84 78 30 84 78 30 85 77 30 84 76 29 85 77 30 85 77 30 84 76 29 84 76 29 85 77 30 84 76 29 86 78 29 85 77 30 85 77 30 85 77 30 85 74 28 86 75 30 85 77 31 84 76 29 85 77 30 85 74 28 83 75 29 86 75 29 84 76 29 85 77 30 85 74 29 83 75 29 83 76 30 84 78 30 83 77 29 82 74 27 83 75 29 85 74 29 85 74 29 86 75 30 86 75 29 85 74 28 85 74 28 86 75 29 85 74 29 85 74 29 85 74 29 85 74 29 85 74 29 85 74 29 86 75 30 85 70 27 85 70 27 84 71 27 85 74 29 86 75 30 85 74 29 86 75 30 84 76 30 87 72 29 78 71 29 72 65 21 70 66 21 36 29 13 36 29 11 18 13 7 7 3 4 5 4 2 1 1 1 0 0 2 1 1 1 2 2 4 1 1 1 1 1 0 1 1 0 2 0 1 1 1 1 1 1 1 1 1 1 0 0 0 1 1 1 0 0 0 1 1 0 1 1 1 0 1 6 3 3 11 4 4 14 11 12 30 10 11 29 11 16 36 14 16 41 13 15 38 14 16 39 13 15 36 13 15 38 14 16 39 15 15 39 17 17 41 14 16 39 12 17 37 12 17 39 12 17 39 14 16 39 13 15 38 
85 79 31 85 79 31 83 77 29 85 77 30 85 77 30 86 78 31 84 76 29 85 77 30 84 76 29 85 77 30 85 77 30 84 76 29 86 75 29 85 74 29 84 76 29 83 75 29 84 76 29 84 76 29 85 77 30 84 76 29 84 73 28 84 76 30 84 76 30 86 75 29 86 75 29 86 75 29 85 74 28 84 76 30 86 75 29 86 75 30 85 74 28 86 75 30 85 74 28 85 74 29 84 73 28 85 74 29 86 75 30 85 74 28 84 73 27 85 74 29 85 74 29 84 76 30 85 73 31 86 73 29 85 74 29 85 74 29 87 74 30 85 72 28 86 73 29 85 72 28 84 71 27 85 72 28 85 74 29 85 74 28 85 72 27 85 70 27 83 72 27 84 73 28 85 74 28 79 65 26 78 64 25 68 55 20 63 50 16 52 43 14 23 19 8 23 21 8 4 2 3 0 0 0 1 1 0 0 0 0 0 0 0 2 0 1 0 0 0 1 1 1 0 0 2 0 0 0 0 0 0 1 1 1 1 1 0 1 1 1 1 1 3 1 1 1 0 2 1 2 3 7 2 2 4 5 7 20 6 8 20 9 10 28 12 14 37 13 15 36 13 15 38 13 15 36 13 15 40 14 16 41 13 15 38 13 15 38 13 15 38 13 15 38 13 15 36 13 15 38 
85 79 31 85 79 31 85 77 30 84 76 29 85 77 30 84 76 29 84 76 29 84 76 29 86 78 31 85 77 30 84 76 29 84 76 29 84 73 28 83 75 28 84 76 30 85 77 30 84 76 29 84 76 30 84 76 29 85 74 29 85 74 29 85 77 30 84 76 29 84 76 29 84 73 28 85 74 29 85 73 31 85 74 29 85 74 28 85 74 28 84 72 30 84 73 28 84 73 28 85 74 28 85 74 29 86 75 30 85 74 29 84 73 28 85 74 29 85 74 29 85 74 29 86 75 30 85 74 29 85 74 29 85 74 29 85 74 29 86 73 29 84 73 28 86 75 30 84 73 28 84 71 27 85 70 27 86 73 29 85 74 29 85 71 26 84 69 28 84 71 29 85 74 29 85 74 29 84 69 28 84 71 29 75 62 20 70 58 18 59 48 16 27 24 7 27 24 9 4 5 0 1 1 1 0 0 0 1 1 1 1 1 1 1 1 1 1 1 1 1 1 1 0 0 0 1 1 1 1 1 1 1 1 1 1 1 1 1 1 1 1 1 1 1 1 1 0 0 0 1 1 1 0 0 0 3 6 15 3 5 17 7 8 26 11 13 34 12 14 37 14 16 37 14 16 39 13 15 38 12 14 37 14 16 39 14 16 39 13 15 38 14 16 39 13 15 38 13 15 38 
82 78 30 85 77 30 84 76 29 84 76 29 84 76 29 84 76 29 85 77 30 84 76 29 84 76 29 85 77 30 84 76 29 84 76 29 85 74 29 84 76 29 84 78 30 85 77 30 84 76 29 84 76 30 85 74 28 84 73 28 85 72 28 83 76 30 84 76 29 83 75 28 84 73 28 84 73 28 86 75 30 86 75 30 85 74 29 84 73 28 85 74 29 83 72 27 85 74 29 85 74 29 86 75 30 84 73 28 84 73 28 85 74 29 84 73 28 85 74 29 86 75 30 86 73 29 85 72 28 85 72 28 84 73 28 84 73 28 86 73 29 85 72 28 85 72 28 83 72 27 84 73 28 85 72 28 84 72 30 85 72 28 84 73 28 84 71 29 85 72 28 83 72 27 85 72 30 84 69 26 84 69 26 80 67 25 77 66 21 70 61 22 55 46 17 56 47 18 33 28 9 29 23 7 21 17 8 12 8 5 10 9 4 1 1 1 0 0 0 0 0 0 1 1 1 1 1 1 0 0 0 1 1 1 1 1 1 1 1 1 1 1 1 1 1 1 1 1 1 0 0 0 1 1 1 3 4 9 2 3 8 5 5 15 7 6 20 7 9 24 10 11 31 9 12 31 14 15 36 13 15 38 14 16 37 14 16 39 13 15 38 11 16 38 14 16 39 12 14 37 
