P3
100 50
255
16 20 57 16 20 57 16 20 57 15 19 56 15 19 56 15 19 56 15 19 54 15 19 57 16 20 55 15 19 56 16 20 55 15 19 54 16 21 59 18 23 63 21 25 70 37 41 104 37 41 104 45 49 122 45 53 126 45 52 124 46 50 121 44 48 121 29 32 83 31 33 84 21 24 67 17 20 55 15 21 57 17 22 54 16 19 54 20 23 66 20 25 67 29 34 89 40 43 110 40 45 109 46 52 128 47 53 127 46 50 121 42 47 115 37 41 102 26 30 75 27 31 78 15 19 54 16 20 55 17 19 57 16 20 55 20 23 64 28 31 82 28 32 80 43 47 118 46 50 123 47 51 125 47 53 127 47 51 124 37 41 102 36 40 103 24 26 74 19 23 61 18 22 60 15 19 54 14 18 53 20 25 65 20 25 67 33 36 91 39 43 106 40 45 113 48 51 128 49 53 127 43 46 115 43 48 116 31 37 89 27 29 77 23 26 71 16 20 57 16 20 57 17 21 56 16 20 57 16 20 55 15 19 56 17 21 58 17 21 58 16 20 57 16 20 57 16 20 57 16 20 57 16 20 57 16 20 57 17 19 57 16 20 57 16 20 57 16 20 57 16 20 57 16 20 57 16 20 57 16 20 57 16 20 57 16 20 57 16 20 57 16 20 57 16 20 57 16 20 57 
16 20 57 15 19 56 16 20 57 16 20 57 15 19 54 15 19 56 17 21 58 16 20 55 15 19 56 16 20 55 15 19 56 16 20 57 14 20 54 15 19 54 16 20 55 18 22 60 20 22 61 32 35 90 35 39 100 40 43 110 48 52 126 46 53 125 47 49 124 44 50 124 37 41 102 32 35 90 28 32 80 17 21 58 17 21 58 16 20 55 16 20 57 18 22 59 20 23 64 22 26 73 37 43 105 38 42 103 43 50 120 47 53 127 47 51 124 44 48 119 44 48 119 29 32 83 28 32 80 21 26 66 17 20 55 16 20 57 16 20 55 15 19 54 25 29 76 26 30 77 37 39 100 44 48 119 44 48 119 49 53 127 45 51 125 41 44 111 39 43 107 32 35 90 21 24 65 21 24 65 17 20 55 15 20 52 17 21 58 19 22 63 23 27 74 37 41 104 37 41 104 49 52 129 48 51 128 46 49 126 44 48 119 40 45 111 27 31 78 31 33 81 18 22 59 16 20 58 16 21 53 16 20 55 16 20 57 16 20 57 16 20 57 17 21 58 16 20 57 16 20 57 16 20 57 16 20 57 16 20 57 16 20 57 16 20 57 17 19 57 16 20 57 16 20 57 16 20 57 16 20 57 16 20 57 16 20 57 16 20 57 16 20 57 16 20 57 17 19 57 
16 20 57 16 20 57 15 19 56 16 20 57 15 19 56 15 19 56 15 19 54 16 19 54 15 19 56 16 20 55 15 19 54 15 19 56 15 19 54 15 19 54 15 19 56 18 21 62 18 21 62 30 35 90 35 40 98 40 44 108 49 53 127 48 51 128 46 50 124 47 51 122 36 40 101 33 34 88 26 32 80 18 22 60 16 22 58 15 19 54 16 21 53 17 22 60 20 23 66 22 27 69 38 42 105 38 42 105 46 50 123 46 52 128 46 53 125 45 49 122 45 49 120 26 32 80 29 30 84 22 25 66 16 20 57 16 20 55 17 19 57 16 20 55 25 29 76 26 30 77 34 39 95 44 48 119 45 49 120 47 53 127 49 53 127 42 45 112 39 43 107 31 36 92 19 24 64 19 24 64 16 21 53 13 19 53 17 21 58 19 21 62 24 29 71 40 42 103 37 41 102 50 54 128 50 54 128 46 50 121 44 49 117 42 43 108 27 31 78 27 31 79 18 22 59 17 20 55 16 20 57 16 20 57 16 20 57 16 20 57 16 20 57 17 21 58 16 20 57 16 20 57 16 20 57 16 20 57 17 19 57 16 20 57 16 20 57 16 20 57 16 20 57 16 20 57 16 20 57 16 20 57 16 20 57 16 20 57 16 20 57 16 20 57 16 20 57 16 20 57 
16 20 55 16 19 54 15 19 54 17 20 55 15 19 54 17 20 55 16 20 55 16 19 54 17 19 57 16 20 57 17 21 59 17 21 59 16 20 58 16 20 57 17 21 56 16 20 57 16 20 58 22 27 67 25 29 74 30 33 86 41 42 106 39 43 104 47 51 124 45 51 125 43 48 116 42 45 112 36 42 102 26 32 80 27 30 81 18 22 60 16 20 57 18 22 59 17 21 58 19 23 61 26 30 77 28 30 78 36 40 103 41 45 109 40 47 117 45 52 124 45 51 125 38 43 107 40 44 108 31 34 87 26 29 74 22 27 67 16 20 57 16 20 57 19 23 61 20 24 62 27 29 77 31 36 91 34 36 93 43 50 120 45 50 118 45 49 122 45 49 120 40 45 109 32 37 93 32 37 95 19 22 63 19 23 61 19 23 61 16 20 57 18 23 63 26 30 77 26 30 78 39 44 108 40 45 109 44 48 119 45 52 124 45 49 122 38 42 106 38 44 106 25 29 76 24 28 73 21 25 62 15 19 56 16 20 57 17 21 56 16 20 55 16 20 55 16 20 57 16 20 57 16 20 57 16 20 57 16 20 57 16 20 57 16 20 57 17 19 57 16 20 57 16 20 57 16 20 57 16 20 57 16 20 57 16 20 57 17 19 57 17 19 57 16 20 57 16 20 57 
15 20 52 16 21 53 16 19 54 16 19 54 15 19 54 16 19 54 15 19 54 16 19 54 16 20 57 16 20 57 18 22 59 18 22 59 17 21 58 17 19 57 17 21 56 16 19 54 15 19 54 17 21 58 17 21 59 23 27 72 34 37 92 32 37 93 45 51 125 47 51 125 47 51 125 48 52 126 43 48 116 33 38 94 33 40 95 19 24 64 17 21 59 16 20 57 15 19 54 16 20 55 20 22 61 18 22 60 30 35 90 35 40 98 39 44 108 47 53 127 48 52 126 46 50 123 46 50 123 35 40 98 31 32 86 26 30 78 17 19 57 17 20 55 16 20 55 16 19 54 20 24 62 24 29 71 26 30 77 42 47 115 42 47 113 47 51 125 48 52 126 44 51 123 40 45 109 40 45 111 20 25 67 20 24 69 17 21 59 15 20 52 17 21 58 19 23 61 19 22 63 36 41 99 36 41 99 44 48 119 46 52 126 48 52 126 44 48 119 44 48 121 29 35 87 30 34 82 22 27 69 15 19 54 16 20 55 16 20 55 16 20 57 17 19 57 16 21 53 17 21 58 16 20 57 16 20 57 16 20 57 16 20 57 16 20 57 16 20 57 16 20 57 16 20 55 16 20 57 16 20 57 16 20 57 16 20 57 16 20 57 16 20 57 16 20 57 16 20 57 
16 20 57 16 20 57 16 20 57 18 22 60 17 22 60 20 24 62 22 27 67 21 24 67 26 29 72 24 28 75 27 31 79 27 31 79 26 30 77 24 28 73 23 28 70 16 20 57 16 20 57 17 21 58 17 21 59 20 25 67 25 31 79 28 30 78 41 45 109 41 44 111 45 50 118 47 51 122 44 51 123 39 43 107 38 43 107 27 31 79 25 29 74 22 24 65 16 20 57 16 20 57 17 21 58 18 22 59 25 29 76 28 34 86 33 38 96 42 47 115 43 48 114 48 52 125 46 50 123 40 43 110 35 40 98 32 38 90 22 25 68 23 26 69 17 21 58 16 20 55 19 23 61 22 26 64 23 26 69 33 39 99 34 39 97 42 47 115 45 49 120 45 49 120 44 49 117 43 48 116 28 34 86 29 32 85 22 25 68 19 23 61 18 22 59 17 21 59 15 21 57 29 32 83 27 33 83 38 42 105 43 47 118 44 48 119 46 50 123 46 50 123 36 41 99 35 40 96 27 33 81 22 25 68 21 24 65 17 21 56 15 19 56 16 20 55 16 20 55 16 20 57 16 20 57 16 20 57 16 20 57 16 20 57 16 20 55 16 20 57 16 20 57 16 20 55 16 20 57 16 20 57 16 20 57 16 20 57 16 20 57 16 20 57 16 20 57 16 20 57 
16 20 57 17 21 59 18 22 60 20 24 69 21 25 72 27 29 78 32 35 90 34 37 90 37 39 100 36 41 99 40 43 110 42 45 112 38 42 105 34 41 96 32 37 93 19 23 61 18 22 60 17 19 57 15 19 56 16 20 57 16 20 57 17 21 58 31 34 85 33 34 90 39 44 110 46 50 123 46 50 124 46 52 128 48 51 128 37 41 102 35 40 98 27 31 79 19 23 61 18 22 60 16 19 54 17 20 55 17 21 59 19 23 61 24 28 75 33 38 93 33 38 94 48 52 125 48 52 125 47 51 124 47 51 125 43 48 116 32 35 90 31 36 91 17 22 62 16 21 59 16 20 57 16 19 54 17 21 56 18 25 71 22 26 71 35 40 98 40 45 109 43 47 118 46 52 128 48 51 128 41 46 112 41 46 112 32 33 87 24 26 74 21 24 67 16 21 53 17 20 55 17 21 59 17 21 59 28 31 82 34 39 95 36 42 102 49 53 127 46 53 125 46 50 124 46 50 123 38 42 105 30 33 84 29 32 83 16 20 57 17 21 58 16 20 55 16 20 55 17 20 55 16 20 55 16 20 55 16 20 57 16 20 57 16 20 57 16 20 57 16 20 58 16 20 55 17 19 57 16 20 57 17 19 57 16 20 57 16 20 57 17 19 57 16 20 57 17 19 57 
16 20 57 19 23 60 18 22 60 20 25 67 21 25 70 26 30 78 32 35 90 33 36 89 37 41 102 36 40 101 40 44 108 40 43 112 38 42 105 33 38 94 32 37 92 19 23 61 18 21 62 17 21 58 16 20 55 16 20 57 17 21 58 16 20 58 31 34 85 31 34 85 41 44 111 45 49 122 47 51 125 47 53 131 48 52 126 37 41 102 36 41 99 28 32 80 19 23 61 19 23 61 15 19 54 17 20 55 16 21 59 19 23 60 24 28 73 35 38 93 33 38 94 48 52 126 48 52 126 46 52 126 47 51 125 42 47 115 33 36 91 31 37 89 18 21 62 16 22 58 16 20 57 16 19 54 17 22 54 20 24 69 21 25 70 35 40 98 41 44 111 43 48 116 46 52 126 46 52 128 41 46 112 41 46 112 32 34 85 24 27 68 21 25 63 17 20 55 15 19 54 17 21 59 17 22 60 28 31 82 34 39 97 38 44 104 47 53 127 48 52 125 46 50 123 46 50 123 37 41 102 30 33 86 27 33 83 16 20 57 17 21 58 16 20 57 17 19 57 16 20 58 16 20 55 16 20 55 16 20 55 16 20 57 16 20 57 16 20 57 16 20 57 16 20 57 16 20 57 16 20 57 17 19 57 16 20 57 16 20 57 17 19 57 16 20 57 16 20 57 
37 41 102 42 45 112 41 46 112 45 49 123 46 50 121 47 51 124 48 51 128 48 52 126 46 52 126 46 52 126 46 52 128 46 52 126 46 52 126 46 52 126 47 51 125 40 45 109 39 44 110 26 30 78 20 25 65 18 24 60 15 19 54 15 20 52 16 20 57 16 20 55 23 27 72 28 32 80 33 36 91 44 48 121 42 49 119 48 52 126 48 51 128 44 47 116 38 42 105 38 40 99 21 26 66 19 24 64 17 21 56 16 20 55 16 20 57 17 21 56 16 20 58 33 36 91 31 36 91 41 46 112 47 51 124 48 52 126 47 51 124 46 52 126 35 39 100 33 38 94 24 28 76 17 21 59 17 21 58 15 19 54 15 20 52 20 23 64 20 25 67 28 31 84 39 43 106 38 42 106 48 52 126 49 53 127 45 49 120 42 47 115 38 42 106 26 29 74 26 29 74 15 19 56 17 19 57 16 20 55 17 21 59 21 24 65 33 36 91 30 37 91 45 49 120 46 50 123 45 51 125 47 51 124 45 49 120 31 36 91 32 35 88 20 23 64 17 21 58 17 21 58 16 20 57 16 20 57 16 20 55 16 20 55 16 20 55 16 20 55 16 20 55 16 20 57 16 20 57 16 20 57 16 20 57 16 20 57 16 20 57 16 20 57 16 20 57 16 20 57 
37 41 104 43 46 113 40 45 111 46 49 120 45 49 120 48 52 126 48 52 126 46 52 126 46 52 126 46 52 126 46 52 126 46 52 126 48 52 126 46 52 128 45 52 124 40 45 109 40 45 111 24 30 78 20 24 69 19 23 61 16 20 55 15 20 52 16 20 57 16 20 57 24 28 73 28 32 80 34 37 92 44 49 117 44 48 121 48 52 125 49 52 129 42 47 115 38 42 106 36 41 99 19 24 64 19 24 62 17 21 58 15 19 56 15 19 54 16 20 57 16 20 58 33 36 89 31 36 91 41 46 110 47 51 124 48 52 126 47 51 125 48 52 126 35 40 98 33 38 94 24 31 77 16 21 59 17 21 58 15 19 54 16 19 54 19 22 63 21 24 67 28 31 82 39 43 107 39 43 107 46 52 126 47 54 126 46 49 120 42 47 115 39 43 107 26 29 74 26 29 74 16 20 55 16 20 57 17 21 58 17 21 59 21 24 67 33 36 91 33 36 91 45 49 120 47 51 124 47 51 124 46 50 123 45 49 120 31 36 91 31 36 91 20 25 65 16 20 57 17 21 58 17 21 58 16 20 57 16 20 57 16 20 55 16 20 55 16 20 55 16 20 55 16 20 55 16 20 57 16 20 57 16 20 57 16 20 57 16 20 57 16 20 57 16 20 57 16 20 57 
43 47 120 45 49 120 44 48 121 42 46 117 43 48 116 43 48 116 41 44 111 41 44 111 37 41 102 37 41 102 37 41 102 37 41 102 41 44 111 46 50 123 46 50 123 45 49 120 46 50 121 36 40 103 30 35 91 28 31 82 19 22 63 20 23 64 15 19 54 17 20 55 19 23 60 20 25 65 24 28 73 33 38 94 32 37 93 44 49 117 45 49 120 44 48 119 44 49 117 42 47 115 31 36 91 31 36 91 23 26 69 20 23 64 18 22 60 16 20 57 15 19 54 22 27 69 22 27 69 29 35 87 36 40 101 39 43 107 46 50 123 46 50 123 43 48 116 42 47 115 35 40 98 29 32 85 27 31 78 17 21 59 18 22 59 18 20 58 17 21 56 21 24 65 28 32 80 27 31 79 40 45 111 42 45 112 43 47 118 47 51 124 44 48 119 37 41 104 36 40 103 24 27 70 24 27 70 19 23 61 16 20 55 17 21 58 22 27 69 22 27 67 34 39 97 36 40 101 40 45 113 43 49 123 44 48 121 41 46 114 40 45 111 32 35 90 27 31 79 24 27 72 17 21 58 17 21 58 16 20 57 16 20 57 16 20 55 16 20 55 16 20 55 16 20 55 16 20 57 16 20 57 16 20 57 16 20 57 16 20 57 16 20 57 16 20 57 16 20 57 
48 52 126 44 51 123 46 50 124 43 47 118 43 48 114 39 44 108 39 41 102 38 40 101 31 34 85 31 34 87 31 34 87 30 33 86 37 41 104 44 48 119 44 48 119 46 52 126 46 52 126 42 45 114 40 44 108 31 36 94 20 25 67 21 24 67 17 20 55 17 20 55 17 20 55 16 20 57 19 22 63 25 29 76 27 29 78 40 45 111 43 47 118 46 50 123 46 52 128 48 52 125 40 44 108 39 43 107 25 29 77 20 24 69 19 23 61 16 21 53 15 19 54 17 21 58 16 20 57 26 29 74 31 34 87 32 37 93 47 50 121 46 48 122 48 52 126 46 52 128 41 46 110 34 39 97 32 37 93 18 22 60 19 23 61 17 19 57 17 20 55 16 20 58 19 22 63 19 22 63 37 41 104 37 41 102 43 47 118 49 53 127 47 51 124 45 49 120 45 49 120 27 31 79 27 31 79 20 23 64 16 20 55 16 20 57 15 21 57 17 19 57 29 33 81 31 34 89 38 42 105 44 51 123 44 50 124 48 52 125 48 52 126 38 42 105 33 38 94 28 31 82 17 21 59 17 21 58 16 20 57 16 20 57 15 19 54 16 21 53 16 20 55 16 20 55 16 20 57 16 20 57 17 19 57 16 20 57 16 20 57 17 19 57 16 20 57 16 20 57 
42 47 113 39 44 110 37 45 110 38 42 103 36 42 102 33 38 96 31 36 91 32 35 90 26 30 77 27 29 77 29 30 78 26 30 77 34 36 93 38 44 106 39 42 109 47 51 124 44 51 123 41 46 114 41 44 111 36 38 99 28 30 81 26 29 80 19 21 59 17 21 58 18 20 58 17 20 55 19 21 59 24 27 72 23 28 70 36 40 101 39 43 106 43 48 114 45 52 124 46 50 123 42 45 114 41 44 113 29 34 89 24 30 78 22 27 69 17 19 57 17 21 58 16 20 57 16 20 57 23 26 71 27 31 79 30 33 84 41 45 109 42 45 112 46 50 123 46 50 124 42 47 115 38 42 105 36 40 101 24 27 72 25 28 71 18 22 60 17 21 56 18 22 60 19 22 63 19 22 63 34 37 92 32 37 92 40 45 109 45 49 122 44 48 119 44 48 121 46 50 123 32 35 88 33 36 91 24 26 74 20 24 61 18 22 60 16 20 58 16 18 57 28 30 78 29 32 77 35 40 98 42 45 112 42 47 115 45 52 124 47 51 124 40 44 108 36 40 103 32 35 88 22 27 69 22 27 69 17 21 58 17 19 57 16 20 57 17 19 57 15 21 57 17 20 55 16 20 55 16 20 55 16 20 55 16 20 57 16 20 57 16 20 55 16 20 57 17 21 58 
29 32 85 26 28 76 25 28 73 19 23 61 20 22 61 17 21 58 16 20 57 16 20 57 13 19 51 15 19 54 16 18 56 16 19 54 20 23 64 24 28 75 29 31 79 41 46 112 42 47 115 46 50 124 47 50 129 45 49 122 42 47 113 42 47 113 24 27 70 23 28 70 20 22 60 16 19 54 16 18 56 16 20 55 16 18 56 24 27 70 24 27 72 31 36 91 41 46 114 43 48 116 49 52 129 48 51 128 44 49 117 40 45 111 34 39 95 24 27 70 23 26 69 16 19 54 16 18 56 16 20 55 15 19 54 20 24 62 27 31 78 28 30 78 42 47 113 44 48 119 46 50 123 49 53 127 45 52 124 38 42 105 39 40 104 25 29 74 20 23 64 19 23 61 16 20 55 16 19 54 19 23 61 19 23 61 30 33 84 34 39 97 39 43 106 46 52 126 48 52 126 45 49 122 46 50 123 37 39 98 30 33 84 26 28 76 17 21 58 16 20 57 16 20 57 16 20 55 23 26 69 30 32 81 31 34 89 45 49 123 46 50 123 50 52 126 48 52 126 43 48 116 35 40 98 35 40 98 18 22 60 19 23 61 17 21 58 16 20 57 16 20 57 16 20 57 16 20 57 17 19 57 16 20 55 17 19 57 17 21 58 17 21 58 17 21 58 16 20 55 
30 33 84 24 28 73 24 28 73 20 23 64 19 23 61 17 21 58 15 19 56 16 20 57 16 19 52 15 20 52 14 19 51 15 19 54 19 24 64 25 27 75 26 30 78 40 48 113 43 48 114 48 52 126 48 52 126 45 49 122 41 44 111 41 46 112 23 26 69 24 27 68 21 23 62 16 19 54 14 18 53 17 21 58 16 18 56 24 27 70 25 28 71 34 36 93 42 47 113 44 47 116 48 51 128 47 50 127 44 47 116 42 45 112 36 38 97 24 27 70 23 26 69 16 18 56 15 19 56 16 20 55 18 20 58 19 23 61 27 31 78 28 32 80 42 47 113 44 48 119 42 50 122 46 52 126 48 52 125 37 41 104 40 41 105 25 29 76 20 23 64 19 23 61 15 19 54 16 19 54 19 23 61 20 24 62 30 33 84 35 40 98 35 43 105 46 52 126 46 52 126 45 49 122 45 49 122 35 40 98 31 33 82 26 28 76 16 20 57 16 20 57 16 20 55 17 20 55 22 27 67 30 33 84 32 35 88 45 49 122 45 49 122 47 51 125 46 52 126 41 48 116 34 40 100 35 39 100 17 22 60 18 22 60 17 21 58 16 20 57 15 19 56 17 21 58 16 20 55 16 20 57 16 20 55 16 20 57 16 22 58 16 20 57 16 22 58 17 21 58 
17 21 56 16 20 55 17 21 56 16 20 55 18 21 56 17 20 55 17 20 55 15 19 56 17 21 56 15 19 54 15 19 54 16 18 56 16 20 55 18 21 56 17 21 58 23 27 74 24 28 73 37 41 104 40 45 111 44 49 117 48 52 126 48 51 122 41 45 109 40 45 111 29 34 89 25 29 74 23 26 69 16 19 54 15 19 56 17 22 54 17 19 57 22 23 67 21 27 75 27 31 79 41 46 112 42 47 111 44 51 121 47 51 125 43 47 118 42 45 112 40 45 109 25 28 73 25 28 73 19 22 63 16 18 56 16 18 56 16 22 58 17 21 58 27 31 79 29 33 80 36 41 99 44 49 117 42 49 119 47 51 125 47 51 125 39 44 108 37 41 104 30 35 90 19 24 64 20 25 67 16 19 54 17 20 55 18 22 60 19 22 63 24 29 71 34 39 97 35 40 98 47 51 124 47 51 125 47 51 124 44 48 121 39 44 108 30 32 81 29 32 83 18 22 60 16 22 56 17 21 58 19 23 61 19 23 61 29 32 83 29 32 83 41 46 112 45 49 120 45 49 122 47 51 124 47 51 122 33 38 94 35 37 94 24 29 71 19 22 63 17 21 59 16 20 57 16 20 57 16 20 57 17 22 54 16 20 57 16 20 58 16 21 59 17 21 59 17 21 58 
14 18 53 14 19 51 16 21 53 15 19 54 16 19 54 15 19 56 16 18 56 15 19 56 15 19 56 15 19 54 15 19 54 16 18 56 16 19 54 15 19 54 16 20 55 21 26 68 21 26 68 34 40 100 40 43 110 43 48 116 48 52 126 46 52 126 43 47 118 43 46 117 33 36 91 26 30 75 24 27 72 15 20 52 15 19 56 15 19 54 16 19 54 19 22 63 22 25 70 23 27 74 40 45 109 40 45 109 46 50 123 48 52 125 45 52 124 42 47 115 41 48 116 25 29 76 27 29 77 21 23 64 16 18 56 16 20 55 16 20 55 16 19 54 24 28 75 26 30 75 33 38 94 42 47 115 43 48 116 46 52 126 48 52 126 40 45 111 38 42 105 33 36 91 21 26 68 21 24 65 16 19 54 16 19 54 15 21 57 17 21 59 21 26 68 32 37 93 35 37 94 47 51 125 48 52 126 45 51 125 46 50 123 42 47 115 31 34 85 31 34 85 18 21 62 17 21 58 17 21 58 16 20 55 18 22 60 27 31 76 27 31 78 37 45 108 41 48 118 42 49 121 46 52 126 48 52 126 35 39 100 37 39 100 27 29 77 19 23 61 18 22 60 16 20 57 16 20 57 16 20 57 16 20 55 17 21 58 17 21 58 16 22 58 17 21 58 16 20 57 
15 19 54 15 19 54 15 19 54 14 20 56 16 20 57 16 20 57 16 20 55 16 20 57 16 18 56 16 19 54 17 20 55 17 20 55 16 20 57 15 19 54 15 19 57 18 21 62 19 23 61 28 31 82 32 35 88 34 39 95 44 47 118 43 48 116 45 49 122 44 51 123 38 44 106 35 40 98 31 36 91 22 25 68 22 27 67 16 22 56 15 19 54 17 21 59 18 23 61 20 25 65 32 35 88 30 36 88 40 46 108 44 47 116 44 48 119 46 50 123 46 50 121 35 40 98 34 39 97 26 30 78 20 27 69 20 23 64 15 19 56 16 20 57 20 25 63 21 24 65 28 30 79 34 37 92 34 39 97 45 49 122 45 49 120 44 48 119 43 47 120 39 43 107 31 36 91 33 36 91 20 24 62 19 22 63 18 22 60 17 21 58 20 23 64 25 29 76 25 29 77 40 44 108 40 44 108 43 47 118 44 51 123 44 48 119 38 42 105 38 42 105 26 30 78 25 29 74 21 24 65 16 20 57 17 21 58 21 24 67 22 25 66 33 36 89 34 38 99 39 43 106 46 50 121 45 49 120 41 46 114 42 45 114 35 37 94 29 32 83 26 30 78 18 22 60 19 22 63 16 20 57 16 20 57 17 21 58 17 21 58 15 19 56 16 20 57 17 19 57 
16 19 54 15 19 54 15 19 56 15 19 54 15 19 54 16 20 55 17 20 55 16 20 57 16 18 56 16 20 57 15 19 56 15 19 56 15 19 54 16 18 56 16 20 55 14 19 51 14 18 53 20 24 62 22 25 66 28 32 80 38 42 106 36 42 104 46 52 126 48 52 126 46 50 121 44 48 121 40 45 109 28 31 82 28 31 82 18 21 56 15 19 54 17 20 55 16 20 55 16 20 55 20 25 65 19 24 64 34 36 93 38 42 105 42 45 112 48 52 126 47 53 127 44 48 119 44 48 119 35 37 94 26 32 80 25 29 76 16 21 53 16 20 57 15 19 54 15 19 54 19 23 61 23 26 71 26 28 76 43 44 111 40 45 111 46 50 124 47 50 127 45 49 122 40 45 111 41 46 112 24 27 70 23 26 69 18 22 59 16 20 55 15 21 55 15 19 57 16 21 59 33 35 92 33 36 89 41 44 111 46 50 123 46 50 123 45 52 124 46 50 123 34 39 95 34 37 92 25 29 74 17 21 59 16 20 57 16 20 55 15 19 57 23 28 70 26 30 75 33 36 91 43 48 116 42 46 117 48 51 128 48 52 126 43 46 113 39 40 104 35 37 96 19 24 66 20 25 67 16 20 55 16 20 57 16 20 57 17 21 58 17 21 58 17 21 58 17 21 58 
15 19 54 15 19 56 16 18 56 16 20 57 15 19 56 16 20 55 15 19 56 15 19 54 19 19 57 15 19 56 15 19 56 16 20 55 15 19 54 14 18 55 15 19 56 16 20 55 16 19 54 20 24 61 21 23 62 26 30 77 36 41 99 37 42 100 44 51 121 47 51 122 44 51 123 45 52 122 41 46 112 31 34 87 31 34 85 21 25 63 18 22 60 17 20 55 16 20 55 17 19 57 20 24 62 20 23 64 31 32 88 35 40 98 39 43 106 47 51 124 47 51 122 46 49 120 42 51 120 34 40 98 31 34 87 28 32 80 18 21 62 18 22 60 16 20 55 16 19 54 20 22 61 22 25 68 26 29 74 39 43 106 39 45 107 45 49 122 46 49 126 45 49 122 41 46 112 41 46 112 25 29 77 26 28 76 20 23 64 16 22 54 16 20 55 16 20 57 17 19 57 31 34 85 30 33 86 39 43 107 45 49 120 45 49 120 45 51 125 46 50 124 36 41 99 33 38 94 27 31 79 19 22 63 18 23 63 16 20 55 17 20 55 22 25 68 26 29 74 30 33 86 40 45 109 40 45 109 45 51 125 47 51 125 42 47 113 41 42 106 35 40 98 22 26 71 22 25 70 18 22 57 17 19 57 17 21 58 17 19 57 16 20 57 18 20 58 17 21 58 
15 19 54 15 19 54 16 20 55 15 19 54 15 19 56 15 19 56 15 19 56 15 19 56 15 19 56 15 19 56 16 20 57 15 19 56 16 19 54 15 19 54 15 19 54 15 19 54 16 19 54 16 19 54 16 20 55 16 20 55 19 21 60 18 23 61 35 40 98 36 41 99 43 48 116 46 52 126 46 53 125 45 49 120 46 50 123 33 36 91 31 34 85 21 28 74 18 22 59 16 20 57 15 20 52 16 19 54 17 21 59 19 23 61 25 29 76 35 41 101 35 39 100 48 52 126 48 52 125 44 51 123 45 49 120 43 46 113 29 32 83 30 33 84 18 22 60 16 20 57 15 19 54 16 19 54 17 19 57 20 25 65 20 25 67 35 40 98 40 45 109 44 49 117 48 52 126 48 52 126 42 47 115 43 48 116 31 36 91 25 28 73 23 26 69 16 18 56 15 19 56 16 22 58 16 20 57 26 29 74 29 32 83 34 36 93 45 49 120 44 51 121 47 51 125 48 52 126 40 45 111 33 40 95 31 36 91 17 23 59 18 22 59 15 19 56 15 19 54 18 22 60 25 28 71 25 28 73 42 47 111 41 46 112 43 50 120 46 52 126 46 50 121 39 43 107 39 43 106 23 26 69 22 25 68 18 22 60 16 20 55 16 20 57 16 20 57 17 21 58 
15 19 54 16 20 55 14 18 53 15 19 54 15 19 56 16 20 57 15 19 56 15 19 56 15 19 56 15 19 56 15 19 56 15 19 56 16 19 54 16 20 55 15 19 56 15 19 54 15 19 54 15 19 54 15 19 54 16 20 57 19 23 61 16 21 59 36 41 99 35 40 98 43 48 116 46 52 126 45 52 124 45 49 120 45 49 122 33 36 91 32 33 87 24 27 72 16 20 57 16 20 58 16 21 53 18 21 56 18 20 58 19 23 61 26 30 77 36 41 99 38 40 101 48 52 126 48 51 128 46 50 121 46 50 123 41 44 111 30 33 84 30 33 84 18 22 60 16 20 58 15 21 57 16 19 54 16 20 55 20 25 67 20 25 67 36 41 99 41 45 108 42 47 115 46 52 126 48 52 126 42 47 115 42 46 117 34 37 90 25 28 71 23 26 67 17 20 55 15 19 56 16 20 57 16 20 57 26 29 74 30 34 82 35 37 94 44 48 119 46 50 123 47 51 124 45 51 125 40 45 111 33 38 94 32 37 92 18 22 60 17 21 59 16 20 55 15 19 54 19 23 61 26 27 73 25 28 73 42 47 113 41 46 112 47 49 123 48 52 126 44 51 123 39 43 106 39 43 107 22 26 73 20 25 67 18 22 60 16 19 54 16 20 55 15 21 57 15 19 56 
15 19 54 16 19 54 16 19 54 16 19 54 16 18 56 16 20 57 15 19 56 16 18 56 16 18 56 15 19 56 15 19 56 16 18 56 15 19 54 16 20 57 16 20 55 15 19 54 16 18 56 16 19 54 15 19 56 15 19 54 17 20 55 17 21 56 23 26 71 21 26 68 30 36 88 36 40 103 39 43 107 47 51 124 45 51 125 42 47 113 43 48 114 35 40 98 27 33 83 27 31 79 18 20 58 16 20 57 15 19 54 17 21 58 19 23 61 22 26 71 23 26 69 37 41 102 36 41 99 43 46 115 47 51 124 46 50 121 42 47 115 43 46 113 30 33 86 28 31 82 23 28 70 18 20 58 17 21 58 17 21 58 16 20 57 23 27 72 25 29 76 30 33 86 40 43 110 40 44 108 47 51 124 47 51 124 39 47 110 40 44 108 35 39 100 23 28 70 25 28 73 15 17 55 15 19 54 19 22 63 20 23 64 23 26 69 32 37 92 31 36 91 42 47 115 46 50 121 43 50 120 43 50 120 43 48 116 32 35 90 32 35 90 21 26 68 18 22 60 19 21 60 17 21 59 18 22 60 28 32 80 30 30 82 37 41 102 42 47 111 43 48 114 46 50 121 47 50 121 37 41 104 36 40 101 27 33 81 22 25 66 22 25 66 16 20 57 16 20 55 
16 20 55 15 19 54 15 19 54 16 19 54 15 19 56 16 18 56 16 18 56 15 19 56 15 19 56 16 18 56 17 19 57 15 19 56 15 18 53 15 19 54 15 19 57 15 19 54 16 20 55 15 19 54 16 20 57 16 19 54 18 18 54 17 20 55 18 22 57 18 22 60 28 32 80 32 37 92 37 42 100 47 51 125 47 51 125 45 51 125 47 51 124 39 43 107 34 37 92 32 35 88 17 21 58 16 20 57 16 20 55 15 19 54 17 19 57 17 21 59 18 22 60 32 37 93 35 38 93 43 46 113 46 50 123 47 51 125 47 51 124 47 49 123 35 37 94 33 36 91 24 28 75 18 22 60 18 22 59 15 19 54 14 19 51 18 23 61 19 24 64 27 31 78 38 42 105 37 41 102 48 52 126 46 52 126 46 50 121 43 48 116 40 44 108 27 31 78 26 30 78 15 19 56 16 20 55 16 20 55 16 20 55 19 22 63 28 31 82 29 33 80 43 46 115 46 49 120 46 50 123 46 52 126 46 50 123 38 40 99 35 40 98 23 27 72 19 23 61 16 21 59 14 20 54 16 20 55 23 26 69 24 27 70 34 36 93 40 43 110 42 47 113 50 54 128 49 53 127 42 47 113 40 45 111 31 36 91 22 25 68 23 26 69 16 20 55 16 20 55 
14 18 53 15 19 54 15 19 54 15 19 54 16 18 56 15 19 56 15 19 56 16 18 56 16 18 56 16 20 57 15 19 56 16 18 56 15 19 54 16 20 55 16 18 57 16 19 54 16 19 54 17 20 55 15 19 56 15 19 54 17 21 58 15 19 54 16 20 57 17 21 56 23 27 72 27 31 79 32 35 86 41 44 111 41 46 112 46 48 122 46 50 123 43 46 115 39 43 106 36 40 101 24 28 73 24 28 73 19 23 60 16 20 57 17 21 56 18 22 59 17 21 58 27 31 79 27 30 81 38 40 99 41 46 112 43 46 115 46 50 124 46 50 123 38 42 105 37 41 102 29 34 90 24 28 73 23 26 71 16 20 55 16 21 53 18 22 59 19 23 58 24 26 74 31 34 87 31 34 87 42 47 115 43 47 118 45 49 120 45 49 122 42 47 115 36 38 95 36 38 95 22 25 66 21 25 63 18 22 59 16 20 55 17 21 59 24 27 70 25 28 73 36 41 99 36 42 104 43 46 115 47 51 122 46 50 121 40 45 109 39 44 108 30 33 86 27 29 77 24 27 68 18 21 56 18 20 58 21 25 63 21 24 65 28 31 82 32 37 92 36 40 103 45 50 118 45 50 118 43 47 118 44 49 117 39 41 102 32 35 86 29 32 83 20 24 61 20 24 62 
16 20 55 15 19 54 14 18 53 15 19 54 15 19 56 17 19 57 17 19 57 15 19 56 15 19 56 16 18 56 16 18 56 15 19 56 16 19 54 15 19 56 15 19 54 15 19 54 15 19 56 16 20 55 15 19 56 16 19 54 15 19 54 19 19 55 16 19 54 16 19 52 15 21 57 17 21 58 21 24 65 30 35 90 32 35 88 45 48 119 45 49 122 45 52 124 46 53 125 45 49 122 33 38 96 37 39 98 22 25 68 18 22 60 17 21 58 14 18 53 16 20 55 16 20 55 16 20 57 26 30 77 32 35 88 36 38 95 46 48 122 45 49 122 47 51 125 48 52 126 40 45 109 33 38 93 31 36 92 17 21 58 17 21 58 16 20 55 16 19 52 17 19 57 18 22 60 18 22 60 37 39 100 36 41 99 44 47 116 44 52 127 45 51 127 46 50 123 45 49 120 29 32 83 30 32 83 22 25 66 15 19 54 16 18 56 15 17 55 16 20 57 24 28 75 27 31 78 33 38 96 41 48 118 44 48 119 48 52 126 49 53 126 40 45 111 38 42 105 32 35 88 23 25 66 22 26 64 16 19 54 16 18 56 18 23 61 21 26 68 25 29 76 41 42 106 38 42 105 48 52 125 48 52 125 45 49 120 41 46 112 39 45 107 26 29 72 24 28 73 
15 19 54 15 19 54 15 19 54 15 19 54 15 19 56 15 19 56 16 20 57 15 19 56 15 19 56 15 19 56 15 19 56 15 19 56 15 19 54 15 19 54 16 18 56 16 19 54 16 20 55 15 19 54 16 20 55 15 17 55 15 19 54 17 19 57 16 19 54 16 19 54 16 20 57 17 21 58 21 24 65 32 35 86 30 36 88 44 48 119 47 51 122 45 51 125 46 52 126 46 50 123 37 39 96 35 40 98 24 27 70 18 22 60 18 22 59 15 20 52 15 19 54 16 20 57 16 20 57 26 30 77 32 35 88 37 39 98 45 49 122 45 49 122 45 52 124 46 50 124 40 45 111 34 39 94 32 37 93 16 22 58 17 22 60 15 19 54 16 19 52 17 21 56 17 22 60 18 22 60 38 40 99 35 39 100 43 46 115 45 52 124 45 51 125 45 49 122 45 49 120 29 33 81 31 33 84 20 23 66 16 20 55 16 19 54 16 18 56 15 19 56 24 28 73 25 29 76 36 38 97 43 48 114 45 48 119 48 50 125 47 51 124 40 45 109 38 42 103 32 35 88 21 25 63 22 26 64 15 19 54 15 19 57 20 22 61 19 24 66 22 29 75 39 43 106 39 43 106 47 51 124 50 54 127 46 50 121 41 46 112 40 44 107 25 28 73 26 29 74 
15 19 54 15 19 54 16 19 54 16 19 54 15 19 56 15 19 56 15 19 56 15 19 56 15 19 56 16 20 57 15 19 56 15 19 56 15 19 54 15 19 54 15 19 54 15 19 54 15 19 54 16 20 55 15 19 54 17 20 55 15 19 56 16 19 54 16 18 56 17 19 57 16 19 54 14 20 54 16 19 54 16 20 55 15 19 54 28 30 78 30 34 82 36 40 101 44 48 119 45 49 122 48 52 125 48 52 125 41 45 109 37 41 104 30 36 88 20 23 64 19 24 64 15 20 52 15 19 54 16 19 54 17 21 56 20 22 61 29 33 81 30 32 83 44 47 116 45 49 120 43 51 123 48 52 126 46 50 123 36 41 97 36 40 101 22 26 71 20 23 64 17 21 59 15 20 52 15 19 54 18 22 60 17 23 59 28 31 82 33 40 95 36 42 102 46 53 125 45 51 125 45 49 122 43 49 123 36 40 101 33 36 89 28 32 80 16 20 57 17 19 57 17 20 55 16 18 57 21 23 64 25 28 71 27 29 77 41 46 112 43 46 115 47 51 124 49 53 126 44 49 117 38 42 105 39 43 107 20 24 69 20 25 67 17 21 59 17 19 57 16 20 57 19 24 64 19 24 64 38 40 99 37 41 104 44 47 116 47 54 126 49 53 126 43 48 116 42 46 117 
17 19 57 16 18 56 17 19 57 16 20 58 16 18 57 16 19 54 15 19 54 16 20 55 16 19 54 16 19 54 16 20 57 15 19 57 16 18 56 17 20 55 16 19 54 16 19 54 16 19 54 15 19 56 16 19 54 16 19 54 15 19 56 16 20 55 16 19 54 16 19 54 16 19 54 16 19 52 16 19 54 16 20 57 16 20 57 28 32 80 29 32 83 36 40 101 45 49 120 45 49 120 46 52 126 48 52 126 41 44 111 38 42 103 30 35 90 20 23 64 18 23 63 16 19 54 16 19 52 19 19 55 16 20 55 20 23 64 31 33 82 30 34 82 43 47 118 45 49 120 46 50 123 48 52 126 47 51 122 35 39 100 38 40 99 25 26 72 18 22 60 19 21 59 16 19 54 16 20 55 18 21 62 18 22 59 26 32 80 34 39 97 37 43 105 47 51 125 47 51 125 45 49 122 45 49 123 36 40 101 31 34 87 28 32 80 16 20 58 16 22 58 15 19 54 15 19 56 20 24 62 25 28 73 28 30 79 42 47 115 41 46 112 47 51 124 47 54 126 47 50 119 40 44 108 39 43 107 20 25 67 20 25 67 17 21 59 16 19 54 16 20 57 19 24 64 19 24 62 37 39 98 38 42 103 44 47 116 48 55 127 46 52 126 44 48 119 44 48 119 
16 20 57 15 19 56 15 19 56 15 19 57 16 20 55 15 19 54 16 20 55 13 19 53 16 18 56 14 18 53 15 19 56 15 19 54 16 18 56 16 18 56 16 18 56 16 19 54 16 19 54 16 19 54 15 19 54 15 19 56 14 20 54 15 19 54 16 19 54 15 19 54 15 19 54 16 19 52 16 19 54 15 19 54 16 19 52 20 22 63 22 25 66 27 31 79 32 37 92 33 38 94 44 48 119 43 47 118 44 48 121 43 48 116 39 44 108 33 35 92 31 36 91 19 23 61 19 23 61 17 21 58 16 19 54 16 20 55 22 25 66 20 25 63 31 36 91 36 38 95 38 44 106 45 49 122 45 49 122 43 48 116 41 48 118 33 37 98 30 35 90 27 29 78 17 22 60 18 23 61 16 20 55 17 20 55 21 24 65 23 27 72 27 31 79 38 42 103 37 41 102 46 50 124 45 51 125 42 47 113 41 46 110 37 41 104 26 29 80 27 31 79 18 22 60 16 22 58 18 22 59 19 23 61 21 24 65 30 36 88 31 34 87 41 45 109 43 48 116 45 48 117 45 49 120 44 48 119 35 37 96 33 38 94 25 29 74 20 24 62 19 23 61 17 21 58 17 21 58 26 28 76 26 30 77 35 38 93 41 45 109 41 45 109 47 51 124 46 50 121 
15 19 54 15 19 54 15 19 54 15 19 54 15 19 57 15 19 54 16 19 54 16 18 56 16 20 55 15 19 56 15 19 54 16 18 56 17 20 55 16 20 57 15 19 54 14 20 56 16 20 55 16 19 52 16 19 54 16 19 54 15 20 52 14 19 51 15 19 54 15 20 52 14 19 51 15 18 51 16 19 54 14 18 53 16 19 54 17 20 55 16 18 56 21 24 67 27 29 77 27 33 81 43 48 116 43 47 118 45 49 123 48 52 126 44 49 117 40 45 109 40 45 109 20 25 67 20 25 65 17 21 58 16 19 54 16 20 55 15 19 54 15 19 54 26 28 76 28 30 79 34 39 97 42 49 119 42 49 119 46 52 126 47 51 125 40 43 110 40 41 105 32 35 90 19 24 64 17 25 64 15 19 54 16 19 54 17 21 58 17 21 58 21 26 66 31 37 89 33 36 87 47 51 124 47 51 125 47 51 124 44 53 122 43 48 116 32 37 92 33 36 91 20 23 64 17 22 60 16 20 57 15 19 54 17 19 57 24 25 69 23 26 69 38 42 103 41 46 110 44 49 117 48 52 125 49 53 126 41 44 111 41 45 109 31 34 87 23 26 69 22 25 66 16 20 55 16 20 55 17 22 60 20 24 62 27 31 79 35 40 98 39 41 102 45 51 125 46 52 126 
15 19 54 15 19 54 15 19 54 16 19 54 15 19 56 15 19 54 15 19 54 15 19 54 16 20 55 15 19 54 15 19 54 15 19 54 16 20 57 15 19 54 16 18 56 17 20 55 16 20 55 16 20 55 16 20 57 17 21 58 18 22 59 18 22 59 18 22 60 18 22 59 19 23 60 19 23 61 18 22 60 18 22 57 17 21 58 15 19 56 15 19 54 20 23 64 24 27 70 26 29 74 38 42 105 38 42 105 43 47 118 45 49 122 43 48 116 40 45 111 41 46 112 27 31 79 26 30 78 21 24 67 17 21 58 18 20 58 16 20 57 16 20 55 24 27 72 23 27 72 33 36 89 39 43 106 41 42 106 44 51 121 44 51 123 42 45 112 40 45 109 35 37 98 25 29 76 25 29 76 17 21 58 17 21 58 17 21 58 18 20 58 19 24 64 28 32 80 29 32 83 41 46 114 42 45 114 43 48 116 44 50 124 43 47 118 36 40 101 37 41 102 26 28 76 22 27 69 19 22 63 15 19 56 17 21 59 22 24 65 21 24 65 34 36 93 36 40 101 39 44 108 46 50 123 46 50 121 42 47 113 43 48 114 35 37 94 27 30 81 25 29 76 19 23 61 18 22 59 18 22 60 18 22 59 27 28 76 33 36 89 34 36 95 44 49 117 44 48 119 
15 19 54 15 20 52 15 19 54 16 19 54 15 19 54 14 18 53 15 19 54 15 19 54 15 19 56 15 19 54 14 18 53 15 20 52 15 19 54 15 19 54 14 20 54 16 20 57 16 20 57 16 20 58 19 22 63 21 24 65 25 28 73 25 28 73 28 30 78 27 31 78 28 31 82 31 34 87 29 31 82 21 24 65 20 25 67 16 21 53 15 20 52 15 19 54 15 17 55 17 20 55 25 28 71 25 28 73 37 41 102 41 46 110 42 46 117 48 51 130 47 51 125 42 46 110 42 45 112 31 34 87 25 28 73 22 25 68 15 19 56 15 19 54 16 19 54 16 19 54 21 23 64 25 28 73 28 30 78 41 45 116 41 46 112 44 51 123 45 51 125 44 49 117 40 44 108 38 43 107 23 26 69 20 24 69 18 22 60 15 19 54 15 19 54 15 21 55 17 21 58 30 33 86 29 32 85 39 43 107 45 49 120 46 50 121 45 52 124 45 52 124 37 41 102 33 38 96 28 32 80 20 22 61 19 21 60 16 19 54 18 18 54 20 23 64 21 26 68 29 32 83 38 42 106 39 43 107 49 53 127 49 53 126 44 48 119 42 47 113 38 42 105 25 28 73 25 28 73 18 20 58 17 20 55 16 20 57 17 21 58 20 22 63 33 38 94 34 39 94 
15 19 54 15 19 54 14 18 53 14 18 53 15 19 56 16 19 54 16 19 54 17 20 55 15 19 54 15 19 54 14 19 51 16 19 52 16 19 54 16 19 52 15 18 53 17 20 55 16 19 54 18 22 60 18 22 60 22 24 65 25 28 73 25 28 73 27 31 78 27 31 78 28 31 82 30 33 88 27 30 81 21 24 65 20 23 68 16 20 55 15 20 52 15 19 54 17 20 53 16 20 57 25 28 73 26 29 74 38 42 103 40 45 111 43 48 116 45 51 125 47 50 127 42 46 110 41 44 111 31 34 85 24 27 70 21 24 67 16 18 56 16 20 55 15 19 56 15 19 54 21 25 63 25 27 75 26 30 77 41 46 112 42 47 111 46 50 121 46 52 126 45 49 120 40 45 109 40 44 108 21 25 70 21 25 70 17 21 59 14 19 51 16 20 55 16 20 58 15 21 55 30 33 84 29 32 85 38 44 106 45 49 122 47 50 121 45 52 124 47 50 127 36 41 99 34 39 97 25 31 79 18 22 60 18 22 59 15 19 54 16 19 54 20 24 62 22 25 66 29 32 83 39 43 107 38 42 106 49 53 126 50 52 126 45 50 118 42 47 115 38 42 105 25 28 73 25 28 73 18 21 56 15 19 54 17 21 58 18 22 60 19 22 63 33 38 96 33 38 96 
15 19 54 15 19 54 15 19 56 16 20 55 16 20 58 17 21 58 17 21 59 18 22 59 20 25 67 20 25 67 24 28 76 25 29 74 28 32 79 30 33 84 30 33 86 36 38 97 35 40 96 36 42 102 40 46 108 39 44 108 43 48 116 44 49 117 45 49 120 44 49 117 46 51 119 46 50 123 43 48 116 39 43 104 39 43 106 26 30 77 24 28 73 21 24 65 16 20 57 16 20 55 16 19 54 16 21 53 20 25 65 23 27 72 29 35 85 41 46 110 42 46 110 46 50 124 47 51 124 42 46 117 40 45 111 36 40 101 24 28 73 25 29 76 17 21 58 16 20 55 17 21 56 16 20 55 17 21 58 23 27 75 23 27 74 36 42 102 41 46 110 42 47 115 46 50 124 46 50 124 39 44 108 40 44 108 27 33 85 24 27 72 22 25 66 16 18 56 16 20 55 17 21 59 18 20 58 26 30 77 28 34 84 35 37 94 42 49 119 45 49 120 46 50 121 46 50 123 39 44 110 35 40 98 34 37 92 21 23 61 20 24 61 17 22 54 15 19 54 18 22 59 21 26 68 21 26 68 39 43 107 39 43 106 44 48 119 47 51 124 47 51 124 41 46 112 41 46 112 28 32 80 25 29 74 20 23 64 16 20 57 17 20 55 19 22 63 21 24 65 
16 19 52 16 19 52 16 19 54 16 20 55 16 20 58 18 22 59 18 22 60 18 21 62 19 26 70 21 25 70 25 29 76 27 31 76 30 34 82 32 35 88 32 37 92 35 41 101 36 40 101 41 45 109 40 45 111 43 48 116 47 51 124 47 51 122 46 53 125 46 52 126 48 52 126 47 51 125 46 50 123 41 44 111 42 45 112 26 32 80 26 30 77 21 25 63 15 19 54 16 20 57 15 20 52 15 20 52 18 23 65 20 25 67 28 31 82 39 45 107 39 44 108 48 52 126 48 52 126 45 49 120 42 47 115 39 43 107 27 29 77 26 28 76 19 22 57 17 20 55 17 20 53 16 19 54 16 20 55 22 25 70 22 25 70 35 40 98 37 45 108 42 47 115 47 51 125 48 51 128 41 46 114 41 46 110 30 36 86 25 28 73 23 26 69 16 20 55 16 20 55 16 20 55 17 20 55 23 27 72 28 32 80 33 36 89 44 48 119 44 48 119 47 51 125 48 52 126 43 46 115 37 41 102 36 38 95 21 25 62 21 25 62 16 20 55 15 19 54 17 21 59 19 24 64 19 24 64 37 41 102 37 41 104 43 47 118 49 53 126 47 51 122 42 49 119 44 48 119 30 32 81 28 30 79 22 25 66 16 20 55 17 19 58 17 23 59 18 22 60 
22 27 69 21 28 72 24 28 73 26 30 78 27 31 79 30 33 86 29 35 87 29 35 87 33 38 96 32 37 93 38 40 101 37 41 102 38 42 105 39 43 107 38 43 111 41 46 112 41 46 114 43 48 116 43 48 116 44 49 117 44 48 121 45 48 119 41 44 113 42 47 113 42 46 117 45 49 122 44 48 119 44 48 119 45 48 119 36 41 99 35 40 98 27 33 81 22 25 68 21 24 65 16 19 52 16 19 52 17 21 58 18 22 60 21 26 68 28 34 86 27 35 84 42 47 115 42 45 112 44 48 119 45 49 120 42 47 115 35 40 98 34 39 97 25 28 73 23 26 69 19 23 61 16 19 54 16 21 53 18 22 60 19 23 61 25 31 79 31 34 87 34 39 97 41 46 114 41 46 114 44 48 119 44 48 119 37 41 104 34 39 95 31 34 87 22 25 68 21 24 65 16 20 55 17 19 57 20 23 64 23 26 67 26 30 77 36 38 97 34 39 97 42 49 117 42 49 121 43 47 118 44 47 116 41 44 111 30 34 82 30 33 84 22 25 66 20 23 58 18 22 59 18 22 59 17 21 59 29 33 81 29 32 83 35 41 101 42 47 111 42 45 112 46 50 121 45 49 122 39 41 102 36 40 101 30 34 82 22 25 66 21 26 68 17 21 58 17 21 59 
30 33 84 33 36 91 31 36 91 36 40 103 37 41 102 40 44 108 42 47 113 41 46 112 45 49 120 45 49 120 47 51 125 45 51 125 47 50 127 48 52 126 47 50 127 47 51 124 46 50 123 46 50 121 46 49 120 45 48 117 42 47 113 41 46 110 36 42 104 38 39 103 39 43 107 41 44 111 42 47 111 48 52 126 48 52 126 44 48 121 45 49 120 34 39 97 27 31 78 27 30 75 16 19 54 16 19 54 16 19 54 15 18 53 17 21 56 19 24 62 19 24 62 38 42 103 38 42 105 43 47 118 48 52 126 45 52 124 45 49 120 45 48 119 32 35 86 30 32 81 24 27 70 15 20 52 16 19 54 16 19 54 16 19 54 18 23 63 20 25 65 28 32 80 38 42 105 38 42 105 48 52 125 48 52 126 44 48 121 43 48 116 39 43 107 27 31 76 26 30 77 17 19 57 15 19 54 15 19 54 16 20 55 18 22 59 25 29 76 25 28 73 40 45 111 44 47 116 46 50 123 48 52 126 48 52 125 38 42 106 38 42 103 27 30 75 22 25 66 19 23 61 15 19 54 17 20 55 19 21 59 19 23 61 29 32 87 35 40 98 39 43 106 48 52 125 46 52 126 45 49 122 44 48 119 36 40 101 28 31 82 26 30 77 16 22 58 17 21 56 
32 35 88 33 38 96 34 39 95 39 43 106 39 43 106 41 45 109 42 47 113 42 47 115 45 49 120 45 49 120 46 50 121 44 51 123 46 50 124 44 51 123 43 50 122 43 50 120 46 50 123 42 47 115 41 46 112 41 45 109 40 44 105 39 43 106 35 40 98 37 39 96 35 41 101 38 42 105 40 44 107 46 50 124 44 51 123 45 49 122 44 48 119 37 41 104 29 32 83 29 31 80 17 21 56 17 21 58 15 20 52 15 21 53 16 20 57 18 23 61 18 23 61 35 40 98 37 39 98 41 46 112 45 49 122 46 50 123 44 48 119 44 49 117 31 37 89 32 35 88 23 27 72 19 21 60 17 21 58 15 20 52 17 20 55 18 23 61 18 23 63 25 29 77 36 41 99 38 40 101 45 49 122 46 50 123 45 49 120 45 48 119 39 44 108 29 32 83 30 34 82 18 20 58 18 22 59 17 21 56 15 19 54 18 22 59 24 29 71 24 28 73 38 44 106 42 45 112 42 49 117 48 52 123 47 50 121 40 44 107 40 44 107 30 32 81 23 26 71 21 25 63 16 20 57 17 21 58 19 21 59 18 22 59 30 34 82 33 38 93 37 41 102 45 49 123 46 50 121 46 50 121 46 50 123 36 42 102 28 34 86 30 34 82 18 22 59 19 23 61 
47 51 125 47 51 125 48 52 126 47 51 125 47 51 125 46 50 123 44 49 117 45 50 118 41 46 112 41 46 112 38 42 105 38 40 101 36 38 97 34 37 92 33 36 91 27 29 77 27 31 78 22 27 69 20 25 67 20 23 66 19 23 60 18 22 59 16 18 56 15 19 54 19 23 61 19 24 64 25 29 77 38 42 105 38 44 106 46 50 123 47 51 124 45 49 122 44 48 119 43 46 115 28 32 80 29 33 81 19 23 61 15 19 54 16 20 55 14 19 51 16 19 52 18 22 59 19 22 63 29 32 83 34 38 99 38 42 103 47 51 124 48 52 126 44 48 121 45 49 120 38 42 106 31 34 87 30 33 84 16 20 57 15 19 56 16 20 55 15 18 53 18 21 56 21 25 62 20 24 61 37 41 102 37 41 102 44 47 116 46 53 125 47 51 125 45 49 120 45 49 120 30 32 83 29 33 81 21 26 66 17 21 58 15 21 55 15 19 54 15 19 54 23 26 69 25 28 71 32 37 92 40 47 115 42 47 115 49 53 126 48 52 126 43 46 115 40 45 111 35 37 94 24 27 70 24 27 70 15 19 54 16 20 55 16 20 58 18 22 60 21 26 68 34 39 95 33 38 94 45 49 120 48 50 124 45 49 123 44 51 123 43 46 117 30 33 86 31 34 85 
48 52 126 47 51 125 48 51 128 45 51 127 44 52 125 45 52 124 45 49 120 44 48 119 41 46 112 42 45 112 37 41 104 37 41 102 35 40 96 31 36 91 30 35 90 26 30 77 27 29 77 22 27 69 20 24 69 20 25 65 18 22 60 18 22 59 17 19 57 16 19 54 19 23 61 19 24 64 24 28 75 38 42 106 38 42 105 46 50 124 47 51 124 46 50 123 44 48 119 43 46 113 27 31 79 28 32 80 18 23 61 16 20 55 15 20 52 15 18 53 14 19 51 19 23 60 19 23 61 30 33 84 34 39 97 38 42 105 47 51 124 47 51 124 47 51 124 45 49 122 38 42 105 30 36 86 30 32 83 17 19 57 16 20 57 15 19 54 16 20 55 16 20 55 21 25 63 21 25 63 37 41 102 37 41 102 44 47 116 45 52 124 47 51 124 45 50 118 45 49 120 30 34 82 30 32 81 21 24 65 16 20 58 16 20 57 14 18 55 15 19 56 22 27 69 24 27 70 32 37 92 42 47 113 43 46 113 49 53 126 48 52 125 43 46 113 40 45 111 35 37 96 23 26 69 23 24 68 15 19 54 16 19 54 17 21 58 18 22 59 22 27 67 33 38 93 33 38 93 45 49 122 47 51 124 46 50 123 43 50 122 43 47 118 30 33 86 30 33 86 
41 42 106 35 39 100 36 41 99 31 36 91 32 35 90 29 32 85 28 31 82 27 31 79 23 27 72 23 27 72 22 27 69 22 25 68 21 24 65 18 23 63 19 22 63 18 22 59 18 22 59 17 21 56 17 21 58 18 21 56 17 19 57 16 20 55 15 19 54 16 19 54 15 19 54 16 20 57 18 22 60 23 27 72 23 27 72 37 42 100 38 42 105 42 47 115 46 50 123 45 49 122 40 45 111 40 45 111 29 36 88 27 31 78 23 27 72 15 19 54 16 20 57 17 20 55 16 21 53 20 23 64 22 25 68 25 29 76 38 40 99 36 40 101 45 48 119 46 50 124 44 49 117 42 47 115 40 45 111 29 32 85 30 33 84 21 24 65 17 21 59 17 21 58 17 19 57 18 20 58 23 28 70 23 28 70 35 36 92 36 40 103 39 43 107 47 51 124 47 51 124 42 47 113 41 46 112 31 36 92 27 30 81 24 28 75 17 21 59 16 20 57 18 22 59 18 22 59 22 27 69 26 29 80 28 31 84 41 46 112 41 46 112 46 50 121 47 52 120 42 47 113 36 40 101 37 41 102 23 26 67 23 26 69 18 22 60 16 20 55 17 21 59 20 25 67 21 26 68 32 37 93 36 38 99 41 45 109 46 50 123 45 49 122 41 46 112 41 45 116 
37 39 98 33 36 91 32 35 88 28 32 80 27 31 79 24 28 73 20 24 69 21 26 68 18 22 60 20 22 61 17 19 57 16 19 54 17 20 55 16 19 54 15 19 54 14 19 51 14 19 51 15 19 54 16 19 52 17 20 55 15 18 53 16 19 52 15 19 54 16 19 54 15 19 54 16 19 54 16 20 57 18 22 60 19 21 60 33 38 94 37 39 98 41 46 114 48 52 125 45 51 125 46 49 120 45 49 120 33 38 96 31 34 87 25 29 76 16 20 55 16 20 57 14 19 51 14 18 53 16 20 57 17 21 59 20 25 67 33 36 91 33 36 91 44 49 117 45 49 122 46 50 123 47 51 125 43 50 120 31 38 90 33 38 94 23 26 69 17 23 59 16 20 58 17 20 55 16 19 54 18 22 59 18 22 60 28 31 82 34 39 95 37 41 102 46 50 123 47 51 124 46 50 123 44 51 123 36 40 103 30 36 88 28 32 80 17 21 58 17 21 58 15 19 56 15 19 54 18 21 62 22 25 70 23 27 75 40 45 109 39 44 108 46 50 121 49 53 126 46 50 121 42 47 111 41 46 110 24 27 70 24 28 73 20 24 62 14 18 53 15 19 54 16 20 58 17 21 58 31 34 85 30 35 90 39 43 106 45 49 122 46 50 124 45 49 120 44 51 121 
29 32 83 25 29 74 25 29 76 22 27 69 22 25 68 22 25 66 20 23 64 19 22 63 18 22 59 18 22 57 16 20 57 16 18 56 15 19 56 15 19 54 15 19 54 14 19 51 15 19 54 15 20 52 15 19 56 15 19 54 16 19 54 16 19 52 16 19 54 16 20 55 15 18 53 15 19 54 15 19 54 18 22 57 18 22 57 28 32 79 29 32 83 35 40 96 41 46 114 42 47 113 45 49 122 43 50 122 37 45 107 35 39 100 30 35 90 21 26 68 24 27 72 17 20 55 17 21 56 16 20 55 16 20 57 18 22 60 27 31 79 28 30 79 38 42 105 40 44 108 42 47 115 46 50 123 43 50 122 38 42 105 38 42 103 28 31 82 24 28 75 22 25 68 16 20 58 16 20 57 18 22 59 18 22 59 24 28 73 27 30 81 32 35 88 39 44 108 41 45 109 46 50 123 46 50 123 41 45 109 38 40 101 33 38 94 23 27 72 23 27 72 17 21 56 16 20 57 18 22 60 20 22 61 20 24 69 30 35 91 30 35 90 41 46 112 44 49 115 43 48 116 44 48 119 44 49 117 33 36 91 31 36 91 24 27 72 19 24 64 19 21 60 16 20 57 18 20 58 25 29 76 24 31 77 32 37 93 40 44 108 42 46 110 46 50 123 46 50 123 
16 19 54 15 20 52 15 20 52 15 20 52 15 19 54 15 19 54 16 19 54 15 19 54 15 19 54 15 19 54 15 19 54 16 19 54 16 19 54 15 19 54 16 19 54 15 19 54 16 19 54 14 20 54 16 19 54 16 19 54 16 19 54 15 19 54 15 19 54 15 19 54 15 19 54 15 19 54 16 19 54 15 19 54 15 18 53 17 21 58 17 21 56 25 29 74 31 36 92 36 38 95 46 50 123 44 50 124 47 49 123 46 50 123 40 45 111 34 36 93 32 37 92 18 22 59 17 23 59 17 21 56 15 18 53 16 21 53 16 20 57 16 20 57 31 31 81 30 33 84 39 41 102 45 49 120 44 48 121 47 51 124 46 50 123 39 43 106 37 39 98 28 34 86 19 23 61 18 22 60 15 19 54 15 19 54 16 20 57 17 21 58 20 25 67 32 35 90 32 35 88 46 50 121 46 50 123 46 50 123 47 51 124 44 47 118 35 36 92 34 37 92 20 23 64 17 21 58 17 21 56 16 20 55 16 20 55 19 24 66 19 24 66 35 37 94 38 42 105 42 45 112 48 52 125 48 52 125 44 47 116 42 47 115 33 36 91 27 29 77 23 28 70 15 21 55 16 20 55 16 20 57 16 20 57 24 27 72 31 34 87 33 36 91 44 48 121 46 50 123 
15 19 54 16 19 52 15 20 52 15 20 52 15 19 54 15 19 54 15 19 54 16 19 54 15 19 54 16 19 54 15 19 54 15 19 54 15 19 54 15 19 54 15 19 54 16 19 54 16 19 54 16 19 54 15 19 54 15 19 54 15 19 54 16 19 54 15 19 54 16 19 54 15 19 54 15 19 54 15 19 54 16 19 54 16 19 54 17 21 56 17 21 58 25 29 76 32 37 93 35 40 96 47 51 124 46 50 123 47 51 125 46 50 123 41 46 112 32 38 90 32 37 92 18 22 60 17 21 59 16 20 57 16 19 52 16 21 53 15 19 54 17 19 57 29 32 83 30 33 86 39 41 102 45 49 120 46 48 122 47 51 124 48 52 126 39 43 106 35 40 98 27 33 85 18 22 60 19 22 63 14 18 53 14 18 53 17 21 58 18 22 59 21 24 67 33 36 91 32 35 88 46 50 123 46 50 123 44 50 124 46 50 121 42 47 115 33 38 93 32 37 92 19 22 63 17 21 59 18 20 58 15 19 56 15 19 54 19 24 64 19 24 64 33 38 94 37 43 105 41 44 111 49 53 124 47 54 126 42 46 117 43 48 116 32 38 90 26 28 76 21 28 70 15 19 54 16 20 57 16 20 57 15 19 56 24 27 72 31 34 87 33 36 91 44 48 121 45 49 122 
15 19 54 16 19 54 14 20 56 16 19 54 16 19 54 15 19 54 15 19 54 15 19 54 16 19 54 15 19 54 16 19 54 15 19 54 15 19 54 15 19 54 15 19 54 16 19 54 15 19 54 15 19 54 15 19 54 15 19 54 16 19 54 15 19 54 15 19 54 15 19 54 15 19 54 16 19 54 15 19 54 15 19 54 16 19 54 16 19 52 14 18 53 16 20 55 16 20 57 18 22 60 31 34 85 30 33 84 40 45 111 45 50 118 46 50 123 46 50 123 47 51 124 34 39 97 37 39 98 26 30 77 18 22 60 17 23 59 15 19 54 15 19 54 16 20 55 16 20 55 21 24 65 28 32 80 30 33 84 43 48 116 43 47 118 47 51 124 48 52 125 44 49 117 39 41 100 40 42 103 19 24 66 20 23 66 17 21 59 16 18 56 16 20 55 16 20 57 16 20 55 32 33 87 30 33 86 40 44 107 45 49 120 45 49 122 45 51 125 46 53 125 35 39 100 35 40 96 28 30 79 19 23 61 17 21 59 16 18 56 16 19 54 18 22 60 18 22 60 26 28 76 36 41 99 36 40 101 47 51 124 46 53 125 45 49 123 45 48 119 41 45 109 29 33 81 28 32 80 18 22 59 16 20 57 16 20 55 15 19 54 17 21 58 28 32 79 28 32 80 
16 19 54 15 19 54 15 19 54 16 19 52 15 19 54 15 19 54 16 19 54 15 19 54 15 19 54 18 18 54 15 19 54 15 19 54 15 19 54 15 19 54 15 19 54 15 19 54 15 19 54 15 19 54 15 19 54 15 19 54 15 19 54 15 19 54 16 19 54 14 20 54 15 19 54 15 19 54 16 19 54 16 19 54 16 19 54 15 19 54 16 19 54 15 21 55 16 20 57 19 23 61 30 33 84 31 32 86 41 45 109 44 48 119 48 50 124 48 52 125 47 51 125 36 40 101 34 38 99 25 29 76 19 23 61 19 21 59 15 19 54 15 19 54 16 18 56 16 20 55 22 26 64 27 31 79 28 34 82 43 47 118 43 48 116 47 51 124 48 52 125 45 48 117 39 41 102 40 42 103 19 24 66 20 23 64 18 20 59 15 18 53 16 20 55 16 20 57 16 20 58 32 34 85 31 32 86 39 43 106 43 47 121 45 50 118 45 51 125 47 51 125 36 41 99 36 38 97 27 31 79 18 22 60 19 21 59 17 20 55 16 19 54 17 21 59 19 23 61 27 29 77 36 41 99 38 40 99 45 51 125 47 51 125 46 51 119 43 47 118 41 45 109 27 31 78 28 32 80 18 20 58 16 19 54 16 19 54 16 20 55 18 22 59 28 32 80 28 32 79 
16 19 54 15 19 54 15 18 51 16 19 52 15 19 54 15 19 54 15 19 54 16 19 54 15 19 54 15 19 54 15 19 54 16 19 54 15 19 54 15 19 54 15 19 54 15 19 54 15 19 54 15 19 54 15 19 54 15 19 54 15 19 54 15 19 54 16 19 54 14 20 54 15 19 54 15 19 54 16 19 54 16 19 54 15 19 54 15 19 54 15 18 53 15 19 54 15 19 56 16 20 57 22 25 66 22 25 66 31 37 89 34 39 95 38 42 105 44 48 121 44 48 121 43 46 115 43 47 118 34 39 97 31 34 89 29 31 79 20 24 61 19 23 60 16 20 57 16 19 54 18 22 59 21 23 64 22 27 69 33 36 91 33 36 91 42 45 112 44 48 119 46 49 118 45 48 117 45 48 115 31 36 92 31 36 92 25 29 74 21 25 63 18 22 60 15 19 56 15 19 54 22 25 68 22 25 68 29 32 83 34 39 95 36 40 101 45 49 120 46 50 123 43 48 116 43 48 114 37 41 102 29 34 89 30 33 84 18 23 61 19 23 60 17 21 58 16 20 57 20 24 62 27 29 77 26 28 76 39 43 106 39 42 109 43 48 116 46 50 121 42 49 117 37 42 106 38 42 105 27 29 78 25 27 75 21 24 65 16 20 55 17 21 56 20 24 62 20 23 64 
16 19 54 16 19 54 15 20 52 16 19 52 15 19 54 15 19 54 16 19 54 15 19 54 15 19 54 15 19 54 15 19 54 16 19 54 15 19 54 15 19 54 15 19 54 15 19 54 16 19 54 15 19 54 15 19 54 15 19 54 16 19 54 15 19 54 15 19 54 15 19 54 15 19 54 16 19 54 15 19 54 15 19 54 15 19 54 15 19 54 15 19 56 15 19 54 15 19 54 17 19 57 16 19 54 16 20 55 25 29 74 28 32 80 35 37 94 44 48 119 44 48 119 47 51 124 48 52 125 41 46 112 37 41 104 36 37 94 21 25 63 22 26 64 16 20 55 14 18 53 16 19 54 16 19 52 16 22 58 26 30 75 25 29 74 38 42 105 39 47 112 43 47 118 48 52 125 48 52 125 40 45 109 39 44 108 29 32 85 25 27 68 21 24 65 17 19 57 16 19 54 16 20 55 16 19 54 24 27 70 28 32 80 31 36 91 44 49 117 43 48 116 47 51 124 50 52 126 44 47 116 38 42 103 34 39 97 19 24 62 20 23 64 17 21 58 16 19 54 16 20 55 19 23 61 18 20 59 33 38 94 33 38 94 42 47 113 47 51 125 46 50 121 45 49 120 46 49 120 31 34 89 30 33 86 23 26 69 16 20 57 17 19 58 16 18 56 15 19 54 
