P3
100 50
255
9 11 34 9 11 34 9 11 36 10 12 37 10 12 37 11 13 36 10 12 37 10 12 37 10 12 37 10 12 35 11 13 36 10 12 37 9 11 36 10 12 35 10 12 35 9 11 36 10 12 37 10 12 35 11 13 36 10 12 35 11 13 36 11 13 36 11 13 36 11 13 36 11 13 36 11 13 36 9 14 36 11 13 36 11 13 36 11 13 36 11 13 36 11 13 36 11 13 36 11 13 36 11 13 36 12 14 37 12 14 37 11 13 36 11 13 36 11 13 36 11 13 36 11 13 36 11 13 36 11 13 36 11 13 36 11 13 36 11 13 36 11 13 36 11 13 36 11 13 36 11 13 36 11 13 36 11 13 36 11 13 36 11 13 36 11 13 36 11 13 36 11 13 36 11 13 36 12 14 37 11 13 36 12 14 37 11 13 36 12 14 37 12 14 37 12 14 37 13 15 38 12 14 37 12 14 37 12 14 37 13 15 38 12 14 37 14 16 39 12 14 37 12 14 37 12 14 37 12 14 37 12 14 37 12 14 37 12 14 37 12 14 37 11 13 36 12 14 37 11 13 36 10 15 37 10 15 37 12 14 37 12 14 37 13 15 38 13 15 38 11 13 36 12 14 37 12 14 37 12 14 37 12 14 37 12 14 37 12 14 37 12 14 37 12 14 37 12 14 37 
10 12 35 9 11 34 9 11 34 9 11 36 10 12 37 9 11 36 10 12 37 10 12 37 10 12 35 10 12 37 10 12 37 10 12 35 10 12 35 9 11 36 10 12 37 10 12 35 11 13 38 10 12 35 11 13 36 11 13 36 11 13 36 11 13 36 11 13 36 11 13 36 11 13 36 11 13 36 9 14 36 11 13 36 9 14 36 11 13 36 9 14 36 11 13 36 12 14 37 11 13 36 11 13 36 10 12 35 11 13 36 12 14 37 9 14 36 10 12 35 11 13 36 12 14 37 11 13 36 11 13 36 12 14 37 11 13 36 12 14 37 11 13 36 11 13 36 11 13 36 11 13 36 11 13 36 11 13 36 11 13 36 11 13 36 11 13 36 11 13 36 11 13 36 11 13 36 11 13 36 11 13 36 11 13 36 12 14 37 12 14 37 11 13 36 12 14 37 12 14 37 11 13 36 13 15 38 13 15 38 13 15 38 11 13 36 12 14 37 12 14 37 12 14 37 12 14 37 13 15 38 12 14 37 12 14 37 12 14 37 13 15 38 12 14 37 12 14 37 12 14 37 12 14 37 13 15 38 13 15 38 12 14 37 13 15 38 12 14 37 11 13 36 12 14 37 13 15 38 12 14 37 12 14 37 13 15 38 12 14 37 12 14 37 12 14 37 12 14 37 
10 12 37 10 12 35 10 12 35 10 12 35 9 11 36 9 11 36 9 11 36 10 12 33 10 12 37 10 12 37 10 12 37 10 12 37 10 12 37 9 11 36 11 13 38 10 12 37 9 11 36 10 12 35 11 13 36 10 12 35 11 13 36 11 13 36 11 13 36 11 13 36 11 13 36 11 13 36 11 13 36 12 12 36 11 13 36 11 13 36 12 12 36 11 13 36 10 12 35 11 13 36 11 13 36 9 11 34 11 13 36 11 13 36 11 13 36 11 13 36 11 13 36 11 13 36 11 13 36 11 13 36 11 13 36 11 13 36 10 12 35 11 13 36 11 13 36 11 13 36 11 13 36 11 13 36 11 13 36 11 13 36 11 13 36 11 13 36 11 13 36 11 13 36 11 13 36 11 13 36 11 13 36 9 11 34 11 13 36 11 13 36 11 13 36 12 14 37 12 14 37 12 14 37 12 14 37 13 15 38 13 15 38 11 13 36 12 14 37 12 14 37 13 15 38 12 14 37 12 14 37 12 14 37 12 14 37 12 14 37 12 14 37 12 14 37 12 14 37 12 14 37 12 14 37 11 13 36 12 14 37 10 15 37 11 13 36 12 14 37 12 14 37 12 14 37 12 14 37 13 15 38 11 13 36 12 14 37 12 14 37 12 14 37 12 14 37 11 13 36 
9 11 34 9 11 34 10 12 35 10 12 35 10 12 37 10 12 37 9 11 36 10 12 35 10 12 37 10 12 37 9 11 36 10 12 37 11 13 38 10 12 37 10 12 37 10 12 37 9 11 36 10 12 35 10 12 33 10 12 35 12 14 37 11 13 36 10 12 35 11 13 36 11 13 36 11 13 36 9 14 36 11 13 36 9 14 36 11 13 36 9 14 36 11 13 36 11 13 36 11 13 36 12 14 37 11 13 36 11 13 36 11 13 36 13 13 37 9 14 36 11 13 36 11 13 36 11 13 36 11 13 36 11 13 36 11 13 36 11 13 36 11 13 36 11 13 36 11 13 36 11 13 36 11 13 36 11 13 36 11 13 36 11 13 36 11 13 36 11 13 36 11 13 36 11 13 36 11 13 36 11 13 36 11 13 36 11 13 36 11 13 36 11 13 36 12 14 37 12 14 37 11 13 36 12 14 37 11 13 36 12 14 37 13 15 38 12 14 37 12 14 37 12 14 37 12 14 37 12 14 37 12 14 37 13 15 38 12 14 37 12 14 37 12 14 37 13 15 38 13 15 38 12 14 37 13 15 38 12 14 37 12 14 37 12 14 37 13 15 38 12 14 37 12 14 37 13 15 38 13 15 38 12 14 37 12 14 37 12 14 37 12 14 37 12 14 37 12 14 37 
9 11 36 10 12 35 10 12 35 10 12 35 9 11 34 10 12 37 9 11 36 9 11 36 11 13 38 9 11 36 11 13 38 10 12 37 10 12 37 10 12 37 9 11 36 10 12 37 10 12 37 10 12 35 12 14 37 11 13 36 11 13 36 11 13 36 11 13 36 11 13 36 12 12 36 11 13 36 11 13 36 11 13 36 11 13 36 11 13 36 11 13 36 11 13 36 9 14 36 11 13 36 11 13 36 11 13 36 9 14 36 11 13 36 11 13 36 11 13 36 11 13 36 11 13 36 11 13 36 11 13 36 11 13 36 11 13 36 11 13 36 11 13 36 11 13 36 11 13 36 11 13 36 11 13 36 11 13 36 11 13 36 11 13 36 11 13 36 11 13 36 11 13 36 11 13 36 11 13 36 11 13 36 11 13 36 11 13 36 11 13 36 11 13 36 13 15 38 12 14 37 12 14 37 13 15 38 12 14 37 12 14 37 11 13 36 12 14 37 10 15 37 12 14 37 12 14 37 12 14 37 10 15 37 13 13 37 12 14 37 10 15 37 13 13 37 11 13 36 12 14 37 12 14 37 12 14 37 12 14 37 12 14 37 12 14 37 12 14 37 12 14 37 13 15 38 11 13 36 12 14 37 12 14 37 12 14 37 13 13 37 12 14 37 12 14 37 12 14 37 
10 12 35 9 11 34 8 10 33 10 12 35 11 13 36 9 11 34 9 11 36 9 11 36 9 11 36 10 12 37 10 12 37 10 12 37 10 12 37 10 12 37 9 11 36 10 12 37 10 12 37 9 11 34 11 13 36 11 13 36 11 13 36 11 13 36 10 12 35 11 13 36 11 13 36 11 13 36 11 13 36 11 13 36 11 13 36 11 13 36 11 13 36 9 14 36 11 13 36 11 13 36 11 13 36 11 13 36 11 13 36 11 13 36 11 13 36 11 13 36 11 13 36 9 14 36 11 13 36 11 13 36 11 13 36 11 13 36 11 13 36 11 13 36 11 13 36 11 13 36 11 13 36 11 13 36 11 13 36 11 13 36 11 13 36 11 13 36 11 13 36 11 13 36 11 13 36 11 13 36 11 13 36 11 13 36 11 13 36 11 13 36 11 13 36 13 15 38 12 14 37 12 14 37 12 14 37 12 14 37 12 14 37 11 13 36 12 14 37 12 14 37 12 14 37 12 14 37 12 14 37 12 14 37 12 14 37 12 14 37 13 15 38 12 14 37 12 14 37 12 14 37 12 14 37 12 14 37 11 13 36 12 14 37 12 14 37 12 14 37 12 14 37 12 14 37 12 14 37 12 14 37 12 14 37 12 14 37 13 13 37 12 14 37 12 14 37 12 14 37 
10 12 35 10 12 35 9 11 34 10 12 35 10 12 35 9 11 34 10 12 35 10 12 37 10 12 37 10 12 37 9 11 36 9 11 36 9 11 36 10 12 37 9 11 36 10 12 37 10 12 37 10 12 35 12 14 37 11 13 36 11 13 36 11 13 36 11 13 36 11 13 36 11 13 36 11 13 36 11 13 36 11 13 36 11 13 36 11 13 36 11 13 36 11 13 36 11 13 36 11 13 36 11 13 36 11 13 36 11 13 36 11 13 36 11 13 36 11 13 36 11 13 36 11 13 36 11 13 36 9 14 36 11 13 36 11 13 36 9 14 36 11 13 36 11 13 36 11 13 36 11 13 36 11 13 36 11 13 36 11 13 36 11 13 36 11 13 36 11 13 36 11 13 36 11 13 36 11 13 36 11 13 36 11 13 36 11 13 36 11 13 36 11 13 36 12 14 37 12 14 37 13 15 38 13 15 38 12 14 37 12 14 37 12 14 37 12 14 37 12 14 37 12 14 37 10 15 37 12 14 37 12 14 37 12 14 37 12 14 37 12 14 37 13 15 38 12 14 37 13 15 38 11 13 36 13 15 38 13 15 38 10 15 37 12 14 37 12 14 37 12 14 37 12 14 37 12 14 37 12 14 37 12 14 37 12 14 37 10 15 37 11 13 36 12 14 37 13 15 38 
10 12 35 9 11 34 10 12 35 9 11 34 10 12 35 10 12 35 10 12 35 10 12 35 10 12 37 10 12 37 10 12 37 10 12 37 12 14 39 9 11 36 10 12 37 10 12 37 10 12 37 10 12 35 8 13 35 11 13 36 9 14 36 11 13 36 9 14 36 11 13 36 11 13 36 11 13 36 11 13 36 11 13 36 11 13 36 11 13 36 11 13 36 11 13 36 11 13 36 11 13 36 11 13 36 9 14 36 11 13 36 11 13 36 11 13 36 9 14 36 11 13 36 11 13 36 11 13 36 9 14 36 11 13 36 11 13 36 9 14 36 11 13 36 11 13 36 11 13 36 11 13 36 11 13 36 11 13 36 11 13 36 11 13 36 11 13 36 11 13 36 11 13 36 11 13 36 11 13 36 11 13 36 11 13 36 11 13 36 11 13 36 11 13 36 11 13 36 11 13 36 11 13 36 13 15 38 13 15 38 12 14 37 12 14 37 12 14 37 10 15 37 12 14 37 12 14 37 12 14 37 10 15 37 10 15 37 12 14 37 12 14 37 13 15 38 12 14 37 12 14 37 12 14 37 12 14 37 13 13 37 10 15 37 12 14 37 11 13 36 12 14 37 12 14 37 12 14 37 12 14 37 13 15 38 12 14 37 13 15 38 12 14 37 11 13 36 11 13 36 
10 12 35 9 11 34 10 12 35 9 11 34 9 11 34 9 11 34 10 12 35 10 12 35 10 12 35 10 12 37 9 11 36 11 13 38 11 13 38 9 11 36 9 11 36 10 12 37 10 12 37 10 12 35 11 13 36 11 13 36 11 13 36 10 12 35 12 14 37 11 13 36 11 13 36 11 13 36 11 13 36 11 13 36 11 13 36 11 13 36 11 13 36 11 13 36 11 13 36 11 13 36 11 13 36 11 13 36 11 13 36 9 14 36 9 14 36 11 13 36 11 13 36 11 13 36 11 13 36 11 13 36 11 13 36 11 13 36 11 13 36 11 13 36 11 13 36 11 13 36 11 13 36 11 13 36 11 13 36 11 13 36 11 13 36 11 13 36 11 13 36 11 13 36 11 13 36 11 13 36 11 13 36 11 13 36 11 13 36 11 13 36 11 13 36 11 13 36 11 13 36 12 14 37 12 14 37 12 14 37 12 14 37 12 14 37 12 14 37 12 14 37 12 14 37 13 13 37 12 14 37 12 14 37 12 14 37 12 14 37 13 15 38 9 14 36 12 14 37 13 15 38 12 14 37 12 14 37 12 14 37 12 14 37 13 15 38 12 14 37 12 14 37 12 14 37 12 14 37 12 14 37 12 14 37 11 13 36 11 13 36 12 14 37 12 14 37 12 14 37 
10 12 35 9 11 34 9 11 34 9 11 34 10 12 35 10 12 35 10 12 35 9 11 34 10 12 35 9 11 34 9 11 36 9 11 36 10 12 37 9 11 36 9 11 36 10 12 37 10 12 37 11 13 36 9 14 36 11 13 36 9 14 36 11 13 36 9 14 36 11 13 36 11 13 36 11 13 36 11 13 36 11 13 36 11 13 36 11 13 36 11 13 36 11 13 36 11 13 36 11 13 36 11 13 36 11 13 36 11 13 36 11 13 36 11 13 36 11 13 36 11 13 36 11 13 36 11 13 36 11 13 36 11 13 36 11 13 36 11 13 36 11 13 36 11 13 36 11 13 36 11 13 36 11 13 36 11 13 36 11 13 36 11 13 36 11 13 36 11 13 36 11 13 36 11 13 36 11 13 36 11 13 36 11 13 36 11 13 36 11 13 36 11 13 36 11 13 36 11 13 36 12 14 37 13 15 38 12 14 37 11 13 36 12 14 37 12 14 37 12 14 37 10 15 37 12 14 37 12 14 37 12 14 37 12 14 37 12 14 37 12 14 37 10 15 37 12 14 37 12 14 37 13 15 38 12 14 37 13 15 38 13 15 38 12 14 37 12 14 37 12 14 37 12 14 37 12 14 37 12 14 37 12 14 37 12 14 37 12 14 37 12 14 37 12 14 37 12 14 37 
9 11 34 10 12 35 9 11 34 9 11 34 9 11 34 10 12 35 9 11 34 9 11 34 10 12 35 10 12 35 10 12 35 10 12 37 10 12 37 10 12 37 9 11 36 10 12 35 10 12 37 10 12 35 11 13 36 11 13 36 11 13 36 10 12 35 11 13 36 11 13 36 11 13 36 11 13 36 11 13 36 11 13 36 11 13 36 11 13 36 11 13 36 12 12 36 11 13 36 11 13 36 11 13 36 11 13 36 11 13 36 11 13 36 11 13 36 11 13 36 11 13 36 11 13 36 11 13 36 11 13 36 11 13 36 11 13 36 11 13 36 11 13 36 11 13 36 11 13 36 11 13 36 11 13 36 11 13 36 11 13 36 11 13 36 11 13 36 11 13 36 11 13 36 11 13 36 11 13 36 11 13 36 11 13 36 11 13 36 11 13 36 11 13 36 11 13 36 11 13 36 11 13 36 10 12 35 10 12 35 12 14 37 12 14 37 10 15 37 12 14 37 12 14 37 12 14 37 12 14 37 10 15 37 10 15 37 12 14 37 10 15 37 12 14 37 12 14 37 12 14 37 12 14 37 12 14 37 12 14 37 12 14 37 12 14 37 12 14 37 12 14 37 13 15 38 11 13 36 12 14 37 12 14 37 12 14 37 12 14 37 12 14 37 12 14 37 12 14 37 
9 11 34 9 11 34 10 12 35 9 11 34 9 11 34 10 12 35 8 10 33 9 11 34 10 12 33 10 12 35 9 11 34 10 12 37 10 12 37 9 11 36 10 12 35 9 11 34 10 12 37 11 13 36 11 13 36 11 13 36 11 13 36 10 12 35 12 14 37 11 13 36 9 14 36 11 13 36 11 13 36 11 13 36 11 13 36 11 13 36 11 13 36 11 13 36 11 13 36 9 14 36 9 14 36 11 13 36 11 13 36 11 13 36 11 13 36 11 13 36 11 13 36 9 14 36 11 13 36 11 13 36 9 14 36 11 13 36 11 13 36 11 13 36 11 13 36 11 13 36 11 13 36 11 13 36 11 13 36 11 13 36 11 13 36 11 13 36 11 13 36 11 13 36 11 13 36 11 13 36 11 13 36 11 13 36 11 13 36 11 13 36 11 13 36 11 13 36 10 12 35 11 13 36 11 13 36 11 13 36 12 14 37 12 14 37 12 14 37 12 14 37 10 15 37 12 14 37 12 14 37 12 14 37 10 15 37 12 14 37 12 14 37 12 14 37 12 14 37 12 14 37 12 14 37 12 14 37 10 15 37 12 14 37 12 14 37 12 14 37 12 14 37 12 14 37 12 14 37 12 14 37 12 14 37 12 14 37 10 15 37 11 13 36 12 14 37 12 14 37 
9 11 34 9 11 34 9 11 34 8 10 33 9 11 34 10 12 35 9 11 34 9 11 34 10 12 35 10 12 35 9 11 34 9 11 34 10 12 35 9 11 34 10 12 37 9 10 38 9 10 38 10 12 37 11 13 36 11 13 36 11 13 36 11 13 36 11 13 36 11 13 36 11 13 36 11 13 36 11 13 36 11 13 36 11 13 36 11 13 36 11 13 36 11 13 36 11 13 36 11 13 36 11 13 36 11 13 36 11 13 36 11 13 36 11 13 36 11 13 36 11 13 36 11 13 36 11 13 36 11 13 36 11 13 36 11 13 36 9 14 36 11 13 36 9 14 36 11 13 36 11 13 36 9 14 36 11 13 36 11 13 36 9 14 36 11 13 36 11 13 36 11 13 36 11 13 36 11 13 36 11 13 36 11 13 36 11 13 36 11 13 36 11 13 36 11 13 36 11 13 36 11 13 36 11 13 36 11 13 36 11 13 38 11 13 36 12 14 35 11 13 36 12 14 37 12 14 37 12 14 37 12 14 37 12 14 37 12 14 37 12 14 37 12 14 37 12 14 37 12 14 37 13 15 38 12 14 37 12 14 37 12 14 37 12 14 37 11 13 36 12 14 37 12 14 37 12 14 37 12 14 37 12 14 37 12 14 37 12 14 37 12 14 37 10 15 37 13 15 38 
10 12 35 10 12 35 9 11 34 10 12 35 9 11 34 10 12 35 10 12 35 10 12 35 9 11 34 9 11 34 9 11 34 9 11 34 9 11 34 10 12 35 9 11 36 9 10 38 9 10 38 10 12 37 11 13 36 11 13 36 11 13 36 11 13 36 11 13 36 11 13 36 11 13 36 11 13 36 11 13 36 11 13 36 11 13 36 11 13 36 11 13 36 11 13 36 11 13 36 11 13 36 11 13 36 11 13 36 11 13 36 11 13 36 11 13 36 11 13 36 11 13 36 9 14 36 11 13 36 11 13 36 11 13 36 11 13 36 11 13 36 11 13 36 11 13 36 11 13 36 11 13 36 8 14 36 11 13 36 9 14 36 11 13 36 11 13 36 11 13 36 11 13 36 11 13 36 11 13 36 11 13 36 11 13 36 11 13 36 11 13 36 11 13 36 11 13 36 11 13 36 11 13 36 11 13 36 11 13 36 11 13 38 11 13 36 12 14 37 11 13 36 12 14 37 12 14 37 12 14 37 12 14 37 11 13 36 12 14 37 12 14 37 12 14 37 10 15 37 13 15 38 11 13 36 12 14 37 12 14 37 12 14 37 11 13 36 12 14 37 11 13 36 12 14 37 12 14 37 12 14 37 12 14 37 12 14 37 12 14 37 12 14 37 12 14 37 12 14 37 
10 12 35 10 12 35 10 12 35 9 11 34 9 11 34 10 12 35 9 11 34 9 11 34 10 12 35 9 11 34 8 10 33 9 11 34 10 12 35 10 12 35 10 12 35 9 11 36 9 11 36 10 12 35 11 13 36 11 13 36 11 13 36 11 13 36 11 13 36 11 13 36 11 13 36 11 13 36 11 13 36 11 13 36 11 13 36 11 13 36 11 13 36 11 13 36 11 13 36 11 13 36 11 13 36 11 13 36 11 13 36 11 13 36 11 13 36 11 13 36 9 14 36 11 13 36 11 13 36 11 13 36 11 13 36 11 13 36 11 13 36 11 13 36 11 13 36 11 13 36 11 13 36 11 13 36 9 14 36 11 13 36 11 13 36 11 13 36 11 13 36 11 13 36 11 13 36 11 13 36 11 13 36 11 13 36 11 13 36 11 13 36 11 13 36 11 13 36 11 13 36 11 13 36 11 13 36 11 13 36 11 13 38 11 13 36 12 12 36 11 13 36 10 15 37 10 15 37 12 14 37 12 14 37 12 14 37 12 14 37 10 15 37 12 14 37 12 14 37 12 14 37 13 15 38 12 14 37 11 13 36 12 14 37 12 14 37 12 14 37 12 14 37 12 14 37 12 14 37 12 14 37 12 14 37 12 14 37 12 14 37 12 14 37 12 14 37 12 14 37 
9 11 34 9 11 34 9 11 34 10 12 35 9 11 34 10 12 35 9 11 34 9 11 34 10 12 35 9 11 34 10 12 35 9 11 34 10 12 35 10 12 35 9 11 34 9 11 34 9 11 34 10 12 35 11 13 36 11 13 36 11 13 36 11 13 36 11 13 36 11 13 36 11 13 36 11 13 36 11 13 36 11 13 36 11 13 36 11 13 36 11 13 36 11 13 36 11 13 36 11 13 36 11 13 36 11 13 36 11 13 36 11 13 36 11 13 36 11 13 36 9 14 36 11 13 36 11 13 36 11 13 36 11 13 36 11 13 36 11 13 36 11 13 36 11 13 36 11 13 36 11 13 36 11 13 36 12 12 36 9 14 36 12 12 36 9 14 36 11 13 36 11 13 36 11 13 36 11 13 36 11 13 36 11 13 36 11 13 36 11 13 36 11 13 36 11 13 36 11 13 36 11 13 36 11 13 36 11 13 36 11 13 38 11 13 36 11 13 38 11 13 36 11 13 36 12 14 37 12 14 37 12 14 37 12 14 37 12 14 37 12 14 37 12 14 37 12 14 37 13 15 38 9 14 36 10 15 37 12 14 37 12 14 37 12 14 37 12 14 37 12 14 37 12 14 37 11 13 36 12 14 37 12 14 37 12 14 37 11 13 36 12 14 37 12 14 37 11 13 36 
10 12 35 10 12 35 10 12 35 9 11 34 10 12 35 9 11 34 8 10 33 9 11 34 9 11 34 9 11 34 10 12 35 10 12 35 9 11 34 9 11 34 8 10 33 9 11 34 9 11 34 10 12 35 11 13 36 11 13 36 11 13 36 11 13 36 11 13 36 11 13 36 11 13 36 11 13 36 11 13 36 11 13 36 11 13 36 11 13 36 11 13 36 11 13 36 11 13 36 11 13 36 11 13 36 11 13 36 11 13 36 11 13 36 11 13 36 11 13 36 11 13 36 11 13 36 11 13 36 11 13 36 11 13 36 11 13 36 11 13 36 9 14 36 11 13 36 11 13 36 11 13 36 11 13 36 11 13 36 11 13 36 11 13 36 9 14 36 11 13 36 11 13 36 11 13 36 11 13 36 11 13 36 11 13 36 11 13 36 11 13 36 11 13 36 11 13 36 11 13 36 11 13 36 11 13 36 11 13 36 11 13 38 11 13 36 11 13 38 11 13 36 11 13 36 11 13 36 11 13 36 12 14 37 12 14 37 12 14 37 13 15 38 12 14 37 11 13 36 11 13 36 12 14 37 12 14 37 12 14 37 10 15 37 11 13 36 12 14 37 12 14 37 12 14 37 12 14 37 13 15 38 12 14 37 12 14 37 12 14 37 12 14 37 11 13 36 10 15 37 
10 12 35 9 11 34 10 12 35 9 11 34 9 11 34 10 12 35 10 12 35 10 12 35 10 12 35 10 12 35 9 11 34 9 11 34 9 11 34 9 11 34 9 11 34 9 11 34 9 11 34 10 12 35 11 13 36 11 13 36 11 13 36 11 13 36 11 13 36 11 13 36 11 13 36 11 13 36 11 13 36 11 13 36 11 13 36 11 13 36 11 13 36 11 13 36 11 13 36 11 13 36 11 13 36 11 13 36 11 13 36 11 13 36 11 13 36 11 13 36 11 13 36 11 13 36 11 13 36 11 13 36 11 13 36 11 13 36 11 13 36 9 14 36 12 12 36 11 13 36 11 13 36 11 13 36 11 13 36 11 13 36 11 13 36 9 14 36 11 13 36 11 13 36 11 13 36 11 13 36 11 13 36 11 13 36 11 13 36 11 13 36 11 13 36 11 13 36 11 13 36 11 13 36 11 13 36 11 13 36 11 13 38 11 13 36 9 13 38 11 13 36 12 12 36 12 12 36 11 13 36 12 14 37 12 14 37 12 14 37 12 14 37 12 14 37 10 15 37 12 14 37 12 14 37 11 13 36 12 14 37 13 15 38 12 14 37 11 13 36 12 14 37 11 13 36 12 14 37 11 13 36 12 14 37 12 14 37 12 14 37 14 16 39 12 14 37 10 15 37 
10 12 35 8 10 33 9 11 34 9 11 34 10 12 35 9 11 34 10 12 35 10 12 35 10 12 35 9 11 34 10 12 35 9 11 34 10 12 35 10 12 35 10 12 35 9 11 34 9 11 34 10 12 35 11 13 36 11 13 36 11 13 36 11 13 36 11 13 36 11 13 36 11 13 36 11 13 36 11 13 36 11 13 36 11 13 36 11 13 36 11 13 36 11 13 36 11 13 36 11 13 36 11 13 36 11 13 36 11 13 36 11 13 36 11 13 36 11 13 36 11 13 36 11 13 36 11 13 36 11 13 36 11 13 36 11 13 36 9 14 36 11 13 36 12 12 36 11 13 36 11 13 36 11 13 36 11 13 36 11 13 36 11 13 36 9 14 36 11 13 36 11 13 36 11 13 36 11 13 36 11 13 36 11 13 36 11 13 36 11 13 36 11 13 36 11 13 36 11 13 36 11 13 36 11 13 36 11 13 36 11 13 38 11 13 36 11 13 36 11 13 36 11 13 36 11 13 38 11 13 38 11 13 36 12 14 37 12 14 39 10 15 37 12 14 37 12 14 37 12 14 37 12 14 37 12 14 37 12 14 37 12 14 37 13 15 38 12 14 37 12 14 37 13 15 38 12 14 37 12 14 37 14 16 39 12 14 37 12 14 37 12 14 37 12 14 37 12 14 37 
9 11 34 9 11 34 9 11 34 9 11 34 10 12 35 10 12 35 9 11 34 9 11 34 9 11 34 9 11 34 9 11 34 9 11 34 9 11 34 9 11 34 10 12 35 10 12 35 9 11 34 10 12 35 11 13 36 11 13 36 11 13 36 11 13 36 11 13 36 11 13 36 11 13 36 11 13 36 11 13 36 11 13 36 11 13 36 11 13 36 11 13 36 11 13 36 11 13 36 11 13 36 11 13 36 11 13 36 11 13 36 11 13 36 11 13 36 11 13 36 11 13 36 9 14 36 11 13 36 11 13 36 11 13 36 11 13 36 11 13 36 11 13 36 11 13 36 11 13 36 11 13 36 11 13 36 11 13 36 12 12 36 9 14 36 9 14 36 11 13 36 11 13 36 11 13 36 11 13 36 11 13 36 11 13 36 11 13 36 11 13 36 11 13 36 11 13 36 11 13 36 11 13 36 11 13 36 11 13 36 11 13 38 11 13 36 11 13 36 11 13 36 11 13 36 11 13 38 11 13 38 11 13 36 12 14 37 11 13 38 12 14 37 12 14 37 12 14 37 12 14 37 12 14 37 12 14 37 12 14 37 12 14 37 12 14 37 11 13 36 12 14 37 12 14 37 12 14 37 12 14 37 12 14 37 12 14 37 12 14 37 12 14 37 13 13 37 12 14 37 
9 11 34 10 12 35 9 11 34 9 11 34 9 11 34 9 11 34 9 11 34 10 12 35 9 11 34 10 12 35 9 11 34 9 11 34 10 12 35 9 11 34 10 12 35 9 11 34 9 11 34 10 12 35 11 13 36 11 13 36 11 13 36 11 13 36 11 13 36 11 13 36 11 13 36 11 13 36 11 13 36 11 13 36 11 13 36 11 13 36 11 13 36 11 13 36 11 13 36 9 14 36 11 13 36 11 13 36 11 13 36 11 13 36 9 14 36 11 13 36 12 12 36 11 13 36 11 13 36 9 14 36 11 13 36 11 13 36 11 13 36 9 14 36 11 13 36 11 13 36 11 13 36 11 13 36 11 13 36 11 13 36 11 13 36 11 13 36 11 13 36 11 13 36 11 13 36 11 13 36 11 13 36 11 13 36 11 13 36 11 13 36 11 13 36 11 13 36 11 13 36 11 13 36 11 13 36 11 13 36 11 13 36 11 13 36 11 13 36 11 13 36 11 13 36 11 13 36 11 13 36 11 13 36 11 13 36 11 13 36 9 14 36 12 14 37 12 14 37 10 15 37 12 14 37 11 13 36 12 14 37 12 14 37 12 14 37 12 14 37 12 14 37 12 14 37 12 14 37 12 14 37 12 14 37 12 14 37 12 14 37 12 14 37 12 14 37 12 14 37 
8 10 33 9 11 34 9 11 34 9 11 34 9 11 34 9 11 34 10 12 35 9 11 34 10 12 35 10 12 35 8 10 33 9 11 34 9 11 34 10 12 35 10 12 35 9 11 34 9 11 34 10 12 35 11 13 36 11 13 36 11 13 36 11 13 36 11 13 36 11 13 36 11 13 36 11 13 36 11 13 36 11 13 36 11 13 36 11 13 36 11 13 36 11 13 36 11 13 36 11 13 36 11 13 36 11 13 36 9 14 36 11 13 36 11 13 36 11 13 36 11 13 36 11 13 36 11 13 36 11 13 36 11 13 36 11 13 36 11 13 36 11 13 36 11 13 36 11 13 36 11 13 36 11 13 36 11 13 36 11 13 36 11 13 36 11 13 36 11 13 36 11 13 36 11 13 36 11 13 36 11 13 36 11 13 36 11 13 36 11 13 36 11 13 36 11 13 36 11 13 36 11 13 36 11 13 36 11 13 36 11 13 36 11 13 36 11 13 38 9 14 36 11 13 36 11 13 36 9 14 36 9 14 36 11 13 36 9 14 36 11 13 36 12 14 37 12 14 37 12 14 37 12 14 37 11 13 36 12 14 37 12 14 37 10 15 37 12 14 37 12 14 37 12 14 37 12 14 37 12 14 37 12 14 37 10 15 37 12 14 37 12 14 37 12 14 37 12 14 37 
8 10 33 10 12 35 9 11 34 10 12 35 10 12 35 9 11 34 9 11 34 9 11 34 10 12 35 10 12 35 9 11 34 9 11 34 10 12 35 9 11 34 8 10 33 10 12 35 9 11 34 10 12 35 11 13 36 11 13 36 11 13 36 11 13 36 11 13 36 11 13 36 11 13 36 11 13 36 11 13 36 11 13 36 11 13 36 11 13 36 11 13 36 11 13 36 11 13 36 11 13 36 11 13 36 11 13 36 11 13 36 11 13 36 11 13 36 11 13 36 11 13 36 11 13 36 11 13 36 9 14 36 11 13 36 11 13 36 11 13 36 9 14 36 11 13 36 11 13 36 11 13 36 11 13 36 11 13 36 11 13 36 11 13 36 11 13 36 11 13 36 11 13 36 11 13 36 11 13 36 11 13 36 11 13 36 11 13 36 11 13 36 11 13 36 11 13 36 11 13 36 11 13 36 11 13 36 11 13 36 11 13 36 11 13 36 11 13 38 11 13 38 11 13 38 11 13 36 11 13 36 11 13 36 11 13 36 11 13 36 11 13 36 12 14 37 12 14 37 12 14 37 12 14 37 12 14 37 12 14 37 12 14 37 12 14 37 12 14 37 12 14 37 12 14 37 12 14 37 12 14 37 12 14 37 12 14 37 12 14 37 12 14 37 12 14 37 12 14 37 
10 12 35 9 11 34 8 10 33 10 12 35 8 10 33 9 11 34 9 11 34 9 11 34 9 11 34 9 11 34 9 11 34 9 11 34 9 11 34 9 11 34 10 12 35 9 11 34 9 11 34 10 12 35 11 13 36 11 13 36 11 13 36 11 13 36 11 13 36 11 13 36 11 13 36 11 13 36 11 13 36 11 13 36 11 13 36 11 13 36 11 13 36 11 13 36 11 13 36 11 13 36 11 13 36 11 13 36 11 13 36 11 13 36 11 13 36 11 13 36 9 14 36 9 14 36 9 14 36 9 14 36 9 14 36 9 14 36 11 13 36 11 13 36 11 13 36 11 13 36 11 13 36 11 13 36 11 13 36 11 13 36 11 13 36 11 13 36 11 13 36 11 13 36 11 13 36 11 13 36 11 13 36 11 13 36 11 13 36 11 13 36 11 13 36 11 13 36 11 13 36 11 13 36 11 13 36 11 13 36 11 13 36 11 13 36 11 13 38 11 13 38 11 13 38 11 13 38 11 13 38 11 13 38 11 13 36 11 13 36 11 13 36 10 15 37 10 15 37 12 14 37 12 14 37 12 14 37 12 14 37 12 14 37 12 14 37 12 14 37 12 14 37 12 14 37 12 14 37 12 14 37 12 14 37 12 14 37 12 14 37 12 14 37 12 14 37 12 14 37 
9 11 34 9 11 34 10 12 35 9 11 34 9 11 34 10 12 35 10 12 35 10 12 35 10 12 35 10 12 35 10 12 35 10 12 35 10 12 35 9 11 34 10 12 35 9 11 34 9 11 34 10 12 35 11 13 36 11 13 36 11 13 36 11 13 36 11 13 36 11 13 36 11 13 36 11 13 36 11 13 36 11 13 36 11 13 36 11 13 36 11 13 36 11 13 36 11 13 36 11 13 36 11 13 36 11 13 36 11 13 36 11 13 36 11 13 36 11 13 36 11 13 36 11 13 36 11 13 36 11 13 36 11 13 36 11 13 36 11 13 36 11 13 36 11 13 36 11 13 36 11 13 36 11 13 36 11 13 36 11 13 36 11 13 36 11 13 36 11 13 36 11 13 36 11 13 36 11 13 36 11 13 36 11 13 36 11 13 36 11 13 36 11 13 36 11 13 36 11 13 36 11 13 36 11 13 36 11 13 36 11 13 36 11 13 36 11 13 36 11 13 36 11 13 38 11 13 38 11 13 38 11 13 38 11 13 38 11 13 38 11 13 36 9 14 36 10 15 37 12 14 37 12 14 37 12 14 37 12 14 37 12 14 37 12 14 37 12 14 37 12 14 37 12 14 37 12 14 37 12 14 37 12 14 37 12 14 37 12 14 37 12 14 37 12 14 37 12 14 37 
9 11 34 9 11 34 9 11 34 9 11 34 9 11 34 10 12 35 9 11 34 9 11 34 9 11 34 9 11 34 9 11 34 10 12 35 10 12 35 9 11 34 9 11 34 9 11 34 9 11 34 10 12 35 11 13 36 11 13 36 11 13 36 11 13 36 11 13 36 11 13 36 11 13 36 11 13 36 11 13 36 11 13 36 11 13 36 11 13 36 11 13 36 11 13 36 11 13 36 11 13 36 11 13 36 11 13 36 11 13 36 11 13 36 11 13 36 11 13 36 11 13 36 9 14 36 9 14 36 9 14 36 11 13 36 11 13 36 11 13 36 11 13 36 11 13 36 11 13 36 11 13 36 11 13 36 11 13 36 11 13 36 11 13 36 11 13 36 11 13 36 11 13 36 11 13 36 11 13 36 11 13 36 11 13 36 11 13 36 11 13 36 11 13 36 11 13 36 11 13 36 11 13 36 11 13 36 11 13 36 11 13 36 11 13 36 11 13 36 11 13 36 11 13 36 11 13 36 11 13 36 11 13 38 11 13 38 11 13 38 11 13 36 11 13 36 11 13 36 12 14 37 12 14 37 12 14 37 11 13 36 12 14 37 12 14 37 12 14 37 12 14 37 12 14 37 12 14 37 12 14 37 12 14 37 12 14 37 12 14 37 12 14 37 12 14 37 12 14 37 
10 12 35 9 11 34 9 11 34 10 12 35 9 11 34 10 12 35 9 11 34 10 12 35 9 11 34 10 12 35 10 12 35 10 12 35 8 10 33 9 11 34 9 11 34 10 12 35 9 11 34 10 12 35 11 13 36 11 13 36 11 13 36 11 13 36 11 13 36 11 13 36 11 13 36 11 13 36 11 13 36 11 13 36 11 13 36 11 13 36 11 13 36 11 13 36 11 13 36 11 13 36 11 13 36 9 14 36 11 13 36 11 13 36 11 13 36 11 13 36 11 13 36 11 13 36 11 13 36 11 13 36 9 14 36 8 14 36 9 14 36 12 12 36 11 13 36 11 13 36 11 13 36 11 13 36 11 13 36 11 13 36 11 13 36 11 13 36 11 13 36 11 13 36 11 13 36 11 13 36 11 13 36 11 13 36 11 13 36 11 13 36 11 13 36 11 13 36 11 13 36 11 13 36 11 13 36 11 13 36 11 13 36 11 13 36 11 13 36 9 14 36 11 13 36 11 13 36 9 14 36 9 14 36 11 13 36 9 13 38 11 13 36 11 13 36 11 13 36 11 13 36 12 14 37 12 14 37 12 14 37 12 14 37 12 14 37 12 14 37 10 15 37 12 14 37 12 14 37 10 15 37 12 14 37 12 14 37 12 14 37 12 14 37 12 14 37 12 14 37 
9 11 34 9 11 34 9 11 34 9 11 34 10 12 35 10 12 35 9 11 34 10 12 35 10 12 35 9 11 34 10 12 35 9 11 34 9 11 34 9 11 34 10 12 35 10 12 35 9 11 34 10 12 35 11 13 36 11 13 36 11 13 36 11 13 36 11 13 36 11 13 36 11 13 36 11 13 36 11 13 36 11 13 36 11 13 36 11 13 36 11 13 36 11 13 36 11 13 36 9 14 36 11 13 36 11 13 36 11 13 36 11 13 36 9 14 36 11 13 36 11 13 36 11 13 36 11 13 36 11 13 36 11 13 36 11 13 36 11 13 36 11 13 36 11 13 36 11 13 36 11 13 36 11 13 36 11 13 36 11 13 36 11 13 36 11 13 36 11 13 36 11 13 36 11 13 36 11 13 36 11 13 36 11 13 36 11 13 36 11 13 36 11 13 36 11 13 36 11 13 36 11 13 36 11 13 36 11 13 36 11 13 36 11 13 36 11 13 36 11 13 36 11 13 36 11 13 36 11 13 36 11 13 36 11 13 36 11 13 36 9 14 36 11 13 36 11 13 36 9 14 36 11 13 36 12 14 37 12 14 37 12 14 37 12 14 37 12 14 37 12 14 37 12 14 37 12 14 37 12 14 37 12 14 37 12 14 37 12 14 37 12 14 37 12 14 37 12 14 37 
9 11 34 9 11 34 9 11 34 9 11 34 10 12 35 9 11 34 10 12 35 9 11 34 9 11 34 10 12 35 10 12 35 9 11 34 10 12 35 9 11 34 10 12 35 10 12 35 9 11 34 10 12 35 11 13 36 10 12 35 11 13 36 11 13 36 11 13 36 11 13 36 11 13 36 11 13 36 11 13 36 11 13 36 11 13 36 11 13 36 11 13 36 11 13 36 11 13 36 11 13 36 11 13 36 11 13 36 11 13 36 11 13 36 11 13 36 11 13 36 11 13 36 11 13 36 9 14 36 12 12 36 11 13 36 11 13 36 11 13 36 11 13 36 11 13 36 11 13 36 11 13 36 11 13 36 11 13 36 9 14 36 9 14 36 11 13 36 11 13 36 11 13 36 11 13 36 11 13 36 11 13 36 11 13 36 11 13 36 11 13 36 11 13 36 11 13 36 11 13 36 11 13 36 11 13 36 11 13 36 11 13 36 11 13 36 9 14 36 11 13 36 11 13 36 11 13 36 11 13 36 9 14 36 11 13 36 11 13 36 11 13 36 11 13 38 11 13 38 11 13 38 11 13 36 11 13 36 12 14 37 13 15 38 12 14 35 12 14 37 12 14 37 10 15 37 10 15 37 12 14 37 11 13 36 12 14 37 12 14 37 12 14 37 12 14 37 12 14 37 
9 11 34 9 11 34 9 11 34 9 11 34 9 11 34 9 11 34 9 11 34 9 11 34 9 11 34 9 11 34 9 11 34 9 11 34 9 11 34 9 11 34 9 11 34 9 11 34 9 11 34 10 12 35 11 13 36 11 13 36 11 13 36 11 13 36 11 13 36 11 13 36 11 13 36 11 13 36 11 13 36 11 13 36 11 13 36 11 13 36 9 14 36 11 13 36 11 13 36 11 13 36 11 13 36 11 13 36 11 13 36 11 13 36 11 13 36 11 13 36 11 13 36 11 13 36 11 13 36 11 13 36 9 14 36 11 13 36 11 13 36 11 13 36 11 13 36 11 13 36 11 13 36 11 13 36 11 13 36 11 13 36 11 13 36 11 13 36 11 13 36 11 13 36 11 13 36 11 13 36 11 13 36 11 13 36 11 13 36 11 13 36 11 13 36 11 13 36 11 13 36 11 13 36 11 13 36 11 13 36 11 13 36 11 13 36 11 13 36 11 13 36 11 13 36 11 13 36 11 13 36 11 13 36 11 13 36 11 13 36 11 13 36 9 14 36 9 13 38 11 13 38 11 13 36 9 14 36 10 15 37 13 15 38 13 15 38 12 14 37 12 14 37 11 13 36 11 13 36 13 15 38 12 14 37 8 14 36 12 14 37 12 14 37 12 14 37 12 14 37 
9 11 34 10 12 35 9 11 34 10 12 35 9 11 34 9 11 34 9 11 34 9 11 34 10 12 35 9 11 34 9 11 34 10 12 35 10 12 35 10 12 35 9 11 34 10 12 35 9 11 34 10 12 35 11 13 36 11 13 36 11 13 36 11 13 36 11 13 36 11 13 36 11 13 36 11 13 36 11 13 36 9 14 36 11 13 36 11 13 36 9 14 36 11 13 36 11 13 36 11 13 36 11 13 36 11 13 36 11 13 36 11 13 36 11 13 36 11 13 36 11 13 36 11 13 36 11 13 36 11 13 36 11 13 36 11 13 36 11 13 36 9 14 36 11 13 36 11 13 36 11 13 36 11 13 36 11 13 36 9 14 36 9 14 36 11 13 36 11 13 36 11 13 36 11 13 36 11 13 36 11 13 36 11 13 36 11 13 36 11 13 36 11 13 36 11 13 36 11 13 36 11 13 36 11 13 36 11 13 36 11 13 36 11 13 36 11 13 36 11 13 36 11 13 36 11 13 36 11 13 36 11 13 36 11 13 36 11 13 36 9 14 36 11 13 36 11 13 38 9 13 38 9 13 38 11 13 36 11 13 36 10 15 37 12 14 37 12 14 37 12 14 37 12 14 37 11 13 36 13 15 38 12 14 37 12 14 37 12 14 37 12 14 37 12 14 37 12 14 37 
9 11 34 9 11 34 9 11 34 9 11 34 9 11 34 9 11 34 9 11 34 9 11 34 9 11 34 10 12 35 10 12 35 9 11 34 9 11 34 10 12 35 9 11 34 9 11 34 9 11 34 10 12 35 11 13 36 11 13 36 11 13 36 11 13 36 11 13 36 11 13 36 11 13 36 11 13 36 11 13 36 11 13 36 11 13 36 11 13 36 11 13 36 11 13 36 11 13 36 11 13 36 11 13 36 11 13 36 11 13 36 11 13 36 11 13 36 11 13 36 11 13 36 11 13 36 11 13 36 9 14 36 11 13 36 9 14 36 12 12 36 11 13 36 9 14 36 11 13 36 11 13 36 11 13 36 11 13 36 11 13 36 11 13 36 11 13 36 11 13 36 11 13 36 11 13 36 11 13 36 11 13 36 11 13 36 11 13 36 11 13 36 11 13 36 11 13 36 11 13 36 11 13 36 11 13 36 11 13 36 11 13 36 11 13 36 11 13 36 11 13 36 9 14 36 11 13 36 11 13 36 11 13 36 11 13 36 9 14 36 11 13 36 11 13 36 11 13 36 11 13 38 11 13 38 11 13 36 11 13 36 11 13 36 11 13 38 12 14 37 12 14 37 12 14 37 12 14 37 12 14 37 11 13 36 13 13 37 12 14 37 12 14 37 12 14 37 12 14 37 
9 11 34 9 11 34 9 11 34 9 11 34 9 11 34 9 11 34 9 11 34 9 11 34 9 11 34 9 11 34 9 11 34 8 10 33 9 11 34 9 11 34 9 11 34 9 11 34 9 11 34 10 12 35 11 13 36 11 13 36 11 13 36 11 13 36 11 13 36 11 13 36 11 13 36 11 13 36 11 13 36 11 13 36 11 13 36 11 13 36 11 13 36 11 13 36 11 13 36 11 13 36 11 13 36 11 13 36 11 13 36 11 13 36 11 13 36 11 13 36 9 14 36 11 13 36 9 14 36 12 12 36 11 13 36 11 13 36 11 13 36 11 13 36 11 13 36 11 13 36 11 13 36 11 13 36 11 13 36 11 13 36 9 14 36 9 14 36 11 13 36 11 13 36 11 13 36 11 13 36 11 13 36 11 13 36 11 13 36 11 13 36 11 13 36 11 13 36 11 13 36 11 13 36 11 13 36 11 13 36 11 13 36 11 13 36 9 14 36 11 13 36 11 13 36 11 13 36 11 13 36 9 14 36 11 13 36 11 13 36 11 13 36 11 13 36 11 13 36 11 13 38 11 13 38 11 13 36 11 13 36 11 13 36 11 13 38 12 14 37 10 15 37 10 15 37 12 14 37 12 14 37 9 14 36 12 14 37 12 14 37 12 14 37 12 14 37 12 14 37 
9 11 34 9 11 34 9 11 34 9 11 34 10 12 35 9 11 34 10 12 35 9 11 34 10 12 35 9 11 34 9 11 34 9 11 34 10 12 35 9 11 34 9 11 34 9 11 34 8 13 35 10 12 35 9 14 36 9 14 36 10 12 35 11 13 36 9 14 36 11 13 36 11 13 36 9 14 36 11 13 36 11 13 36 9 14 36 11 13 36 11 13 36 11 13 36 11 13 36 11 13 36 11 13 36 11 13 36 11 13 36 11 13 36 11 13 36 11 13 36 11 13 36 11 13 36 11 13 36 9 14 36 11 13 36 11 13 36 12 12 36 11 13 36 11 13 36 11 13 36 11 13 36 11 13 36 11 13 36 11 13 36 11 13 36 11 13 36 11 13 36 11 13 36 11 13 36 11 13 36 11 13 36 11 13 36 11 13 36 11 13 36 11 13 36 11 13 36 11 13 36 11 13 36 11 13 36 11 13 36 11 13 36 11 13 36 11 13 36 11 13 36 11 13 36 11 13 36 11 13 36 11 13 36 11 13 36 11 13 36 9 14 36 11 13 36 11 13 36 9 13 38 9 13 38 11 13 38 11 13 36 9 14 36 11 13 38 9 14 36 9 14 36 12 14 37 12 14 37 12 14 37 12 14 37 10 15 37 12 14 37 12 14 37 12 14 37 12 14 37 
9 11 34 9 11 34 9 11 34 9 11 34 9 11 34 9 11 34 9 11 34 9 11 34 9 11 34 9 11 34 9 11 34 9 11 34 9 11 34 9 11 34 9 11 34 9 11 34 10 12 35 10 12 35 11 13 36 11 13 36 10 12 35 11 13 36 11 13 36 11 13 36 11 13 36 9 14 36 11 13 36 11 13 36 11 13 36 11 13 36 11 13 36 11 13 36 11 13 36 11 13 36 11 13 36 11 13 36 11 13 36 11 13 36 11 13 36 11 13 36 9 14 36 11 13 36 11 13 36 11 13 36 11 13 36 11 13 36 11 13 36 11 13 36 11 13 36 11 13 36 11 13 36 9 14 36 9 14 36 11 13 36 11 13 36 9 14 36 11 13 36 11 13 36 11 13 36 11 13 36 11 13 36 11 13 36 11 13 36 11 13 36 11 13 36 11 13 36 11 13 36 11 13 36 11 13 36 11 13 36 11 13 36 11 13 36 11 13 36 11 13 36 11 13 36 11 13 36 11 13 36 11 13 36 11 13 36 11 13 36 11 13 36 9 14 36 9 14 36 11 13 36 11 13 38 9 13 38 9 14 36 11 13 36 12 14 37 11 13 38 11 13 38 12 14 37 12 14 37 12 14 37 12 14 37 12 14 37 12 14 37 12 14 37 12 14 37 12 14 37 
9 11 34 10 12 35 9 11 34 10 12 35 9 11 34 9 11 34 9 11 34 9 11 34 8 10 33 10 12 35 9 11 34 9 11 34 9 11 34 9 11 34 9 11 34 10 12 35 10 12 35 8 13 35 11 13 36 11 13 36 8 13 35 9 14 36 11 13 36 9 14 36 11 13 36 11 13 36 11 13 36 11 13 36 11 13 36 11 13 36 11 13 36 11 13 36 11 13 36 11 13 36 11 13 36 11 13 36 11 13 36 11 13 36 11 13 36 11 13 36 11 13 36 11 13 36 9 14 36 11 13 36 11 13 36 11 13 36 11 13 36 11 13 36 11 13 36 11 13 36 11 13 36 11 13 36 11 13 36 11 13 36 11 13 36 11 13 36 11 13 36 11 13 36 11 13 36 11 13 36 11 13 36 11 13 36 11 13 36 11 13 36 11 13 36 11 13 36 11 13 36 11 13 36 11 13 36 11 13 36 11 13 36 11 13 36 11 13 36 11 13 36 9 14 36 11 13 36 11 13 36 11 13 36 11 13 36 9 14 36 11 13 36 11 13 36 11 13 36 11 13 36 11 13 38 11 13 38 11 13 38 11 13 36 10 12 35 11 13 38 11 13 38 12 14 37 12 14 37 12 14 37 12 14 37 12 14 37 12 14 37 12 14 37 12 14 37 12 14 37 
10 12 35 9 11 34 10 12 35 9 11 34 10 12 35 9 11 34 10 12 35 9 11 34 9 11 34 9 11 34 9 11 34 9 11 34 10 12 35 9 11 34 9 11 34 10 12 35 11 13 36 11 13 36 11 13 36 11 13 36 11 13 36 11 13 36 11 13 36 11 13 36 11 13 36 11 13 36 11 13 36 11 13 36 11 13 36 11 13 36 11 13 36 11 13 36 11 13 36 11 13 36 11 13 36 11 13 36 11 13 36 11 13 36 11 13 36 11 13 36 11 13 36 11 13 36 11 13 36 11 13 36 11 13 36 11 13 36 11 13 36 11 13 36 11 13 36 11 13 36 11 13 34 11 13 36 11 13 36 11 13 36 11 13 36 11 13 36 11 13 36 11 13 36 11 13 36 11 13 36 11 13 36 11 13 36 11 13 36 11 13 36 11 13 36 11 13 36 11 13 36 11 13 36 11 13 36 11 13 36 11 13 36 11 13 36 11 13 36 11 13 36 11 13 36 11 13 36 11 13 36 11 13 36 11 13 36 11 13 36 11 13 36 11 13 36 11 13 36 11 13 36 11 13 36 11 13 38 11 13 36 11 13 38 11 13 36 11 13 38 11 13 38 11 13 34 12 14 37 12 14 35 12 14 37 12 14 37 12 14 37 12 14 37 12 14 37 12 14 37 
10 12 35 9 11 34 9 11 34 9 11 34 9 11 34 8 10 33 10 12 35 9 11 34 9 11 34 9 11 34 9 11 34 9 11 34 9 11 34 9 11 34 9 11 34 10 12 35 11 13 34 11 13 36 11 13 36 11 13 36 11 13 36 11 13 34 11 13 36 11 13 36 11 13 36 11 13 36 11 13 36 11 13 36 11 13 36 11 13 36 11 13 36 11 13 36 11 13 36 11 13 36 11 13 36 11 13 36 11 13 36 11 13 36 11 13 36 11 13 36 11 13 36 11 13 36 11 13 36 11 13 36 11 13 36 11 13 36 11 13 36 11 13 36 11 13 36 11 13 36 11 13 36 11 13 36 11 13 36 11 13 36 11 13 36 11 13 34 11 13 36 11 13 36 11 13 36 11 13 36 11 13 36 11 13 36 11 13 36 11 13 36 11 13 36 11 13 36 11 13 36 11 13 36 11 13 36 11 13 36 11 13 36 11 13 36 11 13 36 11 13 36 11 13 36 11 13 36 11 13 36 11 13 36 11 13 36 11 13 36 11 13 34 11 13 36 11 13 36 11 13 34 11 13 36 11 13 36 11 13 36 11 13 36 11 13 38 11 13 36 11 13 36 12 14 35 12 14 37 12 14 37 12 14 37 12 14 35 12 14 37 12 14 37 12 14 37 12 14 37 
10 12 35 9 11 34 9 11 34 10 12 35 9 11 34 9 11 34 9 11 34 10 12 35 9 11 34 9 11 34 9 11 34 9 11 34 9 11 34 9 11 34 8 10 33 10 12 35 11 13 36 11 13 36 11 13 34 11 13 36 11 13 36 11 13 36 11 13 36 11 13 34 11 13 36 11 13 36 11 13 36 11 13 36 11 13 36 11 13 36 11 13 36 11 13 36 11 13 36 11 13 34 11 13 36 11 13 36 11 13 36 11 13 36 11 13 36 11 13 36 11 13 34 11 13 36 11 13 36 11 13 36 11 13 36 11 13 36 11 13 36 11 13 36 11 13 36 11 13 36 11 13 36 11 13 36 11 13 36 11 13 36 11 13 36 11 13 36 11 13 36 11 13 36 11 13 36 11 13 36 11 13 36 11 13 36 11 13 36 11 13 36 11 13 36 11 13 36 11 13 36 11 13 36 11 13 36 11 13 36 11 13 36 11 13 36 11 13 36 11 13 36 11 13 36 11 13 36 11 13 36 11 13 36 11 13 36 11 13 36 11 13 36 11 13 36 11 13 36 11 13 36 11 13 36 11 13 36 11 13 36 11 13 36 11 13 38 10 12 35 11 13 36 11 13 36 12 14 37 12 14 37 12 14 37 11 13 34 12 14 37 12 14 37 12 14 37 12 14 37 
9 11 34 10 12 35 9 11 34 10 12 35 9 11 34 10 12 35 10 12 35 9 11 34 10 12 35 9 11 34 10 12 35 9 11 34 9 11 34 9 11 34 9 11 34 10 12 35 11 13 36 11 13 36 11 13 36 11 13 36 11 13 36 11 13 36 11 13 36 11 13 36 11 13 36 11 13 36 11 13 36 11 13 36 11 13 36 11 13 36 11 13 36 11 13 36 11 13 36 11 13 36 11 13 36 11 13 36 11 13 36 11 13 36 11 13 34 11 13 36 11 13 36 11 13 36 11 13 34 11 13 34 11 13 36 11 13 36 11 13 36 11 13 36 11 13 34 11 13 36 11 13 36 11 13 36 11 13 36 11 13 36 11 13 36 11 13 36 11 13 36 11 13 36 11 13 36 11 13 36 11 13 36 11 13 36 11 13 36 11 13 36 11 13 36 11 13 36 11 13 36 11 13 36 11 13 36 11 13 36 11 13 36 11 13 36 11 13 36 11 13 36 11 13 36 11 13 36 11 13 36 11 13 36 11 13 36 11 13 36 11 13 36 11 13 36 11 13 36 11 13 36 11 13 36 11 13 36 11 13 36 11 13 36 11 13 36 11 13 36 11 13 36 12 14 37 12 14 37 12 14 37 12 14 37 12 14 37 12 14 37 12 14 37 12 14 37 12 14 37 
9 11 34 9 11 34 9 11 34 9 11 34 9 11 34 9 11 34 9 11 34 9 11 34 9 11 34 9 11 34 9 11 34 9 11 34 10 12 35 9 11 34 9 11 34 10 12 35 11 13 36 11 13 36 11 13 36 11 13 36 11 13 36 11 13 36 11 13 36 11 13 36 11 13 36 11 13 36 11 13 36 11 13 36 11 13 36 11 13 36 11 13 36 11 13 36 11 13 36 11 13 34 11 13 36 11 13 36 11 13 36 11 13 36 11 13 36 11 13 36 11 13 34 11 13 36 11 13 36 11 13 36 11 13 36 11 13 36 11 13 36 11 13 36 11 13 38 11 13 36 11 13 36 11 13 36 11 13 36 11 13 34 11 13 36 11 13 36 11 13 36 11 13 36 11 13 36 11 13 36 11 13 36 11 13 36 11 13 36 11 13 36 11 13 36 11 13 36 11 13 36 11 13 36 11 13 36 11 13 36 11 13 36 11 13 36 11 13 36 11 13 36 11 13 36 11 13 36 11 13 36 11 13 36 11 13 36 11 13 36 11 13 36 11 13 36 11 13 34 11 13 36 11 13 36 11 13 36 11 13 34 11 13 38 11 13 36 11 13 36 11 13 36 11 13 36 11 13 36 12 14 37 12 14 37 12 14 37 12 14 37 12 14 37 12 14 37 12 14 37 
9 11 34 9 11 34 9 11 34 9 11 34 9 11 34 9 11 34 10 12 35 9 11 34 9 11 34 9 11 34 9 11 34 9 11 34 9 11 34 9 11 34 10 12 35 10 12 35 11 13 34 11 13 36 11 13 36 11 13 36 11 13 36 11 13 34 11 13 36 11 13 36 11 13 36 11 13 36 11 13 36 11 13 36 11 13 36 11 13 36 11 13 36 11 13 36 11 13 36 11 13 36 11 13 36 11 13 36 11 13 36 11 13 36 11 13 34 11 13 36 11 13 36 11 13 36 11 13 34 11 13 34 11 13 36 11 13 36 11 13 36 11 13 36 11 13 36 11 13 36 11 13 36 11 13 36 11 13 36 11 13 36 11 13 36 11 13 36 11 13 36 11 13 36 11 13 36 11 13 36 11 13 36 11 13 36 11 13 36 11 13 36 11 13 36 11 13 36 11 13 36 11 13 36 11 13 36 11 13 36 11 13 36 11 13 36 11 13 36 11 13 36 11 13 36 11 13 36 11 13 36 11 13 36 11 13 36 11 13 36 11 13 36 11 13 36 11 13 36 11 13 34 11 13 36 11 13 36 11 13 36 11 13 36 11 13 36 11 13 36 11 13 36 10 12 35 11 13 36 11 13 36 12 14 37 12 14 35 12 14 37 12 14 37 12 14 37 12 14 37 
10 12 35 9 11 34 9 11 34 9 11 34 9 11 34 9 11 34 9 11 34 10 12 35 9 11 34 9 11 34 9 11 34 9 11 34 9 11 34 9 11 34 9 11 34 10 12 35 11 13 36 11 13 36 11 13 34 11 13 36 11 13 36 11 13 36 11 13 36 11 13 34 11 13 36 11 13 36 11 13 36 11 13 36 11 13 36 11 13 36 11 13 36 11 13 36 11 13 36 11 13 36 11 13 36 11 13 36 11 13 36 11 13 36 11 13 36 11 13 36 11 13 36 11 13 36 11 13 36 11 13 36 11 13 36 11 13 36 11 13 36 11 13 36 11 13 36 11 13 36 11 13 34 11 13 36 11 13 36 11 13 36 11 13 36 11 13 36 11 13 36 11 13 36 11 13 36 11 13 36 11 13 36 11 13 36 11 13 36 11 13 36 11 13 36 11 13 36 11 13 36 11 13 36 11 13 36 11 13 36 11 13 36 11 13 36 11 13 36 11 13 36 11 13 36 11 13 36 11 13 36 11 13 36 11 13 36 11 13 36 11 13 36 11 13 36 11 13 36 11 13 36 11 13 36 11 13 36 11 13 36 11 13 36 11 13 36 11 13 36 11 13 36 11 13 36 11 13 38 12 14 37 12 14 35 12 14 37 12 14 37 12 14 37 12 14 37 12 14 37 
8 10 33 10 12 35 9 11 34 9 11 34 9 11 34 9 11 34 9 11 34 9 11 34 10 12 35 9 11 34 10 12 35 9 11 34 9 11 34 9 11 34 9 11 34 10 12 35 11 13 36 11 13 36 11 13 36 11 13 36 11 13 36 11 13 36 11 13 36 11 13 36 11 13 36 11 13 36 11 13 36 11 13 36 11 13 36 11 13 36 11 13 36 11 13 36 11 13 36 11 13 36 11 13 36 11 13 36 11 13 36 11 13 36 11 13 36 11 13 36 11 13 36 11 13 36 11 13 36 11 13 36 11 13 36 11 13 36 11 13 36 11 13 36 11 13 36 11 13 36 11 13 36 11 13 36 11 13 36 11 13 36 11 13 36 11 13 34 11 13 36 11 13 36 11 13 36 11 13 36 11 13 36 11 13 36 11 13 36 11 13 36 11 13 36 11 13 36 11 13 36 11 13 36 11 13 36 11 13 36 11 13 36 11 13 36 11 13 36 11 13 36 11 13 36 11 13 36 11 13 36 11 13 36 11 13 36 11 13 36 11 13 36 11 13 36 11 13 34 11 13 36 11 13 36 11 13 34 11 14 33 11 13 34 11 13 36 11 13 34 11 13 36 11 13 36 11 13 38 12 14 37 12 14 37 11 13 36 12 14 37 12 14 37 12 14 37 12 14 37 
9 11 34 9 11 34 9 11 34 9 11 34 9 11 34 9 11 34 9 11 34 9 11 34 9 11 34 9 11 34 9 11 34 9 11 34 9 11 34 9 11 34 9 11 34 10 12 35 11 13 36 11 13 34 11 13 36 11 13 36 11 13 36 11 13 34 11 13 34 11 13 36 11 13 36 11 13 36 11 13 36 11 13 36 11 13 36 11 13 36 11 13 36 11 13 36 11 13 36 11 13 36 11 13 36 11 13 36 11 13 36 11 13 36 11 13 36 11 13 36 11 13 36 11 13 36 11 13 36 11 13 36 11 13 36 11 13 36 11 13 36 11 13 36 11 13 36 11 13 36 11 13 36 11 13 36 11 13 36 11 13 36 11 13 36 11 13 36 11 13 36 11 13 36 11 13 36 11 13 36 11 13 36 11 13 36 11 13 34 11 13 36 11 13 36 11 13 36 11 13 36 11 13 36 11 13 36 11 13 36 11 13 36 11 13 36 11 13 36 11 13 36 11 13 36 11 13 36 11 13 36 11 13 36 11 13 36 11 13 36 11 13 36 11 13 36 10 12 35 11 13 36 10 12 35 11 13 36 11 13 36 11 13 36 11 13 36 11 13 36 11 13 34 10 12 35 11 13 36 11 13 36 12 14 35 12 14 35 12 14 37 12 14 37 12 14 35 12 14 37 
9 11 34 9 11 34 9 11 34 9 11 34 9 11 34 9 11 34 9 11 34 9 11 34 9 11 34 9 11 34 9 11 34 9 11 34 9 11 34 9 11 34 9 11 34 10 12 35 11 13 36 11 13 36 11 13 36 11 13 34 11 13 34 11 13 34 11 13 34 11 13 34 11 13 36 11 13 36 11 13 34 11 13 36 11 13 34 11 13 36 11 13 36 11 13 36 11 13 36 11 13 36 11 13 36 11 13 36 11 13 36 11 13 36 11 13 36 11 13 36 11 13 36 11 13 36 11 13 36 11 13 36 11 13 36 11 13 36 11 13 36 11 13 36 11 13 34 11 13 36 11 13 36 11 13 34 11 13 34 11 13 36 11 13 36 11 13 34 11 13 34 11 13 36 11 13 36 11 13 34 11 13 36 11 13 36 11 13 34 11 13 36 11 13 36 11 13 36 11 13 36 11 13 36 11 13 36 11 13 36 11 13 36 11 13 36 11 13 36 11 13 36 11 13 36 11 13 36 11 13 36 11 13 36 11 13 36 11 13 36 11 13 36 11 13 36 11 13 36 11 13 36 11 13 36 11 13 36 11 13 36 11 13 36 11 13 34 11 13 36 11 13 36 10 12 35 11 13 36 11 13 34 12 14 37 12 14 37 12 14 37 12 14 37 12 14 37 12 14 37 
9 11 34 9 11 34 9 11 34 9 11 34 9 11 34 9 11 34 9 11 34 9 11 34 9 11 34 9 11 34 9 11 34 9 11 34 9 11 34 9 11 34 9 11 34 10 12 35 11 13 36 11 13 36 11 13 36 11 13 36 11 13 36 11 13 36 11 13 36 11 13 34 11 13 36 11 13 36 11 13 36 11 13 34 11 13 36 11 13 34 11 13 36 11 13 36 11 13 36 11 13 36 11 13 36 11 13 36 11 13 36 11 13 36 11 13 36 11 13 36 11 13 36 11 13 36 11 13 36 11 13 36 11 13 36 11 13 36 11 13 36 11 13 36 11 13 34 11 13 36 11 13 36 11 13 34 11 13 34 11 13 36 11 13 36 11 13 34 11 13 36 11 13 34 11 13 36 11 13 34 11 13 36 11 13 34 11 13 36 11 13 36 11 13 36 11 13 36 11 13 36 11 13 36 11 13 36 11 13 36 11 13 36 11 13 36 11 13 36 11 13 36 11 13 36 11 13 36 11 13 36 11 13 36 11 13 36 11 13 36 11 13 36 11 13 36 11 13 36 11 13 36 11 13 36 11 13 36 11 13 36 11 13 36 11 13 36 11 13 36 11 13 36 10 12 35 11 13 34 11 13 36 12 14 39 12 14 37 12 14 37 12 14 35 12 14 37 12 14 35 
9 11 34 9 11 34 9 11 34 9 11 34 9 11 34 9 11 34 9 11 34 9 11 34 9 11 34 9 11 34 9 11 34 9 11 34 9 11 34 9 11 34 9 11 34 10 12 35 11 13 36 11 13 36 11 14 33 11 13 34 11 13 36 11 13 36 11 13 36 11 13 34 11 13 36 11 13 36 11 13 36 11 13 36 11 13 36 11 13 36 11 13 36 11 13 36 11 13 34 11 13 34 11 13 34 11 13 34 11 13 34 11 13 34 11 13 34 11 13 34 11 13 36 11 13 36 11 13 36 11 13 36 11 13 36 11 13 36 11 13 36 11 13 36 11 13 36 11 13 34 11 13 34 11 13 36 11 13 36 11 13 34 11 13 34 11 13 36 11 13 34 11 13 36 11 13 34 11 13 36 11 13 36 11 13 36 11 13 34 11 13 36 11 13 36 11 13 36 11 13 34 11 13 34 11 13 34 11 13 34 11 13 36 11 13 36 11 13 36 11 13 36 11 13 36 11 13 36 11 13 36 11 13 36 11 13 36 11 13 36 11 13 36 11 13 36 11 13 36 10 12 35 11 13 36 10 12 35 11 13 36 11 13 36 11 13 36 11 13 34 11 13 36 10 12 33 11 13 36 11 13 36 12 14 35 12 14 37 12 14 37 12 14 35 12 14 37 12 14 37 
9 11 34 9 11 34 9 11 34 9 11 34 9 11 34 9 11 34 9 11 34 9 11 34 9 11 34 9 11 34 9 11 34 9 11 34 9 11 34 9 11 34 9 11 34 10 12 35 11 13 34 11 13 36 11 13 36 11 13 36 11 13 34 11 14 33 11 13 36 11 13 36 11 13 36 11 13 36 11 13 36 11 13 36 11 13 36 11 13 36 11 13 36 11 13 36 11 13 36 11 13 36 11 13 36 11 13 36 11 13 36 11 13 36 11 13 36 11 13 36 11 13 36 11 13 36 11 13 36 11 13 36 11 13 36 11 13 36 11 13 36 11 13 36 11 13 36 11 13 36 11 13 36 11 13 36 11 13 36 11 13 36 11 13 36 11 13 36 11 13 34 11 13 36 11 13 34 11 13 36 11 13 36 11 13 36 11 13 34 11 13 36 11 13 34 11 13 34 11 13 36 11 13 36 11 13 36 11 13 36 11 13 34 11 13 34 11 13 36 11 13 36 11 13 36 11 13 36 11 13 36 11 13 36 11 13 36 11 13 36 11 13 36 11 13 36 11 13 36 10 12 35 11 13 36 10 12 35 11 13 36 11 13 36 11 13 36 11 13 34 11 13 36 10 12 33 11 13 36 11 13 36 12 14 35 12 14 37 12 14 37 12 14 37 12 14 37 12 14 37 
9 11 34 9 11 34 9 11 34 9 11 34 9 11 34 9 11 34 9 11 34 9 11 34 9 11 34 9 11 34 9 11 34 9 11 34 9 11 34 9 11 34 9 11 34 10 12 35 11 13 34 11 13 36 11 13 36 11 13 36 11 13 36 11 13 36 11 13 36 11 13 36 11 13 36 11 13 36 11 13 36 11 13 34 11 13 36 11 13 34 11 13 36 11 13 36 11 13 34 11 13 34 11 13 34 11 13 34 11 13 34 11 13 34 11 13 34 11 13 34 11 13 36 11 13 36 11 13 36 11 13 36 11 13 36 11 13 36 11 13 36 11 13 36 11 13 36 11 13 36 11 13 36 11 13 36 11 13 36 11 13 36 11 13 36 11 13 36 11 13 36 11 13 34 11 13 36 11 13 34 11 13 36 11 13 34 11 13 36 11 13 36 11 13 36 11 13 36 11 13 34 11 13 34 11 13 34 11 13 34 11 13 36 11 13 36 11 13 36 11 13 36 11 13 36 11 13 36 11 13 36 11 13 36 11 13 36 11 13 36 11 13 36 11 13 36 11 13 36 11 13 36 11 13 36 11 13 36 11 13 36 11 13 36 11 13 36 11 13 36 11 13 36 10 12 35 11 13 34 11 13 36 12 14 39 12 14 37 12 14 37 12 14 37 12 14 37 12 14 37 
