P3
100 50
255
16 20 57 16 20 57 16 20 57 16 20 57 17 21 58 16 20 57 17 21 58 17 21 58 17 21 58 17 21 58 17 21 58 17 21 58 17 21 58 17 21 58 17 21 58 17 21 58 17 21 58 17 21 58 17 21 58 17 21 58 17 21 58 17 21 58 17 21 58 17 21 58 17 21 58 17 21 58 17 21 58 17 21 58 17 21 58 17 21 58 17 21 58 17 21 58 17 21 58 17 21 58 17 21 58 17 21 58 17 21 58 17 21 58 17 21 58 17 21 58 17 21 58 17 21 58 17 21 58 17 21 58 17 21 58 17 21 58 17 21 58 17 21 58 17 21 58 17 21 58 17 21 58 17 21 58 17 21 58 17 21 58 17 21 58 17 21 58 18 22 59 18 22 59 17 21 59 17 21 59 18 22 60 18 22 59 17 21 59 18 22 59 17 21 59 17 21 58 16 20 58 17 21 58 18 22 60 17 21 59 18 22 60 18 22 60 18 22 60 17 21 59 17 21 59 17 21 59 17 21 59 17 23 59 18 22 59 17 21 58 18 22 60 17 21 58 18 22 59 18 22 59 18 20 58 20 22 61 20 23 58 19 21 59 19 22 57 19 22 57 19 22 57 20 23 58 20 22 60 19 21 59 19 21 59 19 21 59 19 21 59 20 22 60 20 23 58 20 22 60 
16 20 57 16 20 57 16 20 57 16 20 57 16 20 57 16 20 57 16 20 57 17 21 58 17 21 58 17 21 58 17 21 58 17 21 58 17 21 58 17 21 58 17 21 58 17 21 58 17 21 58 17 21 58 17 21 58 17 21 58 17 21 58 17 21 58 16 20 57 17 21 58 17 21 58 17 21 58 17 21 58 16 20 57 17 21 58 17 21 58 17 21 58 17 21 58 17 21 58 17 21 58 17 21 58 17 21 58 17 21 58 16 20 57 16 20 57 17 21 58 17 21 58 16 20 57 16 20 57 17 21 58 17 21 58 17 21 58 17 21 58 17 21 58 17 21 58 17 21 58 17 21 58 17 21 58 17 21 58 17 21 58 17 21 58 17 21 58 17 21 58 17 21 58 18 22 60 17 21 59 16 20 57 17 21 59 17 21 58 17 21 59 18 22 59 17 21 59 18 22 59 18 22 60 18 22 60 17 21 59 18 22 60 18 22 60 17 21 59 18 22 60 18 22 60 18 22 60 18 22 60 16 21 59 18 22 60 16 20 58 17 21 58 17 21 56 16 21 59 17 21 59 18 22 60 20 22 60 19 23 58 18 22 59 16 20 57 17 21 58 19 22 57 20 23 58 17 19 57 17 19 57 20 22 60 19 21 59 19 21 59 20 22 60 20 22 60 20 23 58 
16 20 55 16 20 57 16 20 57 16 20 57 16 20 55 17 19 57 17 21 58 17 19 57 16 20 57 17 21 58 17 21 58 16 20 57 17 21 58 17 21 58 17 21 58 17 21 58 16 20 57 17 21 58 17 21 58 17 21 58 17 21 58 17 21 58 17 21 58 17 21 58 17 21 58 17 21 58 17 21 58 17 21 58 17 21 58 16 20 57 17 21 58 16 20 57 17 21 58 18 22 59 17 21 58 17 21 58 16 20 57 17 21 58 16 20 57 17 21 58 17 21 58 16 20 57 17 21 58 17 21 58 17 21 58 17 21 58 17 21 58 17 21 58 17 21 58 17 21 58 17 21 58 17 21 58 17 21 58 17 21 59 18 22 59 18 22 59 17 21 58 17 21 59 18 22 59 17 21 59 17 21 59 16 20 58 17 21 59 18 22 60 17 21 59 18 22 59 17 21 58 17 21 58 17 21 58 17 21 58 17 21 58 18 22 59 18 22 59 17 21 59 17 21 59 17 21 59 17 21 58 17 21 59 17 21 58 17 21 58 17 21 59 17 21 59 17 21 58 17 21 59 16 22 58 18 22 57 20 23 58 19 21 59 17 21 58 18 22 59 20 22 60 20 22 60 17 21 59 17 21 59 18 22 59 19 22 57 20 23 56 20 23 58 20 23 58 20 23 58 
17 21 56 17 21 56 17 21 56 17 21 56 18 21 56 19 22 57 18 21 56 18 21 56 18 21 56 17 21 58 17 21 58 17 21 58 17 21 58 17 21 58 17 21 58 16 20 57 16 20 57 17 21 58 16 20 57 17 21 58 17 21 58 16 20 57 17 21 58 17 21 58 18 22 59 17 21 58 17 21 58 17 21 58 17 21 58 17 21 58 17 21 58 17 21 58 17 21 58 17 21 58 17 21 58 17 21 58 17 21 58 17 21 58 17 21 58 16 20 57 17 21 58 17 21 58 17 21 58 17 21 58 16 20 57 17 21 58 17 21 58 16 20 57 16 20 57 17 21 58 17 21 58 16 20 57 16 20 57 17 21 58 17 21 58 17 21 58 17 21 58 17 21 58 17 21 58 17 21 58 17 21 58 17 21 58 17 21 58 18 22 59 17 21 58 18 22 59 18 22 59 17 21 58 17 21 59 17 21 59 18 21 62 17 21 59 17 21 59 17 21 59 17 21 59 18 22 60 17 21 59 18 22 59 17 21 59 17 21 59 18 22 59 17 21 58 17 21 59 18 22 59 17 21 58 17 19 57 18 22 59 18 22 59 19 21 59 18 22 59 20 22 60 19 22 57 18 22 59 18 22 59 18 22 57 20 22 60 19 22 57 19 22 57 19 22 57 19 22 57 
18 21 56 18 21 56 17 21 56 17 21 56 18 21 56 18 21 56 19 22 57 18 21 56 18 21 56 18 22 59 17 21 58 18 22 59 17 21 58 17 21 58 17 21 58 17 21 58 17 21 58 17 21 58 17 21 58 17 21 58 16 20 57 17 21 58 16 20 57 16 20 57 16 20 57 16 20 57 16 20 57 17 21 58 17 21 58 17 21 58 17 21 58 17 21 58 17 21 58 16 20 57 17 21 58 17 21 58 17 21 58 17 21 58 17 21 58 17 21 58 17 21 58 17 21 58 17 21 58 17 21 58 17 21 58 17 21 58 17 21 58 17 21 58 17 21 58 17 21 58 17 21 58 17 21 58 17 21 56 17 21 58 16 20 57 16 20 57 16 20 57 17 21 58 17 21 58 17 21 58 17 21 59 17 21 59 17 21 59 17 21 59 18 22 60 17 21 59 18 22 60 17 21 59 17 21 59 18 22 60 18 22 60 17 21 58 18 22 59 17 21 58 18 22 59 17 21 58 17 21 59 18 22 59 17 21 59 17 21 59 17 21 58 18 22 59 17 21 59 17 21 58 17 21 58 16 20 58 17 21 59 18 22 59 19 22 57 19 22 57 19 22 57 19 22 57 20 23 58 19 22 55 20 23 58 20 23 58 19 21 59 19 21 59 20 22 60 20 23 58 
18 21 56 18 21 56 18 21 56 18 21 56 18 21 56 18 21 56 18 21 56 18 21 56 18 21 56 17 21 58 17 21 58 17 21 58 17 21 58 17 21 58 17 21 58 17 21 58 17 21 58 17 21 58 17 21 58 17 21 58 16 20 57 16 20 57 17 21 58 17 21 58 16 20 57 17 21 58 17 21 58 16 20 57 17 21 58 17 21 58 18 22 59 16 20 57 17 21 58 16 20 57 17 21 58 17 21 58 16 20 57 17 21 58 17 21 58 17 21 58 17 21 58 17 21 58 17 21 58 17 21 58 17 21 58 17 21 58 17 21 58 17 21 58 17 21 58 17 21 58 17 21 58 17 21 58 17 21 58 17 21 58 17 21 58 18 22 59 16 20 57 16 20 57 16 20 57 17 21 58 17 21 58 17 21 58 17 21 58 18 22 59 18 22 59 17 21 59 18 22 60 17 21 59 16 20 58 17 21 59 17 21 58 17 21 58 18 22 59 18 22 59 17 21 58 16 20 57 17 21 58 17 21 59 17 21 58 18 22 59 17 21 59 17 21 59 17 21 58 17 21 59 18 22 60 17 21 59 18 22 60 18 22 59 18 22 59 18 22 57 19 22 57 20 23 58 19 21 59 19 21 59 19 21 59 20 23 58 19 21 59 19 21 59 19 21 59 20 23 56 
18 21 56 18 21 54 18 21 56 18 21 56 19 22 57 18 21 56 18 21 56 18 21 56 18 21 56 16 20 57 16 20 57 17 21 58 17 21 58 17 21 58 17 21 58 17 21 58 17 21 58 17 21 58 17 21 58 17 21 58 17 21 58 16 20 57 16 20 57 17 21 58 16 20 57 17 21 58 17 21 58 16 20 57 17 21 58 17 21 58 17 21 58 17 21 58 16 20 57 17 21 58 17 21 58 17 21 58 17 21 58 17 21 58 17 21 58 17 21 58 17 21 58 17 21 58 17 21 58 18 22 59 17 21 58 16 20 57 16 20 57 17 21 58 17 21 58 16 20 57 16 20 57 17 21 58 16 20 57 17 21 58 18 22 59 17 21 58 16 20 57 16 20 57 17 21 58 16 20 58 17 21 58 17 21 58 18 22 59 17 21 58 17 21 58 18 22 60 17 21 59 18 22 60 17 21 59 17 21 59 17 21 59 17 21 59 18 22 60 17 21 59 17 21 58 17 21 58 17 21 58 17 21 59 17 21 58 18 22 59 17 21 59 18 22 60 17 21 58 17 21 59 17 23 59 17 21 59 16 22 58 17 21 59 17 21 58 18 22 60 19 22 57 22 22 60 17 21 59 17 21 59 17 21 59 19 22 57 18 20 58 17 21 58 17 21 58 18 22 57 
18 21 56 18 21 56 18 20 58 18 20 58 18 21 56 18 20 58 17 21 56 18 21 56 18 21 56 17 21 58 16 20 57 17 21 58 17 21 58 17 21 58 16 20 57 17 21 58 17 21 58 17 21 58 16 20 57 17 21 58 17 21 58 17 21 58 17 21 58 17 21 58 17 21 58 17 21 58 17 21 58 17 21 58 17 21 58 17 21 58 16 20 57 17 21 58 16 20 57 18 22 59 17 21 58 17 21 58 17 21 58 18 22 59 17 21 58 17 21 58 17 21 58 17 21 58 17 21 58 17 21 58 17 21 58 17 21 58 17 21 58 17 21 58 17 21 58 17 21 58 17 21 58 17 21 58 17 21 58 17 21 58 17 21 58 17 21 56 17 21 58 17 21 58 17 21 58 17 21 59 17 21 58 16 20 57 18 22 59 17 21 58 17 21 59 17 21 59 17 21 59 17 21 59 18 22 60 17 21 59 18 22 60 17 21 59 18 22 60 17 21 58 17 21 58 18 22 59 17 21 59 17 21 58 18 22 60 18 22 60 17 21 58 18 22 59 17 21 59 17 21 58 17 21 58 16 22 58 18 22 59 16 20 57 17 21 58 17 21 58 19 21 59 19 21 59 17 21 58 18 22 59 18 22 57 19 22 57 20 23 58 17 21 59 17 21 58 18 22 60 
18 21 56 18 21 56 17 21 58 17 21 58 16 20 57 16 22 58 16 20 57 17 21 58 18 20 58 17 21 58 17 21 58 17 21 58 16 20 57 17 21 58 16 20 57 15 19 56 17 21 58 16 20 57 16 20 57 17 21 58 17 21 58 16 20 57 17 21 58 17 21 58 16 20 57 17 21 58 17 21 58 16 20 57 17 21 58 17 21 58 16 20 57 17 21 58 17 21 58 17 21 58 17 21 58 17 21 58 17 21 58 17 21 58 16 20 57 17 21 58 17 21 58 17 21 58 16 20 57 16 20 57 17 21 58 17 21 58 17 21 58 17 21 58 17 21 58 17 21 58 17 21 58 17 21 58 16 20 57 17 21 56 17 21 58 17 21 58 17 21 58 17 21 58 17 21 58 17 21 58 16 20 57 17 21 58 16 20 57 18 22 59 17 21 58 17 21 58 17 21 58 17 21 58 17 21 58 17 21 58 18 22 59 17 21 58 17 21 58 17 21 56 17 21 58 18 22 59 18 22 60 17 21 58 17 21 59 18 22 60 17 21 58 17 21 58 18 22 60 17 21 58 17 21 58 17 21 58 17 23 59 18 22 59 17 21 58 18 22 59 20 22 60 20 23 58 20 23 58 19 21 59 20 23 58 20 23 58 20 23 58 19 21 59 20 22 60 19 21 59 
18 21 56 18 21 56 16 20 57 16 22 56 17 21 58 16 20 57 16 22 58 18 20 58 17 21 58 17 21 58 17 21 58 17 21 58 17 21 58 17 21 58 17 21 58 16 20 57 17 21 58 16 20 57 17 21 58 17 21 58 17 21 58 16 20 57 17 21 58 17 21 58 17 21 58 16 20 57 17 21 58 17 21 58 17 21 58 17 21 58 16 20 57 17 21 58 17 21 58 16 20 57 17 21 58 17 21 58 17 21 58 17 21 58 18 22 59 17 21 58 16 20 57 17 21 58 16 20 57 17 21 58 17 21 58 17 21 58 17 21 58 17 21 58 16 20 57 17 21 58 17 21 58 17 21 58 17 21 58 17 22 54 16 20 57 17 21 58 15 19 56 17 21 58 17 21 58 17 21 58 16 20 57 17 21 58 17 21 58 17 21 58 17 21 58 17 21 58 17 21 58 17 21 58 17 21 58 18 22 59 17 21 58 17 21 59 17 21 59 17 21 59 18 22 60 17 21 59 18 22 59 18 22 60 17 21 58 17 21 58 17 21 59 17 21 59 18 22 59 18 22 60 17 21 58 17 21 58 17 20 61 17 21 59 18 21 62 17 23 59 18 22 59 20 23 58 19 22 57 19 21 59 19 21 59 20 23 58 19 22 57 20 22 60 20 22 61 20 23 58 
17 21 58 17 21 58 18 22 59 16 20 57 16 20 57 17 21 58 17 21 58 17 21 58 16 20 57 17 21 58 17 21 58 17 21 58 17 21 58 16 20 57 16 20 57 17 21 58 17 21 58 15 19 56 16 20 57 17 21 58 17 21 58 16 20 57 17 21 58 17 21 58 16 20 57 17 21 58 17 21 58 16 20 57 17 21 58 16 20 57 17 21 58 17 21 58 16 20 57 17 21 58 17 21 58 16 20 57 17 21 58 18 22 59 17 21 58 16 20 57 17 21 58 17 21 58 16 20 57 16 20 57 16 20 57 17 21 58 16 20 57 16 20 57 16 20 57 17 21 58 17 21 58 17 21 58 17 21 58 18 22 59 17 21 58 17 21 58 16 20 57 17 21 58 17 21 58 16 20 57 15 19 56 16 20 55 17 21 58 17 21 58 17 21 58 17 21 58 17 21 56 17 21 59 17 21 58 17 21 58 17 21 58 17 21 58 17 21 58 17 21 59 17 21 59 18 21 62 17 21 58 16 20 57 17 21 58 17 21 58 17 21 58 17 21 58 17 21 58 17 21 58 17 21 58 18 22 59 17 21 58 17 21 58 17 21 58 17 21 58 18 22 59 17 21 58 18 22 57 20 23 56 18 22 57 17 21 58 17 21 56 19 22 57 18 22 59 16 22 56 
17 21 58 17 21 58 16 20 57 17 21 58 17 21 58 18 22 59 17 21 58 16 20 57 16 20 57 16 20 57 16 20 57 16 20 57 17 21 58 16 20 57 16 20 57 16 20 57 17 21 58 17 21 58 17 21 58 16 20 57 17 21 58 17 21 58 18 22 59 17 21 58 17 21 58 16 20 57 17 21 58 17 21 58 16 20 57 17 21 58 15 19 56 17 21 58 16 20 57 17 21 58 17 21 58 17 21 58 17 21 58 17 21 58 17 21 58 18 22 59 16 20 57 17 21 58 17 21 58 17 21 58 17 21 58 17 21 58 17 21 58 17 21 58 17 21 58 17 21 58 17 21 56 17 21 58 17 21 58 16 20 57 16 20 57 17 21 58 18 22 59 17 21 58 16 20 57 17 21 58 17 21 58 16 20 57 17 21 58 17 21 58 16 20 58 17 21 58 17 21 58 17 21 59 18 22 59 17 21 58 18 22 59 18 22 59 17 21 58 17 21 58 17 21 59 17 21 59 17 21 58 17 21 58 17 21 58 17 21 58 18 22 59 17 21 58 18 22 59 17 21 58 17 21 58 18 22 59 17 21 58 17 21 58 17 21 58 17 21 58 18 22 59 17 21 58 18 22 59 20 23 58 18 22 59 16 20 57 16 20 57 21 21 59 22 22 60 17 21 58 
17 21 58 17 21 58 16 20 57 17 21 58 16 20 57 17 21 58 16 20 57 17 21 58 17 21 58 16 20 57 17 21 58 16 20 57 16 20 57 17 21 58 17 21 58 17 21 58 17 21 58 17 21 58 17 21 58 17 21 58 16 20 57 17 21 58 17 21 58 16 20 57 17 21 58 16 20 57 17 21 58 16 20 57 16 20 57 16 20 57 16 20 57 16 20 57 17 21 58 16 20 57 16 20 57 17 21 58 17 21 58 17 21 58 17 21 58 17 21 58 17 21 58 16 20 57 16 20 57 16 20 57 17 21 59 16 20 57 17 21 58 16 20 57 16 20 57 16 20 57 17 21 59 16 20 57 17 21 58 17 21 58 17 21 58 16 20 57 17 21 58 16 20 57 16 20 57 17 21 58 16 20 57 17 21 56 17 21 58 17 21 58 18 22 59 17 21 58 17 21 58 17 21 58 17 21 58 16 20 57 17 21 58 18 22 59 17 21 58 17 21 58 17 21 58 17 21 59 17 21 58 17 21 58 17 21 58 17 21 58 17 21 58 17 21 58 17 21 58 17 21 58 17 21 58 17 21 58 17 21 58 17 21 58 17 21 58 17 21 58 17 21 58 17 21 58 18 20 58 19 21 59 19 21 59 18 20 58 17 21 58 19 21 59 20 22 60 19 21 59 
16 20 57 16 20 57 16 20 57 16 20 57 17 21 58 16 20 57 16 20 57 16 20 57 17 21 58 17 21 58 17 21 58 16 20 57 17 21 58 17 21 58 17 21 58 17 21 58 17 21 58 17 21 58 17 21 58 16 20 57 17 21 58 17 21 58 16 20 57 18 22 59 17 21 58 16 20 57 16 20 57 17 21 58 17 21 58 16 20 57 16 20 57 17 21 58 17 21 58 17 21 58 16 20 57 17 21 58 16 20 57 16 20 57 16 20 57 16 20 57 16 20 57 16 20 57 16 20 57 17 21 58 17 21 56 17 21 58 17 21 59 17 21 58 17 21 58 17 21 58 16 20 57 17 21 58 17 21 58 17 21 58 17 21 58 17 21 58 16 20 57 16 20 57 17 21 58 17 21 58 17 21 58 17 21 56 17 21 56 16 20 57 16 20 57 15 19 56 16 20 57 17 21 58 17 21 58 17 21 58 17 21 58 17 21 58 17 21 58 17 21 58 17 21 58 17 21 58 17 21 58 17 21 58 17 21 58 17 21 58 17 21 58 17 21 58 17 21 58 17 21 58 17 21 58 17 21 58 17 21 58 17 21 58 17 21 58 17 21 58 17 21 58 17 21 58 17 21 58 17 21 58 18 22 59 19 22 57 19 22 57 19 22 55 18 22 59 17 21 58 
17 21 58 16 20 57 16 20 57 17 21 58 17 21 58 16 20 57 17 21 58 16 20 57 17 21 58 17 21 58 16 20 57 16 20 57 17 21 58 16 20 57 16 20 57 17 21 58 17 21 58 17 21 58 16 20 57 15 19 56 17 21 58 17 21 58 17 21 58 16 20 57 17 21 58 17 21 58 17 21 58 16 20 57 16 20 57 17 21 58 16 20 57 17 21 58 17 21 58 17 21 58 17 21 58 17 21 58 16 20 57 15 19 56 16 20 57 17 21 58 16 20 57 16 20 57 17 21 58 16 20 57 17 21 58 17 21 58 17 21 56 17 21 58 17 21 58 17 21 58 16 20 57 17 21 58 17 21 58 16 20 57 17 21 58 17 21 58 16 20 57 17 21 58 17 21 58 15 19 56 17 21 58 17 21 58 17 21 56 16 20 57 17 21 58 17 21 58 17 21 59 17 21 58 17 21 58 16 20 57 17 21 58 17 21 58 17 21 58 17 21 58 17 21 58 18 22 59 17 21 58 17 21 58 17 21 58 17 21 58 17 21 58 17 21 58 17 21 58 17 21 58 17 21 58 17 21 58 17 21 58 17 21 58 17 21 58 17 21 58 17 21 58 17 21 58 17 21 58 17 21 58 17 21 58 19 21 59 19 22 57 18 22 57 19 23 58 19 21 59 
16 20 57 17 21 58 16 20 57 17 21 58 17 21 58 18 22 59 15 19 56 16 20 57 17 21 58 16 20 57 17 21 58 16 20 57 16 20 57 15 19 56 15 19 56 17 21 58 17 21 58 16 20 57 16 20 57 17 21 58 16 20 57 16 20 57 16 20 57 15 19 56 17 21 58 17 21 58 17 21 58 17 21 58 17 21 58 16 20 57 17 21 58 16 20 57 17 21 58 17 21 58 16 20 57 17 21 58 17 21 58 16 20 57 16 20 57 17 21 58 17 21 58 17 21 58 17 21 58 16 20 57 16 20 57 16 20 57 17 21 58 17 21 59 16 20 57 17 21 58 17 21 58 16 20 57 17 21 58 16 20 57 17 21 58 17 21 58 17 21 58 16 20 57 16 20 57 16 20 57 17 21 58 17 21 58 17 21 58 17 21 58 17 21 58 16 20 57 17 21 58 16 20 57 17 21 58 16 20 57 16 20 57 17 21 58 17 21 58 18 22 59 18 22 59 17 21 58 17 21 58 17 21 58 17 21 58 17 21 58 17 21 58 17 21 58 17 21 58 17 21 58 17 21 58 17 21 58 17 21 58 17 21 58 17 21 58 17 21 58 17 21 58 17 21 58 18 22 59 18 22 59 17 21 58 17 21 59 18 22 59 20 23 58 20 23 56 17 21 58 
17 21 58 16 20 57 17 21 58 16 20 57 17 21 58 16 20 57 17 21 58 17 21 58 17 21 58 17 21 58 16 20 57 16 20 57 17 21 58 16 20 57 16 20 57 17 21 58 17 21 58 16 20 57 16 20 57 17 21 58 16 20 57 17 21 58 17 21 58 16 20 57 17 21 58 17 21 58 17 21 58 17 21 58 17 21 58 18 22 59 16 20 57 17 21 58 17 21 58 17 21 58 16 20 57 17 21 58 17 21 58 18 22 59 17 21 58 16 20 57 17 21 58 16 20 57 16 20 57 17 21 58 17 21 58 17 21 58 17 21 58 17 21 56 17 21 58 17 21 58 18 22 59 17 21 58 16 20 57 17 21 58 16 20 57 16 20 57 17 21 58 17 21 58 17 21 58 16 20 57 17 21 58 17 21 58 17 21 58 17 21 58 17 21 58 17 21 58 16 20 57 18 22 59 17 21 58 15 19 56 17 21 58 17 21 58 17 21 58 17 21 58 17 21 58 17 21 58 17 21 58 18 22 59 17 21 58 18 22 59 17 21 58 17 21 58 17 21 58 17 21 58 17 21 58 17 21 58 18 22 59 17 21 58 17 21 58 18 22 59 17 21 58 17 21 58 17 21 59 17 21 58 16 22 58 17 21 58 17 21 58 19 22 57 19 21 59 18 20 58 
16 20 57 17 21 58 17 21 58 17 21 58 17 21 58 17 21 58 16 20 57 17 21 58 17 21 58 17 21 58 17 21 58 17 21 58 17 21 58 17 21 58 17 21 58 17 21 58 17 21 58 17 21 58 17 21 58 17 21 58 17 21 58 16 20 57 16 20 57 17 21 58 17 21 58 16 20 57 16 20 57 16 20 57 15 19 56 17 21 58 16 20 57 16 20 57 17 21 58 17 21 58 17 21 58 17 21 58 16 20 57 17 21 58 17 21 58 17 21 58 17 21 58 17 21 58 17 21 58 17 21 58 16 20 57 17 21 58 17 21 58 17 21 58 17 21 58 17 21 58 17 21 58 16 20 57 17 21 58 17 21 58 17 21 58 17 21 58 16 20 57 16 20 57 15 19 56 17 21 58 16 20 57 17 21 59 17 21 58 17 21 58 16 20 57 17 21 58 17 21 58 16 20 57 17 21 58 17 21 58 16 20 57 17 21 58 17 21 58 18 22 59 17 21 58 17 21 58 17 21 58 17 21 58 17 21 58 17 21 58 17 21 58 17 21 58 16 20 57 17 21 58 17 21 58 17 21 58 18 22 59 17 21 58 17 21 58 18 22 59 17 21 58 17 21 58 17 21 58 18 22 59 16 22 58 17 21 59 17 21 58 18 20 59 18 22 59 17 21 56 
16 20 57 17 21 58 16 20 57 17 21 58 16 20 57 17 21 58 17 21 58 16 20 57 17 21 58 17 21 58 16 20 57 16 20 57 17 21 58 17 21 58 17 21 58 17 21 58 16 20 57 16 20 57 16 20 57 16 20 57 16 20 57 15 19 56 17 21 58 16 20 57 17 21 58 17 21 58 17 21 58 17 21 58 17 21 58 17 21 58 17 21 58 16 20 57 17 21 58 16 20 57 16 20 57 17 21 58 16 20 57 16 20 57 16 20 57 16 22 58 16 22 58 17 21 58 17 21 58 18 22 59 17 21 58 17 21 58 16 20 57 17 21 58 16 20 57 17 21 58 17 21 58 17 21 58 17 21 58 17 21 58 17 21 58 16 20 57 17 21 58 17 21 58 16 20 57 16 20 57 17 21 58 17 21 58 16 20 57 17 21 58 16 20 57 17 21 58 17 21 58 17 21 58 16 20 57 17 21 58 16 20 57 16 20 57 17 21 58 17 21 58 17 21 58 17 21 58 17 21 58 17 21 58 17 21 58 17 21 58 17 21 58 17 21 58 17 21 58 17 21 58 17 21 58 17 21 58 17 21 58 17 21 58 17 21 58 17 21 58 17 21 58 17 21 58 17 21 58 17 21 58 17 21 58 17 21 58 17 21 58 17 21 58 17 21 58 17 21 58 
17 21 58 17 21 58 17 21 58 17 21 58 16 20 57 17 21 58 16 20 58 16 20 57 17 21 58 17 21 56 17 21 58 16 20 57 15 19 56 17 21 58 16 20 57 17 21 58 17 21 58 17 21 58 17 21 58 17 21 58 17 21 58 17 21 58 16 20 57 16 20 57 16 20 57 17 21 58 16 20 57 16 20 57 17 21 58 16 20 57 17 21 58 18 22 59 16 20 57 17 21 58 16 20 57 17 21 58 17 21 58 16 20 57 16 20 57 16 20 57 17 21 58 17 21 58 17 21 58 17 21 58 16 20 57 17 21 58 17 21 58 16 20 57 16 20 57 17 21 58 16 20 57 17 21 58 16 20 57 17 21 58 16 20 57 17 21 58 17 21 58 17 21 58 17 21 58 17 21 58 17 21 58 16 20 57 17 21 58 17 21 58 16 20 57 16 20 57 17 21 58 16 20 57 17 21 58 16 20 57 17 21 58 17 21 58 16 20 57 17 21 58 17 21 58 17 21 58 17 21 58 17 21 58 17 21 58 17 21 58 17 21 58 17 21 58 17 21 58 17 21 58 17 21 58 17 21 58 17 21 58 17 21 58 17 21 58 17 21 58 17 21 58 17 21 58 17 21 58 17 21 58 17 21 58 17 21 58 17 21 58 17 21 58 17 21 58 17 21 58 
17 21 58 16 20 57 17 21 58 16 20 57 17 21 58 16 20 57 17 21 58 16 20 57 17 21 58 17 21 58 17 21 58 16 20 57 16 20 57 16 20 57 17 21 58 17 21 58 17 21 58 16 20 57 17 21 58 16 20 57 16 20 57 17 21 58 17 21 58 17 21 58 17 21 58 16 20 57 17 21 58 16 20 57 17 21 58 17 21 58 16 20 57 16 20 57 17 21 58 17 21 58 17 21 58 16 20 57 16 20 57 16 20 57 16 20 57 17 21 58 17 21 58 17 21 58 16 20 57 16 20 57 17 21 58 17 21 58 17 21 58 17 21 58 17 21 58 17 21 58 17 21 58 16 20 57 16 20 57 17 21 58 17 21 58 16 20 57 17 21 58 17 21 58 16 20 57 17 21 58 17 21 58 16 20 57 18 22 59 16 20 57 17 21 58 17 21 58 17 21 58 16 20 57 16 20 57 16 20 57 15 19 56 16 20 57 17 21 58 17 21 58 17 21 58 17 21 58 17 21 58 17 21 58 17 21 58 17 21 58 17 21 58 17 21 58 17 21 58 17 21 58 17 21 58 17 21 58 17 21 58 17 21 58 17 21 58 17 21 58 17 21 58 17 21 58 17 21 58 17 21 58 17 21 58 17 21 58 17 21 58 17 21 58 17 21 58 17 21 58 
17 21 58 17 21 58 17 21 58 17 21 58 17 21 58 17 21 58 16 20 57 17 21 58 17 21 58 17 21 58 17 21 58 16 20 57 16 20 57 16 20 57 16 20 57 16 20 57 16 20 57 16 20 57 16 20 57 16 20 57 17 21 58 16 20 57 17 21 58 17 21 58 16 20 57 17 21 58 17 21 58 17 21 58 16 20 57 17 21 58 17 21 58 17 21 58 17 21 58 17 21 58 17 21 58 16 20 57 18 22 59 17 21 58 17 21 58 17 21 58 16 20 57 17 21 58 17 21 58 17 21 58 15 19 56 16 20 57 17 21 58 17 21 58 17 21 58 17 21 58 16 20 57 16 20 57 17 21 58 17 21 58 15 19 56 17 21 56 17 21 58 17 21 58 17 21 56 16 20 57 17 21 58 15 19 56 17 21 58 17 21 58 16 20 57 17 21 58 16 20 57 17 21 58 17 21 58 16 20 57 16 20 57 16 20 57 16 20 57 16 20 57 16 20 57 17 21 58 17 21 58 17 21 58 17 21 58 17 21 58 17 21 58 17 21 58 17 21 58 17 21 58 17 21 58 17 21 58 17 21 58 17 21 58 17 21 58 17 21 58 17 21 58 17 21 58 17 21 58 17 21 58 17 21 58 17 21 58 17 21 58 17 21 58 17 21 58 17 21 58 
16 20 57 16 20 57 17 21 58 17 21 58 17 21 58 16 20 57 17 21 58 16 20 57 17 21 58 17 21 58 17 21 58 16 20 57 18 22 59 17 21 58 16 20 57 16 20 57 17 21 58 16 20 57 17 21 58 16 20 57 16 20 57 17 21 58 17 21 58 15 19 56 17 21 58 16 20 57 16 20 57 16 20 57 17 21 58 16 20 57 17 21 58 17 21 58 16 20 57 17 21 58 17 21 58 17 21 58 16 20 57 15 21 57 17 21 58 15 19 56 17 21 58 16 20 57 15 21 57 16 20 57 17 21 58 17 21 58 16 20 57 17 21 58 17 21 58 17 21 58 17 21 58 17 21 58 17 21 58 17 21 58 17 21 58 16 20 57 17 21 58 17 21 58 17 21 58 16 20 57 17 21 58 16 20 57 16 20 57 17 21 58 16 20 57 16 20 57 17 21 58 17 21 58 17 21 58 16 20 57 17 21 58 16 20 57 16 20 57 17 21 58 18 22 59 17 21 58 17 21 58 17 21 58 17 21 58 17 21 58 17 21 58 17 21 58 17 21 58 17 21 58 17 21 58 17 21 58 17 21 58 17 21 58 17 21 58 17 21 58 17 21 58 17 21 58 17 21 58 17 21 58 17 21 58 17 21 58 17 21 58 17 21 58 17 21 58 17 21 58 
16 20 57 16 20 57 17 21 58 17 21 58 17 21 58 17 21 58 16 20 58 17 21 58 16 20 57 17 21 56 17 21 58 16 20 57 16 20 57 17 21 58 16 20 57 17 21 58 16 20 57 16 20 57 16 20 57 16 20 57 16 20 57 17 21 58 17 21 58 16 20 57 16 20 57 16 20 57 16 20 57 17 21 58 17 21 58 16 20 57 17 21 58 16 20 57 17 21 58 18 22 59 16 20 57 16 20 57 17 21 58 17 21 58 17 21 58 17 21 58 17 21 58 18 22 59 16 20 57 16 20 57 16 20 57 18 22 59 17 21 58 17 21 58 16 20 57 17 21 58 16 20 57 16 20 57 17 21 56 16 20 57 17 21 56 17 21 58 16 20 57 17 21 58 16 20 57 17 21 58 17 21 58 16 20 57 17 21 58 16 20 57 16 20 57 17 21 58 17 21 58 16 20 57 17 21 58 17 21 58 16 20 57 17 21 58 17 21 58 17 21 58 17 21 58 16 20 57 17 21 58 17 21 58 17 21 58 17 21 58 17 21 58 17 21 58 17 21 58 17 21 58 17 21 58 17 21 58 17 21 58 17 21 58 17 21 58 17 21 58 17 21 58 17 21 58 17 21 58 17 21 58 17 21 58 17 21 58 17 21 58 17 21 58 17 21 58 17 21 58 
16 20 57 16 20 57 18 22 59 17 21 58 17 21 58 16 20 58 17 21 58 17 21 59 16 20 55 17 21 58 17 21 56 16 20 57 16 20 57 16 20 57 17 21 58 17 21 58 16 20 57 16 20 57 17 21 58 17 21 58 16 20 57 17 21 58 16 20 57 17 21 58 17 21 58 17 21 58 17 21 58 16 20 57 17 21 58 17 21 58 16 20 57 16 20 57 16 20 57 17 21 58 16 20 57 16 20 57 17 21 58 15 19 56 17 21 58 17 21 58 17 21 58 17 21 58 16 20 57 16 20 57 17 21 58 17 21 58 16 20 57 17 21 58 16 20 57 17 21 58 18 22 59 17 21 58 17 21 58 17 21 58 17 21 58 16 20 57 17 21 58 17 21 58 16 20 58 16 20 57 16 20 57 17 21 58 16 20 57 16 20 57 16 20 57 16 20 57 16 20 57 17 21 58 16 20 57 17 21 58 17 21 58 16 20 57 17 21 58 17 21 58 16 20 57 17 21 58 17 21 58 17 21 58 17 21 58 17 21 58 17 21 58 17 21 58 17 21 58 17 21 58 17 21 58 17 21 58 17 21 58 17 21 58 17 21 58 17 21 58 17 21 58 17 21 58 17 21 58 17 21 58 17 21 58 17 21 58 17 21 58 17 21 58 17 21 58 17 21 58 
16 20 57 17 21 58 17 21 58 17 21 58 17 21 58 16 20 57 16 20 57 18 22 59 16 20 57 17 21 58 17 21 58 16 20 57 17 21 58 17 21 58 16 20 57 16 20 57 17 21 58 16 20 57 17 21 58 17 21 58 17 21 58 17 21 58 17 21 58 16 20 57 16 20 57 16 20 57 17 21 58 15 19 56 17 21 58 16 20 57 16 20 57 16 20 57 17 21 58 16 20 57 16 20 57 16 20 57 17 21 58 16 20 57 17 21 58 17 21 58 17 21 58 16 20 57 15 19 56 17 21 58 16 20 57 16 20 57 17 21 58 17 21 58 17 21 58 17 21 58 16 20 57 16 20 57 16 20 58 17 21 58 16 20 58 16 20 57 17 21 58 17 21 58 17 21 56 17 21 58 16 20 57 17 21 58 16 20 57 16 20 57 17 21 58 16 20 57 17 21 58 16 20 57 17 21 58 17 21 58 16 20 57 17 21 58 17 21 58 17 21 58 17 21 58 17 21 58 17 21 58 17 21 58 17 21 58 17 21 58 17 21 58 17 21 58 17 21 58 17 21 58 17 21 58 17 21 58 17 21 58 17 21 58 17 21 58 17 21 58 17 21 58 17 21 58 17 21 58 17 21 58 17 21 58 17 21 58 17 21 58 17 21 58 17 21 58 17 21 58 
16 20 57 17 21 58 17 21 58 16 20 57 16 20 57 16 20 57 17 21 58 17 21 59 17 21 58 16 20 57 17 21 58 17 21 58 16 20 57 16 20 57 17 21 58 16 20 57 17 21 58 15 19 56 16 20 57 16 20 57 17 21 58 16 20 57 17 21 58 17 21 58 17 21 58 16 20 57 16 20 57 17 21 58 16 20 57 16 20 57 16 20 57 16 20 57 17 21 58 17 21 58 16 20 57 17 21 58 16 20 57 17 21 58 17 21 58 17 21 58 17 21 58 17 21 58 16 20 57 16 20 57 15 19 56 17 21 56 16 20 57 17 21 58 17 21 58 16 20 57 17 21 58 17 21 58 16 20 57 17 21 58 16 20 57 16 20 57 17 21 58 17 21 58 16 20 57 17 21 58 17 21 56 16 20 55 17 21 58 17 21 58 16 20 57 16 20 57 17 21 58 16 22 58 16 20 57 16 20 57 16 20 57 15 19 56 16 20 57 16 20 57 17 21 58 17 21 58 16 20 57 17 21 58 17 21 58 17 21 58 17 21 58 18 22 59 17 21 58 17 21 58 17 21 58 17 21 58 17 21 58 17 21 58 17 21 58 17 21 58 17 21 58 17 21 58 17 21 58 17 21 58 17 21 58 17 21 58 17 21 58 17 21 58 17 21 58 17 21 58 
16 20 57 16 20 57 17 21 58 17 21 58 16 20 57 17 21 58 16 20 57 16 20 55 17 21 58 17 21 58 16 20 57 17 21 58 16 20 57 16 20 57 16 20 57 16 20 57 17 21 58 17 21 58 16 20 57 17 21 58 17 21 58 17 21 58 17 21 58 17 21 58 17 21 58 16 20 57 16 20 57 16 20 57 17 21 58 17 21 58 16 20 57 17 21 58 16 20 57 16 20 57 17 21 58 16 20 57 17 21 58 16 20 57 17 21 58 17 21 58 17 21 58 16 20 57 16 20 57 16 20 57 17 21 58 16 20 55 17 21 58 17 21 56 16 20 57 16 20 57 17 21 58 16 20 57 16 20 57 17 21 58 17 21 58 16 20 57 17 21 58 17 21 58 16 20 57 17 21 58 17 21 58 16 20 57 16 20 58 17 21 58 17 21 58 16 20 57 16 20 57 16 22 58 18 22 57 16 20 57 15 19 56 16 20 57 17 21 58 16 20 57 17 21 58 17 21 56 17 21 58 17 21 58 17 21 58 17 21 58 17 21 58 17 21 58 17 21 58 17 21 58 17 21 58 17 21 58 17 21 58 17 21 58 17 21 58 17 21 58 17 21 58 17 21 58 17 21 58 17 21 58 17 21 58 17 21 58 17 21 58 17 21 58 17 21 58 17 21 58 
17 21 58 17 21 58 16 20 57 16 20 57 17 21 56 16 20 57 16 20 57 16 20 57 16 20 57 16 20 57 17 21 56 17 21 58 17 21 58 16 20 57 16 20 57 16 20 57 17 21 58 17 21 58 16 20 57 16 20 57 15 19 56 16 20 57 16 20 57 16 20 57 16 20 57 16 20 57 18 22 59 16 20 57 16 20 57 16 20 57 17 21 58 17 21 58 17 21 58 16 20 57 16 20 57 16 20 57 17 21 58 17 21 58 16 20 57 16 20 57 17 21 58 18 22 59 16 20 57 17 21 58 17 21 58 16 20 57 16 20 57 17 21 56 17 21 58 16 20 58 16 20 57 17 21 56 17 21 58 17 21 58 16 20 57 16 20 57 16 20 57 17 21 58 16 20 57 16 20 57 16 20 57 16 20 57 17 21 58 17 21 58 17 21 58 17 21 58 17 21 58 16 22 58 16 20 57 16 20 57 17 21 58 16 20 57 16 20 57 15 19 56 16 20 57 17 21 58 17 21 58 16 20 57 17 21 58 17 21 58 16 20 57 17 21 58 17 21 58 18 22 59 17 21 58 17 21 58 17 21 58 17 21 58 17 21 58 17 21 58 17 21 58 17 21 58 17 21 58 17 21 58 17 21 58 17 21 58 17 21 58 17 21 58 17 21 58 17 21 58 
16 20 57 16 20 57 16 20 57 17 21 56 17 21 58 17 21 58 16 20 57 17 21 58 16 20 57 17 21 58 17 21 58 16 20 57 16 20 57 16 20 57 17 21 58 16 20 57 16 20 57 16 20 57 15 19 56 16 20 57 16 20 57 16 20 57 16 20 57 17 21 58 15 19 56 16 20 57 16 20 57 16 20 57 17 21 58 17 21 58 17 21 58 17 21 58 16 20 57 17 21 58 16 20 57 16 20 57 17 21 58 16 20 57 16 20 57 17 21 58 16 20 57 16 20 57 16 20 57 16 20 57 17 21 58 18 22 59 17 21 58 17 21 58 18 22 59 17 21 58 17 21 58 18 22 59 17 21 58 18 22 59 16 20 57 17 21 58 16 20 57 16 20 57 17 21 58 16 20 57 17 21 58 16 20 57 17 21 58 17 21 58 17 21 58 15 19 56 15 19 56 17 21 58 16 20 57 17 21 58 17 21 58 16 20 57 17 21 58 17 21 58 17 21 58 16 20 57 16 20 57 17 21 58 17 21 58 17 21 58 16 20 57 17 21 58 17 21 58 17 21 58 17 21 58 17 21 58 17 21 58 17 21 58 17 21 58 17 21 58 17 21 58 17 21 58 17 21 58 17 21 58 17 21 58 17 21 58 17 21 58 17 21 58 17 21 58 17 21 58 
17 21 56 16 20 57 16 20 57 16 20 57 16 20 57 17 21 58 16 20 57 17 21 58 16 20 57 17 21 58 18 22 59 17 21 58 16 20 57 16 20 57 17 21 58 17 21 58 17 21 58 17 21 58 16 20 57 17 21 58 16 20 57 17 21 58 17 21 58 16 20 57 16 20 57 17 21 58 17 21 58 16 20 57 16 20 57 16 20 57 16 20 57 17 21 58 16 20 57 17 21 58 17 21 58 16 20 57 16 20 57 16 20 57 16 20 57 17 21 58 17 21 58 16 20 57 16 20 57 17 21 58 17 21 58 17 21 58 17 21 58 17 21 58 17 21 58 17 21 58 18 22 59 17 21 58 17 21 58 17 21 58 17 21 58 17 21 58 16 20 57 17 21 58 16 20 57 16 20 57 17 21 58 16 20 57 16 20 57 16 20 57 17 21 58 17 21 58 16 20 57 16 20 57 17 21 58 16 20 57 17 21 58 16 20 57 17 21 58 17 21 58 16 20 57 17 21 58 16 20 57 17 21 58 17 21 58 17 21 58 17 21 58 17 21 58 17 21 58 18 22 59 17 21 58 17 21 58 17 21 58 17 21 58 17 21 58 17 21 58 17 21 58 17 21 58 17 21 58 17 21 58 17 21 58 17 21 58 17 21 58 17 21 58 17 21 58 17 21 58 
17 21 58 16 20 57 16 20 57 17 21 58 16 20 57 17 21 58 16 20 57 16 20 58 17 21 58 17 21 58 17 21 58 16 20 57 16 20 57 16 20 57 17 21 58 17 21 58 16 20 57 16 20 57 16 20 57 17 21 58 17 21 58 16 20 57 14 18 55 18 22 59 17 21 58 16 20 57 17 21 58 17 21 58 16 20 57 17 21 58 18 22 59 17 21 58 17 21 58 17 21 58 17 21 58 15 19 56 16 20 57 16 20 57 16 20 57 17 21 58 16 20 57 17 21 58 15 19 56 16 20 57 17 21 59 17 21 59 17 21 59 20 24 62 20 23 64 20 23 66 21 24 65 21 25 63 19 23 60 19 23 60 17 21 58 17 21 58 17 21 58 17 21 58 17 21 58 16 20 57 16 20 57 16 20 55 17 21 58 17 21 58 17 21 58 16 20 57 17 21 58 18 20 58 18 20 58 18 20 58 18 21 56 18 21 56 18 21 56 18 21 56 18 20 58 18 20 58 17 21 58 18 22 59 16 20 57 17 21 58 17 21 58 16 20 57 17 21 58 18 22 59 17 21 58 17 21 58 17 21 58 17 21 58 17 21 58 17 21 58 17 21 58 17 21 58 17 21 58 17 21 58 17 21 58 17 21 58 17 21 58 17 21 58 17 21 58 17 21 58 
16 20 57 17 21 58 17 21 58 17 21 58 16 20 57 17 21 58 16 20 57 16 20 55 16 20 57 16 20 57 16 20 57 17 21 58 17 21 58 17 21 58 16 20 57 17 21 58 16 20 57 17 21 58 15 19 56 16 20 57 16 20 57 17 21 58 17 21 58 16 20 57 16 20 57 16 20 57 16 20 57 16 20 57 17 21 58 17 21 58 16 20 57 16 20 57 16 20 57 17 21 58 16 20 57 17 21 58 16 20 57 16 20 57 17 21 58 17 21 58 16 20 57 17 21 58 17 21 58 17 21 58 17 21 58 18 22 59 18 22 59 22 25 68 22 25 68 23 26 69 24 27 70 24 27 72 21 25 63 21 25 63 18 22 60 17 21 58 16 20 57 16 20 57 17 21 58 17 21 58 16 20 57 16 20 57 17 21 58 16 20 57 16 20 57 16 20 57 18 22 57 20 23 58 20 22 60 19 22 57 20 23 58 19 22 57 19 22 57 20 23 58 19 22 57 19 21 59 19 22 57 19 22 57 19 22 57 18 22 57 17 21 56 16 20 57 16 20 57 17 21 58 17 21 58 17 21 58 17 21 58 17 21 58 17 21 58 17 21 58 17 21 58 17 21 58 17 21 58 17 21 58 17 21 58 17 21 58 17 21 58 17 21 58 17 21 58 17 21 58 
16 20 57 16 20 57 17 21 58 16 20 57 18 22 59 16 20 57 17 21 58 17 21 58 16 20 57 16 20 57 17 21 58 17 21 58 17 21 58 16 20 57 16 20 57 17 21 58 17 21 58 17 21 58 17 21 58 16 20 57 17 21 58 16 20 57 16 20 57 16 20 57 17 21 58 17 21 58 16 20 57 16 20 57 18 22 59 18 22 59 17 21 58 16 20 57 16 20 57 16 20 57 16 20 57 17 21 58 17 21 58 17 21 58 16 20 57 17 21 58 16 20 57 17 21 58 17 21 58 17 21 58 18 22 59 18 22 60 19 23 61 26 29 72 27 30 73 28 31 74 31 34 77 31 34 77 23 27 65 22 26 64 19 23 61 17 21 59 17 21 58 17 21 58 17 21 58 17 21 58 17 21 58 17 21 56 17 21 58 17 21 58 17 21 58 17 21 58 19 23 58 18 21 56 19 22 57 19 22 57 20 23 58 18 21 56 18 21 56 19 22 57 18 21 56 19 22 57 18 21 56 19 22 57 19 22 57 19 22 57 17 21 56 17 21 56 17 21 58 17 21 58 17 21 58 17 21 58 17 21 58 17 21 58 17 21 58 17 21 58 17 21 58 17 21 58 17 21 58 17 21 58 17 21 58 17 21 58 17 21 58 17 21 58 17 21 58 17 21 58 
17 21 58 17 21 58 16 20 57 17 21 58 17 21 58 16 20 55 16 20 55 17 21 58 16 20 57 17 21 58 17 21 58 16 20 58 16 20 58 16 20 57 17 21 58 15 19 56 17 21 58 16 20 57 15 19 56 17 21 58 16 20 58 16 20 57 16 20 57 17 21 58 16 20 57 16 20 57 16 20 57 17 21 58 17 21 58 16 20 57 15 19 56 17 21 58 17 21 58 17 21 58 17 21 58 16 20 57 17 21 58 16 20 57 16 20 57 17 21 58 16 20 57 16 20 57 17 21 58 17 21 58 19 23 61 20 25 65 21 24 67 46 48 107 51 53 112 62 64 115 74 76 117 68 71 112 30 32 83 30 32 81 21 24 65 18 22 60 18 21 56 19 21 59 20 22 60 19 22 57 19 22 57 19 22 57 17 19 57 19 22 57 19 22 57 19 22 57 19 22 57 18 21 56 20 23 58 18 21 56 19 22 57 16 20 57 16 20 57 20 23 58 18 21 56 18 22 57 17 21 56 17 21 56 19 22 57 17 21 56 19 22 57 19 22 57 19 22 57 20 22 60 18 22 57 19 22 57 19 22 57 18 22 57 19 22 57 18 21 56 19 22 57 20 22 60 19 22 57 18 22 57 19 22 57 20 23 58 19 22 57 19 22 57 20 23 58 19 22 57 
16 20 57 16 20 57 16 20 57 16 20 57 16 20 57 16 20 57 17 21 58 16 20 57 16 20 57 16 20 57 17 21 58 16 20 57 15 21 57 16 20 57 17 21 58 15 21 57 16 20 57 16 20 57 17 21 58 16 20 57 17 21 58 16 20 57 16 20 57 17 21 58 17 21 58 16 20 57 16 20 57 16 20 57 16 20 57 16 20 57 16 20 57 16 20 57 18 22 59 17 21 58 16 20 57 17 21 58 17 21 58 16 20 57 17 21 58 16 20 57 16 20 57 17 21 58 17 21 56 16 20 55 17 22 60 21 26 68 20 25 67 45 47 104 50 52 111 63 65 114 74 77 118 68 71 112 29 33 81 29 33 81 21 25 63 18 22 59 18 22 59 19 21 59 19 22 57 18 21 56 19 22 57 20 23 56 18 21 56 19 22 57 19 22 57 19 22 57 18 21 56 18 21 56 19 22 57 19 22 57 19 22 57 16 20 57 16 20 57 17 20 55 19 22 57 19 22 57 17 21 58 16 20 57 19 22 57 19 22 57 18 22 57 20 23 58 18 22 57 18 22 57 19 22 57 18 21 56 18 21 56 19 22 57 19 22 57 18 21 56 19 22 57 19 22 57 19 23 58 19 22 57 18 21 56 19 22 57 19 22 57 19 22 57 19 22 57 20 23 58 
17 21 58 16 20 57 16 20 57 17 21 58 16 20 57 16 20 57 16 20 57 17 21 58 16 20 57 18 22 59 17 21 58 17 21 58 16 20 57 16 20 57 16 20 57 16 20 57 17 21 58 16 20 57 15 21 57 16 20 57 16 20 57 16 20 57 16 20 57 18 22 59 17 21 58 16 20 57 16 20 57 16 20 57 17 20 55 18 21 56 18 21 56 18 21 56 18 21 56 19 22 57 18 21 56 18 21 56 18 21 56 18 21 56 18 21 56 18 21 56 19 21 59 17 21 58 18 22 59 17 21 59 18 22 60 22 27 69 23 26 69 50 52 109 55 57 116 72 76 124 91 95 133 85 88 129 29 35 87 30 31 85 23 26 67 21 23 61 20 22 60 20 22 60 19 22 57 20 22 60 19 22 57 19 22 57 17 21 58 17 21 58 19 22 57 19 22 57 17 20 55 17 19 57 18 22 57 20 23 58 19 22 57 19 22 57 18 21 56 19 22 57 18 21 56 19 22 57 18 22 59 17 21 56 18 22 57 20 23 58 19 22 57 17 21 56 16 20 57 19 22 57 19 21 59 18 20 58 17 19 57 18 20 58 20 23 58 19 22 57 19 22 57 19 22 57 19 22 57 19 22 57 19 22 57 18 22 57 18 22 57 18 21 56 19 22 57 19 22 57 
17 21 58 16 20 57 17 21 58 16 20 57 17 21 58 16 20 57 16 20 57 16 20 57 17 21 58 16 20 57 17 21 58 16 20 57 16 20 57 16 20 57 16 20 57 15 19 56 17 21 58 17 21 58 16 20 57 16 20 57 17 21 58 16 20 57 16 20 57 17 21 58 16 20 57 17 21 58 16 20 57 16 20 57 19 22 55 17 20 53 18 21 54 18 21 54 18 21 54 17 20 53 18 21 54 18 21 54 17 20 55 18 21 56 18 21 56 17 20 55 19 22 57 19 22 57 18 20 58 17 21 59 18 22 59 24 27 68 23 26 69 51 53 112 53 57 118 76 80 128 97 101 139 91 95 132 32 35 88 32 35 88 23 26 67 20 24 61 19 23 58 19 22 57 19 22 57 19 21 59 19 22 57 17 21 58 14 20 56 17 21 58 19 22 57 20 23 58 16 20 57 16 20 57 18 20 58 19 22 57 19 22 57 18 21 56 19 22 57 19 22 57 19 22 57 18 20 58 18 21 56 20 23 58 19 22 57 18 21 56 17 21 58 17 21 58 17 21 58 19 22 57 19 21 59 17 21 58 17 21 58 19 21 59 20 23 58 19 22 57 19 22 57 19 22 57 18 22 57 20 23 58 18 21 56 17 21 56 19 22 57 19 22 57 18 21 56 19 22 57 
16 20 57 16 20 57 16 20 57 16 20 57 16 20 57 17 21 58 16 20 57 16 20 57 16 20 57 16 20 57 16 20 57 17 21 58 17 21 58 16 20 57 17 21 58 17 21 58 16 20 55 17 21 56 17 21 56 16 20 55 16 20 57 16 20 57 17 21 58 17 21 58 16 20 55 16 20 55 17 21 56 17 21 56 18 21 56 18 21 56 18 21 56 18 21 56 17 20 55 18 21 56 18 21 56 18 21 56 18 21 56 17 20 55 18 21 56 17 20 55 19 22 57 17 21 56 18 22 57 17 21 56 20 22 61 22 25 66 22 25 66 41 47 99 45 48 103 58 62 110 73 76 121 68 71 114 27 31 79 28 32 80 22 25 68 20 24 62 19 21 59 19 22 57 18 21 56 19 22 57 18 21 56 17 21 56 17 21 58 17 21 58 19 22 57 19 22 57 19 22 57 17 21 58 18 22 57 18 21 56 19 22 57 19 21 59 18 20 58 19 22 57 19 22 57 18 22 57 19 22 57 18 21 56 18 21 56 19 22 57 17 21 58 17 21 58 17 21 56 19 22 57 18 21 56 17 21 58 15 19 56 19 22 57 19 22 57 19 22 57 18 21 56 19 22 57 18 21 56 18 22 57 20 23 58 19 22 57 18 21 56 18 21 56 19 22 57 19 22 57 
15 19 56 16 20 57 16 20 57 17 21 58 16 20 57 15 19 56 16 20 57 17 21 58 17 21 58 18 22 59 17 21 58 16 20 57 17 21 58 17 21 58 16 20 58 17 21 58 18 21 56 17 20 55 18 21 56 20 20 56 17 20 55 17 20 55 17 20 55 18 21 56 18 21 56 18 21 56 18 21 56 17 20 55 17 20 55 18 21 56 18 21 56 17 20 55 18 21 56 17 20 55 18 21 56 18 21 56 17 20 53 19 22 57 17 20 55 18 21 56 19 22 57 19 22 57 19 23 58 18 22 57 21 21 59 18 22 60 18 23 61 25 29 74 28 32 80 27 30 81 30 33 84 29 32 83 24 26 67 22 25 68 19 23 61 18 22 59 18 20 58 19 23 58 18 20 58 20 22 60 19 22 57 19 22 57 18 21 54 19 22 57 19 22 57 19 22 57 19 22 57 19 22 55 20 23 58 19 22 57 18 20 58 16 22 58 15 21 57 18 20 58 19 22 57 17 21 56 17 21 58 17 21 58 19 22 57 19 22 57 18 21 56 18 22 57 19 22 57 19 22 57 18 21 56 19 22 57 18 21 56 19 22 57 19 22 57 19 22 57 19 22 57 20 23 58 18 21 56 19 22 57 18 22 57 19 22 57 19 22 57 19 22 57 19 22 57 18 21 56 
17 21 58 17 21 58 17 21 58 16 20 57 17 21 58 16 20 57 16 20 57 16 20 57 16 20 57 16 20 57 16 20 57 17 21 58 16 20 57 18 20 58 16 20 57 16 20 57 17 20 55 17 20 55 18 21 56 17 20 55 18 21 54 18 21 54 17 20 53 18 21 56 17 20 55 18 21 56 18 21 56 18 21 56 17 20 55 18 21 56 18 21 56 17 20 55 17 20 55 18 21 56 18 21 56 18 21 56 18 21 56 17 20 55 18 21 56 18 21 56 18 21 56 19 22 57 20 23 58 19 22 57 20 22 60 19 24 62 19 24 62 26 30 75 27 31 78 29 33 81 31 34 85 30 33 84 23 26 67 23 26 67 18 22 60 17 21 58 19 21 59 19 22 57 19 22 57 19 22 57 19 22 57 19 22 57 19 22 57 19 22 57 19 22 57 19 22 57 19 22 57 19 22 57 19 22 57 19 22 57 19 22 57 15 19 56 16 20 57 19 22 57 19 22 57 17 21 56 17 21 58 18 20 58 19 22 57 19 22 57 19 22 57 19 22 57 19 22 57 18 22 57 19 22 57 18 21 56 19 22 57 19 22 57 19 22 57 18 21 56 20 23 58 19 22 57 18 22 57 18 22 57 19 22 57 18 21 56 18 21 56 18 21 56 20 23 58 19 22 57 
16 20 57 16 20 57 17 21 58 16 20 57 17 21 56 15 19 56 17 21 58 18 21 56 17 20 55 18 21 56 17 20 55 17 20 53 18 21 56 17 20 55 17 20 53 18 21 54 17 20 55 17 20 55 18 21 54 18 21 54 17 20 53 17 20 55 17 20 55 17 20 55 17 20 55 18 21 56 19 22 57 19 22 57 20 23 58 19 22 57 19 22 57 19 22 57 19 22 57 19 22 57 19 22 57 19 22 57 19 22 57 19 22 57 19 22 57 19 22 57 19 22 57 19 22 57 17 20 55 20 23 58 19 22 57 19 22 57 18 20 58 18 20 59 18 22 59 19 23 60 20 24 59 21 24 59 17 21 59 19 21 59 19 22 57 18 21 56 19 22 55 19 22 57 19 22 57 19 22 57 18 20 58 17 21 58 17 21 58 17 21 58 19 21 59 19 22 57 16 20 57 17 21 58 18 20 58 19 22 57 19 22 57 19 22 57 19 22 57 19 22 57 18 21 56 20 20 58 19 22 57 22 22 56 19 22 57 18 21 56 19 22 57 19 22 57 19 21 59 16 20 57 16 20 57 19 22 57 18 21 56 18 22 57 17 19 57 18 20 58 18 21 56 19 22 57 20 23 58 19 22 57 18 21 56 17 21 56 19 22 57 19 22 57 19 22 57 19 22 57 
16 20 57 16 20 57 16 20 57 16 20 57 17 21 58 15 19 56 16 20 57 17 22 54 16 21 53 18 21 56 17 20 53 18 21 54 17 21 56 17 20 55 17 20 53 19 19 53 19 19 55 17 20 55 18 21 54 16 20 55 18 21 56 17 20 55 17 20 55 17 22 54 19 19 55 18 21 56 19 22 57 19 22 57 18 21 56 19 22 57 20 23 58 18 22 57 19 21 59 19 22 57 19 21 59 18 22 57 19 22 57 18 21 56 19 22 57 18 21 56 19 22 57 19 22 57 19 22 57 18 20 58 19 22 57 18 21 56 18 20 58 17 21 58 18 22 59 19 23 60 20 24 61 21 23 61 19 21 59 19 21 59 19 22 57 19 22 57 19 22 57 19 22 57 18 21 56 19 22 57 19 22 57 17 21 58 17 21 58 17 21 58 19 22 57 19 22 57 17 21 56 16 20 57 19 22 57 20 23 58 20 23 58 19 22 57 19 22 57 19 22 57 19 22 57 19 22 57 18 22 57 19 22 57 19 22 57 18 21 56 20 22 60 19 22 57 18 21 56 17 21 58 16 20 55 18 22 57 19 21 59 18 20 58 17 19 57 17 21 56 18 22 57 19 21 59 19 22 57 18 22 57 18 20 58 16 22 58 18 20 58 18 22 57 18 20 58 19 22 57 
17 19 57 17 20 53 17 20 55 17 20 55 18 21 54 18 21 54 18 21 56 18 21 54 18 21 54 18 21 56 17 20 55 18 21 56 17 21 56 18 21 56 17 20 55 22 22 58 19 22 57 18 22 57 19 22 57 18 21 56 19 22 57 19 22 57 19 22 57 19 21 59 19 22 57 18 21 56 18 21 56 20 23 58 18 21 56 17 20 55 18 21 54 18 21 56 18 21 56 18 21 56 17 20 53 20 23 58 19 22 57 19 22 57 17 20 55 17 20 55 19 22 57 19 22 57 18 21 56 18 21 56 19 22 57 19 22 57 19 21 59 19 23 60 18 22 57 20 23 58 19 22 57 18 22 57 20 22 60 19 21 59 19 21 59 18 20 58 19 21 59 19 22 57 19 22 57 19 22 55 18 21 56 18 21 56 16 20 57 19 23 60 19 22 57 18 21 56 18 21 56 18 22 59 19 22 57 19 22 57 20 23 58 19 22 57 17 21 58 18 21 56 18 21 56 18 21 56 17 21 56 19 22 57 19 22 57 19 22 57 19 22 57 19 22 57 20 23 58 18 22 57 19 23 58 19 22 57 19 22 57 19 22 57 18 20 58 17 21 56 19 22 57 18 20 58 18 21 56 19 21 59 17 20 55 16 19 52 16 19 52 14 18 47 13 17 46 12 14 39 
17 20 55 17 20 53 17 20 53 17 20 53 17 20 55 17 20 53 17 20 55 18 21 54 17 20 53 19 22 57 18 21 56 18 21 56 17 20 55 17 20 53 19 22 57 19 22 57 19 22 57 18 21 56 19 22 57 19 22 57 19 22 57 19 22 57 19 22 57 19 22 57 19 22 57 19 22 57 18 22 57 19 21 59 19 22 57 19 19 53 18 21 54 19 22 57 19 22 57 20 20 56 17 20 55 20 23 58 19 22 57 18 21 56 19 19 53 20 20 56 20 20 56 19 22 57 19 21 59 17 20 55 19 22 55 19 22 57 19 22 57 18 21 56 19 22 55 19 22 57 19 22 57 18 22 57 19 22 57 19 22 57 18 21 56 19 22 57 19 22 57 20 23 58 19 22 57 19 22 57 19 22 57 19 22 57 18 21 56 19 22 57 19 22 57 19 22 57 19 22 57 18 21 56 19 21 60 19 22 57 19 22 57 16 20 57 16 20 55 19 22 57 18 21 56 18 20 58 16 20 57 16 20 57 19 22 57 19 22 57 20 23 58 18 21 56 18 21 56 18 20 58 19 22 57 19 22 57 18 21 56 19 22 55 19 22 55 19 22 57 18 21 56 19 22 57 19 21 59 18 21 56 18 21 54 14 19 49 15 19 48 12 14 37 13 15 38 9 8 26 
17 20 55 17 20 55 17 20 55 17 19 57 17 20 55 17 20 55 18 21 56 18 21 54 17 20 53 18 21 54 19 22 55 18 21 54 19 22 55 18 21 56 18 21 56 19 22 57 19 22 55 19 22 57 18 21 56 19 22 57 18 21 56 19 22 57 20 23 58 21 21 57 19 21 59 18 20 58 19 22 57 21 21 57 19 22 57 17 20 55 18 21 56 21 21 55 19 22 57 16 20 55 17 20 55 20 20 56 19 21 59 19 22 57 17 20 53 18 21 54 19 21 59 19 22 57 18 21 56 17 20 55 18 21 54 18 21 56 18 21 54 18 21 56 19 22 57 20 23 58 19 22 57 18 22 57 18 20 58 18 21 56 19 22 57 19 22 57 19 22 57 19 22 57 19 21 59 18 20 58 19 22 57 19 22 57 19 22 57 19 22 57 19 22 57 18 21 56 19 22 57 19 22 57 18 21 56 20 23 58 20 23 58 17 21 56 17 21 58 19 22 57 18 21 56 18 21 56 17 21 56 17 21 56 19 22 57 19 22 57 19 22 57 19 22 57 18 21 56 19 22 55 19 21 59 18 21 56 19 22 57 18 21 56 18 21 54 20 20 56 18 19 50 18 19 50 15 18 49 15 18 49 14 16 39 11 16 38 12 14 37 9 12 29 9 12 31 5 7 20 
17 20 55 17 20 53 17 20 55 17 20 55 18 21 54 18 21 56 18 21 56 18 21 56 19 22 57 19 22 57 19 22 57 18 21 56 19 22 55 19 22 57 18 21 56 19 22 57 19 22 57 18 21 54 19 22 55 17 20 55 18 21 56 16 20 57 16 20 57 17 20 55 18 21 54 17 20 53 17 20 55 17 20 55 18 21 56 19 22 57 18 21 56 17 20 55 17 20 55 15 19 56 16 20 55 16 19 54 17 20 53 19 22 55 19 22 57 19 21 59 17 20 55 18 21 56 16 20 55 17 21 59 17 21 56 17 20 55 17 20 53 18 21 56 20 23 58 18 22 57 19 22 57 19 22 57 19 22 57 19 22 57 19 22 57 19 22 57 18 21 56 18 21 56 19 22 57 18 21 56 19 22 57 19 22 57 17 20 55 19 22 57 18 21 56 19 22 57 19 22 57 18 21 56 19 22 57 20 23 58 18 21 56 19 22 57 19 22 57 19 22 57 20 23 58 18 21 56 18 21 56 19 21 59 22 22 58 19 22 57 17 19 57 17 21 58 17 21 58 18 20 58 19 22 57 20 20 56 18 21 54 15 18 49 14 17 48 14 15 45 9 11 34 9 11 34 6 5 19 5 4 20 2 2 12 2 2 4 1 2 4 1 1 1 1 1 1 2 0 1 
17 20 53 18 21 54 18 21 54 18 21 54 17 20 53 18 21 54 18 21 54 18 21 56 19 22 57 19 22 57 18 20 58 19 22 57 18 21 56 20 23 58 19 21 59 19 22 57 19 22 57 17 20 55 17 20 55 17 20 53 17 20 55 16 20 55 16 20 57 17 20 55 18 21 56 18 21 56 17 20 55 17 20 53 18 21 56 17 23 57 18 21 56 17 20 55 18 21 56 17 21 58 16 20 57 20 20 56 20 20 56 20 20 56 19 22 57 19 22 57 17 20 53 18 21 56 16 20 55 16 20 57 16 20 57 17 20 53 18 21 54 18 21 56 18 20 58 19 22 57 19 22 57 19 22 57 20 23 58 19 22 57 18 21 56 19 22 57 19 22 57 19 22 57 19 22 57 19 22 57 19 22 57 18 21 56 18 21 56 19 22 57 19 22 57 18 22 57 18 21 56 19 22 57 18 21 56 19 22 57 18 21 56 19 22 57 19 22 57 19 22 57 19 22 57 19 22 57 19 22 57 19 22 57 22 22 58 19 22 57 18 21 56 17 21 56 17 21 58 19 22 55 19 23 58 17 20 55 19 22 57 15 18 51 15 18 49 14 15 45 9 11 34 9 11 34 5 7 19 4 6 19 4 4 12 0 0 2 1 2 4 1 1 3 1 1 1 1 1 1 
17 20 53 18 21 56 18 21 54 18 21 54 17 20 55 18 21 56 17 20 53 18 21 56 19 22 57 18 21 56 17 20 55 18 21 54 18 21 56 18 21 56 17 21 58 17 21 58 18 21 56 19 22 57 18 21 56 16 19 54 17 20 55 17 21 56 17 21 56 17 21 56 18 21 56 19 22 57 18 21 56 16 20 57 17 20 55 17 20 55 18 21 56 19 22 55 18 21 56 18 22 57 18 22 57 18 21 54 18 21 54 19 22 57 19 22 57 18 21 56 18 20 58 18 21 54 17 21 56 18 22 57 18 21 56 17 20 53 17 20 55 17 21 56 17 19 57 20 20 56 19 22 57 19 23 58 19 22 57 19 22 57 18 21 56 19 22 57 20 23 58 19 22 57 19 22 57 19 22 57 18 21 56 18 21 56 18 22 57 19 22 57 19 22 57 19 22 57 19 22 57 19 22 57 19 22 57 19 22 57 18 21 56 18 21 56 17 21 56 19 22 57 18 21 56 18 21 56 18 22 57 18 22 59 17 20 55 17 20 55 14 17 50 12 17 47 11 15 44 9 11 34 10 12 35 4 6 21 6 5 19 4 4 14 3 4 9 3 4 8 3 3 5 1 2 4 1 1 3 2 2 2 1 1 1 1 1 1 0 0 0 1 1 1 1 1 1 0 0 0 
17 20 55 17 20 55 18 21 56 18 21 54 17 20 53 18 21 56 17 20 53 20 23 58 18 21 56 17 20 53 18 21 54 18 21 54 17 20 55 18 21 56 16 20 57 15 19 56 17 21 56 18 22 57 19 22 57 18 21 56 19 19 55 19 22 57 18 21 56 18 20 58 19 22 57 19 22 57 17 20 55 16 20 57 17 20 55 19 19 55 18 21 54 21 21 57 19 22 57 18 21 56 18 21 56 17 20 55 18 21 56 19 22 57 18 21 56 19 22 57 17 20 53 18 21 54 19 22 55 19 22 57 18 21 56 17 20 55 18 20 58 17 20 55 15 19 56 17 21 56 18 22 57 17 21 56 18 21 56 20 23 58 19 22 57 19 22 57 19 22 57 19 22 57 19 22 57 19 22 57 18 21 56 19 22 57 18 21 56 20 23 58 19 22 57 18 21 56 19 22 57 18 21 56 19 21 59 19 22 57 17 20 55 17 21 58 17 21 58 18 21 56 18 21 56 18 20 58 18 22 59 17 21 58 16 19 54 16 19 52 13 16 47 11 16 45 11 15 42 6 8 29 8 10 31 3 5 18 5 3 16 3 2 8 1 1 3 1 1 1 1 1 1 1 1 1 0 0 2 1 1 3 0 0 0 1 1 1 0 0 0 2 2 2 1 1 1 0 0 0 
