P3
100 50
255
42 37 31 45 39 27 42 38 27 44 37 27 47 40 30 46 42 33 45 42 33 47 40 30 48 41 33 47 40 34 45 38 28 46 38 27 45 35 26 44 34 25 46 38 27 43 39 28 44 37 27 45 38 28 47 40 30 45 36 27 43 33 23 45 36 27 47 40 30 44 35 26 43 35 24 43 37 25 44 36 25 42 34 23 42 34 23 43 35 24 43 35 24 42 34 23 41 31 22 43 30 22 46 32 23 46 36 26 44 36 25 43 34 25 47 34 26 44 35 26 46 37 28 46 36 27 45 36 29 45 36 29 44 35 26 44 35 26 45 34 28 43 34 25 44 37 27 44 38 26 45 37 26 44 37 27 44 37 27 44 35 26 44 36 25 43 35 24 46 37 28 45 37 26 45 35 25 44 34 24 45 37 26 43 34 25 43 33 23 46 33 24 45 36 29 47 40 32 47 40 30 46 39 31 43 36 26 44 37 27 44 40 29 45 36 27 46 37 28 45 38 28 44 37 27 43 36 26 44 35 26 44 34 25 44 34 25 45 36 27 47 37 28 45 38 28 44 40 29 46 39 29 46 37 28 18 14 11 1 1 1 1 1 1 0 0 0 1 1 1 0 0 0 1 1 1 1 1 1 0 0 0 1 1 1 1 1 1 1 1 1 0 0 0 1 1 1 1 1 1 
43 36 28 45 38 28 41 37 25 46 40 28 46 39 29 47 40 30 47 40 32 46 39 31 46 39 31 46 37 30 45 36 27 46 36 27 44 34 25 44 34 25 44 36 25 44 36 25 42 40 28 45 38 28 44 40 29 44 37 27 44 36 25 45 39 27 47 40 30 46 39 31 46 39 29 44 37 27 43 34 25 43 34 25 43 34 25 44 35 26 46 38 27 44 36 25 43 33 23 42 32 22 44 31 22 43 33 23 43 37 25 45 36 27 44 35 26 44 35 26 45 35 26 45 35 26 45 35 26 45 35 26 44 35 26 44 35 26 44 35 26 43 35 24 41 37 26 45 39 27 45 37 26 42 38 27 44 40 29 45 36 27 45 35 25 46 38 27 45 36 27 43 33 24 43 30 21 45 31 22 42 32 22 42 32 22 42 32 22 44 31 22 44 35 28 43 39 28 46 39 29 45 39 27 44 38 26 45 39 27 46 39 29 44 37 27 44 35 26 44 37 27 46 37 28 45 36 27 43 34 25 44 34 25 46 33 25 44 37 27 46 37 28 47 40 30 46 39 29 45 36 27 44 35 26 18 13 10 1 1 1 1 1 1 1 1 1 1 1 1 1 1 1 1 1 1 1 1 1 1 1 1 0 0 0 1 1 1 1 1 1 2 2 2 0 0 0 0 0 0 
41 37 28 43 36 26 45 38 28 43 39 28 44 40 29 48 41 31 48 41 33 47 40 32 47 38 31 46 37 28 45 36 27 44 37 27 44 35 26 44 35 26 46 37 28 44 37 27 44 37 27 45 38 28 46 39 31 45 38 28 44 37 27 46 40 28 47 40 30 44 40 31 45 38 28 44 37 27 43 36 26 44 35 26 45 36 27 44 37 27 43 36 26 43 34 25 45 37 26 44 34 24 43 33 23 43 33 23 44 36 25 44 35 26 45 35 26 44 34 25 44 34 25 44 34 25 45 34 28 45 35 26 44 35 26 45 36 27 45 38 28 44 36 25 44 38 26 44 37 27 45 36 27 45 38 28 46 37 28 46 37 28 46 39 29 47 40 30 47 40 30 44 35 26 45 32 23 43 33 23 41 33 22 40 31 22 43 33 23 44 34 25 44 36 25 44 38 26 44 36 25 45 36 27 43 35 24 44 35 26 45 38 28 45 38 28 44 38 26 43 36 26 46 39 29 43 36 26 44 37 27 43 34 25 44 36 25 44 38 26 45 38 28 46 39 29 44 37 27 44 35 26 43 34 25 17 14 9 1 1 1 1 1 1 1 1 1 1 1 1 1 1 1 0 0 0 1 1 1 1 1 1 1 1 1 1 1 1 2 2 2 1 1 1 1 1 1 0 0 0 
42 35 27 44 37 27 45 38 28 45 41 30 44 40 29 44 40 29 46 39 29 45 38 28 45 38 28 45 36 27 45 36 27 46 37 28 46 39 31 45 38 28 46 39 29 43 39 28 45 38 28 46 37 28 46 39 31 45 38 28 45 38 28 45 39 27 46 38 27 45 38 30 42 38 27 44 37 27 46 39 29 44 37 27 45 37 26 42 35 25 43 34 25 43 34 25 43 34 27 43 35 24 43 33 21 41 31 21 43 33 23 42 34 23 43 35 24 46 33 25 46 33 24 44 34 24 45 35 26 46 36 27 44 35 26 46 39 29 46 39 29 45 37 26 45 35 25 45 36 27 45 36 27 46 39 29 47 38 29 46 39 29 46 42 33 47 40 32 48 41 33 46 39 29 45 37 26 42 34 23 42 34 23 42 32 23 44 34 25 45 36 27 44 35 26 45 39 27 44 36 25 44 36 25 42 35 25 44 35 26 45 36 29 44 37 27 44 37 27 45 38 28 45 38 28 46 37 28 44 37 27 45 36 27 44 36 25 45 37 26 45 38 28 46 37 28 44 35 26 43 34 25 43 34 25 17 14 9 0 0 0 1 1 1 1 1 1 0 0 0 1 1 1 1 1 1 0 0 0 1 1 1 1 1 1 0 0 0 0 0 0 1 1 1 1 1 1 1 1 1 
42 35 27 43 36 26 46 39 29 45 39 27 45 38 28 44 37 27 42 38 26 45 38 28 45 34 28 43 36 26 46 37 28 46 39 29 43 39 28 46 39 29 45 38 28 45 38 28 43 36 26 45 38 28 46 39 29 46 39 31 46 39 29 47 41 29 45 39 27 44 37 27 44 37 27 45 38 28 46 39 29 44 37 27 44 37 27 43 36 26 44 35 28 44 37 27 43 34 25 43 33 23 42 32 22 43 33 23 43 33 23 45 32 23 44 34 24 43 35 24 43 33 23 44 34 24 44 34 25 45 36 27 45 36 27 46 39 29 44 40 29 44 37 27 44 38 26 44 37 27 45 37 26 45 38 28 47 38 31 48 41 31 45 41 32 45 41 32 47 40 32 43 39 28 44 37 27 44 35 26 42 32 22 43 33 23 44 34 24 45 37 26 45 38 28 45 39 27 45 37 26 45 37 26 46 39 29 46 39 31 44 37 27 43 36 26 45 38 28 43 37 25 45 39 27 44 38 26 45 39 27 44 36 25 43 35 24 44 36 25 45 37 26 45 36 27 44 35 26 44 34 25 43 33 24 17 14 9 1 1 1 0 0 0 0 0 0 1 1 1 1 1 1 1 1 1 1 1 1 0 0 0 0 0 0 0 0 0 0 0 0 1 1 1 0 0 0 0 0 0 
40 36 27 43 36 28 44 38 26 44 37 27 45 38 28 47 38 29 46 39 29 44 37 27 45 36 27 43 36 26 44 37 27 46 39 31 46 39 29 45 38 28 45 38 28 45 38 28 44 37 27 45 38 28 45 38 28 45 38 32 47 38 29 46 40 28 42 38 26 44 37 27 47 38 29 44 37 27 45 38 28 42 38 27 43 36 26 44 35 26 44 36 25 44 38 26 43 37 25 43 35 24 43 33 23 42 32 22 43 33 23 42 32 23 41 32 23 43 33 23 42 32 22 43 33 23 44 35 26 45 36 27 45 37 26 44 38 26 45 38 28 43 36 26 45 39 27 45 39 27 46 38 27 45 41 30 47 40 32 47 40 32 47 40 32 47 40 30 44 40 29 45 38 28 45 39 27 43 35 24 43 35 24 43 35 24 44 34 24 43 34 25 45 38 28 44 37 27 45 37 26 47 37 27 47 40 32 45 41 32 45 38 28 43 36 26 45 37 26 45 39 27 43 37 25 44 37 27 45 38 28 43 37 25 43 33 23 42 34 23 43 33 23 44 35 26 43 36 26 44 35 26 44 35 26 17 14 7 1 1 1 1 1 1 1 1 1 1 1 1 0 0 0 1 1 1 1 1 1 0 0 0 1 1 1 0 0 0 1 1 1 0 0 0 1 1 1 1 1 1 
40 36 27 43 36 26 44 36 25 42 38 27 45 38 28 43 39 27 47 40 30 46 37 28 44 35 26 42 35 25 44 37 27 45 38 28 46 39 29 44 37 27 45 38 28 44 37 27 45 38 28 44 37 27 44 37 27 45 38 28 44 40 29 45 38 28 44 37 27 45 38 28 43 39 30 45 38 28 44 37 27 42 38 27 44 37 27 45 36 27 42 35 25 44 36 25 44 36 25 43 35 24 43 35 24 44 34 22 44 34 24 45 32 23 41 31 21 41 31 21 42 32 22 43 33 23 43 35 24 44 36 25 45 35 26 44 35 26 43 40 31 43 34 25 45 37 26 47 40 30 44 40 29 45 41 30 44 40 29 45 41 32 47 40 32 47 40 32 45 38 28 44 37 27 43 36 26 44 38 26 42 36 24 43 34 25 43 35 24 43 34 25 45 36 27 45 38 28 46 39 29 44 37 29 45 38 30 44 40 29 43 39 28 46 37 28 44 37 27 45 36 27 45 36 27 43 36 26 45 38 28 43 36 26 44 34 25 43 33 23 43 33 24 44 35 26 44 36 25 45 36 27 46 38 27 15 14 10 1 1 1 0 2 1 1 1 1 1 1 1 0 0 0 1 1 1 1 1 1 0 0 0 0 0 0 0 0 0 0 0 0 1 1 1 1 1 1 1 1 1 
42 38 29 44 37 27 44 35 26 44 35 26 46 39 29 46 39 29 46 39 29 44 37 27 45 35 26 44 37 27 45 38 28 45 38 28 47 40 30 45 38 28 45 38 28 45 38 28 44 37 27 44 37 27 45 38 28 43 39 28 47 40 30 47 40 30 44 37 27 45 38 28 46 39 31 45 38 28 44 37 27 45 36 27 44 37 27 44 37 27 43 35 24 42 33 24 45 37 26 44 36 25 44 36 25 45 37 26 45 35 25 43 33 24 42 32 22 41 31 21 43 33 21 43 33 23 44 34 25 43 34 25 44 33 27 43 36 26 46 39 29 44 37 27 43 36 26 45 41 32 47 40 32 46 40 28 46 39 29 44 40 31 47 40 34 44 40 29 42 38 29 44 38 26 45 36 27 44 37 27 45 37 26 45 36 27 45 36 27 46 37 28 46 37 28 44 37 27 45 38 28 45 38 28 45 38 28 44 37 27 44 40 29 46 39 29 45 38 28 45 36 27 45 36 27 44 35 26 44 37 27 42 35 25 44 34 25 42 34 23 44 34 24 44 34 25 44 35 26 44 37 29 26 21 17 3 3 1 1 1 1 0 0 2 0 0 0 0 0 0 0 0 0 1 1 1 1 1 1 1 1 1 0 0 0 1 1 1 1 1 1 1 1 1 1 1 1 1 1 1 
42 38 29 44 37 27 43 34 25 46 36 26 46 39 29 46 39 31 46 39 29 44 37 27 44 35 26 44 37 27 44 37 27 45 38 28 45 38 28 45 38 28 44 37 27 44 37 27 44 37 27 44 35 26 45 38 28 45 41 30 48 41 31 46 39 29 44 37 27 46 37 28 48 39 32 46 37 30 41 37 26 44 37 27 43 36 26 43 37 25 44 35 26 43 34 25 45 36 27 46 38 27 45 37 26 45 35 26 44 34 25 44 34 25 43 33 23 45 32 23 43 33 23 44 34 24 44 34 25 44 35 28 45 34 28 44 35 26 46 39 31 45 39 27 45 38 28 47 40 32 47 40 32 45 38 28 43 39 28 45 38 30 42 38 29 46 39 29 45 38 30 45 36 27 44 37 27 44 37 27 46 38 27 45 38 28 46 39 29 47 40 30 45 38 28 44 35 26 45 36 27 44 38 26 45 37 26 45 38 28 44 40 31 46 42 31 45 38 28 44 35 26 45 38 28 45 36 27 43 36 26 45 36 27 43 35 24 42 34 23 42 32 22 43 33 23 43 34 25 43 37 25 18 14 11 1 1 1 0 0 0 1 1 1 1 1 1 0 0 0 1 1 1 2 2 2 1 1 1 2 2 2 1 1 1 1 1 1 1 1 1 1 1 1 1 1 1 1 1 1 
43 36 26 43 36 26 42 35 25 44 37 27 46 39 31 45 38 28 46 40 26 44 37 27 43 36 26 42 35 25 45 38 28 46 39 29 45 38 28 45 38 28 46 39 29 45 38 28 44 37 27 45 36 27 46 39 29 45 41 30 48 41 31 45 38 28 43 36 26 45 36 27 47 40 30 45 38 28 44 37 27 44 38 26 43 37 25 43 35 24 44 36 25 44 35 26 43 36 26 44 38 24 44 36 25 44 34 25 44 34 25 44 34 24 44 31 22 43 33 23 44 34 25 46 36 26 45 36 27 43 36 26 44 33 27 45 35 26 44 37 27 45 39 27 46 39 29 47 40 32 47 40 30 45 38 30 45 38 28 46 39 31 44 40 29 46 40 28 44 38 26 43 34 25 43 35 24 44 36 25 44 38 26 44 37 27 46 39 29 46 42 31 45 38 28 44 37 27 43 36 26 42 34 23 43 34 25 45 37 26 46 39 29 45 41 29 44 37 27 44 37 27 45 39 27 44 37 27 45 36 27 44 36 25 43 33 23 42 32 22 42 32 22 44 34 24 44 35 26 44 35 26 17 14 9 1 1 1 1 1 1 1 1 0 1 1 1 1 1 1 0 0 0 1 1 1 0 0 0 0 0 0 1 1 1 1 1 1 1 1 1 1 1 1 1 1 1 1 1 1 
43 34 25 43 34 25 43 35 24 44 38 26 45 38 28 46 39 29 45 39 27 46 40 28 44 37 27 42 38 27 44 40 29 47 40 30 46 39 29 46 39 29 46 39 29 47 40 30 45 38 28 45 41 30 47 40 30 45 41 30 46 39 29 44 37 27 45 36 27 43 37 25 46 38 27 45 38 30 43 37 25 45 39 27 44 38 26 44 38 26 45 37 26 43 37 25 44 37 27 43 37 25 43 35 24 45 35 25 45 35 25 43 35 24 44 34 24 44 34 24 44 35 26 45 37 26 44 35 26 44 35 26 45 35 25 45 37 26 44 37 27 44 38 26 46 40 28 46 40 28 43 39 27 46 40 28 44 37 27 45 38 28 44 37 27 44 37 27 44 35 26 41 34 24 43 35 24 45 37 26 44 38 26 45 39 27 44 40 28 44 42 29 45 41 30 44 37 27 44 38 26 43 34 25 44 34 25 43 36 26 45 41 29 47 40 30 43 36 26 46 39 29 45 38 28 45 39 27 45 39 27 44 37 27 44 34 24 43 33 23 44 34 24 43 33 23 44 35 26 43 34 25 17 14 9 0 0 0 1 1 1 1 1 1 0 0 0 1 1 1 0 0 0 0 0 0 1 1 1 0 0 0 1 1 1 0 0 0 0 0 0 0 0 0 1 1 1 1 1 1 
43 36 26 44 38 26 44 36 25 45 36 27 46 37 28 46 38 27 46 40 28 42 40 28 43 39 28 44 37 27 46 39 29 45 41 30 45 41 30 46 39 29 46 39 29 46 39 29 47 40 30 45 41 30 48 41 31 47 40 30 44 40 29 45 38 28 45 36 27 44 38 26 44 38 26 43 39 27 43 39 27 44 38 26 45 37 26 44 37 27 44 36 23 43 37 25 43 37 25 43 35 24 43 35 24 44 36 25 44 36 25 45 35 25 44 34 24 43 33 23 45 37 26 45 37 26 45 36 27 44 36 25 43 35 24 44 36 25 43 37 25 45 39 27 45 38 28 46 39 29 42 38 27 46 39 29 45 38 28 44 37 27 45 38 28 44 37 29 43 34 25 42 34 23 45 35 25 44 37 27 44 38 26 45 39 27 44 40 29 45 41 30 46 39 31 43 39 28 43 39 27 46 36 27 43 34 25 43 36 26 45 41 29 46 39 29 44 35 26 45 38 28 47 38 29 44 38 26 44 38 26 41 37 26 44 34 24 43 35 24 44 34 24 43 35 24 44 36 25 45 37 26 17 14 9 1 1 1 1 1 1 1 1 1 1 1 1 1 1 1 1 1 1 1 1 1 0 0 0 1 1 1 0 0 0 1 1 1 0 0 0 0 0 0 0 0 0 0 0 0 
41 37 28 44 37 27 44 38 26 45 39 27 43 36 26 44 37 27 45 39 27 45 38 28 45 38 28 44 37 27 44 40 29 46 42 31 46 39 29 47 40 30 46 39 29 46 39 29 46 42 31 46 39 29 45 41 32 47 40 32 44 40 29 45 38 28 44 37 27 45 37 26 44 37 27 45 39 25 44 37 27 44 38 26 43 37 23 44 38 26 45 37 26 44 36 25 43 37 25 44 36 25 44 36 25 43 37 25 44 36 25 45 35 26 43 33 23 43 35 24 44 36 25 46 38 27 45 36 27 43 35 24 42 34 23 44 34 24 44 38 26 45 39 27 46 40 28 43 39 27 45 38 28 43 39 27 45 38 28 44 38 26 44 37 27 44 36 25 44 37 27 45 39 27 45 39 27 43 36 26 45 39 27 45 38 28 45 38 28 46 42 31 44 40 31 45 41 30 43 41 29 46 40 28 44 35 26 42 35 25 45 38 28 47 38 29 46 37 28 45 38 28 46 40 28 45 38 28 44 37 27 43 35 24 43 33 23 44 36 25 44 36 25 44 36 25 44 36 25 44 35 26 17 13 10 1 1 1 1 1 1 1 1 1 1 1 1 1 1 1 1 1 1 0 0 0 1 1 1 1 1 1 0 0 0 0 0 0 0 0 0 0 0 0 0 0 0 1 1 1 
43 39 30 44 37 27 43 36 26 44 37 27 44 37 27 44 37 27 44 37 27 45 36 27 44 37 27 45 36 27 48 39 32 48 41 35 46 39 33 47 40 32 46 39 29 47 40 30 47 40 30 46 39 29 45 41 32 44 40 31 45 41 30 46 39 29 44 37 27 44 37 27 46 38 27 44 37 27 44 35 26 44 36 25 41 37 25 44 38 24 44 35 26 43 37 25 43 37 25 45 36 27 46 36 27 44 38 26 44 37 27 47 34 28 43 33 24 42 34 23 44 38 26 45 37 26 46 36 27 44 36 25 44 34 24 42 34 21 44 36 25 45 38 28 46 39 29 43 39 28 45 38 28 45 38 28 45 39 27 46 40 28 43 35 24 43 34 25 44 38 26 45 38 28 45 38 28 45 39 27 42 38 26 45 38 28 45 36 27 47 40 30 44 40 31 46 39 29 44 40 29 44 40 28 43 37 25 43 34 25 43 36 26 45 41 29 44 40 28 44 37 27 43 39 28 45 39 27 44 37 27 44 34 25 43 35 24 44 34 24 43 37 25 42 35 25 44 37 27 44 37 27 29 26 19 8 8 6 1 1 1 0 2 1 1 1 1 1 1 1 0 0 0 1 1 1 0 0 0 1 1 1 2 2 2 1 1 1 1 1 1 1 1 1 1 1 1 0 0 0 
46 39 33 43 39 30 44 37 29 45 38 28 44 37 27 45 37 26 44 36 23 43 36 28 45 35 26 45 36 27 46 39 29 43 40 31 43 39 30 44 40 29 46 40 28 46 39 29 44 40 29 46 39 31 46 39 29 44 40 29 47 40 32 44 37 29 44 37 29 45 38 28 45 38 28 45 39 27 45 36 27 43 35 24 44 38 26 44 38 26 44 37 27 42 36 24 45 37 26 46 37 28 45 38 28 44 40 29 46 39 29 44 35 26 43 33 23 43 35 22 45 36 27 44 35 26 43 34 25 43 35 24 44 34 24 45 32 23 45 35 25 46 37 28 46 38 27 44 40 29 44 40 29 45 38 28 45 38 28 43 39 28 44 37 27 44 36 25 44 37 29 45 39 27 44 37 27 44 38 26 44 37 27 44 38 26 44 37 27 45 39 27 45 38 28 46 39 29 43 39 28 45 38 28 43 35 24 42 34 23 44 37 27 46 39 29 43 39 28 46 40 28 42 38 27 43 36 26 43 36 26 43 36 26 43 35 24 42 34 23 43 37 25 45 37 26 44 37 27 44 37 27 45 37 26 18 15 10 0 0 2 0 2 1 2 2 2 1 1 1 1 1 1 0 0 0 1 1 1 0 0 0 1 1 1 0 0 0 0 0 0 0 0 0 1 1 1 1 1 1 
43 38 32 46 39 29 45 38 30 45 38 28 44 38 26 44 37 27 43 36 26 44 34 24 44 34 25 44 35 26 45 38 28 44 37 27 43 36 26 44 37 27 45 38 28 46 39 29 47 40 30 46 39 29 45 38 28 45 38 28 45 38 28 45 39 27 46 37 28 43 37 25 45 39 27 46 38 27 44 37 27 43 36 26 46 40 28 46 37 30 44 37 27 44 35 26 43 36 26 45 37 26 46 38 27 45 39 27 46 39 29 45 37 26 44 34 24 43 35 24 44 35 26 44 34 25 44 34 24 43 33 23 42 34 23 44 34 24 45 35 25 44 36 25 44 38 26 44 40 28 43 39 28 45 38 28 44 37 27 43 39 28 43 39 28 45 38 28 45 36 27 44 37 27 44 35 28 42 36 24 44 38 26 44 38 26 45 38 28 45 39 27 45 39 27 45 38 28 44 37 27 44 37 27 43 35 24 43 35 24 44 37 27 45 38 30 45 38 28 44 35 26 43 36 26 43 35 24 43 37 25 45 37 26 43 33 23 41 31 21 41 35 23 44 35 26 45 38 28 45 37 26 45 36 29 18 14 11 1 1 1 1 1 1 2 2 2 1 1 1 0 0 0 1 1 1 1 1 1 0 0 0 0 0 0 1 1 1 1 1 1 1 1 1 1 1 1 1 1 1 
44 40 31 47 40 30 46 39 29 46 39 29 45 37 26 45 38 28 46 38 27 45 36 27 44 35 26 44 35 26 45 35 26 44 34 24 41 33 22 43 37 25 44 37 27 46 37 28 44 37 27 45 38 28 44 37 27 45 38 28 43 39 28 45 38 28 45 38 30 45 38 28 43 39 28 46 39 29 45 41 30 46 39 29 47 40 32 46 39 31 45 35 26 44 34 24 43 34 25 44 36 25 44 36 25 44 37 27 44 37 27 44 37 27 44 36 25 44 35 26 43 34 25 43 34 25 43 35 24 44 36 25 43 37 25 43 33 23 42 32 22 44 36 25 44 37 27 44 37 27 42 38 27 45 36 27 45 38 28 43 39 28 44 42 30 45 38 28 44 37 27 42 33 24 43 34 25 43 34 25 43 36 26 42 38 27 44 37 27 44 37 27 44 35 26 45 36 27 45 38 28 45 36 27 43 34 25 44 35 26 43 36 26 44 35 26 43 34 25 44 34 25 44 35 26 46 33 25 44 35 26 44 34 24 42 32 22 44 31 22 41 33 22 43 36 26 45 36 27 45 36 27 44 36 25 15 14 9 0 0 0 1 1 1 1 1 1 1 1 1 1 1 1 1 1 1 1 1 1 0 0 0 0 0 0 1 1 1 1 1 1 0 0 0 0 0 0 1 1 1 
44 39 33 45 38 28 45 38 28 45 38 28 46 39 31 46 39 29 46 39 29 45 38 30 45 38 28 44 37 27 44 35 26 43 33 23 43 35 24 45 35 26 44 37 27 44 37 27 44 37 27 44 35 26 43 36 26 46 37 30 45 38 28 43 39 28 45 38 30 45 38 28 45 38 28 45 38 28 47 40 34 46 39 31 44 40 31 46 39 29 45 36 27 43 33 23 44 34 24 44 34 25 43 35 24 43 35 24 44 36 25 44 37 27 44 37 27 44 37 27 44 37 29 44 35 26 43 35 24 46 38 27 45 36 27 42 34 23 42 32 22 44 38 26 44 37 27 43 36 26 44 35 26 45 38 28 45 38 28 44 40 29 45 41 30 44 37 27 45 38 28 44 34 25 43 33 23 43 35 24 44 35 26 44 37 27 44 37 27 45 37 26 43 36 26 46 37 28 45 37 26 44 38 26 44 37 27 44 37 27 44 37 27 42 33 24 42 34 23 45 35 26 43 34 25 44 34 25 43 34 25 42 32 22 42 32 22 43 33 23 43 35 24 44 35 26 45 36 27 45 36 27 44 37 27 17 13 10 0 0 0 1 1 1 1 1 1 1 1 1 1 1 1 1 1 1 0 0 0 1 1 1 0 0 0 1 1 1 0 0 0 0 0 0 0 0 0 0 0 0 
41 37 28 45 38 28 45 36 27 46 39 29 45 41 30 44 40 29 46 39 29 46 39 29 44 40 29 45 38 28 45 35 26 43 34 25 44 35 26 44 37 27 44 37 27 43 36 26 46 37 28 44 37 27 45 35 26 44 35 26 44 37 27 43 39 28 45 38 28 44 37 27 47 40 32 46 39 29 47 40 32 48 41 33 45 41 32 44 40 31 45 36 27 42 34 23 44 34 24 44 34 25 43 34 25 45 35 25 45 36 27 45 38 28 46 39 29 46 39 29 46 39 29 44 35 26 46 33 25 46 36 27 45 36 27 44 35 26 44 35 26 44 37 27 45 36 27 43 36 26 43 36 26 45 38 28 45 38 28 44 40 29 45 38 28 45 36 27 44 35 26 45 36 27 43 35 24 43 37 25 44 37 27 44 38 26 41 37 26 44 38 26 46 38 27 44 37 27 43 36 26 43 35 24 44 36 25 44 36 25 43 36 26 44 35 26 43 35 24 46 36 27 44 36 25 43 33 23 42 32 22 44 32 20 43 33 23 44 34 24 44 36 25 43 36 26 45 35 26 44 37 27 45 38 28 16 12 9 0 0 0 1 1 1 1 1 1 1 1 1 1 1 1 0 0 0 0 0 0 0 0 0 1 1 1 1 1 1 2 2 2 0 0 0 1 1 1 1 1 1 
40 36 25 45 36 27 45 36 29 43 39 28 47 38 31 46 40 28 43 39 28 43 39 28 46 39 29 45 36 27 44 34 25 44 35 26 43 36 26 44 35 26 43 37 25 44 38 26 45 38 28 45 38 28 42 35 25 43 36 26 44 37 27 44 40 29 46 39 29 46 39 31 46 39 29 44 40 31 47 38 29 45 41 32 45 41 32 45 41 32 46 37 28 44 34 24 44 34 25 44 34 24 43 35 24 44 36 25 44 37 27 46 39 29 47 40 30 45 41 30 46 39 29 44 35 26 44 35 26 43 34 25 44 35 26 44 35 28 44 35 28 44 37 27 45 38 28 44 37 29 43 36 26 45 36 27 43 39 28 46 39 29 44 37 27 44 38 26 45 36 29 45 37 26 43 37 25 43 37 25 45 38 30 44 37 27 43 37 25 44 37 27 43 39 28 44 37 27 44 36 25 42 34 23 44 36 25 43 37 25 44 36 25 43 35 24 43 37 25 45 39 27 43 35 24 42 32 22 44 31 22 42 34 23 43 35 24 43 33 23 43 34 25 44 35 26 44 36 25 45 38 28 45 39 27 19 15 12 0 0 0 1 1 1 0 0 0 1 1 1 0 0 0 1 1 1 0 0 0 1 1 1 1 1 1 0 0 0 0 0 0 0 0 0 0 0 0 0 0 0 
42 38 29 45 39 27 46 39 29 42 38 27 45 38 30 45 38 28 44 40 29 44 40 28 45 38 28 46 37 28 44 35 26 43 34 25 43 34 25 44 35 26 45 37 26 44 38 26 44 37 27 44 37 27 44 37 27 45 38 28 44 37 27 45 38 28 45 41 30 48 41 33 47 40 32 47 38 31 44 37 27 44 40 28 45 41 32 45 41 32 45 39 27 44 36 25 43 34 25 44 34 25 44 36 25 44 35 26 44 37 27 46 39 29 47 40 30 43 39 28 44 37 29 44 37 27 45 36 27 43 34 25 43 34 25 44 35 26 42 35 25 43 37 25 44 38 26 44 37 27 44 37 27 43 36 26 45 38 28 44 37 27 45 38 28 44 37 27 45 38 28 45 38 28 44 38 26 44 38 26 45 38 28 44 38 26 45 39 27 45 39 27 45 38 28 44 38 26 44 36 23 42 34 23 43 34 25 43 36 26 43 36 26 42 34 23 44 36 25 45 39 27 43 34 25 43 33 24 43 33 24 40 33 23 43 35 24 43 33 23 42 32 22 43 34 25 44 35 26 44 37 27 46 39 29 18 14 11 1 1 1 0 0 0 1 1 1 1 1 1 0 0 0 0 0 0 0 0 0 0 0 0 1 1 1 1 1 1 1 1 1 1 1 1 0 0 0 1 1 1 
43 39 30 44 40 29 45 38 28 42 38 27 44 37 31 43 39 28 46 39 29 45 41 30 43 39 30 45 38 30 43 36 26 44 35 26 44 37 27 44 35 26 44 35 26 44 36 25 43 36 26 44 37 27 46 37 28 44 37 27 44 37 27 44 37 27 45 41 30 47 40 32 46 42 33 44 40 31 43 39 28 45 41 30 46 39 29 45 38 28 44 35 26 43 35 24 44 36 25 43 33 24 43 34 25 46 38 27 45 38 28 46 39 29 46 37 28 46 36 27 44 35 26 44 38 26 44 36 25 43 34 25 43 34 25 44 37 27 43 36 26 43 37 25 43 37 25 45 39 27 44 38 26 43 36 26 45 38 28 44 37 27 44 37 27 44 37 27 45 38 28 45 38 28 45 38 28 44 37 27 44 38 26 45 38 28 43 39 27 43 39 30 46 39 31 45 38 28 45 39 27 44 38 24 43 37 25 42 38 27 44 37 29 41 34 24 44 35 26 44 36 25 44 34 24 44 34 25 44 34 24 42 32 22 43 33 23 42 34 23 43 33 23 43 33 23 42 34 23 45 38 28 46 40 28 18 14 11 0 0 2 0 0 0 0 0 0 1 1 1 0 0 0 0 0 0 1 1 1 0 0 0 1 1 1 0 0 0 1 1 1 0 0 0 1 1 1 1 1 1 
43 39 30 42 38 27 45 38 28 41 37 26 44 37 29 47 38 31 44 40 29 46 39 29 44 40 31 45 38 30 44 37 27 45 38 28 44 37 27 46 37 28 44 35 26 43 36 26 44 38 26 45 38 28 45 36 27 44 37 29 44 37 27 44 37 27 45 39 27 47 40 34 47 40 32 47 38 31 45 41 32 44 40 29 44 37 27 45 36 27 44 36 25 44 35 26 44 35 26 43 35 24 43 34 25 45 37 26 46 39 29 45 38 28 45 36 27 44 35 26 42 33 24 43 33 23 42 33 24 43 36 26 42 35 25 45 38 28 43 36 26 44 36 25 44 38 24 45 38 30 43 36 26 44 35 26 43 36 26 45 38 28 44 37 27 44 37 27 44 37 27 44 37 27 45 38 28 45 38 28 43 39 28 43 39 28 44 37 27 43 39 27 43 39 30 47 40 30 43 39 28 46 39 29 44 37 27 43 36 26 45 38 28 44 35 26 44 35 26 43 34 25 43 34 25 44 34 24 43 33 23 43 33 24 44 34 24 44 36 23 43 34 19 42 32 22 42 34 23 44 36 25 43 39 28 17 13 10 0 0 2 1 1 1 1 1 1 1 1 1 1 1 1 1 1 1 0 0 0 2 2 2 0 0 0 0 0 0 1 1 1 1 1 1 1 1 1 1 1 1 
42 38 27 45 38 28 43 36 26 45 38 28 45 38 28 45 41 30 45 41 30 46 39 29 46 39 29 46 39 29 46 37 28 44 37 27 44 37 27 45 38 28 46 37 28 43 34 25 44 37 27 43 39 28 43 39 28 45 38 28 44 37 27 45 35 26 45 38 28 46 39 31 45 41 32 46 39 31 43 39 27 45 38 28 44 35 26 46 38 27 44 35 26 43 34 25 44 35 26 44 35 26 44 36 23 45 36 27 45 38 28 46 39 29 45 36 27 43 34 25 42 32 23 45 32 24 45 32 24 44 34 24 46 38 27 43 39 28 43 36 26 44 35 26 45 39 27 44 40 29 44 37 27 43 33 24 46 36 27 46 39 29 45 38 28 42 38 27 46 39 29 45 38 28 44 37 27 45 38 28 46 39 29 44 37 27 44 37 27 45 36 27 44 37 29 45 38 28 43 39 28 45 38 28 44 37 27 44 37 27 43 39 28 42 35 25 44 35 26 42 35 25 44 35 26 43 35 24 43 33 24 47 34 26 43 35 24 43 37 25 44 34 24 42 32 22 43 35 24 43 35 24 44 37 27 17 13 10 0 0 0 1 1 1 1 1 1 1 1 1 0 0 0 0 0 0 0 0 0 1 1 1 0 0 0 0 0 0 0 0 0 0 0 0 0 0 0 0 0 0 
41 37 28 46 39 29 44 38 26 46 40 28 45 38 30 44 40 31 46 42 31 45 38 30 46 39 29 43 39 28 43 39 28 45 38 28 45 38 28 45 36 27 44 37 27 43 36 26 42 36 24 42 38 27 43 39 30 44 37 27 42 33 24 44 35 26 46 39 29 45 38 30 47 40 32 45 38 28 43 36 26 45 36 27 45 37 26 43 35 24 43 36 26 45 37 26 45 38 28 44 37 27 46 38 27 43 36 26 45 38 28 46 39 29 44 37 27 43 34 25 42 32 23 42 32 23 43 29 20 41 33 20 44 38 26 44 38 26 41 37 26 44 37 27 45 38 28 45 36 27 43 34 25 44 34 25 45 35 26 44 37 27 45 36 27 44 37 29 45 38 28 45 38 28 43 39 28 45 38 28 47 40 30 45 38 28 45 38 28 44 36 25 43 34 27 44 35 26 46 37 28 44 37 27 44 35 26 45 36 27 45 38 28 44 37 27 42 33 24 42 33 24 44 35 26 41 37 26 45 38 28 42 33 24 45 32 24 44 35 26 44 34 24 41 31 21 42 34 23 42 33 24 43 34 25 15 14 9 1 1 1 0 0 0 2 2 2 1 1 1 1 1 1 0 0 0 1 1 1 1 1 1 0 0 0 2 2 2 1 1 1 1 1 1 0 0 0 0 0 0 
42 35 27 42 38 27 46 39 31 46 39 29 42 38 27 46 39 29 48 41 33 48 41 33 46 39 29 46 39 29 45 38 28 43 39 28 44 37 27 46 39 29 46 37 28 44 37 27 46 36 27 46 37 28 45 36 27 44 35 26 42 33 24 42 33 24 44 37 27 44 37 29 44 35 26 44 34 25 44 36 25 44 35 26 43 34 25 43 35 24 44 35 26 45 36 27 44 37 27 44 37 27 43 36 28 44 38 26 43 36 26 44 37 27 45 36 27 43 34 25 43 33 24 44 34 25 43 33 23 43 35 24 43 35 24 42 38 26 44 37 27 42 38 27 45 38 28 43 36 26 43 34 25 41 35 23 44 34 24 45 36 27 43 36 28 44 37 27 46 39 29 47 40 30 46 39 29 45 38 28 43 39 28 44 37 27 43 39 28 43 34 25 43 34 25 44 35 26 45 38 28 45 38 28 43 34 25 44 35 26 43 36 26 45 38 28 42 33 24 43 33 23 44 34 25 43 34 25 44 37 27 42 35 25 42 32 23 44 35 26 44 34 24 43 34 25 42 35 25 43 35 24 44 36 25 16 15 11 0 0 0 0 0 0 2 2 2 1 1 1 1 1 1 1 1 1 1 1 1 0 0 0 1 1 1 1 1 1 0 0 0 0 0 0 0 0 0 0 0 0 
41 37 28 45 38 28 45 38 28 44 38 26 44 37 27 46 39 29 45 41 30 45 38 30 44 40 31 46 39 29 45 38 28 45 39 27 42 38 26 45 38 28 45 38 28 44 37 29 44 37 27 44 37 27 44 37 27 44 37 27 42 35 25 42 35 25 44 35 26 43 34 25 43 34 25 45 36 27 44 36 25 45 36 27 44 35 26 44 36 25 42 33 26 45 36 29 44 35 28 43 34 25 44 35 26 45 36 27 45 36 27 44 35 26 43 34 25 44 35 26 42 36 24 42 33 24 42 32 23 43 34 25 44 36 25 44 37 27 44 35 26 43 36 26 45 38 28 42 35 25 44 36 25 41 33 22 41 31 22 45 36 27 44 37 27 46 39 29 46 39 31 45 38 28 44 37 27 43 39 30 44 39 33 43 39 30 44 37 27 43 36 26 43 36 26 43 36 26 43 36 26 42 38 27 44 35 26 43 36 26 43 36 26 45 38 28 42 34 23 42 32 22 44 34 24 43 34 25 44 35 26 43 35 24 41 34 24 43 34 25 44 36 25 45 36 27 43 37 25 44 36 25 44 36 25 15 14 10 0 0 0 1 1 1 1 1 1 1 1 1 0 0 0 1 1 1 0 0 0 1 1 1 1 1 1 1 1 1 2 2 2 1 1 1 1 1 1 1 1 1 
41 37 28 43 39 28 46 37 28 44 35 26 44 37 27 45 38 28 44 40 29 46 42 33 44 40 29 45 38 28 45 38 28 44 37 27 45 38 28 45 38 28 46 39 29 44 40 29 45 38 28 46 37 28 44 37 29 44 37 27 44 37 27 43 36 26 43 34 25 43 34 25 44 35 26 45 39 27 46 39 29 45 38 28 43 36 26 44 35 26 45 36 27 44 35 26 44 35 26 44 35 26 44 35 26 44 35 26 44 36 25 44 35 26 45 36 27 44 35 26 41 34 24 42 33 24 44 33 27 43 34 25 43 36 26 43 36 26 45 36 29 46 37 30 44 37 27 43 36 26 44 35 26 45 35 25 43 34 25 46 35 29 46 39 31 46 39 29 46 39 29 45 38 28 44 37 27 45 38 28 44 40 29 46 37 28 43 36 26 43 36 26 44 36 25 45 38 28 45 38 28 45 36 27 43 34 25 42 35 25 43 36 26 47 38 29 43 37 25 43 33 24 43 34 25 42 34 23 42 33 24 44 34 24 42 34 23 43 36 26 44 35 26 44 36 25 44 38 26 44 35 26 43 34 25 16 13 8 1 1 1 0 0 0 1 1 1 1 1 1 1 1 1 0 0 0 1 1 1 1 1 1 1 1 1 1 1 1 1 1 1 0 0 0 2 2 2 1 1 1 
44 37 29 44 40 29 44 35 28 43 34 25 45 38 28 45 38 28 45 41 32 44 40 31 45 38 28 44 37 27 45 38 28 44 37 27 45 38 28 45 38 28 46 39 29 46 39 29 46 39 31 45 38 28 43 39 28 44 37 27 44 37 27 44 35 26 44 35 26 43 34 25 42 36 24 44 38 24 46 39 29 45 38 30 42 35 27 44 35 26 45 37 26 43 36 26 44 36 25 43 34 25 42 32 23 42 34 23 44 36 25 44 35 26 44 37 27 45 36 27 45 37 26 43 34 25 43 34 25 43 34 27 43 36 26 40 36 25 44 37 27 43 39 30 44 37 29 43 36 26 44 37 27 44 37 27 46 37 28 45 36 27 45 38 28 43 39 30 45 38 28 45 38 28 45 38 28 44 37 27 45 38 28 44 37 29 43 34 25 43 35 24 44 36 25 45 38 28 44 37 27 44 37 27 44 37 27 44 37 27 44 37 27 45 38 28 44 35 26 44 35 26 43 35 24 42 33 24 42 33 24 42 34 23 42 36 24 43 37 25 45 36 27 44 36 25 44 37 27 43 36 26 42 33 24 16 13 8 1 1 1 0 0 0 0 0 0 1 1 1 0 0 0 2 2 2 0 0 0 1 1 1 1 1 1 0 0 0 1 1 1 1 1 1 1 1 1 1 1 1 
42 35 27 45 38 28 43 36 26 45 38 28 45 38 28 46 39 29 46 39 29 45 41 32 45 38 28 44 37 27 44 37 27 45 38 28 45 38 28 45 38 28 46 39 31 46 39 31 45 38 30 45 38 28 45 38 28 44 37 29 44 35 26 44 37 27 44 36 25 44 35 26 45 38 28 44 41 26 45 38 28 46 37 30 44 36 25 43 34 25 44 38 26 45 39 27 46 38 27 45 32 23 41 31 21 43 33 23 44 36 25 44 38 26 43 36 26 45 36 27 42 38 26 44 37 27 44 34 25 44 36 23 43 37 25 44 36 25 44 37 27 42 38 29 45 38 28 46 40 28 45 38 28 46 39 29 46 38 27 45 36 27 43 39 28 46 39 29 44 40 29 46 39 29 44 37 27 44 35 26 46 37 28 43 36 26 43 36 26 44 36 25 44 38 26 42 38 27 42 35 25 45 38 28 42 38 27 44 37 27 43 36 26 44 40 29 43 36 26 43 34 25 44 35 26 43 34 25 43 33 23 42 32 22 42 33 24 43 37 25 43 36 26 41 34 24 44 37 27 44 37 27 42 33 24 16 13 8 1 1 1 0 2 0 1 1 1 1 1 1 0 0 0 0 0 0 1 1 1 1 1 1 1 1 1 1 1 1 0 0 0 1 1 1 1 1 1 1 1 1 
43 36 28 43 36 26 43 36 26 44 37 27 46 37 28 44 37 27 46 40 28 46 37 28 46 37 28 44 37 27 45 36 27 44 37 27 45 38 28 44 37 29 46 39 29 45 39 27 45 38 28 44 37 27 44 37 27 43 36 26 43 34 25 45 38 28 44 37 27 46 37 28 45 36 27 46 39 29 46 39 31 44 40 29 41 37 25 42 34 23 43 35 24 45 36 27 44 35 26 44 35 26 42 32 23 44 31 22 43 35 24 44 36 25 44 36 25 42 38 26 44 38 26 43 37 25 44 38 26 43 37 25 43 34 25 44 35 26 44 37 27 41 37 26 41 37 26 46 39 29 47 40 30 44 37 27 44 36 25 45 38 28 45 38 28 46 39 29 45 38 28 46 39 29 44 37 27 41 35 23 43 35 24 43 36 26 43 36 26 45 38 28 46 37 28 44 37 27 44 37 27 44 37 27 44 37 27 44 37 29 44 37 27 45 36 27 44 37 27 44 38 26 44 36 25 43 34 25 43 35 24 43 33 23 42 34 23 44 34 25 40 36 24 44 38 26 44 38 26 44 37 27 44 35 26 17 13 10 1 1 1 2 2 2 1 1 1 1 1 1 1 1 1 1 1 1 0 0 0 0 0 0 1 1 1 1 1 1 0 0 0 1 1 1 0 0 0 0 0 0 
42 38 29 45 36 27 42 34 21 45 37 26 45 37 26 45 36 27 45 36 27 45 35 26 43 34 25 44 35 26 44 38 26 44 38 26 45 36 27 45 36 27 44 37 27 43 36 26 43 36 26 44 35 26 43 36 26 43 34 25 44 35 26 44 37 27 44 37 27 44 35 26 44 37 27 43 39 28 45 38 28 44 37 27 43 35 24 43 33 23 43 33 23 44 34 25 43 34 25 44 34 25 42 33 24 43 34 25 42 34 23 42 33 24 43 35 24 43 37 25 43 36 26 41 34 24 44 35 26 44 35 26 43 34 25 42 33 24 44 35 26 43 36 26 44 35 28 45 36 27 48 39 32 43 34 25 43 35 24 45 38 28 43 39 28 45 38 28 43 39 28 46 39 29 45 38 28 42 33 24 43 34 25 43 37 25 42 38 27 44 35 26 44 37 27 44 37 29 44 38 26 45 38 28 44 37 27 44 37 29 44 37 29 43 39 28 43 36 26 44 37 27 43 34 25 43 34 25 43 34 25 43 33 23 42 32 23 43 34 25 40 34 22 43 37 25 44 37 27 44 37 27 44 35 26 17 13 10 1 1 1 1 1 1 0 0 0 1 1 1 0 0 0 1 1 1 1 1 1 1 1 1 1 1 1 1 1 1 1 1 1 1 1 1 1 1 1 0 0 0 
42 38 29 43 34 25 42 33 24 43 34 25 45 37 26 46 37 28 46 36 27 45 35 26 43 34 25 43 36 26 44 38 26 44 38 26 44 37 27 45 36 27 43 36 26 43 36 28 44 36 25 43 35 24 44 35 26 42 33 24 43 34 25 43 34 25 42 36 24 43 35 24 45 38 28 45 39 27 44 37 27 45 36 27 43 34 25 43 33 23 43 33 23 43 33 23 42 33 24 43 33 23 42 33 24 41 34 24 42 33 24 42 34 23 43 35 24 44 36 25 44 35 26 41 34 24 40 33 23 42 33 24 43 33 23 43 33 24 44 35 26 44 35 26 44 36 25 46 36 27 45 37 26 43 33 24 44 35 26 43 37 25 42 38 27 46 39 29 43 39 28 45 39 27 44 37 29 43 34 25 42 34 23 44 34 24 45 36 27 43 36 26 43 36 26 43 36 26 42 35 25 42 35 25 42 38 27 42 38 29 44 37 27 46 39 29 46 37 28 43 36 26 42 35 25 45 37 26 42 33 24 44 34 24 43 33 24 43 35 24 42 34 23 43 37 25 44 37 27 43 36 26 43 34 25 17 14 9 1 1 1 2 2 2 0 0 0 1 1 1 0 0 0 0 0 0 2 2 2 1 1 1 1 1 1 0 0 0 1 1 1 0 0 0 0 0 0 0 0 0 
42 35 27 44 36 25 44 35 26 42 35 25 45 38 28 46 39 29 46 39 29 43 36 28 44 36 25 42 35 25 44 38 26 42 38 26 44 37 27 42 38 27 46 37 28 44 37 27 44 37 27 44 35 26 43 35 24 44 34 24 43 33 24 42 33 24 43 36 26 45 39 27 46 39 29 45 38 28 46 40 28 44 37 27 43 37 25 42 33 24 43 33 21 42 32 23 43 34 25 43 35 24 42 34 23 42 33 24 43 33 24 43 35 24 43 35 24 43 35 24 43 35 24 41 35 23 41 33 22 40 31 22 42 32 22 42 32 22 45 35 25 45 37 26 45 37 26 42 36 24 44 34 24 42 33 26 43 34 25 44 38 26 44 38 26 44 37 27 46 39 29 44 37 27 44 37 29 42 33 26 43 33 23 45 32 23 45 36 27 45 38 28 41 37 28 44 37 27 42 34 23 43 35 24 43 36 26 42 38 27 44 37 27 45 38 28 45 38 28 41 34 24 42 33 24 43 33 23 43 34 25 44 35 26 43 34 25 43 34 25 43 34 25 44 36 25 43 37 25 42 36 24 43 34 25 17 14 9 1 1 1 2 2 2 1 1 1 0 0 0 1 1 1 1 1 1 0 0 0 0 0 0 0 0 0 0 0 0 1 1 1 0 0 0 0 0 0 1 1 1 
42 35 27 44 38 26 45 39 27 44 37 27 43 39 28 45 41 30 42 38 27 42 38 27 44 38 26 43 34 25 43 36 26 43 36 26 44 37 27 44 37 27 43 39 28 45 38 28 44 37 29 45 36 27 43 35 24 44 34 24 41 32 23 42 33 24 43 36 26 46 39 29 44 37 27 45 37 26 45 36 27 44 38 26 43 39 30 44 38 26 42 34 23 42 32 22 42 34 23 44 36 25 44 35 26 43 35 24 44 34 22 44 34 25 42 34 23 42 34 23 42 34 23 42 36 22 41 33 22 42 32 22 41 31 21 42 32 22 43 34 25 44 35 26 44 36 25 44 36 25 42 34 21 44 35 26 43 37 25 43 37 25 44 38 26 45 38 28 44 37 27 44 38 26 45 36 27 44 35 28 43 34 25 43 37 25 43 37 25 44 35 26 45 38 28 45 38 28 44 36 25 43 34 25 43 36 26 44 37 27 45 38 28 44 40 29 45 38 28 43 37 25 43 34 25 43 35 24 44 35 26 45 36 27 43 36 26 44 37 27 43 34 25 44 36 25 42 36 24 43 37 25 43 34 25 17 14 9 0 0 0 0 0 0 0 0 0 1 1 1 0 0 0 1 1 1 0 0 0 0 0 0 1 1 1 1 1 1 0 0 0 0 0 0 0 0 0 0 0 0 
43 36 28 43 39 28 44 40 29 46 39 29 45 38 28 46 39 29 44 37 27 43 36 26 43 36 26 43 34 25 44 35 26 43 36 26 44 37 27 43 39 28 45 38 28 44 37 27 45 38 28 44 37 27 44 35 26 44 34 25 42 33 24 43 34 25 43 37 25 45 38 28 44 35 26 46 36 27 44 36 25 44 35 26 44 37 27 44 40 29 44 38 26 42 34 23 42 34 23 45 35 26 43 36 26 43 35 24 44 34 24 43 34 25 42 33 26 42 34 23 41 35 23 42 34 23 44 34 24 42 34 21 42 32 22 41 31 21 42 33 24 43 34 25 43 35 24 44 33 27 43 35 24 41 32 23 43 35 24 44 36 25 42 36 24 44 38 26 43 39 28 43 36 26 44 35 26 43 36 26 44 37 27 40 36 24 43 36 26 44 37 27 44 37 29 44 37 29 43 36 26 43 37 25 43 36 26 46 39 29 45 38 28 45 38 28 45 36 27 40 36 25 44 36 25 43 36 26 45 35 26 46 37 28 45 39 27 43 39 27 44 35 26 44 35 26 43 34 25 43 34 25 43 34 25 19 14 10 0 0 0 1 1 1 0 0 0 0 0 0 1 1 1 0 0 0 1 1 1 1 1 1 0 0 0 1 1 1 0 0 0 1 1 1 1 1 1 0 0 0 
44 37 29 41 37 26 44 40 31 44 40 29 45 38 28 44 37 27 43 36 26 44 35 28 44 35 26 44 37 27 44 35 26 43 36 26 42 38 27 43 39 28 44 37 27 45 38 30 45 38 30 44 37 29 43 34 25 43 34 25 44 35 26 43 36 26 46 37 28 45 38 28 43 36 26 44 34 25 47 37 27 44 38 26 44 37 27 45 38 28 45 36 27 42 33 24 43 34 25 44 36 25 43 36 26 43 35 24 43 35 24 43 36 26 43 34 25 44 35 26 44 36 25 42 36 24 42 36 24 44 36 25 42 34 23 43 33 23 42 34 23 42 34 23 42 34 23 42 34 23 43 34 25 43 33 23 42 34 23 44 34 25 44 38 26 43 36 26 45 38 28 44 37 27 43 36 28 44 38 26 43 37 25 43 36 26 43 36 26 42 38 27 42 38 27 43 36 26 43 36 26 42 35 25 43 36 26 45 36 27 44 37 27 44 37 27 44 35 28 43 34 25 45 35 26 44 37 27 44 35 28 42 38 27 43 39 28 45 39 27 44 37 27 43 36 26 44 35 26 42 33 24 42 33 24 17 13 10 0 0 0 0 0 0 1 1 1 0 0 0 1 1 1 1 1 1 0 0 0 1 1 1 0 0 0 0 0 0 1 1 1 0 0 0 1 1 1 0 0 0 
41 37 28 44 37 27 43 39 28 44 40 31 45 38 30 44 38 26 42 36 24 45 35 26 44 38 26 46 37 28 44 37 29 42 35 25 44 37 27 42 38 27 43 39 28 43 39 30 45 38 30 44 37 27 42 33 24 43 33 24 43 34 25 43 34 25 45 36 27 44 37 27 44 35 26 44 35 26 43 35 24 43 37 25 44 37 27 45 38 28 43 36 26 44 35 26 44 35 26 45 37 26 44 38 26 43 37 25 43 35 24 43 35 24 42 35 25 44 37 27 43 36 26 43 36 26 44 38 26 44 38 26 43 37 25 44 34 24 42 34 23 43 34 25 45 35 25 43 36 26 44 35 26 42 32 20 42 32 22 41 33 22 42 34 23 41 37 25 45 38 28 44 37 27 44 37 27 45 36 27 43 37 25 44 36 25 43 36 26 42 38 27 43 39 28 45 38 28 43 36 26 43 36 26 43 36 26 43 37 25 43 37 25 43 36 26 44 35 28 44 34 25 42 34 23 42 36 24 46 37 28 43 36 28 43 39 28 45 38 28 44 40 29 45 38 28 44 37 27 42 33 24 43 34 25 15 14 10 0 2 1 1 1 1 1 1 1 1 1 1 1 1 1 1 1 1 1 1 1 1 1 1 1 1 1 1 1 1 0 0 0 0 0 0 0 0 0 1 1 1 
42 39 30 43 39 28 45 38 28 45 38 30 44 37 27 44 37 27 43 36 26 44 36 25 44 37 27 46 39 29 46 39 29 43 36 28 43 36 28 44 37 29 45 38 30 45 38 28 44 37 27 44 37 27 42 33 24 42 33 24 41 34 24 42 35 25 44 37 27 45 36 27 44 35 26 44 35 26 42 32 23 43 35 24 44 38 24 44 37 27 42 35 25 43 36 26 44 35 26 44 37 27 43 37 25 43 36 26 43 35 24 43 34 25 44 35 26 45 38 28 42 38 27 43 39 27 44 37 27 45 38 30 41 37 26 44 35 26 42 33 24 43 35 24 42 34 23 43 34 25 44 35 26 42 33 24 42 32 22 42 32 22 44 36 25 43 36 26 45 38 28 44 37 27 44 37 27 44 37 27 45 36 27 43 36 26 42 38 26 44 37 27 44 37 27 41 37 25 42 38 27 45 38 28 44 38 26 43 36 26 41 37 26 45 36 27 43 36 26 43 34 25 42 32 22 44 35 26 45 35 25 43 36 26 44 37 27 42 38 27 43 39 30 45 38 28 42 33 24 43 34 25 43 34 25 18 14 11 1 1 1 1 1 1 1 1 1 0 0 0 1 1 1 1 1 1 0 0 0 1 1 1 1 1 1 0 0 0 0 0 0 1 1 1 1 1 1 0 0 0 
42 38 29 44 37 27 44 37 27 44 37 27 44 37 27 44 37 27 44 37 27 44 35 26 43 34 27 45 36 27 45 38 28 44 37 29 44 35 28 44 37 27 44 37 27 43 37 25 44 35 26 43 37 25 43 34 25 43 33 24 42 33 24 42 33 24 45 36 27 44 37 29 44 37 27 40 31 22 41 31 22 43 34 25 42 36 24 44 37 27 42 35 27 44 35 26 44 35 26 44 35 26 42 35 25 43 36 26 44 35 26 46 37 28 42 35 25 42 35 25 44 37 27 44 38 26 45 38 28 42 38 27 45 38 30 44 37 29 43 35 24 43 34 25 42 33 24 43 34 25 45 38 28 43 36 26 42 33 24 43 33 23 42 34 23 42 35 25 44 37 27 44 37 27 45 38 28 43 39 30 45 38 28 45 38 28 44 37 27 43 37 25 41 37 28 44 37 27 43 39 28 41 39 27 43 36 26 42 36 24 42 35 25 45 38 28 44 37 29 43 34 25 41 35 23 43 34 25 43 34 25 43 34 25 43 36 26 45 39 27 44 37 27 44 37 27 44 35 26 43 34 25 44 35 26 18 14 11 1 1 1 1 1 1 1 1 1 1 1 1 1 1 1 1 1 1 0 0 0 0 0 0 0 0 0 1 1 1 1 1 1 1 1 1 0 0 0 0 0 0 
43 39 30 46 39 31 45 38 28 44 37 27 44 37 27 44 37 27 44 37 27 43 34 25 45 34 28 44 35 26 45 36 27 46 38 27 43 34 25 44 35 26 44 36 25 42 34 23 42 33 24 43 37 25 43 37 23 43 35 24 42 33 24 43 36 26 44 35 26 46 37 30 41 37 26 41 32 23 42 32 23 43 34 25 45 37 26 45 38 28 43 36 28 43 34 27 44 35 26 43 35 24 43 34 25 44 35 26 44 35 26 44 35 26 42 33 24 43 35 24 43 37 25 45 37 26 43 36 26 44 37 27 45 38 30 44 37 27 43 35 24 43 34 25 41 32 25 43 34 25 45 38 28 42 38 27 43 34 25 44 35 26 43 35 24 43 34 25 41 37 28 42 38 27 43 39 30 44 40 31 44 40 31 45 38 30 43 36 28 44 35 26 43 34 25 44 37 27 43 39 27 43 39 28 44 37 27 43 36 26 43 36 26 44 37 27 45 36 27 44 35 26 42 33 24 45 35 26 42 34 23 42 34 23 44 37 27 44 38 26 43 36 26 43 36 26 43 34 25 42 33 24 42 34 23 16 13 8 1 1 1 1 1 1 1 1 1 0 0 0 1 1 1 1 1 1 1 1 1 0 0 0 1 1 1 1 1 1 2 2 2 1 1 1 0 0 0 0 0 0 
44 40 31 49 42 34 46 39 29 44 37 27 43 36 26 44 37 27 44 37 27 44 35 26 43 34 25 43 34 25 43 34 25 43 34 25 43 34 25 42 33 24 42 33 26 40 31 22 42 33 24 43 37 25 44 37 27 43 36 26 41 34 24 42 38 27 44 35 26 45 34 28 43 35 24 42 33 24 42 33 24 43 34 25 44 36 25 44 35 26 43 34 25 43 34 25 42 36 24 43 35 24 43 35 24 44 35 26 43 34 25 44 35 26 42 34 23 42 32 22 44 31 22 44 34 24 44 35 26 45 35 26 43 36 28 44 35 26 44 35 26 40 36 25 44 35 26 44 34 25 45 36 27 43 37 25 43 36 28 44 35 26 43 34 25 44 35 26 44 35 26 43 36 26 43 39 30 47 40 34 44 40 31 43 39 30 43 36 26 44 35 26 43 34 25 43 36 26 41 37 28 42 38 27 45 38 28 45 38 28 44 37 27 44 37 27 45 38 28 44 35 26 43 36 26 43 34 25 43 33 24 42 33 24 43 36 26 44 37 27 44 37 27 43 36 26 42 35 25 40 33 23 42 33 24 17 13 10 0 0 0 1 1 1 1 1 1 0 0 0 0 0 0 1 1 1 2 2 2 1 1 1 1 1 1 1 1 1 1 1 1 0 0 0 0 0 0 1 1 1 
43 39 30 46 42 33 44 40 29 45 38 28 44 37 27 45 38 28 45 38 28 45 36 27 44 35 26 44 34 25 44 34 25 42 33 24 43 34 25 43 36 28 43 35 24 43 34 25 42 35 25 42 38 26 45 38 28 44 37 27 44 40 29 43 39 28 45 37 26 43 35 24 41 33 22 42 33 24 43 34 25 43 35 22 43 35 24 43 35 24 43 35 24 43 36 26 44 36 25 43 35 24 43 35 22 43 34 25 43 36 26 43 34 25 43 33 21 41 31 21 42 32 23 43 35 24 44 36 25 44 37 27 43 36 26 43 36 26 43 36 26 43 36 26 43 35 24 44 35 26 45 36 27 43 36 26 43 36 26 42 35 25 43 34 25 43 36 26 44 36 25 42 35 25 43 39 30 46 39 31 43 39 30 45 38 28 44 37 27 43 34 25 43 34 25 43 33 24 42 35 25 41 37 26 45 38 28 45 38 28 45 38 28 43 36 26 45 36 27 43 37 25 42 36 24 42 35 25 42 33 24 44 35 26 45 38 28 45 38 30 45 38 30 44 37 27 45 38 28 43 36 26 43 36 26 17 13 10 0 0 0 0 0 0 1 1 1 0 0 0 0 0 0 1 1 1 0 0 0 0 0 0 1 1 1 0 0 0 1 1 1 0 0 0 0 0 0 1 1 1 
41 38 31 43 39 28 43 39 28 44 37 27 43 36 26 43 36 26 43 36 26 44 35 26 43 34 25 43 34 25 43 35 24 44 35 26 43 37 25 43 36 26 43 36 26 41 35 23 40 33 23 42 35 25 45 38 28 45 39 27 45 38 28 43 36 26 44 36 25 44 36 25 42 34 23 43 34 27 43 35 24 44 36 25 43 37 25 42 34 23 44 34 24 43 35 24 41 32 23 45 37 26 42 34 23 42 35 25 43 36 26 44 37 27 44 36 25 41 31 21 44 34 24 43 37 25 43 37 25 42 36 24 44 37 27 43 37 25 43 36 26 42 33 24 42 34 23 43 36 26 41 37 26 43 37 25 44 37 27 43 37 25 43 36 26 43 36 26 42 35 25 42 35 25 44 35 28 45 38 30 44 37 27 44 40 29 44 38 26 42 35 25 42 33 24 43 35 24 42 36 22 43 36 26 44 37 27 42 38 27 42 38 27 44 37 27 47 39 28 43 35 24 42 36 24 43 36 26 44 36 25 43 36 26 45 38 28 45 38 30 44 37 27 46 40 28 46 39 29 45 38 28 45 38 28 15 14 10 0 0 0 0 0 0 0 0 0 1 1 1 1 1 1 1 1 1 1 1 1 0 0 0 0 0 0 0 0 0 1 1 1 1 1 1 0 0 0 0 0 0 
42 37 31 46 39 29 46 39 29 44 35 28 42 33 24 44 35 26 44 37 27 43 34 25 44 35 26 45 36 27 44 37 27 45 38 28 44 37 27 44 35 26 43 36 26 43 35 24 42 33 24 43 35 24 44 35 26 44 37 27 45 38 28 44 37 27 42 36 24 44 38 26 44 38 26 42 33 24 42 34 23 42 36 24 43 37 23 41 33 22 42 32 22 42 34 23 41 32 23 42 34 23 42 34 23 43 35 24 43 36 26 44 37 27 44 36 25 45 35 25 44 38 26 41 37 26 43 37 25 43 34 27 44 38 26 44 38 26 43 37 25 43 34 25 43 35 24 44 37 27 44 37 27 43 37 25 43 37 25 44 37 27 44 37 27 41 37 26 42 36 24 43 37 25 44 35 26 42 35 25 43 39 30 44 40 31 45 38 28 44 35 26 42 33 24 42 33 24 44 35 26 44 37 27 44 38 26 45 39 27 42 38 27 44 37 27 44 37 27 42 36 24 42 36 24 43 34 25 43 37 25 44 35 26 44 37 27 43 39 28 44 37 29 45 38 28 44 37 27 44 37 27 44 37 27 16 15 11 0 0 0 1 1 1 1 1 1 1 1 1 0 0 0 1 1 1 0 0 0 1 1 1 1 1 1 1 1 1 0 0 0 1 1 1 1 1 1 1 1 1 
41 37 28 45 38 28 46 39 29 46 35 29 42 33 26 43 34 25 42 35 25 43 34 25 44 35 26 44 37 27 44 40 31 43 39 30 44 37 27 43 37 25 43 34 25 43 35 24 43 34 25 43 35 24 43 35 22 43 35 24 45 38 28 44 37 27 43 36 26 42 35 25 43 35 24 43 30 21 42 32 22 41 35 21 43 37 23 42 34 23 42 32 22 43 35 24 43 33 24 42 32 22 42 32 22 43 33 23 45 37 26 44 37 29 43 37 25 42 36 24 44 38 26 44 38 26 45 39 27 44 37 27 43 37 25 43 37 25 44 36 25 43 35 24 42 34 21 43 36 26 44 37 27 45 39 27 44 38 26 45 38 30 43 39 28 45 38 28 43 36 26 42 35 27 42 35 25 43 36 26 45 38 30 43 39 30 43 39 28 44 37 27 43 34 25 42 32 23 43 34 25 43 37 25 44 38 24 45 38 28 43 39 28 44 38 26 44 37 29 42 34 21 42 34 23 42 33 24 44 34 24 43 35 24 42 38 26 43 39 27 42 38 27 44 37 27 43 34 25 43 34 25 45 36 27 17 14 9 0 0 0 0 0 0 1 1 1 1 1 1 1 1 1 1 1 1 1 1 1 0 0 0 1 1 1 0 0 0 0 0 0 2 2 2 0 0 0 0 0 0 
41 37 28 42 38 27 43 36 26 44 35 28 44 35 26 43 35 24 42 33 24 43 35 24 45 36 27 44 37 27 44 40 29 44 37 27 43 36 28 42 36 22 43 35 24 42 34 23 42 32 23 41 33 22 42 32 22 43 35 24 44 35 26 43 36 26 42 38 27 44 37 27 42 32 23 39 27 15 39 29 17 41 31 21 43 34 25 43 35 24 42 34 23 41 32 23 43 33 23 43 33 24 41 31 21 42 32 22 41 35 23 43 37 25 43 37 25 43 36 26 45 39 27 43 39 27 43 39 28 44 40 29 43 36 26 43 36 26 41 37 26 41 32 23 41 35 23 42 36 24 44 38 26 44 38 26 45 39 27 45 38 28 46 39 31 45 38 28 45 36 27 43 36 26 44 37 27 43 36 26 44 37 27 44 40 29 46 39 31 45 36 27 43 34 25 43 33 24 42 33 24 42 36 24 43 35 24 43 36 26 45 38 28 43 39 27 44 37 27 42 36 24 42 32 20 43 33 24 42 32 22 42 33 24 44 35 26 43 39 28 45 36 27 43 36 26 43 35 24 42 36 24 42 36 24 17 14 9 1 1 1 1 1 1 1 1 1 0 0 0 0 0 0 0 0 0 1 1 1 1 1 1 0 0 0 0 0 0 1 1 1 0 0 0 1 1 1 0 0 0 
40 36 27 44 37 27 43 36 26 45 38 28 44 37 27 44 37 27 43 34 25 43 35 24 43 35 24 44 37 27 44 37 27 43 36 26 43 36 26 43 35 24 43 37 25 42 34 23 42 32 23 42 32 22 41 31 21 42 34 23 43 35 24 44 35 26 43 36 26 44 35 26 42 32 23 39 29 17 40 30 18 41 31 21 42 34 23 43 35 24 43 35 24 42 34 23 43 35 22 43 35 24 41 31 21 39 29 19 41 31 21 42 36 24 44 38 26 45 38 28 43 39 28 43 41 29 43 39 30 45 38 30 44 37 27 43 36 26 43 34 25 42 33 24 43 35 24 44 36 25 43 37 25 45 39 27 42 38 26 44 37 27 44 37 27 45 38 30 44 37 27 44 37 27 44 37 27 43 34 27 43 34 25 45 38 28 45 41 30 42 38 27 43 34 25 43 33 24 42 32 22 42 34 23 44 34 24 44 36 25 44 35 26 44 35 26 43 38 32 41 37 26 42 36 22 44 34 24 43 33 24 41 32 23 42 35 25 43 39 28 44 40 29 45 38 28 43 37 25 41 35 23 43 33 23 17 14 9 0 0 0 1 1 1 1 1 1 1 1 1 0 0 0 1 1 1 1 1 1 1 1 1 1 1 1 0 0 0 1 1 1 1 1 1 0 0 0 0 0 0 
41 37 28 42 35 25 42 35 25 43 36 26 44 38 26 44 36 25 42 36 24 42 34 23 43 37 25 43 37 25 43 36 26 43 36 26 42 35 25 43 37 25 43 35 24 41 32 23 41 32 23 42 32 23 43 33 23 42 36 24 43 37 25 42 35 25 43 36 26 43 34 25 42 32 23 42 32 22 42 32 22 41 33 22 41 35 23 43 35 24 43 35 24 42 34 23 43 35 24 44 36 25 42 32 22 41 28 19 42 29 20 42 34 23 44 37 27 45 38 28 43 39 30 43 39 28 43 39 30 45 38 30 44 35 26 43 36 26 42 33 24 42 34 23 43 35 24 44 37 27 42 36 24 43 37 25 44 37 27 44 40 28 44 37 29 44 37 27 44 37 27 45 38 28 43 36 26 43 36 26 42 35 25 45 38 28 46 40 28 45 38 30 42 38 27 41 33 22 40 32 21 41 33 22 42 34 23 43 35 24 41 32 23 43 34 25 41 37 26 42 38 26 45 37 26 43 34 25 43 34 25 43 34 25 41 32 23 43 39 27 46 39 29 44 40 29 43 36 26 42 33 24 43 30 21 16 13 8 0 0 0 1 1 3 0 0 0 1 1 1 0 0 0 1 1 1 1 1 1 0 0 0 1 1 1 1 1 1 0 0 0 1 1 1 0 0 0 1 1 1 
41 37 28 44 38 26 42 36 24 44 35 26 43 35 24 44 36 25 42 36 24 43 35 24 43 35 24 44 36 25 43 35 24 43 35 24 40 34 22 43 36 26 43 35 24 41 32 23 41 31 22 42 32 22 42 34 21 43 37 25 42 36 24 43 36 26 43 36 26 42 34 23 42 32 23 43 35 24 44 36 25 45 36 27 43 37 25 40 36 24 42 34 23 42 32 22 43 34 25 45 36 27 45 36 27 43 35 24 41 31 21 41 33 22 44 37 27 46 39 29 45 38 28 43 39 28 44 37 27 44 37 27 43 36 26 45 36 27 43 34 25 43 35 24 43 37 25 41 35 23 42 36 24 43 37 25 45 39 25 45 38 28 44 37 27 45 38 28 45 36 29 44 37 27 43 36 26 43 39 27 42 38 29 43 39 28 45 39 27 45 38 28 45 38 28 41 32 27 41 33 22 42 34 23 42 33 24 42 32 22 42 32 22 42 32 22 43 37 25 43 37 25 43 36 26 42 35 25 44 33 27 44 36 25 45 37 26 45 37 26 42 38 29 43 39 28 42 36 24 41 35 23 41 33 22 16 12 9 1 1 1 1 1 1 0 0 0 1 1 1 1 1 1 0 0 0 1 1 1 1 1 1 0 0 0 1 1 1 0 0 0 1 1 1 1 1 1 0 0 0 
