P3
100 50
255
11 9 10 9 9 11 9 9 9 10 10 10 11 11 11 13 11 12 16 16 16 16 16 16 12 12 12 9 9 9 6 8 7 7 7 7 6 6 6 8 8 8 10 10 10 9 9 9 9 9 9 9 9 9 9 9 9 8 8 8 9 9 9 10 10 10 6 6 6 8 6 7 11 11 11 16 16 16 14 12 13 13 13 13 11 11 11 10 10 10 9 9 9 8 8 8 8 8 8 8 8 8 7 7 7 7 7 7 4 4 4 6 4 5 6 6 6 7 7 7 10 10 10 9 9 9 10 10 10 10 10 10 11 9 10 8 8 8 10 8 9 7 7 7 7 7 7 8 8 8 10 10 10 9 9 9 11 11 11 10 10 10 10 10 10 10 10 10 9 9 9 8 8 8 9 9 9 10 10 10 8 8 8 7 7 9 6 8 7 7 7 7 7 9 6 10 11 13 17 15 16 14 14 14 11 11 9 9 9 9 11 9 10 8 10 9 9 9 9 9 9 9 9 7 8 8 8 8 13 11 12 8 8 8 7 7 7 56 53 44 62 58 47 63 61 48 62 58 46 64 58 46 67 61 49 67 63 52 66 64 52 66 63 56 65 61 52 63 54 45 65 57 46 65 59 45 65 61 49 64 62 50 66 59 49 64 60 49 67 65 53 63 61 49 66 59 51 63 63 55 
10 10 10 9 9 9 9 9 9 11 11 11 12 12 12 12 12 12 13 13 13 13 13 13 14 12 13 11 11 11 9 9 9 8 8 8 9 9 9 8 8 8 9 9 9 9 9 9 9 9 9 8 8 8 8 8 8 8 8 8 9 9 9 8 8 8 7 7 7 8 8 8 11 11 11 14 14 14 13 13 13 11 11 11 11 11 11 10 10 10 9 7 8 8 8 8 9 7 8 9 9 9 6 6 6 6 6 6 5 5 5 6 6 6 4 4 4 6 6 6 10 10 10 12 12 12 11 9 10 10 10 10 11 9 10 10 8 9 9 7 8 7 7 7 6 6 6 10 10 10 13 13 13 11 11 11 11 9 10 10 8 9 8 6 7 10 8 9 7 5 6 9 7 8 9 7 8 10 8 9 7 7 7 7 7 7 8 8 8 9 9 9 9 9 9 14 12 13 17 15 16 11 11 11 9 9 9 9 9 11 8 10 7 9 9 9 9 9 9 8 8 8 9 9 9 9 9 9 11 11 9 9 9 9 7 7 7 7 7 5 7 7 7 50 48 36 21 21 19 42 39 32 63 60 43 63 61 46 63 64 50 65 63 50 65 63 51 64 60 49 65 57 46 65 59 47 63 59 48 66 62 53 66 59 51 64 62 50 65 65 55 65 62 53 67 63 54 65 62 55 
9 9 9 9 9 9 9 9 9 10 10 10 11 11 11 12 12 12 12 12 12 12 12 12 13 13 13 11 11 11 10 10 10 9 9 9 9 9 9 8 8 8 9 9 9 9 9 9 8 8 8 9 9 9 9 9 9 9 9 9 7 7 7 6 6 6 7 7 7 9 9 9 11 11 11 14 14 14 12 12 12 10 10 10 10 10 10 9 9 9 8 8 8 9 9 9 7 7 7 8 8 8 7 7 7 7 7 7 6 6 6 4 4 4 4 2 3 6 4 5 10 8 9 11 9 10 9 9 9 9 9 9 10 10 10 9 9 9 8 8 8 8 8 8 8 8 8 10 10 10 13 11 12 12 12 12 11 11 11 8 8 8 7 7 7 7 7 7 7 7 7 9 9 9 8 8 8 8 8 8 7 7 7 9 7 8 9 9 9 11 11 11 12 12 12 14 14 14 13 13 13 10 10 10 10 8 9 8 10 9 9 9 9 9 9 9 10 9 7 8 8 8 8 10 9 11 9 10 9 9 9 9 7 10 6 6 6 5 7 6 7 7 7 11 10 8 14 10 7 11 10 8 14 14 12 15 15 15 38 39 31 64 62 50 65 61 50 64 60 48 65 59 47 67 60 50 65 61 49 66 62 51 65 61 50 63 61 49 66 63 54 67 63 54 63 63 51 64 64 52 
9 9 9 9 9 9 10 8 9 8 8 8 9 9 9 9 9 9 9 9 9 10 10 10 10 10 10 9 9 9 9 9 9 9 9 9 9 9 9 8 8 8 10 8 9 8 8 8 8 8 8 9 9 9 13 9 10 10 10 10 7 7 7 6 6 6 10 10 10 11 11 11 11 11 11 11 11 11 11 11 11 11 11 11 10 10 10 9 9 9 8 8 8 10 10 10 10 10 10 9 9 9 8 8 8 6 6 6 6 6 6 7 5 6 4 4 4 5 3 4 10 8 9 9 9 9 9 7 8 8 8 8 8 8 8 8 8 8 9 9 9 9 9 9 10 8 9 11 11 11 12 12 12 11 11 11 10 10 10 9 9 9 8 8 8 8 8 8 8 8 8 8 8 8 7 7 7 7 7 7 6 6 6 10 8 9 12 12 12 13 13 13 13 13 13 12 12 12 11 11 11 9 9 9 10 10 10 9 9 9 9 9 9 10 8 9 7 7 9 8 8 8 10 10 10 56 54 42 11 11 9 9 9 11 6 6 6 6 6 6 7 5 6 8 6 7 7 7 7 7 7 7 8 8 8 10 10 12 13 13 11 41 38 31 63 60 45 65 61 49 63 61 48 64 62 49 64 62 49 64 60 48 64 60 49 64 60 48 65 61 52 58 55 48 17 16 14 16 16 14 
9 9 9 10 8 9 8 8 8 8 8 8 8 8 8 9 9 9 9 9 9 8 8 8 8 8 8 9 9 9 9 9 9 8 8 8 8 8 8 10 10 10 9 9 9 8 8 8 8 8 8 10 10 10 10 10 10 9 9 9 8 8 8 8 8 8 10 10 10 12 12 12 12 12 12 9 9 9 10 10 10 10 10 10 9 9 9 11 9 10 10 10 10 10 10 10 12 12 12 11 11 11 9 7 8 7 7 7 5 5 5 7 5 6 4 4 4 4 4 4 7 7 7 8 8 8 8 6 7 7 7 7 7 7 7 8 8 8 9 9 9 10 10 10 11 11 11 13 13 13 13 11 12 12 12 12 9 9 9 10 10 10 9 9 9 8 8 8 9 9 9 9 9 9 8 8 8 8 8 8 7 7 7 9 7 8 11 11 11 11 11 11 11 11 11 11 11 11 10 10 10 10 10 10 11 9 10 9 9 7 9 9 9 10 9 7 6 6 8 8 6 7 57 53 44 63 59 48 12 10 11 8 8 8 6 6 6 7 5 6 7 6 4 7 7 7 7 7 7 8 6 7 7 7 7 9 9 9 10 12 11 13 14 9 41 37 28 63 59 47 63 64 50 64 62 49 65 61 49 64 57 47 63 59 47 67 61 47 57 55 43 15 15 15 8 8 8 8 10 9 
11 9 10 8 8 8 8 8 8 10 8 9 10 10 10 9 9 9 11 11 11 10 10 10 9 9 9 9 9 9 8 8 8 7 7 7 9 9 9 10 10 10 10 10 10 10 10 10 10 8 9 8 8 8 10 10 10 10 8 9 7 7 7 7 7 7 11 11 11 14 14 14 12 12 12 9 9 9 10 10 10 9 9 9 10 10 10 11 11 11 12 10 11 13 13 13 12 12 12 11 9 10 8 8 8 7 7 7 6 4 5 5 5 5 5 5 5 4 4 4 5 5 5 6 6 6 7 7 7 7 5 6 8 8 8 9 9 9 7 7 7 10 10 10 12 10 11 11 11 11 12 12 12 12 12 12 10 10 10 10 10 10 9 9 9 9 9 9 10 10 10 9 9 9 7 7 7 7 7 7 7 7 7 8 6 7 9 9 9 11 11 11 12 12 12 11 11 11 10 10 10 9 9 9 10 8 11 8 8 8 8 8 8 9 7 8 7 7 7 7 7 7 61 57 46 64 58 44 9 7 10 6 6 6 7 5 6 6 6 6 5 5 5 6 6 4 6 6 6 6 6 6 8 8 8 9 9 9 9 9 9 10 9 5 14 14 12 24 23 19 40 37 32 65 61 50 64 60 49 55 51 42 36 33 28 61 57 45 22 22 20 10 10 10 9 9 9 11 11 11 
8 8 8 9 9 9 9 9 9 12 10 11 11 11 11 11 11 11 11 11 11 11 11 11 9 9 9 7 7 7 7 7 7 8 8 8 9 9 9 10 10 10 10 10 10 11 11 11 12 12 12 10 10 10 10 8 9 9 9 9 7 7 7 8 8 8 12 12 12 14 14 14 13 13 13 10 10 10 9 9 9 9 9 9 9 9 9 12 10 11 12 12 12 12 12 12 11 11 11 12 12 12 8 6 7 6 6 6 6 4 5 5 5 5 5 5 5 5 5 5 4 4 4 5 5 5 7 7 7 9 7 8 9 9 9 9 9 9 8 8 8 9 9 9 11 11 11 12 12 12 13 11 12 13 13 13 11 11 11 10 10 10 8 8 8 10 10 10 11 11 11 9 9 9 6 6 6 6 6 6 6 6 6 7 5 6 8 8 8 11 11 11 12 12 12 10 10 10 9 9 9 9 9 9 10 8 9 8 8 8 8 8 8 7 5 6 8 8 8 7 7 7 20 21 16 20 19 15 7 7 7 7 5 6 7 5 6 5 5 5 5 5 5 5 5 5 5 5 5 5 5 7 8 6 7 7 7 7 8 8 8 9 9 9 10 10 10 11 10 8 18 18 16 24 23 21 23 22 20 22 21 19 17 15 16 24 20 21 11 13 12 11 10 8 11 9 10 11 11 11 
9 9 9 9 7 8 10 10 10 13 13 13 12 12 12 10 10 10 10 10 10 11 11 11 9 9 9 7 7 7 6 6 6 7 7 7 7 7 7 9 9 9 11 11 11 13 13 13 12 12 12 12 12 12 11 11 11 9 9 9 9 9 9 10 10 10 11 11 11 14 14 14 14 14 14 11 11 11 8 8 8 7 7 7 8 8 8 11 11 11 12 10 11 10 10 10 12 12 12 14 12 13 10 10 10 8 8 8 7 7 7 7 5 6 4 4 4 6 6 6 6 6 6 7 7 7 11 9 10 10 10 10 10 10 10 8 8 8 9 9 9 9 9 9 12 10 11 10 10 10 11 11 11 11 11 11 12 12 12 11 11 11 9 9 9 11 11 11 12 12 12 10 10 10 8 8 8 7 7 7 7 7 7 7 5 6 9 9 9 12 12 12 12 12 12 10 10 10 10 10 10 11 11 11 10 9 7 9 9 7 9 7 8 9 9 9 9 9 11 8 8 8 8 8 10 9 9 9 8 7 5 6 4 5 5 5 5 6 6 6 7 7 9 6 6 6 7 5 6 6 6 6 8 8 10 8 8 8 10 10 8 10 10 10 9 9 7 9 9 7 10 10 10 10 10 10 12 12 12 12 12 12 11 11 11 11 11 9 9 9 9 8 8 6 11 11 11 11 9 10 
10 10 10 10 10 10 12 10 11 11 11 11 9 9 9 10 10 10 10 10 10 9 9 9 7 7 7 6 6 6 6 6 6 8 8 8 9 9 9 10 10 10 11 11 11 12 12 12 14 12 13 13 13 13 13 13 13 12 10 11 10 10 10 10 10 10 10 10 10 15 15 15 14 14 14 9 9 9 7 7 7 7 7 7 9 9 9 12 12 12 12 12 12 10 10 10 11 11 11 13 13 13 11 11 11 8 8 8 7 7 7 8 6 7 7 7 7 9 7 8 9 7 8 9 9 9 13 11 12 11 11 11 9 9 9 8 8 8 10 10 10 12 12 12 10 10 10 11 11 11 10 8 9 10 10 10 11 11 11 13 13 13 11 11 11 12 12 12 12 12 12 11 11 11 9 9 9 7 7 7 7 7 7 7 5 6 9 9 9 12 12 12 11 11 11 8 8 8 9 9 9 10 10 10 9 9 9 9 9 7 10 8 9 9 9 9 8 8 10 9 9 9 10 10 10 11 9 10 8 8 6 6 6 6 7 7 7 8 8 8 8 10 9 8 8 8 8 8 6 7 7 5 7 9 8 9 9 9 9 11 10 9 9 9 7 7 5 8 8 6 9 9 9 12 10 11 12 14 13 14 12 13 11 11 13 8 10 7 9 9 7 9 9 9 8 8 8 8 6 7 
10 10 10 11 11 11 11 11 11 10 10 10 8 8 8 9 9 9 8 8 8 8 8 8 7 7 7 6 6 6 6 6 6 7 7 7 10 10 10 9 9 9 10 10 10 11 11 11 11 11 11 12 12 12 12 12 12 11 11 11 11 11 11 11 11 11 10 10 10 13 13 13 11 11 11 8 8 8 8 8 8 7 7 7 8 8 8 13 13 13 13 13 13 12 12 12 10 10 10 10 10 10 9 9 9 7 7 7 8 8 8 8 8 8 8 6 7 9 7 8 10 8 9 14 12 13 14 14 14 12 12 12 9 9 9 9 9 9 12 12 12 11 11 11 10 8 9 9 9 9 9 9 9 8 8 8 10 10 10 12 12 12 10 10 10 10 10 10 10 10 10 9 9 9 8 8 8 8 8 8 7 7 7 8 6 7 10 10 10 10 10 10 10 10 10 6 6 6 7 7 7 10 10 10 8 8 8 9 9 9 10 8 11 10 8 9 9 9 9 9 9 9 8 10 9 10 10 10 8 8 8 7 7 7 7 7 7 8 7 5 8 8 8 8 8 6 9 9 9 9 7 8 6 6 6 8 6 7 8 8 8 8 8 8 9 9 9 10 8 9 11 11 11 11 11 11 13 13 11 12 12 10 9 9 9 9 9 9 10 10 10 10 10 8 6 8 7 8 6 7 
11 9 10 13 11 12 13 13 13 10 12 11 9 7 8 7 7 7 8 6 7 7 7 7 6 6 6 7 5 6 6 6 6 9 9 9 10 9 7 7 9 8 9 9 11 10 10 10 11 11 11 14 12 13 12 12 12 9 9 9 11 11 11 10 10 10 11 9 10 10 8 9 9 9 7 8 6 7 7 7 7 8 8 8 9 9 9 12 12 12 15 14 12 13 13 11 9 9 7 7 7 9 8 6 7 8 8 8 8 8 8 7 7 7 8 8 8 9 9 9 10 10 10 12 12 12 14 14 14 12 12 12 9 9 9 10 10 10 12 12 12 11 11 11 10 10 10 10 10 10 8 8 8 8 8 8 9 9 9 9 9 9 9 9 9 9 9 9 9 9 9 8 8 8 10 10 10 9 9 9 8 8 8 9 9 9 9 9 9 8 8 8 7 7 7 5 5 5 6 6 6 8 8 8 10 10 10 11 7 8 9 9 9 10 8 9 9 9 9 8 8 8 9 7 8 9 9 9 9 9 9 8 8 8 8 8 8 8 8 8 8 8 8 8 8 8 8 8 8 9 9 9 8 8 8 6 6 6 7 7 7 9 9 9 10 10 10 11 11 11 12 12 12 11 11 11 11 11 11 10 10 8 9 9 9 10 10 10 11 11 11 9 9 7 7 7 7 8 8 6 
36 35 33 39 35 32 39 17 19 15 14 12 10 10 10 8 6 9 7 7 7 5 5 5 4 4 4 5 5 7 6 6 6 8 8 8 24 10 10 37 8 10 37 8 10 37 11 10 37 13 13 33 15 13 13 13 11 10 10 10 10 10 10 9 11 10 8 8 8 9 7 8 7 7 7 9 9 9 8 8 6 9 9 7 10 8 9 11 11 11 13 13 11 14 12 13 9 9 9 7 7 7 7 7 7 8 8 8 8 8 8 8 8 8 8 8 8 9 9 9 8 8 8 11 11 11 14 14 14 14 14 14 9 9 9 12 12 12 12 12 12 10 10 10 11 11 11 12 12 12 9 9 9 8 8 8 8 8 8 7 7 7 8 8 8 9 9 9 7 7 7 9 9 9 10 10 10 10 10 10 9 9 9 9 9 9 9 9 9 7 7 7 6 6 6 6 6 6 7 7 7 9 9 9 9 9 9 10 8 9 8 8 8 9 7 8 9 9 9 8 8 8 8 8 8 9 9 9 8 8 8 8 8 8 8 8 8 8 8 8 8 8 8 7 7 7 8 8 8 9 9 9 8 8 8 8 8 8 8 8 8 10 10 10 11 11 11 11 11 11 11 11 11 11 11 11 11 11 11 10 10 10 10 10 10 11 11 11 10 10 12 8 8 8 8 8 8 35 36 30 
65 40 35 65 36 30 64 18 18 42 14 13 14 10 11 10 8 9 6 6 6 5 5 7 5 5 5 6 6 6 7 7 7 8 8 8 35 9 8 64 8 7 62 8 8 62 11 10 63 22 20 59 40 36 32 31 26 8 8 8 7 7 7 7 5 6 7 7 7 4 4 6 6 6 6 9 9 7 9 9 9 9 9 9 9 7 8 10 8 9 13 11 12 12 12 14 9 9 9 8 6 7 8 8 8 9 9 9 9 9 9 8 8 8 9 9 9 10 10 10 9 9 9 10 10 10 13 13 13 13 13 13 11 11 11 12 12 12 11 11 11 11 11 11 12 12 12 12 12 12 10 10 10 7 7 7 7 7 7 6 6 6 8 8 8 9 9 9 7 7 7 9 9 9 8 8 8 10 10 10 10 10 10 9 9 9 9 9 9 8 8 8 8 8 8 8 8 8 7 7 7 8 8 8 10 8 9 9 9 9 8 8 8 8 8 8 9 9 9 8 8 8 8 8 8 7 9 8 9 9 9 9 9 9 8 8 8 8 8 8 8 8 8 8 8 8 8 8 8 8 8 8 8 8 8 9 9 9 9 9 9 10 10 10 11 11 11 11 11 11 11 11 11 11 11 11 11 11 11 10 10 10 11 11 11 10 10 10 8 8 8 8 8 8 11 9 10 63 63 51 
66 20 20 65 17 17 63 13 14 63 11 13 40 8 9 16 8 6 6 6 6 7 5 6 7 7 5 9 7 8 9 7 8 9 9 9 37 9 8 63 9 9 66 10 11 65 21 20 66 47 40 65 63 51 56 47 40 29 7 9 6 6 4 5 5 5 6 6 4 4 4 4 6 6 8 9 8 6 9 9 7 10 8 9 10 8 9 8 8 8 11 11 11 11 11 9 8 8 6 10 8 9 11 10 8 9 9 11 8 8 8 9 9 9 10 10 10 10 10 10 10 10 10 11 11 11 13 13 13 11 11 11 10 10 10 11 11 11 11 11 11 11 11 11 12 12 12 12 12 12 10 10 10 7 7 7 7 7 7 7 7 7 9 9 9 10 10 10 8 8 8 10 10 10 9 9 9 9 9 9 9 9 9 9 9 9 9 9 9 9 9 9 8 8 8 8 8 8 8 8 8 7 7 7 10 8 9 8 8 8 8 8 8 9 9 9 9 9 9 8 8 8 8 8 8 6 8 7 8 8 8 8 8 8 9 9 9 8 8 8 8 8 8 8 8 8 8 8 8 9 9 9 8 8 8 9 9 9 9 9 9 9 9 9 10 10 10 11 11 11 11 11 11 11 11 11 10 10 8 10 10 10 10 10 10 9 9 9 7 7 7 8 8 8 10 8 9 62 62 50 
67 21 21 65 19 19 64 14 15 61 10 9 64 10 8 39 8 6 10 6 5 6 6 6 8 6 7 8 8 8 7 7 7 19 9 7 47 8 11 61 10 9 63 12 11 65 32 27 66 62 51 64 62 50 63 53 44 48 18 16 7 7 7 6 6 6 5 3 4 5 5 5 6 6 6 9 9 9 9 7 8 10 10 10 11 11 11 8 8 8 10 10 8 9 11 10 11 9 12 11 11 11 12 10 11 10 10 10 9 9 9 11 11 11 12 12 12 9 9 9 10 10 10 10 10 10 11 11 11 11 11 11 9 9 9 9 9 9 10 10 10 10 10 10 10 10 10 11 11 11 10 10 10 8 8 8 8 8 8 8 8 8 10 10 10 10 10 10 11 11 11 11 11 11 10 10 10 10 10 10 9 9 9 8 8 8 9 9 9 8 8 8 8 8 8 9 9 9 9 9 9 9 9 9 9 9 9 8 8 8 10 8 9 9 9 9 10 10 10 9 9 9 8 8 8 7 7 7 9 9 9 9 9 9 8 8 8 8 8 8 8 8 8 8 8 8 8 8 8 8 8 8 6 6 6 8 8 8 9 9 9 9 9 9 10 10 10 10 10 10 10 10 10 11 11 11 11 11 11 10 10 10 9 9 9 8 8 8 7 7 7 7 7 7 8 6 7 40 39 34 
65 19 19 63 19 20 64 15 11 61 10 9 63 7 8 62 8 8 39 7 8 27 22 18 15 14 12 20 20 18 28 27 23 47 19 16 64 10 10 66 12 10 64 12 14 66 32 30 65 62 53 65 62 53 63 59 50 58 45 39 29 8 7 25 7 7 4 4 4 5 5 5 7 7 7 9 9 9 9 9 9 11 11 11 11 11 11 10 8 9 11 11 11 10 10 10 11 11 13 13 13 13 14 14 14 10 10 12 9 9 9 11 11 11 11 11 11 10 10 10 8 8 8 10 10 10 11 11 11 11 11 11 8 8 8 7 7 7 10 10 10 10 10 10 8 8 8 8 8 8 8 8 8 7 7 7 7 7 7 7 7 7 10 10 10 10 10 10 11 11 11 12 12 12 10 10 10 8 8 8 8 8 8 9 9 9 9 9 9 8 8 8 8 8 8 9 9 9 9 9 9 9 9 9 9 9 9 8 8 8 12 8 9 10 10 10 12 12 12 10 10 10 8 8 8 9 9 9 10 10 10 9 9 9 8 8 8 8 8 8 8 8 8 8 8 8 8 8 8 8 8 8 6 6 6 7 7 7 9 9 9 10 10 10 10 10 10 10 10 10 10 10 10 10 10 10 9 9 9 10 10 8 9 9 7 9 9 7 8 8 8 8 8 8 6 4 5 5 3 4 
67 19 19 64 36 32 63 32 29 62 13 9 61 7 7 62 8 8 61 7 7 62 29 24 43 32 28 50 47 40 64 60 49 62 33 25 64 8 9 61 9 11 62 11 10 64 24 22 65 41 37 62 41 36 62 41 36 64 35 29 63 7 6 61 5 6 26 5 4 26 4 6 28 6 8 29 9 11 13 13 13 28 13 10 31 11 10 30 12 12 17 13 14 12 12 14 11 11 11 13 13 13 14 14 14 11 11 13 10 10 10 11 11 11 11 11 11 11 11 11 9 9 9 9 9 9 11 11 11 9 9 9 8 8 8 8 8 8 10 10 10 10 10 10 8 8 8 7 7 7 7 7 7 7 7 7 7 7 7 8 8 8 10 10 10 10 10 10 12 12 12 13 13 13 10 10 10 7 7 7 9 9 9 11 11 11 10 10 10 9 9 9 9 9 9 9 9 9 10 10 10 9 9 9 9 9 9 9 7 8 9 9 9 11 11 11 13 13 13 12 10 11 10 10 10 11 11 11 11 11 11 9 9 9 8 8 8 7 7 7 7 7 7 7 7 7 6 6 6 7 7 7 6 6 6 7 7 7 9 9 9 10 10 10 10 10 10 10 10 10 10 10 10 9 9 9 9 9 11 9 9 9 10 10 10 10 10 10 9 9 9 7 7 7 5 5 5 6 6 6 
65 28 22 66 62 51 64 57 49 65 25 23 62 12 11 62 8 8 62 8 8 63 7 6 63 38 33 62 52 42 64 47 39 64 26 23 62 8 8 61 10 9 64 10 10 64 8 7 63 9 9 63 9 9 63 9 9 63 9 7 63 7 8 60 6 4 60 4 5 61 5 6 63 9 9 64 23 21 26 25 23 61 26 24 64 13 10 66 12 12 29 13 14 12 12 12 13 11 12 13 13 13 13 13 11 11 11 13 9 9 9 12 12 12 11 11 11 11 11 11 9 9 9 9 9 9 11 11 11 8 8 8 9 9 9 6 6 6 7 7 7 7 7 7 5 5 5 5 5 5 6 6 6 8 8 8 7 7 7 8 8 8 9 9 9 10 10 10 10 10 10 13 13 13 10 10 10 7 7 7 9 9 9 12 12 12 12 12 12 10 10 10 9 9 9 9 9 9 10 10 10 11 11 11 10 10 10 10 8 9 10 10 10 12 12 12 14 12 13 11 11 11 11 11 11 11 11 11 12 12 12 10 10 10 7 7 7 7 7 7 7 7 7 6 6 6 6 6 6 6 6 6 7 7 7 8 8 8 9 9 9 9 9 9 9 9 9 9 9 9 9 9 9 9 9 9 9 9 7 10 10 10 11 11 11 12 12 12 9 9 9 6 6 6 6 6 6 7 7 7 
52 49 40 52 49 40 61 54 46 64 52 40 62 14 12 62 8 8 62 8 8 63 7 8 63 32 27 63 19 18 62 8 6 63 7 6 63 7 8 60 9 8 61 10 9 60 10 9 50 8 9 48 9 10 51 9 10 63 8 11 65 6 8 62 6 5 63 4 6 62 6 7 63 9 9 63 57 45 64 58 46 64 58 46 67 17 18 62 11 10 32 11 10 14 10 11 13 13 13 14 16 15 12 11 16 12 10 11 12 12 12 12 10 13 11 11 11 10 10 10 10 10 10 9 7 8 9 7 8 8 8 8 8 8 8 6 6 6 4 4 4 5 5 5 5 5 5 4 4 4 6 6 6 8 8 8 9 7 8 8 8 8 9 9 9 8 8 8 9 9 9 13 13 13 13 13 13 10 10 10 10 10 10 11 11 11 12 12 12 11 11 11 9 9 9 9 9 9 11 11 11 13 13 13 13 13 13 12 12 12 11 11 11 12 12 12 13 13 13 11 11 11 11 11 11 12 12 12 11 11 11 10 12 11 9 9 9 7 7 7 7 7 7 7 7 7 6 8 7 7 7 7 8 6 7 9 9 9 8 8 8 8 8 8 8 8 8 10 10 10 10 10 10 10 10 10 10 10 10 10 10 10 10 10 10 10 10 10 9 9 9 6 6 6 7 7 7 8 8 8 
14 14 12 12 12 12 55 51 40 62 52 40 61 13 11 63 9 9 63 9 7 62 8 6 62 6 7 62 7 10 63 9 9 64 8 9 64 8 9 62 8 8 58 8 9 32 8 8 9 9 9 9 9 9 21 11 10 55 9 9 65 6 8 63 7 8 63 9 9 62 8 8 64 8 9 63 59 48 64 58 46 64 58 46 65 17 15 62 11 10 65 9 8 24 10 10 15 15 15 15 15 17 12 11 9 11 11 11 13 11 14 12 12 12 12 12 10 11 9 10 9 11 10 9 9 9 8 8 8 9 7 8 7 7 7 7 7 7 5 5 5 5 5 5 5 5 5 7 7 7 9 9 9 9 9 9 7 7 7 9 9 9 9 9 9 8 8 8 10 10 10 14 14 14 14 16 15 14 12 13 11 11 11 11 11 11 11 11 11 11 11 11 10 10 10 10 10 10 11 11 11 13 13 13 14 14 14 13 13 13 11 11 11 10 10 10 12 12 12 13 13 13 11 11 11 14 14 14 12 12 12 12 10 11 10 10 10 9 9 9 8 8 8 8 8 8 8 6 7 7 7 7 7 7 7 8 8 8 8 8 8 8 8 8 11 9 10 11 11 11 11 11 11 10 10 10 10 10 10 9 9 9 10 10 10 10 10 10 10 10 10 7 7 7 6 6 6 7 7 7 
10 10 12 10 10 10 49 46 37 55 45 35 62 14 12 63 9 9 60 8 10 62 8 8 62 8 8 62 8 8 63 9 9 63 7 8 59 8 7 54 8 8 39 7 8 9 9 7 9 9 7 9 9 9 8 10 9 19 9 10 57 7 8 62 6 5 62 8 8 60 9 8 66 10 11 63 61 49 64 58 46 63 57 45 64 16 14 56 10 12 55 9 9 24 10 9 14 12 15 13 13 13 14 14 14 14 14 14 13 13 13 12 12 12 11 11 11 11 11 11 14 13 11 12 10 11 9 8 6 7 7 7 8 8 8 8 8 8 6 6 6 6 6 6 7 7 7 10 10 10 13 13 13 11 11 11 9 7 8 8 10 9 10 10 10 11 11 11 12 12 12 16 16 16 19 19 19 15 15 15 11 11 11 9 9 9 10 10 10 10 10 10 10 10 10 9 9 9 11 11 11 12 12 12 14 14 14 14 14 14 11 9 10 9 7 8 13 11 12 17 15 16 13 13 13 14 14 14 12 12 12 12 12 12 12 12 12 10 10 10 9 9 9 9 9 9 8 8 8 7 7 7 8 8 8 8 8 8 8 8 8 10 8 9 11 11 11 14 14 14 12 12 12 11 11 11 10 10 10 9 9 9 9 9 9 10 10 10 12 12 12 9 9 9 8 6 7 7 7 7 
9 9 9 8 10 9 8 6 9 7 7 7 54 8 8 61 10 9 60 9 8 60 9 8 63 9 9 62 11 10 63 12 11 63 13 12 35 11 9 8 8 8 10 8 11 8 8 8 9 9 9 9 9 11 8 8 8 8 8 8 16 7 8 54 8 8 54 8 8 62 11 10 63 12 11 62 54 43 62 49 40 63 49 38 63 15 15 15 9 9 9 9 9 8 10 9 12 12 10 13 13 13 14 14 14 13 13 13 12 12 12 12 12 12 11 11 9 11 11 11 32 12 13 43 12 9 10 8 11 6 6 6 7 7 7 6 6 6 6 6 6 7 7 7 9 9 9 12 12 12 14 14 14 11 11 11 8 8 8 10 10 10 13 13 13 15 15 15 13 13 13 17 17 17 19 19 19 16 14 15 9 9 9 8 8 8 8 8 8 10 10 10 8 8 8 9 9 9 9 9 9 9 9 9 11 9 10 11 11 11 9 9 9 10 10 10 14 14 14 16 16 16 14 14 14 14 12 13 14 14 14 14 14 14 13 11 12 13 13 13 11 11 11 12 10 11 10 10 10 8 8 8 7 7 7 7 7 7 8 8 8 11 9 10 14 14 14 15 15 15 12 12 12 11 11 11 11 11 11 10 10 10 9 9 9 10 10 10 12 12 12 9 9 9 7 7 7 7 7 7 
10 8 9 8 8 10 5 7 6 5 5 3 50 9 7 65 9 10 61 10 9 61 10 9 62 10 12 64 13 12 63 46 39 63 61 49 34 33 28 8 8 8 10 9 7 9 9 7 10 10 10 9 9 9 9 9 9 10 8 9 10 10 10 10 10 10 18 8 9 56 10 10 62 12 13 63 9 9 62 6 5 55 7 7 56 6 7 13 8 5 8 6 7 9 9 9 12 12 10 13 14 16 11 11 9 10 10 10 13 11 12 13 13 13 11 11 11 9 9 9 30 10 11 43 12 10 11 11 11 7 7 7 5 5 5 5 5 5 10 10 10 8 8 8 8 8 8 12 12 12 14 14 14 13 13 13 9 9 9 9 7 8 11 11 11 13 13 13 12 12 12 11 11 11 11 11 11 11 11 11 7 7 7 5 5 5 7 7 7 8 8 8 9 9 9 9 9 9 8 8 8 7 7 7 8 8 8 9 9 9 9 9 9 10 10 10 13 13 13 14 14 14 13 13 13 12 12 12 15 15 15 14 14 14 12 12 12 15 13 14 13 11 12 10 10 10 10 10 10 9 9 9 7 7 7 8 6 7 7 7 7 11 11 11 14 14 14 17 17 17 14 14 14 12 12 12 12 12 12 9 11 10 9 9 9 11 11 11 10 10 10 9 9 9 7 7 7 7 7 7 
8 8 8 8 8 8 7 7 7 6 6 6 8 8 8 51 9 10 65 9 10 63 12 11 62 10 12 63 42 37 63 60 51 64 60 49 35 35 27 7 9 8 8 8 8 9 9 9 10 10 10 10 10 10 10 8 9 9 11 10 10 10 8 11 9 12 8 10 9 11 11 13 64 10 10 62 6 7 62 6 7 16 8 6 8 6 7 5 5 5 5 3 4 9 9 7 14 14 16 14 14 14 11 9 10 11 9 10 13 12 10 13 13 13 11 11 13 9 9 9 30 8 10 45 14 12 12 12 14 9 9 9 7 7 7 7 7 7 10 10 10 8 8 8 9 9 9 11 11 11 14 14 14 15 15 15 11 11 11 8 8 8 9 9 9 10 10 10 9 9 9 7 7 7 7 5 6 7 7 7 6 6 6 5 5 5 6 6 6 9 9 9 9 9 9 9 9 9 8 8 8 8 8 8 8 8 8 10 10 10 10 10 10 9 9 9 11 11 11 12 12 12 13 13 13 14 14 14 14 14 14 13 13 13 11 11 11 12 12 12 11 11 11 10 10 10 9 9 9 9 9 9 9 9 9 8 8 8 7 9 8 11 9 10 14 14 14 16 16 16 15 15 15 14 12 13 12 12 12 11 11 11 11 11 11 12 12 12 9 9 9 9 9 9 9 9 9 9 9 9 
8 8 8 7 7 7 8 8 8 7 7 7 8 6 7 7 8 10 9 11 10 12 11 9 43 12 10 31 13 11 11 11 11 10 10 8 7 8 10 7 7 5 8 8 10 9 9 9 10 10 10 10 10 10 11 11 9 11 11 11 10 10 10 11 11 13 9 9 9 10 10 10 63 9 9 7 7 5 6 6 6 7 7 7 6 6 4 3 5 4 5 5 3 10 10 10 16 16 16 15 15 13 12 12 10 13 12 10 12 10 11 10 10 10 10 8 9 9 9 9 10 8 9 11 13 10 13 13 13 10 8 9 9 9 9 11 11 11 9 9 9 8 8 8 9 9 9 11 11 11 12 12 12 15 15 15 12 12 12 10 8 9 11 11 11 10 10 10 8 8 8 6 6 6 7 7 7 8 8 8 7 7 7 6 6 6 8 8 8 9 9 9 9 9 9 8 8 8 7 7 7 7 7 7 8 8 8 9 9 9 10 10 10 9 9 9 9 9 9 10 10 10 12 12 12 17 17 17 16 14 15 13 13 13 12 12 12 11 11 11 11 11 11 10 10 10 8 8 8 9 7 8 9 9 9 9 9 9 8 8 8 10 10 10 11 11 11 12 12 12 14 12 13 13 13 13 13 13 13 14 12 13 11 11 11 11 11 11 12 10 11 11 11 11 10 10 10 9 7 8 
7 7 7 7 5 6 6 6 8 6 6 6 6 6 6 8 8 8 8 8 8 8 8 8 9 9 9 10 10 10 9 9 9 8 8 8 7 7 7 8 8 8 9 9 9 9 9 7 10 10 12 12 10 13 11 9 10 11 9 10 11 11 13 11 11 9 10 8 9 9 9 9 10 10 10 8 8 8 6 6 6 5 5 5 3 3 3 7 8 3 7 5 6 9 9 9 14 13 11 14 14 14 12 12 12 9 9 7 7 7 5 6 6 8 10 9 7 9 9 9 10 8 11 12 10 11 11 11 13 10 10 10 12 12 12 13 13 13 10 10 10 8 8 8 8 8 8 12 12 12 15 15 15 15 15 15 13 13 13 11 11 11 13 13 13 11 11 11 8 8 8 7 7 7 8 8 8 8 8 8 8 8 8 8 8 8 8 8 8 8 8 8 8 8 8 8 8 8 7 7 7 6 6 6 8 6 7 8 8 8 9 9 9 9 9 9 9 9 9 9 9 9 10 10 10 15 13 14 16 16 16 13 13 13 11 11 11 11 11 11 12 12 12 11 11 11 8 8 8 8 8 8 9 9 9 10 10 10 9 9 9 10 10 10 11 9 10 11 11 11 12 12 12 9 9 9 12 10 11 13 13 13 13 11 12 10 8 9 10 10 10 12 10 11 10 8 9 9 9 9 
7 7 5 7 7 5 7 7 7 7 7 7 8 8 8 9 7 8 8 8 8 8 8 8 9 9 9 9 9 9 10 10 10 8 8 8 9 9 9 9 9 9 9 9 9 9 9 9 12 12 12 11 11 11 10 10 10 10 10 10 11 11 11 12 12 12 10 10 10 10 10 10 11 11 11 8 8 8 6 6 6 6 6 6 5 5 5 6 6 6 8 8 8 8 8 8 11 11 11 13 13 13 12 12 12 8 8 8 6 6 6 7 5 6 8 8 8 8 8 8 8 8 8 10 10 10 10 8 9 8 8 8 12 12 12 12 12 12 8 8 8 8 8 8 8 8 8 12 12 12 16 16 16 15 15 15 14 14 14 12 12 12 13 13 13 12 12 12 10 10 10 8 8 8 9 7 8 10 8 9 8 8 8 7 7 7 8 8 8 8 8 8 9 9 9 9 9 9 8 8 8 7 7 7 8 8 8 8 8 8 10 10 10 9 9 9 8 8 8 8 8 8 9 9 9 12 12 12 15 15 15 13 13 13 10 10 10 10 10 10 12 12 12 12 12 12 8 8 8 7 7 7 9 9 9 9 9 9 10 10 10 11 11 11 14 14 14 13 13 13 10 10 10 6 6 6 5 5 5 9 9 9 14 14 14 12 12 12 11 11 11 10 10 10 11 11 11 11 11 11 
9 7 8 7 7 7 7 7 9 9 9 7 9 9 9 9 9 9 10 10 10 10 10 10 9 10 12 11 11 11 12 10 11 9 9 9 8 8 8 9 9 9 10 10 10 11 11 11 12 12 12 12 12 12 11 11 11 8 8 8 10 10 10 11 9 10 9 9 9 10 10 10 9 9 9 8 8 8 7 5 6 5 5 5 6 6 6 7 7 7 7 7 7 9 9 9 11 11 11 12 12 12 12 12 12 9 9 9 7 7 7 6 6 6 7 7 7 8 8 8 8 8 8 8 8 8 8 8 8 10 10 10 12 12 12 12 12 12 7 7 7 8 8 8 9 9 9 12 12 12 16 16 16 14 14 14 13 13 13 13 13 13 13 13 13 12 12 12 11 11 11 10 10 10 9 9 9 9 9 9 8 8 8 8 8 8 8 8 8 8 8 8 8 8 8 9 9 9 10 10 10 11 11 11 9 9 9 8 8 8 8 8 8 8 8 8 8 8 8 7 7 7 7 7 7 12 12 12 14 14 14 12 12 12 10 10 10 11 11 11 11 11 11 9 9 9 6 6 6 7 7 7 8 8 8 11 11 11 11 11 11 13 13 13 14 14 14 14 14 14 12 12 12 7 7 7 4 4 4 7 7 7 13 13 13 14 14 14 12 12 12 10 10 10 12 12 12 13 13 13 
9 8 6 8 8 10 9 9 9 10 10 10 12 12 12 12 8 7 11 10 8 10 12 11 11 11 11 12 10 11 11 11 11 9 9 11 8 8 8 8 8 8 10 10 10 10 10 10 10 10 10 11 11 11 11 11 11 9 9 9 9 9 9 9 9 9 8 8 8 10 10 10 8 8 8 9 9 9 7 7 7 4 4 4 6 4 5 8 6 7 9 7 8 10 8 9 12 12 12 11 11 11 11 11 11 8 8 8 7 7 7 7 7 7 8 6 7 8 8 8 7 7 7 8 6 7 8 8 8 10 10 10 13 13 13 13 13 13 9 9 9 8 8 8 9 9 9 14 14 14 16 16 16 12 12 12 11 11 11 12 12 12 11 11 11 11 11 11 12 12 12 11 11 11 10 10 10 10 10 10 11 11 11 8 8 8 8 8 8 6 6 6 8 8 8 10 10 10 12 12 12 12 12 12 9 9 9 8 8 8 8 8 8 8 8 8 7 7 7 7 7 7 8 8 8 11 11 11 15 13 14 11 11 11 9 9 9 10 10 10 11 11 11 8 8 8 6 6 6 7 7 7 11 11 11 11 11 11 11 11 11 12 12 12 15 15 15 14 14 14 12 12 12 7 7 7 6 6 6 7 7 7 9 9 9 13 13 13 14 14 14 14 14 14 13 13 13 10 10 10 
10 9 7 10 12 11 10 10 10 9 9 7 10 8 9 9 9 9 9 9 9 9 9 9 10 10 10 11 11 11 9 9 9 8 8 6 8 6 7 9 9 9 11 11 11 11 11 11 10 10 10 10 10 10 10 10 10 9 7 8 8 8 8 9 7 8 9 9 9 8 8 8 9 9 9 9 9 9 8 6 7 7 7 7 5 5 5 8 8 8 9 9 9 8 8 8 9 9 9 10 10 10 9 9 9 8 8 8 9 9 9 8 8 8 8 6 7 7 7 7 7 7 7 5 3 4 5 5 5 10 10 10 12 12 12 13 13 13 12 12 12 10 10 10 9 9 9 14 14 14 14 14 14 11 11 11 13 11 12 11 9 10 10 10 10 10 10 10 11 11 11 12 12 12 12 12 12 11 11 11 13 13 13 10 10 10 7 7 7 6 6 6 8 8 8 12 12 12 12 12 12 8 8 8 8 8 8 8 8 8 9 9 9 8 8 8 8 8 8 9 9 9 10 10 10 12 12 12 11 11 11 9 7 8 8 6 7 8 8 8 8 8 8 7 7 7 7 7 7 8 8 8 11 11 11 12 12 12 11 11 11 13 13 13 16 16 16 14 14 14 9 9 9 7 7 7 7 7 7 7 7 7 8 8 8 11 11 11 14 14 14 16 16 16 13 13 13 9 9 9 
50 12 11 10 10 10 9 9 9 8 8 8 9 7 8 10 9 7 9 9 9 9 9 9 10 10 10 10 8 9 9 7 8 8 8 8 8 8 8 9 9 9 11 11 11 12 10 11 11 9 10 8 8 8 8 8 8 6 6 6 8 8 8 8 8 8 8 6 7 7 7 7 8 8 8 8 6 7 6 6 6 7 7 7 7 7 7 7 7 7 8 8 8 9 9 9 10 10 10 10 10 10 8 8 8 8 8 8 8 8 8 8 8 8 7 7 7 8 8 8 5 5 5 3 3 3 4 4 4 7 7 7 9 9 9 11 11 11 12 12 12 11 11 11 10 10 10 12 12 12 13 13 13 10 10 10 12 12 12 14 14 14 12 12 12 11 11 11 11 11 11 10 10 10 12 10 11 14 12 13 13 13 13 11 11 11 9 9 9 8 8 8 10 10 10 13 13 13 8 8 8 5 5 5 6 6 6 8 8 8 9 9 9 8 8 8 8 8 8 10 10 10 11 11 11 11 11 11 12 12 12 8 8 8 7 7 7 9 7 8 9 7 8 9 9 9 11 11 11 10 8 9 9 9 9 10 10 10 10 10 10 12 12 12 13 13 13 13 13 13 7 7 7 6 6 6 6 6 6 7 7 7 8 8 8 9 9 9 12 12 12 12 12 12 14 14 14 14 14 14 
27 13 12 9 9 9 8 8 10 9 8 6 9 9 9 9 9 9 7 7 5 9 9 9 9 9 9 8 8 8 8 8 8 8 8 8 11 9 10 10 10 10 10 10 10 8 8 8 8 8 8 8 8 8 7 7 7 7 5 6 8 8 8 7 7 7 7 7 7 5 5 5 6 6 6 6 6 6 6 6 6 8 8 8 10 8 9 7 5 6 8 6 7 10 8 9 11 11 11 11 11 11 10 10 10 9 9 9 8 8 8 7 7 7 6 6 6 7 7 7 6 6 6 2 2 2 2 2 2 6 6 6 9 9 9 11 11 11 13 13 13 12 12 12 11 11 11 13 13 13 15 15 15 12 12 12 13 13 13 16 16 16 15 15 15 13 13 13 10 10 10 10 10 10 10 10 10 10 10 10 11 11 11 12 12 12 11 11 11 12 12 12 13 13 13 9 9 9 7 7 7 6 6 6 8 8 8 8 8 8 8 8 8 9 9 9 9 9 9 11 11 11 11 11 11 10 10 10 13 13 13 12 12 12 9 9 9 6 6 6 7 7 7 10 8 9 12 10 11 9 9 9 9 9 9 9 9 9 10 10 10 10 10 10 12 12 12 11 11 11 8 8 8 6 6 6 6 6 6 7 7 7 8 8 8 9 9 9 10 10 10 11 11 11 14 14 14 17 17 17 
12 12 10 8 8 8 9 9 9 10 10 10 8 8 8 10 9 7 10 8 9 9 9 9 9 10 12 9 9 9 9 9 9 10 10 12 11 11 11 11 11 11 10 10 10 11 9 10 10 8 9 8 8 8 7 7 7 7 7 7 8 8 8 8 8 8 8 6 7 4 4 4 5 5 5 8 6 7 8 8 8 8 8 8 9 9 9 9 9 9 9 9 9 10 10 10 9 9 9 11 11 11 10 10 10 9 9 9 9 9 9 8 8 8 6 6 6 5 5 5 3 3 3 2 2 2 3 3 3 5 5 5 8 8 8 13 13 13 15 15 15 10 10 10 9 9 9 14 14 14 16 16 16 12 12 12 12 12 12 15 15 15 16 16 16 13 13 13 11 11 11 10 10 10 8 8 8 9 9 9 10 10 10 13 13 13 14 14 14 14 14 14 12 12 12 7 7 7 7 7 7 8 8 8 7 7 7 9 9 9 9 9 9 9 9 9 9 9 9 11 11 11 11 11 11 10 10 10 11 11 11 14 14 14 11 11 11 7 7 7 8 8 8 8 8 8 9 9 9 8 8 8 8 8 8 9 9 9 10 10 10 10 10 10 11 11 11 10 10 10 8 8 8 7 7 7 8 8 8 8 8 8 8 8 8 8 8 8 9 9 9 10 10 10 17 17 17 15 15 15 
11 11 11 8 8 8 8 8 8 10 10 10 9 9 9 10 10 10 10 10 10 10 10 10 9 9 9 9 9 9 9 9 9 11 11 11 12 10 11 12 12 12 12 12 12 12 10 11 8 6 7 8 8 8 7 7 7 8 6 7 8 8 8 8 8 8 7 7 7 4 4 4 5 5 5 8 8 8 10 10 10 9 9 9 9 9 9 9 9 9 9 9 9 9 9 9 9 9 9 10 10 10 9 9 9 9 9 9 7 7 7 7 7 7 5 5 5 4 4 4 3 3 3 3 3 3 3 3 3 5 5 5 8 8 8 12 12 12 13 13 13 10 10 10 7 7 7 12 12 12 14 14 14 10 10 10 11 9 10 14 12 13 15 15 15 13 13 13 12 12 12 10 10 10 10 10 10 9 9 9 10 10 10 14 14 14 16 16 16 13 13 13 12 12 12 7 7 7 7 7 7 9 9 9 10 10 10 12 12 12 12 12 12 10 10 10 8 8 8 10 10 10 11 11 11 10 10 10 12 12 12 13 13 13 10 10 10 8 8 8 9 9 9 8 8 8 9 9 9 9 9 9 8 8 8 8 8 8 10 10 10 10 10 10 10 10 10 10 10 10 11 11 11 9 9 9 8 8 8 9 9 9 9 9 9 8 8 8 9 9 9 13 13 13 15 15 15 12 12 12 
9 9 9 9 9 9 8 8 6 10 10 10 11 11 11 13 11 12 11 11 13 9 11 10 8 8 8 8 8 10 12 10 11 11 11 11 12 12 12 12 12 12 12 12 12 12 12 12 11 11 11 10 8 9 9 7 8 7 7 7 7 7 9 8 8 8 8 8 8 6 6 6 7 7 7 7 7 7 10 10 10 10 10 10 10 10 10 8 8 8 8 8 8 10 8 9 9 9 9 11 11 11 10 10 10 9 9 9 10 10 10 8 8 8 6 6 6 4 4 4 3 3 3 4 2 3 4 4 4 7 7 7 8 8 8 11 9 10 13 13 13 11 11 11 10 8 9 10 8 9 10 10 10 9 7 8 8 8 8 11 11 11 13 13 13 13 13 13 12 10 11 10 10 10 11 9 10 9 9 9 11 11 11 15 13 14 17 15 16 16 14 15 12 12 12 8 8 8 9 9 9 10 10 10 14 12 13 14 14 14 14 14 14 11 13 12 10 8 9 10 8 9 9 9 9 9 9 9 12 12 12 12 12 12 9 9 9 8 8 8 8 8 8 9 9 9 10 10 10 8 8 8 7 7 7 9 9 9 11 9 10 11 11 13 11 11 11 10 10 10 11 11 11 11 11 11 10 10 10 10 10 10 10 8 9 10 8 9 12 10 11 15 15 13 12 12 12 16 14 15 
10 10 10 10 10 10 8 8 8 12 12 12 13 13 13 14 14 14 9 9 9 8 8 8 8 8 6 8 8 8 9 9 9 13 11 12 13 13 13 12 12 12 13 13 13 13 13 13 13 11 12 9 9 9 6 6 6 8 6 7 8 6 7 7 7 7 8 8 6 9 7 8 8 8 8 9 9 9 11 11 13 11 11 11 10 10 10 8 8 8 9 7 8 8 8 8 10 10 10 11 11 11 10 10 10 10 10 10 10 10 10 9 9 9 8 6 7 5 5 5 4 4 4 4 4 4 6 6 6 8 8 8 9 9 9 10 10 10 11 11 11 11 11 11 9 9 9 8 8 8 10 10 10 8 8 8 9 7 8 12 10 11 14 12 13 15 15 15 13 11 12 11 9 10 11 9 12 9 9 9 12 12 12 14 14 14 15 13 14 13 13 13 11 11 11 9 9 9 9 9 9 9 9 9 12 11 9 12 12 12 11 11 11 10 10 10 9 9 9 9 7 8 8 8 8 10 8 9 10 12 11 11 11 11 10 10 10 10 10 10 8 8 8 8 8 8 9 9 9 10 8 9 9 9 9 10 10 10 12 12 12 11 11 11 11 11 11 10 10 10 11 9 10 11 9 10 10 8 9 10 8 9 9 9 9 9 11 10 11 11 11 13 13 13 11 11 11 12 12 12 
10 10 10 11 11 11 9 9 9 12 12 12 13 13 11 11 11 11 8 8 8 8 8 8 8 8 8 8 8 8 9 9 11 11 11 11 12 12 12 12 12 12 12 12 12 14 12 13 12 12 12 9 9 9 7 7 7 8 6 7 7 7 9 8 6 7 8 8 8 8 8 8 8 8 8 10 10 10 11 11 11 11 11 11 10 10 10 8 8 8 6 6 6 7 5 6 8 8 8 10 10 10 9 9 9 9 9 9 10 8 9 9 9 9 7 7 7 5 5 5 4 4 4 4 4 4 7 7 7 9 9 9 8 8 8 7 7 7 9 9 9 9 9 9 9 9 9 10 10 10 11 11 11 9 9 9 8 8 8 10 10 10 15 13 14 14 14 14 13 13 13 10 10 10 9 9 9 10 8 9 11 11 11 13 13 13 13 13 13 11 11 11 10 10 10 9 7 8 9 9 9 10 10 10 10 10 10 9 9 9 7 7 7 8 8 8 9 9 9 8 6 7 8 8 8 11 9 10 12 12 12 11 11 11 10 12 11 11 11 11 9 9 7 9 9 9 9 9 9 10 10 10 10 10 10 12 12 12 13 13 15 12 12 12 11 11 11 10 10 10 9 9 9 10 10 8 9 11 10 10 8 9 9 9 9 9 7 8 9 9 9 11 11 11 11 11 11 13 13 13 
12 12 12 10 10 10 9 9 9 11 11 11 11 11 9 8 8 8 7 7 7 8 8 8 8 8 8 9 9 9 9 9 9 10 10 10 10 10 10 11 11 11 10 10 10 11 11 11 10 10 10 9 9 9 9 7 8 7 7 7 8 7 5 7 7 7 7 7 7 9 9 9 9 9 9 37 11 12 12 12 12 10 10 10 9 9 9 7 7 7 5 5 5 6 4 5 6 6 6 7 7 7 7 7 7 8 8 8 8 8 8 9 9 9 8 8 8 6 6 6 5 5 5 6 6 6 8 8 8 10 8 9 7 7 7 6 6 6 9 9 9 8 8 8 9 9 9 10 10 10 10 10 10 9 9 9 8 8 8 13 13 11 17 17 17 14 14 14 11 11 13 11 9 10 10 10 8 10 10 10 10 10 10 10 10 10 9 7 8 9 9 9 8 8 8 9 9 9 9 9 9 10 10 10 10 10 10 7 7 7 6 6 6 6 6 8 8 8 8 9 7 8 34 29 23 35 30 24 38 35 28 15 15 13 12 12 12 12 12 12 11 11 11 9 9 9 9 9 9 11 11 11 13 13 11 14 14 14 12 12 12 11 11 11 11 11 9 11 11 11 11 9 10 19 18 16 34 30 27 31 26 23 7 7 7 8 6 7 7 7 7 9 9 7 11 11 13 12 12 14 
11 11 11 10 10 10 8 8 8 8 8 8 7 9 8 8 8 10 9 7 8 29 28 24 38 35 30 36 18 16 20 8 10 11 9 10 10 10 10 10 10 10 10 10 10 10 10 10 10 8 9 10 8 9 8 8 8 7 7 7 7 6 4 7 7 7 8 8 8 12 12 12 11 11 11 39 13 14 13 13 13 10 10 10 7 7 7 6 6 6 6 4 5 4 4 4 6 6 6 6 6 6 5 5 5 6 6 6 8 8 8 9 9 9 9 9 9 7 7 7 7 7 7 8 6 7 8 8 8 8 8 8 6 6 6 6 6 6 10 10 10 9 9 9 8 8 8 8 8 8 10 10 10 9 9 9 10 8 9 13 11 12 15 13 14 12 12 12 12 10 11 34 29 25 38 34 31 37 37 35 21 19 20 8 8 8 8 6 7 7 7 7 8 6 7 8 8 8 9 9 9 11 11 11 11 11 11 8 6 7 5 5 5 5 5 7 7 7 7 8 6 7 56 50 38 60 48 36 37 34 27 15 15 13 12 12 12 12 12 12 11 11 11 9 9 9 11 11 11 13 13 13 15 15 15 14 14 14 12 12 12 11 11 11 10 10 10 11 9 10 21 17 14 46 39 31 60 54 42 50 43 35 9 7 8 7 7 9 9 9 9 9 9 7 11 11 11 13 13 13 
10 10 10 10 10 10 7 7 7 6 6 6 7 9 8 9 9 7 10 8 9 32 31 27 44 41 34 41 20 17 22 8 7 8 8 8 9 9 9 9 9 9 9 9 9 10 10 10 9 9 9 9 7 8 7 7 7 6 6 6 6 6 8 8 6 7 9 9 9 13 13 13 12 12 12 14 14 14 13 13 13 9 9 9 6 6 6 5 5 5 6 4 5 5 5 5 5 5 5 4 4 4 5 5 5 7 7 7 8 8 8 9 9 9 11 9 10 8 8 8 8 8 8 9 9 9 8 8 8 7 7 7 5 5 5 7 7 7 12 12 12 10 10 10 6 6 6 5 5 5 10 10 10 10 10 10 10 10 10 12 12 12 12 10 11 11 11 9 12 11 9 34 31 26 43 40 35 43 42 38 23 21 22 9 7 8 8 6 7 8 6 7 7 7 7 8 8 8 9 9 9 12 10 11 11 11 11 8 8 8 5 5 5 7 5 6 6 6 4 7 7 7 38 33 27 41 32 25 10 8 9 12 12 12 11 11 11 11 11 11 12 11 9 13 11 12 12 12 12 14 12 13 14 14 14 12 12 12 11 11 11 10 9 14 9 9 9 10 10 10 23 22 18 43 38 32 41 36 32 35 32 27 7 7 7 8 8 8 9 9 9 12 11 9 13 11 14 12 14 13 
8 8 8 8 8 8 7 7 7 6 6 6 7 9 8 9 9 7 10 10 10 9 10 12 9 9 9 8 8 8 8 8 8 9 9 9 9 9 9 10 8 9 10 10 10 10 10 10 9 9 9 8 8 8 9 7 8 8 8 8 9 7 8 7 7 7 9 9 7 14 12 13 14 14 14 13 13 13 11 11 13 7 7 7 6 6 6 5 5 5 5 5 5 7 5 6 5 5 5 5 5 5 6 6 6 7 7 7 10 8 9 10 10 10 10 10 10 9 9 9 9 9 9 10 10 10 10 10 10 10 10 10 7 7 7 8 8 8 12 12 12 9 9 9 6 6 6 5 5 5 10 10 10 10 10 10 9 9 11 9 9 9 9 9 9 8 8 8 9 9 9 10 10 12 10 10 10 8 8 8 10 8 9 8 8 8 8 8 8 8 8 8 7 7 7 8 8 8 9 9 9 10 10 10 11 11 11 9 9 9 6 6 6 8 6 7 7 5 6 6 6 6 8 8 8 11 10 8 9 11 10 12 12 12 11 11 11 10 10 10 12 12 12 12 12 12 12 12 12 13 11 12 12 12 12 11 11 11 10 10 10 10 10 10 10 10 10 8 10 9 10 10 10 8 8 6 9 7 8 6 4 5 5 5 5 8 8 8 8 8 8 9 9 9 10 12 11 14 12 13 
10 10 10 8 8 6 6 6 6 6 6 6 9 7 8 8 8 8 10 10 10 10 10 10 8 10 9 9 9 11 8 8 8 9 9 9 10 8 9 10 10 10 11 11 11 9 9 9 9 9 9 9 9 9 9 9 9 11 9 10 10 10 12 8 8 8 9 9 9 14 14 14 15 15 15 11 11 11 7 7 7 7 7 7 6 6 6 5 5 5 7 5 6 6 6 6 6 6 6 4 4 4 6 6 6 7 7 7 9 9 9 10 10 10 9 9 9 8 8 8 8 8 8 10 10 10 12 12 12 12 12 12 9 9 9 10 8 9 10 10 10 8 8 8 8 6 7 6 4 5 8 8 8 11 9 10 8 8 10 11 9 10 10 10 8 10 8 11 9 9 7 8 8 8 7 7 7 9 9 9 11 7 8 7 9 8 7 9 8 8 8 8 10 8 9 9 9 9 8 10 9 10 8 9 8 8 8 9 9 9 9 7 8 7 7 7 7 7 9 7 7 5 8 8 10 9 9 9 10 10 10 12 12 12 12 12 12 12 12 12 16 16 16 13 13 13 11 11 11 10 12 11 11 11 11 9 9 9 9 9 9 8 10 9 9 9 9 9 7 8 9 7 8 9 9 7 7 7 5 5 5 5 6 6 6 6 6 6 7 7 7 7 7 7 8 8 8 12 12 14 
10 10 10 7 7 7 6 6 6 7 7 7 9 9 9 9 9 9 9 9 9 10 10 10 10 10 10 8 8 8 7 7 7 9 9 9 10 10 10 10 10 10 11 11 11 10 10 10 8 8 8 9 11 10 12 12 12 10 10 10 10 10 10 9 9 9 8 8 10 11 11 11 12 12 12 10 10 8 8 8 8 5 5 5 6 6 6 6 6 6 7 7 7 6 6 6 7 7 7 8 8 8 8 8 8 7 5 6 7 7 7 8 8 8 8 8 8 9 9 9 9 9 9 10 10 10 10 10 10 10 10 10 10 10 10 10 8 9 8 8 8 8 8 8 8 8 8 6 6 6 7 7 7 9 9 9 9 9 9 11 11 11 10 10 10 9 9 9 9 9 9 9 9 9 9 9 9 9 9 9 9 9 9 9 7 8 7 7 7 10 9 7 10 8 9 10 10 10 11 11 9 11 11 11 9 7 10 7 7 9 7 7 7 9 9 7 9 8 6 8 8 10 8 8 8 10 8 9 10 10 10 12 10 11 12 12 10 14 12 13 17 17 17 15 15 15 12 12 12 9 9 9 10 10 10 9 9 9 8 6 9 8 6 7 8 8 8 9 9 9 9 7 8 8 8 8 6 6 8 6 6 6 6 6 8 6 6 6 8 6 7 7 7 7 7 7 7 12 10 11 
9 9 9 7 7 7 9 9 9 10 10 10 9 9 9 9 9 9 9 9 9 9 9 9 9 9 9 9 9 9 11 11 11 10 10 10 10 10 10 11 11 11 11 11 11 10 10 10 9 9 9 9 9 9 11 11 11 11 11 11 10 10 10 10 10 10 9 9 11 7 7 7 7 7 7 9 9 7 8 8 8 7 7 7 6 6 6 7 7 7 7 7 7 6 6 6 8 8 8 8 8 8 7 7 7 6 6 6 8 8 8 9 9 9 9 9 9 9 9 9 8 8 8 9 9 9 10 10 10 9 9 9 9 9 9 9 9 9 7 7 7 6 6 6 9 7 8 6 6 6 8 8 8 12 12 12 8 8 8 10 10 10 9 9 9 9 9 9 9 9 9 10 10 10 9 9 9 9 9 9 8 10 9 9 9 9 11 11 11 8 8 8 8 8 8 11 11 11 12 12 12 12 12 12 9 9 9 7 7 7 7 7 5 10 8 9 8 8 8 9 9 9 7 7 7 8 8 8 11 11 9 11 11 11 12 10 11 15 14 12 16 16 18 13 13 13 11 13 12 12 12 12 11 11 11 8 8 8 6 6 6 6 6 6 8 8 8 9 9 9 8 6 7 6 6 8 6 6 6 6 6 6 7 7 7 7 5 6 8 8 8 8 8 8 7 7 7 10 10 8 
8 8 8 7 7 7 10 8 9 13 11 12 10 10 10 9 9 9 8 8 8 8 8 8 8 8 8 9 9 9 10 10 10 10 10 10 11 9 10 10 10 10 10 10 10 9 9 9 7 7 7 9 7 8 10 10 10 10 10 10 9 9 9 10 10 10 9 9 11 9 9 9 6 6 6 6 6 4 7 7 7 7 7 7 7 7 7 8 8 8 7 7 7 5 5 5 5 5 5 6 6 6 8 6 7 9 7 8 7 7 7 8 8 8 8 8 8 8 8 8 8 8 8 8 8 8 7 7 7 8 8 8 11 9 10 9 9 9 8 8 8 5 5 5 8 8 8 6 6 6 8 8 8 10 10 10 9 9 9 8 8 8 8 8 8 8 8 8 9 9 9 9 9 9 9 9 9 11 11 11 11 9 10 10 10 10 8 10 9 6 6 6 7 7 7 11 11 11 14 14 14 15 15 15 10 10 12 8 8 6 8 8 8 8 8 8 8 8 8 8 8 6 8 8 8 8 8 8 9 11 8 10 10 12 10 10 8 13 13 13 12 12 12 10 10 12 14 12 13 13 13 13 11 11 11 7 7 7 6 6 8 5 5 5 8 8 8 9 9 11 7 7 5 5 5 3 7 7 5 7 7 7 6 6 6 6 6 6 8 8 8 8 8 6 8 8 6 21 20 16 
8 8 8 6 6 6 9 9 9 13 13 13 12 10 11 11 11 11 8 8 8 8 8 8 8 8 8 9 9 9 10 10 10 9 7 8 8 6 7 8 6 7 7 7 7 9 7 8 9 7 8 8 6 7 8 8 8 8 10 9 9 9 9 9 9 9 9 9 9 8 8 8 7 7 7 7 7 7 6 6 6 7 7 7 8 8 8 8 8 8 7 7 7 6 6 6 6 6 6 7 7 7 8 8 8 8 8 8 8 8 8 8 8 8 8 8 8 8 8 8 8 8 8 7 7 7 5 5 5 6 6 6 8 8 8 9 9 9 8 6 7 6 6 6 6 6 6 6 6 6 9 9 9 9 9 9 8 8 8 6 6 6 7 7 7 8 8 8 9 9 9 10 10 10 10 10 10 10 10 10 12 12 14 12 10 13 8 6 7 6 6 4 8 8 8 11 11 11 14 14 14 14 14 16 11 11 11 9 9 9 7 7 7 8 8 6 8 8 8 8 8 8 8 8 8 7 7 9 9 9 11 11 10 8 12 10 11 10 10 10 11 11 11 11 11 11 14 14 14 18 16 17 18 16 17 10 10 10 6 6 6 5 5 5 7 7 7 8 8 8 7 7 7 5 5 5 6 6 8 8 8 8 6 6 6 6 6 8 9 9 9 10 8 9 8 8 8 60 50 38 
8 8 8 7 7 7 10 10 10 12 12 12 12 12 12 9 9 9 9 7 8 10 8 9 11 9 10 11 9 10 9 9 9 7 7 7 8 6 7 7 5 6 5 5 5 6 6 6 7 7 7 7 7 7 8 8 8 8 8 8 8 8 8 8 8 8 6 6 6 7 7 7 10 10 10 8 8 8 7 7 7 7 7 7 8 8 8 7 7 7 7 7 7 8 8 8 8 8 8 8 8 8 9 7 8 12 8 9 8 8 8 8 8 8 8 8 8 9 9 9 9 9 9 8 8 8 7 7 7 5 5 5 6 6 6 6 6 6 7 5 6 5 5 5 5 5 5 8 8 8 9 9 9 10 10 10 7 7 7 6 6 6 7 7 7 8 8 8 9 9 9 10 10 10 9 9 9 9 9 9 11 11 11 10 10 10 8 8 8 8 8 8 9 9 9 14 14 12 18 18 16 16 17 12 10 10 10 8 8 8 7 7 7 10 8 9 8 8 6 8 8 8 7 7 9 6 6 6 9 9 9 12 12 12 12 12 12 11 11 11 17 15 16 21 17 16 21 20 18 47 42 36 60 52 41 28 25 20 8 8 8 7 7 7 8 8 8 9 9 7 7 7 7 6 6 4 6 6 6 7 7 7 6 6 4 7 7 9 8 8 6 7 7 9 13 11 12 61 51 39 
8 8 8 5 5 5 9 9 9 11 11 11 15 11 12 8 8 8 7 7 7 9 9 9 11 11 11 12 12 12 9 9 9 10 6 7 7 7 7 7 7 7 6 6 6 6 6 6 8 8 8 9 9 9 8 8 8 5 7 6 7 7 7 7 7 7 6 6 6 6 6 6 9 9 9 9 9 9 7 7 7 6 6 6 6 6 6 8 8 8 8 8 8 8 8 8 10 10 10 9 9 9 7 7 7 8 8 8 9 9 9 10 10 10 9 9 9 9 9 9 11 11 11 10 10 10 8 8 8 6 6 6 6 4 5 5 5 5 7 7 7 7 7 7 5 5 5 6 6 6 10 10 10 11 11 11 6 6 6 5 5 5 7 7 7 10 8 9 10 10 10 9 9 9 9 7 8 9 9 9 8 8 8 8 8 8 8 8 10 7 9 6 9 9 7 27 23 20 54 52 40 49 46 37 12 11 9 6 6 6 7 7 7 9 9 9 11 11 11 9 9 9 6 6 6 6 4 7 10 9 7 15 13 14 14 14 12 10 12 11 49 45 36 64 55 46 64 54 45 61 51 42 60 50 41 30 25 21 9 7 8 8 8 6 7 7 7 8 8 8 10 8 11 6 6 6 5 5 5 7 7 7 7 7 7 7 7 7 6 6 6 12 12 10 54 46 33 62 52 40 
11 11 11 8 8 8 9 9 9 12 12 12 14 14 14 10 10 10 7 5 6 8 8 8 9 9 9 12 10 11 12 12 12 9 9 9 7 7 7 6 6 6 7 7 7 8 8 8 9 9 9 9 9 9 8 8 8 5 5 5 5 5 5 7 7 7 8 8 8 6 6 6 7 7 7 8 8 8 8 8 8 7 7 7 8 8 8 8 8 8 8 8 8 9 9 9 12 12 12 10 10 10 6 4 5 9 7 8 11 11 11 13 13 13 12 12 12 9 9 9 10 10 10 11 11 11 10 10 10 7 7 7 6 6 6 6 6 6 6 6 6 8 8 8 6 4 5 6 6 6 12 12 12 10 10 10 5 5 5 4 4 4 7 5 6 8 8 8 9 9 9 8 8 8 9 9 9 9 9 9 8 8 8 8 8 8 8 6 7 6 6 6 7 7 7 9 9 9 10 12 11 17 15 16 13 13 13 6 6 6 5 5 5 7 7 7 11 9 10 9 9 9 5 5 3 6 6 4 10 9 7 12 12 12 13 11 12 12 12 14 51 44 38 64 54 45 64 54 45 61 53 42 60 54 40 29 26 21 9 7 8 10 8 9 9 9 9 8 8 8 9 9 11 7 7 5 6 6 6 8 6 7 10 8 9 6 6 4 6 6 6 6 6 6 9 7 8 62 54 43 
10 10 10 8 8 8 12 12 12 14 14 14 14 14 14 9 9 9 7 7 7 7 7 7 8 8 8 10 10 10 12 12 12 9 9 9 7 7 7 8 8 8 7 7 7 8 8 8 9 9 9 9 7 8 7 7 7 5 5 5 4 4 4 6 6 6 8 8 8 7 7 7 7 7 7 8 8 8 8 8 8 9 9 9 7 7 7 8 8 8 9 9 9 10 10 10 10 10 10 9 9 9 5 5 5 7 7 7 10 10 10 12 12 12 10 10 10 9 9 9 9 9 9 10 10 10 12 12 12 10 10 10 7 7 7 8 6 7 6 6 6 6 6 6 4 4 4 6 6 6 12 12 12 10 10 10 4 4 4 7 5 6 7 7 7 8 8 8 9 7 8 7 7 7 7 7 7 8 6 7 9 7 8 7 7 7 6 6 6 6 4 5 8 6 7 7 5 6 9 7 8 11 9 10 11 11 11 7 7 7 7 7 7 4 4 4 9 9 9 8 8 8 5 5 5 3 3 3 10 6 7 9 11 10 12 12 12 13 13 13 15 15 13 18 16 17 17 17 17 12 12 12 10 8 9 9 9 9 9 9 9 9 9 9 9 9 9 8 8 8 9 9 9 8 8 10 8 6 7 8 8 8 8 8 8 8 7 5 4 4 4 5 4 2 7 7 5 9 9 7 
