P3
100 50
255
13 15 12 14 13 11 13 13 13 87 83 74 98 92 80 98 33 31 98 10 9 98 10 9 98 9 11 97 11 12 96 10 11 94 13 12 95 15 14 99 19 20 98 18 19 100 16 16 97 15 17 97 15 17 95 14 13 97 13 11 96 12 12 95 14 11 99 15 15 97 16 15 99 15 15 97 13 13 98 86 74 96 86 74 94 86 73 95 15 14 95 5 5 94 8 7 96 10 11 95 61 52 98 89 82 98 88 78 99 87 75 97 53 44 97 16 15 97 11 12 95 11 11 99 11 9 97 11 12 97 11 10 97 8 10 96 10 11 97 11 10 96 18 16 93 88 69 94 10 10 92 6 7 93 9 9 95 7 6 95 9 8 97 8 10 96 10 9 96 12 12 96 15 14 96 62 52 96 91 71 94 91 72 98 51 43 96 10 11 97 11 12 95 40 35 97 90 74 98 94 82 97 97 85 98 94 82 96 74 63 94 16 14 94 13 12 98 14 12 97 11 12 98 90 79 98 17 16 100 16 16 95 14 11 93 13 14 95 13 15 97 15 17 94 14 13 97 13 13 98 14 12 97 13 11 98 9 11 96 8 7 96 11 8 98 12 11 101 12 14 97 42 37 98 92 78 97 90 72 94 66 52 97 8 10 97 11 10 95 21 18 94 82 66 97 82 63 93 85 66 
14 13 11 11 11 11 13 12 8 13 13 15 88 81 71 100 30 30 97 12 9 94 8 9 96 6 6 97 7 7 96 7 11 95 11 11 95 13 15 97 17 16 98 16 18 96 14 16 97 16 13 99 15 13 95 14 13 96 12 12 95 11 11 96 12 12 98 13 16 98 12 11 95 14 13 95 14 11 94 84 72 96 89 73 96 87 72 94 19 16 96 8 6 96 8 7 95 14 13 96 61 55 100 87 79 96 84 72 96 85 67 100 52 42 98 14 14 97 11 10 95 9 10 96 6 6 97 7 7 96 10 11 93 30 25 93 86 70 94 78 63 96 10 11 95 5 5 96 8 7 97 9 8 96 10 11 96 7 9 97 9 8 94 8 9 94 8 7 96 10 11 97 69 58 96 89 71 96 89 71 94 87 71 93 49 40 96 12 12 97 11 10 96 12 12 97 42 39 97 94 79 99 93 77 98 71 62 99 15 15 97 16 15 93 12 11 99 11 10 95 11 9 98 16 18 98 17 16 99 15 13 94 14 13 91 11 12 99 15 15 97 16 15 93 15 15 98 14 14 99 15 13 98 9 11 96 10 11 96 10 11 99 11 10 98 12 13 97 42 37 97 90 74 96 90 74 95 90 70 96 64 49 97 7 9 98 9 11 95 20 17 94 81 65 93 77 61 91 78 62 
10 10 10 10 10 8 9 13 12 12 10 11 21 22 17 23 17 17 80 12 13 96 8 7 97 5 6 96 6 5 96 8 7 95 9 10 97 13 13 97 47 38 96 78 64 97 79 65 97 57 49 99 14 17 98 33 31 95 77 63 96 78 64 97 79 67 97 68 60 99 13 14 94 13 12 94 14 13 96 86 76 96 90 78 95 89 73 93 79 66 95 25 25 98 9 11 97 14 10 99 21 19 99 60 53 95 81 70 97 52 47 97 19 17 96 12 12 96 10 11 96 8 7 96 4 5 97 5 6 96 10 9 93 12 11 93 30 25 94 76 64 95 9 10 95 7 6 95 7 6 95 77 63 97 75 64 95 76 62 95 75 64 94 18 18 94 8 9 97 8 10 97 16 13 96 62 52 96 83 67 94 82 68 96 47 42 96 12 12 95 11 9 97 11 12 96 15 14 97 44 38 98 70 59 98 18 17 96 10 9 97 13 13 96 12 12 97 11 12 95 11 11 98 12 13 98 14 14 96 15 14 95 14 13 94 13 12 99 13 14 97 17 16 95 17 17 97 68 62 98 83 76 98 81 73 97 79 69 96 45 41 98 12 13 99 13 14 98 41 34 97 88 71 97 90 72 94 87 69 94 65 51 97 7 7 97 7 7 93 9 9 94 19 16 91 15 15 92 18 17 
9 9 9 11 11 11 12 12 10 9 9 7 8 8 6 11 11 9 75 14 13 96 12 12 96 8 7 96 8 7 95 7 6 95 9 8 95 11 11 98 51 43 96 87 70 97 88 71 99 62 53 97 34 29 98 80 68 97 90 72 97 91 75 98 92 76 97 78 64 97 14 10 96 12 12 96 15 14 97 91 75 96 90 74 96 88 75 96 90 74 98 30 27 96 11 14 98 14 14 99 15 15 96 18 16 95 19 19 96 17 13 96 12 10 95 11 9 94 8 9 95 6 8 96 6 6 96 6 6 94 29 25 93 77 61 96 69 58 99 19 18 95 9 10 96 8 7 95 7 6 96 89 71 96 90 74 93 90 75 96 88 75 97 17 18 95 11 11 94 10 8 97 8 10 95 55 43 92 79 63 93 79 66 95 46 41 98 10 9 95 9 8 97 8 10 98 8 7 96 12 12 96 16 15 97 7 9 96 7 9 97 8 10 99 13 14 98 12 11 96 10 9 97 8 10 96 10 11 101 17 17 98 19 15 95 14 13 97 13 13 97 17 18 98 17 16 98 73 68 99 95 84 98 91 81 95 88 72 96 49 43 97 11 10 98 12 13 96 15 14 96 43 35 96 89 71 95 67 56 95 17 13 95 7 6 96 6 6 94 10 8 95 9 8 92 6 5 93 7 8 
10 8 9 12 12 12 11 11 9 10 8 11 7 7 7 10 10 10 76 14 15 99 13 14 97 9 8 96 6 6 96 8 7 93 43 32 95 79 63 96 83 66 95 86 69 68 64 52 24 19 16 46 32 29 98 88 76 98 90 77 98 89 74 98 89 74 96 77 63 97 13 13 94 13 12 97 11 12 97 19 19 96 16 15 96 78 68 94 29 25 95 15 16 95 15 16 41 15 14 25 13 15 68 12 11 94 12 14 96 12 12 95 9 10 96 8 7 96 8 7 96 8 7 96 6 6 96 25 21 94 75 60 95 88 69 96 93 74 97 70 59 96 10 9 94 8 9 94 8 7 96 88 75 97 90 74 96 92 80 97 88 79 95 77 65 96 25 23 97 11 12 94 8 9 94 10 10 93 15 13 93 15 13 93 12 11 96 7 9 97 9 8 97 9 7 96 8 7 67 7 7 40 6 5 96 6 6 97 9 8 97 11 10 96 14 16 97 13 13 99 10 12 95 81 68 96 83 66 99 81 69 101 83 73 99 82 72 94 23 21 97 13 13 97 16 15 43 23 22 29 28 24 73 67 55 93 87 71 93 49 38 98 12 11 96 10 9 95 10 7 94 10 10 96 18 16 97 19 15 95 6 8 94 8 7 97 9 8 97 8 10 95 9 10 92 8 6 18 6 6 
9 10 5 11 9 10 12 10 11 10 10 12 9 9 7 9 9 9 76 12 12 99 11 10 97 9 8 96 8 7 97 9 8 94 47 37 94 87 69 95 86 69 96 88 69 85 58 47 54 12 13 34 19 16 98 45 39 96 89 73 98 82 69 97 29 26 96 25 21 94 10 8 95 9 8 97 9 8 96 8 7 95 5 5 96 26 24 97 9 8 93 9 9 95 15 14 35 15 16 53 15 14 90 12 12 95 46 39 96 70 57 95 68 57 95 36 30 96 8 7 93 9 7 95 9 10 97 29 26 96 89 73 95 89 73 96 94 73 96 80 67 97 11 12 96 7 9 97 9 8 95 30 28 97 90 74 95 92 75 99 92 76 94 39 34 95 14 13 96 10 11 96 7 9 96 8 7 95 7 5 95 5 5 95 7 6 97 7 7 96 7 9 97 9 8 99 9 9 64 8 9 31 7 7 97 24 18 97 57 49 97 13 13 95 15 14 96 15 14 97 11 10 98 92 76 97 91 77 99 93 79 101 94 78 98 91 75 95 21 20 96 12 12 96 15 14 39 19 18 19 17 18 31 30 26 69 34 30 94 24 22 98 14 14 96 12 12 96 10 9 96 6 6 96 7 9 95 7 5 96 7 9 95 9 10 95 11 11 94 13 12 94 8 7 91 7 7 8 9 11 
9 9 9 8 6 7 9 9 9 12 12 10 11 11 11 10 10 10 75 56 49 98 22 22 96 6 6 96 7 9 96 10 9 95 48 38 93 86 67 93 85 66 95 67 53 96 22 19 85 13 14 81 13 12 96 16 15 95 30 26 95 25 23 92 11 8 97 9 8 95 9 8 95 9 8 95 9 8 97 9 8 96 6 6 98 6 9 96 8 6 94 9 6 98 14 14 82 16 17 92 14 14 94 13 12 94 60 50 95 88 70 94 84 72 96 74 61 95 49 36 96 12 10 96 12 12 97 30 24 96 87 70 96 89 73 97 90 74 95 79 64 97 13 13 96 8 6 95 7 6 34 13 12 35 32 27 86 33 29 96 31 27 97 9 8 97 7 7 98 8 10 97 9 8 95 9 8 95 6 8 95 7 6 95 7 6 96 8 6 95 9 8 97 8 10 96 8 7 86 11 8 78 24 22 95 76 62 98 86 72 96 66 58 95 15 16 96 15 14 97 11 12 97 34 29 96 93 78 100 94 78 97 92 73 95 86 71 97 19 17 97 11 10 96 16 17 82 18 18 76 18 17 77 16 15 93 17 19 98 16 18 97 17 16 95 15 14 95 11 9 95 7 6 94 6 5 96 6 6 93 7 6 96 7 9 94 10 10 92 11 10 96 10 11 91 7 5 68 52 37 
10 10 10 9 7 8 11 9 10 12 11 9 9 9 11 10 10 10 24 24 22 31 13 11 68 8 7 93 9 9 92 11 8 94 47 39 95 84 64 95 84 64 96 75 58 95 67 55 95 51 40 96 12 12 96 12 10 94 13 12 93 12 11 92 11 10 98 8 10 94 10 8 94 13 12 96 10 11 97 8 10 96 7 9 96 58 55 96 69 62 96 66 58 97 26 24 95 14 13 97 12 15 94 13 12 96 59 50 95 88 72 95 88 72 95 88 72 96 59 50 97 13 11 97 11 12 95 15 14 94 44 37 97 88 73 95 83 69 95 25 23 97 11 12 97 11 12 96 10 9 12 12 12 74 13 12 98 12 11 95 11 9 93 9 7 94 10 10 97 9 8 96 6 6 96 7 9 93 7 8 96 46 37 95 73 60 95 71 61 95 40 37 97 9 7 97 9 8 95 30 26 98 76 63 98 92 76 96 92 80 98 81 71 96 17 13 99 15 15 94 13 10 97 13 13 98 90 77 94 88 72 96 89 71 97 39 35 96 12 12 97 13 13 97 16 15 99 19 18 97 19 17 94 19 16 97 17 18 99 17 19 97 17 18 96 16 15 96 12 12 93 7 6 94 4 3 93 20 14 96 70 57 94 50 39 92 6 5 96 10 9 94 10 10 86 6 7 89 68 51 
11 10 8 10 12 11 12 10 11 10 10 10 11 11 11 10 10 8 8 8 8 8 8 8 29 7 9 73 9 10 95 11 11 95 24 22 94 37 28 95 61 49 96 85 65 93 67 50 95 32 27 94 13 12 93 12 9 95 11 11 96 12 12 95 11 11 93 7 8 97 11 10 96 15 14 98 14 14 95 9 8 95 55 47 95 87 76 96 90 78 94 85 70 95 27 24 95 9 10 91 9 11 96 10 13 97 59 50 95 89 73 94 88 72 96 90 74 98 61 52 98 14 14 97 13 11 99 10 12 96 17 13 97 39 35 96 35 32 97 11 12 96 12 12 97 13 11 94 10 10 62 58 46 96 59 50 97 17 16 96 12 10 96 10 11 94 8 11 93 9 7 96 8 7 96 8 7 94 8 11 96 62 52 97 96 78 98 94 82 96 51 45 98 9 11 99 10 12 96 41 36 96 90 76 99 93 79 97 93 81 99 81 69 98 14 14 97 13 13 98 17 16 98 18 17 98 43 40 93 84 69 97 44 38 97 17 18 95 14 13 95 14 13 95 14 11 100 16 16 97 17 18 96 20 20 99 44 39 97 63 53 98 39 33 97 16 15 97 13 13 95 6 8 95 26 21 95 61 51 94 89 70 93 64 50 92 6 5 96 7 9 93 7 6 86 7 10 94 75 58 
11 11 9 10 10 10 12 10 11 10 8 9 9 9 9 9 9 9 9 7 10 7 7 5 7 7 7 63 7 8 96 10 9 96 12 10 94 10 10 95 46 39 95 84 66 93 57 43 96 12 12 95 11 11 96 10 11 96 10 11 96 17 13 96 58 47 96 59 50 94 57 49 98 12 11 95 14 13 97 9 8 97 81 68 96 90 74 96 87 70 94 82 68 93 63 53 93 17 17 93 9 9 97 11 12 97 60 51 96 88 77 95 89 73 95 65 55 97 30 24 97 11 10 97 11 10 96 12 12 99 11 10 97 11 12 97 13 13 98 15 11 96 12 12 97 13 13 95 11 11 95 83 67 97 85 73 96 63 54 95 59 47 96 59 50 97 60 52 98 20 20 94 8 9 95 9 10 95 10 7 95 61 49 96 93 78 97 93 81 97 77 68 99 44 41 97 13 11 96 20 20 94 44 37 97 60 51 95 92 77 95 81 70 97 13 11 99 10 12 98 14 12 97 17 16 95 13 15 94 41 35 95 15 16 95 11 11 95 11 9 96 11 14 94 13 12 96 12 12 95 17 15 94 44 37 96 80 65 96 89 73 96 51 45 96 15 14 96 15 14 96 8 7 94 35 27 94 87 69 96 90 74 94 77 59 92 50 38 95 7 6 94 8 11 90 9 8 96 37 31 
63 9 9 9 9 9 11 9 10 10 10 10 8 10 9 9 9 9 9 8 6 6 4 5 8 6 7 62 8 6 94 8 7 96 10 11 95 9 8 96 46 37 94 83 65 94 56 45 97 8 10 96 12 10 95 11 9 95 24 20 96 62 53 95 88 72 96 93 76 95 87 74 94 53 49 94 13 12 96 10 11 96 35 32 94 81 65 93 77 62 95 79 66 94 86 73 94 66 54 93 57 43 96 62 52 98 81 71 96 90 78 95 67 56 96 25 23 98 9 11 98 10 9 97 8 10 97 11 10 96 12 12 96 12 12 96 12 12 97 13 11 99 15 13 98 14 14 95 11 11 96 39 32 96 87 72 96 87 70 93 86 67 94 88 72 97 91 79 95 30 28 96 11 8 95 11 11 95 11 11 94 60 51 96 90 78 98 91 81 97 68 60 97 33 31 96 12 12 96 15 14 95 15 16 96 21 18 96 43 37 95 37 33 93 11 13 97 11 10 96 12 12 98 14 14 96 16 15 97 16 15 95 14 13 95 9 10 95 9 10 95 9 10 95 9 10 96 12 12 97 12 15 95 58 49 97 89 76 96 90 74 97 75 64 97 37 36 97 13 11 95 9 8 95 15 14 95 51 42 96 87 70 95 67 55 95 32 27 93 7 6 95 9 8 97 11 12 95 7 6 
95 9 8 53 12 10 17 11 11 12 10 13 9 9 9 8 8 8 8 8 10 7 7 7 7 7 7 62 8 6 94 8 7 94 10 8 95 27 24 95 65 54 95 83 67 97 69 57 94 33 28 96 12 10 94 13 12 96 28 25 96 84 68 95 88 72 97 94 77 96 89 79 91 79 65 92 14 14 93 11 13 98 10 9 91 41 34 87 67 56 91 48 41 96 47 42 94 76 62 93 86 68 96 90 74 95 92 77 97 91 75 96 70 57 96 31 27 97 13 11 98 8 8 97 7 9 96 10 9 97 13 13 95 14 11 97 17 16 96 52 43 97 50 44 99 17 19 97 13 13 96 10 9 94 84 72 94 83 65 94 86 67 93 90 73 94 90 78 94 59 53 96 21 18 95 11 11 92 11 10 94 35 31 97 50 44 96 51 46 101 31 29 97 13 13 96 15 14 97 16 15 97 17 16 97 16 15 98 12 13 98 12 11 94 16 16 95 45 38 95 11 11 96 12 12 97 16 15 95 15 14 97 47 40 97 50 42 95 48 40 95 20 17 95 9 8 96 12 12 96 11 14 96 58 49 96 90 76 97 91 75 98 72 59 97 32 28 95 14 11 94 8 7 76 4 7 62 14 12 96 46 39 95 34 31 95 6 8 94 8 9 93 9 7 96 11 8 95 7 6 
95 11 11 97 11 12 58 12 12 53 11 12 15 9 9 8 8 8 7 7 7 5 7 4 7 7 7 33 7 6 78 8 8 93 9 9 95 46 39 96 84 68 95 86 69 94 86 67 95 55 43 96 10 9 95 11 11 96 29 23 96 85 65 93 88 69 97 91 77 95 93 81 49 45 36 50 12 11 93 12 11 95 9 10 91 38 32 87 69 55 93 20 14 97 6 5 96 41 34 95 52 45 95 51 42 96 51 45 98 71 60 98 91 75 96 52 41 97 13 13 79 9 9 51 7 6 64 10 8 96 11 14 92 21 19 93 53 41 97 92 73 97 89 76 99 58 52 97 16 15 96 10 9 94 45 38 92 75 59 96 85 67 96 89 70 95 89 75 94 60 51 96 20 20 71 11 11 80 12 11 95 11 9 95 11 11 97 11 10 96 12 12 97 13 11 97 13 13 97 16 15 96 16 15 97 16 13 97 11 12 98 12 13 97 22 19 94 82 68 97 49 39 55 11 12 54 12 13 97 52 46 98 85 69 98 91 73 93 88 69 94 31 26 95 9 8 93 9 9 92 11 10 95 59 47 96 90 74 98 92 76 97 53 44 98 14 14 96 12 12 78 10 9 33 4 6 16 4 4 61 5 6 95 7 6 94 8 9 93 9 9 94 8 9 96 8 7 94 6 5 
95 11 11 95 10 13 94 13 12 94 13 12 19 9 8 8 8 8 9 9 9 5 5 7 6 6 6 8 8 6 64 10 10 96 7 9 95 47 37 94 85 68 95 88 69 94 87 68 94 68 53 95 35 27 94 8 7 95 20 15 96 48 36 92 47 41 95 50 45 99 52 46 10 10 10 9 9 9 96 10 9 96 7 9 91 72 58 89 80 63 94 51 42 94 47 37 96 52 43 97 28 23 97 9 8 98 10 9 97 50 44 96 91 72 97 71 58 95 52 43 78 34 31 37 9 8 21 11 10 65 13 15 93 28 24 94 87 69 96 90 74 99 93 77 99 93 79 97 19 19 95 11 11 96 7 9 93 38 33 94 81 62 95 89 67 95 58 49 97 19 17 96 10 11 69 13 14 81 13 14 97 13 13 96 10 9 95 11 9 97 11 12 97 13 13 97 16 15 96 16 15 97 13 13 98 23 20 98 51 43 97 52 46 98 58 50 95 89 73 94 87 68 11 13 12 13 11 12 55 51 40 94 85 70 97 92 73 95 88 70 94 31 24 96 10 11 94 13 12 94 13 10 95 36 30 96 51 46 97 54 47 99 36 31 98 14 14 98 12 13 64 10 10 7 7 5 17 3 3 61 5 4 95 7 6 98 10 9 95 11 11 95 11 11 95 7 6 95 5 7 
96 39 32 94 12 14 97 13 11 95 11 9 48 10 9 39 35 26 13 11 12 6 6 6 7 7 5 30 8 10 75 9 11 94 8 9 96 47 40 95 87 68 94 87 69 96 88 69 95 74 57 93 43 34 95 9 12 97 9 8 93 9 7 95 11 11 97 11 12 98 10 9 40 9 7 40 9 7 97 9 8 95 6 8 94 51 42 92 76 60 96 85 67 95 92 73 96 91 72 95 59 45 96 16 15 95 6 8 97 48 41 96 91 72 97 90 74 98 91 75 94 60 48 73 9 9 42 11 9 55 13 14 93 32 27 95 86 71 97 89 76 97 87 77 96 66 55 97 17 16 96 10 11 94 8 7 93 5 4 94 52 40 95 59 47 96 21 18 96 8 7 97 11 12 98 14 14 96 15 14 96 12 10 94 8 7 96 27 22 95 42 36 97 34 29 95 14 13 99 15 15 97 13 11 100 32 29 97 91 77 98 92 80 99 93 79 96 89 73 93 86 67 45 13 14 44 12 13 44 14 14 91 79 65 96 93 74 96 87 72 95 32 27 96 12 12 95 14 13 94 14 15 96 15 14 95 15 14 95 15 14 99 15 15 99 15 15 99 11 10 73 9 9 39 5 4 49 5 4 97 6 5 96 17 13 97 40 33 95 36 28 94 10 10 96 8 7 94 6 5 
96 83 67 94 40 30 94 16 14 95 11 11 95 9 12 94 71 55 57 55 43 40 37 30 41 36 30 73 18 15 94 8 7 96 8 7 95 32 27 95 58 42 96 58 47 95 57 46 96 37 31 94 8 9 95 9 8 95 9 10 93 7 8 94 10 8 96 12 12 95 11 11 94 9 12 95 9 10 96 8 7 95 9 8 94 8 7 92 70 56 95 86 69 97 94 77 97 91 75 96 90 76 94 36 32 95 25 23 94 62 51 95 89 73 94 91 74 98 91 75 97 60 51 95 11 9 96 12 12 95 15 14 98 23 20 96 60 48 96 59 50 98 57 51 95 15 14 96 16 15 95 11 9 92 6 5 94 6 4 94 5 7 92 7 4 94 6 4 94 8 9 94 13 12 96 16 15 98 17 16 97 13 13 96 25 21 98 66 55 97 91 75 96 69 58 94 31 26 97 13 11 99 13 12 97 32 28 98 90 77 97 93 81 97 91 79 94 83 65 95 59 47 96 15 14 96 12 12 102 13 15 97 56 50 98 62 50 96 59 51 94 26 25 98 14 14 96 16 15 97 16 15 98 13 16 95 15 14 95 13 15 96 16 15 97 16 15 97 11 10 95 6 8 94 6 5 93 3 3 94 15 11 95 47 35 93 88 68 96 79 61 95 9 8 95 9 8 95 7 6 
96 83 64 94 81 62 94 20 17 94 10 10 93 12 11 95 68 57 97 89 68 95 87 68 95 67 53 95 28 22 94 8 9 94 8 9 95 7 6 94 8 9 95 11 11 94 8 9 93 7 8 95 7 6 95 7 6 95 9 10 96 7 9 96 10 9 97 19 17 95 40 37 96 38 34 95 11 9 95 11 11 98 9 11 95 9 10 93 74 60 95 92 75 96 94 79 99 93 79 97 91 79 94 36 32 94 57 48 95 87 74 95 88 70 96 91 72 97 90 72 97 60 51 97 11 10 97 11 10 96 10 11 94 13 12 96 10 11 96 7 9 98 10 9 97 13 11 95 14 13 94 10 10 91 7 7 92 7 4 95 5 5 92 7 2 94 34 26 95 38 31 95 15 16 96 16 15 99 15 15 97 11 10 97 50 44 97 91 79 98 91 75 95 86 69 94 60 48 96 10 11 95 9 10 99 19 20 96 62 53 98 68 60 95 81 68 94 51 42 95 11 11 96 12 12 97 11 12 97 13 13 97 13 13 96 12 10 94 13 12 93 12 11 96 15 14 98 17 16 97 15 17 97 13 13 95 11 11 95 26 21 97 42 35 97 42 37 98 30 27 94 9 6 93 5 4 94 4 4 94 24 22 95 86 69 95 86 69 95 79 63 96 10 9 94 6 5 95 7 6 
95 84 64 93 80 61 95 21 18 95 11 11 94 13 12 95 55 47 97 67 56 94 68 53 94 31 24 95 9 8 94 8 7 95 7 6 94 8 9 95 7 6 93 7 8 95 7 6 95 7 6 95 7 6 93 7 8 93 9 9 96 12 12 96 12 12 96 43 39 97 89 78 96 88 75 95 32 27 97 11 10 98 9 11 95 9 10 95 77 65 98 92 76 96 94 82 99 93 79 97 80 70 94 26 23 95 48 40 95 67 55 95 69 56 96 68 54 97 68 54 96 46 37 97 11 12 95 9 8 94 8 7 92 11 10 93 12 11 96 10 9 98 30 27 97 32 28 98 12 13 91 11 10 92 8 6 96 6 6 95 5 7 95 21 18 96 74 60 96 91 72 95 44 40 96 22 19 98 12 11 98 10 9 97 50 44 97 91 79 97 90 74 97 88 73 97 60 51 97 11 12 96 10 11 97 9 8 96 10 11 96 22 19 96 58 49 95 11 11 97 8 10 94 10 10 96 11 14 98 12 13 97 11 10 95 11 11 96 12 12 95 11 11 97 13 13 99 17 19 98 17 16 97 9 8 97 17 16 96 58 49 96 89 73 98 90 77 96 66 56 95 24 22 93 7 6 96 6 6 94 27 19 96 85 67 93 86 68 94 76 62 98 10 9 96 11 8 95 6 8 
72 64 51 95 63 50 94 16 14 94 13 12 98 14 14 95 14 13 96 12 12 93 12 11 95 11 11 95 9 10 94 8 9 96 7 9 93 9 7 95 7 6 94 10 10 94 26 23 97 27 25 97 22 17 93 9 7 95 9 10 97 11 10 96 20 20 95 86 71 96 87 72 95 89 73 96 90 76 99 31 28 95 13 15 90 10 9 95 67 55 96 86 74 95 91 79 96 77 63 95 27 24 95 7 6 95 7 6 95 7 6 96 10 13 96 11 8 95 11 11 96 12 12 96 11 16 99 11 10 95 9 10 92 11 10 92 12 13 98 40 36 97 90 74 97 91 77 94 31 26 95 10 13 97 11 12 95 9 8 92 6 5 95 77 63 95 88 72 97 91 77 96 94 79 95 40 35 95 9 8 96 10 11 94 39 34 95 67 56 95 67 55 97 69 57 97 47 38 97 13 11 97 11 10 97 9 8 98 12 11 97 11 12 96 12 12 97 13 13 95 10 13 91 11 10 95 11 11 97 11 10 96 7 9 94 8 7 96 25 23 94 30 28 97 33 31 98 22 22 97 11 12 96 7 9 96 56 48 94 85 68 97 90 74 96 92 80 96 92 80 95 61 51 94 8 7 94 8 7 95 28 22 96 84 68 94 87 69 95 77 63 96 10 9 96 12 10 93 9 7 
11 11 11 75 11 12 90 12 12 96 12 12 95 14 13 94 14 13 97 13 13 93 12 9 94 10 10 94 8 9 95 9 8 96 7 9 94 8 9 95 6 8 94 36 32 94 87 69 95 86 71 96 72 60 96 27 22 96 12 12 97 13 13 95 20 15 94 85 68 97 90 72 95 92 75 98 92 78 100 72 69 92 14 12 91 11 12 98 12 11 95 55 47 95 68 59 80 22 18 85 7 7 95 7 6 97 7 7 95 9 8 94 10 8 95 11 11 95 11 11 96 10 9 97 13 13 96 15 14 96 12 12 91 9 11 91 20 18 96 89 73 97 91 75 97 91 77 94 86 75 95 30 28 95 11 11 94 10 10 95 7 6 93 75 61 92 89 74 96 92 81 98 80 68 97 29 26 97 11 10 96 12 10 96 10 9 93 9 9 93 9 9 94 10 10 96 10 9 98 12 11 100 11 13 96 10 11 96 8 7 96 10 9 96 12 12 98 14 14 96 18 16 94 14 15 95 11 11 95 9 8 93 7 8 94 23 19 95 81 68 94 86 73 96 93 78 98 34 32 97 11 10 96 6 6 93 55 44 96 87 70 96 91 72 97 94 79 96 86 74 95 45 38 96 10 11 96 10 11 95 24 20 94 66 52 94 66 54 95 58 49 96 10 11 95 14 13 94 8 7 
11 11 11 12 12 12 82 10 11 97 11 12 93 12 9 96 12 12 93 12 11 93 22 18 94 19 16 93 18 15 93 13 12 96 7 9 95 7 6 94 6 5 93 36 29 94 87 69 89 84 65 88 79 64 95 69 56 95 14 13 98 12 11 95 20 15 94 74 63 94 78 63 98 78 67 96 82 71 96 8 7 93 7 6 95 9 10 95 9 8 95 9 10 84 8 8 28 7 6 57 8 4 91 6 9 97 7 7 94 8 7 96 10 9 93 12 11 95 15 14 95 21 18 96 24 25 98 24 23 97 16 15 95 9 10 96 18 18 95 88 70 98 92 76 97 90 74 84 75 66 85 77 66 95 11 11 91 11 10 96 8 7 93 63 53 94 76 64 96 82 71 96 31 27 97 11 10 95 11 11 95 11 11 96 12 10 95 9 10 93 11 13 94 10 10 90 9 8 86 12 11 93 14 10 99 10 12 93 7 10 94 8 9 95 19 19 95 24 22 97 26 24 97 23 22 95 11 11 97 9 8 94 8 9 94 77 61 96 89 71 96 91 72 99 91 78 97 36 31 96 10 11 96 6 6 95 50 44 94 81 62 97 90 72 97 93 81 97 63 54 96 10 9 98 10 9 95 11 9 91 11 10 93 9 9 96 6 6 95 6 8 98 8 8 95 9 10 94 8 9 
12 11 9 11 11 11 86 12 13 93 11 15 96 12 12 95 11 11 94 13 12 95 65 54 96 83 66 95 89 67 95 42 36 93 12 9 95 7 5 94 8 7 95 36 30 96 83 67 66 62 50 34 13 12 95 11 11 95 14 13 96 10 9 96 10 9 93 12 11 93 13 14 98 14 12 95 9 8 92 6 7 93 7 6 95 9 10 96 10 11 97 9 8 42 18 18 20 19 15 19 18 16 67 19 15 95 14 11 96 10 9 96 12 10 94 16 16 93 46 40 97 91 75 95 92 77 95 75 64 99 25 24 95 11 9 94 16 14 96 78 64 94 87 71 95 89 75 17 17 15 9 7 10 97 8 12 94 8 9 98 10 9 92 6 5 94 8 7 97 11 10 99 10 12 96 12 12 96 10 11 96 11 14 96 12 12 96 12 12 95 13 15 93 12 11 62 6 9 13 9 8 37 9 8 91 10 9 93 9 9 93 18 15 92 85 67 94 91 72 94 86 67 94 81 62 95 10 13 97 9 8 94 10 8 96 79 63 98 91 75 96 90 76 96 90 74 97 36 33 91 11 10 89 8 7 95 6 8 93 43 34 97 79 67 98 81 73 95 54 48 97 8 10 94 10 8 95 11 9 94 10 10 92 11 10 96 7 9 96 8 7 96 7 9 94 10 8 94 8 9 
14 12 13 24 20 19 83 19 19 94 13 12 94 13 12 96 12 12 95 11 9 98 68 58 97 90 74 97 91 75 94 86 73 92 47 41 94 8 7 96 10 11 97 11 12 95 34 31 95 77 63 93 63 52 95 11 11 97 13 13 96 10 11 97 9 8 94 10 10 96 14 16 98 12 15 95 9 10 93 7 8 94 5 7 95 9 10 95 11 11 96 10 11 98 71 64 96 90 78 95 88 72 94 87 71 95 38 31 94 10 8 95 10 13 92 47 41 97 83 72 96 93 78 96 94 81 96 78 66 98 28 28 97 13 13 97 9 8 95 24 20 95 76 62 94 76 64 94 78 65 19 7 7 93 7 8 95 9 10 95 11 11 95 11 9 95 9 8 96 12 12 96 10 11 97 13 13 97 13 13 95 14 13 95 11 11 95 9 8 94 14 13 94 19 16 66 16 15 46 10 10 99 8 7 98 10 9 94 8 9 93 18 15 93 86 70 93 92 74 95 88 70 92 79 62 94 10 10 95 10 13 99 10 12 94 71 63 97 79 69 96 78 66 97 79 67 98 35 30 48 14 13 68 8 8 97 7 7 94 8 9 97 11 12 98 12 13 98 10 9 96 10 9 94 10 10 96 8 7 94 8 9 95 13 15 96 18 16 95 15 14 93 22 16 92 21 19 95 9 10 
14 12 13 95 79 64 97 81 66 94 23 19 94 13 10 94 12 14 96 12 12 99 70 62 97 93 81 97 94 79 95 89 75 94 47 39 94 8 9 97 8 10 94 8 9 95 9 10 94 8 7 96 8 7 95 14 11 93 13 12 95 9 12 97 9 8 96 10 11 95 13 15 96 12 12 93 12 11 93 8 5 94 6 5 94 8 9 96 10 11 98 9 11 99 72 63 94 90 79 95 89 75 95 88 72 96 39 30 96 10 9 93 12 11 93 48 42 94 86 73 97 95 80 96 94 79 98 90 77 99 70 62 97 15 17 94 13 12 96 15 14 95 11 11 95 11 9 93 9 7 96 6 6 94 4 4 98 6 9 95 11 9 97 11 12 97 8 10 95 10 13 94 13 12 97 13 13 97 13 11 97 13 11 96 10 11 94 8 7 95 45 36 92 84 65 96 87 70 97 57 49 97 7 9 95 9 10 94 8 7 93 18 15 95 86 71 96 90 74 97 88 73 93 81 67 91 11 10 96 12 12 95 11 9 93 12 11 93 13 12 97 13 13 96 15 14 98 17 16 100 16 16 96 10 9 95 7 6 92 6 5 95 9 10 96 10 11 95 11 11 97 11 10 96 8 7 95 7 6 96 10 11 93 28 22 94 82 66 95 82 66 93 84 67 94 88 72 93 12 9 
95 79 64 92 80 64 97 84 67 98 24 23 96 15 14 95 14 13 98 14 14 97 72 65 97 93 81 94 92 77 95 90 71 95 48 38 95 7 6 94 8 7 92 11 10 93 9 7 94 10 8 95 10 13 96 12 12 95 14 13 97 13 13 94 10 10 95 11 11 98 12 13 98 12 11 94 82 68 94 85 70 96 89 71 96 88 75 97 89 78 95 91 79 96 94 79 94 92 77 93 91 76 93 89 77 96 87 72 93 49 40 91 10 9 94 50 41 95 88 72 98 95 78 96 93 78 98 92 78 95 76 62 94 18 18 94 15 18 96 15 14 95 14 13 95 10 13 95 11 11 97 9 8 95 6 8 97 8 10 95 11 11 97 16 15 96 12 10 95 9 10 93 12 11 96 12 12 98 12 13 98 12 13 98 10 9 92 45 37 91 85 61 93 85 62 94 89 69 94 89 70 95 69 56 97 8 10 93 7 8 95 7 6 96 18 14 92 87 68 94 92 69 93 7 8 90 10 11 92 10 12 93 12 9 93 13 12 97 11 12 98 9 11 96 11 14 95 17 17 96 16 17 95 11 11 96 8 7 96 8 7 95 9 8 96 52 43 99 93 79 97 60 52 94 6 5 96 8 6 95 11 11 93 28 22 92 81 61 95 88 69 97 92 72 94 87 69 97 16 15 
92 79 62 94 83 65 98 86 72 97 27 25 95 15 16 97 13 11 98 14 14 96 15 14 98 14 14 94 13 12 94 10 10 94 8 9 93 9 7 93 9 9 94 8 9 92 11 10 93 11 13 93 12 11 95 11 11 98 12 13 96 12 12 95 9 8 96 13 9 94 13 10 95 81 68 94 85 70 94 91 74 95 89 73 96 90 74 97 91 77 93 32 29 94 72 59 95 92 77 98 92 78 97 89 76 95 83 67 91 44 36 89 44 38 93 86 70 97 60 51 95 11 11 96 12 12 96 12 10 95 14 13 95 19 19 97 17 20 93 13 12 93 15 15 91 12 15 93 13 12 98 10 9 98 8 8 97 7 6 97 11 10 97 15 19 97 13 13 92 59 50 94 82 66 95 88 70 96 44 33 97 13 13 98 9 11 90 8 10 92 46 33 95 84 64 96 87 70 92 85 69 92 64 52 98 6 7 97 6 5 96 6 6 96 6 5 93 3 3 95 3 4 97 7 7 93 8 11 92 14 12 94 14 13 93 15 15 95 11 11 98 7 6 95 11 9 95 15 14 94 16 12 97 11 12 96 10 11 94 10 10 96 52 43 97 94 75 96 93 76 94 91 74 94 58 46 95 7 6 91 10 9 92 14 14 93 22 20 94 89 69 98 93 74 96 87 70 96 16 17 
94 81 64 94 80 67 98 86 74 95 24 18 93 15 13 95 14 11 99 13 14 97 13 11 96 15 14 95 14 13 95 11 11 93 9 9 93 7 6 95 9 8 95 10 13 93 12 11 93 40 34 96 89 73 94 90 79 96 69 62 96 8 7 96 10 11 96 14 16 92 12 11 90 80 68 98 91 75 96 92 80 95 89 75 96 22 19 96 12 12 95 11 11 93 12 11 95 10 7 96 61 55 94 84 74 91 35 34 89 42 34 92 80 64 93 46 38 97 8 10 96 7 9 97 11 12 97 13 13 95 14 13 98 20 20 97 18 21 89 13 15 87 11 11 93 9 9 92 76 60 94 87 71 99 96 81 96 18 18 95 9 8 94 10 8 95 11 9 95 63 52 94 82 68 95 88 70 96 43 37 99 15 15 96 12 10 94 10 10 93 45 35 93 80 64 97 83 70 96 57 50 94 9 12 97 7 9 96 8 7 93 7 8 93 9 7 95 7 6 94 6 4 94 6 5 95 11 11 95 13 15 97 16 15 94 16 16 96 11 14 95 9 8 92 60 47 92 83 66 95 42 36 98 12 13 96 10 9 96 12 10 97 52 46 54 51 44 7 7 7 7 5 6 43 9 8 92 8 6 93 9 9 90 10 9 91 20 18 94 88 66 98 91 75 96 88 75 96 15 14 
95 21 20 95 21 20 98 20 20 96 12 12 93 13 12 95 11 11 97 12 15 98 14 14 97 13 13 96 12 10 94 10 8 92 8 6 93 9 9 94 10 10 96 12 10 96 12 10 93 39 37 95 86 71 93 92 74 96 90 76 97 70 61 98 12 13 96 15 14 95 11 11 93 84 69 18 19 14 96 88 77 94 30 28 97 11 12 97 11 12 96 12 12 94 10 8 98 10 9 94 13 12 90 20 20 90 16 15 94 16 16 92 18 17 93 12 11 93 7 6 95 9 8 98 10 9 97 11 10 96 16 17 98 20 18 95 17 17 92 14 14 91 20 18 94 73 56 92 80 64 93 90 75 97 95 82 97 19 17 96 8 7 93 7 6 94 8 7 96 66 56 94 85 70 96 89 73 98 43 36 96 12 12 96 10 9 94 8 9 94 13 12 94 18 18 94 20 17 96 15 12 95 10 7 95 6 8 92 8 6 91 7 7 93 7 6 97 6 5 92 6 5 94 8 9 97 13 13 96 14 16 96 16 15 94 14 15 93 13 12 94 57 48 90 73 57 94 87 71 94 86 73 97 36 33 97 11 12 95 14 11 97 17 16 51 11 11 6 4 5 7 7 7 39 8 6 95 11 11 95 9 8 95 9 12 92 10 12 94 23 21 98 23 20 96 22 19 97 13 13 
93 13 12 95 14 13 96 12 12 94 10 10 92 11 10 94 10 10 96 12 12 97 13 13 48 12 12 67 48 41 93 65 53 93 67 52 93 38 31 97 11 12 97 13 13 97 13 13 95 40 35 96 84 70 95 90 71 95 90 71 95 79 64 95 14 13 95 15 14 99 13 14 23 22 18 11 11 9 21 21 19 86 12 13 97 13 11 97 13 11 93 12 11 95 10 7 93 9 9 87 9 9 91 13 13 95 14 13 94 13 12 94 10 10 93 9 9 92 8 6 94 8 7 98 35 30 98 80 66 97 79 65 96 62 52 95 17 17 97 19 17 94 23 21 94 82 66 94 87 68 95 92 77 94 92 79 97 19 17 95 7 6 94 6 4 93 9 9 96 17 13 97 23 22 97 23 20 97 17 16 96 7 9 95 9 8 96 10 9 97 8 10 96 10 11 95 11 9 94 8 7 96 8 6 95 7 6 92 6 7 89 8 7 95 6 8 97 18 14 95 76 62 95 73 59 95 76 61 95 79 66 98 22 22 90 15 10 94 14 15 94 62 49 94 82 66 96 90 78 95 92 77 96 41 38 97 11 12 97 13 11 96 10 9 90 6 6 55 5 4 6 6 6 13 9 6 45 11 10 96 10 9 94 10 10 93 11 13 93 13 12 97 12 15 96 12 10 96 12 12 
93 11 13 93 13 12 94 70 58 93 76 60 94 18 18 36 10 9 25 15 16 23 13 14 16 10 10 14 14 12 66 56 44 95 80 61 94 46 36 95 11 11 96 12 12 96 15 14 97 42 35 97 85 71 97 89 70 95 88 72 96 80 67 96 14 16 97 15 17 96 16 15 16 16 16 13 13 13 12 10 13 85 11 12 97 13 13 96 15 14 94 13 10 94 10 10 89 9 8 89 11 11 94 54 46 96 78 66 95 46 39 96 12 10 95 9 10 94 8 9 95 36 32 71 62 53 43 40 33 96 87 72 96 69 58 96 16 17 97 19 17 97 15 17 92 21 19 95 93 80 94 92 79 93 85 74 93 18 15 92 6 7 92 6 7 94 9 12 97 11 12 42 16 19 25 15 14 69 11 10 94 10 10 95 11 11 96 12 10 96 12 12 95 9 10 94 10 8 94 8 7 94 8 7 95 7 6 96 8 7 96 8 7 96 7 9 95 20 17 94 87 69 95 83 69 25 24 22 95 88 72 97 23 22 89 14 11 85 13 14 93 17 17 99 76 70 99 93 81 97 46 42 99 19 18 98 14 14 97 11 10 95 9 8 92 6 5 88 6 8 86 8 8 58 8 11 31 11 10 96 12 10 94 10 8 93 12 11 94 13 12 95 11 11 96 10 9 96 12 12 
93 11 13 93 12 8 95 76 62 95 83 67 41 17 15 17 11 11 14 14 14 13 13 13 10 10 8 8 8 8 24 20 17 62 56 44 94 47 39 94 8 11 97 13 13 96 16 17 95 27 24 93 36 29 94 33 28 96 33 28 97 27 25 97 16 15 96 16 15 98 17 14 19 17 20 16 16 16 76 12 12 96 12 12 94 12 14 96 14 16 97 11 10 95 11 9 91 10 9 93 46 38 97 83 72 98 89 80 96 79 69 96 41 38 96 10 11 97 11 12 96 41 38 86 83 68 81 75 63 93 86 70 96 70 57 96 16 15 98 18 17 95 17 15 94 13 12 98 31 25 94 29 25 90 26 24 94 8 9 93 7 8 94 8 7 96 12 10 99 13 12 35 15 14 14 14 14 63 12 11 96 10 11 95 13 15 96 12 12 93 12 11 95 9 10 97 29 26 95 68 59 94 67 58 93 50 43 92 8 8 98 10 9 96 12 10 96 22 21 95 87 68 95 86 69 15 15 15 95 89 75 99 24 21 91 17 16 85 13 14 92 14 14 100 30 28 98 35 30 96 18 18 97 16 15 97 13 13 97 11 10 95 9 10 93 9 9 95 11 11 93 12 11 83 30 26 79 52 41 96 12 12 96 14 16 93 13 12 95 15 14 92 64 50 98 72 57 96 72 60 
99 10 12 30 10 9 31 27 24 30 26 23 9 9 11 11 11 11 13 9 8 10 10 10 9 10 5 8 8 8 8 6 7 51 47 36 95 49 36 94 10 10 95 14 13 96 18 18 94 18 20 96 18 18 95 15 16 97 13 13 96 12 10 97 13 13 98 12 15 96 15 14 78 16 17 16 16 16 99 14 17 96 16 15 95 13 15 98 12 13 97 11 14 95 11 9 95 11 11 98 61 52 95 92 77 95 92 77 95 89 77 95 47 43 95 11 11 96 12 12 97 22 19 95 48 40 95 86 71 95 71 59 96 25 23 94 13 12 96 16 15 96 16 17 93 13 12 95 9 8 95 7 6 92 8 8 95 7 6 97 9 8 97 9 8 97 13 13 94 13 12 81 13 14 74 13 12 91 11 10 95 11 11 91 11 14 94 9 12 93 7 8 94 8 7 94 39 36 94 90 78 96 89 73 94 80 67 92 54 45 97 12 9 97 12 15 95 17 17 96 33 28 96 90 74 73 69 57 95 88 72 97 23 22 93 15 15 87 13 12 93 13 14 98 17 16 99 18 17 98 17 16 98 14 14 98 9 13 97 11 12 96 10 9 95 9 8 94 10 10 93 30 23 95 73 59 95 66 52 96 8 7 93 13 14 94 13 12 94 20 17 93 85 66 94 89 70 92 95 76 
31 11 12 10 10 8 9 9 9 9 10 12 11 9 10 10 10 12 9 9 9 8 8 8 8 8 8 8 8 8 7 7 7 19 18 16 32 21 19 63 12 11 94 15 11 94 14 15 96 16 15 97 17 18 96 16 17 95 14 13 95 11 11 95 11 11 98 12 13 95 14 13 96 14 16 76 15 14 97 68 60 96 72 60 96 69 58 92 18 15 95 9 8 96 12 12 95 11 11 94 60 50 96 90 74 97 91 77 96 90 76 96 49 43 93 12 11 96 11 14 97 9 8 95 17 15 95 28 22 95 24 22 95 11 11 96 12 12 97 15 17 96 14 16 95 10 13 96 8 7 95 7 6 93 7 6 95 6 8 93 7 8 94 10 8 94 13 12 96 12 12 93 12 11 96 47 40 98 70 59 93 64 56 91 38 34 94 10 8 95 9 8 94 10 10 93 40 36 95 92 77 95 92 73 95 88 72 97 70 59 93 14 10 95 14 13 92 10 12 94 14 15 97 36 33 93 86 68 93 30 25 96 12 12 93 13 14 87 13 12 92 13 9 97 17 16 99 17 19 98 17 16 96 10 11 98 10 8 97 11 12 95 9 10 97 7 7 96 28 25 91 72 55 92 81 61 97 80 62 93 53 43 95 9 10 93 9 7 92 17 14 95 84 62 91 79 63 92 87 68 
8 8 8 11 11 9 11 11 13 11 11 9 11 9 10 10 8 11 8 8 8 9 9 9 8 8 8 9 9 9 9 7 8 10 10 10 11 11 13 28 12 12 42 12 10 63 14 10 99 14 17 97 17 18 97 17 18 96 29 23 96 53 44 98 12 13 97 13 11 97 13 13 94 13 12 96 14 16 97 85 73 98 88 76 96 89 73 95 17 13 95 9 8 97 11 14 95 11 9 94 60 51 95 90 71 96 88 75 96 87 72 95 51 42 94 13 12 94 13 12 95 9 10 94 8 7 94 10 8 97 9 8 96 10 11 95 13 15 96 15 14 96 12 12 89 9 8 95 6 8 98 6 9 95 7 5 91 5 6 95 9 8 95 11 11 94 13 12 96 11 8 93 12 11 96 62 52 97 91 75 96 87 70 94 47 39 94 10 8 93 9 9 93 12 11 93 40 32 96 91 72 96 90 74 95 73 62 96 35 30 95 14 13 96 14 16 94 13 12 94 12 14 97 17 18 95 40 35 92 11 10 95 13 15 94 13 12 89 13 15 94 16 14 96 16 17 96 16 17 96 45 41 97 60 52 98 30 27 95 11 11 95 9 8 95 9 8 94 35 29 93 82 62 93 82 62 95 87 66 95 67 53 96 8 7 97 8 10 91 11 10 93 38 33 93 78 59 90 82 61 
9 9 7 11 11 11 12 12 12 11 11 9 10 9 5 8 8 8 9 8 6 8 8 6 8 8 8 7 8 10 10 12 11 12 12 12 12 12 12 14 12 13 11 11 9 23 11 11 45 13 14 46 16 14 44 16 15 46 20 19 48 41 33 49 15 16 94 12 14 94 13 12 93 13 12 93 13 14 96 82 71 99 90 75 94 85 70 93 18 13 96 10 9 98 12 13 96 10 11 93 28 26 94 39 34 93 40 34 95 40 35 96 28 25 93 11 13 92 11 10 93 8 11 94 8 7 97 7 7 96 22 21 95 46 41 94 13 12 98 12 11 95 11 11 89 9 12 95 7 5 96 59 50 94 55 48 95 57 48 96 59 51 96 16 15 93 12 11 96 12 12 94 13 12 95 60 54 97 91 75 95 88 70 95 46 39 92 11 10 94 9 12 93 12 11 95 21 20 95 37 33 95 38 31 96 33 26 97 11 12 98 13 16 97 15 17 95 14 13 96 15 11 98 17 16 95 15 14 95 17 17 97 17 16 98 14 14 94 16 14 97 17 16 96 16 15 95 52 45 96 80 67 98 92 78 99 72 61 94 35 29 93 9 7 95 9 8 95 36 30 94 79 60 96 81 62 97 84 65 94 68 51 95 9 8 95 9 10 92 8 8 91 13 11 93 34 26 94 35 29 
11 11 13 13 13 13 14 12 13 13 13 13 11 11 11 9 9 9 9 7 8 7 7 7 7 7 7 7 7 7 11 11 11 12 13 15 16 16 16 14 12 13 11 9 10 9 9 9 13 13 13 16 15 13 15 13 14 17 15 16 19 17 18 20 16 15 48 14 15 93 13 12 94 13 12 93 13 12 93 40 36 97 83 70 94 82 68 90 16 15 95 9 10 96 12 12 95 9 8 94 8 7 94 8 7 92 11 10 96 15 14 97 15 17 97 13 13 95 11 9 94 10 8 96 7 9 96 22 21 97 67 57 95 85 73 97 60 54 96 55 49 94 10 10 89 7 9 92 9 5 95 92 75 93 87 73 95 92 75 96 89 71 96 22 19 94 10 10 96 12 12 96 12 12 97 60 51 96 89 71 95 86 71 94 45 38 94 10 10 94 10 10 95 9 10 96 10 11 96 8 7 97 9 8 97 9 8 96 12 12 96 12 12 94 14 15 95 14 13 94 14 13 96 15 12 98 64 54 96 57 50 97 59 48 97 19 19 94 18 20 96 18 18 95 15 14 94 68 55 95 88 70 97 94 77 98 92 78 97 50 42 93 7 6 95 9 10 95 21 20 95 57 46 94 83 61 95 72 54 97 37 29 96 10 11 96 10 11 92 11 10 93 9 7 92 8 8 94 10 10 
11 11 13 15 15 15 14 14 16 14 14 14 13 13 13 9 9 9 9 7 10 7 7 7 8 8 8 8 8 8 11 10 8 15 13 14 17 17 17 16 15 13 12 12 12 9 10 5 12 10 11 13 11 12 13 13 13 16 14 15 19 19 17 18 16 17 24 14 15 96 15 14 96 15 14 95 14 11 91 15 15 94 45 40 92 45 37 91 11 10 93 9 9 95 11 9 64 10 10 51 7 6 77 7 7 93 12 11 94 14 13 96 15 14 95 14 11 93 9 9 93 9 7 96 7 9 98 28 28 96 92 80 95 91 79 96 92 80 94 80 67 95 11 11 90 9 8 89 8 7 95 89 73 93 87 71 95 92 73 95 92 73 95 21 18 96 12 12 96 11 14 96 10 9 96 37 31 95 71 59 93 81 69 92 45 39 94 10 8 95 9 10 97 11 12 97 11 12 95 9 8 97 19 15 94 47 39 95 37 33 94 13 10 97 13 13 97 11 14 93 13 12 98 53 47 96 93 78 96 84 68 95 83 67 95 24 22 94 18 20 94 18 18 95 13 15 94 66 54 95 88 72 96 93 74 98 95 80 96 52 43 93 9 7 94 10 10 96 14 16 97 29 26 94 50 37 96 41 34 97 13 13 94 10 8 95 11 11 94 13 12 92 8 8 92 6 7 94 10 10 
12 12 14 13 13 13 15 15 15 15 15 15 12 12 12 10 10 10 6 8 7 39 5 6 50 6 7 23 7 7 10 10 8 15 13 14 17 17 17 19 17 18 14 12 15 10 9 7 10 11 13 12 10 11 11 11 11 13 13 13 19 17 18 18 18 18 27 17 16 97 17 18 97 17 18 98 14 12 91 15 15 93 12 11 93 9 9 56 8 8 51 10 8 52 10 11 21 7 7 7 7 7 33 7 6 78 35 29 99 52 46 96 49 43 93 30 25 93 9 9 96 8 7 94 8 7 97 29 26 96 92 80 97 94 79 96 92 80 96 82 71 96 10 11 91 10 6 92 8 8 96 49 41 93 48 42 94 86 67 96 55 49 96 16 17 96 12 12 97 11 12 96 10 11 97 34 29 90 67 53 91 78 62 91 42 35 93 7 8 97 8 10 97 11 12 81 13 14 71 26 23 95 57 48 91 83 64 92 73 58 95 46 41 97 13 11 95 11 11 96 10 11 95 92 77 93 87 71 94 85 70 92 82 70 94 57 48 94 24 22 96 18 18 94 13 10 61 38 32 77 48 40 96 51 45 97 54 47 97 34 29 94 10 10 93 9 9 94 13 12 96 16 15 97 15 17 94 14 15 95 11 11 95 9 8 95 9 8 93 9 9 92 8 8 93 7 8 96 49 39 
13 11 12 11 13 12 11 13 10 12 12 12 10 10 10 9 9 11 7 7 7 39 5 6 75 5 7 40 6 7 10 10 10 13 13 13 17 17 17 17 17 17 14 13 11 9 9 7 11 11 13 11 11 11 12 10 11 13 13 13 16 14 15 17 17 15 24 18 18 59 20 23 97 19 17 93 15 13 93 13 14 56 10 12 49 7 8 12 8 9 8 10 9 9 9 9 7 7 7 7 7 7 7 7 7 65 58 48 97 90 74 97 85 73 93 46 40 93 9 7 95 7 6 95 6 8 96 28 25 96 93 78 95 91 79 97 91 79 98 81 71 97 8 10 93 9 9 50 8 9 52 11 9 94 10 10 94 44 35 96 18 16 96 10 9 95 14 11 98 12 11 95 9 8 93 33 25 90 42 32 90 61 47 92 42 31 93 7 6 97 9 8 97 11 10 81 13 14 71 38 33 95 79 66 94 78 62 95 83 67 94 84 72 97 46 42 97 8 10 97 7 9 96 49 43 94 82 66 95 83 69 95 85 73 96 90 74 96 62 53 96 51 45 95 21 18 31 9 11 65 11 11 97 13 13 96 14 16 95 14 13 93 11 13 92 11 10 94 13 10 95 15 18 94 14 13 94 13 12 96 20 20 96 41 36 96 10 11 91 7 7 92 6 7 94 10 10 94 86 63 
13 11 12 13 11 12 11 11 13 10 10 12 8 8 8 8 8 8 5 5 3 4 6 5 36 4 5 28 6 8 9 9 9 13 11 12 15 15 15 15 17 16 14 12 15 9 8 4 9 9 11 9 9 9 11 11 9 11 11 13 12 12 12 16 16 14 19 18 16 21 21 23 66 16 17 62 14 12 65 10 13 15 9 9 7 7 7 7 7 7 8 6 7 8 8 8 10 8 9 8 8 8 29 7 9 74 57 47 96 88 75 97 85 73 96 59 53 95 27 26 94 4 4 95 7 6 94 19 16 95 73 62 96 90 78 97 84 75 95 56 49 95 9 10 91 10 7 40 8 11 11 10 15 92 9 5 93 9 7 97 13 11 95 11 11 95 11 11 95 11 11 94 8 9 96 8 7 92 25 19 90 58 45 91 57 45 95 37 33 96 25 21 97 11 10 94 12 14 95 36 30 92 76 61 94 83 65 95 88 70 95 91 79 96 82 71 97 9 8 97 7 7 94 5 7 91 82 65 95 83 69 95 62 53 98 63 57 97 87 75 96 66 58 95 25 23 56 10 10 74 12 13 97 13 13 98 14 14 93 13 12 91 11 10 92 11 10 95 14 13 94 14 13 91 22 17 89 41 31 94 51 42 97 83 70 95 36 32 94 13 12 92 31 26 93 11 13 95 84 64 
12 12 12 13 13 13 9 9 7 10 9 7 7 7 7 5 5 5 5 5 5 4 4 4 5 5 5 6 6 4 8 8 6 10 10 8 12 11 9 12 12 10 12 12 12 10 10 8 7 7 7 8 6 7 10 10 10 10 10 8 12 10 11 11 13 10 16 14 15 18 18 16 15 13 14 14 12 15 10 10 12 8 8 8 7 5 6 7 7 7 10 5 9 7 7 7 10 10 10 10 10 10 41 7 8 64 37 30 65 58 48 79 70 61 96 67 59 95 35 34 95 3 4 95 5 5 95 7 5 95 21 20 98 63 57 95 56 49 93 9 9 95 9 8 91 10 9 92 12 13 45 11 12 96 7 9 95 11 11 96 10 11 96 10 11 94 10 8 94 10 10 94 8 9 96 8 7 92 54 45 92 80 66 92 85 67 96 90 74 97 65 54 96 32 30 93 13 12 90 37 31 93 80 63 93 86 68 96 90 74 97 87 77 96 57 50 97 11 10 95 7 6 94 5 7 95 58 49 94 57 48 96 12 12 98 14 14 98 60 51 97 32 28 96 14 16 94 14 13 95 14 13 98 14 14 98 14 12 94 24 22 91 21 21 94 10 10 97 13 13 95 14 13 92 39 31 90 86 61 92 90 67 96 93 78 95 81 68 94 14 13 93 55 44 96 12 12 92 55 46 
12 12 12 13 13 13 10 10 10 8 8 8 9 9 9 7 7 7 6 6 6 6 6 6 7 5 6 8 7 5 8 8 8 9 9 9 9 9 9 13 11 12 12 12 14 10 10 10 6 6 8 5 5 5 10 10 10 9 9 11 10 8 9 10 10 10 11 9 12 13 13 13 14 12 13 10 10 10 9 9 9 8 8 8 8 6 7 8 8 8 8 8 6 7 9 8 9 7 8 8 8 8 8 6 7 8 8 8 11 9 12 53 32 29 97 34 29 96 6 6 90 6 4 91 7 7 94 8 7 96 12 12 99 15 15 97 13 13 93 7 8 97 7 7 90 10 11 92 12 11 97 11 12 96 10 11 95 34 31 93 40 34 95 40 37 94 14 13 94 9 6 95 6 8 96 8 7 94 54 46 94 82 68 92 85 67 92 89 72 94 76 62 97 42 35 93 13 12 91 30 27 96 66 56 96 88 75 96 79 69 92 55 49 97 11 12 96 12 10 94 8 7 94 8 9 92 11 10 94 10 10 97 8 10 98 12 13 97 17 18 95 19 19 95 17 17 94 16 16 96 15 14 98 34 34 97 44 38 92 58 46 86 52 40 90 19 17 97 11 12 96 15 14 97 42 35 96 87 70 92 91 71 95 92 77 97 79 69 94 13 12 95 11 11 97 13 13 93 13 12 
14 14 12 13 13 13 10 10 10 7 7 9 10 8 9 8 8 8 7 7 7 7 7 7 8 8 10 7 7 5 9 9 9 10 11 6 12 10 11 13 12 10 11 9 10 9 9 7 5 5 5 4 4 4 8 6 7 11 10 8 8 8 8 7 7 5 8 8 8 11 11 13 11 11 11 10 10 10 10 10 10 8 8 8 9 9 9 12 10 11 10 9 7 7 7 7 9 9 9 8 8 10 8 8 8 8 8 8 10 10 10 51 9 10 98 9 11 97 9 8 89 8 7 88 8 7 95 11 11 97 13 11 97 19 19 96 31 27 96 26 24 96 6 8 91 10 9 91 13 13 97 11 12 97 13 11 97 79 69 96 90 74 94 90 78 94 43 39 94 13 12 96 7 9 94 8 9 94 45 40 93 73 62 93 84 69 95 88 70 93 50 43 93 13 12 94 13 12 94 13 12 97 32 28 98 89 80 96 69 60 95 11 11 95 11 11 96 11 14 94 13 12 95 11 11 96 12 12 95 32 27 95 30 28 95 30 26 95 20 17 95 17 17 96 18 16 98 18 19 96 16 15 99 66 57 100 93 75 94 83 65 90 74 58 93 40 34 95 11 11 98 14 14 98 45 39 96 89 73 95 90 71 96 84 70 95 61 52 97 13 13 96 15 14 96 15 14 95 14 13 
12 12 12 11 11 9 9 9 11 8 8 8 11 10 8 8 8 8 9 9 7 8 8 8 7 7 5 8 8 6 9 7 8 11 9 10 12 12 10 13 13 13 11 9 12 7 6 4 5 5 5 4 3 1 7 5 8 9 7 8 8 8 10 7 7 7 8 8 8 9 9 9 9 7 8 10 10 10 11 9 10 11 9 10 12 11 9 12 12 12 11 10 8 8 8 6 9 7 8 9 9 9 6 10 11 9 9 11 10 10 10 44 12 13 87 13 14 96 12 12 91 10 9 95 11 9 96 15 14 95 14 13 93 32 27 91 83 70 90 74 59 92 27 23 94 8 11 93 12 11 93 12 11 97 11 10 96 80 67 94 92 79 96 90 76 95 89 75 97 27 25 96 7 9 95 9 10 94 10 10 95 48 42 96 67 59 96 69 58 93 42 38 92 14 14 93 12 11 98 12 11 97 32 30 98 92 78 98 71 62 96 12 10 96 10 11 94 13 12 96 11 14 96 15 14 96 10 13 94 91 74 96 87 72 94 87 69 96 37 31 94 18 18 95 17 15 96 16 17 97 19 17 100 67 58 98 93 73 93 87 65 94 78 62 91 41 34 92 11 10 98 12 13 98 38 30 93 69 57 94 68 53 94 54 44 95 15 14 94 13 12 94 14 15 95 15 16 95 13 15 
10 10 10 10 10 10 10 10 10 8 8 8 10 8 9 9 9 9 8 8 8 7 7 7 10 10 10 8 8 8 8 8 8 8 10 9 11 11 11 12 12 12 12 11 9 9 7 8 5 5 5 4 4 4 4 4 4 5 5 3 8 8 8 9 9 9 10 10 10 10 8 9 8 8 8 9 9 9 11 9 12 11 11 11 14 12 13 12 12 12 10 10 12 8 8 8 9 8 13 12 10 11 10 10 10 9 9 9 11 11 11 15 13 14 58 24 23 97 32 30 89 25 23 75 13 14 77 16 15 83 15 16 93 32 29 91 79 67 91 84 68 93 75 61 96 28 25 97 12 9 97 11 12 96 10 13 95 65 54 95 85 73 96 90 76 94 74 63 94 25 20 97 11 10 96 12 12 97 13 13 94 13 12 95 14 13 96 15 14 94 15 11 91 13 11 92 11 10 98 12 13 96 33 28 95 92 77 96 79 63 95 31 29 93 32 29 96 33 28 96 15 14 95 15 14 96 10 9 98 92 76 94 89 70 93 81 65 97 89 70 96 33 28 94 13 12 97 17 18 98 20 18 98 65 58 95 90 70 94 75 58 92 63 49 90 35 30 92 12 13 93 11 13 95 11 11 95 11 11 94 10 10 95 9 12 95 11 9 95 11 11 93 12 11 95 14 13 96 16 17 
10 10 10 20 8 8 8 8 8 9 9 11 8 8 6 8 8 8 7 7 7 8 8 8 9 9 7 11 9 10 9 9 9 11 11 13 13 12 10 11 11 11 10 10 10 9 7 8 13 7 7 12 6 6 4 4 4 5 5 5 8 8 6 11 9 10 12 12 12 12 12 12 11 9 10 11 11 11 13 11 12 13 11 12 13 13 13 13 13 13 10 10 12 8 8 8 10 8 9 13 7 7 21 7 7 16 10 10 11 11 11 16 16 14 58 55 48 98 90 77 66 62 53 16 16 16 19 19 19 37 15 17 94 29 27 88 79 64 94 88 74 94 88 74 94 78 65 96 10 11 95 11 11 95 11 9 95 9 10 95 71 59 96 79 69 96 28 25 96 8 7 87 11 13 87 15 18 90 14 14 96 10 9 97 13 11 94 14 13 93 14 10 93 12 11 95 11 11 97 17 18 96 37 33 96 93 78 96 90 74 95 92 73 95 92 77 96 82 69 98 17 16 95 15 14 86 10 12 85 83 70 93 87 71 91 79 63 96 85 67 96 33 28 96 15 14 96 15 14 96 18 16 94 57 48 92 76 60 93 43 34 93 12 11 94 14 13 92 11 10 90 12 10 85 14 12 92 16 16 94 14 13 94 13 12 96 10 11 96 8 7 93 12 11 94 14 13 95 20 17 
10 8 9 94 6 5 29 8 7 6 6 4 8 8 6 8 8 8 8 8 8 9 9 9 10 10 10 11 11 11 9 9 9 11 11 11 12 10 11 12 10 11 9 9 9 8 8 8 35 7 6 67 5 6 5 5 5 5 5 5 8 10 9 10 10 12 11 11 11 12 12 12 11 11 11 11 11 11 11 9 10 13 11 12 15 15 15 16 16 18 13 13 13 9 9 9 8 6 7 63 9 9 88 8 7 36 10 11 16 16 14 22 23 18 61 58 49 95 94 76 65 62 53 15 15 15 17 17 17 37 15 17 93 23 21 86 68 56 92 80 68 97 74 66 93 12 11 95 11 11 94 8 7 97 11 12 96 10 11 97 8 10 96 7 9 94 8 9 97 9 8 46 14 15 29 19 18 70 14 15 96 12 10 97 17 16 95 21 20 93 18 15 93 17 17 94 16 16 95 42 38 95 91 80 94 91 76 95 92 77 97 94 77 98 95 78 99 81 67 97 27 25 98 18 19 12 13 15 9 7 8 84 68 55 92 71 54 93 80 64 94 39 34 93 22 20 96 22 21 95 19 19 94 13 12 94 8 9 92 8 8 92 10 12 95 13 15 93 12 11 67 11 12 24 12 14 43 17 18 97 22 19 96 22 21 97 17 18 93 15 11 96 10 11 98 14 12 95 19 21 
6 8 7 94 16 12 96 16 17 19 9 8 10 10 10 8 8 8 8 8 8 9 9 9 11 10 8 11 9 10 10 10 12 10 10 12 11 11 11 10 10 10 10 8 9 9 7 8 8 6 7 6 6 8 5 6 1 5 5 5 9 9 9 10 10 12 11 11 9 10 10 10 12 12 12 10 10 10 7 7 5 8 6 7 14 12 13 17 15 16 15 13 14 9 9 9 9 7 8 62 8 8 41 9 10 9 9 11 51 48 39 93 90 73 95 89 73 93 90 73 63 59 50 12 12 10 20 14 16 39 13 14 92 12 11 88 14 15 94 16 16 100 14 15 93 13 14 91 10 9 95 5 5 96 10 11 98 12 11 96 12 10 95 11 9 94 10 8 97 8 10 95 14 11 97 17 16 97 16 15 97 13 13 93 44 39 89 76 60 91 73 59 93 77 62 93 55 44 96 35 32 93 79 68 93 83 71 97 91 77 95 93 78 97 91 77 95 88 72 95 79 63 99 21 21 25 15 14 17 7 6 84 5 8 91 7 7 90 62 48 92 84 65 91 84 68 93 86 68 96 38 34 96 11 14 95 9 8 92 8 6 94 10 8 97 11 12 93 13 16 91 11 12 95 9 8 96 18 14 98 37 34 99 91 78 93 90 73 91 78 62 96 18 16 96 12 12 93 15 13 
7 7 7 92 85 66 94 87 69 18 19 14 9 9 9 8 8 8 9 9 7 10 8 9 12 10 11 9 9 9 9 9 11 11 11 11 10 10 10 11 11 11 11 9 10 8 8 6 6 6 6 6 6 8 5 5 3 7 7 7 8 8 8 9 9 9 12 8 9 11 11 11 12 12 12 11 11 11 4 4 4 5 5 5 10 8 9 12 10 11 12 10 11 10 10 12 10 10 10 63 9 9 41 9 10 9 9 11 50 47 40 93 86 70 94 87 71 95 88 72 64 60 51 12 10 11 34 12 14 97 12 15 96 12 10 91 12 15 94 15 18 94 14 13 91 13 11 90 9 8 95 5 5 99 10 12 96 12 10 96 11 14 92 11 10 95 9 8 95 11 9 95 14 13 96 18 16 96 16 17 92 12 13 92 43 38 89 76 60 91 75 60 93 80 64 94 56 47 95 11 9 95 14 13 94 33 30 97 91 79 96 93 78 94 90 78 91 78 62 95 15 14 98 20 20 97 16 15 92 6 7 94 5 7 92 9 5 93 7 8 91 68 52 92 80 64 92 81 63 94 37 28 94 10 10 93 9 9 93 9 9 93 9 9 97 12 9 93 13 14 91 13 13 95 9 8 96 31 27 98 92 76 95 89 77 94 92 77 92 90 69 94 81 65 93 9 7 96 12 12 
8 8 10 7 9 8 9 9 9 7 7 9 8 8 6 9 9 9 10 10 10 9 7 8 8 8 8 7 7 7 10 8 9 10 10 10 12 10 11 10 10 10 9 9 9 8 8 8 7 7 7 7 7 7 7 7 9 8 8 6 8 6 9 5 5 3 8 8 8 13 13 11 12 12 12 10 10 8 8 6 7 6 6 6 7 7 7 9 7 8 10 8 9 11 11 11 14 13 11 13 13 15 12 12 12 10 10 10 51 48 41 94 47 39 94 8 7 95 9 10 94 10 8 96 12 12 96 12 12 96 12 10 93 13 12 92 12 13 95 15 14 96 16 17 92 14 14 96 10 11 92 6 7 94 8 9 96 15 12 96 12 12 96 79 69 96 90 76 95 92 75 96 93 78 100 47 41 96 18 16 94 16 16 91 46 41 94 78 63 93 81 65 93 85 64 93 59 47 95 11 9 96 12 12 97 16 15 100 36 34 95 91 80 95 81 70 95 13 15 93 15 13 96 15 14 94 13 12 90 9 8 91 10 9 92 11 10 95 9 8 96 8 6 91 60 42 92 76 61 94 33 28 93 8 11 93 9 7 93 44 37 91 84 68 97 89 76 97 60 52 95 11 11 94 10 8 96 31 29 97 91 77 97 89 76 93 91 78 94 91 74 94 80 67 94 8 9 94 10 10 
