P3
100 50
255
60 10 9 62 55 45 60 58 46 61 57 48 63 56 46 66 22 21 63 9 9 59 8 7 61 7 5 60 9 8 60 9 8 60 9 8 60 9 8 61 9 11 58 8 7 57 9 9 63 9 9 63 9 9 62 8 8 63 9 9 62 6 9 61 7 7 60 5 8 62 6 7 62 8 8 63 51 37 61 51 39 61 49 37 60 50 38 62 12 11 62 8 8 62 8 8 61 9 11 63 40 32 63 57 45 62 55 45 62 31 26 63 7 8 37 9 8 10 10 8 11 11 11 10 8 9 11 9 10 9 7 10 9 9 11 10 8 11 8 8 8 10 8 9 9 9 9 11 11 11 11 9 10 8 6 7 6 6 6 5 5 5 6 4 5 7 7 9 10 10 10 11 11 11 12 12 12 12 10 13 13 11 12 15 15 15 17 16 14 15 15 15 12 14 13 13 11 14 11 11 11 11 11 11 9 9 9 8 8 10 9 9 9 10 10 10 9 9 9 9 9 7 10 8 9 5 5 5 59 3 4 60 4 3 60 9 6 64 13 12 63 13 14 62 10 12 63 9 9 63 9 9 64 10 10 62 11 10 63 12 11 61 11 10 60 31 25 60 52 41 62 54 43 64 57 49 63 45 41 62 11 10 62 11 10 62 8 8 61 15 15 60 56 45 61 54 44 64 54 45 
63 9 9 63 13 14 63 13 14 65 55 46 66 18 16 63 12 11 61 9 11 63 7 6 61 7 7 61 7 7 58 7 6 61 6 9 60 9 8 61 5 4 61 7 7 59 7 9 59 8 7 60 8 10 62 21 19 63 59 48 61 51 41 61 5 4 61 6 9 61 5 6 61 7 7 60 50 38 62 54 41 60 53 37 60 52 39 62 12 11 64 8 9 62 8 8 59 8 7 60 9 8 61 5 4 62 6 5 61 7 7 62 6 7 63 9 9 63 7 8 61 10 9 61 10 9 60 9 8 48 8 6 9 9 9 10 8 9 9 7 8 10 8 9 11 9 10 10 10 10 9 9 9 8 8 10 5 5 3 6 6 4 8 8 10 7 7 7 10 10 10 11 11 13 12 12 12 12 13 15 14 14 14 15 15 15 15 15 13 14 14 14 15 16 18 12 12 10 11 11 9 13 11 14 13 13 13 11 10 15 8 10 9 10 10 10 15 9 9 62 8 8 9 9 9 64 6 5 5 3 4 7 5 6 55 9 9 63 12 9 62 11 10 63 9 9 62 42 33 62 54 43 62 27 23 64 10 10 61 9 11 63 9 9 63 32 29 62 58 47 62 58 49 65 58 52 64 46 42 60 10 11 63 9 7 64 10 10 61 9 11 61 16 13 61 55 43 62 11 10 
14 8 8 18 13 10 56 15 13 65 24 22 66 14 16 62 10 12 60 9 8 62 8 6 62 8 8 60 6 6 60 4 5 61 5 4 62 6 7 61 5 6 61 5 6 59 5 5 62 8 6 65 21 18 63 50 42 61 57 46 63 56 46 60 40 29 57 7 6 59 8 7 59 10 6 60 52 39 61 51 39 62 54 43 59 18 14 61 7 7 62 8 8 62 6 5 61 7 7 62 6 7 60 6 4 61 5 4 60 6 4 62 6 9 61 6 9 62 8 6 62 8 8 60 9 8 61 6 9 63 7 6 56 8 8 57 9 9 49 9 10 10 10 10 10 9 7 10 10 10 8 8 8 7 7 9 8 8 8 7 7 7 9 9 7 8 8 10 10 9 7 11 11 9 12 12 12 13 13 13 13 13 11 13 13 13 13 13 13 13 13 13 14 14 14 13 13 13 15 13 14 13 13 15 14 14 12 13 11 12 10 10 10 9 9 9 9 7 8 17 8 9 11 9 12 15 6 7 7 7 7 12 10 11 18 12 12 19 10 11 16 10 10 18 10 8 16 12 11 17 16 14 47 37 35 64 25 20 60 9 8 61 7 5 63 9 7 63 30 25 64 57 49 62 58 49 64 45 39 59 8 7 62 8 8 63 9 9 62 11 10 59 8 7 60 15 12 61 9 11 
10 8 9 11 11 11 19 14 11 23 17 17 58 14 13 63 9 7 63 9 7 64 8 7 64 8 7 59 8 7 60 6 6 62 27 23 64 47 37 62 27 23 60 4 5 64 5 7 47 8 9 30 20 18 62 56 44 62 56 44 61 57 46 60 45 38 59 8 5 62 8 8 62 8 6 61 13 11 60 12 12 62 14 12 61 7 7 62 6 5 63 9 9 60 9 8 62 6 7 62 6 7 61 5 6 61 7 7 61 7 7 62 6 7 61 7 7 62 8 8 63 7 8 61 7 7 60 19 15 62 47 40 62 52 43 65 46 42 57 9 9 9 9 9 9 9 9 9 9 9 6 7 9 7 7 5 8 8 8 8 8 8 9 9 9 9 9 9 8 8 8 44 40 31 54 50 39 30 26 23 15 15 15 13 13 13 12 12 10 13 13 15 14 16 13 14 14 14 12 12 12 13 13 13 13 15 12 12 12 12 11 11 11 11 11 11 10 10 8 10 9 7 10 10 10 55 50 44 54 51 42 18 17 15 15 14 12 11 11 11 10 10 10 12 12 12 12 12 12 12 13 15 14 14 14 47 13 12 62 8 6 59 8 7 61 7 5 63 12 11 61 16 13 63 15 13 62 14 14 60 5 8 61 7 7 61 10 9 64 10 10 56 8 8 14 8 8 14 8 10 
11 11 11 11 9 10 13 13 11 16 14 17 20 11 12 52 10 11 64 10 8 63 9 7 61 7 5 62 8 8 61 32 26 61 48 39 62 53 44 62 52 43 46 35 29 17 8 9 15 9 11 9 9 9 29 25 22 62 56 44 60 56 45 60 46 37 63 7 8 62 8 6 59 8 7 62 8 8 61 7 7 62 8 6 63 7 8 62 8 8 61 7 7 22 6 7 13 7 7 13 7 9 47 8 9 62 8 6 58 6 8 58 7 4 61 7 7 60 8 10 61 7 7 60 20 18 62 48 39 60 53 43 63 59 48 64 54 45 57 11 11 10 10 10 9 9 9 9 9 9 9 8 6 8 6 7 8 10 9 9 9 9 48 8 8 56 8 6 55 7 7 59 11 9 62 14 14 61 15 15 31 15 16 13 15 12 12 12 12 11 11 11 14 14 14 11 11 11 16 12 13 15 15 15 14 14 14 11 13 12 15 11 12 13 13 15 12 12 12 9 9 9 56 49 43 64 57 49 64 58 46 57 51 39 14 14 14 9 9 11 11 11 11 12 12 12 12 14 13 11 11 9 10 10 10 12 8 7 14 8 8 37 7 7 62 8 8 63 9 9 62 8 8 60 9 6 60 8 10 60 8 10 62 8 8 64 10 8 62 8 8 55 7 7 8 8 10 8 6 7 
10 10 10 12 11 9 11 11 11 13 11 12 13 11 12 21 13 11 53 9 8 63 9 9 63 9 9 62 8 8 61 34 25 61 51 41 41 36 30 19 18 16 12 11 9 7 9 8 9 7 8 8 8 8 22 12 11 61 20 18 63 19 16 61 16 13 61 6 9 62 7 10 59 8 7 64 5 7 62 8 6 59 7 9 62 8 6 62 6 7 62 8 6 20 8 8 7 7 7 9 9 9 43 9 8 60 27 22 56 36 27 56 39 29 61 23 20 61 7 5 59 9 8 62 24 21 62 54 41 60 54 42 61 57 45 64 51 43 62 12 15 47 13 12 10 8 9 9 7 8 8 8 8 8 8 8 11 11 13 45 11 10 62 11 10 61 6 9 62 6 7 61 7 5 61 7 7 62 10 12 55 13 14 32 12 13 10 10 10 11 11 11 10 10 10 8 8 8 12 12 12 16 16 16 14 14 14 11 11 11 14 12 13 16 14 15 14 13 11 10 10 8 66 57 50 66 59 49 63 56 46 30 25 22 6 6 8 8 8 6 9 9 11 10 10 10 12 12 12 11 11 11 10 9 7 8 8 6 8 8 8 34 8 9 60 9 8 62 8 8 61 7 7 60 6 6 61 7 7 62 8 8 60 9 8 60 9 8 61 7 7 53 5 5 8 6 7 9 9 7 
9 9 11 8 8 8 8 8 8 9 9 9 10 10 10 13 11 12 21 9 9 53 9 8 63 8 11 64 8 9 62 35 26 42 35 27 13 12 10 7 7 7 8 8 6 7 9 8 9 9 9 8 8 10 22 8 8 61 10 9 61 10 7 63 9 7 59 8 7 58 8 7 62 8 8 64 5 7 62 6 5 59 8 7 60 35 28 61 42 35 62 18 17 20 9 7 40 8 9 50 10 10 58 27 22 62 45 35 60 48 36 59 49 37 63 30 25 62 8 6 62 8 6 62 12 13 61 26 22 61 55 43 61 54 44 63 50 41 62 10 12 60 12 10 50 10 10 48 8 8 9 7 10 9 9 9 44 13 11 62 11 10 62 11 10 62 8 8 61 7 7 62 8 6 62 8 8 58 10 10 59 9 8 54 8 8 30 10 9 11 11 13 11 9 10 9 9 9 9 9 9 12 12 12 13 13 13 11 11 9 9 11 8 13 13 13 11 11 11 10 10 10 64 55 48 63 56 48 61 53 42 14 13 11 7 7 7 9 9 9 7 9 8 10 10 10 11 11 9 11 11 11 9 9 9 7 8 3 6 6 6 14 8 8 20 10 9 34 8 9 62 8 8 63 18 13 60 42 32 62 33 27 59 7 9 60 6 6 59 3 4 54 4 3 8 8 8 9 9 9 
10 10 12 9 9 9 9 8 6 7 7 7 10 12 11 13 13 13 12 12 12 20 10 9 22 10 10 22 8 8 21 16 12 12 11 9 6 6 6 7 7 5 8 8 8 9 7 8 9 9 7 20 10 9 53 9 8 63 7 10 62 7 10 62 8 8 62 8 8 59 8 7 65 7 6 61 5 4 57 6 5 61 34 27 62 50 38 59 49 37 62 44 34 53 17 17 59 11 11 62 11 10 62 35 28 64 47 37 60 48 36 60 50 38 62 29 22 62 8 8 61 10 9 62 6 5 61 10 6 61 17 16 61 20 16 62 16 16 63 9 9 64 10 8 62 8 8 59 8 7 49 9 9 50 8 9 64 10 8 63 12 9 65 11 11 60 10 9 59 8 7 62 8 6 60 9 8 55 24 21 58 41 33 62 45 37 54 45 36 30 29 25 12 11 9 9 11 10 11 9 10 11 11 11 11 11 11 11 11 9 12 11 9 12 10 11 14 14 14 12 12 12 26 22 19 24 23 21 24 23 21 9 9 9 9 7 8 11 11 11 10 10 8 11 11 11 11 11 13 10 12 9 9 9 9 7 7 7 8 6 7 7 7 5 8 8 6 14 9 6 21 7 6 35 24 20 61 53 42 50 41 32 20 6 6 20 6 6 17 5 5 15 5 4 10 10 10 11 9 10 
9 7 8 8 8 8 9 9 7 9 7 8 11 11 11 13 13 15 14 12 13 10 10 10 10 9 7 8 8 8 5 5 5 7 5 6 7 7 5 5 5 3 7 7 7 8 8 8 8 8 10 12 8 9 37 7 7 62 6 7 61 10 9 61 33 29 62 33 27 62 8 8 60 6 4 61 5 4 62 6 5 60 46 35 61 51 42 63 51 39 62 50 36 63 22 20 62 12 11 61 13 11 60 19 17 61 38 30 60 47 38 60 50 38 61 30 25 63 9 9 62 8 8 63 7 8 60 6 6 59 5 5 61 7 5 62 6 7 62 8 8 64 9 12 60 9 8 59 8 7 60 9 8 60 10 9 62 35 28 62 37 33 63 15 15 62 11 10 60 9 8 62 8 8 60 25 21 57 43 34 60 53 43 63 59 50 62 58 49 54 35 29 43 12 10 42 8 9 30 10 9 12 11 9 11 11 11 11 11 11 10 12 11 13 11 14 15 15 15 14 14 14 11 11 9 13 11 14 13 11 12 9 9 9 10 10 8 11 11 11 11 11 9 11 11 9 10 10 10 10 10 10 10 10 8 8 10 9 7 7 7 8 8 8 8 8 8 7 7 7 7 7 7 14 13 11 30 25 22 26 21 17 7 7 7 7 7 7 5 5 5 5 5 3 12 12 12 11 9 10 
6 6 6 8 8 10 8 8 8 10 9 7 9 11 10 10 10 10 12 12 12 9 9 9 9 9 9 7 9 6 7 7 7 7 7 7 7 7 7 7 7 7 8 8 8 7 7 7 7 7 7 18 8 9 45 7 6 61 16 13 62 39 31 56 47 40 33 25 22 62 37 32 61 7 7 61 5 6 60 6 6 61 49 37 60 54 40 61 53 40 62 50 38 62 21 19 63 13 14 60 12 10 59 11 11 60 18 19 61 36 31 60 37 31 61 17 14 60 9 8 60 8 10 61 7 7 62 8 6 61 5 6 62 6 5 62 6 7 60 6 4 63 9 7 61 10 9 59 8 7 60 8 10 62 8 8 62 48 39 61 52 43 61 41 32 61 16 13 62 8 8 61 7 7 61 17 18 60 41 34 64 57 47 64 60 51 65 58 50 63 35 31 62 11 10 61 10 7 55 10 7 44 10 9 43 9 8 40 10 10 43 11 12 43 12 10 43 15 14 16 16 16 10 10 8 10 10 10 12 12 10 11 11 13 12 12 12 12 12 12 13 13 13 12 12 12 9 11 10 11 11 11 11 11 11 9 9 9 7 7 7 7 7 7 8 6 7 6 6 6 7 7 5 9 9 9 8 6 7 7 6 4 6 6 6 6 6 8 7 7 7 7 7 7 10 10 10 9 9 9 
7 7 7 8 8 8 8 8 8 10 8 9 10 10 10 10 8 9 9 9 9 9 7 8 9 9 11 8 8 8 9 7 8 7 9 8 8 8 6 7 7 7 7 7 7 20 6 5 28 7 6 12 6 8 28 8 7 29 11 11 28 25 20 25 21 18 11 11 11 27 27 19 27 7 6 26 5 4 26 6 7 27 22 18 59 55 43 59 53 39 60 31 25 62 17 14 62 12 13 61 11 12 61 10 9 59 9 8 61 16 13 58 17 13 61 9 11 62 11 10 64 10 8 62 8 8 59 8 7 62 8 8 63 16 10 61 36 31 63 38 33 63 35 31 63 7 6 60 6 6 63 8 11 61 38 30 61 51 42 62 53 44 62 53 46 61 20 18 62 8 8 60 9 8 61 10 9 61 19 20 62 45 38 63 59 50 62 43 37 63 22 20 62 11 10 63 11 13 61 10 9 61 10 9 63 7 8 61 9 11 63 13 14 64 10 10 60 12 12 15 15 15 8 10 9 9 9 9 14 12 13 12 12 10 11 11 9 13 13 13 14 14 14 12 12 12 11 11 11 12 12 12 10 10 10 10 8 9 7 7 9 8 8 6 7 7 7 7 7 7 7 7 7 8 8 6 7 7 7 6 6 6 6 6 6 7 5 8 10 8 9 10 10 10 8 7 5 5 5 7 
34 8 9 7 7 7 9 9 7 8 8 8 10 8 9 10 10 8 10 8 9 9 9 9 10 8 9 9 7 8 8 8 8 9 9 9 8 8 8 8 6 7 16 15 11 44 31 23 52 23 17 28 8 7 16 8 6 28 8 9 8 8 10 6 8 7 7 7 7 8 8 8 8 8 8 7 7 7 6 6 6 6 8 7 31 30 26 57 32 27 64 16 14 61 11 10 61 11 10 60 9 6 59 9 8 62 7 10 58 8 9 57 7 6 59 7 9 64 10 10 54 10 9 37 9 8 38 8 8 42 14 13 63 36 29 62 55 45 63 59 50 63 53 43 63 9 7 62 6 5 66 7 9 62 58 46 62 53 44 63 53 41 61 52 43 61 20 16 62 8 8 63 9 9 60 9 8 61 10 9 63 25 24 62 33 29 61 23 22 63 12 11 62 11 10 63 12 11 63 12 11 64 10 10 61 9 11 65 17 17 63 34 30 64 10 10 57 13 12 14 14 14 9 9 9 6 6 6 15 13 16 13 13 11 11 11 11 12 12 12 15 15 15 34 16 16 19 13 13 12 12 12 10 10 10 9 9 7 6 6 6 10 8 9 10 10 10 8 8 8 8 6 7 9 8 6 7 7 7 6 6 6 5 5 5 4 6 5 8 8 8 10 10 10 8 6 7 31 5 6 
61 10 9 6 6 6 7 7 7 9 7 8 8 8 8 9 8 6 8 8 6 9 9 9 10 8 9 10 8 9 9 9 9 9 9 9 8 8 10 8 8 8 17 18 13 46 39 31 64 37 28 49 7 8 16 7 8 29 8 5 8 8 8 7 7 7 7 5 6 7 7 7 6 6 6 5 5 3 6 5 3 6 6 8 7 7 7 55 9 9 60 10 9 61 10 9 60 9 8 62 8 8 60 8 10 61 10 9 60 19 15 58 27 22 57 29 25 51 23 19 25 9 9 9 9 11 9 11 10 21 21 19 61 53 42 60 56 45 63 59 50 62 52 42 63 9 9 63 7 8 63 9 9 63 34 28 61 32 24 61 30 25 61 30 25 59 13 13 62 7 10 41 7 6 36 7 9 37 9 8 51 9 10 62 10 12 61 11 10 62 11 10 62 12 13 62 10 12 62 11 10 62 11 10 62 16 18 63 39 35 63 54 45 65 32 27 55 11 10 13 15 14 7 7 7 5 5 5 14 14 14 13 13 11 11 11 11 35 31 28 41 21 22 56 16 16 43 13 13 36 10 11 34 6 5 16 6 7 6 6 6 10 8 9 13 11 12 9 11 10 6 6 6 8 6 7 8 8 8 8 8 8 6 6 6 6 6 6 4 6 3 9 9 9 7 7 7 61 5 6 
61 7 7 6 5 3 6 6 8 7 7 7 7 5 6 6 6 4 7 7 7 8 8 8 9 7 8 9 9 9 9 9 9 9 9 7 9 9 9 8 8 8 7 7 7 16 15 13 35 21 18 33 7 8 28 8 9 6 8 7 8 9 4 10 6 7 6 6 6 6 6 6 6 6 6 8 6 7 6 6 6 7 5 6 6 6 8 32 8 6 54 25 21 61 13 11 62 6 5 59 8 7 59 7 9 62 8 8 62 29 24 60 50 40 61 52 43 41 36 30 7 7 7 7 9 8 9 9 9 20 15 12 60 35 28 61 57 46 62 59 50 64 52 40 61 7 7 62 8 8 63 9 7 63 9 9 66 7 9 62 8 8 60 9 8 62 8 6 62 8 8 17 6 4 6 6 6 8 8 6 44 10 9 62 12 11 61 13 11 62 12 13 62 10 12 63 9 9 62 8 8 63 7 8 62 21 19 61 59 47 64 57 49 64 55 48 56 32 28 13 13 13 6 6 6 4 4 4 11 13 12 33 32 27 34 33 28 60 35 30 63 19 16 62 12 11 61 10 9 62 6 7 60 5 2 26 5 4 6 6 6 10 8 9 12 12 12 11 11 11 7 7 7 7 7 7 10 8 9 8 8 10 6 6 6 5 3 4 4 4 4 9 5 6 35 7 6 61 5 6 
41 7 5 4 4 4 4 4 4 6 6 6 6 4 5 6 4 5 6 6 4 7 7 7 9 8 6 9 9 9 10 10 10 10 10 10 8 8 6 8 8 8 6 6 6 8 8 6 7 7 9 14 8 8 34 8 7 8 8 8 8 8 6 7 7 7 5 5 5 6 8 7 8 8 6 8 8 8 7 7 7 7 5 6 7 6 4 7 7 7 47 38 29 60 30 22 60 23 17 61 13 13 60 9 8 61 10 6 60 29 24 51 42 33 42 35 29 27 24 19 5 7 6 6 6 6 6 6 6 22 8 8 59 14 11 61 38 32 60 40 29 63 35 31 62 7 10 63 7 6 60 9 8 60 9 6 64 8 9 62 8 8 59 8 7 63 9 9 61 7 7 36 6 6 27 6 5 28 8 9 50 10 11 62 21 19 62 29 24 62 27 23 62 21 19 59 8 7 62 8 8 63 10 6 62 21 19 64 57 49 63 60 51 63 59 50 60 53 45 31 11 13 26 6 5 25 5 4 13 11 12 40 37 30 58 39 32 61 13 11 62 11 10 62 10 12 61 6 9 60 4 3 63 4 6 40 6 5 26 6 5 18 8 9 13 11 12 12 10 11 8 8 8 8 8 8 9 9 7 8 8 8 5 5 5 5 3 4 4 4 6 9 5 4 40 6 5 62 6 7 
6 6 6 4 4 6 5 5 7 7 7 7 5 5 5 5 3 4 5 5 5 6 6 6 9 7 8 10 8 9 10 10 10 10 9 14 10 8 9 8 8 8 9 8 6 7 7 5 8 8 8 9 7 8 7 9 6 8 8 8 9 7 8 7 7 7 8 8 8 8 8 8 9 9 9 9 7 8 8 8 8 6 6 8 8 6 7 7 7 7 30 25 19 41 32 25 41 35 23 40 19 16 42 8 9 43 9 8 42 21 18 25 21 18 8 8 8 6 6 4 5 5 5 7 5 6 6 6 6 20 6 6 62 9 5 61 7 7 62 6 5 62 8 6 64 8 9 63 7 6 62 6 7 61 5 4 62 8 8 61 10 7 59 8 7 60 23 17 61 11 10 61 7 7 61 5 6 61 7 7 63 8 11 62 33 29 62 55 47 61 54 46 63 38 33 61 9 11 59 9 10 61 10 9 60 19 17 64 57 49 63 59 50 63 56 46 64 36 32 63 11 13 59 8 7 60 6 6 29 11 11 29 7 9 57 7 6 62 8 8 62 11 10 61 11 12 63 7 6 63 4 6 62 6 5 61 7 5 61 16 13 36 16 17 13 11 12 12 12 10 11 11 11 10 8 9 9 7 8 8 8 8 6 6 6 4 4 4 5 5 5 6 6 6 6 4 5 41 5 7 
8 8 8 7 7 7 7 6 4 6 6 4 5 5 5 5 5 7 6 6 4 7 7 7 6 7 9 9 9 9 10 10 10 8 10 9 10 8 9 8 8 6 10 8 9 8 8 8 8 8 8 7 7 7 7 7 9 7 7 7 7 7 5 6 6 4 7 7 7 7 7 7 10 10 10 9 9 9 8 8 8 7 7 9 9 7 8 7 7 7 8 6 7 7 7 7 7 7 7 8 8 8 8 8 8 8 8 8 10 10 10 11 9 10 8 6 7 6 6 6 5 5 5 5 7 6 6 6 6 12 6 8 47 7 7 62 8 6 62 6 5 62 6 7 63 7 10 63 7 6 62 6 5 62 6 5 61 7 7 62 21 19 60 25 19 62 45 37 62 33 27 60 10 9 60 6 6 60 9 8 62 8 8 62 33 27 63 54 45 62 55 45 63 38 33 60 8 10 61 10 9 63 9 9 61 15 15 62 38 34 64 41 35 63 38 31 63 9 9 62 11 10 60 8 10 59 8 7 62 11 10 61 7 7 60 4 7 59 8 7 61 10 9 60 10 9 60 6 6 60 4 5 62 8 8 62 18 17 60 35 28 45 34 28 30 25 21 23 22 18 12 10 11 9 9 9 8 8 8 8 6 7 6 6 6 6 6 6 7 6 4 8 6 7 5 5 5 5 5 5 
8 6 7 7 7 7 8 7 5 6 6 6 5 5 7 5 5 7 7 7 7 8 8 8 7 7 5 7 7 7 8 8 8 8 8 8 10 10 10 9 9 9 9 9 9 9 9 7 8 8 8 8 8 8 9 7 10 8 8 8 6 6 4 5 5 5 4 6 5 8 8 6 10 10 10 10 10 10 8 8 8 10 9 7 7 7 7 7 7 7 9 8 6 7 7 9 8 8 10 8 8 10 8 6 7 9 8 6 10 10 8 9 9 9 7 9 8 6 8 7 6 4 5 6 6 8 6 6 6 6 6 8 17 5 5 50 6 7 61 7 7 63 7 10 62 8 8 60 9 6 61 7 5 61 5 4 63 9 9 59 46 37 60 52 39 59 56 41 61 52 43 60 19 15 61 7 7 60 9 8 61 10 9 61 28 23 60 47 39 61 48 40 63 29 27 61 10 9 61 10 9 60 12 10 61 17 16 62 8 6 62 8 8 64 8 7 61 10 9 60 10 11 61 9 11 58 8 7 60 9 8 61 7 7 61 13 11 59 18 14 61 20 16 61 13 13 60 6 6 60 4 5 61 5 6 59 34 27 60 50 40 59 46 37 61 48 39 45 35 26 25 11 11 22 10 10 22 8 8 21 10 8 17 17 15 7 7 7 9 7 8 8 8 8 7 5 8 6 6 6 
7 7 5 6 4 5 7 6 4 6 6 8 7 7 7 7 7 7 8 8 6 8 8 8 9 7 8 9 7 8 9 9 11 9 9 9 9 11 10 10 10 12 9 9 9 9 9 9 10 9 7 9 7 8 8 8 10 8 6 7 7 6 4 6 4 5 6 4 5 8 8 8 9 9 9 11 10 8 9 9 9 8 8 8 8 8 8 8 8 8 8 8 8 10 10 10 8 8 8 7 7 7 7 7 7 7 7 7 7 7 7 8 8 8 8 8 8 7 7 7 7 7 7 6 6 4 6 8 7 7 5 6 6 6 8 14 6 4 48 8 8 48 6 8 49 9 10 49 9 9 50 8 9 62 8 6 64 8 9 62 49 40 60 54 42 61 55 43 62 54 43 60 19 17 63 9 9 61 10 9 63 9 9 61 10 9 61 26 24 61 26 22 60 9 6 60 10 9 60 9 8 60 16 13 62 33 27 60 9 8 63 9 7 62 11 10 61 10 9 60 9 8 61 11 12 59 9 8 59 7 9 62 8 8 61 47 38 60 50 40 60 52 39 61 20 16 60 6 6 60 6 6 60 6 6 59 36 28 62 52 42 61 49 37 57 47 37 60 32 28 60 10 9 61 11 12 58 10 8 61 17 14 48 35 29 9 9 9 9 9 7 9 9 7 8 8 8 6 6 6 
6 8 7 4 6 3 6 6 6 8 8 8 10 8 9 11 10 8 10 10 8 10 10 10 9 7 8 9 9 9 10 10 10 10 8 9 10 8 9 9 9 9 10 10 10 10 8 9 7 7 7 9 9 9 8 8 8 6 8 7 9 7 8 8 10 9 8 6 7 8 8 8 8 8 8 9 9 7 7 9 8 7 9 8 7 7 7 8 8 8 8 8 8 9 9 9 8 8 8 7 7 7 6 6 6 6 6 6 7 7 7 8 8 8 8 8 8 7 7 7 11 10 8 21 15 15 17 7 8 7 7 7 6 6 6 6 6 8 6 6 6 7 7 7 9 9 9 10 9 7 9 9 9 48 10 9 48 10 9 59 40 33 61 42 35 60 41 34 61 41 34 60 16 13 62 8 8 60 8 10 62 8 8 62 7 10 61 7 5 62 8 8 61 10 9 59 9 8 58 12 12 50 8 10 62 8 8 60 9 8 63 11 13 62 23 18 61 23 22 61 10 9 59 11 11 61 10 9 61 10 7 62 16 16 62 49 40 60 52 41 61 53 40 63 19 16 48 6 7 45 5 5 54 6 6 61 30 27 61 47 38 59 49 37 59 42 32 60 25 21 61 9 11 62 11 10 62 11 8 62 8 8 52 8 7 23 7 7 22 8 8 9 9 9 8 8 8 9 7 8 
7 7 7 5 5 5 6 6 6 8 10 7 10 10 10 10 10 10 17 11 11 17 16 14 14 14 14 16 15 13 12 10 11 7 7 5 9 9 7 9 9 9 9 9 9 8 8 8 8 8 8 8 6 7 8 6 9 8 8 8 9 7 10 8 8 8 8 8 8 14 8 8 15 6 9 14 8 8 15 9 9 9 7 8 8 8 8 8 8 8 8 8 6 9 9 11 8 8 8 7 7 7 6 6 6 6 6 6 6 6 6 7 7 7 6 6 6 7 7 7 27 23 20 62 37 30 52 10 11 10 9 7 5 5 7 5 5 5 6 5 3 7 5 8 8 8 8 9 9 9 10 10 10 10 10 10 9 9 9 49 9 10 59 9 8 60 8 10 62 8 8 59 8 7 60 9 8 60 9 8 61 5 6 60 6 6 61 5 6 60 9 8 60 10 9 58 10 10 39 11 10 22 8 8 63 7 8 62 14 12 63 25 22 64 57 49 62 52 43 62 13 16 61 10 9 61 11 10 61 11 10 62 45 35 59 52 42 61 55 43 61 57 46 56 21 19 20 6 6 5 5 5 41 7 6 62 8 8 60 27 20 60 43 33 59 26 19 60 9 8 61 10 9 61 11 12 62 11 10 63 9 9 62 8 8 62 7 10 54 8 8 9 9 7 8 8 8 11 9 10 
7 5 6 6 6 4 7 7 7 9 9 9 15 9 9 17 9 7 49 7 8 59 39 32 60 53 43 61 53 42 27 23 20 7 7 7 9 7 8 9 9 7 8 8 8 7 7 7 6 6 6 6 6 8 6 4 5 7 7 5 8 8 10 8 8 8 13 8 5 61 6 9 59 8 5 60 9 8 62 8 8 14 9 6 10 9 7 9 9 9 8 8 8 7 7 7 6 6 6 6 6 6 6 6 6 5 5 5 6 6 6 6 6 6 6 6 6 6 6 6 26 23 18 60 50 40 58 41 33 46 7 8 6 6 6 6 6 6 7 5 6 6 6 6 5 7 6 8 8 8 8 8 6 9 7 8 7 7 7 9 9 9 51 9 10 59 8 7 62 8 8 61 7 7 61 7 7 61 7 7 60 6 4 60 4 3 61 5 8 61 11 12 63 15 13 43 13 11 11 11 11 22 10 10 62 11 10 62 22 22 62 58 49 62 58 47 65 58 50 63 54 45 63 9 9 62 11 10 62 12 13 61 11 12 58 41 34 60 50 41 61 52 43 29 21 19 7 7 7 7 7 7 41 7 6 62 8 6 59 8 7 58 8 7 60 6 6 58 7 6 60 9 6 60 9 8 64 9 12 62 8 8 61 10 9 60 14 14 54 14 14 17 13 12 9 9 11 8 8 8 
6 6 4 6 6 6 13 11 12 14 9 6 54 8 8 62 7 10 59 8 7 59 39 30 60 52 41 62 52 42 31 23 21 10 6 5 7 7 7 10 8 9 8 8 8 6 6 6 5 5 5 6 6 4 6 6 8 6 6 8 7 7 7 7 7 7 14 9 6 63 7 8 63 7 8 61 7 7 55 9 11 17 9 7 10 10 8 10 10 10 8 8 8 7 7 7 6 6 6 5 5 5 6 6 6 6 6 6 7 7 7 6 6 6 6 6 6 6 6 6 22 19 14 52 45 35 44 40 31 7 7 7 6 6 6 7 6 4 6 6 6 4 6 5 6 6 6 7 5 6 6 6 4 6 6 6 9 9 11 9 7 8 47 8 9 54 10 11 62 8 8 61 7 7 61 6 9 60 6 6 61 5 6 60 4 3 59 8 5 62 33 25 59 52 42 41 38 31 12 12 12 23 11 11 64 13 12 62 22 20 62 52 43 62 58 47 64 60 49 62 55 45 60 9 6 60 9 8 60 10 11 62 11 10 59 9 8 61 7 5 63 7 8 63 7 8 28 8 9 16 7 8 46 8 7 61 7 7 62 8 8 61 10 9 62 8 8 61 7 7 60 6 6 59 9 8 61 10 9 63 9 9 60 19 17 60 57 48 60 56 45 55 48 38 8 10 9 9 9 9 
5 5 5 7 7 5 54 45 36 61 11 10 60 4 5 62 6 5 62 8 8 63 43 36 61 51 41 61 51 39 59 22 16 34 5 7 7 7 7 9 9 11 9 9 9 7 7 7 8 7 5 6 6 6 7 5 6 6 6 6 6 6 8 7 7 7 14 5 6 63 7 6 58 8 7 63 7 8 9 9 9 10 10 12 13 9 10 10 10 10 10 10 10 8 7 5 5 5 5 4 4 4 6 6 6 6 6 6 7 7 7 7 7 7 7 7 7 7 7 7 6 6 4 6 6 6 8 6 7 8 7 5 8 6 7 6 6 6 7 7 7 7 7 7 8 8 8 6 6 6 5 5 5 7 7 7 10 8 9 9 9 11 11 11 9 11 11 11 49 9 9 62 8 8 61 7 7 60 6 6 60 4 3 64 6 5 60 29 24 62 54 43 46 39 33 14 13 11 14 12 13 26 12 12 64 12 14 64 13 12 63 18 15 61 57 48 64 60 51 60 56 45 59 7 9 62 6 7 60 10 9 63 11 15 59 8 5 59 8 7 62 6 7 62 8 6 60 9 8 61 7 7 60 6 6 62 6 7 61 7 7 61 10 9 60 9 8 60 6 6 61 5 6 61 7 7 62 11 10 60 10 9 62 20 21 61 57 48 62 58 47 54 47 37 9 8 6 8 8 6 
60 53 45 61 53 42 59 51 40 62 12 11 60 6 6 60 6 6 63 9 9 61 44 36 62 55 45 60 25 21 60 6 6 60 6 6 62 6 5 36 7 9 9 9 9 8 8 8 7 7 7 8 7 5 6 6 6 6 4 5 5 5 5 5 5 5 7 7 7 8 7 5 60 54 40 8 8 8 9 9 9 10 10 10 10 8 9 10 10 10 11 11 11 9 9 9 6 6 6 5 5 5 6 6 6 7 7 7 6 6 6 6 6 6 6 6 6 6 6 6 5 5 5 7 6 4 8 10 9 8 8 8 7 7 7 6 6 8 7 7 7 9 7 8 8 6 7 7 7 9 6 4 5 6 6 6 7 7 7 9 9 9 11 10 8 10 10 10 9 9 11 49 42 34 25 24 19 7 7 7 5 5 5 6 6 6 8 8 8 37 32 28 62 55 45 44 41 34 30 29 24 62 45 38 62 12 13 62 12 13 60 10 9 62 11 10 63 9 9 61 10 9 62 8 8 62 8 8 62 12 11 63 13 14 62 8 8 60 9 8 63 9 7 62 8 6 63 7 10 63 7 8 62 8 8 60 6 6 58 7 6 60 31 27 61 53 42 61 51 41 61 34 27 63 7 6 62 10 12 63 13 14 60 20 18 62 58 49 62 55 45 61 55 43 64 57 49 8 8 8 
60 50 40 60 50 41 59 52 42 60 15 12 61 10 9 62 6 7 63 7 8 62 8 6 62 6 7 61 6 9 54 6 6 57 6 5 62 6 5 62 6 7 42 8 6 8 8 10 7 7 7 19 4 7 46 4 5 5 5 5 5 5 5 7 7 5 8 8 8 9 7 8 8 8 8 8 8 8 7 7 7 8 8 10 8 8 8 9 9 9 10 10 10 11 11 9 8 8 8 6 6 6 6 6 6 8 8 8 6 6 6 7 7 7 6 6 6 5 5 5 5 5 5 6 5 3 6 6 6 7 7 9 6 6 6 7 7 7 9 7 8 8 8 8 8 8 6 7 7 7 8 8 10 7 7 5 7 7 7 10 8 9 10 8 9 8 8 8 8 10 9 7 7 7 7 6 4 5 5 5 5 4 2 4 4 4 7 7 7 10 10 10 12 12 12 11 11 11 9 9 9 21 7 7 61 7 7 60 9 8 61 9 11 61 10 7 62 11 10 62 8 8 65 6 8 61 9 11 62 12 13 60 9 8 59 8 7 61 10 7 61 10 9 64 46 42 64 57 51 62 28 26 61 7 7 60 6 6 60 29 24 60 53 43 60 54 42 59 51 40 58 31 24 60 6 6 62 10 12 62 12 11 62 8 8 62 10 12 64 57 49 63 50 42 63 7 8 60 9 8 
59 5 5 61 5 4 61 10 9 62 11 10 63 50 42 62 21 19 62 8 8 59 8 7 61 7 5 60 6 6 56 5 4 59 5 3 61 5 6 60 4 5 61 5 6 60 6 6 60 22 19 60 52 41 61 49 37 60 37 29 60 4 3 52 6 8 8 10 9 9 9 9 8 8 8 8 8 10 8 8 8 10 8 9 9 8 6 9 9 7 10 12 11 15 11 12 9 9 9 7 7 7 6 8 7 6 7 9 6 6 6 8 6 7 7 7 7 5 5 5 4 6 5 6 6 6 5 5 7 5 5 3 7 5 6 6 6 6 9 8 6 9 9 9 8 8 10 7 7 7 8 6 7 8 8 10 11 7 8 10 10 10 9 9 11 9 7 10 7 7 7 8 8 10 7 5 8 5 5 5 5 4 2 5 3 4 7 5 6 9 9 11 11 11 11 11 11 9 29 9 8 48 8 8 7 7 7 21 7 7 60 9 8 60 10 11 61 11 10 60 9 8 59 8 7 62 7 10 60 10 9 61 7 7 62 8 8 60 9 8 62 45 37 63 59 50 63 58 52 63 28 26 60 9 8 61 7 7 59 5 5 60 30 20 60 52 41 58 49 40 58 30 26 61 5 6 62 11 8 60 10 9 62 7 10 62 8 8 60 6 6 59 8 5 61 7 7 61 7 7 
61 44 36 61 47 38 61 15 15 63 12 11 61 17 18 64 14 13 61 9 11 58 8 7 61 6 9 59 28 23 58 44 35 59 24 20 61 5 6 61 5 4 60 6 6 61 20 18 61 52 43 60 52 41 60 52 39 60 37 29 62 3 5 60 6 6 45 10 8 9 9 9 9 9 7 9 9 9 9 9 9 8 8 10 8 8 6 8 8 8 46 7 8 54 10 9 54 10 11 54 8 8 52 6 8 23 7 7 7 7 7 6 6 6 5 5 5 6 4 5 6 6 8 6 6 6 6 6 6 7 7 7 7 7 9 9 8 6 8 8 8 8 8 8 10 8 9 6 7 9 7 7 7 9 7 10 8 8 8 11 9 12 10 8 9 7 7 7 8 6 7 8 6 7 6 6 6 6 6 6 6 6 4 5 5 5 8 8 8 10 10 10 10 10 8 10 10 10 12 10 11 18 9 10 8 8 8 8 8 8 17 8 9 16 12 11 17 12 9 16 7 8 14 8 8 18 10 8 61 10 9 60 4 5 61 10 9 61 42 35 62 52 42 62 58 49 62 59 50 62 28 27 60 9 8 62 6 5 60 6 4 60 30 22 60 52 41 57 48 39 59 31 27 61 5 6 63 7 8 62 8 8 62 11 10 61 10 9 61 11 12 60 8 10 60 9 8 59 8 7 
60 49 43 61 13 11 62 8 8 60 9 8 61 9 11 62 12 13 62 11 10 24 8 9 13 4 5 42 33 26 59 53 41 61 51 42 63 28 24 60 4 5 60 4 3 59 24 20 62 53 44 59 49 39 61 51 41 60 40 29 60 4 3 61 7 7 60 10 11 52 11 9 10 10 10 9 9 9 55 9 11 54 10 7 54 8 8 53 9 8 57 8 4 59 7 9 62 8 8 63 8 11 62 8 8 56 8 8 52 8 9 30 8 10 4 6 5 5 3 4 6 6 4 8 6 7 7 7 7 9 9 9 10 10 10 8 8 6 9 9 9 8 8 8 8 8 6 8 8 8 7 7 7 7 7 7 7 7 9 9 9 9 8 8 10 8 8 8 6 6 6 7 7 7 7 5 6 7 5 6 7 5 6 8 8 8 9 9 9 10 10 8 10 10 8 11 11 9 26 10 10 54 10 11 41 10 8 9 9 9 11 9 12 11 11 11 9 9 7 8 6 7 8 8 8 10 9 7 14 8 8 15 6 7 53 7 7 61 48 39 62 56 44 63 56 46 65 57 46 62 27 23 60 8 10 61 7 7 61 5 6 59 10 6 59 14 11 58 14 13 43 12 10 12 6 6 26 4 6 61 7 7 61 10 9 61 10 9 62 12 13 60 10 9 62 8 8 59 8 7 
61 10 9 60 6 6 62 43 37 60 50 38 61 13 11 60 9 6 26 10 11 11 7 8 6 6 6 41 37 28 60 56 44 61 57 45 62 29 22 58 2 1 57 6 3 60 9 6 60 25 19 60 50 40 59 39 28 60 10 9 59 5 3 58 8 7 61 10 9 63 8 11 9 9 9 9 9 9 15 11 10 58 10 10 60 9 8 61 10 9 61 10 9 60 9 8 60 9 8 61 31 23 62 44 34 60 21 14 62 8 8 34 8 9 5 7 6 5 5 5 5 5 3 5 5 5 6 6 6 9 9 9 11 11 11 11 12 14 10 10 10 16 15 13 53 49 37 53 46 36 52 43 34 52 6 6 13 7 7 7 7 7 7 9 6 8 8 6 7 9 8 7 8 3 6 6 8 7 5 6 7 7 7 8 6 7 8 8 8 9 9 9 27 11 12 54 23 20 57 48 39 59 39 32 48 10 9 9 9 9 9 9 9 10 10 10 10 10 8 6 6 6 8 8 8 8 8 8 4 6 5 5 5 5 54 8 8 62 14 14 61 47 38 62 55 45 63 26 20 62 12 11 61 9 11 60 9 8 60 6 6 60 6 4 61 7 5 60 9 8 41 7 6 4 6 5 19 5 5 61 7 7 61 10 9 60 9 8 63 15 13 60 43 33 60 44 31 60 6 6 
62 3 5 58 41 31 59 53 41 60 52 39 61 41 34 60 16 15 22 10 10 8 8 8 7 7 9 41 36 30 61 55 43 61 55 43 60 29 24 60 4 3 60 4 5 60 6 6 60 12 12 59 18 16 60 12 8 60 6 4 61 7 7 61 6 9 61 10 9 61 10 9 8 8 10 8 8 8 8 10 9 54 10 11 59 9 10 60 9 8 61 10 9 61 10 9 57 28 20 57 43 30 59 50 35 61 41 32 61 24 18 54 8 10 26 6 7 5 5 7 6 6 6 6 6 6 8 7 5 7 7 7 10 10 10 12 12 12 48 11 5 51 11 11 59 20 15 59 18 16 58 17 13 60 4 5 11 6 3 8 6 9 7 7 7 8 8 10 8 8 8 7 7 7 5 5 5 7 5 6 7 5 6 8 7 5 8 8 8 9 9 9 28 20 17 59 50 35 62 56 44 53 44 37 20 10 9 10 10 10 8 8 8 9 8 6 9 9 9 9 9 9 11 9 10 8 8 6 3 5 4 5 5 5 20 6 6 54 8 8 62 18 17 61 21 19 61 13 13 61 10 9 62 8 8 60 9 6 63 7 8 61 5 6 60 6 6 60 6 6 40 6 5 5 3 6 19 5 5 60 9 8 60 9 8 60 6 6 63 13 12 60 47 39 59 46 37 61 41 32 
60 4 5 60 54 40 61 51 39 60 50 38 62 53 44 61 20 16 53 9 10 47 8 9 47 6 4 57 13 12 58 17 11 61 17 14 61 11 10 61 5 4 61 5 6 62 6 7 61 7 7 59 8 7 60 6 6 60 4 3 59 3 2 64 5 7 59 8 7 59 8 7 46 8 7 48 8 8 49 45 36 61 41 34 61 15 15 60 10 11 61 9 11 60 9 8 57 34 26 58 48 36 61 51 39 62 50 36 59 29 21 60 9 8 54 8 8 32 6 7 6 4 5 6 6 6 7 7 7 8 8 8 19 9 8 53 9 10 62 8 8 61 7 7 63 7 10 59 5 5 59 5 5 62 6 7 46 6 6 16 7 8 9 9 11 8 10 9 8 8 8 7 7 5 6 6 6 5 5 5 7 5 6 6 6 6 8 8 8 10 8 9 16 15 13 23 22 18 37 33 30 49 46 37 10 10 10 10 8 9 6 6 6 8 8 8 9 9 9 12 10 11 12 12 12 8 8 8 4 4 4 6 4 5 6 7 9 21 9 9 52 8 9 63 9 9 61 10 9 60 8 10 61 7 7 62 8 8 61 7 5 60 4 3 61 23 20 62 42 33 53 39 30 31 28 21 17 5 5 63 9 7 60 9 8 61 5 4 63 13 12 60 52 41 60 50 41 60 52 39 
61 5 4 61 51 41 57 51 39 59 53 39 61 26 22 63 9 9 61 6 11 59 7 9 61 6 9 60 6 6 60 6 6 61 7 7 61 6 9 61 7 5 61 5 6 60 6 4 60 6 6 61 7 7 62 6 7 60 4 5 62 4 3 61 5 6 60 6 6 59 7 9 62 8 6 58 46 34 62 56 44 62 50 38 63 41 28 61 16 11 61 9 11 59 7 9 56 15 13 60 35 28 61 52 37 61 49 37 58 27 22 61 7 7 60 9 6 57 7 8 47 7 7 46 6 7 47 7 8 48 9 10 53 9 10 62 8 6 62 8 8 62 8 6 60 9 8 62 8 8 61 5 4 61 7 7 61 7 7 49 7 8 16 7 8 9 9 9 7 9 8 8 8 8 5 5 5 6 6 6 4 6 5 6 6 6 9 9 7 8 10 9 9 9 9 11 11 11 18 18 16 20 19 15 9 9 7 8 8 8 9 9 7 8 8 8 9 9 9 13 11 12 13 13 13 9 9 11 6 4 5 5 5 5 7 7 7 10 8 9 17 8 9 20 8 8 51 7 8 62 8 6 61 7 7 59 8 7 61 7 7 61 5 4 59 26 21 59 49 39 58 48 38 54 46 35 49 32 24 61 9 11 59 8 7 61 10 7 60 15 12 62 56 44 59 55 43 61 55 43 
60 5 8 59 24 18 59 49 39 61 28 23 62 11 10 61 7 7 60 6 6 61 7 7 63 7 8 60 9 8 64 8 9 61 9 11 61 10 9 62 8 8 59 5 5 59 5 3 59 4 7 60 15 12 60 37 29 63 36 29 60 35 30 60 33 26 60 6 4 59 8 7 59 8 7 59 55 43 59 51 40 61 47 36 61 49 37 60 16 13 59 9 10 58 7 6 57 9 9 59 19 17 60 40 31 62 35 28 61 15 15 61 7 7 62 8 6 62 7 10 59 7 9 59 7 9 61 10 9 60 10 11 60 10 9 60 10 9 61 10 9 62 11 10 62 8 8 61 7 7 61 7 5 63 35 31 62 37 32 61 10 9 42 6 6 42 8 7 14 9 6 7 7 7 6 6 6 5 5 5 5 5 5 6 6 4 8 7 5 8 10 9 9 11 10 11 11 11 12 10 11 11 9 10 10 10 10 9 9 11 9 9 11 9 9 9 12 8 9 12 12 10 12 12 12 10 10 10 6 6 6 7 6 4 7 7 7 8 8 8 8 8 8 8 6 7 22 6 7 27 7 6 27 7 6 25 5 6 27 6 5 43 4 5 58 14 13 57 33 23 58 48 36 58 50 39 59 46 37 61 28 21 62 8 8 63 9 9 60 12 10 60 25 19 59 24 18 61 23 20 
29 8 5 62 6 9 60 20 18 61 11 10 64 10 10 61 7 7 61 7 5 60 6 6 62 8 8 60 9 6 60 9 8 61 21 19 59 36 30 62 22 20 62 6 7 56 6 5 56 4 6 61 17 14 60 54 42 62 54 41 61 53 40 60 48 36 58 7 4 61 7 7 63 8 11 61 26 22 60 47 38 61 49 35 61 47 34 58 14 11 59 9 8 60 9 8 57 9 7 58 8 7 62 18 15 59 13 13 61 7 7 60 6 6 61 7 7 59 8 7 58 6 8 59 8 7 62 8 8 62 12 11 61 11 12 61 9 11 62 12 13 62 11 10 59 8 7 63 7 8 59 34 29 62 56 44 63 56 46 63 40 34 60 10 11 61 7 7 47 7 7 39 24 21 40 31 22 40 31 24 21 17 14 6 8 7 8 6 7 9 7 8 9 9 9 11 11 11 11 11 11 11 11 9 10 10 10 10 10 10 9 9 9 8 10 9 11 9 10 11 11 9 11 11 11 10 10 8 8 8 8 7 7 7 6 6 4 7 7 7 8 8 8 8 8 6 9 7 8 8 6 7 7 5 6 4 4 4 6 6 6 17 7 8 26 6 7 39 22 15 59 49 37 58 48 39 57 40 30 59 21 18 62 11 10 61 10 9 59 8 5 59 5 5 60 6 4 59 5 5 
6 8 7 60 6 6 61 7 7 62 8 8 61 10 7 62 8 8 60 6 6 62 6 7 62 8 8 64 10 10 61 26 22 60 46 37 62 55 45 62 33 29 57 7 6 58 7 6 58 7 6 62 18 15 62 54 43 60 52 39 60 55 36 61 49 35 60 6 6 59 8 7 59 9 8 60 8 10 61 24 18 61 23 20 61 26 20 60 12 10 60 10 11 60 10 9 52 8 9 57 7 6 59 8 7 62 6 7 58 7 4 59 5 5 63 7 8 60 6 6 61 17 14 59 24 20 61 15 15 60 37 29 62 35 28 60 37 31 60 35 30 64 10 10 59 8 7 62 8 8 60 51 42 61 55 43 62 53 44 62 29 22 62 12 13 60 9 8 60 8 10 56 16 16 57 37 28 62 50 38 48 25 19 24 10 10 8 6 7 7 7 5 10 8 9 11 11 11 11 11 11 11 11 11 10 10 8 9 9 9 8 8 8 8 8 8 9 9 7 10 10 10 10 10 12 43 38 32 9 9 11 7 5 6 4 4 2 7 7 7 10 8 9 9 9 9 7 7 5 7 7 7 5 5 5 3 3 5 4 6 5 9 7 8 8 8 6 26 10 10 60 21 16 61 21 19 58 18 16 60 10 9 64 10 8 64 10 10 60 5 8 59 3 2 60 4 5 26 6 7 
5 7 6 30 4 3 56 5 4 63 7 8 63 7 6 62 8 8 61 7 7 62 8 6 61 7 7 61 10 9 61 38 32 61 57 46 62 58 47 60 43 35 47 19 16 36 7 9 34 6 5 40 12 9 60 35 28 60 53 37 62 50 38 61 28 23 61 5 6 59 8 7 60 9 8 61 10 9 61 10 9 60 10 11 61 11 10 60 10 9 61 10 9 58 8 7 57 9 9 39 7 8 35 6 8 49 20 16 60 27 20 61 16 13 61 5 6 61 5 6 61 24 18 60 43 35 62 35 28 60 52 39 60 52 39 61 53 42 61 48 39 61 10 9 60 9 8 60 5 8 61 52 43 61 55 43 62 34 30 58 14 13 60 10 11 60 8 10 61 9 11 60 10 9 60 22 19 60 29 24 61 17 14 48 8 8 35 7 6 21 7 7 8 8 6 11 11 11 11 11 11 11 11 11 11 9 10 9 9 11 8 8 8 9 9 9 11 10 8 33 9 7 35 32 27 61 59 46 9 9 11 6 8 7 4 6 5 8 8 8 9 9 9 10 8 11 8 8 8 7 7 7 5 5 5 4 4 4 5 5 5 7 7 7 7 7 7 17 7 6 43 7 7 59 8 7 58 8 7 59 9 8 55 9 9 36 10 11 32 6 5 33 5 4 34 5 7 6 6 6 
4 4 4 5 3 4 26 5 4 58 27 22 63 32 27 60 31 27 62 14 12 63 9 9 62 8 8 59 8 7 62 37 32 61 57 46 60 58 46 59 53 41 38 33 27 7 7 7 8 6 7 13 7 7 39 11 8 59 28 23 61 26 22 62 6 7 62 6 7 60 6 6 61 6 9 59 8 5 61 10 9 60 12 10 62 12 11 58 10 8 61 10 9 59 8 7 39 7 8 18 8 9 8 6 7 41 32 23 60 46 33 60 38 27 58 17 13 61 5 8 62 12 11 59 39 32 61 51 41 61 53 42 61 55 43 62 55 39 63 46 38 60 9 8 62 8 8 33 7 8 34 31 26 61 30 25 60 10 9 60 10 9 60 10 11 60 10 11 62 11 10 60 10 9 60 10 11 60 10 11 60 9 8 58 8 7 62 6 7 32 6 7 6 6 6 10 10 12 12 12 12 11 13 12 11 9 10 8 8 8 9 7 8 9 9 9 15 9 9 62 6 7 61 57 46 63 61 49 11 9 12 7 7 9 6 6 6 8 8 8 9 9 9 8 8 8 9 9 9 9 8 6 6 6 6 5 5 5 6 6 4 6 6 6 8 7 5 7 7 7 28 17 13 60 20 18 59 8 7 53 9 8 29 9 10 10 10 10 9 9 7 5 5 7 8 8 8 5 5 5 
5 5 5 4 4 4 4 4 4 29 26 21 56 53 44 60 56 47 62 21 17 62 11 10 63 8 11 61 7 7 60 37 31 61 54 44 61 57 46 47 44 35 21 20 16 7 7 9 7 7 7 7 7 5 12 6 6 40 4 4 60 6 4 60 5 8 61 7 7 57 5 7 60 6 6 60 9 8 62 10 12 60 12 12 61 28 23 58 28 20 61 13 11 60 9 6 19 7 9 7 7 7 7 7 7 38 29 20 56 43 27 60 48 34 61 28 21 59 5 5 61 6 9 61 17 16 61 36 31 61 54 44 62 53 44 62 50 38 61 26 22 58 7 4 58 7 6 7 7 7 35 6 8 60 9 8 63 7 8 63 9 7 59 11 9 60 10 11 60 10 9 60 10 11 60 9 8 60 9 8 61 22 17 61 30 25 62 18 17 47 7 7 33 7 8 27 9 9 10 10 10 12 12 12 12 10 11 12 8 9 11 9 10 34 10 10 37 9 8 60 7 3 61 33 29 62 59 52 38 34 31 11 11 9 6 6 6 7 9 8 8 8 6 9 7 8 8 8 6 8 8 8 7 7 7 6 6 6 7 7 7 7 7 7 7 7 9 8 8 10 19 15 12 44 29 22 54 23 21 28 8 9 9 7 8 9 9 9 10 10 8 7 7 5 8 8 8 9 9 9 
4 4 4 5 3 4 6 4 5 5 5 5 36 35 30 60 53 45 62 21 19 64 10 10 60 9 8 59 8 5 60 25 21 61 36 31 50 37 29 22 21 16 6 4 5 8 8 8 7 7 7 6 4 5 6 6 6 21 5 6 61 7 7 61 7 7 60 9 6 58 7 6 61 5 6 59 8 7 61 9 11 60 22 19 59 45 34 61 44 34 59 28 23 60 10 9 21 7 7 7 7 7 19 15 12 43 33 23 55 43 29 60 48 34 59 29 21 60 6 6 61 7 7 64 9 12 63 17 17 63 39 35 62 39 33 61 32 26 61 7 7 59 5 5 59 5 5 25 7 3 60 9 6 60 9 8 60 9 8 62 8 8 59 11 11 60 10 9 63 9 9 60 9 8 61 10 9 60 19 17 60 42 32 60 52 41 60 29 24 59 8 7 61 7 5 40 9 7 9 11 10 12 12 12 17 17 17 29 19 17 31 11 10 61 9 11 60 6 6 60 6 6 61 7 7 63 39 35 62 39 33 29 9 8 9 5 4 8 8 10 9 9 9 8 6 7 7 7 7 9 7 8 8 6 7 7 7 7 7 7 7 7 7 7 7 7 7 7 7 5 7 7 9 27 24 19 48 39 32 8 8 8 6 8 5 7 7 7 7 7 7 6 6 6 8 8 8 11 11 11 
5 5 5 5 5 7 6 6 6 6 6 6 7 7 7 30 29 24 42 18 16 60 10 13 63 9 9 61 7 7 47 5 6 41 7 5 25 7 7 6 8 5 6 6 6 7 7 7 7 7 7 6 6 4 7 7 7 23 14 15 62 27 25 61 26 22 60 22 19 58 7 6 59 5 5 60 5 8 60 9 8 61 47 36 59 49 39 59 47 35 61 45 32 60 16 13 37 7 7 26 8 6 44 19 15 59 37 24 58 42 29 57 47 35 59 29 21 61 7 7 61 7 7 61 9 11 62 14 12 65 17 17 63 13 14 59 9 8 58 7 6 62 6 7 57 6 5 58 7 6 58 8 7 59 8 7 55 15 13 52 17 15 53 18 14 56 11 8 61 10 9 61 10 9 60 19 15 62 39 31 61 51 39 61 51 41 60 31 27 60 9 8 60 8 10 47 8 9 29 9 10 30 10 11 37 17 18 62 33 29 61 13 11 60 10 9 61 7 7 58 7 6 62 8 8 62 8 8 62 6 7 45 7 6 11 7 8 10 8 9 9 9 11 7 7 7 7 7 7 7 7 7 6 8 7 8 8 8 7 7 7 7 7 5 7 5 8 7 7 7 8 6 7 20 19 17 35 32 27 8 8 8 7 9 8 6 8 7 6 6 6 5 7 6 10 8 9 11 11 11 
6 5 3 6 7 9 9 9 9 7 9 6 7 7 7 7 7 7 9 7 8 31 10 9 43 9 8 39 5 4 20 6 6 7 5 6 7 7 5 7 7 7 8 8 10 8 8 8 7 7 5 6 6 6 8 6 7 17 17 15 43 40 35 42 39 34 44 37 31 59 24 20 59 5 5 59 5 5 58 8 7 64 47 37 59 49 39 59 47 35 59 32 23 58 14 11 57 7 6 55 7 5 56 6 5 58 19 12 60 30 22 60 31 23 59 19 17 62 8 6 60 9 8 60 10 11 62 13 16 65 17 17 63 13 12 59 8 7 60 6 6 60 4 3 62 6 7 62 8 8 50 8 9 42 8 7 42 29 21 43 33 24 49 36 27 53 15 12 58 8 9 60 8 10 61 23 20 59 45 36 61 51 41 61 52 43 60 29 26 59 9 8 58 8 7 60 9 8 59 8 7 60 10 9 61 13 13 62 14 14 60 12 10 60 10 9 61 7 5 60 6 6 62 8 8 62 7 10 60 6 6 31 22 17 10 10 10 7 9 8 7 5 6 6 6 6 7 7 5 8 6 7 8 8 6 9 9 9 9 9 9 8 8 8 7 7 7 9 8 6 8 8 8 8 8 8 9 7 8 9 9 9 8 7 5 7 7 7 8 6 7 7 7 7 10 8 9 10 6 5 
4 4 2 8 8 8 8 8 10 8 8 8 7 7 7 9 7 8 8 6 7 7 7 7 7 7 5 7 7 7 7 7 7 7 7 7 7 7 7 7 7 7 9 9 11 9 7 8 9 7 8 8 8 8 9 9 9 8 8 8 9 9 7 6 6 6 12 11 9 47 38 29 45 5 5 45 5 5 48 8 9 49 39 30 57 40 30 60 35 28 56 15 13 57 7 6 57 9 9 56 8 6 59 8 7 60 6 4 57 6 5 57 6 5 61 7 5 60 9 8 60 10 9 60 12 12 63 15 13 63 15 15 62 14 14 59 18 16 60 16 15 61 17 16 65 7 6 57 9 7 37 7 5 33 7 8 40 26 23 46 33 25 52 39 30 54 16 13 58 7 6 61 10 9 60 9 8 60 29 24 61 41 32 59 40 33 59 24 20 60 9 8 61 10 9 60 9 8 60 9 8 60 10 11 62 12 13 59 13 13 59 14 11 59 9 8 61 7 7 61 7 7 59 8 7 60 9 8 60 19 17 59 50 41 25 21 18 22 18 15 19 7 7 7 3 2 6 6 6 6 6 6 9 9 9 9 9 9 10 10 8 8 8 8 7 7 7 7 7 5 8 8 8 9 7 8 10 8 9 7 9 6 7 7 7 7 7 7 7 7 7 7 7 7 6 7 9 6 6 6 
6 4 5 8 8 6 7 7 9 6 6 6 8 6 7 7 7 9 7 7 7 7 7 7 7 7 7 8 8 8 7 7 9 8 7 5 7 7 7 7 7 5 7 7 7 8 8 8 8 8 8 8 8 6 8 6 7 7 7 7 6 6 6 5 5 5 6 4 5 5 5 5 5 5 3 5 5 5 8 8 8 9 9 9 44 8 8 56 6 9 58 7 6 59 8 7 59 7 9 58 8 9 61 7 7 61 5 4 60 10 9 54 10 11 46 6 6 47 7 7 52 12 12 61 13 11 63 13 12 61 15 15 60 27 22 58 48 39 60 47 38 60 46 37 58 7 6 41 7 6 33 7 6 46 7 8 54 37 30 58 44 35 56 36 29 59 14 11 49 7 8 47 9 8 49 9 9 53 9 8 60 9 8 59 9 8 60 9 6 59 8 7 60 9 8 61 10 9 59 9 10 62 10 12 62 12 13 61 13 11 62 12 13 61 10 7 61 7 7 58 7 6 61 7 7 62 8 8 60 56 44 59 55 44 61 52 43 59 53 41 58 17 13 28 4 4 19 5 5 21 13 11 21 20 18 15 14 12 9 9 11 8 8 8 7 7 5 8 6 7 7 7 7 8 8 8 8 8 8 8 8 10 8 8 8 8 8 8 8 8 8 6 6 8 5 5 5 6 6 6 
6 6 6 6 7 9 7 7 7 6 6 6 8 8 10 7 7 7 8 6 9 7 7 5 8 8 8 8 8 8 8 8 8 9 7 8 7 7 7 4 6 5 4 4 6 7 5 6 18 6 6 17 5 5 5 5 5 6 6 4 6 6 6 6 6 6 6 6 6 6 6 6 6 6 6 6 6 6 7 7 7 7 7 7 7 7 9 43 7 7 46 7 8 56 8 4 59 9 10 60 9 8 59 8 7 58 7 6 52 21 18 27 22 18 8 6 7 8 10 9 28 14 13 51 15 15 53 15 14 62 21 19 61 52 43 60 51 42 61 53 40 56 43 35 38 8 8 36 8 7 51 7 8 57 7 6 58 33 28 61 38 30 61 10 9 59 8 7 23 9 9 9 9 9 8 10 9 34 8 7 55 9 11 61 11 10 60 9 8 61 7 7 60 5 8 59 9 10 60 10 11 61 13 13 61 21 21 62 22 20 62 20 21 61 21 19 61 10 9 61 6 9 47 7 7 49 7 8 60 56 44 60 56 44 61 52 43 59 53 41 57 17 15 60 6 4 62 6 9 60 31 25 59 42 34 33 20 14 17 9 7 9 9 9 7 7 5 7 7 7 8 6 7 8 6 7 7 9 8 9 9 9 8 8 8 9 8 6 8 8 8 7 7 7 7 5 6 5 5 5 
13 7 7 14 9 6 16 5 9 5 5 7 7 7 7 6 6 6 6 6 4 6 8 5 7 7 7 9 9 9 9 9 7 9 7 8 6 6 6 5 5 5 9 8 6 28 7 6 57 6 5 45 5 5 9 5 4 11 7 6 6 6 6 7 5 8 6 6 6 7 7 5 6 8 7 6 6 6 7 7 7 8 8 6 7 7 7 8 8 8 8 8 8 40 9 7 63 9 9 61 9 11 61 7 7 61 5 6 33 5 4 5 5 5 8 8 10 10 10 10 11 11 11 15 14 12 23 13 12 55 17 16 56 47 38 52 48 36 59 55 43 46 37 30 27 9 9 45 10 8 66 8 7 58 8 7 58 8 7 60 8 10 60 9 8 54 8 8 22 8 8 10 10 8 11 9 10 10 10 10 42 11 9 61 9 11 60 9 8 59 8 5 60 6 6 59 8 7 60 9 8 60 19 15 60 52 41 61 55 43 62 53 44 55 42 36 53 9 8 54 8 8 7 7 9 7 7 7 60 52 41 62 56 44 60 51 42 60 46 37 59 16 10 58 7 6 59 8 7 59 7 9 58 7 6 60 5 8 38 6 7 12 8 7 8 8 10 9 7 8 8 8 8 7 7 5 7 7 7 9 9 9 9 9 9 9 9 9 8 8 8 9 9 9 8 8 10 7 7 9 
60 12 12 62 8 8 55 7 5 13 4 5 6 6 6 6 6 6 5 5 5 6 6 4 7 7 7 9 7 8 9 9 9 8 8 8 7 7 5 4 4 4 24 21 16 60 32 28 59 5 5 48 6 7 20 6 6 45 5 6 6 6 8 7 5 6 6 8 7 7 7 7 7 7 7 7 7 9 7 7 5 7 7 7 9 9 7 7 9 8 16 12 11 15 14 12 49 13 13 62 11 10 60 6 4 55 5 4 29 4 7 6 6 4 6 8 7 9 9 9 9 9 9 11 11 11 10 10 12 8 8 8 8 8 10 14 13 11 57 44 36 37 24 18 34 8 7 57 11 11 65 11 11 60 10 9 59 9 8 61 6 9 59 8 5 22 8 8 8 10 7 11 9 12 12 10 11 11 11 11 42 11 8 60 12 8 61 13 11 60 12 12 58 8 7 60 4 5 61 5 4 59 18 16 60 52 41 61 57 46 54 51 42 11 11 11 10 10 10 8 8 10 8 8 8 8 8 10 54 8 8 61 42 35 60 46 37 58 13 10 61 5 6 59 5 5 59 8 7 61 7 7 60 5 8 59 5 5 61 7 7 38 8 8 12 8 9 9 9 9 8 8 8 7 7 7 7 5 6 9 9 9 7 7 7 6 6 6 7 7 5 11 11 11 15 9 9 14 8 8 
52 45 37 60 9 8 13 8 5 5 5 5 6 6 4 5 5 5 6 5 3 7 7 7 7 7 7 8 8 6 9 9 9 7 7 7 6 6 6 5 5 3 21 5 5 57 6 5 59 5 3 60 6 6 46 6 6 6 6 6 6 6 6 7 5 6 7 7 7 6 6 6 8 6 7 7 7 7 8 6 7 8 8 8 8 8 6 7 8 10 40 31 24 52 43 34 59 55 43 60 25 19 57 6 5 21 5 5 5 5 3 7 5 6 8 8 8 8 8 8 9 9 11 9 9 9 8 8 8 8 8 8 8 8 8 13 9 10 40 8 9 28 7 6 49 8 6 61 13 13 59 13 15 60 12 12 60 8 10 61 6 9 61 13 13 22 8 8 8 8 8 10 10 10 11 11 11 12 11 9 46 12 11 60 31 25 60 50 38 61 49 37 61 34 27 58 8 7 58 7 6 60 16 13 59 51 40 62 56 44 56 54 42 19 18 14 10 8 9 16 7 8 16 8 6 8 8 6 15 6 7 53 7 7 63 8 11 60 12 12 60 9 8 59 3 4 59 5 3 58 7 6 58 7 6 59 5 5 59 8 7 60 9 8 39 9 9 13 9 10 7 7 7 6 6 8 6 6 6 7 7 7 6 6 4 6 6 6 8 8 8 18 12 12 61 11 12 60 10 9 
8 6 9 61 7 7 13 7 7 6 6 6 6 4 5 4 4 4 6 6 4 6 6 8 7 7 7 7 7 9 7 7 7 7 7 7 6 6 6 5 5 3 4 4 2 26 4 6 61 5 6 61 5 6 46 6 7 6 6 4 7 7 9 6 6 6 7 7 7 7 7 7 8 7 5 8 6 7 7 9 8 8 8 8 9 9 9 8 8 8 7 9 6 9 9 7 48 41 33 61 24 18 26 6 5 5 5 5 5 5 3 6 6 6 7 5 6 8 8 8 8 8 10 7 9 8 8 8 8 8 6 7 8 6 7 8 10 9 8 6 7 11 5 5 63 4 6 62 11 8 61 13 11 62 12 11 59 9 8 60 9 8 61 44 36 22 18 15 10 8 9 10 8 9 9 9 11 40 10 8 60 32 28 61 51 41 61 51 41 59 49 39 60 50 40 58 35 27 59 4 7 59 8 7 61 20 18 61 57 46 60 60 50 57 54 47 18 9 10 64 5 7 59 8 7 8 8 8 61 7 5 59 8 7 60 9 8 61 10 9 59 8 7 57 6 5 60 6 6 58 8 7 58 7 6 60 6 4 61 7 7 59 8 7 59 7 9 41 7 6 5 5 5 6 4 5 6 6 8 7 6 4 6 6 6 6 6 8 8 8 8 18 10 8 57 11 11 60 10 11 
7 5 6 6 8 7 5 5 5 6 6 6 4 4 6 6 6 4 8 8 8 6 6 6 7 5 6 7 7 7 7 7 5 7 5 6 5 5 5 5 5 7 5 5 5 4 4 4 25 5 4 46 6 6 6 6 4 7 7 5 8 10 9 9 9 9 7 6 4 6 4 5 6 6 8 7 7 7 9 7 8 10 8 11 12 12 10 11 11 11 8 8 8 9 7 8 6 6 8 6 6 4 7 7 5 6 6 6 6 6 6 7 5 6 6 6 6 6 6 6 9 7 8 9 9 9 8 7 5 8 6 7 7 7 7 7 7 7 5 5 5 6 6 6 6 6 6 10 10 10 61 10 9 60 9 8 60 9 8 61 42 35 59 49 39 23 18 15 11 11 11 10 10 10 8 8 8 42 8 7 61 34 27 60 50 40 59 49 39 62 48 39 60 50 40 59 36 28 60 6 6 59 8 7 60 8 10 61 11 10 61 11 10 62 10 12 62 8 8 60 9 8 61 6 9 61 7 7 61 7 7 61 5 6 60 9 8 58 7 6 58 7 6 55 5 4 57 7 6 60 9 8 60 9 8 59 36 28 62 54 41 61 53 42 58 31 24 60 6 6 61 5 6 61 5 6 60 16 13 58 50 39 46 40 28 6 7 9 8 8 10 8 6 9 11 11 13 12 12 12 
