P3
100 50
255
8 8 8 6 6 8 9 9 9 11 10 8 11 11 11 8 8 6 7 7 7 9 7 8 8 8 8 8 8 8 8 8 10 6 6 6 6 6 6 7 7 7 8 8 8 12 12 12 11 11 9 6 6 6 3 5 4 6 4 5 7 7 7 6 8 7 6 5 3 9 7 8 9 7 8 12 12 14 11 9 10 9 7 8 10 10 10 9 10 12 7 9 8 8 8 8 9 8 6 8 7 5 7 7 7 8 8 8 9 9 11 9 11 10 13 13 11 14 12 13 9 9 9 6 6 6 7 7 7 6 6 6 6 6 6 7 7 7 11 9 10 11 9 10 13 13 11 11 9 10 11 7 6 8 8 8 8 8 6 11 10 8 9 11 10 9 11 10 12 10 11 11 9 10 11 9 10 10 8 9 8 8 8 9 9 9 10 8 9 12 10 11 16 14 15 14 14 14 15 15 15 15 15 13 15 11 12 12 12 10 13 13 13 13 13 13 11 11 13 8 8 8 6 6 8 7 7 9 8 8 10 9 9 7 10 10 12 11 9 10 9 7 8 7 5 6 3 1 2 3 3 5 3 3 3 5 3 4 6 5 3 5 5 5 10 8 9 10 10 12 13 11 14 10 10 10 10 8 9 9 7 10 5 6 8 5 5 5 4 6 5 5 5 5 6 4 7 7 7 7 
8 8 8 8 8 8 11 9 10 12 12 12 10 10 10 7 7 7 7 9 6 9 7 8 10 10 10 10 10 10 9 9 9 8 8 8 8 8 8 10 10 10 10 10 10 12 12 12 11 11 11 9 9 11 5 5 5 5 5 5 9 7 8 9 7 8 7 7 7 8 8 6 8 8 8 10 10 10 8 8 6 7 7 7 10 10 10 9 9 11 8 8 8 10 8 9 7 7 7 8 8 8 8 8 8 11 9 10 11 11 11 11 11 11 11 11 11 11 11 13 10 10 10 8 8 8 8 8 8 7 7 7 7 7 9 7 7 7 9 7 8 11 9 10 13 13 11 13 11 14 9 9 11 9 8 6 9 8 6 11 11 11 11 11 13 10 10 10 11 11 11 11 9 10 12 10 11 12 11 9 12 12 10 13 13 13 12 12 12 11 9 10 11 11 11 14 14 16 17 15 16 11 11 11 6 6 6 10 10 8 12 12 14 14 14 14 11 9 10 8 6 7 6 8 7 7 7 7 14 12 13 15 15 13 11 9 12 8 6 7 6 6 6 4 4 4 3 3 1 3 3 3 2 2 2 3 3 3 4 4 6 7 7 7 11 9 12 12 10 13 11 9 10 11 11 9 10 10 8 7 7 7 8 8 8 7 7 7 6 5 3 5 3 6 3 5 4 7 7 9 
8 8 8 9 9 9 12 12 12 12 12 12 9 9 9 7 7 7 7 7 7 8 8 8 10 8 9 11 9 10 10 8 9 9 7 8 9 9 9 11 11 11 10 10 10 11 9 10 11 9 10 9 11 8 6 6 6 7 7 5 9 7 8 7 7 7 7 7 9 8 8 6 10 8 11 11 11 11 11 11 11 8 8 10 9 8 6 9 9 7 8 8 8 9 9 7 9 9 9 9 8 6 9 9 11 10 10 10 12 12 12 12 12 12 12 11 9 12 12 12 10 10 8 9 9 7 9 9 9 9 7 12 8 8 8 9 7 10 10 8 9 10 10 10 12 10 11 12 12 10 9 9 9 8 6 7 7 7 7 10 8 9 10 12 11 11 11 11 10 10 10 10 10 10 10 10 10 12 11 9 13 13 13 13 13 13 14 12 13 11 11 11 9 11 10 14 12 13 14 14 14 9 9 7 6 6 6 8 10 9 13 11 12 13 13 13 10 8 9 6 7 9 8 7 5 9 8 6 16 14 17 15 15 15 9 7 10 6 4 5 4 4 4 5 5 5 5 5 5 3 3 1 3 1 4 2 2 2 6 6 6 8 8 6 10 10 10 10 10 10 11 11 11 12 12 12 12 12 12 11 11 11 10 10 8 10 6 5 6 6 6 6 6 8 4 4 4 7 7 9 
10 8 9 10 8 9 9 9 9 8 8 8 7 7 7 6 6 6 8 6 7 10 8 9 11 11 11 11 11 11 9 9 9 7 7 7 8 8 8 9 9 9 9 9 7 8 8 8 10 8 9 9 9 9 6 8 7 8 8 8 9 7 8 8 8 10 9 9 11 9 7 8 10 8 11 10 10 10 10 10 12 10 10 10 7 7 7 8 8 8 8 10 9 8 8 8 8 8 8 8 8 8 7 7 7 10 10 10 13 13 13 13 13 13 11 11 11 9 9 9 8 8 8 9 7 8 10 10 12 9 9 9 9 7 8 8 6 7 8 8 8 9 9 11 12 12 12 11 11 11 9 7 10 8 8 8 7 6 4 8 8 8 11 10 8 11 11 11 9 9 9 8 8 8 8 8 8 9 9 9 12 10 11 13 13 15 11 12 7 9 9 9 8 8 8 11 9 10 10 8 9 8 8 6 7 5 6 9 7 8 12 10 11 11 10 8 9 7 8 7 7 9 7 7 7 9 7 10 12 12 12 11 9 10 7 5 6 6 4 5 4 4 4 7 7 7 7 7 7 6 4 5 4 2 3 4 2 3 7 5 6 9 9 9 9 9 9 11 11 9 12 12 12 12 12 12 11 10 8 9 9 9 11 9 10 8 8 8 8 8 8 4 4 4 3 3 3 6 6 6 
12 10 11 10 8 9 8 8 8 8 8 8 9 9 9 7 7 7 8 6 7 10 8 9 55 52 43 36 31 27 9 9 7 8 8 8 6 6 6 8 8 6 8 8 6 6 6 4 8 6 7 7 7 5 9 9 9 9 9 7 9 9 11 7 7 5 7 7 7 9 7 8 81 10 8 10 10 10 78 10 11 19 7 9 6 6 6 8 8 10 11 11 11 11 11 13 10 10 10 6 6 6 7 5 6 9 7 8 12 10 13 12 10 11 9 9 9 7 7 7 7 5 6 31 5 6 79 9 11 60 10 11 8 8 8 8 6 7 8 8 8 10 10 12 12 12 10 12 12 10 8 8 8 8 6 7 8 8 8 8 6 7 11 7 8 9 9 7 9 9 7 65 7 6 77 7 7 82 8 9 35 9 10 11 11 13 10 8 11 8 8 8 8 8 8 8 8 8 7 7 7 8 8 8 7 7 9 10 8 9 10 10 12 11 9 10 7 7 5 7 5 6 80 6 5 79 7 8 82 8 5 17 7 6 6 6 6 5 5 5 6 6 6 9 7 8 9 9 9 7 7 7 5 5 5 4 4 4 7 7 7 11 9 12 10 12 9 12 12 10 10 12 11 11 11 9 30 10 9 61 6 9 8 8 6 10 9 7 7 7 9 5 3 4 4 4 4 7 7 7 
10 10 10 8 8 8 5 5 5 5 5 5 7 7 7 7 7 7 8 8 8 8 8 8 59 55 46 40 37 32 8 8 6 7 5 8 5 5 7 6 6 6 7 7 7 8 6 7 7 7 9 8 8 8 9 9 9 9 9 9 8 10 9 6 6 6 7 7 5 10 10 10 32 10 12 11 11 13 92 11 10 20 8 8 8 6 7 9 7 8 10 10 12 16 16 16 11 11 11 6 4 5 7 5 6 8 6 7 9 7 8 13 11 12 11 9 10 7 7 7 4 4 4 36 18 16 71 38 31 23 9 9 10 8 9 8 8 8 6 8 7 11 11 9 10 8 9 9 8 6 9 9 9 7 7 7 8 10 9 6 8 7 7 5 8 7 7 7 9 9 11 69 7 8 89 8 7 52 6 8 13 9 8 12 10 11 12 10 13 8 8 8 7 7 9 7 7 7 9 9 11 8 8 8 7 7 7 11 11 11 13 13 13 11 11 11 7 7 5 5 5 5 91 63 51 87 6 5 91 7 7 15 5 6 7 5 6 7 7 7 7 7 5 9 9 9 10 9 7 8 8 6 6 6 6 7 7 7 8 8 6 9 11 10 10 10 10 13 13 13 31 11 10 70 8 9 74 8 10 68 8 8 7 7 7 10 10 8 9 9 9 6 6 8 6 6 6 8 8 10 
7 7 7 4 4 4 2 2 2 4 4 4 5 5 5 7 7 7 8 8 8 7 7 7 22 21 17 12 13 8 7 7 7 7 5 6 6 4 7 5 5 5 7 7 7 7 7 7 8 8 8 9 7 8 9 7 8 9 8 6 8 8 8 8 7 5 8 6 7 9 9 7 11 9 12 11 11 13 30 10 9 9 9 7 10 8 9 9 9 9 9 9 7 13 13 11 9 9 9 7 7 7 9 7 8 10 8 9 10 8 9 13 11 12 12 12 12 8 8 8 5 5 7 13 12 8 20 17 12 9 11 10 10 10 8 8 8 6 9 9 9 7 7 7 8 6 7 6 6 6 9 9 9 9 9 7 9 11 10 8 8 8 5 5 3 7 5 6 9 7 8 23 9 9 28 8 7 13 9 8 10 8 11 11 11 11 12 10 11 9 9 9 9 7 8 9 9 9 9 9 9 9 9 9 9 9 9 10 10 10 13 13 15 11 11 11 7 7 7 6 6 8 27 26 22 87 6 5 90 4 7 14 4 5 7 6 4 6 6 6 7 7 7 8 8 8 8 8 8 7 7 7 8 6 7 8 8 8 8 8 8 10 9 7 8 8 8 9 9 9 22 12 11 50 10 10 73 7 8 20 6 3 7 7 7 11 10 8 11 11 11 6 6 6 7 7 9 6 6 6 
5 5 5 1 1 1 4 2 3 6 4 5 10 8 9 8 6 7 8 8 8 7 7 7 6 6 4 6 6 6 6 6 6 6 4 5 4 4 2 6 6 6 7 7 7 9 9 9 10 12 11 10 10 10 8 8 8 5 5 3 6 6 6 8 8 8 7 7 7 8 8 8 11 10 8 12 11 9 11 9 10 11 11 11 8 8 10 8 8 6 8 8 8 9 9 9 7 7 7 6 6 6 8 8 8 10 9 7 12 10 11 11 11 11 10 10 10 9 9 9 7 6 4 4 4 4 7 6 4 8 6 7 10 10 8 7 7 7 9 5 4 7 7 7 6 6 6 6 5 3 8 8 8 9 9 9 10 8 9 8 8 8 6 6 8 6 4 7 8 7 5 8 8 8 10 8 9 9 9 7 9 9 9 13 11 14 11 11 9 10 10 10 11 9 10 11 11 11 12 12 12 10 10 12 10 10 10 10 11 6 9 11 8 9 9 9 8 6 7 6 6 8 9 9 7 25 5 6 25 3 5 3 3 1 6 5 3 7 7 5 7 7 7 6 6 6 6 6 6 8 6 7 6 6 6 7 7 7 9 9 9 9 9 7 7 7 7 8 6 7 12 10 11 22 10 10 23 7 8 7 5 8 7 7 9 10 10 10 12 12 12 9 7 8 8 8 6 5 5 5 
5 5 5 3 3 3 4 2 3 6 4 5 9 7 8 9 7 8 9 9 9 9 9 9 8 8 8 8 8 8 6 8 7 7 7 7 6 8 7 8 9 4 9 9 9 9 9 9 11 11 11 12 12 12 9 8 6 6 6 6 6 6 6 8 8 8 8 8 8 9 9 11 12 10 11 10 10 10 10 10 10 11 11 11 8 8 10 8 6 7 8 8 6 8 8 8 7 7 7 9 9 9 9 9 9 11 9 10 12 10 11 12 12 12 11 11 11 11 11 11 8 6 7 6 4 5 6 6 6 8 8 10 10 8 9 9 7 8 8 6 7 7 9 6 7 7 9 5 5 5 8 8 10 10 8 9 8 10 7 8 9 4 8 6 7 8 7 5 6 6 6 9 9 7 10 10 10 11 11 11 11 11 13 12 10 11 11 11 11 12 12 12 11 11 11 11 11 11 12 12 12 10 10 10 8 8 8 9 9 11 11 11 11 9 9 9 9 7 8 8 8 10 10 10 10 6 6 8 3 5 4 7 5 6 6 6 4 8 8 8 8 8 8 7 7 7 6 6 6 5 5 5 5 5 5 7 7 7 9 11 10 8 10 9 7 7 5 9 7 8 9 9 9 9 9 9 10 8 9 8 8 8 10 10 10 11 11 11 12 12 12 10 10 10 8 9 4 5 5 7 
7 7 7 3 3 3 5 5 5 6 6 6 8 8 8 9 9 9 11 11 11 11 11 11 10 10 10 9 7 8 6 6 6 8 6 7 9 7 8 10 10 12 11 11 11 8 8 8 9 9 11 9 9 9 9 8 6 7 7 5 6 6 6 7 7 7 11 10 8 12 12 12 13 13 11 15 15 13 13 13 15 11 11 11 8 8 6 9 7 8 7 9 8 7 9 8 8 8 8 10 10 12 12 10 11 12 10 11 13 11 12 13 12 10 11 11 13 10 10 10 7 6 4 7 7 5 8 8 8 9 7 8 8 8 8 6 6 6 8 8 6 9 9 7 6 6 6 8 6 7 9 9 9 8 8 6 8 8 8 7 8 10 8 6 7 6 8 7 9 7 8 9 7 8 11 11 11 12 11 9 12 12 12 13 11 12 13 13 13 11 11 9 10 10 10 8 10 9 12 12 10 10 10 10 7 9 8 9 9 9 9 9 9 7 7 7 7 9 8 9 9 9 10 10 8 7 5 6 6 6 6 7 7 7 8 8 6 7 7 7 10 10 12 9 9 9 6 4 5 4 4 6 6 6 6 7 7 9 9 9 11 9 9 11 9 9 7 10 9 7 8 8 8 7 7 7 9 7 8 9 9 9 14 13 11 14 12 13 12 12 12 10 10 10 8 8 10 8 8 8 
6 6 6 5 3 4 7 7 7 9 9 9 9 7 8 9 9 9 10 10 10 10 10 12 10 10 10 8 8 8 7 7 7 7 7 5 8 8 8 9 9 9 9 9 9 8 8 8 8 8 8 8 8 6 6 6 6 7 7 7 8 9 4 8 8 8 9 9 11 9 9 7 11 11 11 16 14 15 17 15 16 13 13 15 11 11 11 10 10 10 11 9 10 7 7 7 9 7 8 11 10 8 12 10 11 12 12 12 13 13 13 11 9 10 10 10 8 10 8 9 5 5 5 7 5 6 7 7 7 8 8 8 7 5 6 8 8 8 7 7 7 8 6 7 6 4 5 7 7 9 9 8 6 8 8 8 8 8 8 7 9 8 7 7 7 7 7 7 8 8 8 8 8 8 8 8 8 10 10 10 11 11 11 13 13 13 12 12 12 11 11 11 12 12 12 12 12 12 13 13 13 12 12 12 9 9 9 10 10 8 9 9 9 8 8 6 8 8 8 8 8 8 8 8 10 5 5 3 5 5 3 8 8 6 11 9 10 11 9 12 9 9 9 9 9 7 6 6 6 4 4 4 5 5 5 8 6 7 11 11 11 11 11 11 12 10 11 9 11 10 8 8 8 8 8 8 7 7 9 10 8 9 11 11 11 17 15 16 13 13 11 10 10 10 8 6 7 7 7 5 
9 5 6 4 6 5 8 8 8 10 10 10 8 8 8 9 9 9 11 9 10 10 10 10 9 9 9 7 7 5 7 7 7 7 7 7 7 7 7 9 9 9 8 8 6 8 8 8 8 8 8 7 7 5 6 6 6 6 6 6 7 7 7 8 8 8 9 9 9 9 9 9 9 9 9 10 10 10 12 12 12 15 13 14 12 12 12 10 10 8 10 10 10 10 8 9 9 9 9 9 9 7 11 11 9 11 11 11 11 11 11 12 12 12 11 11 11 8 8 8 6 6 6 7 5 6 6 6 6 7 7 7 9 7 8 7 7 7 7 7 7 7 7 7 6 6 6 7 7 7 9 7 8 8 8 8 9 9 9 10 10 10 8 7 5 8 6 7 9 9 9 8 8 8 8 8 8 11 11 11 11 11 11 13 13 13 13 13 13 10 12 11 11 11 13 13 13 15 14 14 14 13 13 13 11 11 11 11 11 11 10 10 10 7 7 7 7 7 7 9 7 8 7 7 7 6 4 5 5 5 5 8 8 8 10 10 10 10 10 12 9 9 9 7 9 8 5 5 5 5 4 2 5 5 7 9 8 6 11 9 10 12 12 12 10 12 11 10 10 10 6 6 4 7 7 9 7 7 7 9 7 8 10 10 10 16 14 15 13 13 11 9 9 7 9 9 9 6 8 5 
47 5 6 6 6 6 10 8 9 11 11 9 11 6 10 10 10 10 10 10 10 9 7 8 7 7 7 8 8 8 7 7 7 7 7 7 7 7 7 7 7 7 8 8 8 8 8 8 8 8 8 6 6 6 5 5 5 6 6 6 8 8 8 10 10 10 10 10 10 10 10 10 7 7 7 5 7 6 10 8 9 14 14 16 14 14 14 10 11 13 8 10 9 8 8 10 10 10 8 35 11 9 29 11 11 12 10 11 10 12 11 12 14 11 15 15 15 12 10 11 6 6 6 7 5 6 6 6 6 6 6 6 6 6 6 6 6 6 8 8 8 10 10 10 8 6 7 7 5 8 8 8 8 9 8 6 11 11 9 11 11 11 7 7 7 7 9 8 8 10 9 8 8 8 9 9 9 10 10 10 12 12 12 12 12 12 13 13 13 13 11 12 12 12 12 13 13 15 15 15 15 12 12 12 9 9 9 11 11 11 10 10 8 9 9 9 7 7 7 8 8 8 6 6 6 4 4 4 5 5 5 7 7 7 10 10 12 11 9 10 8 8 8 7 7 9 5 3 4 31 2 4 47 5 6 25 9 9 12 12 12 13 13 13 11 11 11 8 8 8 6 6 6 8 6 7 8 6 9 7 7 7 10 10 10 12 10 11 9 9 9 7 7 7 9 9 9 8 8 8 
47 5 7 7 7 7 10 10 10 11 11 11 10 10 12 9 11 10 11 9 10 8 6 7 7 7 7 7 7 7 8 8 8 7 7 7 7 7 7 7 7 7 7 7 7 7 7 7 7 7 7 8 8 8 5 5 5 6 6 6 10 10 10 11 11 11 13 13 13 10 10 10 9 9 9 8 8 10 10 8 9 11 11 11 11 11 11 9 9 7 9 9 9 10 8 9 40 37 30 76 48 36 42 24 22 10 11 13 11 11 11 12 13 15 20 16 17 14 14 14 9 9 9 7 7 7 5 5 5 4 4 4 4 4 4 4 4 4 8 8 8 11 11 11 8 8 8 7 6 4 48 8 8 8 8 8 11 11 11 9 11 10 8 8 8 7 7 7 9 9 9 9 9 9 10 10 10 10 10 10 13 13 13 13 11 12 11 9 10 13 11 12 12 12 14 12 12 14 14 14 16 12 12 12 8 8 8 9 9 9 9 9 9 10 10 12 7 7 7 7 7 7 7 7 9 5 5 5 6 6 8 7 7 5 10 8 9 10 8 9 8 8 8 6 5 3 35 4 2 72 2 4 90 6 6 41 11 11 13 13 13 14 14 14 10 10 10 7 7 7 8 8 8 7 5 6 9 8 6 9 9 9 8 8 8 8 8 8 8 7 5 7 7 7 9 7 10 49 43 31 
4 5 7 6 6 6 10 9 7 10 10 10 11 11 11 11 11 11 10 8 9 7 7 7 7 7 7 7 7 7 7 7 7 7 7 7 8 8 8 7 7 7 6 6 6 7 7 7 6 6 6 7 7 7 7 7 7 6 6 6 9 9 9 12 12 12 16 16 16 13 13 13 7 7 7 8 8 8 10 8 11 9 9 7 8 10 9 9 8 6 8 8 8 9 7 8 46 41 35 63 56 46 33 30 25 9 11 10 9 9 9 10 12 11 15 15 15 15 15 15 11 11 11 7 7 7 5 5 5 3 3 3 3 3 3 2 2 2 7 7 7 10 10 10 9 9 11 8 8 8 58 7 6 8 8 10 10 10 10 10 10 8 7 7 7 8 8 8 8 8 8 9 9 9 9 9 9 11 11 11 13 13 13 13 13 13 9 9 9 12 10 11 11 11 13 12 12 12 13 13 13 13 13 13 9 9 9 7 7 7 8 8 8 9 9 7 8 8 8 9 7 8 7 7 7 7 5 6 7 7 9 7 6 4 8 8 8 9 8 6 7 7 7 6 4 5 44 4 5 78 4 5 69 7 8 30 10 11 14 14 14 14 12 13 8 10 9 8 8 8 6 6 4 7 5 8 9 7 8 7 7 7 7 7 5 5 5 5 9 7 8 9 9 9 10 8 9 58 52 40 
5 5 5 6 6 6 7 7 5 9 9 9 11 9 10 10 10 10 8 8 6 8 8 6 7 7 7 6 6 6 7 7 7 8 8 8 8 8 8 7 7 7 6 6 6 7 7 7 8 8 6 7 7 7 7 7 7 7 7 7 7 7 9 11 11 11 14 14 14 16 16 16 10 10 10 8 8 10 8 6 7 7 7 7 7 7 7 7 7 7 7 7 9 7 7 7 12 12 12 14 14 12 10 10 12 9 9 9 8 8 6 7 7 5 11 11 11 13 13 13 11 11 11 8 8 8 5 5 5 4 4 4 4 4 4 3 3 3 6 4 5 6 6 6 10 8 9 7 5 6 7 7 7 9 9 9 9 9 9 8 8 6 7 7 5 7 7 7 9 7 8 8 8 8 8 8 8 10 10 10 11 11 11 11 11 11 9 9 9 9 9 9 11 11 11 11 11 11 11 11 13 10 10 12 9 9 9 9 9 9 7 7 7 8 8 8 7 7 5 7 7 7 7 7 7 9 9 9 8 8 8 7 7 7 8 8 6 8 6 7 6 6 6 5 5 7 4 6 5 36 4 5 28 6 8 9 9 9 12 10 11 11 13 12 10 10 8 7 7 7 5 5 3 8 6 9 7 5 6 6 6 6 6 6 4 5 5 3 9 9 9 13 13 13 11 10 8 6 8 7 
6 6 6 6 6 6 7 7 7 9 9 9 11 11 9 9 7 8 9 7 10 7 7 5 9 9 9 8 8 10 6 6 6 5 5 5 6 6 6 7 7 7 7 7 9 9 9 9 10 10 10 8 8 10 7 7 7 7 7 7 7 7 7 8 8 8 8 8 8 14 14 14 12 14 11 9 9 9 9 7 8 9 8 6 7 7 5 7 7 7 7 7 9 8 6 9 12 10 11 12 12 12 10 10 10 9 9 9 9 9 9 11 6 10 8 8 8 9 9 9 9 9 9 8 8 8 6 6 6 7 5 6 5 5 5 5 5 5 6 4 5 7 7 7 7 7 7 7 7 7 7 7 5 12 11 9 11 9 10 7 7 7 7 7 7 8 8 8 8 6 7 9 7 8 9 7 8 10 8 9 9 9 9 9 9 9 10 10 10 9 9 9 11 9 10 13 11 12 12 10 11 12 10 11 13 11 12 13 11 12 11 9 10 10 8 9 8 7 5 5 7 6 9 7 8 9 10 12 6 8 7 8 8 8 8 8 8 7 7 7 8 6 7 6 6 6 5 5 5 6 6 6 6 6 6 8 8 8 12 10 11 12 10 11 10 8 9 7 5 6 6 6 6 8 7 5 7 7 7 7 7 7 5 5 5 6 6 6 11 11 11 14 14 16 12 12 12 7 7 7 
7 7 7 8 6 7 8 6 7 10 10 10 9 9 11 7 9 8 9 8 6 10 10 10 10 10 10 9 9 9 6 6 6 4 4 6 6 6 6 8 8 8 8 8 8 7 7 7 7 7 9 8 8 8 7 7 5 6 6 6 7 7 7 6 6 6 7 7 9 10 9 14 11 11 11 9 9 11 8 8 8 7 7 7 8 8 6 7 7 7 7 7 7 9 9 9 12 10 11 10 10 10 9 9 9 10 10 8 10 10 8 8 8 6 7 7 5 8 6 7 10 8 9 8 8 8 7 7 7 8 6 7 6 6 6 6 6 6 7 5 6 7 7 7 8 6 7 7 7 9 8 8 10 12 12 10 11 9 10 8 8 8 6 7 9 6 6 6 7 5 6 10 8 9 12 10 11 10 8 9 11 9 10 9 7 8 10 8 9 10 8 9 10 8 9 12 10 11 11 9 12 13 11 12 15 13 16 15 13 14 13 12 10 10 9 7 6 6 6 7 7 7 8 6 9 8 8 10 8 6 7 8 8 8 9 7 8 9 7 8 8 6 7 7 5 6 5 5 7 6 6 8 6 6 8 8 8 10 9 11 10 11 11 11 10 8 9 9 8 6 6 6 6 6 6 6 7 7 7 7 5 6 7 7 5 7 7 7 10 10 10 13 13 13 12 10 13 8 6 7 
9 9 7 7 7 7 7 7 7 9 9 9 8 8 6 8 8 8 8 8 8 8 8 8 10 8 9 9 7 8 7 5 6 6 4 5 6 4 5 7 5 6 8 6 7 9 7 8 8 8 8 8 8 8 8 8 8 5 5 5 3 3 3 5 5 5 7 7 7 10 10 10 11 11 13 7 7 7 9 9 9 7 7 7 7 7 7 7 7 7 8 8 8 8 8 8 10 8 9 7 7 7 9 9 9 11 11 13 11 11 11 9 9 7 7 7 7 7 5 6 7 7 7 8 6 7 8 7 5 6 6 6 8 6 7 7 7 5 6 4 5 7 5 8 8 8 8 8 8 8 9 9 9 11 11 11 10 9 7 8 8 8 8 8 8 7 7 7 8 8 8 9 11 10 9 11 10 10 8 9 9 9 9 9 9 9 9 9 9 9 7 8 9 9 9 11 11 11 11 11 11 11 11 11 12 12 12 15 15 15 16 14 15 13 11 12 11 9 10 8 6 7 7 5 6 8 8 8 7 7 7 8 8 8 9 10 12 12 10 11 9 9 9 6 6 6 5 5 3 5 5 5 6 6 6 8 8 8 9 9 7 10 10 10 8 8 8 6 8 7 8 6 7 7 9 6 9 9 9 9 7 8 9 9 7 7 7 7 8 8 8 11 11 11 10 10 10 7 7 9 
11 11 11 9 9 9 6 6 6 7 7 7 6 6 6 8 8 8 8 8 8 8 8 8 8 6 7 8 6 7 7 5 6 6 4 5 4 2 3 7 5 6 9 7 8 9 7 8 8 8 8 9 9 9 7 7 7 5 5 5 3 3 3 5 5 5 7 7 7 9 9 9 12 12 12 8 8 10 7 7 7 8 8 8 7 7 7 6 6 6 7 7 7 8 8 8 9 9 11 8 8 8 10 8 9 12 12 12 12 12 12 8 8 8 6 6 6 6 6 6 7 7 9 7 5 6 8 6 7 7 5 8 7 5 6 7 5 6 5 7 6 7 7 7 9 9 9 10 8 11 10 8 9 10 10 8 9 9 7 10 8 9 10 8 9 9 9 9 8 8 8 10 10 8 11 9 10 10 8 9 9 9 9 11 9 10 10 8 9 10 8 9 10 10 10 11 11 11 12 12 12 11 11 11 11 11 11 13 13 13 16 14 15 13 11 12 11 11 11 9 9 7 6 6 6 6 8 5 8 8 8 10 10 10 12 10 11 14 12 13 10 10 10 6 6 4 4 4 4 5 5 5 8 7 5 8 6 7 8 6 7 7 5 6 6 6 6 7 7 9 8 8 8 9 9 9 10 10 8 12 12 12 10 10 10 8 8 10 7 5 6 9 9 7 7 9 8 7 7 7 
12 11 9 10 8 9 8 6 7 8 6 7 8 6 7 8 6 7 8 6 7 8 6 7 9 7 8 9 7 8 9 7 8 5 3 4 5 3 4 8 6 7 9 7 8 9 7 8 8 8 8 8 8 8 5 5 5 5 5 5 4 4 4 6 6 6 6 6 6 9 9 9 12 12 14 9 9 9 6 6 6 6 6 6 8 8 8 6 6 6 7 7 7 7 7 7 7 7 7 9 7 8 8 8 6 9 9 9 11 11 11 9 7 8 7 5 6 6 6 6 13 7 7 18 6 6 13 7 7 6 6 6 6 6 6 6 6 6 8 8 6 9 7 8 8 8 8 9 9 9 9 9 9 10 9 7 9 9 9 9 9 9 8 8 8 8 8 8 9 11 10 10 10 8 14 8 8 14 5 6 8 6 9 11 9 10 9 9 7 8 8 8 10 10 10 12 12 12 11 11 11 12 12 12 12 12 12 13 13 13 16 14 15 14 12 13 13 11 12 12 10 13 8 6 7 17 16 14 10 8 9 11 11 11 11 11 11 10 10 10 9 9 11 6 6 6 5 5 5 5 5 5 6 6 6 8 8 8 7 7 7 5 5 5 7 7 7 9 7 8 9 9 9 10 8 9 11 9 12 13 12 10 16 10 12 9 9 7 8 6 7 8 8 8 7 7 5 10 8 9 
12 12 12 10 10 10 7 7 7 9 9 7 5 5 5 8 8 8 6 6 6 6 6 6 9 7 8 11 9 10 7 5 6 6 4 5 7 5 6 9 7 8 7 5 6 7 5 6 7 7 7 9 9 9 3 3 3 3 3 3 6 6 6 7 7 7 8 8 8 9 9 9 11 11 11 8 8 10 7 7 7 7 7 7 6 6 6 6 6 6 8 8 8 5 5 5 8 6 7 9 7 8 7 7 7 7 7 7 8 8 10 9 7 8 7 5 6 7 7 7 32 6 5 86 12 13 69 11 9 7 7 5 7 5 6 5 5 5 7 7 7 7 7 7 6 6 4 9 9 9 10 10 10 12 12 12 10 10 8 8 8 10 8 8 8 9 9 9 10 10 10 20 8 8 56 6 5 33 4 6 8 6 7 10 8 11 10 10 10 10 8 9 10 10 10 11 11 11 11 11 11 11 11 11 11 11 11 11 11 11 14 12 13 16 14 15 16 16 16 13 13 13 12 8 9 76 73 56 11 9 10 10 8 9 7 9 8 8 8 10 8 8 8 6 6 6 6 6 6 6 6 6 6 6 8 7 7 7 7 7 7 6 6 8 6 6 6 9 7 8 10 10 10 16 12 11 16 11 8 25 9 9 66 6 6 7 7 7 7 7 9 7 7 7 7 7 7 9 7 8 
13 11 12 12 10 11 10 8 9 9 7 10 8 6 7 8 6 7 8 6 7 7 5 6 8 6 7 10 8 9 8 6 7 7 5 6 9 7 8 9 7 8 8 6 7 6 4 5 6 6 6 6 6 6 2 2 2 1 1 1 6 6 6 9 9 9 8 8 8 8 8 8 11 11 11 10 10 12 9 9 9 7 7 7 7 7 7 6 6 6 8 8 8 6 6 6 5 5 7 6 6 8 7 7 7 7 7 9 7 7 9 6 6 8 6 6 6 8 8 8 8 8 8 33 32 28 65 61 50 6 5 10 5 5 5 6 4 5 6 7 9 7 7 7 8 8 6 8 8 6 11 11 11 12 12 14 12 11 9 9 9 9 7 7 7 10 8 9 9 9 11 58 10 10 33 9 9 8 6 7 6 8 5 9 9 9 11 11 11 10 8 9 10 10 10 12 12 12 11 11 11 10 10 10 11 11 11 10 10 10 12 10 11 15 13 14 14 12 13 8 8 8 9 9 9 7 7 7 7 7 7 6 6 6 6 5 3 11 7 6 7 7 7 6 6 6 6 6 6 6 6 6 7 5 6 7 5 6 7 5 6 6 4 5 5 5 5 5 5 5 9 7 8 43 17 18 69 15 13 6 6 4 5 5 5 9 9 7 8 8 10 6 6 6 7 8 10 6 6 6 
10 8 11 9 7 8 10 8 9 10 8 9 8 6 7 7 5 6 7 5 6 6 4 5 7 5 6 8 6 7 7 5 6 8 6 7 8 6 7 9 7 8 8 6 7 6 4 5 6 6 6 5 5 5 1 1 1 4 4 4 8 8 8 9 9 9 8 8 8 7 7 7 8 8 10 11 11 11 8 8 8 7 7 7 7 7 7 7 7 7 6 6 6 7 7 7 4 4 6 5 5 5 5 7 6 6 6 6 7 7 9 7 7 7 8 8 8 8 8 10 10 8 9 9 7 8 7 7 7 7 5 6 5 5 5 6 6 6 7 6 4 7 6 4 6 7 9 7 7 5 9 9 9 12 12 12 12 10 11 9 9 7 7 7 7 8 8 8 9 7 10 10 10 12 8 8 8 7 7 9 7 7 5 9 9 9 11 11 11 11 11 11 11 11 13 11 11 13 11 11 11 11 11 9 10 10 8 10 10 8 10 8 9 12 10 13 13 11 12 9 7 10 8 8 8 9 8 6 5 5 5 5 5 5 3 3 3 7 5 6 7 7 7 6 6 8 6 6 6 6 6 6 7 5 6 7 5 6 7 6 4 8 7 5 5 5 5 5 5 5 9 9 9 43 38 32 70 66 55 7 7 7 6 8 5 12 12 10 12 12 10 9 8 6 6 8 5 6 6 6 
5 5 5 5 5 5 5 5 5 8 8 8 8 8 8 8 8 8 6 6 6 7 7 7 8 6 7 8 6 7 8 6 7 9 7 8 9 7 8 8 6 7 7 5 6 7 5 6 9 9 9 9 9 9 4 4 4 5 5 5 8 8 8 8 8 8 9 9 9 10 10 10 7 7 7 9 9 11 10 10 10 9 9 9 8 8 8 8 8 8 7 7 7 6 6 6 5 3 4 6 6 6 8 8 8 9 7 8 8 7 5 8 7 5 8 8 6 8 8 8 8 8 8 8 8 8 9 9 7 9 9 9 6 4 5 5 5 7 8 6 7 7 7 7 7 7 7 8 8 8 10 10 10 11 11 11 10 10 10 8 8 8 8 8 8 9 9 7 11 10 8 8 8 6 8 6 7 7 9 6 10 8 11 10 10 8 11 11 11 12 12 10 11 11 11 9 9 9 12 12 12 13 13 13 10 10 10 8 8 8 10 8 9 10 8 9 10 8 9 9 7 8 12 10 11 11 10 8 7 6 4 5 5 3 2 4 3 7 5 6 8 8 6 8 8 10 8 8 8 6 6 6 7 7 7 9 9 9 8 8 8 7 7 7 6 6 4 7 5 6 8 8 8 12 11 9 9 9 9 6 6 6 10 10 10 20 16 17 18 18 18 14 12 13 5 5 7 6 4 5 
5 5 7 4 4 4 4 4 4 5 5 5 9 9 11 9 9 9 8 8 8 7 7 7 7 5 6 8 6 7 9 7 8 8 6 7 7 5 6 8 6 7 7 5 6 8 6 7 11 11 11 10 10 10 8 8 8 5 5 5 6 6 6 7 7 7 10 10 10 11 11 11 7 7 9 9 9 9 11 11 11 10 10 10 10 10 10 10 10 10 7 7 7 5 5 5 4 2 3 3 3 3 7 7 7 11 11 11 12 10 11 8 8 8 6 6 6 7 5 6 7 7 7 7 7 7 8 8 6 5 5 7 6 5 3 7 5 6 11 7 8 7 7 7 8 7 5 7 7 9 8 8 8 9 7 8 8 8 8 10 10 10 10 10 8 12 12 12 11 10 8 8 8 6 8 6 7 9 7 10 10 10 10 12 11 9 12 12 12 11 11 11 11 11 9 10 10 10 12 12 12 16 16 16 14 14 14 10 10 10 9 7 8 9 7 8 7 7 7 9 9 9 13 11 12 8 10 9 7 5 6 4 4 6 5 5 3 6 7 2 8 8 8 8 8 8 6 6 6 7 7 9 11 9 10 12 10 13 9 7 10 6 4 5 6 4 5 7 7 7 11 11 11 12 11 9 9 9 7 8 6 7 9 9 7 12 12 12 16 16 16 14 14 16 9 11 10 6 6 6 
6 4 5 7 5 6 6 4 5 6 4 5 9 7 8 8 6 7 7 5 6 7 5 6 7 7 7 7 7 7 6 6 6 5 5 5 5 5 5 7 7 7 9 9 9 9 9 9 8 8 8 8 8 8 9 9 9 7 7 7 5 5 5 7 7 7 8 8 8 8 8 8 7 7 7 7 7 7 8 8 8 9 9 9 11 11 13 9 9 9 6 6 6 3 3 5 4 4 4 5 3 4 7 5 6 8 8 8 9 9 9 9 7 8 6 4 5 5 5 5 6 6 6 8 8 6 7 7 5 6 6 6 5 7 6 7 7 5 6 6 4 6 6 6 6 6 6 8 8 8 8 8 8 8 8 8 9 9 9 10 10 12 12 12 14 13 13 11 11 11 11 8 8 8 7 7 7 8 8 8 8 8 8 10 10 10 12 12 12 11 11 11 12 12 12 11 11 11 13 13 13 14 14 14 15 15 15 11 11 11 8 8 8 8 8 8 7 7 7 9 9 9 9 9 9 8 8 8 6 6 4 6 6 6 4 4 4 7 7 5 8 8 8 7 7 7 7 5 6 7 5 8 8 8 8 9 9 11 8 6 7 4 3 1 3 3 3 7 7 7 13 13 13 12 11 9 10 10 8 8 7 5 8 8 8 10 8 9 11 11 11 13 13 11 13 13 13 7 7 7 
6 4 5 7 5 6 7 5 6 6 4 5 9 7 8 8 6 7 8 6 7 9 7 8 7 7 7 6 6 6 6 6 8 6 6 8 7 7 9 6 6 8 7 7 7 10 10 10 7 7 7 7 7 7 9 9 9 9 9 9 6 6 6 7 7 7 9 9 9 7 7 7 9 9 9 8 8 8 6 6 6 8 8 8 9 9 11 7 7 7 6 6 6 3 3 3 3 3 3 5 3 4 7 5 6 9 9 9 8 8 8 8 6 7 7 5 6 6 6 8 7 7 7 7 7 7 7 7 7 6 6 6 6 6 6 7 7 7 6 6 6 7 7 7 8 8 8 8 8 10 7 7 7 8 8 8 9 9 7 10 10 10 11 11 11 12 12 12 10 10 10 9 9 9 9 9 9 8 8 8 10 10 10 11 11 11 11 11 11 12 12 12 12 12 12 12 12 12 12 12 12 13 13 13 14 14 14 12 12 12 8 8 8 7 7 7 7 7 7 7 7 7 7 7 7 7 7 7 5 5 3 6 6 6 6 6 6 7 7 7 8 8 8 8 8 8 7 7 9 8 6 9 8 8 8 7 7 7 6 6 6 3 3 3 4 4 4 7 5 6 11 11 11 13 13 11 9 9 7 8 8 8 9 8 6 7 7 5 7 7 7 11 11 11 13 13 13 8 8 8 
7 5 6 7 5 6 7 5 6 6 4 5 7 5 6 7 5 6 9 7 8 10 8 9 8 8 8 6 6 6 5 5 5 7 7 7 6 6 6 6 6 6 7 7 7 8 8 8 7 7 7 8 8 8 8 8 8 8 8 8 8 8 8 9 9 9 9 9 9 9 9 9 10 10 10 9 9 9 7 7 7 8 8 8 8 8 8 8 8 8 6 6 6 4 4 6 5 5 7 5 5 5 6 6 6 6 6 6 6 6 6 7 7 7 6 6 6 7 7 7 7 7 7 7 7 7 7 7 7 6 6 6 7 7 7 7 7 7 7 7 7 8 8 8 9 9 9 7 7 7 7 7 7 7 7 7 7 7 7 10 10 10 11 11 13 10 10 10 9 7 10 10 8 9 9 7 10 10 8 9 11 9 12 11 9 10 12 10 13 12 10 11 11 11 11 13 13 13 11 11 11 11 11 11 11 11 11 12 12 12 9 9 9 7 7 7 6 6 6 7 7 7 6 6 6 6 6 6 7 7 7 6 6 6 6 6 6 6 6 6 8 6 7 8 7 5 6 5 10 7 5 6 7 7 9 9 9 9 8 8 8 4 4 4 5 5 3 5 7 6 11 10 8 11 11 11 9 7 8 7 7 7 11 11 11 9 7 8 7 7 9 11 11 11 10 10 10 6 6 6 
8 6 7 7 5 6 7 5 6 7 5 6 8 6 7 7 5 6 7 5 6 8 6 7 6 6 6 6 6 6 6 6 6 7 7 7 7 7 7 7 7 7 7 7 7 8 8 8 7 7 7 8 8 8 8 8 8 10 10 10 8 8 8 9 9 9 9 9 9 8 8 8 10 10 10 11 11 11 10 10 10 8 8 8 6 6 8 7 7 7 7 7 7 5 5 5 5 5 5 5 5 5 6 6 6 7 7 7 8 8 8 8 8 8 8 8 8 7 6 11 6 6 6 6 6 6 6 6 6 7 5 6 7 7 7 8 8 8 8 8 8 8 8 8 7 7 7 7 7 7 7 7 7 7 7 7 9 9 9 10 10 12 9 9 9 9 9 9 9 7 8 11 9 10 11 9 10 11 9 10 13 11 12 13 11 12 12 10 11 12 10 11 10 10 10 11 11 11 10 10 10 11 11 11 11 11 11 11 11 11 9 9 9 7 7 7 6 6 6 6 6 6 5 5 5 7 7 7 6 6 6 6 6 6 6 6 6 5 5 5 5 5 7 6 6 6 5 3 4 52 6 6 81 7 8 36 7 9 9 9 7 7 7 7 7 5 6 10 6 5 10 10 10 11 11 11 9 9 7 7 9 8 13 9 10 8 8 8 4 4 6 6 6 6 8 8 10 7 7 7 
7 5 6 5 3 4 6 4 5 7 5 6 10 8 9 7 5 6 6 4 5 6 4 5 6 6 6 6 6 6 6 6 6 9 9 9 7 7 7 7 7 7 7 7 7 8 8 8 7 7 7 8 8 8 8 8 8 8 8 8 6 6 6 7 7 7 8 8 8 9 9 9 10 10 12 12 12 12 10 10 10 7 7 7 7 7 7 7 7 7 8 8 8 8 8 8 8 7 12 7 7 7 8 8 8 7 7 7 7 7 7 8 8 8 7 7 7 7 7 7 4 4 4 7 5 6 5 5 5 7 5 6 7 7 7 9 7 8 8 8 8 9 9 9 7 7 7 8 8 8 7 7 7 7 7 9 10 10 10 13 13 13 9 9 9 7 7 7 8 8 8 9 9 9 11 11 11 12 12 12 11 11 11 13 13 13 13 13 13 13 13 13 9 9 9 9 9 9 9 9 9 10 10 10 10 10 10 9 9 9 8 8 8 7 7 7 6 6 6 5 5 5 5 5 5 6 6 6 8 8 8 7 7 7 5 5 5 5 5 5 6 4 5 6 6 6 7 5 6 55 5 6 51 5 7 14 8 8 9 9 9 8 6 9 8 8 8 9 9 9 10 10 8 13 12 10 14 12 13 11 9 12 8 8 8 8 6 7 4 4 4 5 5 7 5 5 5 7 7 7 
4 2 3 4 2 3 6 4 5 6 4 5 6 4 5 5 3 4 6 4 5 6 4 5 7 7 7 7 7 7 8 8 8 8 8 8 8 8 8 8 8 8 8 8 8 8 8 8 7 7 7 7 7 7 6 6 6 6 6 6 6 6 6 8 8 8 8 8 8 10 10 10 11 11 11 11 11 11 11 11 11 9 9 11 9 9 9 8 8 8 7 7 7 7 7 7 8 8 8 8 8 8 8 8 8 8 8 8 7 7 7 7 7 7 7 7 7 7 7 9 3 3 5 3 3 3 7 5 6 8 8 10 10 8 11 10 10 10 9 7 8 9 9 11 8 8 8 9 9 9 10 10 10 6 6 6 8 8 8 10 10 10 7 7 9 6 6 6 6 6 6 8 8 10 11 11 11 10 10 12 10 10 10 11 11 13 12 12 12 10 10 12 10 10 10 8 8 8 7 7 7 8 8 8 8 8 8 8 8 8 8 8 8 7 7 7 7 7 7 6 6 6 7 7 7 8 8 8 10 10 10 11 11 11 7 7 7 3 3 3 7 5 6 5 5 5 4 4 4 21 5 5 11 7 6 9 10 12 10 10 10 8 8 8 9 7 8 11 9 10 12 10 11 12 12 12 11 12 14 12 11 9 8 8 8 5 3 4 5 5 5 5 5 3 5 5 5 6 6 6 
4 2 3 4 2 3 5 3 4 5 3 4 4 2 3 5 3 4 4 2 3 6 4 5 7 7 7 8 8 8 7 7 7 6 6 6 6 6 6 6 6 6 6 6 6 7 7 7 6 6 6 6 6 6 6 6 6 6 6 6 8 8 8 6 6 6 8 8 8 10 10 10 9 9 11 10 10 10 10 10 10 9 9 9 9 9 9 7 7 7 6 6 6 7 7 7 10 8 11 8 8 8 8 8 8 8 6 7 5 3 4 6 6 6 6 6 6 7 5 6 6 4 5 2 2 2 6 4 5 8 8 8 11 9 10 11 11 11 11 9 10 8 8 8 8 8 8 8 8 10 8 8 8 6 6 6 8 8 8 8 8 10 7 7 5 6 6 6 6 6 6 6 6 6 8 8 8 10 10 10 12 12 12 11 11 11 8 8 8 9 9 9 10 10 10 8 8 8 7 7 7 8 8 8 8 8 8 7 7 7 9 9 9 9 9 9 8 8 8 6 6 8 8 8 8 11 11 11 11 11 11 11 11 13 11 11 11 5 5 5 5 3 4 5 5 5 10 6 7 6 4 5 7 7 7 13 12 10 13 12 10 11 11 11 10 10 10 10 10 8 11 11 11 11 9 12 10 8 9 10 8 9 9 7 8 7 5 8 4 4 4 5 5 5 5 5 5 6 6 6 
4 2 3 3 1 2 6 4 5 6 4 5 4 2 3 4 2 3 6 4 5 8 6 7 7 7 7 8 8 8 7 7 9 5 5 7 6 6 8 6 6 8 6 6 6 7 7 7 6 6 6 6 6 6 6 6 6 8 8 8 7 7 7 5 5 5 6 6 6 9 9 9 9 9 9 9 9 9 8 8 8 11 11 13 10 10 10 7 7 7 5 5 5 6 6 6 8 6 7 7 7 7 8 8 8 8 6 7 6 4 5 4 4 4 5 5 5 6 4 5 7 5 6 6 4 5 5 5 5 7 5 6 10 10 10 10 8 9 8 8 8 9 7 8 8 8 6 8 8 10 7 7 9 8 8 8 6 6 6 7 7 7 8 8 8 7 7 7 7 5 6 8 6 7 9 7 8 12 10 11 12 10 11 11 9 10 10 8 9 9 7 8 9 9 9 8 8 8 7 7 7 7 7 7 6 6 6 7 7 7 9 9 9 9 9 9 8 8 8 5 5 7 6 6 6 13 13 13 11 11 11 10 10 12 13 13 13 9 9 9 6 4 7 4 4 4 5 5 5 5 5 3 6 6 8 9 11 10 11 9 10 10 12 9 10 10 12 10 10 12 12 10 11 10 10 10 8 6 7 6 6 6 8 6 7 7 5 6 6 6 8 5 5 7 4 4 4 6 6 6 
4 4 4 3 3 1 4 4 4 6 6 6 4 2 5 5 3 6 5 5 7 7 7 7 9 7 8 8 8 8 5 5 5 6 4 7 6 4 7 4 4 4 5 5 5 7 5 6 7 7 7 7 7 7 5 5 5 6 6 6 6 6 6 5 5 5 7 7 7 8 8 8 11 9 10 8 6 7 8 6 7 14 12 13 13 11 12 9 7 8 7 5 6 7 5 6 7 5 6 7 5 6 8 6 7 7 6 4 5 3 4 6 4 5 6 4 5 8 6 7 6 6 6 5 5 5 4 4 4 6 6 6 7 7 7 7 7 7 8 8 8 7 7 7 8 8 8 8 8 8 9 7 8 10 8 9 8 8 8 8 8 10 8 8 8 7 7 7 7 7 7 10 6 5 9 7 8 10 10 10 12 11 9 9 9 9 9 9 9 7 8 3 8 6 7 8 8 8 6 6 6 7 7 7 7 7 7 7 7 7 10 10 10 12 10 11 8 8 8 4 4 6 5 3 6 12 12 12 14 12 13 10 10 12 13 13 13 11 11 11 6 4 5 5 3 4 4 4 4 5 5 5 6 6 6 6 6 6 8 8 8 11 11 11 12 12 10 9 9 7 10 9 7 10 10 10 9 7 8 7 7 7 9 7 8 8 6 7 5 5 5 5 3 4 8 4 5 8 6 7 
3 3 3 3 3 1 3 3 3 4 4 4 5 3 6 6 6 8 7 7 5 11 7 8 10 8 9 8 8 8 6 6 6 4 4 4 4 5 0 5 5 5 5 5 5 6 4 5 6 6 6 6 6 6 7 7 7 6 6 6 7 7 7 7 7 7 8 8 8 8 8 8 11 9 10 10 8 9 9 7 8 13 11 12 13 11 12 10 8 9 7 5 6 5 3 4 8 6 7 7 5 6 7 5 6 8 6 7 6 4 5 5 3 4 6 4 5 7 5 6 7 7 7 6 6 6 6 6 6 6 6 6 7 7 7 8 8 8 9 9 9 8 8 8 9 9 9 11 7 8 9 7 8 11 9 10 9 9 9 9 9 9 8 7 12 8 8 8 7 7 7 7 7 7 11 9 12 12 10 11 13 9 10 10 8 9 8 8 8 5 7 4 5 3 6 6 6 6 7 7 9 8 8 8 9 9 9 9 9 9 13 13 13 13 11 12 8 8 8 6 4 5 4 4 4 9 9 9 12 10 11 12 10 11 13 12 10 13 13 13 7 7 7 2 4 3 5 5 5 7 7 7 7 7 5 7 7 7 9 9 9 11 11 11 11 11 11 10 9 7 9 11 10 10 10 8 9 9 9 6 6 6 7 5 6 6 6 6 7 5 6 7 5 6 7 7 7 9 9 9 
5 5 5 4 4 4 4 4 6 6 4 5 6 6 6 6 6 6 8 8 8 9 9 7 10 8 9 9 7 8 6 6 6 4 4 4 6 4 5 6 6 6 6 4 5 6 4 7 6 6 6 7 7 7 10 10 10 9 9 9 7 7 7 6 6 6 8 8 8 8 8 8 9 7 8 9 7 8 10 8 9 11 9 10 11 9 10 10 8 9 8 6 7 6 4 5 8 6 7 8 6 7 9 7 8 8 6 7 7 5 8 8 6 7 8 6 7 7 5 6 8 8 8 7 7 7 7 7 7 7 7 7 8 8 8 9 9 9 9 9 9 8 8 8 9 9 9 9 9 11 9 7 8 11 11 11 10 10 10 10 10 10 8 8 8 7 7 7 7 7 7 9 9 9 11 11 11 13 11 14 11 11 11 9 9 9 8 8 8 7 5 6 6 6 8 8 6 7 8 8 10 7 7 7 9 9 9 11 11 11 16 14 15 14 14 14 10 10 12 7 7 7 5 5 5 6 4 5 7 7 7 10 10 10 13 13 13 15 13 14 11 9 10 5 3 4 7 5 6 7 7 7 7 7 7 8 8 8 9 9 9 11 9 10 9 9 9 10 10 10 10 10 8 11 11 11 10 10 10 9 7 8 7 5 6 7 7 7 7 5 6 5 5 5 10 10 10 13 13 13 
5 5 5 5 5 3 5 5 7 6 4 5 5 5 3 6 6 6 8 6 7 7 7 5 34 31 26 22 21 19 7 5 6 4 4 4 4 4 6 5 5 5 7 7 5 7 5 6 7 7 7 9 9 9 14 14 14 13 13 13 7 7 7 5 5 5 9 9 9 9 9 9 9 7 8 8 6 7 9 7 8 8 6 7 8 6 7 9 7 8 8 6 7 8 6 7 7 5 6 8 6 7 10 8 9 10 8 9 9 7 8 9 7 8 9 7 8 9 7 8 8 8 8 6 6 6 6 6 6 6 6 6 8 8 8 9 9 9 7 7 7 7 7 7 8 8 8 7 7 9 8 8 8 11 11 11 10 10 8 10 10 12 8 8 6 7 7 7 8 8 8 38 10 9 26 12 11 13 11 12 12 12 10 11 11 13 9 9 9 7 7 7 6 6 6 8 6 7 8 8 8 8 8 8 9 9 9 10 10 10 15 13 14 16 16 16 13 13 11 10 10 10 8 6 7 45 3 5 5 5 5 9 9 7 14 14 14 14 14 14 12 10 11 8 6 7 6 6 6 6 6 6 7 7 7 8 8 8 10 8 9 10 8 9 12 8 9 11 9 10 24 10 9 52 12 13 42 12 14 10 10 12 6 6 4 8 6 7 7 6 4 6 6 6 11 11 11 15 15 15 
4 4 4 5 5 3 5 5 5 6 4 5 7 6 4 7 7 7 6 4 5 36 31 25 73 66 48 37 34 27 5 5 3 4 4 4 6 4 5 5 5 5 6 4 5 7 5 6 8 8 8 10 10 10 14 14 14 12 12 12 8 8 8 7 7 7 9 9 9 9 9 9 8 6 7 8 6 7 8 6 7 7 5 6 8 6 7 9 7 8 8 6 7 7 5 6 8 6 7 9 7 8 10 8 9 9 7 8 9 7 8 9 7 8 11 9 10 11 9 10 6 6 6 5 5 5 4 4 4 6 6 6 8 8 8 8 8 8 7 7 7 7 7 7 7 7 7 7 7 7 9 9 9 10 10 12 10 10 8 10 10 10 8 8 8 7 7 5 8 8 8 36 8 5 25 11 10 14 13 11 13 13 13 12 12 12 10 10 10 8 8 8 7 7 7 8 6 7 8 8 8 8 8 8 9 9 9 10 10 10 9 7 8 12 12 12 15 15 15 13 13 11 52 8 7 90 4 7 6 6 4 8 8 6 13 11 14 15 15 15 12 10 11 8 8 6 6 6 6 5 5 5 7 7 9 9 9 9 9 9 9 8 8 6 9 7 8 9 11 8 26 12 12 64 13 12 81 13 14 41 11 11 8 6 7 7 7 9 7 7 5 7 7 7 10 10 10 13 13 13 
6 5 3 5 5 5 5 5 5 6 6 8 6 6 8 6 6 6 6 4 5 41 37 28 56 52 40 24 23 18 4 4 4 3 3 3 5 3 4 5 5 5 4 4 4 7 5 6 9 9 9 11 11 11 14 14 14 10 10 10 8 8 8 8 8 8 11 11 11 9 9 9 8 6 7 8 6 7 6 4 5 5 3 4 8 6 7 11 9 10 9 7 8 8 6 7 9 7 8 9 7 8 10 8 9 9 7 10 9 7 8 9 7 8 11 9 10 11 9 10 6 6 6 3 3 3 4 4 4 6 6 6 8 8 8 8 8 8 8 8 8 8 8 8 9 7 8 8 8 8 10 8 9 9 9 9 10 10 10 10 10 10 8 8 8 7 7 5 7 7 5 8 8 8 9 9 11 14 12 13 13 13 13 11 11 11 11 11 13 11 9 10 8 8 8 8 6 7 7 7 7 8 8 8 10 10 10 9 9 7 8 6 7 10 10 8 16 14 17 14 16 15 61 10 9 58 7 6 5 5 5 8 8 6 10 10 10 12 12 12 10 10 12 8 6 7 6 6 4 6 6 6 7 7 7 9 9 9 10 8 9 8 6 7 8 8 6 11 11 9 11 11 11 30 10 11 61 11 12 50 10 11 7 9 8 7 7 9 8 8 8 6 6 6 10 10 10 13 11 12 
6 4 5 4 4 4 6 6 4 6 6 6 5 5 7 5 3 4 7 5 6 5 5 5 7 7 7 5 5 5 4 4 6 4 4 4 6 6 6 6 6 4 5 5 5 6 6 6 7 7 7 10 10 10 12 12 12 7 7 7 6 6 6 8 8 8 11 11 11 8 8 8 9 7 8 8 6 7 6 4 5 4 2 3 7 5 6 11 9 10 9 7 8 10 8 9 13 11 12 7 5 6 7 5 6 10 8 9 10 8 9 9 7 8 11 9 10 10 8 9 6 6 6 3 3 3 2 2 2 5 5 5 7 7 7 7 7 7 8 8 8 8 8 8 12 8 7 12 10 11 9 11 10 8 8 6 11 9 10 12 10 11 10 10 10 8 8 8 7 7 7 8 8 8 10 8 9 11 9 12 14 10 11 12 10 11 11 11 11 10 11 13 12 10 11 7 7 7 7 7 7 8 8 8 10 10 10 8 8 6 5 5 5 9 8 6 14 14 14 17 17 19 15 11 12 8 8 6 6 6 4 8 7 5 7 7 5 10 10 8 9 9 9 7 7 7 7 7 7 7 7 7 7 7 7 10 10 10 9 7 8 8 6 7 9 9 7 10 10 10 11 11 11 11 11 11 13 12 10 9 9 9 8 7 5 8 8 8 10 10 10 7 7 7 7 7 7 9 9 9 
5 3 6 6 6 6 8 7 5 5 5 5 6 6 8 6 4 5 8 6 7 7 7 7 7 7 5 7 5 6 7 5 6 6 6 6 7 7 7 6 6 6 6 6 6 7 7 7 6 6 6 6 6 6 11 11 11 9 9 9 6 6 6 8 8 8 10 10 10 8 8 8 9 7 8 8 6 7 6 4 5 6 4 5 7 5 6 9 7 8 9 7 8 11 9 10 11 9 10 7 5 6 7 5 6 10 8 9 11 10 8 8 6 7 9 7 8 9 7 8 6 6 6 4 4 4 3 3 3 4 4 4 5 5 5 6 6 6 7 7 7 8 8 8 11 9 10 12 12 12 9 9 9 8 8 8 10 10 8 12 12 12 12 12 12 10 10 10 7 7 7 10 6 5 8 6 7 7 7 9 11 9 10 11 11 11 11 11 11 9 9 9 11 9 10 8 8 8 9 9 9 9 9 9 9 9 9 7 7 7 7 7 7 8 6 7 13 13 13 19 17 18 14 14 12 10 10 10 8 7 3 7 7 7 7 7 7 8 8 8 8 8 6 8 8 8 8 8 10 8 8 8 8 8 8 10 10 10 8 8 8 8 8 8 9 9 9 10 10 10 11 11 11 11 10 8 10 10 8 9 9 9 7 7 9 6 6 8 7 9 6 7 7 5 7 7 5 6 6 4 
5 3 6 6 6 6 6 6 6 8 6 7 6 6 4 7 7 9 6 6 6 7 7 7 7 7 5 7 7 7 6 6 6 7 5 6 7 7 7 6 6 8 7 7 7 6 6 4 5 5 5 5 5 3 8 6 7 10 10 10 8 8 6 8 6 7 9 7 8 7 5 8 8 8 8 7 7 7 7 7 7 5 5 5 5 5 5 8 8 8 7 7 7 10 10 10 12 10 11 8 6 7 7 6 4 9 7 10 10 9 7 7 5 8 7 5 6 8 6 7 7 5 6 5 3 4 4 2 3 4 2 3 4 2 3 5 3 4 7 5 6 7 5 6 10 10 10 12 11 9 8 10 9 7 7 7 9 9 9 12 10 11 15 13 14 13 11 12 10 10 10 8 8 8 7 7 7 5 5 5 7 7 7 11 11 11 14 12 13 12 11 9 10 9 7 10 8 9 8 8 8 9 7 8 8 6 7 6 6 6 4 4 4 7 6 4 10 8 9 14 14 12 13 13 13 10 10 10 6 6 6 5 5 5 6 6 8 7 7 7 8 6 7 8 8 8 9 9 9 9 9 9 9 9 9 9 7 8 7 7 9 7 7 5 8 8 6 11 11 11 11 11 11 9 9 9 7 7 7 7 7 7 7 7 7 7 5 8 5 7 6 6 6 6 7 7 7 7 7 5 
7 5 8 7 7 9 5 7 6 7 7 5 8 6 7 7 7 5 6 6 6 6 6 6 6 8 7 7 7 7 7 5 8 5 5 5 7 7 5 7 9 8 7 7 7 8 6 7 8 6 7 8 6 7 8 6 7 8 8 8 7 7 7 6 6 6 7 5 8 7 7 7 8 8 8 8 8 8 7 7 7 7 7 7 6 6 6 8 8 8 7 7 7 9 9 9 10 10 10 10 10 10 7 5 6 8 8 8 8 8 8 7 7 7 6 6 8 7 7 7 6 6 6 5 5 7 5 5 5 4 4 4 3 3 3 4 4 4 6 6 6 9 9 9 11 10 8 12 10 11 8 8 10 6 6 6 7 7 7 8 10 9 13 11 14 14 14 14 13 13 13 9 9 9 6 6 6 5 5 5 7 7 7 9 9 9 13 11 12 11 9 10 8 6 9 8 6 7 8 7 5 8 8 8 8 8 8 6 6 4 5 5 5 4 4 4 5 5 5 12 10 11 13 13 13 9 9 9 5 5 3 5 5 3 6 6 6 7 7 5 7 7 7 8 8 6 10 10 8 9 9 9 8 8 10 7 7 7 6 6 6 8 10 9 11 11 11 12 12 12 12 12 12 11 9 10 8 8 8 7 5 6 7 5 6 7 7 7 5 5 7 6 6 6 8 6 7 8 7 5 
8 8 6 6 6 6 7 7 7 8 7 12 7 5 6 7 7 7 6 6 6 6 5 3 5 5 3 5 5 5 6 6 6 7 5 6 8 6 7 7 7 5 7 7 7 7 7 7 6 6 4 8 6 7 7 7 7 6 6 8 6 4 5 5 3 4 5 5 7 8 8 8 8 8 8 9 9 9 9 9 9 10 10 10 8 8 8 7 7 7 6 6 6 8 8 8 8 8 8 7 7 5 8 7 5 8 6 7 8 8 8 8 8 8 7 7 7 8 6 7 7 7 7 5 5 5 5 5 7 5 5 5 3 3 5 3 3 3 10 10 10 11 11 11 9 7 10 9 7 8 8 8 6 6 4 5 7 7 7 7 9 8 14 13 11 14 14 14 13 13 13 9 9 9 7 7 7 5 5 5 5 5 5 6 6 6 10 8 9 10 8 9 8 8 10 7 7 7 8 8 6 8 8 6 8 6 7 7 6 4 6 6 6 3 3 3 6 6 6 10 10 12 12 12 12 9 9 7 4 2 3 3 1 2 4 4 4 7 5 6 7 7 9 7 7 7 8 10 9 9 7 8 6 6 6 6 6 6 6 6 4 9 9 7 12 12 12 12 12 12 11 11 11 11 9 10 8 8 8 7 5 6 6 4 5 6 6 6 5 5 3 6 4 5 5 5 7 7 7 7 
18 17 15 7 7 9 8 9 4 9 7 8 7 7 7 7 7 7 6 6 6 5 5 3 3 3 3 3 5 4 7 5 6 7 7 7 5 5 5 6 6 6 6 6 6 7 5 6 11 10 8 18 14 13 12 11 9 6 6 6 7 7 7 6 5 3 2 6 7 8 8 8 10 10 10 8 8 8 9 9 9 11 11 11 10 10 10 6 6 6 7 7 7 9 9 9 8 6 7 8 8 8 13 12 10 13 13 11 8 10 9 7 7 7 6 6 6 7 7 5 6 6 4 5 5 5 5 5 3 4 4 4 4 4 4 4 4 4 11 11 9 12 12 14 9 9 9 8 8 6 18 17 13 5 5 7 6 6 4 9 9 9 14 16 13 14 14 14 12 12 10 9 9 9 5 5 5 3 3 3 6 6 6 8 8 8 10 8 9 12 10 11 11 11 11 10 10 10 12 12 12 12 12 10 8 6 7 5 5 7 5 5 7 3 3 3 4 4 4 7 7 7 10 10 10 11 9 10 4 4 2 2 2 2 4 2 3 6 6 6 7 7 7 7 7 7 8 8 8 13 7 7 15 5 6 11 5 7 7 5 8 7 8 10 10 10 10 12 12 10 12 12 12 10 10 10 8 8 8 6 6 6 5 5 7 7 5 6 7 7 7 6 6 4 3 3 3 5 3 4 
88 81 62 7 5 8 7 7 7 6 5 3 6 6 8 7 7 7 6 6 4 5 5 5 4 4 4 5 4 2 7 5 6 7 7 7 5 7 4 6 4 5 7 7 7 13 13 11 42 33 26 82 64 50 60 50 38 6 6 8 6 6 6 5 5 5 5 5 5 8 10 9 10 10 10 8 8 8 10 10 10 11 11 11 10 10 10 7 7 7 8 8 8 8 8 8 9 7 8 7 7 7 54 50 39 37 32 26 9 9 9 7 7 7 5 5 5 7 6 4 7 7 7 5 5 5 5 5 5 7 7 7 6 6 8 7 7 7 10 10 10 11 11 13 11 9 10 18 17 13 86 73 54 4 3 8 6 6 6 9 9 9 15 15 17 15 15 17 11 11 9 8 8 8 6 6 6 5 5 5 4 4 4 6 6 6 11 9 10 12 10 11 12 12 12 13 11 12 38 30 27 64 56 45 7 5 6 4 6 5 4 4 2 4 4 6 3 3 3 6 6 6 11 11 11 12 12 12 10 6 7 4 2 3 1 1 1 5 3 4 6 6 6 8 6 9 9 7 10 58 7 6 86 5 4 35 5 3 7 6 4 7 5 8 9 9 9 11 11 11 12 12 10 10 10 10 10 10 10 8 8 10 8 8 8 9 7 8 7 5 8 5 5 5 5 3 4 6 6 6 
77 72 53 7 5 8 7 7 9 5 5 5 6 6 8 6 7 9 7 5 8 6 4 7 5 4 2 4 4 2 6 6 4 7 7 7 6 6 4 6 8 7 7 7 7 35 30 27 76 66 54 62 49 41 6 6 6 6 6 4 7 5 6 5 5 5 6 6 6 10 9 7 9 9 9 8 8 8 9 9 9 10 10 10 8 8 8 7 7 7 7 7 7 7 7 7 8 8 10 7 7 5 9 9 11 10 10 10 8 10 9 7 7 5 6 6 8 6 6 4 7 7 7 6 6 6 5 5 5 7 7 7 10 10 10 9 9 9 9 9 7 10 10 10 11 11 9 81 68 59 75 66 49 6 6 8 6 6 6 10 8 11 13 13 13 13 13 13 11 11 11 7 7 7 5 5 5 3 3 3 3 3 3 6 6 6 9 7 8 11 9 10 13 13 13 13 13 13 12 10 11 9 9 9 8 6 9 4 5 7 4 6 5 5 5 3 5 5 5 6 5 3 11 9 10 15 13 16 10 10 10 4 4 4 1 1 3 2 2 2 5 3 6 9 8 6 8 6 7 52 6 6 76 4 5 30 4 5 7 5 6 6 6 6 7 7 7 8 8 8 9 9 9 11 9 10 10 10 10 9 7 8 9 7 8 8 8 6 7 5 6 4 4 4 7 7 7 8 8 10 
5 5 5 3 4 6 5 5 5 7 7 7 5 5 5 7 7 5 6 6 6 7 5 8 5 5 5 5 3 4 5 5 3 8 7 5 8 6 7 8 8 10 7 7 7 5 5 5 5 5 3 6 6 6 8 6 7 7 5 6 7 5 6 5 6 8 6 6 6 9 9 9 8 8 8 8 8 8 6 6 6 7 7 7 8 8 8 10 10 10 7 7 7 5 5 5 7 7 7 7 7 5 7 7 7 9 11 10 10 10 10 7 7 7 6 6 6 7 6 2 6 6 6 6 6 8 6 6 6 7 7 7 10 10 10 10 10 10 9 9 9 10 10 10 11 10 8 8 9 11 8 8 6 8 8 8 7 5 8 9 9 9 10 11 6 9 9 9 8 8 8 7 7 7 3 3 3 4 4 4 4 4 4 4 4 4 10 8 9 12 10 11 13 13 13 13 13 15 11 11 11 8 8 8 7 7 7 6 5 3 5 4 0 5 4 2 6 6 6 6 6 6 10 10 10 14 14 14 9 9 9 3 3 3 2 2 2 2 2 2 5 5 5 7 7 7 5 5 5 6 5 3 5 4 2 5 5 5 5 5 5 6 4 5 6 6 6 7 7 7 8 8 8 11 9 10 9 9 9 9 8 6 9 8 6 9 9 9 8 6 7 4 4 4 9 7 8 9 7 8 
4 2 5 5 3 6 6 5 3 9 7 8 9 9 9 8 8 6 6 8 7 6 6 6 8 6 7 6 6 6 6 6 8 6 6 8 8 6 9 8 6 7 8 6 7 7 7 7 5 5 5 6 4 5 8 8 8 9 9 9 9 7 8 8 8 8 8 8 8 9 9 11 8 8 8 11 11 11 8 8 8 6 6 6 7 7 7 10 10 10 8 8 8 6 6 6 6 6 6 6 6 6 8 7 5 10 8 9 10 10 10 8 8 10 8 8 10 7 7 9 8 8 8 7 7 7 8 8 8 9 9 9 9 9 9 11 11 11 13 13 13 11 11 11 7 7 7 7 7 5 7 7 7 8 8 8 9 9 7 9 7 8 8 10 9 8 8 8 8 8 8 7 7 7 5 5 5 3 3 3 2 2 2 4 4 4 8 6 7 13 12 10 14 12 15 12 12 10 10 10 10 8 8 6 9 9 9 7 7 7 6 4 5 5 5 7 8 8 8 12 10 13 11 11 11 11 11 11 7 7 5 6 6 8 4 4 4 4 2 3 5 5 7 6 6 6 6 4 5 5 3 4 6 4 5 4 4 4 4 4 2 8 4 5 7 7 7 7 7 7 8 8 8 9 9 9 8 8 8 8 8 8 9 9 9 11 9 10 11 9 10 7 5 6 7 7 7 8 8 10 
