P3
100 50
255
7 7 7 5 5 5 6 6 6 9 9 9 9 9 7 9 7 8 10 8 9 11 11 9 10 10 10 11 9 10 11 9 10 10 10 10 11 11 11 10 8 9 7 5 6 7 7 7 9 9 9 9 9 9 10 10 10 10 10 10 8 8 8 7 7 7 7 7 7 9 9 9 11 11 13 11 9 12 11 11 11 14 14 14 13 13 13 15 13 14 13 13 13 12 12 12 12 12 12 13 13 15 11 11 11 9 9 9 10 8 9 11 9 12 12 12 12 12 12 14 8 8 8 7 7 5 9 8 6 10 9 7 9 9 9 14 5 6 73 7 8 71 10 9 71 9 10 74 8 9 72 6 7 75 11 12 71 10 9 74 10 11 73 11 12 76 8 7 72 8 6 71 7 8 28 6 8 6 6 6 8 8 8 6 7 9 5 5 5 5 5 3 5 5 5 7 7 7 6 4 5 5 5 5 7 7 7 7 7 7 5 5 5 6 6 6 10 10 10 14 14 14 13 13 13 12 12 12 12 12 12 10 10 10 9 9 9 10 10 10 9 9 11 10 8 9 9 9 9 10 10 10 9 9 9 11 11 11 8 8 8 6 6 6 6 6 6 5 5 5 5 5 5 4 4 4 5 5 5 7 7 7 8 6 7 6 6 6 6 6 6 10 10 8 13 13 15 12 10 11 
5 7 6 4 4 4 8 6 7 6 6 8 4 5 7 6 6 6 8 8 8 10 10 12 9 9 9 12 10 11 11 9 10 9 9 9 10 10 10 10 8 9 8 6 7 7 7 7 8 8 8 9 9 9 10 10 10 11 11 11 11 11 11 10 10 10 9 9 9 10 10 10 9 9 9 9 9 11 10 10 10 13 13 13 14 14 12 14 14 14 15 15 15 13 13 13 12 10 11 10 12 11 9 9 9 8 8 6 9 7 8 10 10 10 11 10 8 10 10 12 9 9 9 9 9 7 10 10 10 9 9 11 9 10 5 7 7 7 15 7 5 73 7 8 74 8 9 72 6 8 73 7 8 73 13 13 73 11 14 72 12 11 73 12 11 74 10 10 73 7 8 71 5 6 71 7 5 73 9 9 32 8 6 8 8 8 7 7 5 6 6 4 6 4 5 7 5 6 5 5 5 5 5 5 6 6 6 8 6 7 6 6 6 6 6 6 6 6 6 11 11 11 11 11 11 12 12 12 12 12 12 10 10 10 9 9 9 8 8 8 7 9 8 11 11 11 10 10 8 10 9 7 9 9 9 10 10 10 9 7 8 7 9 8 7 7 7 6 6 6 4 4 4 5 5 5 5 5 5 7 5 6 7 5 6 7 7 7 5 5 3 7 8 10 11 9 12 12 12 10 
5 5 5 4 4 4 5 5 5 6 6 6 6 6 6 5 5 5 9 9 9 8 8 8 9 9 9 10 10 10 9 9 9 9 9 9 9 9 9 9 9 9 9 9 9 9 9 9 9 9 9 10 10 10 10 10 10 10 10 10 9 9 9 11 11 11 9 9 9 9 9 9 10 8 9 9 7 10 8 8 10 10 10 12 12 14 13 13 13 11 14 14 14 13 11 12 12 10 11 11 9 10 10 10 10 10 9 5 9 9 9 11 10 8 11 11 11 10 10 10 10 10 10 9 9 9 10 10 10 9 7 8 9 9 7 8 8 6 8 8 10 16 7 8 15 7 5 13 4 5 15 7 5 20 11 12 67 11 12 75 11 11 72 10 11 73 9 10 74 6 5 73 5 6 73 7 8 72 8 8 68 8 7 65 9 8 37 9 8 6 6 4 4 6 5 4 4 4 3 3 3 4 4 4 6 6 6 8 6 7 9 7 8 7 6 4 4 4 2 9 9 9 13 13 13 14 12 13 11 9 10 10 8 9 8 8 8 7 7 7 7 7 7 8 8 8 8 8 8 9 9 9 10 10 10 10 10 10 9 9 9 7 7 7 8 8 8 5 5 5 4 4 4 5 5 5 6 6 6 6 6 6 7 7 7 6 6 6 7 7 7 8 8 8 10 10 10 10 10 10 
6 6 6 5 5 5 5 5 5 5 5 5 8 8 8 9 9 9 12 12 12 10 10 10 9 9 9 8 8 8 9 9 9 11 11 11 11 11 11 10 10 10 8 8 8 9 9 9 10 10 10 10 10 10 11 11 11 10 10 10 10 10 10 12 12 12 9 9 9 9 9 9 9 9 9 7 7 5 8 8 8 9 9 9 12 12 12 13 13 11 15 13 16 10 10 10 9 9 9 10 9 7 9 9 9 9 9 9 10 9 7 11 9 10 12 12 12 12 12 12 30 10 11 66 10 13 64 10 10 49 9 9 10 8 9 7 7 7 7 7 9 9 9 9 9 7 8 7 5 6 9 9 9 11 9 10 18 10 8 66 10 11 74 10 10 74 45 39 74 56 46 74 57 49 75 26 21 73 7 8 73 7 8 76 8 9 43 9 10 7 7 7 7 6 4 6 4 5 5 5 3 4 4 4 8 8 6 10 8 9 8 8 6 5 5 5 6 6 6 11 10 8 16 14 15 15 13 14 12 12 12 12 10 13 10 10 10 9 9 7 7 7 7 6 6 6 8 8 8 13 13 13 11 11 11 9 9 9 8 8 8 7 7 7 6 6 6 7 5 6 7 5 6 5 5 5 5 5 5 7 5 6 8 6 7 6 6 6 6 6 4 9 9 9 10 10 10 9 9 9 
7 7 7 7 7 7 6 6 6 7 7 7 10 10 10 10 10 10 11 11 11 12 12 12 9 9 9 6 6 6 9 9 9 13 13 13 12 12 12 11 11 11 10 10 10 8 8 8 11 11 11 12 12 12 12 12 12 11 11 11 10 10 10 10 10 10 9 9 9 10 10 10 11 11 11 68 8 8 8 8 8 11 9 10 10 10 10 13 13 15 11 11 11 8 8 8 9 9 9 8 8 8 9 9 9 10 10 12 9 9 9 10 8 9 11 11 11 12 12 14 34 10 10 72 11 10 70 10 10 59 11 11 8 8 10 8 8 8 8 7 5 9 9 9 9 9 9 9 7 8 9 7 8 9 9 9 11 10 8 17 8 9 65 51 40 72 60 48 72 62 52 71 63 50 73 61 49 74 60 49 75 28 22 75 9 10 42 11 9 9 9 9 7 7 7 6 6 6 7 5 6 6 6 4 9 9 7 10 10 10 7 7 7 6 4 5 7 7 9 12 11 9 14 14 14 68 14 14 14 13 11 14 14 14 15 15 15 11 11 11 8 6 7 3 3 3 8 6 9 14 14 14 14 12 13 8 8 10 8 6 7 6 6 6 7 5 6 6 6 6 5 5 5 4 2 3 7 5 6 7 7 7 7 7 7 8 6 7 7 7 7 10 10 10 10 10 10 10 8 9 
7 7 7 9 9 9 8 8 8 7 7 7 8 8 8 9 9 9 10 10 10 13 13 13 9 9 9 7 7 7 10 10 10 13 13 13 11 11 11 11 11 11 13 13 13 11 11 11 11 11 11 12 12 12 12 12 12 11 11 11 10 10 10 9 9 9 10 10 10 10 10 10 10 10 10 77 8 11 10 10 10 11 11 11 10 10 10 12 12 12 12 8 9 9 7 8 10 10 12 9 9 9 8 8 8 10 8 9 9 9 9 10 9 7 10 10 10 29 11 9 66 10 9 71 9 10 58 10 8 21 9 9 8 8 8 7 5 6 5 5 5 8 8 10 10 10 8 11 11 11 11 10 8 9 9 7 11 11 11 8 8 8 66 56 44 71 63 50 71 62 47 70 61 46 71 61 49 73 39 30 76 39 33 76 32 31 41 9 10 8 8 10 7 7 7 7 7 5 8 8 8 8 8 6 8 8 8 10 10 10 8 8 8 7 7 5 7 7 7 11 11 11 15 15 15 28 12 12 13 13 11 13 13 13 16 14 15 11 11 11 7 7 7 3 3 5 6 6 6 12 10 11 12 12 12 9 7 8 7 7 9 6 6 6 7 7 7 5 5 5 4 4 4 5 5 5 4 4 4 6 6 6 6 6 6 7 7 7 7 7 7 9 7 8 8 8 8 9 9 9 
7 7 7 9 9 9 9 9 9 8 8 8 9 9 9 9 9 9 9 9 9 10 10 10 9 9 9 9 9 9 10 10 10 8 8 8 7 7 7 11 11 11 15 15 15 15 15 15 13 13 13 13 13 13 11 11 11 10 10 10 9 9 9 9 9 9 9 9 9 10 10 10 9 9 9 26 10 11 10 10 10 12 12 12 11 11 11 9 11 8 9 8 6 9 7 8 7 7 5 7 7 7 6 6 6 8 10 7 10 10 10 10 10 12 9 9 11 34 8 7 74 10 8 56 10 10 20 8 8 8 8 8 5 5 5 6 6 6 7 7 7 8 6 9 12 12 10 10 11 13 10 10 8 8 10 9 10 12 11 9 9 9 66 22 19 72 52 43 72 60 46 70 58 42 69 60 45 71 26 23 75 44 39 74 39 33 39 9 9 10 10 10 8 8 8 6 8 5 9 8 6 9 9 9 9 9 9 8 8 10 9 9 9 9 9 11 10 8 9 13 13 13 15 14 12 14 12 13 12 12 12 13 12 10 13 13 13 11 9 12 7 7 7 6 6 6 7 5 6 9 9 9 10 8 9 7 7 7 7 7 7 8 8 8 7 7 7 5 5 5 6 6 6 6 6 6 6 6 6 5 5 5 5 5 5 6 6 6 8 8 8 8 8 8 7 7 7 9 9 9 
8 8 8 8 8 8 9 9 9 9 9 9 10 10 10 10 10 10 8 8 8 5 5 5 7 7 7 8 8 8 8 8 8 7 7 7 8 8 8 12 12 12 15 15 15 15 15 15 13 13 13 13 13 13 9 9 9 9 9 9 8 8 8 9 9 9 9 9 9 11 11 11 10 10 10 9 9 9 9 9 9 10 8 9 10 10 10 9 11 10 9 9 7 8 8 8 6 6 4 5 5 7 7 7 7 8 8 6 10 10 8 11 11 13 10 10 10 18 9 10 25 11 11 18 9 10 9 9 7 7 7 9 6 6 4 7 7 5 5 7 2 8 6 7 10 10 8 11 11 13 11 11 11 10 10 10 10 10 10 10 10 10 26 10 11 61 21 21 71 51 40 71 59 45 70 36 27 71 10 7 74 21 17 72 17 14 40 8 9 9 9 9 9 9 7 9 7 8 8 8 10 8 8 8 10 9 7 9 9 9 9 7 8 9 9 9 11 11 11 12 12 12 14 13 11 13 13 13 10 9 7 10 10 8 13 11 14 9 9 11 9 9 7 10 8 9 8 8 8 9 7 8 8 8 8 9 7 8 8 8 8 9 8 6 7 5 6 7 7 7 7 7 7 7 5 6 6 4 5 5 5 5 6 6 6 8 6 7 10 10 10 7 7 7 6 6 6 11 11 11 
9 9 9 6 6 6 6 6 6 9 9 9 10 10 10 10 10 10 9 9 9 8 8 8 7 7 7 9 9 9 9 9 9 9 9 9 10 10 10 12 12 12 15 15 15 14 14 14 10 10 10 10 10 10 9 9 9 9 9 9 9 9 9 10 10 10 11 11 11 11 11 11 10 10 10 7 9 6 6 8 5 9 9 9 9 9 9 11 9 10 11 11 11 10 8 11 8 7 5 7 6 4 7 7 7 7 7 9 12 11 9 13 13 13 12 10 11 9 9 9 9 9 9 10 10 10 9 9 9 7 5 6 6 6 6 7 7 7 7 7 7 7 7 5 10 8 9 10 10 10 11 11 13 11 11 11 10 10 10 10 10 10 13 15 14 29 13 13 66 22 19 71 26 21 71 11 10 74 6 7 74 8 10 54 8 10 21 9 9 7 8 10 9 9 7 8 8 8 8 8 8 8 6 7 7 7 7 7 7 7 7 7 7 9 9 9 13 13 13 13 13 11 12 12 12 10 10 10 8 8 8 11 9 10 10 10 8 9 9 9 9 9 9 10 10 8 10 10 10 9 9 9 9 9 9 10 10 10 9 9 7 6 6 6 5 5 5 8 6 7 7 5 6 5 5 5 6 6 6 8 6 7 7 5 6 7 7 7 9 9 11 7 7 7 8 8 8 11 9 10 
9 9 9 7 7 7 5 5 5 9 9 9 10 10 10 12 12 12 11 11 11 11 11 11 9 9 9 10 10 10 10 10 10 8 8 8 11 11 11 12 12 12 11 11 11 12 12 12 8 8 8 8 8 8 10 10 10 8 8 8 10 10 10 10 10 10 10 10 10 11 11 11 10 8 9 6 6 6 7 7 9 8 8 8 10 10 8 10 10 10 11 11 11 11 9 12 8 8 8 7 7 7 7 5 6 8 8 8 10 10 10 13 11 12 11 11 11 9 9 9 7 9 8 7 7 7 8 8 8 8 6 7 7 7 7 8 8 8 7 9 8 7 7 7 9 9 7 10 10 12 11 11 11 11 11 11 10 10 8 9 11 10 11 13 10 14 12 13 26 10 10 31 5 6 31 5 4 32 6 5 59 9 10 42 10 11 9 9 7 29 8 7 32 6 7 24 23 18 49 45 36 49 34 31 37 7 7 7 7 7 6 6 8 8 10 9 11 11 11 14 14 12 16 14 15 8 8 8 7 5 8 10 8 9 9 9 9 7 7 7 8 8 8 10 10 12 11 11 11 13 13 13 11 11 11 10 10 10 8 8 10 7 7 7 7 7 7 7 7 7 7 7 7 6 6 6 5 5 5 6 6 6 9 9 9 10 10 10 10 10 10 9 7 8 9 9 9 10 10 10 
8 8 8 7 5 6 7 5 6 8 8 8 10 10 10 13 13 13 12 12 12 10 10 10 9 9 9 9 9 9 10 8 9 12 12 12 13 11 12 10 10 10 10 10 10 10 10 10 9 7 8 10 8 9 10 8 9 7 8 10 8 8 6 11 10 8 11 9 10 11 11 11 8 8 6 5 5 5 6 6 8 8 8 8 10 10 10 12 11 9 12 12 10 10 10 10 42 7 11 47 7 5 24 8 9 9 7 10 10 12 9 11 11 9 9 11 8 10 10 10 8 7 5 7 7 7 8 6 7 7 7 7 7 7 7 9 9 9 6 6 8 7 7 7 10 9 7 50 10 11 10 12 11 11 11 11 11 11 11 10 10 12 10 10 10 11 9 10 10 9 7 7 7 5 7 5 6 7 7 7 28 10 10 21 11 10 7 7 7 17 5 5 39 22 15 59 52 42 75 69 55 75 53 42 69 8 7 37 7 7 6 6 6 9 9 9 14 14 14 13 13 13 13 13 13 10 10 10 6 6 6 8 8 8 9 7 8 7 7 7 7 7 7 8 8 8 10 10 10 10 10 10 11 11 11 10 10 10 10 10 10 9 9 9 9 9 9 9 9 9 7 7 7 6 4 5 5 5 5 8 8 8 8 10 9 10 10 8 11 9 10 10 10 10 9 9 11 9 9 7 
7 7 7 7 7 7 8 6 7 9 9 9 13 13 13 15 13 14 12 10 11 8 8 8 8 8 8 9 9 9 11 9 10 12 12 12 13 11 12 10 10 10 9 9 9 10 10 10 8 8 8 7 7 7 9 8 6 9 9 9 8 8 8 10 8 9 10 10 10 10 10 10 6 6 6 5 5 3 7 7 7 9 9 9 11 9 10 10 12 11 12 10 13 36 10 9 66 8 7 72 8 6 55 9 9 21 9 9 9 9 9 10 10 10 9 9 9 7 7 7 7 7 5 8 6 7 7 7 7 8 8 10 9 9 9 9 9 9 7 7 9 12 8 9 42 11 9 75 11 11 11 11 11 10 10 12 10 12 9 10 10 12 9 7 8 9 9 9 11 9 10 8 10 9 9 7 8 8 8 8 8 10 9 10 10 10 7 7 7 23 19 16 51 47 36 74 68 52 73 69 57 74 52 41 72 6 7 57 7 6 7 7 9 10 10 10 13 13 13 12 12 12 13 13 13 12 12 12 5 5 5 6 6 6 10 8 9 9 9 9 7 7 7 8 8 8 9 9 9 10 10 10 11 11 11 11 11 11 10 10 10 11 11 11 12 10 11 9 7 8 7 7 7 5 5 3 5 3 4 7 7 5 11 11 11 10 12 11 9 8 13 10 10 10 9 9 9 8 8 6 
6 6 6 5 5 5 8 8 8 11 11 11 14 14 14 14 12 13 11 9 10 9 7 8 9 9 9 9 9 9 11 9 10 11 11 11 11 9 10 10 10 10 8 8 8 9 9 9 20 8 8 33 7 8 7 7 7 8 8 6 9 8 6 9 9 11 9 9 7 7 7 7 5 3 4 6 6 6 8 8 8 9 9 9 11 11 9 11 11 11 35 11 11 68 10 9 73 9 10 70 8 9 75 11 12 54 10 9 42 10 11 25 9 10 7 7 7 7 7 7 8 6 7 8 6 7 4 8 7 8 8 8 9 9 11 10 10 10 8 8 6 16 8 6 73 9 9 73 12 11 42 11 9 40 9 7 14 10 9 8 8 6 8 6 7 8 8 8 10 10 8 10 10 12 10 10 10 8 8 8 9 9 9 9 9 9 6 6 6 39 20 16 74 47 38 73 67 55 74 68 52 72 50 39 72 7 5 63 7 8 35 7 6 9 7 8 12 12 12 9 9 9 12 12 12 14 14 14 6 6 6 6 6 6 11 9 10 11 11 11 9 9 9 7 7 7 9 9 9 10 10 10 12 12 12 13 13 13 13 13 13 12 12 12 10 10 10 9 8 6 10 6 7 6 6 6 6 6 6 9 9 7 12 10 11 11 11 11 10 10 10 11 11 11 9 9 11 39 32 26 
4 4 4 7 7 7 10 10 10 10 10 10 11 13 12 10 10 10 11 9 10 10 10 10 9 9 9 8 8 8 11 9 10 10 10 10 10 8 9 8 8 8 8 8 8 10 10 10 20 8 8 33 7 6 6 6 6 7 7 7 8 8 8 9 7 10 6 6 8 6 6 8 4 4 4 5 5 7 8 8 8 9 9 9 9 9 9 9 9 9 59 9 12 74 10 10 73 7 9 70 9 8 72 10 11 73 11 12 76 12 12 39 8 5 6 6 4 7 7 7 7 7 7 6 6 6 7 7 7 8 8 8 9 9 9 9 9 9 10 10 8 14 10 9 41 10 8 73 38 34 76 37 32 42 11 9 14 10 11 7 7 7 5 5 5 7 7 7 9 9 9 10 10 8 10 10 10 9 9 9 10 8 9 11 9 10 9 9 7 38 7 5 70 17 13 70 36 26 71 37 27 71 26 20 64 6 5 37 7 5 36 8 7 8 8 8 9 9 9 9 9 9 12 12 12 15 15 15 10 10 10 7 7 7 11 9 10 12 12 12 10 10 10 8 8 8 8 8 8 10 10 10 13 13 13 15 15 15 14 14 14 13 13 13 11 11 9 8 8 8 6 6 6 6 6 6 8 8 8 9 9 9 10 12 11 10 10 10 14 9 13 11 11 11 9 9 9 72 31 27 
5 3 4 6 8 7 11 11 11 11 11 11 10 10 10 10 12 11 11 11 11 12 12 12 10 10 10 9 9 9 9 7 8 9 9 9 8 6 7 7 7 7 8 8 8 9 9 9 7 9 8 8 8 8 7 5 6 8 8 8 7 8 10 8 8 8 7 7 7 7 7 7 4 4 4 5 5 5 7 7 7 10 8 9 9 9 9 6 7 9 57 9 9 74 10 11 74 10 10 74 8 9 73 9 10 75 11 11 73 12 11 39 7 8 6 6 6 9 7 10 7 7 7 6 8 5 7 7 7 7 7 7 8 8 6 9 9 9 10 10 10 12 10 11 11 11 9 75 66 51 75 63 51 11 11 11 10 10 10 8 8 6 6 6 6 7 7 7 8 8 8 7 7 9 7 7 5 7 7 7 8 6 7 10 9 7 9 9 9 26 6 7 55 5 6 72 7 5 71 5 6 71 5 6 56 6 5 9 7 8 7 7 7 7 7 7 6 6 6 10 10 10 12 12 12 14 14 14 13 13 13 10 10 10 12 10 11 12 12 12 12 12 12 10 10 10 8 8 8 9 9 9 14 14 14 14 14 14 14 14 14 13 13 13 11 11 11 9 7 8 5 5 5 6 6 6 7 7 7 9 9 11 9 9 9 10 10 10 12 10 11 8 12 11 9 9 9 73 9 9 
6 4 5 10 8 9 11 11 11 10 8 9 10 10 10 13 13 13 14 14 14 13 13 13 12 12 12 10 10 10 9 7 8 6 6 6 7 5 6 7 7 7 8 8 8 10 10 10 7 7 7 8 8 10 8 8 8 9 7 8 8 8 8 9 7 8 8 8 6 7 9 8 5 5 5 6 6 4 8 8 8 11 11 9 9 9 7 6 6 6 59 7 9 74 10 10 74 10 10 74 10 8 75 9 10 74 14 14 75 14 13 53 9 10 19 7 7 7 9 8 7 7 7 5 7 4 6 6 6 7 7 7 6 8 7 10 8 9 10 10 10 13 13 13 13 13 13 52 45 37 50 46 34 12 10 11 11 9 10 11 11 11 10 10 10 8 8 8 9 9 7 9 7 8 7 7 7 8 8 6 8 8 8 8 8 8 7 7 9 7 7 9 24 8 8 49 7 8 46 4 5 47 6 4 40 8 9 10 10 8 9 7 8 8 7 5 8 8 8 10 10 10 12 12 12 13 13 13 13 13 13 11 11 11 11 9 10 10 10 10 12 12 12 12 12 12 9 9 9 10 10 10 14 14 14 15 15 15 13 13 13 12 12 12 11 9 12 11 9 10 5 5 5 5 5 5 6 6 6 7 7 7 9 9 9 10 10 10 11 11 11 10 10 10 9 9 9 48 6 7 
10 8 9 10 10 10 10 10 10 10 8 9 12 10 11 10 12 11 14 12 13 14 14 14 12 12 12 10 10 10 8 6 7 7 7 7 8 6 7 9 9 9 10 10 10 9 9 9 6 6 6 7 7 7 9 7 8 8 8 10 7 7 7 7 7 7 8 6 7 9 9 7 6 6 4 7 7 7 11 10 8 10 10 10 9 9 7 8 8 8 58 8 9 73 9 9 73 9 7 73 9 9 74 10 10 78 14 15 75 14 13 75 11 11 54 8 8 25 7 7 5 5 3 6 6 6 8 6 7 8 6 7 8 8 8 11 9 10 11 9 10 12 11 16 13 13 13 12 12 12 14 14 12 11 11 11 11 9 12 13 11 12 12 12 12 11 9 12 8 8 8 8 8 8 8 8 6 7 7 9 9 7 10 8 8 8 7 7 7 7 7 5 9 7 8 7 7 7 6 4 5 4 4 6 9 8 6 12 12 12 7 7 9 8 6 7 8 8 8 8 8 8 11 11 11 13 13 13 11 11 11 9 9 9 12 10 11 11 11 11 10 10 10 10 10 10 8 8 8 10 10 10 15 15 15 15 15 15 12 12 12 10 10 10 10 8 9 10 8 9 8 6 7 6 6 6 6 6 6 7 7 7 9 9 7 10 10 10 10 10 10 10 8 9 9 9 11 7 7 7 
10 10 10 13 13 13 11 11 11 13 11 12 12 10 11 10 10 10 10 10 10 12 10 11 11 11 11 10 10 10 10 8 9 9 9 9 9 7 8 10 10 10 11 11 11 10 10 10 7 7 7 8 7 5 9 8 6 7 7 7 7 7 9 6 6 6 6 6 6 7 7 7 5 5 3 8 8 8 14 12 13 11 11 11 9 9 9 9 9 9 59 9 10 73 9 9 73 9 10 73 9 10 75 11 11 75 13 14 75 14 13 75 11 11 72 8 8 51 5 5 24 6 6 24 6 6 22 6 6 18 6 6 9 7 8 11 11 11 11 10 8 12 10 11 12 12 12 15 15 15 16 16 16 13 13 13 11 11 11 13 12 10 13 11 12 9 9 9 9 7 8 9 9 9 9 8 6 8 8 8 11 11 11 11 11 11 8 10 9 8 8 8 7 7 7 7 7 7 7 6 4 6 6 4 9 9 9 9 8 6 8 8 8 9 9 9 7 7 7 6 6 6 9 9 9 13 13 13 10 10 10 9 9 9 12 10 11 12 12 12 10 10 10 6 6 6 6 6 6 10 10 10 14 14 14 14 14 14 12 12 12 8 8 8 11 9 10 9 9 9 8 8 8 7 7 7 6 6 4 6 6 6 10 10 8 11 11 9 9 7 8 8 8 8 8 8 8 6 6 4 
12 12 12 15 13 14 11 11 11 12 12 12 12 10 11 10 10 10 9 9 9 8 8 8 9 9 9 9 9 9 9 9 9 8 8 8 8 8 8 11 11 11 12 12 12 9 9 9 7 7 7 6 6 6 9 9 9 9 7 8 7 7 7 6 6 6 7 7 7 8 6 7 8 6 7 9 9 9 13 13 15 11 10 8 10 10 10 20 8 8 61 10 9 74 10 10 62 10 12 66 10 9 74 13 12 75 13 14 74 13 12 74 10 10 73 7 8 73 7 8 71 7 7 71 5 6 70 6 7 57 7 6 21 9 11 9 11 10 10 10 10 9 9 9 9 9 9 16 14 15 20 20 20 17 17 17 13 11 12 10 10 10 12 12 12 9 9 9 9 9 11 10 10 10 7 7 7 8 8 8 12 13 8 13 13 13 13 11 12 8 8 8 5 5 5 6 6 6 6 6 6 7 7 7 9 9 9 8 8 8 7 7 7 9 9 11 7 7 7 6 6 6 9 9 9 11 11 11 11 11 11 11 11 11 12 10 11 12 10 11 10 10 10 6 6 6 5 5 5 9 9 9 17 17 17 13 13 13 9 9 9 10 10 10 10 10 10 8 8 10 8 8 8 8 8 6 7 7 9 7 7 7 7 9 8 9 9 9 8 8 8 8 8 8 10 8 9 7 7 9 
13 13 13 14 14 14 13 13 13 13 11 12 11 11 11 10 10 10 9 7 8 7 7 7 7 7 7 9 9 9 7 7 7 7 7 7 7 7 7 11 11 11 10 10 10 8 8 8 6 6 6 8 8 8 10 10 10 10 10 10 9 9 9 6 6 6 6 6 6 7 7 7 7 7 7 10 9 5 13 13 13 12 11 9 9 11 10 68 10 9 75 9 10 61 9 11 25 11 11 52 13 14 75 15 14 74 12 13 75 9 10 75 7 8 72 6 7 71 7 7 72 8 8 74 8 9 71 7 7 67 7 7 59 9 8 26 10 10 9 9 9 9 9 9 8 8 8 12 12 12 19 19 19 20 20 20 15 15 15 11 9 10 13 13 13 12 10 11 12 12 12 13 13 11 10 10 10 7 7 9 12 10 11 13 13 13 12 12 12 8 8 8 6 6 6 6 6 6 6 6 6 7 7 7 7 7 7 7 7 7 8 8 8 8 8 8 8 6 7 7 5 6 8 8 8 10 10 10 10 10 10 13 13 13 10 10 10 11 11 11 11 11 11 8 8 8 7 7 7 9 9 9 13 13 13 13 13 13 9 9 9 10 10 10 10 8 9 8 7 5 6 6 6 5 7 6 6 6 6 7 7 9 8 6 9 8 8 8 9 9 9 11 11 9 11 11 11 8 8 8 
15 15 15 16 16 16 14 14 14 12 10 11 11 11 11 10 10 10 9 7 8 7 7 7 6 6 6 7 7 7 8 8 8 6 6 6 6 6 6 8 8 8 8 8 8 7 7 7 8 6 7 7 7 7 10 10 10 10 10 10 10 8 9 7 7 7 5 5 5 6 6 6 8 6 7 11 9 10 12 12 12 11 11 11 8 8 6 58 6 8 66 8 7 25 9 10 12 12 12 54 16 15 74 16 15 72 12 12 74 8 9 72 6 7 73 7 8 72 6 7 72 6 7 71 7 7 72 6 7 70 6 6 72 8 8 65 7 5 10 10 10 10 8 9 7 7 7 9 9 9 15 15 15 16 16 18 11 11 9 11 11 11 12 12 12 13 13 13 13 13 13 21 12 13 18 14 11 13 11 12 9 7 8 9 9 11 10 8 9 7 7 7 6 6 6 5 5 5 5 5 5 7 7 7 7 7 7 7 7 7 9 9 9 10 10 10 8 6 7 7 5 6 8 8 8 9 9 9 12 12 12 13 13 13 9 9 9 9 9 9 11 11 11 8 8 8 9 9 9 9 9 9 11 11 11 10 10 10 10 10 10 9 9 9 9 7 8 5 7 6 7 5 6 10 9 7 10 10 8 7 5 6 7 7 9 9 8 13 10 10 10 12 12 10 10 10 10 8 8 8 
15 15 15 17 15 16 14 14 14 12 12 12 12 10 11 9 9 9 7 7 7 6 6 6 6 6 6 7 7 7 7 7 7 7 7 7 7 7 7 6 6 6 6 6 6 6 6 6 5 5 5 6 6 6 11 11 11 10 10 10 8 8 8 7 7 7 6 6 6 6 6 6 9 9 11 10 10 10 11 11 11 12 12 14 9 9 11 6 6 6 7 7 7 10 10 10 13 13 11 49 15 14 34 14 15 52 10 11 75 9 10 74 10 8 73 9 10 74 8 9 71 7 7 71 5 6 71 5 6 71 9 10 73 13 12 65 16 12 14 13 11 10 8 9 8 8 6 9 9 9 12 12 10 10 10 8 8 6 7 8 8 8 11 11 9 15 15 15 14 14 14 48 8 8 67 40 31 36 29 23 15 11 12 9 9 9 6 8 7 5 5 5 4 4 4 6 6 6 6 6 6 6 6 6 7 7 7 8 8 8 9 9 9 10 10 10 8 8 8 6 6 6 8 8 8 10 10 10 11 11 11 11 11 11 9 7 8 10 8 9 10 10 10 12 12 12 11 11 11 11 11 11 11 11 11 9 9 9 9 9 9 8 8 8 6 8 7 7 5 6 7 5 6 26 27 21 51 49 37 6 6 4 8 8 6 9 9 9 12 12 12 13 13 13 9 11 10 10 8 9 
15 15 15 16 14 15 12 12 12 12 12 12 16 14 15 11 11 11 8 8 8 7 7 7 8 8 8 8 8 8 9 9 9 9 9 9 8 8 8 6 6 6 5 5 5 5 5 5 5 5 5 9 9 9 11 11 11 9 9 9 7 7 7 5 5 5 8 8 8 6 6 6 10 10 12 12 12 12 10 10 10 8 10 9 9 7 8 6 6 6 9 7 10 11 11 11 13 11 12 15 15 15 14 14 12 53 13 14 75 14 13 77 13 13 73 12 11 73 9 10 74 10 10 73 7 8 73 7 8 73 22 18 73 65 52 64 56 43 22 18 15 10 12 11 9 9 9 11 11 11 12 10 11 11 9 10 6 6 6 8 6 7 9 9 9 16 14 15 18 18 16 13 11 14 46 12 13 69 42 33 32 29 24 11 9 10 7 7 7 6 6 6 5 5 3 7 7 5 7 7 7 8 8 8 10 10 10 10 10 10 10 10 10 12 12 12 9 9 9 8 8 8 7 7 7 10 10 10 11 11 11 10 10 10 8 6 7 10 8 9 11 11 11 13 13 13 15 15 15 14 14 14 10 10 10 9 9 9 11 11 11 8 8 8 8 6 7 8 6 7 7 7 7 7 7 7 6 8 7 7 7 7 9 9 9 11 9 10 15 13 14 14 14 12 10 10 10 7 7 7 
15 15 15 14 14 14 14 14 14 15 13 14 12 12 12 10 10 10 10 8 9 8 8 8 8 8 8 8 8 8 10 10 10 10 10 10 9 9 9 6 6 6 5 5 5 7 7 7 10 8 9 9 9 9 10 10 10 6 6 6 7 5 6 6 6 6 6 6 6 8 8 8 11 11 11 13 12 10 11 11 11 9 9 9 7 7 7 6 6 8 8 9 4 11 9 10 15 15 13 15 15 15 14 14 14 54 12 13 75 13 14 77 13 14 73 12 11 74 10 11 75 11 12 75 11 12 76 10 12 73 24 20 72 64 51 71 62 47 64 54 44 12 12 14 12 12 12 10 10 8 10 10 10 8 8 6 6 6 8 7 7 7 10 10 10 13 13 11 15 17 16 15 15 15 14 14 12 16 16 16 14 12 13 12 12 12 10 12 9 9 7 10 6 6 4 7 7 5 9 9 9 10 10 10 11 11 11 10 10 10 10 10 10 12 12 12 14 12 13 12 10 11 9 9 9 10 10 10 12 12 12 10 10 10 8 8 8 7 7 7 10 10 10 13 13 13 16 16 16 15 15 15 11 11 11 9 9 9 10 10 10 10 10 10 8 8 8 9 8 6 9 9 9 9 9 9 8 6 7 9 7 8 9 9 9 10 10 10 12 13 8 15 15 15 10 10 12 7 5 8 
11 11 11 11 11 11 14 14 14 19 17 18 16 16 16 12 12 12 9 7 8 7 7 7 7 7 7 10 10 10 9 9 9 10 10 10 10 10 10 8 8 8 7 7 7 7 7 7 7 7 7 6 6 6 6 6 6 5 5 5 4 4 4 4 4 4 5 5 5 8 8 8 13 11 12 11 13 12 10 10 10 8 8 8 7 7 7 8 8 6 8 10 7 10 10 10 14 14 14 15 15 15 52 13 14 76 12 13 77 13 14 75 14 13 73 11 12 74 10 10 76 12 12 73 11 12 74 10 10 73 22 19 74 68 52 74 64 52 73 57 44 65 11 11 12 10 11 10 10 10 8 10 9 8 10 9 7 7 7 7 7 7 13 11 14 11 13 12 12 10 11 13 13 13 12 14 13 16 14 15 13 13 13 12 12 12 11 10 8 9 9 9 8 8 8 9 9 9 10 10 10 10 10 10 9 9 9 9 9 9 10 10 10 11 11 11 14 12 13 13 11 12 10 10 10 9 9 9 8 8 8 6 6 6 5 5 5 8 8 8 10 10 10 12 12 12 16 16 16 17 17 17 12 12 12 10 10 10 10 10 10 10 10 10 11 9 10 10 10 10 10 10 12 8 6 7 8 8 10 9 9 9 10 10 12 11 11 13 10 10 10 12 10 11 10 10 8 8 8 6 
9 9 9 11 9 10 11 11 11 16 16 16 20 18 19 16 16 16 8 8 8 4 4 4 5 5 5 7 7 7 11 11 11 10 10 10 10 10 10 9 9 9 9 9 9 7 7 7 7 7 7 7 7 7 5 5 5 6 4 5 3 3 3 3 3 3 5 5 5 10 8 9 13 13 13 10 11 13 7 7 5 7 7 7 7 9 8 10 8 9 8 8 10 9 9 9 12 12 12 13 13 13 51 11 12 76 10 11 76 12 12 74 12 15 73 12 11 74 10 10 71 10 9 74 10 10 73 7 9 73 22 19 74 66 53 73 63 51 73 53 42 65 9 10 10 10 10 10 10 10 10 8 9 9 7 8 8 8 8 7 7 7 13 13 13 13 13 13 11 11 11 12 12 12 12 12 12 13 11 12 13 13 13 11 11 13 9 9 9 8 8 8 9 9 11 10 10 12 9 9 9 7 7 7 6 6 6 7 7 7 9 9 9 10 10 10 13 13 13 12 12 12 10 10 10 10 10 10 7 7 7 6 6 6 8 6 7 9 7 8 8 8 8 9 9 9 10 10 10 12 12 12 12 12 12 11 11 11 10 10 10 9 9 9 9 9 9 10 10 10 10 8 9 5 5 5 6 6 6 10 10 10 12 12 10 13 13 13 10 8 11 8 8 8 10 10 10 9 9 9 
12 10 11 11 11 11 9 9 9 13 11 12 16 16 16 18 18 18 13 11 12 7 7 7 5 5 5 7 7 7 10 10 10 12 12 12 10 10 10 8 8 8 8 8 8 8 8 8 8 8 8 8 8 8 6 4 5 5 5 5 4 4 4 3 1 2 5 5 5 10 10 10 13 13 13 9 9 7 8 8 8 9 9 7 9 9 9 10 10 10 8 8 6 10 10 8 12 12 14 52 12 13 76 12 12 75 11 11 76 12 12 75 11 11 75 11 11 72 11 10 73 9 10 46 8 7 21 6 3 73 7 9 74 25 21 75 66 57 73 55 43 70 8 9 70 10 10 74 10 10 75 9 10 70 9 8 15 10 7 8 8 8 13 13 13 13 13 13 11 11 11 9 9 9 10 10 10 11 9 10 14 10 11 11 11 9 9 9 9 7 7 7 9 9 9 10 8 9 8 8 8 8 6 7 5 5 5 6 6 6 8 6 7 10 10 10 12 12 12 10 10 10 9 9 9 9 9 9 7 7 7 7 7 7 8 8 8 8 8 8 6 6 6 7 7 7 8 8 8 8 8 8 9 9 9 10 10 10 10 10 10 10 10 10 10 10 10 10 8 9 7 7 7 7 5 6 8 8 8 11 11 11 13 13 13 11 11 9 10 9 7 8 8 8 12 8 7 10 10 10 
9 9 9 11 9 10 9 9 9 12 12 12 14 12 13 15 15 15 13 13 13 10 10 10 7 7 7 7 7 7 9 9 9 11 11 11 11 11 11 10 10 10 10 10 10 9 9 9 8 8 8 9 9 9 6 4 5 5 5 5 5 5 5 3 1 2 5 5 5 11 11 11 12 12 12 8 8 8 7 7 7 8 8 8 10 10 12 9 9 9 9 9 9 9 9 9 12 10 11 53 13 11 76 12 12 75 11 9 75 9 10 75 11 11 75 11 11 53 12 10 19 10 11 13 7 9 5 5 5 17 9 7 16 10 12 25 17 15 73 15 13 73 7 8 73 9 10 72 11 10 74 8 9 73 7 9 65 9 8 19 10 11 14 16 15 12 12 12 9 9 9 7 7 7 8 8 6 12 10 11 12 10 11 10 10 10 10 10 10 9 9 9 9 9 9 9 7 8 10 8 9 9 9 9 8 6 7 6 6 6 7 7 7 8 8 8 9 9 9 10 10 10 8 8 8 7 7 7 6 6 6 8 8 8 9 9 9 6 6 6 6 6 6 7 7 7 7 7 7 6 6 6 7 7 7 10 10 10 12 12 12 10 10 10 9 9 9 9 9 7 6 6 4 5 5 5 9 9 9 12 12 12 12 12 10 9 9 9 9 8 6 8 8 8 9 9 9 63 7 8 
9 9 9 10 8 9 8 8 8 10 10 10 13 11 12 18 16 17 14 14 14 10 8 9 8 8 8 8 8 8 10 10 10 10 10 10 11 11 11 13 13 13 12 12 12 10 10 10 7 7 7 6 6 6 8 6 7 6 6 6 6 6 6 5 3 4 7 7 7 11 11 11 8 8 8 8 8 8 7 7 7 7 7 7 8 8 8 8 8 8 9 9 11 9 9 9 55 11 12 70 12 11 74 12 15 75 11 11 74 8 9 75 7 6 47 9 8 16 12 11 14 12 13 8 8 8 9 7 8 11 10 8 9 9 9 17 7 8 73 7 8 72 8 6 72 8 8 74 10 10 72 8 8 72 6 8 75 10 8 23 13 14 16 16 16 10 10 10 6 6 6 7 7 7 9 9 9 13 11 12 12 12 12 11 11 11 10 10 10 10 10 10 11 11 11 10 10 10 10 8 9 9 9 9 8 8 8 6 6 6 9 7 8 7 5 6 7 7 7 9 9 9 8 8 8 6 6 6 7 7 7 9 9 9 7 7 7 5 5 5 6 6 6 9 9 9 8 8 8 5 5 5 6 6 6 8 8 8 12 12 12 12 12 12 8 8 8 5 5 5 6 4 5 8 8 8 9 9 9 11 11 11 10 10 10 10 10 10 9 9 9 17 8 9 63 7 8 69 8 7 
10 10 10 9 9 9 7 7 7 8 8 8 10 10 10 14 14 14 14 14 14 10 10 10 9 9 9 9 9 9 8 8 8 10 10 10 10 10 10 12 12 12 12 12 12 10 10 10 6 6 6 6 6 6 7 5 6 6 6 6 6 6 6 5 3 4 7 7 7 10 10 10 6 6 6 7 7 7 7 7 5 7 7 7 6 6 6 6 6 6 9 9 7 10 10 10 14 10 11 53 12 10 74 12 13 77 13 13 75 9 10 43 7 7 14 10 11 11 11 11 10 10 10 9 9 7 10 10 12 10 10 10 9 9 9 15 6 7 73 8 6 73 7 8 70 6 6 74 10 11 72 10 11 72 8 8 73 12 11 67 54 46 21 20 18 11 11 11 7 7 7 7 7 7 11 11 13 13 13 13 13 13 13 12 12 12 9 9 9 9 9 9 9 9 9 9 9 9 9 9 9 10 10 10 11 9 10 8 8 8 10 8 9 7 7 7 8 8 8 9 9 9 7 7 7 6 6 6 8 8 8 10 10 10 7 7 7 5 5 5 6 6 6 10 10 10 7 7 7 5 5 5 6 6 6 9 9 9 12 12 12 14 14 14 8 8 8 4 4 4 5 3 4 7 7 7 7 7 7 8 8 8 7 7 7 11 9 10 17 9 7 64 6 5 72 6 7 72 8 8 
12 10 11 13 13 13 11 11 11 10 8 9 10 10 10 12 12 12 13 11 12 11 11 11 10 10 10 8 8 8 9 9 9 9 9 9 11 11 11 10 10 10 10 10 10 8 8 8 7 7 7 6 6 6 7 5 6 7 7 7 6 6 6 6 4 5 6 6 6 7 7 7 8 8 10 9 9 9 8 8 8 7 7 5 8 8 6 8 8 8 11 11 11 12 12 12 46 10 10 70 10 9 75 9 10 46 10 10 32 14 14 22 12 11 10 10 8 10 8 9 9 7 8 9 9 7 9 11 10 11 11 11 10 10 8 15 11 8 73 50 42 74 51 43 73 53 46 73 9 10 72 11 10 74 10 11 74 10 10 74 60 49 19 18 16 9 11 10 9 9 9 8 8 8 10 10 10 13 13 13 15 15 15 14 14 16 13 11 12 10 10 10 10 10 10 10 12 11 12 10 11 10 10 10 8 8 8 8 6 7 8 8 8 10 8 9 8 8 8 9 9 9 10 10 10 8 8 8 8 8 8 10 10 10 7 7 7 7 7 7 7 7 7 8 8 8 6 6 6 5 5 5 7 7 7 9 9 9 12 12 12 14 14 14 11 9 10 6 6 6 5 5 5 6 6 6 6 6 6 6 6 6 6 6 6 7 7 7 11 8 3 29 7 9 73 9 9 71 7 7 
11 11 11 17 17 17 14 14 14 10 10 10 10 10 10 10 10 10 10 10 10 9 9 9 9 9 9 9 9 9 9 9 9 10 10 10 10 10 10 9 9 9 8 8 8 7 7 7 7 7 7 7 7 7 9 7 8 6 6 6 6 6 6 8 6 7 6 6 6 6 6 6 9 9 9 9 9 9 9 9 9 8 8 8 9 9 9 10 10 10 12 12 10 11 11 11 22 10 10 26 10 10 25 7 7 12 8 9 14 14 14 18 18 16 14 12 13 10 10 10 8 8 8 9 9 9 10 10 10 13 11 12 12 11 9 13 13 11 29 28 23 75 68 58 73 69 58 71 10 9 69 9 8 73 9 9 71 9 10 72 58 47 18 19 14 11 11 11 9 9 9 8 8 8 11 11 11 14 14 14 17 17 17 17 17 17 14 12 13 12 12 12 14 12 13 13 13 13 11 11 11 10 10 10 11 11 11 10 10 10 9 9 9 10 10 10 9 9 9 9 9 9 10 10 10 11 11 11 9 9 9 10 10 10 9 9 9 6 6 6 7 7 7 6 6 6 6 6 6 7 7 7 8 8 8 10 10 10 12 12 12 11 11 11 11 9 10 9 9 11 7 7 9 5 5 5 6 6 6 6 6 6 6 6 6 9 9 9 8 8 8 19 9 10 73 9 9 73 7 8 
12 12 12 16 14 15 15 15 15 12 12 12 13 11 12 11 11 11 9 9 9 8 8 8 8 8 8 9 9 9 9 9 9 10 10 10 8 8 8 8 8 8 8 8 8 10 10 10 9 9 9 8 8 8 9 7 8 5 5 5 4 4 4 7 5 6 6 6 6 5 5 5 8 8 8 9 9 9 9 9 9 10 10 10 10 10 10 10 10 10 10 10 10 11 11 11 10 9 7 9 9 11 8 8 6 6 6 6 10 10 12 15 13 14 15 13 16 12 12 12 9 9 9 10 10 10 10 10 12 11 11 11 11 11 13 10 10 10 14 14 12 31 27 26 74 67 57 73 9 9 69 9 11 70 9 8 72 7 11 74 25 20 18 9 10 10 10 8 6 8 7 10 8 9 13 13 13 12 14 13 17 17 17 17 17 15 16 16 16 12 12 12 10 10 10 12 12 12 11 11 11 9 9 9 11 9 10 10 10 10 11 11 11 11 11 11 10 10 10 10 10 10 10 10 10 11 11 11 10 10 10 9 9 9 8 8 8 8 8 8 6 6 6 5 5 5 6 6 6 7 7 7 9 9 9 9 9 9 10 10 10 10 10 10 12 10 11 11 11 11 9 9 9 6 6 6 6 6 6 7 7 7 6 6 6 8 8 8 8 10 7 18 8 9 73 7 8 72 8 8 
12 12 12 12 12 12 14 14 14 12 12 12 11 11 11 11 11 11 10 10 10 9 9 9 8 8 8 9 9 9 10 10 10 10 10 10 11 11 11 10 10 10 10 10 10 11 11 11 10 10 10 8 8 8 9 7 8 5 5 5 5 5 5 6 4 5 5 5 5 6 6 6 7 7 7 9 9 9 9 9 9 10 10 10 9 9 11 9 9 9 10 10 12 10 10 10 10 10 10 8 8 8 8 8 8 7 7 5 8 8 10 11 11 11 13 13 15 14 12 13 11 11 11 11 11 11 11 9 12 9 9 9 11 9 10 14 10 11 10 10 10 12 12 10 34 30 27 73 12 11 29 9 10 73 9 9 37 8 10 33 9 9 14 10 7 11 9 10 8 8 8 11 9 10 15 15 13 13 13 13 16 16 16 18 18 18 15 15 15 11 13 12 12 10 11 10 10 10 11 11 11 10 10 10 11 9 10 10 10 10 12 12 12 12 12 12 10 10 10 9 9 9 9 9 9 11 11 11 9 9 9 8 8 8 10 10 10 8 8 8 4 4 4 6 6 6 7 7 7 7 7 7 7 7 7 6 6 6 7 7 7 10 10 10 13 11 12 12 12 12 10 10 10 7 9 8 5 5 5 7 5 6 8 8 8 9 9 11 9 9 9 18 9 10 70 9 8 71 5 6 
10 10 10 10 10 10 11 11 11 11 11 11 11 11 11 10 10 10 9 9 9 8 8 8 9 9 9 9 9 9 10 10 10 12 12 12 12 12 12 12 12 12 13 13 13 12 12 12 11 9 10 9 8 6 7 7 7 7 5 6 4 4 4 7 6 4 5 5 5 6 6 4 8 6 9 9 7 8 9 9 9 9 9 9 10 10 10 10 8 9 10 9 7 10 10 8 9 9 9 9 9 9 8 8 8 6 6 6 8 8 8 11 11 11 13 13 13 12 12 12 11 11 11 11 11 11 10 10 10 10 8 9 9 9 9 10 10 10 11 11 11 8 8 10 10 10 10 34 10 8 10 10 10 35 11 11 16 11 8 9 9 9 10 8 9 9 11 10 12 14 13 13 13 13 12 12 14 11 11 9 15 13 14 17 17 17 14 14 16 10 12 11 10 10 10 12 10 11 11 9 10 10 10 10 10 10 10 12 10 11 14 12 13 13 13 13 9 9 9 10 10 10 10 10 12 12 10 11 10 10 12 8 8 8 11 9 10 8 8 8 6 6 6 4 6 5 5 5 5 5 5 5 6 6 6 4 4 4 5 5 5 8 8 8 10 10 8 11 9 10 9 9 9 7 9 8 7 7 7 6 6 8 6 8 5 7 7 9 11 9 10 54 41 33 72 6 7 70 6 6 
10 10 10 10 10 10 10 10 10 10 10 10 8 8 8 7 7 7 8 8 8 8 8 8 9 9 9 9 9 9 11 11 11 11 11 11 10 10 10 11 11 11 13 13 13 13 13 13 11 11 13 9 9 9 7 7 7 6 4 7 6 4 5 6 6 6 8 8 8 8 8 8 6 6 6 8 8 8 9 9 9 10 10 8 10 10 10 10 10 10 9 9 9 9 9 11 11 11 11 10 10 10 8 8 8 6 6 6 7 7 7 11 11 11 13 13 13 12 12 12 11 11 9 12 10 11 11 11 11 22 10 12 37 11 10 10 10 10 11 9 12 9 11 8 9 9 9 10 10 8 12 11 9 11 11 11 11 13 10 9 9 9 10 10 10 9 9 7 15 13 14 45 44 40 52 28 26 26 12 11 10 12 11 13 11 12 11 11 11 11 9 10 11 9 10 10 10 10 10 10 10 11 9 10 11 9 10 12 12 12 13 13 13 12 10 11 10 9 7 10 10 10 9 9 9 10 8 9 9 9 9 11 9 10 9 7 8 7 7 5 8 6 7 5 5 5 6 6 6 9 7 8 6 6 6 5 5 5 6 6 6 8 6 7 7 7 7 9 7 8 11 9 10 8 8 8 8 8 8 6 6 8 6 6 4 8 4 5 13 13 11 74 57 47 72 7 5 73 9 9 
9 9 9 9 9 9 9 9 9 11 11 11 8 8 8 7 7 7 8 8 8 10 10 10 9 9 9 10 10 10 10 10 10 9 9 9 7 7 7 9 9 9 11 11 11 14 14 14 11 11 11 9 9 9 9 9 9 8 6 7 7 7 7 9 7 8 12 11 9 10 10 10 7 5 6 8 8 8 9 9 11 10 10 10 12 12 12 11 11 11 9 9 9 10 10 10 10 10 10 10 10 10 9 9 9 7 7 7 8 8 8 12 12 12 12 12 12 12 12 12 12 12 12 13 11 12 19 10 13 50 11 12 60 12 10 10 10 10 10 10 10 11 11 9 10 10 10 9 9 7 10 8 11 12 12 10 12 10 11 10 10 8 10 10 10 11 11 11 36 35 31 69 65 56 76 35 31 55 11 10 41 10 8 26 10 10 11 11 13 11 9 10 9 9 9 9 9 9 10 10 10 11 9 10 12 10 11 11 11 11 13 13 13 10 10 10 11 11 11 11 11 11 11 11 11 10 10 10 11 9 10 9 9 9 7 5 6 6 6 6 8 6 7 6 6 6 6 6 6 7 5 6 10 6 7 8 6 7 8 6 7 9 9 9 6 6 4 8 6 7 22 10 10 41 11 9 41 7 8 31 5 6 5 5 5 6 6 4 14 13 11 74 57 47 72 6 7 42 10 11 
9 9 9 9 9 9 7 7 7 11 11 11 11 11 11 7 7 7 7 7 7 9 9 9 9 9 9 11 11 11 10 10 10 8 8 8 6 6 6 7 7 7 10 10 10 13 13 13 12 10 11 10 8 9 9 9 9 10 10 10 9 9 9 12 10 11 14 14 12 9 9 9 7 5 6 8 8 8 9 9 9 11 11 13 13 13 13 13 13 13 11 11 11 9 9 11 11 11 11 12 12 12 11 11 11 11 11 11 11 11 11 11 11 11 11 11 11 12 12 12 11 11 11 23 11 11 51 12 13 68 14 14 34 13 10 10 10 10 10 10 10 13 13 11 12 12 12 8 8 8 9 9 9 11 11 11 11 11 9 10 10 8 9 11 10 35 30 26 66 64 52 74 72 60 75 34 28 77 13 13 75 11 11 42 12 12 10 12 11 11 11 11 10 10 10 8 8 8 11 9 10 11 11 11 10 10 10 11 9 10 10 10 10 10 10 10 12 12 12 13 13 13 41 13 10 10 10 10 10 10 10 8 8 8 7 5 6 4 6 5 6 4 5 7 5 6 5 5 5 6 6 6 6 6 6 6 6 6 9 9 9 11 11 11 8 8 8 18 17 13 52 27 22 73 9 9 71 7 8 63 7 8 41 7 5 36 6 4 14 10 7 70 33 27 42 8 7 9 11 8 
8 8 8 8 8 8 7 7 7 11 11 11 11 11 11 7 7 7 7 7 7 8 8 8 9 9 9 12 12 12 11 11 11 9 9 9 7 7 7 7 7 7 9 9 9 12 12 12 11 11 11 8 8 8 7 7 7 10 10 10 10 10 10 12 12 14 19 15 14 42 10 11 40 6 7 40 6 5 7 7 9 11 11 11 14 12 13 15 15 13 12 12 12 9 9 11 12 12 12 13 13 13 13 13 13 17 17 17 17 17 17 12 12 12 11 11 11 11 11 11 12 12 12 23 11 11 43 11 12 36 15 14 14 12 13 11 11 11 10 10 10 12 12 12 14 14 12 11 11 11 9 11 10 10 10 10 9 9 9 9 9 9 11 11 11 34 31 26 68 64 52 74 71 56 73 34 29 73 11 12 73 12 11 43 13 13 15 13 14 12 12 12 10 10 10 9 9 9 10 10 10 10 10 10 11 11 11 11 11 11 9 9 9 10 10 10 13 13 13 16 16 16 44 16 13 12 12 12 9 9 9 9 9 9 7 5 6 4 6 5 4 4 4 3 3 3 5 5 5 6 6 6 7 7 7 7 7 7 10 10 10 10 10 10 8 8 8 18 17 15 51 26 21 73 7 8 74 8 9 73 7 8 73 7 8 68 8 8 43 7 7 66 6 6 8 8 8 11 11 11 
6 6 6 8 8 8 9 9 9 9 9 9 11 11 11 8 8 8 6 6 6 8 8 8 10 10 10 11 11 11 11 11 11 8 8 8 8 8 8 8 8 8 9 9 9 12 12 12 12 12 12 7 7 7 5 5 5 9 9 7 8 10 9 12 12 14 16 12 11 50 10 10 74 8 9 47 5 6 7 5 6 8 8 8 12 12 10 14 12 13 12 10 11 12 12 12 15 11 12 12 10 11 12 12 12 17 17 17 19 19 19 13 13 13 11 9 10 13 9 10 13 13 13 12 12 14 11 11 11 15 15 15 16 16 16 14 13 11 12 12 12 10 10 10 14 14 12 13 13 13 11 11 9 10 8 9 8 8 8 10 10 10 10 10 8 13 9 10 39 36 29 70 48 37 75 27 23 74 12 13 59 13 13 36 16 15 17 17 17 14 14 12 9 9 9 8 8 8 8 8 8 8 8 8 10 10 10 13 13 13 9 9 9 9 9 9 13 13 13 17 17 17 17 17 17 10 10 10 11 9 10 8 8 8 7 5 6 4 4 4 3 3 3 4 4 4 5 5 5 6 6 6 7 5 6 8 8 8 9 9 9 8 8 8 7 7 7 14 8 8 48 6 7 73 7 8 74 8 9 72 6 7 72 6 8 72 6 7 76 8 9 68 6 7 34 10 10 10 10 10 
6 6 6 8 8 8 7 7 7 6 6 6 10 10 10 11 11 11 10 10 10 10 10 10 8 8 8 7 7 7 8 8 8 7 7 7 7 7 7 8 8 8 9 9 9 11 11 11 12 10 11 8 8 8 5 5 5 10 8 9 10 8 11 11 9 10 9 9 7 10 10 8 49 9 9 7 7 7 7 7 7 7 5 6 9 9 7 10 10 8 10 10 10 11 11 9 13 13 13 11 11 11 9 9 9 12 10 11 16 14 15 13 13 13 10 10 10 11 11 11 13 11 12 14 12 13 12 12 12 12 14 11 17 15 16 18 16 17 12 12 12 6 8 7 11 9 10 14 14 16 12 12 12 11 9 10 11 9 10 12 10 11 11 11 9 10 10 10 9 9 9 39 10 12 52 12 12 50 11 12 28 12 13 16 18 15 18 18 16 11 11 11 8 8 8 7 7 7 6 6 6 6 6 6 9 9 9 10 10 10 8 8 8 9 9 9 12 11 9 17 17 17 17 17 17 12 10 11 10 10 10 9 7 8 7 5 6 5 5 3 5 5 5 2 2 2 4 4 4 7 5 6 7 7 7 7 7 7 7 7 7 9 7 8 6 6 6 24 8 8 48 9 10 49 9 9 57 9 9 64 6 5 54 6 4 72 6 7 74 8 9 72 8 6 72 10 11 34 13 12 
8 8 8 8 8 8 8 8 8 6 6 6 10 10 10 13 13 13 11 11 11 10 10 10 9 9 9 8 8 8 9 9 9 8 8 8 8 8 8 8 8 8 10 10 10 10 10 10 10 10 8 9 9 9 7 7 7 6 7 9 9 9 9 9 7 8 10 10 8 10 10 10 9 9 9 7 7 7 6 6 6 7 7 7 7 7 5 8 8 8 9 9 7 10 10 10 13 13 13 12 12 12 11 11 11 10 8 9 12 10 11 13 13 13 9 9 9 10 10 10 13 13 11 14 12 13 13 11 12 12 12 12 15 15 15 18 18 20 16 14 15 8 8 10 9 9 9 13 13 13 12 10 11 10 10 10 10 12 11 10 10 10 12 7 11 10 8 11 11 11 9 9 9 9 11 11 13 13 11 12 16 16 16 19 17 20 16 16 16 11 11 11 8 8 8 8 8 8 7 7 7 6 6 6 8 8 8 9 9 9 9 9 9 10 10 10 12 12 12 15 15 15 16 16 18 14 12 13 11 11 13 9 9 9 6 4 5 4 4 4 3 3 3 4 2 3 5 3 4 5 5 5 6 6 6 7 7 7 8 8 8 7 7 7 7 7 7 8 6 7 8 8 8 8 8 6 16 8 6 41 7 6 21 7 6 73 11 12 73 28 25 71 32 25 71 32 27 72 11 10 
10 10 10 12 10 11 9 9 7 7 7 7 9 9 9 13 13 15 11 11 11 10 8 9 10 8 9 10 10 10 10 8 9 9 7 8 7 7 7 7 7 7 8 6 7 8 8 8 9 9 9 9 9 9 10 10 8 10 10 10 11 11 11 8 8 10 8 8 8 10 10 10 10 10 10 8 6 7 6 6 6 8 6 7 7 5 6 7 6 4 10 10 10 10 12 11 13 13 15 12 12 12 12 12 14 9 9 11 13 13 13 12 12 12 10 10 10 10 10 10 12 10 11 11 9 10 11 9 10 11 11 11 15 13 14 18 18 18 17 17 17 12 12 12 11 11 11 13 13 13 11 11 11 9 9 11 11 11 11 10 10 10 9 9 9 10 10 10 11 11 9 10 10 10 10 10 10 11 11 11 15 15 15 17 17 17 15 15 15 13 13 11 11 11 11 11 11 11 8 8 8 7 7 7 8 8 6 10 10 10 9 9 9 13 13 13 15 15 15 13 13 13 12 12 12 14 12 13 13 13 13 10 10 10 8 6 7 4 4 4 2 2 2 4 2 3 4 4 4 6 6 4 9 7 8 10 10 10 12 12 12 10 8 9 7 7 7 6 6 6 6 6 6 9 7 8 9 9 9 13 9 10 38 10 9 73 15 13 73 65 54 75 69 55 73 67 55 73 24 20 
11 9 12 11 11 13 10 10 10 7 7 7 9 9 11 14 14 14 11 11 13 11 9 12 9 9 9 10 10 10 9 9 9 8 8 8 7 7 7 6 6 6 6 6 6 8 8 8 9 9 9 11 9 10 11 11 9 10 10 10 10 10 10 9 9 11 10 8 9 9 9 9 10 10 10 8 6 9 6 6 6 7 7 7 5 5 5 7 7 9 11 11 11 14 14 14 14 13 11 13 11 14 11 11 11 11 9 10 11 11 13 12 10 11 11 9 10 10 10 12 10 10 10 9 9 9 9 9 9 10 10 10 12 12 12 15 15 15 18 18 18 16 16 16 14 14 12 14 14 14 12 10 13 25 9 9 15 11 8 12 10 11 11 11 11 11 11 11 10 10 10 10 10 10 10 10 10 11 11 11 13 13 13 14 14 14 13 13 13 12 12 12 12 12 10 11 11 11 8 8 8 6 6 6 8 8 8 11 11 11 12 12 12 16 16 16 15 15 15 12 12 12 13 11 12 10 10 10 12 12 12 9 7 8 6 6 6 3 3 3 3 3 3 2 2 2 5 3 4 7 7 5 9 9 7 11 13 12 12 12 12 9 9 9 6 6 4 6 6 8 7 7 7 9 9 7 10 10 10 25 9 9 74 8 9 72 16 15 72 65 49 74 68 54 71 67 55 73 65 54 
10 10 12 10 10 10 10 10 10 9 9 9 9 9 9 12 12 12 10 8 9 8 8 10 9 9 9 9 9 9 10 10 10 8 8 8 7 7 7 5 5 5 5 5 5 8 8 8 9 9 9 8 8 8 12 11 9 11 11 11 10 10 10 11 9 12 9 9 9 10 10 10 11 9 10 9 9 9 7 7 7 4 4 4 6 6 4 9 7 8 11 10 8 12 12 12 13 13 11 12 12 12 12 12 12 12 10 11 12 12 12 11 11 11 11 11 11 11 9 10 10 10 10 7 7 7 7 7 7 9 9 9 10 10 10 11 11 11 14 14 14 16 16 16 16 16 16 27 13 12 26 27 22 56 8 8 15 11 10 14 14 14 15 15 15 14 14 14 12 12 12 10 10 10 11 11 11 12 12 12 13 13 13 11 11 11 10 10 10 11 11 11 13 13 13 13 13 13 8 8 8 4 4 4 8 8 8 12 12 12 14 14 14 14 14 14 12 12 12 12 10 11 14 14 14 9 9 9 9 9 9 7 7 7 5 5 5 3 3 3 3 3 3 3 3 1 5 5 7 7 7 7 8 8 8 10 10 10 10 10 10 8 8 10 7 7 7 6 6 6 6 6 6 8 8 6 10 10 10 26 10 10 71 9 10 72 16 15 70 51 37 72 49 41 73 53 42 74 52 41 
10 9 7 9 11 10 10 10 10 10 10 10 10 10 10 10 10 10 9 7 8 6 6 6 5 5 5 8 8 8 10 10 10 9 9 9 6 6 6 6 6 6 6 6 6 7 7 7 8 8 8 9 9 9 11 11 11 12 12 12 11 11 11 10 10 10 10 10 10 11 11 11 11 11 11 11 11 11 8 8 8 5 5 5 8 6 7 9 9 7 10 10 12 11 11 11 20 11 12 16 12 11 11 11 11 10 10 10 10 12 11 11 11 11 11 10 8 10 10 10 9 9 9 7 7 7 6 6 6 7 7 7 8 8 8 8 8 8 10 10 10 12 12 12 13 13 15 72 21 18 74 70 58 16 15 13 10 10 10 16 16 16 20 20 18 20 20 18 15 15 15 12 12 12 12 12 14 15 15 17 14 14 14 11 11 13 9 9 11 12 12 12 13 13 13 12 12 12 9 9 9 6 6 4 8 8 8 11 11 11 14 14 14 12 12 12 9 9 9 11 9 10 11 9 10 9 9 9 11 9 10 8 6 7 4 4 4 5 3 4 3 3 3 4 4 6 6 6 6 12 10 11 17 12 9 14 10 7 10 10 8 9 7 8 7 7 7 8 6 7 7 7 7 8 8 6 9 9 9 23 9 9 68 10 9 74 10 10 72 12 12 71 9 10 73 11 12 74 10 11 
18 10 8 9 9 9 11 11 11 12 10 11 10 10 12 10 10 8 8 6 7 7 5 6 6 6 6 8 8 8 10 10 10 8 8 8 7 7 7 7 7 7 8 8 8 9 9 9 11 11 11 10 10 10 10 10 10 11 11 11 12 12 12 8 8 8 11 11 11 14 14 14 12 12 12 11 11 11 8 8 6 6 6 6 8 8 8 10 8 9 10 10 10 18 10 8 56 10 10 37 11 14 12 10 11 10 10 8 10 10 8 14 12 13 13 12 10 10 10 10 9 9 9 8 8 8 6 6 6 6 6 6 7 7 7 7 7 7 12 12 12 12 12 12 12 12 12 73 69 57 73 71 59 65 61 52 19 19 19 15 15 15 22 20 23 23 21 22 20 20 20 18 18 18 16 16 16 15 15 15 13 13 13 9 9 9 11 11 13 12 12 12 13 13 13 11 11 13 11 11 11 8 8 6 7 7 7 9 9 11 10 10 10 9 9 9 10 8 9 10 10 10 8 8 8 10 8 9 13 13 13 10 10 10 7 5 6 5 5 5 6 4 5 6 6 6 7 7 7 48 41 33 71 28 21 33 9 9 10 10 8 10 8 9 9 7 10 8 8 8 8 8 8 8 10 9 9 7 10 9 7 10 24 8 9 75 9 10 74 10 10 73 11 12 74 14 14 73 11 12 
64 13 12 10 10 10 12 10 13 13 11 12 12 10 11 10 10 8 7 8 10 6 6 6 7 7 7 6 6 6 7 7 7 7 7 7 7 7 7 7 7 7 8 8 8 11 11 11 11 11 11 9 9 9 7 7 7 9 9 9 10 10 10 9 9 9 11 11 11 14 14 14 11 9 12 11 11 11 9 9 9 6 6 6 8 8 8 12 10 11 11 11 11 50 8 9 74 10 10 38 10 9 16 10 10 11 11 11 12 12 12 12 14 13 15 15 17 13 11 12 11 11 11 9 9 9 7 7 7 6 6 6 5 5 5 6 6 6 15 15 15 15 15 15 12 10 13 73 65 54 67 63 52 12 12 12 14 13 11 15 14 12 16 16 14 19 19 17 16 16 16 17 17 19 16 16 16 14 14 14 9 9 11 7 7 7 9 9 9 8 8 10 9 7 8 10 8 9 10 10 10 8 8 8 7 7 7 9 9 9 9 9 9 9 9 9 11 9 10 9 9 9 8 8 8 13 11 12 17 15 16 12 12 12 9 9 9 9 7 8 8 6 7 6 6 8 7 5 6 48 41 31 68 27 23 29 9 8 11 9 10 8 10 9 8 10 9 7 7 5 7 7 7 8 8 10 7 9 8 14 8 8 27 7 8 73 7 8 72 8 8 77 11 13 75 13 14 74 21 17 
11 12 14 10 10 10 11 9 10 12 12 12 10 10 8 12 12 12 9 9 9 7 7 7 7 7 7 7 7 7 6 6 6 7 7 7 6 6 6 7 7 7 8 8 8 11 11 11 11 11 11 9 7 8 4 4 4 8 6 7 11 9 10 9 9 9 13 11 12 12 12 12 10 10 10 10 10 10 9 9 9 8 8 8 9 9 9 11 11 11 11 11 11 11 9 10 58 8 7 74 10 8 35 9 10 11 11 13 12 12 12 13 15 14 14 14 14 15 15 15 11 11 11 10 10 10 9 9 9 5 5 5 5 5 5 6 6 6 15 15 15 14 14 14 10 10 10 72 65 47 9 9 9 11 13 12 13 13 13 12 14 11 14 14 14 13 12 17 12 12 12 13 13 13 14 14 14 12 12 12 9 9 9 7 7 7 7 7 7 6 6 6 8 8 8 9 9 9 9 9 9 8 8 8 7 7 9 8 8 8 10 8 9 10 8 9 10 10 10 9 9 9 9 9 9 13 13 13 15 15 15 12 12 12 10 10 10 10 10 10 10 8 9 7 7 7 6 6 6 47 40 30 32 27 23 7 9 8 8 8 6 10 10 10 9 9 9 9 7 8 6 6 6 7 7 7 9 7 8 25 7 7 72 6 7 71 7 7 73 9 9 73 11 12 74 13 12 74 72 60 
8 8 6 10 10 8 9 9 9 11 11 11 11 11 11 11 11 11 10 10 8 8 8 8 7 5 6 6 6 6 8 6 7 9 7 8 7 7 7 7 7 7 10 8 9 11 11 11 14 12 13 9 7 8 5 5 5 9 7 8 9 7 8 9 9 9 11 9 10 12 10 11 11 11 11 10 10 10 12 10 11 10 10 10 11 10 8 9 9 9 10 10 10 12 10 11 11 11 9 11 11 11 11 11 11 12 12 10 14 14 14 16 16 18 15 17 16 12 14 13 12 10 11 10 8 9 9 9 9 8 6 7 6 6 6 9 7 8 11 11 11 12 12 12 10 10 10 10 8 9 9 9 9 11 9 10 10 10 10 13 13 15 14 12 13 10 12 9 11 11 11 10 10 10 10 10 10 11 11 11 10 10 8 8 8 8 8 8 10 8 8 8 11 9 10 9 7 8 7 7 9 6 6 6 8 8 8 9 9 9 9 9 11 10 10 10 10 10 10 9 9 9 12 12 12 12 12 12 11 11 11 11 11 11 13 13 13 13 13 13 10 10 10 7 5 6 7 7 7 8 6 9 7 7 5 7 7 5 8 8 6 8 8 8 8 8 10 8 8 10 8 6 7 7 7 7 23 7 8 72 8 9 71 5 7 72 8 8 71 11 11 75 21 19 73 69 58 76 67 58 
