P3
100 50
255
11 11 11 8 8 8 6 6 6 5 5 5 7 7 7 7 7 7 7 7 7 7 7 7 8 8 8 10 10 10 11 9 10 9 9 9 9 9 9 8 8 8 8 8 8 8 8 8 8 8 8 7 7 7 6 6 6 7 7 7 7 5 6 8 8 6 8 8 8 7 7 7 7 9 8 8 6 7 6 6 6 7 7 7 7 7 7 6 6 6 7 5 6 6 6 6 6 6 6 5 5 5 6 6 6 6 6 6 8 6 7 8 8 8 5 5 5 4 4 4 3 5 4 6 4 5 6 6 4 8 8 8 8 8 8 8 8 8 5 7 6 5 5 5 6 6 6 7 7 7 7 7 7 8 8 8 8 7 5 7 7 7 4 4 4 5 5 5 5 5 5 5 5 3 5 5 5 6 4 5 8 8 8 10 10 10 9 9 9 7 7 7 4 4 4 4 4 4 5 5 5 6 6 6 7 7 7 8 8 8 6 6 6 6 6 6 6 6 6 6 6 6 6 6 6 4 4 4 5 5 5 7 7 7 8 8 8 9 9 9 8 8 8 5 5 5 3 3 3 3 3 3 5 4 2 4 6 5 7 7 7 6 6 6 6 4 5 6 4 5 7 7 7 9 7 8 8 8 8 8 6 7 7 7 7 7 7 7 6 6 6 5 5 5 4 4 4 6 6 6 
9 9 9 8 8 8 6 6 6 5 5 5 7 7 7 9 9 9 7 7 7 6 6 6 9 9 9 12 10 11 8 8 8 8 8 8 10 10 10 8 8 8 7 7 7 9 9 9 8 8 8 6 6 6 7 7 7 7 7 7 6 6 6 7 9 8 9 9 9 9 9 9 9 7 8 7 7 9 7 7 7 7 7 7 11 6 10 9 7 10 5 5 5 6 6 6 6 4 5 6 4 5 6 4 5 5 7 6 8 6 7 7 7 7 7 7 7 6 4 7 4 4 4 6 6 6 8 7 5 8 8 10 9 9 9 7 7 7 7 7 7 8 8 8 6 8 7 6 6 6 6 6 6 8 8 8 7 7 7 6 4 5 6 6 6 6 6 8 5 5 5 5 5 5 7 6 4 7 7 7 10 10 10 10 10 10 9 9 9 8 8 8 7 7 7 6 6 6 7 7 7 9 9 9 8 8 8 9 9 9 8 8 8 7 7 7 6 6 6 7 7 7 8 8 8 7 7 7 7 7 7 9 9 9 8 8 8 8 8 8 9 9 9 6 6 6 3 3 3 3 3 3 3 3 3 5 5 5 9 8 6 7 7 7 7 7 5 9 7 8 8 8 6 7 7 7 7 5 6 7 7 7 7 7 7 7 6 4 5 3 6 5 5 5 4 4 4 7 7 7 
8 8 8 8 8 8 5 5 5 4 4 4 7 7 7 8 8 8 8 6 7 7 7 7 8 8 8 10 10 10 8 8 8 8 8 8 8 8 8 7 7 7 8 8 8 8 8 8 8 8 8 7 7 7 6 6 6 7 7 7 6 6 6 11 9 10 8 8 8 8 8 8 9 7 8 8 8 8 9 7 8 6 6 6 8 8 8 7 7 7 7 5 6 6 6 6 5 5 5 5 5 5 6 6 6 6 6 6 6 6 6 7 5 6 8 6 7 6 6 6 5 5 5 6 6 6 9 7 8 9 9 7 8 8 8 6 6 6 6 6 6 7 7 7 7 7 7 7 7 7 6 6 6 6 6 6 7 7 7 6 6 4 5 5 3 5 5 5 5 5 5 5 5 5 6 6 8 8 10 9 9 9 9 8 8 8 9 9 9 9 9 9 9 9 9 7 7 7 7 7 7 8 8 8 8 8 8 7 7 7 8 8 8 9 9 9 8 8 8 8 8 8 9 9 9 9 9 9 8 8 8 10 10 10 10 10 10 10 10 10 8 8 8 5 5 5 3 3 3 3 3 3 4 2 3 6 6 6 9 9 9 10 8 9 8 7 5 7 7 7 7 7 7 6 6 6 6 5 3 6 6 6 7 7 7 7 7 7 6 4 5 3 3 5 5 5 5 5 5 5 
7 7 7 6 6 6 4 4 4 4 4 4 6 6 6 6 6 6 8 6 7 8 8 8 8 8 8 7 7 7 6 6 6 7 7 7 7 7 7 7 7 7 7 7 7 7 7 7 7 7 7 7 7 7 7 7 7 7 7 7 9 7 8 10 10 10 7 7 7 7 7 7 7 7 7 8 8 6 7 7 7 6 4 5 7 7 7 6 6 6 6 6 6 5 5 5 6 6 4 5 5 3 5 5 5 5 5 5 6 6 4 8 6 7 6 6 6 7 5 6 21 5 5 49 7 8 37 9 8 8 8 8 8 8 8 7 7 7 5 7 6 7 7 7 7 7 7 8 8 8 5 5 5 4 4 4 6 4 5 4 6 5 5 5 5 6 4 5 5 5 5 5 5 3 6 6 8 7 7 9 8 8 8 7 7 7 8 8 8 7 7 7 7 7 7 7 7 7 7 7 7 6 6 6 6 6 6 7 7 7 9 9 9 10 10 10 6 6 6 7 7 7 9 9 9 7 7 7 7 7 7 8 8 8 8 8 8 7 7 7 6 6 6 4 4 4 2 2 2 2 2 2 2 2 4 4 4 2 7 7 5 8 8 8 7 7 7 6 6 6 6 6 6 4 6 3 5 5 5 7 5 6 7 7 9 10 10 10 7 7 7 4 4 4 4 6 5 4 4 4 
7 7 7 5 5 5 5 5 5 3 3 3 3 3 3 5 5 5 7 7 7 7 5 6 7 7 7 7 7 7 5 5 5 5 5 5 7 7 7 8 8 8 8 8 8 7 7 7 7 7 7 7 7 7 6 6 6 7 7 7 10 8 9 9 9 9 7 7 7 5 5 5 5 5 5 50 43 33 7 7 7 6 6 6 7 5 8 6 6 6 6 6 6 7 7 7 7 5 6 5 5 5 5 5 5 7 7 7 8 7 5 7 7 7 7 7 9 23 7 7 53 7 9 57 8 11 54 8 8 38 8 6 6 4 5 5 7 6 7 7 7 7 7 7 7 5 6 7 7 7 6 6 6 4 4 4 6 5 3 5 5 5 5 7 6 6 6 6 6 5 3 39 36 29 49 45 34 23 22 18 8 8 8 7 7 7 6 6 6 5 5 5 6 6 6 8 8 8 8 8 8 7 7 7 6 6 6 7 7 7 8 8 8 8 8 8 4 4 4 6 6 6 7 7 7 7 7 7 8 8 8 6 6 6 6 6 6 6 6 6 5 5 5 4 4 4 4 4 4 3 3 3 2 2 2 3 3 3 5 5 5 7 7 7 5 5 5 5 5 5 20 4 5 49 5 6 37 6 4 6 6 6 9 7 8 10 10 10 9 9 9 5 5 3 5 5 5 3 3 3 
7 7 7 6 6 6 5 5 5 3 3 3 3 5 4 6 4 5 8 6 7 6 6 6 6 6 6 5 5 5 4 4 4 4 4 4 7 7 7 10 10 10 9 9 9 8 8 8 8 8 8 6 6 6 5 5 5 7 7 7 8 8 8 7 7 7 8 6 7 4 4 4 4 4 4 18 17 15 7 7 7 6 6 6 6 4 5 5 5 5 5 3 4 6 6 6 6 4 5 4 4 4 6 6 6 7 7 7 8 8 8 7 7 7 7 7 7 14 8 8 33 12 11 43 9 8 17 5 5 16 6 7 6 6 6 6 6 6 8 8 8 7 7 7 7 7 7 5 5 5 5 5 5 5 5 5 6 6 6 6 6 8 6 6 6 5 5 5 6 6 4 43 40 33 57 50 42 24 23 19 7 7 7 6 6 6 6 6 6 7 7 7 7 7 7 8 8 8 8 8 8 8 8 8 8 8 8 7 7 7 7 7 7 6 6 6 5 5 5 5 5 5 5 5 5 9 9 9 9 9 9 8 8 8 6 6 6 3 3 3 3 3 3 5 5 5 5 5 5 4 4 4 4 4 2 6 5 3 6 6 6 5 5 5 5 5 5 4 4 4 23 5 5 45 6 7 18 8 7 8 8 6 7 7 7 8 8 6 7 7 9 5 5 5 4 4 4 5 3 6 
8 8 8 9 9 9 6 6 6 4 4 4 3 3 3 5 5 5 8 8 8 8 8 8 7 5 6 4 4 4 5 5 5 5 5 5 8 8 8 9 9 9 11 11 11 11 11 11 10 10 10 7 7 7 4 4 4 7 7 7 9 9 9 8 8 8 7 7 7 6 6 6 5 5 5 5 6 8 7 7 7 7 7 7 5 5 5 5 5 5 5 5 5 6 6 6 7 7 5 5 5 3 7 7 5 9 9 9 8 8 8 6 8 7 8 8 8 9 9 9 18 12 12 14 8 8 5 7 6 5 5 5 7 7 7 6 6 6 8 8 8 7 7 7 7 5 6 4 4 4 5 5 5 6 6 6 6 6 6 7 7 7 5 5 7 5 5 5 5 5 5 15 14 10 20 16 15 8 8 8 6 6 6 7 7 7 7 7 7 7 7 7 7 7 7 6 6 6 7 7 7 9 9 9 9 9 9 7 7 7 6 6 6 5 5 5 5 5 5 7 7 7 6 6 6 6 6 6 8 8 8 7 7 7 7 7 7 6 6 6 5 5 5 5 5 5 5 5 5 4 4 4 5 5 5 5 5 3 5 5 5 6 4 5 5 5 3 5 5 3 14 5 6 13 9 8 7 7 7 8 6 7 7 7 5 7 7 7 6 6 6 6 6 6 5 5 5 7 7 7 
7 7 7 9 9 9 8 8 8 5 5 5 3 3 3 5 5 5 9 9 9 10 10 10 6 6 6 5 3 4 5 5 5 7 7 7 9 9 9 10 10 10 10 10 10 11 11 11 11 11 11 8 8 8 6 6 6 7 7 7 8 8 8 8 8 8 8 8 8 8 8 10 9 7 8 6 6 6 8 8 8 8 7 5 7 5 6 5 5 5 6 6 6 8 8 8 9 7 8 7 7 7 7 7 7 9 9 9 9 9 9 8 8 6 8 8 8 10 10 10 11 11 13 8 10 7 6 5 3 5 5 7 7 5 6 6 8 7 7 7 7 8 6 7 8 6 7 7 7 7 6 6 6 7 7 7 7 7 7 7 7 5 6 6 4 5 5 5 6 6 6 5 5 5 6 5 3 6 6 6 7 7 7 8 8 8 8 8 8 6 6 6 5 5 5 5 5 5 7 7 7 8 8 8 9 7 8 8 6 7 6 4 5 5 3 4 7 5 6 7 5 6 8 6 7 7 5 6 6 6 6 6 6 6 7 7 7 7 7 7 6 6 6 6 6 6 6 6 6 6 6 6 6 6 6 3 3 3 5 5 5 5 5 5 6 4 7 6 6 6 8 8 8 6 6 4 7 5 8 5 5 5 7 7 9 7 7 5 6 6 4 4 4 4 6 6 4 7 7 5 
6 6 6 8 8 8 7 7 7 5 5 5 6 4 5 5 5 5 7 7 7 7 7 7 6 6 6 5 5 5 6 6 6 8 8 8 10 10 10 8 8 8 10 9 7 11 11 11 12 10 11 8 8 10 7 7 7 7 7 7 7 7 7 7 7 7 6 6 6 10 10 10 9 9 9 8 8 8 7 7 7 9 9 9 6 6 6 6 6 6 5 5 5 7 7 7 6 6 6 7 7 7 8 8 8 9 9 9 7 7 7 7 7 7 8 10 9 11 11 11 12 12 12 8 8 8 6 6 6 5 5 5 6 6 6 8 6 7 8 8 8 7 7 7 7 7 7 7 9 8 8 8 8 7 7 7 8 8 8 7 7 7 6 4 5 5 5 5 6 6 6 7 5 6 7 7 7 7 7 7 8 8 8 8 8 8 7 7 7 5 5 5 5 5 5 6 6 6 7 7 7 7 7 7 10 8 9 8 6 7 4 4 2 6 6 6 6 6 6 6 6 6 6 6 4 6 6 6 6 6 6 7 7 7 8 8 8 8 8 8 7 7 7 4 4 4 6 6 6 5 5 5 5 5 5 5 5 5 5 5 5 6 4 5 6 4 5 7 7 7 6 6 6 5 5 5 4 4 4 4 4 4 6 6 6 7 7 7 5 5 5 5 5 5 6 6 6 7 5 6 
8 8 8 9 9 9 7 7 7 5 5 5 4 4 4 4 4 4 5 5 5 7 7 7 6 6 6 6 6 6 7 7 7 9 7 8 8 8 8 8 8 10 9 9 9 10 10 10 10 10 8 8 6 7 8 6 7 8 8 8 6 6 6 6 6 6 8 8 8 9 9 9 9 9 9 8 8 8 7 7 7 7 7 7 6 6 6 7 7 7 8 8 8 6 6 6 5 5 5 5 5 5 7 7 7 8 8 8 6 6 6 7 7 7 10 10 10 12 12 12 13 13 13 8 8 8 7 7 7 6 6 6 6 6 6 7 7 7 8 8 8 7 7 7 8 8 8 10 10 10 8 8 8 9 7 8 7 7 7 6 6 6 5 5 5 5 5 5 6 6 6 8 6 7 9 9 9 7 7 7 8 8 8 9 9 9 8 8 8 7 7 7 5 5 5 6 6 6 7 7 7 6 6 6 8 6 7 8 8 8 5 5 5 5 5 5 6 6 6 7 7 7 6 6 6 5 5 5 5 5 5 7 7 7 9 9 9 7 7 7 7 7 7 5 5 5 7 7 7 6 6 6 6 6 6 6 6 6 6 6 6 6 6 6 6 6 6 4 4 4 5 5 5 4 4 4 4 4 4 4 4 4 5 5 5 6 6 6 5 5 5 5 5 5 6 6 6 6 6 6 
9 9 9 8 8 8 6 6 6 6 6 6 3 3 3 3 3 3 3 3 3 6 6 6 5 5 5 6 6 6 5 5 5 7 5 6 7 7 7 9 9 9 10 10 10 9 9 9 7 7 7 7 7 7 7 7 7 6 6 6 6 6 6 5 5 5 8 8 8 9 9 9 8 8 8 7 7 7 7 7 7 6 6 6 6 6 6 8 8 8 8 8 8 6 6 6 5 5 5 5 5 5 6 6 6 6 6 6 5 5 5 6 6 6 9 9 9 12 12 12 12 12 12 8 8 8 6 6 6 5 5 5 5 5 5 6 6 6 8 8 8 8 6 9 10 10 10 10 10 10 7 7 5 8 8 8 5 5 5 5 5 5 6 6 6 6 6 6 7 7 7 7 7 7 7 7 7 7 7 7 7 7 7 9 9 9 8 8 8 7 7 7 5 5 5 6 6 6 6 6 6 5 5 5 5 5 5 5 5 5 7 7 7 5 5 7 5 3 4 7 5 6 6 6 6 3 3 3 5 5 5 8 8 8 10 10 10 8 8 8 7 7 7 6 6 6 7 7 7 7 7 7 7 5 6 6 6 6 6 6 6 6 6 6 6 6 6 5 5 5 5 5 5 5 3 4 4 4 4 4 4 4 4 4 4 4 4 4 6 6 6 6 6 6 5 7 6 5 5 5 
9 9 9 7 7 7 6 6 6 6 6 6 4 2 3 2 2 2 3 3 3 4 4 4 6 6 6 5 5 5 5 5 5 5 5 5 8 8 8 10 10 10 10 10 10 18 9 10 23 7 7 7 7 7 7 7 7 7 7 7 6 6 6 5 5 5 6 6 6 8 8 8 8 8 8 7 7 7 6 6 6 5 5 5 7 7 7 8 8 8 7 7 7 5 5 5 5 5 5 6 6 6 6 6 6 6 6 6 5 5 5 6 6 6 9 9 9 11 11 11 10 10 10 7 7 7 5 5 5 6 6 6 7 7 7 7 7 7 8 8 10 8 6 7 8 8 8 34 31 26 32 27 23 8 8 8 6 6 6 5 5 5 8 6 7 7 7 7 7 7 7 9 9 9 7 7 7 6 6 6 6 6 6 8 8 8 7 7 7 7 7 7 5 5 5 5 5 5 6 6 6 5 5 5 5 5 7 6 6 6 6 6 6 5 5 7 5 5 7 5 5 5 4 4 4 4 4 4 5 5 5 8 8 8 12 12 12 8 8 8 8 8 8 6 6 6 6 6 6 6 6 6 8 6 7 6 6 6 6 6 6 6 6 6 6 6 6 6 6 6 4 4 4 4 2 3 4 4 4 4 4 4 4 4 4 4 4 4 5 5 5 5 5 5 5 5 5 6 6 6 
9 9 9 7 7 7 6 6 6 7 7 7 4 2 3 2 2 2 3 3 3 4 4 4 6 6 6 6 6 6 5 5 5 5 5 5 7 7 7 9 9 9 10 10 10 27 9 9 47 16 14 29 28 23 23 22 17 7 5 6 6 6 6 5 5 5 5 5 5 6 6 6 7 7 7 7 7 7 6 6 6 6 6 6 7 7 7 8 8 8 7 7 7 6 6 6 6 6 6 7 7 7 6 6 6 6 6 6 6 6 6 6 6 6 8 8 8 9 9 9 9 9 9 6 6 6 6 6 6 6 6 6 6 6 6 8 8 8 10 8 9 8 8 10 7 7 7 55 51 40 56 47 38 31 26 22 8 8 8 6 6 6 7 7 7 7 7 7 7 7 7 11 9 10 7 7 7 6 6 6 5 5 5 5 5 5 5 5 5 5 5 5 5 5 5 5 5 5 5 5 5 11 11 11 24 20 17 6 6 6 6 6 6 6 4 5 6 5 3 5 5 5 4 4 4 4 4 4 6 6 6 9 9 9 9 9 9 9 9 9 8 8 8 7 7 7 5 5 5 6 6 6 6 6 6 6 6 6 6 6 6 5 5 5 6 6 6 6 6 6 5 5 5 2 2 2 4 2 3 3 3 3 5 3 4 5 5 5 6 4 5 5 5 5 5 5 5 6 6 6 
9 9 9 8 8 8 5 5 5 6 6 6 4 4 4 3 3 3 3 3 3 4 4 4 6 6 6 6 6 6 6 6 6 6 4 5 7 7 9 10 9 7 18 17 15 40 29 23 55 36 30 55 51 40 45 40 34 8 8 6 6 6 6 4 4 4 4 4 4 5 5 5 6 6 6 8 8 8 6 6 6 6 6 6 6 6 6 7 7 7 8 6 7 8 8 8 8 6 7 7 7 7 5 5 5 5 5 5 6 4 5 5 5 5 8 8 8 10 10 10 9 9 9 7 5 6 5 5 5 6 6 6 9 7 8 9 9 9 9 9 9 8 8 8 8 8 8 54 50 39 56 48 37 31 28 23 7 7 7 7 7 7 7 7 7 6 6 6 7 7 7 9 9 9 8 8 8 5 5 5 5 5 5 5 5 5 3 3 3 4 4 4 5 5 5 4 4 4 4 4 4 11 9 10 25 21 18 6 5 3 5 5 5 6 4 5 6 5 3 5 5 3 6 6 6 6 4 5 7 7 7 6 6 6 8 8 8 8 8 8 8 8 8 7 7 7 5 5 5 5 5 5 4 4 4 5 5 5 6 6 6 5 5 5 5 5 5 6 6 6 5 5 5 2 2 2 2 0 1 2 2 2 5 3 4 6 6 6 7 5 6 5 5 5 5 5 5 5 5 5 
9 9 9 8 8 8 6 6 6 6 6 6 4 4 4 3 3 3 3 3 3 5 5 5 6 6 6 7 7 7 8 8 8 8 6 7 7 7 7 8 8 8 18 17 15 36 33 24 42 37 33 50 47 38 31 30 25 9 9 9 6 6 6 3 3 3 4 4 4 5 5 5 5 5 5 6 6 6 5 5 5 6 6 6 6 6 6 7 7 7 8 8 8 9 7 8 8 8 8 7 5 6 5 5 5 5 5 5 5 3 4 5 5 5 10 8 9 11 11 11 7 7 7 5 5 5 4 4 4 6 6 6 7 7 9 8 8 8 8 8 10 10 10 10 8 8 6 38 35 28 37 32 28 6 6 6 6 6 6 6 6 6 7 5 6 6 6 6 7 7 7 8 8 8 9 7 8 6 6 6 6 6 6 5 5 5 4 4 4 4 4 4 4 4 4 5 5 5 5 3 4 5 3 4 5 5 5 5 5 5 5 5 5 6 6 8 5 5 5 5 5 3 5 5 3 6 6 6 7 7 7 8 8 8 6 6 6 7 7 7 7 7 7 7 7 7 4 4 4 5 5 5 4 4 4 5 5 5 6 6 6 5 5 5 5 5 5 5 5 5 3 3 3 2 2 2 2 0 1 2 2 2 5 3 4 6 6 6 6 4 5 4 4 4 5 5 5 4 4 4 
6 6 6 8 8 8 5 5 5 5 5 5 5 3 4 3 3 3 4 4 4 4 4 4 5 5 5 6 6 6 7 7 7 7 7 7 7 7 7 6 6 6 6 6 6 6 6 6 18 17 13 34 31 26 10 10 10 7 9 8 6 6 6 2 2 2 5 5 5 5 5 5 5 5 5 4 4 4 5 5 5 4 4 4 6 6 6 7 7 7 8 6 7 8 8 8 10 8 9 7 7 7 4 4 4 4 4 4 4 4 4 6 4 5 9 7 8 8 6 7 5 5 5 4 4 4 4 4 4 4 4 4 5 5 5 6 6 6 7 7 7 9 7 8 8 6 7 7 7 7 7 7 7 9 7 10 7 7 7 6 6 6 5 5 5 6 6 6 7 7 7 9 7 8 7 7 7 7 7 7 7 7 7 5 5 5 4 4 4 3 3 3 4 4 4 5 3 4 6 4 5 8 4 5 3 3 3 4 4 4 4 4 2 5 5 5 5 5 5 6 4 5 6 6 4 6 6 6 7 7 7 7 7 7 7 7 7 6 6 6 5 5 5 5 5 5 5 5 5 5 5 5 4 4 4 5 5 5 5 5 5 5 5 5 5 5 5 3 3 3 3 3 3 1 1 1 3 1 2 2 2 2 4 4 4 5 5 5 5 5 5 5 5 5 4 4 4 3 3 3 
5 5 5 7 7 7 6 6 6 5 5 5 3 3 3 3 3 3 3 3 3 4 4 2 5 5 7 6 6 6 8 8 8 8 8 8 7 5 6 5 5 5 4 4 4 5 5 5 7 7 7 10 10 10 11 11 11 9 9 9 5 5 5 3 3 5 5 5 3 5 5 7 5 5 3 4 4 4 4 4 4 5 5 5 7 7 7 7 7 7 7 7 7 8 8 8 8 8 8 6 6 6 6 6 6 5 5 5 5 5 5 6 4 5 7 7 7 5 5 5 5 3 6 4 4 4 4 4 4 4 4 4 4 4 4 6 6 6 7 7 7 9 9 9 8 8 8 7 7 7 8 8 8 9 9 9 8 8 8 7 7 7 6 6 6 6 6 6 8 8 8 9 9 9 9 9 9 8 8 8 9 9 9 8 8 8 4 4 4 4 4 4 4 4 4 4 4 4 3 3 3 4 4 4 5 3 4 2 2 2 3 3 3 4 4 4 5 5 5 7 7 7 7 7 7 7 7 7 6 6 6 6 6 6 7 5 6 5 7 6 6 6 6 6 4 5 4 4 4 4 4 4 5 5 5 6 6 6 6 6 6 5 5 5 4 4 4 4 4 4 3 3 3 3 3 3 2 2 2 3 3 3 6 6 6 5 5 5 7 7 7 7 7 7 3 3 3 1 1 1 
5 5 5 4 4 4 5 5 5 7 7 7 5 5 5 3 3 3 2 2 4 4 3 1 5 4 2 6 6 4 8 8 8 7 7 7 7 7 7 5 5 5 4 4 4 6 4 5 7 7 7 9 9 9 10 10 10 10 10 10 6 6 6 4 4 4 6 6 6 6 6 6 5 5 5 3 3 3 4 4 4 6 6 6 7 7 7 7 7 7 7 7 7 8 8 8 7 7 7 7 7 7 6 6 6 6 6 6 6 6 6 6 6 6 5 5 5 5 5 5 4 5 7 4 4 2 4 4 4 3 3 3 4 4 4 6 6 6 7 7 7 8 8 8 8 8 8 11 11 11 11 11 11 9 9 9 8 8 8 8 8 8 7 7 7 8 8 8 9 9 9 8 8 8 9 9 9 8 8 8 9 9 9 8 8 8 6 6 6 4 4 4 5 5 5 4 4 4 3 3 3 3 3 3 3 3 3 3 3 3 3 3 3 5 5 5 7 7 7 7 7 7 7 7 7 7 7 7 7 7 7 7 7 7 7 7 7 8 6 7 6 6 6 5 5 5 4 4 4 4 4 4 5 5 5 5 5 5 5 5 5 4 4 4 5 5 5 4 4 4 4 4 4 2 2 2 3 3 3 4 4 4 5 5 5 5 5 5 7 7 7 8 8 8 3 3 3 2 2 2 
5 5 5 3 3 3 5 5 5 7 7 7 5 5 5 4 4 2 3 3 3 3 3 3 4 4 6 5 5 5 5 5 5 5 5 5 5 5 5 5 5 5 5 5 5 7 5 6 7 7 7 7 7 7 7 7 7 10 10 10 9 9 9 6 6 6 6 6 6 6 6 6 6 6 6 3 3 3 3 3 3 6 6 6 6 6 6 6 6 6 8 8 8 8 8 8 7 7 7 7 7 7 6 6 6 6 6 6 7 7 5 7 5 6 6 6 6 5 5 5 5 3 4 5 5 5 5 5 5 4 4 2 4 4 4 6 6 6 7 7 7 7 7 7 9 9 9 12 12 12 12 12 12 9 9 9 9 9 9 7 7 7 9 9 9 8 8 8 7 7 7 6 6 6 6 6 6 7 7 7 8 8 8 7 7 7 5 5 5 4 4 4 5 5 5 5 5 5 4 4 4 3 3 3 3 3 3 3 3 3 4 4 4 6 6 6 7 7 7 7 7 7 8 8 8 7 7 7 7 7 7 7 5 6 7 7 7 7 7 7 7 7 7 4 4 4 4 4 4 5 5 5 5 5 5 5 5 5 4 4 4 4 4 4 4 4 4 5 5 5 4 4 4 4 4 4 4 4 4 4 4 4 5 5 5 5 5 5 5 5 5 6 6 6 4 4 4 3 3 3 
6 6 6 4 4 4 4 4 4 5 5 5 6 6 4 5 5 5 5 5 5 3 3 3 4 4 4 4 4 2 5 3 4 5 3 4 6 4 5 6 6 6 6 6 6 7 7 7 8 6 7 7 7 7 7 7 7 10 10 10 10 10 10 8 8 6 7 7 9 7 7 5 6 6 6 3 3 3 4 4 4 5 5 5 7 7 7 5 5 5 7 7 7 8 8 8 7 7 7 7 7 7 7 7 7 6 6 6 6 6 6 7 7 9 6 6 6 5 3 4 6 4 5 6 6 8 6 6 6 4 4 6 4 4 4 8 8 8 8 8 8 8 8 8 8 8 8 10 10 10 10 10 10 9 9 9 8 8 8 8 8 8 9 9 9 8 8 8 6 6 6 5 5 5 6 6 6 7 7 7 8 8 8 8 8 8 6 6 6 5 5 5 4 4 4 4 4 4 3 3 3 3 3 3 3 3 3 4 4 4 5 5 5 5 5 5 6 6 6 7 7 7 6 6 6 5 5 5 5 5 5 6 6 6 9 9 9 8 6 7 5 5 5 4 4 4 4 4 4 4 4 4 5 5 5 4 4 4 4 4 4 4 4 4 4 4 4 4 4 4 4 4 4 5 5 5 3 3 3 4 4 4 5 5 5 4 4 4 4 4 4 4 4 4 4 4 4 4 4 4 
6 6 6 5 5 5 4 4 4 3 3 3 8 6 7 7 7 7 6 6 6 10 9 7 9 8 6 6 6 6 5 5 5 6 4 5 6 4 5 6 6 6 6 6 6 8 8 8 8 8 8 7 7 7 7 7 7 9 9 9 9 9 9 8 8 8 8 8 8 8 8 8 7 7 7 5 5 5 5 5 5 6 6 6 8 8 8 6 6 6 6 6 6 7 7 7 6 6 6 8 8 8 8 8 8 7 7 7 6 6 6 7 7 7 7 7 7 6 6 6 6 6 6 8 8 8 7 7 5 5 5 5 6 6 6 8 8 8 9 9 9 7 7 7 7 7 7 8 8 8 8 8 8 9 9 9 10 10 10 10 10 10 8 8 8 9 9 9 7 7 7 5 5 5 5 5 5 6 6 6 7 7 7 7 7 7 6 6 6 8 8 8 6 6 6 6 6 6 4 4 4 4 4 4 4 4 4 6 6 6 6 6 6 4 4 4 5 5 5 6 6 6 4 4 4 4 4 4 4 4 4 5 5 5 9 9 9 8 8 8 7 7 7 4 4 4 4 4 4 5 3 4 4 4 4 3 3 3 4 4 4 4 4 4 4 4 4 5 5 5 4 4 4 5 5 5 5 5 5 5 5 5 5 5 5 4 4 4 5 5 5 5 5 5 5 5 5 4 4 4 
5 5 5 4 4 4 4 4 4 5 5 5 8 6 7 8 10 9 6 6 6 43 39 28 55 49 37 25 21 18 5 5 5 5 5 5 5 5 5 6 6 6 7 7 7 9 9 9 10 10 10 8 8 8 8 8 8 10 8 9 8 8 8 8 8 8 9 9 9 8 8 8 8 8 8 7 7 7 6 6 6 6 6 6 8 8 8 8 8 8 6 6 6 7 7 7 7 7 7 7 7 7 7 7 7 8 8 8 7 7 7 7 7 5 7 7 7 8 8 10 7 7 7 24 23 18 42 39 30 6 5 3 6 6 6 8 8 8 8 8 8 7 7 7 6 6 6 6 6 6 8 8 8 13 13 13 12 12 12 10 10 10 9 9 9 9 9 9 9 9 9 7 7 7 5 5 5 5 5 5 6 6 6 7 7 7 8 8 8 8 8 8 8 8 8 5 5 5 4 4 4 4 4 4 6 6 6 6 6 6 6 6 6 5 5 5 6 6 6 7 7 7 3 3 3 4 2 3 4 4 4 6 6 6 9 9 9 9 9 9 7 7 7 5 5 5 5 3 4 4 4 4 4 4 4 3 3 3 4 4 4 4 4 4 5 5 5 6 6 6 5 5 5 5 5 5 6 6 6 7 7 7 5 5 5 5 5 5 6 6 6 6 6 6 4 4 4 4 4 4 
4 4 4 1 1 1 2 2 2 5 5 5 9 7 8 8 8 8 7 7 7 37 37 27 49 47 35 19 18 14 5 5 5 5 5 5 5 5 5 5 5 5 6 6 6 7 7 7 9 9 9 8 8 8 8 8 8 9 7 8 8 8 8 8 8 8 7 7 7 7 7 7 9 9 9 8 8 8 6 6 6 6 6 6 8 8 8 8 8 8 6 6 6 6 6 6 6 6 6 6 6 6 7 7 7 8 8 8 8 8 8 8 6 9 8 8 8 6 6 6 8 6 7 20 19 15 42 39 30 7 5 6 7 7 7 8 8 8 7 7 7 7 7 7 7 7 7 5 5 5 8 8 8 11 11 11 13 13 13 11 11 11 10 10 10 10 10 10 10 10 10 7 7 7 6 6 6 6 6 6 5 5 5 5 5 5 6 6 6 7 7 7 8 8 8 6 6 6 5 5 5 6 6 6 7 7 7 6 6 6 5 5 5 7 7 7 7 7 7 6 6 6 7 5 6 6 2 3 4 4 4 6 6 6 10 10 10 9 9 9 7 5 6 4 4 4 4 4 4 5 5 5 4 4 4 4 4 4 4 4 4 5 5 5 5 5 5 7 7 7 6 6 6 5 5 5 5 5 5 7 7 7 5 5 5 5 5 5 6 6 6 5 5 5 3 3 3 3 3 3 
4 4 4 1 1 1 1 1 1 4 4 4 7 7 5 8 8 8 8 8 8 8 8 8 6 6 4 5 5 7 5 5 7 5 5 7 4 4 4 5 5 5 6 6 6 6 6 6 9 7 8 8 8 8 8 8 8 8 8 8 7 7 7 7 7 7 6 6 6 8 8 8 8 8 8 7 7 7 7 7 7 6 6 6 9 9 9 8 8 8 4 4 4 4 4 4 4 4 4 6 6 6 6 6 6 8 8 8 10 10 10 7 9 6 7 7 7 8 7 5 6 6 6 4 4 4 5 5 3 7 7 7 7 7 7 7 7 7 7 7 7 7 7 7 7 7 7 7 7 7 8 8 8 8 8 8 11 11 11 11 11 11 11 11 11 11 11 11 7 7 7 7 7 7 6 6 6 6 6 6 5 5 5 5 5 5 4 4 4 5 5 5 6 6 6 6 6 6 5 5 5 7 7 7 6 6 6 7 7 7 5 5 5 7 7 7 8 8 8 6 4 5 8 4 5 8 4 5 6 4 5 5 7 6 9 9 9 8 8 8 6 4 5 4 4 4 4 4 4 4 4 4 4 4 4 4 4 4 4 4 4 5 5 5 7 7 7 7 7 7 7 7 7 4 4 4 5 5 5 6 6 6 6 6 6 5 5 5 6 6 6 5 5 5 3 3 3 2 2 2 
4 4 6 2 2 2 2 2 0 5 3 4 6 6 6 7 7 7 9 9 11 10 8 9 8 8 8 5 5 3 6 4 5 5 5 5 4 4 4 4 4 4 6 6 6 6 6 6 7 7 7 8 8 8 8 8 8 6 6 6 6 6 6 6 6 6 7 7 7 9 7 8 8 8 8 7 7 7 8 6 7 8 8 8 10 10 10 9 9 9 6 6 6 3 3 3 5 5 5 7 7 7 8 8 8 8 8 8 9 9 9 8 8 8 8 8 8 7 7 7 7 7 7 6 6 6 6 6 6 7 5 6 7 7 7 9 7 8 8 8 8 7 7 7 7 7 7 7 7 7 8 6 7 8 8 8 9 9 9 12 10 11 10 10 10 9 7 8 5 5 5 5 5 5 6 6 6 6 6 6 6 6 6 5 5 5 5 5 5 5 3 4 4 4 4 5 5 5 5 5 5 8 6 7 8 8 8 6 6 6 7 7 7 8 8 8 8 8 8 7 7 7 9 9 9 7 7 7 6 6 6 7 7 7 9 7 8 7 7 7 5 7 6 5 5 5 2 4 3 6 2 3 4 4 4 5 3 4 6 6 6 5 5 5 7 7 7 9 9 9 8 8 10 7 6 4 5 5 5 6 4 5 8 8 8 9 7 8 6 6 6 6 4 9 4 2 3 2 2 0 
5 5 5 3 3 3 3 1 4 4 4 4 5 5 5 7 7 7 9 9 9 9 9 9 8 8 8 7 7 7 5 5 5 4 4 4 4 4 4 4 4 4 4 4 4 6 6 6 7 7 7 8 8 8 6 6 6 5 5 5 4 4 4 8 6 7 7 7 7 7 7 7 8 6 7 7 7 7 7 7 7 7 5 6 9 9 9 9 9 9 7 7 7 6 6 6 6 6 6 8 8 8 9 9 9 8 8 8 8 6 7 9 9 9 9 9 9 8 8 8 7 7 7 6 6 6 6 6 6 6 6 6 7 7 7 7 7 7 7 7 7 8 8 8 8 8 8 7 7 7 6 6 6 6 6 6 10 8 9 10 10 10 9 9 9 8 8 8 8 8 8 8 6 7 6 6 6 6 6 6 6 6 6 6 6 6 6 6 6 5 5 5 5 5 5 4 4 4 5 5 5 9 9 9 7 7 7 8 8 8 9 9 9 8 8 8 8 8 8 7 7 7 8 8 8 9 9 9 8 8 8 6 6 6 6 6 6 7 7 7 5 5 5 5 5 5 5 5 5 5 5 5 4 4 4 5 5 5 6 6 6 6 6 6 6 6 4 9 9 9 8 10 9 8 6 7 6 4 5 5 5 5 8 8 8 8 10 9 9 7 8 6 6 8 5 5 7 3 3 3 
6 6 6 4 4 2 3 3 5 3 3 1 5 5 5 6 6 6 7 7 7 7 7 7 8 8 8 7 7 7 7 7 7 5 5 5 4 4 4 3 3 3 4 4 4 6 6 6 8 8 8 8 6 7 6 6 6 6 4 5 5 5 5 9 7 8 8 8 8 7 7 7 7 7 7 7 7 7 5 5 5 7 7 7 7 7 7 8 8 8 8 8 8 6 6 6 4 4 4 8 8 8 9 9 9 7 7 7 8 6 7 8 8 8 8 8 8 8 8 8 7 7 7 7 7 7 7 7 7 6 6 6 6 6 6 6 6 6 7 7 7 8 8 8 7 7 7 7 7 7 6 6 6 3 3 3 7 7 7 8 8 8 8 6 7 7 7 7 7 7 7 8 8 8 7 7 7 7 7 7 6 6 6 7 5 6 6 6 6 6 6 6 4 4 4 6 2 3 5 3 4 7 7 7 7 7 7 7 7 7 8 8 8 8 8 8 7 7 7 5 5 5 5 5 5 5 5 5 6 4 5 6 4 5 5 5 5 8 6 7 5 3 4 4 4 4 5 5 5 6 4 5 5 3 4 5 3 6 6 6 8 7 5 6 7 6 4 8 8 8 9 9 9 8 8 10 6 4 5 6 6 6 8 8 8 9 7 8 9 7 10 6 6 6 7 5 6 6 4 5 
8 6 7 4 4 6 4 4 4 3 3 3 5 5 5 5 5 5 6 6 4 7 7 5 8 8 8 9 9 9 7 7 7 6 6 6 4 4 4 3 3 3 5 3 4 5 5 5 8 8 8 6 6 6 4 4 4 5 5 5 6 6 6 8 8 8 8 8 8 6 6 6 8 8 8 7 7 7 7 5 6 5 5 5 7 7 7 8 8 8 6 6 6 4 4 4 6 6 6 9 9 9 8 8 8 7 7 7 7 7 7 8 8 8 8 8 8 9 9 9 8 8 8 7 7 7 8 8 8 7 5 6 7 7 7 8 8 8 8 8 8 8 8 8 8 8 8 7 7 7 6 6 6 4 4 4 5 5 5 6 6 6 9 7 8 9 9 9 8 8 8 6 8 7 6 6 6 7 5 6 7 7 7 6 6 6 6 6 6 6 6 6 4 4 4 3 1 2 4 2 3 6 6 6 7 7 7 8 8 8 8 8 8 7 7 7 6 6 6 4 4 4 4 4 4 3 3 3 3 3 3 4 2 3 7 5 6 5 5 5 6 6 6 5 5 5 5 3 4 6 4 5 7 5 6 5 5 5 3 5 4 6 6 4 6 6 4 8 8 8 9 7 8 8 7 5 6 6 6 6 6 6 7 7 7 7 5 6 7 5 6 5 5 7 5 3 6 7 5 6 
8 8 8 6 6 6 4 2 3 4 4 4 6 6 4 5 5 5 4 4 4 6 4 5 7 7 7 7 7 7 9 7 8 6 6 6 6 4 5 4 4 4 3 3 3 6 4 5 7 7 7 7 7 7 5 5 5 6 6 6 7 7 7 9 7 8 7 7 7 7 7 7 9 7 8 7 7 7 6 6 6 8 6 7 8 8 8 6 6 6 6 6 6 4 4 4 6 6 6 9 9 9 9 9 9 7 7 7 8 8 8 8 8 8 8 8 8 7 5 6 6 6 6 7 7 7 7 7 7 7 7 7 6 6 6 7 7 7 7 7 7 7 7 7 7 7 7 8 8 8 7 7 7 4 4 4 4 2 3 5 5 5 8 6 7 8 8 8 9 7 8 8 6 7 6 4 5 5 5 5 6 6 6 5 5 5 6 6 6 6 6 6 4 4 4 3 3 3 4 4 4 7 5 6 7 7 7 8 8 8 8 8 8 8 8 8 5 5 5 2 2 2 2 2 2 2 2 2 4 3 1 5 3 4 7 5 6 4 4 4 5 5 5 5 5 5 5 5 5 5 5 5 5 5 5 5 5 5 5 5 3 5 3 6 7 5 6 7 7 9 7 7 7 7 7 7 6 8 7 6 8 7 6 6 6 5 5 5 4 4 4 4 2 3 6 6 6 6 6 4 
50 44 32 4 6 5 4 4 4 5 5 3 8 8 8 7 7 9 4 4 4 5 3 6 5 5 5 8 8 10 11 7 8 7 7 7 5 5 5 4 4 4 4 4 4 6 6 6 5 3 4 5 5 5 7 5 6 7 7 7 8 8 8 10 8 9 8 8 8 8 8 8 8 6 7 6 6 6 8 8 8 8 8 8 7 7 7 6 6 6 5 5 5 4 4 4 5 5 5 7 7 7 9 9 9 8 8 8 10 8 9 8 8 8 7 7 7 5 5 5 6 4 5 8 8 8 8 8 8 7 7 7 5 5 5 5 5 5 7 7 7 7 7 7 7 7 7 9 9 9 9 9 9 6 6 6 3 3 3 4 4 4 5 5 5 6 6 6 7 7 7 7 7 7 6 6 6 4 6 5 7 7 7 9 9 9 8 8 8 9 7 8 6 6 6 4 4 4 4 4 4 7 5 6 6 6 6 7 7 7 7 7 7 6 6 6 5 5 5 4 4 4 2 2 2 3 3 3 4 2 3 6 7 2 6 5 3 5 3 6 4 4 4 6 4 5 5 5 3 35 5 5 21 5 6 4 4 4 5 3 4 6 5 3 5 5 5 6 6 6 6 6 6 8 7 5 6 8 7 7 7 5 5 5 5 3 3 3 4 2 3 4 4 4 6 6 6 48 8 6 
54 48 34 4 6 5 4 4 4 7 7 7 7 7 9 7 7 9 6 6 6 5 5 5 7 7 7 9 9 7 10 8 11 6 6 6 5 5 5 5 3 4 5 5 5 6 6 6 6 6 6 6 6 6 6 6 6 7 7 7 7 7 7 10 8 9 8 8 8 7 7 7 7 7 7 8 8 8 7 7 7 6 6 6 6 6 6 6 6 6 4 4 4 4 4 4 6 6 6 7 7 7 8 8 8 8 8 8 8 8 8 9 9 9 7 7 7 6 6 6 6 4 5 7 7 7 8 8 8 5 5 5 4 4 4 3 3 3 5 5 5 6 6 6 7 7 7 8 8 8 7 7 7 7 7 7 5 5 5 5 3 4 5 5 5 7 5 6 8 8 8 5 7 6 6 6 6 6 4 5 7 7 7 8 8 8 9 9 9 10 10 10 9 9 9 5 5 5 5 5 5 7 7 7 8 8 8 6 6 6 6 6 6 5 5 5 3 3 3 3 3 3 3 3 3 4 4 4 5 5 5 6 6 6 4 4 4 4 4 4 4 4 4 4 4 4 4 4 4 14 4 5 7 5 6 5 5 5 4 6 5 5 5 5 6 6 8 5 5 5 6 4 5 6 6 6 7 5 6 8 8 8 5 5 5 5 5 3 3 3 3 4 4 4 6 6 6 56 8 8 
16 14 15 3 3 3 6 4 5 6 6 6 9 9 7 6 6 6 7 8 3 6 6 6 9 9 9 8 8 8 7 7 7 6 6 6 4 4 4 5 5 5 5 5 5 7 7 7 8 8 8 6 6 6 7 7 7 6 6 6 7 7 7 9 7 8 7 7 7 7 7 7 10 8 9 9 9 9 8 8 8 6 4 5 5 5 5 5 5 5 3 3 3 5 5 5 7 7 7 8 8 8 7 7 7 7 7 7 9 9 9 9 9 9 8 8 8 7 5 6 6 6 6 7 7 7 8 8 8 7 7 7 4 4 4 4 4 4 6 4 5 4 4 4 6 6 6 10 8 9 8 8 8 7 7 7 6 6 6 6 4 5 4 4 4 6 4 5 6 6 6 6 6 6 6 6 6 7 7 7 6 6 6 8 6 7 8 8 8 11 11 11 10 10 10 8 6 7 7 5 6 8 8 8 8 8 8 7 7 7 7 7 7 6 6 6 3 3 3 3 3 3 4 4 4 5 5 5 6 6 8 6 6 6 5 3 4 4 2 3 6 4 5 5 5 5 5 3 4 5 3 4 4 4 4 6 6 6 5 5 7 5 5 3 4 4 4 4 4 4 5 3 4 6 4 5 7 7 7 7 7 7 5 7 4 6 4 5 4 4 4 4 4 4 5 6 8 21 9 9 
4 4 4 4 4 4 6 6 6 8 8 8 8 8 8 6 6 6 7 7 7 6 6 6 8 8 8 8 8 8 7 7 7 6 6 6 5 5 5 6 6 6 7 7 7 6 6 6 7 7 7 7 7 7 6 6 6 6 6 6 7 7 7 8 8 8 8 6 7 9 9 9 9 9 9 8 8 8 7 7 9 7 7 7 6 6 6 4 4 4 4 4 4 5 5 5 9 9 9 8 8 8 8 8 8 8 8 8 9 9 9 10 10 10 9 9 9 7 7 7 5 5 5 7 7 7 8 8 8 6 6 6 4 4 4 5 5 5 5 5 5 5 5 5 8 8 8 8 8 8 9 9 9 7 7 7 7 7 7 4 4 4 4 2 3 3 3 3 4 4 4 7 5 6 7 5 6 8 8 8 8 8 8 8 8 8 8 8 8 9 7 8 9 7 8 8 8 8 7 7 7 9 9 9 7 7 7 6 6 6 6 6 6 5 5 5 4 4 4 4 4 4 4 4 4 6 6 6 6 6 6 5 5 5 4 4 4 4 4 4 4 4 4 6 6 6 7 7 7 5 5 5 5 5 5 5 5 5 6 6 6 5 5 5 5 5 5 4 4 4 5 5 5 6 6 6 7 7 7 8 8 8 6 6 6 6 6 6 6 6 6 5 5 5 7 7 7 9 9 9 
4 4 4 4 4 4 5 5 5 8 8 8 9 9 7 6 6 6 5 5 5 7 7 7 8 6 7 7 7 5 7 6 4 6 6 6 7 7 7 7 7 7 6 6 6 6 6 6 6 6 6 6 6 6 4 4 4 5 5 5 7 7 7 8 8 8 7 7 7 9 7 8 9 9 9 9 9 9 8 8 8 8 6 7 6 6 6 5 5 5 5 5 5 8 8 8 10 10 10 9 9 9 8 8 8 8 8 8 10 8 9 10 10 10 9 9 9 9 7 8 5 5 5 6 6 6 6 6 6 6 4 5 4 4 4 4 4 4 5 5 5 6 6 6 7 7 7 8 8 8 8 8 8 7 7 7 6 6 6 5 3 4 1 1 1 3 3 3 4 4 4 6 4 5 6 6 6 8 6 7 8 8 8 8 8 8 7 7 7 7 7 7 7 7 7 7 7 7 7 7 7 8 8 8 6 6 6 7 5 6 6 4 5 4 4 4 4 4 4 5 5 5 6 6 6 6 6 6 7 7 7 5 5 5 3 3 3 5 5 5 5 5 5 6 6 6 6 6 6 5 5 5 5 5 5 5 5 5 6 6 6 7 5 6 5 5 5 6 4 5 6 6 6 6 6 6 9 9 9 8 8 8 6 6 6 5 5 5 8 8 8 8 8 8 8 8 8 8 8 8 
4 4 4 3 3 3 4 4 4 6 6 6 8 8 10 7 7 7 8 7 5 6 8 7 7 6 4 6 6 8 6 6 6 7 7 7 8 6 7 5 5 5 5 5 5 5 3 4 5 3 4 4 4 4 5 5 5 6 4 5 7 7 7 7 9 6 8 8 8 7 7 7 9 8 6 9 9 9 9 9 9 7 7 7 6 6 6 6 6 6 7 7 7 8 8 8 9 9 9 8 8 8 8 8 8 9 9 9 9 9 9 9 7 8 9 9 9 8 8 8 6 6 6 4 2 3 4 4 4 4 4 4 4 4 4 4 4 4 7 7 7 8 8 8 7 7 7 8 8 8 7 7 7 5 5 5 5 5 5 4 4 4 3 3 3 3 3 3 6 4 5 6 6 6 7 7 7 9 7 8 7 7 7 6 6 6 7 7 7 6 6 6 6 6 6 8 8 8 7 7 7 7 7 7 8 6 7 6 6 6 4 4 4 5 3 4 5 5 5 5 5 5 6 6 6 6 6 6 7 7 7 4 4 4 6 6 6 7 7 7 7 7 7 6 6 6 5 5 5 5 5 5 5 5 5 5 5 5 5 5 5 5 5 5 6 4 5 6 6 6 7 7 7 7 7 7 8 8 8 8 8 8 6 6 6 5 5 5 7 7 7 7 7 7 7 7 7 7 7 7 
4 4 4 3 3 3 4 4 4 5 5 5 7 7 7 7 7 7 8 6 7 7 7 7 7 5 8 5 5 5 6 6 6 9 8 6 8 8 8 5 5 5 4 4 4 5 5 5 4 4 4 4 4 4 4 4 4 5 5 5 6 6 6 8 8 8 8 8 8 7 5 6 6 6 6 11 11 11 12 10 11 7 9 8 6 6 6 7 7 7 8 8 8 7 7 7 7 7 7 8 8 8 9 9 9 9 9 9 10 10 10 10 10 10 8 8 8 8 8 8 7 7 7 5 5 5 3 3 3 4 4 4 4 4 4 4 4 4 7 7 7 8 8 8 7 7 7 7 7 7 7 7 7 6 6 6 6 6 6 4 4 4 4 4 4 3 3 3 5 3 4 6 6 6 8 8 8 8 6 7 6 6 6 7 7 7 6 6 6 5 5 5 5 5 5 7 7 7 9 9 9 7 7 7 7 7 7 7 5 6 5 5 5 5 5 5 6 4 5 6 4 5 5 5 5 6 6 6 7 7 7 6 6 6 6 6 6 7 7 7 7 7 7 6 6 6 6 6 6 5 5 5 5 5 5 5 5 5 5 5 5 4 4 4 5 5 5 6 6 6 8 8 8 8 8 8 6 6 6 6 6 6 5 5 5 5 5 5 6 6 6 7 7 7 6 6 6 8 8 8 
4 4 4 3 3 3 5 5 5 6 6 6 7 7 7 7 7 7 8 6 7 7 7 7 7 7 7 5 5 5 5 5 5 8 6 7 8 8 8 7 7 7 4 4 4 3 3 3 3 3 3 4 4 4 4 4 4 5 5 5 5 7 6 7 5 6 6 6 6 4 6 5 6 6 6 9 9 9 11 11 9 8 8 8 6 6 6 8 8 8 9 9 9 7 7 7 7 7 7 8 8 8 10 10 10 10 10 10 10 10 10 10 10 10 9 9 9 8 8 8 7 7 7 4 4 4 4 4 4 4 4 4 4 4 4 4 4 4 6 6 6 8 8 8 7 7 7 6 6 6 7 7 7 6 6 6 6 6 6 7 7 7 5 5 5 3 3 3 4 4 4 5 5 5 6 6 6 7 7 7 7 7 7 8 6 7 7 7 7 5 5 5 4 4 4 7 7 7 9 7 8 8 8 8 7 7 7 5 5 5 7 5 6 6 4 5 5 5 5 5 5 5 6 4 5 5 5 5 8 8 8 6 6 6 5 5 5 6 6 6 7 7 7 6 6 6 6 6 6 6 6 6 6 6 6 6 6 6 6 4 5 5 3 4 6 6 6 6 6 6 8 8 8 7 7 7 6 6 6 6 6 6 4 4 4 5 5 5 5 5 5 8 8 8 6 6 6 10 10 10 
4 4 4 5 5 5 6 6 6 8 8 8 6 6 6 6 6 4 7 7 7 7 5 6 6 6 6 6 4 5 5 5 5 7 7 7 10 10 10 9 9 9 6 6 6 3 3 3 4 4 4 4 4 4 5 5 5 4 4 4 5 5 5 6 4 5 3 4 6 8 6 7 7 7 5 32 27 23 7 7 7 7 7 7 8 8 8 9 9 9 8 8 8 7 7 7 7 7 7 9 9 9 9 9 9 9 9 9 10 10 10 10 10 10 10 8 9 7 7 7 6 6 6 4 4 4 5 3 4 5 5 5 4 4 4 5 5 5 5 5 5 7 7 7 5 5 5 6 6 6 7 7 7 5 5 5 9 9 9 15 15 15 11 11 11 7 7 7 5 5 5 4 4 4 6 6 6 6 6 6 7 7 7 8 8 8 7 5 6 6 4 5 5 3 4 6 4 5 8 8 8 8 8 8 5 5 5 5 5 5 5 5 5 6 6 6 6 4 5 5 5 5 5 5 5 6 4 5 8 8 8 5 5 5 5 5 5 4 4 4 6 6 6 7 7 7 6 6 6 6 6 6 6 6 6 6 6 6 5 3 4 4 4 4 6 4 5 7 7 7 9 9 9 8 8 8 6 6 6 5 5 5 5 5 5 4 4 4 7 7 7 8 8 8 9 9 9 10 10 10 
5 5 5 6 6 6 6 6 6 6 6 6 5 5 3 6 4 5 4 4 4 23 20 15 13 12 10 22 19 14 14 13 11 7 7 7 11 11 11 9 9 9 6 6 6 4 4 4 4 4 4 4 4 4 5 5 5 5 5 5 5 3 4 4 4 2 5 5 5 8 7 5 32 27 23 53 45 34 6 6 6 8 7 5 10 10 10 10 10 10 8 8 8 7 7 7 6 6 6 7 7 7 7 7 7 8 8 8 11 9 10 11 11 11 10 10 10 8 8 8 6 4 5 4 4 4 5 5 5 6 4 5 5 5 5 6 6 6 5 5 5 5 5 5 4 4 4 6 6 6 7 7 7 6 6 6 14 14 14 19 21 20 11 11 11 7 7 7 7 7 7 6 6 6 8 6 7 7 7 7 6 6 6 7 7 7 7 7 7 6 6 6 4 4 4 6 6 6 7 7 7 7 7 7 5 5 5 5 5 5 5 5 5 5 5 5 6 6 6 6 4 5 7 5 6 5 5 5 7 7 7 5 5 5 3 3 3 4 4 4 6 6 6 7 7 7 6 6 6 6 6 6 6 6 6 5 5 5 4 4 4 4 4 4 4 4 4 6 6 6 9 9 9 9 9 9 5 5 5 4 4 4 5 5 5 4 4 4 7 7 7 9 9 9 10 10 10 10 10 10 
8 8 8 9 9 9 7 7 7 5 5 5 5 5 5 6 6 6 5 3 4 29 24 20 15 14 10 24 21 14 16 15 11 5 5 5 9 9 9 10 8 9 7 5 6 5 5 5 5 5 5 7 5 6 7 5 6 6 6 6 4 4 6 4 4 4 4 4 4 7 7 5 37 32 26 35 30 24 5 7 2 8 8 8 11 11 11 11 11 11 9 9 9 7 7 7 6 6 6 6 6 6 6 6 6 7 7 7 10 10 10 11 11 11 10 10 10 7 7 7 6 6 6 4 4 4 5 5 5 5 5 5 5 5 5 5 5 5 5 5 5 4 4 4 5 5 5 7 7 7 7 7 7 9 9 9 17 17 17 18 18 18 7 7 7 6 6 6 8 8 8 9 9 9 7 7 7 7 7 7 7 7 7 7 7 7 6 6 6 6 6 6 4 4 4 4 4 4 6 6 6 6 6 6 6 6 6 5 5 5 4 4 4 5 5 5 7 7 7 7 7 7 6 6 6 6 6 6 6 6 6 4 4 4 4 4 4 6 6 6 7 7 7 7 7 7 5 5 5 6 6 6 5 5 5 4 4 4 5 5 5 4 4 4 4 2 3 4 4 4 9 9 9 8 8 8 4 4 4 5 5 5 5 5 5 5 5 5 6 6 6 9 9 9 10 10 10 10 10 10 
8 8 8 8 8 8 8 8 8 6 6 6 7 7 7 7 7 7 6 6 6 3 3 3 3 3 3 3 3 3 4 4 4 6 6 6 8 8 8 8 8 8 5 5 5 6 6 6 7 7 7 9 9 9 8 8 8 6 6 6 4 4 4 4 4 4 5 5 5 7 7 7 6 6 6 5 5 5 6 6 6 8 8 8 12 10 11 9 11 8 7 9 8 7 7 7 6 6 6 5 5 5 5 5 5 8 8 8 10 10 10 12 10 11 9 9 9 8 6 7 7 7 7 5 5 5 5 5 5 5 5 5 5 5 5 5 5 5 6 6 6 4 6 5 5 5 5 7 9 8 7 7 7 8 10 9 14 14 14 11 11 11 6 6 6 5 5 5 7 7 7 8 8 8 8 8 8 7 7 7 9 9 9 7 7 7 5 5 5 4 4 4 3 3 3 4 2 3 4 4 4 4 4 4 8 6 7 6 6 6 5 5 5 6 6 6 8 8 8 9 7 8 9 9 9 7 5 6 5 3 4 4 4 4 4 6 5 7 5 6 6 6 6 7 5 8 5 5 5 6 6 6 5 5 5 4 4 4 5 3 4 3 5 4 4 2 3 5 5 5 8 8 8 10 8 9 5 5 5 6 6 6 7 7 7 5 5 5 5 5 5 7 7 7 7 7 7 10 10 10 
8 8 8 10 8 9 7 7 7 6 6 6 7 7 7 8 8 8 6 6 6 4 4 4 4 4 4 3 3 3 4 4 4 6 6 6 9 9 9 8 8 8 6 6 6 5 5 5 6 6 6 8 8 8 8 8 8 6 6 6 5 5 5 4 4 4 7 7 7 7 7 7 6 6 6 5 5 5 8 8 8 8 8 8 9 9 7 8 7 5 7 7 7 6 6 6 6 6 6 5 5 7 6 6 6 9 7 8 11 11 11 12 10 11 8 8 8 7 7 7 7 7 7 7 7 7 6 6 6 7 5 6 5 5 5 5 5 5 6 6 6 7 5 6 7 5 8 7 7 7 7 7 7 9 7 8 9 9 9 8 8 8 6 6 6 7 7 7 7 7 7 7 7 7 7 7 7 8 8 8 8 8 8 7 7 7 4 4 4 4 2 3 3 3 3 2 2 2 2 4 3 3 3 3 6 6 6 8 8 8 7 7 7 7 7 7 9 9 9 9 9 9 8 8 8 7 5 6 5 3 4 4 4 4 7 7 5 6 6 4 5 3 4 4 6 5 7 7 7 6 6 4 5 5 5 5 5 5 6 4 5 5 5 5 6 4 5 5 5 5 8 8 8 8 8 8 7 7 7 7 7 7 7 7 7 6 6 6 5 5 5 4 4 4 8 8 8 11 11 11 
7 7 7 9 7 8 7 7 7 7 7 7 8 8 8 9 9 9 7 7 7 5 5 5 4 4 4 3 3 3 4 4 4 7 7 7 10 10 10 9 9 9 7 7 7 5 5 5 5 5 5 6 6 6 8 8 8 8 8 8 6 6 6 5 5 5 7 7 7 6 6 6 6 6 6 6 6 6 7 7 7 6 6 6 6 6 6 6 6 4 6 6 6 4 6 5 7 7 7 7 5 6 7 7 5 8 8 8 11 9 10 9 11 10 8 6 7 7 7 7 9 9 9 8 8 8 7 7 7 6 6 6 7 7 7 7 7 7 6 6 6 8 8 6 8 8 10 7 7 5 8 6 7 8 8 8 8 8 8 7 7 7 6 6 6 7 7 7 7 7 7 7 7 7 7 7 7 6 6 6 6 6 6 5 5 5 4 4 4 3 5 4 3 3 3 5 3 4 4 4 4 5 5 5 7 7 7 8 8 8 7 7 7 8 8 8 9 9 9 8 8 8 8 6 7 5 5 5 5 5 5 8 8 8 7 5 6 7 3 4 4 4 4 8 6 7 8 8 8 7 7 7 5 5 5 5 5 5 5 5 5 6 6 6 5 5 5 6 6 6 10 8 9 9 7 8 7 7 7 7 7 7 7 7 7 7 7 7 6 6 6 3 3 3 6 6 6 10 10 10 
5 5 5 7 7 7 9 7 8 8 8 8 8 8 8 8 8 8 8 8 10 6 6 8 5 5 5 4 4 4 6 6 6 9 9 7 10 10 10 8 8 8 6 6 6 5 5 5 6 6 6 6 6 6 8 8 8 8 8 8 7 7 7 7 7 7 7 7 7 6 6 6 6 6 6 7 7 7 7 7 7 7 7 7 7 7 7 6 6 6 6 6 6 7 7 7 7 7 5 8 6 9 8 6 7 9 9 11 9 9 9 8 8 8 9 7 8 7 9 8 11 9 10 8 8 8 7 7 7 7 7 7 7 7 9 7 7 7 6 6 6 7 7 5 7 9 8 9 8 6 9 8 6 9 7 8 7 7 7 7 7 7 6 6 6 5 5 5 7 7 7 7 7 7 7 7 7 6 6 6 6 6 6 6 4 5 5 5 5 6 4 5 5 5 5 5 5 5 5 5 5 5 5 5 7 7 7 9 9 9 9 9 9 7 9 8 9 9 9 8 8 8 7 5 6 3 5 4 6 6 6 7 7 7 6 6 6 4 4 4 3 3 3 9 8 6 9 9 9 7 7 7 5 5 3 5 5 5 7 5 8 7 5 8 6 6 6 7 7 5 11 11 9 10 8 9 8 8 8 8 8 8 7 7 7 7 7 7 6 6 6 3 3 3 5 5 5 9 9 9 
2 2 2 6 6 6 10 10 10 10 10 10 7 7 9 7 7 7 9 9 9 7 7 7 6 6 4 6 6 4 7 7 7 8 8 8 8 8 8 8 8 8 7 7 7 6 6 6 7 7 7 8 8 8 8 8 8 8 8 8 9 9 9 8 8 8 7 7 7 8 8 8 8 8 8 7 7 7 7 7 7 8 8 8 9 7 8 8 6 7 5 5 5 7 7 7 8 8 8 10 10 10 11 9 10 11 9 10 9 9 9 8 8 8 8 8 8 9 7 8 10 10 10 8 8 8 8 6 7 8 8 8 10 9 7 7 7 7 6 6 6 6 6 6 9 7 10 10 10 10 10 10 10 8 8 8 5 5 5 7 7 7 5 5 5 5 5 5 6 6 6 8 8 8 7 7 7 7 7 7 6 6 6 7 7 7 5 5 5 6 6 6 7 7 7 6 4 5 5 5 5 5 5 5 8 8 8 9 9 9 9 9 9 9 7 8 8 8 8 6 8 7 5 5 5 3 3 3 7 7 7 6 8 7 5 7 6 6 5 3 7 7 7 17 16 14 11 11 11 8 8 8 7 7 7 6 6 6 6 4 5 7 7 7 8 8 8 10 10 10 11 9 10 10 10 10 8 8 8 8 8 8 8 8 8 7 7 7 5 5 5 5 5 5 8 8 8 9 9 9 
2 2 2 5 5 5 13 13 13 11 11 11 7 7 7 7 7 7 9 9 9 8 8 8 7 7 7 7 7 7 6 6 6 5 5 5 5 5 5 7 5 6 6 6 6 6 6 6 7 7 7 8 8 8 8 8 8 10 10 10 10 10 10 8 8 8 8 8 8 8 8 8 8 8 8 6 6 6 7 7 7 6 6 6 11 6 10 7 7 7 6 6 4 7 7 7 9 9 9 10 10 10 11 11 11 10 10 10 9 9 9 8 6 7 7 7 7 8 8 8 8 8 8 7 7 7 8 8 8 9 7 8 10 8 9 9 9 9 7 6 4 6 6 6 6 6 6 10 10 10 15 14 12 7 7 7 6 6 6 7 7 7 6 6 6 5 5 5 6 6 6 7 7 7 7 7 7 7 7 7 7 7 7 8 6 7 6 6 6 7 7 7 8 8 8 6 6 6 5 5 5 5 5 5 7 7 7 9 9 9 8 8 8 7 5 6 8 8 8 7 7 7 5 5 5 5 5 5 6 6 6 8 8 8 8 8 10 7 9 8 8 8 10 40 33 27 26 22 19 13 12 10 10 10 8 6 6 6 6 6 6 7 7 7 8 8 8 9 9 9 14 10 11 9 9 11 9 9 9 6 6 6 7 7 7 6 6 6 4 4 4 6 6 6 11 11 11 9 9 9 
3 3 3 8 8 8 11 11 11 10 10 10 9 9 9 8 8 8 9 9 9 7 7 7 6 6 6 7 7 7 5 5 5 5 5 5 6 6 6 7 5 6 5 5 5 6 6 6 9 7 8 8 8 8 8 8 8 9 7 8 8 8 8 8 8 8 9 9 9 7 7 7 6 6 6 5 5 5 8 8 8 8 8 8 8 8 8 7 7 5 6 6 4 9 7 8 16 14 15 15 15 13 14 12 15 9 9 9 7 7 7 7 7 7 6 6 6 7 7 7 7 7 7 7 7 7 8 6 7 8 6 7 9 7 8 10 10 12 7 7 7 6 6 4 7 7 7 8 6 9 57 47 37 6 6 6 6 6 6 6 6 6 6 6 6 5 5 5 5 5 5 6 6 6 7 7 7 8 8 8 8 8 8 6 6 6 6 6 6 8 6 7 8 8 8 7 7 7 6 6 6 6 6 6 7 7 7 8 6 7 8 8 8 7 7 7 7 7 7 6 4 5 4 4 4 4 6 5 6 6 6 8 8 8 9 9 9 8 8 6 8 8 6 10 6 7 38 33 27 49 45 36 22 21 19 5 5 5 4 6 5 7 5 6 9 7 10 8 8 8 9 9 7 9 9 9 8 8 8 4 4 4 5 5 5 5 5 5 4 4 4 7 7 7 10 10 10 9 9 9 
5 5 5 9 9 9 10 8 9 8 8 8 8 8 8 8 8 8 9 9 9 7 7 7 7 7 7 6 6 6 6 6 6 5 5 5 6 4 5 4 4 4 5 5 5 6 4 5 8 8 8 9 9 9 8 6 7 7 7 7 7 7 7 8 8 8 8 8 8 5 5 5 4 4 4 5 5 5 6 6 6 9 9 9 9 7 8 5 5 5 6 6 6 9 9 9 40 35 29 50 46 35 25 21 18 8 6 7 6 6 6 8 8 8 7 7 7 6 6 6 7 7 7 8 6 7 8 8 8 8 8 8 6 6 6 7 7 7 7 7 5 8 6 7 7 7 7 6 6 8 48 38 28 7 7 7 7 7 7 6 6 6 6 6 6 5 5 5 5 5 5 7 7 7 7 7 7 8 8 8 7 7 7 7 5 6 5 5 5 6 6 6 8 8 8 7 7 7 6 6 6 7 7 7 6 6 6 8 6 7 9 7 8 7 7 7 8 6 7 6 6 6 5 5 5 6 6 6 7 7 5 7 9 8 9 8 6 6 6 4 7 7 9 7 7 9 8 8 8 8 6 7 7 7 7 5 5 7 4 4 4 5 5 5 7 7 9 8 6 7 7 6 4 6 6 6 6 6 6 5 5 5 5 5 5 6 6 6 6 6 6 6 6 6 7 7 7 7 7 7 
5 5 5 9 9 9 8 8 8 7 7 7 6 6 6 9 7 8 9 9 9 8 8 8 8 6 7 6 8 7 8 6 7 6 6 6 6 6 6 4 4 4 5 5 5 5 5 5 7 7 7 9 9 9 7 7 7 6 6 6 7 7 7 8 8 8 7 7 7 5 5 5 6 4 5 6 4 5 7 7 7 9 9 9 8 8 8 6 6 6 6 6 6 9 9 9 11 11 11 11 11 11 9 9 9 8 8 8 7 5 6 7 5 6 7 7 7 5 5 5 6 6 6 7 7 7 8 8 8 9 9 9 5 5 5 4 4 4 7 7 7 7 7 7 7 7 7 7 7 7 7 7 7 8 8 8 6 6 6 6 6 6 6 6 6 5 5 5 6 6 6 7 7 7 7 7 9 7 7 5 6 6 6 4 4 4 4 4 4 6 6 6 6 6 6 6 6 6 6 6 6 6 6 6 6 6 6 7 7 7 7 7 7 8 8 8 7 7 7 6 6 6 6 6 6 7 7 7 6 6 6 7 7 7 7 7 7 7 7 7 8 8 8 7 7 7 6 6 6 7 7 7 6 6 6 5 5 5 7 3 4 6 4 5 6 6 4 6 6 6 5 5 5 6 4 5 6 6 6 6 6 6 6 6 6 7 7 7 6 6 6 5 5 5 5 5 5 7 5 6 
7 7 7 9 9 9 7 7 7 5 5 5 6 6 6 6 8 7 8 8 8 9 9 9 8 8 8 7 7 7 6 6 6 4 6 5 4 4 4 4 4 4 5 5 5 6 6 6 7 7 7 7 7 7 7 7 7 6 6 6 7 7 7 7 7 7 6 6 6 4 4 4 5 5 5 6 6 6 8 8 8 10 10 10 8 10 9 7 7 7 8 8 8 9 9 7 9 9 7 10 9 7 10 8 9 6 8 7 6 6 6 7 7 7 6 6 6 6 6 6 6 6 6 7 7 7 8 8 8 9 7 8 6 6 6 5 5 5 6 6 6 7 7 7 7 7 7 5 5 5 5 5 5 6 6 6 8 8 8 6 6 6 5 5 5 5 5 5 5 5 5 7 7 7 7 7 7 8 6 7 8 8 8 6 6 6 5 5 5 5 5 5 6 6 6 6 6 6 6 6 6 6 6 6 7 7 7 7 7 7 7 7 7 8 8 8 7 7 7 7 7 7 7 7 7 7 7 7 6 6 6 6 6 6 6 8 7 8 8 8 8 8 8 9 9 9 8 8 8 8 8 8 6 6 6 5 5 3 4 4 4 4 4 4 5 5 3 5 5 5 5 5 7 6 6 6 7 7 7 8 8 8 6 6 6 6 6 6 6 6 6 7 7 7 4 4 4 7 7 7 
