P3
100 50
255
9 9 9 7 7 7 6 6 6 4 2 3 8 8 8 14 14 12 12 12 14 7 7 5 50 9 7 75 10 8 74 8 9 78 8 10 74 31 24 74 56 44 76 42 33 78 10 9 78 10 11 76 8 9 78 10 11 79 11 12 78 10 11 77 7 7 75 5 5 78 8 8 80 8 9 76 10 11 78 10 9 75 10 8 75 55 44 74 61 45 75 57 43 73 18 15 77 7 7 78 8 8 78 8 8 79 44 38 74 66 53 75 65 55 75 67 54 77 47 37 78 10 11 78 10 9 78 8 8 76 8 7 74 21 17 77 57 48 80 14 15 79 13 14 77 13 14 78 8 8 75 3 4 73 1 4 76 4 5 76 6 6 73 5 4 75 7 6 75 9 10 75 9 10 76 6 6 76 8 9 75 45 37 75 68 52 77 68 53 78 41 33 78 12 13 77 9 8 76 23 17 75 58 42 75 58 40 73 65 46 75 62 46 80 56 46 74 10 10 76 8 9 75 7 8 76 8 9 78 67 49 75 14 13 77 7 7 79 9 9 78 8 10 78 10 11 79 11 10 78 12 13 76 10 11 74 8 9 75 7 8 76 6 6 76 6 6 76 6 6 76 8 9 76 6 6 78 18 17 74 67 51 74 55 41 74 6 5 74 6 7 76 6 6 76 8 9 76 69 53 
10 10 8 9 9 9 6 6 6 6 6 6 10 10 10 11 11 9 8 8 8 7 7 9 49 8 6 76 8 9 75 7 6 74 6 5 72 7 5 75 7 8 78 10 9 75 11 11 76 8 9 78 8 8 80 10 10 77 13 13 76 12 13 76 6 4 76 4 5 76 6 6 76 10 11 76 15 14 78 14 14 78 12 13 76 54 40 73 64 47 73 62 44 79 62 52 80 20 19 79 9 9 79 7 8 77 44 35 73 64 49 70 60 50 76 64 48 76 44 31 72 8 9 76 6 6 77 7 5 76 6 8 75 5 7 78 10 11 79 14 12 79 15 15 77 11 12 78 8 10 77 3 4 70 2 3 74 4 6 74 6 5 74 6 7 74 6 7 74 8 9 75 7 8 76 6 6 75 45 34 77 70 54 78 71 55 77 70 54 78 39 32 77 13 11 76 12 10 74 9 7 73 20 14 74 58 45 75 59 44 74 52 39 74 10 11 77 9 10 76 8 9 75 5 5 76 7 10 77 9 8 76 8 7 79 7 8 78 8 6 77 7 7 76 8 7 77 7 9 74 8 9 74 8 9 77 43 34 76 36 28 77 5 6 75 5 7 77 7 9 77 9 10 77 30 24 75 63 49 75 69 53 77 71 55 75 61 48 75 5 7 74 4 4 76 8 9 77 70 54 
10 10 10 9 9 9 6 6 6 8 8 8 12 10 11 8 8 10 7 7 7 55 7 5 73 7 8 75 7 8 74 6 5 75 5 5 75 5 5 76 8 7 75 9 10 76 11 9 76 8 9 77 7 7 78 8 10 78 12 13 79 19 18 77 59 47 76 58 46 76 54 43 75 9 10 78 10 11 76 12 12 75 10 8 75 53 40 73 66 48 74 65 50 77 65 51 76 21 18 78 8 6 79 9 9 78 12 13 75 36 29 73 36 28 76 15 14 76 11 9 74 6 5 77 7 7 77 7 7 76 6 6 75 3 6 77 7 9 78 13 11 80 14 15 77 13 13 77 9 8 74 4 4 69 4 2 75 47 35 75 59 44 72 54 42 75 55 44 75 17 15 73 8 6 76 6 6 76 46 36 76 70 54 77 71 57 75 68 52 76 37 30 77 9 10 77 9 8 75 7 8 75 7 6 73 24 17 75 45 34 73 13 13 71 9 10 74 8 10 74 10 10 76 8 9 74 8 9 75 10 8 76 8 9 77 7 9 77 9 8 75 7 6 77 7 7 76 6 8 76 8 9 73 39 30 76 60 47 76 64 50 73 32 26 75 5 5 77 7 9 77 11 12 74 31 24 76 64 48 78 66 54 76 68 55 76 59 49 76 6 6 75 5 5 75 7 8 76 15 12 
11 11 9 7 7 7 8 8 8 9 9 11 11 10 8 9 7 8 56 6 7 72 7 5 79 7 8 78 10 11 75 7 8 74 6 5 77 5 6 76 8 5 56 10 10 16 10 10 19 9 10 34 8 7 77 9 8 77 26 22 78 62 47 78 70 57 76 64 52 73 59 48 76 8 7 74 9 7 71 10 9 74 8 9 76 57 42 75 63 49 76 64 50 75 66 51 77 22 19 76 6 8 78 8 8 77 9 10 77 13 13 75 9 10 75 10 8 77 9 8 77 5 6 77 5 6 78 8 8 76 6 8 76 5 3 78 8 8 78 12 13 78 14 15 77 13 13 75 11 9 74 6 5 72 2 2 73 55 41 75 68 49 73 64 47 78 62 47 75 19 18 73 8 6 77 9 8 76 43 36 75 68 52 77 69 56 75 65 53 75 34 28 74 6 5 75 7 8 77 5 6 74 6 5 74 6 7 73 13 12 75 7 6 76 10 11 75 9 10 72 8 8 74 8 9 75 9 10 75 9 10 77 9 8 76 8 9 76 8 9 76 8 7 76 6 8 77 5 6 75 5 7 72 42 32 73 63 51 73 65 52 75 36 29 76 5 3 78 8 10 79 11 10 74 13 10 74 27 21 76 64 50 76 49 38 75 14 13 73 5 4 74 4 4 76 6 6 77 9 10 
9 9 7 7 7 7 9 9 9 10 9 7 10 8 9 8 8 8 59 8 7 78 6 7 78 6 7 75 9 11 68 8 8 70 6 6 75 5 5 78 30 26 53 40 32 10 10 10 10 10 10 8 8 10 34 8 11 79 28 27 78 70 57 76 68 57 75 61 50 75 59 46 76 8 7 76 8 7 75 9 10 78 8 8 78 13 11 75 14 11 75 14 13 77 13 13 29 9 8 15 5 4 52 6 6 78 10 9 76 11 9 75 9 10 77 9 10 76 11 9 77 9 8 77 7 9 76 8 9 75 7 8 77 21 20 78 61 51 79 62 52 79 52 45 76 12 12 76 8 7 15 4 8 12 3 4 66 57 42 75 68 50 73 64 47 74 61 45 76 22 20 74 8 9 76 8 9 78 10 9 75 16 12 76 14 15 75 15 14 76 10 11 75 7 6 74 6 5 75 5 7 75 7 6 74 6 5 74 6 7 75 5 5 77 9 8 74 10 10 76 8 5 76 8 9 70 10 9 75 9 10 79 52 41 75 56 49 77 59 49 77 19 18 76 8 7 75 5 5 35 5 3 54 44 34 76 68 55 77 67 55 75 63 51 77 33 30 76 10 11 79 11 12 78 8 8 76 6 8 74 13 12 74 13 10 76 6 8 75 3 6 76 4 5 78 10 9 21 11 12 
11 11 11 9 9 9 9 9 9 12 8 9 7 9 8 8 8 8 21 7 6 65 45 38 77 29 27 72 10 11 68 10 8 68 9 5 74 6 5 75 35 27 52 44 33 9 9 9 9 9 9 8 10 9 28 10 10 77 16 13 78 29 24 73 67 53 74 60 47 73 59 46 74 8 9 77 9 8 77 9 10 76 8 9 76 6 6 76 8 7 75 7 8 77 7 7 63 5 4 29 5 5 21 7 7 54 10 7 77 12 10 79 11 12 78 10 11 80 10 10 77 9 8 78 8 8 76 8 7 72 8 8 77 23 21 79 69 59 78 68 56 78 60 50 78 10 11 77 7 7 10 10 10 7 7 7 65 57 44 76 67 50 77 65 49 74 63 45 74 21 17 76 8 9 77 8 11 76 6 6 76 6 6 76 8 5 75 9 10 75 10 8 72 7 5 73 5 6 75 7 6 75 7 6 75 7 6 74 16 12 76 49 38 77 49 38 77 45 34 77 9 10 71 7 7 69 7 8 77 50 39 77 65 51 78 64 55 77 65 53 76 54 43 77 19 17 77 7 7 31 5 4 51 47 36 75 69 53 75 69 55 74 44 33 74 14 13 75 9 10 76 10 12 77 9 10 75 7 6 75 7 6 75 5 3 76 4 5 75 5 5 76 8 7 79 11 10 11 11 11 
13 13 15 11 11 11 9 9 9 11 9 10 9 9 9 9 9 7 7 7 7 59 57 45 75 57 47 73 28 23 73 9 9 74 8 9 76 8 7 75 36 29 68 56 42 43 36 28 9 9 7 19 9 8 63 9 7 77 9 8 77 13 13 76 23 19 75 22 18 76 21 18 71 10 9 78 10 11 79 11 12 76 10 11 78 10 11 78 8 8 75 7 8 77 7 9 78 6 7 62 6 7 57 7 6 73 9 9 76 12 12 77 32 27 79 55 45 80 56 46 81 40 34 77 9 10 75 7 6 73 7 8 75 26 22 79 65 52 77 65 51 78 66 50 79 60 46 76 4 5 59 9 10 60 10 9 75 24 20 75 22 16 76 23 19 73 22 18 73 13 12 75 9 10 75 10 8 77 9 10 76 8 9 75 9 10 74 10 10 78 10 11 76 8 9 72 6 7 74 9 7 75 9 10 75 20 17 75 53 40 76 62 49 74 63 43 76 54 40 75 9 10 72 8 8 74 8 9 76 64 48 79 63 50 77 65 51 76 63 47 74 66 53 77 24 20 77 7 7 63 7 8 73 20 16 76 21 18 76 21 18 76 12 12 75 5 5 75 7 8 78 8 10 77 9 10 75 7 8 74 8 9 75 7 6 74 4 4 76 8 7 73 9 9 77 13 13 60 12 12 
14 16 11 12 12 12 11 9 10 9 9 9 9 9 9 9 7 8 7 7 7 59 56 47 77 70 54 77 32 26 75 9 10 76 7 10 77 9 8 76 16 15 75 35 27 68 41 32 58 6 8 63 9 9 74 8 9 74 8 10 77 7 7 72 6 7 73 8 6 77 7 7 70 10 9 75 11 11 78 10 11 79 11 12 79 11 12 77 9 10 76 39 31 75 48 37 77 51 36 77 26 22 75 7 8 74 10 8 74 13 12 77 40 32 77 69 56 78 72 60 77 48 40 75 10 8 73 8 4 75 7 8 78 14 14 75 27 23 75 63 49 75 63 49 76 26 19 79 5 6 74 9 7 76 10 11 76 10 11 78 7 13 75 9 10 74 8 9 75 11 9 75 9 10 78 10 11 77 9 10 76 10 11 76 29 23 76 48 36 76 48 37 75 34 28 73 9 7 72 8 8 75 11 11 76 25 22 75 66 49 76 64 50 73 60 44 74 52 38 75 9 10 72 8 8 75 7 6 75 22 18 75 53 42 76 60 44 74 61 45 74 39 33 77 16 15 78 8 8 77 9 8 76 8 9 76 6 6 75 5 5 77 6 4 76 6 4 75 7 8 76 10 11 75 9 10 73 9 7 73 20 16 73 46 37 74 47 36 76 48 37 78 10 11 76 12 13 76 10 11 
13 13 13 14 12 13 12 12 12 8 8 8 10 8 9 8 8 8 6 6 4 25 24 20 35 32 27 36 16 17 60 10 9 75 9 10 74 9 7 75 9 10 75 16 10 77 22 19 78 8 8 75 9 10 75 9 10 73 9 7 75 9 10 73 7 8 76 6 6 77 7 7 74 8 9 75 9 11 77 12 10 77 13 11 78 10 11 75 40 34 77 58 44 76 64 48 75 63 47 75 27 23 75 7 8 77 9 10 76 12 12 77 38 31 77 67 55 78 70 57 78 48 40 77 7 9 75 7 6 73 8 6 75 10 8 77 13 13 74 31 24 76 27 20 77 7 7 76 6 6 75 9 10 76 10 11 76 12 12 76 10 11 76 10 12 75 10 8 76 8 9 77 9 8 75 10 8 76 10 12 76 12 12 77 37 29 75 59 43 77 60 44 76 53 39 75 27 23 72 6 7 74 8 9 76 27 23 77 70 54 76 67 52 75 58 48 75 56 42 77 7 7 75 5 5 75 7 6 76 8 7 75 24 20 77 27 20 74 29 24 74 20 18 75 10 8 76 4 5 77 9 8 76 8 9 76 6 6 80 6 7 77 7 9 75 7 6 76 8 9 77 11 12 75 9 10 74 19 16 77 47 37 75 62 46 73 64 47 75 61 48 74 42 31 78 9 12 76 6 8 
12 14 13 13 13 13 12 11 9 8 8 8 8 8 6 9 9 9 9 9 9 9 9 9 10 10 10 11 11 11 25 11 10 53 9 10 75 9 10 74 8 9 75 9 10 76 8 9 76 8 9 76 8 9 77 9 10 75 10 8 79 11 12 78 10 11 75 11 9 74 44 36 74 44 34 76 11 9 79 11 10 79 11 10 77 9 10 75 59 46 76 62 49 74 65 48 74 62 46 75 28 22 77 7 9 76 8 9 77 9 10 76 20 21 74 49 42 77 53 43 76 23 19 77 5 6 77 5 6 77 7 7 78 10 9 78 10 11 75 11 11 77 7 7 75 7 6 76 8 7 76 10 11 79 9 9 76 10 11 75 11 12 76 10 12 74 35 28 77 43 34 74 16 12 77 9 8 74 10 10 75 11 11 75 36 29 77 62 43 76 60 45 75 59 44 76 53 39 74 44 34 75 34 28 76 15 12 79 32 26 77 29 25 75 27 25 75 24 21 78 6 7 75 5 5 74 6 7 73 7 8 76 10 11 77 7 7 73 7 8 73 7 8 74 8 9 75 7 6 74 6 5 75 5 7 75 28 20 75 45 34 78 48 40 77 44 35 77 28 23 77 9 10 76 10 11 77 24 20 66 53 44 47 40 32 74 65 48 73 61 47 74 56 42 74 8 9 75 7 6 
11 11 11 13 13 13 10 10 8 7 7 7 7 7 7 9 9 9 9 9 7 9 11 10 10 10 12 10 10 12 11 11 13 44 10 9 77 9 10 75 11 11 74 10 10 75 9 10 74 8 9 77 9 10 77 9 8 75 9 10 77 11 13 79 11 10 78 17 16 73 65 54 73 64 49 78 49 41 80 8 9 77 9 8 78 8 8 75 24 20 72 53 39 74 62 46 75 63 47 76 29 23 76 8 7 74 8 9 74 9 7 78 10 11 79 20 22 78 25 21 77 7 7 75 5 7 77 7 9 77 9 10 78 10 11 76 10 11 77 9 10 76 6 8 75 7 8 78 8 10 76 8 9 78 8 8 77 9 8 78 9 12 77 40 31 76 54 41 76 60 47 75 47 36 74 21 17 72 8 9 74 10 10 76 37 30 76 64 48 73 61 45 73 57 44 75 45 37 76 29 23 77 27 20 77 7 9 75 7 8 73 7 8 72 7 5 73 7 9 77 7 7 78 6 9 72 6 7 72 8 8 76 10 11 73 8 6 75 38 30 72 39 30 74 14 13 76 8 7 76 6 6 75 5 5 73 43 32 75 70 51 78 72 56 75 66 49 61 42 36 34 10 10 35 11 9 34 13 12 29 26 21 11 11 11 37 33 24 74 56 44 75 26 22 77 9 8 75 7 8 
12 10 11 11 11 11 9 9 9 6 6 6 8 8 8 9 9 11 11 9 12 10 8 9 9 9 9 10 10 10 11 11 9 45 9 9 75 11 11 76 11 9 77 19 18 74 35 28 74 36 27 77 30 24 75 10 8 75 9 10 77 11 13 80 12 9 79 17 18 74 64 54 73 61 49 78 70 57 78 37 31 77 38 31 78 13 11 75 5 5 72 45 36 74 61 45 76 42 33 76 18 14 75 10 8 74 9 7 75 7 8 76 8 9 76 10 11 76 10 11 76 8 7 62 6 5 49 8 6 76 8 9 77 8 11 79 11 12 76 10 11 75 32 26 75 35 27 77 36 30 77 7 9 76 8 5 76 8 7 75 9 10 77 55 44 78 62 49 76 60 47 73 39 30 73 18 15 72 8 9 74 8 9 77 24 20 75 38 29 73 35 26 75 32 25 74 23 20 76 6 4 77 7 7 77 7 7 75 10 8 73 9 9 73 9 9 74 8 9 75 7 6 76 6 6 70 6 4 71 7 7 75 7 8 74 29 24 74 60 47 72 63 48 75 42 33 75 14 13 75 7 6 74 4 4 73 41 28 74 66 47 76 67 50 59 51 40 29 24 20 9 9 9 9 11 10 9 9 11 9 9 7 6 7 9 10 10 10 45 31 22 77 9 10 77 7 7 74 8 9 
11 9 10 10 8 9 7 5 6 4 4 4 8 7 5 10 10 10 11 9 10 9 9 9 9 7 8 8 8 8 10 10 10 27 11 12 61 11 12 76 10 11 77 29 25 76 62 49 76 63 47 78 56 43 75 30 24 75 9 10 75 9 10 79 11 10 80 19 18 74 64 54 40 33 25 43 39 30 41 38 31 72 37 33 77 12 10 76 4 7 75 24 20 72 31 25 77 13 11 77 7 9 76 8 9 76 8 7 75 9 10 74 10 10 76 10 11 77 9 8 65 9 8 29 8 7 15 7 5 49 7 8 76 10 11 77 9 10 75 14 13 75 62 46 77 64 48 77 65 49 74 33 27 76 6 6 76 6 8 76 8 7 77 57 48 76 66 54 74 61 45 74 23 19 53 9 8 59 8 7 75 7 8 75 9 10 78 10 9 74 8 9 77 7 7 76 8 7 77 9 10 78 8 10 74 8 9 72 11 8 74 10 10 75 11 12 74 8 9 75 7 6 76 6 8 40 6 5 39 7 8 68 7 6 74 54 45 76 64 50 75 66 51 73 63 51 75 42 33 75 17 13 74 4 4 74 21 17 74 46 34 57 47 37 27 24 19 10 8 11 9 9 9 8 8 8 8 8 8 8 8 8 7 7 7 7 7 7 17 9 7 75 7 8 75 7 6 74 8 9 
8 8 8 6 8 7 5 5 5 5 3 4 9 7 8 9 9 9 10 10 10 10 8 9 8 7 5 6 6 8 8 6 7 10 10 10 45 11 10 76 10 11 77 28 23 77 64 48 76 64 50 76 62 49 77 50 39 78 10 11 77 9 10 77 11 12 79 13 14 76 35 29 40 6 5 7 7 7 7 7 5 68 8 8 77 7 7 76 4 7 75 4 2 74 6 5 74 6 5 75 7 8 76 8 9 76 10 11 72 10 11 75 9 11 76 10 11 77 19 18 51 27 23 9 9 7 15 6 7 49 7 8 78 10 11 77 12 10 75 41 32 75 66 49 75 69 53 75 66 49 76 33 27 75 5 7 75 7 6 76 6 6 76 33 27 78 60 48 75 45 34 76 18 14 54 10 9 60 8 10 76 8 7 74 8 9 74 9 7 74 9 7 75 7 8 75 7 6 75 10 8 75 9 10 76 10 11 76 11 9 77 16 15 77 37 29 76 33 27 76 35 29 72 31 25 6 6 6 8 8 8 66 6 5 76 54 41 76 63 47 76 67 52 76 64 50 75 63 47 72 27 21 75 5 7 74 4 4 74 19 16 40 19 16 8 8 8 9 9 9 9 7 8 9 9 9 8 8 10 9 7 8 7 9 8 8 6 9 11 7 8 43 8 6 75 7 8 77 9 8 
9 7 8 7 5 6 8 8 8 6 6 6 8 6 7 8 8 8 11 9 10 10 10 12 8 8 8 6 6 6 7 7 7 8 8 8 43 9 7 76 8 7 78 20 18 74 47 36 75 61 48 74 55 41 76 36 28 76 8 7 77 9 10 78 10 9 78 10 11 76 6 6 75 7 6 34 5 7 34 8 7 72 8 8 77 7 7 76 6 6 76 4 5 74 6 5 73 24 19 76 12 10 78 8 8 79 11 12 75 11 11 75 9 10 75 19 18 73 43 33 59 51 40 34 29 25 43 22 17 77 9 8 78 10 11 77 13 11 76 48 37 76 69 50 75 72 53 75 66 49 77 5 8 74 6 5 74 6 5 75 7 8 78 10 9 79 51 40 78 41 33 78 14 14 71 11 10 73 9 7 76 8 9 75 9 10 74 8 10 74 6 7 73 14 10 74 27 21 75 20 17 75 9 10 74 10 10 77 11 12 78 20 19 74 62 46 74 61 45 77 61 48 71 57 44 6 6 6 32 6 5 70 9 8 75 38 30 75 57 47 75 63 51 76 64 48 75 45 34 75 20 17 75 7 8 71 6 4 61 5 6 28 6 8 7 7 5 6 6 6 8 8 8 9 9 9 10 10 10 9 9 9 9 9 9 9 7 8 7 7 7 9 8 6 48 6 7 76 8 9 
8 8 8 6 6 6 8 6 7 7 7 7 7 5 6 7 9 8 8 8 6 10 8 9 10 8 9 8 8 8 8 6 7 7 7 5 42 8 7 77 9 8 73 8 6 75 20 17 76 43 34 74 35 28 77 7 7 73 8 6 78 8 10 77 9 8 78 6 7 76 8 9 75 7 8 76 6 6 76 6 6 78 8 8 77 7 7 76 8 7 76 8 9 76 25 22 76 54 41 77 43 34 76 29 23 76 16 15 75 9 11 77 7 9 74 37 28 72 63 48 75 63 49 76 64 48 76 49 38 77 7 7 77 9 10 75 9 10 75 14 13 75 45 35 77 47 36 77 45 34 76 8 7 74 6 5 74 4 6 75 7 8 74 8 9 77 32 27 77 59 47 77 23 21 76 10 12 74 8 9 76 8 7 74 8 9 75 7 6 74 16 14 72 39 30 73 60 44 75 46 32 73 22 18 73 12 11 76 12 13 75 19 18 75 62 46 72 59 43 77 64 48 75 56 41 36 7 9 77 7 9 74 9 7 74 8 10 72 38 29 74 56 44 75 61 48 77 22 17 74 8 9 75 7 8 76 9 3 40 6 5 6 6 6 6 6 6 6 6 8 7 7 5 8 8 8 11 11 11 11 11 11 10 8 11 9 9 7 8 6 7 7 7 5 5 7 6 51 9 10 
10 10 8 8 6 7 6 6 6 7 5 6 8 6 7 7 7 7 8 6 7 10 10 8 10 10 12 9 9 9 7 7 7 6 6 6 27 6 5 63 7 8 76 6 8 75 7 6 76 8 9 76 8 7 77 9 10 75 10 8 76 8 7 76 8 7 75 5 5 76 8 9 77 9 8 76 6 6 77 7 7 79 11 10 76 10 11 76 11 9 74 8 10 75 48 39 78 66 52 79 67 55 78 66 54 75 30 25 75 7 8 76 8 9 74 25 21 75 48 39 77 65 49 78 66 52 75 51 39 77 7 9 74 9 7 75 9 10 76 10 11 75 9 10 78 10 11 80 10 12 78 10 11 75 5 5 77 5 6 73 8 6 75 9 10 75 10 8 77 49 38 77 42 36 77 19 17 77 12 10 76 8 9 77 7 7 75 7 6 75 35 27 75 62 45 75 62 45 76 60 44 75 45 34 74 13 12 77 11 12 76 16 16 75 43 32 75 45 34 74 61 45 73 39 29 74 8 9 75 9 10 77 9 10 76 10 11 77 9 10 75 30 24 75 41 32 75 20 17 71 10 9 76 8 9 58 7 6 28 7 6 5 7 6 6 6 6 6 6 4 6 6 6 7 7 5 9 9 7 9 9 11 7 7 7 7 7 7 8 8 8 6 6 6 5 7 6 9 7 8 
8 8 6 7 7 7 6 4 5 7 7 9 7 7 7 10 8 9 11 10 8 10 10 10 10 10 10 10 10 10 8 6 7 7 5 6 9 7 8 41 7 6 76 8 9 76 6 8 74 9 7 74 8 9 75 10 8 75 9 10 77 9 10 78 8 10 76 6 8 77 9 8 77 22 19 76 16 15 77 22 19 78 24 22 76 15 14 75 9 10 77 9 8 75 48 37 78 66 54 77 70 54 77 69 56 75 30 27 73 7 8 73 7 8 73 9 9 75 28 22 79 52 41 77 53 43 76 42 32 75 7 6 75 7 8 76 8 9 75 9 10 75 10 8 75 9 10 79 11 12 77 11 12 77 7 7 77 7 7 74 10 10 75 9 10 76 18 16 75 53 40 77 68 51 77 38 31 76 17 13 74 8 9 74 8 9 74 9 7 75 37 28 76 64 48 77 64 47 74 57 39 74 36 27 76 12 12 76 14 15 75 13 14 78 14 14 76 15 14 74 46 34 72 11 8 75 11 9 76 8 9 77 9 8 78 10 9 77 9 10 76 8 7 73 9 9 74 8 9 76 8 9 77 9 10 33 9 9 8 8 10 7 5 6 7 5 6 5 5 5 4 4 6 6 6 6 8 8 8 9 9 9 8 8 6 7 7 7 7 7 7 7 7 7 5 7 6 8 6 7 
6 6 6 3 3 5 6 4 5 8 6 7 7 7 7 10 8 9 10 10 10 10 10 10 9 9 9 8 8 8 6 6 8 5 7 6 7 5 6 32 6 5 57 7 8 65 7 6 75 11 9 76 23 17 74 23 19 74 20 18 75 11 11 77 11 12 77 11 12 75 9 10 73 61 47 75 57 45 77 65 53 78 70 57 79 19 18 76 21 18 76 23 19 76 52 42 77 53 43 76 53 39 76 54 41 75 24 20 74 6 5 72 7 5 74 10 10 75 11 11 79 13 15 77 11 12 75 9 10 75 7 8 76 6 8 72 6 7 75 10 8 76 8 5 77 24 18 78 23 20 78 27 24 77 13 13 78 10 7 74 8 9 75 9 10 75 47 35 77 61 46 74 67 51 74 62 46 74 29 23 75 11 11 76 10 11 76 10 11 76 31 26 76 54 41 77 61 46 75 42 33 75 11 12 75 14 13 78 16 17 78 18 18 76 18 16 76 8 9 73 7 8 72 11 10 77 11 12 79 11 10 78 10 9 78 10 9 75 9 10 73 8 6 71 16 13 74 21 17 76 16 16 69 9 11 27 11 11 9 9 9 7 7 7 6 6 6 4 4 4 3 3 3 6 6 4 8 8 6 9 9 9 9 9 7 7 7 7 6 7 9 6 8 7 5 5 3 8 8 8 
6 6 8 4 4 4 6 6 4 7 7 7 8 8 8 9 8 6 9 9 9 9 7 8 6 6 6 5 5 5 5 5 5 7 7 7 7 7 7 7 7 7 9 7 8 28 7 6 60 25 19 64 54 42 77 65 49 77 55 44 78 25 19 77 12 10 77 11 12 78 8 10 76 46 38 75 59 46 77 65 51 78 71 55 78 18 18 76 47 39 75 63 47 75 53 40 76 18 16 68 8 8 67 9 8 76 8 7 76 8 9 77 9 10 75 9 10 76 10 11 77 11 12 78 10 11 76 10 11 75 10 8 76 8 7 76 6 8 77 7 7 76 15 12 76 64 48 77 65 51 77 65 53 76 28 24 77 13 13 75 10 8 74 10 10 75 39 27 76 59 43 76 63 47 74 61 44 74 29 23 75 11 9 76 10 11 76 10 11 75 13 14 77 29 25 75 48 37 75 32 26 74 13 12 75 14 13 77 16 15 78 18 18 78 17 16 75 11 9 73 9 9 76 10 11 76 11 9 77 11 12 79 13 14 76 12 12 73 12 11 76 16 15 73 49 37 64 52 38 58 23 19 26 12 11 11 11 11 10 8 9 7 7 5 4 4 4 4 4 4 4 4 4 5 5 5 7 7 7 11 10 8 11 9 10 9 9 11 8 8 6 7 7 7 7 7 7 8 6 7 
7 7 9 7 7 7 7 7 7 6 6 4 8 8 6 7 7 7 7 7 7 16 6 5 14 6 4 14 10 9 10 9 7 7 7 5 7 9 8 8 10 9 9 7 8 6 6 6 8 8 6 21 20 18 72 63 46 77 63 50 77 57 46 75 9 10 75 9 10 76 6 6 75 7 8 76 54 41 77 63 52 76 58 48 77 18 14 75 7 6 75 42 33 76 21 18 69 7 8 29 7 9 50 8 9 77 7 9 75 7 8 76 8 9 78 10 11 77 9 10 75 9 11 78 14 12 76 16 15 76 16 15 77 12 10 76 6 6 77 7 9 75 14 11 77 66 48 68 58 48 69 59 49 69 63 49 77 16 15 75 10 8 75 9 10 77 11 12 74 41 34 78 51 40 75 53 39 74 25 21 75 9 10 75 11 11 76 10 11 77 11 12 77 13 13 76 10 11 71 9 10 71 13 12 77 15 18 75 15 14 78 16 17 76 16 16 73 13 12 75 15 14 79 19 18 76 18 16 76 10 11 79 13 14 75 15 15 74 14 14 74 44 36 77 61 48 22 18 15 9 9 9 11 11 11 11 11 11 8 10 9 6 6 6 4 4 4 4 4 4 6 5 3 14 5 6 12 6 6 10 8 9 10 10 8 10 10 10 8 8 8 8 6 9 7 7 7 8 8 8 
10 10 10 10 10 10 6 6 6 6 4 5 10 8 11 10 8 9 14 6 4 57 6 5 76 11 9 76 46 35 32 27 21 7 7 7 9 7 8 10 10 8 11 9 10 9 7 8 7 9 8 11 9 10 28 24 21 77 61 46 78 51 40 75 10 8 76 8 7 73 5 4 76 8 7 79 9 11 76 56 45 76 16 16 79 9 11 72 7 5 74 6 5 74 8 9 23 7 8 9 7 8 53 13 11 76 15 14 75 11 11 77 7 9 77 9 8 78 10 9 77 13 11 77 32 26 75 66 49 76 64 48 76 49 38 77 7 9 76 8 9 74 15 11 75 57 43 17 13 14 15 14 10 7 5 8 69 9 9 75 10 8 76 10 11 72 11 10 77 9 10 76 11 9 75 9 10 77 11 12 75 9 10 75 9 10 75 11 11 77 13 13 76 12 12 76 14 15 53 14 15 26 12 11 77 15 16 78 17 16 77 16 15 76 12 13 74 15 17 75 59 44 77 68 51 75 67 54 77 17 16 76 10 11 77 13 13 75 13 14 76 43 34 68 54 43 25 20 17 9 9 9 11 11 9 10 12 9 8 8 8 5 7 6 5 5 5 5 5 5 31 5 4 75 7 8 57 5 7 10 8 9 9 9 9 10 10 10 9 7 8 10 6 7 9 9 9 7 5 8 
9 9 9 12 12 12 7 7 7 3 5 4 8 6 7 9 7 8 52 6 6 69 5 6 68 39 31 66 57 42 29 24 20 9 9 11 9 9 9 10 10 10 11 11 11 11 11 11 11 9 10 12 11 9 29 19 17 77 47 37 77 11 12 77 7 9 77 5 8 76 6 6 77 9 8 78 10 9 78 8 8 77 9 10 75 10 8 73 7 8 74 6 7 76 6 6 33 7 8 18 14 11 57 51 39 76 67 52 77 40 31 76 12 10 77 9 8 78 10 11 76 28 24 77 63 50 76 62 49 74 65 48 73 49 37 76 8 9 78 8 10 77 9 10 75 7 8 76 54 41 74 55 41 15 6 7 69 9 9 76 11 9 77 9 10 76 8 9 77 9 10 74 9 7 76 11 9 76 12 12 74 10 11 73 9 10 74 10 10 75 9 10 78 10 11 75 30 25 57 47 37 31 20 18 77 17 17 79 15 16 78 14 14 76 11 9 73 15 11 74 57 41 75 66 51 76 66 54 75 63 49 75 17 16 75 11 11 76 10 11 75 11 11 34 14 13 14 14 12 13 13 13 10 10 10 12 12 12 8 8 8 5 5 5 4 4 4 5 5 5 27 6 5 68 7 6 54 6 6 9 7 8 8 8 8 7 7 7 8 6 7 6 6 6 7 7 5 8 6 7 
9 9 9 12 12 12 8 8 8 5 5 5 2 2 2 5 5 5 7 9 6 6 6 4 6 6 6 8 8 8 10 10 10 11 11 11 10 10 12 10 10 10 11 9 10 10 10 10 13 12 10 25 9 9 75 11 11 77 11 12 75 11 9 75 7 8 75 7 6 76 6 6 78 10 11 78 10 11 79 9 9 74 8 9 74 10 8 72 6 8 75 6 9 77 7 7 75 7 6 78 45 38 76 66 54 75 67 48 76 64 50 77 36 32 77 9 8 77 9 8 77 30 24 75 61 50 75 62 46 76 63 47 79 49 39 76 7 10 77 9 6 79 11 12 76 10 11 74 9 7 77 5 6 77 9 10 75 11 11 75 11 9 75 10 8 74 8 9 77 9 10 75 9 10 76 10 11 75 11 12 71 9 10 75 7 8 74 8 9 75 9 10 76 10 12 76 31 26 78 62 49 77 68 51 79 57 44 78 17 16 75 14 13 75 9 10 74 14 13 74 58 42 75 64 46 76 67 52 75 61 48 72 18 16 74 10 10 76 10 11 76 10 11 76 49 38 73 59 46 31 26 20 11 10 8 11 11 13 8 8 6 5 5 3 5 4 2 7 6 4 6 6 4 6 6 6 6 6 8 7 8 10 7 7 5 6 5 3 5 5 5 6 6 8 7 7 5 8 8 6 
10 10 10 12 12 10 8 8 8 4 4 2 3 3 1 4 4 2 7 7 7 7 7 7 5 5 5 7 7 7 10 10 10 12 12 14 10 12 9 9 9 11 9 9 9 12 12 10 37 13 9 77 9 10 77 9 10 77 11 12 77 9 10 76 8 9 77 9 10 77 9 8 78 10 9 79 11 10 78 12 13 76 58 46 75 63 49 71 15 14 76 8 7 77 7 7 76 8 7 78 45 36 75 66 49 76 64 50 77 67 55 78 38 30 77 5 6 77 7 9 77 9 8 75 28 22 76 60 45 77 61 46 75 48 39 74 8 9 77 9 10 76 12 13 77 11 12 76 10 11 75 9 10 76 10 11 78 10 7 76 10 11 76 8 9 75 9 10 76 10 11 74 10 10 75 45 37 74 61 45 74 27 21 72 6 7 75 7 8 77 9 8 76 11 9 76 28 24 75 63 51 75 67 54 76 57 43 77 13 13 77 11 12 77 11 13 76 10 11 74 8 9 76 63 47 76 63 47 71 55 42 71 17 15 78 12 13 77 13 11 77 11 12 77 9 10 71 7 7 31 7 7 9 9 9 11 11 11 8 8 8 7 7 9 5 5 7 5 5 3 7 7 5 7 7 7 7 7 7 7 7 5 8 6 9 5 5 7 6 6 8 6 4 5 6 6 6 9 9 11 
11 9 12 11 11 11 8 8 8 6 6 4 3 3 3 5 5 5 7 7 5 8 8 6 8 8 8 9 9 9 11 11 9 11 11 9 10 10 12 6 8 7 7 5 6 35 14 13 79 13 15 76 11 9 78 10 9 77 9 10 78 8 8 78 8 10 77 9 10 78 10 9 77 9 8 79 9 9 77 67 57 77 64 55 75 62 46 74 62 48 78 22 23 77 7 7 78 8 8 78 43 37 76 64 52 74 65 50 75 67 54 78 39 32 78 8 8 76 6 6 74 8 9 74 8 9 76 6 6 74 6 7 73 8 6 75 6 9 76 10 11 79 13 14 77 11 12 75 11 11 79 11 12 76 10 11 75 9 10 74 8 9 74 8 9 76 8 9 75 11 11 76 54 41 75 68 52 71 62 47 73 57 41 74 30 21 74 6 5 74 9 7 76 8 9 76 27 22 76 63 47 75 66 51 76 56 47 76 10 11 74 10 10 72 11 10 75 11 11 74 10 10 75 9 10 76 12 12 69 10 12 74 10 10 79 13 14 78 12 13 79 11 10 74 8 9 24 8 8 6 8 7 8 6 9 9 9 7 9 9 7 9 8 6 8 6 7 7 7 9 7 7 7 7 7 7 7 8 10 9 9 9 7 5 8 6 4 5 6 6 6 6 6 6 7 9 8 11 10 15 
7 7 7 8 8 10 8 8 8 5 5 5 6 6 6 7 7 9 7 7 5 8 8 8 9 9 9 9 9 9 10 10 8 10 10 10 10 10 10 9 9 9 8 8 6 37 11 10 76 15 12 75 9 13 75 24 20 77 65 49 77 65 51 78 60 48 78 10 9 76 10 11 78 8 10 76 8 7 75 66 51 76 64 52 80 66 53 76 67 52 75 25 18 76 8 7 77 7 7 74 6 5 74 46 34 74 68 54 75 36 29 77 9 8 78 10 11 75 10 8 73 7 8 74 8 9 75 7 6 76 8 9 76 8 7 76 8 9 77 11 12 78 14 14 81 13 12 76 12 12 77 65 51 74 69 49 76 67 50 77 65 51 75 15 15 75 9 10 76 11 9 74 55 40 75 68 50 73 61 45 71 55 39 73 56 40 75 32 25 75 5 7 72 6 8 70 8 9 73 7 8 77 9 10 75 10 8 70 9 8 66 8 7 71 10 9 77 13 13 72 11 10 73 7 8 75 11 11 65 11 9 73 13 13 76 12 10 77 13 13 80 10 12 77 9 8 25 9 10 7 7 7 6 8 7 8 8 8 7 7 7 7 7 7 7 7 7 6 6 8 7 5 6 8 8 8 12 12 12 10 10 10 7 6 4 5 5 5 7 7 5 6 6 6 7 7 5 13 13 13 
7 7 7 7 7 7 7 7 7 4 2 3 7 7 7 8 8 8 9 9 9 9 9 9 9 9 7 9 9 9 8 8 8 8 8 8 8 8 8 8 8 8 7 8 10 35 11 9 76 12 12 75 24 20 76 56 45 77 63 50 77 65 53 78 68 56 79 56 50 77 11 12 79 11 12 78 10 9 75 66 51 75 61 50 77 63 50 76 69 53 77 24 20 78 8 8 75 7 8 75 7 8 76 11 9 77 13 13 75 9 10 72 6 7 73 8 6 74 9 7 77 9 10 78 8 10 76 8 7 76 6 6 76 8 7 76 8 7 76 10 11 79 11 10 77 11 12 77 11 12 75 66 51 75 68 50 77 67 55 77 65 51 76 16 15 76 10 12 74 8 9 77 13 13 76 46 35 73 60 44 73 55 41 73 35 26 76 11 9 75 7 8 74 8 9 71 7 7 75 7 4 77 7 7 72 8 8 70 6 6 68 6 7 73 11 12 77 13 14 75 9 10 72 8 9 72 10 11 68 12 11 71 11 11 76 15 14 77 15 16 78 14 12 76 10 11 72 45 34 29 24 20 6 6 6 7 7 7 7 7 9 7 7 9 6 8 7 6 6 6 7 7 7 10 10 10 15 14 12 10 10 10 6 6 6 6 4 5 6 6 6 6 6 6 6 6 6 12 12 12 
8 6 7 5 5 5 6 6 6 5 5 5 7 7 9 9 9 9 10 10 10 10 10 10 9 9 7 9 9 9 9 9 9 8 8 8 7 7 7 8 8 8 28 7 6 72 8 8 75 10 8 78 24 22 78 66 52 78 64 51 77 63 50 76 67 52 80 64 51 79 15 13 79 15 15 76 10 12 76 16 15 77 55 42 76 64 48 75 26 22 77 13 11 78 8 6 76 8 7 75 7 8 74 6 7 77 7 9 73 7 8 71 7 7 71 7 7 75 7 6 76 8 7 55 6 9 33 22 18 75 63 47 75 59 43 76 49 38 75 7 6 77 9 8 77 11 12 76 12 12 76 67 52 76 67 52 76 69 53 76 64 48 75 15 14 74 10 8 74 8 9 77 9 10 75 14 13 75 47 35 74 29 23 74 10 10 76 8 7 76 8 9 72 8 8 71 7 8 75 7 8 75 9 10 71 7 7 70 6 6 75 7 6 72 11 10 76 12 12 77 9 8 17 7 6 21 9 9 71 49 38 73 51 40 75 21 19 79 20 22 77 15 16 72 11 10 75 48 37 32 27 21 46 39 31 29 24 21 6 7 9 6 6 6 6 6 6 7 7 7 7 7 7 10 10 12 13 11 12 9 9 9 8 7 5 5 5 7 7 7 5 8 6 7 7 7 7 69 50 36 
7 7 7 7 7 7 6 6 6 6 6 6 6 6 4 7 7 7 10 10 12 10 10 10 9 9 9 9 9 9 9 9 9 9 9 9 8 8 10 9 9 9 36 8 7 77 7 9 75 7 8 77 9 10 78 30 26 75 65 53 74 62 48 78 60 48 76 20 19 78 12 13 76 15 14 19 11 9 19 10 11 66 17 13 78 19 15 77 11 12 76 10 11 77 7 9 76 6 6 78 8 8 75 7 6 77 7 5 76 31 25 72 31 27 70 6 7 72 6 7 55 7 7 12 8 7 23 22 17 76 69 51 75 66 49 74 62 48 75 47 35 74 8 9 78 10 11 77 11 12 74 67 51 77 65 51 79 67 51 75 66 49 77 17 16 74 8 10 75 9 10 74 10 8 39 10 12 54 13 11 73 12 11 73 7 8 75 9 10 75 9 10 74 10 10 73 7 8 75 9 10 78 12 13 75 7 8 73 5 4 75 7 6 73 7 8 72 8 8 74 8 9 11 10 8 10 10 10 17 16 14 68 56 42 78 62 49 80 24 23 77 16 15 75 11 12 73 12 9 70 41 33 71 57 44 30 25 21 6 6 6 7 5 6 6 6 6 5 7 6 5 5 7 10 8 9 10 10 8 9 8 6 8 6 7 6 6 6 8 6 7 9 7 8 8 8 8 73 57 44 
10 10 10 7 7 7 5 3 6 9 5 6 7 7 7 6 6 6 8 8 6 10 10 8 10 10 8 10 10 10 10 10 10 11 11 13 11 9 10 10 10 10 33 7 6 74 6 7 74 4 4 75 7 8 79 15 15 76 27 23 75 26 22 78 27 24 79 15 15 79 11 12 75 10 8 9 7 8 61 11 12 76 12 12 75 9 11 76 12 12 75 9 10 75 7 8 77 7 7 76 8 9 76 8 9 75 32 25 74 56 44 74 56 42 73 25 21 75 7 6 52 8 9 6 8 7 23 22 17 76 67 50 74 67 51 72 63 48 75 53 40 76 11 9 76 10 11 77 11 12 75 24 20 74 23 20 75 26 21 79 25 23 77 11 13 77 9 10 74 10 10 75 10 8 64 10 10 71 10 9 76 8 9 76 8 9 74 10 10 76 12 12 75 11 11 74 10 10 73 11 12 76 21 18 74 44 33 74 46 32 73 45 33 73 5 6 73 5 4 76 8 7 8 9 11 10 10 10 9 9 9 69 60 45 77 69 56 78 20 19 78 14 14 75 11 11 75 9 10 75 20 17 46 22 18 10 10 8 5 5 5 9 5 4 5 5 5 6 6 6 5 7 6 6 8 5 8 8 8 7 7 7 6 8 5 6 6 4 7 7 7 9 7 8 9 9 9 74 62 48 
13 11 12 8 6 7 7 5 8 7 5 6 8 6 7 7 5 8 7 5 6 10 8 9 11 9 10 10 8 11 11 9 10 11 9 10 11 11 9 9 9 9 16 4 4 40 4 6 74 6 5 76 8 9 78 14 14 77 15 16 75 13 14 78 14 14 75 14 13 76 8 7 77 9 8 58 7 6 75 11 12 75 13 14 76 11 9 76 10 11 76 8 7 77 7 9 77 7 7 76 6 6 77 5 6 74 40 31 75 62 46 76 64 48 75 57 45 76 35 29 68 6 7 58 7 6 62 12 11 75 34 28 75 69 53 73 63 53 74 51 37 75 11 11 75 13 14 78 10 11 76 11 9 75 11 11 74 10 10 78 10 11 76 10 11 75 9 10 74 9 7 76 39 30 75 26 21 75 9 10 75 9 10 74 8 9 73 12 11 76 12 13 76 12 13 75 11 12 74 23 20 74 48 35 75 56 41 73 56 40 73 54 40 74 42 31 75 5 3 75 5 5 59 8 7 10 10 10 54 41 32 76 69 51 76 33 27 77 11 12 74 13 12 74 10 11 76 10 11 75 11 11 33 9 7 7 7 5 6 6 6 6 6 6 6 4 5 7 7 7 8 8 6 8 7 5 7 5 6 6 6 6 6 6 6 8 8 8 8 8 8 8 8 6 10 10 12 27 23 20 
8 8 8 6 6 6 4 4 4 5 5 5 7 7 7 8 8 8 7 7 7 8 8 8 9 9 9 10 10 10 10 10 10 10 10 10 11 9 10 11 7 8 6 6 6 30 6 6 76 8 9 74 8 9 80 12 11 78 14 14 76 15 14 76 48 36 78 13 11 75 10 8 77 7 7 77 5 6 77 9 8 74 8 9 75 45 35 78 54 42 77 55 44 77 19 17 76 6 6 76 6 6 76 6 8 75 38 29 73 61 47 76 64 52 75 65 53 77 44 35 76 8 9 73 8 6 73 9 9 73 12 9 76 21 18 74 21 17 73 18 15 74 10 10 78 12 13 78 13 11 79 11 10 76 12 12 79 8 12 77 9 10 77 12 10 75 9 10 76 11 9 74 18 17 77 13 13 76 11 9 73 33 25 74 47 36 74 31 22 75 14 13 74 12 13 72 12 14 75 28 22 73 56 40 72 55 39 72 54 40 74 50 38 72 12 11 73 3 3 75 3 4 74 6 7 56 7 10 70 21 17 75 26 19 77 9 8 76 12 10 73 13 13 76 11 9 40 10 10 26 10 10 12 8 7 7 5 8 6 6 8 6 6 6 6 6 6 7 7 7 8 8 8 8 8 10 6 8 7 6 6 8 6 6 8 8 6 7 6 8 7 8 8 8 7 7 7 9 7 10 
6 6 6 4 4 4 3 3 3 3 3 3 5 5 5 7 7 7 7 7 7 7 7 7 7 7 7 8 8 8 10 10 10 11 11 11 10 10 10 8 8 8 8 8 6 17 8 9 53 9 10 76 10 11 77 12 10 79 11 10 76 16 15 78 60 46 80 46 37 77 8 11 78 6 7 75 5 5 75 7 6 75 7 6 77 59 47 77 71 57 77 69 56 76 54 43 73 13 12 74 6 7 71 5 6 73 20 16 74 44 36 75 66 51 75 48 39 76 23 19 77 7 9 76 6 6 72 8 8 75 7 8 75 7 6 72 6 7 74 8 9 76 10 11 78 12 13 77 12 10 77 13 13 78 14 14 76 11 9 78 10 11 75 10 8 74 8 9 74 10 10 75 11 11 74 10 10 75 30 24 76 57 43 74 60 47 76 52 40 76 28 24 73 13 13 70 12 11 71 26 20 73 56 38 73 56 40 73 56 40 74 53 36 72 2 2 73 1 2 72 2 4 73 5 6 72 8 9 73 9 10 73 9 9 76 10 11 75 11 11 74 12 13 43 12 10 18 8 7 10 10 10 11 10 6 6 6 6 6 6 6 7 7 9 7 5 6 6 6 4 8 8 6 8 8 8 7 7 7 7 7 7 8 8 8 10 8 9 7 7 7 6 6 8 6 6 8 7 7 5 
6 6 6 5 5 5 5 5 5 4 4 4 6 6 6 6 6 6 7 7 7 7 7 7 7 7 7 7 7 7 10 10 10 12 12 12 11 11 9 7 7 7 7 9 8 10 10 8 17 8 9 49 9 10 79 9 9 78 18 17 76 46 35 74 65 48 75 68 52 77 48 40 76 8 7 76 8 7 75 5 5 74 6 7 75 57 43 75 69 55 76 68 55 77 68 53 77 22 17 72 7 5 70 6 6 73 7 8 74 19 16 74 29 24 76 18 16 76 8 7 76 8 9 77 7 7 73 8 6 76 6 8 71 5 6 71 6 2 76 8 7 77 11 12 76 14 15 77 11 12 77 13 13 75 13 14 77 44 35 77 44 35 74 44 34 76 44 31 75 17 16 75 11 11 77 11 12 77 44 35 75 62 46 75 61 50 77 63 50 75 36 29 74 10 11 68 8 7 70 11 7 69 25 16 71 24 18 73 24 19 75 22 16 74 2 5 72 4 5 73 3 3 71 5 6 73 9 9 74 8 10 75 9 10 74 8 9 76 10 11 45 11 12 18 9 10 11 9 10 10 10 10 9 9 9 8 8 6 7 7 5 6 6 6 5 5 5 6 6 4 8 8 8 11 9 10 8 8 10 6 8 7 8 8 8 9 8 6 7 7 7 7 7 7 7 7 7 8 10 9 
6 6 6 4 4 4 6 6 6 6 6 6 6 6 6 6 6 6 7 7 7 9 9 9 9 9 9 9 9 9 10 10 10 12 12 12 14 9 13 8 8 8 8 8 8 10 8 9 10 10 8 14 8 8 49 11 10 78 23 20 76 62 49 74 65 48 74 71 54 77 71 57 78 10 9 79 7 8 76 6 6 76 8 9 73 56 40 74 67 51 75 67 56 76 37 30 75 14 13 75 7 8 68 7 6 70 6 7 73 7 8 76 8 9 76 6 6 76 6 6 75 7 6 75 7 6 76 4 7 76 6 6 70 6 6 73 9 9 77 43 34 76 46 36 77 49 38 78 12 14 76 12 13 76 12 12 76 60 47 76 67 52 75 66 49 74 65 50 76 49 38 74 18 17 76 12 13 73 22 19 76 50 37 75 63 47 74 46 35 75 19 18 73 7 8 70 4 5 71 5 6 71 7 7 72 6 7 74 5 8 73 5 4 74 2 5 73 3 3 74 4 4 73 7 8 73 8 6 72 6 8 75 37 28 76 41 35 74 13 12 28 10 10 11 11 9 10 10 8 9 9 9 6 6 6 8 8 8 7 7 7 7 7 9 6 6 6 5 5 3 6 6 6 9 7 8 9 9 9 8 8 10 9 9 9 9 9 9 9 7 10 7 7 5 8 8 6 10 8 9 
6 6 6 5 5 5 8 8 8 7 7 7 7 7 7 8 8 8 8 8 8 12 12 12 10 10 10 10 10 10 10 10 10 10 10 10 12 10 11 9 7 8 8 8 8 9 7 10 9 9 9 10 10 12 27 12 9 78 18 17 77 40 32 73 64 47 75 70 51 79 72 56 77 11 12 77 11 12 78 8 8 74 8 9 72 31 25 76 38 29 77 36 30 77 11 12 77 7 7 56 8 8 62 8 8 72 8 8 74 6 7 76 6 6 77 7 7 77 5 6 76 8 7 74 6 7 75 5 7 73 5 4 72 14 12 74 37 31 75 61 48 74 65 50 76 69 53 77 11 13 78 14 14 76 12 12 77 59 47 76 67 52 75 68 52 75 66 51 76 44 33 76 18 17 76 12 12 75 11 11 75 26 21 75 38 29 75 24 21 77 9 10 74 6 5 70 4 5 72 6 7 72 6 7 72 6 7 73 5 4 74 4 4 74 2 3 73 3 3 73 5 4 72 6 7 75 7 8 77 34 28 76 57 42 76 62 51 74 39 33 28 17 15 11 11 11 10 10 8 8 8 8 7 7 7 8 8 8 8 8 8 7 7 9 6 6 6 6 6 4 6 6 6 8 8 10 9 9 9 8 8 6 9 7 8 8 9 4 8 6 7 8 6 7 6 6 6 8 8 8 
6 6 6 6 6 6 9 9 9 9 9 9 10 10 10 8 8 8 10 10 10 11 11 11 10 10 10 10 10 10 11 11 11 10 10 10 10 10 10 9 9 9 8 8 8 9 9 9 9 9 9 10 8 9 18 10 8 52 10 11 77 13 13 75 36 29 77 39 30 78 39 32 76 10 11 78 14 14 78 14 14 76 10 11 73 7 8 74 8 9 75 10 6 76 8 9 51 7 8 22 8 7 29 9 8 61 10 9 75 10 8 76 22 20 78 39 32 79 40 35 75 26 22 74 6 5 73 5 6 73 13 12 72 42 31 75 63 49 71 57 44 71 62 45 76 69 51 42 10 11 44 13 11 76 10 11 75 34 28 75 63 51 75 66 49 73 43 35 76 15 10 75 9 11 76 12 12 76 12 12 76 12 12 73 12 11 75 9 11 75 10 8 75 7 6 60 4 3 39 5 4 49 7 8 74 6 5 72 11 10 72 31 25 73 28 23 74 2 3 73 5 6 70 6 6 74 8 9 75 62 46 74 62 48 75 63 51 74 60 47 27 23 20 12 12 10 9 9 11 6 8 7 7 7 7 8 8 8 6 8 7 7 7 7 7 7 5 6 6 6 5 5 5 6 6 6 17 7 6 33 7 8 7 7 7 7 9 8 8 7 5 8 8 10 6 6 6 7 5 6 
6 6 6 5 5 5 8 8 8 10 10 10 10 10 10 8 8 8 8 8 8 10 10 10 11 11 11 9 9 9 11 11 11 11 11 11 10 10 10 9 9 11 8 8 8 10 8 9 7 7 9 8 8 8 8 8 6 27 9 9 78 10 11 73 7 8 75 7 6 76 6 6 79 9 9 79 13 14 77 16 15 77 13 13 74 10 10 73 9 9 76 8 7 76 8 7 26 8 8 8 8 6 9 7 8 50 8 9 76 25 22 78 55 47 78 69 60 77 71 59 75 46 38 74 6 7 71 5 6 72 12 11 75 41 32 75 62 53 70 56 45 70 62 43 78 67 49 45 37 34 42 38 29 74 10 10 76 10 11 77 34 28 74 35 28 74 14 14 75 9 10 76 10 12 74 10 10 76 12 13 75 11 12 74 10 10 76 8 7 76 8 7 73 7 8 49 5 6 6 6 8 24 6 6 74 13 12 73 40 31 74 58 45 74 58 45 73 30 24 71 5 6 73 7 8 73 7 8 73 35 26 73 59 46 73 64 49 74 60 47 29 26 21 11 11 13 9 9 9 6 6 4 5 5 5 6 6 6 7 7 9 7 7 7 7 7 7 6 6 6 18 4 4 28 7 6 17 7 6 32 8 6 8 8 10 7 7 7 7 7 7 7 7 5 7 7 7 8 8 8 
7 7 7 7 7 7 9 9 9 10 10 10 9 9 9 8 8 8 8 8 8 8 8 8 9 9 9 8 8 8 10 10 10 11 11 11 10 10 12 11 9 12 9 9 9 8 8 8 9 7 8 7 7 7 8 6 7 24 8 9 77 9 10 75 7 6 76 8 7 75 7 8 77 9 10 79 13 15 80 16 16 78 14 14 76 12 12 74 10 10 75 26 21 76 28 24 47 29 25 15 14 12 27 8 10 59 7 9 77 38 33 77 68 59 77 70 60 77 69 56 75 45 35 75 7 6 76 6 8 75 7 6 79 15 13 75 42 35 74 44 34 72 58 45 74 44 33 76 64 50 76 63 47 72 11 10 74 10 11 76 10 11 74 8 9 73 7 8 77 9 10 77 11 12 75 11 11 77 11 12 75 11 11 74 20 18 76 28 24 75 28 22 73 22 18 57 7 8 32 6 5 41 7 6 76 21 18 74 60 47 71 60 42 73 61 45 74 56 42 72 8 8 74 8 10 74 9 7 73 7 8 74 40 28 73 40 31 76 42 33 45 19 18 14 10 9 8 8 8 7 5 8 6 4 5 6 6 6 7 7 7 7 7 7 7 5 6 6 6 6 22 6 6 34 5 7 7 7 7 6 8 7 8 8 6 8 8 6 7 9 8 7 7 5 7 7 9 10 9 7 
7 7 9 9 7 8 9 9 9 10 10 10 9 7 8 8 8 8 7 7 7 7 7 7 5 5 3 7 5 6 10 8 9 11 11 9 12 10 11 10 10 10 9 7 8 7 7 7 8 8 8 10 10 10 16 8 6 42 8 7 76 8 7 74 6 5 74 10 8 75 26 21 78 30 26 79 13 14 79 14 12 76 15 12 77 11 12 75 27 25 76 54 43 74 64 52 75 66 51 49 28 23 60 6 6 75 5 5 78 25 21 77 58 51 77 71 59 78 62 49 75 30 24 77 9 10 76 8 9 76 6 6 77 9 10 78 10 9 75 14 11 75 40 34 76 10 11 76 42 33 76 42 32 75 9 11 75 9 10 76 10 11 74 8 9 75 10 8 76 10 11 77 11 12 76 12 12 79 11 12 76 10 12 75 37 28 75 64 46 72 63 48 74 47 38 74 21 17 73 7 8 74 6 7 75 15 14 76 48 37 75 61 48 73 61 47 74 55 40 74 13 10 75 11 11 75 7 8 75 5 5 75 7 8 72 6 7 76 8 9 75 9 10 23 9 8 6 8 7 5 5 5 6 6 4 6 6 6 7 7 7 7 7 5 7 5 8 9 7 10 8 8 8 9 7 8 7 7 7 8 8 8 8 8 8 9 8 6 9 9 7 8 8 8 8 8 8 9 9 9 
9 9 11 10 8 9 10 8 9 12 10 13 9 9 9 8 8 8 6 6 6 6 6 6 7 5 6 7 5 8 9 9 11 11 11 11 10 10 12 9 9 9 8 7 5 8 8 10 8 8 8 11 9 10 26 8 8 78 8 8 75 7 6 74 8 9 75 30 24 75 62 46 76 64 52 79 34 28 78 10 11 79 11 12 77 12 10 77 59 47 76 64 50 75 66 49 77 68 53 76 29 23 75 7 6 75 5 7 75 5 7 76 25 21 74 45 37 75 35 27 78 12 13 75 10 8 74 8 9 73 9 9 78 10 9 77 12 10 75 11 11 77 9 10 76 10 11 78 8 10 75 7 8 75 7 8 74 8 9 75 10 8 75 28 22 74 29 24 73 28 22 75 30 24 73 17 16 77 9 8 76 8 7 77 38 31 75 66 51 75 63 49 73 57 44 74 37 28 75 7 8 72 6 7 74 5 8 74 13 10 71 41 31 73 40 31 75 38 30 74 13 12 75 11 11 75 7 6 75 5 5 76 8 7 76 6 6 74 8 9 73 7 8 45 6 7 10 4 6 7 5 8 7 7 5 7 7 7 6 6 4 7 7 7 8 6 7 8 8 8 8 6 7 8 6 7 8 7 5 8 7 5 9 9 9 10 8 11 10 10 10 9 9 7 8 8 8 11 10 8 
10 10 10 9 9 9 9 8 6 11 9 10 11 9 10 11 9 10 6 6 6 5 5 5 6 4 5 6 6 6 10 10 10 12 10 11 9 11 10 9 9 11 7 9 8 8 8 8 6 6 6 13 8 5 38 8 10 75 7 8 77 7 7 75 11 11 73 64 49 74 61 45 74 62 50 75 68 52 75 9 10 77 12 10 77 11 13 76 49 40 75 61 50 76 64 48 77 65 51 76 27 22 76 6 8 76 6 4 76 6 8 75 7 8 75 7 8 79 11 12 77 16 15 75 13 14 74 10 10 77 12 10 77 11 12 76 12 12 75 9 10 74 8 9 76 21 18 76 6 8 74 6 3 71 7 7 73 9 9 74 8 9 75 62 46 73 64 47 75 58 48 73 61 45 74 29 24 76 10 11 77 9 10 76 37 30 74 65 48 75 62 46 76 59 43 75 38 29 74 8 9 75 5 7 76 6 8 74 6 7 71 7 7 72 7 5 77 7 9 76 10 11 72 11 8 72 6 7 75 7 6 74 6 5 75 7 6 76 18 16 73 22 19 76 11 7 24 6 6 6 6 6 8 6 7 7 5 6 7 7 7 7 7 7 8 7 5 8 8 6 9 7 8 9 7 8 8 8 8 8 8 8 10 9 7 9 9 9 11 11 11 9 9 7 8 8 8 10 10 10 
8 8 8 7 7 7 8 8 8 9 9 9 10 10 10 8 8 8 6 6 6 5 5 5 7 7 7 7 7 7 10 10 10 10 10 10 9 9 9 10 8 9 8 8 8 9 9 7 10 8 9 25 11 11 77 19 17 75 10 8 78 10 9 76 17 13 75 65 53 74 64 52 73 63 51 75 66 51 76 11 9 77 11 12 78 10 11 78 10 9 77 43 34 76 52 42 75 51 41 76 22 20 75 7 8 75 7 8 76 8 9 75 7 8 77 7 5 78 10 9 74 13 12 74 14 14 77 13 13 77 13 13 76 15 14 76 12 13 78 10 11 76 28 24 75 64 46 74 19 16 74 6 7 67 7 6 71 9 10 76 8 9 74 61 44 76 67 52 75 63 49 74 60 49 77 29 25 75 9 10 76 8 9 76 29 23 76 49 38 75 48 37 73 45 34 74 29 23 74 9 7 75 7 4 75 5 5 75 7 8 70 5 9 73 7 9 75 7 6 77 7 9 70 9 8 74 9 7 77 5 8 74 6 5 75 16 12 76 64 50 76 69 53 74 33 27 23 12 10 8 8 8 7 7 7 7 7 7 7 7 7 8 6 7 7 7 7 9 7 8 10 8 9 9 9 9 10 10 8 8 10 7 8 8 10 6 6 8 7 7 7 7 9 8 9 9 9 9 9 9 
8 8 10 7 7 7 8 8 8 10 10 10 11 9 10 8 8 8 6 6 6 7 7 7 8 8 8 8 8 8 10 8 9 9 9 9 10 10 10 10 8 9 9 9 9 9 9 9 13 11 12 38 33 27 75 51 41 75 11 9 75 11 11 77 17 16 76 52 42 75 50 43 75 48 41 78 51 40 77 9 10 75 11 11 76 11 9 77 11 12 77 11 12 75 11 12 76 10 11 78 10 11 77 9 10 76 8 9 77 7 9 77 7 9 77 7 7 77 11 12 74 23 22 75 26 22 76 22 22 75 14 13 76 15 14 76 12 12 76 31 26 75 66 49 75 63 47 76 62 51 73 9 9 72 6 7 75 11 11 75 9 10 76 60 44 75 67 48 75 66 51 75 63 51 75 27 23 76 8 7 75 9 10 75 9 10 74 8 9 77 9 8 75 7 8 72 6 7 75 7 8 75 7 8 74 6 5 73 7 8 73 8 6 74 10 10 75 22 18 76 8 7 57 7 6 58 8 7 60 6 4 71 5 6 72 58 45 74 69 50 74 67 51 75 65 53 40 22 20 25 10 7 16 8 6 8 6 7 8 7 5 6 6 6 8 8 8 9 7 8 9 9 9 9 9 9 9 9 9 11 9 10 6 6 6 4 4 4 4 4 4 9 8 6 10 9 7 10 10 10 
9 9 9 18 9 10 8 6 7 10 10 10 12 10 11 10 8 9 8 8 8 8 8 8 11 11 11 11 9 10 10 8 9 10 8 9 11 9 10 10 10 12 10 10 8 14 15 10 39 32 26 74 58 43 75 48 37 73 9 9 75 11 11 77 11 12 73 12 11 77 9 10 68 6 7 68 6 7 66 10 11 72 11 10 77 6 10 79 9 11 76 10 11 76 10 11 76 12 12 75 9 10 74 8 9 77 9 8 75 10 8 76 8 9 76 6 8 76 29 23 71 61 49 72 58 49 75 51 41 78 14 14 74 13 12 76 18 16 77 61 46 77 68 53 76 66 54 76 62 49 73 9 10 75 11 9 74 8 10 74 10 8 76 49 38 77 58 43 76 58 46 67 57 45 66 22 19 66 8 7 70 9 8 76 10 11 76 8 9 77 9 10 74 8 9 73 7 8 75 5 7 75 5 5 75 7 8 75 7 6 75 7 8 74 23 20 74 56 44 75 16 12 7 7 7 7 7 9 7 7 5 57 7 8 73 59 46 74 67 51 75 68 52 75 66 51 77 23 21 75 9 11 35 9 10 10 10 10 9 9 9 9 7 8 9 9 9 9 9 9 9 9 9 10 10 10 9 9 9 9 9 9 6 6 6 4 4 6 5 5 5 7 9 8 9 9 9 9 9 7 
9 7 8 68 8 8 18 8 9 9 11 10 10 10 8 11 11 11 11 11 11 10 10 8 10 10 8 11 11 11 10 10 10 10 10 10 9 9 11 8 8 6 8 8 6 30 27 22 71 59 45 76 48 37 77 9 10 76 10 11 76 10 11 77 11 12 72 10 11 75 11 11 10 10 10 10 10 10 11 11 11 70 12 11 76 8 9 77 7 7 78 10 11 75 11 11 75 17 16 74 16 14 76 12 10 72 8 6 74 8 9 76 8 7 75 5 5 77 29 25 57 50 40 39 36 31 76 56 45 79 21 20 76 15 14 77 13 13 77 19 18 77 71 55 77 69 56 75 66 51 75 11 11 76 10 11 73 9 9 72 10 11 74 8 9 75 9 10 75 11 9 34 8 9 12 8 7 10 10 12 52 10 11 75 11 11 74 8 9 76 12 12 74 14 13 74 14 13 72 12 11 73 9 7 75 7 6 76 6 6 74 15 11 73 66 48 73 64 47 73 59 48 10 10 8 9 7 8 7 7 7 16 7 8 66 52 43 76 60 47 75 59 46 74 58 43 75 22 18 75 7 8 36 7 9 9 9 9 10 10 12 10 10 10 10 10 10 10 8 9 9 9 9 7 9 8 7 7 7 7 7 7 7 7 7 5 7 6 8 8 6 10 10 10 9 9 9 17 9 7 
8 8 8 8 8 6 10 10 12 10 10 8 10 10 10 11 11 13 11 11 13 11 11 11 11 11 11 11 11 11 9 9 9 8 8 8 8 7 5 5 7 4 6 6 6 7 7 9 34 9 12 76 10 11 74 9 7 76 10 11 76 10 11 75 9 10 71 11 11 73 13 13 14 14 14 12 12 12 23 18 15 68 12 13 78 10 9 75 7 6 77 9 6 77 17 17 75 48 39 76 60 47 75 30 24 73 12 11 75 7 6 75 5 7 74 6 7 74 29 24 78 70 57 78 75 60 79 66 57 79 52 45 77 15 18 75 15 15 74 20 20 76 62 49 79 63 50 77 61 46 75 11 11 79 11 12 74 10 10 71 9 10 75 11 11 74 10 10 75 11 11 73 9 9 39 11 10 20 12 10 56 10 10 74 10 10 76 8 9 75 38 30 74 68 52 73 64 49 73 59 46 71 44 33 74 6 7 75 7 6 75 14 11 75 62 46 74 62 46 75 61 48 19 11 9 18 8 7 14 6 4 67 7 7 77 9 10 75 10 8 76 8 9 75 7 8 73 5 6 75 7 8 35 9 8 9 9 9 11 11 9 10 10 8 10 10 8 10 8 9 7 7 7 5 5 3 4 6 5 5 7 6 7 7 5 8 8 8 9 9 9 12 10 11 10 10 10 68 9 11 
6 6 6 8 9 11 9 9 7 10 8 9 11 9 10 10 8 9 12 10 11 11 9 10 10 10 10 10 10 10 7 7 7 5 5 5 4 4 4 7 7 5 6 6 6 7 7 7 34 8 9 74 9 7 76 11 9 75 11 11 76 10 11 73 9 9 69 11 9 69 14 11 14 14 16 14 14 14 78 66 54 80 20 19 79 11 12 77 9 8 77 9 8 80 57 51 75 63 49 72 59 42 74 59 40 75 28 20 75 7 6 75 5 7 75 5 5 75 28 22 77 70 54 76 74 59 77 59 49 77 13 13 76 12 12 75 13 14 75 13 14 75 14 13 78 12 13 76 10 11 77 11 12 79 11 12 75 9 10 71 9 10 74 10 10 73 9 9 75 11 11 73 9 10 74 10 10 76 11 9 75 11 9 75 9 10 76 6 8 74 35 28 74 68 52 75 66 49 73 64 47 73 46 35 75 7 6 74 6 7 76 12 10 75 58 48 74 61 45 75 61 48 75 9 10 76 8 9 73 8 6 77 7 9 77 9 8 76 8 7 77 7 9 76 6 8 74 6 5 74 6 7 33 9 9 12 12 14 11 9 10 10 10 8 10 10 8 9 9 7 7 5 8 4 4 2 4 4 2 5 5 3 6 6 6 7 7 5 11 10 8 10 10 12 10 10 10 9 9 9 
9 5 6 6 6 6 6 6 6 7 7 7 10 10 8 8 8 8 9 9 9 11 11 9 10 10 10 7 7 7 5 5 5 4 4 4 5 3 6 5 5 5 6 8 7 7 7 7 9 9 9 24 8 8 75 9 10 75 11 9 75 11 11 74 10 10 71 10 9 67 13 11 71 55 40 77 59 45 76 69 50 77 71 55 79 19 18 76 11 9 74 10 10 75 61 50 75 69 55 72 58 45 72 56 41 76 27 22 74 8 9 74 6 7 74 4 4 73 3 3 75 5 5 76 11 9 79 11 12 76 10 11 77 11 12 75 12 7 76 11 15 77 16 15 78 12 13 78 10 11 76 10 11 78 9 12 76 10 12 70 8 9 72 11 10 76 10 11 75 48 39 74 60 47 76 60 45 75 30 25 76 10 11 74 8 10 72 7 5 74 37 29 73 70 53 76 70 54 74 65 50 74 50 38 75 5 7 75 5 3 74 6 5 74 6 7 74 9 7 75 7 8 73 7 8 75 7 6 74 6 7 75 7 8 76 6 4 77 9 8 78 6 9 76 6 6 23 5 5 7 9 8 9 9 7 10 10 10 11 9 10 8 8 8 8 8 8 6 8 7 7 5 6 7 3 4 5 5 5 6 6 8 6 6 6 7 7 7 9 9 9 9 9 9 9 9 9 7 9 6 
