P3
100 50
255
49 47 35 51 48 39 51 12 13 50 10 10 51 13 12 50 37 31 48 45 36 49 49 37 51 46 40 50 45 41 49 48 43 50 50 42 50 47 40 48 46 34 50 46 35 49 49 41 50 47 38 50 46 37 49 45 36 48 48 38 50 46 37 50 46 37 51 48 39 52 47 41 50 45 39 51 47 36 48 48 40 51 51 43 50 49 44 51 48 43 53 50 45 53 49 46 49 46 39 46 42 33 48 20 17 50 8 9 51 27 25 50 47 40 48 45 36 49 45 36 49 46 37 49 46 37 50 47 38 49 46 37 48 47 42 48 47 43 50 48 36 52 45 37 50 45 39 49 46 39 49 47 35 49 49 37 52 48 39 48 48 38 50 46 37 50 46 35 50 46 37 50 46 37 48 45 38 50 46 37 49 46 39 50 45 39 50 46 37 50 47 40 49 46 37 49 30 24 47 3 2 48 4 3 49 15 14 51 48 41 51 51 43 51 48 39 48 49 41 48 48 40 50 47 40 48 44 35 48 44 33 50 46 35 48 46 34 47 43 34 49 42 32 48 46 34 50 46 35 49 45 36 48 44 35 50 43 35 49 45 34 49 45 34 48 44 33 48 44 33 48 39 32 46 42 33 48 44 33 48 44 33 50 43 35 49 46 37 50 43 35 47 39 28 50 41 32 48 46 34 
49 45 36 49 46 39 50 47 38 47 11 11 47 7 8 49 34 29 50 47 38 48 48 36 48 48 40 49 49 41 48 49 43 50 49 44 51 48 41 50 41 32 50 43 33 48 49 35 50 48 36 49 45 34 49 46 39 50 46 37 53 46 38 50 46 35 51 46 40 50 45 39 51 46 40 51 47 38 50 10 8 53 11 12 53 14 15 50 42 39 49 48 43 48 47 42 50 45 41 48 43 37 50 21 17 48 8 8 48 29 25 50 47 38 50 47 38 50 47 38 49 45 36 49 45 36 49 47 35 51 48 39 50 47 38 48 45 36 49 45 36 49 45 36 51 46 40 48 48 40 48 48 40 49 49 39 49 46 37 48 44 35 49 45 36 50 46 37 50 43 35 51 44 36 51 44 36 49 45 36 50 45 39 52 45 37 49 44 38 49 46 39 50 47 40 49 45 36 48 27 22 49 3 3 50 15 13 50 49 44 50 50 42 51 48 41 49 49 39 48 47 42 50 46 37 49 45 36 48 44 32 48 44 33 48 44 35 48 44 35 48 45 36 47 47 37 49 45 34 49 45 36 49 46 37 51 47 38 50 47 38 48 46 34 48 44 35 47 43 34 46 37 30 47 40 30 48 44 33 50 43 35 49 45 36 48 45 38 50 41 34 47 38 29 46 40 28 50 43 33 
48 44 35 49 46 37 49 46 37 48 38 29 47 37 28 50 43 35 49 46 37 47 47 37 47 47 37 48 48 38 50 50 42 52 49 44 49 46 39 48 41 33 51 43 32 46 44 32 48 46 34 47 44 35 49 45 36 48 45 36 49 46 37 50 46 37 49 46 39 49 45 36 48 45 40 50 47 40 50 12 11 50 10 11 51 11 11 48 43 37 51 48 41 48 48 40 49 46 39 50 45 39 50 41 36 48 40 29 51 42 35 51 47 38 51 46 40 51 46 40 49 44 38 48 43 37 48 45 36 51 48 39 51 48 39 48 44 35 47 43 34 49 45 36 51 48 41 51 48 39 49 48 43 51 48 39 49 46 39 48 43 37 49 45 36 50 47 40 50 47 40 49 44 38 48 24 20 49 14 12 49 14 12 50 29 24 48 45 38 49 44 38 48 44 35 48 44 35 48 42 30 48 39 32 51 42 37 48 49 43 48 48 40 49 46 37 47 47 37 48 45 36 50 41 32 48 41 31 48 42 30 48 44 33 47 45 33 49 45 36 50 47 38 50 47 40 50 47 38 50 25 21 50 35 28 52 48 39 49 45 36 49 42 32 48 41 31 49 42 34 48 41 33 47 43 34 49 46 37 49 45 36 48 44 35 49 45 36 50 43 35 48 41 33 47 40 32 48 44 33 
11 11 9 50 48 35 48 46 34 48 41 31 49 42 32 47 43 32 48 44 33 48 46 34 48 46 34 50 47 38 50 50 42 49 49 39 49 46 37 50 43 33 49 40 33 50 43 33 51 44 36 49 47 35 47 44 35 47 36 30 50 16 15 49 19 17 49 45 36 47 43 32 48 45 36 51 48 41 50 43 35 51 17 15 51 9 10 49 45 36 50 50 42 50 47 38 50 46 37 49 45 36 49 45 36 51 44 36 52 45 37 49 45 36 49 46 37 49 46 37 50 47 38 49 45 36 47 44 35 47 47 37 50 47 38 48 45 36 51 44 36 49 44 38 50 47 38 50 50 42 50 50 40 50 50 42 49 46 39 46 46 38 49 46 37 51 48 39 50 47 38 49 46 41 49 42 34 49 20 16 50 29 24 51 46 40 51 48 39 49 44 38 50 43 37 33 33 25 10 10 10 24 21 16 51 48 41 50 50 42 51 48 41 50 47 38 50 47 38 50 48 36 49 40 31 48 39 30 48 42 30 51 45 33 49 45 34 49 46 37 50 47 38 52 48 39 50 48 36 51 23 20 50 11 12 48 33 26 49 42 32 47 38 29 48 41 31 47 43 32 49 47 35 51 48 39 49 49 39 50 46 37 46 43 34 48 45 36 48 45 36 50 46 35 49 45 36 10 12 11 
9 9 9 48 48 38 48 46 34 48 44 33 49 42 32 48 42 30 46 42 31 48 46 34 48 48 38 51 48 39 51 48 41 51 48 41 50 47 38 49 45 36 51 44 36 48 44 35 36 33 26 23 22 18 51 36 31 50 15 13 52 13 14 50 16 15 52 45 35 50 43 35 50 48 36 52 49 40 50 47 38 52 44 41 50 45 41 51 50 45 50 47 38 50 43 33 24 20 19 14 14 14 13 12 10 36 32 29 49 44 38 49 42 34 51 44 36 50 46 37 49 46 37 49 46 37 48 45 36 49 46 37 48 46 34 48 44 35 51 44 36 51 44 38 50 47 38 12 12 12 13 11 14 14 14 14 45 42 37 49 49 41 49 49 41 51 48 41 50 46 37 50 46 37 47 47 37 49 45 36 50 46 37 52 49 40 50 47 38 51 44 36 38 33 29 12 12 12 9 7 8 9 9 9 24 25 20 51 48 39 50 47 38 52 49 42 48 48 40 51 48 41 50 43 37 51 42 35 48 14 12 50 15 13 50 43 35 50 46 37 49 49 39 51 48 39 21 21 19 14 10 9 13 7 9 34 29 25 48 41 33 48 42 30 49 43 31 47 45 33 50 46 35 51 48 39 50 50 40 48 44 35 49 41 30 49 42 34 50 47 38 42 42 32 13 13 13 8 8 8 
11 9 10 19 19 17 44 42 30 49 45 34 48 44 33 50 41 32 46 42 33 48 44 35 46 46 36 49 49 41 48 48 38 50 47 38 50 45 39 49 46 37 49 47 35 37 34 27 22 23 18 40 40 32 49 45 36 50 31 25 50 16 17 50 41 36 48 43 37 49 42 32 49 45 36 52 49 40 49 49 41 51 48 41 50 49 44 53 50 43 48 43 37 49 42 34 18 17 15 9 7 8 8 7 5 30 31 25 49 45 36 48 41 33 50 41 32 49 45 34 50 48 36 50 47 38 50 47 40 50 46 37 48 44 33 48 44 35 49 44 38 51 44 36 50 46 37 9 9 9 9 9 9 11 11 11 45 46 40 52 49 42 48 47 42 49 49 41 50 47 38 48 45 36 48 45 38 50 46 37 48 48 38 49 46 37 45 41 32 46 39 31 34 31 24 9 7 8 8 8 8 9 9 9 21 17 16 46 48 35 50 46 37 49 46 37 49 49 41 47 48 40 50 45 41 50 43 37 49 11 10 53 13 13 51 44 38 48 48 40 48 48 40 26 25 21 11 11 9 27 23 20 19 18 16 33 30 23 47 40 30 48 42 30 49 45 34 49 47 35 53 46 36 48 48 38 48 48 38 49 45 36 49 42 34 48 44 35 50 46 37 45 41 32 7 7 7 8 8 8 
9 9 9 40 36 27 49 47 35 49 47 35 49 44 38 49 45 36 50 43 33 47 43 32 48 48 38 51 48 41 49 49 41 48 48 40 48 48 36 48 48 38 50 47 42 43 43 35 45 42 35 48 46 34 49 46 37 50 43 37 50 41 34 50 47 40 49 45 36 50 43 35 49 45 36 49 49 39 50 50 42 50 47 40 50 50 42 50 48 36 48 44 35 49 44 38 18 17 13 8 6 7 26 25 20 47 26 21 49 15 14 47 16 14 49 30 24 49 45 34 51 48 39 51 48 41 50 50 40 50 47 40 48 46 34 48 48 40 51 48 39 49 46 37 50 43 33 42 34 31 8 8 8 41 40 35 51 50 45 49 48 43 48 48 40 51 48 41 50 46 37 49 46 37 49 46 39 48 46 34 50 47 38 48 45 36 46 39 31 46 44 32 42 42 32 28 27 22 7 7 7 15 15 13 41 38 31 49 46 37 49 46 39 51 48 39 50 47 40 49 46 39 50 47 38 49 45 36 50 10 10 51 13 12 51 44 38 49 49 41 48 49 41 40 39 34 38 35 28 47 43 34 41 36 30 47 40 32 47 41 29 47 45 33 50 47 38 51 48 39 49 49 39 49 49 41 49 49 39 49 46 39 51 48 39 50 46 37 49 47 35 44 40 31 8 8 8 8 8 8 
39 34 28 49 47 35 48 46 34 48 44 35 48 23 19 48 39 32 49 42 32 47 43 32 48 48 38 50 50 42 49 49 41 48 48 38 50 47 40 49 49 41 51 48 41 51 48 41 51 48 41 49 46 37 49 45 36 49 46 37 50 46 37 51 44 36 49 45 34 51 47 36 47 47 35 50 48 36 49 49 41 48 50 39 50 47 38 51 47 38 51 44 36 50 46 37 41 40 35 40 37 32 47 43 34 49 21 17 48 6 7 49 7 8 49 26 20 51 44 36 50 47 40 52 49 44 49 48 43 49 46 39 49 46 41 50 47 42 51 48 41 49 44 38 51 44 36 48 44 33 38 37 32 50 50 40 50 50 42 50 47 40 50 45 39 49 46 39 48 43 37 50 46 37 50 47 38 48 48 38 49 46 37 46 41 35 46 42 33 48 46 34 49 47 35 43 39 30 39 32 24 40 35 29 49 46 37 50 47 40 51 48 41 49 46 37 50 46 37 50 47 40 48 48 38 49 46 37 50 39 35 51 40 34 49 50 44 51 51 43 50 49 45 50 47 40 50 47 38 48 45 36 49 45 34 49 42 32 50 43 33 49 45 34 49 47 35 50 48 36 49 46 37 51 47 38 52 47 41 49 49 41 50 50 40 51 48 39 49 45 36 42 37 31 7 7 7 7 7 7 
47 43 34 48 44 33 49 45 36 47 43 32 48 14 13 49 19 17 49 40 31 49 45 36 49 49 39 50 50 42 49 49 41 50 47 40 50 47 40 50 47 40 50 47 40 48 48 40 50 47 40 49 46 37 50 46 37 51 47 38 49 44 38 52 45 39 50 46 37 48 48 38 48 45 38 50 46 37 51 48 41 50 47 40 50 26 22 50 22 19 51 21 19 50 41 34 51 48 41 50 47 38 49 46 37 49 34 27 49 18 16 50 8 9 51 27 23 49 44 38 49 46 39 51 48 41 49 48 43 50 47 42 51 46 40 50 45 39 49 46 41 49 45 36 49 42 34 48 44 33 50 46 35 50 47 38 50 47 38 49 46 39 49 45 36 51 47 38 50 46 37 50 47 40 50 47 38 51 48 39 49 45 36 48 41 35 48 41 31 49 45 36 47 43 34 47 40 30 49 42 32 51 45 33 50 46 37 49 46 37 49 46 37 48 44 33 49 46 37 49 49 41 51 48 39 51 48 43 51 48 41 51 48 41 51 51 43 52 49 44 50 47 40 49 46 39 51 48 39 51 49 37 49 45 36 50 43 33 49 45 36 54 47 39 48 45 36 49 45 36 49 46 37 50 47 38 49 49 39 50 50 42 50 50 42 50 50 42 46 43 34 23 19 16 10 8 9 8 8 10 
48 46 34 46 44 32 48 45 36 47 43 34 47 32 27 50 33 26 51 44 36 50 47 38 49 49 37 52 49 44 50 50 42 48 49 41 50 47 38 50 47 38 50 45 39 50 47 40 50 47 38 49 46 37 50 47 38 51 47 38 50 47 38 51 47 38 50 47 38 49 46 39 48 45 36 50 47 38 53 50 43 49 49 39 51 13 12 48 8 8 51 9 10 48 37 31 50 47 40 47 47 39 49 46 39 49 44 38 51 38 32 50 32 28 51 40 34 51 48 41 51 48 41 51 50 45 51 47 44 49 49 41 50 47 38 51 44 36 49 44 38 49 45 36 45 41 30 48 42 30 50 46 35 49 47 35 49 46 37 49 45 34 47 42 36 49 45 36 50 47 38 48 49 41 49 49 41 50 50 40 48 45 36 49 32 25 49 21 17 47 32 27 48 41 31 47 40 32 49 42 32 48 46 34 50 46 37 48 45 36 47 43 34 49 43 31 48 46 34 48 48 38 51 48 39 51 51 43 50 50 42 52 51 46 49 49 41 51 48 41 51 47 36 47 47 37 49 49 39 51 49 37 49 45 36 49 42 32 52 45 37 50 46 37 39 36 31 36 33 28 39 36 31 23 22 17 23 24 19 25 24 22 25 24 22 24 23 21 21 20 18 10 10 10 10 10 12 9 9 9 
49 47 35 49 47 35 48 45 36 47 44 35 50 46 37 50 46 37 51 47 38 52 49 42 52 49 40 49 50 42 48 49 41 49 46 39 51 47 38 51 47 36 50 47 38 50 47 40 49 46 37 50 47 40 50 47 38 48 48 38 48 48 38 50 46 37 50 26 22 50 47 40 51 46 40 50 47 38 51 48 41 51 48 41 49 34 29 48 12 12 49 11 10 49 38 34 49 46 39 51 48 39 50 48 36 48 44 35 49 47 35 51 48 41 51 48 41 52 48 39 40 37 32 23 23 23 31 30 26 51 46 40 50 48 36 49 46 37 49 45 36 50 43 33 49 43 31 49 41 30 48 44 33 49 47 35 46 46 36 49 47 35 48 45 36 50 45 39 51 49 37 48 48 38 49 49 37 48 48 36 49 45 36 49 25 21 48 17 14 50 37 29 49 42 32 48 44 33 49 43 31 49 45 34 50 46 35 48 46 33 48 41 31 46 42 31 48 44 33 50 48 36 23 24 19 25 26 21 27 28 23 50 50 42 50 50 40 51 48 39 50 47 38 49 47 35 49 49 41 48 48 38 48 45 36 49 45 36 37 34 27 24 23 18 18 18 16 17 17 15 20 19 15 9 7 8 9 9 9 9 9 9 9 9 9 9 9 9 9 9 9 8 10 7 8 8 8 9 9 9 
48 48 36 50 48 36 49 46 37 49 46 37 49 45 34 48 44 35 50 46 37 35 34 29 30 31 25 43 43 35 49 49 41 50 47 38 47 47 37 50 47 38 50 47 38 50 47 38 49 46 37 49 46 39 49 46 37 50 47 38 49 46 37 49 46 39 48 30 26 29 28 24 29 28 24 29 30 25 29 30 25 48 48 40 50 46 35 49 30 26 49 28 25 50 43 37 49 49 41 48 48 40 49 46 37 48 45 36 49 46 37 50 50 42 52 49 42 43 40 33 20 20 18 7 7 7 12 12 10 28 27 23 33 32 27 50 47 38 48 45 38 51 44 34 49 43 31 48 41 31 50 44 32 49 45 33 45 45 33 49 47 34 50 31 25 50 43 35 34 33 28 29 28 23 28 29 23 28 27 22 26 25 21 39 26 20 50 31 25 48 42 30 49 43 31 48 44 32 50 44 32 48 44 32 47 45 33 48 44 33 48 41 31 45 41 32 30 27 22 29 28 23 8 10 9 10 10 10 12 12 12 30 31 25 33 32 28 30 31 26 45 42 35 53 49 38 50 47 38 49 46 37 37 34 25 28 27 22 18 18 16 9 9 7 13 13 13 15 15 15 12 12 12 8 8 8 9 9 11 10 10 8 9 9 9 9 9 9 10 8 9 8 10 9 9 9 9 9 7 8 
47 47 35 47 44 35 50 47 38 51 47 38 48 45 36 48 44 35 34 31 24 14 12 13 10 8 11 23 22 20 31 30 26 39 38 33 49 46 37 48 37 31 51 27 23 50 29 24 50 37 29 50 47 38 49 46 37 50 47 38 48 48 40 46 45 40 26 27 22 11 9 10 9 10 12 12 12 12 13 13 13 32 28 25 50 47 40 49 46 39 51 48 43 50 47 40 51 48 41 51 48 39 48 44 33 48 44 35 49 46 39 49 49 41 39 38 33 22 21 17 9 9 9 10 8 9 8 8 8 7 7 5 20 11 12 49 28 25 48 29 25 51 44 38 50 43 35 48 41 33 47 43 32 47 43 32 49 45 34 49 47 35 50 31 25 37 29 26 18 17 15 9 9 9 8 8 8 5 5 5 6 6 6 20 19 17 41 34 26 47 41 29 48 42 30 49 43 31 49 43 31 48 41 31 44 40 31 29 26 21 28 25 20 27 23 20 8 8 8 7 9 8 9 9 9 10 10 10 10 10 10 14 12 13 12 12 12 10 10 10 24 23 19 32 28 25 44 41 32 48 45 36 35 35 25 16 17 12 8 8 8 10 10 10 14 14 14 15 15 15 13 13 13 10 10 10 12 12 12 13 11 12 10 8 9 10 10 8 9 9 9 8 8 8 9 9 9 7 7 7 
49 47 35 49 45 36 47 47 37 47 47 39 48 46 34 48 44 33 18 17 13 9 9 9 9 9 9 10 10 12 12 12 12 32 31 26 49 49 39 48 27 24 49 7 8 50 10 10 50 22 19 48 44 35 48 45 36 50 47 38 51 48 41 44 43 38 7 7 9 9 9 9 10 11 13 14 14 14 14 14 14 14 14 14 44 44 36 50 47 40 51 46 40 50 46 37 51 48 41 51 48 39 49 45 36 48 43 37 49 46 37 39 39 31 18 18 16 8 8 10 10 10 12 9 11 8 8 8 8 7 7 7 12 6 6 31 5 6 50 12 11 49 44 38 49 44 38 46 43 36 49 42 32 48 41 31 48 41 31 48 44 33 31 31 23 15 15 15 12 12 12 11 11 9 8 6 7 6 4 5 7 7 7 11 11 9 18 17 15 27 24 19 35 31 22 41 34 28 29 24 18 34 29 25 39 34 28 8 10 9 8 8 8 9 7 8 8 8 8 8 8 8 9 9 9 9 9 9 9 9 9 9 9 9 8 8 8 8 8 6 8 8 6 8 10 9 39 34 28 49 45 34 34 34 24 14 14 12 9 7 8 11 11 11 13 13 11 14 14 14 14 12 13 15 15 15 15 15 15 11 11 11 6 6 4 7 7 7 8 6 7 8 8 8 6 6 6 4 4 4 
48 48 36 49 46 39 49 47 35 48 48 38 48 45 38 36 33 26 15 16 11 9 9 9 9 9 9 10 10 10 12 10 11 22 23 18 41 40 35 48 33 28 47 18 14 49 9 9 50 22 19 49 45 36 51 44 36 50 47 40 50 50 42 46 43 38 7 7 7 8 8 8 12 10 13 15 15 15 16 14 15 12 12 12 31 32 27 48 45 38 51 46 40 49 44 38 49 46 37 49 46 37 48 43 37 39 34 28 33 32 27 20 20 18 7 7 7 10 8 9 10 9 7 10 10 8 8 8 6 7 7 7 7 7 7 10 6 7 36 10 11 48 48 38 51 48 41 48 45 36 33 28 22 32 27 21 35 28 20 34 31 22 11 11 11 10 10 10 12 12 12 9 11 10 7 7 7 6 6 6 7 7 7 10 10 10 9 9 9 8 8 8 18 14 11 22 21 17 15 11 10 23 22 18 27 26 21 10 8 9 8 6 7 9 7 8 8 8 8 9 9 11 9 9 9 9 9 11 11 9 10 9 9 9 9 9 9 8 8 8 8 8 8 7 9 8 41 34 28 37 34 25 15 15 15 5 5 5 7 7 7 9 9 9 10 10 10 11 11 11 12 12 12 15 15 15 15 15 15 10 10 10 6 6 6 5 5 5 6 6 6 7 5 6 6 6 6 4 4 4 
47 32 25 34 31 26 46 42 33 35 35 27 34 31 26 16 15 11 10 8 9 9 9 9 8 10 9 12 8 9 9 9 9 8 8 8 20 19 17 31 30 26 32 21 15 32 8 8 40 22 20 44 39 33 35 32 23 34 33 28 34 33 28 31 32 26 8 8 8 9 9 9 11 11 13 12 12 12 11 11 13 10 10 10 12 11 9 31 30 25 35 31 28 32 31 26 33 32 27 34 31 26 33 30 25 16 15 11 7 7 7 8 8 8 9 9 7 8 8 10 9 9 9 7 7 7 7 7 7 7 7 7 7 7 7 5 5 5 9 9 7 32 33 28 33 32 28 34 33 28 7 7 7 7 7 7 8 6 7 9 9 9 10 10 10 11 11 11 12 12 12 11 11 11 8 8 8 7 5 6 7 5 6 9 7 8 9 9 9 7 7 7 4 6 5 6 8 7 21 17 16 29 26 19 9 9 9 7 7 7 8 8 6 9 9 11 9 9 11 9 9 9 10 10 10 10 10 10 12 12 12 12 10 13 9 9 9 8 8 8 7 7 7 6 6 6 22 21 16 15 14 12 4 4 4 4 4 4 6 6 6 9 9 9 11 11 11 12 12 12 11 11 11 11 11 11 13 13 13 11 9 10 7 7 7 6 4 5 5 5 5 4 4 4 7 7 7 5 5 5 
33 7 6 7 7 7 30 27 22 12 10 11 10 8 9 8 8 8 7 7 7 9 7 8 9 7 8 9 7 8 8 8 10 8 8 8 6 8 7 8 8 8 8 8 8 9 9 9 18 17 15 31 27 24 10 10 8 9 9 9 11 9 10 9 9 9 7 7 7 9 9 9 10 10 10 11 11 9 10 10 10 11 11 11 12 12 12 9 9 9 9 7 8 6 8 7 8 8 8 8 6 7 7 7 7 6 6 6 7 7 7 8 8 8 8 8 8 7 7 7 8 8 8 7 7 7 7 7 7 8 8 8 6 6 6 5 5 5 6 6 6 7 7 5 8 6 7 9 9 9 7 7 5 7 7 7 7 7 7 9 9 9 10 10 8 11 11 11 12 12 12 12 12 12 9 9 9 7 7 7 7 7 5 9 8 6 8 8 10 9 7 8 8 6 7 8 6 7 10 8 9 8 8 8 9 9 7 9 9 9 9 9 9 9 9 9 9 9 9 9 9 9 10 10 10 11 11 11 12 12 12 10 10 10 7 7 7 5 5 7 4 4 4 4 4 4 5 5 5 5 5 5 4 4 4 4 4 4 5 5 5 10 10 10 15 15 15 13 13 13 9 9 9 9 9 9 10 10 10 11 11 11 9 9 9 8 8 8 4 4 4 4 4 4 6 6 6 6 6 6 
7 7 7 6 6 6 7 7 7 9 9 11 9 9 9 8 8 8 6 6 6 7 7 7 7 7 7 8 8 8 7 7 7 6 8 7 8 6 7 7 7 7 9 9 9 9 9 9 9 9 9 9 7 8 10 10 8 10 10 10 10 10 10 9 11 8 8 6 7 8 6 7 10 10 10 12 12 12 12 10 11 10 10 10 10 10 10 9 9 9 10 8 9 9 9 9 7 7 7 8 6 7 7 7 7 7 7 7 7 7 7 8 8 8 8 8 6 6 6 6 7 7 7 8 8 8 8 8 8 9 9 7 7 7 7 6 6 6 7 5 6 8 8 6 8 8 10 9 9 9 8 8 8 5 5 3 7 5 6 9 9 9 10 10 10 11 11 11 11 11 13 9 9 9 8 8 10 8 8 8 8 7 5 8 8 8 8 8 8 8 8 8 7 9 8 7 7 7 8 8 8 8 8 8 8 10 7 9 9 9 8 8 8 9 9 9 9 9 9 9 9 9 9 9 9 11 11 11 11 11 11 8 8 8 5 5 3 5 5 5 5 5 5 5 3 4 4 6 5 5 5 3 4 4 4 4 4 4 6 6 6 10 10 10 15 15 15 12 12 12 8 8 8 9 9 9 9 9 9 10 10 10 10 10 10 7 7 7 4 4 4 4 4 4 7 7 7 7 7 7 
7 7 7 7 9 8 10 8 9 8 10 9 7 7 7 4 4 4 4 4 4 6 6 8 7 7 7 8 8 8 7 7 7 7 7 7 6 6 6 8 8 8 9 9 9 9 9 9 7 7 7 7 7 9 11 9 10 10 10 10 9 11 10 10 10 10 9 7 8 8 8 8 11 11 11 11 11 11 11 11 11 9 9 9 9 9 9 10 10 10 10 10 10 9 9 7 7 7 5 7 7 7 7 7 5 8 8 10 8 8 8 8 8 8 8 8 8 8 8 8 7 7 7 8 8 6 10 10 12 10 10 12 9 9 7 9 9 9 10 10 10 9 9 7 9 9 9 8 8 8 7 7 7 6 6 6 6 6 6 9 9 9 9 9 7 10 10 10 9 9 9 8 8 8 8 8 8 9 7 8 8 8 6 6 6 6 8 8 8 9 9 9 9 9 9 7 7 7 7 7 7 10 8 9 10 10 10 10 10 10 9 9 9 9 9 9 8 8 8 9 9 9 9 9 9 10 10 12 8 8 6 6 4 5 6 6 4 6 6 6 6 6 8 6 6 6 4 4 2 5 5 5 5 5 5 5 5 5 5 5 5 11 11 11 13 13 13 11 11 11 10 10 10 9 9 9 8 8 8 9 9 9 8 8 8 5 5 5 5 5 5 6 6 6 6 6 6 8 8 8 
7 7 7 8 8 8 9 9 9 9 9 9 7 7 7 6 4 5 5 5 5 6 6 8 9 8 6 8 6 7 8 6 7 7 7 5 6 6 6 8 8 6 9 9 9 7 7 7 5 5 5 7 7 5 11 9 10 11 11 11 10 10 10 7 7 5 8 6 9 9 9 9 21 11 12 20 19 17 8 8 8 9 9 9 9 9 9 11 11 11 11 11 11 9 9 7 8 8 8 7 7 7 8 8 8 8 6 7 9 9 9 8 8 8 9 9 9 11 9 12 11 9 10 19 18 16 17 17 15 10 10 10 9 9 7 11 11 11 12 12 10 9 9 9 7 7 7 7 5 6 7 7 5 7 5 6 6 6 6 9 11 10 11 11 11 9 9 9 8 8 10 8 8 6 9 9 9 9 9 7 9 9 9 7 7 9 7 7 5 8 8 8 7 7 7 6 6 6 7 7 7 7 9 8 9 9 7 10 10 10 10 10 10 10 10 10 9 9 9 8 8 8 18 18 16 9 9 11 7 7 7 5 5 5 6 6 6 8 8 8 7 7 7 6 6 6 6 4 5 6 4 5 6 6 6 6 6 6 8 8 8 13 13 13 11 11 11 9 9 9 9 9 9 8 8 8 7 7 7 7 7 7 8 8 8 7 7 7 5 5 5 8 8 8 7 7 7 8 8 8 
8 6 7 9 9 9 9 9 7 11 9 10 8 8 8 6 6 6 6 6 6 12 11 9 12 8 9 12 6 8 11 7 6 7 7 7 7 7 7 7 7 7 8 6 7 6 6 6 4 2 3 6 6 6 8 8 8 10 10 10 11 9 12 9 9 9 8 8 8 7 7 9 51 12 13 51 48 41 9 8 6 7 7 5 10 10 10 12 12 12 10 10 10 9 9 9 6 8 7 6 8 7 8 8 8 8 6 7 7 7 9 9 9 9 11 11 11 11 11 11 25 24 22 49 49 39 42 41 37 11 11 11 10 10 10 11 11 11 11 13 12 8 8 8 7 7 7 7 7 7 7 7 9 7 7 7 7 7 5 9 9 9 11 11 11 10 10 10 7 7 7 9 9 9 11 11 11 12 12 12 8 8 6 7 7 7 8 8 8 8 8 8 8 8 8 6 6 6 7 7 7 9 9 9 9 9 7 9 9 9 10 10 12 11 11 11 8 8 8 8 8 8 50 51 43 10 10 10 7 7 7 7 5 6 7 7 7 8 8 8 8 8 8 7 7 9 7 7 9 7 7 7 8 8 8 7 7 7 9 9 9 12 12 12 10 10 10 7 7 7 8 8 8 8 8 8 7 7 7 7 7 7 9 9 9 7 7 7 7 5 6 7 7 7 10 8 9 9 9 9 
8 8 8 10 10 10 8 10 9 9 9 9 8 8 8 5 5 7 5 5 5 36 29 23 48 18 16 48 6 7 22 6 6 7 7 7 10 8 9 7 7 7 7 5 8 4 6 5 4 4 4 7 7 7 8 8 10 8 8 8 9 9 9 8 8 8 8 8 6 7 7 7 48 48 40 47 46 41 9 9 9 9 9 9 8 8 8 11 11 11 9 9 9 7 7 5 6 6 4 8 8 8 8 8 8 7 7 7 7 7 7 9 9 9 10 10 10 12 12 12 27 26 24 50 47 40 51 48 41 41 40 35 11 12 14 11 13 10 10 8 9 9 9 9 9 9 11 6 6 6 6 6 8 8 8 8 8 8 8 9 7 8 8 8 8 7 7 7 8 8 8 9 9 11 30 29 24 21 20 16 7 7 7 6 6 6 5 5 5 6 6 6 6 6 6 5 5 5 6 6 6 7 7 7 9 9 9 9 9 9 10 10 10 10 10 10 9 9 9 9 9 11 51 52 47 11 11 11 8 8 8 7 7 7 7 7 7 8 8 8 6 6 6 8 7 5 9 9 9 9 9 9 9 9 9 8 8 8 8 8 8 11 11 11 9 9 9 7 7 7 7 7 7 7 7 7 7 7 7 9 9 9 9 7 8 6 6 6 6 6 6 7 7 7 9 9 9 9 9 9 
7 7 7 9 9 9 10 10 10 8 8 10 7 5 6 6 4 5 6 6 6 32 6 5 42 6 6 44 6 5 18 6 6 8 8 8 10 8 9 7 7 7 7 7 7 7 5 6 5 5 5 7 7 7 7 7 7 8 8 8 9 9 9 9 9 9 10 8 9 8 6 7 44 43 38 49 46 41 9 7 8 7 9 8 8 8 8 10 10 10 8 8 8 6 6 6 7 7 7 8 8 8 8 8 6 7 7 7 6 6 6 9 9 9 10 10 10 11 11 11 23 22 20 46 43 36 46 43 36 38 39 33 12 12 14 11 11 11 10 8 9 9 9 9 8 8 8 7 5 6 7 7 7 10 8 9 8 8 6 7 7 7 7 7 9 7 7 5 8 6 7 8 8 8 9 9 7 10 8 9 8 6 7 6 6 6 5 5 5 6 6 6 5 5 5 5 5 5 5 5 5 8 6 7 10 10 10 9 9 9 10 10 10 9 9 9 8 8 8 8 8 6 46 46 44 11 11 11 9 7 8 7 7 7 7 7 7 8 8 8 8 8 6 7 7 7 10 10 10 10 10 10 10 8 11 9 7 8 9 9 9 11 11 11 11 11 11 7 7 7 7 7 7 8 8 8 8 8 8 9 9 9 6 6 6 6 6 6 6 6 6 6 6 6 6 6 6 8 8 8 
8 8 10 9 9 9 9 9 9 8 8 10 6 6 4 7 7 5 8 8 8 7 7 7 6 5 10 7 5 6 9 9 7 7 7 7 9 9 9 7 7 7 6 6 8 7 7 7 7 7 7 7 7 7 7 7 7 7 7 7 9 9 9 9 9 9 9 9 9 9 7 8 8 8 8 50 47 38 9 9 9 7 7 7 9 7 8 9 9 9 7 7 7 6 6 6 8 8 8 8 8 6 7 7 7 8 8 8 10 9 7 8 8 8 8 8 8 9 9 9 10 10 10 11 9 12 10 8 9 8 8 10 10 12 11 10 10 8 10 10 10 9 7 8 6 6 6 6 6 6 7 9 8 10 8 9 8 8 8 7 7 7 7 7 7 7 7 7 7 7 7 10 8 9 9 9 9 9 9 9 8 8 8 6 6 6 6 6 6 6 6 6 5 5 5 5 5 5 6 6 6 8 8 8 10 10 10 9 9 9 9 9 9 10 10 10 8 8 8 8 8 8 11 11 9 12 12 12 9 9 11 6 6 4 8 6 7 7 7 7 8 8 8 7 7 7 9 9 9 11 11 11 10 10 8 8 8 8 9 9 9 12 12 12 11 11 11 8 8 8 8 8 8 9 9 9 9 9 9 9 9 9 6 6 6 7 7 7 8 6 7 5 5 5 7 7 7 9 7 8 
8 8 8 8 8 8 7 7 7 8 6 7 6 6 6 7 7 7 8 8 8 5 7 4 6 6 6 7 7 7 7 7 7 10 8 9 10 8 9 8 8 8 7 7 7 8 6 7 9 7 8 9 7 8 7 7 7 8 6 7 8 8 8 8 6 7 11 11 11 9 9 9 7 7 7 7 9 8 9 9 9 7 7 9 7 7 7 8 8 8 7 7 5 6 6 6 7 7 7 7 7 7 8 8 8 7 7 7 8 8 8 8 8 8 9 9 9 11 10 8 11 11 9 10 9 14 10 8 9 9 9 7 9 8 6 9 9 9 12 12 12 10 10 8 7 5 6 5 5 5 6 8 7 10 9 7 9 7 8 8 8 8 6 6 6 7 7 5 8 8 8 7 9 8 9 9 9 9 9 7 8 8 8 6 6 6 6 6 8 7 9 8 7 7 7 6 6 8 8 8 8 9 9 9 8 8 10 9 9 7 9 9 9 11 11 11 9 9 7 7 7 7 11 11 11 12 12 12 10 10 10 7 7 7 7 5 6 7 5 6 8 8 8 8 8 10 13 13 13 15 13 16 12 12 12 10 10 12 9 9 9 11 11 11 11 11 11 10 10 10 9 9 9 9 9 9 9 9 9 8 8 8 6 6 6 6 6 6 6 6 6 7 7 7 7 7 7 10 10 10 
7 7 7 6 6 6 7 5 6 6 6 6 6 6 6 6 6 6 6 6 6 6 6 6 7 7 9 7 7 5 7 7 7 9 9 7 9 9 9 8 8 8 8 8 6 7 7 7 6 6 6 7 7 7 7 7 7 7 7 5 7 7 7 7 7 7 10 10 10 10 11 13 9 7 10 7 7 9 7 9 8 7 7 7 6 6 6 6 6 6 7 7 9 5 5 7 5 5 5 6 6 4 7 7 7 8 8 8 8 8 6 7 7 5 8 8 8 10 10 10 10 10 10 8 9 11 9 9 9 7 9 8 8 8 10 9 9 9 11 10 8 9 9 7 7 7 7 6 6 4 9 7 8 9 9 9 8 8 8 10 10 8 9 9 9 7 7 7 6 7 9 7 7 7 8 8 8 10 8 9 8 8 8 7 7 5 7 7 7 7 7 7 5 7 6 6 6 8 7 7 7 7 7 7 7 7 5 7 7 7 8 8 8 11 11 11 9 9 7 6 6 6 8 8 8 10 10 10 10 10 10 7 6 11 7 7 7 6 6 6 7 7 7 9 9 9 11 11 11 12 12 12 10 10 10 8 8 8 8 8 8 10 10 10 10 10 10 11 11 11 10 10 10 8 8 8 9 9 9 11 9 10 6 6 6 5 5 5 6 6 6 5 5 5 7 7 7 9 9 9 
7 7 7 5 7 6 7 7 7 6 6 8 6 8 7 6 6 8 8 6 7 10 8 9 8 8 6 8 8 8 7 7 7 7 7 7 9 9 7 8 6 7 7 7 7 6 6 4 7 7 7 8 6 7 7 7 7 6 6 8 7 7 5 6 6 4 8 8 10 10 12 11 10 8 9 7 7 5 6 6 6 5 5 5 6 6 6 7 7 7 7 7 7 4 4 4 4 4 4 5 5 5 7 7 7 8 8 8 7 7 7 8 6 7 8 8 8 9 9 9 8 8 10 8 8 8 9 9 9 9 9 11 10 8 9 9 7 8 8 8 8 9 10 5 5 5 3 5 5 5 7 7 7 9 9 7 8 8 8 10 10 10 9 9 9 6 6 6 6 6 6 7 5 6 6 6 6 8 6 9 8 8 8 9 7 10 8 6 7 7 7 7 21 21 19 49 49 41 32 32 24 8 6 7 5 5 3 5 5 5 6 6 6 8 8 10 7 7 7 6 6 6 7 7 7 9 9 9 9 9 9 7 7 7 6 6 6 6 6 6 7 7 7 9 9 7 9 9 9 8 8 8 8 8 8 8 8 8 10 10 10 11 11 11 11 11 11 11 11 11 9 9 9 7 7 7 10 8 9 9 9 9 6 6 6 7 5 6 7 7 7 5 5 5 6 6 6 8 8 8 
45 41 32 8 6 7 7 7 7 5 5 3 6 6 6 5 5 7 8 8 8 10 10 10 10 10 8 9 9 7 8 8 8 8 8 8 8 8 8 8 8 8 20 21 15 42 42 34 44 41 34 42 31 27 45 17 16 45 40 34 44 41 34 39 36 29 7 7 9 10 10 10 10 10 10 7 7 7 6 6 6 3 5 4 37 38 32 44 43 39 43 40 35 41 36 30 42 38 29 43 39 30 44 40 31 44 40 31 41 38 29 44 39 33 28 27 22 8 8 8 8 8 8 8 8 8 8 8 8 9 9 9 19 18 16 44 43 38 45 44 39 43 42 37 42 39 32 44 5 6 43 8 6 43 39 30 42 39 30 43 39 30 43 39 30 14 14 12 5 5 3 5 5 5 6 4 5 6 6 6 9 9 9 9 9 9 8 6 7 6 6 6 24 23 19 48 48 40 34 31 26 9 7 8 7 7 9 7 7 7 5 5 5 7 7 9 7 7 7 7 7 7 8 8 8 8 8 8 9 9 9 8 8 8 8 8 8 8 6 7 8 6 7 7 7 7 8 8 8 8 6 7 8 8 8 8 8 8 11 11 11 12 12 12 13 13 13 11 11 11 9 9 9 8 8 8 8 8 8 8 8 8 6 6 6 7 7 7 7 7 7 6 6 6 7 7 7 7 7 7 
47 44 35 41 41 33 42 42 34 43 43 35 11 11 9 6 6 6 9 7 8 10 10 10 10 10 12 9 9 7 8 8 8 28 24 21 44 41 32 45 42 35 45 45 35 47 47 39 49 46 39 49 36 30 49 9 9 50 22 18 50 46 37 47 47 39 39 36 29 8 8 8 10 10 10 9 9 9 7 7 7 4 4 4 43 42 37 49 48 43 47 46 41 46 43 36 46 43 34 48 44 33 49 45 34 49 45 36 48 45 36 49 46 37 29 28 24 8 8 8 9 9 9 8 8 8 8 8 8 8 8 8 17 17 17 49 49 39 48 48 38 49 46 37 48 44 33 45 39 27 50 6 7 48 9 10 48 38 29 49 42 32 51 44 36 15 16 11 5 5 3 5 5 5 4 6 5 6 6 6 8 8 6 9 9 9 8 8 8 7 7 7 9 9 7 24 24 22 32 33 28 7 7 5 7 7 7 7 7 7 6 6 6 8 8 8 8 8 8 8 8 8 7 7 7 9 9 9 9 9 9 9 9 11 9 9 9 8 8 8 8 8 8 8 6 7 8 7 5 31 30 25 43 43 35 23 22 18 12 10 11 11 11 11 13 13 11 11 11 11 9 9 9 9 9 9 8 8 8 7 7 7 8 6 7 6 6 6 6 6 6 7 5 6 8 6 7 6 6 6 
49 45 34 49 46 39 47 47 37 49 46 37 11 11 9 7 7 7 7 9 8 9 9 9 9 9 9 8 8 8 9 9 9 30 10 9 48 29 25 48 46 34 48 45 36 48 46 34 46 43 34 48 35 29 48 17 15 49 40 33 50 46 37 47 47 39 50 48 36 45 42 35 9 9 7 9 9 11 8 8 8 7 7 7 42 41 37 49 49 41 50 47 38 50 47 40 49 47 35 48 46 34 48 45 36 47 47 39 51 48 39 50 48 36 45 45 37 31 30 25 9 7 8 7 7 7 6 8 5 7 7 5 18 16 17 50 47 38 45 45 35 47 44 35 48 46 34 46 42 33 47 7 7 49 5 6 46 36 26 48 46 33 16 17 12 7 7 7 4 4 6 8 4 5 7 7 5 7 7 7 8 8 8 9 9 9 8 8 8 7 7 9 7 7 7 10 8 9 24 23 18 44 44 36 32 33 27 7 7 7 6 6 6 8 8 8 10 10 10 7 7 7 6 6 6 10 10 8 9 9 11 10 9 7 10 10 10 10 10 10 8 8 8 8 8 6 36 33 28 46 41 35 47 47 37 25 24 20 12 10 11 11 11 9 11 11 9 12 12 12 10 10 10 10 10 10 8 8 8 6 6 6 6 6 6 5 5 5 5 5 5 6 6 6 6 6 6 6 6 6 
49 45 36 51 48 39 47 47 37 47 22 17 38 30 27 14 14 12 7 9 8 8 6 7 7 7 7 7 5 6 27 9 9 44 8 8 50 27 21 48 44 32 46 43 34 46 43 34 47 43 32 47 40 30 48 38 29 50 43 35 49 45 36 46 46 34 48 48 40 51 48 41 7 7 7 9 9 9 10 10 12 8 8 8 42 42 34 47 47 39 50 47 40 48 45 38 49 46 37 49 46 37 50 47 38 48 48 38 50 47 38 50 47 38 51 48 39 33 32 30 8 6 7 8 8 8 7 7 7 7 5 6 16 16 14 49 46 37 48 44 35 48 46 33 48 45 36 50 43 35 48 35 26 47 34 26 46 42 30 47 45 32 10 9 7 5 5 7 5 5 5 6 6 6 7 7 7 7 7 7 7 7 9 7 7 9 8 8 8 7 7 7 7 7 7 18 18 16 43 42 37 49 49 41 39 40 34 7 7 7 7 7 5 8 8 8 9 9 7 5 5 3 5 5 5 9 9 9 8 8 8 9 8 6 11 11 11 8 6 7 8 8 8 8 8 8 38 35 30 49 45 34 33 30 25 12 12 12 11 11 11 10 10 10 10 10 12 12 12 10 12 12 12 11 11 11 9 9 9 8 8 8 4 4 4 4 4 4 4 4 4 5 5 5 6 6 6 6 6 6 
49 42 34 48 45 36 49 21 18 46 6 4 49 15 14 40 31 26 15 15 13 6 8 7 6 6 6 27 23 20 46 18 15 47 19 15 48 38 29 47 43 34 46 42 33 47 43 34 48 41 31 47 43 34 48 44 35 50 43 35 48 44 35 48 48 40 48 48 40 50 47 42 7 7 7 9 9 9 9 9 9 34 33 28 49 45 36 48 45 36 48 45 36 49 46 39 48 45 36 49 46 37 49 30 26 50 32 28 50 47 38 50 47 40 49 49 41 33 34 29 7 7 7 8 6 9 8 7 5 6 6 8 16 15 13 51 42 35 46 43 34 47 44 35 47 47 35 49 46 37 46 44 32 48 44 33 51 44 34 46 44 32 9 9 7 6 4 7 5 5 5 6 6 6 7 7 7 8 6 7 8 8 10 7 7 7 7 7 5 6 6 4 6 6 6 13 13 13 28 29 24 40 39 34 14 14 12 8 8 8 6 6 4 7 7 5 6 6 8 5 5 3 5 5 7 6 6 6 6 6 6 9 9 9 11 9 10 5 5 5 5 5 5 8 6 7 16 15 13 38 35 30 23 22 18 10 8 9 9 9 9 9 9 9 8 8 8 11 11 9 13 13 13 11 13 12 10 10 10 6 6 6 4 4 4 4 4 4 5 5 5 5 5 5 5 5 5 5 5 5 
47 43 34 47 45 33 49 10 11 45 7 6 47 5 6 49 36 30 42 39 32 38 35 30 37 34 25 47 40 30 47 34 28 46 36 27 48 39 30 49 42 32 48 41 31 49 42 34 51 42 35 50 43 35 48 43 37 48 44 35 47 43 34 46 46 38 48 49 41 50 49 44 39 38 33 39 38 34 40 39 34 47 46 41 47 44 35 48 44 35 49 46 39 46 46 38 49 45 36 50 46 37 48 23 19 48 14 13 51 32 28 48 47 42 51 48 41 44 43 38 38 37 32 27 26 22 15 13 14 39 34 28 40 35 31 49 42 32 49 42 34 47 44 35 49 46 37 48 45 36 47 43 32 48 46 34 49 47 35 21 20 16 5 5 5 5 5 5 5 6 8 7 7 7 7 7 7 8 8 8 8 8 8 6 6 6 7 7 7 7 7 7 7 7 7 7 7 7 11 11 9 14 14 12 6 6 6 6 6 8 6 6 6 4 4 4 4 4 4 4 4 4 6 6 6 7 7 7 6 6 6 8 8 8 7 7 7 4 4 4 5 5 5 6 6 6 7 7 7 16 14 15 9 8 6 7 7 7 9 9 11 8 8 8 10 10 10 11 13 12 12 12 12 11 9 10 9 9 9 6 6 6 4 4 4 4 4 4 5 5 5 4 4 4 5 5 5 6 6 6 
46 46 34 46 46 34 45 30 23 45 9 9 48 28 21 45 43 31 48 45 36 48 45 36 48 44 33 48 42 30 48 41 31 48 39 30 47 39 28 48 39 30 48 41 31 47 43 32 50 43 35 49 44 38 48 44 35 47 43 32 48 44 35 49 45 36 48 48 40 50 47 40 49 49 41 49 49 41 50 47 42 49 25 21 48 20 16 49 42 34 48 45 36 49 47 35 49 46 37 50 47 38 51 38 32 49 19 17 48 27 22 50 47 38 49 49 39 50 47 40 49 46 39 43 40 31 36 31 25 48 41 33 50 43 35 47 43 34 48 44 35 46 42 31 49 46 37 47 47 37 47 45 33 50 48 36 25 24 20 8 8 6 5 5 5 6 4 5 7 5 6 8 8 8 7 7 7 7 7 5 7 7 7 5 5 5 6 6 6 6 6 6 6 6 6 7 7 7 6 6 6 7 7 7 7 7 7 6 6 6 6 6 6 6 6 6 4 4 2 3 3 3 5 5 5 6 6 6 8 8 8 8 8 8 7 7 7 4 4 4 5 5 5 4 4 4 7 7 7 8 8 8 8 8 6 6 6 6 7 7 7 7 7 7 9 9 9 11 11 11 11 11 13 8 8 8 7 7 7 6 6 6 4 4 4 3 3 3 4 4 4 4 4 4 6 6 6 6 6 6 
46 46 34 48 50 39 48 44 35 47 34 25 46 42 31 49 47 35 46 46 36 48 45 36 48 44 33 48 41 31 48 41 33 48 39 30 47 38 29 47 38 29 46 39 31 50 43 33 49 45 36 49 45 36 48 35 29 48 20 16 51 23 20 48 43 37 49 46 37 48 48 38 48 48 40 48 48 40 48 45 38 51 12 13 47 7 7 48 41 35 48 44 35 49 45 36 47 47 39 47 47 39 48 47 42 48 37 33 48 39 30 49 46 39 50 47 40 49 46 39 49 46 37 50 45 39 46 44 32 48 44 35 48 44 35 51 44 36 47 45 33 46 41 35 23 22 20 23 22 18 23 22 18 23 22 17 9 7 8 6 6 6 4 4 2 4 4 4 7 5 6 6 6 4 6 6 6 7 6 4 6 6 8 5 5 5 5 5 5 6 6 6 7 7 7 8 8 8 7 7 7 6 6 6 6 6 6 7 7 7 7 7 7 8 8 6 6 6 6 3 3 3 3 3 3 6 6 6 10 10 10 10 10 12 7 5 6 5 5 5 5 5 5 6 5 3 7 7 7 7 7 5 9 9 7 9 8 6 5 5 5 5 7 6 10 10 8 10 10 10 10 10 10 7 7 7 6 6 6 5 5 5 5 5 5 4 4 4 3 3 3 5 5 5 5 5 5 6 6 6 
49 45 36 47 47 37 50 47 40 48 48 40 50 47 38 48 45 38 49 46 37 48 44 35 48 44 35 49 42 34 46 39 31 46 37 28 47 38 29 46 37 30 46 39 29 48 39 30 49 42 34 48 44 33 47 34 28 50 6 7 47 9 8 48 24 20 48 45 38 48 48 40 48 48 40 49 46 39 46 46 38 49 34 27 49 30 24 48 44 35 49 46 37 48 48 38 47 47 39 48 48 40 47 46 41 48 45 38 48 45 36 49 46 39 50 45 39 48 45 38 50 46 35 48 45 36 47 43 34 50 43 33 50 43 37 48 44 35 44 41 32 20 16 13 5 5 5 6 6 6 6 6 6 8 8 6 8 8 8 6 6 6 4 4 4 4 6 5 6 6 4 6 6 6 7 7 7 7 7 7 5 5 5 4 4 4 5 5 5 5 5 5 5 5 5 7 7 7 6 6 6 6 6 6 5 5 5 6 6 6 8 8 8 9 9 9 8 8 8 4 4 4 4 4 4 7 7 7 12 10 11 9 9 9 6 6 6 7 7 7 5 5 7 5 5 5 6 6 6 8 8 8 9 9 9 7 7 7 7 7 7 7 7 7 9 9 7 10 10 10 9 9 11 7 7 9 6 6 6 6 6 6 5 5 5 4 4 4 4 4 4 6 6 6 5 5 5 5 5 5 
26 27 22 49 45 36 50 47 40 50 47 40 48 48 40 50 47 38 48 45 36 48 44 35 47 43 34 47 43 34 46 39 29 45 30 25 47 22 18 46 31 24 46 39 31 48 39 32 47 40 32 43 39 30 34 20 19 49 11 10 49 23 22 49 28 23 49 46 39 49 49 39 49 46 41 49 47 35 48 45 36 50 47 38 49 46 37 50 47 40 50 47 40 47 47 39 32 31 27 27 28 23 28 27 23 39 38 33 48 45 36 48 48 40 50 47 40 49 46 37 48 45 36 48 46 34 50 43 35 48 44 35 47 43 34 44 42 30 25 24 20 7 7 7 5 7 6 6 6 6 6 6 4 6 6 8 7 7 9 6 6 6 4 4 4 5 5 5 5 5 5 7 7 7 19 20 15 13 13 11 5 5 5 4 4 4 6 4 5 6 4 5 6 6 6 6 6 6 6 6 6 6 6 6 6 6 6 6 6 6 6 6 6 8 8 10 8 8 6 5 5 5 5 5 5 8 8 8 9 9 11 9 7 8 4 4 6 6 6 6 6 6 6 7 7 7 6 6 4 7 7 7 8 8 8 7 7 7 7 7 7 7 7 7 8 8 6 8 8 8 8 6 7 6 6 6 6 6 6 6 6 6 4 4 4 4 4 4 4 4 4 6 6 6 6 6 6 3 3 3 
8 8 8 27 26 22 44 44 34 48 45 36 49 49 39 46 48 37 48 44 35 48 44 35 48 44 35 50 43 35 47 40 30 45 21 17 46 7 8 47 23 19 47 40 32 38 33 27 27 22 18 21 20 15 17 12 9 49 31 27 50 43 37 48 45 36 49 46 39 49 46 39 49 46 41 48 48 40 48 48 38 50 47 40 50 47 38 49 46 41 49 49 41 47 46 41 17 15 16 6 6 6 7 7 7 20 21 16 38 37 32 49 49 41 50 47 40 48 45 38 48 45 36 49 46 37 49 44 40 44 41 34 29 25 22 24 25 19 7 7 7 6 6 6 6 6 6 5 5 5 7 5 8 6 6 8 6 6 6 5 5 5 5 3 4 4 4 4 3 3 3 21 22 17 41 41 31 21 21 19 4 4 4 5 3 4 5 3 4 5 3 4 5 5 5 6 6 6 6 6 6 6 6 4 5 5 5 5 5 5 6 6 6 7 7 5 6 6 6 6 6 6 6 6 6 25 26 21 7 7 7 5 5 5 6 6 6 6 6 6 6 6 6 6 6 4 7 7 5 6 6 6 7 7 7 8 6 9 7 5 8 8 6 9 7 7 7 6 6 6 6 6 6 6 6 6 5 5 5 5 5 5 6 6 6 4 4 4 6 6 6 7 7 7 5 5 5 3 3 3 
8 8 10 27 26 22 46 44 32 49 46 37 48 29 25 48 27 24 47 28 22 47 40 32 48 43 37 48 44 35 48 41 31 44 31 23 46 15 13 47 23 21 45 41 30 33 28 24 8 8 8 6 6 6 17 16 14 48 45 38 48 44 35 49 46 37 48 47 42 48 45 38 48 45 38 49 46 37 48 45 36 50 47 38 48 48 40 51 48 43 49 48 43 33 32 28 12 11 9 7 7 7 7 7 9 9 7 10 16 17 12 37 38 32 48 45 36 49 46 37 48 45 36 49 46 37 50 47 40 37 37 29 7 7 7 7 7 7 6 6 8 8 8 8 7 6 4 5 5 5 5 5 5 7 5 8 6 6 8 5 5 5 5 5 7 5 5 5 19 18 13 43 40 31 49 47 35 22 21 17 5 5 5 5 5 5 4 4 4 4 4 4 6 6 6 6 6 6 5 5 5 5 5 5 7 5 6 5 5 5 7 5 8 6 6 6 7 7 9 6 6 6 26 25 20 50 43 35 6 6 6 5 5 5 7 7 7 6 6 6 7 7 7 8 8 8 8 8 8 8 8 8 7 7 7 7 7 7 7 5 6 6 6 6 6 6 6 6 6 6 6 6 6 6 4 5 5 5 5 6 6 6 5 5 5 5 5 5 7 7 7 7 7 7 5 5 5 3 3 3 
8 8 8 49 42 34 45 45 35 49 46 37 47 11 11 49 9 9 49 9 10 49 34 29 47 43 34 48 44 33 46 39 31 45 38 30 47 30 23 47 30 22 45 41 30 33 30 23 8 8 8 13 12 10 27 26 21 48 45 36 50 43 35 48 45 36 50 47 40 48 45 38 48 45 38 50 43 35 49 45 36 49 46 37 49 46 39 51 48 43 48 48 40 17 19 16 7 7 7 6 8 7 6 7 9 6 6 8 6 6 6 19 18 16 38 38 30 48 45 36 47 44 35 48 45 36 45 42 35 28 27 23 8 8 8 8 8 8 7 5 6 6 6 6 5 5 3 5 5 5 7 7 9 6 6 6 7 7 7 6 6 4 6 6 8 5 5 5 23 22 18 30 29 24 31 31 23 15 15 13 5 5 5 7 7 7 6 6 6 4 4 4 5 5 5 5 5 5 5 5 5 6 6 6 7 7 7 6 6 6 6 6 6 5 5 5 5 5 5 5 5 5 31 30 26 31 31 23 6 6 6 6 6 6 6 6 6 6 6 6 7 7 7 7 7 7 8 8 8 8 8 8 8 8 8 7 7 7 6 6 6 6 6 6 6 6 6 6 6 6 6 6 6 6 6 6 5 5 5 8 8 8 8 8 8 5 5 5 7 7 7 7 7 7 6 6 6 5 5 5 
23 20 15 46 42 31 47 47 37 47 44 37 46 10 12 48 6 7 48 19 15 48 35 29 49 45 36 50 43 35 43 39 28 45 38 30 48 41 31 48 44 33 48 41 33 39 34 28 25 21 18 26 27 21 50 47 38 49 45 36 48 43 37 50 43 37 48 44 35 48 48 40 50 45 39 48 41 33 47 43 34 48 43 37 49 34 29 49 31 27 49 31 27 18 17 13 9 7 10 8 8 8 6 6 6 6 6 6 5 5 5 5 3 4 18 17 13 30 30 22 29 28 23 30 29 24 27 26 21 8 6 7 7 7 7 9 7 8 7 7 7 7 5 6 4 4 4 5 5 5 6 6 8 7 7 5 6 6 6 6 6 6 6 6 8 6 6 4 6 7 2 4 4 6 4 4 6 5 5 7 5 5 5 8 8 8 8 8 8 5 5 5 5 5 5 5 5 5 5 5 5 6 6 6 8 6 7 7 7 7 6 6 6 4 6 5 4 4 4 6 4 5 4 4 4 5 5 3 5 5 5 6 6 6 7 7 7 6 6 6 7 7 7 7 7 7 8 8 8 8 8 8 9 9 9 7 7 7 5 5 5 6 6 6 7 7 7 7 5 6 6 6 6 6 6 6 6 6 6 7 7 7 8 8 8 7 7 7 7 7 7 6 6 6 7 7 7 7 7 7 
46 39 29 48 41 31 47 44 35 47 44 37 46 22 18 47 19 15 47 37 28 46 43 34 47 42 36 48 44 33 47 40 30 46 39 31 46 42 31 48 41 33 49 42 34 48 44 35 48 44 35 47 44 35 48 48 40 47 47 39 48 45 36 50 43 35 48 33 28 50 47 38 48 44 35 44 37 29 47 40 32 48 41 33 48 14 12 48 8 9 48 8 8 20 10 9 9 9 9 8 8 8 6 6 6 4 4 4 4 4 4 3 3 3 4 2 3 3 1 2 3 5 4 5 5 5 8 8 8 7 7 9 8 8 8 6 6 8 6 6 6 6 6 6 5 5 7 6 4 5 6 6 4 6 6 6 6 6 6 6 6 4 5 5 5 6 6 6 6 6 6 5 5 5 4 4 4 5 5 3 6 6 6 7 7 7 6 6 6 4 4 4 3 3 3 4 4 4 4 4 4 4 4 4 6 4 5 5 5 5 4 4 4 5 5 5 4 4 2 5 5 3 5 5 5 4 4 4 4 4 4 6 6 6 5 5 5 5 5 5 5 5 5 6 6 6 8 8 8 8 8 8 9 9 9 8 8 8 7 7 7 7 7 7 7 7 7 9 5 6 5 5 5 4 4 4 4 4 4 7 7 7 8 8 8 5 5 5 7 7 7 7 7 7 6 6 6 6 6 6 
48 42 30 47 39 28 48 41 31 47 45 33 47 43 31 48 44 33 47 43 32 47 43 34 48 44 35 47 44 37 48 41 33 45 41 32 46 39 31 49 42 34 47 43 34 48 45 36 47 46 41 49 46 39 47 46 41 49 46 39 48 44 35 49 31 27 49 15 13 50 37 29 47 40 32 42 35 29 46 35 29 42 35 27 39 10 12 38 8 8 38 8 10 18 9 10 8 10 9 7 7 9 7 5 6 5 5 7 5 5 5 4 4 4 4 4 4 2 4 3 4 4 4 6 6 6 6 6 4 6 6 6 7 7 7 7 7 7 7 7 7 6 6 6 6 4 5 6 6 8 6 6 4 5 3 4 5 3 4 6 6 6 5 5 5 6 6 6 5 5 5 4 4 4 5 5 5 7 7 7 7 7 7 6 6 6 5 5 5 4 4 4 3 3 3 4 4 4 5 5 5 4 4 4 4 4 4 4 4 4 4 4 4 5 5 5 6 6 6 5 5 5 6 6 8 4 4 6 4 4 4 5 5 5 5 5 5 4 4 4 5 5 5 6 6 6 9 9 9 8 8 8 6 8 7 7 7 7 7 7 7 8 8 8 8 8 8 7 5 6 5 5 5 5 5 5 5 5 5 7 7 7 8 8 8 6 6 6 6 6 6 7 7 7 7 7 7 4 4 4 
47 40 30 46 39 29 47 40 30 48 44 33 48 46 33 49 45 36 47 43 34 48 41 31 48 44 35 50 46 37 47 44 37 47 40 32 47 40 30 48 41 31 47 40 32 48 37 31 50 47 40 49 48 44 48 48 40 47 44 35 48 39 30 48 10 9 49 7 8 38 8 8 37 34 27 36 31 27 38 31 25 11 9 10 9 7 8 7 9 8 8 8 8 9 9 7 8 8 8 6 6 6 5 5 5 6 6 6 5 5 5 6 4 7 4 4 6 4 4 4 5 5 5 5 5 5 6 6 6 6 6 6 6 6 6 8 8 6 7 9 6 7 7 7 6 4 5 6 8 7 5 5 3 4 4 4 4 4 4 6 6 6 5 5 5 5 5 5 5 5 7 5 5 5 6 6 4 7 5 6 6 6 6 5 5 5 5 5 5 5 5 5 3 3 3 3 3 3 4 4 4 4 4 4 4 4 4 4 4 4 5 5 5 7 7 7 6 6 6 6 4 5 7 5 6 5 5 5 4 4 4 4 4 4 3 3 3 4 4 4 5 5 5 7 7 7 9 9 9 8 8 8 7 7 7 7 7 7 7 7 7 8 8 8 7 7 7 7 5 6 6 6 6 6 6 6 6 6 6 9 9 9 8 8 8 6 6 6 6 6 6 7 7 7 6 6 6 5 5 5 
48 41 31 45 41 30 46 39 29 49 42 32 48 46 34 49 46 37 39 36 27 36 33 26 36 36 28 44 41 34 47 44 35 46 42 33 46 39 29 46 36 27 48 20 17 48 18 16 49 40 33 50 49 45 48 48 40 48 45 38 47 38 33 47 16 13 32 6 9 6 8 5 7 6 11 9 7 8 7 7 7 7 7 7 7 7 5 7 7 7 8 8 10 8 8 8 7 7 5 12 10 11 12 10 11 5 7 6 6 6 6 7 5 6 5 3 4 4 4 4 5 5 5 4 4 4 5 5 5 7 5 6 7 7 7 6 6 6 7 7 7 6 6 8 5 5 5 16 15 11 16 15 11 5 5 5 5 5 5 6 6 6 6 6 6 8 6 7 7 7 9 7 7 7 6 6 6 6 4 5 6 6 6 6 4 5 5 5 5 5 5 5 3 3 3 2 2 2 4 2 3 5 5 5 4 4 2 5 3 4 5 5 5 6 6 6 5 5 5 6 6 8 7 5 6 4 4 4 4 4 4 3 3 3 4 4 4 6 6 6 8 8 8 8 8 8 8 8 8 8 8 8 8 8 8 7 7 7 8 6 7 7 7 7 7 7 7 7 5 6 6 6 6 8 6 7 8 8 8 8 8 8 8 8 8 7 7 7 6 6 6 5 5 5 6 6 6 6 6 6 
47 43 32 45 41 29 46 38 27 47 40 30 50 43 35 48 46 34 18 17 13 7 7 9 6 6 6 28 27 23 42 37 31 43 38 32 45 38 28 46 21 17 48 7 5 49 9 9 48 22 21 49 48 43 50 47 40 49 46 39 47 42 36 37 32 26 6 6 6 7 7 5 8 8 8 7 7 7 7 7 5 6 6 6 4 4 4 5 5 5 7 7 7 8 8 8 13 12 10 35 32 27 20 19 15 4 6 5 5 5 5 5 5 5 5 5 5 4 4 4 6 6 6 4 4 4 4 4 6 6 6 4 7 5 6 6 6 6 5 5 5 5 5 5 4 4 4 43 39 28 47 43 32 9 9 9 6 6 6 6 6 6 6 6 6 7 7 7 9 7 8 8 6 7 6 6 8 5 7 6 6 6 6 6 4 5 4 4 4 5 3 4 5 3 4 3 3 3 5 3 4 8 8 8 7 8 3 4 4 4 5 5 7 6 6 4 5 5 5 5 5 5 5 5 5 5 5 5 3 3 3 5 5 5 5 5 5 6 6 6 7 7 7 8 8 8 8 8 8 7 7 7 7 7 7 8 8 8 7 7 7 7 7 7 6 6 6 6 6 6 7 7 7 9 7 8 7 7 7 7 7 7 7 7 7 6 6 6 6 6 6 4 4 4 5 5 5 6 6 6 
48 41 31 45 41 29 46 39 29 48 42 30 48 44 33 48 45 36 17 17 15 7 7 7 8 7 5 8 6 9 7 7 7 25 22 17 46 37 28 46 22 18 47 7 8 48 8 9 49 24 20 50 47 38 48 48 40 49 46 37 43 38 32 7 7 7 8 6 7 9 7 8 8 8 8 7 7 5 6 6 4 4 4 2 4 4 4 5 3 4 6 6 6 7 7 7 39 36 29 47 44 35 24 23 19 7 7 7 4 4 4 5 5 5 5 5 5 5 5 5 6 6 6 6 6 6 6 6 6 6 6 6 6 6 6 6 6 4 4 4 4 4 4 4 4 4 2 10 9 7 49 42 32 43 39 30 10 10 10 7 7 7 6 6 6 6 6 4 6 6 6 6 6 6 6 6 6 6 6 6 6 4 5 5 5 7 5 5 7 6 4 5 3 3 3 3 3 3 17 16 12 43 39 28 33 30 23 5 5 5 7 7 7 8 6 7 6 6 6 4 4 2 5 3 4 4 4 4 4 4 4 3 3 3 5 5 5 7 7 7 8 8 8 7 7 7 8 8 8 8 8 8 8 8 8 8 8 8 6 6 6 6 6 6 7 7 7 6 6 6 7 7 7 8 8 8 8 8 8 7 7 7 6 6 6 7 7 7 5 5 5 4 4 4 5 5 5 5 5 5 
48 35 27 47 40 30 47 39 28 49 42 32 47 44 35 47 44 35 18 17 15 8 8 8 7 7 7 7 7 7 7 7 7 26 23 18 48 38 29 47 38 29 45 28 20 46 21 16 47 43 34 46 46 36 47 47 37 47 44 35 36 35 30 7 7 7 7 7 7 8 8 8 9 9 11 8 8 6 7 7 7 4 4 2 4 4 4 5 5 5 5 5 5 6 7 2 31 30 25 46 42 31 47 43 34 22 21 17 6 6 6 5 5 5 6 6 6 7 7 7 7 7 7 6 6 6 6 6 6 7 7 7 7 5 8 6 6 6 5 5 7 5 5 5 5 5 5 41 37 26 44 37 29 5 5 7 6 6 8 6 6 6 5 5 5 4 4 4 5 5 5 6 6 6 5 5 5 4 4 2 5 5 5 4 4 4 5 5 5 5 5 5 3 3 3 3 3 3 15 14 12 33 30 25 4 4 4 7 7 7 9 9 9 7 5 6 5 5 7 6 4 5 5 3 4 4 4 6 4 4 4 4 4 4 6 6 6 8 8 8 8 8 8 8 8 8 9 9 9 8 8 8 8 8 8 7 9 8 6 6 6 5 5 5 6 6 6 7 7 7 6 8 7 7 7 7 7 7 7 6 6 6 5 5 5 6 4 5 4 4 4 5 3 4 5 5 5 5 5 5 
47 5 7 47 40 30 46 39 29 46 42 30 48 44 35 50 46 35 19 17 18 8 8 6 7 7 7 7 7 7 7 7 7 26 23 18 46 39 29 46 39 29 46 37 28 45 41 30 45 41 30 48 41 31 47 47 37 37 37 29 7 7 7 5 5 5 8 7 5 8 8 8 10 8 9 9 9 7 5 5 5 3 3 3 4 2 3 5 5 5 5 5 5 5 5 5 8 7 5 32 29 22 48 44 33 21 20 16 5 5 7 5 5 7 6 6 6 7 7 7 6 6 6 6 6 6 7 7 9 7 7 9 6 8 7 5 5 5 5 5 5 5 3 4 4 4 4 5 5 7 6 6 6 5 3 4 4 4 4 4 4 4 4 4 6 3 3 5 5 5 5 6 6 4 6 6 6 5 5 5 4 4 4 6 4 5 5 3 4 5 3 4 3 3 3 2 2 2 3 3 3 4 4 4 5 5 5 8 8 6 9 9 9 6 6 8 4 4 4 4 4 2 5 5 5 3 5 4 5 5 5 5 5 5 7 7 7 9 9 9 8 8 8 9 9 9 9 9 9 9 9 9 9 9 9 7 7 7 6 6 6 5 5 5 6 6 6 7 7 7 7 7 7 6 6 6 6 4 5 5 5 5 6 4 5 5 5 5 4 4 4 4 4 4 4 4 4 4 4 4 
46 6 6 45 45 33 46 42 33 48 41 31 46 44 32 47 47 35 49 45 34 20 16 15 7 7 7 6 6 4 7 7 7 6 6 6 4 5 7 5 5 7 22 19 14 48 41 33 47 40 30 48 42 28 36 36 24 6 6 6 6 6 4 8 6 7 8 8 8 8 8 8 8 7 5 7 7 5 6 7 9 4 4 4 6 4 5 5 3 4 4 4 4 6 6 6 4 6 5 7 5 6 6 4 5 5 5 5 6 6 6 7 7 7 7 7 7 6 6 6 6 6 6 6 6 6 6 6 6 7 7 7 8 8 6 7 6 4 4 4 2 4 4 4 4 4 4 6 4 5 6 6 6 4 4 4 2 2 2 3 3 3 4 4 4 5 5 5 4 4 4 5 5 5 4 4 4 4 4 6 4 4 4 4 4 4 4 4 4 5 3 4 6 4 5 5 3 4 4 4 4 5 5 5 5 5 5 6 6 6 7 7 7 6 6 6 4 4 4 5 5 5 5 5 7 5 5 5 6 6 6 6 6 6 8 8 8 10 10 10 9 9 9 8 8 8 9 9 9 8 8 8 9 7 8 8 8 8 7 7 7 6 6 6 5 5 5 6 6 6 5 5 5 7 5 6 5 5 5 6 4 5 6 6 6 6 4 5 6 6 6 4 4 4 4 4 4 5 5 5 
