P3
100 50
255
4 4 4 6 6 6 6 6 6 6 6 6 7 5 6 6 6 6 7 7 7 4 4 4 4 4 4 3 3 3 8 8 8 11 11 11 10 10 10 7 7 7 8 8 8 13 13 13 12 12 12 9 9 9 8 8 8 9 9 9 9 9 9 10 10 10 10 10 10 11 11 11 10 10 10 9 9 9 7 7 7 5 5 5 4 2 3 6 4 7 6 6 6 5 5 7 9 7 8 9 7 8 10 8 9 11 9 10 10 8 9 8 6 7 7 5 6 8 6 7 7 5 8 7 5 6 6 4 5 5 3 4 6 5 3 6 6 6 8 8 8 11 9 10 9 9 9 6 6 6 5 5 5 4 4 4 5 5 5 10 8 9 11 11 11 10 10 10 10 8 9 8 8 8 5 5 5 7 5 6 7 7 7 9 5 6 5 5 7 6 6 6 7 7 7 7 7 7 6 6 6 5 5 5 7 7 7 9 9 9 8 8 8 7 7 7 9 7 8 10 8 11 8 8 8 9 7 8 12 11 9 13 13 13 10 10 10 9 9 9 10 8 9 9 9 9 8 8 8 8 6 7 7 7 7 8 8 8 9 9 9 8 8 8 8 8 8 7 7 7 8 8 8 10 9 7 6 6 6 4 4 4 5 3 4 5 3 4 5 5 5 7 7 7 6 6 6 7 7 7 
6 6 6 8 8 8 6 6 6 6 6 6 6 4 5 5 5 5 7 7 7 5 5 5 5 5 5 4 4 4 7 7 7 9 9 9 7 7 7 9 9 9 12 12 12 13 13 13 12 12 12 9 9 9 7 7 7 7 7 7 7 7 7 8 8 8 10 10 10 13 13 13 14 12 13 8 6 7 6 4 5 7 7 9 7 7 7 5 5 5 6 6 8 6 4 5 6 6 6 8 8 8 11 11 11 12 12 12 9 9 9 6 6 6 6 6 6 6 6 6 7 7 7 6 6 4 6 6 6 5 5 5 6 6 6 6 6 6 7 7 7 11 9 10 10 10 10 8 8 8 4 4 4 6 6 6 7 7 7 9 7 8 11 11 11 10 10 10 9 7 8 7 7 7 6 6 6 7 7 7 9 7 8 6 6 6 7 5 6 9 7 8 6 6 6 6 6 6 8 8 8 8 8 8 7 7 7 7 7 7 7 7 7 8 8 8 10 8 9 8 8 10 6 6 6 8 8 10 10 10 10 12 10 11 11 9 10 11 9 10 9 9 9 8 8 8 8 6 7 7 7 7 8 8 8 8 8 8 7 7 7 7 7 7 8 8 8 8 8 8 9 9 9 8 8 8 6 4 5 4 5 7 6 6 6 7 5 6 5 5 5 8 8 8 7 5 6 7 7 7 
9 9 9 7 7 7 6 6 6 5 5 5 5 5 5 5 5 5 6 6 6 6 6 6 5 5 5 5 5 5 8 8 8 7 7 7 6 6 6 10 10 10 13 13 13 11 11 11 10 10 10 9 9 9 7 7 7 7 7 7 6 6 6 8 8 8 9 9 9 11 11 11 11 11 11 9 7 8 7 7 7 6 6 8 7 7 7 5 5 5 5 5 5 5 7 6 7 5 6 9 7 8 13 11 12 12 10 11 9 7 8 7 5 6 6 4 5 6 4 5 7 7 7 6 6 6 5 3 4 6 5 3 6 6 6 7 7 7 7 7 9 9 9 9 8 8 8 8 8 8 9 7 8 9 9 9 8 8 8 9 9 9 8 8 8 8 8 8 7 9 8 8 6 7 8 6 7 6 6 4 7 7 7 7 7 7 7 7 7 7 7 7 5 5 5 5 5 5 8 8 8 8 8 8 7 7 7 6 6 6 7 7 7 7 7 7 9 9 9 8 8 8 6 4 5 8 8 8 9 7 8 12 10 11 11 11 11 10 10 10 10 10 10 8 8 8 7 5 6 7 7 7 9 9 9 8 8 8 7 7 7 8 6 7 6 6 6 8 8 8 8 8 6 6 6 6 5 5 5 5 5 5 7 7 7 8 8 6 7 7 7 7 7 7 7 5 6 7 7 7 
12 10 11 8 8 8 5 5 5 6 6 6 6 6 6 6 6 6 7 7 7 7 7 7 6 6 6 5 5 5 8 8 8 7 7 7 5 5 5 7 7 7 10 10 10 11 11 11 11 11 11 10 10 10 7 7 7 7 7 7 6 6 6 8 8 8 9 9 9 8 8 8 10 8 9 9 7 8 6 6 8 8 6 7 6 6 6 7 5 6 6 4 5 6 6 6 9 9 9 9 9 9 10 10 10 10 10 10 10 10 10 9 9 9 8 8 8 5 5 5 5 5 5 5 5 5 6 4 5 4 6 5 7 5 6 6 4 5 7 7 9 7 7 9 6 6 6 6 6 6 10 8 9 10 10 10 7 7 7 7 7 7 5 5 5 6 6 6 12 10 11 10 10 10 6 6 6 7 7 7 7 7 7 8 8 8 8 8 8 7 7 7 5 5 5 5 5 5 7 7 7 8 8 8 8 8 8 6 6 6 6 6 6 7 7 7 8 8 8 8 8 10 6 6 6 5 5 5 8 8 8 9 9 9 10 10 10 12 12 14 9 9 9 8 6 7 5 5 5 6 6 6 7 7 7 7 7 7 7 7 7 6 6 6 6 6 6 7 7 7 6 6 6 6 6 6 6 6 6 7 7 7 7 7 7 8 8 8 8 8 8 8 8 8 8 8 8 8 8 10 
10 8 9 10 8 9 8 8 8 7 7 7 6 6 6 5 5 5 6 6 6 7 7 7 7 7 7 6 6 6 6 6 6 6 6 6 6 6 6 6 6 6 7 7 7 9 9 9 11 11 11 11 11 11 8 8 8 8 8 8 8 8 8 7 7 7 9 9 9 8 8 8 10 8 9 7 7 7 5 5 5 6 4 5 6 4 5 5 7 6 6 6 6 5 5 3 8 8 8 12 12 12 11 11 11 11 11 11 11 11 11 10 10 10 7 7 7 6 6 6 6 4 5 27 6 3 49 5 6 6 6 4 9 9 9 8 8 8 6 6 6 6 6 6 6 6 6 6 6 6 10 8 9 9 9 9 7 7 7 6 6 6 6 6 6 7 7 7 13 13 11 11 9 10 43 8 6 29 7 9 8 8 8 7 7 7 7 7 7 6 6 6 5 5 5 6 6 6 10 10 10 11 11 11 7 7 7 6 6 6 7 7 7 7 7 7 6 6 6 8 8 8 6 8 7 61 5 6 9 9 11 9 9 9 9 9 9 9 9 9 7 7 7 6 4 5 7 5 6 5 7 6 7 7 7 8 6 7 6 6 6 6 6 6 7 5 6 6 6 8 7 5 6 25 7 5 45 6 7 10 6 7 9 9 9 8 8 8 10 10 10 10 10 10 8 8 8 7 7 9 
10 6 7 11 9 10 9 9 9 7 7 7 5 5 5 5 5 5 8 8 8 9 9 9 7 7 7 8 8 8 6 6 6 7 7 7 8 8 8 7 7 7 6 6 6 6 6 6 10 10 10 10 10 10 8 8 8 7 7 7 6 6 6 6 6 6 7 7 7 7 7 7 8 6 7 6 6 6 56 6 5 14 5 6 6 6 6 6 6 6 5 5 7 6 6 4 8 8 8 10 10 10 11 11 11 12 12 12 11 11 11 12 12 12 11 11 11 9 9 9 7 7 9 32 6 5 57 7 8 8 8 8 11 13 12 9 13 12 10 10 10 8 8 8 10 11 6 12 12 10 13 13 13 12 12 12 10 10 10 11 11 11 10 10 12 12 11 16 17 15 16 16 14 15 24 12 14 18 14 13 15 15 15 14 14 14 15 15 15 16 15 13 13 13 13 15 15 15 18 18 18 21 21 21 22 22 22 23 23 23 22 22 22 22 22 22 25 21 22 67 21 21 21 21 19 84 26 25 71 29 30 38 30 28 28 26 29 27 27 25 26 26 26 26 26 26 26 26 26 28 26 27 29 29 29 28 28 28 28 28 28 27 25 26 27 25 26 27 27 27 28 26 27 48 27 26 74 25 28 30 26 27 28 26 27 28 28 28 29 29 29 29 29 29 29 27 28 28 28 28 
5 5 5 9 9 9 9 9 9 7 7 7 5 5 5 5 5 5 9 9 9 13 13 13 11 11 11 10 10 10 7 7 7 8 8 8 9 9 9 7 7 7 5 5 5 5 5 5 8 8 6 8 8 8 10 8 11 8 8 8 9 7 8 7 7 7 7 7 7 8 8 8 7 7 7 9 5 6 25 6 8 6 6 6 5 5 5 7 7 7 6 4 5 6 4 5 6 6 6 7 7 9 9 9 9 13 13 13 26 26 28 25 25 27 25 25 25 25 25 25 26 24 25 32 23 24 35 23 23 27 25 26 37 37 37 38 38 38 37 39 38 35 35 35 35 37 34 38 38 38 42 40 41 39 37 38 36 36 36 37 37 37 38 38 40 39 39 39 41 41 41 42 42 42 41 41 41 45 45 45 65 65 65 65 65 65 65 65 65 66 66 66 65 65 65 65 65 65 66 66 68 81 83 82 127 127 127 127 127 127 126 128 127 126 126 126 128 126 127 136 127 128 128 128 128 146 137 138 173 167 167 168 168 166 166 166 166 162 166 165 166 166 166 166 166 166 166 166 166 168 168 170 173 173 173 174 174 176 173 173 173 173 173 173 173 173 173 174 174 174 173 173 173 175 171 172 170 166 167 166 166 166 167 167 167 167 167 167 168 168 168 168 168 168 166 166 166 161 161 161 
5 5 5 7 7 7 9 9 9 6 6 6 6 6 6 7 7 7 8 8 8 11 11 11 10 10 10 11 11 11 8 8 8 7 7 7 8 8 8 5 5 5 5 5 5 6 6 6 9 9 9 12 12 10 9 9 9 8 8 10 7 7 7 6 6 6 6 6 6 9 9 9 9 9 9 7 7 7 8 8 6 7 7 7 6 4 5 5 5 5 6 6 6 7 7 7 5 5 5 6 6 6 9 9 9 16 15 13 27 27 27 25 25 25 25 25 25 25 25 25 25 25 25 25 25 25 24 24 24 26 28 27 35 37 34 39 35 36 38 38 38 37 37 37 37 37 37 38 38 40 42 42 42 40 38 39 37 37 37 37 37 37 39 39 39 40 38 39 41 41 41 42 42 42 41 41 41 46 46 46 65 65 65 64 64 64 64 64 64 67 67 67 67 66 64 65 65 65 65 65 65 81 81 81 126 126 128 126 126 126 127 125 128 128 128 128 127 129 128 128 128 128 129 129 129 140 138 139 169 167 168 169 168 166 167 167 167 167 167 165 168 166 167 167 167 167 168 166 167 169 167 168 173 173 171 173 173 173 173 173 173 173 173 173 173 173 173 172 172 172 173 173 173 172 170 171 168 166 167 167 167 167 166 166 166 166 166 166 168 168 168 168 168 168 166 166 166 161 161 161 
6 6 6 7 7 7 9 9 9 8 8 8 7 7 7 7 7 7 8 8 8 10 10 10 9 9 9 9 9 9 8 8 8 7 7 7 8 8 8 6 6 6 6 6 6 6 6 6 8 8 8 12 10 11 9 9 9 8 6 7 6 6 6 6 5 3 7 7 7 10 10 12 10 10 10 9 9 7 9 9 7 8 8 8 5 5 5 7 7 7 8 8 8 8 8 8 7 7 7 9 7 8 11 11 11 16 16 16 29 27 28 26 24 25 25 25 25 26 24 25 25 25 25 24 26 25 28 28 30 29 29 29 37 37 37 37 37 37 38 39 34 40 38 39 38 40 39 37 37 37 40 40 40 38 38 38 38 36 37 39 39 37 39 39 39 41 39 40 41 41 41 42 42 42 41 41 41 47 47 47 66 66 66 65 65 65 64 64 64 66 66 66 67 65 66 65 65 63 65 65 65 81 81 79 128 126 127 127 125 126 127 125 126 127 127 127 128 128 128 128 128 128 128 128 128 139 139 139 169 167 168 167 167 167 168 168 168 167 169 168 168 168 168 167 167 167 167 167 167 168 168 168 173 173 173 173 173 173 173 173 173 173 173 173 173 173 173 173 173 173 174 174 174 172 172 172 167 167 167 167 167 167 166 166 166 166 166 166 166 166 166 168 168 168 166 166 166 161 161 161 
5 5 5 5 5 5 8 8 8 9 9 9 6 6 6 8 8 8 9 9 9 8 8 8 9 9 9 8 8 8 9 9 9 8 8 8 9 9 9 9 9 9 7 7 7 6 6 6 6 6 6 8 8 8 10 10 10 8 6 7 5 5 5 5 5 5 7 7 7 10 10 8 10 10 10 9 9 9 9 9 9 8 8 8 5 7 6 7 7 7 8 8 10 8 8 8 8 8 6 9 9 9 8 8 8 13 13 13 26 26 26 26 26 26 27 25 26 26 26 26 25 25 25 26 26 26 27 27 25 29 29 29 38 36 37 37 37 35 37 37 35 37 37 37 37 37 37 37 37 37 39 37 38 38 38 38 39 39 39 38 38 38 38 38 40 39 39 39 39 39 39 41 41 41 40 40 40 46 46 46 66 66 66 66 66 66 65 65 65 65 65 65 65 63 64 66 64 65 66 66 66 80 80 80 129 129 129 128 128 128 127 127 127 126 126 126 128 128 128 129 129 127 128 128 128 138 138 138 168 168 168 167 167 169 167 167 167 168 168 168 168 168 168 168 168 168 167 167 167 168 168 168 173 173 173 173 173 173 173 173 173 173 171 172 173 173 173 174 174 174 174 174 174 172 172 172 167 167 167 166 166 166 166 166 166 167 167 167 166 166 166 167 167 167 166 166 166 161 161 161 
4 4 4 6 6 6 7 7 7 8 8 8 8 8 8 9 9 9 7 7 7 7 7 7 8 8 8 9 9 9 9 9 9 8 8 8 9 9 9 11 11 11 9 9 9 7 7 7 8 8 8 7 7 7 8 8 8 8 8 8 8 6 7 4 4 4 5 5 5 8 8 8 9 9 9 9 9 9 9 9 9 8 8 8 6 8 7 7 7 5 8 6 7 8 8 8 8 8 6 8 8 8 9 9 7 12 12 12 25 25 25 25 25 25 25 25 25 26 26 26 26 26 26 25 25 25 24 26 25 29 29 31 39 39 39 41 39 40 38 38 40 38 38 38 36 36 36 37 37 37 38 36 39 39 37 38 40 39 37 38 36 37 38 38 38 37 37 37 39 39 39 40 40 40 40 40 40 46 46 46 65 65 65 66 66 66 66 66 66 65 65 65 66 66 66 67 65 66 67 67 67 81 81 81 129 129 129 127 129 128 127 127 125 127 127 127 128 128 128 129 129 129 129 129 129 138 138 140 167 167 169 168 168 168 166 168 167 168 168 166 168 166 167 167 167 167 168 168 168 168 168 168 172 172 172 173 173 173 173 173 173 172 174 173 173 173 173 174 174 174 173 173 173 171 171 171 166 166 166 166 166 166 167 167 167 167 167 167 166 166 166 166 166 166 166 166 166 161 161 161 
4 4 4 6 6 6 10 10 10 9 9 9 10 10 10 11 11 11 7 7 7 5 5 5 8 8 8 9 9 9 9 9 9 8 8 8 8 8 8 9 9 9 8 8 8 6 6 6 6 6 8 7 7 7 8 6 7 7 7 5 7 5 6 5 5 5 6 4 5 7 7 9 9 7 10 11 9 12 10 10 10 9 7 8 7 7 7 8 8 8 7 9 8 10 9 7 9 9 9 8 8 8 8 8 8 12 12 12 25 25 25 25 25 23 25 25 27 27 27 27 26 26 26 26 26 26 26 26 26 32 30 31 40 40 38 40 40 40 40 40 40 37 37 37 37 37 35 37 37 37 67 37 39 40 38 39 39 39 39 37 37 37 39 37 38 38 36 37 39 39 39 40 40 40 39 39 39 45 45 45 65 65 65 66 66 66 66 66 66 65 65 65 67 65 66 66 66 66 67 67 65 82 82 82 128 128 128 127 127 127 128 128 128 128 128 128 128 128 128 128 128 128 128 128 128 139 137 138 168 166 167 169 167 168 168 168 168 168 166 167 168 168 168 168 168 168 165 167 166 168 166 169 173 173 175 173 173 175 173 173 173 174 172 173 173 173 173 173 173 173 173 173 173 171 171 171 166 166 166 166 166 166 167 167 167 168 168 168 167 167 167 165 165 165 166 166 166 162 162 162 
5 5 5 8 8 8 8 8 8 9 9 9 11 11 11 10 10 10 6 6 6 7 7 7 8 8 8 9 9 9 9 9 9 7 7 7 8 8 8 7 7 7 6 6 6 7 7 7 7 7 7 6 6 4 6 6 8 7 7 7 6 6 4 6 6 6 5 5 5 6 6 6 9 7 8 9 9 9 8 8 8 10 8 9 8 8 8 7 7 5 9 8 6 7 7 7 10 8 9 29 30 25 20 20 18 11 11 11 24 24 24 24 24 24 26 26 26 27 27 27 25 27 26 26 26 26 27 27 27 31 31 31 41 41 41 41 41 41 39 39 37 37 37 37 39 39 39 37 37 37 98 38 38 40 40 38 38 38 38 37 37 37 37 37 37 39 37 38 39 39 39 40 40 40 39 39 39 44 44 44 65 65 65 65 65 65 65 65 65 65 65 65 64 64 64 66 64 65 75 65 64 99 81 81 127 127 127 129 127 128 128 128 128 128 128 130 128 128 128 128 128 128 128 128 128 138 137 135 167 167 167 168 168 168 167 167 167 168 166 169 168 168 168 177 167 166 171 167 168 175 175 173 177 177 177 174 172 173 174 174 174 172 174 173 172 172 172 173 173 173 174 174 174 171 171 171 166 166 166 167 167 167 167 167 167 167 167 167 166 166 166 166 166 166 166 166 166 162 162 162 
6 6 6 7 7 7 9 9 9 12 12 12 10 10 10 8 8 8 5 5 5 6 6 6 6 6 6 8 8 8 10 10 10 9 9 9 7 7 7 5 5 5 5 5 5 5 5 5 17 18 13 30 31 25 6 6 6 8 6 7 6 6 4 7 5 6 5 5 5 7 7 7 9 9 9 9 7 8 8 8 6 8 8 6 8 6 7 6 6 6 6 6 4 7 5 6 32 31 26 59 59 47 30 31 25 19 19 19 61 61 61 62 62 62 61 61 61 63 63 63 63 63 63 64 62 63 64 62 63 70 72 71 93 91 92 89 89 91 88 88 88 88 86 87 88 88 86 104 89 86 117 89 88 88 88 88 87 87 87 88 88 88 89 87 88 90 90 90 90 90 90 90 90 90 90 90 90 95 95 95 113 113 113 112 112 112 113 113 113 112 112 112 112 112 112 113 113 111 129 119 118 151 131 130 158 158 158 161 159 160 161 159 160 160 160 160 159 159 159 159 159 159 159 159 159 167 166 164 188 190 189 189 189 187 189 189 189 190 190 190 189 189 189 198 188 187 193 189 190 202 201 199 199 199 199 194 194 196 194 194 194 194 194 194 193 193 193 193 193 193 194 194 194 192 192 192 189 189 189 190 190 190 189 189 189 189 189 189 189 189 189 189 189 189 188 188 188 185 185 185 
7 7 7 8 8 8 11 9 10 12 12 12 10 10 10 8 8 8 6 6 6 6 6 6 5 5 5 7 7 7 10 10 10 11 11 11 7 7 7 5 5 5 5 5 5 6 6 6 22 22 20 37 39 28 6 6 8 8 6 7 7 5 6 7 7 7 7 7 7 8 8 8 10 10 8 9 9 9 8 8 8 7 7 9 7 7 9 6 6 6 6 6 6 8 7 5 35 35 25 65 66 52 32 31 26 48 46 49 171 171 171 171 171 171 171 171 169 171 171 171 172 172 172 172 172 172 172 172 172 188 188 186 237 237 237 237 237 237 236 236 236 235 235 235 237 237 237 238 238 238 237 237 237 237 237 237 239 239 239 239 239 239 240 240 240 240 240 240 241 241 241 240 240 240 240 240 240 244 244 244 255 255 255 254 254 254 255 255 255 255 255 255 255 255 255 255 255 255 255 255 255 255 255 255 255 255 255 255 255 255 255 255 255 255 255 255 255 255 255 255 255 255 255 255 255 255 255 255 255 255 255 255 255 255 255 255 255 255 255 255 255 255 255 255 255 255 255 255 255 255 255 255 255 255 255 255 255 255 255 255 255 255 255 255 255 255 255 255 255 255 255 255 255 255 255 255 255 255 255 255 255 255 255 255 255 255 255 255 255 255 255 255 255 255 255 255 255 255 255 255 
7 5 6 7 7 7 11 11 11 13 13 13 11 9 10 9 7 8 6 6 6 5 5 5 6 6 6 9 9 9 11 11 11 10 10 10 7 7 7 5 5 5 6 6 6 6 6 6 7 7 9 7 7 7 6 6 6 6 6 6 7 7 9 6 6 6 8 8 8 8 8 8 9 9 9 9 9 11 9 9 9 7 7 7 6 6 6 7 7 7 7 7 9 7 7 7 9 7 8 33 32 27 24 23 21 47 47 47 171 171 171 171 171 171 171 171 169 171 171 171 172 172 172 171 171 171 172 172 172 188 188 188 237 237 237 237 237 237 236 236 236 236 236 236 237 237 237 238 238 238 237 237 237 237 237 237 239 239 239 239 239 239 240 240 240 240 240 240 240 240 240 240 240 240 240 240 240 243 243 243 255 255 255 255 255 255 255 255 255 255 255 255 255 255 255 255 255 255 255 255 255 255 255 255 255 255 255 255 255 255 255 255 255 255 255 255 255 255 255 255 255 255 255 255 255 255 255 255 255 255 255 255 255 255 255 255 255 255 255 255 255 255 255 255 255 255 255 255 255 255 255 255 255 255 255 255 255 255 255 255 255 255 255 255 255 255 255 255 255 255 255 255 255 255 255 255 255 255 255 255 255 255 255 255 255 255 255 255 255 255 255 255 255 255 255 255 255 255 255 255 
9 9 9 8 8 8 10 10 10 12 12 12 10 10 10 8 8 8 6 6 6 6 6 6 8 8 8 10 10 10 12 12 12 10 10 10 7 7 7 7 7 7 6 6 6 7 7 7 6 6 6 7 7 7 7 7 7 7 7 7 7 7 7 6 6 6 6 6 4 8 8 8 11 11 11 11 11 11 9 9 9 6 6 6 6 6 6 6 6 6 6 6 6 8 8 8 9 9 9 8 8 8 8 8 6 49 49 49 171 171 171 171 171 171 171 171 171 170 170 172 172 172 172 171 171 171 171 171 169 188 188 188 237 237 237 236 236 236 236 236 236 235 235 235 236 236 236 237 237 237 237 237 237 237 237 237 239 239 239 239 239 239 240 240 240 240 240 240 240 240 240 240 240 240 240 240 240 243 243 243 255 255 255 255 255 255 255 255 255 255 255 255 255 255 255 255 255 255 255 255 255 255 255 255 255 255 255 254 254 254 255 255 255 255 255 255 255 255 255 255 255 255 255 255 255 255 255 255 255 255 255 255 255 255 255 255 255 255 255 255 255 255 255 255 255 255 255 255 255 255 255 255 255 255 255 255 255 255 255 255 255 255 255 255 255 255 255 255 255 255 255 255 255 255 255 255 255 255 255 255 255 255 255 255 255 255 255 255 255 255 255 255 255 255 255 255 255 255 255 255 
8 8 8 9 9 9 9 7 8 9 9 9 9 9 9 8 8 8 5 5 5 9 7 8 12 12 12 12 12 12 11 11 11 9 9 9 9 9 9 9 9 9 8 8 8 6 6 6 6 6 6 6 6 6 6 6 6 7 7 7 6 6 6 6 6 4 6 6 4 9 9 9 12 10 13 11 11 11 7 7 7 6 6 6 5 5 5 7 7 7 6 6 6 8 8 10 8 8 8 8 8 8 7 7 7 48 48 50 172 172 170 171 171 171 171 171 171 171 171 171 171 171 173 171 171 171 171 171 171 188 188 188 237 237 237 236 236 236 236 236 236 236 236 236 236 236 236 237 237 237 237 237 237 237 237 237 239 239 239 239 239 239 240 240 240 240 240 240 240 240 240 239 239 239 240 240 240 243 243 243 255 255 255 255 255 255 255 255 255 255 255 255 255 255 255 254 254 254 255 255 255 255 255 255 254 254 254 255 255 255 255 255 255 255 255 255 255 255 255 255 255 255 255 255 255 255 255 255 255 255 255 255 255 255 255 255 255 255 255 255 255 255 255 255 255 255 255 255 255 255 255 255 255 255 255 255 255 255 255 255 255 255 255 255 255 255 255 255 255 255 255 255 255 255 255 255 255 255 255 255 255 255 255 255 255 255 255 255 255 255 255 255 255 255 255 255 255 255 255 255 
9 7 8 10 10 10 8 8 8 5 5 5 7 7 7 8 6 7 7 7 7 10 10 10 12 12 12 13 13 13 10 10 10 9 9 9 10 10 10 11 11 11 9 9 9 6 6 6 6 6 6 6 6 6 5 5 5 6 6 4 4 4 4 5 5 5 6 6 6 7 7 7 10 8 9 9 9 9 6 6 6 6 6 6 8 8 8 6 6 6 8 8 8 9 9 9 8 8 8 7 7 9 7 7 7 49 49 49 172 172 172 171 171 171 171 171 171 171 171 171 171 171 171 171 171 171 171 171 171 188 188 188 237 237 237 237 237 237 236 236 236 237 237 237 236 236 236 236 236 236 236 236 236 237 237 237 240 240 240 240 240 240 241 241 241 240 240 240 240 240 240 239 239 239 240 240 240 243 243 243 255 255 255 255 255 255 255 255 255 255 255 255 255 255 255 255 255 255 255 255 255 255 255 255 255 255 255 255 255 255 255 255 255 255 255 255 255 255 255 255 255 255 255 255 255 255 255 255 255 255 255 255 255 255 255 255 255 255 255 255 255 255 255 255 255 255 255 255 255 255 255 255 255 255 255 255 255 255 255 255 255 255 255 255 255 255 255 255 255 255 255 255 255 255 255 255 255 255 255 255 255 255 255 255 255 255 255 255 255 255 255 255 255 255 255 255 255 255 255 255 
9 9 9 10 10 10 9 9 9 7 7 7 6 6 6 8 8 8 8 8 8 8 8 8 9 9 9 9 9 9 9 9 9 7 7 7 9 9 9 11 11 11 10 10 10 7 7 7 7 7 7 6 6 6 5 5 5 6 6 4 5 5 5 6 6 6 6 6 6 6 6 6 6 6 6 6 6 6 7 7 7 8 8 8 9 9 9 7 7 7 9 9 9 7 7 7 7 7 7 7 7 7 9 9 9 51 51 51 173 173 173 171 171 171 171 171 171 172 172 174 171 171 169 171 171 171 171 171 171 188 188 188 237 237 235 237 237 237 236 236 236 237 237 237 236 236 236 236 236 236 236 236 236 237 237 237 240 240 240 240 240 240 240 240 240 240 240 240 239 239 239 239 239 239 240 240 240 243 243 243 255 255 255 255 255 255 255 255 255 255 255 255 255 255 255 255 255 255 255 255 255 254 254 254 255 255 255 255 255 255 255 255 255 255 255 255 255 255 255 255 255 255 255 255 255 255 255 255 255 255 255 255 255 255 255 255 255 255 255 255 255 255 255 255 255 255 255 255 255 255 255 255 255 255 255 255 255 255 255 255 255 255 255 255 255 255 255 255 255 255 255 255 255 255 255 255 255 255 255 255 255 255 255 255 255 255 255 255 255 255 255 255 255 255 255 255 255 255 255 255 
11 11 11 10 10 10 10 8 9 9 7 8 7 7 7 9 9 9 8 8 8 7 5 6 5 5 5 6 6 6 6 6 6 7 7 7 8 8 8 10 10 10 11 11 11 8 8 8 9 9 11 7 7 9 7 7 7 7 7 7 7 7 7 6 6 4 6 6 6 5 5 5 6 6 6 6 6 6 6 6 6 9 9 9 8 8 8 9 9 9 8 8 8 9 9 9 6 6 4 6 6 8 9 9 9 49 49 49 171 171 171 171 171 171 171 171 171 170 170 170 172 172 172 174 172 173 174 172 173 191 191 191 237 237 237 237 237 237 236 236 236 237 237 235 236 236 236 236 236 236 236 236 236 237 237 237 240 240 240 240 240 240 240 240 240 240 240 240 239 239 239 239 239 239 240 240 240 243 243 243 255 255 255 255 255 255 255 255 255 255 255 255 255 255 255 255 255 255 255 255 255 255 255 255 255 255 255 255 255 255 255 255 255 255 255 255 255 255 255 255 255 255 255 255 255 255 255 255 255 255 255 255 255 255 255 255 255 255 255 255 255 255 255 255 255 255 255 255 255 255 255 255 255 255 255 255 255 255 255 255 255 255 255 255 255 255 255 255 255 255 255 255 255 255 255 255 255 255 255 255 255 255 255 255 255 255 255 255 255 255 255 255 255 255 255 255 255 255 255 255 
12 12 12 13 13 13 11 11 11 8 8 8 8 8 8 11 9 10 7 7 7 5 5 5 5 5 5 4 4 4 6 6 6 7 7 7 7 7 7 9 9 9 10 10 10 10 10 10 10 8 9 10 10 10 9 9 9 8 8 8 8 8 8 5 5 7 6 6 6 7 5 6 7 7 7 8 8 8 7 7 7 6 6 6 8 8 8 9 9 9 10 10 10 9 7 8 5 5 7 5 5 5 7 7 7 40 40 38 133 133 133 132 132 134 132 132 134 132 132 132 144 143 139 165 162 157 163 160 155 166 165 161 187 187 187 186 188 187 186 186 186 188 187 185 187 187 187 186 186 186 186 186 186 187 187 187 191 191 191 191 191 191 190 190 190 189 189 189 189 189 189 189 189 189 189 189 189 195 195 195 212 212 212 212 212 212 212 212 212 213 213 213 213 213 213 213 213 213 213 213 213 215 215 215 227 227 227 227 227 227 227 227 227 227 227 227 228 228 228 227 227 227 227 227 227 228 228 228 230 230 230 231 231 231 231 231 231 230 230 230 231 231 231 231 231 231 231 231 231 231 231 231 231 231 231 231 231 231 231 231 231 231 231 231 231 231 231 231 231 231 231 231 231 231 231 231 230 230 230 230 230 230 230 230 230 230 230 230 231 231 231 231 231 231 231 231 231 231 231 231 
13 13 13 15 15 15 14 14 14 11 11 11 9 9 9 10 10 10 8 8 8 6 6 6 5 5 5 4 4 4 5 5 5 6 6 6 6 6 6 8 8 8 9 9 9 10 10 10 10 10 10 9 9 9 8 8 8 8 8 8 8 8 8 6 6 6 6 6 6 6 5 10 5 5 5 6 6 6 8 8 8 7 7 7 9 9 9 8 8 8 10 10 10 9 9 9 8 6 7 7 5 6 9 9 11 10 10 10 20 20 20 19 19 19 21 21 21 21 21 21 43 39 36 75 68 58 63 59 50 25 25 25 34 36 35 37 37 37 36 37 39 37 37 37 36 36 36 35 35 35 35 35 35 38 38 38 43 43 45 44 44 42 42 42 42 41 39 40 41 41 41 42 42 42 42 42 42 52 52 52 84 84 84 84 84 84 85 85 85 85 85 85 85 85 85 87 87 87 87 85 86 99 99 99 143 143 143 143 143 143 143 143 143 143 141 142 141 141 141 143 143 143 142 142 142 146 146 146 156 156 156 157 157 157 157 157 157 157 157 157 158 158 158 157 157 157 156 156 156 158 158 158 160 160 160 159 159 159 159 159 159 160 160 160 160 160 160 160 160 160 159 159 159 158 158 158 156 156 156 156 156 156 156 156 156 155 155 155 157 157 157 158 158 158 157 157 157 156 156 156 
15 13 14 14 14 14 13 11 12 11 11 11 10 8 9 10 10 10 10 8 9 9 9 9 6 6 6 4 4 4 6 6 6 6 6 6 6 6 6 8 8 8 9 9 9 10 10 10 11 11 11 9 9 9 8 8 8 8 8 8 7 7 7 6 6 6 6 6 6 7 7 9 4 4 4 5 5 5 8 8 8 9 9 9 7 7 7 8 8 8 10 10 10 9 9 9 7 7 7 7 7 7 7 7 7 10 10 10 20 20 20 19 19 19 21 21 21 24 24 24 24 22 23 23 23 23 25 21 22 26 26 24 36 36 34 38 38 38 39 39 39 37 35 38 35 35 33 34 34 36 35 35 35 37 37 37 42 42 42 42 42 42 41 41 43 41 39 40 41 41 41 41 41 41 41 41 41 52 52 52 85 85 85 84 84 84 85 85 85 85 85 85 86 86 86 88 86 87 85 85 85 99 101 100 144 144 144 142 142 142 144 142 143 143 143 143 142 142 142 142 142 142 142 142 142 145 145 145 157 157 157 155 155 155 158 158 158 158 158 158 157 157 157 157 157 157 157 157 157 158 158 158 160 160 160 159 159 159 159 159 159 159 159 159 160 160 160 159 159 159 159 159 159 158 158 158 156 156 156 155 155 155 156 156 156 155 155 155 157 157 157 158 158 158 157 157 157 155 155 155 
14 12 13 10 10 10 9 7 8 8 8 8 11 9 10 10 10 10 11 9 10 9 9 9 9 9 9 6 6 6 8 8 8 9 9 9 6 6 6 8 8 8 10 10 10 10 10 10 9 9 9 8 8 8 9 9 9 8 8 8 6 6 6 8 8 8 7 7 7 6 6 8 6 6 6 5 5 5 7 7 7 9 9 9 9 9 9 8 8 8 8 8 8 7 7 7 8 8 8 8 8 8 7 7 5 10 10 10 20 20 22 20 20 20 20 20 20 23 23 23 22 22 22 22 24 23 23 23 21 28 24 25 37 37 37 38 38 36 37 37 37 33 33 33 34 34 32 36 36 36 36 36 36 35 35 35 40 40 42 41 41 41 40 40 40 42 40 41 39 39 39 41 41 41 40 40 40 51 51 51 83 83 83 84 84 84 84 84 84 86 86 86 85 85 85 85 85 85 85 85 85 100 100 100 143 143 143 142 142 142 142 142 142 143 143 143 142 142 142 143 143 143 143 143 143 147 147 147 157 157 157 157 157 157 156 156 156 158 158 158 157 157 157 158 158 158 157 157 157 158 158 158 159 159 159 159 159 159 159 159 159 159 159 159 159 159 159 159 159 159 159 159 159 158 158 158 156 156 156 156 156 156 156 156 156 157 157 157 157 157 157 157 157 157 157 157 157 156 156 156 
11 11 11 8 8 8 6 6 6 8 8 8 10 10 10 11 11 11 10 10 10 9 9 9 8 8 8 7 7 7 8 8 8 9 9 9 6 6 6 6 6 6 9 9 9 10 10 10 9 9 9 6 6 6 8 8 8 6 6 6 7 7 7 10 10 10 8 8 8 7 7 7 6 6 6 5 5 5 7 7 7 9 9 9 7 7 7 7 7 7 7 7 7 9 9 9 9 9 9 9 9 9 8 8 6 10 10 10 20 20 22 20 20 20 20 20 20 21 21 23 20 20 20 21 21 21 23 21 22 27 27 27 39 39 39 40 38 39 34 34 34 32 34 33 34 34 34 35 35 35 36 36 34 35 35 37 39 39 39 40 40 40 39 39 39 40 38 39 40 40 40 38 38 38 40 40 40 51 51 51 83 83 83 82 82 82 85 85 85 87 87 87 87 87 87 86 86 86 85 85 85 99 99 99 143 143 143 144 142 143 142 142 142 142 142 142 143 143 143 143 143 143 143 143 143 145 145 145 156 156 156 157 157 157 158 158 158 158 158 158 157 157 157 158 158 158 157 157 157 158 158 158 159 159 159 159 159 159 159 159 159 158 158 158 159 159 159 159 159 159 159 159 159 158 158 158 155 155 155 156 156 156 157 157 157 157 157 157 157 157 157 157 157 157 156 156 156 157 157 157 
10 10 10 9 9 9 7 7 7 8 8 8 9 9 9 11 11 11 10 10 10 9 9 9 8 8 8 8 8 8 7 7 7 7 7 7 7 7 7 6 6 6 8 8 8 10 10 10 9 9 9 6 6 6 7 7 7 7 7 7 9 9 9 9 9 9 7 7 7 8 8 8 7 7 7 5 5 5 6 6 6 6 6 6 7 7 7 8 8 8 8 8 8 9 9 9 9 8 6 9 8 6 8 8 8 12 12 14 24 24 26 22 22 24 21 21 19 20 20 20 21 19 22 22 20 21 24 22 25 28 28 28 41 39 40 40 39 37 36 35 33 34 33 31 35 35 37 34 34 34 34 34 34 36 36 36 39 39 37 39 39 39 38 38 38 40 38 39 40 40 40 41 41 41 41 41 41 50 50 50 83 83 83 84 84 84 87 87 87 89 89 89 89 89 89 85 85 85 83 83 83 98 98 98 143 143 143 144 144 144 142 142 142 142 142 142 143 143 143 143 143 143 143 143 143 146 146 146 157 157 157 157 157 157 157 157 157 157 157 157 158 158 158 158 158 158 157 157 157 158 158 158 159 159 159 159 159 159 159 159 159 159 159 159 159 159 159 160 160 160 160 160 160 159 159 159 155 155 155 156 156 156 157 157 157 158 158 158 158 158 158 157 157 157 156 156 156 156 156 156 
11 9 10 8 8 8 7 5 6 8 8 8 11 9 10 9 9 9 11 9 10 9 9 9 9 9 9 8 8 8 7 7 7 7 7 7 8 8 8 8 8 8 8 8 8 10 10 10 9 9 9 5 5 5 6 6 6 6 6 6 6 6 6 8 8 8 7 7 7 9 9 9 8 8 8 6 6 6 6 6 6 5 5 5 7 7 7 7 7 7 7 7 7 7 7 7 12 8 9 9 7 8 7 7 7 13 13 13 28 28 28 29 29 29 21 21 21 17 17 19 19 21 18 22 22 22 23 22 20 28 28 28 38 40 39 38 36 37 35 35 35 35 35 35 35 35 35 34 34 34 34 34 34 37 37 35 41 41 41 40 40 40 38 38 40 40 38 41 41 41 41 43 43 43 42 42 42 51 51 51 84 84 84 87 87 87 88 88 88 89 89 89 87 87 87 84 84 84 83 83 83 98 98 98 143 143 143 142 144 143 142 142 142 142 142 142 143 143 143 144 144 144 143 143 143 147 147 147 156 156 156 157 157 157 155 155 155 158 158 158 157 157 157 157 157 157 156 156 156 157 157 157 159 159 159 159 159 159 159 159 159 159 159 159 159 159 159 160 160 160 160 160 160 159 159 159 156 156 156 156 156 156 157 157 157 158 158 158 158 158 158 157 157 157 157 157 157 156 156 156 
10 8 9 9 9 9 9 7 8 9 9 9 11 9 10 10 10 10 11 9 10 9 9 9 8 8 8 7 7 7 7 7 7 8 8 8 8 8 8 9 9 9 10 10 10 11 11 11 9 9 9 6 6 6 6 6 6 7 7 7 5 5 5 6 6 8 7 7 9 7 7 7 7 7 7 7 7 7 6 6 6 6 6 6 7 7 7 6 6 6 6 6 6 7 7 7 10 8 9 9 9 9 8 8 8 14 14 14 29 29 29 29 29 29 20 20 20 19 19 19 21 21 21 21 21 21 22 20 21 27 25 26 38 37 33 36 36 36 35 35 35 34 34 34 34 34 34 34 34 34 33 33 33 36 36 36 41 41 43 39 39 39 39 39 39 42 41 39 43 43 43 42 42 42 42 42 42 53 53 53 86 86 86 86 86 86 87 87 87 87 87 87 85 87 86 85 85 85 83 81 82 98 98 98 143 143 143 143 143 143 143 143 143 142 142 142 143 143 143 143 143 143 142 142 142 146 146 146 157 157 157 157 157 157 157 157 157 155 155 155 156 156 156 156 156 156 156 156 156 157 157 157 159 159 159 159 159 159 159 159 159 159 159 159 160 160 160 160 160 160 159 159 159 159 159 159 156 156 156 156 156 156 157 157 157 157 157 157 156 156 156 157 157 157 157 157 157 156 156 156 
10 10 10 10 10 10 9 9 9 10 10 10 9 9 9 9 9 9 8 8 8 8 8 8 8 8 8 7 7 7 6 6 6 6 6 6 9 9 9 10 10 10 10 10 10 10 10 10 8 8 8 6 6 6 8 8 8 7 7 7 5 5 5 5 5 7 7 7 9 9 9 9 6 6 6 9 9 9 7 7 7 5 5 5 7 7 7 5 5 5 5 5 5 7 7 7 9 9 9 10 10 10 8 8 8 11 11 11 19 19 21 18 18 18 17 17 17 16 16 16 19 17 18 17 17 17 17 17 17 20 20 20 27 27 27 28 28 28 27 29 28 28 28 28 27 27 29 77 79 66 27 27 27 28 28 28 33 33 33 32 32 32 32 32 32 35 33 34 33 33 33 34 34 34 32 32 32 41 41 41 66 66 66 67 67 67 67 67 67 67 67 67 66 66 66 65 63 64 64 62 63 76 74 75 109 109 109 108 108 108 108 108 108 110 108 109 108 108 108 109 109 109 109 109 109 111 111 111 121 121 121 120 120 120 119 119 119 119 119 119 119 119 119 120 120 120 119 119 119 120 120 120 121 121 121 121 121 121 121 121 121 121 121 121 121 121 121 121 121 121 121 121 121 120 120 120 119 119 119 119 119 119 120 120 120 119 119 119 119 119 119 119 119 119 119 119 119 119 119 119 
13 13 13 11 11 11 10 10 10 10 10 10 6 6 6 7 7 7 7 7 7 6 6 6 7 7 5 8 6 7 6 6 6 7 5 6 8 8 8 10 10 10 10 10 10 10 10 10 7 7 7 6 6 6 8 8 8 7 7 7 6 6 6 5 5 5 7 7 7 9 9 9 9 9 9 10 10 8 6 6 4 5 5 5 4 4 4 5 5 5 6 6 6 9 9 9 9 9 9 7 7 7 9 9 9 8 8 8 7 7 7 5 5 5 6 6 6 6 6 6 7 5 6 6 6 8 6 6 6 6 6 6 6 6 6 5 5 7 6 6 6 6 6 6 5 5 5 21 22 17 5 5 5 6 6 6 7 7 7 8 8 8 8 8 8 8 8 8 7 7 7 7 7 7 7 7 7 7 7 7 9 9 9 8 8 8 10 10 10 10 10 10 8 8 8 6 6 6 6 6 6 7 7 7 5 5 5 5 5 5 7 5 6 5 5 5 7 7 7 7 7 7 6 6 6 6 6 6 10 8 9 9 9 9 8 8 8 7 7 7 7 5 6 7 7 7 7 7 7 6 6 6 5 5 5 5 5 5 5 5 5 7 5 6 7 5 6 7 5 6 6 6 6 7 7 7 7 7 7 8 8 8 8 8 8 9 9 9 6 6 6 6 6 6 6 6 6 6 6 6 
11 11 11 12 12 12 12 12 12 10 10 10 7 7 7 9 9 9 8 8 8 7 7 7 7 7 9 9 7 8 5 5 5 6 6 6 8 8 8 10 8 9 10 10 10 11 13 12 10 10 10 7 7 7 7 7 7 6 6 6 4 4 4 6 6 6 7 7 7 9 9 9 11 11 11 11 11 11 6 5 3 6 4 5 6 4 5 7 5 6 10 8 9 10 10 10 10 10 10 8 8 8 7 7 7 7 7 7 9 9 9 7 7 7 6 6 6 5 5 5 6 6 4 8 8 8 8 8 8 6 6 4 5 5 5 5 5 5 6 6 6 6 4 5 6 6 6 4 4 2 6 6 6 8 8 8 8 8 8 10 10 10 8 8 8 7 7 7 7 7 7 5 5 5 6 6 6 8 8 8 8 8 8 9 9 9 9 9 9 8 8 8 7 7 7 8 8 8 8 8 8 7 7 7 5 5 5 4 4 4 4 4 4 5 5 5 8 8 8 7 7 7 5 5 5 9 9 9 9 9 9 9 9 9 9 7 8 7 7 7 7 5 6 7 7 7 6 6 6 7 7 7 6 6 6 5 5 5 6 6 6 8 6 7 6 6 6 5 5 5 7 7 7 8 8 8 10 10 10 13 13 13 13 11 12 10 8 9 6 6 6 5 5 5 6 6 6 5 5 5 
11 11 13 11 11 11 11 11 11 11 11 13 9 9 11 8 8 8 9 9 9 8 8 10 8 8 8 8 8 10 6 6 6 7 5 6 7 7 7 7 7 7 10 8 9 12 10 11 11 11 11 8 8 8 6 6 6 5 5 5 4 4 4 6 6 6 6 6 6 8 8 8 13 13 11 9 9 9 8 8 8 6 4 5 6 5 3 10 10 10 9 9 9 10 8 9 9 9 9 9 9 9 7 7 7 6 6 6 7 7 7 6 6 6 6 6 6 6 6 6 6 6 6 7 7 7 7 7 7 6 6 6 5 5 7 6 6 6 6 6 6 7 5 6 5 5 5 6 6 4 6 6 6 9 9 9 9 9 9 9 9 9 7 7 7 7 7 7 6 6 6 4 4 4 7 7 7 8 8 8 10 10 10 8 8 8 8 8 8 6 6 6 6 6 6 8 6 7 9 7 8 8 10 9 6 6 6 4 2 3 3 3 3 7 7 7 9 9 9 7 5 6 7 7 7 9 9 9 9 9 9 8 8 8 7 7 7 6 6 6 5 5 5 4 4 4 7 7 7 8 8 8 6 6 6 5 5 5 6 6 6 7 7 7 7 7 7 7 7 7 7 7 7 9 9 9 11 11 11 15 15 15 16 14 15 11 9 10 5 5 5 5 5 5 7 7 7 6 6 6 
11 11 11 12 12 12 14 14 14 13 13 13 10 10 10 9 9 9 9 9 9 9 9 9 8 8 8 7 5 6 4 4 4 4 4 4 6 6 6 8 6 7 9 7 8 10 10 12 9 9 9 7 7 7 5 5 5 4 4 4 6 6 6 7 7 7 6 6 6 8 8 8 15 11 12 11 9 10 8 6 9 8 6 7 9 7 8 10 10 10 13 13 13 11 9 10 9 9 9 9 9 9 7 7 7 6 6 6 4 4 4 6 6 6 7 7 7 6 6 6 6 6 6 6 6 6 6 6 8 6 6 6 6 6 6 4 4 4 6 6 4 8 6 7 5 5 5 6 6 4 8 8 8 10 10 10 9 9 9 8 8 8 8 8 8 8 8 8 5 5 5 5 5 5 7 7 7 7 7 7 9 9 9 8 8 8 6 6 6 8 8 8 8 8 8 8 8 8 8 8 8 8 8 8 7 7 7 6 6 6 5 5 5 8 8 8 8 8 8 7 5 6 9 9 9 8 8 8 8 10 9 7 7 7 8 8 8 7 7 7 5 5 5 5 5 5 6 6 6 6 6 6 6 6 6 6 6 6 8 8 8 8 8 8 8 6 7 8 6 7 8 8 8 9 9 9 11 11 11 14 14 14 16 16 16 12 12 12 6 4 5 6 4 5 7 5 6 7 5 6 
9 9 9 10 10 10 13 13 13 13 13 13 11 11 11 10 10 10 8 8 8 10 10 10 8 8 8 7 7 7 6 6 6 8 6 7 6 6 6 6 6 6 7 7 7 8 8 10 6 6 6 5 5 5 4 4 4 3 3 3 5 5 5 6 6 6 6 6 6 8 8 8 11 11 11 10 10 10 8 8 8 9 9 9 9 9 9 13 13 13 14 14 14 11 11 11 11 11 11 11 11 11 8 8 8 7 7 7 7 7 7 8 8 8 7 7 7 5 5 5 7 5 6 6 6 6 5 5 3 6 6 6 5 5 5 5 5 5 5 5 5 7 7 7 5 5 5 6 6 4 9 9 9 8 8 8 6 6 6 8 8 8 8 8 8 6 6 6 6 6 6 6 6 6 5 5 5 7 7 7 8 8 8 6 6 6 6 6 6 7 7 7 7 7 7 8 6 7 7 7 7 8 8 8 11 9 10 9 9 9 6 6 6 8 6 7 6 6 6 6 6 6 7 7 7 7 5 6 8 8 8 7 7 7 8 8 8 6 6 6 5 5 5 5 5 5 5 5 5 5 5 5 5 5 5 5 5 5 6 6 6 6 6 6 9 7 8 10 8 9 10 10 10 10 10 10 10 10 10 12 12 12 12 12 12 11 11 11 8 8 8 6 6 6 6 6 6 6 6 6 
8 8 8 8 8 8 11 11 11 12 12 12 11 11 11 11 11 11 11 11 11 8 8 8 9 9 9 9 7 10 9 9 9 8 8 8 7 7 7 7 7 7 8 8 10 9 9 9 6 6 6 5 5 5 4 4 4 5 5 5 7 7 7 5 5 5 6 6 6 8 8 8 9 9 9 7 7 7 8 8 6 8 8 8 10 10 10 12 12 12 11 11 13 11 11 11 10 10 10 10 10 10 8 8 8 7 7 7 9 9 9 9 9 9 7 7 7 6 6 6 6 4 5 5 5 5 5 5 5 6 6 6 6 6 6 4 4 4 6 6 6 6 6 8 6 6 6 9 9 9 10 10 10 6 6 6 6 6 6 7 7 7 6 6 8 7 7 7 5 5 5 5 5 5 6 6 6 7 7 7 6 6 6 6 6 6 8 8 8 7 7 7 7 7 7 7 7 7 8 8 8 8 8 8 9 9 9 10 10 10 8 8 8 6 6 6 6 6 6 6 6 6 6 6 6 6 6 6 8 8 8 8 8 8 6 6 6 5 5 5 4 4 4 4 4 4 6 6 6 5 5 5 4 4 4 5 5 5 5 5 5 5 5 5 7 7 7 9 9 9 11 11 11 9 9 9 9 9 9 9 9 9 10 8 9 10 8 9 8 6 7 9 7 8 9 7 8 8 6 7 
9 9 9 8 8 8 10 10 10 11 11 11 8 8 8 11 11 11 11 11 11 10 10 10 29 24 21 22 18 17 10 10 10 9 9 9 8 8 8 7 7 7 9 9 9 8 8 8 6 6 6 5 5 5 5 5 5 6 6 6 9 9 9 6 6 6 8 8 8 9 9 9 8 8 8 8 8 8 8 8 8 8 8 8 9 9 11 10 10 10 10 8 11 13 9 10 10 10 10 8 8 8 8 8 8 7 7 7 8 8 8 9 9 9 8 8 8 6 6 6 6 4 5 5 5 5 5 5 5 5 5 5 5 5 5 5 5 5 6 6 6 7 7 7 7 7 7 9 9 9 9 9 9 7 7 7 7 7 7 8 8 8 7 7 9 6 6 6 5 5 5 6 6 6 6 6 6 7 7 7 6 6 6 6 6 6 8 8 8 7 7 7 7 5 6 6 6 6 8 8 8 10 8 9 10 10 10 10 10 10 9 9 9 6 6 6 6 6 6 7 7 7 7 7 7 8 8 8 9 7 8 7 7 7 6 6 6 5 5 5 4 4 4 5 5 5 4 4 4 5 3 4 5 3 4 3 3 3 4 4 4 5 5 5 7 7 7 8 8 8 11 11 11 9 9 9 8 8 8 9 9 9 10 8 9 10 8 9 7 7 7 9 9 9 8 8 8 7 7 7 
8 8 8 8 8 8 8 8 8 11 11 11 11 11 11 11 11 11 11 11 11 11 11 11 48 41 31 32 29 24 11 11 11 10 10 10 9 7 8 8 8 8 7 7 9 8 8 8 7 7 7 6 6 6 6 6 6 7 7 7 8 8 8 8 8 8 9 9 9 8 8 8 37 38 30 38 37 32 8 7 5 8 8 6 9 9 9 10 8 11 9 7 8 10 10 10 11 11 11 9 9 9 8 8 8 8 8 8 8 8 8 10 10 10 8 8 8 6 6 6 5 5 5 5 5 5 4 4 4 4 4 4 5 5 5 7 7 7 7 7 7 8 6 7 8 8 8 10 10 10 9 9 11 8 8 8 11 11 11 12 12 12 11 11 13 11 11 11 10 10 10 10 10 10 11 11 11 14 14 14 23 23 23 23 23 23 24 24 24 24 24 24 23 23 23 24 24 24 24 24 24 28 28 28 36 36 36 35 35 35 32 32 32 31 31 31 31 31 31 31 31 31 31 31 31 32 34 33 32 32 32 32 32 32 33 31 32 31 31 31 30 30 30 31 31 31 31 31 31 30 28 29 27 25 26 27 27 27 27 27 27 28 28 28 30 28 29 34 32 33 33 33 33 32 32 32 33 33 33 31 31 31 31 31 31 32 32 32 31 31 31 33 33 33 32 32 32 33 33 33 
9 9 9 8 8 8 7 7 7 10 10 10 10 10 10 10 10 10 10 10 10 12 12 12 30 27 22 20 19 15 10 9 7 9 9 9 9 9 9 7 7 7 7 7 7 8 8 8 7 7 7 6 6 6 6 6 6 9 9 9 9 9 9 8 8 8 10 10 10 7 7 7 37 37 29 39 36 29 40 37 30 12 11 9 8 8 8 7 7 7 10 9 7 12 12 12 12 12 12 11 11 11 10 10 10 8 8 8 9 9 9 10 10 10 7 7 7 6 6 6 6 6 6 6 4 5 6 6 6 5 5 5 5 5 5 6 6 6 7 7 7 9 7 8 7 7 7 9 9 9 10 10 10 12 10 11 24 22 23 23 23 23 23 23 23 24 24 24 23 23 23 23 23 23 24 22 23 34 34 34 72 72 72 73 73 73 74 74 74 74 74 74 72 72 72 73 73 73 74 74 74 86 84 85 108 108 108 109 109 109 106 106 106 107 105 106 105 105 105 105 105 105 105 105 105 106 106 106 108 108 108 109 109 109 108 108 108 107 107 107 107 107 107 108 108 108 107 107 107 106 104 105 96 96 96 96 96 96 97 97 97 97 97 97 97 97 97 98 98 98 99 99 99 100 100 100 104 104 104 103 103 103 103 103 103 104 104 104 104 104 104 104 104 104 103 103 103 105 105 105 
8 8 8 7 7 7 8 8 8 9 9 9 8 8 8 9 9 9 11 9 10 14 12 13 11 11 11 10 10 10 8 8 8 8 8 8 7 7 7 8 6 7 7 7 7 8 8 8 7 7 7 7 7 7 7 7 7 9 9 9 10 10 10 8 8 8 9 9 9 7 7 7 6 6 6 7 5 8 48 45 38 13 12 10 7 7 7 6 6 6 9 9 9 14 13 11 14 12 13 11 9 10 10 8 9 11 9 10 11 9 10 11 9 10 9 7 8 6 4 5 5 5 5 6 4 5 6 6 6 6 6 6 6 4 5 6 6 6 6 6 6 7 7 7 7 7 7 10 10 10 11 11 11 11 9 10 23 21 22 23 23 23 24 24 24 24 24 24 23 23 23 22 22 22 22 22 22 36 36 36 72 72 72 73 73 73 75 73 74 74 74 74 73 73 73 73 73 73 75 75 75 84 84 84 108 108 108 108 108 108 106 106 106 104 104 104 105 105 105 105 105 105 105 105 105 106 106 106 107 107 107 108 108 108 107 107 107 107 107 107 107 107 107 107 107 107 109 107 108 105 105 105 96 96 96 97 95 96 96 96 96 97 97 97 97 97 97 98 98 98 99 99 99 100 100 100 104 104 104 104 104 104 103 103 103 103 103 103 104 104 104 103 103 103 103 103 103 105 105 105 
9 7 8 7 5 6 9 9 9 8 8 8 7 7 7 7 7 7 8 8 8 10 10 10 10 10 10 10 10 10 8 8 8 7 7 7 7 7 7 6 6 6 7 7 7 6 8 7 7 7 7 8 8 8 9 9 9 9 9 9 10 10 10 10 10 10 10 10 10 8 8 8 6 6 8 7 5 6 7 7 7 8 8 6 8 8 10 6 6 4 8 8 6 11 11 11 10 10 10 9 9 9 8 8 8 8 8 8 10 10 10 10 10 10 9 9 9 8 8 8 5 5 5 5 3 4 7 7 7 8 8 8 7 7 7 6 6 6 6 6 6 7 5 6 7 7 7 10 10 10 8 8 8 10 8 9 23 21 22 22 22 22 23 23 23 23 23 23 22 22 22 22 22 22 23 21 22 36 36 36 72 72 72 73 73 73 74 74 74 74 74 74 72 72 72 74 72 73 75 75 75 83 83 83 107 107 107 107 107 107 106 106 106 107 105 106 105 105 105 105 105 105 105 105 105 106 106 106 108 108 108 108 108 108 107 107 107 107 107 107 106 106 106 106 106 106 108 108 108 105 105 105 97 95 96 97 97 97 96 96 96 98 98 98 98 98 98 98 98 98 98 98 98 100 100 100 103 103 103 103 103 103 103 103 103 104 104 104 104 104 104 103 103 103 103 103 103 105 105 105 
6 6 6 7 7 7 11 11 11 10 10 10 9 9 9 8 8 8 7 7 7 6 6 6 5 7 6 8 8 8 8 8 8 7 7 7 9 7 8 7 7 7 6 6 6 5 7 6 7 7 7 8 8 8 8 8 8 9 9 9 10 10 10 12 12 12 10 10 10 7 7 7 6 6 4 7 7 7 7 7 5 8 8 8 8 8 8 7 7 7 7 7 7 7 7 7 7 7 7 6 6 6 7 7 7 7 7 7 9 9 9 10 10 10 10 10 10 7 7 7 3 3 3 5 3 4 5 5 5 7 7 7 8 6 7 6 6 6 5 5 5 6 6 6 7 7 7 8 8 8 7 7 7 10 8 9 23 21 22 22 22 22 22 22 22 22 22 22 23 23 23 22 22 22 22 20 21 35 35 35 72 72 72 73 73 73 73 73 73 73 73 73 73 73 73 74 74 74 75 75 75 83 83 83 107 105 106 106 106 106 105 105 105 106 106 106 106 106 106 105 105 105 105 105 105 105 105 105 108 108 108 109 109 109 107 107 107 108 108 108 108 108 108 107 107 107 108 108 108 106 106 106 98 96 97 97 97 97 96 96 96 97 97 97 97 97 97 98 98 98 98 98 98 99 99 99 102 102 102 102 102 102 103 103 103 104 104 104 104 104 104 104 104 104 104 104 104 105 105 105 
8 8 8 10 10 10 12 12 12 12 12 12 11 11 11 11 11 11 8 8 8 4 4 4 7 5 6 9 7 10 9 7 8 10 10 10 9 9 9 9 9 9 8 8 8 6 6 8 6 6 6 7 7 7 6 6 6 8 8 8 10 10 10 11 11 11 9 9 9 6 6 6 6 6 4 7 7 5 8 8 8 9 9 9 10 10 10 8 8 6 7 7 9 6 6 6 7 5 6 8 6 7 7 5 6 7 5 6 9 7 8 11 9 10 10 8 9 9 7 8 4 4 4 6 4 5 9 9 9 5 5 5 7 5 6 7 7 7 6 6 6 5 5 5 7 7 7 9 9 9 8 8 8 10 10 10 21 21 21 22 22 22 21 21 21 21 21 21 23 23 23 22 22 22 22 22 22 34 34 34 72 72 72 72 72 72 74 72 73 72 72 72 73 73 73 74 74 74 75 75 75 84 82 83 106 106 106 106 106 106 106 106 106 106 106 106 105 105 105 105 105 105 105 105 105 103 103 103 108 108 108 108 108 108 108 108 108 108 108 108 108 108 108 107 107 107 107 107 107 105 105 105 98 98 98 99 97 98 98 98 98 97 97 97 98 98 98 99 99 99 98 98 98 100 100 100 102 102 102 103 103 103 103 103 103 104 104 104 105 105 105 105 105 105 104 104 104 105 105 105 
10 8 9 11 9 10 11 11 11 11 11 11 10 10 10 10 10 10 9 9 9 6 6 6 5 3 4 7 7 7 9 9 9 11 11 11 11 10 8 14 10 9 11 11 11 8 8 8 6 6 6 5 5 5 5 5 5 8 8 8 9 9 9 7 7 7 7 7 7 7 7 7 7 7 7 7 7 5 8 8 8 10 10 10 10 10 10 9 9 7 8 6 7 7 7 5 7 7 7 7 7 7 6 6 6 6 6 6 6 6 6 8 8 8 7 7 7 5 5 5 3 3 3 10 8 9 11 11 11 4 4 4 4 4 4 6 6 6 7 7 7 7 5 6 8 8 8 10 10 10 9 9 9 9 9 9 22 22 22 22 22 22 20 20 20 21 21 21 22 22 22 23 23 23 22 22 22 34 34 34 72 72 72 72 72 72 73 71 72 72 72 72 73 71 72 73 73 73 75 75 75 83 83 83 106 106 106 105 105 105 106 104 105 106 106 106 105 105 105 105 105 105 105 105 105 104 104 104 108 108 108 109 109 109 108 108 108 108 108 108 108 108 108 108 108 108 108 108 108 106 106 106 99 99 99 101 99 100 100 100 100 99 99 99 99 99 99 98 98 98 97 97 97 99 99 99 103 103 103 103 103 103 104 104 104 104 104 104 105 105 105 105 105 105 104 104 104 105 105 105 
10 10 10 10 10 10 9 9 9 8 8 8 8 8 8 9 9 9 9 7 8 6 4 5 5 5 3 5 5 5 10 10 10 11 11 11 10 10 10 10 10 10 10 10 10 9 7 10 6 6 6 6 6 6 7 7 7 8 8 8 6 6 6 4 4 4 6 6 6 7 7 7 6 6 6 7 7 7 7 7 7 9 9 9 11 11 9 10 8 9 8 8 8 6 6 6 6 6 6 6 6 6 6 6 6 5 5 5 4 4 4 5 5 5 5 5 5 3 3 3 6 6 6 15 13 14 11 11 11 3 3 3 4 2 3 7 7 7 7 7 7 6 6 6 10 10 10 10 10 10 9 9 9 9 9 9 22 22 22 22 22 22 19 19 19 20 20 20 23 23 23 23 23 23 24 22 23 35 35 35 72 72 72 72 72 72 72 72 72 72 72 72 73 73 73 72 72 72 73 73 73 82 82 82 106 106 106 106 106 106 105 105 105 105 105 105 106 106 106 105 105 105 105 105 105 105 105 105 108 108 108 108 108 108 108 108 108 107 107 107 108 108 108 108 108 108 108 108 108 108 106 107 99 99 99 100 100 100 100 100 100 99 99 99 99 99 99 99 99 99 97 97 97 99 99 99 102 102 102 103 103 103 104 104 104 103 103 103 105 105 105 106 106 106 104 104 104 105 105 105 
11 11 11 11 11 11 8 8 8 7 7 7 8 8 8 8 8 8 7 7 7 5 5 5 6 4 5 8 6 7 11 11 11 13 11 12 12 10 11 11 11 11 12 10 11 10 8 9 8 8 8 9 9 9 8 8 8 7 7 7 6 6 6 5 5 5 6 6 6 7 7 7 6 6 6 9 7 8 9 7 8 10 10 10 11 11 11 10 10 10 7 7 7 6 6 8 5 5 5 6 6 6 7 7 7 13 13 13 38 38 38 40 40 40 40 40 40 39 39 39 41 41 41 46 44 45 42 42 42 43 43 43 56 56 56 59 59 59 59 59 59 62 60 61 62 62 62 63 63 63 61 61 61 63 63 63 76 76 76 78 78 78 75 75 75 75 75 75 77 77 77 78 78 78 79 79 79 88 88 88 118 118 118 118 118 118 120 118 119 118 118 118 118 116 117 118 118 118 119 119 119 125 125 125 143 141 142 142 142 142 142 142 142 142 142 142 142 142 142 142 142 142 142 142 142 143 143 143 144 144 144 144 144 144 144 144 144 144 144 144 144 144 144 144 144 144 145 143 144 144 144 144 138 138 138 138 138 138 139 139 139 138 138 138 138 138 138 138 138 138 137 137 137 138 138 138 140 140 140 140 140 140 141 141 141 141 141 141 141 141 141 141 141 141 142 142 142 144 144 144 
10 10 10 8 8 8 6 6 6 7 7 7 8 8 8 9 9 9 7 7 7 6 6 6 7 7 7 8 8 8 11 11 11 11 9 10 11 11 11 11 11 11 11 11 11 9 9 9 10 10 10 12 10 11 10 10 10 7 7 7 5 5 5 6 6 6 7 5 6 7 7 7 8 8 8 8 8 8 8 8 8 10 10 10 11 11 11 11 11 11 9 9 9 8 8 8 8 6 7 8 8 8 7 7 7 40 40 40 144 144 144 144 144 144 145 145 145 145 145 145 144 144 144 144 144 144 143 143 143 161 161 161 217 217 217 216 216 216 217 217 217 218 218 218 217 217 217 217 217 217 217 217 217 223 223 223 240 240 240 240 240 240 240 240 240 240 240 240 241 241 241 240 240 240 240 240 240 243 243 243 255 255 255 254 254 254 255 255 255 255 255 255 255 255 255 255 255 255 255 255 255 255 255 255 255 255 255 255 255 255 255 255 255 255 255 255 255 255 255 255 255 255 255 255 255 255 255 255 255 255 255 255 255 255 255 255 255 255 255 255 255 255 255 255 255 255 255 255 255 255 255 255 255 255 255 255 255 255 255 255 255 255 255 255 255 255 255 255 255 255 255 255 255 255 255 255 255 255 255 255 255 255 255 255 255 255 255 255 255 255 255 255 255 255 255 255 255 255 255 255 
7 7 7 6 6 6 7 7 7 6 6 6 8 8 8 8 8 8 8 8 8 8 8 8 9 9 9 8 8 8 8 8 8 10 10 10 11 11 11 14 12 13 12 12 12 11 11 11 8 8 8 9 7 8 9 9 9 6 6 6 4 4 4 5 5 5 6 4 5 7 7 7 7 7 7 8 6 7 9 9 9 10 10 10 10 10 10 12 12 12 11 9 10 9 9 9 8 6 7 7 7 7 7 7 7 41 41 41 144 144 144 144 144 144 145 145 145 145 145 145 144 144 144 143 143 143 144 144 144 162 162 162 217 217 217 217 217 217 218 218 218 217 217 217 217 217 217 217 217 217 217 217 217 223 223 223 240 240 240 240 240 240 240 240 240 240 240 240 240 240 240 240 240 240 240 240 240 243 243 243 255 255 255 255 255 255 255 255 255 254 254 254 255 255 255 255 255 255 255 255 255 255 255 255 255 255 255 255 255 255 255 255 255 255 255 255 255 255 255 255 255 255 255 255 255 255 255 255 255 255 255 255 255 255 255 255 255 255 255 255 255 255 255 255 255 255 255 255 255 255 255 255 255 255 255 255 255 255 255 255 255 255 255 255 255 255 255 255 255 255 255 255 255 255 255 255 255 255 255 255 255 255 255 255 255 255 255 255 255 255 255 255 255 255 255 255 255 255 255 255 
6 6 6 8 8 8 8 8 8 6 6 6 7 7 7 7 7 7 7 7 7 8 8 8 8 8 8 9 7 8 8 8 8 9 9 9 10 10 10 13 13 13 13 13 13 9 9 9 8 8 8 8 8 8 8 8 8 5 5 5 5 5 5 4 4 4 6 6 6 6 6 6 6 6 6 7 7 7 9 7 8 7 7 7 10 10 10 12 10 11 11 11 11 10 10 10 10 8 9 7 7 7 6 6 6 41 41 41 144 144 144 143 143 143 144 144 144 145 145 145 145 145 145 144 144 144 143 143 143 162 162 162 217 217 217 217 217 217 217 217 217 217 217 217 217 217 217 217 217 217 217 217 217 223 223 223 240 240 240 240 240 240 240 240 240 240 240 240 240 240 240 240 240 240 240 240 240 243 243 243 255 255 255 255 255 255 255 255 255 255 255 255 255 255 255 255 255 255 255 255 255 255 255 255 255 255 255 255 255 255 255 255 255 255 255 255 255 255 255 255 255 255 255 255 255 255 255 255 255 255 255 255 255 255 255 255 255 255 255 255 255 255 255 255 255 255 255 255 255 255 255 255 255 255 255 255 255 255 255 255 255 255 255 255 255 255 255 255 255 255 255 255 255 255 255 255 255 255 255 255 255 255 255 255 255 255 255 255 255 255 255 255 255 255 255 255 255 255 255 255 
4 4 4 7 7 7 7 7 7 7 7 7 7 7 7 7 7 7 7 7 7 8 8 8 8 8 8 9 9 9 8 8 8 9 9 9 10 10 10 13 13 13 12 12 12 10 8 9 5 5 5 8 8 8 8 8 8 7 7 7 5 5 5 5 5 5 6 6 6 6 6 6 7 7 7 9 9 9 10 10 10 7 7 7 8 8 8 10 10 10 11 11 11 12 12 12 10 8 9 7 7 7 5 5 5 41 41 41 144 144 144 145 145 145 145 145 145 145 145 145 145 145 145 143 143 143 143 143 143 164 164 164 217 217 217 217 217 217 217 217 217 217 217 217 218 218 218 217 217 217 217 217 217 223 223 223 240 240 240 240 240 240 240 240 240 240 240 240 240 240 240 240 240 240 240 240 240 243 243 243 255 255 255 255 255 255 255 255 255 255 255 255 255 255 255 255 255 255 255 255 255 255 255 255 255 255 255 254 254 254 255 255 255 255 255 255 255 255 255 255 255 255 255 255 255 255 255 255 255 255 255 255 255 255 255 255 255 255 255 255 255 255 255 255 255 255 255 255 255 255 255 255 255 255 255 255 255 255 255 255 255 255 255 255 255 255 255 255 255 255 255 255 255 255 255 255 255 255 255 255 255 255 255 255 255 255 255 255 255 255 255 255 255 255 255 255 255 255 255 255 
