P3
100 50
255
73 66 56 72 66 54 69 63 51 70 57 48 70 60 48 69 66 51 73 67 53 71 67 55 33 32 28 48 39 32 70 58 46 70 57 41 60 48 32 61 47 34 68 54 41 72 64 51 71 65 51 70 64 52 71 59 45 71 62 47 69 63 51 64 54 44 60 50 41 10 10 10 10 10 12 10 8 9 9 9 7 63 59 48 19 18 16 13 13 11 16 15 13 53 50 43 68 64 53 71 67 55 73 69 57 72 68 57 72 68 57 73 67 55 40 37 32 9 7 8 8 6 7 11 9 10 10 10 8 9 9 9 9 9 9 16 15 13 72 62 52 73 67 53 72 62 53 69 60 45 74 62 48 72 62 50 19 18 14 61 51 41 19 18 16 12 12 14 11 9 10 9 9 9 9 9 11 10 10 8 8 8 6 41 38 33 71 67 55 71 67 55 69 65 54 70 64 52 71 65 53 54 50 39 6 6 6 7 7 9 9 7 12 7 7 5 7 7 9 9 9 9 8 8 6 7 7 7 6 4 5 6 6 6 6 6 6 6 6 6 9 9 9 11 13 12 14 12 13 15 14 12 13 13 11 12 12 12 12 12 12 14 14 14 11 11 11 9 9 9 8 8 8 8 8 6 7 7 7 6 6 8 8 8 8 9 9 9 11 11 11 10 10 10 8 8 8 9 9 7 
71 68 59 70 66 55 70 66 55 18 18 16 12 12 12 13 11 12 56 56 46 72 70 57 70 68 53 70 61 44 70 57 41 68 56 44 62 50 34 62 48 35 43 35 24 6 8 7 8 6 7 8 6 7 7 7 7 23 22 17 70 67 50 64 58 46 62 53 44 63 53 41 74 69 50 69 68 50 69 63 51 70 64 50 73 65 52 21 20 18 14 14 14 14 14 14 13 13 13 17 15 16 18 18 18 18 18 20 17 17 17 44 41 34 71 65 53 71 65 53 69 65 53 73 67 55 73 66 56 57 54 45 24 23 19 71 65 51 64 57 47 14 14 14 14 14 16 9 9 9 11 13 12 14 12 15 12 12 12 10 8 9 61 51 41 69 61 48 71 67 55 72 68 56 72 68 56 73 66 56 70 66 55 71 69 57 39 40 34 8 8 8 6 8 7 6 6 8 6 6 8 9 7 8 8 8 8 8 8 6 8 8 6 9 8 6 6 4 5 7 7 9 10 10 8 8 8 8 6 6 6 5 5 3 4 2 5 4 4 4 10 8 9 12 12 14 12 10 11 13 11 12 11 11 13 13 13 13 16 16 14 14 14 14 11 11 13 10 10 8 10 10 8 10 10 10 11 11 13 9 9 11 8 8 6 10 10 10 13 11 12 12 12 12 10 10 10 7 7 7 
17 17 15 18 19 14 18 16 17 11 11 11 12 12 12 55 52 45 69 66 57 70 70 58 71 69 56 70 62 49 70 58 44 69 56 40 70 54 38 41 32 25 12 10 11 9 7 8 6 6 6 7 5 6 8 8 8 7 7 5 17 15 16 22 21 17 63 54 39 67 55 43 71 68 51 70 67 52 68 61 45 68 62 46 71 63 50 20 19 15 13 13 13 13 13 13 12 12 12 17 17 17 19 19 19 16 16 18 14 14 12 43 40 33 72 66 54 71 63 52 71 63 50 71 63 52 71 67 55 71 69 56 65 61 50 71 67 56 64 58 46 15 15 13 12 12 10 10 10 10 12 12 12 12 12 12 13 13 13 8 12 11 62 52 40 68 65 48 72 70 57 72 70 58 74 70 59 72 68 56 71 67 55 46 43 38 15 14 12 10 10 10 8 8 8 7 7 5 6 6 6 7 7 7 8 8 8 7 7 7 7 7 7 10 8 9 7 7 5 7 7 7 11 11 11 9 9 9 6 6 6 5 5 3 4 4 4 4 4 2 7 7 7 11 11 11 9 9 9 10 10 10 12 10 13 14 14 16 15 15 17 14 14 14 11 11 11 11 11 11 11 11 11 11 11 11 10 10 10 9 9 9 8 8 8 10 10 10 12 12 12 11 11 11 9 9 7 8 8 8 
12 11 9 12 10 11 11 11 9 14 13 11 11 11 11 57 54 47 72 69 60 72 70 58 71 69 57 72 66 54 70 60 48 68 59 42 44 35 26 11 11 9 8 8 8 8 6 7 7 7 7 6 8 7 10 9 7 8 10 7 17 17 15 63 56 46 67 58 43 66 57 42 70 64 50 70 64 48 65 59 43 69 57 43 71 62 47 20 20 18 14 12 13 11 13 12 13 11 12 15 15 15 18 18 18 14 14 14 12 12 10 43 40 35 71 65 53 70 64 52 70 64 52 71 63 52 72 66 54 72 68 56 70 68 55 63 59 50 21 19 20 15 15 15 11 11 11 11 11 9 12 12 14 13 13 13 14 14 14 12 12 12 14 15 10 59 53 39 71 65 51 71 67 55 71 67 55 70 66 55 36 35 30 15 14 12 11 11 11 10 10 10 10 8 9 6 6 6 6 6 6 9 9 9 10 10 10 7 7 7 6 6 6 7 7 7 7 7 7 8 8 8 9 9 11 11 10 8 8 8 8 7 7 9 5 5 5 6 6 6 7 7 7 9 9 9 8 8 8 7 7 7 10 8 11 13 11 12 14 12 13 12 12 12 10 10 10 10 10 10 10 10 10 11 11 11 8 8 8 6 6 6 8 8 8 8 8 8 9 11 10 11 9 10 11 11 11 9 7 8 
10 10 12 12 10 13 11 9 12 12 12 12 57 54 45 67 62 56 70 66 55 71 62 53 70 64 52 71 65 53 72 69 54 70 64 52 37 34 27 7 7 7 8 6 7 9 7 8 8 8 6 10 9 7 9 9 11 11 10 8 18 17 13 71 61 49 69 59 47 70 60 48 67 59 46 69 62 46 68 60 49 71 58 49 72 63 48 20 21 16 13 13 11 11 11 11 13 13 15 15 15 15 13 15 14 13 13 13 12 12 10 40 39 34 72 64 53 71 65 51 72 64 53 72 66 54 71 64 54 73 65 54 55 51 42 19 18 16 14 14 14 17 16 14 12 12 10 11 11 13 14 14 14 12 12 12 13 13 13 12 12 12 8 8 8 11 11 9 18 17 15 19 18 16 18 17 15 17 17 15 13 13 11 10 10 10 10 10 10 11 11 11 8 8 8 4 4 4 6 6 6 8 8 8 9 9 9 7 7 7 7 5 6 6 6 6 7 5 6 7 7 7 8 8 8 12 10 11 11 9 10 6 6 6 6 6 6 8 6 7 7 7 7 6 6 6 8 6 7 7 7 7 8 8 8 10 10 10 12 12 12 12 10 11 9 7 8 9 7 8 9 9 9 10 8 9 7 7 7 6 6 6 5 7 6 8 8 8 9 9 9 10 10 10 10 10 10 9 7 8 
12 12 10 13 13 13 12 12 12 11 11 9 63 61 49 70 66 55 70 63 53 67 59 46 69 61 48 68 66 54 70 68 55 71 67 55 38 35 28 7 7 7 8 6 7 7 7 7 8 8 8 8 8 8 10 10 10 12 12 12 18 17 13 69 61 48 71 63 52 70 62 51 68 60 47 67 59 46 70 62 51 71 63 52 72 66 54 18 18 16 11 11 9 10 10 10 14 14 14 16 16 16 13 13 13 11 11 11 10 10 10 41 38 33 73 66 58 70 66 54 70 66 54 70 66 54 69 65 53 58 54 45 22 21 19 13 13 15 16 16 16 14 14 16 12 12 12 12 12 12 14 14 12 12 12 12 15 15 13 13 13 13 8 8 8 8 8 8 10 8 9 45 42 35 57 53 44 28 29 23 9 7 8 8 8 8 9 9 9 10 10 10 12 12 12 11 11 11 8 8 8 8 8 8 8 6 7 5 5 5 5 5 5 6 4 5 7 5 6 7 7 7 7 7 7 8 6 7 9 7 8 8 8 8 6 6 6 7 5 6 5 5 5 6 6 6 7 7 7 8 8 8 7 7 7 9 9 9 10 10 10 9 9 9 9 7 8 9 7 8 8 8 8 8 6 7 6 6 6 6 6 6 5 5 5 8 8 8 10 10 10 12 12 12 11 11 11 10 8 9 
12 12 14 13 15 14 14 12 13 10 10 8 61 57 46 70 62 49 67 61 49 68 58 46 69 61 48 69 65 53 69 67 54 71 67 55 36 37 29 8 8 8 7 7 7 7 5 6 8 8 10 10 10 8 10 10 10 10 10 10 17 15 16 70 60 48 69 63 51 70 67 52 72 62 52 67 59 48 67 65 52 69 65 54 71 63 52 17 17 15 9 9 11 11 11 9 13 13 11 14 14 14 13 13 13 10 10 10 9 9 9 41 38 33 73 67 55 72 66 54 53 53 41 28 24 21 24 23 19 20 19 17 11 11 11 14 12 13 15 15 13 12 12 12 14 14 14 14 14 14 12 12 12 14 14 14 16 16 16 14 14 14 11 11 11 10 10 10 10 10 8 20 20 18 24 25 20 13 13 11 10 10 10 8 8 10 8 8 8 9 9 7 18 18 18 23 23 23 12 12 12 8 8 8 9 9 9 5 3 4 6 4 5 5 5 5 6 4 5 6 6 6 8 8 8 6 4 5 10 8 9 10 10 10 7 7 7 7 5 6 5 5 5 5 5 5 6 6 6 7 7 7 8 6 7 9 9 9 11 9 10 9 9 9 8 8 8 9 7 8 8 8 8 9 7 8 8 8 8 7 7 7 7 7 7 8 8 8 10 10 10 13 13 13 11 11 11 11 9 10 
13 11 14 14 14 14 13 13 11 10 8 9 64 54 42 70 58 46 70 60 48 70 62 49 70 62 51 71 65 51 69 66 51 71 68 53 62 60 47 30 29 24 5 5 7 5 5 5 8 8 8 11 9 10 11 11 11 13 11 12 17 17 15 72 64 53 70 66 54 71 69 54 71 59 47 66 57 48 68 70 57 69 67 52 71 63 50 18 17 15 11 11 9 12 12 12 11 11 11 12 12 12 12 10 11 10 10 10 10 10 10 17 18 13 26 25 23 27 26 22 20 20 18 13 11 12 11 9 10 10 10 10 12 12 12 14 14 14 13 13 13 12 12 12 14 14 14 15 15 15 15 15 15 15 15 15 17 17 15 15 15 15 12 12 12 10 10 10 10 8 9 10 10 10 10 10 8 11 11 11 11 9 10 10 10 10 10 10 8 9 9 7 16 16 16 21 21 21 12 12 12 9 7 8 11 11 11 9 9 9 7 7 7 6 6 6 7 5 6 5 5 5 8 8 8 6 4 5 10 8 9 12 12 12 9 9 9 9 7 8 5 5 5 5 5 5 6 6 6 6 6 6 6 6 6 9 9 9 10 10 10 11 11 11 9 9 9 7 7 7 6 6 6 8 8 8 8 8 8 9 9 9 9 9 9 10 10 10 12 12 12 12 12 12 11 11 11 11 9 10 
13 11 14 17 17 15 12 12 12 7 7 7 63 53 43 70 60 48 69 62 46 71 63 52 68 64 52 70 64 52 47 44 35 31 30 26 31 30 26 37 37 29 29 28 23 7 7 7 10 10 12 12 12 12 11 11 11 12 10 11 17 16 12 70 67 52 72 69 54 72 68 56 66 56 44 67 59 48 70 71 55 67 63 51 37 34 27 15 13 14 10 10 10 12 10 11 12 12 12 11 11 11 12 10 11 11 9 12 11 11 13 14 12 13 12 12 12 12 12 12 10 11 13 12 12 10 12 12 12 13 13 13 13 13 13 14 14 14 12 12 14 13 11 14 13 13 13 15 15 15 16 16 16 15 15 15 15 15 15 13 13 13 10 10 10 9 9 9 8 10 9 9 9 9 9 9 9 10 10 10 11 9 10 10 10 10 10 10 10 9 7 8 10 10 10 12 10 11 9 9 9 8 8 8 9 9 9 9 7 8 4 6 5 5 5 5 7 5 6 6 6 6 6 6 6 6 4 5 9 7 8 12 12 12 10 10 10 10 8 9 7 7 7 5 5 5 6 6 6 6 6 6 7 7 7 9 9 9 9 9 9 11 11 11 8 8 8 8 8 8 8 8 8 10 10 10 9 9 9 10 10 10 10 10 10 11 11 11 12 12 12 10 10 10 10 10 10 10 8 9 
49 42 34 53 44 37 50 43 35 44 41 32 67 59 46 38 35 28 30 26 23 31 28 23 30 29 24 32 28 27 16 16 14 10 10 10 10 8 11 42 39 34 62 60 48 45 45 35 50 47 38 49 49 39 47 46 41 48 45 38 48 45 36 31 30 25 31 30 26 30 29 24 30 26 23 30 27 22 31 31 23 31 30 25 17 17 15 13 11 14 13 11 14 41 36 30 21 20 18 13 13 13 11 11 9 12 14 13 14 14 14 14 14 14 11 11 9 10 10 10 11 11 13 12 12 12 15 15 15 17 17 17 17 16 14 14 14 14 13 13 13 13 15 14 14 14 14 12 12 12 12 12 12 13 13 13 12 12 14 12 12 12 10 10 10 9 9 9 9 9 9 10 10 8 10 10 12 10 10 10 11 9 12 11 11 9 12 12 12 11 9 10 7 7 7 7 7 7 8 8 8 8 8 8 8 8 8 6 6 6 5 5 5 5 3 4 6 4 5 6 6 6 5 5 5 5 3 4 8 6 7 11 11 11 12 12 12 11 9 10 7 7 7 5 5 5 6 6 6 6 6 6 9 7 8 9 9 9 10 8 9 11 11 11 8 8 8 9 9 9 9 9 9 9 9 9 12 10 11 11 11 11 12 10 11 10 10 10 9 9 9 9 9 9 9 9 9 10 8 9 
71 63 50 71 61 51 69 59 49 71 61 49 36 32 29 16 15 13 6 6 6 4 6 5 7 7 7 8 8 8 9 9 9 9 9 9 28 27 22 59 59 47 71 69 56 72 66 54 71 67 55 71 69 57 71 69 57 70 66 55 63 61 48 9 9 11 9 9 9 7 7 5 9 7 10 6 6 8 7 6 4 11 13 12 14 14 14 12 12 12 10 12 11 28 24 21 20 18 19 14 14 14 12 12 12 15 15 15 17 15 16 14 12 13 10 10 10 10 10 10 11 11 11 12 12 12 15 15 15 18 18 20 16 16 16 15 15 15 15 15 13 16 16 14 15 15 15 12 12 14 10 10 10 11 11 11 12 12 12 12 12 12 12 12 14 9 9 9 9 8 6 10 10 10 8 10 9 10 10 10 11 11 11 11 11 11 11 11 11 11 11 13 11 11 11 7 7 7 7 7 7 7 7 7 5 5 5 5 5 5 6 4 5 5 5 5 6 4 5 5 5 5 5 5 5 7 5 6 9 7 8 11 11 11 14 14 14 11 9 10 8 8 8 6 6 6 4 4 4 6 6 6 9 9 9 11 11 11 10 10 10 10 10 10 9 9 9 9 9 9 10 10 10 10 10 10 13 11 12 13 13 13 11 9 10 11 9 10 8 8 8 9 9 9 10 10 10 10 8 9 
71 65 51 70 62 49 71 59 47 72 59 50 17 16 14 8 8 8 6 6 6 6 6 6 7 7 7 9 9 9 10 8 9 10 8 9 38 38 28 71 68 53 72 66 52 72 66 54 72 66 54 73 69 58 71 67 58 61 58 49 34 33 28 9 9 7 8 6 9 7 7 7 9 7 8 8 6 7 7 7 5 11 11 13 13 13 11 11 11 11 10 10 10 11 11 11 13 13 13 13 13 11 13 13 13 13 13 13 16 14 15 16 14 17 10 10 10 10 10 10 12 10 11 13 11 12 14 12 13 17 17 17 17 17 17 16 16 16 19 17 20 17 17 17 15 15 15 13 13 15 11 11 11 9 9 9 11 11 11 14 14 14 11 11 13 11 11 11 10 8 11 11 9 10 11 9 10 10 10 10 11 10 8 10 10 10 10 10 10 8 10 7 9 9 9 9 9 9 9 9 9 7 7 7 5 5 5 6 6 6 5 5 5 6 4 5 7 5 6 6 6 6 5 5 5 7 5 6 10 8 9 12 12 12 13 13 13 12 10 11 8 8 8 7 7 7 6 4 5 7 7 7 10 10 10 10 10 10 10 10 10 10 8 9 10 10 10 8 10 9 9 9 9 10 10 10 11 9 10 11 11 11 11 9 10 11 9 10 10 10 10 9 9 9 10 10 10 10 8 9 
72 69 54 71 63 52 69 59 47 70 60 48 16 15 13 8 8 8 6 4 5 7 7 7 8 10 9 9 9 9 9 9 9 9 9 9 38 35 26 69 63 47 71 65 49 72 66 52 71 65 51 72 66 52 71 68 53 55 51 40 8 6 7 8 8 8 6 6 6 8 7 5 9 7 8 8 8 8 8 8 8 10 10 10 11 11 11 9 9 9 8 8 8 10 10 10 10 10 10 11 11 11 12 12 12 12 12 12 14 12 13 15 13 14 13 11 12 12 10 11 12 12 12 13 13 13 13 13 13 15 15 15 17 17 17 19 19 19 20 20 20 15 15 15 14 14 14 13 13 13 12 12 12 8 8 8 11 11 11 13 13 13 11 11 11 12 12 12 10 10 10 12 10 11 12 12 12 10 10 10 9 9 9 9 9 9 10 8 9 7 7 7 8 8 8 7 7 7 8 8 8 8 8 8 5 5 5 6 6 6 5 5 5 6 6 6 6 6 6 5 5 5 7 3 4 8 8 8 11 9 12 12 10 11 12 12 12 10 10 12 10 10 10 10 10 10 6 6 6 6 6 6 7 7 7 9 9 9 10 10 10 9 9 9 10 9 7 8 10 9 10 8 9 9 9 9 9 9 9 9 9 9 11 11 11 11 11 9 9 9 9 10 10 10 10 10 10 7 7 7 
70 67 52 71 65 53 71 63 50 71 62 47 16 15 11 9 7 8 7 7 7 8 8 8 8 8 8 9 7 8 8 8 8 9 7 8 39 35 26 70 61 44 70 63 47 71 64 48 68 61 45 68 61 45 63 57 43 31 30 25 6 6 6 7 7 5 7 7 7 8 7 5 7 7 7 9 9 9 8 8 8 9 9 9 9 9 9 8 8 8 9 9 9 9 9 9 9 9 9 9 9 9 10 10 10 11 11 11 11 11 11 12 12 12 12 12 12 11 11 11 11 11 11 11 11 11 11 11 11 12 12 12 16 16 16 17 17 17 20 20 20 15 15 15 14 14 14 13 13 13 14 14 14 11 11 11 11 11 11 12 12 12 12 12 12 10 10 10 9 9 9 13 11 12 11 11 11 10 10 10 10 10 10 9 9 9 8 6 7 6 6 6 7 7 7 8 8 8 6 6 6 6 6 6 6 6 6 6 6 6 6 6 6 6 6 6 5 5 5 2 4 3 4 4 4 12 10 11 12 10 11 11 11 11 11 11 11 9 9 9 11 11 11 11 11 11 6 6 6 4 4 4 7 5 6 9 9 9 9 9 9 10 10 10 9 9 9 9 9 9 10 10 10 10 10 10 9 9 9 9 9 9 9 9 9 10 10 10 10 10 10 10 10 10 9 9 9 8 8 8 
71 65 53 69 65 53 71 64 54 68 64 52 15 15 15 8 6 7 7 7 7 8 8 8 9 9 11 8 8 6 7 7 7 9 7 8 29 26 21 48 41 31 47 40 30 47 43 32 47 40 30 43 41 29 37 34 25 6 6 8 6 6 6 6 6 6 7 7 7 7 7 5 9 9 9 9 9 9 8 8 8 8 8 8 8 8 8 7 7 7 8 8 8 9 7 8 8 8 8 8 8 8 9 9 9 11 11 11 12 10 11 11 9 10 12 10 11 12 10 11 10 10 10 11 11 11 10 10 10 11 11 11 13 13 13 15 15 15 15 15 15 15 15 15 12 12 12 14 14 14 16 16 16 14 14 14 13 13 13 12 12 12 11 11 11 10 10 10 9 9 9 11 9 10 12 12 12 12 12 12 10 10 10 9 9 9 8 6 7 6 6 6 8 8 8 8 8 8 6 6 6 6 6 8 7 7 9 7 7 7 7 7 7 7 7 7 6 6 6 5 4 2 4 4 4 9 9 9 12 10 11 11 9 10 10 10 10 9 9 9 10 10 10 9 9 9 6 6 6 5 5 5 7 7 7 9 9 9 9 9 9 9 9 9 9 9 9 8 8 8 10 10 10 10 10 10 10 10 10 9 7 8 6 6 6 8 6 7 10 10 10 10 10 10 11 9 10 8 8 8 
69 66 51 70 66 54 71 67 55 49 49 39 12 10 11 7 7 9 8 8 8 8 8 8 9 9 9 8 8 10 7 7 7 8 10 9 10 10 10 10 8 9 10 8 9 10 8 9 10 8 9 9 9 9 7 7 7 6 6 8 6 6 6 7 7 7 7 5 6 9 9 9 10 10 10 9 9 9 9 7 8 8 8 8 8 8 8 7 7 7 8 8 8 8 8 8 8 8 8 9 9 9 10 10 10 12 12 12 11 11 11 9 9 9 8 8 8 8 8 8 9 9 9 8 8 8 10 10 10 11 11 11 10 10 10 11 11 11 13 13 13 11 11 11 12 12 12 16 16 16 18 18 18 15 15 15 15 15 15 13 13 13 11 11 11 9 9 9 9 9 9 12 10 11 13 13 13 13 13 13 13 13 13 9 9 9 9 7 8 7 7 7 8 8 10 7 7 7 6 6 6 6 6 6 7 7 7 8 8 8 8 8 8 8 8 10 7 7 7 6 4 5 8 6 7 8 8 8 8 8 8 11 9 10 9 9 9 9 9 9 8 8 8 7 7 7 7 5 6 6 6 6 10 6 7 8 8 8 7 7 7 8 8 8 10 10 10 9 9 9 8 8 8 9 9 9 9 9 9 6 6 6 4 4 4 6 6 6 8 6 7 8 8 8 9 9 9 7 7 7 
73 67 53 69 67 55 52 49 40 12 12 10 6 6 8 7 7 7 8 8 6 8 8 6 9 9 9 9 9 7 9 7 8 9 9 9 9 9 9 9 9 9 10 8 9 9 9 11 9 9 7 10 10 10 8 8 8 7 7 5 6 8 5 6 6 6 7 7 7 10 10 10 11 9 10 8 8 8 7 7 7 7 7 7 7 7 7 8 8 8 8 8 8 8 8 8 8 8 8 8 8 8 9 9 9 11 11 11 13 11 12 11 9 10 9 7 8 8 6 7 7 7 7 8 8 8 10 10 10 10 10 10 9 9 9 8 8 8 10 10 10 9 9 9 13 13 13 18 18 18 14 14 14 13 13 13 13 13 13 12 12 12 11 11 11 10 10 10 10 10 10 13 11 12 15 15 15 13 13 13 13 13 13 12 12 12 10 8 9 8 8 8 8 8 10 7 7 7 8 8 8 7 7 7 7 7 7 7 7 7 9 9 9 8 8 10 6 6 8 6 6 6 7 7 7 8 8 8 12 8 7 10 10 10 10 10 12 8 8 8 8 8 8 8 8 8 7 7 7 7 7 7 7 7 7 7 7 7 7 7 7 7 7 7 8 8 8 9 9 9 7 7 7 8 8 8 8 8 8 6 6 6 5 5 5 4 4 4 4 4 4 6 6 6 7 5 6 7 5 6 
56 54 41 56 54 42 13 11 12 7 7 5 7 7 7 8 6 7 7 9 8 9 9 9 11 10 8 9 9 9 8 8 6 9 9 9 6 8 7 8 8 8 10 8 11 9 9 9 10 8 9 10 10 12 9 9 9 9 7 8 7 7 5 6 6 6 7 7 7 9 9 9 8 8 8 7 7 7 7 7 7 7 7 7 8 8 8 11 9 10 9 9 9 9 9 9 9 9 9 8 8 8 9 9 9 11 11 11 12 12 12 9 9 9 9 9 9 8 8 8 7 7 7 9 9 9 11 11 11 11 11 11 8 8 8 8 8 8 9 9 9 10 10 10 14 14 14 13 13 13 11 11 11 12 12 12 12 12 12 10 10 10 8 8 8 9 9 9 10 10 10 12 10 11 13 13 13 12 12 12 13 13 13 12 12 12 10 8 9 9 9 9 8 8 8 9 9 9 8 8 8 8 8 10 7 7 9 6 6 6 6 6 6 6 6 6 6 6 6 8 8 8 8 6 7 7 7 7 10 8 9 10 10 10 10 10 10 9 9 9 9 9 9 9 9 9 9 7 8 6 6 6 8 6 7 8 8 8 7 7 7 8 8 8 8 8 8 9 7 8 7 7 7 9 7 8 7 7 7 7 7 7 5 5 5 5 5 5 6 4 5 4 4 4 4 4 4 5 5 5 
12 11 9 12 10 15 9 8 6 6 6 6 6 6 6 8 6 7 9 10 5 10 10 10 9 9 9 9 9 9 8 8 8 9 9 9 7 7 7 6 6 6 6 6 6 8 8 6 9 9 9 10 10 10 10 10 10 12 10 13 7 7 7 6 6 6 7 7 7 6 6 4 5 5 5 6 6 6 6 6 6 7 7 7 8 8 8 9 7 8 10 10 10 10 10 10 10 10 10 9 9 9 9 9 9 11 11 11 11 9 10 11 9 10 10 8 9 10 8 9 8 8 8 8 8 8 9 9 9 8 8 8 8 8 8 9 9 9 9 9 9 11 11 11 12 12 12 10 10 10 11 11 11 11 11 11 10 10 10 13 13 13 10 10 10 8 8 8 10 10 10 13 11 12 13 13 13 11 11 11 12 12 12 11 11 11 12 10 11 8 8 8 9 9 9 8 8 8 9 9 9 9 9 9 9 9 9 6 6 6 6 6 6 6 6 6 6 6 6 8 6 7 10 8 9 7 7 7 10 8 9 10 8 9 9 9 7 10 10 10 9 9 9 8 8 8 7 7 7 6 6 6 8 8 8 9 9 9 9 9 9 8 8 8 8 8 8 9 9 9 8 8 8 8 8 8 8 8 8 7 7 7 5 5 5 5 5 5 5 5 5 3 3 3 4 2 3 5 5 5 
9 9 9 9 7 8 6 6 6 4 4 4 7 7 9 7 7 9 11 9 10 11 9 10 10 10 10 10 10 10 8 6 7 9 9 9 8 8 8 6 6 6 6 5 3 9 7 10 8 8 8 12 8 9 10 10 10 10 10 10 9 7 8 8 8 8 7 6 4 5 5 5 5 5 5 7 7 7 8 6 7 7 7 7 7 7 7 8 8 8 11 11 11 11 11 11 11 11 11 12 12 12 13 13 13 11 11 11 9 9 9 8 8 8 8 8 8 9 9 9 9 9 9 8 8 8 7 7 7 7 7 7 7 7 7 9 9 9 9 9 9 12 12 12 13 13 13 10 10 10 12 12 12 10 10 10 13 13 13 16 16 16 13 13 13 9 9 9 12 12 12 17 15 16 12 12 12 13 13 13 12 12 12 10 10 10 11 9 10 9 9 9 9 9 9 9 9 9 9 9 9 10 10 10 10 10 10 7 7 7 6 6 6 5 5 5 7 7 7 8 8 10 8 8 8 25 21 20 22 21 19 12 12 12 10 10 10 10 10 10 10 10 10 7 7 7 5 5 5 5 5 5 8 8 8 9 9 9 10 10 10 10 10 10 9 9 9 8 8 8 8 8 8 13 13 11 20 20 18 8 10 9 8 6 7 5 5 5 4 4 4 3 3 3 2 2 2 6 6 6 
8 6 7 8 8 8 6 4 5 7 7 7 7 7 7 8 8 8 8 8 8 8 8 8 8 8 8 9 9 9 8 8 8 8 8 8 9 9 9 7 7 7 6 6 6 6 6 6 8 6 7 10 8 9 9 7 8 10 8 9 9 7 8 8 6 7 7 5 6 6 4 5 4 4 4 7 7 7 7 7 7 7 7 7 8 8 8 10 10 10 10 10 10 11 11 11 11 11 11 12 12 12 15 15 15 14 14 14 11 11 11 9 9 9 8 8 8 8 8 8 9 9 9 8 8 8 7 7 7 8 8 8 9 9 9 9 9 9 11 11 11 12 12 12 14 14 14 11 11 11 11 11 11 11 11 11 13 13 13 17 17 17 13 13 13 11 11 11 12 12 12 15 13 14 17 17 19 16 16 16 14 14 14 12 10 11 9 9 11 9 11 10 10 10 10 9 10 5 10 10 10 11 11 11 9 9 7 8 8 8 8 8 6 5 5 5 8 8 8 8 8 8 14 14 12 71 64 54 68 60 47 26 25 23 18 18 16 9 9 7 7 5 6 5 5 5 6 6 6 7 7 7 8 8 8 10 10 10 9 9 9 13 11 12 17 16 12 16 16 14 16 16 14 36 33 28 56 52 43 11 11 11 10 10 10 10 8 9 6 6 6 3 3 5 4 4 4 4 4 4 
8 8 8 9 9 9 7 5 6 7 7 7 9 9 9 10 8 9 7 7 7 5 5 5 7 7 7 8 8 8 7 7 7 8 8 8 9 9 9 8 8 8 6 6 6 6 6 6 7 7 7 9 9 9 9 9 9 9 9 9 8 8 8 7 7 7 6 6 6 5 5 5 5 5 5 6 6 6 8 8 8 8 8 8 10 10 10 12 12 12 10 10 10 11 11 11 12 12 12 11 11 11 11 11 11 12 12 12 11 11 11 9 9 9 8 8 8 9 9 9 8 8 8 7 7 7 8 8 8 9 9 9 10 10 10 10 10 10 12 12 12 13 13 13 13 13 13 10 10 10 9 9 9 11 11 11 13 13 13 14 14 14 11 11 11 11 11 11 14 14 12 16 16 16 20 18 19 18 16 17 15 15 15 12 12 12 12 12 12 10 10 10 11 11 11 11 12 7 12 12 12 11 9 12 9 9 7 11 11 11 8 8 10 7 7 5 15 14 12 15 14 12 67 64 49 69 61 48 70 62 49 73 63 53 68 64 53 14 14 14 6 6 6 5 5 3 6 6 8 8 6 7 12 8 9 11 11 11 11 11 11 40 35 29 70 62 49 71 64 54 72 68 56 72 63 54 56 49 41 11 11 11 13 13 11 11 11 11 10 8 9 6 4 7 5 4 2 3 3 3 
8 8 8 10 10 10 6 6 6 7 7 7 11 9 10 11 9 10 7 7 7 7 5 6 8 8 8 8 8 8 8 8 8 8 8 8 9 9 9 7 7 7 5 5 5 7 7 7 8 8 8 9 9 9 9 9 9 8 8 8 7 7 7 7 7 7 7 7 7 5 5 5 4 4 4 6 6 6 9 9 9 8 8 8 9 9 9 12 12 12 11 11 11 12 12 12 12 12 12 9 9 9 7 7 7 7 7 7 8 8 8 9 9 9 10 10 10 8 8 8 7 7 7 6 6 6 7 7 7 9 9 9 10 10 10 11 11 11 12 12 12 13 13 13 12 12 12 10 10 10 10 10 10 11 11 11 13 13 13 14 14 14 11 11 11 12 12 12 15 15 15 16 16 18 16 14 15 14 14 14 14 14 14 13 13 13 12 12 12 11 11 11 9 9 9 12 12 14 15 13 14 10 10 8 9 9 9 11 11 11 10 10 8 15 14 12 66 57 42 68 60 47 70 64 50 70 62 49 70 62 49 69 63 49 69 63 51 25 21 18 8 8 8 7 7 5 7 7 7 10 10 10 11 11 11 10 10 10 10 10 10 40 37 30 71 65 53 73 66 56 70 66 55 71 64 54 57 50 42 12 12 10 12 12 10 11 11 13 11 9 10 8 8 8 6 4 5 4 3 1 
9 9 9 9 9 9 8 6 7 8 8 8 10 10 10 8 6 7 7 7 7 9 7 8 8 8 8 8 8 8 9 9 9 9 9 9 8 8 8 7 7 7 6 6 6 7 7 7 9 9 9 9 9 9 9 9 9 7 7 7 6 6 6 7 7 7 7 7 7 6 6 6 4 4 4 4 4 4 8 8 8 8 8 8 9 9 9 12 12 12 14 14 14 12 12 12 10 10 10 9 9 9 7 7 7 8 8 8 8 8 8 9 9 9 10 10 10 9 9 9 6 6 6 7 7 7 8 8 8 10 10 10 12 12 12 14 14 14 14 14 14 12 12 12 10 10 10 10 10 10 10 10 10 11 11 11 12 12 12 13 13 13 12 12 12 12 12 12 14 14 14 13 13 15 10 8 9 10 10 12 12 12 12 13 13 11 12 12 12 12 11 9 14 12 13 14 12 15 12 12 14 9 9 9 9 9 9 12 12 12 10 10 12 15 14 12 67 58 43 71 63 50 72 66 52 70 61 46 70 62 49 70 64 52 69 63 51 71 65 53 28 24 21 8 8 8 7 7 5 9 9 9 10 10 12 9 9 11 8 8 8 41 38 33 72 65 55 73 69 58 71 67 56 72 66 54 55 51 40 12 12 12 12 12 12 11 11 11 10 8 11 11 11 11 8 8 8 5 5 5 
14 12 13 8 8 8 6 4 5 8 8 8 7 7 7 6 4 5 7 7 7 9 9 9 10 10 10 10 10 10 9 9 9 8 8 8 7 7 7 6 6 6 7 7 7 8 8 8 8 8 8 8 8 8 8 8 8 8 8 8 5 5 5 5 5 5 6 6 6 7 7 7 6 6 6 6 6 6 8 8 8 8 8 8 9 9 9 12 12 12 13 13 13 12 12 12 9 9 9 8 8 8 8 8 8 9 9 9 8 8 8 8 8 8 11 11 11 10 10 10 8 8 8 7 7 7 8 8 8 9 9 9 12 12 12 14 14 14 12 12 12 11 11 11 10 10 10 9 9 9 11 11 11 15 15 15 15 15 15 13 13 13 11 11 11 12 12 12 11 11 11 8 8 8 7 7 5 7 7 5 10 10 10 13 13 13 16 15 13 17 16 14 14 12 15 10 10 8 9 9 9 9 9 7 10 10 12 10 10 10 8 10 7 15 14 12 68 61 45 72 66 52 70 66 54 71 63 52 67 59 48 69 61 48 69 63 49 70 62 51 29 25 22 12 10 11 7 6 4 6 6 6 9 9 9 10 10 8 8 10 9 10 8 9 40 39 34 70 68 56 70 68 55 70 64 52 53 49 40 10 8 11 10 9 7 16 16 14 59 51 40 12 12 10 11 11 11 7 7 5 
17 15 16 11 11 11 9 7 8 9 7 8 7 7 7 6 6 6 8 8 8 9 9 9 10 10 10 12 12 12 11 11 11 9 9 9 8 8 8 8 8 8 7 7 7 7 7 7 8 8 8 8 8 8 8 8 8 8 8 8 6 6 6 6 6 6 6 6 6 9 9 9 9 9 9 8 8 8 8 8 8 7 7 7 9 9 9 10 10 10 9 9 9 9 9 9 10 10 10 10 10 10 8 8 8 9 9 9 9 9 9 8 8 8 8 8 8 9 9 9 9 9 9 8 8 8 9 9 9 10 10 10 12 12 12 13 13 13 10 10 10 8 8 8 12 12 12 10 10 10 13 13 13 18 18 18 18 18 18 14 14 14 10 10 10 12 12 12 10 10 8 9 9 9 8 8 8 6 6 4 8 8 6 13 13 13 17 17 17 16 16 18 14 14 14 11 9 10 9 9 9 9 11 8 10 8 9 9 9 7 9 9 9 9 9 7 17 16 14 70 62 51 67 63 51 70 64 52 69 59 49 68 60 47 70 60 48 70 62 49 27 23 20 9 9 9 5 5 5 6 6 6 10 10 12 11 11 13 10 10 12 9 9 9 41 38 31 72 65 55 71 67 55 69 65 53 56 49 39 8 8 8 22 21 17 67 63 51 65 55 45 70 66 54 71 73 60 7 7 9 
19 19 19 16 16 16 11 9 10 6 6 6 6 6 6 8 6 7 9 9 9 10 10 10 10 10 10 11 11 11 11 11 11 9 9 9 8 8 8 8 8 8 8 8 8 8 8 8 9 9 9 10 10 10 8 8 8 8 8 8 7 7 7 7 7 7 8 8 8 11 11 11 12 12 12 8 8 8 8 8 8 11 11 11 10 10 10 9 9 9 9 9 9 8 8 8 11 11 11 10 10 10 9 9 9 10 10 10 10 10 10 7 7 7 8 8 8 9 9 9 10 10 10 9 9 9 10 10 10 10 10 10 11 11 11 12 12 12 9 9 9 10 10 10 14 14 14 13 13 13 11 11 11 14 14 14 15 15 15 13 13 13 11 11 11 11 11 11 9 9 9 8 8 8 8 8 8 8 8 10 9 9 9 11 13 12 13 13 13 45 42 35 73 69 57 73 69 58 70 66 55 70 64 52 69 63 51 71 63 50 62 58 47 8 10 9 9 8 6 9 9 9 10 10 10 10 10 10 9 10 12 61 53 42 69 61 50 69 61 50 69 61 48 69 63 49 70 64 48 70 64 48 70 64 50 70 60 48 69 59 47 70 63 53 39 36 31 9 9 11 10 10 10 7 9 8 7 7 7 7 7 7 23 22 20 69 62 52 64 58 46 70 62 49 72 64 53 69 56 47 
17 17 17 16 16 16 10 10 10 6 6 6 6 6 6 8 6 7 8 8 8 10 8 9 9 9 9 10 10 10 12 12 12 10 10 10 9 9 9 9 9 9 8 8 8 8 8 8 11 9 10 11 9 10 9 7 8 8 6 7 8 6 7 8 6 7 9 7 8 14 12 13 13 13 13 9 9 9 9 9 9 12 12 12 10 10 10 8 8 8 8 8 8 9 9 9 11 11 11 12 12 12 11 11 11 10 10 10 9 9 9 8 8 8 8 8 8 8 8 8 9 9 9 10 10 10 11 11 11 11 11 11 11 11 11 11 11 11 9 9 9 10 10 10 15 15 15 14 14 14 11 11 11 11 11 11 13 13 13 14 14 14 12 12 12 11 11 11 10 8 9 10 10 10 9 9 9 9 9 9 10 10 10 13 12 10 36 33 28 65 59 47 70 62 49 71 63 52 72 65 55 72 63 54 70 64 48 70 64 50 70 64 50 53 53 43 9 7 8 10 9 7 10 10 12 10 10 10 10 10 10 18 17 15 18 17 15 62 55 45 69 61 50 69 61 50 70 62 49 70 62 51 70 62 49 70 62 49 68 62 50 42 37 31 10 10 10 8 8 8 8 10 7 8 6 9 5 7 6 6 8 7 22 21 16 70 64 52 67 59 48 69 59 49 71 61 49 69 59 47 
11 11 11 12 12 12 10 10 10 7 7 7 7 7 7 8 8 8 7 7 7 9 9 9 9 7 8 9 9 7 12 10 11 12 8 9 8 8 8 7 7 7 7 7 7 8 7 12 9 11 10 10 10 10 9 7 8 8 8 8 6 6 6 5 5 3 9 7 8 13 13 13 13 11 12 9 9 9 9 9 9 10 10 8 8 8 8 6 6 8 10 6 7 8 8 8 11 11 13 11 11 11 11 10 8 10 10 10 7 7 7 6 6 8 10 6 7 7 7 7 7 7 7 9 9 11 12 10 11 9 11 10 11 13 12 12 12 14 8 8 6 19 17 18 64 55 46 63 55 44 62 54 43 61 57 45 66 62 53 21 21 19 12 14 13 10 10 8 9 7 8 9 9 9 10 10 10 11 11 11 10 10 10 10 8 9 39 34 28 69 57 45 68 56 44 69 60 45 70 61 52 70 63 55 72 66 52 69 66 51 61 59 46 16 15 13 7 7 7 9 9 7 10 10 10 9 9 9 11 9 10 9 9 9 10 10 12 62 55 47 70 64 52 68 65 50 71 61 49 70 62 51 70 64 50 69 63 51 70 64 50 38 35 30 5 5 7 6 6 6 7 7 5 8 8 8 6 4 5 7 5 6 6 7 9 23 19 16 69 60 45 67 60 44 70 58 46 70 63 47 
9 9 9 11 11 11 9 7 8 5 5 5 8 8 8 8 8 8 10 10 10 10 8 9 10 8 9 10 10 8 11 11 11 9 9 9 5 7 4 5 5 5 6 4 5 7 5 6 10 10 10 9 9 9 9 9 11 8 8 8 6 6 6 6 4 5 8 8 6 14 12 13 13 11 12 8 8 8 8 8 8 9 9 9 7 9 6 6 6 4 8 6 7 8 8 8 49 45 34 63 55 44 62 52 40 27 24 19 7 7 7 6 6 6 6 6 6 5 7 4 6 6 6 8 8 8 9 9 9 8 10 9 11 9 10 20 16 15 62 54 43 61 52 43 68 60 47 71 61 49 70 63 45 71 65 53 71 67 55 64 61 52 20 19 14 10 10 12 9 9 9 12 10 11 11 11 11 10 10 12 10 8 9 10 8 9 39 31 28 67 55 43 67 58 43 68 58 48 69 61 50 69 63 49 72 66 52 72 66 54 60 60 50 7 7 9 7 7 5 11 9 10 9 7 8 8 8 8 9 7 8 8 9 11 9 9 11 61 57 48 69 65 53 71 65 53 69 61 48 70 64 52 71 64 54 69 63 49 70 64 50 40 37 30 7 7 7 5 5 5 7 7 7 10 10 10 6 6 6 6 6 4 7 7 7 14 13 11 67 57 45 64 56 43 67 60 44 72 64 51 
9 7 8 9 9 9 7 7 7 8 8 8 9 9 9 11 9 10 12 12 12 11 11 11 10 10 10 12 12 10 12 12 12 8 8 8 5 5 3 5 5 5 4 4 4 21 20 18 56 49 41 43 39 30 9 9 9 12 10 11 8 10 9 6 7 9 9 9 9 14 14 14 15 13 16 9 9 9 6 8 7 8 8 8 9 9 9 8 7 5 8 8 8 9 9 9 21 20 16 50 46 37 68 60 47 32 27 21 7 7 7 8 6 9 7 5 6 7 7 5 9 9 9 10 8 9 7 5 6 6 6 4 9 9 9 17 17 15 69 61 48 69 61 48 67 59 46 67 58 43 69 63 49 72 66 54 69 67 55 72 70 58 21 19 20 13 12 10 11 11 11 12 12 12 12 11 9 11 10 8 10 8 9 9 9 9 39 29 27 69 57 45 69 59 47 70 62 49 69 62 52 70 64 52 72 66 54 70 63 53 64 57 49 7 7 7 8 8 6 9 9 9 9 9 9 8 8 8 11 10 8 11 11 11 8 8 8 62 60 47 71 65 49 71 65 53 68 60 49 69 63 49 69 65 54 69 63 49 72 66 52 43 38 32 10 10 10 5 5 5 8 8 6 13 13 13 8 8 6 7 7 7 7 7 7 14 13 11 66 56 44 64 54 42 67 59 46 71 68 53 
7 7 7 8 8 8 8 8 8 7 7 7 10 10 10 11 11 11 12 12 12 12 12 12 12 12 12 14 14 14 12 12 12 10 10 10 7 7 7 5 5 5 4 4 4 14 13 11 23 22 20 18 18 16 8 8 6 13 12 10 13 13 13 12 10 11 10 10 10 16 16 16 15 15 15 8 8 8 8 8 8 9 9 7 10 8 9 9 8 6 9 9 9 44 37 29 57 48 39 67 56 50 69 61 48 30 27 22 8 8 8 7 7 7 7 7 7 8 7 5 12 10 13 10 10 12 6 6 6 6 6 4 9 9 9 17 18 13 70 63 53 69 59 49 68 58 46 67 57 45 70 64 52 72 66 54 71 67 55 71 69 57 21 20 18 14 14 14 12 12 12 13 13 13 13 13 13 10 10 10 10 8 9 9 9 9 41 34 26 70 58 44 69 60 45 68 62 48 68 64 52 71 65 51 71 63 52 71 62 53 63 56 46 10 10 10 7 7 9 7 7 7 6 6 6 7 7 7 11 11 11 13 13 11 12 12 10 64 60 49 71 67 55 70 64 50 69 61 50 69 61 50 70 64 52 68 64 52 70 64 52 42 39 32 9 11 10 7 9 8 9 9 9 13 11 12 11 9 10 7 7 5 7 7 7 15 14 12 68 58 48 67 57 45 66 56 44 72 70 55 
5 5 5 9 9 9 7 7 7 7 7 7 8 8 8 10 10 10 10 10 10 12 12 12 12 10 11 12 12 12 12 10 11 10 12 11 7 7 7 6 6 6 6 4 5 7 5 6 10 8 9 10 10 10 12 10 11 12 12 10 13 13 13 12 10 11 9 11 10 13 13 13 12 12 12 7 8 10 9 9 11 9 9 7 10 10 10 8 8 8 40 37 30 65 55 43 69 60 45 71 61 51 67 59 46 55 47 36 53 43 33 53 44 35 30 27 20 10 10 10 13 11 12 10 10 10 7 7 7 7 7 7 20 20 20 57 53 42 70 64 52 68 60 49 66 57 42 69 57 45 71 64 56 73 69 58 70 67 58 70 68 55 55 52 43 23 22 20 11 11 9 13 13 11 13 13 13 10 10 10 9 9 7 10 10 10 41 34 28 68 59 44 68 59 44 69 59 47 69 63 49 69 63 49 69 63 51 69 61 50 62 56 44 10 10 10 9 7 8 5 5 5 5 5 5 6 8 7 9 9 7 12 12 12 48 48 40 72 69 54 71 65 51 70 64 50 70 64 50 67 65 50 68 65 50 66 62 50 70 64 52 62 58 46 32 31 26 9 9 9 10 10 10 11 10 8 10 10 10 7 7 7 7 5 6 14 13 11 68 61 45 68 60 47 68 59 42 71 67 56 
7 5 6 6 6 6 7 7 7 6 6 6 9 9 9 10 8 9 10 10 10 10 10 10 12 10 11 11 11 11 10 10 10 13 11 12 9 9 9 7 7 7 6 6 6 8 6 7 10 10 8 11 11 13 11 11 11 12 10 11 9 9 9 9 9 9 9 9 11 10 10 10 11 9 10 10 8 11 10 10 10 7 7 9 41 37 28 46 42 33 62 54 41 68 58 46 67 57 45 68 62 48 68 60 49 65 53 41 65 53 39 68 59 42 60 52 39 33 29 26 13 13 13 10 10 8 15 16 11 43 39 30 52 45 35 70 64 50 69 65 53 69 61 50 68 58 46 71 59 47 72 64 53 73 69 60 74 72 60 72 68 56 68 65 50 26 25 21 12 10 11 12 12 12 12 12 12 9 9 11 9 9 9 28 27 22 58 52 38 67 60 44 68 58 46 69 62 46 67 61 47 69 61 50 69 63 49 69 63 49 62 56 44 9 11 10 10 10 10 7 5 6 6 6 6 6 6 8 47 47 39 48 48 40 67 65 53 69 66 51 69 63 49 70 63 47 68 65 50 69 67 54 71 65 51 69 63 49 72 64 53 69 66 51 60 54 42 46 42 33 33 28 22 9 10 12 9 9 9 18 16 17 46 42 33 51 44 36 68 60 47 68 62 48 69 61 48 68 64 52 
7 7 7 6 6 6 9 7 8 8 8 8 8 8 8 9 9 9 9 9 9 9 7 8 10 8 9 12 12 12 12 12 12 10 8 9 7 9 8 6 6 4 7 7 7 10 8 9 11 7 8 11 9 10 21 20 18 36 33 26 11 9 10 45 41 32 47 43 34 47 44 35 47 43 34 47 44 35 47 44 37 46 43 34 64 56 43 68 61 45 71 63 50 39 34 28 29 24 20 31 28 23 31 27 24 52 43 34 67 55 43 68 56 42 69 62 46 63 55 44 48 41 33 47 40 30 48 42 30 66 56 44 69 61 48 69 63 49 66 62 50 34 31 24 34 29 26 34 31 26 37 32 29 34 33 28 34 33 29 65 63 50 70 64 48 56 52 41 46 46 36 46 45 40 47 47 39 47 47 39 48 45 38 58 54 42 68 63 44 49 42 34 30 25 21 31 27 24 32 28 27 32 28 25 32 28 25 32 28 25 31 28 23 11 11 13 13 11 12 45 41 32 44 44 34 47 44 37 70 66 55 69 65 54 69 65 53 68 64 52 69 61 48 69 63 49 39 36 27 32 31 26 32 31 26 55 51 40 70 64 52 70 64 52 69 63 49 68 60 47 62 58 46 47 46 41 47 44 37 51 44 36 69 63 49 69 59 49 69 62 46 65 58 42 30 27 22 26 25 20 
7 7 7 7 7 7 9 9 9 9 9 9 9 9 9 10 10 10 10 10 10 9 9 9 10 10 10 11 11 11 10 8 9 8 8 8 6 6 6 7 7 5 8 8 8 8 8 8 7 7 5 8 6 7 14 13 11 27 26 22 14 13 11 68 59 44 69 63 47 68 62 48 70 61 52 70 66 54 69 63 47 67 61 49 68 60 47 67 59 46 67 61 47 23 22 18 8 8 6 7 7 7 9 9 9 22 21 17 48 41 31 69 57 41 68 61 45 70 61 46 68 58 46 69 59 47 68 58 46 67 57 45 71 64 48 70 64 52 64 57 47 13 13 13 13 12 10 11 13 12 11 10 15 9 9 9 10 11 13 29 28 23 66 63 46 70 69 51 68 65 50 69 67 54 70 68 56 71 67 55 69 66 51 69 66 49 68 65 48 38 35 30 8 8 8 9 7 8 9 7 8 8 6 7 8 8 8 9 9 9 11 9 10 13 13 11 51 47 36 68 60 47 67 64 49 69 66 51 67 61 49 67 61 49 70 64 52 70 62 49 38 33 29 32 29 24 15 15 13 10 8 9 9 9 9 23 24 19 29 28 23 49 45 36 70 62 49 70 62 49 72 64 51 71 69 56 69 65 56 68 62 50 69 63 51 69 60 51 66 59 49 27 24 19 5 5 5 4 2 3 
7 7 9 7 7 7 10 10 10 11 11 11 10 10 12 9 9 9 11 11 11 32 29 24 40 36 27 39 36 27 39 35 26 38 34 23 38 31 23 23 18 14 8 6 7 8 8 6 8 8 8 9 9 9 9 9 9 8 8 8 13 13 11 66 57 40 68 63 44 68 62 48 70 62 51 69 61 48 67 61 45 69 61 48 68 60 47 67 59 46 44 40 31 14 13 11 8 7 5 9 7 8 9 9 9 8 8 10 38 34 23 70 58 42 68 59 42 68 59 42 69 59 47 68 60 47 70 60 50 69 61 48 71 64 48 67 61 49 37 36 31 13 13 11 13 13 13 11 11 13 9 9 7 9 9 9 11 13 10 11 11 11 62 59 44 70 68 53 70 66 54 70 68 55 69 67 55 69 66 51 70 64 50 70 64 50 53 51 38 22 21 17 9 7 8 8 8 8 7 7 9 6 6 6 8 8 8 8 8 6 14 13 11 43 39 28 70 64 50 67 61 47 66 60 48 68 65 48 68 62 46 67 59 46 70 64 50 70 64 50 23 19 16 7 7 7 8 8 6 9 9 9 9 9 9 8 10 9 7 7 7 38 33 27 68 60 47 69 59 47 69 63 49 70 66 54 69 65 53 69 63 49 67 61 47 67 64 49 63 59 47 8 6 7 6 6 6 3 3 1 
7 7 7 9 7 8 11 11 11 13 11 12 11 11 11 33 30 23 40 35 29 62 55 45 70 60 50 69 62 44 68 61 43 66 59 41 52 46 34 22 19 14 7 7 7 7 7 7 9 7 8 9 9 9 9 9 9 9 9 9 14 13 11 67 55 43 67 58 43 68 60 47 68 60 47 67 58 43 67 60 44 70 63 47 69 61 48 69 60 45 21 20 16 8 6 7 8 8 10 8 8 8 8 10 9 8 8 8 38 33 27 68 59 44 68 58 46 67 57 45 69 62 46 70 60 50 69 59 47 68 60 47 68 60 47 63 56 46 13 11 12 13 13 11 12 12 14 10 9 7 8 8 8 8 8 10 11 11 11 13 11 12 62 54 41 69 66 51 71 68 53 68 64 52 68 66 53 68 65 50 69 63 51 70 64 52 38 35 28 7 7 7 8 8 8 9 9 9 9 7 10 7 7 7 7 5 6 8 8 8 17 17 15 68 61 45 70 64 48 69 62 46 65 55 43 70 63 47 69 63 47 68 62 48 67 64 49 43 38 32 15 14 12 6 6 6 9 7 10 9 9 9 12 10 11 11 9 10 7 7 9 36 33 24 68 59 44 68 60 47 70 64 50 70 66 54 70 66 54 68 62 48 67 61 49 64 62 49 34 33 28 9 7 8 5 6 8 4 4 6 
8 8 8 10 8 9 11 11 11 12 12 12 36 35 31 62 54 43 69 59 47 69 59 47 68 62 50 69 59 47 67 58 43 68 56 44 39 32 24 5 6 8 6 6 6 6 6 6 8 7 5 9 7 8 9 7 8 8 8 8 17 13 12 69 59 47 66 57 42 66 57 42 68 61 45 68 59 44 68 59 42 70 63 47 67 60 44 70 58 44 23 19 16 9 9 9 10 10 10 11 9 12 10 10 10 9 7 10 38 35 28 67 61 49 69 59 49 68 58 46 69 63 49 69 63 51 67 59 46 67 59 46 67 57 45 63 57 45 11 11 11 11 11 11 10 10 10 9 7 8 8 8 8 10 10 10 13 11 12 11 11 13 59 49 37 70 60 48 70 64 50 67 61 49 68 64 52 69 66 51 68 64 52 70 64 50 39 36 29 9 7 8 9 11 8 10 10 12 10 10 10 8 8 10 6 6 6 9 7 8 17 16 14 68 60 49 68 61 45 69 60 45 70 58 44 69 61 50 65 62 45 69 63 47 70 64 50 16 18 13 10 8 9 7 7 7 10 10 8 13 13 13 12 12 12 11 11 11 10 5 9 37 32 26 68 60 47 69 63 49 71 65 49 70 68 53 72 68 56 70 62 49 67 61 49 64 62 49 35 34 29 7 6 11 6 6 6 5 5 3 
7 7 7 9 9 9 11 11 13 30 29 25 65 63 51 69 61 48 69 59 47 69 59 49 71 59 47 71 59 47 70 58 46 68 60 47 38 34 25 6 6 6 6 6 4 6 4 5 8 6 7 7 7 7 8 6 7 7 7 5 14 14 14 72 65 55 69 59 47 66 56 44 67 60 42 69 60 43 67 58 43 69 63 47 66 58 45 66 54 42 44 37 29 12 12 10 9 9 9 9 11 10 11 11 13 25 20 16 50 43 35 69 63 51 69 59 49 69 59 49 70 64 50 69 63 49 66 56 46 67 57 45 70 60 48 66 58 47 30 26 23 9 9 11 9 9 11 6 6 6 9 9 11 11 11 11 11 11 11 11 11 11 59 49 37 69 62 46 70 62 51 68 60 47 67 61 47 70 64 50 69 63 51 70 64 50 39 36 29 9 9 9 11 11 11 11 11 13 9 9 9 7 7 7 5 7 6 8 8 8 19 17 18 68 61 51 67 60 44 67 58 41 70 58 46 70 62 51 70 62 49 68 62 48 70 62 49 20 19 17 10 10 10 8 8 8 12 12 10 14 14 14 12 12 12 8 10 9 6 6 6 39 34 28 69 63 49 68 64 52 70 67 52 70 68 55 71 69 57 70 64 52 66 62 50 69 67 55 63 61 49 7 9 8 6 6 6 6 4 5 
8 8 8 9 9 9 12 10 11 63 60 45 68 65 50 68 62 50 68 60 49 69 61 50 69 59 50 68 58 48 69 61 48 69 65 53 50 48 36 17 16 14 6 6 4 6 6 4 5 5 5 5 5 5 5 5 5 14 14 12 34 33 28 72 66 52 71 65 53 67 60 44 65 58 42 70 58 44 69 60 43 69 61 48 68 56 44 63 51 39 67 59 46 43 39 30 16 12 13 12 12 12 24 20 17 52 42 30 68 56 42 69 61 48 68 62 50 69 63 51 67 63 51 69 61 48 66 58 45 71 59 47 69 59 47 68 61 45 65 59 45 26 25 21 11 11 11 8 8 6 10 10 10 13 13 13 15 14 12 32 28 25 65 59 47 68 65 50 72 66 54 69 62 46 68 59 44 69 60 45 70 61 46 68 61 45 40 35 31 11 11 11 11 9 12 10 10 12 9 9 9 7 5 6 7 7 7 7 9 8 17 17 17 72 64 51 68 56 42 70 58 44 70 58 44 71 59 47 69 61 50 69 63 49 69 63 49 20 20 18 13 13 13 11 11 13 13 11 12 11 11 11 8 8 8 9 7 8 19 15 14 50 43 35 69 63 51 68 66 53 72 68 56 71 69 57 70 70 60 69 65 56 68 64 52 69 67 54 65 61 50 27 24 19 7 7 7 6 4 5 
9 9 9 10 8 9 29 28 24 65 59 45 68 61 45 69 63 49 70 62 51 68 61 51 70 64 52 69 61 50 69 61 50 70 66 54 69 65 53 50 43 35 31 26 22 31 27 24 28 29 23 29 28 24 29 28 23 37 36 31 70 67 52 69 62 52 68 64 52 69 63 51 66 57 42 66 57 42 69 57 43 68 56 42 66 54 40 66 54 38 68 59 44 69 62 46 43 39 30 35 30 27 54 44 34 66 52 39 68 55 39 69 59 47 68 62 46 68 62 48 69 63 49 69 63 51 68 60 49 69 59 47 68 59 44 67 58 41 68 61 45 64 58 46 36 31 27 13 13 13 15 15 15 36 33 28 39 35 32 67 63 51 69 65 53 71 65 53 72 69 54 70 63 47 71 59 43 69 62 44 70 63 47 68 60 47 51 44 36 33 28 24 32 29 24 24 23 18 10 10 8 10 10 10 6 6 6 15 14 12 30 29 24 51 47 36 68 59 44 69 57 45 68 56 40 68 56 42 68 59 44 69 63 47 51 49 37 15 15 15 13 13 13 12 12 12 10 10 10 10 10 10 10 10 10 7 7 7 36 33 24 66 60 46 68 64 52 69 65 54 71 67 56 71 69 57 69 69 59 69 65 54 68 64 52 70 66 54 71 65 53 64 57 47 33 30 25 6 6 6 
29 25 24 25 24 20 66 62 51 69 61 48 67 61 49 68 64 53 69 66 51 57 53 44 53 49 40 62 58 47 71 62 53 69 65 54 70 63 53 69 59 47 68 58 48 68 62 50 68 69 53 69 67 54 69 65 53 68 66 51 71 65 53 68 61 45 66 60 46 69 63 47 69 59 47 51 43 32 67 53 42 68 52 37 69 53 37 69 55 42 66 57 40 68 59 44 68 59 44 68 59 44 69 55 44 69 52 42 68 56 42 69 57 43 69 61 48 68 65 50 69 63 49 66 60 48 60 51 42 69 59 49 68 59 44 69 55 42 67 57 45 68 61 45 70 61 46 29 28 24 34 30 27 72 66 54 72 68 57 72 64 51 72 64 53 70 64 50 59 55 44 55 48 38 55 48 38 53 49 38 56 50 38 56 49 39 62 52 42 70 61 46 69 61 48 50 48 36 25 24 22 25 24 20 23 22 18 33 34 28 62 59 50 13 12 10 53 46 36 54 47 39 55 46 37 53 45 34 53 47 35 65 61 49 18 17 13 11 9 10 14 14 14 24 23 19 25 22 17 26 22 19 27 23 20 23 19 16 44 40 28 69 62 46 69 61 48 64 60 49 55 52 43 55 55 45 56 53 44 52 52 42 51 51 41 54 52 40 71 64 54 66 62 50 68 64 52 23 22 18 
71 65 53 71 65 53 71 65 51 69 63 51 68 62 48 57 55 43 53 50 41 18 20 17 8 8 8 38 37 32 54 51 44 61 57 46 69 63 51 68 58 46 67 53 44 66 58 45 70 68 55 73 71 58 71 65 53 68 64 52 70 64 48 70 61 46 68 58 46 55 47 36 52 48 37 5 5 5 51 42 33 64 48 35 67 51 36 65 52 36 67 53 40 64 52 36 67 55 39 70 58 46 70 58 46 68 54 41 67 55 41 67 57 45 68 64 52 64 62 49 53 49 40 35 32 27 20 19 15 58 48 39 68 56 44 66 54 42 68 58 46 69 63 49 69 62 46 70 63 47 71 63 50 69 62 46 71 61 51 70 63 47 69 63 47 59 52 42 19 19 17 9 11 10 9 9 11 9 9 9 9 9 9 9 9 9 40 36 27 70 60 48 67 64 49 70 64 52 70 62 51 70 64 50 67 65 52 67 67 55 62 60 48 4 4 4 5 5 7 7 7 7 9 9 9 10 10 10 7 7 7 51 47 38 12 11 9 10 8 9 25 24 20 59 50 41 70 56 43 68 61 43 69 64 45 67 60 44 68 58 46 67 61 45 61 55 41 36 33 26 13 13 11 11 11 11 8 8 8 10 10 10 9 7 8 14 14 12 70 66 54 71 65 51 69 65 53 69 66 51 
73 65 52 71 65 53 70 63 53 66 63 46 67 64 49 21 20 16 9 7 8 9 9 9 11 11 11 9 7 8 7 7 5 37 34 27 68 62 48 67 57 45 66 52 39 66 52 41 69 62 46 69 66 51 72 66 52 68 60 47 69 63 47 68 65 48 60 56 45 11 11 13 8 8 6 5 5 5 5 5 5 46 36 26 60 47 30 64 48 33 65 49 36 64 50 39 67 55 43 68 59 44 71 59 43 69 57 45 67 59 48 68 59 44 69 63 49 46 43 34 8 7 5 8 8 8 8 8 8 19 18 14 57 48 39 67 55 41 66 58 47 69 63 49 70 62 49 68 61 45 69 61 48 67 60 44 69 57 43 68 61 45 69 60 45 25 21 18 10 10 8 11 11 11 13 13 11 10 10 8 11 9 10 9 9 9 39 34 30 69 62 46 70 64 50 71 65 53 68 65 50 69 62 44 67 61 47 66 64 49 61 57 46 20 19 15 5 3 6 6 4 5 6 6 6 8 8 8 7 7 7 6 6 6 6 6 4 23 19 16 60 53 45 70 62 49 70 60 50 68 62 46 69 63 49 69 61 48 69 61 48 68 62 48 39 36 29 9 9 9 10 10 10 10 10 10 9 9 9 9 7 10 9 9 9 14 14 14 70 66 54 70 64 48 70 64 50 67 65 50 
72 66 54 69 65 53 69 63 51 70 65 45 68 62 48 20 19 15 6 6 6 10 8 9 11 11 9 10 8 9 6 8 7 33 30 25 63 55 42 66 57 42 68 55 39 67 54 38 67 57 45 68 62 48 67 65 50 69 59 47 69 63 47 70 67 52 58 51 41 11 11 11 8 8 8 5 5 5 5 5 5 6 6 6 56 44 30 63 50 34 67 49 37 68 51 41 70 61 46 69 59 47 70 58 44 67 60 44 68 60 47 67 61 45 64 58 46 41 36 30 7 7 7 8 8 6 9 9 7 9 9 9 22 18 15 59 51 38 66 56 44 70 60 48 69 61 48 68 61 45 68 61 45 67 58 43 68 59 44 69 60 45 64 54 42 25 21 18 10 10 8 14 14 14 17 17 17 14 14 14 10 10 10 10 10 10 40 35 29 69 61 48 68 65 50 70 66 54 69 65 53 69 60 45 67 60 42 68 62 46 69 63 47 53 51 39 5 6 8 7 7 9 8 8 8 9 9 9 8 8 6 6 6 8 6 6 8 62 58 46 70 67 52 72 65 55 69 65 53 69 66 49 68 65 48 70 64 52 68 65 50 63 61 48 33 30 23 7 5 6 8 8 8 11 11 11 11 11 11 9 9 11 9 9 11 16 17 12 66 67 53 67 64 49 69 63 47 70 64 50 
70 66 54 70 66 54 70 64 52 68 65 50 69 63 49 21 20 16 7 7 7 9 9 9 9 7 8 7 7 7 8 8 6 7 7 7 33 33 23 70 58 44 67 54 38 66 54 40 68 56 44 70 58 44 67 59 46 66 57 40 68 59 44 61 57 45 12 12 12 9 10 12 6 6 6 5 5 5 6 6 6 6 6 8 58 44 31 66 48 36 67 51 38 69 55 42 68 60 49 68 59 42 68 56 42 68 62 46 69 66 49 69 63 49 37 34 27 7 5 6 7 7 7 9 7 8 12 12 10 12 12 10 12 12 10 23 22 18 68 60 47 68 62 50 66 60 46 70 64 48 68 65 48 69 59 49 68 58 46 70 60 48 26 25 20 10 9 7 10 12 11 17 17 17 18 16 17 13 13 13 12 10 11 10 10 10 39 36 31 68 60 47 69 62 46 70 64 50 69 66 51 69 63 49 68 61 45 67 60 44 58 55 40 6 6 6 8 8 8 12 8 9 8 8 8 8 6 7 8 8 10 6 6 6 6 6 8 61 53 40 69 65 53 73 71 59 71 68 53 71 65 51 69 63 49 70 64 52 68 65 50 37 34 29 7 6 4 6 8 7 9 9 9 11 9 10 11 9 12 11 11 11 10 10 10 17 16 14 61 57 45 69 63 49 70 62 51 71 65 53 
70 66 54 70 68 55 69 65 53 68 65 50 67 63 52 22 21 16 10 9 7 10 10 12 9 9 9 7 7 7 6 6 6 10 10 10 40 38 26 66 59 43 65 53 39 68 56 42 68 59 44 68 58 46 69 57 43 67 55 41 65 56 41 62 49 40 15 14 12 7 7 5 5 4 2 6 6 6 7 7 5 15 15 13 60 50 38 66 50 37 63 50 34 64 55 40 65 53 41 63 51 37 63 54 39 68 61 45 68 65 48 70 64 50 36 36 28 6 4 5 6 6 4 12 8 9 11 11 11 12 11 9 24 23 19 69 66 51 70 66 54 69 63 49 67 61 45 69 66 51 70 66 54 68 65 50 69 61 50 69 61 48 71 65 53 24 23 19 12 12 12 14 12 15 14 14 12 10 10 8 11 9 10 15 14 12 43 39 30 68 60 47 68 61 45 69 61 48 68 62 48 68 60 47 69 59 47 67 58 43 60 54 40 14 14 12 8 6 7 8 8 8 8 8 8 6 6 6 6 6 8 7 7 5 8 8 8 61 55 41 70 64 50 71 69 56 70 66 54 69 61 48 70 62 49 68 62 50 68 62 48 40 37 28 10 9 7 8 8 8 9 9 9 10 8 9 9 9 9 9 9 9 10 10 8 9 9 7 14 14 12 67 66 48 69 65 53 67 68 52 
68 66 53 70 68 55 68 68 56 71 64 54 69 63 51 23 22 17 9 11 8 9 11 10 10 10 10 9 9 9 7 7 7 37 34 27 66 63 48 67 61 45 68 55 39 66 57 40 68 62 48 67 61 49 67 58 43 65 56 41 66 53 37 69 51 39 59 47 35 6 6 4 5 5 5 6 6 6 7 7 7 62 60 45 71 65 51 69 57 45 67 55 41 65 53 39 63 50 34 59 46 30 63 50 33 68 59 42 69 62 46 68 64 53 38 35 30 4 4 4 6 6 4 10 10 10 11 11 11 8 8 8 25 24 20 67 68 52 70 68 56 68 64 52 68 66 53 71 64 54 72 63 54 72 66 54 70 66 54 67 61 49 69 63 49 25 24 22 13 13 13 13 13 11 11 11 9 10 8 9 9 9 7 38 34 25 68 62 46 69 63 47 71 61 49 69 63 49 69 61 48 69 57 45 69 57 45 68 59 44 69 62 46 60 58 43 7 6 4 8 8 8 9 9 9 7 9 8 7 5 6 7 7 5 9 11 10 61 57 46 71 65 53 71 65 51 71 65 53 71 63 50 69 63 51 70 64 50 67 61 49 69 61 48 37 34 27 8 6 7 10 10 10 9 9 9 7 7 7 8 8 8 8 8 8 7 7 7 15 13 14 69 66 51 70 66 54 69 67 52 
71 69 57 71 72 58 72 69 54 71 65 53 66 62 50 66 60 48 26 23 18 11 11 11 11 11 11 8 10 9 7 7 7 36 32 23 67 60 44 66 57 42 66 54 40 68 54 41 67 57 47 69 62 46 70 60 48 68 56 42 66 54 40 67 55 43 60 48 34 7 7 5 4 6 5 7 5 6 67 59 46 70 67 52 69 63 49 69 59 47 69 63 49 68 56 42 62 48 35 59 46 30 63 50 33 69 55 42 69 59 47 70 64 50 68 65 50 67 64 49 48 41 33 11 11 13 12 10 11 8 10 7 25 21 18 70 64 52 68 64 53 71 62 53 71 67 55 70 64 52 68 61 51 69 65 54 69 65 54 69 61 48 68 60 49 71 65 53 29 28 24 11 11 9 10 10 10 10 10 10 9 9 9 40 33 25 67 61 45 71 63 52 68 60 49 71 63 50 69 66 49 70 62 49 68 58 46 67 61 45 69 62 46 69 62 46 60 58 46 9 9 9 12 10 11 8 8 8 8 8 8 61 57 46 70 68 55 68 66 54 70 68 55 70 66 54 68 64 52 70 62 49 70 62 51 68 62 50 68 60 47 69 63 47 37 33 24 6 4 5 10 10 8 10 10 10 9 9 11 6 6 6 5 5 5 5 5 5 17 13 12 69 65 53 70 66 54 70 64 52 
