P3
100 50
255
11 11 11 13 13 13 15 15 15 11 11 11 8 8 8 6 6 6 5 5 5 7 7 7 8 6 9 11 9 10 10 10 10 7 5 6 6 6 6 10 8 9 11 9 10 10 8 9 10 10 10 10 10 10 11 11 11 11 11 11 8 8 8 6 6 6 5 5 5 7 7 7 8 8 6 12 10 11 13 13 13 13 11 12 9 9 9 11 11 13 14 12 15 12 12 12 11 9 10 12 10 11 10 10 10 9 9 11 9 9 7 9 9 9 9 9 7 11 11 11 11 11 9 13 11 12 11 11 11 9 9 9 8 6 7 7 7 7 6 6 6 8 8 6 10 8 9 10 8 9 10 8 9 10 8 9 11 9 10 9 7 8 9 7 8 11 9 10 8 8 8 8 8 8 7 7 7 7 7 7 7 7 7 8 8 8 6 6 6 8 8 8 10 10 10 10 10 10 8 8 8 9 9 9 9 9 9 10 10 10 10 10 10 11 11 11 15 13 14 16 16 16 15 13 14 13 13 13 11 11 11 16 14 15 19 19 19 14 14 12 12 12 12 12 12 12 10 10 10 13 13 13 15 15 15 14 14 14 12 12 12 11 11 11 13 13 13 13 13 13 10 10 10 8 8 8 8 8 8 9 9 9 12 12 12 12 12 12 12 10 11 10 10 12 10 10 10 8 8 8 
11 11 11 13 13 13 16 16 16 13 13 13 9 9 9 7 7 7 8 8 8 9 9 9 11 9 12 11 10 8 10 8 9 8 8 8 10 8 9 13 11 12 12 12 10 11 11 11 10 10 10 12 12 12 11 11 11 7 7 7 5 5 5 5 5 5 5 5 5 8 8 8 10 8 11 14 12 15 14 14 14 14 10 11 11 9 10 11 11 11 12 12 12 11 11 11 12 10 11 11 11 11 10 10 8 10 8 9 10 10 10 10 10 12 11 11 11 14 13 11 13 13 11 12 10 11 9 11 10 9 9 9 7 5 6 6 6 6 6 6 6 6 6 6 8 8 8 10 10 10 8 8 8 10 10 12 11 11 11 11 11 11 10 10 12 9 9 9 8 8 8 9 9 9 8 8 8 7 7 7 8 8 8 8 8 8 6 6 6 6 6 6 7 7 7 10 10 10 9 9 9 7 7 7 8 8 8 10 10 10 11 11 11 11 11 11 14 12 13 13 13 13 15 13 16 14 14 16 14 14 14 15 15 15 14 14 12 13 13 13 12 12 12 11 11 11 9 9 9 8 8 8 8 8 8 14 14 14 17 17 17 15 15 15 12 12 12 14 14 14 13 13 13 9 9 9 8 8 8 9 9 9 11 11 11 11 11 11 11 11 11 8 10 9 10 10 12 11 11 11 
11 11 11 11 11 11 14 14 14 14 14 14 11 11 11 9 9 9 9 9 9 10 10 10 11 9 12 11 11 11 11 9 10 10 10 10 12 10 11 14 14 14 14 14 14 12 12 12 11 11 11 11 11 11 10 10 10 5 5 5 5 5 5 6 6 6 6 6 6 8 8 8 13 11 12 11 11 11 12 12 12 11 9 12 12 10 13 13 11 12 11 13 12 11 11 11 12 10 11 11 11 11 10 10 10 9 9 9 12 10 11 11 11 11 14 12 13 13 13 13 13 13 11 12 12 12 10 10 10 10 8 9 6 6 6 6 6 8 7 6 4 6 6 6 8 8 8 13 13 13 10 10 10 9 9 7 10 10 12 12 12 14 10 10 10 10 10 12 10 10 10 11 11 11 10 10 10 9 9 9 8 8 8 7 7 7 6 6 6 7 7 7 7 7 7 10 10 10 12 12 12 12 12 12 11 11 11 12 12 12 13 13 13 13 13 13 11 11 11 11 11 11 13 11 12 13 13 13 15 15 15 14 14 14 13 13 13 14 13 11 10 10 10 9 9 9 8 8 8 7 7 7 6 6 6 11 11 11 16 16 16 15 15 15 13 13 13 12 12 12 12 12 12 10 10 10 8 8 8 8 8 8 10 10 10 10 10 10 10 10 10 11 9 10 14 10 11 13 11 12 
9 9 9 10 10 10 11 11 11 12 12 12 12 12 12 11 11 11 10 10 10 11 11 11 11 11 11 10 10 8 9 9 9 12 12 12 14 14 14 17 16 14 15 15 15 12 12 10 13 13 15 12 12 12 8 8 8 7 7 9 8 8 8 5 5 3 7 7 5 10 10 10 13 13 13 78 14 14 10 10 10 10 11 6 13 13 13 12 12 12 11 11 11 11 11 11 11 11 11 11 11 11 10 10 12 9 9 9 11 11 11 12 12 12 12 12 14 14 14 14 13 13 15 11 11 11 11 11 11 10 9 7 8 8 8 8 8 8 8 6 7 6 6 4 8 6 7 12 10 11 12 10 11 11 9 10 12 10 11 12 10 11 12 10 11 12 10 11 11 11 11 12 12 12 11 11 11 9 9 9 8 8 8 5 5 5 5 5 5 6 6 6 6 6 6 8 8 8 11 11 11 14 14 14 12 12 12 13 13 13 16 16 16 12 12 12 8 8 8 11 9 10 11 9 10 10 10 8 14 14 16 13 13 15 13 13 13 14 14 14 11 11 11 9 9 9 7 7 7 7 7 7 7 7 7 9 9 9 12 12 12 14 14 14 14 14 14 13 13 13 10 10 10 9 9 9 7 7 7 7 7 7 8 8 8 9 9 9 10 10 10 10 10 10 10 10 12 9 9 9 
9 9 9 8 8 8 7 7 7 8 8 8 11 11 11 12 12 12 10 10 10 10 10 10 52 10 12 74 10 8 33 12 11 13 11 14 14 14 16 17 15 16 15 15 15 12 12 12 12 12 10 12 12 12 9 9 9 8 8 6 6 6 6 7 7 9 9 9 11 11 11 11 16 14 15 86 16 18 11 11 11 10 10 12 14 13 11 11 9 10 12 12 12 12 12 10 11 11 11 12 12 12 9 9 9 8 8 8 10 10 10 11 11 11 14 12 13 37 13 11 75 11 11 75 11 12 57 11 13 11 10 8 9 8 6 8 6 7 7 7 9 6 8 5 8 6 7 12 10 11 15 13 14 12 10 11 11 9 10 10 8 9 11 9 10 11 9 10 10 10 10 9 9 9 9 9 9 8 8 8 8 8 8 6 6 6 3 3 3 6 6 6 7 7 7 7 7 7 9 9 9 12 12 12 14 14 14 14 14 14 14 14 14 12 12 12 8 8 8 7 7 7 8 8 10 8 8 8 12 12 12 13 13 11 13 12 10 13 13 13 12 12 12 10 10 10 8 8 8 9 9 9 9 9 9 10 10 10 12 12 12 13 13 13 15 15 15 14 14 14 9 9 9 8 8 8 8 8 8 7 7 7 7 7 7 7 7 7 9 7 8 10 8 9 8 8 6 7 7 7 
7 7 7 6 6 6 6 6 6 8 8 8 10 10 10 11 11 11 10 10 10 9 9 9 26 10 11 30 10 9 15 11 10 11 13 10 14 14 14 16 14 15 15 13 16 13 11 12 11 11 11 11 11 11 8 8 8 7 7 7 6 6 6 7 7 7 9 9 9 13 13 13 18 20 19 38 18 17 14 14 16 10 9 7 9 9 9 11 11 11 12 12 12 13 13 11 11 13 12 13 11 12 11 9 10 9 9 7 9 11 10 11 12 7 12 12 12 39 11 10 81 9 10 63 9 7 23 9 9 9 9 9 8 8 8 7 7 7 7 5 6 9 7 8 9 9 11 10 10 10 12 12 14 11 11 11 10 10 10 10 10 10 9 9 9 10 10 8 10 10 10 8 8 8 8 8 8 10 10 10 7 7 7 4 4 4 4 4 4 6 6 6 6 6 6 8 8 8 9 9 9 11 11 11 14 14 14 15 15 15 15 15 15 12 12 12 10 8 9 6 6 8 6 6 6 6 6 6 13 13 13 12 12 12 11 11 11 10 12 11 11 11 11 11 11 11 11 11 11 9 9 9 8 8 8 11 11 11 14 14 14 12 12 12 14 14 14 12 12 12 7 7 7 7 7 7 8 8 8 6 6 6 7 7 7 6 6 6 7 7 7 8 8 8 7 7 7 7 7 7 
6 6 6 6 6 6 8 8 8 11 11 11 10 10 10 9 9 9 9 9 9 10 10 10 11 11 11 10 10 8 11 9 10 11 11 11 13 13 13 15 13 14 14 14 14 13 13 13 10 10 10 8 8 8 8 8 8 9 9 9 7 7 7 8 8 8 9 9 9 11 11 11 17 15 16 18 18 18 13 13 13 7 7 7 8 8 8 11 9 10 13 11 12 12 12 12 12 12 12 12 12 12 12 12 10 12 12 14 11 11 11 11 11 11 10 10 10 19 9 10 29 11 11 18 9 10 8 8 8 8 8 6 6 8 3 8 8 8 7 7 7 9 9 9 11 11 11 11 11 13 11 11 11 11 11 11 10 10 10 9 9 9 10 10 10 10 10 10 9 9 9 7 7 7 10 10 10 9 9 9 6 6 6 5 5 5 6 6 6 6 6 6 7 7 7 9 9 9 11 11 11 11 11 11 14 14 14 15 15 15 14 14 14 12 12 12 9 9 9 6 6 6 5 5 5 9 9 9 12 12 10 11 11 11 12 12 12 10 10 10 10 10 10 10 10 10 11 11 11 9 9 9 8 8 8 10 10 10 12 12 12 12 12 12 11 11 11 11 11 11 5 5 5 5 5 5 5 5 5 6 6 6 6 6 6 6 6 6 7 7 7 7 5 6 10 6 5 7 7 7 
7 7 7 7 7 7 9 9 9 11 11 11 10 10 10 7 7 7 7 7 7 8 8 8 10 10 10 10 10 10 10 10 8 12 10 11 11 13 10 12 12 12 13 11 12 14 12 13 10 10 10 7 7 7 6 6 6 9 9 9 9 9 9 11 11 11 11 11 11 9 9 9 11 9 12 12 17 13 11 11 11 8 8 8 9 9 9 12 12 10 12 12 12 13 11 12 11 11 11 13 11 12 13 13 13 12 12 12 10 10 12 11 11 11 10 12 9 11 9 10 9 9 11 8 10 9 9 7 8 8 8 8 8 8 8 8 8 8 6 6 6 10 9 7 10 8 9 11 9 10 11 9 10 12 10 11 14 12 13 11 9 10 10 8 9 13 11 12 10 10 10 8 8 8 7 7 7 7 7 7 7 7 7 6 6 6 7 7 7 6 6 6 7 7 7 7 7 7 8 8 8 10 10 10 12 12 12 14 14 14 15 15 15 13 13 13 9 9 11 7 7 7 9 7 8 9 11 10 11 11 11 10 10 10 13 13 13 10 10 10 10 10 10 9 9 9 11 11 11 10 10 10 10 10 10 9 9 9 8 8 8 8 8 8 8 8 8 6 6 6 5 5 5 3 3 3 4 4 4 7 7 7 7 7 7 6 6 6 6 6 6 6 6 4 6 6 6 7 7 7 
11 9 10 9 9 11 10 10 10 12 10 11 10 8 9 8 8 6 6 6 6 10 8 9 9 9 9 10 10 10 10 10 10 11 11 13 12 12 12 14 14 12 14 12 13 12 10 11 11 9 10 7 7 7 8 6 7 10 10 10 11 11 13 13 11 12 10 10 12 11 9 10 10 10 10 12 10 11 11 9 10 10 10 10 11 11 11 13 11 12 12 11 9 10 10 12 10 10 10 13 11 12 12 10 11 11 11 11 11 11 11 14 12 13 15 13 14 11 11 11 9 9 9 8 8 8 8 8 8 9 9 9 10 8 11 8 8 8 6 6 8 7 7 7 7 7 7 8 8 8 11 9 12 12 12 12 13 13 13 14 12 13 10 10 10 11 11 13 10 8 9 8 6 7 7 5 6 8 6 7 7 5 6 7 5 6 8 6 7 7 5 6 6 6 6 8 8 8 10 10 10 11 9 12 10 12 11 11 11 11 12 12 14 11 11 11 11 11 11 9 7 8 12 10 11 12 10 11 10 10 10 13 13 13 14 14 14 10 10 8 9 7 8 7 7 7 10 10 8 11 9 10 10 10 8 9 7 10 7 5 6 8 6 7 8 8 8 6 6 6 7 7 7 4 4 4 3 3 3 6 6 6 8 8 8 8 8 8 7 7 7 6 6 6 8 6 7 7 7 9 
11 11 11 12 10 11 11 9 10 10 8 11 8 8 10 6 6 8 5 5 5 8 8 8 9 9 9 11 11 11 12 11 9 11 11 11 12 12 12 12 12 10 11 11 9 9 9 9 9 9 9 9 7 8 9 7 10 10 10 10 10 10 10 10 10 10 10 10 10 12 12 12 12 12 12 11 11 11 10 10 10 9 10 5 10 10 10 11 11 11 10 10 10 10 10 8 10 10 10 10 10 10 12 12 12 12 12 12 11 11 11 12 12 12 13 13 13 11 11 11 9 9 9 6 6 6 9 9 9 11 11 11 12 10 13 9 9 9 9 9 11 8 8 8 10 8 9 8 8 6 10 10 10 12 12 14 12 12 12 14 12 13 13 11 12 12 10 11 10 10 10 8 8 8 7 7 7 7 7 7 6 6 6 6 6 6 6 6 6 6 6 6 7 7 7 8 8 8 11 9 10 11 11 13 11 11 11 12 10 11 10 10 10 11 9 10 11 13 12 10 9 7 12 12 12 12 12 12 12 12 12 14 14 14 14 14 12 9 9 7 7 7 7 7 7 7 8 8 6 10 8 9 10 8 11 6 8 7 8 6 9 7 7 7 8 8 8 6 6 6 7 7 7 6 6 6 4 4 4 6 6 6 9 9 9 10 10 10 9 7 8 8 6 7 7 5 6 9 9 7 
11 11 11 11 11 11 11 11 11 8 8 8 7 7 7 7 7 7 5 5 5 7 7 9 9 7 8 12 12 12 12 12 12 12 14 13 11 11 13 9 9 9 9 9 9 7 7 9 7 7 7 8 8 8 11 11 13 10 10 10 9 9 9 10 10 8 10 10 10 13 13 13 14 13 11 9 8 13 9 9 7 10 8 9 10 8 9 9 9 9 10 10 12 11 10 8 10 10 10 10 10 10 14 14 14 13 13 13 12 12 12 12 12 12 12 12 12 11 11 11 8 8 8 8 8 8 10 10 8 11 11 11 12 10 11 11 11 11 11 11 9 10 10 10 10 10 8 8 8 8 10 8 9 14 12 13 12 12 12 13 11 12 15 13 14 13 11 12 10 10 10 11 11 11 9 9 9 8 8 8 7 7 7 6 6 6 7 7 7 6 6 6 7 7 5 9 7 8 11 11 11 13 11 12 12 10 11 10 10 8 9 9 9 10 10 10 12 12 10 11 11 11 11 11 11 12 12 10 15 15 17 16 16 16 14 14 12 9 9 9 45 7 6 56 6 7 16 6 7 10 8 9 9 9 9 9 7 8 7 7 5 7 7 7 6 6 6 6 6 6 7 7 7 8 8 8 8 8 8 7 7 7 10 10 10 10 10 10 11 9 10 8 6 7 6 6 4 11 9 10 
47 11 11 46 12 11 15 11 10 9 9 9 7 7 7 6 6 8 6 6 8 6 6 6 8 8 8 9 9 7 13 13 13 13 13 13 11 11 11 10 10 10 9 9 9 7 7 5 6 6 6 7 7 7 10 8 11 8 8 8 9 9 11 10 12 11 11 11 13 14 13 11 12 12 12 8 8 8 8 8 8 8 8 8 7 7 7 8 8 8 10 10 10 11 11 11 12 10 11 11 11 11 13 13 13 14 12 13 13 11 12 12 12 12 11 11 11 9 7 8 8 6 7 8 8 8 9 9 9 10 10 10 12 12 12 12 12 12 10 10 10 11 11 11 9 9 9 8 8 8 48 9 10 14 14 14 11 11 11 11 11 11 14 12 13 13 11 12 11 9 10 12 10 11 11 9 10 11 9 10 9 7 8 7 5 6 7 5 6 7 5 6 8 6 7 10 8 9 12 10 11 12 10 11 9 10 12 10 8 11 9 9 9 11 9 10 12 12 12 12 12 12 11 11 11 12 12 12 17 15 16 17 17 19 13 13 11 10 10 12 36 6 6 75 7 8 26 6 7 8 8 8 10 8 9 8 8 8 8 8 6 9 7 8 7 7 7 5 5 5 7 7 7 9 9 9 9 9 9 8 8 8 10 10 10 10 10 10 11 9 10 8 6 7 7 7 5 10 8 9 
77 12 10 77 11 12 48 12 12 47 12 10 13 9 8 6 5 10 6 6 4 6 6 6 8 8 10 12 8 9 12 10 11 13 13 13 12 12 12 12 10 11 10 10 12 20 6 5 28 6 8 15 7 5 36 8 7 7 7 7 8 8 10 10 10 10 12 10 11 11 11 9 9 9 9 7 7 7 8 8 8 8 8 8 7 7 7 8 8 8 9 9 9 10 10 10 14 12 13 12 12 12 12 12 12 14 12 13 13 11 12 11 11 11 9 9 9 6 4 5 4 6 5 5 5 7 7 7 9 9 9 9 12 10 11 12 10 11 10 9 14 11 11 9 9 9 9 47 8 9 85 11 12 13 13 13 10 10 10 10 10 10 12 12 12 11 11 11 11 9 10 12 10 11 12 10 11 11 9 10 8 6 7 6 4 5 7 5 6 8 6 7 9 9 9 9 9 11 11 11 11 20 10 9 39 9 9 8 8 8 11 10 8 9 9 9 10 10 12 13 13 13 11 11 11 13 13 13 15 15 15 14 14 12 12 12 14 10 10 8 8 8 6 37 7 5 47 7 8 46 7 8 48 8 9 47 9 8 28 8 9 8 8 8 8 8 8 6 6 6 7 7 7 8 8 8 11 11 11 10 10 10 10 10 10 11 11 11 10 8 9 7 7 9 7 5 6 11 9 10 
76 12 10 78 10 11 77 13 13 85 14 10 21 11 10 9 9 9 7 7 7 7 7 7 7 9 8 9 9 9 13 11 12 13 13 13 11 13 12 10 8 9 22 8 8 57 7 6 67 7 7 54 8 8 64 8 9 8 8 6 8 6 7 8 8 6 10 10 12 9 9 7 7 7 7 7 5 6 9 7 8 9 9 9 6 6 6 8 6 7 10 8 9 11 11 11 12 12 12 12 12 12 11 11 11 12 12 12 11 11 11 9 9 9 8 8 8 5 5 5 5 5 5 6 6 6 8 8 8 9 9 9 10 10 10 11 9 10 12 12 14 11 11 9 11 11 9 86 12 13 83 12 10 11 11 11 9 9 9 10 8 9 11 11 11 11 11 11 9 9 9 11 11 11 12 12 12 11 11 11 8 8 8 6 6 6 6 6 6 5 5 5 7 7 7 9 9 9 24 8 8 47 9 8 38 10 9 9 9 11 12 10 11 8 8 10 9 9 7 12 12 12 11 11 11 13 15 12 12 12 12 11 11 11 11 13 10 11 11 11 10 10 8 9 9 7 36 8 7 71 7 7 86 8 6 84 8 8 66 10 9 28 8 9 9 9 9 8 8 8 9 9 9 10 10 10 11 11 11 10 10 10 9 9 9 9 9 9 10 10 12 8 6 9 6 6 6 8 8 8 
80 10 8 80 10 12 77 11 12 84 14 14 24 14 13 12 12 12 9 9 9 8 8 8 8 8 6 10 8 9 12 10 11 13 13 13 11 11 11 8 8 8 35 6 8 79 7 8 70 9 8 56 7 10 45 9 9 9 9 11 8 7 5 8 6 7 10 10 8 9 9 11 6 6 8 6 6 6 8 8 8 9 9 9 6 6 8 8 8 8 10 10 12 11 11 11 12 12 12 11 11 11 11 11 11 11 11 11 11 11 11 11 11 11 9 9 9 7 7 7 6 6 8 8 6 7 8 8 8 9 9 9 10 10 12 10 8 9 9 11 10 10 10 10 12 12 12 58 12 12 57 11 11 9 9 9 7 8 10 8 10 9 10 10 8 11 9 10 10 10 10 10 10 10 12 12 12 12 12 12 9 9 9 6 6 6 5 5 5 5 5 5 8 6 7 10 8 9 29 7 9 47 7 8 10 8 9 9 9 9 11 11 9 8 8 8 9 8 6 11 11 11 14 14 14 12 12 12 9 9 9 11 11 11 12 12 12 12 12 14 12 12 12 10 10 10 32 8 6 46 6 6 57 9 9 58 9 12 59 9 10 33 9 7 9 9 9 10 10 10 11 11 11 12 12 12 11 11 11 8 8 8 9 9 9 10 10 10 9 9 9 10 8 9 8 6 7 10 8 9 
84 9 6 76 10 11 76 10 11 84 12 13 46 14 17 41 12 14 12 10 11 8 8 8 7 7 7 7 9 6 12 10 11 13 11 14 9 9 9 6 8 7 26 8 8 54 10 9 33 7 8 9 7 10 7 9 6 8 8 8 8 8 8 7 9 8 9 9 7 8 8 8 8 6 7 8 8 8 7 7 7 9 7 10 8 6 7 8 8 8 9 9 9 12 10 11 12 12 12 10 8 9 11 9 10 11 11 11 10 10 10 11 9 10 10 8 9 8 8 8 7 7 7 8 8 8 8 8 8 8 8 8 8 8 8 8 6 7 8 8 6 10 10 10 11 11 11 13 13 13 12 10 11 8 8 8 9 9 9 8 8 8 10 10 10 10 10 12 13 11 12 11 9 10 13 11 12 14 12 13 12 10 11 8 6 7 6 4 5 7 5 6 7 6 4 7 7 7 8 6 7 7 7 5 8 7 5 9 9 9 10 10 10 9 7 8 9 7 8 9 7 8 13 13 13 14 14 12 8 8 8 8 6 7 11 11 9 11 11 13 10 10 12 10 10 10 43 9 8 26 6 5 7 7 7 11 11 13 12 12 12 12 10 11 10 10 10 9 9 9 12 12 12 13 13 13 11 11 11 10 10 10 10 10 10 11 11 11 9 7 8 7 5 6 8 7 5 9 9 9 
81 7 8 78 10 11 80 10 10 84 12 13 83 13 13 83 11 12 52 12 10 13 9 8 6 6 6 26 6 7 37 9 8 38 10 9 36 8 7 34 5 7 36 7 9 24 8 8 15 6 7 24 6 6 7 7 7 8 8 6 8 10 9 7 7 7 9 9 7 9 9 9 9 9 9 8 8 8 8 6 7 9 7 8 10 10 12 11 9 10 10 8 9 12 10 11 9 9 9 8 8 8 10 10 10 11 11 11 10 10 10 10 10 10 10 10 12 8 8 8 10 8 9 9 9 9 7 7 7 9 7 8 7 9 8 7 7 9 9 7 8 9 9 9 11 11 11 10 10 10 8 8 8 9 9 9 11 10 8 10 10 8 11 11 11 11 11 13 10 12 11 12 12 12 13 13 13 13 13 15 11 11 11 7 7 7 7 5 6 7 5 6 7 6 11 7 5 6 6 6 6 7 7 7 6 6 4 8 8 8 8 8 10 10 10 10 8 8 8 7 7 7 14 14 14 17 17 17 8 8 8 7 7 7 8 10 9 10 10 10 10 10 10 8 8 8 7 7 7 5 5 5 7 7 9 11 11 11 13 13 13 11 11 11 9 9 9 10 10 10 13 13 13 15 15 17 12 12 14 10 10 8 11 9 10 9 9 9 8 6 7 5 5 3 6 6 6 6 6 6 
81 5 5 77 7 5 80 8 9 82 11 9 83 9 10 80 10 10 81 11 11 39 8 6 22 6 6 61 5 4 82 8 7 83 9 6 82 8 9 82 6 6 82 8 7 52 8 9 36 8 7 64 8 9 22 8 7 9 8 6 9 7 8 9 9 9 10 8 9 11 9 10 8 9 11 7 5 6 6 6 6 8 8 8 10 10 10 10 10 10 11 9 10 9 7 8 8 6 7 7 7 7 9 9 9 13 13 13 12 12 12 12 10 11 9 9 9 8 8 8 10 8 9 9 9 9 9 9 9 9 9 7 10 8 9 9 9 9 9 7 8 10 8 9 9 9 9 8 8 8 8 8 8 8 8 8 10 10 10 9 9 9 11 11 11 12 12 12 13 13 13 12 12 12 13 13 13 14 14 14 11 9 10 8 8 8 8 6 7 8 7 5 6 6 6 7 7 7 8 7 5 6 6 4 6 6 6 5 5 5 7 7 7 10 10 10 10 10 10 10 10 10 16 14 15 19 17 18 11 11 11 8 8 8 9 7 8 11 11 11 10 10 10 8 8 8 5 5 3 5 5 5 7 7 7 10 10 10 12 12 10 10 10 10 10 10 10 10 10 10 14 14 12 13 13 13 11 11 11 10 10 12 8 8 8 8 6 7 7 6 4 3 3 3 3 3 3 6 6 6 
61 5 4 59 5 5 75 7 8 82 8 9 83 7 7 79 7 8 74 9 7 72 6 7 76 4 7 81 6 3 82 6 6 83 7 7 82 8 9 81 7 8 79 7 8 57 7 6 47 7 7 79 9 11 65 11 9 9 9 9 8 8 8 10 9 7 9 9 9 10 10 10 8 8 6 6 6 6 5 5 7 10 8 11 12 10 11 12 12 12 11 11 13 7 7 7 4 4 4 6 6 6 11 9 10 14 14 14 14 14 14 11 11 11 9 9 9 9 7 8 7 7 7 11 11 11 12 12 12 15 11 12 10 10 12 10 10 10 9 9 9 8 6 7 7 7 9 7 7 7 8 8 6 10 8 9 8 8 10 10 10 10 11 11 11 14 14 14 13 13 13 11 11 11 11 11 9 13 11 12 12 12 12 10 8 9 6 6 6 7 7 7 10 10 10 10 10 12 7 7 7 6 6 4 6 6 4 7 7 7 7 5 6 11 11 13 15 15 15 13 13 13 14 14 14 15 17 16 11 11 11 9 7 8 8 8 8 11 11 11 9 9 7 7 7 7 5 5 5 5 5 5 6 6 4 8 8 6 10 10 8 9 9 9 10 10 10 11 11 11 11 13 10 10 10 10 10 8 11 8 6 7 8 8 8 4 4 4 4 4 4 4 4 4 3 3 1 8 8 6 
5 5 5 3 5 4 56 6 7 78 8 10 82 8 7 80 6 7 73 8 6 74 6 7 80 6 7 82 6 6 83 7 7 83 7 7 83 7 7 80 8 9 78 6 7 77 9 8 64 8 7 67 8 10 53 13 13 10 10 10 8 8 10 25 9 9 28 10 10 27 9 9 26 6 7 25 7 7 10 8 9 10 10 12 12 12 12 15 13 16 11 11 11 6 6 8 6 6 6 6 6 6 8 8 8 12 12 12 13 13 13 12 12 12 8 8 8 6 6 6 8 8 6 10 10 10 12 12 10 13 13 15 10 10 10 10 8 9 11 9 10 9 9 9 8 8 8 7 7 9 8 8 8 8 6 7 8 8 10 11 11 11 12 12 12 12 12 12 13 13 15 12 11 9 11 13 12 14 14 14 14 14 14 9 9 9 8 6 7 9 9 9 11 11 13 10 10 10 8 8 8 8 8 8 7 7 7 8 6 7 8 8 8 10 10 10 12 12 12 12 10 11 12 12 12 13 13 13 12 10 11 9 9 9 9 9 9 11 9 10 10 10 10 10 8 9 6 6 6 4 4 4 5 5 5 7 7 7 8 8 8 10 10 10 10 10 10 11 11 9 10 10 10 12 6 8 21 5 6 7 5 6 8 6 7 5 3 4 4 4 4 5 3 4 6 4 7 9 9 9 
7 7 9 5 5 3 8 6 7 74 10 11 81 9 10 80 8 9 75 7 6 78 6 7 80 6 5 84 5 8 82 8 9 82 6 6 82 8 7 78 6 7 81 7 8 53 7 7 8 8 8 9 9 7 11 11 11 10 10 10 17 9 7 80 8 9 84 8 8 85 9 11 82 7 4 85 9 9 20 10 11 11 11 11 14 12 13 13 13 13 10 10 10 9 9 11 9 9 7 8 8 8 8 8 6 11 11 9 12 12 12 10 10 10 8 8 6 7 7 7 12 8 7 20 9 13 17 11 11 12 12 12 13 11 12 12 10 11 11 9 10 9 9 9 8 8 6 7 7 9 8 8 8 9 7 8 7 7 9 10 10 10 12 12 12 9 9 9 11 11 13 14 12 13 18 14 15 19 15 14 12 12 12 7 7 7 5 5 5 10 8 11 11 11 13 10 10 10 10 10 10 8 8 8 8 8 8 9 7 8 9 9 9 11 11 11 11 11 11 9 9 9 8 10 9 11 11 11 11 11 11 9 9 9 9 9 9 10 10 10 10 10 12 10 8 9 5 5 5 3 3 3 6 6 6 7 7 9 7 7 7 8 8 8 9 9 9 8 8 8 9 9 9 36 7 9 70 6 6 10 6 3 5 5 5 3 3 1 4 4 4 7 6 4 8 6 7 9 9 9 
7 7 9 8 6 7 4 6 5 73 9 9 80 10 10 80 8 9 76 6 8 77 7 7 82 8 9 82 8 9 84 8 8 82 8 7 81 7 8 76 8 9 77 7 5 53 7 7 8 8 8 8 9 11 12 11 9 15 11 10 30 8 10 85 7 5 84 8 12 84 8 10 83 9 8 85 11 10 83 11 12 19 11 9 12 12 10 12 12 12 12 10 11 10 10 12 10 10 10 8 8 8 8 6 7 8 8 8 9 9 9 8 8 8 8 8 8 10 8 9 36 10 11 82 11 9 65 11 9 11 11 9 11 11 11 12 12 10 8 9 11 9 9 7 8 8 8 8 8 6 8 8 8 9 7 10 8 6 7 11 11 11 9 9 11 9 9 7 10 10 10 15 15 15 60 14 16 44 14 16 14 10 9 7 7 5 6 6 6 9 7 8 9 9 9 9 9 9 10 10 10 10 10 10 10 10 10 11 11 9 12 10 11 11 11 13 12 12 12 10 10 10 11 9 10 10 10 10 11 11 11 11 9 10 10 10 10 9 7 8 11 9 10 8 8 8 6 6 8 5 5 5 6 6 6 6 6 6 9 9 9 10 10 10 7 7 7 6 5 10 5 5 5 35 7 4 85 5 6 66 6 5 7 5 6 5 5 5 5 5 5 7 7 7 8 8 8 10 10 8 
9 7 8 8 8 8 7 5 8 72 8 6 80 10 12 77 12 10 79 9 9 79 9 9 80 10 10 83 9 8 84 9 6 80 10 10 76 8 7 76 6 8 78 6 7 50 9 5 8 8 8 9 9 9 11 11 11 30 10 11 84 8 8 83 8 5 83 9 10 81 9 10 85 9 11 83 11 12 83 13 13 29 11 9 20 10 11 11 11 11 13 12 10 13 12 10 13 11 12 10 10 10 7 7 7 6 6 6 5 5 5 9 7 8 10 10 10 12 12 12 39 10 12 84 12 13 66 12 12 11 9 12 8 8 8 9 9 9 8 10 9 8 8 8 8 8 6 8 8 8 10 10 10 9 7 8 8 6 7 8 8 10 8 8 8 9 9 7 12 12 12 13 13 13 53 15 14 74 12 13 33 9 9 8 8 8 7 7 7 7 7 7 7 7 5 8 8 8 11 9 10 9 9 9 11 11 11 11 11 11 11 11 11 11 11 11 11 11 11 11 9 10 10 10 10 10 10 10 11 9 10 12 10 11 12 10 11 10 8 9 10 8 9 8 8 8 5 5 5 6 4 5 7 7 7 7 7 7 8 8 8 9 9 9 8 6 9 6 4 5 5 5 5 29 5 5 73 8 6 61 5 6 6 6 6 6 6 6 7 6 4 6 6 6 8 10 9 13 13 15 
9 9 9 7 7 7 7 7 9 72 6 7 79 11 12 78 12 13 79 13 15 80 12 11 84 10 9 85 10 7 85 9 9 80 8 9 75 5 5 76 5 3 77 7 5 49 8 6 10 9 7 9 9 9 8 10 9 28 9 5 84 6 6 85 9 9 85 11 10 82 10 11 86 12 11 83 11 12 87 13 12 85 9 11 85 9 9 21 11 10 12 11 9 13 13 11 13 13 13 12 12 12 9 9 9 6 6 6 5 5 5 8 8 8 11 11 11 12 12 12 39 10 12 86 10 12 68 14 14 10 10 8 6 6 6 7 7 7 8 8 8 8 8 6 8 8 8 10 10 10 10 8 9 9 7 8 7 5 6 6 6 6 7 7 7 9 9 9 13 13 13 13 12 10 13 13 11 13 13 11 11 11 9 9 8 6 7 7 7 7 7 7 6 6 6 7 5 8 9 9 9 9 9 7 11 11 11 11 11 11 12 12 12 10 10 10 10 10 10 10 10 10 9 9 9 10 8 9 9 9 9 11 11 11 11 9 10 8 8 8 11 9 10 9 9 9 6 6 6 6 4 7 6 6 6 7 7 7 7 7 7 8 8 8 7 7 7 5 5 5 6 6 4 6 6 6 4 6 5 7 7 9 5 5 5 4 6 5 6 4 7 7 7 7 8 8 8 12 10 11 
7 7 7 7 5 8 7 7 5 8 7 5 64 8 9 78 13 11 82 12 10 84 12 13 84 10 11 84 8 8 83 9 8 78 8 8 75 3 6 73 5 6 77 7 7 84 10 9 85 9 9 84 8 8 80 9 7 83 9 10 83 7 7 84 8 8 83 11 12 84 12 13 86 11 8 84 8 10 84 10 9 84 8 10 85 7 7 18 8 9 11 11 13 13 13 13 10 10 12 9 9 9 10 10 12 9 9 9 7 7 5 9 9 9 11 9 10 10 10 8 10 10 8 11 11 11 12 12 14 10 8 9 7 7 7 5 5 3 6 6 4 6 5 3 9 9 7 14 10 11 8 6 7 7 7 7 6 4 5 7 5 6 6 4 5 9 9 9 12 12 12 11 11 11 11 11 11 10 10 10 11 11 11 12 12 12 12 8 9 7 5 6 6 6 6 7 5 6 8 6 7 7 7 7 8 8 8 9 9 9 10 8 9 9 9 9 10 8 9 10 8 9 9 9 9 9 7 8 11 9 10 9 9 9 8 6 7 7 7 7 8 8 8 11 7 8 7 7 7 6 4 5 8 6 7 7 7 7 8 8 8 8 6 7 7 7 7 6 6 6 6 6 8 7 7 9 7 7 7 6 6 6 7 7 7 7 7 7 9 7 8 9 9 9 9 9 7 11 9 10 
6 6 6 6 6 4 8 8 10 9 9 9 72 8 9 82 8 7 84 9 13 85 11 12 83 11 12 85 11 12 78 10 9 77 7 9 80 5 2 81 5 7 81 7 8 82 8 7 81 7 8 82 6 8 83 9 8 84 10 11 83 9 8 83 7 7 82 8 9 80 8 11 82 8 7 83 9 8 79 7 8 80 8 9 81 9 12 82 8 7 82 8 9 30 10 11 10 9 7 9 7 8 54 13 11 39 13 12 11 11 9 10 10 10 12 10 11 8 8 8 7 7 7 9 9 11 11 11 11 9 9 7 9 8 6 6 8 7 4 4 6 4 4 4 7 7 7 9 9 11 9 9 9 7 7 7 4 4 2 8 6 7 11 9 10 12 12 12 11 11 11 9 9 9 9 9 9 9 9 9 10 10 10 12 12 12 11 11 11 10 8 9 7 7 7 5 7 6 6 6 6 6 6 6 8 6 7 7 7 7 9 9 9 10 10 10 11 9 10 12 10 11 11 11 11 12 10 11 12 10 11 10 10 10 7 7 7 7 7 7 9 7 8 7 5 6 7 7 7 7 7 7 7 5 6 8 6 9 7 7 7 8 6 7 8 6 7 7 7 7 7 7 7 7 5 6 7 5 6 7 7 5 8 8 8 8 8 8 11 11 9 12 12 10 11 11 11 11 11 11 
4 4 2 9 9 9 9 9 11 8 10 9 10 10 10 10 10 8 11 11 11 12 12 14 58 14 13 84 12 13 83 9 10 84 5 8 79 5 4 80 6 5 82 8 7 78 8 8 76 8 9 77 6 4 83 7 7 83 9 10 82 8 9 83 7 9 82 8 9 72 6 7 79 7 10 81 7 6 77 9 8 81 9 10 83 9 10 80 6 7 83 7 7 83 9 8 79 9 9 81 9 10 84 10 11 82 10 11 46 10 10 11 11 9 8 8 8 8 6 7 8 8 8 9 9 9 11 10 8 10 10 10 9 9 9 8 6 7 5 5 5 5 3 4 6 4 5 11 9 12 11 9 12 6 6 6 5 5 5 10 8 9 11 11 11 12 12 12 9 9 9 7 5 6 7 7 7 9 9 9 9 9 9 11 11 11 11 11 11 8 8 8 8 8 10 8 8 6 7 5 6 6 6 6 7 5 6 6 4 5 7 7 7 10 8 9 11 11 11 11 11 11 12 12 12 14 12 13 13 11 12 8 8 10 6 6 8 9 4 8 7 5 6 7 5 6 6 6 6 6 6 6 7 7 7 10 8 9 6 6 6 10 8 9 10 10 10 9 9 7 9 7 8 9 9 9 7 7 7 5 5 5 7 5 6 8 8 8 12 12 10 18 16 17 15 15 17 11 11 13 
7 7 5 10 8 9 8 8 8 9 9 7 11 11 9 13 8 12 10 8 9 12 12 12 18 12 12 21 13 11 19 11 9 14 6 4 44 4 4 76 4 5 81 5 5 81 7 8 78 8 8 77 5 6 77 7 9 84 10 11 83 7 7 83 7 7 83 8 5 78 8 8 17 9 7 19 9 8 17 8 11 74 10 10 82 8 7 80 6 7 83 7 9 83 7 7 83 7 9 82 6 6 81 5 5 82 8 7 78 10 11 73 9 9 41 7 6 8 8 6 11 9 10 11 11 11 11 9 10 10 10 10 10 10 8 8 6 7 7 5 6 7 6 4 7 5 6 9 9 9 8 8 10 7 7 7 7 7 7 11 9 10 9 9 9 11 9 10 9 7 8 6 6 6 8 7 5 9 9 7 9 9 9 10 10 10 9 9 9 8 8 8 11 11 11 10 10 12 9 9 9 7 7 7 5 3 4 4 4 4 5 5 5 9 9 11 13 11 12 11 11 11 9 9 9 13 11 12 13 11 12 7 9 8 7 7 7 6 6 6 7 7 7 7 5 6 5 7 6 7 7 7 7 5 6 7 7 7 8 8 8 7 7 7 9 7 8 9 9 7 11 11 11 10 10 10 8 8 8 5 5 5 6 6 6 7 7 7 10 10 10 16 16 14 16 16 16 11 11 11 
6 6 4 10 8 9 7 7 7 10 11 6 11 11 11 10 10 8 10 10 10 11 9 10 13 11 12 13 13 11 11 11 11 7 9 8 39 5 4 77 5 6 80 4 4 82 6 8 86 6 7 79 5 6 72 8 6 80 8 9 84 8 10 82 6 6 74 9 7 17 7 6 7 7 7 8 8 8 10 10 10 74 10 10 83 9 10 78 6 7 83 7 7 86 6 9 85 6 9 84 6 6 84 6 6 84 8 8 85 11 10 83 9 10 47 8 9 10 10 10 10 10 12 10 10 10 10 10 10 10 10 10 11 10 8 8 8 8 8 8 8 7 7 7 7 6 4 7 7 7 6 6 6 11 9 10 13 11 12 11 11 11 9 11 8 9 9 9 9 7 10 7 7 7 10 8 9 9 9 9 10 10 10 9 9 9 8 8 8 8 8 6 9 9 9 11 9 10 9 9 9 10 8 9 8 8 8 7 7 5 10 10 12 12 12 12 10 8 9 8 10 9 7 7 7 11 9 10 10 10 10 9 9 9 8 8 8 5 5 5 6 6 4 7 6 4 6 6 6 7 7 7 8 8 8 7 7 9 7 7 7 5 7 6 7 7 7 7 9 8 9 9 7 11 9 10 10 10 12 7 7 5 6 6 6 8 8 8 10 10 12 13 13 13 13 13 13 11 11 11 
76 11 9 71 9 10 18 9 10 9 9 11 8 7 5 9 9 9 11 11 11 9 9 11 11 11 11 16 12 13 13 13 13 10 10 10 11 7 6 44 4 4 76 5 3 79 5 6 81 5 7 81 5 5 77 7 5 78 8 8 84 10 9 74 10 10 20 10 9 8 7 5 5 3 4 6 6 6 9 9 9 21 10 14 76 12 12 82 10 11 81 10 8 83 5 5 81 5 5 84 6 6 82 6 6 83 7 9 82 10 11 79 11 10 73 11 12 51 11 12 11 9 10 9 9 9 9 9 11 11 10 8 8 8 8 10 10 10 11 9 12 8 8 8 4 8 7 5 5 5 9 9 7 15 13 14 14 14 14 12 10 13 11 11 11 10 10 8 11 11 11 10 8 9 10 10 10 10 10 10 10 10 10 11 11 11 10 10 10 9 9 9 10 10 10 11 11 11 35 11 11 75 11 11 58 10 10 12 12 12 13 12 10 10 10 8 9 8 6 8 8 6 9 7 8 10 8 9 8 10 9 11 11 13 9 9 9 6 6 8 7 7 5 7 7 7 61 7 7 76 6 8 32 6 7 7 7 7 8 8 8 8 8 6 8 8 8 9 8 6 6 6 6 7 7 5 9 9 7 9 7 8 8 8 8 9 9 9 12 12 12 15 13 14 15 14 12 77 13 14 
30 11 13 82 10 13 20 9 13 7 9 8 11 9 14 10 10 10 10 10 10 9 11 10 10 12 11 12 14 13 14 14 12 11 11 11 5 5 3 13 3 4 39 4 2 75 3 4 80 6 5 81 7 8 79 8 6 81 7 8 75 7 8 23 7 8 9 9 9 9 9 7 8 8 8 9 9 7 10 12 11 12 14 13 75 14 13 83 13 15 81 11 11 81 7 6 82 6 6 82 7 4 84 6 6 85 9 11 81 11 13 75 14 11 54 12 13 23 13 12 14 12 13 12 10 11 11 11 9 12 10 11 12 10 11 12 10 11 10 10 10 11 9 10 9 9 9 7 7 7 66 10 11 13 13 13 13 13 13 12 12 14 13 13 13 14 12 13 11 11 9 11 11 9 11 11 11 13 13 13 13 13 13 15 13 14 11 11 11 10 10 10 13 11 14 12 14 9 38 12 13 81 11 9 65 11 11 12 12 12 12 12 10 9 7 8 10 8 9 9 9 9 11 9 10 10 10 10 10 10 10 11 11 11 7 7 7 6 6 6 7 7 7 8 6 7 65 5 5 50 6 5 10 4 4 6 6 6 7 7 7 10 8 11 9 7 10 6 6 8 5 5 5 5 5 5 6 4 7 8 8 8 10 10 10 11 9 12 13 13 13 16 16 14 13 13 11 32 14 14 
12 12 14 30 12 12 10 11 6 9 11 10 12 12 12 12 12 12 11 11 11 11 9 10 11 11 11 13 13 13 13 13 13 10 9 7 6 4 5 3 3 5 13 4 5 43 5 4 83 5 5 79 8 6 79 7 8 80 6 5 71 7 7 7 7 7 8 9 11 9 8 6 12 10 11 12 10 11 11 11 11 12 12 12 74 13 12 83 11 12 84 10 11 85 6 9 84 6 6 82 6 8 84 6 6 84 8 10 81 11 11 81 13 14 71 13 12 48 12 14 14 14 14 13 13 15 11 9 10 10 10 10 24 10 9 68 9 11 64 10 10 65 10 13 65 9 8 68 9 11 26 10 10 8 8 10 9 9 7 10 12 11 16 12 13 14 14 14 11 11 11 11 11 11 12 12 12 13 11 12 14 12 13 12 12 12 12 10 11 10 10 8 13 11 12 12 12 10 22 12 11 31 13 13 25 11 11 12 10 11 9 9 9 9 9 9 10 8 11 10 10 10 13 13 15 10 10 10 10 10 10 8 6 9 5 5 5 6 4 5 6 6 6 6 4 5 19 5 4 12 3 6 3 3 3 5 5 5 10 8 9 9 9 9 8 8 8 7 7 7 7 5 6 5 7 6 7 5 6 7 7 7 10 10 10 12 12 12 13 13 13 15 13 14 13 11 12 13 13 15 
12 12 12 11 11 9 11 11 11 11 11 9 10 10 10 11 11 13 14 14 14 12 12 10 11 10 8 12 12 12 12 13 8 8 8 10 4 4 4 5 3 4 6 6 6 15 5 4 25 7 7 26 8 8 27 9 9 25 6 8 22 8 8 7 7 7 9 9 9 7 5 6 8 8 8 10 9 7 10 10 10 11 9 10 76 12 12 83 9 8 84 10 9 82 8 9 81 5 5 82 6 8 82 6 6 81 7 6 83 12 10 83 11 12 82 10 11 73 13 12 47 13 14 13 13 11 11 9 10 24 10 10 68 8 8 83 7 7 82 8 9 83 12 10 83 11 12 85 11 10 9 11 10 8 8 8 7 7 5 11 9 10 15 15 15 15 15 13 10 10 10 10 9 7 9 9 9 10 10 10 9 9 7 9 7 8 8 8 8 9 7 8 9 9 9 10 10 10 15 15 15 15 15 15 12 12 12 10 10 10 10 10 10 11 11 11 11 11 9 10 10 10 11 11 9 10 10 10 8 8 8 5 5 5 5 5 5 7 5 6 7 5 6 7 7 7 7 5 6 5 5 5 5 3 4 5 7 6 10 8 9 10 8 9 9 8 6 10 6 7 5 5 5 4 4 4 4 4 4 10 8 9 11 11 11 12 12 12 13 13 13 14 14 14 13 13 15 12 12 12 
8 10 9 13 13 13 14 14 14 13 11 12 9 9 11 12 12 12 13 13 11 14 14 12 11 11 11 10 10 10 10 10 10 7 7 7 4 4 4 6 6 6 6 8 5 6 6 6 5 5 5 8 8 10 7 9 6 7 7 7 7 7 7 12 6 6 49 8 4 7 7 9 8 8 6 8 6 9 8 8 8 52 11 9 79 11 10 82 10 11 82 8 7 83 7 9 81 5 7 81 7 6 81 7 6 82 6 8 82 7 11 82 10 11 82 10 11 81 11 11 57 11 13 10 12 11 25 9 10 60 10 11 83 9 8 82 6 6 82 8 9 84 10 11 83 13 13 83 11 12 56 10 10 9 7 8 8 8 6 11 11 9 14 14 14 14 12 13 12 11 9 7 7 9 6 6 6 6 6 8 7 5 6 8 6 7 6 6 6 8 6 7 8 8 8 13 11 12 16 14 15 18 18 18 13 13 13 12 12 12 12 12 12 12 12 12 12 10 11 9 9 11 7 7 7 8 6 7 6 6 6 4 6 5 4 6 5 7 5 6 44 6 5 17 5 5 7 7 7 8 6 7 6 6 8 5 5 7 7 7 7 8 8 8 9 9 9 8 8 8 6 6 4 5 4 2 7 5 6 13 11 12 14 14 12 12 12 12 14 14 14 13 13 15 11 11 11 13 13 13 
9 9 9 13 13 13 11 11 11 10 10 10 12 12 10 12 12 12 12 12 12 13 12 10 12 10 11 11 10 8 9 9 9 7 7 7 6 6 6 8 8 8 8 8 6 8 8 8 8 6 7 6 6 6 8 8 8 9 8 6 7 7 7 16 6 5 78 8 6 55 9 9 54 8 8 55 7 7 53 9 10 79 9 9 84 10 9 85 11 12 85 9 11 83 9 10 82 8 7 55 7 7 64 5 7 82 6 6 82 6 6 82 10 11 82 12 10 85 11 10 73 12 11 57 8 11 58 8 9 83 9 10 84 10 11 82 8 9 82 8 9 85 11 10 83 13 13 42 13 15 40 12 11 8 8 8 9 9 9 11 11 11 14 12 13 11 11 11 8 8 6 5 5 5 5 5 5 6 4 5 6 6 6 5 5 5 7 7 9 9 9 11 10 10 10 12 10 11 16 14 15 17 17 17 13 13 13 11 11 13 13 13 13 12 12 10 13 11 12 8 10 9 8 6 7 6 4 5 7 7 7 6 6 4 6 4 5 6 5 3 24 6 6 15 3 5 5 5 5 6 6 6 7 7 7 9 9 9 9 9 9 10 8 9 8 8 10 8 8 8 6 6 6 6 6 6 7 7 7 14 12 13 13 15 14 12 12 12 12 12 12 12 12 14 10 10 10 14 14 14 
10 10 10 10 10 10 9 9 9 10 10 8 11 9 10 10 10 8 12 11 9 12 10 11 11 11 11 10 10 10 8 8 8 7 5 6 8 6 7 9 8 6 9 7 8 9 9 9 8 8 6 8 6 7 7 5 6 8 6 7 6 6 4 11 7 8 40 8 9 83 9 8 79 7 8 83 7 7 82 6 6 82 8 9 80 10 10 84 12 13 45 9 9 36 8 7 37 9 8 17 7 8 25 7 7 34 6 5 58 8 7 81 11 11 85 13 14 85 11 12 81 9 10 80 10 10 81 9 10 84 8 8 83 9 10 81 9 10 78 8 8 39 10 12 39 11 8 11 11 11 10 10 8 8 8 8 9 9 9 10 10 10 9 9 7 10 8 9 8 8 8 6 6 6 7 7 7 7 5 6 6 4 7 7 5 6 7 6 4 9 9 9 11 11 11 12 12 12 14 14 14 14 14 14 12 12 12 10 10 10 11 11 11 15 13 14 12 12 12 10 10 10 6 6 6 6 5 3 4 5 7 6 6 6 6 4 5 5 5 5 5 5 7 4 4 4 7 6 4 6 6 6 9 9 9 9 9 9 9 9 9 9 9 7 8 8 8 9 9 9 9 9 9 8 8 6 9 9 9 15 13 14 15 15 17 12 12 12 12 12 12 12 12 14 12 12 12 11 11 11 
9 9 7 10 10 12 10 10 10 11 11 9 11 9 10 9 9 11 11 10 8 11 11 13 11 11 11 9 9 9 8 8 8 7 7 7 7 7 7 7 5 6 8 8 6 8 8 10 6 8 7 6 6 6 6 6 6 5 5 5 6 6 4 7 7 5 14 10 11 46 10 12 80 8 9 81 5 7 82 6 8 81 7 6 82 12 10 83 11 12 26 10 10 8 8 8 7 7 7 7 6 4 4 6 5 6 4 5 24 6 6 62 11 10 84 12 13 84 12 13 79 11 10 79 14 12 82 10 11 82 10 11 83 9 10 78 8 10 43 9 10 9 9 9 8 10 9 9 9 9 9 9 11 9 7 8 8 8 8 43 9 7 45 7 6 47 8 9 20 10 11 8 8 6 7 6 4 5 5 5 7 5 6 6 6 6 6 6 6 9 9 9 12 12 12 13 13 13 13 13 13 13 13 13 11 11 11 11 11 11 11 11 11 14 12 13 12 12 10 10 10 10 8 8 8 6 4 5 6 6 6 6 4 5 5 5 3 6 4 5 5 5 5 4 4 6 6 6 4 7 7 5 8 8 6 8 8 10 9 7 8 9 9 9 9 9 9 24 10 9 32 11 10 10 10 10 13 11 14 16 16 16 16 16 18 14 13 11 12 12 12 13 13 13 13 13 13 10 10 8 
10 10 10 10 9 7 9 9 9 9 9 9 10 8 9 9 9 9 9 7 8 38 9 11 45 9 9 45 10 8 22 6 7 7 7 7 7 7 7 9 7 10 7 7 5 9 7 8 9 7 8 8 6 9 8 6 9 6 6 6 6 6 8 8 6 9 9 9 9 12 12 14 80 8 9 80 6 7 83 7 7 84 10 11 83 13 13 50 12 11 18 9 12 9 7 8 5 5 5 4 4 4 4 4 2 5 5 5 7 5 8 44 8 8 82 12 12 82 12 12 80 12 11 80 12 11 83 11 12 83 11 12 82 10 11 74 10 10 11 11 11 8 8 8 7 7 7 7 7 9 9 7 8 8 8 8 7 7 7 42 6 8 78 8 8 83 9 8 59 10 13 47 9 8 46 8 7 18 6 8 7 7 7 7 7 7 6 6 6 7 9 8 9 9 9 12 12 10 11 11 9 12 12 12 11 11 13 12 12 14 12 12 12 11 11 11 12 12 10 11 11 11 9 7 8 8 6 7 7 7 7 6 6 6 6 4 7 5 5 5 5 5 5 5 5 7 6 6 6 6 6 4 6 6 8 6 6 6 8 8 6 28 10 8 46 10 12 60 12 10 71 13 12 45 14 12 50 14 14 42 16 17 15 15 17 14 14 16 13 13 13 11 11 13 11 11 11 8 8 6 
11 11 11 11 9 10 7 7 9 8 8 8 8 8 8 12 8 9 9 9 9 65 9 10 83 9 10 57 7 6 23 7 7 8 8 8 8 8 8 7 7 7 7 7 9 8 8 8 8 6 7 7 7 5 6 7 9 7 5 6 6 6 8 6 6 6 7 7 7 11 11 11 83 9 8 81 7 6 81 7 8 51 9 11 48 12 14 13 9 10 10 8 9 8 6 7 3 3 3 3 3 3 5 5 3 7 5 6 6 6 8 46 7 8 84 8 10 80 12 11 81 11 13 82 10 11 84 12 13 83 13 13 82 11 9 73 12 11 11 11 13 9 7 8 8 6 7 7 7 7 9 7 8 8 8 10 8 8 8 5 5 5 72 8 6 84 10 9 85 11 12 84 10 11 83 8 5 58 7 6 20 6 5 7 7 9 7 7 7 8 8 8 8 8 8 10 10 10 11 11 11 11 11 11 11 11 11 10 10 10 12 12 12 8 8 8 12 12 12 11 11 11 47 8 9 47 7 7 6 6 6 7 6 4 6 4 5 5 5 5 5 5 5 5 5 5 5 5 7 6 7 2 7 7 7 6 6 6 7 7 7 48 10 9 84 14 14 84 14 14 84 14 14 84 12 13 84 14 12 66 15 14 15 15 13 14 14 14 12 12 12 10 10 12 8 8 8 7 7 5 
11 11 11 8 6 9 7 7 7 8 8 6 8 8 8 9 9 7 9 7 8 42 11 9 55 9 9 27 7 8 7 7 7 8 8 6 8 8 8 7 7 7 7 9 8 9 9 9 9 9 7 7 7 5 7 7 7 8 7 5 7 6 4 6 6 4 7 7 7 11 11 11 56 10 10 54 8 8 54 8 8 17 11 11 12 10 11 9 9 9 11 7 8 9 7 8 3 5 2 2 4 1 6 8 7 8 7 5 6 6 6 45 6 7 79 9 7 82 10 11 82 10 13 85 11 10 84 12 13 84 14 14 82 10 11 80 12 11 33 11 13 9 7 8 5 5 5 6 6 4 8 7 5 7 7 9 9 7 8 29 8 7 78 8 8 81 9 10 84 10 11 84 10 9 84 10 9 83 9 8 37 7 7 7 7 9 8 8 8 9 8 6 9 9 9 10 10 10 11 11 11 13 11 12 11 9 10 10 10 10 10 10 10 10 9 7 10 10 12 11 11 11 84 8 10 81 7 8 5 5 5 6 4 5 6 4 5 5 5 3 8 4 5 6 6 4 6 6 6 7 7 7 9 7 8 6 6 6 6 7 9 34 10 10 70 14 15 84 14 14 83 13 13 83 13 13 83 12 16 67 13 13 14 14 14 13 13 13 11 11 11 9 9 7 7 7 5 6 6 6 
10 9 7 6 4 5 7 7 7 7 7 7 9 9 9 10 10 10 10 8 9 10 10 8 8 8 6 8 8 8 8 8 8 9 9 9 9 9 9 9 9 7 9 9 9 11 11 13 10 10 10 9 9 9 7 7 7 7 7 7 8 7 5 7 7 9 6 6 6 10 10 12 10 10 10 9 9 9 10 10 10 11 11 13 9 11 8 8 8 8 8 6 7 7 7 7 5 5 7 5 5 5 7 5 8 7 5 8 7 7 7 43 7 7 79 8 6 83 9 10 82 10 13 82 10 11 82 10 11 82 10 11 82 10 11 84 13 11 81 13 12 33 9 9 6 6 6 7 7 7 7 7 5 7 9 8 32 7 10 77 7 7 84 8 8 83 9 8 86 7 10 83 9 8 84 10 9 82 11 9 55 9 9 22 8 8 9 7 8 9 9 7 9 9 11 10 10 10 11 11 11 11 11 11 11 11 9 13 11 12 11 11 11 10 12 11 11 11 11 11 11 11 54 8 10 55 7 7 6 6 6 5 5 3 5 5 7 5 5 5 7 5 6 6 6 4 7 6 4 10 10 10 11 11 13 11 9 12 9 9 9 10 12 11 35 14 13 67 13 13 84 12 13 84 12 13 85 13 14 74 13 12 40 12 11 34 13 12 10 12 11 10 10 10 7 7 7 6 6 6 
7 7 7 35 5 5 35 6 8 36 7 9 36 8 7 15 9 9 11 11 11 10 10 10 10 9 7 8 10 9 8 10 9 9 9 9 10 8 9 10 8 9 11 9 10 11 11 11 11 11 11 10 10 12 9 9 7 9 9 9 6 8 7 6 6 8 8 7 3 9 7 8 8 8 8 10 10 10 11 11 11 10 10 10 9 9 9 6 6 6 7 7 7 6 6 6 6 4 5 8 6 7 7 7 7 7 7 7 7 7 7 43 7 7 81 7 4 81 7 8 83 9 10 81 9 10 82 8 9 81 9 10 83 11 12 83 13 11 85 11 12 79 9 11 36 8 5 8 6 7 8 8 8 36 7 9 77 12 10 81 11 11 85 11 10 82 10 11 81 5 5 83 7 7 80 8 9 82 10 13 84 10 9 59 9 10 25 9 9 9 9 9 10 10 10 11 11 11 11 11 9 11 11 11 12 12 10 10 10 8 12 12 12 11 11 9 9 9 11 10 10 12 7 7 9 7 6 4 5 5 5 7 5 6 7 7 7 7 5 8 8 6 7 7 7 5 8 6 7 9 7 8 11 11 11 14 12 15 13 11 12 12 12 12 11 11 11 30 10 9 56 10 12 56 10 13 56 12 11 65 11 9 76 12 13 58 13 10 39 11 10 35 9 10 7 7 7 5 5 5 
26 7 9 83 5 5 79 7 8 83 7 7 82 6 6 42 8 7 16 10 10 10 10 10 8 8 8 8 8 8 9 9 9 8 8 6 8 8 10 9 9 9 11 11 11 10 10 10 9 9 9 11 9 10 9 9 11 8 8 10 9 9 9 7 7 7 9 8 6 10 10 8 8 8 8 9 9 9 9 9 9 8 6 7 6 6 6 7 7 7 8 8 8 6 8 7 7 5 6 6 6 6 8 6 7 6 6 8 7 5 6 36 6 8 63 7 6 65 6 8 62 8 8 62 8 8 67 9 8 81 9 12 82 12 12 84 12 13 83 9 8 81 7 8 81 9 10 29 9 10 26 8 6 83 9 8 81 11 11 83 11 14 82 10 11 83 9 10 81 7 6 69 7 8 65 9 10 65 11 11 75 9 10 85 9 11 56 8 8 19 7 9 10 8 9 11 11 11 11 11 11 10 10 8 12 12 12 13 13 13 12 12 12 11 11 9 9 9 9 9 9 9 9 7 8 4 4 6 5 5 5 5 5 5 5 7 6 7 7 7 8 6 7 7 5 6 7 5 6 6 6 6 8 10 7 11 11 11 13 13 13 13 13 13 11 13 12 11 11 11 11 11 11 8 8 8 7 7 7 21 7 7 56 16 16 25 15 14 83 9 10 74 10 10 25 7 7 25 7 7 
83 9 6 82 7 4 84 6 6 82 6 6 83 7 7 70 8 9 23 12 10 10 10 10 7 9 8 10 10 8 10 10 10 8 8 8 9 9 9 9 9 9 10 10 8 10 10 10 9 9 9 10 10 10 9 9 11 10 10 10 9 9 9 6 6 6 7 7 7 9 9 11 8 8 8 9 9 9 9 9 7 7 7 7 4 4 4 7 7 9 8 8 8 7 7 7 6 6 6 7 7 5 7 7 7 8 7 5 6 6 6 6 6 6 6 6 6 6 6 6 6 6 6 7 7 7 23 9 9 64 8 9 68 12 13 84 12 13 84 8 10 81 5 5 81 9 12 84 10 9 84 8 8 80 9 7 82 8 9 82 10 11 83 13 13 80 8 9 67 7 7 22 6 7 11 9 10 10 10 10 48 10 9 75 9 10 82 8 7 54 8 8 27 8 10 29 9 10 28 12 12 25 11 11 13 13 13 12 13 15 12 12 12 11 11 11 9 9 9 8 8 8 8 8 6 6 6 6 5 5 5 5 5 5 7 7 7 9 9 9 9 7 8 8 6 7 7 7 5 6 6 4 6 6 6 9 11 8 12 12 12 14 14 14 14 14 14 13 13 13 11 11 11 9 9 7 5 7 4 9 9 11 19 17 20 26 16 15 79 7 8 83 7 7 82 8 9 85 7 7 
79 8 6 80 9 7 85 7 7 82 6 8 69 7 8 25 9 10 10 10 10 10 8 9 9 9 11 11 11 11 9 9 7 11 9 10 12 11 9 11 11 11 10 10 8 9 9 9 10 10 10 11 11 11 10 10 12 9 9 9 6 6 6 7 7 5 8 6 7 10 8 9 9 9 9 9 7 8 9 9 9 7 7 7 4 4 4 4 6 5 9 7 8 7 7 7 7 5 8 7 7 7 8 8 8 7 7 7 7 7 7 7 7 7 6 4 5 5 5 5 5 5 5 6 6 6 9 9 9 12 12 12 27 13 12 67 13 11 81 9 10 83 7 7 82 10 11 83 9 8 82 8 9 82 10 11 82 8 9 81 9 10 82 12 12 83 12 10 26 6 7 8 8 6 10 10 10 10 12 11 10 10 10 48 9 10 85 9 11 81 7 6 82 6 6 83 9 10 83 11 12 70 12 11 24 13 11 13 12 10 12 12 12 12 12 12 10 12 11 10 10 10 8 6 7 5 5 5 6 6 6 7 5 6 9 9 9 11 11 11 11 11 11 9 9 9 7 7 7 15 6 9 15 5 6 9 7 10 12 12 12 15 15 13 17 17 17 17 17 17 13 13 13 12 12 10 11 9 10 13 13 11 16 16 14 23 14 15 57 9 9 80 6 7 84 10 9 83 9 8 
83 9 8 82 11 9 83 7 7 82 6 6 21 11 10 9 9 9 11 9 10 9 9 7 10 10 10 11 10 15 12 12 12 12 12 12 15 11 12 20 12 10 16 12 11 9 9 9 9 9 7 12 12 12 11 11 11 8 9 11 6 6 4 7 7 7 8 8 10 10 10 10 8 10 9 7 7 7 8 8 8 7 7 7 5 5 5 8 6 7 8 8 8 9 7 8 7 7 7 9 7 8 9 7 8 9 7 8 9 7 10 7 5 6 7 5 6 8 6 7 5 5 5 6 6 8 10 10 10 11 11 11 13 12 10 23 13 14 73 11 12 84 10 11 84 10 11 81 9 10 84 10 9 78 10 9 79 7 10 82 11 9 74 10 11 72 11 10 27 7 8 8 8 8 9 9 11 11 11 9 10 8 11 48 10 9 83 7 9 80 6 5 81 7 6 79 7 8 81 11 13 82 11 9 69 9 9 16 10 10 9 10 12 11 11 11 11 13 12 10 10 10 7 7 7 7 5 6 6 6 8 10 8 11 9 9 11 12 10 11 12 12 14 12 10 11 7 5 6 54 6 4 35 7 6 9 7 8 13 13 13 16 16 16 17 19 18 17 17 17 13 13 15 15 15 15 15 15 15 18 16 17 15 15 15 11 11 11 18 9 10 83 7 9 85 11 10 83 7 9 
84 10 11 83 11 12 83 9 10 83 9 10 20 10 9 10 8 9 7 7 5 9 9 9 13 9 8 13 12 10 12 14 13 13 13 13 49 10 11 85 11 8 61 11 12 20 11 12 19 10 11 14 10 11 10 10 10 10 9 7 7 5 6 7 7 7 9 9 9 10 10 8 8 8 8 9 7 8 7 7 7 5 6 8 6 5 3 7 7 7 8 8 8 10 8 9 9 9 9 9 9 9 10 8 9 7 7 9 6 6 6 7 5 6 7 7 7 8 6 7 7 5 6 8 6 7 7 9 8 10 10 12 11 11 11 13 12 10 21 11 10 72 11 10 79 9 9 82 8 5 83 11 12 79 9 9 79 8 6 83 9 8 27 9 9 9 9 11 6 6 6 7 7 7 8 6 7 9 9 9 10 10 10 47 9 8 81 7 8 79 8 6 79 7 8 81 9 10 84 8 8 80 9 7 81 10 8 64 10 10 12 10 13 9 8 13 13 11 12 10 10 10 7 9 8 8 6 7 7 7 7 9 9 9 9 11 10 11 11 11 11 11 9 10 10 10 9 7 8 48 6 7 31 7 7 10 8 9 13 13 13 17 17 17 19 17 18 16 16 16 16 15 13 15 15 15 18 16 17 17 17 17 14 12 13 11 9 12 18 9 10 73 12 11 85 11 12 81 5 5 
85 11 8 85 11 10 83 12 10 84 8 10 19 9 8 8 8 6 6 6 4 6 6 8 8 6 7 10 10 10 12 12 12 13 11 12 48 13 11 83 11 12 83 12 10 82 12 10 85 11 12 62 11 10 10 8 9 8 8 8 6 6 8 8 6 7 10 10 10 7 7 5 7 7 7 10 8 9 7 7 7 7 5 6 7 5 6 7 7 7 9 9 9 9 9 9 10 8 9 9 9 9 9 9 9 8 6 7 8 6 7 8 6 7 7 7 9 7 7 7 7 5 8 7 7 9 9 9 7 10 8 9 10 10 8 11 11 11 13 11 12 20 10 11 78 10 9 84 10 9 83 11 12 79 11 10 81 10 8 81 10 8 81 9 10 27 9 7 7 7 7 7 7 7 8 8 8 10 10 10 10 10 10 45 9 9 85 7 7 82 8 9 78 8 8 81 7 6 83 7 7 84 8 8 84 10 11 71 11 11 20 8 8 10 10 10 12 10 11 11 11 11 11 9 10 8 10 9 7 7 5 9 9 7 10 10 10 9 9 9 8 8 8 7 9 8 9 8 6 8 8 8 7 7 7 9 11 10 12 12 12 17 17 17 16 17 19 16 16 18 16 16 16 15 15 15 15 15 15 15 17 16 15 13 14 11 11 11 11 11 11 21 11 12 75 11 11 81 10 8 
85 11 12 82 10 11 84 10 11 81 10 8 18 6 6 7 7 5 8 6 7 5 5 5 6 6 8 9 7 8 11 9 10 12 12 12 47 11 11 82 10 11 85 13 14 85 13 14 82 12 12 65 9 10 9 9 9 9 7 8 8 6 9 7 7 9 10 8 9 7 7 7 6 6 6 7 7 7 7 5 6 9 7 10 7 5 6 9 9 9 10 11 13 10 10 10 9 9 11 9 9 7 8 8 8 7 7 7 6 6 6 6 6 6 7 7 7 7 7 7 9 7 8 9 9 9 11 10 8 8 8 8 10 8 11 11 11 11 11 11 13 19 9 10 84 10 11 84 10 11 83 11 14 83 11 12 81 13 14 83 8 12 84 8 10 28 8 7 7 7 5 10 8 9 9 9 9 10 10 10 10 10 10 45 10 8 83 9 10 83 9 10 81 7 8 79 7 8 83 8 5 83 9 8 83 11 12 85 11 10 77 11 12 10 10 12 11 11 9 10 9 14 13 11 12 11 11 13 10 10 10 9 11 10 9 7 8 7 7 7 6 6 8 7 7 7 7 7 9 7 7 7 8 6 7 9 9 7 12 10 11 13 13 13 14 14 14 14 14 14 18 16 17 14 16 15 15 15 15 14 14 14 13 11 14 14 10 11 13 11 12 12 12 10 10 10 10 83 11 12 
85 11 12 85 11 12 84 10 11 85 9 11 19 9 8 8 8 8 7 7 7 6 6 6 7 6 4 8 8 8 10 10 10 11 11 9 43 11 12 80 12 11 83 11 12 85 13 14 83 13 11 65 9 10 8 8 8 8 8 6 6 6 6 7 7 7 7 7 7 6 6 8 3 5 4 4 4 4 9 7 8 7 5 6 6 6 8 9 9 9 11 10 8 9 9 9 10 10 10 9 9 9 8 8 8 6 6 6 7 7 7 6 6 6 7 7 5 6 6 6 7 7 7 8 6 7 7 7 5 7 7 7 9 7 8 10 9 7 7 7 7 9 7 8 9 9 9 11 11 13 13 12 10 13 11 12 11 11 11 12 12 10 74 9 7 27 7 8 6 6 4 8 8 10 9 9 9 9 9 9 54 10 11 81 9 10 83 9 8 83 7 9 82 8 9 80 5 9 80 8 9 81 11 11 84 12 13 86 12 11 85 9 11 74 8 9 8 8 8 11 11 9 11 11 13 14 12 13 12 10 11 6 6 6 5 3 4 3 3 3 5 5 5 7 7 7 7 5 6 8 7 5 9 7 8 8 8 8 7 7 7 10 8 9 12 10 11 14 12 13 14 14 12 14 14 12 13 13 11 11 11 11 11 10 8 12 10 11 11 11 11 13 13 13 13 13 11 11 11 11 
