P3
100 50
255
76 10 11 77 11 13 77 9 10 73 8 6 74 9 7 75 7 6 74 6 7 73 5 6 75 5 5 75 10 8 74 9 7 73 9 10 73 9 9 75 11 9 73 12 11 74 10 8 75 11 12 73 12 11 74 12 13 77 29 25 77 61 46 75 56 42 74 55 38 72 55 39 73 7 9 72 8 8 73 7 8 75 53 40 73 62 44 73 65 46 75 62 45 73 18 15 70 5 3 70 5 3 72 8 6 74 10 10 74 12 13 75 13 14 74 12 13 72 11 10 74 8 9 74 10 10 75 11 11 75 11 12 72 10 11 74 8 10 73 9 7 70 10 10 73 11 12 74 13 12 74 10 10 76 10 11 74 56 44 73 66 50 74 19 16 75 11 12 72 11 10 73 8 4 73 43 32 71 62 45 74 60 47 74 60 47 74 35 28 72 8 9 72 8 9 74 8 10 47 5 6 1 1 1 1 1 1 1 1 1 1 1 1 0 0 0 1 1 1 1 1 1 0 0 0 1 1 1 1 1 1 1 1 1 1 1 1 1 1 1 1 1 1 0 0 0 1 1 1 0 0 0 1 1 1 1 1 1 1 1 1 1 1 1 0 0 0 1 1 1 0 0 0 1 1 1 0 0 0 2 2 2 1 1 1 0 0 0 2 2 2 1 1 1 1 1 1 1 1 1 
75 9 10 75 9 10 78 10 11 75 7 8 70 4 5 73 5 6 73 5 4 73 5 6 73 7 8 74 13 10 74 13 12 74 10 11 74 36 25 75 63 47 74 41 32 73 12 9 73 11 12 73 12 11 70 23 17 74 58 42 75 59 46 75 57 43 74 55 40 72 54 40 73 9 9 72 11 10 74 10 11 71 47 35 70 57 41 73 62 44 74 61 44 72 19 15 68 7 6 73 7 8 73 8 6 72 10 11 74 13 12 74 14 13 73 12 11 73 9 9 73 7 9 75 9 11 74 13 12 74 25 21 74 56 42 72 50 37 70 6 4 73 9 9 74 12 13 74 13 10 72 8 8 77 64 55 75 63 49 74 65 50 77 65 51 75 26 21 77 11 13 76 8 9 75 3 4 71 39 28 73 59 46 73 34 29 72 12 12 73 11 12 73 9 10 74 10 10 46 8 7 0 0 0 0 0 0 0 0 0 1 1 1 0 0 0 0 0 0 1 1 1 1 1 1 0 0 0 0 0 0 1 1 1 1 1 1 1 1 1 1 1 1 1 1 1 1 1 1 1 1 1 1 1 1 0 0 0 2 2 2 0 0 0 1 1 1 1 1 1 1 1 1 1 1 1 1 1 1 0 0 0 1 1 1 0 0 0 1 1 1 0 0 0 0 0 0 1 1 1 
73 8 6 75 9 10 76 8 7 75 7 8 67 6 5 70 6 6 75 7 8 75 5 5 76 8 7 74 8 9 73 39 29 74 55 41 74 56 42 74 58 43 73 40 31 72 12 11 73 12 11 73 12 11 70 22 18 72 56 40 74 55 40 74 58 42 71 49 36 72 12 11 71 9 10 74 10 11 73 9 9 72 14 12 69 13 12 73 13 12 74 12 13 72 11 10 72 6 7 70 9 8 72 8 9 73 9 9 75 11 11 74 10 10 73 9 9 73 9 9 74 10 10 74 12 13 75 13 14 73 22 19 69 51 37 71 53 39 76 46 36 72 6 7 65 5 5 70 10 10 74 10 10 77 65 53 74 65 50 74 65 50 77 65 51 76 25 21 76 10 11 74 6 7 73 3 5 75 9 10 73 15 14 71 13 11 73 12 11 75 11 12 74 10 10 75 9 10 46 6 6 0 0 0 0 0 0 0 0 0 1 1 1 1 1 1 0 0 0 0 0 0 0 0 0 0 0 0 0 0 0 0 0 0 1 1 1 0 0 0 0 0 0 1 1 1 1 1 1 0 0 0 1 1 1 1 1 1 0 0 0 1 1 1 1 1 1 1 1 1 1 1 1 0 0 0 1 1 1 1 1 1 1 1 1 1 1 1 0 0 0 0 0 0 1 1 1 0 0 0 
73 9 7 74 9 7 75 9 10 74 8 10 73 7 8 74 42 31 73 15 13 76 8 9 76 8 9 73 9 9 73 43 33 75 61 48 75 59 44 75 57 43 76 54 40 74 36 27 72 10 11 75 11 11 74 12 13 73 28 22 73 54 39 72 55 39 73 47 34 71 5 6 72 8 8 73 9 9 71 9 10 73 9 9 74 8 9 73 8 6 73 7 8 71 7 8 72 8 8 71 10 9 74 8 9 76 8 7 74 8 9 73 30 24 71 30 24 73 7 9 73 12 11 74 13 12 76 25 21 69 45 35 66 49 33 74 58 42 75 56 41 71 7 7 64 4 4 70 8 9 78 10 9 74 65 50 75 66 51 73 64 49 76 25 21 74 14 14 74 8 9 74 6 5 73 5 6 72 6 7 72 8 8 74 10 11 73 11 12 75 11 11 73 9 9 73 7 8 47 3 4 1 1 1 1 1 1 1 1 1 0 0 0 1 1 1 1 1 1 1 1 1 1 1 1 1 1 1 1 1 1 1 1 1 1 1 1 0 0 0 1 1 1 0 0 0 1 1 1 1 1 1 0 0 0 1 1 1 1 1 1 1 1 1 1 1 1 1 1 1 1 1 1 1 1 1 0 0 0 0 0 0 1 1 1 1 1 1 0 0 0 1 1 1 1 1 1 1 1 1 
75 9 10 75 9 10 73 7 8 74 8 9 73 45 33 72 53 39 74 52 38 73 51 37 73 24 19 75 11 11 74 14 14 76 39 31 76 60 45 75 57 43 74 57 41 53 39 26 19 8 12 20 10 11 37 13 11 73 12 11 73 20 16 74 48 33 73 12 11 74 6 5 75 7 6 72 6 7 72 8 8 72 8 9 76 10 11 75 10 8 68 8 7 72 8 9 71 7 7 35 7 6 53 7 7 74 6 5 74 27 21 71 54 38 71 53 39 73 36 27 72 11 10 77 12 10 74 14 14 66 27 20 68 52 39 75 66 51 76 56 45 71 7 8 73 5 6 71 5 6 15 6 7 74 15 17 77 19 18 76 18 16 74 13 12 71 11 10 74 8 9 71 7 7 71 7 7 73 9 9 72 11 10 71 10 9 73 9 9 75 9 10 72 7 5 72 6 7 46 5 3 0 0 0 1 1 1 0 0 0 0 0 0 1 1 1 1 1 1 0 0 0 0 0 0 2 2 2 1 1 1 1 1 1 1 1 1 0 0 0 1 1 1 1 1 1 1 1 1 1 1 1 1 1 1 1 1 1 0 0 0 0 0 0 1 1 1 1 1 1 1 1 1 1 1 1 1 1 1 0 0 0 0 0 0 0 0 0 0 0 0 1 1 1 0 0 0 0 0 0 
74 8 9 75 11 9 74 8 9 73 8 6 73 51 37 74 57 41 73 55 41 73 57 41 72 27 21 73 9 9 77 13 13 76 39 31 77 61 46 70 57 41 54 42 30 17 16 12 9 9 9 9 7 8 25 9 9 74 10 10 72 11 10 71 13 11 71 7 7 73 7 8 72 6 7 73 8 6 72 7 5 75 7 6 75 11 12 73 12 11 73 9 9 74 8 9 71 10 9 58 6 8 67 5 6 75 27 23 73 51 37 72 56 41 73 57 42 71 38 29 72 11 10 73 11 12 71 15 16 63 23 21 70 54 41 75 66 49 75 55 44 74 6 7 74 6 7 71 5 6 54 6 6 73 9 9 75 11 12 75 14 13 74 14 14 72 11 10 72 6 7 73 7 8 75 7 8 74 8 9 75 11 12 71 26 21 73 26 20 73 7 8 72 7 5 56 5 4 11 3 1 1 1 1 0 0 0 0 0 0 1 1 1 0 0 0 1 1 1 0 0 0 0 0 0 0 0 0 1 1 1 0 0 0 0 0 0 1 1 1 1 1 1 1 1 1 1 1 1 1 1 1 0 0 0 1 1 1 0 0 0 1 1 1 1 1 1 1 1 1 1 1 1 1 1 1 1 1 1 1 1 1 1 1 1 0 0 0 1 1 1 1 1 1 2 2 2 0 0 0 
73 49 37 76 12 13 74 10 10 73 9 9 74 52 38 74 61 45 73 60 44 74 29 23 73 12 11 74 8 9 75 11 12 74 18 17 72 42 34 72 56 43 65 38 29 57 11 11 42 8 7 19 5 5 59 5 5 72 7 5 73 5 6 70 6 6 71 7 8 73 7 9 70 6 6 72 8 8 72 6 7 73 9 9 77 16 15 73 45 34 76 49 38 75 52 38 75 22 18 73 9 9 71 7 8 72 38 28 73 57 41 73 57 41 74 58 43 73 40 31 73 9 10 73 15 13 67 16 15 66 14 16 75 22 18 73 23 22 73 17 16 71 5 6 70 4 6 71 5 6 70 6 6 74 8 9 74 10 8 74 13 10 74 10 10 73 8 6 73 7 8 73 9 9 72 8 8 74 10 10 72 29 23 73 51 38 74 52 38 71 26 21 71 7 5 45 5 5 1 1 3 2 0 1 1 1 1 0 0 0 1 1 1 1 1 1 1 1 1 2 2 2 1 1 1 1 1 1 1 1 1 1 1 1 1 1 1 1 1 1 1 1 1 1 1 1 0 0 0 1 1 1 1 1 1 1 1 1 1 1 1 1 1 1 1 1 1 1 1 1 0 0 0 0 0 0 1 1 1 1 1 1 1 1 1 0 0 0 0 0 0 0 0 0 1 1 1 1 1 1 
75 62 46 75 9 11 73 9 9 74 10 10 75 56 42 75 63 47 73 62 44 74 21 17 73 5 6 72 6 7 71 10 9 75 9 10 75 36 29 74 61 45 75 42 33 74 13 12 65 9 8 60 6 6 71 6 4 71 5 6 71 10 7 70 40 30 70 42 30 73 47 34 73 9 9 73 7 8 74 6 5 74 8 9 72 43 29 74 62 48 73 65 52 74 66 53 76 26 25 74 10 11 71 7 7 71 16 11 71 39 28 73 60 43 74 42 31 73 15 14 72 12 11 72 12 12 69 13 12 72 12 12 75 11 12 73 9 9 72 7 5 69 5 3 72 7 5 71 5 7 72 6 7 73 7 8 75 11 11 76 46 36 73 51 40 73 49 39 72 19 15 74 10 10 74 10 8 73 9 7 72 38 28 70 56 43 71 58 42 73 51 38 73 33 25 45 5 5 1 1 1 0 0 0 1 1 1 1 1 1 1 1 1 1 1 1 0 0 0 1 1 1 1 1 1 1 1 1 1 1 1 0 0 0 1 1 1 0 0 0 1 1 1 1 1 1 0 0 0 0 0 0 1 1 1 1 1 1 1 1 1 1 1 1 0 0 0 0 0 0 1 1 1 1 1 1 1 1 1 1 1 1 0 0 0 1 1 1 0 0 0 1 1 1 1 1 1 2 2 2 
77 61 48 75 9 11 73 10 5 74 8 10 75 28 22 77 32 27 74 29 23 73 12 9 72 4 5 71 5 6 72 8 6 73 9 9 75 36 29 76 64 48 75 57 43 74 31 24 73 7 8 72 6 7 74 6 7 73 8 6 71 13 11 73 54 39 73 56 40 74 58 42 74 40 30 73 7 8 73 9 9 74 8 9 73 24 19 76 60 47 76 66 54 75 65 53 75 27 23 75 9 10 73 8 6 72 6 7 70 17 13 71 28 21 72 17 14 72 11 10 71 11 11 71 11 11 71 11 13 72 12 12 73 12 11 72 8 8 71 5 7 73 5 4 71 5 6 72 4 5 71 5 6 73 8 6 75 11 12 75 59 44 73 66 50 74 66 53 73 49 39 74 17 10 73 9 10 72 11 10 72 38 29 73 57 42 70 59 41 70 57 41 54 34 25 20 1 3 0 2 1 0 0 0 0 0 0 0 0 0 0 0 0 1 1 1 1 1 1 1 1 1 0 0 0 1 1 1 1 1 1 1 1 1 0 0 0 1 1 1 0 0 0 1 1 1 0 0 0 1 1 1 1 1 1 2 2 2 1 1 1 1 1 1 0 0 0 0 0 0 1 1 1 1 1 1 1 1 1 1 1 1 1 1 1 1 1 1 1 1 1 1 1 1 1 1 1 1 1 1 
74 29 24 74 9 5 73 7 8 73 9 9 76 12 12 76 12 13 74 10 10 71 5 6 70 5 3 70 5 3 71 7 7 74 10 10 74 37 29 75 66 49 74 66 47 74 55 38 71 27 18 73 5 6 72 6 7 73 7 8 73 13 12 74 57 39 71 55 39 71 59 43 74 58 45 74 10 10 72 8 8 75 10 8 73 9 9 75 27 23 77 33 30 77 34 28 78 18 17 75 9 10 73 7 8 73 7 8 71 7 7 72 6 7 72 7 5 57 9 9 37 12 15 51 12 13 72 14 13 73 13 12 75 11 11 72 11 10 73 39 30 71 37 27 70 36 27 72 4 5 70 4 5 73 5 6 73 9 9 75 59 46 75 66 51 74 67 51 75 63 49 74 23 20 74 10 10 74 10 10 75 20 17 71 41 31 71 58 42 72 42 32 45 16 12 1 1 1 1 1 1 0 0 0 1 1 1 0 0 0 1 1 1 0 0 0 0 0 0 0 0 0 0 0 0 1 1 1 0 0 0 1 1 1 1 1 1 1 1 1 0 0 0 1 1 1 1 1 1 1 1 1 0 0 0 1 1 1 1 1 1 1 1 1 1 1 1 1 1 1 1 1 1 1 1 1 0 0 0 0 0 0 1 1 1 1 1 1 1 1 1 0 0 0 1 1 1 0 0 0 
72 6 7 72 7 5 74 6 7 73 7 8 75 11 11 76 12 12 75 9 10 74 6 7 72 4 3 72 4 5 72 7 5 72 24 20 74 52 39 73 65 46 74 65 48 70 61 44 72 53 38 72 29 22 72 6 7 70 9 8 72 11 10 72 27 21 72 56 41 74 56 42 74 56 44 71 9 10 69 9 8 73 9 9 75 9 10 76 10 12 75 15 14 76 14 15 75 9 10 73 9 9 72 8 8 74 8 9 72 8 8 74 5 8 71 7 7 48 9 10 12 12 12 35 14 13 76 14 15 72 12 12 72 11 10 72 12 12 74 58 45 70 56 43 70 57 41 73 3 3 72 4 5 72 8 8 74 10 10 75 59 46 75 63 49 73 63 53 76 64 48 75 24 21 73 12 11 73 9 9 73 7 8 71 15 14 72 27 21 68 15 11 44 6 5 1 1 1 1 1 1 1 1 1 1 1 1 1 1 1 1 1 1 1 1 1 1 1 1 1 1 1 1 1 1 1 1 1 0 0 0 2 2 2 1 1 1 0 0 0 0 0 0 1 1 1 1 1 1 0 0 0 0 0 0 0 0 0 0 0 0 1 1 1 0 0 0 1 1 1 1 1 1 0 0 0 1 1 1 0 0 0 1 1 1 1 1 1 0 0 0 0 0 0 1 1 1 1 1 1 
72 6 7 72 6 7 72 7 5 73 9 9 74 13 12 77 11 12 73 30 24 73 34 27 52 14 11 57 1 2 73 7 8 75 22 18 72 48 36 77 64 47 74 62 48 70 61 44 73 60 43 73 45 33 72 6 7 70 6 6 70 9 8 71 10 9 74 31 24 72 34 25 74 34 26 73 11 12 71 11 11 74 10 10 75 9 10 74 13 12 74 12 13 76 15 14 75 9 10 73 7 8 73 8 6 74 8 9 73 9 9 73 7 8 70 21 17 61 34 27 43 34 29 54 26 22 74 12 13 76 11 15 72 17 14 75 38 29 71 57 44 70 56 43 71 58 42 73 3 5 70 4 5 69 8 7 72 11 10 74 35 30 74 37 29 74 35 28 75 36 31 75 17 16 73 12 11 74 8 9 72 6 7 68 7 6 68 7 6 69 8 7 45 5 5 1 1 1 1 1 3 1 1 1 2 2 2 1 1 1 0 0 0 0 0 0 2 2 2 1 1 1 0 0 0 0 0 0 1 1 1 1 1 1 1 1 1 1 1 1 0 0 0 0 0 0 1 1 1 1 1 1 1 1 1 0 0 0 1 1 1 0 0 0 1 1 1 1 1 1 1 1 1 1 1 1 0 0 0 0 0 0 0 0 0 1 1 1 1 1 1 1 1 1 0 0 0 0 0 0 
71 31 23 72 6 7 72 7 5 75 9 10 76 12 12 76 33 26 75 59 44 50 43 33 15 14 10 25 4 3 60 9 8 73 12 11 74 25 21 73 51 38 74 62 50 74 61 45 73 50 36 74 25 20 72 6 7 71 7 7 71 10 9 71 7 7 71 5 6 72 8 8 41 9 10 42 10 11 74 10 10 76 8 9 73 7 8 75 11 11 76 12 13 75 11 11 74 8 9 75 9 10 75 9 10 73 7 8 73 7 8 72 21 17 71 44 33 73 56 46 73 57 44 60 40 31 51 11 11 74 13 12 74 16 14 72 38 28 73 57 44 73 55 41 72 32 24 73 5 4 70 4 5 71 7 7 73 9 9 76 12 12 74 13 12 75 9 10 50 10 10 43 11 12 42 11 9 41 9 10 61 7 7 72 6 7 72 8 8 52 6 6 23 5 5 1 1 1 0 0 0 0 0 0 1 1 1 0 0 0 0 0 0 0 0 0 1 1 1 2 2 2 0 0 0 0 0 0 0 0 0 0 0 0 1 1 1 0 0 0 1 1 1 1 1 1 0 0 0 1 1 1 1 1 1 1 1 1 1 1 1 1 1 1 1 1 1 1 1 1 1 1 1 1 1 1 1 1 1 1 1 1 0 0 0 0 0 0 0 0 0 1 1 1 0 0 0 1 1 1 
73 57 42 76 31 26 74 10 10 74 10 10 77 9 10 74 31 25 78 62 49 24 20 17 5 5 5 5 5 7 48 10 9 74 13 12 74 12 13 75 24 21 75 36 29 75 35 27 74 25 18 72 6 7 71 5 6 74 6 5 73 7 8 73 7 8 74 6 7 74 8 9 10 10 12 11 11 11 74 10 10 74 8 9 74 6 7 74 8 9 77 11 12 73 30 24 73 36 28 74 19 16 71 7 7 72 8 8 72 8 8 73 32 26 74 58 45 75 59 46 73 59 46 49 40 31 25 9 9 74 10 10 71 9 10 73 12 11 72 33 26 71 31 23 73 7 8 70 9 6 71 7 7 71 7 7 73 7 9 76 12 12 76 15 14 76 12 12 28 9 11 14 12 13 12 10 11 8 8 8 28 8 9 56 6 7 54 4 3 18 2 2 0 0 0 1 1 1 1 1 1 0 0 0 1 1 1 0 0 0 2 2 2 0 0 0 1 1 1 0 0 0 1 1 1 0 0 0 0 0 0 1 1 1 1 1 1 1 1 1 0 0 0 1 1 1 1 1 1 0 0 0 1 1 1 0 0 0 1 1 1 2 2 2 0 0 0 1 1 1 0 0 0 1 1 1 0 0 0 1 1 1 1 1 1 2 2 2 2 2 2 0 0 0 1 1 1 1 1 1 
73 60 44 71 59 43 74 16 15 76 10 11 74 10 10 77 11 12 78 54 44 45 40 34 31 28 21 33 15 13 59 11 11 74 13 12 75 11 12 74 8 9 74 8 9 74 8 9 73 8 6 74 6 7 74 6 7 73 7 8 71 7 8 73 9 9 72 8 8 71 7 5 32 27 21 33 12 11 74 10 11 73 8 6 72 6 8 74 8 9 75 9 11 73 49 39 73 63 53 72 42 32 72 14 12 72 8 8 74 8 9 74 25 21 74 40 31 75 46 38 74 52 41 57 28 22 42 11 9 71 7 7 73 9 9 73 7 8 71 9 10 74 8 9 74 8 9 74 10 10 71 7 7 72 6 7 72 8 8 70 11 13 61 11 12 52 8 9 21 7 7 8 8 8 7 7 7 5 5 5 5 5 5 24 6 6 23 3 2 1 1 0 0 0 2 0 0 0 0 2 1 1 1 1 0 0 0 0 0 0 1 1 1 0 0 0 0 0 0 0 0 0 2 2 2 1 1 1 1 1 1 2 2 2 1 1 1 2 2 2 1 1 1 1 1 1 1 1 1 1 1 1 1 1 1 1 1 1 1 1 1 1 1 1 1 1 1 0 0 0 1 1 1 1 1 1 1 1 1 0 0 0 0 0 0 1 1 1 1 1 1 0 0 0 1 1 1 1 1 1 
74 62 48 73 60 44 75 17 15 75 11 9 73 9 9 75 10 8 75 36 31 75 45 35 73 43 32 74 23 20 76 12 10 76 10 11 76 10 11 74 10 10 75 7 8 73 7 8 72 8 8 72 6 7 74 6 7 72 6 7 71 7 7 73 9 9 73 11 12 71 26 20 73 56 40 73 30 23 76 12 12 73 9 9 71 7 8 74 9 7 69 8 7 74 47 38 75 63 51 74 50 40 73 22 19 73 9 10 74 13 12 73 12 11 75 11 11 74 23 20 74 29 24 72 11 10 71 10 9 74 10 8 72 11 10 74 10 11 72 11 10 75 9 10 72 8 8 72 11 10 71 9 10 71 7 7 69 9 9 57 9 7 24 4 5 11 2 3 1 1 1 0 0 0 0 0 0 1 1 3 1 1 1 1 1 1 1 1 1 1 1 1 1 1 1 1 1 1 1 1 1 1 1 1 1 1 1 0 0 0 2 2 2 1 1 1 1 1 1 1 1 1 1 1 1 0 0 0 0 0 0 0 0 0 2 2 2 0 0 0 1 1 1 1 1 1 1 1 1 0 0 0 1 1 1 0 0 0 1 1 1 1 1 1 0 0 0 0 0 0 1 1 1 1 1 1 1 1 1 0 0 0 1 1 1 1 1 1 1 1 1 1 1 1 1 1 1 0 0 0 
74 65 48 74 44 34 75 14 13 76 10 11 74 10 11 74 8 9 75 11 12 75 11 11 72 10 11 72 10 11 75 9 10 76 10 11 77 11 12 74 10 10 73 7 8 73 13 12 73 28 23 73 28 23 76 23 19 74 8 9 72 10 11 73 9 10 73 15 13 73 54 40 72 56 41 74 60 47 75 11 11 72 11 10 73 9 9 73 8 6 71 5 6 73 46 37 77 63 50 74 29 26 72 6 7 73 9 9 76 11 15 73 12 11 72 11 10 72 10 11 75 11 12 73 12 11 75 11 11 73 11 12 75 13 14 73 11 12 74 14 14 74 29 24 71 28 22 73 29 26 74 10 10 72 8 9 69 9 9 57 9 9 10 4 4 2 2 2 1 1 3 1 1 1 1 1 1 0 0 0 1 1 1 0 0 0 1 1 1 1 1 1 0 0 0 1 1 1 1 1 1 1 1 1 0 0 0 1 1 1 1 1 1 1 1 1 0 0 0 0 0 0 1 1 1 1 1 1 2 2 2 1 1 1 1 1 1 1 1 1 0 0 0 1 1 1 1 1 1 0 0 0 0 0 0 1 1 1 0 0 0 1 1 1 1 1 1 1 1 1 1 1 1 1 1 1 1 1 1 0 0 0 0 0 0 1 1 1 1 1 1 1 1 1 0 0 0 1 1 1 
75 53 40 75 9 10 74 8 10 72 8 8 74 10 8 74 10 10 74 10 10 72 10 11 72 10 11 72 11 10 75 9 10 75 11 11 73 12 11 74 10 10 74 8 9 76 28 24 72 63 48 73 63 51 73 49 37 73 9 10 71 11 10 71 7 7 73 13 12 74 55 40 74 58 43 72 60 46 77 11 12 76 12 12 74 8 10 75 7 6 73 7 8 74 35 28 74 47 36 72 21 17 71 7 7 72 8 8 74 10 10 73 9 10 72 8 8 73 9 9 75 14 13 71 20 17 73 11 12 73 13 13 72 12 12 72 10 11 58 17 13 57 49 36 58 50 39 56 47 38 57 9 9 58 8 9 54 10 9 45 6 7 7 6 4 3 2 0 1 1 1 1 1 1 1 1 1 2 2 2 1 1 1 1 1 1 1 1 1 1 1 1 1 1 1 1 1 1 1 1 1 1 1 1 1 1 1 1 1 1 2 2 2 0 0 0 0 0 0 1 1 1 1 1 1 0 0 0 0 0 0 1 1 1 1 1 1 1 1 1 1 1 1 1 1 1 1 1 1 0 0 0 1 1 1 0 0 0 1 1 1 1 1 1 1 1 1 0 0 0 1 1 1 1 1 1 1 1 1 1 1 1 1 1 1 0 0 0 0 0 0 0 0 0 0 0 0 1 1 1 
76 10 11 75 9 10 73 7 8 73 9 10 73 9 7 74 9 7 75 9 10 71 10 9 72 16 15 71 22 18 74 16 15 76 11 9 74 10 10 72 10 11 76 10 11 75 27 23 72 63 48 76 64 48 73 49 39 76 10 11 74 10 11 73 7 9 72 12 12 73 43 32 74 47 38 76 49 40 76 10 11 73 12 11 70 9 8 73 5 6 71 5 6 73 7 8 72 7 5 66 8 7 67 9 8 74 10 10 73 9 9 72 8 8 71 7 7 65 10 7 63 28 22 73 43 35 73 19 19 73 13 12 67 11 10 49 11 10 11 11 11 8 8 8 7 7 5 8 8 6 11 9 10 10 10 10 9 9 9 7 7 5 4 4 4 1 3 2 2 0 1 2 2 2 0 2 1 1 1 1 1 1 1 1 1 1 1 1 1 1 1 1 1 1 1 1 1 1 1 1 1 1 1 1 1 1 1 1 1 1 0 0 0 1 1 1 2 2 2 0 0 0 1 1 1 1 1 1 0 0 0 0 0 0 1 1 1 2 2 2 0 0 0 1 1 1 0 0 0 0 0 0 1 1 1 1 1 1 1 1 1 1 1 1 0 0 0 1 1 1 1 1 1 1 1 1 1 1 1 1 1 1 1 1 1 1 1 1 1 1 1 0 0 0 0 0 0 1 1 1 
74 10 10 74 10 10 71 10 7 72 11 10 76 10 11 74 10 10 75 11 11 73 17 16 74 44 34 73 57 41 74 35 28 75 17 15 76 12 13 76 10 11 73 9 9 72 27 22 73 61 47 73 61 45 74 47 36 73 11 12 73 13 12 72 12 12 72 8 8 74 10 10 76 12 12 74 12 13 73 12 11 75 11 12 72 6 7 72 7 5 60 6 4 57 7 6 56 8 8 25 7 7 40 9 7 56 10 10 54 8 10 63 7 8 73 9 9 53 13 11 47 38 33 75 59 46 74 50 40 74 23 19 59 11 11 11 11 9 10 10 10 7 7 7 8 8 8 8 10 9 10 10 10 10 10 10 10 9 7 6 6 6 4 4 4 3 3 3 1 1 3 1 1 1 0 0 0 1 1 1 1 1 1 1 1 1 1 1 1 0 0 0 0 0 0 1 1 1 1 1 1 1 1 1 0 0 0 0 0 0 1 1 1 0 0 0 2 2 2 1 1 1 0 0 0 1 1 1 1 1 1 2 2 2 1 1 1 1 1 1 1 1 1 1 1 1 1 1 1 1 1 1 1 1 1 1 1 1 0 0 0 1 1 1 1 1 1 1 1 1 0 0 0 1 1 1 1 1 1 1 1 1 2 2 2 0 0 0 1 1 1 0 0 0 0 0 0 0 0 0 
66 10 11 72 16 15 73 18 15 74 10 11 76 10 12 75 11 11 77 13 13 74 40 31 72 53 38 74 57 41 74 62 46 77 38 31 76 12 12 75 11 9 73 9 10 73 24 19 74 58 45 73 59 46 74 47 38 74 12 13 73 11 12 75 13 14 73 12 11 72 10 11 74 12 13 75 13 14 74 14 13 73 11 12 73 7 8 65 7 6 24 6 6 7 7 9 8 6 7 7 7 7 9 7 8 10 8 9 9 9 7 38 8 6 70 10 10 73 28 22 73 59 48 74 60 49 74 58 45 74 45 37 57 11 11 11 11 9 11 10 8 9 9 9 8 8 8 9 9 9 10 10 10 9 9 9 7 7 7 6 6 6 5 5 5 2 2 2 0 0 0 1 1 1 1 1 1 0 0 0 1 1 1 1 1 1 1 1 1 0 0 0 0 0 0 1 1 1 1 1 1 1 1 1 0 0 0 0 0 0 1 1 1 0 0 0 1 1 1 1 1 1 1 1 1 1 1 1 1 1 1 1 1 1 0 0 0 0 0 0 1 1 1 0 0 0 1 1 1 1 1 1 0 0 0 0 0 0 0 0 0 1 1 1 0 0 0 0 0 0 0 0 0 1 1 1 0 0 0 1 1 1 1 1 1 1 1 1 0 0 0 1 1 1 0 0 0 1 1 1 
10 12 11 73 57 42 74 60 47 73 24 19 75 9 10 76 12 10 75 13 14 75 11 9 74 42 29 75 59 43 74 58 43 75 34 28 76 12 12 74 8 10 72 6 7 68 7 6 68 24 21 64 56 43 71 44 35 74 13 12 73 9 9 74 10 11 73 12 11 73 13 12 74 12 15 73 13 12 77 13 14 73 11 12 72 8 9 16 7 10 7 7 7 8 8 8 7 7 9 6 6 6 6 6 6 7 7 7 7 7 5 7 7 7 41 9 12 73 28 25 75 59 46 74 62 48 74 56 44 69 40 34 55 11 10 11 11 9 8 8 10 9 9 9 9 9 7 8 8 6 7 7 7 6 4 5 5 7 6 7 5 6 5 5 5 3 3 3 1 1 1 1 1 1 0 0 0 0 0 0 1 1 1 1 1 1 1 1 1 1 1 1 1 1 1 1 1 1 1 1 1 1 1 1 1 1 1 0 0 0 0 0 0 0 0 0 0 0 0 1 1 1 1 1 1 0 0 0 0 0 0 0 0 0 1 1 1 2 2 2 1 1 1 2 2 2 0 0 0 0 0 0 0 0 0 1 1 1 1 1 1 0 0 0 1 1 1 0 0 0 2 2 2 0 0 0 1 1 1 1 1 1 1 1 1 1 1 1 1 1 1 1 1 1 1 1 1 1 1 1 
20 11 12 75 63 47 73 61 45 73 60 43 75 17 15 74 13 12 75 14 13 76 12 12 74 40 30 75 56 41 74 26 22 75 11 11 72 11 8 71 5 6 72 6 7 49 7 8 11 11 11 14 14 14 24 13 11 67 13 11 66 10 9 74 10 10 73 11 12 73 12 11 76 12 13 74 18 17 74 18 17 73 19 17 67 11 14 17 6 10 8 8 8 9 9 9 7 7 5 7 7 7 6 6 6 7 7 7 8 6 9 9 9 11 35 9 10 70 25 22 73 55 45 69 55 44 62 42 33 51 9 10 11 11 11 10 12 11 8 8 8 7 7 7 7 7 5 7 7 7 6 6 6 5 5 7 5 5 5 6 6 6 4 4 4 2 2 2 0 2 1 0 2 1 1 1 1 0 0 0 1 1 1 1 1 1 1 1 1 1 1 1 1 1 1 1 1 1 1 1 1 1 1 1 1 1 1 0 0 0 1 1 1 1 1 1 1 1 1 0 0 0 0 0 0 0 0 0 0 0 0 1 1 1 0 0 0 1 1 1 1 1 1 1 1 1 0 0 0 1 1 1 1 1 1 1 1 1 0 0 0 1 1 1 1 1 1 1 1 1 1 1 1 1 1 1 1 1 1 1 1 1 0 0 0 0 0 0 0 0 0 1 1 1 1 1 1 0 0 0 
75 9 10 74 67 49 72 60 44 72 59 43 74 16 14 72 11 10 72 10 11 73 11 12 75 11 12 75 9 10 75 11 11 75 11 11 75 9 10 74 6 5 73 5 6 50 8 10 11 11 11 14 14 14 14 14 14 12 12 14 21 11 12 74 10 10 73 11 12 72 12 11 78 12 13 73 61 47 76 63 46 75 62 46 20 19 17 11 9 10 9 9 9 9 7 8 7 7 7 8 6 7 7 7 9 7 7 7 7 7 7 9 9 9 8 8 8 32 8 8 72 27 24 52 41 35 9 11 10 13 11 12 12 12 14 10 10 8 8 8 8 7 5 6 8 7 5 7 5 6 7 5 6 5 5 5 5 7 6 5 5 5 3 5 4 2 2 2 0 0 0 1 1 1 0 0 0 2 0 3 1 1 1 0 0 0 1 1 1 1 1 1 0 0 0 1 1 1 1 1 1 1 1 1 1 1 1 1 1 1 0 0 0 1 1 1 1 1 1 0 0 0 1 1 1 2 2 2 2 2 2 2 2 2 1 1 1 1 1 1 1 1 1 0 0 0 0 0 0 1 1 1 0 0 0 0 0 0 0 0 0 1 1 1 0 0 0 0 0 0 0 0 0 1 1 1 1 1 1 0 0 0 1 1 1 0 0 0 1 1 1 1 1 1 0 0 0 0 0 0 
73 9 9 76 65 47 72 61 43 72 17 12 73 9 10 78 9 12 72 8 8 72 11 10 74 13 12 76 12 10 74 10 8 72 11 10 75 9 10 75 7 8 48 6 7 9 7 8 10 8 9 11 11 11 11 11 11 12 12 12 12 12 12 15 15 15 14 12 13 10 10 8 73 12 9 76 63 47 13 13 13 14 14 12 14 14 14 11 11 13 8 8 6 6 6 6 7 5 6 7 7 7 6 6 6 6 6 8 7 7 9 7 7 7 6 6 6 7 7 7 9 9 9 9 9 9 8 9 11 9 11 10 11 9 10 10 10 10 8 8 10 8 7 5 6 6 6 7 7 7 8 6 7 8 8 8 6 6 6 5 5 5 9 9 9 12 12 14 3 3 3 0 0 0 0 0 0 0 0 0 2 2 2 1 1 1 1 1 1 1 1 0 1 1 1 0 0 0 1 1 0 1 1 1 1 1 1 1 1 1 1 1 1 2 2 2 1 1 1 1 1 1 0 0 0 1 1 1 0 0 0 0 0 0 1 1 1 1 1 1 1 1 1 1 1 1 0 0 0 1 1 1 1 1 1 1 1 1 1 1 1 1 1 1 1 1 1 0 0 0 2 2 2 1 1 1 1 1 1 1 1 1 1 1 1 1 1 1 1 1 1 1 1 1 1 1 1 0 0 0 
69 9 9 74 13 12 74 13 12 73 12 9 75 9 10 74 8 10 74 8 9 74 10 8 75 11 11 77 11 12 73 12 11 73 9 10 40 9 7 7 7 7 6 6 6 6 7 2 6 6 6 5 5 5 7 7 7 10 10 10 14 14 14 12 12 10 12 12 14 9 9 11 9 9 7 9 9 9 13 11 12 13 13 13 14 13 11 12 10 11 11 11 11 8 8 8 7 7 7 7 7 7 6 6 6 6 6 4 7 6 4 10 6 7 7 7 7 7 7 7 8 10 9 9 9 9 6 6 6 6 6 6 6 6 6 7 7 5 6 6 4 6 6 6 9 9 9 11 7 8 7 7 7 5 5 7 6 6 6 5 5 5 6 6 6 8 8 8 13 13 13 5 5 3 1 1 1 1 1 1 2 0 1 0 0 0 1 1 3 0 0 0 0 0 0 0 0 0 1 1 1 0 0 0 0 0 0 0 0 0 2 2 2 2 2 2 0 0 0 0 0 0 1 1 1 0 0 0 1 1 1 0 0 0 1 1 1 1 1 1 0 0 0 1 1 1 0 0 0 1 1 1 1 1 1 1 1 1 1 1 1 0 0 0 1 1 1 2 2 2 1 1 1 1 1 1 1 1 1 1 1 1 1 1 1 1 1 1 0 0 0 0 0 0 0 0 0 1 1 1 
69 11 10 70 10 10 74 15 11 75 11 11 73 11 12 75 9 10 77 9 10 76 8 9 75 10 8 33 8 11 9 9 11 8 8 8 7 7 7 7 7 5 6 6 6 5 5 7 6 6 6 6 5 3 6 6 6 9 9 11 11 11 11 10 12 11 10 10 10 9 9 9 9 7 8 10 10 8 13 13 11 12 14 13 10 10 10 9 9 11 10 10 10 9 11 10 9 9 9 7 7 7 6 6 6 6 6 8 7 7 7 6 6 8 7 5 8 9 7 8 8 8 8 8 8 8 8 8 8 6 4 5 6 6 8 6 6 6 6 6 6 10 10 10 12 12 12 11 10 8 8 8 8 6 6 6 6 4 5 5 5 5 6 6 6 8 8 10 12 12 14 13 12 10 5 5 5 1 1 1 0 2 1 1 1 1 1 1 1 2 2 2 1 1 3 1 1 1 1 1 0 0 0 0 0 0 0 0 0 0 0 0 0 0 0 0 1 1 1 0 0 0 0 0 0 1 1 1 1 1 1 2 2 2 0 0 0 1 1 1 1 1 1 1 1 1 1 1 1 1 1 1 2 2 2 1 1 1 1 1 1 0 0 0 1 1 1 0 0 0 0 0 0 1 1 1 0 0 0 1 1 1 0 0 0 1 1 1 1 1 1 0 0 0 1 1 1 1 1 1 
72 11 8 72 11 10 74 12 13 76 12 13 75 11 12 75 9 10 75 7 8 74 9 7 34 8 7 13 9 10 9 7 8 7 7 7 7 7 7 7 5 8 7 5 6 7 7 9 27 22 18 48 39 30 5 7 6 9 7 8 11 9 10 11 11 11 11 11 11 10 10 8 10 8 9 11 11 11 14 12 15 12 12 10 9 9 7 7 7 7 9 9 9 10 10 10 9 9 9 8 8 8 7 7 7 6 6 6 6 6 6 7 7 7 11 7 8 7 7 7 6 6 6 6 8 7 6 6 6 4 4 4 4 4 2 6 6 8 8 7 5 8 8 8 8 10 9 7 7 9 6 6 8 5 7 6 6 4 5 5 5 7 8 6 7 10 9 7 11 9 10 12 10 11 9 11 10 4 4 6 1 1 1 0 0 0 1 1 1 1 1 1 1 1 1 1 1 1 0 0 0 1 1 1 1 1 1 0 0 0 0 0 0 0 0 0 0 0 0 0 0 0 0 0 0 0 0 0 1 1 1 1 1 1 1 1 1 2 2 2 1 1 1 1 1 1 1 1 1 1 1 1 1 1 1 1 1 1 1 1 1 0 0 0 1 1 1 1 1 1 1 1 1 0 0 0 1 1 1 1 1 1 2 2 2 0 0 0 1 1 1 1 1 1 1 1 1 1 1 1 
73 9 9 71 10 9 72 14 13 76 48 37 75 55 44 75 53 40 72 16 15 73 7 8 32 7 10 8 8 8 8 8 8 8 6 9 6 6 6 7 5 6 8 6 7 28 7 6 70 10 9 72 13 9 46 6 6 8 7 5 9 9 9 11 11 11 13 13 11 11 9 10 10 10 8 14 14 14 14 14 12 11 11 11 8 8 8 9 7 10 9 7 8 9 11 10 9 9 9 44 9 5 28 8 9 8 6 7 8 6 7 9 7 8 7 7 7 6 6 6 5 5 5 5 5 5 6 6 6 4 6 5 5 5 5 7 7 5 5 5 3 6 6 8 10 10 10 9 9 7 65 49 34 65 7 6 65 7 6 14 6 4 8 8 8 7 7 7 9 9 9 13 11 12 11 11 11 5 5 5 1 1 1 1 1 1 0 0 0 1 1 1 0 0 2 1 1 1 1 1 1 1 1 1 1 1 1 1 1 1 1 1 1 0 0 0 1 1 1 1 1 1 1 1 1 0 0 0 1 1 1 0 0 0 1 1 1 0 0 0 1 1 1 1 1 1 0 0 0 0 0 0 0 0 0 0 0 0 1 1 1 0 0 0 0 0 0 1 1 1 0 0 0 0 0 0 1 1 1 1 1 1 1 1 1 0 0 0 1 1 1 1 1 1 1 1 1 1 1 1 
71 10 9 72 11 10 72 44 33 77 61 48 72 63 48 73 61 45 72 21 17 28 7 6 11 7 6 8 8 8 10 9 7 7 7 7 6 8 5 7 7 5 28 6 8 68 7 4 72 6 7 72 7 5 72 6 7 50 9 7 12 12 10 10 10 10 9 11 8 11 11 13 10 10 10 14 12 13 10 10 8 10 10 10 10 10 10 9 9 9 10 10 8 10 10 10 54 10 9 69 9 8 69 35 26 31 24 18 10 8 9 7 7 5 5 5 3 4 4 4 4 2 3 6 6 6 8 8 8 7 7 7 6 6 6 14 5 6 63 3 3 65 7 6 65 9 8 64 8 9 72 12 11 70 51 37 72 12 12 66 8 7 67 5 6 21 7 7 10 9 7 9 9 9 10 10 8 8 10 9 4 4 6 1 1 1 1 1 1 1 1 1 1 1 1 1 1 0 1 1 1 0 0 2 1 1 1 1 1 1 0 0 0 1 1 1 0 0 0 1 1 1 0 0 0 0 0 0 0 0 0 1 1 1 0 0 0 0 0 0 0 0 0 1 1 1 0 0 0 1 1 1 0 0 0 0 0 0 2 2 2 0 0 0 0 0 0 1 1 1 0 0 0 1 1 1 0 0 0 1 1 1 1 1 1 0 0 0 0 0 0 1 1 1 1 1 1 1 1 1 
69 9 11 72 8 9 75 53 42 75 63 49 76 63 46 73 60 44 73 22 18 21 7 6 7 7 7 9 7 8 10 8 9 8 8 10 8 8 8 7 7 5 33 7 8 72 6 7 72 6 7 72 6 7 61 6 9 24 10 10 14 12 13 13 11 12 10 10 10 11 9 12 9 13 12 11 9 10 10 10 8 11 11 13 11 10 8 9 9 9 9 9 9 10 10 8 57 9 9 73 28 23 73 54 40 34 26 23 10 10 12 8 8 8 7 5 6 5 5 5 5 5 5 6 6 6 7 7 7 8 8 8 6 6 6 12 3 4 69 3 4 71 7 8 71 10 9 72 8 9 71 5 6 72 60 44 73 15 14 74 6 7 73 5 6 61 7 7 18 7 5 7 9 8 10 10 10 11 11 11 38 33 27 28 25 20 1 1 1 0 1 3 0 0 0 1 1 0 0 0 0 1 1 1 1 1 1 1 1 1 1 1 1 0 0 0 1 1 1 0 0 0 0 0 0 1 1 1 1 1 1 1 1 1 0 0 0 0 0 0 0 0 0 1 1 1 0 0 0 1 1 1 0 0 0 0 0 0 1 1 1 0 0 0 1 1 1 1 1 1 1 1 1 0 0 0 0 0 0 1 1 1 1 1 1 2 2 2 1 1 1 0 0 0 0 0 0 0 0 0 
68 7 6 71 7 7 74 52 39 73 60 44 72 60 44 73 60 44 73 20 16 61 7 7 28 7 6 8 10 9 10 10 10 9 9 9 8 8 8 7 7 7 15 6 7 40 6 5 74 6 5 72 6 7 57 7 10 11 11 11 12 12 12 10 10 10 10 10 12 12 11 9 10 10 12 6 6 6 9 9 9 11 11 9 11 10 8 7 7 7 7 7 5 8 8 8 19 7 7 52 38 27 47 36 30 14 15 10 8 10 7 6 6 6 6 6 6 7 5 6 6 6 6 7 7 7 7 7 5 6 6 6 18 6 6 59 4 7 71 6 2 71 7 7 72 6 7 72 8 9 70 9 8 73 61 47 71 49 36 74 45 37 72 12 11 71 5 6 60 6 4 58 8 11 56 31 26 57 49 38 72 60 48 66 58 47 29 26 19 1 1 1 1 1 3 1 1 1 1 1 1 1 1 0 1 1 1 1 1 1 1 1 1 1 1 1 2 2 2 1 1 1 1 1 1 1 1 1 0 0 0 1 1 1 0 0 0 0 0 0 1 1 1 0 0 0 0 0 0 1 1 1 1 1 1 1 1 1 1 1 1 1 1 1 2 2 2 1 1 1 0 0 0 1 1 1 1 1 1 1 1 1 0 0 0 2 2 2 1 1 1 0 0 0 1 1 1 0 0 0 
72 6 7 74 10 10 73 20 16 72 19 13 75 22 16 71 22 17 74 10 8 74 4 6 32 6 7 11 9 10 12 12 10 9 9 7 8 8 8 7 7 7 8 8 8 16 8 6 23 7 7 24 6 6 20 8 8 9 9 9 9 9 7 8 8 6 9 9 9 11 11 11 11 9 10 6 6 4 7 7 9 10 9 7 10 10 10 9 7 8 6 6 6 6 6 4 7 7 7 21 17 16 12 13 8 9 9 7 10 8 9 8 8 8 8 6 7 6 6 6 8 8 8 7 7 7 7 9 8 20 6 6 60 4 3 70 6 6 71 7 7 71 5 6 72 6 7 71 7 5 75 10 8 72 62 50 72 65 49 72 60 46 72 44 33 72 14 13 70 6 6 73 7 8 74 41 32 74 62 48 72 63 48 77 65 51 38 35 28 2 0 1 0 0 2 0 0 0 0 0 0 1 1 1 0 0 0 1 1 1 1 1 1 0 0 0 0 0 0 0 0 0 1 1 1 1 1 1 0 0 0 2 2 2 1 1 1 2 2 2 1 1 1 0 0 0 1 1 1 1 1 1 1 1 1 1 1 1 0 0 0 1 1 1 0 0 0 1 1 1 0 0 0 1 1 1 0 0 0 1 1 1 0 0 0 1 1 1 1 1 1 0 0 0 0 0 0 0 0 0 
73 7 8 72 10 11 71 7 7 72 7 5 76 7 10 74 9 7 73 7 8 72 6 7 34 8 9 12 14 13 12 10 11 8 6 7 5 5 5 8 8 8 10 10 10 8 8 8 6 6 6 5 5 3 5 5 5 8 8 6 8 10 7 9 9 9 8 8 8 10 10 10 9 9 11 7 5 8 6 6 6 9 9 9 9 9 9 7 7 7 7 7 7 7 7 7 6 6 6 8 7 5 7 5 6 8 6 7 8 8 8 9 9 9 8 6 7 6 6 6 7 7 7 9 9 11 21 9 11 53 18 16 72 39 32 71 34 26 70 6 6 72 6 7 72 6 7 72 6 8 72 6 7 74 62 46 73 63 51 74 60 47 71 58 42 71 18 14 72 6 7 73 8 6 71 22 17 71 49 35 73 61 45 73 46 35 59 18 16 24 4 3 1 1 1 0 0 2 0 0 0 0 2 1 1 1 1 0 0 0 0 0 0 0 0 0 1 1 1 0 0 0 1 1 1 1 1 1 1 1 1 1 1 1 1 1 1 1 1 1 0 0 0 0 0 0 1 1 1 0 0 0 1 1 1 1 1 1 0 0 0 0 0 0 0 0 0 0 0 0 1 1 1 0 0 0 0 0 0 0 0 0 1 1 1 1 1 1 1 1 1 1 1 1 0 0 0 2 2 2 
74 6 5 67 7 6 67 7 6 73 7 8 74 10 10 72 12 11 74 10 11 71 5 6 58 10 10 53 13 13 26 10 10 8 7 5 6 8 7 9 9 9 10 8 9 7 7 7 8 6 7 6 6 8 6 6 8 6 8 7 9 9 9 7 7 9 8 8 10 7 7 7 8 6 7 8 6 7 8 8 8 9 7 8 10 8 9 7 7 9 8 10 9 7 7 7 8 6 7 9 7 8 9 7 8 8 8 8 10 8 9 29 8 7 48 8 8 48 8 8 48 8 9 50 10 10 55 11 10 75 21 19 72 60 46 72 56 41 70 36 27 72 8 8 70 9 8 70 8 9 71 7 8 72 59 43 71 59 43 71 58 42 73 30 23 71 13 11 72 6 7 68 7 6 72 6 8 72 21 18 71 28 22 73 20 16 73 9 9 35 3 4 1 1 1 1 1 1 0 0 0 1 1 3 1 1 1 0 0 0 1 1 1 0 0 0 0 0 0 0 0 0 0 0 0 2 2 2 1 1 1 0 0 0 1 1 1 1 1 1 0 0 0 1 1 1 1 1 1 1 1 1 1 1 1 1 1 1 0 0 0 2 2 2 1 1 1 1 1 1 0 0 0 1 1 1 1 1 1 0 0 0 1 1 1 2 2 2 1 1 1 2 2 2 1 1 1 0 0 0 
73 5 6 63 5 4 64 8 7 75 11 11 76 12 12 75 40 34 71 42 34 73 13 13 72 12 11 74 14 13 33 9 9 7 5 6 8 8 8 11 11 11 9 9 9 7 7 7 6 6 4 6 6 6 6 6 6 8 6 7 9 9 9 7 7 7 8 8 10 7 7 5 7 7 7 6 6 6 7 7 7 7 7 9 8 6 7 7 7 7 8 8 8 7 7 7 6 6 6 8 8 8 9 9 9 9 9 9 9 9 9 40 25 18 74 25 20 74 8 9 74 10 8 75 11 11 75 11 11 74 20 18 70 61 46 69 59 47 72 53 39 71 10 9 73 11 12 72 10 11 72 8 9 74 27 21 71 55 40 72 31 25 70 12 10 73 9 9 71 7 7 70 6 7 69 7 8 70 8 9 70 9 8 74 8 9 73 7 8 59 5 5 27 3 3 1 1 0 1 1 1 0 0 0 1 1 1 1 1 1 1 1 1 0 0 0 1 1 1 1 1 1 1 1 1 0 0 0 0 0 0 0 0 0 1 1 1 1 1 1 1 1 1 1 1 1 0 0 0 1 1 1 0 0 0 1 1 1 0 0 0 1 1 1 0 0 0 1 1 1 2 2 2 1 1 1 1 1 1 1 1 1 0 0 0 1 1 1 0 0 0 0 0 0 1 1 1 1 1 1 
73 5 4 67 5 6 66 10 9 74 12 13 77 36 30 75 61 50 73 61 47 71 22 17 74 10 10 74 12 13 53 9 8 23 7 7 10 10 12 11 9 10 8 8 6 5 5 5 5 5 5 7 7 5 6 6 6 8 8 8 11 11 11 10 10 10 9 9 9 7 7 5 38 7 5 41 7 8 41 7 6 11 7 6 8 6 7 7 7 7 7 5 6 7 7 5 7 7 5 7 7 7 8 8 8 9 9 9 26 22 19 57 49 38 73 49 39 74 25 21 75 9 10 76 12 12 76 12 13 73 22 18 74 62 48 72 58 45 72 53 39 75 9 10 73 12 11 69 9 9 71 9 10 73 8 6 72 28 25 71 11 11 74 10 10 74 8 9 70 6 6 71 7 8 69 8 7 72 8 8 72 8 8 73 9 9 72 7 5 71 5 6 44 4 5 1 1 0 0 0 0 1 1 1 1 1 1 1 1 1 1 1 1 1 1 1 0 0 0 2 2 2 1 1 1 1 1 1 1 1 1 2 2 2 1 1 1 1 1 1 1 1 1 1 1 1 1 1 1 0 0 0 1 1 1 1 1 1 0 0 0 0 0 0 1 1 1 0 0 0 1 1 1 1 1 1 0 0 0 1 1 1 0 0 0 0 0 0 0 0 0 0 0 0 1 1 1 0 0 0 
41 7 6 72 8 8 70 9 8 72 10 11 74 60 47 75 66 51 73 59 48 73 40 33 75 20 17 71 10 9 73 9 9 40 9 6 10 10 8 9 7 8 6 6 6 5 5 5 6 4 9 5 5 5 8 6 7 8 8 6 14 12 13 10 12 11 12 8 7 38 6 7 72 8 6 72 6 7 74 6 5 45 6 7 38 7 5 11 7 6 7 5 6 7 5 6 6 6 6 7 7 5 9 7 8 28 25 18 57 49 38 71 64 48 72 63 48 75 42 33 74 9 7 74 13 12 75 11 11 74 14 13 72 34 25 71 32 25 70 29 23 73 9 9 69 9 8 38 10 9 72 11 10 73 9 9 72 8 8 70 6 6 71 10 9 72 8 8 71 7 7 72 6 7 71 7 7 72 8 8 72 25 19 72 33 26 73 34 27 72 34 25 46 21 17 2 2 2 1 1 1 0 0 0 1 1 1 1 1 1 1 1 1 1 1 1 1 1 1 1 1 1 1 1 1 1 1 1 1 1 1 1 1 1 1 1 1 0 0 0 0 0 0 0 0 0 0 0 0 1 1 1 1 1 1 0 0 0 2 2 2 1 1 1 1 1 1 1 1 1 1 1 1 1 1 1 1 1 1 1 1 1 1 1 1 1 1 1 0 0 0 1 1 1 0 0 0 1 1 1 
8 8 6 70 9 8 71 9 10 71 11 10 74 58 43 73 61 45 72 59 43 74 41 32 73 19 17 74 10 10 74 8 9 58 8 9 25 7 7 6 6 6 5 5 5 6 6 4 6 4 5 7 5 6 6 6 6 11 9 10 15 14 12 10 10 10 15 7 5 73 7 8 73 7 8 72 6 7 70 5 3 73 7 8 73 30 24 44 31 23 14 13 11 7 6 4 4 4 4 7 7 7 8 8 6 49 26 20 73 50 36 72 63 48 73 63 51 74 41 32 74 8 9 72 12 11 72 11 10 72 8 8 73 5 6 71 5 6 71 7 7 73 9 10 70 10 12 12 10 11 75 11 11 72 11 10 72 11 10 71 10 9 70 8 9 73 9 9 75 7 8 72 6 7 73 7 8 72 8 8 72 40 29 69 60 45 71 64 48 71 62 45 59 39 30 23 2 1 1 1 1 0 0 0 1 1 1 0 0 0 2 2 2 1 1 1 1 1 1 1 1 1 0 0 0 0 0 0 1 1 1 1 1 1 1 1 1 0 0 0 1 1 1 1 1 1 0 0 0 2 2 2 0 0 0 1 1 1 1 1 1 1 1 1 1 1 1 0 0 0 1 1 1 1 1 1 1 1 1 1 1 1 1 1 1 0 0 0 1 1 1 2 2 2 0 0 0 0 0 0 
32 8 8 73 9 10 73 9 9 75 11 11 74 41 32 73 41 30 72 39 30 73 19 17 74 10 10 74 8 9 73 7 8 74 6 5 41 5 5 4 4 4 4 2 3 5 5 5 6 6 4 8 8 6 8 8 8 11 9 12 12 12 12 14 14 14 33 26 18 73 26 20 72 8 9 71 7 5 71 5 6 71 7 7 74 52 41 73 55 43 43 35 24 31 24 16 32 8 8 30 6 4 31 7 7 56 8 6 70 25 20 73 43 33 73 43 33 73 28 23 75 7 8 74 10 10 74 10 10 73 7 9 73 5 6 71 5 6 70 9 8 74 10 10 73 13 15 38 14 14 74 12 13 72 12 12 71 11 11 74 26 22 73 28 23 73 28 23 72 12 11 72 8 8 74 8 9 71 7 7 68 38 28 71 59 45 72 60 48 71 61 49 73 41 30 45 4 2 0 2 1 0 0 0 1 1 1 0 0 0 1 1 1 0 0 0 1 1 1 0 0 0 0 0 0 1 1 1 1 1 1 1 1 1 1 1 1 1 1 1 1 1 1 1 1 1 1 1 1 0 0 0 2 2 2 1 1 1 1 1 1 1 1 1 0 0 0 1 1 1 0 0 0 1 1 1 0 0 0 1 1 1 0 0 0 1 1 1 0 0 0 1 1 1 1 1 1 1 1 1 
69 8 7 71 7 7 72 6 8 74 10 10 73 11 12 71 11 10 74 10 10 72 11 10 74 10 10 74 8 9 73 7 8 71 7 5 55 7 7 18 4 4 3 3 1 12 2 1 31 5 6 24 8 8 9 9 9 12 10 11 13 11 12 14 12 13 52 44 33 74 58 42 72 27 22 73 7 8 74 6 7 72 6 7 75 48 37 73 57 42 70 57 41 72 56 41 72 19 15 70 5 3 70 6 6 72 8 8 71 10 7 74 10 10 72 8 8 73 7 8 74 8 9 72 8 9 74 8 9 72 6 7 74 6 5 71 6 2 70 6 7 73 9 9 74 13 12 74 16 15 73 15 14 73 13 13 71 12 14 72 50 37 71 58 42 72 63 46 72 38 28 72 13 9 73 9 9 71 7 7 71 38 29 70 58 42 70 58 44 70 61 46 73 40 31 46 2 3 1 1 1 1 1 1 0 0 0 1 1 1 1 1 1 1 1 1 0 0 0 1 1 1 0 0 0 0 0 0 1 1 1 1 1 1 1 1 1 1 1 1 1 1 1 1 1 1 1 1 1 1 1 1 1 1 1 1 1 1 1 1 1 1 1 1 0 0 0 1 1 1 2 2 2 1 1 1 1 1 1 0 0 0 0 0 0 1 1 1 1 1 1 0 0 0 1 1 1 0 0 0 
70 6 6 71 6 4 71 5 6 73 9 9 73 12 11 73 12 9 74 10 10 70 9 8 73 9 9 73 7 8 73 7 8 73 9 9 76 8 9 51 16 12 29 26 19 47 26 21 73 28 22 64 23 19 36 12 12 36 12 10 34 14 13 34 29 23 37 32 26 72 60 44 74 41 32 73 7 8 73 7 9 73 8 6 72 36 24 71 37 28 72 38 29 71 37 28 69 15 13 67 5 6 70 6 6 72 8 8 73 9 9 72 11 10 72 8 6 72 6 7 72 6 7 73 8 6 74 8 9 71 5 7 70 12 8 71 24 18 69 24 18 71 26 20 72 27 21 73 13 13 75 16 18 72 14 13 70 25 19 70 52 38 74 60 47 74 62 46 71 62 47 74 20 18 72 6 7 70 6 6 71 27 18 71 39 28 71 37 28 72 40 29 74 26 22 54 6 6 18 2 2 0 2 1 1 1 1 1 1 1 1 1 1 1 1 1 0 0 0 0 0 0 0 0 0 1 1 1 1 1 1 0 0 0 1 1 1 0 0 0 1 1 1 1 1 1 1 1 1 1 1 1 1 1 1 0 0 0 0 0 0 0 0 0 1 1 1 0 0 0 0 0 0 1 1 1 1 1 1 1 1 1 0 0 0 1 1 1 1 1 1 0 0 0 1 1 1 1 1 1 
70 6 6 68 4 4 72 7 5 74 10 11 73 9 9 74 9 7 73 18 15 70 19 16 70 19 15 73 15 14 75 9 10 75 9 10 73 7 8 73 36 27 71 64 46 71 62 45 74 65 48 74 54 43 76 12 13 75 11 12 72 18 16 73 46 35 75 48 37 72 48 36 72 6 7 74 6 7 68 7 6 69 8 7 72 7 5 72 6 7 72 6 7 71 7 8 66 6 5 65 7 6 72 8 8 72 8 8 73 11 14 74 10 11 71 10 9 73 12 11 74 16 12 73 5 4 71 7 7 73 8 6 69 20 15 70 54 39 70 52 38 72 56 40 69 56 39 71 22 18 72 12 14 71 11 11 69 39 28 72 54 40 75 63 49 74 62 48 72 53 39 72 16 15 72 6 7 70 4 5 70 4 5 71 5 6 69 5 5 70 6 6 71 7 7 70 6 6 45 4 2 1 1 1 1 1 1 1 1 1 1 1 1 1 1 1 0 0 0 0 0 0 0 0 0 1 1 1 0 0 0 0 0 0 0 0 0 1 1 1 1 1 1 1 1 1 0 0 0 1 1 1 0 0 0 1 1 1 1 1 1 0 0 0 1 1 1 0 0 0 0 0 0 1 1 1 0 0 0 1 1 1 1 1 1 1 1 1 2 2 2 1 1 1 0 0 0 1 1 1 
66 4 5 69 4 2 71 7 7 75 9 10 72 8 8 70 17 13 72 48 36 70 57 40 72 56 41 73 28 22 74 9 7 72 8 6 73 7 8 72 35 27 73 64 49 72 64 51 74 65 50 74 52 41 73 9 9 75 11 12 73 11 12 74 10 11 73 7 8 73 8 6 71 5 6 71 5 6 66 8 7 69 7 8 74 6 7 72 8 8 73 7 8 71 7 8 67 7 6 67 7 7 72 6 8 72 8 8 70 9 8 74 16 15 73 22 19 72 40 29 73 45 34 72 17 14 74 8 9 73 9 9 70 19 15 69 56 40 69 56 40 71 55 40 70 54 39 73 43 33 71 9 10 70 9 8 72 8 9 72 46 33 73 49 37 73 49 37 74 20 18 71 9 10 71 7 5 70 4 5 70 4 5 69 5 5 70 4 5 69 5 5 71 5 7 71 7 5 44 4 4 1 1 1 2 2 2 1 1 1 2 2 2 1 1 1 1 1 1 0 0 0 0 0 0 0 0 0 0 0 0 1 1 1 0 0 0 1 1 1 0 0 0 1 1 1 1 1 1 0 0 0 0 0 0 1 1 1 1 1 1 0 0 0 1 1 1 1 1 1 1 1 1 1 1 1 1 1 1 1 1 1 0 0 0 0 0 0 0 0 0 1 1 1 0 0 0 1 1 1 
66 17 13 71 16 13 72 11 8 75 9 10 75 7 8 72 44 33 71 55 40 71 59 43 72 59 43 73 35 26 75 17 15 74 10 10 74 8 9 73 30 24 73 53 42 71 61 49 71 57 48 72 39 30 75 7 8 75 9 11 75 9 11 73 9 7 71 7 8 72 6 7 57 7 6 52 8 7 66 8 7 71 7 7 75 7 6 74 6 7 72 6 7 71 18 14 67 16 13 68 12 11 69 8 7 68 7 6 71 7 8 72 33 28 72 63 48 72 65 47 73 64 49 71 44 33 72 8 8 73 9 9 73 18 15 73 45 34 72 56 41 73 57 44 73 45 34 71 10 9 71 7 7 72 8 8 71 5 6 71 7 7 73 9 9 74 8 9 73 9 10 72 8 8 72 7 11 71 7 7 71 5 7 69 5 5 69 3 4 70 10 9 72 18 16 71 15 14 46 6 7 2 2 2 1 1 1 0 0 0 1 1 1 1 1 1 1 1 1 1 1 1 1 1 1 1 1 1 1 1 1 1 1 1 0 0 0 1 1 1 1 1 1 0 0 0 1 1 1 1 1 1 0 0 0 1 1 1 0 0 0 1 1 1 1 1 1 1 1 1 0 0 0 1 1 1 0 0 0 1 1 1 1 1 1 1 1 1 0 0 0 0 0 0 1 1 1 0 0 0 
69 50 36 74 55 40 75 15 14 78 10 11 71 5 6 70 37 28 70 59 41 61 54 38 65 51 38 67 53 40 77 29 25 76 16 16 74 13 12 73 7 8 72 24 20 74 56 44 72 38 29 74 6 7 74 8 9 73 5 6 72 6 7 72 8 8 73 7 9 71 7 8 8 8 6 7 7 7 68 7 6 71 7 5 71 7 7 71 5 6 73 13 12 71 43 31 71 53 39 70 27 21 68 10 9 66 6 6 70 6 6 73 35 26 74 62 46 73 66 50 73 64 49 69 42 33 64 8 9 68 10 9 70 9 8 69 14 11 72 50 37 70 46 34 75 11 12 75 9 10 71 7 7 73 7 8 73 9 9 72 6 7 73 7 8 74 8 9 72 8 9 63 9 9 61 10 9 64 8 9 68 8 8 71 7 7 70 9 6 69 32 24 70 52 38 72 38 29 46 6 6 0 0 2 1 1 1 1 1 1 0 0 0 2 2 2 0 0 0 0 0 0 0 0 0 1 1 1 2 2 2 1 1 1 1 1 1 1 1 1 0 0 0 1 1 1 1 1 1 0 0 0 0 0 0 1 1 1 1 1 1 1 1 1 0 0 0 1 1 1 0 0 0 1 1 1 0 0 0 1 1 1 1 1 1 2 2 2 0 0 0 1 1 1 1 1 1 0 0 0 
71 58 41 71 58 42 73 24 19 75 11 11 72 8 8 70 4 5 72 42 32 31 20 16 14 5 6 50 4 6 74 13 12 76 17 19 76 12 13 73 9 9 72 8 6 72 8 9 73 9 9 75 7 8 74 6 7 74 6 7 70 6 6 72 8 8 73 7 8 73 7 8 16 14 15 7 7 7 71 7 7 71 5 7 71 5 7 71 6 4 71 43 31 72 54 40 71 52 38 71 52 37 67 24 18 69 7 8 71 7 7 70 29 23 74 56 42 72 56 43 72 54 42 48 38 29 13 9 6 29 7 9 72 8 9 72 6 7 72 8 8 71 7 7 72 8 8 71 9 10 70 10 10 72 8 8 72 8 8 74 9 7 73 7 8 72 17 14 75 14 13 34 14 13 14 14 12 11 11 9 48 8 8 71 7 5 72 31 25 72 56 41 70 53 37 68 35 28 42 7 5 0 0 0 0 0 0 1 1 1 1 1 1 0 0 0 0 0 0 0 0 0 1 1 1 0 0 0 1 1 1 1 1 1 1 1 1 1 1 1 1 1 1 1 1 1 0 0 0 1 1 1 1 1 1 0 0 0 1 1 1 1 1 1 1 1 1 0 0 0 1 1 1 0 0 0 1 1 1 1 1 1 1 1 1 0 0 0 0 0 0 0 0 0 1 1 1 1 1 1 
69 56 40 70 57 40 73 60 44 74 16 14 72 8 6 73 5 4 75 5 5 74 6 5 72 6 7 73 7 8 73 12 11 75 15 15 74 13 12 72 8 8 72 6 7 73 8 6 73 9 9 77 9 10 74 9 7 72 7 5 71 5 6 73 7 9 72 8 8 72 12 11 74 58 43 15 14 12 71 5 6 73 5 6 72 4 5 71 5 6 71 43 32 72 56 41 72 56 43 71 52 37 70 21 16 70 6 6 72 8 6 73 7 8 74 8 9 73 7 8 70 9 8 52 8 9 28 9 5 72 7 5 70 6 6 71 7 7 71 7 8 69 7 8 72 6 7 71 7 7 71 9 10 70 10 10 72 6 7 74 8 9 73 15 13 72 50 39 72 65 49 72 60 44 38 28 26 20 11 12 50 8 9 72 8 9 71 31 23 72 56 41 70 54 38 47 34 25 1 1 1 1 1 1 1 1 1 1 1 1 1 1 1 0 0 0 2 2 2 0 0 0 0 0 0 0 0 0 1 1 1 1 1 1 1 1 1 0 0 0 2 2 2 1 1 1 0 0 0 1 1 1 0 0 0 1 1 1 0 0 0 1 1 1 0 0 0 1 1 1 0 0 0 1 1 1 0 0 0 1 1 1 0 0 0 0 0 0 2 2 2 1 1 1 1 1 1 0 0 0 
71 55 39 73 56 40 72 58 45 74 14 14 76 6 6 71 5 6 74 6 7 74 8 9 73 9 9 74 10 10 75 11 12 77 12 16 74 10 10 72 6 7 74 6 5 72 8 8 71 10 9 74 10 10 74 8 9 73 8 6 70 6 6 72 6 7 68 13 10 71 58 41 72 59 42 70 56 43 72 4 5 71 3 4 69 3 4 67 3 3 72 42 32 75 57 43 73 59 48 72 27 22 69 8 7 71 7 7 71 7 5 72 8 8 75 9 10 72 8 8 73 9 9 72 8 8 73 7 8 70 6 6 72 6 8 69 7 8 71 7 7 72 6 7 71 5 6 72 6 7 71 9 12 71 9 10 71 5 6 74 8 9 73 57 44 72 65 49 72 64 51 72 58 45 71 28 22 71 11 11 70 9 8 72 6 7 70 29 23 71 54 38 72 55 39 46 34 22 1 1 0 3 3 3 0 0 0 1 1 1 1 1 1 1 1 1 1 1 1 0 0 0 1 1 1 1 1 1 1 1 1 0 0 0 0 0 0 1 1 1 1 1 1 1 1 1 1 1 1 1 1 1 0 0 0 1 1 1 0 0 0 0 0 0 0 0 0 1 1 1 0 0 0 1 1 1 1 1 1 1 1 1 1 1 1 1 1 1 0 0 0 1 1 1 0 0 0 0 0 0 
70 57 41 71 5 6 71 10 9 69 7 8 74 6 5 72 4 3 70 4 5 71 9 10 75 11 11 77 13 13 77 13 13 75 11 11 72 6 7 73 5 4 73 5 4 72 28 19 73 68 49 75 69 55 76 53 45 72 8 6 73 8 6 72 6 7 73 13 12 72 60 44 70 60 48 73 57 41 71 55 39 70 11 7 71 3 4 66 4 5 69 5 5 72 4 5 73 7 8 71 10 9 70 9 6 71 7 7 72 6 7 74 9 7 73 7 8 73 9 9 74 8 10 72 8 8 72 6 8 71 5 6 71 5 6 70 6 6 73 15 14 70 57 40 67 55 39 72 61 43 74 61 45 71 7 5 73 9 9 74 10 10 74 56 44 73 64 49 73 63 51 74 62 48 73 29 26 72 12 12 72 11 10 70 6 6 70 6 6 71 5 6 45 3 4 0 0 2 2 0 1 0 1 0 0 0 0 2 2 2 1 1 1 1 1 1 1 1 1 0 0 0 0 0 0 1 1 1 1 1 1 1 1 1 1 1 1 1 1 1 0 0 0 1 1 1 1 1 1 1 1 1 1 1 1 0 0 0 1 1 1 1 1 1 0 0 0 0 0 0 1 1 1 0 0 0 1 1 1 1 1 1 0 0 0 1 1 1 1 1 1 1 1 1 1 1 1 0 0 0 
