P3
100 50
255
7 5 6 5 3 4 6 4 5 9 9 9 13 13 13 11 11 11 11 11 11 8 8 8 8 8 8 10 10 10 11 11 11 11 11 11 12 10 11 11 11 11 11 11 11 14 14 14 15 13 14 13 11 12 10 8 9 7 7 7 7 7 7 6 6 6 6 6 6 8 8 8 8 8 8 9 9 9 9 9 9 9 9 9 10 10 10 12 12 12 12 12 12 11 11 11 12 12 12 10 10 10 8 6 7 5 5 5 5 5 5 6 6 6 8 8 8 9 9 9 9 9 9 9 9 9 10 10 10 11 11 11 9 9 9 9 9 9 8 8 8 9 9 9 9 9 9 11 11 11 11 11 11 7 7 7 8 6 7 8 6 7 8 8 8 9 9 9 9 9 9 8 8 8 8 8 8 8 8 8 7 7 7 8 8 8 7 7 7 5 5 5 5 5 5 5 5 5 6 6 6 7 7 7 8 8 8 7 7 7 7 7 7 9 9 9 6 6 6 5 5 5 7 7 7 9 9 9 10 10 10 8 8 8 7 7 7 7 7 7 5 5 5 5 5 5 7 7 7 7 7 7 8 8 8 8 8 8 7 7 7 4 4 4 4 4 4 5 5 5 8 8 8 7 7 7 8 6 7 7 7 7 9 9 9 9 9 9 9 9 9 7 7 7 5 5 5 7 5 6 
6 6 6 6 6 6 6 4 5 7 7 7 6 6 6 7 7 7 11 11 11 9 9 9 8 8 8 11 11 11 12 12 12 12 12 12 13 13 13 13 13 13 12 12 12 11 11 11 11 11 11 12 12 12 8 8 8 8 8 8 7 7 7 4 4 4 5 5 5 8 8 8 8 8 8 9 9 9 9 9 9 9 9 9 10 10 10 10 10 10 10 10 10 8 8 8 6 6 6 6 6 6 6 6 6 6 6 6 7 7 7 7 7 7 7 7 7 7 7 7 8 8 8 9 9 9 11 11 11 12 12 12 11 11 11 10 10 10 12 12 12 16 16 16 14 14 14 18 18 18 17 17 17 15 15 15 15 15 15 15 15 15 36 36 36 42 42 42 43 43 43 42 42 42 42 40 41 42 40 41 42 42 42 41 41 41 41 41 41 40 40 40 39 39 39 40 38 39 41 41 41 41 39 40 39 39 39 41 41 41 49 49 49 52 52 52 50 50 50 50 50 50 53 53 53 54 54 54 55 55 55 53 53 53 81 81 81 87 87 87 86 86 86 86 86 86 87 87 87 88 88 88 88 88 88 87 87 87 106 106 106 108 108 108 108 108 108 109 109 109 110 110 110 109 109 109 109 109 109 110 110 110 118 118 118 121 121 121 121 121 121 121 121 121 120 120 120 119 119 119 
7 7 7 6 6 6 8 8 8 6 6 8 5 5 5 8 6 7 9 7 10 8 8 8 8 8 8 11 9 10 10 10 10 13 11 12 15 15 15 15 15 15 15 15 15 12 10 11 11 11 11 9 9 9 10 8 9 8 8 8 6 6 6 5 5 5 6 6 6 6 6 6 7 7 7 8 8 8 9 9 9 10 10 10 11 11 11 9 9 9 8 8 8 7 7 7 5 7 6 6 6 6 4 4 4 7 7 7 9 9 9 8 8 8 8 8 8 8 8 8 8 8 8 9 9 9 10 10 10 12 12 12 11 11 11 10 10 10 14 14 14 19 17 18 20 18 19 21 21 21 20 20 20 20 20 20 20 20 20 20 20 20 51 51 51 63 63 63 61 61 61 60 60 60 60 60 60 61 61 61 61 61 61 62 62 62 63 63 63 63 61 62 62 60 61 62 62 62 61 61 61 61 61 61 61 59 60 60 60 60 75 75 75 81 79 80 77 77 77 77 75 78 81 79 82 80 80 80 81 81 81 81 81 81 123 123 123 135 133 134 135 135 135 135 135 135 135 135 135 135 135 135 136 134 135 135 135 135 162 162 162 171 171 171 170 170 170 170 170 170 172 170 171 172 172 172 172 170 171 172 172 172 185 185 185 190 188 189 189 189 189 189 189 189 189 189 187 188 188 188 
7 7 7 8 8 6 9 9 7 8 8 8 7 7 7 7 7 7 8 8 8 9 7 8 9 7 8 11 10 8 9 9 9 13 12 10 16 16 16 17 17 17 14 14 14 14 12 13 11 11 11 10 10 10 9 7 8 7 7 7 5 5 5 6 6 6 6 6 6 7 7 7 9 9 9 10 10 10 10 10 10 10 10 10 11 11 11 10 10 10 9 9 9 8 8 8 8 8 8 6 6 6 6 6 6 7 7 7 8 8 8 8 8 8 9 9 9 8 8 8 8 8 8 9 9 9 10 10 10 11 11 11 12 10 11 10 10 10 15 15 15 18 18 18 19 19 19 19 19 19 19 19 19 21 19 20 21 21 21 22 22 22 52 52 52 64 64 64 63 63 63 62 62 62 61 61 61 60 60 60 60 60 60 63 63 63 66 64 65 63 63 63 62 62 62 62 62 62 62 62 62 63 63 63 61 61 61 60 60 60 76 76 76 81 81 81 79 79 79 77 77 77 79 79 77 78 78 76 79 79 81 81 81 81 123 123 123 136 136 136 137 137 137 137 135 136 135 135 135 136 134 135 135 135 137 134 134 134 163 163 163 171 171 171 171 171 171 171 171 171 172 172 172 172 172 172 171 171 171 171 171 171 186 186 186 189 189 189 189 189 187 188 188 188 189 189 191 190 190 190 
8 8 10 9 9 9 9 9 9 11 11 11 11 9 10 10 8 9 46 8 7 57 9 7 29 11 11 13 13 13 12 10 13 12 12 12 15 15 15 16 16 16 13 13 13 13 13 13 13 13 13 10 10 10 5 5 5 6 6 6 9 9 9 5 5 5 5 5 5 6 6 6 10 10 10 15 15 15 14 14 14 13 13 13 11 11 11 12 10 11 9 9 9 10 8 9 9 9 9 8 8 8 7 7 7 8 8 8 9 9 9 10 10 10 10 10 10 9 9 9 8 8 8 9 9 9 9 9 9 10 10 10 11 11 11 11 11 11 16 16 16 20 18 19 21 19 20 19 19 19 19 19 19 21 21 21 22 22 22 22 22 22 52 52 52 63 63 63 63 63 63 63 63 63 63 63 63 62 62 62 64 64 64 64 64 64 66 64 65 64 64 64 63 63 63 61 61 61 62 62 62 64 64 64 63 63 61 62 62 62 76 76 76 80 80 80 82 80 81 79 79 79 112 78 77 78 78 80 79 79 79 82 80 81 124 124 124 137 137 137 138 138 138 136 136 136 136 135 133 135 135 135 134 134 136 136 134 135 162 162 162 171 171 171 171 171 171 171 171 171 177 172 169 190 172 172 183 173 174 172 172 170 185 185 187 189 189 189 189 189 191 189 189 189 189 189 189 189 189 187 
8 8 8 8 8 8 9 9 9 9 9 11 11 9 10 8 8 8 18 6 6 23 9 8 13 9 8 11 11 11 15 13 14 13 11 12 14 14 14 15 15 15 15 15 15 15 15 15 13 13 13 10 10 10 6 6 6 7 7 7 9 9 9 7 7 7 5 5 5 6 6 6 9 9 9 13 13 13 14 14 14 12 12 12 10 10 10 9 9 9 10 8 9 9 9 9 10 8 9 8 8 8 9 7 8 7 7 7 8 8 8 9 9 9 10 10 10 10 10 10 10 10 10 9 9 9 8 8 8 8 8 8 11 11 11 12 12 12 19 19 19 20 20 20 20 20 20 19 19 19 19 19 19 20 20 20 22 22 22 22 22 22 52 52 52 63 63 63 63 63 63 63 63 63 63 63 63 64 64 64 63 63 63 62 62 62 63 63 63 64 62 63 63 61 62 62 62 62 63 63 63 64 64 64 64 63 61 62 62 64 76 76 74 80 80 82 80 80 80 79 79 77 119 79 79 79 79 77 112 78 79 85 81 80 125 125 125 138 137 135 137 135 136 135 135 135 136 136 136 136 136 136 134 136 133 135 135 135 162 162 162 171 171 171 171 171 171 172 170 171 174 173 171 177 173 174 178 172 172 182 172 173 185 185 185 190 190 188 190 190 190 189 191 190 189 189 189 189 189 189 
9 9 9 7 7 7 8 8 6 9 9 9 11 11 11 10 10 10 9 7 8 7 6 4 10 12 11 13 11 14 13 13 13 14 12 15 15 15 15 15 15 15 15 15 15 13 13 13 12 12 12 10 10 10 8 8 8 8 8 8 9 9 9 8 8 8 6 6 6 5 5 5 7 7 7 9 9 9 10 10 10 8 8 8 11 9 10 10 8 9 8 8 8 11 9 10 9 9 9 9 7 8 8 8 8 7 5 6 6 6 6 7 7 7 10 10 10 12 12 12 12 12 12 10 10 10 7 7 7 6 6 6 8 8 8 11 11 11 18 18 18 22 22 22 21 21 21 20 20 20 19 19 19 21 21 21 22 22 22 22 22 22 52 52 52 62 62 62 62 62 62 62 62 62 63 63 63 62 62 62 62 62 62 61 61 61 63 63 63 63 61 62 62 60 61 63 63 63 63 63 63 63 63 63 64 62 63 61 61 63 76 76 76 79 79 79 79 79 79 80 80 80 90 80 79 79 79 79 88 78 79 82 82 82 124 124 124 137 137 137 136 136 136 136 136 136 137 137 137 136 136 136 135 135 135 134 134 134 162 162 162 171 171 171 171 171 169 171 171 169 171 171 171 172 172 172 177 171 171 186 172 172 185 185 185 189 191 190 190 190 190 190 190 190 189 189 189 189 189 187 
9 9 11 8 8 8 8 8 8 10 10 10 13 13 11 12 12 12 8 8 8 11 10 8 11 11 11 14 12 13 13 13 13 14 14 14 16 16 16 13 13 13 13 13 13 12 12 12 12 12 12 10 10 10 8 8 8 7 7 7 9 9 9 8 8 8 5 5 5 4 4 4 8 8 8 8 8 8 6 6 6 8 8 8 13 11 12 11 11 11 9 7 8 10 10 10 11 11 11 12 10 11 8 8 8 8 6 7 8 8 8 8 8 8 9 9 9 13 13 13 15 15 15 12 12 12 7 7 7 5 5 5 7 7 7 9 9 9 18 18 18 22 22 22 22 22 22 22 22 22 21 21 21 21 21 21 22 22 22 21 21 21 52 52 52 62 62 62 62 62 62 62 62 62 62 62 62 62 62 62 62 62 62 62 62 62 63 61 62 63 63 63 62 62 62 62 62 62 62 62 62 62 62 62 63 63 61 62 62 64 76 76 76 79 79 79 80 80 80 80 80 80 79 79 79 80 80 80 80 80 78 82 82 82 124 124 124 138 136 137 136 137 139 136 136 138 137 137 137 137 137 135 135 135 135 134 134 134 161 161 161 171 171 171 172 170 171 171 171 171 171 171 171 172 172 172 172 172 172 174 173 169 186 186 188 190 190 190 189 189 189 189 189 189 189 189 189 190 190 190 
10 10 12 8 8 8 11 11 11 12 12 12 14 12 13 12 10 13 9 9 9 11 9 10 12 12 14 12 14 13 12 10 11 14 12 13 13 13 13 11 11 11 10 10 10 12 10 11 11 11 11 9 9 9 8 6 7 9 9 9 10 10 10 8 8 8 6 6 6 4 4 4 7 7 7 7 7 7 6 6 6 10 10 10 13 11 12 9 9 9 10 8 9 10 10 10 14 12 13 12 12 12 10 8 9 9 7 8 9 9 9 8 8 8 9 9 9 10 10 10 11 11 11 9 9 9 6 6 6 5 5 5 6 6 6 9 9 9 17 17 17 22 22 22 22 22 22 22 22 22 23 23 23 22 22 22 22 22 22 22 22 22 51 51 51 61 61 61 62 62 62 60 60 60 62 62 62 60 60 60 62 62 62 62 62 62 63 61 62 62 62 62 61 61 61 61 61 61 62 62 62 62 62 62 63 63 61 62 62 60 77 77 77 80 80 80 80 82 81 80 80 82 79 79 79 81 81 81 83 82 80 83 83 83 124 124 124 137 137 137 137 137 139 135 135 135 137 137 137 137 137 137 136 135 133 133 133 133 161 161 161 171 171 171 171 171 171 171 171 171 171 171 171 171 172 174 172 172 172 172 174 173 187 185 186 189 189 189 189 189 189 190 190 190 188 188 188 188 188 188 
121 121 121 121 121 121 123 123 123 123 123 123 122 122 120 122 122 122 57 57 57 18 18 16 19 19 19 20 18 19 18 18 20 18 18 18 18 18 18 17 17 17 11 11 11 9 7 8 8 8 8 6 6 6 8 6 7 9 9 9 9 9 9 9 9 9 6 6 6 6 6 6 7 7 7 8 8 8 9 9 9 10 10 10 9 9 9 7 5 6 7 7 7 11 9 10 11 9 10 10 10 10 10 8 9 8 8 8 8 8 8 9 9 9 9 9 9 8 8 8 7 7 7 6 6 6 5 5 5 6 6 6 7 7 7 7 7 7 34 34 34 50 50 50 50 50 50 50 50 50 51 51 51 50 50 50 51 51 51 50 50 50 142 142 142 167 167 167 167 167 167 168 168 168 167 167 167 167 167 167 168 168 168 168 168 168 173 173 173 175 173 174 174 172 173 173 173 173 173 173 173 173 173 173 174 174 174 173 173 173 185 185 187 191 189 190 190 190 190 189 189 189 189 189 189 190 190 190 191 189 190 191 191 191 204 204 204 210 210 210 210 210 210 210 210 210 210 210 210 211 211 209 210 210 208 210 210 208 218 218 218 223 223 223 223 223 223 223 223 223 223 225 224 224 224 224 224 224 224 224 224 224 229 229 229 230 230 230 230 230 230 230 230 230 230 230 230 230 230 230 
188 188 188 188 188 188 188 188 188 188 188 188 188 188 188 188 188 188 83 83 83 20 20 20 23 23 23 22 22 22 22 22 22 21 21 21 21 19 20 18 18 18 13 11 12 9 7 8 7 7 7 6 6 6 9 7 8 8 8 8 7 7 7 7 7 7 7 5 6 6 6 6 8 8 8 9 9 9 11 9 10 10 10 10 8 8 8 7 7 7 7 7 7 9 9 9 10 10 10 10 10 10 9 9 9 9 9 9 8 8 8 7 7 7 7 7 7 8 8 8 7 7 7 6 6 6 6 6 6 6 6 6 6 8 7 8 8 8 44 44 44 67 67 67 67 67 67 67 67 67 67 67 67 66 66 66 67 67 67 68 68 68 190 190 190 231 231 231 231 231 231 231 231 231 231 231 231 231 231 231 231 231 231 231 231 231 238 238 238 240 240 240 240 240 240 240 240 240 240 240 240 240 240 240 239 239 239 239 239 239 251 251 251 255 255 255 255 255 255 255 255 255 255 255 255 255 255 255 255 255 255 254 254 254 255 255 255 255 255 255 255 255 255 255 255 255 255 255 255 254 254 254 255 255 255 254 254 254 255 255 255 255 255 255 254 254 254 254 254 254 255 255 255 255 255 255 255 255 255 255 255 255 255 255 255 255 255 255 255 255 255 255 255 255 255 255 255 255 255 255 
188 188 188 188 188 188 188 188 188 188 188 188 188 188 188 188 188 188 84 84 84 21 21 21 22 22 22 21 21 21 22 22 22 21 21 21 21 19 22 18 18 18 13 11 14 9 9 9 10 10 12 9 7 8 7 7 5 7 5 6 6 6 6 7 5 6 5 5 5 6 6 6 7 7 7 10 8 9 8 8 8 9 9 9 9 9 9 7 7 7 8 8 8 8 8 8 9 9 9 9 9 9 9 9 9 9 9 9 8 8 8 7 7 7 7 7 7 8 8 8 8 8 8 7 7 7 6 6 6 7 7 7 7 7 7 9 7 8 44 44 44 67 67 67 67 67 67 68 66 67 67 67 67 68 68 68 67 67 67 68 68 68 190 190 190 231 231 231 231 231 231 231 231 231 231 231 231 231 231 231 231 231 231 231 231 231 238 238 238 240 240 240 240 240 240 241 241 241 240 240 240 240 240 240 240 240 240 239 239 239 251 251 251 255 255 255 255 255 255 255 255 255 255 255 255 255 255 255 255 255 255 255 255 255 255 255 255 255 255 255 255 255 255 255 255 255 255 255 255 254 254 254 255 255 255 255 255 255 255 255 255 255 255 255 255 255 255 255 255 255 255 255 255 255 255 255 255 255 255 255 255 255 255 255 255 255 255 255 255 255 255 255 255 255 255 255 255 255 255 255 
188 188 188 188 188 188 188 188 188 188 188 188 188 188 188 188 188 188 83 83 83 21 21 21 21 21 21 21 21 21 21 21 21 21 21 21 21 19 20 18 18 18 12 12 12 9 9 9 22 12 11 32 14 14 9 7 8 7 7 7 5 5 5 5 3 4 4 4 4 6 6 6 7 7 7 10 8 9 8 8 8 9 9 9 9 9 9 8 8 8 9 9 9 10 10 10 8 8 8 8 8 8 9 9 9 10 10 10 8 8 8 7 7 7 7 7 7 8 8 8 8 8 8 7 7 7 7 7 7 7 7 7 8 6 7 6 6 6 44 44 44 68 66 67 67 67 67 67 67 67 66 66 66 65 67 66 67 67 67 66 66 66 190 190 190 231 231 231 231 231 231 231 231 231 231 231 231 231 231 231 231 231 231 231 231 231 238 238 238 240 240 240 240 240 240 240 240 240 240 240 240 240 240 240 240 240 240 239 239 239 251 251 251 255 255 255 255 255 255 255 255 255 255 255 255 255 255 255 255 255 255 255 255 255 255 255 255 255 255 255 255 255 255 255 255 255 255 255 255 255 255 255 255 255 255 255 255 255 255 255 255 255 255 255 255 255 255 255 255 255 255 255 255 255 255 255 255 255 255 255 255 255 255 255 255 255 255 255 255 255 255 255 255 255 255 255 255 254 254 254 
188 188 188 188 188 188 188 188 188 188 188 188 188 188 188 189 189 189 83 83 83 20 20 20 20 20 20 20 20 20 20 20 20 19 19 19 19 19 19 18 18 16 12 12 12 20 10 9 48 13 11 51 13 12 11 9 10 7 7 7 6 6 6 6 4 5 7 5 6 5 5 5 7 7 7 8 8 8 9 9 9 8 8 8 9 9 9 8 8 8 9 9 9 8 8 8 7 7 7 7 7 7 9 9 9 11 11 11 8 8 8 6 6 6 7 7 7 8 8 8 8 8 8 8 8 8 6 6 6 7 7 7 9 7 8 7 7 7 43 43 43 65 65 65 66 64 65 66 66 66 65 65 65 66 64 65 67 67 67 66 66 66 190 190 190 231 231 231 232 232 232 231 231 231 231 231 231 231 231 231 231 231 231 231 231 231 238 238 238 240 240 240 240 240 240 241 239 240 241 239 240 244 240 241 240 240 240 240 240 240 251 251 251 255 255 255 255 255 255 254 254 254 254 254 254 255 255 255 255 255 255 255 255 255 255 255 255 254 254 254 255 255 255 255 255 255 255 255 255 255 255 255 255 255 255 255 255 255 254 254 254 255 255 255 255 255 255 255 255 255 255 255 255 254 254 254 255 255 255 255 255 255 255 255 255 255 255 255 255 255 255 255 255 255 255 255 255 255 255 255 
188 188 188 188 188 188 188 188 188 188 188 188 188 188 188 188 188 188 83 83 83 20 20 20 19 19 19 20 20 20 19 19 19 19 19 19 20 18 19 18 18 18 12 12 12 24 10 10 43 11 12 37 11 10 10 10 10 9 8 6 7 7 7 7 7 7 9 7 8 4 4 4 8 8 8 8 8 8 8 6 7 8 8 8 8 8 8 9 9 9 10 10 10 9 9 9 8 8 8 7 7 7 7 7 7 9 9 9 8 8 8 5 5 5 5 5 5 7 7 7 9 9 9 8 8 8 5 5 5 6 6 6 9 9 9 6 6 6 42 42 42 65 63 64 64 64 64 65 65 65 64 64 64 65 65 65 66 66 66 64 64 64 189 189 189 231 231 231 231 231 231 231 231 231 231 231 231 231 231 231 231 231 231 231 231 231 238 238 238 240 240 240 240 240 240 241 239 240 241 239 240 243 239 240 240 240 240 240 240 240 251 251 251 255 255 255 255 255 255 255 255 255 255 255 255 255 255 255 254 254 254 255 255 255 255 255 255 255 255 255 255 255 255 255 255 255 255 255 255 255 255 255 255 255 255 254 254 254 255 255 255 255 255 255 255 255 255 255 255 255 255 255 255 255 255 255 255 255 255 255 255 255 255 255 255 255 255 255 255 255 255 255 255 255 255 255 255 255 255 255 
188 188 188 188 188 188 188 188 188 187 187 187 188 188 188 189 189 189 83 83 83 19 19 19 18 18 18 19 19 19 19 19 19 19 19 19 19 18 16 19 19 17 14 12 13 10 10 8 12 11 9 11 12 14 11 11 11 8 8 8 6 6 6 9 9 9 8 8 8 6 6 6 8 8 8 9 7 8 7 5 6 7 7 7 8 8 8 10 10 10 10 10 10 9 9 9 9 9 9 7 7 7 7 7 7 7 7 7 7 7 7 6 6 6 6 6 6 8 8 8 10 10 10 9 9 9 7 7 7 6 6 6 6 6 6 6 6 6 42 42 42 64 64 64 64 64 64 64 64 64 64 64 64 66 64 65 66 66 66 65 65 65 189 189 189 231 231 231 231 231 231 231 231 231 231 231 231 231 231 231 230 230 230 231 231 231 238 238 238 241 241 241 240 240 240 239 239 239 240 240 240 240 240 240 240 240 240 240 240 240 251 251 251 255 255 255 254 254 254 255 255 255 255 255 255 255 255 255 255 255 255 255 255 255 255 255 255 255 255 255 255 255 255 255 255 255 255 255 255 255 255 255 255 255 255 255 255 255 255 255 255 254 254 254 255 255 255 255 255 255 255 255 255 255 255 255 255 255 255 255 255 255 255 255 255 255 255 255 255 255 255 255 255 255 255 255 255 255 255 255 
188 188 188 187 187 187 187 187 187 187 187 187 188 188 188 188 188 188 83 83 83 18 18 18 19 19 19 19 19 19 20 20 20 19 19 19 18 18 18 20 18 19 12 14 11 10 8 9 13 11 12 13 12 10 9 11 8 9 9 9 7 7 7 7 7 7 8 8 8 9 9 9 8 8 8 7 5 6 7 5 6 6 6 6 7 7 7 10 10 10 8 8 8 9 9 9 9 9 9 8 8 8 7 7 7 7 7 7 6 6 6 6 6 6 8 8 8 9 9 9 10 10 10 10 10 10 9 9 9 7 7 7 7 7 7 6 6 6 42 42 42 64 64 64 63 63 63 64 64 64 64 64 64 65 65 65 65 65 65 66 66 66 189 189 189 231 231 231 231 231 231 231 231 231 231 231 231 231 231 231 231 231 231 231 231 231 238 238 238 240 240 240 239 239 239 239 239 239 240 240 240 240 240 240 240 240 240 240 240 240 251 251 251 255 255 255 255 255 255 255 255 255 255 255 255 255 255 255 255 255 255 255 255 255 255 255 255 255 255 255 255 255 255 255 255 255 255 255 255 255 255 255 255 255 255 255 255 255 255 255 255 255 255 255 255 255 255 255 255 255 255 255 255 255 255 255 255 255 255 254 254 254 255 255 255 255 255 255 255 255 255 255 255 255 255 255 255 255 255 255 
127 127 127 126 126 126 126 126 126 126 126 126 127 127 127 127 127 127 56 56 56 15 15 15 14 14 14 14 14 14 14 14 14 15 15 15 15 15 15 15 15 15 11 10 8 8 8 8 10 10 8 12 12 12 10 10 10 8 6 7 7 7 7 7 5 6 9 7 8 9 9 9 9 9 9 6 6 6 6 6 6 7 7 7 9 9 9 11 11 11 10 10 10 9 9 9 9 9 9 7 7 7 7 7 7 7 7 7 6 6 6 6 6 6 7 7 7 10 10 10 11 11 11 10 10 10 9 9 9 8 8 8 8 8 8 8 6 7 21 21 21 29 29 29 28 28 28 29 27 28 29 29 29 29 29 29 29 29 29 31 31 31 76 76 76 99 99 99 99 99 99 100 100 100 100 100 100 101 101 101 101 101 101 100 100 100 104 104 104 107 107 107 106 106 106 106 106 106 107 107 107 105 105 105 106 106 106 107 107 107 131 131 131 137 137 137 137 137 137 136 136 136 137 137 137 137 137 137 137 137 137 136 136 136 172 172 172 181 181 181 182 182 182 182 182 182 182 182 182 182 182 182 182 182 182 182 182 182 200 200 200 205 205 205 205 205 205 204 204 204 205 205 205 205 205 205 205 205 205 205 205 205 208 208 208 212 212 212 212 212 212 212 212 212 213 213 213 212 212 212 
91 91 91 90 90 90 89 89 89 90 90 90 90 90 90 92 90 91 42 42 42 13 13 13 13 13 13 13 13 13 12 10 11 13 13 13 15 15 15 14 14 14 9 9 9 7 7 7 9 9 9 12 12 12 10 10 10 8 8 8 8 8 8 7 7 7 9 7 8 9 9 9 8 6 7 7 7 7 8 8 8 8 8 8 10 10 10 11 11 11 10 10 10 9 9 9 7 7 7 7 7 7 7 7 7 6 6 6 6 6 6 6 6 6 8 8 8 10 10 10 11 11 11 10 10 10 10 10 10 8 8 8 9 9 9 7 7 7 9 7 8 11 9 10 7 7 7 7 7 7 8 8 8 9 7 8 9 9 9 9 9 9 18 18 18 19 19 19 20 20 20 20 20 20 21 21 21 22 22 22 22 22 22 21 21 21 24 24 24 25 25 25 26 26 26 27 27 27 25 25 25 25 25 25 25 25 25 27 27 27 56 56 56 65 65 65 65 65 65 64 64 64 64 64 64 66 66 66 66 66 66 65 65 65 119 119 119 137 135 136 138 138 138 137 137 137 136 136 136 138 136 137 137 137 137 137 137 137 165 165 165 175 175 175 175 175 175 176 176 176 175 175 175 175 175 175 175 175 175 175 175 175 184 184 184 185 185 185 185 185 185 185 185 185 185 185 185 185 185 185 
90 90 90 90 90 90 89 89 89 89 89 89 90 90 90 90 90 90 42 42 42 14 14 14 14 14 14 14 14 14 13 13 13 15 15 15 16 16 16 14 14 14 9 9 9 7 7 7 9 9 9 10 10 10 10 10 10 11 11 11 10 10 10 9 9 9 8 8 8 7 7 7 7 7 7 8 8 8 7 7 7 9 9 9 12 12 12 11 11 11 9 9 9 9 9 9 6 6 6 7 7 7 7 7 7 6 6 6 6 6 6 6 6 6 7 7 7 8 8 8 10 10 10 10 10 10 10 10 10 10 10 10 8 8 8 9 9 9 11 9 10 12 12 12 9 9 9 8 8 8 9 9 9 9 9 9 10 10 10 8 8 8 19 19 19 22 22 22 20 20 20 21 21 21 22 22 22 22 22 22 21 21 21 22 22 22 25 25 25 25 25 25 25 25 25 27 27 27 26 26 26 25 25 25 26 26 26 26 26 26 55 55 55 66 66 66 66 66 66 65 65 65 65 65 65 66 66 66 65 65 65 68 68 68 120 120 120 137 137 137 137 137 137 137 137 137 136 136 136 136 136 136 137 137 137 138 138 138 167 167 167 176 176 176 175 175 175 175 175 175 175 175 175 175 175 175 175 175 175 174 174 174 183 183 183 186 186 186 184 184 184 184 184 184 184 184 184 185 185 185 
90 90 90 90 90 90 90 90 90 90 90 90 90 90 90 91 91 91 41 41 41 14 12 13 16 14 15 16 16 16 17 17 17 16 16 16 16 16 16 13 13 13 9 9 9 7 7 7 8 8 8 9 9 9 11 11 11 11 11 11 12 12 12 11 9 10 7 7 7 8 8 8 8 8 8 8 8 8 8 8 8 10 10 10 11 11 11 10 10 10 9 9 9 8 8 8 6 6 6 6 6 6 6 6 6 5 5 5 6 6 6 6 6 6 6 6 6 7 7 7 8 8 8 10 10 10 11 11 11 10 10 10 10 10 10 8 8 8 10 10 10 10 10 10 10 10 10 9 9 9 8 8 8 9 9 9 10 10 10 9 9 9 19 19 19 22 22 22 22 22 22 22 22 22 21 21 21 21 21 21 21 21 21 21 21 21 23 23 23 24 24 24 24 24 24 25 25 25 26 26 26 27 27 27 27 27 27 27 27 27 56 56 56 65 65 65 65 65 65 65 65 65 66 66 66 66 66 66 66 66 66 68 68 68 120 120 120 137 137 137 137 137 137 136 136 136 136 136 136 136 136 136 135 135 135 137 137 137 166 166 166 177 177 177 175 175 175 174 174 174 175 175 175 175 175 175 175 175 175 175 175 175 181 181 181 184 184 184 184 184 184 184 184 184 184 184 184 185 185 185 
91 91 91 92 92 92 91 91 91 91 91 91 91 91 91 91 91 91 42 42 42 12 12 12 14 14 14 19 19 19 18 18 18 17 17 17 15 15 15 12 12 12 9 9 9 7 7 7 6 6 6 7 7 7 10 10 10 11 11 11 11 11 11 9 7 8 8 8 8 10 10 10 11 9 10 9 9 9 9 9 9 9 9 9 9 9 9 10 8 9 8 8 8 8 8 8 7 5 6 7 5 6 6 6 6 7 5 6 6 6 6 7 7 7 6 6 6 6 6 6 10 10 10 10 10 10 9 9 9 9 9 9 10 10 10 10 10 10 9 9 9 8 8 8 9 9 9 8 8 8 8 8 8 9 9 9 9 9 9 9 9 9 18 18 18 21 21 21 22 22 22 21 21 21 20 20 20 21 21 21 19 19 19 19 19 19 22 22 22 24 24 24 25 25 25 26 26 26 26 26 26 26 26 26 27 27 27 27 27 27 56 56 56 64 64 64 65 65 65 64 64 64 65 65 65 66 66 66 66 66 66 68 66 67 120 120 120 137 137 137 137 137 137 141 137 138 137 135 136 135 137 136 136 136 136 137 137 137 166 166 166 175 175 175 175 175 175 175 175 175 175 175 175 175 175 175 175 175 175 175 175 175 182 182 182 184 184 184 184 184 184 185 185 185 184 184 184 185 185 185 
91 91 91 92 92 92 91 91 91 91 91 91 92 92 92 92 92 92 42 42 42 11 11 11 12 12 12 15 15 15 17 17 17 17 17 17 13 13 13 12 12 12 10 10 10 7 7 7 6 6 6 6 6 6 9 9 9 10 10 10 9 9 9 8 8 8 10 8 9 9 9 9 9 9 9 10 10 10 10 10 10 9 9 9 9 9 9 8 8 8 9 9 9 9 9 9 6 6 6 4 4 4 5 5 5 6 6 6 6 6 6 7 7 7 7 7 7 7 7 7 10 10 10 10 10 10 9 9 9 8 8 8 10 10 10 11 11 11 8 8 8 7 7 7 8 8 8 8 8 8 10 10 10 9 9 9 9 9 9 8 8 8 17 17 17 21 21 21 21 21 21 20 20 20 20 20 20 21 21 21 20 20 20 18 18 18 23 23 23 24 24 24 24 24 24 26 26 26 26 26 26 26 26 26 27 27 27 28 28 28 57 57 57 66 66 66 62 62 62 63 63 63 63 63 63 66 66 66 66 66 66 66 66 66 119 119 119 137 137 137 137 137 137 136 136 136 135 135 135 136 136 136 136 136 136 137 137 137 166 166 166 175 175 175 174 174 174 175 175 175 175 175 175 175 175 175 175 175 175 175 175 175 182 182 182 184 184 184 185 185 185 185 185 185 185 185 185 185 185 185 
92 92 92 91 91 91 91 91 91 91 91 91 93 93 93 94 94 94 44 42 43 12 12 12 12 12 12 15 13 14 17 17 17 16 16 16 13 13 13 11 11 11 8 8 8 6 6 6 6 6 6 8 8 8 11 11 11 12 12 12 9 9 9 7 7 7 9 7 8 6 6 6 9 7 8 11 11 11 9 9 9 9 9 9 9 7 8 7 9 8 9 9 9 10 8 9 5 5 5 5 5 5 6 4 5 6 6 6 6 6 6 7 7 7 7 7 7 7 7 7 10 10 10 11 11 11 10 10 10 8 8 8 12 12 12 12 12 12 8 8 8 6 6 6 7 7 7 9 9 9 9 9 9 9 9 9 8 8 8 8 8 8 17 17 17 20 20 20 20 20 20 19 19 19 20 20 20 22 22 22 21 21 21 19 19 19 23 23 23 25 25 25 27 27 27 27 27 27 26 26 26 27 27 27 27 27 27 30 30 30 58 58 58 67 67 67 63 63 63 62 62 62 63 63 63 65 65 65 66 66 66 66 66 66 118 118 118 137 137 137 137 137 137 137 137 137 136 136 136 136 136 136 137 137 137 137 137 137 166 166 166 176 176 176 175 175 175 175 175 175 175 175 175 175 175 175 175 175 175 175 175 175 182 182 182 185 185 185 186 186 186 184 184 184 185 185 185 184 184 184 
92 92 92 91 91 91 91 91 91 92 92 92 93 93 93 93 93 93 43 43 43 11 11 11 13 13 13 16 16 16 16 16 16 15 15 15 13 13 13 12 12 12 8 8 8 6 6 6 6 6 6 10 10 10 11 11 11 9 9 9 8 8 8 8 6 7 6 6 6 7 7 7 9 7 8 9 9 9 9 9 9 9 9 9 9 9 9 8 8 8 9 9 9 8 8 8 7 7 7 4 4 4 5 5 5 6 6 6 7 7 7 7 7 7 7 7 7 7 7 7 11 11 11 12 12 12 11 11 11 9 9 9 10 10 10 10 10 10 7 7 7 6 6 6 7 7 7 9 7 8 11 11 11 10 10 10 8 8 8 7 7 7 17 17 17 20 20 20 20 20 20 20 20 20 21 21 21 22 22 22 21 21 21 20 20 20 23 23 23 25 25 25 27 27 27 26 26 26 25 25 25 26 26 26 27 27 27 29 29 29 58 58 58 65 65 65 62 62 62 61 61 61 64 64 64 66 66 66 66 66 66 66 66 66 120 120 120 137 135 136 137 137 137 137 137 137 137 137 137 137 135 136 137 137 137 137 137 137 166 166 166 176 176 176 176 176 176 175 175 175 176 176 176 175 175 175 175 175 175 175 175 175 182 182 182 185 185 185 185 185 185 184 184 184 184 184 184 184 184 184 
29 29 29 29 29 29 28 28 28 29 29 29 31 29 30 31 31 31 16 16 16 11 11 11 13 13 13 13 13 13 11 11 11 12 10 11 11 11 11 11 11 11 8 8 8 6 6 6 7 7 7 9 9 9 10 10 10 9 9 9 8 8 8 7 7 7 4 4 4 7 7 7 7 7 7 9 9 9 9 9 9 10 10 10 9 9 9 7 7 7 7 7 7 6 6 6 5 5 5 5 5 5 6 6 6 6 6 6 8 8 8 8 8 8 8 8 8 8 8 8 11 11 11 13 13 13 13 13 13 11 11 11 7 5 6 5 5 5 5 5 5 6 6 6 9 7 8 9 7 8 10 10 10 11 11 11 10 10 10 7 7 7 6 6 6 9 9 9 11 11 11 11 11 11 13 13 13 13 13 13 10 10 10 9 9 9 12 12 12 12 12 12 13 13 13 12 12 12 13 13 13 14 14 14 15 15 15 16 16 16 22 22 22 23 23 23 19 19 19 18 18 18 20 20 20 21 21 21 23 23 23 24 24 24 38 38 38 40 40 40 38 38 38 38 38 38 40 40 40 39 39 39 40 40 40 39 39 39 47 47 47 51 51 51 50 50 50 51 51 51 51 51 51 50 50 50 49 49 49 48 48 48 50 50 50 51 51 51 51 51 51 51 51 51 50 50 50 51 51 51 
8 8 8 7 7 7 7 7 7 9 9 9 10 10 10 13 13 13 14 12 13 13 11 12 11 11 11 9 9 9 8 8 8 11 11 11 12 10 11 8 10 7 9 7 8 7 7 7 10 8 9 10 10 8 9 10 12 12 12 12 10 10 10 8 6 7 5 5 5 7 7 7 8 8 8 7 7 7 10 10 10 11 11 11 11 11 11 9 9 9 8 8 8 6 6 6 5 5 5 6 6 6 8 8 8 8 8 8 8 8 8 9 9 9 9 9 9 9 9 9 11 11 11 13 13 13 12 12 12 9 9 9 5 5 5 6 4 5 5 3 4 6 6 6 7 7 7 9 7 8 9 7 8 12 12 12 10 10 10 8 8 8 5 5 5 6 6 6 9 9 9 10 10 10 10 8 9 12 10 11 8 8 8 7 7 7 7 7 7 8 8 8 8 8 8 7 7 7 8 8 8 9 9 9 11 11 11 11 11 11 11 11 11 12 12 12 9 9 9 7 7 7 7 7 7 9 9 9 11 11 11 11 11 11 9 9 9 8 8 8 6 6 6 5 5 5 7 7 7 8 8 8 8 8 8 8 8 8 7 7 7 9 9 9 9 9 9 8 8 8 9 9 9 7 7 7 7 7 7 7 7 7 6 6 6 5 5 5 7 7 7 8 8 8 6 6 6 7 7 7 
8 8 8 7 7 7 8 8 8 9 9 9 9 9 9 11 11 11 13 13 13 11 11 11 12 10 11 11 9 10 10 10 10 10 10 10 10 10 12 9 9 9 8 8 8 8 7 5 9 7 10 10 10 10 14 10 11 12 12 12 14 12 13 9 9 9 8 8 8 9 7 8 8 8 8 7 7 7 9 9 9 10 10 10 10 10 10 8 8 8 8 8 8 6 6 6 6 6 6 7 7 7 8 8 8 8 8 8 9 9 9 8 8 8 9 9 9 9 9 9 9 9 9 13 13 13 11 11 11 9 9 9 8 8 8 7 5 6 7 5 6 8 8 8 8 8 8 9 7 8 12 10 11 12 12 12 11 9 10 9 7 8 6 6 6 7 7 7 9 9 9 11 11 11 11 11 11 11 11 11 10 10 10 9 9 9 8 8 8 7 7 7 7 7 7 8 8 8 9 9 9 10 10 10 12 12 12 12 12 12 12 12 12 14 14 14 11 11 11 11 9 10 10 10 10 10 10 10 9 9 9 10 10 10 10 10 10 8 8 8 7 7 7 7 7 7 8 8 8 8 8 8 8 6 7 7 7 7 8 8 8 9 7 8 8 8 8 8 8 8 7 7 7 6 6 6 7 7 7 9 9 9 7 7 7 6 6 6 7 7 7 8 8 8 7 7 7 8 8 8 
9 7 8 7 7 7 7 7 7 8 8 8 8 8 8 10 10 10 11 11 11 11 11 11 11 11 11 10 10 10 9 9 9 9 9 9 10 10 10 9 9 9 7 5 6 7 7 7 9 7 8 9 9 9 10 10 10 12 12 10 13 13 13 12 12 12 11 11 11 10 10 10 9 9 9 8 8 8 9 9 9 9 9 9 9 9 9 7 7 7 8 8 8 7 7 7 8 8 8 8 8 8 8 8 8 9 9 9 10 10 10 10 10 10 8 8 8 9 9 9 9 9 9 9 9 9 11 11 11 10 10 10 8 8 8 9 7 8 9 7 8 9 9 9 8 8 8 12 10 11 14 12 13 11 11 11 9 9 9 8 8 8 7 7 7 8 8 8 9 9 9 10 10 10 10 10 10 10 10 10 10 10 10 7 7 7 6 6 6 8 8 8 8 8 8 8 8 8 9 9 9 11 11 11 11 11 11 12 10 11 11 11 11 13 11 12 11 11 11 9 9 9 11 11 11 10 10 10 9 9 9 9 9 9 9 9 9 9 9 9 8 8 8 6 6 6 7 7 7 8 8 8 7 7 7 8 8 8 9 7 8 8 6 7 9 9 9 8 8 8 6 6 6 5 5 5 5 5 5 9 9 9 11 11 11 9 9 9 6 6 6 8 8 8 7 7 7 8 8 8 
9 9 9 8 8 8 9 7 8 6 6 6 7 7 7 9 9 9 10 10 10 10 10 10 9 9 9 8 8 8 9 9 9 8 8 8 9 7 8 9 7 8 8 6 7 8 8 8 8 8 6 10 8 9 10 10 10 9 9 7 10 10 10 13 11 12 11 11 11 9 9 9 9 9 9 9 7 8 9 9 9 10 10 10 9 9 9 7 7 7 8 8 8 8 8 8 8 8 8 8 8 8 8 8 8 10 10 10 10 10 10 10 10 10 10 10 10 11 9 10 10 8 9 6 6 6 7 7 7 10 10 10 10 10 10 12 10 11 12 10 11 10 10 10 8 8 8 8 6 7 10 8 9 7 7 7 7 7 7 9 9 9 10 10 10 8 8 8 8 8 8 9 9 9 10 8 9 11 9 10 8 8 8 6 6 6 6 6 6 7 7 7 7 7 7 8 8 8 9 9 9 10 10 10 10 10 10 10 10 10 8 8 8 9 9 9 9 9 9 9 9 9 8 8 8 10 10 10 9 9 9 9 9 9 11 11 11 10 10 10 8 8 8 7 7 7 6 6 6 6 6 6 6 4 5 6 6 6 7 7 7 8 8 8 8 8 8 7 7 7 6 6 6 4 4 4 5 5 5 11 11 11 12 12 12 9 9 9 5 5 5 5 5 5 6 6 6 7 7 7 
11 9 10 9 9 9 8 8 8 8 8 8 9 9 9 9 9 9 10 10 10 10 10 10 9 9 9 9 9 9 9 9 9 8 8 8 6 6 6 6 6 6 6 6 6 8 8 8 23 9 8 39 8 6 8 8 8 7 7 7 9 9 9 10 10 10 10 10 10 9 7 8 10 10 10 9 9 9 8 8 8 12 12 12 10 10 10 9 9 9 9 9 9 9 9 9 8 8 8 9 9 9 9 9 9 10 10 10 12 10 11 11 11 11 10 10 10 11 11 11 9 9 9 8 8 8 8 8 8 9 7 8 10 10 10 11 9 10 13 11 12 10 10 10 9 9 9 8 6 7 6 4 5 5 5 5 6 6 6 8 8 8 8 8 8 8 8 8 8 8 8 9 9 9 9 9 9 8 8 8 7 7 7 6 6 6 5 5 5 6 6 6 6 6 6 7 7 7 9 9 9 9 9 9 8 8 8 8 8 8 8 8 8 7 7 7 8 8 8 8 8 8 7 7 7 7 7 7 8 8 8 9 9 9 12 12 12 11 11 11 7 7 7 6 6 6 5 5 5 5 5 5 6 6 6 7 7 7 8 8 8 8 8 8 7 7 7 8 8 8 7 7 7 7 5 6 7 7 7 11 11 11 10 10 10 7 7 7 3 3 3 6 6 6 8 8 8 4 4 4 
12 12 12 10 10 10 9 7 8 9 9 9 8 8 8 8 8 8 10 10 10 10 10 10 10 10 10 9 9 9 8 8 8 9 9 9 10 6 7 5 5 5 5 5 5 7 7 7 15 9 9 18 8 7 7 7 7 6 6 6 6 6 6 9 9 9 8 8 8 8 8 8 11 11 11 9 9 9 8 8 8 10 10 10 9 9 9 9 9 9 9 9 9 10 10 10 8 8 8 9 9 9 10 10 10 11 11 11 12 12 12 11 11 11 11 11 11 10 10 10 8 8 8 9 9 9 9 9 9 8 8 8 8 8 8 10 8 9 10 8 9 8 8 8 9 9 9 9 7 8 6 4 5 4 4 4 6 6 6 8 8 8 7 7 7 9 9 9 8 8 8 8 8 8 8 8 8 8 8 8 6 6 6 6 6 6 6 6 6 5 5 5 5 5 5 8 8 8 8 8 8 9 9 9 9 9 9 9 7 8 8 8 8 9 7 8 7 7 7 8 8 8 7 7 7 6 6 6 8 8 8 10 10 10 12 12 12 10 10 10 8 8 8 7 7 7 5 5 5 5 5 5 6 6 6 8 8 8 8 8 8 8 8 8 8 6 7 10 8 9 8 8 8 7 7 7 7 7 7 10 10 10 9 9 9 6 6 6 4 4 4 6 6 6 7 7 7 5 5 5 
11 11 11 9 9 9 9 9 9 9 9 9 7 9 8 8 8 8 10 10 10 8 8 8 9 9 9 9 9 9 9 9 9 9 7 8 7 7 5 6 4 5 4 4 4 7 5 6 8 8 8 8 6 9 8 6 7 6 7 2 7 7 7 8 8 8 8 8 8 7 7 7 9 9 9 10 8 9 10 8 9 9 9 9 9 9 9 8 8 8 9 9 9 10 10 10 7 7 7 7 7 7 9 9 9 11 11 11 13 13 13 11 11 11 10 10 10 9 9 9 8 8 8 8 8 8 9 9 9 8 8 8 8 8 8 9 7 8 8 6 7 6 6 6 6 6 6 7 5 6 7 5 6 6 6 6 5 5 5 7 7 7 7 7 7 7 7 7 8 8 8 8 8 8 9 9 9 9 9 9 9 9 9 7 7 7 6 6 6 5 5 5 5 5 5 7 7 7 8 8 8 7 7 7 8 8 8 9 9 9 9 9 9 7 7 7 6 6 6 8 6 7 6 6 6 7 7 7 8 8 8 10 10 10 11 11 11 7 7 7 7 7 7 7 7 7 6 6 6 5 5 5 7 7 7 9 9 9 9 9 9 8 8 8 10 8 9 8 8 8 8 8 8 10 8 9 8 8 8 8 8 8 8 8 8 7 7 7 6 6 6 7 7 7 8 8 8 5 5 5 
15 15 15 15 15 15 15 15 15 17 17 17 16 14 15 15 15 15 11 11 11 9 9 9 9 9 9 8 8 8 8 8 8 8 8 8 7 7 9 5 5 5 4 2 3 6 4 5 8 6 7 9 8 6 8 8 6 8 8 8 8 8 8 8 8 8 8 8 8 7 7 7 7 7 7 7 7 7 9 9 9 9 7 8 8 8 8 9 9 9 11 11 11 12 12 12 7 7 7 5 5 5 8 8 8 9 9 9 10 10 10 9 9 9 10 10 10 10 10 10 8 8 8 9 9 9 9 9 9 8 8 8 6 6 6 7 5 6 11 9 10 12 12 12 11 11 11 13 11 12 14 12 13 13 13 13 14 14 14 14 14 14 20 20 20 20 20 20 22 22 22 22 22 22 23 23 23 24 24 24 23 23 23 22 22 22 42 42 42 48 48 48 48 48 48 50 50 50 51 51 51 52 52 52 51 51 51 51 51 51 83 83 83 92 92 92 91 91 91 92 92 92 91 91 91 93 93 93 94 94 94 94 94 94 113 113 113 120 120 120 119 119 119 119 119 119 119 119 119 120 120 120 119 119 119 119 119 119 124 124 124 126 126 126 128 128 128 127 127 127 126 126 126 127 127 127 126 126 126 126 126 126 129 129 129 129 129 129 129 129 129 129 129 129 129 129 129 128 128 128 
18 18 18 20 18 19 18 18 18 18 18 18 18 16 17 16 16 16 11 11 11 10 10 10 10 10 10 9 9 9 8 8 8 9 7 8 7 7 7 6 6 6 5 5 5 6 6 6 7 7 7 7 7 7 9 9 9 10 10 10 9 9 9 7 7 7 6 6 6 7 5 6 8 6 7 8 8 8 10 8 9 10 10 10 8 8 8 10 10 10 11 11 11 11 9 10 10 8 9 8 6 7 8 8 8 10 10 10 9 9 9 9 9 9 11 11 11 10 10 10 9 9 9 10 10 10 11 11 11 9 9 9 7 7 7 5 5 5 12 12 12 15 15 15 13 13 13 14 14 14 17 17 17 18 18 18 18 18 18 19 19 19 24 24 24 26 26 26 25 25 25 25 25 25 27 27 27 30 30 30 29 27 28 26 26 26 54 54 54 62 62 62 64 64 64 65 65 65 67 67 67 66 66 66 65 65 63 63 65 64 106 106 106 120 120 120 120 120 120 120 120 118 121 121 121 122 120 121 122 122 122 121 121 121 147 147 147 157 157 157 156 156 156 156 156 156 155 155 155 156 156 156 157 157 157 156 156 156 163 163 163 166 166 166 166 166 166 166 166 166 165 165 165 165 165 165 166 166 166 165 165 165 169 169 169 170 170 170 168 168 168 168 168 168 169 169 169 168 168 168 
19 19 19 20 20 20 18 18 18 19 19 19 17 17 17 15 15 15 12 12 12 10 10 10 10 10 10 8 8 8 7 7 7 7 7 7 7 7 7 5 5 5 6 6 6 7 7 7 7 7 7 7 7 7 9 9 9 10 10 10 10 8 9 6 6 6 6 6 6 6 6 6 7 7 5 10 8 9 8 8 8 7 9 8 9 9 9 8 8 8 9 9 9 12 12 12 10 10 10 10 8 9 11 9 10 13 11 12 9 9 9 9 9 9 12 12 12 12 12 12 12 12 12 10 10 10 11 11 11 11 11 11 7 7 7 6 6 6 12 12 12 18 18 18 15 15 15 14 14 14 16 16 16 19 19 19 18 18 18 17 17 17 24 24 24 26 26 26 25 25 25 25 25 25 26 26 26 28 28 28 27 27 27 26 26 26 54 54 54 66 62 63 64 64 64 64 64 64 64 64 64 65 65 65 64 62 63 63 63 63 105 105 105 119 119 119 120 120 120 123 119 120 121 121 121 121 119 120 120 120 120 121 121 121 148 148 148 157 157 157 156 156 156 156 156 156 155 155 155 155 155 155 156 156 156 156 156 156 163 163 163 165 165 165 166 166 166 166 166 166 165 165 165 166 166 166 166 166 166 166 166 166 169 169 169 171 171 171 168 168 168 168 168 168 169 169 169 168 168 168 
17 17 17 19 19 19 19 19 19 18 18 18 17 17 17 15 15 15 10 10 10 8 8 8 8 8 8 8 8 8 8 8 8 8 8 8 7 7 7 7 7 7 7 7 7 7 7 7 7 7 7 6 6 6 8 8 8 9 9 9 7 7 7 4 4 4 6 4 5 6 6 6 6 6 6 8 8 10 7 7 7 9 7 8 9 9 9 7 7 7 8 8 8 10 10 10 9 9 9 7 7 7 10 8 9 13 9 10 8 8 8 8 8 8 12 12 12 14 14 14 12 12 12 11 11 11 11 11 11 9 9 9 6 6 6 5 3 4 11 11 11 18 18 18 17 17 17 15 15 15 16 16 16 19 19 19 18 18 18 18 18 18 24 24 24 26 26 26 25 25 25 25 25 25 25 25 25 26 26 26 26 26 26 26 26 26 54 54 54 63 65 64 64 64 64 64 64 64 64 64 64 63 63 63 63 63 63 63 61 62 105 105 107 121 121 121 120 120 120 120 120 120 135 121 121 135 119 119 120 120 120 122 122 122 148 148 148 156 156 156 156 156 156 156 156 156 155 155 155 156 156 156 156 156 156 157 157 157 164 164 164 165 165 165 164 164 164 166 166 166 166 166 166 166 166 166 167 167 167 166 166 166 169 169 169 170 170 170 168 168 168 168 168 168 168 168 168 169 169 169 
16 16 16 17 17 17 18 18 18 16 16 16 16 16 16 14 14 14 11 11 11 8 8 8 8 8 8 8 8 8 8 8 8 8 8 8 8 8 8 7 7 7 8 8 8 7 7 7 7 7 7 5 5 5 6 6 6 6 6 6 6 4 5 5 5 7 7 7 7 7 7 9 6 6 6 6 6 6 6 6 6 8 8 8 7 7 7 5 5 5 8 8 8 9 9 9 8 8 8 7 7 7 8 8 8 8 6 7 7 7 7 7 7 7 11 11 11 14 14 14 13 13 13 11 11 11 12 12 12 7 7 7 5 5 5 5 5 5 12 12 12 18 18 18 19 17 18 16 16 16 15 15 15 19 17 18 18 18 18 19 19 19 25 25 25 26 26 26 25 25 25 25 25 25 25 25 25 25 25 25 27 25 26 26 26 26 54 54 54 66 64 65 64 64 64 64 64 64 63 63 63 63 63 63 62 62 62 64 62 63 106 106 106 120 120 120 121 121 121 121 121 121 136 122 121 149 121 120 122 122 122 122 122 122 148 148 148 156 156 156 156 156 156 156 156 156 156 156 156 155 155 155 155 155 155 156 156 156 164 164 164 165 165 165 165 165 165 165 165 165 165 165 165 166 166 166 166 166 166 166 166 166 169 169 169 169 169 169 168 168 168 169 169 169 168 168 168 168 168 168 
15 15 15 15 15 15 16 16 16 16 16 16 16 16 16 14 14 14 9 9 9 8 8 8 7 7 7 8 8 8 9 9 9 8 8 8 8 8 8 8 8 8 6 6 6 6 6 6 6 6 6 5 5 5 6 6 6 4 4 4 4 4 6 5 5 5 9 8 6 9 7 8 6 6 6 34 4 4 6 6 4 10 8 9 7 7 7 4 4 4 6 6 6 6 6 6 8 8 8 8 8 8 6 6 6 5 5 5 7 7 7 10 10 10 12 12 12 13 13 13 13 13 13 11 11 11 10 10 10 7 7 7 8 8 8 12 8 9 13 13 13 18 18 18 20 20 20 17 17 17 16 16 16 18 18 18 19 19 19 20 18 19 28 26 27 27 27 27 25 25 25 26 24 25 27 25 26 25 25 25 25 25 25 25 25 25 55 55 55 64 64 64 64 64 64 64 64 64 63 63 63 64 64 64 63 63 63 61 61 61 105 105 105 118 118 118 120 120 120 122 120 121 121 121 119 136 122 121 121 121 121 121 121 121 147 147 147 156 156 156 155 155 155 156 156 156 155 155 155 155 155 155 155 155 155 156 156 156 164 164 164 166 166 166 165 165 165 166 166 166 166 166 166 166 166 166 166 166 166 166 166 166 168 168 168 170 170 170 169 169 169 169 169 169 168 168 168 168 168 168 
14 14 14 17 15 16 14 14 14 16 16 16 15 15 15 13 13 13 10 10 10 8 8 8 8 8 8 9 9 9 9 9 9 8 8 8 8 8 8 7 7 7 7 7 7 6 6 6 4 4 4 4 4 4 5 5 5 5 5 5 6 4 5 5 5 5 7 7 5 9 9 9 8 6 7 41 6 4 7 7 5 9 11 10 8 8 8 5 5 5 6 6 6 7 7 7 9 9 9 9 9 9 8 8 8 5 5 5 7 7 7 10 10 10 13 13 13 13 13 13 11 11 11 10 10 10 9 9 9 8 8 8 10 10 10 9 9 9 14 14 14 18 18 18 22 20 21 19 19 19 17 17 17 21 19 20 19 19 19 19 19 19 26 26 26 27 27 27 25 25 25 25 25 25 25 25 25 24 24 24 25 25 25 27 27 27 56 54 55 65 65 65 64 64 64 64 64 64 68 64 65 64 64 64 63 63 63 64 62 63 104 104 104 119 119 119 121 121 121 120 120 120 121 121 121 121 121 121 122 122 122 121 121 121 146 146 146 156 156 156 155 155 155 155 155 155 155 155 155 156 156 156 156 156 156 156 156 156 164 164 164 166 166 166 166 166 166 165 165 165 166 166 166 166 166 166 167 167 167 167 167 167 169 169 169 169 169 169 169 169 169 169 169 169 169 169 169 169 169 169 
14 14 14 13 13 13 13 13 13 16 16 16 15 15 15 14 14 14 10 10 10 10 10 10 11 11 11 10 10 10 8 8 8 8 8 8 9 9 9 8 8 8 7 7 7 7 7 7 5 5 5 5 5 5 5 5 5 5 5 5 6 4 5 5 5 5 7 7 7 9 9 9 9 9 9 7 7 7 7 7 7 8 8 8 7 7 7 7 7 7 6 6 6 7 7 7 9 9 9 10 10 10 11 11 11 8 8 8 8 8 8 11 11 11 14 14 14 13 13 13 12 12 12 9 9 9 7 7 7 8 8 8 10 10 10 10 8 9 15 15 15 17 17 17 20 20 20 21 21 21 19 19 19 23 23 23 23 21 22 20 20 20 26 26 26 27 25 26 26 24 25 25 25 25 24 24 24 25 23 24 25 25 25 25 27 26 55 57 56 65 65 65 64 64 64 65 63 64 65 65 65 65 65 65 63 63 63 62 62 62 105 105 105 119 119 119 119 119 119 120 120 120 121 121 121 122 122 122 121 121 121 121 121 121 147 147 147 156 156 156 156 156 156 156 156 156 156 156 156 156 156 156 155 155 155 157 157 157 163 163 163 165 165 165 166 166 166 166 166 166 166 166 166 166 166 166 168 168 168 167 167 167 169 169 169 169 169 169 169 169 169 169 169 169 168 168 168 169 169 169 
164 164 164 163 163 163 163 163 163 164 164 164 164 164 164 163 163 163 83 83 83 30 28 29 31 29 30 28 28 28 26 26 26 27 27 27 28 28 28 28 28 28 16 16 16 7 7 7 6 6 6 6 6 6 4 4 4 5 5 5 6 5 3 6 4 5 7 7 7 10 10 10 10 10 10 7 7 7 8 10 9 7 7 7 7 7 7 6 6 6 7 7 7 6 6 6 9 9 9 10 10 10 11 11 11 8 8 8 8 8 8 11 11 11 14 14 14 15 15 15 14 14 14 12 12 12 10 10 10 9 9 9 11 11 11 10 10 10 84 84 84 133 133 133 134 134 134 134 134 134 134 134 134 136 136 136 136 136 136 135 135 135 173 173 173 185 185 185 184 184 184 185 185 185 184 184 184 184 184 184 184 184 184 183 183 183 202 200 201 207 207 207 207 207 207 207 207 207 209 207 208 208 208 208 207 207 207 207 207 207 218 218 218 220 222 221 221 221 221 221 221 221 221 221 221 221 221 221 221 221 221 221 221 221 228 228 228 230 230 230 230 230 230 230 230 230 231 231 231 231 231 231 231 231 231 231 231 231 233 233 233 233 233 233 233 233 233 232 232 232 233 233 233 233 233 233 234 234 234 232 232 232 233 233 233 233 233 233 233 233 233 233 233 233 233 233 233 233 233 233 
213 213 213 213 213 213 213 213 213 213 213 213 213 213 213 213 213 213 101 101 101 34 34 34 34 34 34 33 33 33 33 33 33 34 34 34 34 34 34 36 34 35 19 17 18 9 8 6 6 6 6 5 5 7 4 4 6 4 4 4 5 3 4 7 5 6 8 6 9 9 9 9 9 9 9 7 7 7 8 8 8 7 7 7 8 6 9 7 7 9 9 7 8 8 8 8 8 10 9 9 9 9 9 9 9 8 8 8 8 8 8 9 9 9 13 13 13 14 14 14 13 13 13 12 12 12 12 12 12 11 11 11 11 11 11 13 11 12 112 112 114 173 173 173 172 172 172 172 172 172 174 172 173 172 174 173 172 172 172 172 172 172 221 221 221 237 237 237 237 237 237 237 237 237 238 238 238 237 237 237 237 237 237 237 237 237 251 251 251 255 255 255 255 255 255 255 255 255 255 255 255 255 255 255 255 255 255 255 255 255 255 255 255 255 255 255 255 255 255 255 255 255 254 254 254 255 255 255 255 255 255 255 255 255 255 255 255 255 255 255 255 255 255 255 255 255 255 255 255 255 255 255 255 255 255 255 255 255 255 255 255 255 255 255 255 255 255 255 255 255 255 255 255 254 254 254 255 255 255 255 255 255 255 255 255 255 255 255 255 255 255 255 255 255 255 255 255 255 255 255 
214 214 214 214 214 214 214 214 214 214 214 214 213 213 213 213 213 213 100 100 100 31 31 31 31 31 31 34 34 34 34 34 34 33 33 33 36 35 33 37 35 36 20 18 19 8 6 7 5 5 5 5 5 7 5 5 5 3 3 3 5 3 6 7 7 7 11 9 10 10 8 11 10 8 9 8 8 8 8 8 6 7 7 7 7 5 6 7 7 7 10 9 7 10 9 7 7 7 7 7 7 7 8 6 7 8 8 8 9 9 9 9 9 9 11 11 11 11 11 11 10 10 10 10 10 10 11 11 11 12 12 12 12 10 11 11 11 13 114 112 113 173 173 173 173 173 173 173 171 172 172 172 172 171 173 172 172 172 172 172 172 172 221 221 221 237 237 237 238 238 238 237 237 237 237 237 237 237 237 237 237 237 237 237 237 237 251 251 251 255 255 255 255 255 255 255 255 255 255 255 255 255 255 255 255 255 255 255 255 255 255 255 255 255 255 255 254 254 254 255 255 255 255 255 255 255 255 255 255 255 255 255 255 255 254 254 254 255 255 255 255 255 255 255 255 255 255 255 255 255 255 255 255 255 255 255 255 255 255 255 255 255 255 255 255 255 255 255 255 255 255 255 255 255 255 255 255 255 255 255 255 255 255 255 255 255 255 255 255 255 255 255 255 255 255 255 255 255 255 255 
213 213 213 213 213 213 213 213 213 213 213 213 213 213 213 214 214 214 99 99 99 30 30 30 31 31 31 34 34 34 34 34 34 33 33 33 36 35 33 35 35 35 17 17 17 7 5 6 5 5 5 5 5 5 5 5 5 4 4 4 5 3 4 8 6 7 10 10 8 9 9 9 9 9 9 8 8 10 8 8 6 7 7 7 8 6 7 8 8 8 10 10 10 9 9 9 7 7 7 6 4 7 5 5 5 6 6 4 9 9 9 8 8 8 10 10 10 11 11 11 9 9 9 10 10 10 10 10 10 11 11 11 13 11 12 12 12 14 114 114 114 173 173 171 173 173 171 172 172 172 172 171 169 173 173 173 172 172 172 172 172 172 221 221 221 238 238 238 237 237 237 237 237 237 237 237 237 237 237 237 237 237 237 237 237 237 251 251 251 255 255 255 255 255 255 255 255 255 255 255 255 255 255 255 255 255 255 254 254 254 255 255 255 255 255 255 255 255 255 255 255 255 255 255 255 255 255 255 255 255 255 255 255 255 255 255 255 255 255 255 255 255 255 255 255 255 255 255 255 255 255 255 255 255 255 255 255 255 255 255 255 255 255 255 255 255 255 255 255 255 255 255 255 255 255 255 255 255 255 255 255 255 255 255 255 255 255 255 255 255 255 255 255 255 255 255 255 255 255 255 
213 213 213 213 213 213 213 213 213 213 213 213 214 214 214 213 213 213 99 99 99 30 30 30 31 31 31 33 33 33 34 34 34 33 33 33 35 35 33 35 35 33 17 17 17 6 4 5 6 6 6 6 6 6 5 5 5 5 5 7 6 6 6 7 9 8 10 8 9 9 9 9 10 10 10 9 9 9 8 8 6 7 7 7 7 7 7 10 8 9 10 12 11 11 9 10 6 6 4 6 4 5 10 6 5 12 8 7 9 9 9 9 9 9 9 9 9 10 10 10 9 9 9 9 9 9 9 9 9 10 10 10 10 10 10 12 12 10 115 115 115 174 174 176 174 172 173 174 172 173 173 171 172 173 173 171 172 172 172 172 172 172 221 221 221 238 238 238 238 238 238 236 236 236 237 237 237 237 237 237 237 237 237 237 237 237 251 251 251 255 255 255 255 255 255 254 254 254 255 255 255 255 255 255 255 255 255 255 255 255 255 255 255 255 255 255 254 254 254 255 255 255 254 254 254 255 255 255 255 255 255 255 255 255 254 254 254 255 255 255 255 255 255 254 254 254 255 255 255 255 255 255 255 255 255 255 255 255 255 255 255 255 255 255 255 255 255 255 255 255 255 255 255 255 255 255 255 255 255 255 255 255 255 255 255 255 255 255 255 255 255 255 255 255 255 255 255 254 254 254 
213 213 213 213 213 213 213 213 213 213 213 213 213 213 213 213 215 214 100 98 99 31 31 31 32 32 32 34 34 34 34 34 34 34 34 34 36 36 36 33 35 34 16 16 16 10 6 7 13 5 3 9 5 6 6 6 6 6 6 6 7 7 5 8 8 8 8 8 8 9 9 9 10 8 9 10 10 10 9 7 8 8 6 7 7 5 6 7 7 7 11 9 12 11 11 11 8 8 8 6 6 6 37 7 5 25 7 7 10 10 10 11 11 11 11 11 11 10 10 10 10 10 10 9 9 9 9 9 9 10 10 10 12 11 9 12 12 12 115 113 116 176 174 175 188 174 173 192 172 171 191 173 173 191 173 171 173 173 173 172 172 172 221 221 221 237 237 237 238 238 238 238 238 238 238 238 238 237 237 237 236 236 236 237 237 237 251 251 251 255 255 255 255 255 255 255 255 255 255 255 255 255 255 255 255 255 255 255 255 255 255 255 255 255 255 255 255 255 255 255 255 255 255 255 255 255 255 255 255 255 255 255 255 255 255 255 255 255 255 255 254 254 254 255 255 255 255 255 255 255 255 255 255 255 255 255 255 255 255 255 255 255 255 255 255 255 255 255 255 255 255 255 255 255 255 255 255 255 255 255 255 255 255 255 255 255 255 255 255 255 255 255 255 255 255 255 255 255 255 255 
213 213 213 213 213 213 213 213 213 213 213 213 214 214 214 212 214 213 101 99 100 32 32 32 33 33 33 34 34 34 35 35 35 34 34 34 37 35 36 34 34 34 17 17 17 25 6 8 54 6 6 45 5 6 6 6 4 8 7 5 8 8 8 7 7 7 8 8 8 9 9 9 8 8 8 13 11 12 9 9 9 7 5 6 5 5 5 8 8 8 8 8 8 12 12 12 10 10 10 7 7 9 7 5 6 8 8 8 11 11 11 13 13 13 12 12 12 10 10 10 10 10 10 9 9 9 10 10 10 10 10 10 11 11 11 10 10 12 116 112 113 175 175 175 173 175 174 188 172 173 188 172 172 191 173 173 172 172 172 172 172 172 221 221 221 237 237 237 238 238 238 238 238 238 238 238 238 237 237 237 237 237 237 237 237 237 251 251 251 255 255 255 255 255 255 255 255 255 255 255 255 255 255 255 255 255 255 255 255 255 255 255 255 255 255 255 255 255 255 255 255 255 255 255 255 255 255 255 255 255 255 255 255 255 255 255 255 255 255 255 255 255 255 255 255 255 255 255 255 255 255 255 254 254 254 255 255 255 255 255 255 255 255 255 255 255 255 255 255 255 255 255 255 255 255 255 255 255 255 255 255 255 255 255 255 255 255 255 255 255 255 255 255 255 255 255 255 255 255 255 
213 213 213 213 213 213 213 213 213 213 213 213 213 213 213 213 215 214 103 101 102 31 31 31 33 33 33 34 34 34 35 35 35 35 35 35 36 34 35 35 35 33 20 18 19 7 7 7 5 5 5 6 6 6 7 7 7 7 7 7 7 9 6 7 7 7 8 8 8 8 8 8 7 7 7 12 12 12 10 8 11 5 5 5 5 5 5 7 8 10 10 8 9 12 11 9 10 10 10 10 10 10 8 8 10 9 9 7 12 12 12 13 13 13 12 12 12 10 10 10 10 10 10 9 9 9 9 9 9 10 10 10 11 11 11 10 10 10 113 113 113 174 176 175 174 176 175 174 174 174 172 172 172 171 173 172 173 173 173 172 172 172 222 222 222 237 237 237 238 238 238 238 238 238 238 238 238 237 237 237 237 237 237 236 236 236 251 251 251 255 255 255 255 255 255 255 255 255 255 255 255 255 255 255 255 255 255 254 254 254 255 255 255 255 255 255 255 255 255 255 255 255 255 255 255 255 255 255 255 255 255 254 254 254 255 255 255 255 255 255 255 255 255 255 255 255 255 255 255 255 255 255 255 255 255 255 255 255 255 255 255 255 255 255 255 255 255 255 255 255 255 255 255 255 255 255 255 255 255 255 255 255 255 255 255 255 255 255 255 255 255 255 255 255 255 255 255 255 255 255 
97 97 97 97 97 97 98 98 98 98 98 98 98 98 98 97 99 98 44 42 43 16 16 16 15 15 15 16 16 16 19 19 19 21 21 21 20 20 18 21 16 20 12 10 11 8 6 7 6 8 5 8 8 8 9 7 8 7 8 10 7 7 7 7 7 7 7 7 7 6 6 6 6 6 8 10 10 8 9 9 11 6 6 6 4 6 5 7 7 7 9 9 9 10 10 12 10 10 10 9 9 9 9 9 9 11 11 11 12 12 12 10 10 10 7 7 7 6 6 6 5 5 5 6 6 6 8 8 8 9 9 9 8 8 8 8 8 8 53 52 50 74 72 75 73 73 73 72 72 72 72 70 71 71 71 71 69 69 69 69 69 69 94 94 94 101 101 101 102 102 102 103 103 103 103 103 103 103 103 103 102 102 102 103 103 103 122 122 122 128 128 128 128 128 128 127 127 127 125 125 125 128 128 128 129 129 129 129 129 129 171 171 171 185 185 185 185 185 185 185 185 185 185 185 185 185 185 185 185 185 185 185 185 185 204 204 204 209 209 209 209 209 209 208 208 208 209 209 209 209 209 209 210 210 210 209 209 209 208 208 208 207 207 207 207 207 207 207 207 207 207 207 207 208 208 208 208 208 208 206 206 206 205 205 205 203 203 203 202 202 202 202 202 202 203 203 203 203 203 203 
