P3
100 50
255
4 4 4 3 3 3 5 5 5 5 5 5 5 5 5 5 5 5 4 4 4 6 6 6 7 7 7 7 7 7 6 6 6 6 6 6 5 5 3 31 5 4 57 6 5 57 6 3 59 5 5 56 8 8 56 8 8 57 7 8 57 7 6 56 8 8 56 6 7 56 5 4 57 6 5 56 48 37 58 50 39 57 11 11 56 6 5 55 5 4 56 5 4 56 5 4 57 42 37 59 52 44 58 51 41 55 24 19 56 6 7 55 5 4 56 5 4 56 5 4 55 20 16 55 30 25 57 5 7 57 9 9 58 10 8 56 10 10 57 9 9 57 7 8 56 5 4 57 5 7 58 8 7 57 9 7 56 6 5 59 5 3 57 7 8 55 5 6 58 43 38 56 52 43 58 49 42 57 23 21 57 7 8 58 6 8 57 7 6 56 31 26 57 54 45 59 52 44 57 49 38 41 37 28 5 5 5 6 6 6 7 7 7 7 7 7 8 8 8 5 7 4 8 6 7 7 7 7 6 6 6 5 5 3 51 5 5 56 6 9 56 8 8 56 6 5 57 5 7 57 5 7 55 5 4 55 5 6 55 5 6 56 6 7 58 29 25 57 50 40 57 32 25 56 5 4 56 5 4 56 4 6 56 16 14 56 49 39 55 51 40 57 54 45 57 54 45 57 9 7 
4 4 4 4 4 4 7 7 7 6 6 6 7 7 7 6 6 6 4 4 4 6 4 5 8 8 8 10 10 10 9 7 8 5 5 5 4 4 2 5 3 4 4 6 5 4 4 4 24 6 6 61 7 7 58 9 5 57 9 9 56 6 7 56 6 5 52 7 4 56 5 4 56 46 37 56 48 37 56 49 39 57 53 42 57 13 14 57 7 8 57 6 5 56 6 7 58 41 33 58 51 43 58 51 41 58 25 18 56 8 8 55 5 6 55 5 6 55 5 4 56 6 5 55 4 3 55 5 6 57 8 11 59 11 11 56 10 10 57 11 11 57 7 8 56 8 6 58 9 12 59 9 10 56 6 7 55 3 5 56 6 7 58 8 9 56 8 8 55 40 33 57 54 45 58 54 43 57 48 41 59 21 20 57 9 9 56 8 8 55 31 27 35 35 27 5 5 5 6 6 6 7 6 4 6 4 5 5 5 7 6 6 6 8 6 7 8 8 8 7 7 7 7 7 7 6 6 4 4 6 5 5 5 5 47 6 4 56 6 7 54 8 8 58 8 7 58 8 7 58 8 9 56 6 5 56 6 7 56 8 8 59 30 26 58 54 43 58 56 44 57 51 37 56 33 25 56 5 4 56 5 4 55 5 6 56 10 10 55 51 40 57 54 45 58 54 45 57 9 9 
3 3 3 5 5 5 6 6 6 6 6 6 6 6 6 5 5 5 3 3 3 5 5 5 7 7 7 10 10 10 10 10 10 6 6 6 4 4 4 4 4 4 5 5 5 4 6 3 6 5 3 25 17 14 59 46 38 58 35 29 57 7 8 58 4 4 56 4 6 58 4 2 57 47 37 57 49 38 57 53 41 59 53 41 57 13 14 57 7 6 58 7 4 57 5 7 59 9 8 57 13 14 57 13 12 59 11 11 58 6 8 55 4 3 57 7 8 56 6 5 57 5 7 56 6 5 56 4 6 57 7 8 58 8 9 57 9 9 57 8 11 58 8 9 59 10 6 58 45 36 14 8 10 56 46 36 56 10 10 57 7 6 59 8 7 56 8 8 57 38 32 57 53 42 59 54 48 56 53 44 55 24 21 57 9 9 56 8 8 56 10 10 38 10 9 6 6 4 6 6 4 5 5 7 3 4 6 4 2 3 5 5 5 7 7 7 8 8 8 7 7 7 7 7 7 6 4 5 7 5 6 6 6 6 11 5 5 49 8 6 57 7 6 56 37 30 56 46 36 57 22 18 57 7 8 56 6 5 56 6 7 57 29 25 57 53 42 56 52 41 58 52 40 55 35 26 58 4 4 55 5 6 54 4 5 58 4 4 58 10 10 57 13 12 57 15 16 57 9 9 
4 4 4 5 5 5 5 5 5 4 4 4 4 4 4 6 6 6 5 5 5 4 4 4 5 5 5 8 8 8 9 9 9 7 7 7 6 5 3 7 5 6 4 4 4 6 6 4 6 4 5 5 5 5 24 23 19 58 41 33 58 6 8 57 5 7 55 3 5 56 6 5 57 12 9 57 51 39 59 53 39 56 21 17 57 9 9 56 6 7 60 5 8 58 6 8 56 5 4 29 8 7 41 5 5 56 6 7 56 5 4 57 3 1 57 6 5 57 7 6 56 6 5 55 5 4 56 6 5 56 5 4 56 5 4 57 7 8 59 7 9 53 7 7 15 6 7 57 50 40 7 7 9 12 11 9 52 8 5 58 8 9 57 7 8 56 6 7 59 11 11 57 44 36 58 54 43 58 27 24 58 10 10 57 7 8 59 9 10 57 7 6 39 7 8 8 8 8 7 7 7 6 6 6 6 4 7 5 5 5 5 5 5 7 7 5 7 7 9 7 7 7 9 9 9 51 7 6 5 5 5 5 5 5 5 5 5 12 6 6 14 5 6 14 10 9 13 12 10 40 10 8 57 7 8 56 8 8 57 7 8 58 10 8 60 33 26 57 50 40 57 37 30 55 7 7 55 4 3 55 4 3 54 4 3 54 4 3 55 5 4 52 6 8 15 10 7 16 10 12 
4 4 4 3 3 3 3 3 3 3 3 3 5 5 5 6 6 6 8 8 8 6 6 6 6 6 6 6 6 6 7 7 7 6 6 6 5 5 5 5 5 5 5 5 5 6 6 6 7 7 7 6 6 6 19 18 16 58 41 33 57 8 11 56 6 7 56 6 5 55 4 3 55 5 6 56 12 13 57 16 14 58 10 10 54 8 8 56 6 7 57 6 3 56 4 6 21 5 6 8 2 6 7 6 4 40 6 7 56 5 4 55 3 5 58 6 8 58 10 10 57 19 16 59 46 38 57 44 36 55 46 37 58 33 28 57 6 5 56 6 7 49 5 4 5 5 5 12 10 11 7 5 6 7 7 7 14 8 8 53 7 9 56 6 7 56 6 7 57 7 10 58 10 10 57 13 12 56 10 10 57 7 8 57 7 8 57 9 7 36 8 7 12 8 7 8 8 8 9 9 9 9 9 9 8 6 9 5 5 5 6 4 7 6 6 6 8 8 6 10 9 7 8 8 8 56 46 36 6 4 7 4 4 4 5 5 5 5 5 3 6 6 6 6 6 6 6 6 6 10 8 9 14 8 8 41 7 5 56 8 8 55 5 4 57 8 11 57 11 11 57 7 6 57 5 7 56 4 6 55 5 4 54 4 5 50 4 4 13 7 7 14 8 8 9 8 6 9 9 9 
5 5 5 2 2 2 4 4 4 4 4 4 6 6 6 7 7 7 9 9 9 7 7 7 6 6 6 6 6 6 7 7 7 5 5 5 5 5 5 4 4 4 5 5 7 8 6 7 9 7 8 8 8 8 20 19 15 58 41 34 58 8 7 58 8 7 57 7 6 57 6 5 57 7 8 55 5 6 58 10 8 60 12 12 57 9 9 56 5 4 58 3 6 28 4 4 6 2 3 4 4 4 4 4 4 38 6 7 56 6 7 55 5 6 57 7 6 58 9 5 58 23 19 56 52 41 59 52 42 57 53 42 57 40 30 57 5 7 56 6 5 49 5 6 4 4 6 5 5 7 8 6 7 7 5 8 36 8 7 59 7 9 57 9 9 56 8 8 58 8 7 58 8 9 55 5 6 57 7 6 56 6 7 57 7 8 58 10 10 34 9 5 7 8 10 8 8 6 10 10 10 9 9 11 8 8 8 7 5 6 6 7 2 7 7 7 8 8 6 7 7 7 8 8 8 57 50 40 8 6 7 5 5 5 5 5 5 6 6 8 6 4 5 4 5 7 4 4 4 6 6 6 7 7 7 38 8 8 57 7 8 57 7 8 60 8 10 57 7 6 57 7 8 58 7 6 56 6 5 55 5 6 55 5 4 50 6 5 8 8 8 8 8 6 8 8 8 8 8 8 
4 4 4 4 4 4 4 4 4 5 5 5 7 7 7 7 7 7 8 8 8 7 7 7 6 6 6 6 6 6 7 7 7 5 5 5 4 6 5 7 5 8 5 5 5 8 6 7 8 8 10 8 8 8 20 12 10 58 17 15 57 9 9 57 7 8 59 7 9 57 7 8 56 6 5 58 6 8 59 11 11 60 12 12 57 8 11 57 6 5 57 6 5 46 4 6 44 6 5 18 4 3 28 24 21 53 40 34 55 40 35 58 23 21 58 6 8 57 7 6 57 23 21 58 51 41 57 50 40 57 53 44 57 40 33 56 5 4 55 4 3 54 4 5 43 5 4 5 5 7 6 4 5 45 6 7 57 7 8 56 8 6 58 8 7 57 7 8 56 6 7 57 7 8 58 6 8 55 7 7 55 5 6 55 5 6 57 9 7 52 8 9 35 7 6 5 6 8 7 9 8 9 9 11 8 8 8 7 5 6 7 7 5 8 8 10 7 9 6 7 7 5 7 7 9 58 51 43 7 5 6 6 4 5 4 4 4 5 5 5 5 5 5 5 3 4 4 4 6 5 5 3 28 7 6 55 6 9 57 5 7 57 7 8 57 7 6 58 8 9 57 9 9 57 9 7 56 8 8 55 5 4 49 8 6 17 7 6 8 8 8 7 8 10 7 7 7 7 7 5 
5 5 5 5 5 5 4 4 4 5 5 5 8 8 8 8 8 8 7 7 7 7 7 7 5 5 5 6 6 6 8 8 8 7 7 7 6 6 6 6 6 6 7 7 7 7 9 8 9 9 9 8 10 7 21 7 7 56 4 6 57 7 6 58 7 4 57 9 9 56 6 7 55 7 5 57 7 8 58 10 10 58 37 32 57 42 35 58 13 10 57 6 5 56 6 5 57 5 7 46 25 20 51 48 39 57 53 44 59 52 44 59 31 27 56 8 8 58 8 7 58 10 10 58 17 15 55 26 22 57 42 35 56 12 11 55 1 1 55 4 3 56 5 4 56 5 4 44 6 5 44 5 6 58 8 7 56 8 6 57 7 8 58 8 9 57 9 7 57 7 6 58 7 6 55 24 19 55 36 29 55 18 12 57 5 7 58 7 6 57 7 6 51 5 7 33 5 4 6 6 6 7 7 7 8 8 10 7 7 7 9 7 8 9 9 9 7 9 8 7 7 7 7 7 7 19 18 16 7 5 6 5 5 5 5 5 5 5 5 5 4 4 4 5 5 3 4 4 4 4 6 5 37 6 4 55 5 4 37 6 4 18 6 6 18 6 6 30 19 15 45 30 27 22 10 10 20 8 8 20 6 6 18 8 9 9 7 8 8 7 5 7 7 7 8 8 8 7 7 7 
7 7 7 5 5 5 5 5 5 6 6 6 8 8 8 8 8 8 7 7 7 7 7 7 6 6 6 6 6 6 8 8 8 11 11 11 7 7 7 6 4 5 6 4 5 9 7 8 10 8 9 9 9 9 20 8 8 57 16 14 58 33 28 59 9 10 57 9 7 56 5 2 55 5 6 58 8 9 56 37 31 56 49 39 57 53 42 57 13 12 57 6 5 57 5 7 57 5 7 57 34 28 55 51 40 56 52 41 59 52 44 59 30 26 58 8 7 58 8 7 56 5 4 57 6 5 58 8 9 56 21 17 56 4 6 53 2 1 55 4 3 56 5 2 57 7 6 57 5 7 54 8 8 57 9 9 57 6 5 56 8 6 57 9 9 58 9 12 56 8 8 57 28 24 56 42 31 56 46 37 56 36 29 58 18 16 55 5 6 57 7 6 55 5 6 36 5 3 4 6 5 4 8 7 7 7 7 8 6 7 7 5 6 10 10 10 10 10 10 9 7 8 8 8 8 6 6 6 5 5 3 4 4 6 5 5 5 4 4 4 4 4 2 4 4 4 4 4 2 23 5 3 51 5 5 57 6 5 32 6 7 7 5 6 8 8 6 15 14 10 20 19 15 11 11 11 11 11 11 9 11 6 10 10 8 10 10 10 9 9 9 6 6 4 7 7 7 8 8 8 
7 7 7 5 5 5 5 5 5 7 7 7 9 9 9 8 8 8 7 7 7 7 7 7 7 7 7 7 7 7 7 7 7 8 8 8 6 6 8 6 4 5 4 4 4 6 6 6 21 9 11 41 17 17 43 36 28 58 37 32 58 49 40 60 33 26 57 7 6 57 7 6 55 5 6 59 9 8 58 51 43 59 52 42 60 53 43 55 38 30 59 15 14 56 6 5 59 5 5 57 18 13 58 41 33 57 53 44 58 39 33 56 16 14 58 7 6 58 8 7 57 9 7 56 6 7 56 15 13 58 27 24 56 5 4 57 2 5 54 3 2 55 4 3 57 7 6 58 8 7 58 34 30 55 34 29 55 34 29 59 11 9 57 9 9 56 10 10 58 8 7 58 41 33 57 50 40 56 47 38 56 47 40 57 26 24 57 6 5 57 6 5 56 5 4 50 4 6 37 5 6 28 7 6 7 7 7 7 7 5 7 7 7 9 9 9 12 12 12 10 10 8 8 8 8 6 6 6 6 6 6 6 6 6 6 6 8 4 6 3 4 4 4 5 5 5 31 26 23 49 32 24 56 31 26 56 17 12 31 5 6 6 8 7 7 9 8 8 8 6 7 8 10 11 11 9 12 12 12 11 11 13 11 11 11 11 11 11 8 8 8 7 6 4 7 7 7 7 7 7 
8 8 8 5 5 5 5 5 5 6 6 6 8 8 8 7 7 7 6 6 6 7 7 7 6 6 6 7 5 6 7 5 6 7 7 7 6 6 6 5 3 6 4 4 4 6 6 8 26 6 7 54 19 17 58 51 41 59 52 42 58 51 41 55 45 35 57 9 9 57 7 8 56 6 7 56 8 8 56 49 39 57 51 39 55 51 42 57 28 24 56 14 15 57 8 4 56 5 4 56 6 7 58 20 17 59 25 23 57 16 14 58 8 9 57 7 6 57 7 8 59 9 10 58 8 7 57 17 17 57 47 38 56 33 27 57 30 23 54 3 2 57 5 7 56 8 8 57 7 6 58 51 43 58 51 41 54 50 41 56 35 30 57 13 10 58 10 10 55 6 9 56 39 32 57 50 40 57 48 39 57 50 40 56 27 23 57 6 5 56 4 6 56 4 6 58 3 6 56 6 5 45 6 7 7 5 6 7 7 7 7 8 10 9 7 8 11 9 10 10 10 10 7 7 7 6 6 6 6 6 6 6 6 6 5 3 4 3 2 0 3 3 3 5 5 5 20 16 15 43 36 26 54 46 33 36 21 16 14 4 3 6 6 6 5 7 6 6 6 6 7 7 7 11 11 11 11 11 11 13 11 12 12 12 12 11 11 11 8 8 8 6 6 6 6 6 6 6 6 6 
6 6 6 6 6 6 5 5 5 5 5 5 7 7 7 9 9 9 7 7 7 6 6 6 6 6 6 7 7 7 6 6 6 7 5 6 5 5 5 4 4 4 3 5 4 15 5 6 42 8 7 57 17 17 58 51 41 57 53 44 58 54 43 57 44 35 58 8 9 57 9 9 58 6 8 57 9 7 57 28 24 55 30 23 57 28 22 58 8 9 57 9 9 59 7 9 56 5 4 56 8 6 57 9 7 58 10 10 58 8 7 58 8 9 58 6 8 57 6 5 58 8 9 57 9 9 58 20 17 57 50 42 56 49 39 56 46 37 57 23 21 55 4 3 57 5 7 57 7 8 57 50 42 58 51 41 58 51 43 55 51 42 57 16 14 57 9 9 56 8 8 57 22 20 42 28 25 47 43 34 55 35 28 55 15 15 56 4 6 55 5 6 56 5 4 56 5 4 54 4 3 45 7 6 6 6 6 5 7 6 6 6 6 8 8 6 10 8 9 10 8 9 9 7 8 6 6 6 6 6 6 6 6 6 5 3 4 4 4 2 2 2 2 5 5 7 8 6 7 36 31 25 54 46 35 24 21 16 6 6 6 5 5 3 4 4 4 6 6 6 7 7 7 10 10 10 11 11 11 12 12 12 12 12 12 11 11 11 7 7 7 6 6 6 5 5 5 8 8 8 
6 6 6 6 6 6 6 6 6 5 5 5 5 5 5 8 8 8 7 7 7 6 6 6 7 7 7 7 7 7 6 6 6 7 5 6 5 6 1 6 4 5 4 4 4 24 6 6 57 5 7 58 13 10 58 35 29 57 53 41 56 52 41 59 45 36 58 8 9 58 8 9 33 9 9 32 8 6 32 6 7 54 6 4 55 3 5 56 6 7 57 8 11 57 6 5 55 5 4 58 8 9 57 9 7 57 7 6 57 19 16 58 20 19 57 7 8 57 5 7 55 7 7 58 10 10 59 19 19 57 50 42 57 50 40 56 49 39 55 42 33 54 3 2 54 4 3 55 5 4 55 27 23 58 51 43 56 52 43 55 30 26 57 11 11 57 9 9 56 6 7 37 5 6 16 6 5 21 20 16 48 14 13 56 4 6 56 5 4 56 8 6 55 6 9 55 5 6 54 6 6 49 8 6 26 6 7 7 5 6 8 6 7 9 9 9 9 9 9 8 8 8 7 7 7 8 4 5 4 6 5 6 6 6 7 7 7 5 3 4 4 4 4 5 5 5 24 21 16 46 39 31 55 47 34 23 22 17 6 6 6 6 6 6 6 6 4 7 5 6 7 7 9 10 10 12 11 11 11 11 11 11 10 10 10 9 9 9 8 8 8 7 7 7 7 7 7 9 9 9 
7 7 7 7 7 7 6 6 6 5 5 5 7 5 6 7 7 7 7 7 7 8 8 8 8 8 8 7 7 7 6 6 6 6 6 6 5 5 5 5 5 5 6 4 5 23 5 3 56 6 7 56 8 6 57 13 10 57 29 25 57 29 25 57 26 23 55 7 7 30 9 8 8 8 8 7 7 7 6 6 6 30 6 6 54 6 4 57 7 6 57 9 9 56 6 5 57 7 8 58 10 10 57 9 9 56 21 17 58 41 34 59 42 34 58 30 26 56 18 15 57 7 6 48 8 9 39 19 18 55 51 40 54 50 39 56 49 39 57 43 34 55 4 3 54 4 5 55 4 3 55 4 3 57 27 25 58 29 25 58 10 8 58 8 7 58 8 9 55 7 5 18 6 6 6 4 5 5 5 5 37 5 6 57 7 6 57 5 7 58 8 7 57 7 8 54 6 6 54 13 11 56 27 23 46 20 19 7 7 7 8 8 8 8 9 11 9 9 9 6 6 6 5 5 5 5 5 5 5 5 5 5 5 5 6 6 6 5 5 5 5 5 5 5 5 5 44 20 16 58 29 23 57 28 24 25 14 12 6 6 6 6 6 6 6 6 6 6 6 6 7 5 6 9 9 9 10 10 10 9 9 9 10 10 10 8 8 8 9 9 9 10 8 9 9 9 9 13 11 12 
7 7 7 6 6 6 5 5 5 5 5 5 7 5 6 6 6 6 8 8 8 9 9 9 8 8 8 7 7 7 6 6 6 5 5 5 5 5 5 3 3 3 4 4 4 18 4 4 43 4 5 57 7 8 58 7 6 58 8 7 56 8 8 57 9 9 53 7 7 26 8 8 29 7 9 9 9 9 6 6 4 21 5 5 54 20 18 56 25 22 58 25 20 57 9 7 57 7 6 56 8 8 57 9 9 56 33 27 55 51 42 57 53 44 57 53 44 56 32 28 57 6 5 45 7 6 33 19 18 55 51 42 56 49 41 55 44 38 57 28 22 56 2 0 57 3 3 55 4 3 55 5 4 57 5 7 56 6 5 57 5 7 56 6 5 57 7 8 57 7 6 19 5 5 5 5 5 5 5 5 37 5 6 56 6 7 56 4 6 57 6 5 57 7 6 57 7 8 56 21 17 56 47 38 50 43 37 19 18 16 8 8 8 10 10 10 7 7 7 6 4 5 5 5 5 5 5 5 6 4 5 5 5 5 6 4 5 7 5 6 4 6 5 5 3 4 26 5 4 39 5 6 37 6 4 18 7 5 6 6 6 6 6 6 7 7 7 6 6 4 6 6 6 8 8 10 11 11 11 10 10 10 8 8 8 7 7 7 8 8 8 12 10 11 9 9 9 13 11 12 
7 7 7 6 6 6 5 5 5 5 5 5 5 5 5 7 5 6 9 7 8 9 9 9 8 8 8 8 8 8 8 8 8 6 6 6 5 5 5 6 4 5 4 4 4 3 4 6 16 4 4 37 7 7 38 9 5 38 9 5 39 8 6 56 8 8 57 9 9 58 8 9 58 8 7 27 9 9 26 8 6 54 6 6 58 45 39 57 50 42 55 51 40 56 17 12 58 8 7 57 7 8 57 7 8 56 31 26 56 52 41 57 53 42 56 52 43 57 34 28 56 5 4 57 7 6 57 13 12 56 33 25 55 32 24 55 27 23 55 1 1 57 3 1 56 2 2 56 2 2 56 5 4 57 9 9 59 9 8 57 7 6 55 7 5 56 6 7 57 6 5 33 5 4 24 5 7 24 16 14 42 23 19 56 22 20 56 23 18 55 14 12 57 6 5 54 6 6 57 23 21 58 51 43 56 52 41 44 41 32 9 9 9 8 8 8 5 5 5 6 6 6 6 6 6 5 5 5 4 4 2 5 5 3 7 5 6 6 6 6 6 6 6 5 4 2 4 4 4 4 4 4 4 4 4 6 6 6 5 5 5 7 5 6 7 7 7 5 7 6 6 6 6 7 7 7 9 9 9 8 8 8 7 7 7 6 6 6 9 9 9 11 11 11 10 10 10 11 11 11 
8 8 8 7 7 7 6 6 6 5 5 5 5 5 5 6 6 6 8 8 8 8 8 8 8 8 8 8 8 8 8 8 8 8 6 7 6 6 6 5 5 5 5 3 6 6 6 6 6 6 6 6 6 6 8 8 8 7 8 12 14 10 9 55 24 19 58 23 19 57 7 8 57 7 8 55 9 9 58 10 10 55 7 7 57 44 35 58 51 41 56 52 41 55 15 13 58 8 9 58 8 7 56 8 6 57 22 18 56 42 33 57 50 40 58 43 36 55 24 21 57 7 8 57 7 6 57 6 5 55 4 3 57 3 1 55 4 3 57 3 3 58 4 4 55 4 3 56 5 4 57 5 7 58 8 11 58 8 9 55 22 17 53 22 17 54 8 8 55 5 4 55 7 7 55 5 8 55 34 29 56 52 43 55 52 43 56 54 42 58 27 24 56 5 4 56 6 5 57 17 15 55 34 29 55 40 35 44 39 33 10 10 12 6 6 8 4 4 2 6 5 3 6 6 6 5 3 4 4 4 2 8 7 5 8 8 8 7 7 5 6 6 6 3 5 4 3 3 5 4 4 4 7 3 4 4 4 4 5 5 3 7 7 5 7 7 7 6 6 6 7 7 7 8 8 10 8 8 8 7 7 7 9 9 9 8 8 8 11 11 11 10 10 10 8 8 8 8 8 8 
7 7 7 6 6 6 6 6 6 7 7 7 7 5 6 7 7 7 8 8 8 8 8 8 8 8 8 8 8 8 9 9 9 8 8 8 6 6 6 6 5 3 5 5 3 6 4 5 6 6 6 6 6 8 8 8 8 8 8 8 14 13 9 43 40 31 57 47 37 57 19 16 57 9 9 58 8 7 58 8 7 57 5 7 58 45 36 57 53 42 58 54 43 57 17 15 57 7 8 57 7 8 58 8 7 58 7 6 60 21 22 56 41 34 56 25 22 57 8 11 57 7 8 58 8 7 57 7 6 57 6 5 56 2 2 58 4 4 56 5 4 56 5 4 57 3 3 56 5 4 56 6 5 56 8 8 56 17 12 55 45 35 55 46 37 55 24 21 57 7 8 56 5 4 56 6 7 56 27 23 55 45 36 56 52 43 54 52 40 56 28 24 56 7 3 56 6 9 55 7 7 57 7 8 57 16 14 49 31 27 19 7 7 6 5 3 4 4 2 5 5 5 5 7 6 4 4 4 5 5 5 7 7 7 9 7 8 7 7 5 6 6 6 7 5 6 5 5 3 4 4 4 3 3 1 4 4 2 6 5 3 8 8 8 8 8 8 6 6 4 8 7 5 8 8 8 9 9 9 10 8 9 9 9 9 9 9 9 10 10 10 9 9 9 7 7 7 7 7 7 
7 7 7 6 6 6 6 4 7 7 5 6 7 7 7 7 7 7 7 8 3 7 7 7 8 8 8 8 8 8 7 7 7 8 8 8 6 6 6 5 7 6 6 6 6 6 6 6 8 8 8 8 6 7 8 6 7 9 7 8 8 8 8 14 12 13 58 51 41 56 52 40 57 9 9 55 9 9 56 8 8 56 4 6 57 37 28 56 41 34 57 43 34 58 14 11 57 7 6 58 8 9 57 9 7 57 9 9 58 8 9 58 10 10 56 10 10 57 7 8 57 7 8 58 8 9 58 8 7 57 7 8 57 7 8 55 15 13 56 16 14 55 15 13 55 4 3 56 5 4 54 4 5 58 7 6 58 39 32 55 45 35 55 47 36 54 44 35 56 16 14 56 5 4 57 6 5 56 6 7 57 29 25 55 41 32 55 38 30 57 22 18 56 6 5 55 5 6 55 7 7 56 8 8 57 7 8 58 8 9 51 5 5 17 5 5 3 3 3 3 4 6 18 7 5 16 6 5 5 5 7 7 7 7 7 7 7 7 7 7 6 6 6 6 6 6 3 3 3 3 3 1 2 2 2 3 1 2 6 6 6 7 7 5 7 7 5 8 8 8 7 7 7 9 7 10 8 8 10 8 8 8 9 9 9 9 9 11 10 10 8 8 7 5 6 6 6 8 6 7 
6 4 5 6 6 6 6 4 5 7 7 7 8 8 8 7 7 7 7 7 7 8 8 6 7 7 9 8 8 8 8 8 8 8 8 8 8 7 5 7 7 7 7 5 6 7 7 5 7 7 7 8 8 8 6 6 6 6 6 6 7 7 9 14 13 11 55 51 40 56 48 37 57 8 11 55 9 9 56 6 5 57 6 5 57 6 5 57 6 5 57 7 6 58 8 9 58 6 8 57 6 5 57 9 9 57 9 9 58 10 10 58 10 10 58 10 10 56 6 7 57 9 9 58 10 8 58 8 9 56 6 7 55 14 12 56 50 38 53 49 38 54 44 35 55 15 13 55 4 3 39 3 3 57 5 7 58 35 27 54 44 34 55 47 36 53 45 34 55 15 13 55 5 4 54 4 3 56 4 6 56 5 4 56 4 6 55 5 6 55 5 4 54 6 6 45 7 6 42 7 5 43 8 6 46 7 8 56 6 7 56 6 7 49 14 12 17 3 3 16 2 2 56 4 6 59 5 5 17 17 15 11 9 10 6 6 6 7 7 7 5 5 5 4 4 4 4 4 2 3 3 3 4 2 3 4 4 4 7 7 7 7 7 7 8 8 8 8 8 8 12 8 7 20 8 10 23 9 9 19 9 8 9 9 9 8 6 9 10 10 12 8 6 7 5 5 5 7 7 7 
4 4 4 8 6 7 6 6 6 8 8 6 6 6 6 7 7 9 9 7 8 7 7 7 8 6 7 10 9 7 11 10 6 8 8 6 7 7 7 6 6 4 7 6 4 7 7 7 7 7 7 7 7 7 6 6 6 5 5 5 5 5 5 14 13 11 56 48 37 57 44 36 55 9 9 57 9 9 55 7 7 57 7 8 57 5 7 57 7 6 57 7 6 52 8 9 56 8 8 56 6 5 56 8 6 58 10 10 57 8 11 55 11 10 57 13 12 57 13 12 57 9 9 57 9 9 58 8 11 57 6 5 54 16 13 56 48 37 57 50 40 57 48 39 57 50 40 57 3 3 3 3 3 49 3 3 57 7 8 57 38 32 55 41 32 55 41 30 56 16 14 55 5 4 55 4 3 55 5 6 56 5 4 55 4 3 56 6 5 55 5 6 37 5 6 6 8 7 8 6 7 7 7 7 21 7 7 57 9 9 56 18 15 56 43 35 54 8 8 57 3 3 56 5 4 58 4 2 55 50 44 11 11 11 7 5 6 6 6 6 7 5 8 4 4 2 4 4 2 5 5 3 3 5 4 6 4 5 8 8 8 8 8 8 9 9 9 9 9 9 22 8 8 49 7 8 51 9 10 43 9 10 9 9 7 8 8 6 9 7 8 6 6 4 4 6 5 7 7 5 
5 5 3 6 8 5 6 8 7 6 6 6 7 7 7 7 7 7 8 8 8 9 7 8 7 7 7 36 8 7 24 8 8 8 8 8 7 9 8 6 6 6 7 7 7 6 6 6 7 7 7 9 9 9 6 6 6 5 5 5 5 5 3 14 13 11 50 37 31 56 10 10 56 10 10 57 9 7 57 7 10 58 10 10 56 6 5 56 6 7 56 8 8 21 7 7 46 8 7 52 6 6 53 7 7 57 9 9 58 8 9 57 29 25 58 49 42 59 50 43 57 33 29 57 7 6 57 6 5 57 6 5 57 17 15 54 50 38 56 49 39 57 50 40 57 44 35 56 5 4 5 3 4 3 3 3 49 5 6 55 5 4 55 5 8 56 6 5 56 6 7 55 5 6 55 4 3 56 6 5 54 4 3 56 5 2 55 5 4 56 6 5 36 6 4 7 5 6 6 8 7 7 7 5 19 7 7 55 17 14 56 46 37 53 43 33 54 40 31 55 4 1 57 3 3 56 5 4 58 45 39 19 18 16 5 5 3 6 6 8 6 6 6 4 4 4 5 5 5 7 5 6 5 5 5 7 5 6 7 7 7 8 8 6 9 9 9 9 9 7 8 8 6 8 8 6 9 9 9 9 9 9 8 8 8 7 7 7 7 7 9 6 6 6 4 4 6 4 4 2 
7 7 7 7 7 7 7 7 5 6 6 6 7 7 7 8 6 7 7 7 7 7 7 7 7 7 7 9 7 8 10 8 9 8 8 8 6 8 7 6 6 6 5 5 5 5 5 5 7 7 7 7 7 7 6 6 6 6 6 6 7 7 7 9 9 9 16 12 13 55 11 12 59 9 10 55 5 6 56 8 6 56 8 6 58 8 9 58 8 7 58 14 13 26 12 12 45 11 10 30 12 12 41 11 9 58 9 12 59 9 10 56 31 26 58 51 43 57 50 40 57 36 31 55 9 9 56 6 5 57 6 5 55 13 14 55 45 36 57 44 36 57 38 32 57 7 6 56 5 2 3 3 3 9 4 1 48 4 5 56 6 7 55 5 6 56 7 3 57 6 5 56 4 6 55 3 5 56 5 4 55 4 3 55 7 3 55 11 10 54 10 9 38 8 8 6 6 4 7 7 7 7 7 7 19 7 7 56 18 17 56 46 37 55 45 35 54 40 29 54 4 3 56 5 4 54 6 4 57 6 5 59 40 34 12 13 8 7 7 7 6 6 4 3 5 2 5 5 5 5 5 5 6 6 4 6 8 7 7 9 8 9 9 7 10 9 7 9 9 9 6 6 6 7 7 7 9 7 8 9 9 9 7 7 7 6 6 6 6 6 4 5 5 3 5 5 5 2 4 3 
6 6 6 7 9 8 7 7 5 6 6 6 7 7 7 7 7 7 6 6 8 7 7 7 7 7 7 8 8 8 8 8 8 7 9 6 7 7 7 5 5 3 6 6 4 6 6 6 7 7 7 7 7 7 7 7 7 7 7 7 8 8 8 10 10 10 16 10 12 58 8 11 56 8 8 55 7 7 55 7 5 57 9 9 57 7 8 58 8 7 57 43 34 58 54 45 57 50 42 58 51 41 56 50 38 57 24 19 58 8 9 58 30 26 57 53 44 57 53 44 57 50 42 55 34 29 58 6 8 56 6 5 54 4 5 55 4 3 57 6 5 57 7 8 58 8 7 56 5 4 3 3 5 53 3 2 56 5 2 55 7 7 55 5 6 56 4 6 58 4 4 55 5 4 55 6 2 55 4 3 56 5 2 55 28 21 53 49 37 56 46 36 37 30 22 8 8 8 7 7 7 7 7 7 19 7 7 54 16 15 55 48 38 56 48 37 54 40 29 55 4 3 54 4 3 55 5 4 56 6 5 56 6 5 12 6 8 7 5 6 5 5 5 4 4 4 3 3 3 3 5 4 6 6 4 7 7 7 8 8 8 8 8 8 8 10 7 8 8 8 8 8 10 8 6 7 9 9 9 10 10 10 8 8 10 7 7 7 5 7 6 5 5 5 4 4 4 3 3 3 
9 8 6 9 7 8 9 8 6 7 7 5 6 6 4 8 8 8 7 7 7 6 6 6 7 7 9 10 10 8 8 8 10 6 6 6 7 7 5 7 5 6 7 7 7 6 6 4 7 7 7 8 8 8 9 9 9 8 8 8 8 8 8 10 8 9 9 9 9 7 7 5 56 46 37 58 6 8 55 7 7 55 7 5 56 7 10 58 8 9 58 43 36 57 54 45 56 54 42 55 51 40 56 23 18 58 8 7 59 9 10 57 29 25 57 53 44 58 51 43 56 33 27 56 7 3 57 7 6 56 4 8 56 6 5 58 3 6 57 7 6 57 7 6 56 6 7 55 5 4 55 4 3 58 4 4 56 4 8 55 7 5 56 6 5 56 39 31 57 50 42 56 15 13 56 4 6 56 4 6 55 5 6 55 26 22 54 44 34 53 45 34 53 45 32 56 31 26 56 8 6 56 8 6 55 5 6 56 16 16 57 48 41 57 49 38 54 42 30 54 4 7 55 5 4 57 7 6 6 6 6 5 6 8 6 6 6 6 6 6 7 7 9 6 4 5 3 5 4 4 4 4 6 6 6 6 6 6 9 7 8 8 8 8 7 7 7 8 8 8 8 8 8 7 7 7 8 6 7 10 10 10 10 10 10 7 7 5 4 4 4 3 3 3 4 4 6 4 4 4 
8 8 10 7 7 9 8 8 8 12 8 9 7 6 4 7 7 7 9 7 8 7 5 6 8 8 6 9 9 9 7 7 7 5 5 7 8 6 7 8 6 7 6 6 6 6 6 6 7 7 7 7 7 7 11 11 11 17 17 17 15 15 15 6 5 3 6 8 7 5 5 5 4 4 4 57 50 40 57 7 8 51 7 6 52 7 4 59 7 9 57 42 35 56 54 42 57 53 42 58 51 41 57 23 21 57 9 9 58 8 9 58 8 9 57 7 6 57 7 8 55 7 7 58 6 8 57 5 7 57 6 5 57 6 5 55 6 2 56 6 9 55 7 7 56 6 7 55 5 4 55 4 3 56 5 4 57 6 5 55 5 4 54 44 34 56 50 38 57 50 42 57 16 14 57 6 5 56 6 5 56 6 5 55 26 20 54 44 35 54 41 32 55 43 31 57 30 23 56 6 7 56 6 5 56 4 6 55 5 6 54 6 4 54 4 3 53 3 2 55 4 1 57 5 7 55 5 6 5 5 5 7 7 7 6 6 6 6 6 6 5 7 4 5 5 5 3 3 5 5 3 4 6 4 5 6 6 4 6 6 4 6 6 6 6 8 7 9 9 9 8 7 5 7 7 7 7 7 7 10 10 12 10 10 8 9 7 10 5 5 7 7 6 4 5 5 5 5 5 5 
8 8 8 8 8 8 9 9 9 8 8 8 7 9 8 7 7 7 7 7 9 8 8 8 8 8 8 8 8 6 5 7 6 5 5 5 5 5 5 5 5 5 7 5 8 6 6 4 7 7 5 6 8 7 11 11 11 20 20 20 19 19 21 4 4 6 4 4 4 5 7 6 4 4 4 6 6 6 7 7 7 46 6 6 54 6 4 57 6 5 56 42 33 56 52 41 57 53 42 56 22 20 57 6 5 56 4 6 57 9 7 58 8 9 55 7 7 54 6 6 56 6 7 56 6 7 57 7 6 56 6 9 57 7 8 56 8 6 58 12 12 57 48 39 57 50 40 56 49 39 57 6 5 54 6 4 56 5 4 55 6 9 58 45 37 55 51 40 55 51 40 56 52 43 58 24 22 57 7 8 56 6 5 55 5 6 55 26 22 56 43 35 56 29 22 55 5 6 56 4 6 55 5 4 56 5 4 55 3 5 54 3 2 55 3 5 55 5 4 54 4 5 54 4 5 5 5 5 5 5 5 8 8 8 8 8 10 6 6 6 8 6 7 5 5 5 3 3 3 3 3 3 5 5 3 7 7 5 6 6 6 7 7 9 5 6 8 7 7 7 7 7 7 7 5 6 8 8 8 11 11 11 10 10 10 11 11 11 9 9 9 8 8 8 6 6 6 4 4 4 
49 7 8 9 7 8 9 9 9 9 9 9 8 8 10 7 7 7 7 7 7 8 8 8 8 8 8 7 7 7 7 7 7 6 6 6 5 5 7 6 6 4 6 6 4 7 7 5 7 7 9 7 7 7 12 12 12 22 24 23 23 21 22 6 6 8 3 3 3 6 4 5 4 6 5 6 6 6 6 6 4 12 7 4 50 6 7 57 7 8 57 11 11 56 12 9 58 12 14 57 9 9 57 7 6 55 5 4 55 7 7 55 9 9 58 8 9 56 6 7 56 6 5 57 7 8 57 7 6 56 8 8 57 9 9 56 8 8 56 12 11 56 49 39 56 49 39 56 48 37 56 43 34 56 6 5 57 6 5 57 7 6 57 44 35 58 52 40 55 52 43 55 51 42 56 25 22 57 9 9 56 8 8 55 5 4 55 7 7 54 8 8 55 7 5 55 6 2 55 5 4 55 5 6 55 5 4 55 5 4 53 3 4 55 4 3 55 5 6 54 6 6 11 5 5 4 4 4 6 6 6 10 10 8 7 9 8 7 7 7 6 6 6 5 5 5 4 4 4 4 2 3 5 5 7 7 7 7 7 7 5 7 7 7 7 7 7 6 8 7 6 6 6 6 8 5 9 9 9 11 11 11 10 10 10 11 11 11 10 10 10 8 8 8 5 5 5 5 5 5 
52 6 8 50 8 9 13 7 7 8 8 8 9 7 8 7 7 7 7 7 7 8 8 8 8 8 8 8 8 8 8 6 7 7 7 7 6 6 6 7 7 5 6 8 7 10 6 5 7 7 7 7 7 7 11 11 13 20 20 20 21 21 21 9 9 11 4 4 6 5 5 5 5 5 5 6 6 8 7 7 7 6 6 6 15 6 7 50 8 9 56 8 8 57 7 8 57 7 6 56 6 7 55 5 4 55 5 6 56 8 6 54 10 11 58 10 10 57 22 20 56 43 34 56 44 30 57 34 26 54 9 6 55 7 7 56 8 8 56 12 11 53 47 35 55 49 35 55 47 36 55 47 36 57 6 5 55 7 5 57 7 8 56 12 13 57 42 35 57 50 40 56 21 17 56 10 10 57 7 6 56 6 5 57 5 7 56 4 8 55 3 5 55 5 4 55 5 4 55 5 4 54 4 3 54 4 5 55 7 7 55 11 10 54 42 30 49 36 27 15 6 7 8 7 5 6 6 6 8 8 8 10 10 8 9 7 8 7 7 7 8 6 7 5 5 5 38 4 3 49 5 4 21 7 7 7 7 7 7 7 7 5 7 6 5 7 4 7 7 7 6 6 6 7 7 7 9 9 9 11 11 11 9 9 9 10 10 10 10 10 10 7 7 7 6 6 6 5 5 5 
55 5 4 55 7 5 12 6 6 7 7 5 6 6 6 7 7 7 6 6 6 6 6 4 7 7 7 5 5 5 7 7 9 6 6 6 7 5 8 6 6 6 7 7 7 7 7 5 8 6 9 5 5 5 11 9 10 17 17 17 16 16 16 8 8 10 5 5 5 7 7 7 5 5 5 7 7 7 9 7 8 8 7 5 9 9 9 50 8 9 57 7 6 55 5 6 56 6 7 55 5 4 55 5 4 56 5 4 55 7 7 56 8 8 55 9 11 58 23 17 41 34 26 15 14 12 15 14 12 25 10 7 56 8 8 56 8 8 58 14 13 54 44 34 56 46 34 55 45 33 57 12 9 55 5 6 56 4 6 57 5 7 56 6 7 57 9 7 57 13 12 56 8 8 28 6 8 13 7 7 42 6 6 54 4 5 56 5 4 54 4 5 55 5 4 54 6 2 54 4 5 54 4 5 54 6 6 57 5 7 53 11 12 50 41 32 13 12 10 7 7 9 7 7 7 7 7 7 8 8 8 8 8 8 8 8 8 6 8 7 6 8 7 40 36 25 52 12 10 55 5 6 53 7 7 24 8 8 8 8 8 7 5 6 5 3 4 7 7 7 9 7 10 7 7 7 9 9 9 10 10 10 8 8 8 7 7 7 9 9 9 8 8 8 5 5 5 6 6 6 
55 40 33 56 39 29 45 38 28 10 10 8 5 5 5 6 6 6 6 6 6 7 5 6 6 6 6 6 6 6 6 6 6 6 6 6 8 6 9 7 7 7 7 7 7 8 8 8 20 4 4 34 4 4 9 7 8 15 15 15 14 14 14 6 6 6 6 6 4 7 7 7 7 5 6 9 8 6 8 8 8 8 8 8 8 7 12 49 5 6 55 5 6 56 6 7 57 30 23 56 39 31 56 38 28 55 20 16 56 6 7 57 7 8 54 9 6 54 23 18 50 41 32 31 31 23 10 10 10 20 8 8 55 7 7 55 7 7 55 9 11 55 15 13 57 17 15 54 16 13 55 7 7 55 5 4 55 3 5 57 7 6 56 6 5 57 6 5 56 6 7 27 6 5 9 5 4 5 5 7 37 3 2 55 4 3 54 4 5 55 21 19 55 36 29 53 33 26 54 23 20 55 5 6 56 4 6 55 5 6 53 12 10 50 40 31 7 7 5 7 7 7 7 7 7 7 7 9 7 7 7 8 8 8 8 8 8 38 8 8 44 5 8 52 12 10 55 7 7 54 4 5 56 6 5 26 8 8 8 8 8 8 8 8 7 7 7 7 7 7 9 9 9 10 10 10 9 9 9 8 8 8 8 8 8 8 8 8 8 8 8 8 8 8 6 6 6 4 4 4 
58 55 46 54 50 39 57 49 36 10 10 8 5 5 3 5 5 5 7 7 7 6 4 7 5 5 5 4 4 4 5 5 5 6 6 6 7 7 7 6 6 8 7 7 9 7 7 7 11 5 5 15 5 3 7 7 7 13 13 13 15 13 14 6 6 6 6 4 5 8 6 7 7 7 7 8 6 7 7 9 8 9 9 9 10 10 10 49 7 8 56 4 6 56 29 22 55 47 36 55 48 38 55 48 38 56 23 18 56 6 7 57 7 8 54 8 8 54 25 19 57 49 38 52 48 37 45 36 29 49 9 10 56 8 8 58 8 7 55 7 7 56 8 8 54 8 8 57 9 9 55 5 6 55 5 4 54 6 4 54 6 6 55 7 7 56 8 6 56 6 7 46 4 5 44 6 5 44 5 6 53 3 2 55 4 3 55 5 6 55 24 19 55 45 36 54 44 34 57 40 32 54 29 22 55 5 4 55 5 6 54 10 9 52 42 33 39 32 24 7 7 7 8 8 8 7 7 7 7 9 6 8 8 8 39 8 6 56 6 5 57 5 7 55 5 6 54 4 5 54 4 5 35 7 6 12 8 7 8 8 8 8 8 10 8 8 8 9 7 8 10 10 8 10 8 9 9 9 9 7 7 7 8 8 8 8 8 8 8 8 8 9 9 9 7 7 7 5 5 5 
56 56 46 57 53 41 56 52 41 13 13 11 6 6 6 6 6 6 7 7 7 5 5 5 4 4 4 5 5 5 4 4 4 6 6 6 7 7 7 5 5 5 7 7 7 7 7 7 6 8 7 7 5 6 7 7 7 11 11 11 12 12 12 8 6 7 6 6 6 8 8 6 9 9 9 9 9 9 9 9 7 9 9 9 9 9 7 22 8 7 47 7 7 56 39 29 57 48 39 57 49 38 57 50 40 57 24 19 57 7 8 56 6 7 57 9 9 56 15 13 59 31 27 56 41 34 58 18 18 57 11 11 57 9 7 57 7 8 56 8 8 54 8 8 56 8 8 58 8 9 56 8 6 56 6 7 57 6 5 56 4 6 56 8 6 55 7 7 55 30 25 56 37 30 55 36 29 55 20 16 54 4 3 55 3 5 54 4 5 55 24 19 57 44 35 54 44 34 55 46 37 53 39 30 54 4 5 54 6 4 54 8 8 54 19 17 51 38 29 43 4 5 7 7 9 8 8 8 43 7 7 44 5 6 57 7 8 58 8 9 55 5 6 56 5 4 27 6 5 40 6 5 25 7 5 6 8 5 8 8 8 9 7 10 8 8 8 8 8 8 9 9 7 9 7 8 8 8 8 6 6 6 7 7 7 8 8 8 8 8 8 8 8 8 8 8 8 6 6 6 
56 53 46 57 53 42 59 52 42 13 12 10 7 5 6 8 7 5 5 5 5 4 4 4 4 2 5 6 4 5 5 5 5 7 5 6 6 6 6 6 4 7 5 5 5 7 5 6 8 6 7 7 7 7 7 7 7 7 7 7 10 8 9 5 5 5 8 8 8 9 9 9 10 10 8 8 8 6 10 8 9 10 10 12 9 11 10 9 9 9 20 8 8 50 16 14 56 43 34 56 49 39 56 33 27 56 12 9 56 8 6 56 8 6 58 8 7 57 8 11 58 18 16 56 20 20 57 11 11 56 12 11 55 9 9 57 7 8 56 8 8 53 7 7 55 7 7 53 7 7 56 31 27 54 4 3 54 4 3 55 5 4 56 6 7 57 7 8 59 36 30 55 47 34 54 46 35 54 21 14 54 4 5 54 4 5 54 4 3 55 14 12 54 29 22 52 44 33 55 37 27 54 19 17 56 6 7 56 8 8 56 6 7 54 8 8 53 18 14 56 6 7 37 9 6 36 8 7 56 6 5 55 5 6 55 7 7 56 8 6 56 6 7 57 28 22 19 11 9 18 6 6 12 6 6 7 7 9 6 8 7 12 8 9 9 9 7 8 8 8 8 6 7 6 6 6 7 7 7 7 7 7 6 6 6 7 7 7 8 8 8 7 7 7 7 7 7 6 6 6 
55 24 22 55 24 21 56 23 18 11 7 6 6 6 4 7 5 6 5 4 2 4 4 4 5 5 5 4 4 4 5 5 5 6 4 5 5 5 5 4 4 4 4 4 4 5 5 5 6 6 6 6 6 6 6 6 6 6 6 6 6 6 6 6 6 6 5 5 5 7 7 7 8 8 8 8 8 8 8 8 8 10 10 10 9 9 9 6 10 9 10 10 8 18 6 6 23 15 12 42 21 16 56 11 8 59 5 5 56 6 7 56 6 5 56 6 7 56 8 8 56 10 10 56 10 12 55 9 11 57 11 13 56 8 8 56 6 7 58 8 9 55 7 7 54 6 6 53 30 24 56 48 37 54 31 23 55 7 7 54 4 5 54 6 6 54 6 6 52 32 25 55 42 33 54 44 32 56 21 19 54 6 6 56 6 7 55 5 6 53 5 5 54 10 7 54 20 11 55 15 13 56 7 10 55 6 9 55 7 5 53 7 9 55 7 7 55 3 5 55 5 4 55 7 7 56 6 7 55 3 5 57 7 8 56 8 8 57 7 6 57 29 25 55 45 36 17 16 14 5 5 3 6 6 6 7 7 7 8 6 7 9 7 8 7 7 7 7 7 7 6 6 6 6 6 6 5 5 5 6 6 6 6 6 6 6 6 6 7 7 7 5 5 5 7 7 7 10 10 10 
56 8 8 55 7 5 56 6 7 12 6 6 6 6 6 6 4 5 4 4 4 3 5 4 4 4 2 6 4 5 5 3 6 5 5 5 6 6 6 4 4 4 4 4 4 4 4 4 5 5 5 5 5 5 6 6 6 5 5 5 5 5 5 5 5 5 3 3 3 5 5 5 7 7 7 7 7 7 8 8 8 8 8 8 8 8 8 7 7 9 10 8 11 9 7 8 6 4 5 16 4 4 44 5 8 56 6 7 56 6 7 58 6 8 56 6 7 56 8 8 56 8 8 56 8 8 56 16 14 56 25 22 56 6 7 56 6 5 55 7 7 57 9 7 54 29 22 53 45 34 55 49 35 54 46 35 55 32 24 55 7 7 55 7 7 55 7 7 54 29 22 54 42 30 55 30 23 55 11 10 56 6 7 54 4 3 54 5 1 54 6 6 53 5 5 54 3 2 55 4 3 59 11 11 55 9 9 56 8 6 56 8 6 54 6 4 56 5 4 55 5 4 55 35 28 55 37 27 56 6 5 57 7 8 57 9 9 57 7 10 57 40 33 56 49 39 17 16 14 7 6 4 6 6 6 7 7 7 9 7 8 8 6 7 7 7 7 6 6 6 6 6 6 5 5 5 5 5 5 6 6 6 6 6 6 6 6 6 6 6 6 4 4 4 7 7 7 9 9 9 
32 8 6 32 8 8 52 6 6 35 6 8 31 7 7 11 5 5 4 4 2 8 3 7 5 5 5 5 5 7 5 5 5 5 5 5 7 7 7 4 4 4 3 3 3 4 4 4 5 5 5 5 5 5 5 5 5 6 6 6 5 5 5 5 5 5 4 4 4 5 5 5 6 6 6 7 7 7 7 7 7 7 7 7 9 7 8 7 7 7 8 8 8 7 7 7 5 5 5 5 5 7 21 5 5 47 7 7 54 6 6 54 2 6 56 5 4 56 6 7 55 14 12 57 27 25 56 33 27 56 43 34 56 23 16 55 7 5 55 5 6 56 8 8 55 25 17 53 45 32 53 45 34 55 45 33 55 26 20 54 6 6 54 6 6 56 8 8 54 19 15 54 25 19 57 13 12 56 6 5 56 6 5 56 4 6 55 5 4 55 5 6 54 4 3 53 3 2 45 5 5 39 9 9 55 9 11 55 7 7 53 7 7 54 6 6 55 7 5 55 28 21 55 51 39 56 52 40 54 4 3 57 5 7 56 8 8 56 8 6 54 39 32 37 34 29 12 11 9 6 4 5 6 6 6 8 8 8 9 7 8 7 5 6 7 7 7 6 6 6 5 5 5 6 6 6 7 5 6 8 8 8 7 7 7 7 7 7 5 5 5 5 5 5 6 6 6 9 7 8 
6 8 7 8 8 8 51 26 21 57 28 24 57 29 25 36 11 7 13 4 5 24 5 7 30 16 15 13 12 10 4 4 2 5 5 5 5 5 5 4 4 4 4 4 4 4 4 4 6 6 6 6 6 6 5 5 5 6 6 6 5 5 5 5 5 5 5 5 5 6 6 6 6 6 6 7 7 7 7 7 7 8 8 8 8 8 8 7 5 6 5 5 5 6 6 6 6 4 5 7 5 6 7 7 7 24 6 6 44 5 6 57 6 5 56 6 5 56 6 7 57 24 19 55 46 37 56 47 38 55 49 35 56 39 31 55 5 4 53 7 7 55 7 7 56 5 4 54 25 17 54 25 17 54 25 21 54 6 6 54 4 5 56 8 8 55 7 7 56 8 8 55 7 7 54 6 6 56 8 8 56 6 7 54 6 6 55 5 6 55 5 6 55 5 4 44 2 3 22 4 4 14 8 8 38 8 8 56 8 8 55 5 6 54 6 6 54 10 9 56 46 36 56 50 38 55 48 38 56 27 21 54 8 8 57 8 11 56 8 8 37 23 20 14 13 11 6 4 5 5 3 4 6 4 5 7 7 7 6 6 6 7 5 6 5 5 5 6 6 6 5 5 5 6 6 6 7 7 7 8 8 8 8 8 8 7 7 7 4 4 4 5 5 5 5 5 5 4 4 4 
7 5 6 33 30 23 54 48 36 57 51 37 56 52 40 56 16 16 37 3 4 50 4 6 55 17 14 24 13 11 6 6 6 5 5 5 4 4 4 4 4 4 5 5 5 4 4 4 5 5 5 6 6 6 5 5 5 6 6 6 7 7 7 7 7 7 7 7 7 7 7 7 7 7 7 7 7 7 8 8 8 8 8 8 8 6 7 5 5 5 4 4 4 6 4 5 7 6 4 7 5 6 7 7 7 8 6 7 31 17 14 56 16 14 55 7 7 57 7 8 57 23 21 55 46 37 55 47 36 54 48 36 56 38 28 56 5 4 56 6 7 54 6 6 56 6 7 54 6 6 31 6 9 55 5 4 53 3 4 54 4 5 55 5 6 57 7 8 55 5 6 54 4 5 54 6 6 56 8 8 54 6 6 54 6 4 55 5 6 55 3 5 54 13 11 36 18 16 5 5 5 5 5 5 19 7 7 55 7 7 56 6 5 54 4 5 55 7 5 54 25 21 56 48 37 56 48 37 54 27 20 55 7 5 55 7 7 56 8 8 18 6 6 7 7 5 6 6 6 5 5 3 6 4 5 5 5 5 5 5 5 5 5 5 6 6 6 6 6 6 6 6 6 7 7 7 9 9 9 9 9 9 8 8 8 5 5 5 5 5 5 5 5 5 4 4 4 4 4 4 
27 7 8 56 37 30 55 45 35 57 48 39 55 51 39 57 16 14 54 4 5 55 7 5 56 8 6 26 7 9 6 8 5 4 4 4 3 3 3 3 3 3 4 4 4 4 4 4 4 4 4 6 6 6 5 5 5 6 6 6 7 7 7 8 8 8 8 8 8 8 8 8 8 8 8 8 8 8 7 7 7 6 6 6 6 6 6 4 4 4 5 5 5 6 6 6 7 7 7 8 6 7 7 7 7 7 7 7 31 30 25 55 30 25 57 9 9 57 9 9 57 19 16 56 37 31 55 45 35 54 40 31 55 26 20 55 5 4 56 6 5 56 6 7 55 5 6 54 6 6 22 6 6 55 5 4 54 4 3 54 4 3 56 6 7 56 6 7 55 5 6 54 6 6 55 15 13 55 20 16 51 20 15 54 13 11 55 5 6 56 5 4 56 16 14 41 28 22 19 15 14 11 11 9 31 17 14 56 5 4 54 4 3 54 4 5 54 4 3 53 5 5 55 32 26 53 34 27 54 6 6 55 5 4 55 7 7 56 8 8 35 7 6 11 7 6 6 6 6 4 5 7 4 4 4 5 5 5 6 6 6 6 6 6 7 7 7 7 7 7 7 7 7 9 9 9 11 9 10 9 9 9 7 7 7 6 6 6 6 6 6 5 5 5 4 4 4 6 4 5 
57 7 6 56 6 7 56 43 34 56 49 39 57 51 37 56 16 14 56 6 5 56 8 8 44 10 9 21 9 9 7 7 7 5 5 7 3 3 3 3 3 3 4 4 4 4 4 4 4 4 4 5 5 5 6 6 6 6 6 6 6 6 6 8 8 8 8 8 8 9 9 9 8 8 8 8 8 8 6 6 6 5 5 5 3 3 1 3 3 3 4 4 4 7 7 9 8 10 9 9 7 8 8 6 7 8 8 8 25 21 18 47 22 18 56 8 8 57 9 7 55 9 9 56 16 14 53 28 21 54 23 18 54 4 5 55 5 4 57 7 6 56 6 7 53 5 5 54 6 4 55 5 6 55 3 5 54 4 3 55 5 4 56 6 7 56 6 7 55 3 5 55 5 6 55 30 23 54 44 32 54 44 32 55 24 19 55 5 6 57 7 6 56 8 8 55 21 19 41 37 26 29 29 21 55 38 30 54 4 3 55 5 6 53 5 3 54 4 5 56 5 2 57 5 7 57 7 8 54 5 8 54 4 3 54 6 4 55 7 7 56 8 6 18 8 7 7 7 7 5 5 5 4 4 4 5 5 5 6 6 6 7 7 7 7 7 7 7 7 7 8 8 8 8 10 9 10 10 10 10 10 10 8 8 8 7 7 7 8 8 8 6 6 6 6 6 6 8 8 8 
55 7 7 57 5 7 55 30 25 56 33 27 53 33 26 54 13 11 56 6 5 55 9 9 29 11 11 8 8 8 7 7 7 4 4 4 4 4 4 4 4 4 4 4 4 5 5 5 5 5 5 5 5 5 5 5 5 5 5 5 6 6 6 8 8 8 7 7 7 7 7 7 7 7 7 5 5 5 5 5 5 4 4 4 3 3 3 3 3 1 6 6 6 9 7 8 9 9 9 7 9 8 7 7 7 8 10 9 10 10 12 24 8 9 47 9 8 56 8 8 57 9 9 55 7 7 55 7 5 54 4 3 56 6 7 55 5 6 55 5 6 56 6 7 54 6 6 54 6 6 55 20 18 55 20 16 53 20 13 57 7 8 55 5 6 55 5 6 56 4 8 54 4 5 54 29 22 55 45 35 53 43 31 55 24 19 55 7 5 54 8 8 54 8 8 57 15 16 53 33 26 53 33 26 56 28 24 56 4 6 55 5 6 54 4 5 52 4 4 55 5 4 55 7 7 55 7 7 56 6 7 55 7 7 56 4 6 53 7 7 55 7 7 34 8 9 24 19 16 12 11 7 4 4 4 5 5 5 6 6 6 7 7 7 9 7 8 9 7 8 7 7 7 6 10 9 9 9 9 10 10 10 8 8 8 8 8 8 8 8 8 7 7 7 8 8 8 10 10 10 
55 5 4 56 5 4 55 5 4 54 4 5 53 4 7 56 8 6 55 7 7 47 7 5 18 6 8 8 8 6 6 6 6 5 5 5 4 4 4 3 5 0 4 4 2 5 5 5 5 3 4 6 4 5 7 5 6 4 4 6 5 5 5 6 6 6 5 5 5 5 5 5 6 6 6 5 5 5 4 4 4 4 4 4 4 4 4 6 6 6 7 7 7 9 9 9 9 9 9 6 6 6 7 7 7 8 8 8 9 9 9 8 8 8 26 6 5 42 7 5 48 8 8 56 8 6 55 5 6 55 7 7 54 14 12 56 15 11 56 4 6 56 8 8 56 8 8 55 6 9 57 47 37 54 46 35 55 45 35 54 19 15 54 8 10 54 6 6 55 5 6 54 4 3 53 24 18 53 39 28 55 42 33 53 26 19 55 7 7 55 7 7 54 9 6 57 7 8 55 7 7 55 5 6 54 4 5 54 6 6 54 6 6 54 4 5 54 3 2 54 4 3 55 7 5 56 8 8 55 17 14 56 10 10 56 6 7 55 7 7 55 5 6 57 9 9 56 37 30 30 25 21 18 14 11 16 11 8 12 6 6 6 8 5 6 8 7 7 9 8 8 8 10 9 7 8 10 8 9 10 8 9 8 8 8 7 7 9 8 8 8 7 7 7 7 7 7 11 11 11 
55 5 6 54 6 4 55 5 6 54 6 6 55 5 4 57 7 8 56 8 6 19 5 5 6 6 6 7 7 7 7 7 7 6 4 5 5 5 3 6 4 5 5 5 5 6 6 6 5 5 5 5 5 5 6 4 5 5 5 3 5 5 5 4 4 4 5 5 5 5 5 5 5 5 5 4 4 4 5 3 4 5 5 5 6 6 6 8 6 7 7 7 7 9 9 9 10 8 9 9 9 9 7 7 7 8 8 8 8 8 8 6 6 6 6 6 8 6 6 6 23 7 7 44 9 7 47 7 7 54 23 18 55 49 37 55 42 33 54 16 13 55 7 7 55 7 7 56 8 8 56 50 38 56 48 37 55 45 35 54 46 33 54 10 7 55 5 6 55 3 5 54 4 3 55 5 6 55 24 19 54 34 27 55 20 16 55 7 7 55 7 7 57 9 9 55 6 9 56 6 7 55 5 6 56 6 7 54 4 5 54 4 5 54 4 3 55 4 1 54 4 3 56 6 7 54 19 15 57 50 40 54 20 18 54 8 8 55 5 6 57 7 8 56 8 8 55 35 28 54 45 36 55 49 37 55 22 17 37 5 6 21 7 7 14 5 6 7 7 7 8 8 8 9 9 7 9 9 9 9 9 9 9 9 9 11 9 10 10 8 9 8 8 8 7 7 7 9 9 9 
54 4 5 54 4 5 56 6 7 55 7 5 55 14 12 57 19 16 58 10 8 17 5 7 4 4 2 7 5 6 6 8 7 7 7 7 6 6 6 7 7 7 5 5 3 8 4 5 6 6 6 7 5 6 6 6 6 7 5 6 5 5 5 5 5 5 4 4 4 5 3 4 5 5 5 5 5 5 5 3 4 6 6 6 7 7 7 7 7 7 7 7 7 9 9 9 10 10 10 7 7 7 6 6 6 7 7 7 6 4 5 4 4 4 5 5 5 6 6 6 6 6 6 8 8 8 16 14 15 46 39 29 55 47 36 54 48 36 54 42 30 55 7 7 55 7 5 56 8 8 57 40 32 55 49 37 57 49 38 56 41 36 53 8 5 55 5 4 56 4 8 54 4 5 54 4 5 54 4 5 55 5 6 54 8 8 55 7 7 56 6 9 55 7 7 55 7 7 54 6 6 53 8 5 55 15 13 55 14 12 56 4 6 54 4 5 55 3 5 55 3 5 55 5 8 57 50 40 57 50 40 55 48 38 55 11 10 55 5 4 56 6 7 55 7 7 55 35 28 55 45 35 55 47 36 56 23 18 56 8 8 56 8 8 31 7 7 7 7 7 7 7 9 8 8 8 9 7 10 10 10 10 10 8 9 9 9 9 11 10 8 7 7 7 9 8 13 8 8 8 
53 5 5 55 5 4 56 6 5 55 11 10 54 44 35 58 51 41 56 23 18 19 5 4 5 5 3 7 7 7 7 7 7 6 8 7 8 8 8 7 5 6 5 5 3 6 6 6 8 6 7 8 6 7 6 6 6 6 6 6 6 6 6 6 6 6 4 4 4 5 5 5 4 4 4 4 4 4 7 7 7 7 7 7 7 7 7 7 7 7 7 7 7 9 9 9 9 9 9 6 6 6 6 4 5 6 6 6 5 5 5 6 6 6 6 6 6 6 6 4 7 5 6 7 7 7 6 6 6 13 12 10 51 44 34 55 47 36 54 35 28 54 4 5 55 5 6 56 6 7 56 8 8 54 41 32 56 46 37 57 12 9 56 4 6 54 4 5 56 5 4 49 5 6 48 4 5 51 5 5 55 5 6 55 7 7 53 7 7 54 8 8 55 7 7 54 6 6 54 6 6 54 14 12 54 46 35 56 39 31 55 11 10 55 5 4 53 5 5 48 4 5 50 6 5 50 46 37 51 44 38 54 47 39 55 11 12 55 5 6 54 4 5 57 7 8 54 31 23 55 41 30 55 41 32 54 19 17 54 8 8 57 9 9 32 8 8 7 7 7 7 7 7 8 8 10 9 9 11 10 10 10 10 10 10 11 10 8 7 7 7 8 8 8 8 8 8 8 8 8 
51 5 5 55 5 6 56 6 7 54 44 34 53 51 38 56 52 41 55 51 42 18 17 15 5 5 7 7 7 7 7 7 9 9 7 8 6 8 7 7 6 4 6 6 6 6 6 8 5 5 5 7 7 7 8 8 8 6 6 6 5 5 5 4 4 4 4 4 4 4 4 4 5 5 5 4 4 4 5 5 5 7 7 7 7 7 7 10 8 9 7 7 7 7 7 7 7 7 7 6 6 6 5 5 5 5 5 5 6 6 6 8 6 9 8 6 7 7 7 7 7 5 8 5 5 5 6 6 6 5 5 5 17 12 9 56 36 27 54 6 6 54 6 6 55 3 5 56 6 7 56 8 8 56 8 6 56 6 7 57 7 6 57 5 7 54 4 5 53 5 5 24 6 6 9 5 6 35 6 8 54 8 8 54 10 9 54 10 9 54 8 8 55 7 7 54 6 6 56 8 8 55 17 14 54 46 35 54 47 37 56 41 34 55 5 6 41 5 5 4 6 3 5 5 5 7 7 9 6 8 7 50 43 35 57 11 13 55 5 6 53 5 5 56 8 8 56 6 7 55 7 7 56 6 7 54 6 6 58 8 9 57 9 9 32 8 6 7 7 5 7 7 7 8 8 6 9 9 9 10 10 8 9 9 9 10 10 10 9 8 6 8 7 5 9 7 8 8 6 7 
54 4 5 54 6 6 55 5 6 56 46 37 54 54 42 55 53 41 55 51 40 18 17 13 6 6 6 7 7 7 7 7 7 7 7 7 7 7 7 8 7 5 6 6 6 6 6 8 6 6 8 6 6 8 9 7 8 7 5 6 5 5 5 5 3 4 4 4 4 5 5 5 6 4 5 5 5 5 4 4 4 6 6 6 7 7 7 8 8 8 7 7 7 5 5 5 6 6 6 4 4 4 5 5 5 7 7 7 8 8 8 7 7 7 6 6 6 7 5 6 7 9 8 7 5 6 6 4 5 5 5 7 14 4 3 48 4 3 53 3 4 53 5 5 56 6 7 58 8 9 57 9 9 57 7 8 57 9 9 56 6 5 56 4 6 55 4 3 53 5 5 54 4 3 26 4 6 39 26 20 54 41 32 55 45 35 55 28 21 55 9 9 55 7 7 55 7 7 55 17 16 56 42 33 54 44 34 53 49 37 57 44 35 50 6 7 4 4 2 6 4 5 5 5 3 6 6 6 12 6 6 48 37 31 56 10 10 54 6 4 54 6 6 55 5 6 56 8 4 56 8 8 55 5 6 55 9 9 55 14 12 56 10 10 34 8 7 9 7 8 7 7 5 8 8 8 8 10 9 9 9 7 9 9 9 10 10 10 7 7 7 6 6 6 7 7 7 5 5 5 
53 3 4 55 5 4 55 7 5 55 45 35 57 50 40 56 49 39 56 50 38 18 17 15 7 7 7 9 7 10 8 8 8 7 7 9 8 8 8 7 7 7 7 7 7 6 6 4 7 7 7 8 8 8 9 7 8 7 5 6 5 5 5 6 4 5 4 4 4 4 4 4 4 4 4 4 4 4 5 5 5 5 5 5 6 6 6 7 7 7 7 7 7 6 4 5 5 5 5 5 5 5 6 4 5 7 7 7 8 8 8 7 5 6 5 5 5 6 6 6 10 8 9 8 6 7 6 6 6 5 5 3 4 6 5 10 4 4 54 4 3 56 6 5 56 8 4 55 9 9 57 9 9 56 6 7 56 8 6 56 6 5 56 4 6 58 3 6 55 5 6 55 3 5 55 3 5 57 29 25 54 46 35 55 47 36 56 48 37 55 28 21 53 7 7 55 7 7 54 4 5 54 14 14 53 44 35 54 50 38 54 44 34 50 6 7 5 5 7 4 4 6 6 4 5 6 6 6 55 7 7 56 6 7 56 6 5 54 6 4 54 5 8 53 5 5 56 6 5 57 7 8 56 8 8 56 32 28 55 51 39 55 30 25 55 6 9 38 6 7 8 8 6 9 9 7 9 9 9 8 7 12 10 10 10 10 10 10 7 7 7 7 7 7 7 7 9 5 5 5 
52 2 1 56 8 8 57 9 7 54 6 6 57 5 7 55 5 6 54 4 3 55 7 5 26 7 3 6 6 6 37 7 7 55 7 7 33 7 8 8 8 8 8 8 10 7 7 5 6 6 6 6 6 6 8 4 5 5 5 5 5 5 5 5 5 5 4 4 4 4 4 4 5 5 5 5 5 5 4 4 4 5 5 5 5 5 5 5 5 5 6 6 6 6 6 6 6 6 6 6 6 6 7 7 7 6 6 6 7 7 7 7 7 7 6 6 8 7 5 6 7 7 7 7 5 6 6 6 6 5 5 5 5 5 3 3 3 5 10 5 2 55 5 6 55 5 6 56 8 8 57 9 9 56 6 5 53 44 35 57 50 40 56 49 39 55 51 42 56 16 14 55 4 1 54 4 5 53 33 26 54 50 39 55 49 35 55 49 37 57 28 22 56 6 5 54 6 4 54 4 5 53 5 3 53 3 2 55 5 6 56 6 7 50 6 7 6 6 6 6 6 6 5 7 6 6 6 6 58 7 6 55 5 6 54 6 6 55 5 6 53 5 5 53 5 5 55 5 6 53 7 7 55 35 28 57 51 39 56 50 38 56 28 24 55 7 5 55 5 6 39 9 9 10 10 10 12 10 11 11 11 9 10 10 10 16 10 10 57 8 4 48 6 7 10 8 11 8 6 7 
