P3
100 50
255
9 9 9 6 6 6 7 7 7 7 7 7 5 5 5 6 6 6 7 7 7 8 8 8 8 8 8 8 8 8 7 7 7 8 8 8 7 7 7 7 7 7 9 9 9 9 7 8 7 7 7 6 6 6 7 7 7 6 6 6 3 3 3 3 3 3 8 8 8 8 8 8 7 7 7 8 8 8 9 9 9 9 8 13 10 8 9 7 5 6 6 6 8 8 6 7 11 9 10 15 13 14 13 11 12 7 7 9 7 7 7 7 7 7 9 9 9 9 9 7 9 9 9 10 10 10 10 10 10 9 7 8 8 8 8 7 7 7 9 7 8 9 9 9 9 9 9 6 6 6 6 7 9 6 6 4 7 5 6 6 4 5 5 5 5 5 5 5 7 7 7 9 9 9 8 8 8 7 7 7 6 6 6 5 5 5 6 6 6 6 6 6 6 6 6 5 5 5 5 5 5 5 5 5 5 5 5 5 5 5 4 4 4 5 5 5 6 6 6 6 6 6 7 7 7 8 8 8 7 7 7 6 6 6 7 7 7 7 7 7 4 4 4 5 3 4 5 5 5 5 5 5 6 6 6 7 7 7 9 7 8 9 9 9 9 9 9 8 8 8 9 9 9 8 8 8 6 6 6 5 5 5 5 5 5 5 5 5 6 6 6 7 7 7 9 9 9 8 8 8 
8 8 8 9 9 9 10 10 10 9 9 9 6 6 6 6 6 6 8 8 8 7 7 7 9 7 8 7 7 7 8 8 8 8 8 8 7 7 7 6 6 6 5 5 5 6 6 6 7 7 7 6 6 6 6 6 6 5 5 5 4 4 4 5 5 5 7 7 7 7 7 7 8 6 7 8 8 8 8 6 7 11 10 8 10 10 10 8 8 6 6 6 6 7 7 7 8 8 8 10 10 10 11 11 11 9 8 6 6 6 4 7 7 7 8 8 8 9 9 9 11 11 11 12 12 12 11 11 11 9 9 9 9 9 9 9 9 9 8 8 8 8 8 8 9 9 9 8 6 9 8 6 7 9 9 9 9 7 8 6 4 5 4 4 2 7 6 4 7 7 7 6 6 6 6 6 6 6 6 6 6 6 6 7 5 6 7 5 6 8 8 8 8 8 8 6 6 6 6 6 6 5 5 5 5 5 5 5 5 5 4 4 4 5 5 5 6 6 6 7 7 7 6 6 6 7 7 7 7 7 7 7 7 7 9 9 9 9 9 9 6 6 6 4 4 4 6 4 5 6 6 6 6 6 6 8 6 7 8 8 8 9 9 9 8 8 8 8 8 8 9 7 8 8 8 8 8 8 8 7 7 7 5 5 5 7 5 6 6 6 6 7 7 7 8 8 8 10 10 10 
8 8 8 10 10 10 11 11 11 10 10 10 8 8 8 8 8 8 8 8 8 7 7 7 8 6 7 7 7 7 8 8 8 10 10 10 7 7 7 5 5 5 7 7 7 6 6 6 6 6 6 6 6 6 5 5 5 4 4 4 4 4 4 5 5 5 6 6 6 8 8 8 8 8 10 6 6 6 8 7 5 9 9 7 11 9 10 8 7 5 7 7 7 6 6 6 7 7 7 8 8 8 9 9 9 8 8 8 6 6 6 7 7 7 8 6 7 8 8 8 10 10 10 11 11 11 10 10 10 10 8 9 9 9 9 8 8 8 6 6 6 7 7 7 8 8 8 8 8 8 8 8 6 9 7 10 7 7 7 6 6 6 5 5 5 7 7 7 5 7 6 5 5 5 5 5 5 6 4 5 5 3 4 5 5 5 7 7 7 9 5 6 7 7 7 7 7 7 7 7 7 6 6 6 5 5 5 4 4 4 5 5 5 5 5 5 6 6 6 7 5 6 6 6 6 7 7 7 7 7 7 7 7 7 10 8 9 8 8 8 7 7 7 5 5 5 7 5 6 6 6 6 7 7 7 8 6 7 9 9 9 9 9 9 9 7 8 8 8 8 8 8 8 6 6 6 7 7 7 8 6 7 7 7 7 7 7 7 6 6 6 6 6 6 8 8 8 10 10 10 
9 9 9 13 13 13 11 11 11 10 10 10 8 8 8 8 8 8 8 8 8 8 8 8 7 7 7 8 8 8 9 9 9 11 11 11 8 8 8 4 4 4 6 6 6 8 6 7 7 7 7 8 6 7 5 5 5 5 5 5 4 4 4 6 6 6 10 8 9 9 9 9 7 7 7 7 7 7 8 6 9 8 8 8 8 8 8 8 7 5 7 7 7 7 7 7 8 6 7 6 6 6 8 8 8 8 8 8 7 7 7 6 6 6 8 8 8 10 8 9 9 9 9 9 9 9 9 9 9 10 8 9 8 8 8 7 7 7 6 6 6 8 8 8 8 8 10 8 8 8 8 6 7 8 8 8 6 6 8 6 6 6 8 6 7 5 5 5 6 6 6 5 5 5 5 5 5 4 4 4 4 4 4 5 3 4 6 4 5 5 5 5 6 6 6 7 7 7 7 7 7 7 7 7 6 6 6 5 5 5 5 5 5 5 5 5 5 5 5 6 6 6 7 5 6 7 7 7 7 7 7 8 6 7 8 8 8 7 7 7 7 7 7 6 4 5 6 6 6 7 7 7 7 7 7 7 7 7 10 8 9 10 10 10 8 8 8 7 7 7 8 8 8 8 8 8 7 7 7 8 8 8 10 10 10 9 9 9 6 6 6 7 7 7 7 7 7 8 8 8 
11 11 11 12 12 12 9 9 9 9 9 9 8 8 8 8 8 8 9 7 8 7 7 7 7 7 7 7 7 7 10 10 10 11 11 11 8 8 8 6 6 6 8 6 7 8 8 8 9 7 8 6 6 6 6 6 6 5 5 5 5 5 5 5 5 5 7 7 7 7 7 9 7 7 7 8 8 8 7 7 7 6 6 6 7 7 7 7 7 7 7 7 7 5 5 5 5 5 5 6 6 6 8 6 7 8 8 8 9 7 8 8 8 8 8 8 8 24 8 9 49 9 9 36 8 7 8 7 5 8 8 8 7 7 5 5 5 3 7 7 7 7 7 5 9 9 9 8 8 8 7 7 7 8 6 7 7 5 6 6 6 6 5 5 5 8 4 5 6 6 6 7 7 7 6 6 6 5 5 5 5 5 5 4 4 4 4 4 4 5 5 5 6 6 6 6 6 6 6 6 6 6 6 6 7 7 7 5 5 5 5 5 5 4 4 4 6 6 6 6 6 6 8 6 7 7 7 7 8 6 7 8 8 8 7 7 7 8 6 7 7 5 6 8 6 7 6 6 6 5 5 5 6 6 6 8 8 8 9 9 9 7 9 8 8 6 7 10 8 9 9 7 8 9 8 6 19 9 8 37 11 10 11 11 11 10 10 10 7 7 7 8 8 8 8 10 9 7 7 7 
13 11 12 11 11 11 9 9 9 8 8 8 8 8 8 9 9 9 8 8 8 7 7 7 8 8 8 9 7 8 9 9 9 11 9 10 10 8 9 7 9 8 8 8 8 8 8 8 8 6 9 8 7 5 6 6 6 7 5 6 6 4 5 6 6 8 6 4 7 7 7 9 9 9 9 10 10 10 7 7 7 6 6 6 7 7 7 8 8 8 7 7 7 6 6 6 6 6 6 7 5 6 7 7 7 8 8 10 8 8 8 9 9 9 10 8 9 18 9 10 34 8 9 48 8 8 36 7 9 7 7 7 6 6 6 5 5 5 7 5 6 7 7 7 9 9 9 9 9 9 7 5 6 6 6 6 6 6 6 4 4 4 5 5 5 7 7 7 8 6 7 6 6 6 6 6 6 5 5 5 5 5 5 5 5 5 6 4 5 5 5 5 5 5 5 5 5 5 6 6 6 8 8 8 7 7 7 4 4 4 5 5 5 6 6 6 7 7 7 6 4 5 7 5 6 7 7 7 7 7 7 8 8 8 6 6 6 7 5 6 6 6 6 6 6 6 6 6 6 5 5 5 6 4 5 6 6 6 7 7 7 7 7 7 8 8 10 8 8 8 9 9 11 11 10 8 13 9 8 21 11 10 11 11 11 8 8 8 6 6 6 9 9 9 9 9 9 9 9 9 
12 10 11 12 12 12 11 11 11 7 7 7 8 8 8 8 8 8 7 7 7 8 8 8 9 7 8 9 9 9 8 8 8 10 8 9 11 9 10 9 9 9 10 8 9 7 5 6 6 6 6 6 6 6 5 7 6 6 6 6 6 6 6 7 7 7 7 7 7 8 6 9 11 11 11 12 12 12 8 8 8 7 7 7 7 7 7 7 7 7 7 7 7 6 6 6 6 6 6 7 7 7 7 7 7 7 7 7 8 8 8 8 8 8 8 8 8 7 7 7 16 10 10 22 8 8 15 7 5 7 7 7 6 4 5 5 5 3 6 6 6 7 7 7 8 8 8 10 8 9 8 8 8 3 3 3 5 5 5 5 5 5 5 5 5 5 5 5 7 7 7 8 8 8 9 7 8 7 5 6 4 4 4 4 4 4 5 5 5 5 5 5 4 4 4 5 5 5 5 5 5 8 8 8 7 7 7 6 6 6 6 6 6 6 6 6 6 6 6 5 5 5 4 4 4 7 5 6 7 5 6 6 6 6 6 6 6 7 7 7 5 5 5 5 5 5 5 5 5 6 6 6 7 5 6 6 6 6 7 5 6 8 6 7 9 8 6 9 9 9 9 9 9 10 10 10 10 10 10 10 12 11 10 10 10 7 7 5 6 6 6 8 8 8 10 10 10 10 10 10 
10 10 10 13 13 13 10 10 10 8 8 8 8 8 8 7 7 7 9 7 8 7 7 7 9 7 8 10 10 10 7 7 7 8 6 7 9 9 9 10 10 10 12 10 11 7 5 6 5 5 7 7 5 6 6 6 6 8 6 7 6 6 8 8 8 8 8 8 8 8 8 8 10 10 10 11 11 11 8 8 8 6 6 6 6 6 6 6 6 6 7 7 7 6 6 6 6 8 7 7 7 7 8 7 5 7 7 7 8 6 7 7 7 7 8 6 7 9 9 9 10 10 10 9 9 11 5 5 5 6 6 4 6 4 5 5 5 5 7 5 6 8 8 8 9 7 8 10 10 10 9 9 9 4 4 4 6 4 5 6 6 6 6 6 6 5 5 5 6 6 6 8 6 7 7 7 7 5 5 5 4 4 4 4 6 5 5 5 5 5 5 5 5 5 5 5 5 5 4 4 4 6 6 6 7 7 7 7 7 7 6 6 6 7 7 7 6 6 6 5 3 4 6 6 6 5 5 5 5 5 5 5 5 5 5 5 5 6 4 5 4 4 4 4 4 4 4 4 4 6 6 6 7 7 7 7 7 7 8 6 7 8 6 7 9 7 8 8 8 8 10 8 11 10 10 10 11 11 11 10 10 10 9 9 9 8 8 8 7 7 7 10 8 9 9 9 9 10 10 10 
9 9 9 11 11 11 11 11 11 8 8 8 8 8 8 8 8 8 8 6 7 7 7 7 8 8 8 8 8 8 8 6 7 7 9 8 9 9 9 10 10 10 10 10 10 9 9 9 7 7 9 6 6 6 6 6 6 7 5 6 6 6 6 7 7 9 7 7 7 9 7 8 9 9 9 8 8 8 6 6 6 5 5 5 5 5 5 5 5 5 7 7 7 7 7 7 8 6 7 9 7 8 6 8 7 8 8 6 9 7 10 8 6 7 8 8 8 8 8 8 11 11 11 9 9 9 5 5 5 5 5 3 4 4 4 4 4 4 5 5 5 7 7 7 12 10 11 12 10 11 8 8 8 6 6 6 6 4 5 6 6 6 4 4 4 5 5 5 5 5 5 5 5 5 4 4 4 4 4 4 5 5 5 5 5 5 5 5 5 6 4 5 5 5 5 5 5 5 4 4 4 4 4 4 5 5 5 5 5 5 5 5 5 8 8 8 6 8 7 5 5 5 5 5 5 6 4 5 4 4 4 4 4 4 5 5 5 5 5 5 5 5 5 5 3 4 4 4 4 5 3 4 6 6 6 7 7 7 7 7 7 7 7 7 6 6 6 7 7 7 10 8 9 9 9 9 9 9 7 9 9 9 9 9 9 10 8 9 8 8 8 8 6 7 8 8 8 10 10 10 
10 8 9 9 9 9 12 12 12 8 8 8 9 9 9 8 8 8 8 8 8 8 8 8 8 8 8 9 7 8 7 7 7 7 7 7 7 7 7 10 8 9 11 11 11 10 10 10 8 8 8 7 7 7 5 5 5 6 6 6 6 6 6 8 6 7 7 7 5 9 7 8 9 9 9 9 9 9 8 8 8 5 5 5 5 5 5 7 7 7 8 8 8 7 7 7 8 6 7 8 8 8 8 7 5 7 7 7 7 7 7 7 7 7 10 8 9 11 11 13 10 10 10 8 8 8 5 5 5 6 4 5 6 6 4 6 6 6 4 4 4 8 8 8 14 12 13 12 12 12 7 5 6 7 7 7 7 7 7 7 5 6 5 5 5 5 5 5 3 5 4 5 5 5 4 4 4 5 3 4 5 5 5 5 5 5 6 4 5 6 6 6 5 5 5 5 5 5 5 5 5 5 5 5 5 5 5 4 4 4 6 6 6 8 8 8 8 8 8 7 5 6 5 5 5 4 6 5 4 4 4 4 4 4 4 4 4 5 5 5 5 5 5 6 4 5 5 5 5 6 4 5 7 7 7 8 8 8 7 7 7 5 5 5 6 4 5 6 6 6 8 6 7 8 8 8 7 7 7 7 7 7 8 8 10 8 8 8 7 7 7 6 6 6 6 6 6 10 10 10 
12 10 11 9 9 9 10 10 10 11 11 11 8 8 8 9 9 9 10 10 10 8 8 8 9 7 8 8 10 9 10 6 7 8 8 8 8 6 7 9 7 8 11 11 11 12 10 11 7 9 8 7 7 7 6 6 6 6 6 8 7 7 9 8 8 8 7 7 7 9 9 9 9 9 9 10 10 10 10 10 10 6 6 6 5 5 5 7 7 7 7 7 7 6 6 6 8 8 8 25 7 7 18 6 6 7 7 7 7 7 7 6 6 6 9 9 9 10 10 10 10 10 10 8 7 5 6 8 5 5 5 5 4 4 4 4 4 4 5 5 3 11 11 11 14 14 14 10 10 10 5 5 5 5 5 5 9 7 8 7 5 6 5 5 5 6 4 5 6 4 5 5 5 5 5 5 5 4 4 4 5 5 5 6 6 6 7 5 6 7 7 7 5 5 5 5 5 5 5 5 5 5 5 5 5 5 5 5 5 5 6 6 6 7 7 7 11 11 11 8 8 8 5 5 5 6 4 5 4 4 4 5 5 5 3 5 4 3 3 3 6 4 5 6 6 6 6 6 6 7 7 7 8 8 8 9 9 9 7 7 7 4 4 4 5 3 6 6 6 6 7 5 6 7 7 7 7 7 7 8 8 8 6 6 6 6 6 6 6 6 6 5 5 5 6 6 6 9 9 9 
11 11 11 9 9 9 11 11 11 12 12 12 7 7 7 9 9 9 10 8 9 9 9 9 9 9 9 8 8 8 8 8 8 7 7 7 7 7 7 8 10 9 10 10 10 20 9 13 22 7 10 8 8 6 6 6 6 7 5 6 7 7 7 8 6 7 8 8 8 9 9 11 9 9 9 10 10 10 10 10 10 7 7 7 6 6 6 7 7 7 6 6 6 5 5 5 7 7 7 37 7 7 25 9 9 7 7 7 7 7 7 6 6 6 7 7 7 9 9 9 9 7 8 6 6 6 6 6 6 6 6 6 4 4 4 4 3 1 6 6 6 9 9 7 12 12 12 9 9 9 5 5 5 5 5 5 7 7 7 6 6 6 7 7 7 6 6 6 5 5 5 5 5 5 4 4 4 5 5 5 5 5 5 5 5 5 6 6 6 7 7 7 7 7 7 5 5 5 4 4 4 4 4 4 5 5 5 5 5 5 6 6 6 8 8 8 10 10 10 8 8 8 5 5 5 3 5 4 5 5 5 6 6 6 5 5 5 4 4 4 6 6 6 7 7 7 8 8 8 7 7 7 9 7 8 8 8 8 8 6 7 5 5 5 5 5 5 6 6 6 6 6 6 8 6 7 6 6 8 7 7 7 7 7 7 7 5 6 6 4 5 7 5 6 6 6 6 8 8 8 
10 10 10 11 11 11 9 9 9 9 9 9 9 7 8 9 7 8 9 9 9 11 11 11 9 9 9 9 9 9 7 7 7 7 5 6 7 7 5 9 9 9 11 11 11 27 12 9 45 9 9 26 8 8 6 6 6 9 5 6 8 6 7 6 6 8 6 6 6 8 8 6 10 10 10 9 9 9 9 9 9 8 6 7 7 7 7 7 7 7 4 4 4 4 4 4 6 6 6 37 7 7 40 8 9 17 8 9 8 8 8 6 6 6 6 6 6 7 7 7 6 6 6 6 6 6 8 8 8 6 6 6 5 3 4 3 5 4 6 6 6 10 10 10 10 8 9 8 6 7 5 5 5 5 5 5 7 7 7 7 7 7 7 7 7 6 6 6 5 5 5 4 4 4 5 5 5 4 4 4 5 5 5 6 6 6 6 6 6 7 7 7 6 6 6 5 5 5 5 5 5 6 4 5 7 5 6 6 6 6 7 7 7 10 10 10 9 9 9 6 6 6 6 4 5 6 6 6 6 6 6 8 6 7 5 5 5 5 5 5 6 6 6 8 8 8 8 8 8 8 8 8 10 8 9 9 9 9 8 8 8 6 6 6 6 6 6 5 5 5 6 6 6 6 6 6 6 6 6 5 5 5 7 7 7 7 7 7 6 6 6 7 7 7 8 8 8 8 8 8 
11 9 10 10 10 10 9 9 9 9 9 9 8 6 7 8 8 8 9 9 9 10 10 10 10 8 9 9 9 9 7 7 7 6 6 6 6 6 6 10 8 9 12 12 12 28 12 12 53 9 10 42 6 6 8 7 5 6 8 7 6 6 4 6 6 6 8 6 9 8 8 8 9 9 9 9 9 9 8 8 8 8 8 8 8 8 8 7 7 7 6 6 6 5 5 5 25 7 5 32 6 7 32 7 10 17 8 9 7 9 8 7 5 6 6 4 5 5 5 5 6 6 6 6 6 6 7 7 7 7 7 7 6 6 6 5 5 5 7 7 7 9 9 9 7 7 7 6 6 6 6 6 6 6 6 6 6 6 6 8 8 8 8 8 8 7 7 7 7 7 7 4 4 4 5 5 5 5 3 4 5 3 4 6 6 6 6 6 6 7 7 7 6 6 6 5 5 5 6 6 6 8 6 7 8 6 7 8 8 8 9 9 9 8 8 8 9 7 8 6 6 6 6 6 6 7 7 7 6 6 6 6 6 6 5 5 5 6 4 5 6 6 6 8 8 8 8 8 8 11 9 10 10 10 10 9 9 9 9 9 9 8 8 8 6 6 6 4 4 4 5 5 5 5 5 5 6 6 6 8 8 8 6 6 6 7 7 7 7 7 7 8 8 8 8 8 8 8 8 8 
10 10 10 10 10 10 9 9 9 9 9 9 8 8 8 9 7 8 9 9 9 10 10 10 11 9 10 9 7 10 7 7 7 7 7 7 7 7 7 9 7 8 10 10 10 23 11 13 43 9 10 41 7 6 7 7 7 7 7 7 5 5 5 5 7 6 8 8 8 9 9 9 9 9 9 9 9 9 8 8 8 8 8 8 8 8 8 7 5 6 7 7 7 5 5 5 27 7 8 19 7 7 9 9 7 10 10 10 9 9 9 7 7 7 6 6 6 6 6 4 6 6 6 6 6 6 6 6 6 7 7 7 6 6 6 7 7 7 8 8 8 9 9 9 6 6 6 6 6 6 6 6 6 7 7 7 7 7 7 8 8 8 9 7 8 10 8 9 8 8 8 6 6 6 5 5 5 5 5 5 5 5 5 5 5 5 6 6 6 8 8 8 7 7 7 7 7 7 6 6 6 6 6 6 6 6 6 7 7 7 9 9 9 8 8 8 7 7 7 7 7 7 7 7 7 8 6 7 6 4 5 6 6 6 6 6 6 5 5 5 7 7 7 9 9 9 10 8 9 9 9 9 10 10 10 10 10 10 10 10 10 8 8 8 6 6 6 4 4 4 4 4 4 5 5 5 5 5 5 7 7 7 7 7 7 7 7 7 7 7 7 8 8 8 9 9 9 8 8 8 
10 8 9 8 8 8 7 7 7 6 6 6 8 8 8 8 8 8 8 8 8 9 9 9 10 10 10 8 8 8 7 7 7 8 7 5 7 7 7 7 7 7 9 9 9 9 9 9 27 9 9 42 6 6 6 6 6 6 6 6 6 6 6 7 7 7 8 8 8 7 7 9 9 9 9 9 9 9 7 7 7 6 6 6 10 8 9 7 7 7 6 6 6 5 5 5 5 5 5 7 7 7 9 7 8 11 9 10 10 10 10 8 8 8 7 7 7 8 6 7 6 6 6 6 6 6 7 5 6 7 7 7 8 8 8 7 7 7 8 8 8 6 6 6 4 4 4 5 5 5 6 6 6 7 7 7 8 8 8 7 7 7 6 6 6 8 6 7 8 8 8 8 8 8 6 6 6 5 5 5 5 5 5 5 5 5 6 6 6 7 7 7 7 7 7 7 7 7 7 7 7 6 6 6 7 7 7 6 6 6 8 8 8 7 7 7 7 7 7 7 7 7 8 8 8 6 6 6 5 5 5 4 4 4 7 7 7 6 6 6 8 8 8 10 10 10 10 8 9 8 8 8 8 8 8 9 9 9 10 10 10 8 8 8 5 5 5 3 3 3 5 5 5 4 4 4 5 5 5 5 5 5 7 7 7 6 6 6 6 6 6 7 7 7 8 8 8 8 8 8 
9 9 9 7 7 7 5 5 5 6 6 6 8 8 8 8 8 8 8 8 8 8 6 7 6 7 9 6 8 7 7 7 7 8 8 8 8 8 8 7 7 9 7 7 7 10 10 10 21 9 9 29 8 7 6 6 6 6 6 6 6 6 4 8 8 8 8 8 8 7 7 7 9 9 9 8 8 8 8 8 8 8 8 8 9 9 9 7 7 7 5 5 5 5 3 4 5 5 3 5 5 5 6 6 6 9 9 9 10 8 9 9 9 9 7 7 7 7 7 7 7 7 7 8 8 8 8 6 7 8 8 8 8 8 8 7 7 7 7 7 7 6 6 6 5 3 4 2 2 2 3 3 3 6 6 6 7 7 7 6 6 6 4 4 4 5 5 5 6 6 6 7 7 7 7 7 7 7 7 7 5 5 5 5 5 5 5 5 5 5 5 5 6 6 6 7 7 7 7 7 7 6 6 6 7 7 7 6 6 6 6 6 6 7 7 7 7 7 7 7 7 7 7 7 7 5 5 5 3 3 3 4 4 4 7 7 7 9 9 9 10 10 10 10 10 10 8 8 8 8 8 8 8 8 8 9 7 8 9 9 9 8 8 8 6 6 6 6 6 6 5 5 5 5 5 5 4 4 4 4 4 4 5 5 5 4 4 4 7 7 7 7 7 7 6 6 6 8 8 8 
9 9 9 6 6 6 7 5 6 7 7 7 8 8 8 8 8 8 7 7 7 7 7 7 5 5 5 6 6 6 8 6 9 8 8 8 9 7 8 7 7 7 6 8 7 8 8 8 10 8 9 5 5 5 5 5 5 6 6 8 7 7 7 8 8 8 9 9 9 8 8 10 8 8 8 7 7 7 10 8 9 9 9 9 9 9 9 7 7 7 5 5 5 5 5 5 6 5 3 6 4 5 6 4 5 7 7 5 9 7 8 9 11 10 9 11 10 8 9 11 8 8 8 8 8 8 9 9 9 13 11 12 9 9 9 8 6 7 4 4 4 6 6 6 6 4 5 2 0 1 5 5 5 6 6 6 7 7 7 6 6 6 4 4 4 2 2 2 4 4 4 7 7 7 8 8 8 7 7 7 5 5 5 5 5 5 5 5 5 5 5 5 6 6 6 7 7 7 7 7 7 6 6 6 6 6 6 6 6 6 6 6 6 7 7 7 7 7 7 8 6 7 7 7 7 6 6 6 5 5 5 6 6 6 8 6 7 9 9 9 10 10 10 11 11 11 10 10 10 9 9 9 8 8 8 9 7 8 8 8 8 7 7 7 6 6 6 5 5 5 6 6 6 4 4 4 4 4 4 5 5 5 5 5 5 6 6 6 8 8 8 8 8 8 7 7 7 8 8 8 
9 9 9 7 7 7 8 8 8 10 8 9 8 8 8 6 6 6 7 7 7 8 6 7 6 6 6 6 6 6 13 13 11 13 13 11 9 9 9 7 7 7 8 6 7 8 8 8 8 8 8 7 7 7 5 5 5 7 7 7 7 7 7 8 8 8 8 8 8 9 7 8 8 8 8 6 6 6 11 11 11 12 12 12 10 10 10 7 7 7 5 5 5 5 5 5 6 6 6 6 6 6 6 6 6 7 7 7 9 9 9 9 9 9 10 10 10 10 8 9 10 10 10 10 10 10 11 11 11 12 10 11 8 8 8 8 6 7 4 4 4 5 5 5 5 5 5 3 3 3 5 5 5 6 6 6 4 4 4 6 6 6 5 5 5 2 2 2 2 2 2 7 5 6 6 6 6 8 8 8 7 7 7 6 6 6 7 5 6 6 6 6 7 7 7 7 7 7 7 5 6 6 6 6 4 4 4 6 4 5 5 5 5 7 7 7 8 8 8 9 9 9 7 7 7 8 6 7 7 5 6 7 7 7 7 7 7 8 8 8 9 9 9 10 10 10 10 10 10 9 9 9 10 8 9 9 9 9 9 9 9 6 6 6 5 5 5 6 6 6 7 7 7 5 5 5 5 5 5 5 5 5 5 5 5 8 8 8 8 8 8 8 8 8 8 8 8 8 8 8 
10 10 10 6 6 6 9 7 8 11 9 10 7 7 7 6 6 6 6 6 6 6 6 6 6 6 6 12 6 6 40 33 25 32 29 24 8 8 10 8 8 8 6 6 6 8 6 7 9 9 9 8 8 8 6 4 5 6 6 6 8 8 6 8 8 8 9 7 8 9 7 10 11 9 10 8 8 8 9 9 9 12 12 12 11 11 11 8 8 8 6 6 6 6 6 6 8 8 8 6 6 6 6 6 6 7 5 6 8 8 8 9 9 9 10 10 10 10 10 10 10 10 10 10 10 10 10 10 10 11 9 10 8 8 8 7 7 7 7 5 6 5 5 5 4 4 4 5 5 5 5 5 5 6 6 6 5 5 5 4 4 4 6 4 5 4 2 3 2 2 2 5 5 5 6 6 6 8 8 8 6 6 6 6 6 6 6 6 6 7 7 7 7 7 7 7 7 7 6 4 5 5 5 5 4 4 4 5 3 4 3 3 3 4 4 4 7 7 7 11 11 11 10 10 10 7 7 7 6 6 6 7 7 7 7 7 7 7 7 7 9 9 9 9 9 9 9 9 9 10 8 9 9 9 9 9 9 9 8 8 8 6 6 6 5 5 5 6 6 6 7 7 7 5 5 5 5 5 5 5 5 5 7 7 7 8 8 8 8 8 8 8 8 8 8 8 8 8 8 8 
10 10 10 8 8 8 10 10 10 10 10 12 7 7 7 6 6 6 5 5 5 6 6 6 8 6 7 38 6 7 53 30 24 30 25 21 7 9 8 6 8 7 7 7 7 6 6 6 9 7 8 10 8 9 6 6 6 6 4 5 5 5 5 8 8 10 9 9 9 9 9 9 16 10 10 13 7 7 14 8 8 12 12 14 13 13 13 8 10 7 6 6 6 7 7 7 8 8 8 9 9 9 7 7 7 7 7 7 8 8 8 9 9 9 9 9 9 9 9 9 11 9 10 9 9 9 10 10 10 9 9 9 9 9 9 8 8 8 5 5 5 5 5 5 5 5 5 5 5 5 5 5 5 6 6 6 5 5 5 5 5 5 4 4 4 3 3 3 5 3 4 5 5 5 10 8 9 10 8 9 7 7 7 7 7 7 6 6 6 6 6 6 6 6 6 6 6 6 5 5 5 3 3 3 3 3 3 3 3 3 4 4 4 4 4 4 6 6 6 10 10 10 11 11 11 8 8 8 6 6 6 7 7 7 7 7 7 8 8 8 7 7 7 7 7 7 8 8 8 8 8 8 10 10 10 10 10 10 9 9 9 7 7 7 6 6 6 6 6 6 8 8 8 10 10 10 8 8 6 5 5 5 8 8 8 8 8 8 7 7 7 7 7 5 6 6 4 6 6 6 
10 8 9 9 8 6 10 10 10 11 11 11 7 7 7 6 6 6 7 5 6 11 7 6 37 5 6 52 6 8 50 6 5 27 7 8 7 7 7 8 8 6 7 7 7 6 6 6 8 6 7 9 7 8 7 7 7 7 5 6 5 5 5 6 6 6 9 9 11 17 11 11 55 9 11 54 6 6 54 8 10 18 12 12 13 13 13 9 9 11 7 7 9 8 6 7 8 8 8 8 8 8 9 9 9 9 9 9 9 9 9 8 8 8 7 7 7 8 8 8 8 8 8 8 8 8 9 9 9 10 8 9 9 7 8 9 7 8 6 6 6 4 4 4 5 5 5 6 4 5 6 6 6 7 7 7 7 5 6 5 5 5 5 5 5 4 4 4 6 4 5 5 7 6 34 31 22 22 21 17 6 6 6 6 6 6 6 6 6 6 4 5 5 5 5 4 4 4 4 4 4 5 5 5 3 3 3 4 4 4 5 5 5 5 5 5 6 6 6 10 10 10 10 10 10 10 10 10 7 7 7 6 6 6 7 7 7 8 8 8 7 7 7 6 6 6 7 7 7 7 7 7 9 9 9 9 9 9 8 8 8 7 7 7 7 7 7 8 8 8 8 8 8 20 21 16 36 36 28 7 5 6 9 9 11 8 10 9 7 7 7 7 7 7 6 6 6 6 6 6 
8 8 8 7 7 9 10 9 7 9 9 9 8 6 7 6 6 6 6 6 6 36 6 4 50 6 5 51 7 6 23 7 7 6 6 6 7 7 7 7 7 7 6 8 5 7 7 7 7 7 7 9 9 9 8 8 8 7 7 7 6 6 6 6 6 8 17 8 9 54 10 9 56 7 10 53 7 7 54 10 11 20 15 12 14 14 14 8 9 11 8 6 7 6 6 6 7 7 7 8 8 8 10 10 10 11 11 11 8 8 8 8 8 8 7 7 7 7 7 7 6 6 6 8 8 8 9 9 9 9 7 8 8 8 8 9 7 8 7 7 7 5 5 5 5 5 5 5 5 5 6 6 6 6 6 6 7 7 7 7 5 6 5 5 5 4 2 3 4 4 4 7 7 7 32 29 22 21 20 16 6 6 6 5 5 7 5 5 3 4 4 4 5 5 5 4 4 4 4 4 4 4 4 4 3 3 3 4 4 4 5 5 5 5 5 5 7 7 7 9 9 9 10 10 10 12 12 12 8 8 8 5 5 5 7 7 7 8 8 8 6 6 6 6 4 5 8 8 8 7 7 7 9 7 8 9 7 8 9 9 9 8 6 7 7 7 5 9 7 8 5 7 6 5 5 5 5 5 7 7 7 9 8 8 8 6 6 4 4 4 4 4 4 4 5 5 7 6 6 6 
9 7 8 7 7 9 8 8 8 6 6 6 7 6 4 4 4 4 5 5 5 5 5 5 36 6 6 54 8 10 23 7 7 7 7 7 5 7 6 6 8 7 6 6 6 7 7 7 8 8 6 8 8 8 8 6 7 8 8 8 7 7 7 5 5 7 12 7 3 53 8 3 55 7 7 55 7 7 55 11 10 21 15 15 13 13 13 8 8 6 7 5 6 6 6 6 7 7 7 9 9 9 10 10 10 10 10 10 8 8 8 7 7 7 8 8 8 7 7 7 7 7 7 8 8 8 9 9 9 8 8 8 7 7 7 8 8 8 8 8 8 7 7 7 6 4 5 6 4 5 4 4 4 7 5 6 7 7 7 5 5 5 5 5 5 2 4 3 7 5 6 7 7 7 6 6 6 8 6 7 6 6 6 5 3 4 4 4 2 4 4 4 5 5 5 4 4 4 4 4 4 4 4 4 4 4 4 4 4 4 4 4 4 6 6 6 9 9 9 6 6 6 8 8 8 11 11 11 9 9 9 6 6 6 7 7 7 8 8 8 6 6 6 6 6 6 6 6 6 6 6 6 6 6 6 5 5 5 7 7 7 7 7 7 7 7 7 9 9 9 7 7 7 6 6 6 6 6 6 6 6 4 6 6 4 5 3 4 4 4 4 3 3 5 5 5 5 6 6 6 
7 7 9 7 7 5 8 8 6 5 5 5 5 5 7 4 4 4 4 4 4 5 5 5 6 6 4 6 8 7 7 7 7 7 7 7 7 5 6 5 5 5 5 5 5 7 7 5 7 7 7 6 6 8 7 7 9 9 7 10 6 6 6 5 5 5 6 6 6 6 6 6 7 7 9 53 7 9 9 9 9 49 10 11 15 9 11 7 7 7 6 6 6 7 7 7 7 7 7 7 7 7 7 7 7 8 8 8 7 7 7 6 6 6 5 5 5 5 5 5 8 6 7 9 9 9 11 11 11 8 8 8 6 8 7 6 6 6 8 6 7 9 7 8 6 6 6 4 4 4 5 5 5 7 7 7 5 5 5 5 5 5 4 4 4 5 5 5 6 6 6 6 6 6 6 8 7 8 6 7 8 8 8 6 6 6 4 4 6 3 3 3 3 3 3 5 5 5 4 4 4 4 4 4 5 5 5 5 5 5 5 5 5 6 6 6 7 7 7 5 5 5 4 4 4 8 8 8 12 12 12 10 10 10 7 7 7 6 6 6 7 7 7 6 6 6 6 6 6 4 4 4 4 4 4 5 5 5 4 4 4 6 6 6 6 6 6 9 8 6 7 7 7 6 6 6 8 7 5 5 5 5 2 3 5 3 3 5 4 4 4 4 4 2 5 5 5 5 5 5 
11 11 11 9 9 7 8 6 7 5 7 6 7 5 6 4 4 4 4 2 3 5 3 4 4 6 5 6 6 6 7 7 7 7 7 7 5 5 7 5 5 5 7 7 7 9 7 10 7 7 7 6 6 8 6 6 8 5 5 5 4 4 4 5 5 5 6 6 6 6 6 4 6 6 8 52 8 9 51 9 11 15 11 12 9 9 9 8 6 7 6 6 6 8 8 8 8 8 8 7 7 7 7 7 7 8 8 8 8 8 8 8 8 8 6 6 6 6 6 6 7 7 7 9 9 9 10 8 9 8 8 8 9 7 8 7 7 7 6 6 6 8 8 8 7 7 7 5 5 5 6 6 6 7 7 7 5 5 5 5 5 5 5 5 5 6 6 6 7 5 6 5 5 3 7 5 6 8 8 10 9 9 11 9 9 9 5 5 5 5 3 4 4 4 4 5 5 5 4 4 4 6 6 6 5 5 5 6 6 6 6 6 6 7 7 7 7 7 7 5 5 5 4 4 4 7 7 7 15 15 15 15 15 15 6 6 6 5 5 5 7 7 7 8 6 7 7 7 7 7 7 7 6 4 5 6 4 5 5 5 5 6 4 5 7 5 8 6 8 7 7 5 6 7 7 7 7 7 7 7 7 7 5 3 4 6 5 3 4 4 4 5 5 5 6 6 4 6 6 6 
13 13 13 10 10 12 7 7 9 7 7 7 6 6 6 5 5 7 4 3 1 4 4 6 3 3 3 4 4 4 5 5 5 6 6 6 6 6 8 7 7 7 8 8 8 9 9 9 8 8 8 7 7 7 7 5 6 6 6 6 4 6 5 4 6 3 5 5 5 7 7 7 8 8 8 9 9 9 10 8 11 9 9 7 8 8 6 6 7 9 8 8 6 7 7 7 7 7 7 9 9 9 9 9 9 8 8 8 7 7 7 7 7 7 7 7 7 7 7 7 8 8 8 8 8 8 9 7 8 8 8 8 8 8 8 6 6 6 6 6 6 6 6 6 8 8 8 6 6 6 7 7 7 6 6 6 5 5 5 4 4 4 4 4 4 7 7 7 7 5 6 6 6 6 8 8 8 9 9 9 11 9 10 9 9 9 8 8 8 5 5 5 4 4 4 4 4 4 4 4 4 5 5 5 5 5 5 8 8 8 7 7 7 7 7 7 8 8 8 5 5 5 6 6 6 7 7 7 15 15 15 16 16 16 6 6 6 5 5 5 7 7 7 8 8 8 8 8 8 8 8 8 6 6 6 5 5 5 6 6 6 5 5 5 7 7 7 6 6 6 7 7 9 8 8 8 7 9 8 6 8 7 5 5 5 6 6 6 4 4 4 5 5 5 7 7 7 7 7 7 
9 9 9 7 7 5 7 7 7 7 7 7 8 8 8 7 7 7 6 6 6 6 6 6 5 5 5 6 4 5 4 4 4 4 4 4 7 7 7 9 9 9 8 8 8 9 9 9 9 7 8 7 7 9 5 5 5 5 5 5 7 5 6 6 6 6 7 7 7 5 7 6 9 8 6 9 9 9 10 10 8 9 9 9 8 8 8 9 9 9 7 7 7 6 6 6 7 7 7 9 9 9 9 9 9 8 8 8 7 7 7 7 7 7 7 7 7 6 6 6 6 6 6 8 6 7 7 7 7 6 8 7 7 7 7 5 5 5 5 5 5 7 5 6 8 6 7 8 8 8 9 7 8 6 6 6 4 4 4 2 2 2 5 3 4 6 6 6 6 6 4 6 6 4 7 7 7 8 8 8 10 10 10 11 11 11 8 8 6 6 6 4 5 5 5 4 4 4 3 3 3 4 4 4 5 5 5 7 7 7 7 7 7 8 8 8 6 6 6 5 5 5 5 5 5 9 9 9 16 16 16 13 13 13 6 6 6 6 6 6 7 7 7 8 8 8 8 8 8 7 7 7 6 6 6 6 6 6 7 7 7 6 6 6 6 6 6 7 5 6 6 6 6 7 7 7 9 7 8 7 7 7 6 6 6 7 5 6 5 5 5 6 6 8 7 7 9 7 7 7 
7 7 7 6 6 6 6 6 6 7 7 7 6 6 6 8 6 7 11 10 8 9 9 9 7 7 7 6 4 5 5 5 5 5 5 5 8 6 7 8 8 10 8 8 8 24 10 10 48 9 10 36 7 9 4 6 5 3 5 4 5 5 5 6 6 6 6 6 8 7 7 7 7 7 7 12 10 11 9 9 9 9 7 8 9 7 8 6 6 6 6 6 6 6 6 6 8 6 7 8 8 8 9 9 9 7 7 7 7 5 6 6 6 6 7 7 7 6 6 6 5 5 5 6 6 6 7 7 7 7 7 7 5 5 5 4 4 4 5 5 5 5 5 5 7 7 7 8 8 8 8 8 8 6 6 6 5 5 5 3 3 3 3 3 3 6 6 6 8 6 7 7 7 7 5 5 5 9 9 9 13 13 13 12 10 11 9 9 9 6 6 6 6 6 6 4 6 5 3 5 4 3 3 5 5 7 6 7 7 9 9 9 9 7 7 7 6 6 6 4 4 4 5 5 5 11 11 13 16 16 18 10 10 10 6 6 6 6 6 6 6 6 6 8 8 8 9 7 8 32 27 23 21 17 14 6 6 6 7 5 6 7 7 7 8 8 8 7 7 7 7 7 7 7 7 7 8 8 8 8 8 8 6 6 6 5 5 5 6 6 6 8 8 8 8 8 8 7 7 7 
8 8 8 6 6 6 8 6 7 7 5 6 7 5 6 6 6 6 9 9 9 9 9 9 8 8 8 6 6 6 6 6 4 5 7 4 7 9 8 8 8 8 10 8 11 14 10 9 30 10 9 55 7 7 37 7 7 7 7 7 8 6 9 7 7 7 8 8 10 7 7 7 7 7 7 10 12 11 10 10 10 9 7 8 7 5 6 4 6 5 9 5 6 7 7 7 7 7 7 8 8 8 8 8 8 8 8 8 6 6 6 7 7 5 8 8 8 8 8 8 5 5 5 6 6 6 6 6 6 6 4 5 5 3 4 5 5 5 3 3 3 5 5 5 6 6 6 8 8 8 8 8 8 7 7 7 5 5 5 3 3 3 6 6 6 7 7 7 8 8 8 7 7 7 7 5 6 8 8 8 11 11 11 12 12 12 8 8 8 6 6 6 5 5 5 5 3 4 6 4 5 4 4 2 6 6 6 8 8 6 9 8 6 7 7 5 7 7 5 6 6 6 5 5 5 11 11 11 14 14 14 9 9 9 6 6 6 7 7 5 8 7 5 7 7 7 7 7 7 36 29 23 52 39 31 18 17 13 5 5 5 8 6 7 8 8 8 9 7 8 8 8 8 10 8 9 8 8 8 9 7 8 7 7 7 6 4 5 7 7 7 8 8 8 7 7 7 6 6 6 
7 7 7 7 7 5 6 6 6 5 5 5 5 3 4 5 5 5 6 6 6 9 9 9 8 8 8 8 8 8 7 7 7 7 7 7 8 8 8 10 10 10 9 7 8 8 8 8 13 7 7 20 8 8 18 8 9 10 10 10 10 10 10 9 9 11 10 10 10 7 7 7 8 8 8 9 9 9 9 9 9 9 7 8 7 5 6 4 4 4 6 6 6 7 7 7 8 6 9 8 6 7 27 7 8 22 8 7 6 6 8 8 6 9 9 9 9 8 7 5 6 6 6 6 6 6 5 5 5 4 4 4 3 3 3 4 4 4 2 2 2 4 4 4 6 6 6 7 7 7 7 7 7 7 7 7 5 5 5 5 5 5 7 7 7 8 8 8 8 8 8 8 8 8 8 8 8 8 8 8 9 9 9 9 9 9 7 7 7 7 7 7 6 4 5 5 5 7 15 14 10 33 26 20 7 7 7 9 9 9 7 7 7 6 6 8 8 6 7 6 6 6 8 8 8 10 8 9 12 10 11 9 9 9 7 7 7 7 5 6 7 7 7 8 6 7 8 6 7 16 15 13 19 15 12 7 7 7 5 3 4 6 6 6 7 7 7 7 7 7 9 9 9 9 9 9 8 8 8 7 7 7 6 6 6 8 8 8 7 7 7 8 8 8 7 7 7 6 6 6 
7 7 5 8 8 6 7 6 4 7 5 6 4 4 4 4 4 4 4 4 4 6 6 6 7 6 4 6 6 6 7 7 5 6 6 6 8 6 7 8 8 8 6 7 9 7 7 7 6 6 4 7 7 5 8 8 8 7 9 8 9 9 9 10 10 10 11 11 9 11 9 12 7 7 7 9 7 8 8 8 8 9 7 8 6 6 6 5 5 5 5 7 6 7 7 7 8 8 8 8 8 8 16 7 10 10 6 3 7 7 7 9 9 9 7 7 5 5 5 3 7 5 6 5 5 5 4 4 4 4 4 4 4 4 4 3 3 3 2 2 2 4 2 3 5 5 5 8 8 8 7 7 7 6 6 6 3 3 3 6 6 6 7 7 7 7 7 7 8 8 8 8 8 8 8 8 8 8 8 8 9 9 9 7 7 7 7 7 7 7 7 7 6 6 6 5 3 6 10 8 9 14 13 11 7 7 5 8 8 8 6 8 7 7 7 7 9 9 9 6 6 6 9 9 9 10 10 10 9 9 9 8 8 8 6 6 6 6 6 6 7 7 7 7 7 7 7 7 7 7 7 7 6 6 8 5 5 7 4 6 3 4 4 4 5 5 5 7 7 7 8 8 8 8 8 8 8 8 8 6 6 6 7 7 7 6 6 6 5 5 5 5 5 5 6 6 6 5 5 5 
7 7 7 8 8 6 8 8 8 6 4 5 4 4 2 5 3 4 5 3 4 6 5 3 6 6 4 7 7 7 7 7 7 6 6 8 6 6 8 6 8 7 7 7 7 8 8 6 7 7 5 6 6 6 7 7 7 7 9 8 9 9 9 10 10 10 12 12 14 8 10 9 7 7 7 7 7 7 6 6 6 9 7 8 8 8 8 6 6 6 6 6 6 6 6 6 7 7 5 7 7 7 6 6 6 7 5 6 8 6 7 7 9 8 6 6 6 4 4 6 4 4 4 5 5 5 5 5 5 4 4 4 3 3 3 1 1 1 4 4 4 5 5 5 4 4 4 5 5 5 5 5 5 7 7 7 6 6 6 5 5 5 6 6 6 6 6 6 6 6 6 6 6 6 6 6 6 8 8 8 8 8 8 7 7 7 6 6 6 7 7 7 5 7 6 5 5 5 6 5 3 7 7 5 7 7 7 8 8 10 8 8 8 6 8 7 8 8 8 8 8 8 7 7 7 9 9 11 8 8 10 7 7 7 8 8 8 6 6 6 6 6 6 8 8 8 7 7 9 8 8 8 8 8 8 7 5 6 5 5 5 5 5 7 5 5 5 6 6 6 7 7 7 7 7 7 7 7 7 6 6 6 8 8 8 6 6 6 4 4 4 3 3 3 4 4 4 5 5 5 
9 7 10 7 7 7 6 6 6 5 5 5 4 4 4 5 5 5 4 4 2 4 4 2 6 6 8 8 6 7 8 6 7 7 7 7 7 7 7 9 7 8 7 7 7 7 7 7 8 8 6 8 8 8 6 6 6 9 7 8 8 8 8 10 9 7 11 11 11 9 9 9 7 7 7 7 7 7 7 7 7 8 8 8 8 8 8 6 6 6 6 6 6 6 6 6 5 5 5 4 6 5 4 4 2 5 5 5 8 6 7 9 8 6 6 6 4 5 5 5 3 3 3 5 5 5 5 5 5 4 4 4 5 5 5 3 3 3 4 4 4 6 6 6 5 5 5 3 3 3 5 5 5 7 7 7 8 8 8 5 5 5 5 5 5 4 4 4 4 4 4 5 5 5 6 6 6 7 7 7 8 8 8 8 8 8 8 8 8 8 8 8 7 7 7 5 5 5 6 6 6 9 7 8 8 8 8 8 8 10 7 7 7 7 7 7 7 7 5 6 6 6 6 6 6 8 8 8 7 7 7 6 6 6 8 8 8 7 7 5 8 6 7 7 7 5 9 9 9 10 8 9 9 9 9 7 7 5 7 5 6 8 6 7 5 5 5 6 6 6 8 8 8 7 7 7 6 6 6 7 7 7 7 7 7 7 7 7 4 4 4 5 5 5 7 7 7 5 5 5 
8 6 7 5 7 6 5 7 6 6 6 6 6 4 7 4 4 6 4 4 4 5 5 3 24 20 17 34 29 25 18 17 13 9 9 9 8 7 5 8 6 7 7 7 7 7 9 8 6 8 7 6 6 4 6 6 6 7 7 9 6 6 6 8 8 8 11 9 10 10 10 10 7 7 7 7 7 7 7 7 7 7 7 7 7 7 7 7 7 7 6 6 6 5 5 5 5 5 5 5 5 5 5 5 5 5 5 7 7 9 8 7 9 8 5 5 5 4 4 4 4 4 4 4 4 4 4 4 4 4 4 4 5 5 5 4 4 4 3 3 3 7 7 7 7 7 7 5 5 5 7 7 7 7 7 7 7 7 7 5 5 5 5 5 5 5 5 5 4 4 4 4 4 4 5 3 4 5 5 5 7 7 7 8 8 8 9 9 9 7 7 7 7 7 7 8 6 7 7 7 9 8 8 8 8 8 8 8 8 8 8 6 7 6 6 6 6 6 6 4 4 4 5 5 5 8 8 8 6 6 6 6 6 6 6 6 6 7 7 7 6 6 6 8 6 7 8 8 8 9 9 9 8 10 9 8 8 8 7 7 7 6 6 6 6 6 6 7 5 6 7 7 7 9 7 8 7 7 7 8 6 7 6 6 6 7 5 6 5 5 5 6 6 6 6 6 6 5 5 5 
6 6 8 5 3 4 7 7 5 7 7 9 7 5 6 6 6 4 5 6 8 30 26 23 46 42 33 53 44 35 26 22 19 8 8 6 9 9 7 8 8 8 9 9 9 9 7 8 7 7 7 6 6 6 6 6 4 6 6 6 6 6 4 7 7 9 8 8 8 10 9 7 7 7 7 7 7 7 6 6 6 5 7 6 6 6 6 7 7 7 6 6 6 5 5 5 8 4 5 6 6 6 6 6 6 7 7 5 8 8 6 8 8 8 6 6 6 6 4 5 5 5 5 5 5 5 6 6 6 6 4 5 7 5 6 7 7 7 6 6 6 8 8 8 8 8 8 7 7 7 7 7 7 7 7 7 7 7 7 6 6 6 5 5 5 5 5 5 5 3 4 5 5 5 4 4 4 4 4 4 4 4 4 6 4 5 7 7 7 7 7 7 8 8 8 8 8 8 9 9 9 10 8 11 8 8 8 8 8 8 6 8 7 7 7 7 7 5 6 5 5 5 6 6 6 8 6 7 7 5 6 4 4 4 4 4 4 6 4 5 6 4 5 5 5 5 8 7 5 8 8 8 8 8 8 6 8 7 8 6 7 7 5 6 7 7 7 6 6 6 6 6 6 7 7 7 6 6 6 6 6 6 6 6 6 6 6 6 6 6 6 6 6 6 6 6 6 6 6 6 
6 4 5 5 5 5 8 8 8 8 8 10 7 7 7 6 6 6 24 5 7 46 35 29 54 47 37 53 35 25 23 15 12 9 7 8 9 7 8 9 9 9 9 11 8 8 8 8 6 6 6 6 6 6 6 6 6 6 6 6 5 5 5 7 7 7 8 8 8 8 8 8 8 8 8 8 6 7 8 8 8 8 6 7 6 6 6 6 6 4 6 6 8 6 4 5 6 6 6 6 6 6 6 6 6 6 6 6 8 8 8 8 8 8 6 6 6 4 4 4 6 6 6 5 5 5 5 5 5 6 6 6 6 6 6 7 7 7 8 8 8 8 8 8 8 8 8 7 7 7 8 8 8 7 7 7 8 6 7 7 7 7 6 6 6 5 5 5 4 4 4 4 4 4 5 5 5 4 4 4 4 4 4 6 6 6 7 5 6 7 7 7 7 7 7 8 8 8 11 9 10 9 9 9 10 8 9 7 7 7 6 6 6 7 7 7 8 6 7 6 6 6 29 24 20 7 5 8 5 5 3 4 2 3 5 5 5 4 6 5 7 5 6 6 6 6 7 7 7 7 7 7 8 8 8 7 7 7 6 6 6 7 5 6 6 6 6 6 6 4 6 6 4 7 7 9 7 7 7 7 7 7 6 6 4 6 6 6 7 7 7 6 6 6 6 6 6 6 6 6 
5 5 5 6 6 6 8 8 8 8 8 8 9 9 9 26 7 9 46 4 5 52 21 18 51 39 27 52 21 16 22 8 7 7 7 7 8 8 8 9 9 9 9 9 9 7 7 7 6 6 6 7 7 7 6 6 6 7 7 7 7 7 7 8 8 8 7 7 7 7 7 7 9 8 6 32 8 8 29 8 7 10 6 5 7 7 7 6 6 6 7 6 4 6 6 6 6 6 6 5 5 5 6 6 6 7 7 7 9 9 9 7 7 7 6 6 6 7 7 7 5 5 5 5 5 5 5 5 5 6 6 6 8 6 7 8 8 8 10 8 9 8 8 8 7 7 7 8 8 8 9 7 8 6 6 6 5 5 5 5 5 5 5 7 6 6 6 6 5 5 5 4 4 4 4 4 4 4 4 4 4 4 4 5 5 5 7 7 7 6 6 6 5 5 5 6 6 6 10 8 9 10 10 10 8 8 8 7 7 7 6 6 6 8 8 8 8 6 7 7 7 5 51 44 34 30 27 22 3 5 4 2 2 2 4 4 4 6 6 8 5 5 5 6 6 6 7 5 6 7 7 7 6 6 6 7 7 7 6 6 6 7 5 6 5 5 5 6 6 6 7 7 7 7 7 7 13 13 11 23 23 21 7 7 7 7 7 7 7 7 7 6 6 6 6 6 6 6 6 6 
7 5 6 6 6 6 8 6 7 8 8 8 28 10 8 48 8 9 51 5 5 52 6 6 37 18 14 30 15 12 17 7 8 7 7 7 8 8 8 9 9 9 8 8 8 7 7 7 7 7 7 7 7 7 7 7 7 7 7 7 9 9 9 8 8 8 8 8 8 7 7 7 29 8 7 31 10 9 30 6 6 8 7 5 7 7 7 6 4 5 6 5 3 5 5 3 5 5 5 6 6 6 7 7 7 7 7 7 7 7 7 7 7 7 7 7 7 7 7 7 4 4 4 4 4 4 5 5 5 6 6 6 6 6 6 6 6 6 7 7 7 7 7 7 7 7 7 8 8 8 8 8 8 6 4 5 4 4 4 5 5 5 7 5 6 7 7 7 6 6 6 3 3 3 4 4 4 4 4 4 5 3 4 6 6 6 7 7 7 8 6 7 5 3 4 5 5 5 7 7 7 9 9 9 7 7 7 7 7 7 7 7 7 7 9 8 8 6 7 8 6 7 30 27 20 54 47 39 6 6 6 3 3 5 4 4 4 6 6 8 7 7 7 6 6 6 7 5 6 7 5 6 7 7 7 5 7 6 7 5 6 6 6 6 5 5 5 6 6 8 7 7 7 7 7 7 13 13 11 25 26 21 8 8 8 8 8 8 7 7 7 6 6 6 6 6 6 6 6 6 
5 5 3 5 5 7 6 6 6 7 7 7 32 11 10 50 8 9 36 4 5 34 5 7 16 6 5 6 6 6 7 7 7 6 8 7 8 6 7 8 8 8 7 7 7 8 8 8 8 8 8 8 8 8 7 7 7 7 7 7 8 8 8 7 7 7 8 8 8 8 8 8 36 7 9 9 9 9 5 5 5 5 5 5 7 7 7 6 6 6 5 5 5 4 4 4 4 4 4 5 5 5 6 6 6 6 6 6 6 6 6 6 6 6 6 6 6 5 5 5 4 4 4 4 4 4 5 3 4 4 4 4 6 6 6 6 6 6 7 7 7 7 7 7 7 7 7 8 8 8 7 7 7 5 5 5 4 4 4 7 5 6 7 7 7 7 7 7 7 7 7 6 4 5 4 4 4 4 4 4 5 5 5 6 6 6 7 7 7 6 6 6 5 5 5 5 5 5 6 6 6 7 7 7 7 7 7 7 7 7 8 6 7 7 7 7 7 5 6 6 6 8 7 5 6 36 33 28 5 5 5 4 4 4 5 5 3 6 6 6 7 7 7 8 8 8 6 6 6 6 6 6 6 6 6 7 5 6 8 6 7 6 6 6 6 6 6 5 5 5 7 7 7 7 7 7 8 8 8 10 10 8 9 9 9 7 7 7 6 6 6 5 5 5 5 5 5 4 4 4 
5 5 5 5 5 7 5 5 5 7 5 6 9 9 11 29 9 10 14 5 8 7 5 6 6 6 4 6 6 6 6 6 6 7 7 5 7 7 9 7 7 7 8 8 6 9 9 9 8 8 8 8 8 8 8 8 8 7 7 7 6 6 6 7 7 7 10 10 10 8 8 8 10 8 11 7 9 8 6 6 4 5 5 7 6 6 6 6 6 6 4 4 4 3 3 1 4 4 4 5 5 5 6 6 6 7 7 7 6 6 6 6 6 6 5 5 5 5 5 5 6 6 6 4 4 4 4 4 4 5 5 5 6 4 5 6 6 6 9 7 8 7 7 7 7 7 7 9 7 8 6 6 6 5 5 5 4 4 4 7 5 6 8 8 8 7 7 7 6 6 6 6 6 6 5 5 5 5 5 5 5 5 5 6 6 6 7 5 6 6 6 6 6 4 5 5 5 5 7 7 7 7 7 7 7 7 7 8 8 8 8 8 8 7 7 7 6 6 6 6 6 6 7 7 7 7 7 5 6 6 6 5 5 3 4 4 4 5 5 5 7 7 7 8 8 8 4 4 4 4 4 4 5 5 5 7 7 7 8 8 8 8 6 7 7 7 9 7 7 7 7 7 7 6 6 6 7 7 7 9 9 9 9 9 9 8 8 8 6 6 6 4 4 4 4 4 4 4 4 4 
6 4 5 6 6 6 8 6 7 6 6 6 8 8 10 9 9 7 8 8 10 7 7 7 7 7 7 6 4 5 6 5 3 7 7 7 8 8 6 8 8 8 8 10 9 9 9 9 8 8 8 8 8 8 8 8 8 7 7 7 6 6 6 6 6 6 9 9 9 9 9 9 9 8 6 8 8 10 7 6 4 6 6 6 7 6 4 5 5 3 5 3 4 4 4 6 6 6 6 6 6 6 6 6 6 6 6 6 6 6 6 6 6 6 6 6 6 6 6 6 7 7 7 6 6 6 6 6 6 6 6 6 7 7 7 6 6 6 7 7 7 7 7 7 6 6 6 6 6 6 5 5 5 5 5 5 5 5 5 6 6 6 7 7 7 6 6 6 6 4 5 6 6 6 6 6 6 6 4 5 6 6 6 6 6 6 6 6 6 6 6 6 7 5 6 7 7 7 8 8 8 8 8 8 7 7 7 7 7 7 9 9 9 7 7 7 6 6 6 8 6 7 8 8 8 7 7 7 6 6 6 6 4 5 5 3 4 6 4 5 10 6 7 7 7 7 4 4 4 3 3 3 4 4 4 5 5 5 7 5 6 8 8 8 8 8 8 7 7 7 7 7 7 7 7 7 6 6 4 7 7 7 9 9 9 9 9 11 6 6 6 5 5 5 5 5 5 3 3 3 
6 6 6 7 7 9 7 7 9 5 7 6 8 6 7 8 8 8 8 8 8 8 6 9 8 6 7 5 5 3 5 5 5 7 7 7 8 8 8 9 9 9 8 8 8 8 8 8 8 8 8 9 9 9 8 8 8 7 7 7 6 6 6 7 7 7 8 8 8 9 9 9 8 8 8 7 7 9 6 6 6 6 6 6 7 5 6 5 7 6 6 6 6 5 5 5 7 7 7 7 7 7 6 6 6 6 6 6 6 6 6 7 7 7 6 6 6 7 7 7 7 7 7 7 7 7 8 6 7 8 8 8 8 8 8 7 7 7 7 7 7 7 7 7 6 6 6 6 6 6 5 5 5 5 5 5 6 6 6 5 5 5 4 4 4 4 2 3 5 5 5 6 6 6 5 5 5 6 6 6 7 7 7 6 6 6 6 6 6 5 5 5 5 5 5 7 5 6 8 8 8 9 7 8 7 7 7 8 8 8 9 9 9 8 8 8 7 7 7 7 7 5 7 7 9 7 9 8 9 9 9 6 6 6 6 4 5 5 3 4 9 5 6 7 7 7 4 4 4 4 4 4 3 3 3 5 5 5 5 5 5 7 7 7 7 7 7 7 7 7 8 8 8 9 9 9 8 8 8 9 9 7 9 9 9 9 9 9 6 6 6 6 6 6 5 5 5 5 5 5 
6 4 5 7 6 4 5 7 6 5 3 4 5 5 5 7 7 7 7 7 7 7 7 9 7 7 9 8 6 7 6 6 6 6 6 6 8 8 6 9 8 6 8 8 6 7 7 7 9 9 9 8 8 8 8 8 8 8 8 8 6 6 6 7 7 7 8 8 8 8 8 8 7 7 9 7 7 5 8 6 7 5 7 6 8 6 7 7 7 7 6 6 6 5 5 5 5 5 5 7 7 7 7 7 7 7 7 7 6 6 6 6 6 6 5 5 5 6 6 6 6 6 6 6 6 6 7 7 7 8 8 8 7 7 7 6 6 6 7 7 7 7 7 7 7 5 6 6 6 6 3 3 3 4 4 4 7 7 7 5 5 5 4 4 4 3 3 3 4 4 4 5 3 4 5 5 5 6 6 6 6 6 6 6 6 6 6 6 6 5 5 5 5 5 5 7 7 7 7 7 7 9 7 8 8 8 8 8 8 8 7 9 8 7 5 6 7 7 7 6 6 6 7 7 7 7 7 7 8 8 8 7 7 7 7 5 8 5 5 3 5 5 5 9 7 8 6 6 6 5 5 5 4 4 4 5 5 5 6 6 6 7 7 7 8 8 10 8 8 8 9 9 9 8 8 10 7 7 9 7 7 5 8 8 8 6 6 6 6 6 6 7 7 7 6 6 6 7 7 7 
5 5 5 6 6 6 6 6 6 5 5 5 5 5 5 8 8 8 7 7 7 7 7 7 8 6 7 6 6 6 8 6 7 7 7 7 8 8 8 9 7 8 8 8 8 8 8 8 8 8 8 9 9 9 8 8 8 7 7 7 7 7 7 7 7 7 9 9 9 7 7 7 6 6 6 7 5 6 8 8 8 8 8 8 8 8 8 7 7 7 6 6 6 6 6 6 5 5 5 6 6 6 7 9 8 7 7 7 6 6 6 5 5 5 5 5 5 5 5 5 6 6 6 6 6 6 7 7 7 5 5 5 6 6 6 5 5 5 6 6 6 7 7 7 6 6 6 5 5 5 3 3 3 4 4 4 6 6 6 5 5 5 4 4 4 3 3 3 3 3 3 6 6 6 6 6 6 5 5 5 6 6 6 5 5 5 6 6 6 5 5 5 6 6 4 7 7 7 8 8 8 8 8 6 7 7 7 7 5 6 6 6 6 7 7 7 8 8 8 7 7 7 7 7 7 8 8 8 7 7 7 7 7 7 7 7 7 7 7 7 6 6 6 5 5 5 6 4 5 5 5 5 4 4 4 6 6 6 5 7 6 8 8 8 7 7 7 9 9 9 9 9 9 9 9 9 7 7 7 7 7 7 6 6 6 6 6 6 7 7 7 8 8 8 9 9 7 8 8 8 
6 6 6 6 6 6 7 7 7 5 5 5 4 4 4 9 9 9 8 8 8 7 7 7 7 7 7 7 7 7 7 7 7 7 7 7 7 7 7 7 7 7 8 8 8 8 8 8 8 8 8 9 9 9 11 9 10 9 7 8 8 8 8 10 10 10 11 9 10 8 8 8 6 6 6 6 6 6 10 10 10 9 9 9 8 8 8 8 8 8 7 7 7 7 7 7 7 7 7 5 5 5 6 6 6 7 7 7 6 6 6 7 5 6 6 6 6 6 4 5 5 5 5 7 7 7 9 9 9 7 7 7 7 7 7 6 6 6 6 6 6 5 5 5 5 5 5 5 5 5 5 5 5 5 5 5 4 4 4 4 4 4 4 4 4 2 2 2 4 4 4 4 4 4 6 6 6 5 5 5 6 6 6 5 5 5 6 6 6 7 7 7 6 6 6 8 8 6 11 11 9 12 11 9 7 7 9 6 6 4 6 6 6 6 6 6 8 8 8 7 7 7 8 8 8 8 8 8 8 8 8 7 7 7 7 7 7 6 6 6 6 6 6 4 4 4 4 4 4 5 5 5 5 5 5 6 6 6 7 7 7 8 8 8 7 7 7 8 8 8 9 9 9 10 10 10 7 7 7 6 6 6 6 6 6 5 5 5 8 8 8 10 10 10 11 11 11 14 14 12 
6 6 6 7 7 7 9 9 9 7 7 7 5 5 5 6 6 6 8 8 8 7 7 7 6 6 6 6 6 6 8 6 7 7 7 7 7 7 7 7 7 7 8 8 8 8 6 7 8 8 8 9 9 9 10 10 10 10 8 9 9 9 9 9 9 9 10 8 9 10 10 10 8 8 8 9 9 9 10 10 10 10 10 10 8 8 8 8 8 8 8 8 8 6 6 6 5 5 5 5 3 4 5 5 5 5 5 5 6 6 6 6 6 6 7 7 7 6 6 6 6 6 6 7 7 7 9 9 9 8 8 8 7 7 7 6 6 6 6 6 6 6 6 6 5 5 5 6 4 5 7 5 6 5 5 5 4 4 4 6 4 5 5 3 4 4 4 4 4 4 4 4 4 4 4 4 4 5 5 5 5 5 5 6 6 6 6 6 6 7 7 7 7 7 7 9 7 10 26 22 19 40 37 32 10 6 7 7 7 7 7 7 5 5 6 8 6 6 6 7 7 7 7 7 7 8 8 8 8 8 8 7 7 7 5 5 5 5 5 5 4 4 4 4 4 4 4 4 4 3 3 3 5 5 5 7 5 6 8 8 8 9 7 8 7 7 7 6 6 6 8 8 8 9 9 9 5 5 5 6 6 6 8 8 8 7 7 7 8 8 10 10 10 10 11 11 11 53 50 41 
5 5 5 7 7 7 8 8 8 8 8 8 6 6 6 6 6 6 8 8 8 6 6 6 6 6 6 5 5 5 8 6 7 7 7 7 7 7 7 7 7 7 8 8 8 8 6 7 7 7 7 7 7 7 8 8 8 8 8 8 8 8 8 8 8 8 9 9 9 11 11 11 12 12 12 11 11 11 9 9 9 7 7 7 8 8 8 7 7 7 7 5 6 5 5 5 4 4 4 4 4 4 4 4 4 4 4 4 6 6 6 7 7 7 6 6 6 7 5 6 6 6 6 7 7 7 9 9 9 8 8 8 7 7 7 7 7 7 6 6 6 6 6 6 8 6 7 5 5 5 5 5 5 5 3 4 6 4 5 5 5 5 5 5 5 6 4 5 3 3 3 4 4 4 4 4 4 4 4 4 5 5 5 5 5 5 5 5 5 7 7 7 7 7 7 7 7 7 7 7 7 7 7 7 7 5 8 6 6 6 5 5 5 4 6 5 6 6 6 6 6 6 7 7 7 6 6 6 6 6 6 6 6 6 5 5 5 5 5 5 4 4 4 4 4 4 4 4 4 4 4 4 4 4 4 6 6 6 8 8 8 8 8 8 7 7 7 6 6 6 4 4 4 6 6 6 6 6 6 6 6 6 8 8 8 8 8 8 8 6 7 8 8 8 10 10 12 47 44 37 
6 6 6 7 7 7 7 7 7 8 8 8 6 6 6 6 6 6 8 8 8 7 7 7 6 6 6 6 6 6 7 7 7 8 8 8 7 7 7 7 7 7 8 8 8 7 7 7 8 8 8 8 6 7 9 9 9 8 8 8 7 7 7 7 7 7 8 8 8 11 9 10 13 13 13 11 11 11 8 8 8 8 8 8 6 6 6 6 6 6 7 5 6 5 5 5 4 4 4 4 4 4 4 4 4 4 4 4 5 5 5 6 6 6 6 6 6 7 5 6 6 6 6 8 8 8 9 9 9 7 7 7 7 7 7 7 7 7 6 6 6 6 6 6 6 6 6 5 3 4 4 2 3 5 5 5 4 4 4 6 4 5 6 4 5 5 5 5 5 5 5 3 3 3 4 4 4 5 5 5 5 5 5 4 4 4 5 5 5 7 7 7 9 7 8 8 8 8 7 7 7 6 6 6 7 7 7 6 6 6 6 6 6 6 6 6 5 5 5 6 6 6 7 7 7 5 5 5 4 4 4 5 5 5 5 5 5 4 4 4 3 3 3 5 5 5 4 4 4 4 4 4 3 3 3 6 6 6 7 7 7 8 8 8 7 7 7 6 6 6 3 3 3 4 4 4 6 6 6 6 6 6 7 7 7 6 6 6 8 6 7 8 8 8 10 10 10 9 9 7 
8 8 8 8 8 8 6 6 6 8 8 8 7 7 7 7 7 7 7 7 7 6 6 6 6 6 6 7 7 7 8 8 8 7 7 7 6 6 6 6 6 6 7 7 7 7 7 7 8 8 8 7 7 7 8 8 8 8 8 8 8 8 8 8 8 8 10 10 10 13 13 13 10 10 10 7 7 7 8 8 8 8 8 8 5 5 5 4 4 4 5 5 5 4 4 4 3 3 3 4 2 3 4 4 4 4 4 4 5 5 5 5 5 5 5 5 5 5 5 5 6 6 6 7 7 7 7 7 7 7 7 7 7 7 7 6 6 6 6 6 6 7 7 7 8 6 7 5 5 5 4 4 4 5 3 4 6 4 5 4 4 4 4 4 4 5 3 4 4 4 4 4 4 4 4 4 4 4 4 4 5 5 5 6 6 6 6 6 6 8 8 8 8 8 8 8 8 8 7 7 7 7 5 6 6 6 6 5 5 5 5 7 6 5 3 4 5 5 5 7 7 7 8 8 8 6 6 6 4 4 4 5 5 5 4 4 4 4 4 4 4 4 4 5 5 5 5 5 5 3 3 3 3 1 2 5 5 5 9 7 8 8 8 8 6 6 6 4 4 4 4 4 4 5 5 5 7 7 7 7 7 7 6 6 6 6 6 6 6 6 6 8 8 6 8 8 8 7 7 9 
