P3
100 50
255
10 10 10 11 11 11 14 14 14 14 14 14 13 13 13 8 8 8 9 9 9 9 9 9 6 6 6 7 7 7 9 9 9 10 10 10 10 10 8 10 8 9 8 10 9 8 8 8 8 8 6 9 9 9 10 8 9 7 7 9 7 7 7 8 8 8 8 8 8 8 8 8 13 13 13 10 10 10 10 10 10 13 13 13 13 13 13 12 12 12 11 11 11 11 11 11 9 9 9 8 8 8 8 8 6 9 7 8 10 10 10 10 10 10 10 10 10 11 11 11 10 10 10 9 9 9 10 10 10 10 10 10 8 8 8 8 8 8 11 9 10 14 14 14 14 12 13 10 10 10 6 6 6 7 7 7 7 7 7 6 6 6 9 9 9 13 13 13 15 15 15 16 14 15 17 15 16 16 16 16 13 13 13 12 12 12 11 11 11 7 7 7 5 5 5 5 5 5 9 9 9 11 11 11 11 11 11 11 11 9 12 10 11 13 11 12 12 12 14 8 8 8 8 8 8 10 8 9 8 8 8 8 8 10 8 8 10 8 8 8 9 9 7 6 8 7 8 8 8 8 10 9 8 8 6 9 7 8 8 6 9 7 5 6 7 7 5 6 6 6 4 4 4 4 4 2 7 7 7 7 7 7 7 5 6 10 10 10 11 11 11 11 11 11 9 11 10 8 8 8 
11 11 11 12 12 12 14 14 14 12 12 12 10 10 10 8 8 8 7 7 7 7 7 7 6 6 6 6 6 6 9 9 9 9 9 9 10 10 10 10 10 8 11 11 9 12 10 11 8 8 10 7 7 7 11 9 10 10 8 9 8 8 8 8 8 8 7 7 7 9 9 9 12 12 12 9 9 9 10 10 10 12 12 12 14 14 14 15 13 14 11 11 13 12 12 12 12 10 11 9 9 9 7 7 7 7 7 9 8 8 8 8 8 8 7 7 7 9 9 9 10 10 10 10 10 10 10 10 10 9 9 9 6 6 6 8 8 8 6 6 6 12 10 11 11 11 11 9 7 8 7 7 7 8 8 8 8 8 8 5 5 5 9 7 8 11 11 11 14 14 14 14 14 14 16 16 16 17 17 17 15 15 15 14 14 14 11 11 11 8 8 8 6 6 6 5 5 5 6 6 6 10 10 10 10 10 10 12 10 13 12 10 11 12 12 12 11 9 12 9 7 8 8 8 8 8 8 6 8 8 6 9 9 9 9 7 8 8 6 7 10 8 9 8 8 8 8 8 10 9 9 9 9 7 8 7 7 7 8 6 9 8 8 8 7 6 4 6 6 6 5 3 6 6 6 6 8 8 8 8 8 8 5 5 5 7 5 6 10 10 10 12 10 11 8 8 8 8 8 8 
10 10 10 13 13 13 12 12 12 11 11 11 9 9 9 8 8 8 7 7 7 7 5 6 7 7 7 9 9 9 9 9 9 9 7 8 10 10 8 11 11 11 13 13 13 12 12 12 8 8 8 9 7 8 10 10 10 11 9 12 9 9 9 10 10 10 7 7 7 8 8 8 10 10 10 10 10 10 10 10 10 13 13 13 14 12 13 13 11 12 11 11 13 11 11 11 10 10 10 11 10 8 7 12 8 9 9 9 9 9 9 7 7 7 8 8 8 9 9 9 10 10 10 10 10 10 10 10 10 9 9 9 7 7 7 8 8 8 8 8 8 11 9 10 9 9 9 9 7 8 8 8 8 7 7 7 6 6 6 5 5 5 8 6 7 9 9 9 12 12 12 14 14 14 14 14 14 14 14 14 15 13 14 13 11 12 13 11 12 11 9 10 8 8 8 8 8 8 10 10 10 9 9 9 9 9 9 10 10 10 12 12 12 12 12 14 9 9 11 9 7 8 8 8 10 8 8 8 11 6 10 10 9 7 9 9 11 9 9 9 8 8 6 8 8 8 10 9 7 9 9 9 9 7 8 8 8 8 6 6 6 6 6 8 7 6 4 5 7 6 7 7 7 8 8 8 9 9 9 10 8 9 7 7 7 8 6 7 10 10 10 11 11 11 10 10 10 7 7 7 
9 9 9 11 11 11 11 11 11 10 10 10 8 8 8 7 7 7 8 8 8 8 6 7 8 8 8 10 10 10 9 9 9 10 8 9 10 10 10 10 8 9 11 11 11 9 9 9 7 7 9 9 7 10 11 9 12 9 9 11 9 9 9 9 9 9 8 8 8 7 7 7 8 8 8 10 10 10 11 11 11 12 14 13 12 12 12 11 11 11 11 11 11 9 9 9 8 8 8 9 7 8 13 9 10 11 11 11 10 10 10 9 9 9 8 8 8 9 9 9 10 10 10 9 9 9 9 9 9 8 8 8 10 10 10 8 8 8 11 9 10 10 10 10 11 9 10 9 9 9 8 8 8 7 7 7 7 7 7 7 7 7 8 8 8 9 9 9 10 10 10 11 11 11 13 11 12 11 11 11 12 12 12 12 12 12 12 12 12 13 13 13 11 11 11 10 10 10 10 10 10 9 9 9 8 8 8 9 9 9 12 10 11 13 13 13 10 10 10 8 8 8 9 7 8 52 8 9 8 7 5 10 9 7 9 9 9 11 9 10 10 9 7 9 9 9 9 9 9 9 9 11 10 10 10 9 9 7 7 9 6 6 6 6 7 5 6 7 7 7 9 9 7 11 9 10 12 12 12 12 12 12 11 9 10 8 8 8 10 8 9 13 13 13 12 12 12 8 8 8 
9 9 9 10 10 10 10 10 10 8 8 8 7 7 7 7 7 7 7 7 7 7 7 7 8 8 8 9 9 9 9 9 9 9 9 9 9 7 8 9 9 9 8 8 8 7 7 7 8 8 8 8 8 8 9 9 9 9 9 9 9 9 9 11 11 11 10 10 10 8 8 8 9 9 9 10 10 10 10 10 10 12 12 12 11 11 11 10 10 10 9 9 9 8 8 8 9 9 9 8 8 8 9 9 9 10 10 10 11 11 11 11 9 10 10 10 10 11 9 10 9 9 9 8 8 8 7 7 7 8 8 8 8 8 8 9 9 9 11 9 10 11 9 10 9 9 9 8 8 8 8 8 8 7 7 7 8 8 8 8 8 8 9 7 8 8 7 5 7 7 7 8 8 8 37 8 10 55 9 11 28 10 10 10 10 10 10 10 8 11 11 11 11 11 9 11 11 11 8 8 8 8 6 7 7 7 7 7 7 7 9 8 4 12 12 12 11 10 8 10 10 12 8 8 10 59 9 8 10 10 10 9 9 9 9 9 9 11 9 10 10 10 10 9 9 9 10 10 10 9 9 9 9 11 10 9 9 11 6 8 7 6 4 5 6 6 6 8 8 6 24 10 9 52 10 11 55 13 14 54 14 14 42 12 14 10 10 8 9 9 9 12 12 14 10 10 10 8 10 9 
7 7 7 9 9 9 10 10 10 10 10 10 8 8 8 7 7 7 7 7 7 8 8 8 9 9 9 9 9 9 10 10 10 10 10 10 8 8 8 6 6 6 7 7 7 7 7 7 9 9 9 10 10 10 9 9 9 10 8 9 10 8 9 12 10 11 10 8 9 8 6 7 10 8 9 11 9 10 11 9 10 11 9 10 11 11 11 9 9 9 8 8 8 8 8 8 7 7 7 7 7 7 8 8 8 8 8 8 10 10 10 12 12 12 12 12 12 10 10 10 8 8 8 7 7 7 8 8 8 8 8 8 8 8 8 8 8 8 9 9 9 9 9 9 8 8 8 8 8 8 9 9 9 8 8 8 8 8 8 10 8 9 8 8 8 6 6 6 6 6 6 37 7 7 57 9 7 59 7 9 28 8 10 8 8 8 7 9 8 8 8 8 9 9 7 8 8 8 8 6 7 8 6 7 7 5 10 6 6 6 8 6 7 9 9 9 12 10 11 10 10 10 9 9 9 22 10 10 10 10 10 11 9 10 10 10 10 11 13 12 11 11 11 13 13 13 12 12 12 10 10 12 10 8 9 9 9 9 6 6 8 7 7 7 5 5 5 21 7 7 54 8 10 62 14 14 61 13 13 61 13 13 57 11 11 44 10 9 8 8 8 10 10 8 9 9 11 10 10 8 
5 5 5 9 9 9 11 11 11 12 12 12 8 8 8 8 8 8 8 8 8 7 7 7 7 7 7 8 8 8 10 10 10 10 10 10 10 8 9 6 6 6 6 6 6 8 8 8 9 9 9 9 9 9 8 8 8 10 10 10 11 11 11 11 11 11 7 7 7 6 6 6 9 9 9 8 8 8 7 7 7 7 7 7 9 9 9 10 10 10 9 9 9 8 8 8 8 8 8 6 6 6 7 7 7 8 8 8 9 9 9 11 11 11 10 10 10 11 11 11 10 10 10 9 7 8 8 8 8 7 7 7 7 7 7 7 7 7 7 7 7 8 8 8 7 7 7 7 7 7 7 7 7 8 8 8 8 8 8 7 9 8 11 7 8 8 8 8 7 9 8 46 6 7 36 6 6 19 7 7 9 9 7 8 8 8 8 8 10 8 8 8 7 7 7 7 7 7 8 8 6 8 8 6 10 8 9 7 6 4 7 7 7 10 8 9 11 11 11 12 10 11 10 10 12 10 10 10 9 9 7 8 10 7 12 10 13 12 12 12 14 12 13 15 15 13 15 13 14 12 12 12 10 10 8 8 8 6 9 7 8 8 8 6 8 8 8 28 8 9 61 10 9 60 12 12 62 12 13 60 11 14 51 10 8 19 9 8 9 9 9 8 8 10 10 10 10 8 10 9 
7 7 7 7 7 7 11 11 11 13 13 13 10 10 10 8 8 8 8 8 8 8 8 8 8 8 8 9 9 9 9 9 9 9 9 9 8 6 7 6 6 6 6 6 6 7 7 7 9 9 9 10 10 10 8 8 8 11 11 11 13 13 13 10 10 10 6 6 6 6 6 6 8 8 8 8 8 8 6 6 6 5 5 5 7 7 7 8 8 8 8 8 8 9 9 9 8 8 8 9 9 9 8 8 8 8 8 8 8 8 8 10 10 10 10 10 10 12 12 12 12 12 12 9 9 9 8 8 8 7 7 7 6 6 6 6 6 6 6 6 6 7 7 7 8 6 7 8 6 7 7 7 7 6 6 6 9 7 8 10 8 11 7 9 8 9 9 9 9 9 9 18 8 7 11 7 6 10 8 11 10 8 9 7 7 7 7 7 7 7 7 9 9 7 10 8 8 8 8 8 8 8 10 9 9 11 10 10 8 9 6 6 4 8 10 9 10 10 10 10 10 10 12 12 14 11 11 11 10 8 9 9 7 8 11 10 6 11 11 13 14 14 14 14 14 12 15 13 14 13 13 13 10 10 10 8 8 8 7 7 7 7 7 7 9 9 11 29 11 11 60 15 12 62 13 16 59 14 11 60 12 12 48 9 10 10 10 10 7 7 9 8 8 8 9 9 9 9 7 8 
6 6 6 7 7 7 11 11 11 12 12 12 12 12 12 10 10 10 8 8 8 7 7 7 8 8 8 8 8 8 7 7 7 5 5 5 5 5 5 6 6 6 5 5 5 7 7 7 11 11 11 11 11 11 8 8 8 12 10 11 12 12 12 9 9 9 8 8 8 7 7 7 7 7 7 6 6 6 6 6 6 6 6 6 7 7 7 6 6 6 6 6 6 7 7 7 9 9 9 9 9 9 10 10 10 5 5 5 7 7 7 9 9 9 9 9 9 10 10 10 10 10 10 10 10 10 9 9 9 8 8 8 7 7 7 5 5 5 6 6 6 7 7 7 10 8 9 9 7 8 6 6 6 6 6 6 7 7 7 8 8 10 7 7 7 9 7 8 9 9 9 8 8 8 8 8 6 9 9 9 10 10 10 7 9 8 8 7 5 8 6 7 7 7 7 7 7 5 7 7 7 8 8 8 10 10 12 9 9 9 7 7 7 9 7 10 10 8 9 11 11 11 11 11 11 12 12 12 8 8 6 8 6 7 9 9 11 11 11 11 12 12 12 11 11 9 12 10 11 13 11 12 10 10 12 10 8 9 8 8 8 8 8 8 10 10 10 18 12 12 31 13 13 31 12 14 31 13 11 28 12 12 26 12 11 11 11 11 8 8 8 8 8 8 8 8 8 9 9 9 
6 6 6 7 7 7 10 10 10 11 11 11 13 13 13 11 11 11 9 9 9 8 8 8 8 8 8 7 7 7 6 6 6 5 5 5 6 6 6 7 7 7 6 6 6 6 6 6 11 11 11 12 12 12 8 8 8 10 8 9 12 12 12 10 10 10 6 6 6 6 6 6 6 6 6 6 6 6 6 6 6 7 7 7 7 7 7 5 5 5 5 5 5 7 7 7 9 9 9 9 9 9 8 8 8 7 7 7 7 7 7 9 9 9 9 9 9 8 8 8 10 8 9 11 11 11 12 10 11 9 9 9 6 6 6 7 7 7 7 7 7 7 7 7 9 9 9 7 7 7 7 7 7 7 7 7 7 7 7 6 6 6 6 8 7 8 8 8 8 8 8 8 8 8 9 9 9 10 10 10 10 10 10 9 9 11 6 6 6 8 8 8 7 7 7 6 6 6 6 6 8 8 6 7 9 9 11 10 10 10 10 10 10 9 7 8 8 8 8 12 12 12 11 11 11 10 10 10 7 7 9 8 8 6 8 8 8 12 12 10 12 10 11 8 8 8 8 8 8 28 10 8 24 10 10 11 10 8 10 10 10 10 10 10 11 11 13 10 8 9 11 11 9 13 11 12 13 13 13 11 11 11 12 12 14 11 11 9 9 9 9 8 8 8 8 8 8 8 8 8 
5 5 5 6 6 6 9 9 9 10 10 10 12 12 12 11 11 11 10 10 10 6 6 6 6 6 6 7 7 7 7 7 7 6 6 6 7 5 6 8 8 8 7 7 7 7 7 7 10 10 10 10 10 10 9 9 9 10 10 10 11 9 10 11 9 10 7 5 6 5 3 4 6 4 5 7 5 6 9 7 8 9 7 8 7 7 7 6 6 6 6 6 6 8 8 8 9 9 9 8 8 8 8 8 8 9 9 9 9 9 9 9 9 9 8 8 8 8 8 8 9 9 9 12 12 12 11 11 11 8 8 8 8 8 8 8 8 8 8 8 8 8 8 8 9 9 9 8 8 8 6 6 6 8 8 8 6 6 8 7 6 4 7 7 7 9 8 6 9 9 11 8 8 10 8 8 8 9 9 7 6 10 9 8 8 8 8 8 8 7 7 7 7 7 7 7 9 8 8 6 9 8 6 7 10 8 9 10 10 10 11 9 10 10 10 10 9 7 10 11 11 11 11 11 11 9 9 9 8 8 8 9 7 8 8 10 9 11 11 11 10 10 10 8 8 6 6 6 6 39 8 6 29 7 9 11 11 11 12 12 12 11 9 10 11 9 12 10 10 10 10 8 9 10 10 12 10 10 12 9 7 8 10 10 10 11 9 10 10 10 10 9 9 9 9 8 6 6 8 5 
6 6 6 6 6 6 7 7 7 11 11 11 11 11 11 11 11 11 10 10 10 8 8 8 6 6 6 6 6 6 7 7 7 6 6 6 6 6 6 8 8 8 8 8 8 8 8 8 9 9 9 8 8 8 10 10 10 10 8 9 10 10 10 11 11 11 7 7 7 5 5 5 6 6 6 7 7 7 8 8 8 7 7 7 6 6 6 7 7 7 7 7 7 8 8 8 9 9 9 10 10 10 10 10 10 10 10 10 9 9 9 9 9 9 10 8 9 9 9 9 9 9 9 9 11 10 11 11 11 10 10 10 10 10 10 11 11 11 9 7 8 9 7 8 10 10 10 9 9 9 6 6 6 7 7 7 6 6 6 6 4 5 8 6 7 9 7 8 9 9 11 8 8 8 9 9 9 10 10 12 9 9 9 8 8 6 8 8 8 7 7 7 6 6 6 7 7 5 8 8 8 10 8 9 9 7 8 9 9 9 9 9 9 10 8 9 9 9 7 12 10 11 13 11 12 9 9 9 7 9 8 8 8 8 7 9 8 10 10 10 9 9 9 7 7 7 7 7 7 23 7 7 17 9 7 11 11 11 12 12 12 11 11 11 10 10 10 10 10 10 9 11 10 10 10 10 8 8 8 6 6 6 8 8 8 10 10 10 11 11 11 9 9 7 8 8 8 7 7 7 
7 7 7 5 5 5 6 6 6 10 8 9 9 9 9 11 11 11 12 10 11 10 10 10 7 7 7 5 5 5 7 7 7 8 10 9 9 9 9 9 9 9 9 9 9 9 9 9 8 8 8 8 8 8 9 9 9 10 10 10 11 9 10 10 10 10 9 9 9 7 7 7 8 6 7 7 7 7 9 9 9 8 8 8 6 6 6 9 9 9 9 9 9 9 11 10 11 11 11 10 10 10 10 8 9 9 9 9 10 10 12 9 9 9 12 10 13 11 11 9 10 10 10 11 11 11 12 12 10 14 10 11 11 11 11 11 9 10 8 8 8 8 8 8 10 10 10 9 9 9 7 7 7 7 7 7 6 6 6 6 6 6 7 7 7 8 8 8 8 8 8 8 8 8 8 8 8 8 8 8 8 8 8 8 6 7 9 7 8 6 6 6 8 7 5 17 8 9 34 10 8 28 10 10 8 8 8 9 9 9 10 9 7 8 8 8 9 9 7 10 10 10 11 11 11 8 8 8 7 9 8 8 8 8 10 8 9 10 12 11 12 10 11 9 9 9 29 9 10 34 8 7 18 8 6 10 10 10 12 12 12 12 12 14 11 11 11 12 12 12 10 10 10 9 9 9 8 8 8 7 7 5 9 8 6 10 8 9 9 11 10 9 9 9 8 8 8 33 9 9 
7 7 7 6 6 6 6 6 6 8 8 8 7 7 7 9 11 10 11 11 11 10 10 10 8 8 8 6 6 6 6 6 6 8 8 8 10 10 10 10 10 10 9 9 9 9 9 9 9 9 9 9 9 9 9 9 9 10 10 10 10 10 10 10 10 10 9 9 9 7 7 7 5 5 5 7 7 7 8 8 8 8 8 8 8 8 8 8 8 8 10 10 10 12 12 12 11 11 11 10 10 10 9 9 9 8 8 8 9 7 8 8 10 9 11 11 11 12 12 12 12 10 11 11 11 11 11 11 11 12 12 12 11 11 11 9 9 9 7 7 7 7 7 7 9 9 9 8 8 8 9 9 9 8 8 8 6 6 6 6 6 6 7 7 7 8 8 8 8 8 8 8 8 8 8 8 8 9 9 9 7 7 5 7 7 7 7 7 7 6 4 7 6 6 6 27 7 8 51 9 10 29 11 9 10 9 7 9 9 9 10 8 9 9 9 9 9 9 9 11 11 11 11 11 11 10 8 9 8 6 7 8 8 8 9 9 9 11 9 10 11 11 11 9 9 9 47 7 7 59 9 10 29 9 10 10 10 10 10 10 10 11 11 11 12 12 12 14 12 13 12 12 12 10 8 11 9 9 11 7 7 7 8 8 8 8 8 8 10 8 9 8 8 8 8 8 8 60 8 10 
8 8 8 8 8 8 7 7 7 8 8 8 7 9 8 9 9 9 10 10 10 9 9 9 6 6 6 5 5 5 5 5 5 8 8 8 10 10 10 10 10 10 9 9 9 9 9 9 8 8 8 10 10 10 9 9 9 10 10 10 10 10 10 10 10 10 8 8 8 7 7 7 6 6 6 7 7 7 8 8 8 9 9 9 10 10 10 11 9 10 11 11 11 11 11 11 10 10 10 9 9 9 7 7 7 8 8 8 8 6 7 7 7 7 10 10 10 12 12 12 12 10 11 9 11 10 12 10 11 13 11 12 10 10 10 9 9 9 8 8 8 8 8 8 8 8 8 9 9 9 10 10 10 8 8 8 6 6 6 7 7 7 8 8 8 8 8 8 8 8 8 8 8 8 8 8 8 8 8 8 8 8 8 6 8 7 7 5 6 7 7 7 7 7 7 20 8 8 26 8 8 9 11 10 9 9 7 10 10 10 9 9 9 9 9 11 11 9 10 9 9 9 11 11 11 10 10 10 7 7 5 9 9 9 10 10 8 10 10 10 10 10 10 9 9 11 32 8 8 55 9 11 29 11 11 11 11 11 10 10 12 10 10 10 12 12 12 14 14 14 14 14 14 11 11 11 9 9 9 7 7 5 8 8 8 7 9 8 10 8 9 9 7 8 8 8 8 41 7 8 
9 9 9 11 11 11 11 11 11 8 8 8 7 7 7 8 8 8 10 10 10 11 11 11 7 5 6 4 4 4 4 4 4 6 6 6 8 8 8 9 9 9 10 10 10 9 9 9 9 9 9 10 10 10 10 10 10 9 9 9 8 8 8 6 6 6 7 7 7 7 7 7 7 7 7 11 9 10 12 10 11 12 12 12 12 12 12 12 10 11 11 11 11 10 10 10 7 7 7 7 7 7 8 8 8 7 7 7 8 8 8 8 10 9 9 7 8 9 9 9 11 11 13 10 10 10 9 9 7 10 10 10 10 10 10 9 9 9 10 10 10 9 9 9 10 10 10 9 9 9 10 8 9 7 7 7 8 8 8 10 10 10 10 10 10 8 8 8 8 8 8 9 9 9 9 9 9 9 9 9 9 7 8 7 7 7 7 7 7 7 7 5 7 7 7 8 8 6 8 8 8 9 9 11 11 11 11 11 11 9 10 10 10 9 9 9 9 8 6 7 5 6 8 10 9 10 10 10 8 8 8 11 9 10 11 11 9 9 9 9 9 7 8 8 8 8 10 10 10 28 10 10 24 10 10 12 10 11 10 10 10 9 9 7 10 10 10 12 12 12 16 14 15 14 14 14 8 10 9 7 7 7 7 7 9 8 8 8 7 7 5 7 7 5 7 7 7 7 7 7 
10 10 10 12 12 12 11 11 11 9 7 8 8 8 8 7 5 6 8 8 8 10 10 10 8 6 7 5 5 5 4 4 4 6 6 6 8 8 8 10 10 10 11 11 11 8 8 8 9 9 9 10 10 10 11 11 11 8 8 8 6 6 6 5 5 5 7 7 7 6 6 6 7 7 7 10 8 9 12 10 11 12 12 12 12 12 12 12 12 12 11 11 11 8 8 8 6 4 5 5 5 5 6 6 6 7 7 7 8 8 8 9 9 9 10 8 9 8 8 8 9 9 9 10 10 10 10 9 7 10 8 9 10 10 10 10 10 10 10 10 10 9 9 9 9 9 9 10 10 10 9 7 8 5 5 5 10 10 10 11 11 11 11 11 11 10 10 10 8 8 8 7 7 7 8 8 8 9 9 9 10 10 10 9 9 7 7 7 7 7 7 7 9 7 10 8 8 8 8 8 8 9 9 7 11 11 11 11 11 9 10 10 10 10 10 8 8 8 8 6 5 3 6 6 4 9 9 9 11 11 11 12 12 12 12 12 12 9 9 9 8 8 8 9 7 8 11 9 10 10 10 10 11 11 11 13 13 13 11 11 11 9 9 9 9 9 9 9 9 9 12 12 12 15 15 15 15 13 14 9 7 10 6 4 5 7 7 7 8 6 7 6 6 6 6 6 6 7 7 7 
9 9 9 10 10 10 12 12 12 9 7 8 7 7 7 7 5 6 6 6 6 8 8 8 8 6 7 6 6 6 5 5 5 7 7 7 8 8 8 11 11 11 10 10 10 6 6 6 9 9 9 11 11 11 9 9 9 7 7 7 6 6 6 6 6 6 6 6 6 7 7 7 8 8 8 8 8 8 9 9 9 11 11 11 12 12 12 11 11 11 11 11 11 7 7 7 5 3 4 6 6 6 7 7 7 6 6 6 6 6 6 8 6 7 9 9 9 8 8 8 10 8 9 9 11 10 9 9 9 12 10 11 10 10 10 10 10 10 10 10 10 10 10 10 10 10 10 8 8 8 9 9 9 7 7 7 9 9 9 12 12 12 12 12 12 9 9 9 7 7 7 7 7 7 7 7 7 7 7 7 10 10 8 11 11 11 10 8 9 7 7 7 7 7 9 8 10 9 9 9 9 10 10 10 10 10 10 11 11 11 10 10 10 7 7 7 7 7 7 6 6 4 6 6 6 8 8 8 10 12 9 14 14 14 13 13 11 11 9 10 8 8 8 7 7 7 9 9 9 10 9 14 11 13 12 14 14 12 12 12 12 9 9 9 9 9 7 11 11 9 13 13 13 13 15 14 15 15 15 10 10 10 7 7 7 7 7 5 8 8 10 6 6 8 5 5 5 5 4 2 
9 9 9 8 8 8 9 9 9 10 8 9 8 8 8 7 7 7 6 6 6 6 6 6 8 6 7 7 7 7 5 7 6 7 7 7 9 9 9 9 9 9 9 9 9 7 7 7 10 10 10 9 9 9 8 8 8 7 7 7 7 7 7 7 7 7 7 7 7 7 7 7 9 9 9 8 8 8 5 5 5 11 11 11 15 15 15 11 11 11 8 8 8 7 7 7 6 6 6 7 7 7 8 8 8 6 6 6 8 6 7 8 10 9 11 11 11 10 10 10 10 10 10 11 9 10 9 9 9 10 10 10 10 10 10 10 10 10 9 9 9 9 9 9 8 8 8 9 9 9 9 9 9 8 8 8 9 9 9 11 11 11 11 11 11 8 8 8 6 6 6 7 7 7 8 8 8 7 7 7 8 8 8 11 11 11 11 11 11 8 8 8 8 10 9 10 10 10 11 11 11 9 9 9 11 9 12 10 10 10 10 10 10 7 7 7 6 6 4 6 6 6 7 8 10 11 9 10 14 12 13 15 13 16 11 11 11 10 8 9 8 8 8 9 9 9 9 9 9 11 11 11 15 15 13 17 16 14 15 13 14 10 10 10 11 9 10 12 12 12 15 15 15 18 14 15 13 13 13 11 11 9 8 8 8 8 6 7 5 7 6 7 5 6 7 7 7 6 6 8 
8 8 8 8 8 8 8 8 8 10 10 10 10 10 10 8 8 8 8 6 7 8 8 8 9 7 8 6 6 6 6 6 6 10 8 9 10 10 10 9 9 9 8 8 8 7 7 7 8 8 8 8 8 8 9 9 9 8 8 8 8 6 7 7 7 7 7 7 7 8 8 8 10 8 9 6 6 6 6 6 6 11 11 11 14 14 14 12 12 12 9 9 9 9 7 8 7 7 7 7 7 7 7 7 7 6 6 6 7 7 7 10 10 12 12 10 11 12 10 11 11 13 10 19 10 15 19 10 11 12 10 11 11 11 11 12 10 11 10 10 10 9 9 9 7 7 7 8 8 8 9 9 9 11 11 11 10 10 10 9 9 9 8 8 8 7 7 7 7 7 7 8 8 8 8 8 8 8 8 8 8 6 9 10 10 10 10 10 10 9 9 9 10 10 8 12 12 12 11 11 11 9 7 8 9 9 9 10 8 9 10 10 8 7 7 5 6 6 6 6 8 7 10 8 9 25 13 13 15 17 16 14 12 13 11 9 10 9 9 7 8 8 10 9 9 9 10 10 10 12 12 12 17 17 17 14 16 15 12 10 11 10 10 10 9 9 9 14 10 11 27 17 18 26 16 17 25 11 10 22 10 10 18 10 8 7 7 7 6 6 6 7 7 7 9 9 9 7 9 6 
8 8 8 8 8 8 8 8 8 10 10 10 11 11 11 9 7 8 9 9 9 9 9 9 9 9 9 7 7 7 10 10 10 12 10 11 12 10 11 10 10 10 8 8 8 7 7 7 8 8 8 8 8 8 8 8 8 9 9 9 7 7 7 6 6 6 7 7 7 9 7 8 8 6 7 5 5 5 6 6 6 11 11 11 13 13 11 12 12 12 9 9 9 9 7 8 8 8 6 9 9 9 8 8 8 7 5 8 7 7 7 9 9 11 10 10 10 10 10 10 16 12 13 31 11 10 50 10 10 14 10 9 11 11 11 11 11 11 12 12 12 10 10 8 7 7 5 8 8 8 10 10 10 12 11 9 10 8 11 7 7 7 10 10 10 8 8 8 9 9 9 15 9 9 15 9 9 15 6 7 11 7 6 10 8 9 10 10 10 9 9 9 9 9 9 11 9 10 14 10 9 8 8 8 9 9 9 8 8 8 8 8 8 8 8 8 8 6 7 15 6 7 14 8 8 60 12 12 23 14 15 19 14 11 16 10 10 8 8 8 7 7 7 9 9 9 11 11 11 13 13 11 13 15 14 12 10 13 10 10 8 10 10 10 12 11 9 31 11 10 58 18 18 60 16 15 60 10 9 60 8 10 52 10 11 14 10 11 7 9 8 9 9 7 8 8 8 9 9 9 
8 8 8 9 7 8 6 8 7 10 10 10 11 11 11 10 8 9 8 8 8 10 10 10 10 10 10 10 8 9 10 10 10 11 11 11 11 11 11 12 12 12 8 8 8 7 7 7 9 7 8 9 7 8 8 8 8 7 7 7 6 6 6 7 7 7 8 8 8 8 8 8 7 7 7 5 5 5 6 6 6 9 9 9 11 11 11 10 10 10 9 11 10 11 9 10 9 7 8 9 9 9 11 10 8 7 7 5 6 6 4 7 7 7 7 7 7 13 11 14 26 10 10 51 9 10 51 9 10 45 11 10 11 11 11 13 11 12 14 14 12 12 10 11 9 9 9 9 9 7 10 10 10 11 11 9 9 9 9 7 7 7 9 9 7 8 8 8 14 8 8 47 8 9 59 7 9 59 8 7 27 7 8 8 8 8 10 10 10 10 10 12 9 9 9 9 9 9 9 9 9 8 8 8 9 11 10 8 8 8 7 7 7 7 7 5 23 7 8 58 8 9 60 9 8 60 10 11 61 11 12 61 11 10 60 8 10 13 7 7 8 6 7 8 8 8 10 10 10 10 10 8 12 10 11 10 10 10 10 10 10 10 10 10 35 11 11 60 12 10 59 13 13 60 12 10 59 11 9 60 10 11 59 11 11 49 10 11 10 10 10 8 8 8 8 10 9 9 7 8 
8 8 8 9 9 9 7 7 7 8 8 8 11 11 11 10 10 10 9 11 10 11 11 11 11 11 11 11 9 10 8 8 8 10 10 10 11 11 11 10 10 10 8 8 8 7 7 7 8 8 8 8 8 8 7 7 7 7 7 7 6 6 6 7 7 7 7 7 7 10 10 10 8 8 8 5 5 5 7 7 7 9 9 9 10 10 8 9 9 9 9 9 9 10 9 7 9 9 9 10 10 10 10 10 10 8 8 10 6 6 6 6 6 6 9 9 9 10 10 10 11 9 12 10 10 10 11 11 11 11 11 11 10 10 12 10 10 10 11 11 11 13 13 11 12 14 13 11 11 9 11 10 8 10 10 10 8 8 8 7 7 7 8 8 8 7 7 7 46 8 7 60 9 8 62 7 10 58 8 7 27 7 8 8 8 10 9 9 9 11 9 10 8 8 6 11 10 8 9 9 7 9 9 9 9 9 7 9 9 7 7 7 7 15 6 9 58 6 8 58 10 8 57 9 9 58 8 9 59 10 6 53 9 10 52 8 9 14 8 10 8 8 8 8 8 8 7 9 8 8 8 8 9 9 11 10 10 10 11 9 10 9 9 11 31 9 11 55 9 11 59 9 8 58 8 9 57 11 11 57 13 14 45 11 10 11 9 10 11 11 11 9 9 9 11 9 10 11 9 10 
8 8 8 8 8 8 7 7 7 6 6 6 9 9 9 11 11 11 12 12 12 10 10 10 11 11 11 10 10 10 9 9 9 10 10 10 11 11 11 10 10 10 7 7 7 6 6 6 8 8 8 9 9 9 7 7 7 7 7 7 6 6 6 8 8 8 10 10 10 10 10 10 9 9 9 6 6 6 7 7 7 7 7 7 8 8 8 9 9 11 9 9 7 10 10 10 9 9 9 10 10 10 10 10 10 9 9 9 7 5 6 7 5 6 10 10 10 9 9 9 9 9 9 11 11 11 11 11 11 12 12 10 11 9 10 10 9 7 12 12 10 13 13 13 14 14 14 14 14 14 13 11 12 8 10 9 8 8 8 7 5 6 7 7 5 8 8 8 44 9 7 58 8 7 58 8 9 58 8 7 25 7 7 8 8 8 11 10 8 11 9 10 9 9 9 8 10 9 10 8 9 10 10 12 12 10 11 7 9 8 9 7 10 12 6 6 59 8 7 56 8 8 60 8 10 59 9 10 59 11 9 16 10 12 11 9 10 8 8 10 9 9 9 8 8 8 8 8 10 8 8 8 9 9 7 10 10 10 11 11 11 10 10 10 8 8 8 27 7 8 58 7 6 58 8 7 60 12 12 48 12 12 13 13 13 11 11 9 10 10 12 10 10 10 12 11 9 11 11 11 
8 8 8 8 8 8 8 8 8 7 7 7 8 10 9 11 11 11 14 12 13 10 10 10 9 9 9 9 9 9 11 11 11 10 12 11 11 11 11 8 8 8 7 7 7 8 8 8 8 8 8 7 7 7 7 7 7 8 8 8 9 9 9 10 10 10 11 11 11 9 9 9 9 9 9 7 7 7 7 7 7 8 8 8 7 7 7 7 9 8 9 9 9 9 9 9 10 10 10 9 9 9 9 9 11 9 9 9 9 7 8 7 7 7 10 10 8 11 11 9 7 8 10 10 10 12 14 14 14 11 13 10 12 8 9 9 9 9 13 13 13 14 13 11 14 14 14 14 12 13 9 9 9 8 8 6 9 7 8 7 7 7 6 4 5 7 7 5 8 10 9 7 9 8 39 9 9 59 9 10 29 9 8 10 10 10 10 10 10 8 8 10 10 8 9 9 9 9 12 12 14 12 12 12 11 11 13 11 11 11 10 8 11 13 7 7 52 8 7 7 7 9 58 8 9 60 11 14 13 11 12 10 10 8 10 10 10 8 8 8 9 9 7 10 8 9 10 10 10 9 9 9 9 9 9 10 10 10 13 11 12 12 12 12 11 9 10 9 9 9 27 7 8 58 10 8 45 9 9 11 11 11 11 13 12 10 10 10 8 10 7 12 10 11 13 13 11 10 12 9 
8 8 8 9 7 8 8 8 8 9 9 9 10 10 10 11 11 11 11 11 11 7 7 7 8 8 8 10 10 10 11 11 11 10 10 10 10 10 10 8 8 8 7 7 7 9 7 8 8 8 8 8 8 8 8 8 8 9 9 9 10 10 10 11 11 11 9 9 9 10 10 10 9 9 9 8 8 8 7 7 7 8 8 8 7 7 7 5 7 6 7 7 7 11 11 11 10 8 9 9 9 9 9 9 9 8 8 8 8 8 8 9 9 9 10 11 13 12 12 12 12 10 11 10 9 7 13 13 13 13 13 13 20 9 7 57 9 7 52 10 11 14 13 11 13 13 11 11 11 11 6 6 6 7 7 7 8 8 8 6 6 6 9 5 6 8 8 8 9 9 9 8 8 8 10 8 9 9 9 9 8 8 6 7 7 7 5 7 6 8 6 7 9 9 9 8 10 7 11 11 9 10 10 10 10 10 10 11 10 8 10 10 8 9 9 9 7 7 7 8 8 8 7 7 7 9 9 7 9 9 11 9 9 7 11 9 10 10 9 7 8 10 9 10 8 9 9 9 9 10 8 9 10 8 9 10 10 10 12 12 10 14 14 14 16 14 15 13 13 13 10 8 9 7 7 7 9 7 8 10 10 10 11 10 8 10 10 8 9 9 9 10 10 10 10 10 10 9 9 11 
8 8 8 8 8 8 7 7 7 9 9 9 11 9 10 11 11 11 10 10 10 8 8 8 9 9 9 10 10 10 12 10 11 10 10 10 9 9 9 9 7 8 6 6 6 7 7 7 9 9 9 10 10 10 9 9 9 9 7 8 9 9 9 11 11 11 9 9 9 9 9 9 8 8 8 7 7 7 8 8 8 7 7 7 7 7 7 7 7 7 7 7 7 9 9 9 10 11 15 10 10 10 10 8 9 7 7 5 8 8 8 9 9 9 11 11 11 13 13 11 12 13 8 10 10 10 11 9 10 12 12 14 22 8 7 56 5 4 53 9 8 11 11 11 12 12 12 9 9 9 6 8 7 8 8 6 8 8 6 7 7 7 6 6 6 8 8 8 10 8 9 9 7 8 10 8 9 6 6 6 4 4 6 5 5 5 6 6 8 8 6 7 12 10 11 11 11 13 10 10 12 8 8 8 8 8 8 7 7 7 7 7 7 9 9 11 7 7 7 7 7 7 6 6 8 7 5 6 8 8 8 9 9 9 9 9 9 9 11 10 10 10 10 8 10 7 10 10 10 41 9 10 28 8 9 10 10 10 13 13 13 14 14 14 16 14 15 14 12 13 11 11 9 10 10 10 11 9 10 10 10 8 11 11 11 11 11 11 11 11 11 8 6 7 7 7 7 57 9 7 
9 9 9 9 9 9 7 7 7 8 8 8 10 10 10 12 12 12 14 12 13 11 11 11 10 10 10 9 9 9 11 9 10 11 11 11 9 9 9 7 7 7 8 6 7 8 8 8 9 9 9 10 10 10 9 7 8 8 8 8 10 10 10 10 10 10 9 9 9 11 9 10 11 9 10 9 9 9 8 8 8 7 7 7 8 8 8 8 8 6 8 7 12 9 9 7 43 9 8 54 8 10 54 10 11 51 9 10 30 9 8 9 11 10 10 10 10 11 11 11 11 11 11 10 10 8 9 9 7 11 9 10 9 9 9 14 5 6 13 7 7 15 9 9 56 10 10 53 9 10 52 8 7 54 6 6 53 9 8 14 8 8 8 8 8 9 9 7 11 11 9 10 10 8 9 9 11 6 6 4 6 4 5 5 5 5 6 8 5 8 8 8 24 10 10 53 13 13 51 11 11 52 8 7 39 9 7 9 9 9 9 9 9 8 8 6 7 7 7 8 6 7 7 7 7 6 6 8 7 7 7 8 8 8 8 8 8 10 8 9 10 10 10 9 9 7 42 10 11 56 10 10 28 10 8 9 9 9 13 13 13 16 16 16 14 14 14 11 11 9 10 10 10 10 10 10 10 11 13 13 11 12 14 14 12 13 13 15 12 12 12 15 9 9 51 7 8 56 8 6 
11 11 11 8 8 8 9 7 8 9 9 9 11 11 13 12 12 12 16 14 15 15 16 11 13 12 10 9 9 9 9 11 8 10 10 10 9 9 9 7 7 7 8 10 9 10 8 9 11 11 9 8 8 8 9 7 8 9 9 9 12 10 11 10 10 8 11 9 10 9 9 7 10 10 10 9 9 9 10 10 10 8 8 8 9 9 7 8 8 8 43 7 7 51 7 6 56 8 8 58 8 9 58 10 10 59 9 10 34 10 10 10 10 8 10 10 10 11 9 10 10 9 7 8 10 9 9 9 9 10 10 10 9 9 11 7 7 7 10 9 7 16 7 10 62 7 10 60 10 11 59 8 7 56 4 6 57 7 6 16 7 8 9 9 9 11 9 10 11 11 11 11 11 11 8 8 10 6 6 8 7 7 7 7 7 5 7 7 7 10 8 9 29 9 10 60 12 12 60 12 12 60 10 9 58 8 9 41 9 10 9 9 9 8 8 8 9 8 6 7 7 7 7 7 7 7 9 8 6 6 6 7 7 7 10 9 7 11 9 10 10 10 10 10 8 9 46 10 10 59 11 9 54 8 8 22 8 7 12 12 12 15 15 15 13 11 12 8 8 10 9 9 9 9 9 9 11 11 11 13 12 10 13 13 13 20 14 14 54 16 15 55 14 12 59 11 9 56 8 8 
9 9 9 7 7 7 8 8 8 10 10 10 10 10 10 11 11 9 14 14 16 15 15 15 11 13 12 10 10 12 12 10 11 9 9 9 8 8 6 8 8 8 9 9 9 26 12 12 54 9 12 40 9 7 8 6 7 10 8 9 10 10 10 10 10 10 9 9 9 8 8 8 9 9 9 12 12 10 9 9 11 9 7 8 8 8 8 7 7 7 45 6 7 58 7 6 59 8 7 58 8 9 58 8 9 57 7 8 34 8 7 11 9 10 9 9 7 9 9 9 8 8 8 8 8 8 9 9 7 11 10 8 11 9 10 10 8 9 16 11 8 53 9 10 59 9 8 60 10 11 57 6 5 59 5 3 57 7 8 53 9 8 14 10 9 10 10 10 13 11 12 11 11 13 10 10 8 6 7 2 7 7 7 8 8 8 8 8 8 9 9 11 27 7 8 58 10 8 59 9 12 59 11 9 58 8 9 46 7 8 9 9 9 8 8 6 7 7 7 7 7 7 10 8 9 8 6 7 8 8 8 9 9 9 9 9 9 9 7 8 43 9 8 51 9 10 54 10 11 58 10 8 58 8 9 27 7 8 7 7 7 9 9 7 10 10 10 8 8 8 8 8 10 8 8 8 9 9 9 11 11 11 11 11 11 18 12 12 60 14 16 58 14 13 59 9 10 58 9 5 
9 9 9 7 7 7 9 7 8 9 9 9 11 11 11 9 9 7 14 12 13 16 14 15 14 14 14 13 13 13 11 11 11 9 9 7 7 7 7 8 8 6 10 10 10 20 11 12 34 10 10 55 9 9 39 9 9 8 8 10 9 9 9 10 10 10 10 8 9 9 7 10 9 9 9 10 10 8 9 9 11 8 8 6 8 8 6 8 6 7 15 5 4 49 5 6 57 6 5 57 8 4 58 7 6 57 7 6 35 9 10 10 10 10 10 10 10 8 8 8 9 9 9 9 9 9 8 8 6 10 10 8 11 11 11 12 10 11 16 10 12 60 10 11 55 9 9 59 9 8 58 6 8 60 6 6 59 9 8 59 9 8 16 10 10 10 10 10 11 11 13 11 11 11 10 10 8 9 9 9 8 8 8 8 8 6 8 8 8 8 8 10 28 8 7 59 8 7 58 7 6 58 8 7 57 7 8 46 7 8 7 7 7 8 7 5 8 8 8 9 8 6 6 6 6 6 6 6 9 9 9 8 9 11 8 8 8 8 6 7 16 7 8 49 9 9 60 10 9 58 8 9 58 8 7 49 7 8 46 6 6 27 7 8 8 8 8 9 9 11 9 7 8 8 8 8 9 9 7 11 9 10 12 10 11 16 12 13 59 13 13 58 10 10 58 8 11 58 10 10 
9 9 9 9 9 9 8 8 8 8 8 8 9 9 9 12 12 12 15 15 15 16 16 16 17 17 17 16 16 16 13 13 13 11 9 10 8 8 8 9 9 9 13 13 11 14 14 14 30 12 12 61 11 10 56 10 10 37 9 8 10 10 10 9 7 8 9 9 9 8 8 8 10 10 10 9 9 9 8 8 8 8 8 8 8 8 10 7 7 7 5 7 6 45 7 6 58 6 8 58 7 6 57 7 8 59 7 9 34 10 10 10 8 9 9 9 9 10 10 10 11 9 10 9 9 9 9 9 9 8 8 8 9 9 7 13 9 8 12 10 11 24 10 9 59 11 9 59 9 10 58 7 6 58 6 8 58 8 9 29 9 8 9 9 7 9 9 7 9 9 9 10 10 10 10 11 13 10 10 10 9 9 9 10 8 9 8 10 9 10 10 10 28 8 7 60 9 8 58 8 9 58 8 9 58 8 9 46 8 7 9 7 10 7 7 7 7 7 9 9 9 9 8 8 8 7 7 7 8 8 8 8 8 8 10 10 10 9 9 7 8 8 8 46 7 8 58 8 9 58 10 8 59 9 10 58 8 9 39 8 6 13 7 7 8 8 6 9 9 9 9 9 9 9 9 9 9 7 8 9 9 11 8 8 8 16 10 10 60 12 12 59 11 11 58 10 10 59 9 10 
10 10 10 9 9 9 9 9 9 9 9 9 10 12 11 13 11 12 15 15 15 18 18 18 18 18 18 17 17 15 15 15 13 13 13 13 10 10 10 11 9 10 22 10 10 36 12 12 32 14 14 61 13 13 51 12 13 20 10 9 7 9 8 9 9 9 8 8 8 10 10 10 11 11 11 7 9 8 7 7 7 8 8 10 8 8 8 9 9 9 8 8 8 16 6 5 49 8 6 59 9 8 36 7 9 20 9 7 17 8 11 10 10 12 8 8 8 9 9 11 10 10 12 10 10 10 10 8 9 10 10 10 10 10 8 11 11 11 9 9 9 16 10 12 62 14 12 61 11 10 58 8 9 19 7 7 20 8 8 8 8 8 9 9 7 8 10 9 8 8 8 8 8 8 8 8 8 9 9 11 10 10 10 13 9 10 12 12 12 11 11 11 14 8 8 32 6 7 59 9 8 49 7 9 20 8 8 18 8 9 9 9 9 9 9 9 9 9 9 9 9 9 9 9 7 8 8 8 7 7 7 8 8 8 9 9 9 10 10 10 7 7 9 46 8 5 59 9 8 60 10 11 59 9 8 58 8 9 32 8 8 8 8 8 7 7 7 7 7 7 9 9 11 11 9 10 11 11 11 10 10 10 19 9 8 49 9 10 59 11 9 60 10 11 58 10 10 58 10 10 
11 11 11 8 8 8 10 10 10 13 11 12 14 14 14 13 15 14 13 13 13 18 16 17 17 17 17 15 15 15 15 13 14 14 14 14 11 11 11 9 10 12 17 11 11 24 12 12 20 12 10 31 13 13 27 11 12 12 10 11 7 7 7 9 7 8 9 9 7 10 10 8 11 9 10 7 7 7 7 7 7 7 7 7 6 6 6 8 8 6 6 6 6 6 6 8 20 8 8 27 9 9 15 9 9 10 10 10 12 12 12 13 11 12 9 9 9 8 8 8 10 9 7 10 10 8 9 9 9 10 9 7 9 9 7 9 9 9 9 9 9 12 10 11 31 12 14 31 13 11 28 10 10 10 10 10 8 8 6 8 8 8 9 7 10 8 8 10 8 8 8 8 8 8 8 8 8 7 9 8 11 10 8 11 11 11 11 11 11 10 8 9 7 7 7 13 8 5 27 7 9 24 8 8 9 10 14 9 9 11 10 8 9 10 10 10 11 11 11 9 9 7 8 8 8 6 6 4 8 8 6 7 7 7 8 8 8 5 6 8 8 7 5 46 7 8 57 9 9 59 9 10 38 8 8 26 6 7 16 8 6 23 7 7 23 7 7 7 9 8 20 8 10 40 10 12 41 11 11 40 10 10 44 8 8 59 9 8 58 8 9 58 8 11 59 9 8 60 10 11 
10 10 10 9 9 9 11 11 11 15 15 15 17 17 17 15 13 14 15 13 16 16 16 16 16 14 15 13 13 13 14 12 13 13 13 13 11 11 11 10 10 10 10 10 10 12 12 12 15 13 14 14 14 14 13 13 11 13 11 12 8 8 8 9 9 7 9 9 11 9 7 8 7 9 8 7 7 7 7 7 7 8 8 8 6 7 2 6 8 7 8 8 8 7 7 5 7 7 7 8 8 8 10 10 8 12 12 12 14 14 12 14 14 14 12 11 9 8 8 8 10 8 11 9 9 9 10 10 10 10 10 10 10 10 10 9 9 9 9 9 9 11 11 11 14 12 13 10 10 10 11 11 11 12 12 12 9 9 7 8 8 8 9 7 8 8 8 8 9 9 9 9 7 8 7 7 7 8 8 8 9 9 9 10 10 10 11 9 10 7 7 9 9 7 8 7 7 7 8 6 7 7 7 5 11 9 10 10 10 10 11 11 11 11 11 9 10 10 10 11 9 10 37 7 7 36 4 5 39 8 6 40 6 5 9 8 6 7 7 7 9 7 10 21 9 9 29 9 10 27 7 6 13 7 7 7 7 7 7 7 7 32 8 8 49 7 8 40 8 9 46 8 7 60 10 11 60 12 12 60 12 12 58 10 10 58 8 7 58 10 10 57 7 8 55 9 9 57 9 9 
9 9 9 10 10 10 10 10 10 15 13 14 16 16 16 13 13 13 14 14 14 36 14 16 43 15 14 43 15 14 42 13 15 27 11 12 10 10 10 11 11 11 11 11 11 11 11 9 15 15 15 14 14 14 13 13 13 14 12 15 9 9 9 10 10 8 10 8 9 38 6 7 38 7 5 39 7 8 38 6 7 12 8 7 8 8 8 8 8 8 7 7 5 7 7 7 7 7 5 8 8 8 11 11 11 13 13 13 15 13 14 14 14 14 11 11 11 8 8 8 21 9 9 39 9 7 40 10 8 31 11 10 9 9 9 8 8 8 9 9 9 12 12 12 10 12 11 10 10 10 11 11 11 12 10 11 10 8 9 8 8 8 8 8 6 8 8 10 10 8 9 9 9 11 27 9 9 40 9 7 23 9 8 10 8 11 8 8 8 8 6 7 8 8 6 8 8 8 7 7 9 7 7 7 10 8 11 11 11 11 12 12 12 13 11 12 9 11 10 10 10 12 56 8 8 57 6 5 58 7 6 57 5 7 42 7 5 11 7 8 7 7 9 8 8 8 9 9 7 10 8 9 8 8 8 7 7 7 24 5 7 51 7 8 58 8 7 59 8 7 57 7 8 59 9 10 60 12 10 60 14 14 60 10 11 58 8 9 59 7 9 58 12 12 55 13 14 59 9 10 
9 9 9 9 9 9 9 9 9 12 12 12 11 11 11 10 10 10 31 13 13 54 14 12 60 14 14 59 13 13 60 12 12 34 10 10 10 10 10 10 10 10 11 11 11 13 13 13 14 14 14 15 15 15 13 13 13 12 12 12 11 9 10 15 11 12 36 10 9 57 7 8 58 8 7 56 8 6 58 8 7 37 8 10 15 9 11 7 9 6 8 8 6 7 7 5 8 8 8 9 9 9 10 10 10 13 13 13 15 15 15 13 13 13 11 9 10 19 9 8 44 10 9 58 10 10 59 11 11 52 10 11 28 10 10 7 7 9 9 9 9 12 10 11 12 12 10 11 10 8 11 11 11 10 10 12 8 8 8 7 7 7 8 8 8 8 8 8 28 9 5 32 8 8 48 8 9 58 10 10 28 8 7 8 8 10 8 6 7 8 8 6 8 8 8 8 6 7 6 6 6 9 7 8 8 8 8 8 10 9 13 11 12 36 10 9 35 9 8 33 9 9 57 7 8 56 6 7 58 8 9 58 7 6 58 7 6 15 7 5 7 7 9 9 9 9 11 11 11 9 9 9 8 8 8 6 6 6 33 7 6 58 6 8 58 8 9 58 8 7 57 7 6 58 8 9 58 10 10 58 12 12 58 12 14 59 11 11 58 10 10 57 16 14 35 15 14 58 10 8 
10 8 9 9 9 9 9 9 9 10 10 12 10 8 9 11 11 11 46 12 11 61 13 13 60 11 14 60 10 11 59 11 11 34 8 9 10 10 10 11 11 11 13 11 12 13 13 13 15 15 15 15 15 15 13 13 13 12 10 11 10 12 11 20 14 14 61 13 13 58 10 10 58 8 9 58 8 9 57 7 6 57 9 7 18 9 10 9 11 10 9 9 11 8 8 8 9 7 8 10 10 12 10 10 10 11 11 11 14 14 14 11 11 11 10 10 10 30 10 11 60 12 12 59 11 11 60 12 10 59 11 11 45 9 11 8 8 8 8 8 8 11 9 10 9 11 10 10 10 10 10 10 10 9 9 9 6 6 6 6 6 6 8 8 8 27 8 10 50 9 7 55 9 9 55 9 9 58 10 8 27 7 8 8 8 8 10 8 9 8 8 8 7 7 7 7 7 7 6 6 6 6 6 4 7 7 7 7 7 9 14 8 8 59 8 7 59 9 10 58 8 7 58 6 8 57 6 5 58 8 9 59 7 9 58 7 6 14 9 6 8 8 6 8 8 6 10 10 10 10 10 10 9 7 8 7 7 7 21 7 6 46 8 7 57 7 8 59 8 7 59 8 7 57 7 8 57 9 7 60 10 11 58 14 15 59 13 13 56 10 10 54 16 15 14 14 14 33 9 9 
12 10 11 9 11 8 10 10 10 10 8 9 11 11 11 27 11 12 52 12 10 59 11 11 56 10 10 59 9 8 61 11 12 35 11 9 12 12 12 11 11 11 10 10 10 12 12 12 17 17 17 18 18 18 13 13 13 11 11 11 12 12 12 21 16 13 60 14 14 57 11 11 60 10 11 58 8 9 58 8 9 57 9 9 15 10 6 9 11 10 11 10 8 12 8 9 9 9 11 10 10 10 10 10 10 12 10 11 12 12 12 11 11 9 10 8 9 28 10 8 59 9 10 56 10 10 60 12 10 58 12 12 46 11 7 10 10 10 9 9 9 9 9 9 9 9 9 8 8 8 9 9 9 9 9 9 7 5 6 7 5 6 7 9 8 45 11 12 58 9 12 56 10 10 56 11 8 58 10 8 27 7 8 8 8 8 9 9 9 8 8 8 6 6 6 6 6 6 6 6 6 6 6 6 6 6 6 5 5 5 11 5 5 57 8 4 58 10 10 58 8 7 58 7 6 59 5 5 57 7 6 59 7 9 59 8 7 16 7 8 9 7 8 9 9 11 9 9 9 9 9 9 9 9 9 8 8 8 8 8 8 36 8 7 58 8 7 58 8 7 59 9 8 59 9 10 59 9 8 59 9 10 58 14 13 55 15 16 35 13 15 35 15 14 13 13 13 10 10 8 
12 12 12 12 12 12 11 13 12 11 9 10 11 11 11 32 12 11 53 11 12 57 11 11 59 9 10 59 9 10 59 11 11 36 12 12 13 13 13 11 11 11 11 11 11 14 14 14 19 19 19 17 17 17 13 13 13 12 12 12 13 13 13 17 13 12 44 13 11 58 10 6 59 11 11 57 9 7 59 9 10 56 8 6 18 9 12 12 12 10 11 11 11 11 11 11 10 10 10 10 10 12 10 9 5 11 11 11 11 11 11 10 10 8 10 8 9 27 9 9 58 8 7 59 9 8 60 10 9 53 11 12 34 10 10 9 11 8 11 9 12 10 10 10 10 9 7 8 8 8 9 9 9 10 8 9 6 8 7 7 7 7 9 9 9 49 9 9 58 9 12 59 11 11 57 11 11 58 10 10 38 8 8 18 8 9 9 9 9 7 7 7 6 6 6 5 5 7 7 5 6 7 6 4 7 5 6 5 5 5 7 5 6 41 7 6 58 10 10 59 9 12 59 7 9 57 6 3 57 7 6 59 7 9 58 8 7 15 9 9 8 8 10 9 9 9 8 10 9 9 7 8 8 8 8 9 9 9 9 9 9 25 9 9 40 9 7 47 9 8 59 9 8 60 9 8 61 9 11 60 12 12 54 16 15 41 17 17 14 14 14 13 13 13 14 13 11 12 12 12 
12 12 12 13 13 13 11 9 10 10 10 10 11 11 11 10 10 10 29 9 8 54 10 9 58 10 10 59 9 8 47 11 11 30 14 15 14 14 14 11 11 11 12 10 11 16 14 15 19 19 19 17 15 16 12 12 12 12 12 12 12 12 12 10 10 10 14 10 9 59 9 8 41 9 10 39 9 9 40 10 10 38 10 9 13 9 10 10 10 10 11 11 11 11 11 11 12 12 12 9 11 10 11 9 10 11 9 10 10 10 10 11 10 8 8 8 8 21 7 4 45 7 6 59 9 10 60 10 11 46 12 11 10 10 10 12 10 11 12 12 10 11 11 11 9 9 9 8 6 7 9 7 8 10 9 7 7 7 7 8 8 8 11 11 11 32 11 10 55 9 11 60 12 12 58 10 8 57 9 9 57 9 7 43 9 8 18 10 8 8 8 8 7 5 6 6 6 6 7 7 7 6 6 6 6 6 6 6 4 5 6 5 3 29 8 7 58 8 7 59 11 11 56 10 10 59 8 7 57 7 8 58 8 7 46 10 10 12 10 11 9 9 9 8 8 8 7 7 9 6 6 6 8 8 10 9 9 9 9 8 6 10 10 10 10 12 11 21 10 8 49 9 9 60 10 11 52 10 11 42 12 12 38 17 16 17 17 15 14 14 14 15 13 14 14 13 11 11 11 11 
14 12 13 13 13 13 10 10 10 10 10 10 10 10 8 8 10 7 8 8 8 29 9 10 40 8 9 41 9 10 25 11 11 12 14 13 12 12 12 11 9 10 12 12 10 15 15 15 15 17 16 14 14 16 13 11 12 13 13 13 10 10 10 7 7 7 10 6 7 40 9 7 10 10 10 8 10 7 11 9 10 7 9 8 10 8 9 9 9 9 10 9 14 10 10 10 10 10 10 11 9 10 11 11 11 11 11 11 10 10 10 10 10 10 10 8 9 7 5 6 17 5 5 40 10 10 39 11 10 34 10 10 11 10 8 12 10 13 13 13 13 10 12 11 10 10 10 8 8 8 8 8 8 8 6 7 8 8 8 9 9 11 11 11 11 10 10 10 45 9 9 59 11 11 59 9 10 57 9 9 45 9 9 40 8 9 24 8 8 8 8 8 6 6 6 6 6 6 6 6 6 6 4 5 6 5 10 5 5 5 8 7 5 41 7 8 40 8 11 42 12 12 41 11 11 38 8 8 38 6 7 39 7 8 13 9 8 11 11 11 11 9 10 8 8 8 6 6 6 7 5 8 8 7 5 9 7 8 9 9 9 10 10 10 9 10 12 10 8 9 23 9 8 40 10 8 35 9 10 12 12 12 14 12 13 14 12 13 13 13 13 14 14 14 11 13 12 10 10 10 
25 13 13 9 11 8 9 9 9 10 10 10 11 11 11 10 10 10 9 9 9 10 8 9 8 10 9 10 10 8 11 11 11 11 11 11 10 12 11 12 10 11 12 12 12 14 14 14 12 12 12 13 11 12 13 13 13 16 14 15 11 11 11 8 8 8 8 8 8 7 7 7 7 5 6 6 7 9 9 9 7 7 7 9 8 8 8 8 8 8 10 8 9 10 10 10 11 11 11 11 11 11 12 12 12 10 12 11 10 10 10 9 9 9 9 7 8 7 7 7 8 8 8 10 10 12 9 11 10 7 9 8 9 9 7 12 10 11 13 13 13 12 12 12 9 9 9 8 8 8 8 8 8 10 8 9 10 10 10 10 8 9 10 10 10 9 9 9 38 8 6 47 9 8 45 9 9 45 9 9 20 9 7 9 7 8 10 10 10 8 8 8 8 8 8 8 7 5 11 7 6 17 5 5 16 6 4 6 6 6 6 6 6 7 7 9 10 10 10 10 10 8 10 10 10 9 7 8 8 8 8 6 8 7 8 8 8 10 10 10 10 10 10 7 7 5 3 5 4 5 5 5 5 5 7 6 6 6 9 7 8 11 9 10 10 10 10 10 10 10 7 7 7 7 7 7 8 10 9 10 10 10 10 10 10 12 10 13 13 13 13 12 12 14 10 10 10 9 9 11 
58 12 14 22 8 8 11 10 8 10 10 10 11 11 11 10 10 10 11 11 11 9 9 9 10 10 10 10 10 10 11 11 11 12 12 12 11 11 11 10 10 10 12 10 13 13 13 13 17 13 14 22 12 13 13 13 13 13 11 12 12 12 12 10 10 8 9 9 9 9 7 8 7 7 7 7 7 7 7 7 7 8 8 8 9 9 9 10 10 8 10 10 8 20 10 9 23 11 11 24 12 14 23 12 10 17 12 9 11 9 10 10 10 12 8 8 8 9 9 11 10 10 10 10 10 10 9 9 7 7 9 8 8 10 9 11 10 8 12 12 12 10 10 10 10 10 10 20 8 8 21 10 8 9 9 11 11 9 10 8 8 8 9 9 9 8 8 8 7 7 7 8 6 7 7 9 8 9 7 8 7 7 5 9 9 9 10 10 8 10 10 10 11 9 10 19 7 7 34 6 5 56 5 4 45 5 5 6 6 6 7 7 7 8 10 9 11 11 11 10 10 8 8 8 10 9 7 8 8 8 8 7 5 8 5 5 5 7 7 7 9 9 9 8 8 6 5 5 5 4 6 5 5 5 3 6 6 6 9 9 9 11 9 10 10 10 10 11 9 10 9 9 7 9 9 9 8 8 8 8 8 6 9 9 9 10 10 12 12 12 14 12 12 12 10 10 10 20 8 8 
60 10 11 58 6 8 24 8 9 12 11 9 12 10 11 12 12 12 11 11 11 10 10 10 10 10 10 10 10 10 10 10 10 12 12 12 11 11 11 10 10 10 15 11 12 24 14 13 39 15 13 52 13 14 24 12 12 21 11 12 11 11 13 10 10 8 10 8 9 9 9 9 7 7 7 7 7 7 8 8 8 8 8 8 10 8 9 11 9 10 18 10 8 50 11 12 60 12 10 59 11 11 59 11 11 28 10 8 10 10 10 9 9 9 8 8 8 11 9 10 12 12 12 10 10 10 10 10 10 11 11 11 8 8 10 8 8 8 12 10 11 11 11 11 24 10 9 59 9 10 59 9 10 9 9 9 9 9 9 7 7 5 8 6 7 8 8 8 7 7 9 8 8 6 8 8 8 8 8 8 8 7 5 8 8 8 9 9 7 16 10 10 37 9 8 58 8 7 58 6 8 57 5 7 46 6 6 6 6 6 8 8 8 11 11 9 11 11 13 13 13 13 9 9 9 9 7 8 9 7 8 6 6 6 5 5 5 6 6 6 7 7 7 17 8 9 18 6 6 19 5 5 10 4 4 6 6 6 8 8 8 11 11 11 10 10 10 10 10 12 10 10 12 9 9 9 7 7 7 8 8 8 9 9 9 9 9 9 12 10 11 11 11 9 24 10 10 57 9 9 
58 10 10 57 7 8 59 9 8 17 11 11 10 10 10 10 10 10 10 10 10 12 12 12 11 11 11 9 9 9 10 10 10 9 9 9 9 9 9 9 9 9 29 11 11 60 14 14 61 15 15 59 13 13 61 11 12 46 12 11 12 12 12 11 11 11 8 8 8 9 7 8 6 8 7 6 6 6 7 7 9 7 9 6 10 10 10 11 11 9 46 12 11 59 11 9 61 11 12 59 11 11 59 11 9 29 11 11 10 10 10 10 10 10 9 9 9 12 12 12 10 10 10 10 10 10 8 8 8 10 10 10 8 8 8 7 7 7 10 9 7 17 12 9 53 9 10 59 9 10 60 10 11 8 8 8 8 8 8 6 8 7 6 6 6 8 8 8 7 7 7 8 8 8 10 8 9 9 9 9 8 8 8 8 8 8 7 7 9 32 8 8 58 8 9 58 6 10 57 5 7 56 4 6 45 5 5 7 5 6 7 7 7 8 8 10 12 12 12 16 16 16 10 10 8 9 9 9 8 6 7 5 7 6 6 8 7 5 5 3 6 6 6 46 7 8 57 5 7 57 7 6 27 5 7 12 6 6 11 7 6 9 9 9 11 9 10 11 11 11 10 10 10 10 10 10 10 8 9 9 9 9 9 9 9 8 10 9 11 11 11 16 11 8 50 8 9 59 7 9 
59 9 8 58 8 9 59 11 9 19 15 12 12 10 13 9 9 9 9 9 9 11 11 11 11 11 13 11 11 11 9 9 9 9 9 7 7 9 6 11 10 8 27 11 11 59 15 14 59 13 13 59 10 13 59 11 9 51 13 12 18 12 12 11 11 11 10 8 9 8 8 8 6 6 6 6 6 6 8 8 8 9 9 9 10 10 12 13 13 13 43 13 11 54 14 14 60 12 12 59 11 11 61 11 12 30 10 11 12 12 12 10 10 10 11 11 9 13 11 12 12 12 12 11 11 11 11 11 11 10 10 10 8 8 8 8 8 8 8 8 8 8 8 8 10 8 9 60 10 11 59 9 8 14 8 8 7 7 7 8 8 8 7 7 7 8 8 8 7 9 8 8 8 8 10 10 10 11 11 11 11 11 11 8 8 8 9 7 8 29 8 7 52 6 6 51 7 6 53 7 7 56 6 7 46 6 6 7 5 8 7 5 8 7 7 7 12 10 11 13 13 11 11 9 10 9 8 6 8 8 8 5 7 6 6 6 6 5 5 5 5 6 8 46 7 8 58 8 9 57 7 6 58 8 9 58 7 6 31 7 7 8 8 8 10 10 10 11 11 11 10 10 8 9 9 9 9 9 9 8 8 8 8 8 10 9 9 9 10 10 10 16 10 10 15 10 7 57 7 8 
58 8 7 59 11 9 58 12 12 20 14 14 13 11 12 10 10 10 9 9 9 11 11 11 13 11 12 11 11 11 12 12 12 10 10 10 8 8 8 9 9 9 30 12 12 59 11 11 57 11 11 58 10 10 57 11 11 55 13 14 47 11 11 12 12 14 11 11 11 9 9 7 5 5 5 6 6 4 9 9 9 12 10 11 12 12 12 15 15 15 15 15 15 13 13 13 42 12 14 53 13 13 53 13 13 29 13 13 13 13 15 12 12 12 12 12 12 12 12 12 11 11 11 12 12 14 12 12 10 11 11 9 9 9 9 9 9 9 8 8 8 9 9 9 10 8 11 52 11 9 59 9 10 54 10 9 16 7 10 9 7 8 8 8 8 7 7 7 7 7 7 9 9 9 11 11 11 11 11 11 9 9 9 9 9 9 7 7 7 6 8 7 6 8 7 7 7 7 22 8 7 53 7 7 41 7 6 6 6 6 7 7 7 8 7 5 7 9 6 7 7 7 8 8 8 8 8 6 7 7 7 5 7 6 6 6 6 5 5 5 6 6 6 44 8 8 58 10 10 58 9 5 58 8 9 54 8 10 29 8 7 9 9 9 9 9 9 11 11 9 9 9 9 9 9 11 9 9 9 9 9 9 9 9 9 10 10 10 21 13 11 58 10 10 58 8 9 57 9 9 
56 8 8 58 10 8 59 13 13 19 13 13 12 12 14 9 9 9 9 9 9 11 11 9 10 10 10 12 12 12 13 13 13 11 11 11 9 9 7 9 9 9 29 9 8 60 10 9 61 13 13 60 12 10 49 10 11 13 13 13 12 12 12 12 12 12 12 10 11 9 9 9 5 3 4 7 5 6 7 9 8 10 12 11 13 13 13 17 15 16 16 16 16 14 14 14 13 11 12 13 13 13 14 14 12 13 13 13 13 13 13 13 13 13 13 13 11 12 12 12 12 12 12 10 10 10 12 12 14 16 16 16 13 11 14 11 9 10 8 8 8 9 9 9 9 9 9 10 10 10 59 11 11 10 10 10 8 8 8 9 7 8 7 7 7 7 7 7 10 8 9 10 10 10 11 11 11 11 11 11 12 10 13 10 10 10 7 7 5 7 7 7 7 7 7 7 7 7 6 7 9 8 8 8 8 6 7 7 7 7 8 8 8 8 8 6 8 8 8 7 7 7 8 8 6 9 7 8 6 6 6 5 5 5 5 5 5 6 6 6 6 5 3 43 8 6 57 9 7 57 9 7 57 7 8 28 8 9 9 9 9 10 8 9 10 10 8 10 10 10 10 10 10 10 10 10 9 9 9 10 8 9 11 9 10 15 11 10 58 12 14 55 9 9 59 9 10 59 9 10 
56 10 12 57 7 6 14 8 8 10 12 11 11 11 11 8 8 8 8 8 8 9 9 9 11 11 11 13 13 13 13 13 13 11 11 11 11 11 13 9 9 9 10 10 10 11 11 9 14 14 14 14 12 13 10 10 10 9 9 9 12 12 12 13 13 13 9 11 10 7 9 8 7 7 7 7 7 7 9 9 9 11 11 11 15 15 13 15 15 17 17 17 17 19 17 18 16 14 15 13 14 9 12 12 12 12 12 12 12 10 11 13 13 13 14 14 14 12 12 12 10 10 10 11 11 13 11 11 11 16 16 14 15 15 15 10 12 11 7 9 8 9 9 9 11 11 11 10 10 10 11 9 10 10 8 9 9 9 9 10 8 9 7 7 7 8 8 8 10 10 10 11 11 11 10 10 10 9 9 9 11 11 13 9 7 10 6 6 6 6 6 6 7 7 7 7 7 5 8 6 7 8 8 6 8 6 7 8 8 8 8 8 8 7 7 5 8 8 6 7 7 7 8 8 8 8 8 6 7 9 6 6 6 4 7 6 4 6 6 6 7 7 7 7 7 5 8 8 8 7 7 7 8 8 10 8 8 8 9 7 8 10 10 10 11 9 10 11 11 11 11 11 11 12 10 11 11 9 10 11 11 11 11 11 11 19 11 9 60 12 12 58 12 12 58 10 10 58 8 9 
