P3
100 50
255
9 9 9 9 9 9 11 11 11 10 10 10 10 10 10 8 8 8 8 8 8 8 8 8 9 9 9 9 9 9 9 9 9 9 9 9 9 9 9 8 8 8 7 7 7 8 8 8 8 8 8 8 8 8 9 9 9 6 6 6 4 5 7 6 6 8 5 5 5 5 5 5 5 5 3 3 3 3 5 5 5 6 6 6 10 10 10 12 12 10 10 10 10 6 6 4 6 6 6 6 6 4 6 6 6 7 7 7 8 8 8 8 8 8 8 8 8 8 8 8 7 7 7 6 6 6 5 5 5 6 6 6 8 8 8 8 8 8 7 7 7 7 7 7 6 6 6 4 4 4 6 6 6 6 6 6 6 6 6 7 7 7 7 7 7 6 6 6 6 6 6 5 5 5 5 5 5 5 5 5 6 6 6 7 7 7 7 7 7 8 8 8 9 9 9 10 10 10 10 10 10 10 10 10 9 9 9 5 5 5 3 3 3 6 6 6 7 7 7 6 6 6 5 5 5 4 4 4 5 5 5 7 7 5 7 5 6 5 6 8 4 4 6 4 4 4 6 4 7 7 7 7 7 7 7 7 7 7 6 6 6 7 7 5 8 6 7 5 7 6 8 8 8 7 7 7 7 7 7 8 7 5 7 5 6 6 4 5 4 2 3 4 4 4 3 3 3 3 5 4 
8 8 8 10 10 10 10 10 10 10 10 10 11 11 11 10 10 10 9 9 9 9 9 9 8 8 8 8 8 8 8 8 8 9 9 9 10 10 10 10 10 10 8 8 8 8 8 8 7 7 7 8 8 8 8 8 8 6 6 6 7 7 7 5 5 5 4 4 2 6 4 7 4 4 6 5 5 5 5 5 5 6 6 6 9 9 9 12 12 14 12 10 11 8 8 8 7 5 6 4 6 5 4 4 4 6 6 6 7 7 7 8 8 8 8 8 8 8 8 8 8 8 8 6 6 6 4 4 4 7 7 7 8 8 8 8 8 8 8 8 8 7 7 7 5 5 5 5 5 5 6 6 6 6 6 6 6 8 7 8 8 8 6 6 6 5 5 5 4 4 4 5 3 4 5 5 5 7 5 6 4 4 4 6 6 6 8 8 8 8 8 8 7 7 7 8 8 8 9 9 9 10 10 10 11 11 11 7 7 7 3 3 3 6 6 6 7 7 7 7 7 7 6 6 6 5 5 5 8 6 7 7 6 4 6 6 8 4 4 2 6 4 5 5 5 5 6 6 6 7 5 6 7 7 7 7 7 7 7 7 7 7 7 5 7 7 9 7 7 7 8 6 7 8 6 7 10 10 12 8 8 10 5 5 5 4 4 4 3 5 4 5 5 5 4 4 4 3 3 3 
9 9 9 11 11 11 10 10 10 9 9 9 11 11 11 10 10 10 9 9 9 9 9 9 8 8 8 8 8 8 7 7 7 8 8 8 9 9 9 8 8 8 9 9 9 10 10 10 9 9 9 7 7 7 7 7 7 7 7 7 7 7 7 11 5 5 41 2 3 5 4 2 6 6 6 7 5 6 7 5 8 6 8 7 8 8 8 13 11 12 12 10 13 9 9 9 7 7 9 6 6 6 6 6 6 6 6 6 6 6 6 6 6 6 6 6 6 6 6 6 6 6 6 5 5 5 5 5 5 6 6 6 8 8 8 9 9 9 8 8 8 8 8 8 6 6 6 4 4 4 6 6 6 7 7 7 8 8 8 9 7 8 7 5 6 4 4 4 4 4 4 4 4 4 4 6 5 6 6 6 5 5 5 6 6 6 7 7 7 7 7 7 7 7 7 8 8 8 9 9 9 10 10 10 13 13 13 10 10 10 5 5 5 6 6 6 8 8 8 7 7 7 6 6 6 6 6 6 7 7 7 6 6 6 6 4 5 4 4 2 6 4 5 5 5 5 6 4 5 6 4 5 6 6 6 7 7 7 8 8 8 8 8 8 6 6 6 6 6 6 7 7 7 9 9 9 11 9 10 10 10 10 5 5 3 4 4 4 4 4 4 4 4 2 4 4 2 3 3 5 
10 10 10 12 12 12 10 10 10 10 10 10 11 11 11 12 12 12 10 10 10 10 10 10 9 9 9 8 8 8 7 7 7 9 9 9 8 8 8 8 8 8 8 8 8 12 12 12 11 11 11 9 9 9 7 7 7 7 7 7 7 7 7 4 4 4 11 2 3 3 3 3 6 6 6 7 7 7 6 6 8 6 6 6 8 8 8 10 10 10 12 12 12 9 9 11 6 6 6 5 5 7 6 6 8 6 6 6 5 5 5 5 5 5 5 5 5 6 6 6 6 6 6 6 6 6 6 6 6 6 6 6 9 7 8 8 8 8 9 7 8 8 8 8 6 4 5 4 4 4 6 4 5 8 8 8 9 9 9 8 8 8 5 5 5 3 3 3 4 4 4 5 3 4 5 5 5 6 4 5 6 6 6 6 6 6 6 6 6 6 6 6 7 7 7 9 9 9 10 10 10 10 10 10 12 12 12 10 10 10 7 7 7 7 7 7 8 8 8 6 6 6 7 7 7 6 6 6 6 6 4 5 5 5 4 4 4 5 5 3 5 4 2 5 5 5 4 4 4 5 5 5 6 6 6 7 7 7 7 7 7 7 5 6 6 6 6 6 6 6 7 7 7 9 9 9 12 10 11 11 9 10 6 4 5 2 4 3 4 4 6 5 3 4 5 5 5 4 6 5 
10 8 9 10 10 10 9 9 9 9 9 9 10 10 10 10 10 10 11 9 10 9 9 9 9 9 9 8 8 8 7 7 7 9 7 8 8 8 8 6 6 6 6 6 6 9 7 8 9 9 9 9 7 8 8 8 8 7 7 7 6 6 6 5 5 5 5 5 5 3 3 3 5 5 5 6 6 6 7 7 7 5 5 5 5 5 5 8 8 8 9 9 9 8 8 8 6 6 6 5 5 5 5 5 5 5 5 5 5 5 5 4 6 5 7 5 6 7 7 7 7 7 7 6 6 6 5 5 5 6 6 6 8 8 8 8 8 8 10 10 10 8 8 8 5 5 5 5 5 5 5 5 5 7 7 7 7 7 7 4 4 4 2 2 2 3 3 3 3 3 3 5 5 5 6 6 6 4 4 4 5 5 5 5 5 5 5 5 5 5 5 5 7 5 6 8 6 7 8 8 8 8 8 6 7 7 9 12 8 9 8 8 8 8 8 10 6 6 6 7 5 8 7 7 7 47 5 6 46 4 5 11 5 5 5 5 5 5 5 5 4 4 4 2 4 3 4 4 4 4 4 4 5 5 5 7 7 7 7 7 7 9 7 8 6 6 6 5 5 5 6 6 6 7 9 8 11 11 11 10 10 10 7 7 7 5 5 5 4 4 4 5 5 5 4 4 4 5 5 5 
10 8 9 10 8 9 11 9 10 9 7 8 8 8 8 8 8 8 9 9 9 9 9 9 9 9 9 8 8 8 7 7 7 7 7 7 7 7 7 6 6 6 6 6 6 7 7 7 7 7 7 8 8 8 8 8 8 7 7 7 8 8 8 7 7 7 6 6 6 6 6 6 6 6 6 6 6 6 5 5 5 4 4 4 7 5 6 10 8 9 8 8 8 8 6 7 8 8 8 6 6 6 6 6 6 5 5 5 7 7 7 5 5 5 6 6 6 7 7 7 9 7 8 9 9 9 6 6 6 6 6 6 6 6 6 7 7 7 8 8 8 7 7 7 6 6 6 5 5 5 3 3 3 5 5 5 6 6 6 5 5 5 3 3 3 3 3 3 6 6 6 6 6 6 6 6 6 4 4 4 6 4 5 6 6 6 5 5 5 5 5 5 7 7 7 8 8 8 9 7 8 7 7 7 7 6 4 7 5 6 10 8 9 8 8 8 5 7 6 6 6 6 9 9 9 17 5 5 18 4 3 6 6 6 6 6 6 4 4 6 4 4 4 3 3 3 4 2 3 4 4 4 5 5 5 7 7 7 6 6 6 6 6 6 6 8 7 7 7 7 17 5 5 31 5 4 8 8 8 9 9 9 9 9 9 7 7 7 6 6 6 6 6 6 5 5 5 5 5 5 
10 10 10 12 10 11 9 9 9 10 8 9 7 7 7 7 7 7 9 9 9 10 10 10 8 8 8 8 8 8 7 7 7 8 8 8 6 6 6 6 6 6 6 6 6 8 6 7 7 7 7 9 7 8 8 8 8 7 7 7 9 9 9 8 8 8 6 6 6 5 5 5 8 8 8 8 8 8 6 6 6 6 6 6 8 8 8 9 9 9 8 8 8 8 8 8 7 7 7 7 7 7 5 5 5 4 4 4 6 4 5 5 5 5 6 6 6 8 6 7 10 10 10 12 12 12 8 8 8 6 6 6 6 6 6 7 7 7 6 6 6 5 5 5 6 6 6 6 6 6 5 5 5 7 7 7 7 7 7 4 4 4 3 3 3 5 5 5 7 7 7 5 5 5 5 5 5 6 6 6 6 6 6 8 6 7 6 6 6 5 7 6 7 7 7 9 9 9 8 8 6 7 7 7 5 5 5 7 7 9 8 8 8 10 8 9 6 7 9 6 6 6 7 7 7 6 8 7 5 5 5 6 6 6 5 5 5 5 3 4 6 4 5 4 4 4 4 4 2 5 5 7 6 6 6 7 7 7 6 6 6 6 8 7 8 8 8 8 8 8 11 5 5 13 5 3 7 7 7 8 8 8 8 8 8 8 8 8 8 8 8 9 9 9 7 7 7 4 4 4 
10 10 10 11 9 10 11 11 11 9 9 9 7 7 7 7 7 7 8 8 8 9 9 9 9 9 9 9 7 8 9 7 8 6 6 6 6 6 6 7 7 7 7 7 7 7 7 7 8 8 8 7 7 7 7 7 7 7 7 7 8 8 8 9 9 9 5 5 5 6 6 6 8 8 8 8 8 8 7 7 7 7 7 7 9 9 9 10 8 9 7 7 7 8 6 7 7 7 7 7 5 6 5 5 5 4 4 4 3 5 4 4 4 4 6 6 6 8 6 7 10 10 10 11 11 11 6 6 6 8 6 7 7 7 7 8 8 8 7 7 7 5 5 5 5 5 5 6 6 6 6 6 6 8 8 8 8 8 8 5 5 5 2 2 2 4 4 4 6 6 6 6 6 6 4 4 4 4 4 4 7 5 6 7 7 7 9 7 8 8 8 8 7 7 9 9 7 10 7 7 7 6 6 6 6 6 6 7 7 7 7 9 8 8 8 8 8 8 8 7 7 7 8 6 7 8 8 8 7 7 5 4 4 4 5 3 4 4 4 6 4 4 2 5 3 4 4 4 4 5 5 7 7 7 9 7 7 7 7 7 7 7 7 7 7 7 5 7 6 4 8 6 7 4 4 4 7 7 7 8 8 8 8 8 8 8 8 8 9 9 9 9 9 9 7 7 7 4 4 4 
12 12 12 12 10 11 9 9 9 7 7 7 7 7 7 7 5 6 10 8 9 11 11 11 10 10 10 9 9 9 8 8 8 6 6 6 7 7 7 7 7 7 7 7 7 7 7 7 7 7 7 7 7 7 7 7 7 6 6 6 6 6 6 8 8 8 6 6 6 5 5 5 6 6 6 7 7 7 8 8 8 7 7 7 8 8 8 7 7 7 8 8 8 8 6 7 6 6 6 6 6 6 5 5 5 4 4 4 4 4 4 4 4 4 6 4 5 8 8 8 9 9 9 8 8 8 6 6 6 7 7 7 8 8 8 7 7 7 5 5 5 5 5 5 6 6 6 6 6 6 7 7 7 8 8 8 10 10 10 7 7 7 3 3 3 5 5 5 7 7 7 6 6 6 4 4 4 4 4 4 6 4 5 6 6 6 9 9 9 8 8 10 8 10 9 9 8 6 7 7 7 8 6 7 7 7 7 6 6 6 6 6 6 8 8 8 8 8 6 8 7 5 7 7 7 9 7 8 7 7 5 4 4 4 4 4 4 4 4 4 4 4 2 5 4 2 4 4 4 5 5 5 7 7 7 7 7 7 8 8 6 7 6 4 6 4 5 5 7 6 8 6 7 7 7 7 7 7 7 8 8 8 8 8 8 7 7 7 7 7 7 7 7 7 8 8 8 7 7 7 
13 13 13 12 10 11 9 9 9 8 8 8 8 8 8 8 8 8 8 8 8 10 10 10 10 10 10 10 10 10 9 9 9 7 7 7 8 8 8 8 8 8 8 6 7 7 7 7 8 6 7 8 8 8 8 8 8 7 7 7 7 7 7 6 6 6 7 7 7 6 6 6 6 6 6 7 7 7 7 7 7 8 8 8 6 6 6 7 7 7 5 5 5 7 5 6 7 7 7 7 5 6 5 5 5 5 3 4 5 5 5 6 4 5 6 6 6 7 7 7 8 8 8 8 8 8 7 5 6 8 8 8 7 7 7 7 7 7 6 6 6 6 6 6 5 5 5 5 5 5 7 7 7 7 7 7 8 8 8 6 6 6 5 5 5 6 6 6 8 8 8 6 6 6 5 5 5 4 4 4 4 4 6 6 6 6 8 8 6 9 7 8 9 9 9 10 8 9 7 7 7 8 8 8 8 6 7 7 7 7 7 7 7 8 8 8 12 8 9 10 10 10 9 7 8 8 8 8 5 5 5 5 5 5 3 1 2 4 4 4 5 5 5 6 4 5 5 5 5 6 6 8 7 5 6 8 8 8 6 6 6 7 5 6 6 6 6 7 5 6 9 7 8 9 9 9 8 8 8 9 9 9 9 9 9 8 8 8 7 7 7 7 7 7 7 7 7 8 8 8 
12 12 12 13 13 13 10 10 10 8 8 8 9 9 9 10 10 10 9 9 9 9 9 9 10 10 10 10 10 10 10 10 10 11 11 11 8 8 8 8 8 8 7 7 7 7 7 7 7 7 7 8 8 8 9 9 9 8 8 8 7 7 7 7 7 7 7 7 7 7 7 7 7 7 7 7 7 7 6 6 6 6 6 6 5 5 5 5 5 5 6 6 6 6 6 6 7 7 7 6 6 6 5 5 5 4 4 4 6 6 6 11 7 8 7 7 7 6 6 6 7 7 7 7 7 7 6 6 6 6 6 6 7 7 7 6 6 6 8 8 8 5 5 5 4 4 4 5 5 5 5 5 5 5 5 5 6 6 6 6 6 6 6 6 6 7 7 7 9 9 9 8 8 8 7 7 7 5 5 5 4 4 4 7 5 6 7 7 5 9 7 8 11 6 10 10 10 10 9 9 7 8 8 8 8 7 5 8 7 5 8 6 7 8 8 8 9 9 9 10 12 11 8 6 7 6 6 6 6 6 6 3 3 3 3 3 3 3 3 3 4 4 4 3 5 4 6 6 6 7 5 6 7 7 7 7 7 7 6 6 6 5 5 5 6 6 6 5 7 6 10 8 9 11 10 8 9 9 9 9 9 9 9 9 9 8 8 8 7 7 7 7 7 7 8 8 8 8 8 8 
12 10 11 13 13 13 10 10 10 8 8 8 10 8 9 8 8 8 9 9 9 10 10 10 9 9 9 11 9 10 12 12 12 11 11 11 8 8 8 7 7 7 8 6 7 7 7 7 8 6 7 7 7 7 9 9 9 8 8 8 9 9 9 6 6 6 7 7 7 7 7 7 6 6 6 6 6 6 5 5 5 5 5 5 5 5 5 5 5 5 6 6 6 6 6 6 6 6 6 6 6 6 5 5 5 6 4 5 6 6 6 9 7 8 7 7 7 7 7 7 6 6 6 5 5 5 6 6 6 6 4 5 6 6 6 7 7 7 7 7 7 5 5 5 5 5 5 5 5 5 5 5 5 4 4 4 5 5 5 8 8 8 7 7 7 7 7 7 8 8 8 9 9 9 8 8 8 6 6 6 4 4 4 5 5 5 7 7 7 7 7 7 8 8 8 17 9 7 32 8 8 25 7 7 8 8 10 8 8 8 9 7 8 9 7 8 8 8 8 8 8 8 8 7 5 7 7 7 8 6 7 3 3 3 3 3 5 0 4 3 4 4 4 4 4 6 6 6 4 6 5 3 6 6 6 6 6 4 6 6 6 4 5 7 6 6 6 7 7 5 10 8 9 10 10 10 8 8 8 8 8 8 8 8 8 8 8 8 6 6 6 7 7 7 7 7 7 7 7 7 
9 9 9 11 11 11 9 9 9 8 8 8 8 8 8 7 7 7 8 8 8 9 9 9 10 10 10 11 11 11 12 12 12 10 10 10 8 8 8 8 8 8 7 7 7 6 6 6 6 6 6 5 5 5 6 6 6 7 7 7 9 7 8 7 7 7 7 7 7 7 7 7 7 7 7 6 6 6 5 5 5 4 4 4 4 4 4 5 5 5 6 6 6 7 5 6 6 6 4 7 7 9 6 4 7 6 6 4 6 6 6 6 6 6 7 7 7 7 7 7 8 8 8 7 7 7 6 6 6 5 5 5 6 6 6 5 5 5 6 6 6 5 5 5 5 5 5 5 3 4 28 4 4 28 4 4 8 3 7 8 8 6 8 8 8 7 7 7 8 8 8 8 8 8 8 6 7 7 7 7 5 5 5 4 6 5 5 5 5 7 7 7 9 7 10 24 8 9 50 8 9 38 6 7 7 7 7 8 8 10 8 8 8 7 7 7 5 5 5 5 5 5 7 7 5 7 7 7 5 5 5 4 4 4 4 2 3 3 3 3 4 4 4 6 4 5 6 6 6 6 6 6 6 6 6 5 5 5 5 3 4 5 5 5 5 5 5 8 6 7 8 8 8 9 9 9 9 9 11 8 8 8 8 6 7 7 7 7 7 7 7 7 7 7 7 7 7 8 8 8 
8 8 8 9 9 9 9 9 9 9 9 9 8 8 8 7 7 7 8 8 8 9 9 9 10 10 10 11 11 11 11 11 11 10 10 10 9 9 9 9 9 9 8 8 8 6 6 6 4 4 4 5 5 5 6 6 6 7 7 7 6 8 7 7 7 7 7 7 7 7 7 7 8 8 8 6 6 6 6 6 6 7 5 6 4 4 4 5 5 5 6 6 6 7 7 7 6 6 6 7 7 5 21 7 6 12 6 6 7 7 7 7 7 7 7 7 7 7 7 7 8 8 8 7 7 7 6 6 6 6 6 6 7 5 6 5 5 5 6 6 6 5 5 5 4 4 4 3 5 4 30 6 6 28 4 4 9 5 6 10 8 9 10 8 11 7 7 9 7 7 7 8 7 5 8 8 8 7 7 7 7 5 6 6 6 6 7 7 7 8 8 8 7 7 9 25 6 8 51 7 8 41 7 6 8 8 6 8 8 8 7 7 7 7 7 7 6 6 6 4 4 4 4 4 4 5 5 7 5 5 5 6 6 6 3 3 3 3 3 3 5 5 5 5 5 5 5 5 5 5 5 5 6 6 6 6 4 5 4 4 4 5 5 5 6 6 6 7 7 7 8 8 8 11 9 10 9 11 10 9 9 11 8 8 8 8 8 8 8 8 8 8 8 8 8 8 8 32 8 6 
7 7 7 9 9 9 9 9 9 8 8 8 7 7 7 7 7 7 9 9 9 10 10 10 10 10 10 9 9 9 9 9 9 10 10 10 11 11 11 12 12 12 11 11 11 9 9 9 6 6 6 5 5 5 6 6 6 6 6 6 7 7 7 8 8 8 8 8 8 7 7 7 9 9 9 8 8 8 6 6 6 6 6 6 6 6 6 6 6 6 6 6 6 7 5 6 7 7 7 7 7 7 23 7 8 16 6 5 6 6 6 7 7 7 7 7 7 7 7 7 8 8 8 7 7 7 7 7 7 7 7 7 7 5 6 7 5 6 5 5 5 4 4 4 5 3 4 6 4 5 5 5 3 4 4 6 8 8 8 9 11 8 9 9 11 8 8 6 7 7 7 6 8 7 8 6 7 8 8 8 7 7 7 7 7 7 8 8 8 8 8 8 8 8 8 18 8 7 35 6 8 28 7 6 7 7 7 7 7 7 7 7 7 6 6 6 6 6 6 4 4 4 4 4 4 4 4 4 5 5 5 6 6 6 7 7 7 6 6 6 6 6 6 5 5 5 4 4 4 4 4 4 6 4 5 5 5 5 4 4 4 5 5 5 7 5 6 6 6 6 7 7 7 9 9 9 9 9 9 9 9 9 8 8 8 8 8 10 7 7 7 9 7 8 7 7 7 36 6 6 
8 8 8 9 9 9 8 8 8 8 8 8 7 7 7 8 8 8 10 10 10 10 10 10 8 8 8 8 8 8 9 9 9 11 11 11 11 11 11 12 12 12 14 14 14 11 11 11 9 9 9 8 8 8 7 7 7 6 6 6 7 7 7 10 10 10 10 10 10 8 8 8 10 10 10 10 10 10 8 8 8 8 8 8 7 7 7 7 7 7 7 5 6 7 5 6 7 7 7 6 6 6 5 5 5 5 5 5 6 6 6 7 7 7 7 7 7 8 8 8 6 6 6 7 7 7 7 7 7 7 7 7 6 6 6 8 6 7 5 5 5 4 6 5 4 4 6 6 4 5 5 5 5 5 5 5 6 8 5 10 9 7 8 9 11 7 7 7 7 7 7 7 7 7 7 7 5 7 7 7 7 7 7 8 8 8 8 8 8 9 7 8 9 7 10 6 6 8 7 5 6 6 6 6 7 7 9 7 7 7 6 6 6 6 6 6 6 6 6 5 5 5 4 4 4 5 5 5 4 4 4 7 7 7 7 7 7 6 6 6 6 6 6 7 7 7 5 5 5 5 5 5 5 3 4 4 4 4 4 4 4 6 4 5 5 5 5 6 6 6 8 6 7 8 8 8 10 10 10 9 9 9 9 7 10 8 6 7 6 8 7 8 8 8 7 7 7 6 6 8 
8 8 8 6 6 6 6 6 6 9 9 9 9 9 9 9 9 9 8 8 8 7 7 7 7 7 7 8 8 8 9 9 9 11 11 11 10 10 10 12 12 12 13 13 13 11 11 11 10 10 10 10 10 10 9 9 9 7 7 7 7 7 7 10 10 10 10 10 10 9 9 9 10 10 10 9 9 9 9 9 9 9 9 9 9 7 8 8 6 7 6 6 6 5 5 5 5 3 4 3 3 3 5 5 5 5 5 5 5 5 5 5 5 5 7 7 7 7 7 7 7 7 7 7 7 7 9 9 9 9 9 9 8 6 7 8 6 7 6 6 6 6 4 5 6 6 6 8 7 5 5 5 5 5 5 5 6 6 8 7 7 7 7 5 6 6 6 6 5 7 6 7 7 7 6 6 6 7 7 7 6 8 7 8 8 8 8 8 8 7 7 7 8 8 8 8 6 7 7 5 6 5 5 3 5 5 5 5 5 5 6 6 6 5 5 5 5 5 5 5 5 3 5 5 5 4 4 6 4 4 4 6 6 6 6 6 6 7 5 6 7 5 6 6 6 6 5 5 5 5 5 5 4 4 4 4 4 4 4 4 4 5 5 5 6 6 6 7 7 7 9 7 8 9 9 9 9 9 9 8 8 8 6 6 6 6 6 6 7 7 7 7 7 7 7 7 7 7 7 7 
8 8 8 6 6 6 6 6 6 9 9 9 9 9 9 8 8 8 7 7 7 6 6 6 7 7 7 8 8 8 8 8 8 8 8 8 9 9 9 12 12 12 13 13 13 11 11 11 10 10 10 11 11 11 10 10 10 9 9 9 7 7 7 9 9 9 9 9 9 10 10 10 9 9 9 8 8 8 9 9 9 10 10 10 10 10 12 7 7 5 6 6 6 4 4 4 3 3 3 5 5 5 6 6 6 5 5 5 5 5 5 6 6 6 7 7 7 7 7 7 7 7 7 9 9 9 8 8 8 8 8 8 8 6 7 9 7 8 7 7 7 6 6 6 7 7 7 7 7 7 5 5 5 4 4 4 5 5 5 6 6 6 5 5 5 5 5 5 5 5 5 6 6 6 6 6 6 6 6 6 8 8 8 8 8 8 7 7 7 7 5 6 6 6 6 6 6 6 6 6 6 6 6 6 5 5 3 4 4 4 4 4 4 5 5 5 6 6 6 6 6 6 5 5 5 4 4 4 6 6 6 5 5 5 6 6 6 6 6 6 6 6 6 6 6 6 5 5 5 4 4 4 5 5 5 6 4 5 5 5 5 5 5 5 6 6 6 8 6 7 10 10 10 9 9 9 9 7 8 8 6 9 6 8 7 6 8 7 6 6 6 7 7 5 8 8 8 7 7 9 
8 8 8 8 8 8 8 8 8 9 9 9 8 8 8 6 6 6 7 7 7 8 8 8 8 8 8 8 8 8 8 8 8 6 6 6 8 8 8 11 11 11 13 13 13 12 12 12 11 11 11 12 12 12 11 11 11 10 10 10 9 9 9 10 10 10 11 11 11 11 11 11 10 8 9 9 7 8 8 8 8 9 9 9 9 9 7 7 5 6 7 5 8 4 4 4 4 4 4 4 4 4 7 5 6 7 7 7 6 6 6 7 7 7 7 7 7 7 7 7 7 7 7 9 9 9 8 8 8 7 7 7 7 7 7 6 6 6 8 6 7 7 7 7 6 6 6 7 7 7 5 5 5 4 4 2 3 5 4 6 4 5 5 4 2 4 4 4 5 6 1 15 7 5 11 5 5 7 7 7 9 9 9 9 9 9 7 9 8 6 6 6 7 5 6 6 6 6 6 6 6 6 6 4 5 5 5 3 3 3 4 4 4 5 5 5 6 6 6 5 5 5 4 4 4 4 4 4 6 6 6 7 5 6 6 6 6 6 6 6 6 6 6 6 6 6 5 3 4 6 6 6 6 4 5 6 6 6 6 4 5 4 4 4 6 6 6 7 7 7 9 9 9 8 8 8 6 8 7 6 6 6 7 5 6 6 6 6 6 6 6 7 5 6 7 5 6 7 5 6 
7 7 7 8 8 8 9 9 9 8 8 8 8 8 8 6 6 6 7 7 7 8 8 8 10 10 10 9 9 9 9 9 9 8 8 8 9 9 9 9 9 9 12 12 12 13 13 13 12 12 12 11 11 11 10 10 10 10 10 10 8 8 8 10 10 10 12 10 11 12 10 11 8 8 8 9 9 9 8 8 8 7 7 7 8 8 8 7 5 6 6 4 5 4 4 2 5 3 4 5 3 4 6 6 6 7 7 7 7 7 7 7 7 7 6 6 6 6 6 6 6 6 6 7 7 7 8 8 8 7 7 7 7 7 7 8 8 8 7 7 7 7 7 7 8 8 6 6 6 6 4 4 2 5 3 4 5 3 4 5 3 4 6 5 3 3 3 5 13 5 3 43 5 4 27 5 7 12 6 8 9 9 7 7 7 7 7 7 7 6 8 7 7 7 7 6 6 6 5 5 5 5 5 5 5 5 5 3 3 3 3 3 3 4 4 4 6 6 4 6 6 6 4 4 4 4 4 4 7 5 6 8 6 7 7 7 7 5 5 5 6 6 6 5 5 5 6 4 5 6 4 5 6 6 6 6 6 6 5 5 5 4 4 4 7 5 6 6 6 6 7 7 7 7 5 6 6 6 6 6 6 6 6 6 6 6 6 6 7 5 6 6 6 6 6 6 6 6 6 6 
6 6 6 7 7 7 8 8 8 7 7 7 7 7 7 6 6 6 7 7 7 8 8 8 9 7 8 10 10 10 9 9 9 7 7 7 9 9 9 10 10 10 12 12 12 12 12 12 10 10 10 9 9 9 10 10 10 9 9 9 10 8 11 10 10 10 10 8 9 9 9 11 11 9 10 14 10 9 8 8 8 7 7 7 9 9 9 5 5 5 5 5 5 4 4 4 3 3 3 3 3 3 6 6 6 7 7 7 8 8 8 8 8 6 7 7 7 6 6 6 7 5 6 6 6 6 7 7 7 9 7 8 7 7 7 6 6 6 7 7 7 7 7 7 6 6 6 5 5 5 4 4 4 4 4 4 6 4 5 4 4 2 4 4 4 12 4 2 39 5 4 54 5 8 51 5 5 24 6 6 8 8 8 7 7 7 7 7 7 7 7 7 8 8 8 7 7 7 5 5 5 5 5 5 3 5 4 3 3 3 3 3 1 4 3 1 6 6 6 6 6 6 10 4 4 13 4 5 6 6 6 6 6 6 6 6 6 5 5 5 5 5 5 5 5 5 4 4 4 3 3 3 5 5 5 6 6 6 5 5 5 6 4 5 6 6 6 6 6 6 7 6 4 6 5 3 5 5 5 6 6 6 6 6 6 6 6 6 5 5 5 6 6 6 6 6 6 5 5 5 
6 6 6 7 7 7 8 8 8 8 8 8 7 7 7 7 7 7 8 8 8 8 8 8 10 8 9 9 9 9 9 9 9 8 8 8 9 9 9 9 9 9 10 10 10 10 10 10 8 8 8 8 8 8 10 10 10 9 9 9 9 9 9 8 8 8 9 9 9 9 9 9 11 9 10 49 10 11 9 11 8 11 9 10 12 12 12 8 8 8 5 5 5 4 4 4 3 3 3 4 4 4 6 6 6 8 8 8 7 7 7 7 7 9 6 6 4 7 7 7 5 5 7 9 9 9 9 9 7 8 8 8 7 7 7 6 6 6 6 6 6 7 7 7 5 5 3 4 4 4 4 4 4 5 5 3 4 4 4 5 5 3 5 3 4 34 5 7 46 6 6 52 10 12 51 9 10 21 5 5 6 6 6 6 6 6 7 7 7 8 8 8 9 9 9 8 8 8 6 6 6 4 4 4 3 3 3 2 2 2 3 3 3 3 3 3 6 4 5 5 7 6 53 5 5 47 5 6 7 7 7 5 5 5 6 6 6 5 5 5 4 4 4 5 5 5 4 4 4 3 3 3 3 3 5 6 4 5 6 6 6 6 6 6 6 6 6 5 5 5 9 8 6 9 5 4 5 5 5 4 4 4 5 5 5 5 5 5 7 7 7 6 6 6 4 4 4 4 4 4 
7 7 7 7 7 7 8 8 8 7 7 7 7 7 7 7 7 7 7 7 7 6 6 6 9 7 8 8 8 8 8 8 8 8 8 8 8 8 8 9 9 9 8 8 8 8 8 8 8 8 8 9 9 9 10 10 10 10 10 10 9 7 8 6 8 7 8 6 7 11 11 11 13 13 13 13 11 12 9 11 10 11 11 11 11 11 11 9 9 9 6 6 6 4 4 4 5 5 5 4 4 4 6 6 6 6 6 6 7 7 7 6 6 6 5 5 5 4 4 4 6 6 6 21 22 16 36 37 29 7 7 7 6 6 6 6 6 4 7 7 7 6 6 6 4 4 4 3 3 1 4 4 4 5 5 5 4 4 4 4 4 4 6 6 4 6 6 4 8 6 7 39 32 26 21 17 16 7 5 6 6 6 6 6 6 6 7 7 7 8 8 8 9 9 9 10 10 10 8 8 8 6 6 6 3 3 3 2 2 2 4 2 3 3 3 3 3 5 4 7 7 7 47 5 6 7 7 7 9 9 9 8 8 8 6 6 6 6 6 6 5 5 5 5 5 5 4 4 4 4 4 4 4 4 4 6 6 6 7 7 7 7 7 7 6 6 6 6 6 6 19 7 7 34 6 5 4 4 4 5 5 5 4 4 4 5 5 5 11 11 11 7 7 7 4 4 4 2 2 2 
6 6 6 7 7 7 7 7 7 6 6 6 6 6 6 7 7 7 7 7 7 6 6 6 8 6 7 7 7 7 7 7 7 8 8 8 9 9 9 8 8 8 8 8 8 8 8 8 8 8 8 9 9 9 10 10 10 9 9 9 8 8 8 7 7 7 8 8 8 11 11 11 14 14 12 11 11 13 7 7 7 9 11 10 12 12 12 8 8 8 8 8 8 4 4 4 4 4 4 5 5 5 7 7 7 6 6 6 6 4 5 5 3 4 6 4 5 5 3 4 5 5 5 8 6 7 8 6 7 7 7 7 7 7 7 6 6 6 7 7 7 5 5 5 3 3 3 4 4 4 5 5 5 4 4 4 5 3 4 6 6 8 7 7 7 4 6 5 8 6 7 6 6 6 7 7 9 6 4 5 6 6 6 6 6 6 7 7 7 8 8 8 9 9 9 10 10 10 8 8 8 6 6 6 4 4 4 2 4 3 3 3 1 3 3 3 3 5 2 6 6 6 6 6 6 8 8 8 8 8 8 8 8 8 7 7 7 5 5 5 6 6 6 5 5 5 4 4 4 4 4 4 5 5 5 7 7 7 8 6 7 7 7 5 6 6 6 5 5 5 5 3 4 4 6 5 4 4 4 3 3 3 4 4 4 9 9 9 11 11 11 10 10 10 6 6 6 2 2 2 
6 6 6 6 6 6 6 6 6 5 5 5 5 5 5 4 4 4 4 4 4 5 5 5 6 6 6 7 7 7 7 7 7 8 8 8 8 8 8 8 8 8 8 8 8 8 8 8 8 8 8 9 9 9 9 9 9 6 6 6 6 6 8 5 5 5 8 10 9 10 10 10 12 12 14 10 9 7 6 6 6 8 8 8 11 11 13 10 10 10 6 6 6 5 5 7 6 6 8 6 6 6 6 6 6 5 5 7 4 4 4 3 3 5 4 4 4 4 4 4 5 5 5 6 6 6 8 6 7 7 7 7 7 7 7 9 9 9 6 6 6 4 4 4 4 4 4 6 6 6 6 6 6 5 5 5 8 7 5 9 9 9 9 9 9 9 7 8 8 8 6 7 7 7 7 7 7 6 6 8 5 5 5 4 4 4 6 6 6 8 8 8 9 9 9 9 9 9 6 6 6 6 6 6 6 6 6 3 3 1 3 1 4 5 3 6 4 4 4 5 5 3 6 6 6 9 7 8 10 10 10 9 9 9 7 7 7 6 6 6 5 5 5 5 5 5 4 4 4 4 4 4 7 7 7 7 7 7 7 7 5 7 5 6 6 6 4 5 5 5 6 5 3 5 3 4 4 4 4 5 5 5 6 6 6 6 6 6 8 8 8 10 10 10 7 7 7 4 4 4 
6 6 6 7 7 7 7 7 7 7 7 7 7 7 7 5 5 5 4 4 4 6 6 6 6 6 6 8 6 7 8 8 8 9 9 9 9 9 9 7 7 7 8 8 8 8 8 8 8 8 8 10 10 10 7 7 7 7 7 7 8 8 6 8 8 6 10 10 10 10 10 10 11 11 11 9 7 8 7 7 7 8 6 7 9 9 9 8 8 8 6 6 6 6 6 6 6 6 6 6 6 6 5 5 5 5 5 5 5 5 5 4 4 4 3 3 3 4 4 4 5 5 5 7 7 7 8 8 8 8 8 8 7 7 7 7 7 5 6 6 6 6 6 6 7 7 7 8 8 6 9 9 9 9 9 9 9 9 9 11 11 9 11 11 11 14 10 11 10 10 10 8 6 7 8 6 7 6 6 6 5 5 5 5 5 5 5 5 5 7 7 7 8 8 8 7 7 7 7 7 7 7 7 7 6 6 6 5 5 3 4 4 2 5 5 3 6 4 5 7 5 6 8 8 10 8 8 8 7 7 7 6 6 6 6 6 6 7 7 7 6 6 6 4 4 4 5 5 5 6 6 6 6 8 7 9 7 8 6 6 6 4 4 4 6 6 6 7 7 5 5 5 3 5 5 3 6 6 6 7 7 7 7 7 7 7 7 7 6 6 6 6 6 6 5 5 5 5 5 5 
5 5 5 6 6 6 7 7 7 8 8 8 8 8 8 5 5 5 4 4 4 6 6 6 7 7 7 10 8 9 12 12 12 13 13 13 10 10 10 8 8 8 7 7 7 8 8 8 7 7 7 8 8 8 8 8 8 8 8 8 8 8 8 9 9 9 11 11 11 12 10 11 9 9 9 7 7 7 7 7 7 7 7 7 6 6 8 5 5 5 7 7 7 7 7 9 7 7 9 6 6 6 5 5 5 5 5 7 5 5 5 4 4 4 5 5 3 4 4 4 5 5 5 7 7 7 9 9 9 8 8 6 8 8 8 7 7 7 7 7 7 8 8 8 9 9 7 8 8 8 9 9 9 10 10 8 8 8 10 12 11 9 11 11 11 10 10 12 8 8 8 7 7 7 8 8 10 7 7 7 6 6 6 6 6 6 7 7 7 7 7 7 6 6 6 7 7 7 7 7 7 7 7 7 7 7 7 5 5 5 5 5 5 6 6 4 6 6 6 8 8 8 8 8 8 8 6 7 6 6 6 4 4 4 4 4 4 6 6 6 5 5 5 4 4 4 4 4 4 8 8 8 8 8 10 7 7 7 5 5 5 5 5 5 7 5 6 7 7 5 6 6 6 7 7 5 8 8 8 8 8 8 7 7 7 7 7 7 5 5 5 3 3 3 5 5 5 3 3 3 
7 7 7 7 7 7 6 6 6 7 7 7 7 7 7 5 5 5 5 5 5 7 7 7 8 8 8 11 9 10 13 13 13 13 13 13 9 9 9 7 7 7 6 6 6 7 7 7 8 8 8 7 7 7 7 7 7 9 9 9 10 10 12 10 10 10 12 10 11 12 10 15 12 10 11 8 8 8 6 6 6 6 4 5 5 5 5 5 5 5 6 6 6 6 6 6 7 7 7 7 7 7 8 8 8 6 6 6 4 4 4 5 5 5 5 5 5 5 5 5 5 3 4 6 6 6 7 7 7 8 6 7 7 7 7 8 8 8 7 7 7 7 7 7 7 7 7 8 8 8 9 9 9 9 9 9 9 9 9 10 10 10 11 11 11 10 10 10 8 8 8 6 6 6 7 7 5 6 6 4 7 7 7 7 7 7 8 8 8 7 7 7 5 5 5 6 6 6 7 7 7 7 7 7 7 7 5 6 4 5 5 5 5 6 6 4 7 7 7 7 5 6 8 6 7 7 7 7 7 7 7 4 4 4 4 4 4 5 5 5 5 5 5 4 4 4 4 4 4 5 5 5 7 7 7 7 7 9 5 5 5 5 5 5 6 6 6 6 6 6 8 6 7 7 7 7 7 7 7 6 6 6 6 6 6 6 6 6 4 4 4 5 5 5 4 4 4 4 4 4 
7 7 7 7 7 7 7 7 7 8 8 8 7 7 7 7 5 6 7 7 7 7 5 6 7 7 7 9 9 9 10 10 10 9 9 9 8 8 8 7 5 6 7 7 5 6 6 6 8 6 7 7 7 7 7 7 7 10 10 8 10 10 10 10 10 10 11 11 11 11 11 11 10 10 10 9 9 9 7 7 7 5 5 5 4 4 4 5 5 5 5 7 6 6 6 6 7 7 7 7 7 7 7 7 7 7 7 7 5 5 5 5 5 5 5 5 5 5 5 5 5 5 5 6 6 6 7 7 7 7 7 7 7 7 7 6 6 6 9 7 8 8 6 7 9 8 6 9 9 9 49 45 36 9 9 9 9 9 9 9 9 9 10 10 10 9 9 9 8 8 8 7 7 7 6 6 6 7 7 7 7 7 5 8 8 8 9 9 9 7 7 7 4 4 4 4 4 4 6 6 6 7 7 7 6 6 6 5 5 5 5 5 5 6 6 6 6 6 6 7 7 7 7 7 7 7 7 7 7 7 7 6 4 5 4 4 4 4 4 4 4 4 4 5 5 3 36 5 3 19 5 4 6 6 6 7 7 7 6 6 6 5 7 6 5 7 6 6 6 6 7 7 7 7 5 6 5 5 5 5 5 5 5 5 5 5 3 4 4 4 4 4 4 4 4 4 4 3 3 3 
6 6 6 8 8 8 8 8 8 7 7 7 7 7 7 8 6 7 6 6 6 7 5 6 6 6 6 7 7 7 8 8 8 8 8 8 9 7 8 6 6 8 5 6 8 22 19 14 48 41 31 34 31 24 7 7 7 10 10 10 11 11 11 11 11 11 12 12 12 11 11 11 10 10 10 9 9 11 7 7 7 4 4 4 5 5 5 4 6 5 5 5 5 8 6 7 38 33 29 48 41 33 20 19 15 7 7 7 6 6 6 5 5 5 5 5 5 7 7 7 6 6 6 6 6 6 7 7 7 7 7 7 7 7 7 7 5 6 7 7 7 7 6 4 8 8 8 9 9 9 52 50 38 8 8 8 9 9 9 9 9 9 9 9 9 8 8 8 8 8 8 8 8 8 8 8 8 7 7 7 7 5 6 8 6 7 9 7 8 7 7 7 4 4 4 4 4 4 6 6 6 7 6 4 6 6 6 5 5 5 6 6 6 6 6 6 6 6 6 8 8 8 8 8 8 8 8 8 8 8 8 5 5 5 4 2 3 4 4 4 3 3 3 4 4 4 39 3 3 50 4 6 46 6 7 21 6 9 8 8 8 7 7 7 7 7 9 7 7 7 6 6 6 7 5 6 5 5 5 3 3 3 5 5 5 4 4 4 5 5 5 5 5 5 5 5 5 4 4 4 
5 5 5 9 9 9 9 9 9 7 7 7 7 7 7 6 6 6 5 5 5 6 6 6 6 6 6 7 7 7 7 7 7 7 7 7 7 7 7 7 7 7 7 7 7 12 12 12 18 17 13 15 15 13 8 8 8 11 9 10 11 11 11 13 13 13 12 12 12 10 10 10 9 9 9 6 6 6 7 7 7 5 5 5 7 5 6 5 7 4 6 6 6 7 7 7 17 16 12 38 33 29 22 23 18 7 5 6 5 5 5 5 5 5 4 4 4 6 6 6 7 7 7 7 7 7 7 7 7 8 8 8 8 6 7 8 6 9 8 8 8 8 8 10 7 7 7 6 6 6 19 18 16 7 7 7 10 10 10 11 11 11 8 8 8 7 7 7 8 8 8 9 9 9 9 9 9 7 7 7 6 6 6 6 6 6 9 7 8 6 6 6 4 4 4 4 4 2 16 17 12 32 33 25 4 4 4 4 4 4 5 5 5 5 5 5 6 6 6 8 8 8 9 9 9 9 9 9 9 9 7 6 6 6 4 4 4 3 3 5 4 4 4 5 5 5 14 4 3 37 24 18 33 19 16 10 8 9 7 9 8 9 7 8 8 6 9 6 6 6 5 7 6 5 5 5 4 4 4 4 4 4 5 3 4 4 4 4 5 5 5 6 6 6 4 4 4 4 4 4 
5 5 5 7 7 7 8 8 8 8 8 8 7 7 7 7 7 7 5 5 5 6 6 6 6 6 6 6 6 6 7 7 7 7 7 7 6 6 4 7 7 7 7 7 9 7 7 7 7 7 7 7 7 7 8 8 8 10 12 11 13 13 11 12 12 12 11 11 11 9 9 9 8 8 8 7 7 7 8 8 10 5 5 5 6 6 6 7 7 5 6 6 6 4 4 6 7 7 5 15 14 12 10 10 10 6 6 4 4 4 4 5 5 5 6 6 6 6 6 6 6 6 6 8 8 8 7 7 7 8 8 8 8 6 7 9 8 6 9 7 8 6 6 6 6 6 6 4 4 4 5 5 5 8 8 8 10 10 10 11 11 11 8 8 8 8 8 8 8 8 8 9 9 9 8 8 8 7 7 7 6 6 6 5 5 5 5 5 5 6 6 6 4 4 6 4 4 6 10 10 10 12 12 10 3 3 3 4 4 4 5 5 5 5 5 5 6 6 6 7 7 7 9 9 9 9 9 9 9 9 9 6 6 4 5 5 5 4 4 6 3 3 3 4 4 4 4 2 5 11 11 9 8 8 8 7 7 7 10 10 10 9 7 8 7 7 7 6 8 7 5 5 5 6 6 6 4 4 4 4 4 4 5 3 4 4 4 4 5 5 5 5 5 5 5 5 5 5 5 5 
6 6 6 7 7 7 7 7 7 6 6 6 8 8 8 8 8 8 7 7 7 6 6 6 7 7 7 7 7 7 7 7 7 7 7 7 7 5 6 7 7 7 7 7 9 7 7 7 8 6 7 7 7 7 8 8 8 10 10 10 11 11 11 11 11 11 11 11 11 9 9 11 8 8 8 7 7 5 7 7 7 6 6 6 7 7 7 8 8 10 6 6 8 5 5 5 5 5 5 7 5 6 8 8 8 6 6 6 5 5 5 4 4 4 5 5 5 6 6 6 6 6 6 7 7 7 6 6 6 6 6 6 6 6 6 6 4 5 7 7 7 7 6 4 5 5 5 4 4 4 6 6 4 8 8 6 9 9 9 11 11 11 8 8 8 8 8 8 8 8 8 8 8 8 7 7 7 8 8 8 7 5 6 5 3 4 4 4 4 6 6 6 5 5 5 4 4 4 4 4 4 3 3 3 4 4 4 5 5 5 6 6 6 5 5 5 4 4 4 6 6 6 7 7 7 8 8 8 7 7 7 5 5 3 5 5 5 4 4 4 3 3 3 3 3 3 4 4 4 3 5 4 5 4 2 7 7 7 8 8 8 7 7 7 6 6 6 5 5 5 5 5 5 4 4 4 4 4 4 4 4 4 4 4 4 5 5 5 5 5 5 6 4 5 5 5 5 6 6 6 
6 6 6 6 6 6 7 7 7 7 7 7 8 8 8 8 8 8 7 7 7 7 7 7 5 5 5 6 6 6 7 7 7 7 7 7 7 7 7 6 8 7 8 8 8 9 7 8 7 7 5 8 8 8 6 6 6 8 8 8 9 9 9 8 8 8 10 10 10 11 11 11 10 10 10 10 10 10 8 8 8 8 8 8 9 9 9 8 8 8 7 7 7 6 6 6 5 5 3 8 7 5 9 9 9 7 7 7 7 7 7 6 6 6 6 6 6 6 6 6 6 6 6 6 6 6 6 6 6 6 6 6 6 6 6 5 7 6 6 4 5 6 6 6 6 6 6 5 3 4 7 7 7 10 8 11 9 9 9 9 9 9 9 9 9 8 8 8 8 8 8 8 8 8 8 8 8 8 8 8 7 7 5 5 3 4 4 4 4 6 4 5 5 5 5 4 4 4 5 5 5 5 5 5 5 5 5 6 6 6 6 6 6 5 5 5 4 4 4 5 5 5 7 7 7 7 7 7 4 4 4 5 3 6 5 5 5 4 4 4 3 3 3 4 3 1 5 4 2 5 5 5 6 5 3 6 6 6 8 8 8 6 6 6 6 4 5 5 3 4 4 4 4 3 3 3 4 4 4 4 4 4 6 6 6 6 6 6 6 6 6 6 4 5 4 4 4 4 4 4 
5 5 5 5 5 5 7 7 7 9 9 9 9 9 9 9 9 9 9 7 8 7 7 7 7 7 7 6 6 6 5 5 5 7 7 7 7 5 6 6 8 7 7 7 7 6 6 6 8 6 9 6 6 6 7 7 7 7 7 7 8 8 10 9 9 9 9 9 9 12 12 12 13 13 13 12 12 12 10 10 10 9 9 9 9 9 9 8 8 8 8 6 9 7 7 7 7 7 7 8 6 7 8 8 6 7 7 9 7 7 7 8 8 8 6 6 6 5 5 5 6 6 6 7 7 7 7 7 7 5 5 5 5 5 5 5 5 5 5 5 5 5 5 3 6 4 5 7 7 7 9 7 8 10 10 8 9 9 9 9 9 9 9 9 9 9 9 9 9 9 9 9 9 9 8 8 8 8 8 8 6 6 6 4 4 4 4 4 4 4 4 4 4 4 2 5 5 5 5 5 5 6 6 8 5 5 5 7 7 7 6 6 6 6 6 6 5 5 5 6 6 6 7 7 7 6 6 6 5 5 5 3 5 4 3 3 3 5 5 5 5 3 4 4 4 4 5 4 2 6 4 5 6 6 6 6 6 6 6 6 4 6 6 6 6 6 6 5 5 3 3 3 3 4 4 4 4 4 4 5 5 5 7 7 7 7 7 7 7 7 7 6 6 6 4 4 4 3 3 3 
6 6 6 5 5 5 7 7 7 9 9 9 9 9 9 7 7 7 8 6 7 6 6 6 6 6 6 5 5 5 5 5 5 5 5 5 7 7 5 6 8 7 8 6 7 8 6 7 7 7 5 7 7 5 8 8 8 8 8 10 9 9 9 8 8 8 8 8 8 11 11 11 12 12 12 12 12 12 11 11 11 8 8 8 7 7 7 8 8 8 7 7 7 7 7 7 6 6 6 8 6 7 7 7 5 7 7 5 7 7 7 7 7 7 6 6 6 7 7 7 7 7 7 6 6 6 5 5 5 5 5 5 6 4 7 5 5 5 5 3 4 5 5 7 7 7 7 7 7 7 8 8 10 8 8 8 8 8 8 8 8 8 9 9 9 10 10 10 10 10 10 9 9 9 8 8 8 8 8 8 7 5 6 4 4 4 5 3 4 3 3 3 5 5 5 6 6 6 7 7 7 6 6 6 6 6 6 6 6 6 6 6 6 6 6 6 6 6 6 6 6 6 6 6 6 5 5 5 6 4 5 5 3 4 2 2 2 3 3 5 5 5 5 6 6 4 6 6 6 6 6 6 6 6 6 5 5 5 5 5 7 3 5 4 5 5 5 5 3 4 4 4 4 5 5 5 6 6 6 7 7 7 7 7 7 5 5 5 8 6 7 5 5 5 3 3 3 3 3 3 
5 5 5 6 6 6 7 7 7 9 9 9 8 8 6 8 8 8 7 7 5 7 7 7 6 6 6 5 5 5 4 4 2 6 6 6 7 7 7 7 7 7 7 7 7 7 7 7 6 6 6 7 7 7 8 8 8 9 9 9 10 10 10 9 9 9 8 8 8 11 11 11 12 12 12 13 13 13 12 10 11 8 7 5 6 6 6 7 7 7 8 8 8 7 7 7 6 6 6 7 7 7 8 8 8 9 9 9 8 8 8 6 6 6 7 7 7 9 9 9 9 9 9 6 6 6 5 5 5 6 4 5 6 6 6 7 7 7 6 6 6 6 6 6 7 7 7 8 8 8 7 7 7 7 7 7 7 5 8 8 8 8 9 9 9 11 11 9 11 11 11 9 9 9 8 8 8 8 8 8 6 6 6 4 4 4 4 4 4 5 5 5 5 5 5 6 6 6 6 6 6 5 5 5 6 6 6 7 7 7 6 6 6 6 6 6 5 5 5 6 6 6 6 6 6 4 4 4 4 4 4 4 4 4 2 2 2 3 3 3 6 6 6 7 7 7 6 6 6 7 7 7 5 5 5 5 5 5 5 5 5 4 4 4 5 3 4 6 4 5 5 5 5 6 6 6 6 6 6 7 7 7 6 6 6 6 6 6 6 6 6 4 4 4 3 3 3 3 3 3 
7 7 7 5 5 5 8 8 8 8 8 8 8 8 8 8 6 7 8 6 7 24 20 19 30 26 23 14 13 11 5 5 5 6 6 8 7 7 7 7 7 7 7 7 7 7 7 7 7 7 7 8 8 8 8 8 8 9 9 9 9 9 9 8 8 10 10 10 10 11 11 11 12 12 12 33 32 28 31 30 26 9 9 11 5 5 5 6 6 6 7 7 7 8 8 8 7 7 7 7 7 7 9 9 9 9 9 9 8 8 8 6 6 6 7 7 7 9 9 9 9 9 9 5 5 5 6 4 5 6 6 6 6 6 6 8 8 8 8 8 8 9 9 9 8 8 8 6 6 6 6 6 6 4 4 4 6 4 7 9 8 6 9 9 11 10 10 10 10 10 10 9 9 9 8 8 8 8 6 7 7 7 7 6 6 6 5 5 5 5 5 5 5 5 5 6 6 6 6 6 6 6 6 6 7 7 7 6 6 6 6 6 6 7 7 7 6 6 6 7 7 7 5 5 5 4 4 4 4 4 4 5 5 5 5 5 5 6 6 6 7 7 7 7 7 7 6 6 6 6 6 6 5 7 6 6 6 6 5 5 5 6 6 6 4 4 4 4 4 4 13 14 9 19 18 13 6 6 6 6 6 6 4 4 4 5 5 5 6 6 6 5 5 5 4 4 4 3 3 3 
6 6 6 7 7 7 8 8 8 7 7 7 7 7 7 8 8 8 9 8 6 41 38 29 37 34 27 15 14 12 7 7 7 7 7 7 6 6 6 6 6 6 6 6 6 7 7 7 7 7 7 7 7 7 8 8 8 8 8 8 8 8 8 6 6 6 9 9 9 13 13 15 33 32 28 55 52 43 54 51 44 12 12 10 6 6 6 4 4 4 6 6 6 8 8 8 8 8 8 9 9 9 9 9 9 9 9 9 7 7 7 6 6 6 6 6 6 8 8 8 7 7 7 8 6 7 5 5 5 7 7 7 7 7 7 7 7 7 9 9 9 9 9 9 7 7 7 6 6 6 5 5 5 4 4 4 7 5 6 8 10 7 10 10 10 10 10 10 10 10 10 9 9 9 22 21 17 15 14 12 6 6 6 6 6 6 6 6 6 5 5 5 6 6 6 6 6 6 7 7 7 7 7 7 7 7 7 6 6 6 6 6 6 6 6 6 5 5 5 6 6 6 5 5 5 4 4 4 4 4 4 5 5 5 6 6 6 7 7 7 7 7 7 6 6 6 5 5 5 6 6 6 6 6 6 6 6 6 5 5 5 7 5 6 4 4 4 4 4 4 14 13 11 20 19 15 6 6 6 5 5 5 4 4 4 4 4 4 4 4 4 4 4 4 4 4 4 3 3 3 
5 5 5 5 5 5 7 7 7 7 7 7 7 5 6 6 6 6 8 7 5 26 25 20 18 17 15 7 7 7 7 7 7 7 7 5 7 7 7 7 7 7 8 8 8 7 7 7 7 7 7 7 7 7 7 7 7 7 7 7 7 7 7 8 7 5 10 10 10 12 12 12 35 34 30 53 50 41 35 34 30 10 10 10 6 6 6 5 5 5 7 7 7 9 9 9 8 8 8 8 8 8 8 8 8 7 7 7 5 5 5 7 7 7 6 6 6 6 6 6 6 6 6 5 5 5 6 6 6 7 5 6 7 7 7 7 7 7 9 9 9 10 10 10 8 8 8 5 5 5 5 5 5 4 4 4 6 6 6 10 10 10 11 9 10 9 9 9 9 9 11 9 9 9 23 22 18 17 16 14 6 6 6 7 7 7 6 6 6 6 6 6 5 5 5 6 6 6 7 7 7 8 8 8 7 7 7 6 6 6 5 5 5 6 6 6 5 5 5 6 6 6 6 6 6 4 4 4 4 4 4 5 5 5 7 7 7 7 7 7 7 7 7 5 5 5 5 5 5 6 6 6 6 6 6 5 5 5 4 4 4 5 5 5 4 4 4 4 4 4 5 5 5 6 6 6 7 7 7 5 5 5 5 5 5 5 5 5 4 4 4 4 4 4 4 4 4 2 2 2 
4 4 4 6 6 6 8 8 8 7 7 7 7 7 7 8 6 7 6 6 6 8 8 8 7 7 9 8 8 8 7 7 7 8 8 8 7 7 7 6 6 6 7 7 7 7 7 7 6 6 6 7 7 7 8 8 8 6 6 6 6 6 6 8 8 8 9 9 9 10 10 10 8 8 8 34 33 28 9 9 7 7 7 7 6 6 6 5 5 5 8 8 8 10 10 10 9 9 9 7 7 7 6 6 6 5 5 5 4 4 4 6 6 6 6 6 6 6 6 6 6 6 6 7 5 6 6 4 5 7 7 7 8 8 8 8 8 8 9 9 9 10 10 10 9 9 9 5 5 5 4 4 4 5 5 5 8 6 7 10 10 10 10 10 10 9 9 11 8 8 8 6 6 8 7 7 7 6 8 7 7 7 7 7 7 7 7 7 7 6 6 6 6 6 6 6 6 6 7 7 7 8 8 8 7 7 7 6 6 6 5 5 5 6 6 6 6 6 6 7 7 7 7 7 7 5 5 5 5 5 5 6 6 6 8 8 8 7 7 7 6 6 6 5 5 5 6 6 6 7 7 7 6 6 6 5 5 5 5 5 5 5 5 5 4 4 4 4 4 4 5 5 5 5 5 5 6 6 6 6 6 6 6 6 6 7 7 7 5 5 5 3 3 3 4 4 4 3 3 3 
6 6 6 8 8 8 9 9 9 9 9 9 7 9 8 7 7 7 8 8 8 8 8 8 8 8 8 7 7 5 7 7 7 7 7 7 7 7 7 7 7 7 7 7 7 7 7 7 7 7 7 7 7 7 7 7 7 5 5 5 6 6 6 8 8 6 8 8 8 8 8 8 9 9 11 8 8 6 10 10 10 8 8 8 8 8 8 7 7 7 9 9 9 10 10 10 8 8 8 6 6 6 4 4 4 3 3 3 5 5 5 6 6 6 5 5 5 5 5 5 6 6 6 7 5 6 7 7 7 8 8 8 8 8 8 8 8 8 9 9 9 10 10 10 9 9 9 7 7 7 4 4 4 6 6 6 8 6 7 9 9 7 9 7 8 9 7 8 8 6 7 7 7 7 6 6 8 7 7 5 7 7 7 8 8 8 8 8 8 8 8 8 7 7 7 8 8 8 9 9 9 9 9 9 7 7 7 7 7 7 7 7 7 6 6 6 6 6 6 9 9 9 8 8 8 6 6 6 6 6 6 6 6 6 7 7 7 5 5 5 6 6 6 7 7 7 6 6 6 6 6 6 6 6 6 6 4 5 5 5 5 5 5 5 5 5 5 5 5 5 4 4 4 6 4 5 5 5 5 7 7 7 7 7 7 7 7 7 5 5 5 3 3 3 3 3 3 4 4 4 
8 8 8 8 8 8 8 8 8 9 9 9 10 8 9 11 11 11 11 9 10 11 9 10 9 7 8 6 6 6 7 7 7 7 7 7 6 6 6 7 7 7 8 8 8 8 8 8 7 7 7 7 7 7 6 6 6 5 5 5 6 6 8 7 7 7 7 7 7 7 7 7 8 8 8 8 8 8 8 8 8 7 7 7 7 7 7 9 9 9 8 8 8 8 8 8 6 6 6 5 5 5 5 5 5 4 4 4 6 6 6 5 5 5 6 6 6 5 5 5 6 4 5 6 6 6 7 7 7 8 8 8 8 8 8 8 8 8 8 8 8 8 8 8 8 8 8 6 6 6 6 6 6 6 6 6 6 6 6 8 8 8 9 9 9 8 6 7 7 7 9 8 6 7 9 7 8 6 8 7 7 7 7 7 7 7 8 8 8 6 6 6 7 7 7 8 8 8 9 9 9 8 8 8 7 7 7 7 7 7 7 7 7 8 8 8 8 8 8 10 10 10 8 8 8 6 6 6 5 5 5 6 6 6 5 5 5 6 6 6 7 7 7 7 7 7 7 7 7 5 5 5 6 6 6 7 7 7 6 6 6 5 5 5 5 5 5 4 4 4 4 4 4 5 5 5 6 6 6 7 7 7 7 7 7 6 6 6 5 5 5 5 5 5 3 3 3 3 3 3 
7 7 7 8 8 8 8 8 8 8 8 8 10 8 9 12 10 11 11 11 11 8 8 8 7 7 7 5 5 5 6 6 4 7 5 6 7 7 7 7 7 7 8 8 8 10 10 10 9 9 9 5 5 5 3 3 3 6 6 6 6 6 6 5 5 5 6 6 6 7 7 7 8 8 6 7 7 9 8 8 10 6 6 6 6 6 6 7 7 7 6 6 6 6 6 6 6 6 6 5 5 5 5 5 5 5 5 5 5 5 5 4 4 4 5 5 5 6 6 6 6 6 6 7 5 6 9 7 8 7 7 7 7 7 7 6 6 6 8 8 8 8 8 8 6 6 6 6 6 6 6 6 6 6 6 6 5 5 5 5 5 5 8 8 8 9 9 9 8 7 12 8 8 8 7 7 7 9 7 8 8 8 8 9 9 9 9 9 9 7 7 7 6 6 6 8 8 8 7 7 7 5 5 5 6 6 6 7 7 7 7 7 7 8 8 8 8 8 8 9 9 9 8 8 8 5 5 5 6 6 6 5 5 5 4 4 4 6 6 6 8 8 8 9 9 9 7 7 7 6 6 6 6 6 6 8 8 8 8 6 7 6 4 5 4 4 4 4 4 4 5 5 5 5 5 5 6 6 6 7 7 7 6 6 6 5 5 5 4 4 4 4 4 4 4 4 4 3 3 3 
19 18 14 5 7 6 7 7 7 9 9 9 9 9 9 10 10 10 9 9 9 8 8 8 8 8 8 6 6 6 6 6 6 7 7 7 7 7 7 7 7 7 8 8 8 11 10 8 9 9 9 10 6 5 14 4 5 6 6 6 9 9 9 5 5 5 4 4 4 5 5 5 7 7 7 7 7 7 7 7 7 9 7 8 6 6 4 5 5 3 6 6 6 6 6 4 5 5 3 5 5 5 5 5 5 4 4 2 5 5 5 6 6 6 4 4 4 4 4 4 5 5 5 6 6 6 6 6 6 8 6 7 7 7 7 7 7 7 9 9 9 7 7 7 7 7 7 6 6 6 5 5 5 6 6 6 5 5 5 5 5 5 8 8 8 10 10 10 10 10 10 8 8 8 8 8 8 9 9 9 10 10 10 10 10 8 9 9 9 7 7 9 6 6 6 7 7 7 7 7 7 6 6 6 6 6 6 7 7 7 8 8 8 9 9 9 10 10 10 9 9 9 6 6 6 7 7 7 6 6 6 4 4 4 5 5 5 7 7 7 9 9 9 9 9 9 8 8 8 6 6 6 7 7 7 8 8 8 9 9 9 6 6 6 3 3 3 3 3 3 6 6 6 6 6 6 7 7 7 7 7 7 5 5 5 5 5 5 3 3 3 4 4 4 6 4 5 4 4 4 
52 50 38 6 6 6 6 6 6 8 8 8 9 9 9 9 9 9 9 9 9 9 9 9 9 9 9 8 8 8 7 7 7 7 7 7 7 5 6 5 7 6 7 7 7 10 8 9 14 8 12 22 8 8 39 5 6 6 6 8 7 7 7 5 5 5 4 4 4 5 5 5 7 7 7 7 7 7 8 8 8 6 6 6 4 4 4 6 6 6 7 7 5 8 6 7 6 6 6 5 5 7 4 6 5 5 5 5 5 5 5 5 5 5 4 4 4 4 4 4 5 5 5 6 6 6 6 6 6 7 7 7 7 7 7 8 8 8 10 10 10 8 8 8 7 7 7 6 6 6 5 5 5 6 6 6 6 6 6 7 7 7 10 10 10 11 11 11 11 11 11 10 10 10 10 10 10 11 11 11 11 11 11 9 9 9 8 8 10 6 8 7 5 7 4 6 6 6 9 7 8 9 7 8 7 7 7 8 6 7 9 9 9 11 11 11 10 10 10 8 8 6 7 5 8 7 7 7 7 7 7 6 6 6 6 6 6 8 8 8 9 9 9 8 8 8 7 7 7 6 6 6 6 6 6 8 8 8 9 9 9 6 6 6 3 3 3 3 3 3 6 6 6 6 6 6 8 8 8 7 7 7 6 6 6 5 5 5 4 4 4 5 5 5 6 6 6 3 3 3 
47 45 32 7 7 7 7 7 5 8 8 8 8 8 8 8 8 8 11 11 11 10 10 10 10 10 10 8 8 8 8 8 8 5 5 5 5 5 5 5 5 5 7 7 7 10 8 11 23 8 5 52 8 7 41 7 6 8 8 10 6 6 6 5 5 5 5 5 5 6 6 6 6 6 6 7 7 7 8 8 8 6 6 6 5 5 5 7 5 6 9 8 6 8 6 7 7 7 7 6 6 8 9 5 6 9 5 4 5 5 5 5 5 5 4 4 4 3 3 1 5 5 3 6 6 6 7 5 6 8 6 7 8 8 8 11 11 11 9 9 9 7 7 7 7 7 7 6 6 6 5 5 5 4 4 4 5 5 5 8 8 8 10 10 10 11 11 11 10 10 10 10 10 10 10 10 10 9 9 9 8 8 8 8 8 8 9 9 9 6 6 4 6 6 6 9 7 8 27 7 8 42 8 7 7 7 7 8 8 8 9 9 9 12 12 10 8 8 10 6 6 4 6 6 6 7 7 7 7 7 7 7 7 7 7 7 7 9 9 9 8 8 8 7 7 7 6 6 6 5 5 5 5 5 5 6 6 6 7 7 7 6 6 6 4 4 4 4 4 4 7 7 7 8 8 8 8 6 7 5 5 5 6 4 5 5 5 5 5 5 5 6 6 6 6 6 6 5 5 5 
10 10 8 8 8 10 7 7 7 7 7 7 7 7 7 7 7 7 9 9 9 9 9 9 8 8 8 8 8 8 6 6 6 5 5 5 3 3 3 4 4 4 6 6 8 9 9 9 21 7 7 48 8 9 38 8 6 8 6 7 7 7 7 5 5 5 5 5 5 7 7 7 6 6 6 6 6 6 6 6 6 7 5 6 6 6 6 7 7 7 8 6 9 7 7 7 8 8 8 8 7 5 31 5 6 18 4 3 5 5 7 4 4 4 4 4 4 4 4 4 6 6 6 6 6 6 6 6 6 6 6 8 8 8 8 12 12 12 9 9 9 6 6 6 6 6 6 6 6 6 5 5 5 4 4 4 6 6 6 7 7 7 7 7 7 8 8 8 9 9 9 8 8 8 5 5 5 5 5 5 6 6 8 7 5 6 9 8 6 7 7 7 7 7 9 23 9 8 48 6 8 41 5 7 7 7 7 8 8 8 8 8 10 9 9 9 6 6 6 5 5 5 6 6 8 8 8 8 7 7 7 8 8 8 8 8 8 8 8 8 5 5 5 5 5 5 7 7 7 6 6 6 4 4 4 4 4 4 5 5 5 6 6 6 5 5 5 5 5 5 8 8 8 8 8 8 5 5 5 4 4 4 4 4 4 5 5 5 4 4 4 6 6 6 6 6 6 6 6 6 
8 8 8 7 7 7 8 8 8 7 7 7 7 7 7 8 8 8 8 8 8 9 9 9 9 9 9 8 8 8 7 7 7 5 5 5 4 4 2 4 4 4 7 7 7 8 8 8 7 7 9 7 7 7 10 8 11 8 8 10 7 7 7 5 5 5 5 5 5 6 6 6 7 7 7 6 6 6 6 6 6 8 6 7 7 7 7 7 5 6 6 6 6 9 7 8 9 9 7 9 9 11 6 6 6 4 4 4 4 4 2 4 4 4 4 4 4 4 4 4 6 6 6 6 6 6 6 6 6 6 6 4 8 8 8 9 9 9 8 8 8 8 8 8 7 7 7 6 6 6 7 7 7 5 5 5 7 7 7 7 7 7 7 7 7 8 8 8 7 7 7 5 5 5 4 4 4 5 5 5 6 6 6 7 7 5 6 6 4 7 7 7 8 8 8 8 8 8 8 8 10 7 7 7 7 7 7 7 7 7 7 7 5 6 6 6 6 6 6 6 6 6 6 6 6 7 7 7 7 7 7 9 9 9 9 9 9 6 6 6 5 5 5 6 6 6 7 7 7 8 8 8 5 5 5 4 4 4 5 5 5 7 7 7 7 7 7 7 7 7 7 7 7 6 6 6 4 4 4 3 3 3 3 3 3 4 4 4 4 4 4 5 5 5 5 5 5 7 7 7 
6 6 6 7 7 7 8 8 8 7 7 7 7 7 7 8 8 8 8 8 8 8 8 8 8 8 8 9 9 9 6 6 6 3 3 3 3 3 3 4 4 4 7 5 6 7 7 7 7 7 7 8 8 8 12 10 11 9 9 7 7 7 7 5 5 5 6 6 6 6 6 6 7 7 7 6 6 6 7 7 7 8 8 8 7 7 7 5 7 6 6 6 6 7 7 7 11 9 12 10 10 12 8 8 6 6 8 7 8 8 8 7 7 7 6 6 6 6 6 6 7 7 7 7 7 7 8 6 7 9 7 8 7 7 7 7 7 7 8 8 8 10 10 10 8 8 8 6 6 6 8 8 8 6 6 6 7 7 7 7 7 7 7 7 7 6 6 6 4 4 4 4 4 4 4 4 4 6 6 6 7 7 7 6 8 7 7 7 7 6 6 6 7 7 7 7 7 7 6 6 6 7 7 7 7 7 7 7 7 9 7 7 7 7 7 7 6 6 6 5 5 5 6 6 6 6 6 6 7 7 7 8 8 8 8 8 8 6 6 6 6 6 6 7 7 7 9 9 9 7 7 7 6 6 6 5 5 5 5 5 5 9 9 9 11 11 11 8 8 8 5 5 5 4 4 4 3 3 3 4 4 4 4 4 4 3 3 3 4 4 4 6 6 6 8 6 7 6 6 6 
