P3
100 50
255
5 5 5 5 5 5 4 4 4 6 4 5 6 6 4 8 8 8 11 10 8 9 7 10 7 7 9 6 6 6 5 5 5 5 5 5 6 6 6 6 6 6 8 8 8 9 7 8 7 7 7 6 6 6 5 5 5 6 6 6 7 5 6 7 5 6 5 5 7 4 4 4 5 5 5 8 6 7 10 10 10 12 12 14 9 9 9 7 7 7 9 9 11 12 10 11 9 9 9 8 8 8 9 9 9 10 10 10 8 8 8 6 6 6 6 4 7 6 6 6 6 6 6 7 5 6 5 7 6 7 7 7 6 6 6 6 6 4 8 8 6 8 8 8 9 9 9 7 7 7 6 6 6 8 8 8 5 5 7 6 6 6 4 4 4 3 3 3 4 4 2 5 5 3 4 4 4 4 4 4 4 4 4 4 4 4 2 2 2 2 2 2 5 5 5 6 6 6 7 7 7 8 8 8 9 9 9 9 10 12 12 12 12 14 14 14 11 11 13 10 10 8 12 12 14 11 11 11 8 8 8 9 9 9 10 10 10 8 8 8 8 8 8 11 11 11 13 13 13 12 12 12 14 14 14 13 13 13 11 11 11 9 9 9 8 8 8 5 5 5 4 4 4 6 4 5 5 5 5 6 4 5 6 6 6 7 5 6 12 8 9 8 8 8 12 10 11 9 9 9 
7 7 7 5 5 3 4 4 4 5 5 5 6 6 6 7 7 5 7 7 7 7 5 8 7 5 6 8 7 5 6 6 6 6 4 5 5 5 5 6 6 6 8 8 8 10 10 10 7 7 7 6 6 6 5 5 5 6 6 6 7 7 7 7 7 7 5 5 5 4 4 4 6 6 6 9 9 9 11 11 11 13 11 14 10 10 10 8 6 7 11 10 8 11 11 11 10 10 10 9 9 9 11 11 11 12 11 9 8 8 8 7 5 6 7 7 7 7 7 7 7 7 5 7 7 9 9 7 8 8 6 7 6 6 6 6 6 6 6 6 6 8 8 8 11 11 11 10 10 8 8 8 6 7 7 7 6 6 4 6 6 6 5 5 5 4 4 2 5 5 5 5 5 7 4 4 6 4 4 4 4 4 4 4 4 4 3 3 3 3 3 3 6 6 6 7 7 7 7 7 7 7 7 7 10 8 9 9 9 9 11 11 11 12 12 12 10 10 10 12 10 11 12 12 10 10 10 10 10 10 10 10 10 10 8 8 8 9 7 8 7 7 7 12 12 12 15 15 15 14 12 13 12 12 12 12 10 11 12 10 11 11 11 11 8 8 8 6 4 5 5 5 5 6 6 6 6 6 6 7 7 7 7 7 7 8 8 8 8 8 10 9 8 6 10 10 12 10 10 8 
8 8 6 6 6 6 5 5 5 6 4 5 5 5 3 4 4 4 6 4 5 6 6 4 6 6 4 7 7 7 5 5 7 6 4 5 5 5 5 7 7 7 9 9 9 7 7 7 6 6 6 5 5 5 6 6 6 6 6 6 8 8 8 7 7 7 5 3 4 4 2 5 5 5 7 10 10 10 10 10 10 11 9 10 9 9 9 7 7 7 9 9 9 9 9 9 10 10 10 10 10 10 12 12 12 10 8 9 7 5 6 6 6 6 7 7 7 7 7 7 8 8 6 8 8 8 9 9 9 8 8 6 5 5 5 6 6 6 7 7 7 7 7 7 7 7 7 9 9 9 7 7 7 5 5 7 4 6 5 4 4 4 5 5 5 6 6 6 5 5 5 5 5 5 4 4 4 4 4 4 4 4 4 4 4 4 2 2 2 4 4 4 5 5 5 6 6 6 7 7 7 6 6 6 7 7 7 7 7 7 7 7 7 7 7 5 8 8 8 12 10 11 13 13 11 11 11 11 12 12 12 11 9 10 6 6 6 7 7 7 7 7 7 12 10 11 15 13 14 11 11 11 10 10 10 12 10 11 12 10 11 11 11 11 8 8 8 7 5 6 5 5 5 5 5 5 6 6 6 7 7 7 7 7 7 8 8 10 7 7 9 8 6 7 9 9 9 9 8 6 
9 9 9 7 7 7 5 5 5 3 3 5 3 3 5 5 3 4 6 4 5 44 4 4 23 5 5 4 6 5 6 4 5 6 6 6 5 5 5 6 6 6 7 7 7 6 6 6 7 5 6 6 6 6 7 7 7 8 8 8 7 7 7 6 6 6 6 6 6 7 5 6 5 5 7 9 9 9 10 10 10 10 8 9 9 7 8 10 8 9 10 10 10 12 12 12 12 10 13 10 10 10 11 11 13 8 6 7 6 6 6 5 5 5 6 6 4 9 7 8 11 9 10 10 10 10 11 10 8 8 8 8 6 6 8 8 8 8 8 8 8 7 7 9 5 5 5 7 7 7 7 7 7 5 5 5 5 5 5 5 5 5 5 5 5 8 8 8 7 9 8 3 5 4 4 4 4 6 5 3 4 4 4 4 4 4 4 4 4 6 6 6 6 6 6 5 5 5 5 5 5 3 3 3 4 4 4 5 5 5 6 4 5 5 5 7 8 6 9 13 11 12 57 15 16 56 10 12 11 11 11 9 9 9 6 6 6 7 7 7 8 8 8 9 9 9 11 11 11 10 10 10 8 8 8 11 11 11 12 12 12 11 11 11 8 8 8 5 5 5 4 4 4 6 4 5 5 5 5 9 7 10 6 6 6 6 6 6 7 5 6 9 7 10 8 8 8 9 7 8 
9 9 7 8 8 8 5 5 5 4 2 3 3 3 5 5 3 4 6 6 4 10 6 3 9 5 4 6 6 8 6 6 6 6 6 6 5 5 5 5 5 5 6 6 6 6 6 6 5 5 5 6 6 6 6 6 6 7 7 7 7 7 7 7 7 7 15 6 7 55 7 7 52 6 6 53 9 8 55 9 11 14 10 9 7 7 7 7 9 8 10 10 10 10 10 10 9 9 9 7 5 6 6 6 6 8 7 5 7 7 5 6 6 6 7 7 7 8 10 9 11 11 11 26 10 11 40 10 10 8 8 8 7 7 7 8 8 8 7 7 7 7 7 7 9 9 9 9 9 9 7 7 7 5 5 5 5 5 5 5 5 5 6 6 6 8 6 7 9 7 8 4 4 4 4 4 4 4 4 6 6 6 6 5 5 5 5 5 5 6 6 6 7 7 7 6 6 6 5 5 5 4 4 4 5 5 5 7 7 5 7 7 9 6 6 6 8 6 7 12 12 12 64 14 15 62 11 10 12 12 12 10 10 10 5 5 5 7 7 7 8 8 8 9 9 9 9 9 9 8 8 8 9 7 8 10 10 10 12 12 12 11 11 11 8 8 8 6 6 6 6 6 6 7 5 6 7 7 7 8 6 7 8 6 7 6 6 6 9 7 10 11 11 11 10 10 10 7 7 7 
8 8 6 7 7 7 7 7 7 4 4 4 4 4 4 4 4 4 6 6 6 4 6 5 5 5 5 5 5 5 6 6 6 6 6 6 7 7 7 4 4 4 5 5 5 6 6 6 7 7 7 7 5 6 7 7 7 7 7 7 6 6 8 7 7 7 14 8 8 59 9 8 59 9 10 60 9 6 19 7 7 6 6 6 8 6 7 8 8 8 8 6 7 7 7 9 9 7 8 5 5 5 4 4 6 5 5 5 8 8 8 7 5 6 6 6 4 7 7 5 8 8 8 26 8 8 49 9 7 9 9 9 10 10 10 9 9 9 6 6 6 7 7 7 11 11 11 8 8 8 6 6 6 5 5 5 4 3 1 6 4 5 6 6 8 7 7 7 6 6 6 5 3 4 5 3 4 6 6 4 6 6 6 5 5 5 5 5 5 6 6 6 7 7 7 7 7 7 6 6 6 6 6 6 6 6 6 8 8 8 8 6 7 9 8 6 8 10 9 12 12 12 62 14 12 23 11 11 10 10 10 9 9 9 8 6 7 8 8 8 6 6 6 9 9 9 9 7 8 8 8 8 9 9 9 9 9 9 10 10 10 10 10 10 10 8 9 7 7 7 6 6 6 6 6 6 7 7 7 9 8 6 8 6 7 8 6 7 8 8 8 10 8 9 9 9 11 9 7 8 
9 7 8 7 7 9 5 5 5 5 3 4 4 4 4 5 5 5 5 5 5 6 6 6 7 7 7 7 7 7 7 7 7 5 5 5 5 5 5 5 5 5 5 5 5 4 6 5 8 8 6 9 9 9 6 6 6 7 7 5 5 7 6 8 7 5 13 9 8 22 10 10 62 8 8 59 8 7 6 4 5 4 4 2 5 5 5 7 7 7 8 8 8 8 8 8 9 9 9 8 8 6 6 6 6 5 5 5 6 6 6 6 6 6 5 5 5 6 6 6 7 7 7 14 8 8 19 10 11 10 10 10 11 11 9 9 7 10 9 8 6 6 6 6 8 8 8 6 6 6 7 5 6 5 5 5 4 2 3 5 3 4 6 6 6 5 5 5 4 4 4 4 4 4 5 3 4 5 5 7 5 5 5 6 4 5 5 5 5 6 6 4 8 6 7 8 6 7 9 5 6 7 6 4 7 7 5 7 7 7 7 5 6 7 7 5 9 9 9 11 11 11 25 13 13 11 11 11 9 9 9 7 7 7 8 8 8 8 8 8 9 9 9 10 10 10 9 9 9 8 8 8 8 8 8 8 8 8 10 10 10 10 10 10 7 7 7 8 8 8 8 8 8 7 7 7 8 6 7 8 8 10 8 8 8 8 8 6 10 8 11 8 6 7 6 8 5 9 8 6 
9 7 8 8 8 8 7 5 6 4 4 4 6 6 6 4 4 4 5 5 5 5 5 5 6 6 6 8 8 8 7 7 7 6 6 6 6 4 5 5 5 7 6 4 5 6 6 4 9 9 9 10 10 10 8 8 8 4 4 4 5 5 5 8 6 7 10 10 10 8 8 6 22 8 8 59 8 7 6 6 6 4 4 2 6 6 6 8 8 8 8 8 8 9 9 9 10 10 10 9 9 7 7 7 7 6 6 6 8 6 7 7 7 7 5 5 5 7 5 6 6 6 6 10 8 9 13 11 12 10 10 10 9 9 7 9 9 9 8 8 10 6 6 6 5 5 5 6 6 6 6 6 6 6 6 6 4 4 4 3 3 3 5 5 5 5 5 5 4 4 4 4 4 4 5 3 4 6 6 6 6 6 6 7 7 7 6 6 6 7 7 7 9 7 8 8 8 8 6 6 8 6 6 6 7 7 7 7 9 8 7 7 7 8 10 9 7 9 8 10 10 12 13 13 13 10 11 13 9 9 9 8 8 8 8 8 8 8 8 8 8 8 8 10 10 10 9 9 9 8 8 8 7 7 7 9 9 9 10 10 10 11 11 11 9 9 9 8 8 8 9 9 9 7 7 7 9 9 9 9 9 7 9 9 9 9 9 9 10 10 10 8 8 8 7 7 7 8 8 8 
7 8 10 9 9 9 6 8 7 3 5 4 5 5 5 6 6 6 7 7 7 6 6 6 6 6 6 7 7 7 6 6 6 5 5 5 7 5 6 6 6 8 7 5 8 7 7 7 10 10 10 12 12 12 9 9 9 5 5 5 4 4 4 7 7 7 9 9 9 8 8 8 9 7 8 27 7 8 6 6 8 4 4 4 7 7 7 10 10 10 12 12 14 11 11 11 9 9 7 8 8 8 7 7 7 6 6 6 8 8 6 9 9 9 8 6 7 7 7 7 8 8 8 8 8 8 10 10 10 10 10 12 7 9 8 7 9 8 7 7 9 7 7 7 6 6 6 5 5 5 6 6 6 9 8 6 5 5 5 3 3 3 4 4 4 3 1 2 3 3 3 5 3 4 5 5 5 7 5 6 7 7 7 7 7 9 5 5 5 6 6 8 8 8 8 8 8 8 8 6 7 10 8 9 8 8 8 8 6 7 7 7 7 8 8 8 9 9 7 11 11 11 12 12 12 12 12 12 9 9 9 8 8 8 9 9 9 7 7 7 7 7 7 9 9 9 9 9 9 10 10 10 8 8 8 8 8 8 12 12 12 12 12 12 11 11 11 12 12 12 10 10 10 8 8 8 8 8 8 8 8 8 8 8 8 7 7 7 9 9 9 9 7 8 8 8 8 8 8 8 
9 7 8 8 6 7 5 5 5 4 4 4 5 5 5 7 7 7 7 7 7 7 7 7 7 7 7 6 6 6 5 5 5 5 5 5 6 6 8 6 6 8 6 6 6 7 5 6 9 9 9 11 11 11 11 11 9 7 7 7 4 5 7 7 7 7 7 7 5 8 8 10 8 10 7 7 7 7 7 7 9 5 7 6 7 7 7 13 11 12 14 14 14 11 11 11 6 6 4 5 5 7 7 5 6 6 6 6 7 7 5 8 8 8 6 6 6 7 7 7 8 8 8 9 7 8 9 9 9 8 8 8 7 9 8 8 8 8 10 9 7 8 8 8 6 6 4 8 6 7 7 7 7 9 9 9 6 6 6 5 3 4 4 2 3 4 4 4 4 4 4 5 5 5 5 5 5 6 6 6 9 7 8 8 8 8 6 6 6 8 6 9 8 6 7 8 8 8 9 9 11 9 11 10 9 9 9 9 7 8 5 7 6 7 7 7 8 10 9 10 10 12 10 10 10 10 8 9 8 8 8 8 8 8 8 8 8 7 7 7 7 7 7 8 8 8 9 9 9 8 8 8 9 9 9 10 10 10 11 11 11 14 14 14 13 13 13 11 11 11 10 10 10 9 9 9 8 8 8 8 8 8 7 7 7 7 5 6 8 7 5 9 7 8 7 7 7 8 8 8 
8 8 8 5 5 5 3 4 6 7 5 6 6 6 6 7 7 7 8 8 8 7 7 7 8 8 8 7 7 7 5 5 5 5 5 5 6 6 6 7 7 7 7 5 6 6 6 6 8 8 8 9 9 9 10 10 10 9 8 6 8 6 7 6 6 6 6 4 5 6 4 7 6 6 6 9 9 9 9 7 10 7 7 7 9 9 9 12 12 12 12 10 11 7 7 7 6 6 4 7 5 6 6 6 6 6 6 6 8 6 7 8 8 10 6 6 8 8 6 7 8 8 8 10 8 9 9 11 10 8 8 8 8 8 8 8 8 8 9 9 9 8 8 8 6 6 6 4 4 4 5 5 7 9 7 8 10 10 10 5 5 5 4 4 4 4 4 4 5 5 5 5 5 5 5 5 5 9 7 8 8 8 8 8 6 7 7 7 7 6 8 7 7 7 7 8 8 8 9 9 9 11 11 11 10 10 10 9 7 8 5 5 5 7 7 7 9 11 10 8 6 7 6 6 4 6 6 6 7 7 7 7 7 7 6 6 6 7 7 7 7 7 7 8 8 8 9 9 9 10 10 10 10 10 10 9 9 9 12 12 12 14 14 14 12 12 12 10 10 10 9 9 9 8 8 8 8 8 8 10 8 9 7 9 8 6 6 6 4 4 4 6 6 6 7 7 7 9 7 8 
7 7 7 6 6 6 5 5 5 8 6 7 8 8 8 7 7 7 8 8 8 8 8 8 8 8 8 7 7 7 6 6 6 6 6 6 7 5 6 7 7 7 6 6 6 7 7 7 18 8 7 27 9 7 9 9 9 8 8 6 6 6 6 5 5 5 6 6 6 5 5 5 5 5 5 9 9 7 9 9 11 9 9 7 9 9 9 10 10 10 8 8 8 6 6 6 6 6 6 7 7 5 7 7 7 6 6 6 8 6 7 8 8 10 8 6 9 7 7 7 8 8 8 9 9 9 10 10 8 10 10 10 9 9 9 9 7 8 9 9 9 9 8 6 5 5 5 32 4 3 32 4 3 32 6 7 12 8 9 9 7 8 5 5 5 3 5 4 6 4 5 6 6 6 8 6 7 6 8 7 9 9 9 8 7 5 7 7 7 6 6 6 7 5 6 8 8 8 10 10 10 11 11 11 10 8 9 9 7 8 6 6 6 6 6 6 9 9 9 6 6 4 5 3 4 5 3 6 6 6 6 8 6 7 7 5 6 7 7 7 8 8 8 9 7 8 11 9 10 10 10 10 9 9 9 10 10 10 13 13 13 15 15 15 12 12 12 8 8 8 7 7 7 9 9 9 8 8 8 8 8 6 8 8 10 7 7 7 6 4 5 5 5 5 5 5 5 9 8 6 
33 7 8 7 7 7 6 6 6 8 8 6 8 8 8 7 7 7 7 7 7 7 7 7 7 7 7 8 8 8 8 8 8 7 7 7 7 7 7 7 7 7 7 7 7 17 7 8 44 8 10 53 9 8 28 8 9 8 8 6 6 6 6 5 5 3 6 6 6 5 5 3 5 5 5 10 9 7 8 8 10 9 7 8 9 9 9 6 6 6 5 5 5 7 7 7 8 8 8 7 7 5 7 7 7 6 6 6 8 6 7 7 7 7 7 7 7 8 8 8 8 8 8 9 9 9 10 10 10 10 10 10 8 6 7 7 7 7 8 8 8 10 9 7 32 6 7 58 4 2 59 5 3 32 4 3 11 7 6 9 9 7 6 6 6 4 4 4 6 6 6 7 5 6 7 7 7 6 6 6 7 7 7 7 7 7 6 6 6 6 6 6 6 6 6 17 7 8 29 10 12 11 9 10 9 9 9 8 8 8 8 6 7 8 8 8 8 8 10 7 7 7 6 4 7 4 4 6 8 6 7 9 7 8 8 6 7 7 5 6 9 7 8 10 8 9 12 10 11 11 9 10 10 10 10 12 12 12 14 14 14 14 14 14 11 11 11 8 8 8 7 7 7 8 8 8 7 9 8 9 9 9 8 9 11 8 6 7 5 5 7 5 3 4 6 6 4 32 8 6 
60 8 10 32 7 10 12 8 7 8 8 8 7 7 7 7 7 7 8 8 8 7 7 7 7 7 7 7 7 7 7 7 7 7 7 7 7 7 7 6 7 9 8 8 8 27 9 9 60 9 8 53 9 10 27 7 8 9 8 6 6 6 6 7 5 8 5 5 5 5 5 5 6 6 6 8 8 8 9 9 9 8 8 8 6 6 6 5 5 5 5 5 5 7 7 7 8 8 6 7 7 7 7 7 7 7 7 7 8 6 7 9 7 8 7 7 7 8 6 7 8 8 8 9 9 9 9 9 9 10 10 12 7 9 8 7 8 10 7 7 7 14 8 8 61 7 7 30 4 5 32 4 3 4 4 2 8 7 5 9 9 7 6 6 6 6 6 6 7 7 7 8 6 7 6 6 6 6 6 6 6 4 5 7 6 4 6 6 6 5 5 5 6 6 4 17 9 7 26 12 9 11 11 11 10 10 10 9 7 8 9 7 10 9 8 6 7 5 8 6 4 5 5 5 5 4 4 2 6 6 6 9 9 9 8 8 8 7 7 7 8 8 8 11 11 11 12 12 12 11 11 11 10 10 10 13 13 13 14 14 14 12 12 12 10 10 10 8 8 8 7 7 7 8 8 8 8 8 8 9 9 9 9 7 8 7 9 8 7 7 7 6 6 6 5 5 5 57 6 5 
60 10 9 39 9 9 9 7 8 8 8 8 7 7 5 8 8 8 9 9 9 8 8 8 8 8 8 6 6 6 6 4 5 6 4 5 7 5 6 9 9 7 9 7 8 20 8 8 44 8 10 34 8 9 7 7 5 8 6 7 6 6 6 7 7 7 5 5 5 4 4 4 6 6 6 8 8 8 6 6 6 7 7 7 5 5 5 5 5 5 6 6 6 7 7 7 8 8 8 8 8 8 7 7 7 8 8 8 7 7 7 7 7 7 8 6 7 7 7 7 8 8 8 9 9 9 10 10 10 9 7 8 7 7 7 7 7 7 9 7 8 11 7 6 40 6 5 4 4 4 4 4 4 5 3 4 6 6 6 8 8 8 7 7 7 8 6 7 7 7 7 7 5 6 5 5 7 5 3 4 5 3 4 6 4 5 5 5 5 6 6 6 6 6 6 8 8 8 10 10 10 10 10 10 11 11 11 9 9 9 10 10 10 10 8 9 6 6 6 5 3 4 6 6 6 5 5 5 8 8 8 11 9 10 8 8 8 7 7 7 8 8 8 10 10 10 11 11 11 11 11 11 10 10 10 11 11 11 11 11 11 10 10 10 9 9 9 9 9 9 9 9 9 9 9 9 9 9 9 8 8 8 8 6 7 8 6 7 9 9 9 6 6 8 6 6 6 38 7 5 
41 10 8 10 8 11 7 9 8 7 7 7 7 7 7 8 8 6 8 8 8 8 8 10 7 7 7 7 5 6 5 5 3 6 4 7 6 6 6 7 7 7 8 8 8 10 10 10 9 9 7 8 8 6 6 6 6 6 6 6 6 6 6 7 7 7 7 7 7 6 6 6 8 8 8 6 6 6 7 7 7 6 6 6 6 6 6 6 6 6 7 7 7 8 8 8 8 8 8 9 9 9 8 8 8 8 8 8 7 7 7 9 7 8 8 8 8 8 8 8 8 8 8 9 9 9 9 9 9 9 9 9 5 7 6 8 8 8 8 8 8 7 7 7 6 8 7 4 4 4 5 5 5 5 5 3 6 6 6 8 6 9 8 8 8 9 9 9 7 7 7 6 4 5 5 5 5 4 4 4 3 5 4 6 6 6 6 6 6 7 7 7 8 8 8 8 8 8 10 8 9 9 7 8 11 9 10 9 9 9 9 9 9 7 7 7 6 6 6 7 5 6 7 7 7 7 7 7 8 8 8 9 9 9 8 8 8 9 9 9 9 9 9 11 11 11 13 11 12 11 11 11 11 11 11 10 10 10 9 9 9 9 9 9 10 10 10 8 8 8 9 9 9 10 10 10 8 8 6 8 8 8 8 8 8 8 8 8 8 10 9 9 7 8 6 6 6 6 8 7 
9 9 9 9 9 9 8 8 8 8 8 8 10 8 9 8 6 7 7 7 5 7 7 7 8 8 6 7 7 7 6 6 6 6 6 6 7 7 7 7 7 7 8 8 6 8 8 6 8 8 8 8 8 8 7 9 8 8 6 7 7 7 7 7 7 7 6 6 6 8 8 8 8 8 8 7 7 7 7 7 7 7 7 7 8 8 8 8 8 8 8 8 8 8 8 8 8 8 8 9 9 9 9 9 9 9 9 9 7 7 7 9 9 9 9 9 9 7 9 8 8 8 8 7 7 7 8 8 8 8 8 8 10 8 9 8 8 10 9 7 8 8 8 6 7 7 7 6 4 5 6 6 8 7 7 7 7 7 7 6 6 6 9 9 9 10 10 10 7 7 7 5 5 5 5 5 5 4 4 4 5 3 4 5 5 5 6 6 6 7 7 7 8 8 8 9 9 9 9 9 9 10 8 9 9 9 9 8 8 8 8 8 8 7 7 7 7 7 7 6 6 6 8 8 8 9 9 9 9 9 9 9 9 9 8 8 8 8 8 8 9 9 9 10 10 10 11 9 10 12 12 12 12 12 12 11 11 11 8 8 8 9 9 9 8 8 8 9 9 9 9 9 9 9 9 9 9 9 11 7 9 8 7 7 7 8 8 8 8 8 10 9 9 9 9 11 10 11 9 10 
9 7 8 8 8 8 7 7 7 6 6 6 10 8 9 9 9 9 6 8 7 8 6 7 8 8 8 8 6 9 7 7 7 7 7 7 8 6 7 6 6 6 6 6 6 7 7 7 10 10 10 8 8 8 9 7 8 6 7 9 7 7 7 6 6 6 7 7 7 7 7 7 9 9 9 7 7 7 8 8 8 7 7 7 8 8 8 8 8 8 8 8 8 7 7 7 7 7 7 9 9 9 12 12 12 11 11 11 10 10 10 9 9 9 9 7 8 8 8 8 8 8 8 8 6 7 8 8 8 9 7 8 9 7 8 9 9 9 8 8 8 8 8 8 8 8 8 6 6 6 5 5 5 7 7 7 7 7 7 7 7 7 8 8 8 8 8 8 7 7 7 6 6 6 5 5 3 4 4 4 5 5 5 4 4 4 7 7 7 8 8 8 8 8 8 8 8 8 9 9 9 8 10 9 9 7 8 8 8 8 7 7 7 8 8 8 10 8 9 9 7 8 8 8 8 9 9 9 10 10 10 11 9 10 8 8 8 8 8 8 8 8 8 7 7 7 9 9 9 11 11 11 11 11 11 11 11 11 9 9 9 9 9 9 9 9 9 10 10 10 10 10 10 10 10 10 10 10 10 9 7 8 9 9 9 7 7 7 9 9 9 10 10 10 11 11 11 11 11 11 
8 8 8 8 8 8 5 5 7 7 5 6 10 10 10 10 10 10 9 9 9 9 9 11 9 9 9 8 8 6 7 7 7 7 7 7 7 7 7 6 6 4 4 6 5 5 7 6 8 6 7 8 8 8 8 8 8 8 8 8 8 8 8 7 7 7 5 5 5 6 6 6 7 7 7 8 8 8 8 8 8 7 7 7 8 8 8 8 8 8 7 7 7 6 6 6 7 7 7 10 10 10 12 12 12 11 11 11 10 10 10 9 9 9 8 6 7 8 8 8 6 6 6 9 7 8 9 7 8 9 9 9 9 9 9 10 10 10 9 7 8 9 9 9 7 7 9 5 5 7 7 6 4 7 7 7 6 6 6 6 6 4 6 6 6 6 6 6 5 5 5 7 7 7 6 6 6 5 5 5 4 4 4 6 6 6 5 5 5 8 8 8 7 7 7 7 7 7 9 9 9 9 7 8 8 8 8 7 7 7 8 8 8 8 8 8 8 8 8 8 8 8 9 9 9 8 8 8 10 10 10 9 7 8 10 10 10 9 9 9 6 6 6 7 7 7 8 8 8 9 9 9 10 10 10 9 9 9 9 9 9 8 8 8 9 9 9 9 9 9 9 9 9 9 9 9 11 11 11 10 10 12 8 8 8 8 8 6 7 9 8 8 10 9 9 9 9 9 9 9 
9 7 8 8 8 8 8 8 8 10 10 8 13 13 13 12 12 12 10 10 10 9 9 9 9 7 8 7 7 7 7 7 5 6 6 6 5 5 5 4 6 5 6 4 5 7 5 6 8 8 8 8 6 7 8 8 8 8 8 8 8 8 8 8 8 8 5 5 5 7 7 7 8 8 8 9 9 9 9 9 9 8 8 8 8 8 8 9 9 9 8 8 8 6 6 6 6 6 6 7 7 7 9 9 9 9 9 9 9 9 9 8 8 8 6 8 7 7 7 7 7 7 7 9 9 9 9 9 9 8 10 9 10 10 10 10 10 10 9 9 9 6 6 6 7 6 4 6 6 6 5 5 5 5 5 5 5 5 5 5 5 5 6 6 6 5 5 5 5 5 5 7 7 7 8 8 8 7 7 7 7 7 7 7 7 7 7 7 7 7 7 7 8 8 8 8 8 8 8 8 8 8 8 8 9 7 8 7 7 7 7 7 7 8 8 8 8 8 8 10 8 9 8 8 8 9 9 9 9 9 9 8 8 8 10 10 10 9 9 9 8 8 8 8 8 8 9 7 8 8 8 8 9 9 9 9 9 9 8 8 8 8 8 8 9 9 9 10 10 10 10 10 10 9 9 9 10 10 10 9 7 8 7 7 7 8 6 7 8 8 8 7 7 7 11 7 8 8 8 8 
8 8 6 13 13 13 14 14 14 14 14 16 14 14 14 12 12 14 10 8 9 7 7 7 11 7 6 11 7 6 6 6 6 5 5 5 5 5 5 6 6 6 7 7 7 7 7 7 7 7 7 9 7 8 8 8 8 8 8 8 8 8 8 9 9 9 8 8 8 8 8 8 9 9 9 9 9 9 11 11 11 11 11 11 11 11 11 9 9 9 9 9 9 7 7 7 8 8 8 7 7 7 9 9 9 7 7 7 7 7 7 8 6 7 8 8 8 8 8 8 12 8 9 9 9 9 11 11 11 11 11 11 10 10 10 11 10 8 10 8 9 7 5 6 5 5 3 6 6 6 6 4 5 6 4 5 5 5 5 6 4 5 6 6 6 5 5 5 6 6 6 8 6 7 9 9 11 8 8 8 9 7 8 7 5 6 7 7 7 9 9 9 8 8 8 8 8 8 9 9 9 8 8 8 9 9 9 7 7 7 7 7 7 8 8 8 8 8 8 8 8 8 8 8 8 9 9 9 9 9 9 8 8 8 9 9 9 8 8 8 9 9 9 9 9 9 9 7 8 9 9 9 8 8 8 8 8 8 7 7 7 7 7 7 9 9 9 9 9 9 9 9 9 9 9 9 9 7 10 8 8 8 8 8 8 9 7 8 8 6 7 6 6 6 7 7 7 10 6 7 
8 8 8 12 10 11 14 14 16 14 14 14 12 12 12 10 10 10 8 8 8 15 7 5 45 5 5 25 5 4 5 3 4 4 4 6 6 6 6 8 6 7 9 7 8 9 9 9 9 7 8 10 8 11 9 7 10 9 9 9 9 9 9 10 10 10 10 10 10 10 10 10 9 9 9 9 9 9 11 11 11 12 12 12 11 11 11 9 9 9 9 9 9 7 7 7 6 6 6 6 6 6 8 8 8 7 7 7 6 6 6 7 5 6 10 8 9 9 7 8 8 8 8 14 10 11 15 11 12 11 11 11 10 10 10 9 9 7 9 9 9 7 7 7 6 6 8 7 7 9 6 6 6 4 4 4 5 5 5 5 5 7 5 5 5 7 5 6 6 6 6 8 6 7 7 7 7 8 6 7 8 8 8 7 7 7 9 9 9 8 8 8 6 6 6 7 7 7 10 8 9 9 7 8 7 7 7 8 8 8 8 8 8 10 8 9 8 8 8 8 6 7 7 7 7 9 9 9 9 9 9 10 8 9 8 8 8 8 8 8 9 9 9 8 8 8 9 9 9 8 8 8 7 7 7 8 8 8 7 7 7 8 8 8 8 8 8 8 8 8 8 8 8 7 7 7 7 7 7 6 6 8 7 7 7 7 7 5 7 7 7 6 6 6 6 6 6 8 6 7 
8 8 8 10 10 10 11 11 11 10 10 10 9 9 7 9 7 8 7 7 7 40 6 5 55 7 7 22 4 4 5 3 4 4 2 3 4 4 4 9 7 8 8 8 8 8 8 8 8 8 8 9 9 9 9 9 9 11 9 10 9 9 9 11 11 11 10 10 10 10 10 10 10 10 10 9 9 9 8 8 8 8 8 8 8 8 8 8 6 7 6 6 6 6 6 6 6 6 6 7 7 7 7 7 7 6 6 6 6 4 5 5 5 5 7 7 7 8 8 6 9 9 7 26 10 10 46 10 10 11 11 11 8 8 8 7 7 7 8 8 8 6 6 6 5 5 5 6 6 6 6 6 6 5 5 5 5 5 5 5 5 5 5 5 5 5 5 5 5 5 5 5 5 5 7 7 7 8 8 8 7 7 7 7 7 7 7 7 7 6 6 6 6 6 6 7 7 7 9 9 9 9 9 9 9 7 8 10 10 10 9 7 8 8 8 8 7 7 7 8 8 8 7 7 7 8 8 8 8 8 8 9 7 8 8 8 8 8 8 8 7 7 7 7 7 7 8 8 8 8 8 8 8 8 8 9 9 9 10 10 10 9 9 9 8 8 8 8 8 8 8 8 8 7 7 7 7 7 7 5 5 5 5 5 5 7 5 6 6 6 6 7 7 7 7 7 7 7 7 7 
7 7 7 8 8 8 8 8 8 9 9 9 9 9 7 8 8 6 6 8 7 6 6 6 6 4 5 4 4 4 4 2 3 4 4 4 6 5 1 8 8 8 7 7 7 8 8 6 7 7 7 7 7 7 8 8 8 10 10 10 11 11 11 9 9 9 8 8 8 9 9 9 9 9 9 8 8 8 6 6 6 5 5 5 6 6 6 5 5 5 5 5 5 6 6 6 6 6 6 8 8 8 7 5 6 6 6 6 6 6 8 6 6 6 7 5 8 9 9 9 10 8 9 12 10 13 10 10 10 9 11 10 7 7 7 5 5 5 8 6 7 6 4 5 6 4 5 7 5 6 7 5 6 6 4 5 5 5 5 4 4 4 4 4 4 6 6 6 5 5 5 5 5 5 6 6 6 8 6 7 7 7 7 8 6 7 8 6 7 6 6 6 5 5 5 7 7 7 10 10 10 8 8 8 8 8 8 9 9 9 9 9 9 8 8 8 7 7 7 8 8 8 8 8 8 8 6 7 8 8 8 9 7 8 7 7 7 7 7 7 7 7 7 7 7 7 8 8 8 7 7 7 8 8 8 9 9 9 9 9 9 9 9 9 8 8 8 8 8 8 8 8 8 9 9 9 8 8 8 7 7 7 5 5 5 5 5 5 6 6 6 6 6 6 7 5 6 5 5 5 
5 5 5 6 6 6 7 7 7 10 10 10 10 10 10 10 8 9 8 7 5 7 5 6 5 5 5 4 4 4 3 3 3 4 4 4 4 4 4 7 7 7 7 7 7 8 8 10 7 7 9 7 7 7 6 6 6 9 9 9 10 10 10 7 7 7 7 7 7 9 9 9 8 8 8 8 8 8 5 5 5 4 4 4 4 4 4 4 4 4 3 3 3 6 6 6 8 8 8 8 8 8 7 5 6 6 6 6 6 6 6 7 7 7 7 7 7 9 9 9 11 9 10 11 11 11 10 10 10 9 7 8 7 7 7 5 5 5 7 5 6 5 7 6 5 5 5 7 7 7 8 8 8 7 7 7 5 5 5 3 3 3 5 5 5 6 6 6 7 7 7 5 5 5 5 5 5 6 6 6 6 6 6 5 5 5 6 6 6 7 7 7 5 5 5 7 7 7 9 9 9 9 9 9 9 9 9 7 9 8 7 7 7 6 6 6 8 8 8 8 6 7 7 7 7 8 6 7 6 6 6 7 7 7 8 8 8 7 7 7 4 4 4 6 6 6 8 8 8 8 8 8 8 8 8 8 8 8 9 9 9 9 9 9 8 8 8 9 9 9 9 9 9 9 9 9 9 9 9 7 7 7 6 6 6 5 5 5 5 5 5 5 5 5 5 5 5 5 5 5 
5 5 5 7 7 7 8 8 8 10 10 10 12 11 9 10 8 9 9 7 8 7 5 6 7 5 6 3 5 2 3 3 3 3 3 3 5 5 5 7 7 7 9 7 8 9 9 9 8 8 6 8 8 8 7 7 7 10 8 9 9 9 9 7 7 7 7 7 7 6 6 6 7 7 7 8 8 8 7 7 7 5 5 5 5 5 5 4 4 4 6 4 5 8 8 8 9 9 9 9 9 9 7 7 7 7 7 7 8 8 8 8 8 8 9 9 9 11 9 10 10 10 10 9 9 7 7 9 8 7 7 7 7 7 7 6 6 6 7 7 7 6 6 6 8 8 8 9 9 9 8 8 8 6 6 6 4 4 4 3 3 3 5 5 5 6 6 6 8 6 7 7 5 6 6 6 6 6 6 6 6 4 5 5 5 5 5 5 5 6 6 6 6 6 6 6 6 6 8 8 8 7 7 7 7 7 7 6 6 6 4 4 4 6 4 5 8 8 8 7 7 7 6 6 6 8 8 8 8 8 8 10 8 9 8 8 8 7 7 7 6 6 6 7 7 7 8 8 8 8 8 8 6 6 6 7 7 7 8 8 8 9 9 9 8 8 8 10 10 10 11 11 11 10 10 10 9 9 9 6 6 6 7 7 7 7 7 7 7 5 6 5 5 5 5 5 5 6 6 6 
5 5 5 7 7 7 8 8 8 12 12 12 9 9 9 9 9 9 6 8 7 5 5 7 5 5 5 4 4 4 4 4 4 5 3 4 4 6 5 6 8 7 8 8 8 8 8 8 9 7 8 8 8 8 8 8 8 8 8 8 7 7 7 7 7 7 7 7 7 7 7 7 6 6 6 7 7 7 7 7 7 6 6 6 5 5 5 7 5 6 7 7 7 9 9 9 7 7 7 8 8 8 7 7 7 9 9 9 9 7 8 9 9 7 10 10 10 10 10 10 9 9 9 8 8 8 10 8 11 8 8 8 8 6 7 8 6 7 7 7 7 9 9 9 8 8 8 8 8 8 7 5 6 6 4 5 4 4 4 4 4 4 5 5 5 6 6 6 7 7 7 6 6 6 5 5 5 6 4 5 5 5 5 7 5 6 7 5 6 6 6 6 5 5 5 5 5 5 6 6 6 6 6 6 6 4 5 5 5 5 4 4 4 4 4 4 7 7 7 5 5 5 7 7 7 8 8 8 9 9 9 8 8 8 8 8 8 8 8 8 5 5 5 5 5 5 7 7 7 6 6 6 5 5 5 7 7 7 7 7 7 9 9 9 9 9 9 10 10 10 11 11 11 10 10 10 9 9 9 8 6 7 7 7 7 7 7 7 6 6 6 4 4 4 5 5 5 6 6 6 
5 5 5 7 7 7 8 8 8 10 10 10 10 10 10 7 9 8 5 7 6 6 6 6 6 6 6 6 6 6 6 4 5 6 6 6 6 6 6 8 8 8 9 9 9 8 8 8 8 8 6 7 7 7 8 8 8 8 8 8 7 7 7 8 8 8 8 8 8 8 8 8 7 7 7 8 8 8 8 8 8 5 5 5 5 5 5 7 7 7 8 8 8 9 9 9 7 7 7 8 6 7 8 8 8 8 8 8 8 8 8 8 8 8 8 8 8 9 7 8 8 8 8 10 8 9 8 8 8 9 7 10 9 9 9 10 8 9 11 11 11 10 8 9 8 8 8 7 7 7 5 5 5 4 6 5 6 6 6 5 5 5 5 5 5 6 6 6 5 5 5 6 6 6 6 6 6 7 7 7 5 5 5 5 5 5 5 5 5 5 5 5 4 4 4 5 5 5 4 4 4 4 4 4 4 4 4 5 5 5 5 5 5 6 6 6 10 6 7 5 5 5 6 6 6 6 8 7 8 8 8 8 8 8 8 8 8 7 7 7 4 4 4 6 6 6 8 6 7 6 6 6 6 6 6 8 8 8 10 10 10 11 11 11 10 10 10 10 10 10 10 10 10 9 9 9 8 8 8 7 7 7 8 8 8 8 8 8 7 7 7 5 5 5 5 5 5 5 5 5 
7 7 7 8 8 8 7 7 7 10 10 10 9 7 8 7 5 6 5 5 5 7 5 6 5 5 5 5 7 6 7 7 5 6 6 6 6 6 6 8 8 8 9 8 6 7 7 7 8 8 6 8 6 7 7 7 7 7 7 7 8 8 8 8 8 8 7 7 7 8 8 8 7 7 7 8 8 8 7 7 7 6 6 6 6 6 6 8 8 8 9 9 9 8 8 8 8 8 8 8 6 7 7 7 7 6 6 6 7 7 7 7 7 7 6 6 6 8 6 7 7 9 8 8 6 7 7 7 7 7 7 9 9 9 9 12 12 12 12 12 12 10 10 10 9 9 9 6 6 6 4 4 4 6 6 6 7 7 7 6 6 6 6 6 6 6 6 6 7 5 6 6 4 5 7 7 7 7 7 7 6 4 5 6 6 6 6 6 6 6 4 5 5 5 5 5 5 5 4 4 4 4 4 4 4 4 4 6 6 6 4 4 4 6 6 6 6 6 6 6 6 6 6 6 6 8 6 7 6 6 6 8 8 8 6 6 6 5 5 5 5 5 5 7 7 7 8 8 8 7 7 7 6 6 6 8 8 8 11 11 11 11 11 11 10 10 10 9 9 9 9 9 9 8 8 8 8 8 8 7 7 7 8 8 8 10 8 9 7 7 7 6 6 6 6 6 6 6 6 6 
6 6 6 8 8 8 8 8 8 10 10 10 9 9 9 6 6 8 5 5 5 6 6 6 6 6 6 6 6 4 7 7 5 8 8 6 10 9 7 9 7 8 8 8 8 24 8 8 52 8 5 41 7 8 6 8 7 8 8 10 8 8 8 8 8 8 7 7 7 7 7 7 8 8 8 7 7 7 6 6 6 6 6 6 7 7 7 8 8 8 8 6 7 6 6 6 6 6 6 6 6 6 6 6 6 5 5 5 5 5 5 6 6 8 8 6 7 8 6 7 6 6 6 6 6 6 6 6 6 7 7 9 11 9 10 11 11 11 10 8 9 8 8 8 9 9 9 6 4 5 6 6 6 5 5 5 5 5 5 6 6 6 6 6 6 6 6 6 6 6 6 6 6 6 7 7 7 7 7 7 6 6 6 4 4 4 5 5 5 6 6 6 4 4 4 5 5 5 4 4 4 4 4 4 5 5 5 5 5 5 5 5 5 5 3 4 7 7 7 5 5 5 7 7 7 6 6 6 5 5 5 5 5 5 4 4 4 4 4 4 4 4 4 6 6 6 8 6 7 7 7 7 8 8 8 10 10 10 10 10 10 11 11 11 10 10 10 7 7 7 8 8 8 8 8 8 8 8 8 7 7 7 7 7 7 8 8 8 5 5 5 4 4 4 7 5 6 7 7 7 
5 3 4 8 6 7 8 8 8 11 10 8 11 9 12 9 9 9 7 7 7 7 7 7 8 6 7 7 7 7 6 8 7 7 8 10 10 8 9 8 8 8 8 8 8 14 9 6 33 7 6 47 7 8 6 6 8 8 6 7 8 8 10 8 8 6 6 6 6 5 5 3 7 7 7 6 6 6 8 6 7 7 7 9 7 7 7 8 8 8 8 8 8 6 6 6 4 4 4 5 5 5 7 7 7 5 5 5 5 5 5 5 5 5 8 6 7 6 6 6 5 5 5 5 5 5 6 6 6 10 10 10 12 12 12 10 10 10 8 8 8 8 8 8 8 8 8 6 6 6 5 5 5 5 5 5 7 7 7 6 6 6 7 5 6 6 6 6 6 6 6 7 5 6 8 8 8 7 7 7 6 6 6 6 6 6 5 5 5 6 6 6 5 5 5 7 5 6 6 6 6 6 4 5 6 6 6 4 4 4 5 5 5 5 5 5 5 5 5 5 5 5 6 6 6 5 5 5 6 6 6 4 4 4 4 4 4 5 3 4 6 4 5 6 6 6 8 8 8 8 8 8 8 8 8 10 10 10 11 11 11 10 10 10 8 8 8 7 7 7 6 6 6 6 6 6 9 7 8 9 7 8 7 7 7 6 6 6 5 5 5 4 4 4 6 6 6 7 7 7 
5 5 5 6 6 6 6 6 6 8 8 8 11 9 10 13 11 12 10 10 10 8 8 8 8 6 7 7 7 9 7 7 9 7 7 7 8 8 8 9 9 7 7 7 9 9 9 9 17 8 9 18 6 8 7 9 6 8 7 5 7 7 7 5 7 6 7 7 9 6 6 6 8 6 9 8 6 7 7 7 7 8 8 8 7 7 7 8 6 7 8 6 7 7 7 7 6 6 6 7 5 6 7 5 6 5 5 5 6 6 6 6 8 7 7 7 7 6 6 6 5 5 5 4 4 4 7 5 6 9 9 9 12 12 12 10 10 10 6 6 6 7 7 7 9 9 9 7 7 7 6 6 6 6 6 6 7 7 7 7 7 7 7 7 7 5 5 5 4 4 4 6 4 5 6 6 6 5 5 5 8 8 8 7 7 7 6 6 6 4 4 4 4 4 4 5 5 5 6 6 6 5 5 5 5 5 5 4 4 4 5 5 5 5 5 5 6 4 5 6 6 6 6 6 6 5 5 5 6 6 6 5 5 5 5 5 5 7 5 6 6 6 6 7 7 7 9 9 9 9 9 9 8 8 8 9 9 9 10 10 10 9 9 9 8 8 8 7 7 7 6 6 6 6 6 6 8 8 8 11 11 11 9 9 9 7 7 7 7 7 7 6 6 6 6 6 6 6 6 6 
6 6 6 6 6 6 9 7 8 6 6 8 10 9 7 12 12 10 11 11 11 7 7 7 7 7 7 6 6 6 7 7 7 8 8 8 8 8 10 9 7 8 7 7 7 8 8 6 9 9 7 8 6 7 7 7 7 7 7 7 6 6 4 5 5 5 7 5 6 7 7 7 7 7 7 8 6 9 9 7 8 8 8 8 7 7 7 6 6 6 7 7 7 8 8 8 8 8 8 7 7 7 6 6 6 6 6 6 7 5 6 7 7 7 6 8 7 5 5 5 6 4 5 4 4 4 6 6 6 8 8 8 8 8 8 8 8 8 8 8 8 7 7 7 8 8 8 8 8 8 6 6 6 6 6 6 8 8 8 10 10 10 8 8 8 6 6 6 5 5 5 4 4 4 4 4 4 4 4 4 7 7 7 7 7 7 6 6 6 5 5 5 6 4 5 5 5 5 5 3 4 4 4 4 4 4 4 5 5 5 5 3 4 4 4 4 7 5 6 6 6 6 6 6 6 6 6 6 5 5 5 5 5 5 6 6 6 6 6 6 7 5 6 7 7 7 9 9 9 9 9 9 9 9 9 8 8 8 9 9 9 8 8 8 7 7 7 6 6 6 6 6 6 6 6 6 7 7 7 11 11 11 11 11 11 8 8 8 7 7 7 8 6 7 7 5 6 7 5 6 
7 5 8 7 7 7 8 6 7 7 9 8 8 8 8 11 9 10 9 7 8 7 7 7 8 8 8 8 8 8 8 8 8 7 7 7 7 7 7 7 7 5 7 6 4 7 7 7 9 7 8 8 8 8 5 5 3 6 6 6 5 5 7 5 5 5 7 7 7 8 8 8 7 7 7 8 6 7 7 9 8 10 9 7 8 8 8 6 6 6 6 6 6 6 6 6 6 6 6 6 6 6 6 6 6 7 7 7 6 6 6 7 5 6 6 6 6 4 4 4 4 4 4 5 5 5 7 5 6 7 7 7 6 6 6 7 7 7 7 7 7 8 6 7 7 7 7 11 7 8 7 7 7 9 7 8 8 8 8 9 9 9 7 7 7 6 6 6 7 5 6 4 4 4 4 4 4 6 6 6 6 6 6 6 6 6 6 6 6 5 5 5 3 3 3 5 5 5 5 5 5 3 3 3 5 5 5 5 5 5 5 5 5 4 4 4 5 5 5 7 7 7 7 7 7 7 7 7 6 6 6 6 4 5 5 5 5 5 5 5 6 6 6 7 7 7 9 9 9 10 8 9 8 8 8 9 9 9 8 8 8 8 8 8 6 6 6 6 6 6 6 6 6 6 6 6 7 7 7 10 10 10 11 11 11 9 9 9 6 6 6 5 5 5 6 6 6 7 5 6 
7 7 7 8 8 8 9 7 8 8 6 7 6 6 6 7 5 8 6 6 6 7 7 7 8 6 7 9 7 8 8 8 10 7 7 5 6 6 4 7 7 7 5 7 6 7 5 6 7 9 8 8 8 8 7 7 7 5 5 5 5 5 5 5 5 5 8 8 8 9 7 8 8 8 10 8 8 8 9 7 10 9 9 9 8 6 7 7 7 7 6 6 6 8 6 7 8 6 7 7 7 7 7 7 7 8 6 7 6 6 6 6 6 6 6 4 5 3 3 3 5 5 5 5 5 5 6 6 6 7 5 6 8 6 7 10 6 7 8 8 8 8 6 7 7 7 7 9 9 9 9 9 9 9 9 9 9 9 9 7 7 7 7 7 7 7 7 7 6 6 6 6 4 5 6 6 6 4 4 4 7 7 7 6 6 6 5 5 5 4 4 4 3 3 3 4 4 4 5 5 5 5 5 5 6 4 5 5 5 5 6 4 5 5 5 5 5 3 4 6 6 6 9 7 8 7 7 7 8 6 7 6 6 6 6 6 6 6 6 6 7 7 7 7 7 7 9 7 8 8 8 8 8 8 8 9 9 9 9 9 9 8 8 8 8 8 8 7 7 7 7 7 7 5 5 5 8 6 7 7 7 7 8 8 8 8 8 8 7 7 7 7 7 7 6 6 6 5 5 5 
7 7 7 7 7 7 7 7 7 7 7 7 8 6 7 6 6 6 7 5 8 8 8 8 7 7 5 7 7 7 7 7 7 6 6 4 7 7 5 7 7 7 7 7 7 7 7 9 9 8 6 9 9 9 8 6 7 6 6 6 7 7 7 9 9 9 7 7 7 11 9 10 9 9 11 9 7 10 10 8 9 9 9 9 7 7 7 6 6 6 6 6 6 7 7 7 8 8 8 8 8 8 8 8 8 7 7 7 7 7 7 8 6 7 5 7 6 5 5 5 6 6 6 5 5 5 6 6 6 6 6 6 7 7 7 7 7 7 7 7 7 7 7 7 6 6 6 8 8 8 11 11 11 9 9 9 9 9 9 8 8 8 7 7 7 6 6 6 6 6 6 6 6 6 7 7 7 7 7 7 7 7 7 7 5 6 5 5 5 5 3 4 4 4 4 4 4 4 5 5 5 5 5 5 5 5 5 5 5 5 5 5 5 5 5 5 5 5 5 6 6 6 7 7 7 8 8 8 7 7 7 8 6 7 8 8 8 8 8 8 7 7 7 7 7 7 8 8 8 10 8 9 9 9 9 9 9 9 9 9 9 9 9 9 9 9 9 9 9 9 7 7 7 6 6 6 7 5 6 7 5 6 7 5 6 6 6 6 7 7 7 8 8 8 7 7 7 6 6 6 
5 5 5 4 4 2 8 6 7 10 9 7 7 7 7 7 5 6 9 7 10 7 7 7 7 7 7 7 7 9 6 6 6 7 5 6 7 7 7 7 7 7 7 7 7 9 8 6 10 9 7 9 9 11 7 7 5 8 6 7 8 6 7 9 7 8 8 8 8 9 9 9 10 10 10 9 9 9 9 8 6 9 7 8 7 7 7 6 6 6 6 6 6 7 7 7 9 9 9 10 10 10 10 10 10 9 9 9 8 8 8 6 6 6 7 7 7 7 5 6 5 5 5 5 5 5 5 5 5 5 5 5 8 8 8 8 8 8 8 8 8 8 8 8 8 8 8 8 8 8 9 9 9 9 9 9 9 9 9 8 8 8 8 8 8 6 6 6 6 4 5 6 6 6 8 6 7 7 9 8 7 7 7 6 6 6 5 5 5 4 4 4 4 4 4 4 4 4 5 5 5 5 5 5 4 4 4 5 5 5 5 5 5 5 5 5 5 5 5 6 6 6 7 7 7 7 7 7 6 6 6 6 6 6 7 7 7 8 8 8 8 8 8 7 7 7 8 6 7 9 9 9 9 9 9 9 9 9 9 9 9 9 9 9 9 9 9 10 10 10 8 8 8 7 7 7 6 6 6 7 7 7 6 6 6 7 7 7 8 8 8 8 8 8 8 8 8 5 5 5 
4 4 4 2 2 2 4 4 4 8 8 6 7 7 5 7 7 7 26 6 7 31 5 4 18 6 6 9 9 9 7 7 7 5 7 6 6 6 6 7 7 7 9 7 8 9 7 8 9 9 9 9 9 7 8 8 6 7 7 7 8 8 10 8 6 7 8 8 8 9 9 9 10 8 9 35 9 10 9 9 7 8 8 8 6 6 6 5 5 5 6 6 6 7 7 7 9 9 9 11 11 11 11 11 11 10 10 10 7 7 7 5 5 5 5 5 5 5 5 5 5 5 5 6 4 5 4 4 4 5 5 5 7 7 7 7 7 7 8 8 8 8 8 8 7 7 7 8 8 8 8 8 8 8 8 8 8 8 8 9 7 8 8 8 8 7 5 6 6 6 6 7 7 7 9 5 6 7 7 7 7 5 6 6 6 6 6 4 5 4 4 4 3 3 3 5 5 5 5 5 5 4 4 4 5 5 5 4 4 4 4 4 4 5 5 5 6 4 5 6 6 6 7 7 7 7 7 7 7 7 7 7 7 7 8 8 8 7 7 7 7 7 7 5 5 5 7 7 7 9 9 9 8 8 8 8 8 8 8 8 8 9 9 9 10 10 10 9 9 9 8 8 8 7 7 7 7 7 7 6 6 6 6 6 6 7 7 7 6 6 6 7 7 7 10 8 9 7 5 6 
1 1 1 1 1 3 4 4 4 7 7 5 7 7 7 8 8 8 27 6 5 31 5 4 18 8 7 10 8 9 9 9 7 7 7 7 7 7 7 8 8 8 8 8 8 8 8 8 9 9 9 10 10 10 10 10 10 8 8 8 7 7 7 7 7 7 9 7 8 8 8 8 35 9 8 62 8 8 8 10 9 9 9 9 6 6 6 5 5 5 6 6 6 9 9 9 10 10 10 12 12 12 12 12 14 10 10 10 7 7 7 5 5 5 4 4 4 5 5 5 5 5 5 4 4 4 4 4 4 5 5 5 7 5 6 8 8 8 8 8 8 8 8 8 9 7 8 7 7 7 7 7 7 8 8 8 8 8 8 7 7 7 7 7 7 7 7 7 7 7 7 7 7 7 7 7 7 8 8 8 6 6 6 5 5 5 4 4 4 4 4 4 5 5 5 5 5 5 6 4 5 5 5 5 4 4 4 4 4 4 4 4 4 5 5 5 6 6 6 6 6 6 6 6 6 7 7 7 8 6 7 8 6 7 8 8 8 7 7 7 7 7 7 5 5 5 6 4 5 8 6 7 7 7 7 8 8 8 8 8 8 9 9 9 9 9 9 7 7 7 7 7 7 7 7 7 7 7 7 7 7 7 7 7 7 7 7 7 6 6 6 7 7 7 8 8 8 7 7 7 
2 2 2 2 2 2 4 4 4 7 7 7 8 8 10 8 8 8 7 7 7 6 6 6 6 8 7 11 10 8 11 9 10 7 7 9 7 7 7 9 7 8 9 9 9 8 8 8 9 9 9 10 10 10 8 8 8 6 6 6 6 6 6 8 8 8 8 8 8 8 8 8 41 9 10 41 10 8 9 9 9 9 9 9 7 6 4 6 4 5 7 5 6 8 8 6 10 10 8 11 9 10 13 11 12 8 10 9 6 6 6 5 5 5 5 5 5 5 5 5 5 5 5 5 5 5 5 5 5 5 5 5 5 5 5 6 6 6 7 7 7 7 5 6 7 7 7 7 7 7 7 7 7 8 6 7 8 8 8 7 7 7 7 7 7 7 7 7 7 7 7 8 8 8 7 7 7 8 8 8 7 7 7 7 5 6 5 5 5 6 6 6 6 6 6 7 7 7 6 6 6 5 5 5 4 4 4 4 4 4 3 3 3 5 5 5 7 7 7 6 6 6 7 7 7 7 7 7 9 7 8 7 7 7 6 8 7 8 6 7 7 5 6 5 5 5 4 4 4 5 5 5 6 6 6 8 8 8 9 9 9 10 10 10 9 9 9 8 6 7 7 5 6 7 7 7 8 8 8 7 7 7 7 7 7 7 7 7 7 7 7 8 8 8 8 8 8 7 7 7 
3 3 3 3 3 3 5 5 5 7 7 7 8 8 8 8 8 8 7 7 5 8 8 8 8 8 8 8 8 8 9 7 10 8 6 9 8 6 7 7 7 7 10 8 9 9 9 9 9 9 9 9 9 9 7 7 7 6 6 6 6 4 5 8 8 8 9 7 8 9 9 9 8 10 9 10 10 10 11 11 11 10 10 10 7 7 5 7 5 6 7 5 6 8 8 8 8 8 8 9 9 9 9 9 7 8 8 10 5 5 5 5 5 5 6 6 6 6 6 6 6 6 6 6 6 6 6 6 6 5 5 5 4 4 4 7 7 7 7 7 7 8 8 8 8 8 8 7 7 7 7 7 7 7 7 7 6 6 6 7 7 7 8 8 8 7 7 7 7 7 7 7 7 7 8 8 8 8 8 8 8 8 8 7 7 7 6 6 6 6 6 6 6 6 6 8 8 8 7 7 7 5 5 5 4 4 4 4 4 4 4 4 4 5 5 5 7 7 7 7 7 7 7 7 7 7 7 7 9 9 9 8 6 7 7 7 7 9 7 8 7 5 6 5 5 5 5 3 4 4 4 4 7 7 7 9 9 9 9 9 9 10 10 10 10 8 9 8 6 7 8 6 7 9 7 8 8 8 8 8 8 8 7 7 7 7 7 7 8 8 8 9 9 9 8 8 8 7 7 7 
3 3 3 4 4 4 5 5 5 6 6 4 7 5 6 5 5 5 5 5 5 8 8 8 8 8 8 8 6 7 8 8 8 9 7 8 6 6 6 7 7 7 8 8 8 8 8 8 8 8 8 8 8 8 7 7 7 7 7 7 8 6 7 8 8 8 8 8 8 9 9 7 10 10 8 11 11 11 13 13 13 12 12 12 8 8 8 7 7 7 8 8 8 8 8 10 7 7 7 9 9 9 8 8 8 8 6 7 5 5 5 3 3 3 4 4 4 5 5 5 4 4 4 5 5 5 7 7 7 6 6 6 6 6 6 6 6 6 7 7 7 8 8 8 7 7 7 7 7 7 6 6 6 5 5 5 6 6 6 8 8 8 8 8 8 8 8 8 7 7 7 8 8 8 9 9 9 9 9 9 9 9 9 6 6 6 6 6 6 5 5 5 6 6 6 6 6 6 7 7 7 5 5 5 5 5 5 6 4 5 5 5 5 5 5 5 6 6 6 7 7 7 8 6 7 8 8 8 8 8 8 9 7 8 7 5 6 7 7 7 7 7 7 7 7 7 8 8 8 7 7 7 8 6 7 8 6 7 8 8 8 10 10 10 10 8 9 8 8 8 7 7 7 7 7 7 8 8 8 8 8 8 8 8 8 7 7 7 9 9 9 8 8 8 6 6 6 6 6 6 
4 4 4 6 6 6 6 6 6 6 6 6 4 4 4 6 6 6 8 6 7 10 10 10 9 7 8 7 7 7 8 8 10 8 8 10 5 5 5 6 6 6 7 7 7 8 8 8 10 10 10 10 10 10 8 8 8 8 8 8 9 9 9 8 8 8 9 8 6 9 9 9 10 12 11 12 12 14 15 15 15 13 11 12 9 9 9 8 8 8 9 9 9 8 8 8 8 8 8 8 8 8 7 7 7 6 6 6 5 5 5 4 4 4 4 4 4 4 4 4 5 5 5 5 5 5 6 6 6 7 7 7 7 7 7 7 7 7 9 9 9 7 7 7 6 6 6 6 6 6 6 6 6 5 5 5 5 5 5 7 7 7 9 9 9 8 8 8 8 8 8 8 8 8 9 9 9 9 9 9 7 7 7 6 6 6 6 6 6 5 5 5 4 4 4 5 5 5 7 7 7 6 6 6 4 4 4 5 5 5 7 5 6 5 5 5 6 6 6 8 6 7 7 7 7 7 7 7 9 7 8 8 6 7 6 6 6 6 6 6 8 6 7 7 7 7 8 8 8 8 8 8 7 7 7 7 7 7 7 7 7 8 8 8 8 8 8 9 9 9 8 8 8 7 7 7 6 6 6 8 8 8 8 8 8 8 8 8 8 8 8 6 6 6 4 4 4 7 7 7 
5 5 5 7 7 5 7 7 7 6 6 8 7 5 6 6 6 6 7 7 7 8 6 7 7 9 8 7 7 9 8 8 8 7 7 7 8 6 7 6 6 6 7 5 6 8 8 8 10 10 10 9 9 9 7 7 7 7 7 7 8 8 8 7 7 9 8 8 8 8 10 9 13 13 13 15 15 15 13 13 13 12 10 11 8 8 10 8 8 8 8 8 8 8 8 6 7 7 7 8 8 8 7 7 7 6 6 6 4 4 4 4 4 4 5 5 5 6 6 6 6 6 6 6 6 6 6 6 6 6 6 6 8 8 8 7 7 7 10 8 9 7 7 7 6 6 6 7 7 7 6 6 6 5 5 5 5 5 5 7 7 7 7 7 7 8 8 8 8 8 8 8 8 8 8 8 8 8 8 8 6 6 6 5 5 5 5 5 5 5 5 5 4 4 4 5 5 5 7 7 7 8 8 8 6 6 6 5 5 5 6 6 6 5 5 5 5 5 5 6 6 6 8 8 8 7 7 7 8 8 8 7 7 7 6 4 5 6 6 6 10 8 9 8 6 7 7 7 7 7 7 7 6 6 6 6 6 6 7 7 7 7 7 7 8 8 8 7 9 8 7 7 7 6 6 6 6 6 6 8 8 8 8 8 8 8 8 8 8 8 8 6 6 6 5 5 5 8 8 8 
6 6 6 7 7 5 6 6 6 6 6 8 6 6 6 8 8 10 8 8 8 8 8 6 8 8 8 9 9 9 8 8 8 7 7 7 7 7 7 8 6 7 6 6 6 7 7 7 9 9 9 9 9 9 7 7 7 7 7 7 8 6 7 7 7 7 7 7 7 7 9 8 13 13 13 14 12 13 9 9 9 8 8 8 8 8 8 8 8 10 7 7 7 7 7 7 8 6 7 7 7 7 7 7 7 6 4 5 5 5 5 5 5 5 6 6 6 7 7 7 7 7 7 7 7 7 7 7 7 7 7 7 7 7 7 7 7 7 12 8 9 9 9 9 6 6 6 7 7 7 7 7 7 6 6 6 6 6 6 7 7 7 7 7 7 9 9 9 8 8 8 7 7 7 8 8 8 6 6 6 7 5 6 6 6 6 6 4 5 4 4 4 4 4 4 6 6 6 7 7 7 7 7 7 7 7 7 5 5 5 6 6 6 7 7 7 6 6 6 7 7 7 8 8 8 9 9 9 8 8 8 8 6 7 7 5 6 8 8 8 9 9 9 10 8 9 9 9 9 8 8 8 7 7 7 6 8 7 8 8 8 6 8 7 8 6 7 7 9 8 7 7 7 7 7 7 8 8 8 9 9 9 9 9 9 9 9 9 7 7 7 8 8 8 6 6 6 7 7 7 
7 7 7 6 6 6 6 6 6 7 7 7 8 6 7 8 8 6 8 8 6 8 8 8 8 8 8 9 9 9 8 8 8 8 8 8 8 8 8 7 7 7 6 6 6 5 5 5 6 6 6 7 7 7 6 6 6 7 7 7 8 8 8 10 8 11 8 8 8 7 9 6 9 9 9 10 10 10 11 9 10 9 7 8 9 9 9 9 8 6 8 6 7 7 7 9 8 8 8 12 8 7 11 7 6 6 6 6 6 6 6 5 5 5 7 7 7 9 9 9 7 7 7 7 7 7 8 8 8 7 7 7 7 7 7 7 7 7 9 9 9 7 7 7 6 6 6 10 6 7 7 7 7 6 6 6 6 6 6 7 7 7 6 6 6 7 7 7 9 9 9 9 9 9 8 8 8 5 5 5 5 5 5 6 6 6 7 7 7 5 5 5 5 5 5 7 5 6 6 6 6 8 6 7 6 6 6 6 6 6 6 6 6 7 7 7 8 8 8 7 7 7 10 10 10 13 13 13 10 8 9 9 9 9 9 9 9 9 11 10 10 10 10 14 10 11 10 10 10 12 8 9 10 8 9 7 7 7 8 8 8 7 7 7 7 7 7 7 7 7 8 8 8 7 9 8 9 9 9 9 9 9 11 11 11 11 11 11 7 7 7 8 8 8 6 6 6 7 7 7 
12 6 6 6 6 6 6 6 6 7 7 7 9 7 8 8 8 8 7 9 8 9 9 9 9 9 9 9 9 9 8 8 8 7 7 7 8 8 8 7 7 7 5 5 5 7 6 4 12 7 4 9 5 4 4 4 4 5 5 3 7 7 7 9 9 9 8 8 8 7 7 7 7 7 7 9 9 9 10 10 10 8 8 8 9 7 8 8 8 6 7 5 6 6 6 6 7 6 4 35 5 7 22 6 6 7 7 7 7 7 5 6 6 6 6 6 8 7 7 7 7 7 9 7 7 7 7 7 7 7 7 5 9 7 8 8 8 10 7 7 7 5 7 6 6 6 6 6 6 6 14 8 8 12 6 6 7 7 7 8 8 8 6 6 6 6 6 6 7 9 8 8 8 8 9 9 9 7 7 7 6 6 6 7 7 9 7 5 6 5 5 7 5 5 5 7 6 4 14 5 6 13 7 7 11 7 6 6 6 8 7 7 7 7 7 7 8 8 8 8 6 7 11 9 10 12 12 12 11 11 11 11 9 10 11 11 13 12 12 14 12 12 12 12 10 13 10 8 9 37 8 10 25 6 8 9 9 7 8 6 7 6 6 6 6 8 7 8 8 8 7 9 8 9 9 7 7 9 8 8 8 8 10 10 10 9 10 12 9 7 10 9 9 9 7 7 7 15 6 7 
52 6 6 6 6 6 7 7 7 8 8 6 8 8 8 7 7 7 8 8 8 8 8 8 10 10 10 11 11 11 9 9 9 7 7 7 8 8 6 9 7 8 7 7 7 21 7 6 53 5 5 43 5 4 5 5 5 5 5 3 5 5 5 6 6 6 6 6 6 6 6 6 8 8 8 8 8 8 9 9 9 8 8 8 8 8 8 8 8 8 7 7 7 6 6 6 6 6 6 7 7 7 6 8 7 7 7 7 7 7 7 6 6 6 6 6 6 6 6 6 8 8 8 7 7 9 7 7 7 9 7 8 11 7 8 7 7 7 7 7 7 6 6 6 6 6 8 6 6 8 50 6 7 47 5 6 14 4 5 5 5 5 5 7 4 6 6 4 9 7 8 8 8 8 7 7 7 7 7 7 7 7 7 7 7 7 6 6 6 6 4 5 6 6 6 22 6 6 52 6 6 53 9 10 45 6 7 7 7 7 7 7 9 8 6 7 8 8 8 7 7 7 10 8 9 13 13 13 10 10 12 10 10 10 12 10 11 13 13 13 12 12 12 11 11 11 11 9 10 8 8 8 9 9 9 7 7 5 7 7 7 7 7 7 7 7 7 8 8 8 9 9 9 7 7 5 8 6 7 9 7 8 8 8 8 8 8 8 9 9 9 10 10 10 7 7 7 61 7 7 
6 6 6 5 5 5 8 6 7 10 9 7 9 9 9 7 7 7 7 7 7 9 9 9 11 11 11 11 11 11 8 8 8 9 9 9 8 8 6 8 8 8 8 8 8 7 7 7 6 6 6 5 5 5 5 5 5 5 5 5 6 6 6 6 6 6 8 6 7 6 8 7 8 8 8 7 9 8 9 7 8 8 8 8 9 9 9 9 7 8 8 8 8 7 7 7 5 7 6 6 6 6 6 6 8 7 7 7 7 7 7 6 6 6 6 6 6 7 7 7 9 8 6 8 7 5 7 5 6 8 8 8 7 7 7 6 6 6 5 5 5 7 7 7 6 6 6 4 4 4 5 5 3 6 6 6 5 5 5 5 5 5 6 6 6 7 7 7 8 8 8 7 7 7 7 7 7 7 7 7 8 6 7 6 6 6 7 6 4 6 6 6 6 4 5 7 7 7 7 7 7 8 8 6 7 7 9 8 8 8 7 7 7 8 8 8 7 7 7 7 7 5 11 10 8 14 14 14 10 10 8 11 9 10 11 10 8 11 11 11 11 11 11 10 8 9 9 9 7 9 9 11 9 9 9 8 6 7 7 5 6 6 6 6 7 7 7 9 9 9 8 10 9 7 7 7 8 8 8 8 8 6 9 7 8 8 8 6 9 9 9 10 10 10 7 7 7 62 6 9 
7 7 7 5 3 4 5 7 6 7 7 7 8 6 7 6 6 6 6 6 6 8 8 8 9 9 9 9 9 9 8 8 8 8 10 9 9 11 10 10 12 11 10 10 10 9 7 8 5 5 5 5 5 5 4 4 4 5 5 7 6 6 6 7 5 6 7 7 7 8 6 7 8 8 8 8 6 7 9 9 9 9 9 9 9 9 9 8 8 8 7 7 7 8 8 8 7 7 7 7 7 7 8 8 6 7 7 7 7 7 7 7 7 7 7 5 6 7 7 5 7 7 7 6 6 6 5 5 5 7 5 6 7 5 6 7 7 7 4 4 4 5 5 7 6 6 6 5 5 7 5 5 5 8 8 10 5 7 6 6 5 3 7 5 6 5 5 5 5 7 6 7 9 8 8 8 8 7 7 7 8 8 8 8 6 7 6 6 8 7 7 7 8 8 8 7 5 6 7 7 5 8 8 10 7 7 7 8 6 7 8 8 8 8 8 8 8 6 7 9 9 9 12 12 12 12 12 12 11 9 10 10 10 10 11 11 11 10 10 10 9 9 9 10 8 9 11 9 10 10 8 9 11 11 11 8 10 7 6 6 4 8 6 7 9 9 9 9 9 9 8 8 8 6 6 6 7 7 7 8 8 6 8 8 8 8 8 8 7 9 8 6 6 6 10 10 10 9 9 7 
