P3
100 50
255
1 1 1 1 1 1 0 0 0 0 0 0 0 0 0 1 1 1 1 1 1 51 41 31 70 56 43 70 56 43 68 55 38 68 52 36 68 51 33 67 51 36 67 55 39 71 62 45 72 58 45 65 49 36 65 49 33 66 55 37 68 60 39 70 54 39 67 51 35 68 51 33 68 51 35 67 50 34 68 49 35 67 50 34 67 50 32 67 50 34 68 53 34 70 54 38 68 55 38 68 55 36 68 57 39 66 58 39 69 58 40 69 57 41 67 54 37 66 50 34 67 52 33 66 53 36 72 61 43 70 58 42 69 56 40 68 57 39 68 57 39 69 53 38 67 49 37 68 50 36 68 55 38 67 54 38 67 54 38 67 54 38 68 52 37 65 53 37 68 56 40 68 55 39 69 52 36 65 46 32 59 39 28 59 41 29 65 49 33 68 57 39 69 58 40 68 55 38 67 54 38 68 52 37 67 51 36 68 52 36 69 51 39 67 51 36 65 48 32 65 44 27 66 47 32 67 48 33 66 49 33 67 50 34 66 47 32 65 49 33 67 51 35 69 57 41 70 57 41 69 56 40 66 53 37 65 47 33 63 44 29 62 43 28 64 46 32 67 49 35 69 53 38 69 53 38 68 52 37 67 51 36 67 51 35 68 51 35 65 49 33 65 48 32 67 50 34 64 48 33 
1 1 1 0 0 0 0 0 0 0 0 0 1 1 1 1 1 1 0 0 0 51 41 31 69 55 42 69 57 43 69 57 41 69 53 37 69 53 37 70 54 39 69 56 40 70 58 42 67 54 38 66 48 36 64 51 35 70 58 42 67 58 43 66 54 38 67 49 35 69 47 33 71 49 36 69 52 36 66 50 34 67 51 35 68 55 38 66 53 37 68 52 37 69 53 37 70 57 40 68 57 37 66 55 37 66 57 42 69 57 41 68 55 39 69 53 38 66 53 36 66 53 36 67 54 35 67 59 40 69 60 43 70 56 43 68 55 39 69 56 39 68 55 39 67 49 35 69 52 36 67 55 39 66 53 37 66 54 38 68 55 39 67 54 38 69 53 38 70 54 39 68 54 41 70 52 38 67 48 34 61 41 30 60 44 29 67 50 34 68 56 40 70 57 41 69 55 42 67 54 38 68 52 37 68 55 39 66 53 37 66 50 35 66 50 34 65 47 33 65 43 29 67 45 31 67 45 31 67 49 35 70 48 34 66 48 36 64 51 35 65 54 36 69 56 40 70 54 39 70 54 39 69 53 38 65 47 33 64 45 30 64 45 30 65 48 32 68 51 35 69 53 38 69 53 38 67 51 36 68 52 37 69 53 37 67 50 34 65 48 32 66 47 32 67 48 33 65 49 34 
1 1 1 1 1 1 1 1 1 1 1 1 1 1 1 0 0 0 1 1 1 53 43 33 69 55 42 69 57 43 69 57 41 71 58 41 70 57 40 69 56 40 69 57 41 71 58 41 69 53 38 67 49 35 67 51 36 69 60 43 68 59 42 66 54 40 67 49 37 66 50 34 69 53 37 68 52 36 67 50 32 70 52 38 69 56 40 68 55 39 68 52 37 69 53 37 68 55 38 68 57 37 68 57 39 68 55 38 67 54 38 67 51 36 68 52 36 67 56 38 67 56 36 67 54 35 67 56 36 68 59 42 70 58 42 69 55 42 70 57 40 66 53 37 67 51 35 66 53 34 68 55 39 70 54 41 69 56 40 67 54 38 67 55 39 68 55 39 69 56 40 67 55 41 68 55 39 69 51 37 64 46 34 63 45 31 67 51 36 69 55 42 69 57 43 69 57 43 70 57 41 69 56 40 66 53 37 66 53 37 67 51 36 66 50 34 68 50 36 68 44 32 65 46 29 68 46 32 69 51 37 69 50 36 67 49 35 66 53 37 65 54 36 69 53 38 68 52 37 66 53 37 67 54 38 65 49 34 65 46 31 65 46 29 67 50 34 67 50 34 65 52 35 67 51 35 66 50 35 67 51 38 69 53 38 67 51 35 65 48 32 64 47 31 65 46 31 64 48 33 
1 1 1 0 0 0 1 1 1 1 1 1 1 1 1 1 1 1 1 1 1 52 42 32 70 56 45 68 59 44 70 58 44 69 57 41 70 59 41 69 57 41 69 57 41 68 56 40 65 54 36 67 51 36 69 56 39 69 58 38 68 57 39 67 51 38 67 51 36 69 56 40 69 56 39 67 54 38 66 50 35 69 53 40 67 55 39 69 57 41 68 55 39 68 55 38 68 55 38 68 55 38 68 53 34 68 53 34 66 50 34 66 50 34 66 53 34 67 56 36 67 54 35 66 53 34 66 55 35 68 57 37 69 58 40 69 57 41 71 57 44 66 54 38 68 52 36 69 56 39 67 54 38 68 54 41 69 53 38 66 54 38 69 57 43 68 56 40 69 56 40 68 54 41 68 55 38 70 54 39 66 53 37 65 52 36 64 56 37 67 55 39 66 57 42 67 53 40 70 54 39 68 55 39 66 55 37 65 52 35 67 51 35 67 52 33 67 50 34 65 47 33 66 44 31 66 47 33 68 49 35 67 51 36 67 51 35 65 52 36 67 54 38 68 52 37 67 50 34 68 52 36 68 52 36 65 52 35 64 48 32 64 48 32 67 50 34 67 50 34 65 49 33 67 50 34 67 50 34 66 50 35 68 51 35 66 49 33 65 46 29 65 46 29 64 45 30 64 48 35 
2 2 2 1 1 1 1 1 1 1 1 1 2 2 2 1 1 1 0 0 0 52 42 32 71 59 45 70 60 48 68 60 49 68 59 44 71 59 43 71 59 45 70 58 42 69 57 41 69 53 38 69 53 38 69 53 38 68 55 39 70 54 39 68 51 35 66 53 37 71 59 43 69 56 40 67 54 38 66 53 37 68 52 39 69 55 42 67 60 44 69 57 43 68 57 39 67 54 38 66 53 36 69 52 36 67 50 34 66 51 32 66 53 36 68 55 36 67 54 37 66 53 34 68 55 36 67 54 37 69 56 39 69 57 41 69 57 41 70 57 41 68 57 39 67 54 37 69 56 39 68 55 38 66 53 36 68 55 38 68 57 39 69 57 41 70 58 42 70 56 43 69 55 42 70 54 39 69 56 40 66 57 40 67 55 39 68 56 40 65 57 38 67 55 39 69 55 42 67 54 38 65 52 35 67 51 35 67 51 35 68 51 35 66 50 34 67 52 33 67 51 36 68 50 38 69 47 34 67 50 34 69 53 37 67 54 37 65 53 37 66 53 37 66 50 34 65 48 32 63 45 31 64 48 33 64 51 34 67 51 35 66 50 34 67 51 35 67 49 35 65 47 33 65 48 32 66 49 33 67 50 34 67 50 34 66 47 32 64 45 30 64 45 28 65 46 31 65 48 38 
1 1 1 1 1 1 1 1 1 1 1 1 0 0 0 1 1 1 1 1 1 53 43 33 71 59 47 70 60 48 70 61 46 72 60 46 72 58 47 69 57 43 71 57 44 70 58 44 69 57 45 70 58 44 67 55 39 67 51 38 69 51 39 70 54 39 69 53 38 68 57 39 68 52 37 69 51 37 68 54 41 65 52 36 67 55 39 70 58 42 69 57 41 67 55 39 65 53 37 64 51 34 66 50 34 68 51 33 68 52 36 70 54 38 68 55 38 68 53 34 67 54 37 69 56 39 69 58 38 69 56 39 68 55 38 69 57 41 72 60 44 70 59 41 67 54 37 68 55 39 64 57 39 65 52 36 66 53 37 69 56 40 70 58 42 70 57 41 70 57 41 71 55 40 70 54 39 69 57 41 71 59 43 70 56 43 69 55 42 69 56 40 69 55 42 70 56 43 66 53 37 66 49 33 66 49 33 68 51 35 66 53 37 67 51 35 66 53 34 68 55 39 68 55 39 67 49 35 67 51 35 68 52 37 67 55 39 67 55 39 68 52 39 67 51 36 65 47 33 61 45 32 61 43 29 65 49 33 68 52 37 68 52 39 68 52 36 68 52 37 66 50 34 66 49 33 66 47 32 65 47 33 66 47 32 66 47 30 64 46 32 64 47 29 65 48 32 62 48 35 
0 0 0 0 0 0 0 0 0 0 0 0 1 1 1 0 0 0 2 2 2 53 45 34 70 61 46 70 62 49 71 63 50 69 60 45 69 55 42 70 57 41 70 57 41 70 58 42 71 59 45 72 60 46 69 57 43 67 51 38 67 54 38 70 57 41 67 53 40 68 52 37 68 51 41 66 50 37 67 54 37 66 53 37 69 53 38 69 53 38 66 53 37 69 56 40 64 55 38 66 50 35 66 50 35 67 51 35 68 55 38 69 58 40 68 55 36 68 52 36 67 54 35 69 58 40 70 59 41 69 56 39 67 54 37 68 55 39 71 58 42 68 60 41 67 54 38 68 55 38 66 54 38 67 51 35 67 54 37 69 57 41 70 58 44 69 55 42 69 55 42 68 51 41 67 51 38 68 55 39 69 57 41 70 58 42 69 55 42 70 57 41 69 57 41 69 57 41 67 54 38 68 51 35 66 49 33 67 51 35 67 54 38 66 53 37 67 54 38 69 56 40 68 55 39 70 54 38 66 53 36 65 52 35 66 53 37 66 54 40 66 57 40 66 52 39 67 49 37 63 45 35 60 44 29 64 48 32 67 51 36 66 52 39 69 53 38 69 53 38 67 51 36 66 49 33 65 46 31 64 47 31 64 45 31 63 46 30 66 47 33 66 49 33 66 49 33 63 47 34 
1 1 1 1 1 1 0 0 0 0 0 0 1 1 1 1 1 1 1 1 1 54 46 35 70 61 46 70 61 46 71 62 45 70 60 48 70 58 44 70 59 41 71 59 43 69 57 41 70 58 44 71 57 44 67 55 43 68 52 39 70 58 42 66 57 40 66 50 35 69 52 34 70 52 38 68 50 36 68 51 35 64 51 35 67 51 36 67 51 36 66 52 39 69 57 41 69 59 47 69 53 40 67 49 35 69 53 37 69 58 40 69 58 40 69 54 35 68 52 36 69 53 37 69 56 40 69 60 43 69 58 40 67 54 37 66 53 36 69 56 39 66 57 40 68 56 40 67 56 38 65 52 35 67 51 35 66 53 36 68 55 39 69 56 40 69 56 40 69 53 38 66 50 35 67 49 37 68 52 37 69 56 40 68 55 39 69 57 41 68 59 42 68 59 42 69 60 43 69 56 40 68 52 37 67 49 35 67 51 36 68 52 36 67 54 38 67 54 38 67 54 38 67 54 38 66 54 38 68 52 37 67 51 36 66 54 38 65 55 43 67 55 41 67 51 38 66 48 34 64 46 34 64 48 33 63 52 34 65 52 35 66 53 37 68 52 37 68 52 37 67 51 36 66 47 32 65 48 32 64 48 32 65 48 32 65 48 32 65 46 31 64 47 31 65 48 32 64 48 35 
1 1 1 0 0 0 0 0 0 0 0 0 0 0 0 1 1 1 0 0 0 53 45 34 71 59 45 73 61 47 71 59 45 72 60 48 71 59 47 69 60 45 69 57 41 68 55 39 68 56 40 69 57 45 66 54 40 66 54 40 68 59 42 68 55 39 63 50 34 67 50 34 66 50 35 68 52 37 69 51 37 69 51 39 68 52 37 69 53 38 67 53 40 67 58 43 68 59 44 69 53 40 68 50 36 69 53 38 69 57 41 68 57 39 68 55 38 69 53 37 69 51 37 71 55 39 71 59 43 69 58 40 67 54 35 67 54 35 67 54 37 66 55 37 70 59 41 67 54 37 64 46 32 66 50 34 65 52 35 66 50 35 67 54 38 67 54 38 69 52 36 67 49 35 67 49 35 67 51 36 69 53 38 68 52 36 65 53 39 68 59 42 69 61 42 68 59 42 70 57 41 68 52 37 68 50 38 68 52 39 68 55 39 68 55 39 68 55 38 69 53 38 66 54 38 66 53 37 69 53 38 70 52 38 66 53 37 68 56 42 67 54 38 67 51 36 66 48 34 65 47 33 66 50 35 66 53 37 66 53 37 67 49 35 65 49 34 67 51 35 67 51 35 65 46 31 66 47 32 65 48 32 66 49 33 64 48 32 66 47 32 64 47 31 67 50 34 64 50 37 
1 1 1 0 0 0 0 0 0 1 1 1 0 0 0 1 1 1 1 1 1 51 43 32 71 59 47 69 60 45 71 59 47 71 57 46 72 58 45 69 60 45 68 59 44 69 55 42 67 54 38 70 54 39 70 54 39 69 56 40 67 55 41 66 54 40 66 53 37 66 50 37 65 47 35 67 54 38 72 54 40 69 53 40 68 55 39 68 55 38 69 56 40 72 54 42 68 56 44 69 53 38 69 53 38 66 53 37 67 54 38 65 53 37 66 55 37 67 54 37 69 53 38 69 53 37 69 58 40 68 55 38 66 53 36 67 54 37 70 53 37 68 55 38 67 55 39 67 54 38 64 48 33 65 49 33 66 50 34 68 52 37 69 53 38 69 53 38 68 52 36 67 50 34 65 49 33 66 50 34 68 52 37 69 53 37 69 53 38 68 55 39 68 56 40 68 56 40 70 57 41 68 55 39 65 52 36 69 53 38 70 56 43 69 57 41 67 54 37 67 51 36 65 52 36 66 53 37 67 54 38 69 53 38 68 52 37 67 51 36 67 51 36 68 52 37 67 51 38 67 49 37 67 49 35 65 52 35 67 51 35 67 49 35 67 48 34 65 48 32 65 48 32 65 46 31 66 47 32 64 46 32 65 47 27 66 47 32 66 47 32 66 47 32 67 50 34 65 51 38 
0 0 0 0 0 0 0 0 0 0 0 0 1 1 1 2 2 2 0 0 0 55 47 36 71 57 44 72 60 48 70 56 43 71 57 44 70 58 44 67 58 43 69 57 43 71 55 39 70 53 37 70 52 38 68 55 39 71 55 40 67 54 38 68 54 41 69 55 42 66 53 37 67 49 37 69 56 39 69 56 40 67 54 38 68 55 39 69 56 40 71 55 39 68 54 41 68 55 38 69 53 37 67 54 38 68 55 39 65 52 36 65 52 36 67 56 38 66 55 37 67 54 37 68 55 38 67 56 38 67 54 37 69 54 35 70 57 40 70 57 40 68 55 38 69 57 41 69 56 40 65 52 35 65 49 33 67 50 34 67 51 35 69 52 36 68 52 36 67 51 35 67 50 34 66 49 33 68 51 33 68 52 36 68 52 37 68 52 37 65 52 35 66 53 36 68 55 38 70 58 42 70 57 41 67 54 38 68 55 39 69 57 43 71 59 45 67 54 38 64 51 35 66 53 37 67 54 38 67 55 39 67 54 38 67 54 38 68 52 37 67 51 36 66 53 37 66 53 37 68 50 36 67 51 36 67 51 36 67 51 36 67 49 35 67 47 36 64 47 31 65 46 31 65 46 31 65 46 31 64 47 29 65 46 29 65 46 29 64 47 31 65 48 32 65 49 33 64 52 38 
0 0 0 1 1 1 1 1 1 0 0 0 1 1 1 0 0 0 1 1 1 53 45 34 72 58 45 69 55 42 69 55 42 70 56 43 70 58 42 69 57 41 69 57 43 68 55 39 69 51 37 68 55 39 68 55 39 70 54 39 70 54 39 68 54 41 68 56 40 65 53 39 67 54 38 70 57 40 67 55 39 67 54 38 68 55 39 68 56 40 70 58 42 69 56 40 70 55 34 67 54 37 67 56 38 70 54 38 66 52 39 66 53 37 67 54 37 66 53 36 66 53 34 69 56 39 68 57 39 67 54 35 69 56 37 67 58 41 68 57 39 67 54 35 67 59 40 69 56 40 67 51 35 66 50 34 66 49 33 66 50 34 69 53 37 67 51 35 67 50 34 66 49 33 67 50 32 70 54 38 68 55 39 69 53 38 67 51 36 67 52 33 68 52 36 67 54 38 70 57 41 70 56 43 69 56 39 68 55 39 70 57 41 71 59 45 67 53 40 64 51 35 68 55 39 68 54 41 68 55 39 65 52 36 66 53 37 69 53 38 67 51 36 67 54 37 68 55 39 69 53 38 67 51 36 67 51 36 68 51 35 67 50 34 65 47 33 69 47 33 66 47 32 66 47 32 65 46 31 65 46 31 64 47 27 64 47 29 65 48 30 65 48 30 65 49 33 64 52 38 
1 1 1 1 1 1 0 0 0 1 1 1 2 2 2 1 1 1 1 1 1 52 44 33 69 57 43 68 54 41 68 54 41 69 57 41 69 57 41 69 57 43 69 57 41 69 55 42 70 52 38 70 54 39 69 56 40 70 54 39 71 54 44 67 53 40 68 54 41 66 54 40 67 54 38 69 56 39 67 55 39 70 57 41 69 56 40 69 57 41 70 57 41 69 57 41 68 57 39 67 54 37 70 54 38 66 53 36 67 51 35 66 53 36 67 54 35 65 52 35 66 53 36 70 57 40 68 57 39 68 57 39 67 56 38 68 59 42 69 57 41 71 54 36 67 56 38 67 54 38 68 52 36 65 52 33 66 50 34 67 50 34 66 50 34 67 50 34 67 50 34 65 48 32 67 50 34 68 55 38 67 54 38 67 51 36 66 50 35 66 49 31 67 51 35 68 52 37 67 54 38 68 55 39 68 55 39 68 55 39 69 57 43 73 57 44 66 54 40 65 52 36 67 55 39 70 56 43 69 55 42 66 52 39 67 54 38 65 52 36 67 51 36 67 54 38 68 56 40 69 56 40 67 51 36 66 48 34 67 48 33 66 47 30 66 49 31 66 47 32 64 47 31 66 49 33 65 48 32 64 45 30 65 48 32 64 47 29 65 46 29 68 47 30 65 48 32 63 51 37 
1 1 1 1 1 1 1 1 1 1 1 1 1 1 1 1 1 1 1 1 1 53 45 34 70 58 44 71 57 46 68 56 42 69 57 41 71 59 43 70 58 42 69 57 43 70 53 43 69 51 37 70 51 37 71 57 44 68 59 44 72 58 45 71 57 44 70 54 41 66 53 37 66 53 37 67 51 35 66 54 38 67 58 43 69 57 41 69 56 40 68 56 42 69 57 43 66 57 40 68 57 37 69 53 37 67 51 35 66 50 34 67 51 35 65 52 33 67 52 33 67 54 35 71 58 42 70 58 42 70 59 41 69 57 41 68 56 40 69 56 40 66 50 34 68 51 35 67 51 35 66 53 34 65 52 33 66 50 34 67 51 35 67 49 35 65 49 34 64 48 32 64 47 31 64 48 32 68 52 36 67 54 38 64 51 35 66 48 34 65 48 32 65 49 34 66 50 34 65 52 36 67 51 36 67 54 38 68 55 39 69 57 43 69 55 42 68 52 37 68 52 37 68 52 37 68 55 39 68 54 41 66 52 39 66 53 37 65 49 33 67 49 35 68 52 37 68 56 40 68 56 40 68 52 37 66 47 33 64 45 30 63 44 29 65 46 29 64 48 32 65 48 32 66 47 32 66 49 31 64 46 32 65 46 31 63 44 29 62 43 28 66 44 30 64 47 31 62 50 36 
1 1 1 1 1 1 2 2 2 0 0 0 1 1 1 1 1 1 1 1 3 53 45 34 69 62 46 71 59 45 69 56 40 67 58 43 69 60 45 69 59 47 69 59 47 71 55 42 67 51 36 70 52 38 71 55 40 71 59 43 72 60 44 70 61 46 68 56 40 68 52 36 68 50 36 66 49 33 67 54 38 70 58 44 70 58 42 70 57 41 71 57 44 68 59 44 69 58 40 67 55 39 68 52 37 67 50 34 66 49 31 69 52 36 68 51 35 67 50 32 67 54 37 70 58 42 71 59 43 68 56 40 68 57 39 70 57 40 70 54 39 68 52 36 65 48 32 67 50 34 66 50 34 67 51 35 68 52 36 69 52 36 67 50 34 64 47 31 65 48 30 66 47 32 64 46 32 67 51 35 64 55 38 65 52 35 64 48 33 65 48 32 67 49 35 66 50 34 67 51 35 67 49 35 67 54 38 66 54 40 68 56 42 67 54 38 68 50 36 68 52 36 67 51 36 65 53 37 67 55 41 68 55 39 68 52 37 66 48 34 66 49 33 68 52 37 68 54 41 68 54 41 67 49 35 64 45 30 65 43 29 63 44 29 66 47 32 65 48 32 64 47 31 64 47 31 66 48 34 66 49 33 66 49 33 64 45 30 64 42 28 64 45 30 64 47 31 62 48 35 
1 1 1 1 1 1 0 2 1 0 0 2 1 1 1 1 1 1 0 0 0 52 43 34 69 60 45 70 58 44 70 56 43 70 58 44 69 60 45 69 59 47 68 59 44 70 56 43 69 51 37 69 51 37 71 55 40 70 57 41 71 62 45 70 64 48 69 60 45 69 56 40 66 50 35 67 49 35 69 55 42 70 58 42 70 58 42 70 58 42 68 59 44 69 60 45 66 57 42 67 54 38 69 51 37 69 52 36 67 50 34 67 48 31 66 49 31 67 52 33 68 57 39 69 58 40 69 58 38 66 57 40 67 58 41 66 57 40 67 54 38 68 51 35 66 49 31 66 47 30 67 48 31 68 52 37 67 51 36 67 51 36 68 51 35 67 48 34 67 48 31 64 47 31 65 46 32 67 51 35 67 54 38 64 51 34 62 44 30 66 48 34 65 52 35 67 52 33 65 52 35 64 51 34 68 52 37 67 53 40 69 53 40 68 50 36 71 53 39 66 53 37 69 53 38 66 53 37 65 53 39 70 54 39 67 54 38 68 52 37 64 51 34 66 54 38 67 55 41 68 52 39 64 46 34 63 44 29 63 44 29 62 43 28 65 46 31 65 48 32 64 47 31 66 47 32 66 49 33 66 50 34 66 50 34 66 47 32 62 45 29 63 46 30 64 47 31 62 48 35 
1 1 1 1 1 1 1 1 0 2 0 1 1 1 1 1 1 1 22 18 15 57 51 39 68 59 42 68 56 42 70 58 44 69 62 46 69 60 43 71 59 45 71 58 42 70 56 43 69 53 40 68 52 37 69 53 38 71 55 40 69 60 43 69 64 45 69 62 46 69 57 43 68 52 37 66 53 37 70 58 42 70 58 42 69 57 41 68 59 42 67 58 41 70 58 44 69 57 41 66 53 37 68 51 35 70 53 37 69 52 36 69 50 35 66 49 33 66 53 34 69 58 38 69 56 39 68 57 39 67 58 41 69 57 41 68 56 40 67 55 39 68 52 36 66 49 31 64 47 29 68 49 34 67 54 37 68 52 37 67 54 38 68 52 37 66 48 34 67 48 33 65 46 31 64 46 32 66 50 34 66 53 36 67 51 35 64 47 31 66 48 34 67 52 33 65 50 31 66 50 34 65 52 35 67 51 35 68 52 37 68 50 40 69 51 37 69 53 38 68 55 39 68 56 40 69 56 40 67 54 38 69 55 42 69 56 40 68 56 40 68 56 40 68 56 40 67 55 41 66 52 39 65 47 33 64 45 30 64 45 30 63 46 30 65 46 31 65 48 30 64 48 32 64 47 31 64 47 31 66 50 34 67 51 36 66 48 34 67 50 34 65 48 32 65 48 32 63 49 36 
1 1 1 0 2 1 2 2 4 0 2 1 1 1 0 2 0 1 53 44 35 70 61 44 69 57 43 68 54 41 71 59 45 69 62 46 68 59 42 68 56 40 70 56 43 70 56 43 69 55 44 67 55 41 68 52 37 71 54 38 70 57 41 69 57 41 69 60 45 68 56 40 67 55 41 66 57 42 70 58 46 68 54 41 68 54 41 69 57 41 68 56 40 68 56 40 69 56 39 69 53 37 69 51 37 69 53 38 66 53 36 67 51 35 67 51 35 69 53 37 68 55 39 68 55 38 68 55 38 69 58 40 70 57 41 69 56 40 68 55 39 67 52 33 64 51 35 66 50 34 69 52 36 69 51 37 67 51 35 67 54 37 67 54 38 66 50 34 68 51 35 66 47 32 65 46 31 66 47 32 66 49 33 67 48 33 66 49 33 67 51 36 68 51 35 65 48 32 65 48 32 67 51 35 66 53 36 67 54 38 68 52 37 68 52 37 66 52 39 67 53 40 69 56 40 69 56 40 67 55 39 68 56 40 69 56 40 68 56 42 68 56 42 68 56 42 66 53 37 66 53 37 67 49 35 64 47 31 64 47 31 65 46 31 67 48 33 65 48 32 65 48 32 64 45 30 63 46 28 66 50 34 67 51 36 67 49 35 65 48 32 64 47 31 64 47 31 63 49 36 
1 1 1 0 0 0 0 0 0 1 1 0 3 1 2 1 1 1 53 44 35 70 61 46 70 56 43 68 54 41 70 58 42 70 58 44 68 54 43 68 54 41 68 54 41 71 58 42 70 58 42 69 55 42 69 51 39 71 53 39 69 51 37 70 54 39 70 58 42 69 57 41 68 56 42 68 56 42 68 54 43 68 52 39 67 53 40 69 56 40 68 55 39 68 55 38 67 54 38 66 53 37 68 52 37 69 53 38 67 51 36 65 52 35 66 53 37 69 53 37 69 56 39 68 55 38 69 56 39 69 58 40 70 58 42 68 55 39 66 50 35 69 52 36 68 52 36 66 50 34 68 52 36 67 50 34 66 50 35 68 52 36 67 51 35 67 50 34 68 51 35 65 48 32 63 44 29 62 43 28 64 47 31 66 49 33 67 50 34 66 50 35 65 49 34 65 47 33 65 48 32 66 50 34 66 53 34 67 54 38 66 53 37 67 51 38 65 51 38 67 53 40 67 54 38 67 55 39 68 56 40 67 55 41 69 57 41 66 54 42 67 53 40 67 54 38 65 53 37 65 52 36 67 49 35 66 49 33 65 46 31 65 46 29 65 48 32 65 48 32 66 44 30 63 46 28 61 48 31 65 49 33 66 53 37 67 49 35 65 47 33 65 48 32 65 48 32 63 49 36 
1 1 1 1 1 1 0 0 2 1 1 1 1 1 1 1 1 0 53 47 35 69 60 45 69 57 43 69 56 40 71 58 42 71 55 42 68 56 44 68 56 42 68 56 42 70 57 41 70 57 41 68 55 39 69 51 37 68 51 35 69 51 37 68 55 39 70 58 42 70 58 42 68 56 40 68 52 37 67 51 36 67 54 37 66 54 38 67 54 38 66 54 38 70 54 39 70 54 41 69 53 38 67 54 38 67 56 38 64 53 35 66 49 33 68 51 35 69 52 36 69 56 39 69 57 41 70 59 41 68 57 39 67 55 39 69 53 38 67 50 34 68 49 34 67 50 34 66 49 31 67 50 32 68 51 35 67 50 34 67 51 35 67 50 34 67 48 33 68 51 35 65 47 33 60 43 27 64 45 31 67 48 31 66 49 31 65 49 33 66 48 34 66 50 35 66 48 34 65 46 32 65 48 30 66 53 37 67 54 37 66 53 37 66 50 34 68 50 36 67 55 41 68 55 39 67 55 39 68 56 40 68 54 41 68 56 42 67 55 39 68 52 36 66 53 37 66 53 37 66 50 35 66 47 33 64 48 32 65 46 29 66 44 30 65 46 31 64 47 31 64 45 28 63 46 28 65 49 33 67 51 36 66 53 37 67 49 35 63 45 31 65 48 32 65 48 32 63 49 36 
0 0 0 1 1 1 1 1 1 3 1 2 1 1 1 1 1 0 53 45 34 67 58 43 68 56 42 69 57 41 70 56 43 68 54 41 70 58 44 70 58 44 70 56 43 69 55 42 69 56 40 70 54 41 69 51 37 67 51 35 66 53 36 68 55 39 70 58 42 69 60 43 67 58 41 67 51 36 66 49 33 66 53 36 67 54 38 67 54 38 66 54 38 67 54 38 71 57 44 68 55 39 68 55 38 68 55 39 67 51 36 66 49 33 67 50 32 68 51 35 69 56 39 69 60 43 70 58 42 69 57 41 69 56 39 68 51 35 67 48 31 68 49 35 68 51 35 65 48 32 65 46 29 65 48 30 66 49 31 69 52 36 67 50 34 68 49 34 67 50 34 68 51 35 65 49 33 67 50 34 63 50 31 66 49 33 65 48 32 66 48 34 63 50 34 66 49 33 64 47 29 64 47 29 65 49 33 65 52 36 67 51 35 66 50 34 67 51 35 68 55 39 68 55 39 67 54 38 67 55 41 66 54 40 68 56 40 68 56 40 67 54 38 66 53 37 67 51 35 66 48 34 66 47 32 66 49 33 67 45 31 64 45 30 65 46 31 65 46 31 64 45 30 62 45 27 65 49 33 68 52 36 68 52 37 66 49 33 64 46 32 67 50 34 66 49 33 64 50 37 
0 0 0 1 1 1 1 1 1 0 0 0 0 0 0 1 1 1 52 44 33 70 57 41 69 56 40 68 55 39 68 54 41 68 54 41 70 58 46 71 59 45 70 58 42 68 54 41 71 55 40 68 54 41 68 50 36 68 50 36 68 55 39 69 56 39 69 58 40 68 59 42 67 58 41 68 52 36 66 49 33 68 51 35 68 52 37 67 51 36 65 52 36 70 57 40 70 58 42 69 55 42 67 53 40 67 54 38 68 52 37 66 48 34 68 51 35 69 52 36 68 55 39 70 61 44 71 59 43 69 58 40 67 54 35 66 49 33 65 48 32 67 50 34 69 52 36 65 48 32 67 41 26 65 43 29 66 49 33 69 52 36 67 52 33 67 50 34 68 51 35 68 51 35 69 52 36 68 52 36 66 51 32 65 49 33 65 48 32 66 49 33 66 48 34 65 48 32 65 46 29 65 48 30 63 48 27 65 50 31 66 50 34 66 50 34 65 52 36 69 53 38 69 51 37 69 53 38 67 55 41 68 56 42 69 57 43 68 55 39 66 55 37 67 56 38 66 53 37 67 49 35 65 47 33 66 47 32 65 46 29 67 46 29 66 44 30 66 44 30 64 45 30 63 44 27 62 45 27 65 49 33 67 49 35 65 47 33 62 49 33 67 51 35 67 50 32 64 51 35 
1 1 1 1 0 2 1 1 0 0 0 0 0 2 0 0 2 1 52 42 32 69 57 41 70 56 43 70 54 41 69 53 38 68 52 39 71 55 42 71 58 42 70 58 42 68 56 40 69 55 42 67 55 41 66 53 37 68 52 36 68 55 39 68 55 38 68 57 39 69 57 41 68 56 40 69 53 38 67 51 35 67 51 35 67 51 35 68 52 37 68 55 39 68 57 39 70 57 41 70 56 43 68 55 39 68 55 39 69 53 37 68 50 36 69 52 36 69 54 35 70 57 40 71 60 42 71 59 43 66 58 39 67 54 35 67 48 33 66 49 33 68 50 36 69 50 35 67 44 30 64 43 24 65 44 27 66 49 31 66 50 35 65 47 33 66 49 33 67 51 35 67 51 35 67 51 35 67 52 33 67 51 35 66 50 34 66 51 32 67 51 36 63 50 33 62 44 30 62 43 28 64 47 31 63 48 29 66 49 31 68 51 35 66 50 35 65 51 38 68 52 37 66 48 34 66 50 34 68 50 36 68 56 42 70 58 44 69 56 40 66 55 37 66 53 36 68 52 37 67 51 36 65 49 33 65 46 31 65 46 31 65 46 29 65 44 27 63 44 27 62 43 28 64 43 26 61 42 27 65 48 32 67 49 37 65 46 29 66 50 34 68 52 39 68 50 36 67 49 37 
1 1 1 1 1 1 2 2 2 0 0 0 0 2 1 0 2 1 53 43 33 69 57 43 70 56 43 68 54 41 67 53 40 69 55 42 70 57 41 68 55 39 67 54 38 68 56 40 69 57 41 69 57 43 67 54 38 67 51 36 65 53 37 67 55 39 67 54 38 70 54 39 70 54 39 68 57 39 68 55 39 68 52 36 68 52 37 65 52 36 66 53 37 68 55 38 69 55 42 69 56 40 68 52 37 67 54 38 70 54 39 69 53 37 70 54 38 71 55 39 70 54 39 70 54 39 68 52 37 66 50 35 68 52 37 69 52 36 65 49 33 68 52 37 66 50 34 64 43 26 63 41 27 67 46 29 68 49 34 65 47 33 61 43 31 65 49 33 66 53 36 67 51 35 69 53 37 66 54 38 64 51 35 65 52 36 65 53 37 65 53 37 65 49 33 63 46 30 65 46 31 66 47 32 67 50 34 67 51 35 65 49 33 65 49 34 67 51 38 68 52 37 66 50 34 66 49 33 65 49 34 67 55 39 70 56 43 67 55 41 67 54 38 64 51 35 66 50 34 65 52 35 66 50 34 65 46 31 64 45 30 65 46 31 64 45 30 64 42 28 63 42 25 64 43 26 64 45 28 66 49 33 65 48 32 65 46 31 66 48 34 67 51 36 68 52 37 65 49 36 
0 2 1 0 0 0 1 1 1 1 1 1 1 1 1 1 1 3 52 42 32 69 55 42 67 55 39 67 53 40 70 54 41 72 56 41 70 57 40 65 52 36 62 48 35 65 52 36 70 58 44 68 59 44 68 54 41 68 52 39 69 51 37 65 52 36 67 54 38 69 53 40 69 56 40 69 57 41 70 57 41 68 55 38 68 55 39 67 54 38 67 54 37 69 56 39 72 56 43 70 54 39 69 51 37 67 54 37 68 55 38 69 56 39 69 53 38 69 51 37 68 52 37 66 50 35 64 46 32 65 48 32 71 54 38 69 53 37 67 49 35 67 51 36 65 48 32 65 44 27 63 44 30 65 44 27 65 46 31 65 47 33 66 48 34 71 54 38 70 54 38 65 52 36 66 53 37 67 54 38 67 51 35 66 53 37 68 54 41 66 53 37 67 51 36 66 47 33 67 45 32 66 47 33 68 50 36 69 53 38 65 52 36 66 52 39 66 53 37 66 53 37 66 53 37 67 51 36 67 51 36 65 52 36 68 56 42 68 56 44 66 54 40 66 53 37 64 51 34 65 52 35 65 49 33 65 46 31 63 44 29 61 44 28 62 43 26 62 40 26 63 41 27 65 43 29 63 46 28 65 48 32 65 48 32 66 47 32 65 47 33 66 50 35 68 52 37 63 49 36 
1 1 1 2 2 2 1 1 1 1 1 3 1 1 1 0 0 2 54 41 32 69 53 38 66 48 36 65 49 36 69 53 38 70 57 41 69 56 40 66 52 39 63 47 34 65 47 33 66 53 37 66 54 38 63 53 41 68 51 41 67 47 36 67 49 35 64 51 34 67 55 39 69 57 41 67 55 41 69 53 40 68 55 39 69 56 40 66 55 37 67 54 37 69 57 41 70 57 41 69 53 40 66 53 37 69 53 38 68 55 38 69 53 37 67 50 34 64 47 31 65 48 32 65 47 33 69 51 37 68 52 36 67 54 35 69 53 37 67 48 33 65 46 29 64 45 30 66 49 33 66 48 34 64 45 30 62 43 28 64 46 32 67 49 35 67 56 38 67 54 37 67 54 37 67 54 37 67 54 37 68 52 36 67 51 36 67 51 35 68 52 36 66 53 36 65 47 33 64 45 31 66 48 34 68 52 37 68 52 37 68 52 37 67 54 38 66 54 38 65 53 37 65 52 36 67 54 38 69 53 38 66 50 37 67 55 39 67 58 43 67 53 40 63 50 34 62 50 34 66 53 37 66 53 37 64 45 31 61 42 27 60 41 26 63 41 27 65 43 29 63 41 27 63 44 29 62 45 27 62 44 30 63 46 30 64 47 31 65 48 32 66 48 34 68 50 36 65 48 38 
1 1 1 1 1 1 0 0 0 0 0 0 0 0 0 1 1 1 53 40 31 69 51 37 66 46 35 65 49 36 66 54 40 69 57 41 68 56 40 67 53 40 67 51 36 67 51 36 66 54 38 67 55 39 66 52 39 68 50 38 67 49 35 67 51 35 67 54 38 69 56 40 68 61 43 70 54 41 64 50 37 65 51 38 68 55 39 68 56 40 68 57 39 70 58 42 67 58 41 68 54 41 67 54 38 67 54 37 69 53 37 67 51 35 67 48 33 67 48 33 67 48 33 67 50 34 68 52 36 69 53 37 68 52 36 68 52 36 68 49 34 66 47 32 65 48 32 66 53 37 67 55 39 67 51 36 60 43 27 59 41 27 66 49 33 66 53 36 67 56 36 67 56 38 69 56 39 68 55 38 67 53 40 65 49 36 66 48 34 64 51 34 64 51 34 66 47 33 66 47 33 66 50 35 66 52 39 67 54 38 67 54 38 66 53 37 67 55 39 67 55 41 66 54 38 67 51 36 66 48 34 66 48 34 68 52 37 65 56 39 66 53 37 65 49 34 65 52 36 68 52 39 67 53 40 65 49 34 62 45 29 63 41 27 65 44 27 64 43 26 62 43 28 62 43 28 63 47 31 64 47 31 65 48 32 65 47 33 65 48 32 66 48 34 67 48 34 64 47 37 
2 2 2 0 0 0 0 0 0 1 1 1 1 1 1 0 0 0 53 43 31 66 50 35 64 46 32 63 50 34 67 55 39 70 58 42 69 57 41 68 52 36 67 51 36 65 53 37 68 59 44 69 60 45 66 56 44 67 51 38 66 53 37 66 54 38 67 55 39 70 58 42 67 60 42 66 54 38 66 53 37 68 52 37 67 55 39 67 55 39 69 58 40 71 59 43 68 59 42 69 57 41 68 55 39 67 54 35 67 54 38 67 54 38 67 50 34 67 48 33 69 47 33 67 50 34 68 52 37 70 54 39 69 51 39 66 50 35 66 50 34 67 55 33 67 56 38 69 57 41 69 56 40 64 51 35 62 43 29 62 40 26 66 47 30 66 49 33 65 52 33 68 56 40 69 57 41 67 56 38 66 50 35 65 47 33 63 47 31 66 50 34 67 50 34 65 49 33 67 49 35 67 49 35 65 52 36 66 54 38 67 56 38 66 53 37 68 56 42 65 56 41 67 55 41 67 51 36 64 46 32 65 47 33 68 52 36 66 54 38 65 52 36 62 50 34 65 52 36 65 52 36 64 51 34 65 49 33 64 47 31 65 43 29 63 42 25 62 41 24 64 43 26 64 47 27 64 48 33 65 48 32 67 48 34 65 49 33 66 48 34 66 49 33 66 47 32 64 48 35 
0 0 0 1 1 1 1 1 1 1 1 1 0 0 0 1 1 1 49 39 27 65 49 34 63 45 31 64 48 32 69 53 37 69 58 40 69 57 41 68 54 43 68 52 39 68 56 42 69 60 45 69 59 47 69 57 45 69 53 40 69 53 38 68 56 42 67 55 41 69 57 41 69 60 43 68 56 40 69 51 37 67 55 39 66 53 36 68 55 38 68 57 39 70 58 42 67 58 41 68 59 42 70 57 40 69 56 40 68 55 39 69 56 40 65 52 35 65 47 33 67 45 31 68 50 36 68 55 39 69 53 37 67 51 35 65 47 33 64 48 32 67 59 38 69 61 42 68 59 42 68 57 39 64 51 35 63 44 30 65 42 26 64 45 31 62 45 29 66 48 34 68 56 40 69 58 40 67 54 37 66 48 34 67 45 31 66 49 33 67 51 35 66 53 37 66 50 34 65 49 34 68 51 35 68 51 35 67 54 37 68 55 38 68 52 39 67 53 40 66 57 42 69 56 40 67 51 35 63 47 32 66 48 34 67 51 35 65 52 35 65 47 35 64 48 33 65 52 36 64 53 35 63 50 33 63 50 33 65 49 33 62 43 28 60 39 22 59 38 21 62 43 26 64 47 31 65 47 33 65 46 32 65 48 32 66 50 34 66 48 34 65 48 32 66 49 33 63 49 36 
2 1 0 2 0 1 1 1 1 0 0 0 1 1 1 0 0 0 48 38 28 64 47 31 62 44 30 64 47 31 66 50 34 67 54 37 68 56 40 68 54 41 69 55 42 69 57 43 70 61 46 71 59 47 69 56 40 70 54 39 66 53 37 68 56 40 68 54 41 69 57 43 71 59 47 68 54 41 66 50 35 66 50 35 67 51 36 66 53 37 67 56 38 69 58 40 67 58 41 70 63 47 69 60 45 67 55 39 68 56 40 70 58 42 68 55 39 67 49 35 68 46 32 66 53 37 67 54 37 68 51 35 67 48 31 67 46 29 64 47 31 67 56 38 72 60 44 67 59 40 67 56 38 63 50 33 65 46 31 65 44 27 63 44 29 64 46 34 65 49 33 68 57 39 68 56 40 65 47 33 62 45 29 65 46 31 66 50 34 67 54 37 69 53 38 66 48 34 64 45 31 63 44 29 65 48 32 65 52 35 66 54 38 65 53 39 67 54 37 66 52 41 68 52 39 64 51 35 66 50 35 66 50 35 65 48 32 65 50 31 63 44 29 62 46 31 66 53 36 66 53 36 64 51 35 65 47 33 64 47 31 61 42 27 59 37 23 60 38 24 62 43 26 67 45 31 65 46 32 63 45 31 66 50 35 68 49 34 67 50 34 66 47 32 66 49 33 61 47 34 
1 1 1 0 0 0 1 1 1 2 0 1 1 1 1 1 1 1 51 39 27 62 49 33 63 45 33 63 45 31 65 48 30 67 50 34 67 54 38 69 55 42 70 58 44 69 57 41 67 55 39 69 56 40 68 52 37 67 51 35 65 52 36 67 53 42 71 55 42 69 56 40 67 58 43 66 54 40 65 49 34 65 47 35 64 48 33 67 50 34 67 51 35 68 52 36 69 57 41 69 60 45 69 60 45 67 58 41 70 56 43 69 57 41 68 52 37 66 48 34 68 49 34 69 53 37 71 55 40 70 51 36 68 46 32 63 44 29 64 47 31 70 54 38 69 57 41 70 58 42 66 54 38 65 47 35 64 46 32 62 46 30 60 41 24 64 47 29 66 53 34 67 56 38 67 54 37 63 46 30 61 42 27 62 43 28 63 46 30 63 47 32 65 49 33 66 49 33 60 42 28 58 38 27 61 45 29 65 54 36 65 56 39 67 54 38 67 54 37 67 54 38 64 50 37 64 51 34 66 52 39 66 49 31 64 47 31 65 46 31 64 45 30 63 47 32 66 53 37 68 52 37 67 51 36 66 48 34 63 46 28 61 44 28 59 37 23 58 36 22 62 41 24 63 44 29 64 42 29 64 46 32 65 49 36 67 50 34 67 48 34 66 48 34 66 50 35 63 49 38 
1 1 1 0 0 0 0 2 1 0 0 0 0 0 2 1 1 1 50 36 27 64 48 35 63 47 34 64 46 32 67 48 33 67 50 34 65 52 36 68 54 41 69 57 41 71 55 40 69 53 37 67 51 36 67 49 35 67 49 35 67 51 36 65 52 36 67 54 38 70 59 41 67 60 44 66 52 39 66 48 34 65 47 33 65 47 33 63 47 31 66 47 32 67 50 34 68 55 38 69 57 41 69 57 45 70 58 42 68 60 41 67 54 38 67 51 38 67 49 35 68 52 36 66 53 36 69 56 39 69 53 38 68 52 37 67 51 36 67 54 35 69 58 38 70 59 41 69 58 40 68 55 38 67 49 35 67 50 34 65 46 31 61 42 27 62 45 29 65 54 34 65 54 34 66 50 34 64 45 30 64 42 29 64 42 28 63 44 30 61 43 29 61 44 28 64 47 31 59 41 27 56 37 23 62 45 29 68 55 38 66 57 40 66 54 38 65 53 37 67 54 38 68 52 37 67 51 36 66 50 34 66 49 33 66 49 31 65 48 32 65 50 31 65 49 33 67 51 36 66 52 39 65 53 39 68 52 37 65 49 33 64 47 31 58 41 25 55 38 22 59 37 23 63 41 27 64 45 31 67 49 35 67 49 35 66 48 34 66 48 34 67 49 35 67 51 36 63 51 39 
0 0 0 0 0 2 2 2 4 1 1 1 0 0 0 0 0 2 12 8 5 55 41 28 64 48 33 63 46 30 65 48 32 65 47 33 64 48 33 66 53 37 68 55 39 68 52 37 66 48 34 67 50 34 67 48 34 68 49 35 67 50 34 62 49 33 67 51 36 68 60 39 68 61 45 67 58 43 69 53 38 66 48 34 66 48 34 67 51 35 65 49 33 67 50 34 67 54 37 68 55 39 69 57 43 68 59 44 68 59 44 66 54 40 69 53 40 69 53 38 69 53 37 68 52 36 68 53 34 71 55 42 68 55 39 68 52 37 67 56 38 70 59 41 69 57 41 68 55 39 69 53 37 69 51 37 66 48 34 66 47 32 63 44 30 62 46 30 64 53 33 65 52 35 66 49 33 67 48 33 65 48 32 66 49 33 68 49 34 65 46 31 64 45 30 64 45 30 62 45 29 61 44 28 65 48 32 66 53 36 67 54 38 67 54 38 67 55 39 69 56 40 66 53 37 64 48 33 65 47 33 64 47 29 65 48 32 67 49 35 64 48 32 64 48 32 65 50 31 65 49 34 66 53 37 67 54 38 67 51 36 66 50 34 64 46 32 57 39 27 59 37 23 63 41 27 64 46 34 65 49 34 66 48 34 64 46 32 64 46 32 68 49 35 67 51 36 62 50 38 
1 1 1 1 1 1 0 0 0 0 2 1 1 1 1 1 1 1 1 1 1 52 38 27 66 48 34 63 44 29 64 46 32 64 47 31 64 47 31 67 50 34 69 53 37 66 51 32 67 49 35 66 48 34 67 48 34 67 49 35 67 50 34 65 49 33 66 50 37 69 55 42 68 59 42 67 60 44 68 56 40 65 49 34 65 49 34 66 53 37 65 52 35 68 52 36 66 53 36 66 53 36 65 57 38 67 58 41 68 59 42 67 55 39 67 54 38 70 54 39 68 52 37 68 52 36 69 51 37 67 53 40 68 55 39 68 52 37 67 56 38 67 59 40 70 56 43 72 56 43 67 55 39 67 49 35 68 50 36 66 50 35 66 48 34 65 49 33 65 52 35 68 52 36 67 51 35 66 50 35 67 51 35 68 51 35 68 50 36 66 48 36 66 47 32 65 46 31 63 46 30 62 46 30 63 50 33 64 51 34 66 50 35 68 52 36 67 54 37 69 56 39 65 52 36 63 47 32 62 43 28 62 43 28 66 47 32 68 50 36 66 50 34 65 48 32 64 48 32 62 51 33 65 53 37 67 54 38 68 52 37 67 51 36 65 47 33 62 43 29 61 39 26 60 41 26 65 46 31 66 48 34 64 48 33 63 46 30 64 47 31 67 50 34 66 50 34 63 51 37 
0 2 1 0 0 0 0 0 0 1 1 1 1 1 1 1 1 1 1 1 1 50 42 29 68 49 34 65 46 31 65 46 31 66 48 28 67 51 35 68 51 35 68 52 36 68 52 36 69 52 36 69 53 37 66 48 34 66 49 33 68 51 35 66 53 37 69 51 37 68 52 37 68 52 36 68 57 39 67 58 41 66 57 42 66 57 40 68 55 39 67 51 36 67 50 34 64 51 32 66 53 36 67 55 39 67 58 41 67 58 41 69 56 40 68 55 38 68 52 37 66 53 37 67 51 36 67 50 34 67 51 35 69 53 37 69 52 36 66 53 36 65 57 38 68 55 39 69 53 38 68 52 39 68 52 37 67 54 38 65 52 36 68 52 36 68 52 36 66 50 34 65 52 35 65 52 36 66 50 35 66 48 34 66 49 33 67 49 35 64 51 34 66 49 33 65 48 32 65 48 32 65 49 34 66 50 34 64 48 32 65 46 31 67 50 32 65 52 35 66 55 37 67 54 37 65 49 36 63 44 29 63 44 29 66 49 33 66 50 35 65 49 34 65 48 32 63 47 31 66 51 32 65 54 36 66 54 38 66 50 34 65 49 34 65 49 36 64 46 32 62 43 29 61 42 27 65 43 29 65 46 32 63 45 31 60 43 27 65 46 31 65 48 32 64 48 32 63 51 37 
0 0 2 1 1 0 1 1 1 0 1 3 1 1 1 1 1 1 0 0 0 51 39 27 69 52 36 68 49 34 66 47 32 67 48 31 67 51 35 68 52 36 69 53 37 70 53 37 70 54 38 68 55 39 65 49 34 66 49 33 67 50 34 67 54 38 69 53 38 68 51 35 66 51 32 68 57 37 68 61 43 70 61 44 70 61 44 68 56 40 67 54 38 67 50 34 67 52 33 66 53 34 67 54 35 67 55 39 68 57 39 67 59 40 68 56 40 68 55 38 68 52 36 67 50 34 68 49 34 68 49 34 67 50 32 68 51 33 68 55 36 67 56 36 67 56 38 69 52 36 68 50 36 66 53 36 67 56 38 64 51 34 67 52 33 66 53 34 64 51 32 65 54 36 64 53 35 67 51 36 66 47 33 65 48 32 67 52 33 66 49 31 65 48 32 66 49 33 66 50 34 66 50 35 65 49 34 64 47 31 64 43 26 66 48 28 64 51 32 66 55 37 67 54 37 66 50 37 63 45 31 64 45 30 65 48 32 65 49 33 65 48 30 65 46 31 64 47 31 65 49 33 64 51 34 65 52 35 66 51 32 67 48 33 66 49 33 64 46 32 62 43 29 63 44 29 63 44 29 64 45 30 63 44 29 64 45 30 66 44 30 63 46 30 63 47 31 63 49 36 
1 1 1 1 1 1 1 1 1 2 0 1 0 0 0 1 1 1 0 0 0 52 40 28 69 53 37 68 51 35 65 49 33 66 49 33 66 50 34 68 52 36 68 51 35 67 51 35 67 54 37 67 55 39 66 50 35 66 49 33 68 52 37 67 55 39 68 52 36 67 51 36 65 52 35 66 55 35 68 59 42 69 62 46 69 60 45 67 58 41 68 56 40 65 52 36 65 52 35 66 53 34 66 53 36 68 52 37 68 56 40 69 57 41 67 54 37 70 54 38 66 53 37 67 51 35 67 50 34 66 47 32 65 46 29 65 48 28 67 54 37 67 56 36 66 54 38 69 52 36 67 50 34 68 53 34 66 55 37 66 55 37 66 53 34 69 54 35 65 52 35 65 54 34 66 55 35 65 49 34 65 46 32 66 49 33 67 51 35 67 49 35 65 48 32 65 49 33 64 51 34 64 51 35 65 49 34 64 45 30 63 42 25 64 46 26 65 50 31 67 54 35 67 54 38 68 52 36 66 48 34 64 47 31 66 49 33 65 48 28 64 47 31 64 47 31 65 48 32 66 49 31 67 51 35 65 50 31 65 49 33 66 49 33 67 50 34 63 46 30 63 44 30 64 45 31 64 45 30 64 45 30 63 44 29 63 44 29 66 43 29 64 42 28 63 46 30 63 50 34 
0 0 2 2 2 0 0 0 0 0 2 1 0 0 0 0 2 1 2 2 2 51 41 31 69 53 38 68 51 35 67 52 33 66 50 34 68 51 35 68 49 34 67 48 34 67 49 37 68 52 36 68 52 37 68 50 36 69 51 37 69 56 40 67 55 39 66 53 37 67 54 38 67 54 37 66 53 36 68 59 42 70 63 47 69 60 45 69 60 45 68 59 42 68 56 42 67 54 38 68 52 37 68 52 36 68 52 37 68 55 39 70 54 38 68 55 38 69 53 38 68 52 37 67 49 35 67 50 32 64 45 31 66 45 28 66 49 33 65 52 35 67 56 38 68 56 40 68 52 37 68 52 36 71 56 37 67 54 37 64 56 37 67 54 37 70 54 38 67 53 40 67 54 38 66 53 34 63 48 29 63 44 29 64 47 31 66 50 34 66 51 32 65 49 33 65 48 32 65 49 33 66 49 33 65 46 31 65 42 28 64 42 28 66 47 30 66 50 34 67 54 35 65 54 36 66 50 34 66 50 34 64 51 34 65 49 33 66 47 32 64 47 31 65 48 32 64 46 32 65 48 32 65 48 32 66 49 33 65 49 33 66 48 34 65 48 32 63 46 30 66 47 33 64 46 32 66 47 33 63 44 29 62 43 28 61 42 27 64 43 26 64 43 26 63 46 28 62 49 33 
0 0 2 0 2 1 0 0 0 1 1 3 0 2 1 0 0 0 1 1 1 51 41 29 69 53 38 66 53 36 68 52 36 67 49 35 65 46 32 67 45 31 68 46 33 67 49 35 70 54 39 66 52 39 66 50 35 67 55 39 68 61 43 68 55 39 64 51 35 69 55 42 68 55 39 65 52 36 68 56 42 69 60 45 70 61 46 69 60 45 67 60 44 70 56 43 67 54 38 68 52 37 67 51 35 67 50 34 68 52 37 66 53 37 65 52 36 65 52 36 65 52 36 68 50 36 66 49 31 67 48 33 67 49 35 67 50 34 67 52 33 67 56 38 70 57 40 67 51 36 69 52 36 69 56 39 68 57 39 69 56 40 69 57 43 69 57 41 68 55 38 67 54 37 65 54 36 66 47 32 64 47 31 66 47 32 66 49 33 65 49 33 66 49 33 65 48 32 63 44 27 64 45 28 64 45 28 63 44 29 64 45 30 66 45 26 65 49 33 66 53 36 67 51 35 66 49 33 65 52 36 68 52 36 66 49 31 65 48 32 64 47 31 63 46 30 63 47 31 64 47 31 66 49 33 64 49 30 65 49 33 65 49 33 63 47 32 64 46 32 66 48 34 66 48 34 65 48 32 64 45 30 61 42 27 58 39 22 59 40 25 62 43 26 63 46 30 62 49 32 
2 1 0 1 1 1 1 1 1 0 0 0 0 0 0 0 0 2 0 0 0 52 40 28 68 53 34 65 52 35 68 52 37 68 49 35 63 46 30 63 46 28 68 46 32 67 50 34 70 54 39 66 52 39 62 48 35 66 54 42 68 61 43 69 57 41 69 53 38 67 55 39 68 56 42 65 53 39 67 54 38 68 56 42 68 59 44 68 59 42 68 59 44 69 56 40 68 52 37 67 51 35 66 50 34 67 51 35 67 51 36 65 52 36 65 51 38 67 51 36 67 51 36 66 50 35 66 49 33 67 52 33 69 51 37 68 51 35 66 50 34 68 55 38 69 56 40 66 50 34 68 52 36 68 56 40 69 57 41 70 58 42 70 60 48 71 58 42 70 54 41 68 51 35 66 50 34 67 49 35 65 49 33 67 50 34 65 49 33 66 50 34 65 49 33 64 45 30 61 42 27 63 42 25 64 45 28 65 48 32 66 47 32 66 44 30 65 48 32 64 51 35 66 50 34 65 47 33 68 52 37 68 52 36 65 49 33 66 49 33 65 48 32 63 46 30 62 45 29 64 47 31 64 48 32 63 50 31 64 48 32 65 48 32 65 46 32 65 46 32 66 50 34 66 49 33 64 47 31 63 46 30 60 41 26 60 38 24 59 37 23 64 42 28 64 45 30 61 47 34 
1 1 1 0 0 2 2 0 1 0 0 0 1 1 1 1 1 1 1 1 1 30 23 17 59 45 32 68 52 36 69 53 37 67 49 37 63 44 30 65 43 29 66 44 30 66 49 33 69 53 37 68 51 35 65 49 36 69 56 40 71 60 42 68 59 44 67 55 39 66 52 39 68 54 41 67 53 40 68 52 39 68 55 39 68 55 39 67 55 39 68 56 40 66 54 38 68 52 36 65 52 36 68 52 37 69 53 37 67 51 35 67 51 36 66 53 37 66 53 37 67 51 36 66 48 34 66 49 33 66 50 34 67 51 36 68 50 36 65 52 35 67 54 38 67 56 38 67 50 32 68 51 35 67 54 37 70 54 39 70 56 43 69 60 43 70 58 44 71 55 40 69 53 38 67 51 35 66 50 34 66 50 35 67 50 34 65 54 36 67 54 38 66 49 33 61 42 27 60 38 24 63 42 25 64 47 29 66 49 31 64 47 31 64 45 30 64 47 31 64 48 33 65 49 33 66 48 34 67 51 36 68 53 34 67 50 34 64 48 32 64 47 31 63 46 30 64 47 31 66 47 32 66 50 34 66 50 34 65 49 33 65 48 32 66 47 33 64 46 32 64 48 32 65 48 32 63 46 30 63 46 28 60 41 26 58 36 22 61 39 25 65 43 30 65 46 31 60 46 33 
0 0 0 1 1 1 0 0 0 1 1 1 1 1 1 1 1 0 0 0 0 1 1 1 44 31 22 66 50 35 68 51 35 65 47 33 66 44 30 64 42 28 65 43 29 66 47 32 68 50 36 68 50 36 67 51 35 67 55 39 69 61 42 67 60 42 66 57 42 69 53 38 68 55 39 66 52 39 68 52 39 68 55 39 67 54 37 66 53 37 65 53 37 67 54 37 68 52 37 67 53 40 69 53 38 69 53 38 68 52 36 66 53 36 65 52 36 66 53 36 65 52 35 67 49 35 68 50 36 68 51 35 68 52 36 70 51 37 68 52 36 68 55 39 67 56 38 66 50 34 66 50 34 67 51 36 69 53 38 69 57 41 67 58 43 69 55 42 67 54 37 69 53 38 68 52 36 67 51 35 66 53 36 68 55 39 66 55 37 67 54 38 65 47 33 60 41 27 62 40 26 63 44 27 64 47 31 65 48 32 65 46 31 64 47 31 65 48 32 65 49 33 65 50 31 68 51 33 69 53 40 68 52 39 67 50 34 62 46 30 63 46 30 64 47 31 65 48 30 64 49 30 65 49 33 65 49 33 63 50 33 64 48 32 64 45 31 63 45 31 63 45 31 64 47 31 64 47 31 63 44 29 62 43 28 61 42 25 62 43 28 64 45 31 63 46 30 60 46 33 
1 1 1 0 0 0 0 0 2 1 1 1 1 1 3 1 1 1 0 0 0 1 1 3 42 32 22 68 51 35 66 49 31 69 47 33 68 47 30 64 45 30 66 47 32 66 49 33 69 50 35 68 50 36 69 51 37 68 55 38 69 58 40 68 59 42 71 58 41 67 54 37 67 54 37 67 55 41 65 53 37 67 54 38 67 56 38 67 54 37 66 53 37 68 55 38 66 54 38 68 56 40 68 55 38 69 53 38 68 52 37 67 51 36 65 52 35 66 53 36 66 53 37 62 49 33 65 47 33 67 51 35 67 54 38 70 54 39 68 55 39 66 57 42 66 57 40 65 52 35 64 48 33 68 52 37 69 56 39 69 57 41 67 55 39 66 54 38 65 52 35 68 52 37 66 53 37 70 51 36 67 54 37 68 57 39 67 56 38 68 52 37 64 48 35 64 45 31 66 44 30 66 47 30 66 47 32 64 47 31 65 48 32 65 48 32 65 48 32 64 51 35 64 48 32 69 51 37 68 52 37 66 50 35 65 48 32 64 47 31 64 47 31 65 49 33 67 50 32 66 51 32 66 50 34 66 50 34 65 49 33 65 49 33 63 45 31 61 43 29 61 44 28 64 45 30 63 44 30 62 43 28 63 44 29 64 47 29 65 46 32 65 46 32 64 47 31 62 48 35 
2 2 2 1 1 1 0 0 2 1 1 1 1 1 1 0 0 0 1 1 1 1 1 1 41 31 21 69 52 36 67 50 34 66 50 34 67 48 31 65 47 33 65 48 32 66 47 30 68 51 35 68 52 36 69 51 37 70 52 38 70 54 38 69 57 41 69 57 41 66 54 38 70 54 39 67 59 40 65 53 37 68 55 39 68 57 39 67 54 37 66 55 37 67 54 37 69 56 40 68 56 40 68 56 40 68 55 38 68 52 36 67 51 36 68 52 37 67 54 38 67 54 38 66 50 35 65 49 33 66 53 36 69 56 40 71 55 40 68 56 40 69 57 41 69 57 41 67 55 39 65 54 36 68 55 39 69 57 41 66 58 39 69 56 40 65 53 37 65 52 36 67 51 35 68 51 35 68 51 35 67 54 37 65 57 38 68 56 40 68 51 35 65 49 34 66 47 32 67 48 31 68 47 30 69 47 33 65 49 33 63 47 31 65 49 33 68 52 36 66 48 34 64 48 32 64 48 33 65 49 34 65 49 33 65 48 32 65 46 31 63 46 28 63 47 31 65 50 31 64 51 32 66 50 34 67 51 35 65 49 33 65 50 31 63 44 30 60 41 26 60 41 26 61 42 27 64 46 26 64 45 30 64 45 30 65 46 29 66 49 33 65 47 33 65 49 33 62 50 38 
2 0 1 0 0 0 0 0 0 0 0 0 1 1 1 1 0 0 0 0 2 13 12 8 51 39 27 67 51 35 67 51 35 65 52 35 66 49 33 64 47 31 63 46 28 65 46 31 69 50 35 68 52 36 67 51 36 69 51 37 66 55 37 67 55 39 66 54 38 68 56 40 68 56 40 67 58 41 66 53 37 65 52 36 67 56 38 66 55 37 66 53 36 66 53 37 67 54 37 67 54 38 68 55 39 69 53 38 69 51 37 67 51 35 66 53 37 68 57 39 67 54 38 67 49 35 67 50 34 66 53 37 69 56 40 70 57 41 67 58 41 69 57 41 69 56 40 69 57 41 67 58 41 68 59 42 67 58 41 66 57 40 69 56 40 67 55 41 67 54 37 66 50 35 67 50 34 67 48 33 67 50 32 65 54 36 66 55 37 65 49 34 65 46 32 65 48 32 66 49 33 65 46 31 67 48 33 67 50 34 65 49 33 67 51 36 64 51 35 65 48 32 64 46 32 63 45 31 64 48 33 66 50 34 65 48 32 67 46 29 65 46 29 63 46 30 64 51 34 63 52 34 67 51 36 66 50 35 67 50 34 66 49 33 62 43 29 59 40 25 59 37 23 60 41 26 64 45 28 65 48 32 65 49 33 65 50 31 65 48 32 65 48 32 65 49 33 61 49 35 
0 0 0 0 0 0 0 2 1 1 1 1 1 1 1 1 1 1 1 1 1 50 40 28 68 50 36 67 49 35 67 54 38 64 55 38 66 50 35 63 46 30 64 45 30 65 48 32 68 50 36 67 50 34 66 53 36 69 53 38 67 54 38 66 53 37 67 51 38 69 57 41 70 58 42 65 53 39 66 48 36 67 49 35 65 52 35 66 53 36 66 53 37 66 53 37 69 53 38 68 52 36 67 51 36 67 49 35 68 50 36 68 52 36 68 57 39 68 59 44 68 56 40 70 51 37 67 49 35 67 51 36 69 56 40 69 58 40 66 57 40 67 53 40 67 51 36 68 56 42 70 58 44 68 59 42 67 58 41 70 57 41 68 56 42 68 56 40 66 53 37 65 47 33 66 47 33 66 47 30 65 48 30 64 49 30 65 52 36 66 47 32 66 43 29 65 46 31 65 49 33 66 48 34 66 49 31 64 51 32 67 51 35 66 50 35 65 52 36 66 48 34 64 45 31 65 45 34 65 47 33 67 50 34 65 49 33 66 44 30 63 44 27 64 47 31 65 52 35 67 54 37 65 52 36 65 49 34 65 46 31 61 42 27 60 41 24 57 38 23 58 36 23 60 41 24 66 47 32 66 50 34 64 51 34 64 51 35 65 47 33 65 48 32 64 48 33 60 48 34 
0 0 0 1 1 1 1 1 1 1 1 1 0 0 0 1 1 1 1 1 1 52 40 28 68 50 36 67 50 34 67 54 38 69 56 39 68 52 36 66 49 33 67 48 31 67 50 34 69 50 35 67 50 34 68 55 39 67 55 39 66 48 34 64 46 32 66 53 37 66 57 40 69 57 41 68 52 37 66 50 37 63 50 33 66 50 34 66 50 34 66 50 35 65 49 34 65 49 34 65 49 33 66 48 34 66 50 35 67 51 38 67 51 36 69 55 42 68 59 44 66 57 40 68 52 37 67 51 36 68 52 37 67 54 35 69 56 37 68 56 40 67 54 38 68 52 39 67 54 38 71 59 45 69 57 41 68 56 42 69 56 40 70 57 41 66 57 40 66 53 37 64 46 32 65 46 31 66 49 31 65 48 30 66 47 32 68 49 34 63 46 30 61 44 26 64 47 31 67 49 35 66 48 34 66 50 35 64 51 34 63 50 33 66 50 34 67 51 36 65 47 33 65 45 34 64 48 32 64 48 32 65 49 34 64 48 32 64 47 31 64 45 30 65 46 29 65 52 35 66 55 37 63 51 35 64 48 33 61 45 30 58 40 26 60 41 27 59 40 26 56 37 23 60 42 28 66 49 33 66 50 34 64 51 35 64 51 35 63 49 36 64 46 32 62 45 29 61 45 32 
2 2 2 1 1 1 2 2 2 0 0 0 0 0 0 1 1 1 1 1 1 52 40 28 66 50 34 63 47 32 66 50 34 70 52 38 68 52 37 66 53 36 68 52 36 67 50 34 66 49 31 68 53 34 67 55 39 67 51 36 64 45 31 64 47 31 67 54 37 68 59 44 67 55 41 67 51 36 68 52 37 63 50 33 66 50 35 66 50 34 66 49 33 63 47 32 66 47 32 66 49 33 65 49 33 67 49 35 68 50 36 66 53 37 68 56 40 70 58 44 69 57 41 67 54 38 67 54 38 66 53 36 66 53 37 66 53 37 67 54 38 69 53 38 66 52 39 68 54 41 66 57 42 68 56 42 67 55 41 67 54 38 67 54 38 66 54 38 67 54 37 66 49 33 66 49 33 66 49 31 65 48 32 65 48 32 65 49 33 64 47 31 63 46 30 64 47 31 66 50 34 66 53 37 67 51 36 66 50 34 66 50 34 65 49 33 63 50 34 66 48 34 65 46 32 63 47 32 65 47 33 66 48 34 64 48 32 64 47 29 61 43 29 63 46 30 65 54 36 65 53 37 63 50 33 65 48 32 62 44 30 59 40 25 62 40 27 59 40 26 56 38 24 61 44 28 65 49 33 64 51 34 65 51 38 64 51 35 62 48 35 63 44 30 62 43 28 61 45 32 
1 1 1 1 1 1 0 0 0 1 1 1 1 1 1 0 0 0 1 1 1 51 39 27 67 51 35 67 48 33 67 48 33 66 50 35 65 49 36 66 50 37 68 54 43 67 53 40 66 53 36 67 54 37 66 55 37 66 50 35 64 45 31 64 48 32 67 56 38 69 57 43 64 52 38 67 51 35 68 51 35 62 49 33 65 52 35 66 50 34 66 50 34 66 49 33 66 49 31 66 50 34 67 51 35 65 52 36 69 53 37 68 55 39 68 59 42 70 58 44 69 55 42 69 56 40 68 55 39 67 54 37 65 52 36 66 53 37 67 53 40 68 55 39 68 55 39 67 55 39 67 55 39 67 55 41 67 54 38 67 54 38 68 55 39 66 53 37 64 51 34 63 46 30 63 46 30 65 48 32 66 49 33 66 47 32 66 49 33 63 50 33 64 49 30 64 47 31 65 49 33 64 53 35 67 51 36 66 48 34 64 47 31 64 47 31 66 50 34 66 48 34 64 46 32 65 47 33 63 45 31 65 47 33 64 48 32 63 47 32 62 44 30 62 44 30 64 51 35 64 52 36 62 49 32 65 48 32 63 44 29 61 42 27 62 40 26 58 39 25 59 40 26 63 44 29 64 47 31 66 50 34 64 51 35 65 49 34 63 47 32 63 44 29 65 46 31 60 46 33 
1 1 1 0 0 0 2 2 2 0 0 0 1 1 1 1 1 1 0 0 0 52 40 28 68 50 38 68 48 37 68 49 35 66 47 32 65 49 33 67 58 41 69 60 43 69 53 38 66 53 37 65 53 37 66 53 37 66 50 34 65 48 32 66 51 32 69 58 40 69 55 42 63 49 36 66 49 31 66 49 33 63 50 34 66 53 37 66 55 37 66 53 36 67 50 34 67 51 36 68 52 37 69 53 38 68 55 39 67 54 38 67 54 38 69 57 41 68 59 42 66 57 40 69 56 40 69 56 40 66 53 37 68 52 37 66 53 37 68 56 40 68 55 39 66 57 42 67 58 41 68 55 39 68 55 38 68 55 38 67 54 38 67 54 38 69 52 36 67 50 34 65 48 32 65 48 32 66 48 34 66 49 33 65 48 32 66 49 33 67 51 35 66 50 34 64 47 31 65 48 32 67 51 35 66 48 34 64 45 30 64 45 30 62 45 29 64 46 32 65 47 33 65 47 35 64 48 33 64 45 31 65 49 34 65 49 33 65 49 36 64 48 32 64 48 33 65 49 34 64 48 33 66 47 33 64 45 30 64 46 26 62 43 26 59 40 23 59 40 25 61 42 27 63 46 30 64 48 32 64 51 35 65 49 34 64 48 33 63 45 31 64 46 32 64 48 32 58 49 34 
