P3
100 50
255
82 20 21 84 16 15 83 70 61 84 80 71 83 78 72 83 32 29 80 15 13 81 15 16 82 17 15 85 55 47 84 77 69 82 78 69 82 45 39 81 9 10 81 9 12 84 12 13 84 12 13 81 13 12 79 15 13 80 16 16 81 15 16 81 16 14 83 15 16 82 14 13 80 14 16 83 21 22 86 28 27 84 26 25 83 17 18 82 14 13 83 19 19 83 22 19 82 22 22 83 61 50 85 79 65 82 74 61 82 70 58 80 39 33 79 9 11 82 10 11 82 12 12 81 36 31 83 75 64 82 73 64 83 63 54 85 19 20 85 17 16 85 15 15 84 16 17 83 15 16 83 13 13 82 17 15 82 17 15 83 19 17 84 20 21 85 19 21 85 19 20 83 15 14 83 13 13 83 13 13 84 15 18 83 17 18 82 16 17 81 13 14 82 12 12 80 35 30 82 76 64 83 73 61 82 72 60 82 55 48 83 13 15 81 13 12 83 17 18 82 78 69 86 81 77 85 78 72 82 16 17 82 16 17 82 14 15 81 13 14 77 8 11 80 14 15 85 21 21 43 22 19 20 20 20 17 17 17 14 14 14 15 13 14 15 15 15 13 13 13 15 14 10 21 19 20 18 18 18 11 11 11 14 14 14 13 13 13 14 14 14 15 15 15 13 13 13 11 11 11 
83 19 17 83 77 61 80 77 62 81 79 66 83 79 67 83 79 68 81 32 28 82 17 15 84 14 14 81 52 44 84 78 66 83 79 67 85 47 44 81 13 14 81 11 11 82 12 12 82 12 12 79 9 9 80 12 11 83 17 18 79 18 15 81 15 16 81 20 17 84 76 63 83 15 16 84 20 20 84 76 65 84 78 66 82 22 21 82 14 11 82 17 15 83 20 15 86 22 22 87 56 51 85 76 61 82 74 61 81 73 62 79 40 35 81 11 11 81 13 12 82 12 12 82 35 29 82 74 63 84 60 50 85 19 20 85 21 21 85 17 16 87 19 20 81 20 19 80 16 16 84 16 17 80 19 18 85 21 21 81 15 16 80 15 13 83 17 18 85 23 24 83 21 22 83 15 16 82 52 44 83 75 62 82 45 39 82 16 17 82 17 15 82 37 31 79 73 59 81 74 58 82 73 58 83 69 56 81 52 44 77 11 12 81 11 11 81 11 9 83 18 22 80 19 18 84 77 67 82 17 15 82 18 16 84 14 16 81 11 13 76 10 11 77 11 12 37 19 19 21 21 19 19 19 19 18 18 18 16 16 16 14 14 14 12 12 12 10 12 11 14 14 14 17 17 17 16 16 16 13 13 13 14 14 14 15 15 15 16 16 16 12 12 12 8 8 8 10 10 10 
79 18 17 82 76 62 82 76 62 82 76 62 83 77 65 84 35 31 83 19 19 83 18 16 83 15 16 81 15 16 82 17 15 82 18 18 82 16 17 84 14 16 81 13 12 81 13 14 82 12 12 80 10 10 83 11 14 83 17 18 83 19 20 79 17 18 82 14 15 84 20 18 82 14 13 83 65 55 81 71 59 84 76 65 85 72 63 83 71 57 81 25 24 82 16 17 84 18 19 83 52 47 84 71 62 81 73 60 81 73 60 81 40 34 82 10 11 82 12 12 81 13 14 79 15 15 81 21 20 82 22 21 81 19 20 84 20 21 84 18 19 86 22 22 82 18 16 83 15 16 81 15 16 83 19 19 83 19 20 82 16 17 81 16 14 83 15 14 83 21 22 85 27 25 85 52 47 81 68 59 81 73 60 82 45 39 81 15 17 82 17 15 81 21 20 81 42 35 78 70 57 82 70 56 84 57 48 84 23 22 82 12 12 81 9 10 81 11 11 81 16 14 81 17 17 82 24 23 85 17 16 81 15 16 83 13 13 83 13 13 79 11 12 31 11 10 20 16 15 20 20 20 17 17 17 17 17 17 16 16 16 14 14 12 12 12 12 11 11 13 13 13 13 15 15 13 15 17 16 13 13 13 16 14 15 14 14 14 12 14 13 9 9 9 6 6 6 8 8 8 
80 12 13 84 20 18 82 23 19 82 65 57 84 31 27 84 20 20 83 13 13 82 13 16 83 13 15 81 10 8 81 9 10 79 8 6 82 8 9 82 12 12 82 14 15 82 14 15 82 12 12 83 11 12 83 29 27 82 68 59 82 68 59 80 60 49 81 17 17 83 13 13 83 13 13 81 20 17 78 68 56 83 75 62 84 77 67 80 26 24 80 14 15 81 15 16 40 20 21 26 20 20 60 53 43 81 38 31 82 16 17 82 10 11 82 12 14 80 14 15 82 14 13 82 12 12 82 12 12 84 12 13 85 17 18 84 18 22 85 21 21 87 19 18 85 17 18 85 15 15 79 18 17 84 70 61 83 69 58 83 23 22 84 14 16 85 17 18 85 19 21 86 24 25 84 57 48 81 73 60 79 71 58 81 44 36 80 14 15 82 16 18 83 19 20 80 20 19 60 20 18 38 33 30 81 56 49 82 16 18 83 15 14 80 12 11 80 10 12 82 12 12 80 16 16 83 17 18 85 17 18 83 15 16 82 14 13 83 12 10 35 11 11 15 11 12 14 14 14 18 16 17 18 18 18 17 17 17 15 15 15 13 13 13 11 11 11 12 12 12 13 13 13 13 13 13 13 13 13 14 14 14 14 14 14 14 12 13 11 11 11 9 7 8 3 3 3 8 6 7 
21 13 11 26 16 17 73 19 17 83 28 25 82 18 18 83 15 14 83 13 13 81 11 11 83 11 12 83 11 12 82 10 11 79 7 8 80 8 9 80 10 8 83 15 16 83 15 14 60 12 12 21 13 11 41 30 28 84 78 66 83 77 65 82 68 59 82 16 17 81 13 12 82 10 11 82 12 12 81 71 59 83 74 59 83 75 64 78 20 18 80 12 11 81 15 16 35 19 20 19 19 17 19 19 19 62 16 16 84 10 11 82 10 11 80 12 11 81 13 12 83 15 14 83 15 16 82 14 13 83 15 16 81 15 16 81 17 15 83 17 18 84 16 15 85 17 16 25 16 17 80 70 60 85 79 67 81 79 66 81 69 57 84 22 23 85 17 18 84 19 17 84 18 19 84 55 47 80 70 58 79 70 53 77 43 34 80 14 15 81 15 16 82 18 18 61 17 18 19 15 16 14 14 14 40 22 22 81 15 16 84 16 15 77 11 13 78 10 11 81 10 8 79 13 14 81 17 17 84 18 19 86 18 19 84 16 15 82 14 11 29 13 13 13 13 13 16 14 15 19 19 19 19 17 18 15 13 14 13 13 13 14 12 13 13 11 12 13 11 12 14 12 13 15 13 14 14 14 14 13 11 12 14 12 13 12 12 12 12 12 12 9 9 9 7 5 6 6 6 6 
13 13 13 65 20 17 83 23 23 83 23 23 80 14 15 80 12 11 80 12 11 80 12 11 82 12 12 84 12 13 84 12 13 82 34 32 81 56 49 80 58 47 81 46 40 67 17 16 22 12 13 26 12 12 71 30 28 82 76 62 82 76 64 83 67 54 82 14 15 77 11 12 83 11 12 84 14 14 79 29 22 82 28 26 83 29 27 80 14 15 81 15 16 80 14 15 34 16 14 17 17 17 45 17 16 77 13 13 80 10 10 80 10 10 81 11 11 82 12 12 81 16 14 83 15 14 82 27 24 82 59 53 83 59 49 83 61 50 84 61 53 84 16 17 85 15 15 15 13 16 81 77 66 83 79 68 83 78 72 82 76 64 83 25 24 81 17 17 80 14 15 82 16 17 82 52 44 80 70 60 81 44 35 80 20 19 81 15 16 83 15 14 83 17 18 57 15 16 15 15 15 29 15 15 69 18 17 82 16 17 81 15 16 78 10 9 78 10 11 80 8 11 80 52 41 77 59 45 84 61 55 83 64 57 84 26 25 83 17 18 31 15 15 15 15 15 16 14 17 17 16 14 16 14 15 13 13 13 12 12 12 12 12 12 12 10 11 13 11 12 14 14 14 15 15 15 15 13 14 12 12 12 11 11 11 12 12 12 11 9 10 11 11 11 9 9 9 8 6 7 
65 15 14 82 16 17 82 21 20 81 19 20 82 12 10 80 8 9 79 11 10 82 12 10 83 13 13 83 13 13 84 41 35 82 68 59 80 74 60 81 75 61 81 54 45 75 15 15 49 13 13 31 13 13 84 26 24 80 72 61 81 71 59 81 63 51 80 12 13 81 11 13 82 14 15 83 13 13 81 13 14 81 13 12 82 16 17 81 16 14 80 14 15 80 14 15 68 12 13 64 14 13 78 14 12 81 13 12 79 34 28 81 57 47 82 34 30 82 12 12 83 13 13 79 13 14 80 30 29 81 71 59 81 75 59 84 77 61 81 68 59 81 13 12 85 15 15 64 12 14 81 27 25 82 78 67 82 75 65 78 37 31 81 16 14 81 15 17 80 14 15 80 16 16 80 26 24 80 26 24 80 15 13 81 11 11 81 13 12 81 13 14 81 13 12 73 13 15 66 15 14 71 12 14 84 14 16 82 14 13 81 13 12 79 9 11 77 7 9 79 9 9 80 68 56 79 76 59 82 78 67 83 79 68 86 26 26 43 17 18 20 16 17 15 15 13 14 14 12 12 12 12 9 9 9 10 10 10 10 10 10 10 10 12 10 10 10 12 12 12 14 14 14 14 14 16 13 13 13 10 8 9 11 11 11 12 12 12 12 12 12 13 11 12 13 11 12 7 7 7 
81 15 16 79 14 12 84 16 15 81 15 16 82 55 46 81 58 50 79 59 52 81 25 24 83 15 14 82 14 13 83 53 45 82 75 65 83 75 64 79 75 63 77 53 43 83 13 13 73 12 11 70 11 13 83 15 12 81 26 23 79 26 20 79 21 19 81 11 13 82 14 13 84 16 17 83 13 13 80 12 9 82 12 14 80 14 16 81 13 14 81 13 12 79 11 10 78 10 9 78 10 11 81 13 10 81 38 31 83 65 55 82 74 63 83 69 60 82 45 39 81 11 11 82 14 11 80 29 26 83 71 59 80 72 59 82 75 59 83 63 52 80 12 13 82 12 12 81 13 14 83 11 12 82 28 26 81 25 24 81 13 14 83 15 12 82 14 15 83 15 12 81 17 17 82 16 17 80 12 11 82 8 7 80 10 8 81 9 12 81 9 10 80 10 10 81 13 12 81 28 24 82 60 49 82 57 50 83 58 51 83 53 43 79 11 12 79 7 10 77 7 7 79 70 55 83 77 65 82 80 67 84 77 67 84 25 21 24 16 14 15 15 15 13 13 11 11 9 10 9 9 9 7 7 7 7 7 7 9 9 9 11 11 11 11 11 11 12 12 12 14 14 14 13 13 13 13 11 12 11 11 11 11 11 11 14 12 13 13 13 13 13 13 13 8 10 9 9 7 8 
81 16 14 81 13 12 81 13 12 83 50 41 82 74 63 81 75 61 80 71 64 81 27 25 82 14 13 82 14 15 81 28 24 82 55 46 81 74 64 80 55 48 82 28 26 81 11 11 81 11 11 80 12 13 81 13 14 80 9 13 80 10 10 80 12 13 77 11 12 83 13 15 81 13 14 80 12 13 81 13 14 81 13 12 82 14 13 82 12 12 80 12 11 77 9 8 79 11 10 81 13 12 82 14 13 82 52 42 81 75 59 80 76 64 82 75 65 81 52 46 81 13 14 82 14 13 83 19 19 79 46 39 78 71 53 80 68 54 80 31 26 80 10 10 81 11 11 79 13 14 82 12 12 80 8 9 79 9 11 79 9 11 82 14 15 82 14 13 80 14 15 82 18 18 82 18 18 81 36 31 81 48 39 80 50 42 80 31 26 80 10 10 83 13 13 82 16 17 82 37 32 81 73 60 82 74 63 83 73 63 80 66 55 79 11 12 82 8 9 79 8 6 82 33 28 82 76 64 80 78 65 79 75 63 43 24 20 20 15 12 13 13 13 14 14 14 10 12 11 8 6 7 6 6 6 5 5 5 7 7 7 11 11 9 12 12 12 13 13 15 13 13 13 13 13 11 12 12 12 11 11 11 12 10 11 12 12 12 14 12 13 12 12 12 9 7 8 6 6 6 
82 14 13 79 11 12 83 11 12 82 68 57 85 75 63 81 73 60 80 72 59 82 29 25 80 14 15 83 13 13 81 10 14 81 21 20 81 33 29 81 23 21 82 12 12 81 13 12 82 12 14 83 11 14 82 12 14 79 9 11 79 9 9 79 11 12 78 12 13 82 14 13 77 13 13 76 10 12 81 13 14 81 13 12 81 48 41 81 51 43 80 47 40 77 17 16 80 10 10 82 12 14 83 15 14 82 55 46 81 78 63 78 76 61 81 56 49 81 30 27 83 15 14 81 15 16 83 15 16 77 17 16 79 34 28 81 32 27 80 12 13 80 10 12 81 9 10 81 11 9 83 11 12 80 10 10 81 11 11 81 11 13 82 14 13 80 16 17 79 15 15 81 16 14 83 19 19 83 53 45 82 75 59 79 76 61 81 61 50 81 32 28 83 15 16 82 18 18 81 23 21 79 46 37 83 73 63 83 75 64 82 68 57 79 11 10 79 7 8 80 8 9 81 9 12 83 35 31 82 37 32 43 36 30 16 15 13 12 12 12 12 12 10 12 12 12 11 11 11 10 8 9 8 8 8 7 5 6 10 8 9 14 12 13 15 15 15 14 14 14 13 11 12 14 12 13 12 12 12 12 12 12 12 12 12 11 9 10 12 12 12 10 12 11 8 8 8 6 6 6 
81 9 10 80 10 10 81 13 12 84 35 31 80 70 60 83 73 63 83 42 38 82 22 21 82 16 17 83 13 13 81 11 11 81 11 11 81 11 11 79 14 12 82 14 15 83 13 15 84 12 15 81 11 11 81 13 14 76 10 11 79 11 10 78 48 38 77 44 37 80 14 15 72 12 11 76 10 11 82 12 10 80 14 15 82 68 57 85 79 65 79 71 60 80 26 24 82 14 13 83 13 13 82 14 13 80 29 25 83 56 49 82 55 48 82 24 22 82 14 15 82 14 11 80 14 15 83 13 15 81 13 12 78 13 11 81 13 14 79 11 10 80 12 13 82 12 12 80 10 10 81 9 10 81 11 11 83 13 13 81 48 41 82 51 46 82 24 23 80 14 15 83 15 16 83 17 18 82 52 44 80 73 57 80 74 58 81 73 60 81 61 52 83 38 35 82 16 17 81 13 12 80 16 16 81 36 31 82 37 32 81 32 28 78 10 9 83 9 10 80 10 10 80 10 10 39 11 10 38 9 11 15 9 9 10 10 10 11 9 10 11 11 13 12 10 11 10 10 8 9 9 9 8 8 8 7 7 7 10 10 10 17 17 17 17 17 17 14 14 14 10 10 10 10 10 10 10 10 10 11 11 13 12 10 11 8 8 6 10 10 10 12 10 13 10 8 11 7 7 7 
82 10 11 80 10 10 81 10 14 82 14 13 81 42 35 82 44 41 83 23 22 83 15 16 83 13 13 82 12 12 82 12 12 81 13 14 80 14 15 81 15 16 84 16 17 82 12 12 82 10 11 81 11 11 79 13 14 81 13 12 78 17 14 79 70 55 83 67 54 79 38 34 40 12 11 79 11 10 83 13 15 80 14 15 82 69 60 83 81 69 80 73 63 80 29 28 83 15 14 83 15 16 81 13 14 81 13 12 82 28 26 83 29 27 83 15 14 82 14 15 70 12 11 47 13 12 54 12 13 81 13 12 82 12 14 82 12 12 82 10 11 81 11 13 82 10 13 82 10 11 80 10 10 82 14 13 82 41 37 82 72 62 82 78 67 83 32 31 83 15 14 82 12 14 81 16 14 82 33 28 78 60 46 79 72 54 79 71 60 81 71 61 83 54 48 83 17 18 81 11 11 81 13 12 82 14 15 81 16 14 79 11 12 79 7 8 78 8 10 46 10 10 45 11 12 10 10 10 9 9 9 11 11 11 10 10 10 9 9 9 11 11 11 11 11 9 10 10 10 10 8 11 10 10 10 10 10 10 13 13 13 18 18 18 18 18 18 14 14 14 11 11 11 9 9 9 8 8 8 12 10 11 11 9 10 7 7 7 7 7 7 11 11 11 10 10 10 8 8 8 
82 12 12 81 11 11 80 10 10 81 13 12 81 16 14 82 16 17 83 17 18 55 14 12 47 11 11 47 11 13 71 12 14 81 15 16 82 16 17 82 33 29 84 46 43 81 31 30 81 11 11 79 11 12 79 14 12 81 21 20 80 46 37 80 71 56 80 68 56 79 62 52 10 10 10 48 14 13 50 14 16 76 16 16 83 70 61 83 79 68 84 77 67 81 30 27 82 16 17 84 18 19 82 16 17 83 15 14 84 14 14 83 15 16 81 15 16 82 14 13 56 12 11 11 11 11 20 12 10 54 12 13 80 12 13 84 16 17 83 44 39 80 39 33 81 13 12 82 12 14 78 13 11 85 15 15 85 71 58 85 78 68 84 80 69 83 54 48 82 22 22 58 14 15 46 14 15 68 12 11 80 47 40 78 69 54 79 55 45 82 43 38 84 36 34 84 15 18 82 12 12 81 11 13 83 13 13 82 14 15 82 12 12 80 8 9 72 11 10 12 12 12 10 10 10 11 9 10 12 10 11 13 11 12 12 12 12 11 11 11 11 11 11 11 11 11 13 11 12 13 13 11 13 13 13 13 13 13 15 15 15 16 16 16 15 15 15 13 13 13 12 12 12 9 9 9 7 7 7 8 6 7 8 6 7 9 7 8 7 7 7 12 10 11 11 11 11 9 9 9 
81 11 11 81 11 13 81 9 10 82 12 12 83 15 14 85 17 16 82 39 33 30 20 19 10 10 10 11 11 11 55 13 14 83 15 16 83 19 17 82 47 41 84 76 65 80 61 54 81 30 27 80 12 11 81 13 12 81 21 20 79 46 37 79 69 57 78 66 54 80 62 52 10 12 9 13 13 13 14 14 14 74 16 15 83 44 39 82 49 44 83 50 45 83 25 21 83 17 18 82 18 18 82 18 18 82 17 15 83 13 13 82 14 15 83 15 14 82 14 13 57 13 14 13 11 12 21 11 10 53 13 13 81 20 19 83 46 38 82 76 64 80 66 53 82 14 13 82 12 14 82 13 16 82 14 13 83 70 61 81 77 66 84 80 68 83 75 64 82 31 27 31 13 13 35 13 15 68 12 13 81 28 24 80 39 33 81 26 23 81 15 16 83 17 18 80 16 16 81 11 11 82 10 13 81 11 11 81 11 11 81 11 13 80 9 7 72 11 10 12 14 11 11 11 13 10 10 10 11 11 11 12 12 12 11 11 11 11 11 11 11 11 11 12 10 11 14 12 13 14 14 14 15 15 15 15 15 15 15 15 15 14 14 14 13 13 13 12 12 12 10 10 10 8 8 8 7 7 7 7 7 7 9 9 9 10 10 10 8 10 7 11 9 10 12 10 11 44 10 11 
80 10 12 82 12 12 81 9 10 83 11 12 83 15 14 85 37 33 81 67 58 29 28 26 12 12 14 29 11 11 64 13 12 81 16 14 83 28 25 82 58 48 82 74 63 82 72 62 80 47 40 77 11 12 81 13 12 81 15 16 80 14 15 77 47 37 81 44 36 80 43 37 36 10 9 37 11 12 40 12 11 77 13 13 82 16 17 79 19 19 83 19 20 83 17 18 84 16 17 83 15 16 81 15 16 82 14 13 83 13 15 81 26 23 84 39 34 82 38 35 65 30 28 40 16 16 47 13 12 78 12 13 80 29 25 79 72 56 81 73 60 79 65 52 81 15 16 82 12 14 82 14 15 82 14 15 83 50 43 80 71 62 81 79 67 83 58 51 82 27 24 53 14 15 64 14 15 82 14 15 80 12 11 79 11 10 81 11 11 82 14 15 81 16 12 79 13 14 81 11 11 80 10 8 81 16 14 82 33 28 81 34 28 80 32 28 74 31 25 13 11 12 11 9 10 9 9 7 11 11 9 10 10 10 10 10 10 11 11 11 11 9 10 12 10 11 14 12 13 13 13 13 14 14 14 16 16 16 16 16 16 12 12 12 12 12 12 11 11 11 9 9 9 7 7 7 8 8 8 10 8 9 10 10 10 10 10 10 10 10 10 9 9 9 11 11 11 53 9 10 
82 37 32 81 13 12 80 10 10 79 11 10 82 34 30 82 68 57 81 79 67 51 51 43 21 21 21 58 12 14 81 11 11 83 13 13 81 32 28 79 61 51 80 72 61 82 72 62 81 46 40 79 11 12 81 13 14 82 17 15 81 11 11 80 10 10 81 11 11 80 10 10 79 9 7 81 7 8 80 9 7 81 13 14 81 15 16 83 19 19 81 17 17 85 17 18 82 13 16 82 10 11 82 10 11 81 11 11 82 14 15 82 44 41 82 75 67 83 76 66 83 54 46 83 17 19 81 17 18 78 17 16 82 31 28 79 69 57 82 70 56 81 63 53 81 15 16 83 15 16 83 13 13 85 17 18 82 17 15 82 49 44 83 54 46 81 30 26 83 19 19 81 17 17 82 18 18 81 15 16 80 12 13 79 11 12 80 12 13 80 12 9 78 13 11 79 11 10 81 11 11 80 10 10 79 24 19 78 68 56 78 72 56 81 75 63 69 65 54 12 10 11 11 11 9 12 12 12 11 11 9 9 11 10 9 9 11 10 8 9 14 10 9 14 14 14 14 14 16 14 14 14 14 14 14 15 15 15 11 11 11 9 9 9 9 9 9 11 11 11 8 8 8 6 6 6 9 7 8 13 11 12 11 11 9 11 10 6 11 11 11 11 11 11 10 10 12 9 7 8 
80 77 62 81 38 32 83 17 18 81 13 12 81 69 57 83 77 65 84 80 68 82 78 66 56 52 43 64 18 18 82 12 12 81 13 14 82 14 15 81 42 37 81 71 61 83 65 53 82 34 30 79 7 8 80 12 11 82 14 13 81 13 14 81 9 10 81 9 12 80 10 10 79 9 7 79 7 8 78 8 8 81 11 11 80 14 15 82 18 19 81 32 27 82 39 32 81 36 31 80 19 16 81 9 10 80 10 10 82 12 12 83 43 41 82 75 65 80 76 64 82 53 47 81 17 17 82 18 18 83 17 18 84 26 25 81 52 46 80 50 42 82 47 41 82 18 18 81 15 16 82 14 15 82 14 13 82 16 17 83 19 20 84 18 19 83 17 18 84 20 20 81 20 19 82 21 20 82 16 17 82 12 14 80 22 20 80 33 27 80 33 25 80 33 27 79 26 22 78 10 11 80 10 10 80 25 20 79 70 55 78 70 57 77 69 58 53 46 38 10 10 10 13 13 15 14 12 13 11 9 12 12 10 11 9 9 9 8 8 10 13 11 12 17 15 16 17 15 16 13 13 13 14 14 14 13 13 13 9 9 9 7 7 7 8 8 8 8 8 8 7 7 7 7 7 7 11 9 10 14 14 14 13 13 13 10 10 10 11 11 9 12 12 10 10 9 7 10 8 9 
83 77 65 82 79 64 83 21 22 81 13 14 82 55 48 81 71 61 85 77 64 83 75 64 83 67 54 82 29 23 81 13 14 82 12 14 81 13 14 79 34 31 81 56 49 79 40 35 80 14 15 81 9 10 78 13 11 81 13 14 81 13 14 81 11 11 81 11 9 80 10 10 76 21 16 78 6 9 78 10 11 80 12 13 81 15 16 80 26 24 83 61 48 82 76 64 82 76 62 82 35 29 80 10 10 82 10 11 81 13 12 82 43 36 82 74 63 81 75 63 81 50 45 82 16 17 82 17 15 81 17 18 81 19 20 83 18 22 84 18 19 85 17 18 82 16 17 79 15 16 82 14 15 81 13 12 80 14 16 82 18 18 84 20 18 82 18 18 82 20 21 83 23 23 83 21 22 80 16 16 83 15 14 81 42 35 79 70 55 80 67 51 81 68 52 78 45 36 78 10 11 78 12 13 80 22 20 82 60 49 80 68 56 69 63 51 10 10 10 11 9 10 11 11 13 12 10 11 11 11 11 11 10 8 10 10 8 13 11 12 14 14 16 19 15 16 17 15 16 15 15 15 14 14 14 14 14 14 10 10 10 7 7 7 6 6 6 7 7 7 7 7 7 10 10 10 13 13 13 14 12 13 15 14 12 11 11 9 10 9 7 11 11 11 8 10 9 9 9 11 
65 63 51 84 78 64 81 21 20 83 13 15 81 15 16 80 47 40 81 56 49 82 59 51 82 31 28 82 16 17 80 16 16 81 16 14 80 14 15 82 14 13 81 15 16 80 19 18 79 13 14 79 9 11 77 13 11 80 14 15 82 14 13 82 14 13 80 12 11 78 27 24 77 63 50 81 23 21 77 12 10 80 15 13 78 17 16 80 51 43 80 66 55 80 73 57 80 72 59 81 32 28 82 12 12 82 12 14 82 14 15 82 34 30 80 56 46 81 56 51 82 39 33 83 15 16 84 16 17 86 18 17 83 19 20 82 21 20 84 23 22 82 21 20 83 15 16 78 12 13 80 15 13 82 14 15 80 15 13 82 18 18 84 30 28 83 34 30 83 34 30 83 27 26 83 23 23 82 18 18 84 14 14 81 42 35 82 72 60 81 69 57 80 64 51 78 35 28 81 11 13 81 11 9 81 11 11 80 21 17 78 51 42 53 46 38 9 9 9 9 9 9 12 12 14 12 11 9 11 11 11 12 12 12 9 9 9 12 10 11 14 14 14 16 16 16 16 16 16 16 16 16 15 15 15 15 15 15 10 10 10 7 7 7 7 7 7 6 6 6 9 9 7 11 11 11 14 14 14 16 14 15 17 17 15 12 12 12 9 7 8 8 8 6 8 8 8 9 9 7 
13 13 15 65 61 50 75 15 14 82 12 14 81 13 12 80 12 11 81 13 12 82 14 13 80 16 16 82 18 18 83 15 16 82 14 13 81 16 14 80 14 15 77 15 16 66 16 17 67 16 13 79 21 17 81 13 12 83 15 16 80 15 13 84 16 17 84 20 21 81 71 61 80 66 53 79 60 45 81 13 14 81 12 15 81 17 17 80 19 18 79 54 47 77 65 49 80 58 45 82 27 24 79 14 12 79 15 15 80 15 13 79 15 15 79 14 12 81 13 12 82 14 15 78 14 15 77 15 16 80 16 14 80 16 16 84 18 20 84 23 22 84 33 32 82 31 28 79 28 24 63 13 14 79 13 14 80 16 16 80 16 16 83 69 60 82 76 62 82 74 63 84 36 32 82 20 21 82 18 18 82 14 15 80 37 30 82 65 55 81 64 54 80 37 31 80 10 10 80 10 10 81 11 9 80 10 12 78 10 9 68 6 7 9 7 8 9 7 8 11 11 11 13 13 13 29 11 9 12 12 10 13 13 11 10 10 10 11 11 11 13 13 13 18 16 17 18 18 18 19 17 18 15 15 15 14 14 14 11 11 11 8 8 8 7 7 7 7 7 7 8 8 8 9 9 9 14 12 13 16 16 16 18 18 18 11 11 11 5 5 5 5 5 5 10 8 9 10 8 9 
11 9 10 11 11 11 65 10 13 83 13 13 81 13 12 81 11 13 81 11 11 81 13 12 81 15 16 81 17 17 81 16 14 81 15 16 82 14 15 76 15 14 54 15 16 14 14 16 31 31 23 70 50 39 76 12 12 83 15 16 81 17 15 82 14 15 80 19 18 82 73 64 79 70 55 81 62 48 81 13 12 79 13 14 81 16 14 82 14 15 76 43 36 76 58 44 81 26 23 79 13 14 72 12 12 77 13 14 78 14 14 77 13 13 78 12 13 81 11 11 78 13 11 74 14 14 76 12 12 82 14 13 80 14 15 82 16 17 82 27 24 81 73 62 83 77 65 74 70 59 14 14 14 70 16 16 80 16 17 81 16 14 82 65 55 81 75 59 82 74 61 83 34 30 83 19 17 82 16 17 83 15 16 80 16 14 82 41 37 82 39 33 82 12 12 75 11 11 71 9 10 75 11 11 77 9 8 71 7 8 59 8 7 8 8 8 11 9 10 14 12 15 21 13 11 81 9 12 14 14 14 14 13 11 11 11 11 11 11 9 14 14 14 16 16 16 17 17 17 16 16 16 14 14 14 14 14 14 10 10 10 7 7 7 9 9 9 10 10 10 7 7 7 8 8 8 13 13 13 15 13 14 15 13 14 10 8 9 5 5 5 5 5 5 10 8 9 10 10 10 
10 12 11 12 10 11 21 11 10 72 12 11 80 12 13 83 13 15 80 12 11 81 21 20 82 22 21 81 23 21 82 18 18 81 12 15 82 14 15 50 16 15 18 16 17 14 14 14 12 10 11 10 10 8 30 12 12 82 14 13 82 18 18 82 14 13 81 17 17 82 64 54 76 56 45 76 53 39 79 9 7 80 12 11 78 14 14 78 12 13 77 13 13 78 12 13 73 13 13 35 13 15 11 11 9 55 13 14 82 14 15 78 14 14 80 12 13 80 14 15 76 18 16 74 18 17 79 15 15 81 9 10 82 14 15 82 16 17 82 23 25 80 73 57 80 74 58 15 15 13 15 15 15 25 15 16 75 15 15 81 16 14 79 54 49 81 64 54 81 64 56 81 30 29 83 17 18 82 16 17 83 15 16 81 17 17 83 15 16 81 11 11 81 11 11 53 8 11 10 8 11 29 11 11 73 9 9 55 7 7 8 8 6 10 10 8 10 10 12 11 11 11 82 18 18 71 9 10 13 13 15 14 14 14 14 14 14 14 14 12 14 14 14 14 14 14 13 13 13 12 12 12 12 12 12 12 12 14 11 11 11 9 9 9 9 9 9 10 10 10 6 6 6 7 7 7 13 11 12 14 14 14 13 13 13 9 9 9 5 5 5 7 7 7 9 7 8 9 9 9 
19 11 9 20 19 17 72 12 11 83 13 13 81 16 14 80 14 16 80 11 14 78 56 43 78 71 55 79 71 60 79 38 32 79 15 13 81 11 11 53 15 14 19 15 14 13 11 12 10 10 10 10 10 10 29 11 11 82 14 13 81 15 16 80 12 11 81 10 8 79 11 10 73 9 9 78 8 8 79 7 8 80 10 10 79 11 10 80 10 10 81 11 11 77 12 10 31 13 13 13 13 13 15 11 12 60 12 10 82 13 16 80 14 15 81 18 13 79 36 30 76 64 52 76 66 54 80 56 46 80 9 7 82 12 12 84 14 14 81 21 20 80 68 52 82 70 56 16 16 16 25 15 16 82 14 15 83 15 12 80 15 13 80 16 16 79 15 15 80 14 15 79 18 17 83 17 18 83 17 18 81 17 17 81 15 16 81 13 14 81 11 13 82 10 11 56 10 10 14 8 8 30 8 10 66 6 6 14 10 9 10 10 10 9 9 7 8 8 10 9 9 11 73 67 55 11 11 11 10 10 10 14 14 14 15 15 15 16 14 15 14 14 14 15 15 15 13 13 13 12 12 12 11 11 11 10 10 12 9 9 9 9 9 9 8 8 8 8 8 8 8 8 8 7 7 7 8 8 10 14 12 15 13 13 13 7 7 7 4 4 6 7 7 7 8 8 8 10 8 9 
80 10 10 80 74 60 78 20 18 80 14 15 81 16 14 84 14 16 82 12 12 81 54 45 81 69 55 79 70 55 83 71 59 79 41 32 81 11 9 82 12 12 55 13 15 11 11 13 9 9 9 10 10 10 29 11 11 81 11 11 81 13 10 79 11 12 79 9 9 77 9 10 71 10 9 78 8 8 79 7 8 80 6 7 79 9 11 80 10 10 78 10 11 80 12 11 29 11 11 12 12 12 55 11 10 81 13 12 82 14 15 80 14 15 81 42 37 80 70 60 76 66 54 77 67 55 78 55 47 82 8 9 82 11 9 82 12 12 81 20 19 81 68 52 80 66 53 12 14 13 84 16 17 83 13 13 77 16 15 80 14 16 82 17 15 81 15 17 82 17 15 82 16 17 80 16 16 81 17 17 80 19 18 80 14 16 81 13 12 83 13 13 82 12 10 56 10 10 36 10 11 80 8 9 78 8 10 65 9 10 9 11 8 8 8 8 9 9 9 10 10 12 10 10 10 10 10 10 10 10 10 12 12 12 14 14 14 16 14 15 17 17 17 18 18 18 15 15 15 13 13 13 12 12 12 10 10 10 8 8 8 9 9 9 10 10 10 9 9 9 10 10 10 8 8 8 9 9 9 13 11 12 12 12 12 6 6 6 8 6 7 10 8 9 11 9 12 10 10 10 
78 69 54 80 72 59 83 77 63 83 22 21 83 15 14 79 13 14 81 13 12 81 54 47 80 70 58 79 72 56 79 69 57 81 42 37 80 12 11 84 14 14 54 12 13 10 10 10 10 10 10 28 12 12 82 12 12 79 11 12 80 10 10 78 8 10 79 7 8 79 9 9 73 12 11 79 7 8 80 6 7 78 6 7 80 9 13 80 10 8 81 11 11 79 11 12 79 57 46 79 71 58 79 70 55 81 36 30 80 16 14 83 18 16 83 42 38 80 68 56 81 69 57 78 72 60 79 56 48 80 10 10 81 11 11 80 12 11 82 14 15 79 13 17 80 14 15 80 14 15 82 12 12 81 15 16 79 15 15 82 17 15 82 18 16 82 18 18 81 17 17 82 16 17 82 16 17 82 16 17 82 17 15 82 14 13 81 13 14 84 44 42 82 75 65 79 71 58 77 44 35 79 11 12 80 10 10 79 11 12 69 9 9 8 6 7 10 8 11 15 11 10 9 9 7 12 10 13 12 12 12 11 11 11 11 11 11 13 13 11 13 13 13 14 14 14 13 13 13 14 14 14 16 16 16 12 12 12 11 11 11 10 10 10 10 10 10 10 10 10 11 11 11 11 11 11 14 12 13 15 13 14 13 13 13 8 8 8 10 10 10 11 11 11 10 10 10 10 8 9 
79 70 55 80 77 60 83 77 65 82 78 66 80 22 21 82 14 13 79 14 12 81 54 47 80 72 59 82 74 61 80 37 31 82 14 15 80 15 13 81 15 16 77 13 13 78 10 11 81 11 11 81 13 14 79 11 10 78 8 10 77 7 7 78 6 7 77 9 8 78 10 9 75 9 10 77 9 10 81 7 8 77 9 8 79 9 9 76 11 9 80 10 12 80 56 46 80 71 56 79 71 58 80 70 58 80 35 32 82 16 17 83 17 18 81 13 14 78 33 28 78 70 59 82 72 62 80 57 49 81 11 11 81 11 11 78 12 13 78 13 11 78 14 14 80 16 16 81 13 14 79 14 12 83 17 18 82 14 15 83 17 18 82 20 21 80 20 20 82 16 17 81 17 17 81 15 16 81 11 11 80 10 10 81 11 13 80 12 13 81 44 38 80 72 59 79 71 58 81 67 54 79 51 40 79 9 9 79 9 9 68 10 9 10 8 9 10 10 8 11 11 11 12 10 11 13 13 13 11 11 9 10 9 5 11 11 11 12 12 12 11 11 11 10 10 10 12 12 12 16 16 16 17 17 17 13 13 13 11 11 11 11 11 11 11 11 11 12 12 12 14 14 12 14 14 14 15 15 15 15 15 15 13 13 13 11 9 10 11 11 11 12 12 12 11 9 10 12 12 12 
79 70 55 81 77 65 84 80 68 82 76 64 80 20 19 79 11 12 81 13 14 81 16 14 81 15 16 79 15 15 81 16 14 81 15 16 80 14 15 80 15 13 74 14 14 72 11 10 82 12 12 82 14 15 79 9 11 75 7 6 77 7 5 79 7 8 77 9 8 76 10 11 69 55 42 75 56 42 79 66 50 79 70 55 78 18 17 75 11 9 80 10 12 79 60 46 79 72 56 81 68 59 81 69 57 79 34 29 81 15 16 83 13 13 80 10 8 78 7 5 78 8 10 80 10 10 79 11 10 79 14 12 78 10 9 79 11 10 81 11 11 79 13 14 82 17 15 82 16 17 82 14 13 80 15 13 83 15 16 82 18 18 81 21 21 81 20 19 81 59 48 79 73 57 81 75 61 80 33 27 79 9 9 77 13 11 80 14 15 82 45 39 81 74 58 81 71 61 81 48 39 81 13 14 79 9 9 78 8 6 70 9 8 11 11 11 11 11 11 11 11 11 11 11 13 11 11 13 8 10 9 9 9 7 10 10 12 12 10 11 11 11 9 11 9 10 10 10 8 14 14 14 16 14 15 12 12 12 12 10 11 10 12 9 12 12 12 14 14 14 14 14 14 16 14 15 14 14 14 14 14 14 13 13 13 14 14 14 12 12 12 9 9 9 11 11 11 11 11 11 
80 70 60 82 76 64 82 78 66 83 32 29 82 12 12 82 10 11 80 10 10 34 14 13 24 15 16 24 15 16 24 14 13 23 13 14 24 16 14 22 13 14 41 12 14 74 12 13 82 14 13 84 31 25 81 50 45 78 8 6 77 9 8 78 10 11 80 8 11 76 12 12 24 20 17 24 20 17 80 68 52 79 69 57 79 19 18 77 11 12 79 11 10 79 13 14 80 55 48 79 65 56 77 34 28 79 15 13 80 12 13 80 10 8 79 7 8 80 6 7 81 7 8 80 10 10 79 11 10 80 12 11 81 11 11 79 11 10 81 11 11 81 9 10 82 12 12 81 15 16 80 14 15 81 15 16 83 15 16 82 18 19 82 20 21 80 56 46 83 71 59 81 75 61 81 75 61 81 69 57 79 30 25 78 12 13 82 14 13 81 20 17 83 39 36 82 69 60 80 52 41 81 16 14 81 9 10 81 7 8 69 7 8 11 11 11 12 11 9 12 11 9 9 11 10 13 12 10 10 10 10 9 8 13 11 11 13 10 10 8 11 9 10 11 9 10 10 10 10 11 13 12 13 15 14 14 12 15 12 12 12 10 10 12 11 11 11 14 14 14 14 12 17 14 12 13 14 14 14 14 14 14 12 12 12 13 13 13 12 12 12 12 12 12 10 10 10 10 10 10 
81 17 15 81 17 17 81 20 19 81 13 14 82 12 10 81 11 11 30 9 8 16 10 10 11 13 12 14 12 13 16 14 15 15 15 15 16 16 14 14 16 13 40 14 15 80 14 15 83 35 31 84 67 57 80 76 64 81 51 43 80 10 12 80 10 12 79 9 9 78 14 14 17 17 17 15 15 17 21 20 16 70 61 44 80 20 19 81 13 12 79 9 9 80 8 9 79 15 15 80 19 16 79 15 13 79 10 13 80 12 11 79 11 10 79 7 8 55 7 7 18 7 11 19 11 9 20 12 10 35 11 11 80 12 13 81 13 14 80 10 10 79 18 17 82 65 55 79 65 54 82 65 55 81 67 56 83 23 22 82 20 21 82 18 18 80 16 16 84 64 55 81 75 61 42 39 34 58 21 15 80 16 16 80 10 12 81 13 12 79 14 12 79 18 17 80 20 20 82 18 18 83 15 14 79 11 10 61 6 9 18 8 7 10 10 10 10 8 9 10 10 10 10 10 10 11 11 11 9 9 9 10 10 10 12 12 12 11 11 11 10 10 10 10 10 10 12 10 13 13 13 15 53 13 13 34 13 12 11 11 11 8 8 8 10 10 10 14 14 12 13 13 13 15 13 14 15 15 15 13 13 13 12 12 12 10 10 10 11 11 11 12 12 12 9 9 9 10 10 10 
79 7 8 79 9 9 79 11 10 81 11 11 81 13 12 32 12 11 13 9 8 10 8 9 11 9 10 14 14 12 15 15 13 16 14 15 18 16 17 19 17 18 19 17 18 43 15 14 82 39 33 81 75 59 81 73 62 82 58 46 79 9 11 77 9 6 77 12 10 78 14 14 16 16 16 15 15 13 11 11 11 20 19 15 71 11 11 79 9 9 78 10 9 80 8 9 79 10 13 78 12 13 79 13 14 80 15 13 82 14 15 78 10 7 79 9 9 53 9 10 10 12 9 13 11 12 12 12 12 11 13 12 39 13 14 81 13 14 81 13 14 80 19 18 79 71 58 78 72 58 84 76 65 83 75 62 84 26 25 81 19 20 80 14 16 80 12 9 82 17 15 36 20 20 15 15 15 15 11 10 58 12 12 80 12 13 81 11 13 82 12 12 81 13 14 79 15 15 80 14 15 76 12 12 74 10 10 58 7 6 7 7 7 8 8 8 9 9 7 9 7 8 10 10 10 11 11 11 10 10 10 10 10 10 12 12 10 12 10 11 10 10 10 11 13 12 16 12 13 51 49 37 40 33 27 17 11 13 10 10 10 9 9 9 10 10 8 12 12 12 14 14 14 14 14 14 15 15 15 14 14 14 13 13 13 11 11 11 10 10 10 12 12 12 11 11 11 10 10 10 
80 6 5 78 8 8 80 10 10 81 11 9 81 9 10 26 12 12 9 9 9 10 10 10 12 12 12 15 14 12 15 15 15 16 16 16 16 16 16 15 15 15 13 13 13 38 12 11 79 34 29 80 71 56 80 68 54 81 54 43 79 8 6 78 10 9 76 12 12 31 15 16 13 15 14 13 13 11 11 11 13 13 13 15 71 10 9 79 9 11 79 8 6 79 8 6 79 11 10 77 11 12 81 13 12 80 15 13 80 12 13 79 9 11 79 9 9 57 13 12 15 13 14 16 14 15 13 13 13 13 13 13 29 14 11 80 12 13 79 9 9 79 15 15 79 26 22 80 74 58 83 77 65 82 76 64 84 28 27 80 19 18 80 10 12 80 10 12 81 11 13 29 11 11 12 12 12 11 11 11 56 12 13 80 12 11 78 12 13 79 11 10 79 14 12 79 14 12 78 13 11 77 11 12 72 8 9 59 7 9 6 7 9 8 8 6 9 9 9 10 8 9 9 9 11 12 12 14 12 12 12 9 9 9 9 9 11 13 11 12 12 10 11 12 12 14 15 13 16 30 26 23 19 18 16 12 11 9 10 8 9 9 9 11 10 10 12 11 13 12 13 13 11 13 13 11 14 14 14 15 15 15 13 13 13 11 11 11 12 12 12 10 10 10 11 11 11 12 12 12 
81 5 7 78 6 9 81 49 38 80 57 51 80 56 46 28 20 18 12 10 11 11 11 11 13 13 13 14 14 14 14 14 16 15 15 15 16 16 16 13 11 12 10 10 8 18 9 10 45 17 14 80 22 21 80 22 21 79 21 17 79 9 11 80 10 10 75 13 14 65 15 16 17 16 14 15 13 14 11 11 9 52 12 12 76 11 9 80 8 9 78 6 7 77 9 10 79 11 10 80 12 11 80 32 28 76 49 42 77 29 27 81 9 10 81 13 14 73 14 16 49 17 18 14 14 14 14 14 12 27 26 24 68 43 38 80 12 11 78 12 13 80 12 13 80 10 10 80 25 20 81 77 66 81 32 28 81 21 21 80 12 11 78 8 8 80 10 10 81 11 11 26 10 11 12 12 14 13 13 13 57 11 11 81 11 11 80 12 13 80 12 13 81 13 14 79 11 12 78 23 20 78 41 32 74 8 9 63 9 7 10 10 10 9 9 9 10 10 12 11 11 9 13 11 12 13 13 15 13 13 13 11 11 11 11 11 11 11 11 11 12 12 14 15 15 15 15 13 16 14 14 14 12 14 13 11 11 11 10 10 10 9 9 9 10 12 11 13 13 11 12 10 13 12 12 12 15 15 15 14 14 14 10 10 10 11 11 11 13 13 13 10 10 10 10 10 10 14 14 14 
80 6 5 79 55 43 79 71 58 80 72 59 78 71 55 66 60 48 25 21 18 12 12 12 13 13 13 16 15 13 16 14 15 17 16 14 15 13 14 11 11 13 11 9 12 10 10 10 17 7 8 24 6 4 38 6 7 78 10 9 80 12 11 81 13 14 80 14 15 81 15 16 65 15 14 62 14 14 57 47 37 76 48 37 79 51 40 78 14 14 80 8 9 79 9 9 79 11 12 80 37 30 78 62 49 75 63 51 78 61 51 84 36 32 82 12 12 83 15 16 73 15 14 65 30 28 64 60 51 68 61 53 79 54 49 78 12 13 79 11 12 78 12 13 78 8 10 79 9 9 82 31 28 81 20 19 77 17 16 78 10 9 77 12 10 80 12 11 81 11 13 69 10 12 63 11 13 64 13 12 77 13 13 81 13 12 80 15 13 81 13 12 79 11 12 78 23 20 77 58 44 79 63 48 77 40 31 62 11 10 11 11 9 11 9 10 9 9 9 10 10 10 14 14 12 15 15 15 16 16 16 14 14 14 11 11 11 11 11 11 13 13 13 15 15 15 14 12 13 10 12 9 10 8 9 11 9 12 10 10 10 13 11 12 14 14 14 12 12 10 8 10 9 10 10 10 14 14 14 13 13 13 9 9 9 11 11 11 13 13 13 11 11 11 14 14 14 14 14 14 
78 7 5 80 31 26 80 66 55 78 72 56 77 67 55 79 67 51 25 24 20 11 11 13 13 13 13 13 13 13 13 13 15 15 14 12 13 13 15 12 12 12 12 10 11 11 11 9 9 9 9 7 7 7 24 8 8 78 10 9 81 11 11 81 13 14 82 14 15 80 14 15 81 15 16 77 15 16 74 61 45 76 63 47 79 66 49 80 15 13 79 7 8 78 10 11 80 12 13 80 48 37 76 66 54 77 67 55 79 71 58 81 42 35 81 13 12 81 11 13 80 12 13 81 21 20 82 34 32 79 34 29 80 31 26 81 13 14 78 13 11 80 12 11 79 7 8 81 11 11 81 15 16 81 17 17 81 15 16 80 12 11 81 11 11 80 12 11 80 12 13 78 13 11 81 36 33 82 53 45 81 54 45 84 33 29 80 12 11 80 12 11 80 12 11 78 31 25 78 66 50 80 68 56 67 53 40 32 11 10 8 10 9 11 9 10 9 9 9 10 10 10 13 13 13 13 13 13 15 17 16 15 15 17 14 14 14 15 13 14 15 13 14 14 12 13 10 9 14 9 9 11 10 10 10 10 10 10 12 12 12 15 15 15 14 14 14 11 11 11 10 8 9 10 10 10 12 12 12 13 13 13 9 9 9 11 11 11 12 12 12 13 13 13 14 14 14 15 15 15 
77 9 8 77 5 6 79 65 54 78 70 59 75 61 48 77 34 28 60 15 12 19 11 9 13 13 15 14 14 14 12 12 12 11 13 12 13 13 11 13 13 13 13 13 11 14 12 13 11 13 12 12 12 12 26 10 11 78 10 11 80 12 11 78 12 13 80 15 13 82 14 15 82 16 17 79 15 16 72 59 43 76 64 50 79 70 55 78 50 39 73 18 15 79 11 12 79 13 14 79 49 41 78 68 56 79 69 57 81 71 59 80 41 34 80 8 11 80 8 9 78 10 9 82 12 14 81 11 9 80 10 12 83 13 15 82 14 15 80 12 11 81 13 12 80 10 12 79 13 14 82 14 15 81 15 16 82 14 15 80 12 13 80 12 11 79 11 10 81 11 11 82 45 37 82 68 59 80 76 65 79 75 63 79 42 36 81 9 10 79 7 8 79 9 11 79 30 26 60 52 41 37 32 26 35 32 27 14 14 14 12 10 13 10 10 12 9 9 9 9 9 7 11 11 9 13 13 13 13 13 13 16 16 16 18 18 18 15 15 15 13 13 13 11 11 11 9 9 9 10 10 10 11 11 11 12 12 12 13 13 13 15 15 15 14 14 14 12 12 12 9 9 9 9 9 9 13 13 13 15 15 15 12 12 12 10 10 10 11 11 11 11 11 11 10 10 10 13 13 13 
37 12 8 80 6 7 78 29 25 80 35 30 76 27 22 76 15 12 81 13 12 62 12 11 29 13 13 13 11 12 12 12 12 14 12 13 12 14 11 14 14 14 15 15 15 16 16 16 13 13 11 13 13 13 17 11 11 47 19 16 76 42 33 80 45 39 81 44 38 80 12 11 80 16 16 77 11 12 75 59 46 80 68 54 79 73 59 75 36 31 77 19 18 80 12 11 80 12 11 80 25 22 81 33 31 80 35 29 80 35 30 81 21 20 80 8 11 77 9 8 77 9 8 79 11 10 80 12 11 81 13 12 83 15 16 83 15 16 79 11 8 81 9 12 81 13 12 82 14 13 81 51 43 80 51 43 80 50 40 80 50 42 81 16 14 81 11 11 81 13 12 81 58 50 81 75 61 80 74 60 80 71 56 80 39 33 79 7 8 81 9 10 61 10 9 36 16 15 27 24 19 11 11 9 15 15 15 18 16 17 14 14 14 11 11 9 11 9 10 10 10 10 10 8 9 10 8 9 13 13 13 15 15 15 18 18 18 16 16 16 15 15 15 13 13 13 12 12 12 12 12 12 13 13 13 12 12 12 14 14 14 15 15 15 15 15 15 13 13 13 11 11 11 10 10 10 13 13 13 15 15 15 12 12 12 12 12 12 11 11 11 5 5 5 7 7 7 11 11 11 
13 11 12 46 8 7 75 9 10 80 12 13 78 8 8 80 10 12 81 13 14 78 14 14 58 12 12 24 12 12 14 12 13 14 14 14 13 13 13 15 15 15 17 17 17 17 19 18 14 14 14 13 11 12 11 11 11 28 24 21 75 63 47 80 66 55 80 62 50 80 12 11 78 12 13 78 8 8 79 62 52 81 69 55 81 72 57 78 20 18 78 12 13 79 13 14 80 12 11 81 11 11 82 12 12 80 12 11 81 13 14 80 12 11 78 10 9 78 8 8 78 8 8 79 9 11 82 12 12 81 15 16 82 24 22 84 40 37 81 11 11 80 10 10 81 13 12 48 14 13 46 42 39 80 75 56 80 73 57 81 73 62 81 17 17 80 12 11 82 14 15 80 35 32 79 61 51 79 71 58 79 50 42 80 22 20 78 8 8 78 10 9 53 9 10 8 8 8 9 9 11 13 11 12 14 16 15 16 16 16 15 15 15 11 13 10 11 11 9 11 11 11 10 8 9 10 8 9 12 12 12 14 14 14 15 15 15 14 14 14 14 14 14 14 14 14 14 14 14 13 13 13 13 13 13 13 13 13 15 15 15 15 15 15 14 14 14 13 13 13 12 12 12 11 11 11 12 12 12 15 15 15 12 12 12 11 11 11 12 12 12 8 8 8 9 9 9 11 11 11 
11 11 13 9 9 9 38 10 9 75 11 11 78 8 8 78 10 9 81 12 15 75 9 10 73 12 11 56 10 12 26 10 11 13 13 13 13 13 13 15 15 15 15 13 14 13 13 13 12 12 12 11 11 11 11 11 11 18 17 15 49 40 33 81 67 54 81 34 28 79 11 10 77 11 12 79 11 10 81 40 34 79 42 34 79 41 32 81 17 15 80 12 13 77 12 10 55 11 12 46 10 10 44 10 9 44 8 8 61 10 9 79 11 10 77 9 10 78 8 8 78 6 7 79 9 9 81 20 19 82 47 43 83 54 48 80 70 60 80 37 31 77 12 8 80 12 13 14 14 14 11 15 16 80 71 56 81 74 58 79 73 57 78 17 16 80 10 10 80 10 10 80 10 12 78 29 24 79 42 34 80 20 19 77 9 8 74 10 10 77 9 10 51 9 10 7 7 7 8 8 8 12 12 12 13 11 12 13 13 15 13 13 15 13 11 12 13 11 12 11 9 10 12 10 11 12 10 11 13 13 13 13 13 13 13 13 13 12 12 12 13 13 13 13 13 13 12 12 12 13 13 13 14 14 14 14 14 14 14 14 14 14 14 14 12 12 12 12 12 12 11 11 11 10 10 10 12 12 12 16 16 16 14 14 14 11 11 11 11 11 11 9 9 9 10 10 10 14 14 14 
10 9 7 9 9 9 8 10 7 70 10 9 79 34 29 80 42 33 78 39 32 72 17 14 71 10 9 75 11 11 59 31 27 28 27 23 12 12 12 12 10 11 10 10 10 8 10 9 10 10 10 10 10 10 10 10 10 10 10 8 19 18 16 80 68 56 80 10 10 75 10 8 76 11 9 81 13 14 81 13 14 79 10 13 79 13 14 79 15 15 80 12 13 50 9 7 20 10 9 10 10 10 9 9 11 8 8 8 43 22 17 76 37 30 77 22 19 78 8 10 80 8 9 81 9 10 82 26 25 83 76 68 83 77 65 80 74 60 81 65 50 80 12 11 80 12 13 48 17 15 49 15 14 79 67 51 80 71 56 80 73 57 80 19 16 79 9 9 79 9 9 80 8 9 80 8 9 79 9 9 80 8 11 79 9 9 74 8 9 77 9 10 52 8 7 6 8 7 9 9 7 10 10 10 10 10 12 11 11 13 13 13 13 13 13 13 12 12 12 12 10 11 11 11 11 14 12 13 14 14 14 13 13 13 13 13 13 14 14 14 12 12 12 11 11 11 10 10 10 15 15 15 17 17 17 16 16 16 14 14 14 14 14 14 11 11 11 11 11 11 11 11 11 11 11 11 13 13 13 18 18 18 18 18 18 14 14 14 11 11 11 11 11 11 10 10 10 16 16 16 
9 9 9 9 9 11 32 11 10 74 10 11 79 59 50 80 74 60 79 70 55 76 22 20 75 9 10 76 10 11 78 35 29 46 31 26 11 11 11 9 9 7 7 7 7 9 7 8 9 9 9 11 9 10 10 10 10 9 9 9 17 13 10 81 46 42 81 9 10 76 10 11 79 11 10 80 14 15 80 15 13 79 13 14 79 13 15 79 30 26 80 14 15 24 8 8 8 8 8 9 9 9 9 7 8 7 7 7 43 34 27 76 63 47 78 45 38 78 23 20 80 10 12 80 10 12 82 26 25 83 76 66 82 76 62 81 74 58 80 62 48 81 15 16 79 15 15 82 18 18 79 14 12 79 45 36 79 46 37 81 48 39 80 14 16 80 8 9 79 9 9 80 10 12 79 7 8 79 9 9 80 10 10 79 9 11 77 9 10 78 8 10 51 7 6 7 7 7 7 7 7 10 10 12 11 11 13 14 14 14 14 12 13 13 11 12 13 13 13 11 12 7 10 10 10 16 16 16 18 18 18 14 14 14 15 15 15 16 16 16 11 11 11 9 9 9 11 11 11 14 14 14 16 16 16 15 15 15 14 14 14 12 12 12 10 10 10 12 12 12 12 12 12 13 13 13 14 14 14 19 19 19 18 18 18 16 16 16 12 12 12 12 12 12 11 11 11 15 15 15 
8 8 8 37 9 8 76 10 11 80 12 11 80 62 50 81 75 61 79 70 55 77 23 21 75 9 10 61 9 11 54 10 9 31 9 11 8 8 8 7 7 7 11 7 8 10 10 10 10 10 10 8 8 8 8 8 8 18 9 10 40 8 9 80 9 7 79 11 10 79 11 12 79 13 14 79 15 15 82 14 15 80 14 15 78 33 28 80 66 53 80 46 37 46 12 10 12 6 8 9 8 6 8 8 8 7 7 7 27 22 16 50 41 32 64 51 42 78 45 36 80 10 12 80 10 10 82 18 18 82 53 45 80 52 41 79 49 41 78 48 38 81 17 18 79 17 18 80 12 13 79 11 10 78 8 8 78 7 5 79 9 9 79 11 12 79 9 9 79 9 9 80 8 9 80 8 9 81 9 10 80 25 22 79 30 26 78 19 15 78 7 5 52 8 9 7 7 7 9 7 8 10 10 10 14 14 16 16 14 15 14 12 13 12 10 13 13 13 13 11 13 12 10 8 9 14 14 14 17 17 17 14 14 14 13 13 13 14 14 14 11 11 11 10 10 10 11 11 11 15 15 15 14 14 14 13 13 13 13 13 13 11 11 11 11 11 11 13 13 13 14 14 14 14 14 14 16 16 16 18 18 18 17 17 17 16 16 16 13 13 13 11 11 11 10 10 10 14 14 14 
12 8 9 80 8 9 80 12 11 80 10 10 79 65 54 79 73 61 79 70 55 78 25 21 59 8 7 26 8 8 9 7 8 7 8 10 8 8 8 7 7 7 9 7 8 9 9 9 8 8 6 7 7 7 9 9 9 19 9 8 57 9 9 78 13 11 79 28 24 79 10 13 80 15 13 80 14 15 79 15 13 79 14 12 81 65 52 79 72 56 81 75 59 58 23 19 20 6 6 7 7 7 7 7 5 8 6 7 7 7 7 10 9 7 45 38 32 80 47 38 80 12 11 80 12 11 80 12 13 81 13 14 80 15 13 80 15 13 80 14 15 79 13 14 77 13 13 80 10 10 78 10 9 78 8 6 81 6 10 78 10 9 79 9 9 79 7 8 78 8 8 78 8 10 79 9 9 80 26 24 76 53 45 76 64 52 78 46 35 78 18 17 52 8 9 9 9 9 10 10 8 11 10 8 12 14 13 12 12 12 13 11 12 10 10 10 11 10 8 13 13 13 11 11 11 11 9 10 13 13 13 13 13 13 11 11 11 11 11 11 11 11 11 11 11 11 14 14 14 13 13 13 12 12 12 12 12 12 12 12 12 12 12 12 12 12 12 12 12 12 13 13 13 15 15 15 16 16 16 15 15 15 13 13 13 12 12 12 12 12 12 10 10 10 8 8 8 11 11 11 
28 10 8 79 9 11 81 11 13 80 10 10 81 54 45 81 67 56 78 58 47 64 20 17 27 7 8 6 6 6 9 7 8 7 7 7 8 8 10 9 9 7 9 9 9 7 7 7 8 8 8 9 7 10 9 9 9 10 10 10 19 9 8 79 32 26 79 60 45 81 27 27 79 15 15 81 15 16 80 15 13 77 13 11 79 61 51 80 73 57 79 73 57 25 24 20 7 5 8 6 6 6 8 6 9 7 7 7 7 7 9 19 19 17 55 42 34 81 38 32 82 12 12 81 13 12 78 14 14 80 12 11 78 12 14 81 13 14 78 12 13 80 10 10 77 12 10 79 9 9 78 10 7 78 8 8 81 21 20 81 26 23 81 23 22 78 12 13 77 7 7 79 9 11 80 10 10 82 42 42 74 59 52 76 66 54 80 68 52 78 37 31 53 9 8 10 10 8 10 10 10 9 9 9 12 10 11 11 11 11 12 12 12 11 11 11 12 12 12 11 11 11 11 11 13 12 10 11 11 11 11 12 10 11 11 10 8 12 12 12 14 12 13 14 12 13 13 13 13 12 12 12 13 13 13 12 12 12 11 11 11 12 12 12 14 14 14 12 12 12 12 12 12 15 15 15 16 16 16 12 12 14 10 10 10 9 9 11 12 12 12 12 10 11 10 10 10 12 10 11 
79 9 9 78 8 8 79 11 10 80 10 10 80 10 10 81 44 35 80 20 19 27 9 9 8 7 5 7 7 7 7 7 7 9 7 8 10 8 9 9 9 9 9 7 8 9 7 8 8 8 8 8 8 6 9 11 10 16 14 15 38 31 25 79 63 47 81 68 52 79 67 53 80 29 26 82 14 15 78 12 13 78 12 13 79 61 49 81 73 60 80 72 59 38 25 19 14 8 8 9 7 8 10 9 7 10 10 10 9 11 10 37 34 29 73 35 32 76 12 12 66 12 12 81 13 12 81 13 14 78 13 11 80 12 11 79 13 14 80 10 12 80 10 10 79 11 12 79 11 10 78 8 8 77 9 8 80 70 61 82 75 67 79 73 61 77 33 30 78 12 13 67 11 12 64 13 12 62 10 12 66 45 40 80 72 61 81 73 60 79 38 34 54 10 9 10 10 10 10 10 10 12 10 11 12 10 11 11 11 11 13 13 13 12 12 12 11 11 11 10 10 10 9 9 9 10 8 9 12 12 12 11 9 10 11 11 11 15 15 17 16 15 13 14 14 14 11 11 11 13 11 12 13 13 13 11 11 11 10 10 10 13 13 13 12 12 12 14 14 14 15 15 15 14 14 14 10 10 10 10 8 9 9 9 9 10 8 9 12 12 12 14 14 14 9 9 11 9 9 11 
79 9 9 77 7 7 78 8 10 79 9 9 82 7 11 79 9 11 65 9 10 23 9 8 8 8 8 9 7 8 7 7 7 9 7 8 9 9 9 10 10 12 9 9 11 8 6 7 8 8 6 10 10 12 11 11 9 24 20 17 62 50 38 64 52 38 62 52 40 61 51 42 63 53 41 62 12 11 76 10 11 80 12 13 80 53 42 81 59 45 79 59 48 81 23 21 26 10 10 20 10 11 27 11 11 21 11 10 12 12 12 12 12 12 37 13 13 43 13 13 33 11 13 64 13 10 67 11 12 77 12 10 78 14 14 79 24 21 78 23 20 79 24 19 77 11 12 80 10 10 79 8 6 77 9 8 79 67 55 81 75 63 79 71 60 78 70 59 68 24 21 27 13 13 14 14 14 9 9 7 45 40 36 73 59 50 81 56 49 71 34 28 41 11 11 12 10 11 10 10 10 10 10 10 13 13 13 12 12 14 11 11 11 9 9 9 10 10 10 11 11 11 8 8 8 9 9 9 11 9 10 9 11 10 13 13 13 16 16 16 16 14 15 13 13 13 11 11 11 10 10 8 10 10 10 11 11 11 12 12 12 12 12 12 12 12 12 14 14 14 18 18 18 13 13 13 9 7 8 9 9 9 11 11 9 11 11 11 13 11 12 13 13 13 10 8 9 10 10 10 
79 13 14 79 9 9 77 7 7 80 6 7 77 5 8 75 9 10 26 10 10 11 9 12 9 9 11 9 8 6 9 7 8 6 6 4 10 9 7 10 10 10 14 12 13 15 14 12 16 15 13 18 12 12 13 12 8 11 11 11 12 10 11 13 11 12 10 12 9 11 9 10 10 10 10 11 11 13 69 11 10 79 13 14 82 14 13 82 16 17 79 18 17 82 14 13 37 13 11 58 12 12 80 12 11 39 10 12 12 12 14 12 12 12 12 12 12 13 13 13 13 13 15 10 12 11 26 12 12 70 10 10 75 24 21 79 65 54 79 63 50 79 57 44 76 18 16 79 9 9 80 6 7 78 8 8 80 57 43 79 69 57 78 69 60 80 62 52 29 26 21 14 12 13 14 14 14 11 11 9 11 11 11 40 10 10 72 12 12 44 12 13 13 13 11 11 11 11 11 11 11 12 12 12 12 12 14 11 11 11 11 11 11 10 10 10 10 10 10 9 9 9 9 9 9 9 9 9 10 10 12 11 12 7 13 13 13 13 15 14 13 13 13 11 11 11 19 11 9 16 10 12 10 10 10 10 10 10 10 10 10 12 12 12 12 12 12 11 11 11 14 14 14 13 13 13 9 9 11 10 12 11 13 13 13 16 16 14 13 11 12 9 9 9 9 8 6 18 9 10 
80 14 15 76 12 12 76 8 9 76 6 6 77 7 7 75 15 14 24 8 8 10 8 9 10 10 10 8 8 8 8 7 5 7 7 7 9 9 9 11 9 10 37 28 23 76 58 44 75 57 45 75 47 35 62 11 10 11 11 9 11 11 11 11 11 11 10 10 10 11 11 11 12 10 11 10 10 8 10 10 10 64 13 12 81 13 12 81 15 16 81 19 20 71 17 17 78 12 13 79 11 10 80 12 11 37 11 12 12 12 12 14 12 13 13 11 12 13 13 13 15 13 14 11 11 11 8 8 8 8 8 8 27 23 20 77 65 53 78 64 51 78 65 48 77 67 55 79 7 8 78 6 7 79 9 11 78 10 9 78 53 46 80 60 51 72 24 22 27 11 11 14 12 13 13 13 13 12 12 12 10 10 10 10 10 10 11 9 10 10 10 10 10 10 10 12 11 9 12 12 12 13 12 10 12 12 12 11 11 11 10 10 10 11 11 11 11 11 11 10 10 10 10 10 12 10 10 10 10 10 10 11 11 11 11 11 13 11 11 9 12 12 10 12 12 10 54 12 13 33 11 13 12 12 12 11 11 11 10 10 10 11 11 11 11 11 11 12 12 12 12 12 12 12 12 12 12 12 12 15 13 14 18 16 17 20 20 18 13 13 15 7 7 7 9 9 7 80 10 10 
78 17 16 76 12 10 74 8 9 78 6 7 81 7 8 80 53 46 26 22 19 9 8 6 9 8 6 10 8 9 8 8 8 8 8 8 8 8 8 8 8 8 34 27 19 73 55 41 72 38 29 72 10 11 56 10 10 12 10 11 10 8 9 11 11 11 11 11 11 12 10 13 12 10 11 13 11 12 11 11 9 21 11 10 72 12 12 80 12 11 71 15 16 32 16 17 55 14 12 74 10 10 79 11 10 37 11 12 13 13 13 13 13 13 14 12 13 11 11 11 14 14 14 13 13 15 8 8 8 14 9 6 31 19 19 77 57 48 80 56 46 78 64 53 78 59 52 78 8 8 79 7 8 77 12 10 81 13 14 78 8 10 78 10 9 28 9 11 12 10 11 13 15 14 12 14 11 12 10 11 11 9 10 9 9 9 8 8 8 9 9 9 10 10 10 11 9 10 11 9 10 11 11 11 11 11 11 13 13 13 16 16 16 12 12 12 9 9 9 9 9 9 9 9 9 9 9 11 9 9 9 10 10 10 10 11 13 9 10 12 11 11 9 13 13 11 14 14 14 12 12 14 13 13 13 14 14 14 13 13 13 11 11 11 12 12 12 12 12 12 13 13 13 15 15 15 16 16 16 16 16 16 17 17 19 19 21 20 11 12 14 8 8 8 19 9 10 81 9 10 
80 63 47 78 8 8 79 7 10 81 7 6 77 6 4 77 53 43 25 21 18 7 5 6 8 8 8 9 9 7 9 9 7 7 7 7 8 8 8 9 9 9 36 27 20 51 38 29 34 8 9 61 10 7 11 10 8 10 10 10 10 8 9 11 11 11 12 10 11 9 9 11 10 10 10 11 11 13 13 11 12 72 12 12 79 11 10 80 10 8 31 13 11 15 15 15 13 11 12 52 10 11 79 11 12 36 10 11 13 13 13 14 14 16 14 12 13 12 12 12 12 12 10 12 12 12 10 10 10 28 8 9 80 8 9 77 9 10 78 17 12 77 59 49 78 10 11 79 11 12 80 15 13 79 15 15 80 12 13 77 9 10 78 8 8 28 9 11 13 13 13 14 14 16 11 11 11 9 9 9 9 8 6 7 6 4 7 7 7 9 9 9 10 12 11 11 11 13 10 8 9 9 9 9 9 9 9 16 16 16 20 20 20 15 13 14 10 8 9 10 10 10 8 8 8 9 9 11 8 6 7 8 8 8 10 10 10 13 12 10 10 10 10 13 13 13 16 16 16 15 15 15 16 16 16 15 15 15 13 13 13 13 13 13 13 13 13 12 12 12 13 13 13 15 15 15 15 15 15 16 15 13 18 18 18 17 17 17 11 11 9 19 8 6 81 7 8 80 9 7 
9 9 9 79 66 49 79 15 13 78 8 8 81 5 7 76 52 42 77 67 55 25 21 18 7 7 7 7 7 7 7 7 7 7 7 7 8 6 7 9 9 9 9 9 9 9 7 8 6 6 6 6 6 8 8 8 8 12 12 12 14 12 15 12 10 11 11 9 10 8 8 8 10 8 9 12 12 12 81 13 12 78 12 13 79 13 14 21 11 12 12 12 12 13 13 13 13 13 13 13 13 13 13 13 15 12 12 14 13 13 13 15 15 15 13 11 12 10 10 10 11 11 11 36 10 11 78 8 8 78 10 11 79 7 8 80 8 9 79 7 8 78 8 8 77 12 10 77 11 12 81 17 17 81 15 16 81 13 12 81 11 13 79 9 9 78 10 11 79 11 10 24 8 8 7 7 7 8 8 8 8 8 8 8 8 8 7 9 8 8 9 11 8 8 8 8 8 8 9 7 10 7 5 6 6 6 8 9 9 9 13 13 13 13 11 12 11 9 10 8 8 8 9 9 9 5 5 5 6 6 8 8 8 6 13 13 13 13 11 12 10 10 10 12 12 14 15 15 15 17 15 16 16 16 16 15 15 15 15 15 15 15 15 15 13 13 13 13 13 13 14 14 14 15 15 15 13 13 13 14 12 15 14 14 12 18 16 17 13 13 13 17 8 9 80 6 7 80 8 9 
