P3
100 50
255
10 10 10 11 11 11 9 9 9 9 9 9 10 10 10 11 11 11 11 11 11 12 12 12 14 12 13 18 14 13 15 13 14 14 14 14 12 12 10 9 8 6 8 8 6 8 8 6 11 10 8 11 11 11 9 9 9 8 8 8 8 8 8 8 8 10 10 10 10 11 9 10 8 8 8 12 12 10 14 14 14 13 13 13 12 12 14 13 13 13 12 12 12 11 11 11 10 10 10 10 10 10 13 13 13 16 14 15 14 14 12 11 11 11 11 11 9 11 11 9 11 11 13 10 10 10 8 8 10 8 9 11 8 8 6 6 6 8 6 6 6 6 8 7 7 5 6 7 7 7 7 7 7 9 9 9 11 9 10 76 8 7 87 6 5 85 5 6 83 8 5 85 11 12 41 13 12 59 55 46 85 78 62 86 79 63 86 47 40 85 14 12 85 11 10 86 37 32 88 82 70 86 80 68 86 80 66 86 64 51 87 11 11 86 11 15 86 12 13 88 12 12 87 13 14 86 15 13 86 12 11 84 10 11 84 8 8 85 11 10 85 14 12 84 12 13 86 14 15 87 15 16 88 14 15 86 12 13 84 12 13 86 12 11 83 9 10 83 7 7 85 36 29 85 82 63 85 79 65 87 60 53 87 11 11 87 11 11 86 10 10 85 20 18 88 82 70 88 86 74 
10 10 10 11 11 11 8 8 8 6 6 6 10 10 10 11 11 11 10 10 10 10 10 10 11 11 9 12 12 12 13 13 13 13 13 13 11 9 12 9 9 9 9 7 8 10 8 9 12 12 12 11 11 11 9 9 11 7 7 7 7 7 7 8 8 8 8 8 8 9 9 9 10 10 10 15 15 15 16 14 17 13 13 13 11 11 11 14 13 11 15 13 14 15 15 15 13 13 11 10 11 13 11 11 11 15 13 14 14 16 15 11 12 14 11 9 10 11 9 12 10 10 12 9 9 9 8 8 8 7 5 6 7 7 7 7 7 7 7 7 9 6 6 8 6 5 3 6 6 6 7 7 9 8 8 6 76 74 61 87 83 71 86 15 13 83 7 7 86 8 8 85 9 9 84 49 43 85 77 64 87 81 65 87 83 71 88 49 42 87 11 15 85 9 9 85 9 11 85 9 11 87 9 9 87 7 8 86 8 6 88 10 10 85 11 10 85 11 10 86 10 12 89 13 13 86 12 11 85 11 12 85 11 12 83 11 12 87 13 14 84 14 14 86 14 15 87 16 14 86 56 48 85 79 65 86 37 30 88 14 15 88 14 13 83 11 12 83 13 13 84 39 34 85 83 70 83 77 65 86 74 62 86 62 52 86 10 10 86 10 12 85 20 18 88 80 69 87 83 71 
9 9 9 9 9 9 8 8 8 7 7 7 8 8 8 9 9 9 11 11 11 12 12 12 12 12 10 11 11 11 14 14 16 14 14 14 14 12 13 12 10 11 11 11 11 11 11 11 12 12 12 12 12 10 10 8 9 8 8 8 7 7 5 9 7 8 7 7 9 7 9 8 12 10 11 13 13 15 14 14 12 12 12 14 11 11 11 13 13 13 17 15 16 19 17 18 16 14 15 11 11 9 9 9 9 12 12 14 15 15 15 14 14 14 11 11 11 10 10 10 10 10 10 34 8 9 75 7 8 75 7 6 76 8 9 77 9 10 65 9 8 6 4 9 6 6 4 6 6 6 7 7 7 10 8 9 74 74 62 85 81 69 88 71 63 86 22 20 86 8 8 86 6 5 84 50 41 84 76 63 86 78 65 88 82 70 89 48 42 87 12 9 87 11 13 84 10 9 60 9 8 38 8 8 85 7 7 86 7 10 84 10 9 86 10 12 87 11 11 88 12 14 86 10 10 87 11 11 83 11 12 82 10 11 87 13 10 84 12 13 85 13 16 88 14 13 37 16 15 24 20 19 61 58 49 84 76 63 88 45 39 89 15 14 88 14 15 86 14 15 86 36 35 85 81 69 84 74 64 85 56 48 84 20 18 87 11 11 88 10 10 87 11 11 85 19 20 85 21 19 
7 7 7 8 8 8 7 7 7 6 6 6 6 6 6 8 8 8 10 10 10 11 11 11 11 11 11 12 12 10 13 13 13 13 15 14 12 12 12 11 11 11 12 12 12 11 11 11 11 11 11 10 8 9 11 11 11 10 10 10 7 9 8 8 8 8 5 5 5 7 5 10 12 10 11 12 10 13 11 11 11 11 11 11 10 10 10 11 11 11 16 18 17 19 19 19 16 14 15 12 12 12 11 11 11 11 11 13 13 13 13 13 13 13 46 12 11 76 10 11 77 11 12 82 8 9 86 8 8 85 24 21 84 71 55 86 64 50 74 9 7 7 5 6 6 6 6 8 6 7 7 7 5 8 6 7 17 17 15 76 71 65 84 80 69 87 27 26 87 8 11 86 6 7 83 12 10 83 18 14 87 22 20 86 21 19 87 15 16 87 11 11 61 13 11 20 10 11 12 8 7 29 9 10 85 7 7 83 9 8 88 10 10 85 11 12 84 12 13 87 13 14 86 10 10 85 9 9 84 72 58 83 69 56 87 19 16 86 12 11 84 14 14 36 15 14 19 13 15 14 14 16 17 17 15 22 22 22 55 16 17 86 14 15 87 16 14 87 15 16 86 16 16 86 39 33 84 75 60 84 55 49 84 10 9 86 10 10 89 9 10 88 10 8 86 12 11 21 11 10 
10 10 10 8 8 8 7 7 7 6 6 6 7 7 7 9 9 9 11 11 11 10 10 10 10 10 10 53 11 12 36 12 10 12 12 12 12 12 12 13 13 13 12 12 12 11 9 10 7 7 7 10 9 7 12 11 9 12 12 10 8 8 8 7 7 7 5 5 5 4 2 3 77 9 8 76 10 11 8 6 7 9 9 7 10 10 10 11 10 8 16 16 16 18 18 18 18 18 18 17 15 16 13 13 13 11 11 11 11 11 11 41 11 11 80 10 12 87 11 11 87 11 11 87 11 13 86 10 10 84 25 21 83 76 60 74 71 54 16 6 5 7 7 7 6 6 4 5 5 3 6 6 8 8 6 7 6 6 4 78 71 63 83 23 22 84 10 11 87 5 7 86 8 8 86 6 7 86 8 8 86 10 10 87 11 11 87 11 11 86 12 13 58 9 12 9 9 9 8 8 8 7 9 8 37 26 24 86 70 57 86 62 52 86 12 11 86 12 13 88 12 14 86 12 13 87 73 64 86 80 66 84 77 61 84 68 53 84 19 17 36 12 12 20 15 12 14 14 14 12 12 12 14 13 11 16 15 13 51 12 13 88 14 15 86 16 16 88 14 15 82 11 9 82 14 13 84 14 12 84 13 11 81 7 8 83 9 10 85 9 9 77 9 8 20 10 11 9 9 9 
8 8 8 7 7 7 7 7 7 7 7 7 7 7 7 8 8 8 10 10 10 12 12 12 43 11 12 81 13 10 39 13 12 11 11 11 11 11 11 13 13 15 14 14 12 11 10 8 8 6 7 9 9 11 12 13 15 9 9 11 7 7 7 7 7 5 6 6 8 4 2 3 87 9 9 86 10 10 66 8 7 65 7 6 65 6 8 24 12 12 14 14 14 14 14 14 19 19 19 19 19 19 14 14 12 10 10 8 39 36 31 78 64 55 84 64 55 85 48 39 87 11 11 88 12 14 87 13 12 85 26 22 83 76 57 78 75 56 62 56 44 7 5 8 8 6 7 7 7 7 7 7 5 8 8 6 8 8 6 77 26 25 85 5 6 85 5 6 85 7 5 85 7 7 84 9 6 84 8 8 86 10 12 87 11 13 85 11 12 86 12 11 57 9 9 7 7 7 6 6 6 9 9 9 13 13 13 42 39 34 84 76 63 85 61 51 87 13 14 89 13 13 87 13 12 86 84 72 85 81 70 84 80 68 85 75 63 84 16 15 31 10 9 13 13 13 15 15 13 13 13 13 15 14 12 13 13 13 50 10 11 87 13 12 90 16 17 86 14 15 81 11 13 82 10 11 84 8 8 83 7 7 83 7 7 82 8 7 84 8 8 78 8 8 66 7 9 7 7 5 
8 8 8 7 7 7 7 7 7 7 7 7 8 8 8 9 9 9 10 10 10 12 12 12 59 11 11 53 11 12 17 11 11 13 12 10 11 11 13 12 12 12 14 14 14 12 12 10 9 9 9 10 10 8 13 13 13 9 9 11 8 8 8 7 7 7 11 7 6 64 4 4 86 7 10 85 9 9 86 5 4 85 7 7 82 8 9 64 12 14 66 12 12 24 13 11 16 18 17 17 17 17 14 12 15 11 9 10 46 45 40 87 83 71 89 83 71 85 56 50 87 11 11 85 9 9 85 11 10 86 27 21 85 79 63 85 78 60 79 67 51 60 6 6 11 9 12 9 9 9 7 7 7 9 7 8 58 8 9 86 8 8 87 7 8 85 7 5 84 6 6 86 5 4 87 7 8 86 10 10 85 11 10 86 37 32 86 63 55 84 35 30 76 8 9 46 6 7 7 7 5 8 8 10 11 11 9 28 29 24 84 80 68 87 75 61 85 14 12 89 15 14 87 13 12 86 28 26 88 81 71 87 79 68 84 76 63 84 16 15 70 9 8 27 11 11 12 12 12 13 13 15 13 13 13 45 13 14 76 11 9 87 13 14 87 16 14 87 15 16 84 14 12 85 11 10 85 9 11 83 7 7 83 22 19 84 57 48 86 10 10 83 13 15 84 57 46 5 5 5 
9 9 9 7 7 7 7 7 7 9 9 9 9 9 9 11 11 11 11 11 11 13 13 13 27 13 13 16 12 11 11 13 12 13 11 12 10 10 10 10 10 10 11 9 10 9 9 7 9 9 9 9 9 9 13 13 13 11 11 11 9 8 6 9 9 9 19 9 10 86 8 8 86 7 10 87 9 9 86 6 5 85 7 5 82 10 11 84 50 41 84 60 48 73 63 54 27 28 23 13 13 13 45 11 9 65 9 10 75 45 37 86 82 71 87 83 74 85 55 47 86 6 5 87 9 9 84 8 8 82 12 12 86 25 24 86 25 22 84 19 13 77 5 6 69 11 10 68 10 9 65 6 8 62 6 5 84 8 8 85 10 7 86 8 8 84 8 8 86 6 7 86 6 7 85 7 5 84 10 9 87 42 37 87 72 65 83 81 68 84 70 57 82 44 35 74 6 5 45 7 6 23 19 16 67 59 48 72 64 53 87 81 69 88 74 63 88 12 14 88 14 15 88 14 13 85 11 12 86 28 26 87 28 24 86 27 23 85 7 7 83 7 7 70 10 10 24 10 9 12 12 14 43 13 13 82 14 13 88 14 15 88 14 15 86 14 17 86 14 17 84 13 11 88 12 12 87 22 20 83 61 50 83 65 53 85 71 60 87 9 9 86 12 11 84 23 22 6 6 4 
11 9 10 9 7 8 6 6 6 9 10 12 10 10 10 9 9 9 12 12 12 14 12 13 13 13 11 13 13 11 12 12 14 11 11 11 10 10 10 10 10 10 8 8 6 7 7 5 8 8 6 9 10 12 12 12 12 26 10 13 58 10 10 59 15 16 63 50 41 86 10 12 87 9 9 86 8 8 85 7 7 81 7 6 81 44 36 84 68 55 87 79 66 86 83 68 69 30 25 59 11 11 77 9 8 84 8 8 85 46 39 86 82 71 86 84 71 85 55 45 87 7 8 86 8 8 83 9 10 84 10 9 86 8 6 87 7 8 84 4 3 82 4 4 85 9 9 85 11 10 85 7 7 84 5 8 86 12 13 87 11 13 85 48 39 83 15 14 85 7 7 85 7 7 83 7 7 84 8 8 85 55 47 88 81 73 86 82 71 82 81 63 83 53 43 84 6 6 75 7 6 60 10 9 85 45 37 85 76 61 85 75 63 88 33 28 86 12 13 90 12 12 90 14 16 86 12 11 87 11 13 84 12 13 86 10 10 83 7 7 82 6 6 83 7 7 65 9 10 55 11 12 76 12 12 86 38 36 87 56 51 88 58 50 86 35 32 86 14 15 84 14 14 85 27 25 84 56 45 85 79 67 86 80 66 86 72 63 85 9 9 86 8 8 86 8 6 54 10 11 
11 11 13 8 8 10 8 7 5 12 8 9 12 11 9 12 10 11 13 11 12 13 13 13 15 15 17 14 14 14 14 14 14 11 16 12 14 12 13 11 11 11 28 8 9 52 7 4 55 7 7 56 10 12 58 12 12 63 12 11 85 17 16 87 60 49 87 77 65 84 54 46 86 53 44 87 9 9 86 8 8 80 8 9 83 63 54 86 79 63 88 83 64 86 83 68 87 29 27 85 11 12 86 12 11 86 10 10 85 24 21 88 39 34 86 38 34 87 27 26 86 7 10 87 9 9 86 10 10 85 11 10 84 8 8 82 6 6 83 5 5 85 5 6 85 11 10 85 11 12 84 6 6 84 9 13 84 12 13 85 49 37 82 72 60 83 60 46 84 54 44 84 16 15 86 8 8 84 8 10 84 54 44 86 80 68 87 80 70 84 60 50 84 26 24 84 5 8 83 7 9 87 7 8 82 12 12 84 34 27 86 31 24 85 9 9 87 11 13 87 11 11 88 14 15 88 16 17 85 14 12 85 11 12 85 11 12 86 10 12 84 8 8 84 8 8 84 10 11 85 11 12 86 39 33 87 73 64 89 84 78 88 84 73 87 46 42 87 13 14 85 15 15 84 36 32 84 76 63 84 81 66 82 80 65 83 71 59 83 9 10 86 8 8 84 9 6 86 10 12 
11 10 8 11 9 10 9 9 9 10 8 9 11 10 8 13 11 12 12 12 12 12 12 12 14 14 14 14 16 15 15 15 15 18 17 15 37 17 16 60 11 14 68 24 21 83 49 40 83 32 28 83 9 8 84 12 13 84 14 14 84 23 20 87 81 67 86 84 71 87 81 69 36 35 30 37 9 8 83 7 7 83 11 14 85 34 30 87 79 66 86 83 68 87 49 40 88 20 19 85 11 12 87 13 12 87 11 13 86 10 12 87 13 14 87 11 13 86 10 12 85 9 9 87 9 9 86 10 10 84 10 11 86 8 8 85 11 10 83 51 40 84 51 42 86 56 46 87 12 9 80 8 9 84 12 13 85 48 40 81 72 57 84 78 62 85 79 63 86 80 64 46 25 20 37 9 8 66 7 9 85 27 25 85 58 51 84 57 48 85 22 17 83 7 7 80 8 9 85 7 7 87 7 8 85 7 7 82 6 8 84 6 6 85 9 9 82 12 10 38 9 11 41 13 12 46 17 19 40 14 13 80 12 11 86 47 40 86 53 44 84 20 18 83 9 8 86 10 10 87 11 13 86 57 49 87 83 72 88 84 75 87 83 72 88 47 41 87 13 14 84 14 14 67 21 21 52 48 39 86 78 65 84 81 66 82 68 57 84 8 8 85 7 7 85 9 11 85 11 10 
49 9 9 8 8 8 7 7 7 44 10 11 17 11 11 13 13 15 15 13 14 15 15 15 15 15 15 15 15 15 16 16 16 36 16 17 68 12 13 85 28 21 84 56 45 84 77 61 84 61 53 82 31 27 85 13 14 85 13 14 85 19 20 86 80 68 79 75 63 48 45 38 8 8 8 9 9 9 46 7 8 80 12 11 87 19 18 88 47 43 86 49 41 88 20 19 85 11 10 85 11 10 86 12 11 86 12 11 86 12 9 87 13 12 88 12 14 86 10 10 88 8 9 88 10 10 85 9 11 85 9 11 86 16 16 87 47 39 83 77 61 84 81 66 88 81 71 87 9 9 83 11 12 83 11 14 87 39 37 83 71 57 83 77 61 87 81 67 57 53 44 16 17 12 8 8 8 32 8 8 44 8 8 64 26 23 84 23 20 85 7 5 82 8 9 80 8 9 86 8 8 86 8 8 87 7 6 82 6 6 81 5 5 84 8 8 77 9 10 8 8 6 10 10 12 17 15 16 13 13 11 43 9 10 81 64 54 87 77 65 87 54 47 84 19 15 87 11 11 87 11 11 86 55 50 86 82 71 86 82 73 89 82 72 86 45 39 72 10 11 48 12 12 33 12 11 18 18 16 56 43 35 86 51 45 85 73 61 85 38 30 86 8 8 84 8 10 87 11 11 
88 8 9 48 8 8 47 8 9 80 10 8 22 12 13 16 16 16 17 17 19 15 15 15 14 14 14 14 14 14 14 14 14 49 14 12 84 8 8 84 39 33 83 76 58 83 78 59 83 71 55 85 57 46 84 16 15 83 12 10 85 11 10 86 47 40 76 70 56 9 7 8 9 7 8 9 11 10 11 11 13 77 11 12 85 13 16 85 15 15 84 12 13 86 10 10 84 10 9 85 11 10 86 10 10 86 10 10 86 10 10 89 13 15 86 30 29 85 46 41 72 31 29 49 9 9 48 9 10 57 7 6 84 25 21 86 78 65 84 80 68 84 82 69 86 82 71 88 8 11 85 11 12 85 11 10 86 12 13 83 38 35 84 44 36 57 44 36 16 16 16 7 7 7 8 8 8 8 8 8 9 9 9 25 5 6 64 4 4 85 5 6 83 7 7 83 7 7 83 7 7 86 8 8 86 8 8 84 14 12 83 40 31 79 39 31 42 8 7 6 6 6 9 9 9 13 13 11 9 9 7 7 9 8 42 37 31 81 75 63 86 78 65 85 27 25 87 11 11 86 10 12 88 30 29 86 68 58 86 63 55 87 46 40 69 29 27 36 11 14 11 11 11 10 10 10 10 10 10 19 9 7 47 16 14 53 42 36 85 38 32 83 9 8 87 9 9 86 10 10 
87 9 9 84 8 8 84 10 11 85 14 12 56 16 17 53 17 17 24 16 14 13 13 13 13 13 13 12 14 13 36 12 12 67 11 12 82 10 11 84 41 32 83 75 56 82 73 56 81 58 44 84 33 29 84 12 13 84 10 11 85 7 5 87 13 14 75 41 32 9 9 11 9 9 11 11 11 11 11 11 11 76 10 11 84 10 11 82 10 11 84 8 10 85 36 32 85 46 39 86 25 24 86 12 11 85 11 10 87 11 11 86 30 29 86 66 59 86 82 71 57 54 49 9 9 11 8 8 10 26 8 8 83 25 21 85 79 67 87 83 71 85 83 70 87 83 71 86 10 10 88 10 10 85 11 10 87 11 11 84 12 13 83 12 10 57 9 9 17 7 6 8 8 8 10 8 9 8 8 8 7 5 6 26 6 5 65 5 5 83 24 20 85 32 26 85 11 10 83 9 8 85 6 9 85 7 7 83 24 20 78 72 56 40 37 30 7 7 7 7 7 7 9 9 11 11 11 13 10 10 10 7 7 9 9 9 9 76 70 58 86 78 67 85 30 27 85 11 10 85 9 11 86 8 8 85 30 25 86 26 25 70 11 13 30 12 12 12 12 12 10 10 10 9 9 9 10 8 9 10 9 7 9 9 11 20 10 9 82 10 11 83 9 10 86 8 6 85 9 11 
87 38 33 85 9 11 83 11 12 86 14 15 88 18 18 87 15 16 32 14 14 11 11 11 12 12 12 14 10 9 58 12 12 85 11 12 84 10 11 84 29 26 83 49 39 82 48 38 81 32 28 84 10 11 84 10 9 84 10 11 83 9 10 85 9 11 80 10 8 39 9 11 37 11 12 11 11 11 36 10 9 82 12 12 84 8 8 82 10 11 85 31 29 86 68 56 86 83 68 87 38 33 86 12 13 86 10 12 87 11 11 87 48 43 86 81 75 86 82 71 58 55 48 21 9 11 37 9 8 45 6 9 82 18 16 84 54 46 85 55 45 84 53 48 85 56 48 85 9 11 85 11 12 86 10 12 84 13 11 84 13 9 86 12 13 84 8 8 27 7 8 10 8 9 9 9 9 7 9 6 8 7 5 46 8 7 85 20 16 84 57 46 85 63 52 86 28 26 83 11 12 84 8 8 82 7 4 84 23 18 75 70 51 7 5 6 9 9 9 9 9 9 10 10 10 10 10 10 10 10 8 7 7 7 8 8 6 73 48 41 85 55 45 85 27 25 82 11 9 86 10 10 84 9 6 86 7 10 73 9 9 36 12 12 15 15 13 14 14 16 10 10 8 9 9 9 9 9 9 10 10 8 9 10 12 13 12 10 57 11 11 62 10 12 83 7 9 85 9 9 
85 81 70 84 35 30 88 16 17 85 17 16 87 15 16 86 14 15 54 33 30 38 38 30 40 37 30 40 20 19 67 13 13 84 12 13 86 10 12 86 10 12 86 10 10 83 11 12 80 10 10 84 10 11 87 11 11 83 9 10 86 12 13 87 9 9 84 9 6 86 8 8 85 13 14 41 15 14 88 12 12 86 12 11 86 10 10 87 11 11 87 65 54 85 82 67 86 80 64 87 54 45 88 18 18 86 10 10 86 12 11 85 34 31 87 68 61 84 82 69 65 65 53 60 29 27 86 10 10 85 7 5 86 7 10 86 12 11 84 10 9 86 7 10 84 10 9 87 13 14 84 10 11 83 12 10 83 11 12 85 13 14 84 12 13 85 9 9 50 9 7 15 10 7 28 10 10 37 9 8 15 6 7 31 5 8 70 43 36 87 81 67 75 73 61 60 36 32 69 13 14 74 8 9 54 4 3 55 14 12 52 46 34 6 6 6 9 7 8 9 9 9 12 10 11 9 9 9 8 10 9 7 7 5 12 12 12 54 12 13 60 16 15 59 15 16 55 11 12 74 10 10 85 9 9 69 9 9 35 11 11 13 13 13 16 16 16 14 14 14 10 10 10 11 9 10 9 9 9 11 10 8 12 10 11 12 12 10 9 11 8 14 8 8 55 9 9 86 8 8 
87 81 67 84 75 60 87 21 22 84 14 14 83 12 10 84 10 11 87 64 50 86 79 61 88 62 49 86 28 24 83 12 10 83 11 12 84 10 9 85 11 10 85 11 10 85 11 12 85 10 14 83 11 12 82 10 11 84 10 9 86 8 8 85 5 6 85 13 14 84 35 30 85 38 32 87 38 33 88 18 20 87 13 14 87 13 14 87 11 13 86 64 53 85 79 65 85 79 65 87 81 69 87 36 32 85 9 9 85 9 9 86 10 10 86 33 29 84 64 55 85 73 59 86 37 33 84 10 9 85 7 5 85 7 7 87 7 8 85 9 9 84 8 8 85 9 11 88 12 12 83 11 12 80 10 10 83 11 12 83 11 14 83 32 28 85 36 29 85 36 29 53 35 31 66 18 16 85 7 7 55 7 7 20 6 5 31 30 25 57 54 45 39 38 34 12 10 11 30 12 10 45 7 6 5 5 5 7 5 6 9 7 8 9 9 9 7 7 7 10 10 8 11 9 10 9 9 9 7 5 6 9 9 9 12 12 12 12 14 13 18 14 15 13 13 13 10 8 9 37 9 8 56 8 8 29 9 10 12 11 9 14 14 14 15 15 17 14 12 13 10 10 8 9 9 9 8 10 9 11 11 11 12 12 10 11 11 11 8 8 8 7 7 5 7 7 9 57 7 6 
86 80 66 84 77 59 84 19 15 85 9 11 85 9 9 85 11 12 85 48 39 84 61 47 84 29 24 85 11 12 82 10 11 82 11 9 85 9 9 84 10 9 84 10 9 82 10 11 85 15 15 84 23 20 85 11 12 84 10 9 85 7 7 82 4 2 84 16 15 84 81 66 85 79 63 82 75 57 87 36 33 85 17 16 88 9 12 86 10 12 86 47 42 85 71 60 82 76 62 86 79 63 85 35 26 84 8 8 84 8 8 86 10 10 85 11 10 84 33 30 86 41 36 87 11 11 85 11 10 84 8 10 85 5 6 85 6 9 86 8 8 84 8 8 86 27 23 87 29 25 83 11 12 79 11 10 83 11 12 85 10 14 84 71 55 86 79 63 85 79 63 84 78 64 82 41 35 84 16 13 84 6 6 56 6 7 20 8 10 11 11 11 11 11 9 8 8 8 6 6 8 6 6 6 6 6 6 7 7 9 8 8 8 8 8 8 6 6 4 9 9 9 10 8 9 7 7 7 8 8 8 11 9 10 13 13 15 13 13 13 14 12 13 11 11 11 7 7 7 5 5 5 8 8 8 9 9 9 12 12 10 13 13 11 13 13 13 11 11 11 11 11 9 10 10 10 10 8 9 12 11 9 11 11 9 10 10 10 6 6 6 6 6 6 7 7 7 10 10 10 
87 63 53 83 59 49 84 12 13 84 8 10 86 10 10 82 10 11 80 8 9 84 10 9 85 9 11 83 9 10 84 10 9 83 9 10 83 7 7 82 8 7 84 10 9 83 15 16 84 48 36 85 63 49 85 21 19 82 6 6 84 6 4 83 5 3 85 15 15 83 80 65 85 82 67 81 75 61 84 77 61 84 19 17 86 12 13 86 12 11 85 9 9 86 45 39 86 60 47 84 60 48 85 26 22 84 8 8 87 9 9 87 11 13 88 9 12 86 8 8 86 8 6 84 13 11 86 10 10 83 9 10 82 6 6 84 6 6 84 8 8 86 37 32 84 83 65 84 79 60 84 26 24 83 12 10 82 12 10 85 9 9 85 69 56 82 79 62 86 80 66 82 76 62 83 66 56 84 23 20 85 7 7 86 8 8 59 11 11 20 12 10 9 9 9 6 6 6 5 5 5 6 6 8 9 9 9 10 10 8 8 8 8 6 4 7 6 6 6 8 8 8 11 9 12 10 10 8 10 9 7 10 10 10 12 12 14 16 14 15 13 13 13 9 9 9 5 5 5 6 4 5 8 8 6 11 11 9 12 12 12 12 11 9 12 11 9 10 10 10 11 9 10 11 11 11 10 10 10 13 11 14 11 11 11 8 6 7 5 5 5 6 4 5 7 7 7 13 11 12 
70 14 13 83 13 13 81 9 10 82 8 7 85 9 9 84 10 11 80 9 7 83 9 10 82 17 15 84 25 21 85 17 14 84 10 7 83 9 10 81 9 10 84 13 11 84 35 30 80 70 58 71 61 51 83 59 47 84 8 8 84 8 12 85 9 9 86 18 17 85 82 67 87 81 67 88 80 67 85 79 65 86 21 19 85 11 12 87 13 14 86 12 11 87 7 8 86 8 8 86 8 6 84 8 8 84 8 8 85 9 11 85 11 12 86 10 10 85 9 9 86 12 11 86 28 26 84 23 22 85 7 7 83 8 5 85 9 9 87 19 18 88 82 68 84 81 66 84 79 60 83 74 59 85 11 12 85 11 12 84 10 9 84 56 45 84 72 58 83 78 59 83 77 61 84 33 29 85 7 7 84 6 6 88 8 9 87 9 9 57 9 9 23 7 8 7 7 9 8 6 7 7 7 7 7 7 7 8 8 8 8 8 8 6 6 6 6 4 5 27 26 22 30 29 25 29 11 11 28 10 8 16 10 12 12 12 12 15 15 15 12 12 10 7 7 7 6 6 6 6 6 4 10 10 10 11 11 11 12 10 11 11 11 11 11 11 11 11 11 9 16 10 10 30 10 11 29 11 11 26 12 12 12 11 9 8 7 5 6 4 5 5 5 3 7 7 7 13 13 11 
15 15 17 76 12 13 84 10 11 84 10 9 88 10 10 84 10 11 83 8 5 83 7 7 83 49 39 85 73 59 85 38 30 85 15 13 85 11 12 83 12 10 85 14 12 81 36 33 54 50 41 26 22 19 78 56 45 85 9 9 86 14 15 85 13 14 84 20 18 84 72 60 85 69 56 88 72 59 87 75 63 86 22 20 84 12 13 85 15 15 86 14 17 85 9 9 76 8 9 74 8 9 75 10 8 81 9 10 84 8 8 87 9 9 87 9 9 87 13 14 86 38 34 85 81 70 86 66 57 84 10 9 86 7 10 86 12 11 85 20 18 85 82 67 86 83 68 73 70 53 75 67 54 75 13 14 84 10 9 85 9 9 82 10 11 82 49 42 84 68 52 85 69 54 85 30 25 86 6 7 87 7 8 85 9 11 87 16 14 86 14 15 56 6 7 7 7 7 9 8 6 9 9 9 8 6 9 6 6 6 6 6 6 7 7 7 28 24 21 84 78 64 87 81 67 84 18 19 84 8 8 30 10 9 12 12 12 13 15 14 12 12 12 8 8 6 6 6 8 7 5 6 11 11 11 12 12 12 11 11 11 10 12 11 12 10 11 11 11 11 39 11 10 86 10 12 86 10 10 68 12 13 12 12 12 10 10 10 9 8 6 6 6 6 10 10 10 14 14 14 
14 14 14 11 11 9 74 18 17 85 20 18 83 11 12 83 11 12 85 9 9 82 14 13 84 51 42 84 75 60 87 80 62 85 51 41 86 16 16 87 13 14 88 14 15 63 17 19 18 12 14 11 9 10 28 10 10 83 11 12 86 14 15 86 12 13 85 11 8 82 8 9 84 5 8 86 12 11 87 15 18 88 12 14 87 13 14 88 16 17 87 15 16 77 13 13 28 10 10 10 10 10 15 15 15 62 14 14 86 8 8 87 7 8 89 9 10 86 35 32 85 81 70 84 82 69 86 80 68 84 62 51 84 8 8 88 9 12 85 20 16 85 71 60 85 72 56 11 11 11 11 9 10 22 12 13 79 10 13 83 9 10 82 11 9 85 11 12 85 9 9 84 10 9 85 11 12 85 9 9 87 9 9 86 10 12 87 43 40 86 45 39 55 11 8 6 6 6 14 10 11 11 11 11 7 7 7 7 5 6 5 7 6 27 19 17 85 79 63 87 81 65 87 81 67 86 83 68 86 10 10 85 9 9 32 12 13 14 14 14 11 11 13 9 9 9 6 6 6 7 7 7 11 9 10 10 10 10 11 11 11 12 12 12 12 12 12 17 11 11 44 10 11 85 9 9 84 8 8 70 10 10 17 13 14 12 12 12 10 10 10 10 8 9 12 12 10 18 18 18 
9 9 9 17 18 13 75 69 55 86 79 63 86 22 22 84 12 13 86 10 10 84 50 40 86 70 57 85 79 63 87 82 63 87 75 59 86 43 37 87 15 16 87 15 16 85 15 17 61 13 11 18 10 8 32 11 10 83 12 10 84 10 11 86 10 10 84 8 8 81 5 5 86 6 7 84 8 10 85 11 12 85 11 10 85 13 14 88 18 18 87 17 15 39 13 12 19 17 18 19 18 16 63 56 48 84 39 33 84 12 13 84 8 8 86 8 8 86 36 29 86 82 70 85 81 70 85 81 70 86 62 52 85 9 11 84 8 8 85 7 5 84 10 9 82 11 9 21 12 13 19 9 10 85 9 9 86 10 10 84 8 10 83 12 10 86 10 12 86 12 11 85 11 12 85 9 11 85 11 10 85 11 10 84 10 9 86 10 10 84 46 37 60 57 48 12 12 12 11 11 11 11 11 11 8 8 8 12 6 6 27 9 7 86 18 17 85 79 63 85 83 70 86 83 68 87 81 69 84 10 9 84 10 11 87 12 16 23 15 13 11 10 8 8 6 7 8 7 5 6 6 6 7 5 6 7 7 7 9 7 8 11 11 13 12 12 12 39 13 14 85 11 10 87 9 9 86 8 8 85 9 11 63 13 12 12 12 12 11 11 11 14 10 11 12 12 12 17 17 17 
7 7 7 85 78 62 85 82 67 85 80 61 85 19 20 83 11 12 85 9 11 84 8 10 83 50 41 84 79 60 86 79 63 85 48 40 85 15 13 85 13 16 86 14 17 86 15 13 85 14 12 85 9 9 85 9 9 86 12 13 84 9 4 83 8 5 83 7 7 85 7 5 85 7 7 84 8 8 83 9 8 85 11 10 84 12 15 87 15 16 87 16 14 84 13 11 86 61 54 86 80 68 84 81 66 82 79 62 83 43 35 84 8 8 87 7 10 86 35 31 85 81 70 84 80 69 85 82 67 84 65 51 85 9 9 86 8 8 83 7 9 84 10 11 83 11 14 82 10 11 82 11 9 81 7 6 85 9 9 86 10 12 82 10 11 86 12 13 87 11 11 84 10 11 86 12 13 84 10 11 86 12 13 86 10 10 85 9 9 85 45 37 83 81 66 57 52 46 9 9 7 12 10 11 11 11 9 28 8 9 85 9 9 87 19 16 86 79 63 86 80 68 87 84 69 85 82 67 85 7 7 81 11 11 85 11 10 22 14 12 12 10 11 7 7 7 5 5 3 6 4 5 6 4 5 6 6 6 7 7 5 9 9 9 11 11 11 41 13 10 85 11 12 87 8 11 87 9 9 87 9 9 66 10 11 12 10 13 9 9 9 10 10 10 12 12 12 14 16 15 
85 79 65 85 81 69 87 81 69 81 78 63 85 75 63 84 26 22 82 11 9 84 8 8 84 8 8 83 54 40 84 37 31 83 11 12 84 14 14 85 13 14 84 12 13 85 11 10 84 12 13 87 13 14 87 11 15 84 10 11 82 8 7 83 7 7 86 11 8 87 7 10 84 5 10 84 75 58 84 78 64 84 81 64 85 21 19 82 14 15 85 13 14 84 12 13 85 63 50 85 79 65 85 79 63 81 78 61 81 40 34 85 7 7 84 6 6 86 8 6 88 12 12 88 12 12 85 9 11 82 11 9 85 9 11 87 8 11 85 6 9 86 10 10 87 11 11 84 9 6 80 8 9 80 8 9 86 8 8 85 9 9 85 11 10 86 15 13 85 63 52 86 80 64 84 78 64 84 37 31 84 10 9 86 10 12 86 10 10 85 44 38 86 80 66 83 80 65 85 79 65 86 79 63 87 63 51 86 10 10 86 12 11 86 18 17 85 75 63 85 79 63 83 7 7 86 5 4 86 8 8 87 9 9 85 11 12 86 12 13 86 10 12 26 6 5 8 6 7 6 6 6 9 7 10 6 6 6 47 7 7 87 9 9 85 45 37 57 53 42 37 37 29 86 54 43 67 9 8 10 8 9 11 11 11 12 10 11 11 9 10 11 10 8 12 12 12 16 14 15 
84 78 64 83 79 67 86 80 66 85 77 64 85 17 16 84 10 9 83 9 6 81 7 6 82 8 7 85 11 10 85 14 12 87 13 14 83 13 13 86 14 15 86 10 10 84 8 10 84 10 11 86 12 13 86 11 8 83 9 8 83 4 7 83 7 7 84 9 13 80 9 7 81 5 5 85 78 60 83 81 68 83 77 61 85 19 21 83 13 13 84 12 13 86 12 13 83 9 10 83 53 43 85 77 64 84 33 29 82 6 6 83 5 5 84 4 3 85 5 6 87 11 13 86 12 13 84 10 9 84 10 11 86 10 10 86 8 8 84 6 4 84 10 7 86 11 8 88 10 10 80 10 10 80 9 7 83 7 9 86 10 10 85 11 10 84 14 14 85 63 52 86 80 66 85 79 63 85 77 64 85 34 30 86 10 10 88 10 10 84 43 37 84 78 64 84 79 60 84 78 62 84 62 49 85 11 10 85 13 14 86 12 13 86 7 10 82 7 4 82 6 6 85 6 9 87 9 9 87 9 9 86 10 10 85 11 12 85 11 10 85 9 9 85 6 9 84 6 6 82 6 8 84 8 8 83 7 9 85 9 9 86 12 13 84 46 37 56 49 41 38 35 30 86 78 65 66 62 51 11 11 11 12 12 14 10 11 13 9 9 9 12 12 12 16 16 16 14 14 14 
86 6 5 85 81 70 85 81 69 85 15 15 86 11 8 84 13 11 84 10 11 83 9 8 85 9 9 84 14 14 85 17 16 86 16 16 86 16 16 86 16 14 85 13 14 83 9 8 84 6 6 83 24 18 83 74 57 83 76 57 84 67 51 85 5 6 86 8 8 84 8 8 81 9 10 82 79 64 83 80 65 83 77 61 83 18 16 83 9 8 82 10 11 84 10 9 84 10 11 85 9 11 84 8 10 84 8 10 84 8 10 85 6 9 84 4 7 85 5 8 88 8 9 87 11 13 86 12 13 85 11 12 86 10 12 86 7 10 86 10 10 86 8 8 86 8 8 86 83 68 83 74 59 82 73 56 84 77 59 85 19 20 84 14 14 83 12 10 83 64 49 86 80 64 86 80 66 85 36 31 85 9 9 84 10 11 85 9 9 85 7 7 83 34 29 87 80 64 86 53 44 85 11 12 85 11 12 85 11 12 86 10 12 85 9 9 84 8 10 86 6 5 86 8 8 86 7 10 85 7 5 86 10 10 85 9 11 85 11 10 84 8 8 85 63 52 84 81 64 83 80 65 82 79 62 85 36 29 85 11 10 84 12 13 84 43 37 83 77 61 57 54 45 11 13 10 11 11 11 30 12 12 87 11 13 86 10 10 85 11 10 85 15 13 85 15 15 84 13 11 
84 4 3 84 14 14 85 15 15 82 6 6 87 9 9 84 12 13 86 12 11 85 11 12 42 10 11 22 12 13 24 15 16 54 43 37 85 44 38 85 15 15 85 15 15 83 9 8 83 28 23 83 64 50 83 71 55 84 75 58 82 67 48 83 5 3 83 7 7 84 8 10 83 11 12 82 16 17 83 13 11 84 14 14 84 6 6 82 6 6 83 9 10 84 10 11 83 12 10 83 11 12 82 11 9 83 9 8 83 9 8 82 8 7 86 6 7 84 6 4 86 8 8 85 11 12 86 28 24 86 56 46 85 11 12 85 9 11 85 11 10 85 9 9 82 6 6 87 81 67 84 80 68 84 78 62 83 78 59 85 17 16 87 16 14 84 10 11 85 15 13 85 71 60 86 82 70 85 36 32 85 11 12 86 12 11 86 8 8 85 5 4 85 11 10 84 16 15 87 13 12 85 11 12 87 11 11 85 9 9 84 9 6 88 10 10 83 9 10 85 7 7 83 70 54 87 69 57 84 8 8 84 8 8 87 9 7 86 10 10 85 61 51 84 76 65 83 81 68 83 79 67 84 81 66 84 35 30 84 8 8 83 11 12 86 43 36 85 80 61 80 74 58 52 48 39 28 8 9 76 10 11 86 12 11 85 11 12 84 12 13 85 13 14 86 18 19 85 14 12 
84 4 7 84 4 3 86 6 5 84 6 6 84 8 8 86 10 12 36 15 14 21 13 10 16 10 10 11 11 11 10 10 10 48 45 38 84 72 60 84 41 34 82 12 10 84 10 11 83 33 26 81 71 59 81 69 53 83 75 56 83 66 50 81 5 5 82 7 4 84 8 8 84 10 9 18 8 9 81 5 5 81 5 5 81 5 5 81 10 8 83 9 10 84 10 11 82 12 14 84 13 11 84 10 9 83 9 6 84 10 11 81 9 10 87 9 9 86 8 8 83 9 8 86 33 27 85 73 57 87 81 67 85 73 59 86 64 51 86 11 15 85 11 10 85 12 6 85 83 70 87 81 67 85 79 65 85 78 62 85 20 18 87 13 14 84 8 10 84 13 11 90 30 29 49 29 28 64 15 18 85 11 10 87 11 15 85 11 10 82 8 7 83 7 7 83 8 5 86 8 8 84 10 9 85 14 12 83 9 8 85 7 5 84 8 10 85 17 14 83 71 59 19 15 14 19 17 18 83 71 57 85 17 16 86 7 10 86 10 10 85 13 14 87 68 61 86 80 66 84 78 64 83 80 63 85 36 31 84 8 8 83 9 8 84 14 14 61 20 18 17 19 14 11 11 9 27 9 9 85 10 7 85 11 10 85 11 10 86 12 13 89 14 18 88 18 18 86 12 11 
85 7 5 85 5 4 85 5 4 86 63 57 84 71 62 33 25 23 20 14 14 12 12 12 9 7 10 8 8 6 7 9 8 46 41 35 83 77 61 84 72 58 83 46 40 85 7 5 83 9 10 80 30 23 83 70 54 82 56 43 80 15 13 82 6 8 83 5 3 85 9 11 20 10 11 8 8 8 16 6 5 70 4 5 83 7 9 84 8 8 84 8 8 84 10 9 84 10 9 84 10 11 84 10 9 84 47 38 82 38 29 84 10 11 84 10 9 83 9 10 83 11 12 85 36 32 86 83 68 85 83 68 83 84 68 84 70 59 85 9 9 83 12 10 86 12 11 85 21 19 88 82 70 85 82 67 85 27 23 84 10 9 87 11 11 84 8 8 84 10 11 42 21 20 26 24 25 62 16 18 86 12 13 83 11 12 83 12 10 85 11 12 84 8 8 86 6 5 87 29 27 85 71 60 83 54 46 85 7 5 83 3 2 83 7 7 76 7 10 17 16 14 6 8 7 10 10 10 20 19 17 76 10 11 87 9 9 88 9 12 86 10 10 86 14 15 86 66 55 84 39 34 84 16 15 82 12 12 85 9 9 84 10 11 83 11 12 55 11 12 6 8 7 31 7 7 58 10 10 41 11 13 87 11 11 85 9 11 85 11 10 85 14 12 86 14 15 85 71 60 
86 6 5 87 6 5 84 51 46 86 82 73 83 79 67 29 30 25 15 15 15 12 11 16 9 9 9 8 8 10 40 37 28 75 69 53 84 77 61 82 49 40 85 17 14 84 9 6 84 8 10 82 12 10 81 21 20 81 17 15 80 4 6 81 5 5 85 7 7 85 6 9 69 10 12 10 12 11 8 8 8 75 7 6 84 6 6 82 6 6 83 7 7 84 8 10 87 9 7 85 9 9 83 36 30 82 68 55 84 68 55 85 36 29 84 8 10 83 9 8 85 11 12 84 37 29 84 80 68 84 80 68 84 78 64 83 70 54 86 10 10 82 11 9 83 11 12 87 12 16 86 31 28 84 29 26 87 11 11 87 11 13 86 10 10 84 13 11 84 10 11 32 12 11 17 17 17 62 18 19 86 12 13 86 12 11 85 11 12 86 11 15 85 10 14 84 6 6 84 33 29 84 78 64 82 74 61 83 47 35 82 4 4 84 8 8 80 10 10 63 7 8 9 9 9 11 11 9 7 8 10 76 12 10 86 10 10 87 9 9 85 11 10 84 10 9 84 23 22 84 13 11 84 8 8 83 7 9 87 9 9 85 9 9 83 12 10 75 9 10 47 7 7 20 10 9 39 11 10 72 11 10 87 9 9 86 10 10 87 13 14 90 16 17 83 63 52 86 79 69 
85 9 9 86 6 7 85 68 58 81 82 68 83 81 66 31 32 27 16 16 16 12 12 12 10 10 10 41 7 6 79 21 19 84 26 22 83 25 21 82 17 15 84 8 10 84 10 11 85 11 10 81 9 10 82 6 8 82 6 8 82 6 8 80 4 4 83 7 9 86 8 6 86 8 8 67 11 10 68 9 11 83 53 43 85 58 49 83 59 49 85 21 21 86 8 8 86 8 8 86 8 8 85 48 40 82 72 60 84 78 62 86 70 57 84 33 29 82 11 9 85 11 10 86 16 16 83 24 20 85 25 24 83 25 21 82 21 18 87 9 9 84 10 9 86 12 11 87 15 16 87 15 16 86 10 12 85 11 10 87 12 9 85 9 11 86 12 13 85 11 12 71 11 10 38 14 12 58 43 36 85 63 50 86 63 49 85 36 29 86 10 10 85 9 9 85 24 21 84 68 55 86 78 65 81 80 62 83 71 57 81 51 41 86 8 8 84 8 10 83 9 10 10 8 13 11 9 10 10 10 8 76 10 11 87 11 13 84 10 9 83 12 10 86 10 10 87 11 11 85 9 9 84 8 8 85 7 7 87 9 9 87 9 9 84 8 10 82 6 6 57 7 8 11 9 10 28 22 22 84 50 41 86 8 8 86 12 11 87 13 14 88 20 19 86 79 69 85 83 70 
85 11 10 82 6 6 83 67 54 84 78 62 83 77 61 71 63 50 68 27 23 67 13 11 66 10 9 81 9 10 83 7 11 85 9 9 83 9 10 84 10 11 83 9 8 83 9 10 83 9 8 85 9 9 82 6 8 80 19 16 83 54 38 81 5 5 85 9 11 83 7 9 85 6 9 85 9 11 84 65 51 82 79 64 81 79 66 84 76 63 85 66 52 86 21 19 84 8 10 84 8 8 85 51 42 85 75 63 87 78 63 82 52 42 84 16 15 84 10 11 84 13 11 83 7 7 85 5 6 84 4 5 82 6 6 83 8 5 81 5 5 83 9 8 86 14 15 87 15 16 85 13 14 85 65 56 84 64 57 85 20 18 86 8 8 85 11 10 87 11 11 87 11 13 71 41 33 77 74 57 83 77 61 84 78 62 85 42 35 86 7 10 84 8 8 82 33 28 84 77 61 85 77 64 86 80 66 85 65 54 84 19 17 84 4 5 86 8 8 85 11 10 68 10 9 67 8 10 66 10 11 86 12 11 84 10 11 85 10 7 84 10 11 86 12 13 86 12 13 86 10 12 85 37 33 84 31 25 85 9 11 84 8 8 83 7 7 83 8 5 76 27 23 68 64 55 72 68 59 84 76 63 84 50 41 85 11 12 84 12 13 85 20 18 85 81 69 83 80 65 
86 12 13 83 9 8 82 27 20 83 32 29 84 34 27 84 35 30 86 21 19 83 13 11 81 11 11 82 10 11 82 8 7 84 8 8 81 9 10 84 10 9 84 8 10 84 8 10 85 9 9 82 8 9 81 20 17 80 53 34 83 72 52 86 49 40 86 49 41 85 9 9 83 7 7 83 9 8 84 82 67 83 80 65 83 77 61 83 77 63 85 44 38 84 19 15 85 9 9 87 9 9 86 24 25 83 59 49 84 55 47 84 20 18 83 7 7 83 9 10 84 10 11 86 6 7 83 5 3 83 3 4 82 7 4 83 7 7 83 5 5 84 10 9 85 15 15 85 15 15 85 9 9 85 83 70 87 83 74 86 59 52 84 10 9 85 11 12 84 12 13 84 13 11 84 52 41 82 75 57 83 76 58 84 79 59 85 45 33 85 7 7 83 7 7 83 34 29 84 76 63 84 77 61 84 66 52 84 30 28 83 5 3 84 6 6 83 9 8 84 12 15 85 9 9 83 7 7 86 14 15 84 14 12 85 11 10 86 10 10 86 10 10 87 11 11 87 11 11 86 35 31 84 68 53 85 61 49 85 32 26 86 7 10 85 7 5 86 10 10 84 37 31 85 79 65 85 81 69 85 79 67 82 62 51 87 11 11 82 11 9 86 18 15 86 80 68 87 81 65 
44 14 16 41 12 14 78 7 5 84 6 6 84 8 10 83 9 8 84 14 12 84 13 11 82 10 11 81 9 10 83 9 8 84 8 8 85 30 27 84 52 41 83 36 30 82 10 11 83 11 12 85 11 12 83 25 23 82 69 53 81 74 55 84 77 61 84 70 59 85 11 10 83 7 9 83 7 9 85 36 31 84 74 62 84 76 63 81 75 61 83 28 25 85 11 10 84 8 8 85 9 9 87 9 9 84 23 20 84 19 17 82 6 6 83 9 10 85 9 11 86 8 8 84 6 6 84 4 3 83 5 5 83 5 3 83 4 7 81 5 5 82 6 6 88 14 13 85 15 17 84 8 8 88 81 71 88 84 75 87 83 72 86 57 49 83 18 16 86 12 13 85 11 10 85 26 22 84 58 45 84 76 57 84 56 42 83 22 17 85 7 7 83 7 7 84 19 17 86 39 31 86 37 33 86 33 29 82 8 7 82 4 4 86 6 7 85 7 7 85 9 9 86 10 12 85 9 11 84 54 46 87 54 47 85 17 16 86 12 13 86 12 11 84 9 13 83 42 36 85 68 58 84 78 64 86 80 66 84 44 36 86 7 10 86 10 10 84 10 9 82 37 31 85 77 64 84 78 64 85 66 52 87 32 27 85 9 9 85 9 9 86 12 11 84 33 30 84 33 30 
15 15 15 13 13 11 31 5 6 80 4 6 81 7 6 85 9 11 87 11 13 82 12 10 83 9 8 83 9 8 83 7 9 81 32 27 85 63 52 85 75 65 85 68 58 87 38 33 68 12 13 52 12 10 83 28 25 84 72 60 84 70 57 83 76 58 85 76 61 85 56 48 84 8 8 86 8 8 84 8 8 84 29 26 83 32 28 84 34 27 83 18 16 83 9 10 85 9 9 85 9 11 84 8 8 82 6 6 83 5 5 84 9 6 86 10 10 84 8 10 81 5 5 83 4 7 85 5 4 84 19 15 83 48 42 82 48 39 82 44 35 85 7 7 85 9 9 86 12 11 84 10 9 87 81 69 90 83 75 88 84 72 86 82 70 87 27 26 83 9 8 84 8 10 84 10 9 85 27 23 85 35 28 83 22 19 87 8 11 86 7 10 84 8 8 84 8 8 86 12 13 85 15 15 85 11 10 82 4 4 82 2 3 85 7 7 88 9 12 84 8 10 86 10 10 88 54 45 88 80 69 86 80 68 86 57 51 86 18 19 84 12 13 82 11 9 86 59 50 85 75 63 86 80 68 83 80 65 86 43 37 85 9 9 84 10 11 85 10 14 85 21 21 84 37 31 84 37 31 84 33 29 85 10 14 86 10 12 83 8 12 86 8 8 83 7 7 84 8 8 
14 12 13 12 11 9 8 6 9 41 5 5 77 7 9 85 38 32 86 45 39 84 20 20 82 10 11 82 10 11 84 10 9 82 43 36 66 59 51 47 42 38 49 44 38 47 32 27 32 11 10 21 11 12 47 19 16 55 51 42 82 72 60 81 74 58 83 74 57 85 46 41 85 9 13 85 9 9 84 8 8 84 6 4 82 6 6 87 7 8 83 9 10 54 8 8 46 7 8 47 8 9 72 8 6 81 5 5 83 24 20 83 43 35 85 26 22 83 7 9 82 4 4 83 5 5 85 15 13 84 50 41 83 77 61 82 76 60 84 66 54 84 8 8 85 9 9 50 12 11 47 9 8 50 47 42 84 80 69 87 83 72 85 81 69 87 27 26 83 9 8 83 7 9 84 8 8 85 9 11 84 8 8 83 7 7 85 9 11 86 10 12 71 9 10 49 11 10 48 12 12 50 14 14 57 9 9 82 4 4 83 3 4 84 6 6 87 8 11 89 9 10 86 12 11 86 79 69 88 82 68 85 81 69 85 79 67 86 22 22 84 13 11 82 10 11 59 36 30 49 45 36 73 67 55 86 78 65 84 44 36 84 8 12 83 12 10 83 11 12 86 12 11 83 11 12 85 13 14 86 14 17 84 12 13 85 11 10 83 9 8 83 7 7 84 8 8 48 9 10 
12 12 12 10 8 11 8 8 8 9 9 9 42 8 7 44 34 32 74 68 54 85 52 43 83 24 20 83 12 10 84 10 9 66 26 24 27 26 22 10 8 9 11 9 12 12 10 11 9 9 11 9 9 9 9 11 8 21 17 16 51 44 38 84 41 34 83 38 32 81 9 10 83 7 7 82 8 7 83 7 7 85 7 7 82 6 8 84 6 6 82 6 6 25 7 5 7 7 7 6 6 6 30 6 6 71 28 22 83 59 47 84 77 61 82 58 46 83 28 23 83 5 5 85 5 6 84 23 20 84 78 64 85 78 62 81 78 61 83 74 57 83 40 33 86 11 8 13 13 13 13 11 12 12 12 10 78 45 40 84 47 41 83 75 64 85 26 22 83 9 8 83 7 9 84 6 4 85 7 7 86 8 6 86 8 8 83 7 9 85 11 10 57 11 11 12 12 12 12 12 12 14 16 13 30 18 18 84 41 35 84 41 35 83 38 33 87 9 9 89 11 11 88 12 14 85 82 67 88 82 70 85 82 67 83 79 67 86 21 19 86 12 13 84 13 11 32 14 12 15 15 15 34 33 29 47 42 36 63 23 21 83 7 7 86 11 8 86 10 12 84 10 9 85 11 12 87 13 12 85 14 12 84 13 11 82 8 7 84 6 6 83 7 7 87 9 9 8 8 8 
11 11 11 9 7 8 8 8 6 7 7 7 6 6 4 5 5 5 65 58 48 56 52 41 71 23 19 84 10 11 58 10 10 28 7 6 9 7 8 8 8 8 9 9 7 8 8 6 6 6 6 6 6 8 7 7 7 9 9 9 14 10 9 51 9 10 84 10 9 83 7 7 80 8 9 80 6 5 82 8 5 82 6 6 86 39 33 82 41 37 53 15 12 17 9 7 6 6 6 6 6 6 6 4 5 53 49 40 81 78 61 83 77 63 81 74 58 84 47 39 84 6 6 82 7 4 84 14 14 83 40 34 82 49 40 83 76 60 84 75 60 80 41 34 49 9 9 13 13 13 14 14 14 14 14 16 45 13 14 82 16 17 86 43 37 84 16 17 85 7 7 83 7 7 85 7 7 86 8 8 85 9 9 85 27 25 83 42 36 86 28 24 57 11 11 12 10 13 13 11 12 17 16 14 23 23 21 58 54 43 85 79 67 85 70 63 87 9 7 86 10 10 85 14 12 86 49 41 87 79 66 84 78 64 86 49 41 84 13 11 84 8 10 84 12 13 32 14 14 14 14 16 9 9 9 30 6 6 64 4 4 84 6 6 84 8 8 85 7 7 84 8 8 84 8 8 84 20 18 86 45 41 83 46 38 82 37 31 84 4 5 78 6 7 47 7 8 6 6 4 
13 11 12 8 10 7 9 8 6 7 7 7 6 6 6 6 6 6 42 38 29 23 22 18 55 9 11 84 8 8 36 8 7 7 7 7 8 8 8 7 7 7 8 8 8 5 7 6 5 5 5 5 5 5 6 6 6 8 8 8 10 10 8 13 9 8 62 11 10 85 9 11 82 8 7 80 6 5 82 8 9 84 8 10 84 70 57 58 56 44 22 21 17 7 7 7 7 7 5 6 6 6 6 4 5 35 31 28 68 64 52 83 76 58 82 73 56 84 50 40 82 6 6 83 5 5 82 6 6 81 5 5 82 14 11 81 49 38 86 49 40 75 11 11 10 10 10 11 11 11 15 15 15 14 14 14 12 12 12 77 17 17 85 17 16 83 9 8 84 6 6 85 7 5 85 9 11 85 11 10 87 29 27 87 58 52 84 80 68 87 46 42 59 11 11 11 11 11 13 11 12 17 17 17 26 25 23 51 48 43 85 81 69 87 70 62 86 8 8 86 10 12 84 12 13 86 16 16 85 55 47 83 50 43 85 14 12 84 8 8 86 7 10 83 11 12 54 14 14 22 12 11 7 7 7 56 6 7 83 18 16 84 19 15 85 5 6 85 5 6 83 7 7 85 9 9 86 28 24 85 78 68 82 78 66 82 68 57 84 5 1 81 5 5 36 5 10 34 4 4 
12 10 13 9 9 9 7 7 7 7 7 7 8 7 5 8 6 7 8 8 8 10 8 11 38 9 11 57 9 9 26 8 8 7 7 7 7 7 9 7 5 6 6 4 5 5 5 5 6 6 6 6 6 6 7 5 6 8 10 7 10 10 10 11 10 6 17 11 11 57 11 13 83 34 29 56 6 7 56 10 10 57 11 11 56 49 41 11 13 12 7 7 9 6 8 7 7 7 7 7 7 5 7 7 7 7 7 7 30 26 23 56 48 37 69 49 38 82 32 25 84 6 6 83 5 3 82 6 6 82 6 6 82 6 6 82 6 6 82 8 9 80 10 10 39 11 10 13 11 12 13 13 13 14 14 14 12 10 11 55 17 16 58 14 15 80 27 23 82 10 11 83 5 3 84 10 9 87 13 14 85 55 47 87 81 67 83 81 66 86 59 50 58 29 25 11 11 11 12 10 15 15 15 15 24 26 23 67 64 55 85 75 63 86 48 45 85 9 9 86 12 11 83 15 14 86 16 16 83 15 16 84 13 11 86 12 11 84 10 9 84 10 9 84 12 13 83 13 11 58 12 12 35 26 19 64 33 30 84 57 48 84 56 45 85 20 16 85 7 7 84 8 8 85 11 12 86 27 23 86 78 65 83 76 60 83 67 54 83 5 5 85 7 7 86 8 8 83 7 7 
10 10 10 10 10 8 9 9 7 8 6 7 9 9 9 9 9 9 9 11 10 11 9 10 10 8 9 6 6 8 8 6 7 7 7 7 9 7 8 7 6 4 6 4 5 7 7 7 7 7 7 7 5 6 8 8 8 9 9 9 10 10 10 11 11 9 15 14 12 12 12 12 58 51 43 8 8 8 10 10 10 13 13 15 9 9 9 9 9 7 9 9 11 8 6 7 7 7 7 7 7 7 8 8 8 7 7 7 6 7 2 6 8 7 29 8 7 55 7 5 55 7 5 55 5 4 55 7 7 52 7 4 54 6 6 54 6 6 53 3 4 59 11 11 59 15 14 13 13 13 14 14 12 14 12 13 12 12 14 15 13 14 12 12 12 40 35 29 56 18 15 56 8 8 55 11 10 57 13 14 59 35 31 57 53 42 57 55 43 60 53 47 40 37 32 11 9 10 11 9 10 12 12 10 12 16 15 22 21 19 63 50 42 87 8 11 83 12 10 84 13 11 86 14 15 85 14 12 85 11 12 86 12 11 85 11 10 84 13 11 85 11 12 85 13 14 84 14 14 82 10 11 84 54 44 85 79 67 83 80 65 83 80 63 84 43 37 84 10 9 84 8 8 82 10 11 84 26 22 82 73 56 83 74 57 80 64 48 81 7 8 84 8 8 84 10 9 84 8 10 
10 10 8 11 11 11 10 10 10 8 6 7 9 9 11 10 10 10 9 9 9 8 8 8 7 7 7 7 5 6 6 6 6 6 6 6 6 6 6 6 6 6 7 5 6 7 5 8 7 5 6 7 7 5 8 8 8 9 9 7 7 7 9 10 8 11 12 10 11 9 9 11 9 9 9 8 8 8 11 9 10 12 10 11 12 11 9 10 10 8 10 10 8 8 8 10 8 8 8 7 7 7 7 7 9 6 6 6 7 5 8 5 5 5 8 6 7 7 7 7 7 7 7 9 7 8 8 8 8 7 7 7 6 6 6 5 5 7 3 5 2 11 11 11 15 15 17 12 12 14 12 12 14 13 11 12 10 10 12 15 14 12 12 12 12 7 7 7 8 8 8 12 10 11 12 12 12 12 12 14 11 11 11 10 10 8 12 11 9 11 11 13 11 9 10 15 11 10 24 10 9 11 10 8 13 11 12 12 10 11 19 9 8 67 11 12 69 10 12 69 11 10 66 10 11 68 13 10 68 10 9 80 25 22 82 29 25 83 28 23 86 18 15 85 13 14 84 14 16 82 10 11 84 51 42 85 79 65 83 80 63 83 78 59 84 44 36 83 9 10 83 9 8 82 8 7 77 19 17 67 59 48 83 67 52 79 47 36 82 6 8 82 8 9 83 7 7 82 8 7 
10 10 10 11 11 11 9 9 9 8 8 8 7 7 7 10 8 9 11 9 10 9 9 9 6 8 7 6 6 8 5 5 5 7 5 6 6 6 6 6 8 7 6 5 3 6 6 6 6 6 6 6 6 6 8 8 8 9 9 9 9 7 10 8 8 8 10 8 9 6 6 6 10 6 5 8 6 7 10 10 10 11 12 14 11 11 11 9 9 9 8 8 8 5 7 6 7 7 7 7 7 5 6 6 6 7 5 6 6 4 7 7 5 6 6 6 6 8 6 9 9 9 7 9 7 8 8 8 8 7 7 7 6 6 4 6 6 8 6 4 5 10 10 10 13 13 15 11 9 10 12 10 11 9 9 9 6 6 6 15 13 14 13 13 13 8 6 7 9 9 9 13 13 13 13 13 13 13 13 15 11 9 10 9 7 8 9 9 9 9 9 9 8 8 8 36 8 7 61 10 9 24 9 12 11 12 14 11 11 11 10 10 12 11 11 11 10 10 10 10 12 11 9 11 10 10 10 10 9 7 10 60 58 46 63 59 47 64 60 49 66 25 21 80 15 13 82 12 12 83 11 12 82 49 40 84 78 64 73 70 53 64 61 44 64 35 27 64 10 8 67 8 10 63 7 6 49 5 6 24 20 17 64 44 35 66 6 5 85 6 9 86 8 8 85 5 6 84 8 8 
12 12 12 11 11 9 9 9 9 9 8 6 7 5 6 6 4 7 9 9 9 12 12 12 9 9 9 5 7 6 5 3 4 6 4 5 8 7 5 7 5 8 5 5 5 6 4 5 4 4 4 10 4 4 21 7 7 6 8 5 9 9 9 9 9 9 9 9 9 7 7 7 6 6 6 8 8 8 10 10 10 10 10 10 11 10 8 10 8 9 8 8 8 6 6 4 21 7 7 25 5 6 17 5 5 7 7 7 6 6 6 6 6 6 7 7 7 8 9 11 10 8 9 10 10 10 10 10 10 8 8 8 6 6 4 7 7 5 8 6 7 15 11 10 13 11 12 27 9 9 29 9 10 6 6 6 5 5 5 13 13 15 13 13 13 8 8 8 9 9 9 13 13 15 14 12 13 13 13 13 10 10 10 6 6 6 6 6 6 9 7 8 12 8 7 51 7 8 84 8 8 67 11 12 12 12 12 13 11 12 10 10 12 11 11 9 10 10 10 10 11 13 9 9 11 10 8 9 7 5 6 7 5 6 7 7 5 9 9 11 11 11 11 65 11 11 85 11 12 84 10 11 85 44 38 84 60 50 46 35 31 10 10 10 10 10 8 10 10 10 9 9 11 7 7 7 7 7 5 9 9 9 9 7 8 17 7 6 85 9 13 84 8 8 84 4 5 84 10 11 
21 20 18 20 10 9 10 8 9 7 7 7 7 7 5 6 6 6 7 7 7 13 12 10 10 10 10 7 7 9 4 4 2 4 4 2 6 6 4 6 6 4 5 5 3 9 8 6 13 7 7 29 5 3 65 7 6 6 6 8 9 7 8 10 10 10 9 9 9 9 7 10 6 6 6 9 9 9 10 10 10 7 6 11 8 8 8 10 8 9 7 7 7 6 8 7 63 5 3 82 6 6 34 6 5 6 6 6 7 5 6 7 5 6 9 7 8 9 9 9 8 9 11 9 9 7 8 8 6 8 6 7 7 7 7 7 7 5 12 10 13 13 13 13 12 11 9 84 10 9 85 9 9 17 7 8 8 8 8 13 11 12 13 13 11 12 10 11 11 11 11 11 13 12 13 11 12 11 11 11 9 9 9 6 6 6 4 4 4 6 6 6 31 7 7 78 6 7 84 8 8 71 11 11 17 13 10 13 13 15 12 12 12 13 12 10 11 10 8 12 8 9 11 11 11 8 8 10 6 4 5 7 7 5 6 6 4 7 7 7 10 10 10 67 12 9 85 11 10 85 11 8 87 9 9 85 9 9 47 8 9 11 11 9 11 9 10 10 10 10 9 9 9 8 8 8 8 8 8 9 9 9 9 9 7 17 7 8 72 8 8 74 6 5 84 6 6 84 8 8 
84 78 62 86 18 17 17 7 8 6 6 4 6 6 6 6 6 4 6 6 6 9 9 9 10 10 8 10 9 7 5 5 7 3 3 5 4 4 4 6 6 8 5 3 4 33 28 25 81 44 36 85 5 6 64 6 4 5 5 5 6 4 5 9 9 9 9 9 9 7 7 7 6 6 6 8 8 8 8 6 7 7 7 7 7 7 5 7 7 7 7 7 7 6 6 6 63 15 15 82 10 11 34 6 5 6 6 6 6 6 6 4 6 3 9 7 8 11 9 12 9 11 10 7 9 8 9 7 8 8 6 7 12 10 11 12 12 12 12 12 12 8 8 8 6 6 6 85 11 10 75 9 10 83 9 10 20 10 9 10 10 10 12 10 11 9 9 11 12 12 10 11 11 9 9 9 9 7 7 7 7 7 7 6 6 6 4 4 4 4 2 3 5 5 3 36 12 10 85 14 12 85 11 12 65 13 15 13 13 11 13 13 13 13 13 13 9 9 9 7 9 8 11 9 10 8 8 6 5 5 5 6 6 6 6 7 9 8 8 8 11 9 10 67 11 12 85 9 11 85 9 9 85 9 9 81 9 10 43 12 10 12 12 12 11 11 11 9 9 11 9 9 9 10 10 10 10 10 10 9 9 9 8 8 8 7 7 7 6 4 7 14 4 5 83 15 14 85 15 13 
84 75 60 73 69 57 16 15 13 6 6 6 6 6 6 7 7 7 8 8 8 8 8 8 9 9 9 12 10 11 7 7 5 5 5 5 4 4 4 6 6 6 7 5 6 30 6 6 80 6 7 80 6 7 62 6 5 4 4 4 7 7 5 7 7 7 7 7 9 6 7 9 6 6 6 5 5 5 5 5 3 7 7 5 8 8 6 8 8 8 7 7 7 7 7 7 56 52 43 73 28 23 31 7 5 7 5 6 6 6 6 6 6 6 7 7 7 10 10 10 13 12 10 11 9 10 8 8 8 8 8 6 11 11 11 14 14 14 11 11 11 4 4 4 7 7 9 76 11 9 10 8 9 74 10 10 18 10 8 11 11 9 11 11 13 9 9 9 8 8 8 8 8 8 6 6 6 4 4 2 6 6 6 7 7 7 4 4 4 3 3 3 3 3 1 31 28 23 76 49 40 77 13 14 63 15 13 16 15 13 15 15 15 14 14 16 10 10 10 9 9 9 13 11 12 11 7 6 4 6 5 6 6 6 8 8 8 9 9 9 11 9 10 66 11 8 77 9 10 80 6 7 85 9 9 40 11 13 12 12 12 12 10 11 9 9 9 9 9 9 10 10 10 9 11 10 10 10 12 8 10 9 7 7 7 7 7 9 6 4 7 14 14 12 76 70 56 82 68 55 
82 76 60 9 9 9 6 6 6 7 7 9 8 7 5 9 8 6 9 9 9 8 8 8 10 10 10 11 9 10 9 9 9 7 7 7 5 7 6 7 7 7 7 7 7 9 9 9 37 8 10 66 8 7 8 8 8 7 7 7 6 6 6 7 7 9 7 7 7 8 8 10 6 6 4 4 4 4 7 5 6 9 7 8 10 8 9 8 8 8 7 7 7 8 8 8 6 6 6 7 5 6 8 6 7 8 3 7 7 5 6 6 6 8 7 7 7 10 10 8 13 13 13 10 12 11 8 8 8 9 9 9 11 11 11 11 11 11 11 9 10 7 5 6 10 8 9 13 12 10 9 9 9 8 8 8 9 7 8 11 11 11 12 10 11 8 8 8 6 6 6 5 5 3 4 4 2 5 5 5 5 7 4 6 6 8 4 4 4 3 3 3 4 2 3 6 6 6 12 12 14 16 16 16 15 15 15 13 13 11 12 12 12 14 12 13 12 10 13 11 11 11 14 12 13 10 10 8 5 5 5 6 6 6 8 8 6 13 12 10 13 11 12 66 10 11 26 6 7 57 7 10 86 10 10 40 11 13 12 12 12 10 11 13 9 7 8 8 8 10 12 11 9 10 10 10 10 10 10 9 9 9 5 5 7 4 2 3 6 4 5 9 8 6 6 6 8 81 7 6 
7 7 7 8 6 7 8 8 8 7 7 7 5 5 7 9 9 9 10 10 12 8 8 6 8 8 6 8 8 8 8 8 8 9 7 8 7 7 7 9 7 8 9 9 11 10 10 10 37 36 31 67 64 55 9 7 8 7 7 7 7 9 6 7 7 5 8 6 7 8 6 7 6 6 6 6 5 3 9 9 9 8 8 8 6 8 5 8 8 6 8 8 8 8 6 7 7 7 5 8 6 7 6 6 6 6 6 6 5 7 4 6 6 6 8 6 7 9 9 7 12 12 10 12 12 12 9 9 9 8 8 8 7 7 5 8 8 8 8 8 6 5 5 3 6 6 4 13 13 13 8 8 8 8 8 8 10 10 10 11 9 10 8 8 8 6 6 4 6 5 3 4 4 4 4 4 2 4 4 4 6 6 6 6 6 6 5 5 5 5 5 5 6 6 6 7 7 7 14 13 11 17 15 16 12 10 11 12 12 10 13 13 11 13 15 14 11 11 9 10 8 9 13 11 14 12 12 12 9 7 8 8 8 8 10 10 10 13 13 11 14 14 14 10 10 12 7 5 6 9 9 7 10 10 10 11 9 10 10 10 10 10 10 10 10 10 8 9 9 7 12 12 12 11 9 10 10 10 10 7 7 7 6 6 4 5 3 4 6 6 6 7 5 6 8 7 5 6 6 6 
