P3
100 50
255
5 5 5 7 7 7 7 7 7 7 7 7 7 7 7 6 4 5 5 5 5 5 5 7 7 7 7 7 7 7 6 8 7 6 6 6 5 5 5 3 5 4 4 4 4 4 4 4 5 3 4 5 3 4 6 6 6 9 7 8 8 6 9 7 7 7 7 7 7 7 7 9 7 7 7 7 7 7 6 6 8 5 5 3 5 5 5 7 7 9 8 8 8 10 10 12 11 11 11 9 9 9 7 7 7 7 7 7 5 7 6 7 6 4 8 8 8 10 10 10 10 8 9 6 6 6 5 5 3 5 5 3 6 6 6 7 7 7 6 6 6 6 6 6 7 7 9 7 7 7 8 8 6 6 6 6 6 6 6 6 8 5 8 7 5 5 7 6 8 8 10 9 9 9 8 8 10 8 10 9 36 33 26 51 47 38 52 28 24 51 9 10 53 9 10 51 7 8 53 24 20 50 50 42 52 48 39 51 36 29 51 9 10 51 11 11 50 10 10 51 7 8 50 4 6 50 6 7 51 5 5 51 7 8 51 9 10 51 11 11 51 9 10 51 7 8 49 7 8 51 7 8 50 6 5 51 7 8 49 5 6 50 6 7 51 7 8 51 7 8 51 22 18 52 48 39 52 47 41 51 47 38 51 36 31 49 9 9 50 8 9 49 14 12 51 47 35 51 46 40 
5 5 5 5 5 5 6 6 6 6 6 6 7 5 6 5 5 5 6 6 6 6 6 6 6 6 6 7 5 6 8 6 7 7 7 7 5 5 5 4 4 4 4 4 4 4 4 4 4 4 4 5 5 5 8 8 8 8 10 9 7 7 7 8 8 8 7 7 7 8 8 8 8 6 7 6 6 6 6 6 6 4 4 4 7 5 6 8 8 10 9 9 9 10 10 10 8 8 8 7 7 7 6 6 8 7 5 6 6 6 6 7 5 6 7 7 7 9 9 9 9 7 8 8 8 8 6 6 6 7 5 6 7 7 7 7 7 7 6 6 6 6 6 6 6 6 6 6 6 6 6 6 6 8 8 8 7 7 7 7 7 7 11 10 8 9 9 9 8 8 6 9 9 7 34 33 28 50 47 40 50 50 40 51 48 41 50 30 23 50 8 9 53 9 10 53 7 7 50 22 19 52 48 39 51 46 40 51 36 31 50 8 10 51 9 10 49 9 10 53 9 10 50 6 5 49 5 6 52 6 6 50 6 7 52 10 11 51 11 11 53 8 11 51 7 6 51 7 8 51 32 26 48 45 36 50 43 33 51 23 19 49 5 4 51 5 5 50 6 5 53 22 19 50 50 40 53 50 41 52 49 40 53 38 31 48 8 8 51 7 8 50 6 5 48 6 7 51 48 39 
7 7 7 5 5 5 5 5 5 6 6 6 6 4 7 6 6 4 6 6 6 7 5 6 8 6 7 7 5 8 9 7 8 7 7 7 6 6 6 6 6 6 5 5 5 4 4 4 3 3 3 7 5 6 8 8 8 9 9 9 10 8 9 8 8 8 8 8 8 6 6 8 6 6 6 6 6 4 5 5 5 5 5 3 7 7 7 10 10 10 9 9 9 9 9 9 7 7 9 6 6 6 5 5 7 6 6 6 7 7 7 7 7 7 6 6 6 8 8 10 8 8 8 7 7 7 8 6 7 9 8 6 8 8 8 7 7 7 6 6 4 6 6 6 7 7 5 5 5 5 6 6 6 8 8 8 8 8 6 10 10 12 10 10 10 8 8 8 38 8 10 45 10 8 49 32 25 52 45 37 49 46 39 51 48 39 51 30 25 50 9 7 50 9 7 50 8 9 52 12 12 51 13 12 51 16 14 52 13 14 51 7 6 51 9 10 53 9 8 51 9 11 52 8 7 49 5 4 51 5 7 50 6 5 49 8 6 49 9 9 52 8 7 52 8 9 52 8 9 51 30 27 51 44 36 51 44 34 51 43 32 51 23 19 50 4 6 50 6 5 51 23 20 50 50 40 53 50 41 53 50 43 52 37 32 49 7 8 50 6 5 50 5 8 52 8 7 49 14 12 
7 7 7 6 6 6 6 6 6 6 6 6 6 4 5 6 6 6 7 7 7 7 7 7 6 6 4 5 5 3 8 6 7 8 8 8 6 6 6 6 6 6 6 6 6 7 5 6 5 5 5 5 5 5 8 6 7 9 9 9 11 9 10 6 8 7 5 5 5 5 5 5 6 4 5 6 6 6 6 6 6 8 6 7 9 9 9 10 8 9 8 8 8 8 8 8 6 6 8 6 6 6 6 6 8 7 7 7 6 7 9 7 7 7 7 7 9 7 7 7 6 6 6 7 7 9 7 7 7 9 9 9 9 9 9 7 7 9 6 6 6 6 6 4 6 6 6 7 7 7 6 6 6 8 8 8 8 8 8 8 10 9 8 10 9 38 8 8 50 8 9 48 6 7 50 8 9 51 11 9 52 12 13 52 13 16 51 13 12 51 9 10 51 7 8 38 8 8 11 7 8 14 8 8 24 8 9 51 11 11 51 9 10 51 9 10 52 10 12 51 9 10 52 8 7 51 6 9 50 40 31 51 41 32 51 38 30 49 11 10 50 8 9 50 8 10 50 8 9 50 31 25 51 42 33 51 44 34 50 46 34 49 25 21 51 6 3 49 5 4 50 8 9 50 25 21 51 40 34 54 14 14 50 15 11 50 10 10 50 8 9 49 8 6 50 8 9 10 6 7 
8 8 8 7 7 7 6 6 6 6 6 6 5 5 5 5 5 3 7 7 7 6 6 6 6 6 6 6 6 6 5 5 5 5 5 3 7 7 7 7 7 7 6 6 6 6 6 6 7 7 7 6 6 6 5 5 5 7 7 7 8 8 8 6 6 6 3 3 5 5 3 6 5 5 5 5 5 5 7 7 7 8 8 8 9 9 9 7 7 7 7 7 7 6 6 6 7 7 7 6 6 6 8 6 7 6 6 6 7 5 6 8 6 7 7 7 7 7 5 6 7 5 6 21 7 6 36 8 7 9 9 9 9 9 9 7 7 9 7 7 7 6 6 6 6 6 6 7 7 7 8 8 6 8 8 8 8 8 8 7 7 7 41 36 30 49 14 12 52 6 8 49 32 25 51 38 30 51 20 17 50 8 10 51 9 10 49 9 9 51 9 10 50 8 9 33 7 8 7 7 7 8 8 6 18 8 7 50 10 10 50 10 10 51 11 12 52 10 11 52 11 9 54 10 11 52 10 11 51 47 36 51 44 36 49 45 34 49 40 31 50 15 11 52 8 5 51 6 9 27 8 10 12 10 11 36 33 26 51 27 23 51 7 8 51 7 8 51 5 5 51 7 8 52 8 9 53 13 14 50 9 7 51 11 12 50 8 9 51 9 10 49 7 8 51 7 8 7 7 5 
8 8 8 6 6 6 5 5 5 5 5 5 4 4 2 4 4 4 5 5 5 29 8 7 37 5 6 19 5 5 3 4 6 5 3 4 5 5 5 6 6 6 6 6 6 7 7 7 5 5 5 6 6 6 7 5 6 6 6 6 6 6 8 7 5 6 5 5 5 6 4 7 4 4 4 39 5 4 6 6 6 9 9 9 8 8 8 7 7 7 6 6 6 5 5 5 6 6 6 6 6 6 6 6 6 6 6 6 8 8 8 7 9 8 7 7 7 5 5 5 7 7 7 23 7 7 47 16 14 33 30 25 8 8 8 7 7 7 8 8 10 7 7 7 6 6 6 8 8 8 8 8 8 8 8 6 7 7 7 8 8 8 44 16 15 49 9 9 50 6 5 48 34 25 49 42 32 50 21 17 51 9 10 52 10 11 50 8 9 49 9 9 50 8 9 33 7 6 7 7 9 8 8 8 20 16 13 53 40 34 52 37 32 51 9 10 51 9 11 52 11 9 50 8 9 52 37 32 56 49 41 51 47 36 50 46 35 49 21 18 51 7 8 49 5 4 24 4 3 6 4 5 25 22 17 47 26 21 52 10 11 51 7 8 53 7 9 52 8 9 53 9 8 51 10 8 51 7 8 50 4 4 48 7 5 49 9 9 51 11 11 52 8 7 50 6 5 41 5 7 
7 7 7 6 6 6 5 5 5 6 6 6 6 6 6 6 4 5 6 5 3 40 27 21 30 19 15 9 5 6 5 5 3 5 3 4 6 6 6 6 6 6 6 6 6 6 6 6 5 5 5 5 3 4 5 5 5 7 5 6 7 7 9 7 7 7 7 5 6 5 5 5 5 3 4 15 3 5 6 8 7 8 8 8 9 7 8 7 7 7 7 7 7 7 7 7 7 7 7 7 7 7 6 6 6 8 6 7 9 9 9 11 9 10 7 7 7 5 5 5 8 6 7 14 9 6 19 9 8 15 15 13 8 8 8 8 8 8 8 8 8 8 8 8 8 8 8 8 8 8 8 8 8 6 6 6 7 7 7 33 7 8 50 6 5 48 6 7 51 5 7 51 13 10 50 16 14 50 10 10 50 8 9 53 9 10 50 8 10 50 8 9 51 10 8 46 7 8 38 8 8 40 16 14 44 41 34 54 50 41 53 46 38 50 37 31 51 11 11 51 10 8 49 11 10 53 17 17 50 46 37 52 45 35 49 20 16 46 4 5 50 6 5 50 6 5 42 4 3 17 3 3 32 11 8 49 9 10 50 8 9 50 8 9 51 9 10 53 9 10 51 11 11 51 11 11 50 15 13 50 35 28 51 34 27 51 32 26 48 12 12 50 8 9 49 7 8 50 39 33 
6 6 6 6 6 6 6 6 6 7 7 7 5 5 5 6 6 6 6 6 6 15 14 12 9 9 9 7 5 6 5 5 5 4 4 4 5 5 5 7 7 7 6 6 6 7 7 7 5 5 5 6 6 6 5 5 5 8 6 7 5 7 6 5 5 5 6 6 6 5 5 5 5 5 5 3 3 1 6 6 6 9 9 7 9 9 9 8 8 8 9 9 9 9 9 9 10 10 10 8 8 8 7 7 7 9 9 9 8 8 8 9 7 8 7 7 7 6 6 6 7 7 7 6 6 6 6 8 7 8 8 8 8 8 8 8 8 8 8 8 6 8 8 8 8 8 8 8 8 8 7 7 7 6 6 8 34 6 5 52 6 8 53 5 5 49 5 6 48 6 7 50 6 7 48 7 5 49 5 6 48 25 17 51 38 32 51 38 32 52 24 21 49 9 7 51 9 10 51 9 10 51 22 18 52 49 40 51 51 43 50 50 40 52 45 37 52 10 11 52 12 12 50 9 7 51 34 27 51 42 33 50 21 17 47 5 6 48 7 5 50 6 7 51 7 8 49 5 6 41 6 4 50 6 7 50 8 9 52 8 9 50 8 9 52 8 9 51 10 8 54 10 11 53 18 16 51 38 32 50 46 35 50 46 35 50 39 33 50 10 10 51 9 10 52 8 9 50 46 37 
8 8 8 5 5 5 7 7 7 8 8 8 6 6 6 5 5 5 6 6 6 6 6 6 7 7 9 7 7 7 5 5 5 6 6 6 7 7 7 6 6 6 7 7 7 8 6 7 6 6 6 6 6 6 7 7 7 7 5 6 6 6 6 5 5 5 6 6 4 6 8 7 7 5 6 5 5 5 7 7 9 10 8 9 10 10 10 11 10 8 10 10 10 10 11 6 10 10 10 9 9 9 10 8 9 9 9 11 9 9 9 10 8 11 9 9 9 9 7 8 8 8 8 7 7 7 7 7 7 8 8 8 9 9 9 11 11 11 9 9 7 9 9 11 9 9 7 34 8 9 35 6 8 32 6 7 48 6 7 51 28 22 50 31 25 50 30 23 49 10 11 51 7 8 50 6 5 51 7 8 50 31 25 50 48 36 52 49 40 53 29 27 51 9 10 49 10 11 51 9 10 52 21 19 52 49 40 51 48 39 51 49 37 51 42 35 50 10 10 50 10 10 50 8 9 49 42 32 48 41 31 49 9 9 49 8 6 50 6 5 51 7 6 53 9 8 50 8 9 49 9 9 52 8 9 52 22 20 51 20 18 51 9 10 51 9 10 53 9 10 52 8 7 51 23 19 51 47 36 47 47 35 51 48 39 50 39 33 50 8 9 50 11 12 50 10 10 50 21 17 
10 10 10 7 7 7 7 7 7 7 7 7 7 7 5 7 7 7 7 7 7 8 8 8 7 7 7 8 8 8 6 6 6 6 6 6 6 6 6 5 7 6 7 7 7 7 5 6 7 7 7 7 7 7 8 8 8 8 8 8 7 7 7 6 4 5 5 5 5 8 6 7 9 7 8 7 7 9 9 9 9 10 12 9 11 11 11 10 10 12 9 9 9 9 9 9 10 10 10 9 7 8 9 9 9 9 9 9 9 9 9 11 9 10 10 10 10 9 9 9 9 9 9 9 7 8 8 8 8 9 9 9 10 10 10 10 10 10 14 10 9 34 10 8 34 8 7 50 8 9 50 8 9 50 9 7 52 8 9 49 41 30 49 45 34 51 44 34 47 16 14 48 7 5 48 7 5 49 7 8 49 30 23 50 46 35 52 48 39 49 28 23 54 10 11 52 10 11 51 11 11 52 13 14 51 26 21 52 24 21 50 22 19 50 20 18 50 10 10 51 9 10 51 7 8 50 19 16 50 19 17 49 7 8 51 7 6 50 6 7 51 7 8 49 8 6 52 11 9 53 9 10 50 25 21 50 41 34 51 40 34 51 21 19 51 9 10 52 8 7 50 6 5 50 22 18 50 47 38 50 47 38 49 45 34 51 38 29 50 10 10 49 10 11 50 10 10 50 6 7 
10 10 10 8 8 8 7 7 7 6 6 6 6 6 4 6 6 6 8 8 8 8 8 8 9 9 9 9 9 9 8 8 8 6 6 6 7 5 6 7 7 7 7 7 7 6 6 6 5 7 6 7 7 7 9 9 9 9 9 9 7 7 7 6 6 6 5 5 5 7 5 6 7 5 6 9 9 11 8 8 8 11 11 9 10 10 10 9 9 9 9 9 9 9 9 9 10 10 8 10 10 8 10 10 10 10 10 10 10 10 10 11 9 10 11 9 10 10 8 9 10 10 10 11 9 10 10 10 8 10 8 9 10 10 12 13 11 12 40 37 32 51 32 26 51 11 11 50 8 9 48 8 8 50 8 9 50 31 25 49 42 32 50 44 32 50 41 32 50 16 15 48 6 7 49 7 8 51 9 10 51 17 15 49 34 27 51 47 36 50 26 22 50 9 7 50 10 10 52 10 11 51 11 11 51 11 11 51 11 11 51 11 11 50 12 11 50 8 9 50 6 7 50 6 7 49 5 4 51 5 5 49 7 8 48 29 22 49 30 24 49 30 24 50 12 9 50 8 9 50 8 9 51 34 27 52 49 42 52 49 42 50 41 34 51 20 18 49 7 8 49 7 8 49 10 11 49 28 23 53 44 37 49 34 27 48 20 17 50 10 10 50 11 12 50 10 11 49 9 7 
9 9 9 8 8 8 6 6 6 6 6 6 6 6 6 5 5 5 7 7 7 9 9 9 9 9 9 9 9 9 7 7 7 6 6 6 6 6 6 7 7 7 7 7 7 6 4 5 7 5 6 8 6 7 7 9 8 8 8 8 7 7 9 6 6 8 5 5 5 6 6 6 7 7 7 7 7 7 8 8 8 9 9 9 9 9 11 8 10 9 9 9 11 10 10 10 12 10 11 11 11 9 10 10 10 9 9 9 9 9 9 9 9 11 10 10 10 10 8 9 9 9 9 9 9 9 10 10 10 9 9 9 15 9 9 35 15 14 52 49 40 52 47 41 51 30 27 50 8 9 51 9 10 50 8 9 51 27 23 51 42 33 48 44 33 51 43 32 50 16 15 49 9 9 50 8 9 50 10 10 51 9 10 50 19 16 51 28 22 51 17 16 50 8 9 49 9 10 50 8 9 51 9 10 51 9 10 51 11 11 51 11 11 51 13 12 50 9 7 50 6 5 48 7 5 51 7 6 51 7 8 52 24 21 50 43 35 50 46 37 48 46 34 50 15 13 50 8 9 50 8 9 51 22 18 52 41 35 52 49 40 52 49 40 51 27 23 51 7 8 43 7 7 26 6 5 31 10 7 50 25 20 48 20 17 50 10 11 51 11 9 50 12 11 50 10 8 49 8 6 
6 6 6 6 6 6 5 5 5 5 5 5 7 7 7 6 6 6 8 8 8 8 8 8 8 8 8 8 8 8 7 7 7 5 5 5 6 5 3 5 5 5 6 6 6 6 6 6 7 5 6 7 7 7 8 8 8 6 6 6 8 6 7 7 5 6 6 6 6 6 6 6 6 6 6 7 7 7 9 7 8 10 8 11 8 8 8 8 8 8 9 9 9 26 10 10 30 10 11 31 11 10 31 11 10 17 8 9 8 10 9 9 9 9 10 10 8 10 8 9 6 8 7 7 7 7 8 6 7 8 8 8 21 9 9 51 16 14 52 49 40 50 50 42 50 47 38 51 9 10 51 9 10 51 9 10 49 7 8 50 22 18 49 42 32 49 29 22 51 13 12 51 10 8 41 11 11 31 11 12 44 10 9 49 7 8 50 6 7 50 6 7 50 8 9 50 8 9 49 7 8 50 8 9 51 9 10 52 14 13 51 30 25 50 29 26 51 23 19 50 6 5 49 7 8 29 8 7 30 9 8 49 42 34 47 49 38 52 48 39 50 46 35 50 16 15 49 7 8 51 7 8 51 9 10 52 22 20 51 27 23 51 27 23 50 19 16 52 8 9 32 8 8 5 5 5 10 4 4 34 6 5 49 7 8 49 7 8 51 11 11 54 14 15 51 11 11 52 6 6 
5 5 5 4 4 4 4 4 4 5 5 5 8 8 8 8 8 8 8 8 8 7 7 7 7 7 7 6 6 6 6 6 6 5 5 5 4 4 4 5 5 7 10 12 9 28 23 19 28 17 15 28 8 7 28 7 6 24 6 6 7 6 4 5 5 5 5 5 5 6 6 6 5 5 5 6 6 6 9 9 7 9 9 9 6 6 6 8 8 8 9 9 7 25 9 9 45 24 19 51 27 25 51 16 14 24 8 9 8 8 8 9 9 7 9 9 9 7 7 7 6 6 6 5 3 6 6 6 6 12 8 5 35 9 8 50 15 13 50 47 38 51 48 39 51 47 36 51 11 11 49 8 6 49 8 6 49 8 6 51 6 9 50 22 18 49 9 9 50 8 10 52 10 11 26 10 10 24 10 10 44 10 9 50 6 7 50 6 7 48 7 5 48 6 7 49 7 8 49 7 8 50 9 7 50 8 10 50 19 16 51 47 38 50 48 36 52 45 37 51 27 23 49 7 9 7 7 5 27 26 21 49 45 36 52 49 40 51 47 38 52 45 37 51 17 15 48 7 5 51 7 8 49 7 8 50 8 9 51 9 10 50 8 9 49 9 9 51 7 8 34 5 7 5 5 5 3 3 3 9 5 4 27 6 3 30 11 7 51 27 23 52 14 11 51 9 10 51 6 9 
5 5 5 4 4 4 4 4 4 5 5 5 7 7 7 8 8 8 8 8 8 6 6 6 6 6 6 6 6 6 7 7 7 6 6 6 4 6 5 4 4 4 16 12 9 39 28 22 50 19 14 49 8 6 51 7 8 44 5 6 17 6 4 4 4 4 5 5 5 5 5 5 7 5 6 5 5 5 9 9 9 10 10 12 8 6 7 8 8 8 8 8 6 9 9 9 41 36 30 50 46 35 50 22 18 24 8 8 9 7 8 10 8 9 9 9 9 7 7 7 6 6 6 4 2 3 10 6 5 29 8 7 49 9 9 50 12 11 51 34 27 50 32 28 50 33 26 51 9 10 48 6 7 50 6 5 48 6 7 48 7 5 49 7 8 50 6 7 49 8 6 51 11 11 36 10 11 38 10 7 51 7 8 48 7 5 51 13 10 49 21 17 48 20 16 49 13 13 50 6 7 50 8 9 50 8 9 50 19 16 50 46 35 49 47 35 49 47 35 50 48 36 51 11 11 25 9 9 52 31 26 53 44 35 50 47 38 50 46 37 50 35 28 51 15 15 49 8 6 49 7 8 51 7 8 51 7 8 50 8 9 51 9 10 50 8 9 44 8 8 21 7 6 5 4 2 5 3 4 3 3 3 5 5 5 13 11 12 51 47 38 53 23 21 52 8 9 34 8 7 
7 7 7 5 5 5 6 6 6 7 7 7 8 8 8 7 7 7 9 9 9 8 8 8 6 6 6 6 6 6 8 8 6 7 7 7 6 6 6 7 5 6 7 5 6 17 7 6 39 8 6 50 6 7 48 6 7 48 7 5 49 5 6 20 4 5 7 5 6 4 4 4 7 5 6 6 6 6 9 9 9 9 9 9 8 8 8 9 9 9 8 10 5 10 10 10 29 26 21 47 40 34 39 21 19 17 9 7 8 8 8 10 10 10 17 17 15 24 23 19 23 22 18 22 17 14 27 6 5 49 7 8 50 9 7 50 8 9 51 9 11 52 8 9 50 9 7 51 7 8 50 6 7 49 7 8 51 7 6 51 7 6 49 8 6 50 21 17 49 24 19 51 11 11 50 10 10 51 9 10 49 7 8 51 7 6 50 26 22 51 47 36 49 45 34 48 29 22 51 7 6 48 6 7 49 7 8 51 17 16 50 46 35 50 47 38 52 45 35 53 34 28 51 9 10 52 8 9 50 9 7 49 32 25 49 31 27 51 32 26 50 16 14 51 9 10 51 7 8 51 7 6 51 7 6 52 8 7 51 11 11 52 12 12 50 10 10 41 9 10 18 6 6 11 5 7 18 6 6 5 5 5 6 6 6 10 10 10 32 33 27 38 33 27 49 9 7 9 9 9 
8 8 8 8 8 8 9 9 9 9 9 9 8 8 8 7 7 7 9 9 7 11 9 10 9 9 9 8 8 8 8 8 8 9 9 9 7 7 5 7 7 9 7 7 7 13 7 7 33 7 8 49 8 6 50 6 7 47 5 6 46 6 6 31 5 6 6 6 8 7 7 7 6 8 7 7 7 7 9 9 9 9 9 9 8 8 8 7 7 5 8 8 8 11 11 11 10 10 10 26 23 18 18 19 14 9 9 9 17 8 9 24 10 9 40 22 20 52 35 28 49 34 29 51 23 22 51 7 8 49 7 8 50 8 9 51 9 10 49 7 8 52 8 7 52 8 7 52 8 7 52 8 9 51 7 8 50 8 9 49 7 8 50 19 17 50 39 33 50 46 37 49 28 23 51 13 12 51 7 6 50 6 7 50 6 5 50 26 22 50 48 36 49 45 34 50 35 28 50 16 14 51 7 8 49 7 8 51 13 12 51 32 28 51 32 28 51 32 26 50 8 9 50 8 9 49 7 8 52 10 12 51 11 11 50 8 10 51 9 10 51 9 10 52 7 10 50 9 7 49 7 8 49 8 6 51 7 8 51 17 16 51 26 22 53 25 21 52 24 20 41 17 13 32 6 7 38 8 8 7 7 7 8 6 7 9 9 9 9 9 7 14 10 11 36 10 9 8 8 6 
12 12 12 11 11 11 11 11 11 9 9 9 6 6 6 8 8 8 10 8 9 9 9 9 9 7 10 8 8 8 8 8 8 8 8 8 7 7 5 8 6 7 9 8 6 27 7 8 40 6 5 41 7 6 49 5 6 49 7 8 33 7 6 7 7 7 8 8 8 10 10 10 10 10 10 9 7 8 10 10 12 9 9 9 9 7 8 6 6 6 7 7 7 10 10 10 11 11 11 10 10 10 10 10 10 11 11 9 30 10 9 51 9 10 50 8 9 50 10 11 50 8 9 50 9 7 49 9 9 50 8 9 52 8 9 49 9 9 52 8 9 50 8 9 51 7 8 52 18 16 51 7 8 51 7 8 50 9 7 49 9 9 50 43 33 51 47 36 51 44 36 50 41 32 51 26 21 50 11 12 52 8 7 49 8 6 50 25 21 49 46 37 50 46 37 51 44 36 51 26 21 51 7 8 50 9 7 51 7 6 51 7 8 49 7 8 49 7 8 50 6 5 50 6 5 49 7 8 53 11 12 52 13 14 51 9 10 50 14 14 51 17 16 49 11 10 52 8 9 51 7 8 51 7 8 49 9 9 51 27 25 50 46 37 51 49 37 51 48 39 51 32 26 52 8 7 39 8 6 8 8 8 9 9 7 10 8 9 10 10 10 10 10 10 12 10 11 9 7 10 
11 11 11 11 11 11 10 10 10 8 8 8 7 7 7 7 7 7 8 6 9 8 8 10 8 6 7 7 7 5 7 7 7 6 6 6 11 7 6 17 7 6 31 7 5 34 8 9 7 7 7 17 9 7 48 14 12 29 8 7 9 9 9 9 7 8 10 10 10 10 10 10 11 11 13 10 10 10 9 9 11 9 9 9 7 7 9 5 6 8 5 5 5 8 8 8 9 9 9 9 9 9 10 10 10 11 9 10 31 10 9 49 7 8 50 8 9 50 8 9 50 9 7 52 8 7 52 8 9 52 8 9 50 8 9 50 8 9 50 8 9 50 8 9 51 17 15 50 49 44 52 18 16 52 8 7 49 9 7 50 10 11 52 39 33 53 44 37 51 44 36 49 42 32 51 43 32 50 20 18 49 8 6 49 8 6 50 21 17 51 36 29 50 37 29 51 27 23 51 9 10 51 7 8 51 7 8 52 8 7 49 7 8 50 6 5 48 6 7 50 6 7 50 6 5 50 8 9 52 11 9 52 12 12 53 19 17 52 45 35 53 46 36 51 23 19 50 16 14 50 12 11 49 8 6 50 8 9 50 27 21 51 47 36 50 47 38 50 47 38 49 34 27 50 16 15 39 14 10 9 8 6 18 10 8 10 10 10 10 8 9 8 8 10 9 9 9 9 7 8 
11 11 11 9 9 9 9 9 9 7 7 7 6 6 6 7 7 7 7 7 7 16 7 8 16 11 8 17 16 14 20 12 10 17 7 6 34 6 5 49 7 8 49 8 6 33 7 6 7 7 7 15 13 14 32 29 22 9 9 7 10 10 10 9 11 10 11 11 11 13 13 13 11 11 11 21 20 18 9 9 9 8 8 8 8 6 7 5 7 6 7 7 7 9 9 9 8 8 8 8 8 8 10 10 10 16 10 10 36 8 7 51 7 8 50 6 7 51 7 8 49 7 8 51 17 15 50 15 13 52 8 9 52 8 9 50 10 10 53 9 8 50 15 13 53 51 39 40 41 35 52 48 45 49 18 15 51 13 12 51 11 11 52 33 27 50 41 32 49 42 34 50 35 28 50 35 30 52 18 17 53 9 10 51 9 11 50 8 9 51 10 8 51 11 11 48 10 9 40 8 9 43 9 8 50 6 7 49 9 9 49 7 8 50 6 5 49 15 13 49 15 13 50 16 14 51 9 10 49 9 9 51 11 11 53 46 38 52 49 40 50 46 37 51 44 34 43 36 30 39 15 11 40 6 7 43 7 7 51 22 16 50 41 34 50 47 38 50 43 35 50 35 28 50 40 31 40 37 28 15 9 9 33 9 9 7 7 7 7 7 7 6 8 7 7 7 7 6 6 6 
9 9 9 8 8 8 7 7 7 8 8 8 7 7 7 7 7 5 6 6 6 38 6 7 49 30 23 50 44 32 48 23 18 48 8 9 47 7 7 49 7 8 45 7 6 30 6 6 6 6 6 7 7 7 7 7 7 8 8 8 9 9 9 10 10 12 11 11 11 18 12 12 14 8 8 53 46 36 12 6 6 7 7 5 7 7 7 7 5 6 7 7 7 7 7 5 8 8 8 6 8 7 10 8 9 34 8 9 49 7 8 50 6 5 48 7 5 51 7 8 50 22 19 52 48 37 52 39 33 51 9 11 51 9 10 51 9 10 51 11 11 49 15 14 49 49 39 10 10 10 46 43 36 51 42 33 50 16 14 49 11 10 50 8 9 50 31 25 51 38 30 51 17 15 50 8 9 50 8 9 51 9 10 49 7 8 50 8 9 50 10 10 46 10 10 33 9 9 9 9 9 19 9 10 47 9 8 48 9 10 48 10 9 49 11 8 49 45 33 50 46 35 48 46 34 52 8 9 50 10 10 53 9 10 51 40 34 51 48 41 49 46 37 46 39 33 18 17 15 7 7 5 7 7 5 31 6 9 46 6 6 50 27 21 50 43 37 51 30 27 51 5 7 49 18 16 39 35 26 9 9 11 7 7 5 6 6 6 7 5 6 7 7 7 7 7 7 6 6 6 
9 9 9 7 7 7 7 7 7 7 7 7 8 8 8 8 8 8 9 5 4 37 5 6 48 29 22 49 43 31 50 42 31 48 23 18 48 6 8 48 6 7 32 6 7 6 6 6 7 7 9 6 6 4 7 7 7 9 7 8 9 9 9 10 10 12 17 11 11 51 11 11 51 7 8 49 8 6 49 7 9 12 8 7 7 7 7 8 8 6 8 8 8 7 7 9 7 7 9 7 7 7 7 7 7 35 7 6 51 7 8 51 5 5 50 4 4 50 20 18 49 44 38 50 47 38 53 50 43 51 40 36 51 11 11 52 10 12 51 11 12 51 16 14 51 42 33 10 8 9 14 8 10 53 9 10 50 12 11 51 11 11 50 10 10 51 9 10 50 10 10 51 9 10 52 10 12 51 9 10 53 9 8 51 9 10 48 6 8 49 7 8 34 8 9 9 9 9 10 10 10 9 9 7 19 9 8 47 12 10 49 9 9 50 11 12 49 49 37 50 47 38 48 44 35 48 6 7 51 11 11 51 9 10 50 9 7 51 44 34 52 48 39 25 17 15 7 7 7 7 7 9 7 7 7 7 7 5 7 7 7 29 8 7 49 10 11 47 11 11 50 10 11 51 11 9 44 8 10 10 8 9 7 9 8 7 5 6 6 6 6 6 6 6 7 7 7 6 6 6 
8 8 8 8 8 8 8 8 8 8 8 8 13 9 10 12 6 6 40 6 7 50 6 7 48 29 22 49 42 32 48 40 29 49 24 19 48 8 8 49 7 8 33 7 6 8 7 5 8 7 3 6 6 6 7 5 6 8 8 6 8 8 8 10 8 9 13 9 10 50 6 7 50 6 7 44 5 6 50 10 8 11 7 6 8 8 8 10 10 10 9 9 9 7 7 9 7 7 7 7 7 7 7 7 7 32 6 5 50 6 7 49 5 6 52 6 8 50 20 18 50 45 39 52 49 42 51 51 43 52 38 35 52 10 12 50 10 10 52 10 11 50 10 10 50 8 9 13 9 10 52 8 9 51 9 11 53 11 12 51 9 10 49 8 12 50 8 9 49 9 9 49 9 9 50 10 11 49 9 9 50 10 10 52 8 9 50 8 9 49 9 9 37 13 11 11 11 9 9 11 8 11 11 11 20 10 11 51 11 11 49 9 10 52 14 11 50 50 40 50 45 39 47 45 33 50 6 7 51 11 11 49 9 9 50 10 10 52 41 35 53 44 39 49 18 15 17 7 6 7 7 7 9 8 6 13 9 10 13 9 10 29 9 10 30 12 10 12 12 12 24 20 19 47 43 34 47 36 30 37 7 7 7 7 7 5 5 5 6 6 8 7 7 7 6 8 7 7 7 7 
9 9 9 9 9 9 8 8 8 9 9 9 47 8 9 49 8 6 51 7 8 49 7 8 50 31 24 49 42 32 50 41 32 50 25 18 50 8 9 48 7 5 33 7 6 25 7 7 35 7 6 8 6 7 8 8 6 6 8 7 9 9 9 11 9 10 14 8 8 47 7 7 47 5 6 6 6 6 49 39 29 11 11 9 8 8 6 10 10 10 7 9 8 7 5 8 8 8 10 7 7 9 7 5 6 35 7 6 47 6 4 51 7 8 51 5 5 50 21 17 50 47 38 51 48 41 52 49 44 53 39 36 50 8 9 51 7 8 52 8 9 53 9 8 50 8 9 51 9 10 50 8 9 51 9 10 50 12 11 52 11 9 50 8 9 47 7 7 47 7 7 49 9 9 50 10 10 52 12 13 51 11 11 51 11 9 50 10 11 49 28 23 49 46 37 38 34 31 13 13 13 12 12 12 19 9 10 51 11 9 52 10 11 51 16 14 53 50 43 49 46 37 48 44 35 49 7 8 50 10 10 50 10 10 50 8 9 52 10 11 52 12 12 49 9 9 20 8 8 8 8 6 34 8 9 50 9 7 51 9 10 31 9 11 10 10 12 10 8 9 8 8 10 23 24 18 41 38 31 8 8 6 7 5 6 5 5 3 7 7 7 9 9 9 6 6 6 6 6 4 
8 8 8 6 8 5 8 8 8 44 41 32 50 15 13 49 9 9 49 7 8 50 8 9 50 8 9 50 31 25 49 21 18 51 7 8 50 8 9 51 7 8 49 7 8 51 7 6 34 6 5 6 6 8 7 7 9 9 7 8 9 9 9 9 9 7 8 8 8 5 5 7 3 3 1 6 6 6 8 9 4 7 9 8 7 7 9 7 7 7 7 7 7 6 6 4 7 7 7 8 6 7 32 31 26 50 21 17 51 5 7 52 6 6 51 7 8 50 6 7 50 20 18 50 47 40 51 38 32 51 7 8 50 6 5 48 6 7 51 7 8 52 8 7 50 8 9 51 9 10 48 8 8 49 11 10 53 13 13 51 9 10 49 7 8 46 6 6 49 32 25 51 43 32 50 48 36 52 49 40 51 27 23 51 11 11 51 11 11 49 30 24 52 49 40 53 50 43 52 48 39 51 36 31 51 9 10 51 11 11 50 11 12 51 9 10 52 14 11 51 48 39 51 10 8 49 9 9 49 9 10 50 10 10 50 10 11 51 9 10 51 11 11 51 11 11 49 7 8 51 7 8 52 8 5 52 8 9 50 8 9 30 9 8 9 11 8 8 8 8 9 9 9 8 8 8 8 8 8 8 8 8 9 7 8 7 5 6 7 7 7 7 9 8 7 7 7 5 5 5 
8 8 8 49 42 34 50 41 32 51 44 36 52 13 14 50 8 9 51 9 10 50 10 10 53 9 10 51 7 8 50 9 7 50 9 7 52 8 9 49 7 8 51 7 8 47 7 7 33 7 8 6 6 6 6 4 5 7 7 7 7 7 5 9 11 10 8 7 5 6 6 4 8 6 7 8 7 5 9 7 8 9 9 7 9 7 8 6 6 6 7 7 5 8 6 7 40 8 9 50 31 25 50 46 37 50 20 18 50 6 7 51 5 7 51 7 8 51 5 5 49 3 3 50 4 4 52 8 7 47 7 5 50 6 7 51 5 7 51 5 7 51 7 8 52 6 8 51 7 8 50 9 7 49 9 9 51 9 11 50 10 10 49 7 8 47 7 7 48 35 26 51 47 36 51 47 36 51 47 38 52 24 21 51 11 11 51 11 11 50 31 25 53 50 41 50 50 42 52 49 40 52 39 33 50 10 11 51 11 11 51 11 12 50 8 9 51 9 10 52 8 9 51 11 11 49 11 10 49 9 9 50 10 10 53 9 10 52 10 11 51 11 11 51 11 11 49 7 9 49 7 8 51 7 8 51 7 8 30 10 11 9 9 9 9 9 9 8 8 8 10 8 11 13 11 12 9 9 9 10 10 10 9 8 6 8 7 5 5 7 6 6 4 5 7 5 6 6 6 6 
48 7 5 50 6 7 47 7 7 49 8 6 51 7 6 51 7 8 49 7 8 50 8 9 52 8 7 50 9 7 50 8 9 50 8 9 49 7 8 49 7 8 49 7 8 48 6 7 48 20 16 38 34 25 5 7 4 7 7 9 8 8 8 8 10 9 8 8 10 8 6 7 7 7 7 5 5 7 9 8 6 8 8 8 6 6 6 6 6 8 7 7 9 38 6 7 51 5 7 50 6 7 51 7 8 51 7 8 50 6 3 51 7 6 50 4 4 51 5 5 50 4 4 51 5 7 50 6 5 49 7 8 49 7 8 51 7 8 50 12 11 51 44 36 51 5 7 49 47 35 50 46 35 51 42 33 51 47 38 49 13 13 48 8 8 50 8 9 49 36 30 51 44 36 51 44 36 47 44 35 48 24 20 51 11 12 51 11 11 52 12 12 51 27 25 52 47 41 52 34 32 50 11 12 49 10 11 51 11 12 51 11 12 51 9 10 49 11 10 50 10 11 51 9 11 49 9 9 50 6 7 52 8 9 51 9 10 51 9 10 52 37 32 50 47 40 51 46 40 51 48 41 50 20 18 50 8 9 30 8 10 7 9 8 9 9 9 8 8 8 10 10 10 10 10 10 10 8 9 9 9 9 8 8 10 8 8 8 7 7 7 6 6 8 7 5 8 8 7 5 
49 7 9 49 8 6 47 7 8 50 6 7 49 8 6 51 5 7 52 8 9 50 8 9 52 8 9 50 9 5 50 31 25 49 40 33 48 23 19 47 7 5 49 7 8 51 7 6 50 20 18 47 43 34 35 31 22 6 6 6 7 7 7 8 8 8 10 10 8 6 6 8 4 6 5 6 6 6 7 7 7 8 8 8 6 6 6 6 6 6 7 7 7 41 7 8 51 5 7 51 5 5 50 6 5 49 8 6 50 6 7 49 5 6 50 4 4 50 4 4 52 4 4 51 5 5 51 16 12 49 38 32 50 31 27 49 7 8 50 12 11 50 47 38 51 41 32 49 44 38 50 45 39 51 48 39 50 47 38 51 13 12 51 7 8 50 10 10 52 13 14 48 38 28 50 43 35 50 43 35 50 25 21 50 12 11 50 10 10 50 10 10 51 23 19 49 45 34 49 30 24 49 9 10 49 10 11 51 13 12 50 11 12 51 9 10 51 11 12 50 8 9 49 39 30 51 42 35 50 41 36 51 13 12 53 9 8 50 10 8 51 36 31 52 47 41 52 48 39 50 47 38 50 22 19 28 8 7 10 10 10 10 8 9 7 7 7 7 7 7 8 10 9 9 9 9 9 9 9 9 9 9 8 8 8 8 8 6 8 7 5 6 6 6 6 6 6 7 7 7 
51 7 6 50 5 8 48 7 5 51 7 8 49 9 9 49 7 9 51 7 8 21 7 6 13 8 5 40 32 29 50 46 37 47 44 35 47 37 27 49 20 16 50 6 7 49 7 8 47 7 8 49 20 16 49 42 32 35 32 25 8 8 8 9 9 9 8 8 8 7 5 6 6 4 5 7 5 6 6 6 8 5 5 5 5 6 10 6 6 6 37 7 9 48 8 8 50 6 7 49 5 6 50 6 3 51 5 5 50 4 4 52 6 6 49 5 6 52 4 4 49 4 1 50 16 14 50 41 34 49 47 35 51 47 38 51 38 30 52 12 12 50 41 32 51 11 9 48 43 37 48 44 35 50 48 36 50 48 36 49 14 12 50 8 9 51 11 11 50 11 12 49 14 12 50 15 13 50 14 14 51 12 13 51 9 10 50 8 9 49 9 7 49 13 13 49 14 12 49 9 9 49 7 9 50 10 11 51 11 11 51 13 10 49 11 10 51 11 9 50 10 10 51 42 35 51 48 39 52 49 44 52 14 13 50 8 9 51 9 10 51 38 32 52 47 43 53 49 40 51 47 36 51 23 19 25 9 9 8 8 8 9 9 9 9 7 8 8 8 10 8 8 8 8 8 6 9 9 11 9 9 9 8 8 8 9 7 10 9 9 11 7 7 7 5 5 5 6 6 6 
47 5 6 49 3 5 50 6 7 49 34 29 48 41 31 49 14 12 48 6 7 17 7 6 8 8 8 10 10 10 36 33 28 46 43 34 48 41 31 50 22 18 47 7 7 48 6 7 47 7 5 47 16 13 49 42 32 51 45 33 36 36 26 9 7 8 7 7 7 6 8 7 6 6 6 7 7 7 7 5 6 6 6 6 7 5 6 38 7 5 47 7 7 48 6 7 49 5 6 47 5 6 48 27 24 50 41 36 51 43 40 50 24 23 50 6 5 51 5 5 50 4 4 38 8 8 24 23 21 50 47 40 51 48 41 51 44 36 48 6 7 49 11 10 49 7 8 52 12 12 48 41 33 47 43 34 49 46 37 52 12 12 48 6 7 49 7 8 49 9 9 50 10 10 51 9 10 51 9 10 49 9 9 50 8 9 50 10 11 50 12 11 49 9 9 49 18 15 48 40 29 49 39 30 49 30 23 50 10 10 50 10 10 52 12 13 50 16 14 50 37 31 47 43 34 49 49 41 50 50 42 50 43 37 51 12 13 50 9 7 51 13 12 54 41 35 53 48 44 52 28 26 52 14 13 24 8 8 10 10 10 10 8 9 8 8 8 7 7 5 6 6 6 7 7 7 8 8 8 8 8 8 8 8 6 7 7 9 8 7 12 9 9 9 8 6 7 43 40 33 
47 5 6 48 4 5 48 29 22 50 46 37 52 47 41 51 41 32 50 15 13 18 6 8 8 8 8 8 8 6 32 32 24 49 45 36 49 42 34 50 25 21 49 7 8 47 7 7 49 7 8 49 9 9 51 22 18 49 39 29 45 15 13 8 8 8 6 6 6 8 8 10 8 8 6 7 7 7 7 7 7 7 5 6 31 23 20 47 12 10 51 7 8 48 6 8 49 5 6 50 22 18 51 44 36 50 47 40 50 49 44 51 44 38 52 20 21 49 5 4 39 3 3 12 6 6 11 11 11 25 25 23 49 49 41 52 45 37 51 7 6 51 7 6 49 7 8 53 9 10 50 43 35 48 41 33 50 22 19 49 9 9 53 9 8 49 7 8 49 7 8 52 8 7 49 7 8 50 8 9 53 9 10 49 9 9 50 8 9 49 9 9 50 8 9 50 21 15 49 45 34 50 46 35 50 41 32 52 28 24 50 10 8 51 11 11 50 14 14 49 18 16 50 46 35 18 16 17 19 18 16 47 19 16 49 9 9 49 9 9 50 10 10 52 18 17 54 23 21 51 16 14 50 10 10 22 8 8 8 8 8 11 11 11 9 9 9 7 7 7 8 8 8 8 8 10 7 7 7 8 8 8 9 9 7 8 8 10 8 6 7 6 6 6 7 7 7 50 47 38 
49 7 8 48 6 7 47 38 31 52 45 37 49 49 41 49 49 41 48 17 14 18 7 5 8 6 7 27 9 9 47 32 27 50 46 37 51 44 38 50 25 21 48 8 8 47 8 9 48 8 8 50 9 7 49 18 15 50 35 28 46 8 7 37 7 7 7 7 9 7 7 7 8 7 5 8 8 10 6 6 6 32 27 23 47 37 28 49 32 25 49 14 12 48 6 7 49 5 6 48 13 11 51 32 26 50 45 39 51 51 43 51 48 43 47 26 21 50 6 7 44 6 5 29 9 10 16 16 16 43 42 38 50 40 38 50 15 13 49 7 8 51 7 6 50 8 10 49 7 8 50 14 14 51 44 38 47 11 11 48 8 6 50 9 7 51 9 10 52 6 8 52 8 9 50 26 22 51 38 32 51 38 30 51 38 32 51 23 20 51 7 8 48 6 7 50 22 18 49 46 37 50 47 38 50 46 35 49 34 27 51 10 8 50 11 12 51 13 12 51 9 11 51 48 39 39 40 34 42 8 9 50 8 9 50 8 9 51 9 10 51 9 10 51 11 11 52 13 14 51 11 11 29 7 9 10 6 5 8 8 8 9 9 9 10 10 10 9 9 9 7 9 6 8 8 8 7 7 7 8 8 8 9 9 9 8 8 8 6 6 6 7 7 7 7 7 7 18 17 15 
51 9 10 50 10 10 48 39 32 50 46 37 51 48 39 49 46 37 50 16 14 41 6 4 41 5 5 47 7 7 50 15 13 52 18 16 50 16 14 48 13 11 48 9 10 49 9 9 48 8 8 50 8 9 50 11 12 50 22 19 49 34 27 47 34 26 38 6 7 41 7 8 40 10 10 38 7 5 39 32 24 50 41 32 48 40 29 48 38 29 49 34 27 48 13 11 48 6 7 51 5 7 49 30 24 50 46 37 50 47 38 50 31 25 49 9 9 50 6 5 51 7 6 47 8 9 40 9 7 50 16 15 50 15 13 52 8 9 49 9 9 50 9 7 51 7 6 51 5 5 49 5 4 50 46 37 50 35 28 46 12 10 49 9 9 54 10 11 53 9 8 50 9 7 51 34 27 55 48 42 50 47 38 52 48 39 51 28 22 50 6 7 50 6 5 51 23 19 50 48 36 50 45 39 51 44 36 49 34 27 50 11 12 51 10 8 51 11 11 49 9 10 49 18 16 50 19 17 51 7 8 50 10 10 50 8 9 50 8 9 49 9 9 51 9 10 52 12 13 51 9 10 22 6 6 6 6 6 8 8 8 8 10 9 10 10 10 9 11 10 9 9 11 10 10 10 10 10 10 11 11 11 9 9 11 7 7 7 6 6 4 8 8 8 7 7 7 6 6 6 
51 7 8 50 8 9 50 19 16 50 22 19 51 22 18 50 21 17 50 10 8 49 7 8 48 6 8 50 8 9 49 8 6 49 7 9 50 8 9 49 9 9 49 9 10 50 8 9 49 9 9 51 9 10 48 17 14 50 33 26 48 46 34 51 44 36 48 28 21 50 6 5 48 8 8 48 8 8 50 40 31 50 42 31 48 40 27 47 37 27 47 38 29 49 15 14 50 6 7 50 6 7 49 14 12 48 19 15 49 20 16 48 12 12 51 5 7 50 6 5 49 8 6 49 7 8 50 4 6 51 5 7 51 7 8 48 10 9 47 8 9 50 5 8 50 6 7 50 4 6 50 6 7 49 45 34 49 45 36 50 33 25 49 10 11 51 11 11 52 11 9 50 8 9 50 32 28 51 48 41 50 47 40 51 47 38 49 26 20 50 6 7 48 7 5 52 14 13 52 35 28 54 47 39 51 36 31 48 20 17 52 8 9 49 9 9 50 10 10 50 8 9 49 7 8 51 7 8 50 9 7 50 29 26 51 11 11 50 9 7 50 10 8 31 11 10 28 12 12 28 9 13 13 8 5 8 8 8 9 7 8 8 8 8 9 9 9 9 9 9 9 9 9 9 11 10 11 11 11 11 11 11 9 9 9 6 8 5 7 7 7 7 7 9 7 7 7 7 7 7 
49 5 4 51 7 6 50 9 7 50 9 7 49 7 8 48 6 8 49 5 6 50 6 5 51 5 5 48 6 7 49 8 6 49 7 8 51 9 10 47 7 7 49 9 9 51 9 11 50 8 10 50 8 9 52 18 17 51 44 34 51 49 37 51 47 38 49 42 32 48 31 24 49 9 9 50 10 10 49 20 16 51 41 32 48 40 29 48 38 29 48 23 19 48 13 11 50 6 7 48 7 5 50 4 6 48 4 5 49 5 4 48 4 5 49 5 4 50 6 5 51 7 8 50 6 5 50 4 4 49 5 6 47 7 7 46 8 7 47 7 7 49 5 6 51 7 8 51 7 8 51 9 10 52 45 35 51 47 38 47 44 37 50 33 25 51 15 15 50 10 8 51 9 10 51 33 29 52 49 40 52 47 41 51 44 36 48 24 22 48 8 8 49 7 8 50 8 9 51 18 13 51 25 24 50 20 18 49 7 9 48 6 7 49 9 9 50 8 9 49 11 10 51 9 10 51 11 11 51 32 28 50 43 37 51 34 27 49 14 10 31 11 10 18 12 14 13 13 13 10 11 13 10 10 10 10 10 12 8 8 10 7 7 7 10 8 9 9 9 9 9 9 9 10 10 10 11 11 11 11 11 11 8 8 8 7 7 7 7 7 9 7 5 8 7 7 7 6 6 6 
50 6 5 50 8 9 51 11 11 50 8 9 52 8 9 48 7 5 51 7 8 49 8 6 49 7 8 49 7 8 48 6 7 52 21 18 49 34 29 50 32 28 49 30 24 51 21 19 53 8 11 48 8 8 51 17 15 49 46 37 50 46 37 50 46 37 51 45 33 50 22 18 50 9 7 52 8 9 49 9 10 49 18 15 49 21 18 49 19 17 49 11 10 48 6 7 47 5 6 49 5 6 49 5 6 49 3 3 49 3 3 48 4 5 48 6 7 51 7 6 50 6 7 52 4 4 48 4 5 46 10 10 47 28 22 49 32 25 47 28 22 50 6 5 50 6 7 52 8 9 49 9 9 49 45 36 49 44 38 51 44 36 50 46 37 50 16 15 50 8 9 49 9 9 49 19 17 53 25 22 52 39 33 50 35 28 47 16 14 50 10 10 48 8 8 51 9 10 51 13 12 50 11 12 50 10 10 48 6 7 48 6 7 49 7 8 50 8 10 50 10 10 51 11 11 52 33 29 52 47 41 50 47 38 51 44 36 53 34 30 22 17 14 13 13 13 12 12 12 12 12 14 12 12 12 10 10 10 10 10 10 9 9 9 10 8 9 9 9 9 7 7 7 8 8 8 10 10 8 10 10 10 7 7 7 7 7 7 9 7 8 7 7 7 5 7 6 6 6 6 
28 7 6 51 7 8 51 9 10 51 7 8 50 6 7 49 21 17 49 25 21 48 12 12 49 8 6 51 5 7 51 7 8 52 28 24 52 49 42 51 46 40 51 44 34 41 30 24 29 9 10 28 8 7 34 13 10 49 31 27 50 43 35 49 42 34 50 40 31 50 8 9 50 6 5 50 8 9 50 8 10 49 9 9 51 9 11 49 9 7 48 8 9 48 6 7 47 5 6 50 4 6 49 5 4 48 4 3 49 14 12 49 24 20 49 15 13 50 6 5 50 4 6 50 4 4 48 4 5 49 13 13 47 43 34 49 45 34 50 43 33 48 24 20 49 5 6 50 8 9 48 8 8 51 26 22 50 43 35 50 43 35 51 44 36 48 17 15 50 8 9 49 9 9 51 9 10 51 9 10 52 21 19 51 20 17 51 9 10 51 9 10 51 11 9 50 10 10 51 11 11 49 9 7 50 10 10 49 24 19 50 22 18 49 7 8 49 9 9 50 8 9 50 10 10 51 46 40 51 48 41 50 50 42 50 46 37 35 31 28 18 17 15 14 14 14 13 13 13 11 11 11 11 11 11 10 10 10 9 9 9 9 9 9 8 8 8 8 8 8 17 7 8 22 8 8 10 10 10 9 9 9 7 7 7 8 6 9 8 8 8 7 7 7 6 4 5 5 5 5 
8 6 7 51 7 6 51 7 6 51 26 22 50 26 22 48 39 32 51 44 36 50 31 25 49 14 12 49 8 6 49 19 17 49 38 32 51 48 41 50 47 38 43 38 32 20 19 15 9 9 9 10 8 9 19 9 8 50 12 11 52 24 21 49 25 21 48 23 19 51 7 8 48 8 8 50 8 9 49 7 8 50 8 9 51 9 10 50 8 9 47 7 7 49 5 6 30 4 3 26 5 4 39 4 2 45 13 14 46 31 26 46 42 31 49 36 28 49 18 15 49 3 3 49 3 3 48 10 9 48 29 22 49 46 37 49 46 39 51 44 36 47 23 19 49 8 6 29 9 10 28 8 9 48 6 7 51 23 19 49 24 20 50 25 21 50 12 11 53 9 10 52 12 12 50 10 10 52 10 11 51 9 10 49 9 9 49 9 9 49 9 9 50 12 11 42 10 11 29 9 8 33 13 12 49 28 23 48 37 31 48 41 31 48 23 19 48 8 8 50 10 10 50 8 9 52 45 37 51 48 41 51 50 45 52 48 39 19 19 17 14 14 14 14 14 14 12 12 14 10 10 12 10 8 9 10 10 10 10 10 10 7 9 8 6 6 6 8 8 8 24 8 8 43 9 8 30 10 11 25 9 10 9 7 8 8 6 7 7 7 9 6 6 4 5 5 5 5 5 5 
6 6 6 49 7 8 51 7 6 49 42 34 50 47 38 48 43 37 49 45 34 51 47 36 50 20 18 50 6 7 50 32 28 51 48 39 50 37 31 50 26 24 37 19 17 9 9 7 10 10 10 8 8 8 19 9 10 51 9 10 49 9 9 49 7 8 48 8 8 49 9 9 50 8 9 49 9 9 51 9 10 49 7 8 50 8 10 51 26 22 49 26 20 48 23 19 15 9 11 5 5 5 33 5 4 46 15 12 48 31 24 50 43 37 49 46 37 49 40 31 49 18 15 48 2 2 48 13 11 49 47 35 46 46 36 48 43 37 51 23 20 48 6 7 50 8 9 29 7 9 28 8 7 49 7 8 50 6 7 49 7 8 48 6 7 51 7 8 50 9 7 52 10 12 52 10 11 51 9 10 49 7 8 51 7 8 52 8 9 50 10 10 48 9 10 35 11 11 10 10 10 19 18 16 50 41 34 47 38 31 47 43 32 51 42 35 50 8 9 50 10 10 51 9 10 50 29 24 49 49 41 50 50 42 49 49 39 19 18 16 14 14 14 14 14 14 11 11 11 10 10 10 9 9 9 9 9 9 10 10 10 7 9 8 8 8 10 10 10 10 16 8 6 37 9 8 47 9 8 25 9 10 8 8 8 8 8 8 9 7 8 7 7 7 6 6 6 7 7 7 
23 22 20 50 8 9 49 7 8 49 40 33 50 45 39 48 46 34 49 45 34 50 33 26 51 17 15 49 7 8 49 32 25 50 39 35 50 19 17 49 7 8 34 8 9 14 8 8 19 9 8 15 9 11 29 9 8 50 8 9 49 9 9 48 8 8 52 8 9 49 9 9 49 9 9 49 9 9 50 8 9 51 9 10 51 20 17 49 46 37 49 45 36 50 43 35 30 14 14 21 5 6 37 6 4 47 5 6 48 22 21 49 45 34 51 47 38 51 42 37 49 21 18 48 4 5 48 13 9 49 40 33 48 31 24 49 30 24 49 5 6 50 6 5 49 9 9 50 8 9 51 7 6 51 7 8 51 7 8 49 7 8 50 6 7 48 7 5 51 7 8 50 9 7 51 9 10 50 10 10 50 19 16 51 21 19 49 21 17 51 18 13 47 8 9 40 10 12 25 11 11 30 19 15 49 42 32 47 38 29 49 42 32 51 42 33 50 8 9 49 10 11 51 13 12 50 14 14 51 36 31 53 34 30 38 35 30 15 15 13 13 13 13 12 12 12 12 10 11 10 10 10 8 8 8 8 9 11 7 7 7 8 8 8 10 8 9 7 7 7 8 8 8 24 13 11 42 21 20 8 8 8 9 9 9 8 8 8 8 8 10 7 7 7 9 9 7 9 9 9 
51 48 43 50 25 21 50 12 11 48 27 22 50 40 31 51 44 38 49 45 34 49 18 16 49 9 10 50 9 7 51 23 20 52 21 18 48 6 7 49 8 6 39 7 8 36 8 7 39 9 9 29 9 8 50 10 10 49 9 10 50 10 10 50 10 10 50 22 18 50 22 18 49 24 20 49 7 8 50 10 11 50 12 11 50 43 35 51 48 41 48 48 38 49 45 36 49 15 13 49 7 8 48 8 8 48 8 8 49 19 17 49 30 26 50 32 28 50 22 19 49 7 8 49 5 4 49 7 8 47 23 19 50 4 6 49 3 3 48 4 5 50 6 5 51 7 8 51 7 8 50 6 7 48 7 5 49 9 9 50 20 18 50 22 18 50 22 19 50 10 10 49 7 8 51 9 10 50 10 11 51 34 27 50 46 37 49 45 36 51 34 27 49 18 16 48 8 9 49 11 10 49 15 14 48 34 23 48 39 30 48 38 29 50 29 24 48 9 10 49 10 11 52 13 14 51 15 17 50 14 14 50 11 12 15 11 10 12 12 10 11 13 12 11 9 10 10 10 10 10 8 11 8 8 8 7 9 8 10 8 9 11 9 10 9 9 7 7 7 7 7 7 7 17 17 15 28 27 22 8 8 8 7 7 9 9 9 9 8 8 8 9 9 9 9 9 9 9 9 9 
51 50 46 50 32 30 50 10 10 50 10 10 50 26 22 50 43 35 51 48 39 50 18 19 50 10 10 52 8 9 50 8 9 49 7 8 49 7 8 52 8 9 51 7 6 48 8 8 48 8 8 49 9 10 50 8 9 51 9 10 52 12 12 51 23 20 49 45 36 49 45 36 51 44 36 50 22 19 50 8 9 50 8 9 50 29 24 50 47 38 49 49 39 49 45 36 48 17 15 50 8 9 49 9 9 50 8 9 50 8 9 49 7 8 49 7 8 50 8 9 51 7 8 50 6 7 49 3 3 49 5 6 47 5 6 49 5 4 48 4 5 50 6 5 48 6 7 50 6 7 46 6 7 48 8 8 50 10 10 52 43 36 49 49 39 48 48 38 51 17 16 50 8 9 49 9 9 48 10 9 50 31 27 50 46 37 50 46 35 49 39 30 49 24 20 49 9 9 49 9 9 50 8 9 49 14 12 49 28 23 51 27 23 48 8 9 47 9 8 47 8 9 51 13 12 50 12 11 52 13 14 42 13 15 11 9 10 12 12 12 12 12 10 9 9 9 8 6 7 7 7 7 9 9 9 7 7 7 8 8 8 8 8 8 7 7 7 7 7 5 7 7 5 7 7 7 7 7 7 7 7 5 8 8 8 10 10 10 9 9 9 9 9 9 10 9 7 9 8 6 
49 38 32 51 7 8 49 7 8 48 8 9 46 8 7 50 31 25 51 46 40 50 24 23 50 14 14 51 9 10 52 7 10 52 8 9 49 7 8 51 13 12 51 17 15 51 17 16 50 16 15 49 9 7 49 7 9 50 10 11 52 14 13 52 45 37 48 45 36 48 45 38 51 44 36 51 36 29 50 9 7 48 6 7 49 8 6 50 35 28 50 37 31 50 37 31 49 15 14 50 8 9 47 9 8 49 7 9 48 8 8 48 6 7 51 7 8 49 7 8 50 6 7 48 6 7 47 5 6 47 7 8 50 10 10 47 16 14 47 17 15 50 19 17 48 17 15 49 15 13 47 7 7 49 9 10 50 8 9 51 44 34 50 50 40 48 48 38 52 18 16 51 7 8 50 8 9 51 11 12 50 31 25 51 44 36 51 42 33 52 24 21 50 10 10 49 8 6 48 6 7 49 9 9 50 10 11 49 10 11 48 8 6 47 9 8 48 8 9 47 9 8 51 9 11 52 8 9 50 11 12 20 14 14 11 13 12 11 12 14 12 12 12 8 8 8 5 7 6 6 6 8 8 8 8 7 7 7 7 7 7 6 4 5 6 6 6 7 7 7 7 7 5 7 7 7 7 7 7 6 8 7 10 8 9 11 11 11 9 9 7 9 7 10 9 9 9 8 8 8 
50 6 5 48 7 5 50 4 4 49 7 8 48 6 7 50 8 9 48 39 32 52 49 42 50 22 19 52 8 9 51 7 8 51 7 8 51 7 8 50 26 22 51 47 38 49 46 41 49 36 30 51 15 15 49 9 7 48 8 8 50 15 13 50 43 35 49 46 37 49 46 37 49 45 36 48 6 7 49 7 8 48 6 7 51 7 6 49 7 8 49 7 8 51 7 8 49 7 8 48 8 8 50 8 9 50 6 5 48 6 7 48 6 7 49 7 8 48 6 7 50 6 7 46 4 5 45 6 7 48 8 8 50 19 17 49 49 41 48 48 40 50 47 42 49 46 41 48 41 31 47 6 4 49 7 8 50 4 6 50 43 35 52 49 42 52 49 42 52 18 17 49 8 6 49 7 8 49 7 8 50 26 22 50 35 28 51 23 20 49 7 9 51 9 11 49 7 8 48 6 7 49 7 8 49 9 9 48 8 8 46 6 6 48 17 15 49 18 15 50 11 14 52 8 9 50 8 9 50 10 10 18 12 12 12 12 12 13 13 13 11 11 11 7 7 7 5 5 5 7 5 6 6 6 4 6 6 4 5 5 3 5 5 5 6 4 5 5 5 5 6 8 7 6 6 6 7 7 7 8 8 6 10 11 6 9 9 9 8 8 8 7 9 8 7 7 7 6 6 6 
50 6 5 48 4 5 49 5 6 48 7 5 50 6 7 49 14 10 48 39 32 51 48 43 43 22 19 46 4 6 48 6 7 51 7 8 51 7 8 51 27 25 50 45 42 48 45 38 49 44 38 50 35 30 48 8 8 48 8 8 49 14 10 50 35 28 51 36 29 52 45 37 51 36 31 48 6 7 49 7 8 50 6 5 48 7 5 51 7 8 52 6 8 50 6 7 48 6 7 50 6 7 49 5 6 49 5 6 48 7 5 48 8 8 45 11 10 48 14 13 49 13 13 47 12 10 46 6 6 48 6 7 50 18 19 50 49 44 49 49 41 49 49 39 48 45 40 49 45 33 49 5 4 48 4 3 49 5 4 47 34 26 51 43 40 51 48 41 50 16 15 49 7 8 48 8 8 49 9 9 49 7 8 50 10 10 48 10 9 49 9 10 49 9 10 49 9 9 48 6 7 49 7 8 47 7 7 49 9 9 49 20 14 47 39 28 50 40 31 52 21 19 49 9 9 50 8 9 50 10 10 15 10 7 12 10 11 14 14 14 10 10 10 7 7 7 13 8 5 16 6 5 11 5 5 5 5 5 4 4 4 5 5 5 5 5 5 5 5 5 6 6 6 7 5 6 7 7 7 8 8 8 8 9 11 9 9 11 7 7 7 7 7 5 7 7 7 16 6 7 
49 9 9 49 7 8 49 5 6 50 6 5 48 6 7 47 34 26 49 45 34 44 41 34 19 18 14 31 5 6 42 6 6 48 8 8 50 8 9 51 27 23 49 46 39 50 41 34 50 40 31 50 33 26 50 10 10 49 7 8 48 6 7 50 6 7 50 12 11 49 40 31 42 8 6 43 7 7 51 7 8 50 4 4 49 5 4 50 6 7 50 12 11 49 9 9 48 10 9 47 7 7 47 6 4 47 6 4 48 6 7 47 7 7 48 24 20 49 42 34 51 47 38 49 31 29 46 4 6 48 6 7 50 14 14 48 43 37 50 47 40 49 46 37 48 39 32 49 43 31 49 5 4 49 4 1 48 4 5 50 6 7 50 37 29 50 43 35 52 18 17 49 9 9 48 10 9 46 8 7 48 8 8 49 7 8 49 7 8 50 10 10 52 10 11 52 10 11 49 7 8 48 6 7 48 6 7 49 15 13 49 41 30 49 42 34 49 44 38 50 46 37 52 10 11 44 10 8 44 10 9 13 7 7 11 10 8 11 11 11 9 9 9 7 7 7 38 6 7 49 5 4 25 5 4 7 5 6 4 5 7 6 4 5 4 6 5 6 6 8 7 5 6 7 5 6 7 7 9 7 7 9 8 6 7 7 7 7 7 7 5 7 7 5 14 8 8 50 6 5 
48 48 40 48 48 36 49 10 11 49 9 9 47 7 8 47 34 26 49 47 35 15 14 12 4 4 6 5 3 4 8 8 6 31 11 10 50 8 10 50 25 20 49 40 35 47 26 23 48 6 7 50 9 7 49 9 9 50 8 9 49 5 6 51 5 7 49 7 8 51 7 8 8 6 7 9 9 9 49 7 8 49 5 6 46 5 3 50 4 6 49 34 29 49 45 34 47 43 32 48 23 18 49 7 8 47 5 6 46 4 5 48 6 7 49 25 21 49 44 38 50 47 40 35 31 28 10 6 7 18 6 6 48 6 7 49 11 10 50 41 32 49 36 28 49 3 3 49 5 4 49 5 6 49 5 4 50 6 7 49 8 6 49 7 8 49 9 9 51 9 10 46 7 10 19 8 6 7 7 7 32 6 5 50 8 9 50 10 10 49 13 13 50 14 14 48 9 10 49 5 6 48 6 7 48 8 8 47 16 11 49 42 32 48 46 34 50 46 37 51 44 36 49 9 9 9 10 12 10 10 12 13 9 8 13 7 9 14 10 11 14 8 8 11 7 6 39 5 4 47 6 4 50 6 5 21 5 5 6 6 6 5 5 5 6 6 8 6 6 6 7 7 7 7 5 6 5 5 5 7 7 7 6 6 6 6 6 6 6 8 5 14 8 8 48 8 8 50 6 7 
50 50 42 50 47 40 48 17 14 49 7 8 48 6 7 49 30 24 48 45 36 20 19 15 6 6 6 8 7 5 13 4 5 32 8 8 49 9 7 51 7 6 51 6 9 49 7 8 50 6 7 49 7 8 49 7 8 49 7 8 48 6 7 50 6 7 48 6 7 51 11 11 13 11 12 13 13 13 48 13 9 48 4 3 48 4 5 50 4 6 49 34 29 50 46 35 48 44 33 48 44 33 49 20 16 48 6 7 47 6 4 48 6 8 50 25 21 50 43 35 47 43 34 34 27 21 17 5 7 49 7 8 48 6 7 49 3 5 49 3 3 49 5 4 50 4 4 50 6 5 49 5 4 49 5 6 50 6 7 49 7 8 51 11 11 49 18 16 46 10 10 19 7 7 7 7 7 8 6 7 35 7 6 48 7 5 50 26 22 52 45 37 50 46 37 50 31 27 48 6 7 48 6 7 48 7 5 48 17 15 49 45 36 49 46 37 50 46 37 49 39 30 48 6 7 15 9 9 14 9 6 45 6 7 47 7 7 50 8 9 50 8 9 48 6 7 49 5 6 47 5 6 49 5 4 23 5 5 6 6 6 5 5 5 8 6 7 7 7 7 8 8 8 5 5 5 7 5 6 6 6 4 5 7 4 5 5 5 7 7 7 11 7 8 47 7 7 47 5 6 
49 48 43 51 48 41 47 43 34 48 14 12 51 7 6 47 5 6 48 35 29 49 44 38 22 21 19 34 5 7 49 5 6 47 5 6 49 9 9 49 9 9 48 6 7 49 7 9 48 6 7 48 6 7 48 6 7 51 5 7 51 5 7 50 6 5 49 11 10 49 46 37 52 48 39 48 48 36 48 44 35 47 7 7 48 2 4 48 4 3 49 34 29 49 45 36 50 44 32 48 44 33 49 19 17 49 7 8 47 7 7 48 6 8 49 7 8 49 19 17 47 30 23 49 5 6 50 6 7 50 6 7 49 5 6 49 3 3 49 3 3 51 5 5 49 3 3 50 4 4 50 4 4 53 5 5 48 6 7 50 8 9 49 9 9 51 38 32 18 18 16 7 7 7 6 6 4 32 6 7 50 6 5 51 7 8 51 27 23 50 46 37 50 46 37 50 31 25 47 5 6 49 4 7 50 6 7 51 17 16 50 46 37 48 45 36 50 41 32 49 5 6 48 6 7 48 6 7 48 8 9 50 8 10 48 6 7 50 8 9 48 8 8 48 6 7 50 6 7 51 5 7 49 5 4 21 5 5 6 6 6 6 6 6 7 7 7 9 9 9 8 8 8 5 5 5 4 4 4 5 5 5 4 4 4 4 4 6 5 5 3 12 6 6 45 5 5 46 6 6 
48 49 41 47 44 37 48 43 37 50 12 11 49 5 6 49 36 30 51 48 39 49 15 14 47 5 6 46 4 5 49 5 4 50 8 9 50 10 10 50 8 9 48 20 17 49 29 22 48 4 3 48 4 3 50 6 7 50 6 5 52 8 9 50 6 5 51 11 11 49 46 37 51 48 41 47 49 38 48 44 35 49 42 34 47 7 7 48 4 5 46 33 25 46 39 29 47 41 29 49 43 31 49 20 16 49 7 8 47 7 7 47 5 7 47 5 6 47 5 6 47 5 6 50 6 7 51 7 8 49 7 8 48 6 7 47 3 4 51 2 5 50 4 6 50 4 6 50 6 7 48 6 7 50 6 7 49 7 8 48 6 7 50 41 32 49 46 39 52 49 42 50 47 38 48 23 19 47 5 6 47 5 6 48 8 9 49 28 25 51 47 36 48 48 36 49 34 27 49 9 7 49 7 8 51 5 5 47 6 4 49 7 8 49 8 6 48 6 7 48 6 7 49 5 6 50 6 5 49 7 8 48 10 9 49 8 6 47 9 8 47 5 6 48 6 7 50 6 7 22 6 6 5 5 3 5 3 4 4 4 4 7 7 7 10 10 10 10 10 8 9 7 8 6 4 5 5 3 4 4 4 4 5 5 5 4 4 4 9 7 8 47 38 31 50 6 5 48 7 5 
