P3
100 50
255
5 5 5 6 6 6 6 6 6 6 6 6 5 3 6 6 4 5 8 8 8 9 9 9 9 9 7 8 8 8 10 10 10 9 9 9 7 7 5 5 5 5 5 5 5 1 3 0 3 2 0 4 2 3 4 4 4 9 9 9 9 9 11 8 8 8 7 7 7 4 4 4 5 5 5 6 6 6 6 6 8 7 7 7 9 9 9 10 10 10 9 9 9 9 9 9 10 8 9 10 10 10 11 11 11 15 13 14 15 13 14 12 12 12 11 11 11 11 9 10 10 10 10 13 13 13 12 12 12 9 9 9 7 7 7 9 7 8 11 11 11 13 8 12 9 9 9 9 9 9 8 8 8 9 7 8 6 6 6 8 9 4 9 9 9 8 8 8 9 9 9 10 9 7 7 7 7 5 5 3 5 3 4 4 4 2 4 4 2 3 3 1 4 4 4 9 7 8 7 7 5 7 7 5 7 7 5 8 8 6 8 8 6 7 7 7 7 7 9 8 7 5 7 7 7 7 7 9 9 7 8 7 7 5 7 7 7 7 7 7 8 8 6 9 7 8 7 5 6 4 5 7 6 4 5 8 8 6 13 13 11 16 14 15 12 12 12 10 10 10 11 11 11 10 8 9 9 9 9 8 8 8 9 9 7 12 12 10 9 9 9 7 7 9 10 10 8 9 9 9 
5 5 5 7 7 7 6 6 6 5 5 5 7 5 6 8 6 7 10 10 10 9 9 9 8 8 8 9 10 5 12 12 10 9 9 9 7 7 7 6 6 8 3 1 4 4 2 3 5 3 4 4 4 4 6 6 6 9 7 8 10 10 8 7 7 7 6 6 6 6 6 6 6 6 6 6 6 8 8 8 8 7 7 7 9 9 9 12 10 11 9 9 7 10 10 10 12 10 11 11 11 11 13 13 13 15 15 15 16 14 15 15 13 14 13 11 12 8 8 8 8 8 8 10 10 10 11 11 11 13 11 12 11 11 9 12 12 10 8 10 7 11 7 8 9 8 6 8 10 9 7 8 10 7 9 8 8 8 8 10 8 9 9 9 7 7 7 9 7 7 5 8 8 8 6 8 7 6 6 6 3 5 4 6 6 8 6 6 6 7 7 7 10 9 7 11 11 9 8 8 6 7 7 7 7 7 7 7 7 5 8 8 8 8 8 8 7 7 7 7 7 7 6 6 8 8 8 8 6 4 5 7 7 7 8 8 8 7 7 7 8 8 6 8 8 6 6 6 6 5 5 5 4 6 5 7 7 7 14 12 13 17 17 17 12 11 9 6 8 7 10 8 9 11 9 10 8 8 10 9 9 9 9 11 10 11 10 8 8 8 8 8 6 7 10 10 10 9 9 11 
6 6 6 6 6 6 6 6 6 7 7 7 6 6 6 8 8 8 10 10 10 8 8 8 8 8 8 10 10 10 10 10 10 7 7 7 6 6 6 5 5 5 4 2 3 3 3 3 4 4 4 6 6 4 8 8 6 10 8 9 6 6 6 3 3 3 5 5 5 8 8 8 6 6 6 7 7 7 9 9 9 9 9 9 10 10 10 10 10 10 10 10 10 10 10 10 11 11 11 12 12 12 13 13 13 16 16 16 16 16 16 12 12 12 8 8 8 7 7 7 7 7 7 10 10 10 11 11 11 13 13 13 12 12 12 8 8 8 9 9 9 6 6 6 7 7 7 9 9 9 8 8 8 6 6 6 9 9 9 10 12 11 12 10 11 8 6 7 7 7 7 9 9 11 9 9 9 6 6 6 4 4 4 6 6 6 6 6 6 7 7 5 9 9 9 11 9 10 8 8 8 6 6 6 8 8 8 9 9 9 7 7 5 7 7 7 6 6 4 6 6 6 8 8 6 8 8 8 6 6 6 7 7 7 7 7 7 8 8 8 8 8 8 8 8 8 7 7 7 6 6 4 5 5 5 6 6 6 11 11 11 16 16 16 12 12 12 8 8 8 6 6 6 9 9 9 9 9 9 10 10 10 10 10 10 9 9 9 9 9 9 9 9 9 11 11 11 8 8 8 
7 7 7 6 4 5 7 5 6 9 7 8 7 7 7 8 8 8 10 10 10 8 8 8 7 7 7 10 10 10 9 9 9 7 7 7 6 6 6 5 5 5 3 3 3 4 4 4 6 6 6 8 8 8 10 10 10 9 9 9 5 5 5 2 2 2 5 5 5 7 7 7 6 6 6 6 6 6 10 10 10 10 10 10 10 10 10 10 10 10 11 11 11 11 11 13 11 11 11 13 13 13 14 14 14 13 13 15 12 12 12 8 8 8 7 7 7 5 5 5 7 7 7 8 8 8 11 11 11 13 13 13 9 9 9 7 7 7 5 5 5 5 5 5 6 6 6 9 9 9 6 6 6 5 5 5 8 8 8 9 9 9 8 8 8 6 6 8 7 7 7 9 8 6 7 7 7 4 4 6 4 4 4 7 7 7 8 8 8 8 8 10 8 8 8 10 10 10 8 8 8 8 6 7 7 7 7 9 9 9 6 6 6 7 7 7 5 5 3 4 4 4 4 4 4 5 5 5 6 6 4 7 7 7 7 7 7 8 8 8 8 8 10 8 8 10 7 7 7 7 7 9 7 7 7 6 6 6 8 8 8 9 9 9 9 9 9 9 9 9 7 7 7 7 7 7 7 7 7 8 8 8 10 10 10 9 9 9 10 10 10 11 11 11 9 9 9 9 9 9 
5 5 5 4 4 6 7 5 6 8 8 8 9 9 9 10 10 10 10 10 10 7 7 7 7 7 7 12 12 12 8 8 8 5 5 5 4 4 4 5 5 5 5 5 5 5 5 5 7 7 7 8 8 8 10 10 10 7 7 7 4 4 4 3 3 3 6 6 6 6 6 6 6 6 6 7 7 7 10 10 10 11 11 11 10 10 10 10 10 12 12 12 14 13 13 13 13 13 13 12 12 12 12 12 12 9 9 9 8 8 8 7 7 7 6 6 6 6 6 6 5 5 5 10 10 10 13 13 13 13 13 13 7 7 7 6 6 6 6 6 6 6 6 6 6 6 6 9 9 9 6 6 6 7 7 7 14 12 13 8 8 8 3 3 3 5 3 4 9 7 8 11 9 10 9 7 8 4 4 6 5 5 7 8 8 6 10 10 10 9 9 11 9 9 9 8 8 8 6 6 8 6 6 6 7 7 7 8 8 8 7 7 7 7 7 5 6 6 6 5 5 5 3 3 3 4 4 4 6 6 8 9 9 9 6 6 6 6 6 6 6 6 6 7 7 7 9 9 7 8 8 8 8 8 8 7 7 7 7 7 7 7 7 7 7 7 7 9 9 9 8 8 8 7 7 7 6 6 6 7 7 7 9 9 9 10 10 10 9 9 9 9 9 9 10 10 10 10 10 10 
7 7 9 6 4 5 6 6 6 9 7 8 10 10 10 12 12 12 8 8 8 7 7 7 7 7 7 9 9 9 6 6 6 3 3 3 5 3 4 5 5 5 6 6 8 7 7 9 5 5 7 7 5 6 5 5 5 4 4 4 3 3 3 2 2 2 6 6 6 6 6 6 5 5 5 9 9 9 12 12 12 12 12 12 12 12 12 10 10 10 11 11 11 13 13 13 13 13 13 13 13 13 11 11 11 7 7 7 6 6 6 8 8 8 7 7 7 4 4 4 4 4 4 9 9 9 14 14 14 13 13 13 8 8 8 5 5 5 8 8 8 9 9 9 7 7 7 8 8 8 4 4 4 7 7 7 12 10 11 7 5 6 3 3 3 5 5 5 8 8 8 13 11 12 47 40 32 33 28 24 6 6 6 8 8 8 8 8 8 10 10 10 10 10 10 7 7 7 6 4 5 8 6 7 8 6 7 11 9 10 10 8 9 7 5 6 5 3 4 5 3 4 5 3 4 6 4 5 8 8 8 8 8 8 5 5 3 3 3 3 4 4 4 7 7 5 8 8 8 9 9 11 8 8 8 8 8 8 7 7 7 7 7 7 8 8 8 8 8 8 8 8 8 7 7 7 6 6 6 7 7 7 9 9 9 10 10 10 11 11 11 10 10 10 9 9 9 11 11 11 
8 6 7 3 3 3 7 5 6 8 6 7 9 9 9 10 10 10 8 8 8 7 7 7 7 7 7 8 8 8 5 5 5 4 4 4 6 4 5 7 7 7 9 9 9 9 9 9 6 6 6 4 2 3 4 4 4 4 4 4 0 0 0 2 2 2 5 5 5 5 5 5 4 4 4 7 7 7 10 10 10 14 14 14 13 13 13 11 11 11 9 9 9 10 10 10 11 11 11 13 13 13 13 13 13 9 9 9 8 8 8 7 7 7 7 7 7 5 5 5 6 6 6 9 9 9 12 12 12 12 12 12 8 8 8 7 7 7 7 7 7 8 8 8 7 7 7 8 8 8 5 5 5 5 5 5 7 7 7 8 8 10 6 5 3 5 3 4 9 7 8 11 12 14 23 22 18 11 11 9 8 8 8 7 7 7 8 8 8 10 10 10 10 10 10 7 7 7 6 6 6 7 7 7 9 7 8 9 7 8 9 7 10 5 3 4 5 3 6 5 3 4 7 5 6 8 6 7 9 9 11 8 8 8 4 4 4 5 5 5 5 5 5 6 6 6 8 8 8 8 8 10 9 9 9 9 9 9 8 8 8 7 7 7 6 6 6 7 7 7 8 8 8 6 6 6 6 6 6 8 8 8 10 10 10 11 11 11 11 11 11 8 8 8 10 10 10 10 10 10 
8 8 8 7 5 6 6 4 7 6 6 6 7 7 7 7 7 7 7 7 7 8 8 8 9 9 9 8 8 8 7 7 7 5 5 5 6 6 4 8 8 8 9 9 9 10 10 10 7 7 7 3 3 3 3 3 3 2 2 2 1 1 1 1 1 1 4 4 4 6 6 6 6 6 6 6 6 6 9 9 9 12 12 12 11 11 13 10 10 10 8 8 8 9 9 9 9 9 11 14 14 14 12 12 12 10 10 10 7 7 7 10 10 10 8 8 8 8 8 8 9 9 9 10 10 10 11 11 11 11 11 11 8 8 8 7 7 7 6 6 6 8 8 8 10 10 10 8 8 8 6 6 6 5 5 5 5 5 5 10 8 9 9 9 9 6 4 5 9 9 9 11 9 10 7 7 5 6 6 6 7 7 7 7 7 7 10 10 10 11 11 9 13 11 12 10 8 9 8 6 7 6 6 6 6 6 6 5 5 5 5 5 5 4 4 6 5 5 5 6 6 6 6 6 6 7 7 7 8 8 8 7 7 7 6 6 6 6 6 6 6 6 6 7 7 5 7 7 7 7 7 9 9 9 9 10 10 10 9 9 9 7 7 7 7 7 7 8 8 8 8 8 8 6 6 6 5 5 5 7 7 7 11 11 11 10 10 10 9 9 9 7 7 7 9 9 9 10 10 10 
8 8 8 10 8 9 6 8 7 7 7 7 7 7 7 5 5 5 7 7 7 9 9 9 9 9 9 7 7 7 5 5 5 4 4 4 7 7 5 7 7 7 8 8 8 10 10 10 10 10 10 6 6 6 5 5 5 5 5 5 2 2 2 2 2 2 4 4 4 5 5 5 7 7 7 7 7 7 8 8 8 11 11 11 9 9 9 7 7 7 7 7 7 9 9 9 12 12 12 14 14 16 13 13 15 10 10 10 10 10 10 9 9 9 9 9 9 10 10 10 10 10 10 11 11 11 10 10 10 11 11 11 8 8 8 8 8 8 7 7 7 7 7 7 9 9 9 7 7 7 7 7 7 6 6 6 3 3 3 8 6 7 10 10 10 11 11 11 12 10 11 11 9 10 6 8 7 7 6 4 7 7 7 9 9 9 10 10 10 10 10 10 11 11 9 10 10 10 7 7 9 7 7 7 6 6 6 7 7 7 7 7 7 5 5 5 6 6 6 6 6 6 7 7 7 7 7 7 7 7 7 8 8 8 6 6 6 7 7 5 7 7 7 6 6 6 7 7 5 7 7 7 9 9 9 10 10 10 11 11 11 9 9 9 7 7 7 7 7 7 8 8 8 6 6 6 6 4 5 8 6 7 10 8 9 12 10 11 11 9 10 9 7 8 10 8 9 8 6 7 
9 7 8 8 8 10 8 8 8 10 8 9 9 9 9 7 7 7 7 7 7 10 10 10 8 8 8 6 6 6 5 5 5 4 4 4 5 5 5 7 7 7 10 8 9 11 11 11 9 9 9 7 7 7 6 6 6 7 5 6 4 4 4 4 4 4 6 6 6 4 4 4 6 6 6 8 8 8 7 7 7 10 10 10 9 9 9 7 7 7 8 8 8 9 9 9 14 14 14 14 14 14 13 13 13 11 11 11 11 11 11 11 11 11 10 10 10 10 10 10 11 11 11 10 10 10 11 11 11 11 11 11 9 9 9 9 9 9 7 7 7 6 6 6 6 6 6 6 6 6 8 8 8 7 7 7 5 5 5 7 5 6 12 12 12 13 13 15 10 10 10 8 6 7 8 8 8 8 6 9 7 7 9 8 8 8 9 9 9 9 9 9 11 11 9 10 10 10 9 9 11 10 8 9 7 7 7 7 7 7 6 6 6 5 5 5 8 8 8 8 8 8 8 8 8 8 8 8 9 9 9 10 10 10 8 8 8 9 9 9 9 9 9 8 8 8 9 9 11 9 9 9 10 10 10 11 11 11 11 11 11 9 9 9 7 7 7 7 7 7 9 9 9 7 7 7 7 5 6 6 4 5 10 8 9 13 11 12 13 11 12 12 10 11 10 8 9 8 6 7 
9 7 8 8 6 7 10 8 9 11 9 10 10 9 14 8 6 7 6 6 4 6 6 6 8 6 7 9 7 8 5 5 5 4 4 4 4 4 4 5 5 5 7 7 7 12 12 12 11 11 11 6 8 7 7 5 8 9 7 8 5 5 5 4 4 4 4 2 5 3 3 3 5 5 5 8 6 9 6 6 8 8 8 8 11 9 10 8 6 7 9 7 8 13 11 12 13 11 12 14 12 13 13 11 12 13 11 12 11 9 10 11 9 10 11 9 10 11 9 10 12 10 11 12 10 11 12 10 11 13 11 12 10 8 9 10 8 9 9 7 8 8 6 7 8 6 7 7 5 6 7 5 6 9 7 8 7 7 9 3 3 3 8 8 8 14 14 14 11 11 11 8 8 8 8 8 6 7 7 7 6 6 6 6 6 6 8 8 8 7 7 7 8 8 8 8 8 8 9 9 9 8 8 8 7 5 6 7 7 7 8 8 8 6 6 6 6 6 6 8 8 8 10 10 10 11 9 10 9 9 9 9 9 9 8 8 8 8 8 8 8 10 9 11 11 11 10 12 11 11 9 10 12 10 11 13 13 13 10 10 10 10 8 9 9 7 8 10 8 11 8 8 8 8 8 8 6 6 6 6 6 6 9 9 9 11 11 11 12 12 12 11 11 11 9 9 9 9 9 9 
48 40 29 47 43 32 14 13 11 9 9 9 9 9 11 8 6 7 6 5 3 6 6 6 6 6 6 6 6 6 5 5 5 4 4 4 5 5 5 5 5 5 7 7 7 12 12 10 12 12 14 8 8 10 6 6 6 7 7 7 6 6 6 5 3 4 3 3 3 1 1 1 3 3 3 6 6 8 8 6 7 7 7 7 9 7 8 8 6 7 9 7 8 12 10 11 12 10 11 13 11 12 12 10 11 11 9 10 12 10 11 12 10 11 12 10 13 12 11 9 12 10 11 12 10 11 13 11 14 14 13 11 12 10 11 10 8 9 9 7 8 8 6 7 7 5 6 7 5 6 9 7 8 8 6 7 7 7 7 4 4 6 6 6 6 11 11 11 9 9 9 7 7 7 8 8 8 7 7 7 6 6 6 6 6 6 7 7 7 6 6 6 7 7 7 7 7 7 8 8 8 7 7 7 7 5 6 6 6 6 6 6 6 7 7 7 6 6 6 8 8 8 11 11 11 11 9 10 8 8 8 8 8 10 9 9 9 8 8 6 9 9 9 11 11 13 12 12 12 12 12 12 13 11 12 11 13 12 11 11 11 10 8 9 12 8 9 9 9 9 9 9 9 7 7 7 8 8 8 8 8 8 9 9 9 11 11 11 11 11 11 10 10 10 7 7 7 9 9 9 
87 40 30 87 76 54 19 18 16 10 10 10 8 8 10 7 5 6 4 4 4 5 5 5 4 6 5 8 6 7 6 6 6 4 4 4 4 4 4 6 6 8 8 8 10 12 12 12 11 11 11 7 7 7 6 6 6 6 6 6 6 6 4 5 5 5 4 2 3 1 1 0 3 3 3 6 4 5 6 6 6 8 8 8 10 8 9 10 8 9 10 8 9 11 9 10 12 10 11 12 10 11 12 10 11 12 10 11 12 10 11 11 9 10 11 9 10 12 10 11 12 10 11 14 12 13 14 12 13 15 13 14 14 12 13 11 9 10 9 7 8 7 5 6 10 8 9 10 8 9 8 6 7 8 6 7 7 7 7 7 7 9 6 6 6 8 8 8 8 8 8 9 9 9 8 8 8 7 7 7 7 7 7 6 6 6 7 7 7 6 6 6 6 6 6 7 7 7 7 7 7 7 7 7 6 6 6 5 5 5 5 5 5 7 7 7 6 6 6 8 8 8 10 10 10 9 9 9 8 7 5 9 9 11 6 8 7 8 8 6 7 7 9 10 10 12 12 12 12 12 12 12 12 12 10 11 11 11 11 11 11 10 10 10 14 9 13 11 11 13 8 8 8 7 7 7 7 7 7 9 9 9 9 9 9 11 11 11 13 13 13 9 9 9 6 6 6 6 6 6 
85 7 7 86 75 53 20 16 15 10 8 11 8 6 9 4 4 4 4 4 4 4 4 4 5 5 5 6 6 6 7 7 7 4 4 4 4 4 4 8 8 6 10 10 10 25 24 20 48 44 33 37 34 27 6 4 7 5 7 6 5 5 3 6 4 7 4 4 2 4 4 4 2 2 2 3 3 3 7 5 6 7 7 7 11 9 10 11 9 10 11 9 10 11 9 10 11 9 10 13 11 12 15 13 14 13 11 12 12 10 11 11 9 10 12 10 11 12 10 11 12 10 11 13 11 12 15 13 14 17 15 16 15 13 14 12 10 11 9 7 8 8 6 7 12 10 11 11 9 10 6 4 5 7 5 6 7 7 7 10 10 10 8 8 8 8 8 8 8 8 8 8 8 8 8 8 8 7 7 7 7 7 7 7 7 7 6 6 6 7 7 7 6 6 6 5 5 5 5 5 5 6 6 6 5 5 5 5 5 5 5 5 5 5 5 5 6 6 6 8 8 8 8 8 8 8 8 8 8 7 5 9 7 8 8 8 10 5 7 4 7 7 7 10 8 9 43 39 30 51 48 39 25 24 19 10 10 10 11 11 11 11 11 9 13 11 12 11 11 11 7 7 7 7 7 7 8 8 8 7 7 7 8 8 8 11 11 11 10 10 10 8 8 8 6 6 6 6 6 6 
86 31 24 57 50 34 11 11 9 11 7 8 7 7 7 6 6 6 4 4 4 5 3 4 5 5 5 7 7 7 8 8 8 4 4 4 6 6 4 8 8 6 11 11 11 28 27 22 56 52 40 45 43 31 7 5 6 4 6 5 5 5 7 4 4 4 6 5 3 4 4 6 3 3 3 5 3 4 4 4 4 7 7 7 9 7 8 11 9 10 11 9 10 9 7 8 11 9 10 13 11 12 13 11 12 12 10 11 12 10 11 9 7 8 9 7 8 12 10 11 11 9 10 11 9 10 13 11 12 17 15 16 16 14 15 11 9 10 8 6 7 8 6 7 11 9 10 11 9 10 6 4 5 6 4 5 8 8 8 11 11 11 9 9 9 7 7 7 9 9 9 9 9 11 8 8 8 7 7 9 6 6 6 5 5 5 6 6 6 6 6 6 5 5 5 4 4 4 4 4 4 6 6 6 7 7 7 6 6 6 4 4 4 5 5 5 5 5 5 8 8 8 7 7 7 7 7 7 8 6 7 8 8 8 7 7 7 7 7 5 7 7 7 8 7 5 42 42 34 59 56 47 30 29 25 9 9 9 11 11 11 11 11 11 13 13 15 10 10 10 7 7 7 8 6 7 8 8 8 8 8 8 8 8 8 8 8 8 6 6 6 6 6 6 5 5 5 3 3 3 
58 46 34 8 6 7 7 7 5 8 8 8 8 8 8 7 7 7 5 5 5 6 4 5 4 4 4 5 5 5 5 5 5 5 5 5 6 6 8 9 9 11 11 11 11 8 8 6 5 5 5 6 6 6 6 6 6 5 5 5 4 4 4 5 4 2 5 5 5 4 4 6 3 3 3 3 3 3 6 4 5 5 5 7 9 7 8 11 9 10 12 10 11 10 8 9 11 9 10 13 11 12 14 12 13 13 11 12 11 9 10 9 7 8 9 7 8 8 6 7 10 8 9 11 9 10 13 11 12 14 12 13 14 12 13 10 8 9 6 4 5 8 6 7 8 6 7 9 7 8 9 7 8 8 6 7 10 10 10 12 12 14 10 10 10 7 7 7 8 8 8 9 9 9 9 9 9 8 8 8 7 7 7 7 7 7 6 6 6 7 7 7 3 3 3 3 3 3 5 5 5 8 8 8 9 9 9 8 8 8 5 5 5 3 3 3 5 5 5 7 7 7 6 6 6 7 7 7 9 9 7 10 8 11 9 7 8 8 6 7 7 9 8 8 7 5 8 8 8 8 8 8 10 8 9 9 9 9 10 10 10 10 10 10 10 10 10 8 8 8 7 7 7 10 9 7 8 8 8 8 8 8 7 7 7 7 7 7 6 6 6 5 5 5 5 5 5 4 4 4 
8 8 10 7 7 7 10 8 9 9 9 9 8 6 7 7 7 7 6 6 6 6 4 5 5 5 5 7 7 7 7 7 7 8 8 8 9 9 9 9 9 9 9 9 11 7 7 7 6 6 4 4 4 2 5 5 5 5 5 7 4 4 4 4 4 4 5 4 2 3 3 3 4 4 2 8 6 9 8 8 6 5 5 5 9 7 8 12 10 11 13 11 12 12 10 11 11 9 10 12 10 11 15 13 14 15 13 14 14 12 15 11 10 8 10 8 9 12 10 11 13 11 14 11 10 8 11 9 10 15 13 14 14 12 13 9 7 8 9 7 8 9 7 8 9 7 8 12 10 11 11 9 10 10 8 9 9 9 9 11 11 13 10 10 10 10 10 8 9 9 9 9 9 9 9 9 9 8 8 8 7 7 7 7 7 7 7 7 7 6 6 6 5 5 5 5 5 5 8 8 8 10 10 10 10 10 10 9 9 9 6 6 6 5 3 4 4 2 3 6 6 6 7 7 7 8 8 8 10 10 10 9 11 10 8 8 6 7 7 7 7 7 9 7 7 7 8 8 8 9 7 8 8 8 8 8 8 8 8 8 10 8 8 10 7 7 7 8 8 8 9 9 9 10 10 10 11 11 11 9 9 9 8 8 8 9 9 9 6 6 6 6 6 6 6 6 6 7 7 7 
6 6 4 7 7 7 8 8 10 9 7 8 8 6 7 8 8 8 7 7 7 7 5 6 6 6 6 7 7 7 7 7 7 10 8 9 9 9 9 8 8 8 7 7 7 7 7 7 7 7 7 5 7 6 6 4 7 7 5 6 5 5 3 5 3 4 3 3 1 3 3 3 4 4 2 8 8 8 12 10 11 8 8 8 8 6 7 12 10 11 13 11 12 13 11 12 11 9 10 10 8 9 14 12 13 16 14 15 15 13 14 14 12 13 14 12 13 15 13 14 14 12 13 11 9 10 10 8 9 13 11 12 12 10 11 10 8 9 10 8 9 10 8 9 11 9 10 12 10 11 9 7 8 9 7 8 10 10 8 9 9 9 9 9 9 9 9 9 8 8 8 10 10 12 9 9 11 8 8 10 6 6 6 8 8 8 6 6 6 6 6 6 7 7 7 8 8 8 8 8 8 9 9 9 10 10 10 8 8 8 7 7 7 7 5 6 6 4 5 5 5 5 9 9 9 10 10 10 9 9 9 10 8 9 7 7 5 9 8 6 8 6 7 7 7 7 6 6 6 7 7 7 7 7 5 8 8 8 7 7 9 7 7 7 7 5 6 7 9 8 10 10 10 10 10 12 9 9 9 10 10 10 11 11 11 12 12 12 8 8 8 5 5 5 5 5 5 6 6 6 
4 4 4 9 7 8 7 7 7 7 7 7 8 8 8 5 7 6 7 7 7 6 8 7 7 5 6 7 7 7 7 7 7 9 9 9 8 8 8 7 7 9 6 6 8 7 7 7 7 7 7 7 7 9 5 5 5 5 5 5 6 6 4 5 5 5 3 3 3 3 3 3 6 6 6 9 9 9 8 8 8 7 7 9 8 6 7 10 8 9 11 9 10 10 8 9 9 7 8 8 6 7 13 11 12 14 12 13 12 12 12 11 11 13 15 13 14 14 16 15 14 12 15 11 7 8 10 8 9 11 11 11 12 10 11 11 10 8 10 10 10 10 10 10 9 9 9 10 10 10 5 5 5 6 6 6 9 9 9 9 9 9 10 10 10 10 10 10 9 9 9 9 9 9 10 10 10 8 8 8 6 6 6 5 5 5 6 6 6 8 8 10 9 9 11 11 11 11 8 8 8 7 7 7 7 7 7 7 7 7 6 6 6 6 6 6 5 5 5 6 6 6 10 10 10 10 10 10 8 8 8 8 8 8 8 8 8 8 8 8 7 7 7 5 5 5 4 4 6 7 7 9 8 8 8 7 7 7 7 7 7 5 5 5 6 4 5 8 8 8 10 10 10 9 9 9 8 8 10 12 12 12 10 10 12 10 8 9 8 6 7 5 5 5 9 7 8 9 9 9 
8 8 6 10 10 12 8 8 6 9 9 7 9 9 7 7 7 7 7 5 6 5 7 4 8 7 5 8 7 5 7 7 7 7 7 7 8 8 8 6 8 7 8 6 7 10 8 9 8 8 8 6 6 6 5 5 5 5 7 6 7 7 7 5 5 5 5 5 5 3 3 3 7 7 7 12 12 12 8 8 8 8 8 10 8 6 7 8 6 7 9 8 6 8 6 7 7 5 6 8 6 7 12 10 11 14 12 13 13 13 15 11 13 12 15 15 17 15 15 15 12 10 11 8 8 8 12 12 14 15 13 14 14 14 16 11 11 11 13 13 13 10 10 10 8 8 8 8 8 8 7 5 10 7 5 8 10 10 10 10 10 10 10 10 10 11 11 11 9 9 9 8 8 8 9 9 9 7 7 7 5 5 5 6 6 6 6 6 6 7 7 7 9 9 9 11 11 11 8 8 8 7 7 7 6 6 6 5 5 5 5 5 5 7 7 7 5 5 5 8 8 8 11 11 11 9 9 9 8 6 9 9 9 9 8 8 8 10 10 10 8 8 8 5 5 5 6 6 6 8 6 7 7 7 7 8 8 6 7 7 7 6 6 6 9 7 8 9 9 11 16 15 13 31 28 23 26 22 21 9 9 9 12 12 12 11 9 10 6 4 5 5 5 5 9 7 8 10 10 12 
14 12 13 14 14 14 8 8 8 9 9 7 10 10 10 7 7 7 6 4 5 14 15 10 16 15 11 11 11 11 6 6 6 6 6 4 6 6 8 7 7 7 6 6 6 7 7 7 8 8 10 7 7 7 5 5 5 5 5 7 5 5 5 5 5 7 7 7 7 6 6 6 7 7 7 8 8 8 8 8 8 7 7 7 9 7 8 8 6 7 7 5 6 7 5 6 7 5 6 8 6 7 12 10 11 13 11 14 13 13 13 15 15 15 16 16 16 13 13 13 11 9 10 13 13 13 21 21 19 24 23 21 15 15 13 11 13 12 15 13 14 11 11 9 7 7 7 8 8 8 10 10 10 11 9 10 11 11 11 9 9 9 7 7 7 8 8 8 9 9 9 9 9 9 9 9 9 5 5 5 2 2 4 5 5 5 5 5 5 4 4 4 9 9 9 12 12 12 9 9 9 7 7 9 6 6 6 6 6 6 5 5 5 9 9 9 5 5 5 6 6 6 9 9 9 7 7 7 7 7 9 9 9 11 9 9 9 9 9 9 9 9 9 8 8 8 7 7 7 7 7 7 9 7 8 8 8 6 7 7 7 8 8 10 10 10 10 9 9 9 37 36 31 88 83 63 68 62 46 6 6 4 10 10 10 11 9 10 3 3 3 5 5 5 9 7 8 12 12 12 
14 14 14 14 14 14 12 11 7 8 8 10 8 8 8 6 6 6 4 2 5 57 53 41 82 75 57 36 33 26 6 6 6 6 6 6 6 6 6 6 6 6 6 6 6 7 7 7 7 7 7 6 6 6 6 4 5 6 4 5 5 5 5 8 8 8 8 8 8 6 6 6 5 5 5 5 5 5 6 6 6 6 6 8 6 4 5 7 5 6 7 5 6 8 6 7 8 6 7 11 9 10 12 10 11 14 12 13 15 15 15 18 18 18 16 14 15 12 10 11 9 9 9 38 31 25 84 77 59 71 65 51 15 14 12 15 13 14 16 16 16 13 13 13 7 7 7 7 7 7 10 10 10 14 12 13 10 10 10 6 6 6 6 6 6 7 7 7 10 10 10 8 8 8 7 7 7 5 5 5 5 5 5 6 6 6 1 1 1 3 3 3 8 8 8 12 12 12 11 11 11 9 9 9 6 6 6 4 4 4 7 7 7 8 8 8 5 5 5 4 4 4 6 6 6 8 8 8 9 9 9 10 10 10 12 12 12 10 8 9 8 7 5 7 7 7 7 7 9 7 7 7 7 7 7 8 6 7 8 8 8 8 8 8 8 10 9 9 9 7 38 35 26 81 78 59 61 58 43 6 6 4 8 8 8 12 10 11 5 5 3 3 3 3 7 7 7 11 11 11 
10 12 11 12 12 14 10 8 9 7 7 7 7 9 8 6 8 5 4 4 4 4 4 6 51 47 36 32 29 24 6 6 8 7 5 6 7 6 4 7 5 6 6 6 6 6 6 4 6 6 6 5 5 5 6 4 5 6 4 5 4 4 4 7 7 9 11 11 11 8 8 8 6 6 6 5 5 5 5 5 5 5 5 5 6 4 5 8 6 7 8 6 7 7 5 6 9 7 8 12 10 11 15 13 14 16 14 15 19 15 16 16 14 17 11 11 11 10 10 10 9 9 11 9 7 8 24 23 19 63 60 45 12 10 11 14 14 14 17 17 15 15 15 13 10 10 10 6 6 8 11 10 6 12 12 12 7 7 7 4 4 4 5 5 5 7 7 7 9 9 9 8 8 8 6 6 6 7 7 7 6 6 6 5 5 5 2 2 2 3 3 3 7 7 7 9 9 9 12 12 12 11 11 11 9 9 9 7 7 7 7 7 7 8 8 8 5 5 5 5 5 5 5 5 5 6 6 6 9 7 8 10 10 10 11 11 11 8 8 8 6 6 6 5 5 5 8 8 8 11 9 12 10 10 10 8 8 8 8 8 8 10 10 8 9 9 9 8 8 8 30 31 23 51 49 37 9 4 10 6 6 6 8 8 8 9 8 13 5 5 5 3 3 3 5 5 5 9 9 9 
9 9 9 8 8 6 9 9 11 8 8 8 8 8 6 7 6 4 5 3 4 4 4 4 5 5 3 5 5 5 6 6 6 7 7 9 6 6 4 7 7 5 7 8 3 6 6 6 7 6 4 7 5 6 6 6 4 6 6 6 6 6 6 5 5 5 13 13 13 11 11 11 6 6 6 6 6 6 5 5 5 4 4 6 6 4 5 7 5 6 8 6 7 5 3 4 7 5 6 12 10 11 15 13 14 16 14 15 14 14 14 12 12 12 10 8 11 10 10 10 9 9 9 8 8 6 8 8 8 10 10 8 12 12 12 14 12 13 15 15 17 14 14 14 11 9 12 8 7 5 9 9 11 9 9 9 5 5 5 3 3 3 5 5 5 7 7 7 10 10 10 8 8 8 6 6 6 6 6 6 6 6 6 5 5 5 5 5 5 4 4 6 6 6 8 10 10 10 11 11 11 10 10 10 10 10 10 7 7 7 8 8 8 7 7 7 4 4 4 5 5 5 6 6 6 5 5 5 5 5 5 8 8 8 6 6 6 4 4 4 4 4 4 6 6 6 9 9 9 14 14 14 12 12 12 8 8 8 8 8 6 10 10 10 9 9 9 7 7 7 6 6 8 7 7 7 8 8 8 8 8 8 7 7 7 6 6 6 3 3 3 3 3 3 5 5 3 8 8 8 
10 8 9 8 6 7 8 8 6 11 9 12 10 8 11 8 8 8 6 6 4 5 3 4 6 4 5 7 7 7 8 8 6 6 6 6 6 8 7 7 9 8 8 8 8 7 7 7 6 6 8 6 6 6 7 7 7 7 7 7 8 8 8 5 5 7 9 9 9 10 10 10 8 8 8 9 9 9 5 5 5 4 4 4 6 4 5 8 7 5 7 5 6 4 2 3 6 4 5 12 10 11 15 13 14 16 14 15 13 11 12 11 9 10 10 8 9 11 11 11 10 10 12 9 9 9 9 9 9 10 10 10 12 11 9 12 12 12 13 13 13 13 13 15 10 10 10 9 9 9 9 7 8 5 5 5 3 3 3 2 2 4 5 5 7 9 9 9 11 11 11 9 9 11 7 7 9 6 6 6 7 7 7 7 7 7 8 8 8 9 9 9 7 7 7 8 8 8 9 9 9 12 12 12 11 11 11 10 10 10 10 10 10 7 7 7 6 6 6 6 6 6 6 6 6 9 9 9 8 8 8 5 5 7 4 4 4 5 4 2 5 3 4 5 5 5 8 8 8 14 14 14 12 12 10 9 7 10 6 6 6 8 7 5 10 10 10 11 11 11 10 12 11 9 9 7 9 9 9 10 10 10 6 6 6 5 5 5 5 5 7 8 8 10 8 8 6 7 5 6 
7 9 6 6 6 4 7 7 5 8 8 8 9 11 8 10 10 12 8 8 10 5 5 5 6 5 3 7 5 8 7 7 7 7 7 7 6 6 8 7 7 7 7 7 7 6 6 6 7 7 7 7 7 5 7 7 5 8 6 7 6 6 8 8 8 10 7 7 7 7 7 7 9 9 9 8 8 8 7 7 7 6 6 6 7 5 6 10 8 9 7 5 6 5 3 4 6 4 5 11 9 10 11 9 10 11 9 10 11 10 8 12 10 11 9 9 9 11 10 8 12 10 11 13 11 12 13 13 11 13 13 13 13 13 13 14 14 12 14 14 14 12 12 12 10 10 10 12 10 13 8 8 10 8 6 7 4 4 4 3 3 3 6 6 6 9 9 9 10 10 10 10 10 10 9 9 9 7 7 7 7 7 9 11 11 11 14 14 14 11 11 11 7 7 7 7 7 7 7 7 7 10 10 12 9 9 9 7 7 7 10 10 10 7 7 7 6 6 6 6 6 6 8 8 8 14 14 14 13 13 13 8 8 8 6 6 6 4 4 4 6 6 6 7 7 7 8 8 8 7 7 7 13 13 15 14 12 13 7 5 6 5 5 7 11 11 11 14 14 12 14 14 12 10 10 10 10 10 10 7 7 5 6 6 8 6 6 6 9 9 7 9 9 9 8 6 9 7 5 6 
7 7 7 5 5 5 6 6 6 7 7 7 11 11 11 9 9 9 8 8 8 5 7 4 6 6 8 7 7 9 7 7 7 7 7 5 5 5 5 5 5 5 6 6 6 8 6 7 10 8 9 10 10 10 7 7 7 5 5 5 5 3 4 8 6 7 10 10 10 10 8 9 8 6 7 7 7 5 7 7 7 9 7 8 9 7 8 7 7 7 6 4 5 3 3 3 5 5 5 6 4 7 8 6 7 7 7 7 12 10 11 10 10 10 10 8 9 10 8 9 10 10 10 10 10 10 12 10 11 16 16 16 20 22 21 19 18 16 15 17 16 14 14 12 9 11 10 8 8 8 8 8 8 6 6 6 7 7 9 6 6 6 9 7 8 11 9 10 8 10 9 9 9 9 9 7 8 8 6 9 9 7 8 14 14 16 13 13 13 9 9 9 6 4 5 4 4 4 5 3 4 6 4 5 8 6 7 9 7 10 7 7 7 6 5 3 7 5 6 9 9 9 12 12 12 10 10 12 11 11 11 7 7 7 4 4 6 4 4 6 7 7 7 9 9 9 10 9 7 7 7 5 12 12 12 13 13 13 8 8 8 4 4 4 8 8 8 10 10 10 9 9 9 11 11 11 10 10 10 9 9 9 7 7 7 7 7 5 9 9 9 5 5 5 6 6 6 4 4 4 
8 8 8 7 7 5 8 6 7 9 9 7 12 10 11 9 7 12 6 6 6 6 6 4 6 6 4 8 6 7 7 5 8 6 7 2 5 5 5 5 5 3 7 7 7 8 8 6 11 11 11 10 10 10 8 8 8 8 6 7 7 7 7 8 8 8 11 9 10 9 7 8 8 6 7 7 7 7 8 8 8 6 6 6 7 7 9 9 7 8 8 6 7 4 4 4 5 3 4 5 5 7 4 6 5 7 7 9 9 7 8 9 9 9 11 9 10 10 8 9 9 9 9 9 9 9 11 11 11 17 17 19 21 19 20 18 18 18 16 18 15 16 15 13 10 10 10 11 9 10 11 11 11 9 9 9 10 10 12 12 10 11 11 11 13 10 10 10 9 9 9 11 9 10 9 9 9 9 9 11 12 10 11 10 12 11 10 10 10 8 6 7 5 3 4 2 4 1 3 3 3 4 2 3 4 4 4 5 3 4 4 4 4 5 3 4 7 7 7 11 9 10 14 12 13 10 10 10 7 7 9 7 5 6 7 3 2 6 4 7 7 7 9 7 7 7 10 8 11 11 7 6 11 11 11 13 13 13 9 9 9 5 5 5 4 4 4 6 6 6 6 6 6 9 9 9 10 10 10 7 7 7 7 7 7 7 7 7 8 8 8 4 4 4 6 6 6 6 6 4 
79 71 58 79 9 11 77 7 7 19 10 11 11 11 11 10 9 7 9 7 8 8 8 6 9 8 6 7 7 7 7 5 6 5 5 5 5 5 5 6 6 4 8 6 7 9 7 8 34 31 24 77 68 53 56 52 40 10 12 11 10 8 9 10 10 10 10 8 9 10 8 9 8 7 5 7 7 7 7 6 4 5 5 5 6 6 6 6 8 7 61 53 42 75 64 46 75 62 45 75 64 44 73 64 47 76 69 53 44 39 33 10 10 10 10 10 10 10 8 9 8 6 9 8 8 8 11 13 12 18 18 18 21 19 20 17 17 17 16 14 17 23 22 18 76 68 49 78 69 54 79 73 59 80 76 64 23 22 20 13 13 15 13 11 12 12 10 11 12 12 14 11 11 11 12 12 12 13 13 13 13 13 13 11 11 11 8 8 8 7 7 7 6 6 4 30 4 7 74 4 4 55 4 3 4 3 1 3 3 3 3 3 5 4 3 1 7 6 11 12 11 9 15 15 13 12 10 11 8 8 8 8 8 8 5 7 6 6 6 6 7 7 5 6 6 8 8 8 8 10 10 12 11 11 11 12 12 12 9 9 9 5 5 5 4 4 4 3 3 3 5 5 5 8 8 8 8 8 8 8 8 8 8 8 8 9 9 7 6 6 6 4 4 4 3 3 3 6 6 6 
88 81 63 88 71 55 86 16 14 77 61 48 21 20 18 12 10 13 9 11 10 9 7 8 8 8 6 7 7 7 6 6 6 7 5 6 42 38 29 77 68 51 76 67 50 76 69 53 81 72 55 86 74 58 87 79 60 59 53 41 9 11 10 13 9 10 7 7 7 6 6 6 8 7 5 8 8 8 7 7 7 7 5 8 6 8 5 71 59 47 82 69 52 85 70 49 84 72 50 86 73 54 84 78 56 85 78 59 83 74 59 46 42 33 12 12 12 11 11 11 8 8 8 11 11 11 16 16 16 18 18 16 18 18 18 17 17 17 16 14 17 21 17 16 86 73 56 85 77 54 90 82 63 90 85 65 24 23 19 14 12 15 14 12 13 11 11 11 10 12 11 13 11 12 12 12 14 13 13 13 13 13 13 11 9 10 9 9 9 8 8 6 9 9 9 37 5 6 86 29 22 87 70 54 56 53 38 3 3 1 4 4 4 5 5 5 7 5 6 9 9 11 12 14 13 12 10 11 10 8 9 10 9 7 9 11 8 10 9 7 6 8 7 6 8 5 64 58 44 35 30 26 12 10 11 12 10 11 9 7 8 5 3 4 6 4 5 5 3 4 7 5 6 8 6 7 8 8 8 9 9 9 8 8 8 8 8 6 6 6 8 4 4 4 3 3 3 6 6 6 
90 81 64 88 76 62 87 61 46 84 79 59 69 63 51 67 63 51 26 22 21 8 8 8 6 6 6 5 5 5 5 5 7 36 36 28 79 73 57 86 77 60 84 76 57 87 76 58 86 78 59 87 76 58 88 76 60 83 71 57 62 54 43 11 11 11 8 6 7 5 3 6 5 7 6 9 8 6 8 6 7 7 7 7 58 8 7 88 69 54 84 71 52 83 70 51 83 73 48 85 74 54 86 79 53 86 80 58 86 79 61 78 71 55 41 36 30 12 12 14 11 11 9 14 14 14 15 15 17 16 16 14 16 16 16 14 14 12 11 13 12 21 17 16 86 75 55 87 79 58 88 81 62 90 85 66 22 21 19 11 11 11 12 10 11 14 12 15 13 13 15 13 13 13 13 13 13 14 10 11 10 10 10 11 9 10 9 9 7 10 8 9 8 8 8 37 24 18 87 68 53 88 79 62 66 63 48 6 4 5 5 5 5 7 7 7 12 11 9 10 10 12 11 9 10 12 11 9 11 11 11 11 11 9 13 13 13 11 9 10 8 8 8 8 8 8 24 23 19 14 12 13 10 8 9 11 9 10 7 5 6 6 4 5 7 5 6 7 5 6 7 5 6 10 8 9 9 9 11 7 7 7 6 6 6 8 8 8 6 6 6 6 6 6 6 6 6 8 8 8 
89 80 65 85 76 59 85 78 59 87 80 62 90 83 67 86 74 60 70 56 45 22 17 14 5 5 5 4 2 5 40 37 30 79 73 59 88 82 68 87 78 61 86 75 57 87 76 58 86 78 57 87 76 56 86 64 50 89 30 26 82 25 18 66 15 14 63 55 42 4 4 4 8 4 5 8 8 8 7 7 9 57 7 6 88 52 40 87 76 56 87 74 55 84 71 52 85 73 51 86 78 55 89 78 58 87 80 61 87 80 62 89 80 63 78 71 55 49 45 36 10 10 10 13 13 13 14 14 14 15 15 15 16 14 15 12 12 12 11 9 10 20 19 14 86 79 60 89 80 63 89 28 23 90 26 24 22 10 10 14 10 9 11 9 10 14 14 14 16 16 16 17 17 17 16 16 16 10 10 10 7 7 7 11 9 10 11 11 11 10 10 10 10 8 11 37 34 27 90 79 61 73 67 51 25 24 20 8 6 7 6 6 6 12 12 12 9 11 10 11 11 9 8 8 8 9 9 9 11 11 11 10 10 10 9 9 9 8 8 8 8 8 8 8 8 8 11 10 8 9 7 8 11 9 10 10 8 9 7 5 6 6 4 5 6 4 5 6 4 5 7 5 6 7 5 6 9 7 8 7 7 7 9 7 8 10 10 10 6 6 6 9 7 8 8 8 8 7 5 6 
88 80 61 85 78 60 86 79 60 88 83 63 91 84 66 87 75 59 79 66 49 68 54 41 66 54 40 66 59 43 81 74 56 87 53 43 90 53 44 85 78 60 86 75 55 85 74 54 85 74 54 87 74 55 87 61 48 89 13 15 89 17 18 87 68 53 81 74 58 64 61 46 67 61 47 68 62 46 67 60 44 86 57 43 88 73 54 89 74 55 88 75 58 85 74 56 84 76 55 86 78 59 87 80 61 88 81 63 88 81 63 89 82 64 90 82 61 77 70 52 70 63 47 51 47 35 12 12 10 13 13 13 27 26 22 68 61 45 66 56 44 74 69 50 87 82 63 89 80 63 89 11 11 31 11 12 10 10 10 9 9 7 11 11 9 14 14 14 14 16 15 14 16 15 12 12 12 8 8 8 7 6 4 9 9 9 10 10 12 9 9 9 9 7 8 17 17 15 29 26 21 22 21 17 7 7 7 8 8 6 8 8 8 11 11 11 9 9 9 8 8 6 8 8 8 9 9 7 9 9 9 8 6 7 8 6 7 7 7 7 9 7 8 9 9 9 9 9 9 9 7 8 9 9 9 9 9 9 7 7 7 4 4 4 4 4 4 4 4 4 7 7 7 6 6 6 8 6 7 8 8 8 11 9 10 8 8 8 7 7 9 9 7 8 9 9 9 6 4 5 
87 79 58 86 79 60 86 80 58 86 79 60 88 81 62 86 79 61 82 71 53 82 69 52 82 76 54 86 80 58 87 80 64 86 43 34 89 21 20 88 54 42 85 72 53 85 72 53 86 73 57 87 74 57 86 75 57 89 55 45 87 59 48 88 81 65 88 79 62 87 82 62 87 79 60 88 77 59 89 78 58 86 75 55 82 74 55 87 74 57 89 76 59 86 78 59 85 77 58 86 78 59 87 80 62 87 80 62 88 79 62 87 78 61 88 80 61 88 82 60 88 80 57 78 70 51 58 38 27 59 11 11 65 17 17 89 39 32 85 74 54 88 80 61 87 82 62 88 81 63 88 54 44 12 12 14 53 53 41 14 14 12 10 10 10 12 12 12 12 10 11 10 10 8 8 8 8 7 7 5 8 8 6 11 11 11 12 12 10 9 10 12 10 6 7 6 6 6 7 7 7 8 6 7 7 7 7 6 6 4 8 8 8 8 8 8 11 7 8 8 8 8 5 5 5 7 7 7 5 5 5 6 4 7 6 7 2 8 8 6 7 7 9 8 8 6 10 8 11 10 8 9 10 10 10 9 9 9 6 6 6 7 7 7 5 5 5 6 6 6 8 8 8 10 10 10 10 8 11 10 10 10 11 9 10 7 7 7 7 7 7 9 7 8 7 7 7 5 3 4 
86 79 60 86 79 60 87 79 58 85 78 59 88 40 30 89 34 27 85 66 49 86 75 57 84 77 58 87 80 62 87 80 62 90 43 37 89 8 7 88 42 29 86 74 52 87 72 49 87 74 57 85 78 60 88 80 61 87 82 62 89 80 65 90 82 69 88 81 65 88 81 63 87 75 59 87 74 57 88 77 59 86 73 54 85 72 53 89 73 57 85 77 58 88 77 59 86 78 57 87 79 60 88 81 63 89 52 43 87 34 28 86 56 45 85 76 59 87 79 58 86 78 55 87 76 54 86 59 40 85 11 10 88 12 12 86 18 17 87 76 54 85 77 58 87 78 61 89 84 64 90 83 65 11 11 13 80 74 62 63 59 48 13 13 11 7 7 7 8 8 8 48 44 35 57 53 42 28 24 21 10 12 9 12 12 12 12 12 12 9 9 9 7 7 7 7 7 7 8 8 8 7 7 7 7 7 7 7 7 7 7 7 5 6 6 6 8 6 9 6 6 6 6 6 8 4 2 3 3 3 3 4 4 4 8 8 8 9 9 9 9 7 8 8 6 7 8 6 7 9 9 9 11 9 10 9 9 9 8 6 7 7 5 6 5 5 7 6 6 6 10 10 10 12 10 11 10 10 10 10 8 9 11 11 13 9 9 9 6 6 8 6 6 6 6 4 5 5 3 4 
89 80 65 88 81 63 88 80 61 88 40 30 87 12 9 86 6 7 86 58 44 84 77 59 85 78 60 87 82 63 88 81 63 88 66 53 87 50 41 88 62 47 88 73 54 86 70 54 86 75 57 87 78 61 85 78 60 86 79 61 90 83 65 89 81 68 87 81 65 89 77 61 86 75 57 86 75 55 86 74 58 86 73 56 88 71 53 86 73 56 86 73 54 83 75 56 85 77 58 87 79 60 87 81 65 88 35 27 87 6 5 87 19 18 88 54 42 87 76 56 87 76 56 88 76 54 88 71 53 87 38 31 90 12 8 86 15 13 86 73 54 85 78 59 86 79 61 89 82 64 90 85 65 62 58 47 86 78 67 89 81 68 63 59 47 57 53 41 57 53 42 77 71 55 87 82 63 69 61 50 58 48 39 60 47 38 36 28 25 11 11 13 8 8 8 7 7 7 7 7 7 6 6 8 8 8 8 7 7 7 5 7 4 7 7 7 5 5 5 8 8 8 7 7 7 57 50 40 4 4 4 5 5 5 8 8 8 8 8 10 9 9 9 8 8 6 7 7 5 11 9 10 13 11 12 9 9 9 8 8 6 6 6 6 5 5 5 7 7 7 11 9 10 12 10 11 9 9 9 9 7 10 11 9 12 10 10 10 5 5 7 3 3 3 4 4 6 5 3 4 
89 82 66 88 81 63 89 80 63 88 45 38 84 40 31 84 40 31 85 66 49 85 78 59 86 79 60 88 81 65 86 81 62 88 81 63 88 77 59 86 75 55 85 73 51 73 60 44 49 42 32 58 52 40 84 77 59 84 77 58 88 81 62 87 81 65 88 79 62 87 75 59 84 76 55 87 76 54 87 74 58 86 73 57 85 41 32 84 40 31 86 65 48 86 73 56 84 76 57 63 55 42 72 66 54 88 35 29 88 9 5 87 7 6 86 42 31 85 77 56 86 78 57 88 77 55 88 77 57 88 67 50 85 41 30 87 40 30 87 72 53 86 79 60 89 80 63 89 82 64 50 50 38 51 48 41 84 78 64 89 82 66 90 81 64 86 79 61 87 80 62 88 81 63 87 82 63 88 79 62 88 51 42 86 39 31 69 42 35 29 28 23 10 8 11 7 7 7 7 7 7 8 6 7 9 7 10 7 7 7 6 6 6 12 10 11 47 41 29 47 43 31 48 44 33 88 81 63 46 41 35 10 10 10 8 6 7 7 7 7 9 9 7 7 7 7 9 7 8 12 10 11 13 13 13 9 9 9 9 7 8 7 5 6 7 6 4 7 7 7 24 23 19 50 31 25 39 9 11 8 8 6 8 8 8 9 7 8 8 6 7 4 4 4 4 4 4 4 4 6 
50 47 38 89 82 66 87 80 62 86 77 60 86 74 58 85 74 54 88 77 59 87 80 61 86 81 61 88 82 60 88 81 63 87 80 61 87 74 57 85 74 54 85 74 54 58 48 36 8 8 8 17 16 12 56 50 38 85 74 52 86 80 58 86 78 59 83 74 57 87 75 59 85 77 56 84 78 54 87 76 58 85 72 53 84 14 14 86 8 6 87 59 45 85 74 52 82 74 53 35 31 22 57 50 40 86 54 41 88 24 22 86 25 20 87 59 45 85 77 56 86 80 58 87 79 58 87 79 56 87 76 56 87 72 51 86 68 48 87 72 53 87 79 58 88 83 63 51 48 39 13 11 12 13 13 13 81 75 61 89 51 42 90 74 61 88 76 60 88 77 59 87 82 63 88 81 63 90 58 47 87 22 20 85 10 7 85 45 35 67 64 49 33 32 27 7 7 7 7 7 5 8 6 7 7 7 7 6 6 4 10 10 8 53 44 35 87 76 56 89 78 56 87 81 59 87 82 63 88 81 63 52 49 40 47 43 34 12 10 11 6 6 6 6 6 6 9 9 9 11 11 11 9 9 9 9 9 9 8 8 8 6 5 3 8 7 5 22 18 15 64 58 46 87 53 43 81 6 10 39 8 6 9 7 8 8 8 8 7 7 7 7 5 6 5 4 2 4 4 4 
13 13 13 89 82 66 88 81 63 87 80 62 87 75 59 86 74 58 88 77 59 87 80 61 88 81 62 87 80 61 89 82 63 86 78 59 85 72 53 86 73 54 86 75 53 57 47 35 8 6 7 7 7 7 27 23 20 85 62 46 87 44 35 86 42 33 85 42 33 85 74 56 84 76 55 87 76 56 86 78 57 85 70 51 84 14 12 87 7 6 87 58 42 86 73 54 81 70 48 35 28 20 56 48 37 85 72 55 85 57 45 87 58 44 86 75 55 87 74 57 86 75 57 86 78 57 89 78 60 86 78 59 87 72 53 85 68 48 87 72 53 85 77 56 88 81 62 12 11 9 12 12 10 13 13 13 80 41 34 88 12 12 87 68 54 88 75 59 88 77 59 87 79 60 88 79 62 88 38 31 87 11 11 88 10 8 86 43 34 84 82 61 58 54 43 7 7 7 7 7 7 8 8 8 6 6 6 16 15 11 52 46 34 86 80 58 85 77 58 86 78 57 86 79 60 87 82 60 89 82 64 89 83 67 87 80 62 17 16 12 8 6 7 7 7 7 8 8 8 9 7 8 8 6 7 7 7 7 8 6 9 7 5 6 25 24 19 61 55 41 88 80 61 89 52 43 91 7 7 72 8 8 9 9 9 10 10 8 10 9 7 7 7 7 6 4 5 4 4 4 
12 12 12 88 81 65 88 80 67 89 80 65 87 78 63 86 77 62 87 78 61 87 80 64 88 81 62 87 82 62 86 77 62 82 71 53 87 71 48 87 75 53 86 75 53 66 57 40 36 32 21 33 30 21 45 36 27 85 53 40 87 11 11 87 11 13 84 13 11 85 51 39 85 74 56 87 74 57 86 75 53 83 70 51 85 35 28 85 11 10 88 56 43 87 71 55 82 69 50 54 46 33 67 55 41 86 73 56 86 75 55 86 75 55 85 72 53 85 72 53 84 71 52 86 75 55 87 79 56 88 77 57 85 74 54 84 66 46 86 53 36 87 76 56 87 79 60 41 38 31 11 11 9 41 38 33 84 13 11 88 8 9 87 47 37 88 70 56 89 78 60 87 74 57 88 76 60 89 53 41 87 37 30 85 35 24 87 55 42 85 78 59 66 63 48 29 26 21 7 7 7 7 7 7 15 14 10 47 40 30 85 78 59 86 81 61 85 78 60 86 77 60 86 77 60 87 80 62 86 80 64 89 82 66 88 79 62 44 37 29 37 30 22 10 10 8 7 7 9 7 5 6 8 7 5 7 7 5 23 20 15 36 32 23 61 53 40 85 78 59 86 79 60 90 60 49 91 34 27 68 27 21 9 9 9 11 11 13 12 10 13 6 6 6 7 7 7 6 6 6 
40 40 32 88 81 65 89 82 66 88 80 67 88 78 66 87 81 67 88 79 62 86 81 62 88 81 62 86 79 61 80 71 56 81 65 49 83 71 49 86 63 45 85 52 37 85 59 42 86 74 50 83 69 43 81 65 42 85 64 43 87 34 26 86 12 13 88 17 15 88 35 29 85 72 55 85 72 55 85 72 53 84 71 54 88 73 52 84 34 23 84 56 42 86 69 49 85 70 51 87 72 51 85 72 55 87 76 58 88 80 59 87 76 56 84 71 52 84 69 50 88 71 51 88 76 54 89 78 60 87 79 58 87 68 51 86 46 36 87 13 12 84 55 39 87 79 58 87 84 65 40 40 32 88 82 66 88 18 16 89 9 10 87 29 25 87 63 51 86 73 56 85 72 53 86 73 54 87 76 56 86 78 57 86 78 57 88 77 57 86 78 59 88 81 62 66 63 48 36 36 28 37 34 27 45 42 33 87 79 60 87 79 60 86 81 62 88 81 65 87 80 62 89 81 60 86 79 60 85 76 59 87 57 46 88 51 42 87 68 53 86 67 50 50 41 32 13 9 8 7 7 7 27 7 6 37 7 9 64 39 32 85 74 54 86 78 57 86 79 60 86 79 61 89 80 63 90 83 67 79 73 59 38 35 28 36 32 29 11 11 11 7 5 6 8 7 5 8 7 5 
88 81 62 86 83 66 89 82 66 90 81 66 90 81 66 88 58 48 87 53 44 87 74 58 85 78 60 86 78 57 83 70 53 83 67 51 83 60 44 88 30 26 86 10 12 88 36 25 86 74 52 84 69 48 82 67 44 84 74 49 86 73 54 87 37 30 88 41 33 88 77 59 86 73 56 86 71 52 85 70 51 85 72 53 86 73 54 82 71 53 83 71 49 83 70 51 85 72 55 85 73 51 84 75 58 85 78 60 86 78 59 88 62 49 86 60 47 86 73 54 88 76 54 88 77 57 89 78 60 88 81 62 88 62 45 89 13 13 88 12 12 85 20 18 87 80 61 89 84 64 89 83 67 88 81 63 88 41 35 87 37 30 89 73 57 86 73 56 85 69 53 85 68 52 85 72 53 86 75 55 86 75 55 87 79 58 87 80 61 88 81 62 88 79 62 87 80 62 87 81 59 87 80 61 86 77 60 88 69 55 87 55 42 85 77 58 89 82 63 87 80 62 87 78 61 86 78 57 84 73 55 86 15 13 86 10 10 85 62 44 85 70 51 83 70 54 52 45 37 38 33 27 67 32 26 85 32 24 85 52 37 86 76 51 86 81 59 88 81 62 87 80 62 89 81 62 90 83 65 88 81 63 87 75 59 82 71 53 40 31 22 31 28 21 8 8 6 8 7 5 
89 84 65 88 82 66 88 81 65 89 82 64 88 81 65 89 30 26 89 9 8 86 46 38 85 68 50 84 76 55 84 71 54 87 72 53 85 49 35 86 16 14 85 10 7 84 36 26 85 74 52 85 70 49 83 68 47 82 74 51 83 75 54 86 73 54 86 75 55 88 77 59 84 71 54 84 69 50 85 70 49 86 71 52 85 72 55 87 72 53 87 72 51 86 71 52 84 71 52 85 72 53 87 75 59 86 77 60 87 76 58 88 41 31 87 34 28 85 64 47 86 78 57 87 81 59 88 83 64 88 81 63 88 62 47 88 14 15 88 12 14 87 37 30 86 80 58 89 84 64 88 82 60 88 81 63 88 80 61 86 79 60 88 75 58 88 72 59 85 69 53 86 71 52 86 71 52 86 71 52 85 74 56 87 79 58 89 84 65 88 81 63 88 79 62 88 79 62 88 77 59 88 77 59 88 72 57 87 47 37 86 15 13 85 57 45 89 77 61 86 78 57 87 78 61 86 78 59 86 73 54 87 28 22 85 26 20 88 67 48 84 76 55 86 77 60 86 79 63 87 78 61 87 76 58 88 73 54 85 72 53 84 76 53 87 81 59 87 80 62 87 79 60 86 79 61 88 81 62 89 80 63 86 75 57 86 69 51 84 69 46 75 64 46 26 26 18 28 25 20 
89 82 66 90 83 67 88 79 64 90 78 64 86 77 60 88 28 27 86 10 10 87 7 10 86 50 36 86 75 57 84 72 56 84 71 54 85 72 53 84 48 36 85 24 19 85 45 33 85 74 54 84 72 50 83 71 49 84 73 53 83 72 54 86 69 51 87 70 52 87 71 56 85 69 53 83 68 47 84 69 48 84 71 52 84 73 55 86 73 56 87 74 57 85 74 56 86 71 52 85 72 53 84 77 59 87 78 61 86 74 58 86 42 31 85 9 9 86 31 24 87 64 50 89 77 61 89 81 68 88 81 62 88 65 51 87 29 25 87 37 30 89 77 61 89 81 62 89 82 64 88 83 61 88 81 63 88 81 62 87 78 61 87 75 59 86 73 56 86 73 54 88 73 54 85 72 55 84 71 54 84 76 55 86 79 63 91 73 61 89 73 60 87 81 65 88 79 64 88 76 60 87 74 57 86 56 45 87 6 5 85 7 3 84 14 12 87 74 57 90 77 61 87 80 62 87 80 61 88 77 55 85 74 54 87 71 55 86 73 56 88 76 62 90 83 65 87 80 64 87 75 61 88 72 56 87 71 55 87 71 56 85 72 56 86 75 55 82 75 56 68 60 47 68 60 47 68 62 48 68 60 49 71 57 44 85 53 40 85 68 48 66 59 43 88 77 57 67 62 43 
87 63 53 88 80 67 87 80 64 87 75 59 86 75 57 87 40 32 85 15 13 85 21 19 87 58 44 85 74 56 85 72 55 84 73 55 83 70 51 82 69 50 84 71 52 86 75 57 84 71 52 85 70 49 83 75 54 83 75 56 84 71 54 86 69 51 84 67 47 85 69 53 85 69 53 85 69 53 85 68 50 83 71 49 86 71 52 86 73 57 87 74 57 86 73 54 86 71 52 84 71 52 87 79 60 86 79 63 87 75 59 87 49 40 87 17 15 88 12 12 81 41 33 67 61 47 74 68 56 87 80 62 89 78 60 88 77 59 88 76 60 87 78 61 89 82 64 91 84 65 89 84 64 87 80 64 87 80 64 87 79 60 85 72 56 86 70 54 86 73 54 70 61 46 68 56 44 75 64 46 85 77 56 87 70 54 88 35 29 89 36 32 89 69 58 87 78 63 86 74 58 84 71 55 84 58 43 86 23 16 86 23 18 85 30 23 86 73 56 70 60 50 71 64 48 67 61 47 67 60 44 85 72 56 89 73 58 88 75 59 88 80 61 89 82 64 89 79 67 87 75 61 87 74 57 88 73 54 87 71 56 85 72 55 78 67 49 46 39 31 10 9 14 10 10 10 7 7 7 7 5 6 23 9 8 64 14 13 57 45 31 19 18 14 69 63 49 8 8 8 
89 11 11 89 81 68 88 80 67 85 73 57 85 72 53 88 76 60 88 35 29 76 52 40 77 68 53 73 65 46 79 68 50 85 72 56 82 69 52 82 69 50 84 73 53 83 75 56 83 70 51 83 70 53 85 76 59 85 77 58 84 73 53 85 68 50 84 67 49 83 64 47 85 66 51 74 61 45 85 68 48 85 68 50 84 73 53 86 74 52 85 66 51 84 71 55 85 70 51 84 73 51 86 79 61 88 79 62 87 74 58 88 72 56 87 45 33 85 37 27 57 49 38 8 8 8 23 22 18 82 75 57 86 78 59 89 78 60 87 79 60 88 79 62 88 83 63 91 84 65 89 82 64 88 81 62 86 79 61 87 79 60 85 66 51 84 62 49 84 71 52 27 24 19 8 8 8 52 46 34 81 73 54 87 43 34 88 6 8 88 12 12 86 39 33 85 76 61 86 73 54 87 71 55 86 71 52 84 71 54 87 70 54 86 71 52 76 67 50 23 19 18 12 12 10 7 7 7 8 8 8 71 63 52 89 76 67 87 75 59 89 78 60 87 79 58 87 80 62 86 79 63 88 77 59 88 69 54 86 63 49 84 67 51 45 38 28 9 9 11 9 9 9 8 8 8 5 5 5 6 6 8 9 7 8 10 8 11 10 8 9 9 9 11 13 11 14 10 10 10 
90 19 17 88 80 69 89 80 65 85 77 58 86 73 54 88 77 59 88 79 62 38 35 26 11 11 11 8 6 7 55 47 36 84 71 54 85 68 52 82 69 50 85 72 53 86 70 54 83 67 51 84 71 54 86 74 58 84 77 58 85 72 53 85 68 50 86 52 40 88 7 6 86 6 5 6 6 8 74 62 46 85 68 50 84 67 49 86 73 54 85 30 25 84 41 32 86 69 49 86 75 55 85 78 60 85 76 61 86 73 57 87 71 55 85 72 55 86 73 54 57 48 39 8 8 6 9 9 9 29 28 24 87 78 63 86 78 59 86 79 60 89 81 62 87 82 63 90 83 64 89 83 67 88 81 63 86 79 61 89 77 63 85 20 18 84 8 8 74 48 35 28 25 20 8 8 8 6 6 8 57 54 39 87 47 37 86 10 10 87 42 36 86 79 61 82 74 55 85 69 53 85 70 51 83 75 52 87 74 55 88 72 56 86 74 52 76 67 50 80 71 54 13 9 10 9 7 8 10 8 9 10 10 10 78 70 59 87 68 54 87 74 58 88 75 58 86 79 60 85 78 62 88 77 59 86 36 29 86 10 10 47 9 8 8 6 7 7 7 5 5 7 6 7 7 7 7 7 9 6 6 6 9 9 9 12 12 14 8 8 8 8 8 8 12 11 9 11 10 8 
87 84 67 89 82 66 90 81 66 87 80 61 87 76 56 87 76 58 88 81 62 88 82 60 41 38 29 17 16 14 60 50 38 83 70 53 86 71 52 86 73 56 84 73 51 82 64 44 86 65 48 86 73 54 86 73 56 85 72 56 86 70 54 87 61 46 85 5 6 88 4 2 85 5 4 6 4 5 4 6 5 69 56 40 83 64 47 85 74 54 84 76 55 84 29 24 85 53 38 86 73 56 85 76 59 86 73 56 86 70 54 85 70 49 85 72 53 87 74 57 57 48 39 10 8 9 15 13 14 35 30 26 89 80 63 87 79 60 85 79 57 89 72 52 88 71 53 88 79 62 91 82 65 87 82 63 88 81 62 87 80 62 90 20 20 87 11 11 37 8 10 9 9 9 8 8 8 11 11 9 62 60 47 87 82 63 86 48 37 86 45 39 87 78 63 83 75 54 86 69 49 87 72 51 88 75 58 86 78 59 87 74 55 76 65 47 8 8 8 10 10 10 10 8 9 8 7 5 9 9 11 12 10 11 69 63 51 77 19 17 87 50 41 87 74 55 87 76 56 86 75 55 87 75 51 82 34 24 77 6 4 41 5 5 5 5 5 4 4 6 6 4 5 7 6 4 9 9 9 10 8 9 9 9 9 13 13 13 8 8 10 6 6 6 7 7 7 7 5 6 
88 82 66 87 84 65 91 81 69 89 80 63 88 77 59 87 76 58 87 76 58 85 77 58 85 77 58 86 75 57 85 70 51 83 70 51 83 75 52 84 73 53 85 72 53 83 45 32 86 31 24 87 74 57 86 71 52 86 71 50 83 70 51 86 65 48 84 4 5 83 3 4 84 4 5 6 4 5 5 5 5 71 58 42 84 68 52 88 75 58 86 75 57 86 75 55 84 71 54 86 71 52 89 74 55 86 71 52 85 70 51 86 71 50 84 71 52 85 72 55 58 50 39 11 7 8 29 28 24 86 81 62 88 81 63 88 80 59 86 69 49 87 11 13 86 8 8 88 77 59 89 81 60 88 83 64 89 82 63 90 83 67 90 22 19 86 10 12 85 7 5 28 8 7 8 8 8 59 53 41 88 81 62 87 80 62 86 79 60 87 80 61 86 79 61 87 76 56 83 71 49 84 72 50 87 76 56 88 80 59 87 76 56 76 65 47 8 8 8 8 8 6 12 8 9 8 8 8 9 9 7 11 11 13 12 10 11 8 9 11 67 7 7 86 57 43 86 75 55 86 74 52 87 71 55 36 29 23 6 6 6 4 4 4 3 3 3 4 4 6 5 5 5 6 6 4 12 11 9 12 11 9 9 7 8 10 8 9 9 7 8 5 5 7 9 7 8 7 7 7 
90 83 65 89 83 67 90 85 66 89 82 64 87 82 60 86 78 55 85 73 51 82 74 51 84 34 25 86 48 37 84 72 50 84 73 51 88 77 59 87 76 58 86 50 38 85 7 7 85 7 7 85 22 17 84 65 50 85 70 51 85 74 56 84 77 58 85 79 57 83 72 50 82 69 50 85 70 49 83 68 47 83 72 52 86 81 59 87 79 60 86 75 55 85 74 54 81 70 50 84 71 52 86 74 52 85 73 51 85 70 51 85 70 49 85 73 51 87 49 38 85 5 6 86 33 25 87 81 59 88 82 60 88 80 59 87 79 60 87 68 53 85 9 9 88 8 7 88 76 54 87 79 58 89 82 64 89 82 64 91 83 62 90 84 62 87 80 61 86 78 59 30 25 21 10 8 9 59 53 41 88 80 61 87 80 62 86 81 61 85 80 60 86 80 58 86 78 59 85 72 53 84 72 50 86 74 52 88 77 57 77 69 50 7 7 7 7 7 9 6 6 6 7 7 9 10 8 9 9 9 7 9 9 9 10 10 10 8 8 8 7 7 7 7 7 7 8 8 8 8 8 10 5 3 4 3 3 3 6 6 6 4 4 4 4 4 4 4 4 4 6 6 6 8 8 8 11 11 11 7 7 7 6 6 6 7 7 7 6 6 4 4 4 4 6 4 5 8 6 7 
