P3
100 50
255
11 11 11 10 10 8 9 9 9 8 8 8 10 10 10 11 11 9 8 8 8 9 9 7 50 46 37 75 67 54 74 68 56 74 66 55 74 40 31 73 12 11 75 11 11 72 11 10 74 10 10 71 5 6 71 5 6 73 5 6 71 7 5 73 11 12 74 16 15 76 12 13 70 9 8 71 5 7 72 8 9 72 6 7 72 8 9 74 8 9 74 9 7 73 7 8 73 7 8 72 11 10 73 42 37 74 60 47 73 35 26 74 8 9 72 8 8 73 9 9 74 26 22 73 61 47 73 61 47 73 64 49 74 50 40 74 10 11 74 10 11 75 11 11 75 11 9 75 66 51 72 62 50 72 62 50 74 16 15 73 9 9 74 8 10 72 10 11 75 11 11 74 8 9 74 8 10 72 6 7 71 7 7 71 9 10 73 9 9 72 8 8 73 9 9 74 29 24 76 66 54 74 62 50 71 47 35 74 13 12 73 11 12 64 8 9 7 7 7 8 8 6 10 10 10 9 9 9 9 9 9 10 10 10 12 10 11 14 14 14 16 14 15 11 11 11 9 9 9 10 10 10 10 10 10 10 10 10 10 10 10 8 8 8 8 8 8 9 9 9 10 10 10 10 10 10 7 7 7 7 7 7 6 6 6 6 6 6 8 8 8 10 10 10 11 11 11 12 12 12 
11 9 10 10 8 9 9 7 10 9 9 11 8 8 6 8 8 8 9 9 9 56 10 10 74 44 36 75 63 51 72 64 53 73 65 52 73 39 30 74 10 11 73 12 11 74 8 10 74 8 10 73 9 9 73 9 7 71 7 7 68 7 4 72 12 12 75 17 15 76 12 12 71 5 6 71 5 6 75 7 8 72 8 8 74 8 9 75 9 10 73 9 10 71 7 7 71 7 7 72 42 32 73 61 49 73 61 47 72 62 52 73 36 28 73 7 8 74 8 9 71 7 7 71 26 21 71 62 47 73 60 51 73 48 41 74 10 11 73 11 12 72 12 12 75 11 12 74 10 10 73 12 11 72 64 53 73 65 54 75 17 15 75 9 10 73 9 9 74 10 10 73 7 8 73 43 33 72 65 49 71 28 22 70 9 8 70 9 8 72 8 6 72 28 25 76 68 55 73 70 55 74 66 53 73 61 49 73 50 42 73 13 13 64 8 9 6 8 7 7 7 7 8 8 6 7 7 7 8 8 8 9 9 9 13 11 12 18 18 18 18 16 17 11 11 11 10 8 9 9 9 9 10 10 10 9 9 9 10 10 10 10 10 10 10 10 10 9 9 9 9 7 8 10 8 9 9 9 9 8 8 8 7 7 7 7 7 7 10 10 10 13 13 13 10 10 10 9 9 9 
9 9 9 10 10 10 7 7 9 7 7 7 8 6 7 6 6 6 8 6 9 57 9 9 74 13 12 74 47 36 72 65 49 74 40 31 71 9 10 73 9 10 72 11 10 71 10 9 73 9 9 73 9 9 73 9 10 73 7 8 71 7 7 73 12 11 73 13 13 75 11 9 70 6 6 73 5 4 74 57 47 74 54 45 73 56 46 73 15 13 75 9 10 72 8 8 71 5 6 70 42 31 74 61 52 73 61 49 73 64 47 74 37 29 73 9 10 76 8 9 73 7 8 70 9 4 72 12 11 73 13 12 73 15 13 72 11 8 71 9 12 72 12 11 73 11 12 74 10 10 73 12 11 71 15 14 74 16 14 73 7 8 73 9 9 74 10 11 72 8 8 72 6 7 72 43 35 71 63 50 71 59 45 74 31 25 71 7 7 71 7 7 73 30 24 73 70 53 55 55 43 21 21 19 22 21 19 24 20 19 23 14 15 19 10 11 9 9 9 7 7 7 7 7 7 7 7 7 9 7 8 8 8 8 11 13 12 17 17 17 15 15 15 10 10 10 8 8 8 8 8 8 8 8 8 10 10 10 10 8 9 9 9 9 9 9 9 11 9 10 10 10 10 10 8 9 9 7 8 10 9 7 10 8 11 10 8 9 14 14 14 15 15 15 13 13 13 7 7 7 
9 9 9 8 8 10 8 8 8 7 7 5 7 7 7 7 5 6 53 7 7 69 9 11 72 11 10 72 44 32 72 32 24 74 10 8 73 5 6 73 7 11 72 11 10 73 9 10 53 9 10 32 11 10 72 10 11 72 21 17 74 56 42 72 48 36 72 12 11 71 10 9 72 6 7 73 5 4 71 68 51 72 62 50 72 62 50 74 13 12 73 9 10 72 6 7 27 9 9 51 11 9 73 44 36 74 62 48 74 41 32 73 13 12 73 9 9 72 8 8 72 6 7 70 4 5 71 5 6 71 6 4 75 7 8 74 9 7 69 11 10 73 12 9 76 12 12 73 11 12 17 11 11 74 9 7 75 52 46 74 58 45 72 14 13 70 6 6 71 5 6 71 46 39 71 59 47 72 62 50 72 63 46 73 36 27 69 8 7 73 9 10 74 31 24 54 51 42 17 17 15 15 15 17 16 16 16 14 14 14 12 10 11 11 11 11 11 9 10 8 8 8 6 6 8 6 6 6 9 9 9 13 11 12 13 13 13 13 13 13 10 8 9 8 8 8 7 7 7 5 5 5 7 7 7 8 8 8 9 9 9 10 10 10 8 10 9 11 11 11 13 11 12 10 10 8 7 7 7 8 6 9 10 8 9 9 9 9 11 13 12 14 14 14 13 13 13 9 9 9 
10 10 10 8 8 8 8 6 7 8 8 10 6 6 6 7 7 7 59 9 10 74 47 38 73 59 46 71 31 23 75 11 11 73 7 8 72 7 5 72 8 6 73 9 9 53 9 10 14 10 11 9 9 7 33 22 20 72 55 45 71 62 47 70 58 44 71 44 33 70 8 9 71 7 7 74 6 7 74 68 52 71 63 50 70 62 49 71 11 10 72 8 6 70 9 8 25 9 9 13 9 6 53 13 13 73 17 16 74 14 13 75 11 11 72 11 8 72 8 9 71 7 8 69 5 5 72 6 7 70 6 6 72 7 5 73 7 8 70 10 10 73 13 12 75 13 14 18 12 12 11 9 10 17 8 9 65 57 46 72 65 49 70 56 45 73 15 13 70 4 5 72 48 38 72 58 45 72 60 46 72 65 49 71 59 45 70 31 24 71 34 28 71 62 47 50 46 37 12 12 10 14 14 16 15 15 15 12 12 12 8 8 6 8 8 8 12 12 10 8 10 9 6 6 6 6 6 6 8 8 8 11 11 11 13 11 12 10 10 10 7 7 7 7 5 6 6 6 6 8 6 7 5 5 5 7 7 7 9 9 9 10 10 8 9 9 7 10 10 10 29 22 16 63 49 36 50 41 32 7 7 9 10 10 10 11 9 10 10 10 10 9 9 7 11 9 12 9 9 7 
11 10 8 8 8 10 7 7 7 8 6 7 8 8 8 9 9 9 57 9 9 74 52 39 75 66 51 74 29 24 74 6 7 72 29 23 73 51 40 72 50 37 73 35 26 49 11 10 9 9 11 9 9 7 26 22 19 73 61 49 72 63 48 73 59 46 69 51 37 72 8 8 71 7 7 71 5 6 71 65 49 70 63 47 69 62 46 71 13 11 71 7 7 72 8 9 25 9 9 9 9 11 49 9 10 73 9 9 72 11 10 75 11 11 74 10 11 73 9 10 72 6 7 70 6 6 70 6 6 71 6 4 71 7 7 71 7 5 70 10 10 73 13 12 73 12 11 10 10 10 9 9 9 7 9 8 64 58 44 73 64 49 72 65 49 70 19 15 72 4 5 70 15 12 72 43 35 72 63 48 73 64 47 71 65 49 73 36 28 71 37 28 72 66 50 49 46 39 11 11 9 15 15 15 13 15 14 11 11 11 7 7 5 10 8 9 10 10 10 9 9 9 5 5 5 5 5 5 7 7 7 8 8 8 9 9 9 8 6 7 7 7 7 7 7 7 7 5 6 7 7 7 6 6 8 6 6 6 6 8 7 9 9 11 10 10 10 9 7 8 18 12 12 21 20 16 20 19 17 9 9 9 9 9 7 10 8 9 9 9 9 8 8 8 7 7 7 9 9 9 
10 10 12 9 9 9 9 9 9 6 6 6 9 9 9 8 10 9 58 10 10 74 52 39 73 67 51 74 31 25 71 30 24 70 57 41 70 63 47 75 63 51 72 54 44 49 36 28 10 10 8 21 17 16 60 50 40 73 61 47 72 60 48 70 58 44 71 52 38 73 7 8 72 6 7 73 7 8 71 22 18 72 21 17 68 19 15 68 7 6 70 6 6 71 5 7 60 9 8 56 8 8 69 9 9 71 10 9 73 9 9 76 8 9 73 9 9 73 7 8 73 7 8 68 7 6 73 18 15 71 49 38 72 48 38 71 44 37 72 45 36 74 8 10 73 9 10 58 8 7 8 8 10 57 51 39 74 65 48 72 62 50 70 61 46 70 51 37 71 16 13 70 4 5 71 16 13 71 20 17 72 23 18 71 22 18 72 35 27 71 53 43 73 64 49 67 61 49 43 40 33 12 12 12 11 11 11 11 9 10 9 7 10 7 9 6 9 9 9 8 9 11 9 7 8 6 6 8 6 6 6 7 7 7 8 8 8 9 7 8 7 7 7 8 8 8 8 6 7 7 7 7 6 6 8 7 7 7 8 8 8 8 8 8 9 9 9 8 8 8 6 8 7 10 10 10 10 10 10 9 9 9 9 9 7 10 8 9 7 9 8 7 7 7 6 6 6 10 10 10 
11 11 11 9 9 7 8 8 8 8 8 8 8 8 8 9 9 9 57 9 9 74 18 17 74 25 21 75 15 14 72 44 33 70 62 49 72 64 51 72 64 51 74 62 48 64 44 35 57 9 9 61 11 10 74 31 25 73 61 47 73 61 49 72 56 41 72 17 14 71 5 6 74 8 9 73 7 8 72 6 7 72 6 7 67 7 6 68 8 7 70 9 8 71 7 8 72 6 8 72 6 8 73 7 8 72 31 27 73 50 42 75 52 44 72 32 24 75 7 6 73 7 8 74 8 10 72 23 19 75 69 55 74 66 53 70 60 50 73 55 43 73 7 8 74 8 10 71 7 8 57 7 6 74 65 50 71 65 49 72 27 22 69 18 14 69 20 15 73 9 7 71 5 6 72 6 7 72 7 5 73 9 9 73 7 9 73 36 27 71 62 47 70 63 47 72 52 41 49 15 13 10 10 10 10 10 10 9 9 9 10 10 10 9 9 9 8 8 8 11 9 12 10 8 9 7 7 7 7 7 7 8 8 8 10 8 9 10 10 10 9 9 9 9 7 8 7 7 7 8 6 7 7 7 9 9 7 8 9 9 9 10 10 10 9 9 9 8 8 8 10 8 9 11 9 10 11 11 11 10 10 10 9 9 9 9 9 9 8 8 8 7 7 5 7 7 7 9 9 9 
10 10 10 8 8 8 9 7 8 9 9 9 10 10 10 9 9 9 55 36 29 73 46 35 72 48 38 73 26 20 74 45 37 73 67 53 75 69 55 73 65 52 73 51 40 72 23 19 73 9 9 73 9 9 72 21 17 72 60 44 70 56 43 72 23 19 73 7 8 73 7 8 74 10 10 74 10 11 73 9 9 72 6 7 71 7 8 69 35 25 71 13 11 72 8 8 73 8 6 74 8 9 73 8 6 74 41 34 73 65 52 53 49 40 31 17 16 46 6 6 74 8 9 76 10 11 74 25 21 73 69 57 72 66 50 72 63 48 72 54 42 72 8 8 70 6 7 71 6 4 72 6 7 73 30 24 72 29 23 75 11 9 74 6 7 72 8 8 74 9 7 71 7 7 70 6 6 72 6 8 71 31 23 72 44 33 73 53 42 72 65 49 72 50 37 72 21 17 64 20 17 37 30 24 8 8 8 9 9 9 11 11 9 12 12 10 10 10 10 8 8 8 9 9 9 8 6 9 7 7 7 9 7 8 9 9 9 9 9 9 11 9 10 10 10 10 8 8 8 7 7 7 6 6 4 8 8 6 9 9 9 10 10 10 10 10 10 11 9 10 11 9 10 11 9 10 9 9 7 8 8 10 9 11 8 10 10 8 9 7 10 8 6 7 7 8 3 7 7 7 
9 7 8 6 6 6 9 9 7 10 10 10 11 11 11 10 10 8 58 54 42 72 69 52 73 70 53 72 31 25 72 23 19 73 49 39 72 69 54 74 68 56 73 46 35 73 12 11 73 9 9 73 7 9 70 10 9 75 27 23 74 25 21 72 8 8 72 8 8 70 9 8 74 10 10 71 11 11 74 10 10 73 9 7 74 37 31 71 53 39 72 49 35 73 15 13 73 8 6 72 6 7 71 10 9 72 42 34 72 62 50 40 37 30 6 4 7 15 5 6 48 8 8 74 13 12 76 16 16 76 32 29 72 31 25 72 31 25 70 25 19 72 8 8 71 5 7 71 7 7 73 7 8 72 8 8 74 10 10 74 8 9 73 8 6 74 8 9 73 7 8 74 6 7 70 6 4 71 26 21 69 56 40 71 66 47 73 67 51 72 45 36 71 20 16 72 8 8 73 25 21 67 55 43 37 30 24 10 10 10 13 12 10 12 12 14 11 9 10 5 5 5 8 7 5 6 6 6 8 6 7 8 8 8 9 11 10 10 10 10 11 11 11 14 14 14 9 9 9 7 7 7 5 5 7 6 8 7 8 8 8 10 10 12 10 10 10 10 10 10 11 11 11 11 10 8 10 8 9 9 9 11 10 10 10 9 9 9 10 8 9 8 8 8 8 8 8 6 6 6 
8 8 8 6 6 4 8 8 8 10 10 8 10 10 10 11 9 10 24 23 19 63 61 48 72 69 52 74 29 24 72 6 7 75 17 16 72 32 24 73 49 39 72 45 38 76 12 13 73 9 10 71 10 9 69 9 8 72 6 7 71 9 12 71 37 27 69 8 7 67 7 6 69 9 8 69 11 10 75 11 11 73 40 31 72 55 45 72 58 45 70 63 45 72 50 37 72 14 12 69 8 7 69 7 8 72 42 34 71 63 50 38 35 28 5 5 5 6 6 6 31 6 9 73 9 7 73 9 10 73 11 12 73 11 12 72 10 11 74 10 11 73 7 8 73 7 8 74 46 35 73 7 8 75 7 8 73 9 9 74 41 32 74 14 14 73 9 10 73 7 8 72 6 7 71 7 7 72 39 30 70 61 44 69 66 49 73 67 51 73 36 28 71 5 6 70 6 6 71 26 21 72 58 45 57 44 35 10 10 10 11 11 11 12 11 9 8 8 8 6 6 6 6 6 6 7 7 7 9 9 9 8 8 8 9 9 9 10 10 10 12 12 12 12 12 12 9 9 9 7 7 7 5 5 3 6 4 5 9 9 9 10 10 10 10 10 10 10 10 10 11 9 10 9 9 9 9 9 9 10 10 10 9 9 9 9 9 9 8 8 8 8 8 8 8 6 7 6 4 5 
40 9 7 6 6 6 7 7 9 9 9 9 11 9 10 11 11 11 8 8 8 33 28 24 61 57 45 73 30 24 72 7 5 73 7 8 73 9 9 76 38 35 72 43 35 73 12 11 75 11 11 71 10 9 71 5 6 71 7 7 71 11 10 71 55 40 70 33 25 69 32 26 69 9 8 41 9 12 73 36 30 75 61 48 72 60 46 72 59 43 72 60 46 73 61 47 71 22 18 69 7 8 71 7 8 72 24 20 74 35 30 55 20 18 21 5 5 5 5 5 18 8 7 51 7 6 73 9 9 74 10 10 71 10 9 74 10 10 72 8 8 72 6 7 72 7 5 71 36 30 72 7 5 73 7 8 74 33 27 75 63 51 74 39 33 73 15 13 70 6 6 47 5 6 40 6 5 59 41 31 71 64 48 71 68 51 74 68 54 73 36 30 72 6 7 71 16 13 73 34 27 71 34 25 63 26 20 32 8 8 9 9 9 9 9 7 8 8 6 6 6 6 6 6 4 7 7 7 7 7 7 8 8 8 9 9 9 10 10 10 10 10 10 9 9 9 9 9 9 8 8 8 5 5 5 5 5 5 8 6 7 10 8 9 11 9 10 10 8 9 10 8 9 11 9 10 10 10 10 9 9 9 9 9 9 8 8 8 8 8 8 7 7 7 8 6 7 6 4 5 
69 8 7 40 6 5 9 5 6 8 8 8 10 12 11 11 11 9 9 9 9 7 5 6 28 24 21 40 19 16 59 8 7 72 8 8 75 24 21 75 53 42 74 54 43 74 29 23 73 11 12 73 17 16 72 27 22 71 10 9 72 33 28 73 57 44 71 59 45 72 58 47 39 9 9 9 9 11 41 37 28 68 38 28 72 56 43 70 58 42 72 59 43 71 41 31 74 16 15 70 8 9 70 9 8 72 8 9 71 7 7 72 6 7 55 5 8 39 5 4 27 5 7 19 7 7 39 8 6 48 8 8 72 6 7 73 11 12 71 32 25 72 6 7 71 6 4 72 6 7 71 5 6 74 6 5 74 60 47 73 67 55 73 61 49 70 37 28 43 12 10 14 5 6 7 5 6 28 23 20 58 54 42 73 65 52 73 65 54 73 36 30 72 7 5 72 17 14 72 24 20 72 6 7 68 6 9 56 6 7 7 7 7 8 8 8 9 9 9 7 7 7 7 7 7 8 6 9 8 8 8 10 10 10 10 10 10 11 11 11 10 10 10 6 6 6 7 7 7 9 9 9 28 21 15 17 13 10 8 6 7 9 9 9 10 10 10 9 9 9 9 9 9 10 9 7 10 10 10 10 10 10 7 7 7 6 6 6 7 7 7 6 6 6 7 5 6 7 5 6 
72 6 7 74 6 7 15 3 5 6 8 7 9 9 9 34 10 10 17 8 9 8 8 8 6 6 6 6 6 6 49 7 8 73 7 8 72 38 29 74 67 51 73 63 51 73 53 42 73 39 30 73 44 36 72 50 37 73 13 12 73 34 29 71 59 43 70 63 47 72 60 48 41 9 12 10 10 12 11 11 11 66 10 9 71 30 24 71 53 39 70 57 41 72 21 17 74 10 10 73 9 10 71 10 9 71 5 6 73 7 8 73 7 8 74 6 7 60 6 6 27 5 7 6 6 6 14 8 8 48 6 7 69 14 11 69 35 26 70 61 44 73 32 26 71 7 7 74 6 7 73 5 2 72 4 3 74 58 45 72 62 50 72 58 45 70 57 41 23 20 15 8 10 9 8 10 9 9 7 8 48 24 20 73 36 28 74 35 28 74 20 18 72 6 7 74 6 7 72 8 8 71 7 7 71 7 7 55 7 7 7 7 7 7 7 5 8 8 8 7 5 6 7 7 7 9 9 9 9 9 9 9 9 9 10 10 10 10 10 10 9 9 9 6 6 6 6 6 6 9 9 9 28 23 19 18 14 11 6 6 6 9 9 9 10 10 10 9 9 9 10 8 9 10 9 7 9 9 9 11 11 11 9 9 9 8 8 8 10 10 10 6 6 6 6 4 5 6 4 5 
71 7 7 74 6 7 14 5 6 8 8 8 29 9 10 59 8 7 44 25 21 31 30 25 33 15 13 33 7 8 56 8 6 73 7 8 75 38 30 74 68 54 72 65 49 73 61 49 72 62 50 76 60 47 72 37 31 72 8 8 71 13 11 69 60 43 72 63 48 70 61 46 71 9 10 11 11 11 34 10 10 70 10 10 74 8 9 70 36 26 71 55 42 71 20 17 74 10 10 72 10 11 71 10 9 72 8 8 73 7 8 71 7 7 74 18 17 56 28 24 30 20 18 31 5 6 41 7 8 70 6 6 70 21 14 69 57 43 71 66 47 72 63 48 73 30 23 72 6 8 74 4 4 73 3 5 73 56 46 71 59 45 71 59 47 71 59 45 42 38 29 13 13 13 10 10 10 27 9 9 55 7 7 71 5 6 73 5 4 73 5 4 74 6 5 72 8 8 70 6 6 70 6 6 71 7 7 56 8 8 8 8 8 7 7 5 7 7 7 6 6 8 9 7 8 10 8 9 9 9 9 10 10 10 12 12 12 11 11 11 11 11 11 7 7 7 6 6 6 7 7 7 8 8 8 6 6 4 6 5 3 9 7 8 10 10 10 11 11 11 9 9 9 8 8 8 10 10 10 12 12 12 12 12 12 12 12 12 11 11 11 7 7 7 7 5 6 7 5 6 
48 8 6 49 7 8 14 5 6 27 7 9 70 10 9 73 25 21 74 54 43 73 67 53 75 46 38 74 16 15 73 7 9 72 6 7 73 36 28 72 69 50 72 66 50 71 64 48 75 63 49 71 51 42 72 12 12 74 10 10 71 10 9 71 41 33 71 41 33 71 41 33 72 8 8 33 9 9 71 9 10 69 9 8 72 8 8 72 8 8 71 30 26 71 17 15 72 11 10 74 13 12 70 10 9 71 10 9 73 9 9 73 18 15 73 46 39 74 64 52 72 48 38 73 20 16 70 6 6 69 8 7 71 22 18 70 62 51 70 67 52 72 69 54 74 67 51 71 5 7 73 5 6 74 6 7 72 39 32 72 39 30 73 40 35 73 56 46 73 44 36 46 37 32 34 19 16 58 10 8 71 7 5 74 16 15 72 28 27 73 17 16 74 4 4 74 6 7 74 6 7 72 6 7 62 8 8 38 8 6 9 8 6 8 8 6 7 7 7 8 6 7 10 10 10 9 11 10 10 10 10 12 12 12 14 14 14 12 12 12 10 10 10 9 9 9 5 5 5 6 6 6 5 7 6 5 5 3 4 3 1 6 6 6 11 13 12 12 12 12 10 10 10 7 7 7 9 9 9 10 10 10 11 11 11 13 13 13 10 10 10 8 8 8 8 6 7 7 5 6 
6 6 8 7 7 9 9 7 8 61 7 5 73 9 10 73 51 40 73 66 50 73 67 53 74 68 56 73 29 26 75 7 8 72 6 7 71 34 26 72 65 47 72 63 46 72 63 48 74 56 42 72 38 29 72 11 10 73 9 9 72 8 6 71 5 6 71 7 5 72 6 7 72 7 5 73 9 9 72 8 8 71 5 6 70 6 6 73 9 10 72 29 23 74 29 24 73 30 24 72 17 14 70 10 9 70 8 9 74 18 17 73 44 38 71 63 52 72 62 52 71 64 48 72 42 32 72 6 7 71 7 7 72 14 13 73 46 37 71 63 52 72 45 36 74 45 37 71 6 10 70 6 6 73 5 2 73 5 6 72 7 5 74 10 10 74 33 29 73 19 17 73 34 27 72 23 19 73 9 9 75 7 8 75 38 32 75 69 57 74 47 40 71 20 17 71 5 6 72 6 7 72 8 8 54 8 8 8 8 10 9 8 6 7 7 7 9 9 9 9 11 8 10 10 10 11 9 10 11 11 11 15 15 15 15 15 15 11 11 11 13 13 13 11 11 11 7 7 7 6 6 6 5 5 5 4 4 4 4 4 4 5 5 5 9 9 9 11 11 11 10 10 10 7 7 7 7 7 7 8 8 8 9 9 9 10 10 10 9 9 9 7 7 7 8 6 7 7 5 6 
5 5 5 7 7 7 18 8 9 65 9 8 73 9 9 73 40 31 73 64 49 72 69 52 74 66 53 72 27 22 73 5 6 70 4 5 70 27 20 70 52 38 70 58 42 73 57 44 73 32 26 71 11 10 72 11 10 72 10 11 72 6 7 71 7 7 71 7 7 71 7 7 72 8 8 73 9 9 71 7 7 69 4 2 71 7 7 71 20 17 74 58 45 74 66 53 73 61 47 72 35 29 70 16 14 69 8 7 72 35 27 74 62 48 72 62 50 71 62 47 71 64 48 71 42 34 72 8 8 69 8 7 72 7 5 72 14 12 73 44 36 74 4 4 74 6 7 69 8 7 70 6 7 73 5 4 72 4 5 71 5 6 71 7 7 72 12 12 71 10 9 71 10 7 71 10 9 72 8 6 74 8 9 74 39 33 74 68 56 72 66 54 72 45 38 71 15 14 71 7 7 70 6 4 57 7 8 7 7 7 7 7 7 7 7 9 9 7 8 9 9 9 12 12 12 12 10 11 15 15 15 18 18 18 12 12 12 9 9 9 11 11 11 10 10 10 9 9 9 7 7 7 6 6 6 6 6 6 5 5 5 6 6 6 7 7 9 9 9 9 11 11 11 9 7 8 5 5 5 7 7 7 10 10 10 11 11 11 9 9 9 7 7 7 7 5 6 6 4 5 
7 5 6 6 6 6 48 8 6 67 9 8 73 9 9 73 9 9 73 45 34 73 51 38 72 47 40 70 19 15 72 4 5 70 5 3 70 6 6 71 26 20 71 48 34 73 32 26 73 12 11 72 10 11 70 10 9 71 9 10 70 6 6 72 8 6 72 8 9 71 20 17 71 22 18 72 23 18 73 7 8 71 6 4 71 7 7 71 57 46 75 65 53 72 64 51 68 58 46 72 64 51 71 30 24 72 8 8 71 26 21 71 52 38 70 58 42 71 62 45 74 61 44 73 32 26 73 9 10 71 7 7 72 6 7 72 7 5 73 7 8 74 6 5 72 6 7 72 8 9 71 7 7 73 5 4 75 5 5 71 5 6 72 8 8 74 21 17 71 22 17 71 13 11 72 8 9 74 10 10 74 8 9 74 37 31 74 68 54 71 68 53 73 65 54 71 41 33 70 6 6 71 5 6 55 5 6 7 7 7 7 7 7 6 6 6 8 8 8 9 9 7 11 9 10 15 15 15 16 16 16 12 14 13 9 9 9 9 9 9 9 9 9 7 9 8 7 7 7 7 7 7 7 7 9 6 6 6 6 6 6 5 5 5 5 5 5 7 7 7 10 10 10 10 12 11 7 7 7 6 6 6 10 10 10 12 12 12 9 9 9 9 9 9 7 7 7 6 6 6 
5 5 7 7 7 9 9 9 9 64 8 7 72 8 8 74 8 9 74 8 10 74 5 8 72 4 3 71 6 4 71 5 6 71 5 6 71 7 7 72 7 5 67 7 7 58 10 10 56 10 10 61 10 9 71 7 8 73 9 10 72 8 8 72 8 8 72 29 22 71 62 47 71 62 47 72 63 48 73 22 21 71 10 9 70 6 6 72 45 36 72 63 48 70 62 49 57 49 38 56 47 38 63 22 18 72 7 5 72 6 7 70 25 20 70 43 34 69 45 35 74 31 25 74 8 9 72 6 7 71 7 7 75 7 8 72 6 8 73 5 6 73 5 4 73 5 6 74 6 7 56 6 7 57 6 5 69 5 5 74 6 7 70 19 16 72 56 43 74 67 49 72 33 26 72 17 14 73 7 8 74 8 9 74 37 29 74 66 53 72 66 52 72 64 51 71 41 33 71 5 7 67 5 6 43 4 5 8 7 5 7 7 7 8 8 8 7 7 7 9 9 9 12 12 12 14 14 12 12 12 12 9 7 8 9 9 9 10 10 12 10 8 9 10 8 9 8 8 8 8 8 6 7 7 7 6 6 6 6 6 6 5 5 5 5 5 5 5 5 5 8 8 8 10 10 10 7 7 7 9 9 9 12 12 12 12 12 12 9 9 9 8 8 8 8 8 8 8 8 8 
10 8 9 9 9 11 10 10 10 64 10 8 69 7 8 74 10 8 75 7 8 72 7 5 72 6 7 71 5 6 70 9 8 71 7 7 73 7 8 71 7 8 48 8 8 10 10 10 12 8 9 22 8 8 63 8 5 67 9 8 72 8 9 73 15 13 75 65 53 72 65 49 73 64 49 72 63 48 71 53 39 70 15 12 71 5 6 73 5 4 69 40 32 64 54 44 24 20 17 6 8 5 44 8 8 67 6 5 72 7 5 72 8 8 67 7 7 70 9 8 74 8 9 74 8 9 73 7 8 75 7 8 70 6 6 71 5 6 73 5 6 74 14 14 74 14 14 64 4 4 6 6 6 6 6 6 65 5 5 72 6 7 72 58 45 73 65 52 74 67 51 73 67 53 73 30 24 73 7 8 72 6 7 73 32 26 73 59 48 71 57 46 72 55 45 68 39 31 65 7 6 51 5 5 7 5 6 6 6 6 8 8 8 9 8 6 8 8 8 9 9 9 11 9 10 19 11 9 9 9 9 9 7 8 9 9 9 11 9 10 9 11 10 10 8 9 10 10 10 9 9 9 6 6 6 4 4 4 3 3 3 3 3 3 5 5 5 6 6 6 7 7 7 8 8 8 8 8 8 10 10 10 12 12 12 10 10 10 11 11 11 10 10 10 10 10 10 11 11 11 
10 10 10 10 10 10 11 11 11 66 10 9 72 10 11 73 9 9 74 9 7 72 12 11 73 13 12 71 13 12 72 11 10 72 6 7 72 6 7 71 10 9 49 11 10 8 10 9 9 9 7 8 8 8 7 7 9 19 7 7 63 9 9 74 16 14 74 60 49 71 65 51 73 63 51 71 64 46 71 11 11 70 10 10 71 7 7 70 4 5 70 4 6 29 3 4 5 5 5 6 6 6 6 6 6 47 5 6 71 7 7 70 10 9 70 10 9 71 11 10 73 15 14 74 13 12 73 9 10 73 9 10 69 7 8 69 8 7 74 16 15 73 69 57 71 68 53 6 4 5 6 6 6 16 7 8 64 8 9 69 8 7 71 55 40 73 66 50 71 68 53 73 61 49 71 26 21 73 9 9 71 7 7 73 7 8 71 7 7 72 6 7 73 7 8 47 7 7 7 7 5 5 5 5 6 6 6 6 6 6 6 6 6 8 6 7 9 8 6 8 8 8 18 14 11 66 8 7 10 10 10 9 9 9 8 8 8 9 9 9 11 11 11 10 10 10 10 10 10 8 8 8 6 6 6 4 4 4 3 3 3 2 2 2 6 6 6 7 7 7 9 9 9 9 9 9 12 12 12 11 11 11 11 11 11 11 11 11 12 12 12 12 12 12 12 12 12 11 11 11 
10 10 10 9 11 8 12 12 12 66 10 9 75 11 11 73 9 10 72 6 8 72 48 38 73 61 47 75 65 53 73 34 29 74 10 10 70 6 4 68 29 22 45 34 28 9 9 9 9 9 9 9 9 9 8 8 8 10 8 9 17 9 7 64 8 7 63 15 13 69 56 47 70 52 40 71 54 44 73 12 11 72 11 10 70 9 8 71 5 6 71 5 6 70 5 3 30 6 4 12 6 6 12 6 6 52 6 6 72 6 7 70 8 9 72 14 12 72 35 29 74 66 53 73 49 39 73 18 15 71 13 11 73 9 9 70 10 9 72 16 15 72 70 55 70 67 50 14 13 9 12 14 13 73 9 9 73 9 9 71 7 5 72 49 35 74 62 46 74 62 50 74 23 22 72 8 8 72 8 8 72 8 8 73 7 11 73 9 9 72 8 8 72 8 9 52 8 9 13 9 8 9 7 10 6 6 8 7 7 9 8 6 9 9 7 10 9 9 7 8 8 6 64 52 40 9 9 11 10 10 8 9 9 7 9 9 9 10 10 10 11 9 10 10 10 12 10 10 12 9 9 9 6 6 4 5 5 5 4 4 6 5 5 7 6 6 6 7 7 7 9 9 9 10 10 10 13 13 13 11 11 11 9 9 9 10 10 10 10 10 10 13 13 13 12 12 12 10 10 10 
11 9 10 11 11 11 11 11 9 65 11 11 71 10 9 74 8 9 73 7 8 71 47 35 72 60 46 74 64 52 76 70 58 74 39 33 70 6 7 69 9 9 50 10 11 9 9 9 7 7 9 9 9 9 9 9 9 8 10 9 10 8 9 9 9 9 18 9 10 71 13 12 70 12 11 73 8 12 71 11 10 72 10 11 70 8 9 73 7 8 70 6 6 70 4 5 71 5 6 71 5 6 71 7 7 71 5 6 73 7 8 72 8 8 71 34 28 74 61 52 74 66 53 73 69 57 73 67 55 71 46 39 73 9 9 74 12 13 72 21 18 72 69 50 71 65 49 71 65 51 71 68 51 75 11 11 73 11 12 71 11 10 70 10 10 74 52 41 73 24 19 75 9 10 72 8 8 73 9 9 73 7 8 73 7 8 71 10 9 72 10 11 70 8 9 72 8 9 49 9 9 9 9 9 8 6 9 6 6 4 9 9 9 8 10 9 8 8 6 9 9 9 9 7 8 10 10 10 10 10 10 10 10 10 10 10 10 11 9 10 10 10 10 10 10 10 11 11 11 9 9 9 7 7 7 7 7 7 6 6 6 6 6 6 7 7 7 8 8 8 11 9 10 10 8 9 9 9 9 8 8 8 7 7 7 6 6 6 9 9 9 13 13 13 11 11 11 9 9 9 
9 9 9 9 11 10 68 10 9 72 8 9 74 10 11 70 9 6 75 11 11 73 46 37 72 60 44 72 64 51 73 67 53 73 38 32 70 8 9 70 9 8 50 10 11 11 11 11 11 9 10 11 9 10 8 8 10 9 9 9 7 7 7 7 6 4 9 9 9 14 14 12 74 14 14 71 11 10 73 13 13 70 10 10 70 6 7 72 6 7 72 6 7 72 4 5 71 47 37 69 60 45 71 28 22 71 5 6 70 6 6 71 5 6 69 34 28 70 62 49 72 66 52 76 68 57 71 51 44 69 9 8 72 10 11 74 12 13 73 19 17 71 68 49 72 65 49 73 66 50 73 9 9 75 11 12 73 13 13 75 13 14 73 13 13 74 10 11 74 8 9 74 8 9 72 8 8 72 8 9 73 7 8 71 7 7 70 9 8 72 37 31 72 65 49 71 42 34 47 7 8 8 6 7 7 5 6 6 6 6 8 7 5 9 9 9 8 8 8 9 7 8 10 10 10 8 10 7 9 9 11 10 10 10 10 10 10 10 10 10 10 10 8 11 11 11 10 10 12 8 8 8 6 6 6 6 6 6 5 5 5 6 6 6 6 6 6 7 7 7 8 6 7 9 7 8 6 6 6 7 7 7 7 7 7 7 7 7 9 9 9 10 10 10 10 10 10 8 8 8 
8 8 8 71 64 46 70 61 46 72 14 12 73 9 10 71 10 9 74 10 11 72 48 36 74 60 47 73 64 49 72 29 23 70 9 8 70 9 8 72 8 9 48 8 9 10 10 10 9 9 9 10 10 8 10 10 10 8 8 8 9 5 6 6 4 5 9 7 8 11 11 11 15 14 12 72 12 12 71 11 11 70 8 9 70 6 7 70 6 6 69 5 6 69 45 35 70 61 46 71 62 47 71 59 47 71 26 21 72 6 7 67 6 5 64 31 22 69 57 43 72 63 48 70 63 47 71 49 38 72 8 9 73 9 10 71 10 9 74 9 7 72 7 5 71 7 7 71 7 8 74 10 10 73 9 9 72 10 11 72 8 8 72 6 7 72 6 7 72 6 7 73 9 9 73 9 9 73 7 8 74 6 7 72 4 5 70 6 6 70 36 27 71 64 48 69 61 50 71 63 50 55 51 40 6 6 6 6 6 6 6 4 7 5 5 5 8 8 8 9 7 8 9 7 8 8 8 8 10 10 12 10 8 9 9 9 9 12 10 11 12 12 10 15 13 14 10 10 10 6 6 6 5 5 5 4 4 4 4 4 4 4 4 4 5 5 5 6 6 6 6 4 5 8 6 7 8 8 8 8 8 8 7 7 7 7 7 7 8 8 8 6 6 6 7 7 7 10 10 10 
73 64 49 70 67 50 70 63 47 73 15 13 75 11 11 73 12 11 72 11 10 73 45 34 72 60 44 73 64 47 73 28 22 72 8 9 74 8 9 73 9 9 50 10 10 10 10 10 10 10 10 10 10 8 9 9 9 8 8 8 5 7 6 5 5 5 6 6 6 8 8 10 11 11 11 11 11 11 9 9 11 64 9 4 71 6 4 71 5 6 70 4 5 70 46 34 70 61 44 68 59 42 70 58 44 71 26 21 70 8 9 70 8 9 69 8 7 72 27 22 74 62 48 70 60 48 72 48 38 71 10 9 73 9 9 73 7 8 74 5 8 72 6 7 71 7 5 72 8 8 71 5 6 73 5 6 72 6 8 70 9 8 72 6 8 72 6 7 72 45 36 70 58 44 70 61 46 74 26 22 72 6 7 70 6 6 72 35 27 72 65 49 71 64 48 73 63 51 72 64 51 55 48 38 6 6 6 6 6 6 7 6 4 9 7 10 8 8 10 8 8 8 6 4 5 9 12 5 9 9 9 10 10 10 9 9 9 11 11 11 13 13 13 12 12 10 10 10 10 6 6 6 5 5 5 4 4 4 4 4 4 5 5 5 6 6 6 6 6 6 7 5 6 7 7 7 7 7 7 8 8 8 7 7 7 7 5 6 7 7 7 5 5 5 7 5 6 10 10 10 
74 62 46 74 64 52 72 60 48 73 15 13 73 9 9 73 11 12 73 12 11 72 14 13 72 16 15 74 16 15 71 11 10 70 9 8 73 9 10 72 11 10 49 9 10 8 10 9 10 10 8 10 10 10 9 9 9 9 8 6 8 7 5 4 4 4 6 6 6 9 9 7 10 9 7 11 11 9 11 11 13 65 48 38 74 14 14 70 6 6 69 5 5 72 46 33 71 58 42 72 56 41 70 57 41 71 28 21 71 9 10 71 9 10 69 8 7 71 12 8 73 13 12 72 14 13 73 13 12 72 8 8 73 9 9 74 6 7 74 6 7 74 8 9 72 6 7 72 6 7 71 57 46 70 6 6 73 5 6 72 6 7 71 7 7 72 39 30 73 51 37 70 59 41 71 62 45 71 28 21 71 7 7 68 6 7 71 34 26 74 65 48 72 65 49 73 65 52 70 46 36 54 13 9 6 6 6 8 8 8 9 9 7 9 7 8 7 7 7 7 7 7 6 6 6 8 8 8 10 10 8 10 10 10 7 7 7 8 8 8 11 11 9 8 8 8 8 8 8 7 7 7 6 6 6 5 3 4 5 5 5 6 6 6 7 5 6 8 8 8 8 8 8 10 8 9 9 9 11 6 6 8 8 6 7 7 5 8 6 6 6 8 8 8 8 8 8 8 8 8 
73 15 13 70 14 13 72 12 11 72 6 7 72 8 8 74 10 10 73 11 12 71 11 11 70 8 9 73 9 9 72 8 8 71 7 5 72 6 7 43 9 8 32 8 8 66 7 9 45 9 9 10 8 9 8 8 8 9 8 6 8 6 7 7 7 9 9 9 11 9 9 7 10 10 8 11 11 11 14 12 13 19 18 14 64 8 9 67 6 5 71 7 7 70 11 7 70 14 13 68 40 28 72 27 22 71 11 10 72 11 10 70 10 10 69 9 9 71 7 8 72 6 7 73 7 8 74 8 9 73 9 9 72 11 10 73 9 10 73 9 9 72 8 8 70 6 6 72 59 51 72 66 54 68 55 39 72 12 11 70 6 4 71 7 7 70 42 31 70 54 39 27 24 19 14 13 11 51 10 8 71 7 7 68 8 7 70 10 9 71 13 9 72 33 28 72 45 36 71 10 9 56 6 5 6 6 6 8 6 7 8 8 8 8 8 8 8 8 8 8 8 6 7 7 5 8 8 8 10 10 8 10 10 10 7 7 7 6 6 6 7 7 5 7 7 5 7 7 7 8 8 8 4 4 4 4 4 4 8 8 8 7 7 7 7 7 7 9 9 9 7 7 7 9 9 9 8 8 8 7 7 7 6 6 4 6 6 4 5 5 5 8 8 6 9 9 9 7 7 7 
71 7 7 71 7 7 74 6 3 72 6 7 73 9 9 74 10 10 74 9 13 30 10 11 17 8 9 52 8 9 73 9 7 43 4 5 14 6 4 36 6 6 67 7 7 71 10 9 67 24 18 62 49 40 49 40 31 9 7 10 7 7 9 10 8 9 10 10 8 10 8 9 10 10 10 9 11 10 12 12 12 12 12 10 64 10 10 71 5 7 71 7 5 70 8 9 73 9 9 71 10 9 70 9 8 72 6 7 71 10 9 69 7 8 68 6 7 68 6 7 72 6 7 51 7 8 18 10 8 33 11 13 73 11 12 70 10 10 72 10 11 72 14 12 70 52 38 72 69 54 73 70 55 70 61 46 72 12 11 73 7 8 70 8 9 70 10 9 25 14 10 11 10 8 7 7 5 8 6 7 13 8 5 43 8 6 71 7 7 72 8 6 71 11 10 72 11 10 71 7 7 70 4 5 46 6 4 6 6 6 7 5 8 8 8 6 8 6 7 9 9 9 7 7 5 7 7 7 11 11 11 7 7 7 5 5 5 7 7 7 5 5 5 7 7 5 7 7 7 6 6 6 4 4 4 4 4 4 5 5 5 7 5 6 9 9 9 10 10 10 11 9 10 7 7 7 8 6 7 7 5 6 6 6 6 6 6 6 5 5 5 10 8 9 11 10 8 63 7 6 
75 7 6 72 8 8 70 9 8 73 9 10 72 10 11 72 10 11 70 10 9 25 9 9 9 9 9 51 32 28 44 23 20 14 5 6 29 26 21 63 28 22 71 7 7 71 7 7 58 14 13 25 20 17 20 19 15 11 9 10 10 8 9 10 10 8 10 10 10 9 9 7 7 7 5 8 8 8 11 9 10 11 11 11 63 9 9 71 5 6 73 7 8 72 10 11 72 12 12 71 10 9 71 9 10 73 9 10 73 9 10 72 8 9 71 7 5 71 7 7 71 20 17 47 34 26 20 19 17 59 49 39 70 37 30 69 13 12 72 48 36 73 51 40 72 60 46 70 67 48 70 67 48 69 59 47 71 13 11 70 6 4 70 6 7 70 9 8 59 9 8 20 8 8 9 7 10 8 8 6 8 8 8 39 7 8 70 9 8 70 8 9 72 11 10 74 10 10 74 8 9 59 8 7 22 8 7 10 8 9 10 8 9 8 8 8 8 8 8 8 8 8 10 8 11 8 8 10 8 8 8 5 5 5 6 6 6 7 7 7 6 6 6 5 5 5 7 7 7 7 7 7 5 5 5 7 5 6 6 6 6 8 8 8 10 8 9 10 10 10 11 11 11 7 7 7 4 4 6 5 5 5 8 6 7 7 7 7 8 8 8 11 9 10 10 10 10 70 9 8 
74 6 7 73 8 6 74 9 7 73 46 39 72 18 16 71 10 9 70 9 8 61 10 9 57 9 9 68 41 34 33 28 24 7 7 9 17 13 12 24 14 12 39 8 6 71 7 7 46 6 6 8 8 10 9 9 11 9 9 9 9 9 7 10 10 10 10 10 10 8 10 9 7 7 9 7 7 9 7 7 7 8 9 4 62 6 7 69 5 5 71 7 7 74 10 11 73 13 13 73 17 16 72 16 15 74 37 31 71 30 26 72 7 5 71 7 7 68 7 6 69 25 22 62 54 41 58 55 40 71 64 48 70 48 37 70 16 14 72 60 46 72 60 44 72 58 45 69 60 45 72 60 44 68 59 44 71 13 11 70 4 5 71 7 8 72 8 9 70 10 10 61 10 9 29 9 10 9 9 9 9 9 9 41 10 8 72 8 8 71 11 11 57 11 11 27 11 12 27 11 12 27 13 13 12 12 12 12 12 12 11 11 11 9 9 9 9 9 9 9 9 9 8 8 8 8 8 8 6 6 6 5 5 5 7 7 7 7 7 7 7 7 7 5 5 5 6 6 6 9 9 9 7 7 7 6 6 6 7 7 7 8 8 8 11 11 11 12 12 12 11 11 11 5 5 5 4 4 2 5 5 5 7 7 7 5 5 7 9 7 8 16 12 11 56 12 11 72 8 8 
75 7 8 74 10 10 75 45 37 75 69 57 73 53 42 70 19 15 71 7 7 73 9 10 73 9 10 73 42 37 62 53 44 57 50 42 31 30 25 8 8 8 16 8 6 21 5 6 15 6 7 6 6 6 7 7 7 7 9 8 9 9 11 10 10 10 11 11 9 10 8 9 7 7 7 6 6 6 8 6 7 7 6 4 63 7 8 70 6 6 70 6 6 71 9 10 74 14 14 75 40 34 75 57 45 74 64 52 71 57 44 72 27 22 71 7 7 70 9 8 70 25 20 70 58 42 69 62 46 71 62 47 72 48 38 70 12 10 71 22 17 71 22 18 70 22 18 71 22 18 73 19 17 71 20 17 73 7 8 71 5 6 71 7 7 72 8 8 69 8 7 72 8 9 34 10 10 11 9 10 11 9 10 20 10 11 26 10 11 26 10 11 19 10 11 10 10 10 10 10 10 13 13 13 12 12 12 9 9 9 10 10 10 12 12 12 10 10 10 9 9 9 8 8 8 7 7 7 7 7 7 5 5 7 6 6 6 8 8 8 7 7 7 5 5 5 7 7 7 8 8 8 9 7 8 7 7 7 6 6 6 8 6 7 10 10 10 11 11 11 11 9 10 4 4 4 4 4 2 6 8 5 6 6 6 7 7 7 10 8 9 21 11 12 74 10 10 68 8 7 
74 8 10 74 47 38 74 61 53 74 66 53 73 65 52 72 21 17 72 7 5 74 10 10 74 8 9 73 24 20 74 52 41 73 65 52 40 35 29 9 7 8 8 8 8 7 7 7 7 7 7 7 7 7 9 8 6 8 8 8 10 8 9 9 9 9 10 10 10 8 10 9 7 7 7 9 9 7 8 6 7 8 6 7 63 36 27 70 8 9 69 8 7 71 7 8 73 13 13 73 46 37 73 67 53 73 67 55 69 63 49 68 33 27 69 8 7 69 7 8 72 12 11 71 38 31 71 59 45 73 61 47 71 47 35 71 9 12 74 8 9 69 9 9 69 9 9 71 10 9 71 10 9 68 8 8 72 8 8 71 6 4 72 6 7 70 6 7 69 8 7 71 9 10 35 11 9 11 11 11 11 10 8 11 11 11 12 11 9 11 9 10 10 10 10 11 9 10 10 10 10 10 12 11 12 10 13 10 10 10 10 10 10 11 11 11 13 11 12 9 9 9 7 7 5 7 7 5 8 8 8 6 6 6 7 7 7 8 8 8 6 6 8 8 8 8 8 8 8 8 8 8 8 8 8 7 5 6 6 6 6 6 6 6 8 8 8 10 10 10 10 10 10 6 6 6 4 4 4 6 6 6 6 6 6 6 6 8 10 10 10 22 13 14 73 9 7 66 8 7 
72 11 10 74 68 56 73 65 54 72 63 48 72 62 50 71 20 16 73 7 8 74 8 10 71 10 9 74 10 11 73 25 21 70 29 25 39 18 13 7 7 9 7 7 7 8 8 8 8 8 8 9 7 8 9 9 9 10 8 9 11 9 10 9 9 9 10 8 11 9 9 11 7 9 8 7 7 7 7 7 9 6 6 4 63 53 43 72 44 33 70 15 12 67 9 8 70 8 9 71 40 35 70 62 49 71 65 51 70 62 49 72 35 27 71 7 7 71 7 7 70 6 6 72 14 13 72 27 22 72 27 22 69 24 18 70 9 8 69 8 7 69 7 8 71 9 10 71 10 9 69 9 8 71 11 10 73 9 9 71 7 7 71 7 7 68 7 6 71 7 7 73 39 30 58 45 36 26 25 23 12 12 12 10 10 10 10 10 10 10 10 10 9 9 9 10 10 10 10 10 8 10 10 8 10 9 7 9 7 8 9 9 9 10 8 9 11 10 8 9 9 11 8 6 7 7 7 7 9 9 9 8 8 8 10 8 9 6 6 6 6 6 6 8 8 8 8 8 8 10 8 9 8 6 7 6 6 6 6 6 8 8 8 8 10 10 8 11 9 10 9 9 9 8 8 6 6 6 6 7 6 4 7 7 7 7 7 7 10 10 12 14 10 11 30 9 8 31 7 5 
74 10 10 72 31 27 72 60 48 70 62 49 72 59 50 71 20 17 73 7 8 74 10 11 72 11 10 73 9 9 74 10 10 72 8 8 40 6 7 6 6 6 8 8 6 9 9 9 9 9 9 9 9 9 9 9 9 9 9 7 9 9 9 9 9 11 10 10 10 9 11 10 12 8 9 6 6 4 6 6 6 6 6 6 63 53 44 71 61 49 70 21 17 70 8 9 69 8 7 72 21 18 71 48 40 72 62 50 72 44 40 71 17 15 71 7 7 70 9 8 72 8 8 71 7 8 71 5 7 70 6 6 69 7 8 71 9 10 72 8 8 71 5 6 69 7 8 70 10 10 71 10 9 69 41 30 71 43 32 72 12 11 71 5 6 70 4 5 71 7 8 70 22 20 71 51 40 35 32 27 13 11 12 10 10 10 9 8 6 7 7 7 9 7 8 8 8 10 10 10 10 10 10 10 11 9 10 10 10 10 9 9 9 9 7 10 9 9 9 8 8 8 8 6 9 7 7 7 8 8 8 12 12 12 11 11 11 8 8 8 6 6 6 10 10 10 10 10 10 11 11 11 8 8 10 6 6 6 6 6 8 10 8 9 9 9 9 8 8 10 12 8 9 9 9 9 9 9 9 8 8 8 9 7 8 8 8 8 9 9 9 7 7 7 9 9 9 5 5 5 
43 11 12 72 10 11 72 33 26 71 32 25 72 33 28 72 12 11 73 9 9 74 10 11 72 11 10 73 9 9 73 9 9 75 7 8 40 4 4 6 6 6 8 8 8 9 9 9 10 10 10 9 9 9 9 9 7 8 8 8 9 9 9 8 8 8 9 9 11 11 11 11 9 9 7 6 6 4 5 5 5 5 5 5 61 51 41 71 59 47 72 39 30 71 13 11 47 7 8 58 6 8 72 24 20 72 35 29 71 20 17 73 7 8 71 10 9 72 8 8 72 6 7 70 6 6 71 7 7 72 6 7 70 9 8 72 10 11 70 9 8 69 7 8 69 9 8 69 8 13 72 10 11 71 62 47 71 62 47 72 40 27 72 8 8 73 5 6 69 5 5 72 8 9 74 44 36 54 47 37 22 21 19 10 10 10 6 6 4 5 5 5 5 5 5 8 8 8 9 9 9 11 11 9 12 10 11 13 11 12 12 10 11 9 9 9 7 7 5 8 6 7 10 8 11 11 7 8 11 11 11 12 12 12 12 12 12 9 9 9 6 6 6 8 8 8 8 8 8 8 8 8 9 7 8 6 6 6 7 5 6 8 8 8 10 8 9 8 8 8 9 9 7 11 9 10 10 8 11 7 7 7 9 9 9 9 7 8 7 7 7 7 7 7 9 9 9 5 5 5 
13 12 10 41 9 10 68 8 8 71 7 7 71 5 6 72 6 7 72 8 8 73 9 10 71 9 10 74 10 10 75 11 11 74 23 20 40 22 18 8 6 7 9 9 9 9 9 9 9 9 9 9 9 9 9 9 9 9 11 10 8 8 8 7 7 5 9 7 8 11 11 11 13 12 10 39 9 9 40 31 26 37 30 20 66 54 42 71 37 27 70 54 41 47 19 16 16 6 5 27 7 8 42 8 9 58 8 7 71 7 8 72 8 8 72 8 8 72 8 8 71 7 7 70 6 6 70 4 5 71 13 12 71 34 25 72 34 25 71 7 7 70 8 9 68 8 8 39 9 7 42 12 12 73 64 49 70 63 45 71 64 46 72 12 11 73 5 4 72 6 7 73 9 9 74 26 24 73 36 30 33 19 16 9 9 9 7 7 7 6 4 7 7 7 7 7 7 7 9 9 9 11 11 11 13 11 12 14 12 15 16 14 15 12 12 10 7 7 7 8 8 8 7 7 7 10 8 11 13 11 12 13 13 13 12 12 12 9 9 9 8 8 8 8 6 7 8 8 8 8 8 8 7 7 7 7 7 7 6 6 6 7 7 9 8 8 8 9 9 7 9 9 9 20 8 8 40 8 9 30 9 8 8 8 8 7 7 7 8 6 7 7 9 8 9 9 9 5 5 7 
13 11 12 9 9 9 63 7 6 72 8 8 72 6 7 72 7 5 74 8 10 73 11 12 72 10 11 73 11 12 72 11 10 74 40 31 42 39 32 12 10 11 10 10 10 10 10 10 10 10 10 9 9 9 8 8 10 8 8 6 8 8 8 7 7 7 8 8 8 12 12 12 44 14 12 72 10 11 71 34 26 71 32 25 71 30 24 71 11 10 70 46 36 22 21 17 8 6 7 7 7 7 8 6 7 48 9 10 71 22 18 70 36 27 71 22 17 71 7 7 71 7 8 69 8 7 72 14 13 70 37 30 70 63 47 72 62 50 72 35 29 71 10 9 71 7 8 40 8 9 41 11 9 73 61 45 71 64 46 69 66 47 72 12 11 71 5 7 74 8 9 74 10 10 71 9 10 72 11 10 34 10 8 8 8 6 6 6 6 7 5 8 5 5 5 6 6 6 7 9 8 8 8 10 10 10 10 13 13 13 16 16 16 14 16 15 9 9 9 10 8 9 44 39 33 13 9 10 13 11 12 11 11 11 9 9 9 9 9 9 8 8 8 7 5 6 7 7 7 8 8 8 7 7 7 7 7 5 6 6 6 6 6 6 8 7 5 8 8 8 20 8 8 51 10 8 73 9 10 57 9 9 8 6 7 8 6 7 9 9 9 8 8 8 8 8 6 6 6 6 
35 11 9 34 8 9 68 7 6 72 6 7 72 25 17 72 27 21 72 12 12 74 12 13 72 12 11 71 11 10 72 10 11 74 39 33 41 40 35 11 11 11 11 9 10 12 12 12 13 13 13 11 9 10 7 7 7 5 7 4 5 7 6 7 7 7 9 9 9 10 12 11 49 10 11 47 11 13 50 10 10 69 8 7 73 7 8 72 8 8 72 29 23 22 17 14 7 7 7 7 6 4 25 7 5 55 21 19 72 45 36 71 62 47 71 44 33 71 20 17 72 6 8 68 7 6 70 21 16 71 62 47 70 66 54 71 67 55 72 58 47 73 9 9 69 7 8 71 9 10 71 11 11 70 40 29 72 42 32 71 45 32 70 9 8 71 7 8 73 9 9 72 11 10 71 9 10 56 10 10 24 10 9 7 7 5 6 6 8 5 5 5 6 6 6 5 5 3 7 7 5 7 7 7 7 7 7 11 11 11 17 15 16 14 14 12 10 10 10 11 9 10 49 44 38 11 11 11 12 12 12 10 10 10 9 9 9 9 9 9 8 8 8 7 7 7 7 7 7 8 8 8 8 8 8 7 7 7 6 6 6 7 5 6 6 6 6 7 7 7 24 8 9 47 8 9 48 8 8 40 8 9 8 6 7 7 9 8 9 9 9 9 9 7 9 9 7 7 5 6 
73 13 13 73 7 8 72 4 3 72 23 19 71 58 42 70 63 47 72 39 32 71 13 11 71 11 11 71 11 11 73 11 12 62 28 26 30 29 25 11 11 11 12 12 12 14 14 14 16 14 15 12 12 12 6 6 6 6 6 6 8 7 5 9 7 8 9 9 9 10 8 11 8 8 8 7 9 8 9 11 10 64 8 7 71 7 7 72 4 5 70 4 5 40 4 4 31 7 7 31 7 5 55 7 5 71 38 33 70 57 48 71 59 45 69 62 43 71 41 31 70 6 7 69 5 6 69 21 17 71 64 48 71 68 53 73 66 50 71 53 41 70 9 8 71 10 7 72 10 11 72 10 11 72 8 8 71 7 7 72 4 5 70 4 5 73 7 8 70 9 8 73 9 10 71 10 9 31 10 9 9 8 6 7 7 7 4 6 5 6 4 5 6 6 6 7 7 7 7 5 6 6 6 6 8 8 8 10 10 10 13 13 13 13 13 15 12 11 9 10 12 11 12 10 11 12 12 12 10 10 10 10 10 10 9 9 9 7 7 7 7 7 7 8 8 8 9 9 9 9 9 9 9 9 9 9 8 6 9 5 4 5 5 5 6 6 6 7 7 7 8 8 8 9 9 9 10 8 9 8 8 8 8 8 8 8 8 6 9 9 9 12 10 13 8 10 9 5 5 5 
71 11 10 72 8 8 72 4 5 69 52 42 69 60 43 71 59 47 70 62 49 71 22 18 73 9 9 71 11 10 59 10 13 30 10 9 10 10 10 12 12 12 14 14 14 15 15 15 18 16 17 14 14 14 8 10 9 7 7 7 8 8 8 9 9 9 10 8 9 10 8 9 10 9 7 9 7 10 9 9 9 43 9 8 69 26 20 74 26 22 71 26 23 70 29 23 71 11 10 72 8 6 72 6 8 71 38 29 69 57 45 68 56 40 70 59 41 71 41 31 70 6 7 67 7 6 69 13 12 70 43 32 68 44 32 71 43 32 71 37 27 71 10 9 71 9 10 70 9 8 71 7 8 70 10 12 70 9 8 72 6 8 71 5 6 71 7 7 73 9 9 72 10 11 72 11 10 33 9 9 8 8 8 7 7 5 6 4 5 6 6 6 7 7 9 8 8 8 8 8 10 8 8 8 8 10 9 11 11 11 10 8 9 9 9 9 12 10 11 11 11 11 11 9 10 12 12 12 13 13 13 11 11 11 11 9 10 7 7 7 7 7 7 9 9 9 11 11 11 11 9 10 10 10 10 7 7 7 6 6 6 5 5 5 6 6 6 8 7 5 8 8 6 7 9 8 9 9 7 8 8 8 9 9 9 7 7 7 8 8 8 10 10 12 11 11 11 5 5 5 
73 9 9 74 6 7 71 5 6 70 43 32 72 56 41 71 59 47 72 52 41 73 19 17 72 10 11 75 11 11 35 11 11 11 11 11 13 11 12 13 11 12 12 12 12 14 14 14 13 14 16 13 13 13 10 10 10 9 9 9 10 10 12 11 13 12 10 9 7 9 9 7 9 9 9 11 9 12 8 8 8 9 9 9 64 54 42 72 62 50 74 61 52 71 54 44 74 20 18 70 9 8 73 7 9 71 34 26 69 52 42 69 57 43 69 50 36 71 28 22 70 6 7 69 7 8 70 8 9 69 9 9 65 9 8 69 9 9 71 7 7 72 8 9 71 10 9 72 8 9 71 7 7 72 10 13 72 11 10 70 14 13 70 16 14 73 9 10 72 10 13 61 11 12 56 10 10 27 12 9 10 12 11 9 9 9 7 7 7 7 7 7 8 8 10 9 7 8 12 12 12 11 11 11 9 9 7 8 8 8 6 6 8 10 8 9 11 11 11 13 13 13 9 9 9 12 12 12 13 15 14 12 10 11 11 11 11 10 8 9 9 9 9 10 8 11 11 11 11 9 11 10 10 9 7 8 6 7 6 6 8 6 6 8 6 6 6 7 6 4 7 7 5 6 8 7 6 8 7 7 7 5 9 9 7 9 9 7 11 9 10 11 11 11 9 9 9 6 6 8 
73 9 9 71 7 8 73 8 6 71 7 7 70 41 33 71 44 33 71 17 15 58 8 7 56 10 12 59 11 11 28 12 13 14 12 13 14 14 14 12 12 12 11 11 11 12 10 11 9 9 7 11 11 9 10 10 10 10 10 10 12 12 12 12 12 14 10 10 10 9 9 9 9 9 11 10 10 10 11 9 10 7 7 7 64 55 46 72 62 50 71 61 51 74 33 27 73 13 12 72 8 8 71 7 7 71 5 6 71 26 21 71 44 35 70 25 20 71 7 7 70 8 9 69 9 9 71 10 9 65 9 8 64 10 8 74 10 11 73 9 7 71 9 10 70 9 8 72 8 8 71 7 7 72 12 12 73 22 18 70 58 44 69 62 44 70 31 24 61 15 15 23 12 10 10 12 11 12 12 12 11 11 13 11 11 9 8 8 8 9 7 8 9 9 11 11 11 11 12 12 12 12 11 9 9 9 9 7 5 6 7 7 7 9 9 9 12 12 12 10 10 10 10 10 10 13 11 12 11 11 11 10 9 7 11 11 11 10 10 10 11 9 10 11 9 10 10 10 10 11 11 9 9 9 9 7 7 7 6 6 6 7 7 7 6 6 6 6 6 6 5 7 6 7 7 5 6 4 5 6 6 6 9 8 6 9 9 9 9 9 9 11 11 11 9 9 9 6 6 6 
73 9 10 71 10 9 71 10 9 70 9 8 71 7 7 71 7 7 59 8 7 19 7 9 10 8 9 11 11 11 13 13 13 13 13 11 12 12 12 8 10 9 8 8 8 7 7 7 9 8 6 9 7 8 10 10 10 10 10 10 12 12 12 13 13 15 9 9 9 8 8 10 9 9 7 10 10 10 8 8 8 7 5 6 63 55 44 69 61 50 71 61 49 73 54 47 71 20 19 73 7 9 72 8 9 70 6 6 70 4 5 72 8 9 70 8 9 71 10 9 67 9 8 55 9 9 56 10 10 66 10 9 71 13 12 72 22 21 72 23 18 71 22 18 72 8 9 72 6 7 71 7 7 74 10 11 75 58 48 72 59 50 69 60 43 69 60 45 27 24 19 11 11 11 11 11 11 11 11 13 10 10 10 10 10 10 9 9 9 8 8 8 8 8 8 12 12 12 13 11 12 11 11 11 8 8 8 7 7 5 9 9 9 8 8 8 10 11 6 11 11 11 11 11 11 11 11 11 9 7 8 7 7 5 9 9 9 12 12 12 13 11 12 14 12 15 12 10 11 9 7 8 7 7 7 9 7 8 8 7 5 7 5 6 7 5 8 5 5 7 5 5 5 4 6 5 6 6 6 5 7 6 8 8 8 9 9 9 8 10 9 10 10 10 8 8 10 6 6 6 
73 7 9 71 10 9 72 11 10 70 10 10 70 9 8 69 8 7 24 8 9 7 7 7 8 8 8 11 11 11 13 11 12 11 11 11 8 8 8 7 7 5 9 9 7 9 9 9 9 7 8 13 9 6 14 10 9 12 10 11 14 12 13 15 14 12 10 10 10 8 8 8 10 8 9 9 8 6 7 7 9 5 7 6 62 48 39 70 53 45 70 53 43 72 23 19 73 9 10 73 9 9 73 7 8 72 6 7 68 4 4 71 7 7 70 8 9 73 9 10 49 9 9 11 11 11 20 10 9 58 8 9 69 24 21 73 66 50 73 63 51 69 49 40 72 14 13 71 9 10 70 8 9 73 8 6 73 60 51 69 63 51 69 60 43 72 60 44 26 22 19 11 9 10 12 10 11 11 9 10 10 10 10 8 8 8 9 9 9 8 8 10 10 10 10 10 10 10 11 11 11 11 11 11 8 8 8 10 10 10 9 11 10 8 8 8 11 11 11 12 10 11 12 12 12 10 10 10 9 7 8 8 8 8 9 9 9 11 11 13 11 11 11 14 14 14 20 12 10 17 7 8 17 8 9 13 9 8 10 8 9 6 6 6 5 5 5 5 5 5 5 5 5 6 5 3 5 5 5 6 6 6 9 7 8 8 8 8 7 7 7 9 7 8 7 7 9 14 6 4 
73 9 9 71 10 9 72 11 10 72 11 10 70 10 10 71 15 14 25 9 9 10 10 10 9 9 9 12 10 11 12 10 11 10 10 10 8 8 8 9 9 9 13 11 12 17 17 17 17 13 12 28 8 9 59 10 13 11 11 11 12 12 12 12 14 13 11 11 11 10 12 11 10 10 10 8 8 8 6 6 6 6 8 7 64 8 9 70 10 10 71 9 10 72 10 11 72 11 8 74 10 10 73 9 9 71 7 7 72 6 7 70 9 8 71 13 12 73 15 14 50 12 11 14 10 11 14 10 9 14 10 9 30 25 19 72 65 49 72 62 50 69 55 42 71 55 42 71 11 11 71 7 7 74 4 6 73 53 44 72 66 52 71 64 46 66 54 40 25 22 17 10 10 10 10 10 10 9 9 9 8 8 8 8 8 10 8 8 8 8 8 6 9 9 9 11 9 12 14 10 9 14 9 6 9 9 7 9 9 9 8 10 9 11 11 13 12 12 12 13 11 12 9 9 7 10 10 10 8 8 8 7 7 7 10 10 10 10 10 10 10 10 8 12 12 12 58 12 12 72 11 10 71 11 11 35 11 9 9 9 9 6 6 6 5 5 5 5 5 5 4 4 2 5 5 3 5 5 5 8 8 8 9 9 9 9 9 9 8 8 10 8 6 7 8 6 7 70 9 8 
74 10 10 70 9 8 71 11 10 72 12 11 72 12 14 73 48 41 28 25 20 10 10 10 10 10 10 8 8 8 10 10 10 10 10 8 9 9 9 12 10 11 16 14 17 37 34 29 66 43 35 65 9 8 53 11 12 10 10 10 12 11 9 12 12 12 13 13 13 12 12 12 12 10 11 8 8 8 5 5 7 8 8 10 64 10 10 72 11 10 72 18 16 73 20 16 73 12 11 72 10 11 73 9 9 72 8 6 72 11 8 72 38 29 72 63 48 71 61 49 51 42 35 36 10 11 60 10 11 29 11 11 72 21 20 74 62 50 73 65 54 72 58 45 70 56 43 72 8 8 71 7 7 71 5 6 71 7 7 72 52 43 72 58 45 28 25 20 10 10 12 9 9 9 10 8 9 9 7 8 7 7 7 5 5 5 6 4 5 5 5 5 9 7 8 12 10 11 30 8 10 52 8 7 10 10 10 10 10 12 10 10 8 10 10 10 13 13 15 11 11 13 10 10 10 9 9 9 7 7 7 7 7 5 9 9 9 9 9 9 9 9 9 11 11 9 51 11 11 68 12 11 70 14 15 32 14 14 8 8 8 5 5 5 4 4 2 4 4 4 4 4 4 4 6 3 6 8 7 8 8 8 11 9 10 11 11 11 8 10 9 8 6 7 8 8 8 63 7 6 
75 11 12 72 11 10 70 10 9 70 12 11 70 14 13 73 53 42 30 27 22 11 11 11 10 8 9 9 7 10 9 9 9 10 9 7 11 11 11 13 13 11 15 15 17 15 15 15 12 14 13 11 9 10 12 10 11 11 11 9 11 11 9 12 12 12 14 14 12 12 12 14 10 8 11 7 9 6 7 5 8 11 9 10 65 11 9 74 14 14 71 48 40 73 63 51 74 25 21 71 10 9 72 8 8 71 7 8 72 37 31 72 64 53 72 62 50 71 63 50 70 43 34 71 11 10 72 10 11 72 11 10 72 23 19 71 65 51 73 65 54 73 59 46 71 55 40 71 7 7 72 8 8 72 8 8 73 12 11 72 16 17 70 14 15 28 12 12 9 9 7 8 8 8 9 7 8 10 9 7 6 4 5 5 3 4 3 1 2 4 2 5 8 8 8 13 11 12 8 8 8 8 8 10 11 11 11 14 12 13 12 12 12 11 11 9 11 11 11 11 11 11 10 10 12 9 8 6 5 7 6 7 7 9 9 8 6 7 6 4 9 8 6 9 9 9 10 12 11 49 10 11 35 15 16 14 12 13 9 9 9 5 5 3 3 3 3 4 2 3 5 5 5 7 7 5 10 8 9 10 10 10 11 9 10 11 11 9 9 9 9 8 6 7 10 10 12 8 10 9 
72 66 52 71 10 9 72 10 11 70 10 12 72 12 12 74 51 43 72 65 49 73 61 47 30 25 19 5 5 5 5 5 5 8 8 8 12 10 11 13 13 13 15 13 14 13 13 11 12 10 11 10 10 10 11 11 11 11 11 11 13 13 11 11 11 11 11 11 11 12 12 10 12 10 11 7 7 7 6 6 6 8 8 8 63 12 11 72 52 43 72 58 47 73 60 51 72 64 51 71 28 22 71 7 7 71 9 10 72 39 32 73 67 53 72 64 51 75 63 51 72 43 35 70 10 10 71 9 10 71 10 9 72 8 8 71 7 7 72 8 6 73 7 8 69 8 7 70 9 6 74 10 10 72 10 11 72 14 13 72 13 15 71 15 14 28 14 13 11 9 10 8 8 10 9 9 9 8 8 6 8 8 6 7 7 7 6 4 5 5 5 5 12 8 9 8 6 7 9 7 8 9 9 9 11 11 9 13 13 13 13 13 13 11 9 10 10 10 10 9 9 9 8 8 8 7 7 5 6 6 6 7 7 7 6 6 4 7 5 8 8 8 8 10 12 11 12 12 10 51 12 13 72 14 13 35 14 13 9 11 10 7 5 6 4 4 2 4 4 4 5 5 5 8 8 8 9 9 9 11 9 10 10 10 10 9 11 8 10 8 11 7 7 7 8 8 8 7 7 5 
