P3
100 50
255
5 5 5 6 6 6 39 36 27 45 42 33 45 45 37 45 42 35 43 38 32 42 14 11 44 6 5 44 6 5 43 4 7 43 24 20 43 42 37 43 43 35 45 32 24 44 8 8 43 7 7 43 7 9 42 8 9 43 7 7 45 7 6 44 5 6 39 5 6 7 9 8 9 7 8 4 4 4 5 5 5 8 8 8 10 10 10 7 7 7 8 8 6 9 9 11 12 12 12 12 12 12 10 8 9 8 9 4 6 6 6 6 6 8 5 5 5 5 5 5 6 6 6 7 7 5 8 8 8 9 9 9 9 9 9 7 7 7 6 6 6 6 6 6 6 6 6 5 5 5 4 4 4 3 3 3 6 6 6 7 7 7 8 8 8 6 6 6 6 8 7 6 4 5 5 5 5 4 4 4 7 5 6 6 6 6 7 7 9 9 7 8 6 6 6 6 6 4 8 6 7 9 7 8 8 8 8 6 6 4 6 6 6 6 6 6 6 6 6 9 7 8 7 7 7 8 6 7 11 9 10 9 7 8 5 5 5 6 6 6 3 5 2 5 5 5 5 7 6 8 8 6 7 7 7 7 6 4 5 5 5 8 8 8 8 8 8 9 7 8 9 9 11 7 7 7 7 7 7 8 8 8 8 6 7 3 5 4 5 5 7 6 6 6 5 5 5 6 5 3 
5 5 5 6 6 6 39 36 29 42 39 32 45 42 35 44 41 34 43 13 13 45 7 6 42 7 5 43 4 5 45 5 6 43 4 5 42 7 5 43 7 9 45 9 9 43 8 6 43 8 6 42 6 6 42 8 7 31 6 9 5 6 8 4 4 4 5 5 7 7 5 6 6 6 6 2 3 5 5 5 5 8 9 4 10 10 10 8 8 10 8 8 8 10 10 8 11 11 11 12 10 13 10 10 10 8 8 6 5 7 6 7 7 5 6 6 6 5 5 5 6 6 6 7 7 9 8 8 8 8 8 8 9 9 9 7 7 7 4 4 4 4 4 4 3 3 3 3 3 3 5 5 5 3 3 3 5 5 5 6 6 6 6 6 6 6 6 6 7 7 7 6 4 5 5 3 4 4 4 4 4 4 6 6 4 7 7 7 7 9 7 8 7 5 6 6 6 6 8 6 7 9 9 9 8 8 8 6 4 5 5 4 2 4 6 5 6 6 6 5 5 5 6 6 6 6 6 6 8 8 8 8 8 8 7 7 7 4 4 4 4 4 4 5 5 5 6 4 5 5 5 5 5 5 5 5 5 5 5 5 5 6 6 6 5 5 5 6 6 6 8 6 7 8 8 6 9 7 8 8 6 7 6 6 6 4 4 4 5 5 5 5 5 5 6 4 5 5 5 5 
6 6 6 5 5 5 40 10 10 44 35 28 42 42 34 44 39 33 44 14 12 44 5 6 44 6 5 44 6 5 43 4 5 43 5 4 45 7 6 27 7 8 12 8 9 11 7 6 11 7 6 10 6 5 11 7 8 11 7 6 6 6 6 4 4 4 6 6 6 6 6 6 5 5 5 4 4 4 6 6 6 8 8 8 9 9 7 10 9 7 9 9 9 10 10 10 11 11 11 11 11 11 9 9 9 8 8 8 8 8 8 7 7 7 5 5 5 5 5 5 6 6 6 8 6 7 9 7 10 8 8 6 8 8 8 7 7 7 5 5 5 5 5 5 3 3 3 3 3 3 4 4 4 4 4 4 6 4 5 6 6 6 7 7 5 5 5 5 6 6 6 7 7 7 7 5 8 5 4 2 4 4 6 6 4 5 6 8 7 7 7 7 8 6 7 7 7 7 7 7 7 8 8 6 8 8 10 6 6 6 4 4 4 5 3 4 5 5 7 5 5 3 5 3 4 6 6 4 7 9 8 7 7 7 5 5 5 3 3 3 5 4 2 5 3 4 5 7 6 5 5 5 5 3 4 6 6 6 6 6 6 7 5 6 4 4 2 5 5 5 6 6 6 7 7 7 7 7 7 7 5 6 4 4 4 4 4 6 4 6 5 5 5 5 5 5 5 6 4 5 
4 6 5 4 6 5 10 6 5 40 11 7 45 11 10 43 12 10 44 8 8 46 6 7 45 5 6 44 6 5 44 4 4 43 4 5 27 5 8 9 8 6 7 7 7 6 6 6 5 5 5 5 5 5 6 6 4 6 6 6 7 5 6 6 6 6 7 7 7 6 4 5 5 5 5 7 7 5 8 8 8 8 8 8 6 8 5 8 8 6 11 9 10 9 9 9 10 10 10 9 11 8 9 9 9 10 8 9 8 8 8 7 7 7 7 5 6 6 8 7 8 6 7 6 8 7 8 8 8 7 9 8 8 8 8 6 6 6 6 6 6 6 6 6 3 3 3 4 4 4 5 5 5 5 5 5 4 4 4 6 6 6 7 7 7 6 6 4 8 7 5 6 6 4 28 24 21 16 16 14 6 4 5 6 6 6 7 7 9 8 8 8 7 7 7 9 9 9 7 7 7 6 6 6 9 9 9 7 7 7 5 5 5 6 6 4 6 6 6 8 6 7 40 6 7 40 6 5 6 6 6 7 7 7 5 5 5 4 2 3 4 2 5 3 3 3 5 5 5 6 6 6 7 7 7 6 6 6 7 7 7 9 5 6 4 4 4 5 5 5 17 16 14 28 27 22 6 6 8 5 5 5 5 5 5 4 4 2 4 4 4 4 4 4 5 5 7 6 6 6 
5 5 5 4 4 6 5 5 5 10 6 5 39 7 8 43 7 7 44 5 6 44 6 5 44 6 5 43 3 4 44 4 4 27 7 8 9 7 8 8 8 10 7 7 5 6 6 4 5 5 5 6 4 5 6 6 6 8 6 7 8 8 8 8 8 8 7 7 7 4 6 5 5 5 3 38 10 7 11 9 10 9 7 8 5 5 3 8 8 8 9 9 7 9 9 9 8 10 9 10 9 7 12 11 9 9 9 9 9 9 9 6 8 7 9 7 8 7 7 7 18 8 7 41 17 17 37 34 27 26 21 18 7 5 6 6 6 6 6 6 6 7 7 7 5 5 5 6 4 5 6 4 5 5 5 5 5 5 5 7 5 6 6 6 4 7 7 7 6 6 6 31 5 6 42 6 6 19 7 7 6 6 8 7 7 7 8 8 8 8 8 8 8 8 8 8 6 7 8 6 7 7 7 5 8 8 8 9 8 6 6 6 6 5 5 7 5 5 5 7 7 7 9 8 6 11 7 8 7 7 7 7 7 7 4 4 4 3 3 5 3 3 5 5 3 6 5 5 5 6 6 4 7 5 6 7 7 7 7 7 7 4 4 4 4 6 3 15 5 4 40 6 5 40 19 16 38 35 30 30 27 22 4 4 6 4 6 3 4 4 4 6 6 6 5 5 5 6 6 6 
6 6 6 4 4 4 5 7 6 6 6 6 15 7 5 37 7 5 42 6 6 42 6 6 45 6 7 40 4 4 25 5 6 12 6 6 8 8 8 8 8 8 6 6 6 5 3 4 4 4 4 4 6 5 6 6 6 6 6 6 8 8 8 7 7 7 7 7 7 6 6 4 33 7 6 19 10 13 10 10 10 7 7 7 7 7 7 7 9 8 9 9 9 9 9 11 9 7 10 10 9 7 11 11 11 12 10 11 10 10 10 7 7 7 7 7 7 15 5 4 39 7 8 46 18 17 42 37 33 29 24 20 6 6 6 6 6 6 6 6 6 8 8 8 6 6 6 6 6 6 5 5 5 5 5 5 7 7 7 6 4 7 6 6 6 7 7 7 6 6 4 14 5 6 32 6 7 36 6 6 18 6 8 8 8 6 8 10 9 9 7 8 6 6 4 5 5 3 7 7 7 8 8 8 7 5 6 7 7 5 7 7 7 5 5 5 5 7 6 6 6 8 36 6 4 6 6 6 7 7 7 6 6 6 3 3 3 2 4 1 4 2 3 4 4 2 5 5 3 5 5 5 7 7 7 7 7 7 6 4 5 6 4 5 21 7 7 37 6 4 44 4 4 43 9 7 43 12 10 32 11 8 4 4 4 5 5 5 5 5 5 6 6 6 6 6 4 4 4 6 
5 5 3 5 5 5 6 4 5 5 5 5 8 8 8 13 7 7 16 6 5 15 7 5 15 5 4 13 3 2 9 5 4 6 6 6 5 5 5 7 7 7 5 5 5 4 4 4 5 5 5 5 5 5 6 6 6 6 6 6 6 6 6 8 8 8 7 7 7 8 8 8 17 7 8 10 8 9 7 7 7 6 6 4 8 8 6 9 7 8 9 7 8 8 8 6 9 9 7 9 9 9 10 10 10 10 10 10 9 9 9 7 7 7 6 6 6 11 5 5 25 5 6 44 18 17 44 39 33 33 30 25 4 4 4 6 6 6 8 8 8 7 7 5 6 6 8 5 5 5 5 3 4 5 5 5 6 6 6 4 4 4 5 5 5 7 7 7 6 6 6 6 6 6 15 6 7 16 6 7 10 6 5 9 9 9 8 8 10 8 6 7 5 5 5 5 5 5 6 6 6 7 7 7 7 7 7 6 6 6 6 6 6 6 6 6 6 6 8 6 4 5 16 6 5 34 6 5 33 32 27 10 10 10 3 3 1 4 4 2 5 3 6 5 5 5 3 7 6 6 6 8 6 6 6 7 7 5 6 6 6 5 5 7 10 4 6 15 5 4 25 5 6 44 3 1 36 2 1 10 4 4 2 3 7 5 5 5 6 6 6 8 6 7 4 4 4 6 6 6 
4 4 4 4 4 4 4 4 2 6 4 5 8 8 8 9 7 8 6 6 6 5 5 5 5 5 5 4 4 4 7 5 6 6 6 6 5 7 6 7 7 7 6 6 6 7 5 6 6 6 6 8 8 8 7 7 5 7 7 5 8 7 5 8 8 8 9 9 9 9 7 8 7 7 7 9 7 8 8 8 8 6 4 5 7 7 9 7 7 7 6 6 4 7 7 5 6 8 7 8 8 8 10 10 10 12 10 11 10 10 10 8 8 8 8 8 8 6 6 6 11 7 6 17 11 11 16 16 14 13 12 10 4 4 4 5 5 5 9 9 9 6 7 9 7 7 5 5 5 5 4 4 4 6 6 6 8 8 8 6 6 6 7 7 7 7 7 7 6 6 6 5 7 6 7 7 7 7 7 7 8 8 8 8 8 8 7 7 7 7 7 7 7 5 6 6 4 5 5 5 5 5 5 5 8 6 7 6 6 6 6 6 4 5 5 5 7 6 4 34 6 5 7 5 6 15 7 5 15 16 11 5 5 7 5 5 5 4 4 4 5 5 5 7 7 5 7 7 5 7 7 5 8 6 7 5 5 5 4 4 4 5 3 4 5 5 5 5 5 5 10 4 4 14 4 3 11 3 1 4 4 4 4 4 4 8 6 7 8 8 8 7 7 7 5 5 5 5 5 5 
4 4 4 5 5 3 6 4 5 7 5 6 6 8 7 7 7 7 6 6 6 6 6 6 6 6 6 5 5 5 6 6 6 9 7 8 7 7 7 6 6 6 7 7 7 7 7 7 7 7 7 8 8 8 8 8 8 7 7 7 6 8 7 7 7 7 7 7 7 6 6 6 7 7 7 10 10 10 7 7 7 5 5 5 6 8 7 6 6 6 7 5 6 7 7 5 7 5 6 7 5 6 9 9 9 11 11 11 11 11 11 9 9 9 8 8 8 7 7 7 7 7 7 6 6 8 6 6 6 5 5 5 3 3 3 4 4 4 7 7 7 8 8 8 8 6 7 5 5 3 4 4 4 4 4 4 7 7 7 5 5 5 7 5 6 7 7 5 8 6 7 7 5 6 7 7 7 8 8 8 9 7 8 7 7 7 5 7 6 8 8 8 7 7 7 6 6 6 6 6 6 5 5 5 8 8 10 7 7 7 6 6 6 7 6 4 8 6 7 20 6 5 6 6 6 7 7 7 6 6 4 5 5 5 5 5 5 6 6 6 7 7 7 8 8 6 8 8 8 8 8 8 7 7 5 4 6 5 3 3 3 5 3 4 5 5 7 6 6 6 5 5 5 5 5 5 5 5 5 5 4 2 4 4 4 6 6 6 8 8 6 7 7 7 7 5 6 7 7 7 
4 4 4 3 3 1 6 6 6 4 6 3 6 6 6 5 5 5 7 5 6 7 5 6 7 7 7 7 7 7 7 7 7 6 8 7 6 6 6 6 6 6 8 8 8 7 7 7 7 7 7 7 7 7 8 8 8 7 7 7 6 8 7 5 5 5 4 4 4 5 5 5 7 6 11 8 8 8 6 6 6 4 4 4 6 6 6 7 5 8 5 5 5 6 6 6 6 6 6 6 6 6 9 9 9 10 10 10 11 11 11 10 10 10 9 9 9 9 9 7 8 6 7 5 5 5 6 4 5 6 4 5 3 3 3 3 3 3 5 5 7 5 7 6 4 4 4 3 5 4 5 5 5 6 4 7 6 6 6 5 3 6 5 5 5 6 6 6 7 7 7 5 7 6 6 6 6 8 8 8 8 8 8 6 6 6 6 6 6 8 8 8 6 6 6 5 5 5 6 6 6 6 6 6 8 8 8 8 10 9 7 7 7 6 6 6 6 6 6 5 5 5 6 6 6 7 7 7 7 7 7 5 5 5 5 5 5 5 5 5 8 8 8 8 8 8 7 8 10 8 8 8 9 7 8 7 5 6 6 4 5 7 5 6 7 7 9 5 7 6 6 6 6 5 7 6 6 6 6 5 5 3 5 5 3 5 5 3 6 6 4 6 6 8 8 6 7 8 8 8 
5 3 4 4 4 2 5 5 5 7 5 6 7 7 7 7 7 7 5 5 5 7 7 7 9 9 9 8 8 8 6 6 6 7 7 7 6 6 8 6 6 6 7 7 5 8 8 8 7 5 6 6 6 6 7 7 7 6 8 7 6 6 6 5 5 5 4 4 4 5 5 5 8 8 8 8 6 7 6 6 6 4 4 6 5 5 7 4 4 4 6 6 6 6 6 6 7 7 7 8 6 7 8 8 8 9 9 9 10 10 10 10 10 10 10 10 10 9 9 7 8 8 8 5 7 6 6 6 6 5 5 5 4 2 3 3 1 2 4 4 4 3 3 5 5 4 2 5 5 5 5 5 5 5 5 7 4 4 4 4 4 6 4 4 4 6 6 6 7 7 7 6 6 6 7 7 7 8 6 7 8 6 7 7 7 5 8 8 6 8 6 7 6 6 8 5 5 5 4 4 4 5 5 5 8 8 8 9 9 9 8 8 8 6 6 6 6 6 6 7 6 4 6 6 6 5 5 5 5 5 5 5 5 5 6 6 6 6 6 6 6 6 6 7 9 8 7 7 7 7 7 7 6 6 6 6 4 5 5 5 3 7 7 7 7 7 5 6 6 6 7 5 6 7 7 7 7 5 6 6 6 4 5 5 5 5 5 5 7 5 6 7 7 9 5 7 6 6 6 4 
5 3 4 5 5 5 7 7 7 8 6 7 8 8 8 6 8 7 6 6 6 6 6 6 8 8 8 7 7 7 6 6 6 6 6 6 6 6 6 5 5 5 7 7 7 6 6 6 5 5 5 5 5 5 6 6 6 5 7 6 5 5 5 3 3 3 4 4 4 6 6 8 7 9 8 6 6 6 8 6 9 5 5 5 6 6 6 5 5 5 6 6 6 8 8 6 7 7 9 17 7 8 27 7 6 15 9 9 10 10 10 11 11 13 8 8 8 8 8 8 7 7 7 7 7 7 6 6 6 6 6 6 5 5 5 4 4 4 2 2 2 2 2 2 3 3 3 5 5 5 24 6 6 25 5 6 5 4 2 3 3 3 4 4 4 5 5 5 7 7 7 7 7 7 8 8 8 8 8 8 9 7 10 8 6 7 7 7 7 6 6 8 6 6 8 6 4 5 13 3 2 23 5 5 19 8 6 8 8 8 7 7 5 6 6 6 5 5 5 5 5 5 6 6 6 5 5 7 6 6 6 5 5 5 5 5 5 6 6 6 7 7 7 7 7 7 7 7 7 6 6 6 6 4 5 6 4 5 6 6 6 7 7 7 6 6 6 6 6 6 7 7 7 6 6 8 6 4 5 6 6 6 5 5 5 6 4 5 6 6 6 6 7 9 7 7 7 6 6 6 
5 5 5 5 5 5 8 6 7 8 8 6 7 7 7 6 6 6 5 5 5 7 5 6 9 7 8 7 7 7 6 4 5 5 5 5 5 5 5 5 5 5 5 5 5 6 6 6 12 12 10 19 19 17 7 7 7 5 5 5 2 6 7 5 5 5 4 6 5 7 7 5 8 8 8 4 4 4 5 5 5 6 6 6 5 5 5 6 6 6 6 6 6 7 7 7 8 8 8 30 9 8 43 9 8 24 10 10 11 11 11 8 8 8 8 8 8 8 8 8 9 9 9 8 8 8 8 6 7 11 7 8 7 6 4 6 6 6 4 5 0 2 2 2 3 1 2 24 20 17 44 5 6 42 7 5 10 6 5 5 7 6 4 4 4 4 4 4 6 6 6 6 6 6 7 7 7 9 9 9 8 8 8 6 6 6 6 6 6 6 6 6 6 6 6 5 5 5 13 5 3 25 4 3 20 4 4 7 7 7 7 7 5 6 6 6 4 6 5 6 6 6 5 5 5 6 5 3 6 6 6 6 6 6 5 5 5 6 6 6 5 5 5 7 7 7 6 6 6 6 6 6 6 4 5 5 5 5 5 5 7 5 5 3 5 5 5 6 6 4 6 6 6 7 5 6 7 7 7 6 6 4 6 6 6 7 5 6 6 6 6 7 7 7 8 8 8 7 7 5 
4 4 4 4 4 4 5 5 5 6 6 6 6 6 6 5 5 5 6 4 5 7 7 7 7 7 7 6 6 6 5 7 6 4 4 4 5 5 5 5 5 5 13 12 10 25 24 20 33 32 27 39 38 33 20 19 15 6 5 3 6 6 6 6 6 6 6 6 6 7 7 7 7 7 5 2 2 2 3 3 3 5 5 5 4 4 4 7 5 6 7 7 5 8 8 8 20 8 8 37 9 8 33 8 11 16 10 10 9 11 10 8 8 6 7 7 7 5 7 6 8 8 6 11 11 9 9 7 8 8 6 9 7 7 7 6 6 6 5 5 5 6 4 5 3 3 3 41 37 28 44 5 6 44 5 6 12 6 6 5 7 6 5 5 5 4 4 4 5 5 5 6 8 7 9 7 8 8 8 8 7 7 7 6 6 6 6 6 6 6 6 6 7 7 7 5 5 5 3 3 3 4 4 4 6 6 6 6 6 6 6 6 8 6 6 6 6 6 6 6 4 7 5 5 5 5 5 5 6 6 6 4 6 3 4 6 5 7 7 7 5 5 5 6 6 6 7 5 6 6 6 4 7 5 6 5 5 5 4 4 4 5 5 5 6 6 6 6 4 7 6 4 5 6 6 6 6 4 7 6 6 6 6 6 6 6 6 6 5 5 5 8 6 7 7 7 7 26 8 8 
3 3 5 2 2 2 3 3 3 5 5 7 6 4 7 6 6 6 5 5 5 6 8 7 7 7 7 6 6 8 4 6 3 3 5 4 2 2 2 5 5 5 20 19 15 39 39 31 30 29 24 30 29 25 24 24 22 6 6 8 6 6 8 6 6 4 6 6 8 6 6 6 5 5 5 3 5 2 4 4 4 4 4 6 4 4 4 5 5 5 7 7 7 9 9 9 23 7 8 32 8 8 18 10 8 9 9 11 8 8 8 7 7 7 6 6 6 7 7 7 8 8 8 9 9 9 9 9 9 8 8 8 6 6 6 6 8 7 6 6 6 6 6 6 7 6 4 29 26 21 43 7 7 29 5 3 11 7 6 6 8 7 6 6 6 5 4 2 5 5 5 7 5 8 7 7 7 7 5 6 6 6 6 7 7 7 7 7 7 5 5 5 5 5 5 4 4 4 4 4 4 5 5 5 6 6 6 7 7 7 6 6 6 7 5 6 6 6 6 5 5 5 6 4 5 5 5 5 6 6 6 5 5 5 5 5 5 5 5 5 5 5 5 5 5 5 5 5 5 5 5 5 5 5 5 5 3 4 4 4 4 4 4 4 4 4 4 4 4 4 5 3 4 5 5 3 5 5 5 5 5 5 6 6 6 7 7 5 6 6 4 5 5 7 6 8 7 43 7 9 
5 4 2 4 4 4 5 3 4 4 4 4 8 3 7 6 6 8 7 5 6 7 7 7 7 7 7 6 6 6 4 4 4 3 3 3 3 3 5 4 4 4 15 15 13 21 20 18 8 6 7 7 7 7 6 6 6 6 6 6 7 7 7 6 6 4 7 7 7 6 6 6 7 5 8 4 4 4 2 4 3 4 4 2 3 5 4 4 4 4 6 4 7 6 6 8 8 8 10 9 9 9 8 10 7 8 8 8 6 6 6 6 6 6 4 4 4 6 6 6 8 8 8 8 8 8 7 7 7 8 8 8 8 8 8 8 8 6 6 5 3 7 7 7 7 7 7 7 7 5 30 6 6 7 7 5 6 8 7 7 7 5 5 5 5 6 4 5 5 5 5 7 7 7 7 7 7 7 5 8 6 6 6 7 7 7 6 6 6 5 5 5 4 4 4 4 4 4 4 4 4 6 6 6 6 6 6 7 7 7 6 6 6 6 6 6 6 6 8 8 6 7 4 6 5 4 4 4 6 6 6 6 6 6 5 5 5 5 5 5 5 5 5 4 4 4 5 5 5 5 5 5 6 4 5 5 3 4 4 4 4 4 4 4 4 4 4 4 4 4 6 4 5 5 5 5 5 5 5 5 7 4 7 7 7 8 8 8 4 6 5 3 3 1 5 5 5 29 8 7 
5 5 5 6 5 3 5 4 2 5 4 2 6 4 5 7 7 5 8 6 7 7 7 7 7 5 6 5 5 5 3 3 1 2 2 2 3 3 3 4 4 4 6 6 6 8 8 8 7 7 7 6 6 6 6 6 6 6 6 6 6 6 6 6 6 4 6 6 6 5 5 5 6 6 6 3 5 2 5 5 5 6 6 4 5 5 5 5 5 5 6 4 5 6 6 6 8 8 8 9 7 8 10 8 9 7 7 7 7 7 7 7 7 7 6 6 6 5 5 5 7 7 7 8 8 8 8 8 8 10 10 10 9 9 9 10 8 11 6 6 6 7 7 5 7 7 7 6 8 7 6 8 7 6 8 7 7 7 7 6 6 4 4 4 4 4 2 3 5 5 5 6 6 6 4 4 4 4 4 6 6 6 6 7 7 7 6 6 6 6 6 6 5 5 5 4 4 4 5 5 5 8 8 8 7 7 9 6 6 6 8 7 5 6 6 6 6 6 6 8 6 7 4 4 4 5 5 5 5 5 5 4 4 4 4 4 4 4 4 4 4 4 4 4 4 4 4 4 4 5 5 5 5 5 7 5 3 4 4 4 4 4 4 4 5 5 5 4 6 5 4 4 4 4 2 3 4 4 4 5 5 5 8 8 8 9 7 8 4 4 2 3 3 3 4 4 6 6 6 6 
5 5 5 5 5 3 6 4 5 4 4 4 5 3 4 6 6 6 6 6 6 7 7 7 7 5 6 5 5 5 4 4 2 3 2 0 3 3 3 4 4 4 4 4 4 6 6 6 7 7 7 6 6 6 5 5 5 6 6 6 6 6 6 7 7 7 8 8 10 7 5 8 5 5 5 5 5 7 5 5 5 6 4 5 4 4 4 5 5 5 7 7 7 6 6 6 7 7 7 9 9 9 7 7 7 7 7 5 7 7 7 7 7 7 6 6 6 6 6 6 4 4 4 7 7 7 8 8 8 8 8 8 9 9 9 9 9 9 5 7 6 7 7 7 7 7 5 5 5 5 6 6 8 9 7 8 6 6 6 4 4 4 4 4 4 3 3 1 4 4 6 5 5 5 4 6 5 4 4 4 5 5 5 5 5 5 5 5 5 5 5 5 6 6 6 5 5 5 6 6 6 7 7 7 5 5 5 6 6 4 5 5 3 6 4 5 8 6 7 7 7 7 4 4 4 4 4 2 4 4 4 4 4 4 5 5 5 3 3 3 3 3 3 4 4 4 3 3 3 5 5 5 5 5 5 5 5 5 4 4 4 4 4 4 4 4 4 5 5 5 3 3 3 3 3 3 3 3 5 5 5 5 9 9 9 7 7 7 3 3 3 1 3 2 4 4 4 4 4 4 
4 4 4 6 5 3 5 3 4 4 4 4 5 5 5 6 6 6 5 7 4 7 7 7 5 7 6 6 6 6 5 5 5 3 3 3 3 3 3 3 3 3 3 3 3 5 5 5 6 6 6 5 5 5 5 5 5 5 5 5 7 5 6 7 7 7 6 6 8 6 6 6 6 6 6 6 6 6 5 5 5 4 6 5 5 5 5 5 5 5 6 6 6 6 6 6 7 7 7 8 8 10 7 7 7 7 7 7 7 7 7 6 6 6 6 6 6 5 5 5 5 5 5 7 7 7 8 8 8 8 8 8 9 9 11 10 10 8 7 7 7 6 6 6 5 5 5 3 3 3 4 4 2 4 5 7 4 4 4 4 4 4 4 2 3 3 3 3 3 3 3 5 3 4 5 5 3 6 4 5 5 5 5 5 5 5 5 5 5 6 6 6 7 7 7 7 7 7 6 6 6 6 6 6 8 6 7 6 6 6 6 4 5 6 6 6 8 8 10 7 7 5 5 5 5 5 5 5 5 5 5 5 5 5 4 4 4 4 4 4 4 4 4 4 4 4 5 5 5 6 6 6 5 5 5 4 4 4 4 4 4 4 4 4 3 3 3 4 2 3 4 3 1 5 3 4 4 4 4 7 5 6 9 7 8 5 7 6 3 3 3 4 4 4 5 5 5 5 5 5 
4 4 4 4 4 4 3 3 3 5 5 5 5 5 5 5 5 5 6 6 8 7 7 7 6 6 6 6 6 6 6 4 5 4 4 4 4 4 2 3 3 3 3 3 3 5 5 5 5 5 5 6 6 4 4 4 4 5 5 5 6 4 5 6 6 8 7 5 6 6 6 6 6 6 6 8 6 7 5 5 5 4 4 4 4 4 4 5 5 5 5 3 4 5 5 5 6 6 6 8 6 7 8 8 8 7 7 7 6 6 6 5 5 5 4 4 4 5 5 5 6 6 6 9 9 9 9 9 9 6 6 6 9 9 7 13 11 12 9 7 8 5 5 5 4 4 6 2 2 2 2 2 2 4 2 3 5 3 4 3 3 3 3 3 3 4 4 4 3 5 4 4 4 4 4 4 4 5 5 5 6 6 6 6 6 6 6 6 6 7 7 7 7 7 7 7 7 7 7 7 7 7 7 7 7 7 7 6 6 8 5 5 5 8 7 5 10 8 9 7 7 7 4 6 5 5 5 5 6 6 6 6 6 6 5 5 5 4 4 4 4 4 4 4 4 4 5 5 5 6 6 6 5 5 5 5 5 3 4 4 4 3 3 3 3 3 5 5 5 5 11 10 6 14 4 5 15 6 7 15 6 7 17 7 8 15 5 4 3 5 4 6 4 5 4 4 4 5 5 5 
3 5 4 4 4 4 3 1 2 4 4 6 5 5 5 6 4 5 6 6 8 7 7 7 6 6 8 5 5 5 4 2 5 4 2 5 4 4 4 2 2 2 3 3 3 5 5 5 5 5 5 5 5 5 4 4 4 4 4 4 4 4 4 5 7 6 6 4 5 6 6 4 12 13 8 6 6 4 7 3 4 5 5 5 4 4 4 3 4 6 4 6 5 5 5 5 6 6 6 9 9 9 8 8 8 9 8 6 7 7 7 5 5 5 4 4 4 5 5 5 6 6 6 9 9 9 9 9 9 6 6 6 9 7 8 10 10 10 7 7 7 4 4 4 4 4 4 2 4 3 3 3 3 4 2 3 4 4 4 4 4 4 4 4 4 6 6 6 6 6 6 8 8 6 5 5 5 5 5 5 7 7 7 5 5 5 5 5 5 6 6 6 6 6 6 6 6 6 6 6 6 6 6 6 6 6 6 6 6 6 6 6 4 7 7 7 8 8 8 7 7 9 12 8 5 9 9 7 6 6 6 5 5 5 5 5 5 3 3 3 3 3 3 5 5 5 5 5 5 5 5 5 5 5 5 5 5 5 5 3 4 2 2 2 2 4 3 18 17 12 43 26 19 42 3 4 43 4 5 42 7 5 43 7 7 38 7 5 9 3 3 5 5 5 5 5 5 5 5 5 
3 5 4 3 3 5 3 3 1 4 2 3 5 5 5 6 4 5 5 5 5 13 4 5 8 7 5 7 5 6 3 3 3 3 3 3 3 3 3 3 3 3 4 4 4 4 4 4 5 5 5 6 6 6 4 4 4 4 4 4 4 4 4 6 6 4 4 4 4 7 7 9 38 37 32 4 4 4 7 3 2 4 4 4 4 4 2 4 4 4 5 5 7 6 6 6 7 7 7 8 6 7 9 7 8 10 8 9 7 7 7 5 5 5 3 3 3 5 5 5 6 6 6 7 7 7 7 7 7 5 5 5 5 5 3 6 6 6 7 5 6 5 5 5 5 5 7 3 5 4 3 3 3 5 5 5 4 4 4 4 4 4 5 3 6 8 8 6 8 6 7 33 26 20 23 15 13 8 7 5 7 7 7 5 5 5 5 5 5 6 6 6 6 6 6 5 5 5 6 6 6 7 7 7 6 6 8 5 5 7 6 6 4 6 6 6 6 6 6 5 3 4 42 35 27 39 36 29 5 5 5 5 5 5 4 4 4 4 4 4 4 4 4 4 4 4 5 5 5 4 4 4 6 6 8 5 5 5 4 4 4 3 3 3 4 2 3 21 13 11 41 22 16 42 4 3 44 5 6 43 7 7 41 5 5 41 5 5 40 6 7 5 5 3 5 5 5 5 5 5 
3 3 3 3 3 5 2 2 0 3 3 3 3 3 3 3 5 4 5 5 5 28 4 2 38 23 16 15 14 12 4 4 6 4 4 4 4 4 4 5 3 4 5 1 2 4 4 4 4 4 4 3 5 4 4 2 3 5 4 9 6 6 6 6 6 6 7 7 7 7 7 7 6 6 6 2 2 2 42 3 4 9 5 6 3 3 3 3 3 3 4 4 4 5 5 5 6 6 6 6 6 6 7 7 7 8 8 8 7 7 7 4 4 4 3 3 3 5 5 5 8 8 8 7 7 7 6 4 5 6 4 5 5 4 2 5 5 5 4 4 4 5 3 4 6 6 6 6 8 7 5 5 5 4 4 4 4 4 4 4 4 4 5 5 3 7 7 5 8 6 7 27 6 5 38 4 5 20 8 8 8 8 10 6 6 6 5 5 5 5 7 6 5 5 3 4 6 5 5 5 5 5 7 4 6 6 8 5 3 4 4 4 2 6 6 6 7 7 7 5 5 5 37 34 27 5 5 5 5 5 5 4 4 4 4 6 5 4 4 4 3 3 3 4 4 4 6 6 6 7 7 7 7 7 9 5 5 5 3 3 3 6 4 5 25 5 6 41 5 5 43 4 5 43 3 3 42 6 6 42 8 6 42 6 6 41 5 5 37 7 7 6 6 6 5 5 5 5 5 7 
4 2 3 2 2 2 3 3 3 3 1 2 3 3 3 4 4 4 5 5 7 4 4 4 5 5 5 5 5 5 5 3 4 4 4 4 5 5 5 6 6 6 4 4 4 4 4 4 3 3 3 4 4 2 5 5 5 6 6 4 6 6 6 6 6 6 6 6 6 10 8 9 5 5 5 1 1 3 45 7 6 10 6 5 3 3 3 4 4 4 3 3 3 5 5 5 4 4 4 4 4 4 5 5 5 7 7 7 8 8 8 5 5 5 3 3 3 5 5 5 9 9 9 8 8 8 6 4 5 4 4 4 5 3 6 4 4 4 4 4 4 5 5 7 5 5 5 10 10 10 6 6 4 3 3 3 5 5 5 4 4 4 7 7 7 6 8 7 6 6 6 5 5 5 6 6 6 8 8 8 9 9 11 8 8 6 7 7 5 5 5 3 5 5 5 5 5 5 5 5 5 5 5 5 4 4 4 4 4 4 5 3 4 5 5 5 8 8 10 8 8 10 5 5 5 4 4 6 6 6 6 4 4 4 4 4 4 5 5 5 2 3 5 2 4 3 5 5 5 7 7 7 7 5 6 5 4 2 3 3 3 23 5 5 41 5 5 41 6 4 42 6 6 42 6 6 42 6 6 41 7 6 42 6 6 45 6 7 37 7 7 6 6 6 5 5 7 6 6 6 
3 3 1 4 2 3 3 3 3 3 3 3 3 3 3 5 5 5 4 4 4 3 3 3 5 3 4 4 2 3 6 4 5 7 5 6 5 5 3 5 5 5 5 5 5 4 2 3 3 3 3 4 4 4 5 5 7 7 5 6 6 8 7 5 7 6 7 7 5 9 9 11 5 3 4 5 3 4 6 8 7 5 7 6 4 4 4 4 4 4 4 4 4 3 3 3 4 4 4 3 3 3 5 5 5 7 7 7 8 8 8 5 5 5 5 3 4 7 5 6 6 6 6 6 4 5 3 3 3 5 5 5 4 4 4 5 5 7 5 5 5 3 3 3 4 4 4 10 10 10 6 6 6 4 4 6 6 6 4 4 4 6 7 5 6 8 8 8 6 6 6 6 4 5 7 8 3 10 8 9 9 9 7 5 5 5 7 7 7 6 6 6 5 5 5 3 5 2 5 5 5 4 4 4 4 4 4 3 3 3 5 5 5 6 6 6 8 8 8 8 8 8 6 4 5 4 4 2 5 5 5 4 4 6 5 3 4 4 4 4 3 3 3 4 4 4 6 6 6 6 6 6 6 6 8 6 6 6 24 6 4 41 5 5 42 6 6 42 6 6 42 6 6 41 5 5 41 5 5 41 5 5 43 7 7 42 7 5 44 10 9 39 35 26 5 7 6 4 6 5 
4 4 4 3 3 3 3 3 3 4 2 3 4 4 4 4 2 3 4 4 4 3 3 3 3 3 3 5 3 4 5 3 4 4 4 4 6 6 6 5 5 3 5 3 4 3 5 4 4 2 3 4 4 4 6 6 8 8 6 7 6 6 6 5 5 5 5 5 3 7 7 7 5 5 3 6 6 4 7 7 7 8 8 8 4 4 4 4 4 4 4 4 4 4 4 4 3 3 3 4 4 4 7 7 7 6 6 6 6 6 6 5 5 5 4 4 4 4 2 3 3 3 3 4 4 4 4 4 4 4 4 4 5 5 5 6 4 5 4 4 4 4 4 4 8 6 7 8 8 10 4 4 6 3 3 3 3 3 5 2 2 0 8 6 7 9 9 11 6 6 6 6 6 6 7 7 9 7 7 7 7 6 4 5 5 5 4 6 5 4 4 4 5 5 5 6 6 6 6 6 6 4 6 5 5 5 5 5 5 5 5 5 3 6 6 6 6 6 6 7 7 5 6 6 4 3 3 3 5 5 5 4 6 5 5 5 5 5 5 7 3 3 3 4 4 4 6 6 6 4 4 4 30 9 8 44 8 8 43 7 7 42 6 6 41 7 6 41 17 15 41 36 30 42 35 27 43 28 23 43 4 5 42 6 6 42 6 6 40 9 6 43 39 28 44 40 29 42 38 27 
4 4 2 3 3 3 3 3 1 3 3 3 4 2 5 5 5 5 4 4 4 2 4 3 5 3 4 4 4 4 4 2 3 6 4 7 6 6 6 5 5 5 5 5 5 4 4 4 4 4 4 4 6 3 8 6 7 7 7 7 7 5 6 6 6 6 7 7 7 5 5 5 3 5 4 5 5 5 6 6 4 6 6 6 6 6 6 6 6 6 4 4 4 4 4 4 4 4 4 4 4 4 6 6 6 8 8 8 6 6 6 5 5 5 4 4 4 4 4 4 6 4 5 3 3 3 4 4 4 5 5 5 5 5 7 6 4 5 4 4 4 5 5 3 7 5 6 5 5 5 5 5 5 5 5 5 2 2 0 1 1 1 8 8 10 11 9 10 7 7 9 7 6 4 7 7 5 6 8 7 5 3 4 4 4 4 7 7 5 6 6 6 5 5 5 7 5 6 6 6 4 5 5 3 6 6 6 5 5 5 6 6 4 7 7 7 8 6 7 9 7 8 5 5 5 5 5 5 4 2 3 5 5 7 6 4 5 37 5 6 42 3 4 40 4 4 44 6 5 44 5 6 42 8 7 43 7 7 43 7 7 42 6 6 43 8 6 42 17 13 41 37 28 43 36 28 41 28 22 44 5 6 44 5 6 42 6 6 41 10 8 41 37 28 40 36 25 42 38 29 
3 3 1 3 3 3 3 3 3 2 2 2 4 2 3 6 6 6 4 6 5 2 2 2 3 3 3 4 4 4 4 4 4 4 4 4 6 6 8 5 5 3 5 5 7 5 5 5 5 5 5 5 5 5 5 5 5 7 7 5 7 7 7 7 6 4 5 5 5 4 4 4 4 4 4 5 5 5 5 5 5 6 5 3 7 7 7 5 5 5 6 6 6 5 5 5 5 5 5 5 5 5 7 7 7 6 6 6 7 7 7 6 6 6 6 4 5 6 6 6 7 5 6 6 4 5 4 4 4 5 5 5 5 5 5 5 5 5 5 5 5 6 6 6 5 5 7 3 5 2 5 5 5 4 4 4 2 2 2 1 1 1 8 6 7 9 9 9 6 6 6 6 6 6 7 7 5 6 4 5 2 2 2 5 3 4 7 9 8 7 7 7 6 6 6 4 6 5 5 5 5 6 4 5 5 5 5 5 5 5 6 4 5 8 6 7 10 10 10 10 10 10 6 6 6 4 4 4 5 5 5 36 6 6 38 6 7 42 6 6 45 5 6 40 27 21 42 35 27 42 35 27 44 37 29 45 15 13 41 5 5 44 6 5 42 4 3 43 15 12 42 33 24 41 37 28 43 36 28 43 24 18 41 5 5 40 6 5 41 5 5 43 9 8 40 9 6 43 9 8 
3 3 3 3 3 3 3 3 3 2 2 2 4 4 6 6 6 6 5 5 5 3 3 3 3 3 5 3 5 4 5 3 4 5 5 5 4 4 4 4 4 4 4 6 5 4 4 4 18 3 6 29 3 4 5 5 5 5 5 3 6 4 5 5 5 5 4 4 2 3 3 3 5 5 5 5 5 5 4 4 4 5 5 5 6 6 6 6 6 6 5 5 5 6 6 6 5 5 5 6 6 6 6 6 6 6 6 6 8 8 8 7 5 6 7 7 7 6 6 6 7 7 7 6 6 6 5 5 5 5 5 5 5 5 5 5 5 5 5 5 5 5 5 5 4 4 2 3 3 3 4 4 4 4 4 2 3 3 1 3 3 3 6 6 6 8 8 8 5 5 5 7 6 4 7 7 5 6 6 6 3 3 3 5 5 5 8 7 12 8 8 8 6 6 6 16 4 4 40 4 4 39 5 6 27 6 5 4 4 4 4 2 3 6 6 6 11 11 11 12 10 11 4 6 5 6 6 6 6 8 7 39 5 6 42 7 5 44 5 6 42 6 6 40 29 25 40 40 32 42 39 34 43 39 30 42 16 15 43 5 4 43 4 5 39 5 4 38 13 9 25 20 16 9 8 6 19 9 8 44 8 8 44 5 6 43 5 4 41 5 5 45 6 7 41 5 5 43 4 5 
38 2 2 4 4 4 3 1 2 4 2 3 5 5 7 8 6 7 6 6 6 4 5 0 4 4 4 4 4 4 6 5 3 6 4 7 4 4 4 6 5 3 6 6 6 4 4 6 19 5 5 34 4 4 4 4 4 4 4 4 4 4 4 4 4 4 4 4 4 4 4 4 5 3 4 4 4 4 4 2 3 5 5 5 6 6 6 6 6 6 7 7 7 6 6 6 6 6 6 6 6 6 5 5 5 7 7 7 10 8 9 9 7 8 7 7 7 8 8 8 8 8 8 7 7 7 4 4 4 5 5 5 5 5 5 4 4 6 4 4 6 4 4 2 2 4 3 2 2 4 38 35 28 4 4 4 6 4 5 4 6 5 5 7 6 6 6 6 5 5 5 5 5 5 5 5 5 6 6 6 5 3 4 7 5 6 7 7 5 7 7 9 17 5 5 40 4 4 44 5 6 44 4 4 43 4 5 38 4 3 34 4 4 6 8 7 11 11 11 8 10 9 3 3 3 8 8 8 8 8 8 38 34 25 43 9 8 42 6 6 41 5 5 42 31 25 40 39 34 43 38 32 43 38 32 42 17 13 43 5 4 44 5 6 39 5 4 36 4 5 25 5 6 4 4 4 6 6 6 10 4 4 10 6 7 15 6 7 44 6 5 42 6 8 42 6 6 43 4 5 
13 3 4 2 2 2 3 3 1 4 4 4 5 5 5 6 6 6 5 5 5 4 4 4 4 4 4 4 4 4 4 4 4 5 5 5 4 4 4 4 4 4 4 4 4 4 4 4 9 5 4 12 3 4 3 5 4 4 4 4 4 4 4 5 5 5 5 5 5 4 4 4 5 5 5 4 4 4 3 3 3 5 5 5 7 7 7 6 6 6 6 6 6 7 7 7 6 6 6 6 6 6 6 6 6 8 8 8 10 10 10 9 9 9 7 7 7 6 6 6 8 8 8 5 5 5 4 4 4 5 3 4 4 4 6 4 4 4 3 3 1 3 3 3 3 3 3 34 4 2 44 40 31 32 31 26 10 10 10 6 6 8 5 3 4 4 4 4 5 5 5 5 5 5 6 6 6 6 6 6 6 6 6 6 6 4 6 6 8 6 6 6 20 4 4 42 7 5 43 5 4 43 11 12 41 30 24 43 23 22 40 4 4 31 7 5 32 8 8 9 9 9 4 4 4 7 7 9 8 8 8 37 36 31 43 9 8 40 6 5 43 4 5 43 32 28 43 40 33 42 39 30 41 22 16 44 5 6 43 4 5 44 5 6 42 6 6 41 5 5 26 4 6 5 5 5 6 6 6 6 6 6 5 5 5 9 3 3 43 4 5 41 5 5 42 7 3 41 6 4 
4 2 3 3 3 3 4 2 3 6 4 5 5 5 5 6 6 6 6 6 6 5 5 5 4 4 4 5 5 5 5 5 5 5 5 5 5 5 5 5 5 5 3 3 3 3 1 2 4 2 3 5 3 4 5 3 4 4 4 2 5 5 5 5 5 5 5 5 5 5 5 5 4 4 4 4 4 4 3 3 3 5 5 5 6 6 6 6 6 6 7 7 7 8 8 8 6 6 6 5 5 5 6 6 6 8 8 8 8 8 8 8 8 8 6 6 6 5 5 3 5 5 5 5 5 5 5 5 3 5 3 4 5 5 5 4 4 4 2 2 2 4 4 4 4 4 4 15 5 6 14 14 12 14 14 12 4 4 4 5 5 5 4 4 4 4 4 4 3 3 3 6 6 6 7 7 7 7 7 5 5 5 5 5 3 4 3 5 4 17 5 5 35 5 5 41 5 5 43 15 14 44 33 29 41 40 35 42 37 31 42 27 22 42 3 4 41 5 5 33 7 6 32 29 22 4 4 6 33 32 27 43 40 35 42 8 9 39 5 4 40 6 5 43 13 11 41 15 14 42 14 13 42 6 8 43 5 4 42 4 3 43 4 5 45 6 7 44 5 6 39 5 6 21 5 5 5 5 5 6 6 6 11 5 5 35 5 5 44 5 6 43 5 4 43 4 5 42 29 23 
3 3 3 4 4 4 4 4 4 4 4 4 4 4 4 5 5 5 5 5 5 5 5 5 5 5 5 5 5 5 5 5 5 5 5 5 7 5 8 5 5 5 5 4 2 3 3 3 4 5 7 5 5 7 5 5 5 4 4 2 5 5 5 5 5 5 4 4 4 6 6 6 3 3 3 3 3 3 2 2 2 4 4 4 6 6 6 6 6 6 7 7 7 6 6 6 5 5 5 4 4 4 5 5 5 8 8 8 6 8 7 6 6 6 6 4 7 4 4 4 4 4 4 3 4 6 5 5 5 6 6 6 6 6 6 4 4 4 5 3 4 5 5 5 5 5 5 5 5 3 5 5 5 5 3 6 5 3 4 4 4 2 6 6 8 5 3 6 4 4 2 7 7 7 8 8 10 6 6 6 4 4 4 18 2 3 34 4 4 36 6 6 43 4 5 41 5 5 41 20 15 44 41 34 44 41 34 43 40 33 43 36 28 41 5 7 42 6 6 44 5 6 41 11 9 33 30 25 41 41 33 43 17 16 43 5 4 40 5 3 41 5 5 41 5 5 41 5 5 41 5 5 43 4 5 41 5 5 40 5 3 41 5 5 43 5 4 42 6 6 44 5 6 36 12 10 32 29 20 33 26 20 36 4 5 44 4 4 45 6 7 44 8 8 42 29 23 42 35 27 
3 3 3 4 4 4 4 4 4 4 4 4 4 2 3 4 4 4 4 4 4 4 4 4 5 5 5 5 5 5 5 5 5 6 4 5 5 5 5 7 5 6 5 5 5 3 3 3 4 4 4 5 5 5 5 5 5 3 5 2 5 5 5 5 5 5 5 5 5 7 7 7 3 3 3 3 3 3 2 2 2 4 4 4 7 7 7 6 6 6 6 6 6 6 6 6 5 5 5 3 3 3 3 3 3 5 5 5 6 6 6 6 6 6 6 6 6 4 4 6 3 3 3 4 4 4 5 5 5 6 8 5 7 5 6 5 3 4 6 6 6 5 5 7 4 4 2 4 4 4 3 3 3 3 3 5 2 4 3 5 5 3 5 5 5 6 6 6 5 5 5 4 4 4 6 6 6 3 3 1 17 16 14 34 25 16 44 15 11 41 5 5 41 5 5 40 6 4 43 19 15 44 41 34 44 41 34 43 38 32 44 35 30 43 3 4 41 5 5 40 6 5 42 3 4 41 17 15 43 18 14 42 7 5 42 6 6 40 4 4 44 4 5 43 4 5 41 5 5 43 5 4 41 2 3 41 5 5 43 4 5 41 6 4 43 4 5 40 4 4 41 13 10 42 27 20 41 37 28 42 38 29 42 21 18 42 4 3 43 5 4 43 9 8 42 38 29 42 35 27 
3 3 3 4 4 4 5 3 4 6 4 5 4 4 4 4 4 4 4 4 4 4 4 4 5 5 5 6 6 6 5 5 5 4 4 4 3 4 6 5 5 5 6 6 6 5 5 5 4 4 4 6 4 5 5 5 5 6 6 6 5 5 5 5 5 5 5 5 5 6 6 6 4 4 4 4 4 4 4 4 4 5 5 5 7 7 7 6 6 6 5 5 5 5 5 5 4 4 4 4 4 4 2 2 2 3 3 3 6 4 7 6 4 5 6 4 5 3 3 5 4 4 4 6 6 6 6 6 6 7 7 7 6 6 6 6 6 6 6 6 8 4 4 4 4 4 2 4 4 6 3 3 3 4 3 1 5 5 5 6 6 4 26 5 4 28 4 4 10 5 2 24 4 5 27 17 16 28 25 20 39 32 26 42 38 29 41 20 17 41 5 5 41 7 8 41 5 5 43 11 12 45 25 24 42 42 34 42 33 28 42 14 11 41 2 3 43 5 4 43 4 5 43 4 5 39 3 3 43 5 4 42 7 5 43 7 7 44 5 6 42 3 4 41 6 4 43 4 5 41 17 13 41 26 21 43 25 21 42 14 13 41 5 7 42 6 6 38 7 5 39 15 11 42 33 24 39 35 26 42 38 29 44 31 23 43 5 4 40 4 4 39 8 6 42 17 13 40 36 27 
4 4 4 4 6 5 5 5 3 5 4 2 4 4 4 4 2 3 4 4 4 4 4 4 5 5 5 6 6 6 7 5 6 4 4 4 4 4 4 3 3 3 4 6 5 6 4 5 5 5 3 6 6 4 8 6 7 7 5 6 5 5 5 5 5 5 5 5 5 4 4 4 4 4 4 6 6 6 5 5 5 5 5 5 6 6 6 6 6 6 5 5 5 4 4 4 3 3 3 4 4 4 3 3 3 3 3 3 4 4 2 5 5 5 4 4 4 4 4 4 6 4 5 9 7 8 7 7 7 7 7 7 8 6 7 8 8 8 4 4 2 3 3 3 3 3 1 4 4 6 2 4 3 4 4 4 5 5 5 23 22 18 40 25 18 43 9 7 34 6 5 38 4 5 42 12 10 43 30 22 41 37 28 41 37 28 41 20 15 42 6 6 42 6 6 41 7 6 41 7 6 40 9 6 43 18 14 43 15 12 42 3 4 42 4 3 43 4 5 42 6 6 43 5 4 41 5 5 42 3 4 42 6 6 44 6 5 43 4 5 44 6 5 43 4 5 43 5 4 42 27 24 42 39 30 42 39 30 42 32 23 43 15 12 42 7 5 42 6 6 40 15 11 42 35 27 41 34 24 42 35 25 41 28 22 40 4 4 42 6 6 41 2 3 43 5 4 42 18 16 
4 4 4 4 6 5 6 6 6 4 4 4 4 4 4 5 3 4 4 4 4 5 5 5 5 5 5 6 6 6 7 5 6 4 4 4 4 4 6 3 3 3 4 4 4 7 5 6 5 5 5 5 5 5 7 5 6 6 6 6 5 5 5 6 6 6 5 5 5 4 4 4 5 5 5 6 6 6 5 5 5 5 5 5 5 5 5 6 6 6 5 5 5 4 4 4 4 4 4 4 4 4 3 3 3 3 3 3 5 4 2 4 4 4 3 5 4 4 4 4 6 6 6 10 6 7 11 7 6 21 7 7 8 8 10 7 7 7 4 6 3 4 4 6 3 3 3 4 4 4 3 3 3 5 3 4 6 8 7 38 31 23 42 38 29 42 14 11 43 5 4 43 3 4 43 5 4 42 14 11 41 20 17 41 20 17 41 13 9 42 6 6 41 7 6 42 6 6 36 6 4 30 6 4 42 7 5 43 4 5 43 4 5 43 4 5 42 4 3 42 6 6 40 4 4 43 4 5 42 23 19 42 24 20 44 23 22 43 22 19 41 10 8 41 5 5 41 5 5 43 25 21 42 39 32 42 39 32 42 39 30 42 22 15 41 7 6 41 5 5 41 10 8 41 20 15 41 20 15 41 20 15 42 17 13 42 6 6 41 6 4 42 3 4 43 4 5 42 6 6 
4 4 4 4 2 3 5 5 5 4 4 4 7 3 4 4 4 4 5 5 5 5 7 6 5 7 6 6 6 6 5 5 5 7 3 4 1 3 2 4 4 4 4 2 5 3 4 6 5 5 5 6 4 5 7 7 7 6 6 6 6 6 6 6 6 6 5 5 5 4 4 4 4 4 4 5 5 5 4 4 4 5 5 5 5 5 5 5 5 5 4 4 4 3 3 3 4 4 4 3 3 3 2 2 2 4 4 4 4 4 2 4 4 4 4 4 2 5 5 5 14 5 6 26 6 7 29 5 5 40 10 10 24 23 18 22 21 19 5 5 5 4 4 4 3 3 1 4 4 4 4 4 2 4 4 4 25 21 18 40 36 27 42 38 27 43 13 13 43 4 5 41 5 5 42 4 3 40 4 4 41 5 5 43 4 5 41 6 4 43 4 5 42 6 6 42 6 6 29 5 5 9 5 4 28 7 6 43 4 5 41 5 5 42 4 3 42 6 6 42 6 6 41 5 7 43 4 5 43 40 33 42 41 36 42 42 34 43 40 35 43 15 12 43 4 5 43 5 4 29 14 11 35 31 22 41 37 26 39 39 29 43 24 20 42 6 8 43 4 5 42 6 6 42 6 6 41 5 5 43 4 5 42 6 6 42 6 6 44 5 6 41 5 5 42 6 6 41 7 5 
3 3 3 4 4 4 4 4 4 4 4 4 3 3 3 3 3 3 6 6 6 6 6 6 5 5 5 5 5 5 4 4 4 4 4 4 4 4 4 4 4 4 3 3 3 5 3 4 7 7 7 8 8 8 8 8 8 6 4 5 6 4 7 6 4 5 5 3 4 3 3 3 4 4 4 4 4 4 6 6 4 5 5 5 6 4 5 3 3 3 4 4 2 3 3 3 4 4 4 4 2 5 5 5 5 6 6 6 5 5 5 4 4 4 3 5 4 5 5 3 19 5 4 43 5 4 43 5 4 41 13 10 42 39 32 40 37 30 23 22 18 19 22 15 4 4 2 3 5 2 5 5 5 5 5 5 38 20 16 43 36 28 41 22 16 41 11 9 42 6 6 44 5 6 41 6 4 41 6 4 40 6 5 40 5 3 42 3 4 41 5 5 41 6 4 34 4 4 16 4 4 5 5 3 13 9 8 40 21 15 41 20 17 43 19 15 41 5 5 42 6 6 41 5 5 42 7 5 44 39 33 42 41 36 43 43 35 41 40 35 42 14 11 41 2 3 27 6 5 13 5 3 28 14 11 41 30 26 41 30 24 43 15 12 41 5 5 43 4 5 43 5 4 42 3 4 42 3 4 41 5 7 44 6 5 42 6 6 43 4 5 42 6 8 42 8 6 42 6 8 
3 3 3 2 2 2 3 3 3 3 3 3 4 4 4 4 4 4 5 5 5 6 6 6 5 5 5 5 5 5 4 4 4 4 4 4 4 4 4 4 4 4 6 6 6 6 6 6 7 7 7 10 10 10 8 10 9 6 6 6 3 3 3 4 4 4 3 3 3 3 3 3 3 3 3 4 4 4 6 6 4 6 6 6 5 5 5 2 4 3 4 2 3 3 3 5 3 3 3 3 3 3 4 4 4 4 2 3 4 4 4 5 5 5 4 4 4 8 8 8 27 11 11 40 2 1 43 3 3 43 13 13 42 39 34 42 39 34 40 40 32 36 36 28 3 5 4 4 4 4 5 5 3 20 6 6 41 7 6 42 25 18 41 7 6 41 5 5 42 6 6 42 6 6 41 5 5 42 6 6 41 5 5 41 5 5 42 12 10 41 11 9 41 5 5 34 6 5 14 4 3 5 3 4 8 8 8 34 29 25 41 37 28 43 36 30 42 6 6 42 7 5 42 6 6 42 8 7 43 38 34 43 39 36 42 41 36 42 42 32 43 13 11 42 3 4 25 5 6 19 5 4 31 5 4 40 14 13 41 15 14 42 6 6 43 4 5 43 4 5 41 6 4 40 4 4 40 4 4 42 11 9 42 18 16 43 19 15 45 17 16 42 6 6 41 7 5 42 6 6 
4 4 4 2 2 2 3 3 3 3 3 3 5 5 5 4 4 4 4 4 4 4 4 4 4 4 4 4 4 4 4 4 4 4 4 4 4 4 4 3 3 3 5 5 5 8 8 8 9 9 9 10 10 10 8 8 8 3 3 3 2 2 2 3 3 3 3 3 3 3 3 3 4 4 4 5 5 5 6 6 6 6 6 6 5 5 5 4 2 3 4 4 4 5 3 4 4 4 4 3 3 3 4 4 4 4 4 4 4 4 4 4 4 4 11 11 9 28 24 21 40 25 22 42 2 2 42 4 3 41 9 10 41 26 23 42 27 22 40 25 20 41 24 17 18 4 3 19 5 5 19 5 5 42 6 6 41 5 5 42 7 5 42 3 4 40 6 7 42 6 6 43 4 5 42 6 8 44 5 6 41 7 6 42 12 12 39 28 22 43 28 23 41 13 10 41 5 5 29 5 5 5 3 4 5 5 5 13 13 11 42 38 29 43 36 28 43 4 5 44 5 6 43 7 7 43 9 8 41 26 23 42 27 22 43 28 25 43 28 25 43 12 9 41 5 5 43 4 5 41 5 5 41 5 5 44 5 6 44 5 6 42 6 6 41 5 5 42 3 4 41 6 4 44 4 5 40 9 7 41 22 18 42 42 32 43 43 35 44 37 29 42 6 6 43 5 4 42 6 6 
4 4 4 3 3 3 3 3 3 4 4 4 4 4 4 4 4 4 4 4 4 4 4 4 4 4 4 4 4 4 4 4 4 4 4 4 4 4 4 4 4 4 5 5 5 8 8 8 11 11 11 9 9 9 8 6 7 2 2 2 3 1 2 3 3 3 3 3 3 4 2 3 4 2 3 4 4 4 6 6 6 6 6 6 5 5 5 4 4 4 4 4 4 4 4 4 4 4 4 4 4 6 3 3 3 3 3 1 4 4 4 11 11 9 30 29 25 42 34 31 40 21 17 43 17 16 43 13 11 43 5 4 43 5 4 40 4 4 40 4 4 43 3 3 40 5 3 41 5 5 41 6 4 42 6 6 41 7 8 41 5 7 40 14 13 42 17 13 44 16 13 41 7 5 42 3 4 43 5 4 43 13 11 41 28 20 42 38 29 44 37 29 42 29 23 41 11 9 31 5 4 19 5 5 19 5 5 23 12 10 41 37 28 43 34 25 42 6 6 41 5 5 44 8 8 44 8 8 43 7 7 44 5 6 42 6 6 43 7 7 41 5 5 42 3 4 41 5 5 39 5 4 43 4 5 43 5 4 43 13 11 42 10 11 43 5 4 45 5 6 43 4 5 41 5 5 41 13 10 42 37 31 43 40 31 42 42 34 43 36 30 43 4 5 41 5 5 42 6 6 
3 3 3 4 4 4 3 3 3 4 4 4 4 4 4 4 4 4 4 4 4 4 4 4 4 4 4 5 5 5 5 5 5 5 5 5 4 4 4 5 5 5 7 5 6 8 8 8 10 10 10 8 8 10 5 5 7 3 1 4 4 2 3 4 2 3 4 2 3 4 4 4 3 3 3 5 5 5 6 6 6 6 6 6 6 6 6 4 4 4 4 4 4 4 4 4 12 3 4 13 4 5 14 4 5 13 3 2 13 3 2 27 15 17 43 32 26 41 22 16 42 18 14 43 40 31 41 32 27 41 5 5 43 4 5 42 4 3 42 3 4 43 5 4 43 3 4 41 5 5 41 7 6 41 5 5 42 8 7 41 6 4 40 31 22 42 38 29 42 39 30 42 12 10 42 3 4 41 2 3 40 21 15 42 33 26 42 38 29 42 38 29 41 37 28 41 24 17 43 4 5 43 4 5 43 4 5 42 11 9 41 28 22 41 26 19 43 7 7 43 7 7 42 8 7 43 7 7 43 7 7 42 6 6 44 5 6 44 8 8 41 5 5 42 3 4 43 4 5 41 5 5 41 6 4 41 10 8 41 26 21 41 26 19 44 14 14 42 12 10 42 6 6 41 5 5 41 13 10 43 39 30 43 40 31 44 40 31 43 34 29 43 7 7 42 6 6 42 6 6 
3 3 3 5 5 5 4 4 4 4 4 4 3 3 3 3 3 3 4 4 4 4 4 4 4 4 4 4 4 4 5 5 5 5 5 5 5 5 5 6 4 5 6 4 5 6 6 6 8 8 8 8 8 8 5 5 5 3 3 3 2 4 3 3 3 3 4 4 4 5 5 5 5 5 5 5 5 5 5 5 5 6 4 5 5 5 5 5 3 4 13 4 5 14 4 3 34 6 3 44 6 5 44 3 7 43 3 4 43 3 4 43 3 4 43 4 5 42 3 4 41 16 12 40 29 23 43 24 20 41 5 5 43 5 4 43 4 5 40 4 4 41 13 10 42 12 10 42 3 4 41 5 5 44 5 6 42 6 6 42 11 9 42 35 27 42 42 34 43 40 33 42 14 13 43 3 4 43 3 3 42 3 4 43 18 14 41 30 24 42 29 23 39 29 20 42 18 14 43 4 7 41 5 5 41 5 5 40 5 3 43 4 5 43 7 7 41 7 6 40 9 7 42 8 7 43 7 7 42 8 6 44 8 8 42 12 10 43 15 12 43 15 14 42 6 6 41 3 2 41 5 7 43 4 5 42 25 18 42 38 29 42 42 34 43 43 33 43 28 23 42 6 6 40 4 4 38 13 9 41 37 26 43 40 33 41 37 28 41 26 21 45 6 7 41 7 6 45 6 7 
4 4 4 6 6 6 6 6 6 4 4 4 3 3 3 3 3 3 3 3 3 3 3 3 3 3 3 4 4 4 5 5 5 6 6 6 8 8 8 8 8 8 6 6 6 7 7 7 8 8 8 7 7 7 7 5 6 5 5 5 4 4 4 4 4 6 5 5 5 5 5 5 5 7 6 5 5 5 6 4 5 7 5 6 5 5 5 13 5 3 34 4 4 40 4 4 43 4 5 42 6 6 44 5 6 44 5 6 43 3 4 43 5 4 42 8 7 42 12 10 42 12 10 41 10 8 41 6 4 42 7 5 41 6 4 42 3 4 42 17 13 41 38 29 42 38 29 41 13 10 45 6 7 43 7 7 43 4 5 41 26 21 42 38 29 43 40 33 41 40 35 42 14 13 43 5 4 42 3 4 42 4 3 42 7 5 42 7 5 41 6 4 40 4 4 40 4 4 44 4 4 43 4 5 43 4 5 41 5 5 40 6 5 42 14 13 42 14 11 43 7 7 43 7 7 43 9 8 42 8 7 42 6 6 41 34 26 42 39 30 41 40 35 41 20 15 42 6 6 42 3 4 43 4 5 40 25 20 42 38 29 41 41 33 44 41 32 43 28 25 42 6 6 41 7 6 40 12 9 42 29 23 42 29 21 43 25 23 41 7 6 41 7 8 42 6 6 41 5 5 
4 4 4 7 7 7 8 8 8 6 6 6 4 4 4 3 3 3 4 4 4 3 3 3 3 3 3 5 5 5 6 6 6 7 7 7 8 8 8 8 8 8 8 8 8 9 9 9 13 11 12 13 9 10 11 7 6 8 7 5 4 4 4 4 4 6 4 4 4 5 5 5 7 7 7 6 6 6 6 4 5 11 5 5 10 6 7 39 5 4 41 6 4 39 3 3 43 4 5 41 5 5 42 6 6 40 4 4 42 3 4 40 5 3 41 20 17 41 38 29 41 38 29 40 27 21 40 6 5 42 6 6 43 5 4 43 9 8 42 39 30 40 37 30 42 38 29 41 38 31 43 9 8 42 8 6 41 5 5 40 4 4 42 31 25 41 36 30 38 35 28 39 15 13 37 7 7 36 4 5 40 4 4 43 7 7 41 7 6 41 5 5 41 5 5 42 3 4 42 3 4 40 4 4 43 3 3 40 6 5 38 14 12 43 36 28 45 38 30 41 10 8 42 8 7 44 9 7 43 7 7 42 6 6 42 35 27 43 39 30 43 40 33 41 41 33 42 14 11 43 4 5 42 6 6 43 24 20 42 35 29 42 39 30 42 37 31 42 27 22 44 5 6 39 8 6 39 5 6 42 6 6 41 5 5 44 5 6 42 6 6 42 6 6 44 6 5 42 6 6 
10 6 7 7 7 7 8 8 6 6 6 6 5 5 5 4 6 5 5 3 4 4 4 4 5 5 5 6 6 6 9 7 8 9 9 11 7 7 7 7 7 7 8 8 8 22 18 17 41 37 28 43 30 24 41 7 6 35 5 5 8 4 3 4 4 4 4 4 4 4 4 4 6 6 4 7 6 4 6 6 8 37 6 4 44 5 6 42 6 6 44 5 6 42 3 4 41 11 9 43 7 7 43 4 5 42 4 3 42 3 4 44 4 5 42 21 18 42 39 30 40 37 30 24 23 18 15 7 5 44 5 6 42 7 5 44 8 8 42 35 27 41 38 29 42 39 30 41 36 30 41 7 6 41 7 6 43 4 5 42 6 6 44 6 5 43 3 4 18 2 2 6 7 2 6 6 6 7 7 5 31 7 5 43 7 7 41 7 6 41 7 6 41 5 5 42 3 4 42 4 3 43 4 5 41 5 5 41 11 11 39 36 31 40 40 30 42 42 34 42 39 32 41 7 8 38 8 8 43 7 7 42 6 6 42 35 29 43 40 33 42 39 32 43 36 30 41 16 12 43 4 5 42 6 8 42 8 7 42 21 16 42 35 29 43 22 19 42 8 7 42 6 6 31 5 4 20 6 6 41 5 5 42 8 6 42 11 8 40 10 10 41 5 5 42 6 6 42 6 6 
40 4 4 8 6 7 6 6 4 6 6 6 4 5 7 5 5 5 6 4 5 5 5 5 5 5 5 6 8 7 9 11 10 8 8 8 7 5 6 6 6 6 8 8 8 23 19 16 43 36 30 42 27 20 42 8 7 42 6 6 36 5 3 8 4 5 3 3 3 5 3 4 6 6 6 11 7 6 9 5 4 39 5 4 39 5 4 42 6 6 41 9 10 41 10 7 42 28 25 41 20 17 41 7 6 42 6 6 42 4 3 43 3 3 42 21 18 41 38 31 29 28 23 8 8 6 18 8 7 43 7 7 44 5 6 42 3 4 42 8 6 42 35 29 41 31 29 41 32 27 42 6 6 42 6 6 41 5 5 42 6 6 43 5 4 43 3 3 43 3 3 18 4 4 10 4 4 31 5 6 43 8 6 42 6 6 39 8 6 41 11 11 41 11 9 42 11 9 42 6 6 41 5 5 41 6 4 42 13 9 42 37 31 43 40 33 41 37 34 43 38 34 42 6 8 13 7 11 42 6 6 42 6 6 42 31 29 45 36 31 42 35 29 42 16 15 42 8 7 42 6 6 42 6 6 42 7 5 42 8 7 42 8 9 43 9 10 42 8 9 42 6 6 43 7 7 43 4 5 42 6 6 42 14 13 43 38 32 42 35 27 43 9 8 40 10 8 42 6 6 
5 3 6 8 6 7 7 7 7 6 6 6 5 5 5 3 3 3 4 4 4 5 5 5 5 3 4 6 6 6 7 7 7 6 6 6 6 6 4 7 5 6 19 18 16 41 36 30 41 26 21 42 6 6 41 7 8 43 7 7 42 4 3 36 4 5 4 4 4 4 4 4 6 6 6 41 5 5 42 3 4 42 7 5 42 6 6 42 6 6 40 30 28 40 40 32 42 37 34 42 38 29 41 41 33 42 18 14 42 3 4 43 3 3 41 20 17 41 36 30 43 40 31 42 39 32 42 31 27 42 6 8 42 7 5 43 3 3 41 3 2 42 6 6 41 3 2 41 3 2 42 8 7 41 6 4 42 3 4 42 3 4 42 3 4 42 3 4 42 2 2 43 4 5 41 5 5 42 6 8 41 5 5 44 5 6 42 23 19 43 39 30 42 37 31 41 38 31 41 26 23 43 4 5 41 5 5 42 12 12 43 39 30 42 39 34 43 38 32 42 39 32 42 7 5 43 7 9 43 7 7 41 7 6 43 7 7 43 9 8 42 6 6 42 6 6 42 8 7 42 6 8 43 4 5 42 6 6 43 9 8 42 8 7 41 9 10 42 6 6 41 5 5 42 6 6 43 4 5 43 4 5 42 12 12 42 37 33 41 38 29 42 38 29 42 39 30 42 6 6 
4 4 4 5 3 4 6 4 5 5 5 5 4 4 4 2 2 2 3 3 3 5 3 4 5 5 5 5 5 5 6 6 6 7 5 6 6 6 8 6 6 8 19 4 7 42 6 6 42 8 7 43 9 8 42 8 7 41 7 6 45 5 5 43 4 5 42 3 4 43 4 5 40 37 30 42 39 34 42 39 32 42 11 9 41 5 5 42 7 5 42 31 27 42 39 32 42 39 30 42 39 30 42 39 32 42 18 14 43 3 3 41 2 3 42 2 3 42 14 10 43 38 32 41 26 21 44 6 5 41 6 4 43 4 7 44 5 6 41 5 5 41 5 5 39 4 2 42 7 5 43 7 7 42 6 6 43 4 5 42 3 4 44 4 4 41 30 26 44 41 36 39 40 34 41 17 15 39 5 6 43 5 4 41 5 5 43 24 20 43 40 33 43 38 32 41 38 31 42 24 20 42 3 4 42 3 4 41 5 5 41 10 7 41 38 33 44 40 31 42 39 30 41 5 5 43 8 6 44 10 9 41 7 6 42 6 6 42 6 6 45 6 7 42 6 8 42 6 6 42 7 5 41 6 4 43 4 5 42 6 6 43 22 19 41 37 28 40 25 18 41 5 5 41 5 5 41 5 5 41 5 5 42 14 11 41 37 28 42 39 32 44 40 31 40 36 27 44 5 6 
