P3
100 50
255
2 2 2 0 0 0 1 1 1 0 0 0 1 1 1 1 1 1 1 1 1 48 40 29 65 53 39 67 53 40 64 55 40 65 58 42 64 58 42 66 54 40 64 52 36 63 50 34 63 51 37 63 54 39 65 53 39 65 53 39 64 55 38 67 51 38 63 47 32 62 46 31 63 50 33 63 51 35 64 48 32 63 47 31 61 48 32 63 50 33 63 52 34 65 53 37 67 51 38 64 51 35 62 50 34 65 51 38 64 51 35 63 50 34 65 49 36 62 49 33 63 47 32 63 47 32 63 51 37 65 55 43 66 56 44 63 54 39 64 52 38 64 52 38 64 52 38 64 48 35 65 49 33 63 50 34 62 49 33 63 50 33 63 47 31 63 47 32 63 49 36 64 52 38 65 53 37 64 52 36 62 50 34 61 48 32 63 47 32 63 50 34 64 52 36 65 53 39 65 53 41 64 52 38 63 54 39 63 54 37 64 55 40 65 53 39 63 51 39 62 48 35 62 46 33 61 43 31 61 45 30 63 50 34 63 51 37 64 52 40 63 51 37 64 52 40 61 51 39 62 50 36 62 50 36 61 49 35 60 47 31 61 45 30 60 47 30 61 48 31 60 47 31 62 44 30 58 39 25 60 41 27 61 44 28 62 45 29 60 41 27 58 39 24 60 43 27 58 44 31 
0 0 0 1 1 1 0 0 0 1 1 1 1 1 1 0 0 0 1 1 1 48 40 29 64 52 38 65 53 39 67 58 43 67 60 44 67 58 43 64 58 42 65 53 39 64 52 36 63 54 39 65 53 39 64 55 40 66 54 40 66 54 40 65 52 36 63 47 32 62 45 29 60 43 27 61 45 29 65 48 32 62 49 32 63 50 34 63 50 34 66 50 34 63 51 35 64 52 36 64 52 36 65 49 34 65 49 34 64 48 33 62 49 33 63 47 34 63 47 32 63 47 32 64 48 32 65 53 39 65 53 39 65 56 41 63 54 39 65 53 39 64 52 38 64 55 40 65 51 40 63 49 36 63 50 34 63 50 34 62 49 33 62 49 33 62 49 33 63 49 36 64 52 38 62 53 38 64 55 40 63 53 41 65 53 39 62 51 33 64 52 36 63 54 39 64 54 42 65 53 39 64 52 38 66 54 40 66 54 40 64 55 40 65 51 38 62 48 37 59 47 33 62 46 33 62 44 32 61 47 36 62 50 34 64 52 38 60 52 39 63 51 37 61 52 37 62 50 36 63 49 36 62 50 36 64 52 38 62 50 36 61 47 34 59 50 33 61 49 33 62 46 30 62 44 30 63 44 29 62 45 29 61 44 28 59 43 28 60 40 29 57 38 24 60 42 28 58 46 32 
0 0 0 1 1 1 0 0 0 0 0 0 1 1 1 0 0 0 1 1 1 48 40 29 63 51 37 63 54 39 65 58 42 67 58 43 66 57 42 66 57 42 65 56 41 66 52 39 65 53 39 66 54 38 64 55 40 66 54 40 66 54 38 65 53 37 63 47 31 63 44 29 61 43 29 61 45 29 63 47 32 64 48 35 62 50 36 62 49 33 63 50 34 62 54 35 65 53 37 64 52 38 63 49 36 64 48 35 62 48 35 63 49 38 64 48 35 62 45 35 63 45 33 62 50 36 62 53 38 65 53 39 63 53 41 65 53 41 66 54 40 64 54 42 68 56 42 67 55 43 61 47 34 62 46 30 63 47 32 63 50 34 63 50 34 62 48 37 63 50 34 63 51 37 64 52 36 65 53 39 63 54 39 65 53 39 65 51 38 64 52 38 64 55 38 66 54 40 64 52 40 65 53 39 64 52 40 65 53 39 63 53 41 64 50 39 61 47 34 59 45 32 61 45 32 63 45 33 63 47 34 62 48 35 63 50 34 61 49 35 60 51 36 62 50 36 62 48 35 62 48 35 63 51 37 62 53 38 60 51 36 62 50 34 61 49 35 60 46 33 61 45 30 63 44 29 63 46 30 61 45 29 60 44 29 62 46 31 60 42 28 57 40 24 59 42 26 58 46 32 
1 1 1 0 0 0 1 1 1 0 0 0 1 1 1 1 1 1 1 1 1 49 41 30 64 52 38 66 54 40 66 57 42 66 59 43 66 59 43 67 55 41 67 55 41 65 53 39 66 54 38 64 55 40 65 53 39 65 53 37 66 54 38 65 52 36 61 48 32 63 44 29 63 46 30 61 48 32 62 48 35 62 50 34 64 51 35 62 49 32 63 50 34 62 50 34 64 51 34 63 50 34 63 49 36 65 49 36 64 48 35 63 49 36 67 51 38 64 50 39 62 46 31 63 51 35 62 53 38 63 51 37 65 53 41 65 53 39 63 55 42 64 57 41 65 56 39 66 56 44 63 49 36 60 44 29 60 46 33 63 50 34 63 49 36 63 49 36 62 50 36 63 51 37 62 50 36 62 50 36 64 52 38 65 53 41 63 51 39 61 51 39 63 54 39 63 54 39 62 53 38 63 54 39 65 53 39 66 52 41 62 52 40 64 52 38 63 49 36 62 46 33 61 45 32 63 45 33 64 48 35 62 48 35 62 48 35 63 47 34 61 48 32 61 49 33 63 47 32 64 48 35 63 49 36 64 50 37 62 50 36 63 51 37 62 48 37 61 48 32 63 47 32 62 44 30 62 44 30 60 44 29 63 47 32 62 46 31 61 45 32 61 45 30 58 40 26 57 43 30 
0 0 0 1 1 1 0 0 0 1 1 1 0 0 0 1 1 1 0 0 0 49 41 30 65 53 39 65 53 39 66 54 40 66 57 42 66 57 42 65 56 41 65 56 41 64 55 40 64 54 42 65 53 39 64 52 36 64 51 35 66 50 35 62 50 36 63 50 34 63 47 31 62 49 33 63 50 33 63 51 35 62 50 36 62 48 35 62 49 33 62 49 32 62 49 33 62 48 35 64 48 33 63 50 34 63 49 36 63 49 36 62 48 35 66 50 37 65 49 36 62 46 31 65 53 37 65 53 39 63 51 35 62 52 40 63 54 39 64 57 41 62 55 39 64 55 40 64 56 43 64 50 37 60 46 33 60 48 34 62 50 34 62 50 36 63 49 36 62 48 35 61 49 35 61 49 33 62 51 33 62 50 34 65 53 39 65 53 41 63 51 37 60 53 37 62 53 38 65 56 41 65 56 41 63 54 39 62 50 36 61 49 37 63 49 36 60 46 33 60 46 33 62 46 33 64 48 35 64 47 37 63 49 36 64 48 35 63 45 33 59 46 30 61 45 30 59 46 30 61 45 32 62 46 33 61 47 34 62 48 35 63 50 34 59 47 33 59 45 32 61 45 30 60 42 28 61 43 29 62 44 32 63 47 34 63 47 32 61 43 31 62 44 30 59 43 28 58 44 31 
0 0 0 1 1 1 1 1 1 1 1 1 1 1 1 1 1 1 1 1 1 49 41 30 63 54 39 65 53 39 66 54 40 65 56 41 64 55 40 65 56 41 66 57 42 68 56 42 65 53 41 63 51 37 63 50 34 65 49 34 65 47 33 63 50 34 64 53 35 67 51 36 65 52 36 63 50 34 62 53 36 64 51 35 62 50 36 64 53 35 63 51 37 27 22 18 17 12 9 43 33 24 63 49 36 64 51 35 66 53 37 65 52 36 62 48 35 63 47 32 63 47 32 63 51 37 63 54 39 62 48 35 65 51 40 64 55 40 67 55 41 62 53 38 63 54 39 64 55 40 64 50 37 61 49 35 64 52 38 65 49 36 62 48 35 62 48 35 62 46 33 60 46 33 62 48 35 62 49 33 63 51 35 64 55 40 64 54 42 64 50 37 62 48 35 62 48 37 63 51 37 63 54 37 62 53 38 61 49 35 60 46 33 63 47 34 62 46 33 61 45 32 63 50 34 64 51 35 65 49 36 63 46 36 64 48 35 63 47 34 61 45 30 59 43 28 60 44 29 60 44 31 61 43 31 61 43 31 63 46 36 62 48 35 60 46 33 59 46 30 62 46 31 62 46 31 61 45 32 63 47 34 63 47 34 63 45 31 61 43 31 63 44 30 62 46 30 58 44 31 
1 1 1 1 1 1 0 0 0 1 1 1 0 0 0 1 1 0 1 1 1 49 41 30 63 54 37 63 54 39 64 55 38 65 56 41 64 55 40 65 58 42 65 58 42 66 57 40 65 53 39 63 50 34 62 49 33 64 48 33 63 47 32 62 50 34 63 55 36 63 55 36 64 52 36 63 51 37 63 51 37 64 51 35 62 50 34 64 53 35 63 51 35 51 41 31 48 38 29 58 46 34 62 49 33 64 51 35 64 52 38 65 53 41 61 47 34 60 47 31 64 48 33 63 51 37 64 52 38 62 50 36 65 51 38 64 52 38 65 53 39 63 51 35 62 53 38 64 52 38 63 49 38 63 49 38 64 52 38 61 49 35 62 50 38 62 50 36 60 49 31 62 48 35 61 49 33 63 51 37 64 52 38 66 56 44 64 54 42 62 50 36 63 49 36 62 48 35 62 48 35 63 51 37 64 54 42 63 51 39 61 47 34 64 48 33 60 46 33 61 48 32 62 48 35 63 51 39 64 50 37 63 47 34 61 45 32 62 46 31 61 45 30 61 43 29 60 42 28 60 44 29 60 44 29 60 44 29 62 46 33 61 49 35 60 48 32 61 48 32 63 47 34 64 46 34 64 46 34 63 47 34 62 48 35 62 46 33 62 44 32 61 45 30 62 46 31 58 46 32 
0 0 0 1 1 1 0 0 0 1 1 1 1 1 1 0 0 0 1 1 1 49 40 31 66 54 40 64 55 40 65 56 41 66 57 42 65 56 41 65 56 41 65 56 41 65 57 44 63 54 39 63 49 36 62 49 33 62 49 32 64 48 32 63 50 34 64 53 35 63 51 35 62 50 34 63 50 34 64 52 38 63 51 37 62 49 33 63 51 37 61 52 35 64 52 38 65 51 38 63 49 36 65 49 36 65 49 36 64 50 37 64 50 37 63 47 32 62 49 33 65 51 38 64 52 38 64 52 38 61 49 37 66 53 37 63 51 35 64 52 38 61 52 37 63 51 37 64 52 38 65 51 40 64 50 39 63 49 36 60 46 33 62 48 35 62 50 34 61 47 34 62 48 35 64 51 35 63 54 39 65 56 41 66 57 42 61 54 38 62 48 35 62 48 35 62 49 33 61 47 34 62 50 36 63 56 40 64 52 38 61 49 35 61 47 34 61 47 34 61 48 32 62 50 36 64 52 40 64 52 38 59 45 32 61 43 31 61 45 30 64 48 33 63 47 32 62 44 30 61 43 31 59 43 30 61 43 29 60 44 28 59 47 31 64 51 35 62 49 33 64 48 35 62 48 35 63 47 34 62 46 33 60 46 33 62 46 33 60 44 31 60 44 29 63 45 31 58 44 31 
1 1 1 0 0 0 0 0 0 1 1 1 0 0 0 1 1 1 0 0 0 48 41 31 64 55 40 65 56 41 65 56 41 64 57 41 63 56 40 63 56 40 64 57 41 64 57 41 64 55 40 64 50 37 63 49 36 63 50 34 63 50 33 64 48 33 64 48 32 62 51 33 61 49 33 64 51 35 63 53 41 62 50 36 63 50 34 62 50 34 64 52 36 64 52 38 63 49 36 64 48 35 63 49 36 64 48 35 63 49 36 64 50 37 65 49 36 63 49 36 63 51 37 63 51 37 62 48 35 61 47 34 63 49 36 61 47 34 63 51 37 61 52 37 64 52 38 60 51 34 64 52 38 64 50 39 63 49 38 62 48 35 64 51 35 61 49 33 61 47 34 63 47 32 64 51 35 63 54 39 65 56 41 63 54 39 62 50 36 64 48 35 61 47 34 62 48 35 62 49 32 63 51 35 64 55 40 64 52 38 61 49 35 60 48 34 61 47 34 63 50 34 63 49 36 64 52 40 61 49 35 61 47 34 61 45 32 60 44 29 60 48 32 60 47 31 62 46 31 61 43 31 61 43 29 61 43 29 63 45 31 61 48 32 63 50 34 62 48 35 60 48 34 61 47 34 62 46 33 63 44 30 60 44 29 58 40 28 60 42 28 60 44 29 61 43 29 58 44 31 
1 1 1 0 0 0 1 1 1 0 0 0 1 1 1 1 1 1 1 1 1 49 43 31 64 54 42 64 54 42 64 55 40 64 55 40 63 54 39 63 53 41 65 56 41 64 55 40 62 53 38 63 51 37 63 51 37 63 51 37 62 50 34 64 48 33 63 47 31 62 49 32 63 47 31 64 50 37 62 50 36 62 50 36 64 51 35 63 51 37 61 52 35 64 52 38 63 51 39 63 51 37 63 49 36 61 47 34 65 47 35 65 49 36 64 50 37 62 50 36 61 49 33 65 49 36 63 49 36 63 50 34 62 48 35 63 50 34 64 50 37 63 51 37 64 52 38 62 50 36 64 52 38 64 52 38 64 50 39 63 49 36 64 51 35 63 50 34 60 47 31 60 47 31 62 49 33 63 51 37 62 53 38 64 52 38 63 49 36 65 49 36 62 48 35 64 48 35 63 50 34 62 53 38 63 54 39 64 52 38 62 50 36 61 47 36 63 47 34 63 50 34 63 50 34 61 47 36 60 46 35 63 47 34 59 47 33 58 45 29 60 47 31 59 46 30 62 46 31 61 43 31 61 43 29 62 43 29 61 45 30 62 49 33 62 50 34 61 49 35 61 47 34 60 44 31 60 42 28 62 43 29 60 42 28 60 40 29 59 40 26 59 41 27 59 41 27 58 44 31 
0 0 0 1 1 1 0 0 0 0 0 0 0 0 0 1 1 1 2 0 1 48 41 31 65 55 43 64 54 42 64 55 40 64 55 40 63 54 39 65 53 41 65 53 39 63 54 39 64 52 38 63 51 37 62 53 38 63 54 39 61 52 37 63 50 34 64 48 33 63 50 34 63 50 34 64 50 37 65 53 37 63 50 34 62 48 35 64 51 35 64 50 37 64 52 38 63 54 39 65 53 39 63 51 37 62 48 35 63 49 36 64 50 37 65 51 38 64 50 37 63 49 36 63 51 37 64 52 36 67 51 36 63 50 34 63 51 35 63 51 37 64 50 37 64 50 37 62 50 36 64 52 38 64 52 38 65 53 41 64 50 37 66 50 37 64 51 35 63 50 33 64 48 33 61 48 32 61 52 37 63 51 37 64 50 37 62 50 36 62 50 34 63 49 36 63 50 34 64 50 37 65 53 39 63 53 41 64 52 38 64 50 37 63 49 38 65 48 38 63 47 32 63 47 32 61 45 32 62 48 35 62 50 36 61 49 35 59 45 32 61 45 32 62 44 32 62 44 30 60 44 29 60 42 28 62 44 30 62 46 30 62 48 35 61 52 37 60 51 36 63 47 34 61 43 31 60 42 28 60 44 29 61 45 30 62 43 29 62 39 25 59 40 25 60 43 27 58 46 32 
0 0 0 0 0 0 2 2 2 1 1 1 0 0 0 0 0 2 25 22 17 57 51 39 65 56 41 65 56 41 64 55 40 64 55 40 64 55 40 63 54 39 66 54 40 64 52 38 65 53 39 65 53 39 63 54 39 62 55 39 60 52 39 63 51 35 63 50 34 62 50 34 64 51 35 63 53 41 62 53 36 65 52 36 64 51 35 62 49 33 64 50 37 65 53 39 63 54 39 64 52 38 64 50 37 62 48 35 63 49 36 65 53 39 65 51 38 64 50 39 64 51 35 64 52 38 62 53 38 64 52 36 62 50 34 62 50 34 62 50 36 67 51 38 64 50 37 62 50 36 63 51 37 64 52 36 65 53 41 65 51 38 64 51 35 64 51 35 63 52 34 61 49 33 61 49 33 64 52 36 63 51 35 63 49 36 61 47 34 62 50 34 63 51 37 64 50 37 63 51 37 64 52 38 63 50 41 63 51 37 62 53 38 64 50 39 63 49 36 61 48 32 63 47 34 61 45 32 62 48 35 63 51 37 60 48 32 61 45 32 63 45 33 62 42 33 61 43 29 60 44 29 60 44 29 62 46 31 60 48 32 62 50 36 63 54 39 62 53 38 61 47 34 62 44 32 62 44 30 60 44 29 62 46 31 61 42 28 60 36 24 59 40 25 61 44 28 57 45 31 
1 1 1 1 1 1 1 1 1 0 0 0 1 1 1 0 0 0 48 44 33 65 57 44 64 55 40 63 54 37 64 55 38 65 53 37 66 54 38 64 55 38 63 54 39 66 54 40 65 53 37 66 54 40 64 52 38 63 54 39 63 53 41 65 53 37 66 50 35 63 52 34 64 52 36 65 53 39 63 54 37 65 53 37 63 49 36 60 47 31 62 50 34 63 54 37 65 53 39 65 51 38 63 54 39 64 50 37 63 49 36 64 52 36 64 51 35 63 50 34 64 51 35 63 51 37 62 53 38 64 52 38 63 51 37 63 51 37 63 49 36 64 51 35 65 49 36 62 50 36 63 51 35 64 51 34 65 52 36 62 49 33 62 49 33 63 50 34 62 50 34 62 50 34 63 50 33 65 53 39 63 51 37 62 48 35 62 48 35 62 48 35 62 48 35 64 50 37 64 52 38 62 50 36 60 48 34 62 50 36 62 53 38 65 48 38 63 49 36 62 48 35 64 48 33 59 45 32 62 48 35 62 49 33 59 46 30 61 43 29 61 45 30 61 43 31 60 42 30 57 43 30 62 46 31 62 48 37 63 51 37 64 52 38 65 53 39 63 51 37 62 48 35 62 46 31 63 45 31 61 43 29 62 43 29 61 42 28 59 40 26 60 42 28 60 42 28 55 43 31 
1 1 1 1 1 1 1 1 1 0 0 0 1 1 1 1 1 1 50 43 33 67 57 45 66 54 40 65 53 39 65 53 37 64 52 36 64 52 36 64 52 38 65 53 39 65 53 39 66 54 40 65 53 39 62 50 34 64 52 36 65 53 37 64 55 38 64 52 38 64 51 35 64 52 36 65 53 37 63 54 37 63 51 35 63 47 34 60 44 29 62 49 30 63 52 34 62 50 34 65 52 36 65 51 38 63 49 36 63 49 36 63 51 37 62 53 38 63 49 36 62 50 36 63 51 37 65 53 39 64 52 40 64 52 38 64 50 37 65 51 38 63 49 36 62 48 35 62 49 33 62 49 33 62 48 35 62 49 33 63 47 32 63 47 31 60 47 30 61 47 34 62 48 35 63 51 35 66 54 40 66 52 39 63 49 36 65 51 38 62 48 35 64 48 35 63 49 38 63 51 37 60 48 32 58 45 29 62 50 36 61 52 37 62 45 35 61 45 32 62 48 35 64 48 35 58 44 31 59 45 32 62 46 33 60 44 28 61 45 29 61 44 28 62 42 31 60 42 30 61 43 31 62 46 33 63 49 38 64 52 38 64 52 38 63 51 37 64 48 35 60 46 33 61 45 30 59 46 30 61 43 29 61 42 28 61 42 28 63 45 31 60 44 29 62 44 30 56 42 31 
1 1 1 0 0 0 1 1 1 1 1 1 1 1 1 0 0 0 50 43 33 66 58 45 64 55 40 63 51 37 62 53 38 64 53 35 60 51 34 63 54 39 65 53 37 64 52 38 63 51 37 64 52 38 62 50 34 62 51 33 65 57 38 65 58 40 65 53 39 64 51 35 62 50 34 63 51 35 63 54 37 64 51 35 62 45 35 60 42 28 61 45 29 62 49 30 64 51 34 62 50 34 63 51 35 62 49 33 64 48 33 65 51 38 63 51 37 63 49 36 63 51 37 65 53 39 63 53 41 63 53 41 62 50 36 64 52 38 64 52 36 63 51 37 64 48 35 61 48 32 61 48 32 62 46 31 60 47 31 62 46 33 61 45 30 61 45 30 62 46 31 62 50 34 63 51 35 64 52 36 64 52 38 64 52 38 62 50 36 61 49 35 62 46 33 64 48 35 61 48 32 58 46 32 60 47 31 63 51 37 61 52 37 61 45 32 60 44 31 63 46 36 64 48 35 58 44 31 60 44 29 61 44 34 59 45 32 62 46 30 60 44 28 62 43 29 60 42 28 61 43 31 61 47 34 63 49 36 63 51 37 63 51 37 62 50 34 63 47 32 62 44 30 62 44 30 60 44 31 59 43 30 60 42 30 60 42 28 62 45 29 61 43 29 59 43 28 56 44 30 
1 1 1 1 1 1 0 0 0 1 1 1 0 0 0 1 1 1 50 43 33 67 57 45 65 53 39 62 51 33 61 49 33 60 48 32 63 51 35 64 52 36 65 53 37 63 50 34 64 51 35 64 51 35 61 49 35 61 52 35 65 56 39 64 57 41 66 54 40 64 50 37 62 50 34 64 52 36 64 52 36 64 52 36 63 47 32 61 43 29 62 45 29 62 49 30 62 50 34 62 49 33 65 47 33 64 48 33 63 50 34 64 50 37 63 51 37 63 49 36 63 51 37 64 52 38 64 52 38 64 52 38 64 52 38 64 52 38 62 53 38 65 51 40 62 49 33 60 47 31 61 48 31 63 45 31 63 47 32 63 47 32 62 45 29 62 44 30 64 48 35 62 53 38 63 54 39 62 53 38 63 51 37 60 51 36 62 50 36 64 48 35 64 46 32 60 47 31 62 46 31 59 46 30 60 48 32 64 52 36 62 53 38 60 48 34 62 46 33 63 47 34 61 47 34 61 47 34 61 45 32 62 44 32 61 45 32 62 46 31 61 45 30 61 43 29 60 44 31 62 46 33 65 49 36 63 49 36 63 49 36 64 50 37 61 47 34 62 46 31 61 43 29 61 45 30 61 45 30 59 46 30 60 44 31 58 45 29 61 45 30 61 45 30 60 44 29 57 45 33 
1 1 1 1 1 1 1 1 1 0 0 0 1 1 1 1 1 1 50 43 33 65 55 43 64 52 36 63 51 35 62 50 34 63 50 33 62 50 34 63 51 35 64 51 35 63 47 32 64 48 33 63 50 34 63 47 32 61 52 35 63 54 37 64 57 41 66 54 40 64 52 38 64 52 36 62 51 33 64 51 35 63 52 34 62 49 32 62 43 28 62 44 30 61 48 31 61 48 32 64 48 33 64 48 33 63 50 34 64 51 34 63 51 35 64 50 37 63 49 36 64 50 37 64 52 38 63 51 35 64 50 37 64 50 37 63 51 37 63 51 35 63 51 35 61 49 35 61 47 36 62 46 33 64 48 33 62 49 33 61 49 33 61 50 32 61 48 32 64 50 37 65 53 39 63 54 39 64 52 38 61 49 35 62 50 36 61 47 34 63 47 34 62 44 30 59 43 28 60 43 27 59 46 30 60 48 32 62 50 34 63 49 36 59 47 33 62 48 35 61 47 34 61 48 32 61 48 32 61 48 32 60 44 31 61 45 30 61 45 32 60 47 31 61 45 30 60 46 33 64 48 35 64 50 37 63 49 36 62 48 35 64 48 35 62 46 33 61 45 32 60 44 29 61 45 30 61 48 32 61 48 32 59 46 30 57 48 31 62 48 35 62 48 35 61 45 30 57 45 31 
1 1 1 1 1 1 1 1 1 1 1 1 0 0 0 1 1 1 51 43 32 64 55 40 63 51 37 64 52 36 66 54 38 63 51 35 63 50 34 61 48 32 61 48 32 63 47 31 62 49 33 63 50 34 62 49 33 64 51 35 63 54 37 64 55 40 66 54 40 64 52 36 63 51 35 62 50 34 63 50 34 62 50 34 62 49 32 61 42 28 62 44 30 63 50 34 63 49 36 64 51 35 64 48 33 63 47 32 63 50 34 63 49 36 64 50 37 64 52 38 63 51 37 64 50 37 61 49 35 61 49 35 64 48 33 62 49 33 63 51 35 61 52 35 63 51 37 62 48 35 62 46 33 60 47 31 62 50 34 60 48 32 61 52 35 63 51 37 64 52 36 64 52 38 65 51 38 63 51 37 65 49 36 62 48 35 61 47 34 63 47 34 62 45 35 59 43 28 61 44 28 61 48 31 62 50 34 60 48 34 63 45 33 61 45 32 61 49 35 60 48 34 59 45 32 60 47 31 60 47 31 61 45 32 58 42 29 59 43 30 58 45 29 60 46 33 62 48 35 63 49 36 62 48 35 61 47 34 61 47 34 65 49 36 62 46 33 61 43 29 61 43 29 61 45 30 62 46 33 60 47 31 60 47 31 61 47 34 64 50 37 65 49 36 62 44 30 57 43 30 
1 1 1 1 1 1 0 0 0 1 1 1 0 0 0 1 1 1 50 42 31 66 54 40 63 51 35 63 54 37 66 54 38 62 53 38 62 48 35 62 46 33 62 46 31 63 47 32 62 49 32 62 49 33 62 46 31 63 49 36 65 53 37 64 57 39 65 53 39 64 52 36 63 50 33 62 50 34 63 50 34 64 53 35 61 50 32 61 43 29 63 47 32 64 51 35 63 51 37 64 50 37 62 49 33 62 48 35 62 49 33 62 48 35 64 50 37 62 50 36 62 50 36 63 49 36 62 48 35 62 48 35 63 47 32 63 47 32 63 50 33 62 53 36 63 51 37 62 48 35 62 49 33 62 49 33 63 50 34 61 50 32 64 52 36 64 52 36 66 54 38 68 52 37 64 52 38 66 52 39 64 52 38 62 48 35 63 47 34 60 48 34 62 46 33 61 45 30 61 45 29 60 47 31 62 50 34 63 47 34 62 44 32 62 46 31 61 49 33 62 50 38 62 46 33 62 44 30 61 45 30 62 44 32 59 41 27 59 43 28 59 46 30 62 46 33 64 48 35 65 49 36 61 49 35 61 49 35 61 47 34 62 48 35 62 46 33 61 45 32 61 45 30 61 45 30 62 46 31 60 47 31 60 47 31 61 47 34 62 50 36 62 48 35 61 45 30 58 44 31 
1 1 1 1 1 1 0 0 0 1 1 1 0 0 0 1 1 1 50 42 31 66 54 40 66 54 38 65 53 37 64 52 36 64 50 37 60 48 32 63 45 33 63 47 34 65 49 34 65 49 34 65 49 34 62 49 33 61 49 35 65 53 37 64 57 41 63 54 39 64 52 38 64 51 35 62 51 33 64 51 34 63 52 34 61 49 33 60 44 31 60 46 33 63 52 34 62 50 34 62 50 34 63 50 34 62 48 35 62 48 35 63 49 38 63 50 34 62 49 33 63 51 35 63 50 34 62 48 35 60 46 33 63 45 31 64 46 32 62 49 33 63 51 37 63 51 37 63 51 37 63 51 35 61 49 35 63 51 35 63 51 35 62 50 36 65 53 39 63 56 40 63 54 39 65 53 39 63 56 40 65 53 39 63 49 36 63 45 33 60 46 33 60 47 31 61 48 32 60 47 31 61 48 32 61 49 33 63 47 32 64 46 32 61 45 30 61 49 35 63 51 37 61 45 32 61 43 29 60 44 31 62 44 30 61 43 31 62 46 33 61 47 34 62 46 31 60 46 33 61 47 34 61 47 34 62 48 35 62 48 35 62 48 35 61 47 34 63 45 33 62 46 31 61 45 32 60 47 31 61 48 32 61 48 32 63 47 34 61 49 35 61 47 34 61 45 30 58 44 31 
0 0 0 1 1 1 0 0 0 1 1 1 0 0 0 2 2 2 49 41 30 66 54 40 67 55 41 66 52 41 62 50 34 61 48 32 64 48 33 63 47 32 64 48 33 63 50 34 63 49 36 64 51 35 63 50 34 61 49 33 63 51 35 63 56 40 66 54 40 65 53 39 65 53 37 63 55 36 64 53 35 64 52 38 64 51 35 60 47 31 61 48 32 62 50 34 62 51 33 63 50 34 64 51 35 65 49 36 62 48 35 61 52 35 63 51 35 63 50 34 63 49 36 61 47 34 63 50 34 63 47 32 61 45 30 62 44 30 65 49 34 62 50 36 62 50 36 64 52 38 63 51 37 62 50 36 60 51 36 63 50 34 61 49 33 62 50 36 63 54 39 63 54 39 64 55 40 65 53 39 64 52 38 62 50 34 61 45 30 61 45 30 60 47 30 61 48 32 61 48 32 61 48 31 63 49 36 62 49 32 61 45 32 61 48 32 62 48 35 59 47 31 57 41 26 57 41 26 62 44 30 62 46 31 62 46 33 60 46 35 63 47 34 61 45 32 62 46 33 61 48 32 61 48 32 63 51 37 62 50 36 61 49 35 62 49 33 62 49 33 61 47 34 59 45 32 60 47 31 60 47 31 63 47 34 61 48 32 61 49 33 62 49 33 61 45 30 56 42 29 
1 1 1 0 0 0 2 2 2 0 0 0 0 0 0 1 1 1 50 42 31 66 54 40 67 55 41 64 50 37 60 47 31 62 46 31 62 49 33 64 48 33 63 49 36 62 48 35 63 51 37 64 52 36 66 50 35 63 50 34 60 51 34 62 53 36 66 54 40 65 53 39 62 53 38 64 57 41 65 56 39 64 52 38 63 51 35 64 48 33 62 49 33 63 50 33 64 51 35 63 50 34 63 49 36 64 50 37 63 49 36 64 51 35 65 53 39 62 50 36 63 49 36 64 48 35 63 47 32 64 48 35 60 46 33 61 45 30 63 47 32 61 49 33 62 50 34 63 51 37 62 50 36 63 49 36 60 48 36 63 50 33 62 49 33 61 49 35 64 52 38 66 54 40 64 52 38 63 51 37 64 50 37 62 50 34 60 47 30 62 45 29 63 46 30 61 49 33 62 49 33 62 48 35 61 49 37 61 47 36 61 45 30 61 48 32 63 47 32 57 44 27 57 39 25 59 41 29 62 46 33 62 49 33 61 47 34 60 46 35 64 48 35 61 45 32 61 45 30 62 46 31 59 46 30 62 50 34 62 50 36 61 49 37 62 49 33 62 48 35 61 49 35 62 48 35 62 49 33 63 45 33 63 45 33 61 47 36 60 48 32 61 48 32 60 44 29 54 40 29 
1 1 1 1 1 1 1 1 1 0 0 0 1 1 1 1 1 1 49 41 30 65 53 39 64 50 37 64 48 35 62 46 31 62 46 31 62 49 33 63 49 38 63 51 39 63 51 37 65 51 38 64 50 37 62 50 36 61 49 33 63 52 34 62 53 36 64 52 36 65 52 36 64 55 40 66 56 44 64 56 43 63 50 34 64 47 37 62 46 31 63 47 31 62 49 33 64 48 33 63 47 34 64 48 33 63 49 36 64 51 35 63 51 37 63 51 35 63 49 36 62 48 37 63 47 34 63 47 34 62 46 33 60 46 33 61 49 33 62 49 32 63 50 34 63 51 37 65 52 36 62 51 33 64 48 35 61 48 32 63 50 33 61 49 35 62 49 33 63 51 37 66 52 39 62 50 36 63 51 37 64 50 37 63 51 37 61 47 34 62 46 31 62 46 31 63 47 31 64 48 33 62 49 33 63 49 36 63 47 32 62 46 31 62 49 33 62 49 33 61 48 32 62 43 29 60 42 28 62 46 33 61 49 35 61 47 34 60 46 33 63 47 32 61 45 30 61 45 30 59 46 30 61 49 33 64 50 37 63 51 37 62 48 37 62 48 35 62 49 33 62 49 33 63 50 34 62 49 33 62 46 31 62 46 33 63 47 32 60 48 32 62 46 33 59 41 27 56 40 27 
1 1 1 1 1 1 0 0 0 1 1 1 0 0 0 0 0 0 49 41 30 64 52 38 62 49 33 63 47 32 62 46 30 62 46 30 62 49 33 61 52 35 62 53 36 64 52 38 66 52 39 63 51 37 62 50 34 64 52 36 61 52 35 62 50 34 63 50 34 64 52 36 64 55 40 66 57 42 63 54 39 63 51 35 63 50 34 60 47 30 64 48 32 62 49 32 61 43 29 59 41 27 64 46 32 64 51 35 63 52 34 63 51 35 63 51 35 62 50 34 61 49 33 62 48 35 61 47 34 63 47 34 61 47 34 62 49 33 63 51 35 61 52 37 63 49 36 63 51 37 63 50 34 61 47 34 60 48 32 63 50 34 59 50 33 62 48 37 64 52 36 65 53 37 63 51 37 63 49 36 63 49 36 63 49 36 65 49 34 63 47 32 64 46 32 63 47 32 61 49 33 63 50 34 63 50 34 62 49 33 62 49 33 62 50 36 59 50 33 60 44 29 61 43 29 61 45 29 60 47 31 62 50 36 63 49 36 62 49 33 63 46 36 61 45 32 61 45 32 60 46 33 62 48 35 63 51 37 61 49 35 61 49 35 62 50 36 62 49 33 63 50 34 63 50 34 62 49 33 63 45 31 63 47 32 61 47 34 60 47 30 61 45 30 59 41 27 56 40 27 
2 2 2 1 1 1 0 0 0 0 0 0 1 1 1 1 1 1 46 38 27 63 51 37 64 51 35 63 50 33 59 46 29 62 49 33 62 50 34 61 52 35 62 50 34 62 53 38 65 53 39 63 51 35 62 50 34 65 53 39 65 53 39 62 48 35 62 50 34 63 54 37 65 56 41 64 55 38 62 50 34 61 52 35 63 52 34 62 50 34 64 52 36 59 47 31 54 41 25 58 41 25 62 46 30 61 53 34 61 53 34 61 49 33 62 49 32 60 47 31 61 48 31 63 50 33 63 51 35 62 48 35 61 49 37 59 50 33 61 52 35 63 54 37 64 51 35 64 52 40 63 51 37 63 52 34 64 52 36 64 52 38 60 48 34 62 48 35 63 51 35 60 51 36 63 51 35 64 52 38 62 50 36 62 50 34 62 50 34 63 47 32 64 46 34 63 47 34 62 48 35 62 50 34 59 47 31 62 49 32 60 48 32 60 52 39 63 49 36 59 46 30 62 44 30 60 44 29 59 46 30 61 48 32 62 49 33 65 47 35 60 47 31 61 45 32 61 47 34 62 46 33 63 49 36 63 51 37 65 49 36 62 50 38 62 49 33 61 49 33 62 49 33 62 49 33 62 46 31 60 47 31 60 47 30 62 46 33 62 46 31 60 44 29 60 41 27 58 40 30 
1 1 1 1 1 1 1 1 1 1 1 1 1 1 1 0 0 0 49 41 30 65 53 39 64 51 35 61 48 32 62 49 33 64 53 35 63 54 37 62 53 36 62 51 33 64 52 38 64 55 38 64 52 36 64 51 34 64 52 38 65 52 36 61 47 34 61 49 33 66 54 38 64 57 41 62 53 36 60 52 33 61 53 34 61 52 35 64 51 35 64 48 35 57 41 28 56 38 24 61 45 29 65 53 37 61 52 37 60 51 36 60 47 31 63 45 31 61 45 30 62 46 31 63 49 36 62 53 38 61 51 39 63 51 37 63 51 37 64 52 38 63 51 37 62 50 36 63 50 34 61 54 35 63 54 37 66 54 40 62 53 38 61 48 32 61 48 32 65 49 36 64 50 37 63 49 36 63 50 34 63 51 35 63 51 37 62 50 34 63 47 34 64 46 32 63 45 31 62 46 33 62 46 31 62 49 33 61 48 31 61 49 33 58 49 34 62 48 35 62 46 31 62 48 35 60 46 33 60 47 31 60 47 31 61 48 32 60 46 33 63 47 34 60 46 33 63 47 34 60 46 33 60 47 31 61 49 33 62 50 34 61 49 33 62 50 34 62 50 34 62 49 33 60 48 32 63 47 32 61 48 31 61 45 30 60 44 29 62 46 31 62 46 31 61 43 31 57 40 32 
1 1 1 1 1 1 0 0 0 0 0 0 1 1 1 1 1 1 49 41 30 66 54 40 64 48 33 61 48 32 63 50 34 66 55 37 64 56 37 62 53 36 62 50 34 65 52 36 62 54 35 61 53 34 63 50 33 62 53 36 63 54 37 62 50 34 63 50 34 65 53 37 63 54 39 62 53 38 61 52 35 64 51 34 64 52 36 63 51 37 62 48 35 58 40 28 60 40 29 62 46 30 63 55 36 62 53 36 62 48 35 62 46 31 61 45 30 63 45 31 61 48 32 61 49 33 61 52 35 61 52 35 64 52 38 63 51 35 62 50 34 65 53 39 63 51 37 63 51 35 63 54 37 63 54 39 61 52 37 61 52 37 62 48 35 63 47 32 64 48 33 63 50 34 63 50 33 63 50 33 63 51 35 63 51 37 65 51 38 63 47 32 62 46 30 61 46 27 61 43 29 59 46 29 64 48 33 62 49 32 61 48 32 58 46 30 61 45 30 60 47 31 63 51 37 63 51 35 63 50 34 60 48 34 61 49 33 61 48 32 63 47 34 61 47 34 62 46 31 63 47 32 59 47 31 61 48 32 61 49 33 61 49 33 61 49 33 63 50 34 62 49 33 62 49 33 61 48 32 61 48 31 59 46 30 62 46 31 62 46 31 61 48 32 61 45 30 56 42 31 
1 1 1 1 1 1 1 1 1 0 0 0 0 0 0 1 1 1 47 39 28 63 51 37 62 49 33 63 50 34 65 52 36 63 51 35 64 52 36 61 52 35 62 49 33 63 50 34 63 50 33 64 51 34 63 50 33 65 54 36 62 54 35 64 51 35 65 52 36 66 54 38 63 54 37 65 53 37 65 54 34 64 51 34 63 52 34 64 51 35 63 50 34 62 46 31 60 44 28 62 49 32 64 52 36 62 50 34 61 49 35 60 47 31 64 48 32 61 48 32 62 46 31 62 49 33 60 51 34 64 52 36 64 52 38 63 51 39 61 52 35 61 52 35 63 51 35 61 52 37 64 52 38 64 52 36 60 53 35 62 50 36 62 48 37 63 47 31 61 48 32 62 49 33 61 48 32 62 49 33 64 52 36 64 52 38 64 50 37 64 48 32 62 46 31 61 45 29 60 44 29 62 44 30 63 47 32 63 47 32 61 48 32 60 47 31 59 46 29 60 48 32 62 50 36 63 49 36 61 48 32 61 49 33 62 50 34 62 49 33 60 46 33 62 46 31 61 45 30 62 46 31 60 47 31 60 48 32 61 48 32 61 48 32 60 48 32 62 49 33 62 49 33 64 48 33 63 47 32 61 48 32 60 47 30 62 46 31 61 45 29 62 46 31 61 45 30 58 44 33 
1 1 1 0 0 0 1 1 1 1 1 1 0 0 0 1 1 1 46 38 27 63 49 36 63 51 35 65 52 35 62 54 35 62 53 36 63 51 35 62 50 34 61 47 34 60 47 31 63 50 33 63 50 34 63 50 33 63 51 37 65 53 37 64 50 37 64 52 36 65 53 37 65 53 37 64 53 35 62 54 33 63 51 35 60 51 34 63 50 34 62 49 32 60 47 31 60 49 31 61 50 30 61 49 33 61 49 33 61 48 32 61 45 30 62 46 30 62 49 33 60 48 32 62 51 33 60 51 34 63 51 35 60 51 34 62 50 34 62 50 34 64 51 35 64 52 36 61 54 38 62 50 34 63 51 37 62 53 36 61 49 33 62 46 31 63 47 31 61 48 31 63 47 31 63 47 31 63 50 33 63 51 35 62 50 36 63 50 34 62 46 30 62 46 30 61 45 29 61 48 32 62 46 30 60 44 29 60 47 31 61 48 32 60 47 31 61 45 29 62 49 33 62 48 35 61 45 32 60 47 31 62 49 33 61 48 32 62 48 35 62 46 31 60 42 28 59 43 28 59 43 28 59 46 30 59 47 31 61 49 33 60 47 31 60 47 31 63 47 32 65 49 34 61 48 32 60 47 31 60 44 29 62 45 29 60 44 29 60 44 29 60 44 29 62 46 31 58 46 32 
1 1 1 1 1 1 1 1 1 1 1 1 1 1 1 0 0 0 47 39 28 64 50 37 62 50 36 64 51 35 61 52 35 63 54 37 62 53 36 62 50 34 61 49 35 63 47 31 62 49 33 63 51 35 64 51 34 63 51 35 62 53 36 64 50 37 63 47 32 63 50 34 65 53 37 65 53 39 64 52 38 63 51 35 62 50 36 65 49 36 61 48 32 63 47 32 65 49 34 62 51 33 62 49 33 62 46 31 62 46 31 61 45 30 60 47 31 63 47 34 62 50 34 63 51 37 62 50 34 62 49 33 61 48 32 62 50 34 62 50 34 61 49 33 64 51 35 62 53 38 63 51 35 63 51 37 64 52 38 61 49 33 62 46 30 59 46 29 62 46 31 62 46 31 63 47 32 62 49 32 62 50 34 62 49 33 62 46 31 61 45 30 61 45 30 64 48 33 64 48 35 61 48 32 61 45 32 59 46 30 61 48 32 59 46 30 62 46 31 61 47 34 62 50 34 62 46 33 60 47 31 61 48 32 60 48 32 61 49 35 60 48 32 60 44 29 58 42 27 58 46 30 60 47 31 62 49 33 61 48 32 63 45 31 63 47 34 63 47 32 62 49 33 63 50 34 61 48 32 61 44 28 62 43 29 62 43 28 59 43 28 59 41 29 61 45 30 58 46 32 
0 2 1 0 0 0 1 1 1 1 1 1 3 1 2 1 1 3 46 36 24 64 51 35 63 51 35 63 50 34 64 51 35 64 52 36 62 55 39 64 52 38 63 49 36 63 50 34 60 51 34 62 50 34 64 51 35 64 52 36 65 53 37 64 51 35 62 46 31 65 49 34 63 51 35 62 53 36 64 52 38 62 50 36 62 46 33 61 45 30 63 47 32 63 46 30 63 50 33 63 51 35 62 49 32 62 46 31 62 46 30 61 48 32 62 49 33 62 50 36 63 51 37 63 51 37 62 48 35 62 46 33 61 47 34 61 49 33 61 49 33 61 52 35 63 51 35 63 51 37 63 54 39 64 52 38 65 53 37 63 51 35 62 49 33 60 47 30 63 47 34 62 49 33 63 50 34 63 50 34 62 48 35 62 46 33 61 45 32 62 46 31 63 47 34 65 49 36 64 48 35 62 46 31 61 45 29 59 46 30 59 45 32 58 45 29 61 45 32 61 47 34 62 48 37 62 46 33 61 47 34 62 50 38 61 49 35 59 47 33 59 46 30 60 44 29 60 44 29 61 48 32 63 50 34 62 49 33 61 47 34 63 47 34 64 48 33 62 46 31 62 46 30 63 47 32 60 47 31 59 46 30 61 42 27 61 42 27 60 41 27 62 43 29 60 42 28 58 44 31 
1 1 0 2 2 2 0 0 0 1 1 1 0 0 0 37 30 20 59 47 31 64 51 35 64 52 36 63 51 35 63 51 35 63 51 35 63 54 37 66 54 40 64 52 36 63 51 35 63 51 35 63 51 35 64 52 36 63 55 36 66 53 37 62 49 33 61 45 30 63 47 32 64 52 36 63 51 35 63 51 37 65 49 36 62 45 35 62 44 30 60 47 31 64 48 33 62 50 34 64 51 35 62 49 33 63 47 32 63 47 31 62 49 32 61 49 33 62 49 33 63 51 37 63 49 36 61 47 34 63 47 34 60 47 31 62 49 33 63 51 35 63 51 35 62 50 36 63 51 35 63 54 37 64 52 38 60 53 37 62 50 34 61 49 33 60 48 32 62 49 33 63 50 34 63 51 35 63 51 35 62 49 33 62 44 30 61 45 30 62 46 31 63 47 32 62 49 33 64 48 35 63 47 34 61 45 30 60 44 29 59 46 30 61 45 29 62 44 32 62 46 33 63 47 32 61 47 34 61 49 37 64 52 40 63 51 37 60 46 33 62 46 31 61 45 30 61 45 29 61 48 32 61 48 32 62 48 35 60 47 31 63 45 31 61 45 30 60 44 29 62 44 30 63 45 31 63 47 32 61 45 30 61 44 28 59 42 26 59 40 25 59 42 26 60 43 27 57 43 30 
0 0 0 0 0 2 1 1 1 1 1 1 1 1 1 47 39 26 61 52 35 64 52 38 63 51 35 63 51 37 62 50 34 61 52 35 63 54 39 64 55 40 63 54 39 62 53 36 64 52 38 65 53 37 65 53 37 65 53 37 65 53 37 62 49 33 60 44 29 61 45 29 62 49 32 62 49 33 64 50 37 65 51 38 63 47 34 59 43 28 63 47 32 63 50 34 62 50 34 63 51 35 62 49 33 63 47 32 62 49 32 61 48 31 61 48 32 61 49 33 63 50 34 64 48 35 61 47 34 60 46 33 61 48 31 61 48 32 62 50 34 63 49 36 63 49 36 64 51 35 63 51 35 63 51 37 62 53 38 63 52 34 61 49 33 62 50 34 63 51 35 64 51 35 63 51 35 63 50 34 64 48 33 62 46 31 61 45 30 62 46 31 60 47 31 61 45 32 62 46 33 63 47 32 61 45 30 59 43 28 60 44 29 60 44 29 61 44 28 61 43 31 62 46 31 61 47 34 60 51 36 61 54 38 62 50 36 60 46 33 60 44 29 60 44 29 60 44 29 59 46 29 59 46 30 57 43 30 60 44 31 62 45 29 61 43 29 59 43 28 61 43 29 60 47 31 64 48 33 62 44 30 61 43 29 60 44 28 60 44 28 61 45 29 60 44 28 57 43 30 
1 1 1 1 1 1 0 0 0 1 1 1 0 0 0 47 39 28 61 52 35 63 50 34 64 50 37 64 50 37 63 51 37 62 55 37 63 54 39 65 56 41 66 57 40 64 55 40 65 53 41 66 54 40 64 52 36 63 51 35 63 50 34 65 49 34 61 48 32 62 46 31 63 47 31 63 47 32 64 50 37 65 51 38 61 48 32 59 46 30 60 47 31 65 49 34 63 51 37 62 50 36 61 47 34 63 47 32 61 48 32 61 48 32 64 48 33 63 50 34 61 48 32 62 48 35 61 47 34 60 47 31 63 47 34 61 48 32 61 49 33 62 49 33 61 49 33 63 49 36 64 51 35 62 50 36 62 53 38 62 53 36 60 48 32 64 50 37 63 51 35 63 50 34 62 49 33 64 48 33 64 48 33 63 47 31 63 47 32 61 45 30 60 44 29 61 43 29 61 43 29 61 45 30 60 44 29 60 42 28 60 42 28 60 44 29 60 44 29 61 45 32 62 46 31 62 46 31 62 50 34 62 53 38 63 49 36 62 48 35 59 45 32 60 44 29 59 43 28 60 44 29 61 45 29 60 44 29 59 43 30 62 44 32 61 43 29 59 43 28 60 44 29 63 47 32 62 46 31 63 45 31 62 44 30 62 46 31 62 44 30 60 44 29 60 44 29 60 43 33 
1 1 1 2 0 1 1 1 1 1 1 1 0 1 3 47 39 28 64 50 37 61 52 35 64 52 38 65 53 39 65 53 37 63 55 36 62 55 39 63 56 38 65 56 41 64 55 40 64 54 42 65 53 39 64 52 36 64 51 35 63 49 36 62 50 34 65 49 34 61 48 32 63 47 32 61 45 30 65 51 38 61 52 37 60 48 34 62 49 33 62 49 33 62 50 36 64 50 37 63 49 36 61 47 34 61 48 32 61 45 30 61 45 32 62 46 33 63 47 32 63 47 32 60 48 32 61 47 34 61 48 32 61 47 34 61 48 32 61 47 34 63 50 34 64 50 37 62 50 36 61 49 33 62 50 36 63 54 39 61 52 37 62 50 36 63 51 37 65 53 39 62 50 34 61 49 33 62 49 33 62 49 33 63 47 32 61 45 30 60 47 31 60 47 31 62 43 29 60 42 28 60 42 28 60 42 28 58 40 26 58 39 25 58 41 25 60 44 29 61 48 32 62 44 32 63 47 32 62 50 34 63 51 37 63 49 36 62 48 35 61 49 33 59 46 30 61 43 31 60 44 31 60 44 29 61 43 29 60 44 31 63 47 34 62 46 31 59 43 28 59 43 28 61 45 30 62 44 30 59 46 30 63 47 32 62 48 35 61 48 32 58 46 30 58 45 29 56 44 32 
0 0 0 1 1 1 1 1 1 1 1 1 1 1 1 47 37 28 62 50 38 61 54 38 63 54 39 64 55 38 64 56 37 66 54 40 63 53 41 63 53 41 63 54 39 63 53 41 65 55 43 65 53 39 63 51 35 63 50 34 65 49 34 62 49 33 63 50 34 63 51 37 63 50 34 62 49 33 65 51 38 63 51 35 59 47 31 62 51 33 63 51 37 63 49 36 62 48 35 64 48 35 63 46 36 62 46 31 60 47 31 60 46 33 60 46 33 62 46 31 63 47 34 60 46 33 63 47 32 63 47 32 63 47 32 63 47 34 62 46 33 62 49 33 63 49 36 61 49 33 61 47 34 62 50 36 63 54 39 62 53 38 62 50 36 64 50 37 64 52 38 64 52 38 61 49 35 62 48 35 62 50 36 62 48 35 63 47 34 62 48 35 61 49 33 59 45 32 58 40 28 56 40 25 58 42 27 59 41 29 58 40 26 60 43 27 61 43 29 61 45 30 62 42 31 61 45 30 61 48 32 63 49 36 64 48 33 61 47 36 59 50 33 61 48 32 62 46 33 60 46 33 61 45 32 60 42 28 59 46 30 61 45 30 61 43 29 59 41 27 59 41 27 61 45 30 61 47 34 60 46 33 61 47 34 61 47 36 62 48 35 60 46 33 59 45 32 58 45 36 
1 1 1 1 1 1 0 0 0 1 1 0 29 24 20 59 46 37 64 52 40 64 52 38 62 53 38 63 54 39 64 55 40 65 53 41 65 53 41 62 52 40 62 53 38 64 55 40 63 54 39 65 53 39 62 49 33 65 49 34 62 50 34 63 49 36 64 52 38 64 52 40 63 51 35 62 49 33 64 50 37 63 50 34 61 49 33 64 51 35 63 51 37 62 48 35 64 48 35 63 49 36 63 47 34 63 45 31 62 48 35 61 47 34 62 45 35 62 46 31 62 46 31 63 47 34 62 46 33 62 46 31 63 47 32 63 47 34 64 46 34 63 47 34 63 49 36 61 49 33 59 47 33 60 51 36 65 53 39 63 51 37 61 49 35 61 49 35 65 51 38 62 50 36 63 49 36 62 48 35 61 49 35 63 49 36 63 49 36 62 48 35 61 47 34 62 46 33 58 40 26 56 38 24 60 42 28 62 43 29 60 42 28 61 45 32 61 45 32 60 42 30 60 42 28 62 46 30 61 48 32 61 49 35 63 47 34 61 49 37 63 51 35 64 50 37 62 48 35 61 47 36 60 44 31 60 42 30 62 44 30 61 45 30 59 43 28 59 41 27 61 42 28 59 46 30 61 47 34 60 46 33 62 48 35 61 47 34 62 48 35 60 46 33 62 46 33 58 46 34 
1 1 1 0 0 0 1 1 1 1 1 1 55 45 33 67 53 40 66 54 40 65 53 39 64 52 40 65 53 39 64 55 40 64 52 38 63 51 37 63 51 39 62 53 38 63 54 39 62 53 38 64 52 38 64 48 35 63 50 34 63 51 35 62 50 36 65 53 41 62 50 38 64 51 35 63 51 37 63 51 37 59 50 35 61 49 35 63 49 36 61 49 35 64 50 37 63 49 38 62 48 37 60 46 33 62 46 33 64 48 35 61 47 36 60 46 33 62 46 31 61 48 32 62 46 33 60 46 33 62 46 33 63 47 32 61 47 34 62 48 35 64 48 35 62 48 35 60 48 34 62 48 35 63 54 39 65 53 41 62 52 42 61 49 35 62 50 38 63 51 35 62 50 34 63 49 36 63 49 36 62 49 33 65 49 34 65 51 38 63 49 36 62 48 35 61 43 31 58 39 25 57 39 25 60 44 31 62 46 33 61 45 32 62 48 35 60 48 34 62 44 34 62 44 30 62 46 33 63 47 32 61 49 35 61 47 34 62 50 36 65 51 40 63 51 39 62 48 37 60 46 33 60 44 29 59 41 27 61 43 31 60 44 29 60 43 27 60 43 27 61 43 29 61 45 30 63 47 34 59 45 32 62 48 35 63 50 34 61 47 34 61 47 34 61 47 34 57 47 37 
0 0 0 0 2 1 1 1 3 1 1 1 30 25 19 57 47 35 64 57 41 64 55 40 65 53 41 64 52 38 63 54 37 61 52 37 61 49 35 63 49 36 64 52 38 61 54 38 63 54 39 62 53 38 62 50 34 63 51 37 64 52 38 63 51 39 63 54 39 64 52 38 64 51 35 64 50 37 62 50 34 63 50 34 62 49 32 62 48 35 61 47 34 62 48 35 64 50 39 62 48 37 64 46 34 63 47 32 65 49 33 63 47 32 62 48 35 65 49 36 63 47 34 61 45 30 61 45 30 61 47 34 60 46 33 60 47 31 63 47 34 62 49 33 65 52 36 63 49 36 64 51 35 63 54 39 63 54 39 63 53 41 62 50 38 62 49 33 64 48 35 63 47 34 64 48 33 62 49 33 63 49 36 63 49 36 62 48 35 61 49 35 60 46 33 60 44 31 60 42 28 60 44 29 62 46 33 62 46 33 62 46 33 61 49 35 62 50 36 62 48 37 61 47 36 61 49 35 62 48 37 62 48 37 61 48 32 61 49 35 63 51 37 63 51 39 62 48 35 61 45 32 59 41 27 59 42 26 60 43 27 60 42 28 59 41 27 60 42 28 59 46 30 62 46 31 62 46 31 61 47 34 62 48 37 62 48 35 61 47 34 61 47 34 62 50 38 59 46 38 
0 0 0 1 1 1 1 1 1 2 2 2 0 0 0 49 40 31 65 56 39 66 52 39 65 51 42 63 51 39 63 54 39 61 52 35 61 49 35 63 50 34 64 52 36 63 54 37 63 56 40 64 57 41 64 52 38 63 51 35 64 53 35 61 52 37 64 52 38 64 52 38 64 50 37 62 51 33 62 50 34 61 52 37 61 47 34 60 48 32 61 47 34 62 50 36 64 52 38 64 48 35 64 46 34 60 47 31 63 47 34 63 47 32 63 47 34 64 48 35 62 46 33 61 45 30 60 47 31 63 49 36 61 47 34 60 47 31 61 47 34 64 51 35 62 53 36 65 51 38 65 51 38 65 53 39 63 54 37 64 52 38 61 49 35 61 49 35 64 48 33 63 45 31 63 47 32 62 48 35 63 49 36 63 49 36 61 49 35 60 48 32 60 47 30 61 45 32 61 45 30 63 47 32 64 48 35 61 48 32 60 47 31 63 50 34 63 51 37 62 50 36 62 48 37 63 49 38 63 49 38 62 48 35 61 47 34 63 49 36 62 50 36 63 49 36 64 48 35 63 45 33 60 41 27 59 40 25 60 42 28 60 42 28 60 42 28 60 44 29 59 45 32 60 46 33 59 47 31 62 48 35 62 48 35 60 46 33 60 47 31 62 48 35 61 49 37 59 46 37 
1 1 1 1 2 4 1 1 1 2 0 1 1 1 1 28 23 17 60 50 38 62 53 38 64 50 37 63 51 37 60 51 36 62 48 37 63 49 36 63 50 34 64 52 36 64 52 38 62 57 38 64 57 41 62 53 38 64 51 35 64 53 35 62 53 36 64 50 37 64 50 37 64 52 38 63 49 38 64 51 35 61 53 34 65 49 34 63 50 33 62 50 34 63 51 37 64 55 38 63 49 36 63 47 34 63 47 32 63 47 32 61 48 32 64 48 35 63 47 34 63 47 32 63 47 32 61 48 32 62 49 33 62 49 33 61 48 32 61 49 33 64 52 36 62 53 38 64 52 36 64 52 38 64 50 37 62 50 36 62 50 36 60 48 32 62 48 35 62 49 33 62 46 31 62 46 31 61 48 32 62 50 36 62 50 34 60 48 32 59 47 31 59 47 31 60 47 31 61 49 33 63 50 34 63 50 34 64 51 35 62 49 33 62 50 36 64 52 38 62 50 36 61 49 35 63 51 37 62 48 35 61 47 34 61 47 34 62 48 35 61 49 33 61 47 34 62 46 33 62 44 32 61 41 30 62 40 26 61 42 27 61 43 29 59 43 28 61 45 30 59 46 30 62 46 33 62 46 33 61 47 34 61 47 34 59 47 33 59 47 31 61 48 32 60 46 33 59 47 35 
1 1 1 2 0 1 1 1 1 0 0 0 1 1 1 0 0 0 49 39 29 66 54 40 62 53 36 63 51 37 62 50 36 61 49 35 62 51 33 63 51 35 64 52 38 63 53 41 64 55 40 64 55 40 62 53 36 64 52 38 64 55 38 64 55 38 63 51 37 66 50 35 62 53 36 63 55 36 64 51 35 64 51 35 63 50 34 62 49 33 62 50 34 64 52 38 64 52 38 64 52 36 63 50 34 62 48 35 60 46 33 62 49 33 61 48 32 62 46 33 62 46 33 62 48 35 63 49 36 61 49 35 61 47 34 61 47 34 61 49 35 62 50 36 62 53 38 63 51 37 63 51 37 61 53 34 62 50 34 61 49 33 62 49 33 63 49 36 61 49 35 62 46 31 61 45 30 59 46 30 61 48 32 62 49 33 62 49 33 61 50 32 60 48 34 59 46 30 62 49 33 62 50 36 63 49 36 63 51 35 64 50 37 63 51 37 63 51 37 62 50 36 61 49 35 62 50 38 62 49 33 62 48 35 61 47 34 61 47 34 60 47 31 60 47 31 61 45 29 62 44 30 61 43 29 60 42 28 60 42 28 61 45 30 61 48 32 61 47 34 57 45 29 58 46 30 59 45 32 62 46 31 60 47 31 60 46 33 61 47 36 61 47 34 62 46 33 59 47 35 
1 1 1 4 0 1 1 1 1 1 1 1 1 1 1 1 1 1 48 40 29 62 53 38 62 52 40 63 51 37 61 49 35 62 50 34 61 52 35 63 54 37 61 54 38 63 53 43 66 54 42 64 55 40 63 54 37 62 53 38 64 57 41 63 56 40 62 50 38 62 50 34 64 52 36 62 53 36 63 51 35 65 52 36 63 50 34 64 48 35 63 50 34 63 51 35 64 52 38 64 52 36 56 43 34 47 37 27 46 36 26 55 41 30 62 48 35 60 47 31 60 47 31 65 49 36 64 50 37 61 49 33 61 48 32 61 47 34 62 50 36 61 52 37 63 51 37 64 50 37 63 51 37 61 52 35 62 50 34 61 49 33 62 50 34 60 48 34 61 49 35 61 48 32 62 46 31 60 45 26 60 44 28 61 48 32 62 50 36 61 49 33 60 46 33 60 47 30 60 47 31 62 48 37 62 48 35 62 50 36 64 52 38 62 53 38 64 52 38 63 51 35 62 50 38 63 51 35 62 50 36 62 50 34 62 48 35 61 45 32 62 44 30 61 45 30 61 45 29 61 43 29 60 44 29 60 44 29 60 44 29 62 46 31 61 49 33 60 47 31 59 43 28 58 46 30 59 46 30 60 44 29 61 45 30 60 46 33 62 48 37 63 47 34 63 47 34 59 47 35 
1 0 0 1 1 1 0 0 0 0 0 0 1 1 1 1 1 0 48 41 31 61 54 38 64 52 36 63 51 35 62 48 35 61 49 33 63 51 35 62 53 38 63 54 39 63 55 42 63 53 41 64 55 40 63 54 39 62 55 37 63 56 38 65 56 41 64 52 38 64 50 37 63 51 35 64 51 35 64 51 35 61 54 35 63 51 35 62 50 34 65 49 36 50 40 30 48 40 27 48 40 27 16 12 9 1 1 3 1 1 1 32 25 17 61 48 32 61 48 31 60 47 31 61 48 32 63 50 34 61 48 32 61 48 32 61 48 32 63 51 35 64 52 38 64 52 38 62 50 36 62 50 34 61 48 31 60 47 31 62 49 33 62 48 35 61 49 35 63 50 33 60 47 31 61 45 29 61 44 28 61 45 30 61 47 34 62 50 36 62 50 36 60 46 33 59 47 31 60 47 31 59 46 30 61 47 34 62 50 38 64 52 38 60 51 36 63 51 35 62 50 36 63 51 37 63 51 37 63 51 37 61 51 39 62 50 34 62 46 31 63 44 30 62 45 29 61 44 28 62 44 30 61 45 32 62 46 33 63 47 34 60 47 31 59 50 35 62 49 33 61 45 30 60 44 29 59 43 28 60 42 28 61 42 28 61 45 30 60 46 33 63 47 34 63 46 36 58 45 36 
0 0 0 1 1 1 1 1 1 2 0 1 0 0 2 1 1 1 48 41 31 61 52 35 64 52 36 63 51 35 61 49 35 61 49 35 63 51 35 62 53 38 62 53 38 63 53 41 61 54 38 62 53 38 62 53 38 64 55 40 62 55 37 65 56 41 64 52 38 63 49 38 64 52 38 63 51 35 63 50 33 62 53 38 64 53 35 62 50 34 53 41 29 11 10 8 0 0 2 1 1 1 0 0 0 1 1 1 1 1 1 23 18 12 55 43 27 63 47 32 62 46 30 63 47 34 62 49 33 64 48 33 61 48 32 61 49 35 63 51 37 65 53 39 65 53 39 62 50 34 62 50 34 62 46 31 61 47 34 63 50 34 61 47 34 64 52 38 63 51 37 63 47 32 61 45 29 60 44 29 60 47 31 62 49 33 62 50 36 61 49 35 61 48 32 60 47 31 60 47 31 60 47 31 60 48 34 62 50 36 62 50 36 61 49 35 63 49 36 61 49 33 63 51 37 63 51 37 62 50 36 61 52 37 63 51 37 61 47 34 62 46 31 61 43 29 62 44 30 62 46 31 62 46 33 64 48 35 62 48 35 60 51 36 62 50 34 62 50 38 60 46 33 58 45 29 58 45 29 58 45 29 60 42 28 60 42 28 61 43 29 62 46 31 62 45 35 57 47 37 
1 1 1 0 2 1 1 1 1 0 0 0 1 1 1 0 0 0 49 39 30 62 53 38 63 53 41 65 53 41 62 50 36 61 54 38 62 55 39 63 56 40 63 54 39 63 54 39 62 52 40 60 53 37 63 54 37 64 55 40 63 56 40 63 57 43 62 53 38 62 50 36 63 49 36 64 52 36 63 51 37 64 52 40 64 50 37 62 50 36 16 11 8 1 1 1 0 0 0 1 1 0 1 1 1 2 0 1 0 2 1 4 4 2 33 26 18 61 48 32 61 48 32 62 48 35 63 50 34 62 49 33 61 47 34 59 50 33 62 53 38 64 54 42 62 53 38 61 52 35 63 51 35 59 46 30 61 49 33 61 52 35 61 47 34 64 52 40 65 53 41 60 46 33 60 44 29 62 46 31 62 49 33 61 49 33 61 49 33 62 48 35 61 49 33 60 49 31 59 47 33 60 48 34 61 47 34 61 49 35 62 48 35 62 48 35 59 47 33 60 48 32 62 51 33 63 51 35 62 50 36 62 53 38 62 53 38 64 50 37 63 47 32 63 45 31 62 46 31 60 48 34 62 48 35 63 49 36 63 51 39 63 51 39 62 52 40 63 51 37 61 49 35 59 45 32 60 42 28 60 44 29 61 43 29 59 42 26 60 44 29 61 45 30 61 45 32 59 49 39 
1 1 1 1 1 1 1 1 1 1 1 1 1 1 1 2 0 1 49 42 32 63 53 41 63 54 37 64 55 40 63 54 39 63 54 39 62 53 38 62 53 38 63 54 39 61 53 40 63 54 39 64 52 38 63 54 39 64 55 40 64 56 43 65 57 44 65 53 39 63 51 39 62 50 36 61 51 39 62 50 36 63 51 37 63 51 37 54 44 32 15 14 10 2 0 1 0 2 1 0 2 1 1 1 1 0 0 0 2 0 1 4 4 2 32 28 19 63 47 32 62 48 35 62 48 35 62 49 33 63 49 36 62 49 33 59 48 30 61 52 35 66 54 40 64 52 38 63 51 35 62 51 31 61 48 32 63 51 37 63 51 37 62 46 33 64 52 40 64 55 40 61 47 34 61 45 30 61 48 32 61 47 34 62 49 33 62 49 33 61 49 35 62 49 33 61 49 33 61 48 32 60 48 32 61 49 35 65 49 36 62 49 33 60 46 33 62 48 35 62 49 33 61 52 37 60 53 37 63 51 37 61 52 37 62 50 38 64 50 37 61 47 34 62 46 33 62 46 33 61 47 34 63 49 36 63 51 37 62 53 38 64 55 40 64 52 38 63 51 39 60 48 34 61 45 30 60 42 28 59 43 27 60 44 29 60 43 27 59 46 29 62 46 33 62 46 33 59 46 37 
1 1 0 1 1 3 2 2 2 1 1 1 0 0 0 2 2 2 48 41 31 63 54 39 62 53 38 63 54 37 63 54 39 62 55 39 62 53 38 65 51 38 63 51 37 62 53 38 62 53 38 63 54 39 65 53 39 63 53 41 64 56 43 64 56 43 64 55 40 62 53 38 64 50 37 60 50 38 64 52 38 63 51 37 61 52 37 8 7 3 0 2 1 1 1 1 0 2 0 1 1 1 1 1 1 1 1 1 1 1 1 10 5 2 38 29 20 63 47 32 61 47 34 62 48 35 61 47 34 60 46 33 61 48 32 61 48 32 62 50 34 64 52 36 62 50 36 62 51 33 62 51 33 61 48 32 61 49 33 61 50 32 62 46 33 64 52 38 61 52 35 62 49 33 62 46 31 60 47 31 61 48 32 62 49 33 62 49 33 62 51 33 60 48 32 61 49 35 62 48 35 61 49 35 60 48 34 61 49 33 61 49 35 61 49 35 61 49 35 61 52 37 63 51 37 59 50 35 63 51 37 60 53 37 61 49 35 61 49 35 62 48 35 62 49 33 62 46 33 62 46 31 62 50 36 63 54 39 65 53 39 62 52 40 61 52 37 63 51 37 61 47 34 59 46 30 60 44 29 61 45 30 60 44 29 60 42 28 61 45 30 62 45 35 62 46 33 58 45 36 
1 1 0 0 0 0 0 0 0 1 1 1 1 1 1 1 1 1 50 44 32 64 54 42 65 53 39 63 54 39 63 54 39 63 54 39 62 53 38 63 49 36 62 50 36 62 53 38 60 51 36 62 53 38 62 53 38 60 53 37 64 54 42 64 54 42 62 53 38 63 53 41 62 50 38 62 50 38 64 52 38 63 51 37 64 52 40 8 8 6 0 0 0 2 2 2 2 0 1 1 1 1 1 1 1 0 0 0 0 2 0 33 24 17 62 50 34 65 49 34 61 47 34 62 49 33 61 48 32 60 47 31 63 47 32 61 48 32 62 49 33 62 50 34 62 49 33 63 50 34 63 50 34 62 49 33 61 48 32 60 47 31 61 45 30 62 49 33 58 46 30 60 47 31 61 47 34 60 48 32 62 49 33 62 50 36 61 49 35 61 49 33 61 48 32 61 49 35 62 50 36 62 49 33 61 45 30 60 48 32 60 48 32 60 46 33 61 49 35 61 52 37 60 51 34 62 50 36 63 51 37 61 52 37 59 50 33 62 48 35 61 49 35 62 48 35 61 45 32 62 46 33 63 51 35 64 55 40 63 54 39 62 53 38 61 52 37 61 49 35 62 48 35 58 44 31 60 44 29 61 45 32 61 45 30 60 44 29 61 45 30 61 47 34 61 47 34 57 45 33 
0 0 0 1 1 1 0 0 0 1 0 5 1 1 1 0 0 0 49 40 31 64 55 40 63 54 39 64 55 40 63 54 37 63 56 40 63 53 41 63 49 36 62 48 35 63 51 37 63 51 37 61 52 37 61 52 37 64 52 36 63 54 39 64 54 42 64 52 40 63 51 39 64 52 38 64 52 36 63 50 34 64 51 35 64 52 36 61 52 37 15 14 10 1 0 5 1 1 1 0 0 0 0 0 2 2 0 1 33 26 18 62 50 34 63 52 34 62 50 34 62 49 33 62 49 33 61 48 32 60 47 30 61 48 32 63 47 32 61 48 32 62 49 33 61 49 35 61 49 33 62 49 33 61 50 32 61 48 32 62 46 31 62 45 29 61 45 30 58 46 30 60 47 31 61 48 32 60 46 33 63 49 36 65 53 39 62 50 36 61 49 33 61 49 35 61 47 34 60 46 35 59 45 32 59 46 30 61 45 30 60 47 31 59 50 35 62 50 36 62 50 36 61 49 33 60 51 34 63 51 37 61 49 37 62 50 34 61 49 33 62 46 33 62 49 33 64 48 33 63 47 32 62 49 33 64 52 38 64 52 36 63 51 37 63 51 37 61 52 37 61 49 35 61 45 32 61 43 29 61 45 32 62 46 31 61 45 30 62 46 31 62 49 33 62 49 33 57 45 33 
