P3
100 50
255
55 7 7 55 7 5 57 5 7 58 6 8 58 8 9 56 8 8 57 7 6 18 6 6 8 8 8 8 8 8 6 6 6 4 4 4 5 5 5 6 6 6 6 6 4 7 7 7 8 8 8 10 10 10 9 9 7 8 8 8 7 6 4 5 5 3 6 6 4 5 5 5 8 6 7 9 9 7 8 8 8 6 6 6 6 6 6 5 5 5 4 6 3 6 6 6 9 7 8 12 12 12 12 12 12 11 10 8 8 8 8 9 9 9 10 10 10 8 8 8 8 8 8 7 7 7 7 7 7 5 5 5 8 7 5 6 6 6 7 7 5 7 7 9 6 6 6 8 8 8 10 10 10 7 7 7 7 7 7 11 11 11 12 10 11 11 11 11 10 10 10 12 10 11 8 8 8 9 9 9 7 7 7 7 7 7 7 7 7 6 6 6 3 3 3 1 1 1 3 3 3 4 4 4 4 3 1 3 3 1 6 6 6 8 8 8 8 8 10 8 6 7 7 7 7 10 10 10 10 10 10 11 11 11 8 8 8 6 6 6 8 6 7 8 8 8 8 6 7 6 6 6 6 6 6 7 7 7 7 7 7 6 6 6 6 6 6 5 5 5 4 4 4 5 5 5 4 4 4 2 2 2 3 3 3 3 3 3 2 2 2 3 3 3 4 4 4 5 5 5 
58 8 9 57 7 6 56 6 7 58 6 8 56 6 7 56 8 6 57 9 9 57 9 9 26 8 8 6 6 8 4 6 5 6 6 6 6 6 6 6 6 6 7 7 7 8 8 6 9 9 7 9 9 9 10 8 9 9 9 11 8 8 8 5 5 3 5 5 5 5 5 3 7 7 7 7 9 8 6 6 6 5 5 3 6 6 6 6 8 7 6 6 6 6 6 6 8 8 8 11 11 11 12 12 12 10 10 8 8 8 8 8 8 8 9 9 11 8 8 8 8 8 8 8 8 6 8 8 8 5 5 7 4 4 4 5 5 5 8 6 7 7 7 7 8 8 8 8 9 11 10 9 7 7 7 7 8 8 8 10 8 9 10 10 10 9 9 9 11 11 11 11 11 11 12 10 11 10 10 10 8 8 8 8 8 8 8 8 8 8 8 8 5 5 5 3 3 3 3 3 3 2 2 2 5 3 4 6 6 4 5 5 5 7 7 9 9 7 8 8 6 7 9 7 10 12 12 12 8 8 8 11 11 11 10 10 10 8 8 8 9 9 9 10 10 10 8 8 8 7 7 7 5 5 5 7 7 7 7 7 7 8 8 8 7 7 7 6 6 6 5 5 5 5 5 5 6 6 6 5 5 5 4 4 4 3 3 3 1 1 1 3 3 3 5 5 5 8 8 8 
14 8 8 57 7 8 57 7 6 55 5 4 58 8 9 58 8 7 58 8 7 58 10 10 56 8 8 21 5 5 5 5 5 5 5 5 7 7 7 7 7 7 8 8 8 9 9 9 10 10 10 9 9 9 9 9 9 9 9 9 8 6 9 5 5 3 6 4 5 5 5 5 9 9 9 7 9 8 5 5 5 4 4 4 4 4 4 10 6 7 5 5 5 4 4 4 8 8 8 11 11 11 12 12 12 10 10 10 7 7 7 9 7 8 8 8 8 7 7 7 8 8 8 9 7 8 7 7 7 6 6 6 4 4 4 4 4 4 8 6 7 7 7 7 7 7 7 9 9 9 8 6 7 6 6 6 9 7 8 8 8 8 9 7 8 7 7 7 8 8 8 9 9 9 10 10 10 9 9 9 8 8 8 9 9 9 9 9 9 8 8 8 4 4 4 2 2 2 2 2 2 3 3 3 4 4 6 5 3 6 6 6 6 7 7 7 7 5 6 6 4 5 7 7 7 10 8 9 7 7 7 11 11 11 10 10 10 9 9 9 10 10 10 9 9 9 8 8 8 7 7 7 5 5 5 6 6 6 8 8 8 8 8 8 8 8 8 6 6 6 5 5 5 5 5 5 6 4 5 6 6 6 4 4 4 3 1 2 1 1 1 4 4 4 7 7 7 10 10 10 
6 6 4 13 7 7 50 8 9 56 6 7 57 7 8 57 7 8 58 8 7 59 9 10 57 7 6 25 5 6 6 4 5 6 6 6 7 7 7 7 7 7 8 8 8 11 11 11 10 10 10 8 8 8 8 8 8 8 8 8 6 6 6 5 5 5 5 5 5 6 6 6 9 9 9 9 9 9 7 7 5 3 5 4 5 5 5 8 6 7 5 5 5 6 6 6 8 8 8 12 12 12 11 11 11 9 9 9 9 9 9 10 10 10 8 8 8 6 6 6 9 9 9 9 9 9 9 9 9 8 8 8 6 4 5 5 5 5 7 7 7 7 7 7 7 7 7 8 6 7 6 6 6 6 6 6 7 7 7 6 6 6 6 8 7 7 7 7 8 6 7 7 7 7 9 7 8 7 7 7 7 7 7 8 8 8 7 7 7 8 8 8 6 6 6 4 4 4 2 2 2 2 2 2 3 3 1 6 4 5 8 7 5 8 8 8 5 5 5 3 3 3 3 3 5 7 5 10 6 6 6 11 11 11 12 12 12 8 8 8 9 9 9 8 8 8 7 7 7 7 7 7 6 6 6 5 5 5 8 8 8 9 9 9 8 8 8 6 6 6 5 5 5 5 5 5 5 5 5 6 4 5 4 2 3 2 2 2 4 4 4 6 6 6 9 9 9 10 10 10 
5 7 6 7 5 8 52 8 9 58 7 6 57 7 6 58 8 9 58 8 9 57 7 8 58 7 6 25 5 6 5 5 3 6 6 6 6 6 6 7 7 7 10 10 10 10 10 10 10 10 10 10 10 10 8 8 8 7 7 7 7 7 7 5 5 7 5 5 3 8 6 7 51 7 8 54 8 8 9 7 8 7 5 8 6 6 6 7 5 6 7 7 7 7 7 7 8 8 8 9 9 9 11 11 11 10 10 10 11 11 11 12 10 11 9 9 9 8 8 8 9 9 9 11 9 10 11 11 11 11 11 11 9 9 9 7 7 7 7 7 7 9 7 8 8 8 8 7 7 7 7 7 7 7 7 7 6 6 6 5 5 5 7 7 7 8 8 8 8 8 8 7 7 7 7 7 7 7 7 7 7 7 7 7 7 7 7 7 7 9 9 9 7 7 7 6 6 6 4 4 4 4 4 4 3 5 4 7 5 6 8 10 9 7 7 7 5 4 2 2 2 4 2 2 0 5 5 5 10 8 9 10 10 10 11 11 11 8 8 8 8 8 8 8 8 8 6 6 6 7 5 6 5 5 5 4 4 4 6 6 6 9 9 9 8 8 8 7 7 7 6 6 6 6 6 6 6 6 6 6 4 5 3 3 3 3 3 3 6 6 6 8 8 8 10 10 10 9 9 9 
5 7 6 6 6 6 19 7 7 21 7 7 19 7 7 19 9 7 48 6 7 59 7 9 58 7 6 26 6 7 6 6 6 4 4 4 7 7 7 7 7 7 8 8 8 9 9 9 11 11 11 11 11 11 9 9 9 8 8 8 8 8 8 6 6 8 4 4 4 5 5 5 57 7 6 58 8 7 8 8 10 8 6 7 6 6 6 9 7 8 10 10 10 10 10 10 9 9 9 9 9 9 9 9 9 10 10 10 10 10 10 10 10 10 9 9 9 8 8 8 10 10 10 11 11 11 12 12 12 13 13 13 12 12 12 10 10 10 8 8 8 7 7 7 7 7 7 6 6 6 6 6 6 6 6 6 7 7 7 6 6 6 7 7 7 8 8 8 7 7 7 7 7 7 7 7 7 7 7 7 8 8 8 7 7 7 8 8 8 8 8 8 8 8 8 7 7 7 6 6 6 6 6 6 5 3 6 6 6 4 8 7 5 6 6 6 6 6 8 4 4 4 44 4 2 7 7 5 10 10 10 9 9 9 9 9 9 7 7 7 6 6 6 8 8 8 7 7 7 6 6 6 4 4 4 4 4 4 5 5 5 7 7 7 7 7 7 7 7 7 6 6 6 6 6 6 7 7 7 5 5 5 3 3 3 3 3 3 8 8 8 10 10 10 7 7 7 7 7 7 
5 5 3 5 5 5 7 5 6 6 6 6 7 7 5 7 7 9 17 9 7 22 8 8 19 8 6 10 9 7 8 8 8 6 6 6 6 6 6 7 7 7 6 6 6 7 7 7 10 10 10 12 12 12 10 10 10 9 9 9 9 9 9 6 6 4 2 4 3 4 4 6 17 5 5 18 6 6 9 10 12 7 7 7 9 9 9 11 9 10 10 10 10 12 12 12 10 10 10 9 9 9 9 9 9 9 9 9 8 8 8 7 7 7 7 7 7 8 8 8 9 9 9 11 11 11 12 12 12 13 13 13 13 13 13 11 11 11 7 7 7 6 6 6 6 6 6 6 6 6 5 5 5 6 6 6 8 8 8 7 7 7 7 7 7 7 7 7 7 7 7 8 8 8 8 8 8 8 8 8 8 8 8 8 8 8 7 7 7 7 7 7 8 8 8 7 7 7 6 6 6 5 5 5 6 6 6 7 7 7 6 6 6 6 5 3 7 7 5 7 5 6 18 7 5 7 5 6 7 7 7 8 8 8 6 6 6 6 4 5 7 5 6 8 8 8 8 8 8 7 7 7 5 5 5 5 5 5 5 5 5 6 6 6 6 6 6 6 6 6 6 6 6 7 7 7 6 6 6 5 5 5 3 3 3 3 3 3 7 7 7 9 9 9 8 8 8 8 8 8 
4 4 4 5 5 5 7 8 3 6 6 6 6 6 6 6 6 6 7 7 7 9 9 9 11 9 10 10 10 10 8 8 8 8 8 8 6 6 6 6 6 6 6 6 6 8 8 8 10 10 10 11 11 11 11 11 11 10 10 10 9 9 9 6 6 8 4 4 4 4 4 4 5 5 5 6 6 6 8 8 8 8 8 6 8 8 8 10 10 10 10 10 10 10 10 10 10 10 10 10 10 10 9 9 9 7 7 7 7 7 7 7 7 7 6 6 6 7 5 6 8 8 8 9 9 9 10 10 10 13 11 12 12 12 12 9 9 9 5 5 5 5 5 5 6 6 6 7 5 6 5 5 5 6 6 6 7 7 7 6 6 6 7 7 7 7 7 7 8 8 8 8 8 8 8 8 8 7 7 7 7 7 7 7 7 7 7 7 7 6 6 6 7 7 7 7 7 7 7 7 7 6 6 6 6 6 6 6 6 4 5 5 7 5 5 3 9 9 9 8 8 10 5 5 5 4 4 6 5 5 5 7 7 7 5 5 5 3 5 4 4 6 5 6 6 6 7 7 7 6 6 6 4 4 4 6 6 6 6 6 6 6 6 6 4 4 4 6 6 6 7 7 7 7 7 7 6 6 6 4 4 4 5 5 5 6 6 6 7 7 7 7 7 7 7 7 7 9 7 8 
5 5 5 7 7 7 8 8 8 6 6 6 5 7 6 7 5 6 7 7 7 9 9 9 11 9 10 12 10 11 10 9 5 7 7 9 6 6 6 5 5 5 7 7 7 9 9 9 10 10 10 11 11 11 11 11 11 10 10 10 9 9 9 5 5 5 3 3 3 3 3 3 4 4 4 5 5 7 6 6 6 9 9 9 8 8 8 9 9 9 9 9 9 9 9 9 9 9 9 10 10 10 9 9 9 7 7 7 7 7 7 9 9 9 6 6 6 6 6 6 7 7 7 7 7 7 9 9 9 11 11 11 12 12 12 10 8 9 7 7 7 7 7 7 7 7 7 6 6 6 6 6 6 8 6 7 8 8 8 6 8 7 8 8 8 7 7 7 8 8 8 9 7 8 7 7 7 7 7 7 6 6 6 6 6 6 6 6 6 5 5 5 6 6 6 7 7 7 7 7 7 8 8 8 8 6 7 6 6 6 7 7 7 7 7 5 7 5 6 7 7 7 6 4 5 3 3 3 4 4 4 4 4 4 5 5 5 6 6 6 4 4 4 4 4 4 5 5 5 5 5 5 5 5 5 6 6 6 7 7 7 6 6 6 5 5 5 4 4 4 6 6 6 6 6 6 5 5 5 5 5 5 7 7 7 8 8 8 7 7 7 4 4 4 4 4 4 9 7 8 
5 5 5 7 7 7 8 10 7 6 6 6 7 7 5 6 6 8 7 7 5 7 7 7 9 9 9 10 10 12 10 10 10 8 6 7 6 6 6 7 7 7 7 7 7 8 8 8 9 9 9 10 10 10 10 10 10 9 9 9 7 7 5 4 4 6 3 3 3 4 2 3 5 5 5 5 5 7 6 6 4 8 8 8 8 8 8 8 8 8 10 10 10 11 11 11 10 10 10 11 9 10 8 8 8 7 7 7 8 8 8 8 8 8 7 7 7 7 5 6 6 6 6 8 8 8 9 9 9 12 10 11 13 11 12 9 9 9 8 8 8 8 8 8 9 7 8 7 7 7 7 7 7 7 7 7 7 7 7 8 6 7 8 8 8 8 6 7 9 9 9 8 8 8 7 7 7 7 7 7 7 7 7 5 5 5 5 5 5 5 5 5 6 6 6 6 6 6 8 8 8 6 6 6 7 5 6 6 6 8 7 7 7 7 7 9 4 6 5 5 5 5 5 5 7 4 2 3 2 2 2 3 1 2 4 4 4 7 7 7 5 5 5 6 6 6 6 4 5 4 4 4 4 4 4 5 5 5 6 6 6 6 6 6 5 5 5 5 5 5 6 6 6 5 5 5 4 4 4 5 5 5 8 8 8 9 9 9 6 6 6 5 3 4 4 2 3 7 7 7 
6 6 6 7 5 6 5 7 6 7 7 7 8 8 8 7 7 7 7 7 7 8 8 8 8 8 8 10 10 10 10 10 10 9 9 9 8 8 8 8 8 8 9 9 9 7 7 7 8 8 8 7 7 7 9 9 9 6 6 6 5 5 5 5 5 5 4 4 4 3 3 3 4 4 4 6 6 6 7 7 7 7 7 7 8 8 8 8 8 8 11 11 11 11 11 11 11 11 11 11 9 10 9 9 9 10 8 9 9 9 9 8 8 8 7 7 7 7 7 7 7 7 7 10 8 9 10 10 10 10 10 10 11 11 11 10 8 9 9 9 9 9 9 9 8 8 8 8 8 8 10 8 9 8 8 8 7 7 7 8 8 8 8 8 8 8 8 8 8 8 8 8 8 8 8 8 8 8 6 7 6 6 6 6 6 4 5 5 5 6 4 5 4 4 4 6 6 6 6 6 6 6 6 6 6 6 6 6 6 4 5 5 5 6 6 6 4 4 4 5 5 5 4 4 4 3 3 3 4 4 4 4 4 4 4 4 4 4 4 4 5 5 5 7 7 7 4 4 4 5 5 5 5 5 5 4 4 4 4 4 4 6 6 6 5 5 5 5 5 5 5 5 5 5 5 5 6 6 6 6 6 6 7 7 7 9 7 8 6 6 6 5 5 5 6 6 6 7 7 7 
7 5 6 6 6 4 6 6 6 7 7 7 7 7 7 6 6 6 6 6 6 7 7 7 8 8 8 9 9 9 10 10 10 9 9 9 7 7 7 7 7 7 8 8 8 8 8 8 7 7 7 7 7 7 8 8 8 7 7 7 4 4 4 4 4 4 4 4 4 3 3 3 4 4 4 7 7 7 8 8 8 8 8 8 8 8 8 10 8 9 10 10 10 11 11 11 10 10 10 10 10 10 10 10 10 8 8 8 10 10 10 9 9 9 8 8 8 8 8 8 9 7 8 9 9 9 9 9 9 9 9 9 9 9 9 8 8 8 9 9 9 9 9 9 8 8 8 9 9 9 10 10 10 8 8 8 7 7 7 8 8 8 8 8 8 8 8 8 8 8 8 8 8 8 8 8 8 7 7 7 6 6 4 4 6 5 5 5 5 6 4 5 5 5 5 5 5 5 7 7 7 6 6 8 6 6 6 5 5 5 4 4 4 6 4 7 5 3 4 4 4 4 4 4 4 4 4 4 6 4 5 5 5 5 5 5 5 5 5 5 5 5 5 6 6 6 7 7 7 4 4 4 4 4 4 3 3 3 5 5 5 6 6 6 6 6 6 6 6 6 5 5 5 6 6 6 6 6 6 7 5 6 7 7 7 7 7 7 6 6 6 6 6 6 7 7 7 7 7 7 
32 6 7 31 7 5 9 5 4 8 8 8 7 7 7 6 6 6 6 6 6 5 5 5 6 6 6 8 8 8 10 10 10 9 9 9 8 6 7 8 6 7 8 8 8 8 8 8 7 7 7 8 8 8 8 8 8 8 8 8 6 6 6 5 5 5 4 4 4 5 5 5 4 4 4 7 7 7 9 9 9 8 8 8 9 9 9 11 9 10 8 8 8 11 9 10 12 12 12 10 10 10 11 11 11 11 11 11 10 10 10 10 10 10 9 9 9 11 11 11 9 9 9 10 8 9 8 8 8 8 8 8 8 8 8 8 8 8 9 9 9 9 9 9 8 8 8 9 9 9 9 9 9 8 8 8 7 7 7 7 7 7 8 8 8 9 9 9 10 8 9 8 8 8 9 9 9 8 8 8 6 6 4 5 5 5 5 5 5 5 5 5 4 4 4 14 4 5 31 5 8 30 6 6 24 4 5 4 4 4 4 4 4 4 4 4 5 5 5 4 4 4 4 4 4 4 4 4 6 6 6 6 6 6 7 7 7 5 5 5 5 5 5 7 7 7 7 7 7 7 7 7 5 5 5 2 2 2 5 5 5 5 5 5 4 4 4 5 5 5 6 6 6 6 6 6 7 5 6 6 6 6 7 7 7 7 7 7 7 5 6 5 7 6 6 6 6 6 6 6 
56 6 5 55 5 6 10 4 6 7 5 6 6 6 6 6 6 6 5 5 5 6 6 6 6 6 6 8 8 8 8 8 8 8 8 8 8 8 8 8 8 8 10 10 10 9 9 9 9 9 9 10 10 10 9 9 9 9 7 8 7 7 7 5 5 5 4 4 4 5 5 5 6 6 6 7 7 7 8 8 8 8 8 8 9 7 8 8 8 8 8 8 8 8 10 9 10 10 10 10 10 10 11 11 11 12 12 12 11 11 11 10 10 10 10 10 10 11 11 11 9 9 9 8 6 7 7 7 7 8 8 8 8 8 8 9 9 9 9 9 9 9 9 9 10 10 10 9 9 9 9 9 9 8 8 8 7 5 6 6 6 6 7 7 7 12 8 9 9 9 9 8 8 8 9 9 9 8 10 9 7 7 7 6 6 6 6 6 8 5 5 5 4 4 2 14 6 4 31 5 8 31 5 6 24 6 4 4 4 2 4 4 4 4 4 4 5 5 3 5 3 4 4 4 4 4 4 4 5 5 5 7 7 7 9 7 8 7 7 7 8 6 7 7 7 7 8 8 8 7 7 7 3 3 3 2 2 2 5 5 5 6 6 6 5 5 5 5 5 5 6 6 6 6 6 6 6 6 6 6 6 6 6 6 6 7 7 7 5 5 5 4 4 4 6 4 5 6 6 6 
55 5 4 36 5 3 5 4 2 5 5 5 6 6 6 5 5 5 6 6 6 6 6 6 8 8 8 7 7 7 7 7 7 7 7 7 8 8 8 10 8 9 11 9 10 12 8 9 10 8 9 10 10 10 8 8 8 7 9 8 7 7 7 4 4 4 4 4 4 6 6 6 7 7 7 9 9 9 8 8 8 8 8 8 6 6 6 7 7 7 8 8 8 9 9 9 10 10 10 11 9 10 11 11 11 12 12 12 12 12 12 11 11 11 9 9 9 9 9 9 8 6 7 7 7 7 8 8 8 8 8 8 7 7 7 8 8 8 11 9 10 8 8 8 10 10 10 11 9 10 8 8 8 7 7 7 5 5 5 6 6 6 6 6 6 8 8 8 10 8 9 8 8 8 8 8 8 8 8 8 8 7 5 6 6 6 5 5 5 5 5 5 5 5 5 5 5 5 5 5 5 4 4 4 6 4 5 5 5 5 4 4 4 4 4 6 7 5 6 4 4 6 4 4 4 4 4 4 7 5 6 6 6 6 7 7 7 8 8 8 7 7 7 8 8 8 7 7 7 6 6 6 4 4 4 4 4 4 4 4 4 4 4 4 5 5 5 5 5 5 6 6 6 6 6 6 5 5 5 6 6 6 7 7 7 6 6 6 6 4 5 5 5 5 5 5 5 6 6 6 
39 5 4 5 5 5 5 5 5 5 5 3 6 6 6 6 6 6 7 7 7 8 8 8 8 8 8 7 7 7 6 6 6 6 6 6 7 7 7 9 9 9 10 10 10 9 9 9 9 9 9 9 9 9 7 7 7 7 7 7 6 6 6 5 5 5 6 6 6 9 7 8 8 8 8 9 7 8 9 9 9 7 7 7 4 4 4 5 5 5 8 6 7 9 9 9 11 11 11 8 10 9 11 9 10 12 10 11 12 12 12 11 11 11 9 9 9 8 8 8 9 7 8 7 7 7 9 9 9 9 9 9 7 7 7 8 8 8 11 9 10 9 9 9 10 10 10 11 9 10 9 9 9 6 6 6 6 4 5 6 6 6 6 6 6 8 6 7 9 9 9 8 8 8 7 7 7 6 8 7 5 5 5 6 6 6 5 5 5 5 5 5 5 3 4 5 5 5 4 4 4 4 4 2 4 4 4 4 4 2 4 4 4 3 5 4 4 4 4 3 4 6 6 4 5 4 4 4 4 4 4 4 4 4 6 6 6 7 7 7 8 8 8 8 8 8 5 5 5 5 5 5 4 4 4 4 4 4 4 4 4 4 4 4 6 6 6 6 6 6 6 6 6 4 4 4 4 4 4 6 6 6 6 6 6 5 5 5 6 4 5 6 6 6 7 7 7 6 6 6 
5 5 7 5 5 5 3 5 4 5 5 5 7 7 7 8 8 8 8 8 8 8 8 8 7 7 7 7 7 7 6 6 6 7 7 7 7 7 7 8 8 8 8 8 8 8 8 8 7 7 7 7 7 7 8 6 7 8 6 7 5 5 5 6 6 6 7 5 6 7 7 7 8 6 7 6 6 6 8 8 8 6 6 6 3 3 3 5 5 5 6 6 6 9 9 9 9 9 9 9 9 9 9 9 9 11 11 11 12 12 12 10 10 10 8 8 8 7 7 7 9 9 9 10 8 9 10 10 10 8 8 8 7 7 7 7 7 7 8 8 8 9 9 9 10 10 10 9 9 9 9 9 9 6 6 6 6 6 6 6 6 6 6 6 6 7 7 7 9 7 8 8 8 8 7 7 7 7 5 6 7 5 6 6 6 8 6 6 6 4 4 4 3 5 2 5 5 3 5 5 5 4 4 2 5 5 3 7 6 4 5 5 5 6 6 6 5 5 3 5 5 7 5 3 4 4 4 4 4 4 4 4 4 4 5 3 4 6 6 6 9 7 8 6 8 7 5 5 5 4 4 4 5 5 5 5 5 5 4 4 4 4 4 4 6 6 6 7 7 7 7 7 7 6 6 6 5 5 5 4 4 4 5 5 5 6 4 5 6 6 6 6 6 6 6 6 6 6 6 6 
7 7 7 6 6 6 5 5 5 6 6 6 7 7 7 8 8 8 9 9 9 9 9 9 8 8 8 6 6 6 6 6 6 7 7 7 8 8 8 8 8 8 8 8 8 7 7 7 7 7 7 7 7 7 8 8 8 7 7 7 6 6 6 5 5 5 6 6 6 6 4 5 6 6 6 8 6 7 8 8 8 6 6 6 5 3 4 6 6 6 7 5 6 8 8 8 8 8 8 8 8 8 8 8 8 11 11 11 11 11 11 9 9 9 8 8 8 8 8 8 11 9 10 8 8 8 10 10 10 9 9 9 7 7 7 6 6 6 6 6 6 9 9 9 9 9 9 9 9 9 9 9 9 8 8 8 6 6 6 7 7 7 6 6 6 6 6 6 7 7 7 8 8 8 7 7 7 7 5 6 6 6 6 5 5 7 6 6 6 5 5 3 4 6 5 8 6 7 7 5 6 6 6 4 6 6 6 6 6 6 6 4 5 6 6 6 5 5 7 6 4 7 5 5 5 4 4 4 4 4 4 4 4 4 5 5 5 5 5 5 8 8 8 6 6 6 4 4 4 4 4 4 4 4 4 6 6 6 4 4 4 5 5 5 6 6 6 7 7 7 7 7 7 6 6 6 6 6 6 6 6 6 6 6 6 7 7 7 7 7 7 7 7 7 6 6 6 7 5 6 
7 7 7 6 6 6 6 6 6 7 7 7 8 8 8 9 9 9 9 9 9 8 8 8 7 7 7 6 6 6 7 7 7 8 8 8 7 7 7 8 8 8 8 8 8 8 8 8 8 8 8 8 8 8 10 10 10 9 9 9 6 6 6 4 6 5 6 4 5 5 5 5 7 7 7 8 6 7 7 7 7 6 4 5 6 4 5 6 6 6 7 7 7 7 7 7 8 8 8 8 8 8 8 8 8 8 8 8 9 9 9 8 8 8 8 8 8 8 8 8 10 8 9 8 8 8 8 8 8 9 9 9 6 6 6 5 5 5 6 6 6 9 9 9 10 10 10 8 8 8 8 8 8 8 8 8 6 6 6 5 5 5 6 6 6 6 6 6 8 8 8 8 8 8 9 9 9 7 7 7 6 6 6 5 5 5 5 5 5 5 5 5 5 5 5 6 6 6 7 7 7 8 8 8 6 6 6 6 6 6 5 5 5 5 5 5 7 7 7 5 5 5 5 5 5 5 5 5 5 5 5 5 3 4 4 4 4 6 6 6 8 8 8 7 7 7 5 3 4 4 4 4 5 3 4 5 5 5 4 4 4 5 5 5 6 6 6 5 5 7 6 6 6 5 7 6 7 7 7 6 4 5 7 7 7 7 7 7 7 7 7 7 7 7 7 5 6 6 4 5 
6 6 6 5 5 5 7 7 7 9 9 9 7 7 7 9 9 9 8 8 8 8 8 8 8 8 8 8 8 8 7 7 7 7 7 7 8 8 8 9 9 9 8 8 8 8 8 8 8 8 8 8 8 8 11 11 11 10 10 10 8 8 8 7 5 6 4 4 4 5 5 5 7 7 7 5 7 6 7 5 6 4 4 4 6 4 5 6 6 6 6 6 6 6 6 6 7 7 7 6 6 6 6 6 6 7 7 7 7 7 5 7 7 7 7 7 7 8 8 8 7 7 7 8 8 8 9 9 9 9 7 10 7 7 7 6 6 6 7 7 5 9 9 9 9 9 9 9 9 7 8 8 8 7 7 7 6 6 6 4 4 4 5 5 5 7 7 7 7 7 7 9 9 9 9 9 9 8 8 8 6 6 6 4 4 4 5 5 5 4 4 4 5 5 5 7 7 7 8 8 8 9 9 9 6 6 6 7 5 6 6 6 6 5 7 6 7 7 7 6 6 6 4 4 4 5 5 5 5 5 5 5 5 5 6 4 5 7 7 7 8 8 8 8 6 7 5 5 5 4 4 4 4 4 4 3 1 2 3 5 4 5 5 5 6 6 6 6 6 6 6 6 6 6 4 5 6 4 5 5 5 5 6 6 6 7 7 7 7 7 9 8 6 7 4 6 3 5 5 7 
4 4 4 4 4 4 6 6 6 7 7 7 8 8 8 8 8 8 7 7 7 7 7 7 7 7 7 8 8 8 7 7 7 7 7 7 9 9 9 8 8 8 8 8 8 9 9 9 9 9 9 9 9 9 12 12 12 12 12 12 8 8 8 7 7 7 6 6 6 6 6 6 7 7 7 6 6 6 7 5 6 8 8 8 6 4 5 6 6 6 6 6 6 6 6 6 6 6 6 6 6 6 6 6 6 7 7 7 6 6 8 8 8 10 7 7 7 9 7 8 11 9 10 17 8 9 12 8 7 7 9 8 7 7 7 8 8 8 8 8 6 10 10 10 9 9 7 9 9 9 8 8 8 8 8 8 6 6 6 5 5 5 6 6 6 6 6 6 7 7 7 8 8 8 7 7 7 6 6 6 6 6 6 4 4 4 5 5 5 4 4 4 5 5 5 5 5 5 8 8 8 8 8 8 7 7 7 7 7 7 6 6 6 8 6 7 8 6 7 6 6 6 6 6 6 7 5 6 7 7 7 9 9 9 9 7 8 8 8 8 8 8 8 8 6 7 5 5 5 5 5 5 4 2 3 5 3 4 6 4 5 6 6 6 8 8 10 8 6 7 5 5 5 4 4 2 5 5 7 6 6 6 8 8 8 7 7 7 7 7 7 7 7 7 4 6 5 5 5 5 
4 4 4 5 5 5 6 6 6 8 6 7 7 7 7 7 7 7 7 7 7 5 5 5 6 6 6 5 5 5 6 6 6 7 7 7 7 7 7 9 9 9 8 8 8 9 9 9 10 10 10 9 9 9 10 10 10 10 10 10 10 10 10 9 7 8 7 7 7 6 4 5 6 4 5 6 4 5 7 7 7 8 6 7 6 4 5 5 5 5 5 5 5 5 5 5 3 3 3 4 4 4 5 5 5 6 6 6 7 7 9 11 7 8 8 8 8 9 7 8 25 9 9 59 9 12 45 9 9 9 9 9 9 9 7 8 8 10 10 10 8 10 10 10 8 8 8 8 8 8 8 8 8 8 8 8 6 6 6 5 5 5 7 7 7 7 7 7 8 8 8 7 7 7 8 8 8 6 6 6 6 4 5 6 4 5 5 3 4 5 3 4 5 3 4 6 4 5 8 6 7 8 6 7 7 7 7 6 6 6 5 5 5 6 6 6 7 7 7 7 7 7 7 7 7 6 6 6 6 6 6 8 8 8 9 9 9 8 8 8 7 7 7 5 5 5 4 4 4 4 4 4 4 4 4 4 4 4 5 3 6 6 8 7 10 10 10 8 8 8 5 5 5 8 4 3 10 6 5 8 8 6 8 8 8 7 7 7 7 7 7 7 7 7 6 6 6 5 5 5 
6 6 6 6 6 6 6 6 6 8 6 7 7 7 7 6 6 6 5 5 5 3 3 3 3 3 3 4 4 4 5 5 5 7 7 7 9 9 9 8 8 8 9 9 9 8 8 8 9 9 9 9 9 9 9 9 9 10 10 10 10 10 10 8 8 8 7 7 7 5 5 5 5 5 5 5 5 5 7 5 6 6 6 6 7 5 6 7 7 7 5 5 5 4 4 4 4 4 4 3 3 3 4 4 4 6 6 6 6 6 6 6 6 6 8 6 7 9 7 8 25 9 9 52 10 11 42 11 9 9 9 9 9 9 11 9 9 11 9 9 9 9 9 11 9 9 9 9 9 9 9 9 9 8 8 8 6 6 6 7 7 7 7 7 7 7 7 7 7 7 7 9 9 9 8 8 8 5 5 5 6 6 6 5 5 5 5 5 5 3 3 3 5 5 5 6 6 6 6 6 6 5 5 5 6 6 6 5 5 5 4 4 4 5 5 5 7 7 7 8 8 8 6 6 6 6 6 6 5 5 5 7 5 6 9 9 9 7 7 7 6 6 6 5 5 5 5 3 4 4 4 4 5 3 4 5 3 6 7 5 6 6 6 6 9 7 8 7 7 7 3 5 2 21 5 6 42 6 6 8 8 8 7 7 7 7 6 4 7 7 7 8 6 7 5 5 5 5 3 4 
8 8 8 7 7 7 7 7 7 6 6 6 8 8 8 5 5 5 3 3 3 3 3 3 2 2 2 4 4 4 6 6 6 8 8 8 10 10 10 9 9 9 8 8 8 9 9 9 8 8 8 9 9 9 10 10 10 10 10 10 9 9 9 8 10 9 4 4 4 4 4 4 4 4 4 4 4 4 5 5 5 5 5 5 7 5 6 7 7 7 5 5 5 3 3 3 4 4 4 4 4 4 4 4 4 6 6 6 8 8 8 7 7 7 6 5 3 3 7 6 9 9 9 10 10 10 9 9 9 9 9 11 9 9 7 9 9 7 9 9 7 9 9 9 8 8 6 9 9 9 10 10 10 8 8 8 7 7 7 8 8 8 7 7 7 7 7 7 7 7 7 8 8 8 8 8 8 7 7 7 7 7 7 7 7 7 5 5 5 4 4 4 6 6 6 6 6 6 6 6 6 6 6 6 5 5 5 4 4 4 5 3 4 6 4 5 8 8 8 10 8 9 7 5 6 5 5 5 6 6 6 7 7 7 8 8 8 6 6 6 6 6 6 4 4 4 3 3 3 4 4 4 5 4 2 5 5 5 6 6 6 6 6 6 5 5 7 5 5 5 4 4 4 4 4 4 7 5 6 7 7 7 6 6 6 7 7 5 7 7 5 7 7 7 9 5 6 4 2 3 
8 8 8 7 7 7 7 7 7 6 6 6 6 6 6 5 5 5 4 4 4 3 3 3 4 4 4 4 4 4 6 6 6 9 9 9 8 8 8 7 7 7 7 7 7 9 9 9 10 10 10 10 10 10 11 11 11 11 11 11 9 7 8 5 5 5 2 2 2 4 2 3 5 5 5 6 6 6 6 6 6 5 5 5 8 6 7 7 7 7 5 5 5 4 4 4 5 5 5 5 5 5 4 4 4 6 6 6 8 8 8 7 7 7 5 5 5 5 5 5 8 10 9 10 10 10 10 10 10 9 7 8 8 8 8 9 9 11 9 9 9 7 7 5 7 7 7 7 7 7 9 9 9 7 7 7 9 9 9 9 9 9 8 8 8 8 8 8 7 7 7 7 7 7 8 8 8 7 7 7 6 6 6 7 7 7 6 6 6 8 8 8 9 9 9 6 6 6 7 7 7 7 7 7 7 5 6 4 4 4 4 4 4 4 4 4 6 6 6 7 7 7 8 8 8 8 8 8 6 6 6 7 7 7 4 4 4 5 5 5 7 7 7 6 6 6 5 5 5 4 4 4 5 3 6 6 6 4 6 6 8 5 5 5 6 4 5 6 6 6 6 4 5 5 5 3 6 6 6 7 7 7 7 7 7 8 8 8 9 9 9 8 8 8 6 6 6 4 4 4 
8 8 8 8 8 8 8 6 7 8 6 7 6 6 6 6 6 6 4 4 4 4 4 4 5 5 5 6 6 6 7 7 7 8 8 8 7 7 7 7 7 7 8 8 8 9 9 9 9 9 9 13 13 13 11 11 11 11 11 11 7 7 7 4 4 4 2 2 2 2 2 2 5 3 4 7 5 6 7 7 7 8 6 7 8 6 7 7 7 7 5 5 5 5 5 5 5 5 5 6 6 6 5 5 5 5 5 5 7 7 5 6 4 5 6 6 6 9 7 8 11 11 9 10 10 10 10 10 10 8 8 10 8 8 8 8 8 6 8 8 8 7 7 7 6 6 6 8 8 8 8 8 8 8 8 8 10 10 10 10 10 10 6 6 6 8 8 8 7 7 7 6 6 6 7 7 7 6 6 6 7 7 7 8 8 8 10 10 10 13 13 13 12 12 12 10 10 10 7 7 7 7 7 7 6 6 6 6 6 6 4 4 4 5 5 5 6 6 6 7 7 7 11 11 11 11 11 11 7 7 7 7 7 7 5 5 5 5 5 5 4 4 4 5 5 5 4 4 4 4 4 4 3 3 3 5 3 6 5 3 4 4 4 4 6 6 6 7 7 9 5 5 5 5 7 6 7 7 7 6 6 6 7 7 7 9 7 8 9 9 9 8 8 8 6 6 6 7 3 2 
8 8 8 7 7 7 7 7 7 7 7 7 7 7 7 6 6 6 4 4 4 6 6 6 6 6 6 7 7 7 7 7 7 7 7 7 7 7 7 8 8 8 7 7 7 7 7 7 9 9 9 11 11 11 11 11 11 9 9 9 7 7 7 3 3 3 4 4 4 4 4 4 5 5 5 5 5 5 6 6 6 8 8 8 9 7 8 7 7 7 7 7 7 4 4 6 3 2 0 3 3 3 5 3 4 5 5 5 6 6 6 6 6 6 7 7 7 9 7 8 12 10 11 10 10 10 9 9 9 8 8 8 7 7 7 8 8 8 6 6 6 6 6 6 9 7 8 6 6 6 8 8 8 9 9 9 9 9 9 8 8 8 8 8 8 7 7 7 6 6 6 6 6 6 6 6 6 6 6 6 6 6 6 7 7 7 9 9 9 12 12 12 10 10 10 8 8 8 9 9 9 7 7 7 7 7 7 6 4 5 5 5 5 8 8 8 4 4 4 7 5 6 9 9 9 9 9 9 7 7 7 5 5 5 6 4 5 5 3 6 3 3 5 6 4 5 5 3 6 5 3 4 6 6 6 6 4 5 4 4 6 4 4 4 6 6 6 7 7 7 7 7 7 6 6 6 6 6 6 6 6 6 6 6 6 6 6 6 6 6 6 8 8 8 7 7 7 4 4 4 
10 8 9 9 9 9 7 7 7 6 6 6 6 6 6 6 4 5 4 4 4 6 4 5 6 6 6 8 6 7 7 7 7 7 7 7 7 7 7 7 7 7 7 7 7 8 8 8 9 9 9 9 9 9 9 9 9 8 8 8 8 8 8 6 6 6 5 3 4 3 3 3 6 4 5 7 5 6 6 6 6 7 7 7 8 7 5 8 8 8 7 7 7 5 5 3 4 4 4 4 4 4 4 2 3 4 4 4 6 6 6 6 6 6 6 6 6 9 9 9 11 11 11 9 9 9 8 8 8 7 7 7 7 7 7 6 6 6 6 4 5 7 7 7 8 8 8 7 7 7 10 10 10 11 11 11 8 8 8 7 7 7 7 7 7 7 7 7 7 7 7 5 5 5 6 6 6 6 6 6 7 7 7 7 7 7 7 7 7 9 9 9 8 8 8 7 7 7 8 8 8 9 9 9 8 8 8 7 7 7 6 6 6 7 7 7 5 5 5 6 6 6 7 7 7 7 7 7 6 6 6 6 4 5 6 4 5 5 5 5 4 4 4 4 4 4 6 6 6 5 3 4 4 4 4 5 3 4 5 3 4 4 4 4 5 5 5 6 6 6 7 7 7 6 6 6 6 6 6 7 7 7 6 6 6 5 5 5 5 5 5 7 7 7 8 8 8 6 6 6 
11 11 11 10 10 10 9 9 9 7 7 7 6 6 6 5 5 5 5 5 5 5 5 5 5 5 5 7 7 7 6 6 6 7 7 7 8 8 8 8 8 8 7 7 7 7 7 7 8 8 8 8 8 8 7 7 7 8 8 8 9 9 9 8 8 8 5 3 4 4 2 3 5 5 5 8 6 7 7 7 7 7 7 7 8 6 7 8 8 8 9 7 8 8 8 8 8 8 6 5 5 5 6 6 6 6 4 5 6 6 6 7 7 7 7 7 7 8 8 8 9 9 9 8 8 8 6 6 6 5 5 5 5 5 5 5 5 5 5 5 5 7 7 7 8 8 8 9 9 9 12 10 11 10 10 10 7 7 7 6 6 6 7 7 7 7 7 7 8 8 8 8 8 8 8 8 8 7 7 7 7 7 7 8 8 8 7 7 7 7 7 7 7 7 7 8 8 8 9 9 9 10 10 10 10 10 10 9 9 9 6 6 6 7 7 7 7 5 6 5 5 5 6 6 6 6 6 6 6 8 7 9 7 8 9 9 9 8 8 6 8 8 8 6 6 6 6 6 4 6 6 6 7 5 6 4 5 7 5 3 4 4 4 4 4 4 4 5 5 5 6 6 6 6 6 6 6 6 6 9 9 9 7 7 7 5 5 5 3 3 3 7 7 7 8 8 8 10 10 10 
14 12 13 14 14 14 11 11 11 8 8 8 5 5 5 4 4 4 5 5 5 5 5 5 6 4 5 5 5 5 6 6 6 8 8 8 8 8 8 7 7 7 7 7 7 6 6 6 8 8 8 8 8 8 7 7 7 8 8 8 8 8 8 7 7 7 3 3 3 3 3 3 5 5 5 7 7 7 7 7 7 7 7 7 7 7 9 9 7 8 10 10 10 12 10 11 44 41 32 50 46 35 20 19 15 6 6 6 6 6 6 7 7 7 7 7 7 8 8 8 9 9 9 7 7 7 6 6 6 4 4 4 5 5 5 5 5 5 6 6 6 7 7 7 8 8 8 9 9 9 10 10 10 10 8 9 5 5 5 4 4 4 6 6 6 6 6 6 8 8 8 9 9 9 9 9 9 9 9 9 8 8 8 9 9 9 7 7 7 7 7 7 8 8 8 10 10 10 10 10 10 9 9 9 10 10 10 9 9 9 8 8 8 8 8 8 8 8 8 5 5 5 3 3 3 4 4 4 7 7 7 9 9 11 11 9 10 9 9 7 9 9 9 6 8 7 7 7 5 8 6 7 36 4 7 21 5 5 5 5 5 4 4 4 3 3 3 6 5 3 4 4 4 6 6 6 8 8 8 9 9 9 8 8 8 6 6 6 3 3 3 7 7 7 11 11 11 11 11 11 
13 13 13 14 14 14 12 12 12 8 8 8 4 4 4 4 4 4 5 3 4 4 4 4 4 4 4 4 4 4 7 5 6 8 8 8 8 8 8 6 6 6 6 6 6 7 7 7 7 7 7 7 7 7 6 6 6 6 6 6 7 7 7 7 7 7 6 6 6 4 4 4 4 4 4 5 5 5 7 7 7 6 6 6 7 9 8 8 8 8 9 9 7 9 9 9 16 16 14 39 18 15 24 8 8 7 7 7 6 6 6 8 6 7 7 7 7 9 9 9 8 8 8 7 7 7 7 5 6 4 4 4 5 3 4 4 4 4 6 6 6 6 6 6 9 9 9 8 8 8 8 8 8 6 6 6 5 5 5 4 4 4 7 7 7 7 7 7 8 8 8 7 7 7 8 8 8 10 10 10 8 8 8 7 7 7 7 7 7 6 6 6 7 7 7 10 10 10 11 11 11 9 9 9 9 9 9 10 10 10 9 9 9 9 9 9 9 9 9 6 6 6 4 4 4 2 2 2 4 6 5 10 10 10 10 10 12 9 7 8 9 7 8 8 6 7 34 31 24 20 19 15 15 3 5 8 4 3 4 2 3 4 4 2 5 3 4 5 5 5 6 6 6 8 8 8 9 9 9 9 9 9 8 8 8 8 8 8 4 4 4 8 8 8 12 12 12 9 9 9 
10 10 10 10 10 10 11 9 10 7 7 7 6 6 6 5 5 5 6 6 6 3 3 3 5 5 5 4 4 4 6 6 6 7 7 7 8 6 7 7 5 6 6 4 5 8 6 7 9 7 8 8 6 7 8 6 7 9 7 8 7 7 7 7 7 7 8 6 7 6 4 5 4 4 4 5 3 4 6 6 6 7 7 7 6 6 6 6 6 4 8 8 6 8 8 8 7 7 7 16 7 8 9 8 6 6 6 6 5 5 5 6 6 6 7 7 7 6 6 6 6 6 6 6 6 6 6 6 6 6 6 6 5 3 4 5 5 5 6 6 6 7 5 6 7 7 7 8 8 8 9 7 8 5 5 5 4 4 4 5 5 5 7 7 7 7 7 7 7 7 7 7 7 7 8 8 8 8 8 8 8 8 8 6 6 6 6 6 6 7 7 7 8 8 8 10 10 10 12 12 12 11 11 11 9 9 9 9 9 9 9 9 9 10 8 9 10 10 10 8 8 8 5 5 5 3 3 3 4 4 4 10 10 10 12 12 12 10 8 9 6 8 7 7 7 7 15 15 13 10 8 9 5 5 3 4 4 4 4 4 4 4 4 4 5 5 5 5 3 4 7 7 7 6 6 6 8 8 8 8 8 8 9 9 9 8 8 8 8 8 8 9 9 9 10 10 10 8 8 8 
8 8 8 9 9 9 8 8 8 7 7 7 6 6 6 4 4 4 4 4 4 5 3 4 5 5 5 5 3 4 5 5 5 7 7 7 8 8 8 7 7 7 8 8 8 8 8 8 8 8 8 9 9 9 9 9 9 9 9 9 7 7 7 6 6 6 5 3 4 4 4 4 5 3 4 5 3 4 6 6 6 7 7 7 7 7 7 6 4 5 6 6 6 8 8 8 8 6 7 7 7 5 6 6 4 7 5 8 5 5 5 6 6 6 6 6 6 6 6 6 5 5 5 4 4 4 5 5 5 6 6 6 5 5 5 6 6 6 8 6 7 9 7 8 7 7 7 7 7 7 6 6 6 5 3 4 4 4 4 6 6 6 7 7 7 7 7 7 8 8 8 9 9 9 10 10 10 8 8 8 8 6 7 9 7 8 9 7 8 10 8 9 9 7 8 10 8 9 14 12 13 13 11 12 10 10 10 10 10 10 9 9 9 9 9 9 10 10 10 9 9 9 6 6 6 4 4 4 6 6 6 10 10 10 11 11 11 9 9 7 7 7 7 7 7 7 6 8 7 6 6 8 6 6 6 5 5 5 6 6 6 6 6 6 6 6 6 6 6 6 6 8 7 7 7 7 6 6 6 8 8 8 9 9 9 10 10 10 9 9 9 8 8 8 9 9 9 8 8 8 
8 8 8 8 8 8 7 7 7 5 5 5 5 5 5 4 4 4 5 5 5 5 5 5 5 5 5 6 6 6 6 6 6 8 8 8 9 9 9 9 9 9 8 8 8 8 8 8 8 8 8 9 9 9 11 11 11 10 10 10 8 8 8 8 8 8 5 5 5 3 3 3 3 3 3 4 4 4 4 4 4 6 6 6 5 7 6 5 5 3 6 4 5 8 6 7 6 6 6 6 6 6 5 6 8 5 5 5 4 4 4 5 5 5 7 7 7 7 7 7 4 4 4 6 6 6 6 6 6 6 6 6 5 5 5 6 4 5 9 9 9 8 8 8 9 7 8 8 6 7 5 5 5 5 5 5 5 5 5 6 6 6 7 7 7 8 8 8 8 8 8 8 8 8 8 8 8 7 7 7 7 7 7 7 7 7 7 7 7 8 8 8 8 8 8 9 9 9 11 11 11 11 11 11 13 13 13 12 12 12 12 10 11 8 8 8 9 9 9 8 8 8 7 5 6 4 4 4 8 8 8 11 11 11 10 8 9 8 9 4 7 7 7 6 6 6 7 7 7 9 7 10 6 6 6 6 4 5 7 7 9 8 8 8 8 8 8 8 8 8 7 5 6 7 7 7 6 6 6 8 8 8 10 10 10 9 9 9 9 9 9 7 7 7 6 6 6 7 7 7 
8 8 8 9 9 9 8 8 8 5 5 5 5 5 5 4 4 4 5 5 5 6 6 6 6 6 6 6 6 6 8 8 8 8 8 8 9 9 9 9 9 9 8 8 8 8 8 8 8 8 8 7 7 7 8 8 8 9 9 9 10 10 10 7 7 7 5 5 5 2 2 2 1 1 1 3 3 3 5 5 5 6 6 6 5 5 5 5 5 5 5 5 5 5 5 5 5 5 5 5 5 5 5 5 5 5 3 4 4 4 4 4 4 4 7 5 6 7 7 7 7 7 7 6 6 6 7 7 7 5 5 5 4 4 4 6 6 6 6 6 6 7 7 7 7 7 7 7 5 6 6 6 6 8 6 7 7 7 7 6 6 6 6 6 6 7 7 7 9 9 9 7 7 7 6 6 6 6 6 6 8 8 8 7 7 7 6 6 6 5 5 5 7 7 7 7 7 7 8 8 8 9 9 9 11 9 12 11 11 11 9 9 9 6 8 7 7 7 9 7 7 7 9 7 8 7 5 6 8 8 8 9 9 9 7 7 7 7 7 7 7 7 7 6 6 6 6 6 6 6 6 6 6 4 5 4 4 2 4 4 4 8 6 7 8 8 8 7 7 7 8 8 8 7 7 7 6 6 6 8 10 9 8 10 9 8 8 8 9 9 9 9 9 9 7 7 7 7 7 7 
7 7 7 8 8 8 8 8 8 7 7 7 5 5 5 5 5 5 6 6 6 8 8 8 9 9 9 7 7 7 7 7 7 8 8 8 7 7 7 7 7 7 7 7 7 9 9 9 9 9 9 8 8 8 9 9 9 9 9 9 13 9 10 8 6 7 5 5 5 2 2 2 1 1 1 3 3 3 4 4 4 5 5 5 6 6 6 6 6 6 7 5 6 5 5 5 6 6 6 6 6 6 6 6 6 5 5 5 4 4 4 4 2 3 4 4 4 6 6 6 7 7 7 7 7 7 6 6 6 5 5 5 4 4 4 5 3 4 6 6 6 6 6 6 6 6 6 5 5 5 6 6 6 7 7 7 5 5 5 6 6 6 7 7 7 8 8 8 7 7 7 8 8 8 7 7 7 7 7 7 6 6 6 6 6 6 6 6 6 6 6 6 7 7 7 7 7 7 9 9 9 9 9 9 11 9 10 9 9 9 9 9 9 8 6 7 8 8 8 7 7 9 7 7 7 8 6 7 8 8 8 7 7 7 6 6 6 6 6 6 6 6 6 7 7 7 7 7 7 6 6 6 7 7 5 5 5 5 4 4 4 5 5 5 9 7 8 8 8 8 8 8 8 7 7 7 7 7 9 8 8 8 9 9 9 9 9 9 11 11 11 10 10 10 10 10 10 7 7 7 
8 8 8 8 8 8 8 8 8 7 7 7 6 6 6 5 5 5 7 7 7 6 6 6 7 7 7 7 7 7 7 7 7 8 8 8 8 8 8 8 8 8 8 8 8 8 8 8 9 9 9 10 10 10 9 9 9 10 10 10 10 10 10 6 6 6 6 6 6 2 2 2 1 1 1 3 3 3 5 5 5 5 5 5 5 5 5 6 6 6 7 7 7 6 6 6 6 6 6 5 5 5 6 6 6 7 5 6 5 5 5 4 4 4 4 2 3 5 5 5 7 7 7 7 7 7 6 6 6 5 5 5 4 4 4 4 4 4 5 5 5 7 5 6 5 5 5 6 6 6 6 6 6 7 7 7 6 6 6 6 6 6 7 5 6 8 8 8 7 7 7 7 7 7 8 8 8 7 7 7 6 6 6 7 7 7 6 6 6 7 7 7 8 8 8 7 7 7 8 8 8 9 9 9 9 9 9 10 10 10 9 9 9 8 8 8 8 8 8 7 7 7 5 5 5 6 6 6 7 7 7 7 7 7 6 6 6 6 6 6 4 4 4 7 7 7 8 8 8 6 6 6 5 5 5 5 5 5 6 4 5 5 5 5 8 6 7 8 8 8 7 7 7 9 7 8 7 5 6 8 6 7 9 7 8 10 8 9 11 11 11 10 10 10 9 9 9 8 8 8 
5 5 5 7 7 7 9 9 9 7 7 7 7 7 7 5 5 5 6 6 6 6 6 6 6 6 6 6 6 6 7 7 7 7 7 7 7 7 7 9 9 9 9 9 9 8 8 8 8 8 8 9 9 9 10 10 10 10 10 10 10 10 10 8 8 8 5 5 5 2 2 2 1 1 1 3 3 3 4 4 4 5 5 5 6 6 6 6 6 6 6 6 6 7 5 6 7 7 7 7 7 7 6 8 7 7 7 7 6 6 6 5 5 5 6 4 5 5 5 5 6 6 6 6 6 6 6 6 6 5 5 5 5 5 5 5 5 5 5 5 5 7 7 7 7 7 7 6 6 6 6 4 5 6 6 6 7 5 6 6 6 6 6 6 6 7 7 7 9 7 8 8 8 8 7 7 7 6 6 6 6 6 6 7 7 7 6 6 6 8 8 8 8 8 8 7 7 7 7 7 7 7 7 7 10 8 9 11 11 9 11 11 11 9 8 6 11 7 8 8 8 8 31 7 7 31 5 4 7 7 7 8 8 8 7 7 7 6 6 6 6 6 6 7 7 7 7 7 7 6 6 6 5 5 5 4 4 6 3 5 4 6 4 5 6 6 6 7 7 7 15 13 14 31 26 22 25 22 17 7 7 7 9 9 11 9 7 8 10 10 10 8 8 8 7 7 7 8 8 8 
4 4 4 6 6 6 7 7 7 8 8 8 7 7 7 6 6 6 5 5 5 5 5 5 5 5 5 4 4 4 5 5 5 6 6 6 7 7 7 8 8 8 8 8 8 7 7 7 7 7 7 8 8 8 9 9 9 8 8 8 10 8 9 9 7 8 4 4 4 3 3 3 3 3 3 4 4 4 4 4 4 5 5 5 6 4 5 7 7 7 7 7 7 7 7 7 8 8 8 8 8 8 8 8 8 8 8 8 7 7 7 6 4 5 5 5 5 5 5 5 6 6 6 4 4 4 5 5 5 5 5 5 5 5 5 5 5 5 7 7 7 7 7 7 6 6 6 6 6 6 6 6 6 7 5 6 6 6 6 6 6 6 8 6 7 6 6 6 8 8 8 7 7 7 7 7 7 6 6 6 6 6 6 7 7 7 7 7 7 8 8 8 8 8 8 8 8 8 7 7 7 7 7 7 8 8 8 10 10 10 11 11 11 10 9 7 8 8 8 8 8 8 30 6 6 30 4 5 6 6 6 7 7 7 8 8 8 6 6 6 7 7 7 8 8 8 6 6 6 4 4 4 3 3 3 4 4 4 6 6 6 5 5 5 4 4 4 6 6 6 26 23 18 47 36 32 25 21 18 7 7 7 7 7 7 9 7 8 7 7 7 7 7 7 8 6 7 9 7 8 
5 5 5 5 5 5 7 7 7 10 10 10 8 8 8 6 6 6 4 4 4 4 4 4 4 4 4 3 3 3 3 3 3 5 5 5 7 7 7 7 7 7 8 8 8 7 7 7 7 7 7 7 7 7 8 8 8 8 8 8 12 10 11 8 8 8 4 4 4 4 4 4 4 4 4 4 4 4 4 4 4 5 5 5 5 5 5 5 7 6 7 7 7 7 7 7 10 8 9 8 8 8 8 8 8 7 7 7 7 7 7 7 5 6 5 5 5 5 5 5 5 5 5 5 5 5 5 5 5 5 5 5 5 5 5 5 5 5 9 7 8 8 8 8 7 7 7 7 5 6 6 6 6 7 7 7 8 6 7 7 7 7 6 6 6 6 6 6 8 6 7 8 8 8 8 8 8 7 7 7 6 6 6 7 7 7 8 8 8 6 6 6 5 5 5 7 7 7 8 8 8 7 7 7 8 8 8 9 9 11 11 11 11 10 10 10 8 8 8 7 7 7 5 5 5 3 3 5 5 5 5 6 6 6 6 6 6 7 7 7 6 6 6 5 5 5 4 4 4 3 3 3 4 4 4 5 5 5 5 5 5 5 5 5 5 5 5 6 6 6 20 16 15 26 21 17 6 6 6 7 7 7 8 8 10 8 8 8 7 9 6 7 9 8 7 7 9 7 5 6 
5 5 5 6 6 6 6 6 6 10 10 10 8 8 8 7 7 7 5 5 5 3 3 3 4 4 4 4 4 4 5 5 5 5 5 5 5 5 5 5 5 5 6 6 6 8 8 8 9 9 9 9 9 9 9 9 9 9 9 9 11 11 11 8 8 8 5 5 5 4 4 4 5 5 5 3 3 3 4 4 4 6 6 6 8 6 7 6 6 6 7 7 7 7 7 7 7 7 7 7 7 7 9 9 9 8 8 8 7 7 7 6 6 6 7 5 6 6 6 6 5 5 5 4 4 4 5 5 5 6 6 6 7 5 6 8 8 8 8 8 8 9 9 9 8 8 8 7 7 7 7 7 7 5 7 6 7 7 7 7 7 7 8 8 8 7 7 7 7 7 7 9 9 9 8 8 8 6 6 6 7 7 7 8 8 8 7 7 7 5 5 5 4 4 4 6 6 6 9 9 9 9 9 9 10 10 10 9 9 7 11 9 10 9 11 10 8 8 8 7 7 7 5 5 7 5 5 5 6 6 6 7 7 7 5 5 5 7 7 7 5 5 5 4 4 4 4 4 4 4 4 4 4 4 4 4 6 5 5 5 5 5 5 5 6 8 7 7 7 7 5 5 5 6 6 6 6 6 6 7 7 7 7 7 7 8 8 8 9 9 11 9 9 9 9 9 7 7 7 7 
5 5 5 6 6 6 7 7 7 8 8 8 7 7 7 7 7 7 7 7 7 5 5 5 6 6 6 6 6 6 5 5 5 5 5 5 5 5 5 5 5 5 7 7 7 8 8 8 8 8 8 9 9 9 9 9 9 10 10 10 12 10 11 10 8 9 8 8 8 8 8 8 4 4 4 4 4 4 5 5 5 7 7 7 6 6 6 6 6 6 6 6 6 5 5 5 5 5 5 7 5 6 8 8 8 9 9 9 8 8 8 7 5 6 6 6 6 6 6 6 5 5 5 4 4 4 5 5 5 5 5 5 7 7 7 7 7 7 7 7 7 7 7 7 9 9 9 9 9 9 9 7 8 7 7 7 7 7 7 7 7 7 7 7 7 7 7 7 7 7 7 8 8 8 7 7 7 6 6 6 7 7 7 7 7 7 6 6 6 5 5 5 4 4 4 6 6 6 9 9 9 9 9 9 10 10 10 8 8 8 7 7 5 9 9 9 9 9 9 7 7 7 6 5 3 5 5 3 6 6 6 5 5 5 5 5 5 7 7 7 7 7 7 4 4 4 4 4 4 4 4 4 4 4 2 5 5 5 5 5 5 5 5 5 5 5 5 6 6 4 6 6 6 7 5 6 6 6 6 6 6 6 7 7 7 8 8 8 9 9 7 9 9 9 8 8 10 7 9 8 
4 4 4 6 6 6 7 7 7 7 7 7 8 8 8 8 8 8 8 8 8 8 8 8 9 9 9 10 10 10 8 8 8 7 7 7 6 6 6 6 6 6 7 7 7 8 8 8 8 6 7 7 7 7 8 8 8 11 9 10 12 12 12 10 10 10 9 9 9 9 9 9 4 4 4 4 4 4 5 5 5 7 7 7 6 6 6 4 4 4 4 2 3 5 5 5 7 7 7 7 5 6 8 8 8 9 9 9 7 7 7 6 6 6 5 5 5 7 5 6 7 7 7 6 6 6 5 5 5 6 6 6 7 7 7 6 6 6 5 5 5 6 6 6 9 9 9 11 11 11 10 10 10 7 7 7 7 7 7 7 7 7 7 7 7 7 5 6 7 5 6 8 8 8 7 7 7 6 6 6 8 6 7 7 5 6 5 5 3 4 4 4 4 4 4 6 6 6 9 8 6 8 6 7 8 8 8 7 7 7 7 7 7 7 7 7 8 8 8 7 7 7 7 7 7 7 5 6 6 6 6 6 6 6 8 6 7 7 7 9 7 7 7 5 7 6 4 4 4 5 3 4 4 4 4 5 5 5 4 4 4 5 3 4 5 5 5 7 5 6 6 6 6 5 5 3 6 6 6 6 6 6 8 8 8 7 7 7 8 8 8 6 6 6 6 6 6 8 8 8 
4 4 4 5 5 5 5 5 5 7 7 7 10 10 10 8 8 8 8 8 8 9 9 9 10 10 10 10 10 10 9 9 9 8 8 8 7 7 7 7 7 7 7 7 7 8 6 7 7 7 7 7 7 7 8 8 8 11 11 11 13 13 13 9 9 9 8 8 8 7 5 6 5 3 4 5 5 5 6 6 6 7 7 7 5 5 5 4 4 4 6 6 6 6 6 6 7 7 7 5 5 5 6 6 6 7 7 7 8 6 7 5 5 5 4 4 4 6 6 6 7 7 7 6 6 6 4 4 4 5 5 5 5 5 5 7 5 6 4 4 4 5 5 5 7 7 9 10 8 9 10 10 10 9 7 8 7 5 6 6 6 6 7 5 6 5 5 5 7 7 7 8 6 7 7 7 7 8 6 7 7 7 9 7 7 7 6 6 6 5 5 7 5 5 5 5 3 6 6 5 3 7 7 7 7 7 7 7 7 7 7 7 7 7 7 7 6 6 6 8 8 8 8 6 7 5 5 5 6 6 6 7 7 7 6 6 6 5 5 5 7 5 6 6 6 6 6 6 6 5 5 5 4 4 4 4 4 4 3 4 6 4 4 4 5 3 4 6 6 4 5 7 6 5 5 5 5 5 5 7 7 7 7 7 7 7 7 7 6 6 6 5 5 5 7 7 7 7 7 7 
4 4 4 4 4 4 5 5 5 9 9 9 11 11 11 8 8 8 9 9 9 10 10 10 10 10 10 11 11 11 10 10 10 9 9 9 8 6 7 7 7 7 8 8 8 8 8 8 10 10 10 8 8 8 8 8 8 11 11 11 13 13 13 10 10 10 7 7 7 7 5 6 6 4 5 6 6 6 7 7 7 6 6 6 5 5 5 5 5 5 6 6 6 4 4 4 6 6 6 5 5 5 5 5 5 6 6 6 6 6 6 5 5 5 4 4 4 7 5 6 7 7 7 6 6 6 5 5 5 5 5 5 5 5 5 6 6 6 4 4 6 6 6 6 7 7 7 7 7 7 7 7 7 7 7 9 7 7 7 5 5 5 4 4 4 5 3 4 6 4 5 7 7 7 8 8 8 8 8 8 7 7 7 7 7 7 6 4 5 4 4 4 5 3 4 4 4 6 5 5 5 4 4 4 6 6 6 7 7 7 6 6 6 6 6 6 6 6 6 6 6 6 5 3 4 7 7 7 6 8 7 8 6 7 8 7 5 5 7 4 7 7 5 6 6 4 14 4 3 10 5 2 7 5 6 5 3 4 5 4 2 3 5 4 6 4 5 5 5 5 6 6 6 6 6 6 6 6 6 8 8 8 7 7 7 6 6 6 7 7 7 6 6 6 6 6 6 5 5 5 
5 5 5 6 6 6 7 7 7 9 9 9 9 9 9 8 8 8 8 8 8 9 9 9 9 9 9 10 10 10 10 10 10 9 9 9 8 8 8 7 7 7 7 7 7 8 8 8 8 8 8 8 8 8 8 8 8 11 9 10 10 10 10 9 9 9 8 8 8 7 7 7 6 6 6 5 5 5 7 7 7 6 6 6 5 5 5 8 6 7 7 7 7 6 6 6 5 5 5 5 5 5 6 4 5 6 6 6 5 5 5 5 5 5 4 4 4 6 4 5 6 6 6 5 5 5 5 5 5 4 4 4 4 6 3 6 6 6 5 5 5 6 6 8 7 9 8 15 7 5 14 5 6 5 7 6 7 7 7 6 6 6 5 3 4 4 4 4 5 5 5 8 6 7 8 8 8 8 8 8 8 8 6 8 6 7 5 5 5 4 4 4 4 4 4 7 6 4 13 5 3 9 5 4 5 5 5 6 6 6 7 7 7 6 6 6 5 5 5 5 5 5 6 6 6 7 7 7 6 8 7 5 7 6 8 7 5 6 6 6 5 5 5 5 5 5 44 4 2 28 4 4 9 5 4 4 4 4 5 3 4 5 3 4 5 5 5 5 5 3 6 6 6 7 5 6 6 6 6 6 6 6 8 8 8 9 7 8 7 5 6 6 6 6 6 6 6 4 4 4 
7 7 7 8 8 8 8 8 8 6 6 6 7 7 7 7 7 7 8 8 8 7 7 7 8 8 8 10 10 10 11 11 11 10 10 10 10 10 10 8 8 8 5 5 5 7 7 7 9 7 8 8 8 8 7 7 7 8 8 8 8 8 8 8 8 8 8 8 8 8 8 8 7 7 7 6 6 6 6 6 6 5 5 5 7 7 7 8 6 7 6 6 6 5 5 5 5 5 5 5 5 5 6 4 5 5 5 5 6 4 5 4 4 4 5 5 5 5 5 5 5 5 5 5 5 5 5 5 5 5 5 5 6 6 6 7 7 7 8 6 7 9 5 6 7 9 6 51 7 8 51 7 6 5 5 5 7 5 6 6 6 6 5 5 5 6 6 6 6 6 6 5 5 5 7 7 7 8 6 7 7 7 7 7 7 7 7 7 7 6 4 5 5 5 5 20 4 4 53 4 7 44 5 6 5 5 5 6 6 6 5 5 5 4 4 4 5 5 5 7 7 7 6 6 6 7 7 7 6 6 4 7 7 7 6 6 6 5 5 5 5 5 5 5 5 5 44 10 8 57 9 7 25 5 6 4 4 4 4 4 4 5 5 5 6 6 6 7 7 7 6 6 6 5 5 7 5 5 5 4 4 4 7 7 7 6 6 6 6 6 6 5 5 5 6 6 6 4 4 4 
9 9 9 10 10 10 7 7 7 6 4 5 5 5 5 7 7 7 6 6 6 7 7 7 7 7 7 10 10 10 11 11 11 10 10 10 10 10 10 8 8 8 7 7 7 7 5 6 8 8 8 8 8 8 7 7 7 7 7 7 8 8 8 7 7 7 7 7 7 8 6 7 9 7 8 7 7 7 7 7 7 7 7 7 7 7 7 6 6 6 7 7 7 5 5 5 6 6 6 6 6 6 4 4 4 5 5 5 5 3 4 4 4 4 5 5 5 5 5 5 5 5 5 4 4 4 5 5 5 7 7 7 7 7 7 7 7 7 7 7 7 7 7 7 8 8 8 7 7 7 6 6 6 6 6 4 5 5 5 5 5 5 5 5 5 4 4 4 5 5 5 5 5 5 5 5 5 7 7 7 6 6 6 8 8 8 7 7 9 7 5 6 6 4 5 6 6 8 19 5 5 40 4 4 6 4 5 3 5 4 4 4 4 4 4 4 7 7 7 9 7 8 5 5 5 6 6 6 4 4 6 7 5 6 7 5 6 7 7 7 5 5 5 4 4 4 36 33 26 52 45 35 21 20 15 6 2 3 5 5 5 7 5 6 6 6 6 6 6 6 5 5 5 5 5 5 5 5 5 7 7 7 7 7 7 7 7 7 7 7 7 6 6 6 6 6 6 4 4 4 
9 9 9 12 10 11 8 8 8 5 5 5 6 6 6 6 6 6 7 7 7 7 7 7 8 8 8 9 9 9 11 11 11 11 11 11 10 8 9 7 7 7 8 8 8 10 10 10 9 9 9 9 9 9 8 8 8 6 6 6 9 9 9 8 8 8 7 7 7 8 6 7 8 6 7 6 6 6 7 7 7 9 9 9 7 7 7 5 5 5 6 6 6 5 5 5 6 6 6 5 5 5 5 5 5 5 5 5 5 5 5 5 5 5 5 5 5 6 4 5 5 5 5 4 4 4 6 6 6 8 8 8 8 8 8 7 7 7 7 7 7 7 7 7 8 6 7 7 7 7 5 5 7 6 6 6 6 4 5 5 5 5 4 4 4 5 5 5 5 5 5 6 6 6 6 6 6 5 3 4 6 6 6 7 7 7 7 7 7 6 6 6 5 5 5 6 6 6 6 4 5 6 6 6 7 5 6 5 5 5 4 4 4 4 4 4 7 7 7 9 7 8 6 6 6 5 5 5 6 4 5 5 5 5 5 5 7 6 6 6 6 6 6 4 4 4 3 3 3 35 31 22 24 21 16 4 4 4 6 6 6 7 7 7 6 6 6 5 5 5 5 5 5 4 4 4 6 6 6 9 9 9 8 6 7 7 5 6 9 7 8 7 5 6 5 5 5 3 3 3 
10 10 10 9 9 9 9 9 9 6 4 5 7 7 7 7 7 7 7 7 7 8 8 8 7 7 7 7 7 7 10 10 10 11 11 11 8 8 8 8 8 8 9 9 9 9 9 9 9 7 8 8 8 8 7 7 7 7 7 7 7 7 7 6 6 6 7 7 7 7 7 7 7 7 7 6 6 6 6 6 6 9 9 9 7 7 7 6 6 6 8 6 7 6 6 6 7 7 7 7 5 6 5 5 5 4 4 4 7 5 6 6 6 6 6 6 6 4 4 4 4 4 4 3 3 3 5 5 5 8 8 8 8 8 8 8 8 6 6 6 6 7 7 7 6 6 6 5 5 5 5 5 5 6 6 6 9 7 8 6 6 6 4 4 4 3 3 3 5 5 5 6 6 6 6 6 6 6 4 5 7 5 6 9 9 9 7 9 8 5 7 4 5 7 4 4 4 4 5 5 3 7 6 4 7 5 6 6 6 6 5 5 5 7 7 7 5 5 5 6 6 6 6 6 6 4 4 4 4 2 5 6 6 6 6 6 6 9 7 8 8 6 9 4 4 4 3 3 3 4 4 4 5 5 3 6 6 6 7 7 5 7 7 7 5 5 3 7 5 6 6 6 6 6 8 7 8 6 7 10 10 10 10 8 9 6 6 6 6 6 6 7 5 6 4 4 4 6 4 5 
