P3
100 50
255
6 6 6 6 6 8 7 7 7 7 7 7 7 7 7 7 7 7 7 7 7 8 6 7 8 6 7 8 8 8 12 8 9 10 12 11 9 9 9 6 6 6 5 5 5 5 5 5 6 6 6 7 7 7 7 7 9 7 6 4 6 6 6 7 5 8 6 6 6 5 5 7 4 4 4 4 4 2 3 3 3 6 6 6 10 10 10 10 10 10 11 11 13 13 13 13 11 13 12 9 9 9 10 10 10 10 10 10 11 9 10 10 10 10 9 9 11 7 7 9 6 6 6 8 6 9 8 8 8 9 9 7 12 10 11 14 12 13 11 13 12 9 7 10 7 5 6 7 5 6 7 5 6 6 6 6 7 5 6 8 6 9 9 7 8 7 7 9 9 11 10 8 8 6 4 4 4 6 4 5 6 6 6 7 7 7 7 7 7 8 8 8 8 8 10 6 6 6 5 7 4 6 6 6 7 7 7 8 8 8 9 9 9 9 9 9 10 10 10 13 13 11 11 11 11 10 10 10 7 7 7 6 4 5 10 9 7 8 8 6 6 4 5 7 7 7 7 7 7 6 4 5 7 6 4 9 9 11 11 11 13 10 8 9 9 7 8 8 8 8 7 7 7 9 9 9 11 11 11 8 8 6 6 6 4 6 6 6 9 9 9 9 8 6 8 10 9 12 10 11 
6 4 5 8 7 5 7 7 7 7 5 8 8 6 7 8 8 8 9 9 7 8 8 6 9 9 9 9 9 9 11 9 10 10 10 10 10 10 10 7 7 7 6 6 6 6 6 6 7 7 5 7 7 7 8 8 10 9 9 11 8 6 7 6 6 6 7 7 7 6 4 5 75 3 4 4 4 4 4 4 4 5 5 3 9 9 9 8 8 8 10 10 10 14 14 16 12 10 13 8 8 8 9 9 9 9 9 9 9 9 9 9 9 7 11 9 10 10 8 9 8 8 10 8 8 8 9 9 9 9 9 9 12 14 13 14 12 13 9 9 9 6 4 5 7 5 6 7 5 6 6 6 8 7 7 5 6 6 6 6 6 6 7 7 7 59 8 5 77 9 10 77 9 10 73 8 4 34 5 7 5 7 6 8 8 8 8 8 8 8 8 6 8 8 8 8 6 7 6 6 6 7 5 6 26 8 8 75 10 8 74 10 8 72 10 11 74 8 10 74 10 10 75 11 11 10 10 8 6 6 8 5 5 5 7 7 7 10 10 10 7 5 6 9 9 9 9 9 7 6 6 6 7 5 6 11 9 10 10 10 10 8 8 8 9 7 8 10 8 9 11 9 10 10 10 10 12 12 12 10 10 10 5 7 6 6 8 7 11 11 11 10 10 10 9 7 8 9 9 7 
7 7 7 6 6 6 6 6 6 6 6 6 6 6 8 8 10 9 9 9 9 9 7 8 8 6 7 8 6 7 8 6 7 9 7 8 9 9 9 9 9 9 8 8 8 7 7 7 8 6 7 10 9 7 8 8 8 27 8 10 65 9 8 67 5 6 69 5 5 66 6 6 74 4 4 66 4 5 66 5 4 66 8 7 68 10 9 16 8 6 8 8 8 10 10 10 9 9 7 9 9 7 9 9 9 10 8 9 9 9 9 10 8 9 9 9 11 9 9 9 7 7 7 8 6 7 8 10 9 11 11 11 15 13 14 11 11 11 9 7 8 6 6 6 6 6 6 7 5 6 6 6 6 6 4 7 5 7 6 6 6 6 58 8 7 69 9 9 77 9 10 78 10 11 76 10 11 71 7 8 68 7 6 69 7 8 68 8 8 39 9 9 8 8 10 7 7 5 7 9 8 10 8 9 26 8 8 75 7 8 69 8 5 72 8 9 73 7 9 77 9 10 75 9 10 68 9 11 8 8 8 6 6 6 7 7 7 7 7 9 7 6 4 10 10 10 9 9 9 7 7 7 8 8 8 12 8 9 9 9 9 10 10 12 9 9 9 9 9 9 9 9 9 10 10 10 11 11 11 12 12 12 8 8 8 8 8 6 10 10 10 11 9 10 9 7 8 9 9 11 
9 9 9 8 8 8 6 6 6 6 6 6 8 8 6 9 7 8 7 7 7 6 6 6 5 5 5 6 4 5 5 5 5 8 8 8 10 10 10 11 11 11 11 11 11 8 8 8 8 8 8 9 9 7 26 8 8 67 7 7 75 7 6 75 7 8 75 14 13 77 61 48 75 58 48 73 57 44 74 2 5 76 8 7 79 11 10 66 8 7 69 53 40 21 20 15 9 9 9 9 9 9 10 8 9 9 9 9 40 10 10 70 8 9 39 9 9 8 8 8 29 8 7 68 8 8 52 8 9 12 10 11 11 11 11 8 7 5 8 6 9 7 7 7 6 6 8 7 7 7 6 6 6 6 5 3 6 4 5 5 5 5 66 6 6 75 9 10 77 13 13 78 12 13 77 11 12 75 9 10 76 6 6 76 4 7 76 6 6 41 10 8 10 8 9 9 7 8 11 9 10 11 11 11 26 10 10 77 9 10 70 8 9 71 7 8 75 7 8 75 7 6 75 9 10 76 10 11 69 9 8 17 9 7 8 8 10 7 5 6 7 7 7 9 9 9 10 10 8 8 8 8 8 8 8 8 8 8 7 7 7 8 8 8 8 8 8 8 8 8 9 9 9 13 13 13 10 10 10 10 10 10 10 8 9 10 10 10 10 10 10 10 10 10 10 8 9 8 8 8 
11 11 13 10 10 10 8 8 8 8 8 8 10 10 10 8 8 10 7 7 7 54 4 5 65 4 3 26 4 6 6 6 6 8 8 8 11 9 10 12 12 12 12 12 14 8 8 10 8 6 7 8 8 8 26 7 9 77 7 9 74 9 7 76 8 5 74 15 11 75 63 49 72 63 48 73 64 47 74 4 6 76 8 9 76 10 11 78 8 8 76 56 47 24 23 21 9 9 9 9 9 9 8 8 8 7 9 6 14 10 11 48 10 9 70 10 10 67 8 10 72 8 8 72 6 7 75 7 6 51 11 11 10 10 10 6 6 6 7 6 4 8 8 8 8 6 7 5 5 5 6 6 6 4 4 4 5 5 3 6 6 6 67 9 8 75 10 8 76 12 12 76 12 12 77 11 12 75 10 8 75 7 6 75 5 7 75 5 5 72 8 8 46 11 9 11 9 10 10 10 10 10 10 10 27 11 11 76 10 11 73 9 9 74 6 7 75 5 5 75 7 8 74 8 9 73 9 9 78 10 9 66 10 9 17 9 7 9 8 6 9 9 7 10 10 10 8 8 8 8 8 10 8 6 7 6 6 6 8 8 8 11 11 13 10 10 8 8 8 8 30 10 9 51 12 13 13 11 14 25 7 7 69 9 8 61 10 9 11 11 11 9 10 12 9 9 9 10 9 7 
14 12 13 14 14 16 11 9 10 9 11 10 11 11 13 8 8 8 7 5 6 19 5 5 54 6 6 34 5 7 6 4 5 8 8 8 9 9 9 10 10 10 9 11 10 8 6 7 7 7 9 8 6 7 22 6 7 76 8 7 76 8 9 75 7 8 75 14 13 73 60 44 72 59 43 72 63 48 75 52 44 74 16 14 76 11 9 76 6 6 76 18 17 25 11 11 8 6 7 7 7 5 6 8 7 40 6 7 61 10 9 68 8 8 74 10 10 74 8 9 73 8 6 72 6 7 75 7 8 58 8 9 7 8 10 8 6 7 5 5 5 6 6 4 6 6 4 5 5 3 6 4 5 4 4 4 5 3 4 6 5 3 68 8 8 76 8 9 74 8 9 75 11 12 74 10 10 74 9 7 76 7 10 76 8 7 77 9 8 75 10 8 50 8 9 10 10 10 10 10 10 9 7 8 13 7 9 39 9 9 75 7 6 72 7 3 75 7 8 74 6 5 75 7 6 74 8 9 78 8 10 74 8 9 59 9 10 17 8 9 8 8 6 9 9 7 8 8 8 7 7 7 6 6 6 8 7 5 9 9 11 11 11 11 9 9 11 7 7 5 31 10 9 69 10 12 61 13 11 63 9 9 79 11 12 72 11 8 58 10 10 10 10 10 10 10 10 11 10 8 
11 11 13 14 14 12 11 11 11 10 8 9 10 10 10 8 8 8 6 4 5 7 7 7 17 7 6 10 4 4 6 6 8 8 6 7 8 8 8 9 9 9 8 8 8 6 6 6 6 6 6 5 5 5 22 17 14 73 42 37 76 6 8 76 6 8 75 14 13 73 59 46 72 58 45 75 63 47 72 21 18 77 5 6 76 8 9 75 7 8 74 6 7 22 6 6 6 6 6 5 7 6 8 8 8 49 8 6 78 8 10 76 8 9 74 8 9 73 9 9 70 6 6 76 8 7 76 6 6 58 7 6 8 8 8 7 7 5 6 6 6 6 6 6 5 3 4 5 5 7 5 5 7 3 3 3 4 4 2 5 3 4 25 7 7 63 9 9 73 9 9 70 9 8 71 10 9 75 7 6 76 6 8 74 6 7 75 10 8 76 10 11 51 9 10 9 9 9 8 8 8 8 6 7 21 7 7 63 7 8 73 8 6 72 6 7 75 7 8 77 9 10 76 6 8 74 8 9 77 7 9 77 9 8 74 8 9 18 8 9 8 8 8 9 9 7 10 8 9 7 7 7 6 6 4 7 7 5 11 9 10 10 10 8 10 10 10 8 8 8 16 8 6 24 8 8 26 10 10 38 10 9 78 10 11 78 10 11 69 9 9 10 10 8 10 10 10 10 12 11 
9 9 9 13 11 12 9 7 8 9 9 9 9 9 9 7 7 7 6 6 6 7 7 7 8 6 9 7 5 6 5 5 7 8 9 11 9 8 6 8 8 10 6 8 7 6 6 4 6 6 6 19 18 14 65 46 40 76 18 16 75 7 6 74 6 5 75 9 10 75 20 17 75 19 18 75 20 17 75 5 7 72 6 7 74 8 9 77 9 8 75 7 6 61 7 5 20 6 5 37 5 6 58 6 8 70 9 8 76 8 9 74 6 7 76 6 8 72 18 16 53 33 26 22 6 7 24 5 7 18 6 6 7 7 7 8 6 7 7 7 7 8 4 3 5 5 3 6 6 6 7 5 6 2 2 0 4 2 3 5 5 5 7 8 12 59 11 9 74 10 10 74 10 8 74 8 9 74 8 9 75 7 4 76 6 6 75 10 8 74 10 10 67 8 10 60 9 8 58 6 8 58 7 6 65 7 6 78 8 8 75 7 8 74 5 8 76 6 6 74 8 9 76 8 9 77 9 10 75 7 8 77 9 10 77 7 7 59 9 8 24 10 9 10 8 9 9 9 9 7 7 7 6 6 6 6 6 6 9 9 9 10 10 10 12 11 9 10 10 10 9 9 9 7 7 7 8 8 8 13 9 8 38 7 5 73 9 7 20 8 8 10 10 10 8 9 11 9 7 8 
7 7 7 9 9 9 7 7 7 8 8 10 8 8 8 9 8 6 6 6 4 7 7 7 9 9 7 8 8 6 6 6 6 7 7 5 8 8 8 10 6 7 7 7 7 4 6 3 7 7 7 26 22 21 77 54 46 77 5 6 76 4 5 74 6 7 75 5 5 73 8 6 75 7 6 73 8 6 72 6 7 74 6 5 76 8 9 76 8 9 77 7 7 75 10 8 58 6 8 66 27 22 76 22 20 76 8 7 75 7 8 75 7 8 76 6 8 75 28 22 47 38 29 4 4 4 5 5 5 7 7 9 9 7 10 7 7 7 9 7 8 6 6 4 5 5 5 7 7 7 7 7 7 4 4 2 4 2 3 6 6 6 10 10 8 60 12 12 76 12 12 76 10 12 77 11 12 77 9 8 78 8 8 76 6 6 76 8 9 74 8 9 76 8 7 77 9 10 76 8 7 77 7 9 79 9 9 77 9 10 74 8 9 75 7 6 73 8 6 76 10 12 77 9 10 77 9 8 79 9 9 77 7 7 78 8 10 77 9 10 27 9 9 10 10 10 10 10 12 9 9 7 7 7 9 8 6 7 8 8 8 10 8 9 9 9 9 10 8 9 10 10 10 9 11 10 10 8 11 10 9 7 11 7 6 29 7 9 9 9 9 10 10 10 10 8 11 8 6 7 
50 6 7 6 6 6 7 7 5 7 7 7 7 7 5 7 7 7 7 7 7 5 5 3 7 7 7 9 7 8 8 8 8 5 5 7 6 6 6 6 6 6 5 5 5 23 5 5 46 4 5 53 9 8 77 26 23 76 6 6 75 7 8 76 6 8 74 6 5 74 6 5 76 6 8 74 8 9 72 6 7 74 4 6 74 6 5 76 6 8 75 7 8 77 9 10 76 39 33 75 59 46 75 51 41 75 22 18 75 7 8 75 5 5 75 7 8 57 13 12 23 19 16 4 4 4 5 5 7 7 5 6 7 5 6 7 7 7 6 6 6 7 5 6 6 6 6 7 7 7 8 8 6 7 5 6 5 5 5 10 8 9 11 11 11 60 11 7 74 10 11 75 11 11 76 10 11 76 8 9 75 7 8 75 7 8 76 8 9 75 7 8 76 7 10 77 9 10 76 8 7 76 6 6 78 8 10 76 6 8 73 5 6 71 7 8 75 9 11 76 12 13 78 14 14 78 10 11 76 8 7 76 6 4 78 10 9 77 9 10 26 7 9 10 10 10 10 10 10 9 9 9 8 8 8 7 9 6 7 7 9 7 7 7 7 7 7 8 8 8 10 10 10 9 9 9 9 9 9 9 9 9 8 8 8 6 6 6 7 7 7 10 10 10 9 9 9 6 6 8 
74 6 5 6 4 7 6 6 6 7 7 7 7 7 9 6 6 6 6 6 6 5 5 5 6 6 4 7 7 5 8 8 8 7 7 7 7 5 6 5 3 4 23 5 3 56 5 4 74 4 4 75 5 5 75 5 5 75 7 8 77 7 7 75 7 8 75 7 6 75 5 7 74 6 5 75 42 33 75 42 33 73 45 34 75 10 8 72 6 7 75 7 6 75 7 8 76 54 43 76 70 54 74 66 47 76 49 38 74 25 18 76 8 7 75 5 5 48 4 5 7 5 6 5 3 4 4 4 4 7 6 4 7 7 7 7 7 5 6 6 8 5 7 6 9 7 8 4 6 3 7 7 9 4 6 1 6 4 5 9 7 8 10 10 10 27 9 9 34 8 11 34 10 10 34 8 9 59 9 10 77 9 8 74 8 10 76 8 9 75 9 10 74 8 9 74 9 7 77 7 9 77 7 7 77 5 9 76 8 9 75 7 8 70 9 8 74 10 10 74 13 12 38 14 12 37 11 12 77 9 10 74 9 7 76 10 11 78 10 11 58 6 8 18 8 7 10 10 10 11 9 12 8 8 8 9 7 10 7 7 7 7 7 7 6 6 6 8 8 8 10 9 7 9 9 11 10 8 9 8 9 11 7 7 7 8 7 5 7 7 7 8 8 6 9 9 7 6 6 6 
75 7 6 40 6 5 12 6 6 7 7 5 6 6 6 6 4 5 7 5 6 6 6 6 6 6 6 8 7 5 7 7 5 7 6 4 6 6 6 5 3 4 31 5 6 74 6 5 75 5 5 74 6 5 76 4 5 76 8 9 73 7 8 74 9 7 76 8 9 77 7 9 39 7 8 41 34 26 41 34 28 71 65 51 76 39 31 74 10 10 73 7 8 74 9 7 77 55 42 77 70 54 73 64 47 73 64 49 74 36 27 75 7 8 73 8 6 48 6 8 6 6 6 4 4 2 4 4 4 7 5 6 7 7 7 7 7 7 7 7 7 7 7 7 7 7 7 6 6 4 4 6 5 5 5 5 6 4 5 6 6 8 9 9 9 8 8 8 10 10 10 8 8 8 9 9 9 28 10 8 61 10 9 75 9 10 75 9 10 75 10 8 75 9 10 73 7 8 76 6 6 76 6 6 76 6 6 77 7 9 75 9 10 70 10 9 70 8 9 42 12 14 16 15 13 11 13 12 45 11 12 42 11 9 46 12 13 44 10 11 40 6 5 19 9 10 14 12 13 31 11 12 24 10 10 9 9 9 7 7 7 6 6 8 7 6 4 8 8 6 9 9 9 9 7 8 8 8 8 10 8 11 7 6 4 7 7 5 8 8 8 8 8 8 8 8 8 7 7 7 
75 5 5 74 4 4 15 7 5 5 6 8 6 4 5 6 4 5 6 6 6 6 6 8 7 7 9 7 6 4 6 6 4 6 6 6 6 4 5 5 5 5 30 4 3 75 5 7 74 4 6 73 14 10 74 35 28 75 38 30 75 32 26 73 8 6 77 9 6 75 7 8 7 5 8 6 6 6 6 6 6 36 33 28 70 60 48 71 13 9 73 7 8 76 8 9 76 33 27 75 38 29 74 35 28 74 36 27 73 22 18 75 7 8 74 9 7 48 6 8 8 6 7 5 5 5 5 5 7 5 7 6 7 7 7 7 7 7 7 5 8 6 6 6 6 6 4 4 4 4 39 36 27 39 35 26 10 9 7 5 5 5 5 5 5 7 7 7 10 9 7 9 9 9 9 9 9 9 9 9 51 9 10 76 10 11 76 12 12 74 10 11 74 9 7 77 9 10 77 5 8 75 5 5 76 6 8 76 8 7 76 11 9 68 10 9 40 12 11 12 12 12 11 11 11 13 13 13 14 12 13 12 12 14 15 14 12 11 11 13 8 7 12 10 8 9 11 11 11 52 10 11 38 9 11 10 10 8 8 8 8 7 7 7 7 7 7 8 8 8 8 8 8 8 8 8 9 9 9 8 8 8 8 6 7 6 6 6 8 8 8 9 9 9 8 8 8 6 6 6 
75 3 4 75 5 5 15 5 6 5 5 5 6 4 5 5 3 4 6 6 6 5 5 7 6 4 7 6 4 5 5 5 5 5 5 5 5 5 7 5 6 1 31 5 4 76 6 8 75 17 15 74 44 34 75 68 52 75 68 50 77 61 46 76 8 9 76 8 7 73 7 8 6 8 5 6 6 4 6 6 6 35 32 25 72 35 27 73 9 7 74 6 5 75 7 8 75 11 9 76 10 11 76 8 9 76 8 7 76 8 7 75 7 8 75 7 8 48 8 8 6 6 6 5 5 5 4 4 4 6 4 7 7 7 7 7 7 7 6 6 8 6 6 6 5 4 2 40 4 6 74 68 52 76 67 50 15 14 12 6 6 6 7 7 9 7 7 7 9 9 9 10 8 9 9 7 8 8 8 8 29 8 7 58 10 8 75 11 11 75 9 10 75 9 10 75 9 10 77 5 6 75 5 7 75 7 8 74 6 7 70 6 6 35 6 8 11 10 8 13 13 13 9 9 7 12 12 12 15 13 14 12 12 12 13 13 13 10 10 10 8 10 9 9 7 8 9 9 9 29 9 10 20 8 8 10 10 10 8 8 10 8 8 8 10 10 10 8 8 8 7 7 7 6 6 6 7 7 7 8 8 8 9 7 8 7 7 7 7 7 7 9 9 9 9 9 9 7 7 7 
74 2 3 74 6 7 14 5 6 6 6 6 5 5 5 4 4 4 5 5 5 5 5 5 5 5 5 4 4 4 4 4 4 4 4 4 4 4 2 3 5 4 29 5 5 75 7 8 76 28 24 76 67 52 75 68 52 76 71 52 75 62 46 77 9 10 77 9 10 75 7 6 32 6 5 6 6 6 31 5 4 70 40 30 74 9 7 74 6 5 76 6 6 72 6 7 74 10 8 75 9 10 74 8 9 76 8 7 75 7 6 72 6 7 73 7 8 47 9 8 7 7 9 4 4 2 2 4 1 5 5 5 6 6 6 7 7 5 7 6 4 6 6 6 2 4 1 48 4 3 49 45 34 49 45 34 12 12 10 5 5 5 6 6 6 7 8 10 8 8 8 8 8 8 9 7 8 7 7 9 25 7 7 52 11 9 75 9 10 76 10 11 76 10 11 77 11 12 77 9 8 74 4 4 75 7 6 66 4 5 44 4 4 5 3 4 11 11 11 14 12 13 9 8 6 12 10 13 12 12 12 13 13 13 13 13 13 12 10 13 12 10 11 8 8 10 9 7 8 11 9 10 10 10 10 10 10 10 9 9 11 9 9 11 9 11 10 8 8 8 6 6 6 6 6 6 5 5 5 9 7 8 9 7 8 9 7 8 8 8 8 8 8 8 9 9 9 9 9 9 
74 4 4 75 5 3 13 4 5 5 5 5 3 5 4 4 4 4 5 5 7 6 6 6 6 4 5 4 4 6 4 4 4 5 5 5 6 5 3 5 5 3 34 5 7 76 8 5 76 23 19 76 51 44 76 66 54 76 60 47 76 43 34 77 9 8 76 8 9 76 6 6 74 6 5 32 6 7 75 5 5 73 5 4 75 5 7 76 6 8 76 6 6 73 7 8 73 7 8 74 8 9 75 7 8 75 7 6 75 7 8 72 6 8 73 7 8 59 9 8 24 8 8 6 6 6 6 6 4 8 6 7 6 8 7 6 6 4 7 7 7 7 5 6 5 5 5 6 4 5 7 7 7 7 7 9 8 8 8 6 5 10 7 7 7 7 7 7 9 9 11 8 8 6 10 8 9 7 7 9 50 8 9 74 8 9 75 10 8 75 11 11 76 11 9 78 10 11 76 8 7 66 6 6 48 4 5 42 3 4 3 5 2 5 3 6 13 13 11 13 13 13 8 10 9 8 8 8 9 9 11 15 15 15 17 15 16 14 14 16 12 10 11 10 10 10 9 9 9 10 8 9 11 11 11 12 11 9 11 11 9 9 9 11 8 8 8 8 8 8 7 7 7 8 6 7 6 6 6 7 7 7 9 7 8 8 8 8 10 10 10 8 8 8 8 8 8 8 8 8 
78 4 5 50 6 7 11 5 5 5 5 3 4 4 4 4 4 4 5 5 5 6 6 6 6 6 6 5 5 5 4 4 4 4 4 4 5 5 5 6 6 4 32 6 7 75 7 8 77 9 8 76 15 14 75 45 37 77 38 31 75 7 8 75 7 6 76 8 9 75 7 8 76 6 6 74 6 5 74 6 7 74 6 7 73 5 6 73 5 4 76 6 6 74 6 5 74 6 5 76 18 17 73 25 21 74 26 22 72 27 21 72 27 21 75 17 15 74 8 9 59 9 8 23 7 7 7 7 7 8 8 8 9 9 7 9 9 9 11 11 11 10 9 5 6 6 6 7 7 9 7 7 9 9 9 9 8 8 8 7 7 5 6 4 5 6 6 6 7 7 7 8 8 8 9 9 11 9 9 9 35 9 10 50 8 10 50 9 7 49 9 9 50 10 10 50 8 9 51 7 6 41 5 5 4 4 4 3 3 3 4 4 4 5 7 6 9 11 10 11 11 11 10 10 10 9 7 8 10 8 9 17 19 18 18 18 18 14 12 13 11 11 11 10 10 10 10 8 11 8 10 9 9 11 10 10 10 10 12 12 12 10 10 10 7 7 7 8 8 8 8 8 8 8 8 8 7 7 7 6 6 6 7 7 7 8 8 8 10 10 10 9 9 9 8 8 8 7 7 7 
60 6 6 5 5 3 5 5 3 8 6 7 7 7 7 6 6 6 5 5 7 6 6 6 5 5 5 5 5 5 3 5 4 4 4 6 5 5 5 6 6 6 32 6 5 75 7 6 74 8 9 76 8 7 76 8 9 76 8 9 75 7 8 74 4 2 75 5 7 75 5 5 75 5 7 77 9 10 72 6 7 76 16 15 74 21 17 75 10 8 75 5 3 74 6 7 74 4 6 73 39 30 73 61 45 73 61 47 73 64 49 73 64 49 74 35 28 75 7 8 74 6 7 51 10 8 19 18 14 8 8 8 9 9 9 9 9 9 9 11 10 9 9 9 7 7 7 8 8 8 8 6 7 11 9 10 11 9 12 8 8 8 7 6 4 6 6 6 6 6 6 7 7 7 8 6 7 8 8 8 9 9 9 10 10 10 10 8 9 8 8 8 7 7 5 6 6 6 6 5 3 4 4 4 4 4 4 5 5 3 6 4 5 7 7 5 10 10 10 10 10 10 9 9 9 6 6 4 11 9 12 18 17 15 14 14 14 12 10 11 9 9 7 11 9 10 9 9 9 10 9 7 10 9 7 10 10 10 11 11 11 8 8 6 7 7 7 9 7 8 8 8 8 10 8 9 8 8 8 6 6 6 8 6 7 8 8 8 10 10 10 10 10 10 8 8 8 6 6 6 
7 7 5 6 6 6 5 5 3 8 7 5 15 11 12 8 8 8 8 6 7 7 5 6 7 5 6 7 5 6 8 4 5 5 5 5 5 5 5 6 6 6 27 7 9 58 8 9 58 8 7 58 8 9 61 7 7 75 7 8 74 8 9 76 6 4 75 5 5 74 6 5 74 6 5 72 7 5 75 20 15 73 60 44 76 64 50 75 24 21 73 9 7 73 5 4 61 2 4 56 31 24 65 53 39 74 62 46 73 64 47 74 62 48 73 34 27 75 5 7 73 5 6 75 24 21 59 42 32 7 7 5 8 7 5 9 7 8 8 8 6 7 7 5 8 8 8 11 9 10 10 10 10 10 10 12 9 9 9 9 9 9 7 5 8 6 4 7 6 6 6 6 6 6 6 6 6 8 8 8 11 9 10 10 10 8 8 8 8 7 7 7 7 5 6 6 6 8 7 5 6 5 5 5 5 5 5 6 6 6 6 6 6 7 9 8 8 8 8 11 10 6 10 8 11 8 8 8 11 11 11 14 12 13 10 10 8 9 9 9 9 9 9 10 10 10 8 10 9 8 8 8 7 7 7 9 7 8 9 9 9 8 8 8 7 7 7 7 7 7 9 9 9 9 9 9 10 10 10 8 8 8 8 8 8 7 9 8 10 10 10 10 10 10 7 7 7 6 6 6 
6 6 6 6 6 6 5 5 5 7 7 7 8 10 9 9 9 9 9 9 7 8 8 8 9 7 8 7 7 5 5 5 5 5 5 5 5 5 5 6 6 6 6 6 6 6 6 8 7 7 7 6 6 6 21 7 7 62 11 8 74 21 17 75 19 18 75 5 7 75 5 7 74 6 7 70 6 7 75 59 44 75 64 46 73 66 48 75 68 50 74 31 24 61 9 11 17 2 5 2 4 1 40 33 23 58 48 36 66 48 36 74 47 36 75 28 22 73 7 8 73 8 6 74 4 4 62 4 2 20 4 5 8 6 7 9 9 9 7 7 5 7 5 6 8 8 8 10 10 10 11 13 12 12 12 12 9 9 7 9 9 9 10 8 9 7 7 5 5 5 7 21 7 6 17 7 8 9 7 8 11 9 10 10 10 10 7 7 5 6 6 6 7 7 7 9 9 9 7 7 5 7 7 7 5 5 5 7 7 9 8 8 8 8 8 8 9 7 8 9 9 9 12 10 11 12 12 10 13 13 15 10 10 10 9 9 9 9 9 9 10 8 9 10 10 8 10 10 10 8 8 10 8 6 7 6 6 6 8 6 7 7 7 7 7 7 7 7 7 7 8 8 8 9 9 9 9 9 9 10 10 10 10 8 9 8 8 8 12 12 12 8 8 8 5 5 5 7 7 7 
7 5 6 6 6 6 5 5 5 7 5 6 7 7 7 7 7 7 12 10 11 19 9 10 16 7 8 11 5 5 6 4 5 4 4 2 5 5 5 6 6 6 6 6 6 6 6 6 7 7 7 6 6 6 8 8 8 25 22 17 74 61 45 77 53 41 75 14 13 75 7 8 71 5 6 70 5 1 72 52 41 73 64 47 75 68 50 75 66 51 66 58 45 23 20 15 5 3 4 2 4 3 5 3 6 6 6 8 37 5 8 69 5 5 73 5 4 74 8 9 74 8 9 74 4 6 75 1 2 58 4 4 7 7 7 9 9 9 7 7 7 7 6 4 8 8 6 7 7 9 10 10 10 12 12 12 9 9 9 9 9 9 10 10 10 8 8 8 7 7 5 59 7 9 37 11 10 12 10 11 10 8 11 9 9 9 8 8 8 8 8 6 9 9 9 10 10 10 10 10 10 11 11 11 8 8 6 7 7 7 10 8 9 8 8 8 8 8 8 10 10 10 18 9 10 19 10 11 13 13 13 12 10 11 9 9 9 10 8 9 10 8 9 10 10 8 9 9 11 8 8 8 5 6 8 6 6 6 7 7 7 7 7 7 8 8 8 7 5 6 7 5 6 12 8 7 13 9 8 12 10 11 11 11 11 11 11 9 11 11 11 7 6 4 5 5 5 7 7 5 
7 7 9 7 7 5 5 5 7 7 5 8 5 5 5 5 5 5 9 9 9 59 9 10 75 7 6 30 4 3 5 5 5 3 3 3 4 4 4 6 4 5 7 5 6 8 6 7 7 7 5 6 6 8 6 6 6 24 19 15 75 57 43 76 60 45 74 55 40 74 6 7 73 5 4 74 6 5 75 5 7 73 51 37 76 60 45 74 58 45 24 20 17 6 6 6 5 3 4 2 2 0 4 4 4 6 6 6 7 7 7 41 5 7 74 4 4 75 7 8 73 9 9 75 7 8 75 1 2 59 5 5 7 7 9 9 9 9 6 6 6 5 5 5 7 7 7 5 5 5 6 6 4 9 9 7 9 9 9 9 7 8 11 9 10 9 7 8 8 6 7 51 9 10 65 38 27 28 25 20 8 8 8 10 8 11 10 8 9 9 9 11 11 12 7 10 10 12 11 9 10 10 10 10 8 8 8 8 8 8 10 10 10 9 9 9 9 7 8 8 10 9 74 10 10 70 11 13 12 14 13 11 11 11 8 8 10 9 9 9 9 9 7 9 9 9 8 8 8 8 8 8 6 6 6 7 5 8 6 6 6 8 8 8 7 7 5 6 6 4 6 6 4 31 7 5 58 7 6 10 10 10 11 11 11 12 12 12 10 10 12 7 5 6 7 6 4 7 7 7 
8 6 7 7 7 5 6 6 8 5 5 5 5 5 5 6 6 6 8 8 10 50 8 9 66 6 6 26 5 4 4 4 4 4 4 4 4 4 4 6 4 5 7 5 6 7 7 5 7 7 7 6 8 7 6 6 6 22 18 15 72 60 44 73 62 44 74 55 40 72 6 7 75 5 7 75 5 5 76 6 6 74 6 5 75 7 6 74 6 7 24 6 6 6 6 6 6 5 3 5 5 3 6 4 5 6 6 4 6 8 7 42 6 6 75 5 7 74 6 5 74 8 9 76 6 8 71 3 4 54 4 5 9 9 9 10 10 8 7 5 6 7 5 6 6 6 6 5 5 5 5 5 5 6 6 6 8 8 8 9 9 9 9 9 11 9 7 8 9 7 8 7 8 10 10 10 10 9 9 9 8 8 8 9 9 9 10 10 10 10 10 10 10 10 10 10 9 14 12 10 11 12 12 12 14 14 14 13 13 11 10 10 8 9 9 11 8 8 10 9 9 7 66 10 9 75 13 14 13 15 14 11 12 14 10 10 10 9 9 9 8 8 8 8 8 6 7 5 6 6 6 8 6 6 8 8 8 6 8 10 7 8 8 8 6 8 7 6 6 6 6 6 6 26 6 5 55 7 7 10 8 9 10 12 11 10 10 10 7 9 8 6 4 5 5 5 5 9 8 6 
7 7 5 7 7 7 5 6 8 5 4 2 6 4 5 8 6 7 8 8 8 7 7 7 6 5 3 4 4 4 4 4 2 4 4 4 5 5 5 7 5 6 7 6 4 5 5 5 6 4 7 8 6 7 6 6 6 23 19 16 73 57 41 73 60 44 76 54 40 73 9 10 75 5 5 74 4 4 74 6 5 74 6 7 75 7 6 72 8 8 22 6 6 6 6 6 5 7 6 5 5 7 5 3 4 6 4 5 8 6 7 42 6 6 74 6 7 74 6 7 75 9 10 73 7 9 55 3 5 7 7 7 8 8 8 9 9 9 11 9 10 9 7 10 8 8 8 7 7 5 6 6 6 3 3 3 8 8 10 13 11 12 14 12 13 9 9 9 8 8 8 9 9 9 9 9 7 9 9 9 9 9 9 10 10 10 10 10 10 11 11 11 11 11 11 12 12 12 12 12 12 13 13 13 14 14 14 14 14 14 15 14 12 11 12 7 9 9 9 12 10 11 11 11 11 74 13 12 13 11 12 11 11 11 12 11 9 12 10 11 8 10 9 8 8 8 6 6 6 6 6 6 9 8 6 9 9 9 8 8 6 9 7 8 7 7 7 7 7 5 7 7 7 6 6 6 7 7 7 10 10 10 14 14 14 8 10 9 4 4 4 5 5 5 5 5 5 6 6 6 
6 6 8 7 7 7 6 6 6 5 5 7 3 7 6 7 7 9 9 8 6 7 7 5 5 5 5 5 3 6 4 3 1 5 3 4 6 6 6 7 5 6 7 5 6 8 6 9 6 6 6 20 4 4 70 4 5 72 17 14 74 61 44 74 56 42 77 9 10 73 9 10 73 8 6 75 7 8 76 6 6 74 6 7 75 5 7 74 8 9 24 6 6 8 6 9 7 7 9 5 5 5 5 5 5 5 5 5 7 7 7 8 8 8 6 6 6 7 7 7 8 8 6 9 9 9 5 5 5 8 8 8 10 10 10 11 10 8 10 10 10 9 9 9 8 8 8 8 8 8 7 7 7 4 3 1 9 9 9 19 17 18 16 16 16 12 10 11 10 10 10 10 10 12 9 9 9 9 9 9 9 9 9 11 9 10 10 10 10 11 9 10 12 12 12 11 11 11 12 12 12 13 13 13 13 13 13 13 11 12 13 13 15 10 10 10 11 11 11 11 10 8 12 12 12 12 10 11 10 10 10 12 11 9 11 11 9 9 9 9 9 7 8 6 6 4 6 6 8 6 8 7 9 9 9 10 10 8 9 9 9 7 9 8 7 7 9 7 7 9 32 6 7 75 5 5 75 5 5 78 10 11 78 13 11 66 8 7 2 4 3 6 4 5 6 6 6 5 5 5 
7 7 7 5 3 4 3 3 1 5 5 5 7 5 6 8 6 7 9 9 9 8 8 8 5 5 5 3 3 3 4 2 3 4 4 4 6 6 8 41 32 25 72 40 29 47 7 7 5 5 5 22 4 4 72 4 5 73 5 6 76 6 6 76 8 9 74 6 7 72 7 5 72 7 5 75 5 7 71 5 6 14 6 4 8 8 8 9 9 11 9 9 7 8 8 8 5 5 5 4 4 4 3 5 2 5 3 6 5 5 5 6 6 6 6 6 6 5 5 5 8 8 8 8 8 8 6 6 4 8 8 6 10 10 10 9 9 9 11 11 11 10 10 10 8 8 10 8 8 6 8 6 7 9 9 9 13 9 10 14 12 13 14 12 15 12 12 12 10 10 8 8 8 8 8 8 6 10 8 9 10 10 12 10 10 10 10 10 8 10 10 8 10 10 10 13 12 10 12 12 10 13 13 13 13 13 13 11 11 11 11 11 11 8 8 8 7 7 7 8 8 8 9 9 9 10 10 10 10 10 10 11 11 13 10 8 9 8 8 10 7 7 7 10 6 5 7 7 7 9 9 7 9 11 10 13 11 12 10 10 10 8 8 8 42 6 8 76 6 8 74 6 7 74 4 4 76 4 5 75 7 8 77 7 7 74 6 5 75 5 7 72 7 3 74 4 4 5 5 7 
9 9 9 5 3 4 4 4 4 5 7 4 6 6 6 7 7 7 10 8 9 9 7 8 5 5 5 4 4 4 4 4 2 4 4 4 5 5 5 38 7 5 72 8 8 72 6 7 73 5 6 74 4 4 75 4 2 56 5 4 5 5 5 6 6 6 5 5 7 5 5 5 5 7 6 6 6 4 7 7 7 9 9 9 9 9 11 9 9 7 8 8 10 8 8 6 6 6 6 5 3 4 4 4 2 4 4 2 5 5 5 7 7 9 8 8 8 9 9 9 10 8 9 9 9 11 10 10 8 11 11 11 10 8 9 10 10 10 12 12 10 12 12 12 7 7 5 6 6 6 7 7 9 11 10 8 10 8 9 9 7 8 10 8 9 14 12 13 12 12 12 8 8 8 8 6 7 7 8 3 9 9 9 12 11 9 12 10 11 10 10 8 10 10 10 13 11 12 12 12 12 14 14 14 13 13 13 11 11 11 9 9 9 10 10 10 7 7 7 7 7 7 7 7 5 9 9 9 8 10 7 12 10 11 11 11 13 11 9 10 8 8 8 5 5 3 7 5 8 50 8 9 78 10 11 37 11 10 44 10 9 73 8 6 73 9 7 76 8 7 75 7 6 48 4 3 4 4 4 7 7 9 25 6 8 75 5 5 73 5 6 75 5 5 75 5 5 75 7 6 
13 11 12 8 7 5 5 5 5 7 7 9 7 5 6 8 6 9 12 10 11 9 9 9 6 6 4 4 2 3 4 4 4 5 5 5 5 5 7 12 6 8 15 6 7 35 5 5 51 5 5 14 4 2 13 3 2 14 4 3 4 4 2 6 6 6 6 6 6 6 6 4 6 6 6 5 6 8 7 7 7 11 11 11 12 12 12 10 10 10 10 10 8 8 6 7 4 4 4 5 5 5 4 4 4 5 5 5 7 7 7 10 8 9 10 8 9 10 10 8 12 10 11 9 10 12 12 12 14 12 12 12 9 9 9 11 11 11 12 12 12 10 12 11 7 7 7 5 5 5 6 6 8 8 8 6 7 7 7 7 7 7 7 7 7 10 10 10 13 13 13 9 9 7 7 7 7 6 6 4 8 8 8 10 10 10 14 12 13 12 10 11 9 9 9 10 10 10 11 12 7 14 14 14 14 14 14 12 10 11 9 9 11 9 9 9 10 10 10 9 9 9 8 8 8 10 8 9 9 9 9 10 10 10 11 11 11 14 12 13 53 9 8 65 4 3 66 6 6 73 9 9 74 10 8 73 11 12 71 11 11 72 11 10 73 7 8 54 8 8 18 9 10 9 7 8 4 4 6 6 6 4 23 7 7 77 7 7 74 6 7 75 3 4 75 5 5 74 6 5 
14 12 13 8 8 8 6 6 6 5 5 5 7 6 4 7 9 8 10 10 8 10 10 12 8 8 8 5 5 5 5 6 1 5 5 5 5 5 7 7 7 7 7 7 7 10 6 5 10 6 5 5 5 5 5 5 5 4 4 4 3 5 4 7 5 6 5 5 5 8 7 5 7 7 7 6 6 6 8 8 8 10 10 10 11 11 11 10 10 10 10 10 10 7 7 7 6 4 5 3 3 3 4 4 2 6 4 5 8 8 8 11 11 11 9 11 10 12 10 11 9 9 9 10 8 11 12 12 12 12 10 11 10 10 10 11 11 11 12 10 11 8 8 8 4 6 5 6 6 6 6 6 6 6 4 5 8 6 9 7 5 6 6 4 5 6 6 6 10 10 12 9 9 7 8 8 6 7 7 5 6 6 8 9 9 11 15 13 14 12 12 12 9 9 9 8 10 9 8 9 11 14 14 14 14 14 16 13 11 12 9 9 11 8 8 8 9 9 9 8 10 9 8 8 10 9 9 9 9 9 11 9 9 9 12 12 12 13 13 13 60 10 11 72 6 7 75 4 8 77 9 10 75 9 10 77 8 11 74 8 9 71 10 9 43 9 8 15 9 9 9 9 9 8 8 6 8 6 9 8 8 8 6 8 7 24 9 6 77 7 7 75 3 4 76 4 5 77 5 8 
67 11 10 67 8 10 16 7 8 4 4 6 6 6 6 7 7 7 8 8 8 9 11 10 10 9 7 6 8 5 5 5 5 6 6 6 5 5 5 6 6 8 6 6 6 7 5 6 29 5 5 51 5 7 4 4 6 5 5 3 6 4 5 6 6 6 5 5 5 8 6 7 8 8 8 8 8 8 8 8 8 11 11 11 12 12 12 13 13 13 8 8 8 6 6 6 4 4 4 43 4 5 26 4 6 5 5 5 8 7 5 10 8 9 11 9 10 11 11 11 10 10 10 12 10 11 12 12 12 11 11 11 10 10 10 8 8 8 10 10 10 7 7 7 6 6 6 6 6 8 6 6 6 5 5 5 6 8 5 6 6 8 7 5 6 7 7 7 9 7 8 10 8 11 9 9 9 9 9 7 5 5 3 7 7 7 13 13 11 12 10 11 28 6 8 68 8 8 69 9 9 68 9 11 51 11 9 11 11 13 9 9 9 9 7 8 10 10 8 10 8 9 8 8 10 9 9 7 8 8 8 9 9 9 11 9 10 11 11 9 59 9 10 74 6 7 74 6 7 77 7 7 77 7 7 75 7 8 73 7 8 72 11 10 41 11 11 12 10 11 10 8 11 9 9 9 9 9 9 8 10 9 9 9 9 17 7 6 72 6 7 72 4 3 76 6 6 76 6 6 
75 9 10 29 11 11 10 10 8 7 5 8 5 5 5 5 6 8 8 8 8 11 9 10 11 11 11 8 8 10 7 6 4 6 6 6 7 7 7 7 7 5 7 7 7 25 20 16 47 33 24 18 6 6 7 6 4 5 5 5 5 5 7 6 6 6 6 6 4 8 6 7 9 9 9 9 9 9 8 8 8 8 8 8 11 11 11 13 13 13 9 9 9 7 7 7 4 4 4 17 5 5 9 5 4 5 5 3 8 6 7 9 9 11 11 11 11 9 11 10 9 11 10 11 11 11 11 11 11 11 9 10 10 10 10 10 10 10 9 8 6 8 8 8 7 6 4 58 49 42 57 6 5 6 6 6 8 6 7 8 6 7 8 8 8 7 5 6 6 7 2 7 7 5 11 10 8 12 12 12 9 9 9 7 7 9 36 12 12 62 14 14 66 10 11 73 9 9 74 10 10 75 11 12 71 11 11 47 11 11 10 8 11 11 9 10 10 10 10 11 11 11 8 8 6 11 9 10 11 11 13 8 8 10 9 9 9 10 9 7 59 9 8 75 7 8 76 8 7 72 6 7 76 6 8 77 5 6 76 8 9 49 11 10 20 12 10 11 11 13 10 10 10 9 11 10 10 10 8 13 13 11 13 11 12 18 8 7 71 6 4 75 5 5 77 5 8 77 9 8 
23 7 7 12 12 12 12 12 14 8 8 10 5 5 3 7 6 4 7 7 7 10 10 10 12 12 12 10 10 12 8 6 9 8 6 7 7 7 7 8 8 8 9 9 7 16 15 13 17 13 12 6 6 6 6 6 6 7 5 6 6 6 6 6 6 6 7 7 7 7 7 7 9 9 9 11 11 11 8 8 8 8 8 8 12 12 12 15 15 15 9 9 9 6 6 6 5 5 5 6 4 5 5 5 5 6 6 4 8 8 8 10 10 10 13 13 13 10 10 8 9 9 9 9 7 8 8 8 8 8 8 8 12 12 12 13 13 13 9 9 7 9 7 8 7 7 7 73 63 51 25 5 6 8 6 9 8 8 8 8 8 6 7 7 7 7 7 9 7 6 4 7 7 7 10 8 9 14 14 12 11 11 11 33 9 7 68 12 13 76 16 16 75 13 14 75 9 10 72 10 11 77 12 10 62 10 12 23 11 11 11 11 11 10 10 10 10 10 10 10 10 10 10 10 10 11 11 11 12 10 13 8 8 10 9 7 8 9 9 9 22 8 7 63 9 9 75 7 6 76 8 9 76 8 7 73 7 8 73 9 9 65 11 11 36 12 12 13 13 13 11 11 11 10 10 10 9 9 9 10 10 10 13 13 13 13 8 12 21 5 6 21 5 5 25 7 7 23 7 7 
7 7 5 9 8 6 9 9 9 8 6 7 7 7 5 7 7 7 9 8 6 10 10 10 11 9 10 10 10 12 7 7 7 6 6 6 7 5 6 7 6 4 7 7 7 7 7 7 9 7 8 6 6 6 7 7 7 8 6 7 7 7 7 6 6 6 9 8 6 7 7 7 8 8 8 8 8 8 8 8 8 9 9 9 11 11 11 13 13 13 12 12 12 7 7 7 3 3 3 3 3 3 3 5 4 3 3 3 6 6 6 9 9 9 12 11 9 11 9 10 10 10 10 7 7 5 6 6 6 6 4 5 9 9 9 14 14 14 13 11 12 10 10 10 9 9 9 23 22 18 8 8 8 7 7 7 7 7 7 7 7 5 8 8 8 7 7 7 8 8 8 9 7 8 8 9 4 12 12 12 10 10 10 42 8 9 75 14 13 75 17 15 75 15 15 75 11 11 74 10 11 74 10 10 60 12 12 11 13 12 11 11 11 11 11 11 12 12 10 11 11 11 11 9 10 12 12 12 7 9 8 6 6 6 8 8 8 10 8 9 9 9 7 20 8 10 63 9 9 74 9 7 72 6 7 73 7 8 73 9 9 76 10 11 45 13 14 14 12 15 11 11 11 10 10 8 11 11 11 10 10 12 10 9 7 7 7 5 6 6 6 8 8 8 5 5 5 6 6 6 
6 6 6 7 7 7 6 4 5 6 6 8 7 7 7 9 8 6 9 9 9 8 8 8 10 8 11 9 7 8 8 8 6 6 6 6 7 7 7 7 7 5 6 6 6 7 7 5 8 6 7 6 6 8 6 6 6 9 9 7 7 7 7 7 5 6 3 7 6 8 6 7 5 5 5 5 5 5 7 7 7 10 10 10 10 10 10 11 11 11 11 11 11 7 7 7 3 3 3 4 4 4 5 5 7 3 3 3 5 5 3 8 8 8 8 8 8 10 10 10 11 11 11 8 8 6 4 4 4 5 5 5 9 7 8 11 11 11 11 11 11 12 10 11 11 9 10 7 7 7 8 8 8 8 10 9 44 5 6 48 6 7 11 7 6 9 9 9 43 11 12 50 10 10 23 9 9 33 7 6 49 9 9 63 9 7 75 9 10 77 13 14 75 14 13 75 11 11 72 11 10 59 9 8 30 10 11 12 12 12 13 13 13 10 10 10 10 10 10 11 11 11 10 10 8 9 9 9 7 6 4 6 8 7 10 8 9 9 9 11 9 9 9 9 7 8 25 9 9 59 11 11 73 7 8 75 7 8 74 10 10 73 11 12 64 14 13 52 12 13 35 10 13 9 9 9 10 10 10 10 10 8 8 8 8 6 8 7 7 7 5 6 6 4 6 6 6 4 6 5 
5 7 6 7 7 5 6 6 6 5 5 7 4 6 3 6 6 4 8 6 7 8 8 6 8 10 9 9 9 9 8 8 8 7 7 9 7 7 7 8 8 6 8 8 8 8 8 10 8 8 8 8 6 7 6 6 8 9 7 10 8 8 8 6 6 6 5 5 5 6 4 5 4 4 4 2 2 2 5 5 5 9 9 9 12 12 12 12 12 12 12 12 12 6 6 6 6 4 5 7 5 6 6 6 6 4 4 4 5 3 4 6 4 5 6 6 8 6 6 6 11 9 10 10 10 10 7 7 7 6 6 6 7 7 7 7 7 7 9 9 9 13 13 13 10 12 11 7 7 7 8 8 8 8 8 8 62 6 7 72 6 7 52 6 6 50 10 8 67 11 10 74 10 10 57 7 10 67 5 6 73 8 6 75 7 8 74 9 7 75 10 8 75 11 11 75 11 12 55 9 9 29 9 10 11 11 13 12 12 12 13 11 12 9 9 9 9 11 10 11 9 10 9 9 9 9 7 8 6 8 7 7 5 6 8 8 8 9 9 11 9 9 9 8 8 8 9 11 10 29 13 14 34 8 9 57 7 8 76 12 12 74 12 13 73 11 12 62 12 13 27 11 11 11 11 11 9 9 9 9 9 9 8 8 8 7 7 7 9 9 9 8 8 8 6 6 6 8 7 5 
6 6 6 7 7 7 7 7 9 6 4 5 5 5 5 8 4 5 6 6 8 7 7 9 10 10 10 9 9 9 8 8 6 8 8 8 8 8 10 9 9 9 9 9 9 10 10 10 9 9 9 7 7 7 5 5 5 7 7 7 7 7 5 5 5 5 5 5 5 4 4 4 3 3 3 3 3 3 5 5 5 8 8 8 11 11 11 12 12 12 11 11 11 8 8 8 7 5 6 7 7 7 6 6 6 4 4 4 6 6 6 6 6 4 8 8 8 7 7 7 10 8 9 10 10 10 8 8 8 6 6 6 7 5 6 9 7 8 8 8 10 12 12 12 9 9 9 8 8 8 9 9 7 9 9 11 63 7 8 73 9 9 77 9 8 77 11 12 74 10 10 75 7 6 72 6 7 74 6 7 73 7 8 73 8 6 74 8 9 74 10 10 75 9 10 58 8 9 23 7 8 11 9 10 14 12 13 11 11 11 10 10 8 9 9 11 12 10 11 11 11 11 8 8 6 9 9 9 11 6 10 7 7 9 9 7 8 10 8 9 9 9 9 10 8 9 9 9 9 13 13 13 11 11 13 24 8 9 33 9 9 32 11 10 33 12 11 28 12 13 13 11 12 12 10 11 8 8 10 8 8 8 8 8 8 7 7 7 8 8 8 9 9 9 8 8 6 9 7 8 
7 5 6 7 5 6 6 6 6 5 5 5 5 5 5 5 5 5 5 5 5 7 7 7 8 8 8 9 9 9 9 9 9 8 8 8 9 7 10 9 9 9 10 8 9 10 8 11 10 8 9 8 8 8 5 5 5 7 7 7 6 5 3 3 3 3 4 4 4 4 4 6 3 3 3 3 3 3 5 5 3 7 9 8 10 10 10 11 11 11 11 11 11 9 9 9 9 9 9 9 7 8 8 8 10 6 8 7 9 8 6 8 8 8 7 7 7 6 6 6 20 6 6 41 9 10 41 7 6 40 6 5 40 9 6 39 9 9 8 8 8 12 12 12 9 9 7 8 8 8 10 9 7 8 8 8 38 8 10 69 11 10 76 10 11 76 10 11 76 8 9 74 6 5 73 5 4 75 5 7 75 7 6 76 8 9 75 9 10 76 10 11 60 9 8 28 8 7 9 9 9 10 12 11 12 12 12 12 12 12 10 10 10 11 10 8 12 10 11 10 10 10 9 9 7 41 9 10 8 6 7 6 7 9 9 9 9 9 9 9 8 8 8 10 8 9 10 8 9 11 9 10 11 11 11 9 9 9 7 7 7 8 6 7 9 9 9 12 12 12 14 12 15 11 11 11 8 8 8 7 7 5 8 7 5 7 6 4 7 7 7 8 8 8 9 9 9 8 8 8 
7 7 7 5 5 5 6 6 6 7 7 7 4 4 4 5 5 5 5 5 5 6 6 6 8 8 8 11 11 11 11 9 10 9 9 9 9 9 9 10 8 9 8 8 6 9 7 8 8 10 9 8 8 8 8 6 7 6 6 6 4 4 4 2 2 2 4 4 4 4 6 3 3 3 3 36 32 23 5 4 2 7 7 5 12 10 11 10 9 7 9 9 7 10 10 8 10 10 10 8 9 11 9 9 9 9 11 10 11 11 11 10 8 9 8 6 7 17 5 7 50 6 5 76 8 9 75 9 10 77 7 7 77 9 10 69 11 10 9 9 9 11 11 9 7 7 5 10 8 9 9 9 9 7 7 7 9 9 11 67 11 10 75 11 12 75 9 10 75 7 6 73 5 6 74 6 7 74 6 7 76 8 9 76 10 11 78 10 11 59 9 8 40 8 9 29 9 10 14 14 14 14 14 14 12 12 14 10 10 10 9 9 9 11 10 8 15 11 10 42 10 11 44 10 9 74 10 10 8 8 8 7 7 5 9 7 8 9 7 8 9 9 9 10 10 10 11 9 10 9 7 8 9 9 9 8 8 8 6 6 6 6 4 5 9 9 9 12 12 12 24 12 12 30 10 9 7 7 7 7 7 7 7 7 7 7 7 5 7 7 7 9 9 9 8 8 8 8 8 8 
7 7 7 8 8 8 8 8 8 6 6 6 5 5 5 6 6 6 6 6 6 6 6 6 7 9 8 9 10 12 11 11 11 10 8 9 10 10 10 11 11 11 10 10 10 8 6 7 7 7 7 8 8 8 9 8 6 6 6 6 5 3 4 2 2 2 3 3 3 3 3 1 3 3 3 39 32 24 7 5 6 10 10 10 11 9 10 7 7 7 7 7 5 10 9 7 10 10 10 7 7 9 6 6 6 9 9 9 9 9 9 12 10 11 22 8 7 47 7 7 68 19 15 75 40 34 77 34 28 78 10 11 76 10 11 71 10 9 39 9 11 9 9 11 7 7 7 8 8 8 8 10 9 9 9 9 10 8 9 66 10 9 76 12 12 77 9 10 74 6 5 73 5 4 74 6 5 76 6 6 78 10 11 76 12 12 77 13 13 58 10 10 40 8 9 32 12 13 18 18 18 15 15 13 12 12 10 12 12 10 11 11 11 11 9 10 18 9 10 76 11 9 74 10 10 74 10 10 10 10 12 7 9 8 8 6 7 8 10 9 10 10 10 10 10 10 10 10 10 9 9 9 9 9 9 8 8 8 7 7 7 6 6 6 9 9 7 12 11 9 23 12 10 29 9 8 7 7 7 7 7 7 8 8 8 8 6 9 7 7 7 8 8 8 9 9 9 10 10 10 
7 7 7 10 10 10 8 8 8 6 6 6 7 7 7 6 6 6 6 4 5 9 7 8 9 9 9 10 10 10 11 9 10 10 8 9 10 10 10 11 11 13 9 9 11 7 7 7 7 7 7 7 7 7 8 6 9 7 7 7 4 6 5 4 4 2 4 4 4 4 4 4 32 3 5 32 4 3 34 10 10 17 13 12 8 8 8 6 6 8 8 6 7 8 8 6 9 7 8 6 6 6 5 5 5 6 6 6 9 9 9 10 10 10 38 8 8 67 14 10 69 36 29 76 49 40 77 42 36 78 10 11 75 9 10 75 9 10 70 12 11 29 7 9 7 8 3 7 7 7 9 9 9 10 8 9 30 10 12 70 10 10 75 11 12 75 9 10 74 6 5 72 7 5 74 6 5 77 7 7 77 11 12 78 14 15 78 14 14 76 10 11 51 9 11 14 14 12 17 17 17 14 14 14 11 11 11 11 11 9 10 10 10 10 8 11 16 6 5 77 9 6 74 10 10 75 10 8 9 9 9 10 8 9 7 7 5 10 10 10 10 10 10 10 10 10 10 10 10 9 9 9 8 8 8 7 7 7 7 7 7 7 7 7 9 9 9 11 10 8 10 10 10 7 9 8 7 7 7 7 7 7 8 8 8 7 7 9 6 6 6 7 7 7 8 8 8 9 9 9 
7 7 7 11 11 11 8 8 8 5 5 5 7 7 7 7 7 7 6 4 5 7 5 6 9 7 8 9 9 9 8 8 8 8 8 8 9 11 10 9 9 9 11 9 10 10 10 10 8 6 7 8 7 5 8 8 8 6 8 7 6 6 6 5 5 5 4 4 2 4 4 4 74 6 5 72 7 3 74 12 13 40 12 11 10 6 5 5 5 5 4 4 4 6 4 7 7 5 6 6 6 4 5 5 5 6 6 6 8 8 8 10 8 9 39 7 8 70 21 17 71 28 21 77 7 7 74 8 10 76 10 11 77 11 12 77 9 10 74 10 10 70 9 6 33 7 8 34 8 7 35 9 10 34 10 10 70 8 9 74 10 8 75 11 11 73 9 9 74 6 5 74 6 7 76 6 6 77 7 7 75 14 13 76 16 16 76 15 14 75 9 10 60 12 12 40 16 16 31 15 15 11 11 11 10 10 10 8 8 6 8 8 8 6 6 6 9 3 5 50 6 5 49 9 9 51 9 10 8 9 11 8 8 8 8 8 8 10 10 10 11 11 11 11 11 11 9 9 9 8 8 8 7 7 7 6 6 6 7 7 7 9 9 9 10 10 8 10 10 10 9 9 9 9 8 6 10 9 7 8 8 10 8 6 7 7 5 6 6 6 6 8 8 8 8 8 8 9 9 9 
6 6 6 7 7 7 6 6 6 9 9 9 9 9 9 7 7 7 4 4 4 6 6 6 7 7 5 8 10 9 8 8 8 8 6 7 10 8 11 12 12 12 12 12 12 12 10 11 9 7 8 7 7 7 7 7 5 8 6 7 9 7 8 31 7 7 30 4 5 30 4 3 74 6 7 74 8 9 71 10 9 50 6 7 10 6 5 4 4 4 3 3 1 5 3 4 4 4 4 5 7 6 6 6 6 4 4 4 5 5 5 8 6 7 40 6 4 75 7 8 76 8 9 74 8 9 73 8 4 75 11 11 76 10 11 75 9 10 72 10 11 73 9 9 76 8 9 75 10 8 77 11 13 75 11 11 72 6 7 76 8 7 77 11 12 76 12 12 74 8 9 76 6 8 76 6 6 75 7 6 74 13 12 75 14 13 75 11 11 73 9 10 75 14 13 77 15 16 58 12 12 33 9 9 26 8 8 9 7 8 5 5 5 7 7 7 7 7 7 8 8 10 9 9 11 8 7 5 8 8 10 10 8 9 11 9 10 12 12 12 12 12 12 11 11 11 10 10 10 8 8 8 7 7 7 7 7 7 8 8 8 9 9 9 10 10 12 10 10 10 10 10 8 9 9 9 8 8 8 9 7 8 7 7 7 6 6 6 7 7 7 8 8 8 8 8 8 7 7 7 
7 7 7 5 5 5 9 9 9 12 12 12 12 12 12 7 7 7 5 5 5 5 5 5 7 6 4 6 6 6 7 5 6 4 6 3 8 8 6 13 11 12 17 13 12 29 11 11 24 8 9 24 8 8 21 5 5 25 7 7 33 7 8 76 8 7 75 7 8 74 6 5 75 7 4 75 24 21 57 9 7 9 5 4 4 4 2 5 5 3 4 4 4 4 4 4 5 5 5 6 6 6 6 6 6 3 3 1 5 3 4 4 4 4 34 6 5 61 7 5 73 7 8 73 7 8 75 9 10 77 9 10 75 11 11 74 10 11 69 9 9 71 10 9 74 8 9 77 9 10 77 9 10 73 9 9 75 5 5 72 7 3 76 12 13 76 14 15 74 10 10 76 6 6 76 6 8 75 7 6 74 10 10 75 11 11 70 9 8 72 11 10 75 13 14 74 14 14 75 9 10 76 8 7 63 9 9 22 8 8 9 9 11 7 9 8 8 10 7 12 12 12 8 8 8 6 6 4 10 8 11 10 10 8 11 11 9 13 13 11 14 14 14 10 10 10 8 8 8 7 7 7 7 7 7 7 7 7 8 8 8 9 9 9 10 8 9 10 10 10 11 11 9 9 9 9 9 9 9 10 8 9 9 7 8 8 6 7 8 8 8 8 8 8 8 8 8 6 6 6 
10 8 9 9 7 8 9 9 9 12 12 12 12 12 12 10 10 10 5 5 5 5 5 5 4 4 4 5 5 5 5 5 5 6 6 6 15 7 5 28 10 10 46 12 11 75 9 11 72 10 11 74 8 9 74 6 5 76 6 6 74 6 7 72 6 7 72 6 7 74 6 7 75 7 6 56 46 37 7 9 6 6 6 6 5 5 5 5 5 5 4 4 4 4 4 4 6 6 6 5 5 5 6 6 4 4 4 2 3 3 5 3 3 1 5 5 7 26 6 7 56 6 5 57 7 8 60 8 10 74 9 7 76 6 8 75 7 8 70 8 9 73 9 9 75 11 11 77 9 10 76 10 11 76 8 7 75 7 6 76 6 6 78 14 14 75 15 15 74 8 9 75 7 6 74 5 8 73 8 6 72 6 7 75 9 10 74 8 9 74 10 10 77 13 13 75 11 12 76 8 9 74 8 9 74 8 9 59 8 7 10 10 8 9 9 11 10 8 9 12 12 10 9 9 9 6 6 6 9 9 11 10 10 8 10 10 10 13 13 13 12 12 12 9 9 9 6 6 6 7 7 7 9 9 9 8 8 8 8 8 8 9 9 9 9 9 9 11 9 10 8 10 9 9 9 11 8 8 8 8 8 10 9 8 6 8 8 8 7 7 7 8 8 8 7 7 7 6 6 6 
25 9 9 28 10 10 14 10 11 23 11 13 15 10 7 9 9 9 7 7 9 3 3 5 4 4 6 4 4 4 5 5 3 15 7 5 49 7 8 74 8 9 74 8 9 75 11 11 75 11 12 73 12 11 73 22 21 73 22 18 76 23 19 75 7 8 73 7 8 55 5 4 56 4 6 7 6 4 7 7 7 6 6 6 6 6 4 5 5 5 4 4 4 4 4 6 19 5 5 25 7 7 16 6 7 7 7 7 6 6 4 3 5 4 4 4 4 6 4 5 7 7 9 7 7 7 21 7 6 62 6 5 74 6 5 73 7 8 74 8 9 75 11 11 77 11 13 77 9 6 77 9 10 76 10 12 76 8 7 73 7 8 73 11 12 76 12 12 73 8 6 60 6 4 57 6 5 56 6 5 59 7 9 67 8 10 73 9 7 73 9 10 73 9 9 76 8 9 75 7 6 75 7 6 74 10 10 62 8 8 27 9 7 9 7 10 8 8 8 9 9 9 8 10 9 8 8 8 10 8 9 12 10 11 11 11 11 13 13 13 11 11 11 9 9 9 8 8 8 9 9 9 10 12 11 8 8 8 8 8 6 7 9 6 8 8 8 7 7 7 8 8 8 9 9 9 8 8 8 9 9 9 8 8 8 7 7 7 7 5 8 9 9 7 8 8 8 7 7 7 
76 10 11 74 10 8 25 11 11 67 11 12 26 10 11 10 9 7 5 7 4 5 5 5 5 3 6 4 4 2 5 5 5 39 9 9 75 14 13 75 11 11 73 7 8 75 11 11 74 13 12 74 21 17 76 64 48 76 64 50 74 54 43 74 8 9 67 7 9 5 5 5 4 4 2 5 3 4 5 5 5 5 5 5 6 6 4 4 4 2 4 2 5 5 3 4 55 5 4 75 7 8 36 6 6 13 9 10 9 9 9 8 8 8 3 3 3 4 4 4 9 10 5 8 8 8 5 5 5 21 5 5 74 4 6 73 5 6 75 9 10 75 14 13 76 12 12 76 8 7 77 9 10 78 10 11 74 10 10 73 7 8 75 7 8 77 9 10 74 10 8 25 6 8 6 6 6 6 6 4 10 10 10 43 12 10 73 9 9 73 9 9 73 7 8 74 9 7 75 7 6 75 7 8 76 10 12 74 10 10 66 6 5 8 6 7 6 6 4 8 8 8 8 8 8 9 9 9 11 9 10 11 11 11 13 13 13 12 12 14 10 10 10 10 9 7 9 9 9 16 10 10 19 10 11 12 8 7 7 7 9 8 7 5 7 7 7 7 7 7 8 8 8 8 8 8 8 8 8 10 10 10 9 9 9 5 5 5 6 6 6 9 9 7 8 8 8 15 6 7 
75 9 10 75 11 12 74 12 13 75 9 10 76 10 11 25 9 9 6 8 7 6 4 5 6 4 5 6 6 6 6 6 6 40 33 25 75 59 44 73 35 26 74 8 9 74 8 9 74 10 10 76 10 11 73 9 9 73 8 6 76 8 7 73 9 7 67 9 8 8 7 5 6 6 6 5 3 4 4 2 3 5 5 3 5 5 7 6 4 5 4 4 4 5 5 5 56 6 5 74 6 5 74 6 7 33 9 7 11 11 13 12 10 11 7 7 7 7 7 9 11 10 8 11 9 10 8 7 5 22 3 5 73 5 6 72 6 7 74 10 8 77 13 13 77 11 12 76 8 9 74 10 10 74 13 12 74 8 9 71 5 6 74 4 4 75 5 7 69 10 12 25 9 9 5 7 6 7 7 7 10 12 11 44 10 11 73 9 9 73 9 10 73 9 9 78 8 10 75 6 9 74 6 7 74 10 8 69 10 12 56 6 7 6 6 6 6 6 4 6 6 6 9 9 9 9 9 9 10 10 10 13 13 15 13 13 13 11 10 15 11 9 10 11 9 10 10 10 10 51 9 10 75 9 10 31 5 6 8 7 5 8 7 5 7 7 7 7 7 7 9 9 9 9 9 9 9 9 9 10 10 10 10 10 10 7 7 7 6 6 8 7 7 7 8 6 7 75 5 7 
74 6 5 79 19 19 77 23 23 74 8 9 76 8 9 34 8 9 8 8 8 6 6 8 5 5 5 5 5 5 11 5 5 43 7 7 73 7 8 73 7 8 76 8 9 73 9 7 75 11 11 76 10 11 75 9 10 76 8 7 74 10 8 74 8 9 68 10 9 9 9 11 6 6 4 4 4 4 3 5 2 2 4 3 4 4 2 5 3 4 5 5 5 6 5 3 48 6 7 69 8 7 71 7 8 30 10 9 11 9 10 12 10 11 10 10 10 11 9 10 11 9 10 11 9 10 7 5 6 20 4 4 71 5 6 73 7 8 73 9 7 75 11 12 75 9 10 75 9 10 75 11 11 74 12 13 75 7 8 73 5 2 74 4 6 76 6 6 26 8 8 6 6 6 7 5 6 7 7 7 13 9 8 46 8 7 75 9 10 73 11 14 74 8 9 77 9 6 79 11 12 74 8 9 68 8 7 54 8 8 9 9 9 8 8 8 6 6 4 7 7 7 8 10 5 11 9 10 10 10 10 13 13 13 12 10 11 9 9 9 10 10 10 10 10 10 11 9 10 47 8 9 67 7 9 28 6 8 7 7 7 8 8 6 7 7 7 8 8 8 8 8 8 9 9 9 9 9 9 9 9 9 11 11 11 8 8 8 6 6 6 7 7 7 5 5 5 65 5 5 
74 6 7 75 14 13 76 16 16 74 9 7 72 6 7 75 9 10 26 10 11 8 6 7 6 6 6 5 7 6 47 5 6 72 7 5 73 8 6 72 6 7 76 8 9 74 8 9 75 11 11 75 11 11 74 8 9 75 9 10 76 10 11 75 9 10 68 10 9 10 10 10 6 6 6 4 4 6 3 3 3 2 2 2 5 4 2 5 4 2 5 5 5 5 5 5 7 7 7 49 7 8 32 8 8 8 8 10 10 10 10 11 11 13 11 11 13 11 11 9 9 9 7 7 7 7 3 3 3 17 1 2 72 4 3 73 7 8 76 6 6 73 9 9 74 8 9 74 8 9 73 7 8 71 9 10 74 6 5 74 4 4 75 5 5 74 6 5 23 5 5 7 6 4 6 4 5 7 7 7 50 8 12 73 7 8 72 10 11 74 13 12 77 11 13 77 9 8 76 8 9 74 8 9 57 9 7 9 9 9 8 10 9 9 7 8 6 6 6 6 8 7 9 9 9 10 10 10 9 9 9 12 12 12 10 10 10 9 9 9 10 10 10 10 8 9 12 10 11 9 9 9 8 8 8 7 5 6 7 7 7 8 6 7 8 8 8 8 8 8 8 8 8 9 9 9 9 9 9 10 10 10 11 11 11 9 9 9 8 7 5 6 6 4 5 5 5 7 6 4 
77 9 10 75 7 6 72 8 6 76 8 9 74 8 9 74 10 10 74 10 10 73 9 7 74 8 9 76 6 6 72 7 5 74 6 7 74 6 7 74 6 7 75 7 8 74 8 9 74 10 10 74 10 10 75 10 8 74 10 10 74 10 10 78 10 11 73 12 11 74 10 11 10 8 9 6 4 5 4 3 1 5 3 4 6 6 8 5 5 3 4 4 4 6 6 6 9 8 6 9 9 9 7 7 7 8 8 8 9 9 7 10 10 12 11 11 13 11 11 11 10 9 7 6 6 6 19 3 3 71 3 2 72 2 4 75 5 5 75 9 10 75 11 11 75 11 11 71 5 6 73 7 8 74 10 10 75 7 8 73 5 4 73 5 4 74 6 7 76 8 9 72 6 7 74 4 6 34 8 7 49 8 6 73 9 9 75 9 10 77 13 13 77 11 12 76 10 11 74 10 10 57 12 9 9 11 10 10 8 9 11 9 10 7 9 8 6 6 6 9 8 6 8 8 8 8 8 8 9 9 9 12 12 12 15 15 15 12 12 12 12 10 11 11 11 11 9 9 9 8 8 8 9 9 11 8 6 7 6 6 4 8 8 8 10 10 10 10 10 10 9 9 9 9 9 9 11 11 11 13 13 13 10 10 10 9 9 9 7 9 8 7 7 9 6 7 2 5 7 6 
